<?xml version="1.0" standalone="no"?>
<!DOCTYPE svg PUBLIC "-//W3C//DTD SVG 20010904//EN"
 "http://www.w3.org/TR/2001/REC-SVG-20010904/DTD/svg10.dtd">
<svg version="1.0" xmlns="http://www.w3.org/2000/svg"
 width="274.000000pt" height="224.000000pt" viewBox="0 0 274.000000 224.000000"
 preserveAspectRatio="xMidYMid meet">
<metadata>
Created by potrace 1.16, written by Peter Selinger 2001-2019
</metadata>
<g transform="translate(0.000000,224.000000) scale(0.100000,-0.100000)"
fill="#000000" stroke="none">
<path d="M112 2209 c-17 -17 -20 -18 -25 -5 -8 21 -31 20 -48 -1 -12 -16 -12
-17 2 -6 20 16 29 7 29 -28 0 -30 -15 -45 -43 -41 -19 4 -23 -13 -6 -23 6 -4
21 3 33 14 23 22 23 22 29 2 6 -25 17 -26 43 -5 18 15 18 15 -3 9 -19 -5 -23
-2 -23 19 0 37 10 56 31 56 10 0 19 7 19 15 0 21 -16 19 -38 -6z"/>
<path d="M241 2193 c-24 -91 -24 -93 -7 -93 16 0 16 -70 10 -925 l-6 -925
1181 0 c1008 0 1181 -2 1181 -14 0 -12 8 -12 58 1 31 8 60 18 65 22 4 4 -22
14 -58 23 -54 13 -65 13 -65 2 0 -12 -60 -14 -342 -14 -189 -1 -715 -3 -1170
-7 l-828 -5 0 921 c0 840 1 921 16 921 17 0 17 2 -7 93 -5 20 -12 37 -14 37
-2 0 -9 -17 -14 -37z"/>
<path d="M869 2171 c11 -7 10 -20 -5 -79 -11 -44 -24 -73 -34 -76 -8 -2 13 -4
47 -5 79 -1 113 11 113 42 0 13 -5 28 -11 34 -9 9 -8 16 5 28 38 39 11 65 -68
65 -38 0 -56 -4 -47 -9z m96 -11 c12 -19 -5 -48 -32 -54 -33 -9 -36 -4 -28 33
5 24 12 31 30 31 13 0 27 -5 30 -10z m-7 -93 c5 -26 -16 -47 -49 -47 -30 0
-37 17 -23 55 9 23 68 16 72 -8z"/>
<path d="M829 1930 c-76 -39 -147 -106 -226 -211 -36 -49 -70 -89 -74 -89 -15
0 -40 -33 -35 -46 3 -8 -10 -41 -29 -73 -39 -66 -40 -71 -22 -71 7 0 26 25 42
55 17 30 35 55 42 55 19 0 45 31 38 47 -7 19 25 71 94 152 99 117 178 174 207
150 8 -7 27 -9 49 -5 46 9 97 -18 165 -86 98 -98 223 -316 213 -370 -4 -19 0
-29 15 -37 11 -6 33 -45 51 -93 18 -46 36 -92 41 -103 5 -11 25 -60 45 -110
55 -135 166 -363 226 -462 66 -111 170 -217 225 -232 69 -18 163 19 230 91 35
37 106 139 124 178 6 14 21 30 33 36 16 7 21 17 20 37 -1 16 9 53 22 82 22 50
23 65 4 65 -4 0 -15 -21 -25 -47 -10 -27 -29 -58 -42 -70 -13 -12 -25 -35 -26
-51 -4 -65 -133 -235 -205 -272 -51 -25 -101 -33 -134 -21 -45 17 -133 107
-187 191 -42 67 -180 330 -180 344 0 3 -11 29 -25 58 -63 137 -152 378 -148
401 3 17 -1 29 -14 38 -11 8 -41 57 -67 109 -87 174 -195 298 -301 346 -30 14
-57 30 -60 35 -9 14 -25 10 -86 -21z"/>
<path d="M390 1753 c-25 -37 -56 -78 -69 -90 l-24 -23 38 0 c33 0 36 2 25 15
-18 21 -1 36 41 38 25 2 34 -3 37 -17 2 -10 -2 -22 -10 -27 -8 -6 3 -9 31 -9
39 0 42 2 28 13 -11 8 -21 37 -28 82 -6 39 -14 73 -18 77 -3 4 -27 -23 -51
-59z m37 -40 c-3 -2 -15 -3 -27 -1 l-22 3 24 30 23 30 3 -29 c2 -15 1 -30 -1
-33z"/>
<path d="M1466 1601 c-70 -47 -76 -129 -13 -156 37 -16 82 -3 98 28 11 20 11
20 -16 -1 -59 -47 -105 -16 -85 58 20 76 100 101 100 32 0 -21 2 -24 10 -12
14 21 12 56 -2 58 -7 1 -24 4 -38 7 -16 4 -35 -1 -54 -14z"/>
<path d="M2399 791 c12 -8 12 -19 -3 -73 -10 -34 -25 -69 -34 -76 -15 -12 -6
-13 57 -10 65 3 76 7 97 31 30 35 32 89 4 117 -15 15 -33 20 -77 20 -38 0 -53
-3 -44 -9z m99 -13 c7 -7 12 -29 12 -50 0 -46 -35 -88 -75 -88 -30 0 -31 12
-9 92 14 48 20 58 38 58 12 0 27 -5 34 -12z"/>
<path d="M35 175 c-36 -35 -36 -115 0 -151 19 -18 31 -23 48 -19 43 13 59 39
59 96 0 45 -4 56 -26 76 -34 29 -51 29 -81 -2z m70 -18 c11 -44 1 -119 -17
-131 -13 -8 -21 -7 -29 1 -16 16 -23 93 -10 126 13 34 48 37 56 4z"/>
<path d="M2690 145 c0 -9 -10 -20 -22 -25 -13 -5 -17 -9 -10 -9 11 -1 12 -13
7 -51 -6 -45 -5 -50 13 -50 11 0 26 8 33 18 13 15 12 16 -4 3 -24 -19 -28 -12
-15 37 7 28 16 42 27 42 13 0 13 2 2 9 -8 5 -11 16 -8 25 4 10 1 16 -8 16 -8
0 -15 -7 -15 -15z"/>
</g>
</svg>
