<?xml version="1.0"?><svg xmlns="http://www.w3.org/2000/svg" id="Layer_1" data-name="Layer 1" viewBox="0 0 64 64"><path d="M10.62,62H43.15a3.91,3.91,0,0,0,3.91-3.91v-1.2h1.2A3.92,3.92,0,0,0,52.17,53V51.77h1.2a3.91,3.91,0,0,0,3.92-3.91V5.91A3.91,3.91,0,0,0,53.37,2H20.85a3.91,3.91,0,0,0-3.91,3.91v1.2H15.73A3.92,3.92,0,0,0,11.82,11v1.21h-1.2a3.91,3.91,0,0,0-3.91,3.91v42A3.91,3.91,0,0,0,10.62,62ZM18.94,5.91A1.92,1.92,0,0,1,20.85,4H53.37a1.92,1.92,0,0,1,1.92,1.91v42a1.91,1.91,0,0,1-1.92,1.91h-1.2V11a3.92,3.92,0,0,0-3.91-3.91H18.94ZM13.82,11a1.92,1.92,0,0,1,1.91-1.91H48.26A1.92,1.92,0,0,1,50.17,11V53a1.92,1.92,0,0,1-1.91,1.91h-1.2V16.14a3.91,3.91,0,0,0-3.91-3.91H13.82ZM8.71,16.14a1.91,1.91,0,0,1,1.91-1.91H43.15a1.92,1.92,0,0,1,1.91,1.91v42A1.92,1.92,0,0,1,43.15,60H10.62a1.91,1.91,0,0,1-1.91-1.91Z"/><path d="M12.82,31H39.29a1,1,0,0,0,1-1V21.25a1,1,0,0,0-1-1H12.82a1,1,0,0,0-1,1V30A1,1,0,0,0,12.82,31Zm1-8.76H38.29V29H13.82Z"/><path d="M39.29,38.09H14.86a1,1,0,0,0,0,2H39.29a1,1,0,0,0,0-2Z"/><path d="M33.5,42.59H20.64a1,1,0,0,0,0,2H33.5a1,1,0,0,0,0-2Z"/></svg>