<?xml version="1.0" standalone="no"?>
<!DOCTYPE svg PUBLIC "-//W3C//DTD SVG 20010904//EN"
 "http://www.w3.org/TR/2001/REC-SVG-20010904/DTD/svg10.dtd">
<svg version="1.0" xmlns="http://www.w3.org/2000/svg"
 width="425.746715pt" height="329.183877pt" viewBox="0 0 425.746715 329.183877"
 preserveAspectRatio="xMidYMid meet">
<metadata>
Created by potrace 1.16, written by Peter Selinger 2001-2019
</metadata>
<g transform="translate(-37.106766,339.863949) scale(0.100000,-0.100000)"
fill="#000000" stroke="none">
<path d="M1002 3390 c-18 -4 -41 -15 -51 -24 -10 -9 -22 -16 -28 -16 -12 0
-81 -74 -106 -113 -10 -16 -15 -37 -12 -46 3 -10 -1 -24 -10 -31 -17 -14 -22
-135 -5 -145 6 -3 10 -24 10 -46 0 -28 6 -42 20 -51 11 -7 20 -18 20 -24 0
-18 90 -104 131 -125 21 -10 56 -23 76 -27 35 -7 39 -11 46 -52 4 -25 7 -51 7
-57 0 -7 0 -21 0 -30 0 -10 -1 -36 -1 -58 -2 -40 -1 -99 5 -255 2 -51 -1 -90
-7 -99 -8 -9 -11 -179 -9 -562 2 -488 1 -548 -13 -543 -8 4 -15 1 -15 -5 0 -6
7 -11 15 -11 12 0 15 -22 14 -134 l0 -134 -27 -10 c-15 -6 -43 -14 -62 -17
-19 -4 -55 -24 -80 -44 -25 -20 -56 -44 -70 -52 -14 -9 -31 -34 -39 -55 -7
-21 -23 -58 -33 -82 -19 -38 -19 -50 -9 -133 9 -84 14 -95 51 -145 48 -61 114
-118 150 -129 14 -4 30 -12 36 -16 7 -5 45 -10 86 -12 65 -2 82 2 134 27 157
78 214 178 199 349 -6 81 -30 141 -77 197 -36 43 -107 88 -155 100 -29 6 -50
16 -47 22 3 5 5 240 5 521 -1 282 2 711 5 955 l7 444 23 14 c12 8 39 18 60 21
47 8 133 93 164 162 12 25 26 54 31 63 12 23 12 143 0 166 -6 9 -13 33 -16 52
-12 74 -105 165 -193 190 -42 11 -181 12 -230 0z m202 -69 c6 -4 22 -11 36
-14 14 -4 46 -30 71 -59 38 -44 48 -64 57 -113 22 -128 -33 -250 -136 -302
-44 -22 -148 -24 -206 -4 -42 14 -146 111 -146 135 0 7 -6 26 -14 40 -17 33
-10 107 15 160 11 22 19 45 19 52 0 12 41 50 97 89 45 32 174 42 207 16z m18
-2639 c66 -38 118 -104 118 -151 0 -20 7 -47 16 -59 14 -21 13 -28 -13 -102
-24 -70 -35 -86 -83 -128 l-54 -47 -103 0 -103 0 -66 65 c-35 36 -69 76 -74
88 -18 42 -14 176 5 213 51 100 129 147 240 148 58 0 78 -5 117 -27z"/>
<path d="M397 3153 c-4 -3 -7 -24 -7 -45 0 -22 -5 -59 -11 -84 -13 -49 -2 -74
32 -74 14 0 19 7 19 25 0 31 56 120 65 105 4 -6 0 -19 -9 -28 -8 -10 -18 -37
-22 -60 -6 -41 -6 -42 22 -42 23 0 32 6 42 33 25 62 38 82 56 85 16 3 17 -1
11 -30 -4 -18 -13 -40 -21 -49 -19 -21 0 -39 42 -39 40 0 59 21 45 48 -7 13
-7 31 -1 53 25 87 -3 127 -66 93 -32 -17 -34 -17 -54 1 -18 16 -24 17 -41 7
-14 -9 -25 -9 -39 -2 -21 11 -53 13 -63 3z"/>
<path d="M3200 2351 c0 -5 5 -13 10 -16 13 -8 13 -40 0 -63 -30 -54 -63 -138
-67 -173 l-6 -39 36 0 c42 0 55 14 33 35 -18 18 -12 70 12 97 22 26 29 14 27
-47 -3 -93 14 -93 101 0 81 86 97 82 44 -14 -16 -29 -27 -57 -24 -62 3 -5 28
-9 56 -9 48 0 50 1 43 23 -11 34 -6 89 9 106 8 9 20 38 27 64 6 26 21 54 32
62 25 17 16 45 -14 45 -15 0 -51 -31 -112 -95 -49 -52 -96 -95 -104 -95 -12 0
-13 3 -3 15 8 10 9 23 1 47 -5 18 -14 53 -18 78 -8 43 -10 45 -45 48 -21 2
-38 -1 -38 -7z"/>
<path d="M1618 2192 c-22 -14 -28 -26 -34 -69 -3 -29 -12 -58 -20 -64 -20 -17
-17 -62 6 -87 27 -29 41 -28 75 8 l28 30 11 -23 c17 -33 72 -31 99 5 20 26 20
28 3 47 -13 14 -15 24 -7 38 5 10 17 40 25 67 18 54 10 71 -29 60 -27 -7 -65
-51 -65 -73 0 -10 -9 -26 -20 -36 -11 -10 -20 -24 -20 -32 0 -7 -7 -13 -15
-13 -11 0 -13 5 -6 18 10 19 41 119 41 133 0 14 -42 9 -72 -9z"/>
<path d="M2100 1860 c0 -26 -5 -51 -12 -58 -14 -14 -166 -16 -188 -2 -9 5 -19
5 -27 -1 -6 -6 -27 -9 -45 -7 -30 3 -33 6 -33 38 0 32 -3 35 -32 38 -18 2 -33
-1 -33 -7 0 -5 -33 -19 -72 -31 -40 -12 -82 -26 -93 -30 -11 -5 -38 -12 -60
-15 -22 -4 -43 -12 -47 -18 -11 -18 12 -37 43 -37 15 0 30 -4 33 -8 3 -5 38
-14 78 -21 40 -7 83 -19 95 -27 12 -8 37 -15 55 -16 29 -3 33 0 36 25 l3 27
135 2 c74 0 140 1 147 2 7 1 13 -13 15 -31 2 -21 11 -37 25 -45 16 -9 196 -13
707 -14 377 -1 699 -5 715 -8 22 -3 939 -9 1073 -6 10 0 12 30 10 133 l-3 132
-540 2 c-359 1 -546 5 -560 13 -13 7 -248 11 -723 13 l-702 2 0 -45z m1720
-50 c80 0 160 -4 177 -9 18 -5 35 -6 38 -1 8 13 486 12 502 -2 7 -6 13 -31 13
-59 0 -49 0 -49 -32 -49 -219 -3 -983 2 -989 6 -5 2 -309 5 -676 6 -424 0
-673 4 -680 11 -17 12 -16 67 1 89 12 16 43 18 327 20 173 2 508 0 744 -4 237
-5 495 -8 575 -8z"/>
<path d="M390 500 c0 -21 -5 -62 -12 -90 -10 -43 -9 -53 3 -61 26 -16 49 -10
49 13 0 27 48 110 60 103 4 -3 -1 -22 -11 -42 -10 -21 -19 -48 -19 -60 0 -19
5 -23 29 -23 26 0 31 6 47 48 21 57 32 72 51 72 11 0 13 -8 8 -32 -4 -18 -11
-37 -16 -42 -5 -6 -9 -18 -9 -28 0 -15 8 -18 44 -18 46 0 67 20 46 45 -6 8 -6
30 2 67 6 30 9 62 5 71 -8 20 -49 22 -77 5 -15 -9 -25 -10 -37 -2 -10 6 -51
11 -90 12 l-73 1 0 -39z"/>
</g>
</svg>
