<?xml version="1.0" standalone="no"?>
<!DOCTYPE svg PUBLIC "-//W3C//DTD SVG 20010904//EN"
 "http://www.w3.org/TR/2001/REC-SVG-20010904/DTD/svg10.dtd">
<svg version="1.0" xmlns="http://www.w3.org/2000/svg"
 width="1020.998771pt" height="625.883499pt" viewBox="0 0 1020.998771 625.883499"
 preserveAspectRatio="xMidYMid meet">
<metadata>
Created by potrace 1.16, written by Peter Selinger 2001-2019
</metadata>
<g transform="translate(-48.001229,659.883499) scale(0.100000,-0.100000)"
fill="#000000" stroke="none">
<path d="M1646 6584 c-115 -15 -133 -21 -120 -34 7 -7 58 -5 146 6 74 8 157
14 183 12 l47 -3 -64 -87 -63 -87 -70 -1 c-134 -1 -162 -28 -34 -32 l82 -3
-57 -85 c-58 -86 -66 -115 -32 -115 14 0 40 30 83 95 36 52 67 98 71 102 4 3
50 2 102 -3 52 -5 98 -5 102 -1 18 18 -13 31 -91 39 l-83 8 51 70 c51 70 61
101 39 123 -16 16 -163 14 -292 -4z"/>
<path d="M1073 6515 c-33 -66 -41 -75 -65 -75 l-28 0 27 54 c15 31 23 61 20
71 -13 33 -42 10 -76 -61 l-34 -72 -88 -7 c-71 -5 -89 -10 -89 -22 0 -13 11
-15 81 -8 l82 7 -8 -29 c-3 -15 -8 -29 -9 -30 -1 -2 -36 -7 -76 -13 -78 -11
-102 -22 -84 -40 7 -7 30 -5 73 6 35 8 65 14 67 11 3 -2 0 -16 -6 -31 -15 -40
-12 -76 6 -83 22 -8 36 10 51 69 8 29 15 53 16 54 1 0 16 4 34 7 31 6 32 5 23
-19 -15 -38 -12 -74 6 -81 22 -8 40 17 48 66 5 35 9 39 43 45 21 3 59 6 84 6
60 0 109 10 109 22 0 6 -42 8 -105 6 -101 -3 -105 -2 -99 17 4 11 9 23 13 27
5 6 231 38 268 38 7 0 13 7 13 15 0 8 -6 15 -12 15 -21 0 -190 -19 -226 -25
l-32 -6 26 54 c15 30 24 62 21 71 -13 34 -38 15 -74 -59z m-53 -117 c0 -22
-14 -36 -43 -43 -30 -8 -31 -7 -17 29 7 19 17 26 35 26 14 0 25 -6 25 -12z"/>
<path d="M480 6109 c0 -27 361 -33 1042 -19 725 16 1168 8 1356 -25 24 -5 32
-2 32 9 0 18 -14 22 -115 38 -61 10 -351 13 -1197 13 -1029 0 -1118 -1 -1118
-16z"/>
<path d="M3569 6023 c-16 -40 -16 -156 0 -313 18 -175 10 -405 -18 -511 -11
-42 -34 -105 -51 -138 -33 -66 -32 -77 7 -92 l25 -9 -5 -133 c-2 -72 -10 -212
-17 -310 -11 -139 -11 -196 -2 -257 13 -90 51 -175 83 -185 35 -11 42 8 20 52
-45 86 -51 248 -20 599 13 152 5 240 -27 275 -15 17 -14 24 14 91 49 119 64
212 64 395 0 89 -6 206 -12 260 -12 97 -17 254 -9 283 3 9 -4 16 -18 18 -17 3
-26 -4 -34 -25z"/>
<path d="M4082 5988 c-6 -6 -12 -18 -12 -25 0 -36 -94 -161 -132 -175 -25 -10
-19 -43 7 -43 11 0 21 9 25 21 6 24 70 104 70 87 0 -6 -14 -50 -31 -98 -34
-96 -35 -130 -4 -130 17 0 28 23 68 143 51 152 63 224 37 229 -9 2 -21 -2 -28
-9z"/>
<path d="M7312 5955 c-11 -13 -39 -41 -63 -61 -54 -44 -58 -54 -25 -54 19 0
26 5 26 19 0 10 7 21 15 25 19 7 19 12 -9 -71 -35 -103 -42 -151 -22 -159 21
-8 46 13 46 39 0 11 18 74 41 139 38 112 43 148 20 148 -5 0 -18 -11 -29 -25z"/>
<path d="M2406 5928 c-2 -7 -10 -251 -16 -543 -7 -291 -13 -531 -14 -532 -1
-1 -235 -9 -521 -18 -655 -22 -980 -22 -1140 -1 -75 10 -123 12 -129 6 -21
-21 112 -42 349 -55 95 -5 722 10 1274 31 l174 7 -6 -564 c-5 -524 -11 -627
-34 -650 -5 -5 -43 -2 -88 7 -68 13 -138 14 -465 8 -418 -7 -477 -4 -938 47
-247 27 -296 30 -280 14 8 -8 189 -33 453 -62 238 -26 274 -28 745 -28 443 0
500 -2 538 -18 77 -30 102 -1 114 131 6 83 30 1597 32 2072 1 153 1 155 -22
158 -12 2 -24 -3 -26 -10z"/>
<path d="M5476 5882 c-8 -16 -39 -50 -68 -75 -57 -49 -63 -72 -8 -32 18 14 35
23 37 22 1 -2 -7 -27 -19 -55 -17 -41 -19 -55 -10 -64 9 -9 17 -10 29 -2 21
13 95 183 91 209 -5 32 -35 30 -52 -3z"/>
<path d="M1457 5864 c-4 -4 -7 -28 -7 -54 0 -26 -3 -81 -6 -123 l-7 -76 -29
24 c-75 64 -226 53 -273 -19 -9 -13 -16 -40 -17 -61 -2 -55 32 -81 118 -90 77
-9 186 4 192 23 3 9 -20 12 -92 12 -105 0 -139 9 -156 40 -9 17 -7 28 7 53 15
26 30 35 73 46 115 29 180 -19 180 -132 0 -43 4 -59 16 -64 37 -14 42 15 46
222 3 195 2 200 -17 203 -12 2 -24 0 -28 -4z"/>
<path d="M6076 5699 c-70 -7 -109 -21 -95 -32 5 -5 261 12 267 18 2 2 1 8 -3
14 -7 12 -53 12 -169 0z"/>
<path d="M6625 5690 c-16 -25 9 -33 92 -27 87 6 107 12 98 28 -8 12 -182 12
-190 -1z"/>
<path d="M5545 5640 c-38 -5 -121 -11 -182 -16 -82 -5 -113 -11 -113 -20 0
-29 5 -29 395 14 33 4 60 12 60 17 0 13 -69 15 -160 5z"/>
<path d="M4840 5619 c-104 -10 -130 -16 -130 -31 0 -8 35 -9 125 -4 193 10
245 17 245 32 0 16 -95 17 -240 3z"/>
<path d="M6052 5613 c3 -15 15 -18 73 -17 39 0 79 4 90 8 19 8 19 9 -5 16 -14
5 -56 8 -93 9 -60 1 -68 -1 -65 -16z"/>
<path d="M7064 5618 c-15 -24 19 -28 224 -28 189 0 259 7 242 23 -10 9 -461
14 -466 5z"/>
<path d="M3995 5580 c-99 -4 -149 -11 -170 -22 -28 -15 -19 -16 155 -11 409
12 513 18 518 31 4 13 -235 15 -503 2z"/>
<path d="M5475 5518 c-11 -6 -26 -19 -32 -27 -12 -15 -55 -145 -67 -202 -5
-22 -12 -27 -50 -32 -49 -7 -98 -26 -91 -37 2 -4 30 -3 61 2 31 5 59 7 61 4 2
-2 -1 -39 -6 -81 -12 -80 -5 -105 25 -105 16 0 34 40 34 75 0 13 5 46 11 73
l10 49 81 16 c44 9 83 18 86 21 13 14 -10 16 -81 8 -43 -5 -77 -4 -77 0 0 5 7
41 16 81 16 71 47 137 65 137 14 0 11 -24 -6 -46 -21 -28 -19 -46 7 -42 20 3
22 8 20 48 -2 27 -10 50 -20 58 -19 15 -21 15 -47 0z"/>
<path d="M7283 5469 c-18 -5 -37 -18 -43 -29 -13 -25 -44 -274 -36 -295 3 -10
15 -15 28 -13 20 3 23 10 26 53 2 27 9 53 15 57 7 4 49 8 95 8 66 0 82 3 82
15 0 12 -15 15 -77 15 -107 0 -108 1 -93 94 l13 76 73 0 c67 0 74 -2 74 -20 0
-15 7 -20 25 -20 19 0 25 5 25 23 0 13 -5 28 -12 35 -14 14 -147 15 -195 1z"/>
<path d="M4140 5381 c-5 -11 -10 -41 -10 -68 0 -26 -3 -58 -6 -70 l-6 -23 -30
25 c-16 14 -41 28 -54 31 -37 9 -104 -4 -149 -29 -35 -20 -40 -27 -40 -57 l0
-35 53 -3 c30 -2 88 4 130 13 54 11 78 12 82 4 4 -6 18 -9 31 -7 20 2 26 12
36 58 13 62 16 140 7 164 -8 22 -31 20 -44 -3z m-58 -153 l23 -23 -40 -7 c-57
-10 -165 -10 -165 1 0 24 60 49 123 50 26 1 44 -6 59 -21z"/>
<path d="M1225 5210 c-114 -8 -177 -25 -201 -51 -15 -16 -15 -26 -5 -79 7 -34
11 -93 9 -131 -2 -51 1 -72 11 -79 40 -24 54 19 49 155 -3 79 -5 90 -22 93
-10 2 -22 -1 -26 -8 -5 -8 -9 -5 -13 9 -3 14 1 24 12 31 30 16 142 30 239 30
l92 0 -2 -32 c-3 -29 0 -33 22 -33 21 0 27 7 34 38 6 24 6 41 0 47 -15 15 -89
19 -199 10z"/>
<path d="M5165 4870 c-18 -20 -44 -120 -45 -172 0 -26 -3 -28 -39 -28 -44 0
-101 -18 -101 -31 0 -5 31 -7 70 -5 l70 4 1 -76 c1 -104 9 -127 39 -127 l25 0
-4 101 c-3 99 -3 101 20 107 13 4 35 7 47 7 15 0 22 5 19 13 -2 7 -19 11 -41
10 l-36 -2 0 65 c0 37 7 80 16 102 16 36 16 36 27 14 7 -16 7 -29 -3 -46 -13
-26 -7 -46 15 -46 21 0 29 19 18 43 -6 12 -14 36 -19 52 -12 38 -51 46 -79 15z"/>
<path d="M3935 4671 c-44 -4 -86 -10 -93 -15 -11 -6 -12 -43 -8 -179 6 -166
13 -197 41 -197 28 0 32 26 24 155 -6 109 -11 132 -27 145 -10 8 -21 25 -24
38 -6 22 -5 22 113 22 l119 0 0 -37 c0 -47 12 -66 36 -61 16 3 20 14 22 61 4
80 -4 83 -203 68z"/>
<path d="M1688 4559 c-66 -19 -86 -63 -58 -129 7 -16 16 -30 21 -30 12 0 11
11 -6 40 -20 35 -18 68 5 80 33 18 134 23 188 10 65 -15 106 -53 97 -89 -3
-15 -37 -55 -75 -91 -69 -66 -92 -101 -104 -155 -9 -40 30 -120 59 -120 16 0
19 6 17 30 -2 17 -5 54 -5 83 l-2 53 88 84 c94 90 102 108 72 165 -24 47 -86
73 -180 76 -44 2 -97 -2 -117 -7z"/>
<path d="M4330 4483 c-61 -6 -81 -13 -74 -25 5 -8 46 -9 140 -4 138 7 168 12
158 27 -5 9 -149 10 -224 2z"/>
<path d="M5155 4423 c-111 -10 -351 -45 -358 -53 -19 -18 15 -18 153 0 80 11
210 22 290 25 169 7 213 12 205 26 -6 8 -201 10 -290 2z"/>
<path d="M4445 4399 c-33 -5 -84 -10 -113 -12 -58 -4 -84 -19 -64 -39 8 -8 21
-9 49 0 21 6 82 17 136 23 68 9 97 16 97 26 0 14 -15 15 -105 2z"/>
<path d="M1011 4389 c-102 -17 -113 -47 -109 -284 l3 -170 25 0 c24 0 25 2 28
77 3 93 1 91 130 109 50 7 98 16 104 20 27 17 -5 20 -97 10 -129 -14 -135 -10
-135 86 0 58 -3 74 -17 82 -12 6 -15 13 -8 19 14 14 179 34 211 26 22 -6 25
-4 22 12 -2 15 -13 19 -53 21 -28 0 -74 -3 -104 -8z"/>
<path d="M5222 4338 c-8 -8 -12 -45 -12 -101 l0 -89 -34 21 c-52 33 -111 35
-175 9 -80 -34 -117 -96 -83 -138 15 -19 31 -24 94 -28 82 -5 170 11 189 34 6
8 22 14 35 14 12 0 26 6 31 12 4 7 6 67 4 133 -3 133 -15 167 -49 133z m-39
-200 c38 -27 36 -62 -5 -79 -51 -21 -172 -18 -197 5 -26 23 -15 48 32 73 69
35 119 36 170 1z"/>
<path d="M1501 4196 c-78 -10 -107 -25 -82 -41 10 -5 138 17 175 31 15 6 13
26 -2 23 -4 -1 -45 -7 -91 -13z"/>
<path d="M1842 3948 c-26 -26 1 -65 38 -53 32 10 20 65 -15 65 -6 0 -16 -5
-23 -12z"/>
<path d="M6446 3868 c-3 -7 -7 -51 -10 -98 -3 -47 -9 -107 -12 -132 l-7 -47
-41 24 c-59 34 -105 40 -168 21 -62 -18 -98 -47 -98 -80 0 -39 45 -50 153 -41
51 5 116 9 146 9 37 1 56 6 61 16 19 36 37 290 24 324 -7 19 -43 21 -48 4z
m-68 -277 c50 -27 15 -41 -98 -40 -41 0 -83 4 -93 8 -18 6 -18 8 -2 21 42 35
137 41 193 11z"/>
<path d="M4763 3694 c-40 -57 -85 -103 -106 -106 -27 -4 -36 -43 -11 -52 20
-8 44 10 44 34 0 10 7 23 16 31 14 11 15 9 8 -27 -4 -21 -11 -50 -16 -63 -6
-18 -5 -29 6 -39 26 -26 43 -6 59 67 9 39 25 88 37 110 11 22 20 47 20 56 0
24 -37 17 -57 -11z"/>
<path d="M3999 3603 c-9 -2 -26 -26 -37 -52 -21 -51 -123 -151 -165 -161 -30
-8 -30 -44 0 -48 16 -2 26 3 32 20 11 28 78 94 87 86 3 -4 -5 -39 -19 -80 -36
-106 -38 -122 -22 -144 20 -28 35 -8 61 79 12 39 39 120 60 180 37 106 37 128
3 120z"/>
<path d="M5188 3473 c-10 -2 -18 -10 -18 -17 0 -10 24 -12 103 -8 56 2 104 6
106 8 1 1 0 7 -4 13 -6 11 -151 14 -187 4z"/>
<path d="M6008 3433 c-100 -3 -139 -16 -85 -28 42 -9 932 10 932 20 0 10 -601
15 -847 8z"/>
<path d="M5543 3413 c-7 -2 -13 -9 -13 -14 0 -15 202 -7 208 9 3 9 -19 12 -90
11 -51 0 -99 -3 -105 -6z"/>
<path d="M4748 3385 c-3 -3 -56 -7 -118 -10 -62 -2 -115 -6 -118 -9 -2 -3 -2
-13 2 -22 5 -13 14 -15 44 -11 20 4 93 11 162 17 160 14 190 19 190 30 0 10
-152 14 -162 5z"/>
<path d="M5202 3359 c-15 -5 -22 -16 -20 -26 4 -21 49 -28 126 -18 67 8 66 31
0 27 -31 -2 -49 2 -58 13 -14 17 -16 17 -48 4z"/>
<path d="M4215 3349 c-119 -18 -125 -20 -125 -35 0 -12 7 -14 28 -10 15 3 61
8 102 12 76 6 110 17 110 34 0 12 -31 11 -115 -1z"/>
<path d="M6415 3310 c-49 -4 -98 -11 -108 -15 -27 -11 -48 -61 -69 -160 -32
-154 -32 -151 -13 -159 26 -10 42 9 50 59 7 48 12 52 88 57 57 4 49 23 -10 26
l-53 3 1 47 c1 26 -2 59 -6 73 -7 25 -5 26 47 32 29 4 83 7 120 7 62 0 67 -2
70 -22 4 -32 39 -30 57 4 13 22 13 29 2 42 -14 17 -28 18 -176 6z"/>
<path d="M4835 3255 c-5 -2 -36 -6 -69 -10 -44 -5 -64 -13 -81 -31 -12 -13
-27 -24 -33 -24 -6 0 -14 -5 -18 -11 -8 -14 -43 -312 -37 -321 2 -5 15 -8 28
-8 26 0 30 11 40 120 3 36 11 104 17 152 l11 87 66 6 c36 3 79 9 95 12 25 5
28 3 23 -16 -6 -23 16 -46 37 -38 19 8 29 56 15 73 -10 12 -68 18 -94 9z"/>
<path d="M6591 2568 c-7 -20 -31 -173 -31 -200 0 -5 -13 1 -30 13 -26 20 -33
21 -69 11 -59 -18 -135 -73 -139 -100 -7 -47 11 -53 145 -51 116 2 125 3 134
23 12 28 48 297 42 314 -8 20 -43 14 -52 -10z m-47 -229 c17 -50 4 -59 -79
-59 -41 0 -75 4 -75 8 0 21 102 83 130 79 8 -1 19 -14 24 -28z"/>
<path d="M4812 2550 c-80 -9 -119 -28 -126 -63 -3 -12 -12 -57 -21 -100 -19
-88 -15 -110 17 -105 20 3 25 15 42 102 20 94 20 99 2 111 -16 12 -13 14 26
19 23 3 82 7 131 10 82 5 87 4 87 -15 0 -30 30 -36 52 -10 10 13 18 32 18 42
0 17 -8 19 -77 18 -43 -1 -111 -5 -151 -9z"/>
<path d="M4089 2504 c-27 -63 -53 -170 -45 -189 10 -26 45 -18 51 13 3 15 17
64 31 110 14 46 23 90 20 98 -11 28 -37 14 -57 -32z"/>
<path d="M4340 2441 c-117 -9 -86 -26 55 -29 107 -2 125 0 125 13 0 8 -8 15
-17 15 -10 0 -34 2 -53 4 -19 2 -69 0 -110 -3z"/>
<path d="M5351 2237 c-5 -5 -7 -16 -4 -23 8 -21 233 -20 233 0 0 10 -16 16
-52 20 -110 11 -168 12 -177 3z"/>
<path d="M4775 2209 c-88 -5 -317 -12 -509 -16 -288 -7 -350 -11 -354 -22 -4
-12 53 -13 394 -8 369 6 758 22 812 33 12 2 22 9 22 14 0 12 -131 11 -365 -1z"/>
<path d="M5847 2199 c-30 -17 -9 -29 51 -28 87 1 155 13 160 27 5 15 -184 17
-211 1z"/>
<path d="M5342 2132 c-9 -25 15 -28 115 -16 118 14 111 12 93 24 -25 15 -201
9 -208 -8z"/>
<path d="M6595 2120 c-66 -4 -171 -8 -232 -9 -93 -1 -113 -4 -113 -16 0 -12
18 -15 103 -14 152 0 447 16 455 23 11 12 -22 26 -58 24 -19 -1 -89 -5 -155
-8z"/>
<path d="M4416 2059 c-90 -13 -106 -28 -106 -97 0 -31 -5 -84 -10 -117 -8 -49
-7 -62 5 -75 30 -29 48 -1 62 96 7 49 14 97 17 107 2 9 -2 24 -10 31 -18 19 3
24 136 32 96 7 102 6 100 -12 -4 -37 0 -45 22 -42 25 3 45 45 35 72 -5 13 -22
16 -99 15 -51 -1 -120 -5 -152 -10z"/>
<path d="M6520 1950 c-85 -15 -108 -23 -122 -42 -10 -13 -24 -30 -32 -38 -21
-22 -52 -218 -37 -233 21 -21 45 6 55 62 l9 51 72 0 c53 0 74 4 78 14 9 22 -2
26 -76 26 l-69 0 5 30 c4 16 2 32 -3 35 -5 3 -6 15 -1 28 7 19 20 23 102 34
133 17 147 16 145 -4 -2 -32 41 -28 57 4 8 15 12 34 10 41 -6 17 -66 14 -193
-8z"/>
<path d="M5885 1328 c-5 -17 -55 -295 -55 -308 0 -18 -26 -10 -51 16 -41 44
-96 66 -178 71 -57 4 -81 1 -95 -10 -29 -21 -14 -62 36 -94 36 -24 54 -28 129
-31 48 -2 95 1 105 6 13 7 22 5 34 -11 22 -27 47 -17 66 29 18 43 65 311 57
330 -6 17 -42 18 -48 2z m-200 -259 c24 -6 55 -24 71 -40 l28 -29 -45 1 c-79
1 -138 15 -164 39 -14 13 -25 27 -25 32 0 12 84 10 135 -3z"/>
<path d="M5387 1288 c-146 -13 -144 -12 -153 -105 -13 -146 -11 -224 8 -236
12 -8 21 -7 32 2 13 11 16 36 16 133 0 111 -1 120 -20 125 -11 3 -20 13 -20
23 0 15 15 18 118 24 64 3 147 9 184 13 l67 6 -11 -37 c-10 -30 -9 -39 3 -52
24 -23 44 -8 57 42 18 67 9 74 -97 73 -47 -1 -130 -6 -184 -11z"/>
<path d="M7555 1222 c-53 -33 -57 -43 -39 -102 l16 -53 51 6 c29 3 60 8 70 12
29 12 20 -24 -13 -55 -35 -32 -86 -48 -103 -31 -14 14 -54 14 -63 -1 -13 -20
37 -51 73 -45 42 7 114 57 133 92 23 44 5 59 -74 63 -61 3 -68 5 -76 28 -14
35 -13 37 12 53 17 10 53 14 135 12 93 -2 113 0 113 12 0 22 -22 27 -118 27
-67 0 -94 -4 -117 -18z"/>
<path d="M7039 1218 c-9 -7 -24 -37 -33 -67 l-17 -54 30 -31 c31 -30 31 -30
88 -18 31 6 58 10 61 8 11 -11 -13 -49 -46 -71 -44 -30 -73 -32 -97 -5 -22 24
-53 26 -62 4 -9 -24 35 -64 72 -64 61 0 155 81 155 134 0 25 -39 39 -90 33
-33 -4 -54 -1 -68 9 -19 13 -20 17 -8 52 l13 37 89 0 c82 0 89 2 89 20 0 18
-8 20 -80 23 -54 2 -85 -1 -96 -10z"/>
<path d="M7878 1204 c-19 -10 -31 -28 -39 -57 -6 -23 -17 -54 -25 -69 -22 -41
-18 -95 7 -109 32 -17 107 -3 152 28 43 30 87 97 87 134 0 70 -109 113 -182
73z m146 -30 c22 -9 20 -60 -4 -98 -24 -40 -91 -78 -128 -74 -21 2 -28 9 -30
29 -2 14 4 31 12 39 9 7 16 25 16 41 0 51 19 69 72 69 25 0 53 -3 62 -6z"/>
<path d="M4017 1110 c-120 -10 -137 -41 -107 -199 5 -29 10 -83 11 -120 1 -89
10 -115 38 -119 34 -5 40 13 34 90 l-6 68 72 0 c53 0 71 3 71 14 0 14 -48 26
-106 26 -30 0 -31 2 -38 54 -3 30 -9 61 -12 70 -7 19 -50 21 -58 4 -3 -7 -4 5
-3 27 l2 40 112 9 c126 10 163 5 163 -23 0 -25 26 -34 45 -15 29 30 15 60 -36
74 -36 11 -60 11 -182 0z"/>
<path d="M7314 1095 c-7 -18 13 -45 32 -45 12 0 34 37 34 56 0 12 -61 2 -66
-11z"/>
<path d="M9205 1071 c-43 -26 -68 -58 -61 -76 10 -28 41 -13 41 20 0 26 5 31
37 39 21 5 41 7 44 3 16 -15 -12 -64 -77 -133 -67 -73 -109 -137 -109 -168 0
-8 12 -24 26 -35 21 -17 41 -21 98 -21 83 0 116 7 116 25 0 8 -19 13 -59 14
-76 1 -111 14 -111 40 0 11 33 56 74 99 100 107 128 166 94 200 -18 18 -79 14
-113 -7z"/>
<path d="M8895 1058 c-43 -23 -69 -56 -106 -131 -45 -94 -58 -170 -35 -214 30
-60 110 -67 158 -15 55 58 61 100 22 138 -21 22 -32 25 -69 22 -50 -4 -51 0
-13 75 23 46 100 125 106 109 4 -14 32 -17 32 -4 0 10 -45 32 -63 32 -7 0 -21
-6 -32 -12z m43 -266 c3 -25 -3 -39 -27 -62 -31 -32 -50 -36 -82 -20 -23 13
-25 36 -3 44 10 4 13 13 9 25 -9 29 21 53 64 49 33 -3 36 -6 39 -36z"/>
<path d="M8450 1036 c-99 -10 -136 -26 -80 -35 45 -6 251 21 247 33 -5 15 -44
16 -167 2z"/>
<path d="M9706 1019 c-76 -8 -116 -26 -116 -54 0 -6 12 -34 26 -63 28 -57 52
-70 99 -52 60 23 56 -33 -7 -105 -45 -51 -74 -57 -88 -20 -12 30 -46 33 -55 5
-14 -45 24 -88 68 -74 31 9 95 72 118 116 38 74 19 108 -60 108 -34 0 -42 5
-60 34 -36 58 -32 62 71 70 50 3 120 6 155 6 66 0 108 13 98 31 -7 11 -136 10
-249 -2z"/>
<path d="M4463 993 c-3 -7 -4 -16 -2 -18 2 -2 62 -7 133 -11 106 -6 128 -4
124 7 -6 18 -46 26 -156 32 -75 4 -95 2 -99 -10z"/>
<path d="M7940 943 c-96 -1 -272 -7 -390 -13 -118 -6 -317 -15 -442 -19 -125
-4 -231 -10 -235 -14 -21 -22 34 -25 312 -16 165 5 318 12 340 14 22 3 167 8
322 11 155 4 287 10 294 14 14 9 3 31 -14 28 -7 -1 -91 -4 -187 -5z"/>
<path d="M6333 923 c-3 -6 -2 -16 1 -21 7 -11 328 -3 340 9 16 14 -12 18 -178
21 -120 3 -159 1 -163 -9z"/>
<path d="M4467 899 c-20 -12 -23 -35 -4 -40 27 -8 267 6 267 16 1 18 -235 39
-263 24z"/>
<path d="M8348 899 c-20 -11 -24 -34 -8 -44 5 -3 36 -2 67 4 32 5 86 13 121
16 44 5 62 11 62 21 0 12 -13 13 -67 9 -38 -3 -80 -8 -95 -10 -15 -2 -30 0
-33 5 -8 13 -25 12 -47 -1z"/>
<path d="M5635 873 c-243 -10 -370 -11 -530 -4 -203 10 -245 7 -220 -18 17
-17 459 -24 770 -12 388 14 467 20 462 35 -5 16 -112 16 -482 -1z"/>
<path d="M10506 874 c-9 -8 -16 -25 -16 -36 0 -29 -38 -78 -61 -78 -15 0 -19
7 -19 38 0 41 -14 62 -42 62 -11 0 -20 -10 -24 -27 -17 -69 -86 -124 -131
-104 -32 15 -53 14 -53 -2 0 -39 -83 -65 -92 -29 -13 52 44 164 74 146 8 -5 5
-11 -11 -17 -27 -13 -25 -50 3 -55 24 -5 37 16 29 48 -9 37 -22 50 -52 50 -41
0 -68 -25 -90 -85 -34 -91 -24 -131 36 -149 25 -8 91 17 99 37 4 11 17 13 48
10 40 -5 46 -2 90 39 45 44 47 45 58 24 29 -55 77 -49 122 16 l15 22 21 -27
c18 -23 29 -27 71 -27 45 0 109 21 109 36 0 4 -20 3 -44 0 -55 -9 -86 15 -86
67 0 31 -14 57 -31 57 -4 0 -15 -7 -23 -16z"/>
<path d="M6348 843 c-20 -5 -25 -42 -5 -44 33 -3 175 2 200 7 57 12 23 24 -66
24 -51 0 -97 4 -102 8 -6 5 -18 7 -27 5z"/>
<path d="M7087 689 c-67 -9 -107 -23 -107 -37 0 -4 11 -25 23 -47 22 -38 25
-40 70 -39 55 0 59 -10 21 -55 -29 -35 -64 -40 -109 -17 -30 16 -55 11 -55 -9
0 -40 80 -66 127 -41 38 19 62 47 72 84 12 42 -6 64 -59 71 -29 4 -47 13 -58
29 l-14 22 70 0 c87 0 130 13 112 35 -7 8 -15 14 -19 14 -3 -1 -37 -5 -74 -10z"/>
<path d="M9379 698 c-1 -2 -3 -29 -4 -60 -1 -43 -8 -67 -28 -97 -33 -50 -34
-61 -2 -61 35 0 95 90 95 143 0 48 -15 77 -40 77 -11 0 -21 -1 -21 -2z"/>
<path d="M5800 631 c-5 -11 -10 -26 -10 -34 0 -19 -62 -97 -77 -97 -7 0 -13
-7 -13 -15 0 -29 35 -14 60 26 l25 41 3 -63 c5 -101 1 -109 -59 -109 -43 0
-50 -3 -47 -17 2 -12 12 -17 28 -16 14 1 75 5 137 9 118 7 149 16 123 34 -9 7
-39 8 -74 5 l-59 -6 7 28 c15 64 19 203 6 218 -17 21 -37 19 -50 -4z"/>
<path d="M7536 634 c-8 -20 -8 -152 0 -181 7 -25 33 -38 47 -24 15 15 21 174
8 199 -14 26 -46 29 -55 6z"/>
<path d="M5055 631 c-105 -13 -106 -14 -100 -139 7 -135 11 -152 34 -152 34 0
40 20 31 110 -7 67 -13 89 -30 102 -11 9 -20 23 -20 32 0 14 16 16 104 16 105
0 105 0 118 -27 16 -34 52 -38 56 -7 8 56 -65 81 -193 65z"/>
<path d="M7235 531 c-13 -22 8 -31 74 -31 84 0 133 9 128 24 -5 15 -193 21
-202 7z"/>
<path d="M5387 473 c-58 -3 -68 -7 -65 -21 3 -15 15 -17 83 -14 144 5 216 13
212 26 -4 12 -104 16 -230 9z"/>
</g>
</svg>
