<svg xmlns="http://www.w3.org/2000/svg" version="1.0" width="2362.499791pt" height="2953.979486pt" viewBox="0 0 2362.499791 2953.979486" preserveAspectRatio="xMidYMid meet">
<metadata>
Created by potrace 1.16, written by Peter Selinger 2001-2019
</metadata>
<g transform="translate(-140.500000,3009.926470) scale(0.100000,-0.100000)" fill="#000000" stroke="none">
<path d="M1765 30092 c-9 -6 -22 -89 -42 -269 l-5 -42 -71 -3 c-56 -2 -72 -6 -72 -18 0 -12 16 -16 68 -18 57 -2 68 -6 63 -18 -3 -9 -6 -22 -6 -29 0 -8 -13 -15 -32 -17 -44 -4 -45 -32 -1 -36 30 -3 31 -4 22 -35 -5 -18 -10 -60 -11 -94 -1 -48 3 -67 17 -83 28 -31 54 -25 71 16 17 41 6 67 -20 45 -12 -10 -13 -6 -9 31 3 24 9 60 14 81 10 36 11 37 58 37 l48 0 -1 -81 c-1 -68 2 -83 17 -93 26 -16 37 7 38 79 1 89 5 95 85 115 84 22 144 47 144 60 0 14 -36 12 -125 -6 -42 -9 -78 -14 -80 -12 -3 2 -1 17 3 33 8 27 14 30 88 46 103 23 137 36 128 50 -6 11 -95 7 -166 -7 -37 -7 -36 3 8 116 38 98 38 123 2 118 -19 -2 -29 -21 -60 -103 -20 -55 -37 -110 -38 -122 0 -18 -9 -25 -42 -33 -24 -6 -52 -14 -62 -17 -21 -6 -21 -2 4 157 15 98 13 147 -6 154 -19 7 -17 7 -29 -2z m109 -369 c-10 -42 -12 -43 -65 -43 -51 0 -52 1 -43 37 5 18 15 23 53 26 25 2 49 4 54 5 4 1 4 -10 1 -25z"/>
<path d="M20023 29965 c-35 -15 -44 -41 -16 -47 12 -2 -2 -20 -52 -63 -181 -158 -215 -199 -187 -227 14 -14 67 6 58 21 -6 10 42 58 187 186 82 73 108 110 92 134 -9 15 -43 13 -82 -4z"/>
<path d="M22848 29918 c-62 -60 -155 -179 -178 -230 -10 -24 -29 -60 -41 -80 -13 -21 -19 -41 -15 -45 15 -15 62 24 93 77 55 94 106 161 174 230 36 36 64 71 61 78 -8 25 -50 11 -94 -30z"/>
<path d="M2435 29893 c-69 -73 -91 -119 -129 -263 -37 -143 -41 -183 -21 -200 22 -19 50 -1 49 31 -3 41 57 262 84 312 14 27 41 64 59 84 19 19 32 40 30 47 -7 23 -45 17 -72 -11z"/>
<path d="M19589 29833 c-34 -43 -73 -96 -87 -118 -14 -22 -40 -63 -59 -90 -18 -28 -33 -54 -33 -58 0 -33 99 42 127 97 9 17 50 75 90 128 41 53 72 101 68 107 -16 27 -46 7 -106 -66z"/>
<path d="M2947 29870 l-48 -30 -29 21 c-37 28 -97 21 -172 -18 -29 -15 -63 -26 -75 -24 -17 2 -26 -5 -33 -26 -6 -15 -20 -47 -31 -69 -27 -58 -35 -173 -15 -213 28 -54 72 -64 141 -32 47 21 115 88 152 149 14 24 27 41 29 40 1 -2 -1 -21 -6 -42 -11 -52 3 -89 49 -120 66 -46 156 -33 254 36 42 30 99 151 101 215 1 46 -3 56 -33 86 -38 40 -91 57 -178 57 -48 0 -68 -5 -106 -30z m198 -34 c72 -31 79 -79 24 -188 -51 -101 -172 -149 -232 -94 -30 28 -29 56 5 134 21 47 48 68 96 78 35 7 57 27 47 44 -9 14 -60 12 -100 -4 -44 -19 -45 -5 -2 23 38 25 111 28 162 7z m-306 -19 c8 -10 7 -27 -4 -63 -16 -55 -86 -160 -103 -157 -6 2 -22 -1 -36 -7 -27 -10 -96 4 -96 20 0 24 32 126 43 137 20 20 147 83 167 83 9 0 23 -6 29 -13z m-169 -287 c-45 -25 -57 -25 -70 0 -10 19 -8 20 47 20 l58 -1 -35 -19z"/>
<path d="M3378 29874 c-51 -26 -63 -56 -30 -72 21 -11 42 -5 42 12 0 19 63 34 160 40 l85 5 -35 -31 c-68 -59 -152 -118 -170 -118 -21 0 -44 -25 -35 -40 3 -5 38 -10 77 -10 170 0 234 -59 151 -138 -46 -43 -107 -72 -153 -71 -29 0 -32 1 -17 10 9 6 15 14 12 20 -10 16 -72 10 -96 -10 -23 -18 -23 -19 -5 -46 18 -27 19 -27 105 -23 90 4 104 10 185 72 112 86 78 206 -64 222 l-60 7 38 28 c99 75 125 109 111 147 -8 21 -13 22 -131 22 -111 -1 -128 -3 -170 -26z"/>
<path d="M20363 29837 c-56 -34 -131 -83 -167 -109 -104 -76 -149 -164 -79 -156 17 2 27 8 25 16 -3 18 40 68 86 100 58 40 154 104 216 142 55 35 74 70 39 70 -10 0 -64 -28 -120 -63z"/>
<path d="M22035 29842 c-38 -20 -113 -56 -165 -80 -91 -41 -139 -80 -125 -102 11 -19 56 -10 79 15 13 13 72 47 132 73 129 58 197 98 191 115 -7 23 -42 16 -112 -21z"/>
<path d="M22355 29849 c-33 -17 -76 -44 -95 -59 -19 -15 -77 -55 -129 -89 -64 -44 -90 -66 -83 -73 19 -19 140 43 243 123 20 16 68 45 108 65 39 20 70 41 68 48 -7 22 -53 16 -112 -15z"/>
<path d="M17966 29798 c-25 -29 -68 -79 -95 -110 -81 -93 -115 -178 -72 -178 13 0 30 18 51 54 17 30 50 76 73 103 87 100 127 152 127 167 0 32 -39 15 -84 -36z"/>
<path d="M20814 29777 c-83 -40 -166 -83 -185 -95 -51 -31 -91 -71 -84 -82 12 -20 57 -10 86 19 16 16 106 67 199 113 93 46 170 88 170 94 0 9 -21 24 -33 24 -1 0 -70 -33 -153 -73z"/>
<path d="M18387 29823 c-48 -54 -167 -248 -167 -273 0 -48 40 -48 55 -1 8 26 111 185 152 234 13 16 23 35 23 43 0 20 -44 18 -63 -3z"/>
<path d="M21485 29821 c-6 -5 -52 -30 -103 -56 -156 -77 -256 -154 -237 -185 9 -15 45 -12 51 5 9 22 99 80 223 145 80 42 106 60 106 75 0 22 -25 31 -40 16z"/>
<path d="M16943 29738 c-32 -45 -75 -107 -95 -137 -21 -31 -54 -80 -75 -110 l-38 -53 -110 6 c-60 3 -145 8 -187 12 -74 7 -78 6 -78 -13 0 -17 9 -22 53 -29 65 -11 509 -10 1932 5 1239 13 1421 17 1450 30 45 21 1275 29 2815 19 250 -2 490 1 533 5 68 8 77 11 77 29 0 20 -3 20 -127 12 -71 -4 -292 -6 -493 -3 -925 11 -3047 -3 -3085 -21 -37 -17 -192 -21 -1270 -30 -588 -5 -1155 -12 -1260 -15 l-190 -6 27 28 c14 15 39 51 56 78 16 28 61 95 99 149 39 55 69 106 66 113 -12 32 -44 10 -100 -69z"/>
<path d="M19239 29773 c-57 -61 -141 -160 -163 -194 -15 -24 -15 -27 0 -39 13 -12 20 -9 50 21 19 19 63 70 98 114 35 44 73 89 85 99 28 25 27 46 -2 46 -14 0 -40 -18 -68 -47z"/>
<path d="M18868 29783 c-13 -16 -35 -44 -48 -63 -13 -19 -42 -56 -64 -81 -48 -54 -100 -145 -91 -159 15 -24 45 -8 74 40 17 27 45 66 64 87 31 35 78 98 119 161 32 48 -12 60 -54 15z"/>
<path d="M17515 29751 c-83 -58 -95 -70 -140 -146 -40 -65 -46 -115 -16 -115 12 0 27 15 40 40 45 87 74 121 150 179 55 42 78 66 75 76 -10 25 -36 17 -109 -34z"/>
<path d="M5578 29583 c-80 -85 -145 -208 -182 -344 -57 -211 -60 -249 -60 -714 0 -236 6 -504 12 -595 7 -91 16 -320 22 -510 6 -190 16 -435 22 -545 7 -110 12 -411 12 -670 0 -392 -3 -491 -17 -595 -23 -163 -51 -273 -87 -336 l-29 -51 40 -75 c49 -95 72 -171 99 -328 35 -206 39 -344 40 -1330 0 -1216 10 -1470 75 -1926 47 -328 90 -473 158 -530 33 -28 46 -29 72 -10 17 13 17 14 -10 27 -65 32 -112 181 -159 509 -67 460 -76 688 -76 1910 0 514 -5 999 -10 1077 -17 262 -61 477 -126 606 l-34 67 21 41 c89 174 122 581 101 1235 -22 700 -41 1190 -54 1409 -7 121 -13 409 -13 640 0 447 3 477 56 675 34 126 92 240 168 328 26 30 53 25 65 -13 19 -66 25 -75 50 -75 29 0 43 17 27 33 -6 6 -11 23 -11 38 0 16 -12 40 -29 58 -23 24 -37 31 -68 31 -32 0 -45 -7 -75 -37z"/>
<path d="M9500 29468 c-14 -8 -25 -22 -25 -33 0 -16 6 -19 30 -17 119 14 185 -5 185 -53 0 -17 -12 -32 -43 -54 -56 -38 -117 -106 -117 -129 0 -40 65 -71 170 -83 41 -5 96 -11 122 -15 57 -8 121 3 115 19 -4 13 -96 32 -217 46 -41 5 -88 14 -105 20 l-30 12 46 42 c25 23 62 55 82 70 28 21 37 35 37 57 0 78 -51 118 -157 126 -46 3 -76 1 -93 -8z"/>
<path d="M21270 29435 c-5 -14 -18 -28 -27 -32 -10 -4 -36 -21 -58 -38 -75 -59 -87 -66 -595 -330 -208 -108 -328 -176 -480 -272 -52 -32 -156 -97 -230 -143 -74 -46 -204 -130 -288 -186 -126 -85 -158 -102 -180 -98 -15 3 -47 -1 -72 -10 -25 -9 -57 -16 -72 -16 -37 0 -140 -27 -152 -41 -21 -20 24 -39 92 -39 l65 0 -104 -63 c-57 -35 -192 -117 -299 -182 -107 -65 -232 -142 -277 -171 -45 -29 -97 -61 -115 -70 -18 -9 -89 -53 -158 -99 -256 -169 -298 -194 -430 -260 -74 -37 -147 -76 -162 -86 -15 -11 -43 -19 -69 -19 -40 0 -41 1 -26 18 22 24 21 38 0 46 -13 5 -31 -7 -66 -43 -27 -28 -55 -51 -63 -51 -18 0 -74 -77 -74 -101 0 -10 -4 -21 -10 -24 -5 -3 -10 -21 -10 -38 0 -41 52 -107 84 -107 12 0 35 -6 50 -12 l28 -13 -7 -480 c-9 -706 -19 -1062 -28 -1047 -14 21 -67 43 -87 37 -25 -8 -26 -42 -2 -50 11 -3 33 -28 51 -55 18 -27 41 -56 52 -64 20 -13 20 -22 15 -347 -6 -362 -15 -532 -31 -548 -7 -7 -16 -1 -29 18 -10 15 -34 38 -52 51 -28 18 -37 20 -49 10 -27 -23 -16 -57 50 -155 49 -73 63 -87 91 -83 26 3 61 47 141 174 11 18 12 18 25 1 28 -37 69 12 53 62 -3 12 -15 21 -26 21 -33 0 -97 -38 -114 -68 -14 -25 -15 -20 -10 78 3 58 8 255 11 437 l5 333 47 49 c55 56 98 131 89 155 -8 21 -57 22 -57 0 0 -16 -60 -114 -71 -114 -3 0 -11 11 -18 24 -11 19 -12 95 -6 363 4 186 10 534 14 773 4 239 8 429 9 422 3 -21 46 -10 51 13 2 11 12 26 22 33 21 15 59 83 59 106 0 10 13 16 43 18 29 2 42 8 42 18 0 10 -13 16 -42 18 -36 3 -43 7 -43 24 0 12 -7 29 -16 39 -14 15 -13 18 13 36 34 24 305 163 317 163 4 0 40 24 80 53 111 83 123 89 145 77 47 -25 191 -1 191 31 0 22 -29 24 -115 9 -27 -4 -51 -7 -53 -5 -3 3 145 98 215 137 26 15 134 81 238 147 l190 119 35 -38 c69 -75 154 -102 333 -104 l107 -1 0 -71 c0 -79 16 -108 45 -84 11 9 15 33 15 88 0 71 2 78 27 97 15 13 23 27 19 33 -8 14 -78 16 -104 4 -9 -5 -27 -14 -39 -20 -21 -11 -98 -5 -213 16 -61 11 -124 45 -149 81 l-21 29 113 69 c127 79 203 123 211 123 3 0 -4 -17 -16 -37 -42 -74 -49 -93 -46 -120 2 -22 8 -28 28 -28 19 0 26 6 28 24 4 25 66 145 90 174 28 33 35 19 28 -55 -14 -136 -14 -133 14 -133 21 0 26 6 34 40 4 22 10 80 13 128 4 82 3 89 -16 94 -15 4 26 35 177 135 108 71 258 166 332 211 74 44 160 97 190 117 83 54 268 159 422 237 l136 70 13 -26 c22 -43 64 -78 141 -117 74 -38 108 -47 233 -63 54 -7 76 -6 97 5 15 8 29 14 32 14 3 0 7 -42 8 -92 3 -92 3 -93 28 -93 25 0 25 1 28 96 3 123 3 124 -132 125 -134 1 -177 10 -268 56 -77 39 -127 91 -115 121 3 7 64 43 136 80 134 69 264 147 276 166 12 20 24 11 27 -21 2 -28 7 -33 28 -33 25 0 25 1 25 85 0 81 -1 85 -22 88 -17 3 -26 -3 -33 -23z m-3640 -2240 c8 -10 25 -15 44 -13 30 3 31 2 34 -42 2 -38 -2 -51 -28 -82 -37 -45 -48 -47 -52 -10 -2 21 -8 27 -28 27 -20 0 -26 -6 -28 -28 -3 -21 -8 -27 -19 -23 -8 3 -23 6 -34 6 -10 0 -26 12 -36 26 -13 21 -14 30 -5 45 7 10 12 28 12 39 0 20 0 20 20 0 12 -12 25 -18 30 -15 18 11 10 46 -12 54 -25 10 -16 16 32 24 48 8 58 7 70 -8z"/>
<path d="M21578 29433 c28 -2 76 -2 105 0 28 2 5 3 -53 3 -58 0 -81 -1 -52 -3z"/>
<path d="M22633 29420 c-3 -12 -14 -20 -28 -20 -12 0 -29 -8 -37 -17 -28 -32 -101 -191 -95 -207 10 -27 42 -18 73 20 16 19 42 50 57 67 l28 32 -5 -70 c-18 -219 -17 -280 2 -515 31 -367 44 -619 40 -770 l-3 -135 -47 -5 c-26 -3 -51 -9 -55 -13 -13 -13 20 -27 65 -27 l43 0 -4 -752 c-6 -855 -16 -1110 -57 -1323 -32 -170 -40 -243 -40 -384 l0 -154 -50 47 c-39 36 -57 47 -78 44 -38 -4 -39 -32 -3 -83 17 -24 31 -47 31 -52 0 -5 17 -26 38 -46 45 -44 81 -48 144 -16 64 33 138 112 138 148 0 42 -9 61 -30 61 -19 0 -30 -19 -30 -50 0 -18 -75 -100 -91 -100 -12 0 -11 367 1 427 72 355 81 519 87 1648 4 901 -3 1204 -38 1519 -14 126 -17 389 -5 530 9 109 9 109 28 85 33 -43 42 -58 73 -111 36 -63 87 -118 109 -118 26 0 31 29 9 53 -23 26 -72 100 -93 141 -8 17 -38 54 -66 83 -29 29 -54 59 -57 68 -9 22 -48 19 -54 -5z"/>
<path d="M21418 29423 c6 -2 18 -2 25 0 6 3 1 5 -13 5 -14 0 -19 -2 -12 -5z"/>
<path d="M16753 29342 c-3 -11 -16 -22 -31 -25 -28 -6 -72 -63 -72 -92 0 -8 -5 -24 -12 -34 -14 -23 -4 -51 18 -51 10 0 32 11 50 25 18 14 35 25 37 25 2 0 7 -69 10 -152 3 -84 10 -180 16 -213 36 -211 42 -375 37 -935 -2 -305 -8 -590 -11 -634 -7 -78 -7 -78 -26 -57 -23 25 -67 28 -76 5 -8 -21 26 -82 57 -105 14 -9 44 -20 68 -24 41 -7 43 -6 97 52 41 43 54 65 53 83 -4 35 -44 41 -57 8 -5 -13 -21 -34 -35 -47 l-26 -24 0 86 c0 47 5 89 10 92 14 9 13 1100 -1 1225 -6 52 -14 133 -19 180 -5 47 -13 126 -20 176 -13 107 -10 319 4 290 18 -38 70 -75 104 -76 17 0 32 3 32 6 0 3 -33 41 -72 85 -50 54 -75 90 -78 112 -6 39 -48 53 -57 19z"/>
<path d="M1522 29283 c3 -17 34 -19 408 -25 223 -4 477 -12 565 -18 212 -15 1624 -25 1637 -12 26 26 -52 30 -717 35 -473 4 -761 10 -915 21 -141 10 -366 16 -603 16 -355 0 -378 -1 -375 -17z"/>
<path d="M12697 29248 c-27 -29 -55 -66 -64 -82 -8 -16 -28 -46 -43 -68 -16 -22 -35 -68 -45 -111 -9 -39 -19 -79 -24 -87 -4 -8 -8 -51 -9 -95 -2 -67 1 -86 20 -119 40 -69 66 -81 176 -81 80 0 97 3 97 15 0 11 -17 17 -60 23 -115 15 -128 20 -153 57 -20 29 -23 44 -20 94 3 44 9 61 24 69 10 6 42 33 71 60 56 53 123 171 162 286 26 75 19 91 -42 91 -36 0 -46 -6 -90 -52z m69 -44 c-28 -81 -95 -200 -131 -234 l-38 -35 7 45 c4 25 23 70 44 103 43 67 123 169 129 164 2 -2 -3 -22 -11 -43z"/>
<path d="M6685 29177 c-35 -37 -175 -261 -175 -280 0 -4 -24 -45 -52 -92 l-52 -85 -69 0 c-71 0 -132 -21 -124 -43 3 -8 28 -11 81 -9 78 4 78 4 65 -20 -43 -81 -142 -253 -155 -271 -16 -22 -16 -21 -9 8 4 17 8 48 9 70 1 36 -1 40 -24 40 -21 0 -26 -6 -34 -45 -5 -25 -10 -72 -10 -105 l-1 -60 40 0 c37 0 42 4 72 50 18 27 70 116 115 197 l81 148 99 0 c113 0 111 3 82 -109 -8 -33 -14 -84 -12 -113 3 -49 5 -53 28 -53 22 0 25 5 27 40 2 22 11 84 20 138 18 97 18 97 48 97 16 0 37 5 45 10 13 9 13 11 0 20 -8 5 -25 10 -37 10 -13 0 -23 5 -23 12 0 15 57 252 75 312 15 49 20 132 9 160 -4 11 -19 16 -42 16 -29 0 -43 -8 -77 -43z m63 -70 c-3 -18 -14 -66 -25 -107 -11 -41 -31 -121 -44 -177 l-24 -103 -87 0 c-49 0 -88 2 -88 5 0 3 11 22 24 43 12 20 41 72 64 114 97 183 172 294 180 269 2 -7 2 -27 0 -44z"/>
<path d="M9016 29208 c-8 -22 -16 -144 -22 -316 -7 -177 -3 -192 45 -192 47 0 92 64 206 294 55 110 75 142 92 144 45 7 38 62 -8 62 -40 0 -79 -52 -142 -186 -29 -61 -70 -141 -92 -178 l-40 -68 -3 84 c-2 46 2 133 8 193 15 139 12 169 -18 173 -12 2 -24 -3 -26 -10z"/>
<path d="M21273 29184 c-9 -25 5 -147 20 -161 8 -8 21 -11 31 -7 16 6 17 16 11 88 -4 45 -9 84 -12 89 -8 13 -44 7 -50 -9z"/>
<path d="M15219 29183 c-13 -3 -9 -12 18 -41 19 -20 43 -53 53 -72 28 -55 52 -192 52 -304 1 -88 -3 -115 -32 -206 -57 -182 -139 -336 -251 -471 -41 -49 -41 -59 1 -59 21 0 37 14 77 68 118 156 178 274 235 465 36 121 40 239 12 389 -18 102 -38 149 -85 203 -30 33 -43 38 -80 28z"/>
<path d="M8157 29153 c-4 -3 -7 -34 -7 -68 0 -33 -6 -85 -14 -115 -30 -117 -48 -219 -43 -234 14 -36 44 -17 78 50 50 98 174 214 229 214 16 0 12 -36 -11 -84 -37 -74 -3 -102 56 -47 61 59 225 161 257 161 l31 0 -5 -67 c-3 -38 -13 -91 -23 -119 -10 -28 -16 -58 -12 -67 7 -20 46 -23 51 -4 2 6 13 42 25 80 22 70 28 190 12 216 -7 10 -26 13 -79 9 -65 -5 -75 -9 -151 -61 l-81 -57 0 34 c0 19 -3 41 -6 50 -17 43 -159 -11 -239 -90 -27 -27 -45 -40 -41 -29 4 11 13 49 20 85 6 36 15 70 19 77 11 18 -20 73 -42 73 -10 0 -21 -3 -24 -7z"/>
<path d="M4366 29132 c-6 -10 -12 -75 -26 -287 -6 -82 -17 -222 -25 -310 -8 -88 -32 -358 -55 -600 -45 -497 -60 -697 -60 -813 l0 -79 -52 -7 c-132 -16 -420 -35 -893 -57 -121 -6 -580 -14 -1020 -17 -702 -6 -800 -9 -800 -22 0 -13 89 -15 730 -18 894 -3 1679 22 1985 64 l45 6 -2 -123 c-2 -68 -4 -400 -5 -737 -3 -567 -2 -612 14 -612 12 0 21 16 32 54 14 47 16 145 16 728 0 671 0 673 21 686 19 12 20 15 5 37 -11 17 -16 48 -16 97 0 106 18 384 40 603 31 303 84 905 100 1130 18 264 18 280 -7 283 -11 2 -24 -1 -27 -6z"/>
<path d="M14457 29072 c-67 -91 -128 -242 -167 -414 -32 -139 -35 -213 -15 -325 19 -110 32 -144 78 -220 26 -44 36 -53 59 -53 15 0 28 2 28 5 0 3 -20 42 -44 88 -56 105 -82 230 -72 348 17 203 127 498 221 592 13 13 12 16 -8 21 -38 10 -45 7 -80 -42z"/>
<path d="M17217 29050 c-26 -22 -45 -57 -76 -134 -81 -208 -109 -382 -76 -470 10 -26 26 -51 36 -56 32 -18 86 -10 156 21 74 33 103 54 103 76 0 20 -21 16 -110 -22 -101 -43 -115 -44 -129 -4 -19 56 -9 199 15 199 23 0 88 87 137 183 43 84 49 104 50 164 l2 68 -37 3 c-29 2 -43 -3 -71 -28z m48 -72 c-7 -42 -97 -222 -117 -234 -13 -8 -5 19 38 124 19 45 34 88 34 94 0 11 39 58 48 58 2 0 1 -19 -3 -42z"/>
<path d="M19505 29031 c-10 -10 -87 -16 -342 -27 -132 -5 -143 -7 -143 -25 0 -17 8 -19 106 -19 l106 0 -5 -117 c-3 -65 -11 -152 -18 -193 -7 -41 -13 -100 -14 -130 0 -52 1 -55 25 -55 23 0 25 4 32 60 3 33 11 89 17 125 7 36 14 120 18 188 3 67 6 122 7 123 0 0 56 4 124 9 101 7 126 11 137 26 7 10 11 24 8 31 -6 15 -45 17 -58 4z"/>
<path d="M17611 28998 c-4 -13 -13 -57 -21 -98 -13 -77 -82 -357 -125 -510 -14 -47 -26 -114 -27 -150 -3 -63 -2 -65 22 -65 23 0 26 5 36 75 6 41 41 188 76 325 67 257 101 421 92 436 -11 18 -45 9 -53 -13z"/>
<path d="M3303 28958 c-61 -62 -129 -188 -164 -303 -17 -55 -38 -105 -45 -111 -8 -6 -13 -24 -12 -40 2 -16 -1 -68 -6 -115 -9 -93 -2 -119 38 -151 34 -28 118 -23 199 12 90 38 137 74 137 106 0 32 -17 30 -68 -6 -51 -38 -152 -80 -191 -80 -59 0 -70 33 -52 158 9 61 12 65 96 155 96 101 134 166 171 291 28 94 28 90 8 110 -28 29 -66 19 -111 -26z m42 -90 c-26 -79 -63 -147 -108 -201 -22 -26 -41 -46 -43 -44 -8 7 37 121 71 183 38 67 84 128 92 120 3 -3 -3 -29 -12 -58z"/>
<path d="M20817 28853 c-3 -5 -8 -33 -11 -64 -4 -31 -20 -84 -37 -119 -28 -59 -30 -62 -48 -46 -27 24 -73 20 -118 -13 -77 -56 -124 -144 -107 -204 22 -74 113 -52 203 50 25 29 49 53 53 53 4 0 22 -24 38 -54 21 -36 48 -66 83 -90 54 -37 127 -59 127 -37 0 13 -36 51 -49 51 -20 0 -87 65 -112 108 -15 27 -34 54 -42 61 -14 11 -11 21 19 85 36 75 62 182 51 210 -6 16 -42 22 -50 9z m-123 -278 c17 -13 16 -16 -20 -61 -22 -26 -57 -60 -79 -77 -38 -27 -40 -27 -43 -9 -5 31 33 96 75 131 43 35 42 35 67 16z"/>
<path d="M1657 28774 c-4 -4 -7 -42 -7 -85 0 -55 -6 -95 -21 -133 -11 -31 -19 -72 -17 -93 3 -33 6 -38 28 -38 20 0 26 5 28 30 7 68 33 125 75 161 40 34 45 36 104 32 34 -2 66 -7 70 -12 4 -4 10 -40 13 -79 5 -65 7 -72 27 -75 17 -3 26 4 35 25 29 69 113 123 193 123 35 0 44 -4 53 -25 17 -37 15 -74 -9 -150 -11 -37 -18 -73 -15 -81 7 -20 56 -18 56 1 0 9 10 45 21 82 25 77 21 148 -11 193 -20 28 -26 30 -85 30 -66 0 -153 -27 -187 -57 -17 -15 -19 -14 -29 17 -8 22 -22 37 -45 46 -45 19 -164 18 -190 -1 -29 -22 -33 -19 -36 38 -3 44 -6 52 -23 55 -12 2 -24 0 -28 -4z"/>
<path d="M10278 28774 c-3 -3 -14 -50 -24 -105 l-18 -99 -62 0 c-47 0 -63 4 -68 16 -8 21 -50 14 -54 -9 -7 -38 26 -57 100 -57 80 0 78 3 52 -123 -18 -88 -10 -117 33 -117 21 0 24 4 20 22 -3 11 1 65 10 118 l16 98 45 6 c25 3 72 6 106 7 93 0 140 11 144 33 4 17 -5 18 -137 14 -161 -4 -149 -14 -126 105 8 44 13 83 9 88 -6 10 -37 12 -46 3z"/>
<path d="M14849 28731 c-85 -65 -183 -166 -175 -180 13 -21 38 -11 88 34 28 25 52 44 54 43 1 -2 -4 -30 -12 -63 -9 -33 -20 -80 -25 -105 -5 -25 -14 -60 -20 -78 -12 -37 0 -62 31 -62 21 0 50 31 34 37 -7 2 -1 43 18 121 45 186 47 192 90 238 72 79 14 89 -83 15z"/>
<path d="M7138 28735 c-3 -4 -37 -10 -75 -13 -51 -5 -68 -11 -68 -22 0 -20 71 -24 196 -11 52 5 101 5 110 1 24 -13 47 5 33 27 -9 15 -28 19 -101 21 -49 1 -92 0 -95 -3z"/>
<path d="M11037 28734 c-4 -4 -7 -30 -7 -58 0 -53 -30 -236 -51 -317 -14 -57 -7 -82 22 -77 16 2 25 15 34 43 42 142 156 275 238 279 31 1 32 -1 35 -43 2 -28 -5 -66 -18 -102 -12 -32 -19 -63 -15 -68 13 -22 45 -11 61 22 43 85 149 177 205 177 28 0 27 2 63 -101 9 -25 30 -59 47 -75 28 -27 36 -29 104 -29 60 0 78 4 97 20 19 18 33 20 91 17 l67 -4 0 -52 0 -53 -74 -47 c-76 -47 -153 -124 -184 -180 -11 -21 -17 -55 -16 -102 0 -59 4 -78 24 -108 25 -37 25 -37 92 -34 78 4 110 23 146 84 41 71 72 189 72 271 l0 76 63 58 c56 53 60 58 37 59 -14 0 -42 -11 -63 -25 l-37 -26 0 44 c0 62 -14 76 -90 86 -36 5 -60 9 -53 10 6 0 26 26 43 56 25 44 32 68 33 117 2 57 0 63 -24 76 -75 43 -169 -65 -169 -195 0 -21 5 -45 10 -53 15 -25 -17 -50 -65 -50 -51 0 -78 25 -101 96 -9 27 -23 64 -31 83 -15 33 -15 33 -81 29 -58 -3 -74 -9 -119 -42 -49 -35 -53 -36 -53 -16 0 24 -17 61 -34 72 -39 27 -142 -6 -214 -67 l-40 -35 2 93 c1 86 0 92 -19 95 -12 2 -24 0 -28 -4z m887 -159 c-34 -68 -54 -79 -53 -27 1 54 10 76 44 114 l30 33 3 -33 c2 -22 -6 -53 -24 -87z m65 -513 c-43 -132 -74 -172 -135 -172 -41 0 -53 16 -61 78 -10 84 47 170 167 250 l45 31 3 -61 c2 -41 -4 -80 -19 -126z"/>
<path d="M17690 28668 c-20 -8 -36 -21 -38 -32 -4 -18 1 -18 63 -12 53 5 72 3 91 -9 41 -26 30 -52 -61 -143 -63 -63 -86 -94 -91 -120 -5 -24 -2 -37 7 -43 8 -5 79 -8 159 -6 121 2 145 4 145 17 0 12 -24 17 -122 24 -68 5 -123 12 -123 15 0 4 39 46 86 95 85 86 86 88 81 128 -8 60 -41 88 -108 94 -30 2 -69 -1 -89 -8z"/>
<path d="M7177 28614 c-3 -4 -32 -9 -64 -13 -42 -4 -58 -10 -58 -21 0 -21 49 -24 184 -10 120 12 161 23 161 40 0 11 -212 15 -223 4z"/>
<path d="M21294 28607 c-3 -8 -4 -49 -2 -93 3 -77 4 -79 28 -79 24 0 25 3 28 70 4 89 -3 115 -29 115 -11 0 -22 -6 -25 -13z"/>
<path d="M8103 28567 c-51 -9 -63 -14 -63 -29 0 -18 8 -18 163 -11 162 7 1102 9 1187 2 35 -3 45 -1 48 12 2 9 -5 20 -15 25 -26 13 -1244 14 -1320 1z"/>
<path d="M12785 28443 c-44 -7 -132 -17 -195 -21 -92 -6 -115 -10 -115 -22 0 -22 179 -25 330 -6 66 9 170 18 230 20 112 5 155 12 155 26 0 4 -10 10 -22 14 -41 11 -301 4 -383 -11z"/>
<path d="M8616 28306 c-46 -17 -71 -40 -62 -55 10 -15 37 -14 81 4 49 21 164 17 178 -6 24 -39 -30 -112 -123 -166 -25 -15 -58 -40 -74 -55 -51 -48 -32 -53 195 -53 141 1 202 4 211 13 24 24 -10 32 -155 39 -136 6 -145 7 -125 21 47 32 104 87 120 116 23 41 22 95 -2 126 -17 23 -26 25 -112 28 -62 1 -106 -3 -132 -12z"/>
<path d="M21297 28314 c-4 -4 -7 -49 -7 -99 0 -70 4 -96 15 -105 12 -10 18 -10 30 0 13 10 15 32 13 109 -3 88 -5 96 -23 99 -12 2 -24 0 -28 -4z"/>
<path d="M2564 28168 c-32 -51 -73 -111 -91 -134 -18 -23 -33 -44 -33 -48 0 -3 13 -6 29 -6 36 0 74 42 145 158 55 92 61 116 30 120 -17 2 -33 -15 -80 -90z"/>
<path d="M12715 28170 c-11 -5 -32 -9 -46 -9 -29 -1 -65 -34 -54 -50 9 -16 68 -13 101 4 20 10 60 15 126 15 88 0 98 -2 112 -22 12 -17 13 -25 3 -43 -19 -35 -107 -110 -164 -138 -62 -32 -72 -45 -47 -64 13 -10 36 -13 74 -10 176 15 285 28 293 36 22 22 -8 31 -111 31 l-107 0 61 58 c69 64 80 88 65 135 -18 54 -53 67 -178 66 -59 0 -117 -4 -128 -9z"/>
<path d="M21297 28024 c-4 -4 -7 -44 -7 -90 0 -85 9 -102 45 -87 13 4 15 21 13 92 -3 78 -5 86 -23 89 -12 2 -24 0 -28 -4z"/>
<path d="M23378 27822 c-32 -2 -58 -7 -58 -11 0 -28 139 -41 147 -14 7 19 -27 28 -89 25z"/>
<path d="M23168 27803 c-38 -44 -106 -356 -115 -528 -8 -153 15 -195 104 -195 59 0 257 99 283 142 28 46 10 58 -37 25 -53 -36 -226 -117 -251 -117 -30 0 -42 29 -42 102 0 61 2 66 36 99 48 45 120 195 133 279 16 97 14 176 -5 194 -21 22 -87 21 -106 -1z m62 -87 c0 -84 -16 -151 -60 -243 -41 -88 -56 -103 -41 -42 5 19 14 66 21 104 10 58 38 169 55 223 11 31 25 7 25 -42z"/>
<path d="M21043 27797 c-13 -21 31 -37 104 -37 66 0 73 2 73 20 0 23 7 22 -93 25 -44 1 -80 -2 -84 -8z"/>
<path d="M20228 27793 c-10 -2 -18 -8 -18 -13 0 -14 58 -21 145 -18 63 2 80 6 80 18 0 12 -18 15 -95 17 -52 0 -103 -1 -112 -4z"/>
<path d="M21850 27770 c-26 -16 0 -25 86 -29 80 -3 84 -2 84 18 0 20 -5 21 -77 21 -43 0 -85 -4 -93 -10z"/>
<path d="M24064 27768 c-9 -14 39 -54 85 -69 27 -9 36 -8 49 5 21 20 12 28 -61 55 -68 25 -64 24 -73 9z"/>
<path d="M21307 27733 c-10 -9 -8 -186 2 -201 5 -8 17 -12 27 -10 17 3 19 15 22 102 2 73 -1 102 -10 108 -16 10 -32 10 -41 1z"/>
<path d="M19588 27701 c-101 -11 -87 -41 20 -41 48 0 64 4 69 16 5 14 -13 36 -27 32 -3 0 -31 -4 -62 -7z"/>
<path d="M18943 27635 c-35 -15 -42 -32 -19 -41 7 -3 40 -2 72 3 51 7 59 11 62 31 3 20 -1 22 -40 22 -24 -1 -58 -7 -75 -15z"/>
<path d="M19457 27574 c-4 -4 -7 -47 -7 -94 0 -66 4 -91 15 -100 12 -10 18 -10 30 0 13 10 15 32 13 104 -3 83 -5 91 -23 94 -12 2 -24 0 -28 -4z"/>
<path d="M17905 27502 c-33 -22 -81 -51 -107 -66 -53 -29 -61 -46 -24 -46 52 0 251 110 243 134 -8 24 -54 15 -112 -22z"/>
<path d="M24690 27492 c0 -10 5 -23 12 -30 18 -18 48 -15 48 6 0 10 -5 23 -12 30 -18 18 -48 15 -48 -6z"/>
<path d="M21317 27443 c-9 -8 -9 -146 -1 -167 7 -19 53 -22 55 -3 4 45 -5 154 -13 165 -11 13 -31 16 -41 5z"/>
<path d="M21814 27369 c-7 -13 38 -62 84 -91 17 -11 30 -24 26 -29 -3 -5 -150 -9 -343 -9 -270 0 -341 -3 -350 -13 -7 -10 -27 -12 -66 -9 -50 4 -55 3 -55 -16 0 -20 6 -21 97 -21 54 0 104 5 110 11 9 7 13 7 13 -1 0 -14 37 -15 45 -1 4 6 112 10 291 10 170 0 293 4 304 10 23 12 59 2 38 -11 -7 -5 -24 -9 -36 -9 -13 0 -37 -9 -53 -21 -26 -18 -30 -26 -27 -63 3 -36 6 -41 28 -41 21 0 26 5 28 32 2 23 9 34 25 38 68 18 98 30 108 42 20 24 0 57 -59 95 -31 21 -79 54 -107 73 -50 35 -88 44 -101 24z"/>
<path d="M11089 27288 c-1 -7 0 -21 1 -31 5 -49 -56 -213 -109 -291 -19 -28 -19 -28 -156 -30 l-137 -1 -29 -33 c-31 -35 -35 -63 -19 -124 13 -44 34 -58 88 -58 66 0 129 29 193 87 l59 55 42 -24 c68 -39 153 -61 206 -54 25 3 47 8 50 10 11 11 -12 25 -51 31 -59 9 -132 33 -178 59 -37 21 -38 23 -23 44 29 41 93 179 109 235 9 31 15 73 13 94 -3 33 -7 38 -30 41 -18 2 -28 -2 -29 -10z m-179 -407 c0 -18 -93 -91 -129 -101 -57 -16 -78 -13 -85 13 -20 77 6 97 126 97 49 0 88 -4 88 -9z"/>
<path d="M19457 27294 c-4 -4 -7 -31 -7 -61 0 -53 0 -53 -32 -54 -18 -1 -57 -1 -85 1 -47 2 -53 0 -53 -19 0 -19 6 -20 86 -20 70 1 89 -2 96 -15 11 -20 44 -21 55 -2 4 8 22 16 38 18 45 5 39 32 -7 36 -37 3 -37 3 -40 60 -3 49 -6 57 -23 60 -12 2 -24 0 -28 -4z"/>
<path d="M9057 27274 c-3 -4 -64 -10 -134 -15 -254 -18 -284 -23 -266 -52 6 -11 327 0 388 13 22 5 132 10 243 12 112 2 206 7 209 11 3 4 -1 14 -7 22 -10 12 -50 15 -220 15 -113 0 -209 -3 -213 -6z"/>
<path d="M24975 27226 c-11 -56 -3 -81 25 -81 28 0 36 25 25 81 -4 25 -11 34 -25 34 -14 0 -21 -9 -25 -34z"/>
<path d="M20905 27208 c-11 -6 -41 -10 -67 -9 -43 2 -48 0 -48 -18 0 -18 6 -21 43 -21 24 0 47 3 50 6 4 4 25 8 49 11 46 4 64 15 54 32 -9 14 -56 14 -81 -1z"/>
<path d="M21005 27210 c-12 -19 10 -32 51 -28 27 2 39 8 39 18 0 19 -79 27 -90 10z"/>
<path d="M9012 27183 c-8 -18 -21 -61 -40 -138 -6 -22 -16 -83 -22 -135 -7 -52 -17 -106 -24 -120 -22 -46 9 -102 48 -87 10 4 16 18 16 40 0 51 37 283 56 352 23 85 23 99 -3 103 -13 2 -25 -4 -31 -15z"/>
<path d="M20685 27190 c-12 -19 10 -32 51 -28 27 2 39 8 39 18 0 19 -79 27 -90 10z"/>
<path d="M20593 27180 c-26 -11 -30 -28 -8 -36 21 -9 85 15 85 32 0 16 -42 18 -77 4z"/>
<path d="M18442 27169 c-24 -7 -32 -15 -30 -27 5 -21 65 -19 88 4 13 13 13 16 0 24 -17 11 -15 11 -58 -1z"/>
<path d="M18520 27160 c0 -17 7 -20 45 -20 38 0 45 3 45 20 0 17 -7 20 -45 20 -38 0 -45 -3 -45 -20z"/>
<path d="M18625 27170 c-12 -19 6 -30 51 -30 37 0 44 3 44 20 0 17 -7 20 -44 20 -25 0 -48 -4 -51 -10z"/>
<path d="M18735 27170 c-12 -19 6 -30 51 -30 37 0 44 3 44 20 0 17 -7 20 -44 20 -25 0 -48 -4 -51 -10z"/>
<path d="M18845 27170 c-12 -19 10 -32 51 -28 27 2 39 8 39 18 0 19 -79 27 -90 10z"/>
<path d="M18955 27170 c-12 -19 10 -32 51 -28 27 2 39 8 39 18 0 19 -79 27 -90 10z"/>
<path d="M19060 27160 c0 -19 5 -21 48 -18 34 2 47 7 47 18 0 11 -13 16 -47 18 -43 3 -48 1 -48 -18z"/>
<path d="M19170 27160 c0 -17 7 -20 45 -20 38 0 45 3 45 20 0 17 -7 20 -45 20 -38 0 -45 -3 -45 -20z"/>
<path d="M19600 27160 c0 -19 5 -21 48 -18 34 2 47 7 47 18 0 11 -13 16 -47 18 -43 3 -48 1 -48 -18z"/>
<path d="M19710 27160 c0 -17 9 -19 100 -19 91 0 100 2 100 19 0 17 -9 19 -100 19 -91 0 -100 -2 -100 -19z"/>
<path d="M19930 27160 c0 -17 7 -20 45 -20 38 0 45 3 45 20 0 17 -7 20 -45 20 -38 0 -45 -3 -45 -20z"/>
<path d="M20035 27170 c-12 -19 6 -30 51 -30 37 0 44 3 44 20 0 17 -7 20 -44 20 -25 0 -48 -4 -51 -10z"/>
<path d="M20145 27170 c-12 -19 10 -32 51 -28 27 2 39 8 39 18 0 19 -79 27 -90 10z"/>
<path d="M20255 27170 c-12 -19 10 -32 51 -28 27 2 39 8 39 18 0 19 -79 27 -90 10z"/>
<path d="M20360 27160 c0 -18 7 -19 98 -17 79 2 97 5 97 17 0 12 -18 15 -97 17 -91 2 -98 1 -98 -17z"/>
<path d="M6545 27141 c-16 -10 -58 -48 -92 -83 l-62 -65 -3 71 c-3 68 -4 71 -28 71 -25 0 -25 0 -32 -135 -15 -262 -16 -235 12 -235 21 0 25 6 32 43 4 23 20 66 35 95 30 56 170 207 192 207 12 0 12 -97 -1 -270 -3 -29 1 -36 19 -38 17 -3 27 8 53 56 33 61 185 232 208 232 18 0 15 -81 -8 -180 -22 -97 -26 -180 -8 -198 20 -20 63 -14 87 12 25 26 15 42 -19 31 -17 -5 -20 -2 -20 27 0 18 9 71 20 118 21 94 26 191 10 221 -13 23 -68 26 -109 4 -16 -8 -59 -47 -95 -87 l-66 -72 0 71 c0 102 -10 123 -57 123 -21 0 -51 -8 -68 -19z"/>
<path d="M17875 27150 c-12 -19 10 -32 51 -28 27 2 39 8 39 18 0 19 -79 27 -90 10z"/>
<path d="M17980 27140 c0 -19 5 -21 48 -18 34 2 47 7 47 18 0 11 -13 16 -47 18 -43 3 -48 1 -48 -18z"/>
<path d="M18090 27140 c0 -17 7 -20 45 -20 38 0 45 3 45 20 0 17 -7 20 -45 20 -38 0 -45 -3 -45 -20z"/>
<path d="M18200 27140 c0 -17 9 -19 100 -19 91 0 100 2 100 19 0 17 -9 19 -100 19 -91 0 -100 -2 -100 -19z"/>
<path d="M21325 27140 c-4 -6 -4 -54 0 -106 7 -95 7 -95 34 -92 31 4 36 28 26 136 -6 67 -8 72 -30 72 -13 0 -27 -5 -30 -10z"/>
<path d="M7192 27104 c-53 -45 -70 -77 -78 -146 -5 -45 -3 -56 14 -71 30 -27 96 -34 128 -12 14 9 27 15 29 13 2 -2 5 -54 6 -117 l4 -114 -51 -28 c-27 -16 -63 -42 -79 -59 -27 -28 -30 -38 -30 -93 0 -78 23 -120 90 -165 64 -43 93 -40 120 13 17 34 20 61 21 175 l1 135 69 27 c38 14 112 48 164 75 90 46 122 73 85 73 -23 0 -165 -49 -192 -66 -23 -15 -123 -54 -136 -54 -9 0 -3 214 9 343 8 89 -6 107 -81 107 -45 0 -57 -5 -93 -36z m118 -41 c0 -30 -34 -93 -49 -93 -6 0 -16 -12 -23 -27 -14 -29 -44 -41 -60 -25 -6 6 -7 28 -3 54 14 84 135 165 135 91z m-2 -588 c-2 -65 -9 -120 -15 -126 -16 -16 -72 26 -89 67 -28 67 -12 117 50 155 57 35 59 31 54 -96z"/>
<path d="M9616 27099 c-46 -36 -106 -135 -118 -194 -24 -122 45 -167 204 -134 29 6 66 18 81 26 25 13 31 12 52 -1 17 -11 49 -16 111 -16 79 0 90 3 139 32 29 17 64 48 77 69 18 29 27 35 43 29 11 -4 52 -13 90 -19 90 -15 154 -32 160 -41 3 -5 -16 -19 -42 -31 -35 -17 -67 -24 -120 -25 -91 -1 -133 -17 -133 -52 0 -23 2 -24 43 -18 23 3 70 10 105 15 34 5 83 15 108 22 45 14 114 67 114 88 0 25 -51 58 -107 70 -32 6 -77 16 -101 21 -23 6 -53 10 -67 10 -35 0 -31 13 17 54 50 43 63 44 100 9 27 -25 29 -26 45 -10 16 16 16 18 -3 44 -49 66 -106 64 -188 -8 l-46 -41 -37 32 c-37 32 -37 32 -137 27 -125 -6 -159 -18 -180 -62 -15 -32 -13 -65 4 -65 5 0 1 -14 -7 -31 -20 -40 -95 -75 -179 -84 -80 -9 -99 7 -89 74 10 69 108 201 131 178 4 -4 2 -18 -6 -31 -16 -31 -7 -56 19 -56 38 0 68 99 39 128 -20 20 -92 15 -122 -9z m493 -113 c37 -40 18 -82 -56 -129 -36 -23 -54 -27 -113 -27 -72 0 -89 12 -55 40 26 21 28 50 6 74 -11 11 -17 26 -13 33 11 18 71 31 143 32 57 1 68 -2 88 -23z"/>
<path d="M21915 27010 c-3 -5 10 -41 30 -80 l36 -71 -58 -75 c-138 -177 -156 -214 -109 -214 18 0 34 14 63 54 21 30 60 84 87 120 l49 66 19 -28 c68 -102 83 -117 126 -120 37 -3 42 -1 42 17 0 14 -9 23 -25 27 -13 3 -33 20 -45 37 -11 18 -31 47 -45 66 -14 19 -25 39 -25 45 0 6 25 42 56 79 30 37 52 72 49 77 -14 22 -46 7 -94 -46 l-51 -55 -12 28 c-30 70 -74 104 -93 73z"/>
<path d="M7895 26990 c-16 -26 15 -30 246 -30 232 0 239 1 239 20 0 19 -7 20 -239 20 -149 0 -242 -4 -246 -10z"/>
<path d="M8295 26910 c-16 -4 -55 -8 -85 -9 -71 -1 -211 -30 -230 -48 -11 -10 -12 -15 -2 -25 9 -9 27 -9 80 1 37 7 108 16 157 21 50 4 104 11 120 15 69 16 125 37 119 46 -6 11 -116 10 -159 -1z"/>
<path d="M21337 26854 c-11 -11 -8 -172 3 -179 6 -3 19 -3 30 0 19 6 21 14 18 93 -3 79 -5 87 -23 90 -12 2 -24 0 -28 -4z"/>
<path d="M24853 26828 c-24 -11 -36 -34 -27 -49 10 -17 43 -9 58 13 30 43 16 59 -31 36z"/>
<path d="M17755 26810 c-9 -14 52 -70 76 -70 29 0 23 33 -11 58 -32 24 -55 28 -65 12z"/>
<path d="M17974 26668 c-9 -14 23 -38 53 -38 27 0 30 17 6 36 -22 17 -50 18 -59 2z"/>
<path d="M18375 26630 c-12 -20 21 -38 80 -45 55 -7 106 3 112 22 2 6 -19 13 -49 16 -29 4 -72 9 -94 13 -29 4 -44 2 -49 -6z"/>
<path d="M18866 26611 c-4 -6 -5 -15 -1 -20 10 -18 111 -33 192 -30 130 6 127 32 -5 42 -42 4 -100 10 -128 13 -34 4 -54 3 -58 -5z"/>
<path d="M24239 26590 c-128 -30 -139 -34 -139 -56 0 -19 43 -18 134 2 113 25 170 47 174 67 5 24 -26 21 -169 -13z"/>
<path d="M19735 26570 c-3 -5 -4 -14 -1 -19 11 -17 108 -34 163 -28 93 10 87 24 -19 43 -89 16 -135 17 -143 4z"/>
<path d="M21342 26562 c-9 -6 -12 -35 -10 -108 3 -98 3 -99 28 -99 25 0 25 1 28 99 3 94 -3 116 -28 116 -3 0 -11 -4 -18 -8z"/>
<path d="M20540 26520 c0 -22 2 -22 114 -19 63 2 118 7 122 12 16 16 -13 22 -122 26 -112 3 -114 3 -114 -19z"/>
<path d="M3260 26514 c-8 -3 -26 -10 -40 -16 -104 -44 -113 -54 -117 -130 -5 -76 11 -113 47 -113 27 0 27 0 13 70 -14 69 -8 81 62 116 62 31 67 32 157 27 112 -7 122 -10 149 -54 19 -31 20 -38 9 -65 -7 -17 -55 -76 -106 -131 -89 -97 -104 -124 -104 -184 0 -36 22 -75 39 -72 12 2 17 20 22 71 l6 67 85 88 c78 79 128 152 128 183 0 31 -44 100 -78 121 -30 18 -52 22 -146 25 -61 1 -118 0 -126 -3z"/>
<path d="M21583 26475 c-35 -25 -3 -35 115 -35 119 0 162 6 162 21 0 20 -252 32 -277 14z"/>
<path d="M23380 26481 c-93 -5 -115 -9 -115 -21 0 -12 20 -16 105 -18 119 -4 240 14 240 35 0 14 -9 14 -230 4z"/>
<path d="M22290 26460 c0 -19 7 -20 103 -20 56 0 109 5 117 10 29 19 -12 30 -117 30 -96 0 -103 -1 -103 -20z"/>
<path d="M2075 26388 c-53 -29 -148 -140 -240 -281 -38 -59 -62 -87 -78 -89 -15 -2 -22 -10 -22 -25 0 -12 -18 -40 -40 -63 -39 -39 -40 -40 -45 -18 -4 16 -13 23 -30 23 -24 0 -25 -3 -25 -65 0 -65 0 -65 30 -68 27 -2 39 8 110 89 l80 91 90 -6 c50 -3 108 -9 131 -12 l40 -6 -13 -66 c-8 -36 -13 -80 -11 -97 2 -25 7 -30 28 -30 19 0 26 6 28 25 1 14 7 58 13 98 l12 72 41 0 c50 0 116 17 116 30 0 6 -34 10 -76 10 -67 0 -75 2 -70 18 43 146 55 303 27 355 -16 30 -58 36 -96 15z m55 -113 c0 -55 -12 -133 -34 -210 -12 -47 -15 -50 -45 -49 -211 3 -203 2 -190 26 30 56 157 223 202 265 57 53 67 48 67 -32z"/>
<path d="M21335 26257 c-3 -12 -5 -54 -3 -92 3 -67 4 -70 28 -70 24 0 25 3 28 70 4 88 -3 115 -28 115 -12 0 -22 -9 -25 -23z"/>
<path d="M10538 26113 c-63 -66 -121 -203 -231 -548 -60 -188 -63 -201 -40 -214 13 -7 -82 -10 -334 -11 -237 0 -354 -3 -358 -11 -4 -5 1 -19 11 -30 18 -20 49 -25 58 -11 8 13 1487 33 1566 22 27 -4 35 -1 38 12 7 37 -37 40 -478 35 -234 -2 -436 -8 -450 -12 -22 -7 -23 -6 -13 7 7 8 10 17 7 21 -6 6 9 56 101 327 88 262 123 335 185 392 54 50 57 68 12 68 -20 0 -41 -14 -74 -47z"/>
<path d="M10054 26094 c-73 -49 -126 -109 -194 -224 -69 -115 -121 -244 -123 -305 -1 -40 25 -83 59 -95 49 -19 166 -12 245 15 84 29 149 68 149 90 0 20 1 20 -129 -26 -97 -34 -124 -39 -180 -37 -58 3 -67 6 -77 27 -10 19 -9 34 3 75 18 61 28 75 45 58 17 -17 48 -15 55 4 3 8 25 34 49 57 23 23 76 90 117 150 107 154 123 237 47 237 -15 0 -45 -12 -66 -26z m38 -74 c-13 -35 -147 -223 -186 -259 -19 -18 -29 -22 -37 -14 -17 17 91 188 162 256 34 32 63 56 66 53 3 -3 0 -19 -5 -36z"/>
<path d="M21335 25967 c-3 -7 -5 -54 -3 -103 3 -88 3 -89 28 -89 25 0 25 0 25 100 0 96 -1 100 -23 103 -12 2 -24 -3 -27 -11z"/>
<path d="M10678 25943 c-24 -28 -28 -40 -22 -57 9 -23 41 -20 49 4 11 34 70 27 111 -14 65 -65 39 -125 -107 -246 -56 -47 -113 -94 -126 -105 -14 -12 -25 -33 -26 -50 l-2 -30 155 0 c249 1 391 17 367 42 -13 13 -209 16 -284 4 -39 -6 -92 -8 -117 -5 l-46 7 34 26 c101 79 194 168 219 209 50 85 22 173 -68 217 -45 21 -118 20 -137 -2z"/>
<path d="M2535 25930 c-15 -25 13 -30 173 -30 164 0 215 8 182 30 -20 13 -347 13 -355 0z"/>
<path d="M8155 25790 c-3 -5 -2 -25 3 -44 13 -47 -35 -187 -96 -280 -44 -67 -45 -68 -81 -62 -20 4 -70 10 -113 13 -67 5 -80 3 -111 -16 -44 -27 -50 -44 -33 -86 18 -43 42 -55 108 -55 71 0 114 14 159 50 43 34 62 36 151 15 96 -22 198 -30 198 -16 0 15 -32 27 -157 58 l-102 26 40 59 c71 104 117 275 89 329 -11 20 -45 26 -55 9z m-231 -428 l40 -7 -30 -20 c-40 -26 -141 -34 -150 -11 -16 41 40 56 140 38z"/>
<path d="M6419 25687 c-39 -30 -77 -145 -86 -264 -10 -124 26 -163 149 -163 52 0 74 6 126 34 l62 34 0 -34 c0 -43 33 -66 106 -72 72 -6 155 25 223 85 77 68 103 134 77 198 -18 43 -64 67 -141 72 -95 6 -149 -23 -238 -126 -90 -106 -142 -139 -218 -140 -73 -1 -89 15 -89 90 0 91 50 250 78 249 18 -1 45 -32 57 -67 10 -29 18 -38 37 -38 48 0 28 89 -31 133 -33 24 -86 29 -112 9z m565 -171 c41 -17 51 -44 36 -91 -22 -67 -151 -155 -225 -155 -57 0 -65 7 -65 61 0 49 0 49 35 49 39 0 43 7 18 25 -17 12 -17 15 0 49 29 63 128 93 201 62z"/>
<path d="M21335 25677 c-3 -7 -5 -49 -3 -93 3 -77 4 -79 28 -79 25 0 25 1 25 90 0 86 -1 90 -23 93 -12 2 -24 -3 -27 -11z"/>
<path d="M3337 25614 c-13 -14 -7 -23 28 -40 42 -20 68 -13 63 18 -2 19 -10 24 -43 26 -23 2 -44 0 -48 -4z"/>
<path d="M7247 25565 c-48 -25 -104 -74 -110 -95 -10 -39 23 -60 143 -91 63 -16 116 -32 119 -34 11 -12 -19 -25 -109 -48 -52 -14 -107 -28 -122 -31 -19 -4 -28 -13 -28 -26 0 -28 47 -26 167 7 103 28 183 67 183 87 0 30 -49 56 -163 86 -65 16 -120 30 -123 30 -15 0 3 21 43 50 38 27 59 35 112 39 50 5 66 10 66 21 0 22 -139 26 -178 5z"/>
<path d="M8635 25570 c-16 -26 15 -30 245 -30 148 0 241 -4 245 -10 10 -15 32 -12 39 6 16 41 -5 44 -270 44 -158 0 -255 -4 -259 -10z"/>
<path d="M18075 25550 c-9 -14 3 -30 22 -30 13 0 14 -18 9 -137 -3 -76 -6 -151 -8 -168 -3 -26 0 -30 21 -30 21 0 27 9 50 80 40 124 107 223 134 196 8 -8 5 -123 -5 -191 -2 -20 2 -26 22 -28 22 -2 31 8 70 74 50 85 80 114 119 114 22 0 29 -7 43 -44 24 -64 62 -121 104 -153 32 -24 48 -28 114 -31 66 -3 84 -1 127 21 27 14 55 33 62 41 8 9 20 16 27 16 13 0 44 -48 44 -68 0 -4 -25 -19 -56 -31 -30 -13 -83 -42 -116 -64 -49 -33 -65 -51 -85 -94 -21 -46 -24 -63 -18 -108 11 -94 62 -135 168 -135 128 0 165 61 166 273 1 115 2 119 28 141 28 25 25 47 -6 39 -15 -4 -24 5 -40 40 -12 26 -30 49 -42 52 -14 5 -18 12 -14 23 4 10 9 42 12 73 7 76 -14 99 -90 99 -49 0 -56 -3 -94 -42 -68 -72 -65 -158 8 -188 31 -13 31 -13 7 -26 -36 -20 -118 -17 -155 6 -36 21 -70 71 -97 140 -25 64 -33 70 -88 70 -57 0 -98 -18 -125 -56 l-20 -27 -7 50 c-8 63 -24 77 -75 70 -45 -6 -84 -31 -102 -67 -12 -24 -13 -22 -19 30 -3 30 -9 61 -13 68 -10 14 -73 16 -82 2z m895 -115 c0 -20 -7 -51 -14 -70 -12 -29 -20 -35 -45 -35 -40 0 -64 25 -56 59 10 40 54 81 87 81 25 0 28 -3 28 -35z m60 -391 c0 -112 -15 -179 -43 -199 -32 -22 -109 -19 -140 5 -57 45 -42 160 27 211 42 32 128 79 144 79 9 0 12 -26 12 -96z"/>
<path d="M8655 25430 c-3 -5 -3 -14 0 -20 9 -15 490 -13 518 2 21 11 21 11 2 19 -30 12 -513 11 -520 -1z"/>
<path d="M21342 25392 c-14 -9 -36 -164 -27 -193 6 -19 39 -26 49 -10 3 4 10 48 15 96 8 63 7 92 0 102 -13 15 -19 16 -37 5z"/>
<path d="M2345 25309 c-60 -4 -213 -18 -338 -30 -173 -16 -258 -20 -355 -14 -228 12 -247 12 -247 -5 0 -10 17 -18 55 -24 83 -14 457 -13 610 2 74 7 187 17 250 23 63 6 279 13 480 16 292 4 402 2 550 -11 306 -28 507 -40 660 -41 122 0 145 2 145 15 0 10 -12 16 -40 17 -198 11 -546 36 -615 45 -106 13 -1006 19 -1155 7z"/>
<path d="M10505 25168 c-120 -43 -229 -161 -285 -308 -7 -19 -23 -45 -34 -58 -18 -21 -19 -25 -6 -35 11 -9 14 -28 12 -74 -3 -56 0 -66 22 -88 35 -35 91 -33 239 11 67 20 142 41 167 45 68 14 170 49 170 60 0 24 -165 -2 -352 -56 -70 -20 -140 -35 -155 -33 -32 4 -39 30 -28 113 6 49 8 51 83 105 122 88 250 216 263 262 17 64 -18 84 -96 56z m35 -56 c0 -10 -145 -150 -197 -190 -49 -37 -51 -36 -24 16 25 47 103 123 161 156 47 27 60 31 60 18z"/>
<path d="M21322 25098 c-7 -7 -12 -18 -12 -25 0 -15 -16 -17 -25 -3 -9 14 -52 12 -58 -2 -7 -19 74 -92 98 -89 30 4 45 30 45 77 0 29 -5 44 -16 48 -20 8 -18 8 -32 -6z"/>
<path d="M21415 25010 c-8 -14 3 -30 20 -30 8 0 24 -8 34 -17 15 -12 17 -21 10 -35 -6 -12 -5 -29 6 -53 11 -29 19 -36 37 -33 20 3 22 9 24 66 1 60 0 64 -31 87 -32 25 -89 34 -100 15z"/>
<path d="M21146 24961 c-10 -11 -16 -31 -14 -48 2 -22 8 -28 28 -28 19 0 26 6 28 25 2 14 8 30 14 37 26 32 -28 45 -56 14z"/>
<path d="M21134 24809 c-19 -32 48 -89 105 -89 68 0 81 24 20 40 -22 6 -50 22 -61 36 -23 25 -52 32 -64 13z"/>
<path d="M21430 24795 c-19 -7 -52 -14 -72 -14 -31 -1 -38 -5 -38 -21 0 -18 7 -20 59 -20 61 0 111 25 111 56 0 17 -14 17 -60 -1z"/>
<path d="M8208 24390 c-26 -16 -22 -53 7 -80 21 -19 29 -22 43 -13 9 6 16 18 14 27 -4 23 22 20 67 -9 94 -59 95 -141 3 -188 -25 -12 -52 -33 -60 -46 -15 -22 -15 -25 8 -43 22 -18 38 -19 195 -16 139 2 176 6 203 21 17 10 32 21 32 26 0 5 -80 7 -182 4 l-183 -4 39 23 c88 52 100 166 25 235 -60 54 -172 87 -211 63z"/>
<path d="M17753 24204 c-3 -8 2 -41 10 -72 9 -31 26 -88 37 -127 25 -88 69 -145 111 -145 48 0 67 16 98 82 32 68 29 70 56 -45 8 -38 13 -73 10 -78 -4 -5 -26 -22 -50 -39 -35 -24 -52 -47 -81 -107 -34 -72 -35 -79 -29 -147 12 -118 53 -166 143 -166 65 0 105 20 122 60 17 40 6 198 -20 299 l-19 75 42 35 c95 80 137 125 129 133 -12 12 -72 -18 -134 -65 l-45 -34 -21 96 c-12 53 -22 120 -22 149 0 61 -13 92 -38 92 -27 0 -42 -20 -42 -55 0 -53 -70 -235 -90 -235 -20 0 -50 63 -80 170 -17 63 -34 121 -36 128 -5 17 -43 15 -51 -4z m348 -496 c16 -60 29 -154 29 -215 0 -63 -17 -83 -70 -83 -51 0 -75 34 -84 115 -6 52 -4 68 19 118 23 54 66 107 86 107 5 0 13 -19 20 -42z"/>
<path d="M7757 24104 c-24 -25 11 -344 46 -414 19 -40 26 -45 58 -48 49 -4 77 29 152 188 73 155 98 190 136 190 37 0 48 33 20 61 -16 16 -23 17 -41 8 -57 -30 -92 -78 -155 -209 -36 -74 -74 -147 -85 -163 l-20 -28 -13 25 c-18 33 -36 155 -44 286 -5 96 -8 105 -26 108 -12 2 -24 0 -28 -4z"/>
<path d="M12120 23870 c-30 -5 -95 -8 -144 -9 -91 -1 -230 -16 -298 -33 -28 -6 -38 -14 -38 -29 0 -19 4 -20 73 -14 39 4 79 9 87 12 23 8 322 24 570 32 223 6 225 6 228 29 3 22 3 22 -210 21 -117 -1 -238 -5 -268 -9z"/>
<path d="M6517 23814 c-4 -4 -7 -81 -7 -170 0 -160 -13 -302 -31 -336 -14 -26 0 -48 30 -48 23 0 29 7 49 64 42 116 159 266 208 266 20 0 27 -42 20 -128 -3 -42 -7 -90 -9 -107 -1 -24 2 -31 19 -33 15 -2 38 19 89 80 118 142 247 268 276 268 5 0 10 -84 11 -187 l3 -188 38 -3 c28 -2 37 0 37 12 0 9 -4 16 -10 16 -6 0 -10 64 -10 173 0 199 -6 220 -60 225 -26 2 -47 -5 -80 -27 -46 -30 -178 -162 -218 -216 l-21 -30 -1 55 c0 64 -14 120 -32 132 -19 12 -80 9 -104 -5 -44 -26 -96 -74 -117 -107 l-22 -35 -5 165 c-5 157 -6 165 -25 168 -12 2 -24 0 -28 -4z"/>
<path d="M12071 23778 c-28 -68 -101 -277 -107 -303 -3 -16 -14 -52 -24 -80 -9 -27 -20 -67 -24 -87 -4 -21 -12 -38 -17 -38 -18 0 -5 -45 14 -48 27 -5 46 15 58 62 21 84 53 185 100 317 58 166 63 193 32 197 -16 2 -26 -3 -32 -20z"/>
<path d="M13154 23745 c-9 -23 5 -35 41 -35 39 0 52 14 35 35 -16 19 -69 19 -76 0z"/>
<path d="M14347 23678 c-6 -82 -34 -205 -57 -247 -10 -20 -13 -20 -33 -6 -25 18 -119 20 -165 4 -18 -6 -41 -26 -54 -47 -44 -70 -23 -219 32 -237 29 -9 90 13 123 44 16 14 47 51 69 83 l40 56 67 -39 c83 -48 173 -72 271 -73 81 -1 105 14 43 27 -170 37 -269 73 -336 122 -17 12 -17 15 -3 37 26 40 58 189 60 273 1 79 1 80 -25 83 -26 3 -26 2 -32 -80z m-113 -303 c19 -14 18 -16 -17 -68 -45 -64 -85 -104 -112 -109 -16 -2 -21 5 -28 39 -12 52 -3 103 24 131 24 26 102 30 133 7z"/>
<path d="M8773 23593 c9 -2 25 -2 35 0 9 3 1 5 -18 5 -19 0 -27 -2 -17 -5z"/>
<path d="M10976 23593 c-4 -4 -73 -10 -154 -13 -122 -4 -147 -8 -147 -20 0 -13 36 -15 265 -15 146 0 271 -4 278 -9 9 -5 20 -2 30 8 16 16 15 19 -7 37 -20 16 -39 19 -140 19 -65 0 -121 -3 -125 -7z"/>
<path d="M12711 23579 c-30 -11 -68 -30 -84 -41 -33 -23 -60 -79 -51 -103 8 -20 48 -41 94 -49 19 -4 72 -16 117 -28 l82 -22 -47 -20 c-29 -12 -85 -21 -150 -26 -56 -4 -108 -12 -113 -17 -24 -24 4 -33 106 -33 90 0 115 4 172 27 80 31 93 40 93 62 0 10 -6 25 -12 34 -13 17 -164 66 -208 67 -14 1 -38 6 -53 13 l-29 12 21 26 c25 32 151 79 210 79 34 0 41 3 41 20 0 18 -6 20 -67 19 -41 0 -90 -9 -122 -20z"/>
<path d="M13437 23593 c-20 -35 -80 -255 -81 -296 -1 -51 -1 -52 31 -55 27 -3 41 6 105 70 40 40 87 91 105 113 l32 40 0 -91 c1 -101 10 -118 58 -112 20 2 29 9 31 26 2 15 -2 22 -12 22 -13 0 -16 15 -16 96 0 52 -5 104 -10 115 -20 36 -55 23 -112 -42 -116 -135 -148 -165 -148 -144 0 11 16 69 35 129 20 61 33 116 31 123 -6 14 -42 18 -49 6z"/>
<path d="M8658 23583 c12 -2 32 -2 45 0 12 2 2 4 -23 4 -25 0 -35 -2 -22 -4z"/>
<path d="M13177 23468 c-14 -18 -35 -53 -47 -77 -12 -24 -30 -45 -40 -48 -20 -5 -46 -82 -37 -108 9 -21 46 -19 55 3 9 21 86 154 120 204 40 61 -7 85 -51 26z"/>
<path d="M7580 23461 c0 -43 44 -45 990 -36 1414 12 1655 17 1655 35 0 16 -170 17 -1860 8 -363 -2 -688 1 -722 5 -59 7 -63 7 -63 -12z"/>
<path d="M10787 23430 c-44 -8 -66 -25 -51 -39 5 -6 91 -6 224 -1 118 5 253 10 300 10 90 0 128 12 100 30 -17 11 -514 12 -573 0z"/>
<path d="M8018 23287 c-102 -102 -202 -257 -258 -397 -12 -31 -25 -46 -41 -50 -31 -8 -39 -49 -11 -57 17 -4 19 -11 15 -42 -8 -55 12 -116 42 -129 45 -21 154 -15 210 12 53 24 115 71 115 87 0 15 -30 10 -69 -11 -68 -36 -113 -50 -167 -50 -58 0 -74 14 -74 66 0 67 23 108 105 194 116 120 191 236 216 334 20 79 -24 102 -83 43z m-9 -119 c-21 -41 -119 -187 -129 -193 -6 -4 -10 -4 -10 0 0 17 64 128 100 174 42 53 62 63 39 19z"/>
<path d="M8620 23115 c-21 -26 4 -44 53 -38 51 7 64 17 47 38 -16 20 -84 20 -100 0z"/>
<path d="M9519 22993 c-22 -49 -51 -105 -65 -125 l-26 -36 -71 5 c-69 5 -74 4 -114 -26 -24 -17 -45 -42 -49 -56 -9 -34 2 -96 18 -107 44 -27 154 12 188 67 34 55 39 56 115 30 69 -24 163 -32 213 -19 40 11 17 29 -49 37 -75 9 -178 37 -185 49 -3 5 1 17 10 27 26 28 108 211 102 227 -3 7 -15 14 -26 14 -16 0 -29 -19 -61 -87z m-161 -237 c-41 -62 -108 -87 -108 -41 0 39 45 75 92 75 l38 0 -22 -34z"/>
<path d="M8886 22978 c-43 -131 -45 -139 -52 -208 -5 -54 -3 -68 10 -79 26 -22 62 -5 135 65 l70 65 3 -58 c3 -58 3 -58 39 -61 23 -2 40 2 48 12 16 19 6 37 -15 29 -16 -6 -16 13 -2 177 3 31 0 35 -23 38 -22 3 -32 -5 -55 -39 -35 -52 -145 -171 -152 -164 -7 7 26 142 54 217 27 72 26 88 -10 88 -19 0 -26 -11 -50 -82z"/>
<path d="M8295 22995 c-94 -39 -131 -98 -87 -138 10 -9 52 -25 93 -36 93 -24 129 -38 129 -51 0 -15 -66 -45 -149 -69 -79 -22 -97 -33 -87 -50 11 -18 68 -13 142 13 133 45 166 74 145 128 -12 32 -50 52 -140 73 -87 22 -99 28 -82 49 22 27 118 57 160 50 49 -8 64 11 31 38 -30 25 -83 22 -155 -7z"/>
<path d="M8677 22913 c-39 -79 -80 -148 -93 -155 -17 -11 -37 -65 -30 -83 9 -23 43 -18 58 9 7 13 39 67 71 119 64 106 76 150 40 155 -17 3 -27 -7 -46 -45z"/>
<path d="M13355 22791 c-4 -8 -255 -11 -806 -11 -820 0 -959 -5 -1312 -45 -71 -8 -171 -15 -223 -15 -91 0 -95 -1 -104 -24 -5 -13 -14 -27 -19 -31 -40 -24 -214 -259 -278 -375 -166 -301 -214 -386 -260 -458 -29 -45 -62 -101 -74 -125 -31 -62 -128 -210 -147 -224 -9 -7 -19 -13 -24 -13 -19 0 -31 52 -39 169 -11 159 -23 252 -38 279 -16 30 -82 30 -136 1 -62 -34 -125 -89 -118 -105 9 -23 50 -16 85 14 48 41 94 66 111 59 16 -6 22 -48 36 -247 5 -71 15 -141 24 -162 23 -55 66 -71 122 -46 27 12 126 152 171 239 13 27 44 79 68 117 47 72 169 284 251 437 64 119 129 215 219 324 106 127 114 131 230 131 53 0 162 6 243 14 324 32 448 36 1221 42 l802 7 -7 -34 c-13 -59 -10 -93 9 -97 27 -5 57 70 61 153 2 27 -1 30 -30 33 -17 2 -34 -2 -38 -7z"/>
<path d="M12777 22586 c-9 -22 28 -49 56 -42 31 7 91 -31 95 -62 5 -30 -30 -81 -79 -117 -69 -50 -101 -84 -97 -102 3 -16 20 -18 161 -21 148 -2 179 3 145 25 -7 4 -59 10 -116 13 l-103 5 51 40 c63 49 105 123 96 170 -11 56 -84 105 -159 105 -29 0 -47 -5 -50 -14z"/>
<path d="M12512 22417 c-67 -45 -160 -193 -176 -279 -4 -24 -13 -38 -26 -41 -25 -6 -27 -45 -2 -54 9 -4 32 -20 51 -36 34 -29 34 -29 150 -25 118 5 191 22 199 47 4 11 -10 12 -74 7 -170 -13 -244 -5 -244 28 0 6 32 47 71 91 84 95 138 188 142 241 2 37 0 39 -28 41 -18 1 -44 -7 -63 -20z m-26 -141 c-39 -57 -66 -85 -66 -69 0 15 91 135 97 129 4 -3 -11 -31 -31 -60z"/>
<path d="M11216 22391 c-12 -20 4 -31 45 -31 62 0 109 -31 109 -72 0 -5 -36 -45 -81 -88 -86 -83 -94 -104 -49 -127 30 -15 307 -18 330 -3 29 19 -10 28 -154 35 l-141 7 67 62 c82 76 92 94 78 144 -16 60 -40 76 -125 80 -46 3 -75 0 -79 -7z"/>
<path d="M10918 22177 c-49 -30 -110 -107 -158 -199 -22 -42 -45 -78 -51 -80 -7 -2 -13 -42 -15 -97 -6 -131 4 -145 94 -139 49 3 86 12 137 36 77 36 145 80 145 93 0 17 -33 9 -144 -36 -62 -25 -127 -45 -144 -45 -30 0 -32 2 -32 38 0 76 11 110 37 117 13 3 64 41 112 85 85 76 131 137 145 193 14 56 -59 76 -126 34z m38 -85 c-24 -39 -126 -135 -134 -127 -11 11 95 153 128 170 34 18 36 4 6 -43z"/>
<path d="M11845 21941 c-142 -5 -170 -8 -170 -21 0 -13 28 -15 178 -18 179 -2 262 8 254 31 -4 14 -35 15 -262 8z"/>
<path d="M12779 21915 c-3 -2 -52 -9 -110 -15 -57 -6 -133 -15 -169 -21 -36 -5 -92 -13 -125 -17 -44 -5 -60 -11 -60 -22 0 -21 83 -25 194 -9 122 17 206 25 360 38 131 10 160 18 147 40 -7 11 -227 16 -237 6z"/>
<path d="M12553 21788 c-20 -25 -65 -165 -61 -194 3 -33 7 -34 160 -19 l87 8 -14 -39 c-8 -22 -14 -53 -15 -70 0 -30 -3 -32 -47 -38 -55 -8 -595 -23 -1308 -36 -269 -5 -620 -14 -780 -21 -328 -14 -533 -16 -880 -9 -209 4 -240 3 -240 -10 0 -11 18 -17 65 -23 116 -15 670 -18 1032 -6 194 6 565 15 823 20 587 10 1161 26 1415 39 107 5 264 13 348 16 152 7 152 7 152 32 l0 25 -152 -6 c-84 -4 -201 -10 -260 -13 l-108 -7 0 30 c0 35 33 141 62 197 35 69 -19 80 -56 11 -11 -22 -25 -43 -31 -47 -9 -7 -195 -12 -195 -5 0 1 12 34 26 72 14 39 27 77 27 85 2 19 -36 25 -50 8z"/>
<path d="M7964 21722 c-14 -9 -53 -86 -89 -177 -43 -110 -54 -121 -124 -128 -88 -8 -139 -39 -173 -107 -25 -48 -27 -60 -18 -91 14 -51 32 -63 77 -54 29 5 54 23 104 73 36 37 71 76 77 87 10 19 12 19 44 -11 43 -41 89 -64 128 -64 41 0 38 21 -7 45 -21 11 -57 37 -80 58 l-42 38 30 47 c16 25 29 50 29 55 0 6 20 55 46 109 36 79 43 103 33 114 -13 16 -19 17 -35 6z m-194 -361 c0 -13 -86 -107 -120 -131 -27 -19 -28 -19 -33 0 -9 35 32 101 77 121 44 20 76 24 76 10z"/>
<path d="M6912 21700 c-26 -11 -25 -33 3 -38 27 -6 106 19 102 32 -5 14 -75 18 -105 6z"/>
<path d="M7179 21555 c-27 -60 -51 -178 -47 -229 6 -75 43 -58 127 59 16 22 43 48 61 59 l33 19 -6 -59 c-4 -33 -9 -74 -13 -92 -14 -70 66 -99 120 -43 32 33 22 46 -23 30 -41 -14 -46 -9 -31 36 7 21 10 64 8 97 -5 63 -22 88 -61 88 -22 0 -82 -41 -119 -84 -35 -38 -36 -23 -4 74 14 41 22 78 20 82 -3 4 -14 8 -25 8 -14 0 -26 -13 -40 -45z"/>
<path d="M8485 21582 c-35 -5 -50 -12 -50 -22 0 -11 19 -17 75 -23 95 -10 533 -3 537 9 10 32 -15 35 -263 39 -137 2 -271 0 -299 -3z"/>
<path d="M6525 21566 c-48 -21 -95 -71 -95 -101 0 -32 44 -54 135 -65 72 -9 145 -37 145 -56 0 -7 -29 -29 -63 -48 -57 -32 -92 -43 -192 -62 -71 -13 -75 -15 -75 -34 0 -69 356 44 384 121 16 47 -10 80 -84 106 -36 12 -83 23 -105 23 -22 0 -50 6 -63 14 -23 12 -23 12 15 38 52 35 81 43 109 28 31 -17 56 -6 52 22 -3 21 -9 23 -68 25 -38 2 -78 -3 -95 -11z"/>
<path d="M6947 21452 c-49 -83 -88 -175 -90 -212 -2 -33 0 -35 28 -35 27 0 31 4 36 40 6 42 35 107 83 187 30 51 28 68 -7 68 -16 0 -30 -14 -50 -48z"/>
<path d="M8996 21453 c-4 -5 -105 -10 -224 -13 -184 -4 -217 -7 -217 -20 0 -13 31 -15 211 -18 178 -2 219 0 269 15 76 24 84 43 18 43 -28 0 -53 -3 -57 -7z"/>
<path d="M11444 20941 c-17 -10 -46 -38 -65 -61 -19 -23 -46 -56 -60 -73 -54 -65 -119 -233 -119 -307 0 -44 32 -97 66 -110 38 -15 136 -12 184 5 57 20 130 67 130 83 0 17 -4 16 -105 -18 -105 -36 -166 -39 -195 -10 -29 29 -25 40 23 86 24 23 57 59 73 80 16 22 49 62 74 90 54 60 111 169 113 215 2 33 1 34 -43 37 -31 2 -55 -4 -76 -17z m30 -101 c-15 -28 -48 -75 -73 -104 -26 -30 -59 -71 -76 -92 -22 -29 -31 -35 -33 -22 -5 25 44 114 104 189 89 112 131 127 78 29z"/>
<path d="M12976 19772 c-7 -11 10 -119 31 -197 25 -90 25 -479 0 -591 -60 -272 -160 -489 -276 -598 -36 -35 -40 -56 -9 -56 14 0 45 23 83 63 111 113 203 321 261 587 16 69 19 126 18 305 0 221 -4 255 -53 460 -7 30 -42 47 -55 27z"/>
<path d="M9318 19653 c-79 -82 -216 -326 -263 -468 -33 -102 -49 -319 -35 -464 9 -93 16 -116 53 -190 64 -128 162 -198 279 -200 85 -2 69 25 -27 48 -75 18 -151 83 -197 167 -31 60 -38 83 -48 179 -15 147 0 353 34 451 46 135 178 371 252 451 49 52 55 73 21 73 -14 0 -40 -18 -69 -47z"/>
<path d="M4706 19638 c-43 -50 -51 -83 -51 -213 0 -77 6 -123 27 -200 72 -269 106 -855 65 -1145 -33 -240 -50 -317 -113 -538 -35 -123 -62 -228 -59 -233 9 -14 61 -11 74 5 7 8 33 16 58 18 43 3 47 1 68 -32 13 -19 33 -75 46 -125 23 -88 24 -100 24 -510 0 -390 -5 -539 -37 -1025 -7 -102 -13 -356 -13 -565 0 -329 2 -392 18 -470 37 -180 70 -247 128 -260 46 -10 54 4 20 37 -36 36 -64 106 -88 225 -15 76 -18 141 -18 468 0 209 6 472 13 585 7 113 17 279 23 370 17 275 23 851 10 990 -13 150 -47 273 -87 323 -28 36 -31 37 -97 37 -60 0 -68 2 -63 18 2 9 25 88 51 175 47 161 69 270 101 502 42 302 10 849 -67 1170 -41 171 -37 309 11 360 13 14 26 22 29 19 3 -3 8 -36 11 -72 5 -63 6 -67 30 -67 24 0 25 3 28 65 3 86 -21 130 -72 130 -28 0 -41 -8 -70 -42z"/>
<path d="M6016 19469 c-36 -43 -52 -75 -102 -209 -23 -63 -59 -153 -79 -200 -20 -47 -42 -97 -48 -112 -10 -24 -17 -27 -62 -30 -36 -2 -50 -7 -50 -18 0 -10 12 -16 38 -18 l38 -3 -33 -60 c-17 -33 -49 -79 -69 -102 l-38 -42 -1 46 c0 37 5 50 22 61 27 18 16 38 -22 38 -41 0 -60 -32 -60 -100 0 -46 4 -61 23 -78 13 -12 33 -22 44 -22 29 0 106 88 158 180 l43 75 96 3 96 3 0 -70 c0 -39 5 -82 12 -96 15 -34 56 -44 75 -20 18 25 17 33 -7 40 -17 6 -20 15 -20 76 l0 69 50 0 c68 0 152 19 147 33 -3 8 -33 11 -97 9 l-92 -3 6 26 c27 108 36 479 13 525 -19 37 -50 37 -81 -1z m31 -269 c-3 -96 -10 -199 -17 -227 l-12 -53 -89 0 c-49 0 -89 2 -89 5 0 4 7 20 16 37 23 44 68 155 116 283 22 61 48 124 56 140 14 26 16 28 20 10 3 -11 2 -99 -1 -195z"/>
<path d="M7696 19448 c-3 -7 -7 -53 -9 -103 -5 -84 -9 -104 -38 -187 -7 -18 -12 -46 -13 -63 -1 -25 3 -30 23 -30 18 0 27 9 40 40 39 97 160 229 220 241 l34 7 -8 -64 c-4 -35 -8 -86 -9 -114 -1 -45 1 -50 21 -53 16 -2 26 3 32 20 19 49 164 168 205 168 17 0 18 -6 12 -71 -3 -39 -10 -78 -15 -87 -14 -27 -23 -145 -12 -162 19 -28 45 2 53 61 4 30 14 81 22 114 18 68 20 132 6 171 -10 25 -13 26 -69 22 -50 -3 -66 -10 -119 -51 l-62 -47 0 44 c0 25 -4 56 -10 70 -8 23 -15 26 -55 26 -61 0 -102 -19 -150 -69 l-40 -42 -5 83 c-5 77 -7 83 -28 86 -12 2 -24 -3 -26 -10z"/>
<path d="M10260 19408 c-29 -16 -38 -43 -16 -51 8 -3 30 -1 49 5 49 15 108 -1 126 -34 22 -38 4 -66 -90 -141 -43 -34 -83 -75 -90 -90 -21 -48 -3 -54 179 -61 135 -5 162 -4 162 8 0 18 -68 34 -184 44 l-89 7 72 60 c93 77 115 112 106 165 -10 59 -56 91 -137 97 -41 2 -72 -1 -88 -9z"/>
<path d="M12545 19368 c-20 -17 -52 -56 -71 -85 -34 -54 -144 -318 -144 -347 0 -8 -5 -18 -10 -21 -6 -4 -8 -15 -5 -25 3 -10 1 -38 -5 -64 -5 -25 -11 -69 -12 -97 -2 -45 1 -54 25 -75 53 -45 114 -32 290 66 112 62 177 113 164 127 -12 11 -73 -15 -208 -89 -141 -77 -191 -92 -208 -61 -5 11 -8 28 -6 39 2 10 9 48 16 84 10 56 18 72 59 115 27 28 83 103 125 168 71 109 78 123 88 194 10 69 9 77 -8 89 -29 21 -51 17 -90 -18z m36 -91 c-6 -32 -31 -80 -82 -156 -41 -60 -75 -108 -77 -106 -6 6 79 208 101 240 26 38 59 76 64 72 2 -2 -1 -25 -6 -50z"/>
<path d="M9599 19283 c-9 -24 -7 -30 14 -48 18 -14 28 -38 37 -80 26 -136 74 -322 109 -430 18 -54 56 -80 88 -59 9 6 44 90 78 190 64 188 121 314 142 314 18 0 16 39 -3 47 -50 19 -107 -77 -190 -322 -26 -77 -50 -144 -54 -148 -7 -8 -27 57 -55 173 -7 30 -20 84 -29 120 -8 36 -26 110 -38 165 -23 100 -23 100 -56 103 -27 3 -34 -1 -43 -25z"/>
<path d="M11725 19141 c-16 -10 -38 -27 -47 -37 -29 -33 -59 -117 -60 -168 -1 -44 2 -51 33 -77 48 -40 103 -49 162 -24 16 7 17 -3 17 -119 0 -115 -2 -126 -20 -136 -41 -22 -146 -123 -181 -174 -43 -64 -62 -148 -53 -230 6 -46 12 -61 36 -81 39 -33 69 -39 111 -26 77 26 135 176 156 401 5 57 13 96 21 98 24 8 140 114 140 128 0 23 -21 16 -85 -26 l-60 -40 -3 123 c-2 67 2 142 8 166 6 24 9 46 6 49 -3 3 1 10 10 17 14 10 14 16 0 65 -19 64 -23 71 -56 93 -32 22 -98 22 -135 -2z m104 -45 c7 -8 20 -37 30 -65 16 -42 17 -51 4 -55 -7 -3 -21 -22 -29 -41 -20 -49 -70 -73 -114 -55 -45 19 -52 38 -35 106 24 92 107 155 144 110z m-27 -758 c-22 -105 -63 -203 -93 -219 -16 -8 -26 -7 -44 5 -48 32 -41 166 13 251 14 22 50 63 81 91 l56 52 3 -43 c2 -23 -6 -85 -16 -137z"/>
<path d="M11102 19083 c-11 -21 -22 -57 -25 -81 -3 -24 -8 -46 -11 -50 -4 -3 -39 -8 -79 -11 -55 -5 -72 -10 -72 -21 0 -12 16 -16 76 -18 l77 -3 4 -115 c4 -116 15 -151 40 -126 7 7 14 57 16 131 l4 119 42 5 c116 17 170 36 152 54 -10 10 -97 9 -154 -2 l-43 -8 7 44 c4 24 13 57 21 72 16 32 10 47 -17 47 -13 0 -26 -14 -38 -37z"/>
<path d="M6906 18933 c-3 -4 -66 -9 -139 -12 -108 -5 -132 -9 -132 -21 0 -21 156 -25 335 -10 134 12 169 22 140 40 -17 11 -193 14 -204 3z"/>
<path d="M8430 18929 c-25 -4 -142 -8 -260 -8 -148 -1 -243 -6 -305 -17 -49 -9 -113 -19 -141 -24 -77 -12 -94 -19 -94 -41 0 -27 27 -25 240 15 48 9 139 16 210 16 143 1 409 15 458 26 37 8 43 29 10 38 -28 7 -59 6 -118 -5z"/>
<path d="M6969 18796 c-2 -3 -52 -10 -109 -16 -107 -11 -147 -27 -123 -51 9 -9 38 -9 115 0 57 7 137 16 179 21 92 10 159 27 159 40 0 10 -212 15 -221 6z"/>
<path d="M7860 18580 c0 -19 7 -20 96 -20 121 0 154 -15 153 -70 0 -45 -25 -73 -125 -140 -73 -48 -100 -71 -102 -89 l-4 -24 139 6 c173 9 332 39 341 66 5 15 -92 12 -262 -8 -49 -6 -91 -9 -93 -8 -2 2 26 23 63 47 94 61 124 130 89 205 -23 46 -51 55 -180 55 -108 0 -115 -1 -115 -20z"/>
<path d="M8636 17413 c-4 -5 -114 -10 -244 -13 -202 -4 -237 -7 -237 -20 0 -13 26 -15 166 -18 l166 -2 -8 -43 c-17 -90 -31 -214 -27 -252 3 -35 6 -40 28 -40 24 0 25 4 31 70 9 98 26 227 34 247 7 18 93 27 287 32 54 1 101 5 104 9 4 4 1 13 -6 22 -10 12 -39 15 -150 15 -75 0 -140 -3 -144 -7z"/>
<path d="M6523 17132 c-16 -10 -53 -92 -53 -119 0 -12 14 -38 31 -58 l31 -35 -27 -10 c-45 -17 -159 -24 -197 -11 -45 15 -70 44 -93 106 -19 53 -38 75 -66 75 -14 0 -86 -28 -120 -47 -3 -2 -11 8 -17 22 -25 55 -131 21 -246 -78 l-58 -50 7 54 c13 90 13 94 -14 94 -29 0 -36 -19 -52 -150 -18 -152 -18 -160 10 -160 20 0 27 7 34 34 17 68 231 248 267 226 17 -10 11 -54 -12 -94 -24 -42 -19 -71 11 -71 14 0 27 13 40 38 25 47 88 109 122 117 21 5 27 2 37 -20 7 -14 12 -32 12 -40 0 -26 60 -83 106 -101 35 -13 62 -16 127 -11 96 7 139 20 187 57 19 15 45 29 56 32 20 5 22 0 28 -61 3 -36 9 -84 12 -107 l6 -40 -93 -46 c-112 -55 -139 -79 -180 -160 -28 -56 -31 -67 -24 -122 3 -33 11 -68 16 -78 17 -31 90 -78 121 -78 67 0 138 61 178 153 25 57 44 236 36 339 -3 45 -9 123 -12 172 -6 73 -10 89 -25 93 -14 4 -16 10 -8 36 13 47 11 65 -11 87 -16 16 -33 20 -87 20 -38 0 -73 -4 -80 -8z m122 -79 c-3 -21 -17 -49 -30 -62 -21 -22 -27 -23 -50 -13 -35 16 -41 39 -20 78 16 31 22 34 63 34 l44 0 -7 -37z m41 -465 c-15 -165 -52 -252 -120 -285 -34 -16 -36 -16 -70 10 -29 23 -36 35 -41 80 -6 46 -3 61 19 105 14 28 36 61 48 72 22 21 144 89 162 90 5 0 6 -32 2 -72z"/>
<path d="M7135 17069 c-16 -25 20 -29 246 -27 200 3 234 5 234 18 0 13 -34 15 -237 18 -165 2 -239 -1 -243 -9z"/>
<path d="M7450 16943 c-47 -8 -124 -15 -172 -16 -87 -3 -117 -14 -103 -38 14 -21 266 -5 349 23 77 25 99 49 44 47 -18 -1 -71 -8 -118 -16z"/>
<path d="M8467 16934 c-3 -3 -60 -9 -127 -14 -91 -5 -126 -11 -138 -24 -31 -30 -3 -36 123 -26 66 5 237 15 380 21 143 6 264 15 269 19 26 25 -15 30 -253 30 -136 0 -250 -3 -254 -6z"/>
<path d="M8402 16665 c-19 -8 -32 -20 -29 -27 3 -10 30 -12 103 -9 151 5 213 -30 152 -86 -13 -12 -69 -49 -125 -82 -137 -83 -180 -136 -138 -171 25 -21 430 -7 479 16 20 10 36 24 36 32 0 12 -10 14 -52 8 -29 -3 -134 -9 -233 -12 l-180 -5 27 24 c15 14 70 50 121 81 117 69 151 106 143 155 -7 43 -44 76 -95 85 -64 10 -175 6 -209 -9z"/>
<path d="M14035 16651 c-10 -18 -1 -24 68 -46 80 -26 86 -49 29 -109 -44 -47 -82 -106 -82 -129 0 -27 41 -47 95 -47 27 0 79 -9 115 -20 74 -23 114 -26 108 -8 -12 36 -126 78 -214 78 l-44 0 17 28 c9 15 36 48 60 74 84 92 46 168 -92 184 -36 4 -55 3 -60 -5z"/>
<path d="M20491 16574 c-22 -28 -28 -88 -11 -99 6 -3 10 -17 10 -30 0 -31 27 -45 87 -45 54 0 65 5 82 37 20 39 13 82 -21 124 -29 36 -36 39 -79 39 -39 0 -51 -4 -68 -26z"/>
<path d="M13757 16390 c-38 -33 -109 -168 -131 -250 -8 -30 -18 -66 -22 -80 -10 -37 -34 -60 -61 -60 -13 0 -26 -7 -29 -15 -9 -22 14 -45 45 -45 19 0 31 -9 44 -31 16 -29 20 -31 65 -26 63 6 189 60 230 100 48 46 25 54 -51 18 -36 -17 -70 -31 -76 -31 -7 0 -29 -9 -51 -20 -56 -29 -70 -26 -70 12 0 25 12 44 59 93 98 102 186 307 150 351 -19 23 -65 17 -102 -16z m7 -152 c-38 -75 -74 -132 -80 -126 -11 12 64 184 99 227 10 12 12 11 15 -6 2 -12 -13 -54 -34 -95z"/>
<path d="M12095 16170 c-12 -20 7 -30 55 -30 26 0 69 -9 94 -20 39 -16 46 -24 46 -47 0 -35 -41 -96 -101 -151 -53 -48 -63 -72 -43 -100 10 -15 30 -21 86 -26 40 -4 95 -9 121 -12 59 -7 120 3 114 19 -3 11 -94 30 -210 43 l-58 7 44 41 c54 50 107 134 107 169 0 78 -57 116 -177 117 -39 0 -75 -4 -78 -10z"/>
<path d="M20465 16064 c-18 -44 -19 -96 -3 -112 7 -7 44 -12 94 -12 95 0 105 7 112 80 7 72 -3 80 -104 80 l-84 0 -15 -36z"/>
<path d="M11709 15863 c-53 -54 -102 -112 -110 -130 -9 -22 -21 -33 -39 -35 -23 -3 -25 -7 -26 -53 -1 -27 -7 -76 -14 -108 -12 -54 -12 -60 7 -85 19 -26 24 -27 127 -30 114 -3 166 11 187 49 15 29 -10 33 -67 11 -37 -14 -66 -18 -119 -14 -75 5 -87 13 -79 52 17 77 24 88 78 114 34 17 79 53 122 99 113 119 137 217 58 225 -25 3 -42 -10 -125 -95z m91 -8 c0 -16 -127 -155 -142 -155 -17 0 15 45 75 108 34 34 63 62 64 62 2 0 3 -7 3 -15z"/>
<path d="M13968 15754 c-5 -5 -107 -14 -350 -31 -68 -4 -78 -8 -78 -24 0 -17 8 -19 83 -18 45 0 134 4 197 9 63 5 178 14 254 19 136 10 165 18 152 40 -7 11 -247 16 -258 5z"/>
<path d="M12635 15710 c-14 -22 10 -30 94 -30 48 0 113 -5 145 -11 64 -13 170 3 163 24 -7 22 -389 38 -402 17z"/>
<path d="M7315 15690 c-12 -20 7 -28 75 -32 38 -2 86 -14 115 -27 l50 -22 -39 -32 c-75 -62 -156 -149 -162 -174 -13 -52 22 -63 254 -79 83 -6 119 3 97 25 -10 10 -116 28 -234 40 l-64 6 55 55 c30 30 69 66 87 79 76 56 76 103 -1 142 -51 26 -220 40 -233 19z"/>
<path d="M13816 15648 c-3 -7 -7 -24 -9 -38 -3 -14 -10 -38 -16 -55 -27 -75 -43 -146 -37 -161 6 -15 17 -16 84 -11 42 4 91 9 107 12 l30 7 -3 -87 c-4 -105 2 -135 27 -135 26 0 31 19 31 108 0 79 15 184 31 215 13 25 3 37 -31 37 -30 0 -40 -15 -40 -60 0 -23 -5 -29 -31 -34 -17 -3 -49 -6 -70 -6 -21 0 -41 -4 -44 -10 -3 -5 -14 -10 -23 -10 -12 0 -13 3 -4 12 7 7 12 25 12 41 0 15 9 50 21 77 26 61 23 104 -9 108 -12 2 -24 -3 -26 -10z"/>
<path d="M7133 15478 c-37 -27 -98 -159 -134 -289 l-23 -86 -27 31 c-14 17 -41 57 -58 89 -17 31 -45 83 -62 115 -40 73 -47 82 -70 82 -33 0 -31 -20 12 -98 23 -42 54 -100 69 -128 15 -29 46 -75 70 -103 36 -42 49 -51 76 -51 36 0 32 -10 90 195 9 33 27 80 40 105 13 25 24 50 24 56 0 16 44 54 62 54 20 0 42 26 33 40 -11 18 -69 11 -102 -12z"/>
<path d="M17441 15480 c-62 -22 -76 -33 -67 -49 10 -16 54 -13 104 6 39 15 64 15 255 4 117 -6 237 -14 267 -17 39 -4 61 -1 75 9 19 14 18 15 -20 25 -101 24 -174 31 -360 37 -185 5 -204 4 -254 -15z"/>
<path d="M16995 15464 c-52 -19 -69 -36 -60 -63 9 -29 58 -29 77 1 13 19 24 22 74 23 54 0 59 -2 62 -23 4 -29 -27 -64 -75 -87 -19 -9 -37 -23 -40 -31 -8 -23 17 -44 52 -44 18 0 49 -7 69 -15 56 -23 48 -48 -25 -85 -33 -17 -66 -29 -72 -26 -9 3 -8 5 1 5 19 1 14 31 -5 31 -31 0 -145 -59 -141 -72 3 -9 33 -14 91 -16 80 -3 92 0 152 29 71 34 95 59 95 99 0 38 -26 68 -71 81 l-40 12 37 38 c33 34 36 41 31 79 -8 65 -28 80 -106 79 -36 0 -84 -7 -106 -15z"/>
<path d="M17616 15408 c-3 -7 -7 -35 -11 -61 -3 -26 -16 -76 -27 -110 -11 -34 -21 -91 -22 -127 -1 -63 0 -65 24 -65 23 0 25 4 32 66 3 37 10 75 15 85 16 31 45 170 41 195 -3 27 -45 40 -52 17z"/>
<path d="M9747 15373 c-4 -3 -57 -9 -119 -12 -91 -5 -113 -9 -113 -21 0 -17 55 -18 503 -10 196 4 252 8 252 18 0 7 -12 17 -26 22 -28 11 -487 14 -497 3z"/>
<path d="M9828 15283 c-25 -28 -43 -71 -76 -178 -45 -147 -57 -210 -57 -310 0 -89 0 -90 25 -90 25 0 25 2 31 95 3 52 11 120 19 150 24 104 82 273 102 301 11 15 17 32 14 38 -11 17 -41 13 -58 -6z"/>
<path d="M5755 15108 c-2 -7 -6 -67 -9 -133 -2 -66 -6 -136 -8 -155 -3 -30 0 -35 19 -38 19 -3 27 7 53 60 28 60 155 208 178 208 17 0 22 -48 10 -93 -13 -50 -7 -77 19 -77 10 0 59 34 108 75 96 80 156 115 197 115 23 0 26 -5 32 -47 18 -129 23 -153 35 -167 16 -19 37 -21 44 -3 7 19 -25 236 -38 257 -8 13 -90 13 -137 -1 -21 -5 -70 -34 -110 -64 l-72 -55 -12 41 c-16 54 -31 69 -67 69 -41 0 -85 -30 -138 -92 l-44 -53 -5 80 c-5 74 -7 80 -28 83 -12 2 -24 -3 -27 -10z"/>
<path d="M14235 15111 c-17 -16 -309 -34 -825 -51 -541 -17 -799 -28 -985 -42 -192 -14 -843 -16 -907 -3 -33 6 -38 5 -38 -11 0 -40 36 -44 424 -44 204 1 443 5 531 11 184 11 524 25 970 39 590 19 813 34 867 61 38 19 37 49 0 49 -15 0 -32 -4 -37 -9z"/>
<path d="M15655 15110 c-4 -6 1 -20 11 -31 16 -17 32 -19 188 -19 164 0 219 9 188 29 -7 4 -79 11 -160 15 -81 4 -163 9 -183 12 -23 4 -39 2 -44 -6z"/>
<path d="M8430 15022 c-51 -10 -45 -34 10 -45 57 -11 462 1 475 14 5 6 5 12 0 18 -12 12 -435 23 -485 13z"/>
<path d="M10334 14986 c-13 -34 4 -47 53 -44 44 3 48 5 48 28 0 23 -4 25 -48 28 -35 2 -49 -1 -53 -12z"/>
<path d="M17407 14974 c-3 -3 -90 -10 -194 -15 -222 -10 -293 -20 -371 -53 -40 -17 -58 -30 -60 -45 -4 -28 27 -28 87 0 82 37 113 39 716 68 138 7 254 16 259 21 25 25 -13 30 -218 30 -117 0 -215 -3 -219 -6z"/>
<path d="M15678 14893 c-22 -27 5 -33 135 -32 139 1 238 16 245 36 5 18 -365 14 -380 -4z"/>
<path d="M7486 14893 c-4 -5 -175 -10 -379 -13 -322 -4 -372 -7 -372 -20 0 -13 61 -15 500 -13 523 2 620 7 620 33 0 13 -28 15 -181 18 -99 1 -184 -1 -188 -5z"/>
<path d="M8470 14790 c-19 -5 -44 -7 -56 -4 -25 6 -53 -21 -37 -37 7 -7 82 -7 237 0 125 6 237 11 249 11 12 0 29 5 37 10 13 9 13 11 0 20 -18 12 -380 12 -430 0z"/>
<path d="M17296 14788 c-2 -7 -8 -41 -14 -74 -6 -34 -21 -90 -35 -125 -43 -115 -59 -168 -52 -179 9 -15 62 -12 88 5 23 15 133 54 153 55 8 0 9 -15 2 -50 -5 -28 -8 -72 -6 -98 3 -43 5 -47 31 -50 27 -3 27 -3 27 55 0 32 9 94 20 138 11 44 20 90 20 101 0 12 10 44 21 72 24 59 20 85 -13 80 -18 -2 -28 -16 -45 -68 -12 -36 -22 -75 -22 -88 -1 -25 -7 -28 -123 -65 l-78 -25 7 27 c3 14 14 44 23 66 27 64 52 168 48 200 -2 22 -9 31 -26 33 -12 2 -24 -3 -26 -10z"/>
<path d="M12865 14766 c-48 -21 -130 -116 -170 -197 -21 -41 -45 -82 -54 -93 -9 -10 -15 -20 -13 -22 1 -2 -5 -21 -13 -41 -9 -20 -18 -69 -22 -109 -6 -73 -6 -73 21 -80 53 -13 135 3 193 38 70 42 143 105 143 124 0 20 -4 19 -94 -33 -131 -75 -149 -83 -179 -83 -30 0 -30 0 -23 51 8 60 34 119 54 119 24 0 140 89 190 148 61 70 82 131 57 168 -17 27 -45 30 -90 10z m38 -68 c-5 -28 -148 -186 -159 -176 -12 13 47 107 100 157 32 29 59 52 61 50 2 -2 1 -16 -2 -31z"/>
<path d="M13160 14765 c-23 -27 -4 -47 38 -41 40 6 86 9 115 7 10 -1 17 -9 17 -21 0 -21 -52 -59 -126 -91 -49 -22 -68 -43 -60 -64 4 -12 28 -15 138 -14 130 0 208 14 198 34 -3 6 -46 10 -97 10 -50 0 -95 3 -98 7 -4 4 11 16 34 27 54 28 75 61 67 106 -4 19 -15 39 -26 45 -31 16 -185 13 -200 -5z"/>
<path d="M7244 14726 c-18 -8 -50 -38 -72 -68 -32 -43 -44 -74 -66 -163 -15 -60 -31 -126 -37 -145 -6 -19 -13 -81 -16 -138 -6 -98 -5 -104 17 -127 13 -14 30 -25 39 -25 23 0 235 88 336 139 85 44 116 71 81 71 -22 0 -123 -34 -188 -64 -63 -29 -210 -86 -220 -86 -5 0 -8 31 -8 69 l0 68 68 69 c81 83 157 220 168 302 6 49 5 55 -22 83 -31 33 -36 34 -80 15z m42 -99 c-11 -68 -123 -263 -141 -245 -7 7 33 174 51 209 20 40 72 91 85 84 7 -5 9 -22 5 -48z"/>
<path d="M5902 12903 c-39 -19 -126 -113 -151 -163 -26 -51 -52 -165 -57 -246 -5 -97 28 -163 101 -205 47 -27 57 -29 162 -29 107 0 139 8 116 31 -4 4 -53 11 -108 15 -117 8 -164 28 -189 81 -16 34 -16 36 4 50 31 22 153 191 188 259 18 36 33 85 37 121 7 54 5 63 -14 82 -25 25 -45 26 -89 4z m45 -88 c-9 -61 -46 -132 -129 -245 l-70 -95 7 50 c10 73 42 184 61 212 26 40 109 123 124 123 9 0 11 -11 7 -45z"/>
<path d="M5204 12655 c-45 -27 -98 -101 -108 -150 -9 -45 23 -92 69 -101 39 -7 146 0 184 12 l24 7 -7 -102 c-4 -56 -9 -108 -12 -114 -2 -7 -26 -21 -52 -30 -26 -10 -77 -36 -115 -58 -55 -33 -72 -49 -92 -90 -29 -57 -26 -108 8 -142 20 -20 20 -20 -81 -14 -106 7 -129 0 -98 -31 15 -15 64 -17 464 -20 417 -3 1159 11 1170 23 3 2 -1 12 -9 21 -12 14 -43 15 -293 10 -675 -15 -902 -17 -943 -11 l-43 6 25 33 c31 40 77 143 99 217 11 41 22 59 41 67 30 14 35 47 5 39 -18 -5 -19 0 -14 132 3 75 10 151 16 168 10 36 5 53 -18 53 -8 0 -14 9 -14 21 0 11 -13 34 -29 50 -25 25 -37 29 -83 29 -39 0 -64 -7 -94 -25z m134 -37 c16 -16 15 -92 0 -120 -22 -39 -41 -47 -105 -48 -52 0 -64 3 -73 19 -17 32 24 107 76 142 33 21 84 25 102 7z m-8 -498 c0 -21 -42 -119 -70 -163 -27 -43 -33 -47 -70 -47 -35 0 -42 4 -51 27 -8 21 -6 36 7 66 14 31 34 48 93 83 79 46 91 50 91 34z"/>
<path d="M8417 12419 c-53 -28 -87 -109 -52 -123 25 -9 43 4 50 34 9 41 53 60 137 60 121 0 109 -42 -58 -209 -74 -74 -124 -131 -122 -140 5 -23 139 -34 301 -24 107 6 132 11 132 23 0 12 -30 17 -168 25 l-168 10 86 85 c107 105 140 157 132 207 -11 64 -27 73 -136 73 -76 -1 -104 -5 -134 -21z"/>
<path d="M7465 11930 c-16 -4 -59 -8 -94 -9 -35 0 -80 -5 -100 -11 -20 -5 -48 -12 -62 -14 -15 -3 -30 -13 -33 -23 -12 -30 9 -37 71 -23 32 7 94 16 138 21 326 30 337 32 321 58 -8 13 -193 13 -241 1z"/>
<path d="M8765 11864 c-38 -7 -117 -18 -175 -24 -205 -22 -215 -24 -215 -40 0 -13 19 -15 116 -13 64 1 165 9 225 18 60 9 139 20 175 24 62 6 99 22 99 42 0 13 -143 9 -225 -7z"/>
<path d="M7275 11750 c-16 -26 14 -30 218 -30 207 0 261 7 227 30 -20 13 -437 13 -445 0z"/>
<path d="M8633 11682 c-50 -20 -68 -36 -59 -51 10 -15 47 -14 89 4 39 16 167 21 167 6 0 -13 -57 -58 -119 -94 -30 -18 -56 -37 -58 -44 -5 -15 31 -35 87 -45 25 -5 59 -11 75 -15 37 -7 75 -40 75 -65 0 -24 -138 -91 -178 -86 l-27 3 30 15 c39 20 38 34 -2 38 -55 5 -111 -46 -97 -90 6 -19 12 -20 88 -16 69 4 92 10 156 43 41 20 78 43 82 49 11 16 10 62 -3 88 -13 29 -68 68 -96 68 -11 0 -35 6 -53 13 l-32 14 31 13 c39 16 101 84 101 110 0 11 -9 29 -20 40 -17 17 -33 20 -107 19 -59 0 -102 -6 -130 -17z"/>
<path d="M5953 11573 c-26 -5 -47 -28 -38 -43 3 -5 34 -9 69 -7 67 2 96 -11 96 -43 0 -10 -30 -43 -67 -74 -95 -78 -104 -88 -101 -106 7 -35 263 -34 345 1 65 28 56 43 -19 35 -35 -3 -70 -7 -78 -8 -8 0 -44 0 -80 0 l-65 2 63 58 c61 56 66 66 62 107 -6 60 -93 96 -187 78z"/>
<path d="M5792 11433 c-17 -7 -45 -64 -86 -175 -71 -196 -115 -303 -123 -303 -14 0 -41 67 -63 155 -61 242 -90 310 -134 310 -33 0 -37 -18 -12 -55 23 -34 52 -121 86 -255 43 -168 67 -210 121 -210 54 0 69 28 184 348 19 51 43 109 55 129 29 49 17 74 -28 56z"/>
<path d="M9269 10651 c-71 -45 -128 -156 -151 -296 l-13 -79 -95 -48 c-77 -39 -96 -45 -98 -32 -2 9 1 21 7 27 14 14 14 62 1 86 -14 27 -95 54 -144 49 -78 -9 -178 -90 -178 -145 0 -45 26 -55 127 -50 50 3 98 8 109 12 14 6 17 4 15 -11 -3 -12 -34 -34 -86 -61 -189 -96 -258 -164 -252 -246 l4 -45 -50 -6 c-27 -3 -112 -6 -187 -6 -130 0 -138 -1 -138 -20 0 -18 10 -19 208 -24 114 -3 237 -8 274 -11 59 -6 74 -4 120 18 48 22 72 25 243 33 105 5 301 9 438 9 225 0 247 1 247 17 0 40 -156 45 -699 22 l-144 -6 22 30 c24 34 61 167 61 219 0 32 3 34 106 84 86 42 108 49 115 38 5 -8 9 -19 9 -25 0 -5 16 -26 36 -45 l35 -34 147 -3 c90 -2 153 1 162 8 28 19 -9 28 -143 36 -121 6 -132 8 -158 33 -16 14 -32 40 -35 56 -5 27 -1 33 32 51 20 12 78 63 129 114 87 86 95 97 111 157 13 47 15 70 7 82 -31 49 -126 55 -194 12z m136 -31 c12 -19 -16 -90 -53 -132 -20 -24 -66 -70 -102 -103 -62 -57 -65 -59 -68 -35 -9 61 63 219 116 255 37 25 96 33 107 15z m-568 -322 c15 -7 30 -13 32 -15 2 -1 -3 -13 -12 -26 -18 -28 -81 -47 -157 -47 l-51 0 21 28 c23 29 94 71 122 72 9 0 30 -5 45 -12z m8 -255 c-14 -78 -26 -112 -58 -160 -35 -52 -58 -61 -169 -62 -48 -1 -48 -1 -48 34 0 49 23 79 94 128 58 39 162 95 179 96 4 1 5 -16 2 -36z"/>
<path d="M13487 10495 c-15 -14 -50 -60 -78 -101 -44 -66 -54 -90 -79 -197 -71 -307 -63 -488 27 -588 33 -37 105 -70 120 -56 3 4 -17 29 -45 57 -105 103 -118 264 -45 575 28 120 75 208 148 277 21 20 35 40 31 47 -12 19 -50 12 -79 -14z"/>
<path d="M14125 10429 c-9 -13 -7 -14 52 -53 72 -47 110 -129 125 -266 10 -96 9 -114 -12 -210 -27 -127 -45 -170 -111 -267 -37 -55 -48 -78 -40 -86 16 -16 121 95 154 163 15 31 39 107 53 170 25 108 25 122 15 221 -11 115 -34 188 -77 251 -44 62 -140 109 -159 77z"/>
<path d="M6576 10411 c-12 -19 1 -27 61 -41 64 -15 133 -71 133 -107 0 -12 -29 -47 -71 -86 -70 -65 -82 -91 -49 -107 70 -35 330 -42 330 -10 0 14 -33 21 -120 27 -47 2 -99 9 -117 14 l-32 10 42 37 c74 66 78 73 72 122 -6 47 -45 99 -97 126 -37 19 -143 30 -152 15z"/>
<path d="M7968 10335 c-8 -19 -8 -28 2 -40 16 -20 47 -19 58 1 7 13 25 17 73 18 64 1 64 1 67 -28 3 -25 -4 -36 -39 -67 -43 -37 -43 -38 -25 -58 11 -12 31 -21 45 -21 42 -1 162 -37 179 -54 14 -14 12 -17 -22 -31 -21 -9 -56 -20 -79 -25 -122 -26 -151 -40 -130 -61 20 -20 155 4 246 45 63 27 72 50 41 95 -18 25 -92 61 -127 61 -12 1 -32 6 -45 13 -23 13 -23 13 -2 32 25 22 27 90 4 123 -14 20 -23 22 -125 22 -107 0 -110 -1 -121 -25z"/>
<path d="M6418 10243 c-68 -83 -139 -215 -182 -344 l-23 -68 -26 68 c-15 38 -27 72 -27 77 0 10 -33 96 -62 162 -15 35 -23 43 -41 40 -18 -2 -23 -10 -25 -45 -2 -30 2 -47 15 -60 20 -20 38 -61 78 -175 15 -43 36 -89 46 -102 10 -13 19 -29 19 -35 0 -13 44 -25 64 -18 7 3 16 28 20 59 15 109 116 321 199 415 10 12 16 26 12 32 -10 17 -50 13 -67 -6z"/>
<path d="M13870 10055 c-71 -63 -142 -145 -137 -158 9 -30 45 -17 90 32 25 28 47 51 50 51 3 0 -1 -26 -9 -57 -28 -118 -14 -163 52 -163 28 0 34 4 34 21 0 12 -8 23 -20 26 -30 8 -24 70 22 206 33 99 1 116 -82 42z"/>
<path d="M11504 10005 c-14 -35 31 -54 176 -75 41 -7 94 -16 117 -21 23 -5 61 -9 84 -9 50 0 45 -8 -18 -32 -41 -15 -48 -16 -57 -3 -17 23 -751 18 -751 -5 0 -13 50 -16 368 -20 l367 -5 -34 -27 c-41 -33 -56 -82 -33 -105 21 -21 47 -9 47 22 0 27 53 72 112 95 47 17 112 52 120 63 20 30 -38 67 -106 67 -24 0 -66 4 -93 10 -26 5 -82 14 -123 21 -41 6 -92 17 -113 25 -47 18 -56 18 -63 -1z"/>
<path d="M7055 9909 c-16 -25 19 -29 216 -27 173 3 204 5 204 18 0 13 -31 15 -207 18 -143 2 -209 -1 -213 -9z"/>
<path d="M7193 9813 c-12 -2 -27 -11 -34 -19 -25 -30 3 -35 147 -24 76 5 150 10 164 10 14 0 32 5 40 10 32 21 -16 30 -155 28 -77 0 -150 -3 -162 -5z"/>
<path d="M8670 9580 c0 -19 7 -20 128 -20 96 0 133 -4 148 -14 31 -23 10 -42 -126 -117 -128 -70 -157 -97 -139 -131 26 -48 530 -1 547 50 5 15 -55 16 -124 3 -27 -5 -117 -13 -199 -16 l-150 -7 100 57 c142 81 165 100 165 136 0 18 -9 39 -25 54 -23 24 -28 25 -175 25 -143 0 -150 -1 -150 -20z"/>
<path d="M8290 8269 c-19 -6 -50 -15 -69 -21 -25 -8 -39 -7 -58 3 -30 16 -47 7 -77 -42 -11 -20 -29 -48 -39 -62 -10 -14 -17 -34 -15 -44 3 -15 13 -18 66 -16 56 3 63 0 78 -22 23 -35 11 -84 -29 -122 -38 -37 -68 -53 -96 -53 -17 0 -21 6 -21 30 0 35 -12 38 -40 10 -20 -20 -25 -45 -14 -74 10 -27 106 -21 159 10 90 52 129 126 106 197 -15 44 -42 69 -86 76 -33 6 -34 7 -22 31 11 21 21 26 74 31 33 3 80 11 104 17 24 6 88 14 142 18 84 5 98 8 95 22 -3 15 -20 17 -113 19 -61 1 -126 -3 -145 -8z"/>
<path d="M4798 8108 c-24 -29 -68 -98 -98 -153 -97 -183 -103 -192 -160 -199 -71 -10 -120 -32 -120 -56 0 -23 21 -26 68 -9 17 6 36 9 42 7 10 -3 -64 -123 -103 -165 -11 -13 -29 -23 -40 -23 -15 0 -18 4 -12 23 15 47 11 62 -15 62 -29 0 -50 -34 -50 -80 0 -42 16 -55 71 -55 62 0 85 19 169 146 79 117 91 124 214 124 l69 0 -8 -87 c-4 -49 -8 -113 -9 -143 -1 -52 0 -55 24 -55 23 0 26 5 32 60 4 33 10 99 14 148 l7 87 36 0 c20 0 43 5 51 10 13 9 13 11 0 20 -8 5 -29 10 -46 10 l-31 0 4 163 c6 181 -1 217 -41 217 -16 0 -37 -16 -68 -52z m47 -255 l-7 -73 -73 0 c-40 0 -81 -3 -91 -7 -16 -6 -16 -4 2 23 11 16 44 74 74 129 29 55 62 111 74 123 l21 24 3 -74 c2 -40 0 -106 -3 -145z"/>
<path d="M9636 8090 c-36 -32 -72 -108 -124 -261 -34 -103 -39 -111 -61 -104 -20 6 -46 -19 -36 -35 3 -5 19 -10 34 -10 29 0 29 0 24 -64 -5 -59 -4 -66 20 -90 23 -23 34 -26 101 -26 66 0 82 4 143 36 78 40 88 48 79 63 -4 7 -36 0 -92 -20 -62 -22 -99 -29 -137 -27 l-52 3 1 72 2 72 81 87 c86 92 112 143 126 242 6 44 4 57 -11 73 -25 27 -58 24 -98 -11z m49 -72 c-4 -24 -13 -58 -21 -76 -17 -41 -77 -119 -81 -105 -9 27 82 223 104 223 2 0 2 -19 -2 -42z"/>
<path d="M6315 8088 c-14 -41 -46 -223 -43 -251 2 -24 8 -33 26 -35 14 -2 24 3 28 15 20 63 45 105 93 156 30 31 58 57 64 57 8 0 6 -43 -5 -105 -2 -15 3 -21 22 -23 18 -2 41 10 77 40 145 119 160 127 148 81 -4 -16 -9 -67 -12 -115 -4 -70 -2 -88 9 -88 32 1 43 20 50 92 4 40 10 88 13 105 4 18 4 44 1 58 -6 22 -12 25 -49 25 -42 0 -57 -8 -142 -69 l-40 -30 -5 37 c-5 36 -6 37 -52 40 -44 3 -51 0 -94 -40 l-46 -42 3 49 c4 46 2 50 -19 53 -12 2 -24 -3 -27 -10z"/>
<path d="M8965 7826 c-48 -21 -66 -49 -72 -110 -8 -74 10 -96 78 -96 26 0 59 4 73 10 25 9 26 8 26 -29 0 -31 -5 -40 -27 -50 -74 -34 -131 -82 -151 -129 -25 -58 -20 -89 24 -158 36 -57 48 -64 103 -64 83 0 111 60 111 235 l0 95 68 34 c37 18 78 43 92 54 42 35 2 36 -81 4 l-74 -30 -3 45 c-2 25 2 59 7 76 18 51 13 74 -22 101 -38 30 -101 34 -152 12z m108 -48 c15 -12 15 -15 0 -46 -18 -36 -58 -62 -98 -62 -21 0 -25 4 -25 31 0 17 5 39 11 50 18 35 81 50 112 27z m-5 -387 c-5 -119 -15 -144 -56 -139 -19 2 -32 17 -54 59 -30 57 -30 57 -11 94 17 32 91 92 117 94 5 1 7 -48 4 -108z"/>
<path d="M10575 7809 c-16 -24 18 -29 181 -27 142 3 169 5 169 18 0 13 -27 15 -172 18 -118 2 -174 -1 -178 -9z"/>
<path d="M6829 7795 c-3 -2 -52 -9 -109 -15 -58 -6 -145 -15 -195 -21 -49 -6 -130 -13 -180 -17 -70 -5 -90 -10 -90 -22 0 -29 251 -19 550 20 39 5 95 12 125 15 117 12 102 45 -21 45 -42 0 -78 -2 -80 -5z"/>
<path d="M5315 7749 c-16 -25 18 -29 196 -27 156 3 184 5 184 18 0 13 -29 15 -187 18 -128 2 -189 -1 -193 -9z"/>
<path d="M7334 7727 c-3 -9 -4 -30 -2 -49 3 -31 5 -33 45 -36 38 -3 43 0 48 21 4 14 5 36 3 48 -2 20 -10 24 -46 27 -30 2 -44 -1 -48 -11z"/>
<path d="M7955 7730 c-16 -27 16 -30 273 -30 260 0 318 6 282 30 -20 13 -547 13 -555 0z"/>
<path d="M10620 7615 c-11 -13 -11 -19 4 -33 14 -15 40 -17 181 -17 117 0 168 4 176 12 7 7 11 15 8 17 -2 2 -76 8 -164 14 -88 5 -167 12 -176 16 -9 4 -21 0 -29 -9z"/>
<path d="M5475 7610 c-22 -5 -65 -12 -96 -15 -64 -7 -101 -27 -83 -45 12 -12 130 -3 269 20 99 17 109 20 97 32 -14 14 -136 19 -187 8z"/>
<path d="M6415 7550 c-15 -24 12 -30 126 -30 126 0 159 -8 159 -40 0 -29 -106 -116 -197 -162 -56 -28 -83 -47 -83 -59 0 -23 62 -28 154 -12 39 7 96 17 127 22 71 12 146 48 131 63 -8 8 -40 6 -109 -6 -55 -9 -102 -16 -107 -16 -4 0 22 25 59 56 82 70 98 98 80 141 -7 17 -22 36 -34 42 -25 14 -298 15 -306 1z"/>
<path d="M8075 7530 c-13 -20 21 -42 71 -47 27 -2 55 -7 63 -9 24 -8 -46 -71 -116 -105 -61 -30 -90 -59 -78 -79 9 -15 212 -12 271 4 128 34 101 55 -45 36 -54 -7 -104 -10 -112 -7 -9 3 -6 6 7 6 12 1 52 29 89 64 75 69 80 94 27 121 -38 19 -168 30 -177 16z"/>
<path d="M8573 5887 c-45 -17 -110 -101 -129 -166 -20 -68 -34 -154 -34 -206 0 -37 -4 -43 -51 -73 -28 -18 -49 -38 -46 -45 6 -20 43 -19 76 1 32 19 32 19 62 -9 40 -37 89 -52 159 -47 41 3 66 11 88 29 55 43 36 63 -35 34 -19 -8 -53 -15 -76 -15 -45 0 -107 33 -107 57 0 9 32 49 71 90 84 89 129 174 129 246 0 47 -22 107 -39 107 -5 0 -15 2 -23 4 -7 3 -27 0 -45 -7z m48 -74 c3 -81 -35 -163 -107 -234 l-46 -44 7 50 c12 90 37 159 73 208 41 54 71 62 73 20z"/>
<path d="M6826 5680 c-38 -10 -90 -21 -115 -25 -25 -4 -62 -14 -81 -23 -64 -31 -43 -75 22 -48 18 8 60 19 93 26 33 7 78 16 100 21 22 5 67 14 99 20 64 11 96 24 96 39 0 16 -140 9 -214 -10z"/>
<path d="M7898 5550 c-32 -26 -38 -38 -44 -87 -8 -67 14 -120 54 -130 25 -6 25 -6 -9 -24 -34 -18 -105 -25 -125 -11 -24 16 -44 73 -44 129 0 76 -16 107 -57 111 -33 3 -69 -16 -129 -71 l-31 -28 -6 36 c-8 50 -23 65 -66 65 -39 0 -66 -15 -118 -63 -32 -30 -33 -30 -33 -9 0 13 -7 39 -15 58 -11 28 -19 35 -37 32 -18 -2 -22 -8 -19 -28 4 -27 3 -166 -1 -240 -3 -42 -1 -45 22 -45 21 0 26 6 31 36 8 52 51 121 105 168 67 59 73 56 76 -41 3 -75 5 -83 24 -86 15 -2 28 9 49 39 28 44 66 80 116 112 l29 19 0 -66 c0 -169 115 -234 272 -153 66 34 108 37 108 9 0 -9 -21 -30 -48 -46 -26 -16 -77 -61 -114 -99 l-67 -70 -213 -9 c-117 -5 -357 -13 -533 -18 -176 -5 -354 -14 -395 -20 -178 -23 -201 -34 -134 -66 31 -15 39 -16 58 -3 31 20 128 28 461 38 368 11 612 20 686 25 l56 4 -7 -35 c-15 -65 15 -182 54 -209 30 -21 98 -18 128 6 27 21 66 121 77 199 l6 46 175 7 c96 3 243 11 325 17 305 22 349 30 330 61 -8 13 -42 12 -315 -10 -69 -5 -211 -13 -317 -16 -185 -7 -192 -6 -188 12 2 10 9 48 16 84 6 36 16 73 21 82 11 23 -15 74 -42 83 -25 8 -25 17 -1 39 28 25 44 108 29 142 -16 35 -57 54 -115 54 -39 0 -56 -6 -85 -30z m142 -40 c14 -25 3 -67 -28 -107 -28 -38 -60 -43 -87 -13 -22 24 -16 91 11 121 24 27 89 26 104 -1z m-18 -377 l-4 -53 -56 0 -57 1 59 55 c32 30 59 54 60 52 1 -2 0 -27 -2 -55z m-23 -150 c-9 -48 -38 -137 -52 -160 -15 -24 -57 -15 -68 15 -34 85 -32 167 5 182 12 5 44 9 72 9 l51 1 -8 -47z"/>
<path d="M6537 5554 c-4 -4 -7 -17 -7 -29 0 -13 -9 -44 -21 -69 -33 -77 -11 -97 57 -51 28 19 50 25 90 25 50 0 54 -2 54 -23 0 -35 -26 -65 -80 -92 -65 -33 -98 -33 -106 1 -4 16 -12 24 -23 22 -12 -2 -17 -16 -19 -52 l-3 -49 73 5 c57 4 84 11 123 35 84 50 118 126 79 181 -13 19 -24 22 -89 22 l-74 0 -3 38 c-2 28 -8 38 -23 40 -12 2 -24 0 -28 -4z"/>
<path d="M5605 5347 c-22 -6 -104 -11 -183 -11 -136 -1 -143 -2 -140 -20 4 -30 58 -39 188 -33 175 9 307 47 244 71 -22 8 -62 6 -109 -7z"/>
<path d="M9317 5287 c-13 -35 20 -42 227 -45 128 -2 206 1 216 8 28 19 -8 28 -149 34 -75 4 -170 9 -212 12 -63 5 -77 3 -82 -9z"/>
<path d="M5537 5114 c-3 -3 -59 -9 -124 -13 -95 -5 -118 -9 -118 -21 0 -23 269 -21 348 3 31 10 57 22 57 27 0 11 -153 14 -163 4z"/>
<path d="M9418 5041 c-89 -5 -122 -11 -134 -23 -30 -30 -8 -37 104 -32 100 5 287 30 304 40 5 3 8 9 8 15 0 10 -91 10 -282 0z"/>
<path d="M7317 4794 c-4 -4 -7 -23 -7 -43 0 -20 -7 -72 -16 -116 -25 -122 -24 -129 11 -133 20 -2 42 6 65 22 19 14 48 32 63 41 28 16 28 16 21 -12 -3 -15 -12 -48 -19 -73 -24 -83 -39 -190 -28 -201 20 -20 41 3 57 64 34 133 56 232 56 246 0 9 15 23 32 31 39 18 47 39 18 47 -15 4 -18 8 -9 13 17 11 3 40 -19 40 -21 0 -62 -39 -62 -61 0 -8 -30 -28 -66 -45 l-66 -31 8 46 c4 25 8 73 8 106 1 53 -1 60 -19 63 -12 2 -24 0 -28 -4z"/>
<path d="M6787 3714 c-3 -4 -55 -10 -114 -15 -227 -17 -308 -38 -276 -70 9 -9 34 -9 100 1 48 6 133 16 188 21 195 17 296 46 214 63 -41 8 -104 8 -112 0z"/>
<path d="M7474 3686 c-35 -16 -74 -64 -74 -93 0 -11 -9 -28 -21 -39 -27 -24 -56 -84 -64 -134 -6 -35 -3 -43 23 -70 38 -37 72 -39 144 -6 57 25 143 108 173 167 23 42 36 106 28 137 -3 12 -18 29 -34 37 -35 19 -134 19 -175 1z m140 -42 c19 -7 13 -59 -12 -108 -45 -89 -181 -186 -218 -155 -23 19 -1 94 40 137 43 46 66 81 60 96 -10 27 83 48 130 30z"/>
<path d="M8633 3643 c-22 -21 -70 -63 -107 -93 -70 -58 -85 -90 -40 -90 14 0 32 7 41 15 24 25 25 13 3 -56 -27 -83 -24 -104 15 -104 24 0 30 4 28 20 -5 49 79 240 128 291 59 61 -2 77 -68 17z"/>
<path d="M8043 3633 c-38 -61 -110 -137 -141 -150 -42 -17 -37 -37 10 -41 l35 -3 -9 -44 c-5 -24 -8 -61 -6 -82 3 -33 7 -38 31 -41 26 -3 27 -2 27 46 0 64 31 161 76 236 43 72 47 100 17 104 -15 2 -27 -5 -40 -25z"/>
<path d="M9758 3592 c-37 -37 -92 -88 -122 -112 -68 -55 -74 -89 -16 -80 14 2 58 37 129 103 25 24 32 27 26 12 -40 -102 -66 -191 -63 -218 2 -27 7 -32 28 -32 19 0 26 6 28 25 1 14 25 95 54 181 28 86 48 164 45 173 -12 30 -42 16 -109 -52z"/>
<path d="M8842 3599 c-42 -21 -51 -31 -56 -61 -1 -7 -10 -25 -20 -40 -25 -38 -39 -104 -26 -127 5 -11 23 -31 41 -45 26 -22 40 -26 99 -26 63 0 72 3 129 41 105 70 143 184 82 243 -27 26 -38 29 -118 33 -77 4 -94 1 -131 -18z m202 -50 c21 -16 25 -26 20 -47 -12 -50 -33 -80 -83 -116 -40 -30 -57 -36 -97 -36 -83 0 -114 57 -67 125 7 11 13 28 13 37 0 53 159 81 214 37z"/>
<path d="M6335 3563 c-86 -114 -106 -144 -100 -153 10 -16 40 -11 86 14 30 17 63 25 103 27 52 2 61 0 74 -20 24 -36 -3 -80 -70 -113 -63 -32 -93 -35 -106 -11 -12 21 -42 10 -42 -16 0 -43 10 -51 65 -51 78 0 172 52 203 111 26 50 22 90 -11 127 -18 19 -30 22 -99 22 l-78 0 26 40 c22 33 24 43 14 55 -19 23 -25 19 -65 -32z"/>
<path d="M9266 3461 c-28 -31 -17 -55 28 -59 50 -4 60 7 40 46 -18 36 -43 41 -68 13z"/>
<path d="M6915 3450 c-12 -19 10 -32 51 -28 27 2 39 8 39 18 0 19 -79 27 -90 10z"/>
<path d="M8214 3426 c-12 -31 0 -61 25 -61 31 0 50 28 35 53 -14 22 -52 28 -60 8z"/>
<path d="M7616 3308 c-3 -7 -7 -30 -11 -50 -4 -28 -18 -48 -56 -82 -54 -48 -60 -76 -16 -76 26 0 96 67 121 118 24 46 18 96 -12 100 -12 2 -24 -3 -26 -10z"/>
<path d="M10629 3235 c-3 -2 -62 -6 -132 -8 -125 -3 -164 -14 -141 -37 17 -17 156 -23 250 -11 49 6 108 14 132 17 33 4 42 9 42 25 0 17 -7 19 -73 19 -41 0 -76 -2 -78 -5z"/>
<path d="M5273 3220 c-31 -13 -29 -28 5 -41 31 -12 362 -2 384 12 22 15 -10 29 -67 29 -27 0 -106 2 -175 5 -72 3 -135 1 -147 -5z"/>
<path d="M9225 3129 c-704 -57 -1281 -78 -2292 -85 -713 -5 -713 -5 -713 -26 0 -21 0 -21 928 -15 510 3 1010 10 1112 16 102 6 307 18 455 28 438 27 514 31 858 42 240 8 333 8 348 0 25 -13 43 0 37 27 -3 18 -20 19 -318 20 -173 1 -360 -3 -415 -7z"/>
<path d="M5697 3114 c-3 -4 -82 -9 -174 -13 -140 -5 -168 -9 -168 -21 0 -25 291 -27 370 -3 73 23 84 43 23 43 -25 0 -47 -3 -51 -6z"/>
<path d="M10866 3033 c-3 -4 -109 -6 -234 -5 -191 2 -231 0 -247 -13 -20 -15 -20 -15 0 -31 17 -14 46 -15 222 -11 174 5 208 8 248 26 26 11 44 25 40 31 -7 12 -19 13 -29 3z"/>
<path d="M8146 2778 c-19 -32 -78 -282 -70 -302 8 -20 71 -22 99 -3 20 13 122 57 134 57 3 0 5 -57 3 -126 -3 -137 3 -157 47 -152 18 2 24 8 21 18 -3 8 -5 72 -5 142 0 119 1 128 23 148 23 22 29 40 12 40 -18 0 -11 20 16 47 29 29 25 53 -9 53 -28 0 -51 -23 -72 -72 -12 -31 -23 -39 -56 -48 -23 -7 -66 -22 -96 -35 -47 -21 -53 -22 -49 -7 3 9 12 49 20 88 8 39 22 91 30 114 8 24 13 47 10 52 -10 16 -44 8 -58 -14z"/>
<path d="M8600 1153 c-49 -8 -156 -46 -197 -69 -63 -36 -82 -84 -45 -116 23 -21 116 -48 164 -48 21 0 38 -3 38 -8 0 -4 -11 -24 -25 -44 l-25 -38 -53 21 c-30 12 -86 23 -132 26 -72 5 -82 3 -99 -15 -23 -27 -15 -95 17 -144 20 -29 29 -33 72 -36 65 -4 114 11 168 52 42 32 47 33 88 24 63 -14 174 -21 204 -14 31 8 111 80 129 115 28 55 28 99 3 155 -32 69 -74 100 -171 125 -80 21 -89 22 -136 14z m145 -70 c60 -19 81 -36 107 -87 l20 -39 -108 7 c-60 4 -110 9 -112 11 -3 2 1 18 8 35 9 22 10 34 3 41 -21 21 -48 4 -63 -39 -14 -40 -16 -42 -55 -42 -51 0 -138 23 -142 37 -11 31 192 107 257 97 19 -3 58 -13 85 -21z m115 -179 c0 -9 -22 -39 -49 -65 -45 -46 -51 -49 -99 -49 -55 0 -142 19 -142 31 0 5 5 11 10 14 6 4 19 24 30 46 l20 39 115 0 c100 0 115 -2 115 -16z m-430 -99 c16 -8 30 -17 30 -20 0 -14 -92 -55 -124 -55 -33 0 -39 4 -52 35 -26 64 -22 69 51 62 35 -3 78 -13 95 -22z"/>
<path d="M7336 1061 c-63 -22 -106 -69 -106 -116 0 -43 29 -75 69 -75 17 0 33 -4 36 -10 3 -5 14 -10 24 -10 22 0 51 -31 51 -55 0 -10 -16 -33 -36 -51 -30 -29 -43 -34 -85 -34 -43 0 -49 3 -55 24 -7 29 -31 41 -51 24 -19 -15 -9 -57 19 -80 15 -13 38 -18 88 -18 59 0 72 4 109 31 42 30 71 79 71 118 0 46 -96 111 -164 111 -24 0 -20 43 7 67 32 29 88 41 215 48 63 3 125 10 139 16 53 20 9 29 -135 28 -112 0 -159 -5 -196 -18z"/>
<path d="M9254 1026 c-3 -8 -16 -52 -28 -98 l-23 -83 -61 -3 c-42 -2 -62 1 -62 9 0 6 16 38 36 70 36 60 37 79 5 79 -24 0 -43 -23 -81 -95 -17 -33 -40 -63 -51 -67 -17 -6 -20 -15 -17 -50 4 -56 35 -64 68 -19 20 29 25 31 87 31 63 0 65 -1 59 -23 -3 -13 -8 -49 -12 -80 -6 -52 -5 -57 13 -57 24 0 38 27 54 102 11 50 15 57 40 60 27 4 28 3 31 -46 3 -49 4 -51 33 -51 29 0 30 0 30 60 1 60 1 60 69 127 80 79 84 101 18 106 -25 2 -50 -2 -59 -10 -22 -18 -63 -85 -63 -103 0 -8 -1 -15 -3 -15 -1 0 -17 -4 -35 -9 -33 -10 -33 -10 -27 22 4 18 14 53 22 79 8 26 13 55 9 63 -7 19 -45 20 -52 1z"/>
<path d="M6317 980 c-14 -12 -50 -32 -79 -45 -60 -27 -87 -48 -112 -87 -37 -56 12 -65 64 -12 33 34 98 70 108 59 3 -3 0 -17 -7 -32 -7 -16 -16 -64 -19 -107 -4 -68 -3 -81 12 -92 33 -24 46 -7 46 62 0 61 23 150 56 213 8 14 14 34 14 44 0 24 -50 23 -83 -3z"/>
<path d="M6773 973 c-27 -5 -47 -28 -38 -43 5 -8 28 -10 74 -5 62 6 68 5 94 -19 26 -24 27 -27 13 -54 -8 -15 -40 -45 -71 -67 -87 -61 -117 -92 -113 -117 3 -22 7 -23 113 -26 82 -2 115 1 129 11 32 23 10 39 -43 33 -25 -3 -61 -3 -79 2 l-32 7 65 48 c92 68 121 135 82 185 -32 40 -117 60 -194 45z"/>
<path d="M5395 870 c-16 -26 14 -30 203 -30 193 0 246 8 212 30 -20 13 -407 13 -415 0z"/>
<path d="M5635 779 c-200 -16 -240 -23 -240 -39 0 -20 72 -24 228 -11 122 9 181 25 174 45 -5 14 -29 15 -162 5z"/>
<path d="M6513 708 c-28 -36 -54 -98 -51 -119 3 -26 48 -42 48 -17 0 7 14 39 30 71 17 31 28 62 25 67 -9 14 -41 12 -52 -2z"/>
</g>
<g id="logo" transform="translate(2062.499791, 2737.2545551987687) scale(0.8161748020508809)"><g transform="translate(-57.706759,297.537395) scale(0.100000,-0.100000)" fill="#4444bb" stroke="none">
<path d="M750 2973 c-57 -10 -88 -25 -119 -57 -40 -41 -55 -100 -46 -179 6 -45 12 -61 32 -77 32 -25 35 -25 64 -1 22 17 24 26 21 89 -4 105 24 120 164 87 33 -7 119 -19 190 -25 88 -8 134 -16 144 -26 32 -32 8 -420 -28 -456 -18 -18 -126 -28 -289 -28 -185 0 -206 -4 -250 -52 -55 -58 -58 -82 -55 -363 1 -145 7 -274 13 -293 11 -34 51 -62 89 -62 12 0 35 14 52 31 l31 30 -6 238 c-3 130 -3 249 0 264 l5 27 112 0 c234 1 363 26 423 82 58 54 98 260 91 463 -4 122 -7 138 -34 191 -40 81 -79 100 -217 108 -174 10 -361 14 -387 9z" fill="#4444bb"/>
<path d="M3660 2971 c-42 -9 -83 -34 -103 -65 -39 -59 -50 -127 -54 -343 -5 -206 -5 -212 18 -252 28 -50 78 -86 143 -102 48 -12 257 -8 370 7 l49 7 -7 -104 c-4 -57 -11 -189 -16 -294 -9 -177 -9 -192 8 -214 35 -47 100 -46 136 2 22 29 27 86 42 452 7 191 0 235 -44 283 -45 48 -92 56 -241 38 -146 -18 -229 -20 -265 -6 l-26 10 0 162 c0 156 8 230 27 249 5 5 99 6 210 2 l201 -6 5 -50 c3 -39 11 -56 31 -74 34 -29 48 -29 80 0 24 20 26 30 28 113 4 147 -23 169 -218 179 -242 11 -340 13 -374 6z" fill="#4444bb"/>
<path d="M1565 2945 c-14 -13 -25 -32 -25 -42 0 -10 -1 -297 -3 -638 -2 -677 -3 -662 55 -694 33 -19 73 -7 101 31 18 24 20 51 29 300 5 150 10 278 12 283 2 6 37 8 97 3 52 -3 135 -7 186 -7 154 -2 161 -10 143 -176 -21 -189 -27 -310 -18 -343 12 -45 45 -72 86 -72 71 0 102 46 102 151 0 33 7 118 16 187 24 190 9 280 -58 349 -50 52 -112 67 -263 65 -71 -1 -164 -6 -205 -11 -41 -4 -78 -7 -81 -5 -4 2 -10 108 -13 236 -9 286 -17 352 -47 384 -31 33 -82 32 -114 -1z" fill="#4444bb"/>
<path d="M2542 2944 c-55 -38 -64 -109 -53 -419 6 -186 9 -215 28 -250 50 -95 116 -125 302 -135 75 -4 171 -5 215 -1 l78 7 -4 -178 c-2 -97 -7 -181 -11 -184 -4 -4 -42 1 -85 11 -104 26 -285 27 -363 3 -106 -33 -149 -107 -99 -170 26 -34 68 -41 132 -21 74 23 202 20 308 -7 182 -47 274 5 301 168 12 77 27 831 19 994 -7 152 -20 181 -86 186 -88 7 -103 -51 -104 -401 l0 -219 -201 4 c-197 3 -201 3 -220 27 -18 21 -19 42 -19 283 l0 260 -29 29 c-33 33 -74 38 -109 13z" fill="#4444bb"/>
<path d="M2374 1391 c-55 -34 -79 -78 -79 -147 0 -51 4 -66 27 -96 35 -45 102 -73 153 -64 78 15 146 111 131 188 -20 108 -145 172 -232 119z" fill="#4444bb"/>
<path d="M1853 999 c-39 -11 -66 -56 -61 -101 6 -59 69 -64 76 -6 4 30 34 38 145 38 l67 0 0 -110 c0 -135 -1 -136 -132 -126 -85 6 -89 6 -113 -18 -24 -25 -25 -28 -25 -179 0 -162 4 -177 47 -177 35 0 43 29 43 159 l0 121 73 0 c85 0 141 14 168 41 17 17 19 34 19 169 0 147 -1 152 -25 175 -23 24 -30 25 -137 24 -62 0 -128 -5 -145 -10z" fill="#4444bb"/>
<path d="M2985 1000 c-91 -16 -93 -18 -104 -58 -15 -51 -14 -537 0 -564 19 -36 69 -48 204 -48 121 0 127 1 151 25 l24 24 -2 292 -3 292 -26 19 c-31 23 -161 33 -244 18z m169 -86 c14 -5 16 -37 16 -250 l0 -245 -102 3 -103 3 0 240 0 240 40 6 c57 9 131 10 149 3z" fill="#4444bb"/>
<path d="M2351 971 c-24 -24 -29 -73 -37 -372 -6 -232 -6 -237 15 -258 23 -23 29 -25 51 -11 12 7 16 40 20 150 l5 141 35 -23 c19 -13 59 -55 88 -93 30 -39 78 -96 108 -128 47 -51 56 -57 74 -47 29 16 25 42 -15 92 -19 24 -62 78 -95 121 -61 77 -61 77 -33 77 15 0 46 9 69 19 56 26 67 57 62 179 -6 156 -27 172 -220 172 -93 0 -111 -3 -127 -19z m257 -74 c16 -13 17 -168 0 -185 -7 -7 -41 -12 -84 -12 -40 0 -84 -4 -98 -10 l-26 -10 0 120 0 119 98 -6 c53 -3 103 -10 110 -16z" fill="#4444bb"/>
</g>
</g></svg>
