<svg xmlns="http://www.w3.org/2000/svg" version="1.0" width="2340.000000pt" height="1349.944635pt" viewBox="0 0 2340.000000 1349.944635" preserveAspectRatio="xMidYMid meet">
<metadata>
Created by potrace 1.16, written by Peter Selinger 2001-2019
</metadata>
<g transform="translate(-25.500000,1435.932424) scale(0.100000,-0.100000)" fill="#000000" stroke="none">
<path d="M18633 14348 c-6 -7 -13 -41 -16 -74 -4 -34 -11 -81 -16 -105 -6 -24 -16 -71 -22 -104 -7 -33 -19 -75 -26 -93 -8 -19 -11 -43 -7 -54 6 -19 12 -20 87 -14 45 3 143 8 217 12 128 6 136 8 153 31 12 16 17 33 13 49 -9 34 -43 31 -64 -6 -17 -29 -17 -29 -152 -33 -74 -3 -150 -8 -167 -12 -31 -7 -47 5 -25 19 5 3 15 38 22 78 7 40 21 110 31 156 22 96 24 133 7 150 -15 15 -23 15 -35 0z"/>
<path d="M21747 13613 c-4 -203 -7 -781 -7 -1286 l0 -918 -27 -24 -28 -24 -1153 -1 -1154 0 -506 358 c-279 197 -575 406 -659 463 l-152 104 -1 236 c0 423 -11 719 -27 719 -17 0 -16 10 2 34 17 23 16 24 42 -37 28 -67 88 -137 117 -137 38 0 37 10 -7 61 -23 27 -56 81 -74 121 -28 66 -35 73 -60 73 -24 0 -38 -15 -110 -122 -82 -119 -93 -153 -54 -153 16 0 61 49 61 67 0 4 14 26 32 48 l30 40 -6 -235 c-3 -129 -6 -344 -6 -477 l0 -243 -954 0 c-626 0 -957 3 -961 10 -3 6 -26 10 -51 10 -39 0 -46 -3 -55 -26 -5 -15 -24 -45 -41 -66 -17 -22 -32 -50 -33 -62 -2 -12 -13 -42 -25 -65 -11 -23 -20 -55 -18 -69 3 -24 8 -27 46 -30 33 -3 44 1 49 15 4 10 19 38 35 62 l28 45 0 -290 c0 -164 -5 -325 -11 -371 l-12 -83 -331 -2 c-286 -3 -331 -5 -331 -18 0 -13 45 -15 332 -18 321 -2 332 -3 338 -22 9 -28 61 -28 70 0 6 20 15 20 965 20 l958 0 4 -897 c2 -494 3 -900 2 -902 -2 -2 -24 11 -49 28 -59 40 -88 41 -83 5 2 -21 17 -34 77 -65 89 -46 108 -44 171 19 25 24 55 51 68 59 43 29 16 67 -30 42 -13 -7 -41 -29 -63 -50 -21 -21 -40 -37 -40 -36 -1 1 1 400 4 887 l6 886 670 -309 c1511 -695 2367 -1088 2670 -1224 176 -79 323 -147 326 -151 4 -4 9 -310 12 -679 l6 -673 -115 0 c-106 0 -114 1 -114 19 0 13 25 36 73 69 85 58 97 88 34 86 -28 -1 -55 -13 -97 -43 -33 -22 -62 -41 -65 -41 -4 0 -5 37 -4 83 3 81 3 82 -21 82 -31 0 -38 -24 -39 -132 -1 -45 -5 -93 -11 -107 -12 -33 -3 -56 21 -56 12 0 24 11 30 28 10 26 11 26 21 7 18 -33 27 -35 161 -35 l127 0 0 -40 c0 -33 3 -40 20 -40 18 0 20 7 20 80 0 76 1 80 22 80 42 0 187 50 196 68 15 28 -5 75 -39 95 -21 12 -53 17 -102 17 l-72 0 3 553 c2 311 8 553 13 555 5 2 9 31 9 63 0 33 5 69 11 80 5 11 23 70 40 132 16 62 36 137 45 167 9 30 15 60 14 65 0 6 -3 38 -6 73 -7 72 -18 82 -67 59 l-32 -16 -7 342 c-3 188 -10 438 -13 554 l-7 213 928 2 c818 3 929 5 929 18 0 13 -111 15 -927 18 l-928 2 0 943 c0 518 -3 1107 -7 1310 -6 334 -8 367 -23 367 -15 0 -17 -33 -23 -367z m-3747 -1804 c0 -236 -3 -428 -7 -426 -16 10 -1271 585 -1558 714 -165 74 -302 137 -304 139 -2 2 417 4 932 4 l937 0 0 -431z m235 304 c83 -60 348 -250 590 -423 242 -172 444 -316 450 -321 5 -5 -250 -9 -603 -9 l-612 0 0 441 c0 352 3 439 13 432 6 -6 80 -60 162 -120z m-1782 -72 c128 -60 498 -231 822 -381 325 -150 601 -278 615 -286 21 -11 -115 -13 -891 -14 -725 0 -918 3 -920 13 -2 6 -3 169 -1 361 3 333 4 349 20 325 63 -94 104 -121 117 -79 3 11 12 20 20 20 22 0 26 31 7 58 -19 27 -37 92 -26 92 3 0 110 -49 237 -109z m3787 -1357 c492 -350 995 -706 1117 -792 123 -86 221 -157 219 -159 -1 -2 -70 29 -152 68 -82 39 -381 178 -664 309 -392 181 -2228 1026 -2575 1186 l-50 23 605 0 605 1 895 -636z m1445 544 c3 -51 8 -301 11 -555 4 -451 4 -461 -15 -456 -10 2 -28 -3 -40 -13 -17 -15 -21 -30 -21 -76 0 -31 5 -60 10 -63 6 -3 10 -19 10 -36 0 -16 4 -37 9 -47 8 -16 15 -40 42 -144 6 -24 15 -57 20 -74 5 -17 9 -41 9 -53 0 -23 0 -23 -37 5 -68 52 -801 575 -1518 1084 -390 277 -714 507 -719 512 -6 4 495 8 1111 8 l1122 0 6 -92z m250 -2800 c43 -19 26 -41 -46 -62 -37 -10 -74 -16 -83 -13 -19 7 -22 57 -4 75 15 15 99 16 133 0z"/>
<path d="M981 13788 c-21 -51 -43 -134 -48 -180 -7 -56 -6 -55 -61 -64 l-41 -6 6 38 c3 22 12 49 19 61 19 30 18 68 -2 87 -32 33 -36 28 -55 -84 -19 -116 -18 -114 -93 -129 -55 -11 -66 -17 -66 -33 0 -18 4 -20 48 -14 26 4 55 9 65 12 20 6 22 -9 6 -71 -10 -40 -15 -46 -65 -66 -51 -21 -66 -40 -44 -54 5 -3 26 1 46 10 50 21 54 19 54 -15 0 -23 4 -30 20 -30 15 0 21 9 26 41 5 31 13 43 31 50 48 18 63 12 63 -25 0 -67 38 -57 47 11 5 36 9 41 41 49 49 12 54 34 8 34 l-36 0 7 48 c7 56 6 54 46 68 40 14 43 40 5 37 -25 -2 -28 2 -28 28 0 16 9 62 21 102 34 118 34 117 10 117 -13 0 -25 -9 -30 -22z m-72 -320 c-4 -24 -8 -48 -9 -55 0 -12 -12 -17 -65 -28 l-31 -6 10 55 c9 52 12 56 46 64 58 16 58 16 49 -30z"/>
<path d="M21547 13788 c-2 -7 0 -21 5 -31 9 -18 6 -18 -54 -13 -94 10 -721 28 -968 28 -118 0 -303 -5 -410 -12 -107 -6 -519 -15 -915 -20 -396 -5 -877 -13 -1070 -19 -1137 -35 -1425 -40 -1678 -27 l-178 9 35 21 c40 22 49 56 15 56 -27 0 -162 -48 -217 -77 -24 -13 -45 -23 -47 -23 -2 0 -5 19 -7 43 -3 37 -6 42 -28 42 -24 0 -25 -4 -28 -60 -2 -33 1 -82 7 -110 5 -27 12 -70 16 -95 15 -113 48 -84 42 38 -4 99 -1 101 97 37 55 -36 78 -45 113 -45 53 0 56 16 6 36 -52 22 -133 74 -133 86 0 7 62 8 188 3 386 -16 850 -9 1927 26 171 6 634 14 1030 19 396 4 808 14 915 21 215 15 330 15 840 0 323 -9 455 -18 557 -38 l43 -8 -49 -55 c-27 -30 -47 -58 -44 -62 9 -16 49 -7 70 15 61 62 103 116 103 130 0 10 -31 32 -77 56 -84 44 -99 48 -106 29z"/>
<path d="M1316 13618 c-19 -40 -41 -107 -50 -149 -8 -41 -24 -104 -36 -140 -24 -77 -25 -115 -4 -123 19 -7 50 8 58 30 10 26 7 34 -11 27 -13 -5 -15 -3 -9 13 5 10 19 66 33 124 14 58 38 139 55 180 36 92 38 103 15 108 -13 3 -25 -13 -51 -70z"/>
<path d="M2219 13649 c-11 -8 -10 -13 10 -29 20 -17 38 -20 137 -20 72 0 114 -4 114 -10 0 -9 -47 -109 -56 -118 -1 -2 -36 -7 -76 -10 -55 -5 -73 -11 -73 -22 0 -11 15 -16 63 -18 34 -2 62 -7 62 -13 0 -5 -7 -26 -15 -46 -22 -51 -20 -93 4 -93 15 0 23 14 37 58 31 102 39 112 87 112 46 0 88 17 95 38 3 11 -9 12 -63 7 l-67 -8 26 51 c50 99 38 112 -110 112 -62 0 -123 4 -137 9 -14 6 -29 6 -38 0z"/>
<path d="M1562 13618 c-36 -14 -65 -35 -90 -66 -31 -38 -37 -53 -40 -106 -5 -82 19 -115 91 -123 47 -6 49 -5 98 47 61 63 88 119 89 182 0 38 -4 50 -22 62 -39 25 -71 26 -126 4z m94 -40 c24 -39 -32 -165 -90 -204 -26 -16 -64 -12 -78 10 -16 24 -8 93 15 127 42 63 132 102 153 67z"/>
<path d="M1848 13626 c-59 -16 -74 -29 -89 -73 -8 -25 -8 -38 0 -46 6 -6 11 -28 11 -50 0 -29 7 -46 29 -68 26 -26 37 -29 89 -29 50 0 66 5 100 30 51 37 72 68 79 118 7 50 -8 77 -56 102 -53 27 -107 32 -163 16z m146 -57 c67 -53 -9 -169 -112 -169 -54 0 -72 25 -72 102 0 47 4 59 22 72 34 24 129 21 162 -5z"/>
<path d="M20201 13414 c-18 -23 -52 -153 -81 -314 -6 -36 -14 -67 -16 -69 -3 -3 -37 -8 -76 -13 -71 -7 -107 -26 -93 -48 6 -10 78 -8 143 6 26 5 26 20 1 -141 -17 -108 -42 -175 -67 -175 -9 0 -13 -7 -9 -20 5 -19 -3 -20 -482 -25 -267 -3 -675 -7 -906 -10 -411 -5 -420 -4 -398 14 12 10 43 25 68 32 33 10 45 18 45 33 0 17 -5 18 -49 13 -89 -11 -150 -55 -158 -115 -11 -83 50 -125 172 -120 54 2 70 6 70 18 0 11 -17 17 -65 22 -78 8 -120 22 -120 42 0 13 59 16 433 20 754 9 1497 25 1647 36 80 6 285 15 455 20 171 5 362 14 425 20 63 5 184 13 268 16 173 7 190 2 166 -44 -25 -49 -16 -122 16 -122 22 0 30 19 30 69 0 29 7 44 35 71 19 19 35 41 35 50 0 20 -68 60 -101 60 -13 0 -39 9 -57 20 -37 23 -58 25 -65 8 -7 -21 11 -45 40 -54 20 -6 -11 -11 -112 -16 -77 -4 -198 -12 -270 -18 -71 -6 -267 -15 -435 -20 -168 -5 -332 -11 -365 -14 -33 -3 -104 -7 -157 -8 -95 -3 -97 -3 -84 17 20 33 40 120 64 280 l7 50 90 10 c150 17 151 43 2 44 l-78 1 6 58 c9 81 54 267 69 287 7 10 18 15 24 11 19 -12 14 -60 -13 -118 -26 -56 -31 -83 -16 -92 18 -12 40 7 52 42 6 21 16 43 22 50 18 22 28 102 15 125 -15 30 -27 37 -70 37 -27 0 -42 -6 -57 -26z"/>
<path d="M17031 13386 c-7 -9 -19 -85 -27 -178 -8 -90 -17 -178 -20 -197 -5 -33 -5 -33 -27 -13 -35 31 -63 42 -109 42 -34 0 -52 -7 -81 -31 -67 -55 -103 -158 -72 -206 17 -25 20 -25 87 -19 99 9 190 36 196 58 2 11 14 18 27 18 30 0 35 16 35 118 0 48 4 103 9 122 5 19 11 93 13 164 3 130 -3 155 -31 122z m-128 -410 c10 -6 31 -35 48 -63 l29 -53 -24 0 c-24 0 -101 -14 -161 -29 -17 -4 -36 -6 -43 -3 -30 10 2 103 51 144 33 28 61 29 100 4z"/>
<path d="M9841 13298 c-41 -107 -58 -138 -112 -208 -36 -48 -59 -86 -55 -95 7 -19 25 -19 47 1 17 15 17 13 13 -43 -3 -32 -10 -71 -15 -87 -18 -56 -6 -128 19 -112 10 6 31 94 52 216 14 75 43 166 75 230 26 51 33 89 22 108 -13 19 -37 14 -46 -10z"/>
<path d="M12122 13308 c-5 -7 -19 -31 -30 -53 -11 -22 -30 -49 -42 -60 -41 -36 -120 -136 -120 -151 0 -30 45 -14 74 27 15 22 30 39 32 37 2 -2 -3 -26 -12 -53 -19 -65 -24 -289 -6 -306 26 -27 37 8 43 144 5 120 9 141 43 232 20 55 44 116 53 137 8 20 12 41 9 47 -9 15 -31 14 -44 -1z"/>
<path d="M15992 13228 c-15 -15 -16 -126 -2 -179 32 -126 30 -121 46 -108 12 10 13 34 8 143 -7 146 -19 177 -52 144z"/>
<path d="M2918 13155 c-13 -13 -712 -27 -1570 -32 -848 -4 -848 -4 -848 -24 0 -21 0 -21 963 -16 529 3 1093 10 1252 17 372 16 885 17 1335 4 195 -6 357 -10 358 -8 2 1 -9 11 -24 21 -24 15 -59 19 -249 25 -367 12 -1210 21 -1217 13z"/>
<path d="M7888 13110 c-24 -28 -62 -64 -85 -82 -42 -31 -56 -58 -29 -58 7 0 34 16 59 35 25 19 48 35 51 35 5 0 -7 -38 -46 -141 -20 -52 -28 -90 -26 -120 5 -66 29 -58 49 16 8 33 25 83 36 110 12 28 24 64 28 80 4 17 12 44 19 60 36 83 37 87 25 101 -19 24 -36 16 -81 -36z"/>
<path d="M4254 13007 c-16 -42 21 -2469 45 -2992 5 -104 14 -334 20 -509 10 -315 15 -356 43 -328 17 17 16 466 0 677 -16 193 -31 922 -41 1931 -4 440 -10 805 -14 810 -3 6 -7 82 -8 170 -3 209 -7 254 -25 254 -8 0 -17 -6 -20 -13z"/>
<path d="M10831 12966 c-10 -12 -30 -169 -31 -243 0 -23 -3 -23 -115 -23 -108 0 -115 -1 -115 -20 0 -19 7 -20 114 -20 l113 0 6 -77 c7 -86 15 -123 27 -123 12 0 20 37 27 122 l6 77 91 3 c73 2 91 6 91 18 0 12 -18 16 -92 18 l-93 3 0 87 c1 48 5 106 9 129 10 54 -11 82 -38 49z"/>
<path d="M17710 12762 c0 -10 11 -29 25 -42 14 -13 25 -27 25 -31 0 -8 -140 -10 -1165 -24 l-370 -5 63 32 c42 21 62 37 62 50 0 29 -37 22 -125 -23 -123 -62 -154 -81 -159 -96 -10 -25 5 -41 42 -46 60 -9 115 -23 139 -35 25 -14 73 -16 73 -4 0 20 -49 52 -94 62 -27 6 -55 14 -62 18 -7 4 173 8 399 8 227 1 594 5 817 8 306 4 400 3 383 -6 -26 -13 -30 -36 -8 -44 21 -8 72 14 93 41 9 12 31 28 47 36 39 18 48 59 13 59 -26 0 -128 36 -142 51 -18 17 -56 10 -56 -9z"/>
<path d="M15999 12738 c-18 -33 -24 -159 -9 -204 25 -83 32 -95 46 -83 11 9 12 37 7 135 -6 113 -4 126 12 138 23 16 12 36 -20 36 -15 0 -29 -9 -36 -22z"/>
<path d="M755 12710 c-11 -5 -68 -9 -127 -9 -135 -1 -144 -9 -186 -156 -33 -118 -43 -186 -40 -275 3 -79 4 -85 26 -88 12 -2 24 3 26 10 2 7 14 58 27 113 l24 100 115 -3 c105 -3 119 -1 141 17 24 20 24 20 -71 21 -52 1 -113 4 -135 8 -37 7 -40 10 -37 37 2 17 11 45 20 64 14 31 14 35 -2 47 -17 12 -17 14 -1 38 17 25 21 26 119 27 127 1 241 20 241 40 0 17 -107 24 -140 9z"/>
<path d="M9875 12684 c-38 -7 -136 -17 -217 -20 -139 -7 -148 -8 -148 -27 0 -19 5 -20 168 -14 92 3 194 10 227 16 33 6 98 14 145 19 66 5 85 10 85 22 0 21 -164 23 -260 4z"/>
<path d="M11805 12686 c-50 -8 -70 -15 -70 -26 0 -12 13 -15 65 -13 36 1 264 5 507 10 243 4 445 11 449 15 4 4 -5 12 -20 18 -38 14 -839 11 -931 -4z"/>
<path d="M7591 12667 c-17 -22 8 -44 59 -52 25 -4 141 -9 258 -11 209 -5 212 -5 212 15 0 20 -5 21 -162 21 -155 1 -318 16 -334 33 -11 10 -20 9 -33 -6z"/>
<path d="M2412 12598 c-39 -60 -80 -158 -116 -277 -18 -60 -11 -81 29 -81 34 0 102 26 158 61 l50 31 -8 -59 c-13 -99 -12 -128 5 -128 28 0 47 68 70 245 8 70 23 114 39 125 6 3 11 15 11 26 0 22 -27 26 -53 7 -20 -16 -47 -89 -47 -132 -1 -29 -6 -34 -98 -78 -54 -27 -101 -48 -104 -48 -16 0 69 219 108 278 36 55 41 85 13 90 -10 2 -31 -20 -57 -60z"/>
<path d="M8593 12644 c-7 -19 11 -32 52 -38 213 -32 350 -34 350 -6 0 12 -20 17 -95 22 -52 4 -138 14 -191 23 -117 18 -108 18 -116 -1z"/>
<path d="M1886 12610 c-42 -13 -72 -46 -105 -115 -33 -71 -50 -201 -32 -247 24 -62 131 -89 185 -47 14 11 45 52 67 91 35 60 43 83 47 139 4 60 2 73 -22 113 -18 31 -39 51 -63 61 -40 17 -37 17 -77 5z m85 -73 c42 -51 36 -135 -17 -223 -45 -76 -68 -96 -103 -88 -14 4 -32 11 -38 17 -16 11 -18 133 -3 142 6 3 10 15 10 25 0 39 32 116 58 138 32 26 65 22 93 -11z"/>
<path d="M9863 12578 c-14 -19 -30 -80 -53 -208 -12 -63 -26 -132 -31 -153 l-10 -38 -36 31 c-49 44 -72 50 -173 50 -79 0 -92 -3 -116 -23 -22 -19 -28 -34 -32 -78 -3 -45 -1 -57 16 -73 30 -26 131 -32 207 -13 33 9 82 19 109 23 29 4 68 19 95 38 46 31 46 31 18 34 -27 3 -29 6 -23 40 28 165 50 274 65 312 10 25 16 51 13 58 -5 16 -37 15 -49 0z m-176 -394 c52 -40 50 -42 -62 -64 -33 -6 -82 -10 -110 -8 -48 3 -50 4 -53 35 -2 22 3 38 19 54 20 20 28 21 98 15 58 -6 83 -13 108 -32z"/>
<path d="M7753 12548 c-19 -26 -61 -114 -73 -153 -7 -22 -20 -53 -30 -70 -27 -45 -53 -150 -46 -180 5 -20 12 -25 28 -23 17 2 26 19 47 83 l26 80 145 -3 c87 -1 151 2 160 8 30 20 -12 30 -130 30 -63 0 -125 3 -138 6 -28 8 -26 23 20 125 l31 70 136 -2 c128 -2 136 -1 136 17 0 18 -10 19 -151 22 -114 2 -153 -1 -161 -10z"/>
<path d="M12713 12548 c-6 -7 -13 -49 -17 -92 -7 -81 -41 -247 -57 -278 -8 -15 -13 -15 -64 3 -62 22 -198 26 -238 8 -51 -23 -62 -96 -21 -128 36 -28 136 -28 224 0 36 12 77 21 92 21 15 0 44 8 65 18 l38 18 -27 13 c-20 9 -25 16 -19 28 15 28 71 307 71 352 0 24 -16 49 -31 49 -4 0 -11 -6 -16 -12z m-153 -411 c30 -13 30 -13 -45 -35 -120 -35 -217 -10 -154 41 21 17 33 18 96 13 40 -4 86 -12 103 -19z"/>
<path d="M11842 12513 c-5 -10 -19 -56 -31 -103 -13 -47 -36 -130 -51 -185 -40 -142 -41 -165 -10 -165 12 0 35 7 51 16 17 9 69 18 119 21 97 6 125 16 100 33 -9 7 -59 10 -123 8 -92 -3 -107 -1 -102 12 4 8 20 66 36 130 17 63 37 137 45 164 7 27 14 58 14 68 0 24 -36 24 -48 1z"/>
<path d="M1115 12469 c-15 -24 17 -29 161 -27 125 3 149 5 149 18 0 13 -25 15 -152 18 -103 2 -154 -1 -158 -9z"/>
<path d="M3344 12463 c-23 -75 -139 -213 -180 -213 -24 0 -24 1 -24 93 0 50 -4 98 -9 105 -18 29 -43 6 -75 -69 -59 -135 -150 -249 -198 -249 -19 0 -20 4 -14 69 7 70 1 86 -27 75 -17 -6 -40 -114 -30 -142 20 -57 79 -68 141 -27 38 25 95 94 128 156 l19 34 3 -30 c5 -44 29 -65 74 -65 50 0 67 9 122 68 l46 47 0 -41 c0 -88 71 -115 196 -74 80 26 181 79 209 110 19 21 19 21 -10 14 -17 -4 -46 -14 -65 -22 -92 -39 -198 -72 -232 -72 l-38 0 0 79 c0 44 5 92 10 107 6 15 8 35 5 45 -8 24 -44 25 -51 2z"/>
<path d="M8692 12463 c3 -16 19 -18 133 -21 126 -3 205 8 205 28 0 6 -68 10 -171 10 -157 0 -170 -1 -167 -17z"/>
<path d="M1150 12342 c0 -28 46 -42 137 -42 68 0 145 22 130 37 -3 2 -45 6 -94 8 -48 1 -107 6 -130 10 -39 7 -43 6 -43 -13z"/>
<path d="M12113 12288 c-34 -7 -43 -14 -43 -30 0 -19 4 -20 45 -15 25 4 89 10 142 13 97 7 133 16 133 34 0 13 -220 11 -277 -2z"/>
<path d="M2082 12046 c-60 -105 -70 -146 -38 -146 14 0 106 160 106 184 0 9 -8 16 -19 16 -13 0 -29 -18 -49 -54z"/>
<path d="M557 11418 c-9 -24 -24 -74 -33 -113 -9 -38 -29 -113 -44 -165 -35 -119 -40 -142 -50 -210 -5 -30 -12 -68 -16 -84 -7 -28 -6 -29 27 -21 19 5 81 7 139 6 58 -1 152 -3 210 -4 l105 -2 24 48 c20 40 22 52 12 73 -16 35 -33 26 -53 -30 -9 -27 -19 -51 -23 -54 -3 -3 -51 0 -108 6 -56 7 -140 12 -185 12 l-84 0 7 53 c4 28 18 90 32 137 51 177 86 316 87 350 2 53 -27 52 -47 -2z"/>
<path d="M2795 11384 c-27 -8 -88 -19 -135 -24 -177 -22 -201 -27 -239 -58 -44 -36 -44 -69 -2 -122 26 -33 32 -35 95 -38 55 -2 66 -6 66 -20 0 -40 -76 -124 -142 -158 -56 -29 -81 -24 -72 15 7 27 7 29 5 49 -1 14 -37 17 -45 3 -4 -5 -9 -31 -13 -57 -5 -39 -3 -49 12 -60 78 -57 273 66 305 193 15 62 4 73 -77 73 -56 0 -67 3 -88 26 -59 63 -20 81 245 114 95 12 190 45 190 66 0 18 -38 17 -105 -2z"/>
<path d="M1638 11364 c-46 -25 -66 -84 -28 -84 10 0 24 9 30 20 6 10 28 24 50 30 34 9 45 8 79 -10 82 -41 60 -128 -49 -195 -117 -72 -175 -139 -148 -172 9 -12 38 -14 145 -11 121 3 134 5 155 25 20 20 20 23 4 29 -10 4 -35 2 -55 -5 -21 -6 -76 -11 -121 -11 l-83 0 24 24 c13 13 59 47 101 75 92 61 128 108 128 166 0 55 -18 85 -65 112 -47 27 -126 30 -167 7z"/>
<path d="M3535 11200 c-40 -66 -148 -170 -177 -170 -16 0 -18 10 -18 93 0 50 -4 98 -9 105 -14 23 -45 9 -52 -23 -14 -65 -123 -232 -172 -264 -28 -18 -45 3 -49 56 -5 82 -58 85 -58 3 0 -50 29 -102 64 -113 43 -14 85 13 153 100 50 63 58 70 61 51 6 -40 31 -58 79 -58 40 0 49 5 122 75 l78 75 7 -32 c24 -123 228 -126 343 -6 l28 30 -30 -7 c-16 -4 -60 -20 -97 -36 -75 -33 -115 -36 -158 -14 -29 15 -30 18 -30 89 0 41 -3 81 -6 90 -13 33 -42 16 -79 -44z"/>
<path d="M1110 11160 c0 -20 4 -20 153 -18 127 3 152 5 152 18 0 13 -25 15 -152 18 -149 2 -153 2 -153 -18z"/>
<path d="M1149 11091 c-20 -16 -21 -21 -10 -35 11 -13 35 -16 133 -16 113 0 158 9 158 30 0 6 -46 10 -109 10 -84 0 -111 3 -121 15 -16 19 -23 19 -51 -4z"/>
<path d="M16213 11027 c-57 -21 -77 -50 -83 -120 -5 -60 -6 -62 -34 -65 -31 -4 -30 -12 -11 91 7 33 5 37 -12 37 -12 0 -25 -11 -32 -26 -14 -31 -58 -81 -84 -95 -17 -9 -18 -7 -12 28 4 21 9 45 11 54 2 8 -2 24 -10 34 -12 16 -16 17 -30 6 -9 -7 -16 -26 -16 -41 0 -29 -58 -113 -85 -124 -32 -12 -45 -6 -45 19 0 18 -5 25 -20 25 -17 0 -20 -7 -20 -45 0 -25 -4 -45 -10 -45 -6 0 -10 28 -10 64 0 71 -15 89 -46 54 -31 -33 -53 -41 -69 -24 -27 27 -14 69 30 94 16 9 24 7 42 -10 12 -11 26 -17 32 -13 19 11 12 44 -14 61 -58 38 -155 -34 -155 -113 0 -30 -3 -32 -57 -48 -96 -28 -116 -29 -143 -6 l-25 20 51 1 c43 0 56 5 92 36 64 54 71 73 38 101 -42 36 -103 32 -154 -9 -82 -66 -92 -155 -22 -190 46 -23 84 -23 161 3 36 12 94 22 132 23 l67 2 0 -37 c0 -34 -5 -41 -64 -83 -35 -25 -76 -60 -91 -78 -24 -28 -27 -38 -21 -81 6 -53 42 -111 76 -122 11 -4 36 -1 56 5 53 18 84 94 84 205 0 75 3 87 26 114 19 23 34 31 59 31 21 0 45 9 64 26 25 21 36 24 66 18 29 -5 43 -2 65 15 34 25 40 26 40 7 0 -21 25 -26 125 -21 59 2 109 11 145 24 70 27 70 27 70 -8 0 -17 5 -33 12 -37 12 -8 33 14 87 92 32 46 34 47 42 26 12 -31 24 -28 77 19 49 43 108 77 117 67 3 -3 0 -26 -7 -51 -19 -71 -5 -81 102 -74 96 5 133 19 148 52 l11 23 -69 -19 c-39 -10 -87 -19 -108 -19 l-39 0 1 68 c1 64 0 67 -24 70 -14 2 -47 -9 -74 -23 -44 -23 -49 -24 -60 -9 -18 25 -47 11 -110 -53 -55 -54 -76 -53 -40 2 15 23 15 25 0 31 -24 9 -45 -3 -57 -33 -21 -53 -26 -58 -85 -80 -85 -33 -95 -29 -42 20 61 56 71 92 34 124 -31 26 -29 26 -73 10z m47 -56 c0 -16 -79 -95 -87 -88 -8 8 19 84 33 94 27 19 54 16 54 -6z m-810 -25 c0 -24 -63 -66 -98 -66 -41 0 -40 11 3 49 38 33 95 43 95 17z m218 -343 c-3 -41 -13 -85 -26 -110 -31 -60 -60 -65 -87 -12 -20 38 -19 82 3 108 20 25 93 80 106 81 5 0 7 -30 4 -67z"/>
<path d="M2041 10963 c-16 -63 -41 -236 -35 -245 6 -10 15 -10 32 1 18 11 40 112 44 201 3 63 0 75 -14 78 -12 2 -19 -7 -27 -35z"/>
<path d="M14713 10989 c-6 -6 -8 -29 -6 -52 3 -26 -3 -64 -16 -102 -21 -64 -20 -75 10 -75 13 0 26 15 41 47 25 52 90 123 113 123 12 0 15 -18 15 -100 0 -82 3 -102 16 -107 21 -8 68 28 72 56 4 23 -4 26 -28 11 -13 -8 -16 5 -20 88 l-5 97 -37 -1 c-24 -1 -50 -11 -72 -28 -44 -33 -50 -33 -43 3 8 39 -16 64 -40 40z"/>
<path d="M15085 10990 c-11 -4 -31 -20 -44 -34 -14 -14 -30 -26 -37 -26 -19 0 -25 -27 -35 -140 -5 -58 -13 -132 -19 -165 -5 -33 -12 -90 -16 -127 -7 -65 -6 -68 14 -68 24 0 23 -2 46 140 40 244 49 288 66 328 12 26 29 46 45 52 44 17 53 12 60 -31 6 -34 3 -45 -16 -66 -13 -14 -43 -34 -67 -45 -45 -20 -51 -41 -14 -46 23 -4 80 26 120 61 18 17 22 31 22 77 0 73 -18 100 -68 99 -20 0 -46 -4 -57 -9z"/>
<path d="M12266 10748 c-67 -151 -156 -413 -156 -459 0 -14 -6 -13 -47 7 -34 18 -63 24 -107 24 -71 0 -76 -3 -105 -50 -31 -51 -28 -94 8 -119 16 -12 37 -21 48 -22 10 -1 2 -5 -17 -10 -73 -19 -721 -34 -1435 -34 -407 0 -776 2 -820 5 -65 4 -80 2 -80 -9 0 -35 106 -40 880 -40 720 0 938 4 1510 30 409 18 560 31 560 49 0 12 -19 15 -115 15 -63 0 -149 -3 -190 -7 -59 -6 -70 -5 -52 4 26 13 29 28 6 28 -13 0 -15 7 -11 33 22 134 61 262 142 463 26 63 44 121 41 129 -11 31 -37 15 -60 -37z m-227 -492 c27 -15 41 -40 41 -80 0 -17 -6 -18 -81 -11 -80 6 -119 20 -119 40 0 5 9 25 21 44 19 32 22 33 65 27 24 -3 57 -12 73 -20z"/>
<path d="M11006 10671 c-21 -41 -76 -263 -93 -378 l-5 -33 -45 27 c-36 21 -63 27 -126 31 -69 4 -82 2 -94 -14 -24 -33 -16 -67 24 -94 32 -22 49 -25 141 -28 80 -3 114 0 148 13 53 20 61 55 10 46 -17 -3 54 332 85 401 39 84 -4 111 -45 29z m-231 -401 c11 0 38 -12 60 -25 l40 -26 -75 7 c-74 6 -120 24 -120 46 0 7 13 8 38 4 20 -3 46 -6 57 -6z"/>
<path d="M7662 10653 c-7 -3 -20 -19 -28 -35 -9 -17 -36 -53 -61 -79 -47 -50 -53 -87 -13 -76 18 5 19 1 14 -42 -3 -25 -10 -59 -14 -76 -9 -31 -14 -84 -11 -122 1 -16 7 -23 21 -23 20 0 24 8 34 85 16 111 26 156 50 224 14 41 33 85 41 97 28 43 12 65 -33 47z"/>
<path d="M9744 10583 c-63 -141 -100 -316 -75 -352 8 -12 29 -13 143 -2 73 7 151 18 172 25 51 16 59 36 14 35 -74 -1 -244 -17 -260 -24 -16 -6 -18 -1 -18 41 0 52 21 125 65 237 15 37 25 74 21 82 -12 31 -37 14 -62 -42z"/>
<path d="M11506 10564 c-3 -9 -6 -53 -6 -100 l0 -83 -117 -3 c-97 -2 -118 -6 -118 -18 0 -12 20 -16 113 -18 l112 -3 0 -58 c0 -44 5 -62 19 -75 17 -15 19 -15 25 -1 3 9 6 43 6 76 0 56 1 59 28 65 53 12 76 20 79 31 5 13 -49 27 -75 19 -16 -5 -17 0 -14 64 5 87 -2 120 -27 120 -10 0 -22 -7 -25 -16z"/>
<path d="M2648 10455 c-4 -4 -129 -11 -280 -16 -150 -5 -343 -13 -428 -19 -85 -6 -225 -15 -310 -20 -85 -6 -216 -15 -290 -21 -74 -6 -349 -14 -610 -18 -413 -5 -475 -8 -475 -21 0 -13 55 -15 420 -18 386 -3 543 2 930 29 552 38 1096 61 1430 61 171 0 332 -1 359 -3 57 -5 74 14 29 33 -30 13 -762 25 -775 13z"/>
<path d="M10255 10430 c-15 -24 12 -30 135 -30 136 0 160 4 160 26 0 11 -28 14 -144 14 -86 0 -147 -4 -151 -10z"/>
<path d="M2275 10235 c-5 -2 -30 -9 -54 -15 -52 -14 -91 -50 -91 -84 0 -39 21 -76 42 -76 17 0 19 6 16 47 l-3 47 50 19 c31 12 78 20 125 21 l75 1 3 -63 c3 -55 0 -67 -27 -105 -31 -46 -155 -167 -171 -167 -14 0 -86 -102 -94 -133 -12 -50 50 -128 85 -107 11 8 12 13 1 27 -34 48 -36 62 -16 99 10 20 32 48 48 63 108 97 173 163 203 209 34 50 35 56 30 118 -7 94 -19 104 -126 103 -47 0 -90 -2 -96 -4z"/>
<path d="M8633 10168 c-13 -6 -23 -20 -23 -30 0 -18 4 -19 53 -11 28 4 116 8 195 7 124 -1 142 1 140 15 -2 8 -14 18 -28 22 -41 11 -313 9 -337 -3z"/>
<path d="M7235 10130 c-13 -22 9 -28 127 -34 68 -3 170 -11 228 -16 182 -17 462 -23 494 -11 16 6 26 14 22 18 -3 3 -99 12 -213 19 -115 7 -264 18 -333 23 -162 13 -317 14 -325 1z"/>
<path d="M1093 10088 c-12 -16 -38 -156 -58 -318 -8 -68 -20 -129 -25 -134 -7 -7 -10 -4 -10 7 0 9 -22 40 -48 67 -44 46 -52 50 -95 50 -99 0 -165 -77 -174 -204 -5 -66 -3 -76 16 -95 40 -40 170 -26 419 45 25 7 6 29 -27 32 -33 3 -33 3 -28 50 3 26 11 79 17 117 6 39 15 104 20 145 4 41 13 108 20 149 11 73 9 101 -8 101 -5 0 -14 -6 -19 -12z m-186 -401 c25 -22 57 -86 67 -133 7 -31 7 -31 -68 -52 -41 -12 -88 -22 -104 -22 -56 0 -62 7 -62 72 0 128 92 203 167 135z"/>
<path d="M8793 10043 c-135 -3 -143 -5 -143 -23 0 -19 7 -20 146 -20 152 0 234 13 234 36 0 10 -13 13 -47 12 -27 -1 -112 -4 -190 -5z"/>
<path d="M7575 9890 c-11 -5 -36 -9 -55 -9 -20 -1 -41 -6 -48 -13 -13 -13 -18 -301 -6 -332 10 -27 43 -19 50 12 3 15 10 40 15 56 5 16 9 41 9 55 0 25 2 26 58 27 105 1 290 17 304 25 11 7 10 11 -2 19 -15 11 -224 7 -307 -6 l-43 -6 11 31 c6 18 9 45 7 61 -6 37 4 40 165 47 115 5 127 7 127 24 0 18 -10 19 -132 18 -73 0 -142 -4 -153 -9z m-35 -54 c0 -3 -4 -8 -10 -11 -5 -3 -10 -1 -10 4 0 6 5 11 10 11 6 0 10 -2 10 -4z"/>
<path d="M10384 9881 c-68 -42 -160 -189 -208 -333 -20 -60 -26 -97 -26 -167 0 -113 18 -162 73 -202 50 -36 123 -41 152 -9 17 19 17 19 -28 18 -57 -1 -109 30 -128 75 -20 47 -17 199 6 267 43 130 126 269 185 308 61 41 37 82 -26 43z"/>
<path d="M11857 9853 c-15 -14 -6 -29 28 -47 36 -20 111 -101 135 -146 8 -14 15 -70 18 -126 4 -90 2 -110 -22 -181 -31 -92 -68 -155 -125 -212 l-41 -41 32 0 c64 0 149 117 197 274 16 52 18 77 11 171 -4 67 -13 122 -23 141 -46 88 -181 196 -210 167z"/>
<path d="M11759 9813 c-39 -101 -51 -142 -74 -257 -14 -71 -28 -133 -31 -138 -3 -5 -11 -2 -17 6 -17 21 -129 56 -181 56 -35 0 -48 -5 -56 -19 -17 -33 -11 -56 21 -87 28 -27 37 -29 117 -33 71 -3 89 -7 100 -22 18 -26 33 -24 64 9 14 15 40 37 57 50 41 31 39 42 -6 31 -21 -4 -39 -7 -40 -5 -7 7 51 268 74 333 14 40 23 79 20 88 -10 24 -37 17 -48 -12z m-227 -393 c26 -7 53 -19 60 -28 12 -14 6 -15 -51 -9 -37 4 -72 14 -83 23 -20 19 -14 37 10 30 10 -2 38 -9 64 -16z"/>
<path d="M9886 9792 c-3 -5 -8 -29 -12 -53 -3 -24 -15 -77 -25 -116 -11 -40 -19 -93 -19 -117 0 -25 -4 -47 -8 -50 -4 -2 -29 9 -55 25 -85 52 -142 51 -175 -3 -32 -53 -36 -100 -11 -131 20 -26 24 -27 119 -27 90 0 99 -2 105 -20 9 -29 43 -26 51 4 4 18 15 27 37 32 18 3 38 11 45 17 18 14 -3 27 -45 27 -31 0 -31 1 -22 32 5 18 9 50 9 71 0 21 9 75 19 120 30 130 38 172 33 185 -4 14 -38 16 -46 4z m-147 -352 c47 -35 60 -58 40 -71 -16 -10 -83 -12 -128 -3 -27 6 -31 11 -31 37 0 37 25 67 55 67 12 0 41 -14 64 -30z"/>
<path d="M10600 9781 c-14 -28 -75 -216 -90 -281 -7 -30 -18 -66 -25 -80 -7 -14 -15 -41 -19 -61 -10 -55 7 -64 107 -54 45 4 118 10 162 14 62 5 80 9 80 21 0 20 -157 26 -233 10 -30 -7 -56 -9 -60 -6 -3 4 6 44 21 89 82 253 108 341 103 353 -8 20 -34 17 -46 -5z"/>
<path d="M1435 9730 c-14 -23 11 -30 114 -30 79 0 112 4 120 13 6 8 8 17 4 20 -11 11 -231 8 -238 -3z"/>
<path d="M10985 9490 c-15 -24 12 -30 148 -30 141 0 188 9 157 30 -20 13 -297 13 -305 0z"/>
<path d="M2185 9423 c-9 -24 41 -64 75 -61 28 3 40 39 20 64 -18 21 -86 18 -95 -3z"/>
<path d="M3979 8895 c-3 -2 -77 -9 -165 -15 -87 -6 -220 -16 -294 -21 -141 -9 -407 -22 -845 -39 -143 -6 -366 -15 -495 -21 -129 -6 -523 -12 -875 -15 -564 -5 -654 -3 -760 12 -66 9 -148 19 -182 21 -58 4 -63 3 -63 -15 0 -17 8 -21 53 -25 28 -3 90 -11 137 -18 114 -19 1326 -19 1735 -1 160 7 400 17 535 22 522 20 724 31 970 51 140 11 310 24 377 27 121 7 151 15 123 32 -15 10 -243 14 -251 5z"/>
<path d="M20832 8520 c-27 -17 -32 -25 -26 -43 10 -33 24 -47 46 -47 16 0 19 5 15 26 -3 20 1 27 20 35 81 30 172 -16 173 -88 0 -29 -3 -33 -37 -38 -125 -19 -209 -53 -187 -75 8 -8 32 -6 89 9 103 27 114 27 89 0 -26 -30 -112 -67 -174 -75 -39 -5 -50 -10 -48 -23 5 -26 81 -26 152 0 45 17 76 38 118 81 36 36 66 58 80 58 45 1 123 27 123 41 0 16 -58 19 -112 5 -31 -7 -32 -6 -39 31 -10 52 -30 81 -75 104 -54 27 -162 26 -207 -1z"/>
<path d="M22551 8506 c-7 -8 -16 -42 -21 -76 -5 -34 -10 -63 -12 -64 -24 -15 -95 -36 -140 -40 l-58 -6 0 54 c0 30 -4 66 -10 80 -8 23 -15 26 -54 26 -36 0 -53 -7 -93 -39 -27 -21 -66 -64 -87 -95 -20 -30 -44 -59 -53 -65 -15 -8 -14 -13 6 -55 15 -34 27 -46 39 -44 13 3 16 12 14 40 -3 42 -1 43 106 53 l72 7 0 -40 c0 -47 21 -72 45 -52 8 7 15 29 15 50 0 36 2 38 38 44 20 3 49 12 64 20 18 10 30 11 34 5 3 -6 16 -8 29 -5 21 5 22 3 17 -44 -4 -41 -1 -51 13 -56 26 -10 45 21 45 73 0 42 1 43 34 43 19 0 47 5 62 10 15 6 29 9 31 6 2 -2 -3 -41 -10 -87 -17 -93 -11 -119 27 -119 21 0 23 4 23 43 0 46 17 170 32 231 11 46 8 56 -19 56 -21 0 -40 -28 -40 -58 0 -14 -12 -21 -51 -30 -28 -7 -55 -12 -61 -12 -6 0 -9 29 -6 77 3 77 -6 99 -31 69z m-291 -126 l0 -60 -70 0 c-65 0 -70 1 -61 18 15 28 99 102 116 102 12 0 15 -13 15 -60z"/>
<path d="M9218 8334 c-22 -22 -4 -31 66 -37 41 -3 95 -14 119 -25 48 -22 83 -62 73 -87 -3 -8 -34 -33 -68 -54 -106 -67 -118 -79 -118 -116 0 -42 31 -68 107 -90 115 -34 139 5 26 42 -66 22 -91 42 -78 63 3 4 29 22 59 39 88 49 126 88 126 126 0 42 -37 88 -94 117 -42 22 -203 38 -218 22z"/>
<path d="M7286 8248 c-22 -68 -36 -125 -46 -188 -35 -204 -56 -295 -71 -298 -9 -1 -43 16 -77 38 -75 50 -107 60 -195 60 -62 0 -71 -3 -98 -29 -47 -47 -35 -101 25 -121 20 -6 92 -10 172 -9 131 1 139 0 152 -20 22 -32 58 -27 71 9 9 27 14 30 51 30 43 0 80 14 80 30 0 6 -25 10 -55 10 -61 0 -60 0 -44 70 22 93 71 356 72 390 2 26 -2 35 -16 38 -9 2 -19 -2 -21 -10z m-332 -438 c18 0 53 -15 86 -36 l55 -35 -124 5 c-143 6 -170 17 -131 56 17 17 29 21 52 16 17 -3 45 -6 62 -6z"/>
<path d="M7663 8178 c-75 -113 -181 -479 -157 -541 7 -20 83 -23 149 -6 22 6 67 16 100 23 68 14 88 23 80 37 -10 16 -107 10 -180 -11 -94 -27 -95 -27 -95 18 0 74 108 403 152 462 22 30 19 60 -6 60 -8 0 -28 -19 -43 -42z"/>
<path d="M9056 8133 c-7 -16 -17 -44 -20 -63 -15 -76 -49 -217 -61 -255 -7 -22 -16 -55 -20 -72 -8 -38 -15 -41 -39 -14 -39 43 -172 66 -225 38 -32 -16 -58 -54 -65 -95 -5 -28 -1 -39 23 -63 27 -26 36 -29 95 -29 41 0 89 8 123 20 42 15 60 17 70 9 15 -13 43 4 43 27 0 8 6 14 13 14 19 0 107 59 107 71 0 11 -21 9 -78 -7 -16 -5 -21 -3 -18 7 26 86 48 171 66 254 12 55 27 112 32 127 21 55 -19 82 -46 31z m-245 -407 c37 -7 89 -39 89 -56 0 -5 -29 -18 -65 -29 -81 -25 -148 -18 -153 16 -6 44 38 87 78 78 8 -2 31 -6 51 -9z"/>
<path d="M11550 8095 c-10 -24 -24 -63 -30 -86 -6 -22 -27 -75 -47 -117 -20 -42 -39 -97 -44 -122 -4 -25 -12 -62 -17 -84 -17 -65 -11 -70 87 -61 47 4 172 10 276 14 159 5 190 8 190 21 0 13 -31 15 -210 18 -134 2 -224 -1 -248 -8 -22 -6 -40 -10 -42 -8 -9 9 30 143 73 248 54 134 79 205 74 218 -2 7 -12 12 -23 12 -14 0 -26 -14 -39 -45z"/>
<path d="M10900 8025 c-61 -13 -96 -31 -106 -55 -20 -44 -41 -281 -30 -326 5 -19 12 -25 29 -22 13 2 23 11 25 23 1 11 7 45 13 76 l11 56 132 7 c156 8 246 21 295 44 l36 16 -37 4 c-21 2 -95 -2 -165 -9 -263 -24 -243 -25 -243 9 0 16 3 50 6 75 7 46 7 46 63 58 31 7 108 15 171 18 93 5 115 9 115 21 0 12 -22 15 -130 16 -71 1 -155 -4 -185 -11z"/>
<path d="M8192 7870 c-41 -10 -46 -15 -38 -36 5 -13 14 -15 45 -10 21 3 91 8 157 12 116 5 174 17 174 35 0 11 -292 10 -338 -1z"/>
<path d="M9770 7762 c0 -19 8 -20 163 -26 89 -3 183 -8 210 -12 39 -5 47 -3 47 10 0 30 -52 39 -237 44 -178 4 -183 4 -183 -16z"/>
<path d="M10070 7649 c-47 -9 -173 -37 -202 -45 -10 -3 -18 -14 -18 -25 0 -23 26 -25 96 -5 57 16 162 33 252 41 65 6 112 22 112 37 0 10 -180 9 -240 -3z"/>
<path d="M6725 7050 c-11 -18 4 -28 52 -35 62 -9 106 -51 101 -97 -3 -34 -30 -59 -160 -149 -58 -40 -74 -65 -63 -98 8 -26 64 -51 112 -51 22 0 65 -5 97 -11 45 -10 65 -9 97 1 39 13 40 14 17 23 -25 9 -173 35 -227 39 -19 2 -36 8 -38 15 -2 6 41 45 96 85 59 43 106 86 115 103 31 63 -18 154 -93 175 -46 13 -98 13 -106 0z"/>
<path d="M6547 6933 c-3 -5 -8 -44 -12 -88 -4 -44 -15 -114 -26 -155 -32 -129 -59 -248 -59 -262 0 -8 -23 8 -51 35 -62 59 -101 77 -172 77 -44 0 -62 -6 -95 -30 -50 -36 -64 -61 -60 -103 3 -29 8 -34 58 -51 49 -16 68 -17 170 -8 65 5 119 6 125 1 25 -24 75 8 75 47 0 10 17 96 39 189 45 196 64 314 55 338 -6 17 -39 23 -47 10z m-225 -470 c41 -27 63 -51 56 -58 -2 -2 -47 -7 -100 -11 -69 -5 -106 -3 -127 6 -17 7 -31 14 -31 15 0 17 19 40 47 59 43 30 101 25 155 -11z"/>
<path d="M8315 6910 c-28 -55 -175 -471 -189 -536 -11 -51 1 -55 200 -52 151 3 179 5 179 18 0 13 -26 15 -162 18 -90 1 -163 6 -163 11 0 16 99 304 141 411 53 136 58 160 30 160 -13 0 -26 -11 -36 -30z"/>
<path d="M9140 6880 c-17 -32 -70 -187 -70 -205 0 -8 -9 -57 -21 -108 -11 -50 -23 -103 -25 -116 -5 -23 -6 -23 -30 12 -70 103 -230 102 -283 -2 -25 -49 -37 -146 -21 -166 25 -30 105 -19 197 26 46 23 82 47 80 53 -7 23 -49 16 -121 -18 -96 -46 -106 -46 -106 2 0 45 26 99 60 124 20 14 33 16 63 9 48 -12 82 -42 113 -103 19 -37 30 -48 48 -48 28 0 38 28 75 215 13 61 36 151 53 200 16 50 31 101 32 115 1 32 -29 39 -44 10z"/>
<path d="M10161 6770 c-99 -35 -117 -49 -126 -98 -10 -54 -18 -280 -11 -308 7 -26 44 -34 50 -11 56 191 75 248 97 290 13 23 19 47 15 61 -5 21 -1 25 39 36 25 7 83 16 128 19 63 5 82 9 82 21 0 12 -18 15 -95 17 -82 2 -106 -2 -179 -27z m-21 -64 c0 -2 -13 -32 -30 -67 -29 -64 -37 -58 -20 15 4 21 15 43 22 47 14 9 28 12 28 5z"/>
<path d="M12485 6787 c-79 -26 -134 -67 -161 -119 -8 -16 -23 -28 -33 -28 -10 0 -36 -19 -58 -43 -56 -61 -66 -122 -28 -178 33 -51 56 -59 169 -59 103 0 136 9 215 56 207 125 267 292 127 358 -48 22 -180 30 -231 13z m225 -72 c35 -34 37 -54 10 -110 -23 -48 -96 -111 -190 -163 -61 -35 -70 -37 -152 -36 -78 0 -91 3 -113 24 -41 39 -35 91 18 146 23 24 47 44 54 44 6 0 26 18 43 40 54 68 112 91 223 86 69 -2 81 -6 107 -31z"/>
<path d="M10793 6768 c-4 -7 -17 -44 -29 -83 -12 -38 -42 -128 -67 -200 -53 -154 -60 -181 -52 -206 8 -25 35 -24 78 1 54 32 144 51 249 53 53 2 100 6 104 10 4 4 -10 14 -32 23 -52 22 -197 15 -279 -14 -33 -11 -61 -20 -62 -18 -1 1 12 40 28 86 88 248 112 330 99 345 -15 18 -26 19 -37 3z"/>
<path d="M9692 6708 c-5 -7 -12 -34 -16 -59 l-7 -47 -62 -6 c-148 -15 -157 -17 -157 -38 0 -20 4 -21 90 -14 50 4 97 10 106 13 14 5 15 0 10 -38 -4 -24 -11 -62 -17 -84 -6 -23 -9 -59 -7 -80 2 -32 7 -40 23 -40 15 0 21 8 23 30 3 29 29 162 39 198 4 15 17 17 94 17 82 0 89 1 89 20 0 19 -7 20 -91 20 -81 0 -90 2 -85 18 16 54 17 73 6 87 -15 18 -24 19 -38 3z"/>
<path d="M11602 6620 c-92 -19 -97 -22 -88 -46 5 -13 15 -15 59 -9 28 4 70 11 92 17 22 6 97 12 167 12 112 1 128 3 128 17 0 9 -7 20 -16 23 -32 12 -260 3 -342 -14z"/>
<path d="M7435 6569 c-16 -25 21 -29 266 -27 218 3 254 5 254 18 0 13 -36 15 -257 18 -179 2 -259 -1 -263 -9z"/>
<path d="M8606 6565 c-8 -21 21 -45 55 -45 38 0 39 30 2 48 -35 16 -50 15 -57 -3z"/>
<path d="M10330 6570 c-14 -4 -60 -8 -103 -9 -69 -1 -78 -3 -75 -18 7 -39 251 -24 293 17 19 20 19 20 -35 19 -30 -1 -66 -5 -80 -9z"/>
<path d="M11878 6534 c-3 -3 -55 -9 -114 -14 -135 -11 -214 -34 -214 -61 0 -23 28 -25 91 -5 24 8 99 19 166 26 68 6 144 19 170 28 l48 16 -40 7 c-49 10 -100 11 -107 3z"/>
<path d="M12846 5713 c-10 -10 -311 -21 -966 -33 -728 -14 -1148 -27 -1192 -35 -29 -5 -38 -12 -38 -27 0 -18 5 -19 53 -14 62 7 600 22 1302 36 281 5 602 15 715 22 216 13 546 15 643 3 45 -5 57 -11 57 -24 0 -25 -30 -111 -52 -146 -23 -38 -23 -45 3 -45 30 0 58 37 85 111 24 66 29 105 16 125 -4 7 -34 15 -67 19 -93 10 -550 17 -559 8z"/>
<path d="M10553 5543 c-101 -106 -174 -205 -224 -305 -27 -54 -70 -136 -96 -181 -25 -45 -63 -113 -84 -151 -41 -72 -63 -95 -91 -96 -15 0 -18 9 -18 49 0 27 4 60 9 73 16 41 51 220 51 258 0 53 -19 109 -40 120 -10 5 -57 10 -105 10 -92 0 -165 -25 -165 -56 0 -23 25 -27 58 -10 17 9 61 19 99 22 92 9 97 2 90 -114 -2 -48 -14 -121 -25 -162 -11 -41 -23 -101 -27 -132 -6 -53 -4 -60 19 -83 54 -54 134 -18 185 83 16 31 45 84 65 117 21 33 67 119 103 190 36 72 80 148 97 170 44 58 147 176 175 200 16 14 22 28 18 38 -11 30 -37 18 -94 -40z"/>
<path d="M11015 5550 c-8 -13 3 -30 19 -30 25 0 66 -41 66 -66 0 -25 -47 -77 -133 -147 -91 -74 -84 -99 30 -109 43 -4 103 -10 134 -13 38 -5 64 -3 80 5 23 13 23 13 -16 27 -22 7 -79 16 -127 20 -49 3 -88 9 -88 12 0 4 23 24 50 45 125 96 152 166 86 232 -34 34 -87 47 -101 24z"/>
<path d="M9327 5493 c-3 -4 -15 -42 -27 -83 -12 -41 -27 -78 -34 -82 -6 -4 -41 -8 -78 -8 -75 0 -120 -15 -116 -39 4 -17 7 -17 124 -6 l71 7 -15 -63 c-18 -79 -28 -249 -14 -249 19 0 34 31 42 87 4 32 15 97 25 145 l18 87 76 6 c107 9 105 8 109 28 3 15 -6 17 -86 17 l-90 0 15 42 c21 61 22 111 1 116 -9 2 -18 -1 -21 -5z"/>
<path d="M8426 5468 c-3 -7 -7 -37 -11 -67 -6 -54 -22 -124 -49 -211 -7 -25 -24 -81 -36 -125 -12 -44 -29 -97 -38 -117 -29 -73 4 -79 313 -55 121 10 150 15 150 27 0 13 -21 15 -130 14 -71 0 -166 -4 -209 -9 -61 -6 -77 -5 -72 4 4 7 35 105 68 219 70 237 80 325 40 330 -12 2 -24 -3 -26 -10z"/>
<path d="M12211 5388 c-21 -29 -42 -64 -46 -77 -4 -13 -20 -51 -35 -84 -42 -86 -37 -91 82 -84 110 7 108 8 73 -63 -17 -34 -27 -97 -20 -120 4 -12 15 -20 30 -20 27 0 35 16 28 53 -5 26 42 154 74 204 8 12 12 26 9 32 -3 5 3 31 14 57 18 42 19 49 6 62 -22 22 -39 4 -66 -69 -24 -64 -29 -68 -113 -88 -61 -14 -80 -14 -74 2 3 6 16 37 29 67 13 30 38 77 56 103 34 48 36 77 8 77 -9 0 -33 -24 -55 -52z"/>
<path d="M10686 5378 c-9 -12 -16 -28 -16 -35 0 -7 -22 -54 -49 -105 -62 -117 -123 -275 -116 -300 9 -25 55 -23 113 5 59 30 119 46 202 55 48 5 65 11 65 22 0 12 -17 15 -90 15 -75 0 -101 -5 -155 -27 -35 -15 -65 -26 -67 -24 -7 6 51 145 94 226 58 110 75 160 61 177 -15 18 -25 16 -42 -9z"/>
<path d="M12664 5355 c-36 -28 -62 -79 -105 -204 -60 -173 -66 -211 -29 -211 21 0 44 40 70 120 18 55 18 55 61 57 72 4 213 25 232 35 56 29 -15 33 -203 12 -45 -5 -52 -4 -43 7 6 8 14 29 18 48 4 19 14 41 21 49 8 7 14 22 14 32 0 27 30 40 93 40 36 0 59 -5 67 -15 7 -8 19 -15 27 -15 22 0 27 29 8 50 -16 17 -31 20 -109 20 -82 0 -94 -3 -122 -25z"/>
<path d="M13032 5317 c-12 -13 -22 -28 -22 -33 0 -5 -15 -32 -34 -59 -37 -56 -99 -238 -90 -267 7 -23 82 -25 146 -4 24 8 68 17 98 21 72 10 100 21 100 40 0 14 -11 15 -77 10 -43 -4 -106 -16 -141 -27 -35 -11 -65 -18 -68 -15 -5 5 16 80 39 142 11 30 55 107 89 157 10 15 18 34 18 43 0 23 -34 18 -58 -8z"/>
<path d="M11710 5190 c-14 -4 -55 -8 -91 -9 -52 -1 -70 -5 -83 -20 -25 -27 -11 -45 28 -36 17 3 91 12 164 20 118 12 138 12 178 -2 32 -11 49 -12 56 -5 18 18 1 40 -39 51 -44 12 -176 13 -213 1z"/>
<path d="M6776 5133 c-8 -16 -26 -93 -40 -173 -15 -80 -31 -167 -36 -193 -6 -27 -10 -64 -10 -82 0 -18 -5 -56 -11 -83 l-12 -49 -41 45 c-22 25 -59 53 -81 63 -75 35 -184 17 -220 -35 -8 -11 -15 -42 -15 -68 0 -43 3 -49 37 -73 34 -22 47 -25 128 -25 49 1 109 5 132 9 40 8 42 7 54 -20 21 -51 59 -33 59 28 0 14 10 33 23 44 l22 18 -24 1 c-19 0 -22 4 -17 23 3 12 11 56 16 97 17 131 70 422 80 441 6 10 10 27 10 38 0 31 -37 27 -54 -6z m-247 -518 c16 -8 43 -32 60 -53 l30 -39 -54 -12 c-34 -8 -77 -10 -113 -6 -89 11 -113 45 -71 99 17 22 28 26 70 26 28 0 63 -7 78 -15z"/>
<path d="M9308 4914 c-3 -3 -53 -8 -109 -12 -83 -6 -104 -10 -104 -22 0 -11 14 -16 55 -18 55 -4 304 14 349 25 23 6 23 7 6 19 -19 14 -185 21 -197 8z"/>
<path d="M14365 4790 c-16 -4 -67 -8 -112 -9 -76 -1 -83 -3 -83 -21 0 -18 7 -20 81 -20 81 0 312 18 338 26 11 3 11 7 1 19 -10 11 -34 15 -104 14 -50 -1 -104 -5 -121 -9z"/>
<path d="M7290 4762 c0 -24 13 -26 255 -43 190 -13 225 -13 238 0 15 15 -55 30 -188 41 -328 25 -305 25 -305 2z"/>
<path d="M12408 4775 c-3 -3 -104 -10 -224 -16 -120 -5 -280 -14 -354 -19 -231 -15 -449 -30 -595 -41 -211 -16 -2478 -40 -2740 -29 -102 4 -120 3 -120 -10 0 -26 136 -34 590 -34 680 1 2330 20 2343 28 6 3 89 11 184 17 95 5 236 14 313 19 77 5 221 14 320 20 99 5 259 14 355 19 96 6 327 11 513 11 330 0 337 0 337 20 0 20 -7 20 -458 20 -252 0 -461 -2 -464 -5z"/>
<path d="M14290 4599 c0 -20 4 -20 185 -17 160 3 187 5 202 21 16 16 8 17 -185 17 -197 0 -202 0 -202 -21z"/>
<path d="M7290 4580 c0 -21 1 -21 239 -18 225 3 265 7 247 26 -4 4 -115 8 -247 10 -238 3 -239 3 -239 -18z"/>
<path d="M10363 4409 c-7 -7 -13 -22 -13 -32 0 -17 4 -18 33 -11 17 4 80 8 139 8 88 1 110 -2 124 -16 16 -15 15 -19 -2 -49 -11 -18 -58 -61 -104 -96 -137 -101 -134 -98 -127 -116 8 -22 107 -23 210 -3 40 8 106 17 147 21 126 11 138 37 19 43 -42 3 -106 -3 -160 -13 -49 -10 -92 -15 -95 -13 -2 3 12 18 33 33 134 99 173 174 117 226 -24 23 -33 24 -167 27 -105 2 -145 0 -154 -9z"/>
<path d="M12745 2969 c-49 -5 -146 -13 -215 -18 -181 -14 -445 -39 -595 -56 -250 -28 -392 -35 -687 -35 -290 0 -298 -1 -298 -20 0 -23 30 -41 50 -30 8 4 191 10 405 13 311 4 423 9 550 25 88 11 243 28 345 36 102 9 264 23 360 31 301 25 967 21 1078 -7 41 -10 42 -12 42 -52 0 -39 -19 -118 -54 -231 -20 -64 -20 -68 3 -55 30 16 57 68 85 167 25 90 33 167 18 189 -13 20 -112 33 -337 44 -251 12 -617 11 -750 -1z"/>
<path d="M10992 2771 c-24 -25 -122 -191 -122 -205 0 -10 -89 -207 -157 -346 -36 -74 -82 -169 -102 -210 -20 -41 -57 -107 -83 -147 -45 -69 -68 -89 -68 -59 0 26 63 233 98 321 37 94 45 172 20 202 -16 20 -197 13 -340 -13 -89 -16 -108 -22 -108 -36 0 -23 57 -24 162 -4 40 8 112 17 161 21 l87 7 0 -38 c0 -22 -13 -71 -29 -110 -52 -128 -103 -308 -99 -355 3 -39 6 -44 36 -53 27 -7 38 -6 59 11 39 28 95 113 151 228 110 223 183 375 227 475 78 175 108 232 148 272 31 32 36 42 26 54 -18 21 -38 17 -67 -15z"/>
<path d="M9666 2404 c-3 -9 -6 -37 -6 -64 0 -76 -4 -80 -71 -80 -52 0 -59 -2 -59 -20 0 -18 7 -20 55 -20 l56 0 -7 -67 c-4 -38 -11 -78 -15 -91 -12 -32 -11 -109 1 -117 18 -11 38 14 43 53 8 63 27 176 32 200 5 21 10 22 93 22 90 0 137 14 137 40 0 11 -9 14 -30 13 -16 -2 -65 -6 -108 -9 l-77 -7 6 56 c8 70 0 107 -25 107 -10 0 -22 -7 -25 -16z"/>
<path d="M15585 2393 c-55 -12 -200 -65 -254 -92 -70 -36 -75 -51 -40 -116 24 -44 35 -91 49 -210 5 -44 15 -116 20 -160 17 -124 31 -365 38 -656 6 -212 10 -270 22 -284 34 -41 483 8 498 54 4 12 -11 13 -84 7 -49 -3 -116 -11 -149 -17 -33 -5 -97 -12 -141 -15 l-81 -6 -6 239 c-6 258 -21 514 -37 633 -5 41 -14 116 -20 165 -18 153 -31 219 -51 253 -11 18 -19 39 -19 46 0 16 71 50 181 86 102 34 139 37 179 14 30 -18 60 -13 60 9 0 7 -17 23 -39 35 -36 21 -79 26 -126 15z"/>
<path d="M9145 2335 c-243 -41 -300 -56 -315 -85 -16 -30 -12 -53 21 -118 33 -67 58 -89 132 -117 26 -10 47 -21 47 -25 0 -15 -95 -100 -135 -121 -52 -28 -75 -21 -75 23 0 18 4 39 9 47 13 20 2 41 -20 41 -23 0 -38 -27 -45 -83 -6 -40 -4 -46 26 -70 17 -15 43 -27 56 -27 49 0 158 71 213 140 46 58 38 81 -36 110 -68 27 -98 52 -124 102 -38 73 -25 86 106 108 39 7 83 16 99 21 16 5 42 9 58 9 51 0 158 31 158 46 0 18 -64 17 -175 -1z"/>
<path d="M11115 2284 c-37 -18 -77 -74 -104 -145 -28 -73 -26 -95 9 -131 28 -27 36 -30 79 -26 88 9 172 82 154 133 -8 23 -87 47 -136 42 -36 -5 -46 -3 -41 6 22 37 48 68 65 78 18 9 20 7 17 -18 -4 -40 32 -39 45 0 21 64 -23 94 -88 61z m74 -188 c10 -12 5 -19 -26 -40 -38 -26 -59 -33 -49 -17 3 5 -7 14 -23 21 -31 13 -32 35 -3 43 38 10 90 6 101 -7z"/>
<path d="M12005 2284 c-128 -40 -173 -77 -160 -132 5 -27 55 -62 87 -62 6 0 29 -8 50 -17 60 -27 51 -66 -26 -117 -55 -37 -76 -35 -76 8 0 41 -23 65 -45 46 -16 -13 -20 -76 -7 -96 11 -17 48 -34 74 -34 27 0 115 49 141 78 24 27 39 90 26 114 -10 19 -65 47 -131 68 -27 8 -38 17 -38 31 0 35 84 65 235 83 76 9 100 15 100 26 0 22 -163 24 -230 4z"/>
<path d="M16010 2285 c-19 -23 -4 -49 23 -40 59 19 92 17 120 -10 46 -44 39 -57 -106 -189 -75 -69 -46 -96 123 -108 58 -4 143 -10 190 -13 85 -6 126 3 105 24 -10 9 -124 24 -297 37 -92 7 -112 21 -67 45 34 18 109 90 124 120 20 38 3 92 -39 124 -27 21 -44 25 -98 25 -46 0 -69 -4 -78 -15z"/>
<path d="M13030 2238 c-11 -24 -20 -49 -20 -56 0 -7 -13 -38 -29 -70 -15 -31 -31 -70 -35 -85 -20 -82 38 -90 152 -21 41 25 72 39 69 31 -28 -74 -51 -232 -37 -258 23 -43 50 -16 50 49 0 53 61 305 77 315 19 12 16 35 -7 47 -15 8 -24 6 -40 -10 -11 -11 -20 -29 -20 -39 0 -31 -11 -51 -29 -51 -9 0 -47 -18 -85 -40 -38 -22 -71 -38 -74 -35 -3 2 7 31 21 62 38 86 67 166 67 186 0 10 -8 17 -20 17 -15 0 -27 -13 -40 -42z"/>
<path d="M8136 2245 c-52 -20 -66 -33 -66 -61 0 -26 33 -34 47 -11 13 20 60 37 104 37 80 0 104 -40 49 -82 -93 -71 -173 -144 -181 -165 -13 -34 3 -57 49 -71 46 -14 141 -15 196 -2 39 9 85 44 74 56 -4 3 -39 -1 -80 -10 -53 -12 -87 -14 -126 -8 -66 11 -73 19 -42 44 14 11 41 34 60 52 19 17 51 42 71 54 44 26 62 58 57 102 -4 47 -43 73 -115 77 -34 1 -74 -3 -97 -12z"/>
<path d="M17543 2248 c-5 -7 -29 -52 -52 -99 -45 -92 -144 -234 -164 -234 -6 0 -16 14 -20 30 -20 66 -26 75 -51 75 -39 0 -48 -43 -16 -80 11 -13 20 -26 20 -30 0 -3 9 -16 20 -28 29 -31 70 -28 101 6 34 36 109 140 136 188 l22 39 1 -31 c0 -39 27 -64 70 -64 41 0 89 29 135 83 l36 42 -6 -55 c-4 -30 -9 -63 -11 -72 -3 -9 5 -27 17 -39 18 -18 29 -21 69 -16 68 8 190 71 190 99 0 16 -38 8 -108 -22 -39 -16 -81 -30 -93 -30 -19 0 -21 4 -15 33 12 64 17 172 8 186 -17 24 -56 4 -97 -51 -51 -68 -95 -108 -117 -108 -16 0 -18 10 -18 79 0 44 -3 86 -6 95 -7 19 -38 21 -51 4z"/>
<path d="M11563 2243 c-23 -9 -15 -43 10 -43 30 0 67 -27 67 -49 0 -19 -24 -44 -110 -116 -52 -43 -75 -82 -64 -109 16 -41 127 -59 204 -33 46 16 54 47 11 47 -16 0 -40 -4 -53 -9 -32 -12 -102 1 -105 19 -2 8 30 40 71 73 114 88 131 151 55 201 -37 25 -60 30 -86 19z"/>
<path d="M12595 2099 c-33 -5 -105 -13 -160 -17 -79 -5 -100 -10 -100 -22 0 -32 265 -21 350 14 31 13 36 19 25 26 -17 11 -32 11 -115 -1z"/>
<path d="M11326 2028 c-3 -7 -7 -26 -11 -43 -4 -16 -15 -48 -26 -72 -10 -23 -19 -60 -19 -83 0 -37 2 -41 22 -38 17 2 24 14 33 53 7 28 19 66 28 85 14 33 21 68 18 98 -1 6 -10 12 -21 12 -11 0 -22 -6 -24 -12z"/>
<path d="M8526 1968 c-2 -7 -11 -33 -19 -58 -20 -59 -29 -132 -18 -148 4 -8 19 -12 32 -10 21 3 24 7 21 43 -2 22 6 67 16 100 21 66 19 85 -9 85 -11 0 -21 -6 -23 -12z"/>
<path d="M9755 1888 c-42 -12 -116 -22 -187 -25 -107 -5 -118 -7 -118 -24 0 -17 9 -19 113 -19 61 0 142 7 178 14 67 14 142 47 154 66 10 16 -62 10 -140 -12z"/>
<path d="M7170 1861 c0 -34 57 -44 209 -39 138 5 196 18 188 41 -2 8 -22 11 -58 10 -167 -7 -220 -7 -276 0 -59 7 -63 7 -63 -12z"/>
<path d="M14458 1835 c-3 -3 -50 -9 -104 -13 -78 -6 -99 -10 -99 -22 0 -12 17 -15 95 -15 52 0 124 2 160 4 36 2 82 1 103 -4 33 -6 37 -5 37 13 0 14 -10 24 -31 31 -33 11 -151 15 -161 6z"/>
<path d="M13020 1729 c-95 -9 -529 -39 -865 -60 -180 -12 -355 -8 -1175 22 -342 12 -1542 6 -1690 -9 -58 -6 -170 -16 -250 -22 -211 -16 -464 -39 -550 -49 -147 -18 -256 -32 -311 -41 -30 -6 -69 -10 -85 -10 -40 0 -69 -22 -61 -45 5 -13 13 -15 30 -10 12 4 74 13 137 20 63 7 162 20 220 28 154 23 394 45 962 88 227 17 1312 17 1668 0 157 -7 455 -15 664 -18 355 -4 506 0 871 28 457 34 884 53 912 40 28 -13 122 -14 141 -2 8 5 12 17 10 27 -3 18 -17 19 -268 20 -146 1 -308 -3 -360 -7z"/>
<path d="M7450 1690 c-14 -4 -78 -8 -142 -9 -113 -1 -118 -2 -118 -22 0 -21 3 -21 158 -17 154 3 213 15 216 43 1 13 -80 16 -114 5z"/>
<path d="M14705 1684 c-44 -8 -126 -18 -182 -24 -135 -13 -153 -18 -153 -42 0 -18 5 -19 78 -13 204 17 382 54 417 86 13 13 -65 9 -160 -7z"/>
<path d="M16650 1573 c-74 -13 -243 -63 -266 -77 -21 -14 -25 -23 -19 -44 11 -43 81 -129 130 -157 37 -22 43 -29 33 -44 -14 -24 -65 -51 -94 -51 -17 0 -27 8 -34 24 -12 33 -29 41 -48 22 -15 -14 -14 -19 1 -51 16 -34 18 -35 77 -35 65 0 98 14 137 59 12 15 22 38 23 53 0 22 -9 32 -51 54 -53 30 -129 118 -113 134 13 13 187 59 266 70 73 11 120 28 112 41 -5 9 -108 10 -154 2z"/>
<path d="M17581 1558 c-5 -13 -32 -63 -61 -113 -29 -49 -68 -117 -87 -150 -34 -59 -80 -115 -94 -115 -4 0 -10 19 -14 43 -10 67 -15 77 -35 77 -42 0 -32 -106 13 -157 30 -33 51 -28 99 23 45 48 47 51 123 182 26 45 49 82 52 82 2 0 0 -24 -3 -54 -6 -46 -4 -56 15 -75 37 -37 82 -27 155 36 47 39 64 41 71 10 4 -13 23 -36 43 -52 34 -27 45 -30 128 -33 103 -4 152 10 180 52 9 15 15 29 12 31 -3 3 -27 -5 -54 -17 -39 -18 -65 -22 -129 -21 -75 1 -81 2 -107 32 -17 19 -28 43 -28 60 0 40 -9 61 -26 61 -8 0 -51 -29 -97 -65 -82 -65 -115 -77 -108 -40 11 65 12 197 1 210 -18 22 -39 18 -49 -7z"/>
<path d="M15935 1488 c-30 -16 -45 -39 -45 -68 0 -14 -7 -35 -15 -47 -19 -27 -39 -128 -31 -157 3 -11 17 -33 31 -48 20 -22 35 -28 66 -28 96 0 168 85 170 200 1 40 -4 57 -26 86 -48 63 -105 87 -150 62z m89 -72 c29 -27 36 -41 36 -73 0 -50 -37 -120 -75 -144 -26 -15 -34 -16 -55 -6 -21 10 -26 21 -28 61 l-3 49 25 -16 c45 -30 57 -23 36 21 -11 23 -17 54 -16 79 6 74 25 81 80 29z"/>
<path d="M10470 1320 c0 -19 7 -20 93 -20 75 -1 96 -4 115 -19 46 -39 27 -66 -119 -169 -87 -61 -103 -79 -90 -100 30 -49 251 -38 359 17 88 45 43 52 -98 15 -50 -14 -176 -21 -186 -11 -2 2 24 24 58 48 35 24 82 61 106 83 37 34 42 44 42 81 0 37 -5 46 -34 69 -32 24 -42 26 -140 26 -99 0 -106 -1 -106 -20z"/>
<path d="M16180 1198 c-5 -24 -17 -63 -26 -88 -29 -80 -29 -80 -1 -80 19 0 29 9 45 43 27 57 42 143 29 156 -21 21 -36 10 -47 -31z"/>
<path d="M17408 1103 c12 -2 30 -2 40 0 9 3 -1 5 -23 4 -22 0 -30 -2 -17 -4z"/>
</g>
<g id="logo" transform="translate(2040.0, 1133.2197041987686) scale(0.8161748020508809)"><g transform="translate(-57.706759,297.537395) scale(0.100000,-0.100000)" fill="#4444bb" stroke="none">
<path d="M750 2973 c-57 -10 -88 -25 -119 -57 -40 -41 -55 -100 -46 -179 6 -45 12 -61 32 -77 32 -25 35 -25 64 -1 22 17 24 26 21 89 -4 105 24 120 164 87 33 -7 119 -19 190 -25 88 -8 134 -16 144 -26 32 -32 8 -420 -28 -456 -18 -18 -126 -28 -289 -28 -185 0 -206 -4 -250 -52 -55 -58 -58 -82 -55 -363 1 -145 7 -274 13 -293 11 -34 51 -62 89 -62 12 0 35 14 52 31 l31 30 -6 238 c-3 130 -3 249 0 264 l5 27 112 0 c234 1 363 26 423 82 58 54 98 260 91 463 -4 122 -7 138 -34 191 -40 81 -79 100 -217 108 -174 10 -361 14 -387 9z" fill="#4444bb"/>
<path d="M3660 2971 c-42 -9 -83 -34 -103 -65 -39 -59 -50 -127 -54 -343 -5 -206 -5 -212 18 -252 28 -50 78 -86 143 -102 48 -12 257 -8 370 7 l49 7 -7 -104 c-4 -57 -11 -189 -16 -294 -9 -177 -9 -192 8 -214 35 -47 100 -46 136 2 22 29 27 86 42 452 7 191 0 235 -44 283 -45 48 -92 56 -241 38 -146 -18 -229 -20 -265 -6 l-26 10 0 162 c0 156 8 230 27 249 5 5 99 6 210 2 l201 -6 5 -50 c3 -39 11 -56 31 -74 34 -29 48 -29 80 0 24 20 26 30 28 113 4 147 -23 169 -218 179 -242 11 -340 13 -374 6z" fill="#4444bb"/>
<path d="M1565 2945 c-14 -13 -25 -32 -25 -42 0 -10 -1 -297 -3 -638 -2 -677 -3 -662 55 -694 33 -19 73 -7 101 31 18 24 20 51 29 300 5 150 10 278 12 283 2 6 37 8 97 3 52 -3 135 -7 186 -7 154 -2 161 -10 143 -176 -21 -189 -27 -310 -18 -343 12 -45 45 -72 86 -72 71 0 102 46 102 151 0 33 7 118 16 187 24 190 9 280 -58 349 -50 52 -112 67 -263 65 -71 -1 -164 -6 -205 -11 -41 -4 -78 -7 -81 -5 -4 2 -10 108 -13 236 -9 286 -17 352 -47 384 -31 33 -82 32 -114 -1z" fill="#4444bb"/>
<path d="M2542 2944 c-55 -38 -64 -109 -53 -419 6 -186 9 -215 28 -250 50 -95 116 -125 302 -135 75 -4 171 -5 215 -1 l78 7 -4 -178 c-2 -97 -7 -181 -11 -184 -4 -4 -42 1 -85 11 -104 26 -285 27 -363 3 -106 -33 -149 -107 -99 -170 26 -34 68 -41 132 -21 74 23 202 20 308 -7 182 -47 274 5 301 168 12 77 27 831 19 994 -7 152 -20 181 -86 186 -88 7 -103 -51 -104 -401 l0 -219 -201 4 c-197 3 -201 3 -220 27 -18 21 -19 42 -19 283 l0 260 -29 29 c-33 33 -74 38 -109 13z" fill="#4444bb"/>
<path d="M2374 1391 c-55 -34 -79 -78 -79 -147 0 -51 4 -66 27 -96 35 -45 102 -73 153 -64 78 15 146 111 131 188 -20 108 -145 172 -232 119z" fill="#4444bb"/>
<path d="M1853 999 c-39 -11 -66 -56 -61 -101 6 -59 69 -64 76 -6 4 30 34 38 145 38 l67 0 0 -110 c0 -135 -1 -136 -132 -126 -85 6 -89 6 -113 -18 -24 -25 -25 -28 -25 -179 0 -162 4 -177 47 -177 35 0 43 29 43 159 l0 121 73 0 c85 0 141 14 168 41 17 17 19 34 19 169 0 147 -1 152 -25 175 -23 24 -30 25 -137 24 -62 0 -128 -5 -145 -10z" fill="#4444bb"/>
<path d="M2985 1000 c-91 -16 -93 -18 -104 -58 -15 -51 -14 -537 0 -564 19 -36 69 -48 204 -48 121 0 127 1 151 25 l24 24 -2 292 -3 292 -26 19 c-31 23 -161 33 -244 18z m169 -86 c14 -5 16 -37 16 -250 l0 -245 -102 3 -103 3 0 240 0 240 40 6 c57 9 131 10 149 3z" fill="#4444bb"/>
<path d="M2351 971 c-24 -24 -29 -73 -37 -372 -6 -232 -6 -237 15 -258 23 -23 29 -25 51 -11 12 7 16 40 20 150 l5 141 35 -23 c19 -13 59 -55 88 -93 30 -39 78 -96 108 -128 47 -51 56 -57 74 -47 29 16 25 42 -15 92 -19 24 -62 78 -95 121 -61 77 -61 77 -33 77 15 0 46 9 69 19 56 26 67 57 62 179 -6 156 -27 172 -220 172 -93 0 -111 -3 -127 -19z m257 -74 c16 -13 17 -168 0 -185 -7 -7 -41 -12 -84 -12 -40 0 -84 -4 -98 -10 l-26 -10 0 120 0 119 98 -6 c53 -3 103 -10 110 -16z" fill="#4444bb"/>
</g>
</g></svg>
