<svg xmlns="http://www.w3.org/2000/svg" version="1.0" width="2511.777153pt" height="1196.006148pt" viewBox="0 0 2511.777153 1196.006148" preserveAspectRatio="xMidYMid meet">
<metadata>
Created by potrace 1.16, written by Peter Selinger 2001-2019
</metadata>
<g transform="translate(-122.158556,1196.006148) scale(0.100000,-0.100000)" fill="#000000" stroke="none">
<path d="M2328 11955 c-3 -3 -75 -10 -159 -15 -178 -11 -199 -15 -199 -41 0 -11 3 -19 8 -19 4 0 124 9 267 20 255 19 350 34 339 51 -6 10 -247 13 -256 4z"/>
<path d="M4735 11868 c-71 -13 -189 -72 -211 -105 -43 -65 -10 -129 89 -174 29 -13 53 -24 55 -25 2 -1 -13 -19 -33 -40 -49 -52 -65 -92 -65 -164 0 -54 3 -65 28 -90 78 -78 269 -61 346 30 20 24 26 43 26 76 0 93 -40 129 -236 214 -74 32 -144 66 -155 76 -45 41 -8 91 101 134 61 24 219 39 427 40 120 0 153 9 114 29 -25 14 -415 13 -486 -1z m128 -395 c21 -15 42 -34 48 -44 27 -50 -5 -119 -67 -145 -19 -8 -63 -14 -99 -14 -60 0 -69 3 -96 29 -31 32 -36 61 -19 121 12 43 65 97 100 102 31 5 82 -14 133 -49z"/>
<path d="M2247 11853 c-2 -5 -12 -37 -22 -73 -9 -36 -30 -96 -45 -135 -16 -38 -37 -99 -48 -135 -41 -129 -39 -127 -104 -140 -113 -22 -191 -68 -145 -86 8 -3 48 7 90 21 59 19 97 25 171 26 102 1 118 -3 110 -26 -9 -23 24 -30 46 -10 17 16 24 16 84 2 51 -12 69 -12 81 -3 23 16 6 29 -60 46 -27 6 -58 14 -67 17 -14 3 -16 11 -11 36 7 40 67 200 122 330 44 104 48 132 17 132 -14 0 -31 -29 -73 -125 -58 -134 -123 -316 -123 -343 0 -15 -8 -16 -57 -11 -32 4 -59 8 -60 9 -5 3 57 194 79 242 19 45 39 105 57 180 6 20 5 35 -2 42 -13 13 -34 14 -40 4z"/>
<path d="M17093 11704 c-9 -23 23 -44 64 -44 26 0 33 -4 33 -19 0 -18 -12 -20 -207 -25 -244 -6 -318 -14 -318 -36 0 -12 12 -14 55 -12 30 1 153 6 273 10 l217 7 0 -27 c0 -31 15 -36 39 -13 9 8 31 27 49 41 17 14 32 34 32 43 0 23 -31 51 -56 51 -10 0 -50 9 -89 20 -86 24 -84 24 -92 4z m172 -84 c-10 -11 -24 -20 -31 -20 -7 0 -10 8 -7 20 4 13 14 20 31 20 24 0 25 0 7 -20z"/>
<path d="M2871 11663 c-48 -24 -78 -76 -86 -151 -8 -73 7 -142 37 -168 24 -22 118 -30 175 -15 45 12 140 78 217 150 l48 46 -6 -65 c-3 -36 -7 -76 -9 -90 -1 -19 3 -26 18 -28 16 -2 31 13 65 67 55 85 70 95 70 42 0 -47 18 -102 38 -118 9 -7 35 -13 58 -13 37 0 47 5 73 37 30 36 31 36 31 13 0 -35 34 -86 72 -111 90 -56 203 31 222 171 8 56 -15 98 -72 134 -78 49 -159 46 -217 -8 -29 -27 -35 -41 -35 -73 0 -29 -8 -50 -32 -81 -35 -46 -36 -46 -58 -32 -11 7 -16 34 -20 101 -7 120 -18 129 -86 71 l-49 -42 -11 38 c-9 31 -15 37 -42 40 -25 3 -39 -5 -74 -39 -64 -63 -155 -137 -190 -155 -31 -16 -101 -21 -136 -10 -25 8 -32 34 -32 116 0 73 13 100 63 130 29 18 30 18 47 -3 15 -18 20 -19 34 -8 19 16 21 42 4 59 -17 17 -77 14 -117 -5z m914 -134 c19 -12 40 -29 45 -39 27 -50 -9 -159 -61 -185 -39 -21 -52 -19 -83 10 -27 25 -27 28 -22 103 4 67 11 122 15 130 5 10 77 -2 106 -19z"/>
<path d="M4011 11545 c-48 -82 -32 -175 38 -222 50 -34 144 -32 195 2 48 33 56 32 56 -8 0 -48 19 -68 71 -74 58 -7 100 14 135 66 21 33 26 52 27 116 2 76 2 77 -35 110 -51 47 -111 56 -175 24 -64 -33 -88 -68 -88 -130 0 -45 -3 -52 -32 -70 -25 -16 -42 -19 -70 -14 -61 10 -85 34 -90 92 -9 87 46 134 97 83 24 -24 33 -25 51 -4 11 14 10 20 -14 40 -23 19 -39 24 -87 24 -56 0 -59 -1 -79 -35z m437 -35 c30 -18 32 -23 32 -74 0 -64 -11 -96 -41 -125 -30 -28 -79 -29 -79 -1 0 14 7 20 23 20 13 0 32 6 43 14 18 14 16 15 -23 22 -42 6 -42 6 -45 58 -3 48 -4 51 -30 51 -16 -1 -28 3 -28 7 0 14 64 48 90 48 14 0 40 -9 58 -20z"/>
<path d="M8460 11444 c0 -19 28 -43 50 -44 8 0 33 -9 55 -20 l40 -19 -195 -3 c-165 -3 -195 -5 -195 -18 0 -13 29 -15 193 -18 l194 -2 -31 -36 c-31 -34 -40 -67 -22 -79 6 -3 27 13 47 35 21 23 53 48 71 57 70 33 58 78 -27 106 -25 9 -67 25 -93 36 -59 25 -87 27 -87 5z m179 -93 c13 -9 10 -13 -21 -24 -13 -5 -18 -1 -18 13 0 21 16 25 39 11z"/>
<path d="M9860 11424 c0 -9 8 -23 18 -31 15 -12 -7 -13 -158 -9 -96 3 -196 8 -222 12 -42 5 -48 4 -48 -13 0 -31 83 -43 308 -43 111 0 202 -2 202 -5 0 -3 -16 -25 -35 -51 -39 -51 -47 -94 -16 -94 11 0 31 19 49 48 17 26 39 57 47 69 23 30 11 62 -29 78 -17 7 -40 23 -50 34 -23 25 -66 28 -66 5z"/>
<path d="M16948 11400 c-52 -40 -61 -175 -24 -337 8 -37 20 -99 27 -138 14 -84 33 -125 58 -125 37 0 41 61 10 153 -24 69 -48 163 -49 188 0 14 15 17 88 21 130 7 196 45 194 113 -2 46 -24 78 -81 114 -42 28 -56 31 -123 31 -60 0 -80 -4 -100 -20z m194 -54 c68 -52 75 -82 26 -111 -41 -24 -150 -37 -184 -21 -20 9 -24 18 -24 58 0 26 4 58 10 72 9 25 17 27 106 34 12 1 41 -14 66 -32z"/>
<path d="M5430 11365 c-19 -23 -8 -50 20 -50 16 0 26 6 28 18 4 18 -14 47 -28 47 -4 0 -13 -7 -20 -15z"/>
<path d="M6590 11342 c0 -16 9 -22 43 -28 42 -7 42 -7 12 -16 -30 -9 -198 -25 -367 -34 -81 -5 -88 -7 -88 -26 0 -20 3 -21 123 -15 131 7 310 22 383 33 l45 6 -15 -37 c-18 -42 -21 -81 -7 -90 13 -7 36 17 51 57 7 18 31 51 52 74 64 67 55 72 -159 90 -69 6 -73 5 -73 -14z"/>
<path d="M8335 11141 c-22 -10 -52 -31 -67 -47 -30 -32 -78 -133 -114 -239 -48 -139 -65 -361 -32 -402 19 -23 47 -15 53 15 3 15 10 47 16 72 6 25 17 77 25 115 8 39 19 88 25 110 l10 40 87 0 c82 0 91 2 138 33 71 45 84 62 90 119 5 40 2 58 -20 101 -47 93 -124 123 -211 83z m121 -50 c12 -9 31 -36 43 -60 31 -61 21 -103 -34 -141 -47 -33 -103 -51 -90 -30 6 10 -4 12 -49 8 -53 -4 -56 -3 -56 18 0 12 5 35 10 50 6 15 11 47 12 72 0 39 5 47 41 73 46 33 91 37 123 10z"/>
<path d="M9780 11102 c-40 -20 -85 -91 -102 -161 -6 -25 -22 -84 -35 -130 -19 -68 -23 -107 -23 -215 0 -140 9 -200 34 -224 12 -12 18 -13 29 -4 11 9 16 51 20 165 8 211 6 204 78 209 71 5 102 25 144 93 27 44 30 56 28 126 -1 81 -19 131 -52 149 -29 15 -82 12 -121 -8z m109 -63 c6 -18 11 -58 11 -89 0 -45 -6 -66 -26 -96 -36 -54 -51 -64 -101 -64 -42 0 -43 1 -37 28 3 15 17 51 31 80 28 59 25 87 -8 77 -20 -7 -20 -6 -3 22 35 55 56 73 90 73 27 0 34 -5 43 -31z"/>
<path d="M6418 11051 c-25 -16 -56 -31 -69 -33 -18 -2 -25 -13 -34 -58 -7 -30 -28 -94 -48 -142 -45 -113 -111 -343 -104 -363 10 -25 46 -18 58 13 38 94 54 135 76 199 22 64 27 71 43 63 10 -6 50 -10 88 -10 57 0 79 5 128 30 111 57 147 103 137 175 -7 53 -52 114 -104 141 -48 24 -119 18 -171 -15z m198 -74 c36 -43 33 -98 -7 -131 -55 -46 -113 -74 -170 -80 -65 -7 -73 -1 -82 60 -5 32 -1 51 18 90 64 128 163 153 241 61z"/>
<path d="M1815 11004 c-243 -22 -579 -108 -593 -151 -5 -19 20 -16 112 11 132 39 355 85 446 92 47 3 139 6 205 5 119 -1 160 -3 665 -41 482 -35 791 -43 1425 -37 455 4 631 9 730 21 72 9 175 20 229 26 110 11 136 17 136 30 0 25 -146 24 -294 0 -129 -21 -531 -40 -845 -40 -442 1 -1166 26 -1406 49 -55 5 -194 15 -310 21 -115 6 -229 15 -252 20 -50 12 -66 11 -248 -6z"/>
<path d="M9295 10989 c-9 -16 -19 -52 -22 -80 l-6 -49 -78 0 c-72 0 -79 -2 -79 -20 0 -18 7 -20 75 -20 75 0 75 0 75 -27 1 -44 27 -154 39 -166 23 -23 32 15 25 105 l-6 86 48 7 c70 9 134 34 134 52 0 12 -10 14 -62 8 -34 -4 -74 -11 -90 -15 -34 -10 -36 5 -12 76 8 25 13 52 10 60 -9 24 -35 16 -51 -17z"/>
<path d="M7112 10978 c6 -45 202 -93 380 -93 103 0 106 28 3 40 -56 6 -149 21 -240 36 -33 6 -70 17 -82 25 -35 22 -65 18 -61 -8z"/>
<path d="M7170 10820 c0 -21 2 -21 204 -18 112 2 208 6 212 11 18 18 -20 22 -212 25 -202 3 -204 3 -204 -18z"/>
<path d="M8532 10760 c-24 -21 -55 -40 -70 -42 -16 -2 -27 -9 -27 -18 0 -19 66 -26 96 -9 20 10 21 9 16 -17 -4 -16 -12 -71 -19 -122 -11 -83 -10 -94 4 -109 29 -28 48 -1 48 69 0 55 6 92 32 195 13 52 4 93 -20 93 -9 -1 -36 -18 -60 -40z"/>
<path d="M9980 10684 c-49 -33 -64 -69 -34 -81 9 -3 27 6 45 23 22 21 32 25 41 16 15 -15 -31 -82 -84 -125 -24 -19 -38 -39 -38 -54 0 -21 4 -23 53 -23 41 0 63 6 99 29 50 32 78 65 78 93 0 24 -13 23 -36 -3 -17 -19 -65 -49 -78 -49 -3 0 10 21 29 46 41 54 45 91 12 122 -28 26 -54 28 -87 6z"/>
<path d="M18910 10601 c0 -14 12 -22 48 -31 122 -31 117 -35 -46 -33 -645 10 -1013 15 -1912 23 -957 9 -1373 19 -1530 35 -54 6 -68 5 -79 -9 -11 -13 -11 -19 -1 -31 15 -18 40 -20 40 -4 0 7 9 9 28 4 15 -4 128 -11 252 -16 277 -10 477 -22 482 -29 37 -46 48 -82 48 -164 0 -81 -2 -91 -31 -132 -17 -25 -49 -57 -72 -72 -23 -15 -45 -31 -49 -37 -11 -15 -142 60 -366 208 -31 20 -77 50 -101 65 -88 54 -147 95 -173 120 -27 25 -58 25 -58 -1 0 -21 113 -116 152 -127 10 -3 41 -22 70 -42 196 -140 329 -218 552 -326 188 -91 504 -262 611 -330 39 -24 106 -68 150 -97 44 -29 134 -87 200 -130 175 -112 327 -218 461 -321 102 -78 254 -178 510 -335 81 -50 688 -357 784 -396 41 -17 127 -54 190 -82 l115 -51 -60 0 c-87 0 -228 -19 -236 -32 -19 -31 34 -59 74 -40 40 18 128 32 206 32 73 0 78 -1 104 -31 30 -35 56 -35 73 -1 10 20 13 21 24 7 7 -8 23 -15 37 -15 20 0 24 4 21 23 -2 15 -18 29 -50 45 -31 14 -49 30 -52 45 -3 12 -7 281 -10 597 -3 316 -10 602 -16 635 -17 100 -25 626 -11 709 22 123 25 126 32 26 10 -125 23 -181 45 -197 29 -21 47 -17 40 10 -14 47 -26 134 -27 192 -1 98 -22 189 -44 194 -10 2 -24 -4 -31 -13 -11 -15 -12 -15 -19 1 -5 10 -9 31 -10 46 -2 16 -7 33 -12 38 -15 15 -279 89 -317 89 -28 0 -36 -4 -36 -19z m-624 -97 l370 -5 -7 -52 c-9 -63 -12 -689 -3 -711 5 -14 33 -16 202 -16 108 0 209 -4 226 -9 63 -19 120 -29 133 -24 22 9 15 30 -14 40 -72 26 -137 33 -308 33 l-185 0 0 348 c0 191 3 357 6 370 7 23 7 23 158 18 83 -3 191 -9 240 -13 95 -8 97 -12 29 -47 -49 -25 -103 -76 -103 -97 0 -36 27 -32 70 10 24 23 48 41 55 41 7 0 24 10 39 21 20 16 30 19 39 10 8 -8 -1 -32 -32 -93 -24 -46 -55 -112 -68 -147 -13 -35 -30 -75 -37 -90 -7 -14 -11 -32 -9 -38 8 -22 42 -14 60 15 9 15 31 45 48 68 l30 40 0 -235 c0 -155 6 -292 18 -399 14 -134 17 -256 17 -700 l-1 -537 -103 108 c-68 71 -110 107 -124 107 -39 0 -24 -37 44 -110 37 -38 62 -70 56 -70 -11 0 -150 61 -317 138 -212 99 -654 330 -770 403 -71 45 -170 106 -220 137 -49 30 -137 91 -194 136 -129 101 -253 187 -446 312 -82 54 -206 134 -275 179 -159 105 -312 191 -574 326 l-208 107 45 26 c29 17 59 49 86 88 40 60 41 63 41 148 0 74 -4 94 -25 134 l-25 47 833 -6 c457 -3 999 -8 1203 -11z m929 -14 c-3 -5 -10 -10 -16 -10 -5 0 -9 5 -9 10 0 6 7 10 16 10 8 0 12 -4 9 -10z"/>
<path d="M16774 10343 c-14 -21 -35 -54 -47 -73 -23 -35 -23 -35 -97 -35 -57 0 -89 -6 -134 -25 -76 -32 -103 -66 -90 -112 10 -33 10 -33 75 -32 52 1 79 8 144 38 43 20 82 41 86 47 9 16 43 -5 86 -52 37 -41 120 -96 129 -86 3 3 0 15 -6 27 -16 30 -120 134 -148 149 l-22 12 30 52 c16 29 41 64 56 79 29 30 25 48 -12 48 -17 0 -32 -11 -50 -37z m-134 -173 c-49 -38 -180 -77 -180 -52 1 31 89 71 160 71 l45 1 -25 -20z"/>
<path d="M19796 9985 c-7 -18 30 -45 63 -45 29 0 101 -21 101 -29 0 -4 -13 -15 -30 -24 -33 -20 -40 -47 -12 -47 9 0 34 11 55 25 36 25 45 47 29 72 -10 15 -96 43 -134 43 -15 0 -30 5 -33 10 -9 15 -32 12 -39 -5z"/>
<path d="M19760 9919 c-47 -4 -129 -10 -182 -14 -88 -7 -98 -10 -98 -27 0 -19 5 -20 93 -14 223 14 262 18 279 33 16 14 16 35 0 31 -4 -1 -45 -5 -92 -9z"/>
<path d="M19610 9701 c-19 -11 -48 -31 -64 -46 -29 -27 -29 -27 -22 -127 4 -55 19 -150 33 -211 39 -169 42 -188 43 -239 0 -59 8 -78 30 -78 34 0 38 43 16 196 -28 196 -30 177 23 195 25 8 46 20 46 26 0 6 27 31 60 56 100 75 112 99 92 178 -16 63 -175 93 -257 50z m176 -42 c27 -16 34 -27 34 -53 0 -28 -9 -39 -69 -86 -38 -30 -85 -60 -105 -67 -33 -11 -36 -10 -36 8 0 10 -7 19 -15 19 -13 0 -15 12 -13 71 3 64 6 74 29 91 53 39 128 47 175 17z"/>
<path d="M2907 9608 c-2 -7 4 -24 13 -38 67 -97 110 -264 117 -455 4 -112 2 -153 -12 -204 -22 -84 -57 -154 -92 -180 l-28 -20 33 -1 c18 0 42 5 53 10 27 15 64 94 89 190 20 77 21 95 11 224 -14 203 -58 366 -123 459 -20 28 -53 36 -61 15z"/>
<path d="M7964 9584 c-47 -23 -81 -61 -66 -76 8 -8 21 -5 51 15 22 15 43 27 46 27 8 0 6 -77 -6 -150 -10 -64 -9 -73 12 -115 27 -54 54 -73 114 -82 38 -5 51 -2 86 21 77 51 111 178 74 279 -13 38 -13 39 8 33 68 -19 121 -27 145 -21 27 7 27 7 -12 27 -47 24 -183 58 -232 58 -27 0 -34 -4 -34 -19 0 -11 9 -22 20 -26 58 -18 85 -128 54 -215 -34 -94 -110 -120 -160 -55 -25 33 -26 39 -19 103 13 108 9 171 -11 193 -21 23 -29 23 -70 3z"/>
<path d="M4302 9535 c-35 -29 -45 -60 -26 -76 12 -10 20 -7 41 12 l26 24 -8 -60 c-3 -33 -10 -78 -15 -100 -5 -22 -14 -71 -21 -109 l-12 -68 -36 7 c-105 19 -121 19 -121 -3 0 -18 10 -23 59 -33 84 -16 86 -18 73 -75 -21 -90 -25 -163 -12 -179 27 -32 81 -16 143 43 68 66 34 87 -43 26 l-45 -36 -3 34 c-1 18 3 60 11 93 l14 60 172 5 173 5 54 -57 c54 -56 54 -57 54 -120 0 -89 -36 -198 -88 -267 -57 -74 -150 -116 -166 -75 -11 30 -6 105 10 137 9 18 36 58 61 90 25 32 43 60 40 63 -10 10 -64 -25 -100 -65 -62 -68 -79 -112 -71 -182 12 -103 59 -132 152 -94 124 52 234 265 217 419 -6 56 -11 65 -58 113 -43 44 -48 54 -37 67 11 14 9 16 -12 16 -17 0 -29 8 -36 25 -11 24 -11 24 46 27 43 2 57 7 57 18 0 12 -17 16 -82 18 -74 3 -82 1 -88 -17 -3 -11 1 -34 11 -52 l16 -32 -152 6 c-84 3 -154 8 -155 9 -2 2 6 48 16 103 30 157 35 249 15 280 -21 31 -37 32 -74 0z"/>
<path d="M7010 9505 c-10 -12 -10 -18 0 -30 7 -9 19 -14 27 -11 16 7 22 -19 25 -109 3 -64 5 -70 26 -73 18 -3 26 6 46 48 22 47 112 140 137 140 5 0 9 -24 9 -53 0 -52 12 -77 36 -77 6 0 35 16 63 35 28 19 53 35 56 35 3 0 5 -37 5 -83 0 -89 13 -122 45 -116 17 4 19 13 16 109 -1 57 -7 112 -12 122 -14 26 -67 23 -112 -7 l-37 -26 0 30 c0 16 -5 42 -10 57 -10 24 -14 26 -55 22 -34 -4 -56 -16 -97 -52 -59 -52 -68 -55 -68 -26 0 12 -7 34 -15 50 -12 23 -23 30 -44 30 -16 0 -34 -7 -41 -15z"/>
<path d="M16463 9441 c-5 -20 -10 -21 -184 -21 -172 0 -179 -1 -179 -20 0 -19 7 -20 173 -20 94 0 196 -3 226 -7 48 -5 54 -4 48 10 -7 18 16 21 62 8 21 -6 22 -8 7 -20 -21 -17 -21 -41 0 -41 29 0 75 41 72 63 -3 22 -9 24 -118 47 -25 5 -58 12 -73 16 -23 5 -29 3 -34 -15z"/>
<path d="M7687 9393 c-11 -11 -8 -228 4 -262 9 -24 17 -31 32 -29 19 3 20 9 18 137 -1 73 -5 139 -8 147 -5 14 -35 19 -46 7z"/>
<path d="M8493 9364 c-3 -9 -1 -31 5 -48 6 -17 25 -85 42 -150 16 -66 32 -121 35 -124 2 -2 11 -2 20 1 28 11 13 111 -42 279 -19 55 -47 75 -60 42z"/>
<path d="M2786 9348 c-19 -68 -25 -135 -26 -259 0 -154 6 -175 47 -167 16 3 18 17 19 143 0 77 4 163 8 192 11 67 2 103 -25 103 -11 0 -21 -6 -23 -12z"/>
<path d="M5227 9313 c-4 -3 -7 -36 -7 -73 0 -71 -22 -150 -62 -219 l-23 -41 -83 0 c-125 0 -161 -26 -146 -105 14 -78 101 -73 199 11 l64 54 123 0 c124 0 168 10 138 30 -8 5 -64 10 -123 10 -60 0 -107 3 -105 8 64 123 94 258 72 316 -6 16 -35 22 -47 9z m-137 -377 c0 -10 -95 -66 -112 -66 -15 0 -19 6 -16 28 2 22 9 28 38 33 44 8 90 10 90 5z"/>
<path d="M16344 9212 c-63 -46 -65 -64 -62 -462 l3 -345 25 0 25 0 5 373 5 373 25 20 c37 29 86 18 133 -31 31 -33 37 -46 37 -82 0 -24 -6 -50 -13 -58 -14 -18 -81 -50 -103 -50 -25 0 -74 -30 -74 -45 0 -25 21 -28 79 -9 138 46 178 87 166 174 -12 89 -75 150 -171 165 -33 6 -45 2 -80 -23z"/>
<path d="M5730 9181 c0 -14 9 -23 28 -28 35 -10 358 -10 368 0 16 15 -10 21 -129 28 -67 4 -155 11 -194 14 -69 6 -73 6 -73 -14z"/>
<path d="M20134 9192 c-14 -10 -90 -168 -102 -213 -5 -20 -6 -42 -2 -49 12 -19 44 -7 51 20 l7 25 1 -26 c1 -14 -4 -84 -10 -155 -12 -148 -5 -188 34 -182 17 2 21 8 19 28 -6 41 -4 78 7 210 11 114 15 152 36 277 9 54 -11 86 -41 65z m-37 -214 c-3 -8 -6 -5 -6 6 -1 11 2 17 5 13 3 -3 4 -12 1 -19z"/>
<path d="M9755 9069 c-55 -4 -248 -16 -430 -26 -396 -22 -1293 -23 -1733 -1 -153 7 -349 13 -437 13 -155 0 -162 -1 -222 -29 -59 -27 -76 -47 -53 -61 6 -3 38 5 73 19 78 31 220 36 472 18 409 -30 1703 -25 2140 8 66 5 260 14 430 20 171 5 325 12 343 15 37 7 42 20 10 29 -31 8 -470 5 -593 -5z"/>
<path d="M6110 9059 c-56 -10 -249 -31 -310 -35 -25 -1 -51 -2 -57 -3 -7 -1 -13 -11 -13 -23 0 -21 2 -21 120 -14 151 8 299 30 384 57 36 11 66 22 66 24 0 8 -141 3 -190 -6z"/>
<path d="M7035 8787 c-85 -128 -131 -355 -98 -486 31 -124 82 -201 149 -227 24 -9 47 -14 51 -10 4 4 -14 26 -39 49 -51 47 -78 95 -103 182 -36 122 0 327 80 457 40 64 44 88 15 88 -13 0 -32 -18 -55 -53z"/>
<path d="M9107 8773 c-15 -14 -4 -24 56 -51 35 -16 73 -42 85 -57 35 -44 63 -150 69 -260 5 -90 3 -109 -22 -190 -43 -139 -88 -222 -153 -282 -31 -28 -54 -54 -51 -57 11 -11 75 14 112 45 48 40 107 155 145 286 28 93 29 104 21 208 -8 118 -33 215 -71 271 -36 55 -165 114 -191 87z"/>
<path d="M7203 8728 c-5 -7 -15 -40 -22 -73 -7 -33 -17 -79 -23 -102 -6 -23 -11 -65 -12 -95 -1 -50 0 -53 24 -53 22 0 26 5 31 40 9 70 77 178 131 209 l31 19 -8 -54 c-13 -87 -12 -120 7 -132 13 -9 29 2 85 56 37 37 74 67 80 67 10 0 13 -28 13 -107 0 -115 6 -137 36 -131 17 3 19 15 22 126 3 152 -2 166 -65 159 -34 -4 -54 -13 -82 -41 -45 -44 -53 -45 -39 -6 6 19 7 44 1 68 -8 32 -13 37 -41 40 -25 3 -45 -5 -83 -32 l-49 -36 2 42 c2 32 -1 43 -13 46 -9 1 -20 -3 -26 -10z"/>
<path d="M9770 8674 c-6 -14 -10 -29 -10 -33 0 -17 59 -60 105 -76 64 -22 239 -31 280 -15 29 12 29 12 8 20 -12 5 -61 12 -110 15 -118 8 -136 13 -129 31 9 24 -15 62 -47 74 -53 18 -86 13 -97 -16z m115 -44 c10 -11 15 -20 11 -20 -12 0 -76 29 -76 34 0 15 49 4 65 -14z"/>
<path d="M16634 8660 c-36 -24 -59 -69 -49 -99 10 -31 43 -27 51 7 14 59 72 83 108 44 15 -18 15 -21 -10 -58 -14 -21 -51 -65 -80 -96 -57 -60 -61 -67 -42 -86 31 -31 254 2 288 43 22 27 -15 29 -106 5 -118 -30 -129 -23 -67 43 54 57 83 104 83 135 0 10 -14 33 -31 50 -25 26 -39 32 -73 32 -24 0 -54 -9 -72 -20z"/>
<path d="M8047 8654 c-4 -4 -7 -36 -7 -71 l0 -63 -55 0 c-48 0 -55 -3 -55 -20 0 -16 8 -19 62 -22 l63 -3 13 -65 c8 -36 16 -75 18 -87 3 -15 12 -23 26 -23 20 0 20 4 16 73 -3 39 -9 80 -13 89 -5 13 0 17 22 20 40 4 37 32 -4 36 -32 3 -32 3 -35 70 -3 59 -6 67 -23 70 -12 2 -24 0 -28 -4z"/>
<path d="M8706 8610 c-36 -27 -68 -50 -71 -50 -3 0 -5 8 -5 18 0 9 -9 28 -19 41 -15 20 -24 23 -53 17 -19 -3 -45 -17 -58 -31 -30 -32 -38 -31 -42 3 -2 21 -8 27 -28 27 -24 0 -25 -3 -32 -90 -15 -175 -16 -160 12 -160 17 0 26 6 28 20 9 56 46 122 85 152 23 17 45 29 49 27 13 -8 9 -62 -7 -101 -38 -90 -2 -84 95 16 42 43 86 83 98 90 21 11 22 10 22 -36 0 -26 -7 -86 -15 -133 -8 -47 -15 -90 -15 -96 0 -17 31 -27 44 -14 11 11 12 17 26 105 40 250 14 293 -114 195z"/>
<path d="M9494 8639 c-60 -27 -88 -108 -41 -117 12 -3 21 6 28 28 15 43 96 81 129 60 12 -7 12 -24 2 -117 -24 -214 -18 -233 73 -233 49 0 59 4 107 43 62 50 122 155 116 203 -3 27 -7 23 -64 -61 -63 -92 -127 -150 -161 -143 -19 4 -19 8 -13 258 2 55 -1 66 -20 82 -29 24 -102 22 -156 -3z"/>
<path d="M7767 8473 c-4 -3 -7 -25 -7 -47 0 -23 -5 -70 -11 -106 -12 -77 -6 -110 21 -110 21 0 25 11 34 95 4 28 9 67 12 87 8 51 -2 88 -25 88 -10 0 -21 -3 -24 -7z"/>
<path d="M8942 8412 c-18 -15 -32 -35 -32 -45 0 -24 30 -34 44 -15 6 8 23 23 39 32 27 18 27 18 27 -11 0 -17 -11 -47 -25 -67 -42 -62 -38 -66 75 -66 89 0 100 2 110 20 10 19 8 20 -60 20 -38 0 -70 2 -70 5 0 4 7 20 16 37 17 32 13 80 -7 105 -20 23 -81 15 -117 -15z"/>
<path d="M6517 7613 c-16 -16 -4 -30 43 -46 66 -24 154 -95 158 -128 2 -20 -12 -41 -63 -94 -56 -58 -66 -72 -63 -99 5 -48 41 -61 188 -64 125 -2 125 -2 101 18 -16 14 -38 20 -75 21 -66 0 -144 13 -157 26 -6 6 13 33 56 77 36 36 65 74 66 84 5 72 -38 124 -145 178 -67 33 -96 41 -109 27z"/>
<path d="M8050 7580 c0 -15 7 -20 28 -20 60 0 202 -88 202 -125 0 -37 -57 -100 -137 -153 -74 -47 -66 -74 25 -88 74 -10 288 -11 298 -1 16 16 -19 25 -120 32 -56 4 -116 10 -134 13 l-32 7 56 44 c97 75 120 148 68 210 -60 72 -254 134 -254 81z"/>
<path d="M4738 7529 c-17 -7 -28 -18 -28 -30 0 -22 2 -22 87 -10 82 12 144 -5 158 -43 11 -31 9 -34 -108 -112 -105 -71 -112 -124 -21 -157 27 -9 87 -20 134 -24 78 -6 84 -5 72 10 -14 17 -105 47 -141 47 -30 0 -72 22 -69 36 2 6 39 36 82 65 44 30 88 65 98 79 17 23 17 30 6 64 -21 62 -53 79 -155 83 -49 1 -100 -2 -115 -8z"/>
<path d="M2994 7385 c-3 -8 8 -34 26 -58 19 -26 44 -87 63 -148 31 -103 31 -106 32 -324 l0 -220 -33 -64 c-19 -35 -48 -76 -65 -92 l-31 -29 30 0 c43 0 69 22 108 93 51 90 60 168 47 387 -13 224 -45 341 -119 438 -26 34 -49 41 -58 17z"/>
<path d="M4393 7348 c-35 -17 -89 -132 -108 -228 -47 -247 -59 -426 -30 -450 30 -25 42 4 49 123 6 122 19 236 31 280 l7 27 34 -30 c32 -28 41 -30 107 -29 87 0 134 15 160 51 18 25 19 33 9 94 -13 76 -45 125 -102 155 -38 21 -121 24 -157 7z m149 -61 c37 -27 58 -75 58 -131 0 -53 -9 -60 -90 -69 -65 -8 -101 7 -110 43 -4 18 -13 25 -28 24 -30 -1 -28 19 11 91 25 48 38 61 62 66 37 8 62 2 97 -24z"/>
<path d="M7712 7315 c-61 -51 -91 -221 -92 -516 0 -163 3 -199 15 -209 26 -22 42 5 49 83 3 40 10 162 16 272 14 306 24 345 88 345 45 0 50 -3 96 -58 52 -63 50 -102 -6 -153 -24 -22 -55 -47 -70 -56 -35 -22 -37 -53 -5 -53 25 0 160 108 171 137 14 36 -6 104 -46 155 -64 80 -157 103 -216 53z"/>
<path d="M6160 7293 c-36 -25 -47 -40 -83 -113 -36 -75 -44 -135 -53 -410 -6 -164 -4 -187 10 -199 12 -10 19 -11 30 -2 13 11 15 29 34 311 5 59 10 88 15 76 6 -16 16 -18 75 -14 55 3 75 9 109 33 23 17 47 42 54 57 24 57 -16 213 -64 254 -34 29 -91 32 -127 7z m75 -30 c29 -11 65 -101 65 -165 0 -53 -2 -59 -32 -81 -41 -30 -97 -40 -122 -21 -11 7 -23 11 -27 8 -5 -3 -9 9 -9 25 0 17 -4 31 -9 31 -28 0 44 157 86 189 33 24 28 22 48 14z"/>
<path d="M5457 7148 c-8 -18 -17 -50 -21 -70 l-7 -38 -62 0 c-87 0 -137 -15 -137 -42 0 -19 4 -20 53 -14 167 21 151 22 144 -5 -4 -13 -9 -76 -12 -139 -6 -114 2 -157 24 -135 11 11 41 212 41 272 0 29 3 32 40 38 65 11 68 35 5 38 -36 2 -36 2 -29 37 12 60 10 84 -8 88 -12 2 -22 -7 -31 -30z"/>
<path d="M2757 7088 c-50 -23 -69 -38 -74 -56 -8 -33 19 -61 41 -42 9 7 16 18 16 24 0 13 81 56 105 56 11 0 15 -11 15 -39 0 -31 -11 -56 -50 -114 -27 -41 -56 -80 -65 -87 -8 -7 -15 -21 -15 -31 0 -16 8 -19 53 -19 51 0 164 27 206 49 27 15 27 41 0 41 -11 0 -52 -10 -90 -21 -39 -12 -72 -19 -74 -17 -3 2 11 27 29 54 52 78 68 122 61 171 -11 72 -53 80 -158 31z"/>
<path d="M7225 7070 c-22 -4 -69 -11 -105 -14 -77 -8 -95 -17 -86 -41 7 -18 30 -18 186 5 36 5 87 12 113 16 38 4 48 9 45 22 -2 13 -15 17 -58 19 -30 1 -73 -2 -95 -7z"/>
<path d="M7235 6924 c-127 -15 -165 -26 -165 -46 0 -19 4 -20 83 -13 100 8 190 31 184 48 -4 12 -49 17 -102 11z"/>
<path d="M6445 6828 c-11 -34 -35 -179 -37 -223 -3 -47 -2 -50 22 -50 23 0 26 5 32 60 4 33 13 92 21 130 16 80 13 95 -14 95 -11 0 -21 -6 -24 -12z"/>
<path d="M7930 6805 c-23 -28 -4 -47 43 -43 42 3 42 3 45 -32 2 -28 -4 -43 -32 -76 -33 -38 -40 -54 -37 -81 1 -16 59 -17 98 -2 30 11 88 62 104 91 11 21 -1 17 -70 -19 -24 -13 -45 -23 -47 -23 -2 0 8 17 22 38 22 31 25 44 20 82 -4 28 -14 51 -27 63 -27 21 -102 23 -119 2z"/>
<path d="M6790 6080 c0 -16 7 -20 36 -20 89 0 101 -55 29 -137 -50 -57 -57 -83 -23 -83 12 0 47 -5 77 -11 31 -7 76 -9 101 -5 104 15 87 46 -25 46 -86 0 -104 9 -74 36 36 32 50 70 43 114 -9 57 -42 80 -110 80 -47 0 -54 -2 -54 -20z"/>
<path d="M11423 5963 c-7 -2 -13 -13 -13 -24 0 -17 8 -19 60 -19 57 0 60 -1 85 -37 41 -61 33 -105 -34 -194 -42 -55 -66 -115 -56 -141 17 -43 166 -65 213 -32 36 25 26 32 -46 32 -128 -1 -137 15 -66 112 75 103 84 148 43 237 -13 27 -31 47 -53 57 -32 15 -106 20 -133 9z"/>
<path d="M15165 5910 c-9 -15 20 -40 46 -40 26 0 80 -49 96 -87 11 -29 11 -37 -2 -62 -16 -31 -75 -83 -137 -120 -26 -16 -38 -30 -38 -46 0 -45 21 -50 204 -50 145 0 171 2 171 15 0 12 -26 16 -145 22 -180 9 -183 10 -144 30 84 45 153 125 153 178 1 45 -35 107 -77 135 -47 31 -115 44 -127 25z"/>
<path d="M4221 5878 c-5 -13 -20 -50 -34 -83 -36 -88 -104 -290 -122 -365 -20 -84 -55 -394 -55 -486 0 -82 20 -158 60 -229 38 -67 74 -99 139 -125 81 -32 96 -20 30 22 -137 89 -188 217 -169 425 18 208 30 306 45 372 18 77 85 276 126 375 35 82 37 116 9 116 -12 0 -24 -9 -29 -22z"/>
<path d="M8030 5861 c0 -19 6 -21 50 -21 28 0 66 -7 85 -14 31 -14 35 -19 35 -54 0 -35 -6 -45 -60 -94 -33 -30 -60 -59 -60 -64 0 -6 6 -19 14 -30 13 -17 27 -19 163 -19 125 0 148 2 148 15 0 11 -13 16 -45 17 -25 2 -83 5 -128 9 l-84 6 50 46 c56 52 67 79 55 136 -13 60 -47 80 -144 85 -75 3 -79 2 -79 -18z"/>
<path d="M6610 5801 c0 -12 23 -33 63 -60 78 -50 177 -163 222 -252 68 -133 116 -415 94 -549 -13 -81 -68 -278 -86 -310 -9 -15 0 -9 24 16 46 50 86 143 109 255 32 160 -6 432 -85 594 -51 106 -145 218 -235 277 -76 52 -106 60 -106 29z"/>
<path d="M13910 5813 c-55 -20 -80 -37 -80 -55 0 -17 5 -19 28 -15 15 2 41 11 59 18 26 11 34 10 48 -1 14 -12 16 -26 12 -74 -5 -52 -10 -64 -41 -94 -62 -57 -44 -72 84 -72 90 0 120 8 120 32 0 4 -37 8 -82 8 l-81 0 20 23 c38 43 48 113 27 190 -10 32 -73 55 -114 40z"/>
<path d="M10090 5780 c0 -14 7 -20 24 -20 30 0 103 -33 141 -64 28 -22 29 -25 15 -50 -7 -15 -28 -36 -46 -47 -78 -48 -117 -126 -75 -149 24 -12 231 -13 251 0 26 17 0 25 -101 31 -55 3 -103 9 -107 13 -4 4 11 22 33 39 111 87 133 141 78 192 -69 63 -213 101 -213 55z"/>
<path d="M7378 5570 c-26 -27 -48 -57 -48 -65 0 -26 44 -17 64 14 21 30 55 56 63 47 3 -3 0 -29 -6 -58 -7 -29 -17 -99 -23 -154 -11 -101 -11 -101 15 -147 46 -79 121 -86 222 -22 45 30 122 121 137 164 1 6 36 15 77 21 79 11 128 33 137 63 9 28 0 30 -42 12 -22 -9 -60 -20 -86 -24 l-48 -8 6 52 c6 45 3 55 -19 81 -23 26 -31 29 -81 28 -86 -2 -135 -41 -136 -106 0 -44 27 -69 94 -88 45 -12 45 -12 31 -40 -38 -73 -134 -150 -186 -150 -18 0 -35 9 -48 26 -29 36 -28 146 0 259 18 72 20 90 9 115 -11 25 -18 30 -48 30 -30 0 -44 -8 -84 -50z m412 -60 c8 -14 8 -32 0 -61 -12 -45 -17 -46 -93 -14 -39 16 -43 25 -26 56 21 40 101 53 119 19z"/>
<path d="M10952 5539 c-49 -25 -82 -62 -82 -94 0 -28 68 -65 118 -65 20 0 32 -5 32 -13 0 -27 -101 -166 -154 -210 -83 -71 -91 -67 -81 46 5 50 9 133 9 183 1 105 -13 134 -67 134 -39 0 -117 -75 -117 -114 0 -33 34 -36 51 -3 18 34 51 67 67 67 13 0 14 -20 7 -142 -14 -240 -14 -240 16 -257 42 -23 88 -7 157 55 60 54 157 187 168 230 4 17 16 23 53 28 55 7 88 27 76 46 -8 12 -61 10 -98 -5 -16 -7 -18 -2 -16 31 3 57 -8 81 -43 93 -42 15 -46 14 -96 -10z m86 -71 c3 -38 3 -38 -37 -38 -77 0 -91 21 -38 58 46 33 71 26 75 -20z"/>
<path d="M14617 5540 c-11 -16 -13 -28 -7 -40 11 -21 61 -40 103 -40 28 0 29 -1 22 -37 -10 -60 -40 -113 -101 -181 -79 -88 -139 -132 -180 -132 -32 0 -34 2 -34 35 0 19 7 52 16 74 43 107 47 220 9 261 -28 31 -125 28 -182 -5 -41 -25 -63 -61 -48 -84 10 -17 20 -13 57 23 44 43 114 58 136 30 18 -24 9 -126 -17 -192 -10 -26 -21 -68 -25 -94 -6 -43 -4 -50 18 -73 36 -36 97 -34 157 3 60 39 192 181 219 238 13 25 25 66 28 90 l5 44 74 0 c72 0 113 11 113 30 0 6 -41 10 -97 10 -90 0 -99 2 -123 25 -18 18 -42 27 -77 31 -44 6 -52 4 -66 -16z"/>
<path d="M4365 5508 c-2 -7 -6 -69 -9 -138 -3 -69 -8 -161 -12 -205 -5 -68 -3 -83 10 -95 13 -10 20 -10 28 -2 18 18 37 101 38 163 0 53 37 170 60 193 21 21 35 -16 40 -107 5 -90 6 -92 30 -92 19 0 26 6 28 24 9 59 108 201 142 201 42 0 76 -212 51 -321 -10 -43 -1 -62 24 -57 32 6 50 107 38 208 -18 148 -41 204 -89 216 -42 11 -109 -28 -144 -83 -26 -40 -30 -43 -30 -22 0 13 -9 39 -20 57 -24 38 -63 43 -103 12 l-26 -20 -3 37 c-2 31 -7 39 -26 41 -12 2 -24 -3 -27 -10z"/>
<path d="M5344 5495 c-4 -15 -4 -68 -2 -117 l6 -90 -68 6 c-47 5 -70 3 -75 -4 -14 -22 21 -40 88 -47 l67 -6 1 -51 c0 -28 6 -67 13 -86 l13 -35 14 25 c8 15 13 52 13 91 l-1 66 51 13 c67 17 106 37 106 55 0 19 -19 19 -86 -1 -31 -9 -61 -13 -69 -10 -11 4 -15 31 -17 108 -3 98 -4 103 -25 106 -17 3 -24 -3 -29 -23z"/>
<path d="M8858 5493 c-6 -16 -16 -53 -22 -83 -13 -63 -21 -67 -132 -69 -65 -1 -89 -15 -78 -45 7 -18 39 -22 49 -6 3 6 39 10 78 10 l72 0 0 -138 c0 -135 7 -192 24 -192 18 0 24 39 29 187 l4 152 72 5 c39 4 89 7 111 9 28 1 40 7 40 17 0 12 -20 16 -112 18 l-112 3 5 32 c3 18 12 49 20 70 16 43 12 57 -17 57 -12 0 -24 -11 -31 -27z"/>
<path d="M9486 5481 c-4 -5 -13 -52 -22 -103 -8 -51 -22 -132 -31 -180 -17 -97 -14 -121 18 -116 17 2 25 15 35 56 22 87 119 261 146 262 4 0 9 -53 10 -117 3 -114 4 -118 26 -121 16 -3 27 5 40 28 25 47 135 160 155 160 15 0 17 -15 17 -131 0 -92 -5 -150 -17 -195 -15 -57 -16 -66 -3 -74 34 -22 48 -3 66 90 18 97 16 300 -4 338 -26 47 -112 19 -184 -61 l-37 -42 -1 40 c-1 75 -12 116 -36 131 -20 14 -26 14 -52 0 -16 -8 -44 -32 -61 -53 l-32 -38 5 40 c3 22 6 51 8 65 2 19 -2 26 -19 28 -11 2 -24 -1 -27 -7z"/>
<path d="M5865 5429 c-4 -6 -11 -61 -16 -122 -5 -62 -14 -150 -20 -196 -8 -71 -8 -87 5 -99 19 -20 41 -3 49 37 17 82 134 281 166 281 16 0 24 -35 30 -130 6 -91 7 -95 29 -95 20 0 28 12 56 86 43 116 92 177 120 149 6 -6 14 -64 18 -128 4 -64 11 -139 15 -167 7 -45 11 -50 33 -50 29 0 28 -16 11 199 -13 160 -27 199 -76 204 -41 3 -86 -27 -122 -82 -31 -46 -31 -46 -36 -18 -8 38 -44 82 -68 82 -44 0 -102 -49 -146 -124 -11 -18 -12 -13 -13 39 0 33 4 74 8 90 5 17 7 36 5 43 -6 15 -39 16 -48 1z"/>
<path d="M13444 5414 c-21 -14 -51 -39 -66 -57 -26 -29 -28 -30 -28 -9 0 39 -29 72 -63 72 -50 0 -114 -37 -150 -87 l-32 -46 -3 34 c-5 67 -11 81 -35 77 -21 -3 -22 -8 -27 -133 -3 -71 -8 -135 -13 -142 -11 -17 3 -43 23 -43 26 0 50 27 50 57 0 38 67 158 111 198 71 64 91 45 94 -85 3 -95 1 -90 25 -90 22 0 52 53 43 77 -12 30 98 153 137 153 9 0 27 -12 41 -26 22 -23 24 -34 24 -122 0 -74 -5 -108 -20 -144 -15 -37 -17 -50 -7 -60 18 -18 47 14 72 83 20 51 21 70 15 143 -5 70 -11 91 -33 120 -26 34 -66 56 -102 56 -10 0 -35 -12 -56 -26z"/>
<path d="M12134 5345 c-4 -8 -1 -21 5 -28 19 -24 170 -41 307 -34 134 6 165 17 129 43 -15 12 -31 13 -65 7 -65 -12 -235 -5 -301 12 -70 18 -68 18 -75 0z"/>
<path d="M5080 5198 c-11 -18 -22 -49 -25 -68 -4 -19 -13 -71 -21 -116 -17 -90 -12 -117 20 -112 17 2 22 12 27 53 11 93 29 182 44 217 10 26 11 38 3 46 -18 18 -27 15 -48 -20z"/>
<path d="M12150 5181 c0 -26 62 -38 242 -46 134 -7 223 -1 213 14 -5 9 -44 14 -275 36 -192 18 -180 19 -180 -4z"/>
<path d="M10092 5178 c-5 -7 -21 -60 -35 -118 -42 -172 -42 -216 -1 -208 15 2 20 15 26 58 3 30 17 101 31 157 17 72 21 105 14 112 -14 14 -22 14 -35 -1z"/>
<path d="M13760 5159 c-52 -23 -64 -39 -46 -57 11 -12 20 -10 54 7 62 32 72 29 72 -23 0 -37 -7 -53 -45 -99 -24 -30 -62 -69 -85 -87 -27 -21 -40 -40 -40 -56 0 -24 0 -24 110 -24 107 0 110 1 142 29 18 16 30 32 26 36 -3 3 -27 -1 -52 -9 -26 -9 -70 -16 -98 -16 l-50 0 66 71 c37 39 72 83 77 97 12 30 3 120 -13 139 -15 19 -67 15 -118 -8z"/>
<path d="M14935 5115 c-5 -2 -22 -6 -37 -9 -20 -5 -28 -13 -28 -27 0 -20 4 -21 55 -14 l56 7 -7 -29 c-9 -36 -24 -66 -68 -133 -40 -60 -44 -102 -12 -108 44 -9 126 10 177 41 57 35 84 66 95 111 6 27 4 26 -67 -28 -65 -51 -142 -86 -156 -72 -3 3 8 27 25 53 59 91 79 172 50 201 -11 11 -59 15 -83 7z"/>
<path d="M6490 5077 c-23 -12 -50 -32 -58 -45 -13 -19 -13 -22 2 -28 18 -7 44 3 84 32 22 16 22 16 22 -26 0 -32 -8 -53 -34 -89 -37 -51 -52 -106 -35 -127 17 -21 103 -17 148 6 45 22 101 93 101 127 0 13 -4 23 -8 23 -5 0 -32 -24 -60 -54 -96 -101 -166 -101 -96 0 34 50 39 63 39 115 0 32 -4 62 -10 67 -23 22 -53 22 -95 -1z"/>
<path d="M11246 5092 c-3 -5 -10 -50 -17 -101 -14 -107 -5 -145 34 -139 21 3 22 7 19 73 -2 39 1 88 6 110 5 22 7 46 5 53 -5 14 -39 17 -47 4z"/>
<path d="M4148 4333 c-76 -2 -138 -7 -138 -12 0 -5 123 -12 273 -16 369 -9 12433 -2 12443 8 4 4 4 10 0 15 -7 7 -12281 12 -12578 5z"/>
<path d="M16754 4303 c-10 -49 -10 -2456 0 -2506 4 -20 11 -37 16 -37 5 0 12 17 16 37 10 50 10 2457 0 2506 -4 20 -11 37 -16 37 -5 0 -12 -17 -16 -37z"/>
<path d="M3954 4263 c-10 -50 -10 -2287 0 -2335 4 -21 11 -38 16 -38 5 0 12 17 16 38 10 48 10 2285 0 2335 -4 20 -11 37 -16 37 -5 0 -12 -17 -16 -37z"/>
<path d="M14986 4033 c-4 -5 -445 -11 -979 -15 -535 -4 -1170 -12 -1412 -17 -242 -6 -741 -15 -1110 -21 -368 -6 -870 -15 -1115 -21 -245 -5 -864 -13 -1377 -17 -512 -4 -935 -10 -939 -14 -4 -5 -4 -11 0 -15 13 -13 1751 -9 2326 5 294 7 837 17 1205 22 369 6 859 15 1090 21 231 5 852 15 1380 20 528 5 1094 12 1258 15 l297 5 0 -50 c0 -45 3 -51 20 -51 19 0 21 5 18 68 l-3 67 -326 3 c-179 1 -329 -1 -333 -5z"/>
<path d="M7946 3932 c-3 -10 -29 -45 -57 -77 -28 -33 -80 -105 -117 -160 -209 -318 -272 -411 -346 -509 l-81 -109 -3 39 c-1 21 6 89 16 151 24 140 17 216 -23 251 -30 26 -63 28 -137 8 -75 -20 -108 -34 -108 -46 0 -19 30 -23 83 -10 29 7 70 13 92 14 36 1 40 -1 49 -33 6 -23 6 -61 -2 -120 -23 -165 -34 -274 -28 -296 7 -29 30 -37 62 -23 34 16 161 186 337 453 179 270 207 309 281 399 58 69 59 71 35 77 -39 11 -47 10 -53 -9z"/>
<path d="M15355 3797 c-28 -21 -9 -40 34 -34 51 6 78 -7 95 -47 21 -49 12 -68 -55 -120 -61 -48 -72 -72 -43 -100 12 -13 41 -16 145 -16 80 0 139 5 152 12 21 11 21 11 2 19 -11 4 -63 8 -115 9 -135 2 -141 6 -80 58 57 49 70 88 49 147 -24 65 -50 85 -112 85 -29 0 -61 -6 -72 -13z"/>
<path d="M12090 3781 c0 -14 10 -20 41 -24 59 -8 91 -41 87 -91 -3 -35 -9 -44 -45 -69 -44 -29 -58 -67 -31 -83 37 -23 179 -40 207 -25 35 19 24 27 -56 39 -88 14 -103 23 -70 41 85 45 65 185 -31 222 -13 5 -41 9 -63 9 -31 0 -39 -4 -39 -19z"/>
<path d="M10792 3763 c-19 -38 9 -55 48 -31 15 10 23 9 39 -6 33 -30 26 -50 -39 -115 -96 -97 -83 -114 84 -109 63 1 118 6 122 10 15 16 -9 23 -84 26 -111 5 -112 6 -65 55 22 23 45 51 51 63 14 26 4 65 -25 98 -19 21 -32 26 -73 26 -37 0 -52 -4 -58 -17z"/>
<path d="M8153 3724 c-78 -59 -112 -95 -148 -159 -71 -127 -91 -312 -46 -428 47 -122 192 -217 329 -217 23 0 24 2 12 14 -8 7 -40 21 -70 31 -97 31 -190 112 -220 192 -39 104 -19 273 46 389 31 56 81 107 162 163 17 12 32 29 32 37 0 26 -47 15 -97 -22z"/>
<path d="M14115 3730 c-12 -20 7 -30 56 -30 48 0 49 -1 49 -30 0 -18 -11 -42 -30 -63 -83 -95 -52 -167 72 -167 48 0 102 20 88 33 -3 2 -36 8 -75 13 -83 11 -92 26 -48 82 57 71 66 109 37 150 -13 19 -24 22 -79 22 -35 0 -67 -4 -70 -10z"/>
<path d="M10530 3680 c0 -12 12 -26 30 -35 117 -61 190 -218 178 -385 -9 -123 -107 -271 -233 -352 -61 -39 -42 -49 38 -21 70 24 142 98 194 199 50 96 57 127 54 227 -5 177 -75 307 -198 370 -43 22 -63 21 -63 -3z"/>
<path d="M12951 3626 c-6 -7 -15 -46 -20 -85 -5 -40 -11 -74 -13 -75 -8 -6 -139 -26 -172 -26 -30 0 -36 -3 -36 -21 0 -21 2 -22 104 -15 l104 7 4 -95 c3 -99 16 -132 41 -108 7 8 13 50 15 112 4 111 -6 99 100 115 33 5 42 11 40 23 -3 14 -16 17 -71 15 l-67 -1 0 31 c1 18 5 51 9 74 10 54 -11 82 -38 49z"/>
<path d="M11731 3576 c-42 -45 -10 -114 63 -139 15 -5 -31 -80 -76 -124 -80 -77 -202 -109 -243 -63 -20 23 -19 32 26 200 25 91 16 130 -27 130 -30 0 -104 -67 -104 -94 0 -32 30 -30 60 5 33 39 36 32 16 -37 -25 -87 -36 -144 -36 -183 0 -33 5 -42 38 -65 100 -69 290 9 374 155 l33 58 97 1 c78 0 100 3 114 18 17 16 15 17 -37 19 -30 2 -78 5 -106 9 -53 5 -53 6 -53 40 0 26 -8 44 -29 65 -37 37 -79 38 -110 5z m79 -47 c6 -11 10 -28 8 -37 -3 -14 -8 -13 -31 11 -28 27 -29 47 -2 47 8 0 19 -9 25 -21z"/>
<path d="M13347 3593 c-4 -3 -7 -38 -7 -77 0 -48 -8 -97 -24 -146 -32 -103 -38 -129 -31 -151 8 -24 44 -25 51 -1 20 63 85 181 119 214 63 61 108 45 78 -29 -15 -37 -17 -91 -4 -111 4 -8 19 -12 32 -10 31 4 54 50 52 105 -1 40 2 45 47 78 34 25 63 38 98 42 49 5 51 5 67 -27 22 -43 16 -138 -12 -200 -31 -67 -33 -77 -18 -90 20 -17 50 -8 51 15 1 11 12 43 25 70 43 91 26 228 -33 269 -42 30 -136 14 -202 -35 l-38 -28 -29 21 c-35 26 -87 20 -135 -17 l-34 -26 0 55 c0 30 -3 61 -6 70 -6 16 -35 22 -47 9z"/>
<path d="M14995 3588 c-73 -40 -55 -110 32 -124 l41 -6 -21 -37 c-30 -52 -75 -98 -135 -137 -53 -34 -66 -39 -109 -36 -20 2 -23 8 -23 42 0 22 5 59 11 83 7 26 9 65 5 100 -12 90 -54 117 -152 97 -44 -9 -54 -15 -54 -32 0 -19 4 -19 60 -13 42 5 65 3 75 -5 19 -15 19 -83 3 -198 -12 -83 -12 -85 11 -103 16 -13 39 -19 78 -19 46 0 65 6 115 37 81 50 138 107 168 170 23 48 29 53 70 62 76 16 100 29 100 51 0 24 -9 25 -74 5 -65 -20 -69 -19 -63 8 4 12 3 27 -1 33 -21 32 -97 44 -137 22z m85 -58 c0 -21 -30 -27 -64 -14 -25 10 0 34 35 34 22 0 29 -5 29 -20z"/>
<path d="M9341 3443 c-6 -21 -12 -51 -13 -68 l-3 -30 -87 -3 c-80 -3 -88 -5 -88 -22 0 -18 7 -20 81 -20 l81 0 -7 -93 c-6 -81 -5 -96 10 -111 31 -31 40 -13 46 95 4 57 7 107 8 111 0 4 26 10 56 13 45 6 55 11 55 26 0 16 -8 19 -50 19 l-50 0 2 57 c3 47 0 58 -14 61 -12 2 -20 -7 -27 -35z"/>
<path d="M8226 3444 c-3 -9 -6 -61 -6 -115 0 -55 -5 -109 -11 -121 -15 -29 -3 -68 21 -68 20 0 23 4 66 109 32 77 114 161 157 161 10 0 24 -14 34 -35 14 -30 15 -40 4 -71 -10 -27 -10 -38 -1 -49 21 -26 40 -16 60 28 22 49 60 86 113 110 47 21 63 21 71 1 11 -28 6 -118 -9 -159 -21 -57 -19 -85 5 -85 12 0 24 12 33 33 60 133 37 277 -44 277 -34 0 -130 -42 -149 -65 -17 -21 -28 -19 -36 8 -11 37 -35 57 -70 57 -50 0 -80 -15 -134 -69 l-50 -50 0 44 c0 56 -8 75 -30 75 -10 0 -21 -7 -24 -16z"/>
<path d="M9933 3450 c-11 -5 -37 -30 -57 -56 l-36 -47 0 35 c0 43 -22 67 -45 48 -11 -10 -15 -36 -15 -112 0 -55 -5 -108 -11 -119 -5 -11 -7 -29 -4 -39 9 -27 45 -26 52 1 20 77 126 249 154 249 4 0 10 -46 11 -102 3 -102 3 -103 27 -103 22 0 27 7 39 55 7 30 28 77 45 103 32 49 32 49 39 21 16 -73 28 -154 28 -196 0 -59 7 -78 30 -78 26 0 32 39 20 135 -16 132 -26 174 -45 195 -26 29 -53 25 -91 -15 -18 -19 -35 -35 -38 -35 -2 0 -6 15 -8 33 -3 29 -6 32 -38 34 -19 1 -45 -2 -57 -7z"/>
<path d="M8974 3255 c-19 -29 -34 -82 -41 -142 -5 -41 -4 -43 21 -43 20 0 26 5 26 22 0 24 15 74 36 126 8 18 14 39 14 47 0 24 -38 17 -56 -10z"/>
<path d="M14025 3268 c-2 -7 -10 -48 -19 -91 -8 -43 -29 -109 -47 -147 -32 -69 -33 -100 -4 -100 16 0 63 87 88 165 19 57 35 155 29 173 -5 16 -42 15 -47 0z"/>
<path d="M15207 3274 c-4 -4 -7 -31 -7 -60 0 -30 -7 -90 -16 -134 -17 -83 -12 -109 19 -97 22 8 60 178 55 247 -2 36 -7 46 -23 48 -12 2 -24 0 -28 -4z"/>
<path d="M10375 3255 c-5 -2 -22 -6 -37 -9 -20 -5 -28 -13 -28 -28 0 -19 4 -20 43 -15 81 11 92 -42 25 -119 -24 -27 -48 -53 -55 -57 -18 -11 -16 -54 3 -61 38 -15 145 -6 187 15 63 33 95 59 108 91 17 42 4 45 -44 10 -63 -48 -133 -82 -168 -82 l-31 0 34 41 c58 71 69 92 62 124 -11 57 -15 65 -44 80 -29 15 -36 16 -55 10z"/>
<path d="M4505 3219 c-94 -51 -155 -103 -155 -134 0 -26 18 -45 43 -45 14 0 18 6 15 24 -2 16 6 31 27 48 34 28 111 78 121 78 4 0 4 -44 0 -97 -22 -324 -22 -322 14 -361 23 -25 63 -28 98 -9 53 30 162 196 177 270 5 27 6 27 91 27 82 0 124 10 124 30 0 5 -46 11 -102 12 l-103 3 2 30 c6 74 -44 145 -101 145 -29 0 -38 -5 -51 -30 -9 -17 -17 -52 -18 -79 -2 -57 16 -84 69 -101 46 -16 44 -38 -10 -130 -52 -89 -107 -146 -131 -136 -15 5 -16 21 -11 144 3 75 9 164 12 198 3 33 2 76 -3 95 -8 28 -14 34 -39 37 -16 1 -47 -7 -69 -19z m279 -51 c18 -25 22 -98 5 -98 -29 0 -49 22 -49 55 0 65 17 81 44 43z"/>
<path d="M5762 3049 c-24 -7 -32 -15 -30 -27 3 -15 14 -16 78 -12 100 6 153 5 229 -5 59 -8 63 -7 59 11 -2 13 -17 23 -48 31 -54 14 -242 15 -288 2z"/>
<path d="M16146 2953 c-4 -5 -177 -11 -384 -15 -207 -4 -485 -12 -617 -18 -132 -6 -481 -15 -775 -20 -294 -5 -764 -14 -1045 -21 -496 -11 -2733 -15 -4785 -8 -1055 3 -1455 -5 -1455 -31 0 -13 40 -14 315 -10 173 2 659 3 1080 2 2322 -9 4437 -6 4945 6 297 7 783 17 1080 22 297 5 637 14 755 20 118 6 373 14 566 18 361 7 391 11 377 48 -5 15 -44 19 -57 7z"/>
<path d="M5903 2903 c-125 -3 -133 -5 -133 -23 0 -19 7 -20 143 -19 140 1 206 12 215 37 2 8 -11 11 -45 10 -26 -1 -108 -4 -180 -5z"/>
<path d="M5115 2710 c-29 -12 -65 -48 -65 -66 0 -27 30 -27 59 0 72 69 100 -3 34 -88 -20 -26 -49 -54 -64 -61 -28 -15 -42 -45 -29 -65 11 -18 176 -8 218 14 59 30 72 85 15 60 -38 -16 -130 -44 -147 -44 -5 0 10 21 33 46 53 56 75 106 66 150 -10 54 -64 78 -120 54z"/>
<path d="M11093 2448 c-6 -7 -13 -44 -16 -81 -4 -38 -14 -97 -23 -133 -18 -73 -14 -97 17 -92 16 2 26 19 43 69 31 92 93 179 127 179 16 0 19 -12 21 -102 3 -98 4 -103 26 -106 14 -2 24 3 28 15 26 82 84 152 157 190 40 20 51 22 58 11 5 -7 9 -58 9 -113 0 -107 7 -129 36 -123 17 3 19 14 19 120 0 103 -2 120 -21 145 -12 15 -30 29 -42 31 -29 4 -99 -30 -157 -76 l-49 -40 -16 47 -15 46 -54 0 c-46 -1 -57 -5 -77 -29 l-24 -27 0 28 c0 43 -27 66 -47 41z"/>
<path d="M11733 2200 c-43 -19 -56 -46 -29 -56 8 -3 28 2 45 10 40 21 71 9 96 -38 l19 -35 -29 -32 c-17 -17 -68 -54 -115 -83 -68 -43 -85 -58 -85 -77 l0 -24 190 0 c162 0 190 2 190 15 0 12 -26 16 -150 20 l-150 5 58 33 c84 47 137 104 137 145 0 34 -48 114 -73 122 -44 13 -67 12 -104 -5z"/>
<path d="M4173 1773 c-79 -2 -143 -7 -143 -12 0 -5 127 -12 283 -16 382 -9 12403 -2 12413 8 4 4 4 10 0 15 -7 7 -12245 12 -12553 5z"/>
<path d="M26291 27 c-14 -17 -4 -27 26 -27 25 0 29 10 11 28 -15 15 -23 15 -37 -1z"/>
</g>
<g id="logo" transform="translate(2211.777153, 979.2812171987684) scale(0.8161748020508809)"><g transform="translate(-57.706759,297.537395) scale(0.100000,-0.100000)" fill="#4444bb" stroke="none">
<path d="M750 2973 c-57 -10 -88 -25 -119 -57 -40 -41 -55 -100 -46 -179 6 -45 12 -61 32 -77 32 -25 35 -25 64 -1 22 17 24 26 21 89 -4 105 24 120 164 87 33 -7 119 -19 190 -25 88 -8 134 -16 144 -26 32 -32 8 -420 -28 -456 -18 -18 -126 -28 -289 -28 -185 0 -206 -4 -250 -52 -55 -58 -58 -82 -55 -363 1 -145 7 -274 13 -293 11 -34 51 -62 89 -62 12 0 35 14 52 31 l31 30 -6 238 c-3 130 -3 249 0 264 l5 27 112 0 c234 1 363 26 423 82 58 54 98 260 91 463 -4 122 -7 138 -34 191 -40 81 -79 100 -217 108 -174 10 -361 14 -387 9z" fill="#4444bb"/>
<path d="M3660 2971 c-42 -9 -83 -34 -103 -65 -39 -59 -50 -127 -54 -343 -5 -206 -5 -212 18 -252 28 -50 78 -86 143 -102 48 -12 257 -8 370 7 l49 7 -7 -104 c-4 -57 -11 -189 -16 -294 -9 -177 -9 -192 8 -214 35 -47 100 -46 136 2 22 29 27 86 42 452 7 191 0 235 -44 283 -45 48 -92 56 -241 38 -146 -18 -229 -20 -265 -6 l-26 10 0 162 c0 156 8 230 27 249 5 5 99 6 210 2 l201 -6 5 -50 c3 -39 11 -56 31 -74 34 -29 48 -29 80 0 24 20 26 30 28 113 4 147 -23 169 -218 179 -242 11 -340 13 -374 6z" fill="#4444bb"/>
<path d="M1565 2945 c-14 -13 -25 -32 -25 -42 0 -10 -1 -297 -3 -638 -2 -677 -3 -662 55 -694 33 -19 73 -7 101 31 18 24 20 51 29 300 5 150 10 278 12 283 2 6 37 8 97 3 52 -3 135 -7 186 -7 154 -2 161 -10 143 -176 -21 -189 -27 -310 -18 -343 12 -45 45 -72 86 -72 71 0 102 46 102 151 0 33 7 118 16 187 24 190 9 280 -58 349 -50 52 -112 67 -263 65 -71 -1 -164 -6 -205 -11 -41 -4 -78 -7 -81 -5 -4 2 -10 108 -13 236 -9 286 -17 352 -47 384 -31 33 -82 32 -114 -1z" fill="#4444bb"/>
<path d="M2542 2944 c-55 -38 -64 -109 -53 -419 6 -186 9 -215 28 -250 50 -95 116 -125 302 -135 75 -4 171 -5 215 -1 l78 7 -4 -178 c-2 -97 -7 -181 -11 -184 -4 -4 -42 1 -85 11 -104 26 -285 27 -363 3 -106 -33 -149 -107 -99 -170 26 -34 68 -41 132 -21 74 23 202 20 308 -7 182 -47 274 5 301 168 12 77 27 831 19 994 -7 152 -20 181 -86 186 -88 7 -103 -51 -104 -401 l0 -219 -201 4 c-197 3 -201 3 -220 27 -18 21 -19 42 -19 283 l0 260 -29 29 c-33 33 -74 38 -109 13z" fill="#4444bb"/>
<path d="M2374 1391 c-55 -34 -79 -78 -79 -147 0 -51 4 -66 27 -96 35 -45 102 -73 153 -64 78 15 146 111 131 188 -20 108 -145 172 -232 119z" fill="#4444bb"/>
<path d="M1853 999 c-39 -11 -66 -56 -61 -101 6 -59 69 -64 76 -6 4 30 34 38 145 38 l67 0 0 -110 c0 -135 -1 -136 -132 -126 -85 6 -89 6 -113 -18 -24 -25 -25 -28 -25 -179 0 -162 4 -177 47 -177 35 0 43 29 43 159 l0 121 73 0 c85 0 141 14 168 41 17 17 19 34 19 169 0 147 -1 152 -25 175 -23 24 -30 25 -137 24 -62 0 -128 -5 -145 -10z" fill="#4444bb"/>
<path d="M2985 1000 c-91 -16 -93 -18 -104 -58 -15 -51 -14 -537 0 -564 19 -36 69 -48 204 -48 121 0 127 1 151 25 l24 24 -2 292 -3 292 -26 19 c-31 23 -161 33 -244 18z m169 -86 c14 -5 16 -37 16 -250 l0 -245 -102 3 -103 3 0 240 0 240 40 6 c57 9 131 10 149 3z" fill="#4444bb"/>
<path d="M2351 971 c-24 -24 -29 -73 -37 -372 -6 -232 -6 -237 15 -258 23 -23 29 -25 51 -11 12 7 16 40 20 150 l5 141 35 -23 c19 -13 59 -55 88 -93 30 -39 78 -96 108 -128 47 -51 56 -57 74 -47 29 16 25 42 -15 92 -19 24 -62 78 -95 121 -61 77 -61 77 -33 77 15 0 46 9 69 19 56 26 67 57 62 179 -6 156 -27 172 -220 172 -93 0 -111 -3 -127 -19z m257 -74 c16 -13 17 -168 0 -185 -7 -7 -41 -12 -84 -12 -40 0 -84 -4 -98 -10 l-26 -10 0 120 0 119 98 -6 c53 -3 103 -10 110 -16z" fill="#4444bb"/>
</g>
</g></svg>
