<?xml version="1.0" encoding="UTF-8" standalone="no"?>
<svg
   version="1.0"
   width="2191.510723pt"
   height="1254.538208pt"
   viewBox="0 0 2191.510723 1254.538208"
   preserveAspectRatio="xMidYMid meet"
   id="svg133"
   sodipodi:docname="1018.svg"
   inkscape:version="1.3.2 (091e20e, 2023-11-25)"
   xmlns:inkscape="http://www.inkscape.org/namespaces/inkscape"
   xmlns:sodipodi="http://sodipodi.sourceforge.net/DTD/sodipodi-0.dtd"
   xmlns="http://www.w3.org/2000/svg"
   xmlns:svg="http://www.w3.org/2000/svg">
  <defs
     id="defs133" />
  <sodipodi:namedview
     id="namedview133"
     pagecolor="#ffffff"
     bordercolor="#000000"
     borderopacity="0.25"
     inkscape:showpageshadow="2"
     inkscape:pageopacity="0.0"
     inkscape:pagecheckerboard="0"
     inkscape:deskcolor="#d1d1d1"
     inkscape:document-units="pt"
     inkscape:zoom="0.14108777"
     inkscape:cx="1460.084"
     inkscape:cy="836.35881"
     inkscape:current-layer="svg133" />
  <metadata
     id="metadata1">
Created by potrace 1.16, written by Peter Selinger 2001-2019
</metadata>
  <g
     transform="translate(-5.989277,1293.000000) scale(0.100000,-0.100000)"
     fill="#000000"
     stroke="none"
     id="g125">
    <path
       d="M460 12889 c-6 -23 -21 -80 -33 -127 l-22 -87 -49 -8 c-27 -4 -50 -7 -51 -5 -2 2 8 46 21 98 29 117 29 130 5 130 -20 0 -37 -43 -56 -140 -18 -87 -25 -94 -108 -109 -77 -14 -119 -33 -104 -47 4 -4 43 -1 87 7 76 15 80 15 80 -3 0 -11 -13 -23 -35 -32 -39 -17 -47 -36 -14 -36 19 0 20 -4 13 -56 -6 -55 -6 -56 17 -52 20 2 25 11 31 51 8 60 19 73 67 81 22 3 46 9 54 12 12 4 14 -5 9 -61 -4 -62 -3 -67 14 -63 13 2 22 16 27 43 17 84 21 90 52 93 17 1 59 10 95 19 62 16 63 17 35 25 -28 7 -95 3 -137 -9 -11 -3 -18 1 -18 11 0 8 13 17 29 21 16 3 34 12 40 19 8 10 4 11 -21 8 l-31 -5 7 48 c4 25 14 64 21 85 7 21 17 59 20 84 7 42 6 46 -13 46 -16 0 -24 -10 -32 -41z m-70 -263 c0 -8 -19 -18 -44 -25 -58 -14 -66 -14 -66 3 0 8 20 17 53 23 28 6 53 11 55 12 1 0 2 -5 2 -13z"
       id="path1" />
    <path
       d="M988 12816 c-49 -51 -88 -100 -88 -109 0 -25 33 -21 60 8 13 14 25 23 27 21 3 -2 -14 -55 -37 -116 -46 -127 -52 -195 -15 -195 26 0 56 52 36 64 -14 9 -15 8 54 201 15 41 40 96 56 123 33 54 39 98 12 96 -10 -1 -57 -43 -105 -93z"
       id="path2" />
    <path
       d="M2019 12886 c-44 -25 -82 -84 -87 -136 -4 -42 -1 -51 28 -83 l32 -36 -25 -33 c-57 -76 -71 -133 -41 -162 36 -37 205 -8 243 41 40 50 14 120 -56 149 -18 8 -33 17 -33 20 0 4 16 24 35 45 33 37 46 83 25 91 -6 2 -5 17 2 41 10 31 9 40 -4 53 -22 22 -88 27 -119 10z m91 -40 c0 -8 -16 -37 -35 -65 -37 -54 -43 -71 -23 -71 7 0 2 -10 -10 -22 l-23 -23 -20 24 c-28 34 -24 81 11 129 25 36 36 42 65 42 23 0 35 -5 35 -14z m-15 -259 c32 -18 41 -29 43 -54 3 -27 -2 -34 -27 -48 -17 -8 -58 -18 -91 -22 -58 -6 -60 -5 -60 18 0 28 65 129 83 129 6 0 30 -10 52 -23z"
       id="path3" />
    <path
       d="M1723 12875 c-12 -8 -41 -43 -66 -78 -25 -35 -56 -70 -68 -79 -13 -8 -19 -19 -15 -26 13 -21 37 -13 72 22 19 19 34 30 34 26 0 -5 -14 -44 -31 -87 -19 -46 -34 -104 -37 -141 -5 -63 -4 -64 19 -60 19 2 24 10 26 38 5 76 28 146 99 302 20 43 33 82 29 88 -9 14 -37 12 -62 -5z"
       id="path4" />
    <path
       d="M1303 12806 c-28 -13 -59 -36 -68 -50 -11 -16 -27 -26 -42 -26 -19 0 -28 -9 -43 -42 -26 -57 -28 -218 -4 -242 41 -41 126 -33 185 18 81 69 119 151 119 255 -1 100 -53 131 -147 87z m93 -44 c17 -35 0 -137 -33 -190 -33 -54 -104 -112 -137 -112 -49 0 -57 18 -50 107 4 46 10 80 14 78 8 -5 50 38 76 79 17 27 88 67 109 62 6 -1 15 -12 21 -24z"
       id="path5" />
    <path
       d="M21733 12569 c-68 -20 -51 -59 18 -41 58 15 72 7 65 -36 -3 -24 -20 -51 -52 -83 -38 -38 -47 -55 -51 -92 -8 -68 14 -79 153 -75 89 2 109 6 109 18 0 12 -21 16 -105 20 -101 5 -105 6 -108 28 -3 17 10 38 46 76 71 75 83 159 26 184 -29 14 -56 14 -101 1z"
       id="path6" />
    <path
       d="M6206 12483 c-9 -23 20 -51 36 -35 19 19 330 16 437 -4 85 -16 184 -59 216 -94 14 -15 14 -20 1 -45 -27 -52 16 -79 48 -30 15 22 23 25 81 25 56 0 65 3 65 18 0 10 -19 36 -41 57 -23 22 -50 59 -61 83 -15 34 -24 43 -41 40 -30 -4 -33 -37 -8 -84 26 -47 19 -55 -17 -22 -42 40 -127 78 -209 94 -50 9 -144 14 -288 14 -190 0 -214 -2 -219 -17z"
       id="path7" />
    <path
       d="M18980 12433 c-8 -3 -18 -11 -22 -17 -13 -20 5 -28 51 -21 36 5 50 3 60 -9 25 -30 8 -59 -76 -124 -47 -36 -83 -71 -83 -81 0 -28 21 -41 70 -41 25 -1 72 -7 105 -15 76 -19 105 -19 105 -1 0 21 -70 45 -152 53 -71 6 -71 6 -47 25 129 99 139 111 139 150 0 55 -35 88 -92 87 -24 0 -50 -3 -58 -6z"
       id="path8" />
    <path
       d="M15926 12359 c-45 -35 -85 -104 -116 -201 -17 -51 -38 -99 -47 -106 -13 -9 -14 -15 -5 -24 7 -7 12 -43 12 -90 0 -78 0 -78 33 -98 38 -24 123 -27 152 -6 11 7 34 17 52 20 40 9 63 33 39 42 -22 8 -85 -4 -110 -22 -26 -18 -77 -18 -101 0 -15 11 -18 25 -16 81 2 68 3 69 58 129 69 76 103 127 131 193 26 62 27 67 6 87 -21 22 -56 20 -88 -5z m29 -90 c-14 -30 -41 -72 -61 -94 l-35 -40 7 35 c9 48 37 100 75 141 41 44 47 26 14 -42z"
       id="path9" />
    <path
       d="M21262 12251 c-42 -39 -45 -90 -5 -119 l27 -19 -50 -49 c-53 -53 -154 -110 -179 -100 -22 8 -19 49 7 98 17 32 23 60 23 108 l0 65 -35 -1 c-42 -1 -169 -59 -177 -81 -12 -32 20 -31 86 3 36 19 72 34 80 34 18 0 9 -47 -24 -116 -14 -29 -25 -71 -25 -94 0 -35 4 -42 28 -51 68 -26 182 29 276 133 58 64 52 61 199 89 57 11 76 32 41 46 -14 5 -82 -6 -143 -23 -21 -6 -22 -5 -12 14 20 37 14 71 -15 82 -42 16 -68 11 -102 -19z m74 -26 c9 -22 -23 -66 -41 -59 -20 8 -19 33 2 56 20 22 32 23 39 3z"
       id="path10" />
    <path
       d="M804 12249 c-12 -20 11 -28 101 -34 157 -11 1764 -17 1782 -6 20 10 18 61 28 -484 4 -207 2 -410 -5 -545 -6 -118 -16 -314 -20 -435 -5 -121 -14 -323 -20 -450 -5 -126 -14 -329 -20 -450 -10 -243 -14 -1134 -4 -1159 8 -21 40 -21 48 0 3 9 6 273 6 587 0 315 4 649 10 742 5 94 14 285 20 425 6 140 20 428 32 640 17 318 19 433 12 665 -4 154 -9 327 -10 385 l-1 105 -809 2 c-462 2 -851 7 -907 13 -128 13 -234 13 -243 -1z"
       id="path11" />
    <path
       d="M18373 12245 c-35 -15 -89 -87 -78 -104 12 -20 34 -11 50 19 17 33 70 66 80 50 8 -12 -19 -134 -41 -190 -28 -71 -7 -100 74 -100 70 0 197 93 236 173 14 31 21 35 67 41 57 8 109 30 109 47 0 11 -114 4 -147 -8 -8 -3 -13 3 -13 18 0 42 -35 69 -89 69 -35 0 -71 -39 -71 -77 0 -20 9 -29 50 -46 28 -11 50 -24 50 -27 0 -3 -20 -28 -45 -56 -60 -69 -160 -116 -180 -84 -4 6 3 36 15 68 27 72 38 185 20 207 -15 18 -45 19 -87 0z m271 -31 c9 -3 16 -17 16 -30 0 -21 -2 -22 -30 -13 -33 12 -32 11 -24 33 7 17 14 19 38 10z"
       id="path12" />
    <path
       d="M13067 12163 c-77 -66 -155 -195 -183 -306 -20 -74 -14 -209 11 -256 24 -47 81 -81 136 -81 65 0 145 26 182 60 39 36 24 38 -57 10 -32 -11 -79 -22 -106 -26 -42 -6 -50 -3 -79 22 -19 18 -35 44 -41 67 -8 35 -5 43 37 105 25 37 58 81 73 98 42 49 96 143 124 218 30 80 31 89 10 110 -25 26 -60 19 -107 -21z m67 -35 c-24 -79 -97 -209 -153 -273 -14 -17 -34 -42 -44 -55 -17 -25 -17 -25 -11 20 8 61 39 132 91 212 61 93 135 154 117 96z"
       id="path13" />
    <path
       d="M20404 12151 c-20 -9 -64 -55 -96 -101 -17 -25 -17 -24 -17 38 -1 55 -3 62 -21 62 -17 0 -20 -7 -20 -44 0 -25 -13 -84 -30 -133 -16 -48 -30 -96 -30 -105 0 -33 37 -20 62 21 13 21 54 79 91 130 66 88 96 110 98 74 0 -10 2 -29 5 -42 2 -12 -3 -46 -11 -73 -16 -56 -13 -68 15 -68 12 0 25 12 35 33 35 76 133 166 181 167 7 0 14 -24 16 -57 4 -46 0 -72 -19 -123 -36 -94 -38 -109 -19 -116 22 -8 23 -8 57 76 49 121 38 270 -20 270 -36 0 -132 -52 -159 -86 l-27 -34 -5 57 c-5 56 -6 58 -35 60 -16 1 -39 -2 -51 -6z"
       id="path14" />
    <path
       d="M11323 12141 c-50 -5 -68 -12 -93 -36 -42 -40 -55 -67 -71 -148 -13 -69 -12 -95 21 -347 44 -341 58 -700 34 -850 -30 -187 -80 -319 -145 -378 -47 -44 -45 -62 7 -62 63 0 135 -99 167 -231 20 -82 26 -483 8 -569 -7 -30 -14 -172 -18 -315 -4 -224 -3 -269 12 -325 22 -85 52 -136 112 -186 61 -52 84 -64 122 -64 50 0 45 18 -13 45 -67 32 -137 107 -162 173 -27 71 -32 426 -9 627 24 209 17 572 -12 660 -29 87 -47 118 -106 178 l-52 54 26 36 c30 42 80 187 103 299 19 90 23 538 6 660 -41 305 -62 500 -57 548 9 82 26 130 57 162 24 24 36 28 84 28 36 0 60 5 70 16 19 18 12 35 -12 32 -9 0 -45 -4 -79 -7z"
       id="path15" />
    <path
       d="M18070 12109 c-30 -16 -74 -49 -97 -72 l-43 -41 0 32 c0 45 -33 76 -73 68 -40 -8 -90 -47 -119 -93 l-23 -38 -3 83 c-3 74 -5 82 -22 82 -17 0 -20 -7 -20 -42 0 -24 -7 -79 -16 -123 -8 -44 -18 -101 -21 -127 -5 -46 -4 -48 19 -48 19 0 29 10 47 48 55 115 130 212 163 212 15 0 18 -9 19 -47 1 -27 1 -55 0 -64 -1 -9 5 -22 14 -29 13 -11 25 -2 81 59 59 64 148 130 159 119 7 -7 7 -131 0 -196 -7 -63 -7 -64 16 -60 21 3 25 10 31 53 3 28 7 87 7 133 1 69 -2 85 -19 102 -26 26 -35 25 -100 -11z"
       id="path16" />
    <path
       d="M5901 12098 c-5 -13 -28 -41 -50 -63 -23 -21 -41 -45 -41 -52 0 -20 28 -27 45 -13 19 16 19 8 -5 -70 -24 -80 -25 -90 -2 -90 24 0 45 40 71 140 13 47 27 96 32 109 5 13 7 32 4 42 -9 26 -44 24 -54 -3z"
       id="path17" />
    <path
       d="M6274 12105 c-30 -21 -54 -76 -54 -125 0 -33 6 -48 29 -71 16 -16 39 -29 50 -29 21 0 21 0 21 -505 l0 -504 -44 -45 c-29 -28 -47 -57 -51 -79 -12 -63 40 -127 105 -127 l30 0 0 -470 c0 -280 -4 -470 -9 -470 -15 0 -92 -80 -102 -107 -19 -50 -11 -93 22 -124 l31 -29 -238 0 c-132 0 -275 -5 -319 -11 -204 -29 -230 -34 -230 -49 0 -12 17 -14 95 -12 52 2 113 8 135 14 58 15 1266 23 1420 9 266 -24 295 -25 295 -8 0 42 -169 56 -655 57 l-350 0 35 21 c47 29 50 35 50 104 0 82 -25 122 -80 131 l-40 7 0 473 c0 394 2 474 14 481 25 14 55 77 62 131 6 49 5 55 -22 83 -20 21 -37 29 -61 29 l-33 0 0 505 c0 402 3 505 13 505 21 0 81 55 101 92 25 46 15 81 -31 113 -31 20 -50 25 -103 25 -41 0 -73 -5 -86 -15z m161 -57 l26 -23 -37 -43 c-43 -50 -71 -64 -111 -53 -35 9 -43 38 -11 43 13 2 24 11 26 22 3 11 11 26 19 34 8 8 12 21 9 28 -9 23 50 17 79 -8z m3 -1257 c2 -19 -2 -46 -8 -62 -10 -24 -14 -26 -31 -16 -21 13 -25 47 -7 65 9 9 9 15 0 24 -22 22 -14 37 16 29 21 -6 28 -14 30 -40z m-118 -73 c0 -50 0 -51 -20 -33 -25 23 -27 72 -2 78 9 3 18 5 20 6 1 0 2 -22 2 -51z m148 -1100 c7 -7 12 -37 12 -68 0 -51 -3 -57 -29 -73 -37 -21 -94 -22 -126 -1 -20 13 -25 25 -25 55 0 48 17 50 45 6 14 -22 28 -32 45 -32 24 0 25 3 28 63 2 51 6 62 20 62 10 0 23 -5 30 -12z"
       id="path18" />
    <path
       d="M8005 12060 c-3 -11 -12 -20 -18 -20 -7 0 -20 -8 -28 -17 -9 -10 -48 -49 -88 -86 -40 -38 -70 -74 -68 -80 9 -27 44 -16 95 30 29 26 64 58 77 70 l26 22 -6 -972 c-2 -535 -8 -1075 -12 -1200 l-8 -229 -27 22 c-29 23 -78 24 -85 3 -3 -7 17 -33 44 -57 41 -39 54 -46 91 -46 34 0 49 6 75 31 17 17 48 43 67 58 44 33 50 41 50 69 0 32 -13 28 -82 -28 l-63 -51 -3 233 c-1 139 2 244 8 262 6 19 10 343 10 927 l0 899 47 -30 c48 -30 83 -39 83 -20 0 12 -27 39 -89 88 -35 29 -41 38 -41 72 0 21 -3 45 -6 54 -9 23 -41 20 -49 -4z"
       id="path19" />
    <path
       d="M13756 11981 c-3 -5 1 -28 9 -51 23 -66 20 -78 -21 -86 -33 -6 -58 -4 -131 12 -29 6 -33 4 -33 -14 0 -29 57 -45 139 -40 l64 3 -6 -111 c-6 -106 -1 -134 24 -134 11 0 21 55 28 159 l6 96 53 11 c55 12 102 37 102 54 0 12 -21 13 -52 1 -13 -4 -42 -11 -65 -15 -42 -6 -42 -6 -49 31 -13 71 -49 115 -68 84z"
       id="path20" />
    <path
       d="M21395 11970 c-11 -19 6 -30 46 -30 47 0 52 -20 13 -47 -14 -10 -38 -29 -53 -43 -15 -14 -38 -32 -51 -41 -16 -10 -21 -21 -17 -32 16 -42 161 -1 229 64 23 21 38 42 35 46 -4 3 -34 -8 -67 -25 -74 -39 -80 -40 -42 -4 35 32 50 77 35 101 -12 19 -117 28 -128 11z"
       id="path21" />
    <path
       d="M11733 11948 c-4 -7 -6 -56 -4 -109 2 -72 -2 -111 -15 -153 -16 -52 -17 -58 -1 -73 13 -13 19 -14 31 -3 9 7 16 22 16 33 0 35 40 105 91 161 47 52 123 101 141 90 10 -6 9 -107 -2 -189 -6 -47 -4 -63 7 -75 13 -13 17 -12 31 8 81 113 140 178 172 188 l35 12 10 -152 c9 -141 11 -151 30 -151 13 0 20 6 19 18 0 9 -1 80 -2 156 -2 165 -8 177 -80 167 -48 -6 -90 -36 -134 -94 l-28 -36 0 75 c0 87 -16 119 -58 119 -45 -1 -109 -36 -162 -90 -28 -27 -54 -50 -57 -50 -3 0 -3 31 -1 69 3 43 1 74 -5 80 -14 14 -24 14 -34 -1z"
       id="path22" />
    <path
       d="M12542 11939 c-51 -25 -91 -81 -115 -160 -29 -95 -20 -130 37 -149 33 -11 53 -6 119 28 9 5 9 -100 -1 -114 -4 -5 -25 -23 -47 -39 -66 -47 -125 -108 -146 -147 -37 -72 -15 -202 42 -242 52 -36 99 -13 134 66 25 56 34 96 54 258 7 57 13 70 46 103 21 21 35 41 31 44 -3 4 -12 1 -18 -5 -7 -7 -20 -12 -30 -12 -16 0 -17 8 -11 83 4 55 14 98 29 131 31 65 33 150 5 166 -31 16 -82 12 -129 -11z m102 -27 c17 -28 -54 -183 -100 -218 -40 -31 -78 -29 -82 4 -5 32 26 121 56 161 34 45 111 77 126 53z m-88 -572 c-17 -108 -50 -190 -76 -190 -37 0 -55 38 -55 117 l0 75 70 66 c82 78 84 76 61 -68z"
       id="path23" />
    <path
       d="M14742 11879 c-23 -12 -71 -53 -107 -91 l-65 -70 0 61 c0 65 -21 101 -58 101 -32 0 -99 -43 -136 -88 l-35 -43 6 71 c5 65 4 70 -14 70 -16 0 -21 -12 -32 -77 -7 -43 -23 -125 -37 -182 -16 -65 -21 -108 -16 -113 18 -18 46 -3 53 27 22 103 148 285 197 285 21 0 22 -5 22 -69 0 -38 -7 -91 -16 -119 -28 -86 -2 -110 43 -39 61 97 203 247 234 247 21 0 29 -44 29 -177 0 -98 1 -104 28 -134 33 -37 101 -50 154 -28 44 17 145 85 151 101 9 26 20 -3 20 -54 -1 -67 -11 -88 -78 -168 -84 -99 -109 -158 -113 -260 -3 -76 -1 -89 20 -120 16 -23 33 -36 51 -38 64 -8 90 51 129 286 25 155 35 191 54 212 12 14 26 39 30 55 7 29 7 30 -13 13 -11 -10 -23 -18 -26 -18 -4 0 -7 26 -7 57 0 35 -5 62 -15 73 -13 14 -13 22 0 64 8 27 15 71 15 97 0 42 -4 51 -27 66 -35 23 -101 23 -136 0 -34 -22 -66 -83 -74 -142 -7 -54 4 -70 65 -97 l43 -19 -38 -28 c-63 -45 -96 -55 -138 -41 -23 8 -40 21 -46 37 -5 13 -9 84 -9 157 0 89 -4 136 -12 144 -18 18 -47 15 -96 -9z m416 -76 c2 -22 -5 -62 -16 -89 -17 -45 -21 -49 -48 -46 -41 5 -74 29 -74 55 0 35 42 111 69 124 39 19 66 2 69 -44z m-38 -564 c-12 -74 -31 -156 -43 -183 -21 -49 -21 -49 -39 -26 -25 31 -25 143 1 203 20 47 91 151 98 144 2 -3 -6 -65 -17 -138z"
       id="path24" />
    <path
       d="M19551 11886 c-7 -8 -15 -49 -18 -90 l-6 -76 -93 0 c-87 0 -94 -1 -94 -20 0 -19 7 -20 95 -20 l95 0 0 -94 c0 -67 4 -97 14 -105 18 -15 26 5 26 72 0 29 3 69 6 89 l6 37 67 3 c51 2 66 6 66 18 0 12 -16 16 -69 18 l-68 3 3 86 c4 87 -5 110 -30 79z"
       id="path25" />
    <path
       d="M1491 11812 c-45 -49 -78 -122 -124 -277 -43 -142 -51 -190 -77 -440 -8 -82 3 -140 34 -180 19 -23 32 -29 77 -32 45 -4 63 0 109 24 51 26 93 73 78 88 -4 4 -35 -9 -71 -29 -79 -45 -129 -48 -153 -11 -23 35 -28 99 -15 186 10 62 17 80 45 109 72 76 160 257 195 403 39 162 34 187 -36 187 -26 0 -42 -8 -62 -28z m69 -38 c0 -34 -41 -184 -69 -252 -30 -73 -107 -212 -118 -212 -19 0 75 330 114 400 42 74 73 101 73 64z"
       id="path26" />
    <path
       d="M16020 11770 c-25 -4 -103 -15 -175 -25 -136 -18 -175 -28 -175 -44 0 -20 22 -20 166 0 233 33 291 38 416 38 113 1 150 11 117 32 -16 10 -284 10 -349 -1z"
       id="path27" />
    <path
       d="M16968 11755 c-3 -4 -53 -9 -109 -13 -83 -6 -104 -10 -104 -22 0 -18 89 -19 320 -4 114 7 140 12 140 24 0 12 -21 15 -121 18 -66 1 -123 0 -126 -3z"
       id="path28" />
    <path
       d="M18325 11713 c-22 -1 -83 -8 -135 -15 -52 -6 -214 -14 -360 -17 -226 -5 -265 -8 -265 -21 0 -13 38 -15 285 -14 167 0 318 6 365 13 44 6 207 15 362 18 275 6 325 12 293 33 -14 9 -443 12 -545 3z"
       id="path29" />
    <path
       d="M16842 11610 c-42 -10 -60 -26 -46 -40 8 -8 30 -8 75 -1 35 6 120 11 189 12 69 0 134 4 145 8 19 8 19 8 -2 19 -25 14 -307 15 -361 2z"
       id="path30" />
    <path
       d="M20320 11600 c0 -20 4 -20 643 -18 563 3 642 5 642 18 0 13 -79 15 -642 18 -639 2 -643 2 -643 -18z"
       id="path31" />
    <path
       d="M15890 11524 c-63 -17 -90 -38 -73 -55 8 -8 24 -7 60 5 26 8 73 17 103 18 l55 3 -1 -40 c-2 -35 -9 -47 -75 -110 -41 -39 -109 -96 -151 -128 -43 -31 -78 -61 -78 -66 0 -5 7 -14 15 -21 13 -11 37 -8 133 13 64 15 143 30 175 33 46 6 57 10 55 23 -5 24 -70 25 -174 2 -49 -10 -90 -18 -91 -17 -2 2 18 18 43 36 76 54 176 153 191 187 19 46 16 90 -7 113 -24 24 -98 26 -180 4z"
       id="path32" />
    <path
       d="M18166 11401 c-28 -9 -52 -23 -54 -30 -8 -25 20 -28 80 -10 68 21 88 15 88 -28 0 -39 -74 -101 -193 -160 -51 -26 -67 -47 -48 -66 8 -8 47 -6 154 11 78 12 156 22 173 22 29 0 54 15 54 32 0 12 -121 10 -180 -3 -72 -15 -78 -8 -22 29 105 68 137 137 91 196 -25 31 -68 34 -143 7z"
       id="path33" />
    <path
       d="M20797 11368 c-27 -7 -37 -15 -35 -27 4 -17 10 -18 80 -7 37 6 49 3 71 -14 15 -12 27 -27 27 -34 0 -27 -44 -68 -136 -128 -105 -68 -117 -91 -49 -96 22 -2 71 4 108 13 38 9 108 20 155 23 72 6 87 10 90 25 3 15 -6 17 -85 17 -48 0 -105 -5 -126 -11 -60 -16 -66 -5 -15 25 52 30 108 98 108 131 0 48 -62 96 -122 94 -18 -1 -50 -6 -71 -11z"
       id="path34" />
    <path
       d="M8606 11326 c-107 -48 -176 -199 -179 -399 -2 -94 0 -107 27 -161 33 -68 65 -86 151 -86 66 0 122 21 152 58 46 56 22 68 -46 22 -37 -25 -54 -30 -103 -30 -50 0 -62 4 -82 25 -20 22 -46 85 -46 114 0 6 8 11 18 11 23 0 123 116 167 195 45 80 63 180 40 224 -21 43 -47 49 -99 27z m50 -109 c-4 -42 -17 -79 -43 -125 -37 -67 -107 -152 -126 -152 -14 0 1 114 24 179 10 30 30 72 44 93 27 41 82 81 98 71 6 -3 7 -31 3 -66z"
       id="path35" />
    <path
       d="M14283 10845 c-20 -8 -45 -33 -63 -62 -35 -55 -86 -181 -101 -252 -7 -35 -16 -50 -30 -54 -25 -7 -25 -27 1 -34 17 -5 20 -14 20 -72 0 -89 14 -134 52 -166 39 -33 78 -31 196 13 84 31 112 47 112 63 0 17 -46 9 -143 -26 -81 -28 -102 -32 -122 -23 -32 14 -45 56 -45 144 0 73 0 74 35 97 47 32 133 156 167 242 32 83 34 106 10 128 -22 20 -46 21 -89 2z m36 -108 c-20 -56 -116 -208 -139 -222 -17 -11 -11 21 21 108 36 101 80 174 111 186 32 12 33 -1 7 -72z"
       id="path36" />
    <path
       d="M5762 10808 c-7 -7 -12 -21 -12 -31 0 -20 8 -20 68 -2 19 6 22 4 22 -18 0 -17 -14 -36 -45 -62 -86 -70 -92 -111 -20 -141 44 -18 76 -18 101 1 16 13 17 16 4 25 -8 5 -26 10 -40 10 -61 1 -61 33 -1 75 53 36 74 90 55 139 -8 20 -113 23 -132 4z"
       id="path37" />
    <path
       d="M535 10671 c-4 -7 -3 -17 1 -21 14 -13 253 -19 1054 -28 556 -6 742 -11 764 -20 52 -22 78 8 34 38 -20 13 -124 16 -693 21 -369 4 -778 10 -911 14 -188 6 -243 5 -249 -4z"
       id="path38" />
    <path
       d="M13822 10648 c-18 -18 -15 -56 6 -66 24 -13 42 -4 35 16 -6 15 -3 14 15 -2 17 -15 22 -30 22 -73 0 -47 -4 -57 -37 -94 -47 -52 -86 -69 -141 -62 -61 8 -95 50 -87 107 5 32 3 45 -9 55 -23 20 -46 -3 -46 -45 0 -74 -74 -174 -128 -174 -12 0 -32 15 -48 35 -22 30 -28 49 -32 110 -4 65 -7 75 -23 75 -17 0 -19 -8 -19 -75 0 -117 46 -190 119 -190 45 0 108 40 134 85 l18 30 33 -25 c41 -31 118 -43 171 -25 47 16 114 75 132 117 7 18 13 58 13 89 0 50 -3 59 -34 90 -35 35 -72 44 -94 22z"
       id="path39" />
    <path
       d="M12261 10601 c-18 -14 -25 -31 -29 -71 -5 -50 -3 -55 23 -76 l29 -23 -44 -58 c-83 -111 -164 -183 -205 -183 -23 0 -19 81 10 179 50 170 21 225 -92 174 -54 -24 -73 -43 -73 -70 0 -18 5 -23 24 -23 15 0 26 7 29 19 4 16 62 51 83 51 12 0 1 -77 -21 -150 -32 -106 -34 -204 -6 -220 30 -15 49 -12 109 18 54 27 127 102 202 205 30 42 35 45 93 51 34 4 90 14 124 23 151 37 105 64 -56 33 -58 -11 -107 -18 -109 -15 -3 3 0 22 6 44 16 53 15 68 -8 91 -25 25 -58 25 -89 1z m50 -81 c-14 -46 -31 -44 -31 4 0 36 18 62 34 46 6 -6 5 -24 -3 -50z"
       id="path40" />
    <path
       d="M12735 10451 c-10 -17 -1 -23 53 -38 55 -14 270 -17 292 -3 27 17 -2 25 -118 31 -64 4 -140 10 -168 14 -36 5 -53 4 -59 -4z"
       id="path41" />
    <path
       d="M1970 10280 c-59 -21 -74 -35 -97 -89 -13 -30 -13 -36 1 -49 19 -19 29 -11 54 39 22 45 68 65 165 73 65 5 85 3 122 -13 24 -10 49 -29 55 -41 13 -25 18 -19 -104 -144 -80 -82 -116 -144 -116 -197 0 -22 5 -29 20 -29 11 0 22 6 24 13 26 84 43 109 137 205 106 109 114 128 83 182 -9 15 -36 37 -61 49 -59 29 -203 29 -283 1z"
       id="path42" />
    <path
       d="M12755 10290 c-4 -7 0 -19 9 -28 13 -14 42 -18 150 -20 128 -4 134 -3 160 20 l28 23 -134 0 c-73 0 -149 4 -169 8 -26 6 -39 5 -44 -3z"
       id="path43" />
    <path
       d="M1193 10085 c-32 -22 -41 -98 -18 -141 18 -33 18 -34 -7 -71 -14 -21 -54 -69 -89 -107 -58 -61 -69 -69 -110 -73 -26 -3 -55 0 -68 6 -19 10 -21 20 -21 87 0 41 7 113 16 159 9 46 14 90 11 99 -10 25 -44 19 -102 -16 -66 -39 -113 -114 -95 -148 17 -31 55 -23 56 12 1 33 26 73 55 88 29 16 34 6 20 -39 -6 -22 -14 -82 -18 -133 -6 -91 -5 -94 21 -125 35 -42 97 -53 170 -29 43 14 63 30 126 102 41 47 81 98 89 115 14 28 16 29 90 29 59 0 84 5 110 21 49 30 28 45 -38 29 -29 -7 -68 -9 -88 -5 l-36 6 6 58 c5 49 3 61 -12 75 -22 20 -40 20 -68 1z"
       id="path44" />
    <path
       d="M1430 9802 c0 -29 21 -34 152 -40 126 -5 168 1 168 22 0 10 -29 15 -112 19 -62 4 -134 9 -160 13 -44 6 -48 5 -48 -14z"
       id="path45" />
    <path
       d="M14674 9787 c-63 -43 -113 -132 -121 -215 -3 -31 -10 -65 -15 -76 -7 -12 -6 -22 1 -29 6 -6 11 -20 11 -32 0 -28 53 -111 81 -126 15 -8 42 -9 83 -4 34 4 86 10 116 13 39 5 55 11 55 22 0 21 -64 25 -147 9 -63 -11 -69 -11 -89 7 -29 27 -49 68 -49 103 0 24 8 36 44 60 24 17 63 52 86 78 78 89 100 163 60 203 -28 28 -61 25 -116 -13z m86 -40 c0 -12 -8 -37 -18 -55 -19 -36 -120 -142 -135 -142 -15 0 1 77 26 125 37 74 127 125 127 72z"
       id="path46" />
    <path
       d="M6755 9770 c-9 -15 4 -30 26 -30 29 0 25 -44 -6 -64 -32 -21 -32 -50 1 -64 40 -19 18 -34 -45 -30 -52 3 -56 1 -59 -19 -3 -22 -1 -23 77 -23 105 0 136 27 93 80 -18 23 -18 24 0 42 20 20 23 53 8 92 -8 22 -16 26 -49 26 -22 0 -43 -4 -46 -10z"
       id="path47" />
    <path
       d="M5662 9623 c-41 -20 -66 -55 -57 -82 4 -15 18 -20 63 -25 31 -3 66 -6 77 -5 11 0 93 3 183 5 152 5 162 6 162 24 0 19 -8 20 -197 20 -198 0 -198 0 -173 20 14 11 31 20 38 20 6 0 12 9 12 20 0 16 -7 20 -37 20 -21 0 -53 -8 -71 -17z"
       id="path48" />
    <path
       d="M2094 9585 c-9 -22 38 -100 62 -103 47 -7 58 69 12 84 -12 3 -28 13 -36 20 -17 18 -31 18 -38 -1z"
       id="path49" />
    <path
       d="M12416 9570 c-40 -36 -69 -102 -64 -150 3 -32 10 -39 55 -56 22 -9 22 -9 -12 -84 -33 -73 -127 -198 -172 -227 -14 -10 -33 -13 -49 -9 -24 6 -26 10 -21 44 4 20 9 110 13 199 l7 162 -27 7 c-36 9 -94 -9 -138 -43 -40 -31 -83 -97 -73 -113 12 -19 33 -10 53 24 22 37 75 80 109 89 19 4 23 0 29 -31 4 -19 2 -63 -5 -97 -6 -34 -11 -108 -11 -163 0 -114 5 -122 78 -122 46 0 82 26 157 110 43 48 135 218 135 248 0 11 176 72 208 72 33 0 92 21 87 31 -11 17 -123 9 -198 -14 l-74 -24 5 73 c7 109 -24 133 -92 74z m39 -127 c-5 -27 -10 -33 -32 -33 -24 0 -25 2 -20 39 2 21 15 53 28 71 l24 32 3 -38 c2 -21 1 -53 -3 -71z"
       id="path50" />
    <path
       d="M14034 9345 c-8 -20 13 -45 32 -38 11 4 14 -9 14 -68 0 -83 -18 -130 -62 -162 -24 -18 -32 -19 -67 -8 -49 14 -52 19 -60 90 -7 67 -24 73 -58 21 -59 -94 -103 -131 -128 -110 -12 10 -15 40 -15 146 0 127 -1 134 -20 134 -19 0 -20 -7 -20 -154 l0 -154 30 -12 c43 -18 89 -5 131 36 33 32 38 34 43 18 18 -52 124 -81 184 -50 18 9 44 35 59 57 24 36 28 54 31 137 4 91 3 96 -19 113 -29 23 -68 24 -75 4z"
       id="path51" />
    <path
       d="M13055 9290 c-20 -33 51 -49 210 -50 118 0 165 10 137 29 -8 4 -75 11 -150 14 -76 4 -149 9 -163 13 -16 3 -30 1 -34 -6z"
       id="path52" />
    <path
       d="M14965 9199 c-27 -5 -102 -19 -165 -31 -124 -22 -225 -28 -306 -15 -42 6 -53 4 -57 -8 -11 -28 33 -40 153 -40 146 1 496 61 520 91 11 12 5 14 -41 13 -30 -1 -76 -5 -104 -10z"
       id="path53" />
    <path
       d="M6347 9164 c-9 -9 -9 -176 -1 -198 9 -24 43 -20 49 7 3 12 5 60 3 107 -3 77 -5 85 -23 88 -12 2 -24 0 -28 -4z"
       id="path54" />
    <path
       d="M13355 9158 c-33 -5 -109 -12 -170 -16 -88 -6 -110 -10 -110 -22 0 -12 19 -15 110 -15 151 0 219 11 253 40 l27 24 -25 -1 c-14 0 -52 -5 -85 -10z"
       id="path55" />
    <path
       d="M12612 8989 c-15 -5 -22 -15 -20 -26 4 -19 12 -20 64 -8 35 8 64 -13 64 -47 0 -20 -81 -106 -145 -154 -21 -15 -26 -26 -21 -39 6 -16 15 -17 82 -12 83 8 192 33 212 50 7 6 18 19 24 30 9 18 8 19 -13 13 -61 -19 -128 -35 -167 -40 l-43 -6 34 29 c18 17 46 48 62 70 22 33 26 47 21 75 -12 63 -84 94 -154 65z"
       id="path56" />
    <path
       d="M14535 8930 c-15 -24 12 -30 126 -30 132 0 144 -7 92 -56 -23 -22 -166 -95 -276 -142 -16 -7 -27 -18 -24 -25 3 -9 59 -13 219 -15 205 -2 216 -1 239 18 16 13 19 20 9 19 -8 -1 -87 -1 -175 0 l-160 2 91 44 c131 63 184 133 138 179 -12 13 -40 16 -144 16 -75 0 -131 -4 -135 -10z"
       id="path57" />
    <path
       d="M194 8709 c-3 -6 -2 -15 2 -19 5 -5 207 -11 449 -13 540 -6 970 -25 1528 -68 116 -9 157 -9 192 1 25 7 45 16 45 19 0 9 -233 30 -445 41 -88 5 -232 14 -320 20 -430 29 -1436 42 -1451 19z"
       id="path58" />
    <path
       d="M6341 8663 c-5 -21 -12 -68 -15 -104 -5 -54 -3 -76 14 -114 34 -79 44 -55 44 108 1 132 -1 147 -16 147 -12 0 -20 -12 -27 -37z"
       id="path59" />
    <path
       d="M5185 8448 c-72 -62 -175 -319 -175 -435 0 -75 1 -75 130 -71 71 3 85 6 88 21 3 15 -6 17 -88 17 l-92 0 7 46 c5 38 20 62 87 141 81 97 148 215 148 263 0 57 -51 66 -105 18z m59 -34 c-14 -53 -139 -253 -151 -240 -9 9 77 192 108 229 36 43 52 48 43 11z"
       id="path60" />
    <path
       d="M9234 8405 c-9 -23 3 -45 24 -45 10 0 28 -10 39 -22 33 -37 46 -93 41 -183 -4 -70 -9 -90 -31 -124 -20 -30 -34 -41 -53 -41 -35 0 -111 74 -128 125 -11 31 -19 40 -38 40 -22 0 -23 -4 -28 -95 -6 -101 -25 -150 -59 -150 -25 0 -85 94 -105 165 -10 33 -19 66 -22 73 -2 6 -13 12 -24 12 -11 0 -21 -6 -21 -12 -5 -53 25 -141 74 -215 43 -66 75 -83 130 -69 33 8 69 62 75 112 l4 42 44 -34 c133 -101 233 -19 237 194 2 85 -1 103 -23 147 -36 72 -120 122 -136 80z"
       id="path61" />
    <path
       d="M5421 8393 c-17 -33 -103 -324 -113 -386 -16 -95 -16 -142 1 -142 16 0 51 101 51 148 0 15 9 60 21 100 12 39 30 103 40 141 11 38 26 84 34 103 8 19 12 39 9 44 -9 15 -33 10 -43 -8z"
       id="path62" />
    <path
       d="M5525 8203 c-45 -16 -75 -40 -75 -60 0 -17 29 -17 49 0 9 7 33 18 53 24 29 9 40 8 48 -3 18 -20 3 -51 -57 -116 -45 -50 -54 -64 -51 -91 3 -32 3 -32 73 -35 108 -5 171 6 203 34 l27 25 -35 -5 c-82 -13 -220 -19 -220 -9 0 5 12 20 26 34 78 73 108 171 62 203 -27 19 -49 19 -103 -1z"
       id="path63" />
    <path
       d="M6351 8097 c-16 -20 -32 -164 -23 -207 4 -20 14 -35 22 -35 19 0 27 38 31 150 4 99 -4 123 -30 92z"
       id="path64" />
    <path
       d="M8430 8042 c0 -11 20 -33 48 -52 89 -63 162 -179 198 -318 30 -115 30 -121 -1 -90 -45 45 -103 80 -127 76 -43 -6 -36 -67 14 -123 72 -82 175 -98 226 -36 54 66 102 175 85 192 -20 20 -46 -5 -78 -75 -32 -68 -33 -70 -40 -41 -3 17 -10 46 -14 65 -5 19 -14 57 -21 85 -13 56 -79 179 -127 235 -38 45 -119 100 -145 100 -11 0 -18 -7 -18 -18z m206 -499 c-7 -7 -26 7 -26 19 0 6 6 6 15 -2 9 -7 13 -15 11 -17z"
       id="path65" />
    <path
       d="M14118 7917 c-40 -34 -68 -87 -68 -132 0 -50 11 -67 51 -80 l32 -11 -49 -50 c-27 -27 -64 -56 -81 -63 -36 -15 -88 -9 -118 12 -26 20 -32 104 -10 160 9 24 15 57 13 73 -3 26 -6 29 -39 28 -25 -1 -49 -11 -75 -32 -22 -18 -50 -40 -63 -50 -32 -25 -22 -52 19 -52 22 0 33 6 39 23 9 23 71 74 71 59 0 -5 -7 -27 -16 -48 -19 -46 -14 -142 9 -177 9 -15 37 -30 75 -42 61 -18 61 -18 116 9 50 25 156 124 156 146 0 5 46 11 103 12 83 2 102 6 102 18 0 12 -19 16 -91 20 l-91 5 13 50 c19 70 17 102 -6 125 -26 26 -59 25 -92 -3z m62 -49 c-1 -28 -23 -115 -32 -123 -4 -4 -16 -4 -27 0 -35 11 -26 78 17 128 21 24 42 21 42 -5z"
       id="path66" />
    <path
       d="M6336 7578 c-3 -7 -7 -44 -10 -83 -9 -106 38 -267 57 -198 3 10 2 79 -1 153 -6 117 -9 135 -25 138 -9 2 -19 -2 -21 -10z"
       id="path67" />
    <path
       d="M5155 7563 c-70 -29 -125 -71 -125 -98 0 -61 173 -135 210 -90 14 16 5 22 -54 35 -34 7 466 25 659 23 66 -1 158 -4 203 -8 57 -5 87 -4 95 4 24 24 38 12 31 -24 -5 -31 -4 -35 14 -35 30 0 52 38 52 91 0 53 -14 70 -76 87 -54 16 -94 15 -95 0 -3 -27 4 -43 23 -56 37 -27 6 -36 -79 -22 -54 8 -140 10 -278 6 -554 -17 -647 -18 -641 -7 4 6 19 11 33 11 39 0 143 59 143 81 0 15 -7 19 -37 18 -21 0 -56 -7 -78 -16z"
       id="path68" />
    <path
       d="M12222 7528 c-7 -7 -12 -29 -12 -50 0 -40 19 -58 59 -58 12 0 21 -3 21 -6 0 -19 -92 -158 -134 -202 -66 -70 -81 -78 -112 -57 -19 12 -24 24 -24 58 0 23 4 57 10 75 5 19 12 71 16 118 9 106 -1 112 -93 65 -67 -35 -103 -71 -103 -102 0 -23 35 -26 43 -4 7 17 85 75 102 75 9 0 10 -10 4 -37 -18 -85 -29 -162 -29 -202 0 -34 6 -49 29 -72 56 -55 130 -28 222 83 37 45 119 180 119 196 0 6 40 12 90 14 68 2 93 7 107 21 16 16 12 17 -85 17 -101 0 -102 0 -102 24 0 14 -7 32 -16 40 -18 19 -94 22 -112 4z m78 -48 c0 -13 -7 -20 -20 -20 -13 0 -20 7 -20 20 0 13 7 20 20 20 13 0 20 -7 20 -20z"
       id="path69" />
    <path
       d="M13910 7338 c-129 -20 -153 -29 -132 -50 9 -9 40 -7 134 6 68 10 173 20 233 23 132 6 142 8 125 28 -18 21 -201 18 -360 -7z"
       id="path70" />
    <path
       d="M12995 7330 c-15 -25 13 -30 163 -30 155 0 204 9 172 30 -20 13 -327 13 -335 0z"
       id="path71" />
    <path
       d="M13268 7175 c-3 -3 -70 -9 -149 -13 -118 -6 -144 -10 -144 -22 0 -13 21 -15 130 -15 111 1 137 4 178 22 26 12 47 24 47 27 0 8 -55 8 -62 1z"
       id="path72" />
    <path
       d="M13940 7087 c-28 -7 -45 -18 -45 -27 0 -12 11 -14 55 -11 121 10 125 9 128 -25 3 -26 -4 -36 -40 -66 -24 -19 -69 -48 -102 -64 -32 -16 -75 -44 -95 -61 l-36 -33 24 -20 c21 -18 37 -20 173 -20 94 0 157 4 171 12 21 11 21 11 2 19 -11 4 -83 8 -160 9 -157 1 -158 2 -41 62 32 16 80 50 107 75 41 39 49 51 49 82 0 58 -18 74 -86 77 -33 2 -79 -2 -104 -9z"
       id="path73" />
    <path
       d="M8068 7047 c-39 -58 -87 -107 -103 -107 -8 0 -15 -9 -15 -20 0 -16 7 -20 34 -20 19 0 38 6 43 13 5 7 10 -15 13 -53 5 -61 6 -65 30 -65 25 0 25 2 30 95 3 54 12 110 21 130 9 19 14 41 12 48 -8 23 -42 12 -65 -21z"
       id="path74" />
    <path
       d="M6330 7031 c-11 -22 -13 -106 -4 -163 5 -27 12 -38 24 -38 20 0 30 42 30 136 0 75 -26 109 -50 65z"
       id="path75" />
    <path
       d="M12392 6989 c-29 -11 -26 -46 3 -41 91 16 85 17 85 -17 0 -37 -46 -116 -95 -160 -62 -56 -49 -66 96 -69 l125 -3 47 36 c75 57 56 70 -35 24 -27 -14 -59 -19 -114 -19 l-77 0 27 33 c65 80 96 183 64 215 -14 14 -93 15 -126 1z"
       id="path76" />
    <path
       d="M5094 6916 c-9 -14 -14 -33 -10 -41 8 -21 39 -19 54 5 17 27 62 27 62 0 0 -10 -10 -25 -22 -31 -13 -7 -26 -17 -30 -23 -8 -13 20 -46 39 -46 21 0 76 -31 68 -38 -3 -4 -36 -12 -73 -17 -48 -7 -67 -14 -67 -25 0 -12 16 -16 70 -18 56 -2 77 2 103 18 29 18 33 25 28 48 -7 29 -40 62 -62 62 -17 0 -17 5 -2 29 8 14 9 31 2 58 l-9 38 -67 3 c-62 3 -68 1 -84 -22z"
       id="path77" />
    <path
       d="M6055 6890 c-11 -19 6 -30 46 -30 48 0 49 -9 6 -80 -44 -73 -49 -88 -37 -111 13 -24 61 -49 95 -49 32 0 105 45 105 65 0 19 -8 19 -65 0 -33 -12 -50 -13 -65 -5 -25 14 -25 13 8 63 39 58 55 102 48 132 -6 23 -10 25 -71 25 -35 0 -67 -4 -70 -10z"
       id="path78" />
    <path
       d="M6345 6491 c-37 -16 -57 -47 -50 -79 l6 -30 -258 -6 c-142 -3 -296 -10 -343 -15 -47 -6 -151 -13 -232 -17 l-147 -7 -21 36 c-11 19 -36 42 -54 51 -35 16 -151 22 -172 8 -16 -10 -42 -74 -36 -90 2 -7 -2 -27 -8 -43 -15 -36 -7 -48 54 -77 l39 -19 -214 -6 c-118 -3 -257 -1 -309 4 -463 43 -705 50 -705 19 0 -12 26 -16 145 -22 80 -4 188 -12 240 -19 63 -7 437 -12 1118 -15 l1022 -5 0 -54 c0 -53 -11 -72 -24 -39 -3 9 -15 14 -28 12 -20 -3 -23 -9 -22 -43 2 -55 19 -113 42 -144 14 -19 30 -27 60 -29 38 -3 45 1 91 47 26 28 54 51 60 51 6 0 11 9 11 20 0 16 -7 20 -37 20 -20 0 -45 -7 -55 -17 -17 -15 -18 -14 -18 45 0 39 4 62 11 62 7 0 9 12 5 35 l-7 35 438 0 c241 0 523 3 627 7 l189 6 -7 -99 c-4 -54 -11 -153 -17 -219 -5 -66 -12 -196 -15 -288 -5 -118 -10 -165 -17 -158 -16 16 -57 13 -63 -3 -3 -8 4 -34 16 -58 56 -111 97 -117 188 -25 65 66 73 81 46 91 -18 7 -40 -9 -87 -59 l-27 -30 5 225 c5 209 13 361 31 552 l7 76 36 6 c20 3 325 8 679 12 624 7 642 8 642 26 0 19 -15 19 -678 16 -643 -3 -677 -2 -656 14 50 40 68 126 37 176 -31 50 -39 52 -179 52 l-132 0 -19 -40 -18 -39 -467 -1 c-445 0 -468 1 -468 18 0 29 -23 53 -66 68 -43 15 -157 18 -189 5z m172 -52 c31 -11 31 -54 1 -79 -18 -14 -26 -16 -37 -7 -10 9 -17 6 -31 -11 -19 -23 -45 -29 -55 -12 -3 6 2 10 12 10 20 0 47 36 38 50 -8 14 -31 12 -55 -2 -10 -7 -22 -9 -26 -5 -8 7 14 57 31 70 11 8 85 0 122 -14z m1118 -16 c10 -13 17 -14 44 -5 29 10 33 9 43 -13 15 -33 46 -32 54 0 7 30 39 33 54 6 13 -25 13 -71 0 -91 -8 -13 -10 -12 -10 3 0 29 -43 21 -62 -13 -17 -30 -59 -42 -73 -20 -3 6 -16 10 -29 10 -33 0 -53 29 -55 79 -1 61 10 77 34 44z m-2407 -49 c25 -17 29 -34 8 -34 -23 0 -31 -22 -12 -35 14 -11 12 -15 -23 -38 l-40 -27 -41 22 c-37 20 -39 24 -24 35 11 8 15 20 10 37 -6 24 -4 26 29 26 24 0 35 5 35 15 0 19 30 19 58 -1z m2312 -33 c0 -29 48 -81 75 -81 13 0 27 -4 30 -10 3 -5 31 -10 61 -10 30 0 54 -4 54 -9 0 -14 -193 -20 -757 -27 l-503 -6 0 36 c0 31 8 44 48 81 l47 45 473 0 c459 0 472 -1 472 -19z m-1221 -19 c20 -22 58 -40 91 -44 21 -3 25 -7 22 -33 -2 -16 -7 -33 -11 -38 -4 -4 -281 -6 -615 -5 l-609 3 53 34 c28 18 54 40 57 47 4 11 33 14 127 14 66 0 177 5 246 11 197 17 355 26 494 27 111 2 131 0 145 -16z"
       id="path79" />
    <path
       d="M4375 6257 c31 -22 91 -41 109 -34 25 10 11 24 -31 31 -21 4 -51 9 -68 12 -28 5 -29 5 -10 -9z"
       id="path80" />
    <path
       d="M17525 6217 c-28 -21 -9 -40 31 -33 64 13 153 -56 140 -108 -3 -12 -42 -64 -86 -115 -44 -51 -80 -101 -80 -110 0 -19 32 -52 65 -69 33 -16 161 -42 210 -42 46 0 85 13 85 29 0 4 -37 11 -82 15 -116 9 -200 33 -220 61 -6 8 48 81 107 142 36 38 58 88 51 116 -21 86 -161 157 -221 114z"
       id="path81" />
    <path
       d="M4985 6108 c-57 -14 -70 -22 -73 -47 -3 -20 1 -21 63 -21 61 0 65 -1 56 -19 -17 -30 -250 -225 -342 -285 -123 -81 -160 -109 -156 -121 7 -19 47 -16 79 7 18 13 40 28 50 33 82 49 208 145 302 231 l115 103 3 -37 c2 -24 8 -38 19 -40 26 -5 40 46 37 129 l-3 74 -55 1 c-30 1 -73 -3 -95 -8z"
       id="path82" />
    <path
       d="M17233 5957 c3 -18 23 -73 45 -122 58 -128 74 -226 79 -491 l5 -221 -36 -115 c-19 -63 -54 -147 -76 -188 -46 -84 -51 -113 -17 -108 30 4 102 154 147 303 l32 110 -5 220 c-5 242 -22 361 -64 460 -14 33 -37 88 -51 123 -19 46 -31 62 -45 62 -17 0 -19 -5 -14 -33z"
       id="path83" />
    <path
       d="M16418 5943 c-26 -29 -130 -270 -166 -383 -81 -257 -111 -414 -119 -610 l-6 -155 36 -71 c40 -80 82 -127 127 -142 42 -15 38 -2 -16 60 -26 28 -58 77 -72 107 -24 53 -25 58 -18 210 7 171 23 262 84 481 55 197 167 470 193 470 16 0 6 44 -12 48 -8 1 -22 -5 -31 -15z"
       id="path84" />
    <path
       d="M16888 5863 c-40 -46 -51 -112 -23 -142 12 -15 10 -22 -23 -63 -63 -80 -159 -138 -226 -138 -28 0 -19 44 29 138 25 49 45 101 45 116 0 30 -31 66 -58 66 -30 0 -125 -39 -146 -60 -33 -32 4 -36 76 -7 34 14 66 23 70 21 17 -11 6 -47 -37 -130 -85 -163 -53 -213 108 -167 52 14 70 27 133 89 40 40 75 82 79 93 6 19 14 21 103 21 101 0 141 11 112 30 -8 5 -54 10 -101 10 l-86 0 1 68 c1 60 -1 67 -20 70 -11 2 -27 -5 -36 -15z"
       id="path85" />
    <path
       d="M8231 5834 c-25 -32 -54 -129 -46 -155 4 -10 15 -19 26 -19 18 0 19 -6 13 -122 -6 -117 -5 -124 16 -150 26 -33 61 -36 106 -9 50 31 131 146 161 232 l18 49 75 0 c77 0 115 12 134 42 16 26 2 31 -51 16 -26 -8 -71 -12 -99 -10 l-52 4 2 47 c0 30 -5 56 -17 74 -16 24 -24 28 -60 25 -39 -3 -42 -5 -50 -43 -11 -53 -2 -81 35 -115 30 -27 30 -30 18 -62 -43 -109 -133 -228 -174 -228 -8 0 -3 178 10 327 3 40 3 84 0 98 -8 33 -39 33 -65 -1z m249 -65 c0 -18 -4 -28 -10 -24 -5 3 -10 20 -10 36 0 18 4 28 10 24 6 -3 10 -20 10 -36z"
       id="path86" />
    <path
       d="M15268 5829 c-10 -5 -18 -17 -18 -26 0 -12 7 -14 36 -10 57 9 74 -5 74 -62 0 -46 -3 -50 -65 -110 -64 -60 -76 -86 -53 -109 16 -16 271 -17 301 0 21 11 21 11 2 19 -11 4 -75 8 -143 8 l-123 1 62 58 c61 58 63 60 67 120 4 58 3 63 -26 92 -32 32 -79 40 -114 19z"
       id="path87" />
    <path
       d="M13002 5700 c-56 -53 -91 -126 -123 -265 -13 -56 -34 -85 -59 -85 -9 0 -20 -3 -23 -7 -11 -10 13 -33 34 -33 16 0 19 -8 19 -55 0 -43 4 -56 19 -65 28 -14 230 -13 260 3 56 28 35 35 -99 29 l-130 -5 0 62 c0 62 0 62 53 111 59 55 129 170 149 244 12 46 12 49 -11 67 -30 24 -62 24 -89 -1z m58 -53 c0 -24 -78 -165 -104 -186 -14 -12 -16 -11 -16 6 0 58 76 203 107 203 7 0 13 -10 13 -23z"
       id="path88" />
    <path
       d="M3820 5642 c-43 -21 -48 -46 -21 -108 25 -56 27 -130 4 -164 -40 -60 -66 -80 -105 -80 -33 0 -40 4 -49 28 -6 15 -8 52 -5 82 17 170 18 191 6 205 -19 23 -43 18 -82 -17 -45 -42 -71 -93 -64 -124 12 -46 66 -23 66 27 0 15 7 32 15 39 13 10 15 9 15 -10 0 -13 -5 -52 -11 -87 -21 -121 20 -193 109 -193 57 0 102 27 140 85 42 64 50 137 21 204 -11 28 -19 57 -16 65 3 8 30 16 74 21 78 8 84 10 76 30 -8 22 -128 20 -173 -3z"
       id="path89" />
    <path
       d="M6187 5634 c-50 -26 -67 -48 -50 -65 7 -7 29 0 66 21 l55 31 4 -29 c2 -16 1 -38 -3 -48 -4 -11 -8 -69 -8 -131 -1 -101 1 -113 18 -123 28 -14 77 -12 110 4 36 19 109 117 132 175 16 44 20 47 76 62 80 22 108 38 94 52 -8 8 -27 8 -69 -1 -77 -16 -80 -16 -84 11 -3 20 -9 22 -58 22 l-55 0 -3 -42 c-3 -39 -1 -43 25 -49 15 -3 31 -6 35 -7 14 -4 -47 -112 -87 -154 -32 -33 -49 -44 -67 -41 -23 3 -23 4 -18 98 3 52 5 127 5 165 l0 70 -35 2 c-22 2 -53 -7 -83 -23z m293 -64 c0 -5 -4 -10 -10 -10 -5 0 -10 5 -10 10 0 6 5 10 10 10 6 0 10 -4 10 -10z"
       id="path90" />
    <path
       d="M14622 5590 c-12 -6 -43 -26 -67 -47 -34 -28 -45 -44 -45 -65 0 -21 5 -28 19 -28 10 0 21 8 23 18 5 17 88 91 88 78 0 -4 -7 -23 -16 -44 -30 -70 -74 -227 -74 -265 0 -29 7 -46 29 -68 33 -32 56 -36 105 -15 71 29 195 135 241 205 21 31 34 41 54 41 41 0 144 29 160 45 26 26 2 29 -81 12 -45 -9 -83 -15 -85 -13 -3 2 0 13 6 24 16 30 13 78 -5 96 -25 25 -57 19 -93 -18 -28 -29 -32 -39 -29 -77 2 -33 8 -46 26 -55 22 -11 22 -11 -14 -58 -47 -62 -188 -166 -225 -166 -51 0 -52 56 -3 195 72 207 70 238 -14 205z m308 -111 c-16 -37 -30 -37 -30 1 0 17 7 33 18 39 23 13 27 -2 12 -40z"
       id="path91" />
    <path
       d="M15891 5546 c-7 -8 -15 -46 -18 -85 -7 -81 -4 -79 -113 -83 -50 -2 -65 -6 -65 -18 0 -12 18 -16 88 -18 l87 -3 0 -59 c0 -55 15 -90 40 -90 4 0 8 33 8 74 0 41 3 79 6 85 4 6 28 11 54 12 67 1 137 21 137 39 0 16 -12 17 -129 4 l-68 -7 3 78 c4 79 -5 101 -30 71z"
       id="path92" />
    <path
       d="M11865 5506 c-31 -8 -50 -17 -50 -27 0 -16 28 -16 157 -4 69 7 78 6 84 -9 10 -26 -37 -67 -104 -92 -59 -23 -75 -47 -32 -52 46 -4 140 -35 151 -49 27 -32 -51 -60 -201 -72 -57 -5 -75 -10 -75 -21 0 -39 243 -14 307 31 52 38 25 107 -49 125 -12 4 -23 7 -23 8 0 2 18 22 40 45 45 47 51 80 20 111 -17 17 -32 20 -97 19 -43 -1 -100 -7 -128 -13z"
       id="path93" />
    <path
       d="M12393 5499 c-32 -21 -83 -107 -83 -142 0 -64 80 -94 163 -62 26 11 24 -19 -14 -225 -23 -122 -89 -285 -112 -277 -37 12 -61 146 -34 193 7 12 40 43 75 69 34 26 62 49 62 51 0 9 -57 -9 -108 -34 -66 -32 -92 -76 -92 -154 0 -64 38 -153 72 -169 60 -27 100 25 156 201 36 111 52 219 51 345 0 50 1 117 1 149 1 39 -3 62 -12 67 -24 16 -92 9 -125 -12z m89 -54 c-2 -16 -10 -40 -18 -53 -9 -13 -13 -30 -10 -38 8 -21 -37 -36 -69 -24 -30 11 -31 28 -5 80 23 45 57 72 85 68 16 -2 19 -9 17 -33z"
       id="path94" />
    <path
       d="M4532 5479 c-48 -24 -65 -48 -61 -87 2 -15 -5 -41 -14 -59 -9 -18 -22 -55 -28 -83 -14 -67 3 -90 67 -90 39 0 50 6 109 61 72 68 104 127 108 197 1 36 -3 48 -22 63 -32 26 -104 25 -159 -2z m128 -58 c0 -49 -38 -117 -91 -165 -79 -71 -108 -58 -75 31 8 21 17 55 21 77 9 56 44 86 100 86 43 0 45 -1 45 -29z"
       id="path95" />
    <path
       d="M13595 5450 c-16 -26 14 -30 228 -30 217 0 272 7 237 30 -20 13 -457 13 -465 0z"
       id="path96" />
    <path
       d="M4185 5370 c-11 -5 -37 -9 -58 -9 -49 -1 -77 -16 -77 -43 0 -18 4 -20 33 -14 17 4 70 14 117 22 46 8 86 17 88 19 3 2 2 11 -1 20 -7 17 -67 20 -102 5z"
       id="path97" />
    <path
       d="M13727 5330 c-46 -9 -66 -25 -50 -41 8 -8 28 -8 75 0 36 6 116 11 179 12 63 0 123 4 134 8 19 8 19 8 -2 19 -24 13 -272 15 -336 2z"
       id="path98" />
    <path
       d="M16552 5304 c-12 -8 -22 -18 -22 -22 0 -8 380 -4 418 4 20 4 22 7 12 19 -19 23 -376 22 -408 -1z"
       id="path99" />
    <path
       d="M4245 5300 c-100 -15 -195 -55 -195 -83 0 -23 21 -21 114 12 33 12 70 21 83 21 36 0 93 27 93 44 0 17 -14 18 -95 6z"
       id="path100" />
    <path
       d="M6560 5281 c0 -16 8 -20 38 -23 32 -3 37 -7 40 -29 2 -21 -9 -40 -52 -85 -31 -33 -54 -63 -53 -69 2 -6 49 -10 113 -10 90 0 109 3 109 15 0 12 -17 16 -75 20 -43 3 -68 8 -58 12 26 11 68 84 68 118 0 45 -31 70 -85 70 -38 0 -45 -3 -45 -19z"
       id="path101" />
    <path
       d="M3932 5228 c-35 -17 -24 -44 17 -40 34 2 34 2 28 -40 -3 -23 -11 -44 -16 -46 -6 -2 -11 -12 -11 -23 0 -10 -6 -19 -13 -19 -24 0 -49 -37 -45 -67 3 -28 4 -28 80 -31 73 -3 78 -1 93 22 20 31 13 63 -22 92 -21 18 -23 25 -14 43 13 23 6 87 -12 109 -12 15 -54 15 -85 0z m61 -180 c46 -22 29 -48 -30 -48 -19 0 -24 4 -19 16 3 9 6 22 6 30 0 17 8 18 43 2z"
       id="path102" />
    <path
       d="M16580 5020 c0 -18 7 -20 85 -20 83 0 85 -1 91 -26 10 -39 -9 -67 -73 -109 -66 -44 -73 -51 -73 -83 0 -71 260 -45 328 34 13 14 21 28 19 30 -2 2 -47 -12 -101 -31 -93 -34 -178 -45 -190 -26 -3 5 14 21 38 35 97 57 131 132 85 190 -19 25 -25 26 -115 26 -87 0 -94 -1 -94 -20z"
       id="path103" />
    <path
       d="M14780 4285 c-41 -8 -107 -22 -146 -32 -67 -18 -76 -24 -148 -96 -63 -64 -77 -83 -74 -105 3 -24 7 -27 38 -24 19 1 69 5 111 8 74 6 76 5 82 -18 12 -42 -26 -76 -137 -123 -58 -24 -138 -38 -147 -24 -11 19 -49 -8 -49 -35 0 -27 23 -40 48 -27 9 4 34 11 54 14 67 10 207 69 243 103 30 27 35 38 35 76 0 67 -18 78 -124 78 -83 0 -86 1 -76 20 18 34 113 97 170 113 59 16 159 34 255 45 43 5 60 11 60 22 0 20 -95 22 -195 5z"
       id="path104" />
    <path
       d="M13237 4159 c-117 -62 -247 -400 -247 -643 0 -90 1 -95 26 -115 15 -12 41 -21 58 -21 41 0 151 53 166 79 6 12 7 21 2 21 -13 0 -103 -32 -131 -47 -59 -30 -74 -8 -72 100 1 46 6 98 10 118 5 20 49 90 104 164 66 89 110 159 138 223 39 89 40 94 25 118 -20 29 -29 29 -79 3z m8 -120 c-39 -82 -145 -231 -145 -205 0 28 50 147 85 202 34 53 87 102 93 86 1 -5 -13 -43 -33 -83z"
       id="path105" />
    <path
       d="M15826 4127 c-35 -26 -15 -41 57 -42 57 0 72 -5 109 -31 34 -24 43 -36 41 -57 -2 -28 -51 -77 -111 -112 -63 -36 -68 -80 -11 -96 36 -10 262 -10 278 0 27 17 -25 31 -121 32 -51 1 -106 4 -123 8 l-29 6 41 19 c59 26 122 94 130 139 5 32 2 40 -28 68 -64 60 -192 97 -233 66z"
       id="path106" />
    <path
       d="M15497 3873 c-4 -3 -7 -28 -7 -54 0 -39 4 -51 25 -66 l26 -18 -33 -65 c-55 -108 -143 -179 -203 -164 -24 6 -25 10 -25 80 0 40 4 83 9 96 45 119 50 170 18 176 -65 13 -177 -63 -177 -119 0 -38 35 -41 44 -4 6 24 54 66 89 78 9 4 17 5 17 4 0 -1 -11 -38 -25 -82 -24 -79 -34 -215 -17 -241 12 -19 49 -34 83 -34 81 0 168 73 227 191 l37 74 66 -3 c54 -2 70 1 90 17 l24 20 -65 1 c-96 0 -107 5 -114 50 -8 51 -63 90 -89 63z"
       id="path107" />
    <path
       d="M13785 3830 c-16 -4 -69 -8 -117 -9 -81 -1 -88 -3 -88 -21 0 -18 7 -20 85 -20 75 0 196 12 265 26 24 5 24 6 6 20 -21 15 -100 17 -151 4z"
       id="path108" />
    <path
       d="M12499 3782 c-62 -43 -89 -88 -89 -149 0 -37 4 -44 31 -59 37 -19 97 -13 153 16 33 16 36 17 32 2 -3 -10 -10 -46 -15 -82 -6 -36 -16 -69 -23 -73 -7 -4 -36 -21 -64 -37 -34 -19 -63 -47 -90 -85 -37 -55 -39 -61 -42 -150 -4 -109 13 -161 56 -172 81 -20 172 237 237 673 4 26 2 45 -4 49 -6 3 -11 21 -11 40 0 74 -84 87 -171 27z m119 -14 c17 -17 15 -80 -4 -107 -21 -29 -72 -51 -119 -51 -33 0 -35 2 -35 31 0 43 25 81 74 112 46 29 67 32 84 15z m-58 -485 c-47 -166 -93 -261 -112 -231 -11 18 -10 171 1 201 5 14 36 51 67 83 69 70 76 62 44 -53z"
       id="path109" />
    <path
       d="M12090 3789 c-133 -35 -140 -38 -140 -70 0 -32 25 -40 44 -14 11 15 164 61 172 52 6 -6 -57 -59 -95 -79 -62 -34 -45 -78 29 -78 43 0 80 -33 80 -71 0 -47 -80 -94 -185 -111 -11 -2 -20 -10 -20 -18 0 -24 58 -24 130 1 82 27 125 73 125 132 0 52 -52 107 -101 107 l-33 0 45 29 c62 40 91 74 87 103 -3 20 -9 23 -53 25 -27 1 -66 -3 -85 -8z"
       id="path110" />
    <path
       d="M13595 3690 c-14 -23 11 -30 109 -30 65 0 116 5 136 14 l32 13 -38 6 c-62 10 -232 8 -239 -3z"
       id="path111" />
    <path
       d="M14565 3670 c-16 -4 -87 -8 -157 -9 -124 -1 -128 -2 -128 -22 0 -22 0 -22 178 -15 329 14 387 19 387 36 0 12 -21 15 -125 16 -69 1 -138 -2 -155 -6z"
       id="path112" />
    <path
       d="M14502 3518 c-7 -7 -12 -20 -12 -29 0 -10 -13 -51 -30 -92 -30 -75 -40 -160 -20 -172 5 -3 30 1 55 10 70 23 79 21 70 -17 -4 -18 -9 -68 -12 -111 -4 -65 -2 -78 12 -83 27 -11 39 12 36 67 -4 73 26 177 53 185 33 11 49 44 21 44 -20 0 -19 12 2 49 13 21 15 33 7 41 -18 18 -39 1 -66 -54 -22 -45 -32 -54 -60 -59 -18 -3 -43 -9 -55 -13 -33 -9 -30 13 14 123 30 77 34 95 23 108 -15 18 -22 19 -38 3z"
       id="path113" />
    <path
       d="M18444 3016 c-8 -8 -49 -15 -111 -19 -55 -4 -124 -11 -153 -17 -151 -29 -831 -48 -2065 -59 -572 -5 -1173 -14 -1335 -20 -744 -28 -1051 -33 -2151 -38 -696 -2 -1181 -8 -1190 -14 -12 -8 -12 -10 1 -19 10 -7 408 -9 1250 -7 1156 4 1532 11 2190 38 146 6 735 15 1310 20 575 4 1164 13 1310 18 321 12 649 30 672 37 9 2 67 11 130 18 62 8 120 15 128 17 13 4 15 -119 14 -1061 -1 -586 -5 -1142 -9 -1236 l-7 -171 -97 -7 c-311 -22 -435 -28 -801 -36 -223 -5 -610 -14 -860 -21 -293 -8 -1193 -12 -2530 -13 -1902 -1 -2091 0 -2263 17 -104 9 -249 17 -323 17 -125 0 -134 -1 -134 -19 0 -17 12 -19 173 -24 94 -3 233 -11 307 -19 187 -18 4136 -18 4820 1 256 7 643 16 860 21 360 8 524 16 772 36 65 5 91 4 103 -6 11 -9 18 -10 29 -1 20 16 27 51 11 51 -21 0 -23 19 -14 185 4 88 8 652 9 1253 0 1034 -1 1092 -17 1092 -10 -1 -23 -7 -29 -14z"
       id="path114" />
    <path
       d="M11425 2698 c-3 -51 -10 -435 -15 -853 -5 -418 -12 -880 -15 -1027 -7 -291 -1 -348 36 -348 19 0 20 4 14 43 -4 23 -7 110 -8 192 0 290 23 1802 29 1943 7 139 6 142 -14 142 -19 0 -21 -8 -27 -92z"
       id="path115" />
    <path
       d="M17506 2753 c-4 -5 -206 -11 -449 -15 -243 -3 -523 -11 -622 -17 -416 -26 -580 -34 -755 -40 -155 -5 -185 -8 -185 -21 0 -8 10 -16 23 -18 12 -2 22 -10 22 -19 0 -9 -45 -91 -100 -183 -55 -92 -100 -171 -100 -176 0 -5 -32 -67 -71 -139 -38 -71 -85 -168 -103 -215 -32 -82 -101 -228 -131 -280 -9 -14 -32 -56 -53 -95 -24 -46 -38 -63 -40 -51 -4 19 19 123 49 225 13 42 19 94 19 158 0 91 -1 96 -29 124 -24 23 -38 29 -73 28 -61 0 -152 -31 -156 -52 -4 -22 17 -22 97 -1 65 16 95 13 105 -12 14 -37 7 -173 -12 -240 -35 -120 -52 -211 -52 -278 0 -63 1 -66 23 -66 13 0 31 8 39 18 37 41 213 385 259 504 17 42 55 123 86 180 31 57 66 126 79 154 12 28 61 115 108 192 47 77 93 159 102 181 l16 41 97 0 c94 0 474 19 821 41 96 6 360 15 585 19 226 4 421 11 434 15 22 8 23 7 18 -36 -3 -24 -8 -56 -12 -71 -6 -24 -4 -28 14 -28 13 0 26 11 36 30 18 35 20 121 3 138 -13 13 -80 16 -92 5z"
       id="path116" />
    <path
       d="M15755 2422 c-57 -24 -65 -31 -65 -53 0 -22 32 -26 49 -5 15 18 90 39 125 34 27 -3 25 -5 -28 -38 -94 -57 -92 -56 -78 -73 7 -8 32 -20 56 -26 54 -13 92 -42 83 -64 -5 -13 -24 -17 -94 -19 -70 -2 -88 -6 -88 -18 0 -23 178 -27 211 -5 51 33 16 108 -63 137 l-31 11 42 28 c63 42 82 66 70 87 -16 25 -135 27 -189 4z"
       id="path117" />
    <path
       d="M17081 2403 c-69 -34 -162 -178 -221 -343 -28 -78 -67 -122 -175 -196 l-80 -55 -3 90 c-2 63 2 101 12 125 15 36 36 48 36 21 0 -8 9 -15 20 -15 18 0 20 7 20 59 0 65 -5 71 -69 71 -104 0 -298 -154 -240 -191 22 -14 96 -10 134 5 l35 15 0 -109 0 -109 -47 -37 c-75 -60 -123 -107 -139 -136 -20 -38 -18 -145 4 -187 25 -50 42 -57 85 -36 30 14 44 31 71 89 40 82 66 176 66 235 0 39 3 43 67 89 36 26 86 62 110 79 l43 33 0 -29 c0 -40 21 -58 75 -67 56 -8 92 -1 228 42 72 24 119 45 143 66 19 17 33 32 31 34 -2 2 -71 -18 -153 -45 -152 -50 -170 -54 -238 -52 l-39 1 6 50 c6 47 12 55 100 142 99 99 237 294 237 335 0 42 -59 55 -119 26z m69 -31 c0 -32 -213 -312 -227 -298 -11 11 64 159 110 216 56 69 117 112 117 82z m-503 -269 c3 -7 -3 -9 -17 -6 -14 4 -30 -3 -48 -20 -46 -43 -104 -77 -130 -77 l-26 0 30 31 c59 62 180 108 191 72z m-127 -516 c-24 -78 -63 -162 -81 -173 -22 -13 -39 28 -39 95 l0 66 68 64 c60 59 67 63 70 42 2 -12 -6 -55 -18 -94z"
       id="path118" />
    <path
       d="M12587 2102 c-20 -22 -23 -105 -4 -120 6 -6 24 -13 40 -17 32 -8 32 -7 8 -71 -36 -93 -113 -187 -205 -248 -45 -30 -65 -32 -112 -10 -33 16 -34 18 -34 73 1 39 8 71 25 106 14 28 25 58 25 67 0 9 5 20 10 23 14 9 12 89 -2 103 -7 7 -20 12 -30 12 -38 0 -131 -44 -169 -79 -33 -32 -39 -44 -39 -78 0 -41 20 -70 40 -58 5 3 10 24 10 45 0 31 6 43 33 66 31 26 86 54 107 54 18 0 11 -35 -25 -124 -47 -117 -49 -189 -5 -231 21 -21 42 -29 79 -33 72 -7 89 0 172 71 84 72 148 163 174 248 l18 56 76 7 c87 7 151 23 151 36 0 18 -53 23 -115 11 -97 -17 -105 -16 -105 20 0 38 -48 89 -83 89 -13 0 -31 -8 -40 -18z m67 -48 c13 -33 7 -52 -14 -47 -14 4 -20 14 -20 34 0 31 23 40 34 13z"
       id="path119" />
    <path
       d="M14210 2026 c-23 -8 -36 -20 -38 -34 -4 -26 9 -28 68 -7 60 21 100 20 100 -3 0 -16 -30 -48 -197 -205 -18 -17 -33 -36 -33 -42 0 -30 26 -35 182 -35 l158 0 32 31 33 30 -30 -7 c-52 -12 -305 -17 -305 -5 0 5 15 20 33 32 17 12 65 54 105 93 63 62 72 75 72 106 0 20 -5 41 -12 48 -16 16 -123 14 -168 -2z"
       id="path120" />
    <path
       d="M16075 2018 c-60 -4 -193 -11 -295 -16 -154 -6 -185 -9 -185 -22 0 -21 179 -25 400 -10 190 13 245 24 245 45 0 16 4 16 -165 3z"
       id="path121" />
    <path
       d="M13505 1910 c-22 -5 -109 -9 -192 -9 -146 -1 -153 -2 -153 -21 0 -19 7 -20 168 -20 185 1 297 16 297 40 0 18 -59 23 -120 10z"
       id="path122" />
    <path
       d="M15950 1869 c-19 -5 -53 -13 -75 -19 -101 -24 -140 -38 -140 -51 0 -20 51 -23 99 -6 70 24 141 38 233 45 72 6 88 10 91 25 3 15 -6 17 -85 16 -48 -1 -104 -5 -123 -10z"
       id="path123" />
    <path
       d="M13585 1759 c-38 -5 -142 -12 -230 -17 -132 -6 -160 -10 -160 -22 0 -43 551 -8 558 35 3 13 -80 15 -168 4z"
       id="path124" />
    <path
       d="M15721 1728 c-7 -24 -21 -58 -32 -76 -11 -19 -17 -38 -14 -43 10 -16 41 -10 60 11 13 14 31 20 59 20 70 0 86 -8 86 -44 0 -17 -4 -36 -8 -42 -20 -28 -82 -63 -124 -69 -47 -7 -48 -7 -48 19 0 29 -3 31 -31 16 -21 -12 -25 -50 -7 -68 15 -15 90 -16 141 -1 21 5 58 29 82 53 40 38 45 47 45 88 0 62 -23 81 -105 86 l-64 4 6 44 c5 39 4 44 -14 44 -15 0 -23 -11 -32 -42z"
       id="path125" />
  </g>
  <g
     id="logo"
     transform="matrix(0.8161748,0,0,0.8161748,40.148604,1017.6242)">
    <g
       transform="matrix(0.1,0,0,-0.1,-57.706759,297.53739)"
       fill="#4444bb"
       stroke="none"
       id="g133">
      <path
         d="m 750,2973 c -57,-10 -88,-25 -119,-57 -40,-41 -55,-100 -46,-179 6,-45 12,-61 32,-77 32,-25 35,-25 64,-1 22,17 24,26 21,89 -4,105 24,120 164,87 33,-7 119,-19 190,-25 88,-8 134,-16 144,-26 32,-32 8,-420 -28,-456 -18,-18 -126,-28 -289,-28 -185,0 -206,-4 -250,-52 -55,-58 -58,-82 -55,-363 1,-145 7,-274 13,-293 11,-34 51,-62 89,-62 12,0 35,14 52,31 l 31,30 -6,238 c -3,130 -3,249 0,264 l 5,27 h 112 c 234,1 363,26 423,82 58,54 98,260 91,463 -4,122 -7,138 -34,191 -40,81 -79,100 -217,108 -174,10 -361,14 -387,9 z"
         fill="#4444bb"
         id="path126" />
      <path
         d="m 3660,2971 c -42,-9 -83,-34 -103,-65 -39,-59 -50,-127 -54,-343 -5,-206 -5,-212 18,-252 28,-50 78,-86 143,-102 48,-12 257,-8 370,7 l 49,7 -7,-104 c -4,-57 -11,-189 -16,-294 -9,-177 -9,-192 8,-214 35,-47 100,-46 136,2 22,29 27,86 42,452 7,191 0,235 -44,283 -45,48 -92,56 -241,38 -146,-18 -229,-20 -265,-6 l -26,10 v 162 c 0,156 8,230 27,249 5,5 99,6 210,2 l 201,-6 5,-50 c 3,-39 11,-56 31,-74 34,-29 48,-29 80,0 24,20 26,30 28,113 4,147 -23,169 -218,179 -242,11 -340,13 -374,6 z"
         fill="#4444bb"
         id="path127" />
      <path
         d="m 1565,2945 c -14,-13 -25,-32 -25,-42 0,-10 -1,-297 -3,-638 -2,-677 -3,-662 55,-694 33,-19 73,-7 101,31 18,24 20,51 29,300 5,150 10,278 12,283 2,6 37,8 97,3 52,-3 135,-7 186,-7 154,-2 161,-10 143,-176 -21,-189 -27,-310 -18,-343 12,-45 45,-72 86,-72 71,0 102,46 102,151 0,33 7,118 16,187 24,190 9,280 -58,349 -50,52 -112,67 -263,65 -71,-1 -164,-6 -205,-11 -41,-4 -78,-7 -81,-5 -4,2 -10,108 -13,236 -9,286 -17,352 -47,384 -31,33 -82,32 -114,-1 z"
         fill="#4444bb"
         id="path128" />
      <path
         d="m 2542,2944 c -55,-38 -64,-109 -53,-419 6,-186 9,-215 28,-250 50,-95 116,-125 302,-135 75,-4 171,-5 215,-1 l 78,7 -4,-178 c -2,-97 -7,-181 -11,-184 -4,-4 -42,1 -85,11 -104,26 -285,27 -363,3 -106,-33 -149,-107 -99,-170 26,-34 68,-41 132,-21 74,23 202,20 308,-7 182,-47 274,5 301,168 12,77 27,831 19,994 -7,152 -20,181 -86,186 -88,7 -103,-51 -104,-401 v -219 l -201,4 c -197,3 -201,3 -220,27 -18,21 -19,42 -19,283 v 260 l -29,29 c -33,33 -74,38 -109,13 z"
         fill="#4444bb"
         id="path129" />
      <path
         d="m 2374,1391 c -55,-34 -79,-78 -79,-147 0,-51 4,-66 27,-96 35,-45 102,-73 153,-64 78,15 146,111 131,188 -20,108 -145,172 -232,119 z"
         fill="#4444bb"
         id="path130" />
      <path
         d="m 1853,999 c -39,-11 -66,-56 -61,-101 6,-59 69,-64 76,-6 4,30 34,38 145,38 h 67 V 820 c 0,-135 -1,-136 -132,-126 -85,6 -89,6 -113,-18 -24,-25 -25,-28 -25,-179 0,-162 4,-177 47,-177 35,0 43,29 43,159 v 121 h 73 c 85,0 141,14 168,41 17,17 19,34 19,169 0,147 -1,152 -25,175 -23,24 -30,25 -137,24 -62,0 -128,-5 -145,-10 z"
         fill="#4444bb"
         id="path131" />
      <path
         d="m 2985,1000 c -91,-16 -93,-18 -104,-58 -15,-51 -14,-537 0,-564 19,-36 69,-48 204,-48 121,0 127,1 151,25 l 24,24 -2,292 -3,292 -26,19 c -31,23 -161,33 -244,18 z m 169,-86 c 14,-5 16,-37 16,-250 V 419 l -102,3 -103,3 v 240 240 l 40,6 c 57,9 131,10 149,3 z"
         fill="#4444bb"
         id="path132" />
      <path
         d="m 2351,971 c -24,-24 -29,-73 -37,-372 -6,-232 -6,-237 15,-258 23,-23 29,-25 51,-11 12,7 16,40 20,150 l 5,141 35,-23 c 19,-13 59,-55 88,-93 30,-39 78,-96 108,-128 47,-51 56,-57 74,-47 29,16 25,42 -15,92 -19,24 -62,78 -95,121 -61,77 -61,77 -33,77 15,0 46,9 69,19 56,26 67,57 62,179 -6,156 -27,172 -220,172 -93,0 -111,-3 -127,-19 z m 257,-74 c 16,-13 17,-168 0,-185 -7,-7 -41,-12 -84,-12 -40,0 -84,-4 -98,-10 l -26,-10 v 120 119 l 98,-6 c 53,-3 103,-10 110,-16 z"
         fill="#4444bb"
         id="path133" />
    </g>
  </g>
</svg>
