<svg xmlns="http://www.w3.org/2000/svg" version="1.0" width="2527.851579pt" height="1561.773271pt" viewBox="0 0 2527.851579 1561.773271" preserveAspectRatio="xMidYMid meet">
<metadata>
Created by potrace 1.16, written by Peter Selinger 2001-2019
</metadata>
<g transform="translate(-38.148421,1643.746525) scale(0.100000,-0.100000)" fill="#000000" stroke="none">
<path d="M2915 16424 c-120 -36 -261 -98 -287 -125 -30 -31 -37 -79 -15 -97 6 -5 36 -18 65 -28 38 -14 59 -28 73 -51 20 -32 20 -32 -1 -80 -27 -60 -57 -93 -87 -93 -24 0 -31 15 -35 85 -3 35 -6 40 -28 40 -23 0 -25 -4 -28 -58 -3 -52 0 -60 27 -87 23 -24 38 -30 72 -30 35 0 47 6 75 35 40 43 74 116 74 159 0 47 -49 101 -110 121 -27 9 -52 20 -54 23 -11 19 39 52 137 90 117 46 160 58 252 69 43 6 60 12 60 23 0 21 -124 24 -190 4z"/>
<path d="M926 16352 c-8 -15 -22 -57 -31 -92 -42 -170 -40 -166 -147 -178 -46 -5 -63 -11 -63 -22 0 -12 15 -15 73 -15 75 0 83 -6 58 -40 -10 -14 -31 -21 -73 -25 -43 -4 -58 -9 -58 -20 0 -11 14 -16 56 -18 l56 -3 -10 -38 c-13 -49 -4 -73 25 -69 16 2 24 11 26 28 10 85 39 110 125 110 l40 0 -6 -62 c-8 -72 3 -99 30 -82 10 6 19 25 21 45 8 110 10 116 50 124 20 3 45 8 55 11 31 9 7 24 -40 24 -42 0 -45 2 -39 23 3 12 6 27 6 33 0 7 17 15 38 18 120 22 145 46 46 46 -30 0 -54 4 -54 8 0 30 38 108 71 145 77 88 30 109 -49 22 -28 -31 -53 -69 -57 -87 -4 -18 -14 -49 -22 -69 -13 -33 -19 -37 -70 -48 -31 -6 -60 -11 -64 -11 -8 0 43 196 60 228 6 12 9 27 6 32 -12 20 -45 10 -59 -18z m94 -289 c0 -32 -14 -40 -79 -47 -57 -7 -63 -5 -57 9 3 9 6 20 6 25 0 5 24 13 53 18 75 14 77 14 77 -5z"/>
<path d="M1625 16250 c-19 -38 -35 -75 -35 -82 0 -7 -20 -58 -45 -113 -50 -111 -59 -168 -24 -163 14 2 25 15 33 38 24 68 88 226 119 292 16 36 27 73 24 82 -13 33 -37 15 -72 -54z"/>
<path d="M2203 16309 c-36 -11 -75 -53 -66 -75 8 -21 40 -17 57 8 12 16 28 22 71 26 66 5 85 -7 85 -54 0 -52 -53 -109 -185 -197 -93 -63 -108 -78 -103 -109 3 -22 7 -23 116 -26 116 -3 173 6 207 33 18 14 7 15 -119 9 -156 -8 -159 -6 -68 52 87 55 159 121 188 170 25 43 26 60 8 126 -11 39 -114 59 -191 37z"/>
<path d="M1854 16226 c-55 -25 -134 -141 -134 -196 1 -66 40 -90 146 -90 61 0 67 2 107 39 54 50 87 115 87 173 0 69 -15 82 -102 85 -47 2 -84 -2 -104 -11z m154 -63 c8 -53 -68 -170 -113 -174 -110 -11 -140 14 -105 87 12 25 37 61 55 80 32 34 36 35 97 32 56 -3 63 -5 66 -25z"/>
<path d="M10167 16013 c-4 -3 -7 -12 -7 -20 0 -10 21 -13 84 -13 62 0 87 -4 96 -15 23 -28 -9 -78 -109 -168 -45 -41 -43 -83 4 -103 39 -16 172 -19 195 -4 24 16 -3 27 -88 34 -42 4 -80 9 -84 12 -5 3 20 33 55 67 78 77 101 122 86 166 -6 17 -19 36 -29 41 -21 11 -193 14 -203 3z"/>
<path d="M5281 15936 c-60 -63 -79 -256 -46 -456 9 -58 21 -141 25 -185 12 -114 12 -439 0 -532 -18 -133 -77 -285 -144 -373 -19 -25 -35 -53 -35 -63 -1 -27 27 -32 52 -9 35 32 94 53 121 42 52 -20 89 -102 111 -250 33 -228 29 -319 -40 -826 -81 -610 -106 -1009 -71 -1161 35 -152 79 -210 174 -229 45 -9 40 7 -12 40 -49 31 -75 76 -104 179 -38 136 -15 542 63 1122 58 430 68 537 62 690 -13 317 -73 469 -190 482 l-45 5 33 74 c83 181 106 363 87 685 -7 112 -19 236 -27 274 -34 168 -30 336 11 433 15 35 16 36 30 18 8 -12 14 -43 14 -75 0 -74 8 -101 30 -101 21 0 30 27 30 98 0 56 -9 83 -43 120 -26 29 -58 28 -86 -2z"/>
<path d="M9194 15914 c-31 -34 -56 -79 -90 -163 -81 -200 -96 -226 -143 -240 -30 -8 -41 -17 -41 -31 0 -15 7 -20 25 -20 14 0 25 -4 25 -10 0 -5 -7 -10 -16 -10 -10 0 -14 -7 -12 -22 5 -34 42 -35 65 -3 43 63 47 65 136 65 l83 0 -10 -65 c-10 -67 -1 -95 30 -95 15 0 20 18 28 90 3 25 11 88 18 140 7 52 13 156 13 231 0 121 -2 139 -19 158 -28 31 -44 26 -92 -25z m49 -314 l-8 -75 -88 -3 -88 -3 29 58 c16 32 41 87 55 123 39 98 60 142 82 171 l20 27 3 -112 c1 -61 -1 -145 -5 -186z"/>
<path d="M18020 15814 c-6 -14 -7 -31 -3 -37 5 -7 11 -183 15 -392 4 -209 10 -476 13 -592 l6 -213 -42 0 c-91 0 -152 -51 -76 -63 17 -3 52 -9 76 -13 l43 -7 -7 -296 c-4 -163 -8 -494 -9 -736 l-1 -440 25 0 25 0 7 480 c4 264 10 587 13 718 l6 237 25 0 c14 0 42 14 62 30 l37 30 230 4 c127 3 282 8 345 12 116 7 116 7 133 -19 16 -25 15 -27 -18 -83 -54 -89 -48 -154 14 -154 38 1 80 28 99 66 12 22 6 86 -10 117 -6 13 -3 26 12 47 l21 30 305 0 306 0 55 -37 c50 -33 112 -110 113 -139 0 -7 -7 -25 -15 -40 -30 -58 -17 -104 30 -104 45 0 59 20 53 79 -5 46 -2 53 36 99 23 28 66 70 96 95 l56 44 134 7 c480 28 496 27 708 -43 116 -38 111 -36 160 -95 39 -47 40 -50 26 -77 -15 -29 -18 -67 -8 -93 9 -23 50 -20 75 7 17 18 20 31 16 67 -2 25 -3 51 0 58 8 20 29 14 42 -14 15 -33 46 -29 46 6 0 18 9 30 30 41 39 21 103 105 111 147 l6 32 204 0 c153 0 211 -4 236 -14 18 -8 73 -31 121 -52 48 -21 106 -51 127 -67 33 -24 38 -32 30 -47 -23 -43 -8 -100 26 -100 51 0 73 46 49 102 -5 13 12 35 66 89 l74 71 80 -8 c44 -4 204 -8 356 -9 l276 -2 55 -36 c30 -20 63 -46 73 -57 16 -18 17 -22 3 -37 -57 -65 -57 -133 0 -133 44 0 72 36 72 96 1 60 12 74 106 137 l70 47 362 0 362 0 0 -40 c0 -34 7 -47 48 -90 l48 -50 139 0 c133 0 139 1 172 26 38 29 73 91 73 130 0 25 1 26 53 20 76 -9 458 -26 715 -32 216 -5 222 -4 222 15 0 19 -9 20 -197 25 -246 6 -601 22 -710 32 -77 6 -83 9 -83 29 0 12 -9 34 -21 49 -40 51 -107 73 -254 83 l-71 4 -45 -48 c-25 -26 -50 -57 -56 -68 -13 -22 -1 -23 -168 26 -67 19 -103 23 -220 23 -152 1 -256 -20 -358 -71 -46 -23 -54 -24 -235 -21 -162 3 -194 7 -242 25 -30 12 -91 33 -136 47 -151 48 -352 31 -454 -39 -35 -23 -35 -23 -305 -16 -178 5 -280 12 -300 20 -47 20 -210 24 -285 8 l-65 -14 -25 48 c-40 77 -68 93 -175 97 l-92 4 -41 -36 c-23 -21 -50 -57 -62 -82 l-22 -44 -158 0 c-118 0 -184 5 -260 20 -148 29 -323 28 -421 -3 -41 -13 -88 -31 -106 -40 -26 -14 -64 -17 -205 -17 -160 0 -178 2 -233 24 -184 74 -190 76 -299 76 -117 0 -199 -20 -279 -70 -58 -36 -106 -39 -133 -9 -10 12 -50 37 -89 57 -58 29 -84 36 -149 40 -79 5 -174 -7 -276 -34 -59 -16 -67 -19 -151 -58 -39 -18 -73 -26 -111 -26 l-56 0 -6 188 c-4 103 -10 369 -14 592 -7 353 -10 410 -25 443 -20 44 -34 47 -47 11z m6521 -1140 c28 -14 49 -42 49 -63 0 -7 -46 -11 -134 -11 -131 0 -134 0 -129 21 3 11 24 34 47 51 37 27 46 29 90 23 27 -3 62 -13 77 -21z m-5715 -55 l66 -34 -128 -7 c-322 -17 -415 -20 -431 -13 -15 5 -16 8 -3 14 46 25 146 52 280 75 67 12 151 -2 216 -35z m3961 30 c15 -7 69 -24 118 -40 l90 -28 -190 0 c-104 0 -226 6 -270 13 -87 14 -87 10 -5 43 50 19 219 27 257 12z m1179 -9 c169 -37 164 -38 -130 -39 -154 -1 -277 1 -275 4 10 10 137 38 204 45 107 11 106 11 201 -10z m-4461 -30 l70 -29 -220 0 c-184 -1 -216 1 -200 12 25 17 89 36 135 40 101 10 146 5 215 -23z m1020 1 c19 -5 -27 -10 -120 -14 -82 -3 -166 -8 -185 -11 -35 -6 -35 -6 -5 5 63 24 245 35 310 20z m515 -61 c0 -16 -1 -30 -2 -30 -2 1 -41 14 -88 30 l-85 28 88 1 87 1 0 -30z m1238 16 c11 -6 8 -14 -15 -35 -16 -14 -36 -36 -44 -49 -16 -22 -16 -22 -84 23 -38 25 -76 45 -85 45 -9 0 -25 7 -36 15 -17 14 -7 15 116 13 74 -2 141 -7 148 -12z m1042 -43 c-30 -20 -55 -37 -55 -37 0 0 -25 17 -55 37 l-55 37 110 0 110 0 -55 -37z m1247 -3 c-24 -46 -71 -80 -110 -80 -36 0 -136 45 -143 65 -9 23 -3 25 41 14 85 -22 105 -23 105 -2 0 12 -11 23 -27 30 -24 9 -13 11 64 12 l92 1 -22 -40z m-4619 -42 c-61 -61 -64 -62 -78 -43 -8 11 -33 39 -56 63 l-41 42 119 0 119 0 -63 -62z m-958 -86 c0 -16 -9 -37 -20 -47 -19 -18 -20 -17 -20 3 0 26 20 72 32 72 4 0 8 -13 8 -28z"/>
<path d="M476 15705 c-10 -26 18 -53 38 -36 17 14 360 10 871 -10 188 -7 695 -13 1230 -13 803 -1 910 1 910 14 0 13 -107 16 -875 22 -481 3 -990 11 -1130 17 -140 6 -431 14 -646 17 -372 6 -391 6 -398 -11z"/>
<path d="M25370 15685 c0 -8 12 -21 28 -29 71 -37 155 -174 168 -272 16 -131 -73 -337 -201 -467 -53 -53 -57 -84 -8 -67 69 26 213 241 248 371 27 103 19 207 -24 294 -52 106 -134 185 -191 185 -11 0 -20 -7 -20 -15z"/>
<path d="M6053 15645 c-53 -46 -73 -97 -80 -214 -5 -93 -5 -97 20 -123 54 -58 110 -32 187 84 63 96 70 96 70 -5 0 -48 13 -85 34 -99 34 -23 116 10 184 75 74 72 50 77 -58 12 -41 -25 -79 -44 -84 -42 -6 2 -16 41 -23 88 -15 105 -15 136 1 84 7 -25 19 -41 30 -43 29 -6 35 16 20 66 -19 63 -72 114 -138 135 -82 26 -116 23 -163 -18z m137 -27 c22 -7 40 -16 40 -21 0 -26 -124 -231 -155 -257 -32 -26 -45 -5 -45 73 0 94 21 164 57 193 32 27 48 29 103 12z"/>
<path d="M9465 15657 c-44 -67 -69 -260 -41 -318 21 -44 73 -79 117 -79 28 0 44 9 82 48 31 31 49 60 54 85 l8 38 44 -33 c36 -26 56 -33 107 -36 71 -5 107 13 142 71 32 51 30 108 -4 185 -20 43 -54 45 -54 3 0 -17 4 -32 9 -35 5 -3 12 -26 15 -51 8 -50 -8 -87 -49 -118 -20 -14 -32 -16 -65 -8 -55 12 -85 34 -123 87 -22 32 -37 44 -52 42 -18 -3 -21 -12 -25 -80 -6 -72 -9 -81 -40 -113 -40 -41 -62 -44 -95 -10 -22 21 -25 33 -25 96 0 68 22 173 41 194 5 5 9 19 9 32 0 31 -34 31 -55 0z"/>
<path d="M3628 15573 c-2 -5 0 -600 3 -1323 5 -1022 10 -1384 22 -1625 38 -718 59 -1681 54 -2500 -5 -901 -21 -1127 -97 -1439 -33 -134 -35 -152 -19 -162 28 -17 49 42 92 251 32 152 45 258 57 470 6 94 15 249 21 345 10 169 6 1452 -6 1775 -3 77 -12 354 -20 615 -9 261 -20 554 -26 650 -7 104 -14 721 -18 1530 -6 1272 -7 1357 -24 1388 -17 31 -32 41 -39 25z"/>
<path d="M8220 15543 c0 -26 39 -35 165 -37 74 -1 90 2 90 14 0 11 -16 17 -60 21 -33 4 -90 10 -127 14 -64 7 -68 7 -68 -12z"/>
<path d="M21680 15521 c0 -11 15 -28 36 -40 66 -39 163 -133 186 -179 16 -33 22 -70 26 -141 5 -106 -7 -145 -62 -204 -28 -30 -27 -47 3 -47 32 0 67 37 96 101 26 59 27 68 21 158 -4 60 -14 111 -27 140 -25 57 -105 141 -183 192 -65 43 -96 49 -96 20z"/>
<path d="M24016 15524 c-73 -23 -90 -38 -131 -116 -51 -98 -64 -146 -71 -268 -5 -83 -3 -113 10 -141 25 -60 72 -65 55 -6 -5 17 -9 75 -9 128 0 112 21 192 73 279 34 56 69 78 150 95 20 4 27 11 25 23 -4 23 -41 25 -102 6z"/>
<path d="M20597 15430 c-56 -62 -98 -179 -100 -280 -3 -93 34 -167 98 -198 47 -23 135 -30 135 -12 0 6 -12 15 -27 21 -129 51 -147 73 -148 184 0 96 35 201 87 260 39 44 45 75 14 75 -8 0 -35 -23 -59 -50z"/>
<path d="M8400 15420 c-25 -5 -76 -13 -115 -19 -96 -16 -105 -19 -105 -43 0 -19 4 -20 73 -13 39 4 82 11 95 16 13 5 37 9 54 9 31 0 108 37 108 52 0 9 -47 8 -110 -2z"/>
<path d="M7892 15375 c-15 -25 -45 -72 -68 -105 l-41 -59 -32 42 c-25 32 -31 49 -28 72 6 43 -1 55 -34 55 -22 0 -30 -6 -35 -24 -3 -13 -4 -30 -3 -37 6 -32 -15 -80 -47 -108 -29 -26 -37 -29 -62 -20 -33 11 -50 39 -54 89 -2 28 -8 36 -26 38 -17 3 -25 -2 -29 -16 -5 -20 -5 -20 -24 -1 -13 13 -33 19 -63 19 -86 0 -142 -69 -134 -167 2 -29 -1 -43 -9 -43 -15 0 -32 33 -63 120 -24 70 -58 110 -93 110 -12 0 -40 -12 -60 -26 -21 -14 -39 -24 -40 -22 -25 49 -57 59 -106 35 -26 -13 -30 -13 -35 0 -4 8 -16 13 -28 11 -21 -3 -24 -10 -31 -83 -14 -157 -15 -150 13 -150 21 0 26 6 30 36 8 49 69 149 91 149 5 0 9 -33 11 -72 3 -66 5 -73 25 -76 18 -3 26 6 43 46 12 27 34 62 50 77 35 33 52 25 71 -33 26 -84 61 -150 85 -161 30 -13 121 -15 129 -2 3 5 19 12 35 16 16 4 52 27 80 52 l50 45 26 -21 c19 -15 41 -21 76 -21 44 0 53 4 92 44 l44 44 27 -28 c24 -25 25 -30 13 -49 -7 -12 -30 -33 -50 -48 -39 -27 -48 -50 -24 -59 22 -8 71 22 107 64 31 37 34 38 58 26 14 -8 52 -14 83 -14 49 0 58 3 63 21 10 29 -10 47 -34 32 -17 -11 -84 -3 -98 11 -4 3 9 30 29 58 52 78 88 144 88 162 0 34 -41 16 -68 -29z m-522 -128 c0 -42 -74 -129 -94 -110 -14 14 -5 82 15 107 27 35 79 37 79 3z"/>
<path d="M10030 15340 c-13 -11 -27 -20 -31 -20 -14 0 -22 -49 -11 -63 5 -6 9 -26 9 -42 0 -42 23 -86 55 -105 25 -13 30 -13 61 3 18 10 40 30 49 45 19 33 31 94 22 116 -5 13 -114 86 -128 86 -2 0 -13 -9 -26 -20z m78 -66 c13 -9 22 -26 22 -42 0 -32 -42 -88 -58 -78 -27 16 -26 136 1 136 7 0 23 -7 35 -16z"/>
<path d="M21046 15335 c-9 -13 -16 -29 -16 -35 0 -12 -61 -223 -66 -229 -2 -2 -18 27 -35 65 -26 59 -36 110 -28 150 4 25 -3 35 -23 32 -26 -4 -43 -55 -34 -106 6 -40 68 -172 91 -195 40 -41 73 -12 100 88 41 148 51 181 64 203 10 18 10 26 0 38 -17 21 -35 17 -53 -11z"/>
<path d="M24067 15317 c-54 -44 -114 -210 -87 -242 26 -31 138 -9 171 33 l19 25 0 -26 c0 -43 20 -74 61 -93 31 -14 44 -15 64 -6 28 13 33 32 10 32 -9 0 -29 7 -45 15 -30 16 -30 16 -30 109 0 85 -3 98 -27 135 -24 37 -31 41 -67 41 -28 0 -50 -8 -69 -23z m84 -73 c2 -30 -3 -48 -19 -69 -12 -15 -22 -31 -22 -35 0 -8 -54 -30 -71 -30 -29 0 32 145 73 174 28 20 36 12 39 -40z"/>
<path d="M25109 15316 c-34 -23 -77 -91 -66 -103 3 -2 -3 -13 -13 -23 -20 -20 -46 -120 -37 -143 11 -28 67 -47 143 -47 64 0 76 3 104 26 44 38 61 77 67 158 6 83 -3 108 -50 136 -45 28 -104 26 -148 -4z m124 -40 c13 -10 17 -28 17 -75 0 -99 -43 -160 -112 -161 -46 0 -88 18 -88 38 0 9 5 31 12 49 9 24 18 33 35 33 16 0 23 6 23 20 0 11 -7 20 -15 20 -22 0 -19 11 16 53 24 29 38 37 62 37 18 0 40 -7 50 -14z"/>
<path d="M2652 15308 c-20 -26 -49 -95 -71 -168 -12 -41 -30 -100 -41 -130 -31 -93 -34 -119 -14 -127 24 -9 44 6 82 63 l33 49 -7 -42 c-9 -62 4 -73 85 -73 71 0 100 12 158 67 l32 30 3 -61 c3 -58 4 -61 28 -61 24 0 25 2 31 90 6 98 22 166 43 188 17 17 125 36 256 45 79 6 95 10 98 25 3 15 -7 17 -107 17 -105 0 -145 -5 -251 -34 -49 -13 -72 -45 -84 -118 -3 -21 -10 -38 -15 -38 -5 0 -28 -16 -52 -36 -148 -123 -234 -79 -111 58 64 72 84 105 77 128 -14 43 -95 8 -161 -68 -20 -24 -39 -41 -41 -38 -7 7 36 134 59 174 24 43 24 72 -1 72 -10 0 -23 -6 -29 -12z"/>
<path d="M21627 15305 c-49 -18 -114 -70 -122 -96 -4 -11 -1 -26 5 -34 8 -9 9 -29 5 -54 -9 -52 -1 -75 31 -89 84 -39 184 22 238 144 10 22 16 54 14 69 -6 58 -96 89 -171 60z m104 -51 c17 -15 17 -19 2 -58 -21 -57 -96 -126 -135 -126 l-31 0 6 63 c8 83 13 94 56 117 45 24 79 25 102 4z"/>
<path d="M596 15224 c-3 -9 -6 -60 -6 -114 0 -77 -4 -107 -21 -144 -25 -58 -22 -100 8 -104 25 -4 42 23 64 98 13 46 76 119 132 154 39 24 88 18 105 -14 12 -23 12 -39 0 -150 -4 -35 38 -42 51 -8 12 30 112 126 176 169 37 25 61 33 95 34 43 0 45 -1 58 -40 12 -32 12 -56 3 -121 -19 -137 -13 -164 36 -164 42 0 132 51 142 82 13 35 3 36 -67 3 -30 -14 -56 -25 -59 -25 -3 0 -2 28 2 63 13 98 7 166 -18 211 -23 41 -23 41 -88 40 -56 0 -74 -5 -120 -34 -30 -18 -71 -48 -92 -66 -43 -39 -57 -42 -57 -14 0 29 -27 78 -49 90 -38 20 -101 12 -155 -21 -28 -17 -59 -41 -68 -52 -17 -21 -18 -20 -18 45 0 79 -6 98 -30 98 -10 0 -21 -7 -24 -16z"/>
<path d="M2317 15170 c-80 -84 -101 -115 -93 -135 9 -24 33 -17 56 16 32 44 35 29 7 -37 -27 -64 -43 -171 -29 -192 5 -8 18 -12 28 -10 16 3 20 16 25 74 4 38 16 88 26 110 11 21 26 57 33 79 7 22 23 61 36 87 25 50 23 78 -6 78 -10 0 -47 -31 -83 -70z"/>
<path d="M21120 15200 c0 -20 5 -21 118 -18 96 2 117 6 117 18 0 12 -21 16 -117 18 -113 3 -118 2 -118 -18z"/>
<path d="M24444 15205 c-13 -32 13 -40 129 -40 93 0 112 3 112 15 0 11 -18 17 -74 22 -41 3 -94 9 -118 13 -35 5 -44 3 -49 -10z"/>
<path d="M1808 15134 c-4 -3 -42 -9 -85 -13 -60 -5 -78 -9 -78 -21 0 -19 84 -24 195 -13 66 7 75 10 75 28 0 17 -8 20 -50 23 -28 2 -54 0 -57 -4z"/>
<path d="M21295 15120 c-145 -33 -150 -34 -153 -60 -4 -22 -2 -23 40 -16 23 4 57 11 73 16 17 5 57 14 90 21 72 15 90 26 74 45 -14 17 -23 16 -124 -6z"/>
<path d="M24710 15090 c-14 -4 -58 -8 -97 -9 -66 -1 -73 -3 -73 -21 0 -19 7 -20 89 -20 102 0 144 11 139 37 -4 20 -23 25 -58 13z"/>
<path d="M1870 15008 c-30 -5 -85 -13 -122 -19 -58 -9 -68 -14 -68 -31 0 -19 4 -20 83 -13 149 13 247 39 247 66 0 11 -66 10 -140 -3z"/>
<path d="M17516 14677 c-57 -70 -78 -129 -84 -240 l-5 -98 42 -39 c69 -66 134 -49 212 54 44 59 49 78 49 213 0 97 -2 106 -25 128 -21 21 -33 25 -89 25 -64 0 -65 0 -100 -43z m135 -7 c17 -10 19 -22 19 -120 0 -104 -1 -111 -30 -157 -40 -62 -80 -89 -112 -72 -34 18 -38 27 -38 109 0 90 19 150 66 207 36 44 59 52 95 33z"/>
<path d="M9362 14607 c-28 -16 -64 -68 -95 -139 -13 -29 -36 -71 -51 -92 -14 -21 -33 -62 -41 -89 -17 -56 -27 -67 -67 -67 -21 0 -28 -5 -28 -20 0 -16 7 -20 34 -20 29 0 34 -4 40 -30 10 -52 56 -36 56 20 0 24 53 40 128 40 l52 0 0 -45 c0 -56 24 -108 48 -103 15 3 17 15 13 85 l-3 81 49 7 c94 12 92 36 -3 39 l-44 1 -1 145 c-1 80 -4 156 -8 170 -8 29 -44 37 -79 17z m28 -197 l0 -150 -47 0 c-27 0 -65 -4 -86 -9 -38 -9 -39 -9 -32 17 3 15 24 56 45 92 22 36 47 83 56 105 16 39 51 95 60 95 2 0 4 -67 4 -150z"/>
<path d="M6392 14593 c-25 -10 -80 -111 -142 -259 -79 -191 -77 -187 -85 -139 -3 22 -10 58 -16 80 -10 43 -26 157 -27 190 0 11 -5 33 -11 48 -8 21 -17 28 -34 25 -18 -2 -22 -9 -20 -33 4 -81 40 -279 67 -375 11 -36 18 -46 39 -48 32 -4 56 29 102 140 110 270 139 325 162 307 21 -18 35 24 17 49 -15 22 -27 25 -52 15z"/>
<path d="M10211 14506 c-6 -7 -14 -33 -17 -57 -5 -36 -2 -48 16 -67 33 -35 45 -23 43 39 -2 39 0 49 6 34 28 -60 6 -155 -50 -219 -48 -54 -74 -58 -117 -18 -25 23 -31 39 -37 88 -3 32 -7 66 -8 74 -1 9 -13 15 -27 15 -23 0 -26 -5 -31 -51 -6 -50 -24 -88 -63 -131 -30 -35 -60 -29 -96 17 -27 34 -33 52 -38 105 -5 70 -21 96 -47 75 -29 -24 -12 -133 31 -199 29 -43 71 -71 109 -71 37 0 90 31 106 62 6 13 13 25 15 27 1 2 17 -13 33 -32 63 -71 135 -73 201 -7 51 51 69 88 81 163 12 72 -3 142 -32 157 -26 14 -65 12 -78 -4z"/>
<path d="M8342 14298 c5 -40 50 -53 201 -56 130 -3 139 -2 135 15 -3 16 -18 19 -122 26 -65 4 -134 14 -153 22 -50 21 -65 19 -61 -7z"/>
<path d="M24407 14313 c-8 -18 9 -213 21 -225 23 -23 37 9 41 98 4 109 -2 134 -34 134 -13 0 -25 -3 -28 -7z"/>
<path d="M21257 14194 c-9 -9 -9 -286 -1 -308 9 -24 43 -20 49 7 3 12 4 85 3 162 -3 132 -4 140 -23 143 -12 2 -24 0 -28 -4z"/>
<path d="M6567 14150 c-26 -16 -47 -34 -47 -40 0 -6 -7 -6 -19 1 -10 7 -26 9 -35 6 -15 -6 -16 -23 -14 -139 3 -133 3 -133 28 -133 24 0 25 3 30 75 4 50 13 89 28 117 24 46 85 99 102 88 28 -17 44 -74 49 -175 6 -104 6 -105 31 -105 23 0 26 5 30 50 7 57 25 96 69 143 43 46 61 39 78 -28 8 -30 20 -77 27 -104 16 -64 53 -95 91 -78 29 13 34 42 6 42 -26 0 -36 16 -51 80 -25 107 -40 154 -53 162 -37 23 -107 -1 -150 -51 l-25 -30 -12 45 c-16 55 -59 104 -92 104 -13 0 -45 -13 -71 -30z"/>
<path d="M8420 14161 c0 -15 11 -20 58 -27 71 -10 318 -12 328 -1 16 16 -12 22 -154 34 -212 17 -232 17 -232 -6z"/>
<path d="M10480 14160 c-15 -15 -20 -32 -19 -63 1 -23 0 -46 -2 -52 -8 -25 14 -86 38 -105 32 -25 73 -26 122 0 50 25 81 75 83 135 2 42 -1 50 -30 76 -29 26 -39 29 -102 29 -57 0 -74 -4 -90 -20z m158 -48 c22 -28 14 -68 -22 -106 -44 -47 -79 -49 -96 -3 -6 17 -15 39 -19 47 -7 14 2 47 21 76 11 16 100 5 116 -14z"/>
<path d="M7817 14153 c-2 -5 -8 -26 -12 -48 -6 -38 -49 -128 -80 -169 -12 -16 -17 -17 -30 -6 -25 21 -39 51 -45 100 -4 40 -8 45 -30 45 -22 0 -26 -5 -30 -41 -8 -53 -50 -124 -95 -159 -34 -25 -39 -26 -62 -14 -40 22 -53 51 -61 135 -6 65 -10 79 -25 82 -11 2 -27 12 -38 23 -14 14 -33 19 -69 19 -47 0 -51 -2 -75 -40 -37 -58 -43 -79 -51 -163 -6 -68 -5 -76 15 -96 42 -42 118 -21 168 48 l29 40 18 -34 c23 -42 92 -81 128 -72 33 9 83 50 118 99 l28 38 26 -34 26 -35 -40 -60 c-44 -66 -51 -101 -21 -101 13 0 34 22 62 66 36 55 46 64 63 59 12 -4 54 -10 95 -12 54 -4 76 -2 82 8 13 22 2 28 -71 35 -39 4 -73 10 -75 15 -3 4 12 35 33 67 40 62 78 172 68 198 -6 15 -42 20 -49 7z m-534 -116 c18 -36 18 -40 2 -80 -20 -51 -72 -107 -98 -107 -17 0 -19 6 -15 68 2 48 11 83 28 116 31 58 56 59 83 3z"/>
<path d="M1040 14110 c-32 -34 -97 -151 -125 -222 l-18 -48 -63 0 c-44 0 -67 -5 -78 -16 -19 -18 -19 -20 -6 -45 14 -25 41 -24 63 1 9 11 26 20 37 20 19 0 16 -11 -36 -109 -57 -105 -59 -108 -75 -87 -14 17 -19 18 -33 7 -16 -14 -22 -83 -10 -115 19 -50 83 11 152 144 92 177 74 160 174 160 l87 0 3 -147 c3 -148 3 -148 28 -148 25 0 25 0 28 147 l3 147 42 3 c58 4 59 32 1 36 l-41 3 -5 122 c-4 95 -9 129 -23 150 -24 38 -68 37 -105 -3z m70 -157 l0 -113 -76 0 c-92 0 -92 -10 -5 154 39 76 62 101 73 84 4 -7 8 -64 8 -125z"/>
<path d="M2211 13907 c-95 -36 -202 -259 -166 -345 16 -37 31 -42 115 -42 139 0 205 57 223 190 9 67 8 85 -7 123 -9 24 -25 52 -36 62 -24 22 -86 28 -129 12z m104 -67 c9 -17 15 -55 15 -96 0 -88 -26 -137 -90 -165 -50 -23 -126 -21 -142 2 -30 46 63 254 126 279 44 18 75 11 91 -20z"/>
<path d="M2567 13873 c-20 -20 -4 -33 41 -33 26 0 58 -6 72 -13 28 -14 70 -81 70 -112 0 -31 -36 -82 -69 -99 -41 -22 -77 -82 -61 -101 22 -27 171 -17 220 14 35 23 -23 31 -113 16 -39 -6 -46 -5 -42 6 3 8 21 23 39 33 21 11 44 37 60 67 24 43 26 53 16 86 -13 49 -59 114 -90 130 -26 13 -132 18 -143 6z"/>
<path d="M24394 13867 c-3 -8 -4 -87 -2 -176 3 -164 12 -201 41 -173 9 9 12 61 12 185 0 171 0 172 -23 175 -13 2 -24 -3 -28 -11z"/>
<path d="M3076 13848 c-3 -7 -7 -22 -9 -33 -14 -52 -69 -167 -111 -229 -49 -73 -62 -106 -52 -131 10 -27 35 -16 51 22 9 20 32 62 53 92 l37 56 3 -50 c4 -56 15 -75 46 -75 24 0 61 36 119 114 41 54 43 50 26 -54 -7 -37 -9 -80 -5 -94 6 -25 42 -53 53 -42 3 3 7 40 8 83 1 43 7 110 15 148 18 104 18 146 -2 158 -23 15 -51 -11 -82 -77 -14 -28 -46 -78 -71 -111 l-47 -60 5 85 c4 47 9 102 13 122 9 53 -2 88 -27 88 -11 0 -21 -6 -23 -12z"/>
<path d="M22600 13828 c-17 -18 -49 -68 -71 -110 -33 -66 -43 -78 -64 -78 -18 0 -25 -5 -25 -19 0 -11 5 -21 10 -23 6 -2 -1 -26 -15 -57 -23 -47 -25 -56 -12 -69 21 -20 33 -9 69 64 l31 64 64 0 c63 0 63 0 63 -32 0 -46 37 -117 65 -124 36 -9 80 -1 80 15 0 8 -15 19 -33 23 -35 9 -52 38 -52 89 0 29 1 29 58 29 65 0 97 13 72 30 -8 5 -41 10 -72 10 l-58 0 0 91 c0 50 -5 99 -10 110 -17 31 -64 25 -100 -13z m50 -108 l0 -80 -50 0 -50 0 26 53 c27 53 62 107 70 107 2 0 4 -36 4 -80z"/>
<path d="M1610 13770 c-14 -4 -53 -8 -87 -9 -57 -1 -63 -3 -63 -22 0 -21 2 -22 103 -15 237 15 258 18 255 35 -3 13 -19 16 -93 18 -50 1 -101 -2 -115 -7z"/>
<path d="M21254 13736 c-12 -48 11 -199 32 -217 19 -16 36 0 36 32 -1 35 -12 160 -18 187 -6 31 -42 29 -50 -2z"/>
<path d="M1797 13634 c-5 -5 -87 -15 -254 -31 -53 -4 -63 -8 -63 -24 0 -16 8 -19 58 -19 129 0 322 33 322 55 0 19 -48 34 -63 19z"/>
<path d="M2449 13538 c-39 -32 -84 -142 -72 -174 9 -25 42 -16 48 14 3 15 20 53 37 85 26 51 28 61 16 73 -11 12 -17 12 -29 2z"/>
<path d="M21474 13410 c-38 -27 -77 -50 -87 -50 -23 0 -47 -23 -47 -44 0 -10 9 -16 24 -16 22 0 25 -5 28 -42 3 -41 5 -43 53 -60 64 -23 210 -22 210 2 0 11 -23 17 -93 26 -51 6 -98 16 -103 21 -6 6 -9 23 -7 39 l3 29 300 0 c170 0 371 -6 465 -14 121 -10 410 -15 1073 -18 853 -4 908 -5 902 -21 -13 -30 -10 -46 7 -50 9 -2 21 3 27 10 6 7 22 27 36 45 21 26 33 32 74 35 l49 3 4 -97 c3 -101 16 -134 41 -110 8 9 13 60 15 164 4 170 0 198 -27 198 -23 0 -31 -19 -31 -75 l0 -43 -52 28 c-29 15 -71 37 -93 49 -22 11 -55 21 -73 21 -29 0 -33 -3 -30 -22 2 -16 19 -30 57 -48 l54 -26 -31 -13 c-42 -18 -1730 -9 -1862 9 -47 7 -258 15 -468 18 l-384 7 46 29 c54 34 63 66 17 66 -18 0 -52 -18 -97 -50z"/>
<path d="M21282 13388 c-8 -8 -12 -54 -12 -143 0 -138 10 -175 44 -162 14 6 16 26 16 150 0 134 -6 167 -30 167 -3 0 -11 -5 -18 -12z"/>
<path d="M9637 13263 c-12 -3 -17 -12 -15 -26 3 -20 8 -22 68 -19 115 6 280 -46 280 -88 0 -21 -22 -36 -90 -61 -25 -9 -66 -28 -90 -44 -132 -81 -121 -122 38 -149 98 -17 322 -22 322 -7 0 17 -58 31 -175 41 -165 15 -205 21 -205 31 0 14 87 67 150 90 74 28 100 53 100 99 0 25 -7 43 -22 57 -60 53 -274 98 -361 76z"/>
<path d="M9072 13033 c-28 -11 -133 -197 -183 -325 -16 -42 -39 -88 -49 -101 -11 -14 -24 -35 -28 -48 -9 -22 -10 -22 -19 11 -20 68 -35 146 -52 285 -17 137 -18 140 -42 140 -22 0 -24 -4 -23 -45 2 -71 22 -216 46 -324 32 -144 69 -179 122 -116 24 30 47 74 150 293 25 54 59 118 77 143 29 42 32 44 48 30 24 -22 41 -20 41 4 0 40 -48 69 -88 53z"/>
<path d="M24370 12966 c-28 -46 -48 -127 -56 -226 -7 -85 -22 -108 -63 -95 -30 9 -41 45 -44 143 -3 110 -16 132 -75 132 -34 0 -40 -4 -57 -37 -10 -21 -20 -70 -23 -111 -6 -89 10 -115 68 -111 28 2 41 -4 67 -30 30 -30 38 -32 88 -30 52 3 56 1 80 -31 33 -45 42 -50 98 -50 47 0 48 1 66 43 41 97 34 141 -33 199 -27 23 -28 27 -18 56 6 18 14 58 18 90 7 69 -8 92 -61 92 -27 0 -37 -6 -55 -34z m45 -129 c-18 -56 -45 -101 -45 -77 0 31 28 148 41 171 14 24 14 24 17 -10 2 -18 -4 -56 -13 -84z m-272 4 c-6 -10 -15 -34 -18 -54 -5 -27 -3 -37 9 -44 15 -8 15 -11 -4 -28 -20 -18 -20 -18 -20 48 0 73 16 125 34 107 7 -7 7 -16 -1 -29z m347 -181 c0 -23 -5 -29 -32 -34 -41 -8 -54 5 -40 41 5 15 13 37 16 47 6 18 8 18 31 -4 15 -14 25 -35 25 -50z m-20 -80 c0 -5 -12 -10 -27 -9 -25 0 -26 1 -8 9 27 12 35 12 35 0z"/>
<path d="M24677 12973 c-3 -4 -10 -51 -17 -103 -8 -56 -20 -108 -32 -127 -15 -25 -18 -47 -16 -105 3 -70 4 -73 28 -73 22 0 26 6 32 45 21 132 14 120 85 152 36 16 67 27 69 25 2 -2 -1 -19 -6 -38 -15 -52 -12 -122 6 -148 15 -21 22 -23 90 -19 73 3 74 4 113 47 22 24 38 48 35 53 -11 17 -44 7 -85 -28 -32 -26 -50 -34 -73 -32 -28 3 -31 6 -34 43 -2 22 2 63 8 91 17 71 8 104 -29 104 -16 0 -34 -6 -40 -14 -7 -8 -33 -22 -58 -30 l-46 -16 8 58 c13 105 12 117 -12 120 -11 2 -23 0 -26 -5z"/>
<path d="M23808 12910 c-16 -16 -33 -30 -38 -30 -18 0 -42 -100 -36 -148 4 -26 5 -72 4 -102 -2 -30 -3 -113 -3 -185 0 -130 0 -130 25 -130 25 0 25 0 31 170 3 94 7 171 8 171 0 1 16 4 34 7 61 10 106 25 134 45 31 22 66 102 57 130 -29 85 -51 102 -135 102 -43 0 -55 -5 -81 -30z m117 -16 c8 -4 23 -20 31 -36 27 -52 -8 -118 -68 -132 -16 -3 -39 -9 -53 -12 -25 -6 -25 -5 -25 56 0 47 5 68 21 88 29 37 60 49 94 36z"/>
<path d="M6485 12830 c-11 -5 -84 -9 -162 -9 l-143 -1 -6 -27 c-3 -16 -9 -39 -14 -53 -5 -14 -11 -59 -15 -100 -3 -41 -10 -104 -15 -140 -23 -153 -23 -169 -6 -176 9 -3 16 -15 16 -25 0 -16 8 -19 58 -19 31 0 89 -7 127 -16 97 -21 157 -27 175 -15 22 15 2 29 -60 42 -30 6 -73 15 -95 20 -22 4 -72 8 -111 9 l-72 0 10 38 c5 20 14 57 19 82 18 86 5 79 157 82 114 3 137 6 137 18 0 12 -23 15 -137 18 l-138 3 0 37 c0 20 4 51 9 68 5 17 5 37 1 44 -4 7 -3 26 2 41 l10 29 134 0 c139 0 211 15 202 42 -5 16 -55 20 -83 8z"/>
<path d="M21437 12833 c-23 -23 11 -68 86 -112 20 -13 37 -23 37 -24 0 -1 -216 0 -480 1 -480 4 -480 4 -480 -17 0 -21 1 -21 393 -21 256 0 414 -4 451 -11 l57 -12 -35 -29 c-21 -17 -39 -44 -46 -66 -14 -52 -13 -54 17 -50 20 2 29 10 35 34 8 33 93 99 145 113 48 13 43 51 -14 111 -65 69 -142 108 -166 83z"/>
<path d="M7937 12814 c-4 -4 -7 -49 -7 -100 0 -70 -5 -104 -20 -138 -22 -52 -18 -76 14 -76 29 0 46 18 46 50 0 38 62 130 110 163 59 41 92 6 50 -51 -27 -36 -18 -62 21 -62 24 0 31 7 47 44 21 47 51 63 126 68 59 4 68 -16 64 -141 -3 -112 5 -130 43 -95 16 14 19 30 19 93 -1 153 -24 190 -123 191 -32 0 -73 -7 -92 -14 -30 -13 -35 -13 -35 -1 0 54 -142 38 -191 -21 -13 -16 -14 -12 -19 37 -4 45 -8 54 -25 57 -12 2 -24 0 -28 -4z"/>
<path d="M2888 12778 c-8 -13 -25 -48 -37 -78 -22 -52 -126 -211 -143 -218 -4 -2 -8 -12 -8 -23 0 -13 7 -19 24 -19 24 0 48 28 140 164 24 36 26 37 26 14 0 -38 29 -58 86 -58 52 1 77 14 104 55 17 26 17 25 16 -54 -1 -83 12 -117 35 -94 14 14 31 147 33 253 1 71 0 75 -22 78 -22 3 -26 -1 -36 -49 -9 -42 -106 -150 -130 -147 -19 3 -21 11 -24 78 -3 99 -8 120 -31 120 -10 0 -25 -10 -33 -22z"/>
<path d="M10370 12761 c-5 -11 -10 -26 -10 -33 0 -7 -16 -44 -35 -83 l-34 -70 -3 70 c-3 62 -5 70 -24 73 -25 4 -48 -21 -63 -69 -16 -49 -102 -154 -126 -154 -28 0 -45 41 -45 108 0 44 -6 66 -22 90 -32 45 -36 47 -96 47 -89 0 -153 -66 -173 -177 -9 -49 -15 -63 -35 -72 -35 -15 -44 -14 -44 7 0 10 -7 40 -16 65 -22 66 -65 97 -133 97 -29 0 -61 -5 -73 -11 -16 -9 -24 -7 -42 10 -34 32 -79 27 -124 -14 -36 -32 -40 -33 -55 -17 -16 15 -18 15 -34 -1 -15 -14 -15 -21 -5 -37 15 -24 15 -57 1 -112 -15 -57 0 -98 35 -98 28 0 36 16 36 73 0 74 41 159 81 172 32 10 40 -13 18 -49 -19 -30 -25 -89 -13 -120 4 -9 18 -16 35 -16 39 0 59 32 59 97 0 60 14 73 78 73 58 0 96 -55 104 -155 3 -25 8 -30 33 -33 20 -2 42 6 65 23 33 25 35 25 42 6 9 -26 59 -51 100 -51 37 0 104 31 129 59 14 18 16 18 38 0 52 -43 122 -11 183 82 l33 51 11 -43 c13 -49 8 -61 -72 -186 l-39 -62 -1077 -1 c-1071 0 -1078 0 -1078 -20 0 -20 7 -20 1250 -20 1243 0 1250 0 1250 20 0 19 -7 20 -141 20 -77 0 -139 3 -137 8 2 4 20 32 41 63 l38 57 25 -25 c31 -31 77 -29 82 5 3 16 -2 22 -17 22 -22 0 -51 35 -51 62 0 10 18 55 41 100 44 87 71 166 63 180 -10 15 -43 8 -54 -11z m-434 -71 c26 0 15 -31 -23 -66 -21 -18 -41 -34 -45 -34 -4 0 -23 -14 -43 -31 -33 -30 -35 -30 -35 -9 0 55 83 158 117 146 8 -3 21 -6 29 -6z m19 -170 c-18 -35 -69 -70 -102 -70 -25 0 -63 32 -63 53 0 8 17 19 38 25 20 7 60 25 87 41 l50 29 3 -23 c2 -13 -4 -38 -13 -55z"/>
<path d="M625 12721 c-91 -55 -185 -257 -188 -405 -2 -91 14 -116 76 -116 36 0 47 6 94 55 30 30 66 76 82 101 l29 45 -5 -61 c-8 -87 6 -100 109 -100 81 0 138 18 167 54 12 14 10 16 -17 16 -16 0 -49 -7 -73 -15 -29 -10 -58 -13 -87 -9 l-44 7 6 71 c10 131 16 156 36 156 27 0 28 6 20 89 -7 67 -11 78 -39 103 -26 23 -40 28 -84 28 -33 0 -63 -7 -82 -19z m131 -48 c21 -28 17 -67 -8 -78 -15 -7 -29 -30 -43 -70 -33 -92 -61 -144 -116 -213 -38 -48 -56 -62 -72 -60 -21 3 -22 8 -20 80 2 109 63 252 142 336 28 28 97 31 117 5z"/>
<path d="M2350 12582 c-32 -13 -46 -24 -48 -40 -3 -17 1 -22 20 -22 13 1 34 7 48 15 14 8 42 14 63 15 34 0 37 -2 37 -28 0 -30 -53 -102 -75 -102 -18 0 -24 -21 -13 -42 6 -13 21 -18 51 -18 74 0 162 -72 155 -126 -4 -35 -42 -61 -101 -69 -46 -6 -48 -6 -38 14 15 27 14 31 -7 31 -33 0 -63 -30 -60 -58 3 -26 5 -27 83 -30 63 -2 87 2 115 16 88 48 91 119 10 202 -37 38 -58 51 -88 56 l-40 6 35 46 c30 40 34 52 30 86 -3 22 -14 46 -23 53 -25 18 -100 15 -154 -5z"/>
<path d="M1829 12516 c-3 -3 -39 -10 -80 -16 -99 -14 -109 -18 -109 -42 0 -19 4 -20 63 -13 34 3 78 11 97 16 19 5 88 12 153 15 100 6 117 9 115 23 -3 13 -22 16 -119 19 -63 1 -117 0 -120 -2z"/>
<path d="M6840 12480 c0 -19 7 -20 183 -20 179 0 230 8 197 30 -8 5 -95 10 -197 10 -176 0 -183 -1 -183 -20z"/>
<path d="M20653 12400 c-42 -25 -76 -80 -125 -204 -53 -130 -59 -178 -28 -211 38 -40 74 -33 158 30 68 51 72 53 72 30 0 -36 28 -45 143 -45 90 0 108 3 131 21 25 20 35 49 17 49 -5 0 -28 -7 -51 -15 -46 -16 -147 -20 -169 -6 -13 9 -13 33 5 224 7 70 -8 112 -47 132 -38 20 -68 19 -106 -5z m85 -42 c7 -7 12 -35 12 -64 0 -39 -6 -61 -26 -89 -14 -21 -23 -46 -21 -56 3 -11 -7 -30 -26 -49 -35 -36 -110 -90 -125 -90 -31 0 -10 91 53 228 52 112 99 154 133 120z"/>
<path d="M1985 12371 c-11 -5 -48 -10 -83 -10 -87 -1 -158 -33 -123 -56 10 -6 231 20 294 34 70 17 63 33 -16 38 -28 1 -61 -1 -72 -6z"/>
<path d="M3185 12348 c-38 -4 -100 -13 -138 -18 -37 -6 -112 -10 -167 -10 -96 0 -100 -1 -100 -22 0 -21 0 -21 188 -15 103 3 212 11 242 16 30 5 83 13 118 16 52 6 62 10 62 26 0 17 -7 19 -67 17 -38 0 -99 -5 -138 -10z"/>
<path d="M6920 12340 c0 -19 7 -20 163 -20 160 0 209 9 177 30 -8 5 -88 10 -177 10 -156 0 -163 -1 -163 -20z"/>
<path d="M1504 12149 c-30 -15 -82 -125 -90 -191 -3 -32 -9 -58 -13 -58 -22 1 -29 24 -33 111 -5 120 -13 133 -80 127 -27 -3 -57 -13 -67 -22 -12 -11 -21 -14 -26 -7 -11 18 -71 12 -99 -10 -25 -20 -26 -20 -26 -1 0 11 -7 25 -15 32 -29 24 -42 -5 -49 -108 -13 -187 -14 -177 13 -177 22 0 26 7 35 55 12 56 70 170 87 170 12 0 12 -56 -1 -80 -15 -28 -2 -50 31 -50 26 0 30 5 40 46 14 53 52 104 80 104 17 0 19 -8 19 -93 0 -111 12 -137 66 -137 21 0 43 -8 56 -20 14 -13 36 -20 60 -20 31 0 46 8 85 45 52 50 53 51 53 31 0 -8 13 -28 29 -45 25 -27 36 -31 80 -31 46 0 54 4 90 41 22 23 45 55 52 70 14 35 23 36 36 7 8 -18 4 -32 -20 -73 -17 -27 -39 -61 -49 -74 -24 -31 -23 -61 1 -61 22 0 63 45 91 101 11 21 24 40 29 43 5 3 36 -8 70 -25 63 -31 81 -31 81 1 0 13 -17 26 -55 44 l-55 25 46 94 c28 56 45 101 41 111 -14 36 -38 14 -84 -76 l-46 -93 -20 45 c-15 35 -17 50 -10 71 13 34 2 52 -28 47 -20 -2 -26 -13 -39 -64 -30 -111 -87 -188 -137 -182 -41 4 -63 54 -63 143 0 66 -2 72 -35 108 -28 31 -40 37 -72 36 -21 0 -47 -5 -59 -10z m84 -75 c4 -38 -36 -109 -74 -135 -16 -10 -32 -19 -36 -19 -18 0 -6 70 22 128 27 57 32 63 57 60 23 -2 29 -9 31 -34z"/>
<path d="M3120 12081 c0 -17 8 -20 53 -23 51 -3 52 -4 55 -37 3 -30 -3 -40 -50 -84 -51 -47 -88 -94 -88 -110 0 -4 15 -16 33 -27 57 -35 247 -18 255 23 3 14 -4 17 -42 17 -24 0 -57 -5 -72 -10 -30 -12 -94 -3 -94 13 0 6 28 39 61 74 61 63 61 65 56 110 -6 60 -25 73 -104 73 -56 0 -63 -2 -63 -19z"/>
<path d="M22142 12038 c-21 -48 -100 -158 -113 -158 -11 0 -18 33 -21 100 -3 51 -5 55 -28 55 -22 0 -26 -5 -30 -47 -7 -55 -31 -92 -86 -130 -45 -32 -75 -35 -96 -10 -13 14 -14 26 -5 68 13 62 5 87 -25 82 -14 -2 -26 -15 -34 -38 -11 -31 -13 -32 -13 -9 -1 36 -19 49 -67 49 -59 0 -107 -54 -124 -137 -16 -83 -16 -83 -52 -83 -55 0 -64 12 -48 59 14 43 9 104 -12 128 -18 22 -106 13 -146 -16 l-32 -22 -10 25 c-15 39 -60 35 -109 -9 -38 -35 -40 -35 -43 -13 -2 17 -10 23 -27 23 -23 0 -26 -7 -47 -105 -13 -58 -21 -111 -19 -117 2 -7 13 -13 24 -13 14 0 31 19 56 63 19 35 52 81 72 103 32 32 38 35 42 19 1 -10 -2 -35 -9 -56 -26 -79 24 -98 60 -23 25 51 90 104 127 104 19 0 23 -5 23 -31 0 -18 -5 -49 -11 -70 -10 -32 -9 -42 5 -63 16 -26 18 -26 149 -25 139 1 184 11 211 50 12 18 15 18 51 3 50 -21 84 -13 155 35 42 27 62 35 69 28 16 -16 13 -32 -10 -53 -27 -24 -49 -67 -49 -94 0 -14 6 -20 23 -20 18 0 28 10 42 40 29 65 43 72 142 74 72 1 88 4 91 17 2 13 -8 17 -57 21 -33 2 -63 7 -67 11 -3 3 14 32 39 64 46 58 78 127 70 151 -10 28 -42 12 -61 -30z m-512 -114 c0 -29 -8 -44 -37 -72 -44 -41 -53 -30 -28 34 13 35 46 74 62 74 2 0 3 -16 3 -36z m60 -38 c0 -25 -44 -86 -62 -86 -6 0 4 16 21 35 17 20 31 45 31 55 0 11 2 20 5 20 3 0 5 -11 5 -24z"/>
<path d="M2855 11921 c-77 -48 -112 -112 -121 -225 -6 -66 -5 -75 15 -95 43 -43 163 -20 228 45 24 24 43 48 43 54 0 19 -36 10 -77 -20 -46 -34 -109 -58 -135 -52 -15 3 -18 15 -18 66 0 78 29 140 85 178 48 34 76 29 96 -15 18 -42 43 -42 47 0 7 71 -90 110 -163 64z"/>
<path d="M9097 11906 c-9 -22 2 -26 69 -26 70 0 139 -23 154 -51 25 -45 -2 -103 -60 -126 -133 -54 -160 -68 -160 -87 0 -18 6 -19 183 -13 172 7 233 15 267 36 37 24 -37 30 -210 16 -43 -3 -58 -2 -45 4 11 5 38 28 59 51 34 38 37 45 31 83 -9 62 -24 85 -70 107 -52 25 -209 29 -218 6z m180 -262 c-3 -3 -12 -4 -19 -1 -8 3 -5 6 6 6 11 1 17 -2 13 -5z"/>
<path d="M5996 11047 c-24 -18 -17 -51 12 -55 12 -2 22 1 22 7 0 23 67 12 94 -15 33 -34 33 -65 0 -95 -55 -49 -73 -71 -83 -100 -9 -25 -7 -33 10 -50 18 -18 31 -19 142 -17 101 3 122 6 122 18 0 12 -21 16 -107 20 -59 3 -110 9 -114 12 -3 4 16 29 43 55 28 26 55 58 62 70 22 42 -14 120 -69 148 -36 19 -110 19 -134 2z"/>
<path d="M7902 10959 c-78 -39 -131 -122 -157 -247 -16 -76 -8 -108 32 -123 40 -15 78 6 156 85 l67 70 -2 -48 c-3 -43 0 -51 25 -70 40 -30 153 -30 193 0 40 30 44 48 8 40 -16 -3 -55 -9 -86 -13 -86 -9 -102 12 -77 98 7 22 19 39 30 42 47 12 -4 127 -72 166 -46 26 -63 26 -117 0z m89 -39 c10 -6 19 -18 19 -27 0 -28 -41 -99 -86 -149 -24 -26 -44 -51 -44 -55 0 -3 -18 -18 -40 -32 -45 -31 -55 -23 -45 31 16 88 39 137 90 189 52 54 71 61 106 43z"/>
<path d="M8415 10768 c-2 -7 -13 -48 -24 -90 -11 -42 -25 -86 -31 -98 -6 -12 -10 -33 -8 -48 2 -21 8 -27 27 -27 20 0 26 8 38 50 14 47 84 145 104 145 13 0 11 -64 -2 -77 -18 -18 -7 -58 18 -61 17 -3 26 6 42 41 22 49 34 60 88 88 59 30 63 27 63 -47 0 -73 18 -115 57 -133 50 -23 210 -7 268 26 15 9 26 8 49 -4 20 -11 49 -14 97 -11 61 3 75 8 129 46 l61 42 29 -22 29 -21 -29 -57 c-34 -68 -39 -70 -175 -70 -55 0 -237 -8 -405 -19 -518 -34 -678 -41 -888 -41 -188 0 -203 -1 -200 -17 3 -16 22 -18 208 -21 211 -3 640 11 860 28 69 6 222 15 340 20 208 9 385 24 424 36 34 11 -4 24 -71 24 -35 0 -63 3 -63 6 0 3 11 25 25 49 26 43 26 43 68 32 23 -6 74 -11 112 -12 56 0 70 3 70 15 0 11 -19 18 -70 26 -75 12 -125 24 -125 30 0 2 18 34 41 70 41 68 44 94 10 94 -13 0 -32 -23 -61 -75 l-43 -74 -30 21 c-24 17 -28 26 -24 52 6 44 -1 56 -33 56 -30 0 -40 -15 -40 -60 0 -32 -35 -70 -86 -95 -37 -17 -134 -20 -134 -4 0 5 11 27 25 47 27 40 31 63 15 93 -9 17 -22 19 -102 19 -82 0 -94 -2 -125 -26 -42 -32 -63 -73 -66 -130 -2 -44 -2 -44 -32 -38 -47 10 -53 20 -57 105 -3 66 -7 83 -23 95 -27 20 -62 17 -120 -10 l-50 -24 -13 24 c-16 30 -46 31 -90 4 -31 -19 -33 -19 -32 -3 4 34 0 43 -20 43 -11 0 -23 -6 -25 -12z m631 -76 c6 -4 9 -23 6 -45 -5 -46 -56 -87 -98 -79 -23 4 -25 8 -20 36 6 32 65 96 88 96 7 0 18 -4 24 -8z"/>
<path d="M391 10706 c-20 -24 -6 -50 22 -40 12 5 117 7 232 6 116 -2 759 -5 1430 -5 1078 -2 1220 0 1220 13 0 13 -141 16 -1185 22 -652 3 -1302 9 -1445 13 -232 7 -262 6 -274 -9z"/>
<path d="M5627 10714 c-2 -5 -8 -23 -12 -41 -5 -27 -2 -37 19 -58 35 -35 45 -31 39 15 -5 38 -4 40 20 40 14 0 33 -8 42 -17 36 -36 -7 -159 -76 -217 -38 -32 -86 -34 -145 -4 -50 24 -55 34 -63 108 -6 50 -8 55 -31 55 -23 0 -25 -4 -32 -61 -10 -90 -84 -225 -140 -255 -17 -9 -25 -7 -45 14 -23 22 -25 35 -33 158 -9 141 -22 189 -51 189 -22 0 -32 -26 -19 -50 6 -10 10 -62 10 -115 0 -134 20 -198 70 -231 35 -24 42 -25 75 -14 46 15 94 65 134 140 l32 59 47 -30 c88 -54 167 -51 234 9 72 65 99 122 100 212 1 63 -33 92 -110 98 -33 2 -62 0 -65 -4z"/>
<path d="M6848 10494 c-3 -3 -63 -9 -132 -14 -126 -9 -171 -21 -163 -43 5 -14 166 -12 262 3 33 5 112 12 176 16 121 6 157 16 129 34 -16 10 -262 14 -272 4z"/>
<path d="M6805 10309 c-93 -16 -179 -27 -189 -24 -25 5 -47 -12 -39 -31 9 -24 182 -11 350 27 23 5 59 9 80 10 47 0 105 20 111 37 6 20 -126 13 -313 -19z"/>
<path d="M5852 10288 c-7 -7 -12 -17 -12 -24 0 -17 30 -26 46 -13 18 15 160 1 175 -17 18 -22 2 -60 -42 -95 -38 -30 -90 -42 -107 -24 -3 3 3 27 14 53 23 54 21 72 -7 72 -24 0 -60 -73 -61 -122 -1 -41 24 -58 87 -58 41 0 60 6 92 29 58 42 83 78 83 120 -1 71 -39 91 -169 91 -54 0 -91 -4 -99 -12z"/>
<path d="M8735 10222 c-36 -22 -114 -108 -158 -172 -57 -84 -109 -141 -143 -155 -21 -9 -34 -21 -34 -33 0 -35 -115 -122 -162 -122 -11 0 -18 -8 -18 -20 0 -16 7 -20 38 -20 45 0 106 37 189 114 39 36 69 56 85 56 13 0 71 7 128 15 56 9 104 14 106 12 2 -2 0 -28 -6 -57 -14 -72 -13 -87 6 -94 24 -9 44 12 44 45 0 16 5 49 12 74 12 44 13 45 53 45 65 1 208 34 213 49 4 12 -16 13 -119 7 l-124 -7 0 120 c0 103 -3 122 -19 140 -23 26 -52 27 -91 3z m53 -155 c-1 -58 -6 -108 -9 -111 -5 -5 -193 -35 -222 -36 -13 0 91 143 153 210 44 46 63 61 71 53 7 -7 10 -49 7 -116z"/>
<path d="M2121 10167 c-60 -14 -141 -91 -141 -133 1 -38 35 -113 55 -120 32 -13 39 12 17 62 -25 59 -19 77 37 118 42 30 46 31 154 31 100 0 118 -3 167 -26 66 -32 120 -83 120 -114 0 -32 -85 -129 -170 -195 -143 -110 -189 -210 -155 -334 20 -70 30 -86 56 -86 23 0 23 3 4 77 -36 139 -20 170 185 354 47 42 98 94 113 116 25 36 27 44 18 83 -23 102 -174 181 -341 179 -41 -1 -95 -6 -119 -12z"/>
<path d="M805 9850 c-11 -5 -43 -9 -71 -9 -35 -1 -59 -7 -76 -20 -45 -36 -49 -73 -46 -396 3 -300 3 -300 25 -303 13 -2 37 -17 54 -34 l30 -31 122 6 c121 6 237 32 244 54 7 21 -47 22 -147 2 -73 -14 -119 -18 -157 -13 -51 6 -56 9 -69 40 -8 19 -21 34 -29 34 -19 0 -20 73 -3 181 l12 76 111 12 c61 6 132 11 157 11 49 0 62 8 49 29 -7 10 -38 12 -137 8 -71 -3 -141 -8 -156 -12 l-28 -7 0 90 c0 71 3 91 15 96 16 6 21 36 6 36 -5 0 -16 11 -25 25 -16 24 -16 26 7 49 18 18 39 24 102 31 80 8 140 9 205 3 42 -4 48 20 10 39 -28 14 -174 16 -205 3z"/>
<path d="M1870 9449 c-19 -5 -61 -14 -92 -19 -31 -6 -78 -19 -103 -30 -33 -14 -69 -20 -121 -20 -67 0 -74 -2 -74 -20 0 -19 7 -20 90 -20 56 0 104 6 127 15 21 8 71 21 111 30 83 17 135 41 129 58 -5 16 -24 17 -67 6z"/>
<path d="M2262 8959 c5 -32 88 -61 128 -46 53 20 38 42 -40 55 -92 16 -92 16 -88 -9z"/>
<path d="M9090 8823 c-39 -17 -51 -30 -43 -50 7 -17 69 -17 76 1 7 19 88 31 99 14 25 -40 -15 -122 -87 -178 -102 -79 -87 -106 63 -114 59 -3 125 -7 147 -8 30 -2 40 1 43 13 4 22 -65 39 -162 39 -42 0 -76 2 -76 5 0 2 21 24 47 47 82 76 111 178 65 231 -19 22 -121 22 -172 0z"/>
<path d="M10039 8633 c-78 -71 -150 -241 -117 -280 30 -37 101 -3 193 92 80 82 95 79 95 -20 0 -90 14 -105 98 -105 71 0 162 40 162 72 0 11 -63 0 -107 -18 -18 -8 -45 -11 -62 -8 l-31 7 0 117 c0 123 -4 150 -24 150 -6 0 -19 9 -29 20 -13 15 -29 20 -71 20 -50 0 -57 -3 -107 -47z m115 1 c34 -13 15 -50 -71 -142 -120 -126 -138 -123 -72 14 20 42 43 73 76 98 25 20 47 36 49 36 1 0 9 -3 18 -6z"/>
<path d="M7338 8577 c-38 -19 -47 -21 -58 -9 -23 25 -102 10 -158 -31 l-50 -35 -6 29 c-4 21 -11 29 -26 29 -11 0 -20 -1 -20 -2 0 -2 -10 -52 -21 -113 -12 -60 -22 -126 -23 -145 -1 -31 2 -35 24 -35 21 0 26 6 31 37 13 84 137 228 196 228 29 0 30 -18 3 -70 -23 -45 -25 -71 -8 -88 33 -33 88 14 88 77 1 58 30 85 112 101 33 6 39 4 54 -18 12 -19 15 -39 10 -86 -12 -129 -13 -121 13 -121 33 0 56 69 47 148 -10 99 -35 127 -110 127 -35 0 -68 -8 -98 -23z"/>
<path d="M8725 8584 c-43 -22 -105 -106 -167 -223 -29 -55 -58 -101 -64 -101 -15 0 -26 -28 -14 -35 4 -3 -6 -37 -23 -75 -26 -56 -36 -70 -54 -70 -26 0 -39 -35 -29 -75 8 -33 48 -34 73 -2 10 13 36 67 58 120 l40 97 108 0 109 0 -7 -75 c-10 -99 -2 -127 31 -123 26 3 26 4 28 95 0 50 4 95 8 99 4 3 51 11 104 16 97 8 134 20 134 40 0 7 -36 9 -116 6 l-116 -4 6 35 c17 97 18 217 3 254 -14 32 -20 37 -49 37 -18 0 -46 -8 -63 -16z m62 -161 c-3 -71 -9 -136 -12 -145 -6 -16 -21 -18 -106 -18 l-98 0 14 33 c35 83 139 239 168 250 39 16 40 12 34 -120z"/>
<path d="M11209 8523 c-39 -38 -79 -126 -79 -176 0 -66 76 -90 134 -42 l30 24 22 -24 c12 -13 41 -29 64 -36 38 -12 45 -11 86 12 25 13 55 34 66 47 l22 22 47 -46 48 -47 -40 -49 c-24 -28 -39 -54 -35 -63 3 -10 -1 -15 -12 -16 -9 0 -98 -4 -197 -10 -99 -5 -319 -14 -490 -19 -689 -21 -1024 -61 -1013 -119 4 -19 31 -18 113 3 108 28 358 48 840 65 596 22 1009 46 1073 62 32 9 42 17 42 31 0 17 -4 19 -27 13 -16 -4 -86 -9 -157 -12 l-129 -5 38 45 38 45 73 -5 c52 -4 78 -2 89 7 23 19 10 27 -60 35 -36 3 -65 11 -65 17 0 5 20 51 46 100 46 93 53 133 21 133 -13 0 -33 -30 -71 -109 l-52 -108 -42 47 c-32 36 -42 56 -44 88 -3 37 -6 42 -28 42 -22 0 -25 -5 -28 -45 -4 -52 -25 -79 -83 -105 -34 -16 -43 -16 -65 -5 -25 14 -57 58 -68 96 -5 16 -2 23 14 27 15 4 20 13 20 39 0 85 -72 106 -141 41z m81 -37 c0 -15 -7 -26 -20 -29 -16 -4 -20 -14 -20 -49 0 -34 -6 -50 -23 -66 -13 -12 -27 -19 -30 -15 -23 22 16 140 56 168 30 21 37 19 37 -9z"/>
<path d="M5330 8459 c-36 -10 -86 -18 -112 -19 -36 0 -54 -6 -78 -27 l-32 -27 6 -103 c3 -57 9 -151 12 -209 5 -75 11 -107 20 -111 8 -3 14 -14 14 -25 0 -20 5 -20 158 -15 159 5 212 14 247 42 18 15 13 15 -65 11 -47 -3 -137 -9 -200 -12 l-115 -6 3 80 c5 109 8 112 164 120 100 6 123 10 123 22 0 13 -21 15 -133 15 l-132 0 0 81 c0 63 -4 85 -16 95 -15 12 -14 14 7 20 13 4 40 7 59 8 20 1 62 8 94 16 32 9 86 17 119 20 66 5 72 7 64 30 -9 21 -123 18 -207 -6z"/>
<path d="M10685 8471 c-11 -5 -29 -18 -39 -30 -15 -16 -22 -18 -33 -10 -31 27 -47 -21 -56 -166 -2 -37 0 -40 23 -40 21 0 25 6 32 42 10 59 79 163 108 163 14 0 13 -93 -1 -107 -17 -17 -2 -63 20 -63 20 0 51 39 51 64 0 32 91 101 143 109 l37 6 0 -84 c0 -46 3 -90 6 -99 7 -19 55 -21 72 -4 16 16 15 28 -3 28 -12 0 -15 15 -16 73 -2 120 -3 122 -86 122 -65 0 -74 -3 -110 -32 l-39 -31 -10 31 c-8 27 -14 32 -44 34 -19 1 -44 -2 -55 -6z"/>
<path d="M6189 8295 c-5 -4 -68 -15 -191 -32 -29 -4 -38 -10 -38 -24 0 -22 33 -24 145 -8 162 22 210 34 210 49 0 11 -15 16 -60 18 -34 2 -63 0 -66 -3z"/>
<path d="M8044 8215 c-23 -35 -5 -55 52 -55 46 0 62 19 49 60 -10 32 -79 28 -101 -5z"/>
<path d="M7430 8189 c-41 -5 -111 -13 -156 -19 -44 -5 -128 -10 -187 -10 -103 0 -107 -1 -107 -22 0 -21 0 -21 203 -15 111 4 231 11 266 17 35 6 130 12 213 13 142 2 149 3 146 22 -3 19 -11 20 -153 21 -82 1 -184 -2 -225 -7z"/>
<path d="M6085 8094 c-61 -14 -105 -37 -105 -55 0 -22 29 -26 63 -7 12 6 85 16 162 22 113 9 140 14 140 26 0 12 -21 15 -120 16 -66 1 -129 0 -140 -2z"/>
<path d="M7240 7980 c-30 -11 -56 -20 -57 -20 -2 0 -3 -9 -3 -20 0 -24 24 -26 77 -6 48 18 177 28 209 16 13 -5 24 -16 24 -23 0 -28 -77 -90 -162 -129 -68 -32 -88 -46 -88 -61 0 -19 4 -20 137 -13 206 10 371 42 345 68 -7 7 -35 8 -79 4 -37 -3 -104 -9 -148 -12 l-80 -7 52 42 c59 46 73 67 73 108 0 59 -17 67 -137 70 -89 3 -118 0 -163 -17z"/>
<path d="M10930 7870 c-34 -19 -93 -69 -152 -130 -91 -95 -98 -100 -137 -100 -34 0 -41 -3 -41 -20 0 -15 7 -20 26 -20 21 0 25 -3 19 -17 -18 -41 -11 -58 23 -61 30 -3 32 -1 32 26 0 16 6 35 14 41 8 7 63 16 123 21 59 5 132 12 162 16 l53 7 -5 -29 c-25 -126 -16 -147 57 -142 37 3 41 6 44 31 3 26 2 27 -17 18 -32 -18 -41 -13 -41 23 0 46 18 94 38 100 10 3 43 9 75 15 118 21 130 58 15 46 -39 -3 -75 -8 -82 -11 -7 -3 -12 16 -13 58 -1 62 -24 136 -47 150 -26 17 -92 7 -146 -22z m129 -57 c7 -21 11 -58 9 -83 -3 -45 -3 -45 -53 -52 -57 -9 -239 -26 -243 -23 -8 6 138 144 177 167 67 40 95 37 110 -9z"/>
<path d="M8385 6108 c-45 -25 -70 -59 -126 -172 -81 -163 -77 -196 20 -196 54 0 86 16 151 74 l55 49 5 -53 c7 -66 33 -90 97 -90 46 0 103 23 103 41 0 6 -18 10 -42 9 -24 -1 -56 -1 -71 -1 l-29 1 5 98 c3 53 7 108 9 122 3 21 -1 25 -24 25 -26 -1 -28 2 -28 36 0 22 -7 42 -18 52 -21 19 -77 22 -107 5z m67 -120 l3 -83 -55 -52 c-52 -50 -96 -69 -135 -61 -13 2 -7 22 39 116 56 114 94 162 127 162 15 0 18 -11 21 -82z"/>
<path d="M7403 6088 c-5 -7 -17 -67 -27 -132 -9 -66 -24 -132 -32 -148 -22 -43 -15 -83 15 -83 20 0 26 8 40 50 20 64 42 96 111 163 61 60 118 91 168 92 32 0 32 0 32 -52 0 -40 -7 -61 -30 -98 -32 -50 -32 -80 1 -80 12 0 32 20 55 56 20 31 53 73 73 93 47 47 140 101 175 101 25 0 26 -2 26 -55 0 -30 -5 -88 -11 -130 -9 -59 -9 -78 1 -90 16 -19 35 -19 55 1 12 13 13 19 4 30 -9 11 -9 31 0 84 15 80 7 166 -17 193 -31 35 -112 16 -207 -48 l-65 -43 -6 26 c-11 53 -17 57 -86 56 -74 0 -136 -29 -205 -95 -35 -33 -43 -37 -43 -21 0 10 9 29 19 41 17 20 18 26 7 59 -14 39 -36 52 -53 30z"/>
<path d="M8742 5808 c-7 -7 -12 -24 -12 -38 0 -39 -29 -129 -57 -177 -29 -50 -28 -87 4 -91 25 -4 57 39 68 89 6 27 95 119 115 119 17 0 11 -43 -10 -75 -35 -52 -17 -105 30 -90 21 7 50 62 50 96 0 12 10 21 28 25 15 3 33 7 40 10 9 2 12 -15 12 -64 0 -40 5 -73 12 -80 7 -7 39 -12 74 -12 35 0 66 -4 69 -10 10 -16 63 -11 104 9 37 19 38 19 54 0 19 -22 70 -25 103 -6 12 7 45 38 74 70 l52 57 32 -27 32 -28 -33 -65 c-34 -68 -40 -94 -22 -105 13 -9 46 21 55 49 4 11 17 38 30 58 22 34 26 36 53 27 43 -15 136 -8 136 11 0 11 -18 18 -63 25 -35 5 -63 15 -63 20 0 14 52 95 61 95 12 0 20 28 14 45 -4 8 -14 15 -23 15 -19 0 -61 -40 -61 -57 0 -6 -12 -25 -26 -42 -22 -26 -28 -29 -45 -18 -14 9 -19 23 -19 53 0 76 -41 81 -80 11 -30 -52 -128 -157 -148 -157 -13 0 -14 13 -9 80 6 74 5 80 -16 95 -13 9 -44 15 -82 15 -51 0 -65 -4 -82 -22 -28 -31 -49 -75 -57 -121 -6 -34 -10 -38 -34 -35 -26 3 -27 6 -33 68 -7 89 -10 92 -80 88 -52 -3 -60 0 -75 21 -14 20 -23 22 -56 18 -22 -3 -48 -13 -58 -22 -18 -17 -19 -16 -13 19 8 50 -18 81 -45 54z m566 -141 c3 -25 -2 -30 -53 -52 -30 -14 -58 -25 -60 -25 -11 0 -3 26 21 67 23 39 29 44 57 41 27 -2 33 -8 35 -31z"/>
<path d="M5610 5589 c-86 -23 -123 -28 -203 -27 -53 1 -101 -2 -105 -8 -11 -12 -25 -63 -61 -219 -49 -215 -53 -244 -46 -312 9 -85 14 -87 179 -80 159 8 322 44 313 70 -6 17 -62 13 -202 -12 -87 -16 -137 -20 -182 -15 -61 6 -78 16 -48 28 8 3 15 13 15 23 0 9 12 59 26 110 l27 93 80 0 c110 0 247 20 247 37 0 17 -41 26 -92 19 -24 -3 -83 -8 -132 -12 l-89 -7 6 39 c4 21 15 75 25 119 l17 80 100 6 c55 3 127 14 160 24 33 10 85 23 115 29 37 7 55 16 55 26 0 25 -90 21 -205 -11z"/>
<path d="M11518 5610 c-65 -20 -160 -127 -264 -297 -41 -67 -41 -67 -102 -78 -70 -13 -77 -17 -68 -41 5 -13 14 -15 41 -11 32 5 34 4 23 -12 -54 -76 -116 -124 -155 -119 -21 2 -29 12 -41 46 -10 31 -19 42 -31 40 -12 -3 -16 -14 -15 -48 1 -34 7 -48 28 -67 60 -51 149 -16 240 96 64 80 68 81 233 81 l115 0 -5 -27 c-3 -16 -11 -50 -17 -77 -10 -41 -10 -51 3 -64 22 -21 44 -2 50 46 3 20 10 58 17 83 l11 46 60 7 c111 11 132 46 28 46 l-59 0 15 37 c27 64 43 164 35 216 -13 89 -62 122 -142 97z m82 -76 c16 -46 5 -128 -27 -215 -23 -63 -26 -67 -61 -73 -55 -9 -232 -7 -232 2 0 17 122 192 172 247 53 58 76 73 115 74 16 1 24 -8 33 -35z"/>
<path d="M12485 5390 c-16 -4 -83 -8 -147 -9 -111 -1 -118 -2 -118 -21 0 -19 7 -20 123 -20 121 0 335 15 370 26 14 5 16 9 6 20 -13 15 -178 18 -234 4z"/>
<path d="M7324 5328 c-10 -16 23 -36 73 -44 25 -4 363 -3 751 1 389 4 934 9 1211 11 336 2 507 6 514 13 31 31 -13 33 -674 26 -974 -10 -1757 -11 -1816 -3 -35 5 -55 3 -59 -4z"/>
<path d="M10241 5321 c-27 -49 -4 -84 51 -79 23 2 37 11 48 30 21 39 5 62 -48 66 -32 2 -43 -1 -51 -17z"/>
<path d="M6340 5260 c0 -19 7 -20 205 -20 198 0 205 1 205 20 0 19 -7 20 -205 20 -198 0 -205 -1 -205 -20z"/>
<path d="M12600 5239 c-41 -4 -130 -11 -197 -15 -115 -6 -123 -8 -123 -27 0 -20 4 -20 174 -14 126 5 189 11 227 24 99 33 61 47 -81 32z"/>
<path d="M8336 5147 c-26 -19 -14 -51 17 -44 62 16 130 18 179 7 62 -14 128 -55 128 -80 0 -37 -136 -145 -247 -195 -21 -10 -33 -22 -33 -35 0 -19 7 -20 103 -20 137 0 370 19 382 31 19 18 -19 29 -104 29 -46 0 -112 -5 -146 -11 -34 -6 -75 -9 -91 -7 -27 3 -25 5 31 35 73 39 142 107 155 154 13 43 -6 71 -73 113 -43 27 -56 29 -164 33 -93 4 -122 2 -137 -10z"/>
<path d="M6500 5109 c-25 -4 -80 -13 -122 -20 -65 -10 -78 -15 -78 -30 0 -22 23 -23 135 -9 39 5 116 14 172 20 56 5 114 15 130 21 l28 12 -25 7 c-33 10 -183 10 -240 -1z"/>
<path d="M7590 3498 c-30 -35 -89 -99 -130 -143 -90 -93 -110 -122 -103 -141 10 -27 42 -14 72 29 33 48 101 116 101 101 0 -10 -38 -150 -62 -227 -8 -27 -8 -41 -1 -48 19 -19 47 -5 55 26 23 90 81 294 90 320 6 17 24 44 40 61 20 21 29 40 26 55 -6 42 -32 32 -88 -33z"/>
<path d="M8623 3530 c-23 -10 -31 -34 -13 -45 5 -3 39 0 74 6 70 13 116 3 116 -25 0 -24 -98 -89 -152 -101 -19 -4 -28 -12 -28 -25 0 -18 7 -20 58 -20 116 0 211 -47 212 -106 0 -34 -44 -46 -240 -68 -82 -8 -105 -14 -105 -26 0 -36 276 -16 357 26 56 29 58 85 6 148 -21 26 -44 40 -84 52 l-55 16 46 42 c58 55 60 93 4 121 -31 17 -160 20 -196 5z"/>
<path d="M8060 3355 c-11 -30 -4 -52 22 -66 30 -16 57 -2 64 36 8 44 0 55 -42 55 -28 0 -36 -5 -44 -25z"/>
<path d="M6530 3130 c-14 -4 -49 -8 -77 -9 -46 -1 -53 -4 -53 -21 0 -18 6 -20 63 -19 34 0 123 6 197 12 108 10 135 15 135 27 0 12 -21 15 -120 17 -66 1 -131 -2 -145 -7z"/>
<path d="M10561 3128 c-66 -25 -89 -85 -90 -243 -1 -81 13 -109 65 -131 43 -18 80 -18 136 1 53 18 86 51 122 120 49 93 22 194 -62 234 -56 28 -126 35 -171 19z m135 -57 c33 -15 45 -28 59 -64 19 -51 16 -69 -26 -137 -42 -68 -112 -96 -174 -68 -23 10 -25 16 -25 78 l0 67 30 -5 c35 -5 38 3 9 27 -29 23 -33 77 -8 102 25 25 81 24 135 0z"/>
<path d="M11270 3120 c-21 -21 -24 -37 -14 -64 10 -25 43 -19 50 8 7 30 38 37 75 19 38 -18 73 -94 65 -141 -7 -46 -65 -106 -144 -148 -49 -26 -57 -35 -60 -62 l-3 -32 148 1 c144 1 230 14 222 34 -3 6 -59 9 -149 7 l-145 -3 51 30 c61 35 120 102 133 147 18 67 -18 161 -79 201 -44 30 -121 32 -150 3z"/>
<path d="M12100 3080 c0 -20 4 -20 238 -18 203 3 237 5 237 18 0 13 -34 15 -237 18 -234 2 -238 2 -238 -18z"/>
<path d="M9707 2982 c-21 -23 -22 -65 -2 -82 22 -19 89 -24 102 -9 25 32 25 58 -1 84 -30 30 -76 33 -99 7z"/>
<path d="M6583 2963 c-135 -3 -143 -5 -143 -23 0 -19 7 -20 138 -20 100 0 151 4 185 16 64 22 68 34 10 32 -26 -1 -112 -4 -190 -5z"/>
<path d="M7345 2950 c-11 -18 5 -27 60 -35 28 -4 472 -9 988 -11 926 -4 937 -4 937 15 0 19 -14 20 -917 25 -505 3 -950 8 -989 11 -50 5 -74 3 -79 -5z"/>
<path d="M12390 2874 c-47 -8 -125 -13 -175 -12 -88 3 -90 3 -93 -21 l-4 -24 164 5 c137 4 171 8 211 26 93 41 51 51 -103 26z"/>
<path d="M10916 2848 c-58 -230 -64 -262 -47 -272 23 -15 40 11 61 92 31 125 41 173 34 183 -8 13 -44 11 -48 -3z"/>
<path d="M8105 2721 c-47 -14 -61 -22 -63 -39 -4 -27 13 -28 84 -8 27 8 92 18 144 21 84 6 98 5 118 -12 l23 -18 -31 -39 c-34 -43 -177 -156 -253 -200 -41 -23 -48 -32 -45 -54 3 -27 4 -27 93 -30 96 -3 256 11 318 28 22 7 37 17 37 27 0 13 -13 14 -102 8 -56 -4 -115 -11 -132 -16 -17 -5 -56 -9 -86 -8 -47 0 -52 2 -36 12 67 42 221 165 251 199 45 53 46 87 4 122 -29 25 -36 26 -147 25 -80 0 -136 -6 -177 -18z"/>
<path d="M9140 1320 c0 -18 -7 -20 -60 -20 -54 0 -64 -3 -95 -32 -52 -48 -57 -94 -17 -158 l31 -49 -29 -21 c-18 -13 -31 -16 -35 -10 -12 19 -133 12 -178 -11 -23 -12 -45 -27 -49 -33 -13 -19 -9 -63 7 -76 21 -17 94 -7 170 23 60 24 61 24 95 5 52 -27 307 -26 381 1 144 55 191 146 129 248 -37 62 -153 113 -256 113 -33 0 -43 4 -47 20 -3 12 -14 20 -26 20 -14 0 -21 -6 -21 -20z m-10 -73 c0 -23 -80 -139 -93 -134 -6 2 -20 18 -30 35 -17 28 -17 33 -3 61 20 38 41 50 89 51 24 0 37 -5 37 -13z m249 -33 c116 -63 108 -164 -18 -223 -52 -24 -65 -26 -199 -25 -156 0 -180 7 -147 44 16 17 26 20 55 15 101 -20 157 -23 202 -14 26 6 48 14 48 18 0 5 -33 11 -73 14 -112 8 -179 32 -147 52 14 9 76 107 85 135 7 21 11 22 75 18 48 -4 82 -13 119 -34z m-489 -222 c0 -8 -96 -42 -118 -42 -22 0 -12 18 16 28 51 20 102 27 102 14z"/>
<path d="M7415 1290 c-12 -4 -27 -15 -34 -24 -8 -10 -22 -14 -35 -10 -17 4 -29 -4 -52 -33 -60 -76 -74 -108 -80 -185 -6 -68 -5 -77 15 -97 18 -18 33 -21 96 -21 118 0 201 52 239 148 21 56 23 145 3 175 -29 45 -103 68 -152 47z m80 -52 c30 -14 40 -43 31 -101 -11 -71 -45 -118 -106 -149 -47 -24 -62 -27 -104 -22 l-48 7 4 66 c2 44 10 76 23 95 18 26 20 28 23 10 4 -21 30 -54 44 -54 4 0 8 11 8 25 0 31 25 93 47 117 19 21 42 23 78 6z"/>
<path d="M8100 1286 c-18 -23 -8 -61 18 -64 13 -2 24 3 28 12 15 39 124 26 124 -15 0 -26 -62 -105 -89 -114 -43 -13 -35 -65 10 -65 33 0 129 -24 158 -40 59 -31 -5 -66 -140 -74 -95 -6 -123 -16 -102 -37 7 -7 48 -10 120 -7 92 3 114 7 151 28 46 26 58 52 43 91 -11 30 -56 54 -131 70 l-52 11 35 37 c52 54 60 74 47 120 -8 31 -17 42 -42 50 -47 16 -163 14 -178 -3z"/>
<path d="M10096 1231 c-3 -5 -10 -42 -16 -82 -6 -40 -13 -75 -16 -78 -14 -14 -104 -30 -142 -24 -42 5 -43 6 -36 37 3 17 14 44 23 59 15 27 15 29 -2 42 -26 19 -41 10 -56 -33 -30 -89 -32 -92 -62 -92 -22 0 -30 -6 -35 -25 -9 -37 3 -75 25 -75 10 0 30 9 45 21 22 17 42 21 131 23 l104 2 3 -75 c2 -59 6 -76 18 -76 17 0 27 30 35 108 7 62 24 87 59 87 12 0 44 11 69 24 26 13 47 22 47 19 0 -2 -14 -33 -32 -68 -24 -51 -29 -68 -19 -78 21 -21 43 5 93 106 26 52 52 98 57 102 6 3 11 15 11 26 0 28 -39 25 -81 -7 -42 -32 -148 -84 -171 -84 -20 0 -23 31 -9 90 4 19 6 41 4 48 -5 14 -39 16 -47 3z"/>
<path d="M6300 1120 c0 -20 4 -20 253 -18 216 3 252 5 252 18 0 13 -36 15 -252 18 -249 2 -253 2 -253 -18z"/>
<path d="M7745 1004 c-8 -20 -15 -40 -15 -43 0 -4 -13 -28 -30 -54 -52 -83 -30 -121 29 -50 32 39 84 160 75 174 -13 22 -44 7 -59 -27z"/>
<path d="M6380 980 c0 -19 7 -20 193 -20 188 0 241 8 207 30 -9 5 -98 10 -207 10 -186 0 -193 -1 -193 -20z"/>
</g>
<g id="logo" transform="translate(2227.851579, 1345.0483401987685) scale(0.8161748020508809)"><g transform="translate(-57.706759,297.537395) scale(0.100000,-0.100000)" fill="#4444bb" stroke="none">
<path d="M750 2973 c-57 -10 -88 -25 -119 -57 -40 -41 -55 -100 -46 -179 6 -45 12 -61 32 -77 32 -25 35 -25 64 -1 22 17 24 26 21 89 -4 105 24 120 164 87 33 -7 119 -19 190 -25 88 -8 134 -16 144 -26 32 -32 8 -420 -28 -456 -18 -18 -126 -28 -289 -28 -185 0 -206 -4 -250 -52 -55 -58 -58 -82 -55 -363 1 -145 7 -274 13 -293 11 -34 51 -62 89 -62 12 0 35 14 52 31 l31 30 -6 238 c-3 130 -3 249 0 264 l5 27 112 0 c234 1 363 26 423 82 58 54 98 260 91 463 -4 122 -7 138 -34 191 -40 81 -79 100 -217 108 -174 10 -361 14 -387 9z" fill="#4444bb"/>
<path d="M3660 2971 c-42 -9 -83 -34 -103 -65 -39 -59 -50 -127 -54 -343 -5 -206 -5 -212 18 -252 28 -50 78 -86 143 -102 48 -12 257 -8 370 7 l49 7 -7 -104 c-4 -57 -11 -189 -16 -294 -9 -177 -9 -192 8 -214 35 -47 100 -46 136 2 22 29 27 86 42 452 7 191 0 235 -44 283 -45 48 -92 56 -241 38 -146 -18 -229 -20 -265 -6 l-26 10 0 162 c0 156 8 230 27 249 5 5 99 6 210 2 l201 -6 5 -50 c3 -39 11 -56 31 -74 34 -29 48 -29 80 0 24 20 26 30 28 113 4 147 -23 169 -218 179 -242 11 -340 13 -374 6z" fill="#4444bb"/>
<path d="M1565 2945 c-14 -13 -25 -32 -25 -42 0 -10 -1 -297 -3 -638 -2 -677 -3 -662 55 -694 33 -19 73 -7 101 31 18 24 20 51 29 300 5 150 10 278 12 283 2 6 37 8 97 3 52 -3 135 -7 186 -7 154 -2 161 -10 143 -176 -21 -189 -27 -310 -18 -343 12 -45 45 -72 86 -72 71 0 102 46 102 151 0 33 7 118 16 187 24 190 9 280 -58 349 -50 52 -112 67 -263 65 -71 -1 -164 -6 -205 -11 -41 -4 -78 -7 -81 -5 -4 2 -10 108 -13 236 -9 286 -17 352 -47 384 -31 33 -82 32 -114 -1z" fill="#4444bb"/>
<path d="M2542 2944 c-55 -38 -64 -109 -53 -419 6 -186 9 -215 28 -250 50 -95 116 -125 302 -135 75 -4 171 -5 215 -1 l78 7 -4 -178 c-2 -97 -7 -181 -11 -184 -4 -4 -42 1 -85 11 -104 26 -285 27 -363 3 -106 -33 -149 -107 -99 -170 26 -34 68 -41 132 -21 74 23 202 20 308 -7 182 -47 274 5 301 168 12 77 27 831 19 994 -7 152 -20 181 -86 186 -88 7 -103 -51 -104 -401 l0 -219 -201 4 c-197 3 -201 3 -220 27 -18 21 -19 42 -19 283 l0 260 -29 29 c-33 33 -74 38 -109 13z" fill="#4444bb"/>
<path d="M2374 1391 c-55 -34 -79 -78 -79 -147 0 -51 4 -66 27 -96 35 -45 102 -73 153 -64 78 15 146 111 131 188 -20 108 -145 172 -232 119z" fill="#4444bb"/>
<path d="M1853 999 c-39 -11 -66 -56 -61 -101 6 -59 69 -64 76 -6 4 30 34 38 145 38 l67 0 0 -110 c0 -135 -1 -136 -132 -126 -85 6 -89 6 -113 -18 -24 -25 -25 -28 -25 -179 0 -162 4 -177 47 -177 35 0 43 29 43 159 l0 121 73 0 c85 0 141 14 168 41 17 17 19 34 19 169 0 147 -1 152 -25 175 -23 24 -30 25 -137 24 -62 0 -128 -5 -145 -10z" fill="#4444bb"/>
<path d="M2985 1000 c-91 -16 -93 -18 -104 -58 -15 -51 -14 -537 0 -564 19 -36 69 -48 204 -48 121 0 127 1 151 25 l24 24 -2 292 -3 292 -26 19 c-31 23 -161 33 -244 18z m169 -86 c14 -5 16 -37 16 -250 l0 -245 -102 3 -103 3 0 240 0 240 40 6 c57 9 131 10 149 3z" fill="#4444bb"/>
<path d="M2351 971 c-24 -24 -29 -73 -37 -372 -6 -232 -6 -237 15 -258 23 -23 29 -25 51 -11 12 7 16 40 20 150 l5 141 35 -23 c19 -13 59 -55 88 -93 30 -39 78 -96 108 -128 47 -51 56 -57 74 -47 29 16 25 42 -15 92 -19 24 -62 78 -95 121 -61 77 -61 77 -33 77 15 0 46 9 69 19 56 26 67 57 62 179 -6 156 -27 172 -220 172 -93 0 -111 -3 -127 -19z m257 -74 c16 -13 17 -168 0 -185 -7 -7 -41 -12 -84 -12 -40 0 -84 -4 -98 -10 l-26 -10 0 120 0 119 98 -6 c53 -3 103 -10 110 -16z" fill="#4444bb"/>
</g>
</g></svg>
