<?xml version="1.0" encoding="UTF-8" standalone="no"?>
<svg
   width="399.21814pt"
   height="281.49127pt"
   viewBox="0 0 399.21813 281.49127"
   version="1.1"
   id="svg21"
   sodipodi:docname="1028t.svg"
   xmlns:inkscape="http://www.inkscape.org/namespaces/inkscape"
   xmlns:sodipodi="http://sodipodi.sourceforge.net/DTD/sodipodi-0.dtd"
   xmlns:xlink="http://www.w3.org/1999/xlink"
   xmlns="http://www.w3.org/2000/svg"
   xmlns:svg="http://www.w3.org/2000/svg"
   xmlns:rdf="http://www.w3.org/1999/02/22-rdf-syntax-ns#"
   xmlns:cc="http://creativecommons.org/ns#"
   xmlns:dc="http://purl.org/dc/elements/1.1/">
  <sodipodi:namedview
     id="namedview21"
     pagecolor="#ffffff"
     bordercolor="#000000"
     borderopacity="0.25"
     inkscape:showpageshadow="2"
     inkscape:pageopacity="0.0"
     inkscape:pagecheckerboard="0"
     inkscape:deskcolor="#d1d1d1"
     inkscape:document-units="pt" />
  <metadata
     id="metadata1">
    <rdf:RDF>
      <cc:Work>
        <dc:type
           rdf:resource="http://purl.org/dc/dcmitype/StillImage" />
        <dc:date>2024-02-25T23:59:36.817455</dc:date>
        <dc:format>image/svg+xml</dc:format>
        <dc:creator>
          <cc:Agent>
            <dc:title>Matplotlib v3.8.2, https://matplotlib.org/</dc:title>
          </cc:Agent>
        </dc:creator>
      </cc:Work>
    </rdf:RDF>
  </metadata>
  <defs
     id="defs1">
    <style
       type="text/css"
       id="style1">*{stroke-linejoin: round; stroke-linecap: butt}</style>
  </defs>
  <g
     id="figure_1"
     transform="translate(-7.37,-9.30375)">
    <g
       id="axes_1">
      <g
         id="line2d_1">
        <path
           d="m 54.699273,149.55621 0.19676,-1.08218 0.19676,-1.08218 0.196761,-1.08219 0.19676,-1.08218 0.19676,-1.08218 0.196761,-1.08218 0.19676,-1.08218 0.19676,-1.08218 0.196761,-1.08219 0.19676,-1.08218 0.19676,-1.08218 0.196761,-1.08218 0.19676,-1.08218 0.19676,-1.08219 0.196761,-1.08218 0.19676,-1.08218 0.19676,-1.08218 0.196761,-1.08218 0.19676,-1.08218 0.19676,-1.08219 0.196761,-1.08218 0.19676,-1.08218 0.19676,-1.08218 0.196761,-1.08218 0.19676,-1.08218 0.19676,-1.08219 0.196761,-1.08218 0.19676,-1.08218 0.19676,-1.08218 0.196761,-1.08218 0.19676,-1.08219 0.19676,-1.08218 0.196761,-1.08218 0.19676,-1.08218 0.19676,-1.08218 0.196761,-1.08218 0.19676,-1.08219 0.19676,-1.08218 0.196761,-1.08218 0.19676,-1.08218 0.19676,-1.08218 0.196761,-1.08219 0.19676,-1.08218 0.19676,-1.08218 0.196761,-1.08218 0.19676,-1.082183 0.19676,-1.082182 0.196761,-1.082182 0.19676,-1.082182 0.19676,-1.082182 0.196761,-1.082182 0.19676,-1.082181 0.19676,-1.082182 0.196761,-1.082182 0.19676,-1.082182 0.19676,-1.082182 0.196761,-1.082181 0.19676,-1.082182 0.19676,-1.082182 0.196761,-1.082182 0.19676,-1.082182 0.19676,-1.082182 0.196761,-1.082181 0.19676,-1.082182 0.19676,-1.082182 0.196761,-1.082182 0.19676,-1.082182 0.19676,-1.082181 0.196761,-1.082182 0.19676,-1.082182 0.19676,-1.082182 0.196761,-1.082182 0.19676,-1.082182 0.19676,-1.082181 0.196761,-1.082182 0.19676,-1.082182 0.19676,-1.082182 0.196761,-1.082182 0.19676,-1.082181 0.19676,-1.082182 0.196761,-1.082182 0.19676,-1.082182 0.19676,-1.082182 0.19676,-1.082182 0.196761,-1.082181 0.19676,-1.082182 0.19676,-1.082182 0.196761,-1.082182 0.19676,-1.082182 0.19676,-1.082181 0.196761,-1.082182 0.19676,-1.082182 0.19676,-1.082182 0.196761,-1.082182 0.19676,-1.082182 0.19676,-1.082181 0.196761,-1.082182 0.19676,-1.082182 0.19676,-1.082182"
           clip-path="url(#pb347ce781f)"
           style="fill:none;stroke:#000000;stroke-width:2.5;stroke-linecap:square"
           id="path3" />
      </g>
      <g
         id="line2d_2">
        <path
           d="m 74.178545,42.42021 2.754645,23.060369 2.754645,19.331105 2.754644,16.383526 2.754645,14.02042 2.754645,12.10186 2.754644,10.52662 2.754645,9.22017 2.754644,8.12671 2.754645,7.20396 2.754643,6.41938 2.75465,5.74766 2.75464,5.16894 2.75465,4.66742 2.75464,4.23045 2.75465,3.84782 2.75464,3.51122 2.75464,3.2138 2.75465,2.94997 2.75464,2.71503 2.75465,2.50506 2.75464,2.31679 2.75465,2.14744 2.75464,1.99467 2.75465,1.85644 2.75464,1.73105 2.75465,1.61702 2.75464,1.51307 2.75464,1.41809 2.75465,1.33111 2.75464,1.25132 2.75465,1.17795 2.75464,1.11037 2.75465,1.048 2.75464,0.99036 2.75465,0.93699 2.75464,0.88749 2.75465,0.84152 2.75464,0.79875 2.75465,0.75893 2.75464,0.72179 2.75464,0.68708 2.75465,0.65465 2.75464,0.62428 2.75465,0.59581 2.75464,0.5691 2.75465,0.544 2.75464,0.52041 2.75465,0.4982 2.75464,0.47727 2.75465,0.45753 2.75464,0.4389 2.75465,0.42129 2.75464,0.40465 2.75464,0.38888 2.75465,0.37396 2.75464,0.35982 2.75465,0.34638 2.75464,0.33365 2.75465,0.32153 2.75464,0.31003 2.75465,0.29907 2.75464,0.28864 2.75465,0.2787 2.75464,0.26924 2.75465,0.26021 2.75464,0.25158 2.75465,0.24334 2.75464,0.23548 2.75465,0.22796 2.75464,0.22076 2.75464,0.21388 2.75465,0.20728 2.75464,0.20096 2.75465,0.19491 2.75464,0.18909 2.75465,0.18352 2.75464,0.17818 2.75465,0.17303 2.75464,0.1681 2.75465,0.16335 2.75464,0.1588 2.75465,0.1544 2.75464,0.15018 2.75464,0.14611 2.75465,0.1422 2.75464,0.13842 2.75465,0.13478 2.75464,0.13128 2.75465,0.12789 2.75464,0.12463 2.75465,0.12148 2.75464,0.11844 2.75465,0.1155 2.75464,0.11265 2.75464,0.10992 2.75465,0.10726 2.75464,0.10469 2.75465,0.10222 2.75464,0.0998"
           clip-path="url(#pb347ce781f)"
           style="fill:none;stroke:#000000;stroke-width:2.5;stroke-linecap:square"
           id="path4" />
      </g>
      <g
         id="line2d_3">
        <path
           d="m 346.88836,249.99621 -2.9514,-0.064 -2.95141,-0.0652 -2.9514,-0.0665 -2.95141,-0.0678 -2.9514,-0.0692 -2.95141,-0.0706 -2.9514,-0.072 -2.95141,-0.0735 -2.9514,-0.075 -2.95141,-0.0766 -2.9514,-0.0782 -2.95141,-0.0799 -2.9514,-0.0816 -2.95141,-0.0834 -2.9514,-0.0852 -2.95141,-0.0871 -2.9514,-0.0891 -2.95141,-0.0911 -2.9514,-0.0932 -2.95141,-0.0954 -2.9514,-0.0976 -2.95141,-0.1 -2.9514,-0.10239 -2.95141,-0.10491 -2.9514,-0.10751 -2.95141,-0.11022 -2.9514,-0.11301 -2.9514,-0.11593 -2.95141,-0.11896 -2.95141,-0.1221 -2.9514,-0.12538 -2.9514,-0.12878 -2.95141,-0.13234 -2.95141,-0.13603 -2.9514,-0.13988 -2.95141,-0.1439 -2.9514,-0.1481 -2.95141,-0.15247 -2.9514,-0.15706 -2.95141,-0.16185 -2.9514,-0.16685 -2.95141,-0.17211 -2.9514,-0.1776 -2.95141,-0.18337 -2.9514,-0.18942 -2.9514,-0.19577 -2.95141,-0.20246 -2.9514,-0.20949 -2.95141,-0.21689 -2.9514,-0.22469 -2.95141,-0.23293 -2.9514,-0.24161 -2.95141,-0.2508 -2.9514,-0.26052 -2.95141,-0.27082 -2.9514,-0.28174 -2.95141,-0.29333 -2.9514,-0.30566 -2.95141,-0.31878 -2.9514,-0.33276 -2.95141,-0.34768 -2.9514,-0.36363 -2.95141,-0.3807 -2.9514,-0.399 -2.95141,-0.41866 -2.9514,-0.4398 -2.95141,-0.46259 -2.9514,-0.4872 -2.95141,-0.51382 -2.9514,-0.54268 -2.95141,-0.57406 -2.9514,-0.60822 -2.95141,-0.64554 -2.9514,-0.6864 -2.95141,-0.73125 -2.9514,-0.78067 -2.95141,-0.83526 -2.9514,-0.89579 -2.95141,-0.96314 -2.9514,-1.03838 -2.95141,-1.12281 -2.9514,-1.21795 -2.95141,-1.32574 -2.951403,-1.4485 -2.951405,-1.58913 -2.951405,-1.75128 -2.951405,-1.93959 -2.951405,-2.16 -2.951405,-2.42024 -2.951405,-2.73053 -2.951405,-3.10457 -2.951405,-3.56113 -2.951405,-4.12639 -2.951404,-4.83783 -2.951405,-5.75063 -2.951405,-6.94868 -2.951405,-8.56465 -2.951405,-10.81851 -2.951405,-14.09684"
           clip-path="url(#pb347ce781f)"
           style="fill:none;stroke:#000000;stroke-width:2.5;stroke-linecap:square"
           id="path5" />
      </g>
      <g
         id="matplotlib.axis_1">
        <g
           id="xtick_1">
          <g
             id="line2d_4" />
          <g
             id="text_1">
            <!-- $V$ -->
            <g
               transform="matrix(0.34,0,0,-0.34,381.46,290.69408)"
               id="g5">
              <defs
                 id="defs5">
                <path
                   id="STIXTwoText-Italic-56"
                   d="M 1504,-32 H 1293 L 934,3430 q -25,218 -77,343 -51,125 -150,182 -99,58 -272,58 l 13,192 h 1568 l -19,-192 q -243,0 -384,-96 -141,-96 -128,-314 0,-32 9,-115 10,-83 10,-115 l 192,-1824 45,-749 h 32 l 371,563 1376,2061 q 90,128 144,237 54,109 54,185 0,96 -83,131 -83,36 -301,36 l 13,192 h 1383 l -13,-192 q -128,0 -228,-26 -99,-25 -189,-99 -89,-74 -195,-208 -105,-134 -252,-352 z"
                   transform="scale(0.015625)" />
              </defs>
              <use
                 xlink:href="#STIXTwoText-Italic-56"
                 transform="translate(0,0.296875)"
                 id="use5" />
            </g>
          </g>
        </g>
        <g
           id="xtick_2">
          <g
             id="line2d_5" />
          <g
             id="text_2">
            <!-- $0$ -->
            <g
               transform="matrix(0.34,0,0,-0.34,26.72,290.69408)"
               id="g6">
              <defs
                 id="defs6">
                <path
                   id="STIXTwoText-30"
                   d="M 1581,-70 Q 1197,-70 928,99 659,269 492,563 326,858 249,1242 q -76,384 -76,806 0,608 163,1072 163,464 480,726 317,263 778,263 416,0 729,-247 314,-246 493,-710 179,-464 179,-1123 0,-410 -80,-788 Q 2835,864 2665,569 2496,275 2227,102 1958,-70 1581,-70 Z m 0,230 q 377,0 585,454 208,455 208,1376 0,973 -202,1437 -201,464 -598,464 -377,0 -582,-461 Q 787,2970 787,2016 787,1088 992,624 1197,160 1581,160 Z"
                   transform="scale(0.015625)" />
              </defs>
              <use
                 xlink:href="#STIXTwoText-30"
                 transform="translate(0,0.796875)"
                 id="use6" />
            </g>
          </g>
        </g>
      </g>
      <g
         id="matplotlib.axis_2">
        <g
           id="ytick_1">
          <g
             id="line2d_6" />
          <g
             id="text_3">
            <!-- $p$ -->
            <g
               transform="matrix(0.34,0,0,-0.34,7.2,34.941875)"
               id="g7">
              <defs
                 id="defs7">
                <path
                   id="STIXTwoText-Italic-70"
                   d="m 1440,-70 q -166,0 -355,67 -189,67 -266,131 l 83,320 q 77,-77 221,-160 144,-83 362,-83 326,0 569,204 244,205 375,599 131,394 131,957 0,307 -83,467 -83,160 -199,217 -115,58 -204,58 -212,0 -372,-119 -160,-118 -275,-304 -115,-185 -205,-396 l 71,550 q 166,205 319,346 154,141 314,211 160,71 333,71 243,0 438,-122 196,-122 311,-365 115,-243 115,-614 0,-602 -221,-1060 Q 2682,448 2304,189 1926,-70 1440,-70 Z M 1286,-1408 H 32 l 800,3891 q 6,32 9,61 4,29 4,61 0,96 -55,140 -54,45 -182,45 -70,0 -138,-6 -67,-6 -67,-6 v 160 l 915,96 h 122 l -90,-493 h 26 L 710,-646 q -6,-45 -16,-122 -9,-77 -9,-147 0,-109 131,-214 131,-106 515,-106 z"
                   transform="scale(0.015625)" />
              </defs>
              <use
                 xlink:href="#STIXTwoText-Italic-70"
                 transform="translate(0,0.09375)"
                 id="use7" />
            </g>
          </g>
        </g>
      </g>
      <g
         id="line2d_7">
        <path
           d="M 54.699273,149.55621"
           clip-path="url(#pb347ce781f)"
           style="fill:none;stroke:#000000;stroke-width:1.5;stroke-linecap:square"
           id="path7" />
        <defs
           id="defs8">
          <path
             id="m1fd85240fc"
             d="M 0,4 C 1.060812,4 2.078319,3.578535 2.828427,2.828427 3.578535,2.078319 4,1.060812 4,0 4,-1.060812 3.578535,-2.078319 2.828427,-2.828427 2.078319,-3.578535 1.060812,-4 0,-4 -1.060812,-4 -2.078319,-3.578535 -2.828427,-2.828427 -3.578535,-2.078319 -4,-1.060812 -4,0 -4,1.060812 -3.578535,2.078319 -2.828427,2.828427 -2.078319,3.578535 -1.060812,4 0,4 Z"
             style="stroke:#000000" />
        </defs>
        <g
           clip-path="url(#pb347ce781f)"
           id="g8">
          <use
             xlink:href="#m1fd85240fc"
             x="54.699272"
             y="149.55621"
             style="stroke:#000000"
             id="use8" />
        </g>
      </g>
      <g
         id="line2d_8">
        <path
           d="M 74.178545,42.42021"
           clip-path="url(#pb347ce781f)"
           style="fill:none;stroke:#000000;stroke-width:1.5;stroke-linecap:square"
           id="path8" />
        <g
           clip-path="url(#pb347ce781f)"
           id="g9">
          <use
             xlink:href="#m1fd85240fc"
             x="74.178543"
             y="42.420212"
             style="stroke:#000000"
             id="use9" />
        </g>
      </g>
      <g
         id="line2d_9">
        <path
           d="m 35.22,256.69221 19.479273,-107.136"
           clip-path="url(#pb347ce781f)"
           style="fill:none;stroke:#000000;stroke-width:1.6;stroke-dasharray:5.92, 2.56;stroke-dashoffset:0"
           id="path9" />
      </g>
      <g
         id="line2d_10">
        <path
           d="M 35.22,256.69221 74.178545,42.42021"
           clip-path="url(#pb347ce781f)"
           style="fill:none;stroke:#000000;stroke-width:1.6;stroke-dasharray:5.92, 2.56;stroke-dashoffset:0"
           id="path10" />
      </g>
      <g
         id="line2d_11">
        <path
           d="M 346.88836,249.99621"
           clip-path="url(#pb347ce781f)"
           style="fill:none;stroke:#000000;stroke-width:1.5;stroke-linecap:square"
           id="path11" />
        <g
           clip-path="url(#pb347ce781f)"
           id="g11">
          <use
             xlink:href="#m1fd85240fc"
             x="346.88837"
             y="249.99622"
             style="stroke:#000000"
             id="use11" />
        </g>
      </g>
      <g
         id="patch_3">
        <path
           d="m 65.324331,91.118392 q 0.09838,-0.541091 -0.08608,0.473453"
           clip-path="url(#pb347ce781f)"
           style="fill:none;stroke:#000000;stroke-linecap:round"
           id="path12" />
        <path
           d="m 57.027407,106.56456 8.210841,-14.972715 2.414954,16.904675 z"
           clip-path="url(#pb347ce781f)"
           style="stroke:#000000;stroke-linecap:round"
           id="path13" />
      </g>
      <g
         id="text_4">
        <!-- 1 -->
        <g
           transform="matrix(0.34,0,0,-0.34,38.979545,138.33787)"
           id="g13">
          <defs
             id="defs13">
            <path
               id="STIXTwoText-31"
               d="M 2726,0 H 512 v 179 q 454,0 640,96 186,96 186,333 v 2707 q 0,167 -45,240 -45,74 -167,74 -64,0 -179,-13 -115,-13 -243,-36 -128,-22 -230,-54 v 212 l 1241,352 h 186 V 608 q 0,-237 192,-333 192,-96 633,-96 z"
               transform="scale(0.015625)" />
          </defs>
          <use
             xlink:href="#STIXTwoText-31"
             id="use13" />
        </g>
      </g>
      <g
         id="text_5">
        <!-- 2 -->
        <g
           transform="matrix(0.34,0,0,-0.34,58.458818,31.201875)"
           id="g14">
          <defs
             id="defs14">
            <path
               id="STIXTwoText-32"
               d="M 2765,0 H 243 v 218 l 973,972 q 320,327 531,592 211,266 317,535 106,269 106,601 0,359 -215,573 -214,215 -585,215 -314,0 -535,-135 -221,-134 -400,-493 l -153,64 q 147,468 467,724 320,256 787,256 365,0 640,-138 275,-138 432,-384 157,-246 157,-586 0,-281 -119,-541 -118,-259 -352,-534 -233,-275 -572,-621 L 877,518 v -32 l 448,20 h 889 q 256,0 358,115 103,115 212,403 h 186 z"
               transform="scale(0.015625)" />
          </defs>
          <use
             xlink:href="#STIXTwoText-32"
             id="use14" />
        </g>
      </g>
      <g
         id="patch_4">
        <path
           d="m 170.03235,229.61596 q 0.56073,0.18885 -0.37698,-0.12696"
           clip-path="url(#pb347ce781f)"
           style="fill:none;stroke:#000000;stroke-linecap:round"
           id="path14" />
        <path
           d="m 156.02627,219.20077 13.6291,10.28823 -17.07622,-0.0531 z"
           clip-path="url(#pb347ce781f)"
           style="stroke:#000000;stroke-linecap:round"
           id="path15" />
      </g>
      <g
         id="patch_5">
        <path
           d="m 102.12244,225.47002 q -0.59412,-0.27499 0.24665,0.11417"
           clip-path="url(#pb347ce781f)"
           style="fill:none;stroke:#000000;stroke-linecap:round"
           id="path16" />
        <path
           d="m 114.80236,237.28947 -12.43327,-11.70528 16.96979,1.90426 z"
           clip-path="url(#pb347ce781f)"
           style="stroke:#000000;stroke-linecap:round"
           id="path17" />
      </g>
      <g
         id="text_6">
        <!-- 3 -->
        <g
           transform="matrix(0.34,0,0,-0.34,343.34318,238.77787)"
           id="g17">
          <defs
             id="defs17">
            <path
               id="STIXTwoText-33"
               d="m 1094,-83 q -288,0 -442,55 -153,54 -214,134 -60,80 -60,163 0,102 64,191 64,90 185,90 96,0 201,-48 106,-48 221,-109 116,-60 234,-108 119,-48 240,-48 205,0 384,73 179,74 294,250 116,176 116,490 0,288 -160,499 -160,211 -426,329 -265,119 -573,119 h -128 v 243 h 122 q 218,0 422,109 205,109 336,307 132,198 132,454 0,282 -176,439 -176,157 -477,157 -288,0 -480,-132 -192,-131 -359,-387 l -147,83 q 179,416 473,634 295,218 686,218 492,0 761,-247 269,-246 269,-611 0,-333 -195,-538 -195,-204 -496,-396 v -20 q 256,-76 470,-220 215,-144 343,-352 128,-208 128,-496 0,-436 -244,-734 Q 2355,211 1958,64 1562,-83 1094,-83 Z"
               transform="scale(0.015625)" />
          </defs>
          <use
             xlink:href="#STIXTwoText-33"
             id="use17" />
        </g>
      </g>
      <g
         id="patch_6">
        <path
           d="m 35.22,256.69221 q 178.56,0 346.80031,0"
           style="fill:none;stroke:#000000;stroke-width:2.56;stroke-linecap:round"
           id="path18" />
        <path
           d="m 374.02031,253.69221 8,3 -8,3 z"
           style="stroke:#000000;stroke-width:2.56;stroke-linecap:round"
           id="path19" />
      </g>
      <g
         id="patch_7">
        <path
           d="m 35.22,256.69221 q 0,-116.87564 0,-228.613525"
           style="fill:none;stroke:#000000;stroke-width:2.56;stroke-linecap:round"
           id="path20" />
        <path
           d="m 32.22,36.078685 3,-8 3,8 z"
           style="stroke:#000000;stroke-width:2.56;stroke-linecap:round"
           id="path21" />
      </g>
    </g>
  </g>
  <defs
     id="defs21">
    <clipPath
       id="pb347ce781f">
      <rect
         x="35.220001"
         y="22.940937"
         width="357.12"
         height="233.75127"
         id="rect21" />
    </clipPath>
  </defs>
</svg>
