<svg xmlns="http://www.w3.org/2000/svg" version="1.0" width="2167.757574pt" height="3953.402694pt" viewBox="0 0 2167.757574 3953.402694" preserveAspectRatio="xMidYMid meet">
<metadata>
Created by potrace 1.16, written by Peter Selinger 2001-2019
</metadata>
<g transform="translate(-4.309956,3969.654488) scale(0.100000,-0.100000)" fill="#000000" stroke="none">
<path d="M535 39677 c-16 -25 -48 -132 -60 -199 l-6 -38 -104 0 c-98 0 -105 -1 -105 -20 0 -19 7 -20 99 -20 l100 0 -13 -37 -13 -38 -96 -3 c-89 -2 -97 -4 -97 -22 0 -18 7 -20 94 -20 l93 0 -15 -65 c-14 -65 -12 -95 8 -95 12 0 23 25 44 101 15 54 18 57 53 63 21 4 50 9 64 12 l26 5 -5 -81 c-3 -52 -1 -80 6 -80 19 0 42 31 42 56 0 14 5 44 11 67 l10 42 91 22 c129 32 138 47 21 38 -51 -3 -93 -4 -93 -1 0 2 4 16 10 30 9 24 14 26 72 27 35 0 72 4 83 8 19 8 19 8 -2 19 -12 7 -45 12 -73 12 l-52 0 8 32 c3 18 16 52 27 74 36 75 -6 106 -44 32 -11 -22 -27 -62 -35 -88 l-14 -47 -72 -6 c-40 -3 -73 -5 -75 -3 -1 1 9 47 23 102 14 54 26 108 27 118 3 29 -20 30 -38 3z m102 -296 c-10 -26 -18 -31 -74 -41 -35 -7 -66 -11 -68 -9 -2 2 -1 17 2 32 7 34 31 46 100 46 l51 1 -11 -29z"/>
<path d="M1123 39534 c-26 -40 -83 -173 -99 -230 -8 -28 -21 -68 -29 -87 -8 -20 -15 -52 -15 -72 0 -28 4 -35 19 -35 21 0 33 13 35 39 3 43 77 242 127 344 11 21 19 44 19 52 0 25 -38 17 -57 -11z"/>
<path d="M2275 39550 c-11 -5 -50 -9 -87 -9 -64 -1 -68 -2 -68 -24 0 -13 8 -31 18 -40 25 -23 62 -22 62 1 0 15 15 19 103 30 110 13 180 15 189 6 4 -3 -11 -31 -31 -62 -20 -31 -42 -69 -49 -84 -11 -26 -16 -28 -72 -28 -53 0 -60 -2 -60 -20 0 -17 7 -20 46 -20 l46 0 -21 -32 c-36 -58 -71 -131 -71 -151 0 -14 6 -18 27 -15 19 2 29 11 36 33 6 17 28 60 50 98 39 65 41 67 81 67 41 0 86 22 86 41 0 6 -20 7 -52 3 l-52 -7 28 49 c16 27 41 66 57 86 52 66 17 88 -139 87 -59 0 -116 -4 -127 -9z"/>
<path d="M1708 39508 c-18 -6 -28 -17 -28 -30 0 -18 4 -20 38 -14 102 18 128 18 141 2 20 -23 7 -43 -43 -68 -49 -23 -69 -54 -54 -81 7 -13 23 -17 69 -17 74 0 127 -22 135 -57 4 -13 2 -29 -4 -35 -25 -25 -168 -38 -189 -17 -18 18 -55 1 -51 -24 3 -21 9 -22 114 -25 101 -2 113 -1 144 20 40 28 50 52 38 95 -13 48 -59 76 -137 82 l-66 6 41 18 c72 33 90 103 36 143 -20 16 -144 17 -184 2z"/>
<path d="M1433 39470 c-17 -4 -48 -17 -68 -29 -20 -11 -43 -21 -50 -21 -21 0 -43 -49 -55 -125 -19 -121 3 -155 101 -155 46 0 63 5 96 29 73 53 123 135 123 201 0 54 -14 79 -55 96 -37 15 -45 16 -92 4z m81 -56 c23 -23 20 -60 -10 -115 -26 -47 -104 -119 -130 -119 -7 0 -25 5 -40 10 -25 10 -26 13 -22 75 3 55 8 69 33 96 33 35 98 68 132 69 12 0 29 -7 37 -16z"/>
<path d="M19375 39222 c-51 -33 -81 -75 -98 -137 -33 -123 -28 -243 13 -280 10 -9 34 -18 53 -22 32 -5 41 -1 71 29 l35 35 3 -163 c3 -167 12 -204 41 -176 9 10 13 77 15 247 3 197 5 235 18 235 11 0 14 17 14 85 0 82 -1 87 -32 120 -41 45 -90 54 -133 27z m105 -60 c26 -33 27 -82 1 -82 -23 0 -31 -19 -31 -71 0 -71 -61 -179 -101 -179 -27 0 -39 37 -39 117 0 100 25 176 71 217 43 39 68 39 99 -2z"/>
<path d="M106 39081 c-15 -24 80 -55 227 -72 122 -14 928 -5 1097 12 52 5 498 12 991 15 495 3 903 10 910 15 12 8 12 11 -1 19 -19 13 -1804 5 -2025 -9 -82 -5 -303 -13 -490 -17 -350 -7 -511 1 -622 32 -59 16 -80 17 -87 5z"/>
<path d="M3196 38963 c-11 -26 -24 -289 -36 -688 -27 -929 -31 -1124 -28 -1716 l3 -637 -510 -6 c-490 -5 -703 -11 -1505 -37 -398 -13 -580 -15 -855 -8 -137 3 -186 1 -203 -9 -31 -18 -22 -38 14 -34 16 1 83 2 149 1 66 -1 235 -2 375 -3 232 0 409 4 1350 35 162 5 496 12 741 16 446 6 446 6 452 -15 7 -28 27 -28 34 -2 4 17 14 20 57 20 60 0 90 14 66 30 -8 5 -37 10 -65 10 l-50 0 2 837 c1 461 7 927 13 1035 5 109 10 262 10 340 0 79 5 197 9 263 5 66 11 223 13 350 2 205 1 230 -13 233 -9 2 -20 -5 -23 -15z"/>
<path d="M18716 38919 c-3 -17 -6 -257 -6 -533 1 -516 4 -567 43 -658 11 -26 22 -38 36 -38 24 0 35 15 24 33 -32 50 -36 87 -40 358 l-4 276 418 9 c616 13 1033 11 1203 -5 199 -20 265 -20 265 -1 0 19 -101 36 -309 51 -143 10 -731 7 -1328 -7 l-248 -6 0 245 c0 270 -4 307 -30 307 -12 0 -20 -11 -24 -31z"/>
<path d="M18256 38924 c-3 -9 -6 -116 -6 -239 l0 -224 -317 -5 c-175 -3 -511 -8 -748 -12 -420 -5 -431 -6 -452 -26 -23 -21 -23 -25 -23 -287 0 -260 17 -540 54 -891 9 -80 21 -197 27 -260 21 -207 23 -222 41 -234 12 -7 68 -7 190 2 99 7 378 12 651 12 l477 0 0 -64 c0 -35 3 -71 6 -80 6 -16 44 -23 44 -7 0 12 235 23 670 30 333 5 385 8 385 21 0 9 -11 16 -25 18 -23 3 -25 7 -22 41 l4 38 561 8 c602 8 635 8 857 0 132 -5 148 -4 177 14 38 24 49 65 38 149 -4 31 -10 145 -14 252 l-6 195 -29 0 -30 0 3 -159 c1 -88 7 -185 12 -215 5 -31 9 -82 9 -113 0 -54 -2 -58 -31 -73 -25 -13 -50 -15 -132 -10 -133 8 -387 8 -953 0 l-462 -7 -7 54 c-8 65 -31 158 -51 208 -15 37 -15 37 -112 50 -128 17 -367 9 -747 -25 -73 -7 -125 -22 -137 -39 -4 -6 -8 -64 -8 -128 l0 -117 -587 -5 c-324 -2 -611 -7 -640 -11 l-52 -7 -6 39 c-19 126 -25 176 -30 243 -5 84 -17 204 -40 425 -11 95 -18 289 -22 531 l-5 382 493 6 c272 3 605 9 742 12 l247 6 0 -288 c0 -300 8 -366 43 -388 12 -8 21 -6 34 7 16 16 16 19 0 46 -15 27 -17 77 -17 569 0 297 -3 547 -6 556 -3 9 -14 16 -24 16 -10 0 -21 -7 -24 -16z m796 -1860 c44 -6 48 -9 59 -42 25 -83 31 -122 37 -229 l7 -112 -385 -5 c-212 -3 -424 -8 -472 -11 l-88 -6 0 181 c0 178 0 181 23 189 12 4 128 16 257 25 129 9 246 19 260 21 33 4 243 -3 302 -11z"/>
<path d="M19692 38755 c-48 -40 -72 -94 -75 -169 -3 -86 14 -106 91 -106 48 0 58 4 87 33 38 38 68 125 63 183 -4 45 -37 73 -94 81 -33 4 -45 1 -72 -22z m108 -40 c8 -10 10 -29 6 -54 -15 -93 -60 -150 -111 -137 -22 6 -25 12 -25 52 0 48 20 107 47 136 20 22 66 23 83 3z"/>
<path d="M5665 38686 c-36 -16 -109 -95 -136 -148 -43 -84 -69 -185 -69 -266 0 -72 3 -84 26 -111 51 -61 129 -33 233 86 l42 48 -5 -60 c-3 -33 -10 -102 -16 -154 -12 -111 -6 -161 20 -161 21 0 30 27 30 95 0 97 44 390 71 473 22 67 20 96 -8 90 -13 -2 -24 10 -40 44 -32 70 -84 92 -148 64z m84 -62 c44 -56 14 -233 -54 -323 -56 -74 -132 -133 -155 -121 -41 22 -35 150 12 270 32 81 63 130 112 172 39 35 59 35 85 2z"/>
<path d="M514 38500 c-51 -24 -53 -27 -103 -127 -23 -45 -45 -85 -51 -88 -5 -3 -10 -21 -10 -38 0 -18 -9 -91 -21 -164 -12 -72 -19 -139 -15 -148 3 -10 15 -15 28 -13 21 3 24 11 32 79 l8 77 53 -23 c29 -13 79 -31 111 -41 32 -9 82 -32 111 -52 50 -33 90 -38 81 -9 -9 24 -100 84 -156 101 -123 38 -143 48 -130 64 7 8 29 25 48 37 113 72 198 200 184 278 -11 69 -29 87 -83 87 -25 -1 -64 -9 -87 -20z m116 -84 c0 -71 -87 -184 -177 -230 -18 -9 -33 -21 -33 -26 0 -6 -5 -10 -11 -10 -15 0 -3 71 23 140 34 86 77 157 101 165 81 28 97 22 97 -39z"/>
<path d="M1523 38472 c-36 -35 -65 -78 -103 -155 -48 -95 -54 -115 -58 -184 -4 -72 -2 -80 21 -104 30 -33 117 -53 190 -44 84 10 261 56 280 73 9 8 17 22 17 30 0 16 -1 16 -120 -17 -174 -49 -297 -51 -326 -6 -25 38 -9 121 42 226 40 82 114 179 137 179 11 0 5 -67 -14 -152 -10 -44 -10 -61 -1 -70 17 -17 40 7 48 51 4 20 10 43 14 51 4 8 11 42 15 76 8 72 -6 94 -59 94 -26 0 -44 -11 -83 -48z"/>
<path d="M21343 38368 c-6 -7 -13 -75 -17 -152 -5 -116 -9 -144 -27 -173 -14 -22 -18 -40 -13 -51 4 -9 8 -39 8 -67 1 -46 3 -50 26 -50 23 0 25 4 28 55 4 80 8 85 39 50 38 -41 129 -72 228 -77 75 -4 119 6 102 23 -4 4 -37 11 -74 16 -36 4 -97 17 -136 29 -59 19 -72 28 -93 61 -14 21 -22 43 -19 49 14 22 208 169 231 175 33 8 28 38 -7 42 -27 3 -68 -23 -177 -110 l-59 -47 5 105 c3 74 1 108 -8 119 -15 18 -24 19 -37 3z"/>
<path d="M20642 38308 c-18 -18 -17 -541 1 -556 6 -5 26 -12 42 -15 17 -3 53 -14 81 -24 l52 -18 -42 -72 c-42 -73 -116 -172 -128 -173 -4 0 -13 7 -22 15 -27 27 -61 18 -102 -29 -74 -83 -104 -125 -106 -148 -3 -21 1 -23 37 -22 78 3 174 31 198 58 19 22 20 26 8 45 -7 11 5 29 44 69 29 30 77 95 106 143 29 49 56 89 61 89 14 0 86 -39 93 -49 3 -6 27 -24 53 -42 26 -17 51 -38 55 -45 10 -17 44 -18 50 -1 8 23 -15 54 -55 77 -22 12 -54 35 -72 50 -17 15 -48 35 -68 43 -41 17 -42 27 -5 80 21 30 71 154 89 220 14 52 -4 73 -33 38 -10 -13 -19 -31 -19 -40 0 -9 -6 -25 -13 -36 -8 -11 -21 -43 -30 -72 -9 -28 -31 -74 -48 -101 -28 -46 -33 -49 -57 -42 -15 5 -47 15 -72 23 l-45 14 -1 264 c-1 253 -1 264 -20 267 -11 1 -25 -3 -32 -10z"/>
<path d="M17729 38128 c-75 -39 -157 -118 -187 -180 -25 -50 -28 -118 -11 -197 9 -42 20 -59 61 -96 114 -102 289 -99 451 9 35 23 57 45 57 56 0 25 -28 17 -110 -31 -134 -79 -269 -80 -357 -4 -35 29 -44 45 -53 91 -16 75 -6 133 32 185 59 82 162 149 229 149 33 0 40 -4 45 -26 4 -14 4 -46 0 -70 -11 -80 45 -69 60 13 23 121 -81 170 -217 101z"/>
<path d="M8505 38101 c-109 -39 -113 -44 -174 -281 -22 -85 -49 -182 -60 -215 -17 -51 -18 -62 -6 -74 7 -7 20 -11 27 -8 13 4 68 164 68 195 0 15 16 16 25 1 4 -5 51 -43 104 -82 53 -40 114 -91 135 -115 22 -24 51 -52 67 -62 27 -20 27 -20 50 0 14 11 18 19 11 20 -7 0 -38 26 -68 58 -30 31 -103 93 -161 137 -59 44 -109 86 -111 93 -2 7 7 12 25 12 36 0 166 41 218 68 70 37 128 94 128 128 0 58 -12 80 -62 112 -41 27 -58 32 -107 32 -33 -1 -82 -9 -109 -19z m182 -48 c39 -25 43 -31 41 -62 -3 -30 -11 -40 -64 -76 -59 -40 -156 -76 -237 -88 -36 -6 -38 -4 -31 16 8 27 35 84 55 115 12 21 12 25 -4 37 -17 12 -16 14 9 34 15 12 29 21 33 21 3 1 29 7 56 15 73 20 93 18 142 -12z"/>
<path d="M7784 38074 c-7 -3 -41 -8 -75 -12 -47 -5 -64 -11 -64 -22 0 -13 17 -15 103 -13 57 1 102 -1 100 -5 -33 -67 -100 -235 -119 -297 -35 -116 -35 -115 -6 -115 27 0 32 9 66 120 11 36 36 101 55 145 19 44 43 99 53 122 18 43 18 43 71 43 45 0 52 3 52 20 0 19 -6 20 -112 19 -62 0 -118 -3 -124 -5z"/>
<path d="M974 37935 c-10 -40 1 -204 14 -217 23 -23 36 9 40 101 5 109 -1 141 -28 141 -13 0 -22 -9 -26 -25z"/>
<path d="M6838 37909 c-10 -5 -18 -19 -18 -31 0 -17 4 -19 28 -13 15 4 90 10 166 12 113 4 150 1 194 -12 80 -26 102 9 26 41 -40 17 -368 20 -396 3z"/>
<path d="M5970 37824 c-153 -19 -374 -36 -542 -41 -142 -4 -148 -5 -148 -25 0 -21 1 -21 233 -15 127 3 266 11 307 16 113 14 264 30 370 38 74 6 95 11 95 23 0 20 -171 23 -315 4z"/>
<path d="M6840 37742 c0 -18 8 -21 63 -26 126 -12 362 -17 377 -7 26 18 0 26 -108 32 -59 4 -158 10 -219 14 -110 8 -113 7 -113 -13z"/>
<path d="M5679 37593 c-38 -36 -82 -87 -99 -112 -61 -95 -97 -234 -76 -297 3 -12 18 -26 32 -32 47 -22 100 -14 192 29 48 23 112 50 141 60 62 22 101 45 101 59 0 25 -130 -10 -257 -71 -88 -42 -149 -51 -160 -23 -10 27 13 126 46 196 32 67 151 208 175 208 9 0 15 -29 19 -97 4 -53 11 -101 17 -107 21 -21 31 12 37 116 6 102 5 105 -18 121 -45 32 -75 22 -150 -50z"/>
<path d="M7755 37590 c-16 -4 -72 -8 -122 -9 -88 -1 -93 -2 -93 -23 0 -21 1 -21 153 -14 235 12 292 18 292 36 0 12 -18 15 -100 16 -55 1 -113 -2 -130 -6z"/>
<path d="M126 37531 c-14 -21 4 -28 106 -41 77 -9 233 -11 618 -6 283 3 818 9 1188 12 620 5 673 7 670 22 -3 16 -56 17 -673 16 -369 -1 -920 -3 -1225 -5 -305 -2 -583 0 -616 5 -43 6 -63 5 -68 -3z"/>
<path d="M2406 37259 c-29 -23 -34 -65 -15 -131 7 -28 15 -38 30 -38 19 0 21 5 17 67 l-3 67 38 8 c52 11 126 -22 172 -75 67 -78 57 -134 -42 -217 -89 -75 -104 -93 -125 -148 -33 -87 -17 -192 33 -207 26 -9 33 -2 21 22 -23 43 -24 107 -2 165 18 49 33 67 102 125 84 70 108 107 108 167 0 49 -13 79 -57 127 -74 82 -215 117 -277 68z"/>
<path d="M1460 37102 c0 -9 9 -22 19 -29 33 -21 95 -210 107 -330 9 -82 -18 -212 -60 -298 -43 -87 -116 -180 -162 -207 -37 -22 -43 -35 -19 -44 46 -18 140 71 215 202 77 134 99 304 61 464 -26 105 -66 211 -92 238 -25 27 -69 30 -69 4z"/>
<path d="M852 36955 c-24 -20 -39 -51 -66 -133 -46 -139 -66 -261 -66 -398 0 -109 0 -111 25 -122 14 -7 32 -12 40 -12 20 0 19 29 0 36 -38 15 -7 297 51 477 37 111 56 137 101 137 16 0 23 6 23 20 0 31 -69 28 -108 -5z"/>
<path d="M502 36927 c-61 -34 -132 -194 -147 -329 -5 -50 -4 -59 15 -78 22 -22 50 -23 94 -5 18 8 19 5 11 -86 -5 -52 -9 -148 -9 -214 -1 -100 1 -120 14 -120 16 0 18 12 41 240 5 55 17 145 26 200 9 55 19 130 24 167 4 37 12 75 17 85 5 10 13 39 16 65 6 40 4 50 -13 67 -24 24 -55 26 -89 8z m48 -57 c0 -48 -25 -112 -47 -121 -27 -10 -30 -34 -6 -47 15 -9 14 -13 -6 -55 -27 -55 -58 -97 -73 -97 -18 0 -2 119 27 194 25 67 77 146 96 146 5 0 9 -9 9 -20z"/>
<path d="M1202 36908 c-20 -24 -61 -129 -83 -208 l-21 -80 -50 0 c-42 0 -49 -3 -46 -17 2 -13 15 -19 42 -21 37 -3 38 -4 31 -35 -16 -75 -22 -144 -14 -164 10 -26 38 -43 74 -43 30 0 95 58 95 84 0 21 -4 20 -50 -10 -57 -38 -74 -28 -67 39 3 28 11 69 17 90 l11 37 105 0 c100 0 144 9 144 30 0 6 -49 10 -119 10 l-119 0 22 78 c13 43 33 103 46 134 21 53 22 88 2 88 -5 0 -14 -6 -20 -12z"/>
<path d="M2190 36709 c-122 -24 -160 -29 -203 -29 -40 0 -47 -3 -47 -20 0 -18 7 -20 73 -20 112 0 247 39 247 71 0 10 -8 10 -70 -2z"/>
<path d="M18590 36481 c-88 -25 -112 -35 -133 -59 -23 -25 -47 -113 -47 -172 0 -25 -7 -72 -14 -105 -26 -110 -30 -180 -11 -195 34 -28 50 17 75 209 9 72 20 106 20 63 0 -18 16 -26 118 -58 64 -20 157 -49 205 -65 87 -29 170 -38 182 -20 5 9 -353 131 -383 131 -6 0 -12 5 -12 10 0 6 8 10 18 10 9 0 63 23 119 50 79 39 108 59 128 87 33 49 32 76 -6 107 -28 23 -38 26 -112 25 -47 0 -110 -8 -147 -18z m220 -39 c22 -18 22 -19 6 -44 -10 -15 -52 -44 -94 -66 -78 -40 -231 -97 -239 -88 -3 2 5 32 17 65 12 34 19 69 15 80 -9 28 109 62 241 69 18 1 42 -6 54 -16z"/>
<path d="M2500 36464 c0 -12 -3 -36 -6 -53 -6 -28 -4 -31 20 -31 27 0 50 30 28 38 -7 2 -12 9 -12 16 0 7 -7 21 -15 32 -14 19 -14 19 -15 -2z"/>
<path d="M5785 36358 c-54 -55 -65 -72 -83 -133 -11 -38 -23 -96 -27 -127 -5 -49 -4 -59 14 -77 41 -41 125 -16 172 50 12 17 23 28 25 26 2 -2 -14 -64 -35 -138 -41 -145 -66 -255 -76 -335 -5 -39 -3 -53 9 -63 24 -20 46 3 46 48 0 93 122 533 166 596 18 26 18 123 -1 168 -16 38 -35 47 -104 47 -41 0 -49 -5 -106 -62z m159 -4 c20 -53 -14 -124 -112 -234 -75 -83 -102 -91 -102 -30 0 21 11 74 24 116 32 100 90 164 147 164 24 0 39 -5 43 -16z"/>
<path d="M8921 35926 c-7 -8 -9 -25 -5 -40 5 -22 12 -26 44 -26 42 0 57 21 45 60 -8 24 -66 28 -84 6z"/>
<path d="M9585 35804 c-139 -72 -204 -187 -270 -480 -19 -83 -37 -158 -40 -166 -7 -18 19 -42 38 -35 7 2 27 56 45 120 l34 115 81 -83 c45 -45 104 -94 130 -110 91 -52 255 -81 321 -55 46 17 28 28 -60 35 -48 4 -113 16 -145 25 -72 22 -172 92 -228 159 -60 72 -55 87 39 121 132 47 181 79 224 144 29 44 35 123 12 164 -31 57 -118 79 -181 46z m119 -53 c25 -28 31 -83 12 -118 -18 -36 -64 -76 -115 -102 -30 -16 -155 -61 -168 -61 -2 0 3 13 12 30 18 34 19 57 4 62 -22 7 47 113 106 160 66 54 118 64 149 29z"/>
<path d="M8794 35558 c-34 -38 -51 -71 -103 -197 -58 -138 -65 -187 -27 -197 41 -10 68 6 160 95 49 47 87 79 83 71 -3 -8 -26 -64 -52 -125 -67 -159 -72 -172 -93 -255 -40 -152 -35 -190 23 -190 26 0 65 42 65 71 0 25 -9 24 -37 -3 -22 -20 -23 -20 -23 -2 0 20 7 48 34 146 16 58 109 285 153 372 37 72 53 132 40 145 -18 18 -34 13 -67 -20 l-31 -32 2 53 c2 45 -1 56 -20 71 -32 26 -83 24 -107 -3z m73 -107 c-3 -44 -11 -88 -19 -99 -23 -33 -148 -134 -148 -120 0 18 84 217 111 262 13 23 29 36 41 36 20 0 21 -4 15 -79z"/>
<path d="M5330 35427 c-59 -16 -63 -43 -5 -40 389 15 475 15 685 -6 290 -28 485 -37 494 -23 11 19 -96 39 -274 53 -69 5 -172 13 -230 18 -148 14 -614 12 -670 -2z"/>
<path d="M7060 35386 c-37 -7 -55 -16 -55 -26 0 -12 15 -14 85 -12 192 8 265 16 265 32 0 12 -21 15 -120 17 -66 0 -145 -4 -175 -11z"/>
<path d="M7840 35340 c0 -19 7 -20 223 -20 128 0 228 4 237 10 35 23 -20 30 -237 30 -216 0 -223 -1 -223 -20z"/>
<path d="M7040 35251 c-47 -10 -133 -53 -138 -68 -7 -25 27 -24 90 0 44 18 92 27 163 32 137 9 169 15 155 29 -13 13 -218 18 -270 7z"/>
<path d="M5855 35048 c-58 -21 -126 -82 -180 -163 -61 -93 -75 -130 -75 -196 0 -40 4 -51 30 -73 34 -28 101 -42 152 -31 42 9 271 82 321 103 116 48 -52 35 -198 -15 -116 -40 -189 -50 -225 -30 -60 32 -7 179 105 292 65 66 118 90 174 79 35 -7 37 -13 15 -55 -18 -36 -12 -59 16 -59 13 0 25 12 35 36 22 52 19 90 -7 108 -26 18 -116 20 -163 4z"/>
<path d="M7777 33523 c-47 -54 -101 -114 -121 -132 -41 -40 -47 -71 -15 -71 13 0 38 18 61 45 45 52 57 53 34 3 -13 -30 -36 -132 -36 -165 0 -7 8 -13 18 -13 20 0 52 57 52 93 0 34 75 212 110 260 32 45 33 77 1 77 -10 0 -56 -44 -104 -97z"/>
<path d="M5781 33485 c-27 -28 -32 -40 -27 -60 6 -24 10 -26 53 -23 42 3 48 6 66 42 24 46 15 70 -29 73 -22 2 -38 -6 -63 -32z"/>
<path d="M7160 33420 c0 -20 5 -20 137 -18 122 3 138 5 141 21 3 15 -9 17 -137 17 -135 0 -141 -1 -141 -20z"/>
<path d="M5658 33162 c-36 -24 -116 -126 -138 -177 -10 -22 -21 -67 -25 -100 -9 -84 3 -98 88 -103 60 -4 72 -1 122 27 55 31 55 31 55 9 0 -13 -4 -39 -10 -57 -17 -59 -49 -252 -56 -336 -6 -69 -4 -83 11 -95 12 -10 21 -11 33 -3 14 8 16 23 14 70 -2 33 2 86 8 119 6 32 15 84 20 114 9 56 26 143 57 285 9 44 23 84 30 88 20 12 5 85 -29 135 -29 42 -29 42 -91 42 -43 0 -70 -6 -89 -18z m120 -41 c47 -53 54 -74 27 -85 -8 -3 -15 -15 -15 -26 0 -29 -37 -98 -68 -127 -46 -43 -99 -65 -137 -57 -33 6 -35 8 -35 48 1 59 20 105 74 174 72 94 116 114 154 73z"/>
<path d="M9156 33149 c-65 -38 -130 -169 -141 -285 -6 -67 -5 -73 16 -88 27 -18 100 -21 132 -5 12 6 37 25 56 43 25 23 32 26 27 12 -4 -11 -17 -74 -31 -140 -13 -67 -31 -152 -39 -191 -9 -41 -16 -136 -18 -230 l-3 -160 27 -3 c20 -2 31 3 43 22 17 25 13 66 -6 66 -12 0 -11 145 1 230 19 136 80 399 114 495 24 65 32 103 26 109 -6 6 -10 20 -10 32 0 32 -27 91 -45 98 -27 10 -128 6 -149 -5z m100 -35 c12 -3 27 -17 33 -30 29 -65 -2 -139 -97 -226 -42 -39 -58 -48 -88 -48 l-37 0 6 63 c6 77 53 183 96 220 33 27 49 31 87 21z"/>
<path d="M6320 33020 c0 -19 7 -20 240 -20 233 0 240 1 240 20 0 19 -7 20 -240 20 -233 0 -240 -1 -240 -20z"/>
<path d="M7980 33029 c-47 -5 -130 -13 -185 -19 -55 -5 -169 -10 -252 -10 -150 0 -153 0 -153 -21 0 -22 0 -22 268 -16 258 6 411 22 434 45 12 12 2 33 -15 31 -7 -1 -50 -5 -97 -10z"/>
<path d="M6320 32840 c0 -19 7 -20 203 -20 198 0 251 8 217 30 -9 5 -102 10 -217 10 -196 0 -203 -1 -203 -20z"/>
<path d="M7647 32796 c-139 -57 -163 -98 -216 -363 -25 -120 -26 -147 -6 -163 31 -26 47 3 87 152 20 78 20 78 39 53 26 -33 110 -55 207 -55 46 0 98 -6 123 -15 24 -9 50 -14 59 -13 9 2 28 -7 44 -19 15 -12 48 -25 73 -29 99 -15 325 17 344 48 16 26 -11 30 -98 14 -48 -9 -123 -16 -166 -16 -139 0 -162 32 -113 157 27 70 73 117 159 164 59 31 59 31 81 10 29 -27 56 -27 56 -1 0 32 -36 60 -75 60 -65 0 -217 -97 -249 -158 -23 -45 -56 -144 -56 -170 0 -20 -2 -22 -15 -12 -8 7 -67 16 -132 21 -116 10 -194 28 -200 46 -2 5 20 26 49 45 74 49 216 175 223 197 3 10 1 30 -4 45 -10 25 -14 26 -83 26 -53 0 -88 -7 -131 -24z m163 -29 c0 -14 -124 -124 -191 -169 -24 -16 -52 -36 -61 -45 -10 -9 -18 -13 -18 -10 0 19 31 119 45 147 23 44 111 82 208 89 9 0 17 -5 17 -12z"/>
<path d="M5536 31404 c-3 -9 -6 -52 -6 -97 -1 -45 -5 -102 -11 -127 -5 -25 -13 -70 -18 -100 -18 -113 -51 -184 -51 -110 0 101 -100 141 -213 84 -110 -56 -148 -102 -161 -195 -6 -38 -3 -48 14 -64 33 -30 160 -15 403 46 35 9 52 29 23 29 -11 0 -9 17 9 83 50 179 77 377 61 442 -7 28 -40 34 -50 9z m-150 -404 c7 -14 14 -48 18 -76 l6 -51 -72 -16 c-136 -31 -156 -35 -183 -29 -26 4 -27 7 -21 46 17 106 216 206 252 126z"/>
<path d="M5899 31151 c-44 -37 -95 -136 -113 -221 -17 -79 -7 -103 46 -108 28 -2 42 4 81 38 54 48 55 46 28 -72 -11 -46 -23 -124 -27 -174 l-6 -92 -202 -6 c-110 -3 -301 -9 -424 -12 -199 -6 -223 -8 -220 -23 3 -14 28 -16 233 -16 286 0 610 11 865 30 107 7 202 14 210 14 11 1 12 3 1 14 -9 9 -64 12 -208 12 l-195 0 5 90 c8 134 55 316 116 451 21 44 15 68 -15 62 -12 -2 -23 4 -29 17 -8 15 -22 21 -60 23 -43 2 -55 -2 -86 -27z m91 -31 c0 -10 -5 -30 -11 -44 -9 -19 -9 -29 -1 -39 9 -11 1 -26 -36 -72 -51 -63 -98 -103 -108 -92 -12 12 26 129 58 181 46 76 98 111 98 66z"/>
<path d="M8000 31034 c-36 -36 -86 -81 -112 -101 -27 -19 -48 -41 -48 -49 0 -26 28 -26 66 0 21 14 39 24 41 22 3 -3 -42 -122 -57 -148 -6 -10 -10 -34 -10 -54 0 -28 4 -35 16 -32 9 2 20 10 24 18 13 26 29 63 50 117 11 29 30 70 44 91 42 66 93 177 89 190 -10 26 -41 10 -103 -54z"/>
<path d="M7405 30969 c-15 -24 17 -29 156 -27 120 3 144 5 144 18 0 13 -24 15 -147 18 -100 2 -149 -1 -153 -9z"/>
<path d="M9175 30761 c-37 -22 -108 -99 -128 -138 -24 -45 -46 -142 -49 -210 -3 -73 19 -112 70 -127 42 -12 112 15 160 60 20 19 38 32 40 30 2 -3 -3 -53 -12 -113 -43 -305 -55 -522 -33 -576 24 -57 103 -67 121 -15 12 35 5 42 -28 26 -39 -17 -46 -1 -46 112 0 165 34 436 81 648 43 197 35 289 -26 312 -42 16 -117 12 -150 -9z m144 -46 c20 -20 27 -103 9 -118 -8 -7 -26 -41 -39 -77 -24 -66 -79 -132 -144 -172 -58 -35 -95 -14 -95 55 0 56 33 178 58 219 27 44 81 95 112 106 29 12 79 5 99 -13z"/>
<path d="M6835 30590 c-11 -5 -37 -9 -57 -9 -32 -1 -38 -4 -38 -22 0 -21 2 -22 93 -14 50 4 160 10 242 14 124 5 150 9 150 21 0 13 -28 15 -185 17 -102 1 -194 -2 -205 -7z"/>
<path d="M7620 30501 c0 -19 13 -20 348 -24 191 -3 361 -8 377 -11 35 -8 66 7 50 23 -23 23 -134 31 -446 31 -318 0 -329 -1 -329 -19z"/>
<path d="M6900 30385 c-36 -7 -82 -16 -102 -20 -29 -4 -38 -11 -38 -25 0 -25 29 -26 137 -5 43 8 143 19 223 23 119 6 145 10 145 22 0 13 -24 15 -150 17 -94 1 -174 -3 -215 -12z"/>
<path d="M5556 30318 c-2 -7 -7 -49 -10 -93 -5 -77 -10 -106 -42 -260 -25 -115 -23 -112 -51 -70 -32 47 -76 65 -156 65 -113 0 -218 -52 -236 -117 -8 -29 -7 -42 4 -60 14 -22 22 -23 118 -23 64 0 130 7 179 19 l77 18 6 -28 c15 -66 58 -59 69 11 4 27 13 43 29 51 37 19 127 89 127 99 0 10 -44 -1 -88 -24 -17 -9 -33 -16 -35 -16 -3 0 1 26 8 58 30 130 56 292 53 333 -2 37 -7 45 -26 47 -12 2 -24 -3 -26 -10z m-191 -414 c19 -4 61 -51 53 -59 -12 -13 -136 -36 -215 -42 -88 -6 -93 -5 -93 14 0 23 21 43 70 68 62 32 107 37 185 19z"/>
<path d="M5906 30213 c-18 -38 -39 -87 -46 -110 -12 -39 -16 -43 -55 -48 -54 -9 -70 -19 -61 -40 5 -14 14 -16 47 -11 36 6 39 5 31 -11 -10 -18 -48 -147 -62 -211 -16 -66 42 -81 126 -32 76 43 123 107 98 133 -4 4 -29 -14 -57 -39 -48 -43 -105 -80 -112 -72 -2 2 2 24 10 48 8 25 24 78 36 118 12 39 22 73 23 73 1 1 53 4 116 8 93 5 115 9 115 21 0 12 -19 16 -103 18 l-103 3 7 32 c3 18 21 61 39 97 34 69 35 90 4 90 -13 0 -29 -20 -53 -67z"/>
<path d="M7850 30273 c-40 -13 -119 -53 -125 -62 -3 -6 -14 -11 -25 -11 -21 0 -30 -19 -30 -66 0 -19 -14 -92 -30 -162 -49 -204 -50 -209 -50 -239 0 -31 16 -53 37 -53 17 0 40 56 63 154 11 43 21 80 24 83 2 2 21 0 43 -6 21 -6 92 -11 157 -11 85 0 135 -5 174 -17 42 -14 56 -15 60 -5 3 9 8 9 25 0 12 -6 74 -14 137 -16 101 -4 127 -1 215 22 97 26 185 67 185 86 0 14 -31 12 -81 -5 -208 -74 -429 -76 -472 -5 -13 22 8 93 38 129 20 23 207 131 227 131 3 0 3 -13 0 -30 -4 -25 -1 -30 17 -30 25 0 43 32 39 68 -3 23 -8 27 -41 30 -54 5 -195 -60 -262 -121 -60 -53 -79 -95 -73 -162 l3 -44 -35 4 c-19 2 -91 7 -160 10 -140 7 -170 12 -170 29 0 15 62 63 110 85 58 26 170 135 170 165 0 42 -25 56 -93 55 -34 0 -69 -3 -77 -6z m114 -41 c9 -14 -96 -109 -151 -136 -28 -14 -54 -30 -58 -36 -12 -20 -25 -10 -25 20 0 53 34 105 82 126 68 29 142 42 152 26z"/>
<path d="M5679 28203 c-20 -53 -38 -132 -50 -225 l-13 -94 -42 43 c-27 27 -55 44 -79 49 -93 17 -206 -59 -219 -149 -9 -59 -2 -81 30 -95 41 -19 109 -14 201 17 49 16 123 35 166 41 43 7 80 17 84 23 9 14 -18 27 -60 27 l-38 0 6 53 c10 98 26 192 42 249 16 56 13 88 -7 88 -6 0 -15 -12 -21 -27z m-162 -285 c19 -9 73 -78 73 -92 0 -2 -19 -9 -42 -15 -24 -5 -70 -19 -103 -31 -36 -12 -71 -18 -87 -14 -25 5 -28 10 -28 46 0 34 6 46 36 74 52 49 95 58 151 32z"/>
<path d="M8231 27965 c-17 -20 -31 -39 -31 -43 0 -10 -96 -82 -110 -82 -5 0 -10 -9 -10 -20 0 -29 43 -26 86 6 19 15 34 23 34 20 0 -4 -12 -29 -26 -57 -32 -64 -94 -241 -88 -251 10 -15 34 -8 49 15 8 13 26 55 39 93 13 38 40 102 60 142 50 99 78 176 70 196 -10 26 -40 18 -73 -19z"/>
<path d="M5875 27949 c-29 -14 -72 -87 -80 -136 -9 -54 6 -80 49 -89 42 -7 68 0 106 33 l30 25 0 -34 c0 -18 -7 -78 -16 -133 -8 -55 -18 -130 -21 -167 l-6 -68 -316 -1 c-340 0 -433 -10 -439 -44 -4 -16 2 -17 60 -11 34 3 204 9 376 12 l312 7 0 -31 c0 -43 9 -62 31 -62 24 0 38 28 32 63 l-5 27 205 0 c159 0 207 3 216 13 6 8 8 17 4 20 -3 4 -100 7 -215 7 -191 0 -208 1 -208 18 0 9 7 60 16 112 8 52 19 139 24 193 6 58 16 110 26 126 19 33 14 65 -17 104 -18 24 -27 27 -82 26 -34 0 -71 -5 -82 -10z m111 -44 c13 -32 -78 -135 -119 -135 -39 0 2 122 46 140 34 14 67 12 73 -5z"/>
<path d="M9980 27780 c-22 -44 -50 -104 -61 -133 -11 -29 -30 -71 -42 -95 l-21 -43 -121 3 c-101 3 -120 1 -120 -12 0 -15 12 -18 156 -36 l57 -7 -33 -71 c-61 -131 -53 -166 34 -166 58 0 148 44 171 83 23 41 6 42 -63 4 -61 -33 -84 -41 -114 -38 -21 2 -16 22 26 109 l40 81 73 3 c57 2 73 6 73 18 0 11 -15 16 -63 18 l-63 3 19 32 c11 18 23 43 27 57 4 14 30 73 57 132 28 59 48 114 45 122 -13 34 -38 14 -77 -64z"/>
<path d="M7585 27830 c-15 -25 13 -30 156 -30 142 0 149 1 149 20 0 19 -7 20 -149 20 -89 0 -152 -4 -156 -10z"/>
<path d="M9605 27832 c-16 -11 -37 -72 -45 -132 -5 -30 -15 -77 -23 -105 -8 -27 -20 -77 -27 -110 -7 -33 -17 -75 -22 -93 l-10 -34 -40 38 c-37 37 -42 39 -117 42 -65 3 -85 0 -122 -18 -108 -54 -152 -142 -88 -175 61 -32 123 -31 333 8 67 12 100 35 90 61 -2 6 9 70 26 141 17 72 36 155 42 185 6 30 17 78 25 106 20 70 10 110 -22 86z m-197 -479 c17 -20 32 -39 32 -43 0 -10 -169 -40 -225 -40 -27 0 -57 5 -65 10 -25 16 8 60 70 93 47 24 62 27 105 22 41 -5 56 -13 83 -42z"/>
<path d="M8620 27509 c-69 -10 -159 -23 -200 -30 -42 -7 -206 -14 -377 -17 -290 -4 -303 -5 -303 -23 0 -18 11 -19 295 -19 200 0 327 5 393 14 53 8 142 20 197 26 123 15 227 41 233 58 5 17 -81 14 -238 -9z"/>
<path d="M6885 27510 c-16 -4 -52 -8 -80 -9 -77 -2 -125 -18 -125 -42 0 -20 4 -21 63 -15 34 4 94 11 132 17 39 5 124 13 190 17 97 6 120 10 120 22 0 13 -22 15 -135 16 -74 1 -148 -2 -165 -6z"/>
<path d="M7045 27370 c-27 -5 -89 -14 -137 -21 -74 -10 -88 -15 -88 -31 0 -21 31 -23 145 -8 39 5 108 13 154 19 81 10 116 24 105 42 -6 11 -109 10 -179 -1z"/>
<path d="M8067 27200 c-25 -20 -50 -81 -81 -200 -8 -30 -28 -109 -46 -174 -28 -106 -30 -120 -16 -134 12 -13 18 -13 30 -2 9 7 16 17 16 23 0 5 10 36 21 68 l22 59 81 0 c116 0 283 -29 324 -56 90 -62 346 -59 455 4 28 17 37 42 15 42 -7 0 -51 -11 -98 -24 -75 -20 -97 -22 -190 -16 -157 11 -184 31 -161 118 8 28 26 53 57 81 44 39 135 81 174 81 33 0 70 19 70 36 0 14 -8 16 -57 11 -85 -8 -155 -34 -210 -79 -56 -46 -93 -107 -93 -156 0 -28 -3 -33 -17 -27 -34 13 -138 25 -225 25 -49 0 -88 3 -88 8 0 4 23 23 50 42 92 64 185 142 197 165 9 17 10 31 2 54 -22 63 -174 96 -232 51z m143 -40 c22 -11 40 -27 40 -34 0 -16 -85 -91 -161 -142 l-52 -34 6 33 c3 19 15 66 27 106 28 94 61 111 140 71z"/>
<path d="M5682 27091 c-29 -17 -61 -40 -72 -53 -31 -36 -61 -126 -70 -208 -7 -65 -6 -81 12 -122 21 -50 51 -68 113 -68 26 0 42 10 80 51 l48 51 -7 -133 c-20 -399 -20 -407 -2 -434 33 -50 96 -18 96 49 l0 29 -25 -23 -25 -23 0 118 c0 66 5 167 11 225 9 82 8 135 -2 245 -14 139 -14 140 -39 140 -22 0 -26 -6 -32 -45 -18 -123 -65 -200 -120 -200 -34 0 -58 40 -58 98 0 56 34 175 59 211 54 76 181 97 181 31 0 -36 24 -57 45 -40 16 13 20 67 7 87 -12 19 -77 43 -114 43 -18 0 -57 -13 -86 -29z"/>
<path d="M10074 25909 c-4 -7 -8 -51 -9 -98 -1 -47 -8 -114 -16 -148 l-14 -63 -107 0 c-101 0 -108 -1 -108 -20 0 -19 7 -20 101 -20 l101 0 -7 -27 c-9 -36 -25 -142 -25 -170 0 -58 76 -81 130 -41 52 38 33 86 -19 49 -49 -35 -55 -29 -48 52 3 39 11 86 18 104 12 29 16 31 78 38 74 8 160 40 145 55 -5 5 -46 4 -104 -4 -52 -7 -96 -13 -97 -12 -1 1 7 40 18 86 13 54 19 110 17 155 -3 63 -5 70 -25 73 -11 2 -25 -2 -29 -9z"/>
<path d="M4605 25776 c-101 -47 -185 -172 -185 -276 0 -61 5 -72 37 -89 47 -24 124 -3 191 53 17 15 32 23 32 18 0 -5 -12 -54 -26 -108 -62 -236 -67 -260 -54 -283 6 -12 17 -21 25 -21 8 0 18 0 23 0 4 0 7 24 8 53 0 28 8 77 17 107 39 129 75 312 81 410 7 111 3 125 -41 148 -31 17 -52 15 -108 -12z m105 -45 c15 -29 12 -68 -5 -75 -8 -3 -15 -16 -15 -28 -1 -33 -39 -90 -89 -132 -45 -37 -76 -50 -108 -44 -30 6 -21 97 16 161 61 107 172 172 201 118z"/>
<path d="M10397 25393 c-37 -75 -53 -338 -31 -498 25 -185 32 -938 10 -1071 -22 -126 -56 -194 -97 -194 -42 0 -52 75 -14 110 14 13 25 27 25 32 0 14 -34 9 -67 -12 -43 -26 -52 -73 -24 -128 23 -45 46 -57 94 -47 68 15 106 75 134 211 16 78 18 139 17 509 -2 322 -6 448 -18 540 -19 142 -20 271 -4 402 13 104 26 103 27 -2 1 -72 12 -95 38 -79 11 7 19 26 21 50 4 40 -14 133 -31 169 -21 43 -61 47 -80 8z"/>
<path d="M4853 25252 c-27 -17 -37 -135 -33 -402 2 -146 3 -454 4 -685 0 -365 -2 -431 -17 -503 -10 -45 -22 -95 -28 -110 -10 -25 -11 -26 -21 -8 -7 12 -9 63 -6 137 5 125 0 152 -26 130 -24 -20 -37 -107 -30 -201 8 -99 24 -140 57 -140 60 0 94 73 118 255 16 119 18 525 5 1031 -6 236 -6 353 1 357 11 7 23 -101 23 -198 0 -56 29 -110 48 -90 14 15 -3 278 -23 349 -21 81 -39 99 -72 78z"/>
<path d="M11315 25058 c-10 -45 -47 -265 -56 -333 -5 -38 -11 -81 -15 -95 -3 -14 -16 -92 -30 -175 -13 -82 -27 -162 -31 -177 l-8 -28 -33 43 c-19 23 -42 57 -53 75 -22 38 -53 52 -113 52 -31 0 -48 -6 -64 -23 -38 -40 -71 -128 -78 -208 -6 -75 -6 -75 26 -102 41 -35 92 -36 142 -2 59 40 150 77 162 65 20 -20 55 -11 62 14 4 16 17 29 37 36 31 11 31 12 13 26 -11 7 -25 14 -32 14 -10 0 -9 13 1 58 7 31 18 98 24 147 7 50 17 110 22 135 5 25 18 104 29 175 11 72 27 165 36 208 8 42 12 86 9 97 -9 28 -43 26 -50 -2z m-268 -721 c8 -17 33 -53 55 -80 l39 -50 -54 -22 c-30 -12 -75 -35 -100 -49 -26 -15 -57 -26 -69 -24 -20 3 -23 9 -26 59 -3 61 26 157 58 189 27 27 77 15 97 -23z"/>
<path d="M11783 24978 c-5 -7 -26 -69 -47 -138 -20 -69 -58 -191 -84 -272 l-47 -147 -70 -3 c-54 -2 -70 -6 -70 -18 0 -12 15 -16 68 -18 67 -3 67 -3 60 -30 -5 -15 -8 -58 -8 -95 0 -56 3 -71 19 -83 23 -16 83 -18 120 -4 36 13 140 116 132 129 -13 20 -33 12 -96 -39 -105 -84 -145 -66 -118 55 l13 60 115 8 c114 9 220 37 220 59 0 12 -82 7 -227 -14 -45 -7 -86 -9 -90 -4 -4 4 9 57 29 119 21 62 47 146 58 187 12 41 33 110 47 152 22 64 24 80 13 93 -15 18 -25 19 -37 3z"/>
<path d="M9041 24938 c-11 -24 -48 -71 -82 -106 -38 -39 -59 -68 -55 -77 7 -19 26 -19 54 1 12 8 22 13 22 11 0 -3 -13 -42 -30 -88 -40 -112 -47 -161 -25 -182 18 -19 33 -21 53 -8 12 7 12 12 1 29 -15 23 -2 86 39 187 77 191 94 245 82 260 -21 25 -37 17 -59 -27z"/>
<path d="M6637 24853 c-12 -19 -58 -240 -77 -363 -32 -209 -42 -260 -51 -260 -5 0 -28 20 -53 44 -55 56 -105 73 -165 56 -86 -23 -123 -107 -68 -153 19 -17 36 -19 132 -15 l110 3 11 -35 c23 -71 68 -67 78 8 7 55 16 66 62 75 24 5 36 1 49 -13 27 -30 75 -25 151 16 l67 35 -7 -33 c-4 -18 -11 -62 -16 -98 -5 -36 -16 -100 -25 -143 -8 -43 -15 -98 -15 -122 0 -24 -4 -66 -9 -92 -6 -26 -12 -80 -16 -119 -5 -59 -3 -75 11 -88 20 -21 53 -17 68 7 9 14 7 21 -8 32 -21 16 -21 4 9 255 8 69 26 188 40 265 14 77 28 156 32 175 3 19 12 44 19 55 39 56 4 95 -85 95 -102 0 -201 -60 -216 -132 -4 -18 -12 -39 -17 -45 -12 -15 -68 -18 -68 -4 0 28 63 400 81 478 12 50 19 99 16 107 -7 16 -32 22 -40 9z m264 -461 c42 -18 -53 -117 -146 -152 -41 -16 -45 -13 -41 31 5 50 27 75 91 105 53 24 70 27 96 16z m-498 -133 c20 -17 35 -34 32 -39 -8 -13 -109 -23 -150 -16 -43 8 -47 35 -9 65 39 30 82 27 127 -10z"/>
<path d="M5573 24823 c-3 -10 -24 -39 -45 -64 -37 -46 -43 -79 -13 -79 10 0 11 -8 3 -37 -17 -64 -31 -180 -25 -198 4 -10 15 -15 29 -13 21 3 24 10 30 78 7 85 14 114 53 222 15 43 25 84 22 93 -9 21 -46 19 -54 -2z"/>
<path d="M8655 24730 c-11 -5 -64 -9 -117 -9 -91 -1 -98 -2 -98 -21 0 -19 7 -20 105 -20 129 0 207 15 203 38 -4 19 -60 27 -93 12z"/>
<path d="M5877 24414 c-3 -4 -84 -10 -179 -15 -196 -9 -351 -24 -367 -34 -13 -7 -14 -32 -2 -39 4 -3 59 1 122 8 63 8 173 17 244 21 154 7 235 21 235 40 0 18 -39 33 -53 19z"/>
<path d="M7846 24393 c-4 -4 -64 -10 -134 -13 -104 -4 -127 -8 -127 -20 0 -12 20 -16 105 -18 140 -4 272 14 268 37 -2 12 -16 17 -53 19 -28 2 -54 -1 -59 -5z"/>
<path d="M9155 24364 c-60 -8 -237 -17 -392 -20 -275 -6 -283 -7 -283 -26 0 -20 5 -20 318 -15 245 3 336 9 402 22 93 19 124 31 115 46 -7 11 -19 10 -160 -7z"/>
<path d="M7805 24230 c-16 -4 -51 -8 -77 -9 -42 -1 -48 -4 -48 -22 0 -21 3 -22 93 -16 100 6 178 25 185 45 4 14 -101 15 -153 2z"/>
<path d="M5502 24194 c-63 -38 -112 -120 -125 -211 -12 -86 -3 -103 53 -103 34 0 45 7 105 72 l68 72 -7 -45 c-8 -48 -19 -154 -35 -326 -6 -61 -18 -141 -26 -178 -16 -68 -14 -85 10 -85 37 0 55 90 85 410 6 63 18 149 26 190 18 85 12 191 -13 215 -23 24 -92 18 -141 -11z m103 -28 c22 -16 17 -30 -31 -96 -40 -55 -124 -140 -138 -140 -3 0 -6 19 -6 43 0 58 53 150 106 182 46 29 45 29 69 11z"/>
<path d="M8735 24117 c-46 -26 -99 -106 -109 -164 -3 -21 -17 -101 -31 -178 -29 -164 -30 -188 -10 -205 30 -25 47 11 75 155 6 33 16 78 22 100 6 22 12 69 12 105 1 48 7 74 23 100 27 44 48 57 107 65 60 9 86 -11 86 -64 -1 -49 -14 -68 -97 -146 -75 -69 -89 -99 -58 -125 21 -17 134 -33 260 -36 61 -1 123 -7 138 -13 57 -22 255 -8 337 25 27 11 40 22 40 35 0 24 -23 24 -81 3 -25 -9 -92 -18 -156 -21 -136 -7 -148 -1 -138 65 14 95 139 251 191 238 13 -3 35 -9 49 -12 21 -5 25 -3 25 15 0 22 -44 51 -80 51 -39 0 -95 -38 -140 -94 -70 -88 -100 -150 -100 -211 l0 -51 -72 8 c-133 14 -228 30 -228 38 0 4 31 35 69 69 83 74 106 120 92 184 -15 64 -48 87 -124 87 -46 0 -73 -6 -102 -23z"/>
<path d="M10175 23249 c-50 -19 -135 -110 -135 -146 -1 -5 -5 -24 -9 -43 -22 -88 -22 -124 1 -170 18 -36 31 -48 65 -59 55 -20 80 -8 133 63 78 104 117 281 72 336 -21 25 -83 35 -127 19z m91 -66 c16 -63 -35 -214 -96 -280 -36 -40 -52 -41 -80 -5 -19 24 -21 35 -16 91 3 36 10 69 16 75 5 5 10 20 10 33 0 25 53 91 84 103 12 5 33 9 48 9 22 1 29 -5 34 -26z"/>
<path d="M4533 23122 c-57 -30 -176 -136 -205 -181 -45 -71 -36 -121 21 -121 28 0 152 65 219 114 48 35 62 42 57 27 -3 -10 -12 -77 -20 -148 -26 -238 -35 -298 -55 -388 -33 -140 -36 -174 -16 -181 23 -9 46 13 46 44 0 13 4 41 9 61 26 100 81 468 81 543 0 33 14 77 42 132 17 33 -88 119 -142 116 -3 -1 -19 -9 -37 -18z m96 -46 c48 -26 55 -41 29 -68 -13 -12 -33 -22 -44 -20 -11 2 -73 -25 -137 -58 -121 -64 -138 -64 -94 -2 31 45 175 162 199 162 10 0 31 -6 47 -14z"/>
<path d="M4843 22530 c-23 -5 -55 -16 -72 -24 -64 -34 -93 -92 -51 -103 14 -4 20 -14 20 -34 0 -21 7 -32 24 -40 52 -24 121 21 170 112 l28 53 -26 23 c-29 25 -30 25 -93 13z m35 -81 c-20 -37 -65 -79 -83 -79 -3 0 -3 10 1 22 4 13 7 35 6 50 -1 22 5 29 26 34 15 3 32 7 37 9 32 11 35 3 13 -36z"/>
<path d="M13396 21938 c-3 -13 -8 -48 -11 -78 -4 -30 -17 -82 -30 -115 -13 -33 -27 -72 -30 -86 -6 -22 -14 -27 -52 -33 -25 -3 -61 -6 -80 -6 -27 0 -34 -4 -31 -17 3 -15 16 -19 72 -21 l68 -3 -7 -108 c-9 -145 3 -171 83 -171 49 0 90 23 103 58 16 43 -5 48 -49 12 -30 -24 -46 -30 -62 -25 -22 7 -22 10 -18 121 2 62 7 116 9 119 3 2 58 8 121 11 64 4 123 11 130 15 27 18 -18 29 -124 29 -119 0 -123 3 -93 59 18 36 55 173 55 205 0 37 -10 56 -31 56 -11 0 -20 -9 -23 -22z"/>
<path d="M12815 21767 c-8 -19 2 -1676 10 -1759 8 -81 27 -105 56 -69 22 27 25 61 7 79 -10 10 -14 206 -18 885 l-5 872 -23 3 c-12 2 -24 -3 -27 -11z"/>
<path d="M7383 21719 c-41 -20 -86 -68 -112 -116 -18 -35 -16 -126 4 -156 20 -32 74 -67 102 -67 32 0 101 56 124 102 l22 43 9 -30 c5 -16 14 -106 19 -200 13 -232 22 -338 32 -352 9 -14 43 -18 50 -5 2 4 1 36 -4 72 -4 36 -12 151 -18 255 -10 159 -16 208 -42 301 -23 84 -38 118 -58 138 -38 36 -77 41 -128 15z m97 -42 c22 -17 12 -109 -17 -162 -20 -38 -71 -85 -92 -85 -5 0 -21 14 -36 32 -23 27 -26 39 -22 75 10 96 114 182 167 140z"/>
<path d="M6980 21705 c-8 -9 -10 -29 -6 -52 6 -38 17 -243 36 -698 5 -137 15 -315 20 -395 6 -80 14 -265 17 -412 4 -211 8 -270 19 -279 11 -9 18 -8 29 1 12 10 15 40 14 159 0 80 -4 200 -9 266 -4 66 -17 323 -28 570 -38 820 -41 855 -72 855 -4 0 -13 -7 -20 -15z"/>
<path d="M10372 21548 c-7 -7 -12 -16 -12 -20 0 -17 -99 -154 -139 -193 -43 -41 -54 -75 -24 -75 10 0 37 19 61 43 44 41 44 42 38 13 -4 -15 -9 -42 -12 -60 -3 -17 -12 -51 -19 -76 -18 -62 -43 -176 -51 -232 -6 -43 -4 -48 13 -48 22 0 39 28 48 80 23 125 108 449 135 515 9 22 15 46 13 53 -6 15 -35 16 -51 0z"/>
<path d="M12214 21425 c-4 -8 -1 -22 6 -30 25 -30 -4 -248 -59 -452 l-12 -43 -64 0 c-58 0 -65 -2 -65 -20 0 -18 7 -20 61 -20 61 0 61 0 54 -27 -10 -39 -25 -143 -25 -175 0 -36 25 -58 66 -58 45 0 65 11 96 52 61 80 38 106 -33 38 -62 -59 -73 -55 -66 28 4 37 11 84 17 105 9 32 15 37 40 37 32 0 156 42 173 59 16 16 -54 14 -128 -3 -33 -8 -61 -13 -63 -12 -1 2 9 50 22 107 28 116 56 293 56 349 0 19 -7 46 -16 58 -17 25 -52 29 -60 7z"/>
<path d="M5238 21363 c-51 -55 -110 -171 -154 -305 -23 -70 -44 -118 -51 -118 -7 0 -13 -9 -13 -20 0 -11 5 -20 11 -20 7 0 9 -10 4 -27 -15 -59 -22 -149 -12 -176 11 -32 53 -57 97 -57 38 0 144 59 264 147 49 36 86 58 83 50 -3 -7 -8 -39 -12 -71 -13 -104 31 -114 125 -30 56 50 181 146 219 169 11 6 12 -7 6 -79 -10 -120 -4 -126 119 -126 82 0 94 3 121 25 l30 24 -80 -5 c-44 -3 -93 -1 -110 4 -32 9 -32 9 -20 107 15 111 -29 133 -131 66 -80 -52 -174 -126 -191 -151 -36 -52 -43 -8 -13 90 11 36 17 73 14 83 -8 25 -35 21 -66 -11 -73 -78 -318 -242 -361 -242 -48 0 -55 26 -36 139 10 58 17 71 54 106 53 50 85 101 135 216 32 74 60 172 60 210 0 12 -30 39 -44 39 -6 0 -28 -17 -48 -37z m27 -75 c-21 -76 -122 -284 -132 -274 -14 14 77 229 120 284 14 18 19 15 12 -10z"/>
<path d="M6451 20976 c-32 -34 -80 -183 -93 -290 -10 -87 -10 -90 12 -108 12 -10 35 -18 50 -18 36 0 127 68 158 118 20 31 23 33 18 11 -3 -14 -10 -59 -16 -100 -6 -41 -15 -90 -20 -109 -14 -52 -38 -214 -45 -306 -6 -64 -4 -87 9 -112 18 -35 50 -49 71 -32 22 19 19 50 -5 50 -36 0 -28 114 30 420 62 334 64 391 11 377 -17 -4 -21 -1 -21 19 0 33 -25 81 -49 94 -35 18 -86 12 -110 -14z m97 -53 c5 -16 14 -53 20 -83 11 -60 1 -97 -38 -147 -26 -33 -91 -82 -109 -83 -32 0 10 214 61 318 16 32 53 29 66 -5z"/>
<path d="M8304 20866 c-3 -9 0 -24 7 -32 13 -16 83 -16 304 -1 11 0 30 -2 43 -7 30 -10 43 21 16 41 -15 12 -36 13 -99 8 -111 -10 -216 -10 -242 -1 -17 6 -24 4 -29 -8z"/>
<path d="M11534 20835 c-7 -27 10 -55 32 -55 19 0 46 44 38 64 -4 10 -17 16 -35 16 -22 0 -30 -6 -35 -25z"/>
<path d="M10610 20809 c-142 -17 -290 -29 -360 -29 -105 0 -190 -19 -190 -42 0 -10 6 -18 13 -18 101 3 765 58 791 66 19 6 19 7 1 20 -21 15 -143 17 -255 3z"/>
<path d="M9200 20740 c0 -19 7 -20 158 -20 155 0 204 9 172 30 -8 5 -86 10 -172 10 -151 0 -158 -1 -158 -20z"/>
<path d="M8520 20690 c-14 -4 -82 -8 -152 -9 -121 -1 -128 -2 -128 -21 0 -19 7 -20 138 -20 188 0 292 18 292 51 0 11 -116 10 -150 -1z"/>
<path d="M10385 20626 c-33 -14 -75 -69 -100 -130 -28 -66 -46 -173 -56 -321 -5 -77 -12 -159 -15 -183 -6 -44 6 -72 32 -72 19 0 44 64 44 111 0 21 5 61 11 88 10 47 12 50 31 40 69 -37 294 -52 336 -23 12 8 22 18 22 22 0 4 -49 8 -108 8 -60 1 -124 6 -143 12 -19 6 -47 13 -63 17 -28 6 -28 6 -10 27 11 11 37 29 59 40 47 25 151 122 172 162 10 20 13 42 8 80 -6 43 -14 58 -51 94 -40 38 -49 42 -92 42 -26 -1 -61 -7 -77 -14z m134 -65 c27 -25 31 -36 31 -79 0 -48 -2 -52 -61 -106 -33 -31 -75 -63 -92 -72 -18 -9 -40 -23 -49 -32 -23 -20 -23 -10 1 93 14 56 16 84 9 92 -6 7 -14 10 -19 7 -14 -8 -11 3 10 44 32 61 57 82 100 82 29 0 47 -7 70 -29z"/>
<path d="M10864 20630 c-57 -23 -129 -158 -144 -270 -21 -156 -22 -178 -11 -213 21 -64 103 -107 202 -107 98 0 258 74 267 124 3 15 -2 14 -46 -8 -185 -94 -349 -85 -375 21 -10 44 28 248 58 304 59 115 79 128 143 89 38 -23 58 -25 65 -7 8 21 -5 34 -53 56 -48 22 -73 25 -106 11z"/>
<path d="M1285 20200 c-8 -12 20 -24 35 -15 6 3 8 11 5 16 -8 12 -32 12 -40 -1z"/>
<path d="M13195 20185 c-61 -29 -83 -57 -93 -117 -19 -123 50 -166 154 -95 66 45 84 72 86 136 2 45 -1 56 -21 72 -27 22 -83 24 -126 4z m95 -73 c0 -44 -11 -61 -59 -97 -62 -45 -90 -25 -76 55 8 46 51 80 103 80 31 0 32 -2 32 -38z"/>
<path d="M7360 20158 c-58 -40 -108 -125 -120 -207 -10 -62 -9 -75 4 -96 24 -36 63 -42 108 -17 l38 20 0 -162 c0 -170 8 -206 48 -206 16 0 17 18 14 216 -4 234 0 286 23 278 33 -13 47 79 21 141 -25 58 -79 71 -136 33z m84 -44 c11 -29 6 -52 -13 -57 -13 -3 -21 -18 -26 -48 -9 -56 -28 -92 -61 -118 -42 -33 -54 -28 -54 27 0 106 127 267 154 196z"/>
<path d="M7555 19623 c-4 -10 -11 -45 -15 -77 -7 -48 -6 -67 7 -94 21 -45 67 -72 122 -72 35 0 49 6 75 33 27 26 34 43 40 91 11 101 -34 137 -119 96 -49 -24 -59 -22 -60 13 0 28 -39 36 -50 10z m173 -109 c-7 -87 -58 -113 -115 -61 -18 16 -23 31 -23 66 1 40 2 44 14 29 17 -23 34 -23 71 2 50 33 58 28 53 -36z"/>
<path d="M12067 18251 l-72 -150 -47 0 c-41 -1 -48 -4 -48 -21 0 -16 7 -20 35 -20 41 0 42 -7 15 -61 -11 -21 -25 -62 -30 -90 -22 -117 63 -162 196 -103 64 28 74 37 74 72 0 23 -14 30 -26 11 -12 -19 -118 -62 -149 -60 -56 3 -60 50 -12 157 l32 74 85 0 c112 0 305 19 339 32 26 11 26 11 -14 20 -22 5 -76 7 -120 4 -44 -4 -124 -9 -178 -12 l-99 -7 66 131 c71 141 79 172 46 172 -16 0 -35 -30 -93 -149z"/>
<path d="M8116 18151 c-40 -40 -53 -64 -81 -147 -19 -55 -35 -119 -35 -144 0 -69 -18 -118 -50 -142 -17 -12 -30 -28 -30 -35 0 -20 28 -27 45 -13 13 11 15 6 15 -36 0 -51 27 -119 59 -148 10 -9 35 -20 55 -23 36 -6 40 -3 135 93 53 54 121 126 150 159 l52 60 -6 -50 c-4 -27 -13 -74 -21 -104 -15 -58 -8 -81 26 -81 9 0 68 50 131 111 156 152 149 151 149 35 0 -90 1 -96 26 -115 52 -41 124 -35 164 15 13 15 11 16 -37 9 -90 -12 -93 -8 -93 100 0 110 -10 145 -41 145 -34 0 -106 -52 -183 -130 -38 -39 -71 -68 -74 -66 -2 3 2 35 9 71 15 77 6 118 -29 123 -23 4 -77 -47 -226 -212 -44 -48 -90 -95 -103 -103 -21 -14 -25 -14 -43 2 -34 31 -54 99 -46 162 5 47 14 65 50 107 115 136 194 365 137 396 -35 18 -56 11 -105 -39z m70 -40 c-7 -47 -84 -215 -114 -251 l-21 -25 6 40 c11 76 63 209 96 243 17 17 33 32 35 32 3 0 2 -18 -2 -39z"/>
<path d="M5111 18143 c-116 -98 -246 -513 -202 -646 20 -59 46 -85 96 -92 86 -13 155 34 255 175 22 30 64 82 94 115 l55 60 0 -35 c0 -34 -7 -72 -28 -155 -10 -41 -1 -65 24 -65 6 0 46 42 88 93 43 52 108 122 145 157 l67 64 3 -40 c6 -71 41 -172 68 -193 32 -25 124 -45 167 -36 41 9 125 57 109 63 -7 2 -33 -1 -57 -7 -55 -14 -113 -14 -153 0 -40 14 -58 54 -71 157 -6 46 -13 87 -16 93 -8 13 -56 11 -82 -4 -28 -16 -139 -122 -181 -172 l-32 -40 5 60 c8 78 -4 119 -35 123 -28 5 -116 -79 -197 -188 -112 -150 -171 -195 -231 -176 -27 9 -46 60 -46 123 0 47 4 57 36 90 42 45 122 167 154 238 29 62 50 220 33 241 -16 19 -42 18 -68 -3z m9 -134 c-6 -35 -19 -77 -27 -94 -25 -49 -106 -175 -110 -171 -8 8 77 241 97 265 11 15 25 36 32 49 18 35 20 20 8 -49z"/>
<path d="M9213 17938 c-42 -47 -72 -117 -102 -237 -38 -150 -39 -184 -9 -205 33 -23 58 -20 112 15 l48 30 -5 -58 c-3 -32 -10 -108 -17 -168 -10 -91 -10 -119 1 -159 15 -52 36 -73 62 -63 15 5 15 10 2 41 -17 40 -20 150 -6 240 5 34 15 108 22 166 6 58 21 125 31 150 31 70 38 108 22 121 -8 6 -21 9 -29 5 -12 -4 -15 5 -15 54 0 50 -4 61 -22 74 -32 23 -71 20 -95 -6z m57 -118 c0 -52 5 -98 12 -109 10 -16 6 -28 -25 -74 -40 -59 -90 -107 -113 -107 -8 0 -14 3 -14 8 0 12 57 246 66 267 14 38 56 105 65 105 5 0 9 -41 9 -90z"/>
<path d="M6500 17843 c-46 -52 -60 -92 -63 -182 -2 -86 14 -121 58 -121 21 0 65 40 99 90 l17 25 -5 -35 c-8 -54 -44 -282 -65 -420 -26 -164 -39 -463 -21 -485 38 -46 82 8 60 74 -25 76 -6 298 55 651 8 47 20 131 26 186 11 90 14 101 31 96 24 -6 35 24 15 46 -8 9 -24 36 -35 58 -24 47 -36 54 -97 54 -37 0 -47 -5 -75 -37z m103 -15 c14 -12 13 -20 -20 -95 -20 -46 -49 -97 -64 -115 l-28 -33 -1 60 c0 75 11 115 45 160 29 38 42 42 68 23z"/>
<path d="M10380 17779 c-19 -6 -84 -13 -145 -17 -88 -6 -110 -10 -110 -22 0 -24 253 -20 318 4 58 23 63 46 10 45 -21 -1 -54 -5 -73 -10z"/>
<path d="M11120 17683 c0 -37 46 -46 213 -41 152 5 213 17 204 41 -3 8 -21 11 -63 7 -93 -7 -254 -5 -306 4 -44 8 -48 7 -48 -11z"/>
<path d="M12250 17689 c-25 -4 -94 -8 -154 -8 -61 -1 -136 -6 -167 -13 -44 -9 -67 -9 -96 0 -31 9 -40 9 -52 -3 -12 -12 -12 -16 0 -31 15 -19 18 -19 494 11 132 8 282 15 333 15 85 0 92 1 92 20 0 19 -6 20 -202 19 -112 -1 -223 -5 -248 -10z"/>
<path d="M10140 17620 c0 -20 4 -20 188 -18 158 3 187 5 187 18 0 13 -29 15 -187 18 -184 2 -188 2 -188 -18z"/>
<path d="M7145 17621 c-66 -3 -126 -10 -132 -14 -7 -5 -13 -17 -13 -29 0 -19 4 -20 43 -13 23 4 96 10 162 15 129 8 155 14 155 36 0 15 2 15 -215 5z"/>
<path d="M11929 17431 c-50 -31 -100 -87 -125 -139 -26 -56 -62 -216 -69 -315 -6 -79 -5 -95 9 -106 28 -24 43 3 51 88 l7 79 56 -25 c32 -14 118 -41 192 -60 129 -33 186 -36 177 -10 -3 11 -50 27 -202 67 -100 26 -165 50 -165 61 0 4 20 17 44 29 75 38 170 116 195 161 42 74 21 167 -42 189 -48 16 -80 12 -128 -19z m125 -43 c36 -50 9 -113 -76 -179 -59 -45 -158 -103 -158 -91 0 48 36 162 63 200 61 84 139 116 171 70z"/>
<path d="M12445 17446 c-16 -7 -55 -37 -85 -67 -48 -47 -58 -64 -78 -129 -45 -155 -25 -214 96 -271 62 -30 76 -33 195 -37 143 -5 200 8 237 55 36 45 25 55 -31 27 -78 -40 -101 -43 -217 -35 -119 9 -191 36 -232 88 -25 32 -24 59 5 157 28 94 119 180 189 178 35 -1 46 -15 46 -63 0 -44 22 -68 45 -49 30 25 7 139 -30 154 -28 10 -109 6 -140 -8z"/>
<path d="M9599 17406 c-54 -14 -123 -65 -144 -107 -22 -41 -19 -105 5 -129 11 -11 20 -31 20 -44 0 -41 43 -66 113 -66 55 0 62 2 93 36 51 54 84 116 91 172 8 73 -1 99 -45 120 -55 28 -82 32 -133 18z m96 -50 c33 -14 35 -18 35 -61 0 -25 -6 -60 -14 -78 -20 -45 -77 -107 -101 -109 -77 -6 -94 12 -76 79 9 30 8 41 -4 52 -12 12 -16 12 -31 0 -33 -27 -5 33 34 74 52 53 100 66 157 43z"/>
<path d="M7458 15964 c-47 -25 -129 -215 -142 -326 -12 -105 77 -107 173 -3 l42 46 -6 -38 c-4 -21 -15 -69 -25 -108 -20 -76 -36 -250 -26 -283 4 -11 13 -23 21 -26 35 -13 40 2 40 117 0 109 11 173 59 352 32 116 39 174 26 191 -8 8 -21 13 -31 11 -12 -3 -21 4 -30 25 -12 29 -44 58 -64 58 -5 -1 -22 -7 -37 -16z m67 -131 c7 -48 5 -55 -30 -107 -32 -49 -101 -116 -119 -116 -31 0 52 246 102 303 15 17 16 17 28 -5 7 -13 16 -46 19 -75z"/>
<path d="M11259 15913 c-3 -28 -15 -60 -80 -204 l-73 -162 -83 7 c-77 6 -83 5 -83 -13 0 -23 10 -27 83 -36 32 -4 57 -9 57 -11 0 -3 -9 -32 -21 -66 -26 -78 -22 -118 12 -137 22 -12 34 -13 67 -3 59 18 139 84 147 122 4 17 5 34 2 37 -3 2 -35 -20 -70 -50 -109 -92 -139 -88 -106 13 12 36 23 71 25 78 2 9 42 12 151 12 147 0 195 9 163 30 -8 5 -75 10 -147 10 -73 0 -133 2 -133 5 0 6 82 197 114 265 14 30 26 67 26 83 0 22 -4 27 -25 27 -14 0 -25 -3 -26 -7z"/>
<path d="M5562 15655 c-69 -76 -117 -167 -170 -321 -32 -95 -40 -110 -53 -101 -25 16 -47 1 -54 -37 -8 -41 -1 -56 26 -56 22 0 23 -5 4 -90 -33 -151 -15 -200 76 -207 50 -4 61 0 139 44 60 34 111 74 173 137 88 88 88 88 81 50 -3 -22 -12 -63 -20 -92 -16 -63 -10 -82 23 -82 17 0 42 18 81 59 81 83 221 211 232 211 6 0 10 -43 10 -99 0 -134 9 -145 117 -149 74 -3 81 -1 132 30 94 57 79 74 -30 35 -46 -16 -77 -21 -109 -17 l-45 5 -5 123 c-5 123 -11 141 -46 142 -19 0 -81 -46 -187 -141 -105 -95 -123 -100 -98 -27 12 34 14 88 5 112 -12 32 -46 16 -107 -51 -100 -110 -148 -151 -228 -198 -79 -47 -127 -57 -148 -31 -14 16 -9 61 19 193 l18 83 112 117 c97 101 119 131 158 210 47 98 63 172 42 198 -7 9 -29 15 -50 15 -34 0 -45 -7 -98 -65z m102 -12 c-16 -69 -84 -192 -143 -261 -35 -40 -65 -71 -68 -68 -8 7 23 99 57 168 59 121 172 239 154 161z"/>
<path d="M10250 15178 c-30 -5 -90 -7 -132 -4 -73 5 -78 4 -78 -15 0 -30 44 -42 137 -36 82 5 141 26 151 55 4 14 -1 14 -78 0z"/>
<path d="M8964 15166 c-4 -9 -4 -19 -2 -22 13 -13 137 -24 264 -24 112 0 144 3 154 15 16 19 -2 22 -170 30 -74 3 -159 8 -187 11 -43 5 -54 3 -59 -10z"/>
<path d="M11620 15149 c-36 -4 -139 -12 -230 -18 -91 -7 -199 -16 -240 -21 -41 -5 -100 -12 -131 -15 -64 -7 -101 -27 -83 -45 8 -8 37 -8 110 0 104 12 212 22 429 39 196 15 320 40 275 55 -32 10 -67 11 -130 5z"/>
<path d="M7970 15125 c-207 -28 -474 -45 -718 -45 -250 0 -252 0 -252 -21 0 -21 0 -21 378 -16 265 3 412 10 497 21 66 9 160 21 209 26 92 9 124 23 96 40 -20 13 -93 11 -210 -5z"/>
<path d="M9255 15003 c-33 -1 -99 -8 -147 -15 -76 -10 -88 -15 -88 -31 0 -18 6 -19 108 -13 181 12 291 34 277 56 -3 5 -25 9 -48 8 -23 -1 -69 -3 -102 -5z"/>
<path d="M11102 14879 c-28 -14 -51 -36 -68 -65 -27 -46 -34 -94 -55 -372 -12 -160 -9 -177 27 -170 15 3 20 15 24 65 3 34 8 64 11 67 3 4 18 2 33 -4 100 -38 441 -53 441 -20 0 12 -28 17 -145 26 -80 7 -167 15 -195 19 -57 9 -115 31 -115 44 0 5 24 20 53 34 28 15 77 45 107 67 156 115 180 144 180 217 -1 44 -12 63 -60 92 -50 30 -177 30 -238 0z m218 -48 c36 -27 33 -82 -6 -122 -35 -37 -202 -155 -238 -169 -25 -9 -26 -8 -21 18 10 45 27 105 41 145 15 41 12 57 -12 57 -22 0 -17 16 15 52 23 26 39 34 82 39 70 9 108 3 139 -20z"/>
<path d="M7536 14830 c-81 -25 -160 -155 -180 -297 -7 -51 11 -73 60 -73 39 0 68 12 102 43 21 20 22 20 22 1 -1 -10 -5 -39 -10 -64 -20 -97 -49 -342 -56 -471 -6 -119 -5 -137 10 -152 21 -21 30 -21 50 -1 18 17 22 74 6 74 -13 0 -13 142 1 240 5 41 14 107 19 145 19 156 44 282 61 321 11 22 19 50 19 61 0 11 7 37 15 57 16 37 15 38 -15 77 -18 21 -35 39 -40 39 -5 0 -14 2 -22 4 -7 2 -26 0 -42 -4z m58 -55 c3 -9 -4 -47 -16 -85 -17 -53 -33 -82 -73 -124 -53 -58 -95 -74 -95 -37 0 22 34 131 50 162 40 74 119 123 134 84z"/>
<path d="M11726 14790 c-66 -50 -146 -176 -160 -250 -13 -73 -9 -159 8 -185 42 -64 126 -85 235 -59 83 20 205 83 209 108 4 21 -3 20 -128 -29 -47 -19 -102 -37 -122 -40 -88 -16 -158 26 -158 96 0 64 21 141 53 198 32 58 106 141 125 141 6 0 25 -15 41 -32 28 -30 32 -32 47 -17 21 21 6 52 -39 79 -43 27 -65 25 -111 -10z"/>
<path d="M7870 14180 c-49 -26 -80 -57 -97 -97 -13 -31 -12 -38 3 -61 11 -16 17 -42 15 -63 -3 -46 33 -91 72 -91 69 0 164 95 203 204 20 56 18 75 -11 103 -21 21 -33 25 -87 25 -42 -1 -75 -7 -98 -20z m152 -70 c-4 -51 -60 -137 -111 -170 -24 -16 -48 -27 -52 -24 -27 17 8 203 42 225 8 5 39 8 69 7 l55 -3 -3 -35z"/>
<path d="M11222 12551 c-8 -5 -19 -49 -28 -107 -7 -54 -19 -126 -27 -159 l-13 -60 -87 -3 c-79 -3 -87 -5 -87 -22 0 -18 7 -20 81 -20 l82 0 -6 -37 c-26 -163 -28 -183 -17 -203 30 -56 210 12 210 79 0 20 -29 11 -84 -24 -30 -19 -60 -35 -67 -35 -13 0 -8 81 11 168 l12 52 74 0 c72 0 134 16 148 39 5 7 -25 9 -104 4 -60 -3 -110 -3 -110 2 0 4 9 44 19 89 22 91 31 237 16 242 -5 2 -16 0 -23 -5z"/>
<path d="M11672 12518 c-44 -65 -49 -77 -118 -276 -88 -252 -178 -563 -197 -677 -3 -17 -2 -37 2 -44 14 -21 46 -9 49 19 7 74 114 443 196 681 65 188 84 233 119 281 21 28 17 58 -7 58 -8 0 -28 -19 -44 -42z"/>
<path d="M11860 12166 c-70 -26 -121 -64 -160 -119 -51 -71 -62 -102 -89 -262 -13 -71 -27 -140 -32 -152 -21 -55 30 -75 54 -20 8 17 20 53 27 80 13 47 23 57 36 36 13 -21 89 -47 174 -58 47 -7 103 -16 125 -21 25 -5 46 -5 59 2 19 10 19 11 1 24 -24 18 -81 34 -120 34 -41 0 -157 25 -183 39 -46 25 -11 85 103 177 128 103 168 170 142 237 -8 21 -84 23 -137 3z m90 -51 c0 -25 -33 -70 -81 -111 -26 -21 -70 -58 -98 -82 -28 -24 -51 -40 -51 -36 0 3 12 29 27 56 25 46 26 51 11 62 -16 12 -15 15 10 44 52 60 182 108 182 67z"/>
<path d="M12393 12152 c-32 -5 -102 -92 -156 -192 -54 -102 -76 -165 -79 -225 -1 -39 3 -51 32 -80 46 -48 107 -59 290 -52 159 5 206 15 247 52 25 22 26 24 8 25 -11 0 -67 -9 -125 -20 -108 -21 -266 -20 -337 1 -45 14 -66 51 -58 102 14 82 163 347 196 347 5 0 14 -11 19 -24 12 -34 31 -42 46 -22 14 19 9 41 -13 68 -16 19 -39 25 -70 20z"/>
<path d="M6037 12113 c-57 -41 -157 -255 -157 -336 0 -41 41 -84 88 -93 43 -9 114 19 164 64 l39 35 -6 -44 c-4 -24 -10 -64 -15 -89 -5 -25 -12 -118 -16 -207 -6 -146 -5 -163 10 -169 37 -14 43 10 49 179 5 176 40 409 79 530 20 63 21 69 5 84 -22 22 -42 5 -53 -45 -8 -37 -8 -37 -15 23 -8 72 -31 95 -93 95 -29 0 -53 -8 -79 -27z m113 -99 c0 -50 -6 -90 -20 -125 -14 -35 -17 -55 -10 -63 18 -22 -80 -96 -127 -96 -10 0 -29 7 -41 16 -27 19 -25 42 15 144 56 145 109 212 157 203 25 -5 26 -8 26 -79z"/>
<path d="M10300 12020 c0 -19 7 -20 178 -20 174 0 225 8 192 30 -8 5 -93 10 -192 10 -171 0 -178 -1 -178 -20z"/>
<path d="M9820 11438 c-112 -42 -217 -148 -255 -257 -41 -116 -32 -170 36 -217 68 -47 168 -56 323 -29 98 17 137 32 181 68 42 35 24 44 -38 19 -123 -50 -342 -68 -407 -33 -51 27 -72 60 -64 99 6 27 11 32 36 32 69 0 301 155 349 234 23 38 25 92 3 100 -31 12 -110 5 -164 -16z m119 -50 c-14 -29 -68 -77 -139 -126 -74 -51 -170 -105 -176 -99 -14 13 32 83 93 144 70 71 128 100 201 102 31 1 32 0 21 -21z"/>
<path d="M8080 11400 c0 -20 4 -20 233 -18 198 3 232 5 232 18 0 13 -34 15 -232 18 -229 2 -233 2 -233 -18z"/>
<path d="M8255 11289 c-67 -15 -95 -30 -95 -50 0 -23 20 -24 75 -5 22 8 99 17 170 21 132 8 175 16 175 35 0 13 -268 12 -325 -1z"/>
<path d="M6570 11159 c-306 -11 -531 -27 -709 -50 -159 -19 -201 -30 -201 -49 0 -23 23 -22 265 11 92 12 342 27 642 38 133 5 247 12 253 16 5 3 10 15 10 26 0 15 -6 19 -32 17 -18 -1 -121 -5 -228 -9z"/>
<path d="M6192 10864 c-99 -51 -212 -253 -212 -380 0 -47 17 -64 65 -64 48 0 146 62 183 116 13 20 26 34 28 31 3 -2 -11 -65 -29 -138 -50 -196 -88 -473 -73 -532 3 -14 15 -27 26 -30 27 -7 70 29 70 59 0 26 -9 31 -28 12 -37 -37 12 311 78 557 22 83 45 169 52 193 10 41 12 42 30 26 14 -13 21 -15 30 -6 16 16 -29 119 -64 145 -36 27 -114 32 -156 11z m135 -59 c21 -18 24 -24 12 -25 -18 0 -45 -35 -54 -71 -19 -71 -185 -239 -237 -239 -18 0 -19 5 -13 43 4 23 28 87 54 142 36 75 59 110 91 138 54 46 104 50 147 12z"/>
<path d="M6600 10269 c-32 -13 -87 -66 -106 -102 -14 -26 -13 -49 1 -123 5 -24 43 -44 83 -44 59 0 182 146 182 216 0 40 -33 64 -87 63 -27 0 -59 -5 -73 -10z m110 -49 c0 -49 -103 -170 -144 -170 -36 0 -11 127 31 160 27 21 113 29 113 10z"/>
<path d="M13506 9553 c-4 -5 -238 -11 -519 -15 -282 -4 -604 -12 -717 -17 -113 -6 -315 -15 -450 -21 -135 -5 -299 -15 -365 -21 -80 -8 -835 -14 -2280 -19 -1451 -5 -2282 -12 -2530 -21 -203 -7 -549 -13 -767 -13 l-398 -1 -9 -50 c-24 -125 -34 -463 -41 -1335 -7 -940 -8 -963 -43 -1008 -18 -23 6 -31 123 -36 572 -26 819 -29 2165 -28 2357 1 4626 23 5295 52 398 17 890 23 890 11 0 -6 12 -11 27 -11 l26 0 -7 123 c-3 67 -12 140 -19 162 -25 81 -10 1246 23 1790 5 83 12 197 16 255 5 90 4 107 -10 119 -33 28 -42 -1 -50 -156 -3 -82 -11 -215 -16 -298 -15 -213 -30 -703 -37 -1170 -5 -377 -4 -407 16 -517 12 -64 21 -146 21 -182 l0 -65 -347 -5 c-192 -3 -463 -10 -603 -16 -1016 -41 -6080 -72 -6875 -42 -558 22 -576 23 -569 34 21 33 27 227 35 1088 5 525 12 1018 17 1095 l7 140 485 7 c267 4 622 12 790 18 187 7 1154 15 2500 19 1550 6 2224 11 2295 20 163 18 994 53 1515 63 640 12 775 18 775 38 0 13 -28 15 -181 18 -99 1 -184 -1 -188 -5z"/>
<path d="M11996 9093 c-46 -92 -221 -556 -265 -705 -18 -59 -41 -130 -52 -158 -20 -54 -25 -105 -10 -114 17 -11 41 6 47 33 3 14 25 89 50 166 24 77 44 143 44 147 0 5 29 86 65 180 95 251 124 325 158 400 16 37 27 74 24 83 -12 28 -37 15 -61 -32z"/>
<path d="M11274 9038 c-14 -22 -44 -78 -65 -122 -39 -81 -39 -81 -92 -92 -67 -13 -72 -38 -9 -42 36 -3 43 -6 37 -20 -35 -86 -50 -151 -46 -199 2 -26 33 -43 79 -43 35 0 67 10 127 41 85 43 114 70 115 107 0 28 -5 28 -49 -7 -59 -47 -151 -91 -189 -91 -35 0 -35 0 -28 41 4 22 19 72 33 110 25 64 29 69 58 69 69 1 233 20 269 30 71 21 19 30 -137 23 l-149 -6 41 79 c22 43 48 91 57 105 19 29 13 59 -11 59 -8 0 -27 -19 -41 -42z"/>
<path d="M12324 8929 c-17 -5 -61 -36 -98 -70 -52 -48 -74 -77 -102 -138 -19 -42 -39 -92 -44 -111 -12 -49 -49 -173 -71 -244 -19 -61 -14 -86 17 -86 15 0 26 23 83 175 21 55 52 124 70 153 17 29 31 57 31 62 0 5 16 30 36 55 36 47 39 75 8 75 -15 0 -15 2 2 21 52 58 170 93 212 63 57 -39 9 -114 -134 -210 -132 -89 -174 -129 -174 -169 0 -37 12 -49 143 -149 59 -45 86 -60 120 -63 59 -7 69 12 20 34 -21 10 -73 45 -117 78 -43 33 -87 66 -97 74 -11 7 -19 19 -19 26 0 15 60 65 150 126 150 100 180 136 180 214 0 37 -5 51 -26 70 -23 22 -36 25 -93 24 -36 0 -80 -5 -97 -10z"/>
<path d="M12942 8795 c-30 -14 -79 -50 -110 -82 -172 -173 -224 -369 -110 -414 55 -21 346 -24 458 -5 104 18 144 40 96 52 -15 3 -62 1 -104 -6 -91 -15 -362 -14 -410 1 -18 6 -37 21 -41 32 -22 59 53 210 155 312 46 45 116 85 151 85 19 0 20 -4 16 -39 -7 -48 12 -64 39 -31 22 27 24 83 2 104 -23 23 -81 19 -142 -9z"/>
<path d="M10440 8760 c0 -19 7 -20 163 -20 158 0 197 6 183 29 -5 7 -63 11 -177 11 -162 0 -169 -1 -169 -20z"/>
<path d="M6235 8317 c-32 -15 -60 -38 -77 -63 -41 -62 -89 -181 -95 -240 -5 -49 -4 -55 25 -83 50 -51 109 -42 185 27 l27 26 0 -28 c0 -16 -11 -79 -25 -140 -37 -165 -55 -267 -55 -307 0 -40 30 -79 61 -79 30 0 35 27 8 49 -25 20 -26 12 36 306 13 61 27 128 30 150 8 43 64 266 71 276 7 12 -25 31 -41 25 -11 -4 -15 2 -15 23 0 20 -10 37 -31 55 -37 32 -41 32 -104 3z m73 -80 c2 -25 -2 -56 -9 -68 -10 -19 -9 -25 9 -39 21 -17 21 -17 1 -49 -11 -18 -42 -55 -69 -82 -37 -37 -56 -49 -79 -49 -62 0 -61 62 2 200 33 72 59 105 102 128 31 17 40 9 43 -41z"/>
<path d="M7955 8308 c-66 -36 -110 -107 -140 -225 -32 -125 3 -183 111 -183 37 0 56 7 95 36 27 19 60 50 74 67 30 39 30 35 4 -73 -27 -113 -79 -422 -79 -470 0 -39 23 -74 44 -67 6 2 11 27 11 58 1 66 36 278 77 459 16 74 33 174 35 222 5 78 3 90 -17 123 -13 21 -38 44 -56 51 -40 17 -131 18 -159 2z m155 -60 c47 -51 3 -170 -92 -249 -48 -39 -66 -49 -97 -49 -20 0 -42 5 -49 12 -16 16 -15 65 2 131 18 71 42 115 79 149 24 23 38 28 83 28 42 0 58 -5 74 -22z"/>
<path d="M10002 8156 c-80 -27 -127 -54 -185 -110 -42 -40 -57 -78 -57 -147 0 -97 75 -134 272 -133 118 1 118 1 205 44 104 52 89 64 -34 30 -113 -32 -215 -37 -303 -15 -78 19 -98 40 -86 89 6 23 9 25 28 15 13 -7 49 -10 93 -7 61 4 84 11 146 45 79 44 104 69 118 121 8 27 6 36 -12 58 -32 37 -93 41 -185 10z m143 -36 c3 -5 -1 -25 -10 -44 -24 -50 -143 -109 -216 -107 -59 1 -86 16 -68 38 63 75 269 154 294 113z"/>
<path d="M6780 8103 c0 -16 13 -21 70 -31 126 -22 416 -9 445 19 21 21 -20 30 -100 23 -107 -10 -148 -10 -292 -1 -116 8 -123 7 -123 -10z"/>
<path d="M9034 8026 c-16 -43 27 -76 53 -40 23 32 16 54 -17 54 -17 0 -33 -6 -36 -14z"/>
<path d="M7125 7919 c-27 -5 -91 -13 -141 -19 -110 -12 -124 -16 -124 -42 0 -18 5 -19 63 -14 185 19 370 55 391 76 12 12 -118 11 -189 -1z"/>
<path d="M8400 7765 c-28 -9 -61 -31 -86 -57 -52 -53 -61 -79 -35 -102 11 -10 17 -25 14 -37 -3 -10 2 -30 11 -44 58 -89 296 59 296 184 0 21 -7 35 -24 46 -34 23 -122 28 -176 10z m139 -44 c45 -29 -95 -171 -169 -171 -16 0 -20 6 -20 33 0 41 45 134 68 140 30 8 107 7 121 -2z"/>
<path d="M3269 6840 c-96 -51 -189 -172 -189 -247 0 -66 99 -94 183 -52 23 12 51 29 61 38 18 15 19 15 12 -9 -3 -14 -15 -72 -25 -130 -11 -58 -26 -134 -34 -170 -25 -106 -31 -178 -17 -195 35 -42 107 13 134 103 11 33 -10 28 -51 -13 l-35 -35 5 32 c2 18 25 136 51 261 25 126 46 237 46 248 0 30 32 87 51 92 27 7 23 34 -10 68 -26 26 -36 29 -88 29 -37 -1 -71 -8 -94 -20z m112 -40 c-35 -131 -51 -158 -119 -201 -45 -28 -94 -37 -119 -21 -15 10 -2 63 25 104 22 33 97 99 137 121 37 20 82 18 76 -3z"/>
<path d="M3764 6477 c-56 -62 -95 -124 -88 -142 9 -23 53 -18 90 10 18 14 35 25 38 25 8 0 7 -879 0 -973 l-7 -77 -108 0 c-102 0 -109 -1 -109 -20 0 -19 7 -20 108 -20 l107 0 1 -1187 c0 -654 4 -1216 9 -1250 l7 -63 -56 0 c-49 0 -56 -2 -56 -20 0 -18 7 -20 55 -20 l55 0 0 -698 c0 -605 2 -701 15 -718 15 -19 15 -19 30 0 13 17 15 117 15 755 0 458 -4 757 -10 795 -7 40 -10 449 -8 1196 l3 1135 34 -55 c19 -30 44 -72 54 -93 11 -20 83 -101 161 -180 77 -78 161 -167 186 -197 25 -29 84 -88 131 -129 47 -42 142 -127 210 -190 68 -62 144 -127 169 -144 25 -17 77 -59 117 -93 39 -35 91 -75 115 -90 24 -15 72 -54 107 -86 36 -32 180 -135 320 -229 141 -93 288 -191 326 -218 141 -98 278 -172 833 -451 465 -234 567 -289 567 -305 0 -15 8 -21 33 -23 31 -3 32 -4 32 -51 0 -56 20 -82 45 -61 8 7 15 28 15 47 l0 35 88 -48 c326 -178 924 -433 1245 -529 42 -13 81 -26 85 -29 11 -6 282 -80 487 -131 220 -55 795 -173 905 -186 47 -5 146 -20 220 -33 164 -29 397 -62 545 -76 106 -10 185 -18 385 -40 52 -6 162 -15 245 -20 82 -6 213 -15 290 -20 144 -11 391 -24 785 -41 350 -15 941 -22 952 -11 17 17 -145 31 -487 42 -181 6 -420 15 -530 21 -519 24 -619 29 -750 39 -77 6 -205 15 -285 20 -142 9 -224 17 -425 39 -55 6 -161 18 -235 26 -173 19 -374 47 -520 73 -63 12 -142 24 -175 28 -74 8 -650 123 -823 164 -323 77 -818 226 -968 291 -27 11 -80 32 -119 46 -122 45 -533 231 -707 321 -120 62 -168 92 -168 105 0 11 -8 17 -24 17 -14 0 -28 5 -31 11 -4 5 -12 8 -18 6 -7 -2 -46 16 -87 41 -84 50 -593 306 -860 432 -168 80 -406 215 -527 300 -32 22 -164 111 -292 196 -237 157 -329 224 -344 250 -4 8 -40 36 -80 63 -40 27 -112 83 -161 125 -49 42 -93 76 -98 76 -4 0 -36 25 -71 56 -260 233 -329 297 -387 359 -36 38 -114 119 -175 180 -122 123 -195 206 -216 247 -8 14 -28 50 -45 80 -18 29 -35 63 -39 76 -5 19 -3 22 22 22 30 0 73 24 73 42 0 6 -20 8 -58 3 -54 -6 -59 -5 -70 17 -10 18 -11 39 -3 88 7 39 11 249 11 514 l0 449 30 -41 c18 -25 38 -42 50 -42 32 0 24 30 -26 95 -25 33 -52 72 -60 88 -22 40 -53 35 -100 -16z m46 -47 c0 -5 -5 -10 -11 -10 -5 0 -7 5 -4 10 3 6 8 10 11 10 2 0 4 -4 4 -10z"/>
<path d="M2680 5741 c-49 -26 -137 -122 -159 -173 -10 -24 -21 -69 -24 -102 -5 -52 -3 -61 18 -82 40 -40 104 -30 169 26 20 18 36 30 36 28 0 -3 -23 -79 -51 -169 -56 -180 -80 -284 -73 -304 7 -18 30 -26 50 -18 12 4 14 14 10 38 -5 23 9 81 49 211 30 98 67 222 81 275 23 85 29 96 46 91 28 -7 38 14 38 86 0 54 -4 67 -25 87 -20 20 -34 25 -77 25 -32 -1 -67 -8 -88 -19z m130 -56 c0 -13 -7 -25 -18 -27 -10 -3 -22 -22 -29 -50 -22 -82 -133 -198 -190 -198 -25 0 -26 1 -20 60 6 69 36 126 94 181 51 49 87 66 128 61 29 -3 35 -8 35 -27z"/>
<path d="M2915 5266 c-37 -16 -95 -72 -95 -92 0 -21 34 -17 56 7 29 32 69 49 117 49 57 0 82 -25 72 -72 -33 -154 -131 -261 -167 -183 -9 21 -6 35 19 92 32 73 32 93 2 93 -15 0 -28 -17 -49 -66 -43 -95 -37 -158 17 -183 85 -39 161 23 213 174 28 81 26 130 -5 159 -40 37 -123 47 -180 22z"/>
<path d="M2461 3100 c-101 -46 -160 -121 -161 -203 0 -53 14 -74 59 -88 43 -13 90 -2 150 34 32 19 33 19 27 1 -62 -196 -88 -303 -98 -398 -8 -79 -8 -113 0 -126 9 -15 6 -19 -31 -25 -23 -4 -98 -10 -167 -14 -102 -5 -125 -9 -125 -21 0 -18 67 -18 565 -6 357 10 505 23 505 46 0 12 -14 15 -75 13 -41 -1 -198 -5 -348 -9 -273 -6 -273 -6 -260 15 10 16 10 23 0 33 -28 28 -10 159 45 338 59 194 73 232 102 274 16 23 30 48 33 56 7 20 -17 65 -44 84 -32 23 -123 20 -177 -4z m149 -30 c18 -10 18 -13 -11 -66 -31 -61 -74 -100 -144 -134 -79 -38 -118 -14 -96 59 27 93 180 179 251 141z"/>
<path d="M3970 2760 c0 -18 7 -20 80 -20 73 0 80 2 80 20 0 18 -7 20 -80 20 -73 0 -80 -2 -80 -20z"/>
<path d="M4255 2770 c-14 -23 11 -30 106 -30 92 0 99 1 99 20 0 19 -7 20 -99 20 -56 0 -103 -4 -106 -10z"/>
<path d="M4555 2770 c-14 -22 13 -31 86 -28 58 2 74 6 74 18 0 12 -16 16 -77 18 -49 2 -79 -1 -83 -8z"/>
<path d="M4840 2760 c0 -20 5 -21 103 -18 83 2 102 6 102 18 0 12 -19 16 -102 18 -98 3 -103 2 -103 -18z"/>
<path d="M5140 2760 c0 -18 7 -20 80 -20 73 0 80 2 80 20 0 18 -7 20 -80 20 -73 0 -80 -2 -80 -20z"/>
<path d="M5425 2770 c-14 -23 11 -30 106 -30 92 0 99 1 99 20 0 19 -7 20 -99 20 -56 0 -103 -4 -106 -10z"/>
<path d="M5725 2770 c-14 -22 13 -31 86 -28 58 2 74 6 74 18 0 12 -16 16 -77 18 -49 2 -79 -1 -83 -8z"/>
<path d="M6014 2769 c-12 -19 10 -27 97 -32 92 -5 116 1 106 27 -5 13 -23 16 -101 16 -58 0 -97 -4 -102 -11z"/>
<path d="M6314 2756 c-11 -28 7 -36 82 -36 72 0 75 1 72 23 -3 20 -9 22 -76 25 -57 2 -74 0 -78 -12z"/>
<path d="M6612 2760 c-13 -6 -22 -16 -20 -22 3 -9 36 -14 106 -16 97 -3 102 -2 102 18 0 18 -6 20 -54 20 -29 0 -66 2 -82 5 -16 2 -40 0 -52 -5z"/>
<path d="M6895 2750 c-14 -22 13 -31 86 -28 58 2 74 6 74 18 0 12 -16 16 -77 18 -49 2 -79 -1 -83 -8z"/>
<path d="M2725 2684 c-53 -20 -81 -48 -99 -102 -22 -62 -20 -104 5 -147 26 -43 46 -55 94 -55 69 0 142 80 156 172 7 44 5 57 -13 86 -12 19 -36 41 -54 48 -39 17 -38 17 -89 -2z m89 -59 c23 -36 20 -85 -10 -130 -74 -114 -147 -87 -128 47 8 55 13 65 43 85 44 30 75 29 95 -2z"/>
<path d="M7261 2496 c-7 -9 -11 -40 -9 -78 3 -60 4 -63 28 -63 24 0 25 3 28 63 3 59 -7 92 -28 92 -4 0 -13 -6 -19 -14z"/>
<path d="M7261 2206 c-8 -9 -11 -45 -9 -98 3 -81 4 -83 28 -83 24 0 25 2 28 83 3 78 -6 112 -28 112 -4 0 -13 -6 -19 -14z"/>
<path d="M2590 2122 c-97 -39 -173 -104 -186 -159 -11 -43 21 -88 79 -113 92 -40 303 -36 361 7 27 19 35 39 12 30 -8 -3 -72 -9 -142 -12 -95 -5 -141 -4 -174 6 l-45 13 63 6 c74 8 199 67 237 112 31 36 32 79 4 104 -30 27 -148 31 -209 6z m175 -42 c13 -21 -24 -57 -97 -93 -40 -20 -84 -37 -98 -38 -57 -4 -110 2 -110 12 0 19 66 75 121 103 40 20 68 26 115 26 35 0 66 -5 69 -10z"/>
<path d="M7255 1897 c-4 -13 -5 -48 -3 -78 3 -50 5 -54 28 -54 23 0 25 4 28 54 4 73 -4 101 -28 101 -12 0 -22 -9 -25 -23z"/>
<path d="M15136 1758 c-36 -62 -84 -183 -97 -247 -6 -31 -23 -86 -36 -123 l-25 -67 -66 -3 c-54 -2 -67 -6 -70 -20 -3 -16 5 -18 57 -18 34 0 61 -4 61 -8 0 -5 -9 -35 -20 -68 -24 -68 -55 -191 -63 -248 -5 -33 -2 -42 23 -67 45 -45 90 -40 182 20 76 49 98 80 98 137 0 40 -16 34 -51 -19 -58 -87 -187 -148 -197 -93 -5 25 21 137 59 254 l31 92 166 0 c164 0 215 8 182 30 -8 5 -86 10 -172 10 -104 0 -158 4 -158 10 0 6 6 23 14 38 7 15 23 66 35 114 24 96 60 193 91 245 26 44 26 73 0 73 -12 0 -28 -15 -44 -42z"/>
<path d="M7255 1617 c-3 -7 -5 -52 -3 -98 3 -82 4 -84 28 -84 25 0 25 0 25 95 0 91 -1 95 -23 98 -12 2 -24 -3 -27 -11z"/>
<path d="M14280 1420 c0 -21 40 -43 115 -66 36 -11 -682 -27 -995 -23 -261 4 -557 2 -1920 -11 -608 -6 -1224 -10 -1370 -9 -676 5 -1402 1 -1675 -10 -705 -28 -1107 -23 -1127 13 -11 20 -44 21 -55 1 -8 -13 -212 -15 -1673 -18 -954 -2 -1684 -8 -1710 -13 -29 -6 -45 -14 -45 -24 0 -12 11 -14 55 -12 30 2 801 6 1713 8 l1657 4 0 -34 c0 -41 23 -65 45 -46 8 7 15 24 15 39 l0 26 422 0 c233 0 587 7 788 15 220 9 548 14 825 13 253 -1 600 -3 770 -3 171 -1 830 4 1465 10 635 7 1259 11 1385 10 782 -6 1440 5 1471 25 13 8 26 10 35 5 18 -11 14 -15 -46 -38 -59 -23 -87 -60 -66 -86 19 -23 36 -20 49 8 7 16 25 29 50 37 22 6 52 21 67 33 25 20 27 24 15 47 -22 41 -56 60 -172 100 -73 24 -88 24 -88 -1z"/>
<path d="M7598 920 c-41 -22 -82 -83 -96 -145 -6 -22 -17 -67 -25 -100 -24 -95 -31 -298 -13 -368 21 -77 39 -102 88 -121 97 -39 180 -30 308 34 82 41 116 71 107 95 -7 17 -33 20 -42 5 -4 -6 -47 -31 -97 -56 -143 -72 -248 -70 -292 6 -19 31 -21 51 -21 195 1 143 4 170 28 255 29 101 48 136 90 160 23 13 28 13 46 -4 30 -27 37 -79 17 -129 -20 -54 -20 -57 4 -57 21 0 42 32 58 93 13 47 -4 93 -48 131 -37 31 -62 32 -112 6z"/>
<path d="M7055 896 c-64 -30 -101 -71 -109 -121 -3 -22 -8 -96 -10 -165 -2 -69 -10 -163 -17 -210 -6 -47 -12 -112 -13 -145 -1 -57 0 -60 24 -60 20 0 27 7 36 40 7 22 13 69 13 104 1 60 2 63 19 50 17 -14 133 -73 282 -143 80 -38 120 -45 120 -22 0 19 -37 40 -210 122 -80 37 -152 74 -161 82 -33 26 -12 56 116 167 38 33 86 75 106 93 45 39 63 86 53 137 -5 30 -16 43 -52 66 -58 37 -124 38 -197 5z m166 -43 c23 -14 29 -24 29 -53 0 -42 -9 -55 -71 -107 -26 -21 -79 -67 -119 -103 l-73 -65 7 40 c19 112 25 199 14 212 -24 30 71 91 145 92 22 1 52 -7 68 -16z"/>
</g>
<g id="logo" transform="translate(1867.7575740000002, 3736.6777631987684) scale(0.8161748020508809)"><g transform="translate(-57.706759,297.537395) scale(0.100000,-0.100000)" fill="#4444bb" stroke="none">
<path d="M750 2973 c-57 -10 -88 -25 -119 -57 -40 -41 -55 -100 -46 -179 6 -45 12 -61 32 -77 32 -25 35 -25 64 -1 22 17 24 26 21 89 -4 105 24 120 164 87 33 -7 119 -19 190 -25 88 -8 134 -16 144 -26 32 -32 8 -420 -28 -456 -18 -18 -126 -28 -289 -28 -185 0 -206 -4 -250 -52 -55 -58 -58 -82 -55 -363 1 -145 7 -274 13 -293 11 -34 51 -62 89 -62 12 0 35 14 52 31 l31 30 -6 238 c-3 130 -3 249 0 264 l5 27 112 0 c234 1 363 26 423 82 58 54 98 260 91 463 -4 122 -7 138 -34 191 -40 81 -79 100 -217 108 -174 10 -361 14 -387 9z" fill="#4444bb"/>
<path d="M3660 2971 c-42 -9 -83 -34 -103 -65 -39 -59 -50 -127 -54 -343 -5 -206 -5 -212 18 -252 28 -50 78 -86 143 -102 48 -12 257 -8 370 7 l49 7 -7 -104 c-4 -57 -11 -189 -16 -294 -9 -177 -9 -192 8 -214 35 -47 100 -46 136 2 22 29 27 86 42 452 7 191 0 235 -44 283 -45 48 -92 56 -241 38 -146 -18 -229 -20 -265 -6 l-26 10 0 162 c0 156 8 230 27 249 5 5 99 6 210 2 l201 -6 5 -50 c3 -39 11 -56 31 -74 34 -29 48 -29 80 0 24 20 26 30 28 113 4 147 -23 169 -218 179 -242 11 -340 13 -374 6z" fill="#4444bb"/>
<path d="M1565 2945 c-14 -13 -25 -32 -25 -42 0 -10 -1 -297 -3 -638 -2 -677 -3 -662 55 -694 33 -19 73 -7 101 31 18 24 20 51 29 300 5 150 10 278 12 283 2 6 37 8 97 3 52 -3 135 -7 186 -7 154 -2 161 -10 143 -176 -21 -189 -27 -310 -18 -343 12 -45 45 -72 86 -72 71 0 102 46 102 151 0 33 7 118 16 187 24 190 9 280 -58 349 -50 52 -112 67 -263 65 -71 -1 -164 -6 -205 -11 -41 -4 -78 -7 -81 -5 -4 2 -10 108 -13 236 -9 286 -17 352 -47 384 -31 33 -82 32 -114 -1z" fill="#4444bb"/>
<path d="M2542 2944 c-55 -38 -64 -109 -53 -419 6 -186 9 -215 28 -250 50 -95 116 -125 302 -135 75 -4 171 -5 215 -1 l78 7 -4 -178 c-2 -97 -7 -181 -11 -184 -4 -4 -42 1 -85 11 -104 26 -285 27 -363 3 -106 -33 -149 -107 -99 -170 26 -34 68 -41 132 -21 74 23 202 20 308 -7 182 -47 274 5 301 168 12 77 27 831 19 994 -7 152 -20 181 -86 186 -88 7 -103 -51 -104 -401 l0 -219 -201 4 c-197 3 -201 3 -220 27 -18 21 -19 42 -19 283 l0 260 -29 29 c-33 33 -74 38 -109 13z" fill="#4444bb"/>
<path d="M2374 1391 c-55 -34 -79 -78 -79 -147 0 -51 4 -66 27 -96 35 -45 102 -73 153 -64 78 15 146 111 131 188 -20 108 -145 172 -232 119z" fill="#4444bb"/>
<path d="M1853 999 c-39 -11 -66 -56 -61 -101 6 -59 69 -64 76 -6 4 30 34 38 145 38 l67 0 0 -110 c0 -135 -1 -136 -132 -126 -85 6 -89 6 -113 -18 -24 -25 -25 -28 -25 -179 0 -162 4 -177 47 -177 35 0 43 29 43 159 l0 121 73 0 c85 0 141 14 168 41 17 17 19 34 19 169 0 147 -1 152 -25 175 -23 24 -30 25 -137 24 -62 0 -128 -5 -145 -10z" fill="#4444bb"/>
<path d="M2985 1000 c-91 -16 -93 -18 -104 -58 -15 -51 -14 -537 0 -564 19 -36 69 -48 204 -48 121 0 127 1 151 25 l24 24 -2 292 -3 292 -26 19 c-31 23 -161 33 -244 18z m169 -86 c14 -5 16 -37 16 -250 l0 -245 -102 3 -103 3 0 240 0 240 40 6 c57 9 131 10 149 3z" fill="#4444bb"/>
<path d="M2351 971 c-24 -24 -29 -73 -37 -372 -6 -232 -6 -237 15 -258 23 -23 29 -25 51 -11 12 7 16 40 20 150 l5 141 35 -23 c19 -13 59 -55 88 -93 30 -39 78 -96 108 -128 47 -51 56 -57 74 -47 29 16 25 42 -15 92 -19 24 -62 78 -95 121 -61 77 -61 77 -33 77 15 0 46 9 69 19 56 26 67 57 62 179 -6 156 -27 172 -220 172 -93 0 -111 -3 -127 -19z m257 -74 c16 -13 17 -168 0 -185 -7 -7 -41 -12 -84 -12 -40 0 -84 -4 -98 -10 l-26 -10 0 120 0 119 98 -6 c53 -3 103 -10 110 -16z" fill="#4444bb"/>
</g>
</g></svg>
