<svg xmlns="http://www.w3.org/2000/svg" version="1.0" width="1322.371311pt" height="1218.960418pt" viewBox="0 0 1322.371311 1218.960418" preserveAspectRatio="xMidYMid meet">
<metadata>
Created by potrace 1.16, written by Peter Selinger 2001-2019
</metadata>
<g transform="translate(-3.000000,1259.000000) scale(0.100000,-0.100000)" fill="#000000" stroke="none">
<path d="M441 12548 c-10 -24 -21 -51 -24 -60 -3 -10 -18 -20 -32 -23 -14 -3 -36 -7 -50 -10 -40 -9 -29 -25 18 -26 43 -1 42 -3 -5 -13 -37 -8 -36 -26 1 -26 29 0 30 -1 19 -31 -20 -56 18 -47 42 11 10 25 18 30 47 30 30 0 34 -3 29 -20 -3 -11 -9 -29 -12 -40 -11 -40 25 -20 45 24 16 38 24 45 52 48 18 2 35 9 37 17 4 11 -3 12 -32 7 -23 -4 -36 -3 -36 4 0 6 14 13 30 17 33 6 41 23 10 23 -19 0 -19 0 0 46 24 54 25 64 7 64 -8 0 -24 -23 -37 -51 -25 -52 -44 -69 -79 -69 -25 0 -25 -3 -6 50 18 50 19 70 4 70 -5 0 -18 -19 -28 -42z m69 -108 c0 -5 -17 -9 -37 -9 l-38 2 35 7 c19 4 36 8 38 9 1 0 2 -3 2 -9z"/>
<path d="M1422 12565 c-25 -32 -20 -49 19 -65 l30 -13 -41 -34 c-45 -38 -49 -52 -22 -76 36 -33 148 -12 171 31 12 23 0 67 -21 75 -10 4 -8 10 7 22 47 37 55 46 55 61 0 11 -8 14 -27 12 -19 -2 -28 -9 -27 -20 1 -9 -13 -24 -31 -34 -28 -15 -37 -16 -64 -4 -49 20 -42 32 19 34 41 2 31 30 -11 34 -30 2 -41 -2 -57 -23z m122 -117 c16 -26 -13 -49 -68 -55 -58 -7 -61 11 -8 49 41 30 59 32 76 6z"/>
<path d="M835 12560 c-3 -10 -28 -35 -56 -55 -48 -36 -61 -55 -37 -55 6 0 20 8 31 18 19 16 19 16 12 -8 -4 -14 -14 -40 -21 -59 -8 -18 -14 -40 -14 -47 0 -20 30 -17 37 4 25 72 67 170 79 183 20 22 18 39 -5 39 -11 0 -22 -9 -26 -20z"/>
<path d="M1177 12563 c-17 -17 -4 -25 33 -20 54 7 72 -14 40 -48 -13 -14 -31 -27 -42 -31 -33 -10 -21 -34 17 -32 20 1 41 -4 48 -11 27 -28 -43 -49 -135 -42 -20 2 -28 -2 -28 -13 0 -25 135 -22 178 4 38 23 40 43 8 73 -21 20 -22 25 -10 42 17 23 18 57 2 73 -13 13 -100 17 -111 5z"/>
<path d="M985 12549 c-32 -18 -84 -81 -90 -110 -9 -42 10 -69 48 -69 36 0 104 41 136 82 25 32 28 93 5 102 -24 9 -77 7 -99 -5z m82 -25 c9 -25 -13 -61 -58 -94 -50 -36 -79 -39 -79 -9 0 68 117 155 137 103z"/>
<path d="M9933 12398 c-47 -58 -103 -252 -103 -354 0 -51 4 -68 20 -84 21 -21 29 -23 54 -14 23 9 20 22 -6 26 -21 3 -23 9 -26 71 -3 80 24 201 65 286 15 31 27 60 27 65 1 15 -20 18 -31 4z"/>
<path d="M10240 12390 c0 -6 6 -21 14 -33 25 -38 29 -109 12 -178 -21 -80 -73 -192 -115 -244 -34 -41 -27 -58 12 -32 27 18 81 106 115 189 34 84 42 216 15 268 -17 33 -53 54 -53 30z"/>
<path d="M10097 12343 c-8 -16 -24 -58 -36 -94 -20 -61 -24 -66 -46 -61 -31 5 -35 -23 -5 -31 17 -4 18 -9 10 -38 -15 -53 -13 -119 5 -125 24 -10 64 5 76 27 15 29 4 35 -27 15 -14 -10 -28 -15 -31 -13 -2 3 1 32 7 64 l12 60 51 9 c67 12 80 40 13 30 -25 -4 -46 -3 -46 1 0 5 13 46 29 90 17 44 27 83 24 87 -12 12 -23 6 -36 -21z"/>
<path d="M7337 12313 c-4 -3 -7 -22 -7 -42 0 -20 -7 -75 -16 -124 -16 -87 -16 -87 -35 -63 -55 69 -159 21 -159 -73 0 -20 7 -34 19 -41 27 -14 91 -12 120 4 13 7 32 11 41 9 10 -3 20 1 22 9 13 32 50 297 45 312 -7 17 -19 21 -30 9z m-92 -248 c14 -13 25 -30 25 -38 0 -31 -105 -52 -116 -23 -6 17 20 72 38 79 23 9 28 7 53 -18z"/>
<path d="M9521 12268 c0 -13 17 -70 37 -128 33 -93 40 -105 61 -105 21 0 27 11 57 105 19 57 39 107 46 111 14 9 1 29 -18 29 -15 0 -44 -59 -65 -132 -7 -24 -16 -47 -20 -52 -4 -4 -22 37 -40 93 -19 59 -39 101 -46 101 -7 0 -13 -10 -12 -22z"/>
<path d="M1025 12248 c-308 -5 -615 -7 -683 -6 -117 3 -152 -4 -95 -18 31 -8 1381 4 1466 13 90 9 67 23 -35 21 -51 -1 -345 -5 -653 -10z"/>
<path d="M7384 12153 c-3 -16 -12 -48 -20 -72 -8 -25 -14 -51 -14 -58 0 -26 29 -12 45 21 9 18 28 44 42 57 l26 24 -7 -27 c-3 -16 -9 -39 -12 -53 -10 -40 15 -30 67 28 l48 52 1 -31 c0 -17 -7 -52 -16 -78 -17 -50 -15 -62 10 -53 20 8 48 106 44 154 -2 31 -7 39 -26 41 -15 2 -33 -5 -48 -19 -21 -19 -24 -20 -30 -5 -7 19 -45 21 -62 4 -9 -9 -12 -6 -12 15 0 36 -28 36 -36 0z"/>
<path d="M365 12128 c-2 -7 -6 -89 -10 -181 -6 -159 -5 -168 12 -165 14 2 19 14 20 53 2 28 6 75 9 105 6 54 6 54 20 28 30 -57 77 -60 109 -6 l20 33 3 -102 c2 -95 4 -103 22 -103 19 0 20 8 20 175 0 166 -1 175 -19 175 -14 0 -21 -9 -26 -32 -13 -62 -57 -149 -74 -146 -16 3 -43 63 -61 136 -10 41 -36 58 -45 30z"/>
<path d="M1748 12133 c-2 -5 -1 -237 3 -518 6 -460 10 -534 34 -755 24 -217 28 -302 36 -750 11 -655 18 -820 35 -820 16 0 29 97 20 148 -4 20 -11 289 -16 597 -8 503 -11 584 -35 795 -23 206 -27 298 -35 740 -5 278 -12 517 -16 533 -7 28 -20 43 -26 30z"/>
<path d="M8450 12080 c-53 -8 -430 -31 -557 -34 l-63 -1 0 -140 c0 -77 5 -170 10 -206 5 -37 11 -104 12 -149 2 -77 17 -117 33 -90 4 6 78 10 208 10 177 0 311 8 412 25 23 4 27 3 17 -7 -32 -32 2 -38 41 -8 14 11 37 20 52 20 19 0 26 4 22 14 -3 8 1 20 9 26 12 11 14 6 14 -29 0 -28 4 -41 14 -41 17 0 26 21 26 60 0 19 6 29 20 33 11 3 20 13 20 22 0 9 -9 19 -20 22 -16 4 -20 15 -22 54 -1 27 -2 56 -2 65 -1 14 28 16 254 20 140 2 284 6 320 10 59 5 63 5 50 -10 -9 -12 -10 -20 -2 -28 7 -7 21 -2 46 18 20 16 36 34 36 40 0 19 -34 42 -72 49 -45 9 -69 -2 -44 -21 9 -6 13 -14 9 -17 -5 -3 -143 -9 -306 -13 l-297 -7 0 104 c0 112 -11 174 -32 195 -17 16 -137 25 -208 14z m134 -26 c59 -9 61 -13 70 -166 6 -114 5 -118 -14 -118 -26 0 -26 -16 0 -23 19 -5 21 -12 18 -82 -3 -77 -3 -77 -43 -105 -36 -26 -55 -30 -190 -44 -82 -9 -237 -16 -342 -16 l-193 0 0 53 c0 28 -7 102 -15 162 -8 61 -15 151 -15 202 l0 91 48 6 c26 4 146 11 267 17 121 6 243 14 270 18 69 11 85 12 139 5z"/>
<path d="M8083 11948 c-12 -15 -48 -256 -40 -265 15 -15 35 10 47 61 13 57 30 75 30 33 0 -13 6 -32 14 -43 19 -25 43 -11 73 42 l23 39 0 -60 c0 -66 12 -97 30 -79 7 7 10 56 8 135 -4 155 -17 163 -67 41 -19 -45 -36 -80 -39 -78 -2 3 -14 44 -26 92 -21 87 -34 106 -53 82z"/>
<path d="M1010 11903 c0 -139 11 -166 63 -161 23 2 40 14 63 45 27 36 33 39 37 23 8 -31 54 -43 104 -29 42 11 71 34 60 45 -3 4 -27 -1 -53 -10 -57 -19 -49 -19 -69 0 -13 14 -15 30 -9 95 6 67 4 79 -9 79 -10 0 -22 -23 -36 -68 -22 -73 -74 -156 -94 -149 -8 2 -14 43 -17 123 -4 103 -7 119 -22 122 -16 3 -18 -8 -18 -115z"/>
<path d="M6237 11863 c-9 -8 -7 -181 1 -248 5 -37 12 -51 25 -53 14 -3 29 22 73 115 31 65 63 126 72 136 12 13 13 20 4 29 -19 19 -42 -10 -93 -117 l-48 -100 0 107 c-1 125 -9 156 -34 131z"/>
<path d="M7483 11854 c-7 -3 -13 -21 -13 -39 0 -25 -5 -34 -22 -39 -13 -3 -120 -8 -238 -12 l-215 -5 38 22 c36 22 50 49 25 49 -21 0 -132 -59 -145 -77 -33 -44 -2 -69 98 -80 41 -4 59 -2 59 5 0 12 -7 14 -85 31 l-40 8 35 6 c19 3 127 8 240 12 113 3 215 8 228 11 19 5 22 2 22 -19 0 -31 16 -43 35 -27 10 8 23 8 52 0 21 -7 52 -10 68 -8 30 3 30 4 33 72 2 38 -1 72 -5 76 -10 10 -154 21 -170 14z m113 -34 c22 0 24 -4 24 -50 0 -55 -2 -56 -64 -38 -51 15 -51 15 -37 32 8 10 9 16 1 21 -5 3 -10 15 -10 27 0 18 4 20 31 14 17 -3 42 -6 55 -6z"/>
<path d="M820 11703 c0 -16 -9 -43 -21 -62 -26 -42 -15 -55 17 -18 27 31 39 69 30 92 -9 25 -26 17 -26 -12z"/>
<path d="M6401 11646 c-50 -51 -77 -167 -51 -216 19 -35 44 -41 85 -20 38 19 39 19 52 0 31 -44 123 -5 123 52 0 17 3 19 12 10 7 -7 22 -12 35 -12 41 0 30 -42 -22 -79 -57 -41 -85 -81 -85 -123 0 -43 15 -58 57 -58 57 0 91 52 109 168 4 27 15 48 28 58 19 13 21 13 26 -8 8 -31 67 -38 89 -11 9 11 28 24 44 31 25 11 27 10 27 -11 0 -34 19 -47 66 -47 85 0 103 27 22 32 l-53 3 2 48 c3 50 -12 62 -38 31 -8 -9 -33 -25 -56 -35 -24 -10 -43 -23 -43 -29 0 -5 -4 -10 -10 -10 -16 0 -12 59 6 90 19 31 13 63 -10 54 -8 -3 -20 -20 -26 -38 -6 -18 -23 -45 -39 -60 l-29 -27 -4 38 c-3 22 0 41 6 45 15 10 -11 35 -46 43 -21 6 -30 1 -48 -23 -21 -28 -24 -29 -49 -16 -48 25 -70 18 -90 -30 -22 -50 -51 -69 -51 -33 0 13 -5 28 -12 35 -9 9 -8 16 5 30 24 26 47 87 47 122 0 25 -4 30 -23 30 -13 0 -37 -15 -56 -34z m40 -38 c-6 -18 -23 -46 -37 -63 l-25 -30 6 30 c7 33 53 110 62 102 3 -3 0 -21 -6 -39z m247 -76 c9 -7 8 -13 -8 -27 -24 -21 -35 -15 -25 14 7 23 13 25 33 13z m-112 -47 c8 -19 -22 -65 -41 -65 -8 0 -15 5 -15 10 0 6 5 10 11 10 5 0 7 5 4 10 -10 16 5 50 21 50 8 0 17 -7 20 -15z m95 -162 c-16 -61 -36 -93 -61 -93 -47 0 -36 54 22 110 23 22 44 38 46 35 3 -2 -1 -26 -7 -52z"/>
<path d="M9690 11460 c-124 -4 -324 -13 -445 -20 -161 -9 -451 -10 -1081 -5 -607 5 -864 4 -868 -4 -4 -6 3 -13 16 -16 13 -3 448 -6 968 -8 696 -1 1007 2 1180 11 129 8 434 17 678 20 281 5 443 11 445 17 3 12 -565 15 -893 5z"/>
<path d="M496 11319 c-21 -104 -78 -228 -124 -273 -30 -28 -30 -28 -42 -6 -6 11 -10 33 -8 48 2 19 -2 28 -14 30 -15 3 -18 -4 -18 -46 0 -53 20 -82 56 -82 28 0 78 55 119 130 19 36 35 57 35 48 0 -10 9 -27 20 -38 24 -24 54 -14 72 26 14 31 28 31 28 -1 0 -31 37 -72 53 -56 7 7 6 15 -4 27 -9 11 -16 52 -19 117 -3 68 -9 102 -17 105 -7 2 -15 -2 -17 -10 -2 -7 -14 -44 -25 -83 -11 -38 -27 -79 -36 -90 -15 -18 -16 -10 -13 110 3 110 1 130 -12 133 -12 2 -20 -18 -34 -89z"/>
<path d="M6498 10964 c-4 -3 4 -29 17 -58 44 -100 57 -236 31 -331 -17 -66 -55 -151 -72 -166 -20 -16 -17 -29 5 -29 26 0 53 40 86 130 24 63 28 90 28 175 0 103 -10 156 -45 238 -19 43 -35 57 -50 41z"/>
<path d="M5308 10883 c-63 -72 -116 -331 -88 -432 17 -65 80 -112 127 -94 17 7 17 35 1 31 -31 -6 -69 14 -84 44 -14 26 -16 50 -11 128 8 132 41 245 93 318 15 21 15 22 -3 22 -11 0 -27 -8 -35 -17z"/>
<path d="M7678 10766 c-3 -68 -9 -129 -13 -135 -4 -8 -16 -3 -36 13 -15 13 -42 27 -58 31 -60 13 -141 -47 -126 -94 9 -28 70 -49 155 -52 63 -2 81 1 113 20 43 27 49 46 11 38 -26 -5 -26 -4 -20 37 3 22 9 92 12 154 7 108 6 112 -13 112 -19 0 -20 -8 -25 -124z m-65 -157 c15 -16 27 -34 27 -39 0 -13 -89 -13 -129 1 -35 12 -39 29 -13 51 39 35 73 31 115 -13z"/>
<path d="M529 10843 c-20 -51 -78 -287 -84 -344 -8 -64 5 -99 35 -99 21 0 27 15 10 25 -24 15 6 182 76 423 10 33 -24 29 -37 -5z"/>
<path d="M8562 10803 c-17 -32 -50 -89 -75 -126 l-43 -68 -13 28 c-7 15 -21 60 -31 98 -12 47 -23 71 -34 73 -25 5 -20 -32 19 -148 38 -112 51 -134 66 -110 6 8 39 62 74 119 36 58 74 113 86 124 23 21 22 60 -2 65 -10 2 -26 -17 -47 -55z"/>
<path d="M750 10827 c0 -1 9 -29 20 -60 41 -115 26 -354 -27 -436 -9 -13 -11 -27 -6 -32 16 -16 42 14 65 76 20 52 23 79 23 210 0 133 -2 155 -22 198 -12 26 -29 47 -37 47 -9 0 -16 -1 -16 -3z"/>
<path d="M3408 10803 c-3 -19 -5 -31 -12 -88 -5 -33 -14 -91 -22 -128 -17 -84 -18 -77 5 -77 16 0 21 12 31 73 24 139 22 137 48 74 13 -31 30 -58 38 -61 22 -9 44 4 50 30 10 41 21 27 27 -36 6 -72 29 -113 59 -108 25 4 37 28 14 28 -24 0 -33 34 -45 155 -5 59 -12 109 -15 112 -15 15 -35 -11 -50 -66 -9 -33 -21 -63 -26 -66 -4 -3 -23 33 -41 80 -18 50 -37 85 -45 85 -8 0 -15 -3 -16 -7z"/>
<path d="M4806 10783 c-14 -58 -43 -248 -39 -255 9 -16 31 -7 37 15 3 12 9 53 12 90 l7 68 21 -52 c35 -87 79 -92 102 -13 13 43 19 35 28 -37 8 -68 22 -99 46 -99 11 0 20 4 20 9 0 5 3 16 6 25 4 10 1 16 -9 16 -21 0 -28 23 -33 120 -7 115 -11 130 -33 130 -15 0 -23 -16 -41 -82 -12 -46 -25 -87 -30 -91 -9 -10 -37 67 -48 134 -9 53 -36 65 -46 22z"/>
<path d="M5422 10693 c3 -90 9 -127 23 -158 40 -81 70 -54 111 100 14 54 32 108 40 120 8 12 10 26 5 34 -16 26 -40 2 -56 -56 -9 -32 -26 -91 -38 -132 l-21 -74 -12 35 c-6 19 -15 83 -19 141 -6 85 -10 107 -22 107 -13 0 -15 -18 -11 -117z"/>
<path d="M6160 10777 c0 -45 -21 -147 -30 -147 -4 0 -13 7 -20 15 -30 36 -116 2 -140 -55 -24 -59 22 -86 117 -69 63 12 157 60 161 82 3 17 0 17 -38 -3 -23 -12 -44 -19 -47 -16 -3 2 0 21 7 40 15 48 30 154 23 172 -10 28 -33 15 -33 -19z m-58 -171 c18 -41 5 -56 -52 -56 -58 0 -65 16 -25 55 31 32 62 32 77 1z"/>
<path d="M3774 10774 c-8 -30 11 -90 64 -201 36 -77 52 -96 68 -85 5 4 22 54 38 112 15 58 34 115 42 128 17 26 12 52 -9 52 -14 0 -44 -70 -68 -160 -7 -25 -15 -49 -19 -53 -12 -14 -64 116 -70 173 -4 41 -9 56 -22 58 -12 2 -19 -5 -24 -24z"/>
<path d="M6436 10791 c-3 -4 -17 -44 -31 -87 -14 -43 -31 -90 -39 -103 -12 -22 -13 -18 -19 45 -4 38 -7 86 -7 107 0 26 -4 37 -15 37 -12 0 -15 -18 -15 -101 0 -112 9 -139 45 -139 19 0 30 10 49 48 28 56 67 182 60 194 -7 10 -21 10 -28 -1z"/>
<path d="M1438 10773 c-8 -10 -31 -52 -51 -94 -20 -41 -45 -83 -56 -93 -19 -17 -20 -17 -35 12 -8 16 -20 50 -27 75 -12 50 -39 65 -39 22 0 -33 34 -122 56 -146 23 -26 39 -24 69 9 31 33 127 217 118 226 -10 10 -19 7 -35 -11z"/>
<path d="M215 10760 c-10 -16 14 -149 35 -197 27 -62 50 -58 80 15 31 78 79 162 96 169 23 8 16 23 -10 23 -30 0 -54 -32 -100 -130 l-33 -71 -11 39 c-7 22 -15 67 -18 101 -7 58 -22 78 -39 51z"/>
<path d="M5767 10753 c-4 -3 -7 -25 -7 -49 0 -40 -2 -42 -36 -51 -44 -10 -41 -29 4 -26 32 2 32 2 32 -47 0 -37 4 -50 14 -50 11 0 16 15 18 52 l3 53 48 9 c30 5 47 13 47 23 0 11 -9 13 -45 7 l-45 -6 0 46 c0 43 -13 59 -33 39z"/>
<path d="M7825 10694 c-6 -2 -9 -43 -9 -96 2 -74 5 -94 17 -96 10 -2 19 9 26 30 6 18 23 47 37 63 l25 30 -4 -29 c-11 -66 15 -73 76 -21 40 34 42 35 49 15 9 -25 64 -50 109 -50 43 0 32 22 -16 32 -52 11 -65 24 -65 64 0 47 -21 44 -73 -8 l-41 -43 -6 40 c-7 52 -29 56 -69 10 l-31 -36 0 45 c0 45 -6 57 -25 50z"/>
<path d="M4158 10663 c-54 -3 -68 -7 -68 -20 0 -14 15 -15 128 -9 138 8 172 13 172 27 0 9 -86 9 -232 2z"/>
<path d="M6943 10653 c-30 -3 -43 -9 -43 -20 0 -13 18 -15 129 -12 123 4 154 10 137 27 -9 8 -158 12 -223 5z"/>
<path d="M600 10619 c-46 -51 -46 -132 2 -158 37 -21 76 -6 99 39 25 45 24 91 -2 124 -28 35 -63 34 -99 -5z m80 -23 c5 -15 5 -37 0 -56 -18 -62 -52 -79 -72 -36 -9 20 -7 33 11 70 23 51 47 59 61 22z"/>
<path d="M927 10624 c-16 -16 10 -24 83 -24 83 0 114 6 104 21 -6 10 -177 12 -187 3z"/>
<path d="M4262 10599 c-103 -8 -126 -14 -117 -30 11 -16 235 3 235 20 0 15 -23 17 -118 10z"/>
<path d="M8586 10579 c-41 -32 -86 -133 -86 -192 0 -41 4 -49 24 -58 34 -16 73 -4 90 29 l15 27 1 -28 c0 -57 87 -62 118 -7 19 34 52 41 52 11 0 -12 -19 -31 -50 -51 -77 -49 -93 -101 -44 -139 58 -45 99 -16 117 83 10 51 18 73 35 84 20 13 22 13 22 -5 0 -23 18 -43 40 -43 9 0 42 13 73 29 l57 29 0 -33 c0 -29 4 -34 30 -40 45 -10 160 17 160 37 0 11 -42 8 -119 -8 l-33 -7 7 62 c8 73 1 76 -57 26 -38 -32 -42 -33 -55 -17 -14 18 -13 19 -51 -35 -11 -16 -12 -14 -7 17 3 19 19 51 35 72 17 20 30 44 30 52 0 26 -27 18 -54 -16 -37 -46 -79 -88 -90 -88 -5 0 -5 15 -1 33 12 54 11 69 -8 81 -15 9 -23 6 -47 -21 -16 -18 -30 -27 -32 -22 -2 6 -21 14 -42 19 -31 7 -41 5 -56 -10 -9 -9 -19 -23 -22 -30 -2 -8 -12 -5 -29 10 l-25 22 39 39 c31 31 38 44 35 71 -4 42 -32 48 -72 17z m10 -67 c-32 -32 -35 -16 -4 23 14 18 23 24 26 16 2 -7 -7 -25 -22 -39z m134 -105 c0 -28 -26 -67 -45 -67 -11 0 -13 8 -8 33 3 17 10 38 16 45 16 20 37 14 37 -11z m-150 3 c0 -5 -7 -10 -16 -10 -8 0 -12 5 -9 10 3 6 10 10 16 10 5 0 9 -4 9 -10z m-5 -50 c-3 -5 -12 -10 -20 -10 -8 0 -17 5 -20 10 -4 6 5 10 20 10 15 0 24 -4 20 -10z m211 -114 c-3 -18 -12 -41 -20 -51 -12 -16 -16 -17 -30 -6 -25 21 -19 54 16 83 36 29 43 24 34 -26z"/>
<path d="M1016 10557 c-52 -13 -75 -37 -34 -37 36 0 139 27 151 39 15 15 -50 13 -117 -2z"/>
<path d="M1418 10558 c-33 -28 -48 -63 -48 -115 0 -49 2 -54 27 -64 41 -15 70 -3 103 43 32 44 41 113 18 136 -16 16 -80 15 -100 0z m78 -33 c9 -22 -14 -79 -41 -105 -29 -27 -55 -21 -55 13 0 25 22 86 36 100 13 13 54 8 60 -8z"/>
<path d="M1578 10165 c-6 -6 -557 -23 -1108 -34 -380 -8 -440 -12 -440 -31 0 -18 1592 26 1645 46 28 11 4 24 -44 24 -26 0 -50 -2 -53 -5z"/>
<path d="M8858 9984 c-4 -3 4 -29 17 -57 53 -117 60 -324 14 -407 -20 -37 -34 -49 -76 -65 -58 -22 -64 -42 -12 -37 51 4 103 44 129 99 44 89 30 333 -24 429 -21 37 -37 50 -48 38z"/>
<path d="M506 9948 c-20 -48 -74 -290 -85 -383 -7 -59 -7 -87 2 -105 13 -26 47 -34 55 -12 2 6 -3 12 -12 12 -21 0 -21 40 -1 156 13 76 59 268 81 342 11 36 -25 28 -40 -10z"/>
<path d="M1255 9970 c-31 -12 -47 -37 -40 -60 8 -26 35 -26 35 0 0 27 29 40 89 40 42 0 53 -4 70 -26 36 -46 28 -70 -66 -207 -53 -78 -65 -121 -41 -145 14 -14 48 -16 48 -3 0 6 -4 13 -10 16 -22 13 -8 55 41 125 95 135 107 195 47 245 -25 21 -40 25 -91 24 -34 0 -71 -4 -82 -9z"/>
<path d="M7622 9908 c-64 -115 -112 -277 -112 -382 0 -73 26 -140 70 -180 36 -32 70 -47 70 -30 0 4 -17 24 -38 45 -44 44 -62 93 -62 173 0 101 51 273 110 374 24 39 25 52 6 52 -8 0 -28 -24 -44 -52z"/>
<path d="M748 9935 c-2 -3 9 -32 25 -64 25 -51 30 -75 34 -164 5 -88 2 -115 -16 -174 -11 -39 -28 -76 -36 -83 -19 -16 -20 -40 -1 -40 37 0 79 96 91 208 16 144 -51 363 -97 317z"/>
<path d="M645 9873 c-9 -21 -24 -77 -33 -125 -11 -55 -22 -88 -29 -88 -14 0 -17 -13 -6 -24 5 -4 6 -34 5 -66 -3 -51 -1 -60 17 -69 16 -9 28 -8 51 4 30 16 44 53 15 41 -8 -3 -22 -9 -30 -12 -12 -5 -15 3 -15 40 0 41 3 48 28 58 76 34 95 69 22 43 l-39 -14 6 32 c5 30 35 146 49 195 11 39 -24 26 -41 -15z"/>
<path d="M7203 9765 c-36 -71 -63 -115 -73 -115 -8 0 -22 -5 -30 -10 -13 -9 -13 -12 4 -25 17 -13 17 -16 1 -59 -20 -52 -15 -76 16 -76 30 0 87 37 94 61 11 33 -2 33 -41 0 -21 -17 -40 -28 -43 -26 -2 3 6 28 19 55 22 46 26 50 59 50 20 0 46 3 59 6 39 11 24 24 -28 24 -27 0 -50 2 -50 5 0 3 23 50 50 105 54 108 58 120 35 120 -9 0 -37 -45 -72 -115z"/>
<path d="M134 9855 c-4 -8 -2 -21 4 -28 6 -6 20 -50 32 -97 29 -115 45 -150 68 -150 14 0 23 14 36 58 28 87 72 167 108 195 27 21 29 27 16 32 -40 16 -92 -43 -136 -153 l-29 -74 -23 84 c-36 136 -60 177 -76 133z"/>
<path d="M5366 9838 c-3 -13 -8 -72 -12 -131 -6 -109 -6 -109 -28 -89 -34 31 -62 42 -109 42 -76 0 -116 -70 -60 -107 21 -14 47 -17 122 -17 61 1 96 5 99 13 2 6 10 11 17 11 19 0 74 48 96 83 l17 29 7 -54 c14 -115 41 -107 116 35 32 59 63 114 69 122 6 8 9 19 5 25 -15 25 -36 4 -78 -77 -25 -49 -53 -97 -61 -108 -14 -19 -15 -17 -16 30 -2 81 -13 129 -32 133 -12 2 -19 -5 -23 -25 -16 -78 -28 -103 -60 -132 -37 -32 -57 -40 -50 -18 2 6 6 67 10 135 5 106 4 122 -9 122 -9 0 -18 -10 -20 -22z m-75 -235 l32 -27 -27 -7 c-44 -12 -120 3 -124 25 -9 44 70 50 119 9z"/>
<path d="M7006 9848 c-3 -7 -7 -40 -11 -73 -3 -33 -11 -82 -19 -110 -12 -47 -13 -49 -25 -27 -22 42 -76 20 -110 -45 -14 -28 -14 -66 1 -81 26 -26 127 -2 183 42 33 27 29 44 -5 26 -12 -6 -23 -10 -25 -8 -2 2 5 38 16 80 23 93 30 199 12 205 -7 3 -15 -1 -17 -9z m-82 -234 c11 -30 6 -72 -10 -78 -46 -18 -58 12 -27 65 20 33 28 36 37 13z"/>
<path d="M8617 9844 c-10 -10 -8 -266 2 -282 4 -8 19 -12 32 -10 18 2 34 23 71 93 26 50 61 102 78 116 37 31 25 48 -20 29 -22 -9 -41 -35 -77 -104 l-48 -91 -5 124 c-5 115 -13 145 -33 125z"/>
<path d="M7880 9815 c-14 -38 -50 -218 -50 -253 0 -29 14 -42 44 -42 7 0 34 18 60 41 38 34 46 38 46 21 0 -29 26 -45 63 -39 45 7 127 44 127 57 0 16 -30 12 -87 -12 -29 -12 -56 -18 -60 -14 -4 4 5 55 20 114 15 59 27 110 27 115 0 11 -40 8 -40 -4 0 -47 -122 -239 -151 -239 -16 0 -4 80 38 258 8 32 -25 29 -37 -3z"/>
<path d="M4797 9823 c-3 -5 -2 -15 2 -22 6 -8 2 -20 -10 -32 -11 -11 -19 -26 -19 -34 0 -8 -16 -62 -35 -119 -19 -58 -35 -107 -35 -110 0 -4 8 -6 18 -6 15 0 26 24 58 124 21 69 41 122 44 120 3 -3 14 -31 25 -62 17 -49 24 -57 45 -57 20 0 31 11 57 60 l32 60 1 -65 c0 -114 28 -171 66 -139 14 12 14 14 -3 26 -15 12 -19 32 -23 136 -4 104 -7 122 -22 125 -13 2 -28 -18 -58 -78 -23 -45 -44 -79 -48 -75 -4 4 -19 39 -33 78 -24 66 -48 93 -62 70z"/>
<path d="M6513 9743 c-39 -113 -133 -271 -197 -332 l-36 -35 0 32 c0 45 -27 43 -36 -2 -8 -44 0 -56 34 -56 34 0 102 67 161 159 28 44 41 57 41 43 0 -50 56 -39 99 20 l31 42 0 -57 c0 -45 4 -58 19 -67 25 -13 36 2 21 30 -8 15 -8 42 0 96 5 42 8 80 4 85 -13 21 -36 6 -64 -43 -16 -29 -39 -64 -50 -78 l-20 -25 0 25 c0 14 7 52 15 85 18 77 18 95 0 95 -9 0 -18 -8 -22 -17z"/>
<path d="M3787 9729 c-10 -6 -21 -8 -24 -5 -13 13 -42 -17 -57 -61 -35 -102 -12 -153 70 -153 84 0 145 59 148 141 1 52 -34 89 -83 89 -20 0 -44 -5 -54 -11z m85 -36 c50 -45 -14 -153 -91 -153 -40 0 -51 11 -51 52 0 34 7 47 39 79 42 42 73 49 103 22z"/>
<path d="M8406 9684 c-112 -14 -126 -18 -110 -34 6 -6 42 -6 99 0 119 13 147 20 142 33 -5 15 -10 16 -131 1z"/>
<path d="M932 9648 c10 -29 126 -30 149 -2 10 12 -2 14 -71 14 -60 0 -81 -3 -78 -12z"/>
<path d="M4173 9633 c-86 -3 -103 -6 -103 -20 0 -14 16 -15 130 -11 72 3 133 8 137 11 18 19 -28 25 -164 20z"/>
<path d="M5915 9620 c-10 -16 17 -21 85 -18 40 2 65 8 68 16 5 15 -143 17 -153 2z"/>
<path d="M4107 9563 c-10 -3 -16 -10 -14 -16 6 -20 217 -6 217 14 0 9 -169 11 -203 2z"/>
<path d="M1343 9478 c2 -7 14 -13 27 -13 13 0 25 6 28 13 2 8 -7 12 -28 12 -21 0 -30 -4 -27 -12z"/>
<path d="M4730 8853 c0 -49 -3 -111 -6 -140 l-7 -52 -32 35 c-36 38 -68 43 -115 19 -35 -18 -50 -43 -50 -85 0 -41 34 -55 110 -44 30 5 64 9 76 9 11 0 27 5 35 11 8 6 22 14 32 17 10 4 15 12 12 18 -4 6 -14 8 -22 5 -12 -5 -14 -1 -9 16 4 13 10 80 13 151 6 125 6 127 -16 127 -20 0 -21 -5 -21 -87z m-70 -180 c11 -14 19 -31 17 -37 -5 -14 -66 -27 -100 -20 -23 5 -27 10 -22 27 8 28 42 57 65 57 10 0 28 -12 40 -27z"/>
<path d="M5072 8898 c-14 -7 -38 -42 -60 -88 l-38 -77 -18 79 c-19 80 -30 98 -48 80 -7 -7 -5 -27 5 -64 9 -29 21 -82 28 -118 16 -85 26 -105 45 -89 8 6 14 21 14 34 0 58 70 211 102 221 20 6 25 34 6 33 -7 0 -23 -5 -36 -11z"/>
<path d="M7280 8810 c-6 -11 -20 -62 -31 -113 -39 -178 -32 -166 -94 -169 -71 -4 -76 -22 -7 -26 46 -3 53 -6 47 -20 -4 -9 -9 -43 -12 -74 -6 -58 -6 -58 24 -58 33 0 83 33 83 56 0 20 -13 18 -44 -7 -15 -12 -29 -20 -31 -17 -2 2 2 28 8 58 l12 55 69 5 c43 3 71 10 74 18 3 9 -14 12 -63 12 -67 0 -67 0 -60 28 4 15 15 66 26 114 10 47 23 98 29 113 16 43 -9 64 -30 25z"/>
<path d="M7016 8788 c-2 -7 -7 -58 -11 -113 -3 -55 -11 -127 -18 -160 -12 -56 -14 -58 -25 -37 -9 15 -22 22 -42 22 -39 0 -72 -49 -68 -99 3 -29 8 -36 31 -42 17 -5 46 -2 73 6 76 23 124 65 74 65 -24 0 -24 -4 -5 95 20 105 25 266 8 272 -7 3 -15 -1 -17 -9z m-82 -338 c3 -11 9 -29 12 -40 4 -17 1 -20 -25 -20 -25 0 -31 4 -31 21 0 25 17 59 30 59 5 0 11 -9 14 -20z"/>
<path d="M3692 8724 c-6 -11 -12 -106 -14 -212 -3 -178 -2 -192 15 -192 9 0 18 8 18 18 1 9 4 87 8 172 l6 154 32 -59 c67 -126 103 -136 160 -47 70 111 67 112 73 -44 4 -122 7 -139 23 -142 16 -3 17 9 17 150 0 157 -6 182 -39 171 -28 -10 -72 -57 -102 -110 -17 -29 -34 -53 -38 -53 -4 0 -28 35 -54 78 -26 42 -58 90 -71 106 -22 27 -24 27 -34 10z"/>
<path d="M10793 8688 c-81 -86 -173 -365 -173 -528 0 -66 27 -113 63 -108 27 4 35 28 9 28 -26 0 -32 18 -32 100 0 138 96 427 164 495 24 24 27 45 7 45 -4 0 -21 -15 -38 -32z"/>
<path d="M6641 8683 c-5 -10 -40 -94 -79 -188 -38 -93 -87 -206 -109 -250 l-41 -80 -7 40 c-13 80 -20 106 -30 108 -14 3 -18 -28 -10 -89 7 -62 31 -99 58 -88 19 7 75 111 139 259 l39 90 -4 -55 c-5 -66 -1 -80 24 -80 12 0 36 23 64 61 l45 61 0 -46 c0 -34 4 -46 15 -46 8 0 15 3 15 6 0 4 7 51 16 106 8 55 13 106 10 114 -12 31 -33 10 -73 -73 -23 -49 -51 -99 -63 -113 l-20 -25 7 60 c3 33 14 98 23 145 10 47 16 88 13 93 -7 12 -22 8 -32 -10z"/>
<path d="M11635 8650 c-3 -5 8 -28 25 -51 43 -60 60 -127 60 -238 0 -75 -5 -106 -21 -141 -23 -52 -64 -98 -97 -111 -13 -5 -20 -13 -17 -19 21 -34 100 23 143 104 25 47 27 59 26 171 0 129 -12 177 -60 247 -27 39 -50 53 -59 38z"/>
<path d="M10546 8638 c-3 -7 -16 -85 -30 -172 -14 -87 -27 -161 -30 -163 -2 -2 -17 10 -34 27 -29 28 -49 35 -97 31 -36 -3 -62 -22 -84 -61 -40 -72 -22 -122 49 -133 70 -10 217 24 235 53 3 6 -5 10 -19 10 -30 0 -30 -3 -10 80 14 61 54 300 54 328 0 6 -7 12 -15 12 -9 0 -17 -6 -19 -12z m-115 -338 c10 -14 22 -39 25 -57 6 -30 4 -32 -27 -38 -19 -3 -57 -5 -84 -3 -54 3 -63 15 -51 64 17 66 99 86 137 34z"/>
<path d="M12875 8618 c-2 -7 -6 -71 -10 -141 -8 -161 -9 -166 -45 -132 -54 52 -130 52 -150 0 -15 -38 -12 -91 5 -105 55 -46 248 8 294 82 20 31 4 34 -36 5 -20 -15 -38 -25 -40 -23 -2 2 1 63 7 135 6 72 9 145 5 161 -7 31 -23 40 -30 18z m-93 -280 c9 -7 23 -25 33 -40 17 -27 17 -28 -10 -38 -30 -11 -66 -13 -89 -4 -16 6 -23 73 -9 87 11 11 58 8 75 -5z"/>
<path d="M13200 8571 c-25 -37 -120 -231 -120 -248 0 -7 -4 -13 -9 -13 -11 0 -31 78 -31 122 0 62 -12 108 -28 108 -25 0 -10 -178 20 -238 35 -71 55 -65 93 33 39 98 80 180 111 221 13 17 20 34 17 38 -13 13 -33 5 -53 -23z"/>
<path d="M5845 8559 c-4 -6 -5 -13 -2 -16 10 -10 252 -8 255 2 5 16 -37 23 -145 24 -62 1 -104 -3 -108 -10z"/>
<path d="M4815 8550 c-66 -4 -198 -8 -292 -9 -154 -1 -173 -3 -173 -18 0 -15 22 -16 278 -8 152 4 404 11 560 14 177 4 282 10 282 16 0 12 -473 15 -655 5z"/>
<path d="M10945 8486 c-31 -73 -66 -215 -63 -253 3 -34 6 -38 34 -41 25 -2 38 5 75 45 24 26 52 59 61 73 17 25 17 25 17 -27 1 -58 18 -83 57 -83 29 0 32 20 4 27 -17 5 -20 14 -20 62 0 31 7 81 15 111 14 53 9 80 -14 66 -6 -4 -29 -39 -52 -77 -41 -68 -123 -169 -138 -169 -12 0 5 92 35 188 33 101 33 104 16 110 -7 2 -19 -12 -27 -32z"/>
<path d="M5892 8473 c-13 -3 -21 -10 -19 -16 7 -21 227 -7 227 14 0 9 -163 10 -208 2z"/>
<path d="M11561 8414 c-12 -25 -21 -49 -21 -51 0 -14 -44 -103 -51 -103 -10 0 -29 68 -38 135 -4 36 -11 51 -23 53 -23 4 -24 -41 -2 -123 18 -73 38 -105 64 -105 25 0 42 26 86 131 43 103 43 102 22 106 -12 3 -23 -9 -37 -43z"/>
<path d="M5229 8409 c-12 -12 -43 -67 -69 -123 l-48 -101 -20 45 c-10 25 -27 67 -37 93 -16 44 -38 68 -51 54 -7 -7 43 -147 67 -186 13 -22 26 -31 45 -31 22 0 31 11 74 105 27 57 59 114 70 125 20 20 19 40 -1 40 -5 0 -19 -10 -30 -21z"/>
<path d="M11870 8395 c0 -13 18 -15 111 -15 84 0 110 3 107 13 -3 8 -37 13 -111 15 -91 2 -107 0 -107 -13z"/>
<path d="M4495 8378 c-9 -27 -25 -145 -25 -190 0 -42 3 -48 21 -48 25 0 38 14 77 84 l27 50 5 -75 c4 -61 8 -74 23 -77 27 -5 77 18 77 35 0 15 -13 15 -51 -1 -14 -6 -16 5 -15 96 1 88 -1 103 -16 106 -11 2 -30 -21 -63 -80 l-46 -83 6 68 c3 37 8 81 12 97 4 24 2 30 -11 30 -9 0 -19 -6 -21 -12z"/>
<path d="M12347 8384 c-17 -17 11 -24 94 -24 72 0 89 3 89 15 0 12 -16 15 -88 15 -49 0 -92 -3 -95 -6z"/>
<path d="M11206 8322 c-9 -16 2 -20 69 -22 89 -4 111 -2 98 11 -15 15 -158 25 -167 11z"/>
<path d="M11967 8323 c-62 -4 -76 -25 -22 -31 46 -6 117 8 112 21 -4 14 -12 15 -90 10z"/>
<path d="M4813 8268 c-60 -9 -79 -22 -49 -34 21 -8 151 19 151 31 0 14 -29 15 -102 3z"/>
<path d="M7691 7908 c-4 -13 -14 -46 -21 -75 -10 -39 -19 -53 -33 -55 -26 -4 -35 -28 -10 -28 16 0 18 -7 15 -62 -3 -50 -1 -64 14 -75 39 -28 114 -5 114 35 0 16 -11 15 -34 -3 -48 -36 -71 -10 -58 65 7 45 7 45 56 50 66 7 74 30 12 30 -25 0 -46 4 -46 8 0 5 7 32 15 60 9 29 13 57 10 62 -10 17 -25 11 -34 -12z"/>
<path d="M4346 7848 c-7 -13 -21 -44 -31 -70 -10 -26 -21 -45 -26 -42 -5 3 -21 26 -36 52 -30 52 -44 65 -56 53 -15 -15 61 -144 91 -156 21 -8 35 9 62 80 13 33 29 67 37 76 18 22 16 29 -7 29 -11 0 -26 -10 -34 -22z"/>
<path d="M6265 7760 c-4 -6 6 -23 21 -38 15 -15 38 -51 52 -81 58 -125 30 -406 -42 -425 -11 -3 -100 -6 -196 -6 -96 -1 -294 -5 -440 -9 -191 -6 -267 -5 -272 3 -29 44 21 341 78 461 28 60 29 65 10 65 -50 0 -125 -261 -129 -450 l-2 -89 -60 -6 c-33 -3 -132 -10 -220 -15 -87 -6 -161 -13 -164 -15 -15 -16 33 -17 230 -7 l221 12 30 -25 c34 -29 61 -29 66 -1 3 14 0 17 -12 13 -8 -3 -18 -2 -21 2 -3 5 2 11 9 14 23 9 866 21 866 13 0 -5 -14 -21 -31 -37 -35 -33 -33 -45 6 -35 58 15 134 182 142 313 9 137 -22 249 -90 321 -33 34 -42 38 -52 22z"/>
<path d="M4481 7642 c-5 -10 -11 -196 -14 -422 -2 -223 -7 -415 -12 -427 -4 -13 -13 -19 -21 -16 -19 7 -38 -39 -30 -71 9 -37 50 -36 65 2 27 67 33 146 38 512 3 212 9 376 14 365 4 -11 8 -36 8 -55 1 -39 16 -69 28 -57 13 14 4 97 -16 143 -21 46 -44 56 -60 26z"/>
<path d="M5166 7538 c-10 -154 -9 -152 -53 -122 -44 29 -88 32 -103 5 -18 -34 -12 -109 10 -131 25 -25 55 -25 124 1 60 22 76 37 56 49 -10 6 -10 36 -1 147 14 174 14 163 -8 163 -16 0 -19 -12 -25 -112z m-60 -162 c19 -19 34 -39 34 -44 0 -14 -67 -35 -85 -28 -11 4 -15 21 -15 56 0 62 16 66 66 16z"/>
<path d="M7856 7635 c-25 -25 -29 -100 -16 -259 15 -174 19 -440 7 -507 -6 -37 -11 -45 -29 -45 -27 1 -43 -24 -34 -57 16 -64 77 -13 97 81 11 56 8 383 -7 614 -7 104 0 163 17 137 5 -7 9 -24 9 -36 0 -14 6 -23 15 -23 23 0 20 72 -3 93 -23 21 -36 21 -56 2z"/>
<path d="M5575 7588 c-30 -84 -37 -116 -42 -193 -5 -77 -3 -93 11 -108 10 -9 23 -17 30 -17 25 0 65 41 90 93 l25 52 1 -43 c0 -64 45 -105 94 -86 9 3 16 13 16 21 0 11 -7 13 -24 9 -42 -10 -50 13 -42 129 5 87 4 105 -7 105 -21 0 -30 -15 -68 -108 -18 -46 -46 -97 -61 -115 l-27 -32 -1 75 c0 66 7 105 36 208 5 16 2 22 -10 22 -9 0 -19 -6 -21 -12z"/>
<path d="M6234 7555 c-30 -32 -74 -127 -74 -160 0 -54 -53 62 -62 135 -2 15 -11 26 -22 28 -17 4 -18 0 -13 -41 8 -55 42 -149 66 -178 29 -35 46 -18 75 77 21 65 37 97 62 122 32 32 37 52 12 52 -6 0 -25 -16 -44 -35z"/>
<path d="M5881 7419 c-50 -10 -59 -15 -45 -29 13 -13 135 10 135 25 0 13 -36 15 -90 4z"/>
<path d="M8332 7399 c-5 -13 -14 -78 -21 -144 -6 -66 -14 -137 -17 -158 l-6 -38 -39 45 c-69 78 -139 68 -142 -19 -1 -30 5 -43 31 -66 28 -25 40 -29 90 -29 61 0 131 26 170 62 42 40 20 52 -30 17 -16 -12 -32 -19 -35 -16 -3 3 3 83 13 177 13 126 14 174 6 182 -8 8 -14 5 -20 -13z m-107 -321 l48 -53 -43 -3 c-64 -5 -104 39 -84 92 10 27 30 18 79 -36z"/>
<path d="M8545 7255 l-28 -105 -53 6 c-44 6 -54 4 -54 -8 0 -11 14 -17 45 -21 26 -2 48 -6 50 -8 2 -2 -1 -28 -6 -57 -11 -59 -2 -82 33 -82 23 0 78 52 78 74 0 25 -17 19 -51 -16 l-30 -33 6 50 c4 28 9 53 12 58 2 4 49 7 104 7 54 0 99 4 99 9 0 15 -29 21 -111 21 -57 0 -79 4 -79 13 0 6 11 50 25 97 24 85 24 100 1 100 -8 0 -24 -40 -41 -105z"/>
<path d="M3790 7338 c-4 -128 -11 -217 -24 -278 -20 -93 -20 -90 3 -90 13 0 21 9 25 28 14 67 26 160 26 200 0 23 4 42 8 42 5 0 17 -28 28 -61 24 -75 50 -98 83 -72 12 10 32 44 45 76 l23 58 12 -93 c7 -51 20 -106 29 -122 22 -38 53 -58 72 -46 12 7 9 13 -13 30 -31 25 -42 60 -57 190 -13 118 -18 132 -38 128 -11 -2 -28 -34 -48 -92 -18 -48 -37 -93 -42 -98 -6 -6 -18 14 -32 59 -36 108 -60 153 -81 153 -10 0 -19 -6 -19 -12z"/>
<path d="M7322 7263 c-5 -10 -28 -77 -51 -149 -43 -135 -113 -269 -141 -269 -21 0 -25 -34 -4 -42 36 -13 122 123 173 272 16 48 20 54 21 30 1 -52 11 -75 38 -82 21 -5 31 1 58 29 l32 36 12 -28 c13 -32 59 -53 96 -44 36 9 29 29 -11 30 -19 0 -38 4 -42 8 -5 4 -10 40 -13 79 -6 84 -25 97 -47 31 -8 -23 -29 -59 -48 -80 l-34 -39 -1 118 c0 96 -3 117 -15 117 -8 0 -18 -8 -23 -17z"/>
<path d="M6657 7238 c-28 -18 20 -29 102 -23 97 6 131 13 131 27 0 11 -215 7 -233 -4z"/>
<path d="M3355 7153 c-113 -3 -148 -9 -140 -23 13 -22 309 -8 302 14 -4 12 -22 13 -162 9z"/>
<path d="M6710 7144 c0 -6 10 -14 23 -18 38 -10 175 -7 182 5 4 6 5 12 4 14 -2 1 -50 5 -106 7 -74 3 -103 0 -103 -8z"/>
<path d="M5962 6958 c-6 -7 -32 -60 -59 -118 -57 -121 -64 -120 -81 9 -12 79 -15 87 -33 76 -16 -10 -6 -118 16 -173 17 -41 44 -60 66 -46 7 4 36 58 65 120 29 62 58 115 64 119 13 8 3 25 -14 25 -8 0 -18 -6 -24 -12z"/>
<path d="M5187 6953 c-12 -21 -18 -203 -8 -222 23 -42 89 -20 131 44 15 22 20 25 20 12 0 -29 28 -75 50 -82 33 -11 46 6 19 26 -21 16 -25 28 -29 110 -3 61 -9 94 -17 96 -13 5 -18 -5 -48 -90 -19 -55 -60 -107 -82 -107 -14 0 -15 14 -11 98 3 53 3 103 1 110 -5 13 -19 16 -26 5z"/>
<path d="M5470 6820 c0 -17 38 -30 89 -30 42 0 73 13 60 24 -10 8 -149 14 -149 6z"/>
<path d="M4170 6654 c0 -28 62 -183 82 -204 40 -43 61 -23 95 92 14 46 27 91 30 101 4 12 0 17 -15 17 -16 0 -24 -12 -37 -57 -39 -138 -38 -135 -51 -121 -6 7 -26 52 -44 101 -19 51 -38 87 -46 87 -8 0 -14 -7 -14 -16z"/>
<path d="M7825 6644 c-21 -23 -25 -37 -25 -90 0 -80 6 -94 40 -94 31 0 53 21 75 73 42 101 -24 182 -90 111z m63 -47 c4 -43 -24 -107 -45 -107 -13 0 -14 11 -10 60 7 90 49 125 55 47z"/>
<path d="M4436 6478 c-37 -53 -9 -128 48 -128 40 0 55 16 63 64 8 51 -17 86 -62 86 -24 0 -39 -7 -49 -22z m72 -43 c3 -37 -11 -60 -32 -52 -16 6 -23 67 -9 81 16 15 38 0 41 -29z"/>
<path d="M6062 5748 c-7 -13 -27 -68 -45 -123 l-34 -100 -22 59 c-12 32 -24 78 -28 102 -4 30 -11 44 -21 44 -36 0 18 -218 61 -244 26 -16 42 10 78 125 16 53 36 105 44 115 8 10 15 25 15 32 0 21 -36 13 -48 -10z"/>
<path d="M5355 5738 c-10 -28 -45 -244 -45 -275 0 -106 79 -93 138 22 l21 40 1 -47 c0 -54 18 -78 60 -78 37 0 80 16 80 31 0 7 -16 9 -50 4 -47 -6 -49 -6 -56 19 -3 14 -1 69 5 120 14 124 14 126 -9 126 -14 0 -22 -11 -30 -42 -29 -113 -64 -190 -99 -222 -21 -19 -21 -19 -21 25 0 24 9 96 20 159 11 63 20 118 20 123 0 12 -30 8 -35 -5z"/>
<path d="M7906 5682 c-2 -4 -9 -46 -16 -92 -6 -47 -16 -111 -22 -143 -12 -63 -6 -60 -75 -41 -25 7 -31 -7 -10 -23 6 -6 24 -13 38 -17 26 -6 27 -7 21 -71 -5 -74 5 -95 50 -95 50 0 122 39 105 57 -3 3 -26 -3 -51 -12 -65 -25 -79 -17 -70 42 9 64 20 83 47 83 13 0 32 7 43 15 18 13 16 14 -23 15 -24 0 -43 1 -43 3 0 1 9 62 20 136 11 74 17 138 14 142 -6 11 -21 12 -28 1z"/>
<path d="M4658 5583 c-26 -29 -59 -88 -73 -133 -4 -13 -16 -36 -26 -50 -25 -35 -16 -166 13 -181 28 -15 53 -3 124 57 l64 55 0 -36 c0 -30 3 -35 23 -35 13 0 36 14 52 30 16 17 32 30 36 30 5 0 6 -21 3 -47 -7 -64 4 -78 63 -78 45 0 133 30 133 45 0 17 -15 16 -70 -2 -82 -28 -94 -21 -86 45 4 28 7 61 9 72 4 33 -30 28 -79 -11 l-46 -38 4 44 c5 67 -17 62 -106 -25 -91 -88 -113 -93 -107 -25 2 34 12 54 42 88 50 58 91 144 87 185 -4 41 -27 45 -60 10z m-2 -90 c-14 -26 -25 -42 -26 -35 0 17 40 95 46 89 3 -3 -6 -27 -20 -54z"/>
<path d="M5682 5563 c-28 -3 -42 -8 -39 -16 7 -22 177 -9 177 13 0 10 -49 11 -138 3z"/>
<path d="M3895 5480 c-4 -6 -2 -17 5 -25 8 -9 8 -20 2 -32 -5 -10 -15 -65 -22 -123 -6 -58 -14 -117 -17 -132 -5 -23 -2 -28 14 -28 17 0 21 11 31 83 7 45 12 96 12 114 0 50 14 46 33 -8 18 -51 53 -84 79 -74 8 3 33 38 56 78 l42 72 0 -110 c0 -126 6 -155 29 -155 14 0 16 15 13 127 -6 220 -23 240 -99 112 -26 -44 -52 -81 -58 -81 -5 0 -22 32 -36 71 -39 105 -66 140 -84 111z"/>
<path d="M7415 5368 c-16 -51 -50 -136 -76 -189 -48 -96 -123 -194 -140 -183 -5 3 -9 34 -9 70 0 48 -3 64 -14 64 -10 0 -15 -16 -18 -52 -7 -91 22 -135 72 -108 34 18 97 107 142 199 43 87 43 88 76 83 24 -3 41 1 63 17 l29 22 0 -46 c0 -32 5 -47 15 -52 9 -3 17 -4 19 -2 2 2 7 52 10 112 7 102 7 107 -13 107 -13 0 -23 -11 -31 -35 -14 -41 -56 -95 -75 -95 -14 0 -11 64 6 129 4 19 6 38 3 43 -15 24 -33 -1 -59 -84z"/>
<path d="M6551 5351 c-26 -17 10 -23 131 -22 121 2 138 4 138 22 0 11 -250 12 -269 0z"/>
<path d="M3373 5343 c-27 -10 -11 -23 30 -23 23 0 81 -7 128 -15 82 -13 129 -11 129 4 0 8 -210 42 -250 40 -14 0 -31 -3 -37 -6z"/>
<path d="M5970 5339 c-85 -5 -262 -12 -393 -17 -143 -4 -238 -11 -240 -17 -3 -16 126 -18 458 -5 330 12 368 15 362 33 -5 16 -7 16 -187 6z"/>
<path d="M6570 5255 c0 -18 34 -25 130 -25 82 0 134 13 100 24 -8 2 -63 6 -122 9 -81 3 -108 1 -108 -8z"/>
<path d="M6057 5143 c-8 -16 -22 -59 -32 -96 -10 -37 -21 -70 -25 -72 -4 -2 -13 36 -20 86 -11 73 -16 89 -29 87 -18 -4 -18 -7 -1 -130 22 -161 58 -159 107 7 17 59 37 113 42 118 17 17 13 27 -9 27 -11 0 -25 -11 -33 -27z"/>
<path d="M5384 5129 c-11 -18 7 -223 22 -246 20 -32 57 -29 88 7 l25 31 15 -34 c15 -38 42 -48 92 -35 31 8 72 43 62 54 -4 3 -20 -2 -37 -10 -43 -23 -78 -21 -86 5 -4 11 -5 59 -3 107 2 61 0 86 -9 89 -14 5 -22 -13 -47 -98 -19 -65 -53 -116 -68 -101 -6 6 -13 60 -16 121 -3 78 -9 111 -18 115 -7 3 -16 1 -20 -5z"/>
<path d="M5757 5012 c-48 -2 -67 -7 -64 -15 4 -13 160 -17 173 -4 17 17 -22 24 -109 19z"/>
<path d="M6113 4950 c-35 -15 -47 -47 -34 -91 13 -44 35 -59 86 -59 94 0 155 93 89 136 -29 20 -109 28 -141 14z m111 -30 c57 -21 8 -94 -60 -88 -34 3 -39 7 -47 38 -7 28 -5 36 9 47 21 15 63 17 98 3z"/>
<path d="M7070 4118 c-18 -51 -58 -151 -88 -221 -30 -70 -52 -130 -49 -134 16 -16 38 15 82 118 55 130 115 293 115 314 0 8 -6 15 -14 15 -8 0 -26 -37 -46 -92z"/>
<path d="M6866 4158 c-8 -18 -20 -52 -27 -75 -11 -38 -16 -43 -41 -43 -34 0 -34 -23 -1 -28 18 -3 19 -8 13 -41 -10 -57 3 -83 41 -79 18 2 37 11 43 20 13 21 0 36 -16 20 -25 -25 -41 -14 -35 24 8 45 9 46 58 53 51 8 51 27 0 24 l-38 -2 19 62 c32 100 32 97 14 97 -10 0 -23 -14 -30 -32z"/>
<path d="M6575 4048 c-21 -40 -54 -97 -73 -128 -32 -48 -37 -52 -40 -32 -5 35 -27 20 -27 -19 0 -25 5 -35 18 -37 24 -5 52 21 89 84 24 39 36 50 50 46 10 -2 28 4 40 14 21 19 21 19 16 -16 -7 -44 -1 -60 21 -60 13 0 17 9 17 38 0 20 4 56 8 80 8 37 6 42 -10 42 -10 0 -29 -10 -42 -22 l-25 -23 7 25 c18 69 19 80 3 80 -9 0 -31 -29 -52 -72z"/>
<path d="M7150 4073 c0 -10 -14 -61 -30 -113 -34 -105 -37 -130 -16 -130 9 0 21 22 31 58 22 78 23 81 24 49 1 -31 25 -46 50 -30 9 5 26 27 38 49 l23 39 0 -87 c0 -81 2 -88 20 -88 19 0 20 7 20 125 0 112 -2 125 -17 125 -11 0 -33 -26 -58 -68 l-40 -67 -3 78 c-3 69 -5 77 -22 77 -12 0 -20 -7 -20 -17z"/>
<path d="M3814 4045 c-18 -45 -54 -192 -54 -225 0 -63 62 -68 120 -10 l40 40 0 -53 c0 -29 5 -58 12 -65 26 -26 92 -7 132 37 24 26 13 40 -17 21 -101 -63 -107 -57 -77 82 12 57 23 112 23 123 4 44 -20 26 -56 -43 -38 -72 -104 -152 -125 -152 -24 0 -3 119 45 263 11 34 -28 18 -43 -18z"/>
<path d="M4477 4044 c-11 -11 -8 -179 3 -209 24 -63 63 -38 121 78 22 42 49 87 60 98 14 14 18 24 11 31 -20 20 -50 -12 -96 -101 -26 -50 -50 -93 -55 -96 -10 -6 -25 125 -19 170 3 27 -11 43 -25 29z"/>
<path d="M6183 3956 c-11 -17 24 -26 102 -26 71 0 118 11 105 23 -9 9 -202 12 -207 3z"/>
<path d="M4150 3888 c0 -12 16 -17 67 -21 67 -5 117 3 96 16 -6 4 -45 10 -87 14 -64 5 -76 4 -76 -9z"/>
<path d="M5776 3788 c-74 -75 -85 -187 -20 -217 35 -16 138 -14 179 3 42 18 48 42 8 31 -16 -3 -58 -9 -94 -12 -55 -4 -69 -2 -84 13 -18 18 -17 19 20 28 46 11 130 89 141 130 10 43 -6 61 -60 64 -44 3 -50 0 -90 -40z m114 -8 c0 -39 -104 -131 -130 -115 -15 9 8 67 42 102 38 39 88 47 88 13z"/>
<path d="M4965 3690 c-17 -28 67 -43 208 -38 131 5 107 22 -40 29 -71 3 -135 9 -144 13 -10 4 -20 2 -24 -4z"/>
<path d="M3685 3661 c-9 -16 6 -19 145 -31 137 -12 860 -3 860 11 0 17 -57 20 -461 17 -233 -2 -449 1 -481 5 -37 5 -58 5 -63 -2z"/>
<path d="M5020 3615 c0 -17 55 -25 173 -25 103 0 132 15 45 24 -135 14 -218 14 -218 1z"/>
<path d="M4524 3495 c-9 -14 -26 -58 -39 -98 l-22 -72 -7 55 c-3 30 -7 68 -8 85 -2 20 -9 31 -22 33 -18 4 -19 -1 -12 -72 8 -89 21 -132 43 -141 25 -9 38 12 67 107 18 59 33 91 47 98 11 6 17 15 14 21 -11 17 -45 9 -61 -16z"/>
<path d="M3847 3503 c-12 -20 -57 -204 -57 -232 0 -60 49 -33 114 64 l27 40 -7 -62 c-7 -71 3 -93 43 -93 27 0 103 38 103 52 0 13 -32 9 -60 -7 -14 -8 -31 -14 -37 -15 -19 0 -16 65 7 148 11 40 18 77 15 83 -15 23 -37 3 -95 -87 -34 -52 -64 -93 -67 -91 -2 3 7 47 21 97 14 51 23 97 20 101 -6 11 -21 12 -27 2z"/>
<path d="M4170 3376 c-43 -6 -73 -15 -70 -21 10 -20 201 3 216 26 7 12 -51 10 -146 -5z"/>
<path d="M4595 3348 c-41 -39 -44 -60 -10 -93 61 -62 193 3 155 75 -12 22 -66 50 -94 50 -9 0 -31 -15 -51 -32z m95 -16 c17 -13 21 -24 16 -40 -12 -37 -79 -43 -100 -10 -8 13 -5 22 14 43 28 30 40 31 70 7z"/>
<path d="M8198 2883 c-8 -10 -32 -63 -53 -118 -20 -55 -57 -149 -81 -208 -24 -60 -42 -113 -39 -118 17 -26 36 6 94 159 35 92 75 194 87 227 24 61 20 90 -8 58z"/>
<path d="M7901 2810 c-17 -55 -26 -70 -42 -70 -10 0 -19 -7 -19 -15 0 -8 6 -15 14 -15 12 0 12 -8 -1 -51 -20 -68 -12 -99 27 -99 31 0 90 43 77 56 -4 4 -21 0 -36 -9 -16 -9 -32 -17 -35 -17 -9 0 -7 31 4 72 10 36 12 37 62 40 70 4 78 28 9 28 l-50 0 24 69 c13 38 21 72 17 75 -16 17 -30 -1 -51 -64z"/>
<path d="M7558 2703 c-38 -106 -94 -179 -151 -197 -25 -8 -11 -26 20 -26 28 0 107 74 119 112 4 13 11 17 22 13 42 -18 52 -16 82 13 l30 30 0 -34 c0 -37 22 -56 43 -35 9 9 9 14 0 19 -9 6 -10 25 -2 77 5 38 7 75 5 82 -11 28 -34 10 -61 -47 -16 -33 -38 -68 -48 -78 -20 -17 -20 -16 -14 43 4 33 8 69 9 80 2 11 -4 21 -12 22 -11 3 -23 -19 -42 -74z"/>
<path d="M8322 2753 c-18 -35 -102 -251 -102 -263 0 -6 7 -10 16 -8 10 2 31 40 54 96 35 87 50 100 50 42 0 -10 7 -21 16 -24 15 -6 31 9 93 84 l21 25 -6 -30 c-3 -16 -6 -57 -7 -90 -2 -47 1 -60 13 -60 11 0 17 24 27 95 6 52 12 105 12 118 1 40 -35 26 -86 -34 l-48 -55 -10 57 c-10 60 -27 78 -43 47z"/>
<path d="M7095 2671 c-4 -7 -5 -14 -3 -17 8 -7 216 -9 224 -1 13 13 1 15 -107 22 -78 6 -108 4 -114 -4z"/>
<path d="M5590 2595 c-53 -87 -120 -315 -120 -412 0 -58 23 -93 60 -93 24 0 27 15 5 24 -8 3 -19 16 -25 30 -19 52 33 283 93 406 18 36 34 68 35 73 2 4 -3 7 -11 7 -9 0 -25 -16 -37 -35z"/>
<path d="M6490 2539 c0 -7 18 -31 39 -54 22 -24 49 -62 61 -85 42 -83 44 -259 4 -373 -17 -49 -17 -57 -1 -57 7 0 21 15 29 34 48 99 50 301 5 399 -39 85 -137 182 -137 136z"/>
<path d="M3817 2533 c-11 -17 -37 -189 -37 -240 0 -43 4 -54 21 -64 29 -15 66 12 101 77 l27 49 -6 -76 c-6 -75 -5 -77 21 -94 26 -17 29 -17 62 -2 41 20 46 42 7 32 -15 -3 -32 -7 -38 -8 -11 -2 -13 85 -5 188 4 48 2 60 -10 63 -11 2 -30 -24 -60 -83 -44 -85 -74 -124 -87 -112 -3 4 2 55 12 114 10 60 19 119 19 132 1 24 -17 40 -27 24z"/>
<path d="M4540 2488 c-12 -13 -39 -58 -60 -100 l-38 -77 -11 50 c-6 27 -11 63 -11 79 0 32 -16 48 -33 31 -19 -19 22 -214 48 -225 18 -6 27 6 54 76 26 65 77 149 97 161 8 5 12 12 9 18 -10 16 -33 10 -55 -13z"/>
<path d="M5680 2434 c-6 -14 -10 -66 -10 -115 0 -76 3 -92 20 -109 30 -30 49 -25 96 24 l42 45 11 -30 c19 -56 94 -63 128 -12 20 30 1 37 -32 11 -45 -35 -59 -17 -63 81 -2 70 -5 81 -21 81 -12 0 -22 -15 -34 -53 -20 -64 -84 -144 -101 -127 -13 13 -15 150 -3 198 7 26 6 32 -7 32 -9 0 -21 -12 -26 -26z"/>
<path d="M6372 2373 c-27 -48 -54 -89 -60 -91 -8 -2 -12 15 -12 57 0 48 -3 61 -15 61 -12 0 -15 -15 -15 -72 0 -83 8 -101 40 -96 16 2 38 29 81 101 60 100 70 127 45 127 -8 0 -37 -39 -64 -87z"/>
<path d="M6918 2410 c-33 -25 -58 -79 -58 -123 0 -53 36 -77 115 -77 72 0 125 16 125 37 0 11 -6 13 -22 8 -47 -14 -148 -18 -163 -5 -17 14 -21 45 -4 35 17 -11 86 44 104 81 13 28 14 38 5 50 -18 20 -73 17 -102 -6z m72 -24 c0 -15 -80 -89 -88 -82 -7 7 8 43 29 70 22 28 59 35 59 12z"/>
<path d="M4842 2373 c-84 -3 -112 -7 -109 -16 5 -14 240 -17 272 -3 20 8 20 8 0 16 -11 5 -27 8 -35 7 -8 -1 -66 -3 -128 -4z"/>
<path d="M4107 2343 c-10 -3 -16 -10 -14 -16 6 -19 197 -5 197 14 0 9 -149 11 -183 2z"/>
<path d="M6022 2328 c6 -17 32 -21 84 -13 66 10 53 25 -22 25 -48 0 -65 -3 -62 -12z"/>
<path d="M4807 2304 c-20 -20 3 -24 111 -22 69 2 117 7 117 13 0 11 -217 20 -228 9z"/>
<path d="M6450 2283 c-26 -10 -50 -35 -50 -52 0 -9 16 -28 34 -43 54 -43 103 -35 126 22 12 28 11 34 -7 51 -20 20 -77 33 -103 22z m68 -32 c18 -11 12 -41 -10 -54 -22 -14 -68 9 -68 34 0 26 49 39 78 20z"/>
<path d="M9029 1916 c-2 -3 -52 -12 -110 -20 -114 -17 -305 -30 -659 -46 -124 -5 -297 -17 -385 -25 -349 -32 -499 -36 -1117 -25 -332 6 -648 15 -703 20 -334 31 -914 36 -1595 11 -146 -5 -427 -12 -625 -16 -198 -4 -366 -9 -374 -11 -11 -3 -11 -7 -1 -19 16 -19 8 -818 -11 -1111 -12 -192 -9 -249 11 -228 17 18 41 473 47 900 l6 431 271 7 c149 3 434 10 633 15 199 5 366 11 370 14 5 3 161 6 348 8 332 2 724 -11 935 -31 58 -6 373 -14 700 -20 599 -9 864 -2 1148 30 49 5 192 14 318 20 423 18 549 29 816 68 l56 8 -4 -155 c-3 -86 -12 -282 -21 -436 -9 -154 -17 -394 -17 -532 -1 -139 -1 -253 -1 -253 0 0 -138 -14 -305 -30 -562 -56 -652 -60 -1270 -60 -442 0 -635 4 -835 18 -229 15 -403 17 -1460 14 -660 -1 -1263 -7 -1340 -12 -77 -5 -209 -12 -292 -16 -84 -4 -153 -11 -153 -16 0 -5 71 -7 173 -4 467 11 2176 27 2497 22 201 -3 471 -12 600 -20 161 -11 414 -15 805 -16 613 0 709 5 1272 60 166 17 304 30 307 30 3 0 6 -17 8 -37 2 -27 8 -39 21 -41 14 -3 17 4 17 36 0 36 3 40 31 46 17 3 42 6 55 6 15 0 24 6 24 16 0 14 -8 15 -54 10 l-55 -7 -7 48 c-9 59 2 516 16 718 7 83 15 251 19 375 8 257 7 260 -64 260 -23 0 -44 -2 -46 -4z"/>
<path d="M8552 1608 c-6 -8 -22 -58 -36 -113 -13 -55 -38 -152 -55 -215 -35 -130 -37 -150 -16 -150 8 0 19 17 25 43 6 23 20 76 32 117 11 41 32 125 48 185 15 61 29 116 31 124 5 18 -15 25 -29 9z"/>
<path d="M8286 1523 c-8 -27 -18 -65 -22 -86 -6 -35 -9 -38 -37 -35 -41 4 -48 -20 -9 -28 30 -6 30 -6 25 -64 -5 -52 -3 -59 17 -70 26 -14 75 2 85 27 9 25 -3 28 -35 9 l-30 -17 0 49 0 50 48 6 c64 10 82 15 82 28 0 7 -20 9 -61 5 -54 -6 -60 -5 -55 11 6 20 36 151 36 158 0 2 -6 4 -14 4 -8 0 -21 -20 -30 -47z"/>
<path d="M8619 1488 c0 -2 -3 -14 -5 -28 -2 -14 -13 -72 -23 -130 -10 -58 -16 -108 -14 -112 7 -13 33 -9 34 5 0 6 2 21 4 32 2 11 7 40 10 65 10 63 14 66 44 29 34 -40 55 -35 96 24 l30 42 5 -100 c5 -96 6 -100 29 -103 20 -3 22 -1 15 15 -5 10 -10 71 -12 136 -2 82 -7 117 -15 117 -7 0 -34 -28 -61 -61 -46 -57 -51 -60 -63 -43 -8 11 -22 40 -31 67 -9 26 -22 47 -29 47 -7 0 -13 -1 -14 -2z"/>
<path d="M7972 1387 c-22 -78 -84 -180 -133 -221 -35 -30 -36 -36 -5 -36 18 0 38 16 72 57 25 32 49 63 51 70 3 7 17 9 39 6 30 -5 38 -1 68 31 l33 37 -1 -55 c0 -31 4 -57 9 -58 12 -3 33 88 34 150 1 60 -19 55 -76 -18 -25 -33 -50 -60 -55 -60 -12 0 -10 38 7 99 8 30 12 58 9 63 -14 23 -32 1 -52 -65z"/>
<path d="M7572 1328 c5 -14 189 -24 217 -12 31 12 -22 23 -122 23 -75 1 -98 -2 -95 -11z"/>
<path d="M6146 1297 c-46 -60 -91 -223 -102 -367 -8 -107 13 -168 65 -190 45 -18 65 2 24 24 -17 8 -36 29 -43 46 -31 75 19 365 80 463 35 56 35 57 16 57 -8 0 -26 -15 -40 -33z"/>
<path d="M7010 1283 c0 -5 16 -21 36 -37 76 -60 103 -191 64 -317 -12 -41 -35 -93 -51 -117 -32 -48 -36 -62 -14 -62 8 0 27 19 44 43 101 147 98 376 -6 467 -31 28 -73 40 -73 23z"/>
<path d="M4200 1190 c-23 -23 -62 -99 -80 -155 -7 -22 -15 -44 -17 -48 -3 -4 -20 23 -38 61 -35 74 -89 142 -111 142 -15 0 -19 -26 -5 -32 19 -7 79 -108 111 -187 41 -103 55 -103 81 -1 21 85 74 199 95 207 19 7 18 33 -1 33 -8 0 -24 -9 -35 -20z"/>
<path d="M5090 1174 c-18 -47 -60 -242 -60 -279 0 -22 6 -38 15 -41 35 -14 61 6 109 83 l48 78 -6 -53 c-12 -116 33 -134 140 -55 35 26 64 50 64 55 0 18 -34 6 -90 -32 -32 -22 -64 -40 -69 -40 -17 0 -13 56 12 168 13 56 21 104 19 107 -17 17 -38 -8 -98 -117 -37 -68 -75 -134 -85 -147 l-19 -24 0 37 c0 20 14 91 30 158 17 66 30 123 30 124 0 2 -7 4 -15 4 -9 0 -20 -11 -25 -26z"/>
<path d="M7419 1166 c-85 -30 -129 -87 -129 -166 0 -103 56 -133 186 -99 43 11 83 24 88 30 21 20 -8 22 -72 6 -114 -29 -162 -18 -162 39 0 21 5 24 33 24 50 0 154 55 173 91 19 37 10 67 -23 80 -32 12 -50 11 -94 -5z m80 -25 c26 -16 -3 -56 -60 -85 -50 -25 -109 -35 -109 -18 0 23 44 72 81 90 48 24 66 27 88 13z"/>
<path d="M6246 1158 c-8 -26 -24 -251 -19 -265 12 -30 48 -7 91 57 l44 65 -7 -52 c-9 -70 4 -93 54 -93 26 0 44 7 57 21 19 21 19 21 -30 14 l-49 -8 8 79 c12 120 12 138 -5 141 -10 2 -31 -26 -60 -78 -25 -44 -50 -84 -56 -89 -7 -7 -9 22 -6 99 3 74 1 111 -7 115 -6 4 -13 1 -15 -6z"/>
<path d="M6737 1163 c-4 -3 -7 -47 -7 -98 0 -151 38 -168 102 -45 21 41 52 88 69 103 23 21 28 32 20 40 -18 18 -62 -23 -108 -102 -47 -82 -56 -77 -53 27 1 31 1 63 1 70 -1 13 -14 16 -24 5z"/>
<path d="M4343 1057 c-11 -18 13 -22 134 -20 133 2 173 7 173 23 0 12 -299 10 -307 -3z"/>
<path d="M5604 1018 c-9 -14 37 -28 93 -28 78 0 135 10 130 23 -4 12 -216 17 -223 5z"/>
<path d="M6507 1013 c-17 -16 -3 -23 51 -23 64 0 102 8 102 21 0 10 -143 12 -153 2z"/>
<path d="M4500 996 c-130 -12 -149 -32 -30 -30 100 1 172 13 167 27 -5 15 -8 15 -137 3z"/>
<path d="M6880 932 c0 -27 7 -45 23 -60 45 -43 117 -18 117 40 0 39 -29 58 -88 58 l-52 0 0 -38z m104 -7 c8 -22 -4 -45 -23 -45 -22 0 -41 19 -41 42 0 23 55 25 64 3z"/>
</g>
<g id="logo" transform="translate(1022.3713110000001, 1002.2354871987684) scale(0.8161748020508809)"><g transform="translate(-57.706759,297.537395) scale(0.100000,-0.100000)" fill="#4444bb" stroke="none">
<path d="M750 2973 c-57 -10 -88 -25 -119 -57 -40 -41 -55 -100 -46 -179 6 -45 12 -61 32 -77 32 -25 35 -25 64 -1 22 17 24 26 21 89 -4 105 24 120 164 87 33 -7 119 -19 190 -25 88 -8 134 -16 144 -26 32 -32 8 -420 -28 -456 -18 -18 -126 -28 -289 -28 -185 0 -206 -4 -250 -52 -55 -58 -58 -82 -55 -363 1 -145 7 -274 13 -293 11 -34 51 -62 89 -62 12 0 35 14 52 31 l31 30 -6 238 c-3 130 -3 249 0 264 l5 27 112 0 c234 1 363 26 423 82 58 54 98 260 91 463 -4 122 -7 138 -34 191 -40 81 -79 100 -217 108 -174 10 -361 14 -387 9z" fill="#4444bb"/>
<path d="M3660 2971 c-42 -9 -83 -34 -103 -65 -39 -59 -50 -127 -54 -343 -5 -206 -5 -212 18 -252 28 -50 78 -86 143 -102 48 -12 257 -8 370 7 l49 7 -7 -104 c-4 -57 -11 -189 -16 -294 -9 -177 -9 -192 8 -214 35 -47 100 -46 136 2 22 29 27 86 42 452 7 191 0 235 -44 283 -45 48 -92 56 -241 38 -146 -18 -229 -20 -265 -6 l-26 10 0 162 c0 156 8 230 27 249 5 5 99 6 210 2 l201 -6 5 -50 c3 -39 11 -56 31 -74 34 -29 48 -29 80 0 24 20 26 30 28 113 4 147 -23 169 -218 179 -242 11 -340 13 -374 6z" fill="#4444bb"/>
<path d="M1565 2945 c-14 -13 -25 -32 -25 -42 0 -10 -1 -297 -3 -638 -2 -677 -3 -662 55 -694 33 -19 73 -7 101 31 18 24 20 51 29 300 5 150 10 278 12 283 2 6 37 8 97 3 52 -3 135 -7 186 -7 154 -2 161 -10 143 -176 -21 -189 -27 -310 -18 -343 12 -45 45 -72 86 -72 71 0 102 46 102 151 0 33 7 118 16 187 24 190 9 280 -58 349 -50 52 -112 67 -263 65 -71 -1 -164 -6 -205 -11 -41 -4 -78 -7 -81 -5 -4 2 -10 108 -13 236 -9 286 -17 352 -47 384 -31 33 -82 32 -114 -1z" fill="#4444bb"/>
<path d="M2542 2944 c-55 -38 -64 -109 -53 -419 6 -186 9 -215 28 -250 50 -95 116 -125 302 -135 75 -4 171 -5 215 -1 l78 7 -4 -178 c-2 -97 -7 -181 -11 -184 -4 -4 -42 1 -85 11 -104 26 -285 27 -363 3 -106 -33 -149 -107 -99 -170 26 -34 68 -41 132 -21 74 23 202 20 308 -7 182 -47 274 5 301 168 12 77 27 831 19 994 -7 152 -20 181 -86 186 -88 7 -103 -51 -104 -401 l0 -219 -201 4 c-197 3 -201 3 -220 27 -18 21 -19 42 -19 283 l0 260 -29 29 c-33 33 -74 38 -109 13z" fill="#4444bb"/>
<path d="M2374 1391 c-55 -34 -79 -78 -79 -147 0 -51 4 -66 27 -96 35 -45 102 -73 153 -64 78 15 146 111 131 188 -20 108 -145 172 -232 119z" fill="#4444bb"/>
<path d="M1853 999 c-39 -11 -66 -56 -61 -101 6 -59 69 -64 76 -6 4 30 34 38 145 38 l67 0 0 -110 c0 -135 -1 -136 -132 -126 -85 6 -89 6 -113 -18 -24 -25 -25 -28 -25 -179 0 -162 4 -177 47 -177 35 0 43 29 43 159 l0 121 73 0 c85 0 141 14 168 41 17 17 19 34 19 169 0 147 -1 152 -25 175 -23 24 -30 25 -137 24 -62 0 -128 -5 -145 -10z" fill="#4444bb"/>
<path d="M2985 1000 c-91 -16 -93 -18 -104 -58 -15 -51 -14 -537 0 -564 19 -36 69 -48 204 -48 121 0 127 1 151 25 l24 24 -2 292 -3 292 -26 19 c-31 23 -161 33 -244 18z m169 -86 c14 -5 16 -37 16 -250 l0 -245 -102 3 -103 3 0 240 0 240 40 6 c57 9 131 10 149 3z" fill="#4444bb"/>
<path d="M2351 971 c-24 -24 -29 -73 -37 -372 -6 -232 -6 -237 15 -258 23 -23 29 -25 51 -11 12 7 16 40 20 150 l5 141 35 -23 c19 -13 59 -55 88 -93 30 -39 78 -96 108 -128 47 -51 56 -57 74 -47 29 16 25 42 -15 92 -19 24 -62 78 -95 121 -61 77 -61 77 -33 77 15 0 46 9 69 19 56 26 67 57 62 179 -6 156 -27 172 -220 172 -93 0 -111 -3 -127 -19z m257 -74 c16 -13 17 -168 0 -185 -7 -7 -41 -12 -84 -12 -40 0 -84 -4 -98 -10 l-26 -10 0 120 0 119 98 -6 c53 -3 103 -10 110 -16z" fill="#4444bb"/>
</g>
</g></svg>
