<svg height="1401.518686pt" preserveAspectRatio="xMidYMid meet" viewBox="0 0 2372.6277 1401.518686" width="2372.6277pt" xmlns="http://www.w3.org/2000/svg"><g transform="matrix(.1 0 0 -.1 -24.082254 1454.994777)"><path d="m976 14528c-2-13-12-70-23-127-10-57-22-105-28-106-126-34-165-53-165-82 0-20 28-27 46-12 17 14 80 39 100 39 7 0 7-13 0-44-10-44-10-44-62-51-58-7-91-25-80-44 6-9 24-10 62-5 46 5 54 4 54-10 0-28 49-20 60 9 8 20 16 25 45 25 34 0 35-1 35-40 0-33 3-40 20-40 19 0 26 14 32 70 3 23 9 26 78 35 41 6 81 14 88 18 28 19 7 27-69 27h-81l7 33c4 17 9 35 11 38 2 4 42 12 89 19s88 17 91 22c13 20-22 29-92 24l-72-6 13 43c7 23 21 58 30 79 19 39 15 68-9 68-19 0-41-42-71-130-21-62-24-65-58-71-21-3-37-5-37-3 0 19 33 155 42 171 8 17 8 29 0 48-15 32-50 34-56 3zm70-285c-3-10-8-30-11-45-6-22-13-27-46-30-21-2-39-3-39-3 0 1 7 22 16 48 15 44 18 47 51 47 28 0 33-3 29-17z"/><path d="m1510 14395c-119-87-133-95-162-102-19-4-28-12-28-24 0-28 55-25 109 6 24 14 46 24 48 22s-10-35-27-73c-69-153-106-293-81-308 17-11 41 6 47 33 19 94 53 192 104 296 56 115 84 158 111 167 21 7 1 38-23 38-13-1-57-25-98-55z"/><path d="m1732 14368c-17-13-41-43-53-68-11-25-25-54-32-65-34-62-41-85-42-134 0-51 2-56 34-78 54-36 79-39 128-13 79 42 161 172 171 270 3 40 0 48-26 73-24 23-42 30-88 34-50 4-64 1-92-19zm141-47c14-11 17-25 14-47-14-84-107-216-161-230-15-3-34 1-51 12-24 15-26 22-21 55 3 21 17 59 31 85s25 53 25 60c0 8 16 32 36 53 32 36 39 39 72 34 20-3 45-13 55-22z"/><path d="m2325 14380c-16-4-81-8-143-9-113-1-114-1-144-32-29-28-30-34-25-86 9-84 31-103 124-103 40 0 73-3 73-7 0-20-80-110-124-140-53-36-103-43-163-21-28 10-36 10-50-5-28-28-2-40 96-45 89-4 89-4 146 34 75 49 147 145 143 188-3 31-3 31-83 34-43 2-85 8-92 14s-13 31-13 59c0 44 3 51 26 59 14 6 69 10 123 10 108 0 164 13 159 38-4 19-15 22-53 12z"/><path d="m2565 14374c-73-38-121-109-160-238-42-143-35-229 23-274 31-23 46-27 116-30 76-3 84-1 129 27 60 39 87 82 87 142 0 53-17 73-77 95-66 23-115 18-159-17-22-16-44-42-51-57-22-50-12-135 15-118 5 3 15 27 21 53 17 66 54 103 103 103 22 0 52-7 68-15 24-12 30-22 30-48 0-43-21-71-76-103-39-23-53-26-96-21-85 10-108 39-108 130 0 43 45 185 76 241 34 60 85 100 118 92 27-7 48 16 39 42-6 17-62 15-98-4z"/><path d="m11160 14215c-18-22-50-299-50-435 0-95-12-136-38-124-9 4-38 9-64 12-39 3-48 1-48-12 0-36 137-132 178-124 9 2 30 28 47 58 26 47 36 56 65 60 22 3 35 11 35 20 0 18-89 27-108 11-15-11-13 178 3 304 20 165 22 232 6 238-8 3-20 0-26-8zm-30-615c0-12-8-12-35 0-18 8-17 9 8 9 15 1 27-3 27-9z"/><path d="m11384 14096c-16-42 18-117 118-263 128-186 179-378 164-623-6-106-18-151-69-260-26-55-52-91-99-137-71-69-132-113-157-113-23 0-41-19-34-36 16-42 131 14 229 112 57 58 81 91 113 160 67 142 74 182 68 389-4 172-6 184-37 269-50 140-73 184-145 286-40 56-78 122-91 160-23 64-48 88-60 56z"/><path d="m10798 14028c-22-24-50-56-63-73-27-36-115-235-115-262s-19-43-52-43c-21 0-28-5-28-20 0-16 7-20 34-20 31 0 34-3 40-35 11-58 53-79 167-83 75-3 104 0 129 13 17 9 29 20 25 23-4 4-55 7-113 7-131 0-152 10-152 70 1 36 6 44 47 75 52 39 130 129 167 193 14 23 29 68 34 101 8 51 7 61-9 77-31 31-67 24-111-23zm69-53c-4-26-21-68-40-98-42-65-123-154-132-145-13 13 67 177 113 232 26 30 51 55 56 55 5 1 6-19 3-44z"/><path d="m8340 13922c-100-104-179-421-181-725 0-147 17-230 71-338 28-55 73-99 87-86 3 4-6 32-21 63-67 141-80 199-81 349 0 229 35 435 104 605 34 82 61 116 109 137 41 17 37 37-7 41-29 3-40-4-81-46z"/><path d="m10270 13941c-44-14-70-35-105-86-27-40-38-72-54-158-12-59-21-122-21-140 0-36-23-149-38-187-13-33-38-54-55-47-8 3-20 1-28-4-12-7-12-11 2-24 14-14 31-14 180 1 265 25 354 32 539 44 213 12 341 27 353 39 5 5 6 15 2 21-6 9-28 11-79 6-39-4-145-11-236-16-247-14-595-45-624-56-16-6-17-4-8 13 16 30 42 150 42 196 0 23 4 47 8 53s36 13 72 16c103 8 223 82 251 155 21 55 11 93-35 139-40 40-47 44-92 43-27 0-60-4-74-8zm126-65c19-19 34-44 34-57 0-50-74-124-148-148-36-12-43-12-57 3-9 9-28 16-41 16-19 0-24 4-20 18 3 9 10 37 16 61 14 55 74 120 120 131 56 13 60 12 96-24z"/><path d="m6705 13884c-24-36-44-202-55-445-8-187-13-235-26-278-4-11-7-11-20 0-25 20-68 91-74 119-4 19-12 25-30 25-55 0-30-98 44-177 30-33 41-38 79-38 46 0 61 10 86 62 8 15 33 36 60 48 25 12 57 27 71 34 16 7 26 22 28 39 4 30-17 37-38 12-7-8-18-15-25-15-6 0-34-11-61-25s-51-25-53-25 0 17 3 38c4 20 11 123 15 227 10 212 24 343 40 374 28 51-12 74-44 25z"/><path d="m4778 13885c-13-13 4-34 32-40 39-9 83-61 111-132 20-51 23-79 27-244 3-147 0-204-13-270-20-98-56-188-98-242-16-21-27-40-25-42s21 6 43 18c52 29 96 111 127 232 20 81 22 110 20 284-2 175-5 201-26 263-26 73-62 128-101 154-26 17-87 29-97 19z"/><path d="m3267 13803c-3-4-8-27-12-50l-7-43h-846c-641 0-907-4-1092-15-523-33-602-37-822-43-233-7-258-12-244-47 5-13 12-15 29-10 12 4 153 11 312 15 272 8 456 18 740 41 66 6 527 13 1024 16l904 6-6-529c-5-507-20-866-52-1319-9-115-24-379-35-585s-24-456-30-555c-11-208-15-850-6-975 11-139 36-417 48-530 6-58 14-206 17-330l6-225h25c23 0 25 4 28 47 7 105-20 509-58 873-16 153-23 784-12 1030 18 379 42 809 62 1115 49 737 70 1269 69 1705-1 193-4 363-8 379-6 29-25 45-34 29z"/><path d="m5900 13776c-76-29-89-36-163-95-98-78-149-152-155-225-4-47-7-54-33-63-33-13-38-38-9-53 17-9 18-13 6-48-7-20-16-54-20-74-4-21-16-57-26-80-11-24-20-60-20-80 0-32 3-38 20-38 11 0 22 6 24 13 2 6 15 50 29 97 15 47 34 108 42 137 16 51 17 51 45 42 17-7 52-41 89-88 48-63 70-82 112-100 72-31 150-39 172-16 27 27 20 32-38 33-86 1-143 33-207 117-37 48-67 77-97 91l-44 21 124 64c138 70 188 114 232 201 23 45 27 63 21 94-12 67-33 77-104 50zm50-70c0-52-66-144-132-182-145-86-172-98-164-78 5 10 12 30 17 44s23 34 39 45c33 22 38 40 15 53-13 7-5 17 39 53 55 44 150 98 174 99 7 0 12-13 12-34z"/><path d="m8805 13739c-39-11-130-91-162-142-39-61-62-139-89-292-28-164-30-227-9-245 26-21 45 5 45 63 0 57 43 258 71 331 10 27 16 59 13 71-12 47 104 162 178 176 38 7 45 5 60-14 25-31 22-63-9-113-26-41-122-114-150-114-26 0-82-43-83-62 0-29 209-196 315-251 44-23 71-17 55 13-6 11-17 20-24 20-8 0-19 6-25 14-7 8-58 46-115 85-56 39-113 82-125 95l-22 23 42 17c78 31 142 82 177 138 39 66 41 110 7 161-24 34-29 37-73 36-26 0-60-5-77-10z"/><path d="m18755 13587c-9-46 2-377 15-472 10-71 19-224 36-622l5-123h-140c-134 0-141-1-141-20s7-20 255-20 255 1 255 20c0 18-7 20-84 20h-85l-5 113c-16 368-27 550-36 607-6 36-13 151-16 255l-6 190 183 1c101 1 433 5 737 9 609 8 603 8 622-50 12-35 26-45 67-45 19 0 24-4 19-16-3-9-6-252-6-540v-524h-29c-16 0-49-8-73-19-81-35-78-22-78-296 0-152 4-246 10-250s10-54 10-118c0-62 4-118 9-126 9-13 62-12 139 4l32 7v-506c0-501 0-506-21-527-14-14-19-29-16-45l4-24h-768-769l-5 23c-8 32 1 1513 10 1570l7 49 212-7c388-12 391-12 391 5 0 25-89 31-635 40-283 4-528 10-544 12-40 4-44-17-7-36 25-13 73-16 276-16h247l-7-52c-7-52-23-1606-17-1620 5-12 1660-10 1667 2 3 6 22 10 41 10 27 0 37 5 45 24 13 29-1 61-31 71-20 6-20 15-20 516v509h124 123l7 38c8 48 8 725 0 746-5 14-27 16-140 16h-134v534c0 294-3 541-6 549-4 12 8 20 45 34 28 10 51 23 51 30 0 10 122 13 594 13h595l5-147c3-82 8-262 12-400l6-253h-52c-67 0-148-24-200-59-51-34-146-159-159-209-35-134-40-228-16-284 8-20 38-57 67-83 75-67 171-107 294-122 32-4 44-11 53-29 7-16 11-102 11-237 0-117 4-217 8-223 15-22 74-28 375-33l309-6-61-39c-38-25-61-47-61-58 0-33 46-20 116 32 37 28 70 50 74 50 13 0 21 31 12 46-18 32-106 114-122 114-31 0-31-29 1-65l31-35h-267c-159 0-284 4-310 11l-43 11-4 211c-3 117-8 220-12 230-7 14-3 17 18 17 24 0 138 39 181 62 10 6 38 21 61 33 107 57 154 120 179 239 34 160 7 236-110 315-56 38-126 57-247 68-70 6-65-12-73 268-3 110-8 282-11 382-5 134-4 186 5 197 10 11 7 19-10 35-25 23-35 26-44 11-4-6-218-10-610-10-587 0-605 1-637 20-43 26-122 27-164 1-21-13-35-16-41-10-10 10-1062 5-1317-6-135-6-216 6-216 32 0 7-9 13-20 13-14 0-21-9-25-33zm2969-906c6-9 37-16 146-31 190-26 233-41 299-105l56-54-1-83c-2-172-33-228-169-307-41-24-201-91-216-91-5 0-9 9-9 20 0 27-34 26-54-1-14-21-15-21-83-5-74 18-155 51-190 77-12 9-39 36-58 59-36 44-36 44-32 124 10 161 27 209 107 299 44 49 74 67 155 95 40 13 43 13 49 3zm-1282-382c23-39 54-36 51 4l-2 27h109 110l2-360 3-360h-177c-107 0-179-4-183-10-19-30-25 2-25 128 0 88-4 142-11 149-8 8-8 30 0 80 6 37 12 121 14 186 4 97 2 117-10 117-27 0-8 35 27 52 52 25 73 22 92-13z"/><path d="m22056 12539c-15-17-34-45-43-63-24-48-103-166-148-223l-42-51-30 26c-20 18-34 45-43 77-17 68-51 167-63 183-11 15-43 16-52 2-4-6-3-16 2-23 13-16 48-119 63-182 8-36 23-62 53-92 60-63 82-59 149 25 30 37 76 102 104 145 27 43 64 100 82 127 17 27 32 56 32 65 0 26-37 17-64-16z"/><path d="m4570 13603c-8-3-34-22-57-42-22-20-62-53-87-74-46-38-61-77-30-77 15 0 56 31 149 113 52 46 65 48 33 5-14-18-42-64-63-101-35-63-38-75-39-152l-1-84-75-3c-59-2-75-6-75-18 0-21 101-25 240-10 102 12 145 27 145 51 0 8-66 5-155-5l-31-4 4 71c4 62 10 82 46 145 22 40 52 92 65 116 30 53 24 76-21 75-18 0-40-3-48-6z"/><path d="m9435 13471c-89-5-110-9-110-21s20-15 110-18c113-2 195 12 203 36 4 13 2 13-203 3z"/><path d="m9470 13383c-53-8-170-56-170-68 0-26 21-26 93-2 40 14 110 28 158 32 95 8 124 18 99 35-14 9-128 12-180 3z"/><path d="m6164 13280c-37-15-91-92-112-160-11-36-31-135-46-220s-31-171-36-191c-6-20-10-53-10-73 0-33 3-37 22-34 19 2 26 14 39 68 9 36 22 106 29 155 23 164 21 160 60 163 66 6 200 52 231 80 57 51 49 149-17 201-20 16-40 21-83 20-31 0-66-4-77-9zm137-61c44-47 34-105-23-135-42-22-171-54-180-45-5 4-1 33 7 65 34 129 130 185 196 115z"/><path d="m10450 13159c-105-71-110-76-110-120 0-34 5-42 38-63 20-13 60-29 89-36 28-6 73-25 99-41 44-28 46-32 41-65-10-59-55-88-158-99-69-7-92 4-101 50-5 32-42 26-46-8-2-20 5-35 27-57 28-28 34-30 108-30 152 1 245 79 219 184-9 36-64 74-148 102-144 48-149 62-43 135 90 62 108 64 99 8-7-39-6-41 17-37 19 2 26 11 33 47 9 40 7 46-13 63-37 29-70 22-151-33z"/><path d="m914 13086c-107-28-172-59-239-115-49-41-95-110-95-143 0-14-5-15-32-7-49 14-68 11-68-9 0-22 38-42 79-42 17 0 37-10 52-26 33-36 95-61 170-70 61-7 61-7 27-19-41-14-105-60-118-86-6-10-10-33-10-51 1-63 39-88 137-88 38 0 102 9 143 20 117 32 260 81 266 92 20 32-54 26-171-13-49-17-116-37-149-44-65-15-150-10-167 11-17 20-3 57 30 81 27 21 199 93 221 93 5 0 10 8 10 18 0 16-15 20-132 28-87 7-147 17-173 28l-40 18 93 24c112 29 256 100 343 169 54 43 65 104 24 131-40 26-102 26-201 0zm166-41c11-13 9-20-10-40-24-25-118-84-205-128-41-20-198-67-226-67-21 0 12 62 56 106 62 62 114 91 220 120 96 27 148 30 165 9z"/><path d="m2099 13091c-187-73-301-279-287-516 6-95 20-128 51-123 24 3 37 26 62 109 27 86 27 87 74 50 45-36 243-139 306-160 44-14 102-12 97 4-2 6-31 21-65 35-119 49-262 123-309 160-47 38-47 38-20 45 41 9 158 93 198 141 83 102 95 193 34 254-25 25-78 26-141 1zm119-64c28-59-36-163-147-242-36-25-69-45-73-45-5 0-1 16 7 36 20 50 19 74-4 74-13 0-26-17-44-60-17-38-32-60-43-60-13 0-15-7-10-32 4-22-1-46-14-73l-20-40 4 94c4 82 9 102 40 165 42 84 109 156 180 191 65 33 106 30 124-8z"/><path d="m9055 13074c-76-28-135-126-135-224 0-24-12-91-26-148-24-94-25-106-11-120 13-13 19-13 31-2 9 7 16 22 16 34 0 11 13 66 28 121l27 100 47-3c122-8 251 146 191 227-17 22-28 26-74 28-30 0-72-5-94-13zm124-38c29-34-36-127-104-151-52-17-69-5-60 44 10 51 31 87 57 96 13 4 32 11 43 15 32 12 52 11 64-4z"/><path d="m19379 12879c-49-35-98-88-99-106 0-22-44-36-130-42-66-5-85-9-85-21s17-16 79-18c43-2 91 1 105 6 21 7 32 5 50-9 27-22 83-39 131-39h35l-60-40c-69-45-167-135-184-167-17-33-13-78 8-104 17-21 28-24 117-27 88-3 114 0 238 33 152 39 179 51 215 89 30 32 30 32-66 2-164-52-287-78-360-78-115 1-132 13-97 70 20 34 125 123 192 165 36 22 52 39 52 53 0 31-16 39-99 52-40 6-78 15-82 19-6 6 24 31 71 62 79 51 100 80 86 116-10 26-69 18-117-16z"/><path d="m1522 12458c-7-7-12-22-12-35 0-30-41-121-79-176s-48-92-28-100c17-6 27 5 80 83 39 59 87 168 87 198 0 17-18 42-30 42-3 0-11-5-18-12z"/><path d="m668 12078c-90-94-105-134-67-182 36-46 77-23 45 26-17 26-11 39 46 106 30 35 38 39 38 17 0-23 34-35 95-35h56l-19-27c-35-50-93-201-102-265-14-91-12-106 11-129 19-19 30-21 93-17 79 5 166 38 166 62 0 21-11 20-100-5-41-11-85-17-98-14-23 6-24 9-20 73 5 91 66 235 131 309 52 60 54 65 32 83-12 10-23 8-58-9-43-21-91-27-121-15-8 3-20 21-26 40-16 48-42 44-102-18z"/><path d="m22905 12080c-11-5-81-9-156-9-103-1-139-4-148-15-13-15-9-902 4-991 4-30 2-76-5-116-7-37-10-78-6-93 6-25 8-26 91-26 46 0 87-4 90-10 3-5 16-10 29-10 34 0 46-49 46-183v-116l-217-5c-120-3-292-10-383-16s-428-15-750-20c-753-12-935-20-935-40 0-17-42-17 965 0 327 5 667 14 755 20s262 13 387 16l227 5 7 44c7 51 0 239-11 273-7 22-7 22 109 22 114 0 116 0 122 24 3 13 3 57-1 98-4 40-10 316-14 613-3 297-8 541-9 543-6 6-180 0-197-8zm145-579c0-356 4-552 10-556 6-3 10-26 10-51v-44h-129c-76 0-132 4-136 10-3 6-30 10-59 10h-53l-6 63c-10 97-17 146-28 173-5 15-9 216-9 475v449l128 1c70 0 147 4 172 8 25 5 57 9 73 10l27 1z"/><path d="m1900 11980c-133-48-176-73-188-110-13-35-6-60 15-60 13 0 14-10 9-54-5-40-3-62 10-89 22-46 58-61 134-54 48 4 69 12 114 45 65 46 141 128 156 166 11 30 13 86 4 111-11 29-65 47-148 51-45 2-92-1-106-6zm190-58c49-39-8-138-133-229-39-29-59-36-93-36-67 0-77 14-72 103 5 96 21 129 78 157 60 29 186 32 220 5z"/><path d="m4724 11975c-8-20 6-36 101-112 44-36 95-83 114-106 38-48 105-177 132-254 39-113 49-409 19-535-25-103 13-87 49 21 35 107 27 392-16 526-29 94-111 239-165 296-60 61-203 179-218 179-6 0-13-7-16-15z"/><path d="m1447 11944c-4-4-69-10-144-13-113-5-138-9-138-21s20-16 110-18c133-3 280 17 280 38 0 11-14 16-50 18-28 2-54 0-58-4z"/><path d="m14465 11916c-74-19-117-40-158-75-75-67-87-104-109-346-18-195 8-268 131-369 92-75 152-96 276-96 172 0 290 40 432 146 51 38 81 70 106 111 48 83 57 116 63 233l6 105-43 85c-39 75-51 90-106 126-109 73-162 86-368 90-126 2-195-1-230-10zm436-56c36-11 91-36 123-57 48-32 64-50 92-105 31-62 34-75 34-161 0-156-42-246-155-330-128-95-234-131-390-130-120 1-153 13-246 89-99 81-112 117-107 298 4 140 5 142 41 211 39 74 45 95 25 95-16 0 19 37 58 61 18 10 65 28 106 39 62 17 94 19 213 14 94-3 162-12 206-24z"/><path d="m14458 11698c-20-58 155-398 223-433 34-18 73-19 86-2 11 14 54 136 77 217 21 74 83 151 133 165 22 6 39 18 41 28 3 14-4 17-40 16-24 0-51-4-60-7-30-12-115-138-127-189-16-67-62-193-70-193-17 0-62 62-111 150-79 143-82 149-94 204-9 40-16 52-33 54-11 2-23-3-25-10z"/><path d="m13145 11858c-142-21-165-28-165-50 0-18 4-19 68-13 69 7 162 29 196 47 15 8 16 12 5 19-16 10-20 10-104-3z"/><path d="m1284 11830c-107-22-204-59-204-77 0-25 29-25 102 0 85 29 163 44 271 53 77 7 102 18 76 35-22 14-156 8-245-11z"/><path d="m23429 11771c-45-49-99-180-99-245 0-32-7-52-24-73-20-24-25-40-25-86 0-32-5-73-11-93-13-39-8-64 14-64 19 0 38 35 45 82l6 37 65-32c166-83 270-107 278-66 2 12-8 18-37 23-41 6-70 18-209 83-103 49-106 71-14 114 97 46 236 135 260 168 26 33 32 72 19 122-10 38-86 69-168 69-59 0-64-2-100-39zm179-21c36-16 42-23 42-50 0-50-31-82-139-143-91-52-121-65-121-52 0 2 12 34 27 70 22 53 25 70 16 84-9 15-7 26 13 55 40 59 88 70 162 36z"/><path d="m6223 11778c-18-30-42-118-48-181-9-87 5-107 76-107 36 0 55 6 78 26 17 14 31 21 31 16s-18-51-41-101c-30-69-39-101-37-133 3-48 27-70 56-52 23 15 28 44 8 44-25 0-20 21 40 163 66 156 86 216 78 240-9 28-42 20-59-16-21-45-116-136-146-139-22-3-24 0-27 52-2 37 4 73 18 113 17 46 19 61 10 73-15 17-26 18-37 2z"/><path d="m4423 11597c-50-13-55-32-19-67 28-25 56-21 56 9 0 16 9 21 53 26 29 4 66 5 82 3 69-7 24-98-78-157-71-41-137-99-137-121 0-16 12-19 93-24 50-3 124-9 163-12 56-4 73-2 83 10 11 13 11 17 0 20-15 5-101 16-194 25-68 7-72 1 47 79 98 63 138 152 92 203-15 16-30 19-108 18-50-1-110-7-133-12z"/><path d="m11467 11538c-9-29-19-66-23-83-4-16-23-60-42-98-34-68-36-92-6-104 20-7 53 32 54 63 0 12 9 33 20 46 16 21 30 26 82 30 35 3 71 8 81 13 15 6 17 1 17-40 0-59 13-83 55-101 55-23 125-17 206 16 41 16 75 30 75 30 1 0 4-19 7-42 3-26 15-51 31-67 24-23 36-26 112-30 78-3 88-1 110 20 13 12 26 30 30 41 3 10 12 18 20 18 9 0 50 12 92 26 68 24 77 25 87 11 18-25 60-37 125-37 45 0 71 7 115 30 66 35 65 35 65 15 0-54 200-62 300-11 30 16 70 40 88 53l34 25-7-55c-7-54-6-58 23-87 24-24 39-30 72-30 66 0 150 54 150 97 0 26-12 30-29 10-20-25-98-59-127-55-27 3-29 6-32 55-2 40 4 66 27 118 17 36 28 72 24 80-9 25-41 17-57-13-8-16-41-50-73-76-104-86-199-122-288-108-63 9-68 28-25 108 27 50 29 60 16 72-22 22-45 7-67-43-34-77-132-138-217-136-80 2-90 15-48 61 44 49 55 69 57 111 4 48-6 59-51 59-33 0-41-5-59-34-12-18-24-49-27-67-3-19-7-43-9-55-5-23-32-38-115-64l-54-18-36 29c-41 33-87 49-142 49-21 0-38 3-38 6 0 4 16 24 35 45 26 29 35 48 35 74 0 30-3 35-24 35-36 0-78-41-100-97-21-56-53-82-137-115-51-20-113-25-151-12-15 4-18 17-18 69 0 104-9 111-100 75-28-11-65-20-82-20-30 0-30 1-23 38 14 69 12 116-7 120-12 2-20-10-31-50zm1072-100c-7-13-14-18-16-11-3 7 1 22 8 35s14 18 16 11c3-7-1-22-8-35zm-395-118c12 0 31-7 42-15 18-14 17-14-16-9-67 10-80 14-80 25 0 6 7 8 16 5s26-6 38-6zm32-70c57 0 57 0 38-21-17-19-26-20-79-14-65 7-85 18-85 46 0 17 2 17 35 3 19-7 60-14 91-14z"/><path d="m19964 11571c-99-32-106-47-110-236-2-83-7-170-12-193-7-30-6-46 3-59 20-27 39-4 52 64 14 70 24 251 14 257-13 8 1 85 17 98 38 31 173 56 231 43 26-6 31-11 31-36 0-39-54-86-169-148-75-40-81-76-18-122 133-98 339-160 377-114 15 18 12 19-80 34-63 10-216 78-268 119l-23 18 34 19c36 21 119 75 153 99 57 40 65 137 13 163-34 18-183 14-245-6z"/><path d="m10071 11514c-37-33-43-35-54-21-30 40-135 49-202 18-47-22-89-64-104-104-14-36-14-104-1-112 20-13 8-23-52-45-35-13-69-25-75-27-9-4-13 5-13 25 0 51-16 80-49 87-29 6-30 8-16 29 8 12 16 42 17 66 2 58-24 80-98 80-45 0-56-4-68-22-27-44-27-73-1-111 13-20 20-39 15-42-14-9-93 7-117 23-12 7-36 36-53 63-21 34-36 49-51 49-13 0-53-29-101-76-101-96-112-95-116 10-2 64 0 80 14 91 21 15 12 45-14 45-38 0-54-34-59-124-6-84-6-85 25-115 51-52 82-42 185 58 50 49 59 54 68 39 21-38 61-76 93-92 38-18 131-21 172-6 19 7 36 7 60-2 32-11 34-15 34-58v-45l-76-28c-57-22-90-42-137-86l-61-58 2-73c2-40 9-87 16-105 28-65 131-109 205-87 78 24 111 109 111 293v116l108 40c85 32 113 38 137 31 57-16 163-10 208 13 26 12 68 22 109 24 37 2 75 8 85 13 12 7 24 5 40-5 36-24 200-12 247 16 46 29 52 26 22-10-14-17-26-41-26-55 0-19 5-24 26-24 20 0 45 18 95 71 38 39 69 66 69 60s9-20 20-31c25-25 116-27 179-5 38 13 41 13 41-4 0-31 64-79 116-87 60-9 156 2 194 21 50 26 54 94 7 129-37 27-138 34-191 12-61-25-64-19-14 27 26 23 50 55 53 70 24 92-71 66-125-36-35-66-127-116-190-102-26 6-30 11-30 40 0 19 5 45 11 59 16 34-2 55-44 54-23-1-46-14-80-43-100-87-244-146-317-130-17 4-30 8-30 10s12 21 26 42c15 22 24 47 21 60-2 13 2 24 9 27 22 9 16 30-17 62-28 27-36 29-124 32l-93 4zm229-39 25-25h-24c-34 0-61-28-61-61 0-40-22-57-85-64-62-8-105 10-105 45 0 47 42 112 85 131 11 5 47 7 80 4 46-4 65-11 85-30zm-337-29c-3-38-51-87-119-123-65-34-90-26-88 30 2 76 84 139 166 127 40-5 43-7 41-34zm-505 14c17 0 15-56-4-74-19-20-23-20-46 1-32 28-20 89 16 79 11-3 27-6 34-6zm564-151c21-16 20-17-34-28-31-7-67-9-81-6-26 7-25 7 21 42 26 20 52 43 57 52 8 13 11 10 13-14 2-16 13-37 24-46zm1194 17c46-35-46-79-142-67-86 12-97 32-31 61 51 23 145 26 173 6zm-1706-298c0-166-25-228-91-228-85 0-129 52-129 153 0 49 3 56 43 94 38 38 133 91 165 92 9 1 12-28 12-111z"/><path d="m6649 11505c-40-30-63-57-89-107-18-34-23-37-50-31-26 5-30 3-30-16 0-15 9-25 28-32 23-8 29-16 29-41 0-68 99-105 197-75 35 11 80 40 141 91 49 41 91 73 93 71s-2-23-9-46c-7-24-16-62-20-84s-22-78-38-125c-44-122-41-220 6-220 26 0 41 48 73 240 10 55 20 78 66 140 30 41 78 94 107 119l52 44 5-79c7-115 33-144 131-144 54 0 106 18 128 43 9 12 29 17 63 17 41 0 62 8 131 50 45 28 92 58 105 67 22 15 22 15 22-33 0-39 11-70 53-153 39-77 49-105 38-109-7-2-53-31-101-63-112-75-180-160-180-225 0-103 32-125 149-102 102 21 158 58 203 135 30 53 32 64 30 132-1 41-4 82-7 92-5 13 8 25 52 49 32 17 78 49 103 70 51 46 48 45-97-18l-92-39-46 90c-40 80-45 97-45 158 0 78-12 119-36 119-10 0-36-19-58-42-37-38-190-138-211-138-5 0 1 10 13 23 28 30 42 70 42 122 0 46-10 55-58 55-61-1-102-63-104-155-1-59-4-68-25-82-30-20-106-21-127-3-12 9-16 33-16 97 0 88-10 123-36 123-30 0-91-39-151-99-35-34-63-58-63-53 0 4 11 43 25 86 19 60 22 82 14 92-18 22-37 17-54-13-35-66-205-222-272-249-68-29-143-12-143 31 0 18 8 26 35 35 87 29 197 157 166 194-22 26-100 21-142-9zm91-21c0-15-43-63-80-89-70-48-63-7 10 58 35 33 70 48 70 31zm806-68c-4-18-17-43-31-56l-25-23v35c0 25 9 47 27 69 30 35 39 27 29-25zm382-440c2-57-1-74-24-116-39-72-123-120-210-120-24 0-33 5-38 23-12 45-5 69 35 120 41 53 202 171 223 164 6-2 12-32 14-71z"/><path d="m23790 11303c-8-4-34-22-57-41-31-25-44-44-48-70-4-21-11-47-17-59-6-11-8-25-5-30 6-10-2-105-22-255-12-89-7-110 23-106 18 3 22 12 27 68 6 70 17 166 25 215 4 29 5 30 53 27 131-9 224 95 192 216l-12 42-72-1c-40 0-79-3-87-6zm120-83c0-40-5-56-28-81-30-34-92-52-131-38-26 10-21 40 19 109 27 45 48 57 108 59 32 1 32 1 32-49z"/><path d="m1739 11065c-3-2-135-9-295-14-159-6-325-15-370-21-87-11-356-28-599-39-124-5-150-9-150-21 0-13 24-15 155-15 158 1 436 15 660 34 250 21 649 33 1272 38 577 5 640 4 663-11 40-26 73-17 59 17-13 35-43 37-723 37-367 0-670-2-672-5z"/><path d="m1915 10793c-72-21-105-56-105-109 0-55 8-74 31-74 16 0 19 8 19 48 0 75 36 96 184 108l84 7 22-43c28-56 23-89-29-183-40-72-82-124-133-163-14-11-49-50-76-87-42-54-52-76-57-123-12-88 30-194 76-194 24 0 24 20-1 67-14 26-20 57-20 100 0 55 4 66 36 110 20 26 71 82 113 124 131 130 189 275 145 362-33 65-38 67-143 66-55 0-117-7-146-16z"/><path d="m767 10623c-6-12-25-93-36-158-6-33-19-107-30-165s-23-156-26-218c-6-95-4-117 9-137 42-64 169 10 252 148 20 31 38 57 41 57s3-27-1-60c-14-119 28-184 113-178 33 2 47 8 49 19 2 13-8 18-42 23-30 5-50 14-56 26-25 46-4 258 40 410 28 94 26 120-5 120-22 0-33-23-60-125-15-54-35-116-46-137-34-67-126-202-155-229-27-25-66-49-78-49-9 0-6 189 3 240 5 25 21 112 36 194 14 82 33 159 41 171s12 30 8 39c-6 16-49 23-57 9z"/><path d="m11225 10478c-105-14-236-42-253-54-24-17-7-48 21-39 65 20 96 25 313 53 73 10 114 25 114 42 0 12-97 11-195-2z"/><path d="m7981 10356c-7-9-17-50-22-93s-14-90-20-105c-13-33 6-81 35-86 23-5 36 14 36 50 0 24 4 27 48 33 26 4 105 26 175 50l128 44-6-52c-6-44-3-56 15-79 38-49 124-60 220-29 53 17 56 17 90-1 69-35 201-49 235-25 25 19 10 26-82 37-43 5-91 14-108 20l-30 11 60 32c107 57 115 119 16 125-42 2-61-2-97-23-42-25-50-37-56-94-4-30-51-49-121-50s-87 11-87 62c0 23 4 58 10 77 11 40 5 70-15 70-8 0-31-11-51-25s-44-25-53-25c-10 0-21-4-26-9-11-10-159-56-224-70l-43-9 3 85c4 88-5 110-30 79zm794-116c5-8-82-60-100-60-17 0 21 44 48 55 39 17 44 18 52 5z"/><path d="m9503 10363c-12-2-27-11-34-19-23-28 3-34 99-22 51 6 94 9 97 6 3-2-6-38-19-79-44-134-46-199-7-199 22 0 31 19 31 65 0 39 35 160 56 193 14 21 19 22 192 22 174 0 225 8 192 30-14 9-560 12-607 3z"/><path d="m10152 10325c-36-31-56-75-50-115l5-31-54 7c-49 6-53 5-53-14 0-28 24-33 197-38 167-5 209 3 333 66 57 29 57 29 74 8 16-18 27-20 107-16 49 2 89 3 89 2 0-6-29-114-55-201-16-58-25-110-23-140 3-44 5-48 28-48s24 4 26 55c0 30 13 96 28 145 14 50 34 115 42 145 9 30 25 72 36 93 19 39 18 67-2 67-6 0-28-13-48-29-44-35-112-55-153-46-29 7-30 8-23 51 5 37 4 44-11 44-9 0-36-16-59-35-54-44-179-102-237-111l-44-6 36 25c63 45 75 117 22 138-13 5-60 9-103 9-69 0-82-3-108-25zm151-21c47-8 49-31 4-61-42-29-81-43-118-43s-45 19-25 59c26 49 55 58 139 45z"/><path d="m5787 10323c-4-3-7-12-7-20 0-10 26-13 115-13h115v-42c0-59-19-170-31-185-13-15-3-33 16-33 22 0 55 41 55 68 0 13 7 61 17 108l16 84h98c111 0 135 5 118 26-9 11-60 14-259 14-135 0-250-3-253-7z"/><path d="m11194 10317c-46-18-125-88-141-124-7-18-13-54-13-81 0-42-3-50-25-60-14-6-25-16-25-22 0-17 29-24 53-13 16 7 33 5 66-10 38-16 58-19 125-13 87 6 128 26 134 64 3 20 2 20-27 6-35-18-156-30-197-20-26 7-24 9 48 49 91 51 168 132 168 178 0 25-6 33-35 45-41 17-88 17-131 1zm116-49c0-20-112-121-167-151-47-25-53-26-53-10 0 64 36 114 114 160 28 16 106 17 106 1z"/><path d="m14875 10301c-74-31-147-169-99-188 11-4 4-12-28-31-46-26-205-92-224-92-6 0-32 18-58 41l-46 41 30 34c40 46 41 94 4 123-33 26-76 27-96 4-21-24-31-93-19-126 13-34 2-40-102-62-70-14-127-13-127 4 0 4 16 21 35 38 29 26 35 38 35 70 0 47-19 67-99 106-50 25-65 27-176 27-78 0-125-4-132-11-8-8-10-42-6-110 7-109 0-129-46-129-14 0-41 9-58 20-30 18-33 24-33 69 0 59 21 90 70 100s46 35-4 39c-28 3-48-3-75-22-26-18-50-26-82-26-24 0-82-7-129-16-47-8-134-17-195-18-91-3-111-6-113-19-4-18 51-37 107-37 31 0 33-2 28-27-5-26-38-151-52-199-4-12-2-25 4-29 20-12 51 6 57 33 9 44 26 115 35 147 4 17 11 42 13 56 5 23 13 28 68 38 108 21 162 33 191 42l29 9-7-49c-10-72 12-113 75-140 67-29 103-27 141 7 30 26 31 32 33 107 0 44-3 87-7 96-11 22 17 29 109 29 60 0 80-5 135-32 38-20 65-40 67-52 2-11-10-33-31-55-46-47-55-81-28-105 18-17 32-18 115-13 56 4 115 14 147 26l53 21 35-35c19-19 38-35 43-35 20 0 5-19-24-29-53-19-128-72-154-110-33-49-33-109 0-140 23-22 31-23 118-19 133 7 231 55 252 125 9 27-26 100-62 129l-26 21 29 15c17 9 41 19 55 23s91 40 172 81c80 41 151 74 156 74s12-19 15-42c4-34 14-51 46-79 34-30 51-38 101-43 55-6 113-2 150 11 24 8-23 22-102 30-93 8-132 34-136 88-4 71-11 85-36 85-22 0-23 2-15 47 6 31 5 50-2 60-13 14-91 17-124 4zm75-50c0-37-19-70-49-86-35-18-81-20-81-3 0 21 52 80 84 94 41 18 46 17 46-5zm-522-72c1-9-6-27-17-40l-20-24-1 43c0 36 3 43 17 40 10-2 19-10 21-19zm131-294c37-43 48-79 30-102-42-50-247-90-272-52-27 42 31 114 128 160 33 16 65 29 71 29 7 0 26-16 43-35z"/><path d="m6415 10276c-48-14-83-68-92-145-10-89 40-141 136-141 69 0 108 16 173 72 44 38 59 58 64 86 8 41 18 52 53 52 23 0 23-1 20-92-4-93-4-93 21-96 18-2 39 10 75 41 48 42 50 43 60 23 18-36 54-46 165-46 108 0 149 11 120 30-8 5-44 10-80 11-36 0-85 4-110 7-39 6-45 10-48 33-4 30 10 42 121 103 64 35 83 61 54 72-34 13-250-120-304-186-10-12-12 1-13 66 0 106-8 114-87 84-51-19-58-20-69-6-29 41-172 59-259 32zm185-43 25-6-25-7c-32-10-118-10-150 0-25 7-23 10 20 23 16 5 89-1 130-10zm-58-61c106 4 108 4 102-16-9-32-94-103-135-114-51-13-96-4-119 26-23 29-24 34-9 85 9 34 12 36 31 26 14-7 60-10 130-7z"/><path d="m11970 10283c-8-3-39-27-68-52-50-42-55-44-65-26-24 44-57 67-85 60-47-11-130-74-164-125-17-25-17-25-17 21-1 54-21 80-46 59-12-10-15-38-15-130s3-120 15-130c20-17 42 1 50 43 10 47 73 133 129 178 27 21 52 39 56 39 17 0 32-50 25-89-6-38-5-41 17-41 15 0 51 26 103 75 44 41 85 75 92 75 29 0 35-42 28-176-6-119-5-135 9-140 23-9 26-5 39 72 16 102 12 219-11 257-18 32-56 44-92 30z"/><path d="m1400 10191c-75-5-95-9-95-21s17-16 85-18c103-4 141 3 172 28 23 19 23 19-22 18-25-1-88-4-140-7z"/><path d="m12422 9968c-7-7-12-32-12-57 0-54-23-119-79-221-58-106-55-142 6-77 54 57 133 230 133 293 0 36-15 74-28 74-5 0-13-5-20-12z"/><path d="m1484 9842c-6-4-19-29-28-57-60-187-110-333-118-347-13-26-27-22-39 10-26 68-70 266-64 292 4 16 2 31-5 35-6 4-15 18-20 31-6 14-18 24-29 24-40 0-40 0 26-255 44-169 59-199 104-203 60-5 84 38 175 321 9 27 20 45 26 41 27-17 37 58 12 94-16 24-23 26-40 14z"/><path d="m1965 9820c-3-5-14-10-25-10-25 0-33-29-15-56 13-20 24-24 65-24 40 0 50 4 55 20 14 43-58 106-80 70zm20-40c3-5 1-10-4-10-6 0-11 5-11 10 0 6 2 10 4 10 3 0 8-4 11-10z"/><path d="m16776 9278c-54-15-122-86-170-178-34-64-40-86-43-150-5-94 17-139 95-190l53-35-26-22c-38-33-123-32-162 1-27 23-28 28-27 113 0 64 5 97 18 122 19 36 11 55-20 49-47-9-76-217-41-284 32-62 152-93 230-60 18 7 44 25 59 38 18 18 41 27 77 30 32 3 62 14 83 30 24 18 39 23 53 17 42-16 92-8 164 26 84 40 81 40 81 20 0-22 33-35 89-35 65 0 98 13 144 58l37 36v-37c0-93 49-137 150-137 59 0 98 15 170 64 29 20 56 36 61 36s8-20 7-45c-1-52 21-85 59-85 28 0 28 3 6 41-14 24-15 37-7 78 11 55 3 91-22 91-14 0-16 7-11 42 7 49-6 78-34 78s-77-27-88-49c-23-43-43-116-38-141 5-23 1-29-29-43-46-23-127-22-150 0-14 15-16 31-11 105 6 88 6 88-19 88-15 0-45-19-83-54-75-69-113-89-152-81-36 8-36 15 0 90 16 32 26 65 24 73-8 21-45 10-62-19-40-66-70-94-136-125-78-38-135-45-135-16 0 9 5 34 11 55 13 49 4 79-24 75-13-2-23-12-25-23-15-88-63-165-104-165-18 0-17 4 10 53 43 75 60 145 68 283 5 101 4 125-10 152-9 18-22 32-29 32-6 0-21 2-32 4-11 3-38 0-59-6zm72-156c2-79-2-133-13-175-16-62-71-167-91-174-21-7-101 57-119 96-32 71-2 178 81 292 35 49 85 81 119 76 18-2 20-11 23-115zm961-262c-13-22-26-40-30-40-8 0 19 78 35 99 22 29 18-18-5-59z"/><path d="m8783 9098c-6-7-13-56-17-108-7-120-12-137-41-144-32-8-57-74-49-129 8-49 20-67 44-67s44 34 60 102c11 50 15 56 31 48 48-26 198-2 261 41 14 11 29 19 32 19s6-21 6-46c0-56 24-100 63-114 39-13 113-13 157 1 19 6 50 10 68 10 44-1 86 17 144 62l46 36 26-37c37-54 106-89 129-66 3 4-17 30-46 59-72 72-97 108-97 143 0 39-20 54-80 60-38 3-56 0-83-17-49-30-88-92-95-148-3-27-10-51-16-55-18-12-131-9-144 4-15 15-16 142-2 168 13 24 3 50-19 50-10 0-27-13-39-29-24-33-90-72-161-96-42-14-60-15-104-5l-54 11 9 47c18 98 21 181 8 197-15 18-24 19-37 3zm765-184c9-7-12-47-36-70-35-33-111-78-119-70-15 14 20 86 57 120 33 30 45 35 68 30 15-4 29-8 30-10z"/><path d="m5985 9023c-9-21-21-57-27-81-7-31-18-46-34-52-49-19-66-122-23-135 26-9 34-1 61 51 21 44 24 45 58 40 109-18 117-18 183 3 37 11 76 25 87 31 18 10 19 7 13-40-7-58 10-90 59-116 42-22 120-14 186 20 28 14 59 26 69 26s35 12 56 26c34 23 40 24 55 11 33-28 90-40 138-28 54 14 150 62 227 114 32 21 61 36 64 33s1-18-5-33c-19-47-19-84 0-96 14-10 27-1 80 55 62 65 138 114 163 104 7-2 14-28 17-63 5-71 35-133 73-152 42-20 116 6 185 66 35 31 51 41 46 28-4-11-23-94-42-185-70-333-71-334-30-328 18 3 24 16 39 83 10 44 29 116 41 160l22 80 50 6c58 7 123 39 145 71 34 50 49 107 40 149-14 62-37 81-91 77-25-3-52-8-61-12-13-6-16-2-12 18 4 18 0 28-11 32s-46-23-116-89c-157-150-202-151-221-6-12 84-30 119-62 119-39 0-118-34-158-68-21-18-39-32-39-29 0 2 5 18 11 36 8 24 8 35-1 46-15 18-44 19-62 2-27-25-175-116-241-147-100-48-166-31-167 42 0 33-9 58-21 58-5 0-18 9-29 20-17 17-31 20-77 18-47-3-59-7-76-29-28-39-41-117-23-144 14-21 12-23-20-39-19-9-55-16-79-16-37 0-47 4-61 26-16 24-16 29-1 78 9 29 30 65 47 81 62 59 18 92-46 35-79-69-192-105-296-95-38 4-68 11-68 16s9 32 20 61c26 69 26 98 0 98-13 0-25-12-35-37zm673-83c6 0 12-10 12-21 0-23-78-101-92-93-13 9-9 63 8 95 12 24 20 30 37 25 12-3 28-6 35-6zm1272-94c0-70-69-146-133-146-27 0-29 2-22 28 3 15 20 57 37 95 26 56 36 69 62 76 38 10 56-7 56-53z"/><path d="m12325 9012c-17-11-43-34-58-51l-27-32-157 4c-87 2-170 8-185 12-22 6-29 3-35-11-4-12 0-21 13-28 23-14 84-75 84-85 0-5-26-20-58-34-57-26-100-33-176-29-38 2-39 2-33 37 7 44 44 105 63 105 7 0 19-9 26-20 15-24 58-27 58-4 0 27-56 74-88 74-72 0-142-155-98-216 13-17 27-19 113-19 85 0 105 3 155 27 63 29 68 27 68-41 0-20 6-45 13-55 23-32 50-11 87 66 19 40 47 91 62 112 16 21 28 45 28 53 0 7 11 13 24 13 18 0 23-5 21-17-15-74-14-84 5-103 25-25 105-27 138-4 21 14 26 14 56 0 19-9 56-16 83-16 53 0 160 28 212 55l34 17 56-56c63-63 88-70 96-28 11 59 56 175 77 202 13 15 34 30 48 32s25 10 25 18c0 23-226 26-320 5-38-9-80-18-92-21-15-3-23-12-23-25 0-20 4-21 53-15 28 4 66 11 82 15 17 5 59 12 95 15l65 5-25-21c-29-24-190-102-269-129-56-20-171-26-171-10 0 5 16 25 36 45 46 46 45 88-1 96-27 4-30 9-30 40 0 35 0 35-50 38-35 2-59-3-80-16zm76-36c-12-15-60-30-68-22-6 6 48 35 66 36 10 0 11-3 2-14zm9-88c-23-53-79-97-115-91-27 6-29 12-19 62 5 26 12 32 43 37 20 4 50 13 66 20 44 19 46 18 25-28zm-355-23c-22-14-42-25-45-25-3 1-13 12-23 25l-18 25h63l63-1zm818-33-18-41-29 25c-15 14-27 26-25 28 15 13 85 43 87 37 1-4-5-26-15-49zm-808-49c-20-48-21-49-29-17-5 19-2 30 11 40 29 22 34 16 18-23z"/><path d="m13395 9012c-41-25-93-87-101-117-4-18-13-25-30-25-30 0-33-34-4-50 12-6 20-21 20-36s12-38 28-54c23-23 41-29 96-35 80-9 236-1 286 14 41 12 109 65 98 76-4 5-36-3-70-16-56-21-79-24-211-24-137 0-150 2-163 20-14 19-13 20 43 23 41 2 77 13 123 35 73 36 110 81 110 133 0 47-33 66-123 71-58 3-78 1-102-15zm171-45c4-4 0-23-9-43-25-52-110-90-195-86l-32 2 15 37c34 80 82 112 159 103 30-3 59-9 62-13z"/><path d="m14682 9018c-7-7-12-31-12-53 0-23-9-68-21-101-44-126-44-154-4-154 16 0 34 15 60 50 42 58 131 140 151 140 10 0 14-15 14-56 0-54 12-92 34-106 25-17 77-8 102 17 31 31 32 31 26 0-6-36 17-85 45-96 49-18 122-10 188 21 184 88 141 219-68 208-52-2-73 0-70 8 2 6-2 16-10 23-16 13-47 5-47-13 0-16-109-126-124-126-9 0-15 21-18 63-7 83-20 107-59 107-41 0-65-14-121-68-27-26-48-44-48-40 0 3 7 25 15 48 24 68 16 140-15 140-3 0-11-5-18-12zm621-190c37-14 34-41-7-73-53-40-125-65-166-56-33 6-35 10-38 50-4 48 8 68 53 87 32 15 109 11 158-8z"/><path d="m10425 8990c-62-30-91-88-131-252-19-79-45-177-58-218-25-82-56-208-56-227 0-17 35-17 49 0 18 23 58 155 86 287 14 68 27 126 29 128s30 5 63 6c92 4 223 78 248 140 19 48 8 102-27 131-25 21-40 25-96 25-47 0-79-6-107-20zm163-36c31-21 30-77-2-109-33-33-140-85-174-85-48 0-57 21-37 81 23 69 61 110 111 119 61 12 78 11 102-6z"/><path d="m15857 8962c-21-23-22-51-2-58 9-4 15-19 15-38 0-34 27-80 97-165 47-58 69-135 59-206-12-78-100-155-178-155-44 0-58 15-58 62 0 35 3 39 55 64 72 35 88 54 48 54-43 0-118-28-139-52-14-15-18-33-17-72 2-43 7-55 34-80 29-26 37-28 86-23 95 10 162 57 203 142 39 81 16 216-49 293-71 85-81 102-81 153 0 89-33 125-73 81z"/><path d="m11353 8941c-58-10-112-56-145-121-52-104-31-150 68-150 88 0 175 34 249 96 90 77 99 124 27 158-42 21-135 28-199 17zm167-56c38-19 32-33-37-89-64-53-166-90-220-80-18 3-33 10-33 16 0 5 14 35 31 68 30 57 56 83 94 93 44 11 137 6 165-8z"/><path d="m10864 8914c-52-19-77-46-102-109-19-48-21-50-61-53-33-3-42-7-39-20 2-12 15-18 40-20 26-2 39-9 43-22 9-29 84-60 145-60 103 0 180 20 219 55 43 40 37 52-15 30-96-40-224-50-278-22-17 8-8 16 66 53 106 53 158 100 158 142 0 18-6 32-16 36-28 11-118 5-160-10zm116-37c0-7-13-23-28-34-39-28-133-75-139-69-3 3 3 22 13 43 15 29 30 42 64 55 55 21 90 23 90 5z"/><path d="m8157 8744c-24-25 7-82 39-70 24 9 15 70-11 74-12 2-24 0-28-4z"/><path d="m16220 8615c-16-19-6-45 18-45 23 0 56 35 47 49-9 16-51 13-65-4z"/><path d="m5888 8043c-42-47-154-401-169-531-12-102 0-132 54-132 78 0 188 82 343 257 70 79 75 82 69 51-3-18-7-70-8-116-2-77 0-85 22-103 29-23 90-25 153-4 48 17 117 69 106 80-4 4-45-6-92-23-49-17-97-27-112-24-26 5-26 5-22 96 3 77 9 104 40 179 20 49 34 95 31 103-11 28-42 13-90-46-195-240-326-365-419-400l-27-11 6 78c3 49 20 129 47 216 55 182 78 237 100 237 20 0 30 19 30 55 0 54-31 73-62 38z"/><path d="m9075 8001c-33-15-91-56-130-91-55-49-77-79-103-134-62-132-89-211-113-329-25-124-22-152 17-152 15 0 26 22 56 110 20 61 37 121 37 135 1 19 8 10 30-36 48-101 114-137 246-132 63 2 80 6 80 18s-20 17-87 22c-147 13-205 68-196 188 5 72 31 109 129 184 35 26 94 77 132 111 68 63 83 95 55 123-21 21-90 13-153-17zm103-30c-5-13-107-102-164-144-28-20-70-57-94-83-40-44-42-45-36-18 17 69 120 185 202 228 48 25 99 34 92 17z"/><path d="m7986 7980c-41-13-85-57-113-115-13-27-34-65-48-83-52-72-92-279-66-344 16-42 66-68 131-68 106 0 181 40 236 125 73 115 98 297 51 385-42 81-121 122-191 100zm106-73c60-54 72-139 40-263-20-74-58-142-100-180-58-51-157-65-205-29-17 12-18 25-15 107 3 65 11 110 27 151 21 53 25 58 47 53 22-6 24-3 24 31 1 79 62 163 119 163 17 0 41-13 63-33z"/><path d="m11136 7820c-34-11-73-45-92-83-8-15-35-48-59-74-46-48-59-76-70-155-5-43-3-51 20-74 25-25 30-26 119-22 80 3 102 8 159 36 114 56 186 158 187 263 0 63-21 92-81 109-41 12-143 12-183 0zm192-56c57-36-6-190-105-255-55-37-149-61-204-54l-51 7 4 53c5 59 45 125 77 125 12 0 22 13 30 40 16 54 49 90 91 99 48 10 130 2 158-15z"/><path d="m6900 7731c0-18 10-19 208-23 114-2 209-2 212 0 2 2-1 11-6 20-10 15-36 17-213 20-193 2-201 2-201-17z"/><path d="m10257 7700c-45-8-66-25-51-40 7-7 46-7 125 0 63 7 173 10 244 8 132-3 162 5 114 29-27 14-365 16-432 3z"/><path d="m8396 7635c-19-51 3-89 51-83 34 4 62 52 46 77-14 23-89 27-97 6z"/><path d="m10675 7579c-27-4-90-12-140-18-49-7-150-22-223-34-107-17-132-24-130-37 4-18 70-20 173-3 39 7 111 17 160 23 111 14 211 38 225 55 15 18-5 22-65 14z"/><path d="m7105 7509c-49-10-111-18-137-19-41 0-48-3-48-20 0-18 7-20 64-20 35 0 88 5 117 11 30 6 106 16 169 22 90 9 115 15 115 27 0 23-167 23-280-1z"/><path d="m6465 7430c-31-20-75-92-75-123 0-11-11-32-24-48-14-17-42-85-67-161-23-73-46-141-50-150-24-49 8-74 47-38 13 13 24 28 24 33s14 32 30 59c33 53 70 143 70 169 0 12 14 17 58 22 81 7 144 37 172 82 22 35 22 37 5 80-33 88-119 122-190 75zm129-64c41-63-8-113-125-129l-37-5 5 41c6 52 50 119 83 128 31 7 52-3 74-35z"/><path d="m9504 7415c-23-15-37-44-54-112-6-24-15-43-20-43-6 0-10-25-10-57 0-31-7-91-16-134-20-100-17-124 16-124 21 0 25 5 28 30 1 17 9 71 18 121l16 91 71 19c135 37 214 148 145 207-27 22-163 24-194 2zm150-31c48-18-25-109-107-133-27-7-49-12-51-10s3 32 11 67c11 48 20 65 36 72 26 10 89 13 111 4z"/><path d="m4920 6792c0-11 36-90 79-176 89-176 117-267 127-407 7-98-7-236-28-288-23-53-73-117-127-162-67-55-189-123-249-139-53-14-51-34 5-38 83-6 306 137 376 242 65 97 82 182 74 374-7 172-27 239-135 452-61 120-84 156-101 158-15 3-21-2-21-16z"/><path d="m5565 6687c-30-29-48-59-59-97-26-83-38-224-26-289 15-84 12-459-5-573-15-101-48-211-65-216-6-2-10-12-10-23 0-14 7-19 29-19 47 0 60-10 85-59 36-71 45-107 61-241 24-208 20-326-25-610-6-36-11-104-12-151-1-73 3-94 25-142 29-65 61-86 143-94 51-5 114 9 114 27 0 4-32 11-71 14-97 10-114 20-140 80-19 44-21 62-16 141 3 49 13 142 22 205s20 144 24 180c9 69 0 268-18 414-18 143-84 276-138 276-11 0-11 4 0 28 20 40 36 109 52 235 18 134 19 212 3 475-10 184-10 210 6 277 19 81 46 128 88 153 35 21 48 9 55-47 7-49 26-69 48-51 19 16 19 48-1 96s-28 54-83 54c-38 0-49-5-86-43z"/><path d="m6162 6698c-48-60-96-273-107-478-5-109-4-130 12-160 13-25 26-36 46-38 57-7 202 165 312 368 54 101 56 103 51 60-18-164-26-290-21-317 4-20 19-43 43-63 50-41 113-41 200 0 75 35 178 106 186 126 11 29-26 26-77-6-91-58-151-90-190-100-33-10-43-8-72 10l-35 22v91c0 88 26 278 50 368 14 52 6 89-19 89-22 0-84-95-159-245-77-155-237-365-265-348-14 8-2 281 16 373 16 83 35 139 63 187 14 25 16 37 8 50-14 23-29 26-42 11z"/><path d="m12873 6698c-28-35-73-283-76-413-2-79 1-95 22-132 28-48 66-68 117-60 71 12 133 88 225 277l57 115-5-140c-7-174 3-207 68-226 40-12 45-11 107 21 102 55 122 69 122 85 0 25-35 17-120-27-116-61-115-62-114 138 0 87 4 197 9 244 6 73 5 87-9 99-26 22-40 7-70-70-113-294-220-469-288-469-71 0-87 128-44 350 14 69 30 141 35 160 6 19 11 41 11 47 0 17-35 17-47 1z"/><path d="m8655 6691c-3-5-10-45-16-88s-15-107-20-143c-10-67-28-240-29-273 0-29 54-77 87-77 78 0 188 110 305 304l48 79v-147c0-141 1-148 24-171 40-40 142-59 166-30 18 22 5 32-49 37-83 8-81 1-81 248 0 172-3 220-14 229-18 15-46 3-46-19 0-10-25-67-55-127-92-184-242-359-299-351-18 3-21 11-24 58-4 53 29 331 49 418 5 24 7 48 4 53-8 12-42 12-50 0z"/><path d="m10495 6618c-21-64-34-155-40-269-6-112-5-140 8-165 43-83 144-117 217-73 52 32 173 159 190 199 15 35 15 35 21-55 4-65 12-103 28-138 26-53 61-71 88-44 17 17 10 37-13 37-31 0-39 52-44 280l-5 225h-25c-23 0-25-5-32-60-12-97-55-215-96-267-52-66-151-148-180-148-34 0-76 24-91 53-18 33-10 280 12 356 8 30 13 61 10 68-7 17-42 17-48 1z"/><path d="m4661 6433c-48-25-60-48-38-70 16-16 18-15 46 11 26 25 38 28 112 33l84 5-44-26c-23-14-46-26-50-26-11 0-61-50-61-62 0-6 38-48 85-93s85-86 85-92c0-10-149-40-220-45-23-2-35-8-35-18 0-38 256-13 298 29 35 35 23 56-95 168l-55 52 63 36c75 44 87 56 82 87-3 22-7 23-113 26-89 2-116-1-144-15z"/><path d="m10017 6403c-3-5-8-30-12-58-3-27-9-63-12-79l-5-28-101 3c-88 3-102 2-105-12-4-22 15-28 115-36l85-6-7-31c-3-17-10-75-15-130-10-108-3-136 33-136 21 0 22 3 19 73-1 39 3 106 10 147l13 75 40 2c85 6 195 29 195 43 0 16-73 21-145 9-41-7-76-11-79-8-2 2 1 38 8 80s10 81 8 88c-4 12-38 15-45 4z"/><path d="m12210 6393c-36-8-102-17-147-20-62-4-83-9-88-21-8-22 21-50 37-34 7 7 39 12 73 12 33 0 89 7 125 14 36 8 104 17 153 21 76 6 87 10 87 26 0 17-8 19-87 18-49-1-117-8-153-16z"/><path d="m7560 6310c0-20 4-20 223-18 189 3 222 5 222 18s-33 15-222 18c-219 2-223 2-223-18z"/><path d="m12355 6244c-83-19-128-24-183-20-70 4-73 4-70-17 6-43 97-47 263-11 124 27 195 51 195 66s-93 7-205-18z"/><path d="m13943 6203c-7-3-13-9-13-15s-11-25-24-43c-13-17-38-61-55-99-27-60-118-216-126-216-11 0-46 138-51 200-7 106-11 120-33 120-45 0-43-83 6-265 17-65 48-115 71-115 36 0 108 99 181 249 22 44 49 93 60 107 34 43 24 91-16 77z"/><path d="m9415 6154c-48-25-73-54-91-103-9-25-22-58-30-72-7-14-13-39-13-55 1-16-4-58-11-94-22-125-23-155-7-169 9-7 21-10 26-6 17 10 39 66 45 115 17 128 13 120 65 120 54 0 164 48 180 79 36 66-36 201-105 201-16 0-42-7-59-16zm94-63c13-18 21-45 21-68 0-38-2-41-47-61-27-11-65-23-85-26-38-5-38-4-38 30 0 73 56 154 107 154 13 0 30-12 42-29z"/><path d="m11525 6152c-41-26-65-55-110-132-21-36-55-91-75-122l-37-57-13 27c-8 15-15 74-17 132-5 139-8 152-36 148-21-3-22-8-25-105-2-81 1-114 18-162 11-33 20-67 20-75 0-18 30-36 59-36 13 0 29 16 48 50 105 186 159 264 200 289 45 27 53 54 18 59-11 1-33-6-50-16z"/><path d="m7765 6120c-16-4-56-8-88-9-50-1-58-4-55-18 3-15 15-18 78-18 111 1 292 16 313 27 10 5 15 13 12 19-7 11-216 10-260-1z"/><path d="m6924 6036c-61-27-126-158-169-340-24-106-25-120-12-133 23-23 44-9 56 34 36 138 55 212 59 242 7 55 68 150 100 157 15 3 35 8 44 11 10 2 28-6 43-21 19-19 25-35 25-68 0-24-4-48-8-54-10-16-57-38-125-58-102-32-113-92-20-116 53-14 207-32 293-34 42-1 55 2 55 13 0 19-37 28-165 41-58 6-125 16-149 22l-45 12 65 21c138 47 164 74 153 161-5 43-14 63-39 90-28 30-38 34-81 34-27-1-63-7-80-14z"/><path d="m6204 4924c-13-30-14-42-5-57 12-19 11-33-19-187-10-52-22-152-25-222-7-118-6-130 15-172 12-25 26-46 30-46 5 0 15-3 23-6 32-12 99 68 180 216 13 25 38 70 56 100l31 55v-60c0-108 58-276 108-316 24-19 62-25 75-13 4 4-10 23-31 43-27 26-45 58-65 116-25 72-27 93-27 216 0 133-6 159-35 159-6 0-28-33-49-72-78-151-178-324-206-358-25-29-31-33-40-20-16 22-5 311 13 380 27 99 41 214 30 246-15 44-40 43-59-2z"/><path d="m8867 4729c-82-44-102-72-78-111 7-11 11-21 9-23-11-10-148-64-168-67-14-2-25-10-25-18 0-28 83-17 170 23l80 36 85-34c47-19 86-39 88-44s-21-25-51-44c-67-43-93-75-101-126-9-60 7-89 61-113 42-19 60-20 173-15 148 7 218 25 268 72 42 40 33 43-37 15-71-28-235-52-301-45-90 10-110 21-110 64 0 48 21 76 84 111 29 17 58 41 64 55 16 34 1 69-35 83-15 6-49 18-75 28-27 9-48 20-48 24 0 5 24 21 53 38 68 38 109 80 105 106-3 19-11 21-68 23-59 2-72-1-143-38zm133-14c-6-8-41-30-76-50-47-26-68-33-81-27-14 8-13 11 8 25 85 54 177 86 149 52z"/><path d="m7623 4534c-8-21 18-41 70-55 43-11 401-9 413 4 17 17-18 22-201 29-145 5-201 11-224 22-38 20-50 20-58 0z"/><path d="m7081 4436c-31-17-79-90-87-132-3-19-14-39-24-44-11-6-20-27-24-57-4-26-20-106-36-178-26-117-34-174-31-213 1-8 10-12 23-10 18 2 29 17 47 63 13 33 26 80 30 105 5 31 11 44 22 42 14-3 72-29 215-99 52-25 82-33 109-31 39 3 63 28 28 28-11 0-54 17-95 38-42 20-106 51-142 67-62 29-81 45-52 45 24 0 123 84 158 135 47 67 50 79 42 149-9 80-36 106-108 106-28-1-62-7-75-14zm113-42c11-10 16-34 16-70 0-45-6-63-31-100-29-42-121-124-139-124-5 0-15-3-24-6-12-5-16 0-16 22 0 29 32 142 58 206 29 73 99 110 136 72z"/><path d="m8059 4425c-3-2-81-9-175-14-93-5-177-12-186-16-10-4-18-16-18-27 0-19 4-20 52-14 29 4 109 11 178 16 87 6 142 15 183 30 31 12 57 23 57 26 0 6-85 5-91-1z"/><path d="m4914 3019c-3-6 16-34 43-62 99-103 161-265 183-477 11-116 0-242-29-320-21-56-78-146-127-200-44-49-146-104-180-97-26 5-31-5-11-21 30-24 58-23 117 4 72 32 149 110 209 212 60 101 76 170 75 342 0 126-3 159-28 255-36 139-93 254-159 323-50 51-79 63-93 41z"/><path d="m6084 2878c-4-6-13-106-21-222-7-116-17-247-21-291-13-119 14-185 75-185 54 0 107 68 214 276l57 113 5-137c2-75 9-154 16-174 15-49 58-78 125-85 49-5 55-3 87 26l34 31-75-6c-72-6-76-5-100 21-25 27-25 27-30 288l-5 262h-25c-22 0-26-5-31-40-14-103-158-405-235-493-44-51-59-35-59 61 1 69 3 104 25 332 22 234 22 235-5 235-13 0-27-5-31-12z"/><path d="m8435 2791c-120-57-156-101-157-188 0-37-3-43-21-45-55-4-124 5-149 20-31 18-55 6-44-23 15-39 159-60 235-34 28 10 36 8 81-21 28-18 50-35 50-39s-19-21-42-39c-24-17-61-45-83-62-42-32-85-99-85-132 0-59 68-97 172-98 113 0 398 101 398 142 0 17-56 4-195-46-138-49-233-60-290-34-27 12-33 44-15 77 11 22 145 131 159 131 6 0 17 11 26 23 22 34 4 77-40 101-19 11-35 22-35 26s26 21 58 39c132 72 201 183 140 225-35 25-76 19-163-23zm135-16c0-16-32-64-62-91-45-42-146-97-165-90-21 8-10 62 20 94 40 44 207 114 207 87z"/><path d="m13349 2746c-2-2-46-9-97-15-221-27-401-111-390-182 4-31 73-76 176-115 72-27 81-33 67-44-26-22-42-61-49-122-5-50-3-61 14-78 28-28 138-28 195 0 74 35 95 64 95 129 0 53-8 58-195 121-83 28-174 65-203 83l-53 32 33 27c79 65 266 110 473 114 137 3 130 2 116 18-20 24-164 49-182 32zm-94-387c49-18 55-24 55-49 0-33-17-53-71-80-39-21-68-24-106-14-19 5-23 13-23 46 0 61 36 117 77 118 7 0 37-9 68-21z"/><path d="m4676 2648c-39-61-109-260-100-283 8-20 68-20 84 0 10 13 71 39 139 60 22 7 23 5 18-31-29-220-29-236-13-252 13-13 20-14 34-6 13 9 16 24 14 70-3 64 40 300 57 317 21 21 13 47-14 47-24 0-55-40-55-73 0-9-25-21-67-32-38-10-80-24-95-31-48-24-48-25 8 123 33 86 36 113 14 113-5 0-16-10-24-22z"/><path d="m12123 2578c-6-7-13-26-17-42-9-38-115-191-166-241-33-32-48-40-79-40-55 0-71 18-71 75 0 61-7 80-30 80s-30-19-30-82c0-44 4-54 34-84s40-34 85-34c29 0 64 6 79 14 33 17 100 87 134 139l25 38 7-38c9-58 35-84 87-90 39-4 51 0 99 32 30 21 73 56 95 77 40 40 40 40 43 14 2-14-4-36-12-48-18-26-21-90-6-119 13-23 55-25 64-3 3 9 6 28 6 43 0 24 3 27 28 23 16-2 56 7 92 22 35 14 64 26 64 26 1 0-1-25-2-55-3-48-1-57 23-79 55-51 125-44 243 21 103 57 131 131 71 189-29 28-33 29-130 29-72 0-99 3-99 13 0 26-41 10-85-32s-134-86-176-86c-28 0-33 22-19 93 7 35 10 76 6 90-9 36-41 36-60-1-35-67-190-202-232-202-47 0-51 33-28 192 9 61-17 99-43 66zm831-199c19-17 19-20 4-52-12-24-34-42-88-70-74-38-107-44-141-27-33 18-21 27 39 26 32 0 68 6 82 14 24 14 23 15-37 22-89 10-118 30-95 64 33 51 191 66 236 23z"/><path d="m9587 2543c-5-11-22-74-42-153-9-36-20-82-26-103-5-21-7-42-4-48 11-17 44-9 56 13 24 45 112 143 137 152 33 11 42-5 42-77 0-32 5-68 11-80 34-62 102-74 174-31 50 29 115 97 115 120 0 17 5 20-103-53-76-50-93-55-124-30-7 5-13 32-13 61-1 28-9 74-18 101-14 40-22 51-42 54-27 3-81-21-117-53-23-19-23-19-23 6 0 14 7 42 15 61 21 52 19 67-9 67-14 0-27-3-29-7z"/><path d="m10897 2543c-4-3-7-15-7-26 0-24-30-67-100-141-55-59-140-109-166-99-19 7-18 81 2 128 26 62-7 92-43 38-10-14-46-56-81-94-64-68-114-101-139-92-19 7-16 61 7 149 22 81 17 104-20 104-14 0-121-80-212-157-15-13-16-11-11 29 3 24 12 55 19 70 22 43 18 60-12 56-32-4-46-38-64-148-6-41-15-91-20-110-8-34-45-214-71-350-7-36-18-79-26-97-15-37-17-79-4-87 37-23 62 45 101 264 5 30 20 105 34 165l25 110 62 57c35 32 83 72 108 90 43 31 44 31 37 7-16-59-26-124-20-143 26-85 134-73 221 23l32 36 1-27c1-103 159-83 268 33l49 52 6-41c10-58 53-92 118-92 52 0 114 25 140 56 13 16 11 16-21 10-81-16-150-18-165-6-18 15-20 82-3 143 14 53 5 97-21 97-10 0-21-3-24-7z"/><path d="m7300 2510c0-20 4-20 233-18 198 3 232 5 232 18s-34 15-232 18c-229 2-233 2-233-18z"/><path d="m14686 2480c-15-18-26-44-26-60 0-23-11-37-58-73-63-48-154-87-202-87-29 0-30 1-30 49 0 27 5 62 10 77 14 37 4 66-23 62-14-2-24-13-29-35-19-74-185-191-256-180-53 9-64 23-44 56 19 34 10 61-21 61-28 0-42-14-50-51-6-21-18-30-70-48-83-28-93-27-68 5 15 19 21 41 21 75 0 69-35 107-107 116-75 8-119-3-164-44-64-58-85-116-56-154 18-24 87-59 117-60h25l-25-10c-14-6-43-8-66-4-46 6-74 42-74 93 0 43-9 62-31 62-59 0-17-166 48-191 52-19 137-11 199 21 40 20 74 30 106 30 26 0 70 9 98 20 51 20 51 20 77 0 41-32 138-28 211 9 31 16 68 41 82 56l25 26 11-33c6-18 22-39 35-46 49-26 183 10 260 70 20 15 40 28 43 28 4 0 20-10 36-22 23-17 48-23 112-26 91-5 153 8 190 37 23 19 22 19-108 14-178-7-201 6-149 84 52 76 9 141-49 73zm-914-97c29-27 23-78-14-118-33-34-33-34-101-26-48 5-74 13-88 28-20 19-20 22-5 51 8 16 29 41 46 56 26 21 42 26 87 26 39 0 62-5 75-17z"/><path d="m7083 2348c-11-13-34-63-52-112-44-122-125-271-138-254-17 20-83 241-83 275 0 39-23 61-45 43-23-19-19-46 26-192 46-151 76-201 117-196 23 3 36 20 88 117 34 62 74 151 90 197 15 46 35 91 45 100 21 19 15 44-10 44-10 0-27-10-38-22z"/><path d="m7465 2359c-16-4-55-11-85-14-66-7-85-17-76-40 7-19 28-17 195 11 46 8 99 14 117 14 36 0 54 17 33 31-18 11-144 10-184-2z"/><path d="m11290 1530c-30-11-56-20-57-20-11 0-97-89-109-112-8-15-20-28-27-28-13 0-65-59-103-115-39-58-86-175-94-237-10-68-2-88 33-88 27 0 112 89 120 126 12 53 21 59 53 37 75-53 342-87 374-48 7 8 11 15 9 16-2 0-58 6-124 14-138 14-225 43-245 80-10 19-10 28-1 38 6 8 83 51 170 96s167 91 177 102c21 24 22 92 2 116-17 20-71 43-100 43-13-1-48-10-78-20zm121-40c32-18 25-65-13-88-67-40-259-134-265-129-9 9 46 120 75 151 32 34 115 75 155 75 16 1 37-4 48-9zm-370-306c-42-126-54-153-73-171-21-18-21-18-15 15 7 36 72 189 89 210 19 23 19 6-1-54z"/><path d="m6582 1358c-6-7-27-73-48-147-31-110-43-138-67-160-52-47-72-106-42-131 25-21 53-1 79 56 22 47 32 58 73 76 26 11 73 37 103 58 87 58 84 57 76 24-14-60-24-155-19-174 6-24 51-50 87-50 40 0 125 36 169 72 30 23 52 33 85 34 24 2 55 10 68 19 30 19 31 19 37-4 8-34 66-63 111-56 83 12 140 70 171 170 10 33 23 66 28 73 6 8 39 12 99 12 80 0 89-2 78-15-7-8-20-29-29-45s-28-50-44-74c-38-62-52-138-32-176 21-40 44-50 115-50 67 0 151 32 234 89 30 21 47 27 52 20 3-6 26-20 50-31 42-18 48-18 106-3 63 16 158 62 158 77 0 14-33 9-121-17-86-26-116-26-143 0-14 14-11 19 25 52 54 49 81 103 77 156-3 35-7 43-31 52-69 24-146-65-148-172l-2-59-59-38c-90-59-169-88-218-80-31 5-42 12-46 30-10 40 4 87 46 149 22 33 40 65 40 71s11 20 25 32c26 23 29 30 19 56-5 13-27 16-136 16-71 0-137-4-147-10-17-8-38-59-55-130-8-35-70-97-105-105-53-11-71 7-71 75 0 32-3 65-6 74-7 19-40 21-47 4-3-7-2 14 1 46 6 66-8 86-59 86-72 0-144-139-115-226 5-17-2-29-31-54-46-41-115-72-151-68-22 2-28 9-30 32-5 44 28 195 54 244 44 83-3 99-72 25-24-27-44-51-44-54 0-9-160-113-165-107-3 3 9 53 25 113 17 60 30 118 28 128-4 25-21 32-36 15zm543-129c-11-50-32-93-54-113-21-19-21-19-21 11 0 28 30 110 46 126 4 4 14 7 21 7 11 0 13-8 8-31zm945-24c0-23-35-87-59-109-21-19-21-19-21 3 0 12 7 38 15 59 22 51 65 83 65 47zm-900-60c0-23-36-72-46-62-4 3 38 87 44 87 1 0 2-11 2-25z"/><path d="m8463 1358c-6-7-13-42-16-78s-15-90-26-120-22-67-26-82c-4-20-12-28-26-28-23 0-60-18-71-34-13-19-9-91 6-112 19-25 39-13 90 54 29 39 45 52 64 52 29 0 144 57 205 101 22 16 42 27 44 25s-1-24-7-49c-5-25-7-53-4-62 9-22 46-35 101-35 43 0 109 29 201 88 24 15 24 15 17-30-6-40-4-47 16-62 15-10 44-16 84-16 72 0 136 27 236 100l69 50-2-46c-2-41 1-50 31-76 32-28 38-30 100-26 60 3 72 8 133 51 38 26 69 47 71 47 1 0 1-20-1-44-3-36 0-46 19-60 28-19 97-21 136-4 15 7 66 44 112 82 84 70 84 70 78 37-4-18-2-41 3-52 15-28 95-25 173 5 34 13 79 29 99 36 40 12 88 46 88 61 0 16-33 10-120-22-173-63-190-66-190-33 0 8 14 57 32 109 29 86 31 96 17 110-20 21-49 9-49-20 0-31-74-119-167-196-78-65-123-89-155-81-33 7-21 121 19 195 18 34 11 57-16 57-13 0-27-12-37-32-29-56-76-108-141-154-53-38-69-44-110-44-84 0-92 31-42 159 26 66 30 83 19 96-20 24-38 18-55-18-21-44-73-97-151-152-94-67-165-98-209-89-32 6-35 9-35 39 0 42 14 79 46 127 28 40 29 81 2 86-11 2-28-15-52-52-53-82-199-176-276-176-34 0-40 3-40 22 0 27 53 140 74 157 22 19 21 51-3 51-10 0-41-16-67-35-165-117-296-193-302-174-2 5 4 33 13 62 43 128 55 213 33 235-15 15-23 15-35 0z"/><path d="m6045 1327c-49-24-85-67-85-101 0-25 36-19 54 9 35 54 132 85 164 53 24-24 14-121-20-194-23-48-33-86-34-123-2-52-4-55-46-81-71-44-138-112-152-153-18-52-4-133 27-165 28-27 87-43 131-35 67 12 170 90 182 137 10 42-12 162-36 196l-22 30 44 19c24 11 69 31 101 45 124 54 24 60-106 6-54-23-69-26-74-15-6 17 12 74 40 130 31 62 38 96 31 158-9 78-26 97-94 103-45 4-65 0-105-19zm152-504c7-18 13-59 13-92 0-55-2-61-36-91-53-46-96-64-137-56-19 4-40 13-47 21-18 22-24 91-11 123 13 30 80 91 140 129 41 25 56 18 78-34z"/><path d="m11850 1161c-73-23-118-60-152-126-12-22-26-44-33-50-24-20-66-231-69-340-1-45 3-60 17-69 26-16 43 12 56 92 6 37 18 111 26 165 32 200 87 273 219 291 36 4 55 2 77-11 90-53 5-140-178-184-85-20-93-24-93-45 0-31 43-44 68-21 10 9 46 23 80 31 116 27 212 101 212 162 0 46-12 68-54 93-35 22-123 28-176 12z"/><path d="m12376 834c-11-30-6-91 9-104 19-16 45-6 45 17 0 10 9 24 20 31 25 15 25 23 1 50-21 26-66 29-75 6z"/></g><g fill="#44b" transform="matrix(.08161748 0 0 -.08161748 2025.52889751453 1427.63627885665)"><path d="m750 2973c-57-10-88-25-119-57-40-41-55-100-46-179 6-45 12-61 32-77 32-25 35-25 64-1 22 17 24 26 21 89-4 105 24 120 164 87 33-7 119-19 190-25 88-8 134-16 144-26 32-32 8-420-28-456-18-18-126-28-289-28-185 0-206-4-250-52-55-58-58-82-55-363 1-145 7-274 13-293 11-34 51-62 89-62 12 0 35 14 52 31l31 30-6 238c-3 130-3 249 0 264l5 27h112c234 1 363 26 423 82 58 54 98 260 91 463-4 122-7 138-34 191-40 81-79 100-217 108-174 10-361 14-387 9z"/><path d="m3660 2971c-42-9-83-34-103-65-39-59-50-127-54-343-5-206-5-212 18-252 28-50 78-86 143-102 48-12 257-8 370 7l49 7-7-104c-4-57-11-189-16-294-9-177-9-192 8-214 35-47 100-46 136 2 22 29 27 86 42 452 7 191 0 235-44 283-45 48-92 56-241 38-146-18-229-20-265-6l-26 10v162c0 156 8 230 27 249 5 5 99 6 210 2l201-6 5-50c3-39 11-56 31-74 34-29 48-29 80 0 24 20 26 30 28 113 4 147-23 169-218 179-242 11-340 13-374 6z"/><path d="m1565 2945c-14-13-25-32-25-42s-1-297-3-638c-2-677-3-662 55-694 33-19 73-7 101 31 18 24 20 51 29 300 5 150 10 278 12 283 2 6 37 8 97 3 52-3 135-7 186-7 154-2 161-10 143-176-21-189-27-310-18-343 12-45 45-72 86-72 71 0 102 46 102 151 0 33 7 118 16 187 24 190 9 280-58 349-50 52-112 67-263 65-71-1-164-6-205-11-41-4-78-7-81-5-4 2-10 108-13 236-9 286-17 352-47 384-31 33-82 32-114-1z"/><path d="m2542 2944c-55-38-64-109-53-419 6-186 9-215 28-250 50-95 116-125 302-135 75-4 171-5 215-1l78 7-4-178c-2-97-7-181-11-184-4-4-42 1-85 11-104 26-285 27-363 3-106-33-149-107-99-170 26-34 68-41 132-21 74 23 202 20 308-7 182-47 274 5 301 168 12 77 27 831 19 994-7 152-20 181-86 186-88 7-103-51-104-401v-219l-201 4c-197 3-201 3-220 27-18 21-19 42-19 283v260l-29 29c-33 33-74 38-109 13z"/><path d="m2374 1391c-55-34-79-78-79-147 0-51 4-66 27-96 35-45 102-73 153-64 78 15 146 111 131 188-20 108-145 172-232 119z"/><path d="m1853 999c-39-11-66-56-61-101 6-59 69-64 76-6 4 30 34 38 145 38h67v-110c0-135-1-136-132-126-85 6-89 6-113-18-24-25-25-28-25-179 0-162 4-177 47-177 35 0 43 29 43 159v121h73c85 0 141 14 168 41 17 17 19 34 19 169 0 147-1 152-25 175-23 24-30 25-137 24-62 0-128-5-145-10z"/><path d="m2985 1000c-91-16-93-18-104-58-15-51-14-537 0-564 19-36 69-48 204-48 121 0 127 1 151 25l24 24-2 292-3 292-26 19c-31 23-161 33-244 18zm169-86c14-5 16-37 16-250v-245l-102 3-103 3v240 240l40 6c57 9 131 10 149 3z"/><path d="m2351 971c-24-24-29-73-37-372-6-232-6-237 15-258 23-23 29-25 51-11 12 7 16 40 20 150l5 141 35-23c19-13 59-55 88-93 30-39 78-96 108-128 47-51 56-57 74-47 29 16 25 42-15 92-19 24-62 78-95 121-61 77-61 77-33 77 15 0 46 9 69 19 56 26 67 57 62 179-6 156-27 172-220 172-93 0-111-3-127-19zm257-74c16-13 17-168 0-185-7-7-41-12-84-12-40 0-84-4-98-10l-26-10v120 119l98-6c53-3 103-10 110-16z"/></g></svg>