<?xml version="1.0" encoding="UTF-8" standalone="no"?>
<svg
   width="473.32489pt"
   height="294.65445pt"
   viewBox="0 0 473.32489 294.65446"
   version="1.1"
   id="svg72"
   sodipodi:docname="1062t2.svg"
   inkscape:version="1.3.2 (091e20e, 2023-11-25)"
   xmlns:inkscape="http://www.inkscape.org/namespaces/inkscape"
   xmlns:sodipodi="http://sodipodi.sourceforge.net/DTD/sodipodi-0.dtd"
   xmlns:xlink="http://www.w3.org/1999/xlink"
   xmlns="http://www.w3.org/2000/svg"
   xmlns:svg="http://www.w3.org/2000/svg"
   xmlns:rdf="http://www.w3.org/1999/02/22-rdf-syntax-ns#"
   xmlns:cc="http://creativecommons.org/ns#"
   xmlns:dc="http://purl.org/dc/elements/1.1/">
  <sodipodi:namedview
     id="namedview72"
     pagecolor="#ffffff"
     bordercolor="#000000"
     borderopacity="0.25"
     inkscape:showpageshadow="2"
     inkscape:pageopacity="0.0"
     inkscape:pagecheckerboard="0"
     inkscape:deskcolor="#d1d1d1"
     inkscape:document-units="pt"
     inkscape:zoom="0.92315351"
     inkscape:cx="311.97412"
     inkscape:cy="257.81194"
     inkscape:current-layer="svg72" />
  <metadata
     id="metadata1">
    <rdf:RDF>
      <cc:Work>
        <dc:type
           rdf:resource="http://purl.org/dc/dcmitype/StillImage" />
        <dc:date>2024-03-13T23:05:49.025574</dc:date>
        <dc:format>image/svg+xml</dc:format>
        <dc:creator>
          <cc:Agent>
            <dc:title>Matplotlib v3.8.2, https://matplotlib.org/</dc:title>
          </cc:Agent>
        </dc:creator>
      </cc:Work>
    </rdf:RDF>
  </metadata>
  <defs
     id="defs1">
    <style
       type="text/css"
       id="style1">*{stroke-linejoin: round; stroke-linecap: butt}</style>
  </defs>
  <g
     id="line2d_1"
     transform="translate(-7.32,-7.2)">
    <path
       d="M 125.27212,271.76571 V 60.6515"
       style="fill:none;stroke:#777777;stroke-width:0.9;stroke-linecap:square"
       id="path3" />
  </g>
  <g
     id="line2d_2"
     transform="translate(-7.32,-7.2)">
    <path
       d="M 142.86424,271.76571 V 60.6515"
       style="fill:none;stroke:#777777;stroke-width:0.9;stroke-linecap:square"
       id="path4" />
  </g>
  <g
     id="line2d_3"
     transform="translate(-7.32,-7.2)">
    <path
       d="M 160.45635,271.76571 V 60.6515"
       style="fill:none;stroke:#777777;stroke-width:0.9;stroke-linecap:square"
       id="path5" />
  </g>
  <g
     id="line2d_4"
     transform="translate(-7.32,-7.2)">
    <path
       d="M 178.04847,271.76571 V 60.6515"
       style="fill:none;stroke:#777777;stroke-width:0.9;stroke-linecap:square"
       id="path6" />
  </g>
  <g
     id="line2d_5"
     transform="translate(-7.32,-7.2)">
    <path
       d="M 195.64059,271.76571 V 60.6515"
       style="fill:none;stroke:#777777;stroke-width:0.9;stroke-linecap:square"
       id="path7" />
  </g>
  <g
     id="line2d_6"
     transform="translate(-7.32,-7.2)">
    <path
       d="M 213.23271,271.76571 V 60.6515"
       style="fill:none;stroke:#777777;stroke-width:0.9;stroke-linecap:square"
       id="path8" />
  </g>
  <g
     id="line2d_7"
     transform="translate(-7.32,-7.2)">
    <path
       d="M 230.82483,271.76571 V 60.6515"
       style="fill:none;stroke:#777777;stroke-width:0.9;stroke-linecap:square"
       id="path9" />
  </g>
  <g
     id="line2d_8"
     transform="translate(-7.32,-7.2)">
    <path
       d="M 248.41695,271.76571 V 60.6515"
       style="fill:none;stroke:#777777;stroke-width:0.9;stroke-linecap:square"
       id="path10" />
  </g>
  <g
     id="line2d_9"
     transform="translate(-7.32,-7.2)">
    <path
       d="M 266.00906,271.76571 V 60.6515"
       style="fill:none;stroke:#777777;stroke-width:0.9;stroke-linecap:square"
       id="path11" />
  </g>
  <g
     id="line2d_10"
     transform="translate(-7.32,-7.2)">
    <path
       d="M 283.60118,271.76571 V 60.6515"
       style="fill:none;stroke:#777777;stroke-width:0.9;stroke-linecap:square"
       id="path12" />
  </g>
  <g
     id="line2d_11"
     transform="translate(-7.32,-7.2)">
    <path
       d="M 301.1933,271.76571 V 60.6515"
       style="fill:none;stroke:#777777;stroke-width:0.9;stroke-linecap:square"
       id="path13" />
  </g>
  <g
     id="line2d_12"
     transform="translate(-7.32,-7.2)">
    <path
       d="M 318.78542,271.76571 V 60.6515"
       style="fill:none;stroke:#777777;stroke-width:0.9;stroke-linecap:square"
       id="path14" />
  </g>
  <g
     id="line2d_13"
     transform="translate(-7.32,-7.2)">
    <path
       d="M 336.37754,271.76571 V 60.6515"
       style="fill:none;stroke:#777777;stroke-width:0.9;stroke-linecap:square"
       id="path15" />
  </g>
  <g
     id="line2d_14"
     transform="translate(-7.32,-7.2)">
    <path
       d="M 353.96965,271.76571 V 60.6515"
       style="fill:none;stroke:#777777;stroke-width:0.9;stroke-linecap:square"
       id="path16" />
  </g>
  <g
     id="line2d_15"
     transform="translate(-7.32,-7.2)">
    <path
       d="M 371.56177,271.76571 V 60.6515"
       style="fill:none;stroke:#777777;stroke-width:0.9;stroke-linecap:square"
       id="path17" />
  </g>
  <g
     id="line2d_16"
     transform="translate(-7.32,-7.2)">
    <path
       d="M 389.15389,271.76571 V 60.6515"
       style="fill:none;stroke:#777777;stroke-width:0.9;stroke-linecap:square"
       id="path18" />
  </g>
  <g
     id="line2d_17"
     transform="translate(-7.32,-7.2)">
    <path
       d="M 406.74601,271.76571 V 60.6515"
       style="fill:none;stroke:#777777;stroke-width:0.9;stroke-linecap:square"
       id="path19" />
  </g>
  <g
     id="line2d_18"
     transform="translate(-7.32,-7.2)">
    <path
       d="M 424.33813,271.76571 V 60.6515"
       style="fill:none;stroke:#777777;stroke-width:0.9;stroke-linecap:square"
       id="path20" />
  </g>
  <g
     id="line2d_19"
     transform="translate(-7.32,-7.2)">
    <path
       d="M 107.68,254.1736 H 424.33813"
       style="fill:none;stroke:#777777;stroke-width:0.9;stroke-linecap:square"
       id="path21" />
  </g>
  <g
     id="line2d_20"
     transform="translate(-7.32,-7.2)">
    <path
       d="M 107.68,236.58148 H 424.33813"
       style="fill:none;stroke:#777777;stroke-width:0.9;stroke-linecap:square"
       id="path22" />
  </g>
  <g
     id="line2d_21"
     transform="translate(-7.32,-7.2)">
    <path
       d="M 107.68,218.98936 H 424.33813"
       style="fill:none;stroke:#777777;stroke-width:0.9;stroke-linecap:square"
       id="path23" />
  </g>
  <g
     id="line2d_22"
     transform="translate(-7.32,-7.2)">
    <path
       d="M 107.68,201.39724 H 424.33813"
       style="fill:none;stroke:#777777;stroke-width:0.9;stroke-linecap:square"
       id="path24" />
  </g>
  <g
     id="line2d_23"
     transform="translate(-7.32,-7.2)">
    <path
       d="M 107.68,183.80512 H 424.33813"
       style="fill:none;stroke:#777777;stroke-width:0.9;stroke-linecap:square"
       id="path25" />
  </g>
  <g
     id="line2d_24"
     transform="translate(-7.32,-7.2)">
    <path
       d="M 107.68,166.213 H 424.33813"
       style="fill:none;stroke:#777777;stroke-width:0.9;stroke-linecap:square"
       id="path26" />
  </g>
  <g
     id="line2d_25"
     transform="translate(-7.32,-7.2)">
    <path
       d="M 107.68,148.62089 H 424.33813"
       style="fill:none;stroke:#777777;stroke-width:0.9;stroke-linecap:square"
       id="path27" />
  </g>
  <g
     id="line2d_26"
     transform="translate(-7.32,-7.2)">
    <path
       d="M 107.68,131.02877 H 424.33813"
       style="fill:none;stroke:#777777;stroke-width:0.9;stroke-linecap:square"
       id="path28" />
  </g>
  <g
     id="line2d_27"
     transform="translate(-7.32,-7.2)">
    <path
       d="M 107.68,113.43665 H 424.33813"
       style="fill:none;stroke:#777777;stroke-width:0.9;stroke-linecap:square"
       id="path29" />
  </g>
  <g
     id="line2d_28"
     transform="translate(-7.32,-7.2)">
    <path
       d="M 107.68,95.844532 H 424.33813"
       style="fill:none;stroke:#777777;stroke-width:0.9;stroke-linecap:square"
       id="path30" />
  </g>
  <g
     id="line2d_29"
     transform="translate(-7.32,-7.2)">
    <path
       d="M 107.68,78.252414 H 424.33813"
       style="fill:none;stroke:#777777;stroke-width:0.9;stroke-linecap:square"
       id="path31" />
  </g>
  <g
     id="line2d_30"
     transform="translate(-7.32,-7.2)">
    <path
       d="M 107.68,60.660296 H 424.33813"
       style="fill:none;stroke:#777777;stroke-width:0.9;stroke-linecap:square"
       id="path32" />
  </g>
  <g
     id="line2d_31"
     transform="translate(-7.32,-7.2)">
    <path
       style="color:#000000;fill:#000000;stroke-linecap:square;stroke-linejoin:round;-inkscape-stroke:none"
       d="m 300.48437,215.83008 -0.91015,2.32812 1.16406,0.45508 0.71094,0.2793 a 1.250125,1.250125 0 0 0 0.002,0 l 0.71094,0.27734 a 1.250125,1.250125 0 0 0 0.004,0 l 0.71093,0.27344 a 1.250125,1.250125 0 0 0 0.004,0.002 l 0.71094,0.27149 a 1.250125,1.250125 0 0 0 0.002,0 l 0.71094,0.26953 a 1.250125,1.250125 0 0 0 0.004,0 l 0.71094,0.26758 a 1.250125,1.250125 0 0 0 0.004,0 l 0.71093,0.26367 a 1.250125,1.250125 0 0 0 0.002,0.002 l 0.71094,0.26172 a 1.250125,1.250125 0 0 0 0.004,0.002 l 0.71094,0.25782 a 1.250125,1.250125 0 0 0 0.004,0.002 l 0.70898,0.25781 a 1.250125,1.250125 0 0 0 0.004,0 l 0.71093,0.25586 a 1.250125,1.250125 0 0 0 0.004,0 l 0.71094,0.25391 a 1.250125,1.250125 0 0 0 0.002,0.002 l 0.71094,0.25 a 1.250125,1.250125 0 0 0 0.004,0 l 0.71094,0.25 a 1.250125,1.250125 0 0 0 0.002,0 l 0.71094,0.24805 a 1.250125,1.250125 0 0 0 0.004,0 l 0.71094,0.24414 a 1.250125,1.250125 0 0 0 0.002,0.002 l 0.71094,0.24219 a 1.250125,1.250125 0 0 0 0.004,0.002 l 0.70899,0.24024 a 1.250125,1.250125 0 0 0 0.004,0 l 0.71094,0.23828 a 1.250125,1.250125 0 0 0 0.002,0.002 l 0.71094,0.23633 a 1.250125,1.250125 0 0 0 0.004,0.002 l 0.71094,0.23438 a 1.250125,1.250125 0 0 0 0.002,0 l 0.71094,0.23242 a 1.250125,1.250125 0 0 0 0.004,0.002 l 0.71094,0.23047 a 1.250125,1.250125 0 0 0 0.002,0 l 0.71094,0.23047 a 1.250125,1.250125 0 0 0 0.002,0 l 0.71094,0.22656 a 1.250125,1.250125 0 0 0 0.004,0.002 l 0.71093,0.22461 a 1.250125,1.250125 0 0 0 0.002,0.002 l 0.71094,0.22265 a 1.250125,1.250125 0 0 0 0.002,0.002 l 0.71094,0.2207 a 1.250125,1.250125 0 0 0 0.004,0 l 0.71094,0.2207 a 1.250125,1.250125 0 0 0 0.002,0.002 l 0.71094,0.21679 a 1.250125,1.250125 0 0 0 0.002,0.002 l 0.71094,0.21679 a 1.250125,1.250125 0 0 0 0.004,0 l 0.70898,0.21485 a 1.250125,1.250125 0 0 0 0.004,0 l 0.71094,0.21289 a 1.250125,1.250125 0 0 0 0.002,0.002 l 0.71094,0.21094 a 1.250125,1.250125 0 0 0 0.002,0 l 0.71094,0.21093 a 1.250125,1.250125 0 0 0 0.004,0 l 0.70899,0.20899 a 1.250125,1.250125 0 0 0 0.004,0 l 0.71094,0.20703 a 1.250125,1.250125 0 0 0 0.002,0 l 0.71094,0.20508 a 1.250125,1.250125 0 0 0 0.002,0.002 l 0.71094,0.20313 a 1.250125,1.250125 0 0 0 0.002,0 l 0.71093,0.20117 a 1.250125,1.250125 0 0 0 0.002,0.002 l 0.71093,0.19922 a 1.250125,1.250125 0 0 0 0.004,0 l 0.71094,0.19922 a 1.250125,1.250125 0 0 0 0.002,0.002 l 0.71094,0.19727 a 1.250125,1.250125 0 0 0 0.002,0 l 0.71094,0.19531 a 1.250125,1.250125 0 0 0 0.002,0 l 0.71094,0.19531 a 1.250125,1.250125 0 0 0 0.002,0 l 0.71094,0.19336 a 1.250125,1.250125 0 0 0 0.002,0 l 0.71094,0.19141 a 1.250125,1.250125 0 0 0 0.002,0 l 0.71094,0.1914 a 1.250125,1.250125 0 0 0 0.002,0 l 0.71094,0.1875 a 1.250125,1.250125 0 0 0 0.002,0.002 l 0.71094,0.1875 a 1.250125,1.250125 0 0 0 0.004,0 l 0.70898,0.18554 a 1.250125,1.250125 0 0 0 0.004,0 l 0.70898,0.18555 a 1.250125,1.250125 0 0 0 0.004,0 l 0.71094,0.18164 a 1.250125,1.250125 0 0 0 0.002,0.002 l 0.71094,0.18164 a 1.250125,1.250125 0 0 0 0.002,0 l 0.71094,0.17968 a 1.250125,1.250125 0 0 0 0.002,0.002 l 0.71094,0.17773 a 1.250125,1.250125 0 0 0 0.002,0 l 0.71094,0.17774 a 1.250125,1.250125 0 0 0 0.002,0.002 l 0.71094,0.17578 a 1.250125,1.250125 0 0 0 0.002,0 l 0.71094,0.17578 a 1.250125,1.250125 0 0 0 0.002,0 l 0.70899,0.17383 a 1.250125,1.250125 0 0 0 0.004,0 l 0.70899,0.17383 a 1.250125,1.250125 0 0 0 0.002,0 l 0.71094,0.17187 a 1.250125,1.250125 0 0 0 0.002,0 l 0.71094,0.16992 a 1.250125,1.250125 0 0 0 0.002,0 l 0.71094,0.16993 a 1.250125,1.250125 0 0 0 0.002,0 l 0.71094,0.16796 a 1.250125,1.250125 0 0 0 0.002,0 l 0.71094,0.16602 a 1.250125,1.250125 0 0 0 0.002,0 l 0.71093,0.16602 a 1.250125,1.250125 0 0 0 0.002,0 l 0.71093,0.16406 a 1.250125,1.250125 0 0 0 0.002,0.002 l 0.71093,0.16211 a 1.250125,1.250125 0 0 0 0.002,0 l 0.71093,0.16211 a 1.250125,1.250125 0 0 0 0.002,0 l 0.71094,0.16211 0.71093,0.16016 a 1.250125,1.250125 0 0 0 0.002,0 l 0.71093,0.1582 a 1.250125,1.250125 0 0 0 0.002,0 l 0.71093,0.1582 a 1.250125,1.250125 0 0 0 0.002,0 l 0.71093,0.15625 a 1.250125,1.250125 0 0 0 0.002,0 l 0.71094,0.15625 a 1.250125,1.250125 0 0 0 0.002,0 l 0.71094,0.1543 0.71093,0.15234 a 1.250125,1.250125 0 0 0 0.002,0.002 l 0.71093,0.15039 a 1.250125,1.250125 0 0 0 0.002,0.002 l 0.71093,0.15039 a 1.250125,1.250125 0 0 0 0.002,0 l 0.71094,0.15039 a 1.250125,1.250125 0 0 0 0.002,0 l 0.71094,0.14844 0.71093,0.14844 a 1.250125,1.250125 0 0 0 0.002,0 l 0.71093,0.14843 a 1.250125,1.250125 0 0 0 0.002,0 l 0.71093,0.14649 a 1.250125,1.250125 0 0 0 0.002,0 l 0.71094,0.14453 0.71093,0.14453 a 1.250125,1.250125 0 0 0 0.002,0 l 0.71093,0.14258 a 1.250125,1.250125 0 0 0 0.002,0.002 l 0.71093,0.14063 a 1.250125,1.250125 0 0 0 0.002,0 l 0.71093,0.14257 0.71094,0.14063 a 1.250125,1.250125 0 0 0 0.002,0 l 0.71093,0.13867 a 1.250125,1.250125 0 0 0 0.002,0 l 0.71093,0.13867 a 1.250125,1.250125 0 0 0 0.002,0 l 0.70898,0.13868 a 1.250125,1.250125 0 0 0 0.002,0 l 0.71094,0.13671 a 1.250125,1.250125 0 0 0 0.002,0 l 0.71094,0.13672 a 1.250125,1.250125 0 0 0 0.002,0 l 0.70898,0.13477 a 1.250125,1.250125 0 0 0 0.002,0 l 0.71094,0.13281 a 1.250125,1.250125 0 0 0 0.002,0.002 l 0.71094,0.13282 1.22852,0.23047 0.45898,-2.45899 -1.22851,-0.22851 -0.70899,-0.13282 -0.70898,-0.13476 -0.70899,-0.13477 -0.71094,-0.13476 -0.70898,-0.13672 -0.70898,-0.13672 -0.70899,-0.13867 -0.70898,-0.13868 -0.70899,-0.14062 -0.71093,-0.14063 -0.70899,-0.14257 -0.70898,-0.14258 -0.70899,-0.14258 -0.70898,-0.14453 -0.70899,-0.14649 -0.70898,-0.14648 -0.70899,-0.14844 -0.70898,-0.14843 -0.70898,-0.14844 -0.70899,-0.15039 -0.70898,-0.15235 -0.71094,-0.15234 -0.70898,-0.1543 -0.70899,-0.15429 -0.70898,-0.15625 -0.70899,-0.15625 -0.70898,-0.15821 -0.70899,-0.16015 -0.70898,-0.16016 -0.70899,-0.16211 -0.70898,-0.16211 -0.70898,-0.16406 -0.70704,-0.16406 -0.70898,-0.16602 -0.70898,-0.16797 -0.70899,-0.16797 -0.70898,-0.16992 -0.70899,-0.16992 -0.70898,-0.17188 -0.70899,-0.17382 -0.70898,-0.17578 -0.70898,-0.17579 -0.70704,-0.17578 -0.70898,-0.17968 -0.70898,-0.17969 -0.70899,-0.17969 -0.70898,-0.18359 -0.70899,-0.1836 -0.70703,-0.18359 -0.70898,-0.1875 -0.70899,-0.1875 -0.70898,-0.18945 -0.70899,-0.19141 -0.70703,-0.19141 -0.70898,-0.19336 -0.70899,-0.19531 -0.70703,-0.19726 -0.70898,-0.19727 -0.70899,-0.19922 -0.70898,-0.20117 -0.70703,-0.20313 -0.70899,-0.20507 -0.70703,-0.20508 -0.70898,-0.20703 -0.70899,-0.20899 -0.70703,-0.21093 -0.70898,-0.2129 -0.70899,-0.21289 -0.70703,-0.21679 -0.70898,-0.2168 -0.70703,-0.21875 -0.70899,-0.2207 -0.70703,-0.22266 -0.70898,-0.22461 -0.70703,-0.22656 -0.70899,-0.22852 -0.70703,-0.22851 -0.70898,-0.23242 -0.70704,-0.23438 -0.70898,-0.23437 -0.70703,-0.23829 -0.70703,-0.24023 -0.70899,-0.24023 -0.70703,-0.24414 -0.70898,-0.2461 -0.70703,-0.24609 -0.70704,-0.25 -0.70703,-0.25196 -0.70898,-0.2539 -0.70703,-0.25586 -0.70703,-0.25977 -0.70899,-0.25976 -0.70703,-0.26172 -0.70703,-0.26563 -0.70703,-0.26757 -0.70703,-0.26954 -0.70899,-0.27148 -0.70703,-0.27539 -0.70898,-0.27734 z"
       id="path33" />
  </g>
  <g
     id="line2d_32"
     transform="matrix(0.9827958,0,0,1.037314,-2.1398207,-15.311386)"
     style="stroke-width:0.990406">
    <path
       style="color:#000000;fill:#000000;stroke-linecap:square;stroke-linejoin:round;-inkscape-stroke:none"
       d="m 230.94922,167.75195 -1.8711,1.6211 0.81055,0.93554 0.71094,0.82032 a 1.2381338,1.2381338 0 0 0 0.006,0.006 l 0.71094,0.81054 a 1.2381338,1.2381338 0 0 0 0.006,0.006 l 0.71093,0.79883 a 1.2381338,1.2381338 0 0 0 0.006,0.006 l 0.70899,0.78711 a 1.2381338,1.2381338 0 0 0 0.006,0.008 l 0.71093,0.77539 a 1.2381338,1.2381338 0 0 0 0.006,0.008 l 0.71094,0.76563 a 1.2381338,1.2381338 0 0 0 0.006,0.006 l 0.71094,0.75781 a 1.2381338,1.2381338 0 0 0 0.006,0.006 l 0.71093,0.74609 a 1.2381338,1.2381338 0 0 0 0.006,0.006 l 0.70899,0.73633 a 1.2381338,1.2381338 0 0 0 0.006,0.006 l 0.71093,0.72656 a 1.2381338,1.2381338 0 0 0 0.006,0.006 l 0.71094,0.71875 a 1.2381338,1.2381338 0 0 0 0.006,0.006 l 0.71094,0.70703 a 1.2381338,1.2381338 0 0 0 0.006,0.006 l 0.71094,0.69922 a 1.2381338,1.2381338 0 0 0 0.006,0.006 l 0.71094,0.68945 a 1.2381338,1.2381338 0 0 0 0.006,0.006 l 0.71094,0.68164 a 1.2381338,1.2381338 0 0 0 0.004,0.006 l 0.71093,0.67188 a 1.2381338,1.2381338 0 0 0 0.006,0.006 l 0.71094,0.66406 a 1.2381338,1.2381338 0 0 0 0.006,0.006 l 0.71094,0.65625 a 1.2381338,1.2381338 0 0 0 0.006,0.004 l 0.71093,0.64843 a 1.2381338,1.2381338 0 0 0 0.006,0.006 l 0.71094,0.63867 a 1.2381338,1.2381338 0 0 0 0.006,0.006 l 0.71094,0.63086 a 1.2381338,1.2381338 0 0 0 0.006,0.006 l 0.70898,0.625 a 1.2381338,1.2381338 0 0 0 0.006,0.004 l 0.71094,0.61719 a 1.2381338,1.2381338 0 0 0 0.006,0.004 l 0.71093,0.60938 a 1.2381338,1.2381338 0 0 0 0.006,0.004 l 0.71094,0.60352 a 1.2381338,1.2381338 0 0 0 0.006,0.004 l 0.71094,0.59375 a 1.2381338,1.2381338 0 0 0 0.006,0.006 l 0.71094,0.58593 a 1.2381338,1.2381338 0 0 0 0.004,0.006 l 0.71094,0.58008 a 1.2381338,1.2381338 0 0 0 0.006,0.004 l 0.71094,0.57422 a 1.2381338,1.2381338 0 0 0 0.006,0.004 l 0.71093,0.56641 a 1.2381338,1.2381338 0 0 0 0.006,0.004 l 0.71094,0.56055 a 1.2381338,1.2381338 0 0 0 0.006,0.004 l 0.71094,0.55468 a 1.2381338,1.2381338 0 0 0 0.004,0.004 l 0.71094,0.54688 a 1.2381338,1.2381338 0 0 0 0.006,0.004 l 0.71094,0.54102 a 1.2381338,1.2381338 0 0 0 0.006,0.004 l 0.71093,0.53516 a 1.2381338,1.2381338 0 0 0 0.006,0.004 l 0.71094,0.52734 a 1.2381338,1.2381338 0 0 0 0.004,0.004 l 0.71093,0.52343 a 1.2381338,1.2381338 0 0 0 0.006,0.004 l 0.71094,0.51563 a 1.2381338,1.2381338 0 0 0 0.006,0.004 l 0.71094,0.51172 a 1.2381338,1.2381338 0 0 0 0.004,0.004 l 0.71094,0.5039 a 1.2381338,1.2381338 0 0 0 0.006,0.004 l 0.71094,0.5 a 1.2381338,1.2381338 0 0 0 0.006,0.004 l 0.71094,0.49218 a 1.2381338,1.2381338 0 0 0 0.004,0.004 l 0.71094,0.48828 a 1.2381338,1.2381338 0 0 0 0.006,0.004 l 0.71094,0.48242 a 1.2381338,1.2381338 0 0 0 0.006,0.004 l 0.71093,0.47657 a 1.2381338,1.2381338 0 0 0 0.004,0.004 l 0.71094,0.47266 a 1.2381338,1.2381338 0 0 0 0.006,0.004 l 0.71093,0.46679 a 1.2381338,1.2381338 0 0 0 0.004,0.004 l 0.71094,0.46094 a 1.2381338,1.2381338 0 0 0 0.006,0.004 l 0.71093,0.45703 a 1.2381338,1.2381338 0 0 0 0.004,0.002 l 0.71094,0.45312 a 1.2381338,1.2381338 0 0 0 0.006,0.004 l 0.71094,0.44726 a 1.2381338,1.2381338 0 0 0 0.006,0.002 l 0.70899,0.44336 a 1.2381338,1.2381338 0 0 0 0.006,0.002 l 0.71094,0.43945 a 1.2381338,1.2381338 0 0 0 0.004,0.002 l 0.71094,0.43359 a 1.2381338,1.2381338 0 0 0 0.006,0.002 l 0.71094,0.42969 a 1.2381338,1.2381338 0 0 0 0.004,0.002 l 0.71094,0.42578 a 1.2381338,1.2381338 0 0 0 0.006,0.002 l 0.71094,0.41992 a 1.2381338,1.2381338 0 0 0 0.004,0.002 l 0.71094,0.41602 a 1.2381338,1.2381338 0 0 0 0.006,0.004 l 0.71094,0.41016 a 1.2381338,1.2381338 0 0 0 0.004,0.002 l 0.71094,0.40821 a 1.2381338,1.2381338 0 0 0 0.004,0.002 l 0.71094,0.40234 a 1.2381338,1.2381338 0 0 0 0.006,0.004 l 0.71094,0.39844 a 1.2381338,1.2381338 0 0 0 0.004,0.002 l 0.71094,0.39453 a 1.2381338,1.2381338 0 0 0 0.004,0.004 l 0.71094,0.39062 a 1.2381338,1.2381338 0 0 0 0.006,0.002 l 0.71094,0.38672 a 1.2381338,1.2381338 0 0 0 0.004,0.002 l 0.71094,0.38281 a 1.2381338,1.2381338 0 0 0 0.004,0.002 l 0.71093,0.37891 a 1.2381338,1.2381338 0 0 0 0.004,0.004 l 0.71094,0.375 a 1.2381338,1.2381338 0 0 0 0.006,0.002 l 0.71093,0.37109 a 1.2381338,1.2381338 0 0 0 0.004,0.002 l 0.71094,0.36914 a 1.2381338,1.2381338 0 0 0 0.004,0.002 l 0.71094,0.36328 a 1.2381338,1.2381338 0 0 0 0.004,0.002 l 0.71094,0.36133 a 1.2381338,1.2381338 0 0 0 0.004,0.002 l 0.71094,0.35742 a 1.2381338,1.2381338 0 0 0 0.006,0.002 l 0.70898,0.35352 a 1.2381338,1.2381338 0 0 0 0.006,0.002 l 0.71094,0.35156 a 1.2381338,1.2381338 0 0 0 0.004,0.002 l 0.71093,0.3457 a 1.2381338,1.2381338 0 0 0 0.004,0.002 l 0.71094,0.34375 a 1.2381338,1.2381338 0 0 0 0.004,0.002 l 0.71094,0.33985 a 1.2381338,1.2381338 0 0 0 0.004,0.002 l 0.71094,0.33789 a 1.2381338,1.2381338 0 0 0 0.004,0.002 l 0.71094,0.33398 a 1.2381338,1.2381338 0 0 0 0.004,0.002 l 0.71093,0.33008 a 1.2381338,1.2381338 0 0 0 0.004,0.002 l 0.71094,0.32813 a 1.2381338,1.2381338 0 0 0 0.004,0.002 l 0.71094,0.32422 a 1.2381338,1.2381338 0 0 0 0.004,0.002 l 0.71093,0.32227 a 1.2381338,1.2381338 0 0 0 0.004,0 l 0.71094,0.32031 a 1.2381338,1.2381338 0 0 0 0.004,0 l 0.71094,0.31641 a 1.2381338,1.2381338 0 0 0 0.004,0.002 l 0.71094,0.3125 a 1.2381338,1.2381338 0 0 0 0.004,0.002 l 0.71094,0.3086 a 1.2381338,1.2381338 0 0 0 0.002,0.002 l 0.71094,0.30664 a 1.2381338,1.2381338 0 0 0 0.004,0.002 l 0.71093,0.30468 a 1.2381338,1.2381338 0 0 0 0.004,0.002 l 0.71094,0.30078 a 1.2381338,1.2381338 0 0 0 0.004,0.002 l 0.71094,0.29883 a 1.2381338,1.2381338 0 0 0 0.004,0.002 l 0.71093,0.29492 a 1.2381338,1.2381338 0 0 0 0.004,0.002 l 0.71094,0.29297 a 1.2381338,1.2381338 0 0 0 0.002,0.002 l 0.71094,0.29101 a 1.2381338,1.2381338 0 0 0 0.004,0.002 l 0.71093,0.28711 a 1.2381338,1.2381338 0 0 0 0.004,0.002 l 0.71094,0.28516 a 1.2381338,1.2381338 0 0 0 0.004,0.002 l 0.71094,0.2832 a 1.2381338,1.2381338 0 0 0 0.002,0 l 0.71094,0.28125 1.15234,0.45508 0.90821,-2.30469 -1.15039,-0.45312 -0.70899,-0.28125 -0.70703,-0.28125 -0.70898,-0.28321 -0.70703,-0.2871 -0.70704,-0.28907 -0.70703,-0.29101 -0.70703,-0.29492 -0.70703,-0.29688 -0.70703,-0.30078 -0.70703,-0.30274 -0.70703,-0.30468 -0.70703,-0.3086 -0.70704,-0.31054 -0.70703,-0.31446 -0.70703,-0.3164 -0.70703,-0.32032 -0.70508,-0.32226 -0.70703,-0.32617 -0.70703,-0.32813 -0.70703,-0.33203 -0.70703,-0.33594 -0.70703,-0.33789 -0.70508,-0.34179 -0.70703,-0.34375 -0.70703,-0.34766 -0.70704,-0.35156 -0.70507,-0.35547 -0.70703,-0.35938 -0.70704,-0.36132 -0.70507,-0.36524 -0.70704,-0.36914 -0.70703,-0.37305 -0.70507,-0.37695 -0.70704,-0.37891 -0.70507,-0.38476 -0.70704,-0.38867 -0.70507,-0.39258 -0.70703,-0.39453 -0.70508,-0.40039 -0.70703,-0.4043 -0.70508,-0.4082 -0.70703,-0.41211 -0.70508,-0.41797 -0.70703,-0.41992 -0.70508,-0.42578 -0.70508,-0.43165 -0.70703,-0.43359 -0.70508,-0.43945 -0.70703,-0.44531 -0.70508,-0.44727 -0.70508,-0.45508 -0.70507,-0.45898 -0.70704,-0.46289 -0.70507,-0.46875 -0.70508,-0.47461 -0.70508,-0.47852 -0.70703,-0.48437 -0.70508,-0.49024 -0.70508,-0.49414 -0.70508,-0.50195 -0.70507,-0.50586 -0.70508,-0.51367 -0.70703,-0.51758 -0.70508,-0.52539 -0.70508,-0.5293 -0.70508,-0.53711 -0.70508,-0.54297 -0.70507,-0.54882 -0.70508,-0.55469 -0.70508,-0.5625 -0.70508,-0.56836 -0.70508,-0.57617 -0.70507,-0.58203 -0.70508,-0.58985 -0.70703,-0.59765 -0.70508,-0.60352 -0.70508,-0.61133 -0.70508,-0.61914 -0.70508,-0.62695 -0.70507,-0.63477 -0.70508,-0.64258 -0.70508,-0.65039 -0.70508,-0.66015 -0.70508,-0.66797 -0.70507,-0.67578 -0.70508,-0.6836 -0.70508,-0.69336 -0.70508,-0.70312 -0.70508,-0.71094 -0.70508,-0.72265 -0.70507,-0.73047 -0.70508,-0.74024 -0.70508,-0.75 -0.70508,-0.76172 -0.70508,-0.76953 -0.70507,-0.7832 -0.70508,-0.79102 -0.70508,-0.80273 -0.70898,-0.81836 z"
       id="path34" />
  </g>
  <g
     id="line2d_33"
     transform="matrix(0.95684985,0,0,1.0092523,1.9349477,-12.828724)"
     style="stroke-width:1.0176">
    <path
       style="color:#000000;fill:#000000;stroke-linecap:square;stroke-linejoin:round;-inkscape-stroke:none"
       d="m 196.36914,106.32031 -2.37305,0.91407 0.45703,1.1875 0.35547,0.92187 a 1.2721322,1.2721322 0 0 0 0.002,0.004 l 0.35547,0.91406 a 1.2721322,1.2721322 0 0 0 0.002,0.004 l 0.35547,0.90429 a 1.2721322,1.2721322 0 0 0 0.002,0.004 l 0.35352,0.89453 a 1.2721322,1.2721322 0 0 0 0.002,0.004 l 0.35547,0.88867 a 1.2721322,1.2721322 0 0 0 0.002,0.004 l 0.35547,0.87891 a 1.2721322,1.2721322 0 0 0 0.002,0.004 l 0.35547,0.86914 a 1.2721322,1.2721322 0 0 0 0.002,0.004 l 0.35547,0.86328 a 1.2721322,1.2721322 0 0 0 0,0.004 l 0.35547,0.85352 a 1.2721322,1.2721322 0 0 0 0.002,0.004 l 0.35546,0.84766 a 1.2721322,1.2721322 0 0 0 0.002,0.004 l 0.35547,0.83789 a 1.2721322,1.2721322 0 0 0 0.002,0.004 l 0.35547,0.83203 a 1.2721322,1.2721322 0 0 0 0.002,0.004 l 0.35547,0.82227 a 1.2721322,1.2721322 0 0 0 0,0.004 l 0.35547,0.81641 a 1.2721322,1.2721322 0 0 0 0.002,0.004 l 0.35547,0.8086 a 1.2721322,1.2721322 0 0 0 0.002,0.004 l 0.35547,0.80079 a 1.2721322,1.2721322 0 0 0 0.002,0.004 l 0.35546,0.79297 a 1.2721322,1.2721322 0 0 0 0.002,0.004 l 0.35547,0.78711 a 1.2721322,1.2721322 0 0 0 0.002,0.004 l 0.35547,0.7793 a 1.2721322,1.2721322 0 0 0 0.002,0.004 l 0.35547,0.77148 a 1.2721322,1.2721322 0 0 0 0.002,0.004 l 0.35352,0.76562 a 1.2721322,1.2721322 0 0 0 0.002,0.004 l 0.35547,0.75976 a 1.2721322,1.2721322 0 0 0 0.002,0.004 l 0.35547,0.75195 a 1.2721322,1.2721322 0 0 0 0.002,0.004 l 0.35546,0.74414 a 1.2721322,1.2721322 0 0 0 0.002,0.004 l 0.35547,0.73829 a 1.2721322,1.2721322 0 0 0 0.002,0.004 l 0.35547,0.73242 a 1.2721322,1.2721322 0 0 0 0.002,0.004 l 0.35547,0.72656 a 1.2721322,1.2721322 0 0 0 0.002,0.004 l 0.35547,0.71875 a 1.2721322,1.2721322 0 0 0 0.002,0.004 l 0.35547,0.71484 a 1.2721322,1.2721322 0 0 0 0.002,0.004 l 0.35547,0.70703 a 1.2721322,1.2721322 0 0 0 0.002,0.004 l 0.35547,0.70117 a 1.2721322,1.2721322 0 0 0 0.002,0.004 l 0.35547,0.69531 a 1.2721322,1.2721322 0 0 0 0.002,0.004 l 0.35547,0.6875 a 1.2721322,1.2721322 0 0 0 0.002,0.004 l 0.35547,0.68359 a 1.2721322,1.2721322 0 0 0 0.002,0.004 l 0.35546,0.67773 a 1.2721322,1.2721322 0 0 0 0.002,0.004 l 0.35547,0.67187 a 1.2721322,1.2721322 0 0 0 0.002,0.004 l 0.35547,0.66601 a 1.2721322,1.2721322 0 0 0 0.002,0.004 l 0.35547,0.66016 a 1.2721322,1.2721322 0 0 0 0.002,0.004 l 0.35547,0.65625 a 1.2721322,1.2721322 0 0 0 0.002,0.004 l 0.35546,0.64844 a 1.2721322,1.2721322 0 0 0 0.002,0.004 l 0.35547,0.64453 a 1.2721322,1.2721322 0 0 0 0.002,0.004 l 0.35547,0.63867 a 1.2721322,1.2721322 0 0 0 0.002,0.004 l 0.35547,0.63281 a 1.2721322,1.2721322 0 0 0 0.004,0.004 l 0.35546,0.6289 a 1.2721322,1.2721322 0 0 0 0.002,0.004 l 0.35547,0.62305 a 1.2721322,1.2721322 0 0 0 0.002,0.004 l 0.35547,0.61719 a 1.2721322,1.2721322 0 0 0 0.002,0.004 l 0.35547,0.61328 a 1.2721322,1.2721322 0 0 0 0.002,0.004 l 0.35547,0.60743 a 1.2721322,1.2721322 0 0 0 0.002,0.004 l 0.35546,0.60352 a 1.2721322,1.2721322 0 0 0 0.002,0.004 l 0.35547,0.59766 a 1.2721322,1.2721322 0 0 0 0.002,0.004 l 0.35547,0.59375 a 1.2721322,1.2721322 0 0 0 0.004,0.004 l 0.35547,0.58985 a 1.2721322,1.2721322 0 0 0 0.002,0.002 l 0.35546,0.58398 a 1.2721322,1.2721322 0 0 0 0.002,0.004 l 0.35547,0.58008 a 1.2721322,1.2721322 0 0 0 0.002,0.004 l 0.35547,0.57422 a 1.2721322,1.2721322 0 0 0 0.002,0.004 l 0.35547,0.57031 a 1.2721322,1.2721322 0 0 0 0.002,0.004 l 0.35547,0.5664 a 1.2721322,1.2721322 0 0 0 0.004,0.004 l 0.35547,0.56055 a 1.2721322,1.2721322 0 0 0 0.002,0.004 l 0.35547,0.55664 a 1.2721322,1.2721322 0 0 0 0.002,0.004 l 0.35547,0.55273 a 1.2721322,1.2721322 0 0 0 0.002,0.004 l 0.35547,0.54883 a 1.2721322,1.2721322 0 0 0 0.004,0.002 l 0.35351,0.54492 a 1.2721322,1.2721322 0 0 0 0.004,0.004 l 0.35547,0.53906 a 1.2721322,1.2721322 0 0 0 0.002,0.004 l 0.35547,0.53516 a 1.2721322,1.2721322 0 0 0 0.002,0.004 l 0.35547,0.53125 a 1.2721322,1.2721322 0 0 0 0.002,0.004 l 0.35547,0.52734 a 1.2721322,1.2721322 0 0 0 0.004,0.004 l 0.35547,0.52344 a 1.2721322,1.2721322 0 0 0 0.002,0.004 l 0.35547,0.51953 a 1.2721322,1.2721322 0 0 0 0.002,0.004 l 0.35546,0.51562 a 1.2721322,1.2721322 0 0 0 0.004,0.004 l 0.35547,0.51172 a 1.2721322,1.2721322 0 0 0 0.002,0.004 l 0.35547,0.50781 a 1.2721322,1.2721322 0 0 0 0.002,0.002 l 0.35547,0.50586 a 1.2721322,1.2721322 0 0 0 0.002,0.002 l 0.35546,0.5 a 1.2721322,1.2721322 0 0 0 0.004,0.004 l 0.35547,0.49805 a 1.2721322,1.2721322 0 0 0 0.002,0.002 l 0.35547,0.49414 a 1.2721322,1.2721322 0 0 0 0.002,0.004 l 0.35547,0.48828 a 1.2721322,1.2721322 0 0 0 0.004,0.004 l 0.35547,0.48438 a 1.2721322,1.2721322 0 0 0 0.002,0.004 l 0.35547,0.48242 a 1.2721322,1.2721322 0 0 0 0.002,0.004 l 0.35547,0.47852 a 1.2721322,1.2721322 0 0 0 0.004,0.002 l 0.35547,0.47656 a 1.2721322,1.2721322 0 0 0 0.002,0.002 l 0.35547,0.47265 a 1.2721322,1.2721322 0 0 0 0.002,0.004 l 0.35547,0.4668 a 1.2721322,1.2721322 0 0 0 0.004,0.004 l 0.35547,0.46485 a 1.2721322,1.2721322 0 0 0 0.002,0.004 l 0.35547,0.46094 a 1.2721322,1.2721322 0 0 0 0.002,0.004 l 0.35547,0.45703 a 1.2721322,1.2721322 0 0 0 0.004,0.004 l 0.35546,0.45508 a 1.2721322,1.2721322 0 0 0 0.002,0.002 l 0.35547,0.45117 a 1.2721322,1.2721322 0 0 0 0.004,0.004 l 0.35352,0.44922 a 1.2721322,1.2721322 0 0 0 0.004,0.002 l 0.35547,0.44531 a 1.2721322,1.2721322 0 0 0 0.002,0.004 l 0.35547,0.44141 a 1.2721322,1.2721322 0 0 0 0.004,0.004 l 0.35547,0.4375 a 1.2721322,1.2721322 0 0 0 0.002,0.004 l 0.35547,0.43555 a 1.2721322,1.2721322 0 0 0 0.002,0.004 l 0.35546,0.43164 a 1.2721322,1.2721322 0 0 0 0.004,0.004 l 0.35547,0.42969 a 1.2721322,1.2721322 0 0 0 0.002,0.004 l 0.35547,0.42578 a 1.2721322,1.2721322 0 0 0 0.004,0.004 l 0.35547,0.42188 a 1.2721322,1.2721322 0 0 0 0.002,0.004 l 0.35547,0.41992 a 1.2721322,1.2721322 0 0 0 0.002,0.004 L 229.5,169.9082 a 1.2721322,1.2721322 0 0 0 0.004,0.004 l 0.35546,0.41406 0.82813,0.96485 1.93164,-1.6543 -0.82812,-0.9668 -0.35352,-0.41211 -0.35352,-0.41406 -0.35156,-0.41797 -0.35351,-0.41992 -0.35352,-0.42383 -0.35156,-0.42578 -0.35352,-0.42773 -0.35156,-0.4336 -0.35352,-0.43359 -0.35156,-0.43946 -0.35351,-0.4414 -0.35157,-0.44336 -0.35351,-0.44922 -0.35156,-0.45117 -0.35352,-0.45313 -0.35352,-0.45898 -0.35156,-0.46094 -0.35351,-0.46289 -0.35157,-0.46875 -0.35351,-0.4707 -0.35156,-0.47461 -0.35352,-0.47852 -0.35352,-0.48242 -0.35156,-0.48437 -0.35351,-0.49024 -0.35352,-0.49219 -0.35156,-0.49609 -0.35352,-0.5 -0.35156,-0.50391 -0.35352,-0.50781 -0.35351,-0.51172 -0.35156,-0.51562 -0.35352,-0.51953 -0.35352,-0.52539 -0.35156,-0.52735 -0.35351,-0.53125 -0.35352,-0.53515 -0.35156,-0.54102 -0.35352,-0.54492 -0.35351,-0.54883 -0.35352,-0.55273 -0.35156,-0.55664 -0.35352,-0.5625 -0.35351,-0.56641 -0.35352,-0.57031 -0.35156,-0.57618 -0.35352,-0.58007 -0.35351,-0.58399 -0.35352,-0.58984 -0.35156,-0.59375 -0.35352,-0.59961 -0.35351,-0.60352 -0.35352,-0.60937 -0.35351,-0.61524 -0.35156,-0.61914 -0.35352,-0.62304 -0.35352,-0.62891 -0.35351,-0.63672 -0.35352,-0.63867 -0.35351,-0.64648 -0.35157,-0.6504 -0.35351,-0.65625 -0.35352,-0.6621 -0.35351,-0.66797 -0.35352,-0.67383 -0.35351,-0.67969 -0.35352,-0.68359 -0.35351,-0.69141 -0.35352,-0.69726 -0.35352,-0.70313 -0.35351,-0.70898 -0.35352,-0.7168 -0.35351,-0.7207 -0.35352,-0.72852 -0.35351,-0.73437 -0.35352,-0.74219 -0.35352,-0.74805 -0.35351,-0.7539 -0.35352,-0.76172 -0.35351,-0.76953 -0.35352,-0.7754 -0.35351,-0.78125 -0.35352,-0.79101 -0.35351,-0.79688 -0.35352,-0.80468 -0.35352,-0.81055 -0.35351,-0.82031 -0.35352,-0.82617 -0.35351,-0.83399 -0.35352,-0.84375 -0.35547,-0.84961 -0.35351,-0.85937 -0.35352,-0.86719 -0.35351,-0.875 -0.35352,-0.88281 -0.35352,-0.89258 -0.35546,-0.90039 -0.35352,-0.90821 -0.35352,-0.92187 z"
       id="path35" />
  </g>
  <g
     id="matplotlib.axis_1"
     transform="translate(-7.32,-7.2)">
    <g
       id="xtick_1">
      <g
         id="line2d_34">
        <defs
           id="defs35">
          <path
             id="m8199245207"
             d="M 0,0 V 6.5"
             style="stroke:#000000;stroke-width:2" />
        </defs>
        <g
           id="g35">
          <use
             xlink:href="#m8199245207"
             x="195.64059"
             y="271.76572"
             style="stroke:#000000;stroke-width:2"
             id="use35" />
        </g>
      </g>
      <g
         id="text_1">
        <!-- $0{,}5$ -->
        <g
           transform="matrix(0.24,0,0,-0.24,180.76059,298.70821)"
           id="g38">
          <defs
             id="defs36">
            <path
               id="STIXTwoText-30"
               d="M 1581,-70 Q 1197,-70 928,99 659,269 492,563 326,858 249,1242 q -76,384 -76,806 0,608 163,1072 163,464 480,726 317,263 778,263 416,0 729,-247 314,-246 493,-710 179,-464 179,-1123 0,-410 -80,-788 Q 2835,864 2665,569 2496,275 2227,102 1958,-70 1581,-70 Z m 0,230 q 377,0 585,454 208,455 208,1376 0,973 -202,1437 -201,464 -598,464 -377,0 -582,-461 Q 787,2970 787,2016 787,1088 992,624 1197,160 1581,160 Z"
               transform="scale(0.015625)" />
            <path
               id="STIXTwoText-2c"
               d="m 448,-845 -77,160 q 122,51 243,131 122,80 205,234 83,154 83,410 Q 800,51 704,51 518,51 435,153 q -83,103 -83,244 0,153 102,265 103,112 295,112 160,0 268,-67 109,-67 167,-192 58,-125 58,-304 0,-269 -87,-454 Q 1069,-429 941,-544 813,-659 678,-729 544,-800 448,-845 Z"
               transform="scale(0.015625)" />
            <path
               id="STIXTwoText-35"
               d="M 1114,-83 Q 742,-83 560,6 378,96 378,275 q 0,109 67,192 67,83 189,83 96,0 188,-48 93,-48 192,-109 100,-60 221,-108 122,-48 275,-48 231,0 426,89 195,90 313,288 119,199 119,532 0,358 -141,575 -141,218 -378,333 -236,116 -534,160 -297,45 -617,52 l -77,96 397,1670 H 2771 L 2669,3514 H 1165 L 992,2784 q 320,-26 598,-80 279,-54 506,-150 227,-96 393,-253 167,-157 256,-378 90,-221 90,-521 0,-372 -125,-650 Q 2586,474 2355,288 2125,102 1811,9 1498,-83 1114,-83 Z"
               transform="scale(0.015625)" />
          </defs>
          <use
             xlink:href="#STIXTwoText-30"
             transform="translate(0,0.796875)"
             id="use36" />
          <use
             xlink:href="#STIXTwoText-2c"
             transform="translate(49.499985,0.796875)"
             id="use37" />
          <use
             xlink:href="#STIXTwoText-35"
             transform="translate(73.999969,0.796875)"
             id="use38" />
        </g>
      </g>
    </g>
    <g
       id="xtick_2">
      <g
         id="line2d_35">
        <g
           id="g39">
          <use
             xlink:href="#m8199245207"
             x="283.6012"
             y="271.76572"
             style="stroke:#000000;stroke-width:2"
             id="use39" />
        </g>
      </g>
      <g
         id="text_2">
        <!-- $1{,}0$ -->
        <g
           transform="matrix(0.24,0,0,-0.24,268.72118,298.70821)"
           id="g42">
          <defs
             id="defs39">
            <path
               id="STIXTwoText-31"
               d="M 2726,0 H 512 v 179 q 454,0 640,96 186,96 186,333 v 2707 q 0,167 -45,240 -45,74 -167,74 -64,0 -179,-13 -115,-13 -243,-36 -128,-22 -230,-54 v 212 l 1241,352 h 186 V 608 q 0,-237 192,-333 192,-96 633,-96 z"
               transform="scale(0.015625)" />
          </defs>
          <use
             xlink:href="#STIXTwoText-31"
             transform="translate(0,0.796875)"
             id="use40" />
          <use
             xlink:href="#STIXTwoText-2c"
             transform="translate(49.499985,0.796875)"
             id="use41" />
          <use
             xlink:href="#STIXTwoText-30"
             transform="translate(73.999969,0.796875)"
             id="use42" />
        </g>
      </g>
    </g>
    <g
       id="xtick_3">
      <g
         id="line2d_36">
        <g
           id="g43">
          <use
             xlink:href="#m8199245207"
             x="371.56177"
             y="271.76572"
             style="stroke:#000000;stroke-width:2"
             id="use43" />
        </g>
      </g>
      <g
         id="text_3">
        <!-- $1{,}5$ -->
        <g
           transform="matrix(0.24,0,0,-0.24,356.68177,298.70821)"
           id="g46">
          <use
             xlink:href="#STIXTwoText-31"
             transform="translate(0,0.09375)"
             id="use44" />
          <use
             xlink:href="#STIXTwoText-2c"
             transform="translate(49.499985,0.09375)"
             id="use45" />
          <use
             xlink:href="#STIXTwoText-35"
             transform="translate(73.999969,0.09375)"
             id="use46" />
        </g>
      </g>
    </g>
    <g
       id="xtick_4">
      <g
         id="line2d_37" />
      <g
         id="text_4">
        <!-- $V,\;\text{л}$ -->
        <g
           transform="matrix(0.24,0,0,-0.24,437.44236,298.70821)"
           id="g49">
          <defs
             id="defs46">
            <path
               id="STIXTwoText-Italic-56"
               d="M 1504,-32 H 1293 L 934,3430 q -25,218 -77,343 -51,125 -150,182 -99,58 -272,58 l 13,192 h 1568 l -19,-192 q -243,0 -384,-96 -141,-96 -128,-314 0,-32 9,-115 10,-83 10,-115 l 192,-1824 45,-749 h 32 l 371,563 1376,2061 q 90,128 144,237 54,109 54,185 0,96 -83,131 -83,36 -301,36 l 13,192 h 1383 l -13,-192 q -128,0 -228,-26 -99,-25 -189,-99 -89,-74 -195,-208 -105,-134 -252,-352 z"
               transform="scale(0.015625)" />
            <path
               id="STIXTwoText-43b"
               d="M 397,-58 Q 179,-58 54,48 -70,154 -70,314 q 0,140 80,214 80,74 176,74 147,0 230,-64 83,-64 186,-64 89,0 162,44 74,45 138,199 77,179 144,425 68,247 112,506 45,259 70,486 26,228 26,368 0,244 -109,292 -108,48 -409,48 v 185 h 2598 v -185 q -262,0 -355,-61 -93,-61 -93,-266 V 512 q 0,-198 83,-266 84,-67 359,-67 V 0 H 1901 v 179 q 275,0 361,64 87,64 87,263 v 2278 h -787 q -20,-384 -74,-794 -54,-409 -141,-787 Q 1261,826 1126,531 1005,250 832,96 659,-58 397,-58 Z"
               transform="scale(0.015625)" />
          </defs>
          <use
             xlink:href="#STIXTwoText-Italic-56"
             transform="translate(0,0.296875)"
             id="use47" />
          <use
             xlink:href="#STIXTwoText-2c"
             transform="translate(63.999985,0.296875)"
             id="use48" />
          <use
             xlink:href="#STIXTwoText-43b"
             transform="translate(127.91681,0.296875)"
             id="use49" />
        </g>
      </g>
    </g>
    <g
       id="xtick_5">
      <g
         id="line2d_38" />
      <g
         id="text_5">
        <!-- $0$ -->
        <g
           transform="matrix(0.24,0,0,-0.24,96.402365,298.70821)"
           id="g50">
          <use
             xlink:href="#STIXTwoText-30"
             transform="translate(0,0.796875)"
             id="use50" />
        </g>
      </g>
    </g>
  </g>
  <g
     id="matplotlib.axis_2"
     transform="translate(-7.32,-7.2)">
    <g
       id="ytick_1">
      <g
         id="line2d_39">
        <defs
           id="defs50">
          <path
             id="mb2387ebbd3"
             d="M 0,0 H -6.5"
             style="stroke:#000000;stroke-width:2" />
        </defs>
        <g
           id="g51">
          <use
             xlink:href="#mb2387ebbd3"
             x="107.68"
             y="183.80513"
             style="stroke:#000000;stroke-width:2"
             id="use51" />
        </g>
      </g>
      <g
         id="text_6">
        <!-- 1 -->
        <g
           transform="matrix(0.24,0,0,-0.24,85.8,192.27637)"
           id="g52">
          <use
             xlink:href="#STIXTwoText-31"
             id="use52" />
        </g>
      </g>
    </g>
    <g
       id="ytick_2">
      <g
         id="line2d_40">
        <g
           id="g53">
          <use
             xlink:href="#mb2387ebbd3"
             x="107.68"
             y="95.844528"
             style="stroke:#000000;stroke-width:2"
             id="use53" />
        </g>
      </g>
      <g
         id="text_7">
        <!-- 2 -->
        <g
           transform="matrix(0.24,0,0,-0.24,85.8,104.31578)"
           id="g54">
          <defs
             id="defs53">
            <path
               id="STIXTwoText-32"
               d="M 2765,0 H 243 v 218 l 973,972 q 320,327 531,592 211,266 317,535 106,269 106,601 0,359 -215,573 -214,215 -585,215 -314,0 -535,-135 -221,-134 -400,-493 l -153,64 q 147,468 467,724 320,256 787,256 365,0 640,-138 275,-138 432,-384 157,-246 157,-586 0,-281 -119,-541 -118,-259 -352,-534 -233,-275 -572,-621 L 877,518 v -32 l 448,20 h 889 q 256,0 358,115 103,115 212,403 h 186 z"
               transform="scale(0.015625)" />
          </defs>
          <use
             xlink:href="#STIXTwoText-32"
             id="use54" />
        </g>
      </g>
    </g>
    <g
       id="ytick_3">
      <g
         id="line2d_41" />
      <g
         id="text_8">
        <!-- $p, 10^4\;\text{Па}$ -->
        <g
           transform="matrix(0.24,0,0,-0.24,7.2,26.16)"
           id="g61">
          <defs
             id="defs54">
            <path
               id="STIXTwoText-Italic-70"
               d="m 1440,-70 q -166,0 -355,67 -189,67 -266,131 l 83,320 q 77,-77 221,-160 144,-83 362,-83 326,0 569,204 244,205 375,599 131,394 131,957 0,307 -83,467 -83,160 -199,217 -115,58 -204,58 -212,0 -372,-119 -160,-118 -275,-304 -115,-185 -205,-396 l 71,550 q 166,205 319,346 154,141 314,211 160,71 333,71 243,0 438,-122 196,-122 311,-365 115,-243 115,-614 0,-602 -221,-1060 Q 2682,448 2304,189 1926,-70 1440,-70 Z M 1286,-1408 H 32 l 800,3891 q 6,32 9,61 4,29 4,61 0,96 -55,140 -54,45 -182,45 -70,0 -138,-6 -67,-6 -67,-6 v 160 l 915,96 h 122 l -90,-493 h 26 L 710,-646 q -6,-45 -16,-122 -9,-77 -9,-147 0,-109 131,-214 131,-106 515,-106 z"
               transform="scale(0.015625)" />
            <path
               id="STIXTwoText-34"
               d="M 2426,0 H 1856 V 1011 H 83 v 403 l 1952,2714 h 391 V 1453 h 652 V 1011 H 2426 Z M 435,1478 v -25 h 1421 v 1977 h -26 z"
               transform="scale(0.015625)" />
            <path
               id="STIXTwoText-41f"
               d="M 2035,0 H 230 v 192 q 269,0 403,38 135,39 176,167 42,128 42,397 v 2611 q 0,256 -45,384 -44,128 -176,176 -131,48 -400,48 v 192 h 4404 v -192 q -288,0 -420,-52 -131,-51 -170,-182 -38,-131 -38,-381 V 819 q 0,-288 45,-419 45,-131 179,-170 135,-38 404,-38 V 0 H 2829 v 192 q 243,0 371,32 128,32 173,166 45,135 45,429 V 3923 H 1440 V 806 q 0,-268 38,-400 39,-131 167,-173 128,-41 390,-41 z"
               transform="scale(0.015625)" />
            <path
               id="STIXTwoText-430"
               d="m 1005,-45 q -371,0 -567,205 -195,205 -195,512 0,256 118,432 119,176 314,297 195,122 422,205 228,84 445,141 218,58 384,109 v 282 q 0,416 -144,592 -144,176 -432,176 -275,0 -352,-116 -76,-115 -76,-403 0,-147 -74,-221 -74,-73 -208,-73 -96,0 -183,73 -86,74 -86,234 0,179 137,339 138,160 391,262 253,103 599,103 524,0 742,-243 218,-243 218,-743 V 666 q 0,-199 44,-257 45,-57 148,-57 89,0 162,45 74,45 138,115 l 96,-102 Q 2886,179 2742,73 2598,-32 2355,-32 q -224,0 -291,128 -67,128 -99,365 l -39,77 v 1107 q -288,-71 -544,-167 -256,-96 -416,-250 -160,-153 -160,-402 0,-237 128,-378 128,-141 333,-141 167,0 349,83 182,84 355,237 l 51,-230 h -76 Q 1798,269 1660,166 1523,64 1366,9 1210,-45 1005,-45 Z"
               transform="scale(0.015625)" />
          </defs>
          <use
             xlink:href="#STIXTwoText-Italic-70"
             transform="translate(0,0.315625)"
             id="use55" />
          <use
             xlink:href="#STIXTwoText-2c"
             transform="translate(52.099991,0.315625)"
             id="use56" />
          <use
             xlink:href="#STIXTwoText-31"
             transform="translate(93.099973,0.315625)"
             id="use57" />
          <use
             xlink:href="#STIXTwoText-30"
             transform="translate(142.59996,0.315625)"
             id="use58" />
          <use
             xlink:href="#STIXTwoText-34"
             transform="matrix(0.7,0,0,0.7,192.9383,33.85)"
             id="use59" />
          <use
             xlink:href="#STIXTwoText-41f"
             transform="translate(252.90045,0.315625)"
             id="use60" />
          <use
             xlink:href="#STIXTwoText-430"
             transform="translate(328.80044,0.315625)"
             id="use61" />
        </g>
      </g>
    </g>
  </g>
  <g
     id="line2d_42"
     transform="translate(-7.32,-7.2)">
    <path
       d="M 371.56177,236.58148"
       clip-path="url(#pb08d502d5c)"
       style="fill:none;stroke:#000000;stroke-width:1.5;stroke-linecap:square"
       id="path61" />
    <defs
       id="defs61">
      <path
         id="m5c3a45caaf"
         d="M 0,4 C 1.060812,4 2.078319,3.578535 2.828427,2.828427 3.578535,2.078319 4,1.060812 4,0 4,-1.060812 3.578535,-2.078319 2.828427,-2.828427 2.078319,-3.578535 1.060812,-4 0,-4 -1.060812,-4 -2.078319,-3.578535 -2.828427,-2.828427 -3.578535,-2.078319 -4,-1.060812 -4,0 -4,1.060812 -3.578535,2.078319 -2.828427,2.828427 -2.078319,3.578535 -1.060812,4 0,4 Z"
         style="stroke:#000000" />
    </defs>
    <g
       clip-path="url(#pb08d502d5c)"
       id="g62">
      <use
         xlink:href="#m5c3a45caaf"
         x="371.56177"
         y="236.58148"
         style="stroke:#000000"
         id="use62" />
    </g>
  </g>
  <g
     id="line2d_43"
     transform="translate(-7.32,-7.2)">
    <path
       d="M 301.1933,217.44992"
       clip-path="url(#pb08d502d5c)"
       style="fill:none;stroke:#000000;stroke-width:1.5;stroke-linecap:square"
       id="path62" />
    <g
       clip-path="url(#pb08d502d5c)"
       id="g63">
      <use
         xlink:href="#m5c3a45caaf"
         x="301.1933"
         y="217.44992"
         style="stroke:#000000"
         id="use63" />
    </g>
  </g>
  <g
     id="line2d_44"
     transform="translate(-7.3199991,-10.484986)">
    <path
       d="M 230.82483,169.49798"
       clip-path="url(#pb08d502d5c)"
       style="fill:none;stroke:#000000;stroke-width:1.5;stroke-linecap:square"
       id="path63" />
    <g
       clip-path="url(#pb08d502d5c)"
       id="g64">
      <use
         xlink:href="#m5c3a45caaf"
         x="230.82483"
         y="169.49799"
         style="stroke:#000000"
         id="use64" />
    </g>
  </g>
  <g
     id="line2d_45"
     transform="translate(-6.1669087,-10.899195)">
    <path
       d="M 195.64059,107.96421"
       clip-path="url(#pb08d502d5c)"
       style="fill:none;stroke:#000000;stroke-width:1.5;stroke-linecap:square"
       id="path64" />
    <g
       clip-path="url(#pb08d502d5c)"
       id="g65">
      <use
         xlink:href="#m5c3a45caaf"
         x="195.64059"
         y="107.96421"
         style="stroke:#000000"
         id="use65" />
    </g>
  </g>
  <g
     id="text_9"
     transform="translate(-7.32,-7.2)">
    <!-- A -->
    <g
       transform="matrix(0.24,0,0,-0.24,378.58359,228.80816)"
       id="g66">
      <defs
         id="defs65">
        <path
           id="STIXTwoText-41"
           d="M 1363,0 H 19 v 192 q 179,0 288,57 109,58 211,234 103,176 256,541 l 1357,3213 h 263 L 3910,762 Q 4051,448 4182,320 4314,192 4570,192 V 0 H 2848 v 192 q 96,0 198,13 103,13 173,64 71,51 71,160 0,70 -23,163 -22,93 -86,234 l -275,640 -45,128 -730,1856 h -19 L 1363,1594 1318,1466 1005,723 q -26,-77 -49,-151 -22,-73 -22,-162 0,-135 102,-177 103,-41 327,-41 z M 3002,1402 H 1222 l 96,256 h 1588 z"
           transform="scale(0.015625)" />
      </defs>
      <use
         xlink:href="#STIXTwoText-41"
         id="use66" />
    </g>
  </g>
  <g
     id="text_10"
     transform="translate(-7.32,-7.2)">
    <!-- B -->
    <g
       transform="matrix(0.24,0,0,-0.24,309.41511,209.6766)"
       id="g67">
      <defs
         id="defs66">
        <path
           id="STIXTwoText-42"
           d="M 2202,0 H 230 v 192 q 263,0 394,45 131,45 179,179 48,134 48,397 v 2617 q 0,256 -48,381 -48,125 -179,163 -131,39 -394,39 v 192 h 1728 q 570,0 915,-119 346,-118 499,-339 154,-221 154,-541 0,-428 -256,-643 -256,-214 -652,-323 v -26 q 275,-44 527,-166 253,-122 419,-343 167,-220 167,-572 0,-544 -407,-839 Q 2918,0 2202,0 Z m -301,237 q 205,0 409,25 205,26 374,112 170,87 272,263 103,176 103,483 0,365 -170,566 -169,202 -435,282 -265,80 -566,80 H 1440 V 256 q 115,-6 230,-13 116,-6 231,-6 z M 1440,3936 V 2317 h 435 q 583,0 800,201 218,202 218,637 0,378 -240,589 -240,211 -829,211 -90,0 -189,-3 -99,-3 -195,-16 z"
           transform="scale(0.015625)" />
      </defs>
      <use
         xlink:href="#STIXTwoText-42"
         id="use67" />
    </g>
  </g>
  <g
     id="text_11"
     transform="translate(-7.32,-7.2)">
    <!-- C -->
    <g
       transform="matrix(0.24,0,0,-0.24,238.42227,161.72466)"
       id="g68">
      <defs
         id="defs67">
        <path
           id="STIXTwoText-43"
           d="m 2330,-70 q -660,0 -1108,281 -448,282 -675,774 -227,493 -227,1114 0,698 269,1184 269,487 742,743 474,256 1088,256 339,0 544,-58 205,-58 326,-116 122,-57 199,-57 77,0 118,67 42,68 100,164 h 192 V 2816 h -218 q -102,627 -432,908 -330,282 -822,282 -692,0 -1066,-493 -374,-492 -374,-1350 0,-640 195,-1043 195,-403 540,-595 346,-192 794,-192 442,0 774,163 333,163 602,458 L 4045,819 Q 3872,563 3632,361 3392,160 3072,45 2752,-70 2330,-70 Z"
           transform="scale(0.015625)" />
      </defs>
      <use
         xlink:href="#STIXTwoText-43"
         id="use68" />
    </g>
  </g>
  <g
     id="text_12"
     transform="translate(-7.32,-7.2)">
    <!-- D -->
    <g
       transform="matrix(0.24,0,0,-0.24,202.51803,100.19089)"
       id="g69">
      <defs
         id="defs68">
        <path
           id="STIXTwoText-44"
           d="M 2054,0 H 224 v 192 q 282,0 416,41 134,42 172,173 39,132 39,388 v 2681 q 0,237 -58,349 -57,112 -192,150 -134,39 -377,39 v 192 h 1760 q 499,0 931,-106 432,-105 752,-349 320,-243 502,-640 183,-396 183,-985 0,-551 -163,-954 Q 4026,768 3722,509 3418,250 2995,125 2573,0 2054,0 Z m -236,243 q 582,0 998,157 416,157 640,553 224,397 224,1114 0,915 -467,1395 -467,480 -1459,480 -77,0 -151,0 -73,0 -163,-12 V 262 q 96,-6 189,-13 93,-6 189,-6 z"
           transform="scale(0.015625)" />
      </defs>
      <use
         xlink:href="#STIXTwoText-44"
         id="use69" />
    </g>
  </g>
  <g
     id="patch_3"
     transform="translate(-7.32,-7.2)">
    <path
       d="m 107.68,271.76571 q 175.92118,0 349.70903,0"
       style="fill:none;stroke:#000000;stroke-width:2.56;stroke-linecap:round"
       id="path69" />
    <path
       d="m 448.10903,268.28571 9.28,3.48 -9.28,3.48 z"
       style="stroke:#000000;stroke-width:2.56;stroke-linecap:round"
       id="path70" />
  </g>
  <g
     id="patch_4"
     transform="translate(-7.32,-7.2)">
    <path
       d="m 107.68,271.76571 q 0,-127.54285 0,-251.612895"
       style="fill:none;stroke:#000000;stroke-width:2.56;stroke-linecap:round"
       id="path71" />
    <path
       d="m 104.2,29.432815 3.48,-9.28 3.48,9.28 z"
       style="stroke:#000000;stroke-width:2.56;stroke-linecap:round"
       id="path72" />
  </g>
  <defs
     id="defs72">
    <clipPath
       id="pb08d502d5c">
      <rect
         x="102.40237"
         y="16.68"
         width="357.12"
         height="255.08571"
         id="rect72" />
    </clipPath>
  </defs>
</svg>
