<svg height="2390.813622pt" preserveAspectRatio="xMidYMid meet" viewBox="0 0 2206.218269 2390.813622" width="2206.218269pt" xmlns="http://www.w3.org/2000/svg"><g transform="matrix(.1 0 0 -.1 -31.618664 2506.861245)"><path d="m20283 25055c-3-9-4-17-2-19 2-1 33-20 67-41 82-50 164-147 187-222 21-66 16-161-10-217-26-55-100-132-149-155-50-25-81-55-71-70 10-18 31-13 92 23 74 44 141 115 177 189 26 53 28 64 24 150-3 74-9 102-31 143-38 74-120 159-192 199-69 39-83 42-92 20z"/><path d="m4223 24930c-147-168-188-332-102-404 38-32 99-51 136-41 27 7 26 8-35 37-81 39-96 62-89 136 3 42 15 74 42 120 49 81 121 162 146 162 14 0 19 7 19 25 0 22-4 25-32 25-27-1-42-11-85-60z"/><path d="m5673 24947c-55-29-221-189-238-230-12-29-19-77-16-118 1-10 23-31 49-48 39-25 64-32 123-37 69-6 77-5 101 17 25 22 32 41 29 80-1 21-43 39-91 39h-38l57 58c69 69 104 138 105 207 1 43-2 50-19 52-11 1-39-8-62-20zm19-91c-23-65-106-156-151-165-40-8-53-30-23-38 20-5 20-6-7-29-16-13-32-24-35-24-11 0-6 60 8 93 20 47 209 228 223 213 1-1-6-23-15-50zm-53-252c34-7 41-28 13-43-18-9-97 0-110 14-9 9 27 35 49 35 9 0 31-3 48-6z"/><path d="m17574 24931c-27-12-56-39-82-73-42-57-95-152-104-184-3-12-21-25-47-34-47-15-58-27-42-43 7-7 20-7 46 0 35 11 35 11 35-18 0-77 54-119 161-127 63-4 68-3 83 20 20 31 24 92 7 112-22 27-97 49-146 44-25-3-45-2-45 2 0 5 24 22 53 38 108 63 177 152 180 235 2 40 0 42-28 45-16 1-49-7-71-17zm40-73c-16-43-74-106-128-142-25-16-28-16-23-2 16 42 100 157 125 170 41 23 43 20 26-26zm-49-290c16-7 25-19 25-34 0-28-17-39-50-35-27 3-90 38-90 50 0 30 67 41 115 19z"/><path d="m1293 24918c-6-7-13-24-16-38-23-96-49-175-60-182-6-4-63-8-124-8-106 0-113-1-113-20s7-20 120-20c72 0 120-4 120-10 0-5-11-12-25-15s-37-7-51-10c-17-4-24-11-22-23 3-13 13-17 42-16l38 1-6-42c-5-31-3-45 8-55 27-22 46-5 46 43 0 24 5 48 12 55s36 12 65 12c46 0 53-3 53-19 0-11-4-23-10-26-5-3-10-20-10-36 0-26 4-30 22-27 16 2 26 16 39 53 17 49 18 50 68 58 63 10 66 24 7 32-58 9-52 34 11 55 62 20 68 40 13 40-30 0-41 4-37 13 16 42 39 167 34 182-15 36-40 11-58-60-11-38-24-87-29-107l-11-38h-65-65l7 38c4 20 13 53 20 72 21 54 22 104 3 108-9 1-20-3-26-10zm107-268c0-18-7-20-66-20-105 0-70 31 44 39 16 1 22-5 22-19z"/><path d="m12145 24907c-84-40-162-139-190-243-8-28-147-43-272-28-43 6-53 10-53 26 0 24 47 68 72 68 10 0 22-10 28-24 12-32 28-41 45-26 21 17 19 46-5 70-15 15-33 20-69 20-43 0-55-5-86-34-32-31-36-39-33-78 4-54 27-67 118-69h65l-47-15c-64-20-98-64-98-128 0-103 78-164 162-125 29 13 84 115 103 193 8 32 20 65 26 72 16 20 46 17 51-4 7-27 94-64 165-70 50-4 68-1 95 16 21 13 57 21 103 24 47 3 88 13 124 31 54 26 55 26 79 6 35-27 152-27 207 1 47 24 44 24 38 1-3-10 0-28 6-40 10-18 21-21 76-21 67 0 106 12 140 42 46 39 150 107 153 98 2-5-8-26-22-47-44-68-39-93 18-93 34 0 55 8 94 35l50 34 6-24c8-33 35-32 98 3 41 22 52 24 56 13 3-8 15-25 28-38 21-21 32-23 117-23 52 0 108 5 126 11 26 9 35 8 49-3 29-26 152-52 206-44 49 8 98 42 77 55-7 5-5 18 8 41 18 35 18 35 107 40 53 3 102 12 122 22l32 16v-33c0-18 9-43 19-56 18-22 26-24 118-24 71 0 106 5 127 16 27 15 30 15 47-2 16-16 35-19 109-19 81 0 97 3 150 30 33 17 60 26 60 20 0-5 9-19 20-30 16-16 33-20 85-20 76 0 121 16 183 67 35 29 43 32 42 17-5-43 2-55 43-76 35-19 57-22 137-22 59 0 119 7 160 18 50 14 65 15 69 5 2-7 18-28 36-47 26-29 40-35 83-40 30-2 64 1 82 8 30 12 41 29 18 27-7-1-39 2-70 7-73 10-95 33-81 79 18 61 0 71-68 36-85-43-260-62-324-35-42 18-43 29-6 121 15 39 26 76 23 83-9 27-40 8-92-54-106-125-194-175-264-148-25 9-20 62 9 96s32 66 8 75c-11 4-24-3-40-23-77-96-165-154-234-154-50 0-99 11-99 21 0 5 16 31 35 58 19 26 35 55 35 63 0 23-26 41-49 33-29-9-71-62-71-90 0-51-117-97-202-79-55 11-59 33-22 108 15 30 24 62 20 71-10 26-39 13-60-26-25-46-86-71-188-77-82-5-85-3-69 41 15 40 3 69-28 65-24-3-26-7-28-50-1-31-12-64-29-94-22-38-25-49-16-70 11-24 11-24-40-24-44 0-83 7-148 27-10 3-2 12 24 28 62 37 106 100 106 149 0 23-5 47-12 54-51 51-188-72-188-168 0-24-6-33-27-41-42-16-108-22-157-15-43 7-46 9-46 37 0 35 42 65 107 75 23 3 44 12 47 20 9 23-23 44-66 44-34 0-50-8-92-44-47-40-156-101-156-87 1 3 7 17 15 31 35 61-6 83-61 34-94-84-174-136-132-86 50 60 50 152-2 152-13 0-107-64-195-133-39-31-87-49-117-45-31 4-35 41-8 103 19 44 19 50 5 64-18 17-18 17-69-55-10-14-43-38-73-51-44-20-63-24-99-18-40 6-44 9-44 34 0 16 7 34 15 41 25 21 15 54-18 58-24 3-30-2-43-35-9-22-30-49-50-63-39-26-127-59-161-60-19 0-21 4-16 33 7 46-20 77-75 84l-42 6 50 53c52 55 70 88 70 129 0 42-76 48-155 12zm98-23c12-12-22-61-73-107-50-45-136-94-146-84-9 9 25 65 64 109 20 23 60 52 87 64 55 26 59 27 68 18zm1647-142c0-25-49-88-78-101-22-10-23-9-16 11 7 26 18 42 54 80 30 32 40 35 40 10zm-1754-96c-6-39-4-46 19-64 32-26 23-32-35-23-112 18-137 61-55 93 28 11 54 24 60 29 16 16 17 10 11-35zm108-2c6-16-3-44-14-44-25 0-40 15-40 40 0 23 3 27 24 23 14-3 27-11 30-19zm-404-97c0-21-37-114-59-151-28-44-53-50-86-20-18 17-25 33-25 61 1 51 24 78 90 101 68 24 80 25 80 9z"/><path d="m2828 24898c-29-10-37-35-15-44 8-3 31-1 53 4 21 5 45 7 52 5 23-8 12-42-22-68-60-46-56-71 18-105 39-18 96-77 96-100 0-21-90-49-180-56-76-6-90-10-88-23 3-13 19-17 82-19 134-5 236 38 236 100 0 39-60 113-114 138-23 11-36 20-31 20 6 0 23 12 39 27 38 32 40 87 6 115-25 20-87 23-132 6z"/><path d="m2555 24873c-91-49-140-111-156-197-13-75-6-102 34-126 40-25 158-28 177-6 37 45-33 110-113 104-40-2-47 0-47 15 0 57 84 153 154 177 26 8 36 17 34 28-4 23-46 25-83 5zm1-288c19-14 19-14-1-15-38 0-95 13-95 21 0 15 75 10 96-6z"/><path d="m336 24838c-4-12-16-192-19-298-2-42 0-45 23-45 20 0 26 6 28 30 2 17 11 38 20 48 14 15 18 16 27 4 15-21 43-32 125-51 41-10 91-22 111-27 48-12 76-11 85 2 14 23-19 35-184 70-70 15-91 31-73 53 7 8 50 36 96 63 84 48 113 78 102 107-15 39-91 8-214-86-34-27-65-48-67-48-3 0-7 42-8 93-3 87-4 92-26 95-12 2-24-3-26-10z"/><path d="m1907 24839c-17-10-33-36-109-183-43-81-46-96-20-96 24 0 44 23 75 85 40 83 78 149 94 167 26 30-2 49-40 27z"/><path d="m4774 24792c-12-9-27-27-33-39-7-13-20-23-29-23-29 0-42-21-42-66 0-27 7-51 21-68 18-22 28-26 75-26 102 0 164 43 177 124 8 47-13 93-49 106-39 15-97 11-120-8zm90-32c22-8 26-16 26-47 0-21-6-45-13-54-20-26-76-50-110-47-27 2-33 8-35 31-2 18 1 27 11 27 8 0 20 13 25 29 11 31 46 71 61 71 5 0 21-4 35-10z"/><path d="m2130 24780c-14-4-36-11-50-14-33-7-76-91-85-168-6-53-4-60 19-83 21-21 34-25 83-25 47 0 67 6 105 30 113 71 152 196 76 243-29 18-115 28-148 17zm128-52c6-6 12-25 12-44 0-67-118-161-185-148-35 6-35 7-35 58 0 66 34 125 82 143 35 13 104 8 126-9z"/><path d="m8969 24763c-32-79-65-119-105-129-37-9-93 23-102 60-9 33-16 35-82 19-28-7-39-17-55-50-15-33-29-46-60-57-66-25-117-36-165-36h-45l40 20c44 23 109 108 103 137-5 25-69 29-125 8-107-41-170-148-111-189 37-26 206-21 291 8 63 23 67 23 67 6 0-32 22-70 41-70 20 0 29 19 29 60 0 23 14 69 26 88 1 2 20-8 41-22 27-19 51-26 83-26 43 0 46-1 45-27 0-37 39-46 49-11l6 23 13-24c16-32 73-61 117-61 47 1 114 32 135 63 9 15 15 40 13 59-2 26-10 36-38 50-49 24-114 32-150 20-34-12-35-11-16 43 10 28 11 44 4 53-17 20-38 14-49-15zm-548-85c-21-34-73-68-103-68-24 0-23 12 5 37 22 21 95 62 110 63 5 0 0-15-12-32zm718-49c39-14 41-40 5-68-53-42-154-16-154 38 0 36 84 53 149 30z"/><path d="m5990 24747c-36-18-51-34-79-87-36-69-80-207-81-252 0-39 10-58 30-58 18 0 36 42 60 148l12 52h71c139 0 183 28 180 114-2 43-7 55-33 79-38 34-96 36-160 4zm118-33c16-11 22-25 22-54 0-49-17-59-111-67-55-5-69-3-69 8 0 14 36 99 42 99 2 0 21 7 43 15 50 18 46 18 73-1z"/><path d="m6992 24758c-7-7-12-28-12-48 0-44-15-60-93-95-46-21-66-25-98-20-45 8-46 10-16 90 18 49 12 67-21 63-21-2-29-12-42-49-9-26-22-55-30-65-32-38-149-71-164-45-3 4-1 23 4 40 10 37 4 61-16 61-7 0-18 9-24 20-8 16-21 20-59 20-44 0-54-5-99-45-28-25-53-54-56-63-16-62-16-72 4-92 30-30 114-28 160 4 32 22 37 22 69 9 42-18 96-11 154 18 38 20 42 20 68 5 43-25 133-21 199 10 30 14 64 34 75 44 19 18 24 18 69 5 27-8 72-15 100-15h51v-57c0-32 4-65 8-74 6-12 2-18-16-22-13-4-42-20-66-37-31-23-41-37-39-53 4-30 47-37 55-9 2 11 32 35 66 54 48 26 61 38 58 54-2 10-6 51-8 89l-4 71 36 17c28 13 36 22 33 40-2 17-11 23-36 25-26 3-39-3-62-28-28-30-33-32-82-25-29 3-65 11-80 16-23 9-25 14-18 38 4 15 3 35-2 44-11 20-49 22-66 5zm-555-105c13-43 9-52-43-84-43-26-84-20-84 13 0 23 81 108 103 108 7 0 17-17 24-37z"/><path d="m7975 24759c-118-15-259-41-278-51-10-5-16-16-13-24 4-10-3-14-29-14-18 0-37 5-40 10-3 6-33 10-66 10-58 0-60-1-114-53-44-42-55-60-55-85 0-40 25-48 113-37 34 4 76 6 92 5 17-1 68-2 115-3 89-2 78-6 233 71 4 2 5-18 1-45-7-53 8-78 43-71 15 3 18 12 15 63-3 43 2 73 16 106 18 41 19 48 5 61-13 14 2 16 129 23 79 4 152 12 163 18 19 10 19 10 0 18-27 10-242 9-330-2zm-12-81c-36-63-219-139-293-123l-30 7 31 25c23 20 30 33 27 53-4 27-3 27 91 44 53 9 112 18 131 19 19 2 41 5 48 5 10 2 9-6-5-30zm-389-59c3-17 4-34 1-38-2-4-30-13-61-20-43-10-59-10-68-1-8 9 0 21 33 51 54 49 86 51 95 8z"/><path d="m10366 24727c-14-24-26-48-26-53 0-25-114-84-161-84-13 0-19 7-19 24 0 25-16 36-56 36-20 0-24 5-24 28 0 50-31 67-119 67-58 0-86-5-116-21-51-26-85-76-85-124 0-32-4-38-36-53-37-18-98-15-110 5-10 16 4 53 36 88 32 36 40 77 16 86-23 9-57-15-72-51-12-29-20-35-59-40-28-5-62-2-89 6-44 13-45 14-48 59-4 53-31 65-36 15-2-16-15-67-29-113-25-76-25-84-10-99 13-13 19-14 31-3 9 7 16 21 16 32 0 10 7 32 15 49 14 25 18 28 36 18 12-6 47-9 80-7 59 3 59 3 59-28 0-45 30-67 99-72 34-2 67 1 81 8 16 9 25 9 33 1 7-7 54-11 117-11 109 0 187 15 218 43 10 9 44 16 82 19 40 2 81 12 106 25 36 18 42 19 60 6 14-11 42-14 109-11 86 3 95 5 163 45l72 41 12-39c6-22 26-53 45-69 28-25 42-30 87-30 64 0 97 24 46 34-16 3-43 9-60 12-40 7-68 45-75 102-4 26-9 55-12 65-7 25-38 21-57-8-19-28-105-86-155-103-55-19-141-12-141 11 0 6 12 28 26 48 30 44 29 83-3 87-16 2-28-7-47-41zm-348-32c17-6 15-52-4-84-21-36-74-71-106-71-36 0-98 28-98 44 0 89 102 144 208 111zm42-130c0-8-4-15-10-15-5 0-7 7-4 15 4 8 8 15 10 15s4-7 4-15z"/><path d="m19909 24745c-73-38-109-79-109-125 0-21 6-41 13-43 6-3-10-3-38 0-61 7-85 27-119 99-29 61-52 69-96 34-14-11-29-20-34-20-4 0-42-22-83-50-66-44-178-90-221-90-9 0 5 13 30 29 54 34 68 56 68 106 0 32-4 38-35 51-53 22-94 17-171-20-75-36-141-94-150-133-8-30 19-71 54-84 65-26 286 9 382 61 28 15 33 9 20-25-24-64 17-86 68-34 29 29 42 53 76 132 19 46 31 47 51 4 9-19 31-49 50-67 34-33 38-34 128-38 91-4 136 7 270 63 9 4 17 3 17-3 0-39 170-79 220-52 31 17 13 27-64 35-96 12-122 40-97 108 13 33-1 51-33 43-14-3-26-2-26 3 0 12-74 41-103 41-12-1-43-12-68-25zm110-34c11-7 10-15-8-45-13-20-31-41-41-46-23-13-90-13-110 0-12 7-11 13 10 35 47 51 116 77 149 56zm-753-26c10-26-22-61-81-90-47-23-65-26-103-21-25 3-48 8-51 11-9 10 52 62 104 89 56 29 122 35 131 11z"/><path d="m16645 24719c-4-6-4-13 0-17 11-11 116-31 168-31 44-1 47-3 47-28 0-27-14-80-33-120-19-42 15-72 43-38 11 13 25 56 36 115 16 81-3 74 169 66 97-4 156-3 159 3 11 18-66 33-184 38-63 2-125 9-137 15-16 8-26 8-35 0-9-7-37-7-88-2-102 12-138 12-145-1z"/><path d="m18405 24720c-14-23 11-30 105-30h99l-23-47c-13-27-31-70-40-97-15-44-15-51-2-65 22-21 34-7 63 75 12 37 30 78 38 91 9 13 13 28 10 33-4 6 52 11 142 12 124 3 148 5 148 18s-37 15-267 18c-173 1-269-1-273-8z"/><path d="m17974 24528c-5-16-1-27 16-40 41-33 90-18 90 28 0 25-17 34-65 34-26 0-35-5-41-22z"/><path d="m2675 24411c-6-19-25-20-608-26-799-7-1022-15-1022-35 0-17 49-17 1063-5l603 8 9 22c5 13 14 26 20 30 17 11 1 25-30 25-20 0-31-6-35-19z"/><path d="m6765 22800c-16-26 12-74 92-162 219-236 256-317 269-573 5-106 3-127-15-179-49-139-131-246-223-289-48-22-60-40-34-50 23-9 57 4 113 40 79 52 139 137 188 266 21 58 25 84 25 180 0 127-20 256-49 322-34 77-106 176-206 285-53 58-103 120-111 138-14 32-37 42-49 22z"/><path d="m4513 22588c-109-183-165-385-166-603-1-120 15-180 71-264 44-66 181-159 258-175 21-5 45-1 70 10l39 17-50 7c-61 9-133 44-204 100-89 71-132 166-133 295 0 72 30 290 47 340 25 71 82 194 120 258 25 41 45 79 45 86 0 6-11 11-24 11-19 0-33-16-73-82z"/><path d="m732 22587c-57-61-72-189-47-411 9-83 18-153 20-156 4-6 11-72 41-365 9-90 17-304 21-535 5-365 4-391-16-490-23-114-84-255-124-287-33-26-56-63-50-79 8-22 37-17 63 11 13 14 27 25 32 25 21 0 47-96 62-225 12-101 16-232 16-489 0-457-18-711-66-941-22-106-37-368-23-418 17-63 62-158 93-194 28-33 81-57 116-51 18 2 13 9-29 40-41 31-58 54-92 124l-42 86 6 157c4 97 15 209 31 296 71 397 88 1061 37 1455-10 78-42 174-66 199-11 11-8 23 20 75 38 69 68 179 86 311 27 208-19 1090-71 1351-5 27-12 128-16 224-6 173-6 176 18 220 23 42 28 45 66 44 23 0 47-8 57-17 20-21 29-21 45-2 9 11 7 19-14 40-22 21-34 25-89 25-53 0-67-4-85-23z"/><path d="m3790 22583c-32-11-90-56-90-70 0-26 30-25 68 1 63 43 125 30 151-33 17-40-9-94-61-128-29-20-38-32-38-54 0-34 23-49 75-49 20 0 56-5 80-11 49-12 99-5 92 14-3 12-71 31-151 43l-39 5 35 29c66 54 83 121 49 188-28 56-110 87-171 65z"/><path d="m14476 22534c-3-9 4-25 19-40 27-27 45-31 45-9 0 21 13 19 44-10 58-54 17-134-99-190-58-29-104-31-145-10-22 11-30 23-30 43-1 71-42 68-80-7-32-62-43-71-90-71-59 0-80 26-88 106-7 65-8 69-32 69-20 0-26-6-28-30-2-16 2-54 9-83 18-77 59-107 147-107 59 0 66 2 92 32l29 32 43-24c54-31 106-32 179-2 111 46 169 111 169 188 0 51-16 79-64 108-41 25-111 29-120 5z"/><path d="m8434 22505c-24-24-25-30-20-98 3-40 8-111 12-159 4-60 1-124-12-210-25-175-25-183 6-183 22 0 26 5 32 50 7 41 25 188 27 217 1 4 47 9 103 10 89 3 103 5 106 21 3 15-7 17-96 17h-100l-6 63c-18 187-19 239-5 248 23 14 86 10 171-12 88-22 143-22 143 0 0 21-165 60-258 60-70 1-80-1-103-24z"/><path d="m10544 22465c-15-22-14-28 5-83 25-71 29-172 6-172-8 0-15-9-15-20 0-12 7-20 16-20 17 0 17-33-2-185-5-40-3-54 10-64 27-22 43 3 50 77 4 37 9 90 12 119l6 52 106 3c87 2 107 6 107 18s-20 16-107 18l-108 3v42c0 37-8 78-36 175-6 22-6 22 125 22 82 0 138-4 150-12 19-12 51-5 51 11 0 5-7 17-16 25-13 13-44 16-179 16-164 0-165 0-181-25z"/><path d="m20167 22413c-16-8-30-20-31-26-2-7-12-41-22-77-48-176-71-235-93-238-13-2-21-11-21-24 0-20 4-20 143-14 159 6 266 17 285 29 32 21 6 68-82 146-27 24-86 134-86 161 0 24-29 60-48 59-9-1-30-8-45-16zm141-241c74-63 76-66 56-73-19-8-245-31-250-26-5 4 36 140 62 210l26 68 39-78c22-43 52-88 67-101z"/><path d="m4719 22329c-48-52-73-104-65-135 5-20 12-24 46-24 33 0 40 3 40 20 0 11-7 20-15 20-21 0-19 17 5 51 21 28 21 28 41 8 18-18 31-20 95-17 41 2 74-1 74-5 0-5-8-21-19-35-30-44-78-154-84-194-9-62 8-71 126-66 94 4 101 5 124 32 13 16 22 30 19 33-2 3-32-3-66-11-34-9-82-16-106-16-39 0-44 3-44 23 0 24 48 127 99 212 17 28 30 58 31 68 0 17-6 18-57 13-134-15-148-13-151 14-9 61-41 65-93 9z"/><path d="m6357 22343c-3-4-8-26-12-48-8-51-55-185-65-185-22 0-96 69-132 125-43 64-61 80-79 69-17-10-9-33 35-101 32-50 59-78 100-103 30-19 55-40 56-46 0-6-21-58-46-115s-48-110-51-116c-3-7 3-16 12-19 27-11 52 24 99 136 29 71 48 104 57 101 45-12 150-13 164-1 24 20 9 28-64 36-98 9-99 10-68 88 33 81 41 178 15 184-9 2-18-1-21-5z"/><path d="m1318 22279c-13-17-33-35-45-40-15-6-23-17-23-33 0-22-21-75-76-193-13-28-21-59-18-67 7-17 39-22 48-7 10 16 68 23 241 30 150 5 170 8 173 23 2 11-35 56-107 125-89 88-111 116-121 151-13 52-39 56-72 11zm141-181 86-88h-137c-75 0-144-3-153-6-16-6-16-5-1 24 9 17 16 38 16 45 0 8 16 47 37 86 35 70 36 71 51 49 8-13 53-62 101-110z"/><path d="m3514 22284c-22-32-5-56 26-36 25 15 63 15 78 0 18-18 14-69-7-103-53-82-85-99-156-86-58 11-77 26-69 57 13 50-48 76-66 29-5-14-7-39-3-55 7-37-22-74-80-100-78-36-111-1-123 131-7 74-23 100-49 79-18-15-19-57-4-114 34-132 43-144 108-153 54-7 122 19 167 64 33 33 36 34 70 23 51-17 148-8 181 16 15 11 42 42 60 68 27 40 33 57 33 100-1 75-33 106-109 106-32 0-44-5-57-26z"/><path d="m5582 22278c-7-7-12-40-12-80v-68h-85c-78 0-85-2-85-20s7-20 86-20h86l-7-94c-7-96-1-116 27-93 17 14 38 101 38 157 0 39 0 39 48 45 52 7 74 16 80 33 2 8-16 12-62 12h-66v58c0 51-11 82-30 82-3 0-11-5-18-12z"/><path d="m13508 22014 5-266-184 5c-214 5-259 15-259 55 2 67 81 151 143 152 24 0 28 4 25 23-7 47-91 24-164-45-36-34-69-125-60-164 12-48 89-64 311-64h188l-7-272c-4-150-11-309-16-353s-9-156-10-250c0-93-5-246-10-340-11-185-35-1809-35-2392 0-276 3-365 13-375 40-40 42 4 61 1872 10 893 21 1321 45 1665 9 121 16 271 16 333v112h113c285 0 499 91 522 222 6 32 4 38-20 54-35 23-96 35-220 43-76 5-93 8-72 15 17 5 27 15 27 27 0 28-42 24-135-14-98-40-105-44-105-64 0-17 28-42 48-43 7 0 30-11 52-25s49-25 61-25c32 0 19 31-25 60l-39 25 104 3c138 4 261-19 267-51 6-28-44-84-96-108-110-49-254-79-384-79h-98l-1 133c0 72-5 168-10 212s-12 104-16 133c-4 41-9 52-23 52-17 0-18-16-12-266z"/><path d="m20645 22259c-11-6-32-25-47-42-25-28-28-29-28-10 0 30-26 49-45 33-11-9-15-34-15-100 0-48-5-111-10-140-13-66-6-92 23-88 17 2 24 14 33 58 36 162 70 227 128 250l26 10v-94c0-52 3-101 6-110 12-32 40-15 79 51 42 71 104 143 123 143 9 0 12-36 12-119 0-133 4-151 31-151s32 35 27 168c-5 104-8 118-28 134-12 10-30 18-40 18-26 0-81-41-116-87l-31-41-6 54c-3 29-8 58-12 64-8 13-84 12-110-1z"/><path d="m1856 22200c-22-16-45-38-52-48-12-15-13-15-14 9 0 15-7 32-15 39-21 18-45-4-45-41 0-31-46-178-61-193-17-18-10-56 9-56 21 0 43 22 60 62 6 16 47 69 89 120l78 92 3-36c2-19-6-61-17-92-22-62-19-86 9-86 11 0 27 19 43 53 31 63 72 104 115 116 32 10 32 10 32-34 0-25-6-64-14-87-33-106-38-126-35-143 5-24 32-40 53-32 13 5 15 11 7 26-7 12-7 29-1 47 54 166 59 199 40 248-8 22-16 26-53 26-23 0-59-8-79-19l-37-18-8 36c-12 50-53 55-107 11z"/><path d="m6660 22211c-24-19-24-20-6-40 11-12 24-21 31-21 16 0 39 45 32 64-8 21-26 20-57-3z"/><path d="m7520 22210c0-19 7-20 220-20s220 1 220 20-7 20-220 20-220-1-220-20z"/><path d="m21180 22155c-19-23-8-50 20-50 16 0 26 6 28 18 4 18-14 47-28 47-4 0-13-7-20-15z"/><path d="m10160 22148c-50-9-169-12-230-6-35 4-40-29-5-42 62-23 290-4 312 26 27 37 19 39-77 22z"/><path d="m19740 22113c-17-21-44-67-61-103-16-36-38-81-49-101-10-20-35-92-56-160-34-114-37-137-42-281l-4-157-247-6c-640-14-1608-17-1720-5l-113 13 38 18c22 10 47 18 57 19 10 0 17 8 17 20 0 43-125 15-174-39-11-12-27-21-37-21s-20-4-23-9c-9-13 11-61 26-65 57-15 103-33 165-64 59-29 75-34 95-25 22 10 21 12-36 47-32 21-79 45-104 54-62 21-35 28 47 12 50-9 251-11 851-6 432 3 869 9 972 12 214 6 192 17 201-101 9-114 81-295 118-295 18 0 22 32 7 59-30 50-70 196-75 272l-6 77 139 6c77 3 189 11 250 16 60 6 205 10 320 10 134 0 214 4 221 11 5 5 38 9 73 7 85-4 94-19 52-86-30-49-30-51-11-57 26-8 50 12 79 69 35 66 25 85-70 134-90 47-120 52-120 23 0-11 6-23 12-28 28-16-67-26-322-34-146-4-317-10-380-13-63-4-144-8-178-9l-64-3 5 160c4 147 7 170 37 266 18 58 40 121 50 140s35 70 56 113c20 43 48 87 62 97 15 12 22 26 18 35-10 26-43 16-76-22z"/><path d="m2814 22106c-8-34 4-66 26-66 20 0 50 25 50 41 0 48-65 69-76 25z"/><path d="m8952 22098c-25-25-6-68 30-68 18 0 38 35 38 66 0 17-51 19-68 2z"/><path d="m2272 22078c-7-7-12-17-12-24 0-16 44-44 70-44 23 0 41 31 22 38-7 2-12 12-12 23 0 14-7 19-28 19-15 0-33-5-40-12z"/><path d="m10977 22015c-3-7 2-24 12-36 24-30 51-19 51 21 0 26-3 30-29 30-16 0-31-6-34-15z"/><path d="m6622 21998c-15-15-16-161-2-189 24-44 160-9 160 42 0 25-27 24-60-1-44-34-50-27-50 58 0 70-9 102-30 102-3 0-11-5-18-12z"/><path d="m7500 21993c0-20 8-21 118-27 64-3 164-8 222-11 63-4 111-2 120 4 37 25-35 38-277 47-180 7-183 7-183-13z"/><path d="m21167 21954c-23-47-40-170-27-193 16-31 59-36 86-10 13 12 24 31 24 41 0 17-2 18-30 3l-30-16v46c0 24 9 68 20 96 10 29 17 56 14 61-12 20-41 6-57-28z"/><path d="m9311 21933c-6-21-11-43-11-50 0-8-23-13-67-15-53-2-68-6-68-18 0-10 12-16 40-18 79-5 85-8 85-53 0-50 15-79 40-79 17 0 20 7 20 54v55l48 3c34 2 47 7 47 18 0 10-13 16-40 18-52 4-58 11-47 58 11 48 6 64-18 64-13 0-22-11-29-37z"/><path d="m18475 21948c-2-13-6-72-8-133-3-100-22-217-61-370-24-92 3-100 75-21 47 51 174 144 185 134 2-3-1-29-7-58-15-69-3-97 47-106 72-13 255 11 292 39 6 5 12 18 12 29 0 15-4 18-17 13-42-18-209-44-245-39-33 6-38 10-38 34 0 15 5 40 10 57 7 20 8 38 1 56-16 42-64 37-142-15-35-23-75-51-88-62-23-21-23-21-18-1 3 11 13 54 21 95 9 41 20 91 26 110 11 38 14 218 4 244-9 24-43 20-49-6z"/><path d="m9683 21903c-21-26-67-78-102-115-41-44-61-72-58-83 10-24 28-18 75 28l44 42-7-76c-9-93-2-119 30-119 22 0 23 3 27 98 3 79 9 109 32 162 15 36 29 74 29 85 3 37-30 27-70-22z"/><path d="m2293 21918c-16-21-32-70-39-120-8-62 10-114 46-133 35-18 91-20 108-3 23 23 13 35-28 35-22 0-46 6-55 13-20 16-20 106 0 153 8 20 15 43 15 52 0 18-34 20-47 3z"/><path d="m8944 21903c-17-26-27-63-41-145-8-53 8-68 72-68 46 0 57 4 74 26 22 27 28 64 12 64-5 0-23-11-39-25-17-14-40-25-52-25-19 0-21 4-16 28 4 15 11 44 15 65 5 21 14 44 20 50s11 21 11 34c0 33-33 30-56-4z"/><path d="m10993 21858c-46-65-74-167-53-193 31-37 143 7 156 61 10 38 0 39-50 5-24-17-47-31-50-31-14 0-4 44 20 91 14 28 23 57 20 65-7 17-31 18-43 2z"/><path d="m15211 21799c-52-21-100-69-106-107-3-20-10-53-15-72s-19-71-30-115c-12-44-35-123-52-176-32-96-32-133-1-127 15 3 63 120 82 201 6 27 10 29 56 31 76 2 175 53 244 125 64 66 85 122 71 184-14 63-21 67-129 66-53 0-107-5-120-10zm197-53c2-10 1-38-3-62-10-71-119-170-216-195-71-19-79-12-64 53 7 29 20 73 28 97 9 24 13 49 11 56-7 17 51 57 95 66 20 4 61 6 91 6 45-2 55-5 58-21z"/><path d="m6123 21458c-6-7-13-71-16-143-4-77-14-161-25-205-30-117-35-175-17-190 13-11 25-2 78 54 34 36 68 66 76 66 14 0 13-17-5-121-10-60 9-70 130-67 82 2 101 6 101 18s-18 16-89 18l-88 3 6 39c3 22 9 58 12 79 14 92-62 111-145 37l-24-21 8 30c54 221 60 415 14 415-4 0-11-6-16-12z"/><path d="m4481 21436c-8-9-11-83-9-247l3-234h24c19 0 27 7 33 32 5 18 27 52 50 75l42 43 6-48c3-27 13-53 21-58 7-5 68-8 134-7 99 3 120 6 120 18s-20 16-107 18l-108 3v34c0 18-4 45-10 59-13 35-58 35-108 1l-37-25-3 162c-2 150-9 188-32 188-4 0-13-6-19-14z"/><path d="m3411 21416c-30-36-41-186-41-581 0-242-4-404-11-428-17-62-6-77 54-77 85 0 227 56 227 90 0 16-22 12-120-20-50-16-96-30-102-30s-7 12-3 33c5 17 11 232 15 477s10 459 15 477c7 31 9 32 69 35 46 2 61 7 61 18 0 22-147 27-164 6z"/><path d="m15425 21366c-82-40-121-83-129-144-10-77 2-92 72-92s134 36 182 101c78 108-2 195-125 135zm103-51c6-49-98-145-156-145-23 0-24 3-19 41 3 23 16 52 29 66 53 58 140 80 146 38z"/><path d="m6665 21320c-14-23 11-30 113-30 59 0 112-4 119-8 8-5 13-78 17-242 5-225 19-524 32-677l6-73h-76c-65 0-83-4-117-26-39-24-40-27-25-42 15-16 19-15 59 6 33 17 58 22 118 22 96 0 103 7 95 92-14 163-28 447-34 686-9 325 5 302-178 302-71 0-125-4-129-10z"/><path d="m21177 21158c-2-7 0-22 6-32 19-38-2-214-34-278-5-10-9-27-9-38 0-12-9-38-19-58-39-76-45-95-46-145 0-49 2-52 25-52s25 4 28 45c3 46 9 67 43 132 10 20 19 44 19 52 0 21 10 25 102 41 53 10 84 11 86 5 6-17 47-11 70 10 32 31 18 50-37 50-25 0-62-4-81-9s-54-11-78-14c-38-5-43-3-37 11 23 57 36 135 33 190l-4 63 155-3c86-2 164-7 173-12 26-12 37 23 13 40-26 19-401 20-408 2z"/><path d="m2849 21021c-24-15-56-41-71-57-32-35-78-117-78-138 0-9-6-16-14-16-23 0-31-22-13-35 11-8 17-26 17-49 0-28 7-45 29-67 28-27 34-29 109-29 96 0 142 14 142 42 0 18-4 19-32 13-42-10-148-11-170-2-13 4-18 18-18 47v40h90c86 0 145 14 134 31-3 5-54 9-115 9-60 0-109 2-109 5s11 27 24 53c26 52 61 87 119 121 36 22 39 22 71 7 74-35 101-6 34 37-41 26-97 22-149-12z"/><path d="m1544 21015c-9-22 51-98 118-151 68-54 69-40-8-200-55-115-62-138-43-150s39 19 120 189l32 68 46-45c26-26 54-46 64-46 32 0 17 34-40 92l-58 58 23 65c24 70 27 100 12 110-18 11-37-14-56-74l-19-59-40 29c-22 16-58 52-80 79-40 51-61 61-71 35z"/><path d="m5303 20999c-15-15-5-39 17-39s32 24 17 39c-6 6-14 11-17 11s-11-5-17-11z"/><path d="m4050 20938c-25-5-72-15-105-22-40-8-60-17-60-27 0-18 72-18 175 0 118 21 135 26 135 42 0 18-79 22-145 7z"/><path d="m4735 20909c-142-20-250-46-250-60 0-21 54-23 148-5 45 8 118 20 162 27 84 12 115 23 115 39 0 12-89 11-175-1z"/><path d="m18972 20758c-6-24-13-52-14-63-3-20-14-20-428-27-234-4-510-9-615-13-104-3-311-7-460-8-232-2-270-4-270-17 0-11 15-16 63-18 45-2 62-7 62-17 0-8-5-17-11-21-7-4-8-20-4-43 4-20 9-78 12-128l4-93-173 1-173 1 47 21c30 14 48 28 48 40 0 27-52 21-120-13-33-16-65-30-72-30s-28-14-46-31c-26-25-30-33-22-50 6-10 17-19 26-19 23 0 138-55 153-73 19-23 51-22 51 2 0 25-48 65-105 86-25 10-45 21-45 25 0 13 34 22 38 11 2-7 70-11 198-11h194v-209c0-167 3-211 14-220 10-9 101-10 343-6 180 3 549 7 819 10l491 6-1-125c-1-88 3-129 12-137 27-28 37 7 36 136l-1 124 491 5c270 3 550 10 621 16 72 6 221 13 333 16l203 5-7-25c-8-32 3-33 81-9 42 13 55 22 55 36 0 17-5 19-35 14l-35-6v115 114h210 210l-16-24c-17-27-16-67 2-73 10-3 63 60 103 122 13 20 13 26-2 48-9 13-28 28-44 32-15 3-43 18-61 31-42 33-105 31-110-3-3-17 5-26 34-38 20-8 45-15 55-15 12 0 19-7 19-20 0-19-7-20-199-20h-200l-3 218c-3 183-1 219 12 229 9 8 49 12 103 13 80 0 87 2 87 20 0 19-7 20-104 20-59 0-108-4-111-10s-15-1-28 11c-21 20-30 20-322 15-165-3-361-8-436-11l-136-6-6 30c-6 29-9 31-55 31-26 0-54-6-61-12-10-11-16-8-32 12-19 24-20 25-34 6-8-11-15-30-15-43v-23h-291-291l7 65c7 61 6 65-13 65-15 0-22-10-30-42zm758-78c0-5-7-10-16-10-8 0-12 5-9 10 3 6 10 10 16 10 5 0 9-4 9-10zm925-60c12-23 15-70 15-240v-210h-440-440v230 230l143 1c78 1 156 5 172 9 17 4 144 8 282 9l252 1zm-1699-27c13-54 40-56 49-4l7 41h289 289v-149-149l-247-5c-137-4-263-9-280-13l-33-6v65c0 78-6 97-30 97s-30-19-30-96v-64h-86c-59 0-83-3-78-11 4-8-22-9-92-5-55 3-379 9-721 12l-623 6v51c0 29-4 78-10 111-7 42-6 69 3 97l12 39 345 1c190 1 370 4 400 9 30 4 229 8 441 9l385 1zm774 8c0-19-6-32-17-35-10-4-28-21-40-38l-23-33v68 67h40c38 0 40-2 40-29zm-39-266-40-100-1 79c0 79 15 126 60 180 14 17 15 16 18-20 2-27-10-70-37-139zm6-173c-19-31-37-64-40-72s-6 4-6 26c-1 25 4 44 12 47 7 2 24 36 37 73l25 69 3-43c3-34-4-54-31-100zm-107-62c0-162-2-190-15-190-8 0-15-4-15-10s-97-10-272-10h-271l7 187c3 103 8 188 9 189 6 7 280 21 415 23l142 1zm-844 157 221-2 7-95c3-52 6-134 6-182v-87l-512-6c-282-3-645-7-805-10l-293-6v201 202l578-7c317-4 677-7 798-8zm1924-226v-100l-217-5c-120-3-279-10-353-16s-179-13-234-16c-93-5-98-4-90 13 5 10 10 64 12 121l3 102h440 439zm-950-101c-7-13-21-20-40-20-30 0-30 0-30 60 0 48 3 60 16 60 8 0 25 21 37 48l22 47 3-87c2-50-2-97-8-108z"/><path d="m2056 20763c-7-18 17-43 41-43 20 0 27 28 13 45-17 20-46 19-54-2z"/><path d="m5316 20754c-3-9-6-36-6-62 0-85-40-222-82-282-38-55-37-67 5-56 42 10 82 84 110 203 36 151 35 213-3 213-10 0-21-7-24-16z"/><path d="m6105 20743c-11-2-30-6-42-9-15-3-23-12-23-26 0-19 4-20 47-14 25 3 112 9 192 12 142 6 205 16 216 35 6 9-348 11-390 2z"/><path d="m21285 20679c-15-23 16-30 136-27 102 3 124 6 124 18s-22 15-127 18c-85 2-129-1-133-9z"/><path d="m22050 20672c0-17 8-21 53-25 28-3 72-10 97-15 48-11 64-5 55 20-7 17-45 27-142 35-58 4-63 3-63-15z"/><path d="m4582 20660c-40-9-46-15-38-35 5-13 16-15 64-9 63 7 102-5 102-31s-37-76-76-103c-51-35-74-63-71-87 2-18 11-20 94-23 76-2 100 1 149 20 32 13 59 29 62 36 5 17-56 15-108-3-23-8-63-15-89-14h-46l30 22c45 33 80 72 98 108 40 84-51 147-171 119z"/><path d="m15697 20660c-44-8-63-23-52-40 5-8 20-10 49-5 22 5 100 11 171 14 106 5 130 9 130 21s-22 15-130 16c-71 1-147-1-168-6z"/><path d="m16873 20663c-65-14 14-39 98-31 51 5 68 13 55 25-8 9-122 13-153 6z"/><path d="m21630 20650c-13-24 6-60 32-60 19 0 34 40 24 65-8 22-43 19-56-5z"/><path d="m21845 20660c-14-23 13-31 96-28 67 2 84 6 84 18s-18 16-87 18c-56 2-89-1-93-8z"/><path d="m2055 20628c-20-30-32-77-40-166-6-62-4-76 10-93 31-34 105-21 105 19 0 10-9 13-30 10-30-5-30-5-30 57 0 34 7 85 16 114 22 75 4 108-31 59z"/><path d="m16245 20639c-15-24 16-30 146-27 111 3 134 6 134 18s-23 15-137 18c-92 2-139-1-143-9z"/><path d="m14525 20620c-15-24 12-30 128-30 123 0 167 10 137 30-20 13-257 13-265 0z"/><path d="m15085 20619c-15-24 16-30 146-27 111 3 134 6 134 18s-23 15-137 18c-92 2-139-1-143-9z"/><path d="m22244 20596c-3-8 1-28 10-43s25-50 36-76c22-53 43-58 48-13 8 70-74 185-94 132z"/><path d="m6206 20541c-13-20 5-31 49-31 62 0 95-15 95-42-1-37-25-60-118-113-85-49-109-78-80-96 50-32 388 30 388 71 0 6-6 10-12 10-15 0-161-25-237-39-30-6-56-9-58-7s25 20 61 40c77 43 110 84 108 134-2 57-29 76-116 80-47 3-76 0-80-7z"/><path d="m15736 20534c-3-9-6-33-6-55 0-23-14-68-35-113-19-41-35-80-35-86 0-5-4-10-10-10-5 0-10-8-10-17 0-10-12-49-26-88-14-38-28-81-31-95s-12-35-20-47c-22-33-13-68 16-68 21 0 27 12 67 129 23 71 47 133 53 139 5 5 45 8 88 6 59-3 84-9 97-21 21-22 30-22 50-3 38 38-18 65-135 65-51 0-79 4-79 11 0 6 16 44 35 85 19 40 35 85 35 99v25h160c133 0 160-2 160-14 0-8 11-28 24-43 23-26 26-27 41-12 13 13 14 21 6 35-5 11-12 31-16 47l-5 27h-165c-98 0-166 4-170 10-10 17-82 12-89-6z"/><path d="m21597 20478c-2-7-10-45-17-85-11-59-11-75 0-88 18-21 66-19 90 5 25 25 25 42 0 65-16 14-19 15-15 4 3-9-2-22-11-30-15-12-16-11-11 21 3 19 9 47 12 63 11 40-33 82-48 45z"/><path d="m22306 20381c-3-4-3-32 1-61 7-61 43-113 64-93 10 10 10 21 1 51-7 22-12 49-12 60 0 33-40 66-54 43z"/><path d="m16200 20235c-17-21-8-50 18-53 16-3 25 4 32 23 6 15 8 31 4 36-8 14-40 11-54-6z"/><path d="m22304 20137c-11-29 0-102 16-102 19 0 22 106 3 112-7 3-16-2-19-10z"/><path d="m16104 20023c-56-86-78-141-67-169 12-31 105-32 111-1 3 13-3 17-27 17-45 0-40 22 24 120 56 86 63 112 33 118-11 2-34-25-74-85z"/><path d="m16624 20063c-20-27-53-62-72-79-53-48-21-76 39-33 35 25 36 18 13-70-17-69-12-101 16-101 19 0 23 9 34 75 9 58 37 180 46 202 5 13 7 30 4 38-11 28-42 15-80-32z"/><path d="m16346 20044c-3-9-6-26-6-39 0-45-10-55-56-55-41 0-44-2-44-26s2-25 46-18c42 6 46 5 41-12-14-50-17-93-7-99 17-10 50 25 50 52 0 45 17 63 60 63 33 0 40 3 40 20s-7 20-41 20h-42l7 55c6 53 5 55-18 55-13 0-27-7-30-16z"/><path d="m21677 20024c-4-4-7-31-7-60 0-52 0-53-32-56-26-2-34-8-36-26-3-21 0-23 34-20l38 3 9-55c5-30 6-120 4-200-5-120-13-181-50-360-25-118-58-251-75-295-66-175-144-323-206-388-36-38-24-51 25-27 50 26 85 75 153 214 78 161 109 257 155 481 58 286 63 342 51 530-6 88-11 183-13 210-2 42-5 50-22 53-12 2-24 0-28-4z"/><path d="m22216 19968c-8-13-18-35-21-50-6-24-4-28 13-28 27 0 44 23 45 61 2 39-17 48-37 17z"/><path d="m3970 19946c-48-33-93-118-84-159 13-64 48-108 139-177 146-111 152-125 68-162-102-46-249-38-236 13 6 23-28 27-47 4-20-24-7-49 40-73 39-20 56-23 125-19 57 3 96 11 135 29 71 32 90 52 90 92 0 37-38 77-158 169-67 51-102 97-102 136 0 34 37 95 70 115 32 18 80 13 80-9 0-26-30-82-51-97-26-17-18-38 15-38 28 0 49 22 70 74 35 84 10 126-74 126-31 0-56-7-80-24z"/><path d="m1602 19898c-28-14-36-45-27-100 20-112 8-280-31-440-8-31-11-63-8-72 8-21 42-20 47 2 14 50 27 115 37 182 7 41 14 81 16 88 2 9 34 12 114 12 101 0 111 2 108 18-3 15-17 17-105 20l-101 3-6 72c-3 40-9 94-12 121-5 35-3 51 7 57 24 15 85 10 134-11 59-25 85-26 85-1 0 45-191 81-258 49z"/><path d="m16825 19900c-4-6-3-15 1-20 13-11 87-21 174-23 61-2 75 1 75 13 0 11-17 17-65 23-147 18-178 19-185 7z"/><path d="m20940 19890c-14-26 4-35 51-22 46 11 44 36-3 40-29 2-39-1-48-18z"/><path d="m21162 19898c-28-28-14-38 46-32 61 7 78 16 68 33-10 15-99 14-114-1z"/><path d="m21382 19898c-29-29-14-38 51-32 65 7 84 15 73 33-10 15-109 14-124-1z"/><path d="m14385 19879c-16-24 18-29 181-27 142 3 169 5 169 18s-27 15-172 18c-118 2-174-1-178-9z"/><path d="m21805 19880c-12-20 11-31 56-28 31 2 44 7 44 18 0 19-89 27-100 10z"/><path d="m22075 19880c-4-7-3-16 3-22 14-14 57-6 57 12s-50 26-60 10z"/><path d="m14982 19853c3-16 19-18 143-21 77-1 151 0 165 3 24 6 24 7 6 21-15 11-56 14-169 14-136 0-148-1-145-17z"/><path d="m15632 19860c-43-10-60-26-45-41 8-8 25-8 63 0 28 6 88 11 133 11 87 0 125 12 97 30-18 11-200 12-248 0z"/><path d="m3355 19752c-98-41-144-107-132-186 3-17-2-51-10-76-23-67-73-272-73-298 0-21 24-41 36-29 3 3 23 72 44 153 21 82 42 160 48 174 9 25 9 25 16 2 17-53 185-10 262 67 63 63 79 145 36 194-21 24-169 23-227-1zm193-67c2-32-3-47-28-77-56-68-162-111-214-87-21 10-25 17-19 33 4 12 8 39 8 61 0 27 6 46 20 58 40 36 111 56 185 54 45-2 45-2 48-42z"/><path d="m19676 19729c-8-40-8-157 0-186 4-13 14-23 24-23 22 0 30 27 30 111 0 92-9 129-30 129-12 0-20-11-24-31z"/><path d="m2540 19730c0-20 4-20 218-18 185 3 217 5 217 18s-32 15-217 18c-214 2-218 2-218-18z"/><path d="m2583 19558c-34-7-43-14-43-30 0-19 4-20 53-14 28 3 99 9 157 12 104 7 140 15 140 34 0 13-250 11-307-2z"/><path d="m14736 19538c-2-7-13-40-24-73s-23-72-26-86c-6-27-6-26-66 33-33 32-60 63-60 68 0 15-38 12-43-2-7-21 12-50 80-116l65-64-15-41c-28-75-50-166-44-182 9-21 47-20 47 2 0 29 52 183 62 183 5 0 29-12 53-26 29-17 52-23 65-19 31 10 20 26-44 64-57 34-57 34-50 75 3 23 15 63 26 90 22 58 21 99-5 104-9 2-19-2-21-10z"/><path d="m18987 19504c-4-4-7-43-7-86 0-74-1-79-25-90-14-6-28-22-31-35l-6-23-1817 1c-999 0-1809 3-1801 6s52 31 98 61c131 89 101 130-40 53-109-59-203-187-184-248 3-10 29-31 58-47 29-17 76-51 104-78 56-53 74-59 74-25 0 28-77 104-137 137-46 26-57 58-29 89 13 15 187 16 1838 13l1824-2 13-35c6-19 23-43 35-53 22-16 24-28 31-148 6-113 5-132-9-143-13-11-16-39-16-170 0-154 9-203 30-171 5 8 10 67 10 130 0 193 21 493 36 511 8 8 19 30 25 47l11 32h303 304l3-27c4-36 32-37 36-2l3 26 282 8c334 10 612 10 870 0 182-7 187-7 187 12s-11 20-167 29c-196 10-659 10-955-1l-208-7v74c0 51-5 80-15 94-15 19-15 19-30 0-10-14-15-43-15-93v-73h-295c-200 0-295 3-295 11 0 5-13 22-30 37-27 25-29 33-32 106s-13 98-31 80z"/><path d="m3478 19400c-26-16-55-41-64-55-18-28-13-55 11-55 13 0 15-7 10-33-9-46 13-67 70-67 39 0 47 4 76 41 34 43 51 110 38 147-8 21-57 52-81 52-7 0-34-14-60-30zm76-26c26-10 20-70-11-110-16-18-34-34-40-34-18 0-16 35 2 50 8 7 15 19 15 27 0 22-29 27-50 8-12-10-20-13-20-7 0 7 19 25 42 42 46 34 41 32 62 24z"/><path d="m2012 19363c-58-63-87-119-71-139 17-21 27-17 49 19 24 38 26 25 5-33-8-24-18-73-21-109-7-72 5-97 43-89 15 3 17 12 14 61-3 59 22 173 59 266 34 85-9 98-78 24z"/><path d="m18747 19140c-14-16-33-47-43-68-11-22-27-43-38-48-19-9-59-114-71-185-6-32-3-39 25-63 52-43 97-37 164 25 68 62 91 110 100 212 6 64 4 82-10 106-33 56-90 66-127 21zm71-32c20-20 15-139-8-191-42-94-150-152-158-85-3 21 0 26 11 22 14-5 33 36 67 141 14 45 58 125 69 125 4 0 12-5 19-12z"/><path d="m19662 19018c-13-13-16-114-6-167 4-20 12-31 24-31 21 0 30 37 30 124 0 55-11 86-30 86-3 0-11-5-18-12z"/><path d="m4144 18792c-69-46-88-65-107-112-43-105-25-160 77-236 39-29 76-60 83-70 17-23 17-125 0-148-16-21-74-35-149-36-65 0-88 7-88 26 0 9-11 14-30 14-25 0-30-4-30-25 0-40 43-55 162-55 121 0 163 15 191 70 14 27 17 48 13 94-8 76-20 94-110 161-41 30-76 64-80 77-19 73 11 140 86 192 50 34 58 36 77 24 21-13 24-18 35-70 5-21 12-28 31-28 34 0 39 16 20 65-19 50-66 95-99 95-13 0-49-17-82-38z"/><path d="m19639 18667c-14-32 1-112 21-112 21 0 38 99 20 120-17 21-29 19-41-8z"/><path d="m1627 18607c-57-26-66-50-38-101 25-43 29-159 8-191-7-11-14-33-15-49s-11-59-21-95c-32-106-35-135-17-150 22-18 46 2 46 38 0 14 13 68 28 120l28 95 49 13c28 8 79 17 115 21 51 6 65 11 68 25 3 17-3 18-80 14-45-2-94-8-108-11-25-7-25-7-25 71-1 54-6 88-18 110l-17 32 39 21c54 27 77 25 157-10 37-17 74-28 81-26 28 11 10 33-52 64-80 39-154 42-228 9z"/><path d="m3604 18551c-60-28-112-77-139-136-29-60-31-90-9-103 17-9 20 2-76-312-49-161-53-185-34-201 23-19 34-1 59 93 12 46 42 146 65 224l43 141 72-5c85-5 138 14 203 73 59 53 86 113 77 173-4 26-12 53-17 60-17 20-194 16-244-7zm206-67c0-85-75-166-170-184-29-6-54-10-56-10s-1 7 2 15c5 11-3 17-25 21-33 7-36 15-22 60 5 16 12 41 15 55 7 30 68 75 112 82 16 2 55 5 87 6l57 1z"/><path d="m2745 18379c-16-25 18-29 201-27 160 3 189 5 189 18s-29 15-192 18c-132 2-194-1-198-9z"/><path d="m19636 18374c-22-56 9-254 40-254 8 0 14 6 15 13 2 53-3 231-8 243-7 19-39 18-47-2z"/><path d="m21350 18291c-68-19-149-67-175-104-17-24-20-57-6-57 5 0-5-23-24-50-58-86-147-276-143-307 6-50 32-39 57 24 52 128 132 268 187 324 40 40 54 61 52 79-3 25-5 24 87 50 17 5 60 12 98 16 66 7 67 6 67-17 0-28-27-75-78-138-61-75-197-118-222-71-15 28-50 26-50-2 1-69 83-87 192-43 75 31 91 43 146 115 67 90 82 146 49 188-14 18-159 14-237-7z"/><path d="m18956 18254c-3-9-6-47-6-85 0-46-4-69-12-69-34 0-148 25-184 40-28 13-46 29-58 54-20 43-52 49-62 12-7-30 9-61 42-82 14-10 32-30 40-46l15-30-113 5c-62 3-167 11-233 18-149 17-542 16-725-1-87-8-455-15-1030-20-506-5-941-13-1000-19-120-13-859-33-1215-34-316 0-785 14-785 24s55 49 83 58c107 35 167 91 97 91-65 0-260-122-273-169-6-23 14-42 61-61 18-7 50-29 70-49s48-44 62-53c31-22 80-24 80-3 0 8-4 15-9 15s-39 27-76 61l-68 61 209-7c471-16 1644 1 1824 26 44 6 447 14 980 19 606 5 950 12 1040 21 170 16 490 16 640-1 63-6 184-14 269-17 164-4 177-1 166 43-4 20-2 20 50 13 77-10 83-18 33-43-93-47-148-107-148-162 0-40 35-30 60 17 11 23 31 50 43 60 22 18 118 69 130 69 4 0 7-17 7-37 0-21 5-45 10-53 9-13 11-13 20 0 5 8 10 31 10 50s7 48 15 63c10 21 12 34 5 47-6 10-10 50-10 89 0 82-6 101-30 101-10 0-21-7-24-16z"/><path d="m2925 18200c-16-4-74-8-128-9-88-1-98-3-95-18 3-16 17-18 103-21 132-3 290 17 290 38 0 12-15 15-70 17-38 0-83-2-100-7z"/><path d="m2255 18061c-42-38-99-102-128-142l-52-74-3 69c-2 38 1 81 7 96 11 32-5 73-31 78-22 4-51-30-148-169-112-161-131-194-124-213 11-29 39-16 67 32 24 42 156 235 170 248 3 3 3-32 0-78-6-92 5-118 50-118 31 1 56 24 119 110 64 86 153 175 186 185 13 4 22 14 22 26 0 14-7 19-30 19s-47-16-105-69z"/><path d="m19204 18034c-17-8-48-31-69-50-24-22-47-34-66-34-26 0-28-3-27-33 1-19-2-39-6-45-10-17 23-42 57-42 23 0 42-11 73-41 51-50 80-49 63 1-14 39-67 80-105 81-21 1-24 3-9 6 11 3 24 11 28 19 6 11 47 14 202 14 106 0 201-3 209-6 13-5 9-14-24-50-74-80-35-100 45-23 23 21 44 39 47 39 4 0 9-13 13-29 8-38 33-48 44-18 5 12 10 63 12 112 3 75 1 90-11 90-8 0-22-14-30-32-15-30-16-31-42-17-16 8-28 19-28 24 0 20-41 50-69 50-47 0-49-29-5-67l37-33h-169c-160 1-167 2-139 17 44 23 65 44 65 65 0 23-51 24-96 2z"/><path d="m15759 17827c-41-27-71-87-67-131 2-26 7-31 28-31s25 5 28 30c6 72 21 92 80 110 21 6 22 4 22-48 0-76 29-107 99-107h50l-56-92c-66-108-83-147-83-187 0-34 13-41 82-41 80 0 224 51 234 82 9 28-3 34-39 19-74-30-197-63-211-58-15 6-15 10-1 43 22 53 102 182 141 228 19 22 34 48 34 58 0 24-25 34-53 20-98-48-132-37-140 43-3 31-11 63-18 71-18 22-91 18-130-9z"/><path d="m19462 17577c-7-7-17-38-23-68-18-85-22-88-57-37-37 54-71 78-112 78-44 0-41-32 4-48 20-8 44-27 55-46 11-18 29-40 40-50 19-17 19-18-2-54-12-20-41-64-64-97-24-32-43-67-43-76 0-21 27-32 40-16 25 31 78 105 95 134l19 32 43-39c45-43 70-50 80-24 4 10-6 27-29 47-50 45-59 66-43 97 19 36 40 143 32 163s-21 22-35 4z"/><path d="m8260 17434c0-9 26-52 59-97 113-158 130-204 178-476 26-150 27-171 27-516 1-351 0-362-22-435-69-220-169-362-337-480l-50-35 32-3c44-4 87 20 167 97 163 157 258 372 272 615 9 169-12 618-36 766-43 260-78 352-197 508-53 69-93 94-93 56z"/><path d="m10241 17326c-72-69-135-126-141-126s-10 27-10 66c0 78-11 104-47 104-33 0-85-56-125-134-26-52-28-60-15-74 20-19 33-10 61 46 13 26 33 58 45 72l20 25 1-55c0-72 19-100 66-100 32 0 49 12 157 119 67 65 136 125 152 132 40 19 39 43-2 47-29 3-45-9-162-122z"/><path d="m19780 17433c0-11 5-24 12-31s20-12 31-12c14 0 18 6 15 28-2 21-9 28-30 30-22 3-28-1-28-15z"/><path d="m11354 17288c-76-102-113-203-181-483-44-184-69-568-43-665 46-173 112-280 173-280 38 0 34 15-16 63-45 44-83 132-108 248-27 127 12 493 81 754 48 181 79 256 139 335 43 57 48 82 19 88-11 2-33-18-64-60z"/><path d="m19783 17288c-34-37-60-99-67-160-6-49-5-59 13-77 29-29 67-26 96 5 14 15 25 30 25 35 0 4 3 14 6 23 10 25-19 19-46-9-32-34-40-32-40 14 0 42 31 121 55 141 8 7 15 21 15 31 0 26-32 24-57-3z"/><path d="m14164 17236c-3-9 32-58 89-125 77-90 106-135 156-235 66-134 85-205 95-351 18-259-121-565-316-695-43-28-78-54-78-57 0-17 96 8 140 37 85 55 223 256 263 385 107 340 26 678-230 961-83 92-108 109-119 80z"/><path d="m1284 17108c-25-23-85-94-132-157-85-113-85-113-99-86-8 14-17 68-20 118-7 106-14 127-48 127-31 0-61-40-120-162-48-100-53-130-23-136 13-2 30 24 70 108l53 112 6-43c20-140 42-193 81-197 35-4 62 15 101 71 93 131 175 225 200 229 16 2 22 10 22 28 0 42-37 38-91-12z"/><path d="m1846 16946c-47-94-88-231-101-336-3-30-17-120-31-200-32-192-52-621-35-759 23-189 137-391 221-391 46 0 43 15-8 55-56 42-66 58-119 180l-38 90v310c0 300 1 317 33 520 46 294 68 384 124 504 26 57 48 107 48 112s-11 9-24 9c-20 0-31-15-70-94z"/><path d="m10120 16959c-36-5-100-14-142-20-61-9-92-8-143 2-74 14-85 9-85-43 0-39 23-58 124-107 49-23 107-54 129-69 23-15 81-47 129-71 48-25 100-58 115-74l28-29-24-19c-13-11-35-22-50-26-71-16-223-90-288-140-107-81-198-181-211-233-8-31-8-49 0-63 10-18 18-19 112-14 55 4 117 11 136 16 48 13 235 18 288 7 42-9 44-8 40 15-2 15-12 26-28 30-53 15-234 9-357-12-84-14-128-18-135-11-20 20 26 85 123 171 101 89 126 105 264 160 152 61 170 73 173 115 3 32-2 42-33 71-21 18-83 57-139 85-55 29-108 58-116 65s-59 34-112 60c-54 26-100 50-103 54-2 5 55 11 128 14 73 4 157 11 187 17 30 5 97 11 147 13 98 3 109 7 100 32-5 12-24 15-99 14-51-1-122-5-158-10z"/><path d="m13682 16778c-12-16-19-62-32-199-5-58-16-124-24-145-26-69-47-167-37-177 15-15 51 3 58 30 3 15 12 38 19 52 8 14 14 34 14 44 0 23 3 23 142 37 116 12 163 28 143 49-10 10-163 0-232-15-33-6-33-6-33 32 0 22 7 61 15 88s15 78 15 113v63h165c158 0 165 1 165 20s-7 20-184 20c-135 0-186-3-194-12z"/><path d="m11790 16760c-8-5-27-10-41-10-35 0-90-24-112-48-11-12-20-42-23-78-2-33-11-88-18-124-14-65-29-142-40-211-8-44 15-72 38-48 15 15 46 115 46 147 0 23 52 36 220 56 73 8 95 15 95 26 0 22-129 25-216 5-95-21-101-21-93 13 3 15 21 60 40 100 20 40 33 80 30 90-5 16 7 21 90 37 90 18 97 18 106 2 21-39 60-7 38 32-9 18-20 21-78 21-37 0-74-5-82-10z"/><path d="m7345 16740c-12-20 7-30 54-30 68 0 96-24 87-73-5-29-18-45-64-80-35-26-57-51-57-62 0-19 8-20 145-20 122 0 145 2 145 15 0 12-19 16-104 18l-104 3 40 33c68 59 78 151 19 187-34 21-150 27-161 9z"/><path d="m3763 16698c-13-6-23-20-23-30 0-18 5-19 55-13 49 7 60 5 95-19 22-14 40-34 40-44 0-19-33-54-88-92-35-23-55-60-46-84 19-49 244-86 270-44 10 16-16 28-66 28-55 1-143 23-147 37-2 6 12 20 31 32s50 39 69 60c32 36 35 42 27 76-10 45-12 46-74 79-51 27-105 32-143 14z"/><path d="m723 16650c-3-11-13-20-23-20-20 0-34-26-23-43 38-67 179-156 358-227 87-34 205-89 205-96s-73-35-127-50c-142-37-262-98-407-206-62-46-79-72-64-100 7-16 23-18 111-17 56 0 143 5 192 9 386 35 432 35 528-2 20-8 31-7 42 2 23 19 2 37-63 56-45 13-85 15-226 10-94-3-211-10-261-15-49-6-130-13-180-16l-90-6 40 35c83 74 228 152 355 192 47 15 112 37 145 50 53 20 60 26 63 53 3 26-2 33-43 56-25 15-103 51-173 80-175 72-274 125-322 175-42 44-52 67-22 55 95-41 127-42 430-20 264 20 307 26 307 45s-74 19-325 0c-210-15-322-14-368 6-45 19-53 18-59-6z"/><path d="m5510 16488c-17-57-37-119-45-138s-21-59-30-87c-13-41-21-53-37-53-13 0-18-6-16-17 5-27 68-28 195-4 59 12 132 21 161 21 63 0 82 23 41 49-57 35-125 120-147 183-12 35-22 73-22 86 0 37-18 62-45 62-22 0-27-9-55-102zm149-191 41-44-70-7c-39-4-84-12-101-18-16-6-33-8-36-4-3 3 9 43 27 88 18 46 37 94 42 107 9 24 10 23 33-27 13-28 42-71 64-95z"/><path d="m8856 16575c-14-36 11-45 128-45 61 0 143 5 183 10 56 7 81 6 112-5 35-12 41-12 52 2 11 13 10 18-6 29-29 21-80 27-163 19-100-10-240-10-273-1-20 6-28 4-33-9z"/><path d="m7164 16555c-11-28 4-48 32-41 20 5 32 0 60-28 40-40 45-83 14-133-31-51-60-65-111-54-56 13-69 31-58 79 11 49 3 72-26 72-31 0-38-13-46-82-5-42-14-67-35-92-35-42-59-45-78-8-18 35-38 135-38 185 1 36-1 38-26 35-27-3-27-4-24-68 7-141 55-230 125-230 29 0 41 8 74 46 39 47 39 47 71 30 44-23 127-21 168 5 74 46 100 154 53 223-41 61-141 99-155 61z"/><path d="m7749 16547c-9-19-5-41 20-110 17-48 38-98 47-112 16-25 16-27-12-56-16-17-45-40-64-51-39-23-60-46-60-64s28-25 42-11c7 7 29 22 48 34s48 35 64 52c28 29 30 29 58 15 38-20 143-16 143 6 0 10-17 17-55 23-70 10-78 18-50 57 12 17 36 58 52 91 17 33 37 63 44 66 19 7 18 32-1 39-26 11-60-22-93-89-35-71-57-96-72-81s-50 124-50 155c0 15-3 34-6 43-9 24-43 19-55-7z"/><path d="m4246 16516c-35-33-38-39-31-73 9-50 12-53 41-53 24 0 25 2 18 45-5 38-4 45 10 45 9 0 16-4 16-10 0-16 43-50 72-58l27-7-30-48c-69-112-90-225-48-263 17-16 40-20 125-22 101-4 104-3 131 24 33 33 19 42-38 24-36-12-158-8-181 6-13 8-9 61 9 106 27 70 105 198 119 198 8 0 14 10 14 21 0 20-3 21-63 15-70-8-77-4-94 49-14 44-49 44-97 1z"/><path d="m3628 16504c-5-4-8-16-8-26 0-17 10-22 37-19 7 1 27-8 44-21 29-22 31-26 27-80-3-44-10-64-29-84-59-65-196-96-233-55-16 17-17 26-7 72 8 38 8 55 0 65-29 35-57 7-66-67-5-42-13-60-36-81-16-16-33-28-38-28s-9 54-9 119c0 132-4 151-30 151s-30-19-30-151c0-114 1-121 25-144 13-14 31-25 40-25 21 0 68 25 84 44 11 13 17 12 52-6 82-43 227 0 302 89 21 25 39 135 27 167-17 47-128 105-152 80z"/><path d="m5996 16494c-3-9-6-40-6-70s-9-82-21-116c-23-69-22-96 4-112 28-17 57 24 57 80 0 59 53 164 82 164 20 0 21-4 15-85-6-78-5-85 12-85 10 0 31 17 46 38 42 56 118 132 132 132 16 0 17-97 2-205-12-90-6-117 24-113 20 3 23 12 31 83 14 134 13 250-4 270-24 29-86 14-134-34l-41-41-10 43c-10 40-12 42-52 45-23 2-51-1-61-7-14-7-21-5-30 10-15 23-38 25-46 3z"/><path d="m13233 16473c-185-3-193-4-193-23s7-20 193-20c193 1 227 6 227 39 0 6-8 10-17 9-10-2-105-4-210-5z"/><path d="m14107 16454c-18-18-6-43 24-49 38-9 59 7 43 33-11 18-55 28-67 16z"/><path d="m5063 16438c-6-7-19-39-29-70l-17-57-76-3c-60-2-76-6-76-18s17-16 78-18l77-3-7-42c-11-67-9-81 10-85 20-4 47 50 47 97 0 29 0 29 86 41 70 10 84 15 82 29-3 12-15 16-58 16-30 0-67-3-82-8-26-7-26-7-16 25 23 69 10 132-19 96z"/><path d="m2014 16383c-4-16-10-32-14-38-21-26-90-220-90-250s26-53 42-37c8 8 59 12 151 12 140 0 177 8 177 37 0 9-40 58-89 108-71 74-91 101-97 131-8 49-20 64-50 64-18 0-25-7-30-27zm182-265c-6-4-57-8-114-8-117 0-112-6-72 86 10 23 21 56 25 73l6 30 84-87c53-56 79-90 71-94z"/><path d="m2495 16366c-37-22-42-23-57-9-28 26-48 1-48-61 0-28-10-78-22-111-25-72-20-118 13-113 22 3 40 45 53 119 11 64 82 149 125 149 16 0 13-30-9-78-10-23-17-49-14-57 10-24 42-17 58 13 25 47 123 122 162 122 23 0 19-137-6-200s-25-80-1-80c25 0 35 14 61 88 19 52 22 75 17 133-10 115-45 134-149 79-55-29-58-29-58-11 0 45-65 53-125 17z"/><path d="m8281 16376c-19-23-2-46 35-46 26 0 34 4 34 18 0 11-11 24-25 30-32 15-30 15-44-2z"/><path d="m8857 16356c-3-8 1-22 9-31 18-18 87-19 284-2 108 10 135 15 135 27 0 13-20 15-120 14-66-1-147-2-180-4-33-1-74 1-91 5-24 5-33 3-37-9z"/><path d="m12027 16353c-18-17-5-41 24-47 37-7 49-1 49 24s-54 42-73 23z"/><path d="m6520 16330c0-19 5-21 53-18 38 2 52 7 52 18s-14 16-52 18c-48 3-53 1-53-18z"/><path d="m2960 16292c0-27 49-48 67-29 12 12 12 16-2 31-23 23-65 21-65-2z"/><path d="m12912 16298c-6-6-12-17-12-24 0-22-92-96-156-125-35-16-64-34-64-39 0-22 34-22 84-1 28 12 57 25 64 28 9 4 10-1 4-18-5-13-12-56-16-95-6-57-4-73 8-84 31-25 46-5 46 62 0 73 23 153 63 221 16 26 27 55 25 65-4 21-29 27-46 10z"/><path d="m14081 16243c-12-38-26-82-32-99-17-55-14-105 7-121 30-22 84-12 107 18 27 37 19 53-17 34-63-33-68-19-31 100 31 99 32 135 6 135-15 0-24-15-40-67z"/><path d="m12482 16278c-7-7-12-33-12-59v-46l-81-5c-56-3-85-10-97-21-28-29-3-40 64-28 32 6 69 11 82 11 24 0 25-1 18-64-7-69 5-116 28-116 17 0 25 34 29 120l2 55 50 3c79 5 87 42 9 42h-44v48c0 43-12 72-30 72-3 0-11-5-18-12z"/><path d="m6534 16213c-24-53-44-134-44-174 0-32 28-49 84-49 54 0 84 19 99 63 8 22 5 21-43-3-22-11-48-20-60-20-17 0-20 6-20 40 0 22 12 69 26 105 27 67 26 95-1 95-10 0-26-22-41-57z"/><path d="m8241 16236c-15-18-42-104-61-191-12-59 1-75 59-75 30 0 53 5 61 15 19 23 2 38-37 30-35-6-35-6-30 22 15 72 25 111 41 147 12 29 13 42 5 52-14 18-24 18-38 0z"/><path d="m11983 16135c-19-42-38-95-40-120-5-41-3-45 28-64 60-37 129-17 129 36 0 25-1 25-25 9-30-20-59-20-75-1-14 17-8 38 38 131 26 53 25 84-3 84-10 0-29-28-52-75z"/><path d="m2970 16125c-37-81-38-124-7-153 28-26 45-27 75-6 33 23 28 42-10 40-43-1-46 18-13 90 28 62 29 87 2 92-13 3-25-13-47-63z"/><path d="m9763 15818c-16-19 2-58 27-58s37 26 23 49c-13 21-37 25-50 9z"/><path d="m10659 15717c-15-18-57-54-95-79-106-72-128-93-121-111 10-27 28-21 100 34 38 28 71 48 74 45 4-3 1-23-5-43-17-59-25-113-26-178-1-58 0-60 24-60 23 0 25 4 26 50 2 74 19 152 53 251 17 49 31 96 31 106 0 29-33 21-61-15z"/><path d="m560 15675c-18-21-5-45 25-45 14 0 28 7 31 15 7 17-12 45-31 45-7 0-18-7-25-15z"/><path d="m9788 15568c-16-32-29-79-33-120-7-64-6-67 19-83 40-27 142-17 167 16 10 13 19 32 19 41 0 16-6 15-48-9-35-19-55-24-75-19-25 6-27 10-27 55 0 32 8 64 25 95 31 59 32 76 2 76-18 0-29-12-49-52z"/><path d="m9980 15571c0-18 10-20 138-23 75-2 141 0 146 4 5 3 6 14 3 22-5 14-29 16-147 16-131 0-140-1-140-19z"/><path d="m622 15538c-7-7-12-19-12-27 0-9-13-43-29-77-36-76-57-151-66-230-5-50-4-64 10-77 27-28 63-21 85 16 33 53 19 78-22 40-17-15-18-14-18 23 0 45 27 134 65 216 36 78 27 156-13 116z"/><path d="m10040 15510c0-19 7-20 110-20 92 0 115 3 142 20l33 20h-142c-136 0-143-1-143-20z"/><path d="m1465 15473c-87-47-185-140-185-177 0-31 32-31 54 0 24 35 87 94 98 94 5 0 4-9-2-20-21-40-48-147-55-216-6-59-4-74 10-88 31-30 85-1 85 45 0 31-9 36-28 17-9-9-12-3-12 28 0 58 34 166 75 240 50 88 35 117-40 77z"/><path d="m720 15351c0-18 11-19 138-24 75-3 148-7 162-9 17-2 25 2 25 12 0 30-47 40-187 40-129 0-138-1-138-19z"/><path d="m885 15250c-119-10-145-17-145-42 0-19 5-20 48-15 26 4 79 9 117 12 87 7 191 35 173 47-15 9-62 8-193-2z"/><path d="m12055 14523c-70-37-166-117-171-142-3-14-12-46-20-70-16-50-19-117-5-125 4-3 11-23 15-43 9-57 53-103 103-110 22-3 57 0 77 7 54 17 137 104 174 180 27 55 32 78 34 145 2 103-4 120-56 150-50 29-106 32-151 8zm133-55c18-18 22-32 22-88 0-79-12-118-54-181-70-106-163-149-207-96-15 18-18 39-19 120 0 56 5 108 12 120 25 49 76 101 123 128 56 33 85 32 123-3z"/><path d="m7929 14117c-9-7-23-25-32-42-21-40-166-215-178-215-15 0-29 47-30 103-2 79-10 101-42 105-19 2-29-2-34-15-7-20-77-104-136-164-41-43-41-59 1-59 23 0 39 14 87 78l60 77 3-35c9-115 79-172 144-117 32 27 157 183 171 215 6 12 16 21 23 18 21-8 37 20 24 43-12 23-37 27-61 8z"/><path d="m11260 14070c0-18 7-20 73-20 39-1 82-6 95-14 22-12 20-14-55-48-43-20-109-50-148-66-197-86-255-113-480-226-149-75-260-125-286-129-28-4-51-15-68-32-14-15-181-109-371-209-313-166-347-182-362-168-14 12-20 12-33 2-8-7-15-21-15-31 0-23 6-20-305-185-507-270-1202-620-1211-611-10 10 47 175 86 250 45 84 49 107 21 107-21 0-71-53-71-75 0-16-124-145-139-145-6 0-11-9-11-20 0-23 28-27 62-9 19 10 20 9 14-17-4-16-9-51-13-77l-6-48-88-44c-79-40-265-145-394-222-142-86-203-121-262-155-79-46-153-104-153-123 0-29 31-23 76 16 25 22 69 51 97 66 29 14 65 34 80 45 27 19 117 72 367 217 63 37 351 185 640 329s604 304 700 355c197 105 491 260 502 265 5 2 8-26 8-61 0-36 3-72 6-81 9-24 71-21 84 4 13 24 5 41-15 33-12-4-15 8-15 69v75l104 56c57 31 106 57 109 57 2 0 7-19 9-43 11-97 58-147 137-147 35 0 44 5 82 50 34 40 45 48 60 40 27-15 136-12 168 4 37 20 51 39 61 83 22 94-38 176-128 177-41 1-47-2-47-19 0-15 8-21 34-23 54-5 79-28 86-77 9-56 2-77-35-99-23-13-41-16-73-11-57 10-67 20-67 69 0 50-11 69-36 64-16-3-20-15-24-68s-11-72-35-102c-21-26-38-38-56-38-43 0-63 33-67 108l-4 67 164 87c89 47 218 113 284 147 121 60 121 60 155 43 28-14 35-24 37-52 3-33-1-39-52-75-105-77-85-98 104-111 125-8 139 27 16 40-112 13-112 13-62 52 49 38 60 59 50 101-12 57-16 63-41 76-25 14-24 15 68 64 117 62 472 233 484 233 8 0 82 33 264 117 57 26 75 40 84 63 12 30 27 40 27 18 0-7-11-40-25-73-26-62-33-129-15-140 16-10 40 14 40 39 0 11 14 55 31 97 22 53 30 85 25 103l-6 26h-160c-153 0-160-1-160-20z"/><path d="m1560 14055c-14-7-76-68-139-134-63-67-118-121-123-121-11 0-35 60-43 111-15 99-30 103-101 26-143-156-187-216-172-234 22-26 29-20 143 120l70 86 17-57c21-71 49-102 89-102 29 0 32 2 273 253 14 15 20 16 26 7 14-23 42-3 38 27-4 33-38 41-78 18z"/><path d="m7735 13680c-27-5-138-9-245-9l-196-1-32-29c-35-33-38-40-19-63 13-17 188-112 227-123 14-4 65-27 114-51s95-44 102-44c16 0 160-46 176-57 7-3-26-19-73-33-165-53-541-257-547-297-3-21 0-22 250-27 139-4 335-9 436-12 134-4 187-2 198 7 34 28 14 34-113 35-71 0-249 4-398 10l-269 9 84 49c135 79 317 165 390 185 37 10 81 26 98 35 72 37 54 56-101 106-73 23-168 59-212 80-44 22-91 42-105 46-52 14-209 105-204 118 4 10 70 15 292 20 327 7 397 14 397 36 0 12-18 15-100 16-55 1-122-2-150-6z"/><path d="m14035 13660c-11-5-63-9-116-9-110-1-109 0-109-88 0-30-13-122-30-205-41-205-40-295 5-286 20 4 36 51 54 153 7 39 15 77 17 86 4 13 25 17 107 22 56 3 119 11 140 17 33 10 36 14 26 26s-26 14-68 10c-31-3-87-9-125-12l-69-6 8 33c8 41 8 97 0 162l-7 47h80c43 0 103 5 132 10 45 8 56 8 71-6 36-32 67 7 33 40-17 18-113 21-149 6z"/><path d="m15615 13598c-81-15-128-28-165-46-29-14-36-24-42-57-3-22-23-120-43-218-38-183-39-227-6-227 20 0 31 19 31 54 0 12 6 46 14 76 7 30 16 67 20 81 5 24 11 27 73 32 233 20 223 19 223 39 0 19-6 20-97 15-54-3-115-9-135-12-21-4-38-5-38-3s7 29 16 58c9 30 14 69 11 87-5 28-2 35 16 42 50 19 197 43 274 45 89 2 103 7 83 31-14 17-149 19-235 3z"/><path d="m1220 13559c-41-5-112-14-156-19-58-7-104-7-158 1-42 6-79 10-81 7-2-2-7-22-11-44-6-39-4-43 43-90 44-43 61-53 154-82 57-18 142-42 189-53 88-21 150-46 150-59 0-4-12-10-28-13-15-3-54-21-87-41-33-19-79-44-102-54-75-36-167-104-255-191-96-94-119-131-97-157 12-14 29-16 129-10 63 4 133 11 155 17 22 5 167 12 323 16 265 6 282 7 282 25 0 17-14 18-272 18-149 0-299-4-332-9-181-27-227-33-233-28-3 4 34 45 82 92 88 87 166 145 253 188 26 13 76 40 112 60s77 37 92 37c34 0 61 35 48 60-17 32-93 67-200 94-188 47-280 80-317 115-18 17-33 36-33 41 0 6 34 10 78 11 42 0 127 5 187 10 61 5 193 15 295 22 152 10 185 15 185 27 0 13-25 15-160 16-88 1-194-3-235-7z"/><path d="m4243 13538c-13-6-23-20-23-31 0-20 7-20 91-1 27 6 59-16 59-40 0-12-26-49-80-116-39-49 4-80 109-80 64 0 96 14 71 30-8 5-26 10-40 10s-42 3-63 7l-38 6 29 31c59 63 74 104 56 151-15 39-118 59-171 33z"/><path d="m11322 13438c-7-7-12-23-12-37 0-28-87-211-100-211-12 0-133 128-148 156-14 26-49 32-58 9-8-20 27-68 107-146l67-67-26-33c-54-68-73-100-70-117 7-35 35-23 72 30 68 100 60 95 107 62 49-34 141-42 147-13 2 12-8 18-39 23-34 5-68 22-108 53-2 1 19 49 47 105 57 116 70 162 52 183-15 18-22 19-38 3z"/><path d="m8586 13408c-9-12-16-27-16-33s-18-65-40-133c-42-129-48-164-27-179 18-14 73-15 131-4 28 6 92 18 141 27 106 19 145 37 145 65 0 26-52 73-110 101-79 38-146 97-159 139-14 45-41 52-65 17zm98-137c28-21 67-46 86-54s49-27 65-40l30-25-25-5c-14-3-54-11-90-17-76-13-158-30-182-36-15-4-15-1 2 34 11 22 26 71 35 111 9 39 19 71 22 71 4 0 29-18 57-39z"/><path d="m4778 13322c-58-62-69-83-62-121 7-36 28-56 49-47 12 4 14 15 9 44-6 37-3 43 41 88 47 49 47 49 57 24 12-33 25-40 77-40h44l-6-45c-4-25-13-55-21-68-27-41-68-155-64-179 3-23 4-23 157-26 148-2 181 3 181 29 0 5-65 9-144 9h-145l28 68c15 37 33 76 38 87 16 30 33 89 33 112 0 45-10 53-66 53-48 0-54 3-66 28-11 22-21 28-54 30-37 3-44-1-86-46z"/><path d="m6055 13349c-4-12-1-48 5-81 16-76 14-78-107-78-86 0-93-1-93-20s7-20 109-20h110l6-47c10-76 14-91 31-108 29-28 36-4 26 81-5 44-8 80-7 82 2 2 37 6 79 9 63 5 76 9 74 22-3 13-19 17-85 19l-81 3-7 67c-4 37-8 73-10 80-7 20-43 14-50-9z"/><path d="m9165 13361c-12-5-27-16-34-24-10-13-17-14-31-5-32 20-47 3-54-64-7-61-26-131-46-168-13-24-2-50 20-50 18 0 50 39 50 62 0 22 58 136 87 173 52 65 70 30 34-62-35-90 5-100 82-19 29 29 72 64 96 76l44 22-6-51c-3-28-16-79-28-115-23-68-21-96 8-96 14 0 25 21 48 93 44 137 37 217-19 217-11 0-49-15-83-34l-62-33-13 41c-11 35-17 41-43 43-16 1-39-2-50-6z"/><path d="m2201 13281c-26-37-46-131-46-222 0-64-1-67-28-77-33-13-34-48-2-46 48 4 328 83 335 94 13 22 0 41-80 120-41 41-85 93-96 115-26 51-54 57-83 16zm122-147c43-42 77-78 75-79-6-5-113-33-150-39l-38-7v43c0 30 28 156 35 158 0 0 36-34 78-76z"/><path d="m4044 13295c-8-19 3-35 25-35 28 0 61-42 61-78 0-40-39-120-62-128-10-3-38-2-63 2-50 7-79 37-96 99-7 24-16 35-28 35-21 0-31-19-31-60 0-16-10-41-23-56-22-25-25-26-52-13-39 19-65 73-65 135 0 59-19 86-45 64-40-33-4-174 57-225 43-37 114-35 145 3 21 25 24 26 36 10 20-26 62-38 128-38 77 0 93 9 124 70s35 135 10 174c-31 47-109 74-121 41z"/><path d="m9640 13294c0-21 40-53 68-54 27 0 28 19 2 48-24 26-70 30-70 6z"/><path d="m11738 13278c-15-12-22-35-19-65 2-17 79-27 96-13 21 17 19 46-5 70-23 23-49 26-72 8z"/><path d="m2702 13238c-5-7-15-42-21-78-5-36-17-96-26-135-19-90-19-95 6-95 15 0 26 14 45 58 27 59 109 177 132 186 16 7 15-38-3-89-35-97 1-103 76-12 28 34 67 70 85 80l34 17v-32c0-18-5-60-11-93-31-169-30-188 5-183 17 2 22 12 27 53 4 28 13 77 20 110 25 118 9 205-40 205-9 0-38-16-66-34-56-39-47-42-76 32-15 38-48 27-108-35-30-32-51-50-47-40 16 46 17 68 6 82-15 18-24 19-38 3z"/><path d="m12755 13236c-31-8-50-17-50-27s12-14 50-12c28 1 156 5 285 10 199 7 235 10 235 23s-33 15-235 16c-152 1-253-2-285-10z"/><path d="m14703 13195c-11-30 24-45 100-45 38 0 98-5 133-12 49-9 70-9 89 0 54 25 11 38-160 52-60 5-120 12-132 16-17 4-25 1-30-11z"/><path d="m15765 13089c-64-61-83-99-47-99 10 0 31 13 47 30 16 16 30 28 32 27 2-2-6-29-17-61-26-75-37-200-20-221 16-20 44-19 61 2 11 13 11 17 2 20-27 9-15 116 25 230 21 60 37 114 34 121-9 29-53 10-117-49z"/><path d="m11721 13088c-29-66-35-132-16-152 28-27 65-31 104-10 42 22 50 52 22 78-19 17-19 17-14-3 4-16-1-23-22-31-14-5-31-10-36-10-14 0-11 56 6 97 21 50 19 73-6 73-14 0-25-12-38-42z"/><path d="m3286 13104c-27-27-16-48 32-59 40-8 52 13 28 50-19 29-38 32-60 9z"/><path d="m13190 13099c-25-4-132-8-237-8-186-1-193-2-193-21s7-20 210-20c158 0 219 4 244 14 66 28 52 47-24 35z"/><path d="m3281 12928c-10-24-22-71-25-104-8-74 5-94 63-94 43 0 61 14 61 48 0 24-1 24-25 8-13-9-29-16-35-16-16 0-12 85 6 130 30 75-14 101-45 28z"/><path d="m14275 12931c-37-22-76-67-113-129l-27-47-5 75c-3 41-9 81-13 88-17 25-62 13-104-28-46-46-106-160-97-184 13-35 39-16 72 53 18 37 44 79 57 91l25 23v-85c0-101 5-118 34-118 21 0 53 35 142 158 48 65 82 84 115 63 25-15 79-14 79 2-1 19-68 57-103 57-18 0-46-8-62-19z"/><path d="m7225 12700c-12-19 15-89 36-95 29-9 31-4 23 54-6 45-9 51-30 51-12 0-26-4-29-10z"/><path d="m737 12694c-13-13-7-71 8-84 24-20 47 6 43 49-2 27-8 37-23 39-12 2-24 0-28-4z"/><path d="m1653 12562c-38-37-101-96-141-132-70-61-86-91-52-97 8-2 53 31 99 72s86 73 88 71c3-3-7-45-21-95-26-91-33-165-17-175 19-12 41 7 41 35 0 31 47 197 81 289 33 88 35 100 10 100-13 0-48-27-88-68z"/><path d="m7490 12530c0-18 7-20 83-21 45 0 91-4 102-8 24-10 45-3 45 13 0 23-50 36-140 36-83 0-90-1-90-20z"/><path d="m7217 12513c-3-10-11-62-18-115-14-108-8-128 39-128 54 0 133 94 103 123-10 9-19 4-43-25-16-21-34-38-39-38-13 0-11 51 3 103 14 54 5 97-22 97-10 0-21-8-23-17z"/><path d="m885 12480c-4-7 0-19 9-28 14-14 44-18 181-20 157-3 165-2 165 16s-10 20-147 25c-82 4-160 9-174 13-16 3-30 1-34-6z"/><path d="m733 12458c-14-19-72-197-79-243-8-53 9-69 63-59 45 8 103 65 103 101 0 32-16 29-54-12-34-36-56-45-56-22 0 7 16 60 35 117 19 58 33 110 30 117-6 17-30 17-42 1z"/><path d="m7525 12443c-11-2-30-6-42-9-15-3-23-12-23-26 0-19 4-20 43-14 23 3 83 9 134 12 99 7 129 17 103 34-15 9-174 12-215 3z"/><path d="m967 12338c-39-14-33-44 8-41 17 2 83 3 148 4 64 1 120 5 123 10 2 5-12 15-32 24-42 17-202 20-247 3z"/><path d="m1950 11663c-11-21-15-119-21-403-6-358-17-543-41-675-6-33-13-221-15-419l-5-358 27-84c30-92 25-88 125-99 147-17 1464-26 3605-26 3314 0 4408 12 4830 51 198 19 325 23 325 11 0-14 37-15 45-1 3 6 17 10 31 10 17 0 24 5 24 20s-7 20-26 20c-25 0-26 1-19 48 4 26 11 225 16 442s13 474 19 570c17 275 23 783 10 830-18 66-44 72-290 65-113-3-686-10-1275-15-588-5-1135-14-1215-20-399-29-2098-41-3105-21-319 7-942 16-1385 21-1575 19-1572 19-1593 41-25 27-51 24-67-8zm8840-58c5-14 17-25 26-25 14 0 15-32 10-342-3-189-11-417-16-508-6-91-14-338-19-550s-12-404-16-427l-7-41-121-6c-67-3-178-10-247-16s-208-15-310-21c-674-39-7631-42-8052-3-66 5-68 7-68 33 0 14-9 43-20 64-20 37-21 51-17 410 2 205 9 415 16 467 24 194 32 343 37 653 6 321 8 339 42 305 8-8 15-8 26 1 10 9 96 10 347 6 184-3 696-9 1139-15 443-5 1062-14 1375-20 1074-21 2870-10 3235 21 69 5 614 13 1212 17 597 4 1090 10 1094 15 4 4 79 7 166 7 158 0 158 0 168-25z"/><path d="m9813 11110c-39-23-53-48-53-94 0-80 27-116 247-329 39-38 79-84 89-103 18-34 18-34-3-56-40-40-221-50-313-18-70 25-80 25-80 0 0-39 53-54 199-58 82-3 149 0 172 7 46 14 89 63 89 100s-48 101-139 186c-132 123-180 177-197 221-21 54-13 84 26 107 34 21 102 16 154-10 29-15 29-15 23-99-4-77-3-84 14-84 38 0 56 171 21 203-54 49-189 64-249 27z"/><path d="m4073 11083c-36-18-45-53-15-53 11 0 33 7 50 16 32 15 55 13 100-8 16-8 22-20 22-42 0-26-9-38-61-75-34-25-65-56-71-70-13-35 4-69 39-76 15-3 44-10 64-15 67-18 149-8 149 19 0 5-26 11-57 15-82 10-143 27-143 40 0 6 27 31 61 56 73 53 81 67 73 120-5 30-15 46-37 62-40 29-129 34-174 11z"/><path d="m7522 11076c-35-19-62-67-62-110 0-41 30-90 123-196 52-59 87-118 87-147 0-45-141-85-204-59-36 15-48 36-21 36 29 0 14 19-20 26-46 8-65 0-65-29 0-69 151-111 259-72 75 26 101 51 101 97 0 42-48 135-90 173-40 36-120 152-120 174 0 13 13 35 29 51 24 24 33 28 57 21 23-6 30-14 32-38 4-43 27-62 49-41 22 23 9 82-24 108-30 23-95 27-131 6z"/><path d="m3807 10883c-15-14-5-24 38-43s85-67 85-99c0-30-46-103-74-118-17-9-57-18-91-20-75-6-115 18-115 70 0 18-4 38-9 45-14 23-45 9-51-23-17-78-72-139-124-138-78 2-104 50-93 170 6 64 6 64-20 61-33-4-47-47-41-123 9-101 61-155 152-155 56 0 94 19 131 66l22 27 32-24c28-20 44-24 104-23 96 1 156 27 193 85 55 87 36 182-46 228-37 21-80 27-93 14z"/><path d="m4730 10818c-57-61-70-92-47-115 13-14 19-14 31-3 9 7 16 20 16 29s18 34 40 56c36 35 41 37 57 24 22-19 90-39 129-39 28 0 27-1-32-62-77-80-127-151-122-174 3-18 17-19 182-22 148-2 183 0 202 13 13 9 24 19 24 23s-76 6-170 4c-93-3-170-1-170 3 0 16 64 96 109 138 79 70 88 117 22 117-51 0-138 27-145 45-3 9-19 15-41 15-30 0-43-8-85-52z"/><path d="m8966 10836c-48-34-69-68-118-191-40-102-91-208-135-283-51-86-67-154-38-166 25-9 32-1 40 43 3 22 25 70 48 108 24 37 60 107 81 156l39 87h86c47 0 104 5 126 11 50 14 140 80 166 122 27 45 24 71-12 112l-31 35h-102c-100 0-103-1-150-34zm243-32c12-15 21-31 21-36 0-15-87-94-122-111-18-9-72-19-121-23l-87-7 30 69c51 112 79 131 197 133 55 1 64-2 82-25z"/><path d="m6930 10787c-33-16-52-35-72-72-15-28-25-57-23-66 3-8-17-62-44-120-26-57-59-140-71-184s-27-92-32-107c-12-32-5-58 16-58s34 27 58 123c22 88 111 291 116 266 5-27 49-39 143-39 180 0 242 67 168 186-49 79-73 94-149 94-47 0-77-6-110-23zm173-41c27-25 67-96 67-118 0-26-56-48-141-54-83-6-84-6-111 22l-26 29 28 60c23 47 36 63 62 72 53 19 92 16 121-11z"/><path d="m2496 10754c-3-9-6-50-6-92 0-41-5-90-11-107-16-44-5-87 22-83 20 3 48 60 49 99 0 29 79 118 113 127 18 5 35 7 40 5 4-2 7-42 7-87 0-62 4-87 15-96 19-16 40 0 48 38 15 69 89 137 158 144l34 3 3-69c2-38-1-90-7-115-8-36-7-49 4-60s17-12 28-2c40 32 47 239 11 276-35 35-160 6-226-53-17-14-18-13-18 10 0 35-30 58-74 58-43 0-69-12-110-49l-28-26 6 48c7 47 7 47-22 47-18 0-32-6-36-16z"/><path d="m5882 10713c3-16 22-19 168-24 91-4 183-10 205-13 43-7 77 6 60 23-20 20-119 31-277 31-146 0-159-1-156-17z"/><path d="m8085 10700c-16-27 17-31 203-28 179 3 216 8 198 26-13 13-393 15-401 2z"/><path d="m5920 10612c0-16 10-23 50-31 99-21 342-9 317 15-3 4-61 10-129 15-68 4-149 11-180 15-54 5-58 4-58-14z"/><path d="m9160 10510c-11-11-20-25-20-30 0-18 31-24 52-11 17 11 19 10 14-6-19-66-18-72 12-103 27-27 37-30 89-30 49 0 64 4 92 28 36 30 56 96 38 127-16 30-72 45-167 45-77 0-93-3-110-20zm208-36c32-6 29-48-5-80-23-21-34-24-63-19-19 4-38 9-42 11-13 8-9 45 9 74 17 30 21 30 101 14z"/><path d="m1434 9811c-161-130-177-144-217-179-140-123-395-496-483-706-60-145-106-297-94-316 17-27 33 0 74 122 92 272 329 662 504 829 111 107 310 267 336 271 15 2 21 10 21 28 0 49-36 36-141-49z"/><path d="m1045 8601c-16-5-50-16-75-26-25-9-62-23-83-31-56-21-114-60-134-91-12-18-20-58-25-123-8-97-21-209-33-290-6-36-4-49 9-59 24-20 46 3 46 48 0 34 4 38 53 60 51 24 86 35 159 50 45 10 48 7 48-37 0-55-67-109-222-183-48-22-68-37-68-50 0-26 38-25 92 3 61 31 179 106 206 132 35 31 53 82 46 127-7 44-26 59-76 59-29 0-146-32-202-55-17-7-18-5-12 21 20 83 39 136 53 149 20 21 9 49-17 42-17-4-20 0-20 32 0 60 19 76 160 138 42 19 87 31 185 51 25 5 40 13 40 22 0 17-80 24-130 11z"/><path d="m9455 8445c-98-18-150-37-150-55s35-19 125 0c104 20 164 38 185 54 19 14 16 15-35 15-30-1-86-7-125-14z"/><path d="m4480 8294c-77-52-107-103-78-132 21-21 38-13 45 18 3 17 16 39 29 49 24 19 25 19 53-10 21-21 39-29 65-29 19 0 38 5 41 10 12 19 27 10 21-12-4-13-11-51-16-85-15-99 12-133 106-133 57 0 76 10 143 74l53 51-5-50c-2-27-3-56 0-62 8-22 36-14 70 19 33 32 33 32 48 11 32-45 127-53 240-19 38 12 43 11 54-5 19-31 63-23 122 21 53 39 54 40 62 18 12-34 24-38 130-38 108 0 192 22 234 62 48 45 22 50-69 13-71-29-150-41-203-31-36 7-37 8-31 44 12 72 12 77-11 87-14 6-23 19-23 31 0 29-31 54-66 54-41 0-87-49-118-125-22-55-28-61-72-78-68-26-173-32-198-13-19 15-19 17-1 56 10 22 45 65 77 96 66 63 71 91 15 80-23-4-53-28-109-89l-77-82-1 76c0 55-4 80-15 89-20 16-45-3-45-35 0-27-71-127-123-172-44-39-73-48-110-34-24 9-27 16-27 53 1 50 19 118 45 170 15 31 16 40 5 53-15 19-36 19-47 1-9-15-86-56-105-56-7 0-20 15-28 33-17 37-45 45-80 21zm1030-113c0-21-20-45-52-62-26-14-32-6-18 23 29 55 70 78 70 39zm-90-145c0-3-4-8-10-11-5-3-10-1-10 4 0 6 5 11 10 11 6 0 10-2 10-4z"/><path d="m11052 8280c-33-17-79-49-101-72l-41-40v41c0 116-78 110-208-17l-73-70 3 50c3 52-5 65-31 49-14-9-55-255-46-278 7-19 45-16 51 5 23 75 93 176 162 237 35 30 67 55 73 55 12 0 11-83-2-140-5-24-7-55-4-67 8-32 43-30 55 2 12 31 79 122 111 151 25 22 111 74 122 74 10 0 8-76-3-130-12-60-4-88 31-105 79-42 323 16 356 85 7 13 11 26 9 28-2 1-43-14-92-34-77-32-100-38-169-38l-80-1 2 40c1 22 5 67 8 101 13 110-22 129-133 74z"/><path d="m7025 8262c-5-4-21-29-35-56-28-57-147-186-215-235l-48-34 7 42c5 32 3 43-9 47-23 9-42-12-48-53-8-46 13-83 46-83 31 0 132 73 195 140l51 55 1-38c0-21 5-47 10-58 24-44 146-7 198 60l27 36 6-60c9-83 31-100 118-91 35 4 78 13 96 20 29 12 33 12 43-5 28-44 142-9 182 57 19 30 24 34 32 20 29-52 150-90 208-66 27 11 33 10 51-5 40-37 266-29 310 11 15 14 17 12 23-11 11-42 73-65 181-65 107 0 160 13 198 48l27 26v-42c0-33 5-45 25-58 36-23 127-15 158 14 13 12 48 29 78 38 70 21 147 60 180 91l26 24 6-43c13-97 119-106 226-19l44 36-6-44c-13-97 45-136 133-91 42 21 60 46 60 79 0 27-12 27-36 0-26-29-73-52-91-45-12 5-14 16-10 54 11 82 23 136 36 160 7 13 10 30 7 38-10 27-36 14-75-39-77-105-143-157-198-157h-33v64c0 36 5 77 11 92 5 16 7 39 4 52-8 33-46 26-56-11-14-53-144-173-190-177-4 0 0 18 7 40 20 57 21 128 2 147-9 8-36 17-60 20-57 7-100-15-136-67-21-30-32-37-48-33-23 5-33-15-49-96-5-22-10-29-15-21-6 9-21 7-66-11-48-18-77-22-151-21-123 1-133 8-133 79 0 42 6 67 26 100 25 44 26 44 69 38 46-7 65 5 45 30-18 21-96 30-117 14-31-26-73-103-73-133 0-17-4-37-8-43-15-23-162-55-221-48-77 10-81 12-81 54 0 72 51 120 127 121 29 0 64 5 78 12 33 15 29 44-5 41-14-2-54-6-90-9-38-4-76-14-92-26-37-26-68-79-68-117 0-25-6-34-26-41-41-16-90-12-128 11-33 19-36 25-36 64 0 24-4 47-10 50-5 3-10 21-10 39 0 42-16 56-62 56-47 0-95-45-151-141-44-76-73-94-168-105l-62-7 5 117c5 107 4 116-13 116-10 0-26-12-36-27-35-53-152-163-172-163-19 0-21 6-21 53 0 30 9 80 20 112 15 44 17 61 9 72-13 15-20 16-34 5zm595-208c-43-57-70-77-98-72-13 2-8 9 18 25 19 12 41 32 48 43 13 21 12 22-19 15l-31-7 32 48c18 27 42 57 54 66 21 17 21 16 28-23 7-37 4-46-32-95zm1327 34c-8-67-49-128-86-128-34 0-51 17-51 51 0 68 50 129 106 129h37zm-153-156c14-11 26-22 26-25 0-9-45-16-68-10-21 5-23 9-17 42 9 48 17 58 26 34 4-11 19-29 33-41z"/><path d="m1144 8226c-8-35 1-80 30-142 30-65 91-99 162-91 52 5 51 10 28-111-25-132-86-242-134-242-24 0-25 16-5 64 13 31 13 36 1 36-31 0-70-46-70-81 0-58 9-69 54-69 57 0 92 21 129 76 42 64 66 134 80 234 7 47 17 109 22 139 10 62 12 132 3 155-8 21-40 21-48 0-3-9-6-41-6-73 0-52-2-58-28-73-35-21-88-10-119 24-24 26-52 111-50 148 3 37-40 42-49 6z"/><path d="m1611 8224c-28-36-52-113-54-177-2-67 21-101 65-95 28 5 28 5 28-63 0-37-4-70-10-74-5-3-35-43-66-88-67-96-113-197-114-248 0-42 36-102 65-108 53-10 126 76 160 189 9 30 19 104 22 164l6 109 57 76c32 42 68 85 80 96l21 19-7-64c-4-36-13-79-20-96-10-23-10-34-2-42 29-29 53 1 111 145 14 35 36 78 49 95l23 33 5-75c4-65 8-75 25-78 21-3 66 50 117 139 51 87 58 84 58-24 0-94 0-96 31-121 42-36 96-34 177 4 57 27 62 28 62 10 0-10 6-25 14-32 7-8 17-28 20-46 12-50 42-82 81-82 66 0 138 120 149 246 5 63 3 75-16 99-69 89-208 52-241-63-12-42-19-50-73-79-43-24-70-32-99-30l-40 2-5 110c-5 118-10 135-40 135-48 0-90-41-148-145-10-17-11-12-12 31 0 93-56 98-120 11-31-42-35-45-38-25-5 28-20 48-37 48-11 0-65-62-145-168l-35-46-13 94c-13 101-29 133-56 110-10-7-16-29-16-54 0-22-5-48-11-56-21-30-3 104 20 155l23 50 12-33c15-44 42-60 64-38 13 12 14 19 4 28-7 7-12 19-12 28 0 50-85 67-119 24zm1077-100c18-13 22-25 22-72 0-77-12-113-56-174-35-47-38-49-52-32-11 15-13 42-8 127 5 94 3 109-11 114-13 5-11 10 13 30 34 27 61 29 92 7zm-1048-519c-19-96-81-198-109-181-6 4-13 21-16 39-8 40 26 123 88 213l42 62 3-37c2-20-2-63-8-96z"/><path d="m4083 8166c-37-31-49-61-33-81 9-11 7-22-9-49-30-49-100-109-118-102-8 3-19 6-24 6s-9 43-9 96c0 103-9 134-41 134-26 0-75-33-111-74-26-30-27-30-28-8-1 72-65 84-148 28l-51-34-3 47c-3 42-5 46-28 46-24 0-25-3-31-85-4-53-14-102-26-130-29-64-34-83-24-98 20-32 62 7 75 69 7 35 79 123 120 148 57 36 60 32 53-74-5-86-4-95 12-95 18 0 51 29 51 45 0 14 66 108 94 134l26 24v-79c0-61 5-86 20-111 18-30 25-33 65-33 51 0 96 19 118 50 14 20 14 20 31-5 23-36 60-47 124-39 89 11 172 99 172 183 0 25-4 51-8 57-18 27-80 48-157 52-76 4-83 3-112-22zm200-43c37-18 36-58-4-112-34-47-85-74-133-69-30 3-31 5-34 52-2 31 2 54 11 65 23 26 27 50 12 65-13 13-13 15 3 18 31 7 116-4 145-19z"/><path d="m1255 7138c-23-13-33-25-98-122-31-47-56-101-74-160-26-87-28-89-94-142-37-30-71-58-74-64-3-5-10-10-16-10-13 0-12 37 2 45 19 13 30 56 18 72-19 22-51 11-68-24s-45-42-82-23c-31 17-26 75 10 111 44 44 131 40 131-6 0-12 7-29 16-36 14-11 18-10 30 6 20 28 17 53-11 80-21 22-33 25-91 25-74 0-112-17-136-59-21-37-29-87-18-116 12-30 65-65 101-65 22 0 28-6 33-32 6-31 2-37-68-103-97-91-119-137-110-232 8-89 43-167 83-187 68-36 144-8 182 66 27 53 24 112-17 373-6 40-6 40 71 103 42 34 80 62 84 62s11-14 16-32c16-51 55-73 133-74 37-1 87-7 110-13 51-14 136-6 203 19 39 14 49 15 64 3 28-20 164-18 195 4 18 13 25 14 28 4 17-51 129-101 227-101 47 0 61 5 101 36 94 71 140 109 188 153l48 46-5-68c-6-68-6-68 21-65 21 2 32 14 49 48l23 45-6-47c-5-38-2-53 15-76 31-45 68-55 173-50 84 4 94 2 109-16 20-24 119-34 172-17 48 16 166 108 202 158 17 23 33 42 38 42 4 1 7-37 7-83 0-87 11-113 43-100 9 3 27 29 41 58 28 58 101 146 122 146 10 0 14-12 14-39 0-57 8-71 42-71 21 0 43 13 81 49 29 27 75 61 102 75l50 25 5-85c4-60 9-88 20-94 8-5 43-10 76-10 40 0 77-7 105-20 49-22 117-25 169-7 31 11 36 10 57-10 17-18 34-23 71-23 72 0 147 16 203 44l49 25 57-20c78-28 201-31 266-6 26 10 47 22 47 25 0 4-55 7-123 7-75 0-136 5-159 13l-37 13 35 31c40 36 74 96 74 132 0 52-92 76-142 36-34-26-60-94-57-147 3-35-1-46-18-58-31-22-171-55-204-48-28 5-28 6-14 34 8 15 15 35 15 44 0 20-44 20-61-2-52-62-229-71-229-10 0 20 34 74 60 94 23 19 71 15 109-8 36-22 61-19 61 6 0 29-60 55-128 55-60 0-64-2-102-41-22-23-44-58-50-81-11-37-13-39-48-36l-37 3-6 84c-7 85-20 111-56 111-30 0-146-66-183-104l-40-40v33c0 54-15 71-62 71-37 0-47-6-100-59-58-57-58-58-64-32-32 140-47 144-125 30-43-63-142-144-198-162-45-15-111-11-111 7 0 7 21 27 46 46 54 38 104 104 104 136 0 31-26 54-61 54-42 0-113-72-129-130-7-25-14-50-15-56-8-30-156-38-207-12-20 10-26 82-8 93 6 3 10 15 10 25 0 28 47 60 90 60 25 0 45 8 63 24 70 65-45 77-163 17-36-18-72-39-79-47-13-12-17-10-27 16-18 43-41 37-104-25-30-30-55-53-57-52-1 2 2 20 8 41s8 50 4 63c-6 24-9 25-62 21-49-4-61-10-90-41-36-40-44-77-15-77 9 0 29 15 44 34 31 38 68 54 68 28 0-63-63-157-133-201-35-21-60-20-146 7-67 21-88 58-71 121 12 46 5 71-20 71-16 0-28-21-45-75-11-39-55-60-118-58-33 1-62 4-65 8-3 3 2 19 11 34 31 52 16 111-29 111-28 0-44-31-44-85 0-25-6-39-24-50-31-20-148-39-192-30-29 5-33 9-25 24 6 10 13 41 17 70 8 58-11 91-52 91-44 0-73-46-76-119-2-39-6-51-18-51-26 0-57 36-64 76-6 32-4 41 21 68 16 17 59 64 96 103 74 81 101 127 111 190 9 63-33 93-89 61zm16-115c-25-50-114-149-119-134-4 13 54 113 102 176 28 35 31 37 34 18 2-12-6-39-17-60zm3244-280c-8-21-30-51-48-68-31-28-32-29-35-8-2 12 6 43 17 68 17 39 24 45 51 45h30zm-3254-66c-13-13-15 21-3 50 6 15 8 13 10-11 2-16-1-33-7-39zm1612 32c-17-29-73-78-73-64 0 25 61 95 83 95 5 0 0-14-10-31zm-2003-296c5-43 12-102 16-131 12-95-43-172-107-150-62 22-93 193-48 268 12 19 42 54 68 76 55 50 58 47 71-63z"/><path d="m8843 7045c-82-41-181-176-201-272-7-37-10-39-87-65-103-34-117-34-142 0-23 31-100 62-154 62-35 0-79-32-79-57 0-22-63-41-115-34-81 11-118 40-130 101-12 62-16 70-35 70-11 0-26-10-35-22-8-13-45-64-80-115-71-101-78-123-41-123 19 0 34 13 61 53 81 117 85 121 85 100 0-28 70-89 117-103 21-6 65-10 98-8 59 3 60 2 71-27 15-43 82-75 156-75 53 0 59 2 82 33 15 19 26 41 26 49 0 10 25 21 78 36 42 11 85 24 95 27 12 5 17 2 17-10 0-33 52-71 118-85 77-16 273-8 347 14 50 15 50 15 77-15 28-30 30-30 101-25 180 12 242 24 311 55 38 17 70 31 71 31s8-13 15-29c14-36 71-61 135-61 60 0 204 54 261 98 35 26 49 32 52 22 3-8 15-24 28-37 41-41 138-24 121 21-4 11-16 13-42 9-44-7-55 5-55 59 0 87-22 88-100 5-50-54-71-68-140-95-125-49-200-42-215 19-5 21-1 29 20 43 35 23 61 82 44 102-26 32-68 6-104-65-13-25-33-41-89-67-40-18-92-37-115-43-45-10-43-14-25 49 8 30-26 78-64 91-42 14-137 8-177-12-17-8-38-30-47-51-14-29-26-39-65-51-113-36-270-44-244-13 9 10 15 46 12 73-2 21-32 43-57 43-22 0-19 6 36 56 58 54 123 149 135 197 15 59-54 81-132 42zm77-34c0-19-54-103-94-148-44-49-126-103-126-83 0 23 51 108 96 159 52 58 124 100 124 72zm-580-311 35-19-42-1c-51 0-73 8-73 26 0 20 38 17 80-6zm1044-2c7-12 7-26 0-45-9-25-15-28-49-27-22 1-52 6-67 12-26 11-26 11-10 47 16 35 18 36 66 33 33-2 52-9 60-20zm-596 6c27-8 29-39 3-54-11-5-33-10-50-10-24 0-31 4-31 19 0 11 10 27 22 35 25 18 25 18 56 10zm-460-72c34-2 62-8 62-12 0-19-44-44-73-42-57 5-87 22-87 49 0 20 4 24 18 18 9-5 45-10 80-13z"/><path d="m9989 7031c-110-22-149-38-149-62 0-23 16-24 78-5 26 8 79 19 117 25 39 6 93 14 120 18 34 6 50 13 50 23 0 22-109 22-216 1z"/><path d="m10895 6976c-39-17-72-63-87-121-11-41-10-50 7-83 24-43 66-70 126-78 63-9 112 8 208 71l84 55-8-58c-12-101-12-107 11-110 15-2 27 7 41 30 11 18 34 41 52 51l31 18v-29c0-53 29-67 138-67 86 0 98-2 119-22 19-20 32-23 100-23s84 4 131 31c63 35 92 79 92 135 0 58-35 89-100 89-34 0-54-6-70-20-15-13-33-18-59-16-32 2-44-4-75-32-23-22-36-43-36-60 0-21-6-27-32-33-36-8-113-7-140 2-10 3-18 13-18 22 0 25 47 90 70 97 11 4 20 15 20 27 0 18-4 20-35 15-19-3-66-26-104-51l-70-45-3 71c-2 56-7 73-21 82-15 9-22 6-40-17-41-54-76-84-145-126-53-32-78-41-114-41-47 0-88 23-108 60-22 40 39 140 85 140 24 0 25-3 25-59 0-72 6-91 30-91s30 19 30 95c0 57-3 66-26 84-30 24-66 26-109 7zm985-171c19-23 4-78-28-102-61-45-91-55-148-47-30 3-54 9-54 13 0 3 21 18 46 34 28 16 50 39 57 57 6 17 17 30 23 30s17 7 24 15c16 19 64 19 80 0zm-180-35c0-5-5-10-11-10-5 0-7 5-4 10 3 6 8 10 11 10 2 0 4-4 4-10zm-20-14c0-3-4-8-10-11-5-3-10-1-10 4 0 6 5 11 10 11 6 0 10-2 10-4z"/><path d="m12196 6833c-81-30-93-78-13-55 84 25 198 34 272 22 85-14 140-11 140 9 0 23-49 32-205 37-122 4-153 2-194-13z"/><path d="m6817 6827c-9-24 17-100 46-130 26-28 30-29 98-25l72 4-7-91c-7-111-29-193-59-221-30-29-100-39-121-18-27 26-20 70 14 90 28 17 46 42 36 52-7 6-64-15-93-33-31-21-33-100-2-139 18-23 28-26 80-26 119 0 153 35 188 188 26 117 30 302 6 322-19 15-42-1-47-32-5-35-51-62-92-54-32 6-37 12-57 66-15 42-27 60-39 60-10 0-20-6-23-13z"/><path d="m6091 6791c-48-48-68-135-40-178 21-34 61-43 196-43 95 0 132 4 161 17 37 17 37 17-127 24-98 5-169 13-177 20-20 16-17 59 6 97 30 48 48 51 80 12 24-30 30-32 44-21 23 19 20 37-11 66-35 32-103 35-132 6z"/><path d="m7358 6803c-24-6-50-102-46-171 3-53 5-57 28-57 24 0 25 3 33 90 5 50 13 93 20 97s79 8 160 8c142 0 195 9 182 31-6 9-343 11-377 2z"/><path d="m4576 5629c-37-29-53-66-61-136-12-99 26-143 124-143 54 0 140 38 170 75l18 24 23-24c38-41 82-55 168-55 65 0 84 4 106 21 100 79 69 266-43 257-31-3-36-7-39-30-4-33 27-54 57-39 15 9 20 7 25-12 15-58-4-126-43-146-11-6-47-8-85-4-80 7-126 40-126 91 0 44-9 62-32 62-14 0-27-16-46-58-31-71-72-103-142-110-67-6-80 6-80 75 0 62 11 89 47 120 16 13 24 27 20 37-9 22-29 20-61-5z"/><path d="m945 5618c-16-6-41-20-55-30-15-12-26-15-28-9s-12 11-23 11c-24 0-55-65-100-210-36-116-51-218-36-237 29-39 73 6 62 63-8 45 56 234 97 287 89 113 268 124 268 17 0-46-62-60-205-44-49 5-63 3-74-10s-11-19 0-32c17-21 239-17 284 6 68 35 67 127-3 175-30 20-48 25-97 24-33 0-73-5-90-11z"/><path d="m2860 5568c-30-66-59-94-145-138-66-35-85-40-114-35-60 11-70 21-73 72-2 29-9 50-19 56-24 15-68 0-105-37l-32-32-6 45c-7 53-20 71-53 71-45 0-98-31-160-93-63-61-63-61-63-30 0 68-22 79-74 40-95-72-194-107-296-107-48 0-50 1-50 28 0 34 6 43 54 81s86 42 86 7c0-33 25-53 45-36 21 18 19 66-5 90-38 38-112 20-186-44-29-25-39-42-44-77-7-52 4-85 34-93 73-20 220 8 311 59 72 41 72 41 54-46-10-44-9-53 6-68 16-15 19-14 43 18 109 139 194 221 228 221 17 0 19-82 4-145-8-37 0-65 20-65 4 0 36 36 71 80s67 80 72 80c4 0 7-10 7-23 0-56 60-97 144-97 45 0 70 8 132 40 43 22 80 38 82 35 3-3-2-21-12-41-21-45-14-67 28-94 24-14 50-20 94-20 53 0 66 4 105 34 24 18 56 42 72 52l27 18-6-30c-5-22-2-35 8-43 21-17 33-7 58 46 18 38 24 43 42 38 56-19 104-16 165 8l61 25 17-35c26-56 64-73 161-73 123 0 175 29 192 107 10 43-12 103-53 141-30 29-106 39-149 21-18-8-51-14-73-14-36 0-41-4-63-42-32-59-130-108-198-100-56 6-74 20-56 45 22 31 40 76 35 89-14 37-70-3-98-70-9-22-31-48-55-63l-39-26-31 26c-27 23-41 26-101 26-65 0-69 1-69 23 0 12 9 41 20 65 21 47 18 72-11 72-13 0-26-14-39-42zm875-36c26-18 55-67 55-91-1-60-70-97-162-85-65 8-99 35-97 78 1 23 3 25 6 9 5-27 31-50 42-37 4 5 13 28 20 51 6 23 23 51 38 62 25 21 78 28 98 13zm-717-137c6-3 12-11 12-20 0-23-66-48-107-40-28 5-33 10-33 35 0 15 6 30 13 33 12 4 93-2 115-8z"/><path d="m7974 5597c-2-7-3-69-2-138 3-118 4-124 24-127 17-2 26 6 40 34 11 21 34 49 53 63 32 24 33 24 27 5-18-59 30-84 161-84 89 0 105 3 176 34l77 34v-33c0-18-6-70-14-116-25-150-28-215-11-229 24-20 42 3 49 63 4 28 11 68 16 87s16 64 25 100l16 66 67-4c63-3 72-1 152 40 89 45 99 59 86 113-9 34-104 69-169 61-61-7-98-29-131-79-28-45-36-27-9 21 19 33 12 62-15 62-24 0-38-16-47-52-10-39-41-63-130-99-76-30-83-31-160-23-77 9-80 10-83 37-3 24 2 29 45 48 26 11 60 23 76 26 19 4 27 12 27 26 0 18-5 19-74 15-65-4-81-10-140-46-36-23-68-42-71-42s-5 27-5 59c0 33-3 66-6 75-7 19-43 21-50 3zm861-91c19-8 35-21 35-29 0-19-126-75-189-83-52-6-53-6-46 17 29 93 111 132 200 95z"/><path d="m6553 5571c-23-11-50-32-59-48-10-15-25-32-32-36-7-5-17-19-22-32-12-32-98-75-150-75-65 0-80 13-80 70 0 26-3 55-6 64-8 20-57 21-74 1-7-9-44-43-81-76-66-59-69-60-63-31 3 16 14 54 24 83 19 60 17 79-10 79-19 0-37-38-61-127-34-124-33-133 16-133 28 0 46 12 112 75l78 75 6-34c7-43 25-65 66-83 46-19 111-16 162 7l44 21 26-25c44-42 97-59 160-51 75 9 111 26 144 64 52 62 27 160-50 199-61 31-102 34-150 13zm107-47c72-29 90-109 34-153-36-29-127-38-170-17-28 13-34 21-34 46 0 18 6 32 15 35 8 3 22 7 31 10 12 4 14 8 5 19-15 18-4 44 28 61 34 18 42 18 91-1z"/><path d="m11922 5578c-32-7-42-14-40-26 4-19 34-21 137-9l64 8-30-38c-30-39-81-139-104-205-22-65 23-79 50-15 33 79 76 164 98 193 13 17 23 38 23 47 0 21 40 22 139 5 57-10 72-9 86 2 21 18 10 26-53 39-64 13-310 13-370-1z"/><path d="m7544 5558c-28-20-43-38-81-103-39-64 15-153 99-162 75-9 114 3 144 43 35 46 48 124 29 170-29 69-129 96-191 52zm105-33c33-16 41-33 41-80 0-54-8-65-43-59-61 11-97 26-107 44-20 37 21 94 78 109 2 1 16-6 31-14zm-111-157c6-6 34-12 62-12 52-1 65-10 29-19-33-9-87 4-105 24s-6 27 14 7z"/><path d="m10469 5573c-1-5-2-42-3-83-1-61-4-75-18-78-9-2-18 4-20 12-2 13-11 10-48-14-108-72-350-72-350 0 0 47 46 85 85 69 31-12 89-10 109 4 11 8 17 23 14 38-3 21-9 24-48 27-88 6-200-42-283-123l-37-36v54c0 61-17 92-46 83-10-3-50-43-89-88-38-45-87-100-108-122l-38-41 5 30c2 17 16 64 31 105 27 79 27 127 0 150-22 18-99 7-139-20-38-27-86-98-86-129 0-37 36-25 63 22 31 53 56 75 96 87 30 8 31 8 31-23-1-18-10-57-21-87s-25-81-31-114c-8-48-7-61 5-74 33-32 84 9 241 193l25 30 1-42c0-23 3-48 6-57 12-32 77-12 123 38l25 26 12-29c20-46 84-71 186-71 91 0 184 18 222 43 25 17 25 17 28-35 4-65 29-86 58-48 10 14 20 36 22 50 3 23 7 25 76 31 59 4 87 13 153 47l80 42-6-55c-10-73 8-95 75-95 35 0 60 8 103 34 42 26 57 31 57 20 0-9 13-29 29-45 27-26 36-29 98-29 51 0 76 5 102 21 90 55 131 168 79 217-56 52-130 56-196 10-26-18-55-31-65-30-10 2-21-6-26-20-19-48-127-128-172-128-25 0-29 4-29 29 0 16 5 52 11 79 23 97-12 133-64 67-48-60-208-135-256-120-16 5-18 14-14 68 6 74-8 117-37 117-11 0-21-3-21-7zm820-89c18-13 22-22 17-47-8-42-52-97-90-112-41-17-120-6-124 16-2 11 3 16 15 15 14-1 19 9 24 43 11 82 97 128 158 85z"/><path d="m1315 5529c-30-34-36-46-30-68 4-14 8-48 9-74 1-61 21-77 91-77 42 0 60 6 93 30 48 35 57 50 65 110 11 82-33 120-138 120-49 0-55-3-90-41zm163-21c15-15 16-72 2-98-16-30-77-63-105-56-33 8-33 37 2 108 25 51 31 57 59 58 16 0 35-5 42-12z"/><path d="m9022 5558c-7-7-12-36-12-66 0-48 4-58 35-89 36-36 53-39 106-18 24 9 44-128 36-250-9-153-53-224-147-233-65-6-106 11-119 50-23 65-10 113 51 191 34 43 29 46-27 14-58-33-85-78-85-144 0-76 20-118 69-142 95-49 226-6 277 91 30 57 44 172 34 281-5 56-9 148-10 203 0 78-4 104-15 114-23 19-45-5-45-50 0-26-8-45-25-64-44-48-75-28-75 49 0 45-12 75-30 75-3 0-11-5-18-12z"/><path d="m12470 5525c-33-49-69-144-70-185 0-36 18-50 65-50 44 0 173 56 211 91 21 20 21 20 28-22 10-59 69-119 120-119 47 0 47 19-2 45-23 12-44 35-56 58-18 38-18 40 1 100 14 42 17 66 10 75-14 18-33 15-49-10-31-47-95-101-160-134-76-38-125-45-113-16 4 9 13 36 20 59 8 22 26 59 40 82 50 75 6 100-45 26z"/><path d="m11540 5500c-40-43-60-91-63-154-3-77 13-91 101-91 50 0 85 7 138 28 90 35 113 51 97 68-9 9-31 5-100-19-91-31-109-35-155-33-26 1-28 4-28 44 0 45 18 88 53 125 18 19 22 20 29 7 10-17 44-20 53-4 4 5 4 21 1 35-6 21-12 24-52 24-38 0-51-5-74-30z"/><path d="m10513 4532c-26-14-57-45-127-129-9-11-261-47-366-52-120-5-135-8-138-24-4-20 28-71 78-125 17-19 28-37 25-42-26-42-355-29-355 15 0 29 73 105 101 105 7 0 21-8 31-17 17-15 20-15 34-2 13 14 12 18-7 43s-27 28-61 23c-74-10-152-95-146-159 2-27 10-37 43-53 56-28 282-35 351-11 53 18 57 16 90-57 13-29 23-37 38-35 16 2 22 11 23 38 5 59 25 140 40 151 7 6 13 24 13 40 0 43-41 40-69-4-11-19-31-39-45-45-22-10-28-6-80 51l-56 62 137 6c76 4 163 12 193 18 30 7 64 14 76 16 21 5 21 5 0-85-16-68-25-90-37-90-20 0-34-17-42-49-9-37 9-70 50-87 21-9 51-23 67-31 22-12 36-13 65-5 20 6 66 18 104 27 37 10 98 32 136 50l68 33 17-37c9-21 27-43 41-49 61-28 162-4 223 52 22 20 24 20 34 3 22-41 128-60 207-37l33 9-6-38c-9-56 8-71 94-87 78-15 126-11 175 14 20 11 50 15 92 13 76-3 121 10 194 60 39 26 60 35 70 28 22-13 111-11 139 5 14 7 58 32 98 54 72 40 72 40 72 16 0-14 4-34 10-44 32-60 248-49 299 17 37 47 26 56-31 26-45-24-65-28-133-28h-80l-3 45c-3 39 3 54 39 108 34 51 39 64 29 77-19 23-38 18-55-14-23-46-114-130-170-158-27-14-62-34-77-44-25-18-108-27-108-12 0 4 12 19 26 34 28 29 55 95 47 116-15 38-66-3-108-85-28-56-125-133-191-151-49-13-88-5-79 18 23 54 26 84 12 98-22 22-36 9-69-64-35-78-71-99-154-89-76 9-84 14-84 51 0 50 7 61 59 94 107 69 166 186 107 212-47 22-108-32-177-158-28-50-40-63-70-72-40-12-118-15-143-5-18 7-22 69-7 122 13 42 4 64-22 60-15-2-25-14-32-40-15-55-69-125-114-148-45-22-110-27-129-8-18 18-14 86 6 116 42 61 48 122 12 122-19 0-63-59-75-100-4-14-12-31-18-38-24-30-216-112-262-112-7 0-16 15-21 33-7 22-22 39-51 55l-41 22 18 78c25 109 26 111 94 142 74 34 139 97 134 131-2 20-10 24-38 26-19 2-49-5-67-15zm967-280c0-5-11-19-25-32-29-27-32-21-9 15 16 24 34 33 34 17zm-1163-164c-3-8-6-5-6 6-1 11 2 17 5 13 3-3 4-12 1-19zm77 16c17-7 22-44 6-44-9 0-30 31-30 44 0 8 5 7 24 0z"/><path d="m9265 4491c-53-5-70-10-70-21 0-35 238-15 261 21 6 10-75 9-191 0z"/><path d="m4930 4430c-39-39-52-107-25-130 22-18 45 4 45 44 0 50 18 60 56 31 26-20 44-25 93-25 33 0 71 4 85 10 14 5 26 7 26 4 0-12-41-84-63-110-58-69-87-162-60-190 37-37 303 12 361 67 41 38 18 53-38 24-36-19-249-65-267-58-7 3-13 9-13 14 0 17 42 93 67 123 30 35 73 123 73 147 0 54-22 60-94 28-59-26-117-19-145 17-24 30-73 32-101 4z"/><path d="m1434 4351c-53-32-79-75-98-162-5-21-18-30-83-52-55-19-88-26-111-21-39 8-41 26-7 66 32 37 41 73 26 104-10 22-16 24-84 24-78 0-161-20-214-51-38-21-39-20-14 29 21 42 18 62-10 62-19 0-64-76-88-151-6-20-25-49-41-64-33-31-38-59-15-72 12-7 10-27-19-138-52-198-73-271-86-295-14-26-7-50 14-50 33 0 48 42 145 409 23 85 42 155 44 156 1 1 26 20 54 43 58 45 119 67 206 76 51 6 57 4 57-12 0-11-9-27-20-37-17-15-40-71-40-97 0-5 9-17 20-28 28-28 118-27 196 1 33 12 86 22 119 23 52 1 67 6 115 38 52 36 56 37 70 20 50-59 125-89 189-76 34 7 37 27 5 32-57 10-96 25-124 48-24 21-30 33-30 67 0 27-7 48-20 62-10 11-28 30-40 43-25 28-73 29-116 3zm76-42c0-24-22-49-65-72-46-26-53-23-34 16 23 46 99 89 99 56z"/><path d="m6557 4364c-4-4-7-25-7-46 0-22-11-73-25-114s-25-83-25-94c0-34 43-24 100 23 29 23 73 57 99 75l46 32 6-46c9-76 31-87 156-82 93 4 103 3 109-14 3-10 22-29 42-43 28-19 49-25 94-25 53 0 59 2 82 33 69 90-7 172-169 184-62 5-72 3-89-16-16-17-17-25-8-45 10-22 8-24-28-30-21-3-59-3-84 0l-46 7v58c0 69-7 89-29 89-9 0-59-27-110-60-55-36-91-54-87-44 32 84 32 157 1 162-12 2-24 0-28-4zm639-212c17-22 17-32-1-57-11-14-25-18-52-17-66 5-91 49-56 96 17 22 20 23 57 10 21-8 45-22 52-32z"/><path d="m8710 4359c-64-25-150-146-150-210 0-29-28-50-162-122l-68-37v85c0 75 3 87 23 107 16 17 26 40 30 77 9 76-2 91-65 91-92 0-177-73-180-155-2-50 21-67 85-63l48 3-3-89-3-88-89-57c-114-72-130-92-120-157 10-68 57-114 118-114 69 0 104 17 131 64 22 38 25 55 25 142v99l116 63 115 63 34-30c61-53 173-54 279-2 50 25 62 27 70 16 16-20 61-35 109-35 58 0 181 37 237 71 26 16 50 29 52 29 3 0 9-15 12-34 4-19 16-46 27-60 33-42 99-31 99 17 0 16-5 18-27 13-17-5-29-3-34 6-15 23-9 106 11 157 11 28 17 58 13 66-9 26-45 13-57-21-19-54-56-93-119-128-79-44-163-68-224-64-41 3-48 6-51 25-2 12 6 35 18 51 23 31 42 96 33 118-3 8-15 14-28 14-27 0-64-55-72-108-16-94-256-164-315-92-18 22-18 23 10 44 157 117 240 229 186 250-23 9-85 6-114-5zm51-65c-28-35-132-126-138-120-2 2 5 22 16 43 26 52 85 103 117 103h25zm-431-21c0-47-5-53-53-75-102-48-121 13-25 82 58 42 78 40 78-7zm-78-563c-14-18-30-26-58-28-53-4-84 24-84 77 0 40 17 58 110 112l45 27 3-81c2-67 0-86-16-107z"/><path d="m1846 4308c-35-35-45-52-50-90-10-65 4-88 53-88h39l21-77c18-68 19-78 6-86-28-15-140-111-160-136-60-75-75-106-75-156 0-63 17-88 75-111 59-22 104-10 168 47 38 32 50 53 66 104 17 55 19 76 11 152-7 70-7 89 4 95 13 7 155 118 200 157 18 15 19 15 13-2-7-20 8-68 26-79 38-24 122 1 219 66l53 36 5-42c4-33 11-45 30-55 56-28 189-3 254 48 26 20 26 20 26 0 0-29 35-61 65-61 14 0 53 14 87 31l61 31-7-32c-3-18-6-52-6-75 0-41-3-46-52-81-71-50-127-103-144-136s-18-124-1-157c27-53 121-76 191-47 60 25 66 43 66 209 0 144 1 150 25 179 30 36 33 53 6 38-11-5-23-10-27-10-3 0-5 35-2 79 3 55 11 88 25 112 34 55 34 102 1 97-16-2-30-17-43-45-11-23-31-54-45-68-24-26-109-75-130-75-19 0-10 76 16 128 47 95 4 115-53 25-43-70-72-96-138-128-51-25-138-34-150-16-3 6 8 51 26 101 24 72 28 94 19 106-20 23-37 16-69-28-41-61-96-111-165-152-70-42-116-48-116-15 0 30 21 100 37 124 7 11 13 30 13 43 0 19-4 23-27 20-19-2-32-14-45-40-26-50-250-244-269-233-3 3-14 35-23 72-26 100-36 123-56 123-10 0-25-10-33-22-16-23-16-22-16 15-1 30 6 45 28 68 16 16 34 29 39 29 11 0 22-34 22-72 0-21 5-28 20-28 14 0 20 7 20 23 0 12 3 38 6 58 8 45-14 69-62 69-26 0-43-9-78-42zm103-488c0-89-24-146-77-187-50-38-79-41-116-12-57 45-12 142 112 244 77 64 80 62 81-45zm1064-206c-10-7-36-14-59-14-57 0-79 26-79 95 0 60 14 80 100 145l50 37 3-125c2-110 0-126-15-138z"/><path d="m3435 4329c-59-31-85-58-111-114-41-87-25-138 51-155 57-13 290-12 336 2 35 10 42 9 62-10 13-12 35-22 49-22 30 0 142 71 158 100 11 21 11 21 32-5 32-40 95-67 173-72 114-7 134 30 23 42-68 7-126 28-145 53-7 9-13 30-13 48 0 35-22 59-44 51-9-4-31-30-50-59-36-53-115-113-138-105-7 2 0 11 18 20 39 20 104 92 104 115 0 9 3 26 6 38 7 25-19 54-48 54-36 0-75-38-107-104-17-36-31-69-31-73 0-5-32-17-70-27-59-16-90-17-188-11-117 7-152 16-152 38 0 7 11 35 24 64 17 36 37 60 65 77 48 31 66 33 55 9-14-32-10-88 6-88 19 0 53 71 54 115 1 34 0 35-39 38-26 2-54-5-80-19zm455-93c0-15-40-69-47-63-5 6 19 60 32 69 14 10 15 10 15-6z"/><path d="m7353 4258c-20-22-33-48-37-76-5-37-3-46 18-67 18-18 36-25 63-25 37 0 39-1 60-57 12-32 24-74 28-93 5-34 4-36-52-68-133-75-192-151-193-245 0-71 29-97 111-97 80 0 133 17 169 53 48 49 53 74 44 196-9 110-9 110 17 125 38 22 105 99 91 104-7 2-37-12-68-32l-57-35-22 62c-12 34-26 70-30 80-5 12 0 23 19 38 29 23 34 60 11 79-8 7-15 24-15 39 0 39-18 51-75 51-45 0-55-4-82-32zm97-25c0-10-3-35-6-55-6-35-9-38-40-38s-34 3-34 29c0 15 9 40 21 55 23 30 59 35 59 9zm58-486c3-94 2-97-27-129-27-30-34-33-104-36-69-4-75-2-82 17-8 25 2 75 21 113 15 30 161 141 178 135 7-2 12-42 14-100z"/><path d="m10330 3296c-56-8-76-15-78-28-2-9 1-19 7-22 14-9 212 22 228 36 37 30-16 35-157 14z"/><path d="m713 3178c-4-7-8-29-9-48s-5-76-9-126c-9-111-4-134 34-157 41-24 59-22 137 18 58 29 70 32 77 19 34-60 91-100 212-149l40-16-62-35c-63-35-66-40-77-106-5-26-2-40 10-53 39-39 126-47 165-17 22 19 22 19-40 25-77 8-81 11-81 47 0 31 21 50 98 89 80 41 65 71-61 122-121 49-189 130-142 169 8 7 15 25 15 41 0 24-4 29-24 29-18 0-33-12-53-42-19-29-48-53-93-77-96-51-102-45-97 76 2 54 8 110 12 125 11 40-1 78-25 78-10 0-22-6-27-12z"/><path d="m2304 3115c-4-9 18-38 60-79 36-36 66-69 66-73 0-19-225-130-280-139l-40-7v41c0 24 12 66 29 102 45 95 18 123-51 52-42-44-92-62-168-62-58 0-57-4-24 82 15 39 16 49 5 62-23 27-39 18-65-39-31-68-60-95-160-146-71-37-84-40-125-34-46 7-46 7-21 24 89 58 132 131 106 183-23 47-112 32-179-31-41-38-57-73-57-128 1-69 28-87 141-91 82-4 89-2 157 32l72 36v-39c0-52 8-71 31-71s49 48 49 90v30h79c44 0 92 5 106 10l27 10-7-64c-7-62-6-65 19-81 20-14 38-16 74-11 51 7 201 73 270 119 24 16 45 27 46 25 17-22 56-101 65-130 9-26 18-38 32-38 26 0 28 13 41 273 1 26 3 27 52 27 28 0 62 3 75 7 24 6 24 6 17-59-8-79-52-237-73-260-8-9-12-25-9-36 4-11-9-64-29-123-20-57-43-130-52-162-15-53-15-60 0-74 22-23 39-6 55 54 8 26 28 95 47 153 18 58 36 120 40 138 5 25 17 38 53 58 26 15 74 45 106 67 44 30 57 35 52 21-4-10-11-43-15-73-7-46-5-57 12-74 28-28 121-20 174 15l39 26 17-29c42-75 202-64 312 21 59 46 105 131 105 195 0 74-103 143-185 125-57-13-120-83-107-120 4-12 2-13-9-2-7 6-21 12-30 12-18 0-76-72-85-105-3-11-30-39-61-62-43-34-64-43-94-43-46 0-48 8-23 90 18 60 57 128 79 137 8 3 15 14 15 24 0 35-44 21-116-37-82-65-182-134-196-134-6 0-7 10-4 23 38 129 52 236 36 267-11 20-16 22-58 14-86-15-294-9-340 9-52 21-91 22-98 2zm-714-77c0-22-57-80-109-111-31-18-31-18-31 4 0 31 38 88 74 110 42 25 66 25 66-3zm911 12c67 0 72-15 12-44-35-17-35-17-72 21-21 21-28 34-18 30s45-7 78-7zm977-70c18-11 37-31 44-45 28-61-72-198-163-224-24-7-67-11-94-9-50 3-50 3-53 40-3 30 4 47 32 84 20 26 36 52 36 58 0 12 94 97 119 108 27 11 45 9 79-12zm-938-27c0-5-4-14-9-21-7-11-9-11-14 1-3 8-3 18 0 21 9 8 23 7 23-1z"/><path d="m7426 3083c-4-5-94-11-199-14-106-3-200-9-209-14-10-4-18-16-18-27 0-19 4-20 43-14 23 3 114 9 202 12 134 5 165 10 193 26 17 11 32 24 32 29 0 11-34 12-44 2z"/><path d="m8682 3058c-104-127-224-213-281-202l-31 7v82c0 61-4 86-15 95-12 10-18 10-30 0-8-7-15-18-15-24 0-18-96-145-127-169-15-12-49-40-74-62-45-40-103-65-148-65-28 0-27 6 9 47 49 56 38 83-35 83-37 0-52-14-70-67-17-49-44-56-183-45-94 7-116 13-158 37l-49 29 52 15c43 11 64 26 113 77 82 85 79 134-7 134-63-1-184-79-202-131-7-19-17-29-30-29-28 0-28-36-1-45 11-3 20-12 20-19 0-18 48-60 100-87 42-22 57-24 210-25 95-1 177-6 193-13 37-14 49-14 111 4 58 17 199 126 249 192 26 35 27 36 27 11 0-14 9-37 21-52 18-22 28-26 75-26 54 0 117 23 157 58 9 8 19 13 21 11s-1-40-6-84c-11-99-6-121 35-145 95-58 240 28 225 132-2 15-18 31-46 46-37 21-46 22-76 12-19-6-46-20-60-31-21-16-26-17-26-5 0 30 61 180 86 209 26 30 29 67 6 75-7 2-25-11-40-30zm-1042-86c0-4-21-29-47-54-49-47-113-73-113-46 0 18 55 70 95 91 32 17 65 22 65 9zm1125-184c32-14 26-41-16-80-31-29-45-33-68-19-23 15-5 78 27 96 33 18 26 17 57 3z"/><path d="m11053 3058c-43-46-69-103-77-170-6-54-5-57 24-82 17-14 47-28 66-32 41-7 134 13 224 49l60 25v-25c0-37 42-73 85-73 37 0 86 20 118 48 9 8 18 13 20 11 1-2 9-17 18-34 27-50 72-67 159-62 60 4 87 11 135 37 33 17 66 37 74 43 12 10 13 9 7-8-39-98-40-103-26-120 24-29 40-12 83 85l42 95 5-54c8-78 38-101 129-101 75 0 109 16 182 87l37 35-5-44c-9-77 40-102 92-48 16 17 37 30 47 30 29 0 96 38 143 81l42 39-5-68c-4-62-2-71 21-98 25-29 26-29 139-29 105 0 113 1 113 19s-8 20-85 23c-134 5-130 2-130 81 0 37 4 83 10 102 5 19 7 43 4 52-6 22-40 24-51 4-12-22-133-125-167-143l-29-15 7 37c10 50 0 75-30 75-31 0-30 11 3 75 27 55 26 89-4 83-10-2-34-34-55-71-46-84-106-161-166-210-64-54-72-57-128-49l-49 7-3 70c-2 39 2 94 9 123 14 58 5 87-24 87-9 0-32-25-52-55-72-113-227-210-334-210-47 0-61 4-79 23-28 30-28 58 2 121 33 73 39 101 21 116-22 18-41-2-66-70-28-76-111-149-171-150-26 0-28 3-28 44 0 35 6 50 34 79 54 58 51 119-6 103-24-6-78-76-78-101 0-16-99-66-179-89-103-30-151-16-151 46 0 32 2 34 28 30 24-3 32 3 54 35 33 48 53 106 45 127-11 29-69 20-104-16zm27-68c-6-12-14-19-17-17-2 3 1 15 7 27s14 19 17 17c2-3-1-15-7-27z"/><path d="m9142 3058c-7-7-12-19-12-27 0-23-34-126-43-129-32-14-50-159-22-182 18-15 45 2 45 29 0 33 29 96 42 92 63-21 179-6 229 30 15 10 30 19 34 19s4-26 0-57c-8-78 4-95 78-101 59-5 125 14 160 45 16 15 17 13 17-29 0-30 7-54 19-69 17-21 28-24 88-24s72 3 105 30c21 16 43 42 49 57 9 21 23 31 61 43 27 8 61 23 76 33 15 11 38 25 51 32 24 12 24 12 17-33-10-64 11-102 64-118 38-12 66-8 128 18 9 4 11-2 7-20-8-32 26-70 58-65 28 4 49 45 36 71-8 14-13 16-25 6-21-18-18 28 5 75 44 86 47 126 9 126-14 0-26-16-45-56-40-88-136-143-173-99-23 28-6 132 30 183 33 47 36 85 8 90-12 2-25-9-39-32-30-51-188-166-229-166-5 0-10 14-10 32 0 47-73 114-134 123-59 9-91-10-117-70-20-46-85-106-132-124-16-6-46-11-68-11h-39v48c0 32 9 67 29 107 22 44 27 64 20 77-14 27-31 22-70-18-91-94-185-135-256-111-43 15-42 11-18 94 15 51 16 65 5 78-15 18-22 19-38 3zm721-143c36-25 54-61 44-88-7-19-122-7-143 15-16 15-15 19 10 48 14 17 26 36 26 41 0 16 24 10 63-16zm-23-145c48 0 50-10 9-45-25-21-40-25-73-23-41 3-41 3-44 50l-3 47 35-14c20-8 54-15 76-15z"/><path d="m4964 3014c-50-105-208-217-304-216-58 1-90 34-90 93 0 95-39 102-138 25l-71-55 5 47c8 68-8 102-46 102-44 0-92-22-141-67-27-24-40-31-36-19 8 21-8 46-30 46-8 0-19-13-24-29-12-33-99-102-174-137-38-18-67-24-123-24-71 0-75 1-108 34-38 38-40 50-19 104 17 41 63 76 89 66 12-5 15-15 10-45-6-35-4-39 14-39 44 0 59 87 20 114-55 39-146 3-179-68-24-54-24-101 2-143 27-44 69-65 145-71 79-6 146 10 217 53 32 19 57 32 57 28 0-3-12-30-26-60-20-43-23-57-13-69 19-23 38-16 54 21 32 78 201 255 243 255 21 0 10-94-17-151-25-51-26-68-6-75 9-4 48 23 102 70 49 42 98 83 111 91 21 15 22 15 22-6 0-38 40-109 71-124 34-18 113-19 160-3 18 6 60 26 92 45 33 18 57 27 54 21-102-249-214-595-203-625 3-8 15-13 27-11 23 3 66 98 118 263 31 98 71 190 104 244 19 32 21 33 28 12 14-37 53-23 159 57 57 42 75 74 59 103-10 19-18 21-74 17-54-3-70-9-105-37-23-18-44-30-47-27-10 9 19 100 38 121 10 11 22 32 28 47 24 62-27 82-55 22zm126-204c-41-35-130-83-130-70 0 4 24 29 52 54 38 33 61 46 83 46l30-1z"/><path d="m5443 3001c-44-32-103-114-103-144 0-18-5-19-54-13-37 5-56 3-61-4-13-20 20-41 68-43 36-2 49-7 58-24 7-13 32-32 56-44 55-27 149-23 208 7 31 16 53 20 95 17 50-4 63 0 141 40l87 45 6-39c9-54 28-69 89-69 66 0 126 28 163 74l29 36 11-33c13-38 44-57 96-57 46 0 133 32 179 65l34 26 6-40c7-50 32-79 75-87 44-8 96 10 172 61l63 43 24-24c20-20 34-24 84-24 64 0 160 30 182 56 7 8 21 20 32 25 18 10 19 8 12-75-7-77-5-88 14-120 29-46 56-54 87-25 34 32 31 69-11 123-19 26-35 53-35 61s13 50 29 94c21 57 26 82 18 90-18 18-37 13-49-15-18-39-153-142-210-159-68-20-108-11-108 24 0 15 11 42 25 61 29 39 32 68 9 77-12 4-39-17-93-74-97-102-161-146-215-147l-41-1-3 60c-2 52 2 69 28 119 27 50 30 61 18 73-20 19-39 9-68-38-64-103-181-183-257-177-37 3-38 4-41 45-2 23 4 65 12 94 22 74 21 91-6 87-17-2-31-20-53-64-38-76-105-154-150-175-47-21-92-14-99 16-6 25 14 118 34 155 26 48-16 69-47 24-65-95-185-184-249-184-20 0-22 4-17 33 6 38-13 60-49 55-18-2-25-13-34-47-8-36-17-48-45-62-58-30-134-29-173 2l-27 21 69 35c93 46 142 91 142 132 0 24-6 34-30 46-44 23-82 18-127-14zm101-29c7-12-40-54-96-87-53-30-59-24-25 22 45 61 104 92 121 65zm1726-295c0-5-4-5-10-2-5 3-10 14-10 23 0 15 2 15 10 2 5-8 10-19 10-23z"/><path d="m3994 2180c-39-22-56-40-73-76-38-81-19-108 171-240 59-41 113-84 119-96s14-49 16-82c3-49 0-67-16-94-30-46-77-72-134-72-50 0-91 15-82 29 7 12-21 22-40 15-8-4-15-17-15-31 0-32 66-63 135-63 123 0 211 85 208 203-3 78-17 117-56 153-32 30-46 41-122 90-22 15-64 47-93 72-49 41-53 48-48 75 7 36 30 63 68 83 39 20 67 17 110-12 31-22 41-24 53-14 20 16 5 42-39 69-47 30-100 27-162-9z"/><path d="m947 2112c-57-60-67-79-118-215-40-107-72-303-65-392 10-137 91-245 194-261 57-9 49 11-21 53-64 38-105 105-117 191-10 75 18 270 55 377 48 137 64 168 122 227 31 31 52 61 49 67-15 23-45 9-99-47z"/><path d="m3365 2140c-10-16 4-30 32-30 77 0 165-229 148-384-10-88-40-196-69-254-32-64-141-199-166-207-30-9-26-45 5-45s81 44 141 123c140 185 180 431 104 640-42 115-88 167-148 167-22 0-44-4-47-10z"/><path d="m2753 1939c-22-6-47-28-74-62-22-29-52-59-67-68-34-20-55-81-87-259-14-74-32-169-40-210-18-96-18-125 0-140 25-21 42 4 49 74 9 89 118 465 149 518 46 74 71 98 110 105 50 8 83-16 112-79 21-46 22-53 10-89-21-58-32-76-65-99-37-26-144-45-136-23 8 19-39 17-58-3-12-12-13-20-6-35 9-15 22-19 66-19 123 0 198 43 240 138 30 68 30 84 0 147-46 97-111 131-203 104z"/><path d="m1420 1919c-37-15-60-39-86-91-13-27-28-48-32-48-16 0-128-343-142-435-4-27-13-76-20-109-12-62-6-81 26-74 28 5 55 86 149 445 50 194 95 273 153 273 30 0 119-86 142-137 27-60 26-68-12-96s-81-43-158-54c-39-6-55-12-55-23 0-23 95-25 163-4 71 23 132 78 132 121 0 49-35 115-92 169-77 75-108 87-168 63z"/><path d="m2038 1733c-110-3-118-5-118-23 0-19 7-20 128-20 123 0 173 10 176 35 1 11-23 12-186 8z"/><path d="m2962 1477c-7-8-10-21-7-29s-1-21-10-28c-32-26-11-104 32-121 16-6 51-8 83-4 45 6 60 13 87 42 40 42 43 80 10 119-21 24-32 28-103 32-62 3-82 1-92-11zm157-53c13-12 13-17 1-40-17-30-46-44-94-44-32 0-34 1-39 47-3 27-3 52 0 56 7 12 116-3 132-19z"/><path d="m4544 1385c-19-28-11-61 16-68 22-6 34 7 43 41 13 53-29 72-59 27z"/></g><g fill="#44b" transform="matrix(.08161748 0 0 -.08161748 1859.11946651453 2416.93121485665)"><path d="m750 2973c-57-10-88-25-119-57-40-41-55-100-46-179 6-45 12-61 32-77 32-25 35-25 64-1 22 17 24 26 21 89-4 105 24 120 164 87 33-7 119-19 190-25 88-8 134-16 144-26 32-32 8-420-28-456-18-18-126-28-289-28-185 0-206-4-250-52-55-58-58-82-55-363 1-145 7-274 13-293 11-34 51-62 89-62 12 0 35 14 52 31l31 30-6 238c-3 130-3 249 0 264l5 27h112c234 1 363 26 423 82 58 54 98 260 91 463-4 122-7 138-34 191-40 81-79 100-217 108-174 10-361 14-387 9z"/><path d="m3660 2971c-42-9-83-34-103-65-39-59-50-127-54-343-5-206-5-212 18-252 28-50 78-86 143-102 48-12 257-8 370 7l49 7-7-104c-4-57-11-189-16-294-9-177-9-192 8-214 35-47 100-46 136 2 22 29 27 86 42 452 7 191 0 235-44 283-45 48-92 56-241 38-146-18-229-20-265-6l-26 10v162c0 156 8 230 27 249 5 5 99 6 210 2l201-6 5-50c3-39 11-56 31-74 34-29 48-29 80 0 24 20 26 30 28 113 4 147-23 169-218 179-242 11-340 13-374 6z"/><path d="m1565 2945c-14-13-25-32-25-42s-1-297-3-638c-2-677-3-662 55-694 33-19 73-7 101 31 18 24 20 51 29 300 5 150 10 278 12 283 2 6 37 8 97 3 52-3 135-7 186-7 154-2 161-10 143-176-21-189-27-310-18-343 12-45 45-72 86-72 71 0 102 46 102 151 0 33 7 118 16 187 24 190 9 280-58 349-50 52-112 67-263 65-71-1-164-6-205-11-41-4-78-7-81-5-4 2-10 108-13 236-9 286-17 352-47 384-31 33-82 32-114-1z"/><path d="m2542 2944c-55-38-64-109-53-419 6-186 9-215 28-250 50-95 116-125 302-135 75-4 171-5 215-1l78 7-4-178c-2-97-7-181-11-184-4-4-42 1-85 11-104 26-285 27-363 3-106-33-149-107-99-170 26-34 68-41 132-21 74 23 202 20 308-7 182-47 274 5 301 168 12 77 27 831 19 994-7 152-20 181-86 186-88 7-103-51-104-401v-219l-201 4c-197 3-201 3-220 27-18 21-19 42-19 283v260l-29 29c-33 33-74 38-109 13z"/><path d="m2374 1391c-55-34-79-78-79-147 0-51 4-66 27-96 35-45 102-73 153-64 78 15 146 111 131 188-20 108-145 172-232 119z"/><path d="m1853 999c-39-11-66-56-61-101 6-59 69-64 76-6 4 30 34 38 145 38h67v-110c0-135-1-136-132-126-85 6-89 6-113-18-24-25-25-28-25-179 0-162 4-177 47-177 35 0 43 29 43 159v121h73c85 0 141 14 168 41 17 17 19 34 19 169 0 147-1 152-25 175-23 24-30 25-137 24-62 0-128-5-145-10z"/><path d="m2985 1000c-91-16-93-18-104-58-15-51-14-537 0-564 19-36 69-48 204-48 121 0 127 1 151 25l24 24-2 292-3 292-26 19c-31 23-161 33-244 18zm169-86c14-5 16-37 16-250v-245l-102 3-103 3v240 240l40 6c57 9 131 10 149 3z"/><path d="m2351 971c-24-24-29-73-37-372-6-232-6-237 15-258 23-23 29-25 51-11 12 7 16 40 20 150l5 141 35-23c19-13 59-55 88-93 30-39 78-96 108-128 47-51 56-57 74-47 29 16 25 42-15 92-19 24-62 78-95 121-61 77-61 77-33 77 15 0 46 9 69 19 56 26 67 57 62 179-6 156-27 172-220 172-93 0-111-3-127-19zm257-74c16-13 17-168 0-185-7-7-41-12-84-12-40 0-84-4-98-10l-26-10v120 119l98-6c53-3 103-10 110-16z"/></g></svg>