<svg width="485" height="406" version="1.1" viewBox="0 0 485 406" xmlns="http://www.w3.org/2000/svg"><g transform="translate(-60 -16)"><g fill="none" stroke="#000" stroke-width="4.2"><path d="m502 19v400z" stroke-linecap="round" stroke-linejoin="round"/><path d="m519 17-17 17m0 28 41-41m0 28-41 41m0 28 41-41m0 28-41 41m0 28 41-41m0 28-41 41m0 28 41-41m0 28-41 41m0 28 41-41m0 28-41 41m0 28 41-41m0 28-41 41m0 28 41-41m0 28-30 30m28 0 2.1-2.1"/></g><g fill="none" stroke="#000"><path d="m500 190-438 230h439" stroke-linecap="round" stroke-linejoin="round" stroke-width="4.2"/><path d="m502 42-253 133" stroke-linecap="round" stroke-linejoin="round" stroke-width="2.7"/><circle cx="278" cy="232" r="64" stop-color="#000000" stroke-width="3" style="font-variation-settings:normal"/></g><circle cx="278" cy="232" r="6.3"/><path d="m153 371a103 103 0 0 1 12 49" fill="none" stop-color="#000000" stroke="#000" stroke-width="2.5" style="-inkscape-stroke:none;font-variation-settings:normal"/><path d="m185 401q-3.5 0-5-2.8-1.5-2.9-1.5-7.8 0-5.3 1.7-9.2 1.7-4 4.8-6.2 3.1-2.2 7.1-2.2 2.1 0 3.4 0.86 1.3 0.86 2.1 2.2 0.8 1.3 1.1 2.8 0.4 1.4 0.57 2.6h1.3l-0.46 5q0 1.5 0 3.4 0.057 1.8 0.29 3.4 0.29 1.5 0.92 2.6 0.63 0.97 1.8 0.97 1.3 0 2.2-0.63 0.92-0.69 1.7-1.6l0.92 0.92q-0.34 0.52-0.92 1.5-0.57 0.92-1.5 1.9-0.92 0.92-2.2 1.6-1.3 0.63-3 0.63-2 0-2.9-1.4-0.8-1.4-0.8-3.5 0-1 0.17-2.2t0.29-2.6h-0.46q-1.7 2.7-3.6 5-1.8 2.2-3.8 3.6-1.9 1.3-4.1 1.3zm1.3-5q2.1 0 4-1.1 1.9-1.2 3.5-3.2 1.6-1.9 2.5-4.3 0.92-2.4 0.92-4.7 0-2.7-1.4-3.9-1.4-1.3-4.1-1.3-4.6 0-7.6 2.9-3 2.9-3 8.7 0 3.7 1.6 5.3 1.7 1.5 3.6 1.5zm13-8.8-0.23-5q1-2.6 2.5-5.1 1.5-2.5 2.4-3.8l4.8-0.11 0.057 0.86q-0.46 0.57-1.5 1.9-1 1.3-2.3 3-1.3 1.7-2.5 3.4t-2.1 3q-0.86 1.3-1.1 1.7z" stroke-width="1.7" aria-label="α"/></g></svg>
