<svg height="1568.020787pt" preserveAspectRatio="xMidYMid meet" viewBox="0 0 1840.204124 1568.020787" width="1840.204124pt" xmlns="http://www.w3.org/2000/svg"><g transform="matrix(.1 0 0 -.1 -27.645553 1620.020787)"><path d="m18160 16182c0-10 16-34 36-53 47-44 118-144 138-193 32-76 39-166 21-267-8-51-24-111-34-134l-18-42-78-6c-43-4-109-7-147-7-58 0-68 3-68 18 0 31 38 121 64 153 34 40 34 69 1 69-16 0-32-11-47-30-39-54-202-140-264-140-30 0-34 3-34 28 0 15 9 46 20 70 21 47 18 72-10 72-12 0-26-16-39-43-23-48-93-107-128-107-21 0-23 5-23 46 0 30 7 56 21 75 30 43 40 85 23 100-22 18-40 4-67-53-16-33-51-77-94-118-67-64-68-64-71-38-4 33-54 78-87 78-37 0-53-25-61-90-5-50-10-60-25-60-16 0-19 8-19 48 0 56 23 142 53 193 23 39 18 72-10 67-10-2-30-26-46-54-27-52-133-160-191-195-72-44-83-13-41 112 39 115 16 133-59 46-45-53-144-142-151-136-1 2 1 51 7 108 10 109 3 136-26 112-15-12-18-31-31-153-4-39-11-58-20-58-32 0-47-32-40-84 3-28 13-58 21-67 13-14 1-16-128-23-223-10-636-35-705-42l-62-6-7 37c-6 31-1 165 9 264 3 29-27 51-44 34-7-7-16-38-20-69-6-47-14-64-45-95-56-58-64-53-64 39 0 58 5 88 20 117 24 47 25 74 5 81-40 16-74-71-78-198-2-72 1-89 17-107 27-30 73-27 108 6l28 27v-30c0-16 3-45 6-65 8-45 7-45-132-54l-102-6-22 46c-12 26-47 73-76 105-30 32-54 65-54 75 0 9 19 55 41 101 34 69 39 87 29 99-19 23-49 18-73-11-72-85-187-193-201-188-24 9-20 62 5 83 20 16 21 21 10 52-25 78-128 106-191 52-18-14-36-36-40-47-8-18-9-16-9 11-1 46-31 63-111 63-69 0-148-30-184-69-21-23-63-189-76-300-6-47-17-115-26-151-8-36-17-84-21-107-5-39-4-43 16-43 26 0 32 14 64 161 14 63 35 141 47 174 22 60 22 60 108 100 54 25 105 57 135 87l49 46-6-31c-18-91-19-141-1-172 36-68 107-62 162 14 24 33 29 36 69 32 43-3 46-1 109 63 36 36 65 60 65 53s-4-17-9-22c-5-6-12-25-16-42-6-29-1-38 43-85 51-54 102-124 102-139 0-5-30-9-66-9-58 0-65 2-54 15 18 21 3 19-38-7-32-20-51-22-312-27-153-3-282-9-286-13-18-19 23-23 256-26l249-3-30-43c-17-23-33-61-36-83-5-35-2-42 27-66 28-24 39-27 108-27 152 1 267 95 247 203l-7 34 123 7c76 4 126 3 132-3 5-5 12-63 15-128 4-99 2-121-11-131-37-31-137 21-173 90-15 30-10 53 20 78 26 21 18 29-16 19-38-10-68-42-68-72 0-11 14-41 30-67 34-52 99-94 166-105 35-5 45-2 72 20 40 33 44 57 33 190-5 61-7 113-3 117 4 3 93 11 197 18 105 6 262 15 350 21 164 10 471 22 980 38 160 6 442 15 628 21 187 6 341 9 344 6 3-2-14-25-37-50-31-33-38-46-26-46 29 0 59 20 101 66l40 44 170 7c150 7 170 10 173 26s-9 17-153 17c-156 0-156 0-149 23 40 125 53 252 35 340-19 87-73 186-147 266-65 70-104 90-104 53zm-3352-444c2-9-9-30-25-47-33-36-164-111-193-111-19 0-21 4-15 31 20 89 55 127 130 140 62 11 99 6 103-13zm219-2 28-25-22-16c-18-13-23-26-23-63 0-48-35-113-71-133-21-11-49 22-49 58 0 47 33 159 52 181 28 28 50 28 85-2zm1830-151c-6-37-3-49 13-65 39-39 110-18 198 57l55 47-7-45c-9-58 6-96 41-111 25-11 13-13-92-19-66-3-180-7-254-8-123-1-133 0-126 17 5 9 13 31 19 49 7 21 18 33 36 37 14 2 45 23 68 45 24 23 46 41 49 41s3-20 0-45zm441 13c17-17 15-29-8-58l-20-25v48c0 48 7 56 28 35zm219-65c25-19 83-16 118 5 30 19 30 19 57-10 20-22 35-28 67-28 46 0 143 36 193 71 29 21 31 21 23 3-4-10-10-35-13-55l-4-36-96-7c-54-3-209-9-347-12l-250-5 80 39c44 21 94 52 110 69l30 30 7-26c4-14 15-32 25-38zm-2127-268c0-53-1-55-49-94-42-33-60-40-116-46-70-7-115 8-115 41 0 21 28 73 58 109 23 28 31 30 111 36 47 3 92 6 99 7 8 1 12-15 12-53z"/><path d="m14404 16071c-84-61-145-161-187-301-43-143-51-199-51-355-1-142 0-153 27-216 34-80 61-108 113-116l39-6-41 39c-64 61-89 146-88 299 2 134 13 209 50 335 43 143 121 264 199 307 20 12 14 43-8 43-8 0-32-13-53-29z"/><path d="m13478 16029c-23-13-23-41 2-89 14-27 27-40 41-40 18 0 20 5 17 28-3 15-8 35-12 44-8 18-4 20 79 33 37 6 38 8 20 21-22 16-121 18-147 3z"/><path d="m5489 16015c-3-2-39-9-80-15-77-11-167-36-183-51-6-6-6-13 1-20 8-8 27-6 69 4 104 27 215 39 399 43 99 3 196 7 215 10 33 5 34 7 15 20-15 11-63 14-225 14-114 0-209-2-211-5z"/><path d="m5467 15912c-22-24-32-55-68-200-34-138-49-230-42-249 3-7 16-13 29-13 21 0 24 4 24 40 0 57 76 360 98 390 10 14 17 31 15 38-7 18-37 15-56-6z"/><path d="m5621 15906c-7-8-17-43-22-78-6-35-14-90-19-123-6-33-13-102-16-152-6-90-6-93 14-93 16 0 22 8 26 33 2 17 10 70 16 117s16 108 21 135c5 28 10 77 11 109 3 61-8 79-31 52z"/><path d="m5844 15912c-16-10-40-90-62-207-33-169-44-243-38-263 9-28-32-34-264-41-164-5-195-8-195-21s28-15 195-15c206 0 390 12 412 26 23 15-12 29-76 29-50 0-57 2-46 15 14 17 24 57 45 175 9 47 27 131 41 188 27 112 25 139-12 114z"/><path d="m7890 15880c-74-16-137-36-203-65-25-10-36-44-25-75 9-26 64-70 87-70 7 0 28-7 46-16l33-16-21-33c-12-18-26-39-32-48-5-8-20-18-32-22-20-5-22-2-25 37-4 53-28 68-111 68-86 0-128-25-169-102-32-61-35-63-107-91-52-20-82-26-103-22-27 6-30 10-24 38 16 81 98 209 119 188 19-19 46-12 53 14 10 39-2 55-39 55-28 0-42-9-75-44-62-67-127-209-116-252 13-51 117-57 215-12l55 25 27-22c41-36 98-41 154-14 25 12 60 34 77 49 27 24 87 60 99 60 2 0 2-11 0-24-8-42 27-66 97-66 98 0 150 39 150 112 0 31-6 42-39 69-22 17-41 41-43 53-2 17-10 21-43 22-22 1-55 9-72 18-18 9-39 16-47 16s-28 11-43 24c-22 19-25 27-16 37 28 29 195 71 333 84 119 11 143 16 131 28-20 20-197 18-291-3zm-257-286c35-6 37-9 37-44 0-25-5-40-16-44-21-8-139-8-147 0s64 94 78 94c5 0 27-3 48-6zm331-47c26-41-37-94-98-83-33 6-36 10-36 39 1 27 8 36 43 58 44 28 67 25 91-14zm-384-102c-33-19-71-19-96 0-17 13-13 14 51 14 66 0 68-1 45-14z"/><path d="m17785 15870c-14-23 11-30 99-30 68 0 97 4 105 14 9 11 8 15-5 20-26 10-192 7-199-4z"/><path d="m6207 15754c-37-37-67-123-67-193 0-50 4-61 29-85 40-38 103-46 157-18 43 22 120 92 171 157l32 40v-95c1-95 9-120 38-120 8 0 36 35 64 78l51 77-7-67c-6-59-4-69 14-87 29-29 75-26 131 8l48 30 13-31c31-76 153-57 219 33 55 76 52 145-9 186-73 49-196 13-222-64-20-61-47-98-87-121-22-12-42-19-46-15-10 10-7 82 6 145 11 51 10 60-5 75-30 31-64 1-129-112-17-30-17-30-18 41 0 132-47 135-150 9-156-191-296-178-233 22 9 29 27 63 40 75 23 21 23 21 23 1 0-30 26-49 45-33s19 40-1 68c-22 32-74 30-107-4zm859-127c24-21 26-28 20-62-5-26-21-52-46-78-32-31-45-38-72-35-33 3-33 3-31 53 3 87 13 126 37 135 36 15 64 11 92-13z"/><path d="m9192 15773c-19-8-52-78-52-113 0-32 25-90 44-102 14-9-13-32-79-63-100-49-168-15-119 60 21 33 15 80-11 80-14 0-27-14-43-45-23-46-69-80-108-80-26 0-34 17-34 75 0 74-10 106-38 116-35 13-41 5-96-135-50-125-54-166-16-166 14 0 22 11 29 38 6 21 22 64 35 97 22 52 25 56 26 30 0-44 33-92 68-100 17-3 47 0 72 9 41 14 45 14 58-5 18-26 65-49 99-49 39 1 132 40 176 75 36 29 36 29 161 26 115-3 129-1 161 19 19 12 35 23 35 24s-58 2-129 1c-71 0-132 3-135 6-4 3 5 30 19 60 46 99 25 150-62 148-27 0-54-3-61-6zm82-39c23-9 20-37-9-94-26-52-36-59-53-37-22 27-24 60-7 98 18 38 34 46 69 33z"/><path d="m12976 15740-43-40h-125c-117 0-126 1-131 20-7 26-22 25-48-1-18-18-30-20-97-16-42 2-87 7-99 12-42 14-39-21 6-70 22-24 41-48 41-53 0-10-115-57-175-71-85-21-173-18-182 6-9 23 34 98 73 128 47 36 83 31 98-14 13-42 31-50 46-21 9 17 9 29-1 51-15 38-36 49-96 49-42 0-53-5-92-40-42-38-45-39-62-24-13 12-43 19-94 22-87 5-96 0-150-83-44-67-73-92-117-100-37-7-38-6-38 22 0 36 18 92 36 114 41 47-7 66-66 26-19-13-61-34-92-46-32-13-68-33-81-45l-24-23 5 86c4 72 2 89-12 100-29 24-46-3-46-72 0-60 0-60-21-41-18 16-36 19-118 18-143 0-178-9-205-53-25-39-113-91-154-91-34 0-30 57 9 126 28 49 30 57 17 70-18 19-45 9-54-19-12-42-134-199-134-174 0 4 7 21 14 39 50 112 66 169 56 188-15 29-25 25-73-27-89-98-153-153-220-187-76-40-125-45-182-22-31 13-35 19-35 52 0 54 47 141 82 153 38 13 53 6 78-36 23-39 43-39 48 0 2 19-5 36-27 57-33 33-70 38-130 17-73-26-134-216-83-259 30-26 85-43 142-43 67 0 159 43 248 117 31 25 58 45 60 44 1-2-5-20-13-40-20-48-22-105-4-117 23-15 62-1 88 31l24 30 24-26c21-23 30-26 66-22 35 4 80 20 130 46 4 2 7-5 7-16s10-31 21-46c12-15 19-29 17-31-3-3-168-9-369-15-418-11-733-25-934-42-77-6-328-14-557-17s-420-10-424-14c-5-4-2-12 6-17 20-13 715-12 890 0 269 20 873 44 1368 56l293 7-21-47c-11-26-20-68-20-92 0-37 3-44 20-44 22 0 34 23 66 125l19 60 490-1c270-1 677-3 907-5 229-2 420-1 424 4 4 4 4 10 0 15-11 10-420 20-1163 28-381 4-643 10-643 16 0 5 17 35 39 66 37 54 82 87 147 106 20 6 20 4 13-41-8-55 7-89 45-99 40-10 108 15 149 54l37 36v-32c0-47 38-82 89-82 29 0 51 8 83 33 39 30 45 32 68 20 14-7 43-13 66-13 61 0 189 36 249 70 29 16 55 30 58 30 12 0 34-78 30-106-3-20 1-35 11-43 23-19 46 3 46 44 0 39 43 161 66 186 15 17 33 19 145 19h128l-6-57c-3-32-11-62-17-66s-30-5-53-2c-44 6-63-6-44-29 17-21 62-26 103-11 23 8 63 11 106 7 82-5 142 11 223 63l54 34 22-24c46-49 125-46 221 9 35 20 66 36 68 36s4-18 4-40c0-27 7-47 20-60 35-35 90-21 90 22 0 20-15 24-25 8-14-23-25 5-25 64 0 54 3 66 25 86 29 27 33 68 8 77-10 4-23-2-35-18-70-89-191-169-257-169-65 0-79 38-36 94 27 36 32 65 13 84-29 29-70-5-87-74-10-39-19-50-73-85-59-37-140-69-180-69-25 0-23 8 8 33 50 39 84 97 84 143 0 49-17 64-70 64-22 0-43-11-74-40zm94-37c0-33-113-149-118-121-8 41 64 148 99 148 14 0 19-7 19-27zm-505-59c-44-34-52-35-69-9l-16 25h52c50-1 52-2 33-16zm-507-27c43-34-36-147-103-147-24 0-25 2-25 60 0 32 5 70 11 84 11 23 16 25 58 19 25-3 52-10 59-16zm-700-39c6-6 12-16 12-22 0-22-73-98-107-112-63-27-153-13-153 23 0 13 3 14 12 5 13-13 62-17 56-4-2 4-10 19-17 35-17 33-3 73 31 87 27 11 148 2 166-12zm1183-15c-10-17-10-16-11 3 0 23 13 41 18 25 2-6-1-18-7-28zm-1155-128c-7-34-8-35-54-35h-47l30 19c17 10 39 28 49 40 24 27 30 21 22-24z"/><path d="m16370 15738c-38-86-120-181-152-176-20 3-23 10-26 52-2 26 1 61 7 76 7 22 6 32-4 40-19 16-31 6-57-43-40-79-120-196-145-212-22-15-26-15-42-1-41 37-70 5-31-34 44-44 124-8 175 79l29 50 22-24c18-20 33-25 70-25 42 0 51 4 87 42l39 41-6-39c-14-81 62-126 142-85 23 12 46 30 52 41 13 24 12 24-35 4-20-8-51-14-69-12-29 3-31 5-34 50-2 27 5 76 16 112 14 46 17 67 9 75-18 18-37 13-47-11z"/><path d="m8309 15616c-40-27-89-96-89-125s38-51 88-51h44l-51-40c-75-59-86-81-84-162 2-70 21-121 48-132 54-20 116 10 141 69 18 45 44 172 44 220 0 37 4 43 62 88 63 48 64 58 4 33-32-13-34-13-40 7-3 11 0 27 5 33 28 34-31 84-98 84-24 0-51-9-74-24zm124-50c17-20 16-22-20-53-36-33-85-43-127-27-40 15 66 120 109 108 11-3 28-16 38-28zm-39-198c-24-166-45-218-89-218-27 0-35 22-35 96 0 58 18 88 83 135 22 16 42 29 44 29s0-19-3-42z"/><path d="m7297 15193c-5-4-473-10-1040-13-908-4-1032-7-1032-20s114-15 950-18c1078-4 1380 6 1341 45-11 11-209 17-219 6z"/><path d="m10895 14829c-9-13-2-20 48-44 96-46 130-174 91-341-22-95-67-179-137-251-60-63-158-123-201-123-32 0-50-16-42-35 5-14 14-16 49-11 73 11 161 63 235 140 114 117 162 238 162 411 0 75-4 98-25 140-31 65-56 92-99 110-42 18-72 19-81 4z"/><path d="m10680 14694c-11-26-20-49-20-52 0-17-115-194-131-203-11-6-57-13-102-17-63-5-82-10-82-22s16-15 83-15c45 0 82-1 82-2 0 0-11-23-24-50-54-108-38-153 55-153 43 0 55 5 81 30 17 17 28 33 25 36-3 4-28-1-55-10-89-30-103-2-49 94 33 60 47 70 104 70 56 0 168 49 151 66-3 2-44-3-92-12s-89-14-92-11 13 36 36 74c48 78 90 173 90 203 0 13-7 20-20 20s-25-14-40-46z"/><path d="m2509 14707c-25-19-72-120-114-242-61-179-59-179-65-4-5 140-7 154-24 157-10 2-22-2-27-10-5-7-9-87-9-178 0-181 8-210 55-210 31 0 63 59 120 225 47 135 87 219 111 233 21 12 11 42-13 42-10 0-25-6-34-13z"/><path d="m4473 14653c-60-62-72-82-98-161-55-165-71-326-39-382 20-33 63-60 97-60 38 0 42 17 8 34-49 26-71 62-71 120 0 63 21 165 56 273 22 68 35 91 80 138 30 31 54 63 54 71 0 29-42 13-87-33z"/><path d="m1038 14669c-30-17-77-95-92-151-8-29-28-93-44-143-17-49-36-109-43-132-10-36-15-41-27-31-23 20-129 249-142 311-7 31-19 62-27 68-17 14-43 4-43-16 0-32 63-202 103-279 88-170 149-200 182-88 58 195 112 352 133 384 15 23 35 39 53 43 16 4 32 11 35 17 15 24-54 37-88 17z"/><path d="m13490 14646c-54-39-87-99-126-223-30-98-45-115-83-91-16 10-23 10-33 0-19-19 3-46 41-50l31-3-2-70c-3-68-2-71 30-100 24-21 42-29 71-29 48 0 229 55 253 77 44 40 6 39-136-3-144-43-172-31-164 71 6 63 6 63 85 141 120 119 190 255 153 299-21 25-71 17-120-19zm50-91c-31-55-119-169-125-163-7 7 39 135 61 166 12 19 37 44 55 57 46 31 49 11 9-60z"/><path d="m15164 14655c-4-9 8-57 26-108 17-51 40-121 50-157 36-128 35-125 60-125 18 0 35 15 67 60 61 86 156 277 151 306-7 50-33 23-93-96-71-139-113-204-119-184-3 8-10 34-16 59s-24 81-40 125-30 91-32 105c-4 30-44 41-54 15z"/><path d="m8101 14626c-18-21-31-93-61-326-16-122-18-120 104-120 99 1 262 20 284 34 7 4 12 12 12 18 0 10-59 8-269-8l-84-6 7 53c4 30 11 92 15 139 5 47 14 110 21 141 18 74 2 113-29 75z"/><path d="m5276 14524c-3-9-6-65-6-125 0-61-4-119-10-129-13-25-3-50 21-50 12 0 26 15 38 39 44 86 133 70 192-34 31-55 62-85 87-85 24 0 25 30 2 55-12 13-36 45-54 72-18 28-48 57-74 71l-43 24 33 23c47 31 80 41 72 21-9-22 7-20 47 7 41 27 46 60 9 65-38 6-89-14-178-67l-82-50v77c0 76-9 102-36 102-6 0-15-7-18-16z"/><path d="m9085 14478c-31-25-63-93-67-143-5-74 91-115 197-86 33 9 40 8 51-8 46-65 222-50 310 27 31 27 44 56 44 101 0 35-4 42-37 63-31 19-52 23-113 23-119 0-210-54-210-125 0-45-157-61-183-18-15 23 8 94 39 125s43 23 20-12c-15-23-15-26-1-31 8-4 21-1 29 5 20 17 39 68 32 86-9 23-78 19-111-7zm458-80c22-9 27-17 27-44 0-28-7-39-39-62-47-34-142-57-185-44-32 9-48 32-22 32 19 0 20 1 2 35-8 15-12 33-10 40 5 11 75 47 114 58 20 6 78-2 113-15z"/><path d="m9709 14498c-1-2-3-28-4-59-2-31-8-66-14-77-20-37-14-62 15-62 17 0 44 18 83 55 32 30 63 55 69 55 7 0 12-15 12-32 0-39 7-51 37-67 31-16 137-14 180 4 27 12 39 12 50 4 7-7 45-20 84-29l70-16-49-23c-30-14-57-21-70-17-15 5-22 2-27-13-15-48 28-54 111-16 30 14 59 25 64 25s14 9 20 19c14 26-4 71-28 71-28 0-134 30-148 41-20 16 4 59 32 59 13 0 26-4 29-10 8-13 42-13 50 1 4 5-1 19-11 30-17 19-83 26-119 13-19-8-45-55-45-83 0-17-9-20-64-26-93-10-106-4-106 54 0 26-6 56-14 66-13 19-15 19-57 0-24-11-55-30-70-42l-26-23-6 42c-3 22-11 45-19 49-13 9-27 11-29 7z"/><path d="m1543 14444c-8-21 33-62 76-74 46-13 281-13 301 0 28 18-10 30-100 31-132 1-196 12-223 37-27 26-45 28-54 6z"/><path d="m8565 14449c-15-23 15-30 126-27 93 2 114 6 114 18s-21 16-117 18c-78 2-119-1-123-9z"/><path d="m4625 14430c-13-21 9-30 76-30 38 0 69-1 69-3 0-1-9-27-21-57-45-120-59-202-38-216 17-10 34 16 48 76 7 30 25 88 38 128l26 72h86c95 0 128 10 93 29-27 14-368 15-377 1z"/><path d="m6276 14418c-26-42-61-190-60-256 2-83 10-91 70-62 45 21 132 44 217 57 67 10 54 29-100 140-54 39-89 86-78 103 7 12-12 40-26 40-5 0-15-10-23-22zm114-174 64-48-69-17c-39-10-81-21-94-25-21-6-23-5-16 12 4 10 10 37 12 59 7 70 13 88 26 77 7-5 41-31 77-58z"/><path d="m17396 14425c-10-26 5-45 35-45 16 0 29 5 29 10 0 18 80 12 87-7 7-17-9-33-96-93-54-37-64-51-55-75 5-13 34-15 176-15 156 0 169 1 166 18-3 15-19 17-138 20l-134 3 50 33c77 53 97 79 89 115-9 42-30 51-123 51-62 0-81-3-86-15z"/><path d="m6620 14364c0-22 16-50 68-117l44-58-41-85c-23-47-41-90-41-96 0-5 10-8 23-6 16 2 32 23 60 76l39 74 23-22c29-27 88-32 93-9 2 11-6 19-20 22-13 4-36 20-52 36l-29 30 23 58c30 77 31 108 5 108-15 0-25-13-40-50-11-28-24-52-30-54-5-2-27 22-48 53-38 55-77 75-77 40z"/><path d="m7505 14349c-15-23 15-30 116-27 84 2 104 6 104 18s-20 16-107 18c-71 2-109-1-113-9z"/><path d="m8542 14343c3-16 18-18 118-21 116-2 161 7 130 28-8 5-68 10-133 10-107 0-118-2-115-17z"/><path d="m3152 14238c-16-24-39-62-52-85-13-24-28-43-33-43-4 0-20 27-34 59-26 60-48 80-67 61-13-13 6-67 46-134l29-49-23-44c-13-24-44-72-70-106-49-64-60-97-32-97 22 0 77 62 121 135 20 33 38 62 40 64 1 2 18-12 38-32 33-34 84-55 105-42 17 11 11 24-19 40-34 17-91 74-91 91 0 6 25 53 56 103 30 51 53 99 50 107-10 26-35 15-64-28z"/><path d="m1177 14178c-13-24-34-65-46-92-25-59-30-56-81 42-36 68-62 85-68 45-4-24 15-64 65-140 32-49 33-53 19-80-8-15-37-53-65-83-56-60-63-80-27-80 18 0 40 19 82 68 32 37 60 69 62 72 2 2 14-9 27-26 36-46 100-87 124-79 24 7 29 35 6 35-20 0-125 108-125 129 0 10 22 60 48 112 27 52 47 100 44 107-8 26-41 11-65-30z"/><path d="m4985 14200c-9-27 1-40 30-40s39 13 30 40c-4 13-15 20-30 20s-26-7-30-20z"/><path d="m7480 14200c0-19 7-20 135-20s192 11 179 31c-3 5-75 9-160 9-147 0-154-1-154-20z"/><path d="m1703 14203c-195-3-203-4-203-23s7-20 180-20c144 0 187 3 211 15 16 9 27 20 24 25-4 6-7 9-8 8-1-2-93-4-204-5z"/><path d="m2600 14186c-19-7-35-19-35-27 0-15 54-19 92-6 15 6 29 1 49-17 25-21 27-27 19-52-8-21-22-32-55-44-33-11-46-22-48-38-3-18 1-22 22-22 13 0 36 4 50 10 39 14 58 3 54-33-3-28-10-33-72-59-72-29-102-35-91-18 9 15-28 12-49-3-10-7-17-22-15-33 6-30 61-29 147 1 90 32 121 51 132 81 11 27-5 90-24 97-11 4-11 14-3 46 10 35 8 47-7 75-29 55-89 70-166 42z"/><path d="m5758 14155c-14-32 3-55 42-55 35 0 54 22 46 55-5 21-12 25-41 25-28 0-38-5-47-25z"/><path d="m6925 14070c-11-17 5-30 36-30 22 0 29-5 29-20 0-10-9-24-19-30-27-14-62-75-55-94 5-13 21-16 80-16 79 0 129 15 154 45 14 17 13 18-25 12-115-20-146-20-139-4 3 8 12 18 19 21 25 9 45 61 36 92-7 27-12 29-58 32-28 2-54-2-58-8z"/><path d="m7185 14070c-10-16 4-30 31-30 29 0 40-21 25-49-14-26 9-51 48-51 15 0 35-6 45-13 17-13 17-14-10-25-59-23-84-25-84-7 0 9-5 15-12 13-18-6-32-34-25-52 9-22 87-21 147 2 39 15 45 22 48 48 4 37-18 62-59 71-21 4-29 13-35 37-10 47-32 66-75 66-21 0-41-4-44-10z"/><path d="m17073 14050c-11-19-23-28-33-25-8 3-42 0-75-6-73-13-690-29-1426-35-546-5-546-5-552 15-3 12-1 21 4 21s9 9 9 20c0 30-63 26-157-10-42-16-94-30-113-30-20 0-40-4-46-10s-591-11-1694-12c-1490-3-1685-5-1685-18 0-12 20-16 105-18l105-3-3-39c-6-57 5-90 27-90 24 0 31 19 31 81v49h1534 1534v-24c0-22 35-82 57-98 26-19 35 35 10 68-22 29-18 37 18 29 17-4 59-9 92-11 33-3 69-9 81-15 11-6 36-9 54-7 27 2 35 8 40 28 6 25 6 25 177 28l172 2-25-47c-19-39-24-63-24-127v-80l54-52c29-28 83-72 120-96l66-45-33-11c-26-9-200-70-475-169-24-8-44-14-45-12-2 2-15 23-30 45-15 23-30 58-34 77-7 47-28 66-49 45-24-23 2-104 47-148l37-36-147-53c-199-74-632-222-826-282-88-28-236-77-330-109-205-69-656-216-742-241-34-9-106-34-160-55-90-34-333-119-643-223-69-24-144-51-168-62-23-10-53-19-65-19s-31-6-42-14-40-20-65-27-49-16-55-19c-5-4-24-8-42-8-23 0-34 5-38 19-4 10-17 22-30 25s-27 15-30 25c-10 29-43 24-51-8-4-16-15-34-25-41s-23-30-28-50c-8-28-18-40-42-49-36-14-34-39 2-35 37 3 81 4 84 0 2-2-1-24-6-49-6-29-8-395-4-1005 10-1543 10-1651 1-1826l-8-166-34 14c-19 8-67 14-114 14-68 0-89-4-144-30-58-28-125-87-156-139-9-15-11-14-20 2-12 18-35 23-44 8-3-5-1-23 5-40 11-30 14-32 58-29 36 2 47 7 50 23 2 11 19 38 37 61 74 90 228 131 312 84l40-23-5-296c-2-163-9-309-14-325-6-19-6-33 1-40 6-6 10-109 10-274v-263l-29 20c-37 27-81 28-81 3 0-10 11-25 25-32 14-8 39-34 55-59 52-82 61-91 84-91 29 0 49 23 71 83 10 26 26 52 37 58 29 16 22 39-11 39-37 0-57-20-71-68-5-20-13-42-17-49-12-17-6 1203 6 1347 15 181 25 440 24 630-1 91-4 667-8 1281l-7 1116 31 6c22 5 32 14 37 32 4 18 16 28 43 35 36 10 244 84 456 162 61 22 211 75 335 118s284 98 355 123c72 25 252 85 400 132 149 48 353 116 455 150 102 35 257 86 345 113 215 68 665 222 905 312 410 152 894 320 924 320 8 0 24-26 37-57 33-82 71-142 90-143 31 0 29 31-4 89-38 65-52 107-37 116 6 4 8 10 5 15-7 11 40 24 54 15 6-3 30-38 53-76 43-74 61-90 81-70 9 9 1 31-30 93l-41 82 217 72c119 39 243 80 276 91s157 53 275 92c148 50 236 74 284 78 63 5 69 8 87 37 22 35 25 76 7 94-7 7-31 12-54 12-37 0-45-4-61-30zm-488-215c-220-74-439-146-487-161l-87-27-25 29c-14 16-30 41-37 57-12 29-43 37-52 13-8-20 3-57 26-88 22-30 22-32-9-42-24-7-43 9-94 82-31 44-72 57-84 27-7-20 3-45 19-45 12 0 62-88 54-94-5-3-235-76-242-76-2 0-7 9-10 20s-16 24-29 29c-14 5-31 16-39 23-8 8-35 28-61 46-69 48-78 65-78 152 0 59 5 83 23 115l23 40 434 7c239 5 572 12 740 16 168 5 330 9 360 10 48 1 4-16-345-133z"/><path d="m14723 13744c-7-20 20-69 39-69 20 0 22 33 4 60-19 29-34 32-43 9z"/><path d="m11516 13694c-12-32-6-121 9-134 26-22 45 5 45 65 0 66-7 85-30 85-10 0-21-7-24-16z"/><path d="m14766 13601c-6-8 28-59 49-73 17-13 35-9 35 7 0 42-67 94-84 66z"/><path d="m4388 13429c-10-5-18-17-18-27 0-9-11-50-25-92-13-41-39-120-56-175-18-55-35-104-40-109-4-4-26 52-49 125-63 206-62 204-93 207-21 3-27-1-27-15 0-11 5-24 11-30s14-26 19-44c65-258 120-364 165-318 15 16 90 227 101 282 3 21 15 46 25 56 42 39 56 122 25 143-14 10-17 9-38-3z"/><path d="m11521 13416c-8-9-11-45-9-98 3-81 4-83 28-83s25 2 28 83c3 78-6 112-28 112-4 0-13-6-19-14z"/><path d="m801 13337c-11-14-4-36 71-239 29-79 93-176 125-191 51-23 93 13 127 108 10 28 35 79 56 115s45 82 53 103c10 23 26 41 42 47 48 18 13 49-40 36-16-4-32-24-51-63-15-32-37-73-50-93-13-19-35-64-49-100-35-89-47-110-59-110-30 1-92 126-157 315-29 83-44 100-68 72z"/><path d="m3076 13332c-3-5-8-29-12-53-6-44-56-147-101-206-22-31-28-33-82-33-74 0-147-22-199-60-35-25-42-36-42-64 0-50 19-60 99-53 84 7 120 24 186 87l50 48 70-34c43-20 86-33 112-33 44-1 67 15 36 25-39 14-159 65-172 73-11 7-5 24 32 88 46 78 76 176 64 207-7 17-32 22-41 8zm-206-367c-39-41-180-80-180-50 0 22 86 67 143 74 29 4 54 6 56 4 3-2-6-14-19-28z"/><path d="m6677 13313c-3-5-8-28-12-53s-23-67-41-95c-62-94-53-90-198-90h-128l-29-35c-34-40-37-77-8-114 38-49 137-33 246 40 80 53 75 55 194-41 60-49 93-69 121-72 21-3 38-4 38-1 0 8-165 145-208 172-42 26-43 28-28 49 56 76 84 128 93 173 5 27 8 55 5 62-4 13-38 17-45 5zm-173-281c3-5-23-25-57-45-98-59-187-47-139 18 9 13 31 26 47 28 58 8 144 7 149-1z"/><path d="m15517 13303c-2-5-10-32-17-60-13-57-22-62-59-37-28 20-95 15-134-11-25-16-27-23-27-80 0-49 5-68 22-90 19-24 26-27 66-22 39 4 52 12 86 51 40 46 42 46 69 32 39-21 91-29 132-22 51 10 43 23-21 36-31 7-71 18-90 26l-33 14 18 43c10 24 22 62 26 85 6 38 5 42-14 42-11 0-22-3-24-7zm-89-143c28-23 24-42-17-88-39-41-66-42-80-1-6 18-11 43-11 57 0 49 65 68 108 32z"/><path d="m11056 13284c-12-32-6-206 9-259 18-60 38-82 80-87 26-3 31-8 39-46 9-42 8-43-47-101-61-64-74-100-63-178 8-58 20-73 61-73 69 0 123 109 113 226-5 53-3 56 34 93 56 57 48 84-13 40-16-11-30-19-30-17-1 2-5 66-8 142-5 116-9 141-23 150-22 14-29 5-39-46-15-79-26-129-32-134-13-13-27 78-27 173 0 114-4 133-30 133-10 0-21-7-24-16zm132-584c-4-48-11-77-23-90-29-32-35-24-35 42 0 54 4 66 27 90 15 15 29 28 31 28 3 0 2-32 0-70z"/><path d="m5154 13236c-80-37-81-80-4-126 145-87 164-108 113-128-15-6-46-14-67-18-34-6-38-5-33 10 6 14 2 17-20 14-34-4-52-31-34-52 29-34 208-9 230 33 25 45-23 107-117 155-27 14-54 31-61 40-21 25 38 48 113 44 49-2 61 0 61 12 0 17-55 39-100 39-16 1-53-10-81-23z"/><path d="m5545 13250c-11-18 6-51 32-61 39-15 50 3 24 40-23 31-45 39-56 21z"/><path d="m1722 13215c-38-32-82-122-82-167 0-51 36-80 104-86 29-2 62 0 72 6 14 8 23 4 46-20 29-31 29-31 122-26 74 4 102 10 130 28 52 32 86 86 86 137 0 36-5 45-32 65-39 27-146 37-202 18-38-12-72-52-61-70 9-15 20-13 61 15 40 27 77 31 137 14 43-11 52-27 43-66-16-63-125-115-209-99-36 7-38 10-51 69-8 35-34 35-62 0-18-23-29-27-64-26-75 3-86 31-45 113 25 49 61 84 77 74 4-3 15-21 23-41 23-54 56-28 41 32-15 59-82 74-134 30z"/><path d="m2342 13180c-40-18-43-22-40-52s8-34 69-58c77-30 119-55 119-74 0-21-32-44-72-51-32-6-38-4-38 10 0 10-6 15-17 13-13-2-18-13-18-33 0-30 0-30 65-30 55 0 71 4 97 25 39 31 42 37 36 77-4 23-15 38-42 55-34 23-47 29-126 59l-30 11 35 12c23 9 49 10 79 4 73-13 84 22 13 42-53 14-81 12-130-10z"/><path d="m5816 13164c-3-9-6-57-6-109 0-138 23-146 114-43 43 50 46 52 46 26 0-39 36-115 60-128s70-6 70 10c0 6-11 15-25 22-28 12-45 54-45 109 0 53-9 69-36 69-31 0-87-37-108-70-15-24-15-23-16 37 0 74-6 93-30 93-10 0-21-7-24-16z"/><path d="m3466 13151c-23-36 57-52 239-49 125 3 150 5 150 18 0 12-25 16-145 21-80 3-166 10-191 14-31 5-49 4-53-4z"/><path d="m5617 13143c-3-10-8-39-12-65-3-28-18-63-35-87-32-44-36-56-20-66 35-22 89 50 110 147 11 46 11 60 0 73-17 20-38 19-43-2z"/><path d="m11507 13122c-3-4-7-36-8-70-2-66 8-89 36-78 24 9 18 149-7 154-9 2-19-1-21-6z"/><path d="m4828 13107c-30-12-42-35-32-61 7-17 54-23 54-6 0 6 9 19 21 31 16 16 18 23 8 35-13 16-14 16-51 1z"/><path d="m1367 13093c-11-11-8-48 5-61 7-7 29-12 49-12 29 0 39 5 44 20 11 35-12 60-54 60-21 0-41-3-44-7z"/><path d="m3630 13020c-102-4-125-8-125-20 0-13 23-15 150-15 147 1 242 15 230 35-6 10-34 10-255 0z"/><path d="m4438 12949c-20-11-24-34-8-44 5-3 28-1 49 6 49 14 71 1 71-41 0-22-9-34-37-51-43-26-53-37-53-60 0-17 7-19 105-37 36-7 38-9 20-19-41-22-96-25-116-7-10 9-25 14-34 11-21-9-19-44 4-57 30-15 120-11 171 8 38 15 45 22 48 48 3 34-16 48-82 59l-38 6 37 35c34 31 37 37 30 71-11 60-39 83-99 83-28 0-59-5-68-11z"/><path d="m11496 12825c-8-21-8-148 0-169 9-24 43-20 49 7 3 12 5 56 3 97-3 68-5 75-24 78-13 2-24-4-28-13z"/><path d="m13810 12625c-5-14-14-92-20-173-19-277-30-403-36-413-10-16 5-59 21-59 7 0 30 10 51 22 36 21 239 57 326 58 49 0 87 18 94 44 3 12 4 59 2 106-3 83-4 85-28 85-25 0-25-1-28-92-3-107 7-98-127-107-90-7-198-21-234-32-21-6-23-5-16 12 5 10 12 78 16 149 4 72 10 153 13 180 3 28 8 94 10 148 5 92 4 97-15 97-12 0-23-10-29-25z"/><path d="m11514 12537c-3-8-4-43-2-78 3-58 5-64 26-67 30-5 36 17 26 91-7 47-13 63-27 65-9 2-20-3-23-11z"/><path d="m458 12183c-29-34-42-86-40-162 0-42 4-176 7-299 5-187 4-231-10-280-26-92-56-164-89-211-50-71-56-84-44-98 14-17 21-16 48 7 29 25 36 25 54-3 39-59 48-140 43-391-4-221-6-250-31-346-15-58-31-141-35-185-8-72-7-85 13-125 12-27 34-52 54-64 61-34 277-32 223 3-8 5-46 13-85 16-138 14-159 35-152 150 3 44 16 127 30 185 45 191 50 256 39 475-12 230-28 297-78 329l-30 20 33 67c18 37 44 112 58 166 24 92 25 108 20 263-3 91-9 211-12 268-5 74-3 114 6 142 15 44 25 50 33 19 4-15 12-20 29-17 27 4 38 49 17 74-16 20-82 18-101-3z"/><path d="m1283 12128c-34-44-103-223-103-267 0-10-9-44-19-77-10-32-23-74-28-93-8-32-10-27-50 95-23 71-46 147-52 169-29 118-32 125-50 125-11 0-22-7-25-15-11-30 92-373 128-428 33-48 96-46 96 3 0 16 32 138 82 310 24 83 31 95 56 95 12 0 18 10 20 33 5 50-30 81-55 50z"/><path d="m2589 12098c-40-54-81-145-109-239-12-41-31-94-43-118l-21-44-14 34c-29 69-43 137-49 242-6 113-18 142-48 117-34-28 1-281 53-390 24-48 31-55 56-55 24 0 34 8 58 46 15 25 39 84 52 130 34 118 79 213 121 256 27 28 32 39 24 50-21 24-48 14-80-29z"/><path d="m3282 12128c-7-7-12-21-12-33 0-11-6-43-14-70-8-28-25-88-38-135l-24-85-85-5c-66-4-84-8-84-20s17-16 78-18c68-2 78-5 73-19-15-38-26-107-21-124 5-16 17-19 75-19 59 0 73 4 97 24 22 20 25 27 16 37-10 10-20 9-48-4-20-9-47-17-62-17-23 0-25 3-20 33 3 17 10 44 16 60 10 25 14 27 73 27 70 0 104 13 78 30-8 5-41 10-73 10-66 0-65-8-22 130 43 139 50 177 36 194-16 19-23 20-39 4z"/><path d="m4156 12118c-8-13-29-66-46-118-19-54-52-125-79-165-46-70-46-70-102-76-30-3-68-14-83-25-32-20-86-90-86-110 0-21 30-44 56-44 38 0 136 54 162 89 12 17 27 31 33 31s36-24 67-54c62-58 90-76 121-76 34 0 33 18-2 42-19 13-62 48-95 80l-61 56 48 81c50 83 118 269 107 296-8 21-23 19-40-7zm-232-429c-21-23-93-63-101-56-11 12 69 77 94 77 26 0 26 0 7-21z"/><path d="m11313 12060c-28-11-30-40-4-40 33 0 71 19 71 35 0 17-32 19-67 5z"/><path d="m10483 12045c-3-9 1-23 9-33 8-9 31-52 51-95 30-64 34-81 25-97-6-10-17-16-24-13-16 6-84-23-84-37 0-20 32-23 66-7 19 9 34 21 34 26s9 7 20 4c14-4 33-31 57-81 52-111 173-227 173-166 0 9-21 39-46 67-56 63-115 176-107 206 3 14 1 21-8 21-8 1-32 40-54 87-22 48-48 97-58 110-21 26-45 30-54 8z"/><path d="m10684 12045c-4-9 6-34 21-56 14-23 33-59 40-80 14-39 14-39-14-39-35 0-70-25-55-39 14-15 74-2 81 16 4 10 12 3 27-22 11-19 56-92 99-160 74-119 107-151 107-103 0 23-22 63-106 199-30 47-54 89-54 91 0 3 9 8 21 11 30 8 18 31-19 35-25 3-32 9-37 32-3 16-20 48-37 72-44 60-63 72-74 43z"/><path d="m9076 12025c-16-16-23-41-45-147-7-32-16-58-20-58-5 0-24 25-42 55-53 87-55 89-74 82-25-10-13-49 45-134l48-73-25-67c-26-68-87-163-104-163-5 0-9-4-9-10 0-19 49-10 79 15 28 24 59 79 95 167 15 37 15 37 43 23 16-9 56-15 96-15 59 0 67 2 67 19 0 15-11 19-64 24-77 7-109 24-102 52 28 110 48 194 49 214 2 30-15 37-37 16z"/><path d="m11210 12031c-41-11-31-36 13-35 41 1 63 16 53 33-8 12-28 13-66 2z"/><path d="m11108 11998c-34-12-37-38-5-38 42 0 67 12 67 31 0 21-19 23-62 7z"/><path d="m11003 11960c-28-11-30-40-4-40 33 0 71 19 71 35 0 17-32 19-67 5z"/><path d="m10903 11920c-32-13-30-40 3-40s64 17 64 35c0 17-32 19-67 5z"/><path d="m3585 11873c-55-13-83-35-103-81-34-77-36-119-6-149 22-22 32-25 80-21 50 4 54 3 54-16 0-47-13-62-78-96-79-41-176-134-203-195-23-52-16-128 14-158 36-36 114-2 174 77 51 67 120 215 137 295s21 178 7 199c-13 21-44 10-51-18-7-29-47-52-78-43-17 4-22 13-22 39 0 34 42 114 59 114 5 0 17 3 26 7 15 5 16 1 10-35-6-38-5-42 14-42 40 0 58 100 22 120-21 10-24 11-56 3zm-45-499c-53-104-126-190-153-181-14 4-21 59-13 92 10 38 83 118 148 162 35 23 65 39 67 37 3-3-19-52-49-110z"/><path d="m1480 11844c0-16 12-22 65-32 90-17 227-15 272 3 20 8 33 19 29 23s-53 7-109 7-137 4-179 9c-73 8-78 8-78-10z"/><path d="m10383 11760c-46-19-22-44 32-34 25 4 35 11 35 25 0 21-28 24-67 9z"/><path d="m10285 11733c-11-3-23-10-26-15-4-6-25-11-48-12-46-3-72-19-54-37 13-13 83-1 89 16 3 7 15 10 27 8 30-6 77 13 77 32 0 15-24 18-65 8z"/><path d="m1460 11698c0-18 71-38 134-38 69 0 205 34 191 48-3 4-78 6-165 7-143 0-160-2-160-17z"/><path d="m2653 11660c-20-12-33-28-33-40 0-24 22-26 56-4 23 16 26 16 39-2 23-30 17-54-20-90-42-39-46-64-9-64 43 0 103-44 104-76 0-33-104-44-151-17-33 20-36 34-14 67 15 23 15 23-12 18-41-7-53-20-53-58 0-28 7-38 41-61 57-38 129-42 189-11 34 17 46 30 48 50 4 35-22 84-56 105-15 9-29 18-31 19-1 2 4 13 13 26 26 37 21 91-13 127s-54 38-98 11z"/><path d="m10088 11662c-32-20-38-52-9-52 23 0 37-21 79-120 18-41 44-96 57-122 25-47 25-48 4-48-24 0-121-43-161-72-28-19-28-19-38 6-10 28-50 37-50 11 0-25 23-65 37-65 7 0 13-8 13-18 0-24 22-71 36-76 6-2 17 0 25 4 11 7 11 15-4 44-16 35-16 35 11 55 48 34 139 71 175 71 50 0 53 22 12 90-19 32-35 61-35 65 0 6-76 177-99 224-10 21-22 21-53 3z"/><path d="m9983 11615c-18-8-33-18-33-23s-11-7-24-5c-13 3-39-2-57-10-19-8-53-20-76-26-25-7-43-18-43-26 0-22 15-26 50-13 28 9 34 8 42-6 9-16 39-22 51-10 3 4 2 15-4 25-8 15-5 20 15 25 14 3 30 12 36 19 6 8 17 12 25 9 19-8 87 24 83 38-7 19-28 20-65 3z"/><path d="m9668 11513c-21-5-24-43-4-43 28 0 76 23 76 36 0 14-34 17-72 7z"/><path d="m9570 11481c-14-4-26-15-28-25-4-17 1-18 38-13 46 6 66 19 56 36-8 12-28 13-66 2z"/><path d="m9138 11461c-7-10-48-55-90-101-50-53-78-91-78-105 0-24 37-55 65-55 16 0 101-32 137-51 41-21 71 0 44 30-9 10-50 28-91 42-41 13-73 29-72 34 2 6 18 16 35 24 18 8 32 22 31 30-3 31 1 39 41 87 22 27 40 57 40 66 0 24-45 24-62-1z"/><path d="m9884 11465c-9-21 23-65 46-65 26 0 25 20-1 54-23 29-37 33-45 11z"/><path d="m9473 11459c-31-9-44-31-25-43 5-3 26-1 46 5 26 7 36 15 34 26-4 21-15 23-55 12z"/><path d="m9368 11418c-28-10-37-31-18-43 15-9 82 23 78 37-6 17-27 19-60 6z"/><path d="m9273 11383c-12-2-27-10-33-18s-18-11-25-8c-22 8-85-17-85-34 0-13 8-15 42-10 23 3 47 13 53 21 7 9 16 12 21 7 13-13 79 11 79 29 0 16-17 20-52 13z"/><path d="m9930 11366c0-33 20-66 40-66 22 0 25 15 10 54-10 28-50 37-50 12z"/><path d="m10063 11074c-10-26 10-69 32-69 16 0 20 6 18 28-3 48-37 75-50 41z"/><path d="m10090 10965c0-28 23-65 41-65 26 0 29 11 14 48-14 33-55 46-55 17z"/><path d="m3229 10893c-6-15-14-74-17-130-5-102-5-102 26-132 17-17 37-31 44-31 25 0 109 67 135 106l24 39-6-53c-11-94-14-98-100-111-77-11-149-40-157-63-9-23 4-76 23-94 57-51 193-8 236 75 13 25 25 47 28 49 3 3 57 8 120 12 63 3 117 9 121 13 16 16-13 22-120 25l-113 4 8 42c39 211 39 256-1 256-18 0-50-39-50-61s-89-147-120-169c-25-18-31-19-36-7-5 14 0 174 7 227 3 20-1 26-18 28-17 3-26-4-34-25zm152-386c-35-57-142-78-149-30-3 18 4 26 30 37 31 13 129 34 137 29 2-1-6-17-18-36z"/><path d="m1215 10870c-3-5-10-42-14-82-5-42-22-103-39-143-16-38-33-85-37-102-9-42-15-45-66-34-49 11-82-1-77-27 2-13 15-17 52-19 27-1 51-4 53-7 3-3-1-22-10-43-8-21-22-62-30-90-14-47-14-54-1-68 28-27 87-18 155 24 54 32 64 43 67 70 4 35-16 43-34 13-12-19-129-84-137-76-3 3 7 39 21 80l26 74h88 88l-6-55c-6-53-6-55 23-71l30-18-61-51c-40-35-71-71-89-108-26-53-27-59-19-129 5-40 20-96 33-123 20-42 30-51 61-59 90-22 158 48 183 190 12 65 13 107 4 234-6 85-14 161-18 169-13 26-31 23-48-9-38-67-42-69-43-20 0 42 2 47 33 58l32 13-29 12-29 13 30 34c30 33 31 34 56 17 35-22 57-22 57 2 0 27-63 65-95 57-28-7-69-47-91-88-13-26-19-28-77-28-101 0-103 6-42 155 59 145 70 245 25 245-10 0-22-4-25-10zm212-761c-4-85-10-128-25-160-58-130-141-89-150 73-5 81 10 110 103 204l60 61 9-31c4-17 6-83 3-147z"/><path d="m10130 10866c0-33 20-66 40-66 22 0 25 15 10 54-10 28-50 37-50 12z"/><path d="m1996 10758c-3-13-7-54-10-93-4-53-15-89-45-152-22-46-47-86-56-89-8-4-37 1-63 11-134 49-206 22-181-68 16-58 38-70 118-65 52 3 78 9 100 26 39 28 56 28 126-4 46-22 68-25 116-22 97 7 92 30-10 43-31 4-73 16-93 26s-44 19-53 19c-11 0-8 11 15 48 64 105 100 235 83 303-11 40-40 51-47 17zm-197-366c38-13 42-17 27-27-9-7-37-15-64-19-38-5-49-3-59 11-27 36-5 70 37 55 8-3 35-12 59-20z"/><path d="m10175 10753c11-47 44-70 60-43 11 17-24 70-46 70-18 0-20-4-14-27z"/><path d="m10216 10672c-10-16 23-72 44-72 23 0 25 17 8 55-11 24-41 34-52 17z"/><path d="m10256 10572c-10-16 23-72 44-72 23 0 25 17 8 55-11 24-41 34-52 17z"/><path d="m2324 10525c-14-35 56-48 231-43 90 2 110 6 110 18s-23 16-125 21c-69 4-144 10-167 14-36 6-44 5-49-10z"/><path d="m10300 10459c0-32 19-59 40-59 23 0 24 5 9 49-13 36-49 44-49 10z"/><path d="m2405 10410c-13-21 7-28 100-34 50-3 110-9 135-12 31-4 51-1 65 9 18 14 17 15-20 27-60 18-270 26-280 10z"/><path d="m3496 10393c-4-4-98-10-209-13-170-4-202-7-202-20 0-21 192-25 457-9 207 12 248 19 218 39-17 11-253 14-264 3z"/><path d="m10336 10371c-11-17 15-71 34-71 27 0 30 11 15 48-13 30-38 42-49 23z"/><path d="m10374 10248c4-18 13-39 21-48 13-12 17-12 29 0 20 22-6 80-35 80-19 0-21-4-15-32z"/><path d="m3425 10205c-89-32-155-175-170-368-8-105-2-117 62-117 77 0 323 115 323 151 0 18-46 9-105-21-75-37-200-90-214-90-7 0-11 27-11 73v73l43 21c57 28 151 114 171 157 23 48 21 112-3 126-26 13-47 12-96-5zm65-55c0-12-7-34-15-49-15-30-111-121-126-121-25 0 7 91 53 150 31 39 88 52 88 20z"/><path d="m10414 10149c8-43 31-68 47-52 20 20-2 77-30 81-22 4-23 1-17-29z"/><path d="m10454 10066c-6-16 22-76 35-76 21 0 28 26 15 58-14 33-41 43-50 18z"/><path d="m10495 9970c-7-11 19-65 36-75 24-15 33 14 16 50-16 34-39 45-52 25z"/><path d="m10540 9865c0-28 23-65 41-65 25 0 28 10 13 48-14 33-54 46-54 17z"/><path d="m10585 9770c-10-16 5-71 22-77 26-10 36 12 23 51-11 35-32 47-45 26z"/><path d="m10615 9670c-12-19 15-80 36-80s25 23 9 64c-10 26-34 34-45 16z"/><path d="m11180 9586c0-34-5-77-11-95-11-30-13-31-71-31-73 0-95-11-115-57-15-37-10-106 9-130 30-37 113 3 164 79l31 46 53-30c65-37 106-49 137-42 35 9 24 22-39 48-31 13-72 33-90 44l-33 21 4 106c3 101 2 105-18 105-19 0-21-6-21-64zm-46-178c-20-36-77-98-90-98-20 0-19 74 2 94 19 20 99 23 88 4z"/><path d="m10654 9566c-8-22 25-78 43-74 24 5 25 19 3 56-21 34-37 41-46 18z"/><path d="m10705 9469c-11-17 16-69 36-69 27 0 30 13 9 48-20 33-34 40-45 21z"/><path d="m10746 9371c-3-4 0-22 7-40 8-22 18-31 34-31 26 0 27 5 12 49-11 30-41 43-53 22z"/><path d="m10786 9271c-8-13 16-70 33-76 25-10 34 11 21 49-11 34-41 49-54 27z"/><path d="m10826 9172c-10-16 23-72 44-72 23 0 25 17 8 55-11 24-41 34-52 17z"/><path d="m3875 9078c-46-66-43-192 6-271 39-63 65-75 113-52 39 19 67 52 84 100 8 24 10 4 11-100v-130l-108-52c-87-42-115-60-139-93-26-36-29-45-20-71 15-42 40-52 123-47 64 4 77 9 115 39 47 38 78 91 88 152 6 33 12 42 37 50 99 32 185 70 185 83 0 21-37 17-133-15l-87-30-2 202-3 202h-25c-20 0-26-6-30-30-7-44-88-199-111-214-25-15-32-10-56 36-30 57-35 112-18 178 21 81 6 113-30 63zm215-527c0-70-65-134-146-144-114-13-93 43 42 115 49 26 92 47 97 48 4 0 7-8 7-19z"/><path d="m10875 9069c-11-17 16-69 36-69 27 0 32 16 14 50-16 30-38 39-50 19z"/><path d="m10920 8965c0-22 30-65 46-65 22 0 26 18 9 50-16 32-55 42-55 15z"/><path d="m670 8802c-33-27-43-104-24-194 8-39 18-78 23-87 4-9 16-59 26-112 27-149 18-296-25-422-18-54-50-125-72-158-21-33-38-66-38-74 0-15 60-65 78-65 20 0 49-49 72-119 21-65 22-82 18-288-5-218-5-218-57-453-29-129-57-253-61-275-18-81-12-167 16-223 43-86 165-179 262-198 55-11 37 11-58 71-147 92-187 157-175 282 4 41 11 89 16 106 21 72 100 458 111 543 9 67 9 138 2 260-9 151-13 175-38 229-28 63-61 105-81 105-7 0-19 8-28 18-15 17-15 20 6 53 34 50 73 143 99 234 37 132 25 356-29 520-9 27-17 85-17 129-1 69 1 81 17 84 14 3 17-4 17-41 0-52 20-78 45-57 28 23 15 120-19 142-20 14-63 8-86-10z"/><path d="m11020 8769c0-32 19-59 40-59 23 0 25 18 8 55-14 31-48 34-48 4z"/><path d="m2683 8743c-12-30-8-116 10-218 9-55 21-131 27-170 15-104 50-195 78-208 21-10 27-8 43 12 11 13 19 34 19 46 0 13 18 74 41 137 46 131 125 260 170 280 31 14 39 42 14 52-59 22-164-119-235-318l-47-128-11 43c-24 98-32 140-32 176 0 21-7 72-16 113-10 48-14 98-10 138 5 61 5 62-20 62-14 0-27-7-31-17z"/><path d="m12243 8748c-13-17-63-187-63-213 0-11-9-47-19-81-11-34-25-99-32-145s-15-87-19-92c-3-4-12 27-19 69-7 41-21 100-32 131-10 31-19 63-19 71s-9 46-20 83c-16 53-25 69-39 69-30 0-30-19 1-135 31-118 75-312 86-384 4-26 14-48 25-55 31-19 52 21 71 131 16 93 65 322 87 408 6 22 19 55 30 73 23 40 24 68 3 76-23 9-30 8-41-6z"/><path d="m11060 8680c0-26 32-70 50-70 24 0 25 11 5 50-15 29-55 43-55 20z"/><path d="m1443 8668c-40-67-145-310-168-392-12-43-19-56-26-45-5 8-9 25-9 40 0 27-52 247-75 314-15 45-38 66-56 48-8-8-6-28 9-80 11-37 32-122 47-188 35-159 56-226 77-239 27-16 43 7 73 102 45 142 132 341 177 403 6 9 8 24 5 33-7 19-42 21-54 4z"/><path d="m11114 8585c-10-26 11-70 36-73 21-3 22-1 16 29-10 52-40 77-52 44z"/><path d="m11150 8480c0-22 31-70 45-70 23 0 27 18 10 50-15 29-55 43-55 20z"/><path d="m1832 8428c-7-7-12-21-12-31 0-16 4-18 28-12 15 5 106 11 202 14 146 5 175 8 175 21s-29 15-190 18c-140 2-194-1-203-10z"/><path d="m11203 8384c-10-26 10-69 32-69 16 0 19 6 17 30-6 48-36 73-49 39z"/><path d="m11230 8276c0-33 20-66 40-66 22 0 25 15 10 54-10 28-50 37-50 12z"/><path d="m3540 8263c0-17 12-21 98-31 119-15 499-14 797 1 184 10 220 14 220 27 0 16-46 17-615 9-140-2-310 0-377 5-117 8-123 7-123-11z"/><path d="m1837 8228c-48-13-49-44-2-41 17 2 105 6 198 9 92 4 167 10 167 15 0 21-49 29-182 28-79-1-160-6-181-11z"/><path d="m2962 8228c-13-6-21-18-20-27 4-17 11-17 93-6 42 6 53 4 65-10 13-15 11-20-13-39-49-39-33-73 43-90 14-4 34-13 45-21 33-26 0-45-89-52-78-6-86-2-61 31 19 25 19 36 1 36-24 0-66-41-66-64 0-38 19-46 112-46 117 0 168 23 168 74 0 39-34 73-82 83-32 6-35 15-13 33 21 17 19 53-6 84-19 24-27 26-87 25-37 0-77-5-90-11z"/><path d="m12326 8224c-33-33-6-103 29-74 8 7 15 21 15 31 0 23 13 24 30 4 20-24 7-138-19-171-11-15-21-37-21-50 0-23 3-24 69-24 39 0 73-5 76-10 10-16-12-37-43-43-15-3-47-10-71-16-33-9-47-9-58 0-18 15-36-1-31-27 5-27 57-30 145-9 89 21 127 51 117 92-9 39-31 53-85 53h-46l18 57c23 67 17 140-13 178-23 30-87 35-112 9z"/><path d="m11274 8186c-8-22 25-78 43-74 24 5 25 19 3 56-21 34-37 41-46 18z"/><path d="m4088 8111c-72-46-138-149-195-306-69-189-28-225 166-146 53 21 128 50 166 65 75 28 135 69 122 82-9 10-85-15-272-89-115-45-150-54-164-42-2 2 5 29 14 60 13 40 26 60 44 70 37 19 161 142 196 193 21 32 29 56 29 90 1 45 0 47-29 50-20 2-46-7-77-27zm56-43c-10-33-89-133-126-159-17-12-29-18-27-13 31 69 61 116 98 151 50 48 66 54 55 21z"/><path d="m11310 8081c0-4 5-22 11-40 12-34 49-45 49-13 0 41-13 62-36 62-13 0-24-4-24-9z"/><path d="m11350 7980c0-26 32-70 50-70 24 0 25 11 5 50-15 29-55 43-55 20z"/><path d="m11380 7876c0-8 5-18 10-21 6-3 10-15 10-26 0-13 7-19 21-19 17 0 20 5 17 38-3 32-7 37-30 40-20 2-28-1-28-12z"/><path d="m7186 7431c-13-20 5-31 51-31 53 0 113-26 113-48 0-9-25-40-55-69-92-89-75-103 127-103 138 0 168 6 168 32 0 4-58 8-129 8-72 0-132 4-135 8-3 5 13 26 34 46 33 31 40 44 40 76 0 57-41 84-136 88-45 3-74 0-78-7z"/><path d="m4760 7381c0-16 9-19 58-23 64-4 107-29 136-79 23-40 14-63-36-85-60-27-98-62-98-90 0-29 18-38 105-53 39-7 92-17 118-23 35-7 52-7 60 1 21 21-18 42-107 56-125 20-130 27-46 70 27 14 54 34 60 44 28 53-5 126-79 172-37 24-56 29-108 29-55 0-63-2-63-19z"/><path d="m6984 7212c-6-4-27-32-47-64-32-48-46-82-83-198-10-31-24 15-24 81 0 75-17 103-46 78-13-10-15-28-12-79s12-82 43-145c40-79 67-103 86-73 5 7 9 43 9 80 0 79 30 170 79 243 31 46 37 75 16 82-5 1-15-1-21-5z"/><path d="m4711 7179c-10-11-47-75-82-142l-63-122-8 45c-3 25-7 68-7 97-1 65-8 83-32 83-33 0-36-48-11-210 13-83 27-110 57-110 20 0 29 8 41 38 39 90 109 231 135 270 16 24 29 50 29 58 0 21-36 17-59-7z"/><path d="m6142 7124c-13-9-22-26-22-41 0-22 4-25 25-21 24 5 24 5 27-96 3-100 3-101 28-101 23 0 25 4 28 54 4 66 24 98 76 122 56 25 66 17 66-51 0-32 3-65 6-74 9-22 41-20 49 3 9 29 143 151 165 151 19 0 20-7 20-104 0-122 4-136 37-136h25l-4 119c-5 133-19 171-64 171-35 0-93-32-133-74-36-37-51-38-51-5 0 55-78 76-149 39-41-20-51-18-51 11 0 20-26 49-43 49-7 0-23-7-35-16z"/><path d="m3962 7088c-7-7-12-33-12-59 0-25-5-70-10-99-12-66-6-92 22-88 15 2 25 16 35 50 14 50 70 118 97 118 19 0 20-15 4-75-11-39-10-47 4-62 14-13 20-14 32-3 9 7 16 21 16 32 0 35 31 87 65 108 18 11 36 20 41 20 14 0 34-75 34-129 0-68 38-104 70-66 9 11 10 19 1 28-6 8-15 45-21 83-17 120-21 129-63 132-25 2-51-4-77-19-31-18-43-20-52-11-18 18-59 15-101-7l-37-19v27c0 25-15 51-30 51-3 0-11-5-18-12z"/><path d="m1086 6904c-18-17-21-60-6-69 6-3 10-46 10-95 0-48 3-95 6-104 12-31 39-17 61 32 29 63 105 145 130 140 16-3 18-15 20-93 4-120 8-137 35-133 14 2 42 33 80 87 46 66 59 80 64 65 17-55 39-95 65-120 40-38 136-46 195-16 21 11 54 23 72 27l32 7-1-49v-48l-71-34c-46-22-92-55-132-95-73-72-91-118-84-222 4-60 7-70 36-95 35-32 77-37 143-19 52 14 85 55 126 156 31 77 37 103 41 191 4 87 7 103 22 108 10 3 24 13 32 22 11 14 9 15-20 11l-32-5v58c0 73-6 89-37 89-23 0-23 1-9 22 22 30 20 81-2 101s-87 22-121 3-81-94-81-130c0-17 8-42 17-56 16-22 16-23-1-17-10 4-30 7-46 7-33 0-63 36-89 107-29 83-77 84-133 3l-35-50-7 59c-14 127-81 146-178 53l-38-36v58c0 86-26 119-64 80zm728-110c23-9 20-25-15-77-23-35-37-47-55-47-14 0-27 6-30 14-8 20 20 70 52 95 30 24 27 23 48 15zm36-389c0-61-6-92-32-158-40-105-71-137-131-137-55 0-68 15-75 79-7 75 20 142 76 192 44 39 138 99 155 99 4 0 7-34 7-75z"/><path d="m7120 6900c0-17 7-20 47-20h47l-23-21c-12-11-20-26-18-32 3-11 17-19 115-65 48-22 47-41-3-69-52-28-54-28-65 3-15 39-35 24-35-27 0-41 2-44 29-47 34-4 151 51 166 78 21 39-25 97-96 120-36 12-36 12-15 31 24 23 24 24 11 50-9 16-22 19-85 19-68 0-75-2-75-20z"/><path d="m3270 6880c-40-40-12-62 44-36 105 50 191-26 136-121-23-41-80-86-123-97-18-4-27-13-27-26 0-19 7-20 95-20 133 0 225 21 225 53 0 9-75 5-160-9l-35-6 27 24c84 73 91 191 14 242-39 25-169 23-196-4z"/><path d="m5451 6823c-6-21-11-52-11-70v-32l-107-3c-88-2-108-6-108-18s19-16 103-18l102-3v-67c0-85 8-112 30-112s30 27 30 112v67l93 3c74 2 92 6 92 18s-18 16-92 18c-104 3-103 2-84 84 15 64-31 83-48 21z"/><path d="m2062 6828c-8-8-12-45-12-99 0-83 1-89 27-109 18-14 38-20 54-18 25 4 28 1 42-56 14-59 14-61-6-76-74-53-144-115-159-142-12-22-15-44-11-82 7-64 23-95 68-135 31-27 43-31 93-31 129 0 140 33 103 300l-12 85 35 28c20 16 36 33 36 38 0 12-47 11-55-1-24-39-55 38-55 139 0 72-6 91-30 91-19 0-30-19-30-53-1-22-21-57-34-57-3 0-6 37-6 83 0 75-9 107-30 107-3 0-11-5-18-12zm157-524c13-69 14-144 3-161-4-7-26-15-49-19-37-6-44-3-78 28s-39 41-43 92c-5 65-1 72 88 143l55 43 6-32c4-18 12-60 18-94z"/><path d="m2608 6793c-14-2-32-11-39-19-24-29 4-34 126-21 94 10 120 16 120 27 0 12-18 15-90 16-49 1-102-1-117-3z"/><path d="m4045 6689c-4-6-3-15 2-20s156-8 364-7c307 3 354 5 354 18s-47 15-357 18c-251 1-359-1-363-9z"/><path d="m6916 6673c-4-5-121-11-259-15-310-10-392-17-392-38 0-12 15-15 80-14 124 1 625 24 673 30 46 7 63 21 41 35-17 11-133 12-143 2z"/><path d="m2643 6647c-51-8-63-14-63-29 0-22 21-23 158-7 106 12 144 25 121 40-18 11-136 9-216-4z"/><path d="m4333 6489c-33-10-44-35-20-44 7-3 34-1 61 4 59 11 75 6 87-26 7-18 5-34-7-59-9-19-20-34-24-34s-26-19-48-42c-46-46-54-81-23-98 30-15 235-13 275 4 70 29 52 36-77 29-170-8-175-5-105 62 41 38 59 63 64 89 7 43-9 90-40 111-23 17-93 18-143 4z"/><path d="m6598 6428c-36-9-49-30-29-42 5-4 44-1 86 5 50 8 80 8 86 2 7-7-20-38-76-92-107-101-108-115-10-119 90-4 225 14 244 33 29 29-14 31-194 9l-50-6 73 75c74 76 85 103 56 131-18 18-124 21-186 4z"/><path d="m2320 5161c-26-49-5-81 52-81 27 0 40 5 48 19 14 28 13 38-10 61-26 26-76 26-90 1z"/><path d="m2956 5164c-18-48 1-84 45-84 21 0 31 8 43 32 15 29 15 33 0 50-21 23-79 24-88 2z"/><path d="m3465 5146c-18-32-18-36-2-60 23-35 64-35 77-1 5 14 16 25 25 25s15 9 15 25c0 18-5 25-19 25-11 0-23 5-26 10-14 23-52 10-70-24z"/><path d="m3427 4714c-4-4-7-15-7-24s-11-22-25-28c-71-33-277-451-480-976-23-61-67-163-97-226s-62-131-70-150l-17-35v75c-1 41 11 176 27 300 29 241 33 409 11 436-10 12-23 14-53 10-23-4-85-9-139-12-83-5-98-9-95-23s20-16 126-15h122v-85c0-47-5-120-11-161-21-159-29-241-40-427-9-154-9-196 1-208 7-8 16-15 21-15 18 0 53 49 86 120 20 41 61 131 93 200s85 195 118 280c71 182 110 274 198 465 123 266 187 380 209 372 7-3 41 7 76 21l64 27 1000 7c933 6 1628 18 1978 34l147 7v-57c0-47 3-56 18-56 10 0 23 5 30 12 14 14 16 106 4 126-7 10-52 12-208 8-109-3-417-10-684-17-659-16-2123-17-2255-2-55 6-109 14-120 18-11 3-24 3-28-1z"/><path d="m4624 4439c-44-20-124-99-124-123 0-26 28-38 82-34 29 2 61 8 71 12 16 7 17 0 17-88 0-53 0-99 1-103 0-7-51-25-206-70-52-16-60-22-63-44-5-40 70-69 176-69 131 0 166 24 163 110-1 45 0 46 44 68 49 24 62 48 20 38-14-3-36-9-50-12-25-6-25-6-25 83 0 76 3 90 19 100 11 7 24 34 31 63 11 45 10 53-5 70-23 26-95 25-151-1zm101-29c3-5-1-10-9-10s-19-6-23-13c-11-19-96-67-118-67-44 0 84 96 132 99 6 1 15-3 18-9zm-35-389c0-16-6-34-14-40-23-19-136-25-176-9l-34 14 49 13c28 7 75 21 105 31 72 24 70 24 70-9z"/><path d="m5222 4447c-6-7-17-46-23-86-11-67-11-74 8-99 11-15 36-31 57-36 33-9 45-5 115 30l78 40-4-40c-3-25 3-63 15-96l19-55-88-11c-109-14-237-60-252-91-15-34 0-70 40-98 35-23 46-25 149-25 139 0 167 6 204 40 29 27 30 31 24 88l-7 60 59 12c95 20 97 29 7 30h-81l-16 47c-20 59-21 153-1 200 8 19 15 42 15 49 0 29-42 13-81-30-46-50-148-109-182-104-19 3-22 10-25 52-2 27 2 62 9 77 9 23 9 32-1 44-15 18-24 19-38 2zm288-445c0-62-14-70-138-78-81-6-104-4-134 10-57 27-56 44 7 71 30 14 66 27 79 31 34 8 169 21 179 16 4-2 7-24 7-50z"/><path d="m3716 4423c-4-9 0-23 7-31 12-11 18-11 35-1 16 10 29 10 60 1 22-7 50-12 64-12 13 0 33-6 43-14 18-13 12-18-74-72-114-72-128-83-136-111-4-15 1-29 16-44 20-20 28-21 118-16 107 7 189 25 247 56l39 20-38 1c-20 0-81-8-135-17-101-18-178-21-190-8-4 4-2 9 3 11 6 2 58 36 118 75 87 57 107 75 107 94 0 32-37 56-114 72-90 19-162 17-170-4z"/><path d="m1114 4135c-3-14-3-33 1-42 4-10 11-52 16-93 25-218 31-252 56-308 12-27 19-33 41-30 32 4 36 12 102 183 32 84 68 156 101 203 28 40 49 80 47 90-14 73-126-83-203-282-58-151-51-159-85 104-11 91-23 173-26 183-8 26-43 21-50-8z"/><path d="m10284 4033c-42-47-99-134-126-193-65-141-120-305-116-344 4-42 35-48 43-9 27 121 126 355 191 450 35 50 54 88 51 97-8 21-23 20-43-1z"/><path d="m7022 4023c-43-21-55-44-44-85 9-35 40-58 80-58 32 0 30 38-3 46-48 12-24 64 29 64 24 0 44-14 94-62l63-63 97-3c110-3 207 15 207 38 0 12-11 14-50 12-27-1-90-3-138-5l-88-2-56 58c-77 80-122 94-191 60z"/><path d="m8283 3973c-44-70-125-174-142-183-38-20-53-41-40-56 15-19 20-18 64 12 30 20 36 22 29 7-4-10-10-44-12-75-3-53-2-58 16-58 21 0 32 18 32 53 0 26 23 87 79 212 29 65 37 93 29 102-17 20-36 15-55-14z"/><path d="m8758 3975c-3-3-31-12-64-21-90-23-104-41-104-136 0-118 16-135 95-102 47 19 59 11 14-11-19-8-45-22-59-30-36-21-70-19-70 4 0 28-26 47-45 31-17-14-19-43-5-71 18-32 107-26 178 12 77 41 104 67 100 99-3 23-7 25-48 25-25 0-57-4-72-8-28-7-28-7-28 57 0 51 3 65 18 71 34 14 168 45 195 45 32 0 67 16 67 30 0 10-162 14-172 5z"/><path d="m9041 3947c-13-17-51-132-51-157 0-52 45-66 107-35 71 36 67 76-5 51-39-14-42-14-42 2 0 22 29 103 42 119 5 7 7 17 3 23-9 14-40 13-54-3z"/><path d="m9782 3928c-7-7-12-21-12-32 0-22-69-120-109-153-38-33-51-29-51 16 0 46-22 70-45 51-18-15-20-101-3-118 7-7 34-12 61-12 45 0 51 3 96 50 47 49 48 50 66 30 22-24 72-26 102-5 25 17 27 15 42-42 9-33 18-44 37-49 37-9 52 10 29 36-15 16-20 41-23 110-3 60-9 93-18 101-20 16-44-6-44-40 0-17-11-38-28-54-43-42-52-35-52 36 0 56-11 87-30 87-3 0-11-5-18-12z"/><path d="m1644 3909c-13-22 16-27 184-31 171-3 190 0 160 30-16 16-334 17-344 1z"/><path d="m9180 3868c-11-24-20-51-20-60 0-10-9-41-19-70-40-110-38-168 5-168 22 0 24 4 24 46 0 26 8 72 19 103 60 181 61 191 31 191-15 0-27-13-40-42z"/><path d="m4576 3813c-4-4-278-10-609-13-526-4-602-7-602-20s57-15 440-18c242-2 616 2 830 8 352 9 425 9 755-10 465-26 442-26 438 3-3 21-8 22-148 29-80 3-235 11-345 17-228 12-748 15-759 4z"/><path d="m1877 3783c-106-3-118-6-115-21s19-17 118-20c117-3 190 9 211 34 10 12 2 14-42 12-30-1-107-4-172-5z"/><path d="m8376 3768c-2-7-9-33-16-58-6-25-23-69-36-98-27-56-28-97-5-97 29 0 105 180 99 233-3 28-35 44-42 20z"/><path d="m7084 3726c-41-18-64-70-41-93 19-19 47-10 47 15 0 30 22 42 91 48 50 5 80 2 133-15 56-17 92-21 210-20 160 1 221 13 245 48 15 24 15 24-14 17-138-31-339-32-420-2-51 19-209 20-251 2z"/><path d="m10454 3710c-24-9-78-69-97-108-20-39-28-116-16-152 16-44 58-62 159-68 77-4 96-1 200 32 63 20 131 46 150 58l35 23-30 3c-17 2-83-13-148-33-126-38-238-47-287-22-47 23-39 109 16 181 41 54 78 62 94 21 14-37 50-34 50 4 0 53-66 85-126 61z"/><path d="m4895 3637c-31-23-9-38 46-31 44 6 49 5 49-13 0-11-20-42-45-69-46-50-57-87-29-98 59-23 220 21 176 47-4 3-31 1-60-5-72-13-82-7-45 26 65 58 76 135 21 149-39 11-93 8-113-6z"/><path d="m4627 3561c-19-21-37-47-40-57-21-76-30-141-31-225-1-95 0-98 28-128 19-20 40-31 57-31 47 0 197 116 176 136-7 7-79-26-126-59-51-35-74-29-79 21-3 26 4 37 33 63 54 48 88 128 93 223 5 85-1 96-49 96-18 0-38-12-62-39zm63-63c-11-97-80-227-80-150 0 15 4 43 9 62s12 47 15 61c6 27 42 79 55 79 4 0 4-24 1-52z"/><path d="m5199 3378c-23-46-62-137-87-203-24-66-57-155-73-197-15-42-39-99-53-126-33-65-68-171-61-183 18-28 59 7 70 59 4 18 22 66 40 106 34 72 69 161 130 331 18 50 52 129 75 176 25 51 41 93 37 103-14 35-38 14-78-66z"/><path d="m4122 3347c-6-7-12-39-14-72l-3-59-92-29c-74-24-93-33-93-48 0-26 30-25 118 5l72 25v-72c0-75 16-117 46-117 11 0 14 20 14 103v103l38 10c22 5 37 15 37 24 0 10-12 16-37 18-38 3-38 3-38 51 0 60-23 88-48 58z"/><path d="m3605 3330c-12-20 7-30 58-30 43-1 55-5 70-25 17-24 17-26-2-62-24-48-125-160-151-168-11-4-20-15-20-26 0-16 7-19 43-19 54 0 200 26 227 40 44 23 17 41-45 29-22-5-56-8-74-9h-35l31 33c45 46 93 127 93 155 0 13-12 39-26 58-26 33-29 34-95 34-37 0-71-4-74-10z"/><path d="m5585 3210c-11-19 6-30 46-30 60 0 54-34-16-96-56-50-70-86-39-98 9-3 45-6 80-6 52 0 76 6 124 30 32 16 61 34 65 40 10 16-37 12-100-10-32-11-72-20-89-20h-31l48 46c52 51 64 79 50 121-9 26-14 28-70 31-35 2-64-2-68-8z"/><path d="m5203 3088c-6-7-17-61-24-120-12-101-12-109 6-128 26-29 61-25 116 15 45 32 49 33 49 14 0-12-25-46-61-81-82-83-92-99-90-159 1-61 11-81 55-108 40-25 67-26 112-5 59 28 68 58 55 188-14 143-14 205 1 259 15 58 5 99-25 95-14-2-23-11-25-27-5-33-74-122-111-144l-31-18v50c0 28 5 71 12 96 9 32 9 51 2 62-14 23-29 26-41 11zm166-427c1-69-2-86-16-97-48-36-103 0-103 67 0 35 8 49 52 101 50 57 53 59 59 37 4-13 7-62 8-108z"/><path d="m3283 1868c-59-64-92-137-102-231-6-48-8-94-5-102 5-12 0-14-24-9-32 7-46-5-36-30 4-10 18-16 42-16 28 0 41-7 67-37 30-35 36-37 104-41 57-3 82 0 126 18 61 25 84 45 68 61-8 8-33 3-83-15-86-31-139-27-176 13l-24 26 44 45c65 67 124 172 135 238 8 53 7 57-19 84-39 39-77 37-117-4zm81-68c-1-49-51-145-106-204l-30-31 6 69c5 67 40 149 84 199 27 31 47 17 46-33z"/><path d="m1465 1573c-9-20-23-66-32-102s-26-95-39-131c-12-36-31-94-42-130-18-60-20-63-26-35-3 17-11 49-16 73-6 23-10 59-10 78 0 20-5 65-12 100-9 53-15 64-31 64-18 0-19-5-13-107 7-104 14-151 40-257 22-88 66-88 97 0 56 158 124 386 136 452 4 28 2 32-16 32-14 0-25-11-36-37z"/><path d="m3840 1585c-9-10-10-34-6-77 4-35 11-128 16-208 15-237 21-260 65-260 27 0 63 39 120 128 22 35 63 98 91 140 27 42 63 100 78 127 15 28 40 60 53 72 27 22 26 53 0 53-23 0-66-39-86-78-11-21-49-82-85-137s-87-133-113-174l-48-74-6 44c-4 24-13 132-19 239-14 213-24 248-60 205z"/><path d="m7793 1568c-5-7-15-32-21-54-7-25-31-62-60-93-39-41-54-51-80-51-39 0-47 15-33 66 9 31 8 42-4 53-20 20-42 0-55-50-7-24-25-50-52-74-50-42-80-52-115-36-22 10-24 15-18 51 6 38 5 40-19 40-37 0-51-32-37-81 14-48 34-59 105-59 46 0 61 5 99 34s46 32 62 20c39-28 114-15 161 28 22 19 22 19 33-12 8-24 15-31 33-28 20 3 22 8 19 60-1 33 5 79 15 111 9 30 14 62 11 71-8 19-31 21-44 4z"/><path d="m6734 1490c-71-29-151-191-155-318-2-46 1-54 26-74 41-33 53-37 126-37 54-1 71 3 99 24 44 32 50 43 50 85-1 62-39 90-124 90-47 0-57-4-75-26-36-46-23-94 26-94 25 0 29 10 12 27-8 8-8 17 1 32 9 18 17 21 48 15 67-12 81-43 37-84-22-21-35-24-82-22-75 3-97 22-90 77 13 109 74 235 128 262 22 12 24 11 27-17 4-38 26-57 47-40 19 16 19 60-1 88-16 23-59 29-100 12z"/><path d="m5493 1449c-23-7-33-16-33-29 0-23 0-23 89-8 75 13 101 4 101-32 0-27-54-94-122-151-69-57-88-90-67-116 21-24 179-14 238 16 31 16 40 26 32 34-7 7-32 6-88-6-43-9-92-17-108-17-29 0-26 4 51 75 112 103 138 162 93 219-19 24-26 26-87 25-37 0-82-5-99-10z"/><path d="m8129 1426c-59-21-92-53-193-189-86-115-183-288-210-375-14-43 36-71 65-36 10 12 10 17 0 23-23 15 86 223 187 357 105 140 137 170 198 185 32 8 44 16 44 30 0 23-36 25-91 5z"/><path d="m4559 1391c-16-16-29-36-29-44 0-27 35-58 73-64 33-5 37-3 37 16 0 14-8 23-25 27-14 3-25 12-25 20 0 38 104 45 195 14 70-24 191-27 220-6 19 13 18 15-15 20-19 3-60 7-91 10s-75 13-99 21c-25 9-77 15-127 15-80 0-86-2-114-29z"/><path d="m6252 1385c-41-18-79-97-95-195-13-88 1-110 72-110 77 0 116 16 155 64 45 55 56 84 56 147 0 41-5 54-25 73-40 37-106 46-163 21zm131-55c37-52-27-179-101-200-65-18-72-15-72 33 0 37 25 120 51 169 14 27 103 25 122-2z"/><path d="m2215 1381c-89-5-110-9-110-21 0-21 211-27 239-7 19 14 14 39-7 35-7-1-61-4-122-7z"/><path d="m3287 1293c-4-3-82-9-174-12-140-5-168-8-168-21 0-22 133-25 382-9 203 12 242 20 213 39-17 11-243 14-253 3z"/><path d="m4681 1246c-45-25-66-91-36-116 20-16 45 3 45 35 0 27 17 43 56 51 24 5 40-2 84-35 50-37 60-41 115-41 42 0 70 6 93 20 17 11 32 22 32 25s-35 3-77-1c-78-6-78-6-132 35-46 36-59 41-105 41-28-1-62-7-75-14z"/><path d="m2208 1223c-100-3-108-5-108-23 0-19 7-20 108-20 81 0 113 4 130 16 28 20 28 35 0 32-13-1-71-4-130-5z"/><path d="m5836 1191c-7-11-26-123-29-166-2-24 2-30 17-30 14 0 23 11 31 40 17 55 32 140 27 154-4 13-38 15-46 2z"/><path d="m3142 1148c-8-8-12-47-12-107 0-106 17-151 65-173 34-15 97 4 130 40l25 27v-25c-1-19-16-35-69-72-72-49-153-135-170-182-30-78 12-136 99-136 62 0 93 12 148 57 64 52 75 85 67 202l-7 96 82 45c75 41 169 124 156 137-3 3-32-10-63-29-32-19-88-51-124-71l-67-37-6 36c-5 23-1 53 9 85 20 59 15 79-19 79-31 0-42-19-51-92-6-49-13-63-41-88-36-31-72-38-92-18-8 8-12 48-12 113 0 93-8 125-30 125-3 0-11-5-18-12zm228-399c0-90 0-91-32-121-51-48-71-58-117-60-82-3-89 45-19 133 27 34 151 139 164 139 2 0 4-41 4-91z"/><path d="m8020 1070c-58-56-80-101-80-160 0-37 3-42 35-56 48-20 87-18 179 11 45 13 92 27 106 30 40 8 96 45 81 55-14 8-147-19-220-45-56-19-120-20-127 0-11 27 17 84 63 130 26 25 50 45 55 45s13-11 18-24 14-27 20-31c16-10 40 14 40 41 0 35-26 54-75 54-39 0-49-5-95-50z"/><path d="m1495 1066c-26-19-13-51 18-41 12 4 51 9 87 11l65 5-37-23c-49-30-64-63-39-84 18-15 17-17-5-41-26-28-32-81-12-101 33-33 198 10 212 56 15 46-23 83-98 98-20 3-38 9-40 13-3 4 13 18 34 31 46 28 50 37 39 68-8 21-14 22-107 22-67 0-104-4-117-14zm218-178c9-5 17-13 17-18 0-12-47-36-87-43-36-7-38-3-27 52 6 30 8 31 43 25 20-4 44-11 54-16z"/></g><g fill="#44b" transform="matrix(.08161748 0 0 -.08161748 1493.10532151453 1594.13837985665)"><path d="m750 2973c-57-10-88-25-119-57-40-41-55-100-46-179 6-45 12-61 32-77 32-25 35-25 64-1 22 17 24 26 21 89-4 105 24 120 164 87 33-7 119-19 190-25 88-8 134-16 144-26 32-32 8-420-28-456-18-18-126-28-289-28-185 0-206-4-250-52-55-58-58-82-55-363 1-145 7-274 13-293 11-34 51-62 89-62 12 0 35 14 52 31l31 30-6 238c-3 130-3 249 0 264l5 27h112c234 1 363 26 423 82 58 54 98 260 91 463-4 122-7 138-34 191-40 81-79 100-217 108-174 10-361 14-387 9z"/><path d="m3660 2971c-42-9-83-34-103-65-39-59-50-127-54-343-5-206-5-212 18-252 28-50 78-86 143-102 48-12 257-8 370 7l49 7-7-104c-4-57-11-189-16-294-9-177-9-192 8-214 35-47 100-46 136 2 22 29 27 86 42 452 7 191 0 235-44 283-45 48-92 56-241 38-146-18-229-20-265-6l-26 10v162c0 156 8 230 27 249 5 5 99 6 210 2l201-6 5-50c3-39 11-56 31-74 34-29 48-29 80 0 24 20 26 30 28 113 4 147-23 169-218 179-242 11-340 13-374 6z"/><path d="m1565 2945c-14-13-25-32-25-42s-1-297-3-638c-2-677-3-662 55-694 33-19 73-7 101 31 18 24 20 51 29 300 5 150 10 278 12 283 2 6 37 8 97 3 52-3 135-7 186-7 154-2 161-10 143-176-21-189-27-310-18-343 12-45 45-72 86-72 71 0 102 46 102 151 0 33 7 118 16 187 24 190 9 280-58 349-50 52-112 67-263 65-71-1-164-6-205-11-41-4-78-7-81-5-4 2-10 108-13 236-9 286-17 352-47 384-31 33-82 32-114-1z"/><path d="m2542 2944c-55-38-64-109-53-419 6-186 9-215 28-250 50-95 116-125 302-135 75-4 171-5 215-1l78 7-4-178c-2-97-7-181-11-184-4-4-42 1-85 11-104 26-285 27-363 3-106-33-149-107-99-170 26-34 68-41 132-21 74 23 202 20 308-7 182-47 274 5 301 168 12 77 27 831 19 994-7 152-20 181-86 186-88 7-103-51-104-401v-219l-201 4c-197 3-201 3-220 27-18 21-19 42-19 283v260l-29 29c-33 33-74 38-109 13z"/><path d="m2374 1391c-55-34-79-78-79-147 0-51 4-66 27-96 35-45 102-73 153-64 78 15 146 111 131 188-20 108-145 172-232 119z"/><path d="m1853 999c-39-11-66-56-61-101 6-59 69-64 76-6 4 30 34 38 145 38h67v-110c0-135-1-136-132-126-85 6-89 6-113-18-24-25-25-28-25-179 0-162 4-177 47-177 35 0 43 29 43 159v121h73c85 0 141 14 168 41 17 17 19 34 19 169 0 147-1 152-25 175-23 24-30 25-137 24-62 0-128-5-145-10z"/><path d="m2985 1000c-91-16-93-18-104-58-15-51-14-537 0-564 19-36 69-48 204-48 121 0 127 1 151 25l24 24-2 292-3 292-26 19c-31 23-161 33-244 18zm169-86c14-5 16-37 16-250v-245l-102 3-103 3v240 240l40 6c57 9 131 10 149 3z"/><path d="m2351 971c-24-24-29-73-37-372-6-232-6-237 15-258 23-23 29-25 51-11 12 7 16 40 20 150l5 141 35-23c19-13 59-55 88-93 30-39 78-96 108-128 47-51 56-57 74-47 29 16 25 42-15 92-19 24-62 78-95 121-61 77-61 77-33 77 15 0 46 9 69 19 56 26 67 57 62 179-6 156-27 172-220 172-93 0-111-3-127-19zm257-74c16-13 17-168 0-185-7-7-41-12-84-12-40 0-84-4-98-10l-26-10v120 119l98-6c53-3 103-10 110-16z"/></g></svg>