<svg height="1130.5pt" preserveAspectRatio="xMidYMid meet" viewBox="0 0 1717.258112 1130.5" width="1717.258112pt" xmlns="http://www.w3.org/2000/svg"><g transform="matrix(.1 0 0 -.1 -43.358183 1156)"><path d="m945 11534c-22-35-44-95-64-179l-17-70-104-5c-84-4-105-8-105-20s19-16 98-18l97-3-6-42c-4-23-13-54-21-69-13-26-18-28-78-28-58 0-65-2-65-20s7-20 61-20c59 0 61-1 54-22-17-55-17-85 1-92 20-8 41 10 47 39 18 87 16 85 62 85 24 0 50 3 59 6 14 5 16-3 16-55 0-53 2-61 19-61 21 0 31 18 31 58 0 55 10 69 49 75 45 6 111 35 111 49 0 6-26 7-70 3l-71-7 6 26c3 14 7 37 10 51 5 22 10 24 68 27 47 2 62 7 62 18s-14 16-57 18c-32 2-58 5-58 8 0 17 64 151 93 194 36 54 39 80 7 80-31 0-150-207-150-261 0-16-8-19-56-19-45 0-55 3-51 14 3 8 9 32 12 53 9 48 41 139 60 165 7 11 11 27 8 34-8 22-39 16-58-12zm59-341c-8-58-24-73-79-73h-41l12 58c7 31 13 58 13 60 1 1 23 2 51 2h50z"/><path d="m4481 11536c-38-41-131-345-131-430 0-14-5-45-12-69-14-53-5-97 21-97s51 32 51 66c0 44 46 206 62 215 15 10 11 10 218 18 128 5 155 9 155 21 0 13-27 15-182 15h-182l5 25c21 92 34 131 48 146 16 15 16 18-1 36-28 31-2 38 146 38h133l-6-25c-6-22-3-25 18-25 36 0 52 34 31 66-15 24-17 24-183 24-165 0-169-1-191-24z"/><path d="m3803 11491c-83-60-107-227-73-511 64-527 95-1130 71-1361-23-213-58-376-101-467-22-46-49-95-60-109s-20-35-20-46c0-16 5-18 28-13 15 3 50 9 77 12 67 8 93-13 145-119 43-87 42-84 82-427 18-157 18-836-1-976-7-56-14-189-14-295l-2-194 30-54c38-68 74-96 125-96 58 0 72 21 24 34-52 15-80 40-104 93-17 36-20 66-20 190 0 81 8 227 17 325 26 261 22 769-6 1028-12 105-26 217-31 250-11 69-76 208-119 254-26 28-35 31-85 31-31 0-56 2-56 5s17 40 39 83c50 100 88 281 111 532 17 192-22 943-65 1230-8 58-18 173-22 256-6 153 1 206 38 280 14 28 61 54 98 54 24 0 31 4 31 20 0 17-7 20-48 20-38 0-58-6-89-29z"/><path d="m6260 11501c-36-9-75-22-87-29-41-22-57-78-29-101 12-10 11-22-5-79-11-37-24-75-29-84-6-10-10-28-10-41s-14-62-30-108c-37-100-36-134 0-134 22 0 26 6 31 40 3 22 15 65 26 95l19 55 105 6c177 11 274 51 340 142 28 38 30 48 27 101-4 52-8 63-37 87-79 66-194 84-321 50zm230-54c62-28 75-44 75-91 0-73-70-139-180-169-60-16-215-32-215-21 0 3 21 14 47 26 39 17 44 22 29 30-10 5-28 7-42 4-16-4-24-2-24 7 0 24 31 121 47 145 8 13 12 34 9 47-5 20-1 23 32 30 121 24 153 23 222-8z"/><path d="m8200 11490c-14-4-78-8-142-9-118-1-118-1-123-28-3-16-10-44-15-64-6-20-10-50-10-66s-9-72-20-123c-24-114-26-212-5-230 25-21 45 5 45 60 0 100 2 102 98 132 48 15 117 30 155 34 56 6 67 10 67 25 0 17-8 19-62 19-64 0-183-25-206-43-21-17-22-5-9 81 8 45 11 86 7 92s-5 24-2 40l4 30h97c53 0 144 5 204 12 88 9 112 9 132-2 33-18 52-2 36 29-11 19-20 21-119 20-59-1-118-5-132-9z"/><path d="m2768 11425c-11-20-39-49-62-65-84-60-170-146-163-163 11-28 29-20 96 44 57 55 63 58 56 33-11-42-21-136-17-161 2-14 10-23 22-23 21 0 30 19 30 63 0 73 45 191 92 241 10 11 18 30 18 43 0 18-6 23-25 23s-31-10-47-35z"/><path d="m1456 11363c-36-45-54-82-81-165-19-59-35-120-36-135 0-16-4-37-8-48-11-26-3-45 18-45 17 0 33 34 46 100 21 101 67 218 105 264 44 53 52 86 21 86-12 0-38-23-65-57z"/><path d="m2137 11380c-34-27-57-70-57-108 0-53 66-92 157-92 24 0 43-2 43-5 0-17-37-73-73-112-71-77-126-93-163-46-19 24-24 26-38 14-22-19-20-28 13-62 37-36 88-39 148-6 47 25 123 109 154 170 12 22 35 53 52 69 31 28 32 29 10 34-20 6-23 13-23 55 0 36-6 55-23 75-21 24-32 27-98 31-65 5-77 3-102-17zm113-30c39 0 60-24 60-68 0-57-6-61-83-53-85 9-106 26-87 71 15 35 49 63 68 55 8-3 26-5 42-5z"/><path d="m7336 11388c-2-7-11-37-20-67-9-29-16-72-16-95v-42l-78-12c-42-7-92-12-110-12-26 0-32-4-32-22 0-21 2-21 105-15l105 7v-49c0-59 14-101 34-101 16 0 26 43 26 111 0 56-6 53 130 66 65 6 85 11 85 23s-19 15-108 15c-119 0-117-2-97 75 23 90 26 106 23 118-3 6-13 12-24 12s-21-6-23-12z"/><path d="m1753 11370c-23-5-55-15-70-24-38-19-101-89-107-118-10-49-16-75-30-138-13-58-13-67 0-88 27-41 104-55 175-30 51 17 142 82 183 129 60 70 77 187 34 226-44 38-119 56-185 43zm116-60 44-20-6-53c-9-68-46-120-127-177-60-41-70-45-125-45-60 0-60 0-63 31-2 17 6 54 17 83 10 28 17 60 14 70-3 14 9 33 40 65 67 66 130 80 206 46z"/><path d="m5290 11245c-19-23-4-49 23-39 12 5 120 9 240 9 145 0 217 3 217 10 0 31-26 35-246 35-184 0-224-3-234-15z"/><path d="m5609 11135c-4-3-49-10-101-15-112-11-128-16-128-42 0-18 5-19 68-13 37 4 92 10 122 15s89 12 131 15c78 7 110 18 95 32-9 10-178 17-187 8z"/><path d="m9096 11101c-9-10-19-40-22-67-7-63 9-85 67-93l44-6-55-18c-63-21-157-32-193-23l-25 6 34 34c42 42 45 79 7 118-23 24-34 28-83 28-50 0-61-4-97-35-53-45-89-116-73-144 9-19 8-21-14-21-49 0-56 9-57 69-2 98-7 106-67 106-43-1-57-6-82-30-28-26-30-27-30-8 0 11-7 26-15 33-23 19-41-3-48-58-3-26-17-80-30-120-19-59-21-74-10-83 21-18 40-4 67 51 38 76 114 170 137 170 17 0 19-7 19-69 0-61 3-72 22-85 31-22 138-20 212 3 56 17 59 17 94-1 67-34 185-17 303 42 48 25 64 29 75 19 34-28 16-47-68-75-151-49-208-89-208-146 0-72 69-118 175-118 129 0 174 47 175 185v70l55 24c88 38 103 74 22 54-23-6-52-14-64-18-18-6-23-3-23 12 0 11-6 28-14 38-10 14-12 35-9 71 5 51 5 52-33 78-32 22-50 26-105 26-52 0-70-4-83-19zm156-45c13-7 18-21 16-41-3-34-24-41-95-30-41 6-43 8-43 39 0 45 17 58 65 50 21-3 47-12 57-18zm-357-22c14-6 13-8-7-18-13-6-24-21-26-33s-9-26-15-31c-17-14-87-35-94-29-10 11 37 75 70 96 34 22 46 25 72 15zm395-284c0-61-3-74-23-94-35-35-115-43-166-16-86 43-53 95 93 149 45 17 84 30 89 30 4 1 7-31 7-69z"/><path d="m6432 10949c-45-13-41-45 6-43 29 2 31 0 20-19-10-20-14-34-39-132-14-55-5-85 26-85 23 0 25 4 25 42 0 47 12 90 46 166 33 73 32 82-13 81-21 0-53-5-71-10z"/><path d="m13376 10868c-18-82-23-1816-9-2664 8-434 9-463 27-483 11-12 24-21 31-21 17 0 65-24 65-32 0-5 16-8 35-8 28 0 36 5 40 23 3 12 4 722 3 1578-3 1515-4 1557-22 1578-11 12-29 21-41 21-13 0-39 7-58 15-50 21-66 19-71-7zm127-58c7-6 11-3080 3-3087-3-3-54 16-66 25-17 13-28 1943-15 2699l6 382 32-6c18-3 36-9 40-13z"/><path d="m15201 10831c-43-40-52-54-49-77 5-43 33-42 88 5l49 41 6-117c3-65 8-304 11-530 5-389 2-440-21-403-9 15-65 12-71-3-2-7 8-38 24-68 25-49 31-54 64-57 32-3 43 3 82 42 43 42 58 78 37 91-5 3-12 1-16-5-3-5-14-14-23-19-16-8-17 16-17 362 0 205-4 433-9 507l-9 135 40-37c21-21 44-38 51-38 21 0 13 45-11 68-13 12-39 51-57 87-33 64-34 65-75 65-35 0-48-7-94-49z"/><path d="m1980 10824c-102-7-225-18-275-25-55-7-291-15-605-18-448-5-515-8-515-21 0-23 904-28 1125-6 85 9 220 20 300 26 186 12 780 25 807 16 20-6 20-7 1-44-10-21-24-65-30-98-7-32-15-61-19-64-12-10-18-107-8-146 11-46 22-127 46-324 15-119 18-223 17-585 0-268-5-479-12-540-7-55-15-292-19-526l-6-426-216-7c-119-4-286-11-371-17-85-5-440-12-787-15-599-6-633-7-633-24 0-28 28-46 51-32 14 9 163 12 571 13 304 0 636 4 738 9 441 20 647 31 677 35l32 6v387c1 213 6 446 11 517 28 396 32 523 26 775-8 292-38 624-67 733-7 25-6 49 1 75 5 20 10 53 10 72 0 47 32 156 60 203 41 69 53 67-357 66-202-1-451-7-553-15z"/><path d="m4685 10489c-101-25-119-32-155-65-21-20-43-50-49-67-5-18-12-99-16-181-3-82-10-169-15-195-6-25-11-89-12-141-3-95-3-95 22-95 21 0 26 6 32 40 4 22 7 74 7 116 1 42 4 79 7 82 4 3 16 0 28-8 53-38 184-1 269 75 163 146 215 282 140 370-53 63-163 93-258 69zm166-65c69-35 88-77 63-143-20-56-43-87-120-167-79-82-169-121-228-98-20 8-21 44-1 44 21 0 19 28-4 35-10 3-26 2-36-2-15-5-17-3-10 13 4 10 10 69 13 129 6 149 24 174 142 200 88 20 126 17 181-11z"/><path d="m15800 10425c0-8 20-46 45-85s45-75 45-80c0-20-65-126-112-183-42-51-60-87-43-87 37 0 125 90 164 168 12 23 23 42 26 42 2 0 16-20 31-45 25-44 53-61 90-53 28 5 28 27 0 38-27 10-86 102-86 135 0 11 14 47 30 80 35 70 37 85 12 85-24 0-47-26-68-75l-16-39-22 37c-32 53-56 77-78 77-10 0-18-7-18-15z"/><path d="m1397 10345c-51-18-85-50-109-103-17-37-18-50-9-95 8-36 8-70 1-112-6-33-14-76-17-95s-10-40-14-46c-5-6-11-61-14-121-6-116 2-141 39-127 19 7 19 9 20 99 1 70 1 70 31 73 65 6 195 44 251 74 122 64 184 153 184 263 0 88-26 136-92 174-48 28-61 31-143 30-50 0-107-6-128-14zm224-45c43-23 75-67 85-117 8-44-20-131-57-176-36-43-137-98-223-120-52-14-60-14-86 1-18 10-28 23-25 32 2 8 9 44 15 80 5 36 16 85 24 110 15 50 12 70-11 70-11 0-14 7-9 26 16 62 58 93 141 104 86 12 105 11 146-10z"/><path d="m9667 10149c-54-35-96-100-108-165-10-54-4-71 32-89 43-23 106-19 154 10l42 24 7-67c3-37 9-78 12-92 5-24 2-26-63-43-187-48-283-110-283-182 0-32 7-45 45-81 24-24 59-51 77-60 43-22 168-31 207-14 46 19 73 99 77 225l3 100 87 22c51 13 96 31 108 42 38 38 16 38-150-3l-52-13-6 45c-3 25-6 105-6 179 0 135 0 135-29 164-41 40-91 40-154-2zm121-68c4-58-12-94-57-125-43-30-108-36-118-10-8 22 13 86 39 119 29 38 78 66 108 63 22-3 25-8 28-47zm20-483c-3-51-12-109-21-129-13-31-20-37-56-42-57-7-107 8-163 51-57 43-62 55-43 91 16 32 72 62 180 97 112 37 109 40 103-68z"/><path d="m8154 10121c-74-45-113-202-125-496-8-205-13-247-37-284l-16-23-18 22c-12 15-18 39-18 76 0 51-13 75-30 58-5-5-10-40-12-78-2-64-1-70 25-92 36-31 77-31 107 1 34 36 60 173 60 318v117h53c72 0 211 51 255 93 49 46 72 102 63 152-13 67-38 114-73 135-46 28-189 29-234 1zm206-48c40-37 59-108 40-152-28-70-175-140-263-127-41 6-44 9-40 34 27 186 60 255 128 265 79 11 104 7 135-20z"/><path d="m8617 10114c-26-27 9-122 87-232l37-53-23-32c-12-18-42-58-66-89-44-56-47-78-13-78 20 0 55 36 100 103 18 26 36 47 40 47 5 0 26-14 47-31 49-39 87-59 114-59 29 0 25 26-7 47-16 9-48 33-73 52-25 20-46 36-47 36-5 1 40 117 66 170 31 65 30 88-3 83-22-3-63-74-87-150-7-21-16-38-20-38-6 0-53 66-85 120-4 8-11 35-14 60-4 36-9 46-25 48-12 2-24 0-28-4z"/><path d="m6904 10052c-95-69-152-193-108-236 19-20 79-21 133-1l41 14v-117-118l-37-14c-58-20-215-99-240-119-104-86-97-235 13-271 46-15 219-8 257 10 57 28 67 62 67 224v147l30 17c46 26 48 46 5 39l-35-6v123c0 95 3 126 14 136 13 10 17 38 18 140 0 61-92 80-158 32zm104-57c4-45-23-102-58-120-16-8-51-18-76-22-45-6-46-6-39 18 4 13 18 40 30 61 61 94 137 128 143 63zm-38-588c0-163-1-165-119-178-133-15-193 21-177 107 11 57 52 93 171 151 60 29 113 53 118 53 4 0 7-60 7-133z"/><path d="m6150 10038c-5-13-16-59-25-103-8-44-20-103-26-132-14-63-7-86 23-81 15 2 24 12 29 33 14 58 34 101 72 153 45 60 72 82 104 82 21 0 23-4 23-61 0-46-5-68-21-90-27-38-19-82 13-77 15 2 30 20 49 58 30 61 101 126 158 146l36 12 2-126c2-70 5-137 8-149 6-27 40-31 49-7 8 20 6 250-3 289-6 28-10 30-53 33-48 3-95-15-148-57l-25-20-10 47c-10 47-10 47-57 50-52 3-97-15-134-55l-24-26v24c0 13 4 30 9 38s7 20 4 28c-8 21-43 15-53-9z"/><path d="m5304 9949c-3-6-2-14 2-19 5-4 102-10 217-12 160-3 207-1 207 9 0 7-9 17-19 23-27 14-398 14-407-1z"/><path d="m7380 9900c0-19 6-20 196-20 181 0 195 1 192 18-3 15-22 17-196 20-187 2-192 2-192-18z"/><path d="m9185 9880c-9-29 2-40 40-40 34 0 49 17 39 45-9 24-71 20-79-5z"/><path d="m5415 9810c-16-4-49-8-72-9-36-1-43-4-43-21 0-24 6-25 220-8 151 11 196 22 168 39-16 11-232 9-273-1z"/><path d="m7690 9799c-36-4-102-11-147-15-74-6-83-9-83-27 0-19 4-20 128-14 127 7 212 25 242 53 12 12 8 14-30 12-25 0-74-5-110-9z"/><path d="m4839 9742c-24-21-52-42-62-45-26-10-16-31 16-35s32 1 8-81c-37-128-36-177 5-169 15 2 20 15 25 53 7 67 46 190 75 242 44 77 5 98-67 35z"/><path d="m1563 9697c-47-46-56-77-23-77 11 0 20-2 20-4 0-17-34-131-46-153-7-16-14-45-14-66 0-33 3-38 21-35 23 3 42 49 83 198 13 47 29 99 36 116 16 36 8 64-17 64-10-1-37-20-60-43z"/><path d="m14955 9518c-9-117 2-843 15-963 6-55 15-237 19-405 12-411 24-489 70-433 12 14 22 18 28 12 14-14 948-5 1038 10 39 6 107 14 153 17 72 5 82 8 82 25 0 10-4 19-8 19-5 0-18 22-29 48-12 26-28 54-36 61-18 14-275 9-502-9-71-6-203-13-291-16-151-5-162-4-160 13 1 15-8 19-51 21l-52 3-5 122c-10 215-28 446-56 712-6 55-14 260-18 456-6 314-9 357-24 372-12 13-35 17-91 17h-75zm137-303c8-391 15-522 28-550 5-11 12-65 15-120 2-55 9-165 15-245s13-197 15-260c6-137 11-160 30-160 9 0 23-4 33-9 60-31 71-32 262-27 107 3 256 10 330 16s200 13 280 16l145 5 16-38 17-38-57-7c-31-4-90-13-131-19-109-17-958-23-977-8-11 9-17 9-26 0-22-22-36 94-36 315-1 124-9 300-21 430-15 167-20 318-22 632l-3 413 40-3 40-3z"/><path d="m1800 9323c-91-8-363-17-605-21-381-6-440-9-440-22s59-15 470-15c314 0 517 5 611 13 78 8 275 15 438 15 223 2 296 5 296 14 0 7-17 17-37 22-53 15-532 11-733-6z"/><path d="m6305 9233c-11-2-30-6-42-9-15-3-23-12-23-25 0-20 4-20 75-14l75 7v-29c0-23-12-39-55-77-72-62-92-91-75-111 7-8 28-15 48-15 19 0 63-5 97-11 63-12 135-6 135 11 0 12-29 19-134 35l-81 12 45 41c25 23 48 42 52 42 12 0 28 63 22 89-14 55-56 72-139 54z"/><path d="m6178 9085c-36-20-101-134-124-217-10-38-22-68-26-68s-22 24-42 53c-36 55-56 112-56 164 0 44-9 63-30 63-35 0-39-54-11-146 29-96 117-214 160-214 25 0 30 9 46 78 7 32 18 73 23 92 15 55 65 133 103 158 19 13 34 29 34 35 0 18-46 19-77 2z"/><path d="m7362 9049c-28-20-45-41-49-60-3-16-12-29-19-29-34 0-71-135-47-170 27-39 66-50 174-50 84 0 108 4 138 20 51 29 80 79 87 148 5 52 3 60-24 98-38 53-85 74-159 74-48-1-65-6-101-31zm153-24c101-21 99-189-3-232-27-11-56-14-109-10-117 9-132 28-93 116 11 23 18 47 15 51-3 5 22 27 56 49 43 29 68 39 85 36 13-3 35-7 49-10z"/><path d="m2072 9016c-35-17-56-34-64-53-24-59 1-193 36-193 24 0 28 17 15 74-15 69-6 102 34 126 67 41 173 15 240-59 29-33 37-49 37-80 0-51-25-81-135-161-112-82-134-124-100-190 18-35 71-74 90-66 22 8 19 21-14 58-28 32-35 48-32 75 0 7 50 51 110 99 123 96 144 129 134 205-8 61-76 140-141 164-79 29-149 30-210 1z"/><path d="m6985 8878c-38-5-114-11-167-14-88-5-98-8-98-25s8-19 98-19c170 1 292 24 292 57 0 14-16 15-125 1z"/><path d="m1117 8863c-23-9-39-23-41-37-5-24-19-278-20-376-1-63 0-65 24-65 25 0 25 2 38 125 7 69 17 155 23 191 9 48 9 71 0 87-6 11-11 23-11 25 0 14 106 27 223 27 130 0 135-1 130-20-7-26 17-27 47-2 19 16 21 22 11 40-11 21-16 22-199 21-146 0-195-3-225-16z"/><path d="m4832 8817c-16-23-43-72-60-110-17-37-35-67-41-67-11 0-101 105-139 163-16 24-32 37-47 37-34 0-40-29-13-57 13-12 41-46 63-74 22-29 55-67 74-86l35-33-33-47c-19-27-47-67-64-90-30-42-31-73-3-73 11 0 102 113 135 168 6 9 30 4 102-24 105-41 142-47 146-24 4 18-31 37-135 75-40 15-71 30-70 34 2 3 19 38 38 76 18 39 45 88 60 110s25 46 23 53c-9 25-43 11-71-31z"/><path d="m14475 8654c-7-136-3-281 11-435l6-65-36 4c-30 4-36 1-36-15 0-10 14-38 31-61s34-54 38-69c6-24 13-28 48-31 39-3 43 0 74 43 18 25 55 62 81 81 50 35 60 57 32 68-21 8-56-15-120-79l-51-51-7 95c-5 80-24 542-25 634-1 20-6 27-20 27-17 0-20-12-26-146z"/><path d="m5393 8743c-145-3-153-5-153-23 0-19 7-20 165-20 128 0 174 4 205 16 51 20 43 35-18 32-26-1-116-4-199-5z"/><path d="m7228 8695c-4-5-135-12-290-16-156-5-362-14-458-20s-256-14-355-17c-150-6-180-9-180-22 0-20 209-25 465-11 102 6 309 16 460 21 303 12 596 33 607 43 3 4 3 10-1 15-10 9-239 16-248 7z"/><path d="m14140 8669c0-32 0-32-47-26-27 3-70 13-96 22-52 18-88 17-94-2-8-22 102-59 202-67 118-11 135-16 135-42 0-13 5-24 10-24 19 0 60 48 60 69 0 25-32 56-74 71-17 6-39 16-48 21-34 17-48 11-48-22z"/><path d="m5465 8675c-5-2-36-11-67-20-45-13-58-21-58-36 0-22 32-26 77-8 15 6 81 17 146 24 115 12 138 18 123 33-8 7-204 14-221 7z"/><path d="m1140 8602c0-28 47-42 134-41 96 1 181 20 181 39 0 15-42 18-155 9-25-2-71 0-102 4-54 8-58 7-58-11z"/><path d="m1620 8560c0-19 7-20 109-20 118 0 141 4 141 26 0 11-25 14-125 14-118 0-125-1-125-20z"/><path d="m6450 8510c-8-5-27-10-41-10-32 0-46-27-25-48 11-11 18-12 28-4 8 6 52 16 100 23 95 14 118 7 118-35 0-37-98-108-198-142-36-13-52-24-50-34 5-23 403-23 403 0 0 12-23 16-123 20l-124 5 43 25c54 32 98 76 105 106 4 14-2 39-13 61l-18 38-95 3c-52 1-102-2-110-8z"/><path d="m6933 8501c-69-32-101-124-47-137 29-8 161 0 187 11 13 6 20-1 32-29 8-19 15-37 15-39s-19-9-42-16c-49-14-208-90-252-120-57-39-78-93-55-144 16-36 50-47 147-47 106 0 141 9 198 52 60 46 77 84 72 167l-3 67 78 18c43 9 94 25 115 34l37 17-56 3c-31 2-85-4-119-11l-62-15-15 36c-10 24-12 42-5 56 12 29-4 82-30 101-32 22-142 20-195-4zm163-33c21-22-77-68-144-68-47 0-37 41 16 63 33 14 115 17 128 5zm32-290c-3-72-3-72-51-109-45-33-56-37-134-42-47-4-94-2-103 3-27 14-30 47-8 75 29 37 236 141 286 144 10 1 12-17 10-71z"/><path d="m14151 8492c-18-17-30-43-35-72-7-42-5-47 24-73 30-27 30-27 13-54-23-35-97-109-123-123-45-24-52 21-20 146 32 126 26 184-17 184-58 0-133-98-119-155 5-21 12-26 34-23 22 2 27 8 25 28-2 31 16 80 29 80 11 0 2-98-12-135-4-12-11-47-15-79-6-47-4-60 10-76 20-23 82-27 118-9 32 16 119 109 141 150 11 22 36 45 63 59 45 24 69 53 58 70-4 6-18 4-36-5l-29-16v50c0 40-4 53-22 65-32 23-56 20-87-12zm59-53c0-36-17-72-31-64-21 13-3 95 21 95 6 0 10-14 10-31z"/><path d="m15520 8345c-11-13-9-19 7-38 11-12 29-38 41-58 12-19 30-43 41-53 20-18 20-18-5-55-13-20-35-53-49-73-30-45-31-58-7-58 25 0 44 17 84 76l34 51 34-19c43-23 115-24 124-3 3 9 0 17-7 19-6 2-30 9-52 15s-48 16-58 23c-16 12-16 15 4 53 28 52 39 89 29 105-14 22-42 5-55-34-25-71-47-70-86 5-16 32-44 59-62 59-3 0-10-7-17-15z"/><path d="m2180 8260c0-19 5-21 48-18 34 2 47 7 47 18s-13 16-47 18c-43 3-48 1-48-18z"/><path d="m4910 7890c-14-4-80-8-147-9-119-1-123-2-127-23-7-30-13-89-26-227-5-63-14-119-20-125-5-5-10-31-10-56 0-26-7-70-15-98-17-57-14-72 15-72 23 0 44 44 55 111 13 86 13 86 150 109 149 24 177 32 167 42-19 19-106 21-186 4-112-23-108-25-100 37 4 28 15 80 24 113 15 51 16 64 5 75-8 8-11 25-8 42 5 27 5 27 127 29 168 3 208 2 234-7 18-6 22-4 22 12 0 34-32 53-86 52-27-1-60-5-74-9z"/><path d="m7413 7781c-3-12-12-21-19-21-8 0-19-11-24-24-5-14-26-49-46-78-21-29-55-88-77-132-32-66-37-83-28-103 11-24 38-30 69-14 33 17 113 31 173 31 35 0 73 7 90 16 29 15 30 14 25-3-3-10-8-30-11-45-9-35-10-35-450-67-70-5-90-9-90-21 0-11 14-16 55-18 52-3 309 12 415 24 46 5 51 4 60-18 13-29 37-30 50-1 10 24-14 21 325 45 143 11 175 16 175 28 0 13-19 15-115 14-63 0-170-4-238-9l-122-8 6 49c13 93 11 91 116 96 108 4 169 30 201 86 17 29 19 42 11 90-13 78-39 96-147 100-72 3-86 1-117-20-47-31-81-102-90-189-4-39-13-76-19-82-8-8-11-7-11 5 0 9-23 50-50 91-40 61-52 87-58 134-6 51-10 58-30 61-17 3-25-2-29-17zm462-35c33-14 35-18 35-63 0-26-6-55-13-64-31-41-181-75-205-47-9 11-7 23 8 53 23 45 25 71 8 78-18 7 29 45 62 50 51 8 71 7 105-7zm-445-73c0-10 22-52 49-93s47-78 45-82c-5-8-52-14-162-23l-73-5 17 32c36 72 107 188 115 188 5 0 9-8 9-17z"/><path d="m12175 7598c-9-36 0-419 11-458l10-35 1534-3c862-1 1579 2 1635 7 55 5 101 8 103 6 1-1 1-177 0-390l-3-388-29 41c-32 46-76 59-76 23 0-11 4-22 9-25s23-31 40-61c30-53 33-55 74-55 38 0 48 5 88 48 25 26 44 53 41 60-5 17-42 15-64-5-17-16-18-3-18 370v387h259 260l5-117c4-65 9-380 12-700l5-583h-25c-35 0-33-20 7-77 19-27 37-56 40-66 5-12 15-17 29-15 17 2 25 14 34 50 11 46 45 103 73 124 18 14 8 44-15 44-9 0-31-16-49-35l-33-34-6 567c-4 312-9 629-12 705l-6 138 419-4c230-3 437-8 459-12 30-5 44-3 50 7 9 13 20 148 30 351 4 76 2 113-7 123-15 18-232 20-290 2-31-9-44-8-63 2-19 9-65 11-203 5-330-14-1791-11-2293 5-504 16-1225 17-1680 3-234-7-275-10-275-23s44-14 350-11c553 7 1037 4 1475-9 640-18 2107-24 2343-9 160 10 200 10 207-1 6-9 29-11 91-6 46 4 131 9 188 12l103 6-6-114c-16-304-16-300-40-294-11 3-209 6-438 6h-418v64c0 77-6 96-30 96s-30-19-30-96v-64h-260-260v62c0 34 5 76 12 94 14 39-1 64-39 64-33 0-41-29-35-132l5-86-79-7c-44-4-769-9-1612-11l-1532-4-10 25c-6 15-10 116-10 225s-3 205-6 214c-9 24-43 20-49-6z"/><path d="m6020 7520c0-20 7-20 279-20 154 0 287 3 295 6 13 5 14 9 5 20s-66 14-295 14c-277 0-284 0-284-20z"/><path d="m6120 7380c0-19 7-20 241-20 231 0 289 6 274 31-4 5-111 9-261 9-247 0-254-1-254-20z"/><path d="m4876 7308c-2-7-7-40-10-73s-12-80-21-105c-9-24-13-50-11-57 9-23 45-14 60 15 8 15 40 52 73 82l58 55 5-66c8-100 6-99 183-98 126 0 156 3 186 19 36 18 37 18 49-1 7-10 31-28 54-40 47-24 122-22 174 4 37 18 94 29 94 18 0-5-21-17-47-25-171-57-223-145-161-268 23-47 63-68 127-68 72 0 96 12 120 62 18 37 21 63 21 156 0 98 2 112 17 112 21 0 103 48 103 60 0 14-31 12-79-5l-41-14v29c0 41-10 60-30 60-13 0-16 6-13 23 7 35-21 57-72 57-35 0-48-5-68-29-28-34-43-106-26-127 9-12 4-14-33-14-64 0-98 28-98 81 0 26-5 42-15 45-8 4-15 17-15 30 0 27-34 54-68 54-29 0-112-77-138-127-25-49-30-53-86-53-74 0-78 3-78 77 0 35-5 73-10 84-17 31-64 24-109-17l-40-35-3 53c-3 46-6 53-26 56-12 2-24-3-26-10zm542-96c26-26 13-55-41-86-53-31-72-33-74-6-2 19 74 110 90 110 4 0 15-8 25-18zm312-51c0-38-11-51-46-51-19 0-18 35 2 65 25 38 44 32 44-14zm26-386c-17-26-68-37-107-23-45 16-73 102-49 149 13 23 81 68 130 85l35 12 3-100c2-76-1-106-12-123z"/><path d="m7851 7267c-6-8-22-39-36-70l-25-57h-95c-88 0-95-2-95-20 0-17 8-20 90-22l90-3-24-45c-31-58-49-125-40-152 5-18 11-19 47-14 23 4 63 20 89 36 27 17 52 30 57 30s16 11 25 25c16 24 16 26 0 32-15 5-93-28-136-59-31-22-31 0 1 65 17 35 31 69 31 75 0 8 23 12 71 12 69 0 109 11 109 30 0 6-35 10-79 10h-80l21 50c11 28 27 50 34 50 8 0 14 9 14 20 0 15-7 20-29 20-16 0-34-6-40-13z"/><path d="m7348 7229c-10-5-18-16-18-23s-8-20-18-30c-11-9-24-34-31-56-6-22-25-69-41-105s-27-72-24-80c10-26 44-18 55 13 13 39 69 52 218 52 131 0 149 7 132 52-9 25-74 88-91 88-5 0-35 23-66 50-57 50-83 59-116 39zm102-94c8-9 30-25 49-35 20-10 44-27 55-38 18-21 18-21-113-24-72-2-131-2-131 0 0 1 4 10 9 20 5 9 21 43 36 75l27 57 27-19c15-11 34-27 41-36z"/><path d="m15026 6464c-53-14-119-55-142-88-19-28-19-162 0-173 11-7 10-30-5-143-26-199-26-201-7-213 24-16 42 3 44 46 3 36 13 127 20 174l5 31 87 4c80 3 91 6 134 37 88 64 111 170 59 277-31 64-87 78-195 48zm146-74c19-38 23-115 9-152-20-54-155-118-185-88-5 5-18 10-28 10-22 0-25 44-6 86 11 23 10 28-10 44-34 28-29 64 15 92 47 29 108 47 153 45 29-2 38-8 52-37z"/><path d="m596 6393c-31-42-33-179-6-374 30-217 24-438-15-562-41-128-66-180-108-219-40-38-43-54-14-72 13-8 24-3 55 27 34 33 44 37 88 37 89 0 110-49 108-260-1-163-33-371-99-650-70-293-76-325-82-455-5-110-3-136 11-163 33-64 121-94 193-67 24 9 43 21 43 26s-24 9-54 9c-77 0-111 15-132 58-15 33-16 49-5 169 6 73 24 185 41 250 108 436 153 724 140 898s-52 235-150 235c-36 0-41 2-35 18 91 210 110 427 66 762-15 114-14 282 3 305 19 26 46 13 46-24 0-42 9-61 30-61 33 0 42 78 14 118-12 18-25 22-67 22-44-1-55-4-71-27z"/><path d="m1554 6263c-3-10-10-27-14-38-5-11-23-53-41-94-41-96-69-179-69-203 0-10 8-21 18-24 9-3 27-10 38-16 15-7 28-7 42 1 11 6 48 11 81 11s80 4 103 10c24 5 60 12 81 15 37 6 77 34 77 56 0 14-47 57-143 130-53 41-83 72-94 97-27 63-29 67-52 70-13 2-23-3-27-15zm151-203c52-39 95-76 95-81s-12-9-28-9c-15 0-42-4-60-9-18-6-75-13-127-17l-94-7 47 121c44 111 48 118 59 97 7-13 56-56 108-95z"/><path d="m6031 6261c-6-10-13-36-17-58-5-34-3-43 16-56 17-12 21-22 16-40-13-53-88-123-182-170-30-15-71-12-102 7-9 5 14 108 38 170 11 30 13 86 4 110-4 11-19 16-50 16-37 0-51-6-84-37-56-50-66-71-45-92 15-15 19-13 57 32 22 26 46 47 54 47 18 0 18-43 0-101-34-110-38-129-32-153 8-33 53-56 112-56 92 0 233 101 275 196 14 31 26 44 41 44 37 0 163 33 178 47 11 10 11 16 2 25-8 8-29 7-87-5-107-24-106-24-99 23 8 50-7 70-52 70-22 0-37-6-43-19z"/><path d="m9415 6243c-21-20-55-98-55-124 0-10 9-28 20-39 21-21 21-21-5-55-50-64-160-131-200-121-23 6-23 6-4 73 11 38 24 86 30 108 21 75-10 110-75 85-42-15-33-46 12-41 16 2 15-29-2-76-17-49-36-128-36-153 0-49 102-55 189-10 56 28 161 130 161 156 0 6 26 14 59 17 63 5 116 26 110 42-5 12-59 12-113 1-36-8-39-7-31 10 21 49 29 113 16 128-18 21-55 20-76-1zm22-85c-3-8-6-5-6 6-1 11 2 17 5 13 3-3 4-12 1-19z"/><path d="m7895 6223c-105-42-144-104-199-318-19-77-47-171-61-210-15-38-31-84-36-102-13-44-25-49-33-13-4 21-11 30-26 30-23 0-25-13-9-59 14-40 41-56 70-41 36 20 102 186 143 362 6 25 8 26 95 30 80 3 94 6 132 33 52 37 100 113 106 169 6 47-23 119-52 130s-88 6-130-11zm131-89c9-36-41-128-86-159-28-20-55-27-108-32l-71-6 15 57c30 114 85 175 177 196 36 8 62-12 73-56z"/><path d="m2019 6173c-69-72-71-79-63-196 4-56 11-105 16-108s1-38-9-77l-17-72h-303c-296 0-303 0-303-20s7-20 301-20h301l-7-37c-25-135-24-158 11-151 14 2 21 19 31 73 23 130-8 115 237 115 117 0 216 3 219 7 4 3 2 12-4 20-9 10-57 13-219 13h-207l21 90c19 85 21 90 46 90 91 0 235 74 265 137 21 44 10 107-26 147-27 30-29 31-136 34l-108 3zm254-24c10-12 17-38 17-60 0-35-5-42-52-78-53-39-110-61-159-61-29 0-29 0-8 105 22 105 27 113 67 118 64 8 116-2 135-24zm-256-91c-3-7-5-2-5 12s2 19 5 13c2-7 2-19 0-25z"/><path d="m4135 6202c-23-20-30-34-101-210-50-126-58-151-55-179 1-15 37-18 45-4 7 10 45 19 141 31 39 5 104 13 146 19 95 12 149 33 149 58 0 33-55 102-116 144-23 16-56 50-72 76-17 26-39 56-48 66-22 22-63 21-89-1zm74-70c11-21 39-55 63-76 124-109 139-131 96-140-38-8-258-36-283-36h-24l24 68c12 37 37 101 54 142s31 76 31 78c0 1 4 2 10 2 5 0 18-17 29-38z"/><path d="m11718 6170c-20-12-24-35-8-45 5-3 25-2 45 4 42 11 95-5 95-30 0-19-20-37-81-72-51-29-66-52-48-73 14-17 235-20 259-4 28 19-10 30-105 30-90 1-90 1-58 18 17 9 46 30 63 46 27 24 31 33 26 59-10 51-36 69-107 73-37 3-72 0-81-6z"/><path d="m8202 6133c-70-86-148-235-154-293-3-34-2-35 37-38 22-2 67 2 100 8 122 24 160 32 175 40 24 11 25 69 2 94-24 25-55 86-83 161-23 63-43 70-77 28zm112-212c31-26 16-37-76-54-51-10-100-17-109-17-13 0-5 24 39 115l56 116 37-74c21-40 44-79 53-86z"/><path d="m8517 6153c-12-11-8-32 11-52 9-10 30-42 45-71l28-53-38-40c-21-23-44-46-52-53-18-14-7-44 15-44 9 0 33 18 53 40 40 44 54 48 73 22 22-31 77-64 100-60 36 5 32 31-7 53-20 10-45 32-56 47-20 28-20 28-1 56 11 15 27 44 37 65s26 42 36 48c25 13 25 49 0 49-29 0-67-35-90-85-12-25-25-45-30-45-10 0-41 56-41 75 0 29-65 67-83 48z"/><path d="m4533 6108c-4-7-6-54-4-104 2-78 0-97-19-134-25-49-21-90 9-90 19 0 51 48 51 76 0 24 99 159 131 178l32 19-6-54c-3-30-12-67-20-83-17-32-13-56 11-56 9 0 50 35 92 78 41 42 90 85 108 95l33 19-7-29c-3-15-13-52-22-82-16-53-16-53 11-77 25-21 38-24 107-24 85 0 134 13 127 33-2 8-30 12-90 12-100 0-114 8-99 57 32 104 34 115 23 137-21 38-82 23-164-42-21-16-39-28-41-26-1 2-8 23-15 47-10 35-16 42-37 42-33 0-81-25-121-63l-33-31v41c0 23-3 48-6 57-7 19-40 21-51 4z"/><path d="m5336 6004c-10-25 12-44 50-44 26 0 34 4 34 18 0 10-5 23-12 30-18 18-65 15-72-4z"/><path d="m10770 5997c-41-20-47-28-81-112-40-95-79-250-79-308 0-20-9-64-20-99-11-34-20-70-20-79s-9-27-21-40l-20-24 6 68c6 67 5 68-17 65-25-3-36-30-37-99-1-53 11-69 55-69 24 0 39 8 58 31 14 17 26 38 26 47s7 37 16 62 20 74 25 110 14 89 20 118l10 52h67c92 0 156 25 215 82 40 40 47 53 47 86 0 45-33 100-70 119-39 20-129 15-180-10zm185-68c20-38 19-45-11-84-33-44-93-71-177-79-79-8-78-16-24 110 27 64 34 73 66 83 81 24 123 16 146-30z"/><path d="m11398 5963c-42-48-24-103 34-103 34 0 35-4 2-51-38-55-118-119-177-140-91-33-94-29-47 56 53 95 63 166 30 208-25 32-62 35-114 11-38-19-70-69-65-99 6-29 30-24 49 10 20 36 60 61 85 52 27-11 12-76-35-163-45-81-50-118-19-135 78-42 295 82 358 205 24 46 24 46 83 46 56 0 108 20 108 40 0 5-35 8-77 7-70-2-78 0-81 18-7 37-33 55-77 55-27 0-47-6-57-17zm82-48c0-16-9-19-34-9-25 9-19 24 9 24 16 0 25-6 25-15z"/><path d="m15176 5908c-46-62-70-148-46-163 6-4 18-1 27 7 14 12 15 9 9-32-13-84-13-85 13-85 29 0 38 24 51 130 5 39 12 87 16 108 12 68-29 88-70 35z"/><path d="m3195 5910c-16-4-81-8-142-9-109-1-113-2-113-23s0-21 188-14c231 9 287 16 287 36 0 12-18 15-95 16-52 1-108-2-125-6z"/><path d="m16464 5875c-28-14-65-40-83-60-31-36-31-36-31-155 0-66-5-176-11-245-13-145-9-178 24-173 30 4 55 62 63 147l7 70 71 11c83 13 140 36 131 51-8 12-159 2-187-12-14-8-18-1-28 47-12 55-8 213 5 235 4 6 36 24 72 40 49 22 69 26 83 19 42-22 70 6 38 38-20 20-99 13-154-13z"/><path d="m6705 5849c-16-25 18-29 191-27 151 3 179 5 179 18s-28 15-182 18c-125 2-184-1-188-9z"/><path d="m9986 5831c-19-30 24-39 211-47 82-4 128-2 143 6 12 6 19 14 16 18-4 3-55 9-114 13s-139 11-178 15c-49 4-73 3-78-5z"/><path d="m5670 5789c-69-4-291-17-495-28-203-11-413-23-465-27-52-3-217-9-367-12-240-6-274-9-290-24-26-27-4-44 38-29 20 7 117 11 258 11 223 1 432 9 766 30 208 14 432 25 800 40 306 12 365 17 365 29 0 5-14 11-31 15-42 8-423 5-579-5z"/><path d="m9180 5774c-35-8-661-41-1000-52-164-6-195-9-195-22s26-15 164-18c140-2 680 22 1061 48 63 5 175 9 248 9 125 1 132 2 132 21s-6 20-197 19c-109-1-205-3-213-5z"/><path d="m6760 5700c0-19 7-20 165-20 157 0 222 10 209 31-3 5-88 9-190 9-177 0-184-1-184-20z"/><path d="m3005 5675c-5-2-22-6-37-9-20-5-28-13-28-27 0-20 3-21 58-14 31 4 137 10 234 14 167 6 201 11 184 29-8 7-392 14-411 7z"/><path d="m8950 5654c-6-14-10-31-10-37 0-7-16-49-36-94l-37-82-81-3c-64-2-81-6-81-18s16-16 73-18c39-2 72-5 72-7s-5-16-11-32c-6-15-15-45-19-67-6-31-4-42 12-58 17-17 30-20 84-16 70 4 117 30 122 67 4 26 2 26-45 1-48-24-94-33-112-21-11 7-10 19 7 67l20 59 71 6c107 8 114 30 11 37-33 2-60 6-60 8s12 29 26 61c30 67 52 144 46 161-7 22-42 13-52-14z"/><path d="m10040 5640c0-20 4-20 188-18 158 3 187 5 187 18s-29 15-187 18c-184 2-188 2-188-18z"/><path d="m5455 5613c-3-16-12-57-20-93s-15-73-15-82c0-16-10-18-70-18-63 0-70-2-70-20s7-20 58-20h59l-15-61-15-62 31-28c22-20 43-29 67-29 46 0 85 19 85 42 0 20-16 23-52 9-13-5-33-5-45 0-28 10-30 42-7 98l15 39 87 6c48 4 94 11 101 16 26 15-24 30-102 30h-75l20 74c23 83 19 126-12 126-13 0-21-9-25-27z"/><path d="m2182 5563c-10-21-36-80-57-130l-39-93h-46c-25 0-64-5-87-10-42-10-44-9-86 32-53 52-107 122-107 137 0 25-33 61-56 61-26 0-63-44-84-100-7-19-38-84-67-145-87-175-96-215-52-215 12 0 25 15 37 43 18 39 22 43 48 40 16-3 66 5 111 16 45 12 93 21 107 21 46 0 116 24 121 41 3 9 16 20 28 23 34 9 107 7 107-3 0-5-9-38-20-73-24-76-25-111-4-132 25-26 56-19 129 29 71 47 85 60 85 83 0 17-35 15-50-3-7-8-18-15-25-15-6 0-31-14-54-31-24-17-45-28-47-26-8 8 49 189 61 192 5 2 49 7 96 10 147 11 148 45 1 45h-82l23 48c41 83 69 161 63 177-10 27-35 16-54-22zm-428-153c22-30 56-69 74-87 36-34 35-53-3-53-13 0-57-7-97-16-104-23-153-33-155-30-1 1 19 35 44 76s52 100 60 130c18 67 26 81 31 55 2-11 23-45 46-75z"/><path d="m8411 5528c-17-18-40-50-50-72-10-23-33-72-50-111-18-38-36-78-41-87-6-10-10-27-10-38 0-34 36-23 67 20 23 30 32 37 41 28s26-9 70 0c32 7 76 12 99 12 57 0 103 18 103 40 0 10-14 29-31 42-91 69-119 100-119 133 0 73-28 85-79 33zm135-199c-6-4-40-9-76-12-36-4-76-10-88-13-23-7-23-4 15 68l38 75 61-56c34-32 56-59 50-62z"/><path d="m4888 5523c-26-30-120-280-114-301 8-23 81-39 101-22 17 14 146 50 220 61 132 20 140 22 140 49 0 19-7 27-30 35-57 19-150 79-213 137-68 62-81 68-104 41zm126-132c11-12 23-21 28-21s30-12 56-27l47-28-60-7c-55-7-112-21-203-49-19-6-35-9-37-7-6 5 32 116 57 170l22 47 36-29c19-15 44-37 54-49z"/><path d="m16597 5273c-2-4-8-45-11-89-4-45-13-104-20-132-8-27-10-55-6-62 10-15 41-9 50 10 4 8 23 49 43 90l36 75v-87c1-106 10-118 85-118 55 0 123 27 139 56 8 13 13 9 27-24 37-82 106-96 183-36 26 20 47 41 47 47 0 18 10 1 20-32 9-32 9-32-84-76-143-68-183-126-166-245 9-64 13-74 43-107 18-20 31-23 90-23 113 0 155 36 183 157 17 72 13 228-7 282-6 14-13 60-17 101-6 67-9 75-29 78-17 3-26-7-46-50l-25-53-1 72c-1 97 3 106 38 85 35-20 66-10 52 16-13 24-75 57-94 49-38-15-52-57-54-171l-3-111-30-3c-27-3-32 1-50 40-21 46-26 113-10 123 14 9 12 50-4 90-14 32-18 35-59 35-40 0-48-4-79-42-39-50-61-109-62-173-2-86-21-38-26 66-3 57-9 110-13 117-10 14-46 16-67 2-12-7-16-4-20 18-5 26-42 44-53 25zm331-93c2-18-1-37-7-43s-11-20-11-31c0-23-47-76-67-76-29 0-4 102 38 160 28 37 43 34 47-10zm272-505c-14-69-48-101-117-110-49-6-52-5-70 21-13 20-18 47-18 95 0 88 18 112 126 166l84 41 3-80c2-44-2-104-8-133z"/><path d="m5558 4789c-21-11-24-49-5-49 6 0 29 5 51 11 21 6 49 8 62 5 44-11 30-45-51-123-45-43-75-80-75-92 0-16-6-21-28-21-15 0-42-4-61-10-31-9-33-8-26 13 32 104 20 137-49 137-36 0-51-6-85-37-53-48-67-93-40-127 10-13 31-27 46-31 28-7 28-7-22-51-63-56-135-95-164-87-19 5-21 12-21 83 0 106-2 110-60 110-42 0-52-4-79-35-34-39-49-81-33-97 17-17 45-4 53 25 9 35 27 57 45 57 11 0 14-19 14-79 0-71 2-82 22-95 32-23 103-20 156 7 25 12 78 52 118 90 43 40 81 67 94 67 46 0 113 23 117 41 5 17 7 17 41-2 24-12 56-19 95-19 32 0 87-7 123-16 72-18 86-14 59 16-22 24-66 37-160 46-102 10-105 14-50 65 26 24 53 48 61 52 21 12 43 72 37 99-12 47-31 58-102 58-36 0-74-5-83-11zm-173-180c4-6-1-31-10-55-16-42-20-45-48-42-46 4-46 32-1 73 41 38 49 41 59 24z"/><path d="m9015 4710c-13-20 8-30 65-30 105 0 118-24 45-80-25-19-54-42-65-50-26-21-34-61-16-85 13-18 30-21 153-26 141-6 174 0 139 27-13 9-44 14-87 14-81 0-159 10-159 21 0 4 27 27 59 51 33 24 65 55 71 69 13 31 0 73-29 88-25 14-168 14-176 1z"/><path d="m8525 4523c-38-20-85-63-85-79 0-26 31-21 74 13 26 20 49 33 52 30 4-3-1-28-9-55-27-82-32-155-12-175 30-30 124-23 208 16 40 19 78 41 86 50 10 13 30 17 87 17 53 0 77 4 88 16 26 25 9 35-46 28-47-6-51-5-44 11 4 10 11 39 17 64 9 42 8 47-12 63-25 21-104 24-144 6-14-6-35-26-46-45-27-43-18-85 23-114l30-22-23-13c-52-29-126-52-152-47-23 5-27 10-27 39 0 18 10 63 21 99 18 53 20 70 11 90-14 30-51 33-97 8zm363-38c9-9-11-65-28-80s-24-16-50-5c-37 15-39 42-4 76 19 20 31 24 52 19 15-4 29-8 30-10z"/><path d="m8025 4477c-89-43-115-111-115-312 0-178-24-255-78-255-25 0-25 0-19 95 6 89 5 95-13 95-14 0-22-10-29-37-14-57-23-157-14-169 13-19 50-34 82-34 72 0 117 84 128 236l6 84h53c29 0 64 4 78 10 35 13 142 98 162 128 17 25 21 75 9 111-20 65-159 92-250 48zm187-54c31-28 22-63-28-110-59-57-102-83-138-83-24 0-26 2-16 15 18 22 3 35-32 28l-31-6 7 49c4 27 15 60 25 74 48 66 157 83 213 33z"/><path d="m1547 4382c-37-23-48-63-57-212-20-305-28-362-59-449-17-47-33-87-36-89-3-3-5 24-5 60 0 73-17 102-45 78-11-9-15-33-15-86 0-84 13-104 65-104 39 0 47 10 83 110 38 108 40 114 47 216 10 161 4 151 88 156 128 9 249 82 263 161 15 82-4 125-67 158-52 26-220 27-262 1zm229-43c45-28 57-52 49-100-5-31-15-45-49-68-62-43-114-62-174-62-29-1-55 1-56 2-8 10 13 211 23 223 26 31 160 34 207 5z"/><path d="m2278 4353c-14-16-36-48-48-73-13-25-30-55-38-68-15-23-15-23-38 15-13 21-24 50-24 64 0 36-24 56-46 38-24-19-12-70 34-143l38-61-33-55c-34-57-41-84-23-95 16-10 37 11 67 66l27 47 54-49c50-45 87-60 106-42 4 4-26 37-66 74l-73 67 44 84c24 45 52 92 62 104 45 49 3 75-43 27z"/><path d="m4429 4357c-71-48-116-150-139-316-23-170-82-355-116-368-36-14-61 70-29 97 19 16 19 39-1 47-22 8-63-34-70-73-8-41-1-62 31-96 47-51 114-30 153 48 28 54 82 261 82 313 0 73 52 236 89 279 27 32 74 51 125 52 11 0 36-18 58-40 31-34 38-48 38-81 0-53-47-122-101-149-36-19-41-19-55-5-20 20-97 20-114 0-11-13-10-21 1-41 13-26 16-26 89-21 104 7 148 31 199 109 39 59 41 66 35 113-7 61-36 111-78 136-46 28-152 26-197-4z"/><path d="m2658 4309c-23-7-55-30-86-63-44-46-50-58-56-110-7-54-6-61 18-84 33-33 126-43 174-18 17 9 33 16 37 16 3 0 5-26 5-58v-58l-72-38c-93-50-173-117-198-167-21-41-27-121-11-162 14-36 60-50 144-44 72 5 72 5 124 62 60 66 73 108 73 239v83l67 34c103 53 91 81-17 40l-50-19v83c0 48-5 87-11 90-7 5-5 14 5 29 8 13 17 39 21 58 14 73-67 115-167 87zm106-55c11-29 6-51-19-78-29-32-31-42-8-54 29-17-58-54-115-50l-47 3v52c1 44 6 58 30 84 51 54 145 80 159 43zm-24-561c-6-21-25-55-44-77-27-32-42-40-86-47-65-10-87 0-96 45-14 78 43 154 169 227l62 35 3-73c2-40-2-90-8-110z"/><path d="m6235 4268c-88-81-123-172-74-199 21-11 112-8 140 5 15 7 23-7 77-135 2-4-23-21-56-39-32-17-87-57-121-88-49-45-63-63-63-87-1-49 10-71 47-91 33-18 38-18 136-1 120 21 151 35 172 79 17 36 11 93-17 159l-15 36 41 14c23 7 54 24 70 37 32 27 39 59 11 47-163-66-148-69-190 38l-26 68 22 29c34 47 42 76 25 91-9 8-13 21-10 35 9 33-18 54-69 54-38 0-50-6-100-52zm99-25c-4-16-14-38-22-51-8-12-12-30-9-41 6-24-53-54-88-45-14 3-25 8-25 10 0 20 47 89 81 118 52 44 72 47 63 9zm113-474c5-32 2-39-22-55-26-17-73-29-167-40-41-6-47-4-58 16-9 16-9 29-2 46 12 25 103 97 167 131l40 21 18-41c11-23 21-58 24-78z"/><path d="m5549 4255c-3-3-55-9-115-15-60-5-145-15-189-20-44-6-102-13-128-17-53-6-69-25-44-51 13-13 21-13 39-4 30 15 249 41 553 65 121 10 150 15 150 27s-22 15-131 18c-71 1-132 0-135-3z"/><path d="m3280 4220c0-35 42-42 205-37 150 4 210 16 202 40-2 8-22 11-58 10-162-7-230-7-286 0-60 8-63 7-63-13z"/><path d="m6760 4160c0-20 4-20 163-18 136 3 162 5 162 18s-26 15-162 18c-159 2-163 2-163-18z"/><path d="m8415 4128c-44-5-136-18-205-29-69-10-135-19-147-19-16 0-23-6-23-20 0-17 7-20 46-20 26 0 92 7 148 15 191 27 281 35 484 41 187 7 202 8 202 26 0 17-12 18-212 16-117 0-249-5-293-10z"/><path d="m3400 4080c-30-11-56-20-57-20-2 0-3-9-3-20 0-25 34-27 86-5 21 9 87 18 159 21 68 4 130 11 137 15 29 19-20 29-142 28-99 0-137-4-180-19z"/><path d="m7090 4084c-19-2-92-13-162-25-114-20-128-24-128-42s5-19 65-14c36 4 91 11 123 16 31 6 89 15 127 22 86 15 118 26 110 39-6 9-57 11-135 4z"/><path d="m5584 4068c-14-22-17-173-5-196 10-20 7-24-36-46-27-13-97-36-158-50-144-35-155-37-155-33 0 1 24 20 54 42 59 43 116 120 116 159 0 47-25 59-111 54-88-5-169-43-169-78 0-27 22-25 73 4 46 26 142 43 152 27 16-26-72-117-177-184-18-11-28-26-28-42 0-24 2-25 68-25 118 0 301 49 385 103l58 37 14-32c13-31 12-34-13-55-15-13-48-36-73-53-49-32-96-91-99-125-6-55 2-84 27-110 25-24 34-27 78-23 64 6 126 44 149 92 13 28 17 59 15 128l-2 91 59 27c52 23 112 80 84 80-8 0-86-28-152-55-13-5-18-2-18 9 0 9-7 28-16 41-13 20-14 28-4 40 7 8 16 35 21 60 9 50-9 108-36 119-28 10-93 7-101-6zm70-44c24-23 21-96-4-119-20-18-20-17-20 58 0 43 2 77 4 77 3 0 12-7 20-16zm36-392c0-69-3-81-22-99-76-69-154-50-134 33 9 32 122 142 149 144 4 0 7-35 7-78z"/><path d="m8438 3877c-62-16-78-24-78-38 0-24 36-25 106-5 73 22 158 24 162 5 4-23-30-49-141-104-79-38-102-55-102-70 0-19 7-20 160-20 145 0 164 2 201 22 22 12 47 29 55 39 13 16 11 17-21 11-19-4-64-13-100-21-36-9-94-15-129-16h-64l69 35c38 19 84 48 101 64 28 26 32 34 26 63-3 18-10 39-16 46-15 18-140 13-229-11z"/><path d="m12127 3720c-27-22-87-132-87-160 0-9-9-43-20-75-25-72-38-153-52-310-6-66-13-151-17-190l-6-70-17 45c-9 25-16 56-15 70 3 35-33 34-50-1-10-21-9-34 7-79 23-64 45-90 76-90 44 0 54 34 75 265 21 238 26 264 70 407 46 152 82 180 185 147 68-22 119-69 110-102-9-39-77-93-139-111-71-21-83-21-67-1 18 22 4 35-29 25-56-16-72-30-69-58 3-25 7-27 57-30 85-5 183 29 243 86 65 60 71 73 59 120-27 96-238 172-314 112z"/><path d="m14129 3598c-23-44-122-173-153-200-34-30-86-38-86-13 0 9 9 50 20 92 23 85 21 106-12 101-16-2-24-13-30-38-16-67-70-158-131-223-66-70-96-84-140-68-29 11-37 47-15 69 9 10 8 16-6 30-16 16-18 16-42-11-32-37-31-72 5-108 26-25 37-29 86-29 69 0 103 17 146 72 51 65 70 78 87 62 7-8 33-14 56-14 56 0 111 39 171 121l45 61v-62c0-76 10-96 57-109 29-8 42-7 60 4 20 14 24 13 47-10 40-39 88-34 168 18 57 38 68 42 84 30 10-7 34-13 54-13s72-9 116-21c57-14 103-19 164-17 71 2 90-1 115-17 42-29 240-35 296-9 22 9 39 20 39 23s-63 6-140 7c-120 1-142 3-160 19-24 22-25 51-4 104 19 48 63 74 119 69 35-3 40-6 43-30 4-36 27-55 47-38 19 16 19 60-1 88-13 20-24 22-96 22-70 0-85-3-113-24-34-26-60-78-70-140l-6-38-86 7c-110 9-187 33-191 60-1 11 11 39 28 62 24 33 43 46 85 59 61 20 85 14 85-19 0-34 25-54 45-37 19 16 19 60-1 88-12 18-25 22-67 22-72 0-122-16-163-52-43-38-64-77-64-119 0-24-3-30-16-25-9 3-20 6-25 6s-9 22-9 49c0 28-4 53-10 56-5 3-10 15-10 26 0 31-36 59-75 59-82 0-153-69-189-184-18-58-26-63-70-46-26 9-26 11-26 114 0 57-3 111-6 120-9 23-41 19-55-6zm363-101c5-63-2-76-63-116-55-36-99-41-99-12 0 53 62 151 114 179 32 16 44 4 48-51z"/><path d="m15440 3522c-25-14-44-37-67-83-18-35-33-74-33-86 0-69 117-71 201-4l36 30 12-27c43-96 105-145 176-140 59 4 60 20 2 36-63 18-107 69-142 168-15 43-39 89-52 102-30 28-85 29-133 4zm106-47c18-46-46-113-117-122l-39-6 21 49c11 27 32 59 45 72 29 25 82 30 90 7z"/><path d="m12970 3489c-36-5-102-15-147-21-72-10-83-14-83-31 0-19 5-19 88-13 125 9 229 27 249 42 35 25-14 35-107 23z"/><path d="m3321 2805c-57-14-73-28-69-60 4-25 45-33 54-11 7 19 54 32 145 41 43 4 69 3 73-4 9-13-46-48-96-61-38-11-59-35-51-57 3-8 24-13 57-13 129 0 199-66 120-112-17-10-62-21-100-25-51-6-69-12-69-23 0-12 16-16 71-18 130-5 210 53 184 134-13 39-40 60-102 79-24 8-36 14-28 14 9 1 30 15 48 31 36 32 37 62 4 88-21 16-169 14-241-3z"/><path d="m15410 2785c-21-26-25-115-6-160 14-32 14-41 4-52-17-16-113-35-144-27s-38 35-32 141c4 67 2 86-10 90-7 3-21-1-30-10-23-24-29-170-9-219 19-46 42-53 149-45 64 5 80 4 84-8 4-9 19-15 39-15 19 0 37-4 40-10 9-15 68-12 93 6 21 14 22 14 22-10 0-14 5-28 10-31 19-12 10-22-22-29-50-10-119-49-116-66 5-23 37-24 82-2 23 12 64 26 91 33 28 7 56 17 63 22 21 16 13 38-18 48-26 10-29 15-32 62-3 49-5 52-31 55-20 2-38-5-63-28-19-17-40-28-46-24-5 3-25 38-44 77-25 53-34 85-34 124 0 46 2 52 23 55 12 2 22 10 22 18 0 22-68 26-85 5z"/><path d="m15826 2778c-22-35-64-167-72-226-6-51-6-53 30-87 20-19 51-37 69-40 46-9 108 18 150 66 20 21 43 39 52 39 8 0 47 16 85 35l70 35 19-37c33-65 114-93 210-72 58 12 68 29 17 29-123 0-193 41-182 109 12 85 12 86-11 89-16 2-26-3-32-20-10-27-47-56-116-91-75-37-93-41-111-23-10 10-33 16-65 16-43 0-51-3-61-25-15-33 2-53 50-57l36-3-26-17c-44-29-71-31-101-8-36 28-35 62 4 175 45 131 45 135 20 135-11 0-27-10-35-22z"/><path d="m12613 2756c-57-27-113-93-113-133 0-16-6-23-20-23-13 0-20-7-20-20 0-11 6-20 13-20 6 0 22-11 34-24 56-59 231-71 336-22 29 13 70 26 92 29s48 8 58 12c12 5 17 2 17-9 0-9-27-29-68-50-37-19-92-56-121-82l-53-48 7-55c9-70 16-84 59-110 38-24 134-29 183-10 60 23 73 45 72 128 0 42-4 98-7 126l-7 49 78 38 79 38 19-24c42-54 130-59 192-12l34 26 6-29c10-47 67-71 164-71 43 1 96 7 118 15s41 15 42 15 11-16 23-36c18-28 28-34 49-32 22 3 26 8 29 41 3 37 3 37 50 37 34 0 64 10 109 34l62 33 6-27c3-15 17-38 31-51 22-21 35-24 103-24 85 0 116 14 201 92 22 19 40 30 40 24 0-7 11-23 25-36 21-22 33-25 90-25 45 0 82 7 115 21 49 21 49 21 76 0 21-17 41-21 96-21 76 0 125 17 171 58 49 46 24 72-31 34-70-48-140-58-199-30l-22 11 23 41c45 78 40 134-11 124-24-5-59-60-66-106-6-35-12-41-61-66-46-23-62-26-100-21l-46 7v52c0 28 4 65 8 81 11 37 5 55-17 55-23 0-41-19-41-44 0-32-45-89-117-146-60-49-70-54-126-58-50-4-63-2-74 14-15 21-18 80-3 89 13 8 30 73 23 91-14 37-83-2-83-48 0-33-144-118-202-118-26 0-26 1-12 28 19 37 19 59-1 42-13-11-15-8-15 18 0 36 15 49 28 25 9-14 13-15 26-4 9 7 16 17 16 22 0 18-41 49-65 49-33 0-55-36-62-104-6-54-6-55-52-74-78-34-122-42-183-33-93 12-102 28-68 125 22 66 18 88-18 84-20-2-28-11-36-43-8-28-26-51-64-82-55-45-92-54-124-29-27 20-22 49 17 86 24 23 35 43 35 62 0 25-3 28-35 28-38 0-72-29-82-70-3-14-11-31-16-38-10-12-139-82-152-82-3 0-5 22-5 49 0 28-4 53-10 56-5 3-10 26-10 50 0 59-18 75-86 75-48 0-58-4-93-36-31-27-42-47-51-87-10-46-9-54 9-78l20-27-63-11c-80-14-152-13-195 3l-34 12 49 18c27 10 65 24 84 31 40 15 88 69 92 104 4 29-34 60-82 67-25 3-50-3-87-20zm377-76c8-70-11-93-73-88-42 3-42 3-41 47 1 38 6 49 35 73 52 43 73 35 79-32zm-277 38c16-12 15-15-6-39-12-14-49-36-83-48-74-25-75-26-67-3 14 39 89 102 124 102 8 0 23-6 32-12zm317-364c0-101 0-102-27-113-16-6-49-12-75-13-64-3-98 27-98 88 0 37 5 46 40 74 65 51 143 91 152 77 4-7 8-58 8-113z"/><path d="m5219 2721c-53-18-79-37-79-58s28-27 48-11c22 19 102 41 133 36 21-3 24-8 24-43 0-37-4-42-52-74-32-20-53-41-53-52 0-15 11-18 78-22 42-2 127-10 189-17 111-13 156-9 136 11-15 15-116 36-211 44l-83 7 25 23c32 30 40 63 27 112-17 63-82 79-182 44z"/><path d="m1331 2605c-17-20-31-38-31-40 0-3-15-83-34-177-39-198-62-368-53-393 4-10 15-15 29-13 17 2 24 11 26 33 3 30 41 218 45 221 5 4 105 33 132 39 17 3 92 12 167 19 76 7 141 15 145 19 16 17-17 22-135 22-117 0-211-13-271-36-13-6-25-8-28-6-2 2 7 54 20 115 15 66 21 116 16 125-6 10-2 23 10 38 19 24 23 24 238 29 185 4 218 7 218 20s-34 15-231 18l-232 2z"/><path d="m4215 2462c-62-21-129-84-145-137-7-22-16-123-21-225-15-321-28-380-91-407-39-17-49-39-23-49 8-3 34 3 58 15 71 34 84 74 109 347l12 132 61 5c49 3 77 13 131 45 38 22 79 51 91 64 73 78 60 194-24 217-52 15-99 13-158-7zm166-53c13-21 11-66-6-98-17-33-132-109-175-116-98-16-88-21-85 43 4 87 24 125 87 162 46 27 60 31 111 27 37-2 62-9 68-18z"/><path d="m4845 2428c-31-17-45-39-45-73 0-39 24-62 74-72l38-8-48-49c-60-59-134-96-193-96h-43l6 68c17 163 17 181 6 201-16 30-65 27-127-9-36-21-53-37-53-50 0-27 23-25 68 5 20 14 43 25 51 25 14 0 14 0-5-196-6-56-4-63 17-78 15-10 44-16 79-16 82 0 164 42 250 130 45 46 77 70 92 70 33 1 107 36 114 55 11 26-4 30-54 12-65-24-70-22-69 19 1 50-29 74-92 74-25 0-55-6-66-12zm105-68c0-29-2-30-45-30-32 0-47 5-51 15-10 25 16 45 57 45 37 0 39-2 39-30z"/><path d="m6165 2394c-11-3-30-7-42-10-15-3-23-12-23-25 0-20 3-21 73-14 39 4 119 11 177 14 84 5 105 9 105 21 0 13-22 15-135 16-74 1-144 0-155-2z"/><path d="m3433 2363c-145-3-153-5-153-23 0-19 7-20 163-19 156 0 223 11 229 34 3 11-26 12-239 8z"/><path d="m2220 2300c0-20 4-20 163-18 136 3 162 5 162 18s-26 15-162 18c-159 2-163 2-163-18z"/><path d="m6225 2246c-27-8-62-16-77-20-19-4-28-13-28-26 0-25 30-26 103-6 29 8 104 18 168 21 126 7 155 16 121 34-28 15-225 13-287-3z"/><path d="m3418 2208c-28-7-38-15-38-29 0-19 5-19 63-12 34 4 80 8 102 8 37 0 40-2 43-30 2-24-6-40-45-80-26-27-77-72-112-100-89-69-111-94-111-123 0-24 0-24 118-20 82 4 132 11 167 24 97 38 46 56-81 29-44-9-93-15-108-13-26 3-23 7 60 73 115 92 164 154 164 206 0 62-25 79-112 78-40-1-90-6-110-11z"/><path d="m2294 2182c-64-22-107-50-101-65 6-17 44-13 102 11 30 13 84 24 136 27 93 7 125 18 99 35-25 17-180 11-236-8z"/><path d="m17380 2081c0-15 9-19 48-23 26-3 64-13 85-23 37-17 39-20 34-59-3-23-14-67-26-99-35-100-60-638-37-799l9-58h-77c-68 0-77-2-74-17 5-25 205-54 219-32 5 8 6 21 3 29-36 94-40 265-16 670 8 133 13 165 36 223 30 75 29 132-3 161-27 24-99 46-152 46-41 0-49-3-49-19z"/><path d="m16438 1903c-18-20-43-90-53-148-4-22-13-64-21-93-7-29-11-59-7-67 9-26 49-16 101 25l50 40 30-30c17-16 39-30 49-30 45 0 100 25 137 62l41 40 5-39c4-32 9-38 30-38 19 0 26 7 31 30 4 17 13 48 20 70 12 42 16 90 8 115-3 12 13 16 96 18 55 2 136-2 180-8 60-9 87-9 109-1 16 6 26 14 23 17-17 17-168 34-299 34-142 0-148-1-162-22-7-13-16-39-20-58-12-64-167-189-206-165-23 14-7 42 43 70 34 20 53 38 55 53 3 20-1 22-42 22-40 0-51-5-84-38-22-22-60-53-86-71l-47-32 6 28c26 121 41 170 63 195 29 34-21 54-50 21z"/><path d="m15916 1885c-3-9-6-121-6-248 0-173-4-246-15-287-8-30-15-74-15-97s-4-52-9-65c-4-13-11-42-15-65-5-36-3-46 15-64 25-25 60-22 130 9 47 22 147 56 191 66 38 8 92 56 79 69-7 7-22 5-48-5-21-9-65-23-98-33-33-9-93-30-134-46s-76-27-79-25c-4 5 0 31 38 240 16 86 20 151 20 317v208l83 3c65 2 82 6 82 18 0 23-210 28-219 5z"/><path d="m12742 1723c-39-19-70-60-84-109-15-57 7-74 99-74 54 0 73-3 73-13 0-8 11-35 24-61l24-47-42-28c-114-80-146-167-85-236 29-33 34-35 95-35 77 0 109 13 128 54 15 34 10 89-17 179-17 53-17 53 55 76 20 7 42 19 48 27 18 21 35 17 48-11 11-24 16-25 95-25 81 0 86 1 148 41 35 23 67 47 71 53s8 0 8-15c0-41 29-59 94-59 66 0 104 17 140 62 24 31 26 31 44 15 30-27 125-23 179 8l43 26v-33c1-40 14-59 57-81 35-18 115-22 174-8 33 8 38 6 53-20 27-46 62-40 87 15 17 40 26 47 82 68l62 24 6-38c9-62 27-73 118-73 76 0 79 1 149 48l72 47v-37c0-44 6-56 37-72 34-18 69-13 101 14 17 14 34 25 40 25 15 0 164 70 195 92l27 19v-34c0-46 35-78 94-84 54-7 99 3 93 20-2 7-30 17-63 22l-59 11v79c0 66-3 80-17 83-9 2-22-5-30-16-19-27-96-77-163-107-32-14-59-24-59-23-13 36-26 43-80 43-35 0-56 4-56 11s13 37 30 68c16 31 27 63 23 72-11 29-47 11-73-36-42-76-72-111-135-153-51-34-70-41-122-45l-63-4v65c0 45 4 68 15 77 8 7 15 21 15 31 0 34-42 22-89-26-37-38-105-75-116-63-2 2 3 32 11 67 11 46 12 67 4 75-20 20-45-9-59-71-11-48-20-64-47-82-48-33-112-53-167-52-76 1-87 11-87 82 0 33 5 69 11 81 6 11 8 31 4 45-8 34-46 28-56-10s-21-50-85-92c-45-30-60-35-85-30-30 7-31 8-24 49 12 75 11 81-11 84-17 2-26-7-43-40-24-49-103-136-135-148-12-4-34-6-49-3-26 5-26 6-29 107-3 100-3 101-28 101-22 0-26-5-30-45-7-56-40-102-105-145-60-40-93-49-140-41-41 8-46 31-10 48 14 6 25 19 25 30 0 28-59 24-89-7-13-14-31-25-40-25s-26-7-37-15c-19-13-107-47-109-42-1 1-9 13-18 27-19 28-22 81-6 97 7 7 9 19 6 27-7 19-38 21-55 4-19-19-25-2-9 24 24 39 29 75 11 92-20 20-70 20-112-1zm68-37c0-3-50-96-56-104-7-9-44 11-44 23 0 22 60 85 81 85 10 0 19-2 19-4zm2114-207c-7-11-34-12-34-1 0 14 11 21 26 15 8-3 11-9 8-14zm-2000-277c-8-22-18-28-59-35-46-8-51-6-73 18-16 20-20 33-15 53 9 38 42 81 83 107l35 22 19-69c14-50 17-77 10-96z"/><path d="m16785 1450c-99-20-164-30-196-30-19 0-50-4-69-9-19-6-54-15-77-21-32-8-43-16-43-30 0-24 21-25 104-5 34 8 113 21 176 30 152 20 233 37 237 51 7 22-56 29-132 14z"/><path d="m16948 1248c-9-7-37-41-62-75-57-79-76-82-76-13 0 57-15 70-56 52-15-8-24-20-24-35 0-13-4-27-8-33-5-5-16-30-26-55-9-25-31-68-49-95l-32-49-5 65c-4 53-8 65-24 68-26 5-36-15-36-79 0-45 4-60 23-77 39-37 67-29 112 33 21 30 47 73 55 96 14 35 18 39 29 25 8-9 29-16 49-16 30 0 44 8 84 51l48 51v-39c0-44 14-63 47-63 28 0 50 35 29 47-10 6-16 30-18 78-3 61-6 70-23 73-11 1-28-3-37-10z"/><path d="m4005 1050c-27-16-58-30-68-30s-20-8-23-17c-3-10-14-34-24-53-12-22-16-41-11-49 6-8-8-64-35-145-66-196-97-317-87-343 9-24 43-14 63 19 13 22 19 48 18 78-1 25 2 59 6 76 7 31 7 31 99 36 82 4 102 10 178 46 99 47 162 107 179 172 22 81-10 203-60 230-10 6-56 10-102 10-74 0-88-4-133-30zm219-41c22-25 26-41 26-90 0-73-17-116-61-153-51-43-156-87-219-92-48-4-51-3-27 7 35 14 26 29-19 29-19 0-34 3-34 7 0 8 58 195 71 230 11 30 84 75 134 84 83 14 102 11 129-22z"/><path d="m3175 921c-47-21-69-45-61-66 7-18 42-20 53-2 23 35 165 57 213 32 42-21 53-40 40-64-16-31-57-48-132-56-56-6-68-11-68-25 0-16 12-18 94-22 76-2 100-7 123-24 61-44 94-162 55-197-47-43-166-62-204-33-10 7-18 25-18 40 0 21-5 26-24 26-46 0-42-65 7-106 29-24 37-26 104-22 92 6 186 49 191 88 1 14 5 45 8 70 8 66-25 133-81 169l-44 28 24 23c44 41 31 102-29 139-45 28-191 30-251 2z"/><path d="m2370 730c-14-4-50-8-80-9-81-2-130-17-130-42 0-19 4-20 73-14 39 3 101 11 137 16 36 6 126 14 200 17 110 6 135 10 135 22 0 13-25 15-155 17-85 1-166-2-180-7z"/><path d="m4313 573c-51-35-113-109-113-134 0-35 35-20 84 37 27 30 50 53 53 50 3-2-9-41-26-86-18-46-33-104-34-133-2-49-1-52 23-52 23 0 26 5 32 55 3 30 18 84 32 120 40 99 49 139 35 156-17 21-41 17-86-13z"/><path d="m2440 570c-14-4-38-8-55-9-58-2-105-21-105-41 0-23 14-24 100-9 30 5 116 15 190 22 108 10 135 15 135 27s-21 15-120 17c-66 1-131-2-145-7z"/></g><g fill="#44b" transform="matrix(.08161748 0 0 -.08161748 1370.15930951453 1156.61759285665)"><path d="m750 2973c-57-10-88-25-119-57-40-41-55-100-46-179 6-45 12-61 32-77 32-25 35-25 64-1 22 17 24 26 21 89-4 105 24 120 164 87 33-7 119-19 190-25 88-8 134-16 144-26 32-32 8-420-28-456-18-18-126-28-289-28-185 0-206-4-250-52-55-58-58-82-55-363 1-145 7-274 13-293 11-34 51-62 89-62 12 0 35 14 52 31l31 30-6 238c-3 130-3 249 0 264l5 27h112c234 1 363 26 423 82 58 54 98 260 91 463-4 122-7 138-34 191-40 81-79 100-217 108-174 10-361 14-387 9z"/><path d="m3660 2971c-42-9-83-34-103-65-39-59-50-127-54-343-5-206-5-212 18-252 28-50 78-86 143-102 48-12 257-8 370 7l49 7-7-104c-4-57-11-189-16-294-9-177-9-192 8-214 35-47 100-46 136 2 22 29 27 86 42 452 7 191 0 235-44 283-45 48-92 56-241 38-146-18-229-20-265-6l-26 10v162c0 156 8 230 27 249 5 5 99 6 210 2l201-6 5-50c3-39 11-56 31-74 34-29 48-29 80 0 24 20 26 30 28 113 4 147-23 169-218 179-242 11-340 13-374 6z"/><path d="m1565 2945c-14-13-25-32-25-42s-1-297-3-638c-2-677-3-662 55-694 33-19 73-7 101 31 18 24 20 51 29 300 5 150 10 278 12 283 2 6 37 8 97 3 52-3 135-7 186-7 154-2 161-10 143-176-21-189-27-310-18-343 12-45 45-72 86-72 71 0 102 46 102 151 0 33 7 118 16 187 24 190 9 280-58 349-50 52-112 67-263 65-71-1-164-6-205-11-41-4-78-7-81-5-4 2-10 108-13 236-9 286-17 352-47 384-31 33-82 32-114-1z"/><path d="m2542 2944c-55-38-64-109-53-419 6-186 9-215 28-250 50-95 116-125 302-135 75-4 171-5 215-1l78 7-4-178c-2-97-7-181-11-184-4-4-42 1-85 11-104 26-285 27-363 3-106-33-149-107-99-170 26-34 68-41 132-21 74 23 202 20 308-7 182-47 274 5 301 168 12 77 27 831 19 994-7 152-20 181-86 186-88 7-103-51-104-401v-219l-201 4c-197 3-201 3-220 27-18 21-19 42-19 283v260l-29 29c-33 33-74 38-109 13z"/><path d="m2374 1391c-55-34-79-78-79-147 0-51 4-66 27-96 35-45 102-73 153-64 78 15 146 111 131 188-20 108-145 172-232 119z"/><path d="m1853 999c-39-11-66-56-61-101 6-59 69-64 76-6 4 30 34 38 145 38h67v-110c0-135-1-136-132-126-85 6-89 6-113-18-24-25-25-28-25-179 0-162 4-177 47-177 35 0 43 29 43 159v121h73c85 0 141 14 168 41 17 17 19 34 19 169 0 147-1 152-25 175-23 24-30 25-137 24-62 0-128-5-145-10z"/><path d="m2985 1000c-91-16-93-18-104-58-15-51-14-537 0-564 19-36 69-48 204-48 121 0 127 1 151 25l24 24-2 292-3 292-26 19c-31 23-161 33-244 18zm169-86c14-5 16-37 16-250v-245l-102 3-103 3v240 240l40 6c57 9 131 10 149 3z"/><path d="m2351 971c-24-24-29-73-37-372-6-232-6-237 15-258 23-23 29-25 51-11 12 7 16 40 20 150l5 141 35-23c19-13 59-55 88-93 30-39 78-96 108-128 47-51 56-57 74-47 29 16 25 42-15 92-19 24-62 78-95 121-61 77-61 77-33 77 15 0 46 9 69 19 56 26 67 57 62 179-6 156-27 172-220 172-93 0-111-3-127-19zm257-74c16-13 17-168 0-185-7-7-41-12-84-12-40 0-84-4-98-10l-26-10v120 119l98-6c53-3 103-10 110-16z"/></g></svg>