<svg height="1737.859645pt" preserveAspectRatio="xMidYMid meet" viewBox="0 0 2207.723343 1737.859645" width="2207.723343pt" xmlns="http://www.w3.org/2000/svg"><g transform="matrix(.1 0 0 -.1 0 1772.859645)"><path d="m2162 17705c-18-38-15-140 3-155 11-9 15-36 16-109 0-126 16-352 28-418 5-28 17-62 25-76l16-24-152-12c-348-27-520-31-1290-31-808 0-808 0-808-21s0-21 978-16c914 3 1062 7 1290 33 54 7 61 24 29 72-42 60-50 133-56 467l-6 310-31 3c-24 2-33-2-42-23z"/><path d="m381 17628c-11-24-26-68-34-98-8-29-19-56-25-58-5-1-27 4-47 12-50 21-65 20-65-5 0-21 51-49 90-49 23 0 22-4-9-110l-17-55-93-3c-81-2-92-5-89-20 3-14 17-17 86-20 79-3 82-4 72-23-12-22-6-39 15-39 11 0 35 27 49 56 1 1 23-2 51-5l49-6-3-48c-2-37 1-48 14-53 21-8 32 8 40 58 6 35 9 38 40 38 18 0 38 6 44 14 13 16 9 20-31 30-33 7-32 1-10 96l18 75 46 5c26 3 51 9 55 13 12 12-18 27-54 27-38 0-38 0-17 69 11 39 13 56 4 65-19 19-44-8-60-67-8-30-18-58-21-62-4-3-25-3-49 1-42 7-42 7-35 43 3 20 17 60 31 90 30 66 30 71 0 71-19 0-29-10-45-42zm83-244c-4-20-12-57-19-83l-12-46-48 3c-27 1-50 3-51 5-1 1 7 37 18 80l21 77h49 49z"/><path d="m1920 17653c-14-2-54-11-90-20-54-14-73-25-121-72-45-44-61-68-73-110-43-148 4-261 110-261 87 0 124 40 124 134 0 114-44 165-125 146-46-10-50-8-36 18 34 65 135 115 233 116 42 1 51-3 78-33 23-25 34-31 43-22 17 17-4 62-38 82-35 20-70 27-105 22zm-111-254c20-57 14-117-14-144-13-14-34-25-45-25-46 0-88 76-78 140 4 26 59 60 99 60 21 0 29-7 38-31z"/><path d="m1500 17584c-14-14-67-65-117-113-91-85-109-115-78-128 11-3 34 14 69 53 30 33 56 57 60 54 5-6 0-26-44-175-11-38-20-84-20-102 0-28 4-33 24-33 21 0 25 6 31 46 12 81 72 262 109 328 20 35 36 71 36 80 0 25-43 19-70-10z"/><path d="m900 17582c0-4-34-47-75-95-77-90-88-113-58-124 11-4 24 3 40 23 29 37 29 25-3-67-14-41-28-98-31-127-6-52-5-54 17-50 20 2 26 13 37 61 16 73 79 260 104 309 27 53 25 78-6 78-14 0-25-4-25-8z"/><path d="m1114 17487c-152-141-191-182-187-194 10-28 47-10 116 57 39 38 73 66 75 61 1-4-12-41-29-82-39-92-46-184-14-184 15 0 21 11 31 60 13 62 85 242 124 308 12 20 19 41 15 47-14 23-47 5-131-73z"/><path d="m5853 17523c-96-95-285-331-277-345 15-24 48-2 106 70 86 106 207 244 231 263 22 18 17 49-7 49-8 0-32-17-53-37z"/><path d="m6144 17438c-167-188-195-230-127-195 29 16 117 104 217 219 56 65 67 98 33 98-7 0-63-55-123-122z"/><path d="m13564 17539c-10-12-55-46-99-77-177-124-265-197-265-219 0-27 38-11 115 48 44 34 123 92 175 129 106 75 145 113 135 129-10 18-40 13-61-10z"/><path d="m17795 17425c-193-154-235-192-235-211 0-34 48-5 211 126 96 78 189 153 208 169 35 28 36 51 2 51-9 0-93-61-186-135z"/><path d="m4935 17458c-31-46-78-114-105-153-49-69-60-110-30-110 25 0 235 307 226 330-11 31-36 13-91-67z"/><path d="m5561 17528c-6-7-35-43-64-80-28-36-87-109-130-162-72-88-85-116-54-116 14 0 83 69 143 144 21 27 65 81 96 120 32 39 57 78 55 86-3 19-32 25-46 8z"/><path d="m9497 17443c-117-100-157-147-157-183 0-33 34-24 61 17 13 21 74 80 134 132 61 53 110 102 110 111 0 36-39 16-148-77z"/><path d="m10099 17517c-15-12-61-51-104-87-86-71-179-176-170-191 13-20 37-5 126 82 52 50 122 111 157 137 63 47 76 75 37 79-11 2-32-7-46-20z"/><path d="m12181 17510c-116-64-341-249-341-280 0-35 29-21 118 55 48 42 138 110 200 152s111 81 109 87c-7 20-32 16-86-14z"/><path d="m12465 17488c-37-29-93-70-124-92-113-78-184-166-135-166 9 0 42 24 73 53 32 29 82 70 112 90 92 63 174 133 174 148 0 29-33 18-100-33z"/><path d="m13183 17510c-82-49-333-279-333-306 0-34 44-6 174 112 77 69 164 139 193 157 32 19 52 38 51 47-5 25-30 21-85-10z"/><path d="m14703 17467c-139-116-273-247-273-268 0-38 34-17 153 94 67 61 150 135 184 162 63 50 81 85 43 85-10 0-59-33-107-73z"/><path d="m15040 17459c-74-45-166-100-204-123-78-46-97-69-78-88 10-10 16-10 30-1 9 7 104 65 209 129 198 120 219 136 208 154s-29 11-165-71z"/><path d="m16483 17497c-34-23-96-71-138-107-43-36-104-86-136-112-62-51-84-81-75-104 11-30 76-1 76 34 0 6 7 15 15 19 8 5 62 49 121 98 58 50 135 111 172 136s67 52 67 60c0 28-41 18-102-24z"/><path d="m5248 17473c-52-53-191-226-209-260-14-26-5-55 14-47 8 3 52 53 98 112s106 130 133 159c30 33 46 58 42 68-9 25-30 17-78-32z"/><path d="m6388 17458c-81-80-259-299-255-313 10-30 47-3 124 90 46 55 117 135 159 178 48 49 74 83 70 92-10 27-34 16-98-47z"/><path d="m9245 17394c-74-69-135-132-135-140 0-40 60 1 215 147 39 36 79 70 89 76 24 13 15 43-13 43-12 0-77-52-156-126z"/><path d="m9775 17469c-115-86-205-170-205-190 0-34 39-21 92 31 28 28 91 80 140 117s87 71 85 77c-9 26-47 14-112-35z"/><path d="m11928 17492c-287-215-366-282-354-301s33-12 78 25c23 20 114 91 201 157s156 125 154 131c-7 21-42 16-79-12z"/><path d="m12790 17492c-25-16-70-55-102-88-92-97-178-195-178-205 0-31 51 6 155 112 66 67 139 135 163 151 42 29 50 50 21 56-8 1-34-10-59-26z"/><path d="m13870 17513c-8-4-55-33-105-66-179-119-295-217-295-248 0-33 30-21 105 45 40 35 135 105 212 156 76 51 139 99 141 106 4 14-29 18-58 7z"/><path d="m15435 17479c-27-23-108-79-180-126-159-105-205-141-205-158 0-33 39-14 211 100 204 137 276 195 265 213-13 21-40 12-91-29z"/><path d="m17048 17468c-133-70-318-229-318-274 0-21 29-36 55-30 25 6 34 31 14 38-7 2 32 43 85 90 74 66 123 100 207 143 62 32 109 62 106 68-8 26-56 15-149-35z"/><path d="m16770 17461c-154-78-372-243-356-269 13-21 37-13 89 31 96 81 211 158 305 204 89 44 109 64 76 77-9 3-16 6-17 6s-45-22-97-49z"/><path d="m17265 17481c-112-53-345-237-345-273 0-42 73-27 91 18 15 41 199 177 295 220 40 18 54 29 52 42-5 26-27 24-93-7z"/><path d="m17590 17488c-220-137-320-210-320-234 0-36 50-24 97 24 20 20 189 134 233 157 46 24 63 45 49 61-15 18-17 18-59-8z"/><path d="m6663 17473c-37-33-241-264-266-302-9-14-15-32-12-39 4-11-137-12-773-8-427 3-895 8-1039 12-258 5-263 5-263-15 0-19 9-20 223-25 122-3 283-8 358-12l135-5v-137c-1-75 7-227 18-337 16-176 18-254 12-660-8-568-21-955-37-1060-15-105-15-705 0-1245 7-228 15-671 19-983 6-457 10-569 20-576 8-5 12-19 10-32-2-20-10-25-48-29-32-4-46-10-48-22-3-18 19-24 70-20 20 2 34-15 41-48 10-49 58-166 84-205 41-63 102-123 178-174 138-94 133-93 339-89 181 3 181 3 246 37 105 55 184 116 269 211 91 101 145 203 156 293 5 38 12 57 21 57 21 0 26 37 19 166-11 237-16 994-6 994 42 0 57 98 19 124-25 18-103 22-113 6-3-5-15-10-25-10-27 0-36-21-15-36 10-7 15-19 12-27-7-18 19-57 39-57 12 0 14-60 14-416 0-268 4-422 10-435 6-10 9-58 8-107l-3-87-14 45c-20 67-69 162-94 183-51 43-168 128-242 177-73 49-86 55-160 63-44 5-114 10-155 10-71 1-80-1-175-49-237-120-283-158-359-295l-35-63-4 490c-2 269-7 501-12 516-7 27-7 27 66 30 66 3 74 5 74 23s-6 20-72 17l-71-3-6 313c-18 969-18 1098-1 1258 35 322 52 1516 25 1695-6 39-13 166-17 283l-6 212h788 788l-41-44c-49-53-74-99-66-120 12-31 65-13 86 29 11 19 13-291 14-1648 1-920 4-1694 9-1722l7-50-24 35c-28 41-63 51-73 21-13-40 62-141 105-141 32 0 45 13 76 81 13 27 30 52 39 55 8 3 15 15 15 25 0 24-36 26-61 3-17-16-19-15-29 10-7 19-9 577-8 1713l3 1686 32-51c22-35 39-52 53-52 26 0 26 26 0 65-20 28-50 91-50 103 0 2 78 1 173-3 94-5 255-8 357-7s1132 6 2290 12c1158 5 2339 12 2625 15l520 6 1-133c0-73 6-230 13-348s15-333 18-477l5-263h-71c-56 0-73-3-78-16-10-26 18-35 85-29l63 6-5-703c-3-387-10-813-15-948-6-135-15-375-21-535-5-159-13-316-16-349-5-45-1-78 17-140 51-180 138-275 394-432l80-49 122-3c143-4 185 7 328 85 153 84 291 251 340 410 14 48 28 93 30 99s34 14 71 17c37 4 72 11 77 16 20 20-7 31-74 31h-71l7 39c4 27 2 49-9 70-14 27-16 138-16 1003 0 542-5 1057-10 1163l-11 190 26 18c19 15 25 27 25 58 0 56-26 79-91 79-44 0-56-4-80-30-16-16-29-34-29-39s-10-11-22-13c-28-4-30-31-3-37 11-2 31-12 44-22 13-11 36-19 51-19 27 0 27-1 33-82 4-46 7-534 7-1085v-1003l-38 38c-38 38-150 124-232 179-78 51-136 73-194 73-30 0-58 5-61 10-3 6-37 10-75 10-61 0-76-4-154-45-99-52-237-145-283-189-17-17-52-58-78-91l-46-60 6 210c3 116 10 320 15 455 6 135 13 605 16 1045 4 709 3 849-16 1230-11 237-21 469-22 517l-3 86 125 9c168 11 1658 10 1738-1 34-5 62-11 62-13 0-3-9-18-20-34-34-46-62-118-55-139 11-36 43-24 55 20 6 21 16 42 22 46 8 5 9 2 5-10-4-10-7-229-7-488v-469l-26 20c-15 12-35 21-44 21-35 0-29-30 20-94l48-65-41-3c-29-2-42-8-42-18 0-12 19-16 98-18 92-3 97-2 97 18 0 15-7 20-26 20-22 0-24 2-14 14 12 16 48 80 74 133 9 18 13 39 10 47-10 26-41 19-52-11-6-16-17-37-26-48-14-18-15 23-16 472 0 336 3 501 11 520 11 28 11 28 39-32 15-33 31-68 34-77 6-19 50-25 60-10 3 5-14 49-38 98l-43 89 1061 7c955 6 1251 12 1713 34 123 6 145 9 160 26 17 19 15 19-167 14-102-3-302-11-445-17-244-10-1142-12-3330-9-796 2-1313-4-2558-26-213-3-297-2-292 6 15 25 264 223 322 257 40 24 63 44 63 55 0 27-21 22-97-22-83-48-320-244-336-277l-10-23h-1529c-1464 0-1528 1-1519 18 14 26 296 277 339 301 20 11 9 41-16 41-37 0-382-312-382-345 0-13-21-15-140-15-77 0-140 3-140 6 0 18 107 152 183 228 88 88 100 116 44 102-47-11-266-267-289-338-5-15-31-15-622-2l-398 9 97 110c53 61 123 139 156 174 56 60 68 91 36 91-7 0-27-12-44-27zm6875-3623c111-57 260-166 313-229 32-37 49-73 77-162 15-44 16-196 2-204-5-3-10-16-10-28-1-59-47-149-131-253-91-112-177-171-342-234-48-19-72-22-146-18-80 4-95 7-143 38-29 18-80 47-112 64-33 17-92 63-132 101-168 164-205 301-141 520 21 73 87 169 162 237 55 49 206 149 216 142 5-2 26 4 48 16 22 11 53 20 68 21 15 0 37 4 48 9s53 9 93 9c62 1 81-3 130-29zm-7924-1266c5-14 17-16 73-10 36 4 74 11 85 17 38 21 107-1 197-62 158-107 225-163 248-205 38-69 73-175 80-241l6-62-79-3c-62-2-79-6-79-18s17-16 77-20l76-5-25-60c-63-150-244-322-413-391-62-25-71-26-205-22-132 5-143 6-191 34-163 94-243 180-298 319-25 65-36 107-33 125 3 15 1 32-5 38-8 8-7 23 1 56 6 25 11 64 11 88 0 45 56 162 106 222 41 48 135 109 284 183 76 38 76 38 84 17z"/><path d="m13482 13797c-13-14-22-36-22-56 0-18-5-42-11-53-9-16-8-24 4-36 35-34 64 8 69 103 3 66-7 77-40 42z"/><path d="m13350 13750c-8-6-55-10-104-8-81 2-90 0-97-17-21-58-59-184-59-197 0-9-9-27-20-41-24-30-26-60-5-77 27-22 139-7 193 27 64 39 86 79 75 135l-9 43h-75-76l8 35c5 19 9 38 9 43 0 4 40 7 89 7 71 0 93 4 111 18 37 30 0 59-40 32zm-70-203c0-39-17-58-80-86-62-28-84-28-75 2 4 12 9 34 12 50 3 15 10 27 17 27 6 0 22 9 36 20s40 20 58 20c30 0 32-2 32-33z"/><path d="m13283 13348c-12-20-33-81-33-99 0-21 32-49 56-49 21 0 84 52 84 69 0 6 35 11 83 13 65 2 82 6 82 18s-17 16-78 18c-56 2-87 8-110 22-37 23-72 26-84 8z"/><path d="m13728 13330c-62-6-73-12-65-35 4-9 18-15 39-14 55 1 111 13 115 26 7 20-29 29-89 23z"/><path d="m13085 13306c-33-24-6-37 71-34 61 3 69 5 69 23 0 17-8 20-60 23-41 2-66-2-80-12z"/><path d="m12791 13291c-8-5-11-16-8-25 5-13 22-16 85-16 79 0 122 15 108 38-9 14-164 16-185 3z"/><path d="m5527 12454c-3-4-21-9-39-13-26-5-34-13-39-36-11-48-10-232 1-259 8-23 15-26 57-26 53 0 136 34 166 67 14 16 17 34 15 84l-3 64-42 3c-27 2-60-4-89-18-26-11-48-19-49-18-1 2-5 24-7 49l-5 45 44 14c29 8 70 11 113 7 37-3 71-3 74 0 3 4-1 15-11 25-13 15-31 18-98 18-45 0-84-3-88-6zm123-188c0-40-18-62-75-87-64-30-75-26-75 24 0 43 1 44 53 70 28 14 62 26 75 27 19 0 22-5 22-34z"/><path d="m5648 12083c-9-10-18-27-20-38-2-14-12-21-36-23s-32-8-32-23c0-14 7-19 25-19 20 0 25-5 25-24 0-44 82-52 120-11 20 21 24 36 24 79-1 29-4 58-8 65-11 18-81 13-98-6z"/><path d="m5260 12000c0-19 7-20 100-20s100 1 100 20-7 20-100 20-100-1-100-20z"/><path d="m5845 12009c-14-22 14-30 106-27 76 2 94 6 94 18s-19 16-97 18c-63 2-99-1-103-9z"/><path d="m6821 17352c-151-168-159-179-136-188 19-8 45 15 197 179 105 113 125 148 88 154-8 2-74-63-149-145z"/><path d="m10995 17469c-22-17-74-55-115-84-127-90-234-205-213-226 8-8 38 14 99 68 49 44 132 111 184 149 104 77 125 98 115 114s-28 11-70-21z"/><path d="m14091 17449c-81-56-255-195-285-228-15-17-16-23-6-36 18-21 28-19 60 15 37 40 229 193 296 235 30 19 54 42 54 50 0 28-45 15-119-36z"/><path d="m14421 17418c-184-114-254-183-207-201 9-4 33 11 60 36 24 23 105 80 180 127 89 56 136 91 136 103 0 31-34 18-169-65z"/><path d="m7224 17438c-52-48-184-211-184-227 0-28 39-6 90 50 30 34 83 91 118 127 61 62 73 92 37 92-8 0-36-19-61-42z"/><path d="m8724 17423c-60-62-159-181-188-225s-3-80 28-40c8 9 38 46 67 82s81 95 116 132c61 64 80 108 48 108-9 0-41-26-71-57z"/><path d="m9000 17433c-147-125-230-219-215-243 11-18 22-10 111 78 49 49 113 109 143 135 35 31 51 52 47 62-9 25-28 18-86-32z"/><path d="m10569 17463c-80-55-239-217-239-244 0-5 9-9 20-9s61 41 121 100c56 55 114 107 131 116 18 9 28 22 26 32-5 23-28 25-59 5z"/><path d="m15837 17470c-16-5-49-26-75-46-73-59-192-187-192-206 0-35 38-17 95 43 80 87 169 159 211 170 25 7 34 15 32 27-4 20-31 24-71 12z"/><path d="m16125 17452c-129-87-315-251-315-278 0-30 42-12 102 44 82 77 206 174 258 203 25 14 40 29 38 39-5 24-40 21-83-8z"/><path d="m8369 17387c-159-139-234-237-183-237 8 0 39 25 67 57 29 31 92 92 142 137 49 44 90 87 90 96 0 33-36 17-116-53z"/><path d="m11555 17416c-77-36-140-83-227-170-57-56-72-86-43-86 8 0 47 28 86 63 113 98 139 117 217 155 51 24 72 39 70 51-5 26-28 23-103-13z"/><path d="m3450 17120c0-20 5-21 88-18 69 2 87 6 87 18s-18 16-87 18c-83 3-88 2-88-18z"/><path d="m3725 17130c-14-22 13-31 86-28 58 2 74 6 74 18s-16 16-77 18c-49 2-79-1-83-8z"/><path d="m4015 17129c-14-22 14-30 106-27 76 2 94 6 94 18s-19 16-97 18c-63 2-99-1-103-9z"/><path d="m12002 17083c-14-3-35-23-53-51-35-55-45-90-31-104 19-19 51 3 74 50l23 47 6-455c3-250 9-467 13-482 8-28-5-40-19-18-3 6-15 10-26 10-24 0-26-32-3-51 9-8 27-31 40-51 43-68 94-47 149 61 30 60-17 71-53 12l-18-30-12 72c-8 46-13 215-15 469-2 375-1 397 16 392 29-9 20 34-19 87-20 27-39 48-42 48-4-1-17-4-30-6z"/><path d="m3727 17063c-3-10-8-31-12-48-3-16-24-60-46-97-38-65-48-101-30-112 17-11 37 5 72 57l34 52-1-705c-1-388 2-759 6-825 14-221 15-997 1-1175-7-91-17-217-22-280-4-63-13-153-18-200s-10-121-10-164l-1-80-34 37c-35 38-76 50-76 21 0-9 18-38 41-65 50-60 89-117 89-129 0-6-20-10-45-10-37 0-45-3-45-19s11-19 83-24c83-6 112 2 89 25-18 18-15 35 7 41 12 3 24 19 30 44 6 21 32 67 58 102 27 35 56 76 67 92 19 31 16 59-7 59-15 0-142-166-161-211l-13-31-13 31c-13 32-9 234 9 496 29 406 33 545 28 1025-3 278-6 834-8 1236-4 716-4 730 15 700 27-47 57-76 77-76 29 0 33 20 10 44-12 13-43 63-69 112-39 74-51 90-74 92-19 2-28-2-31-15z"/><path d="m13891 16766c-6-7-14-61-18-120-6-102-5-106 14-106 24 0 33 18 33 63 0 17 5 57 12 88 9 46 9 61-1 73-16 20-25 20-40 2z"/><path d="m16317 16733c-14-13-6-40 28-109 19-38 35-76 35-85s-25-49-55-90-55-77-55-82c0-4 7-10 16-14 18-7 55 25 97 86l30 44 19-36c20-40 67-70 101-65 35 5 32 32-6 46-22 8-41 26-56 52l-23 41 31 47c17 26 49 67 71 92 43 48 49 67 24 77-19 7-74-44-117-110l-31-48-39 80c-36 75-53 92-70 74z"/><path d="m15114 16706c-3-9 19-48 53-93 33-43 63-83 67-90 9-17-14-59-63-113-44-48-50-67-24-77 16-6 76 50 113 106 15 23 15 23 48-23 35-49 72-66 97-46 21 18 19 29-10 40-13 5-40 31-59 57l-35 48 32 55c17 30 38 67 46 82 11 19 13 30 5 38-19 19-43 0-76-61-18-32-36-59-39-59-4 0-15 12-25 28-34 52-97 122-111 122-7 0-16-7-19-14z"/><path d="m15936 16595c-91-183-100-220-67-257 18-19 28-20 113-16 153 7 211 63 137 134-62 59-74 84-79 169-4 71-7 80-25 83-17 2-31-17-79-113zm126-152 40-41-23-15c-22-14-179-36-179-25 0 5 39 82 80 157 12 23 12 23 26-5 9-16 33-48 56-71z"/><path d="m11138 16627c-33-29-40-43-63-139-14-59-27-116-28-127 0-11-10-22-20-25-11-2-17-11-15-18 4-10 37-13 139-13 185 0 237 24 172 78-80 65-103 111-103 204 0 47-12 73-34 73-6-1-28-15-48-33zm42-144c9-29 29-62 55-90l42-43h-36c-20 0-60-3-89-7l-53-6 7 29c16 70 47 164 54 164 4 0 13-21 20-47z"/><path d="m10532 16628c-6-7-14-31-18-53-7-39-41-125-49-125s-82 106-89 128c-9 28-42 29-51 1-8-23 40-101 94-155 27-26 28-31 16-55-8-14-30-45-49-68-40-48-43-59-20-68 17-6 53 24 94 79l27 37 32-35c35-37 52-42 70-21 8 11 5 19-15 38-14 13-35 36-45 51-19 26-19 27 2 80 40 101 51 148 38 164-14 17-23 18-37 2z"/><path d="m13444 16594c-6-24-1-148 14-354 7-93 8-95 32-95 23 0 26 5 31 50 3 28 11 62 19 77l13 27 31-26c81-68 231-114 264-81 26 26 13 38-38 38-36 0-67 9-111 30-73 37-99 62-99 95 0 44 65 124 101 125 40 0 65 71 28 78-30 6-140-89-179-155-21-34-40-59-44-56-3 3-6 61-6 128 0 120-6 145-37 145-7 0-16-11-19-26z"/><path d="m11390 16580c0-14 7-20 21-20 35 0 57-18 100-83 23-34 51-72 62-84 20-22 20-22-17-60-20-21-36-45-36-55 0-29 33-21 69 16 33 34 34 34 68 19 45-18 97-14 101 9 3 13-6 19-36 24-67 11-70 16-41 76 36 74 56 155 42 169-22 22-40 1-57-65-10-37-26-76-36-88-17-21-17-20-66 55-54 84-84 107-138 107-29 0-36-4-36-20z"/><path d="m15575 16510c-14-22 11-30 96-30 82 0 89 1 89 20s-7 20-89 20c-50 0-93-4-96-10z"/><path d="m10805 16470c-16-4-58-8-92-9-56-1-63-3-63-21s7-20 68-20c81 0 182 16 196 30 25 25-42 37-109 20z"/><path d="m14035 15890c-14-23 13-31 91-28 62 2 79 6 79 18s-17 16-82 18c-52 2-84-1-88-8z"/><path d="m14310 15880c0-18 7-20 75-20s75 2 75 20-7 20-75 20-75-2-75-20z"/><path d="m14895 15890c-13-21 12-31 71-28 44 2 59 7 59 18 0 19-119 28-130 10z"/><path d="m12890 15860c0-18 7-20 80-20s80 2 80 20-7 20-80 20-80-2-80-20z"/><path d="m13175 15869c-14-22 14-30 106-27 76 2 94 6 94 18s-19 16-97 18c-63 2-99-1-103-9z"/><path d="m13475 15870c-14-22 13-31 86-28 58 2 74 6 74 18s-16 16-77 18c-49 2-79-1-83-8z"/><path d="m12340 15861c-22-4-35-12-35-21 0-21 142-22 155 0 5 8 6 18 4 22-6 9-71 9-124-1z"/><path d="m12035 15850c-14-23 13-31 91-28 62 2 79 6 79 18s-17 16-82 18c-52 2-84-1-88-8z"/><path d="m14692 15748c-7-7-12-20-12-30 0-11-7-18-18-18-23 0-72-52-102-107-19-35-21-45-10-58 15-19 36-19 47-2 4 8 21 22 36 32l28 18-8-114c-10-144-8-368 7-769 15-411 29-821 31-890 1-30-3-95-7-145-8-80-11-88-22-67-14 25-47 30-55 8-6-16 41-96 81-138 29-32 70-37 78-10 4 9 12 31 19 47 52 121 58 155 26 155-13 0-26-17-45-57l-26-58 5 110c8 160 6 212-26 985-16 374-18 799-4 914l10 79 45-69c25-38 50-68 55-67 19 4 16 53-4 82-12 16-21 32-21 36s-13 24-30 45c-16 21-30 46-30 57 0 18-17 43-30 43-3 0-11-5-18-12z"/><path d="m6867 15664c-11-12-8-50 7-81 28-55 69-222 58-235-22-28-91-171-86-179 18-30 71 21 99 95l18 46 27-43c46-73 99-104 128-75 14 14 15 28 3 47-8 12-12 12-24 2-13-10-20-6-41 22-14 18-32 49-40 69-15 34-14 39 25 139 55 141 54 138 34 145-24 10-40-11-74-95l-29-75-12 45c-7 24-20 73-29 109-13 50-21 66-37 68-11 2-23 0-27-4z"/><path d="m16453 15513c-47-52-134-241-165-363-25-96-30-137-31-245-2-122 0-133 23-174 28-50 50-67 74-58 15 6 14 11-8 44-42 63-50 118-37 241 20 191 84 377 174 510 43 65 21 99-30 45z"/><path d="m3367 15493c-3-5-8-30-11-58-7-48-42-181-53-199-7-11-66 80-105 162-32 66-60 80-66 34-4-24 48-125 105-206 24-34 33-55 29-71-3-12-33-60-66-106-64-90-71-109-41-109 21 0 65 47 118 126l35 53 43-43c47-46 95-72 120-62 24 9 18 24-23 49-32 21-112 100-112 111 0 2 13 44 29 94 40 120 54 201 40 219-12 14-35 17-42 6z"/><path d="m15506 15423c-2-10-8-54-11-98-7-86-35-260-61-378-29-129-31-145-23-158 5-9 29-10 108-1 56 7 135 12 175 12 80 0 90 5 100 56 8 35-15 67-43 62-12-3-15-13-13-40l3-36-138-4c-76-2-139-3-140-3-2 1 2 17 8 36 14 49 45 210 58 304 7 44 16 111 22 148 13 80 6 117-21 117-10 0-21-8-24-17z"/><path d="m17950 15428c0-6 18-27 40-45 117-100 132-260 45-457-37-84-112-194-178-263-46-48-56-64-44-69 36-13 112 53 184 161 152 228 189 445 98 582-19 28-49 63-68 77-35 27-77 35-77 14z"/><path d="m18968 15398c-17-18-37-48-45-66-21-50-53-210-53-267 0-41-5-54-31-81-35-36-34-70 1-61 19 5 20 0 20-74 0-166 54-202 194-132 60 30 88 52 80 64-10 16-44 9-104-21-67-34-95-37-104-14-3 9-6 69-6 134 0 112 2 121 26 157 93 137 160 343 122 381-23 23-68 14-100-20zm62-36c0-49-90-264-97-231-7 29 34 179 58 214 27 39 39 44 39 17z"/><path d="m16523 15204c-13-33 5-143 30-188l25-45-49-57c-52-61-59-81-33-91 10-4 31 13 66 51l50 56 26-28c49-51 168-95 179-65 2 6-23 26-55 43-33 17-72 45-88 61l-27 29 40 47c22 27 67 71 101 98 62 51 73 71 47 81-22 9-59-18-147-106l-76-76-16 33c-9 19-16 59-16 91 0 57-11 82-37 82-8 0-16-7-20-16z"/><path d="m17834 15133c-20-37-45-81-54-97l-18-29-48 66c-45 64-77 83-87 55-5-15 42-88 84-133l29-30-41-60c-54-81-81-134-74-145 15-24 37-4 89 75 31 47 58 85 61 85 2 0 28-18 57-40 51-38 90-50 103-31 3 6-11 22-31 38-20 15-51 41-70 56l-33 28 55 96c55 98 62 125 32 131-11 2-28-17-54-65z"/><path d="m17327 15163c-4-3-7-25-7-47 0-23-13-106-30-186-16-80-25-149-21-153 21-21 46-1 58 48 19 81 54 210 58 213 2 2 16-18 31-45 15-26 47-72 71-102l43-54-32-24c-30-22-116-52-196-68-24-5-32-12-30-23 11-53 304 50 316 110 1 8-11 30-28 49-40 45-88 117-140 212-33 59-49 77-65 77-12 0-25-3-28-7z"/><path d="m15898 15107c-37-8-48-15-48-30 0-18 5-19 83-11 45 4 109 8 141 8 33 1 61 6 63 12 10 29-140 42-239 21z"/><path d="m16930 15020c0-19 7-20 118-20 64 0 124 5 132 10 30 20-13 30-132 30-111 0-118-1-118-20z"/><path d="m18350 14880c0-19 7-20 158-20 86 0 164 5 172 10 32 21-17 30-172 30-151 0-158-1-158-20z"/><path d="m18680 14578c-311-5-1177-11-1925-16-1199-6-1360-9-1360-22s157-15 1355-14c745 0 1617 4 1938 9 579 8 583 8 580 28-2 11-7 21-13 21-5 1-264-2-575-6z"/><path d="m17395 14413c-16-8-41-25-53-37-31-27-72-108-72-140 0-29 41-62 65-52 20 7 19 33-1 44-28 15 29 110 83 140 56 31 79 23 94-31 18-66-17-152-99-249-67-78-93-118-99-152-8-53 15-60 166-52 69 4 130 11 135 16 16 16-15 40-51 40-19 0-54-5-78-11-50-13-115-5-115 14 0 7 30 48 65 92 84 102 135 203 135 262 0 54-21 108-48 122-29 16-92 13-127-6z"/><path d="m5926 14178c-5-25-19-326-20-428-1-63 0-65 24-65 23 0 25 4 28 45 6 101 7 101 71 31 58-62 58-62 112-59 70 4 75 28 9 42-36 7-55 20-98 67l-53 57 19 39c27 52 98 121 158 153 54 29 63 53 23 58-35 4-140-68-188-127l-36-47 3 103c3 56 1 114-2 128-8 32-44 34-50 3z"/><path d="m6831 13366c-21-24 13-39 79-34 61 4 88 17 76 37-11 16-141 14-155-3z"/><path d="m7110 13355c0-21 32-35 79-35 33 0 41 3 41 19 0 21-26 31-82 31-27 0-38-4-38-15z"/><path d="m6530 13341c0-28 24-33 117-25 72 6 83 9 83 25 0 17-9 19-100 19s-100-2-100-19z"/><path d="m5364 13325c-11-27 7-35 86-35 91 0 110 5 110 31 0 17-8 19-95 19-74 0-97-3-101-15z"/><path d="m5660 13320c0-20 5-21 78-18 60 2 77 6 77 18s-17 16-77 18c-73 3-78 2-78-18z"/><path d="m5945 13329c-14-22 14-30 106-27 76 2 94 6 94 18s-19 16-97 18c-63 2-99-1-103-9z"/><path d="m14245 13330c-13-22 9-30 81-30 67 0 74 2 74 20s-7 20-74 20c-41 0-78-4-81-10z"/><path d="m14530 13320c0-19 7-20 100-20s100 1 100 20-7 20-100 20-100-1-100-20z"/><path d="m14830 13320c0-19 5-21 72-18 60 2 73 6 76 21s-6 17-72 17c-70 0-76-2-76-20z"/><path d="m3905 13310c-13-22 9-30 81-30 67 0 74 2 74 20s-7 20-74 20c-41 0-78-4-81-10z"/><path d="m4190 13300c0-19 7-20 100-20s100 1 100 20-7 20-100 20-100-1-100-20z"/><path d="m4490 13300c0-20 5-21 78-18 60 2 77 6 77 18s-17 16-77 18c-73 3-78 2-78-18z"/><path d="m4775 13309c-14-22 14-30 106-27 76 2 94 6 94 18s-19 16-97 18c-63 2-99-1-103-9z"/><path d="m3703 13272c-30-19-106-192-96-217 10-29 47-12 80 38l32 47 4-322c3-257 7-338 21-395 21-89 20-278-1-230-14 30-34 35-54 11-11-13-9-23 11-61 29-54 64-83 101-83 22 0 45 16 99 70 38 39 70 74 70 79s-6 13-13 19c-10 9-26 0-66-35-28-25-55-43-58-40-3 4-11 64-18 134-8 70-18 157-24 193-14 87-20 698-6 674 21-36 57-74 71-74 22 0 17 25-22 95-49 88-93 121-131 97z"/><path d="m11895 13270c-14-23 13-31 91-28 62 2 79 6 79 18s-17 16-82 18c-52 2-84-1-88-8z"/><path d="m12225 13270c-13-22 9-30 81-30 67 0 74 2 74 20s-7 20-74 20c-41 0-78-4-81-10z"/><path d="m12495 13270c-13-21 9-30 76-30 62 0 69 2 69 20s-7 20-69 20c-39 0-73-4-76-10z"/><path d="m2742 13182c-37-39-59-106-78-237-9-62-22-117-30-126s-35-27-60-40c-44-24-56-45-30-55 8-3 28 2 45 10 42 22 44 21 37-26-15-89-25-218-20-233 13-33 52-37 126-13s162 87 123 88c-11 0-58-13-105-30-47-16-86-30-87-30-8 0 0 105 12 175 8 44 15 91 15 105 0 18 16 41 53 75 170 162 209 365 69 365-35 0-49-5-70-28zm88-21c38-25-5-150-80-232-39-44-39-44-35-14 3 17 9 57 14 90 11 67 32 125 56 149 19 18 24 19 45 7z"/><path d="m947 13133c-3-5-8-30-12-58-6-46-33-205-55-330-25-139-29-164-33-211-8-78-9-78 145-71 179 8 242 31 236 86-4 37-44 42-58 7-5-14-11-26-14-26-2 0-40-7-83-15s-100-15-127-15h-49l7 63c3 34 13 94 21 132 30 146 75 427 69 436-6 11-41 12-47 2z"/><path d="m1769 12988c-4-45 37-187 67-234 16-23 15-27-30-104-26-45-49-94-53-111-5-29-4-30 23-27 19 2 30 10 33 23 2 11 20 48 39 83l36 62 39-40c41-41 102-66 137-55 34 11 22 31-27 46-34 10-57 27-86 61l-39 47 55 119c54 118 58 148 21 140-12-2-34-37-65-106l-47-103-25 83c-15 46-27 92-29 103-4 23-47 34-49 13z"/><path d="m1330 12780c0-19 7-20 129-20 85 0 132 4 137 11 13 22-22 29-143 29-116 0-123-1-123-20z"/><path d="m2202 12783c-13-11-19-23-14-30 12-19 207 7 207 27 0 12-19 16-86 18-71 2-90 0-107-15z"/><path d="m2686 12353c-4-4-305-12-669-16-920-11-1142-18-1142-37 0-17 248-18 1285-2 581 8 628 12 617 45-4 14-79 22-91 10z"/><path d="m10727 12294c-4-4-7-37-7-74s-11-121-24-186c-14-66-30-166-36-224s-18-157-26-221c-18-145-16-154 45-144 57 10 173 10 224 0 47-9 87 14 87 50 0 28-23 34-49 12-12-10-47-12-140-9l-123 4 6 42c4 22 11 88 16 146 14 148 31 256 66 410 9 36 14 94 12 130-3 57-6 65-23 68-12 2-24 0-28-4z"/><path d="m1737 12170c-78-24-142-119-104-157 24-24 47-9 47 31 0 29 6 39 37 61 61 41 165 29 177-21 11-41-23-81-130-154-108-73-154-119-154-151 0-36 42-41 215-30 88 6 168 11 178 11 11 0 17 8 17 22 0 21 0 21-177 15l-177-7 24 23c14 13 67 51 118 86 133 91 165 147 127 221-24 46-126 71-198 50z"/><path d="m14283 12065c-62-26-127-139-144-247-8-50-18-78-31-90-22-19-18-48 6-48 8 0 17-14 21-30 15-69 86-120 167-120 112 0 166 111 82 167-41 26-135 23-174-6l-30-22v24c0 13 14 36 31 53 83 79 177 264 153 301-16 25-47 32-81 18zm27-61c0-21-64-140-95-179-51-62-21 49 36 134 41 61 59 75 59 45zm41-344c37-20 15-73-35-86-13-3-41 2-62 11-37 16-38 17-16 26 22 8 31 29 12 29-5 0-10 4-10 9 0 19 80 27 111 11z"/><path d="m6430 12020c0-27 34-34 125-25 65 6 75 9 75 26s-8 19-100 19c-93 0-100-1-100-20z"/><path d="m6725 12030c-14-22 13-31 86-28 58 2 74 6 74 18s-16 16-77 18c-49 2-79-1-83-8z"/><path d="m7015 12029c-14-22 14-30 106-27 76 2 94 6 94 18s-19 16-97 18c-63 2-99-1-103-9z"/><path d="m15392 12018c-88-11-122-23-122-42 0-23 10-25 75-14 195 30 231 39 220 59-7 11-72 10-173-3z"/><path d="m3640 12013c-56-8-70-14-70-28 0-23 18-28 76-20 56 7 81 28 53 46-14 9-17 9-59 2z"/><path d="m4747 12010c-62-8-84-20-72-40 6-9 31-11 93-6 92 7 120 19 101 42-12 15-31 16-122 4z"/><path d="m3805 11990c-13-22 9-30 81-30 67 0 74 2 74 20s-7 20-74 20c-41 0-78-4-81-10z"/><path d="m4090 11980c0-19 7-20 100-20s100 1 100 20-7 20-100 20-100-1-100-20z"/><path d="m4385 11990c-14-22 10-30 86-30 72 0 79 2 79 20s-7 20-79 20c-44 0-83-4-86-10z"/><path d="m16132 11948c-5-7-15-45-21-84-11-74-33-145-55-179-20-32-36-84-30-100 4-8 17-15 30-15 19 0 26 9 41 50 12 35 24 52 38 54 75 14 122 24 138 31 15 6 17 0 17-64 0-84 11-95 105-96 51 0 68 5 114 33 42 26 56 31 62 20 5-7 9-16 9-21 0-16 67-47 103-47 50 0 99 21 156 68l46 39 23-28c47-58 184-55 304 5l67 35 41-55c59-78 61-76 110 86 45 147 53 160 95 160 31 0 35-3 31-22-3-13-7-49-11-81-14-146 78-186 236-103l69 35v-34c0-67 56-86 180-61 106 21 156 43 181 77 24 34 20 35-48 9-73-28-186-52-225-48-32 3-33 4-31 45 1 22 11 64 23 92 22 51 21 81-2 81-7 0-36-27-63-59-58-68-108-104-177-127-46-15-50-15-69 2-25 22-26 119-2 187 22 61 11 75-44 60-21-6-118-12-216-12-97-1-184-4-193-8-8-3-14-13-12-22 3-14 20-16 137-12 155 4 153 6 51-83-118-104-295-169-366-135-25 12-29 21-32 61-2 28 3 59 12 77 24 46 21 71-9 71-26 0-46-28-59-84-10-43-110-142-163-162-42-17-45-16-71 3-37 27-40 66-8 112 31 45 35 91 8 91-23 0-43-22-71-78-32-63-129-123-191-120-43 3-45 4-48 37-2 18 4 55 12 82 9 26 16 55 16 64 0 23-28 30-48 13-22-19-144-68-170-68-19 0-19 3-7 48 27 100 35 165 24 179-14 16-24 17-37 1zm1236-281c-13-37-14-37-37-20l-24 16 34 28c39 32 44 27 27-24z"/><path d="m6435 11834c-79-80-97-121-50-112 14 3 25 2 25-3 0-13-115-151-162-194-129-121-220-172-378-212-52-13-94-15-213-10-145 6-211 19-337 64-111 40-294 190-348 286-27 48-27 51 1 33 29-18 80-27 96-16 22 13 6 37-29 43-17 4-61 28-97 54-78 55-95 52-105-23-10-74-9-192 1-198 22-14 40 8 46 52 10 77 15 81 37 37 44-88 238-256 351-304 23-10 90-30 149-46 103-26 114-27 300-23 170 4 200 7 248 27 113 46 185 88 269 159 93 79 110 97 177 186l44 58v-40c0-39 23-64 41-45 4 4 12 57 19 116 6 60 15 120 20 133 31 80-13 71-105-22z"/><path d="m11628 11833c-78-71-111-185-67-232 18-19 29-22 64-18l43 4-4-81c-9-169-12-195-30-225-33-56-116-70-122-20-2 21 9 35 62 80 36 30 66 57 66 62 0 29-121-32-165-84-33-40-29-82 12-118 23-20 34-22 71-17 65 9 103 35 131 90 23 45 26 63 29 205 4 138 7 158 25 183 15 20 22 48 25 94 4 57 2 68-19 90-33 35-71 31-121-13zm90-46c2-16-5-37-17-53-11-14-22-37-26-53-7-34-56-66-73-49s-15 36 9 88c24 54 68 102 89 98 8-2 16-16 18-31z"/><path d="m12940 11838c-10-17-22-50-26-72-14-87-158-206-258-214-39-3-55 0-65 12-19 23-5 86 31 141 28 42 29 48 15 62-21 21-42 11-63-29-42-81-146-174-180-161-19 7-18 90 1 136 21 51 19 77-5 77-14 0-28-17-51-62-40-81-80-131-126-159l-36-22-18 22c-23 28-23 63-4 156 20 93 19 105-5 105-20 0-22-2-83-142-27-62-95-141-139-164-28-14-28-14-28 15 0 42-9 61-30 61s-30-19-30-63c1-38 16-61 47-71 34-11 117 39 163 96l38 48 5-30c18-86 122-95 196-16 27 29 41 33 41 12 0-22 40-46 75-46 17 0 52 13 78 30 43 27 47 28 47 10 0-52 93-84 173-61 23 7 66 28 94 47 29 19 55 34 58 34s5-10 5-23c0-25 17-47 37-47 7 0 20 18 29 40 14 35 20 40 48 40 31 0 75 18 129 54l27 19-1-52c-2-42 2-57 20-74 47-47 223-20 317 49l32 23 6-38c7-43 20-58 66-71 38-11 90 10 90 36 0 13-7 15-34 10-61-12-66-4-66 94 0 91-11 117-42 105-9-4-18 0-21 8s-22 20-41 27c-31 10-42 9-74-7-49-24-72-72-73-152l-1-61h-52c-74 0-80 7-72 75 3 31 15 74 26 95 27 52 26 70-3 70-15 0-28-9-34-23-19-42-172-147-214-147-14 0-16 6-8 39 5 21 20 61 34 89 34 67 34 102 0 102-18 0-31-10-45-32zm507-99c17-17 2-59-34-95-48-48-57-44-50 19 8 67 52 108 84 76z"/><path d="m14685 11852c-29-6-62-40-96-98-51-89-49-180 4-213 39-25 144-26 214-2 54 18 68 19 117 9 80-16 177 2 234 42 49 35 52 35 52 14 0-29 56-74 92-74 37 0 126 39 175 76l32 25 15-35c11-27 23-37 56-47 35-11 47-10 69 2 14 8 27 25 29 37 4 25 0 26-45 10-71-26-86 49-32 157 34 65 34 95 0 95-23 0-53-40-70-90-15-47-90-124-151-155-59-30-81-31-105-5-19 21-17 61 6 137 10 34 11 45 1 55-19 19-44-2-62-50-17-45-58-93-106-123-35-21-137-35-179-25l-26 7 36 42c39 45 68 128 63 179-3 31-6 33-44 36-32 2-48-2-70-21-58-49-104-186-74-222 34-40-161-64-200-25-25 25-20 70 16 141 30 59 50 77 57 49 8-29 45-26 53 4 12 50-13 78-61 68zm262-90c-14-51-59-122-78-122-15 0 0 70 24 110 19 32 58 72 64 66 2-1-3-26-10-54z"/><path d="m11087 11766c-3-8 1-22 9-31 24-23 227-18 232 6 2 14-12 17-90 22-51 4-105 9-119 13-19 4-28 1-32-10z"/><path d="m19219 11365c-15-8-41-43-63-88-31-61-39-87-43-156l-6-82-55-49c-63-56-128-86-167-76-38 10-31 39 21 92 46 48 52 69 22 88-21 13-62-14-96-65-32-46-126-83-159-62-12 8-34 13-50 11-38-4-43-39-10-57 30-16 26-44-9-60-61-27-110-1-98 53 14 65 68 157 125 214 32 31 59 63 59 70 0 29-32 22-78-17-46-38-50-39-66-23-15 15-44 17-249 17-251 0-287-4-287-35 0-18 5-19 98-12 163 12 442 8 442-6 0-2-8-16-19-30-37-54-72-135-78-182-5-42-2-51 19-73 57-56 181-36 211 35 11 26 24 37 64 51 63 21 63 21 63-1 0-24 27-47 63-56 46-11 131 19 192 69l55 45 30-31c16-18 30-35 30-38 0-11 112-10 146 0 113 35 103 179-12 179-40 0-95-31-113-62s-26-35-34-15c-3 7 17 45 43 84 47 69 80 144 94 210 6 25 3 36-13 52-24 24-36 25-72 6zm-5-156c-21-45-40-76-42-70-8 23 9 77 40 131 47 81 48 38 2-61zm134-200c4-37-27-61-75-57-34 3-38 6-35 28 3 34 40 61 77 58 24-2 31-8 33-29z"/><path d="m17450 11339c-65-47-126-114-151-165-28-59-32-198-8-257 20-47 88-87 150-87 56 0 99 44 99 102 0 35-3 40-35 54-47 19-93 18-137-5-25-12-38-15-41-7-2 6 4 16 13 21 10 6 51 47 93 92 78 85 137 186 137 233 0 58-54 67-120 19zm59-51c-11-41-58-107-126-180l-53-57v32c1 53 34 109 104 175 37 34 71 62 76 62s5-14-1-32zm-23-349c9-15-15-57-38-65-10-3-34 4-55 17l-36 22 23 19c25 20 95 25 106 7z"/><path d="m10740 11208c-46-75-106-297-116-429l-6-85 33-28c33-28 36-28 114-23 112 9 205 40 205 68 0 14-47 10-132-10-47-11-91-16-115-12l-38 7 1 101c1 99 2 103 31 137 75 85 153 221 153 267 0 31-15 39-71 39-34 0-42-5-59-32zm70-25c0-19-56-123-66-123-8 0 4 38 28 93 22 48 38 61 38 30z"/><path d="m11904 11184c-40-41-43-77-7-82 17-3 26 5 38 35l16 38 15-28c18-33 50-47 105-47 43 0 46-5 24-37-28-40-67-156-60-180 12-48 103-56 231-22 43 12 105 25 137 29 31 4 64 13 72 20 12 10 15 9 15-4 0-49 89-76 177-53 32 9 56 10 61 5 6-6 36-12 68-15 53-4 63-2 102 24 23 16 60 50 81 76l39 47-5-60c-5-50-3-61 11-66 27-10 49 6 111 79 31 37 59 66 62 64 2-3 0-22-6-43-10-38-2-64 22-64 5 0 41 32 78 72l69 72v-56c0-76 12-103 51-117 67-23 102-14 177 47 38 31 42 32 42 14 0-47 97-84 164-62 40 13 102 77 112 115 8 32-7 51-53 66-66 21-140-24-163-100-7-21-8-16-9 25-1 40 7 66 34 118 19 37 35 79 35 92 0 22-4 25-27 22-27-3-33-12-103-160-13-26-45-68-72-93-42-40-53-46-86-43l-37 3-7 74c-4 40-13 80-19 87-21 25-61 16-101-23-38-37-42-36-50 12-6 40-39 29-104-36l-64-63v39c0 104-36 115-94 31-21-30-60-75-86-100-42-39-55-46-90-46-40 0-40 0-20 20 21 21 27 50 10 50-6 0-22-8-37-17l-25-17 7 45c8 47 54 123 81 133 21 8 42-9 46-37 2-16 10-22 28-22 22 0 25 4 22 30-3 34-52 85-81 85-60 0-142-107-149-196-4-47-8-57-29-65-35-13-86-11-108 5-18 13-18 15 8 66 28 55 34 80 17 80-6 0-4 13 5 30 8 16 18 50 21 75 6 42 5 45-22 56-84 32-222-95-249-229l-11-56-60-18c-32-10-85-18-116-18-50 0-58 3-58 19 0 30 44 121 95 195 46 67 52 96 19 96-9 0-28-9-44-20-69-49-128-48-151 3-21 48-61 49-105 1zm646-43c-4-15-13-37-18-48-13-23-91-96-121-112-61-33 17 108 93 167 41 31 57 29 46-7zm1298-149c7-22-63-82-97-82-17 0-31 4-31 8 0 5 18 28 39 51 40 43 79 53 89 23z"/><path d="m21660 11191c-56-18-88-41-99-72-13-37-14-88-3-106 10-15 57-33 88-33h26l-29-23c-30-25-77-56-107-72-26-13-31-34-12-41 27-10 127 48 189 109 32 32 60 57 62 55 1-1-1-28-5-58s-5-62-2-70c11-32 54-80 73-80 24 0 24 17-1 55-24 37-26 93-4 139 21 42 13 66-21 66-22 0-24 3-15 19 16 31 12 76-10 96s-92 29-130 16zm96-54c7-19-11-62-36-87-22-22-103-29-115-10-14 22 7 72 38 91 37 22 105 26 113 6z"/><path d="m20549 11130c-65-117-73-135-77-189-4-44-1-57 14-68 30-22 75-15 138 21l59 34 23-27c30-35 84-33 158 7 49 26 56 28 56 12 0-36 38-68 95-80 30-6 55-13 55-16 0-2-14-30-32-62-52-94-108-163-139-174-19-7-29-17-29-30 0-18 5-20 36-15 20 3 46 14 57 24 52 47 167 234 167 273 0 14-13 22-52 33-29 9-62 17-73 19-31 5-29 111 3 155 24 33 28 58 12 68-20 13-46-6-69-51-44-82-171-168-202-137-13 13 12 110 42 161 23 40 24 61 4 68-22 9-41-11-70-74-39-86-132-172-186-172-20 0-21 4-15 43 4 23 20 64 36 90 17 27 30 52 30 57s11 21 24 35c28 30 24 55-9 55-17 0-30-14-56-60z"/><path d="m21279 11158c-20-18-51-61-69-95-22-39-41-63-52-63-24 0-34-21-16-34 10-7 14-22 11-41-5-37 17-71 42-62 13 5 15 14 11 32-10 41 9 65 52 65h37l-3-50c-2-27-9-50-14-50-6 0-5-7 2-15 22-26 55-15 58 20 6 77 12 93 37 99 30 8 33 26 5 33-16 4-19 10-13 27 8 25 7 141-2 156-12 20-52 9-86-22zm36-115c-6-41-8-43-41-43-19 0-34 2-34 5 0 11 43 91 59 109 15 18 16 18 19-4 2-13 1-43-3-67z"/><path d="m14395 11108c-18-40-40-90-48-110-11-26-22-38-35-38-17 0-20-9-24-67-8-108 33-126 66-30l18 53 76 16c43 9 84 19 93 23 14 5 15 0 9-41-6-42-5-50 16-71 40-40 117-25 188 38 46 41 47 41 62 21 24-34 72-44 131-27 27 8 61 24 74 34 22 17 28 17 49 5 42-23 166-18 250 11 40 14 79 30 87 36 18 16 22 10 16-24-4-20-10-26-21-22-12 4-14-1-9-32 4-20 13-44 22-52 24-24 38 1 64 112l23 97h50c42 0 49-2 44-17-3-10-6-45-7-77-2-68 12-86 69-86 42 0 67 13 114 58 31 29 38 32 43 19 9-22 59-37 127-37 63 0 98 12 98 34 0 9-21 13-80 14-44 0-85 4-91 8-8 4-9 28-5 70 4 35 2 65-3 68-17 11-40-6-51-37-5-18-34-58-64-89-40-44-60-58-81-58-28 0-28 0-22 56 3 30 15 71 27 91 33 55 9 82-43 49-35-23-104-28-215-17-112 12-142 5-142-29 0-11 10-25 22-31 17-9 24-9 33 4s21 15 56 9l44-8-40-26c-61-40-159-66-227-60-64 5-68 11-42 66 30 62-11 95-44 35-45-85-134-148-188-135-21 6-24 12-24 52 0 25 7 59 16 75 17 33 16 70-3 76-18 6-52-37-59-75-12-62-130-172-186-172-23 0-28 4-28 25 0 37 27 97 52 116 26 20 18 49-13 49-12 0-31-11-43-23-21-22-174-73-196-65-8 3 7 42 52 135 22 44 19 73-7 73-10 0-29-27-50-72z"/><path d="m5860 11153c-22-8-98-83-120-118-38-62-64-280-61-515 2-113 4-127 23-142 11-10 26-18 34-18 7 0 51 37 98 83 46 45 98 95 115 110 32 30 41 57 18 57-25 0-102-57-152-111-77-84-75-85-75 34v105l44 63c86 127 156 285 164 373 4 50 2 61-13 73-19 13-48 16-75 6zm35-85c-13-77-129-328-152-328-17 0 26 249 48 278 32 42 84 92 97 92 11 0 12-10 7-42z"/><path d="m16962 11148c-15-15-16-83-1-111 7-12 21-29 32-38 21-16 20-17-36-80-31-35-57-72-57-81 0-35 36-17 91 44l55 61 50-53c27-29 67-61 88-71 67-30 94 1 30 36-33 18-124 109-124 124 0 4 18 25 40 46 43 42 50 62 24 72-10 4-31-10-60-38l-45-44-25 28c-26 30-31 66-13 84 6 6 8 16 5 22-9 15-39 14-54-1z"/><path d="m19531 11124c-75-65-120-188-87-238 20-31 85-50 141-42 28 5 51 2 71-9 40-20 100-19 169 5 32 11 60 20 62 20 1 0 3-11 3-25 0-20 5-25 24-25s27 10 43 53c20 51 21 52 69 58 27 4 61 10 76 14 23 6 27 3 30-17 5-34 60-58 135-58s108 12 151 53c41 40 57 95 42 143-15 44-96 94-153 94-35 0-46-8-121-84-79-80-122-106-174-106-17 0-11 22 31 113 23 52 28 70 18 80-21 21-44-6-83-97-21-48-51-100-67-115-37-37-128-71-186-71-47 0-56 9-29 31 8 7 24 30 35 52 22 41 14 67-20 67-13 0-15 9-13 54 3 47 1 56-19 70-13 9-42 16-64 16-33 0-50-7-84-36zm96-12c6-4 14-44 18-89 7-79 7-82-18-107-20-20-36-26-71-26-57 0-77 18-67 62 12 52 47 113 81 142 34 28 39 30 57 18zm751-39c25-19 32-31 32-58 0-42-40-92-82-103-33-8-133-1-144 11-10 10 54 128 86 159 33 31 57 29 108-9z"/><path d="m16704 11110c-41-13-63-39-87-103-42-112-33-141 49-173 138-53 267 82 209 219-8 20-24 41-35 47-29 15-101 21-136 10zm110-55c58-58 3-185-80-185-35 0-94 24-94 38 0 16 27 81 39 95 7 9 10 21 7 26-20 32 98 56 128 26z"/><path d="m17740 11111c-98-30-196-144-183-213 8-43 29-53 107-53 54 0 82 6 116 22 25 13 46 19 48 13 2-5 12-20 22-32 16-21 27-23 97-22 83 0 154 26 167 60 10 27 1 27-59 5-68-26-160-29-169-5-10 27-7 59 10 82 18 25 12 52-10 52-8 0-26-15-41-32-19-24-25-27-21-13 5 20 9 77 7 107-1 9-15 21-32 27-18 6-32 11-33 10-1 0-12-4-26-8zm40-76c0-20-8-47-17-61-13-20-14-30-5-44 10-16 7-20-20-29-17-6-53-11-79-11-44 0-49 2-49 23 0 34 47 95 98 128 60 38 72 37 72-6z"/><path d="m18275 11079c-20-23-55-79-78-126-37-78-39-85-24-101 22-21 28-14 76 84 21 44 53 97 70 116 17 20 31 43 31 52 0 29-37 17-75-25z"/><path d="m11090 10860c0-20 4-20 148-18 123 3 147 5 147 18s-24 15-147 18c-144 2-148 2-148-18z"/><path d="m16253 10864c-3-8-1-25 5-37 24-48 23-67-4-127-17-39-37-67-56-78-30-17-34-45-8-49 32-6 78 36 110 101 28 56 32 73 27 111-11 73-57 123-74 79z"/><path d="m12178 10510c-32-19-51-94-75-292-8-72 0-78 124-78 138 0 185 13 239 65 50 48 55 75 19 110-22 23-32 25-107 25-46-1-111-7-145-14-57-12-63-12-63 3 0 28 28 123 40 135 7 7 80 13 193 16 153 4 182 7 182 20s-29 15-195 17c-115 2-202-1-212-7zm263-220c15-9 17-15 9-30-21-39-69-62-148-71-98-11-142 2-142 42 0 43 9 56 33 52 12-2 56 0 97 5 106 13 129 13 151 2z"/><path d="m12801 10483c-48-24-126-106-183-192-49-75-56-103-27-109 10-2 34 24 67 75 68 105 182 219 182 182 0-21-31-264-36-280-2-9 3-22 12-30 23-19 49 1 51 42 1 19 7 79 13 134 22 192 9 221-79 178z"/><path d="m13377 10433c-51-82-87-214-66-239 18-22 28-17 93 48l61 62 6-37c3-20 14-46 24-57 45-49 264-92 293-57 11 12 8 17-19 26-18 6-48 11-68 11s-58 7-85 15c-115 35-124 69-41 151 53 53 65 76 45 89-19 12-114-40-179-96-36-32-67-56-68-55-2 2 11 35 28 74 30 67 33 102 9 102-5 0-20-17-33-37z"/><path d="m13095 10454c-96-24-155-68-155-114 0-16 4-31 9-34 4-3 6-17 4-31-13-66 36-115 115-115 109 0 197 91 197 205 0 55-2 60-27 73-31 14-112 24-143 16zm103-50c28-8 29-43 3-99-28-60-62-87-118-92-39-4-51-1-67 16-18 20-18 22 0 71 16 44 16 52 4 60-11 7-4 14 30 29 45 20 104 26 148 15z"/><path d="m7085 9188c-32-104-48-312-25-348 19-31 33 10 42 122 5 62 15 136 22 165 10 37 11 54 3 62-15 15-37 14-42-1z"/><path d="m3278 9140c-14-10-35-43-48-72-21-49-22-62-16-178 4-69 11-165 15-215 19-203-36-512-121-683-31-63-38-86-29-95s16-9 29 1c44 32 62 36 79 19 28-27 32-100 33-577 0-256 5-494 10-529 12-83 55-169 99-198 35-23 94-30 120-14 19 12 4 31-25 31-48 0-84 29-112 88l-27 57-6 520c-7 572-11 618-59 659-16 13-34 26-40 28-8 2-5 21 9 56 61 153 111 465 98 610-3 37-11 123-18 192-13 140-3 211 33 250l21 23 18-22c9-11 20-39 24-61 12-70 48-63 48 8 0 47-27 96-60 111-34 15-47 14-75-9z"/><path d="m4281 9058c-95-49-158-215-120-314 19-52 95-129 161-164 80-41 101-61 144-131 33-54 42-101 26-126-15-24-87-45-185-52-121-10-137-7-137 25 0 29-20 31-44 5-22-24-8-57 30-71 37-14 169-12 246 4 125 27 162 63 149 146-14 89-90 183-192 236-74 39-145 116-154 168-14 73 40 200 100 232 18 9 46 14 70 12 47-4 54-24 35-94-15-53-7-94 19-94 24 0 29 14 37 108 6 67 4 80-13 101-29 36-112 40-172 9z"/><path d="m6025 8908c-26-80-33-114-39-178-4-41-16-137-27-213-12-76-18-145-15-153 4-9 15-14 28-12 18 2 24 11 26 37 2 18 18 56 35 85 29 46 32 49 35 26 5-35 39-69 92-93 55-25 272-38 285-17 13 22-9 28-127 38-126 11-170 27-203 78-10 15-22 23-31 20-25-10-15 11 32 63 46 51 180 140 264 176 53 22 82 44 74 56-26 42-276-92-378-202-57-62-57-62-52-28 3 19 11 78 17 132 6 55 16 115 23 135 16 44 11 62-15 62-11 0-21-6-24-12z"/><path d="m6601 8843c-21-82-30-154-36-284-6-116-4-137 9-148 20-17 38-3 56 38l12 29 33-37c43-47 130-76 230-76 57 0 70 3 73 17 3 13-8 18-55 23-134 14-223 52-223 96 0 58 120 212 218 280 43 31 53 55 27 65-30 12-181-120-264-229-29-40-56-74-59-77-9-9 8 193 22 257 9 44 10 65 3 72-20 20-36 11-46-26z"/><path d="m8954 8818c-31-35-67-87-109-157-43-72-44-72-73 40-15 58-24 75-39 77-11 2-23-4-26-12-7-16 23-130 49-188 17-38 17-38-16-90-59-94-82-138-71-138 28 0 64 28 93 73 18 28 36 55 39 60 4 5 31-11 62-36 57-47 101-63 137-52 30 9 20 26-23 41-39 13-123 78-131 101-8 19 107 207 157 256 14 15 15 22 6 33-16 20-32 17-55-8z"/><path d="m8347 8803c-3-5-12-35-22-67-9-33-29-85-45-115-31-63-90-242-90-276 0-39 36-48 177-43 113 3 133 7 173 28 71 39 66 84-25 220-25 38-55 90-66 117-11 26-24 57-29 68s-14 32-20 48c-9 25-42 38-53 20zm116-271c44-65 82-141 75-147-24-21-81-34-175-40l-112-7 34 80c19 44 47 127 62 186l26 105 22-53c12-29 43-85 68-124z"/><path d="m5255 8710c-16-25 13-30 178-30 169 0 220 8 187 30-20 13-357 13-365 0z"/><path d="m7675 8610c-27-5-99-9-158-9-98-1-108-3-105-18 3-16 18-18 123-21 124-3 240 9 258 27 6 6 9 13 6 15-10 10-78 13-124 6z"/><path d="m5410 8515c-87-18-120-31-120-50 0-21 24-29 47-16 11 5 74 19 141 30 126 21 142 25 142 42 0 13-133 9-210-6z"/><path d="m7585 8489c-94-22-115-30-115-45 0-24 23-26 94-10 37 9 81 16 97 16 33 0 89 25 89 40 0 12-111 11-165-1z"/><path d="m4693 8378c-24-30-56-182-68-319-5-62-4-78 9-88 21-18 46 2 46 35 0 12 5 35 11 51 11 27 11 27 19 7 12-30 56-41 188-47 92-5 112-3 112 8 0 23-30 32-134 39-54 4-103 9-107 12-5 3-9 18-9 34 0 22 14 45 49 84 62 68 71 85 60 114-15 39-48 27-112-39-58-60-59-60-53-27 4 18 12 52 18 75 15 59-2 95-29 61z"/><path d="m14052 8233c-102-131-183-341-244-633-30-143-32-169-32-350 0-320 37-423 231-647 61-71 113-106 145-101 21 4 18 9-33 59-87 83-188 216-225 294-52 109-67 195-67 385-1 176 9 249 63 478 52 218 111 357 202 480 21 29 36 57 33 62-13 21-44 9-73-27z"/><path d="m21200 8134c0-8 13-35 30-59 45-66 98-176 115-241 44-166 55-352 30-495-50-288-124-450-316-689-18-22-30-43-26-46 31-31 146 97 248 276 64 114 96 205 136 388 22 104 24 134 20 272-5 180-29 302-81 415-47 102-112 195-136 195-12 0-20-7-20-16z"/><path d="m18072 7991c-29-39-54-118-90-282-14-60-27-93-46-114-28-30-34-63-12-71 10-4 12-25 8-97-6-112 2-122 87-122 66 1 212 48 239 78 17 20 16 20-33 13-27-3-79-15-113-26-35-11-80-20-99-20h-36l7 78c11 119 25 162 71 217 98 117 136 191 151 298 8 61-11 87-67 87-34 0-43-5-67-39zm84-15c11-29-24-137-66-201-23-36-44-65-47-65-15 0 47 223 72 258 18 25 33 28 41 8z"/><path d="m12554 8006c-3-8 12-31 38-54 117-108 179-329 179-643 1-304-71-554-189-659-46-41-51-49-37-60 13-11 20-11 42 1 113 59 205 283 234 564 18 181-4 447-50 595-47 150-192 321-217 256z"/><path d="m15297 7937c-61-73-136-211-166-310-25-84-46-268-37-329 4-26 18-63 32-84l25-37-388 8c-602 12-608 12-608-5 0-12 25-17 125-25 172-14 1605-12 2145 3 242 7 647 17 900 22 1095 23 1033 21 1039 43 5 19 1 20-417 13-232-3-537-9-677-12l-255-6 22 23c28 31 65 116 87 199 37 140 30 343-15 433-37 73-111 136-145 123-20-8-17-34 4-40 34-11 82-72 104-132 17-48 21-81 21-184 0-106-4-138-27-215-15-49-40-112-56-138-17-27-30-52-30-56 0-9-255-19-830-31-234-6-535-13-670-16l-245-6-38 33c-29 27-39 45-46 84-10 52 2 207 20 280 27 109 104 258 175 342 45 52 52 83 20 83-8 0-39-29-69-63z"/><path d="m11169 7898c-54-36-159-268-184-410-4-21-13-43-21-49-11-9-12-15-3-25 8-9 10-38 6-79-4-54-1-70 13-88 17-20 28-22 142-25 111-3 126-1 157 18 43 27 30 42-24 29-22-5-84-6-139-3l-99 7 6 83c4 78 7 87 38 122 55 61 119 166 151 249 69 180 65 163 44 179-27 20-48 18-87-8zm42-88c-10-47-105-209-132-226-20-12 1 55 51 161 41 88 75 134 88 120 2-2-1-27-7-55z"/><path d="m9205 7891c-37-61-198-540-193-579 3-31 3-31 166-17 56 5 96 13 103 21 18 21-9 26-120 22-54-1-98-1-97 2 2 3 29 84 60 180 32 96 73 214 93 263 19 48 32 94 29 102-6 17-32 20-41 6z"/><path d="m8662 7798c-114-167-177-426-188-778-7-204 2-271 52-376 28-58 68-94 85-77 7 7 1 28-19 64-65 115-80 232-63 464 22 291 72 502 152 636 27 46 47 89 45 96-10 25-35 13-64-29z"/><path d="m14205 7815c-3-14-7-37-10-52-3-16-21-84-40-153-34-122-60-293-49-312 4-6 20-7 38-4 17 4 77 13 134 22 113 16 152 28 152 45 0 8-32 10-117 5-65-4-126-10-137-13-17-5-18-1-12 50 7 55 23 120 71 297 14 52 23 105 20 118-8 31-43 29-50-3z"/><path d="m19401 7755c-40-46-107-187-126-267-24-97-31-367-12-453 26-119 91-235 132-235 21 0 20 4-25 95-57 115-73 207-66 370 4 72 13 162 21 200 16 74 80 218 121 273 45 58 5 73-45 17z"/><path d="m16887 7733c-14-27-32-73-42-103s-19-57-21-59c-6-7-73 71-93 109-10 19-28 44-40 54-19 18-23 18-37 4-14-13-12-20 17-64 18-27 52-72 76-101 24-28 43-56 43-61 0-6-20-49-45-96-50-96-56-126-25-126 15 0 30 20 60 79 22 44 43 82 48 85s17-3 27-14c23-26 99-70 119-70 30 0 16 35-23 61-21 14-51 39-65 55l-25 31 24 70c13 39 35 93 48 120 26 53 25 73-4 73-12 0-27-16-42-47z"/><path d="m21024 7747c-3-8 5-36 17-63 60-138 82-317 56-464-18-105-53-190-77-190-27 0-62 33-90 84l-24 45 49 121c38 94 46 123 37 132-21 21-41-2-73-82-17-41-34-79-38-83-5-4-23 28-41 72-25 59-39 81-52 81-33 0-28-29 23-147l40-92-56-111c-56-113-64-140-44-140s63 55 93 118c16 34 32 62 36 62 3 0 14-16 25-36 19-35 59-64 90-64 8 0 15-6 15-14 0-14-57-100-114-171-22-28-26-39-17-48 36-36 168 148 237 329 51 137 60 299 23 454-37 160-94 262-115 207z"/><path d="m10244 7683c-55-126-78-173-85-173-12 0-130 141-140 167-10 27-44 31-53 6-8-21 27-74 105-158 73-78 74-75-24-187-63-72-73-98-37-98 20 0 112 95 143 148 10 17 21 32 24 32 2 0 21-13 41-30 56-44 105-62 127-46 16 11 13 15-29 40-26 15-62 41-82 58l-34 31 28 51c42 73 85 184 78 201-12 32-38 14-62-42z"/><path d="m15666 7718c-9-12-16-28-16-35 0-22-70-165-79-161-5 1-40 39-78 82-82 95-95 105-118 86-14-12-12-17 22-54 22-23 63-69 92-104l53-63-26-32c-14-18-38-47-52-64-25-31-27-63-4-63 12 0 41 28 87 84l33 40 40-23c41-23 90-25 97-5 2 6-21 23-51 38l-55 27 46 94c45 93 60 164 36 172-6 2-18-6-27-19z"/><path d="m16256 7733c-30-30-126-311-126-371 0-30 29-41 47-16 7 10 18 37 23 59 6 22 19 71 31 109 21 68 27 91 28 110 1 6 14-8 30-30 16-21 59-63 95-92 65-53 116-106 116-121 0-14-111-32-205-34-83-2-90-4-90-22 0-19 6-20 120-18 157 2 218 22 223 72 4 34-19 61-161 189-54 48-87 97-87 128s-27 54-44 37z"/><path d="m7185 7691c-3-6-10-70-16-144-10-139-4-187 25-187 21 0 26 23 27 128 0 53 4 118 8 143s5 51 3 57c-4 14-38 16-47 3z"/><path d="m4315 7639c-99-52-123-87-127-187-1-45 35-107 122-206 95-109 123-155 128-211 4-50 3-53-29-76-27-19-48-24-124-27-79-4-97-1-133 17-23 12-42 26-42 31 0 17-48 11-55-7-15-41 100-93 206-93 90 0 152 17 195 54 37 32 38 35 37 95-2 73-15 96-118 221-141 170-147 183-125 262 8 28 22 44 61 68 32 19 61 30 78 28 22-3 27-9 31-43 8-62 59-60 60 2 0 38-21 72-53 83-44 15-67 13-112-11z"/><path d="m15891 7546c-63-11-89-30-57-42 21-8 222 13 244 25 15 8 13 11-11 20-34 13-91 12-176-3z"/><path d="m14590 7520c0-19 7-20 144-20 80 0 157 4 171 10 56 21 12 30-151 30-157 0-164-1-164-20z"/><path d="m17370 7520c0-19 7-20 148-20 81 0 154 5 162 10 32 21-16 30-162 30-141 0-148-1-148-20z"/><path d="m6210 7501c-77-17-124-41-140-71-5-10-5-42 0-80 7-47 5-77-6-119-7-30-14-83-14-118 0-51 4-64 21-76 23-17 58-11 66 10 4 11 10 6 19-16 16-37 68-71 111-71 112 0 217 64 217 132 0 78-61 122-169 123-53 0-80-5-112-22l-42-22-10 48c-6 27-8 65-4 84 4 28 2 38-11 43-10 4-16 18-16 38 0 27 6 36 33 49 43 21 122 35 237 43 106 7 116 10 99 30-16 20-183 17-279-5zm180-348c32-22 40-33 40-60 0-32-60-74-114-80-63-8-93 3-111 37-9 18-23 30-35 30-27 0-25 8 6 34 72 58 162 75 214 39z"/><path d="m10490 7500c0-19 7-20 143-20 78 0 149 5 157 10 31 21-16 30-157 30-136 0-143-1-143-20z"/><path d="m9455 7489c-16-24 17-29 166-27 129 3 154 5 154 18s-25 15-157 18c-107 2-159-1-163-9z"/><path d="m19386 7482c-12-36 35-138 111-245l35-47-37-74c-20-41-45-82-56-92-26-24-24-44 5-44 28 0 60 37 96 110 12 25 24 46 25 48 2 2 38-24 80-57 76-61 112-78 140-67 24 9 18 24-17 42-40 20-113 78-149 119l-27 30 45 90c25 49 56 105 70 123 39 52 10 87-34 40-11-13-43-65-71-117l-50-94-30 46c-40 64-80 146-87 180-6 31-40 38-49 9z"/><path d="m6910 7470c-14-5-45-11-70-15-25-3-61-15-79-26-34-20-34-20-25-82 4-34 8-114 9-177 0-127 8-151 57-176 25-13 53-15 136-12 101 3 105 5 129 33 44 50 19 131-57 183-38 26-95 28-155 7-22-8-42-15-44-15-4 0 4 58 15 118 6 29 4 32-20 32-21 0-26 5-26 24 0 26 26 40 95 51 187 29 200 32 184 51-13 16-107 18-149 4zm83-320c32-25 54-85 38-104-15-18-162-30-194-15-22 10-24 16-20 53 3 22 11 47 17 55 28 35 119 42 159 11z"/><path d="m20446 7438c-2-7-25-71-51-143-26-71-58-159-70-194-26-71-20-107 15-98 11 3 21-1 24-9 12-30 261-4 334 35 57 31 36 91-79 222-77 88-109 135-123 182-6 19-45 23-50 5zm131-219c74-80 93-108 93-135 0-19-9-24-52-35-29-6-99-15-156-18-88-5-101-4-96 9 3 8 23 65 44 127 21 61 46 126 55 143l17 32 18-29c10-17 45-59 77-94z"/><path d="m12456 7407c-23-30-39-63-92-186l-18-43-24 28c-38 46-71 100-78 128-9 38-31 53-51 34-14-15-13-21 10-70 13-29 43-78 66-108 32-42 40-61 36-79-6-22-60-106-104-161-27-32-26-40 2-40 26 0 68 41 116 112l31 47 64-63c60-61 123-95 146-81 19 12 10 33-21 45-30 13-118 95-145 135-12 19-9 33 32 125 25 58 56 124 70 148 39 66 6 90-40 29z"/><path d="m18945 7328c-13-29-29-82-36-118-6-36-13-71-15-77-2-9-30-13-94-13-82 0-91-2-88-17s17-18 91-21l87-3v-72c0-49 5-80 15-93 23-30 35-1 35 86v76l90 10c94 11 124 24 102 46-8 8-31 8-93 0-45-7-85-10-87-7-10 9 18 136 40 181 21 47 19 74-7 74-10 0-26-21-40-52z"/><path d="m11770 7345c-6-8-14-52-17-97-2-46-6-88-8-94-2-7-22-8-61-3-62 8-84 0-84-31 0-26 28-46 42-32 7 7 31 12 55 12 39 0 43-2 43-26 0-42 32-90 52-78 4 3 8 27 8 54v49l58 3c43 2 57 7 57 18s-14 16-57 18l-58 3 1 52c0 29 4 73 8 99 10 60-10 88-39 53z"/><path d="m7537 7293c-4-3-7-12-7-20 0-10 40-13 200-13 194 0 226 5 181 30-22 11-363 14-374 3z"/><path d="m5714 7214c-6-3-63-8-125-12-92-6-114-10-114-22 0-13 21-15 130-14 129 1 226 17 209 34-11 11-85 21-100 14z"/><path d="m21687 7208c-14-38 7-43 195-48 101-3 187-2 192 2s4 13-3 22c-10 12-45 16-154 20-78 2-160 7-183 11-31 5-42 3-47-7z"/><path d="m4762 7185c-82-25-95-52-110-230-8-92-7-112 5-125 13-13 16-12 34 9 10 13 19 36 19 51 0 25 6 30 48 44 52 17 146 24 178 13 12-4 27-21 34-37 10-25 10-34-4-55-13-20-26-25-64-27-85-4-124 1-143 18-20 18-49 13-49-9 0-8 9-22 21-33 18-16 37-19 131-19 110 0 110 0 139 33 48 53 32 134-33 168-31 16-134 15-215-2-33-6-33-6-33 42 0 99 20 116 147 129 80 9 88 12 72 31-15 18-118 18-177-1z"/><path d="m10385 7189c-77-4-264-15-415-25-151-9-412-20-579-23-273-5-305-8-315-23-17-27 3-38 49-28 22 5 146 10 275 10 232 0 361 5 860 35 140 8 446 17 680 20 233 4 426 8 429 10 2 2 1 11-2 20-6 13-56 15-424 14-230-1-481-6-558-10z"/><path d="m19948 7189c-10-5-18-19-18-31 0-17 4-19 28-14 15 3 75 9 134 12 113 7 145 16 118 34-20 13-240 12-262-1z"/><path d="m7745 7158c-44-5-100-9-125-9-55 0-75-11-66-34 6-16 17-17 114-11 171 11 271 33 257 57-7 11-68 10-180-3z"/><path d="m13308 7163c-190-3-198-4-198-23s7-20 186-20c150 0 192 3 220 16 34 16 38 36 6 32-9-2-106-4-214-5z"/><path d="m5575 7073c-11-2-30-6-42-9-15-3-23-12-23-24 0-11 3-20 8-20 4 0 61 5 126 11 119 10 162 21 151 40-6 9-179 11-220 2z"/><path d="m21703 7023c-7-2-13-13-13-23 0-31 68-43 200-36 121 6 194 21 185 36-4 6-75 10-162 9-96 0-160 4-166 10-12 12-24 13-44 4z"/><path d="m16408 6970c-69-21-139-109-122-154 11-28 48-16 52 16 2 16 19 41 43 62 32 30 47 36 83 36 31 0 46-5 50-16 13-33 5-72-23-115-30-47-143-159-160-159-6 0-18-12-27-26-16-23-16-26-1-41s32-16 168-6c148 11 179 19 164 43-9 14-203 9-240-6-11-4 14 27 55 69s85 94 97 114c35 58 29 159-11 185-14 10-93 9-128-2z"/><path d="m9982 6905c-26-11-33-20-30-37 4-27 37-37 52-16 13 18 143 31 168 17 48-26-5-96-138-183-118-76-143-108-110-135 11-10 61-10 218 0 208 12 260 21 240 41-7 7-72 9-201 6-105-2-191-3-191-2s37 27 83 57c45 30 104 78 131 106 42 46 47 56 42 84-3 18-17 42-32 55-22 19-36 22-112 22-53-1-100-6-120-15z"/><path d="m6450 6100c-11-11-20-24-20-30 0-5-6-10-13-10-8 0-21-8-30-17-15-18-127-342-127-369 0-22 46-29 185-29 113 0 135 3 165 20 52 31 51 58-8 178-27 56-60 136-73 177-33 107-42 117-79 80zm99-270c57-112 58-116 19-129-38-12-175-18-185-8-3 4-16 7-29 7-21 0-20 5 30 123 28 67 60 138 70 157l19 35 19-55c10-30 36-89 57-130z"/><path d="m7073 6108c-6-7-13-26-17-43-9-39-87-205-96-205-16 0-93 94-111 136-21 46-51 59-63 28-9-23 39-105 96-163l50-51-41-64c-23-35-51-72-61-81-27-24-25-45 3-45 30 0 69 43 142 157 0 1 29-9 64-23 65-26 116-29 116-5 0 7-29 24-65 38-36 13-69 28-73 32-5 5 10 45 33 90 63 125 79 211 40 211-4 0-12-6-17-12z"/><path d="m5430 5721c0-17 10-19 118-22 99-3 122-7 152-26 41-25 73-17 54 14-24 40-73 53-201 53-114 0-123-1-123-19z"/><path d="m6620 5530c-36-4-111-8-167-9-98-1-103-2-103-23s0-21 243-13c133 4 301 9 372 11 72 1 134 3 140 3 5 1 1 9-8 19-16 15-42 17-215 18-108 1-226-2-262-6z"/><path d="m5395 5502c-3-3-5-13-5-22 0-15 20-18 173-23 94-3 176-2 181 3 16 16-38 32-123 36-47 3-116 6-153 8s-70 1-73-2z"/><path d="m6674 5348c-27-13-57-74-48-100 9-29 48-20 52 12 8 57 52 71 93 30 53-52 30-138-65-240-79-86-78-132 3-159 40-13 180-14 200-2 27 17 0 29-88 35-49 4-97 13-107 21-17 12-15 17 31 69 73 82 105 148 105 214 0 50-3 58-39 93-32 32-45 39-77 38-22 0-48-5-60-11z"/><path d="m5905 4509c-71-5-215-13-320-19-177-10-300-20-520-40-121-11-320-27-485-40-74-5-259-10-410-10-151-1-306-5-345-10-38-4-135-15-215-24-260-29-428-66-480-105-29-21-30-42-12-211 7-58 17-208 22-335 10-227 26-389 55-575 8-52 18-146 21-208 4-62 11-115 16-118 4-3 8-37 8-75 0-127 21-139 242-138 84 0 207 4 273 10 66 5 192 13 280 19 88 5 212 14 275 19 63 6 171 15 240 21 113 10 276 27 465 51 39 4 124 13 190 19s164 15 218 20c54 6 127 10 162 10s111 5 167 10c57 6 155 15 218 21s144 15 180 21c39 7 298 14 658 17l594 6 24 59c28 70 30 101 7 114-14 9-15 22-7 123 5 63 9 389 9 724 0 479-3 615-13 633l-13 22-687-2c-378 0-745-5-817-9zm1473-609c2-362-1-634-8-735-11-153-11-161 8-175 19-15 19-15-1-62l-20-48h-552c-303 0-587-4-631-10-145-17-268-29-409-40-77-5-234-17-350-26-115-8-302-26-415-39-342-41-547-59-1085-96-82-5-202-15-265-21-111-10-297-6-332 7-16 6-18 21-18 105 0 74-4 100-15 110-10 8-15 31-15 69 0 31-5 85-10 121-40 263-59 453-70 695-5 116-14 268-21 338-6 72-7 133-3 137 15 14 194 58 279 69 44 6 127 15 185 22 58 6 130 15 160 20s255 14 500 19c245 6 483 14 530 20 348 39 762 68 1295 89 99 4 423 7 720 7l540-1z"/><path d="m4151 4008c-48-16-137-108-150-155-28-100-10-143 112-270 102-107 121-135 137-208 13-59 8-76-29-98-42-25-89-21-148 13s-73 50-44 50c11 0 23 5 27 11 17 28-74 41-96 14-11-13-10-22 2-48 19-41 141-107 196-107 45 0 118 35 139 66 21 33 13 126-17 184-12 23-66 89-120 146-68 72-102 116-109 141-15 55 3 115 51 163 42 44 74 60 116 60 49 0 57-13 62-102 4-71 8-83 24-86 26-5 36 15 36 73 0 69-17 122-44 140-30 20-104 26-145 13z"/><path d="m6264 3884c-28-10-51-28-69-54-25-37-27-42-14-71 7-18 53-73 102-123 100-103 165-213 146-248-25-46-144-53-219-12-50 27-95 29-95 4 0-21 112-72 172-78 107-9 203 36 203 95 0 60-63 165-158 262-50 51-94 102-98 113-11 37 35 71 106 76 60 4 60 4 60-26 0-43 9-62 30-62 38 0 42 79 5 115-20 21-34 25-77 24-29 0-72-7-94-15z"/><path d="m5590 3722c-19-11-36-26-38-34-4-21 36-68 58-68 28 0 34 19 15 40-17 18-17 20-1 26 27 10 89-13 120-45 18-18 30-44 33-71 6-41 5-43-52-93-123-110-135-123-135-156 0-40 23-46 136-37 84 7 137 20 162 39 27 21-7 25-115 14-62-6-116-8-119-4-4 4 12 24 37 44 24 20 66 59 93 85 48 48 48 48 44 108-5 70-26 105-84 136-59 33-112 38-154 16z"/><path d="m4990 3520c0-19 7-20 105-22 181-4 188-3 192 8 7 21-59 34-178 34-112 0-119-1-119-20z"/><path d="m6623 3401c-51-24-59-38-67-123-4-37-13-102-21-144-15-87-12-106 18-102 16 2 24 14 32 46 12 53 36 72 90 72 33 0 47-6 72-32 30-31 53-75 53-100 0-7-30-8-94-3-70 5-96 4-101-6-13-21 22-36 100-44 49-4 87-3 111 5 36 12 36 13 32 61-6 57-38 109-91 146-33 23-44 25-97 20-53-4-60-3-56 11 2 10 8 45 11 78 8 73 18 80 122 90 93 8 103 12 79 30-29 21-141 18-193-5z"/><path d="m5012 3383c6-30 280-67 318-43 8 5 12 12 8 15-10 10-227 45-280 45-42 0-49-3-46-17z"/><path d="m4465 3370c-4-6-10-45-15-88-5-42-14-108-20-146-9-58-8-72 4-85 12-12 18-12 30-1 9 7 16 18 16 25 0 8 8 27 17 43 15 26 19 28 28 15 35-47 245-72 245-29 0 10-18 17-57 21-72 8-136 28-141 43-2 6 28 43 67 81s71 74 71 79c0 6-8 16-19 21-22 12-92-28-153-87l-38-36v29c0 17 4 46 9 65 4 19 6 41 4 48-6 15-39 16-48 2z"/><path d="m9863 3751c-113-82-183-279-171-483 3-62 7-73 31-94 25-21 67-33 67-19 0 3-10 20-22 36-20 27-23 42-22 122 2 129 18 200 62 287 29 56 51 85 88 112 27 21 49 43 49 50 0 24-41 19-82-11z"/><path d="m10289 3621c-65-35-119-116-119-178 0-35 96-57 142-32 19 10 20 9 13-23-4-18-11-59-14-90-6-48-12-61-37-79-56-42-170-165-188-203-23-49-18-136 10-167 15-17 27-20 58-16 77 11 140 110 177 277 11 52 25 100 31 108 14 16 193 142 202 142 3 0 6-20 6-44 0-28 6-48 17-57 26-22 93-15 141 15l42 26v-25c0-50 97-66 159-26 10 6 21 1 36-17 18-21 32-26 69-27 42 0 46-2 41-20-24-75-28-105-15-120 14-17 46-20 55-5 4 6 2 16-3 23-7 8-3 32 11 74 20 60 22 62 76 83 30 11 70 32 89 47 18 14 34 23 35 22 2-2 9-24 17-49 17-51 45-70 104-70 35 0 38-2 32-22-33-116-32-162 5-173 11-4 27-1 35 6 13 10 13 14 0 28-13 15-13 25 3 91l17 74 68 28c90 36 162 91 187 141 18 35 20 45 10 79-15 50-59 78-123 78-26 0-58 5-71 11-32 15-118-17-189-69l-54-40-11 29c-16 41-68 69-130 69-28 0-55 5-58 10-3 6-19 10-35 10-86 0-175-88-194-193-5-28-16-43-39-58-70-43-100 4-53 84 30 50 33 75 11 84-20 7-49-19-70-64-18-38-110-103-146-103-20 0-21 4-15 41 4 22 15 58 26 80 11 21 20 47 20 59 0 28-43 27-63-3-12-18-227-177-240-177-2 0 2 37 10 82 8 46 13 92 10 104-2 13 3 26 15 33 21 13 25 78 5 104-19 27-76 30-118 8zm71-64c0-18 5-38 12-45 9-9 9-12 0-12-6 0-28-11-48-25-44-30-94-34-94-7 0 28 37 81 72 102 46 28 58 25 58-13zm909-92c16-8 34-28 40-47 10-29 9-34-21-66-33-34-64-54-104-66-21-6-21-6-8 31 7 21 13 64 14 95 0 45 3 57 18 61 29 8 32 7 61-8zm441 5c18 0 40-33 40-59 0-21-12-40-46-71-42-39-130-87-140-77-2 2 12 43 31 91s35 93 35 101c0 14 34 25 58 19 8-2 17-4 22-4zm-585-132c-20-80-29-90-78-86-59 4-70 29-31 70 17 18 44 54 59 81 15 26 34 51 43 56 14 8 18 4 20-25 2-18-4-62-13-96zm450 113c-23-72-84-206-97-215-25-15-71 4-87 38-16 35-3 89 31 126 23 25 23 25 26 3 4-27 27-47 47-39 12 4 14 15 9 45-6 36-4 39 22 49 45 16 56 15 49-7zm-1305-374c-23-94-85-197-120-197-22 0-37 53-25 92 17 55 144 195 153 168 2-6-2-34-8-63z"/><path d="m12924 3591c-56-34-154-178-154-226 0-12-9-15-37-13-30 2-38-1-41-16-5-21 13-36 44-36 13 0 24-8 27-20 3-11 22-27 43-36 53-22 122-12 190 26 62 35 68 36 53 13-7-13-7-26 0-45 14-36 57-39 70-5 6 16 23 28 53 36 23 7 60 22 80 32 21 11 40 19 43 19 4 0 3-24 0-54-6-47-4-57 14-75 13-13 34-21 54-21 42 0 148 61 209 122 26 26 50 43 53 38s24-14 47-21c35-9 50-7 100 11l58 21 55-47c30-26 55-53 55-59 0-17-95-105-167-153-72-49-90-74-67-93 12-10 20-8 42 9 15 12 47 36 72 53 70 49 170 151 170 174 0 13 3 16 8 8 12-20 65-35 99-28 18 3 53 21 78 40 51 39 55 41 55 21 0-23 50-56 85-56 18 0 52 7 75 15 24 8 45 13 47 11s-10-75-27-162c-17-88-34-196-37-241-6-83-6-83 20-83 20 0 28 7 35 33 11 33 38 164 52 254 5 29 18 88 30 131l21 78 55 12c61 12 163 69 193 107l19 25 6-34c11-56 41-86 88-86 40 0 40 0 34-31-3-17-6-50-7-73 0-39-4-44-77-102-89-70-157-170-147-214 22-92 81-138 156-121 71 16 96 58 120 200 5 31 9 85 9 120 0 43 5 67 14 75 8 6 39 30 69 54 53 42 57 43 84 29 73-37 174-21 213 33 17 24 25 28 40 20 46-25 94-6 194 74l36 28 31-26c17-14 39-26 49-26 25 0 96 26 161 60l56 29 6-45c6-54 33-87 86-103 107-32 297 10 387 85l29 24-55-19c-151-52-340-66-377-28-26 25-22 126 7 173 24 43 20 64-13 64-17 0-28-11-45-44-23-49-96-99-191-133-47-16-52-16-67-1-14 13-15 24-7 55 12 48 7 63-22 63-17 0-26-8-33-30-19-53-167-175-198-163-10 4-13 22-11 66 2 60 1 62-23 62-21 0-25-6-35-56-19-95-83-150-154-134-59 13-55 26 30 111 115 113 163 202 125 233-66 55-266-148-266-271 0-32-6-41-57-82l-58-46-3 64c-2 55 1 69 23 101 30 46 33 81 5 90-32 10-59-12-73-62-16-54-50-76-67-43-16 30-12 111 6 131 20 22 10 39-22 39-18 0-28-8-37-30-12-28-13-28-25-9-25 40-83 45-164 14-10-4-17 1-21 14-4 16-13 21-36 21-25 0-34-7-54-42-14-24-32-66-41-94-22-66-77-108-146-108-45-1-45-1-48 38-2 21 4 53 12 71 24 49 21 75-8 75-17 0-28-9-40-34-9-19-16-39-16-44 0-16-110-112-136-118-44-11-57 1-50 49 18 110 18 133 2 146-25 21-46-3-47-53 0-22-4-60-7-83l-7-41-55 48-55 48 18 36c25 54 23 86-7 86-26 0-56-33-56-61 0-37-98-87-146-75-28 7-31 31-9 91 19 52 18 74 0 82-23 8-54-25-61-66-14-74-57-129-153-193-82-54-118-60-113-18 8 68 45 151 77 176 41 31 50 53 31 72-21 21-49 7-86-44-35-49-115-106-182-130-37-13-40-13-33 4 4 9 12 31 17 47 6 17 26 50 44 74 37 48 42 69 20 77-23 9-55-14-75-54-55-107-254-217-335-186-27 10-18 29 37 73 58 47 144 152 153 187 15 60-31 83-92 45zm36-48c0-13-109-129-110-117 0 7 21 37 47 68 44 52 63 67 63 49zm2350-43c-24-46-143-177-148-162-7 21 42 97 96 149 31 29 60 53 64 53 5 0-1-18-12-40zm-562-73c2-10-9-30-26-45-37-34-135-85-157-80-24 5 58 116 99 134s80 14 84-9zm59-29c-3-8-6-5-6 6-1 11 2 17 5 13 3-3 4-12 1-19zm-1717-88c0-5-8-10-17-10-15 0-16 2-3 10 19 12 20 12 20 0zm1820-415c-7-33-18-72-26-86-14-28-53-44-83-34-26 8-55 67-48 97 11 41 62 108 113 149l49 39 3-53c2-28-2-79-8-112z"/><path d="m12432 3548c-54-12-111-68-149-148-32-66-73-97-197-147-87-36-118-40-135-20-8 11 3 23 56 58 79 52 176 161 171 191-4 31-29 42-74 34-31-6-54-23-110-79-38-40-79-91-90-114-15-35-24-43-46-43-21 0-28-5-28-20s7-20 24-20c14 0 31-9 39-20 18-25 65-50 97-50 14 0 71 20 128 44 56 24 102 43 102 42 0-2-9-38-20-81-20-80-26-199-11-223 20-32 44-7 63 63 11 39 29 100 39 136l19 66 74 12c173 28 266 162 190 274-24 36-60 58-87 56-7-1-31-5-55-11zm97-72c33-53 28-85-21-133-54-51-72-60-136-69l-52-7 15 43c8 24 25 58 36 77 12 19 19 43 16 54-9 32 40 65 100 68 14 1 28-10 42-33zm-448-54c-44-52-99-97-108-88-7 7 120 136 136 136 6 0-6-22-28-48z"/><path d="m11732 2848c-7-7-12-35-12-62 0-28-5-80-11-116-5-36-13-82-16-102-4-30-2-39 12-45 14-5 37 14 99 82l82 88-1-62c0-54 3-65 24-82 32-26 103-25 147 2l34 21v-24c1-78 113-103 225-49 71 33 89 52 105 107 15 50 4 76-43 101-40 21-124 21-165 0-18-8-40-13-49-11-12 3-30-9-54-38-42-51-119-93-150-83-21 7-22 11-16 102 4 74 3 95-8 99-22 9-56-15-118-80-58-61-58-61-52-26 15 90 18 160 5 175-15 18-22 19-38 3zm613-180c27-12 33-44 15-79-12-22-89-63-138-74-23-5-40-2-57 9-49 32-21 96 57 135 48 24 85 26 123 9z"/><path d="m13977 2734c-20-20-2-69 63-169 92-142 131-243 138-356 8-148-28-250-128-361-65-72-137-119-213-140-51-13-55-19-32-38 20-17 93 1 160 40 55 31 168 144 202 200 29 48 51 117 64 200 21 137-26 299-134 463-33 50-66 108-73 127-12 34-32 48-47 34z"/><path d="m10881 2473c-57-28-125-106-167-189-21-44-44-82-49-86-16-10-8-163 9-197 18-35 60-51 132-51 68 0 157 41 233 105 29 25 55 44 57 43 2-3-11-70-55-278-24-111-26-159-7-185 34-47 58 11 76 194 18 172 70 279 151 310 15 5 29 8 32 5 2-3-6-46-19-96-13-51-24-104-24-120 0-65 120-86 216-38 47 23 54 24 85 12 18-8 56-14 83-14 53 0 156 33 175 56 8 9 26 12 54 9 53-5 98 21 161 95l45 52 3-62c3-55 6-64 29-77 35-20 91-3 154 44 46 36 61 43 50 24-13-20 6-60 38-79 46-29 86-25 162 15 45 24 71 33 78 26 22-17 121-29 172-21 65 11 99 24 141 56 46 36 43 46-8 28-58-21-148-43-178-44-14 0-42 5-63 11l-37 10 39 47c51 62 91 143 91 186 0 41-28 66-73 66-61 0-128-120-131-234-1-58-1-58-51-87s-89-36-113-20c-17 10-12 103 9 169 11 36 11 44 0 52-23 14-39 1-57-48-24-64-138-162-188-162-17 0-18 6-13 59 4 33 16 84 27 113 27 71 26 98-2 98-18 0-30-13-52-55-50-96-197-238-227-219-4 2-4 23-2 47 4 34 2 45-11 50-28 11-44-3-51-46-9-55-26-72-94-98-41-15-67-19-98-14-24 3-43 9-43 12s21 33 46 67c83 109 102 173 64 214-28 30-88 30-119 0-43-40-84-144-85-216-1-66-1-66-41-84-42-18-101-23-122-10-10 6-7 32 13 112 27 112 26 143-7 160-22 12-74 0-117-27-30-19-35-14-17 17 44 77 49 90 37 102-19 19-54-5-82-58-30-55-149-162-217-194-54-25-54-25-43 5 19 50-18 95-79 95-45 0-62-10-77-44l-13-31v35c1 59 13 84 50 105 56 32 177 146 211 198 26 41 29 52 20 73-14 29-59 32-111 7zm36-68c-26-38-157-162-157-148 0 21 60 101 105 141 60 53 86 56 52 7zm1773-142c0-23-44-110-76-148l-24-30v27c0 35 34 124 56 149 21 24 44 25 44 2zm-1050-68c10-12 8-25-14-68-14-29-41-71-60-93l-35-39v35c-1 52 63 180 89 180 4 0 13-7 20-15zm-826-111c21-8 20-37-2-65-26-31-55-20-46 18 6 25 22 53 29 53 2 0 10-3 19-6z"/><path d="m4320 2425c-16-20-17-80-1-99 7-8 28-18 47-22 19-3 34-11 34-16 0-17-83-149-113-179-42-43-83-61-118-54-39 9-45 38-29 149 15 104 14 184-3 204-8 10-25 13-56 9-37-4-52-13-84-47-33-35-38-46-33-72 8-40 23-58 48-58 18 0 19 5 13 41-6 34-3 44 16 65 12 13 31 24 42 24 18 0 19-5 14-68-3-38-11-95-17-128-22-107 17-165 110-168 63-1 126 46 192 144 32 47 63 102 70 123 9 30 16 37 37 37 32 0 111 35 111 50 0 12-41 13-93 1-36-9-38-8-52 25-20 50-106 74-135 39zm80-39c0-2 3-11 6-20 5-12 0-16-20-16-19 0-26 5-26 20 0 13 7 20 20 20 11 0 20-2 20-4z"/><path d="m6393 2384c-41-20-83-96-67-121 19-30 49-22 52 13 2 18 12 40 23 50 19 17 19 16 19-32 0-27-7-71-15-98-20-67-20-140 2-157 52-44 197 15 311 127l75 74h68c75 0 123 13 116 33-3 8-30 12-88 12-84 0-84 0-81 27 4 40-13 65-54 78-61 20-124-20-124-81 0-31 23-53 65-64l30-7-57-53c-58-54-168-115-207-115-27 0-27 20 0 127 17 67 20 94 13 141-10 65-26 74-81 46zm355-67c3-21-1-27-17-27-26 0-51 10-51 20 0 16 32 41 49 38 9-2 17-15 19-31z"/><path d="m5703 2329c-56-16-75-94-23-94 15 0 25 6 25 15 1 30 17 40 67 40 44 0 54-4 84-34 20-20 34-44 34-58 0-45-92-164-179-231-21-17-22-20-8-34 14-15 29-14 154 11 147 30 233 60 217 76-9 9-54 4-218-26l-39-7 45 55c58 71 92 140 83 170-31 102-130 149-242 117z"/><path d="m13017 2323c-4-3-7-15-7-25 0-22-55-219-76-273-9-22-25-50-36-62-16-17-18-25-9-42 15-26 33-27 63-1 12 11 49 39 80 63 32 23 85 67 120 97 37 33 59 47 54 35-4-11-10-45-13-77-5-51-3-59 20-82 45-45 127-32 232 39 53 35 65 40 65 25 0-34 35-64 72-63 42 1 124 41 196 94l52 40v-45c0-35 5-48 22-60 43-30 106-12 148 41 28 36 7 43-41 14-19-12-45-21-58-21-23 0-24 2-18 60 4 50 11 66 41 102 46 53 48 88 7 88-24 0-35-9-61-50-43-67-127-141-210-185-88-46-94-45-88 8 5 41 19 76 58 146 21 37 17 61-10 61-22 0-38-18-70-80-60-115-283-240-305-171-7 24 7 88 40 180 46 127 13 123-123-15-105-106-148-141-158-131-3 3 11 67 32 142 32 115 35 138 23 146-17 10-33 11-42 2z"/><path d="m5114 2205c-4-9-4-18-1-22 12-11 93-22 167-22 128-1 136 32 10 44-36 3-89 8-118 11-42 4-53 2-58-11z"/><path d="m7214 2150c-67-14-168-64-187-94-10-15-22-52-28-82-23-136-28-160-34-175-3-9 1-21 10-29 21-18 42 2 56 54 10 37 12 39 20 19 10-28 35-30 48-4 14 26 72 51 119 51 54 0 72-8 72-32 0-56-54-88-149-88-50 0-59 3-64 20-6 25-33 17-43-12-15-47 72-71 179-48 64 13 108 44 127 91 26 61-29 119-112 119-48 0-120-24-148-50-36-33-38-21-8 50 17 41 19 56 10 70-8 14-7 21 6 33 31 29 117 59 180 64 65 6 81 22 43 43-22 11-38 11-97 0z"/><path d="m4652 2014-72-77v60c0 68-19 99-44 72-16-16-30-275-16-284 15-9 37 6 50 33 12 27 12 27 23 5 25-55 160-55 205 0 12 14 5 15-70 14-72-2-83 0-86 16-5 26 34 95 85 150 46 50 53 80 17 85-14 2-41-20-92-74z"/><path d="m5118 2079c-6-4-8-14-5-23 5-13 24-16 111-16 99 0 132 9 110 30-11 10-201 18-216 9z"/><path d="m14404 1949c-8-14 21-43 35-35 19 12 13 46-8 46-11 0-23-5-27-11z"/><path d="m4354 1041c-73-45-141-202-161-370-5-44-3-52 20-75 20-20 36-26 67-26 56 0 74 11 125 82l45 60v-55c0-68 16-87 71-87 69 0 189 52 189 82 0 13-26 10-87-12-32-11-72-20-90-20-31 0-33 2-33 33 0 17 9 73 19 122 23 108 19 145-15 145-22 0-24 4-24 44 0 79-63 117-126 77zm66-103c0-52 4-76 16-89 15-17 15-22-6-64-28-58-105-161-126-169-24-9-52 2-56 22-5 20 16 129 36 193 30 97 86 179 121 179 12 0 15-14 15-72z"/><path d="m6023 1049c-23-7-33-16-33-30 0-19 4-20 54-14 90 12 166-27 166-84 0-15-7-48-16-74-16-49-75-107-177-176-74-51-63-65 53-69 100-3 185 12 159 29-8 5-48 9-89 9h-75l40 32c80 64 130 122 144 168 16 53 16 111 1 139-27 52-156 91-227 70z"/><path d="m6642 1018c-58-47-81-80-108-156-30-86-30-117 1-147 41-42 111-27 175 40l33 34 31-34c39-41 100-59 170-50 61 9 86 20 86 40 0 13-14 14-83 9-80-6-83-6-116 21-33 28-33 29-26 92 4 43 3 63-4 63-6 0-11 19-11 44 0 55-19 76-69 76-28 0-49-9-79-32zm96-38c2-13-2-51-9-84-10-52-19-68-60-108-62-61-99-66-99-13 0 62 37 139 91 190 53 49 72 53 77 15z"/><path d="m5334 886c-4-9-4-20 0-23 23-23 271-31 301-9 18 13 17 14-11 19-16 3-65 8-109 12-44 3-101 8-127 11-39 5-49 3-54-10z"/><path d="m7224 799c-102-33-118-56-170-242-28-103-29-123-9-131 20-7 40 16 61 71 9 27 31 82 48 123s31 84 31 94c0 26 81 54 157 55 62 1 77 11 52 35-21 22-94 19-170-5z"/><path d="m5430 760c0-19 7-20 104-20 56 0 118 5 137 12l34 12-30 7c-16 4-78 7-137 8-102 1-108 0-108-19z"/><path d="m4782 618c-5-13-14-57-21-98s-17-88-22-104c-15-49-11-66 15-66 17 0 28 9 40 33 10 20 16 25 16 14 0-37 116-50 190-21 58 23 50 36-22 34-88-3-108-1-108 10 0 10 37 70 70 112 50 64-12 83-83 27l-38-31 3 53c3 44 0 54-14 57-12 2-21-5-26-20z"/><path d="m7203 554c-26-6-73-51-73-71 0-27 31-26 59 1 25 24 35 27 82 24s54-6 57-25c2-14-5-26-20-34-34-19-148-29-170-16-25 16-47-6-32-31 10-14 27-17 100-16 96 1 140 15 168 56 22 31 20 52-7 84-21 23-33 28-83 30-32 1-69 0-81-2z"/></g><g fill="#44b" transform="matrix(.08161748 0 0 -.08161748 1860.62454051453 1763.97723785665)"><path d="m750 2973c-57-10-88-25-119-57-40-41-55-100-46-179 6-45 12-61 32-77 32-25 35-25 64-1 22 17 24 26 21 89-4 105 24 120 164 87 33-7 119-19 190-25 88-8 134-16 144-26 32-32 8-420-28-456-18-18-126-28-289-28-185 0-206-4-250-52-55-58-58-82-55-363 1-145 7-274 13-293 11-34 51-62 89-62 12 0 35 14 52 31l31 30-6 238c-3 130-3 249 0 264l5 27h112c234 1 363 26 423 82 58 54 98 260 91 463-4 122-7 138-34 191-40 81-79 100-217 108-174 10-361 14-387 9z"/><path d="m3660 2971c-42-9-83-34-103-65-39-59-50-127-54-343-5-206-5-212 18-252 28-50 78-86 143-102 48-12 257-8 370 7l49 7-7-104c-4-57-11-189-16-294-9-177-9-192 8-214 35-47 100-46 136 2 22 29 27 86 42 452 7 191 0 235-44 283-45 48-92 56-241 38-146-18-229-20-265-6l-26 10v162c0 156 8 230 27 249 5 5 99 6 210 2l201-6 5-50c3-39 11-56 31-74 34-29 48-29 80 0 24 20 26 30 28 113 4 147-23 169-218 179-242 11-340 13-374 6z"/><path d="m1565 2945c-14-13-25-32-25-42s-1-297-3-638c-2-677-3-662 55-694 33-19 73-7 101 31 18 24 20 51 29 300 5 150 10 278 12 283 2 6 37 8 97 3 52-3 135-7 186-7 154-2 161-10 143-176-21-189-27-310-18-343 12-45 45-72 86-72 71 0 102 46 102 151 0 33 7 118 16 187 24 190 9 280-58 349-50 52-112 67-263 65-71-1-164-6-205-11-41-4-78-7-81-5-4 2-10 108-13 236-9 286-17 352-47 384-31 33-82 32-114-1z"/><path d="m2542 2944c-55-38-64-109-53-419 6-186 9-215 28-250 50-95 116-125 302-135 75-4 171-5 215-1l78 7-4-178c-2-97-7-181-11-184-4-4-42 1-85 11-104 26-285 27-363 3-106-33-149-107-99-170 26-34 68-41 132-21 74 23 202 20 308-7 182-47 274 5 301 168 12 77 27 831 19 994-7 152-20 181-86 186-88 7-103-51-104-401v-219l-201 4c-197 3-201 3-220 27-18 21-19 42-19 283v260l-29 29c-33 33-74 38-109 13z"/><path d="m2374 1391c-55-34-79-78-79-147 0-51 4-66 27-96 35-45 102-73 153-64 78 15 146 111 131 188-20 108-145 172-232 119z"/><path d="m1853 999c-39-11-66-56-61-101 6-59 69-64 76-6 4 30 34 38 145 38h67v-110c0-135-1-136-132-126-85 6-89 6-113-18-24-25-25-28-25-179 0-162 4-177 47-177 35 0 43 29 43 159v121h73c85 0 141 14 168 41 17 17 19 34 19 169 0 147-1 152-25 175-23 24-30 25-137 24-62 0-128-5-145-10z"/><path d="m2985 1000c-91-16-93-18-104-58-15-51-14-537 0-564 19-36 69-48 204-48 121 0 127 1 151 25l24 24-2 292-3 292-26 19c-31 23-161 33-244 18zm169-86c14-5 16-37 16-250v-245l-102 3-103 3v240 240l40 6c57 9 131 10 149 3z"/><path d="m2351 971c-24-24-29-73-37-372-6-232-6-237 15-258 23-23 29-25 51-11 12 7 16 40 20 150l5 141 35-23c19-13 59-55 88-93 30-39 78-96 108-128 47-51 56-57 74-47 29 16 25 42-15 92-19 24-62 78-95 121-61 77-61 77-33 77 15 0 46 9 69 19 56 26 67 57 62 179-6 156-27 172-220 172-93 0-111-3-127-19zm257-74c16-13 17-168 0-185-7-7-41-12-84-12-40 0-84-4-98-10l-26-10v120 119l98-6c53-3 103-10 110-16z"/></g></svg>