<?xml version="1.0" standalone="no"?>
<!DOCTYPE svg PUBLIC "-//W3C//DTD SVG 20010904//EN"
 "http://www.w3.org/TR/2001/REC-SVG-20010904/DTD/svg10.dtd">
<svg version="1.0" xmlns="http://www.w3.org/2000/svg"
 width="968.000000pt" height="1252.843104pt" viewBox="0 0 968.000000 1252.843104"
 preserveAspectRatio="xMidYMid meet">
<metadata>
Created by potrace 1.16, written by Peter Selinger 2001-2019
</metadata>
<g transform="translate(-40.000000,1291.000000) scale(0.100000,-0.100000)"
fill="#000000" stroke="none">
<path d="M826 12838 c-19 -40 -40 -90 -47 -111 -16 -45 -21 -48 -116 -72 -48
-12 -73 -24 -73 -33 0 -10 7 -12 23 -8 49 15 132 34 135 31 2 -1 -3 -18 -11
-37 -12 -30 -22 -36 -73 -51 -33 -9 -71 -19 -86 -22 -19 -4 -28 -12 -28 -25 0
-25 19 -25 67 0 21 11 52 22 69 26 l30 6 -10 -62 -10 -62 -148 4 c-135 4 -148
3 -148 -13 0 -16 60 -18 928 -22 834 -5 1045 -11 1174 -32 31 -6 39 -12 50
-43 19 -56 16 -554 -6 -832 -12 -147 -20 -394 -25 -712 -7 -560 1 -519 -106
-539 -82 -15 -338 2 -772 50 -475 54 -983 86 -983 64 0 -18 39 -23 285 -38
328 -20 451 -31 800 -71 196 -23 370 -37 500 -41 231 -6 272 0 307 50 23 32
23 34 30 482 6 415 12 566 38 935 13 179 12 519 -1 600 -5 36 -18 81 -27 100
l-17 35 -75 1 c-41 1 -147 7 -235 13 -108 9 -378 13 -838 12 l-679 -1 7 32
c18 90 26 109 51 118 50 19 55 14 34 -34 -16 -39 -17 -46 -4 -57 20 -16 39 2
74 72 26 51 33 57 74 68 25 6 48 15 51 21 8 12 -11 13 -53 1 -38 -11 -41 -1
-13 45 16 26 29 33 80 44 77 16 82 35 6 25 -30 -3 -55 -4 -55 -2 0 2 9 26 21
51 11 26 18 54 15 62 -8 20 -46 18 -52 -3 -3 -10 -17 -46 -31 -80 -22 -55 -28
-62 -59 -68 -20 -3 -42 -9 -51 -12 -21 -8 -12 20 34 114 36 74 36 93 2 93 -15
0 -28 -18 -53 -72z m84 -155 c0 -14 -40 -73 -49 -73 -4 0 -22 -3 -39 -6 l-31
-6 11 35 c9 29 18 38 47 45 47 13 61 14 61 5z"/>
<path d="M1580 12817 c-36 -18 -85 -46 -110 -63 -42 -29 -90 -48 -90 -37 0 3
13 21 30 39 29 34 31 64 4 64 -8 0 -55 -29 -104 -65 -49 -36 -98 -65 -109 -65
-22 0 -45 -25 -36 -40 9 -15 43 -12 52 4 8 14 88 76 98 76 3 0 -12 -24 -33
-52 -50 -68 -65 -96 -58 -114 11 -28 45 -15 65 24 10 20 34 57 52 82 30 42 33
43 40 22 11 -29 35 -28 55 3 15 23 138 105 158 105 4 0 -20 -32 -54 -70 -79
-93 -114 -146 -106 -165 11 -29 34 -15 83 53 28 37 78 97 111 134 95 102 76
128 -48 65z"/>
<path d="M1787 12796 c-78 -28 -98 -42 -90 -62 9 -24 52 -17 62 10 10 24 69
46 125 46 61 0 8 -70 -112 -147 -136 -88 -126 -109 56 -115 67 -3 125 -1 128
3 9 15 -37 29 -121 37 l-80 7 82 54 c124 80 160 134 115 174 -26 24 -85 21
-165 -7z"/>
<path d="M7868 12586 c-58 -23 -87 -46 -113 -91 -54 -92 -13 -153 112 -169 51
-6 143 9 143 24 0 4 -33 10 -74 13 -111 8 -143 30 -137 92 4 46 93 105 160
105 47 0 58 -13 41 -45 -16 -30 -7 -55 20 -55 30 0 35 26 14 67 -33 63 -96 85
-166 59z"/>
<path d="M8309 12369 c-20 -12 -20 -579 0 -603 16 -19 37 -21 44 -3 3 7 2 147
-1 310 -5 302 -8 318 -43 296z"/>
<path d="M8524 12325 c-3 -19 -4 -151 -1 -293 5 -225 8 -257 22 -260 37 -8 45
16 45 133 l0 112 83 3 c45 2 98 3 117 3 19 -1 204 -4 410 -7 206 -4 376 -9
378 -11 3 -3 0 -51 -6 -107 -7 -57 -15 -180 -18 -275 l-7 -172 71 -74 c40 -40
72 -77 72 -81 0 -9 -152 -106 -167 -106 -7 0 -16 7 -21 15 -7 13 -16 6 -51
-35 l-42 -50 66 0 c63 0 65 1 60 23 -4 19 7 29 86 74 l91 53 89 -80 c77 -69
92 -79 109 -70 11 6 20 16 20 22 0 7 -36 46 -81 87 l-81 76 156 158 c86 87
156 164 156 172 0 30 -26 14 -75 -46 -27 -34 -97 -106 -154 -162 l-105 -100
-60 67 -61 67 7 192 c4 106 12 230 18 276 15 130 45 120 -333 123 -177 1 -413
2 -525 3 l-202 0 0 137 c0 75 -3 143 -6 152 -3 9 -17 16 -30 16 -19 0 -24 -7
-30 -35z"/>
<path d="M5750 12299 c-163 -13 -355 -39 -410 -55 -78 -23 -82 -35 -78 -221 2
-99 -1 -159 -7 -162 -10 -4 -28 39 -39 90 -7 32 -28 42 -51 25 -16 -12 -16
-16 -1 -68 21 -73 50 -110 85 -106 24 3 26 8 31 56 3 29 3 107 0 174 -8 153
-6 165 34 177 84 27 434 61 633 61 116 0 143 3 143 14 0 8 -7 17 -16 20 -21 8
-193 5 -324 -5z"/>
<path d="M3201 12261 c-45 -45 -47 -90 -20 -456 13 -188 6 -869 -11 -985 -7
-41 -18 -87 -26 -103 -16 -30 -6 -57 22 -57 27 0 38 -46 42 -176 5 -154 -5
-249 -63 -604 -63 -387 -78 -508 -79 -670 -1 -114 3 -158 17 -205 25 -82 63
-145 87 -145 26 0 25 11 -7 89 -24 59 -27 82 -31 216 -5 180 8 306 78 733 62
383 74 503 60 619 -12 104 -24 149 -46 174 -14 15 -15 25 -5 66 6 26 16 93 21
148 12 127 12 832 0 945 -5 47 -13 141 -16 210 -6 114 -5 129 13 165 20 38 21
38 32 17 7 -12 9 -27 6 -32 -3 -6 -1 -10 4 -10 17 0 13 47 -5 64 -21 22 -50
20 -73 -3z"/>
<path d="M3521 12128 c8 -15 23 -18 84 -18 54 0 75 -4 74 -12 0 -7 -8 -54 -18
-104 -19 -99 -18 -114 9 -114 28 0 35 18 55 127 l18 102 41 6 c23 3 60 6 84 8
23 1 42 7 42 12 0 6 -73 10 -199 10 -186 0 -198 -1 -190 -17z"/>
<path d="M5772 12121 c-64 -22 -85 -41 -113 -98 -28 -58 -15 -93 50 -131 42
-25 55 -27 151 -27 101 0 210 18 210 35 0 5 -51 6 -112 3 -159 -8 -228 15
-243 78 -5 21 0 34 25 62 34 39 83 60 142 60 44 0 49 9 13 25 -35 16 -61 15
-123 -7z"/>
<path d="M4430 12115 c-41 -16 -40 -16 21 -19 117 -4 103 -73 -33 -164 -52
-35 -60 -48 -46 -75 8 -16 17 -18 71 -12 73 8 228 56 275 85 45 27 40 45 -6
21 -59 -30 -155 -59 -219 -65 l-58 -7 29 23 c16 13 48 37 70 53 22 17 45 42
50 57 27 78 -64 139 -154 103z"/>
<path d="M5437 12113 c-12 -21 -77 -224 -77 -241 0 -22 32 -38 52 -26 7 4 52
11 100 14 92 7 105 11 93 31 -6 8 -32 10 -96 6 -49 -4 -89 -6 -89 -4 0 1 16
46 35 101 18 54 31 104 28 112 -5 15 -39 19 -46 7z"/>
<path d="M4835 12103 c-43 -9 -75 -26 -75 -39 0 -8 5 -14 10 -14 6 0 10 5 10
10 0 6 20 10 45 10 l44 0 -14 -40 c-39 -111 -33 -192 12 -164 10 6 19 20 21
30 1 10 10 56 19 102 l18 82 37 0 c43 0 43 -1 23 -39 -42 -82 -37 -186 9 -179
19 3 22 11 26 73 3 44 12 79 23 95 22 32 22 57 -2 70 -19 10 -165 12 -206 3z"/>
<path d="M1085 12088 c-2 -7 -17 -49 -33 -93 l-29 -80 -69 0 c-57 0 -69 -3
-72 -17 -3 -16 5 -18 57 -18 l61 0 -6 -58 c-8 -72 7 -90 63 -76 43 11 57 34
20 34 -31 0 -37 15 -24 57 l10 33 69 0 c54 0 68 3 68 15 0 11 -11 15 -37 15
-21 0 -48 3 -60 6 l-21 6 27 81 c30 89 30 107 0 107 -11 0 -22 -6 -24 -12z"/>
<path d="M7404 12053 c-10 -8 -9 -29 16 -358 12 -153 7 -1106 -6 -1127 -19
-30 19 -31 428 -20 227 7 423 9 434 6 26 -7 43 15 23 30 -36 28 -41 43 -25 75
32 61 89 92 103 55 3 -8 13 -49 22 -91 17 -82 37 -107 69 -87 9 6 19 24 20 39
4 31 46 97 81 130 29 25 37 13 45 -75 8 -82 23 -106 59 -96 23 5 27 12 27 44
0 41 33 94 80 131 59 44 91 29 121 -56 28 -78 40 -84 139 -72 36 5 176 6 312
3 231 -5 247 -4 252 13 3 10 6 95 8 190 3 179 -1 199 -38 191 -22 -4 -31 -67
-33 -233 -1 -55 -5 -105 -9 -112 -5 -8 -82 -13 -273 -15 l-266 -3 -17 47 c-38
108 -112 138 -194 78 -23 -16 -52 -45 -64 -64 l-22 -34 -21 52 c-18 47 -23 51
-56 54 -31 3 -41 -3 -75 -40 -21 -24 -46 -54 -55 -68 l-16 -25 -17 57 c-16 55
-52 98 -81 98 -40 0 -125 -91 -125 -135 0 -13 -6 -27 -12 -33 -8 -6 -161 -13
-383 -17 l-370 -7 1 154 c0 84 2 315 3 513 2 271 -1 403 -13 535 -9 96 -16
188 -16 205 l0 31 383 -3 c259 -3 387 -1 397 6 36 25 -21 31 -331 31 -174 0
-356 3 -405 6 -49 3 -94 2 -100 -3z"/>
<path d="M3954 12018 c-4 -6 0 -17 8 -25 12 -12 33 -13 111 -7 86 6 129 16
117 27 -11 10 -231 14 -236 5z"/>
<path d="M1960 11970 c-88 -15 -134 -32 -162 -60 -28 -28 -37 -60 -18 -60 6 0
10 8 10 19 0 10 6 23 13 30 22 18 130 41 200 43 99 3 103 -8 28 -86 -69 -73
-103 -137 -103 -201 -1 -52 30 -110 58 -110 20 0 21 6 8 82 -12 76 1 107 81
193 41 44 75 84 75 90 0 56 -75 80 -190 60z"/>
<path d="M3995 11940 c-15 -24 14 -32 103 -29 80 4 114 11 101 23 -2 2 -47 7
-100 11 -70 5 -99 3 -104 -5z"/>
<path d="M1040 11628 c-80 -5 -149 -14 -155 -19 -20 -20 11 -27 85 -19 41 5
121 9 177 10 57 0 105 4 108 10 14 23 -47 28 -215 18z"/>
<path d="M1640 11583 c-108 -4 -138 -12 -124 -35 14 -22 235 1 271 28 17 12
16 13 -7 12 -14 -1 -77 -4 -140 -5z"/>
<path d="M4263 11535 c-8 -23 3 -29 52 -26 25 1 45 -2 45 -7 0 -4 -16 -23 -35
-42 -67 -65 -46 -87 90 -92 125 -4 140 12 30 31 -44 7 -82 15 -84 17 -3 3 5
11 17 20 52 36 52 85 0 103 -47 16 -107 14 -115 -4z"/>
<path d="M1027 11489 c-80 -12 -129 -26 -152 -44 -20 -16 -20 -16 0 -11 37 10
149 26 153 22 2 -2 -1 -39 -7 -81 -6 -42 -11 -112 -11 -156 0 -65 3 -81 16
-86 31 -12 41 23 47 154 3 71 10 140 16 156 9 24 16 27 55 27 56 0 106 10 106
21 0 11 -144 10 -223 -2z"/>
<path d="M5743 11484 c-18 -9 -30 -21 -27 -26 4 -6 9 -6 14 2 4 7 27 10 60 8
l53 -3 -56 -54 c-62 -60 -69 -82 -34 -106 32 -20 202 -34 195 -15 -2 8 -33 20
-69 28 -35 8 -68 18 -74 23 -6 6 7 24 38 50 51 44 62 80 28 99 -29 15 -91 12
-128 -6z"/>
<path d="M7020 11465 c0 -9 9 -15 25 -15 32 0 32 -14 -1 -43 -38 -32 -57 -73
-45 -96 10 -18 66 -31 137 -31 56 0 42 27 -21 41 -30 7 -55 15 -55 19 0 3 16
21 35 40 38 37 43 60 19 84 -21 21 -94 22 -94 1z"/>
<path d="M6830 11443 c-55 -9 -130 -34 -130 -43 0 -6 19 -7 47 -3 l46 6 -7
-104 c-3 -57 -9 -127 -12 -156 -6 -45 -4 -52 12 -56 11 -2 4 -3 -15 -1 -39 4
-71 -10 -71 -32 0 -23 24 -27 74 -10 26 9 66 16 89 16 48 0 73 12 62 30 -5 8
-23 9 -58 5 -46 -7 -49 -6 -42 11 9 21 24 156 28 244 2 62 8 70 55 70 22 0 32
5 32 15 0 15 -48 19 -110 8z"/>
<path d="M3680 11414 c-94 -41 -140 -142 -87 -192 60 -56 194 -58 260 -4 28
25 19 34 -15 15 -48 -25 -139 -23 -175 3 -38 29 -41 64 -6 104 49 59 127 78
143 35 11 -28 31 -32 50 -10 19 23 7 37 -46 51 -63 17 -81 17 -124 -2z"/>
<path d="M3984 11375 c-34 -71 -42 -135 -19 -158 27 -28 69 -21 121 21 l48 38
16 -30 c9 -19 23 -31 35 -31 18 0 20 7 20 60 1 33 5 80 9 103 9 42 8 44 -15
40 -18 -2 -29 -15 -45 -55 -11 -29 -28 -61 -38 -72 -24 -26 -76 -50 -93 -44
-18 7 -10 58 19 119 21 46 18 64 -12 64 -13 0 -27 -18 -46 -55z"/>
<path d="M6483 11413 c-15 -5 -55 -128 -77 -237 -15 -72 -15 -81 -1 -103 12
-18 21 -22 38 -17 12 4 60 10 106 13 48 3 86 11 88 17 4 12 -62 24 -133 24
-31 0 -44 4 -44 14 0 8 13 67 30 132 16 66 30 126 30 135 0 18 -18 29 -37 22z"/>
<path d="M5227 11390 c-28 -22 -67 -114 -67 -158 0 -77 82 -128 156 -97 19 8
49 26 66 40 30 25 48 25 48 1 0 -22 35 -46 65 -46 20 0 41 11 65 35 l37 36 11
-40 c12 -38 38 -60 53 -44 6 7 14 169 10 211 0 8 -10 12 -23 10 -17 -2 -25
-14 -34 -52 -15 -57 -68 -118 -99 -114 -19 3 -20 10 -18 96 2 86 0 92 -18 92
-21 0 -49 -51 -49 -91 0 -29 -62 -86 -110 -100 -33 -10 -43 -9 -63 4 -48 31
-42 129 12 189 31 35 56 31 47 -8 -5 -18 -2 -24 10 -24 13 0 15 6 9 27 -4 16
-11 34 -17 40 -16 19 -62 16 -91 -7z"/>
<path d="M1972 11298 c-17 -17 -15 -48 4 -55 9 -3 24 3 37 15 21 22 21 22 2
37 -25 18 -28 18 -43 3z"/>
<path d="M4277 11273 c-14 -13 -7 -101 9 -117 26 -27 81 -20 115 13 57 57 25
111 -64 111 -30 0 -57 -3 -60 -7z m133 -46 c0 -30 -18 -47 -51 -47 -30 0 -41
17 -32 49 4 17 13 21 44 21 34 0 39 -3 39 -23z"/>
<path d="M6162 11168 c-7 -7 -12 -34 -12 -61 l0 -49 -72 4 c-67 3 -73 1 -73
-17 0 -18 6 -20 73 -17 l72 2 0 -29 c0 -16 7 -37 16 -46 23 -23 44 -2 44 46 0
35 3 39 32 47 42 11 52 37 10 28 -28 -7 -30 -5 -36 31 -14 76 -26 89 -54 61z"/>
<path d="M4604 11069 c-13 -21 21 -30 95 -25 41 3 107 6 148 6 58 0 73 3 73
15 0 13 -24 15 -154 15 -103 0 -157 -4 -162 -11z"/>
<path d="M3688 11061 c-201 -6 -242 -11 -225 -28 10 -9 940 -3 950 7 5 4 4 10
-1 14 -15 9 -484 14 -724 7z"/>
<path d="M5560 11049 c-52 -4 -131 -13 -175 -18 -44 -5 -93 -9 -110 -8 -24 2
-30 -2 -30 -18 0 -24 4 -24 208 -1 81 9 215 17 297 18 108 1 150 5 150 14 0 6
-10 14 -22 18 -30 8 -200 5 -318 -5z"/>
<path d="M6885 11019 c-44 -4 -171 -10 -282 -15 -189 -7 -203 -8 -203 -26 0
-17 8 -18 153 -12 201 8 514 31 527 39 6 4 8 11 5 16 -7 10 -80 10 -200 -2z"/>
<path d="M4573 10934 c-17 -7 -17 -40 0 -47 21 -8 248 20 260 32 8 8 -16 11
-90 11 -55 0 -113 2 -129 5 -16 2 -35 2 -41 -1z"/>
<path d="M5424 10905 c-10 -26 7 -35 69 -35 80 0 167 -11 167 -20 0 -4 -31
-24 -70 -44 -75 -40 -94 -61 -79 -89 8 -13 22 -17 62 -16 68 2 109 11 114 26
3 8 -14 13 -54 15 l-58 3 73 38 c58 30 72 42 72 61 0 39 -25 50 -129 54 -53 2
-100 8 -105 13 -15 14 -56 10 -62 -6z"/>
<path d="M3870 10869 c0 -20 4 -21 61 -17 58 4 61 3 41 -11 -11 -9 -36 -29
-56 -44 -37 -29 -45 -54 -24 -75 15 -15 134 -16 194 -1 62 16 70 34 12 26 -52
-7 -148 2 -148 14 0 4 23 21 50 38 50 31 62 55 38 79 -7 7 -43 12 -90 12 -73
0 -78 -1 -78 -21z"/>
<path d="M6586 10881 c-13 -21 5 -31 60 -31 30 0 54 -4 54 -10 0 -5 -25 -28
-56 -50 -61 -46 -72 -63 -54 -85 18 -21 220 -22 220 -1 0 19 -22 26 -79 26
-26 0 -51 3 -54 6 -3 4 11 19 32 35 81 58 59 107 -51 116 -43 4 -68 2 -72 -6z"/>
<path d="M4310 10443 c-62 -10 -100 -39 -84 -64 10 -17 25 -9 19 11 -6 18 -2
20 54 20 34 0 61 -4 61 -10 0 -5 -25 -28 -55 -50 -83 -61 -74 -83 35 -87 36
-1 89 -5 118 -8 43 -5 52 -4 52 9 0 16 -39 29 -125 41 -42 6 -46 8 -30 17 57
31 82 81 53 106 -17 13 -66 21 -98 15z"/>
<path d="M3647 10380 c-102 -65 -167 -213 -122 -277 24 -34 88 -48 155 -33 59
13 124 43 136 61 5 9 0 10 -17 5 -141 -44 -193 -43 -217 7 -20 40 7 112 61
166 43 44 110 85 121 74 13 -14 5 -34 -19 -45 -42 -19 -23 -68 20 -52 19 7 21
94 3 112 -21 21 -72 13 -121 -18z"/>
<path d="M5774 10395 c-18 -13 -16 -14 24 -15 23 0 42 -4 42 -8 0 -5 -22 -28
-50 -51 -53 -45 -65 -82 -32 -100 24 -13 206 -35 226 -28 30 12 9 24 -61 37
-78 15 -113 26 -113 37 0 5 20 20 44 36 49 31 61 56 39 86 -17 25 -89 29 -119
6z"/>
<path d="M8916 10378 c-22 -119 -44 -272 -40 -283 10 -24 36 -26 71 -4 32 20
44 21 135 15 126 -8 138 -2 138 64 0 61 -18 76 -22 18 l-3 -43 -122 0 c-98 0
-123 2 -123 13 0 8 7 54 16 103 19 105 14 139 -21 139 -18 0 -26 -6 -29 -22z"/>
<path d="M5197 10363 c-3 -5 -37 -83 -76 -175 -71 -167 -83 -211 -58 -221 22
-8 212 10 235 22 23 12 30 55 12 66 -5 3 -10 -1 -10 -9 0 -8 -9 -20 -19 -26
-26 -13 -161 -13 -161 0 0 6 11 36 24 68 81 194 106 257 106 269 0 14 -46 19
-53 6z"/>
<path d="M3905 10336 c-24 -37 -44 -146 -32 -179 19 -56 83 -53 164 9 26 20
33 22 33 9 0 -9 11 -27 25 -40 32 -33 76 -33 112 0 l28 26 -36 -7 c-52 -8 -63
10 -54 91 6 55 4 66 -10 71 -21 9 -33 -4 -50 -52 -23 -70 -134 -134 -152 -87
-4 9 -1 41 6 72 25 109 25 111 2 111 -11 0 -28 -11 -36 -24z"/>
<path d="M5447 10343 c-4 -3 -7 -13 -7 -21 0 -11 11 -13 60 -7 33 4 60 5 60 2
0 -2 -13 -47 -29 -98 -15 -52 -31 -116 -35 -142 -6 -38 -12 -50 -32 -57 -28
-11 -32 -45 -6 -58 23 -11 207 0 207 13 0 6 -28 15 -63 20 -35 6 -61 13 -58
16 3 3 13 41 21 85 8 44 24 105 35 136 11 31 17 64 14 72 -4 11 0 16 14 16 27
0 52 10 52 21 0 10 -223 12 -233 2z"/>
<path d="M4553 10043 c-14 -5 -18 -43 -5 -43 193 -5 262 -5 262 2 0 16 -44 29
-113 34 -40 3 -85 6 -102 8 -16 2 -36 1 -42 -1z"/>
<path d="M4280 9988 c-36 -4 -226 -10 -423 -12 -333 -4 -397 -9 -376 -31 3 -2
149 -5 325 -5 349 0 559 15 559 39 0 19 -7 19 -85 9z"/>
<path d="M4972 9912 c-2 -7 -1 -17 4 -22 6 -6 147 -6 353 -1 188 4 354 6 368
3 20 -4 24 -1 21 14 -3 18 -19 19 -372 19 -296 0 -370 -3 -374 -13z"/>
<path d="M4551 9901 c-41 -26 26 -51 138 -51 119 0 120 26 1 36 -50 3 -93 11
-96 15 -7 11 -25 11 -43 0z"/>
<path d="M5282 9784 c3 -15 13 -19 52 -21 84 -4 75 -21 -39 -74 -85 -39 -104
-58 -80 -82 10 -11 39 -13 122 -9 127 5 175 13 181 30 3 9 -23 12 -100 12
l-103 0 64 33 c73 37 90 64 62 99 -16 18 -31 23 -91 26 -66 4 -72 3 -68 -14z"/>
<path d="M3837 9783 c-29 -3 -37 -8 -35 -21 3 -14 13 -16 61 -14 31 2 57 0 57
-4 0 -5 -25 -32 -56 -60 -50 -46 -55 -54 -45 -73 10 -18 21 -21 72 -21 66 0
149 17 149 31 0 5 -28 9 -63 9 -35 0 -67 3 -70 7 -4 3 11 22 33 40 83 72 34
122 -103 106z"/>
<path d="M7018 9525 l-43 -75 -47 0 c-36 0 -48 -4 -48 -15 0 -10 11 -15 35
-15 19 0 35 -2 35 -4 0 -3 -9 -21 -21 -40 -51 -87 -53 -157 -6 -175 34 -13
100 5 128 35 26 28 15 31 -29 8 -72 -36 -92 12 -44 107 l27 54 123 3 c161 4
160 32 -2 32 -88 0 -94 7 -57 65 36 57 41 95 11 95 -14 0 -32 -21 -62 -75z"/>
<path d="M7714 9566 c-3 -8 16 -43 41 -78 165 -223 189 -473 70 -715 -25 -50
-45 -94 -45 -97 0 -15 41 -4 61 17 32 33 78 141 101 237 28 116 20 235 -22
363 -36 105 -60 151 -125 231 -46 56 -71 69 -81 42z"/>
<path d="M6532 9485 c-38 -32 -112 -175 -151 -291 -67 -199 -57 -355 27 -439
18 -19 34 -25 56 -23 30 3 50 28 23 28 -8 0 -26 13 -40 29 -92 110 -43 411
103 633 28 42 50 79 50 82 0 15 -41 3 -68 -19z"/>
<path d="M3707 9300 c-43 -51 -116 -175 -123 -208 -7 -36 8 -62 38 -62 20 0
110 44 167 81 31 21 33 21 28 3 -19 -61 -18 -73 2 -93 17 -17 33 -21 84 -21
69 0 107 8 107 21 0 5 -15 9 -32 9 -59 0 -108 19 -108 41 0 26 30 84 69 133
71 88 14 91 -72 3 -59 -59 -165 -127 -201 -127 -9 0 -16 8 -16 17 0 16 57 115
105 182 14 18 22 37 19 42 -11 18 -43 8 -67 -21z"/>
<path d="M4691 9226 c-57 -100 -78 -167 -63 -201 20 -44 58 -34 153 43 l85 68
0 -49 c-1 -41 3 -52 27 -73 29 -25 88 -33 116 -15 19 12 5 30 -18 24 -11 -3
-28 4 -40 16 -29 29 -27 83 4 150 22 46 24 57 12 68 -17 17 -44 7 -53 -19 -14
-46 -173 -188 -210 -188 -25 0 -15 46 31 138 25 49 45 95 45 101 0 6 -10 11
-23 11 -19 0 -32 -15 -66 -74z"/>
<path d="M5603 9241 c-89 -15 -162 -95 -163 -178 0 -70 106 -89 215 -39 l57
26 25 -20 c35 -28 129 -27 183 0 113 58 82 165 -48 165 -50 0 -62 -4 -101 -35
-24 -19 -47 -45 -52 -57 -11 -31 -47 -52 -110 -64 -118 -24 -146 32 -61 121
44 46 52 50 95 50 40 0 47 3 47 20 0 22 -11 23 -87 11z m364 -93 c19 -15 16
-32 -11 -61 -32 -35 -97 -52 -141 -37 -49 16 -56 53 -10 61 12 3 20 12 20 24
0 12 9 22 25 26 31 10 99 2 117 -13z"/>
<path d="M6022 9184 c-41 -28 -25 -55 53 -92 80 -39 77 -45 -28 -66 -41 -8
-62 -18 -62 -27 0 -30 188 0 209 34 16 26 -2 47 -72 85 -35 18 -60 38 -57 43
4 5 30 9 58 9 50 1 51 1 27 15 -34 19 -100 19 -128 -1z"/>
<path d="M4187 9173 c-23 -22 -1 -31 90 -38 54 -4 108 -11 122 -16 16 -7 28
-6 35 1 17 18 -19 38 -78 44 -139 14 -163 15 -169 9z"/>
<path d="M6880 9131 c-226 -5 -295 -9 -295 -18 0 -18 1177 -23 1182 -6 2 6 -6
13 -19 16 -38 10 -554 14 -868 8z"/>
<path d="M5143 9071 c-44 -27 -63 -60 -70 -118 -5 -43 -2 -54 16 -72 45 -45
137 -15 199 64 28 36 29 95 2 120 -30 27 -108 31 -147 6z m141 -24 c46 -34
-38 -147 -109 -147 -28 0 -36 4 -41 24 -11 47 22 113 66 129 27 10 66 7 84 -6z"/>
<path d="M4181 9071 c-30 -20 -3 -38 66 -44 111 -11 163 -9 163 6 0 9 -27 17
-87 25 -49 6 -97 13 -108 16 -11 4 -26 2 -34 -3z"/>
<path d="M6950 8990 c-69 -4 -132 -10 -141 -14 -13 -6 -17 -29 -22 -113 -7
-116 -20 -152 -30 -78 -11 77 -35 102 -76 76 -11 -7 -11 -13 3 -32 9 -13 16
-37 16 -54 0 -71 31 -132 62 -120 18 7 38 122 38 223 l0 77 373 0 c204 0 380
-4 389 -8 9 -5 15 -14 12 -21 -7 -18 20 -38 40 -30 20 8 32 52 18 66 -5 5 -27
14 -48 19 -51 13 -475 19 -634 9z"/>
<path d="M6939 8853 c-5 -16 -23 -63 -39 -105 -54 -139 -45 -148 115 -123 71
11 120 23 127 33 11 13 3 14 -67 7 -130 -14 -140 -13 -137 10 2 11 16 55 33
97 16 42 26 84 23 92 -10 26 -43 19 -55 -11z"/>
<path d="M7275 8817 c-51 -29 -87 -82 -83 -122 2 -23 11 -34 38 -47 62 -32
290 -21 290 13 0 4 -21 6 -47 3 -64 -8 -192 11 -212 31 -14 14 -14 18 1 43 25
42 85 73 137 70 47 -3 68 15 29 26 -48 13 -113 6 -153 -17z"/>
<path d="M2428 8543 c-35 -9 -17 -21 50 -32 85 -15 172 -39 172 -49 0 -11 -29
-27 -113 -62 -91 -38 -125 -72 -104 -104 11 -16 43 -27 138 -49 116 -26 157
-28 145 -9 -3 5 -55 24 -116 42 -60 18 -110 36 -110 40 0 7 89 50 172 83 49
20 59 53 25 83 -35 30 -215 70 -259 57z"/>
<path d="M1712 8459 c-106 -52 -195 -180 -196 -280 -1 -42 3 -53 31 -81 29
-28 40 -33 98 -36 58 -4 72 -1 141 32 42 20 99 52 125 72 l49 36 0 -36 c0 -39
28 -76 58 -76 22 0 90 36 120 63 l22 20 0 -34 c0 -48 24 -79 61 -79 33 0 35 6
13 39 -18 25 -14 89 10 158 14 41 11 63 -8 63 -19 0 -44 -32 -59 -76 -16 -46
-85 -104 -124 -104 -24 0 -25 2 -20 46 2 25 21 78 41 119 41 83 43 95 18 95
-24 0 -54 -33 -85 -95 -29 -58 -61 -89 -137 -137 -117 -74 -219 -90 -265 -43
-69 68 23 248 159 311 59 28 89 30 106 9 10 -12 10 -18 0 -30 -18 -21 -5 -47
22 -43 23 3 41 48 19 48 -5 0 -13 9 -16 20 -8 25 -54 50 -93 50 -16 0 -56 -14
-90 -31z"/>
<path d="M4570 8458 c-24 -10 -23 -11 25 -23 104 -26 108 -38 35 -105 -40 -37
-50 -53 -50 -78 0 -39 6 -42 150 -77 57 -14 109 -30 114 -35 16 -16 36 -11 36
8 0 23 -43 44 -149 72 -44 12 -84 27 -88 33 -3 5 17 31 46 57 69 64 68 102 -4
137 -34 17 -89 22 -115 11z"/>
<path d="M3493 8283 c-35 -9 -63 -20 -63 -25 0 -15 30 -21 44 -9 16 13 140 20
152 9 14 -14 -22 -42 -104 -80 -85 -39 -103 -57 -82 -83 10 -12 38 -15 125
-15 63 0 120 3 129 6 36 14 11 22 -84 29 l-100 7 80 39 c93 45 117 76 84 110
-28 27 -104 32 -181 12z"/>
<path d="M3959 8280 c-47 -25 -85 -71 -100 -121 -17 -54 -3 -89 41 -111 62
-31 119 -23 256 38 6 3 14 -6 18 -20 9 -37 50 -60 105 -60 36 0 64 9 114 37
37 20 67 32 67 27 0 -5 11 -17 25 -26 21 -14 30 -15 52 -5 l26 12 -22 20 c-23
22 -26 47 -12 97 8 27 7 34 -6 39 -26 10 -46 -10 -62 -62 -14 -42 -23 -52 -62
-73 -58 -29 -127 -32 -147 -6 -13 18 -12 46 4 117 6 26 4 28 -17 25 -16 -2
-31 -17 -47 -45 -28 -51 -92 -85 -172 -91 -97 -7 -130 47 -77 127 41 61 132
93 132 46 0 -13 8 -21 23 -23 33 -5 26 19 -15 51 -42 32 -74 33 -124 7z"/>
<path d="M7352 8288 c-13 -17 -42 -146 -44 -197 -1 -44 15 -71 43 -71 10 0 51
27 91 59 l73 59 3 -36 c6 -61 27 -75 97 -69 33 3 68 9 78 12 35 14 15 25 -43
25 -71 0 -80 11 -61 74 7 23 15 53 18 69 8 43 -23 34 -73 -22 -47 -52 -134
-121 -153 -121 -16 0 -14 47 6 136 14 65 14 77 2 85 -19 12 -25 11 -37 -3z"/>
<path d="M6273 8127 c-26 -39 -63 -157 -63 -202 0 -42 22 -65 61 -65 23 0 44
13 86 53 l56 52 -7 -32 c-10 -46 0 -70 36 -82 59 -21 218 -7 218 19 0 4 -35 8
-78 8 -100 -1 -126 12 -117 55 4 18 18 53 31 80 23 48 23 77 -1 77 -15 0 -45
-27 -45 -40 0 -14 -80 -103 -116 -129 -20 -14 -40 -21 -50 -17 -24 9 -11 95
26 172 36 74 37 84 8 84 -15 0 -31 -12 -45 -33z"/>
<path d="M2354 8114 c-3 -11 -10 -29 -15 -42 -24 -60 6 -102 72 -102 33 0 47
6 76 35 23 23 33 42 31 56 -5 33 -50 61 -107 67 -43 4 -52 2 -57 -14z m120
-24 c32 -12 34 -43 4 -64 -28 -20 -62 -20 -78 -1 -10 12 -10 21 0 45 13 32 31
37 74 20z"/>
<path d="M7791 8102 c-19 -9 -44 -30 -55 -45 -19 -26 -19 -30 -5 -55 31 -56
149 -32 203 41 l21 29 -28 24 c-34 29 -87 32 -136 6z m139 -26 c0 -19 -56 -61
-91 -69 -16 -4 -33 -1 -45 8 -18 14 -18 16 14 45 26 24 41 30 77 30 33 0 45
-4 45 -14z"/>
<path d="M5490 8096 c0 -22 8 -24 131 -47 62 -11 116 -22 122 -26 5 -3 -19
-31 -54 -62 -46 -42 -61 -62 -56 -74 3 -9 10 -17 15 -17 8 0 111 76 155 115
48 42 3 71 -156 101 -143 28 -157 29 -157 10z"/>
<path d="M5265 8034 c-58 -13 -105 -27 -105 -34 0 -14 14 -19 26 -9 7 6 72 10
153 11 99 1 141 4 138 12 -6 19 -151 32 -212 20z"/>
<path d="M6775 8031 c-40 -18 32 -31 166 -31 108 0 129 2 129 15 0 12 -15 15
-79 15 -43 0 -105 2 -137 5 -32 3 -68 1 -79 -4z"/>
<path d="M1530 7966 c0 -31 37 -36 257 -36 120 0 304 -5 408 -10 326 -17 310
-17 310 0 0 22 -81 28 -525 40 -212 5 -400 13 -417 16 -26 5 -33 3 -33 -10z"/>
<path d="M2782 7970 c-48 -11 -49 -18 -6 -26 35 -7 233 2 242 11 2 2 1 8 -3
14 -7 13 -182 13 -233 1z"/>
<path d="M3545 7941 c-16 -26 51 -30 531 -31 406 -1 499 1 499 12 0 7 -13 16
-30 19 -49 11 -993 10 -1000 0z"/>
<path d="M5258 7943 c-81 -3 -107 -7 -112 -18 -3 -8 -1 -17 3 -20 10 -6 313
13 347 21 49 13 21 24 -53 22 -43 -1 -126 -4 -185 -5z"/>
<path d="M6790 7935 c-10 -12 -10 -18 0 -30 10 -12 37 -15 129 -15 116 0 161
6 161 20 0 4 -52 11 -115 15 -63 4 -115 11 -115 16 0 15 -47 10 -60 -6z"/>
<path d="M7280 7898 c0 -13 34 -16 223 -22 122 -3 273 -9 335 -12 96 -6 112
-5 112 8 0 22 -59 27 -387 35 -248 5 -283 4 -283 -9z"/>
<path d="M2773 7869 c-6 -6 -9 -18 -6 -25 7 -18 228 -20 270 -2 25 11 16 13
-82 19 -60 3 -123 9 -140 13 -19 5 -34 3 -42 -5z"/>
<path d="M1992 7833 c2 -14 17 -19 68 -24 123 -12 131 -37 28 -87 -67 -32 -79
-47 -56 -70 13 -13 192 -17 222 -6 32 12 3 24 -59 24 -72 0 -91 13 -43 29 70
24 89 73 43 110 -29 22 -105 41 -166 41 -33 0 -40 -3 -37 -17z"/>
<path d="M7667 7820 c-71 -9 -86 -30 -107 -148 -32 -179 -58 -191 -76 -35 -8
77 -24 104 -49 83 -14 -12 -16 -25 -10 -84 9 -95 36 -156 68 -156 14 0 29 6
35 13 12 15 36 106 52 202 6 38 16 75 21 82 7 8 57 12 168 11 l159 0 -11 -29
c-22 -57 28 -66 57 -10 19 35 12 60 -18 65 -41 9 -241 13 -289 6z"/>
<path d="M3944 7787 c-3 -9 -3 -20 0 -25 3 -5 58 -12 123 -16 64 -3 121 -10
126 -15 5 -5 -16 -18 -50 -30 -99 -36 -112 -43 -125 -58 -10 -13 -9 -18 8 -32
18 -14 37 -15 137 -9 135 7 180 15 171 30 -4 6 -33 8 -78 4 -39 -3 -86 -2
-104 2 l-34 7 59 19 c63 21 93 41 93 62 0 28 -49 45 -151 55 -57 5 -119 12
-136 15 -24 5 -34 2 -39 -9z"/>
<path d="M7621 7661 c-27 -18 -4 -41 41 -41 73 0 77 -13 14 -56 -60 -42 -75
-66 -56 -89 15 -18 90 -18 169 -2 87 19 74 34 -24 29 -47 -2 -85 -2 -85 2 0 3
23 20 50 37 76 47 66 94 -23 109 -23 4 -49 10 -57 14 -8 3 -21 2 -29 -3z"/>
<path d="M5337 7252 c-76 -94 -153 -292 -182 -467 -20 -120 -23 -436 -5 -565
20 -145 68 -259 105 -247 14 5 11 28 -14 122 -33 120 -47 368 -33 563 18 245
67 408 171 561 47 69 50 81 19 81 -15 -1 -36 -18 -61 -48z"/>
<path d="M6686 7261 c-4 -6 0 -46 8 -89 8 -43 20 -137 27 -208 22 -241 -13
-432 -126 -702 -101 -239 -102 -241 -86 -252 8 -4 19 -6 25 -4 14 5 114 220
163 349 19 49 46 133 60 185 46 169 41 470 -10 675 -9 39 -17 51 -34 53 -11 2
-24 -1 -27 -7z"/>
<path d="M5871 7161 c-10 -10 -37 -54 -61 -98 -39 -73 -45 -79 -74 -79 -40 0
-69 -11 -61 -24 3 -5 21 -10 40 -10 l34 0 -6 -53 c-5 -50 -3 -55 22 -75 30
-24 92 -29 126 -11 23 12 15 32 -11 24 -23 -7 -69 11 -76 30 -4 8 -3 30 0 49
l6 33 82 -1 c57 -1 82 3 85 12 3 8 -7 12 -34 12 -21 0 -55 3 -75 6 l-37 6 26
51 c14 28 37 68 51 90 21 32 23 40 11 48 -20 13 -27 11 -48 -10z"/>
<path d="M1906 7118 c-42 -72 -78 -157 -83 -198 -5 -32 -2 -40 19 -54 18 -12
32 -13 55 -7 36 10 132 70 152 94 22 28 29 19 17 -23 -16 -64 -3 -75 82 -74
l71 2 7 -32 c8 -42 32 -66 62 -66 42 0 111 39 128 72 15 29 15 32 -5 52 -18
17 -32 21 -84 19 -34 -2 -63 -6 -64 -10 -4 -10 -114 -10 -130 0 -20 12 -16 30
22 101 19 37 35 73 35 81 0 23 -47 19 -55 -5 -16 -52 -202 -181 -239 -167 -24
9 -17 37 35 144 44 92 48 113 19 113 -12 0 -28 -15 -44 -42z m498 -247 c10
-16 -5 -41 -35 -56 -52 -27 -87 -16 -74 24 9 30 95 55 109 32z"/>
<path d="M3310 6855 c-44 -139 -38 -215 19 -215 21 0 81 42 140 97 46 44 47
43 26 -17 -20 -55 -19 -57 10 -86 28 -28 53 -27 148 3 57 18 50 36 -8 23 -56
-13 -71 -12 -89 5 -17 17 -13 34 28 134 14 36 26 73 26 83 0 29 -37 22 -54 -9
-36 -70 -158 -183 -198 -183 -26 0 -24 61 7 160 27 84 26 100 -5 100 -15 0
-25 -19 -50 -95z"/>
<path d="M4156 6868 c-18 -18 -41 -55 -51 -82 -17 -43 -17 -51 -4 -75 8 -14
26 -32 39 -39 31 -16 135 -10 175 10 27 14 30 14 45 -4 31 -39 138 -41 195 -4
45 30 45 102 0 132 -48 31 -137 15 -151 -28 -3 -10 -14 -18 -24 -18 -10 0 -21
-9 -25 -19 -13 -43 -149 -57 -186 -20 -14 14 -18 27 -14 42 11 35 53 95 75
107 24 13 27 -2 5 -20 -19 -16 -4 -36 20 -27 11 5 14 14 9 34 -13 54 -61 58
-108 11z m387 -77 c67 -26 22 -111 -58 -111 -36 0 -75 21 -75 40 0 13 6 16 25
12 22 -4 25 -1 25 22 0 18 7 30 23 36 29 12 31 12 60 1z"/>
<path d="M4669 6809 c-18 -18 -19 -23 -7 -41 8 -13 35 -26 66 -34 29 -8 65
-20 80 -28 l27 -15 -36 -15 c-20 -8 -59 -18 -88 -22 -54 -7 -73 -20 -50 -35
24 -15 206 21 220 43 26 40 3 62 -98 98 -35 13 -63 26 -63 31 0 14 53 24 58
11 2 -7 11 -12 20 -12 13 0 11 5 -8 20 -34 27 -94 26 -121 -1z"/>
<path d="M2746 6767 c-10 -8 -13 -17 -7 -26 11 -17 281 -29 281 -13 0 16 -25
22 -118 28 -48 3 -99 9 -114 14 -17 5 -32 4 -42 -3z"/>
<path d="M1704 6749 c-3 -6 -4 -13 -1 -15 8 -8 380 -23 585 -24 151 0 193 3
190 13 -6 15 -128 23 -495 30 -181 4 -274 3 -279 -4z"/>
<path d="M5370 6741 c0 -17 31 -19 556 -26 531 -7 597 -4 572 20 -3 3 -219 8
-479 11 -261 2 -513 6 -561 9 -80 3 -88 2 -88 -14z"/>
<path d="M3793 6706 c-45 -20 -65 -56 -61 -108 3 -36 8 -45 32 -57 39 -18 99
0 143 44 58 58 37 122 -44 131 -21 2 -52 -2 -70 -10z m128 -32 c19 -23 -6 -64
-53 -87 -41 -20 -87 -15 -69 7 6 7 8 22 4 34 -3 13 -1 22 6 22 6 0 11 6 11 14
0 27 80 35 101 10z"/>
<path d="M2751 6631 c-8 -5 -11 -15 -8 -23 4 -11 30 -17 95 -21 108 -7 172 0
172 19 0 11 -22 14 -100 14 -60 0 -100 4 -100 10 0 12 -40 13 -59 1z"/>
<path d="M2147 6571 c-104 -9 -114 -20 -97 -100 15 -73 9 -156 -14 -179 -15
-15 -17 -15 -33 1 -9 9 -24 54 -33 99 -14 71 -20 83 -38 86 -32 5 -38 -37 -17
-115 22 -79 55 -123 96 -123 52 0 76 94 56 215 -8 41 -11 77 -9 80 3 3 94 5
203 5 183 0 229 6 197 26 -17 11 -215 14 -311 5z"/>
<path d="M6170 6554 c-30 -2 -160 -11 -288 -19 -241 -16 -291 -26 -311 -63 -6
-12 -12 -72 -12 -134 -1 -116 -15 -220 -18 -131 -2 62 -21 146 -39 166 -19 22
-82 24 -82 2 0 -8 7 -15 15 -15 23 0 32 -29 40 -128 8 -105 29 -146 62 -126
24 15 32 65 32 206 1 145 7 164 58 172 69 11 532 36 663 36 138 0 140 -1 140
-56 0 -32 28 -43 46 -19 17 22 9 63 -17 90 -17 17 -33 20 -127 21 -59 1 -132
0 -162 -2z"/>
<path d="M5702 6378 c-11 -14 -45 -123 -62 -201 -7 -34 -7 -54 1 -69 11 -20
16 -20 152 -13 138 7 193 17 183 33 -3 4 -60 7 -128 5 -68 -2 -129 1 -137 6
-13 8 -11 22 9 98 35 132 36 153 12 153 -11 0 -24 -6 -30 -12z"/>
<path d="M6090 6358 c-44 -30 -92 -118 -94 -170 -1 -32 5 -45 27 -64 24 -21
38 -24 100 -24 78 0 221 30 240 50 10 10 5 11 -23 6 -68 -11 -208 -19 -233
-12 -15 3 -31 15 -37 26 -26 49 40 161 108 179 34 10 39 4 22 -30 -8 -15 -7
-19 5 -19 8 0 14 3 13 8 0 4 3 16 7 26 20 46 -77 63 -135 24z"/>
<path d="M2215 6361 c-34 -7 -48 -41 -18 -41 11 0 24 5 30 11 7 7 23 9 37 5
35 -9 24 -30 -30 -62 -47 -27 -55 -47 -26 -62 17 -10 221 10 242 23 25 15 -5
22 -77 17 l-78 -5 28 26 c38 36 35 62 -10 86 -23 12 -50 13 -98 2z"/>
<path d="M3165 5808 c-32 -35 -69 -80 -83 -102 l-26 -38 -78 7 c-51 4 -78 3
-78 -4 0 -16 35 -31 74 -31 59 0 65 -6 50 -48 -18 -51 -17 -60 11 -87 18 -19
34 -25 67 -24 51 0 129 28 136 48 4 11 0 12 -14 6 -11 -4 -44 -10 -76 -13 -68
-5 -84 11 -67 72 l10 36 94 0 c137 0 122 25 -19 32 l-49 3 71 88 c66 83 80
117 47 117 -7 0 -39 -28 -70 -62z"/>
<path d="M5410 5739 c-175 -7 -261 -19 -312 -45 -34 -18 -37 -52 -8 -124 30
-77 24 -166 -9 -127 -6 8 -16 42 -23 78 -12 58 -15 64 -38 64 -31 0 -35 -18
-20 -89 14 -70 42 -106 81 -106 22 0 32 6 39 26 16 41 12 79 -17 165 -23 67
-25 82 -13 89 31 19 197 33 395 34 l210 1 0 -25 c0 -31 29 -38 56 -14 24 21
25 50 2 62 -28 14 -153 18 -343 11z"/>
<path d="M5238 5557 c-16 -6 -28 -15 -28 -19 0 -15 32 -21 40 -8 15 24 160
-12 160 -40 0 -12 -43 -41 -107 -74 -55 -27 -75 -59 -52 -82 15 -14 264 -42
276 -30 15 14 -17 26 -111 40 -54 8 -100 17 -103 20 -3 2 24 19 58 36 79 40
99 57 99 85 0 60 -148 106 -232 72z"/>
<path d="M1925 5514 c-59 -30 -105 -91 -105 -139 0 -35 37 -55 104 -55 36 0
76 4 90 10 18 7 33 5 57 -7 52 -26 155 -22 209 8 25 13 50 36 57 50 l13 26 87
-28 c47 -16 91 -33 96 -38 13 -13 -22 -22 -120 -29 -52 -4 -88 -12 -90 -19 -7
-21 37 -25 148 -12 104 11 139 24 139 50 0 19 -43 45 -122 74 -45 17 -83 35
-85 42 -5 15 71 36 100 27 20 -6 21 -5 6 11 -27 28 -123 21 -161 -13 -16 -14
-20 -14 -36 1 -25 22 -101 37 -142 28 -55 -12 -100 -39 -100 -60 0 -11 -8 -33
-17 -49 -14 -24 -26 -31 -63 -36 -58 -8 -110 9 -110 35 0 10 20 40 44 65 39
40 49 46 73 40 l28 -6 -24 20 c-28 24 -37 25 -76 4z m386 -63 c51 -41 -17
-111 -108 -111 -60 0 -97 16 -87 38 4 9 8 28 9 41 2 33 39 50 106 51 41 0 63
-5 80 -19z"/>
<path d="M2732 5439 c3 -8 25 -17 49 -21 24 -4 306 -11 627 -14 513 -6 582 -5
582 8 0 13 -60 16 -452 22 -249 3 -533 9 -632 13 -151 5 -178 4 -174 -8z"/>
<path d="M4340 5437 c0 -8 7 -18 16 -21 25 -10 294 -7 294 3 0 14 -39 19 -182
27 -111 5 -128 4 -128 -9z"/>
<path d="M4362 5298 c-19 -19 -14 -37 11 -42 52 -11 203 -15 217 -6 24 15 6
22 -82 31 -46 5 -84 14 -86 19 -5 14 -46 12 -60 -2z"/>
<path d="M3092 5270 c-40 -4 -84 -15 -98 -25 -25 -16 -25 -17 -19 -123 6 -88
4 -111 -8 -127 -22 -29 -33 -12 -46 69 -11 75 -21 92 -47 82 -14 -6 -16 -16
-11 -72 4 -37 14 -83 24 -103 15 -29 23 -36 48 -36 55 0 66 52 52 254 -2 33 0
35 38 44 22 5 236 10 476 10 407 2 437 1 453 -16 21 -20 35 -19 50 6 25 40 5
42 -427 43 -227 1 -445 -2 -485 -6z"/>
<path d="M4936 5253 c-3 -7 0 -16 7 -20 7 -4 125 -8 262 -8 138 -1 259 -3 269
-6 33 -7 28 18 -6 32 -46 18 -526 20 -532 2z"/>
<path d="M3123 5113 c-14 -32 -30 -82 -36 -111 -17 -82 -12 -84 158 -71 76 5
142 12 147 15 28 17 -6 24 -123 24 l-131 0 7 33 c4 17 16 54 26 80 25 63 25
87 -2 87 -15 0 -26 -14 -46 -57z"/>
<path d="M3585 5144 c-5 -1 -22 -5 -38 -8 -15 -4 -45 -22 -66 -41 -100 -91
-70 -174 72 -196 50 -9 79 -7 151 8 49 10 91 24 94 30 3 10 -8 11 -45 5 -61
-9 -170 -9 -205 1 -61 17 -75 65 -33 116 28 32 106 68 126 56 7 -5 10 -3 7 6
-4 13 -44 28 -63 23z"/>
<path d="M5105 5130 c-13 -20 7 -30 64 -30 75 0 123 -10 118 -24 -2 -6 -41
-34 -88 -62 -46 -28 -85 -58 -87 -66 -7 -35 20 -39 189 -29 89 6 165 13 168
16 18 19 -35 26 -146 20 -68 -4 -123 -4 -123 -1 0 3 30 22 66 42 76 42 97 73
69 104 -9 10 -36 21 -59 24 -117 14 -165 16 -171 6z"/>
<path d="M2498 4458 l-35 -83 -59 -7 c-32 -4 -73 -5 -90 -2 -22 4 -33 1 -37
-9 -11 -29 15 -37 91 -25 40 6 74 9 76 7 3 -2 -7 -37 -20 -78 -40 -124 -27
-163 46 -136 19 7 81 30 138 50 56 21 102 42 102 46 0 13 -8 12 -129 -27 -62
-19 -115 -33 -118 -30 -3 3 6 43 21 90 l26 85 55 3 c71 4 76 22 8 26 l-51 3
29 72 c31 76 31 97 0 97 -15 0 -27 -19 -53 -82z"/>
<path d="M4285 4390 c-3 -5 -19 -10 -36 -10 -16 0 -38 -9 -48 -19 -22 -22 -17
-63 19 -166 11 -32 20 -73 19 -90 -1 -16 2 -38 6 -47 6 -16 1 -18 -50 -18 -48
0 -56 -2 -53 -17 2 -12 12 -17 28 -16 14 1 91 3 173 4 97 2 146 6 144 13 -5
16 -45 24 -130 25 -70 1 -76 3 -68 19 6 9 18 72 27 140 l18 122 63 0 c36 0 63
-4 63 -10 0 -6 -11 -37 -24 -70 -28 -67 -49 -157 -40 -171 3 -5 14 -9 24 -9
14 0 22 11 30 43 10 40 33 106 61 175 22 52 6 66 -87 74 -52 5 -83 13 -90 23
-13 17 -40 20 -49 5z m-26 -49 c12 -8 12 -22 1 -91 -8 -49 -16 -77 -21 -69 -9
18 -39 132 -39 153 0 18 35 22 59 7z"/>
<path d="M2147 4070 c-68 -9 -101 -30 -46 -30 18 1 196 -2 394 -6 553 -12 710
-7 717 21 2 6 -78 10 -217 11 -121 1 -348 4 -505 7 -157 3 -311 2 -343 -3z"/>
<path d="M3427 4073 c-4 -3 -7 -12 -7 -20 0 -10 40 -13 200 -13 161 0 200 3
200 14 0 9 -25 15 -92 20 -118 8 -293 8 -301 -1z"/>
<path d="M3455 3971 c-4 -7 -3 -16 1 -21 5 -4 89 -11 187 -14 149 -6 177 -5
177 7 0 16 -44 22 -236 33 -91 5 -123 4 -129 -5z"/>
<path d="M4246 3922 c-3 -5 -11 -53 -18 -105 -17 -134 -6 -142 133 -111 l27 6
-5 -64 c-4 -51 -2 -66 11 -77 12 -10 20 -11 28 -3 13 13 49 238 41 258 -3 8
-14 14 -24 14 -21 0 -39 -35 -39 -74 0 -25 -29 -36 -92 -36 l-30 0 8 58 c4 31
8 75 8 97 1 34 -2 40 -21 43 -11 2 -24 -1 -27 -6z"/>
<path d="M2745 3909 c-274 -11 -489 -42 -527 -76 -23 -20 -22 -33 2 -111 31
-98 26 -172 -11 -172 -13 0 -22 14 -34 52 -8 28 -15 62 -15 74 0 31 -25 50
-45 34 -19 -16 -19 -43 0 -107 38 -129 121 -140 140 -18 4 27 -2 70 -18 133
-23 86 -23 93 -8 102 51 27 437 60 701 60 194 0 209 -3 203 -35 -9 -43 35 -44
55 0 18 38 -4 55 -83 65 -77 10 -99 10 -360 -1z"/>
<path d="M2842 3720 c-77 -32 -152 -109 -152 -158 0 -18 -4 -22 -18 -18 -10 4
-56 -1 -103 -9 -46 -9 -99 -18 -116 -22 -29 -5 -33 -3 -33 17 0 12 8 50 17 86
18 68 16 79 -15 70 -32 -11 -81 -161 -63 -195 16 -30 37 -32 103 -10 70 24
195 29 334 15 67 -7 98 -5 183 13 110 24 151 38 151 54 0 5 -10 6 -22 3 -127
-37 -298 -47 -336 -20 -32 22 -28 36 24 83 49 46 119 82 141 74 7 -3 13 -1 13
5 0 22 -65 29 -108 12z"/>
<path d="M2638 3066 c-8 -7 -27 -52 -43 -100 -16 -49 -35 -90 -42 -93 -7 -3
-43 -1 -80 4 -68 10 -103 7 -103 -8 0 -13 69 -29 124 -29 45 0 48 -1 42 -22
-16 -53 -18 -98 -6 -113 16 -19 70 -19 115 -1 49 21 43 35 -12 33 -45 -2 -48
-1 -46 23 1 14 6 37 12 53 9 24 16 27 56 27 45 0 60 12 29 24 -9 3 -26 6 -39
6 l-23 0 34 85 c18 46 31 91 28 99 -8 21 -31 27 -46 12z"/>
<path d="M4764 2908 c-63 -65 -94 -103 -85 -106 8 -3 18 4 24 14 14 25 88 104
98 104 4 0 -5 -28 -21 -62 -66 -147 -94 -228 -81 -241 22 -22 43 8 106 156 35
81 70 158 79 172 22 33 21 65 -2 65 -11 0 -63 -45 -118 -102z"/>
<path d="M3920 2618 c0 -19 66 -28 213 -28 94 0 126 7 100 23 -5 3 -77 8 -160
12 -132 7 -153 6 -153 -7z"/>
<path d="M1717 2562 c-22 -4 -22 -21 1 -24 9 -1 373 -3 807 -5 435 -2 870 -4
967 -6 114 -1 178 2 178 8 0 22 -509 35 -1226 33 -390 -2 -718 -4 -727 -6z"/>
<path d="M4705 2518 c-44 -5 -99 -6 -122 -4 -52 7 -73 0 -73 -24 0 -28 15 -32
77 -20 32 6 134 17 227 23 118 8 171 16 174 25 4 14 -154 15 -283 0z"/>
<path d="M3943 2487 c-15 -25 22 -32 160 -29 128 3 185 13 146 26 -28 9 -300
12 -306 3z"/>
<path d="M2731 2409 c-120 -20 -146 -58 -160 -232 -12 -154 -24 -171 -39 -58
-9 67 -22 87 -46 78 -34 -13 -6 -186 34 -207 18 -10 49 -4 51 9 0 3 2 20 3 36
2 17 6 75 10 130 10 134 22 172 60 192 40 21 296 35 566 31 131 -2 206 1 208
7 2 6 -7 13 -20 17 -35 9 -605 7 -667 -3z"/>
<path d="M4781 2401 c-63 -22 -98 -54 -107 -98 -5 -28 -2 -37 24 -59 l30 -26
-24 -35 c-28 -41 -41 -100 -27 -122 18 -28 59 -36 121 -23 134 28 150 109 36
181 l-46 28 44 35 c23 19 51 38 61 41 18 7 24 27 7 27 -5 0 -10 11 -10 25 0
18 -7 28 -26 35 -14 6 -26 10 -27 10 -1 -1 -26 -9 -56 -19z m99 -27 c0 -15
-96 -114 -111 -114 -10 0 -39 29 -39 40 0 19 47 61 85 74 53 19 65 19 65 0z
m-37 -231 c7 -16 6 -27 -3 -38 -16 -20 -78 -38 -115 -33 -44 5 -46 50 -4 101
l31 37 40 -22 c22 -13 45 -33 51 -45z"/>
<path d="M1801 2336 c-37 -13 -54 -36 -27 -36 9 0 16 5 16 11 0 6 19 9 48 7
73 -5 69 -30 -15 -108 -92 -84 -108 -113 -77 -144 36 -37 235 29 397 131 34
21 38 22 33 6 -21 -73 -19 -116 9 -127 32 -12 45 4 45 58 0 28 7 64 16 81 8
16 13 37 11 47 -6 20 16 25 80 20 l42 -4 -19 -38 c-46 -91 -50 -184 -7 -178
18 2 23 12 30 58 4 30 16 72 27 93 35 67 24 91 -48 103 -55 9 -186 -4 -209
-21 -17 -13 -17 -14 1 -34 11 -12 17 -23 15 -24 -24 -19 -138 -81 -189 -102
-66 -28 -180 -46 -180 -28 0 5 34 42 75 82 59 57 75 79 75 101 0 54 -69 75
-149 46z m402 -72 c-6 -17 -15 -18 -31 -2 -19 19 -14 26 12 21 16 -3 23 -10
19 -19z"/>
<path d="M2763 2278 c-21 -26 -103 -198 -103 -217 0 -38 22 -43 129 -33 104
11 121 16 121 34 0 8 -26 9 -82 5 -46 -4 -89 -3 -96 2 -11 6 -5 26 28 91 40
79 47 119 24 127 -6 2 -16 -2 -21 -9z"/>
<path d="M3055 2244 c-46 -23 -70 -50 -95 -103 -27 -58 -22 -93 16 -118 46
-29 254 -29 254 1 0 4 -35 9 -78 11 -101 3 -136 19 -140 63 -3 29 4 41 46 83
28 28 58 49 71 49 25 0 28 15 5 24 -25 10 -47 7 -79 -10z"/>
<path d="M2792 1508 c-6 -7 -20 -37 -31 -66 -12 -29 -32 -75 -46 -102 -24 -48
-27 -50 -68 -50 -98 0 -177 -13 -177 -28 0 -13 15 -14 100 -8 55 4 100 3 100
-1 -1 -4 -9 -33 -20 -63 -11 -30 -19 -63 -20 -73 0 -27 45 -67 77 -67 31 0
127 41 138 60 12 20 0 20 -40 0 -95 -48 -134 1 -85 108 l19 42 101 0 c55 0
100 4 100 9 0 14 -39 21 -117 21 l-72 0 45 93 c24 50 43 101 42 112 -4 24 -30
31 -46 13z"/>
<path d="M4660 1316 c-34 -59 -144 -170 -184 -186 -28 -10 -34 -28 -12 -36 8
-3 38 19 72 50 32 31 59 54 62 52 2 -2 -4 -28 -12 -57 -9 -29 -16 -72 -16 -96
0 -38 2 -43 23 -43 21 0 25 8 41 83 10 45 37 123 61 174 31 66 40 94 32 102
-21 21 -37 11 -67 -43z"/>
<path d="M2855 940 c-99 -5 -227 -10 -285 -12 -96 -4 -105 -6 -105 -24 0 -15
6 -19 35 -17 180 9 503 23 548 23 56 0 93 12 80 26 -12 11 -86 12 -273 4z"/>
<path d="M3585 941 c-4 -7 -4 -15 0 -19 12 -12 266 -15 278 -3 6 6 8 13 5 17
-4 3 -67 8 -141 11 -99 4 -136 3 -142 -6z"/>
<path d="M4338 883 c-17 -21 -1 -46 25 -38 12 4 118 12 235 19 287 15 277 31
-21 31 -169 0 -231 -3 -239 -12z"/>
<path d="M3735 854 c-49 -7 -109 -13 -132 -13 -37 -1 -43 -4 -43 -22 0 -24
-11 -24 173 6 95 16 123 26 100 38 -5 2 -48 -2 -98 -9z"/>
<path d="M3025 819 c-216 -9 -402 -32 -445 -54 -18 -9 -30 -18 -28 -19 1 -2
41 3 88 10 47 7 102 13 122 13 l37 1 -16 -52 c-45 -151 -71 -274 -61 -291 13
-25 41 -17 50 13 25 92 72 299 71 316 -1 21 4 22 156 29 181 9 241 16 244 30
3 13 -9 14 -218 4z"/>
<path d="M4624 786 c-37 -16 -74 -61 -74 -89 0 -12 12 -33 27 -49 l26 -27 -41
-45 c-39 -42 -82 -113 -82 -135 0 -6 11 -18 25 -27 24 -16 30 -16 90 1 76 20
151 65 166 99 19 40 4 71 -51 106 -53 34 -55 54 -7 55 19 0 22 6 25 50 5 72
-31 92 -104 61z m79 -47 c-10 -17 -28 -40 -40 -51 -19 -17 -25 -19 -38 -8 -8
7 -15 18 -15 24 0 27 82 81 103 69 4 -2 -1 -18 -10 -34z m5 -184 c6 -26 -46
-73 -105 -95 -124 -46 -131 -15 -24 107 l46 52 40 -23 c22 -13 42 -32 43 -41z"/>
<path d="M5050 440 c-16 -31 4 -62 38 -58 21 2 28 9 30 32 5 45 -47 65 -68 26z"/>
</g>
</svg>
