<svg width="78.401mm" height="50.172mm" version="1.1" viewBox="0 0 78.401 50.172" xml:space="preserve" xmlns="http://www.w3.org/2000/svg"><g transform="translate(-34.115 107.04)"><g stroke="#000"><g><path d="m112.22-101.21-20.409 25.548-36.56 18.5" fill="none" stroke-dashoffset="3.2274" stroke-linejoin="round" stroke-width=".6"/><circle cx="56.598" cy="-78.983" r="11.672" fill="none" stop-color="#000000" stroke-width=".66146" style="-inkscape-stroke:none;font-variation-settings:normal"/><path d="m37.569-81.889 1.5264-1.9975 16.151 22.927 19.235-23.808 36.12-18.647 1.6151 2.2024-36.12 19.088-20.85 24.961z" fill="#fff" fill-rule="evenodd" stroke-dashoffset="3.2274" stroke-linejoin="round" stroke-width=".6"/></g><path d="m98.622-97.308c-1.1324-5.6958-6.2799-9.6928-12.079-9.3788l-0.60713 0.31802-34.597 16.967" fill="none" stop-color="#000000" stroke-width=".66146"/><path d="m39.095-83.887 46.84-22.483" fill="none" stroke-dashoffset="3.2274" stroke-linejoin="round" stroke-width=".6"/></g><path d="m53.223-77.322-17.633 10.498 0.30664 0.51562 17.633-10.498z" color="#000000" fill-rule="evenodd" stroke-dashoffset="3.2274" stroke-linejoin="round" style="-inkscape-stroke:none"/><path d="m53.376-77.065-0.52154 2.0562 3.7437-3.9746-5.2784 1.3968z" color="#000000" fill-rule="evenodd" style="-inkscape-stroke:none"/><path transform="matrix(.26458 0 0 .26458 22.25 -112.6)" d="m65.526 200.83h-8.832l0.184-0.92001q1.0733 0 1.6867-0.184 0.644-0.184 1.012-0.736 0.39867-0.58266 0.61333-1.7173l2.7293-13.125q0.21467-1.0733 0.12267-1.5947-0.092-0.552-0.67467-0.736-0.58267-0.21467-1.84-0.21467l0.184-0.92h15.824l-0.828 4.9987h-0.92q0.03067-1.472-0.184-2.3-0.184-0.828-1.0427-1.1653-0.85867-0.33734-2.852-0.33734h-4.6l-3.1893 15.701q-0.06133 0.30667-0.092 0.58267-0.03067 0.24534-0.03067 0.46 0 0.79734 0.736 1.0427 0.736 0.24533 2.1467 0.24533zm5.6733-6.8694h-1.012q0.24533-1.3187 0.12267-1.932-0.12267-0.61333-0.79733-0.79733-0.644-0.21467-1.9627-0.21467h-3.6187l0.21467-1.1653h3.7107q1.3187 0 2.024-0.24534 0.736-0.24533 1.104-0.88933 0.39867-0.67467 0.644-1.9013h0.98134z" stroke-width="1.7" aria-label="F"/><path d="m74.481-84.767 1.6151 2.6429" fill="none" stroke="#000" stroke-dashoffset="3.2274" stroke-linejoin="round" stroke-width=".6"/><path d="m38.402-66.568v0.40039h4.4336v-0.40039z" color="#000000" fill-rule="evenodd" stroke-dashoffset="3.2274" stroke-linejoin="round" style="-inkscape-stroke:none"/><path d="m41.848-67.469-0.22461 0.2793 1.0273 0.82031-1.0273 0.82031 0.22461 0.2793 1.373-1.0996z" color="#000000" style="-inkscape-stroke:none"/></g></svg>
