<svg height="1227.960998pt" preserveAspectRatio="xMidYMid meet" viewBox="0 0 1637.936803 1227.960998" width="1637.936803pt" xmlns="http://www.w3.org/2000/svg"><g transform="matrix(.1 0 0 -.1 -138.888047 1302.824449)"><path d="m12473 13023c-20-7-15-31 8-43 38-21 100-83 119-119 10-20 28-70 40-111 19-64 22-90 17-180-3-65-13-130-26-171-21-67-103-203-141-236-25-22-26-43-1-43 29 0 73 42 119 112 60 92 90 180 104 306 11 103 10 113-12 198-38 144-82 213-178 276-29 19-30 19-49 11z"/><path d="m11892 12928c-46-58-116-266-133-397-14-99-6-145 33-210 24-38 72-71 105-71 38 0 35 18-5 44-54 34-85 99-83 176 3 134 82 387 126 403 18 8 20 38 3 55-15 15-33 15-46 0z"/><path d="m8980 12884c-6-14-10-31-10-37 0-7-14-48-30-92s-33-94-36-111c-6-31-7-31-77-38-95-8-117-15-117-36 0-23 26-33 50-20 28 15 120 13 120-2 0-7-7-35-15-62-20-67-19-119 4-147 16-20 28-24 68-23 59 1 113 27 113 54 0 24-9 25-57 5-49-21-80-19-88 5-6 19 19 139 37 173 7 15 25 17 126 18 64 0 126 4 136 8 39 15-7 26-131 31l-122 5 33 100c51 150 56 171 43 184-18 18-37 12-47-15z"/><path d="m3557 12873c-59-66-83-216-97-620-14-380-40-581-94-721-45-116-63-152-80-152-22 0-48-37-49-71-2-44 20-48 62-13 18 14 34 24 37 21s10-41 16-84c17-136 0-402-52-783-70-506-83-679-58-737 32-73 123-153 175-153 41 0 24 29-40 69-19 11-47 40-63 63-28 40-29 45-27 152 1 99 24 307 68 611 41 287 49 396 50 615 0 208-2 228-21 270l-21 46 23 52c88 200 116 391 134 912 9 287 22 386 61 461 17 35 22 38 40 28 12-6 28-23 37-38 8-15 28-33 43-40 51-22 67 10 24 47-14 12-25 26-25 31 0 16-66 51-97 51-17 0-37-8-46-17z"/><path d="m1670 12856c-60-17-106-41-158-83-48-39-67-71-77-128-4-22-15-61-26-87-26-63-27-155-3-205 26-53 92-99 156-111 268-49 337-43 508 43 114 58 141 103 144 244 1 55-4 76-29 124-36 71-107 147-162 176-77 39-259 53-353 27zm302-59c50-21 122-89 154-146 20-35 28-64 31-121 9-132-26-173-201-241-77-29-86-31-176-25-52 3-125 10-163 15-167 21-220 137-138 301 18 35 30 73 27 83-10 41 61 105 157 139 65 23 250 21 309-5z"/><path d="m1696 12723c-39-10-136-82-136-101 1-24 53-57 76-48 17 7 19 33 2 38-35 12 61 68 116 68 19 0 38-4 41-10 13-21-81-166-167-257-32-34-58-70-58-82 0-18 6-21 43-21 23 0 91 16 150 35 60 19 119 35 131 35 25 0 46 17 46 38s-84 10-179-23c-41-14-78-25-83-25-4 0 22 39 58 88 109 144 137 218 96 255-18 17-90 22-136 10z"/><path d="m6713 12823c-7-2-13-9-13-15 0-21-150-255-182-285-30-27-38-2-38 118 0 78-4 110-14 118-23 19-44 2-51-42-4-23-13-49-20-57s-15-28-19-45c-3-16-23-82-43-147-38-121-38-152-2-146 18 2 26 18 46 88 14 47 27 95 30 108 8 31 17 27 32-14 7-19 23-40 37-46 31-15 79 18 125 85 39 57 46 50 25-24-29-98-15-172 30-155 12 4 14 14 9 36-7 31 13 121 66 292 23 76 27 102 19 118-11 20-16 22-37 13z"/><path d="m4599 12743c-6-16-27-71-46-123s-42-117-53-145c-10-27-30-75-44-105s-26-63-26-73c0-23 26-33 46-16 21 17 85 148 115 234l24 69 6-76c11-133 60-180 129-122 17 15 61 63 96 107 35 43 64 74 64 69 0-6-13-65-30-130-32-128-37-177-19-188 19-11 35 18 53 101 10 44 24 100 31 125 40 140 67 261 62 275-13 31-37 13-90-67-59-92-202-268-217-268-12 0-17 35-29 198-5 74-15 140-22 148-18 22-38 17-50-13z"/><path d="m12299 12696c-37-19-159-118-159-128 0-15 31-21 55-10 13 6 42 28 64 48 23 20 41 34 41 31s-14-35-30-72c-30-67-52-168-43-193 3-7 15-12 26-10 17 2 23 15 33 68 6 36 28 105 49 154 27 66 35 94 28 105-14 22-33 24-64 7z"/><path d="m5550 12619c-25-4-80-8-122-8-81-1-113-16-101-47 4-12 14-14 37-9 17 3 82 10 145 15 121 11 184 25 202 47 9 11 0 13-52 12-35-1-84-5-109-10z"/><path d="m8257 12580c-37-43-70-137-64-182 4-33-1-46-52-115-110-149-301-307-332-276-16 16 10 105 42 146 31 38 31 57 0 57-61 0-129-182-86-230 23-25 76-26 131-1 61 28 209 166 276 258 54 74 62 81 80 72 38-21 138 15 203 73l36 31-7-50c-7-59 5-88 42-97 18-5 32-2 46 11 20 18 20 18-4 23-22 6-23 9-22 101 0 78 4 100 22 129 24 38 28 65 12 75-22 13-48-7-65-50-26-69-96-149-157-179-83-42-115-31-80 27 29 47 72 174 66 192-10 26-60 18-87-15z"/><path d="m7475 12585c-5-2-22-6-37-9-20-5-28-13-28-27 0-19 4-20 53-15 28 3 95 8 148 12 102 6 135 16 109 34-14 9-221 13-245 5z"/><path d="m7012 12474c-74-19-147-52-167-75-12-12-19-42-22-91-5-86 8-106 76-115 52-7 113 22 186 89 44 40 58 61 71 105 15 53 15 56-2 73-27 25-81 31-142 14zm102-42c8-13-30-86-60-113-54-50-106-79-140-79s-34 0-34 58c0 31 4 62 8 68 26 39 209 93 226 66z"/><path d="m5565 12475c-5-2-56-9-112-16-89-10-103-15-103-31 0-21 30-23 160-8 116 13 184 28 206 45 17 13 10 14-61 14-44 0-84-2-90-4z"/><path d="m8443 11618c-14-29-48-109-73-178l-47-125-57-6c-64-7-69-10-60-33 5-12 19-16 56-16 44 0 49-2 43-17-52-135-27-223 63-223 57 0 130 54 147 108 9 31-4 28-66-18-57-43-93-49-113-18-7 12-5 37 8 91l19 75 45 6c25 3 70 6 102 6 59 0 150 25 150 42 0 6-51 7-142 2-136-7-141-6-134 12 4 10 23 60 41 109 18 50 45 116 60 147 15 32 25 65 21 73-11 29-36 14-63-37z"/><path d="m4927 11637c-3-8-8-40-12-73-3-32-18-103-32-158-25-95-27-98-40-72-17 32-61 56-104 56-26 0-42-10-79-48-49-51-70-102-70-174 0-71 44-93 119-60 25 12 74 33 109 48 34 15 63 29 63 33 1 3 3 15 4 26 2 11 19 74 39 141 20 66 36 133 36 148s5 47 11 72c9 34 9 47-1 59-15 19-36 19-43 2zm-151-305c17-11 31-43 38-87l7-41-53-19c-29-10-64-25-78-32-52-27-61-9-39 72 22 79 85 134 125 107z"/><path d="m5377 11497c-116-176-262-385-285-410-29-31-29-57 1-57 26 0 61 43 197 244 46 69 86 124 87 123 1-2-2-50-6-107-10-119-1-150 45-150 40 0 77 24 124 84 25 31 46 52 48 47 1-4-6-39-16-77-23-85-17-118 22-122 27-3 56 12 56 29 0 5-9 9-20 9s-20 6-20 13c0 22 39 150 81 264 44 120 48 168 14 168-15 0-33-24-70-91-27-50-63-110-79-134-35-54-115-140-129-140-18 0 2 187 28 267 34 99 36 137 10 140-15 2-36-22-88-100z"/><path d="m8073 11538c-6-7-13-38-17-68-6-53-45-242-51-248-2-2-16 6-32 17-43 32-120 37-161 11-86-54-81-194 9-259 76-55 181-47 195 16 3 15 10 42 14 58 5 17 12 50 15 75 4 25 17 90 29 145 43 187 49 234 36 250-15 18-24 19-37 3zm-130-338c32-26 41-76 25-145-12-51-15-55-42-55-38 0-93 35-112 72-21 41-11 112 19 133s80 19 110-5z"/><path d="m7379 11305c-52-118-195-347-275-442-50-59-133-123-159-123-15 0-17 6-12 35 3 19 15 49 27 65 23 32 21 60-3 60-35 0-92-112-82-159 6-30 39-51 79-51 24 0 89 42 144 94 47 43 114 132 178 233 52 83 54 85 54 51 0-86 87-88 178-5l22 20v-45c0-30 5-48 14-51 19-8 36 12 36 43 0 52 27 127 68 188 23 35 40 68 36 73-12 20-44 7-71-27-97-127-188-214-222-214-20 0-8 102 24 193 14 40 28 80 32 90 4 13 0 17-21 17-22 0-31-8-47-45z"/><path d="m6015 11325c-5-2-22-6-37-9-19-4-28-13-28-26 0-19 5-20 68-14 37 3 105 9 152 12 66 6 85 10 85 22s-20 15-115 17c-63 1-119 0-125-2z"/><path d="m6175 11155c-38-6-109-18-157-25-99-15-114-21-104-45 5-14 14-16 44-12 299 46 328 53 351 81 12 14 9 16-25 15-22-1-70-7-109-14z"/><path d="m12590 10631c0-17 9-19 100-23 116-4 131-12 110-61-10-25-15-142-21-527-5-272-11-521-15-552l-6-57-106-3c-87-2-107-6-107-18s22-17 105-23c74-6 107-13 115-24 6-8 20-14 31-11 17 3 20 16 27 123 4 66 11 332 15 590 6 345 12 481 22 511 7 23 11 48 7 57-9 24-71 37-179 37-90 0-98-2-98-19z"/><path d="m4225 10587c-4-14-3-32 2-39 4-7 11-157 15-333 9-381 26-860 33-930 12-102 3-95 113-95 57 0 107 5 121 13 44 22 19 32-75 28-88-3-91-2-98 20-9 33-25 449-35 899-4 206-11 383-16 392-8 19-13 19 87 3 19-3 42-17 54-32 19-24 24-26 38-14 39 33-7 82-87 93-29 3-73 10-99 13-45 7-47 6-53-18z"/><path d="m7513 10511c-40-25-87-94-124-183-65-157-92-296-93-468-1-104 1-120 24-164 50-100 134-157 186-128 15 9 11 13-30 33-34 16-57 36-81 73-48 72-56 121-44 257 22 255 120 512 209 549 19 8 30 19 28 29-5 23-38 24-75 2z"/><path d="m9473 10495c-3-11 17-39 59-83 75-78 149-213 175-318 11-48 17-115 17-219 1-150 1-150-33-223-25-52-50-87-89-123-29-27-58-49-63-49-6 0-7-4-4-10 3-5 20-10 36-10 46 0 128 83 167 168 49 108 58 171 44 314-16 162-33 223-94 340-39 74-67 113-119 163-70 67-86 76-96 50z"/><path d="m4784 10451c-57-35-155-171-184-256-36-103-62-256-61-357 0-84 4-105 27-153 24-53 64-88 81-72 3 4-7 33-23 64-27 55-29 64-28 178 1 125 21 234 64 346 25 66 114 186 157 214 33 20 40 48 13 52-8 2-29-5-46-16z"/><path d="m6825 10380c-3-5 17-31 46-57 28-27 60-65 70-85 50-98 64-250 34-388-15-75-84-225-131-287-38-50-30-68 15-37 32 23 116 153 141 220 84 227 46 497-86 607-45 36-77 46-89 27z"/><path d="m14208 10356c-8-7-39-65-71-128-61-123-89-160-109-140-14 14-26 95-27 179-1 77-7 93-35 93-42 0-101-149-170-433-18-72-16-87 14-87 26 0 33 16 65 145 32 127 63 203 76 183 5-7 9-25 9-40 0-56 38-98 89-98 23 0 71 52 111 120l32 55-6-115c-7-134 3-186 40-202 35-16 52 2 30 33-20 29-22 178-4 310 9 67 9 94 0 114-13 28-24 31-44 11z"/><path d="m6272 10338c-7-7-12-35-12-64 0-28-9-111-20-184s-20-134-20-136c0-1-16 4-36 12-112 47-233-16-264-136-24-92 17-131 145-138 76-4 87-2 146 26 88 42 151 111 75 83-26-10-26-10-25 32 0 23 4 65 8 92 37 233 54 388 45 403-14 21-27 25-42 10zm-97-423c21-21 25-33 25-88 0-65 0-65-38-80-35-14-95-14-159-1-58 11-47 100 19 159 32 29 46 35 83 35 35 0 52-6 70-25z"/><path d="m11353 10338c-15-18-40-110-52-193-6-38-16-90-24-115l-13-44-24 49c-21 41-32 53-66 64-36 13-47 13-80 0-57-22-98-85-98-150 0-60 17-78 102-105 51-15 58-15 117 1 61 16 125 63 99 72-7 2-2 40 16 116 31 128 50 226 53 276 2 36-13 50-30 29zm-179-293c19-20 58-125 52-141-8-22-75-28-120-12-54 20-70 50-50 97 26 64 83 91 118 56z"/><path d="m15910 10331c-46-24-92-118-165-334-58-169-64-212-31-212 16 0 29 29 77 173 32 95 66 187 77 205 11 17 23 46 26 63 4 17 18 42 31 54 22 21 35 23 185 28 119 4 160 8 160 17 0 21-26 25-178 25-125 0-153-3-182-19z"/><path d="m11866 10302c-13-21-47-85-75-144-29-58-63-115-76-128-22-20-23-21-28-3-3 10-9 68-12 128-8 116-23 165-54 165-53 0-101-124-141-364-19-114-20-130-7-144 26-26 44-8 51 52 7 62 60 266 77 298 6 11 9 31 6 44-2 14 0 27 4 30 5 3 9-37 9-88s5-110 11-131c12-46 49-73 77-58 33 18 96 96 111 137 7 21 24 57 37 79l24 40v-120c0-138 11-191 41-200 29-9 44 7 30 33-7 13-11 89-11 197 0 102-4 184-10 196-16 29-37 23-64-19z"/><path d="m5042 10323c-14-5-57-93-97-199-19-50-75-300-75-334 0-6 9-10 21-10 23 0 44 43 60 123 5 29 25 102 44 162 18 61 36 119 38 130 3 11 5-25 6-80 2-150 33-197 111-165 30 12 52 39 118 145l44 70-6-75c-22-261-21-284 17-278 20 3 22 8 19 50-4 45 3 113 29 315 6 45 8 91 4 102-11 36-42 25-66-21-31-62-127-208-157-240-48-51-52-42-53 115-1 184-9 210-57 190z"/><path d="m12406 10314c-10-27-7-300 5-353 12-58 42-101 69-101 11 0 35 14 55 31 35 31 66 89 145 269 23 52 47 105 53 118 22 45-30 57-54 11-4-8-26-57-49-109-69-158-108-235-129-254-19-17-20-17-30 21-6 21-11 109-11 195s-3 163-6 172-14 16-24 16-21-7-24-16z"/><path d="m6592 10308c-7-7-12-21-12-32 0-12-13-73-29-136s-46-178-65-255c-20-77-36-146-36-152 0-7 11-13 23-13 28 0 47 38 72 145 9 39 21 88 27 110l10 39 13-31c29-68 91-68 123-1l21 43 1-118c0-124 15-187 44-187 14 0 16 28 16 224 0 238-4 284-27 293-25 10-49-30-68-112-21-97-43-152-54-139-29 34-39 151-19 245 9 46 9 61-1 73-16 19-23 20-39 4z"/><path d="m14464 10306c-3-9-4-96-2-194 3-154 7-183 25-224 39-87 80-59 125 86 35 115 103 277 120 287 19 12 0 41-24 37-30-4-83-110-134-266-20-62-39-110-43-107-3 4-8 93-11 198-5 190-5 192-28 195-13 2-25-3-28-12z"/><path d="m16807 10272c-9-9-30-76-47-149l-33-132-21 32c-18 26-29 33-65 35-40 3-47 0-85-40-69-72-107-179-73-206 45-37 166-18 296 46 69 34 138 88 127 99-2 2-36-9-75-25-39-17-71-29-71-27 0 9 71 294 80 321 5 17 10 35 10 41 0 19-28 22-43 5zm-149-334c3-76 3-76-29-87-18-6-49-11-71-11-37 0-38 1-32 28 10 42 30 77 68 117 49 52 60 43 64-47z"/><path d="m17180 10254c-17-20-52-78-78-130-44-88-49-94-82-100-84-13-110-51-33-47l40 2-28-82c-36-102-38-160-7-181 62-44 178 10 178 81 0 32-12 29-53-12-25-25-44-35-66-35-19 0-31 5-31 13 0 23 30 130 49 173 19 42 19 42 92 48 89 8 169 25 169 36 0 16-35 20-121 14-49-4-89-4-89 0 0 16 81 166 105 195 27 32 28 61 1 61-8 0-28-16-46-36z"/><path d="m8923 10258c-6-7-15-29-21-48-15-47-52-233-53-262 0-21-2-20-16 9-31 61-90 63-132 4-28-39-71-154-71-190 0-60 62-78 124-36 20 14 39 25 41 25 3 0 5-12 5-27 0-37 13-56 36-51 21 4 35 56 60 228 21 144 51 285 66 309 22 35-14 70-39 39zm-138-328c8-16 15-46 15-68 0-35-4-41-49-70-54-36-71-39-71-17 0 32 70 185 85 185 2 0 11-13 20-30z"/><path d="m9110 10195c-20-24-7-309 18-404 19-73 46-111 77-111 29 0 65 45 95 117 18 43 61 136 96 206 35 71 64 137 64 148 0 31-36 23-57-13-20-37-127-261-168-353-22-50-28-57-36-43-22 39-39 175-39 307 0 93-4 141-12 149-16 16-23 15-38-3z"/><path d="m7705 10190c-3-6 0-29 8-53 9-23 30-103 47-177 45-192 61-234 86-238 11-2 26 3 31 10 11 12 102 253 118 308 4 14 18 45 31 69 26 46 24 61-6 61-28 0-47-35-101-183-26-73-51-143-57-157-7-20-14-1-42 115-49 211-63 249-87 253-12 2-24-2-28-8z"/><path d="m10290 10114c-8-8-16-43-18-76l-5-60-58 6c-54 6-59 5-59-12 0-23 39-42 85-42h35v-87c0-82 10-126 25-111 12 12 25 83 25 144v61l113 9c89 7 112 12 112 24s-20 16-113 18l-113 3 3 66c3 69-7 88-32 57z"/><path d="m8386 10102c-3-5-14-41-25-82-11-40-23-76-27-79-3-3-40-8-82-11-63-4-77-8-80-22-3-16 6-18 78-18 73 0 81-2 76-17-30-109-29-169 3-149 11 7 51 127 51 155 0 14 16 20 82 30 87 13 118 25 118 43 0 8-27 9-90 5-49-3-90-3-90 0s7 32 16 65c8 33 13 67 10 74-6 15-32 19-40 6z"/><path d="m13090 10090c0-20 4-20 228-18 194 3 227 5 227 18s-33 15-227 18c-224 2-228 2-228-18z"/><path d="m12185 10070c-7-21 10-60 25-60s32 39 25 60c-4 11-15 20-25 20s-21-9-25-20z"/><path d="m15070 10064c-46-7-145-26-162-31-10-2-18-13-18-24 0-23 10-24 115-4 44 8 123 18 175 22 74 6 95 11 95 23s-17 15-90 16c-49 1-101 0-115-2z"/><path d="m15930 10059c-25-5-52-7-60-4-22 7-44-10-37-29 4-9 16-16 29-16 57 0 304 23 322 30 64 24-146 40-254 19z"/><path d="m5580 10025c-8-2-32-6-52-10-30-5-38-10-38-26 0-19 4-21 58-15 31 3 98 8 148 12 98 6 130 17 104 34-14 9-183 12-220 5z"/><path d="m15080 9960c-79-12-130-30-130-46 0-22 25-28 62-15 18 7 82 17 143 22 106 10 141 21 129 40-6 10-137 10-204-1z"/><path d="m11283 9000c-73-17-120-75-110-137 3-18-1-53-10-78-20-61-10-110 31-151 40-40 105-53 162-32 73 26 178 161 185 238 8 79-45 143-127 154-27 4-60 8-74 10s-40 1-57-4zm116-51c57-12 91-45 91-88 0-41-44-121-94-170-35-34-53-44-88-48-81-9-121 49-91 136 12 34 13 49 4 63s-7 26 8 56c30 60 72 72 170 51z"/><path d="m10810 8811c0-13 9-21 29-26 16-3 35-12 41-20 10-11-12-21-122-55-73-22-182-58-243-80-60-21-144-48-185-60-216-62-342-111-370-145-22-26 14-51 115-80 50-14 114-37 143-50 50-23 53-27 48-52-3-16-13-68-21-117-9-49-18-93-21-98s-21 5-40 22c-46 40-86 40-125 1-29-29-38-68-19-87 6-6-23-21-86-43-80-28-97-32-105-20-15 24-10 151 11 269 13 79 16 118 9 131-18 35-40 20-58-41-7-25-22-62-33-83-20-39-94-127-108-127-4 0-10 55-14 122-5 102-9 126-25 142-28 27-66 14-91-32-11-20-25-44-30-52-18-29-120-351-120-380 0-24 4-30 20-30 29 0 90 134 141 309 21 74 41 137 44 139 3 3 5-49 5-114 0-144 7-160 65-151 27 4 52 19 82 49l43 42-2-96c-1-63 2-101 10-111 10-12 6-16-25-25-252-68-552-159-605-184-67-31-91-59-69-81 7-7 16-6 28 6 32 28 114 58 338 122 328 94 451 131 542 164 80 30 83 30 120 14 52-22 174-21 208 1 37 24 21 39-31 31-33-5-44-3-43 7 1 33 19 51 81 86 71 40 128 101 128 138 0 31-40 76-94 105-39 20-45 28-48 59-3 41-27 48-43 12-6-14-15-20-25-16-61 26-171 65-197 70-18 3-33 10-33 14 0 12 83 44 215 85 66 20 192 60 280 90 192 64 389 125 405 125 7 0 1-19-15-46-50-85-4-105 49-21 19 29 41 59 50 66 21 18 20 64-2 84-20 18-103 37-163 37-32 0-39-4-39-19zm-412-611c12-11 22-26 22-33 0-19-51-72-92-97-43-25-44-23-29 57 5 26 12 65 16 86 6 37 6 37 33 23 15-8 37-24 50-36zm-248-185c10-12 8-17-13-26-36-16-61-5-47 21 13 24 42 26 60 5zm37-71c-3-3-12-4-19-1-8 3-5 6 6 6 11 1 17-2 13-5z"/><path d="m3764 8745c-8-19-16-12 81-67 265-148 417-242 545-337 41-30 76-55 77-56 1 0-14-59-33-130-57-218-57-217-40-233 21-21 42-2 51 44 3 20 16 66 27 103 22 71 20 72 53-21 28-82 66-76 122 18 56 95 58 92 43-71-9-102 3-139 43-133 22 3 39 48 18 48-12 0-13 71-3 137l7 42 113-74c79-51 119-84 130-106 23-45 46-57 69-37 17 15 29 10 178-70 278-148 605-295 621-279 8 8-98 68-256 147-80 39-226 115-326 167l-181 96 49 116c26 64 66 142 88 174s40 63 40 68-11 9-24 9c-43 0-92-76-166-257-35-87-52-97-69-40-5 18-21 64-35 102-14 39-26 82-26 96 0 36-24 56-46 39-19-17-12-67 22-158 13-35 20-62 15-60-4 2-49 30-99 63-92 60-92 60-92 105 0 73-9 92-39 88-18-2-31-13-42-35l-16-32-66 45c-37 24-67 49-67 54 0 6-6 10-14 10s-50 26-93 59c-99 73-233 158-383 243-256 145-266 149-276 123zm836-551c22-15 40-29 40-31 0-12-54-103-60-103-4 0-13 20-19 44-11 46-15 116-6 116 3 0 23-12 45-26z"/><path d="m3145 8553c-50-13-155-64-337-164-108-60-199-109-203-109-3 0-5 16-3 36 2 26-2 39-15 48-28 17-49-18-45-74l3-45-122-72-123-71v143c0 149-8 195-35 195-20 0-88-144-139-295-21-60-42-114-46-119-5-5-15 15-23 45s-27 99-42 154c-30 110-47 150-68 158-28 11-40-13-52-100-7-48-20-140-29-203-10-63-20-142-24-174l-7-59-202-101c-141-70-202-106-200-116 5-29 57-11 238 79 99 50 189 91 199 91 11 0 23 6 27 14 4 7 53 36 108 64s128 67 162 87l63 36-1-54c-2-67 13-97 48-97 22 0 24 3 18 23-4 12-10 50-12 84-4 57-2 64 20 85 24 21 239 148 251 148 3 0 6-19 6-42 1-56 23-199 33-215 5-7 19-13 33-13 20 0 29 11 56 73 68 151 166 327 183 327 14 0 30 34 22 47-3 5 49 37 115 73s134 77 151 92c32 27 30 30-8 21zm-365-250c0-4-22-46-49-93s-59-110-72-140l-24-55-11 50c-7 28-12 75-13 105l-1 55 78 42c78 43 92 49 92 36zm-540-126v-113l-55-31c-57-33-61-34-46-5 5 9 29 72 52 140 24 67 44 122 46 122s3-51 3-113zm-246-88c4-20 17-58 31-85 13-26 23-49 22-50s-35-18-74-38l-73-36v31c0 17 14 92 32 165l32 134 12-42c7-24 15-59 18-79z"/><path d="m12315 8470c-10-16 3-29 58-56 92-47 281-169 266-172-8-1-23-18-33-37-12-21-27-35-38-35-26 0-69-97-101-226-26-106-25-127 5-122 24 4 49 48 90 163 27 73 33 84 36 60 1-16 5-39 7-51 5-21 43-44 74-44 26 0 107 64 142 112l29 41v-74c0-92 14-123 58-127 36-4 40 3 15 30-19 21-33 158-16 158 8 0 127-66 181-100 12-8 27-32 33-52 5-21 18-42 29-48 24-13 67-13 75 0 3 6 37-11 78-39 210-141 438-270 527-299 142-44 147-35 16 30-122 61-504 295-569 349-5 4 16 42 46 85 30 44 65 99 77 124s31 55 42 67c22 23 18 53-6 53-18 0-61-50-88-104-29-57-119-186-130-186-5 0-20 7-33 16-24 16-25 19-25 149 0 105-3 135-15 145-8 7-22 10-30 6-12-4-15-27-15-125v-120l-91 52-90 52 6 57c7 58 7 58-19 58-20 0-32-9-47-34l-20-34-208 123c-284 168-302 177-316 155zm430-277c36-21 65-42 65-46 1-31-110-147-139-147-7 0-11 25-11 63 0 68 10 167 17 167 2 0 33-17 68-37z"/><path d="m15670 8406c-118-42-344-137-416-174-69-37-71-37-85-18-19 24-39 13-39-22-1-24-13-34-103-83l-102-55-6 81c-3 45-9 87-13 93-14 23-44 12-67-25-39-63-118-152-149-168l-30-16v120c0 93-3 121-15 131-25 21-41 5-69-72-22-63-30-74-49-74-19 1-26-10-46-69-32-97-43-176-25-194 22-23 39 0 91 126l48 116 7-47c8-58 22-76 60-76 44 0 80 23 142 91l56 62v-59-60l-149-101c-144-98-382-278-444-336-23-22-27-31-18-40 15-15 22-11 213 134 147 112 400 289 412 289 3 0 6-6 6-13 0-40 80-73 108-45 21 21 14 39-11 33-25-7-40 6-51 40-5 18 9 29 97 78 57 31 106 57 109 57s8-43 10-95c3-82 6-97 25-117 19-18 27-20 50-12 22 8 40 34 93 139 82 164 107 203 131 210 10 4 19 14 19 23 0 13 33 33 113 70 92 43 188 101 167 101-3 1-34-10-70-23zm-320-192c0-3-9-19-21-35-11-16-43-77-70-135-28-58-52-104-53-102-2 1-7 48-10 103l-7 100 73 37c75 38 88 43 88 32z"/><path d="m17618 8363c-18-27-53-86-78-133l-45-85-56 2c-31 2-74 9-95 16-45 16-64 12-64-13 0-17 40-32 153-55 22-5 27-10 22-23-60-140-69-202-31-220 51-23 93-24 137-4 56 25 81 53 77 87l-3 26-43-36c-44-38-104-55-131-37-11 8-11 18 4 63 10 30 26 71 36 91l19 36 102-1c71-1 111 3 128 12 23 13 24 15 5 22-11 4-59 8-107 8-48 1-89 5-92 10-6 9 61 138 108 208 29 43 29 73 2 73-8 0-30-21-48-47z"/><path d="m4166 8382c-6-10-29-126-46-232-19-120-16-117-58-76-67 67-168 72-230 10-46-46-43-91 8-117 29-15 53-18 146-15 99 4 118 7 170 34 36 17 60 37 63 48 3 16-1 18-29 13l-31-7 6 48c15 102 44 265 49 270 8 8-14 32-30 32-7 0-15-4-18-8zm-148-338c33-33 34-37 18-46-11-6-45-7-85-3-111 11-120 17-76 60 39 40 97 35 143-11z"/><path d="m6732 8345c-12-14-28-50-38-78-9-29-20-57-25-63s-20-41-34-78-36-89-50-116c-26-52-24-80 6-80 23 0 36 25 109 207l57 143 27-82c34-100 50-134 71-142 44-16 64-2 140 99l38 50-6-35c-4-19-12-84-18-143-10-96-10-110 4-124 31-31 44-1 50 110 3 59 15 141 29 194 24 91 22 123-6 123-16 0-58-46-136-148-38-49-67-79-72-74s-28 65-51 133c-46 134-60 149-95 104z"/><path d="m7555 8333c-18-43-65-219-65-245 0-23-13-23-34 1-23 25-106 45-164 38-78-9-106-68-58-124 24-28 24-28 173-28 130 0 152 2 182 20 54 32 30 50-42 32-20-6-27-5-22 4 10 15 76 278 78 309 3 42-30 37-48-7zm-134-282c32-39 24-43-58-36-80 7-107 22-96 52 5 12 20 14 71 11 53-3 68-8 83-27z"/><path d="m16505 8312c-57-21-66-34-110-172-40-124-65-229-65-277 0-39 2-43 25-43 31 0 60 44 70 106 3 24 8 44 10 44s39 7 82 15 94 15 113 15 55 10 80 22l45 23-50 3c-45 3-157-9-227-24-26-6-28-4-28 27 0 36 23 163 34 190 8 19 61 39 103 39 17 0 60-9 95-20 77-24 108-25 108-5s-70 50-146 64c-74 14-79 14-139-7z"/><path d="m10843 8308c-19-32-73-144-73-154s-60-115-104-181c-11-18-26-33-32-33-21 0-34 78-34 201 0 131-6 153-36 147-18-3-19-14-18-153 0-131 3-156 22-197 26-58 59-71 100-41 33 24 124 169 151 239 11 27 33 74 51 104 17 29 29 59 26 66-7 17-42 18-53 2z"/><path d="m12170 8278c-10-24-38-103-61-175-24-73-46-128-49-123-14 23-76 60-100 60-48 0-101-81-80-121 37-69 240-97 337-46 30 16 49 35 42 42-2 1-31-3-64-10-33-6-66-10-73-7-19 7-11 42 49 218 57 167 63 197 36 202-12 3-23-9-37-40zm-168-315c30-29 37-63 13-63-26 0-85 28-85 40 0 19 20 50 32 50 7 0 25-12 40-27z"/><path d="m9241 8287c-17-45-30-103-46-207-9-58-19-107-21-109-2-3-12 6-21 20-33 47-70 77-109 88-63 18-88 14-119-19-24-25-30-41-33-93-5-73 10-93 80-108 62-15 212 7 261 38 41 26 48 43 16 43-19 0-21 4-15 38 3 20 13 80 21 132 8 53 21 114 29 137 10 30 11 44 3 52-18 18-37 13-46-12zm-199-258c24-11 88-88 88-107 0-15-106-26-149-16-35 9-36 10-35 56 0 71 35 96 96 67z"/><path d="m17206 8302c-3-5-14-40-24-78-11-38-34-107-52-154-17-47-36-99-42-117l-11-31-23 28c-35 41-118 73-172 67-51-6-79-29-88-74-9-47 27-79 97-88 84-10 206 0 227 17 9 9 37 24 62 35 46 20 128 89 118 99-4 3-29-6-58-21-28-14-63-30-77-36-22-8-24-7-18 8 22 52 70 187 90 255 16 54 19 80 12 87-13 13-34 14-41 3zm-232-355c63-36 58-47-22-47-39 0-77 3-86 6-16 6-22 45-9 57 14 15 80 6 117-16z"/><path d="m5846 8274c-3-9-6-45-6-80v-64h-70c-77 0-122-15-118-39 4-17 16-18 119-6l66 7 6-62c9-107 45-108 54-1l6 61h43c37 0 44 3 44 20s-7 20-45 20h-45v64c0 77-6 96-30 96-10 0-21-7-24-16z"/><path d="m7825 8240c-3-5-10-63-16-127-8-99-7-125 7-165 24-72 77-90 131-44 40 34 169 294 154 309-21 21-44-7-99-114-85-170-107-195-132-150-12 23-13 178-1 238 5 27 4 46-2 52-14 14-34 14-42 1z"/><path d="m11551 8172c-5-10-13-45-16-79l-7-60-102-6c-113-5-138-12-134-36 4-18 19-19 150-8l88 8-2-65c-2-51 2-69 16-85 24-27 62-29 50-3-4 9-10 47-12 85l-4 67h65c42 0 68 5 76 13 17 22 3 27-71 27-37 0-68 4-68 9 0 4 5 32 10 61 6 30 8 62 4 72-7 23-31 23-43 0z"/><path d="m3174 8119c-3-6-2-14 2-19 12-11 384-19 390-8 3 5-10 15-30 23-44 18-351 22-362 4z"/><path d="m15650 8052c0-26 59-42 152-42 54 0 79 4 88 15 15 17 2 21-125 35-117 13-115 13-115-8z"/><path d="m8410 7990c-164-4-195-7-195-20 0-21 381-28 409-7 20 14 14 39-7 35-7-1-100-5-207-8z"/><path d="m13790 7973c0-16 12-21 70-31 131-22 353-11 335 17-2 5-62 11-132 15-70 3-161 9-200 13-68 5-73 4-73-14z"/><path d="m15664 7939c-15-25 17-31 133-27 86 3 126 8 148 20 29 17 26 17-122 18-99 0-154-4-159-11z"/><path d="m4462 7042c-17-27-34-58-38-68-3-10-32-78-64-149-70-156-88-218-70-240 22-27 38-16 74 48 35 64 96 229 96 263 0 11 9 37 19 59 19 40 19 40 20 10 1-47 37-163 56-185 43-47 115-29 161 40 15 22 29 40 32 40s2-45-2-99c-6-92-5-101 12-110 31-16 42 6 42 85 0 63 17 175 35 239 7 25-16 58-35 50-8-3-46-53-84-110-39-57-76-107-84-110-18-7-41 12-53 43-5 13-14 64-19 115-13 118-17 127-44 127-16 0-32-14-54-48z"/><path d="m5345 7058c-15-47-38-134-51-198-24-120-21-114-55-86-16 14-49 28-73 31-85 13-176-53-176-127 0-46 38-62 154-66 56-2 106-8 111-13 14-11 115 38 115 56 0 10-9 12-34 8-34-5-34-5-26 28 4 19 22 95 40 169 39 160 43 203 17 208-9 2-19-2-22-10zm-136-324c22-18 31-34 31-56 0-31 0-31-52-24-29 3-69 6-88 6-50 0-63 11-51 43 22 57 109 74 160 31z"/><path d="m6952 7045c-16-14-32-35-35-47-3-13-26-92-51-177-49-166-54-202-31-221 29-24 48 16 80 163 5 27 6 27 83 27 85 0 171 12 217 30 30 12 30 12 7 21-14 5-58 5-110-1-101-11-182-13-182-3 0 23 44 160 55 172 10 10 50 15 147 19 73 2 137 8 143 14 21 19-24 28-157 28-131 0-138-1-166-25z"/><path d="m7924 7062c-6-4-18-20-27-37-21-39-97-221-97-233 0-5-6-14-13-20-10-9-17-4-30 18-42 71-210 101-290 52-44-28-61-55-52-83 12-36 64-49 199-49h125l3-32c2-28 7-33 28-33 19 0 26 7 33 32 8 27 15 32 46 35 41 3 51 31 14 36-13 2-23 5-23 7s20 52 45 109c25 58 45 109 45 112s9 19 21 35c29 41 11 77-27 51zm-271-256c18-7 41-23 51-35 19-21 19-21-50-20-101 1-177 12-181 26-12 35 117 56 180 29z"/><path d="m8312 7043c-11-16-36-60-55-99l-36-71-82-6c-53-3-87-11-96-20-28-28-6-37 72-30 41 3 75 3 75 0s-13-34-30-69c-35-74-36-80-10-103 17-15 25-16 69-5 48 11 101 48 101 70 0 14-12 13-71-10-28-12-54-19-56-16-3 2 10 35 29 73l33 68 92 5c50 3 95 9 99 13 16 16-22 27-94 27h-74l47 87c25 48 43 93 41 100-9 21-33 15-54-14z"/><path d="m5763 6968c-6-7-25-51-43-98-45-118-86-206-111-242-21-29-23-30-36-12-9 13-13 58-13 165 0 118-3 149-15 159s-18 10-30 0-15-39-15-144c0-72 5-147 10-167 19-70 78-93 125-49 44 41 183 356 171 387-7 17-31 17-43 1z"/><path d="m6260 6860c-36-4-96-13-135-19-38-6-94-11-122-11-46 0-53-3-53-20 0-18 7-20 78-20 42 0 104 5 137 10 33 6 120 15 194 20 132 9 172 21 141 40-17 11-144 11-240 0z"/><path d="m6400 6773c-60-4-272-31-307-40-25-6-31-31-10-39 8-3 60 2 117 11 57 8 122 15 144 15 50 1 155 25 169 39 8 8 5 11-10 11-12 0-27 1-35 3-7 2-38 2-68 0z"/><path d="m5565 5958c-2-7-6-52-10-100-3-49-13-111-21-138l-15-51-27 29c-68 73-259 61-250-15 6-48 48-68 153-71 65-3 98-8 106-18 17-21 50-17 56 6 3 12 21 27 39 35 40 17 44 35 8 35-24 0-25 3-19 28 7 28 21 111 32 194 4 32 2 53-7 63-15 18-39 20-45 3zm-141-269c14-7 27-18 30-25 4-10-9-12-62-7-77 7-113 20-91 34 20 12 94 11 123-2z"/><path d="m6033 5878c-16-24-52-83-79-132-48-88-85-136-102-136-15 0-32 49-32 92 0 23 7 71 16 106 11 44 13 67 6 74-34 34-72-60-72-177 0-115 48-167 119-131 33 18 67 64 126 171 21 39 51 89 68 112 16 23 26 46 23 52-14 23-44 10-73-31z"/><path d="m7585 5803c-39-9-113-67-130-102-42-88-65-168-75-261-11-103-9-120 15-120 20 0 41 44 55 115l12 60 141 2c139 2 223 17 215 38-3 11-93 12-240 2-54-4-98-4-98-1 0 15 34 151 41 166 5 9 25 26 45 38 31 20 49 23 165 23 94 1 129 4 129 13 0 21-61 34-159 33-53-1-105-3-116-6z"/><path d="m4598 5720c-9-6-27-31-40-56-12-25-30-51-39-58-23-16-47-66-91-191-68-192-68-192-52-205 24-20 38-5 63 66 27 80 127 308 150 343 14 22 15 22 22 5 4-11 8-49 8-86 1-54 5-72 21-88 36-36 66-26 143 48 38 37 67 58 63 47s-10-65-13-120c-5-84-3-103 10-114 31-25 38-8 42 94 3 74 12 126 34 199 16 55 28 103 25 108-14 22-47 5-77-39-33-49-175-199-182-192-2 2-8 48-14 101-16 141-28 164-73 138z"/><path d="m6555 5600c-4-6-3-15 1-20 19-17 342-36 364-21 34 23-29 36-221 46-103 6-138 5-144-5z"/><path d="m5575 5480c-187-19-350-42-367-51-11-6-17-16-15-22 5-15 96-11 232 10 63 9 246 19 492 27 351 10 394 13 410 29s1 17-332 16c-193-1-381-5-420-9z"/><path d="m6783 5453c-87-4-93-5-93-25s3-20 133-16c89 3 144 10 170 21 20 9 37 18 37 21 0 6-55 5-247-1z"/><path d="m6067 5268c-14-24-32-64-42-90l-17-47-77-3c-60-2-76-6-76-18 0-11 15-16 63-18 34-2 62-4 62-5s-11-38-25-82c-31-99-31-120-3-139 34-24 66-19 99 13 41 41 37 54-11 35-21-9-43-14-48-12-10 3 33 167 47 181 5 4 36 15 71 23 34 8 72 21 83 30 21 14 17 15-51 12-39-2-72-1-72 1s14 32 31 68c17 35 28 71 25 79-10 26-35 14-59-28z"/><path d="m5685 5271c-3-10-10-54-15-97-5-44-14-108-20-144-5-36-10-71-10-77 0-22-14-14-37 22-57 87-204 99-254 19-48-79 4-119 153-119 97 1 97 1 104-28 5-23 10-28 32-25 21 2 30 11 38 38 11 32 16 35 58 40 30 4 54 14 69 29l22 23-68-4c-57-3-66-2-63 12 3 8 12 73 21 145 9 71 19 133 21 137 3 5 2 17-1 28-8 25-42 26-50 1zm-138-308c13-15 23-31 23-35 0-12-139-9-161 2-24 13-24 28-1 53 26 29 109 18 139-20z"/><path d="m13242 4378c-62-31-146-308-128-421 19-114 135-218 216-192 29 9 20 28-18 36-45 9-99 53-123 102-19 37-21 52-16 137 8 135 68 289 117 305 26 8 22 39-5 42-11 1-30-3-43-9z"/><path d="m13850 4373c1-10 15-27 33-38 20-13 44-45 66-87 28-56 34-79 38-155 7-109-14-181-82-291-48-77-55-98-29-88 9 3 20 6 24 6 15 0 92 120 113 174 62 162 25 374-80 467-38 33-83 39-83 12z"/><path d="m4741 4268c-4-13-18-49-30-81-31-84-49-117-66-117-8 0-17-12-21-27-6-31-26-88-72-207-17-43-28-85-25-92 9-23 43-16 53 11 5 14 35 79 65 145 31 66 69 153 85 193l29 72 1-92c0-101 10-123 57-123 36 0 76 32 119 97 21 31 39 52 42 45 2-7-3-43-12-81-30-130-15-197 36-170 20 11 25 39 7 39-14 0-6 63 27 193 35 140 32 187-11 187-15 0-26-8-30-20-8-26-116-188-146-220l-24-25-6 132c-4 84-11 138-19 148-18 22-49 18-59-7z"/><path d="m7305 4179c-22-4-82-8-132-8-88-1-93-2-109-26-9-14-20-61-25-109-5-45-16-125-25-177-29-167-29-159-5-159s34 17 51 88c7 30 17 55 24 57 6 2 73 8 148 14 135 9 185 22 172 43-7 12-247 5-293-8l-24-7 7 109c4 60 12 115 18 121 7 9 40 13 98 13 139 0 239 25 200 50-17 11-49 11-105-1z"/><path d="m11460 4180c-8-5-45-23-82-41-46-20-68-36-68-48 0-9-5-22-10-27-31-31 63-116 141-129 69-12 69 10 1 44-33 17-63 34-66 39s171 12 387 17c587 12 692 17 692 35 0 13-31 15-210 18-115 2-286-2-380-8-93-6-241-10-329-8l-159 3 77 40c49 26 75 45 74 55-4 17-46 24-68 10z"/><path d="m13600 4107c-86-74-105-102-76-113 10-4 33 10 63 36 27 23 57 47 67 52 16 9 18 8 12-8-12-29-25-142-19-164 5-20 36-35 52-26 5 3 6 26 4 50-3 26 2 74 12 114 36 150 8 164-115 59z"/><path d="m5299 4135c-46-25-115-151-126-231-7-57 9-84 51-84 34 0 64 18 124 74l32 30v-35c0-52 27-72 104-77 67-4 106 8 106 34 0 12-10 15-42 13-24-1-58-2-75-1l-33 2v74c0 41-4 77-9 80-4 3-11 27-14 53-8 74-56 102-118 68zm61-96c0-61 0-61-55-115-65-63-90-70-80-23 18 82 86 199 115 199 18 0 20-7 20-61z"/><path d="m6268 3978c-48-8-58-14-58-30 0-19 5-20 98-13 200 15 227 19 227 35 0 12-19 15-105 16-58 1-131-3-162-8z"/><path d="m6355 3904c-52-8-157-48-163-62-11-30 16-33 91-7 41 14 91 25 111 25 57 0 139 21 128 32s-120 19-167 12z"/><path d="m5774 3869c-10-12-38-32-62-46-49-29-50-48-3-48 24 0 30-3 25-15-17-38-27-89-21-104 15-39 39-10 71 84 17 52 35 101 40 108 10 17 0 42-17 42-8 0-22-9-33-21z"/><path d="m4107 2817c-3-8 0-23 7-32 11-16 55-17 642-9 346 4 958 7 1359 6 402-1 888-3 1080-3 193-1 808 2 1368 6l1017 7v-288c0-159-5-327-11-374-5-47-14-132-19-190-4-58-16-197-25-310-24-289-21-698 6-724 32-34 15-35-463-40-260-2-531-9-603-15-235-20-436-31-760-42-327-12-2262-17-3133-9l-483 5-6 24c-3 13-2 109 2 215 10 235 10 330 0 1118-8 661-9 672-51 637-14-11-15-66-10-528 3-284 9-604 12-711 4-115 1-294-6-435-7-133-10-271-6-309l8-67 91 8c51 4 205 7 342 6 1176-12 2786-13 3080-4 442 15 941 40 1030 53 39 5 287 12 553 15 521 6 494 2 471 60-52 128-39 714 26 1248 16 130 21 660 6 683-6 10-209 12-1082 7-591-4-1213-6-1384-4-437 3-1975 1-2505-3-245-1-468 1-496 6-42 7-52 5-57-7z"/><path d="m7484 2564c-12-3-31-15-43-28-20-21-21-32-22-221 0-113 4-202 9-207 6-6 18-8 28-6 16 3 19 15 22 82l3 79 147-6c151-7 196-3 189 17-5 15-58 23-205 32-106 6-122 9-118 23 42 146 43 168 5 158-15-4-19-1-17 11 7 36 248 39 386 5 32-8 29 22-4 44-22 14-55 17-193 19-91 1-176 0-187-2z"/><path d="m4864 2165c-61-30-101-83-121-157-20-78-17-115 12-143 48-49 134-19 218 74l38 42-2-78c-2-123 20-156 118-169 40-5 58-2 82 12 50 30 39 40-43 40-48-1-79 4-88 12-7 7-14 43-16 81-4 62-2 70 16 75 12 4 23 19 26 34 17 84 16 97-3 129-29 46-59 62-127 69-51 5-66 2-110-21zm162-37c22-22-120-199-187-234-41-21-61 2-53 59 19 124 85 191 181 184 29-2 56-6 59-9z"/><path d="m5845 2020c-3-5-3-14 0-20 7-12 370-13 400-1 19 8 19 8-2 19-28 15-389 17-398 2z"/><path d="m8980 1959c-47-4-506-7-1020-8-1013-1-1170-7-1170-45 0-18 5-19 98-12 53 4 579 11 1167 15 589 4 1079 11 1090 16 62 26 49 45-30 43-27 0-88-4-135-9z"/><path d="m5540 1925c-12-19-55-63-96-96-41-34-74-68-74-76 0-27 30-25 69 6 21 17 41 31 44 31s1-16-4-35c-6-20-9-59-7-88 3-44 6-52 23-52s21 9 27 63c8 75 43 186 70 225 11 15 17 34 14 42-10 27-44 16-66-20z"/><path d="m5890 1842c-26-5-35-12-35-27 0-23-9-23 181-11 137 8 177 16 160 33-9 10-258 14-306 5z"/><path d="m7085 1668c-21-40-44-77-52-81-7-4-13-21-13-37s-5-41-11-57c-28-73-70-256-61-265 22-22 46-3 60 47 51 192 78 276 100 320l25 50 14-70c15-77 52-125 97-125 28 0 80 41 108 85l20 30-6-50c-2-27-8-76-12-107-5-41-3-62 6-73 25-30 36-15 47 68 7 45 19 129 28 186 11 71 13 107 6 114-21 21-59-12-106-92-57-97-79-119-103-105-16 10-24 40-52 177-10 49-15 57-34 57-17 0-30-16-61-72z"/><path d="m8920 1703c-6-15-27-65-48-110l-37-82-52-1c-46 0-53-3-53-20s7-20 40-20c22 0 40-1 40-3 0-1-9-28-20-60-23-66-25-100-7-116 48-40 177-7 177 45 0 18-29 18-54-1-11-8-34-15-52-15-31 0-32 1-24 33 4 17 15 51 25 75l17 42h67c36 1 77 7 90 14 23 13 23 13-9 20-18 3-54 6-81 6h-48l40 83c41 85 47 129 17 135-12 2-21-6-28-25z"/><path d="m8354 1562c-5-4-16-23-24-42-31-81-129-238-188-301-74-80-169-142-209-137-23 2-29 9-31 33-5 58-12 75-31 75-21 0-31-19-31-60 0-45 20-78 53-90 47-16 70-12 136 22 79 41 211 177 266 274l39 70 16-30c26-54 82-49 147 13l42 41-6-68c-5-59-3-69 15-85 13-12 28-16 41-12 25 8 27 23 5 40-16 11-15 20 3 124 14 83 17 116 8 127-15 21-41 8-67-34-31-51-108-132-124-132-11 0-14 19-14 78 0 87-14 116-46 94z"/><path d="m7790 1470c0-19 7-20 108-20 59 0 114 5 122 10 30 20-12 30-122 30-101 0-108-1-108-20z"/><path d="m7512 1408c-7-7-12-17-12-24 0-6-9-14-19-17-14-3-21-17-26-52-9-60 5-92 50-111 44-18 68-18 108 2 79 40 113 103 83 149-34 51-152 85-184 53zm114-55c32-20 31-56-2-82s-60-34-89-27-35 25-25 71c14 63 56 77 116 38z"/></g><g fill="#44b" transform="matrix(.08161748 0 0 -.08161748 1290.83800051453 1254.07859085665)"><path d="m750 2973c-57-10-88-25-119-57-40-41-55-100-46-179 6-45 12-61 32-77 32-25 35-25 64-1 22 17 24 26 21 89-4 105 24 120 164 87 33-7 119-19 190-25 88-8 134-16 144-26 32-32 8-420-28-456-18-18-126-28-289-28-185 0-206-4-250-52-55-58-58-82-55-363 1-145 7-274 13-293 11-34 51-62 89-62 12 0 35 14 52 31l31 30-6 238c-3 130-3 249 0 264l5 27h112c234 1 363 26 423 82 58 54 98 260 91 463-4 122-7 138-34 191-40 81-79 100-217 108-174 10-361 14-387 9z"/><path d="m3660 2971c-42-9-83-34-103-65-39-59-50-127-54-343-5-206-5-212 18-252 28-50 78-86 143-102 48-12 257-8 370 7l49 7-7-104c-4-57-11-189-16-294-9-177-9-192 8-214 35-47 100-46 136 2 22 29 27 86 42 452 7 191 0 235-44 283-45 48-92 56-241 38-146-18-229-20-265-6l-26 10v162c0 156 8 230 27 249 5 5 99 6 210 2l201-6 5-50c3-39 11-56 31-74 34-29 48-29 80 0 24 20 26 30 28 113 4 147-23 169-218 179-242 11-340 13-374 6z"/><path d="m1565 2945c-14-13-25-32-25-42s-1-297-3-638c-2-677-3-662 55-694 33-19 73-7 101 31 18 24 20 51 29 300 5 150 10 278 12 283 2 6 37 8 97 3 52-3 135-7 186-7 154-2 161-10 143-176-21-189-27-310-18-343 12-45 45-72 86-72 71 0 102 46 102 151 0 33 7 118 16 187 24 190 9 280-58 349-50 52-112 67-263 65-71-1-164-6-205-11-41-4-78-7-81-5-4 2-10 108-13 236-9 286-17 352-47 384-31 33-82 32-114-1z"/><path d="m2542 2944c-55-38-64-109-53-419 6-186 9-215 28-250 50-95 116-125 302-135 75-4 171-5 215-1l78 7-4-178c-2-97-7-181-11-184-4-4-42 1-85 11-104 26-285 27-363 3-106-33-149-107-99-170 26-34 68-41 132-21 74 23 202 20 308-7 182-47 274 5 301 168 12 77 27 831 19 994-7 152-20 181-86 186-88 7-103-51-104-401v-219l-201 4c-197 3-201 3-220 27-18 21-19 42-19 283v260l-29 29c-33 33-74 38-109 13z"/><path d="m2374 1391c-55-34-79-78-79-147 0-51 4-66 27-96 35-45 102-73 153-64 78 15 146 111 131 188-20 108-145 172-232 119z"/><path d="m1853 999c-39-11-66-56-61-101 6-59 69-64 76-6 4 30 34 38 145 38h67v-110c0-135-1-136-132-126-85 6-89 6-113-18-24-25-25-28-25-179 0-162 4-177 47-177 35 0 43 29 43 159v121h73c85 0 141 14 168 41 17 17 19 34 19 169 0 147-1 152-25 175-23 24-30 25-137 24-62 0-128-5-145-10z"/><path d="m2985 1000c-91-16-93-18-104-58-15-51-14-537 0-564 19-36 69-48 204-48 121 0 127 1 151 25l24 24-2 292-3 292-26 19c-31 23-161 33-244 18zm169-86c14-5 16-37 16-250v-245l-102 3-103 3v240 240l40 6c57 9 131 10 149 3z"/><path d="m2351 971c-24-24-29-73-37-372-6-232-6-237 15-258 23-23 29-25 51-11 12 7 16 40 20 150l5 141 35-23c19-13 59-55 88-93 30-39 78-96 108-128 47-51 56-57 74-47 29 16 25 42-15 92-19 24-62 78-95 121-61 77-61 77-33 77 15 0 46 9 69 19 56 26 67 57 62 179-6 156-27 172-220 172-93 0-111-3-127-19zm257-74c16-13 17-168 0-185-7-7-41-12-84-12-40 0-84-4-98-10l-26-10v120 119l98-6c53-3 103-10 110-16z"/></g></svg>