<?xml version="1.0" standalone="no"?>
<!DOCTYPE svg PUBLIC "-//W3C//DTD SVG 20010904//EN"
 "http://www.w3.org/TR/2001/REC-SVG-20010904/DTD/svg10.dtd">
<svg version="1.0" xmlns="http://www.w3.org/2000/svg"
 width="1955.500000pt" height="1747.000000pt" viewBox="0 0 1955.500000 1747.000000"
 preserveAspectRatio="xMidYMid meet">
<metadata>
Created by potrace 1.16, written by Peter Selinger 2001-2019
</metadata>
<g transform="translate(0.000000,1781.000000) scale(0.100000,-0.100000)"
fill="#000000" stroke="none">
<path d="M910 17795 c-8 -9 -10 -28 -6 -48 4 -24 0 -52 -15 -90 l-21 -56 -79
-7 c-68 -6 -79 -9 -79 -25 0 -17 8 -19 65 -19 50 0 65 -3 65 -14 0 -10 -16
-17 -47 -21 -95 -13 -138 -34 -114 -58 7 -7 27 -7 66 0 30 5 55 8 55 6 0 -3
-18 -36 -41 -74 -22 -38 -39 -77 -37 -87 4 -21 48 -23 58 -2 3 8 25 51 47 95
37 72 44 80 73 83 l31 3 -31 -61 c-33 -64 -36 -103 -9 -108 10 -2 29 26 62 92
l47 94 96 4 c82 2 98 6 110 23 15 20 13 20 -76 23 -66 2 -90 6 -87 15 2 8 43
15 116 20 80 5 119 12 138 25 27 17 25 17 -95 20 -67 1 -122 4 -122 6 0 1 7
24 16 50 12 36 14 50 5 59 -19 19 -40 -3 -64 -63 -20 -49 -25 -55 -61 -62 -21
-5 -41 -6 -43 -4 -2 2 2 20 11 39 12 29 20 36 48 39 42 4 46 32 5 36 -24 3
-28 7 -23 24 11 46 -35 77 -64 43z m70 -233 c0 -17 -25 -32 -53 -32 -18 0 -27
4 -25 12 6 18 78 37 78 20z"/>
<path d="M2223 17788 c-4 -13 -39 -88 -80 -166 -41 -79 -72 -150 -69 -158 10
-26 118 -11 233 33 9 4 -3 -30 -31 -85 -52 -104 -57 -132 -23 -132 18 0 30 18
74 113 120 260 116 248 101 264 -20 19 -48 6 -54 -27 -11 -51 -44 -76 -135
-104 -47 -14 -88 -26 -92 -26 -4 0 22 56 58 125 69 133 82 185 44 185 -13 0
-23 -8 -26 -22z"/>
<path d="M1688 17782 c-7 -9 -42 -42 -78 -72 -35 -30 -72 -63 -82 -72 -10 -10
-22 -18 -27 -18 -18 0 -24 -42 -7 -58 14 -14 20 -11 68 36 29 29 56 52 60 52
4 0 -8 -33 -27 -73 -89 -191 -101 -261 -47 -255 24 3 28 8 33 48 7 58 42 147
114 293 31 63 54 120 50 126 -10 17 -42 13 -57 -7z"/>
<path d="M1985 17716 c-62 -65 -143 -115 -205 -125 -22 -4 -35 -12 -35 -21 0
-25 77 -25 124 -1 22 12 42 21 45 21 3 0 -4 -21 -15 -47 -24 -57 -36 -138 -21
-147 20 -12 40 6 47 42 15 85 66 188 132 266 39 47 43 76 11 76 -15 0 -44 -22
-83 -64z"/>
<path d="M2595 17756 c-73 -32 -143 -141 -150 -237 -3 -30 -8 -84 -11 -120 -6
-65 -6 -67 21 -85 38 -25 109 -23 165 5 168 86 256 199 236 304 -8 42 -64 109
-110 131 -41 19 -109 20 -151 2z m162 -74 c72 -70 62 -144 -31 -230 -65 -59
-167 -114 -203 -110 -46 5 -49 27 -19 122 23 70 26 89 16 101 -10 13 -8 24 16
62 39 62 85 93 139 93 36 0 49 -6 82 -38z"/>
<path d="M6438 17490 c-20 -11 -56 -43 -80 -71 -91 -109 -106 -123 -144 -134
-28 -8 -40 -17 -42 -33 -2 -15 2 -22 12 -22 23 0 21 -4 -30 -66 -48 -59 -53
-87 -17 -92 14 -2 26 5 35 22 7 13 36 54 63 90 l50 66 88 0 87 0 0 -98 c0
-105 11 -137 45 -131 17 4 18 13 16 115 l-2 112 79 3 c128 6 129 32 1 38 l-79
3 -1 82 c-2 135 -13 152 -81 116z m22 -125 l0 -75 -71 0 -71 0 28 33 c15 17
43 51 63 75 19 23 39 42 43 42 4 0 8 -34 8 -75z"/>
<path d="M7691 17391 c-16 -29 10 -47 47 -32 16 7 62 11 103 9 l75 -3 -55
-152 -56 -153 -35 0 c-44 0 -65 -13 -57 -34 6 -14 24 -16 134 -14 106 3 128 6
128 18 0 11 -14 16 -57 18 -32 2 -58 5 -58 7 0 3 11 33 24 67 14 35 40 104 58
153 l34 90 79 5 c66 4 80 8 83 23 3 16 -12 17 -217 17 -206 0 -221 -1 -230
-19z"/>
<path d="M6120 17300 c0 -5 5 -10 10 -10 6 0 10 5 10 10 0 6 -4 10 -10 10 -5
0 -10 -4 -10 -10z"/>
<path d="M16102 17158 c-16 -35 -46 -99 -66 -144 l-37 -80 -76 -11 c-71 -10
-99 -25 -86 -46 3 -5 34 -6 70 -2 65 7 65 7 52 -17 -6 -12 -30 -49 -52 -80
-40 -58 -44 -93 -10 -86 14 2 77 88 128 171 6 9 29 19 53 23 l42 7 0 -100 c0
-106 11 -138 45 -132 17 4 18 13 16 115 l-2 112 65 4 c105 6 106 30 1 36 l-65
4 0 128 c0 142 -3 160 -31 160 -13 0 -27 -18 -47 -62z m18 -163 c0 -65 0 -65
-31 -65 -21 0 -29 4 -26 13 33 78 50 117 53 117 2 0 4 -29 4 -65z"/>
<path d="M4240 17120 c0 -6 -705 -11 -1997 -14 -1099 -3 -2038 -8 -2086 -11
-75 -6 -88 -9 -85 -23 3 -15 17 -17 108 -15 58 2 995 5 2084 9 l1978 5 -5
-1678 c-7 -1995 -20 -2975 -54 -3850 l-5 -153 -284 0 c-178 0 -285 4 -289 10
-3 6 -24 10 -47 10 -30 0 -41 -4 -45 -19 -8 -30 -200 -37 -918 -31 -969 7
-1846 6 -2243 -4 -340 -9 -352 -10 -352 -29 0 -19 8 -19 627 -11 699 10 848
10 1873 -1 710 -7 1019 0 1043 24 17 17 646 15 651 -1 3 -7 7 -25 10 -40 4
-19 13 -28 25 -28 25 0 32 21 20 65 -7 23 -8 118 -5 248 18 696 27 1134 36
1797 12 855 24 3694 15 3728 -4 15 -13 22 -30 22 -14 0 -25 -4 -25 -10z"/>
<path d="M14374 16975 c-9 -24 5 -35 46 -35 29 0 49 -9 87 -38 111 -89 167
-174 189 -289 13 -73 13 -83 -6 -156 -28 -113 -73 -190 -160 -277 -57 -57 -96
-85 -162 -119 -49 -24 -88 -47 -88 -52 0 -5 11 -11 24 -15 18 -4 50 7 116 42
164 87 283 239 327 418 14 59 15 81 5 150 -7 47 -23 104 -39 136 -33 66 -174
213 -226 235 -47 19 -106 20 -113 0z"/>
<path d="M5477 16903 c-15 -15 -5 -30 30 -47 147 -70 230 -227 221 -413 -5
-103 -18 -133 -92 -211 -68 -72 -136 -106 -268 -136 -31 -7 -37 -30 -12 -40
23 -9 137 20 196 50 119 60 206 165 227 275 23 115 -5 259 -70 360 -63 98
-200 194 -232 162z"/>
<path d="M6304 16805 c-3 -14 -3 -42 1 -62 8 -45 -2 -53 -77 -53 -51 0 -58 -2
-58 -20 0 -18 7 -20 74 -20 l73 0 6 -80 c5 -82 27 -135 50 -127 13 4 13 24 2
140 l-8 77 77 0 c58 0 76 3 76 14 0 19 -53 36 -111 36 l-49 0 0 48 c0 48 -12
72 -37 72 -7 0 -15 -11 -19 -25z"/>
<path d="M6890 16796 c-62 -18 -87 -35 -107 -76 -9 -19 -25 -47 -35 -61 -26
-35 -20 -77 15 -103 26 -19 42 -21 174 -21 l145 0 34 38 c34 36 54 47 54 27 0
-6 135 -10 383 -11 210 0 378 -2 372 -4 -5 -2 -22 -6 -37 -9 -36 -8 -88 -53
-88 -77 0 -26 26 -24 61 5 17 14 53 29 86 36 78 15 83 17 83 33 0 11 34 16
153 22 190 11 721 11 765 0 31 -7 33 -10 27 -34 -4 -14 -9 -84 -11 -156 -5
-174 -23 -421 -33 -446 -6 -18 -32 -28 -147 -56 -76 -20 -145 -41 -153 -49
-12 -11 -12 -25 -3 -83 7 -38 12 -144 12 -235 0 -99 4 -167 10 -171 6 -3 10
-39 11 -78 1 -98 20 -184 45 -201 11 -8 49 -16 84 -19 122 -10 150 -23 118
-56 -11 -10 -9 -16 10 -31 22 -18 22 -18 22 -353 0 -292 2 -338 16 -351 8 -9
19 -16 24 -16 17 0 23 -71 10 -110 l-13 -39 -121 -6 c-67 -3 -467 -9 -891 -14
-423 -5 -786 -12 -805 -16 l-35 -7 3 60 c4 59 4 59 -35 83 -61 38 -143 34
-217 -11 -84 -51 -99 -70 -107 -143 -10 -82 8 -122 60 -137 50 -14 62 -13 137
12 44 14 81 35 106 59 36 34 43 37 126 43 48 4 429 12 847 17 914 11 982 14
989 37 24 86 27 128 11 165 -8 21 -22 40 -30 44 -13 4 -15 60 -15 381 l0 375
108 -6 c60 -4 124 -13 145 -22 55 -23 95 -20 102 8 3 12 7 177 10 367 2 190 7
385 10 434 10 145 20 136 -148 135 -78 0 -163 -4 -189 -8 l-46 -8 5 91 c2 50
9 115 14 145 5 30 9 119 9 197 0 85 4 145 10 149 6 3 10 18 10 33 0 15 7 36
15 46 20 26 19 62 -1 70 -33 13 -92 6 -116 -14 -23 -18 -47 -19 -369 -24 -189
-3 -397 -8 -462 -11 -134 -7 -123 -11 -239 82 -67 53 -93 64 -101 41 -7 -20
21 -68 39 -68 9 0 32 -13 51 -30 l34 -30 -331 0 c-218 0 -329 3 -325 10 4 6
-11 10 -38 10 -44 0 -45 1 -52 37 -10 54 -59 98 -123 112 -63 13 -74 13 -132
-3z m147 -53 c23 -10 41 -29 50 -50 25 -62 -9 -112 -82 -121 -62 -7 -190 7
-212 23 -17 13 -16 15 13 52 41 50 90 83 126 83 16 0 31 6 34 15 8 19 28 19
71 -2z m2279 -915 c-3 -57 -9 -252 -12 -435 l-6 -332 -27 12 c-14 6 -102 15
-196 19 -93 4 -205 11 -248 15 l-79 8 -14 40 c-8 24 -14 82 -14 146 0 58 -4
109 -9 115 -5 5 -11 88 -14 184 -3 96 -8 187 -12 201 -6 25 -4 26 82 48 234
61 329 76 486 80 l69 1 -6 -102z m-2256 -1656 c19 -15 21 -24 16 -58 -4 -23
-15 -54 -25 -71 -33 -54 -179 -104 -216 -73 -20 16 -20 92 0 130 11 22 23 30
41 30 17 0 28 7 31 19 10 41 112 56 153 23z"/>
<path d="M8915 15758 c-68 -24 -114 -101 -144 -246 -10 -48 -22 -99 -26 -113
-4 -17 -1 -30 8 -37 19 -16 44 -6 51 21 3 12 11 30 18 39 12 16 17 16 53 4 93
-32 143 -44 155 -36 22 14 -5 37 -63 55 -78 25 -107 37 -107 44 0 4 31 31 70
59 75 56 91 86 82 154 -6 55 -42 75 -97 56z m45 -76 c0 -42 -10 -59 -57 -90
-41 -28 -42 -28 -34 11 11 44 29 79 55 99 31 25 36 22 36 -20z"/>
<path d="M9073 15434 c-7 -18 23 -47 38 -38 5 3 9 -5 9 -17 0 -14 -20 -41 -55
-73 -59 -54 -70 -87 -36 -106 29 -15 166 -13 180 3 17 21 3 27 -60 27 -32 0
-60 4 -63 8 -3 5 11 24 30 43 20 19 42 47 50 62 18 35 10 83 -16 97 -29 15
-70 12 -77 -6z"/>
<path d="M15250 16770 c0 -19 7 -20 150 -20 82 0 172 -5 200 -11 62 -13 103
-5 98 19 -4 23 -64 30 -275 31 -167 1 -173 0 -173 -19z"/>
<path d="M424 16717 c-73 -19 -164 -83 -189 -132 -11 -22 -21 -42 -22 -43 -5
-12 -40 12 -39 26 1 12 -7 17 -24 17 -20 0 -26 -6 -28 -27 -4 -31 22 -52 77
-63 19 -4 57 -26 86 -50 29 -23 66 -48 84 -56 39 -17 40 -29 2 -29 -16 0 -39
-8 -52 -19 -19 -15 -23 -28 -24 -72 0 -53 1 -54 47 -85 60 -41 160 -59 277
-51 76 6 143 29 127 44 -3 3 -72 6 -153 7 -137 1 -152 3 -197 26 -55 28 -63
41 -48 75 12 26 79 45 162 45 27 0 52 5 55 10 11 17 -13 37 -52 45 -39 7 -144
57 -180 85 -21 17 -19 17 80 23 120 6 205 34 255 83 32 32 42 73 24 101 -25
39 -180 62 -268 40z m178 -47 c45 -13 52 -23 38 -51 -27 -49 -206 -97 -311
-83 -54 7 -62 21 -29 54 26 26 98 71 130 81 37 11 130 10 172 -1z"/>
<path d="M5411 16629 c-41 -45 -86 -86 -100 -92 -38 -16 -61 -38 -61 -57 0
-26 27 -32 47 -11 10 10 29 22 42 26 21 6 23 5 16 -11 -20 -50 -52 -164 -47
-169 3 -3 -25 -5 -61 -5 -60 0 -67 -2 -67 -20 0 -19 7 -20 188 -20 187 0 229
7 240 37 3 10 -26 12 -133 6 l-137 -6 21 34 c12 19 21 40 21 47 0 26 69 173
110 234 22 34 39 67 36 75 -11 28 -44 9 -115 -68z"/>
<path d="M14266 16640 c-33 -10 -66 -38 -66 -55 0 -7 7 -18 15 -25 12 -10 20
-8 44 12 22 19 45 26 95 31 71 7 96 2 96 -18 0 -22 -69 -84 -143 -126 -118
-69 -138 -96 -100 -135 36 -35 347 2 361 44 5 16 -48 16 -166 -2 -51 -8 -105
-11 -120 -7 -27 8 -27 8 18 35 123 76 143 91 175 129 42 49 44 78 9 106 -22
18 -40 21 -108 20 -44 0 -94 -5 -110 -9z"/>
<path d="M2720 16616 c-77 -29 -91 -37 -130 -72 -46 -42 -76 -96 -110 -197
-18 -56 -20 -70 -9 -83 7 -8 20 -13 30 -11 11 3 19 -2 22 -13 6 -25 74 -34
203 -27 107 5 154 21 178 60 18 29 -28 104 -87 140 l-49 30 38 23 c67 41 82
98 38 139 -30 28 -70 31 -124 11z m91 -52 c12 -14 9 -20 -20 -45 -19 -15 -53
-34 -75 -41 -24 -7 -41 -19 -41 -28 0 -8 32 -32 71 -54 64 -36 104 -75 104
-104 0 -17 -59 -30 -157 -35 -77 -5 -91 -3 -86 9 4 11 -5 14 -37 14 -40 0 -42
1 -28 18 13 13 58 95 76 135 2 4 -6 11 -19 15 -22 9 -22 9 12 45 38 42 120 86
160 86 15 1 33 -6 40 -15z"/>
<path d="M2023 16595 c-54 -23 -97 -115 -68 -144 19 -19 40 -2 48 39 9 43 41
70 83 70 35 0 35 -1 32 -37 -3 -36 -8 -41 -98 -99 -153 -100 -177 -132 -120
-161 31 -16 243 -18 271 -3 38 21 18 30 -68 31 -49 0 -108 4 -133 7 l-45 7 71
42 c39 23 94 61 123 83 50 40 51 42 51 94 0 39 -5 57 -18 69 -23 21 -85 22
-129 2z"/>
<path d="M1818 16533 c-31 -41 -63 -68 -106 -92 -60 -34 -76 -56 -48 -67 8 -3
28 2 45 11 17 8 31 13 31 10 0 -3 -16 -37 -36 -75 -39 -73 -39 -104 -3 -98 14
2 25 15 33 39 16 46 93 181 127 222 53 65 61 107 20 107 -12 0 -36 -22 -63
-57z"/>
<path d="M16493 16575 c-17 -7 -55 -29 -85 -49 -61 -42 -83 -43 -310 -24 -116
9 -143 9 -165 -3 -21 -11 -27 -11 -31 -1 -12 38 -86 61 -156 48 -45 -9 -116
-61 -116 -86 0 -28 23 -25 72 10 33 25 50 30 92 29 38 -1 44 -3 26 -8 -32 -9
-32 -33 -1 -41 23 -5 21 -8 -27 -39 -79 -50 -211 -87 -226 -62 -3 4 8 29 25
54 32 48 31 67 -2 67 -23 0 -79 -82 -79 -115 0 -38 35 -59 93 -58 92 3 238 68
285 128 18 23 21 23 240 23 173 0 224 -3 233 -14 6 -7 29 -24 52 -37 35 -21
54 -25 117 -23 58 1 75 4 75 15 0 8 -15 19 -35 24 -32 8 -33 10 -17 22 13 9
28 10 55 4 20 -5 101 -9 180 -9 142 0 142 0 142 -24 0 -13 7 -29 15 -36 13
-11 15 -63 13 -384 l-3 -371 -55 -3 c-30 -2 -60 -8 -67 -14 -17 -14 -18 -270
-2 -296 9 -14 7 -42 -10 -123 -12 -57 -26 -120 -32 -141 -7 -20 -9 -48 -5 -62
7 -30 39 -34 102 -13 22 8 53 17 70 20 l31 6 -4 -162 -5 -162 -44 -40 c-24
-22 -44 -48 -44 -57 0 -23 32 -23 66 -1 l26 16 -5 -179 c-3 -98 -9 -199 -14
-224 l-8 -45 -60 -7 c-283 -34 -445 -46 -445 -31 0 5 -20 24 -45 43 -25 18
-47 42 -51 52 -7 22 -40 24 -48 2 -8 -21 7 -46 45 -78 l31 -26 -50 0 c-45 0
-53 4 -81 35 -17 20 -31 42 -31 49 0 8 -7 19 -15 26 -12 10 -18 10 -30 0 -21
-17 -19 -31 10 -74 l24 -36 -239 0 -240 0 0 26 c0 15 -12 38 -29 54 -16 16
-27 31 -24 33 2 3 -7 7 -21 11 -18 4 -32 1 -45 -11 -40 -37 -76 -57 -97 -55
-25 4 -44 -38 -44 -95 0 -34 36 -83 61 -83 8 0 9 -11 5 -32 -6 -33 -6 -33 12
-12 9 12 35 25 57 29 46 8 101 45 110 75 6 19 15 20 268 19 l262 0 -63 -23
c-61 -23 -95 -50 -88 -71 5 -17 36 -18 54 -2 13 12 124 57 140 57 1 0 -1 -8
-6 -17 -11 -22 -5 -43 13 -43 7 0 28 14 46 31 59 55 99 69 196 69 48 1 135 6
193 12 58 6 130 12 160 12 51 1 55 -1 59 -24 4 -31 17 -40 57 -40 30 0 64 25
64 48 0 8 166 12 598 16 328 3 643 8 700 11 92 6 102 8 102 26 0 11 -7 19 -16
19 -13 0 -15 13 -10 98 4 53 9 149 12 213 l5 116 34 -34 c23 -23 42 -33 63
-33 44 0 47 15 8 39 -18 12 -45 39 -60 61 -14 22 -31 40 -37 40 -8 0 -9 22 -4
78 4 42 8 119 9 170 l1 92 77 0 c92 0 85 -13 93 175 3 72 8 172 11 224 8 141
9 141 -80 141 l-74 0 -6 38 c-4 20 -11 136 -15 257 -10 260 -27 413 -62 545
-5 19 -14 54 -19 78 l-11 44 -232 -6 c-128 -3 -266 -10 -307 -16 -134 -19
-424 -23 -597 -9 -148 11 -161 14 -153 30 10 18 -6 24 -97 36 -35 4 -44 1 -55
-16 -12 -19 -21 -21 -113 -20 -55 1 -126 4 -159 8 l-58 6 31 27 c32 29 33 58
1 58 -11 0 -40 -18 -65 -40 -36 -31 -54 -40 -83 -40 l-37 0 53 30 c84 48 64
94 -25 55z m-22 -134 c-8 -5 -20 -7 -28 -4 -21 8 -15 13 15 13 20 0 23 -3 13
-9z m1877 -38 c9 -26 19 -65 37 -148 16 -69 28 -223 35 -430 5 -121 11 -241
15 -267 l7 -48 -101 0 c-108 0 -173 -17 -191 -51 -6 -10 -10 -111 -10 -228 l0
-210 -35 6 c-30 5 -35 3 -35 -14 0 -34 41 -43 206 -43 154 0 154 0 150 -22 -3
-13 -8 -75 -11 -138 -9 -165 -10 -170 -82 -230 -35 -29 -63 -59 -63 -67 0 -28
30 -23 80 13 l52 37 -6 -129 c-3 -71 -8 -168 -12 -216 l-6 -87 -91 -6 c-51 -3
-344 -8 -651 -11 -551 -4 -559 -4 -578 16 -10 11 -24 20 -30 20 -7 0 -8 17 -3
53 4 28 10 128 14 220 6 168 6 168 24 138 10 -17 22 -31 27 -31 4 0 15 -3 24
-6 24 -9 20 24 -9 71 -14 22 -25 48 -25 58 0 9 -9 25 -20 34 -18 16 -20 30
-20 144 0 70 3 134 6 143 5 13 23 16 95 16 84 0 89 1 94 23 3 12 7 126 9 252
3 127 8 254 11 283 4 29 4 64 0 79 -6 25 -7 26 -73 20 -37 -4 -88 -9 -114 -13
l-48 -7 0 367 c0 201 4 366 8 366 5 0 15 12 22 26 14 25 17 25 80 19 36 -3
180 -8 320 -11 235 -5 371 2 550 26 30 4 119 8 196 9 l142 1 10 -27z m-1152
-860 c-3 -32 -8 -160 -12 -285 l-7 -228 -61 0 c-34 0 -67 5 -73 11 -7 7 -17 7
-29 1 -11 -6 -46 -14 -79 -19 -33 -6 -68 -13 -78 -18 -17 -7 -18 -4 -12 31 4
22 10 53 15 69 8 30 20 91 39 201 13 70 14 144 3 144 -4 0 -6 20 -4 45 2 25
-1 52 -7 59 -9 11 5 15 81 21 51 3 109 10 128 15 19 4 50 8 68 9 l34 1 -6 -57z
m1400 -180 c-3 -60 -8 -163 -12 -230 l-6 -123 -190 0 -190 0 5 93 c4 50 11
117 17 147 20 110 23 169 10 185 -10 12 -10 16 1 20 24 8 89 12 233 13 l138 2
-6 -107z m-2916 -1254 c0 -13 -7 -19 -24 -19 -23 0 -24 2 -13 30 8 22 14 27
24 18 7 -6 13 -19 13 -29z m-105 -29 c-4 -12 -9 -19 -12 -17 -3 3 -2 15 2 27
4 12 9 19 12 17 3 -3 2 -15 -2 -27z m-15 -37 c0 -19 -21 -27 -31 -12 -13 21
-11 25 11 25 11 0 20 -6 20 -13z m85 -18 c-40 -33 -58 -33 -43 0 8 19 19 25
42 25 l31 -1 -30 -24z m695 21 c0 -2 -7 -6 -15 -10 -8 -3 -15 -1 -15 4 0 6 7
10 15 10 8 0 15 -2 15 -4z"/>
<path d="M990 16390 c0 -20 4 -20 158 -18 132 3 157 5 157 18 0 13 -25 15
-157 18 -154 2 -158 2 -158 -18z"/>
<path d="M1010 16290 c0 -19 7 -20 138 -20 137 0 183 9 152 30 -8 5 -77 10
-152 10 -131 0 -138 -1 -138 -20z"/>
<path d="M444 15940 c-36 -14 -92 -77 -99 -111 -9 -40 15 -70 39 -49 9 7 16
22 16 34 0 23 57 86 78 86 6 0 18 -13 27 -30 19 -38 47 -53 109 -60 l50 -5
-56 -60 c-65 -71 -78 -93 -78 -134 0 -39 24 -46 118 -36 68 7 122 27 122 45 0
12 -81 13 -130 1 -77 -17 -73 6 17 102 73 78 88 105 79 141 -7 29 -36 35 -56
11 -15 -18 -95 -20 -110 -2 -6 6 -20 27 -30 45 -21 34 -50 41 -96 22z"/>
<path d="M1760 15824 c-59 -20 -91 -40 -102 -65 -7 -16 -21 -29 -30 -29 -23 0
-38 -30 -38 -75 0 -75 84 -115 203 -97 83 13 149 50 183 104 30 48 27 92 -9
126 -33 31 -157 52 -207 36z m165 -64 c22 -19 18 -64 -9 -93 -34 -36 -81 -58
-141 -64 -61 -6 -97 0 -119 23 -20 20 -21 55 -2 48 10 -4 22 8 36 36 28 55 66
72 152 67 37 -3 75 -10 83 -17z"/>
<path d="M1055 15740 c-15 -24 12 -30 125 -30 132 0 157 5 139 26 -14 17 -254
20 -264 4z"/>
<path d="M16432 15679 c-67 -20 -88 -80 -123 -350 -14 -108 -9 -132 23 -127
15 2 24 14 33 43 11 38 13 40 46 36 18 -2 61 -4 94 -5 47 -1 60 2 60 14 0 10
-20 18 -68 27 -103 19 -107 24 -56 64 128 102 171 180 138 252 -11 25 -67 58
-97 56 -9 0 -32 -5 -50 -10z m90 -56 c23 -21 23 -50 0 -88 -22 -36 -76 -91
-103 -105 -17 -10 -18 -7 -13 35 4 27 2 50 -4 58 -15 17 -3 59 25 91 26 30 67
34 95 9z"/>
<path d="M1050 15630 c0 -19 7 -20 143 -20 98 1 149 5 166 14 l23 13 -23 6
c-13 4 -88 7 -166 7 -136 0 -143 -1 -143 -20z"/>
<path d="M19109 15581 c-52 -17 -87 -53 -118 -122 -58 -130 -89 -331 -56 -359
23 -19 45 5 45 50 0 21 3 51 6 69 l6 31 42 -26 c121 -74 186 -95 186 -60 0 6
-37 32 -82 57 l-81 47 39 20 c56 29 135 101 150 139 34 81 3 151 -71 158 -22
2 -52 0 -66 -4z m92 -62 c28 -54 -35 -140 -145 -196 l-49 -25 7 24 c4 12 13
52 21 88 11 52 21 72 49 98 44 40 98 45 117 11z"/>
<path d="M540 15401 c-154 -53 -232 -134 -295 -308 -14 -40 -27 -102 -30 -142
-4 -64 -3 -71 14 -71 25 0 34 13 80 106 l39 80 81 11 c106 16 199 61 257 127
57 63 60 108 11 162 -28 31 -41 37 -83 40 -27 2 -60 0 -74 -5z m119 -67 c29
-37 26 -58 -14 -103 -45 -49 -145 -98 -218 -107 l-57 -7 20 47 c11 26 27 57
35 69 11 15 12 24 3 34 -15 18 -4 28 69 64 77 37 134 39 162 3z"/>
<path d="M16607 15403 c-9 -8 -9 -256 -1 -277 3 -9 14 -16 24 -16 26 0 30 19
30 150 0 65 -3 125 -6 134 -6 16 -35 22 -47 9z"/>
<path d="M2762 15309 c-23 -12 -55 -37 -72 -56 -60 -68 -161 -323 -139 -350
15 -17 38 -17 45 1 4 10 14 9 47 -8 56 -28 165 -28 222 0 38 19 40 22 39 63
-1 37 -6 48 -34 71 l-34 28 32 16 c66 34 78 87 38 171 -37 80 -76 98 -144 64z
m93 -81 c14 -29 25 -61 25 -70 0 -23 -38 -47 -97 -62 -25 -7 -48 -17 -50 -23
-2 -6 15 -22 39 -36 52 -31 88 -63 88 -80 0 -31 -117 -48 -180 -26 -27 10 -30
13 -16 21 24 13 19 28 -8 28 -23 0 -24 3 -19 38 3 20 23 74 45 120 29 63 49
90 80 112 23 17 47 30 55 30 8 0 25 -24 38 -52z"/>
<path d="M19372 15280 c-41 -9 -46 -15 -38 -36 5 -13 15 -15 50 -10 32 5 46 3
56 -8 22 -27 2 -64 -63 -116 -115 -94 -110 -89 -97 -105 18 -22 275 -17 275 5
0 11 -13 16 -45 17 -25 2 -64 5 -86 8 l-42 6 53 50 c71 67 84 100 60 145 -23
42 -65 58 -123 44z"/>
<path d="M1566 15222 c-10 -17 -140 -100 -188 -122 -55 -24 -64 -50 -18 -50
32 0 102 31 133 58 9 8 19 13 21 11 3 -2 -19 -53 -49 -112 -47 -95 -51 -109
-38 -122 17 -18 53 -4 53 20 0 9 30 74 66 146 36 72 64 141 62 152 -3 22 -32
35 -42 19z"/>
<path d="M1823 15202 c-20 -13 -104 -126 -109 -149 -9 -36 3 -43 82 -43 41 0
74 -2 74 -4 0 -2 -13 -33 -30 -68 -34 -71 -36 -81 -16 -97 11 -9 18 -8 30 4 9
9 16 22 16 28 0 7 27 61 60 121 34 60 59 115 56 123 -10 24 -33 14 -61 -27
-27 -40 -28 -40 -92 -40 l-64 0 29 43 c16 23 39 51 51 61 38 34 17 75 -26 48z"/>
<path d="M2185 15073 c-15 -43 -27 -91 -28 -108 l-2 -30 66 1 66 2 -19 -51
c-23 -61 -21 -102 6 -102 15 0 24 17 44 77 13 43 34 88 46 100 27 28 32 76 9
85 -10 4 -23 -3 -37 -19 -24 -29 -126 -65 -126 -44 0 7 4 16 9 22 14 14 40
115 34 130 -3 8 -13 14 -23 14 -13 0 -25 -20 -45 -77z"/>
<path d="M945 15079 c-14 -22 14 -30 106 -27 76 2 94 6 94 18 0 12 -19 16 -97
18 -63 2 -99 -1 -103 -9z"/>
<path d="M3177 15080 c-16 -5 -35 -15 -44 -22 -13 -10 -17 -10 -20 0 -3 6 -13
12 -23 12 -14 0 -28 -19 -51 -67 -60 -130 -66 -163 -29 -163 12 0 25 13 35 33
8 18 45 65 82 103 59 61 67 66 70 47 3 -12 -5 -42 -15 -67 -15 -32 -17 -47 -9
-55 18 -18 27 -13 68 33 40 45 162 117 175 103 5 -4 0 -32 -11 -62 -27 -80
-16 -89 96 -83 89 5 159 29 167 57 4 10 -4 12 -34 7 -22 -3 -72 -9 -112 -12
l-73 -7 12 29 c15 39 14 91 -2 110 -17 21 -74 12 -139 -21 -61 -31 -70 -31
-70 -1 0 34 -22 41 -73 26z"/>
<path d="M933 14977 c-51 -8 -63 -13 -63 -28 0 -13 7 -19 24 -19 39 0 229 20
250 27 19 5 19 6 1 19 -22 16 -117 17 -212 1z"/>
<path d="M1962 14853 c-38 -91 -55 -150 -49 -167 14 -37 39 -10 74 79 50 128
51 135 20 135 -20 0 -28 -9 -45 -47z"/>
<path d="M806 14728 c-30 -47 -68 -139 -62 -154 7 -19 36 -15 47 6 47 90 67
145 57 157 -15 19 -25 16 -42 -9z"/>
<path d="M465 14721 c-83 -20 -157 -103 -174 -196 -9 -50 -5 -65 20 -65 10 0
19 -2 19 -4 0 -8 -32 -84 -50 -117 -26 -49 -30 -102 -8 -107 12 -2 26 16 52
72 19 42 40 91 47 110 12 32 15 34 75 40 82 8 168 42 210 82 28 25 34 39 34
71 0 93 -100 144 -225 114z m150 -66 c46 -45 27 -86 -53 -122 -32 -14 -81 -27
-111 -31 -50 -5 -54 -4 -47 14 15 37 18 81 8 101 -10 17 -6 22 31 41 61 31
140 30 172 -3z"/>
<path d="M15083 14695 c-54 -23 -81 -83 -107 -235 -20 -112 -20 -144 -1 -160
23 -19 45 5 45 49 0 57 27 202 45 249 10 23 26 47 36 52 29 16 89 12 96 -6 9
-25 -23 -81 -57 -99 -16 -8 -30 -22 -30 -30 0 -20 40 -45 73 -45 32 0 127 -38
127 -51 0 -12 -42 -38 -81 -50 -19 -5 -69 -10 -111 -10 -69 -1 -78 -4 -78 -20
0 -26 37 -33 129 -25 131 11 221 70 191 126 -12 22 -101 70 -131 70 -27 0 -28
11 -3 47 32 47 32 102 1 131 -27 26 -94 29 -144 7z"/>
<path d="M1562 14560 c-12 -5 -25 -17 -29 -25 -9 -24 14 -65 36 -65 22 0 34
23 20 37 -12 12 118 27 143 18 47 -18 20 -80 -54 -124 -29 -17 -60 -35 -68
-40 -8 -5 -33 -18 -55 -29 -26 -12 -40 -26 -40 -38 0 -18 10 -19 131 -22 107
-2 133 0 144 13 17 20 4 24 -88 27 l-74 3 69 41 c108 64 141 136 88 189 -22
23 -32 25 -112 24 -48 0 -98 -4 -111 -9z"/>
<path d="M3099 14536 c-59 -21 -104 -53 -158 -112 -76 -83 -102 -194 -47 -194
6 0 20 -10 30 -21 17 -20 25 -21 121 -17 81 4 111 9 146 27 49 26 59 37 59 68
0 24 -52 73 -78 73 -12 0 -9 7 11 28 22 23 27 37 27 79 0 42 -4 55 -22 67 -27
19 -41 19 -89 2z m61 -70 c0 -39 -41 -82 -88 -92 -46 -10 -52 -13 -59 -29 -11
-30 12 -39 61 -25 37 10 52 10 76 0 81 -34 45 -68 -87 -81 -88 -9 -116 -3 -88
21 25 20 18 33 -15 27 -35 -7 -35 -6 -14 35 40 77 90 132 151 163 47 25 63 20
63 -19z"/>
<path d="M2412 14527 c-58 -33 -112 -126 -119 -207 -7 -69 5 -93 55 -119 73
-37 150 -32 199 13 34 31 37 37 28 63 -7 19 -22 32 -45 40 -48 16 -129 16
-162 -1 -27 -14 -27 -14 -21 17 9 53 33 95 74 132 36 32 42 34 84 28 41 -5 45
-4 45 14 0 33 -91 46 -138 20z m104 -258 c13 -22 -25 -44 -76 -44 -57 0 -80
15 -60 40 15 18 125 21 136 4z"/>
<path d="M2086 14501 c-15 -16 -52 -46 -81 -67 -52 -37 -68 -65 -44 -80 6 -3
24 3 40 15 15 11 30 21 32 21 2 0 1 -26 -1 -59 -3 -38 0 -61 7 -66 19 -11 41
15 41 48 0 16 16 67 36 113 19 46 33 88 29 94 -11 17 -30 11 -59 -19z"/>
<path d="M6195 14456 c-17 -7 -35 -19 -42 -27 -26 -33 -67 -121 -99 -214 -30
-86 -32 -101 -20 -113 22 -23 42 -8 61 45 34 96 68 163 79 154 6 -5 27 -12 46
-16 63 -13 160 -57 171 -77 6 -11 9 -21 7 -22 -20 -13 -124 -27 -181 -25 -59
3 -72 1 -75 -12 -4 -22 39 -39 99 -39 53 0 176 27 197 43 18 14 15 61 -8 90
-19 23 -133 77 -165 77 -20 0 -19 7 5 37 22 29 27 82 8 101 -15 15 -45 15 -83
-2z m45 -46 c0 -6 -16 -27 -35 -48 -29 -31 -35 -34 -35 -17 0 11 11 33 25 48
26 28 45 35 45 17z"/>
<path d="M3545 14427 c-131 -41 -283 -189 -220 -213 29 -11 71 17 114 76 32
43 55 63 89 78 86 36 92 37 92 8 0 -14 -4 -26 -10 -26 -18 0 -80 -70 -80 -91
0 -45 57 -28 108 33 24 29 57 49 100 62 22 7 22 7 6 -33 -8 -22 -14 -50 -12
-63 3 -21 8 -23 78 -26 99 -4 154 5 182 29 23 20 23 20 -91 14 l-114 -7 8 29
c15 49 11 95 -7 106 -12 8 -30 7 -66 -4 l-49 -16 -9 31 c-11 39 -29 41 -119
13z"/>
<path d="M910 14415 c0 -22 6 -23 193 -28 133 -4 167 -2 167 8 0 25 -63 35
-211 35 -127 0 -149 -2 -149 -15z"/>
<path d="M890 14310 c0 -19 7 -20 148 -20 146 0 194 9 162 30 -8 5 -81 10
-162 10 -141 0 -148 -1 -148 -20z"/>
<path d="M2135 14229 c-26 -42 -34 -64 -27 -71 16 -16 38 -3 72 43 35 48 40
89 11 89 -12 0 -32 -22 -56 -61z"/>
<path d="M15287 14017 c-3 -8 -9 -51 -12 -95 -7 -79 -8 -80 -37 -86 -17 -3
-43 -6 -59 -6 -22 0 -29 -5 -29 -20 0 -18 7 -20 54 -20 l54 0 4 -55 c3 -31 10
-61 17 -68 20 -20 41 20 41 78 l0 52 112 17 c61 9 114 18 116 21 3 2 2 12 -2
21 -7 18 -6 18 -175 -2 l-54 -7 9 49 c4 27 8 67 8 89 1 33 -3 41 -20 43 -12 2
-24 -3 -27 -11z"/>
<path d="M16526 13893 c-13 -45 -18 -181 -7 -188 19 -11 38 12 45 53 3 20 9
52 12 69 9 47 -2 83 -26 83 -10 0 -21 -8 -24 -17z"/>
<path d="M6230 13800 c-25 -5 -71 -9 -102 -9 -52 -1 -58 -3 -58 -22 0 -22 1
-22 148 -15 223 11 277 18 277 36 0 12 -20 15 -110 16 -60 1 -130 -2 -155 -6z"/>
<path d="M3986 13783 c-4 -4 -850 -11 -1879 -15 -1030 -4 -1925 -10 -1989 -13
-111 -6 -118 -7 -118 -27 0 -20 2 -21 183 -13 100 4 1015 10 2032 14 1900 7
1915 7 1903 44 -5 14 -119 23 -132 10z"/>
<path d="M16255 13761 c-6 -6 -30 -11 -55 -13 -32 -2 -45 -7 -45 -18 0 -11 13
-16 44 -18 l44 -3 -7 -62 c-7 -71 -31 -190 -41 -206 -3 -6 -24 -11 -46 -11
-32 0 -39 -3 -39 -20 0 -17 7 -20 53 -20 86 1 227 66 227 105 0 25 -29 29 -53
8 -12 -10 -35 -25 -51 -31 -28 -12 -28 -12 -23 15 4 15 14 72 24 126 l17 97
48 0 c41 0 48 3 48 20 0 18 -7 20 -54 20 -30 0 -58 5 -61 10 -8 13 -18 13 -30
1z"/>
<path d="M2250 13559 c-45 -13 -80 -52 -80 -90 0 -41 33 -40 50 1 17 41 36 49
117 51 87 2 143 -22 156 -67 14 -50 -13 -81 -113 -126 -110 -51 -207 -116
-219 -148 -5 -14 -13 -48 -16 -75 -5 -42 -3 -56 17 -85 24 -36 53 -49 69 -33
6 6 2 20 -11 35 -22 29 -28 105 -10 139 14 26 123 97 185 120 114 43 159 93
152 167 -3 25 -13 53 -26 66 -43 46 -182 69 -271 45z"/>
<path d="M590 13456 c-136 -36 -189 -114 -250 -363 -37 -151 -40 -187 -16
-196 21 -8 31 4 85 101 29 50 56 92 60 92 4 0 27 -13 52 -29 31 -19 52 -43 67
-75 12 -25 22 -50 22 -55 0 -4 10 -20 21 -35 28 -35 64 -49 90 -36 27 15 24
24 -11 37 -22 8 -35 24 -50 60 -33 80 -44 96 -88 130 -27 20 -38 35 -30 37
125 40 155 53 199 88 107 85 119 175 30 235 -39 26 -106 30 -181 9z m157 -51
c74 -52 1 -159 -143 -212 -101 -36 -106 -34 -72 34 25 51 27 58 13 72 -19 20
-29 10 -75 -76 -19 -37 -41 -69 -49 -71 -39 -12 52 184 102 220 65 46 180 64
224 33z"/>
<path d="M7452 13348 c2 -18 10 -23 34 -25 45 -2 113 -39 126 -69 16 -35 4
-51 -70 -92 -43 -24 -64 -41 -68 -59 -11 -43 19 -60 136 -78 183 -29 193 -29
188 -14 -2 8 -15 19 -29 26 -31 15 -164 43 -206 43 -44 0 -42 15 6 39 72 37
101 69 101 111 0 23 -8 48 -22 65 -28 35 -112 75 -161 75 -34 0 -38 -3 -35
-22z"/>
<path d="M4960 13145 c-41 -44 -39 -131 8 -370 44 -220 58 -345 47 -435 -6
-49 -10 -60 -25 -60 -50 0 -79 -101 -40 -140 22 -22 45 -17 62 14 11 19 13 17
25 -29 27 -100 9 -293 -45 -510 -60 -234 -112 -543 -112 -658 0 -134 50 -248
155 -352 69 -68 166 -127 182 -111 5 5 -19 31 -52 60 -100 85 -151 144 -186
214 -31 62 -34 75 -37 179 -4 131 16 277 78 548 90 395 101 495 70 630 -16 70
-21 132 -23 280 -2 105 -9 213 -15 240 -7 28 -21 95 -33 150 -49 237 -48 317
3 323 31 4 49 -22 57 -83 5 -35 9 -40 31 -40 32 0 38 32 16 90 -22 56 -46 76
-98 82 -37 4 -46 1 -68 -22z"/>
<path d="M7154 13070 c-50 -22 -86 -65 -82 -99 3 -29 -18 -38 -94 -40 -42 -1
-48 -4 -48 -22 0 -21 4 -21 85 -17 l84 4 -34 -38 c-82 -90 -15 -136 183 -126
55 3 99 11 120 21 51 27 40 40 -25 30 -74 -10 -235 -5 -248 8 -22 22 34 64
132 99 35 13 49 36 32 56 -8 10 -2 17 28 33 21 10 45 31 53 46 14 25 13 28 -9
46 -30 25 -121 24 -177 -1z m122 -38 c-10 -17 -117 -64 -132 -58 -23 9 -12 29
27 48 34 18 115 25 105 10z"/>
<path d="M1340 13030 c0 -19 7 -20 124 -20 71 0 137 5 157 12 l34 12 -30 7
c-16 4 -87 7 -157 8 -122 1 -128 0 -128 -19z"/>
<path d="M1094 12989 c-10 -12 -47 -39 -81 -61 -35 -22 -63 -46 -63 -54 0 -26
27 -26 69 0 23 15 41 25 41 23 0 -2 -11 -32 -25 -67 -32 -81 -33 -113 -4 -108
16 2 28 22 51 83 17 44 38 88 46 98 21 24 22 100 1 105 -8 1 -24 -7 -35 -19z"/>
<path d="M5690 12881 c-88 -27 -141 -75 -178 -161 -39 -92 -97 -366 -91 -425
3 -24 9 -30 28 -30 28 0 37 26 67 190 9 50 24 117 33 150 l17 60 115 6 c115 7
157 18 193 54 18 19 21 73 5 108 -21 46 -115 70 -189 48z m130 -61 c52 -52 6
-92 -114 -97 -132 -6 -153 37 -44 91 65 32 129 35 158 6z"/>
<path d="M2197 12824 c-16 -16 -6 -44 17 -50 45 -11 71 -1 71 26 0 22 -5 25
-40 28 -23 2 -44 0 -48 -4z"/>
<path d="M6065 12676 c-26 -19 -13 -51 18 -42 12 4 69 9 127 12 124 7 132 8
124 29 -8 21 -240 22 -269 1z"/>
<path d="M7175 12660 c-27 -5 -112 -9 -187 -9 -131 -1 -138 -2 -138 -21 0 -19
7 -20 123 -20 137 0 575 19 596 26 11 3 11 7 1 19 -10 12 -43 15 -179 14 -91
-1 -188 -5 -216 -9z"/>
<path d="M6145 12560 c-27 -5 -74 -9 -102 -9 -47 -1 -53 -3 -53 -22 0 -22 1
-22 148 -15 182 9 250 22 228 44 -11 10 -161 12 -221 2z"/>
<path d="M7195 12539 c-59 -18 -130 -65 -160 -105 -16 -22 -39 -45 -50 -50
-14 -6 -22 -24 -28 -59 -4 -27 -15 -81 -23 -120 -18 -89 -18 -129 1 -145 21
-18 45 4 45 41 0 25 19 130 25 137 1 1 22 -6 46 -16 58 -25 171 -47 194 -38
28 11 0 33 -60 47 -61 14 -154 49 -160 59 -3 5 28 20 67 35 194 73 271 144
217 201 -24 26 -59 30 -114 13z m75 -50 c0 -18 -41 -47 -117 -84 -97 -48 -114
-46 -70 7 44 55 187 113 187 77z"/>
<path d="M635 12323 c-62 -14 -94 -30 -138 -72 -62 -57 -77 -92 -77 -179 0
-58 -6 -82 -35 -144 -64 -139 -69 -200 -16 -183 26 8 48 45 33 54 -14 8 29
117 56 144 19 19 20 18 37 -34 21 -62 55 -109 94 -126 31 -15 90 -16 111 -3
22 14 2 28 -54 39 -53 10 -70 27 -98 101 -10 25 -18 46 -18 47 0 1 22 9 49 18
88 29 186 102 234 175 24 35 22 111 -4 144 -19 24 -26 26 -87 25 -37 -1 -76
-3 -87 -6z m141 -68 c3 -14 3 -37 0 -51 -9 -35 -90 -113 -151 -146 -47 -25
-135 -52 -135 -41 0 2 10 21 22 42 25 43 19 76 -12 68 -33 -9 -24 28 18 75 50
56 101 78 184 78 64 0 68 -1 74 -25z"/>
<path d="M2320 12321 c-73 -15 -114 -67 -91 -117 16 -37 45 -28 51 16 7 48 36
59 161 62 111 2 143 -7 154 -43 10 -30 -18 -55 -110 -101 -158 -79 -234 -130
-274 -183 -49 -65 -58 -104 -33 -136 17 -20 29 -23 78 -24 46 0 59 3 59 15 0
10 -16 18 -47 24 -61 12 -63 33 -7 99 41 48 110 93 256 166 90 45 133 88 133
130 0 39 -34 78 -78 91 -41 11 -197 12 -252 1z"/>
<path d="M7350 12190 c0 -16 7 -20 33 -20 40 0 81 -20 85 -42 3 -14 -76 -78
-96 -78 -4 0 -20 -11 -36 -23 -20 -16 -27 -29 -23 -40 5 -15 23 -17 121 -17
118 0 171 11 163 33 -3 9 -28 11 -93 9 -53 -3 -85 0 -79 5 6 5 27 22 48 37 95
69 52 156 -77 156 -39 0 -46 -3 -46 -20z"/>
<path d="M1470 11910 c0 -19 7 -20 134 -20 74 0 147 4 161 10 55 21 12 30
-141 30 -147 0 -154 -1 -154 -20z"/>
<path d="M948 11840 c-10 -6 -18 -20 -18 -32 0 -18 4 -19 35 -14 51 10 44 -7
-20 -49 -61 -41 -72 -72 -33 -99 42 -30 148 -16 148 19 0 11 -14 15 -57 15
l-58 1 25 19 c14 10 37 29 53 40 30 24 37 69 14 89 -21 17 -70 23 -89 11z"/>
<path d="M9410 11770 c0 -11 3 -20 8 -21 4 0 19 -2 33 -3 36 -2 93 -48 113
-91 29 -61 4 -130 -69 -190 -51 -42 -61 -81 -22 -90 67 -16 260 -44 268 -39
14 9 10 23 -10 33 -10 6 -58 17 -107 26 -48 8 -90 17 -92 20 -2 2 14 25 36 50
92 105 80 215 -31 296 -51 37 -127 42 -127 9z"/>
<path d="M13053 11754 c-8 -22 5 -46 87 -164 156 -222 230 -462 230 -744 0
-182 -62 -304 -200 -394 -54 -36 -54 -37 -26 -40 44 -5 69 4 122 47 84 67 145
191 159 323 15 137 -29 412 -90 563 -48 120 -69 157 -146 267 -37 53 -73 107
-80 120 -20 39 -45 49 -56 22z"/>
<path d="M2250 11641 c-12 -23 10 -51 41 -51 21 0 25 21 9 51 -14 24 -36 24
-50 0z"/>
<path d="M7558 11598 c-18 -6 -28 -17 -28 -30 0 -18 4 -20 45 -14 51 8 85 -5
85 -33 0 -11 -32 -48 -76 -87 -86 -77 -93 -104 -37 -137 40 -23 232 -44 259
-29 16 9 13 12 -21 26 -21 9 -72 19 -112 23 -40 3 -81 12 -91 19 -16 13 -14
17 23 46 75 60 105 98 105 129 0 43 -17 69 -55 85 -39 16 -59 17 -97 2z"/>
<path d="M11905 11553 c-63 -48 -155 -182 -193 -283 -40 -104 -89 -297 -103
-407 -23 -181 30 -319 129 -339 40 -8 41 4 1 42 -71 68 -93 150 -77 288 12 96
67 315 102 404 37 94 129 226 182 263 28 19 44 37 42 47 -5 29 -31 24 -83 -15z"/>
<path d="M7135 11539 c-51 -45 -49 -85 6 -132 l41 -35 -58 -12 c-52 -11 -90
-10 -211 7 -39 5 -43 3 -43 -15 0 -33 58 -45 193 -41 l117 4 -48 -22 c-69 -33
-104 -75 -100 -121 3 -32 8 -39 38 -49 51 -17 301 -17 325 1 18 13 17 14 -11
19 -16 4 -89 9 -162 13 -73 4 -135 11 -138 16 -13 20 28 55 122 103 86 43 99
53 100 76 0 14 12 41 26 60 75 98 33 159 -109 159 -44 0 -58 -5 -88 -31z m172
-35 c9 -25 -9 -64 -40 -82 -26 -16 -29 -16 -64 3 -51 28 -60 46 -37 73 15 18
29 22 77 22 44 0 59 -4 64 -16z"/>
<path d="M8985 11491 c-16 -11 -52 -38 -80 -60 -27 -22 -60 -46 -73 -53 -12
-6 -21 -19 -20 -27 5 -28 44 -24 81 8 19 17 37 31 40 31 3 0 -23 -56 -59 -125
-36 -69 -64 -133 -62 -142 5 -29 52 -23 58 7 8 34 33 87 71 152 121 203 134
266 44 209z"/>
<path d="M9148 11464 c-36 -15 -53 -37 -42 -55 8 -13 36 -10 58 6 27 21 73 19
85 -3 14 -27 -14 -72 -122 -187 -53 -57 -97 -110 -97 -117 0 -26 24 -38 75
-38 69 0 146 24 181 57 38 35 20 40 -58 14 -61 -19 -88 -25 -117 -22 -7 0 26
42 74 92 126 133 149 195 95 249 -24 24 -79 26 -132 4z"/>
<path d="M5528 11360 c-128 -38 -227 -208 -248 -427 -14 -143 -13 -153 9 -153
13 0 24 16 40 63 12 34 25 75 28 92 5 27 5 29 -11 16 -16 -13 -17 -12 -11 15
18 79 21 80 60 24 15 -22 31 -40 36 -40 4 0 30 -31 58 -70 60 -82 88 -103 132
-98 44 4 46 21 5 36 -23 8 -49 32 -73 65 -21 28 -58 74 -82 101 -31 35 -40 51
-30 54 44 13 165 78 196 105 48 42 77 108 68 154 -11 60 -92 89 -177 63z m106
-46 c26 -10 20 -66 -13 -111 -21 -29 -50 -50 -112 -80 -46 -22 -99 -43 -117
-47 -31 -5 -33 -4 -26 17 28 89 86 170 149 209 30 18 88 24 119 12z"/>
<path d="M12074 11272 c-116 -41 -195 -151 -202 -281 -3 -57 0 -71 21 -102 13
-19 26 -54 30 -78 24 -184 256 -142 380 69 14 25 30 74 36 108 19 121 -18 217
-103 267 -59 35 -100 39 -162 17z m125 -53 c20 -11 48 -36 61 -56 22 -32 25
-47 25 -123 0 -81 -3 -90 -35 -145 -72 -119 -198 -187 -250 -135 -16 16 -20
33 -20 89 0 38 5 92 12 121 10 44 9 53 -5 67 -22 22 -47 1 -48 -41 0 -17 -5
-40 -10 -51 -6 -14 -8 -4 -6 37 4 69 53 172 98 207 33 25 92 50 123 51 10 0
35 -9 55 -21z"/>
<path d="M10795 11009 c-83 -62 -103 -95 -54 -92 27 1 27 1 -23 -93 -27 -52
-47 -101 -44 -110 10 -25 36 -28 59 -5 12 12 16 21 9 21 -17 0 44 119 113 220
88 130 65 153 -60 59z"/>
<path d="M6170 11032 c0 -21 5 -22 73 -22 39 0 90 -5 112 -10 69 -15 167 -17
172 -2 9 25 -65 42 -212 49 -144 6 -145 6 -145 -15z"/>
<path d="M12838 11038 c-9 -7 -28 -38 -42 -68 -28 -60 -92 -132 -138 -156 -25
-13 -29 -13 -34 1 -4 9 3 44 15 78 30 84 31 101 5 105 -16 2 -25 -6 -39 -35
-9 -21 -26 -57 -37 -81 -24 -51 -109 -147 -149 -167 -15 -8 -39 -15 -54 -15
-20 0 -25 5 -25 26 0 14 4 34 10 44 7 13 5 21 -6 31 -24 20 -55 -17 -57 -70
-2 -52 26 -81 80 -81 47 0 89 23 149 82 45 43 54 49 72 39 43 -23 107 -6 160
42 22 20 22 20 22 -6 0 -72 148 -89 217 -25 35 33 28 38 -29 22 -68 -18 -112
-18 -127 0 -19 23 -3 104 30 157 33 52 36 74 13 83 -20 8 -17 8 -36 -6z"/>
<path d="M11090 11029 c-35 -14 -66 -46 -106 -106 -62 -92 -73 -182 -28 -224
22 -21 35 -24 92 -23 58 0 77 6 140 39 57 29 77 47 92 76 64 124 11 238 -113
246 -29 1 -63 -2 -77 -8z m125 -55 c46 -30 51 -108 10 -170 -21 -32 -129 -84
-176 -84 -57 0 -72 17 -64 73 5 30 14 51 25 57 10 5 21 25 24 43 14 76 118
122 181 81z"/>
<path d="M6896 11001 c-27 -43 78 -53 524 -49 334 3 385 5 385 18 0 13 -52 16
-380 21 -209 3 -412 10 -451 14 -49 5 -74 4 -78 -4z"/>
<path d="M8070 10991 c0 -25 17 -30 109 -37 42 -2 97 -6 124 -9 36 -3 47 -1
47 10 0 24 -31 33 -150 44 -63 6 -118 11 -122 11 -5 0 -8 -9 -8 -19z"/>
<path d="M8672 10994 c3 -18 25 -19 428 -25 253 -4 472 -12 540 -20 165 -19
234 -18 238 3 2 13 -6 18 -40 22 -24 3 -77 10 -118 17 -45 7 -269 13 -563 16
-472 5 -489 4 -485 -13z"/>
<path d="M10096 11003 c-34 -34 40 -55 181 -51 88 2 108 6 108 18 0 12 -19 17
-85 22 -47 3 -110 9 -141 12 -31 3 -59 3 -63 -1z"/>
<path d="M6168 10933 c-10 -2 -18 -13 -18 -23 0 -19 12 -23 100 -35 51 -7 240
11 253 24 19 19 -24 26 -153 26 -74 0 -142 3 -150 6 -8 4 -23 5 -32 2z"/>
<path d="M7231 10920 c-46 -11 -82 -39 -108 -86 -22 -37 -23 -48 -20 -214 l2
-175 25 0 c23 0 25 4 31 57 4 32 12 77 19 102 l12 43 49 -24 c112 -54 244 -18
296 81 34 64 -11 167 -89 205 -47 22 -147 27 -217 11z m221 -76 c77 -74 46
-165 -65 -195 -31 -8 -50 -7 -93 7 -66 21 -79 35 -81 93 -1 25 -2 49 -2 54 -1
4 -10 7 -21 7 -18 0 -19 3 -10 20 16 30 48 43 120 50 79 7 115 -1 152 -36z"/>
<path d="M8200 10903 c-14 -2 -49 -11 -78 -19 -41 -11 -52 -19 -50 -32 4 -20
26 -20 113 -4 33 7 94 15 135 18 141 10 133 45 -10 42 -47 0 -96 -3 -110 -5z"/>
<path d="M10305 10859 c-33 -5 -89 -12 -125 -16 -58 -7 -65 -10 -68 -32 -4
-24 -3 -24 63 -17 91 9 205 34 222 48 11 9 12 13 1 19 -7 5 -17 8 -23 8 -5 -1
-37 -5 -70 -10z"/>
<path d="M5797 10836 c-28 -28 -10 -48 34 -41 31 5 40 3 45 -10 11 -28 -13
-63 -71 -101 -34 -23 -55 -44 -55 -55 0 -17 9 -19 86 -19 65 0 97 5 135 21 27
12 49 26 49 32 0 10 -70 6 -140 -9 l-35 -7 34 28 c83 71 69 159 -26 172 -29 4
-44 1 -56 -11z"/>
<path d="M8898 10750 c-13 -11 -42 -34 -66 -50 -47 -33 -54 -66 -14 -64 12 0
22 0 22 0 0 -1 -11 -23 -25 -50 -32 -64 -32 -86 -1 -86 17 0 27 7 31 23 4 12
29 60 56 107 27 47 49 95 49 107 0 29 -25 36 -52 13z"/>
<path d="M9431 10741 c-35 -49 -81 -148 -81 -175 0 -34 35 -43 85 -22 21 9 40
14 43 12 2 -3 -3 -26 -11 -53 -20 -64 -27 -139 -14 -152 16 -16 43 -13 58 6
11 13 11 17 2 20 -17 6 -16 26 2 98 20 76 62 169 85 190 21 19 16 45 -9 45
-19 0 -52 -32 -70 -68 -12 -23 -31 -33 -83 -46 -27 -6 -27 -6 -16 21 7 16 25
49 40 74 16 25 28 54 28 63 0 26 -37 18 -59 -13z"/>
<path d="M9034 10731 c-35 -21 -120 -115 -137 -150 -9 -19 -8 -25 8 -37 23
-17 67 -11 148 22 31 12 57 21 57 19 0 -3 -10 -24 -21 -49 -12 -24 -19 -51
-16 -60 14 -35 38 -14 78 67 23 45 50 94 60 109 11 14 19 33 19 42 0 23 -34
20 -56 -6 -19 -21 -171 -98 -194 -98 -20 0 68 97 100 110 18 8 30 20 30 31 0
25 -35 25 -76 0z"/>
<path d="M9201 10507 c-37 -96 -36 -139 2 -124 16 6 47 88 47 124 0 31 -37 31
-49 0z"/>
<path d="M3678 10041 c-47 -10 -70 -29 -66 -55 4 -25 58 -37 58 -13 0 20 22
27 84 27 30 0 61 -6 74 -16 38 -26 28 -57 -37 -113 -67 -58 -103 -121 -94
-164 9 -48 60 -72 243 -117 47 -12 93 -23 103 -26 26 -8 21 23 -7 41 -13 9
-74 29 -134 45 -61 16 -120 35 -131 42 -39 24 -26 57 54 136 41 41 78 85 81
97 7 30 -13 73 -47 97 -29 22 -121 32 -181 19z"/>
<path d="M13420 9946 c0 -8 21 -30 48 -49 61 -45 199 -188 241 -250 103 -152
150 -382 129 -637 -11 -131 -25 -194 -75 -335 -86 -242 -206 -416 -383 -558
l-35 -28 40 6 c175 28 440 453 496 795 17 101 17 366 0 460 -40 225 -157 407
-364 572 -49 38 -97 50 -97 24z"/>
<path d="M5658 9884 c-5 -4 -8 -15 -8 -25 0 -15 10 -17 83 -16 102 1 158 -15
204 -57 33 -30 34 -34 22 -55 -8 -12 -57 -54 -109 -93 -148 -112 -175 -152
-131 -192 40 -37 215 -67 298 -51 l38 7 -27 14 c-14 7 -66 18 -115 24 -101 11
-153 26 -153 44 0 16 47 59 143 131 85 64 117 101 117 135 0 36 -37 77 -96
106 -47 23 -73 28 -158 32 -55 2 -104 1 -108 -4z"/>
<path d="M3384 9832 c-85 -25 -154 -62 -178 -95 l-21 -29 33 -29 c19 -17 32
-32 30 -33 -19 -17 -57 -26 -110 -25 -48 0 -58 2 -40 9 24 10 30 38 10 45 -7
3 -26 1 -43 -3 -26 -7 -30 -13 -30 -42 0 -27 6 -37 25 -47 45 -23 132 -16 215
17 138 55 165 37 64 -41 -69 -53 -156 -136 -172 -165 -18 -32 -3 -68 35 -87
58 -29 146 -41 194 -28 49 13 107 64 80 69 -10 2 -35 -3 -57 -12 -53 -21 -115
-20 -167 4 l-44 20 20 27 c27 37 73 79 150 137 34 26 70 59 78 72 15 21 15 27
2 46 -15 22 -13 24 36 48 48 24 100 82 93 104 -7 21 -54 45 -97 50 -28 3 -68
-1 -106 -12z m134 -40 c19 -12 -32 -54 -105 -86 -65 -28 -112 -29 -149 -1 -16
11 -15 14 9 30 35 23 164 64 202 64 17 1 36 -3 43 -7z"/>
<path d="M5393 9720 c-87 -18 -153 -66 -153 -113 l0 -30 -95 6 c-87 5 -95 4
-95 -13 0 -28 26 -34 155 -35 117 -2 214 -16 245 -35 9 -6 10 -10 3 -10 -6 0
-52 -23 -102 -52 -100 -57 -132 -98 -115 -147 16 -43 56 -56 181 -56 97 0 115
3 139 21 31 23 51 50 43 59 -3 3 -26 -4 -50 -15 -33 -15 -66 -20 -132 -20 -95
0 -127 10 -127 40 0 24 31 48 129 99 82 42 114 72 104 97 -3 8 -32 22 -64 32
l-59 18 61 40 c33 21 65 47 70 57 14 25 -5 53 -42 61 -36 7 -39 7 -96 -4z m57
-62 c-14 -11 -49 -32 -78 -46 -48 -22 -56 -23 -69 -9 -14 13 -13 17 11 32 37
24 96 44 131 44 l30 0 -25 -21z"/>
<path d="M10632 9653 c-100 -100 -261 -404 -308 -578 -36 -136 -38 -262 -6
-323 54 -102 135 -156 250 -168 82 -9 90 10 15 32 -164 47 -233 126 -233 268
0 155 82 374 225 605 76 122 106 155 141 156 32 0 47 31 22 46 -29 19 -60 8
-106 -38z"/>
<path d="M1782 9658 c-19 -24 -59 -114 -111 -244 -38 -99 -51 -145 -51 -184 0
-44 3 -51 18 -48 11 2 21 20 30 57 15 61 99 277 138 353 14 27 23 56 20 64 -7
17 -30 18 -44 2z"/>
<path d="M11385 9624 c-16 -14 -54 -41 -83 -61 -63 -42 -69 -51 -49 -70 14
-14 18 -13 45 6 17 11 32 21 34 21 2 0 -29 -68 -70 -152 -89 -183 -105 -248
-50 -205 9 6 47 75 84 152 37 77 87 175 111 217 44 78 51 111 23 115 -8 1 -28
-9 -45 -23z"/>
<path d="M12940 9554 c-25 -25 -82 -73 -127 -106 -52 -38 -83 -68 -83 -80 0
-27 29 -22 74 12 22 17 41 28 43 27 1 -2 -9 -32 -23 -67 -14 -35 -28 -94 -31
-131 -5 -59 -3 -69 12 -75 23 -9 32 7 40 75 10 81 49 169 122 277 35 52 61 99
58 105 -13 20 -43 7 -85 -37z"/>
<path d="M9725 9540 c-89 -18 -117 -44 -83 -78 20 -20 58 -15 58 7 0 33 115
39 173 9 29 -15 20 -34 -54 -105 -140 -136 -137 -197 11 -197 49 0 146 29 156
46 5 8 -21 9 -87 4 -52 -4 -103 -4 -112 0 -24 9 -11 29 78 119 77 78 90 108
65 154 -16 30 -137 54 -205 41z"/>
<path d="M1231 9380 c-120 -43 -167 -102 -197 -244 -11 -54 -11 -64 7 -98 11
-21 24 -38 30 -38 13 0 12 -1 -26 -150 -15 -58 -28 -134 -28 -170 -2 -59 0
-65 18 -65 16 0 21 10 27 50 11 69 55 255 68 289 8 21 15 27 30 23 39 -10 174
14 225 39 67 35 131 99 151 150 15 38 15 47 0 96 -13 47 -23 60 -72 96 -52 39
-61 42 -118 42 -34 -1 -85 -9 -115 -20z m202 -63 c67 -52 75 -111 23 -178 -53
-70 -168 -119 -278 -119 -33 0 -33 2 8 132 30 97 30 100 -3 96 -23 -3 -29 -11
-42 -53 -14 -47 -26 -64 -43 -65 -14 0 -8 28 18 89 29 67 56 88 152 120 70 24
115 18 165 -22z m-332 -254 c-8 -15 -10 -15 -11 -2 0 17 10 32 18 25 2 -3 -1
-13 -7 -23z"/>
<path d="M9362 9314 c-67 -33 -106 -82 -100 -125 5 -31 5 -31 -38 -25 -51 7
-75 -12 -48 -39 12 -12 32 -16 75 -14 51 2 65 -2 111 -30 49 -31 51 -34 33
-46 -86 -58 -116 -84 -131 -116 -28 -63 7 -99 99 -102 61 -1 118 14 167 44 47
30 26 34 -69 15 -95 -19 -112 -20 -135 -3 -28 21 -8 48 77 105 94 63 96 79 20
125 l-58 36 28 10 c48 18 117 71 138 104 24 40 24 42 -1 67 -29 29 -102 27
-168 -6z m117 -23 c20 -13 -33 -62 -102 -95 -45 -21 -53 -22 -61 -9 -11 20 36
69 89 94 46 21 54 22 74 10z"/>
<path d="M4347 9238 c-2 -7 0 -29 4 -48 5 -19 9 -57 9 -84 l0 -49 -75 6 c-70
6 -75 5 -75 -13 0 -22 50 -40 112 -40 l36 0 -1 -60 c-2 -60 13 -94 29 -68 5 7
13 38 19 68 l11 55 55 3 c74 3 99 10 99 27 0 11 -18 15 -77 17 l-78 3 -6 86
c-3 47 -9 91 -13 97 -10 16 -43 15 -49 0z"/>
<path d="M7437 9164 c-16 -17 -5 -34 31 -43 20 -6 135 -11 255 -11 204 0 217
1 217 18 0 18 -16 19 -222 26 -123 3 -234 9 -248 12 -14 3 -29 2 -33 -2z"/>
<path d="M1907 9124 c-4 -4 -7 -13 -7 -21 0 -11 36 -13 193 -11 163 3 192 5
192 18 0 13 -28 15 -186 18 -102 1 -188 -1 -192 -4z"/>
<path d="M5053 9121 c-13 -6 -23 -19 -23 -31 0 -20 3 -21 63 -13 34 4 157 6
272 4 526 -8 640 -7 640 9 0 21 -89 26 -550 34 -242 4 -388 3 -402 -3z"/>
<path d="M12092 9118 c-6 -6 -12 -33 -12 -59 l0 -46 -72 -6 c-103 -10 -120
-15 -116 -41 2 -16 9 -20 28 -18 14 2 55 5 91 8 l66 6 6 -78 c4 -43 11 -82 16
-87 16 -16 34 33 39 104 l4 66 62 6 c75 7 96 15 96 35 0 13 -12 14 -80 9 l-79
-6 -3 57 c-3 59 -19 77 -46 50z"/>
<path d="M10990 9068 c0 -36 34 -41 249 -33 113 4 250 7 304 7 85 0 98 2 95
16 -5 28 -57 32 -355 30 -269 -3 -293 -4 -293 -20z"/>
<path d="M12630 9081 c-26 -4 -35 -11 -35 -26 0 -15 7 -20 25 -20 77 0 446 18
453 22 4 3 3 11 -4 19 -9 11 -50 14 -208 13 -108 -1 -212 -4 -231 -8z"/>
<path d="M3380 9040 c-41 -4 -177 -8 -302 -9 -225 -1 -228 -1 -228 -22 0 -21
0 -21 320 -18 305 4 320 5 334 24 29 38 27 39 -124 25z"/>
<path d="M2210 8999 c-30 -5 -129 -8 -220 -7 -164 3 -165 3 -168 -19 -3 -23
-3 -23 193 -23 187 0 278 10 291 32 7 11 -14 28 -31 27 -5 -1 -35 -6 -65 -10z"/>
<path d="M7474 8991 c-2 -2 -4 -13 -4 -24 0 -18 7 -19 203 -14 186 5 308 19
292 35 -7 7 -484 10 -491 3z"/>
<path d="M11419 8981 c-65 -20 -165 -102 -203 -166 -38 -65 -129 -303 -122
-320 3 -9 14 -15 23 -13 19 3 37 35 73 128 12 30 25 58 29 62 4 4 56 -17 116
-47 113 -57 145 -66 145 -40 0 18 -61 57 -147 97 -35 15 -63 32 -63 37 0 11
30 36 67 55 47 24 162 134 169 162 12 45 -24 64 -87 45z m-5 -82 c-29 -31
-107 -89 -119 -89 -14 0 60 83 89 101 49 30 64 23 30 -12z"/>
<path d="M3259 8916 c-60 -21 -103 -53 -138 -101 -18 -25 -36 -45 -41 -45 -5
0 -17 -25 -27 -56 -13 -41 -24 -59 -45 -70 -30 -16 -36 -42 -16 -73 9 -15 8
-33 -7 -86 -13 -50 -15 -69 -6 -78 19 -19 44 5 60 59 8 27 16 51 17 53 2 2 19
-7 39 -19 43 -27 141 -38 174 -20 33 17 16 28 -54 36 -51 6 -85 19 -137 55 -5
3 -5 17 1 31 6 17 24 30 58 42 73 28 177 91 212 131 44 50 45 96 5 133 -29 25
-44 26 -95 8z m69 -64 c3 -17 -8 -34 -35 -60 -38 -36 -162 -107 -171 -98 -8 8
41 95 70 125 58 60 130 77 136 33z"/>
<path d="M12891 8911 c-29 -10 -56 -23 -60 -27 -57 -78 -98 -158 -146 -288
-56 -151 -62 -186 -30 -186 13 0 67 71 78 104 3 7 10 6 22 -4 13 -11 42 -15
104 -15 99 0 141 9 141 30 0 12 -18 15 -100 15 -84 0 -102 3 -107 16 -7 18 38
62 92 90 54 29 136 97 161 133 27 40 32 97 11 125 -20 27 -100 31 -166 7z
m126 -47 c15 -41 -60 -120 -180 -188 l-48 -27 7 28 c10 42 69 156 90 174 25
22 42 27 87 28 26 1 40 -4 44 -15z"/>
<path d="M5434 8796 c-67 -31 -117 -77 -170 -155 -36 -54 -48 -65 -71 -66 -27
0 -30 -6 -65 -110 -20 -60 -37 -123 -37 -138 -1 -25 2 -28 27 -25 23 3 33 16
72 93 45 91 45 91 65 70 30 -31 170 -59 256 -52 63 5 119 28 119 48 0 4 -44 5
-98 2 -89 -5 -138 0 -224 24 -10 2 -18 11 -18 18 0 17 54 59 95 75 17 6 62 32
101 58 111 72 144 136 84 167 -40 20 -76 18 -136 -9z m104 -43 c-2 -10 -26
-34 -53 -55 -49 -38 -173 -103 -180 -96 -3 2 15 29 39 60 30 37 62 64 97 82
62 31 102 34 97 9z"/>
<path d="M11603 8694 c-8 -22 5 -131 20 -163 7 -15 22 -27 36 -29 21 -3 23 -1
17 20 -3 12 -9 50 -12 83 -8 93 -12 105 -35 105 -11 0 -22 -7 -26 -16z"/>
<path d="M13135 8624 c-11 -3 -30 -7 -42 -10 -15 -3 -23 -12 -23 -25 0 -20 3
-21 64 -14 59 6 66 5 76 -14 15 -29 2 -49 -70 -112 -59 -51 -72 -77 -47 -97
59 -48 289 5 354 82 14 16 21 32 15 34 -6 2 -45 -13 -88 -33 -71 -33 -155 -55
-209 -55 -17 1 -15 5 15 32 90 82 110 134 68 183 -23 26 -72 38 -113 29z"/>
<path d="M3463 8573 c-4 -10 -7 -54 -8 -98 0 -79 0 -80 27 -83 25 -3 26 -1 21
35 -3 21 -1 61 4 88 5 28 8 56 5 63 -6 18 -42 14 -49 -5z"/>
<path d="M5797 8580 c-43 -8 -63 -23 -52 -40 5 -8 31 -9 86 -4 71 6 79 5 79
-11 0 -9 -25 -44 -55 -78 -64 -70 -73 -111 -29 -127 28 -11 140 6 257 39 84
24 115 41 96 51 -16 9 -87 0 -218 -29 -52 -12 -96 -21 -98 -21 -13 0 4 26 46
72 58 64 70 98 47 133 -14 22 -23 25 -69 24 -28 -1 -69 -5 -90 -9z"/>
<path d="M6102 7858 c-7 -7 -12 -22 -12 -33 0 -12 -11 -55 -25 -95 -28 -83
-32 -130 -11 -130 8 0 23 19 35 43 29 62 65 192 58 211 -7 19 -28 21 -45 4z"/>
<path d="M3374 7633 c-20 -32 -51 -76 -69 -98 -45 -56 -85 -138 -75 -155 4 -7
17 -11 29 -7 25 6 24 9 6 -68 -8 -33 -15 -79 -15 -102 0 -36 3 -43 19 -43 22
0 25 8 41 95 16 94 58 223 102 317 22 48 38 94 35 102 -12 30 -37 16 -73 -41z"/>
<path d="M1449 7640 c-38 -50 -78 -88 -157 -146 -78 -59 -103 -94 -85 -122 16
-26 37 -20 51 13 14 30 98 102 108 93 3 -3 -4 -39 -15 -81 -31 -118 -36 -167
-18 -167 29 0 33 12 92 237 16 60 29 87 62 127 26 32 27 69 2 74 -9 2 -27 -11
-40 -28z"/>
<path d="M5518 7659 c-53 -15 -117 -75 -143 -134 -31 -71 -87 -290 -83 -328 2
-24 8 -32 23 -32 15 0 31 22 65 91 l44 91 67 6 c166 14 302 78 343 161 25 51
14 81 -42 120 -40 28 -50 30 -140 33 -53 1 -113 -3 -134 -8z m245 -63 c72 -48
-7 -136 -158 -175 -73 -19 -165 -28 -165 -16 0 3 11 33 25 67 27 66 31 88 15
88 -19 0 -10 18 18 36 30 20 144 33 202 23 19 -3 48 -14 63 -23z"/>
<path d="M2392 7218 c-7 -9 -8 -26 -2 -53 5 -22 10 -61 10 -87 l0 -48 -111 0
c-100 0 -110 -2 -107 -17 3 -16 18 -18 111 -21 l107 -3 0 -68 c0 -68 15 -131
31 -131 14 0 29 71 29 138 l0 62 76 0 c79 0 128 15 103 31 -8 5 -53 9 -101 9
l-88 0 -1 68 c-1 37 -4 80 -8 97 -7 32 -31 44 -49 23z"/>
<path d="M4372 7173 c2 -14 17 -20 63 -25 110 -13 302 -21 330 -14 25 6 26 9
14 22 -10 10 -58 17 -159 24 -218 15 -252 14 -248 -7z"/>
<path d="M3130 7133 c0 -27 22 -33 155 -40 103 -6 107 -7 70 -17 -53 -15 -95
-72 -128 -172 -46 -142 -60 -261 -32 -284 24 -20 45 5 45 52 0 25 5 41 15 45
9 3 61 -9 116 -26 96 -31 166 -37 162 -16 -1 12 -95 49 -178 71 -33 9 -67 18
-75 21 -8 2 23 20 69 38 130 53 193 112 193 181 0 39 -13 59 -57 86 l-30 18
85 0 c87 0 128 12 102 28 -7 5 -102 12 -210 16 -108 4 -221 9 -249 13 -49 5
-53 4 -53 -14z m338 -109 c50 -35 7 -106 -92 -154 -76 -36 -90 -37 -81 -10 4
12 2 27 -4 34 -15 18 33 112 67 131 36 19 82 19 110 -1z"/>
<path d="M1050 7110 c0 -20 7 -20 323 -20 194 0 328 4 337 10 37 24 -24 30
-337 30 -316 0 -323 0 -323 -20z"/>
<path d="M5136 7101 c-4 -6 -5 -15 -2 -20 11 -17 169 -26 456 -25 294 0 433 7
460 24 32 20 -10 25 -163 21 -259 -7 -421 -7 -588 2 -110 6 -159 5 -163 -2z"/>
<path d="M1318 7056 c-66 -18 -112 -57 -145 -123 -25 -51 -28 -68 -26 -141 2
-90 18 -132 52 -132 24 0 37 16 48 60 11 39 11 39 105 10 65 -22 124 -25 148
-10 22 13 1 30 -46 36 -21 3 -72 15 -111 27 -55 16 -73 26 -73 39 0 10 3 18 8
18 19 1 180 48 202 60 42 21 90 73 90 96 0 13 -13 34 -31 48 -27 23 -39 26
-102 25 -40 0 -93 -6 -119 -13z m190 -49 c15 -12 -8 -41 -49 -63 -42 -21 -169
-54 -169 -43 0 6 7 23 16 40 8 16 12 39 9 49 -7 21 15 27 105 33 49 2 68 -1
88 -16z m-264 -84 c-7 -31 -34 -66 -34 -45 0 15 28 72 35 72 3 0 2 -12 -1 -27z
m-37 -155 c-3 -8 -6 -5 -6 6 -1 11 2 17 5 13 3 -3 4 -12 1 -19z"/>
<path d="M5890 6971 c0 -15 6 -21 23 -21 33 0 127 -29 127 -39 0 -14 -28 -34
-93 -66 -116 -57 -101 -87 50 -100 135 -12 194 -11 222 4 36 20 13 27 -104 35
-148 9 -154 12 -92 45 59 31 88 71 71 98 -17 29 -85 57 -146 61 -54 4 -58 3
-58 -17z"/>
<path d="M4298 6963 c-23 -29 5 -33 216 -33 168 0 216 3 232 14 29 22 11 25
-224 28 -159 3 -216 0 -224 -9z"/>
<path d="M5665 6903 c-99 -22 -185 -68 -185 -100 0 -15 -11 -15 -81 2 -19 5
-28 2 -32 -9 -11 -28 21 -46 81 -47 31 0 95 -8 141 -18 l85 -17 -72 -37 c-116
-61 -165 -129 -113 -157 28 -15 157 -12 220 5 47 12 108 51 97 62 -2 2 -46 -5
-97 -15 -58 -12 -111 -17 -137 -13 l-44 6 24 21 c12 12 52 36 88 55 83 42 100
57 100 85 0 19 -8 24 -57 35 l-58 12 77 24 c57 17 82 30 95 50 16 25 16 26 -6
44 -22 18 -76 23 -126 12z m-5 -69 c-82 -26 -118 -31 -85 -12 31 18 97 37 130
37 21 -1 8 -8 -45 -25z"/>
<path d="M1733 6796 c-68 -34 -102 -56 -100 -66 3 -23 41 -23 87 0 23 12 44
19 47 17 2 -3 -5 -36 -17 -75 -26 -85 -24 -137 5 -137 15 0 21 11 30 55 15 75
43 158 67 199 20 35 18 62 -4 60 -7 -1 -59 -25 -115 -53z"/>
<path d="M3650 6790 c0 -15 7 -20 28 -20 41 0 70 -10 76 -26 7 -19 -66 -98
-121 -131 -89 -52 -36 -92 97 -74 84 11 142 35 174 70 17 19 17 21 2 21 -9 0
-42 -8 -74 -19 -31 -10 -79 -22 -107 -26 l-50 -7 35 27 c49 36 100 103 100
132 0 13 -11 35 -25 48 -20 21 -34 25 -80 25 -48 0 -55 -2 -55 -20z"/>
<path d="M3471 5954 c-154 -41 -231 -127 -231 -256 0 -42 13 -63 34 -55 9 4
16 5 16 4 0 -1 -18 -49 -41 -107 -66 -171 -63 -161 -49 -170 30 -18 47 10 107
169 l28 73 53 4 c143 11 282 123 282 227 0 112 -64 147 -199 111z m137 -67
c32 -66 -24 -152 -127 -198 -52 -23 -121 -36 -121 -22 0 5 10 37 21 72 15 44
18 66 11 73 -19 19 -39 1 -58 -52 -10 -28 -25 -57 -33 -63 -12 -10 -13 -6 -7
28 4 22 15 55 23 73 29 62 148 123 233 119 39 -2 47 -6 58 -30z"/>
<path d="M6025 5958 c-16 -43 -85 -316 -85 -335 0 -28 15 -37 32 -19 17 17
101 316 96 342 -4 22 -36 31 -43 12z"/>
<path d="M5570 5796 c-99 -26 -149 -74 -209 -200 -44 -91 -64 -171 -59 -231 3
-34 6 -40 27 -40 21 0 25 8 41 70 10 39 24 85 32 103 l13 34 135 2 c153 2 204
17 253 75 31 37 34 63 12 105 -41 79 -138 111 -245 82z m170 -71 c38 -37 40
-76 4 -104 -37 -29 -84 -40 -186 -43 -97 -3 -124 8 -95 39 11 13 13 23 5 36
-13 24 9 49 76 82 71 36 152 32 196 -10z"/>
<path d="M1380 5689 c-30 -22 -81 -53 -112 -69 -57 -30 -73 -55 -42 -67 8 -3
37 6 63 21 27 14 51 26 54 26 2 0 -6 -27 -20 -61 -13 -33 -27 -77 -30 -97 l-6
-37 37 34 c20 19 36 40 36 46 0 15 67 152 91 187 21 29 20 58 -3 57 -7 0 -38
-18 -68 -40z"/>
<path d="M2316 5390 l7 -80 -87 0 c-79 0 -86 -2 -86 -20 0 -18 7 -20 89 -20
l89 0 11 -45 c18 -71 44 -59 53 25 3 22 9 26 56 31 54 7 86 24 76 41 -4 6 -38
8 -78 6 l-71 -3 -6 61 c-7 71 -13 84 -40 84 -19 0 -20 -4 -13 -80z"/>
<path d="M4330 5390 c0 -19 7 -20 203 -20 198 0 251 8 217 30 -9 5 -102 10
-217 10 -196 0 -203 -1 -203 -20z"/>
<path d="M1395 5346 c-5 -2 -81 -12 -167 -22 -140 -15 -158 -19 -158 -36 0
-15 8 -18 48 -18 26 1 81 5 122 10 41 5 129 14 195 20 140 13 162 17 146 33
-10 10 -165 21 -186 13z"/>
<path d="M2990 5310 c0 -20 7 -20 398 -20 243 0 403 4 412 10 38 25 -26 30
-412 30 -391 0 -398 0 -398 -20z"/>
<path d="M1420 5276 c-144 -51 -279 -235 -296 -405 -5 -43 -3 -59 9 -69 25
-21 42 -4 61 63 10 36 20 65 23 65 2 0 27 -17 56 -39 70 -52 110 -71 135 -64
32 8 27 18 -24 48 -26 15 -64 43 -86 63 l-39 35 68 30 c138 61 203 122 203
192 0 72 -44 105 -110 81z m56 -62 c9 -37 -9 -69 -63 -108 -41 -30 -163 -91
-163 -81 0 10 36 85 51 107 21 30 134 108 155 108 7 0 17 -12 20 -26z"/>
<path d="M5700 5280 c-41 -4 -155 -13 -253 -20 -151 -12 -177 -16 -175 -29 3
-14 24 -16 143 -14 77 1 196 6 265 12 69 6 219 14 334 17 193 6 207 7 192 23
-14 14 -47 16 -224 17 -114 1 -241 -2 -282 -6z"/>
<path d="M4339 5263 c-24 -28 4 -33 200 -33 161 0 206 3 247 17 60 22 63 21
-214 25 -169 3 -226 1 -233 -9z"/>
<path d="M3527 5163 c-4 -3 -7 -15 -7 -26 0 -17 6 -18 83 -12 80 6 116 -2 103
-23 -4 -6 -51 -41 -106 -78 -102 -68 -116 -88 -83 -115 26 -22 238 -25 287 -5
54 23 37 37 -37 31 -34 -3 -93 -2 -130 2 l-68 8 78 52 c131 86 147 112 97 152
-23 18 -41 21 -119 21 -50 0 -95 -3 -98 -7z"/>
<path d="M6070 5144 c-87 -29 -100 -36 -100 -60 0 -29 14 -30 65 -4 67 34 125
23 139 -26 8 -26 -20 -52 -124 -116 -76 -47 -94 -73 -64 -95 15 -12 55 -14
194 -11 175 4 214 10 207 32 -3 7 -34 10 -93 8 -49 -1 -122 0 -162 4 l-74 6
69 45 c107 71 123 104 83 170 -24 40 -91 62 -140 47z"/>
<path d="M3182 5084 c-53 -26 -79 -55 -66 -76 5 -8 -21 -10 -99 -5 -100 6
-107 6 -107 -12 0 -25 25 -31 155 -37 135 -6 145 -8 179 -35 23 -18 25 -23 14
-37 -17 -20 -105 -85 -143 -105 -16 -8 -47 -31 -68 -51 -33 -30 -37 -38 -28
-55 23 -43 119 -52 223 -20 59 17 118 53 106 64 -1 2 -41 -5 -88 -15 -47 -11
-107 -19 -134 -19 -48 -1 -49 -1 -31 19 10 11 41 33 69 49 28 15 75 50 104 76
61 55 69 91 27 119 -33 22 -32 33 5 41 38 8 93 59 88 82 -9 48 -122 57 -206
17z m133 -37 c-28 -19 -107 -45 -122 -40 -42 15 24 52 92 53 44 0 47 -1 30
-13z"/>
<path d="M5614 5040 c-61 -14 -123 -73 -110 -105 7 -20 -50 -29 -129 -22 -64
6 -78 0 -68 -30 6 -16 189 -18 229 -3 21 8 40 7 80 -6 l52 -16 -78 -77 c-80
-79 -106 -128 -98 -181 8 -60 137 -58 220 3 54 40 35 46 -53 18 -68 -23 -105
-26 -114 -11 -13 21 29 86 100 153 85 81 93 106 45 135 l-29 18 37 13 c102 36
135 88 71 110 -36 12 -107 13 -155 1z m115 -45 c-9 -9 -140 -55 -156 -55 -14
0 -14 3 3 21 10 12 28 25 39 30 21 8 122 12 114 4z"/>
<path d="M1686 4910 c-103 -54 -116 -63 -116 -78 0 -26 31 -23 86 8 31 17 54
28 52 23 -49 -99 -59 -127 -56 -155 3 -28 7 -34 32 -36 24 -3 28 -1 22 13 -11
29 13 94 61 166 72 108 47 126 -81 59z"/>
<path d="M4006 3881 c-3 -4 0 -33 6 -63 9 -44 8 -71 -5 -145 -10 -50 -17 -105
-17 -123 0 -26 3 -31 21 -28 19 3 25 16 40 93 31 151 21 275 -21 275 -11 0
-21 -4 -24 -9z"/>
<path d="M5000 3819 c-69 -13 -146 -56 -168 -92 -31 -53 -60 -146 -77 -252 -9
-55 -21 -127 -26 -159 -10 -53 -9 -61 7 -73 15 -11 20 -11 30 -1 11 13 64 219
64 250 0 12 20 16 103 21 121 6 198 31 244 79 43 46 55 74 48 109 -19 84 -121
138 -225 118z m97 -50 c43 -16 73 -49 73 -81 0 -67 -97 -120 -243 -132 -76 -6
-78 -5 -72 15 4 11 1 26 -5 34 -9 11 -7 24 8 57 25 55 49 77 114 99 62 21 86
23 125 8z"/>
<path d="M1457 3711 c-40 -37 -162 -100 -221 -115 -19 -5 -26 -12 -24 -24 5
-23 65 -19 118 8 22 11 40 17 40 13 0 -5 -11 -44 -25 -88 -30 -97 -33 -138 -7
-133 12 2 29 37 57 118 46 130 58 151 94 173 15 9 35 25 45 36 15 17 16 23 6
36 -19 23 -37 18 -83 -24z"/>
<path d="M3715 3746 c-5 -2 -37 -10 -70 -17 -75 -16 -130 -42 -150 -73 -9 -13
-22 -56 -30 -97 -8 -41 -32 -126 -54 -189 -28 -80 -37 -118 -30 -127 21 -24
38 1 80 115 72 200 66 189 92 165 36 -33 86 -36 189 -12 155 35 220 86 202
156 -14 57 -51 77 -142 80 -42 1 -81 1 -87 -1z m149 -52 c26 -10 38 -41 26
-64 -14 -27 -61 -49 -145 -71 -101 -27 -155 -24 -155 7 0 8 -7 17 -15 20 -10
4 -12 15 -8 37 3 18 7 34 9 36 2 2 32 12 66 22 62 17 191 25 222 13z"/>
<path d="M4180 3513 c0 -17 12 -21 99 -33 101 -13 185 -10 203 8 14 14 -69 29
-199 38 -98 6 -103 6 -103 -13z"/>
<path d="M1090 3270 c0 -20 4 -20 283 -18 243 3 282 5 282 18 0 13 -39 15
-282 18 -279 2 -283 2 -283 -18z"/>
<path d="M2255 3239 c-16 -25 18 -29 191 -27 151 3 179 5 179 18 0 13 -28 15
-182 18 -125 2 -184 -1 -188 -9z"/>
<path d="M1437 3199 c-21 -5 -50 -15 -66 -24 -43 -22 -106 -98 -126 -152 -10
-27 -23 -61 -31 -78 -65 -151 -79 -198 -60 -214 16 -14 46 -4 46 15 0 7 10 38
23 69 16 41 26 53 37 49 96 -43 257 -68 290 -45 25 17 0 29 -85 40 -106 15
-148 24 -152 36 -3 11 48 42 226 135 106 55 127 70 138 98 12 30 12 34 -11 57
-23 23 -32 25 -108 24 -46 -1 -100 -5 -121 -10z m171 -35 c39 -11 24 -30 -50
-69 -40 -21 -116 -62 -169 -91 -54 -30 -100 -54 -103 -54 -4 0 5 22 19 50 14
27 25 55 25 63 0 16 45 59 80 78 14 7 57 16 95 19 39 4 72 8 75 8 3 1 15 -1
28 -4z"/>
<path d="M3515 3204 c-11 -3 -60 -8 -110 -12 -70 -5 -90 -10 -90 -22 0 -13 29
-14 225 -10 365 8 1148 6 1238 -4 79 -8 82 -8 82 12 0 11 -8 24 -17 28 -18 9
-1289 16 -1328 8z"/>
<path d="M2198 3089 c-6 -4 -8 -14 -5 -23 6 -14 33 -16 220 -16 176 0 217 3
227 15 10 12 8 15 -12 19 -35 8 -418 12 -430 5z"/>
<path d="M4383 3019 c-24 -7 -33 -15 -33 -30 0 -19 4 -21 43 -15 33 5 47 3 56
-8 20 -24 4 -53 -67 -112 -96 -80 -116 -132 -60 -153 34 -13 321 -23 337 -12
10 6 5 11 -20 19 -45 14 -178 32 -240 32 -27 0 -49 3 -49 7 0 4 36 41 80 83
69 64 80 80 80 108 0 46 -14 68 -51 81 -36 12 -33 12 -76 0z"/>
<path d="M4055 2961 c-43 -11 -112 -57 -120 -81 -3 -11 -4 -28 -1 -38 5 -15
-4 -21 -47 -35 -30 -9 -63 -17 -75 -17 -15 0 -22 -6 -22 -20 0 -28 57 -27 148
4 57 20 74 22 87 12 15 -11 7 -20 -66 -82 -120 -101 -145 -142 -110 -185 18
-23 25 -24 135 -24 93 0 118 3 132 16 15 15 7 17 -105 24 -67 4 -121 11 -121
15 0 25 22 49 109 122 53 44 100 87 104 94 5 8 0 21 -11 32 -19 19 -18 20 48
52 70 34 94 58 83 85 -12 32 -92 44 -168 26z m75 -62 c-38 -23 -104 -49 -126
-49 -8 0 -14 6 -14 13 0 22 81 57 130 57 l45 0 -35 -21z"/>
<path d="M1780 2864 c-58 -19 -90 -39 -88 -53 3 -11 13 -15 36 -13 18 1 32 -2
32 -7 0 -4 -14 -39 -32 -77 -24 -54 -31 -84 -32 -134 -1 -60 1 -65 22 -68 20
-3 22 1 22 38 0 64 40 170 101 267 22 36 -12 62 -61 47z"/>
<path d="M4337 1943 c-20 -19 -5 -33 36 -33 94 0 175 -43 176 -92 1 -20 -18
-49 -73 -110 -40 -46 -78 -93 -85 -105 -33 -63 4 -90 151 -106 84 -9 101 -8
109 4 19 31 10 39 -48 40 -73 0 -151 13 -164 26 -7 7 17 40 71 101 87 99 104
130 95 172 -8 34 -69 85 -121 99 -43 12 -137 15 -147 4z"/>
<path d="M7715 1885 c-5 -2 -22 -6 -37 -9 -20 -5 -28 -13 -28 -27 0 -20 4 -21
54 -15 32 4 57 3 60 -2 6 -10 -48 -62 -64 -62 -21 0 -70 -53 -70 -76 0 -30 21
-41 150 -76 120 -32 150 -34 150 -13 0 19 -22 30 -100 50 -36 9 -82 21 -102
26 -21 5 -38 14 -38 19 0 5 17 18 38 29 40 21 102 76 102 91 0 33 -80 79 -115
65z"/>
<path d="M3980 1787 c-84 -31 -107 -43 -120 -67 -15 -28 -12 -47 11 -68 20
-20 20 -20 -30 -32 -37 -9 -67 -9 -120 -1 -91 14 -91 14 -91 -8 0 -41 147 -55
263 -25 57 15 62 14 74 -2 7 -9 10 -20 8 -24 -2 -4 -42 -30 -89 -59 -131 -80
-164 -132 -109 -168 23 -15 49 -18 158 -17 113 0 135 3 172 22 56 29 66 47 22
39 -19 -4 -92 -9 -164 -12 -189 -9 -197 5 -57 91 122 75 138 95 112 145 -9 15
-7 19 5 19 26 0 139 56 168 84 55 54 20 95 -86 103 -48 3 -77 -2 -127 -20z
m174 -42 c-1 -17 -62 -53 -129 -75 -60 -20 -65 -20 -89 -4 -14 9 -26 22 -26
29 0 7 28 24 63 39 47 19 77 25 122 23 33 -1 60 -6 59 -12z"/>
<path d="M12450 1700 c0 -13 13 -26 38 -39 45 -23 109 -90 127 -135 16 -37 35
-168 35 -235 0 -59 -22 -189 -57 -336 -33 -143 -157 -495 -194 -553 -32 -51
-35 -62 -15 -62 22 0 65 40 85 78 27 53 130 343 157 440 13 46 35 143 50 215
23 116 26 148 21 262 -6 162 -22 216 -84 285 -77 86 -163 128 -163 80z"/>
<path d="M11452 1667 c-49 -28 -98 -151 -162 -406 -65 -260 -72 -370 -29 -441
24 -39 81 -65 109 -50 27 14 26 17 -19 40 -53 26 -66 67 -58 179 11 148 121
551 167 611 l20 25 0 -33 c0 -29 3 -33 22 -30 36 5 47 51 21 86 -24 32 -40 36
-71 19z"/>
<path d="M7305 1643 c-29 -7 -55 -33 -55 -55 0 -22 32 -24 50 -3 8 10 30 15
61 15 40 0 51 -4 64 -24 25 -38 1 -71 -111 -151 -153 -110 -178 -138 -154
-175 13 -21 181 -19 233 3 48 21 52 52 5 43 -18 -3 -69 -8 -113 -12 -90 -6
-90 -8 7 62 24 17 69 50 101 73 88 64 113 116 85 176 -21 46 -95 67 -173 48z"/>
<path d="M7041 1577 c-22 -29 -57 -63 -78 -74 -74 -42 -103 -93 -52 -93 10 0
19 -2 19 -4 0 -2 -14 -33 -31 -70 -31 -67 -31 -86 1 -86 13 0 27 20 50 68 38
82 80 150 137 220 46 58 52 76 27 86 -27 10 -32 7 -73 -47z"/>
<path d="M1423 1439 c-90 -17 -179 -72 -208 -129 -19 -36 -35 -109 -28 -126 3
-8 14 -14 24 -14 10 0 19 -2 19 -4 0 -2 -13 -35 -29 -72 -38 -91 -57 -172 -43
-186 20 -20 40 0 52 51 l12 50 36 -23 c33 -20 257 -123 305 -140 23 -7 67 3
67 16 0 5 -12 13 -27 19 -52 18 -280 124 -304 141 -21 14 -22 18 -9 31 8 7 40
24 70 37 173 71 283 139 321 197 35 53 14 114 -51 148 -32 16 -136 19 -207 4z
m217 -79 c28 -52 -64 -122 -294 -224 -64 -28 -76 -31 -76 -16 0 5 23 64 52
130 32 75 59 125 72 132 11 6 57 14 101 17 87 7 126 -3 145 -39z m-375 -106
c-24 -54 -25 -56 -20 -20 6 36 33 91 41 83 2 -2 -7 -30 -21 -63z"/>
<path d="M10270 1295 c-10 -12 -9 -20 4 -40 20 -31 56 -34 56 -5 0 16 7 20 34
20 44 0 60 -20 53 -68 -5 -30 -22 -52 -97 -124 -59 -57 -90 -94 -90 -108 0
-22 1 -22 174 -18 177 3 206 10 206 45 0 12 -9 14 -42 9 -24 -3 -92 -9 -153
-12 l-110 -6 79 81 c79 79 80 81 84 139 4 51 1 63 -17 81 -18 18 -33 21 -95
21 -53 0 -77 -4 -86 -15z"/>
<path d="M11676 1280 c-19 -17 -53 -68 -77 -117 -39 -78 -43 -96 -47 -175 -4
-86 -4 -87 26 -117 28 -29 35 -31 109 -31 43 0 88 0 100 -1 12 -1 36 9 53 21
21 15 34 19 43 12 7 -6 28 -13 48 -17 43 -8 111 21 155 65 25 25 32 27 49 16
56 -35 101 -24 176 42 l46 41 22 -30 c20 -26 28 -30 63 -27 52 4 59 20 15 36
-34 12 -57 46 -57 82 0 24 -27 51 -45 44 -8 -3 -17 -15 -21 -27 -7 -23 -89
-114 -116 -128 -33 -18 -58 6 -58 55 0 78 -50 86 -64 10 -9 -44 -54 -96 -105
-119 -61 -27 -74 -17 -66 50 7 54 7 55 -19 55 -20 0 -27 -6 -32 -27 -4 -16
-14 -38 -22 -51 -17 -27 -71 -67 -79 -59 -3 4 12 32 32 63 97 145 107 287 26
341 -51 34 -111 31 -155 -7z m115 -27 c36 -21 44 -48 35 -116 -6 -58 -56 -164
-92 -198 l-23 -22 -31 64 c-46 98 -38 188 24 254 38 40 47 42 87 18z m-145
-361 c-28 -5 -46 25 -46 77 l1 46 32 -60 c30 -56 31 -60 13 -63z"/>
<path d="M10834 1293 c-61 -11 -143 -153 -147 -252 -2 -50 2 -64 20 -82 28
-29 105 -36 154 -15 61 26 127 126 129 194 0 35 -39 119 -64 135 -26 17 -64
25 -92 20z m74 -83 c31 -46 27 -109 -12 -167 -31 -47 -68 -66 -117 -61 -34 3
-34 3 -33 64 1 48 7 72 29 110 59 103 91 116 133 54z"/>
<path d="M9590 1171 c0 -11 5 -23 11 -27 17 -10 252 -25 261 -16 21 21 -16 35
-133 48 -68 7 -127 14 -131 14 -5 0 -8 -9 -8 -19z"/>
<path d="M5472 1158 c-40 -8 -52 -15 -50 -27 3 -14 19 -15 115 -12 90 3 122 0
162 -15 28 -10 54 -14 58 -10 11 11 -11 39 -43 55 -36 18 -172 23 -242 9z"/>
<path d="M8359 1161 c-19 -13 -300 -31 -474 -31 -71 0 -346 -12 -610 -26 -264
-15 -549 -29 -632 -31 -142 -4 -153 -6 -153 -24 0 -18 9 -19 138 -19 75 0 214
5 307 10 336 20 565 31 870 40 171 5 411 14 535 20 154 6 249 6 300 -1 41 -5
170 -9 285 -7 179 3 210 5 210 18 0 13 -34 16 -220 22 -121 4 -251 12 -290 17
-112 17 -248 23 -266 12z"/>
<path d="M2225 1080 c-4 -6 -3 -15 1 -20 12 -10 358 -20 374 -10 9 6 7 11 -11
21 -32 19 -353 26 -364 9z"/>
<path d="M4045 1070 c-889 -4 -1010 -7 -1010 -20 0 -13 123 -15 1038 -18 1032
-2 1037 -2 1037 18 0 11 -6 20 -14 20 -8 0 -20 1 -28 3 -7 1 -467 0 -1023 -3z"/>
<path d="M5647 1004 c-4 -4 -64 -8 -134 -9 -126 -2 -128 -2 -131 -25 l-4 -23
212 7 c203 7 293 20 291 41 -1 11 -223 20 -234 9z"/>
<path d="M9574 967 c-12 -33 6 -37 161 -37 161 0 185 3 185 26 0 11 -28 14
-147 14 -82 0 -158 3 -170 6 -16 4 -25 1 -29 -9z"/>
<path d="M3900 933 c-38 -43 -74 -118 -66 -139 11 -28 44 -16 56 21 7 20 27
56 46 81 19 24 34 51 34 59 0 27 -37 16 -70 -22z"/>
<path d="M2455 938 c-210 -26 -207 -25 -203 -46 6 -27 122 -21 352 19 67 12
108 28 100 40 -7 13 -66 9 -249 -13z"/>
<path d="M4780 899 c-68 -21 -98 -54 -154 -172 -91 -192 -144 -341 -132 -373
8 -21 39 -17 54 6 7 11 22 46 34 78 11 31 29 75 39 98 10 22 23 61 29 86 l12
45 111 6 c109 5 166 18 235 54 37 20 46 41 37 89 -10 54 -66 86 -158 90 -40 2
-88 -1 -107 -7z m181 -56 c66 -39 41 -80 -66 -107 -67 -17 -185 -26 -185 -15
0 4 -7 9 -15 11 -23 5 36 91 76 111 46 23 152 22 190 0z"/>
<path d="M3384 881 c-96 -25 -157 -92 -158 -175 -1 -35 2 -41 21 -44 22 -3 26
4 37 69 12 69 84 109 196 109 85 0 153 -15 175 -40 14 -16 14 -19 -12 -35 -36
-24 -205 -40 -245 -24 -34 14 -58 6 -58 -20 0 -27 18 -31 128 -31 117 1 176
13 219 46 61 46 38 100 -57 133 -43 15 -204 23 -246 12z"/>
<path d="M8220 808 c-18 -35 -41 -78 -52 -95 -11 -18 -18 -43 -16 -55 3 -22 7
-23 86 -21 74 1 83 0 77 -15 -48 -124 -54 -177 -21 -177 26 0 129 301 107 314
-22 14 -36 4 -50 -34 -10 -28 -18 -35 -39 -35 -15 0 -43 -4 -61 -10 -19 -5
-36 -8 -38 -7 -1 2 17 41 41 87 45 85 48 110 16 110 -12 0 -29 -21 -50 -62z"/>
<path d="M7039 799 c-46 -28 -99 -60 -117 -71 -34 -21 -40 -50 -12 -56 9 -1
42 15 75 37 33 21 61 35 63 31 2 -5 -9 -27 -23 -49 -15 -22 -29 -58 -32 -80
-5 -37 -4 -41 16 -41 12 0 24 8 28 18 20 57 45 100 107 190 30 44 29 72 -2 72
-10 0 -57 -23 -103 -51z"/>
<path d="M7492 837 c-32 -18 -74 -72 -115 -148 -61 -111 -62 -180 -2 -205 58
-24 112 -18 146 15 55 55 25 113 -67 127 -24 3 -44 9 -44 13 0 3 13 29 29 56
35 59 76 105 95 105 19 0 27 25 13 39 -14 14 -26 14 -55 -2z m-11 -267 c15 -9
17 -15 9 -30 -15 -28 -85 -28 -100 -1 -8 16 -6 22 7 30 23 13 59 14 84 1z"/>
<path d="M1878 816 c-58 -21 -128 -65 -128 -82 0 -23 28 -28 56 -9 15 9 24 13
22 8 -2 -4 -19 -38 -36 -75 -40 -80 -46 -123 -18 -123 21 0 20 -1 72 113 28
62 50 94 82 122 64 54 38 77 -50 46z"/>
<path d="M6548 820 c-19 -12 -25 -50 -8 -50 5 0 42 5 82 11 77 11 128 2 128
-23 0 -14 -115 -91 -195 -131 -61 -30 -90 -60 -81 -83 6 -15 20 -16 121 -12
114 5 165 21 165 50 0 11 -10 10 -150 -7 -52 -7 -51 -6 62 61 105 62 142 97
133 126 -16 52 -39 63 -143 66 -56 1 -104 -2 -114 -8z"/>
<path d="M8044 813 c-16 -46 -56 -151 -71 -183 -31 -69 -62 -171 -56 -186 7
-18 33 -15 44 6 30 60 130 334 127 352 -4 28 -36 36 -44 11z"/>
<path d="M8621 748 c-4 -13 -11 -53 -15 -89 -7 -78 4 -95 56 -85 l33 6 -4 -46
c-2 -25 1 -50 6 -55 19 -19 40 2 46 46 4 25 11 53 16 62 22 40 51 108 51 120
0 35 -32 22 -87 -33 l-57 -59 -4 33 c-2 19 1 47 7 63 6 16 8 36 5 44 -9 23
-43 18 -53 -7z"/>
<path d="M4118 673 c-80 -3 -88 -6 -88 -23 0 -19 7 -20 103 -19 102 1 179 15
178 34 -1 11 -58 13 -193 8z"/>
<path d="M3243 603 c-45 -70 -87 -169 -79 -189 9 -25 32 -4 54 49 12 29 40 81
61 117 22 36 37 68 35 72 -13 20 -38 3 -71 -49z"/>
<path d="M7655 647 c-31 -24 -9 -34 80 -39 84 -5 115 -2 115 11 0 30 -162 52
-195 28z"/>
<path d="M7172 623 c-43 -64 -52 -123 -18 -123 18 0 81 124 71 139 -11 19 -33
12 -53 -16z"/>
<path d="M8439 563 c-26 -69 -47 -146 -42 -159 3 -8 13 -14 23 -14 14 0 25 21
47 88 17 48 28 93 26 100 -8 23 -43 13 -54 -15z"/>
</g>
</svg>
