<svg height="1492.888354pt" preserveAspectRatio="xMidYMid meet" viewBox="0 0 1420.648696 1492.888354" width="1420.648696pt" xmlns="http://www.w3.org/2000/svg"><g transform="matrix(.1 0 0 -.1 -28 1512.993575)"><path d="m1645 15088c-82-68-145-131-145-145 0-27 31-26 61 3s39 23 15-11c-7-11-23-51-34-89-16-51-19-73-11-88 16-29 34-8 60 70 23 69 82 183 126 240 27 35 25 62-4 62-10 0-40-19-68-42z"/><path d="m1955 15029c-49-38-109-84-132-101-70-52-50-92 23-47 19 11 34 19 34 16s-11-35-25-71c-27-73-31-101-14-112 17-10 34 15 59 81 25 71 67 138 132 214 26 31 48 61 48 67 0 9-24 26-33 24-1-1-42-32-92-71z"/><path d="m1016 15045c-8-9-23-40-32-70l-18-55h-103c-96 0-103-1-103-20 0-18 8-20 98-22l98-3-8-34-9-33-80 6c-67 6-79 5-79-8 0-21 25-32 90-40l56-7-4-69c-4-66-3-70 17-70 25 0 27 5 36 83l6 57h45c48 0 50-3 32-62-13-45 0-71 25-49 15 12 51 119 62 184 3 21 11 40 18 42s25 6 40 10c24 5 27 8 17 20-7 8-21 15-32 15-16 0-19 6-16 48 3 41 1 47-17 47-15 0-23-11-33-47-13-48-13-48-57-48h-45l21 55c27 73 14 109-25 70zm78-192c-11-50-13-53-48-53-41 0-50 10-41 50 6 28 10 30 51 30 43 0 44-1 38-27z"/><path d="m2314 15045c-66-34-172-181-187-263-13-68 37-134 116-152 52-11 83-7 139 21 70 36 87 88 41 131-59 56-160 66-212 22-38-31-38-24-3 43 31 59 126 162 151 164 9 1 25 2 36 3 13 0 20 8 20 21 0 26-57 32-101 10zm15-265c77-22 84-62 17-94-39-18-73-20-110-6-23 8-24 12-16 42 10 33 42 68 64 68 6 0 26-4 45-10z"/><path d="m2791 14920c-82-20-181-134-181-210 0-116 129-177 248-116 86 44 132 114 132 199 0 90-97 152-199 127zm106-60c39-23 48-53 33-108-15-56-50-95-110-121-56-24-91-21-127 12-48 43-33 116 39 183 63 59 109 69 165 34z"/><path d="m280 14441c0-16 10-19 78-24 136-9 385-37 396-45 26-17 2598-31 3229-18 414 9 427 10 427 29s-8 19-472 12c-696-11-909-10-2048 3-819 9-1061 15-1160 27-193 24-309 34-382 35-60 0-68-2-68-19z"/><path d="m12725 14350c-16-4-55-8-85-9-71-1-95-18-126-89-30-67-114-315-114-335 0-30 29-35 223-39 160-4 197-2 197 9 0 25-50 33-206 33-85 0-154 1-154 3 0 1 13 36 28 77 28 75 28 75 72 82 25 3 85 9 133 13 75 6 88 9 85 23-3 15-19 17-116 16-61 0-112 2-112 5 1 3 7 17 15 31 9 16 10 29 4 37-7 7-5 24 5 47 8 20 16 36 18 37 53 8 273 26 287 22 24-6 36 13 21 32-14 16-120 19-175 5z"/><path d="m4236 14233c-14-155-27-699-21-953 3-157 12-571 20-920s15-983 15-1409v-773l-287 6c-287 7-538 17-853 37-91 5-619 14-1175 19-555 4-1021 11-1035 14-14 4-99 11-190 16-91 6-192 14-225 19-60 10-90 2-69-18 16-17 166-43 304-53 74-5 578-13 1120-17 542-5 1065-13 1163-20 454-29 555-33 890-38l357-6v-311c0-458 32-1686 47-1778 3-21 11-38 17-38 35 1 36 8 21 335-10 224-18 796-24 1900-6 869-16 1787-23 2040s-13 808-13 1232c0 713-1 773-17 773-12 0-17-13-22-57z"/><path d="m12089 14197c-65-34-108-122-81-164 21-33 93-34 151-4 14 8 22 9 20 3s-29-69-59-140l-55-130-120-4c-119-4-170-17-162-41 4-14 22-14 164-3l102 8-15-53c-7-30-14-69-14-86 0-28 3-33 25-33 31 0 45 25 43 82 0 25 5 54 11 66 12 22 12 22 784 21 572 0 782-4 812-13l40-12-62-38c-41-25-63-45-63-57 0-26 25-24 79 7 57 33 91 63 91 81 0 7 9 13 20 13 13 0 20 7 20 20 0 11-7 20-15 20s-34 20-59 44c-28 29-57 47-79 51-86 16-117-19-45-51 43-19 43-19-344-22-214-1-561-1-772 0l-383 3 57 130c32 72 72 158 89 193 41 82 40 93-9 115-56 24-118 22-171-6zm141-36c0-5-20-26-43-48-47-44-112-72-128-56-15 15 18 76 50 96 27 17 121 24 121 8z"/><path d="m14425 13948c-37-20-76-62-127-135-28-40-53-73-57-73-9 0-48 60-61 94-7 21-7 32 1 42 26 31-20 61-49 32-28-28-3-118 51-183l25-30-42-50c-22-27-72-82-110-122-57-61-65-73-47-73 38 0 64 19 153 113 82 87 87 91 105 75 34-30 144-71 169-61 30 11 11 31-56 58-111 45-112 47-39 149 62 87 101 126 125 126 20 0 27 19 14 35-15 18-28 18-55 3z"/><path d="m9415 13880c-83-41-121-69-150-109-27-39-30-50-33-145-5-118 0-133 60-176 33-24 51-30 92-30h51l2-182c0-101 3-318 5-483 1-165-1-358-6-430-8-120-10-128-23-107-37 54-76 5-54-68 6-20 11-49 11-62 0-14 13-39 31-57 42-45 73-39 116 19 18 25 40 53 49 62 19 20 12 48-11 48-9 0-28-12-42-26l-26-26 8 214c11 297 11 416 2 621l-7 177h30c75 0 240 77 283 131l23 29 63-72c83-94 173-159 621-447 65-42 150-110 225-180 66-63 163-149 215-192 160-133 205-171 208-178 1-4-32-41-73-83-49-50-73-81-69-91 3-10 25-18 57-22 29-4 104-23 167-41 76-23 136-34 177-34 51 0 61-3 57-15-4-10 3-18 21-25 33-13 102-13 110-1 7 12-26 31-57 32-16 1-18 3-6 6 9 2 20 13 23 23s15 20 25 23c18 5 20 14 20 84 0 43 4 94 10 113 15 55 17 192 3 197-18 6-33-30-40-98l-6-62-36 105c-44 127-63 158-96 158-20 0-27-6-31-30-4-16-9-30-13-30-3 0-24-16-46-35s-43-34-47-32c-13 4-114 105-166 165-38 44-48 62-37 62 13 0 16 6 12 27-11 59 168 183 265 183 30 0 103-18 178-45 21-7 34-17 32-26-6-23 9-154 19-169 8-13 10-13 18 0 14 21 23 149 13 190-7 32-13 37-62 52-187 59-220 60-330 10-76-35-142-89-180-149l-27-42-71 62c-39 34-97 81-129 104s-97 74-144 115c-113 96-176 145-276 215-44 32-131 99-193 148-185 149-312 247-403 310-53 37-85 65-82 73s5 25 5 39v24l688-5c378-3 778-8 890-12l203-6-41-29c-30-22-40-36-38-51 4-31 21-32 53-2 16 15 57 39 92 55 84 38 86 61 6 84-73 21-129 50-136 70-8 19-31 19-46 1-16-19 0-50 37-71 26-15 24-15-38-10-36 2-426 7-867 11l-803 6v32c0 41-20 68-74 100-39 23-56 26-133 26-67 0-98-5-128-20zm234-51c35-19 41-28 41-55 0-31-2-33-42-36-34-2-43-7-42-20 1-14-6-18-37-18h-38l-3 53c-3 48-5 52-28 52s-25-4-28-54l-3-54-47 6c-26 4-57 9-69 13-16 4-25 1-30-11-10-28 24-45 89-45h58v-40c0-50 25-113 42-108 9 3 14 30 16 76l3 72h59c46 0 58-3 54-14-3-7 2-20 10-29 22-22 20-41-9-75-19-22-31-28-50-24-20 3-27 0-32-16-12-46-165-56-235-15-33 19-33 19-36 121-3 109 8 143 52 163 49 23 76 41 76 50 0 5 15 17 33 25 46 21 144 13 196-17zm41-153c0-19-4-23-20-19-11 3-20 14-20 24 0 12 7 19 20 19 14 0 20-7 20-24zm246-253c62-45 134-102 160-126 60-53 251-201 319-247 58-39 149-111 290-229 55-47 118-96 140-110 52-33 174-141 234-206 25-27 79-82 120-123l74-73-33-34-33-34-57 47c-147 121-295 249-399 346-66 62-157 133-213 169-111 70-378 245-453 298-75 52-132 106-203 194-55 69-165 175-182 175-3 0-11 4-19 9-12 8-9 15 12 41 15 17 27 38 27 47 0 16 17 5 216-144zm-260 1c21-14 58-44 80-66l42-40-40-39c-61-59-236-135-259-112-4 4-9 63-11 131-3 122-3 122 22 123 14 0 41 6 60 13 51 20 63 19 106-10zm1763-1081c10-26 41-141 56-208l7-30-32 30c-17 17-53 60-80 96l-48 66 36 36c21 20 40 36 43 37 4 0 12-12 18-27zm-94-140c22-31 68-87 103-124 34-36 62-74 62-83 0-27-18-18-43 22-29 44-93 105-162 151-27 19-52 36-54 38-5 4 40 53 48 53 3-1 24-26 46-57zm-58-82c62-44 133-116 133-136 0-10-63 2-135 26-33 11-88 27-123 37l-62 17 50 53c28 28 54 52 59 52 4 0 39-22 78-49z"/><path d="m6395 13824c-22-8-44-19-49-24-14-14-46-120-46-152 0-16-5-28-11-28s-9-8-6-19c7-30-14-132-29-138-20-7-17-31 5-43 37-19 255-7 374 22 85 20-6 42-122 28-42-4-101-11-132-14l-55-6 10 65 9 64 76 3c60 2 76 6 76 18s-16 16-73 18c-63 3-72 5-68 20 2 9 10 43 17 74 11 53 15 58 48 69 19 7 66 12 103 13 68 0 81 9 56 34-17 17-134 14-183-4z"/><path d="m614 13606c-3-8-1-23 5-35 6-11 11-77 11-154 0-107 3-137 15-147 21-17 45 4 45 38 0 64 85 220 108 198 4-4 9-40 12-79 5-68 6-72 29-72 19 0 27 7 33 30 10 41 81 110 104 101 15-6 16-19 11-122-6-113-6-115 15-112 31 5 50 75 43 163-8 94-11 101-45 115-35 15-87 1-114-32-18-21-18-21-31 8-28 68-75 69-137 2l-38-41v54c0 57-19 99-46 99-8 0-17-6-20-14z"/><path d="m2645 13562c-70-24-75-39-72-207 2-140 2-140 27-140 24 0 25 3 34 95 5 52 9 118 9 147 0 47 3 53 26 62 14 5 64 11 111 13l85 3v-49c0-55 15-69 39-34 18 26 21 80 6 109-10 17-22 19-113 19-69-1-118-6-152-18z"/><path d="m11614 13554c-8-33 6-96 23-102 16-4 30 30 34 83 4 37 2 40-23 43-22 3-29-2-34-24z"/><path d="m2076 13508c-3-7-7-68-10-134-6-106-4-122 10-128 21-8 58 2 118 30 27 13 51 22 53 20 3-2-4-27-14-55-13-39-15-55-7-69 17-27 49-22 50 8 2 31 65 214 76 218 15 7 8 41-10 51-24 13-37 3-51-41-11-32-21-41-94-76-45-22-83-38-85-37-2 2 1 20 7 42 15 51 14 156-1 171-16 16-38 15-42 0z"/><path d="m1639 13487c-67-45-72-176-9-228 47-40 77-42 138-11 59 29 95 78 107 145 6 32 4 42-16 64-53 57-159 71-220 30zm159-43c43-28 16-114-50-154-43-26-54-25-83 5-42 41-30 139 19 164 25 12 82 5 114-15z"/><path d="m1200 13487c-30-8-46-18-48-31-4-17 1-18 54-13 33 4 103 9 157 13 68 5 97 11 97 19 0 7-7 16-16 19-26 10-196 5-244-7z"/><path d="m1250 13364c-63-17-75-26-66-49 4-13 12-15 29-10 36 11 107 24 182 32 52 6 70 12 70 23 0 21-142 24-215 4z"/><path d="m6425 13290c-14-22 61-86 123-105 12-3 22-11 22-17 0-17-803-3-950 17-63 9-120 13-127 11-11-4-20-35-10-36 1 0 40-8 87-16 68-13 184-17 567-21l483-5-48-31c-48-33-67-67-37-67 22 0 137 65 160 90 17 18 32 20 179 21 89 1 224 4 301 8 134 6 140 7 143 28 4 24-31 41-51 25-8-7-124-11-297-13-269-2-287-1-325 18-22 11-57 26-77 32-21 7-51 26-69 42-31 29-63 37-74 19z"/><path d="m1895 13248c-13-35-48-176-49-198-1-19 4-25 19-25 16 0 25 14 42 70 13 39 26 91 29 118 6 43 5 47-15 47-12 0-24-6-26-12z"/><path d="m11579 13148c-8-14-10-50-6-101 5-81 18-110 38-90 13 13 24 151 15 187-8 32-31 34-47 4z"/><path d="m9914 12963c-3-10-18-49-33-88-24-62-31-70-52-68-99 11-144-6-163-59-13-36 1-96 29-124 20-20 28-22 57-14 31 9 83 55 104 93 9 15 14 14 60-8 28-14 78-27 110-31 54-6 58-5 44 9-8 9-46 29-84 45-38 15-74 35-80 44-7 12-2 34 23 87 35 76 38 124 8 129-10 2-19-4-23-15zm-109-207c17-12 16-16-25-60-24-26-47-43-51-39s-10 22-14 40c-11 55 45 92 90 59z"/><path d="m1829 12411c-23-24-29-38-29-75 0-25 5-57 12-71 10-23 7-28-46-78-62-56-80-105-54-140 29-39 163-33 204 8 31 31 30 66-1 133l-24 52 42 27c76 47 117 84 117 105 0 16-5 19-25 16-15-3-25-1-25 6 0 20-56 46-100 46-33 0-48-6-71-29zm113-26c3-3 3-17 0-31-5-30-73-78-84-60-12 17-9 71 4 84 12 12 70 17 80 7zm-68-235c24-61 12-77-64-82-71-4-73 24-6 84 22 21 44 38 47 38 4 0 14-18 23-40z"/><path d="m8174 12396c-3-8-2-21 3-28 4-7 10-80 13-163 5-149 5-150 28-150 20 0 28 12 53 75 35 89 73 138 93 121 21-17 28-73 15-111-10-28-10-35 5-46 26-18 42-8 54 34 19 63 101 132 138 118 6-2 22-34 34-70 47-141 169-176 265-76 16 17 32 30 35 30 4 0 10-26 13-57 3-32 9-67 12-78 5-17-2-24-37-42-69-33-145-100-167-146-43-89-18-179 61-222 33-18 41-18 85-7 56 15 89 43 111 92 20 45 18 254-4 356-10 50-13 108-9 197 5 126 5 126-22 146-47 38-106 26-164-33-73-74-82-179-18-212 35-17 30-34-10-34-45 0-77 33-101 105-37 110-93 130-187 65l-41-28-12 29c-26 61-78 65-129 9-20-22-40-40-44-40s-7 28-8 63c-1 84-10 111-37 115-13 2-25-3-28-12zm756-75c0-26-32-107-55-136-30-40-43-43-75-17-19 16-22 24-16 55 8 40 57 104 90 117 21 8 56-4 56-19zm18-515c-3-98-6-119-24-143-44-59-120-53-150 11-32 66 3 137 106 212 71 52 72 51 68-80z"/><path d="m2737 12393c-2-5-11-37-20-73-41-164-57-236-58-259-2-25-2-25-6-3-3 16-10 21-21 18-80-25-141-35-174-30-21 4-40 9-42 13-7 11 22 71 34 71 7 0 25 9 42 21 21 16 28 28 26 47-7 56-73 55-103-2-16-29-27-37-68-46-62-13-97-13-97 1 0 6 8 42 17 80 17 72 12 96-19 84-16-6-33-53-44-122-6-38-9-42-29-37-37 9-44-13-29-101 7-44 13-81 13-83 1-2 11-2 23 0 22 3 38 34 52 101 6 25 10 27 55 27 27 0 56 3 65 6 12 5 14-1 10-28-9-56 12-72 98-76 54-3 88 1 131 16l57 19-6-36c-4-20-6-38-6-41 0-23 5-30 23-30 15 0 25 11 36 39 15 38 15 38 45 24 42-21 204-14 242 10 31 21 31 21 7-27-23-44-18-66 14-66 18 0 29 15 60 78 21 42 40 79 42 81 2 3 11-6 20-20 38-54 107-119 137-129 24-7 41-8 61 0 33 12 26 23-28 40-26 8-53 30-87 71-28 33-50 66-50 74 0 18-57 58-74 52-7-3-16-17-20-31-11-46-39-81-66-82-14-1-49-7-79-13-59-12-152-5-163 13-16 25 30 71 170 170 48 34 88 69 90 79 11 54-93 14-212-81-44-36-76-56-72-45 4 10 14 50 21 88 8 39 18 82 24 97 7 18 6 29-2 37-13 13-34 15-40 4z"/><path d="m710 12302c-26-27-59-73-74-103-31-64-45-173-27-207 17-32 71-29 112 5l32 27-7-49c-4-28-19-108-33-180-15-74-26-169-27-220-1-84 0-90 20-93 27-4 50 24 58 71 7 40 1 47-19 20-18-24-11 44 20 197 13 63 28 158 35 210s17 118 22 145c28 148 30 176 13 201-27 41-70 33-125-24zm80-16c0-8-3-17-8-20-4-2-16-36-27-75-10-39-23-71-27-71s-8-9-8-21c0-27-37-79-56-79-17 0-17 13-3 82 19 94 129 250 129 184z"/><path d="m1173 12244c-7-3-13-13-13-23 0-15 14-17 128-19 70-1 139-4 155-8 30-6 38 14 13 35-15 13-261 26-283 15z"/><path d="m1285 12113c-11-2-30-6-42-9-23-4-31-28-14-38 9-6 214 11 244 20 14 5 16 9 6 20-8 10-34 14-93 13-44-1-90-3-101-6z"/><path d="m9396 11945c-3-9-6-209-7-443-1-354-3-420-13-387-14 43-48 60-60 30-6-17 26-128 51-177 18-37 64-39 87-3 9 13 44 48 78 76 35 29 69 60 76 71 12 16 10 18-17 18-19 0-47-14-80-40-28-22-53-40-56-40s-5 187-5 415v415h124c138 0 163 5 145 26-9 11-43 14-139 14-116 0-128 2-126 18 2 23-49 30-58 7z"/><path d="m11123 11919c-74-11-113-24-113-39 0-20 27-21 122-6 109 18 152 32 143 46-7 12-65 11-152-1z"/><path d="m9895 11890c-3-5-3-14 0-20 9-14 251-13 278 2 21 11 21 11 2 19-30 11-273 11-280-1z"/><path d="m10455 11890c-15-25 13-30 158-30 150 0 199 9 167 30-20 13-317 13-325 0z"/><path d="m11701 11806c-8-9-11-59-9-152 3-136 4-139 26-142 14-2 24 3 28 15 9 29 44 124 61 165 9 20 26 47 39 59l23 22 12-26c9-20 9-36 0-69-24-83-24-88-7-94 10-4 36 12 73 44 67 56 133 102 149 102 10 0 26-58 39-143 21-136 229-171 335-56l29 32 12-26c7-16 30-34 63-48 48-20 56-21 131-10 75 12 146 39 160 61 9 14-16 13-126-6-152-27-182-10-194 107-6 62-12 77-37 102-25 26-34 29-73 25-24-3-58-16-75-28-31-22-80-108-80-141 0-22 38-69 56-69 8 0 14-5 14-11 0-8-19-10-57-7-68 6-98 33-107 100-11 74-28 132-45 151-26 30-111 4-177-55-21-19-21-19-27 29-11 104-106 106-166 3l-21-35v46c0 59-24 86-49 55zm779-106c19-35-14-101-60-120-40-17-74-10-78 17-5 34 33 98 69 116 36 17 55 13 69-13z"/><path d="m9936 11358c-28-63-133-198-154-198-12 0-14 14-8 94 5 67 4 96-4 101-24 15-41-22-49-101-9-92 1-132 35-140 45-11 73 5 131 76 31 38 59 68 61 66s12-46 23-97c11-52 22-101 24-109 4-11-12-24-52-43-74-34-167-103-188-140-12-20-15-39-10-65 15-82 60-108 153-86 99 22 162 112 162 231 0 30 7 68 16 84 15 30 15 31-4 24-14-4-22-1-26 12-16 52-36 186-36 245 0 79-6 98-31 98-14 0-26-16-43-52zm66-456c-18-86-62-135-133-147-45-8-69 13-69 59 0 36 23 61 102 115 98 66 118 60 100-27z"/><path d="m935 11228c-2-7-9-31-15-53-7-22-30-80-53-128-39-84-42-88-66-80-44 13-124 8-161-10-48-24-90-82-90-124 0-38 37-83 68-83 45 0 114 35 169 85l60 54 69-38c39-21 93-44 121-51 96-25 109 13 14 45-26 8-77 31-114 51l-67 35 32 62c17 34 43 98 59 142 27 81 26 105-8 105-7 0-15-6-18-12zm-155-308c28-19-102-120-155-120-10 0-15 10-15 33 0 33 34 77 70 90 25 9 84 7 100-3z"/><path d="m1956 11138c-26-40-116-249-116-269 0-29 25-34 91-15 95 26 96 25 50-58-23-40-41-81-41-90 0-28 41-15 60 19 87 152 105 182 122 193 15 11 16 17 7 28s-9 14 0 14c7 0 11 10 9 23-2 15-11 23-30 25-22 3-27-2-33-27-3-16-12-34-18-40-13-10-157-51-157-44 0 2 9 22 21 45 51 101 86 197 76 207-16 16-25 14-41-11z"/><path d="m2812 11128c-21-27-42-78-42-103 0-34 38-70 83-79 49-9 101 14 127 56 43 71 12 132-65 127-25-2-47 0-51 4-12 11-41 8-52-5zm129-86c-10-35-49-57-85-48-23 6-27 11-24 38 3 28 8 33 48 43 54 13 71 4 61-33z"/><path d="m2415 11066c-85-27-143-71-132-100 9-24 50-46 118-63 35-8 69-20 74-25 13-12-81-100-136-128-51-27-99-27-99-1 0 11 5 23 10 26 6 3 10 15 10 26 0 28-35 24-59-7-62-79 24-141 135-99 52 20 159 102 186 143 37 57 24 73-92 106-45 13-84 27-87 30s18 17 48 30c41 19 81 27 164 33 88 6 110 11 110 23s-19 15-105 17c-63 1-121-3-145-11z"/><path d="m1271 11061c-8-5-11-16-8-24 4-10 28-16 84-21 43-3 104-9 136-12 47-5 57-4 57 9 0 19-39 34-127 46-87 13-123 14-142 2z"/><path d="m1312 10934c-32-23-2-34 97-34 68 0 103 4 116 14 19 13 18 15-15 20-72 11-182 12-198 0z"/><path d="m10656 9990c-31-10-63-35-77-63-12-20-53-208-77-346-18-109-14-122 47-135 54-12 439 8 454 23 28 28-95 39-253 22-75-8-173-1-187 12-3 4 4 40 18 81l24 73 143 7c175 8 204 13 200 35-4 17-34 18-230 11-43-2-81-1-84 3-3 3 2 26 11 51 20 52 14 81-15 73-24-6-26 10-6 58 22 51 39 56 183 49s195-17 186-40c-7-19 40-19 57 1 37 45-34 74-215 85-77 5-142 9-145 9s-18-5-34-9z"/><path d="m8393 9948c-4-7-6-43-4-80 3-74-14-124-68-200-64-90-63-89-119-77-106 25-224-15-230-77-5-47 30-84 79-84 51 0 142 32 185 65l34 26 55-26c73-35 113-46 142-39 27 7 30 22 6 31-19 6-155 65-162 70-2 1 15 28 39 59 70 93 94 157 92 243-3 86-25 127-49 89zm-198-408c9-14-93-60-132-60-18 0-33 2-33 4s-3 11-6 20c-4 11 4 20 27 31 39 16 135 20 144 5z"/><path d="m5148 9910c-27-20-48-84-48-142 0-18 13-78 29-133 44-154 48-227 17-327-37-120-71-169-185-261-30-24-12-49 28-41 36 7 85-33 102-83 27-84-17-296-95-452-61-122-90-253-84-383 4-109 20-145 87-195 37-29 50-33 102-33 62 0 72 13 19 24-44 8-117 61-136 98-42 82-23 274 42 423 48 109 102 257 115 313 18 84 14 192-11 245-12 26-25 47-29 47-3 1-17 10-30 21-24 20-24 20-3 34 38 27 99 132 127 220 25 78 27 98 22 174-3 50-19 131-37 194-24 83-30 118-25 150 14 81 38 96 89 56 29-23 59-19 54 8-4 24-65 63-98 63-15 0-39-9-52-20z"/><path d="m10180 9882c-43-20-75-51-120-119-93-139-100-234-17-241 33-3 43 3 92 49 30 28 55 47 55 40 0-6-22-78-49-160-61-184-67-213-47-230 21-17 71 10 92 50 18 36 11 48-16 31-11-7-20-9-20-5 0 5 25 87 56 183 88 277 87 270 39 270-16 0-34-14-56-42-17-24-57-67-88-96-56-54-56-54-59-27-8 68 122 255 177 255 34 0 71-37 71-72 0-34 24-55 45-38 29 24 18 69-29 116-35 35-50 44-77 43-19 0-41-3-49-7z"/><path d="m7200 9781c0-20 18-31 50-31 26 0 33 16 14 34-22 23-64 21-64-3z"/><path d="m7505 9768c-21-70-37-209-26-227 17-27 85-7 148 44l58 48 3-64c2-35 8-69 14-76 19-23 55-15 83 19s21 47-14 28c-20-10-21-8-21 38 0 68-10 110-27 116-20 8-68-19-131-72-29-25-55-42-59-39-5 6 0 45 24 170 5 24 2 27-21 27-15 0-28-6-31-12z"/><path d="m9050 9753c-61-9-70-14-70-34s4-20 73-14c77 7 386 9 427 4 19-3 25 0 25 16 0 14-9 22-30 26-32 7-384 9-425 2z"/><path d="m5657 9733c-3-4-8-33-12-63s-18-83-31-117c-34-90-29-143 13-143 16 0 40 55 46 108 3 25 16 58 32 78 32 42 103 78 122 63 18-16 27-96 14-126-10-21-9-29 2-40 18-18 39-9 61 28 22 38 149 124 171 115 23-8 35-50 35-117 0-64 16-115 45-139 11-9 39-15 74-15 64 1 145 39 187 88 14 16 26 28 28 26 1-2 12-20 24-39 34-57 67-82 114-87 33-4 49 0 67 14l24 20-52 6c-29 4-60 12-68 18-29 25-61 96-68 153-8 68-34 101-88 111-48 9-80-14-107-77-32-74-36-113-15-144 21-32 9-44-48-44-46 0-52 12-65 132-11 96-28 134-67 144-36 9-63 0-132-45l-61-39-6 33c-15 78-73 99-155 56l-40-20-3 32c-3 30-29 50-41 30zm753-118c28-34-29-145-74-145-21 0-21 48-1 97 27 64 50 78 75 48z"/><path d="m6815 9718c-29-17-44-40-44-68-1-49 27-68 143-96 108-27 108-27 85-45-13-10-52-28-87-41-52-18-62-26-60-43 4-25 25-24 95 3 89 34 140 81 127 116-6 17-55 35-159 60-82 20-105 36-85 61 10 12 23 15 42 11 91-19 88-19 88 1 0 39-100 67-145 41z"/><path d="m7330 9638c-4-13-29-48-54-78-48-58-76-107-76-135 0-29 42-13 63 25 10 19 46 68 79 108 63 76 68 102 23 102-17 0-28-7-35-22z"/><path d="m9445 9629c-16-5-79-12-140-15-134-6-155-10-155-29 0-22 43-28 149-21 155 11 251 37 251 67 0 12-66 10-105-2z"/><path d="m2750 9486c-78-19-127-42-141-68-13-25-7-110 12-150 8-19 20-28 36-28 27 0 27-6 7 70-8 34-13 68-10 75 11 29 88 57 172 63 77 4 86 3 129-22 51-30 71-62 62-98-7-27-113-106-244-182-101-59-123-82-134-142-7-37-6-53 7-71 23-36 38-23 44 40 3 31 12 63 20 71s62 43 120 78c213 128 260 177 240 248-28 99-173 152-320 116z"/><path d="m1285 9349c-108-19-171-31-189-36-11-3-30-31-48-70-40-90-110-347-112-413-1-52 0-55 24-55 22 0 26 5 32 47 3 27 14 68 23 92 10 25 14 49 10 55-3 6-4 20 0 30 5 17 10 18 37 9 37-13 240-4 283 12 27 10 27 12 12 27s-26 16-94 6c-73-10-112-9-190 3l-32 5 16 51c8 28 25 75 38 103 29 66 30 66 355 103 48 5 65 11 65 22 0 12-17 15-90 17-49 0-112-3-140-8z"/><path d="m2125 8994c-6-2-51-7-100-12-70-5-90-10-90-22 0-13 19-15 122-13 122 2 202 20 188 43-6 10-99 13-120 4z"/><path d="m1016 8824c-9-24-8-31 10-48 20-20 63-20 239-1 195 22 228 28 232 42 8 23-70 26-207 9-170-20-216-21-224-1-7 20-42 19-50-1z"/><path d="m2623 8664c-8-23 7-33 60-40 39-6 48-4 53 11 10 25-21 45-68 45-26 0-41-5-45-16z"/><path d="m8437 8573c-12-11-7-33 7-33 22 0 39-56 32-106-3-24-15-67-27-94l-21-50-41 30c-49 36-91 39-147 10-71-36-105-111-76-168 19-37 44-52 83-52 59 0 108 22 151 67l42 46 78-36c91-41 180-61 230-52 33 6 35 8 19 20-9 7-44 18-78 24-33 7-95 28-138 48l-79 35 26 56c53 114 35 262-31 262-13 0-27-3-30-7zm-73-297 29-24-28-36c-35-46-110-73-137-48-48 41 9 131 82 131 14 0 38-10 54-23z"/><path d="m5858 8533c-20-21-57-81-82-133l-45-95-1 95c0 102-7 124-36 118-17-3-20-18-26-168-4-91-5-171-3-177 2-7 13-13 23-13 26 0 60 54 131 203 55 116 83 158 98 143 4-4 9-60 11-126 6-163 11-166 107-63 66 71 127 115 140 101 3-3 10-40 15-83 11-88 33-134 73-153 46-22 126-26 197-9 36 9 79 19 96 22 16 3 54 26 82 51l52 45 10-26c5-14 10-29 10-33s16-24 36-44c30-33 41-38 79-38 52 0 67 16 28 30-72 26-103 70-103 148 0 68-35 127-80 137-47 10-109-15-159-64-54-54-81-104-81-155v-36h-58c-94 0-116 25-132 154-9 75-31 106-72 106-31 0-90-35-133-79-46-48-53-42-54 49-1 70-27 124-61 128-18 2-35-8-62-35zm808-128c9-24-41-88-100-129-29-20-57-36-64-36-33 0-20 49 30 106 57 65 121 93 134 59z"/><path d="m7870 8459c-39-16-80-60-80-86 0-29 43-71 79-79 14-3 43-10 65-15 35-10 37-12 23-26-16-16-97-55-97-47 0 3 5 15 11 26 8 15-2 10-35-16-50-42-53-48-32-65 28-24 182 41 220 92 30 40 13 58-75 80-41 11-82 26-92 35-18 16-18 18 9 40 23 20 35 23 72 19 24-3 48-10 52-17 11-19 45-7 45 15 0 38-110 67-165 44z"/><path d="m9955 8448c-2-7-5-52-7-99-3-55-10-95-20-110-23-36-39-94-32-113 13-34 46-14 63 39 9 28 32 72 50 98 33 45 96 97 118 97 19 0 22-40 7-96-18-70-18-74 5-74 11 0 46 26 78 58 63 62 157 116 194 110 26-3 29-15 50-163 10-76 16-94 40-117 23-23 36-28 78-28s56 5 85 31l35 30 16-25c20-31 34-87 35-138 0-34-4-40-41-59-175-89-269-190-269-290 0-88 64-138 158-124 38 6 56 16 93 53 54 55 91 156 108 292 7 53 17 90 28 103 17 19 17 19-4 13-22-7-23-5-23 47 0 42-7 69-30 111l-29 57 31 51c19 31 33 68 36 97 3 40 0 52-23 79-33 40-63 41-98 4-45-46-62-149-35-207 10-23 9-29-13-50-31-31-69-40-93-22-18 13-23 35-46 192-20 137-88 151-247 49-49-31-53-32-53-13 0 23-18 60-34 71-23 15-63 7-109-22l-47-30v39c0 22-3 46-6 55-7 19-43 21-49 4zm805-138c0-9-12-40-26-69-23-45-28-51-37-36-12 23-1 102 19 134 16 23 17 24 30 6 8-10 14-26 14-35zm-13-477c-3-10-8-40-12-67-11-83-54-183-91-216-46-40-103-42-133-4-26 33-27 64-2 112 26 50 85 105 162 153 72 44 82 47 76 22z"/><path d="m7187 8429c-34-26-77-108-77-147 0-43 61-92 114-92 14 0 49 9 78 20s54 16 56 10c19-57 111-91 188-70 92 26 165 107 150 166-15 57-165 80-239 37-20-12-44-20-52-17-10 4-34-11-64-39-68-63-145-75-171-26-8 14-5 30 14 66 37 74 88 92 102 38 11-44 54-43 54 1 0 64-94 97-153 53zm445-117c19-19-1-58-42-86-89-59-180-41-180 37 0 24 3 28 12 19 18-18 45-14 51 8 3 11 16 24 29 30 28 12 115 7 130-8z"/><path d="m9385 8350c-27-5-81-13-119-19-76-11-81-13-73-36 8-19 39-19 147 0 47 8 99 15 116 15 16 0 39 7 50 15 16 13 17 16 4 25-17 11-53 11-125 0z"/><path d="m9172 8223c3-16 19-18 131-21 84-2 135 1 149 9 22 12 22 12 3 20-11 4-80 8-153 8-122 1-133-1-130-16z"/><path d="m450 7981c0-12 2-21 4-21s41-8 87-17c93-20 374-22 1274-13 440 4 703-3 1105-31 80-6 352-13 605-16 477-6 664 2 728 32 29 14 10 15-198 10-301-6-894 8-1430 35-384 20-481 21-910 14-580-11-1040-8-1109 5-28 5-75 13-103 16-49 6-53 5-53-14z"/><path d="m8952 7213c-17-17-37-53-47-84-27-91-73-320-68-340 6-21 53-27 53-6 0 6 5 4 11-5 8-14 24-18 77-18 81 0 230 18 251 30 32 18-38 33-114 24-38-4-103-8-143-8-60-1-71 1-66 14 3 8 15 42 26 76l20 61 96 6c97 5 152 18 152 36 0 16-54 20-126 9-104-16-110-11-77 57 19 38 24 58 17 65-15 15-39 3-52-23-7-13-11-16-11-7 0 8 8 31 17 50 22 45 74 57 187 41 112-15 125-15 125 8 0 25-23 31-172 38l-127 6z"/><path d="m8474 7185c-58-24-142-175-128-230 13-53 73-65 126-25l31 23-7-24c-26-94-104-351-109-355-3-3-33-8-66-11-50-5-61-9-61-24s11-18 78-21c42-2 82 0 89 5s180 11 385 14c285 4 381 9 407 19 19 8 31 17 28 21-4 3-185 5-403 4-368-2-396-1-390 14 3 10 23 74 42 144 20 69 45 155 55 191 21 73 24 112 9 141-18 32-37 22-75-41-46-76-85-100-85-51 0 26 46 114 75 144 21 22 33 27 54 23 34-8 106-86 121-132 8-24 17-34 28-32 25 5 26 41 3 85-55 102-136 148-207 118z"/><path d="m6035 7050c-9-14-31-89-80-270-59-214-51-197-78-173-49 45-97 37-97-16 0-39 23-61 98-98 2 0-2-27-8-60-12-66-3-116 24-121 35-7 46 17 46 100 0 69 2 79 16 74s114 13 154 29c13 4 15-2 12-35-2-23 3-58 12-80s16-45 16-50-21-22-47-37c-69-40-162-111-179-139-39-59-22-155 32-191 32-20 101-22 158-3 44 14 102 77 115 127 14 50 14 152 0 192-11 31-9 34 35 78 25 26 46 51 46 56s-25-5-55-22l-55-31-15 36c-18 43-18 48-5 95 6 22 19 40 34 47 36 16 50 47 30 66-23 24-42 20-77-18-23-24-52-39-104-55-88-26-113-27-113-3 0 9 23 100 51 202s57 208 65 235c8 28 14 56 14 63 0 14-36 16-45 2zm149-874c-9-100-49-150-129-161-55-9-81 6-94 51-19 68 24 120 169 205l45 27 8-32c4-17 5-58 1-90z"/><path d="m6860 6995c-6-8-9-18-6-23 3-6-5-72-18-148-23-134-67-268-124-380l-20-39h-80c-75 0-83-2-119-31-33-28-38-36-38-75 0-36 4-46 26-58 38-21 109 1 176 56l54 44 81-41c65-33 88-40 115-35 18 3 33 9 32 13 0 4-44 28-99 55l-98 47 34 75c63 137 92 230 118 384 15 84 24 157 21 162-9 14-41 11-55-6zm-235-660c-65-53-125-70-125-35 0 30 56 60 110 60h45z"/><path d="m7360 6602c0-14 14-20 70-30 125-21 234-12 204 18-9 9-168 29-241 30-25 0-33-4-33-18z"/><path d="m7389 6439c-7-4-9-14-6-23 5-14 27-16 140-16 99 0 138 4 152 14 19 13 18 15-15 20-58 9-259 13-271 5z"/><path d="m8336 6238c-3-13-10-58-16-102-5-43-22-107-36-143-26-64-26-93-1-93 12 0 36 29 119 145 20 28 48 61 63 75l28 25-7-44c-4-25-16-62-28-82-21-38-19-69 5-69 7 0 30 20 51 45 20 25 68 66 104 90l67 45 6-57c4-32 10-66 14-76 8-19 44-40 88-51 31-7 154 30 209 64 18 11 36 20 41 20 4 0 7-45 7-99v-99l-64-46c-126-90-266-269-266-341 0-34 15-62 40-75 26-14 101 18 149 63 74 71 152 209 172 303 12 59 13 61 71 94 33 19 66 43 75 52 15 17 15 18 0 18-9 0-39-9-67-20s-52-20-53-20c-8 0 3 241 12 258 6 11 11 32 11 47 0 20-8 29-36 41-84 35-212-39-230-132-4-21-2-40 6-49 10-12 8-16-15-25-71-27-102-2-111 91-10 101-35 110-138 47-53-32-66-28-66 23 0 30-17 49-43 49-10 0-43-25-73-56s-54-54-54-51 5 29 11 57 8 62 5 76c-8 31-44 33-50 2zm736-74c22-22-50-83-123-104-31-9-34-5-20 33 16 42 121 94 143 71zm-52-445c0-26-58-137-106-202-44-61-124-114-137-92-19 35 88 196 186 281 47 40 57 42 57 13z"/><path d="m6724 5121c-64-130-83-160-100-160-42-2-55-51-18-65 11-4 12-11 6-23-6-10-15-44-22-75-11-49-11-60 3-81 47-71 167-6 167 90l-1 38-20-25c-88-107-105-115-96-42 3 26 11 60 18 75 12 27 12 27 130 27s118 0 132-27c8-16 30-55 48-88 29-53 33-69 34-135 0-112-7-120-110-120h-84l-12 43c-9 32-8 49 1 72 24 60 24 64 1 58-12-3-31-17-42-32-18-22-20-35-15-85l6-59-217 8c-120 4-299 10-398 14l-180 6-3 59c-2 41 1 62 10 68 11 6 10 10-1 17s-13 31-7 129c7 120 7 120-20 141-53 42-179 15-223-47-31-44-33-66-11-90 29-31 91-29 147 3l43 26v-84-84l-39-7c-68-10-184-63-212-96l-25-30h-278c-259 0-277-1-274-17 3-17 25-18 274-21l270-2 1-40c4-88 64-145 143-134 25 3 59 13 76 21 37 17 90 80 100 118l7 27 111-6c61-3 251-11 421-17 237-8 318-14 343-26 43-19 109-19 157 1 30 13 109 18 396 26 356 10 427 18 437 48 3 10-19 12-110 8-62-3-233-8-380-11l-267-6 10 33c12 43 12 133-1 178-5 20-26 62-45 94-39 65-42 76-20 76 8 0 29 13 47 29 28 25 30 31 19 45-9 11-30 16-65 16-55 0-76-12-76-43 0-18-7-19-95-15-55 2-100 9-107 16-9 9 4 43 61 156 71 140 82 178 50 184-11 2-38-43-95-157zm-837-199c8-5 1-16-23-35-81-65-160-70-99-7 36 38 96 59 122 42zm0-378c-2-3-51-3-108-2l-104 3 35 19c19 11 67 30 105 42l70 22 3-40c2-22 1-42-1-44zm-53-50c25-4 46-11 46-15 0-5-16-27-36-48-39-43-91-66-129-57-29 7-55 53-55 96 0 30 0 30 64 30 35 0 84-3 110-6z"/><path d="m7536 5108c-3-7-7-35-10-61-6-47-46-135-85-186-17-22-21-23-55-11-79 26-176-46-176-131 0-39 24-69 56-69 30 0 95 38 141 83l42 41 75-37c41-20 102-46 135-57 60-20 147-27 137-12-3 5-67 34-143 66-192 79-184 70-134 153 49 83 80 195 61 218-15 18-39 20-44 3zm-156-308c11-7 8-15-21-42-40-38-86-64-95-55-11 11 6 58 31 83s59 31 85 14z"/><path d="m5151 4981c-6-11-11-29-11-41s-11-49-24-83c-44-115-48-130-33-144 18-19 44-7 52 24 12 49 94 161 133 182 47 25 53-23 11-82-22-31-19-57 7-57 8 0 34 15 57 33 61 49 107 74 150 81 46 9 47 3 11-119-20-69-23-94-15-112 18-39 86-42 99-5 2 7-7 12-22 12-32 0-34 20-6 110 38 126 22 167-63 156-27-3-67-15-89-26-48-25-48-25-48 3 0 33-27 67-54 67-12 0-43-10-68-23l-46-23 2 30c1 36-27 48-43 17z"/><path d="m3174 4888c-30-14-60-78-98-210-43-146-63-277-44-289 19-13 70-11 162 6 44 8 103 18 130 22 27 5 51 13 53 20 7 20-63 26-145 13-42-7-93-15-113-17l-37-5 8 44c5 23 17 75 28 113l19 70 124 3c143 3 157 5 139 27-10 12-38 15-131 15-89 0-119 3-118 13 0 6 10 39 22 72 27 72 29 73 190 74 110 1 117 2 117 21s-6 20-142 19c-79 0-153-5-164-11z"/><path d="m6264 4845c-11-26 4-45 35-45 30 0 50 28 36 50-10 16-65 12-71-5z"/><path d="m4040 4640c0-19 7-20 200-20s200 1 200 20-7 20-200 20-200-1-200-20z"/><path d="m8455 4606c-78-13-95-21-95-41 0-24 16-26 87-11 37 8 107 17 156 21 48 4 87 11 87 16 0 30-105 37-235 15z"/><path d="m4340 4529c-191-30-255-46-258-62-6-28 22-30 140-7 62 12 148 24 191 27 81 6 97 14 77 38-14 17-62 18-150 4z"/><path d="m8416 4462c-10-2-16-11-14-20 3-15 24-17 178-19 163-3 216 4 196 24-8 8-328 21-360 15z"/><path d="m6276 4285c-59-21-88-46-113-95-29-56-29-82 0-116 28-32 84-36 136-10l33 18-7-34c-4-18-23-80-41-138-54-171-55-249-5-265 24-7 84 22 78 38-2 7-17 11-35 9l-32-3 6 48c4 26 19 89 35 138 15 50 37 126 48 170 39 159 54 181 70 101 5-23 13-32 30-34 23-4 24-2 17 39-18 112-117 172-220 134zm108-44c4-5 3-11-2-13-4-1-25-27-46-56-54-75-114-103-135-63-15 28 25 100 69 123 37 19 105 24 114 9z"/><path d="m9952 3401c-36-23-54-58-45-89 6-23-1-26-164-61-131-28-159-48-146-102 9-38 23-49 63-49 20 0 39-3 43-6 14-15-37-89-102-149l-33-30 7 26c10 42-14 47-47 10-28-32-37-74-17-86 60-38 249 144 249 239 0 28-16 36-72 36-35 0-39 3-36 21 3 23 48 39 148 53 25 4 58 13 74 21 16 9 30 14 30 13 1-2 7-15 14-30 32-75 171-17 206 87 24 68-1 99-89 110-40 5-56 2-83-14zm112-37c20-8 20-27 1-65-14-27-68-69-87-69-13 0-9 115 4 128s56 16 82 6z"/><path d="m8662 3348c-7-7-12-18-12-25 0-17-66-177-97-235-23-42-46-56-42-25 3 27-2 37-20 37-32 0-45-25-31-60 7-17 19-34 27-39 12-6 13-15 4-47-23-82-1-134 54-134 35 0 85 27 85 46 0 13-8 15-50 9-55-8-57-6-40 55l10 35 102 1h103l23-34c13-19 21-35 20-36-2-1-22-10-46-21-46-20-107-80-123-122-13-35 25-115 61-125 59-17-1120 15-1355 36-298 28-1766 11-2060-24-55-6-140-15-190-18-70-6-90-10-90-22 0-20 114-20 350 2 265 25 587 33 1270 33 434 0 648-4 740-13 227-23 832-35 1835-36 860-1 975 1 975 14s-86 16-690 20c-379 3-681 6-670 8 33 4 85 40 95 67 9 25 0 129-15 166-4 12 7 20 54 34 34 10 68 26 77 37 16 17 16 18-6 18-13 0-53-7-89-16l-65-17-23 27c-23 27-29 46-15 46 4 0 23 13 42 29 30 25 33 31 21 45-8 10-29 16-52 16-31 0-42-5-56-27-26-41-31-43-122-43h-83l16 25c20 31 88 185 110 249 13 37 14 52 5 62-14 17-21 18-37 2zm178-524c6-14 10-47 10-74 0-45-3-51-30-65-63-32-140-10-140 41 0 29 43 80 89 104 48 26 60 25 71-6z"/><path d="m6557 3288c-71-96-96-171-60-185 9-4 44 1 77 9 34 9 63 15 65 13s-11-38-29-80c-33-80-33-105-2-105 14 0 28 25 61 107 24 58 54 124 68 146 45 72 0 93-48 22-24-35-33-41-88-51-34-6-61-9-61-7 0 8 53 98 68 115 17 20 10 48-12 48-8 0-26-15-39-32z"/><path d="m9262 3213c-55-92-84-165-80-199 2-24 8-30 33-32 40-5 105 15 105 32 0 20-24 26-59 16-17-5-31-5-31-1 0 17 44 108 77 160 35 55 39 84 12 89-11 2-30-20-57-65z"/><path d="m6185 3170c-14-22 13-31 86-28 58 2 74 6 74 18s-16 16-77 18c-49 2-79-1-83-8z"/><path d="m5118 3118c-7-12-32-50-55-86-24-36-43-76-43-90 0-23 2-24 38-18 71 13 142 19 142 12 0-4-9-24-19-44-33-64-31-102 4-102 19 0 25 5 25 21 0 32 48 129 64 129 21 0 30 19 16 35-10 12-6 18 19 32 36 20 37 46 3 51-17 3-35-8-62-37-37-38-43-41-95-41-51 0-69 10-45 25 5 3 21 29 35 57 20 39 23 54 14 64-16 19-27 17-41-8z"/><path d="m9400 3110c-28-40-110-213-110-234 0-9 8-16 20-16 14 0 31 23 66 93 25 50 55 107 66 125 36 58-2 88-42 32z"/><path d="m7211 3065c-45-30-86-55-90-55-14 0-41-36-41-53 0-22 28-22 52 0 31 28 30 8-3-55-18-35-29-68-25-77 8-23 50-15 54 10 6 33 93 172 134 215 21 21 38 46 38 55 0 28-36 16-119-40z"/><path d="m7413 3093c-36-18-66-69-54-93 5-8 5-39 2-67-10-75 6-109 59-123 49-13 94-2 153 38 71 48 102 154 61 209-37 50-155 69-221 36zm131-34c53-13 69-41 55-92-22-79-142-147-180-101-10 12-10 29-3 75 6 32 6 65 2 73-12 21 25 48 75 55 5 0 28-4 51-10z"/><path d="m5730 3058c-54-75-130-202-127-213 8-24 38-14 62 22 80 115 135 209 131 220-10 24-35 13-66-29z"/><path d="m5963 3049c-18-5-35-14-38-19-3-6-15-10-25-10-26 0-91-92-92-130-1-21 7-40 25-58 23-22 35-26 82-25 83 2 148 41 181 109 14 29 24 62 22 75-7 46-90 77-155 58zm96-48c22-14 5-60-38-102-28-28-48-39-84-44-80-12-99 24-47 90 17 21 30 41 30 46 0 16 115 25 139 10z"/><path d="m8038 3006c-33-24-22-46 21-46 42 0 54 13 39 43-10 20-36 22-60 3z"/><path d="m6897 2982c-36-40-10-75 39-53 20 9 25 17 22 39-4 33-37 41-61 14z"/><path d="m5462 2968c-28-28 3-83 33-58 8 7 15 20 15 29 0 17-18 41-30 41-3 0-11-5-18-12z"/><path d="m10636 2759c-55-43-59-99-6-99 29 0 50 28 29 40-7 5-3 13 12 24 39 27 57 20 83-31 29-59 48-75 108-98 33-12 59-15 85-10 60 11 103 32 103 51 0 14-6 15-37 10-91-17-109-17-145-2-27 11-44 29-59 59-34 67-47 77-99 77-33 0-55-6-74-21z"/><path d="m4140 2646c-68-14-80-22-80-48 0-16 5-19 23-15 12 3 40 10 62 15 22 6 92 13 155 17 140 8 155 11 139 31-15 18-217 18-299 0z"/><path d="m4205 2555c-5-2-22-6-37-9-20-5-28-13-28-27 0-19 4-21 43-15 23 3 96 8 162 12 119 7 161 16 150 35-6 8-266 12-290 4z"/><path d="m10710 2451c-72-22-118-64-106-97 8-20 33-17 45 5s70 51 103 51c12 0 34-11 46-25 43-45 88-51 194-25 109 26 182 55 173 70s-30 13-151-16c-116-29-150-28-181 5-37 38-72 47-123 32z"/><path d="m8234 2401c-41-25-64-59-64-92 0-42 30-60 112-68l73-7-60-39c-70-45-143-75-185-75-24 0-30-4-30-21 0-20 4-21 59-16 116 10 273 113 306 201 33 87 0 126-112 133-56 3-74 1-99-16zm159-43c24-18 6-88-21-82-9 3-46 8-81 12-36 4-66 12-68 19-3 7 7 24 21 38 21 20 35 25 79 25 29 0 61-6 70-12z"/><path d="m6539 2264c-36-15-59-48-59-83 0-10 18-32 40-50l40-32-49-57c-75-86-90-139-46-168s128 12 172 84c27 43 29 72 8 112-15 30-15 30 45 76 64 50 79 80 35 72-22-5-25-2-25 22 0 16-7 30-16 34-28 11-108 5-145-10zm94-30c3-4 0-16-8-27-10-14-11-25-5-32 7-8 4-17-8-28-16-14-20-13-50 14-37 33-34 45 12 65 35 15 50 17 59 8zm-23-218c0-10-20-38-44-62-84-85-96-39-14 58 41 50 57 51 58 4z"/><path d="m7725 2210c-14-23 11-30 111-30 97 0 104 1 104 20s-7 20-104 20c-59 0-108-4-111-10z"/><path d="m7307 2164c-12-14-33-32-47-40-14-7-50-36-80-65-54-51-54-52-34-68 20-15 20-18 6-62-8-26-12-54-9-63 7-19 48-21 65-4 16 16 15 28-2 28-12 0-13 6-4 33 15 42 97 164 137 201 17 17 31 38 31 48 0 27-36 22-63-8z"/><path d="m7490 2117c-14-7-26-23-28-35-4-26 5-27 44-7 61 31 134 2 118-48-27-87-98-138-167-119-25 7-26 8-12 32 33 58 37 69 32 84-12 30-36 16-66-38-37-64-39-89-9-110s120-21 164 0c75 36 125 129 103 192-18 53-117 80-179 49z"/><path d="m6893 2045c-23-25-15-45 17-45 30 0 57 30 45 50-9 15-48 11-62-5z"/><path d="m7779 903c-82-67-144-165-298-468-51-99-90-188-89-199 2-10 11-24 21-30 15-9 22-6 38 13 12 15 18 33 15 45-4 14 24 77 80 186 129 248 172 317 247 394 63 64 77 96 45 96-7 0-34-17-59-37z"/><path d="m7214 896c-58-35-150-148-195-240-44-91-50-126-19-126 14 0 28 17 49 59 16 32 41 71 55 88l25 30 68-33c71-34 120-75 109-93s-78-31-161-31c-86 0-111-9-102-34 13-33 236-15 287 23 40 29 38 72-5 114-33 32-51 42-110 62-19 6-18 8 10 28 84 60 116 125 79 161-21 22-42 20-90-8zm56-33c-1-20-120-125-120-105 0 13 97 112 109 112 6 0 11-3 11-7z"/><path d="m5068 861c-36-18-108-98-108-121 0-16 12-18 89-22 109-4 136-21 127-78-3-19-16-43-28-53-81-65-125-73-163-29l-23 27-7-28c-6-22-2-34 16-54 21-22 30-24 71-20 84 10 164 71 187 144 13 41 13 44-14 78-33 44-59 55-132 55-55 0-56 0-38 20 10 11 26 20 35 20 10 0 33 6 51 14 19 8 89 17 157 21 106 7 123 10 120 24s-23 16-157 16c-112 0-162-4-183-14z"/><path d="m6656 825c-13-13-27-53-66-181-19-62 7-86 46-43 18 20 18 20 26-1 22-59 194-52 295 12 61 39 43 46-47 18-68-21-173-31-186-17-9 8 31 42 76 63 47 22 80 54 80 76 0 33-29 31-113-7-45-20-88-39-94-42-9-4-9 8 3 43 8 27 18 56 20 65 7 22-22 32-40 14z"/><path d="m5816 817c-48-15-85-59-67-80 9-12 7-16-9-20-20-5-59-77-60-109 0-10 12-31 28-48 48-54 163-54 241-2 92 62 119 157 61 212-29 27-108 61-139 59-9 0-34-6-55-12zm124-59c54-28 63-60 30-113-31-51-81-78-142-76-97 2-110 18-76 92l23 50 38-26c43-30 47-22 12 25-31 42-31 48-2 60 37 15 70 11 117-12z"/><path d="m5475 805c-69-24-80-46-79-152 1-50 4-96 8-101 3-6 22-16 41-22 30-10 41-9 79 10 148 71 208 173 136 233-27 23-43 29-117 42-16 2-46-2-68-10zm106-45c55-15 66-33 46-76-18-36-126-114-159-114-30 0-25 97 7 144 14 20 25 41 25 46 0 13 35 13 81 0z"/><path d="m4163 780c-37-16-43-24-43-49 0-32 22-51 59-51 14 0 21 6 21 20 0 11-6 20-12 20-20 1 23 30 43 30 10 0 38-18 63-40 26-21 61-42 80-45 85-16 115 22 33 42-30 7-64 26-94 52-52 47-83 51-150 21z"/><path d="m7983 668c-80-92-203-191-218-176-3 2 1 19 7 36 9 24 9 35 1 43-21 21-41 1-59-55-19-60-11-86 28-86 23 0 102 41 146 76 29 24 32 25 32 7 0-52 46-55 140-8 38 19 72 35 75 35s5-29 5-65c0-88 20-109 94-103 29 2 63 12 76 21 24 17 24 17-36 17-33 0-65 5-72 12-29 29-7 156 34 199 23 24 25 31 14 44-19 23-27 19-88-36-53-48-175-119-186-108-13 13 18 80 51 113 31 30 34 37 23 50-19 24-35 20-67-16z"/><path d="m4140 607c-19-10-25-20-25-47 0-31 3-35 25-35 19 0 25 5 24 23-1 30 36 29 122-3 74-28 155-33 173-11 13 16 7 19-64 31-22 4-73 17-113 31-82 27-106 29-142 11z"/></g><g fill="#44b" transform="matrix(.08161748 0 0 -.08161748 1073.54989351453 1519.00594685665)"><path d="m750 2973c-57-10-88-25-119-57-40-41-55-100-46-179 6-45 12-61 32-77 32-25 35-25 64-1 22 17 24 26 21 89-4 105 24 120 164 87 33-7 119-19 190-25 88-8 134-16 144-26 32-32 8-420-28-456-18-18-126-28-289-28-185 0-206-4-250-52-55-58-58-82-55-363 1-145 7-274 13-293 11-34 51-62 89-62 12 0 35 14 52 31l31 30-6 238c-3 130-3 249 0 264l5 27h112c234 1 363 26 423 82 58 54 98 260 91 463-4 122-7 138-34 191-40 81-79 100-217 108-174 10-361 14-387 9z"/><path d="m3660 2971c-42-9-83-34-103-65-39-59-50-127-54-343-5-206-5-212 18-252 28-50 78-86 143-102 48-12 257-8 370 7l49 7-7-104c-4-57-11-189-16-294-9-177-9-192 8-214 35-47 100-46 136 2 22 29 27 86 42 452 7 191 0 235-44 283-45 48-92 56-241 38-146-18-229-20-265-6l-26 10v162c0 156 8 230 27 249 5 5 99 6 210 2l201-6 5-50c3-39 11-56 31-74 34-29 48-29 80 0 24 20 26 30 28 113 4 147-23 169-218 179-242 11-340 13-374 6z"/><path d="m1565 2945c-14-13-25-32-25-42s-1-297-3-638c-2-677-3-662 55-694 33-19 73-7 101 31 18 24 20 51 29 300 5 150 10 278 12 283 2 6 37 8 97 3 52-3 135-7 186-7 154-2 161-10 143-176-21-189-27-310-18-343 12-45 45-72 86-72 71 0 102 46 102 151 0 33 7 118 16 187 24 190 9 280-58 349-50 52-112 67-263 65-71-1-164-6-205-11-41-4-78-7-81-5-4 2-10 108-13 236-9 286-17 352-47 384-31 33-82 32-114-1z"/><path d="m2542 2944c-55-38-64-109-53-419 6-186 9-215 28-250 50-95 116-125 302-135 75-4 171-5 215-1l78 7-4-178c-2-97-7-181-11-184-4-4-42 1-85 11-104 26-285 27-363 3-106-33-149-107-99-170 26-34 68-41 132-21 74 23 202 20 308-7 182-47 274 5 301 168 12 77 27 831 19 994-7 152-20 181-86 186-88 7-103-51-104-401v-219l-201 4c-197 3-201 3-220 27-18 21-19 42-19 283v260l-29 29c-33 33-74 38-109 13z"/><path d="m2374 1391c-55-34-79-78-79-147 0-51 4-66 27-96 35-45 102-73 153-64 78 15 146 111 131 188-20 108-145 172-232 119z"/><path d="m1853 999c-39-11-66-56-61-101 6-59 69-64 76-6 4 30 34 38 145 38h67v-110c0-135-1-136-132-126-85 6-89 6-113-18-24-25-25-28-25-179 0-162 4-177 47-177 35 0 43 29 43 159v121h73c85 0 141 14 168 41 17 17 19 34 19 169 0 147-1 152-25 175-23 24-30 25-137 24-62 0-128-5-145-10z"/><path d="m2985 1000c-91-16-93-18-104-58-15-51-14-537 0-564 19-36 69-48 204-48 121 0 127 1 151 25l24 24-2 292-3 292-26 19c-31 23-161 33-244 18zm169-86c14-5 16-37 16-250v-245l-102 3-103 3v240 240l40 6c57 9 131 10 149 3z"/><path d="m2351 971c-24-24-29-73-37-372-6-232-6-237 15-258 23-23 29-25 51-11 12 7 16 40 20 150l5 141 35-23c19-13 59-55 88-93 30-39 78-96 108-128 47-51 56-57 74-47 29 16 25 42-15 92-19 24-62 78-95 121-61 77-61 77-33 77 15 0 46 9 69 19 56 26 67 57 62 179-6 156-27 172-220 172-93 0-111-3-127-19zm257-74c16-13 17-168 0-185-7-7-41-12-84-12-40 0-84-4-98-10l-26-10v120 119l98-6c53-3 103-10 110-16z"/></g></svg>