<svg xmlns="http://www.w3.org/2000/svg" xml:lang="en" height="232.20579999999998pt" width="203.26pt" viewBox="-4.43 -180.2 203.26 232.20579999999998"><path d="M 0.0,-0.0 L 44.65124999999999,-0.0 M 52.54875,-0.0 L 97.19999999999999,-0.0" style="stroke:black;fill:none;stroke-width:3.0;stroke-linecap:round;stroke-linejoin:round;" /><path d="M 52.54875,20.654999999999998 L 52.54875,-20.654999999999998" style="stroke:black;fill:none;stroke-width:3.0;stroke-linecap:round;stroke-linejoin:round;" /><path d="M 44.65124999999999,10.327499999999999 L 44.65124999999999,-10.327499999999999" style="stroke:black;fill:none;stroke-width:3.0;stroke-linecap:round;stroke-linejoin:round;" /><path d="M 97.19999999999999,-0.0 L 141.85125,-0.0 M 149.74875,-0.0 L 194.39999999999998,-0.0" style="stroke:black;fill:none;stroke-width:3.0;stroke-linecap:round;stroke-linejoin:round;" /><path d="M 149.74875,20.654999999999998 L 149.74875,-20.654999999999998" style="stroke:black;fill:none;stroke-width:3.0;stroke-linecap:round;stroke-linejoin:round;" /><path d="M 141.85125,10.327499999999999 L 141.85125,-10.327499999999999" style="stroke:black;fill:none;stroke-width:3.0;stroke-linecap:round;stroke-linejoin:round;" /><path d="M 194.39999999999998,-0.0 L 194.39999999999998,-48.599999999999994 L 194.39999999999998,-97.19999999999999" style="stroke:black;fill:none;stroke-width:3.0;stroke-linecap:round;stroke-linejoin:round;" /><path d="M 194.39999999999998,-97.19999999999999 L 113.39999999999999,-97.20000000000002 L 113.39999999999999,-89.10000000000001 L 81.0,-89.10000000000001 L 81.0,-105.30000000000001 L 113.39999999999999,-105.30000000000001 L 113.39999999999999,-97.20000000000002 M 81.0,-97.20000000000002 L 0.0,-97.20000000000003" style="stroke:black;fill:none;stroke-width:3.0;stroke-linecap:round;stroke-linejoin:round;" /><path d="M 194.39999999999998,-97.19999999999999 L 194.39999999999998,-133.65 L 194.39999999999998,-170.1" style="stroke:black;fill:none;stroke-width:3.0;stroke-linecap:round;stroke-linejoin:round;" /><path d="M 194.39999999999998,-170.1 L 113.39999999999999,-170.1 L 113.39999999999999,-162.0 L 81.0,-162.0 L 81.0,-178.2 L 113.39999999999999,-178.2 L 113.39999999999999,-170.1 M 81.0,-170.1 L 0.0,-170.10000000000002" style="stroke:black;fill:none;stroke-width:3.0;stroke-linecap:round;stroke-linejoin:round;" /><path d="M 0.0,-170.10000000000002 L 5.20781051337412e-15,-85.05000000000001 L 1.041562102674824e-14,-0.0" style="stroke:black;fill:none;stroke-width:3.0;stroke-linecap:round;stroke-linejoin:round;" /><g><g><g><path d="M 44.172 36.523 L 44.172 36.523 L 44.452 36.523 Q 44.788 35.823 45.264 34.787 Q 45.74 33.751 46.356 32.743 Q 46.972 31.735 47.7 31.049 Q 48.428 30.363 49.268 30.363 Q 49.94 30.363 50.388 30.769 Q 50.836 31.175 50.836 31.987 Q 50.836 32.911 50.374 33.331 Q 49.912 33.751 49.352 33.751 Q 48.904 33.751 48.638 33.485 Q 48.372 33.219 48.26 32.967 Q 48.148 32.715 48.092 32.715 Q 47.7 32.715 47.182 33.331 Q 46.664 33.947 46.132 34.899 Q 45.6 35.851 45.11 36.859 Q 44.62 37.867 44.27 38.693 Q 43.92 39.519 43.78 39.855 L 42.94 43.775 L 40.56 43.775 L 42.632 34.031 Q 42.716 33.639 42.8 33.149 Q 42.884 32.659 42.884 32.295 Q 42.884 31.903 42.716 31.679 Q 42.548 31.455 41.96 31.455 Q 41.736 31.455 41.414 31.483 Q 41.092 31.511 41.092 31.511 L 41.092 30.755 L 44.984 30.447 L 45.6 30.447 Z " fill="black" /><path d="M 56.923 49.655 L 56.923 49.655 L 50.279 49.655 L 50.279 48.949 Q 51.69 48.949 52.15 48.665 Q 52.611 48.381 52.611 47.636 L 52.611 39.091 Q 52.611 38.561 52.454 38.326 Q 52.297 38.091 51.886 38.091 Q 51.572 38.091 51.033 38.179 Q 50.494 38.267 50.102 38.365 L 50.102 37.581 L 53.728 36.582 L 54.571 36.582 L 54.571 47.636 Q 54.571 48.381 55.071 48.665 Q 55.571 48.949 56.923 48.949 Z " fill="black" /></g></g></g><g><g><g><path d="M 141.225 36.523 L 141.225 36.523 L 141.505 36.523 Q 141.841 35.823 142.317 34.787 Q 142.793 33.751 143.409 32.743 Q 144.025 31.735 144.753 31.049 Q 145.481 30.363 146.321 30.363 Q 146.993 30.363 147.441 30.769 Q 147.889 31.175 147.889 31.987 Q 147.889 32.911 147.427 33.331 Q 146.965 33.751 146.405 33.751 Q 145.957 33.751 145.691 33.485 Q 145.425 33.219 145.313 32.967 Q 145.201 32.715 145.145 32.715 Q 144.753 32.715 144.235 33.331 Q 143.717 33.947 143.185 34.899 Q 142.653 35.851 142.163 36.859 Q 141.673 37.867 141.323 38.693 Q 140.973 39.519 140.833 39.855 L 139.993 43.775 L 137.613 43.775 L 139.685 34.031 Q 139.769 33.639 139.853 33.149 Q 139.937 32.659 139.937 32.295 Q 139.937 31.903 139.769 31.679 Q 139.601 31.455 139.013 31.455 Q 138.789 31.455 138.467 31.483 Q 138.145 31.511 138.145 31.511 L 138.145 30.755 L 142.037 30.447 L 142.653 30.447 Z " fill="black" /><path d="M 155.093 46.245 L 155.093 46.245 L 154.427 49.655 L 146.391 49.655 L 146.391 48.695 L 149.174 45.872 Q 150.272 44.775 150.987 43.932 Q 151.702 43.089 152.055 42.236 Q 152.408 41.384 152.408 40.286 Q 152.408 39.247 151.771 38.571 Q 151.134 37.895 149.978 37.895 Q 148.919 37.895 148.204 38.316 Q 147.488 38.738 146.94 39.698 L 146.41 39.443 Q 146.9 38.071 147.929 37.287 Q 148.958 36.503 150.468 36.503 Q 151.644 36.503 152.545 36.925 Q 153.447 37.346 153.956 38.13 Q 154.466 38.914 154.466 40.031 Q 154.466 40.992 154.035 41.835 Q 153.604 42.677 152.81 43.559 Q 152.016 44.441 150.918 45.519 L 148.468 47.891 L 148.468 48.028 L 149.997 47.95 L 152.545 47.95 Q 153.114 47.95 153.417 47.793 Q 153.721 47.636 153.937 47.254 Q 154.152 46.872 154.407 46.245 Z " fill="black" /></g></g></g><circle cx="194.39999999999998" cy="-97.19999999999999" r="2.4299999999999997" style="stroke:black;fill:black;stroke-width:3.0;" /><circle cx="0.0" cy="-97.20000000000003" r="2.4299999999999997" style="stroke:black;fill:black;stroke-width:3.0;" /><g><g><g><path d="M 98.032 -77.796 L 98.032 -77.796 Q 98.032 -76.312 97.472 -75.304 Q 96.912 -74.296 96.016 -73.652 Q 95.12 -73.008 94.098 -72.658 Q 93.076 -72.308 92.152 -72.14 L 92.152 -72 Q 92.656 -71.664 93.104 -70.978 Q 93.552 -70.292 94.21 -69.004 Q 94.868 -67.716 96.016 -65.532 Q 96.492 -64.692 97.066 -64.398 Q 97.64 -64.104 98.592 -64.104 L 98.424 -63.264 L 94.168 -63.264 Q 93.384 -65 92.852 -66.162 Q 92.32 -67.324 91.928 -68.108 Q 91.536 -68.892 91.242 -69.508 Q 90.948 -70.124 90.612 -70.768 Q 90.304 -71.356 89.94 -71.538 Q 89.576 -71.72 88.82 -71.72 L 88.232 -71.72 L 87.196 -66.736 Q 86.972 -65.588 87.042 -65.014 Q 87.112 -64.44 87.672 -64.272 Q 88.232 -64.104 89.436 -64.104 L 89.296 -63.264 L 81.568 -63.264 L 81.736 -64.104 Q 82.772 -64.104 83.332 -64.272 Q 83.892 -64.44 84.186 -65 Q 84.48 -65.56 84.704 -66.736 L 87.168 -78.748 Q 87.336 -79.532 87.252 -79.98 Q 87.168 -80.428 86.678 -80.624 Q 86.188 -80.82 85.068 -80.82 L 85.236 -81.66 L 91.816 -81.66 Q 94.756 -81.66 96.394 -80.75 Q 98.032 -79.84 98.032 -77.796 Z M 89.996 -80.484 L 89.996 -80.484 L 88.428 -72.756 L 89.296 -72.728 Q 90.976 -72.784 92.334 -73.274 Q 93.692 -73.764 94.476 -74.828 Q 95.26 -75.892 95.26 -77.684 Q 95.26 -78.44 94.938 -79.098 Q 94.616 -79.756 93.832 -80.162 Q 93.048 -80.568 91.648 -80.568 Q 91.116 -80.568 90.794 -80.554 Q 90.472 -80.54 89.996 -80.484 Z " fill="black" /><path d="M 109.464 -60.794 L 109.464 -60.794 L 108.798 -57.384 L 100.762 -57.384 L 100.762 -58.344 L 103.545 -61.167 Q 104.643 -62.264 105.358 -63.107 Q 106.073 -63.95 106.426 -64.803 Q 106.779 -65.655 106.779 -66.753 Q 106.779 -67.792 106.142 -68.468 Q 105.505 -69.144 104.349 -69.144 Q 103.29 -69.144 102.575 -68.723 Q 101.859 -68.301 101.311 -67.341 L 100.781 -67.596 Q 101.271 -68.968 102.3 -69.752 Q 103.329 -70.536 104.839 -70.536 Q 106.015 -70.536 106.916 -70.114 Q 107.818 -69.693 108.327 -68.909 Q 108.837 -68.125 108.837 -67.008 Q 108.837 -66.047 108.406 -65.204 Q 107.975 -64.362 107.181 -63.48 Q 106.387 -62.598 105.289 -61.52 L 102.839 -59.148 L 102.839 -59.011 L 104.368 -59.089 L 106.916 -59.089 Q 107.485 -59.089 107.788 -59.246 Q 108.092 -59.403 108.308 -59.785 Q 108.523 -60.167 108.778 -60.794 Z " fill="black" /></g></g></g><g><g><g><path d="M 99.394 -150.696 L 99.394 -150.696 Q 99.394 -149.212 98.834 -148.204 Q 98.274 -147.196 97.378 -146.552 Q 96.482 -145.908 95.46 -145.558 Q 94.438 -145.208 93.514 -145.04 L 93.514 -144.9 Q 94.018 -144.564 94.466 -143.878 Q 94.914 -143.192 95.572 -141.904 Q 96.23 -140.616 97.378 -138.432 Q 97.854 -137.592 98.428 -137.298 Q 99.002 -137.004 99.954 -137.004 L 99.786 -136.164 L 95.53 -136.164 Q 94.746 -137.9 94.214 -139.062 Q 93.682 -140.224 93.29 -141.008 Q 92.898 -141.792 92.604 -142.408 Q 92.31 -143.024 91.974 -143.668 Q 91.666 -144.256 91.302 -144.438 Q 90.938 -144.62 90.182 -144.62 L 89.594 -144.62 L 88.558 -139.636 Q 88.334 -138.488 88.404 -137.914 Q 88.474 -137.34 89.034 -137.172 Q 89.594 -137.004 90.798 -137.004 L 90.658 -136.164 L 82.93 -136.164 L 83.098 -137.004 Q 84.134 -137.004 84.694 -137.172 Q 85.254 -137.34 85.548 -137.9 Q 85.842 -138.46 86.066 -139.636 L 88.53 -151.648 Q 88.698 -152.432 88.614 -152.88 Q 88.53 -153.328 88.04 -153.524 Q 87.55 -153.72 86.43 -153.72 L 86.598 -154.56 L 93.178 -154.56 Q 96.118 -154.56 97.756 -153.65 Q 99.394 -152.74 99.394 -150.696 Z M 91.358 -153.384 L 91.358 -153.384 L 89.79 -145.656 L 90.658 -145.628 Q 92.338 -145.684 93.696 -146.174 Q 95.054 -146.664 95.838 -147.728 Q 96.622 -148.792 96.622 -150.584 Q 96.622 -151.34 96.3 -151.998 Q 95.978 -152.656 95.194 -153.062 Q 94.41 -153.468 93.01 -153.468 Q 92.478 -153.468 92.156 -153.454 Q 91.834 -153.44 91.358 -153.384 Z " fill="black" /><path d="M 109.709 -130.284 L 109.709 -130.284 L 103.065 -130.284 L 103.065 -130.99 Q 104.476 -130.99 104.936 -131.274 Q 105.397 -131.558 105.397 -132.303 L 105.397 -140.848 Q 105.397 -141.378 105.24 -141.613 Q 105.083 -141.848 104.672 -141.848 Q 104.358 -141.848 103.819 -141.76 Q 103.28 -141.672 102.888 -141.574 L 102.888 -142.358 L 106.514 -143.357 L 107.357 -143.357 L 107.357 -132.303 Q 107.357 -131.558 107.857 -131.274 Q 108.357 -130.99 109.709 -130.99 Z " fill="black" /></g></g></g></svg>