<?xml version="1.0" encoding="UTF-8" standalone="no"?>
<!-- Created with Inkscape (http://www.inkscape.org/) -->

<svg
   width="49.810719mm"
   height="67.273552mm"
   viewBox="0 0 49.810719 67.273552"
   version="1.1"
   id="svg1"
   xml:space="preserve"
   inkscape:version="1.3.2 (091e20e, 2023-11-25)"
   sodipodi:docname="1173t.svg"
   xmlns:inkscape="http://www.inkscape.org/namespaces/inkscape"
   xmlns:sodipodi="http://sodipodi.sourceforge.net/DTD/sodipodi-0.dtd"
   xmlns="http://www.w3.org/2000/svg"
   xmlns:svg="http://www.w3.org/2000/svg"><sodipodi:namedview
     id="namedview1"
     pagecolor="#ffffff"
     bordercolor="#000000"
     borderopacity="0.25"
     inkscape:showpageshadow="2"
     inkscape:pageopacity="0.0"
     inkscape:pagecheckerboard="0"
     inkscape:deskcolor="#d1d1d1"
     inkscape:document-units="mm"
     inkscape:zoom="2.2451612"
     inkscape:cx="91.307474"
     inkscape:cy="134.5115"
     inkscape:current-layer="layer1" /><defs
     id="defs1" /><g
     inkscape:label="Layer 1"
     inkscape:groupmode="layer"
     id="layer1"
     transform="translate(-55.193234,-72.655846)"><path
       d="m 190.22582,219.89283 q -1.904,0 -3.06133,-0.70933 -1.15734,-0.74667 -1.68,-1.94134 -0.52267,-1.19466 -0.52267,-2.65066 0,-0.336 0.0373,-0.784 0.0373,-0.48534 0.14934,-0.97067 l 1.568,-7.392 q 0.112,-0.63467 0.112,-1.04533 0,-0.74667 -0.48534,-0.93334 -0.448,-0.18666 -1.53066,-0.224 -0.0373,0 -0.0747,0 -0.0373,0 -0.112,0 l 0.224,-1.04533 4.96533,-0.56 h 0.82134 l -2.20267,10.22933 q -0.112,0.52267 -0.18667,1.12 -0.0747,0.56 -0.0747,1.19467 0,1.64267 0.70933,2.576 0.70933,0.93333 2.464,0.93333 1.60533,0 2.72533,-0.70933 1.12,-0.74667 1.792,-1.904 0.70934,-1.19467 1.008,-2.61333 0.336,-1.456 0.336,-2.83734 0,-1.60533 -0.336,-2.576 -0.29866,-1.008 -0.70933,-1.64266 -0.37333,-0.672 -0.70933,-1.15734 -0.29867,-0.52266 -0.29867,-1.12 0,-0.672 0.448,-1.15733 0.448,-0.52267 1.26933,-0.52267 1.008,0 1.53067,0.784 0.56,0.784 0.74667,2.016 0.224,1.232 0.224,2.61334 0,2.464 -0.56,4.77866 -0.56,2.31467 -1.68,4.18134 -1.12,1.86666 -2.83734,2.98666 -1.71733,1.08267 -4.06933,1.08267 z"
       id="text4-7"
       style="font-style:italic;font-size:37.3333px;font-family:'STIX Two Text';-inkscape-font-specification:'STIX Two Text, Italic';baseline-shift:baseline;stroke-width:1.7"
       transform="matrix(0.26458333,0,0,0.26458333,6.3443352,21.572291)"
       aria-label="ʋ" /><path
       style="opacity:1;fill:#ffffff;fill-opacity:0;fill-rule:evenodd;stroke:#000000;stroke-width:0.79375;stroke-linejoin:miter;stroke-dasharray:none;stroke-dashoffset:0;paint-order:fill markers stroke"
       d="m 84.546874,85.574452 v 50.026708 h 1.16341 V 85.574452 Z"
       id="path1"
       sodipodi:nodetypes="ccccc" /><g
       id="path2"><g
         id="g14"><path
           style="color:#000000;fill:#000000;fill-rule:evenodd;-inkscape-stroke:none"
           d="m 64.862277,74.825391 2.256056,-0.300886 -6.346521,-1.868659 5.106781,4.206067 z"
           id="path14" /></g><path
         style="color:#000000;fill:#000000;fill-rule:evenodd;-inkscape-stroke:none;paint-order:fill markers stroke"
         d="m 64.986328,74.591797 -0.248047,0.466797 20.265625,10.75 0.248047,-0.46875 z"
         id="path15" /></g><g
       id="path3"><g
         id="g12"><path
           style="color:#000000;fill:#000000;fill-rule:evenodd;-inkscape-stroke:none"
           d="m 92.908665,124.31706 0.124215,2.27264 2.357403,-6.18166 -4.591128,4.76359 z"
           id="path12" /></g><path
         style="color:#000000;fill:#000000;fill-rule:evenodd;-inkscape-stroke:none;paint-order:fill markers stroke"
         d="m 92.685547,124.17578 -7.277344,11.46094 0.447266,0.2832 7.277343,-11.46094 z"
         id="path13" /></g><path
       style="font-variation-settings:normal;opacity:1;vector-effect:none;fill:none;fill-opacity:1;fill-rule:evenodd;stroke:#000000;stroke-width:0.661458;stroke-linecap:butt;stroke-linejoin:miter;stroke-miterlimit:4;stroke-dasharray:none;stroke-dashoffset:0;stroke-opacity:1;-inkscape-stroke:none;stop-color:#000000;stop-opacity:1"
       id="path4"
       sodipodi:type="arc"
       sodipodi:cx="85.128578"
       sodipodi:cy="135.60117"
       sodipodi:rx="8.4098206"
       sodipodi:ry="8.4098206"
       sodipodi:start="4.7912748"
       sodipodi:end="5.3323037"
       sodipodi:open="true"
       sodipodi:arc-type="arc"
       d="m 85.791306,127.2175 a 8.4098206,8.4098206 0 0 1 4.22309,1.53868" /><path
       d="m 190.22582,219.89283 q -1.904,0 -3.06133,-0.70933 -1.15734,-0.74667 -1.68,-1.94134 -0.52267,-1.19466 -0.52267,-2.65066 0,-0.336 0.0373,-0.784 0.0373,-0.48534 0.14934,-0.97067 l 1.568,-7.392 q 0.112,-0.63467 0.112,-1.04533 0,-0.74667 -0.48534,-0.93334 -0.448,-0.18666 -1.53066,-0.224 -0.0373,0 -0.0747,0 -0.0373,0 -0.112,0 l 0.224,-1.04533 4.96533,-0.56 h 0.82134 l -2.20267,10.22933 q -0.112,0.52267 -0.18667,1.12 -0.0747,0.56 -0.0747,1.19467 0,1.64267 0.70933,2.576 0.70933,0.93333 2.464,0.93333 1.60533,0 2.72533,-0.70933 1.12,-0.74667 1.792,-1.904 0.70934,-1.19467 1.008,-2.61333 0.336,-1.456 0.336,-2.83734 0,-1.60533 -0.336,-2.576 -0.29866,-1.008 -0.70933,-1.64266 -0.37333,-0.672 -0.70933,-1.15734 -0.29867,-0.52266 -0.29867,-1.12 0,-0.672 0.448,-1.15733 0.448,-0.52267 1.26933,-0.52267 1.008,0 1.53067,0.784 0.56,0.784 0.74667,2.016 0.224,1.232 0.224,2.61334 0,2.464 -0.56,4.77866 -0.56,2.31467 -1.68,4.18134 -1.12,1.86666 -2.83734,2.98666 -1.71733,1.08267 -4.06933,1.08267 z"
       id="text4"
       style="font-style:italic;font-size:37.3333px;font-family:'STIX Two Text';-inkscape-font-specification:'STIX Two Text, Italic';baseline-shift:baseline;stroke-width:1.7"
       transform="matrix(0.26458333,0,0,0.26458333,49.385983,67.218399)"
       aria-label="ʋ" /><path
       d="m 150.91245,192.68732 q -2.27733,0 -3.28533,-1.82933 -1.008,-1.86666 -1.008,-5.07733 0,-3.43466 1.12,-6.01066 1.12,-2.61333 3.09866,-4.032 2.016,-1.45599 4.592,-1.45599 1.344,0 2.20266,0.56 0.85867,0.56 1.344,1.41866 0.52267,0.82133 0.74667,1.792 0.26133,0.93333 0.37333,1.71733 h 0.82133 l -0.29866,3.28533 q 0,1.008 0,2.20267 0.0373,1.15733 0.18666,2.20266 0.18667,1.008 0.59734,1.68 0.41066,0.63467 1.19466,0.63467 0.85867,0 1.41867,-0.41067 0.59733,-0.448 1.12,-1.04533 l 0.59733,0.59733 q -0.224,0.336 -0.59733,0.97067 -0.37334,0.59733 -0.97067,1.232 -0.59733,0.59733 -1.456,1.04533 -0.85866,0.41066 -1.97866,0.41066 -1.30667,0 -1.86667,-0.896 -0.52266,-0.89599 -0.52266,-2.27733 0,-0.672 0.112,-1.456 0.112,-0.78399 0.18666,-1.71733 h -0.29866 q -1.08267,1.75467 -2.31467,3.248 -1.19466,1.456 -2.464,2.352 -1.26933,0.85866 -2.65066,0.85866 z m 0.82133,-3.28533 q 1.344,0 2.61333,-0.74666 1.26933,-0.784 2.27733,-2.05333 1.04534,-1.26934 1.64267,-2.8 0.59733,-1.53067 0.59733,-3.06133 0,-1.75467 -0.93333,-2.53867 -0.896,-0.82133 -2.688,-0.82133 -3.024,0 -4.96533,1.904 -1.94133,1.86666 -1.94133,5.63733 0,2.42666 1.04533,3.47199 1.08267,1.008 2.352,1.008 z m 8.47466,-5.74933 -0.14933,-3.24799 q 0.672,-1.71733 1.60533,-3.32267 0.97067,-1.64266 1.568,-2.46399 l 3.09866,-0.0747 0.0373,0.56 q -0.29867,0.37333 -0.97067,1.26933 -0.672,0.85867 -1.49333,1.97867 -0.82134,1.08266 -1.60533,2.20266 -0.784,1.12 -1.344,1.97867 -0.56,0.82133 -0.74667,1.11999 z"
       id="text5"
       style="font-style:italic;font-size:37.3333px;font-family:'STIX Two Text';-inkscape-font-specification:'STIX Two Text, Italic';baseline-shift:baseline;stroke-width:1.7"
       transform="matrix(0.26458333,0,0,0.26458333,48.443215,70.282396)"
       aria-label="α" /><path
       d="M 171.12799,78.836212 H 156.41867 V 77.56688 l 5.67466,-5.674662 q 1.86666,-1.903998 3.09866,-3.434664 1.232,-1.567998 1.82933,-3.135997 0.63467,-1.567999 0.63467,-3.50933 0,-2.090665 -1.26933,-3.322664 -1.232,-1.269332 -3.39733,-1.269332 -1.82934,0 -3.136,0.783999 -1.26933,0.783999 -2.31467,2.874664 l -0.89599,-0.373333 q 0.85866,-2.725331 2.72533,-4.218663 1.86666,-1.493332 4.59199,-1.493332 2.128,0 3.73333,0.821333 1.60533,0.783999 2.50133,2.239998 0.93334,1.418665 0.93334,3.39733 0,1.642665 -0.70934,3.173331 -0.672,1.493332 -2.05333,3.098664 -1.344,1.605332 -3.32266,3.62133 l -4.928,4.666663 v 0.186666 l 2.61333,-0.112 h 5.18933 q 1.49333,0 2.09067,-0.671999 0.59733,-0.672 1.232,-2.351998 h 1.08266 z"
       id="text6"
       style="font-size:37.3333px;font-family:'STIX Two Text';-inkscape-font-specification:'STIX Two Text, Normal';baseline-shift:baseline;stroke-width:1.7"
       transform="matrix(0.26458333,0,0,0.26458333,47.736139,67.100553)"
       aria-label="2" /><path
       d="m 123.24594,267.6868 h -12.91732 v -1.04533 q 2.65067,0 3.73333,-0.56 1.08267,-0.56 1.08267,-1.94134 v -15.79198 q 0,-0.97067 -0.26134,-1.38133 -0.26133,-0.448 -0.97066,-0.448 -0.37333,0 -1.04533,0.0747 -0.672,0.0747 -1.41867,0.224 -0.74667,0.112 -1.344,0.29867 v -1.232 l 7.24266,-2.05333 h 1.08267 v 20.30931 q 0,1.38134 1.12,1.94134 1.12,0.56 3.69599,0.56 z"
       id="text7"
       style="font-size:37.3333px;font-family:'STIX Two Text';-inkscape-font-specification:'STIX Two Text, Normal';baseline-shift:baseline;stroke-width:1.7"
       transform="matrix(0.26458333,0,0,0.26458333,49.503829,69.103935)"
       aria-label="1" /><path
       d="m 210.65505,234.28162 h -8.304 v -0.672 q 1.704,0 2.4,-0.36 0.696,-0.36 0.696,-1.248 v -10.152 q 0,-0.624 -0.168,-0.888 -0.168,-0.288 -0.624,-0.288 -0.24,0 -0.672,0.048 -0.432,0.048 -0.912,0.144 -0.48,0.072 -0.864,0.192 v -0.792 l 4.656,-1.32 h 0.696 v 13.056 q 0,0.888 0.72,1.248 0.72,0.36 2.376,0.36 z"
       id="text8"
       style="font-size:24px;font-family:'STIX Two Text';-inkscape-font-specification:'STIX Two Text, Normal';baseline-shift:baseline;stroke-width:1.7"
       transform="matrix(0.26458333,0,0,0.26458333,49.268137,65.09717)"
       aria-label="1" /><path
       d="m 51.345013,41.867817 h -9.456 v -0.816 l 3.648,-3.648 q 1.2,-1.224 1.992,-2.208 0.792,-1.008 1.176,-2.016 0.408,-1.008 0.408,-2.256 0,-1.344 -0.816,-2.136 -0.792,-0.816 -2.184,-0.816 -1.176,0 -2.016,0.504 -0.816,0.504 -1.488,1.848 l -0.576,-0.24 q 0.552,-1.752 1.752,-2.712 1.2,-0.96 2.952,-0.96 1.368,0 2.4,0.528 1.032,0.504 1.608,1.44 0.6,0.912 0.6,2.184 0,1.056 -0.456,2.04 -0.432,0.96 -1.32,1.992 -0.864,1.032 -2.136,2.328 l -3.168,3 v 0.12 l 1.68,-0.072 h 3.336 q 0.96,0 1.344,-0.432 0.384,-0.432 0.792,-1.512 h 0.696 z"
       id="text9"
       style="font-size:24px;font-family:'STIX Two Text';-inkscape-font-specification:'STIX Two Text, Normal';baseline-shift:baseline;stroke-width:1.7"
       transform="matrix(0.26458333,0,0,0.26458333,48.561061,70.400242)"
       aria-label="2" /><text
       xml:space="preserve"
       style="font-style:italic;font-variant:normal;font-weight:normal;font-stretch:normal;font-size:37.3333px;line-height:normal;font-family:'STIX Two Text';-inkscape-font-specification:'STIX Two Text, Italic';font-variant-ligatures:normal;font-variant-position:normal;font-variant-caps:normal;font-variant-numeric:normal;font-variant-alternates:normal;font-variant-east-asian:normal;text-indent:0;text-align:start;text-decoration-line:none;text-decoration-style:solid;text-decoration-color:#000000;letter-spacing:normal;word-spacing:normal;text-transform:none;writing-mode:lr-tb;direction:ltr;text-orientation:mixed;dominant-baseline:auto;baseline-shift:baseline;text-anchor:start;white-space:normal;shape-padding:0;shape-margin:0;inline-size:0;opacity:1;vector-effect:none;fill:#000000;fill-opacity:1;stroke:none;stroke-width:1.7;stroke-linecap:butt;stroke-linejoin:miter;stroke-miterlimit:4;stroke-dasharray:none;stroke-dashoffset:0;stroke-opacity:1;-inkscape-stroke:none;stop-color:#000000;stop-opacity:1"
       x="235.17242"
       y="144.75575"
       id="text10"
       transform="matrix(0.26458333,0,0,0.26458333,49.385983,67.218399)"><tspan
         sodipodi:role="line"
         id="tspan10"
         x="235.17242"
         y="144.75575"></tspan></text><text
       xml:space="preserve"
       style="font-style:italic;font-variant:normal;font-weight:normal;font-stretch:normal;font-size:37.3333px;line-height:normal;font-family:'STIX Two Text';-inkscape-font-specification:'STIX Two Text, Italic';font-variant-ligatures:normal;font-variant-position:normal;font-variant-caps:normal;font-variant-numeric:normal;font-variant-alternates:normal;font-variant-east-asian:normal;text-indent:0;text-align:start;text-decoration-line:none;text-decoration-style:solid;text-decoration-color:#000000;letter-spacing:normal;word-spacing:normal;text-transform:none;writing-mode:lr-tb;direction:ltr;text-orientation:mixed;dominant-baseline:auto;baseline-shift:baseline;text-anchor:start;white-space:normal;shape-padding:0;shape-margin:0;inline-size:0;opacity:1;vector-effect:none;fill:#000000;fill-opacity:1;stroke:none;stroke-width:1.7;stroke-linecap:butt;stroke-linejoin:miter;stroke-miterlimit:4;stroke-dasharray:none;stroke-dashoffset:0;stroke-opacity:1;-inkscape-stroke:none;stop-color:#000000;stop-opacity:1"
       x="254.77013"
       y="184.39656"
       id="text11"
       transform="matrix(0.26458333,0,0,0.26458333,49.385983,67.218399)"><tspan
         sodipodi:role="line"
         id="tspan11"
         x="254.77013"
         y="184.39656"></tspan></text></g></svg>
