<svg width="73.78mm" height="124.6mm" version="1.1" viewBox="0 0 73.78 124.6" xml:space="preserve" xmlns="http://www.w3.org/2000/svg"><g transform="translate(8.149 -46.2)"><path d="m7.934 48.71v104.5h2.43v-104.5z" fill-opacity="0" stroke="#000" stroke-width="1.058" style="paint-order:fill markers stroke"/><path d="m9.148 48.71h21.21" color="#000000" fill="#fff" fill-rule="evenodd" style="-inkscape-stroke:none;paint-order:fill markers stroke"/><g fill-rule="evenodd"><path d="m36.08 48.71-8.582 1.984v-3.969z" color="#000000" style="-inkscape-stroke:none"/><path d="m27.08 46.2v5.021l9.096-2.102v-0.8164zm0.8379 1.055 6.305 1.457-6.305 1.457z" color="#000000" style="-inkscape-stroke:none"/></g><path d="m9.148 48.32v0.793h21.21v-0.793z" color="#000000" fill-rule="evenodd" style="-inkscape-stroke:none;paint-order:fill markers stroke"/><path d="m9.148 153.2h42.26" color="#000000" fill="#fff" fill-rule="evenodd" style="-inkscape-stroke:none;paint-order:fill markers stroke"/><g fill-rule="evenodd"><path d="m57.14 153.2-8.582 1.984v-3.969z" color="#000000" style="-inkscape-stroke:none"/><path d="m48.14 150.7v5.021l9.096-2.104v-0.8144zm0.8379 1.053 6.307 1.457-6.307 1.459z" color="#000000" style="-inkscape-stroke:none"/></g><path d="m9.148 152.8v0.793h42.26v-0.793z" color="#000000" fill-rule="evenodd" style="-inkscape-stroke:none;paint-order:fill markers stroke"/><g stroke-width=".4498"><path d="m34.39 62.72q-0.8996 0-1.446-0.3351-0.5468-0.3528-0.7938-0.9172-0.2469-0.5644-0.2469-1.252 0-0.1588 0.01765-0.3704 0.01765-0.2293 0.07056-0.4586l0.7408-3.493q0.05292-0.2999 0.05292-0.4939 0-0.3528-0.2293-0.441-0.2117-0.0882-0.7232-0.1058-0.01765 0-0.03528 0-0.01765 0-0.05292 0l0.1058-0.4939 2.346-0.2646h0.3881l-1.041 4.833q-0.05292 0.2469-0.08819 0.5292-0.03528 0.2646-0.03528 0.5644 0 0.7761 0.3351 1.217 0.3351 0.441 1.164 0.441 0.7585 0 1.288-0.3351 0.5292-0.3528 0.8467-0.8996 0.3351-0.5644 0.4762-1.235 0.1588-0.6879 0.1588-1.341 0-0.7585-0.1588-1.217-0.1411-0.4762-0.3351-0.7761-0.1764-0.3175-0.3351-0.5468-0.1411-0.2469-0.1411-0.5292 0-0.3175 0.2117-0.5468 0.2117-0.2469 0.5997-0.2469 0.4762 0 0.7232 0.3704 0.2646 0.3704 0.3528 0.9525 0.1058 0.5821 0.1058 1.235 0 1.164-0.2646 2.258-0.2646 1.094-0.7938 1.976-0.5292 0.8819-1.341 1.411-0.8114 0.5115-1.923 0.5115z" aria-label="ʋ"/><path d="m44.65 66.66h-4.272v-0.3457q0.8767 0 1.235-0.1852 0.3581-0.1852 0.3581-0.6421v-5.223q0-0.321-0.08643-0.4568-0.08643-0.1482-0.321-0.1482-0.1235 0-0.3457 0.02469-0.2222 0.02468-0.4692 0.07408-0.2469 0.03704-0.4445 0.09878v-0.4075l2.395-0.6791h0.3581v6.717q0 0.4568 0.3704 0.6421 0.3704 0.1852 1.222 0.1852z" aria-label="1"/><path d="m54.99 167.2q-0.8996 0-1.446-0.3351-0.5468-0.3528-0.7938-0.9172-0.2469-0.5644-0.2469-1.252 0-0.1588 0.01765-0.3704 0.01765-0.2293 0.07056-0.4586l0.7408-3.492q0.05292-0.2999 0.05292-0.4939 0-0.3528-0.2293-0.441-0.2117-0.0882-0.7232-0.1058-0.01765 0-0.03528 0-0.01765 0-0.05292 0l0.1058-0.4939 2.346-0.2646h0.3881l-1.041 4.833q-0.05292 0.2469-0.08819 0.5292-0.03528 0.2646-0.03528 0.5644 0 0.7761 0.3351 1.217 0.3351 0.441 1.164 0.441 0.7585 0 1.288-0.3351 0.5292-0.3528 0.8467-0.8996 0.3351-0.5644 0.4762-1.235 0.1588-0.6879 0.1588-1.341 0-0.7585-0.1588-1.217-0.1411-0.4762-0.3351-0.7761-0.1764-0.3175-0.3351-0.5468-0.1411-0.2469-0.1411-0.5292 0-0.3175 0.2117-0.5468 0.2117-0.247 0.5997-0.247 0.4762 0 0.7232 0.3704 0.2646 0.3704 0.3528 0.9525 0.1058 0.5821 0.1058 1.235 0 1.164-0.2646 2.258-0.2646 1.094-0.7938 1.976-0.5292 0.8819-1.341 1.411-0.8114 0.5115-1.923 0.5115z" aria-label="ʋ"/><path d="m65.24 170.8h-4.865v-0.4198l1.877-1.877q0.6174-0.6297 1.025-1.136 0.4075-0.5186 0.605-1.037 0.2099-0.5186 0.2099-1.161 0-0.6914-0.4198-1.099-0.4075-0.4198-1.124-0.4198-0.605 0-1.037 0.2593-0.4198 0.2593-0.7655 0.9507l-0.2963-0.1235q0.284-0.9014 0.9013-1.395 0.6174-0.4939 1.519-0.4939 0.7038 0 1.235 0.2716 0.5309 0.2593 0.8273 0.7408 0.3087 0.4692 0.3087 1.124 0 0.5433-0.2346 1.05-0.2222 0.4939-0.6791 1.025-0.4445 0.5309-1.099 1.198l-1.63 1.543v0.0617l0.8643-0.037h1.716q0.4939 0 0.6914-0.2222 0.1976-0.2222 0.4075-0.7779h0.3581z" aria-label="2"/></g><path transform="matrix(.2646 0 0 .2646 -18.32 48.48)" d="m54.78 221q-6 0-9.6-2.2-3.6-2.267-5.2-6-1.533-3.733-1.533-8.133 0-7 2.133-12.4 2.133-5.467 5.8-9.133 3.733-3.733 8.4-5.6 4.667-1.933 9.733-1.933 3.4 0 5.267 0.6 1.933 0.6 3 1.267 1.067 0.6 1.867 0.6t1.4-0.6667q0.6-0.6667 1.4-1.733h1.933l-3.133 15.27h-2.2q0.2667-6.667-2.467-9.533-2.733-2.933-7.667-2.933-3.867 0-7.267 1.8-3.4 1.733-6.067 5-2.6 3.2-4.133 7.733-1.467 4.467-1.467 10 0 6.667 3.133 10.2 3.2 3.467 9.8 3.467 2.6 0 5-0.6667 2.467-0.6667 4.8-2 2.333-1.4 4.533-3.4l1.2 1.267q-2.267 2.667-5 4.733-2.733 2.067-6.133 3.267-3.333 1.133-7.533 1.133z" stroke-width="1.7" aria-label="C"/><circle cx="9.148" cy="101" r="0" stroke="#000" stroke-width=".2646"/><circle cx="9.148" cy="101" r="2.249"/></g></svg>
