<svg width="1767pt" height="1318pt" preserveAspectRatio="xMidYMid" version="1.0" viewBox="0 0 1767 1318" xmlns="http://www.w3.org/2000/svg"><g transform="matrix(.1 0 0 -.1 -50.25 1373)"><path d="m1213 13713c-12-37-85-198-92-206-5-5-55-11-112-15-83-6-104-10-104-22s19-16 98-18c53-1 97-5 97-8 0-2-7-20-14-39l-15-35h-85c-79 0-86-2-86-20s7-20 81-20c70 0 80-2 75-16-3-9-9-39-12-68-5-43-3-54 10-59 23-9 46 20 46 58 0 19 4 45 10 59 8 23 15 26 60 26h51l-7-37c-9-45-9-102 0-111 14-13 39 29 50 84l12 58 58 17c86 26 93 39 19 39h-62l16 45c15 45 15 45 68 45 54 0 79 15 54 31-8 5-31 9-52 9-35 0-38 2-31 23 3 12 18 43 33 69 21 38 23 50 13 60-9 9-17 10-30 2-18-12-64-94-74-132-5-19-13-22-53-22-43 0-46 1-39 23 3 12 15 40 26 61 36 70 47 113 35 125-16 16-37 13-44-6zm42-270c-3-10-9-30-12-45-5-26-9-28-59-28h-53l17 45c16 45 16 45 65 45 43 0 48-2 42-17z"/><path d="m2558 13624c-21-21-6-34 36-34 55 0 185-27 203-41 20-17 16-32-18-75-17-22-37-47-43-56-8-11-37-21-82-28-108-16-114-18-114-41 0-19 4-20 65-14 36 4 65 4 65 0 0-3-13-26-30-50-38-55-43-89-14-93 13-2 24 4 28 14s27 47 51 84c45 67 45 67 102 74 32 4 65 11 73 16 16 10 12 12-48 27l-33 8 30 40c17 22 31 52 31 66 0 38-32 74-80 88-51 15-212 26-222 15z"/><path d="m3209 13601c-58-11-105-35-124-65-19-29-5-113 26-155 26-36 55-48 132-57l59-6-34-35c-59-62-194-117-224-92-8 6-14 26-14 44 0 40-23 63-45 45-30-25-8-119 30-134 9-3 39-6 66-6 93 0 269 114 269 175 0 35-36 55-97 55-72 0-113 35-120 102-5 44-4 47 28 64 48 25 276 38 387 22 72-10 85-9 99 4 14 15 13 17-8 29-29 15-359 22-430 10z"/><path d="m1874 13569c-110-87-192-138-220-136-23 2-30-2-32-20-3-17 3-24 22-29 32-8 61 2 114 38 38 26 57 27 33 3-16-18-63-145-59-162 2-10 11-19 19-21 12-2 25 18 49 75 42 102 85 179 127 226 55 61 15 81-53 26z"/><path d="m2190 13534c-19-14-97-57-172-97-76-40-138-78-138-85 0-29 36-21 141 32 62 31 113 56 116 56 2 0-6-18-17-39-24-48-42-124-34-145 14-36 54-4 54 42 0 30 65 153 105 197 19 21 34 44 32 50-7 20-52 14-87-11z"/><path d="m8539 13029c-8-16-9-136-4-458 12-721 10-2011-4-2506-19-638-15-930 11-962 12-15 48-17 48-4 0 20 4922 31 5840 13 617-12 835-24 881-47 22-12 34-14 42-6s130 11 385 11h375l-6-68c-6-77-39-152-92-208-19-20-35-42-35-48 0-16 164-99 186-94 36 7 19 33-44 66l-63 34 21 31c50 76 89 183 90 250v37h473l-21-23c-27-29-29-67-4-67 9 0 33 20 52 45l35 44 733 1c725 0 732 0 732 20s-7 20-722 20c-620 1-726 3-742 15-11 8-15 15-8 15 18 0 33 37 26 64-4 15-17 29-35 35-17 6-42 19-56 31-29 23-68 26-76 7-6-17 1-28 33-50 23-16-16-17-700-17h-724l-47 40c-26 22-56 40-66 40-11 0-61 23-113 51-318 172-706 376-770 406-41 19-160 73-265 120-174 77-420 195-945 450-107 52-298 150-425 218-126 67-286 151-355 185-69 35-323 168-565 298-242 129-528 278-635 332-191 96-536 275-595 310-16 9-129 68-250 130s-265 138-320 170c-55 31-162 90-237 131-76 41-138 79-138 85s9 23 21 38c22 28 20 56-5 56-14 0-50-39-59-63-3-8-19-4-51 13-26 14-49 28-52 31-2 4 8 23 22 44 25 38 28 65 7 72-13 5-63-46-63-64 0-33-1-32-465 185-55 26-123 60-152 77l-52 30-1 208c0 197-6 247-30 247-5 0-14-10-21-21zm96-683c13-188 10-1467-4-1791-21-492-26-561-35-542-4 9-5 142-1 295 11 395 12 1436 2 1840-9 340-9 343 11 331 17-10 20-29 27-133zm142 44c43-22 81-40 85-40s82-36 173-80l165-80-31-56c-25-43-29-58-20-67 10-9 18-5 39 18 15 17 34 41 42 54 15 23 17 23 45 8 57-31 57-30 40-70-8-20-15-41-15-47 0-20 29-9 53 20 14 17 28 30 32 30 7 0 190-100 405-220 85-48 250-136 365-195 116-60 273-142 350-183s259-135 405-210c146-74 337-173 425-220 1245-664 1900-995 2537-1282l227-102-34-29c-43-38-106-139-129-204-9-28-20-98-23-157l-6-108-1371-5c-754-3-1950-7-2657-10l-1286-5-8 72c-10 86-10 424 0 587l7 114 29-44c16-24 29-51 29-60 0-16 39-49 58-49 12 0 92 119 92 137 0 11-7 14-25 11-23-5-24-3-27 51-2 46-6 56-22 59-12 3-27-5-38-19-18-24-18-21-13 141 3 91 8 272 11 403l5 237h133c106 0 147-4 197-20 105-33 199-91 199-122 0-5 11-19 25-32l24-22-35-50c-63-88-27-125 38-39 38 50 49 85 26 85-9 0-9 3 0 12 15 15 15 23 0 40-7 7-25 29-40 50-33 43-97 81-192 114-61 21-88 24-215 24h-146v612c0 337-4 697-9 801-5 103-5 187-2 187 4 0 41-18 83-40zm5446-2781c34-17 109-57 167-89 58-31 157-84 221-117 63-33 151-81 195-105 43-25 126-70 184-100l106-55-356 4c-195 2-446 6-557 9-233 7-213-5-213 130 0 95 18 154 73 242 31 49 95 112 115 112 1 0 31-14 65-31zm1887-470v-32l-392 5c-390 6-393 6-436 29-40 23-44 23-56 7-14-19-35-22-74-12-18 5-20 9-11 20 9 12 96 14 490 14h479zm513 23c3-4-3-17-13-30-18-22-23-22-229-22h-211v60h224c124 0 227-3 229-8z"/><path d="m10070 11665c-11-13-11-19 2-31 14-14 17-14 32 1 9 10 15 22 13 29-6 18-33 18-47 1z"/><path d="m9958 11528c-24-20-68-91-68-110 0-11 8-18 19-18 23 0 94 94 89 117-4 22-20 26-40 11z"/><path d="m9803 11332c-16-10-113-133-113-144 0-13 27-21 43-11 28 15 108 123 105 140-4 19-18 26-35 15z"/><path d="m9576 11049c-40-47-60-89-48-101 6-6 18-8 26-5 22 8 86 99 83 117-4 27-34 22-61-11z"/><path d="m9454 10862c-18-12-94-130-94-146 0-19 14-28 33-20 23 8 99 130 95 150s-18 27-34 16z"/><path d="m9071 10315c-28-35-51-71-51-79 0-19 25-27 43-13 30 25 97 120 97 138 0 39-38 20-89-46z"/><path d="m8875 10073c-36-50-41-76-14-81 18-3 99 91 99 114 0 8-10 14-25 14-18 0-34-13-60-47z"/><path d="m505 12960c-4-6-3-16 1-20 5-5 144-11 309-14s372-10 460-16c310-20 624-31 1035-36 409-5 415-4 385 14-28 17-61 20-365 25-365 7-741 22-945 38-215 17-871 24-880 9z"/><path d="m9890 12909c-41-11-92-32-114-45l-38-26 7-91c7-102-1-136-43-179-41-44-92-33-92 20 0 13 12 72 26 132 28 115 27 155-6 165-38 12-150-73-150-115 0-30 56-28 64 3 6 20 53 64 61 55 2-1-8-43-21-93-42-161-27-226 55-240 46-8 70 3 112 48 43 48 53 88 46 187-6 86-6 86 21 102 24 14 100 37 175 53 29 6 36 29 11 39-22 8-29 7-114-15z"/><path d="m3546 12894c-3-9-6-18-6-20s342-4 760-4c753 0 760 0 760 20s-7 20-754 20c-678 0-754-2-760-16z"/><path d="m4600 12795c-13-15-12-240 6-1517l6-437-38-7c-38-7-671-3-2458 16-748 7-1006 13-1130 26-429 42-426 42-426 15 0-20-18-17 335-58 153-17 936-28 2773-39l944-5-7-472c-4-260-10-638-14-842l-7-370-38-95c-73-183-162-292-288-352-44-21-67-38-65-48 4-26 38-23 104 11 121 62 228 188 286 339 71 186 64 105 73 891 10 967 10 997 0 2029-5 570-12 910-19 918-13 16-22 15-37-3z"/><path d="m9935 12544c-44-36-92-68-107-71-19-4-28-12-28-24 0-24 55-26 88-3 27 18 27 12 5-66-12-44-13-64-5-72 20-20 40 0 56 59 20 74 64 161 95 190 26 25 23 53-6 53-10-1-54-30-98-66z"/><path d="m10143 12573c-9-21-18-71-19-112-3-69-5-76-42-120-72-86-86-121-48-121 10 0 88 83 112 118 1 2 16-6 32-18 20-15 40-20 67-18 52 4 56 24 7 38-63 16-70 32-32 79 17 22 52 58 77 80 29 27 43 46 39 56-10 27-34 16-101-46-36-34-65-57-65-52s7 35 15 68c9 32 13 65 11 72-10 25-37 13-53-24z"/><path d="m1135 12503c-30-7-104-82-130-133-34-67-102-268-109-325-4-27-11-99-16-160-11-142-1-165 72-165 62 0 178 53 178 82 0 11-60 1-129-23-30-10-58-16-64-12-11 7-3 168 13 253 9 46 19 62 78 125 82 86 122 142 156 220 26 57 32 100 18 121-9 15-42 23-67 17zm25-52c0-24-62-143-104-198-78-102-81-95-24 44 36 88 128 198 128 154z"/><path d="m1817 12277c-61-64-121-153-114-171 12-30 35-16 80 47 25 34 54 71 66 81 21 19 21 19 21-5-1-13-7-53-15-89s-14-102-15-148c0-75 2-85 25-107 32-33 98-34 145-2 57 38 82 101 92 235 10 138 15 145 97 140 62-3 77 11 36 38-37 24-120 13-155-21-23-23-26-35-31-139-7-131-31-196-81-222-83-43-94 24-49 282 5 28 6 66 2 85-5 27-12 35-34 37-20 3-36-7-70-41z"/><path d="m3400 12223c-33-12-61-49-91-122-60-145-152-259-190-235-15 9-5 69 21 129 27 62 26 134-1 169-23 29-39 31-104 15-55-14-85-42-85-78 0-60 55-63 62-3 2 22 10 29 41 36 30 8 40 7 48-5 14-23 10-64-12-116-11-26-23-73-26-103-4-45-2-58 13-72 70-62 175 13 254 182 17 36 41 85 53 110l22 45h92c93 0 116 6 95 27-20 20-154 35-192 21z"/><path d="m2258 11892c-65-43-138-108-138-124 0-23 42-24 60-3 20 24 30 18 20-11-17-44-13-84 9-84 14 0 23 11 31 38 7 20 27 65 46 100 19 34 34 72 34 82 0 25-26 26-62 2z"/><path d="m3753 11826c-23-10-33-22-33-37 0-22 5-23 83-3 31 7 57-9 57-36 0-9-31-46-70-82-70-65-87-100-54-112 9-3 64-6 124-6 79 0 111 4 119 14 15 18-4 26-72 27-29 1-65 4-81 8l-29 6 48 39c76 63 90 122 38 168-27 24-91 31-130 14z"/><path d="m12352 11724c-54-37-147-212-216-403-15-41-36-81-46-88-15-11-18-18-10-32 6-12 6-30-1-52-5-19-12-75-16-126-6-89-5-92 20-117 37-37 69-33 177 19 109 54 150 81 150 101 0 25-35 15-141-41-156-82-168-76-149 67 17 124 27 153 73 211 176 217 277 414 237 462-16 19-50 19-78-1zm-10-147c-39-81-112-192-112-171 0 40 140 288 149 263 1-5-15-47-37-92z"/><path d="m2617 11703c-4-3-7-23-7-42 0-21-15-68-35-110-38-79-43-101-21-101 45 0 127 173 112 234-6 25-33 35-49 19z"/><path d="m1336 11628c-20-64-35-153-28-160 28-28 78 72 70 139-3 29-35 45-42 21z"/><path d="m7505 10314c-69-35-128-121-105-150 20-23 38-16 50 21 6 19 26 46 43 61l32 27 3-38c2-21-3-84-12-139-34-224-27-288 33-301 39-8 92 17 124 59 46 60 120 201 132 251 11 50 11 50 76 66 46 12 65 21 68 34 3 16-3 18-63 12-66-6-66-6-66 19 0 66-59 88-99 38-32-40-28-81 9-102 28-15 30-21 25-52-9-48-100-211-140-250-21-20-40-30-49-27-23 9-21 113 4 260 20 116 19 187-3 215-12 16-26 15-62-4zm261-101c-11-11-17 4-9 23 7 18 8 18 11 1 2-10 1-21-2-24z"/><path d="m2985 10141c-95-18-133-63-121-148 8-58 50-151 71-159 31-12 41 13 20 48-10 18-24 57-31 87-23 98 14 130 151 130 91 1 148-24 172-73 15-33 15-38-2-77-11-22-54-80-97-127-92-102-102-131-69-198 34-71 77-52 47 20-8 20-12 44-9 54 4 9 37 51 73 92 96 108 120 147 120 196 0 91-85 155-214 160-39 1-89-1-111-5z"/><path d="m17206 1e4c-38-41-37-111 1-111 41 0-22-141-99-221-33-34-41-37-75-33-69 10-67 7-58 92 15 149 7 209-29 218-30 7-104-24-135-57-24-26-43-83-34-105 6-17 42-19 47-1 15 56 26 74 55 94 19 13 38 23 44 23s7-36 2-102c-12-143-11-157 13-181 33-32 140-37 181-7 60 42 137 167 155 253 6 26 9 27 69 27 34 0 69 5 77 10 26 17-8 30-77 30-61 0-63 1-63 26 0 58-40 83-74 45z"/><path d="m7837 9783c-59-46-75-103-26-90 23 6 22 8 4-68-18-77-19-120-1-134 20-17 27-3 52 104 12 50 29 111 39 136 31 79 0 103-68 52z"/><path d="m1880 9682c0-9 9-23 19-29 11-7 26-36 35-65 20-70 9-123-35-162-30-27-36-28-99-24-82 6-124 29-144 79-25 62-56 63-74 1-16-51-68-112-96-112-13 0-35 9-50 21-26 20-26 22-26 144 0 136-4 155-30 155s-30-19-30-138c0-129 11-174 50-202 65-46 140-34 185 30 15 22 29 40 32 40 2 0 20-11 41-25 106-70 259-56 311 29 45 71 34 194-21 253-26 28-68 31-68 5z"/><path d="m17315 9600c-10-16 4-30 31-30 41 0 31-42-21-88-51-45-56-64-20-80 38-17 200-16 214 2 15 17-5 26-59 26-20 0-52 3-69 6l-31 6 30 35c32 36 41 98 18 121-15 15-84 16-93 2z"/><path d="m2459 9596c-3-3-34-10-69-15-92-15-241-62-247-79-13-32 15-35 94-9 43 14 116 33 163 42 84 17 130 36 130 55 0 10-62 14-71 6z"/><path d="m3216 9371c-3-4-16-6-29-4-30 6-43-20-21-42 20-19 44-19 72 1 28 19 30 54 3 54-11 0-22-4-25-9z"/><path d="m15483 9013c-27-10-11-33 43-63 49-29 54-34 42-49-8-9-35-40-61-70-49-55-59-87-30-98 11-4 22 1 32 17 40 61 122 143 229 231 10 8 10 14 1 25-17 21-30 18-73-17-38-32-38-32-74-14-67 32-97 42-109 38z"/><path d="m15815 8952c-53-33-205-215-205-245 0-27 30-20 59 14 14 17 42 49 63 72l36 42 36-18c20-9 48-17 62-17 40 0 26 32-26 56l-44 21 42 28c65 43 43 87-23 47z"/><path d="m16472 8877c-44-45-56-87-24-87 20 1 94 83 96 108 2 31-30 22-72-21z"/><path d="m585 8839c-11-17 25-48 79-66 46-16 160-18 1246-24 967-5 1229-9 1375-22 99-9 268-23 375-32 107-8 233-22 280-30 112-20 224-20 240 0 18 22 2 36-33 30-18-3-66-1-107 5-137 19-323 39-465 50-469 37-540 39-1540 40-1138 1-1310 6-1377 38-50 25-64 27-73 11z"/><path d="m16320 8675c-5-14-7-32-3-40 4-13 0-15-20-10-32 8-44-11-22-35 25-27 115-64 128-51 16 16 1 38-40 60-22 12-31 20-21 21 19 0 34 40 24 65-9 23-35 18-46-10z"/><path d="m15167 8566c-61-25-92-48-108-78-14-26 6-58 37-58 22 0 25 4 22 28s3 30 52 55c31 15 56 23 58 17 2-5-8-36-23-67-38-82-74-190-81-245-6-41-3-50 19-72 39-39 75-34 141 20 45 36 64 62 96 128 22 46 46 109 53 141 14 71 28 81 127 89 119 10 123 46 5 46-115 0-166-30-180-105-14-79-67-188-118-242-90-96-113-61-62 93 13 39 35 94 49 122 27 54 33 101 16 133-14 25-32 24-103-5z"/><path d="m16520 8471c0-24 142-106 166-97 30 12 8 40-61 78-79 43-105 47-105 19z"/><path d="m17632 8398c-7-7-12-32-12-57 0-44 14-75 64-146l19-26-57-58c-31-31-53-60-50-64 18-18 53-3 94 38 24 25 48 45 53 45s31-18 57-40c52-44 92-62 115-54 23 9 18 33-11 44s-114 80-114 93c0 4 13 25 30 45 69 86 108 145 103 158-12 32-42 10-107-77-67-89-68-90-88-72-43 39-74 132-48 148 14 9 0 35-19 35-9 0-22-5-29-12z"/><path d="m16784 8335c-4-8-1-21 5-28 17-22 110-69 121-62 25 15 7 42-49 73-67 37-70 37-77 17z"/><path d="m17037 8203c-4-3-7-14-7-24 0-19 91-74 126-76 31-2 148-62 239-122l78-51h-57c-49 0-56-2-56-20 0-19 7-20 109-20 144 0 142-4 51 134-33 51-49 66-65 64-21-3-25-26-10-61 5-12-14-5-66 26-41 24-117 63-169 86-52 24-102 49-111 57-16 15-51 19-62 7z"/><path d="m15825 8179c-11-17 5-62 33-91 26-28 26-28 5-50-33-36-83-120-83-140 0-10 7-18 15-18 14 0 55 37 55 51 0 4 15 25 33 47l33 39 30-24c45-38 87-63 107-63 33 0 17 29-43 76-65 51-66 57-16 103 14 14 26 33 26 43 0 30-37 21-71-17-36-40-52-35-76 23-13 32-36 42-48 21z"/><path d="m15492 8153c-51-26-66-48-39-59 7-2 38 7 67 20 30 14 58 22 63 17 15-15-19-74-68-121-78-75-97-132-49-150 42-16 161-12 189 6 41 27 30 37-34 29-64-7-121 0-121 16 0 5 29 41 64 78 73 78 90 123 62 166-22 33-67 33-134-2z"/><path d="m4348 7979c-81-42-180-198-239-374-17-51-23-93-24-156 0-79 2-88 28-122 34-45 58-52 167-51 63 1 103 8 157 27 65 23 74 24 110 12 51-19 160-19 213 0 39 14 42 14 35-3-63-164-106-345-87-364 21-21 39 1 52 64 6 34 30 117 51 183l39 120h78c98 0 124 7 171 50 58 52 67 83 42 133-40 78-96 101-190 79-53-13-55-15-87-78-19-35-33-74-34-86 0-28-34-46-112-63-50-10-148-6-148 7 0 2 29 32 64 66 57 55 66 69 77 120 12 54 11 59-8 78-25 25-87 28-130 5-72-37-124-146-110-231 5-33 5-33-66-54-40-12-94-21-121-21h-49l21 23c68 72 7 176-79 133-28-14-29-13-29 7 0 17 13 28 58 47 78 34 211 162 251 242 38 76 56 159 41 188-23 42-84 50-142 19zm89-79c-9-76-60-162-141-237-69-64-123-100-133-89-3 3 4 34 17 68 64 177 165 308 239 308 23 0 24-2 18-50zm216-306c14-5 14-11 2-51-7-25-22-54-32-65-32-36-92-80-101-74-13 8 6 103 26 134 15 23 68 62 84 62 3 0 13-3 21-6zm403-69c12-8 27-28 34-45 11-28 11-34-7-58-11-15-35-35-54-44-37-19-125-25-114-8 3 6-3 14-13 18-20 7-20 8 1 60 33 80 101 114 153 77zm-833-104c6-26-19-61-44-61-23 0-24 11-4 50 18 34 40 39 48 11z"/><path d="m2291 7870c-109-50-175-145-202-291-16-90-7-129 40-172 83-75 326-77 339-3 4 16 0 18-25 10-15-5-73-9-128-9-113 0-142 11-170 65-20 39-6 126 34 215 31 67 66 106 123 136 71 37 100 23 137-64 15-36 26-48 38-45 46 10-11 147-68 167-44 15-67 14-118-9z"/><path d="m6830 7841c-67-21-154-89-148-117 5-30 24-26 71 15 58 49 105 66 166 56 83-13 116-11 116 5 0 30-144 59-205 41z"/><path d="m2761 7789c-55-11-86-31-106-70-17-32-17-94 0-94 6 0 21 23 35 50 21 41 32 53 67 64 34 12 48 13 84 2 53-16 106-69 115-116 7-39-16-117-49-167-46-68-149-98-217-63-38 20-46 54-31 128 13 63 6 85-23 74-19-8-36-69-36-135 0-45 4-58 28-82 54-53 154-65 230-26 64 33 97 70 128 146 47 117 18 212-82 266-49 27-88 33-143 23z"/><path d="m3432 7678c-17-17-15-63 3-78 23-19 64-4 71 27 4 14 2 33-3 42-13 20-54 26-71 9z"/><path d="m7756 7628c-3-13-8-48-11-78-6-49-16-80-71-208-33-76-2-93 59-32 23 24 58 53 78 66l35 24 45-21c52-26 230-38 317-21 47 8 54 7 63-9 18-34 70-52 166-57 86-4 95-3 156 26 36 16 71 40 77 53 13 23 13 23 27-4 7-15 19-27 27-27 16 0 49 36 70 78 13 24 23 32 44 32 24 0 67 10 161 36 22 7 23 5 18-21-13-70 41-102 152-89 40 4 66 2 82-7 37-20 145-15 209 10 65 25 60 24 60 8 0-28 36-47 89-47 52 0 120 27 211 85l36 23 26-23c14-12 58-30 97-40 39-9 71-21 71-26s-21-22-46-37c-117-69-159-118-164-187-3-49-1-55 24-55 20 0 24 6 30 48 7 56 40 95 114 138 68 39 92 64 92 95 0 35-15 46-86 64-111 28-118 37-88 101 32 67-10 89-50 27-32-52-60-75-138-118-156-85-204-65-127 54 16 25 29 55 29 68 0 21-4 24-27 21-22-2-33-14-54-53-14-27-40-60-59-73-42-28-121-52-174-52h-40l45 29c74 47 109 98 109 157 0 30-39 48-84 38-40-9-120-93-141-149-20-50-36-59-101-53-37 3-39 5-42 39-2 27 3 44 23 68 47 55 12 82-48 37-36-27-207-84-207-70 0 3 11 27 25 54 31 62 32 80 2 80-18 0-29-14-56-70-27-54-39-70-56-70-28 0-45-18-46-49-1-24-2-23-12 8-14 45-67 78-147 90-99 16-161 14-196-8-33-20-84-80-84-99 0-33-237-49-330-21-46 14-49 21-17 37 116 59 223 123 225 136 6 30-25 27-99-7-41-19-95-44-121-55-27-12-58-31-70-44-24-25-82-68-92-68-3 0 1 15 9 33 20 49 38 153 31 182-8 32-44 34-50 3zm1621-80c-12-30-87-98-107-98-18 0 4 39 46 83 55 57 81 63 61 15zm-769-74c56-32 36-86-44-119-43-18-185-20-217-4-36 19-36 28 1 65 23 23 33 41 29 54-7 27 6 30 109 26 66-2 100-8 122-22zm89-76c-3-8-6-5-6 6-1 11 2 17 5 13 3-3 4-12 1-19z"/><path d="m12177 7636c-47-17-61-29-100-85-23-34-32-41-35-28-7 37-45 17-124-67-90-97-144-128-222-130-80-2-116 44-45 58 153 30 314 207 212 232-88 23-231-63-278-165-17-39-20-41-62-41-36 0-43-3-43-20s7-20 39-20c35 0 39-3 44-30 8-39 55-63 124-62 84 1 146 27 213 89 33 30 60 52 60 49 0-4-27-89-60-189-103-309-117-382-75-382 25 0 57 58 83 150 24 83 82 252 109 314l19 44 80 2c131 3 192 48 202 146 4 43 7 49 27 49 12 0 43 9 69 20 51 23 146 38 146 23 0-14-58-92-113-151-77-83-44-124 51-60 27 18 62 41 78 50s44 29 62 44l34 28-8-40c-12-60-10-76 8-87 13-9 33 0 104 47 57 38 84 52 79 40-4-11-9-36-12-56-4-30-1-41 20-62 22-22 35-26 83-26 62 0 148 20 219 50l46 20-7-35c-13-69 51-51 81 22 12 29 18 33 53 33 21 0 61 7 88 15s50 15 52 15c1 0 2-9 2-20s11-27 25-36c22-14 45-16 150-11 99 4 125 2 125-8 0-19 55-35 123-35 67 0 163 39 222 91 20 18 43 29 55 27 20-3 20-4-6-40-14-20-27-51-27-70-2-30 2-35 45-56 65-32 286-44 336-18 39 20 32 40-11 33-48-7-274 10-297 23-27 15-25 29 10 76 44 58 36 94-21 94-26 0-27 2-22 34 11 71-14 103-94 120-42 9-99-17-118-55-34-65-9-115 67-134l41-10-63-33c-51-26-74-32-126-32-65 0-76 7-49 30 8 7 15 21 15 31 0 23-31 25-63 5-53-35-257-41-257-9 0 8 28 44 61 79 52 54 60 66 49 79-20 25-37 18-93-39-37-36-72-60-108-73-71-26-119-35-119-22 0 5 16 39 35 75 41 76 44 97 13 92-15-2-34-24-60-68-20-36-47-74-60-84-43-36-171-88-247-102-66-11-79-11-99 2-14 10-21 21-18 31 3 8 6 19 6 24s19 30 41 54c39 42 45 45 91 45 89 0 138 50 83 86-23 15-29 15-97-6-78-23-162-66-242-124-28-19-52-33-54-31-3 2 5 31 18 64 36 96 13 116-62 56-23-20-60-49-80-65-20-17-39-30-42-30-4 0 9 23 29 51 62 90 44 126-60 116-65-6-193-50-207-71-5-7-8-5-8 5 0 21-39 56-70 63-14 3-42-1-63-8zm71-48c35-43 18-137-30-167-23-14-158-29-158-17 0 11 40 87 68 129 38 57 96 83 120 55zm1872-6c18-15 21-24 15-50-6-30-9-32-49-32-58 0-80 17-67 52 18 47 63 61 101 30zm-2280-16c0-33-170-144-203-133-21 7 96 113 143 130 57 20 60 20 60 3z"/><path d="m10860 7553c-68-65-79-164-23-200 45-30 225-23 326 11 42 14 80 26 82 26 3 0 5-22 5-49 0-56 19-82 45-61 8 7 15 21 15 31 0 20 31 135 48 179 20 54-25 71-55 20-38-65-154-116-288-126-99-8-152 0-159 24-8 25 10 82 36 109 32 34 41 29 34-22-7-40-5-45 12-45 26 0 39 17 47 62 6 29 3 40-14 57-32 32-66 26-111-16z"/><path d="m11003 7575c-3-9-3-19 1-22 7-7 532-4 552 4 8 3 14 11 14 19 0 12-47 14-280 14-244 0-281-2-287-15z"/><path d="m5372 7539c-34-63-77-123-87-121-5 1-12 23-15 48-6 53-32 81-51 54-9-14-6-81 6-140 5-21-2-31-50-64-32-23-55-47-55-58 0-28 32-22 82 16l44 34 28-34c19-25 35-34 56-34 41 0 45 15 10 40-56 40-57 55-7 109 59 63 103 147 86 167-17 21-28 17-47-17z"/><path d="m6028 7545c-12-14-36-51-53-82-25-47-40-62-90-90-59-32-135-45-135-23s29 76 59 110c21 23 31 44 29 60-5 39-32 35-61-8-22-30-40-43-90-60-34-12-82-25-106-28l-45-7 21 35c11 19 28 46 36 59 19 28 9 53-18 47-18-3-32-23-75-101-12-22-33-42-48-48-23-8-30-19-40-62-15-64-15-84-2-92 17-11 44 12 74 63 29 50 30 50 90 57 34 4 76 13 95 21 18 8 34 14 36 14 1 0 0-22-3-49-4-43-2-50 18-61 33-18 122-6 173 22 41 23 42 23 61 4 16-16 27-18 83-12 36 4 87 17 114 30 37 18 49 21 49 10 0-29 47-47 113-42 50 3 83 13 153 48 49 24 91 46 94 47 3 2 3-20 1-49-4-62 11-78 75-78 45 0 158 52 200 91 21 20 21 20 27 0 6-23 44-41 87-41 75 0 231 74 214 101-9 15-34 10-92-18-31-15-78-29-109-31-54-5-55-4-48 19 4 13 20 46 36 73 23 38 27 51 18 62-6 8-15 14-19 14s-42-36-85-79c-83-86-172-141-225-141-32 0-33 0-26 41 6 38 58 143 77 155 14 8 10 31-7 38-10 4-41-17-90-60-98-85-217-144-291-144-66 0-69 17-18 81 40 51 44 75 13 85-18 5-27 1-43-22-62-89-150-144-231-144-28 0-31 3-27 23 3 12 16 33 28 47 49 54 69 127 38 137-7 3-22-7-35-22z"/><path d="m3372 7378c-16-16-15-53 1-66 20-17 85-3 92 19 12 38-4 59-44 59-20 0-42-5-49-12z"/><path d="m14844 7335c-4-9-2-21 4-27 16-16 47-5 47 17 0 26-42 34-51 10z"/><path d="m1945 7161c-22-37 13-40 740-52 940-16 890-16 890 1 0 10-15 17-50 22-27 4-347 12-710 17-363 6-705 13-761 17-75 5-103 4-109-5z"/><path d="m6167 6843c-16-15-5-44 20-56 23-10 0-13-157-18-391-14-471-20-468-38 4-19 124-21 518-7l245 9-38-42c-31-34-36-45-26-57 13-16 18-14 87 44 28 24 52 53 52 63 0 25-35 46-106 65-32 8-69 22-81 30-25 15-36 17-46 7z"/><path d="m4260 6730c0-19-8-20-267-22-230-3-268-5-268-18s40-15 288-18c280-2 287-3 287-22 0-35 27-34 64 4 20 19 36 40 36 46 0 19-64 50-102 50-31 0-38-4-38-20z"/><path d="m2360 6710c0-19-8-20-227-22-195-3-228-5-228-18s35-16 225-22c243-7 290-12 290-34 0-8 7-17 15-21 19-7 76 53 69 71-8 21-87 66-116 66-21 0-28-5-28-20z"/><path d="m2702 6678c-12-15-52-156-59-209-5-41 11-60 32-38 22 23 75 232 63 246-13 16-23 16-36 1z"/><path d="m5973 6539c-16-16-17-55-2-65 6-4 31-12 54-18l42-11-12-50c-11-40-24-60-66-99-93-86-225-135-280-106-25 14-24 24 6 114 50 149 20 197-92 146-48-21-83-70-83-113 0-24 4-28 23-25 14 2 23 11 25 25 4 31 56 83 81 83 27 0 26-11-4-100-29-85-31-117-10-147 58-82 248-32 381 101 53 53 63 70 74 119 13 54 15 57 44 57 56 1 196 36 217 54 38 32 6 35-116 11l-120-24-37 25c-43 30-107 42-125 23z"/><path d="m2305 6519c-12-18 4-57 25-64 23-7 19-40-11-91-24-39-110-120-145-136-24-11-28-10-46 12-17 21-19 33-13 80 10 74 9 130-3 142-17 17-70-2-122-43-48-38-57-59-24-59 9 0 30 11 47 24 56 41 55 43 53-58-1-86 1-96 22-119 13-14 35-28 48-31 71-18 229 122 255 226l13 48h63c64 0 129 22 118 40-3 5-43 6-89 3-76-5-85-4-105 16-22 22-75 29-86 10z"/><path d="m4178 6514c-15-8-31-26-34-41-6-21-1-31 21-50 28-24 28-24 10-63-40-88-174-185-247-178-28 3-33 7-36 32-2 16 9 66 23 113 29 90 28 132-2 165-45 49-233-18-233-84 0-32 31-34 53-3 36 49 139 75 151 38 6-20-4-66-28-128-16-42-21-132-8-152 10-16 57-33 90-33 36 0 146 53 197 94 22 18 57 63 79 100 37 63 41 66 76 66 50 0 142 18 154 30 19 19-6 25-90 22l-84-2v29c0 20-8 35-22 45-27 19-35 19-70 0zm38-61c-10-10-19 5-10 18 6 11 8 11 12 0 2-7 1-15-2-18z"/><path d="m3066 6381c-4-6-5-15-2-20 11-17 125-32 226-29 85 2 105 6 105 18s-19 16-90 21c-49 3-122 9-161 13-49 5-74 4-78-3z"/><path d="m3210 6284c-47-7-86-13-87-13-2-1-3-11-3-22 0-21 3-21 73-15 72 8 187 29 220 41 67 26-57 32-203 9z"/><path d="m11227 6283c-16-15-4-38 44-86 78-78 98-114 115-208 34-177 3-388-85-572-20-42-34-82-30-88 37-60 137 155 175 375 25 142 2 343-48 425-28 46-137 161-153 161-6 0-15-3-18-7z"/><path d="m10144 6233c-18-42-38-224-29-264 8-34 31-44 45-19 5 10 10 54 10 97s7 105 15 138c9 32 13 65 11 72-10 25-37 13-52-24z"/><path d="m4948 6253c-120-3-128-5-128-23 0-19 7-20 130-20 99 0 138 4 161 15 35 18 30 36-9 33-15-1-84-4-154-5z"/><path d="m6387 6195c-24-12-60-40-164-125-16-13-5-40 16-40 9 0 43 21 75 46 41 32 57 41 53 28-3-11-20-56-36-102-38-101-41-145-10-140 16 2 26 21 48 88 15 47 42 118 60 159 17 41 29 81 27 88-7 17-34 16-69-2z"/><path d="m9227 6163c-61-48-127-175-163-314-12-45-15-88-11-146 8-135 57-208 147-220 48-7 53 10 11 31-42 22-89 81-98 123-33 154 46 403 155 493 23 19 33 34 29 44-9 23-29 20-70-11z"/><path d="m2383 6139c-18-18-16-58 3-66 10-4 22 0 28 9 28 38 76 24 76-22 0-40-56-101-131-142-86-48-77-63 36-63 98 0 151 16 161 47 8 28 4 29-51 13-67-21-75-18-40 12 55 48 75 83 75 133 0 67-16 83-86 88-40 2-63-1-71-9z"/><path d="m16812 6090c-18-22-40-52-47-67-12-23-15-24-21-10-7 19-68 24-79 7-3-5-15-10-27-10-36 0-157-63-158-82 0-25 49-23 111 3 27 12 53 19 56 15 11-10-24-69-79-133-53-62-74-91-153-214-27-43-112-168-187-278s-161-244-191-298c-29-54-67-120-84-148-16-27-69-117-118-198-89-150-183-287-332-484-130-170-325-456-409-598-42-71-110-186-152-255-81-134-164-277-198-338-11-20-35-59-52-86-29-45-35-49-70-49-54 0-231 74-202 85 11 4 20 14 20 23 0 8 23 59 51 112 29 54 63 121 77 148 14 28 36 69 49 92l25 43 36-21c20-11 61-34 91-50 34-20 64-29 84-27 40 4 46 25 10 38-55 20-189 95-199 111-3 5-17 9-32 8-24 0-32-11-72-91-25-50-75-148-112-217s-68-134-68-143c0-30 29-41-370 142-193 88-644 281-930 398-135 55-315 130-400 167-448 193-585 249-1035 425-187 73-401 157-475 186s-324 138-556 242c-232 105-508 227-615 272-107 46-268 119-359 163-91 43-270 128-398 187-128 60-297 147-375 193s-158 93-177 104c-31 17-34 23-32 58 4 62-24 90-87 89-27 0-57-7-66-14-10-8-27-19-38-25-14-7-24-25-30-54-12-61 10-85 73-78 25 3 57 8 71 12 17 5 36 0 60-15 163-103 380-222 523-287 94-43 243-113 331-156 149-74 440-207 450-207 6 0 291-125 480-210 575-261 639-289 815-355 235-88 791-308 965-382 99-41 288-122 420-178 132-57 341-144 465-195 278-113 726-306 920-395 191-88 292-133 425-189l111-47-4-36c-3-27 0-40 14-50 20-15 110-18 119-4 3 5 19 12 35 16s33 13 37 20c7 11 135 14 673 19 677 6 1226 19 1313 32 44 6 49 5 47-12-4-35 0-44 20-44 13 0 24 10 30 25 11 28 42 45 48 27 7-21 41-13 47 11 10 48 18 334 14 557-2 129-2 327-1 440 6 577 3 1031-7 1110-7 47-14 303-17 570l-6 485 32-37c31-38 53-47 65-28 8 13-9 42-68 120-75 96-78 97-125 40zm59-1035c14-199 19-801 9-1190-2-104 0-254 4-332l9-143h-453l-6-24c-6-26 1-280 11-376 9-91 13-100 40-100 13 0 26 3 28 8 2 4-2 45-9 92s-13 147-13 223l-1 137h400v-72c0-40-5-134-12-210l-12-136-48 19c-66 26-118 26-118-1 0-13 9-22 28-26 15-4 45-16 67-28l40-21-105-8c-319-23-1994-47-2013-28-6 6 0 25 19 56 46 75 67 109 98 161 16 27 49 83 74 124s103 174 174 294c132 224 320 503 508 751 151 199 185 250 296 436 104 175 106 178 192 329 29 52 115 186 190 297 137 202 189 279 256 383 39 61 130 164 123 139-3-9-8-40-12-70-5-44-4-58 9-68 24-20 46 3 46 48 0 20 10 73 22 118 21 76 24 82 45 77 16-5 25-1 30 12 3 11 18 34 32 53l26 34 6-379c3-208 12-469 20-579z"/><path d="m9499 6030c-39-21-159-144-159-163 0-17 20-37 37-37 6 0 19 16 28 34 17 35 112 132 121 123 3-2 0-50-5-106-9-83-8-108 3-136 38-89 164-91 201-2 7 18 16 80 20 139 8 123-1 113 123 123 57 5 82 11 82 20 0 19-24 25-98 25-82 0-139-15-152-40-5-10-10-58-10-107 0-108-13-160-44-175-31-13-64 4-72 38-4 15-3 61 1 103 18 176 5 204-76 161z"/><path d="m4294 6007c-28-24-28-25-10-51 20-31 51-31 51-1 0 15 9 22 35 26 19 4 37 5 38 4 12-11-17-75-55-122-48-59-66-102-53-124 7-11 21-10 82 3 40 10 98 21 128 25 39 6 55 12 55 23 0 12-14 15-70 15-38 0-86-4-105-8-34-8-35-8-15 10 30 26 74 95 84 131 5 17 6 44 2 59-7 27-11 28-73 31-58 2-69 0-94-21z"/><path d="m10923 5950c-12-5-27-18-33-30s-20-30-30-40c-23-23-39-80-42-148-3-64 19-91 80-99 88-12 246 94 267 180 14 54-28 109-104 135-39 14-106 15-138 2zm102-41c50-14 85-45 85-76 0-61-132-158-203-151-29 3-32 6-35 42-4 44 22 132 46 160 15 16 45 33 62 35 3 1 23-4 45-10z"/><path d="m10385 5900c-15-24 12-30 146-30 132 0 139 1 139 20s-7 20-139 20c-83 0-142-4-146-10z"/><path d="m10508 5793c-120-3-128-5-128-23 0-19 7-20 133-20 106 0 137 3 156 16 18 13 20 18 10 25-8 5-21 8-29 7s-72-4-142-5z"/><path d="m9914 5678c-72-69-92-108-57-108 9 0 27 10 40 22l23 21v-30c0-17-5-33-11-35-22-7 10-50 34-46 19 3 23 12 29 58 4 30 16 77 27 103 25 58 26 73 5 81-11 4-39-16-90-66z"/><path d="m1207 5521c-18-22-26-46-31-98-4-38-4-76-2-84 14-37 36-288 36-410 0-172-28-345-80-489-45-127-61-159-102-205-27-31-29-38-17-50 11-11 27-12 70-6 30 4 61 5 68 3 6-2 21-23 34-45 19-38 21-56 21-187 0-116-6-173-28-285-33-166-46-403-26-475 16-61 85-130 129-130 42 0 40 21-6 51-68 44-78 75-77 229 1 104 8 177 33 320 29 163 32 201 29 320-3 105-8 143-22 170-31 60-56 80-98 80-21 0-38 2-38 4 0 3 9 20 20 39 37 63 101 260 122 376 16 91 20 154 19 292-1 96-6 202-11 235-18 107-24 278-11 302 15 28 27 22 34-18 11-52 57-36 57 20 0 22-55 70-80 70-10 0-29-13-43-29z"/><path d="m2716 5388c-2-13-14-68-26-123-30-132-30-150-5-150 15 0 24 12 37 50 28 84 50 195 44 221-8 32-44 33-50 2z"/><path d="m4818 5348c-43-46-154-279-178-373-11-43-20-102-20-131 0-46 4-56 25-70 48-31 109-21 230 37 75 37 111 60 114 73 3 16-1 18-28 13-17-4-76-27-131-52-79-37-107-45-131-40-30 7-31 8-24 52 5 36 20 61 71 121 109 129 200 343 165 386-22 26-60 19-93-16zm32-85c-27-83-114-233-127-219-5 5 66 160 103 224 30 51 41 49 24-5z"/><path d="m2377 5236c-96-26-115-71-77-181 28-81 26-122-9-177-56-88-150-119-187-63-13 20-12 35 6 135 20 112 19 181-3 208-24 30-125-21-185-94-54-65-50-114 8-114 32 0 47 25 23 39-15 8-13 13 12 42 30 37 83 79 98 79 12 0 2-138-13-190-27-93 1-158 74-179 79-21 180 41 230 141 32 65 32 73 0 180-22 71-25 90-14 103 18 22 76 35 157 35 74 0 94 10 73 35-16 19-125 19-193 1z"/><path d="m4355 5194c-21-21-16-46 11-58 18-8 21-16 17-50-12-100-104-226-165-226-64 1-116 53-125 123-11 81-41 89-77 20-36-70-110-143-145-143-44 0-61 27-61 96 0 32 5 76 11 97 5 21 7 47 4 57-6 20-39 28-49 12-2-4-10-53-16-110-11-95-11-104 7-139 24-46 74-69 130-58 29 5 52 21 96 67 40 43 57 56 57 43 0-10 20-38 44-61 79-75 172-71 246 13 59 67 90 138 97 220 5 67 5 70-22 91-33 26-39 27-60 6z"/><path d="m17833 5154c-9-23 18-40 72-49 37-5 55-17 43-27-2-1-142-4-313-7-285-6-310-7-313-23-3-17 17-18 305-18 263 0 312 2 331 16 12 8 22 21 22 29 0 10 7 11 27 6 38-10 39-26 3-41-17-7-35-21-41-32-17-31 16-33 76-4 49 23 55 29 55 56 0 43-14 50-186 94-74 20-73 20-81 0z"/><path d="m14925 5120c-3-5-3-14 0-20 4-7-58-10-179-10-179 0-186-1-186-20s7-20 220-20c121 0 220-3 220-6s-4-14-10-24c-7-13-5-21 6-30 12-11 19-9 42 12 15 14 35 28 45 31 18 7 24 37 7 37-5 0-10 6-10 14 0 26-42 46-97 46-28 0-55-4-58-10z"/><path d="m15202 5088c-19-24-55-193-60-280-4-76-2-89 13-94 24-9 31 7 39 84 6 74 27 181 46 237 9 28 9 39 0 50-15 18-24 19-38 3z"/><path d="m3040 5030c0-20 4-20 213-18 181 3 212 5 212 18s-31 15-212 18c-209 2-213 2-213-18z"/><path d="m3270 4899c-25-4-76-8-115-8h-82c-7-1-13-11-13-23 0-21 1-21 153-15 151 5 207 17 207 44 0 15-74 16-150 2z"/><path d="m17845 4861c-86-21-98-44-86-156 6-48 8-101 5-118-14-75-38-144-61-175-20-27-31-33-56-30-32 3-32 3-30 64 0 33 9 78 17 99 23 54 30 142 17 193-21 75-93 102-171 62-37-19-40-24-40-61 0-70 51-137 85-109 11 9 9 17-11 47-31 46-30 69 3 87 33 17 69 4 80-28 12-38 5-120-16-182-21-63-29-144-17-181 4-12 21-26 38-32 100-35 160 16 200 169 16 62 18 93 13 176-9 129-9 129 134 130 110 1 130 9 89 38-24 17-135 21-193 7z"/><path d="m14958 4795c-59-31-77-58-88-132-30-202-46-261-83-292-18-14-23-8-32 40-5 25 4 79 31 188 51 208 39 239-76 190-52-22-150-118-150-147 0-25 21-52 40-52 15 0 20 7 20 26 0 35 44 90 97 121 24 14 46 23 49 21 2-3-8-49-22-104-44-164-46-177-42-236 5-63 23-92 65-103 35-8 63 13 96 72 25 46 33 81 56 248 5 33 12 68 16 78 9 22 52 45 123 66 29 9 53 21 53 26-1 6-24 11-53 12-40 2-65-4-100-22z"/><path d="m12237 4784c-40-22-75-84-118-210-46-135-58-199-65-339-9-191 26-202 271-85 73 35 105 56 118 78 36 63 11 84-39 31-16-17-50-42-76-55-54-28-194-84-208-84-6 0-10 36-10 83v83l51 49c63 62 145 198 164 273 8 31 15 77 15 103 0 39-5 51-26 68-31 25-40 25-77 5zm43-128c-6-33-29-94-51-135-41-76-98-155-106-148-11 12 72 273 103 324 47 76 73 57 54-41z"/><path d="m2404 4705c-15-16-24-34-22-48 4-31 35-34 49-4 14 31 56 41 69 17 10-18-21-77-88-169-39-54-43-98-9-107 29-7 180 49 208 77 20 20 26 49 10 49-5 0-37-13-72-29-115-53-118-52-67 20 83 117 92 148 57 193-29 37-99 37-135 1z"/><path d="m17143 4574c-10-27 15-39 90-42 80-4 157 12 157 32 0 19-33 25-80 15-25-6-56-5-82 1-60 13-78 12-85-6z"/><path d="m18008 4453c-9-10-27-43-41-73-26-60-72-106-115-116-48-10-52-13-52-34 0-26 40-27 98 0 43 20 43 20 35-3-4-12-8-40-8-62 0-33 3-40 19-40 22 0 30 21 46 123 6 36 24 87 41 117 32 57 35 98 8 103-8 1-22-5-31-15z"/><path d="m14943 4360c-14-6-23-18-23-30 0-19 4-21 45-14 44 6 45 6 45-21 0-30-43-77-112-123-53-34-47-56 15-60 85-5 207 44 207 84 0 18-23 18-58 0-15-7-38-17-52-21-24-7-24-6 7 26 17 19 36 45 41 60 11 27 5 77-11 97-11 14-71 15-104 2z"/><path d="m7405 4320c-11-5-495-9-1075-9-1153-1-1478-11-1740-57-174-30-179-32-243-115-108-138-168-237-341-561-26-48-51-90-56-93-17-11-23 47-15 154 10 133 8 220-6 238-14 17-146 18-201 1-45-13-65-40-44-58 11-9 21-8 43 3 15 8 58 17 96 21l67 7v-43c0-24-5-98-10-165-11-144-1-191 44-206 22-7 34-5 55 10 27 21 46 52 176 293 113 208 235 388 292 428 42 29 312 72 459 72 45 0 128 5 185 11 85 9 2339 30 2339 22 0-13-29-64-48-85-24-26-25-58-3-58s77 61 95 104c24 61 16 96-22 95-15 0-36-4-47-9z"/><path d="m2751 4113c-5-10-27-62-49-115-49-117-71-213-53-231 18-17 47 21 55 73 6 36 58 176 88 237 21 42-19 76-41 36z"/><path d="m5218 4103c-20-5-30-27-21-49 4-12 14-14 35-10 20 4 30 1 35-9 7-19-13-70-44-113-40-54-30-67 60-70 62-2 77 0 77 12 0 17-21 26-60 26h-29l24 49c32 62 33 113 3 141-12 11-25 20-29 20s-13 2-21 4c-7 2-20 2-30-1z"/><path d="m7065 4045c-22-8-41-15-42-15-2 0-3-10-3-21 0-19 4-20 33-15 17 4 53 9 78 12 42 6 48 4 54-15 6-21-29-77-70-111-21-17-19-47 4-60 11-5 60-10 109-10 76 0 91 3 107 20 20 23 20 23-58 20-26-1-61 1-77 5l-30 7 35 41c43 50 47 96 10 132-28 29-86 33-150 10z"/><path d="m2443 4e3c-52-11-106-46-128-83-12-20-20-66-25-137-11-143-44-205-107-198-25 3-28 7-31 43-2 22 4 76 13 120s15 98 13 120c-3 39-4 40-39 39-48-1-101-35-124-79-15-27-17-37-7-47 9-9 22-2 57 35 67 71 78 62 50-43-8-30-15-85-16-123-2-88 17-112 91-112 40 0 54 5 80 30 49 46 60 76 71 198 6 63 17 122 25 134 24 38 73 56 178 65 55 4 102 10 104 13 2 2 2 11-1 20-5 12-23 15-84 14-43-1-97-5-120-9z"/><path d="m6691 3975c-48-15-88-48-102-84-5-13-14-69-19-125-6-55-16-114-22-131-26-69-108-155-148-155-15 0-12 123 5 205 27 129 16 227-27 241-63 20-158-49-158-115 0-26 38-29 47-3 10 27 55 72 74 72 33 0 38-68 14-172-20-87-24-230-7-251 40-48 126-19 192 65 56 70 70 108 80 218 17 179 32 195 176 194 71 0 94 3 94 13 0 38-114 54-199 28z"/><path d="m4884 3939c-17-5-51-27-76-49-39-34-49-51-73-127-36-111-48-135-92-184-36-40-58-49-66-26-3 6-3 60 0 118 9 169-15 207-121 196-76-8-118-38-114-81 3-26 8-32 32-34 26-3 28-1 24 21-6 32 24 50 77 45 33-3 40-7 47-33 5-16 6-75 2-130-7-124 1-151 51-161 29-5 43-1 74 21 57 39 89 91 130 211 45 133 72 160 176 175 77 11 80 12 72 34-7 17-89 20-143 4z"/><path d="m5716 3915c-3-9-7-35-7-58-3-92-7-99-79-117-79-19-90-25-90-52 0-16 5-19 23-15 12 3 48 13 80 21 59 15 59 15 53-7-3-12-8-58-12-102-5-67-4-83 9-94 9-7 20-10 25-7s15 57 22 120l12 115 57 11c83 17 91 20 91 36 0 12-12 17-45 17-5 0-29-3-53-7l-43-6 3 77c3 73 2 78-18 81-13 2-24-4-28-13z"/><path d="m3275 3760c-16-4-54-8-82-9-29 0-84-6-123-13-56-10-70-16-70-30 0-22 29-23 195-3 66 8 139 15 163 15 43 0 54 14 30 38-13 13-66 14-113 2z"/><path d="m3205 3579c-22-4-64-8-92-8-46-1-53-4-53-21 0-18 7-20 59-20 88 0 265 20 276 31 26 26-95 38-190 18z"/><path d="m4957 3497c-28-23-137-168-137-183 0-31 32-28 61 7 33 39 34 37 14-21-8-23-15-60-15-82 0-35 2-39 22-36 18 2 24 13 34 58 7 30 22 81 33 113 30 82 38 142 18 150-8 3-22 0-30-6z"/><path d="m2434 3451c-44-20-74-54-74-83 0-24 35-24 52 0 14 20 58 52 70 52 27 0-18-92-87-178-38-47-46-95-19-106 63-24 254 51 254 100 0 19-19 18-56-5-39-24-142-57-150-48-3 3 14 32 39 64 59 76 77 114 77 161 0 64-31 77-106 43z"/><path d="m6687 3458c-18-6-27-16-25-27 3-13 14-15 61-13 55 4 57 3 57-21 0-31-37-86-107-160-48-50-53-60-42-74 11-13 27-14 83-10 80 7 159 47 164 85 4 30-18 29-66-3-20-13-53-28-72-31l-35-7 48 52c48 51 86 120 87 154 0 10-11 29-25 42-26 27-76 32-128 13z"/><path d="m15963 2553c-4-10 2-23 18-36 24-20 24-20-81-13-151 10-478 26-522 26-31 0-38-4-38-19 0-22 30-26 340-42 113-5 261-13 330-17l125-7-42-17c-43-18-56-43-29-54 30-12 136 51 136 81 0 22-39 47-122 81-93 39-106 41-115 17z"/><path d="m4041 2396c-9-11-10-20-1-35 6-12 7-21 2-21-13 0-46-65-85-165-130-335-160-418-207-570-59-191-118-323-130-290-4 11-10 112-13 223-9 283-14 290-219 291-99 1-108-1-108-18s11-19 108-23c59-3 115-9 125-13 31-13 37-50 37-233s10-254 37-284c21-23 56-23 75 0 31 34 86 160 123 277 80 261 249 707 286 758 11 16 18 36 15 44-6 14 4 15 91 7 54-5 654-9 1333-9 1216 0 1334-2 1617-31 78-8 147-14 152-14 6 0 11-30 13-67 3-65 4-68 28-68 20 0 26 6 28 30 2 17 8 35 13 42 7 7 3 26-11 56-25 53-18 51-241 72-299 28-862 40-1281 27-670-21-1721-10-1752 19-14 12-22 11-35-5z"/><path d="m15824 2295c-4-9 0-30 9-45 14-23 15-37 6-86-16-89-53-156-116-214-67-61-98-76-130-61-20 9-23 18-23 64 0 30 10 89 21 133 32 119 33 136 11 164-19 24-22 24-67 12-54-14-128-62-151-97-8-13-14-38-12-57 2-28 7-33 28-33 20 0 25 5 26 25 1 45 4 49 47 79 47 32 97 49 97 34 0-6-9-36-20-69-12-32-25-99-30-149-8-79-7-93 9-115 55-77 174-44 274 77 57 69 97 178 97 263 0 30 0 30 64 30 43 0 67 5 76 15 14 17-4 23-100 28-36 2-75 8-87 12-17 5-24 3-29-10z"/><path d="m6887 2183c-11-11-8-48 5-61 18-18 48-15 48 6 1 34 30-20 30-55 0-26-10-45-45-82-76-81-58-101 92-101 93 0 123 8 123 32 0 4-22 8-49 8-26 0-69 3-95 6l-46 7 35 38c30 34 35 46 35 89 0 60-15 94-47 109-27 12-76 15-86 4z"/><path d="m4655 2041c-96-24-136-68-155-173-18-96-116-258-156-258-17 0-19 62-3 158 6 41 7 92 2 132-7 56-11 66-35 77-65 32-186-73-134-116 21-18 66 6 66 35 0 23 31 49 44 37 8-8 7-128-3-228-11-109 3-145 55-145 33 0 45 8 88 53 65 67 101 134 127 239 11 45 26 89 32 96 21 26 73 46 136 51 70 6 86 21 46 39-28 13-64 14-110 3z"/><path d="m4922 2028c3-20 9-23 52-23 93 0 90-56-9-127-107-78-86-111 68-106 74 2 92 6 92 18 0 11-17 16-67 21-38 3-70 8-73 11-3 2 15 19 40 37 77 55 92 115 43 169-18 18-32 22-85 22-61 0-64-1-61-22z"/><path d="m6553 2039c-40-12-69-51-87-120-35-134-51-174-90-231-53-79-72-87-62-27 4 24 16 75 27 112 13 45 18 79 13 100-9 46-41 104-59 111-46 17-147-10-165-45-28-50 3-65 52-24 42 36 83 33 103-6 22-42 21-72-3-151-22-70-31-156-18-176 12-20 71-14 101 10 63 50 108 142 155 321 18 68 49 90 120 84 30-3 67-8 83-12 23-6 27-4 27 14 0 42-111 65-197 40z"/><path d="m5756 1894c-3-9-6-28-6-42 0-60-9-70-63-77-107-13-147-26-147-47 0-19 4-20 73-13 39 4 81 11 92 15 20 8 21 4 20-74 0-63 3-81 14-81 21 0 29 23 36 98l7 67 41 1c66 2 101 13 105 32 3 15-5 17-63 17h-67l6 43c4 24 4 51 0 60-8 21-40 22-48 1z"/><path d="m15800 1810c0-17 7-20 50-20 47 0 50-2 50-25 0-16-22-50-60-94-33-38-64-73-70-76-5-3-10-17-10-30 0-18 7-26 26-31 63-16 218 31 236 72 16 34 3 40-40 20-41-20-120-46-140-46-8 0 12 28 42 62 68 74 87 125 62 163-15 22-23 25-81 25s-65-2-65-20z"/><path d="m1699 1698c-33-61-49-218-29-288 14-52 78-110 128-117 34-5 45-1 65 19l24 24 31-27c39-35 131-63 178-55 84 16 139 112 138 241-1 96-20 147-66 175-40 24-57 25-65 5-3-10 8-28 33-49 38-33 39-35 42-113 7-138-45-221-130-210-54 7-115 51-128 92-22 67-61 68-74 3-13-67-48-76-94-24-39 44-47 108-27 211 8 43 20 82 26 86 18 11 6 44-18 47-14 2-26-5-34-20z"/><path d="m4669 1697c-49-23-109-72-109-89 0-21 39-25 58-6 17 17 15 2-4-27s-15-69 8-73c11-2 23 11 37 42 11 25 34 66 51 91 45 66 27 93-41 62z"/><path d="m6520 1631c0-19 6-21 53-21 54 0 97-20 97-44 0-17-27-47-62-69-31-19-37-51-12-61 30-11 132-6 175 9 47 17 89 51 89 72 0 17-1 17-68-11-31-13-72-26-90-30l-34-6 26 31c31 37 34 87 7 120-17 21-30 24-100 27-77 4-81 3-81-17z"/><path d="m2640 1610c0-19 7-20 208-20 115 0 212 3 215 7 4 3 2 12-4 20-9 10-57 13-215 13-197 0-204-1-204-20z"/><path d="m2750 1452c-6-2-10-12-10-23 0-18 9-19 153-19 117 0 158 3 173 14 16 12 16 15 4 20-17 6-305 13-320 8z"/><path d="m5070 1380c-63-4-353-8-643-9-498-1-528-2-525-18 3-17 40-18 603-17 330 0 1095 4 1701 9 1055 8 1102 9 1113 27 11 17-21 18-1061 16-590-1-1125-5-1188-8z"/><path d="m5460 1193c-54-20-143-144-180-253-12-36-26-73-31-83-5-9-12-57-15-105-6-76-4-93 14-128 40-78 98-97 196-64 74 24 157 82 199 137 55 73 32 71-73-8-81-61-159-99-204-99-15 0-34 12-50 31-23 27-26 40-26 102 0 40 4 77 8 82 4 6 35 32 68 58 83 62 141 129 175 202 31 64 36 104 17 123-12 12-70 15-98 5zm60-48c0-26-72-137-120-185-66-66-85-75-70-34 45 117 124 224 166 224 13 0 24-2 24-5z"/></g><g transform="matrix(.7101 0 0 .7101 935.5 1124)" stroke-width="1.149"><g transform="matrix(.1 0 0 -.1 -57.71 297.5)" fill="#44b" stroke-width="1.149"><path d="m750 2973c-57-10-88-25-119-57-40-41-55-100-46-179 6-45 12-61 32-77 32-25 35-25 64-1 22 17 24 26 21 89-4 105 24 120 164 87 33-7 119-19 190-25 88-8 134-16 144-26 32-32 8-420-28-456-18-18-126-28-289-28-185 0-206-4-250-52-55-58-58-82-55-363 1-145 7-274 13-293 11-34 51-62 89-62 12 0 35 14 52 31l31 30-6 238c-3 130-3 249 0 264l5 27h112c234 1 363 26 423 82 58 54 98 260 91 463-4 122-7 138-34 191-40 81-79 100-217 108-174 10-361 14-387 9z"/><path d="m3660 2971c-42-9-83-34-103-65-39-59-50-127-54-343-5-206-5-212 18-252 28-50 78-86 143-102 48-12 257-8 370 7l49 7-7-104c-4-57-11-189-16-294-9-177-9-192 8-214 35-47 100-46 136 2 22 29 27 86 42 452 7 191 0 235-44 283-45 48-92 56-241 38-146-18-229-20-265-6l-26 10v162c0 156 8 230 27 249 5 5 99 6 210 2l201-6 5-50c3-39 11-56 31-74 34-29 48-29 80 0 24 20 26 30 28 113 4 147-23 169-218 179-242 11-340 13-374 6z"/><path d="m1565 2945c-14-13-25-32-25-42s-1-297-3-638c-2-677-3-662 55-694 33-19 73-7 101 31 18 24 20 51 29 300 5 150 10 278 12 283 2 6 37 8 97 3 52-3 135-7 186-7 154-2 161-10 143-176-21-189-27-310-18-343 12-45 45-72 86-72 71 0 102 46 102 151 0 33 7 118 16 187 24 190 9 280-58 349-50 52-112 67-263 65-71-1-164-6-205-11-41-4-78-7-81-5-4 2-10 108-13 236-9 286-17 352-47 384-31 33-82 32-114-1z"/><path d="m2542 2944c-55-38-64-109-53-419 6-186 9-215 28-250 50-95 116-125 302-135 75-4 171-5 215-1l78 7-4-178c-2-97-7-181-11-184-4-4-42 1-85 11-104 26-285 27-363 3-106-33-149-107-99-170 26-34 68-41 132-21 74 23 202 20 308-7 182-47 274 5 301 168 12 77 27 831 19 994-7 152-20 181-86 186-88 7-103-51-104-401v-219l-201 4c-197 3-201 3-220 27-18 21-19 42-19 283v260l-29 29c-33 33-74 38-109 13z"/><path d="m2374 1391c-55-34-79-78-79-147 0-51 4-66 27-96 35-45 102-73 153-64 78 15 146 111 131 188-20 108-145 172-232 119z"/><path d="m1853 999c-39-11-66-56-61-101 6-59 69-64 76-6 4 30 34 38 145 38h67v-110c0-135-1-136-132-126-85 6-89 6-113-18-24-25-25-28-25-179 0-162 4-177 47-177 35 0 43 29 43 159v121h73c85 0 141 14 168 41 17 17 19 34 19 169 0 147-1 152-25 175-23 24-30 25-137 24-62 0-128-5-145-10z"/><path d="m2985 1e3c-91-16-93-18-104-58-15-51-14-537 0-564 19-36 69-48 204-48 121 0 127 1 151 25l24 24-2 292-3 292-26 19c-31 23-161 33-244 18zm169-86c14-5 16-37 16-250v-245l-102 3-103 3v480l40 6c57 9 131 10 149 3z"/><path d="m2351 971c-24-24-29-73-37-372-6-232-6-237 15-258 23-23 29-25 51-11 12 7 16 40 20 150l5 141 35-23c19-13 59-55 88-93 30-39 78-96 108-128 47-51 56-57 74-47 29 16 25 42-15 92-19 24-62 78-95 121-61 77-61 77-33 77 15 0 46 9 69 19 56 26 67 57 62 179-6 156-27 172-220 172-93 0-111-3-127-19zm257-74c16-13 17-168 0-185-7-7-41-12-84-12-40 0-84-4-98-10l-26-10v239l98-6c53-3 103-10 110-16z"/></g></g></svg>
