<svg width="1493pt" height="1751pt" version="1.0" viewBox="0 0 1493 1751" xmlns="http://www.w3.org/2000/svg"><g transform="translate(0 1768) scale(.1 -.1)"><path d="m683 17668c-11-14-77-169-88-205-6-20-13-23-61-23-51 0-54 1-49 23 13 57 25 159 20 168-10 15-34 10-43-8-5-10-15-55-22-100l-12-82-132-3c-109-3-131-6-131-18s22-15 128-18c112-2 128-5 123-18-3-9-6-22-6-30 0-11-15-14-61-14-52 0-60-2-57-17 2-14 15-19 54-21l51-3-13-57c-15-64-10-95 14-90 12 2 23 26 36 76l19 72h43 44v-75c0-73 7-88 28-62 8 9 32 111 32 134 0 2 29 3 64 3 36 0 77 5 93 11l28 12-25 7c-14 5-53 8-87 9l-62 1 10 30c9 26 16 30 47 31 102 3 115 25 23 36-57 7-58-1 6 135 19 42 33 84 30 92-8 19-31 21-44 4zm-117-290c-3-13-6-26-6-30 0-5-22-8-48-8-48 0-49 0-44 30 4 29 6 30 54 30 47 0 50-1 44-22z"/><path d="m1250 17553c-8-3-47-28-87-54-39-27-78-46-86-43-8 2-20-2-27-11-10-12-10-18 0-30 20-24 51-18 108 20 28 20 52 33 52 30 0-2-16-44-36-91-42-101-55-188-31-197 21-8 33 9 42 58 8 48 67 192 102 252s19 87-37 66z"/><path d="m1831 17526c-6-7-9-21-5-30 7-18 39-22 49-6 3 6 47 10 96 10h90l-40-59c-38-56-42-59-93-65-85-11-98-16-98-38 0-19 4-20 56-14l56 6-22-34c-52-85-66-129-45-146 19-16 40 0 49 36 4 14 23 51 43 84 40 64 53 70 163 70 30 0 62 5 70 10 26 17-8 30-82 30-38 0-68 3-68 8 0 4 14 25 30 46 32 42 38 74 18 94-18 18-252 17-267-2z"/><path d="m2549 17496c-86-51-142-108-182-189-32-62-57-147-57-194 0-88 137-148 296-128 66 8 114 45 114 89 0 82-158 151-255 111-55-23-75-43-75-76 0-40 15-44 39-10 43 60 158 66 213 11 50-50 15-80-95-80-123 0-192 39-181 102 25 144 83 238 191 309 43 28 90 53 105 56 19 4 28 12 28 24 0 34-58 24-141-25z"/><path d="m8784 17525c-120-26-224-94-224-146 0-22-2-22-150-9-87 8-107 7-119-5-11-11-12-17-3-28 9-10 48-14 152-16 125-2 147-5 193-26 29-14 76-30 105-36 28-7 52-15 52-19 0-3-17-12-37-19-209-74-281-157-199-229 24-21 56-35 103-45 95-21 300-32 337-18 52 21 14 32-135 42-155 10-248 30-275 60-15 17-15 20 0 44 19 29 66 54 190 102 50 19 98 41 106 49 13 14 12 17-8 35-13 10-43 23-65 29-23 6-59 16-80 22l-39 12 78 18c93 22 158 58 179 99 38 73-35 112-161 84zm106-45c12-7 11-13-10-35-28-29-120-61-211-71l-63-7 15 24c38 56 223 118 269 89z"/><path d="m1540 17495c-74-40-150-105-150-129s31-32 45-13c14 20 97 87 107 87 3 0-13-35-35-78-56-104-90-189-83-207 12-32 37-14 62 43 44 103 96 196 128 232 50 55 57 66 50 84-10 25-53 19-124-19z"/><path d="m4743 17042c-30-24-52-83-64-170-6-41-14-327-19-635-7-488-11-580-29-700-39-259-96-419-175-489-39-35-40-37-24-54 17-17 19-17 47 4 38 28 42 28 74-6 68-71 89-263 71-627-42-810-43-1096-5-1349 36-238 129-489 205-553 27-23 31-24 34-8 2 10-19 61-46 114-68 130-116 292-143 487-30 215-29 614 1 1134 24 412 22 553-10 689-22 92-47 140-87 169l-25 18 30 61c43 85 88 261 113 443 18 134 22 231 29 725 8 538 12 612 38 677 16 38 27 41 74 17 56-28 78-48 78-71 0-15 6-19 27-16 67 8 21 80-82 129-69 34-82 35-112 11z"/><path d="m5853 17040c-6-7-9-19-6-26 4-11 39-14 172-14 163 0 214 9 181 30-8 5-67 10-131 10s-136 3-160 6c-28 4-48 1-56-6z"/><path d="m6044 16963c-3-10-12-34-21-53-56-128-109-316-115-412-3-35-5-38-35-38-17 0-35 5-38 10-3 6-22 10-41 10-42 0-57-25-28-47 28-22 302-13 338 11 36 23 35 49-1 42-16-3-46-8-68-12-22-3-48-8-57-11-14-3-18 2-18 20 0 59 45 232 90 345 27 67 47 129 44 137-8 21-43 19-50-2z"/><path d="m0 16801c0-20 6-20 443-26 243-3 1028-7 1745-10 1290-6 1302-6 1302 14 0 19-16 20-1243 25-683 3-1468 9-1744 12-501 5-503 5-503-15z"/><path d="m6370 16761c0-17 14-19 178-25 213-9 240-9 260-1 57 22-90 45-290 45-138 0-148-1-148-19z"/><path d="m9325 16770c-82-4-552-8-1042-9-893-1-893-1-893-22 0-22 0-22 1258-14 691 5 1420 9 1620 9 277 1 362 4 362 13 0 7-9 17-19 23-22 11-1034 11-1286 0z"/><path d="m6420 16662c-6-2-10-12-10-23 0-18 10-19 203-19 160 0 207 3 223 14 16 12 16 15 4 20-17 6-404 13-420 8z"/><path d="m10344 16626c-29-7-74-28-100-47-71-51-140-188-190-374-44-164-48-210-20-210 14 0 24 13 35 46 9 25 23 56 32 69 15 22 16 22 50 7 126-59 254-85 247-51-2 10-35 26-92 44-49 16-109 39-132 52-78 41-70 63 39 113 92 41 198 109 239 152 31 32 58 91 58 127s-39 74-80 80c-19 3-58-1-86-8zm107-63c12-33-29-101-87-146-57-44-212-122-222-112-4 3 17 53 46 109 42 84 60 109 94 131 76 50 154 59 169 18z"/><path d="m3471 16558c-17-48-22-137-12-263 31-381 41-663 41-1113 0-467-4-602-35-1162-49-892-54-1089-57-2380-3-1e3 -2-1048 38-1081 28-23 37 3 24 68-15 76-8 2556 8 2803 6 91 16 264 22 385s18 335 27 475c25 396 24 1435-1 1750-11 129-20 302-22 385-2 147-12 188-33 133z"/><path d="m8895 16528c-54-28-80-53-124-118-55-83-85-157-126-318-26-100-24-125 8-120 17 2 24 15 35 61 8 31 18 57 23 57s9-3 9-7c0-5 15-18 33-30 24-17 59-26 134-34 110-13 143-8 124 15-11 12-61 24-187 42-36 5-69 37-61 58 3 8 38 31 78 51 39 19 90 49 114 65 60 41 142 134 150 170 8 38-10 96-38 115-32 22-123 19-172-7zm132-26c24-16 32-57 16-90-29-59-147-152-255-199-34-15-34-13-3 37 30 47 31 56 8 69-16 8-14 15 21 66 63 91 165 147 213 117z"/><path d="m7665 16488c-83-47-152-137-141-184 10-38 48-29 57 13 6 33 39 78 77 107 22 17 22 17 22-22 0-51 28-77 80-76l39 1-59-66c-87-98-112-169-68-192 29-15 162-5 217 17 67 26 51 38-41 30-94-8-129-8-137-1-11 12 35 78 116 164 54 59 83 97 79 106-6 17-29 19-54 6-9-5-38-12-64-16l-48-7v40c0 81-26 108-75 80z"/><path d="m8374 16452c-17-11-40-60-59-125-14-47-20-57-39-57-12 0-46-7-75-16-39-11-51-19-49-32 4-18 32-20 95-7l32 7-19-68c-24-83-25-108-5-124 17-14 24-1 59 119l21 74 55 14c30 8 62 20 70 28 12 13 7 15-44 15-58 0-58 0-51 28 3 15 17 50 30 79 17 37 20 54 12 62-13 13-18 13-33 3z"/><path d="m9621 16389c-6-18-11-40-11-49 0-14-12-19-57-25-90-10-103-15-103-37 0-19 4-20 71-13 72 7 72 7 66-16-31-137-32-196-5-187 12 4 42 88 52 148 10 56 20 64 83 70 43 4 58 9 58 20s-14 16-57 18l-57 3 6 32c6 34 6 35 4 55-2 26-39 12-50-19z"/><path d="m789 16377c-53-36-93-109-93-170 0-29 2-58 5-65 4-14-127-73-208-94-33-8-43-15-43-30 0-18 4-20 42-14 24 4 88 25 144 47l101 41 59-31c32-18 60-33 62-35s-19-11-46-20c-63-21-136-77-156-121-9-18-16-51-16-73 0-34 6-45 37-71 68-56 222-70 366-32 82 20 107 34 107 57 0 19-11 18-131-12-94-24-111-26-186-17-57 7-91 17-113 33-29 20-32 27-26 59 9 57 67 106 171 145 49 19 91 39 93 45 7 20-18 40-71 56-29 8-60 22-71 30-17 13-15 17 41 69 109 100 131 181 58 212-49 20-87 17-126-9zm110-41c10-11 9-21-2-43-17-32-120-133-136-133-6 0-11 19-11 42 0 44 37 119 68 137 25 15 68 13 81-3z"/><path d="m10610 16160c0-15 7-20 28-20 36 0 49-10 57-43 9-35-3-49-87-103-68-44-89-74-67-100 18-22 274-16 274 6 0 12-20 16-97 21-54 3-100 8-103 11s14 17 38 32c25 14 57 40 72 58 23 27 26 39 22 77-6 58-33 81-93 81-37 0-44-3-44-20z"/><path d="m1894 16150c-81-32-154-239-81-228 18 2 23 11 28 48 8 59 21 90 51 118l25 22 16-40c19-49 61-70 138-70h51l-30-53c-59-105-79-224-44-266 32-40 91-45 200-15 102 28 132 40 144 58 23 34 5 34-133-5-153-42-187-32-173 50 10 64 26 105 66 174 22 38 37 74 35 81-4 9-35 16-87 20-105 10-107 10-121 54-20 62-36 72-85 52z"/><path d="m9272 16085c-40-19-72-39-72-45 0-18 31-24 63-12 17 6 32 10 34 9 1-2-9-34-22-73-29-82-31-102-9-111 19-7 44 21 44 50 0 10 19 56 41 102 61 124 45 140-79 80z"/><path d="m1524 15703c-29-83-59-133-111-179-89-80-41-98 53-20 51 43 108 148 102 188-4 28-36 36-44 11z"/><path d="m2502 15104c-142-38-269-198-317-398-8-33-25-100-38-147-25-89-23-114 8-107 12 2 30 31 51 83 19 44 37 88 41 98 7 16 16 12 68-35 97-86 172-128 229-128 33 0 62 20 49 33-3 4-18 7-32 7-37 0-159 71-204 118l-39 39 39 8c97 18 227 116 262 198 42 97 33 209-17 236-26 14-34 13-100-5zm82-50c12-32 5-114-13-157-11-25-35-60-55-80-37-38-140-91-195-102-37-8-36-14-14 74 3 14 1 26-8 32-30 18 54 143 136 199 65 45 138 62 149 34z"/><path d="m6e3 15080c-20-22-92-233-125-365-13-51-20-107-18-142 3-58 3-58 39-61 33-3 43 3 116 75 44 43 92 94 107 113 31 40 30 29-8-73-51-134-28-185 78-174 82 8 256 88 256 118 0 18-41 8-137-31-66-28-109-40-133-38-32 3-35 6-34 33 2 41 44 146 116 289 32 65 57 125 54 132-12 30-46 13-98-50-84-101-153-189-171-216-9-14-44-49-78-79l-61-54 7 54c12 93 102 392 131 437 29 44-6 71-41 32z"/><path d="m742 15059c-64-28-80-40-127-99-65-82-89-139-116-274-11-56-27-125-36-154-14-45-15-55-3-62 7-4 19-6 25-4 10 4 185 399 185 417 0 4-9 7-21 7-19 0-18 4 13 47 54 75 192 128 232 88 27-27 30-78 8-128-31-71-87-105-215-132-85-18-29-190 89-274 38-27 117-40 129-21 10 17-21 40-52 40-33 0-112 76-134 128-33 75-29 81 51 97 108 22 200 121 200 215 0 86-47 140-122 140-18 0-66-15-106-31z"/><path d="m8779 15066c-72-25-118-74-170-182-53-110-111-277-135-388-13-62-13-71 1-85 23-23 36-2 81 126 38 112 38 113 59 94 57-52 226-153 264-158 34-5 41-3 41 11 0 9-12 22-27 28-52 22-254 161-250 172 2 6 44 28 93 48 102 44 174 107 200 175 16 40 15 44-6 88-34 70-86 94-151 71zm80-58c45-47 39-89-20-153-28-31-62-53-114-74-84-35-92-37-75-16 10 13 11 20 1 39-29 54 100 224 171 226 10 0 26-10 37-22z"/><path d="m7855 14869c-48-11-81-45-64-65 15-18 29-18 43 1 11 15 126 35 126 22 0-4-12-41-26-84-18-57-73-317-74-350 0-2 9-3 20-3 27 0 35 20 60 145 26 135 57 247 74 260 7 6 15 18 19 28 5 12 13 16 26 12 52-16 239 1 191 18-67 25-314 34-395 16z"/><path d="m6990 14720c0-19 7-20 134-20 73 0 154-3 180-6 38-6 46-4 46 9 0 30-37 37-199 37-154 0-161-1-161-20z"/><path d="m7050 14591c-27-5-36-11-38-30-4-23-2-23 50-18 29 4 112 9 184 13 136 7 172 15 144 34-16 10-282 11-340 1z"/><path d="m2735 14534c-14-14-14-19-3-30 10-11 22-11 51-3 31 8 43 7 63-6 13-8 24-22 24-29 0-16-42-57-110-108-88-66-60-98 83-98 137 0 149 33 16 44l-81 8 51 34c92 62 116 131 60 178-24 21-41 26-84 26-36 0-59-5-70-16z"/><path d="m1098 14497c-32-15-48-28-48-41 0-16 6-18 40-13l39 5-15-38c-9-21-19-60-22-87l-7-48-63 3c-52 3-63 1-69-13-13-35 23-46 142-43 90 2 110 6 110 18 0 10-12 16-34 18-33 3-33 3-27 51 3 27 18 76 32 111 40 99 18 121-78 77z"/><path d="m9070 14441c0-19 6-21 54-21 108 0 111-19 18-94-96-78-114-128-56-154 37-18 248-16 263 2 16 20 3 23-127 31-62 4-112 10-112 14 0 3 34 38 75 76 79 74 96 107 71 140-12 17-28 21-100 24-82 3-86 2-86-18z"/><path d="m7717 14383c-14-13-7-43 12-53 29-15 334-13 349 2 29 29 11 33-150 33-120 0-162 3-166 13-4 13-34 17-45 5z"/><path d="m1427 14313c-4-3-7-36-7-72 0-43-7-81-19-107-19-41-109-164-120-164-3 0-11-8-18-19-24-38 59 1 110 51 78 78 124 209 103 293-6 24-33 34-49 18z"/><path d="m1986 13808c-2-7-11-53-21-103-9-49-30-130-45-180-31-100-85-303-93-350-10-57-35-53 421-71 183-7 186-6 180 74-3 31-12 60-21 70-16 15-18 15-33 0-13-13-14-21-3-57 7-22 9-44 6-47-4-4-80-2-169 5-90 6-200 11-246 11-45 0-82 2-82 5 0 14 74 289 95 355 34 105 67 259 60 281-7 21-44 26-49 7z"/><path d="m615 13781c-22-10-66-46-98-79-115-122-170-302-115-382 33-49 97-66 195-52 70 10 143 42 143 64 0 11-20 9-135-12-97-18-141-9-162 34-11 24-14 47-9 78 16 105 128 273 204 305 36 15 97 9 110-11 4-6 9-49 12-96 4-73 8-85 24-88 27-6 36 15 36 88 0 75-22 129-60 146-49 22-103 24-145 5z"/><path d="m9573 13769c-44-10-60-31-39-48 10-8 22-8 40-1 40 15 71 12 97-9l24-19-71-70c-85-85-105-123-79-152 26-28 246-93 262-77 12 13-30 47-71 58-109 28-146 40-146 51 0 6 32 43 70 82 97 97 101 125 30 174-35 24-52 25-117 11z"/><path d="m6958 13734c-31-16-38-51-12-61 9-3 23 3 35 16 11 11 27 21 35 21 16 0 64-43 64-59 0-5-20-33-45-62-44-52-54-84-39-124 17-42 264-123 264-85 0 15-39 36-112 60-37 12-78 30-90 40l-23 18 32 44c72 96 77 131 27 181-31 31-91 36-136 11z"/><path d="m6512 13521c-31-57-82-240-82-292 0-38 36-79 70-79 41 0 90 24 136 67l41 38-4-60c-4-51-2-64 17-87 13-17 31-28 46-28 29 0 30 14 3 48-16 21-19 35-14 67 8 48 53 181 73 213 13 20 13 25 0 38-21 22-38 11-88-59-86-119-160-187-205-187-11 0-15 10-15 38 0 76 68 292 92 292 4 0 8 11 8 25 0 20-5 25-24 25-18 0-30-12-54-59z"/><path d="m8553 13538c-22-24-48-57-57-74-23-48-100-334-109-412-8-70 25-87 108-56 87 33 212 73 248 79 29 5 37 10 35 23-3 13-14 17-48 16-44 0-170-34-220-59-14-7-36-16-49-20-23-7-24-6-17 33 7 48 82 325 99 367 6 17 29 49 50 72 24 26 37 49 33 58-9 25-30 17-73-27z"/><path d="m5969 13541c-75-47-164-188-189-299-17-72-5-158 25-188 46-46 140-41 285 17 79 32 110 53 110 76 0 19-9 17-120-28-123-49-188-59-226-34-26 17-26 19-22 99 4 69 10 92 42 154 46 91 98 149 155 175l45 20 22-27c13-14 26-43 29-64 11-66 25-92 50-92 13 0 26 7 29 16 11 28 6 54-9 54-9 0-15 9-15 23-1 34-36 104-58 116-38 21-104 13-153-18z"/><path d="m9310 13535c-195-30-240-45-240-76 0-24-8-24 145 10 50 11 106 21 125 21 50 1 105 22 105 40 0 20-31 21-135 5z"/><path d="m9243 13448c-36-47-103-264-110-355-3-39-9-77-13-83-9-14-77-29-132-30-32 0-38-3-38-21 0-21 2-21 123-15 217 13 317 37 317 78 0 11-1 10-100-7-123-22-114-27-106 60 7 79 42 204 83 297 14 32 23 64 20 73-8 18-31 20-44 3z"/><path d="m11295 13241c-74-19-135-63-135-96 0-16-8-25-24-29-65-16-133-118-157-233-21-102 15-151 139-192 80-27 261-39 315-22 33 11 42 10 91-14 40-19 69-26 116-26 34 0 67 4 72 9 10 10-4 16-107 42-72 18-75 25-27 66 162 139 122 421-68 478-65 20-173 28-215 17zm217-69c109-48 147-196 83-322-22-44-79-100-101-100-4 0-27 19-50 41-34 33-51 42-88 46-41 5-46 3-46-15 0-15 9-21 35-26 44-9 93-66 68-80s-221 0-278 19c-27 9-63 29-78 43-26 24-28 32-25 78 6 75 58 179 103 205 22 13 35 28 33 38-3 16 29 42 100 81 31 17 50 20 118 16 51-2 97-11 126-24z"/><path d="m1233 13203c-7-3-13-18-13-34 0-17-6-42-14-58-16-30-141-151-156-151-6 0-10-7-10-15 0-22 47-19 87 6 49 30 130 132 143 178 14 54-2 86-37 74z"/><path d="m7785 13028c-2-7-11-38-20-68-10-30-19-61-21-67-2-9-33-13-109-13-98 0-105-1-105-20s7-20 103-20h104l-15-60c-13-54-13-62 2-85 23-35 40-27 44 21 1 21 7 58 13 81l12 43 103-7c90-5 104-4 104 9 0 20-25 27-122 35-87 7-84 2-52 96 7 20 11 44 8 52-7 18-43 20-49 3z"/><path d="m10093 12944c-3-8-3-17 0-20 12-12 85-24 151-24 38 0 110-5 158-11 67-9 92-9 101 0 8 8 8 14 0 22-14 14-170 36-301 42-84 4-104 3-109-9z"/><path d="m6396 12933c-4-4-145-10-314-13-264-4-307-7-307-20s44-15 340-15c187 1 393 5 458 9 105 7 117 10 117 27 0 18-9 19-143 19-79 0-147-3-151-7z"/><path d="m8552 12863c3-17 35-18 447-23 343-4 445-8 449-17 8-27 72-11 72 18 0 35-58 39-523 39-422 0-448-1-445-17z"/><path d="m10153 12751c-58-7-68-13-59-36 5-14 18-16 89-11 45 3 145 8 222 12 137 6 182 15 170 35-7 10-337 10-422 0z"/><path d="m6150 12640c0-18 7-20 71-20 77 0 109-11 109-38 0-25-45-71-118-120-65-45-73-60-46-87 23-22 209-18 209 5 0 9-11 16-30 18-16 1-50 5-75 8-38 5-42 7-25 17 46 24 119 94 132 125 12 28 12 40 2 64-16 39-43 48-145 48-77 0-84-2-84-20z"/><path d="m8870 12620c0-17 7-20 43-20 52 0 117-17 117-31 0-23-21-46-73-82-62-43-71-57-53-82 30-41 223-25 274 22l27 24-55-6c-30-3-84-9-120-12l-65-6 45 34c124 95 89 179-75 179-58 0-65-2-65-20z"/><path d="m1565 12435c-5-2-210-9-455-15s-548-17-675-25c-126-8-276-15-332-15-96 0-103-1-103-20s7-20 153-20c83 1 226 5 317 11 477 29 1659 47 1950 29 107-6 347-14 533-17 336-6 337-6 337 15 0 18-8 21-72 26-40 3-208 8-373 11s-385 9-490 15c-182 9-769 12-790 5z"/><path d="m2290 11951c-51-10-78-28-95-61-27-53-15-150 19-150 19 0 25 21 19 67-4 32-1 45 19 68 51 59 201 41 229-27 7-16 13-55 13-87 1-67-12-88-122-204-40-43-80-94-88-112-28-67-12-155 29-155 23 0 28 13 16 46-20 53 3 104 89 196 122 130 127 139 127 233 0 104-18 138-88 171-52 24-99 28-167 15z"/><path d="m968 11814c-56-17-88-56-95-117-3-23-11-53-18-67s-21-65-30-114c-41-206 18-345 154-363 45-6 120 17 142 43 11 13 16 11 43-14 34-32 74-46 94-33 9 6 0 18-33 45-50 41-53 52-26 87 10 13 28 55 41 93 19 59 22 82 17 170-7 125-19 167-62 215-51 56-149 80-227 55zm150-56c41-20 69-72 82-150 14-83 8-160-18-237-18-53-42-79-42-46 0 9-13 30-30 46-23 24-37 30-62 27-45-4-50-33-8-41 25-5 34-16 50-53 11-25 20-47 20-48 0-2-17-15-38-30-93-64-186-5-208 132-8 49 23 218 48 261 10 19 16 41 13 49-11 28 15 79 48 96 35 18 100 15 145-6z"/><path d="m8604 11571c-43-11-54-19-54-43 0-17 4-19 28-13 15 4 50 8 77 9 84 2 71-34-54-148-58-52-26-94 92-123 49-12 78-14 103-7 44 11 45 27 2 36-122 24-145 29-157 37-11 7 0 24 51 73 72 72 88 107 63 145-26 40-77 51-151 34z"/><path d="m7702 11500c-32-14-25-46 8-42 66 7 105 2 118-15 21-29 10-46-57-90-36-23-68-48-72-54-22-36 32-59 140-59 132 0 139 33 10 44l-82 8 34 20c91 54 113 109 66 164-20 23-33 28-83 31-32 1-69-2-82-7z"/><path d="m10414 11485c-9-21 5-37 27-30 31 10 83-13 103-45 19-33 22-28-71-110-29-24-30-71-3-95 28-25 176-34 205-12 18 14 16 15-35 26-30 6-73 12-94 13-44 3-56 19-30 40 56 44 94 88 94 108 0 36-40 91-76 106-45 19-113 18-120-1z"/><path d="m1590 11400c0-14 9-21 38-25 20-3 59-11 85-17 56-12 193-16 203-5 16 15-15 27-97 38-46 5-102 14-124 19-69 16-105 13-105-10z"/><path d="m8118 11385c-102-33-174-180-223-462-15-83-13-108 9-116 19-8 31 4 57 56l24 47 55-41c71-54 154-92 180-84 32 10 24 23-32 51-51 25-188 121-188 131 0 11 25 49 39 61 9 6 53 35 98 62 89 55 158 125 168 170 4 16 0 43-9 63-27 65-94 88-178 62zm112-57c28-31 25-67-10-110-26-31-135-108-153-108-3 0 0 21 8 48 22 70 20 85-10 80-31-6-31-3 2 45 45 65 124 87 163 45zm-215-187c-26-80-43-107-32-53 8 42 48 144 54 138 3-2-7-41-22-85z"/><path d="m10085 11360c-153-7-175-12-175-42 0-17 5-18 58-13 31 3 114 10 185 14 70 4 132 12 138 18 18 18 1 33-34 31-18-1-95-4-172-8z"/><path d="m7260 11353c-14-2-44-11-68-19-35-13-43-20-40-38 3-24 15-24 73-2 51 19 162 22 147 4-6-7-18-42-27-77-20-77-86-265-109-310-16-29-21-32-49-28-118 20-117 20-117-2 0-34 38-41 213-41 170 0 208 8 215 44 3 16-1 18-30 12-18-4-68-9-112-13-77-6-78-5-67 15 45 83 135 381 120 398-11 14 30 24 103 24 52 0 92 15 83 31-6 9-281 11-335 2z"/><path d="m6749 11305c-55-29-90-68-128-144-68-136-75-210-24-263 50-52 167-64 274-28 74 25 105 45 112 70 8 32-7 32-70 0-68-34-159-50-217-38-88 19-101 68-49 193 35 84 78 139 130 167 27 15 53 25 57 21 3-3 6-21 6-39 0-45 9-64 30-64 36 0 42 82 9 124-26 33-67 34-130 1z"/><path d="m9572 11293c-41-58-65-120-132-327-45-141-45-141 63-140 95 1 245 20 290 36 19 8 27 17 27 35 0 20-4 24-17 18-21-9-88-21-193-35-41-5-92-13-112-16l-37-7 14 39c7 22 30 91 50 154s53 144 72 179 32 70 29 77c-9 22-33 16-54-13z"/><path d="m10092 11298c-7-7-12-23-12-36 0-27-19-99-61-225-16-48-30-108-31-133-3-45-4-45-33-40-16 2-42 8-56 11-30 8-47-18-28-41 15-19 269-20 287-2 29 29 13 37-64 31-72-6-76-5-66 13 5 10 22 62 37 114s40 140 56 194c21 74 26 103 17 113-13 16-30 17-46 1z"/><path d="m9140 11219c-12-22-33-100-44-161l-7-38h-89c-83 0-90-1-90-20 0-18 7-20 85-20h85l-6-55c-5-38-3-59 6-70 22-27 40-18 41 23 1 20 4 51 8 67 6 29 8 30 76 35 53 4 70 9 70 20s-15 16-62 18c-59 3-63 4-63 27 0 28 24 125 38 152 5 10 7 24 5 31-7 19-41 14-53-9z"/><path d="m4833 11116c-40-18-65-57-61-92 4-40 21-39 43 2 66 122 292 42 336-119 21-78-11-186-69-234l-26-22-16 41c-18 50-59 83-89 73-29-9-26-31 6-47 21-11 45-57 53-104 0 0-18-6-39-13-29-8-52-8-90 0-60 12-77 27-104 87-23 53-17 133 14 194 21 41 24 64 10 72-34 21-81-73-89-176-4-59-1-74 23-123 20-43 36-60 68-76 50-26 143-36 188-20 31 11 35 10 52-14 26-35 69-56 121-57 72-1 93 27 29 37-59 10-91 25-107 50-15 23-14 25 22 54 21 16 51 53 67 83 26 46 30 63 30 133 0 87-20 141-73 198-66 70-222 108-299 73z"/><path d="m2286 11024c-9-22 11-44 40-44 31 0 39 17 18 41-21 23-50 25-58 3z"/><path d="m8356 10985c-28-28-14-40 42-37 44 3 51 1 57-18 6-18-5-33-60-84-57-53-66-67-63-92 2-18 12-33 28-41 20-10-164-13-972-13-548 0-999-4-1e3 -8-19-31 11-31 2e3 -35 1097-1 2e3 -6 2016-11 16-6 23-2 31 17 11 24 11 24-70 31-45 3-494 6-997 7-552 1-897 5-870 10 43 8 90 42 78 55-4 3-37 1-75-6-37-7-81-10-98-9l-30 4 37 35c20 19 50 47 67 61 37 31 42 83 13 119-25 31-110 40-136 15z"/><path d="m5650 10862c0-11 8-23 18-27 28-11 285-17 301-7 28 20-1 29-106 36-60 3-132 9-160 12-48 6-53 5-53-14z"/><path d="m11545 10750c-22-5-75-9-117-9-73-1-78-2-78-23s1-21 153-15c183 8 219 14 215 36-3 13-17 16-68 18-36 0-83-3-105-7z"/><path d="m5666 10722c-10-2-16-11-14-20 3-15 23-17 163-19 149-3 201 4 181 24-8 8-299 21-330 15z"/><path d="m11490 10591c-61-5-75-9-78-24-2-9 3-20 12-23 17-7 356 13 380 22 13 5 14 9 5 20-12 15-160 17-319 5z"/><path d="m0 10503c0-20 5-21 473-27 259-4 731-11 1047-16 1077-18 1724-22 1740-11 12 9 12 13 2 19-7 5-219 12-470 16s-689 11-972 16-809 13-1167 16c-653 7-653 7-653-13z"/><path d="m8219 10264c-59-18-109-63-109-98s36-36 52-1c13 29 82 65 125 65 35 0 66-38 66-81 0-40-70-148-142-215-49-46-63-65-57-79 6-16 20-17 179-13 174 6 241 18 219 40-14 14-43 14-202 3l-115-8 41 44c45 47 102 134 123 186 19 46 6 96-33 138-38 40-68 44-147 19z"/><path d="m8192 8738c-97-144-195-381-226-551-41-218-43-474-5-657 33-161 91-325 120-341 34-18 32 12-10 137-74 226-96 388-80 609 13 180 37 308 85 446 34 98 119 273 170 348 25 37 23 51-6 51-11 0-31-18-48-42z"/><path d="m10833 8684c-7-3 4-30 32-75 74-121 104-251 105-455 0-221-75-527-186-752l-50-103 30 3c37 4 58 36 117 188 97 245 143 463 142 670-1 214-28 330-111 473-31 54-46 64-79 51z"/><path d="m7195 8656c-11-8-16-19-12-30 5-13 15-15 46-10 54 9 84 0 126-37 27-24 35-39 35-65 0-30-7-39-65-81-70-52-85-77-62-100 22-22 279-85 292-72 19 19-33 47-130 69-52 12-97 25-99 29-3 4 20 25 50 47 89 65 94 135 14 208-57 51-154 73-195 42z"/><path d="m6970 8450c-30-5-102-8-160-9-128-1-180-14-180-42 0-19 4-20 48-15 26 3 78 8 116 12 69 7 69 7 62-17-4-13-18-69-32-124-13-55-34-126-45-157l-21-58h-64c-59 0-64-2-64-22 0-21 1-21 143-15 222 11 257 16 257 40 0 18-6 19-105 15-58-2-105-3-105-2s6 17 14 35c8 19 24 77 36 129s28 113 35 135c13 40 13 40 84 51 50 7 78 17 94 32l21 22-39-1c-22-1-65-5-95-9z"/><path d="m9316 8444c-20-19-20-28-1-44 10-8 19-9 28-2 43 34 87 15 87-38 0-21-15-46-55-91-75-84-85-131-35-156 37-19 205-13 205 7 0 12-20 17-90 23-49 5-92 11-94 13-6 5 22 44 68 94 68 74 75 155 17 195-28 20-110 19-130-1z"/><path d="m8934 8217c-34-12-73-31-87-43-32-26-67-83-67-108 0-11-27-78-61-149-36-77-63-149-66-178-6-48-5-49 20-49 22 0 27 5 32 38 7 43 44 140 55 147 5 3 21-11 37-31 15-20 51-60 79-90 53-57 89-69 114-39 10 13 7 17-22 30-20 8-48 30-64 50s-47 57-70 82l-41 46 126 64c71 36 140 79 159 98 50 54 40 114-23 141-43 18-47 17-121-9zm110-43c20-19 20-24 1-51-12-17-212-133-229-133-7 0 61 141 74 154 14 14 91 44 117 45 12 1 29-6 37-15z"/><path d="m8324 8201c-58-35-124-157-144-263-10-58-10-73 4-116 10-28 28-62 40-75 31-33 98-52 137-38 63 22 202 132 186 148-9 9-74-22-143-68-67-44-90-48-127-19-59 47-61 155-3 276 45 94 74 124 121 124 39 0 45-9 61-85 7-31 14-41 33-43 23-4 23-3 16 55-3 32-13 68-21 81-29 44-107 55-160 23z"/><path d="m10365 8208c-28-91-56-160-96-243-60-123-110-258-100-273 4-7 74-12 201-15 107-3 209-7 225-9 30-3 30-3 29 57-1 47-5 61-18 63-26 5-48-19-43-45 4-23 4-23-164-23-93 0-169 3-169 8 0 17 62 168 99 240 47 91 92 218 84 238-6 17-42 19-48 2z"/><path d="m9872 8088c-7-7-12-26-12-42 0-17-3-48-6-68-6-36-7-37-73-47-36-6-88-12-116-13-40-2-51-7-53-22-4-18 2-18 107-14 61 2 111 4 111 4 0-1-5-17-10-36-33-109-29-170 9-170 15 0 19 7 19 34 0 19 8 66 18 104l18 70 80 8c62 7 81 13 81 24 0 12-16 16-73 18-63 3-72 5-68 20 27 94 9 171-32 130z"/><path d="m11450 8042c0-31 45-40 223-45 124-3 157-1 157 9 0 24-33 31-170 38-74 3-152 9-172 12-34 6-38 4-38-14z"/><path d="m5670 8021c0-17 10-19 128-23 70-2 129-3 132-1 2 2-1 12-6 21-9 14-31 17-133 20-114 2-121 1-121-17z"/><path d="m5700 7902c-6-2-10-12-10-23 0-18 9-19 179-19 173 0 209 6 185 30-9 8-333 19-354 12z"/><path d="m6530 7861c0-21 2-21 306-21 180 0 344-5 396-12 78-10 91-10 104 4 15 15 14 17-7 29-19 11-113 14-411 17-388 4-388 4-388-17z"/><path d="m11463 7843c-7-2-13-13-13-23 0-30 63-41 227-38 124 3 148 5 148 18 0 12-27 16-150 23-82 4-158 12-167 17-19 11-26 11-45 3z"/><path d="m9140 7833c-49-18-69-73-26-73 13 0 26 7 30 15 7 19 76 21 76 2 0-8-29-51-65-96-90-115-88-161 7-161 41 0 54 5 88 36 37 34 53 74 29 74-5 0-31-16-56-35-46-35-67-42-77-26-4 5 23 46 59 91 69 87 82 131 49 164-15 16-82 21-114 9z"/><path d="m6833 7590c-22-9-31-34-15-44 4-2 47 0 96 6 78 9 90 8 104-7 16-15 15-19-18-46-32-27-87-66-136-95-11-6-15-16-11-27 6-16 24-17 174-15 141 3 168 5 168 18 0 12-22 16-120 20l-120 5 35 22c44 27 86 72 94 100 5 17 1 29-18 48-23 23-32 25-118 24-51 0-103-4-115-9z"/><path d="m8524 6308c-28-29-61-68-73-86-44-64-108-209-135-305-25-86-28-112-24-200 3-80 8-112 26-149 32-65 96-135 150-162l45-23-364-9c-448-11-1134-8-1289 5-63 6-170 13-237 17-117 6-123 5-123-13 0-17 12-20 118-31 310-31 461-35 1102-28 355 3 735 11 845 17 180 9 1669 32 1755 26 19-1 192-2 384-2 319 0 350 1 360 17 17 28-7 45-38 28-20-10-88-11-348-5-178 4-350 7-383 6-33 0-442-4-910-9l-850-7-70 70c-100 99-120 144-120 270 0 117 27 218 93 352 50 102 71 134 135 200 27 28 46 56 43 62-14 23-43 10-92-41z"/><path d="m9810 6302c0-17 8-20 68-24 81-4 117-26 134-81 11-38 11-38-41-91-88-89-79-157 24-185 55-15 97-14 121 3 18 14 18 15-11 20-17 4-55 14-85 24-48 15-55 20-52 41 1 13 25 46 52 73 40 39 50 56 50 82 0 53-19 93-58 123-32 24-47 28-119 32-77 3-83 2-83-17z"/><path d="m11214 6307c-3-9 17-62 45-119 59-120 100-267 108-388 8-123-16-183-108-271-38-37-69-69-69-73 0-3 12-6 26-6 34 0 104 49 138 98 79 115 89 228 37 432-50 197-153 388-177 327z"/><path d="m7745 6273c-74-16-117-63-95-104 15-27 43-21 50 11 15 65 153 68 182 4 14-29 13-30-87-104-79-59-125-102-125-116 0-26 50-46 168-69 160-31 214-37 232-26 23 16-45 39-195 68-71 14-132 27-135 30-3 2 4 11 15 19 38 27 118 89 151 118 94 79-21 200-161 169z"/><path d="m8824 6061c-23-10-68-45-102-78-61-60-92-125-92-194 0-40 50-92 112-119 72-31 254-42 264-16 4 9 5 18 3 20s-52 8-110 14c-114 11-177 34-203 75-12 17-13 31-5 67 13 59 40 100 94 144 73 60 104 69 192 55 56-9 77-9 86 0 43 43-156 70-239 32z"/><path d="m9415 6070c-87-28-158-98-193-193-23-62-45-206-40-262 3-35 6-40 27-40 22 0 26 7 37 60 19 88 50 164 57 139 48-164 48-164 77-179 34-17 93-20 121-5 32 18 22 27-35 34-63 8-67 12-89 85-29 90-25 105 36 135 73 38 144 104 152 142 13 65-68 110-150 84zm93-70c3-30-45-74-125-115-46-23-48-23-51-5-2 10-13 20-25 22-20 3-18 7 23 52 52 56 91 77 140 73 29-2 35-6 38-27z"/><path d="m10905 6048c-3-7-14-60-24-118-11-58-35-146-54-196-34-87-41-113-38-141 1-10 44-13 180-13h179l26 31c30 35 33 57 10 66-12 4-25-4-43-26l-26-32-272 6 37 100c37 99 77 292 66 320-7 18-35 20-41 3z"/><path d="m10547 5993c-2-5-17-50-32-100l-28-93h-109c-101 0-108-1-108-20s7-20 96-20c86 0 95-2 90-17-18-62-27-114-24-144 2-29 7-34 28-34 19 0 24 5 22 18-4 22 16 122 31 154 10 21 16 23 99 23 81 0 88 2 88 20 0 17-8 19-79 22l-79 3 24 70c30 88 31 125 5 125-11 0-22-3-24-7z"/><path d="m7148 5919c-43-22-65-51-74-96-8-39-21-43-146-43-92 0-98-1-98-20 0-20 5-21 129-19 127 1 130 1 165-26l36-27-57-28c-124-59-184-147-121-178 78-37 289-54 396-31 46 9 103 51 90 65-3 3-32-2-63-12-101-29-395-8-395 28 0 15 95 77 158 104 56 24 63 30 60 52-2 16-14 32-32 42-16 9-31 20-33 25-2 6 32 22 75 38 122 43 154 93 82 129-47 24-125 22-172-3zm147-44c-1-12-152-71-161-62-12 11 8 47 34 62 30 16 127 16 127 0z"/><path d="m9678 5728c-18-6-28-17-28-30 0-18 5-20 34-15 41 7 56-7 56-48 0-24-10-39-45-68-72-61-55-107 41-107 62 0 127 27 144 61 18 33 5 34-57 6-36-16-68-24-85-20-26 5-26 5 19 48 47 46 50 59 27 137-4 13-63 50-76 47-1 0-15-5-30-11z"/><path d="m11853 5548c-34-7-43-14-43-30 0-19 4-20 53-15 28 4 130 10 225 13 150 6 172 9 170 23-3 14-27 16-183 18-99 0-199-3-222-9z"/><path d="m5650 5420c0-19 6-20 186-20 171 0 185 1 182 18-3 15-21 17-186 20-177 2-182 2-182-18z"/><path d="m12150 5408c-41-5-120-7-175-6-94 3-100 2-100-17s6-20 180-18c176 1 232 8 237 28 5 15-60 21-142 13z"/><path d="m5650 5243c0-30 65-43 217-43 121 0 153 6 153 30 0 4-59 10-132 14-72 3-156 9-185 13-49 5-53 4-53-14z"/><path d="m10618 5189c-18-7-28-18-28-31 0-18 4-19 50-13 41 6 58 3 96-15 82-40 74-76-31-145-67-43-87-67-88-107-2-30 2-35 45-56 55-27 179-48 230-38 20 3 43 15 53 26 18 20 17 20-63 20-88 0-170 14-196 33s-10 43 54 82c105 64 134 122 89 179-43 54-152 88-211 65z"/><path d="m10294 5145c-3-8 9-33 29-57 52-64 72-112 92-219 17-89 17-101 2-182-18-100-65-193-147-295-49-61-58-92-26-92 19 0 46 28 101 105 127 178 159 319 115 515-20 92-44 140-101 204-33 38-56 46-65 21z"/><path d="m7203 5096c-66-60-104-135-146-291-58-211-58-354-1-452 27-47 50-63 88-63 32 0 33 15 3 35-13 8-34 34-48 57-22 40-24 53-24 173 0 117 4 141 34 245 43 148 71 204 133 262 32 31 48 53 44 63-9 25-31 17-83-29z"/><path d="m8477 5046c-48-18-63-30-93-81-33-57-51-123-63-235-6-52-18-117-26-145-13-41-13-51-2-62 26-26 42-2 82 120 52 157 50 148 27 154-19 4-19 7-5 60 18 70 56 131 89 143 14 6 53 10 87 10 75 0 131-25 135-61 3-26-29-49-165-119-89-47-125-87-131-149-3-34 0-56 8-67 35-41 203-72 228-41 17 21 5 27-66 34-31 4-72 13-91 20-31 13-33 17-28 50 8 49 34 73 130 123 167 87 196 120 160 183-38 67-177 98-276 63z"/><path d="m9772 4991c-31-8-70-36-99-71-17-21-58-149-79-245-22-108-23-129-2-133 13-2 25 12 45 55 15 32 29 60 30 62s13-10 27-26c29-35 103-66 143-61 50 6 39 19-50 59-94 43-82 71 65 145 102 51 123 76 115 136s-34 81-104 84c-32 2-73-1-91-5zm139-67c16-44 2-62-84-105-45-23-90-48-99-57-24-21-23-7 3 29 25 36 21 64-9 63-29-1-28 8 5 46 33 40 54 49 121 49 48 1 53-1 63-25z"/><path d="m7305 4854c-69-46-91-86-77-139 6-23 15-31 36-33 27-3 28-3 21 36-5 33-2 44 20 70 31 37 38 39 72 12 20-15 41-20 90-20h64l-56-71c-98-126-88-149 64-148 155 1 234 20 204 50-9 9-35 8-105-1-52-7-110-10-131-6l-37 7 49 67c27 37 63 80 80 96 17 17 31 38 31 49 0 18-4 19-47 12-27-5-73-8-104-8-47 1-60 5-82 27-33 32-45 32-92 0z"/><path d="m8076 4828c-8-18-17-48-21-66-7-32-8-33-46-27-53 9-81-1-77-28 3-19 9-22 48-22h45l3-73c3-69 4-73 25-70 15 2 23 11 25 28 11 111 11 110 46 110 38 0 72 22 62 39-6 8-21 10-47 6-40-7-40-7-33 22 4 15 12 42 19 58 15 37 9 55-16 55-13 0-25-11-33-32z"/><path d="m6693 4822c-62-20-95-45-87-67 7-18 50-20 61-2 4 8 30 20 57 27 45 12 50 12 62-5 26-36 15-57-72-141-60-57-85-87-81-98 7-19 25-20 64-5 15 7 84 17 153 23 99 9 125 14 125 26s-21 16-110 21c-60 3-105 6-98 7 6 1 27 24 47 51 47 63 49 110 7 152-33 33-54 35-128 11z"/><path d="m9240 4794c-6-14-10-41-10-60v-34h-70c-63 0-70-2-70-20 0-17 8-19 68-22s67-5 70-25c5-33 31-37 42-7 6 14 10 29 10 33 0 5 21 11 46 14 50 5 70 18 59 37-5 8-25 11-56 8-53-5-55-3-41 47 11 38 5 55-19 55-12 0-23-10-29-26z"/><path d="m8827 4673c-4-3-7-55-7-114 0-89 3-111 18-129 33-41 42-17 42 105 0 62-3 120-6 129-6 16-35 22-47 9z"/><path d="m9973 4668c-24-12-32-48-10-48 6 1 32 5 57 10 34 6 53 5 77-7 60-28 45-54-54-97-51-22-78-50-69-71 5-13 26-15 143-13 128 3 138 4 138 22 0 17-8 19-95 17-87-1-93 0-65 13 48 21 95 66 95 90 0 53-66 96-147 95-26 0-58-5-70-11z"/><path d="m13913 3614c-5-15-2-46 17-149 5-27 9-95 9-151 1-134-22-221-101-381l-63-128-5514-5-10 37c-26 105-30 253-10 383 20 133 96 276 177 335 48 35 55 65 16 65-19 0-43-17-88-63-71-73-130-184-151-285-30-145-29-327 2-449l5-23h-458c-253 0-602 5-778 12-308 11-319 11-332-7-12-16-12-21 0-33 11-11 18-12 36-2 14 8 47 9 98 5 42-3 388-8 768-11l690-5 12-33c19-51 67-112 111-142 61-40 67-25 15 41-25 33-55 77-65 98l-19 37h2731c2184 0 2730-3 2722-12-105-139-106-140-82-133 38 11 71 38 114 94l40 51 83-5c70-5 82-4 82 10 0 20-40 35-91 35-21 0-39 2-39 4 0 1 22 50 49 107 86 182 95 215 99 380 5 188-22 339-60 339-5 0-11-7-15-16z"/><path d="m13635 3567c-65-67-96-131-102-211-5-59-4-64 26-98 44-50 100-64 159-38 31 14 47 29 58 56 8 20 14 43 12 51-9 44-127 80-177 54-18-10-21-9-21 5 0 28 37 97 76 143 32 36 40 41 65 36 37-8 53 20 24 41-36 27-66 17-120-39zm64-228c44-16 41-53-7-78-25-13-58-7-84 17-27 23-22 38 20 55 20 9 37 16 38 16 1 1 15-4 33-10z"/><path d="m10125 3561c-31-13-50-40-78-112-38-96-44-165-19-215 25-48 47-68 93-83 69-22 129 23 129 98 0 40-21 58-76 67-37 5-51 3-74-14-15-12-30-18-33-15-16 16 47 211 71 220 8 4 19-1 24-10 5-10 18-17 28-17 27 0 27 43 0 70-21 21-34 23-65 11zm73-312c1-9-6-26-16-39-18-22-22-23-50-11-31 13-33 28-9 59 14 18 71 11 75-9z"/><path d="m7685 3549c-48-13-81-83-52-107 16-14 28-5 47 33 16 31 53 43 79 26 7-5 16-29 18-55 6-45 4-48-51-105-31-33-56-64-56-69 0-33 130-72 238-72 105 0 123 30 26 43-32 4-89 13-126 19l-68 11 36 40c59 64 67 95 48 185-5 26-59 62-89 61-11 0-34-5-50-10z"/><path d="m13177 3414c-4-4-7-13-7-21 0-11 26-13 133-11 109 3 132 6 132 18s-22 15-126 18c-69 1-128-1-132-4z"/><path d="m9670 3381c0-26 47-41 125-41 43 0 66 5 75 15 16 19 9 22-100 35-107 13-100 13-100-9z"/><path d="m7312 3305c-7-14-12-30-12-35s-24-51-53-102c-57-99-74-152-56-174 15-18 71-18 143 1 33 9 61 13 64 11 2-3-8-36-23-75-30-76-28-104 7-99 15 2 24 12 29 33 8 39 98 267 110 280 5 5 9 20 9 33 0 18-5 23-22 20-15-2-31-21-52-63-30-57-34-60-96-82-70-24-120-29-120-12 0 10 62 122 106 189 35 55 36 100 1 100-16 0-28-9-35-25z"/><path d="m6850 3292c0-15 5-33 12-40 18-18 46-14 50 7 3 19 4 19 68-2 57-19 66-26 73-54 8-26 5-37-17-65-14-19-53-50-86-69-160-91-165-94-165-120 0-24 0-24 110-22 116 2 225 17 259 35 18 10 18 12 4 22-16 12-65 9-223-13-33-5-61-7-63-6-2 2 33 22 77 45 53 27 96 59 122 89 38 43 41 49 36 94-3 31-12 56-26 71-26 28-118 56-184 56-45 0-47-1-47-28z"/><path d="m10687 3300c-32-11-71-27-88-37-30-18-47-53-34-72 12-20 45-12 54 12 5 13 23 29 40 35 17 7 45 17 61 23 17 7 33 9 36 6 14-14-20-75-63-113-57-51-54-74 7-74 33 0 48-6 71-29 34-34 38-75 10-91-11-5-45-10-76-10-56 0-57 1-51 25 5 20 3 25-13 25-23 0-51-25-51-45 0-7 12-23 26-34 36-28 132-28 192-1 41 18 42 21 42 65 0 62-21 98-69 122-41 20-41 20-19 39 26 24 48 74 48 112 0 54-42 68-123 42z"/><path d="m11306 3304c-3-9-6-49-6-89v-74l-102-3c-84-2-103-6-103-18s19-16 99-18l98-3-6-48c-11-81 13-109 40-46 7 19 14 48 14 64 0 30 0 30 63 33 47 2 62 7 62 18s-14 16-56 18l-57 3 5 64c7 79-1 115-26 115-10 0-22-7-25-16z"/><path d="m11780 3249c-30-28-81-69-112-91-32-23-58-47-58-55 0-28 32-26 76 5 24 18 44 29 44 26s-16-37-35-76c-41-81-50-140-23-146 12-2 22 6 29 25 26 64 113 241 141 286 29 46 32 77 6 77-7-1-38-24-68-51z"/><path d="m11994 3265c-12-31 44-63 61-35 8 13 75 13 95 0 27-17-8-59-107-128-72-49-93-69-93-87 0-30 16-35 116-35 85 0 154 18 154 40 0 8-28 10-100 5-55-4-100-5-100-2 0 2 29 24 65 47 86 56 125 101 125 145 0 51-27 65-128 65-64 0-84-3-88-15z"/><path d="m12686 3191c-44-43-57-63-53-76 5-11 14-15 27-12 11 3 20 3 20 1s-12-33-27-69c-21-50-25-70-17-83 15-23 45-26 69-7 19 14 19 16 2 29-16 13-16 16 5 67 12 30 32 71 45 92 32 51 44 84 37 102-11 29-49 13-108-44z"/><path d="m8456 3204c-33-33-6-103 29-74 8 7 15 18 15 25 0 18 24 25 86 25 48 0 56-3 65-24 9-19 8-29-2-44-21-30-109-105-157-136-33-21-42-32-40-49 3-21 7-22 142-25 93-2 143 1 152 9 27 22 2 29-102 29h-104l80 70c44 39 83 82 86 96 9 37-4 92-26 104-10 5-61 10-114 10-73 0-98-4-110-16z"/><path d="m9267 3168c-13-29-39-84-57-122-40-83-48-171-16-171 15 0 22 12 32 55 7 30 31 93 55 140 46 93 55 142 27 148-13 2-24-11-41-50z"/><path d="m12900 3207c-41-14-73-62-51-76 8-5 21-7 29-4 12 5 11 1-2-20-10-14-20-51-23-81-7-65 9-92 61-102 71-13 178 67 192 143 9 48-21 112-61 128-49 20-107 25-145 12zm130-62c13-12 20-31 20-56 0-63-85-135-136-115-21 8-12 76 16 122 25 39 25 61 3 68-10 3 4 4 30 2 28-2 56-11 67-21z"/><path d="m9464 3190c-26-10-54-48-54-72 0-27 37-22 56 7 27 41 116 28 128-19 6-25-8-83-27-106-43-55-121-67-163-25-23 23-25 30-19 79 8 63-7 83-37 46-26-32-24-109 4-145 86-110 274-42 294 105 11 83-23 122-116 134-25 3-55 1-66-4z"/><path d="m12397 3093c-4-3-7-17-7-31 0-23 2-24 37-17 41 7 54 20 46 42-5 13-64 18-76 6z"/><path d="m8930 3060c0-18 5-21 38-18 25 2 37 8 37 18s-12 16-37 18c-33 3-38 0-38-18z"/><path d="m10281 3066c-7-8-11-25-9-38 2-19 9-23 37-23 41 0 62 25 45 53-14 22-57 27-73 8z"/><path d="m14410 2922c0-11 8-23 18-28 9-4 104-9 210-12 185-4 192-3 192 15 0 19-10 20-162 27-90 4-184 9-210 13-43 5-48 4-48-15z"/><path d="m5670 2860c0-32 18-60 40-60 11 0 20 4 20 10s69 11 173 12c145 3 172 5 172 18 0 12-28 16-165 21-91 4-182 10-202 14-35 7-38 5-38-15z"/><path d="m14603 2783c-25-10-14-41 18-52 42-14 208-14 265 0 83 21 46 34-100 35-86 1-142 6-149 13-12 12-15 12-34 4z"/><path d="m5758 2759c-6-4-8-14-5-23 5-14 28-16 154-16 107 1 155 5 173 15 19 10 21 15 10 19-23 8-320 12-332 5z"/><path d="m7532 2480c-31-33-73-87-93-120-84-137-141-403-120-553 18-124 109-247 183-247 16 0 28 3 28 6s-22 26-49 50c-30 27-62 70-80 106-26 52-31 72-31 137 0 122 18 236 55 337 42 120 71 168 147 249 38 41 58 70 54 80-10 28-37 15-94-45z"/><path d="m1e4 2431c-12-19 2-28 51-34 32-3 53-12 65-27 31-38 25-51-56-113-43-33-49-72-13-86 43-18 198-35 215-25 29 19 24 33-15 39-21 3-67 11-102 18-62 11-63 12-40 26 85 55 102 115 50 173-24 27-36 32-88 36-38 3-63 0-67-7z"/><path d="m9785 2390c-3-5 8-35 24-68 63-126 80-254 48-361-9-30-37-92-62-137-51-94-53-104-25-104 21 0 61 53 102 135 32 64 58 167 58 231 0 104-80 314-120 314-10 0-21-4-25-10z"/><path d="m9435 2276c-27-27-24-60 6-77 26-14 42-2 35 27-5 20-3 24 14 24 12 0 35-7 51-16 53-27 29-65-56-91-53-15-43-39 30-74 74-35 125-74 125-95 0-22-42-74-72-90-31-16-114-19-123-4-9 14-45 12-45-2 0-21 14-36 43-47 68-26 147-4 205 55 34 36 42 51 42 82 0 44-20 70-80 107-25 15-46 29-48 30-1 1 13 18 33 38 19 19 35 43 35 54 0 30-30 64-74 84-56 25-92 24-121-5z"/><path d="m8234 2209c-8-17-18-55-21-85l-6-53-46-6c-63-9-73-13-69-28 3-7 26-13 55-15 47-3 51-5 60-35 13-49 41-48 49 2 6 39 7 40 58 48 35 6 51 13 51 23 0 11-14 16-53 18l-54 3 7 42c4 23 14 52 22 65 18 29 11 52-16 52-13 0-27-12-37-31z"/><path d="m8633 2230c-45-10-81-36-103-73-25-41-25-78 0-110l20-26-35-28c-70-54-79-114-19-129 49-13 173 2 202 23 50 37 38 102-24 128l-36 15 66 55c36 31 66 61 66 67 0 5-9 12-20 15-14 4-19 11-15 23s-2 24-17 34c-24 17-36 18-85 6zm29-63c-24-26-28-43-10-49 6-2-5-17-26-33-34-26-38-27-53-12-14 14-14 20-3 48 14 33 62 69 94 69 19 0 18-1-2-23zm-26-189c36-13 51-35 35-51-13-13-143-29-153-19-9 9-1 21 40 55 39 31 36 31 78 15z"/><path d="m9124 2229c-4-7-14-37-23-68l-17-56-67-3c-59-3-67-5-67-22 0-18 7-20 59-20 60 0 60 0 63-32 2-25 8-33 23-33 14 0 21 8 25 30 4 26 10 30 40 33 66 7 78 42 14 42-32 0-34 2-28 28 4 15 11 37 15 50 15 39 11 62-10 62-11 0-23-5-27-11z"/><path d="m6845 2201c-77-35-129-131-92-169 21-21 47 0 47 37 0 55 58 101 126 101h37l-5-45c-7-54-13-62-101-132-57-46-68-59-65-81 3-24 8-27 49-30 51-3 262 31 302 49 36 16 43 39 13 39-26 0-249-37-281-46-11-4 15 27 58 67 53 51 78 82 78 99 4 54-4 96-18 113-21 23-96 22-148-2z"/><path d="m7653 2190c-14-6-23-18-23-31 0-20 3-21 53-15 28 4 66 9 82 12 40 7 81-23 71-53-4-11-31-38-62-59-115-81-131-107-93-145 20-20 29-21 94-16 74 5 118 24 129 54 5 12 1 14-21 9-52-12-163-19-163-10 0 5 16 18 36 29s58 40 85 65c42 39 49 52 49 83 0 28-7 44-26 62-24 22-35 25-108 24-45 0-91-4-103-9z"/><path d="m8778 941c-86-24-154-67-168-107-6-17-22-42-35-54-54-51-20-73 54-36 66 34 103 34 130 0 12-15 21-33 21-41 0-24-44-60-98-77-48-16-54-16-83-2-42 21-59 20-59-3 0-77 203-59 268 24 59 74-12 185-109 172-21-3-39-2-39 3 0 4 17 19 38 34 44 30 117 51 215 61 56 5 68 10 65 23-5 24-114 26-200 3z"/><path d="m8133 745c-32-14-41-29-25-39 5-3 63 0 130 6 107 10 122 14 122 30s-10 18-97 18c-62-1-110-6-130-15z"/><path d="m9923 719c-5-16-11-19-34-14-59 13-174 9-225-9-63-21-87-45-82-83 4-33 70-82 149-110 27-10 49-20 49-23s-18-23-39-44l-39-38-47 35c-25 20-59 38-75 42-68 15-150-36-150-92 0-31 25-79 45-87 35-13 112-5 168 18l58 24 48-24c34-18 70-26 133-31 77-5 91-3 130 16 49 26 98 69 98 87 0 7 18 15 41 19 43 7 48 26 8 35-20 5-25 14-31 58-13 85-50 137-129 178-20 10-29 22-29 39 0 32-39 36-47 4zm-26-63c5-5-63-122-75-130-11-6-143 51-171 75-28 23-22 32 34 54 29 11 63 14 124 10 46-2 86-6 88-9zm106-41c43-30 65-67 69-120 3-40 3-40-34-36-43 3-155 33-160 42-4 8 72 139 81 139 3 0 23-11 44-25zm-80-181c21-7 60-16 87-20 28-4 50-10 50-15s-19-23-42-40c-42-30-46-31-129-27-61 3-95 9-114 22l-27 18 43 44c46 47 48 47 132 18zm-311-30c21-15 35-30 32-35-8-14-112-41-133-34-10 3-22 18-26 33-5 20-2 31 15 44 31 25 68 22 112-8z"/><path d="m6434 681c-83-38-144-150-160-293-12-109 45-195 144-217 71-15 128 2 151 46 37 71-20 150-123 171-31 6-70 9-86 5-23-4-30-2-30 10 0 34 44 154 67 186 46 60 150 88 167 45 7-18 42-18 49 0 3 8-3 26-14 40-17 22-28 26-72 26-29 0-70-9-93-19zm33-350c94-43 73-133-27-116-48 8-83 34-100 75-11 27-11 32 6 45 26 20 71 18 121-4z"/><path d="m7502 618c-9-11-49-57-89-100-78-86-101-129-78-148 8-7 19-9 26-5 8 6 9-2 3-26-4-19-8-50-9-69 0-28 4-35 19-35s23 14 36 60c9 33 45 118 79 188 58 118 68 157 41 157-6 0-18-10-28-22z"/><path d="m7794 580c-40-13-84-54-84-80 0-13-7-20-20-20-27 0-68-65-76-120-9-69 14-93 100-98 57-4 74-1 122 23 62 30 108 84 125 147 27 102-61 180-167 148zm100-62c34-48 10-127-52-175-29-22-50-28-100-31-71-5-86 4-75 48 7 30 45 104 56 108 4 2 26 19 48 38 50 41 99 46 123 12z"/><path d="m10350 561c-73-23-100-39-100-57 0-25 26-27 68-5 22 11 59 23 82 27l42 7-33-59c-18-32-40-70-50-84-18-27-69-150-69-168 0-6 9-14 20-17 24-8 89 39 184 130l59 57-6-48c-10-92 29-109 103-44 44 39 45 39 65 20 35-33 91-50 185-57 92-6 163 9 189 41 9 10-15 13-127 12-115-1-143 2-174 18-47 23-48 44-5 73 25 17 41 21 74 16 28-4 48-1 58 7 23 19 18 57-8 75-22 14-29 13-99-19-42-19-82-43-89-53-8-10-38-37-67-61-56-47-59-44-41 35 12 54 0 103-25 103-8 0-28-19-45-43-31-46-150-161-158-154-2 3 19 45 47 93 28 49 53 100 57 113 14 57-41 74-137 42z"/><path d="m5672 511c-47-8-72-25-56-40 10-11 409 10 420 22 24 24-245 37-364 18z"/><path d="m6929 464c-14-17-5-40 24-58 25-16 52 14 43 48-7 30-45 36-67 10z"/><path d="m5815 395c-5-2-27-6-47-10-29-4-38-11-38-25 0-23-10-23 160-9 128 10 167 20 154 40-5 8-206 12-229 4z"/></g><g transform="matrix(.816 0 0 .816 5.37 1172)"><g transform="matrix(.1 0 0 -.1 -57.7 298)" fill="#44b"><path d="m750 2973c-57-10-88-25-119-57-40-41-55-100-46-179 6-45 12-61 32-77 32-25 35-25 64-1 22 17 24 26 21 89-4 105 24 120 164 87 33-7 119-19 190-25 88-8 134-16 144-26 32-32 8-420-28-456-18-18-126-28-289-28-185 0-206-4-250-52-55-58-58-82-55-363 1-145 7-274 13-293 11-34 51-62 89-62 12 0 35 14 52 31l31 30-6 238c-3 130-3 249 0 264l5 27h112c234 1 363 26 423 82 58 54 98 260 91 463-4 122-7 138-34 191-40 81-79 100-217 108-174 10-361 14-387 9z"/><path d="m3660 2971c-42-9-83-34-103-65-39-59-50-127-54-343-5-206-5-212 18-252 28-50 78-86 143-102 48-12 257-8 370 7l49 7-7-104c-4-57-11-189-16-294-9-177-9-192 8-214 35-47 100-46 136 2 22 29 27 86 42 452 7 191 0 235-44 283-45 48-92 56-241 38-146-18-229-20-265-6l-26 10v162c0 156 8 230 27 249 5 5 99 6 210 2l201-6 5-50c3-39 11-56 31-74 34-29 48-29 80 0 24 20 26 30 28 113 4 147-23 169-218 179-242 11-340 13-374 6z"/><path d="m1565 2945c-14-13-25-32-25-42s-1-297-3-638c-2-677-3-662 55-694 33-19 73-7 101 31 18 24 20 51 29 300 5 150 10 278 12 283 2 6 37 8 97 3 52-3 135-7 186-7 154-2 161-10 143-176-21-189-27-310-18-343 12-45 45-72 86-72 71 0 102 46 102 151 0 33 7 118 16 187 24 190 9 280-58 349-50 52-112 67-263 65-71-1-164-6-205-11-41-4-78-7-81-5-4 2-10 108-13 236-9 286-17 352-47 384-31 33-82 32-114-1z"/><path d="m2542 2944c-55-38-64-109-53-419 6-186 9-215 28-250 50-95 116-125 302-135 75-4 171-5 215-1l78 7-4-178c-2-97-7-181-11-184-4-4-42 1-85 11-104 26-285 27-363 3-106-33-149-107-99-170 26-34 68-41 132-21 74 23 202 20 308-7 182-47 274 5 301 168 12 77 27 831 19 994-7 152-20 181-86 186-88 7-103-51-104-401v-219l-201 4c-197 3-201 3-220 27-18 21-19 42-19 283v260l-29 29c-33 33-74 38-109 13z"/><path d="m2374 1391c-55-34-79-78-79-147 0-51 4-66 27-96 35-45 102-73 153-64 78 15 146 111 131 188-20 108-145 172-232 119z"/><path d="m1853 999c-39-11-66-56-61-101 6-59 69-64 76-6 4 30 34 38 145 38h67v-110c0-135-1-136-132-126-85 6-89 6-113-18-24-25-25-28-25-179 0-162 4-177 47-177 35 0 43 29 43 159v121h73c85 0 141 14 168 41 17 17 19 34 19 169 0 147-1 152-25 175-23 24-30 25-137 24-62 0-128-5-145-10z"/><path d="m2985 1e3c-91-16-93-18-104-58-15-51-14-537 0-564 19-36 69-48 204-48 121 0 127 1 151 25l24 24-2 292-3 292-26 19c-31 23-161 33-244 18zm169-86c14-5 16-37 16-250v-245l-205 6v480l40 6c57 9 131 10 149 3z"/><path d="m2351 971c-24-24-29-73-37-372-6-232-6-237 15-258 23-23 29-25 51-11 12 7 16 40 20 150l5 141 35-23c19-13 59-55 88-93 30-39 78-96 108-128 47-51 56-57 74-47 29 16 25 42-15 92-19 24-62 78-95 121-61 77-61 77-33 77 15 0 46 9 69 19 56 26 67 57 62 179-6 156-27 172-220 172-93 0-111-3-127-19zm257-74c16-13 17-168 0-185-7-7-41-12-84-12-40 0-84-4-98-10l-26-10v239l98-6c53-3 103-10 110-16z"/></g></g></svg>
