<svg height="2535.65063pt" preserveAspectRatio="xMidYMid meet" viewBox="0 0 1928.5 2535.65063" width="1928.5pt" xmlns="http://www.w3.org/2000/svg"><g transform="matrix(.1 0 0 -.1 -21.5 2564.913419)"><path d="m2876 25635c-59-13-78-27-69-52 6-16 13-16 76 1 29 8 77 17 109 19 53 5 57 4 62-19 4-13 0-38-7-56-24-58-106-178-121-178-8 0-38-5-66-11-38-8-50-15-50-29 0-24 17-29 58-18 19 5 36 8 38 5 2-2-8-31-23-63-35-75-39-159-8-159 15 0 21 9 27 43 9 55 66 180 87 192 9 4 64 15 122 24 121 18 163 31 156 49-5 14-33 14-151-1-49-6-91-10-94-8-2 3 10 24 26 48 60 88 77 162 46 206-13 19-23 22-87 21-40-1-98-7-131-14z"/><path d="m1191 25588c-10-24-29-71-42-105-23-61-25-63-67-69-24-4-45-4-48-1-4 3 4 40 17 82 16 55 19 79 11 87-22 22-41-3-68-91l-28-90-76-6c-92-8-100-10-100-30 0-12 15-15 80-15 47 0 80-4 80-10 0-5-9-10-20-10-20 0-29-35-11-42 6-2 6-21-1-51-12-56-6-77 21-77 20 0 22 5 37 93 6 37 6 37 59 37h53l-19-50c-19-49-25-90-13-90 22 0 46 29 64 79l22 58 81 6c84 5 141 22 131 39-4 6-44 7-101 3-95-8-95-8-91 16 2 14 14 29 32 38 28 13 28 14 9 25-21 11-21 12 14 99 19 48 33 94 29 102-11 28-37 15-55-27zm-81-222c0-26-16-36-61-36-38 0-47 3-43 14 5 13 25 19 87 24 9 1 17 0 17-2z"/><path d="m2367 25624c-17-17-5-34 31-40 47-9 96-30 136-57 17-12 33-23 35-24 2-2-8-12-22-23s-38-45-54-76c-20-40-34-56-53-60-73-14-130-36-130-50 0-24 29-28 81-11 53 16 53 16 40-29-5-17-5-37-1-45 13-20 48 16 60 61 9 32 16 39 52 49 88 26 117 69 37 56-21-4-39-4-39 0 0 20 34 66 60 82 32 19 38 40 18 65-15 18-92 69-129 85-36 16-112 26-122 17z"/><path d="m1804 25599c-10-12-46-44-79-72-104-86-235-215-235-232 0-9 7-18 16-22 10-4 50 29 127 105 61 61 113 109 115 107s-19-54-47-117c-58-131-74-193-60-220 18-33 43-17 50 32 7 46 73 211 135 333 19 37 34 77 34 88 0 26-32 25-56-2z"/><path d="m2165 25570c-127-100-260-202-277-211-22-12-24-37-3-45 19-7 68 24 157 100 37 31 69 56 72 56 4 0-10-32-29-71-44-86-64-172-45-194 23-28 38-17 45 36 7 52 87 226 139 302s20 90-59 27z"/><path d="m11245 25096c-66-29-170-196-196-313-10-41-19-58-36-66-30-13-31-47-2-47 19 0 21-4 16-38-6-45 13-96 42-111 32-18 87-13 151 13 32 13 72 27 89 31 34 7 56 29 46 45-9 14-62 4-144-26-74-28-116-31-125-8-3 9-6 38-6 64 0 48 1 50 85 131 95 91 158 183 176 254 10 38 9 49-2 60-22 21-61 26-94 11zm41-68c-8-41-81-150-136-203l-41-40 7 30c13 55 65 147 111 196 54 58 68 61 59 17z"/><path d="m3830 25020c-36-4-195-8-353-9-264-1-500-13-837-42-133-12-550-23-1425-40-878-17-1000-21-1000-39 0-13 35-15 255-14 636 1 2015 34 2270 54 341 26 434 31 885 42 623 17 2704 16 2935 0 176-13 338-27 433-38 53-6 61-10 95-51 37-44 151-133 171-133 6 0 11 7 11 16 0 15-27 45-97 104-16 14-40 40-54 58-17 22-38 36-65 42-40 9-277 31-549 50-170 12-2569 12-2675 0z"/><path d="m10675 24940c-75-31-150-177-210-413-25-96-45-177-45-179s-12-4-27-3c-23 0-28-5-35-40-12-54-6-96 14-109 39-24 73 42 127 244 16 61 31 113 33 116 3 2 20-1 39-6 19-6 56-11 82-11 124-2 203 138 171 301-4 18-24 50-44 71-37 39-63 47-105 29zm73-69c50-68 36-195-29-257-25-23-38-29-72-27-23 1-54 6-68 11-22 9-26 16-24 45 4 47 79 195 116 230 37 34 50 34 77-2z"/><path d="m8084 24764c-53-36-57-42-124-183-86-178-103-240-141-536-16-116-22-234-26-527-6-424 2-589 47-913 95-690 150-1404 135-1750-15-342-76-613-188-829-30-59-47-81-68-88-19-6-39-28-59-63-33-59-39-102-13-112 16-6 44 19 89 81l21 30 16-55c37-134 73-612 93-1239 15-456 16-579 5-935-7-225-16-485-21-576-24-435-41-702-50-789-18-185-32-547-26-674 15-281 78-446 182-472 44-11 115 2 138 26l21 22-65-6c-55-6-70-3-97 13-124 77-155 422-98 1111 8 102 20 266 25 365s14 257 19 350c25 433 34 838 28 1200-10 554-23 878-47 1155-27 306-42 418-69 498l-22 64 36 64c73 130 144 358 177 569 21 137 23 180 22 480-1 182-6 384-12 450s-20 226-32 355c-18 204-59 550-104 885-44 321-47 968-6 1291 36 290 58 374 143 554 38 81 96 160 116 160 3 0 20-24 36-53 31-52 57-67 63-35 5 28-46 118-74 128-32 13-25 14-70-16z"/><path d="m8944 24756c-96-24-197-102-228-177-29-70-56-189-56-247 0-60-18-121-64-225-34-75-34-89 1-85 24 3 32 13 60 78 18 41 37 87 42 103 9 24 13 26 34 16 18-8 34-6 74 9l52 20 24-27c13-14 33-41 43-60 39-69 214-114 214-55 0 9-10 14-27 15-52 1-117 34-146 75-15 22-34 48-42 59-14 20-10 26 64 100 99 102 124 161 119 277-3 67-7 81-28 102-32 31-72 38-136 22zm96-51c23-28 24-125 0-187-21-57-86-140-141-178-27-20-30-20-59-5-20 10-42 14-61 10-16-4-29-5-29-3 0 7 59 176 76 217 16 41 16 45 0 56-16 12-14 15 16 38 81 61 171 84 198 52zm-226-414c3-5-8-14-24-20-31-10-39-4-18 17 14 14 35 16 42 3z"/><path d="m7304 24726c-3-8-3-41 0-73 27-259 42-4450 17-4878-6-115-16-421-21-679-10-507-20-666-52-851-12-66-24-142-28-169-5-37-14-55-35-72-36-28-117-68-172-85-31-9-43-18-43-31 0-40 118-7 232 67 55 35 69 59 80 140 16 127 21 150 28 155 4 3 11 52 14 110 4 58 12 175 17 260 6 85 14 367 19 625 5 259 14 592 21 740 8 172 11 449 8 765-2 272-3 619-2 770 6 1162 5 1551-6 2245-7 435-16 831-20 880-6 84-8 90-29 93-13 2-24-3-28-12z"/><path d="m760 24685c-6-8-18-33-25-57-16-53-124-340-130-346-2-3-16 10-30 27-20 23-35 31-60 31-69 0-165-117-165-202 0-35 3-40 35-54 46-19 101-18 211 5 103 21 134 35 134 57 0 14-8 15-46 9-26-3-53-9-60-12-10-4-7 13 10 58 14 35 55 145 91 244 37 99 72 191 79 205s11 31 8 38c-5 17-37 15-52-3zm-225-480v-80l-59-3c-32-2-63 1-67 5-28 28 67 169 108 161 16-3 18-14 18-83z"/><path d="m2104 24556c-38-17-48-40-28-61 21-20 31-19 44 5 8 15 21 20 55 20 24 0 50-3 59-6 42-16-1-96-97-178-68-58-79-82-47-108 39-31 230-22 230 11 0 4-39 11-86 14-48 3-88 8-91 10-2 3 26 33 63 68 110 106 130 177 61 220-38 22-117 25-163 5z"/><path d="m19192 24509c-67-33-102-102-102-201 0-38 5-50 25-66 15-12 23-26 20-34-11-27-107-88-140-88-12 0-15 12-15 54 0 35-5 58-15 66-22 18-42 6-50-30-5-22-17-36-45-50-45-23-60-24-95-8-44 20-33 73 40 188 42 66 46 100 12 100-31 0-60-33-91-100-36-82-118-150-180-150-44 0-45 55-3 176 11 33 18 68 14 77-11 29-37 19-53-20-44-106-83-171-132-224-65-71-116-92-157-65-56 37-54 107 5 172 87 95 73 219-14 132-19-19-42-58-52-87-18-50-23-56-79-82-42-21-75-29-112-29-29 0-53 3-53 8 0 4 9 44 20 90 24 100 25 126 5 142-25 21-45 4-45-37 0-21-7-71-17-112-14-58-22-75-39-82-13-4-28-17-34-29-9-17-20-20-82-20h-72l32 33c61 63 82 167 42 207-66 66-199-44-200-163 0-21 5-47 10-58 10-18 7-19-44-19-71 0-104 13-112 44-8 34 24 99 81 159 25 27 45 55 45 63 0 25-30 28-53 6-12-11-34-25-49-31-33-12-126-3-153 15-27 19-59 17-79-5-38-42-10-141 40-141 33 0 42 27 15 46-20 14-28 44-15 56 3 4 17 0 32-8s50-14 78-14h51l-23-47c-52-102-18-175 90-188 31-4 80-3 107 2 32 7 66 7 95 1 25-5 69-8 99-6 52 3 55 2 61-24 12-56 71-28 87 42 6 24 10 25 84 26 52 0 89 6 110 17 41 22 43 22 43-8 0-39 24-89 51-106 68-44 154-23 234 57 30 30 55 50 55 44s11-22 25-35c31-32 74-32 142-1 53 25 63 25 63-5 0-26 45-57 94-64 33-5 53-2 84 14l40 20 15-23c40-60 134-36 235 60 37 35 73 64 80 64s12-13 12-30c0-58 24-97 75-119 26-12 61-21 77-21 37 0 88 26 88 45 0 12-11 14-57 9-47-4-64-1-90 15-31 19-32 23-35 93-3 62-6 74-23 82-21 9-21 10-3 60 23 67 22 98-2 128-27 35-52 39-98 17zm56-88c-7-65-47-145-76-149-31-5-37 18-23 86 8 45 19 64 46 90 44 41 59 34 53-27zm-1552-25c15-40-54-166-91-166-20 0-26 29-16 73 17 71 91 136 107 93z"/><path d="m2941 24425c-62-92-134-170-180-194-22-12-22-12-19 50s-4 77-30 60c-19-12-28-126-12-146s69-19 100 1c39 26 99 84 141 137 38 48 39 48 39 20 0-65 55-92 119-58 28 14 29 14 34-20 8-52 34-84 74-91 51-10 60 8 20 39-45 34-53 76-29 153 21 67 19 84-9 84-13 0-25-12-34-32-18-40-33-59-65-81-49-34-54-26-46 78 6 94 6 95-16 95-18-1-38-23-87-95z"/><path d="m15971 24479c-24-16-49-45-56-63-10-24-37-48-97-86-46-30-100-67-120-83-33-25-38-26-38-10 0 10 7 37 15 61 21 59 2 106-52 128-60 26-111 14-155-36-59-66-64-146-10-174 25-14 26-15 7-23-36-14-130-9-159 10-21 14-25 23-20 43 7 29-19 64-47 64-24 0-42-35-35-66 7-28-16-44-64-44-73 0-87 34-45 106 27 46 104 100 129 91 8-3 16-21 18-39 2-25 8-33 23-33 29 0 44 49 24 83-59 106-278-36-279-181 0-56 125-97 196-64 31 15 36 15 80-5 78-34 165-26 297 27 33 13 17-13-49-81-85-88-109-138-100-210 15-129 68-206 144-208 30-1 39 4 59 33 22 33 23 41 23 237v202l58 42c31 23 80 56 108 74l52 33 5-43c6-54 47-111 96-132 20-8 67-16 104-16 61-1 71 2 88 23 44 54 5 104-97 123-57 10-64 9-97-11l-36-22-6 33c-9 48 9 84 65 135 62 56 76 79 59 99-18 21-42 17-88-17zm-359-106c22-20 23-45 3-83-26-51-83-66-125-32-27 22-20 59 20 102 32 34 73 39 102 13zm481-164c26-7 37-15 37-29 0-16-7-20-37-20-45 0-113 18-113 29 0 10 39 29 60 30 8 1 32-4 53-10zm-493-286c0-93-4-175-10-183-7-12-13-12-33-1-54 29-87 196-51 251 17 25 85 100 91 100 2 0 3-75 3-167z"/><path d="m3770 24458c-6-7-24-34-40-60-15-25-53-65-84-88-84-64-104-43-67 70 21 63 18 82-12 78-15-2-26-17-38-50-17-48-86-140-138-184-33-28-37-21-22 32 10 37 1 57-25 52-21-4-32-35-33-96-1-35 3-44 23-53 33-15 85 11 134 66l37 42 18-23c32-43 84-32 165 34l42 34v-40c0-32 7-47 31-71 37-38 122-65 176-56 73 12 82 15 93 35 10 19 8 20-82 17-83-2-96 0-125 21-44 31-48 57-25 145 12 49 16 80 10 91-11 19-23 20-38 4z"/><path d="m9525 24463c-63-8-75-13-75-34 0-20 4-21 63-15 34 3 125 8 202 12s144 9 148 11c4 3 3 11-4 19-9 11-43 14-158 13-80-1-159-4-176-6z"/><path d="m16971 24455c-47-15-100-59-132-112-21-34-30-115-16-144 20-41-178-79-247-47-38 17-40 41-10 108 20 44 41 72 77 100 68 55 89 53 68-4-7-18-6-28 5-36 20-18 41 3 55 52 9 34 8 43-7 59-35 39-105 16-188-60-37-33-86-136-86-179 0-97 161-133 319-72 76 30 79 30 117 14 24-10 70-17 119-18 68-1 87 3 130 25 33 17 56 38 67 60 9 19 15 36 13 37-2 2-32-13-67-34-56-34-70-38-133-38-38-1-83 3-100 7l-30 9 58 53c51 48 107 137 107 171 0 18-33 52-55 57-11 3-40-1-64-8zm59-50c0-32-41-94-91-139-28-25-56-46-61-46-22 0-1 91 29 128 44 55 123 91 123 57z"/><path d="m1513 24453c-7-2-13-15-13-28 0-35 49-46 230-52 135-5 157-3 169 11 7 9 12 17 10 17-2 1-80 7-173 14-139 9-170 15-178 28-9 17-22 20-45 10z"/><path d="m13448 24423c-8-10-28-42-44-72-50-95-209-216-272-209-26 3-27 6-34 70-9 96-14 108-47 108-29 0-62-20-121-76l-35-33v107c0 96-2 107-19 110-28 6-36-15-36-108-1-47-5-106-9-131s-5-51-3-57c9-28 49-8 125 64l82 76 6-66c6-75 25-102 75-112 40-7 86 7 148 46 26 17 49 30 51 30s-3-16-11-35c-24-58-16-93 19-79 9 3 39 54 68 114 49 102 69 125 69 80 0-25 45-77 83-97 41-21 124-20 165 1 32 17 32 17 66-17 42-43 105-60 194-55 62 3 74 8 119 42 28 21 56 50 63 64 11 26 11 26 30-15 42-94 118-97 233-9l47 36 30-21c43-32 119-30 194 4l59 27 41-40c23-23 74-61 114-86 39-25 72-51 72-59 0-13-41-32-110-53-88-27-115-40-115-59 0-27 43-21 160 21 166 59 168 96 12 199-45 30-93 66-106 80l-24 26 28 33c42 49 57 92 45 124-9 23-14 26-43 20-50-10-79-46-85-106-4-47-8-52-41-69-90-46-160-50-181-11-7 14-3 32 15 72 33 70 33 98 0 98-29 0-61-44-71-98s-123-152-175-152c-21 0-32 7-44 30-17 33-21 145-5 155 24 15 7 85-21 85-25 0-39-30-39-82s-14-81-24-50c-10 32-80 89-123 101-21 6-55 11-75 11-45 0-114-26-122-46-3-8-19-14-40-14-41 0-56-20-56-74 0-41-17-60-66-76-43-15-101-1-128 29-25 28-36 84-24 129 18 71-25 120-64 75zm582-92c44-23 73-62 73-97 0-42-70-100-126-107-65-7-130 10-162 43s-26 52 14 44c27-6 27-5 27 46-1 43 3 55 23 71 30 25 105 25 151 0z"/><path d="m10990 24419c-250-22-320-32-320-46 0-24 26-25 187-13 139 10 469 27 576 29 30 1 37 5 37 21 0 19-6 20-192 19-106-1-236-6-288-10z"/><path d="m1543 24333c-27-10-13-44 23-59 52-22 204-30 243-14 38 16 40 30 4 30-91 1-218 20-229 34-12 16-20 18-41 9z"/><path d="m9513 24283c-11-28 11-33 153-33s214 13 214 38c0 15-361 10-367-5z"/><path d="m10945 24152c-106-71-135-107-135-169 0-46 26-71 124-117 99-46 131-77 142-133 5-28 2-40-23-71-40-51-107-83-152-74-45 10-61 34-38 60 24 26 21 42-6 42-34 0-71-43-63-73 12-50 39-70 100-75 73-6 129 15 184 70 47 47 57 71 49 128-10 74-41 108-144 157-111 53-125 65-117 101 9 37 30 59 98 103 60 40 76 42 76 10 0-29 26-46 46-30 19 16 12 68-13 87-27 20-84 13-128-16z"/><path d="m12630 24136c-19-8-120-33-225-56-254-56-508-125-630-171-56-20-117-40-137-44-34-6-36-5-31 14 10 37-24 37-101-2-39-20-81-45-93-56-24-20-40-66-26-73 4-3 60-2 123 1 93 5 115 9 115 21 0 9-13 17-35 20-32 5-30 7 40 24 41 11 114 34 161 52 103 39 330 103 489 138 385 86 425 98 425 126 0 20-32 22-75 6z"/><path d="m16102 23846c-158-172-275-533-218-671 15-36 67-75 100-75 11 0 39 12 63 26s69 32 101 40c31 8 72 24 90 34l32 19v-37c1-55 48-102 102-102 39 0 124 48 153 86l26 34 26-20c33-26 79-25 122 1 18 11 35 19 37 17 1-2-3-37-10-77-12-74-12-74-61-99-74-37-178-146-198-206-21-61-21-96-3-141 29-68 80-70 151-4 36 33 52 60 85 146 23 58 47 127 53 152 9 42 17 51 58 74 37 20 48 23 52 12 3-7 19-16 36-20 25-5 43 1 93 31 35 21 80 51 102 68 33 26 38 27 32 9-15-47 21-88 91-103 74-17 303 47 303 84 0 21-15 20-86-3-109-34-189-45-221-29-26 13-28 17-27 75 1 43 7 70 22 95 30 49 28 61-8 56-17-3-29-2-27 1 48 85 66 166 44 196-19 25-71 24-125-4-70-36-184-208-222-338-9-31-24-49-51-68-21-14-40-25-42-25s2 30 9 68c15 78 18 158 5 166-4 3-6 37-3 76 6 84-10 110-65 110-47 0-66-12-99-64l-28-45-21 41c-27 54-62 79-117 85-40 5-49 2-83-28-38-34-95-137-95-174 0-31-11-41-74-74-82-44-96-42-96 13 0 57-33 107-80 120-19 5-37 11-39 12-1 2 23 37 54 79 61 81 131 214 164 313 27 80 18 112-32 112-28 0-42-9-75-44zm58-52c-28-83-101-223-154-293-31-41-56-69-56-62 0 24 72 198 106 254 34 58 106 148 112 142 2-2-2-20-8-41zm1010-329c0-67-76-178-171-250-35-26-65-42-67-37-5 16 70 162 112 217 34 44 97 95 119 95 4 0 7-11 7-25zm-645-52c13-26 14-44 6-92-12-73-30-109-75-149-75-66-145-44-132 41 5 29 19 51 57 88 48 47 88 115 89 152 0 15 3 15 20 5 11-7 27-27 35-45zm209-9c-5-145-3-137-48-172-32-25-71-29-79-8-14 35 29 146 79 205 35 42 49 35 48-25zm-685-111c7-14 9-40 5-60-7-35-7-35-52-29-25 3-51 11-58 17-22 18-16 61 12 90 22 23 30 26 54 18 15-6 32-21 39-36zm1060-71c-47-55-199-155-199-133 0 6 15 18 33 27 40 21 134 93 166 128 38 41 38 21 0-22zm-1112-68c-3-3-12-4-19-1-8 3-5 6 6 6 11 1 17-2 13-5zm703-179c0-3-18-53-40-112-41-108-75-164-111-184-25-13-29-10-38 33-17 73 34 165 128 234 44 32 61 40 61 29z"/><path d="m3730 23540c-14-4-56-8-93-9-65-1-68-2-65-23 3-22 7-23 80-20l78 4-16-49c-49-156-62-204-66-239-3-36-1-39 22-39 21 0 25 6 37 60 7 33 27 107 46 165l34 105 152 9c132 8 152 11 149 25s-25 16-168 18c-91 1-176-2-190-7z"/><path d="m915 23516c-45-20-83-120-106-277-13-93-9-119 17-119 8 0 24-10 34-22 16-21 27-23 100-23 77 0 83 2 106 28 43 50 21 137-45 174-26 15-27 18-14 43 20 41 2 169-27 192-26 21-26 21-65 4zm44-132c1-35-4-56-15-64-26-23-13-61 26-74 46-15 77-67 62-102-10-21-18-24-61-24-75 0-111 10-111 30 0 10 14 69 31 131 17 63 32 128 33 144 1 17 6 37 11 45 7 12 10 10 16-10 4-14 7-48 8-76z"/><path d="m15315 23518c-11-6-62-50-112-98-51-48-113-101-138-119l-45-32 7 33c3 18 14 66 24 107 24 93 24 91-4 91-19 0-32-18-76-99-60-112-100-165-142-187-46-23-53-12-44 80 11 117 7 169-12 184-35 26-103-19-171-114-25-35-47-62-49-60s3 43 11 90c16 94 14 116-15 116-21 0-22-2-45-145-9-55-22-129-30-165-11-55-11-67 0-79 8-7 19-10 25-7 5 4 36 48 67 99 75 121 129 194 155 207 20 11 20 10 12-77-10-121-9-140 13-164 16-17 27-20 67-16 42 4 56 11 99 53 42 41 49 45 43 24-4-14-15-31-26-39-21-15-25-41-9-57 7-7 4-28-8-65-35-101-73-279-75-352-2-66 0-72 18-72 17 0 21 9 28 55 15 98 48 242 85 368 36 122 36 122 87 156 57 38 129 97 193 159 49 47 48 54 16-73-22-88-19-150 11-182 49-52 116-46 200 17 41 32 45 33 45 14 0-12 15-36 34-55 29-29 41-34 80-34 40 0 52 5 90 40 55 51 96 146 96 223 0 42-6 63-29 99-35 55-56 68-112 68-58 0-110-52-134-135-26-94-55-144-102-180-61-47-101-54-126-24-23 28-19 62 24 228 34 133 30 151-26 119zm406-69c34-34 52-87 44-133-16-106-100-210-149-184-31 16-36 27-35 88 1 118 55 250 103 250 9 0 25-9 37-21z"/><path d="m487 23453c-29-86-47-170-47-227 0-31-4-56-10-56-5 0-10-10-10-21 0-21 2-21 138-17 146 5 212 22 212 54 0 34-45 94-110 149-54 44-73 68-90 111-18 42-27 54-44 54s-26-10-39-47zm139-159c46-42 84-82 84-89 0-15-42-23-140-27-65-3-65-3-68 26-3 28 27 166 36 166 3 0 42-34 88-76z"/><path d="m4050 23415c-7-14-20-25-27-25-8 0-35-43-60-96-43-87-45-96-30-111 13-13 19-14 31-3 9 7 16 18 16 24s17 38 37 70l37 59 18-53c19-57 43-90 65-90 23 0 25 26 4 61-14 23-21 51-21 89 0 30-3 65-6 78-9 31-47 29-64-3z"/><path d="m2289 23293c-24-21-73-64-109-96-36-33-84-70-107-84-27-15-43-32-43-44 0-40 52-16 175 78 36 28 47 33 41 18-5-11-25-66-45-122-28-78-33-105-24-114 24-24 40 1 82 123 24 67 59 152 78 187 51 96 31 120-48 54z"/><path d="m3025 23310c-40-16-70-59-70-101 0-48 29-75 88-85 45-8 47-21 8-77-35-50-70-85-91-87-41-6-58 1-64 25-8 30-42 34-51 5-7-23 9-56 35-70 27-14 86-12 119 4 71 37 154 172 167 273 6 50 5 54-29 88-36 36-69 43-112 25zm78-58c12-13 15-28 10-56-6-37-7-38-40-33-43 7-63 23-63 50 0 49 61 74 93 39z"/><path d="m2684 23251c-60-37-141-171-151-250-5-41-2-51 18-69 49-46 127-16 204 78 47 57 61 92 72 171 5 39 2 50-16 68-27 27-85 28-127 2zm84-34c16-19-9-119-40-159-60-78-116-114-139-91-13 13 0 63 16 63 7 0 18 21 24 46 14 56 56 121 90 139 33 18 36 18 49 2z"/><path d="m1615 23200c-16-4-56-8-87-9-52-1-58-3-58-22 0-22 1-22 133-15 178 10 222 17 222 36 0 12-17 15-90 16-49 1-103-2-120-6z"/><path d="m3630 23110c0-20 4-20 308-18 265 3 307 5 307 18s-42 15-307 18c-304 2-308 2-308-18z"/><path d="m1639 23064c-95-17-129-30-129-48 0-25 17-27 77-12 32 7 77 17 100 20 57 8 117 37 101 48-18 11-60 9-149-8z"/><path d="m8807 23039c-54-41-150-213-230-414-64-159-87-240-87-302 0-37 3-43 25-49 14-3 35-4 48-1 32 8 177 57 215 73 34 14 44 44 15 44-25-1-151-35-195-54-21-9-42-16-48-16-25 0 32 198 60 208 30 11 182 233 234 342 70 146 51 234-37 169zm-18-161c-41-83-119-202-126-195-7 8 64 152 114 232 48 77 56 51 12-37z"/><path d="m690 23040c-36-4-127-8-202-9-134-1-138-2-138-23s0-21 293-13c386 10 462 16 462 35 0 13-27 15-175 16-96 1-204-2-240-6z"/><path d="m2368 23023c-42-44-72-112-72-162-1-36 3-46 17-49 9-2 19 2 21 10 2 7 10 35 17 62s27 69 46 93c18 24 33 50 33 58 0 24-34 17-62-12z"/><path d="m11044 22961c-41-10-98-55-124-96-13-21-20-50-20-83 0-39-14-83-66-207-72-170-116-243-158-263-33-17-41-34-26-61 15-28 31-26 64 8 27 28 30 29 61 15 86-36 271-25 377 23 63 28 120 83 146 142 14 29 16 64 15 180-2 79-8 162-14 185-15 56-66 134-100 151-29 16-102 18-155 6zm152-73c52-62 58-90 58-264l1-162-31-43c-39-54-109-94-190-108-68-12-156-14-202-5-27 6-29 8-19 25 9 16 9 21-1 28-11 7-9 18 11 57 29 60 116 272 152 374 15 41 30 82 34 90 13 25 53 40 108 40 46 0 54-4 79-32z"/><path d="m3809 22925c-108-56-174-190-120-244s347-27 389 37c13 20 13 22-5 22-11 0-42-7-69-15-66-21-234-31-262-16-12 6-20 17-17 24 2 6 6 24 9 39 3 14 18 41 32 58 29 34 99 74 117 67 7-3-3-10-21-17-44-17-40-46 7-43 42 2 81 38 81 74 0 46-66 53-141 14z"/><path d="m514 22908c-17-32-62-165-83-245-9-31-9-49-1-63 27-51 60-2 103 152l22 77 37-35c20-20 71-53 114-74l77-37-79-27c-44-14-98-29-119-31-41-6-85-29-85-45 0-20 34-28 70-15 19 7 71 23 115 36 44 12 97 31 117 41 21 10 46 18 57 18 20 0 20 0 0-47-29-67-36-145-16-162 33-27 137 26 137 70 0 27-25 24-66-8l-35-26 7 29c4 16 15 52 26 80 18 51 18 51 72 58 99 11 116 31 36 38-28 3-53 7-55 10-3 2 8 40 24 84 15 43 26 85 24 92-7 18-43 15-49-5-3-10-19-52-36-94l-29-76-37 7c-20 4-76 26-124 49-91 44-138 88-159 150-15 41-44 41-65-1z"/><path d="m10196 22865c-8-8-17-24-21-34-5-18-18-20-141-23-129-3-137-4-155-27-23-28-25-64-4-85 23-23 45-9 45 29 0 31 1 32 53 39 28 3 81 6 116 6 56 0 62-2 56-17-4-10-22-61-40-113-57-165-104-226-144-185-15 15-14 18 12 36 32 25 27 39-14 39-74 0-90-46-37-106 28-32 36-35 66-30 19 3 44 12 57 20 33 22 77 107 120 235l39 113 35-6c20-3 55-6 79-6h43l-15-27c-8-16-28-59-44-98-75-177-87-240-49-240 13 0 26 24 51 95 49 137 81 210 108 242 23 28 23 28 145 28 114 0 123 1 123 19 0 17-12 19-127 25-71 3-175 5-232 5-71 0-101 3-96 10 3 6 12 11 19 11 8 0 19 6 25 14 9 11 8 18-4 30-21 20-49 21-69 1z"/><path d="m9360 22698c-155-21-196-36-172-60 6-6 42-6 103 2 52 6 133 15 181 20 100 10 114 15 97 36-13 16-102 17-209 2z"/><path d="m9320 22560c-30-5-58-6-62-4-16 10-48-8-48-27 0-23 13-23 229-9 140 9 183 20 151 40-18 11-191 11-270 0z"/><path d="m2420 22015c-52-53-121-112-152-133-34-22-58-44-58-54 0-27 36-22 85 12 24 17 46 30 48 30 3 0-11-37-31-82-44-101-51-181-16-186 21-3 54 21 54 39 0 5-6 9-14 9-42 0 88 272 190 397 22 27 24 36 14 48-7 8-15 15-19 15-3 0-49-43-101-95z"/><path d="m3463 22088c-42-30-121-129-163-202-22-39-43-62-62-70-27-10-39-41-18-48 5-1-10-24-34-50-31-34-52-48-70-48-19 0-26-5-26-20 0-16 7-20 36-20 49 0 64 10 124 82l53 63 88 5c64 4 89 2 89-7 0-6-11-44-25-85-29-85-31-104-10-112 29-11 51 7 46 37-1 5 11 47 26 93 26 81 28 84 58 84 16 0 37 5 45 10 13 9 13 11 0 20-8 5-25 10-38 10-21 0-22 3-15 38 4 20 7 75 6 122-1 74-5 87-23 102-29 24-49 23-87-4zm55-130c-2-57-7-109-11-115-6-9-36-13-93-13h-86l30 52c33 57 137 178 154 178 7 0 9-35 6-102z"/><path d="m11580 21971c-48-19-78-57-67-84 9-24 38-21 44 3 7 25 62 50 109 50 39 0 39 2 18-47-9-23-42-60-80-93-64-55-84-84-67-101 5-5 57-4 123 1 138 12 163 17 157 33-2 8-37 14-97 17l-94 5 43 34c70 56 102 149 63 184-24 22-94 21-152-2z"/><path d="m2722 21950c-28-17-62-46-75-65-12-19-30-35-39-35-26 0-50-56-56-127-5-60-4-63 28-93 19-18 43-30 59-30 91 0 222 94 272 195 41 83 38 130-10 162-50 33-112 31-179-7zm133-24c42-18 43-33 10-103-38-82-149-173-212-173-34 0-56 34-49 74 4 23 11 33 20 30 8-3 20 12 32 38 26 59 71 108 119 129 48 22 39 22 80 5z"/><path d="m603 21959c-23-7-33-16-33-30 0-18 5-19 68-14 37 4 77 8 90 11 12 2 22 3 22 0 0-17-43-115-106-241-61-123-80-153-104-164-18-8-30-20-30-32 0-18 9-19 135-19 128 0 135 1 135 20 0 18-7 20-80 20-44 0-80 2-80 4s25 53 56 112c31 60 68 136 83 169 50 110 61 125 104 125 26 0 37 4 37 15 0 8-16 19-37 24-46 13-216 13-260 0z"/><path d="m1571 21936c-34-40 50-62 224-59 103 3 150 13 150 34 0 11-20 13-110 11-74-2-131 2-175 12-79 19-75 19-89 2z"/><path d="m11354 21862c-6-4-30-63-54-132s-52-145-63-170l-19-45-21 26c-46 56-83 61-168 23-60-27-114-86-159-174-40-78-5-92 136-55 116 31 173 60 155 78-8 8-40 3-123-20-62-17-114-30-116-28-6 6 20 49 56 93s96 82 130 82c22 0 53-32 76-77 25-50 59-45 79 10 8 23 38 105 66 182s52 155 54 174c2 34-9 47-29 33z"/><path d="m1800 21820c-25-5-67-9-95-9-74 1-75 1-75-21 0-18 6-20 83-19 45 0 106 4 135 8 50 7 82 24 70 36-11 11-73 13-118 5z"/><path d="m8750 21649c-58-26-96-63-126-121-42-82-35-116 50-255 41-67 89-141 105-164 41-55 40-76-4-95-36-15-139-19-218-8l-47 7 32 36c27 30 29 37 15 39-29 6-91-33-102-62-16-45 15-62 130-71 138-10 240 8 275 49 19 24 5 73-44 146-91 137-154 246-160 278-7 42 31 121 73 151 78 56 131 48 131-19 0-51 8-70 30-70s30 19 30 74c0 51-32 90-81 100-41 8-37 9-89-15z"/><path d="m10670 21660c-8-5-88-10-178-10-170 0-202-6-202-41 0-23 27-36 43-20 6 6 30 11 54 11 39 0 43-2 43-25 0-14-8-53-17-88-13-46-28-72-59-103-44-44-109-73-126-56-6 6-1 12 16 16 14 3 26 13 26 21 0 24-75 20-100-5s-25-34 1-58c42-39 101-36 179 11 73 43 99 92 139 262 7 30 8 30 79 33 40 2 72 0 72-3 0-18-65-215-82-247-10-21-25-38-34-38s-14-7-12-17c2-12 13-18 33-18 42 0 66 42 115 196l41 129h74c41 0 75 2 75 4s3 11 6 20c5 14-5 16-69 16-42 0-79 5-82 10-8 12-16 12-35 0z"/><path d="m9357 21303c-4-3-7-12-7-18 0-25 53-35 181-35 119 0 130 2 127 18-3 14-20 18-117 24-62 3-128 9-145 12-18 4-35 3-39-1z"/><path d="m4692 21260c-94-39-127-121-78-193l24-36-28-44c-53-84-51-122 5-157 65-40 155-2 155 66 0 17-13 57-30 88l-29 57 39 60c34 52 43 89 21 89-3 0-6 17-6 37 0 33-3 38-25 40-14 1-36-2-48-7zm18-59c0-5-11-23-25-39-21-25-23-32-12-44 14-13 12-38-2-38-8 0-31 44-31 60 0 5 12 22 26 39 25 31 44 40 44 22zm-4-266c13-36 14-48 4-60-17-20-53-19-73 3-17 19-14 29 23 89 18 28 25 23 46-32z"/><path d="m11600 21225c-8-9-29-15-59-15-25 0-104-7-176-16-95-12-267-18-640-23-444-5-510-8-510-21s60-15 465-18c298-2 512 1 595 9 72 6 178 14 237 18 112 7 141 19 136 55-4 26-30 32-48 11z"/><path d="m9370 21132c0-17 14-20 166-26 92-4 169-4 172-1 24 24-84 45-229 45-99 0-109-2-109-18z"/><path d="m4230 21032c0-36 173-59 200-27 15 18 11 20-87 34-100 15-113 14-113-7z"/><path d="m10796 20998c-39-93-99-278-104-315-6-51 13-64 62-43 36 15 173 36 182 28 3-4-8-48-26-100-17-51-33-112-37-134-5-36-2-44 16-53 15-9 27-9 41-1 21 11 28 40 10 40-17 0-11 32 25 141 47 139 78 274 71 305-9 35-50 30-54-6-7-67-15-92-38-120-23-27-31-30-84-30-32 0-71-5-86-10-24-10-26-9-21 12 2 13 26 82 51 153 26 72 47 132 48 135 5 43-38 41-56-2z"/><path d="m606 20960c-97-29-154-171-171-426-16-224-38-371-71-468-15-44-18-47-25-28-5 12-6 29-3 37 11 27-5 65-26 65-18 0-20-7-20-65 0-52 4-69 20-85 76-76 130 55 169 409 5 46 15 87 21 91 7 4 30 11 51 14 54 9 182 98 221 154 29 42 33 56 36 127 2 62-1 88-15 114-31 60-108 84-187 61zm117-54c33-25 48-125 28-179-14-37-69-95-125-133-45-30-51-32-70-18-11 7-31 14-43 14-25 0-25-6 2 136 16 80 59 163 96 181 32 17 89 16 112-1z"/><path d="m5184 20847c-43-16-78-47-97-83-9-17-30-94-47-171-23-106-28-147-21-166 14-37 46-51 95-42 23 4 67 7 98 6 45-1 61 2 77 18s21 17 25 5c7-17 68-19 99-3 12 7 38 24 58 40 34 27 35 27 47 8 14-23 40-24 105-4l47 14v-39c0-30 5-43 24-55 13-8 31-13 40-9 20 8 20 13 1 34-22 24-2 111 34 153 45 52 61 80 61 105 0 19-4 23-27 20-19-2-37-17-60-48-78-108-90-119-160-136-25-7-26-5-20 23 3 16 20 53 38 81 32 52 33 77 4 88-23 9-52-22-71-75-20-53-60-100-124-142l-45-30-6 57c-5 41-2 67 9 93 8 20 15 63 16 97 1 51-3 67-27 102-18 25-44 46-68 56-46 19-63 19-105 3zm112-71c30-30 34-40 34-87-1-75-27-126-94-184l-57-48-30 28c-53 51-58 116-17 198 10 21 16 46 13 56-3 11 3 25 17 38 48 44 90 43 134-1zm-198-316 23-30h-26c-21 0-25 5-25 30 0 17 1 30 3 30s13-13 25-30z"/><path d="m2313 20743c-57-58-103-112-103-119 0-24 50-16 72 11 34 43 38 28 12-42-28-74-28-108 0-108 13 0 25 19 46 75 15 41 37 93 48 115 69 137 77 176 38 175-6 0-57-48-113-107z"/><path d="m3778 20821c-39-34-130-164-132-188-1-21 33-30 45-11 18 27 9-13-11-52-24-47-37-125-22-134 19-12 40 6 46 39 7 34 47 129 112 260 38 78 42 100 18 109-22 8-20 9-56-23z"/><path d="m2703 20815c-9-26 5-30 110-30h102l-1-35c-1-19-16-67-34-107l-32-72-67-3c-51-2-66-6-66-18 0-11 14-16 53-18 28-2 52-5 52-8 0-2-16-38-35-78-19-41-35-77-35-80 0-12 48-6 58 7 6 7 24 44 41 82l29 69 61 12c33 7 65 16 71 19 21 13-3 25-49 25h-49l29 71c34 83 37 138 11 162s-240 25-249 2z"/><path d="m3128 20818c-40-11-54-30-34-47 10-8 22-8 40-1 37 14 91 13 103-2 18-22 23-64 13-98-6-20-40-64-85-110-60-62-75-84-75-108 0-21 7-36 22-46 43-30 148-14 169 27 11 19 9 20-34 14-25-4-49-7-54-8-21-4-53 2-53 9 0 4 32 42 71 83 38 40 77 88 85 106 21 48 18 105-9 144-31 46-81 58-159 37z"/><path d="m4028 20804c-29-15-48-42-48-68 0-8-14-38-32-66-27-43-32-61-32-117-1-64 0-66 27-76 16-5 48-6 72-3 95 15 163 98 173 211 5 74-6 106-45 124-33 15-83 13-115-5zm104-51c9-11 9-29 1-78-17-97-70-155-143-155-22 0-30 5-30 18 0 40 24 100 57 140 22 27 32 48 29 60-12 36 58 48 86 15z"/><path d="m1786 20663c-4-4-62-10-129-13-99-4-122-8-122-20 0-13 23-15 145-15 150 0 195 10 184 40-6 16-64 21-78 8z"/><path d="m3451 20641c-31-44-28-71 8-71 17 0 33 5 36 10 3 6 15 10 25 10 25 0 43 33 28 48-7 7-18 12-25 12s-13 5-13 10c0 21-40 9-59-19z"/><path d="m6372 20663c-7-3-31-39-54-81-45-82-157-202-189-202-23 0-32 30-19 65 12 31 6 45-19 45-43 0-55-97-16-135 41-42 83-32 162 39 45 41 51 44 56 26 8-31 70-26 136 10 30 17 56 30 58 30 1 0 3-16 3-35 0-52 43-96 102-102 67-8 175 27 213 68 30 32 30 32 5 25-193-55-231-58-255-22-17 26-12 61 21 149 16 40 16 49 5 57-19 11-39 2-46-20-7-21-93-88-153-119l-43-22 7 28c3 15 18 55 31 88 14 33 27 69 30 81 5 22-12 35-35 27z"/><path d="m2439 20548c-17-24-40-62-51-86-28-63-60-196-56-239 3-32 7-38 28-41 24-3 25-1 27 55 2 76 44 205 88 270 19 29 35 59 35 68 0 30-40 15-71-27z"/><path d="m1655 20554c-122-21-125-22-125-44 0-24 27-26 120-5 36 8 88 15 115 16 67 1 99 11 103 32 3 15-6 17-65 16-37 0-104-7-148-15z"/><path d="m6017 20563c-13-12-7-51 8-57 31-12 59 18 48 52-5 13-45 17-56 5z"/><path d="m11432 19995c-83-18-137-51-203-122-59-64-97-154-120-283-6-36-31-109-56-163-25-53-42-104-39-112s16-15 30-15c33 0 80 81 101 176 9 38 41 119 71 181 58 120 63 137 38 151-13 7-6 17 38 56 71 63 123 86 206 93 63 5 71 4 90-17 69-75-114-249-315-300-62-15-58-41 10-73 30-14 90-60 144-111 104-98 141-117 221-117 70 0 118 14 149 43 29 27 30 42 1 34-120-36-180-40-233-13-11 5-56 44-100 87-44 42-93 85-108 95l-28 18 65 27c184 78 310 243 250 328-36 52-96 62-212 37z"/><path d="m8832 19915c-82-38-141-85-170-135-14-25-31-48-37-52-17-13-67-9-113 9-45 17-70 9-59-20 9-24 101-50 147-42 32 5 40 4 40-8 0-22 49-60 104-81l48-18-51-29c-57-33-94-77-116-138-35-100-7-137 99-134 76 2 206 50 270 99 84 64 44 90-45 29-54-37-190-85-240-85-82 0-23 148 80 199 20 10 60 24 90 32 78 20 81 58 4 59-73 0-209 68-186 91 5 5 55 24 113 44 115 40 173 70 208 108 73 78-61 130-186 72zm144-44c-9-10-35-27-58-38-64-32-208-83-208-73 0 14 77 78 122 101 48 25 101 37 136 31 21-4 21-6 8-21z"/><path d="m10869 19926c-12-12-158-29-289-35-120-5-145-9-145-21s19-16 98-18l98-3-29-52c-35-62-139-318-148-366l-7-33-83 7c-79 6-84 6-84-13 0-15 11-21 57-31 73-14 340-14 382 0 39 14 40 45 1 41-14-1-70-5-124-9l-99-6 7 29c20 82 158 395 190 431 1 1 39 7 85 12 86 11 131 30 131 56 0 14-30 21-41 11z"/><path d="m9595 19619c-22-4-68-8-101-8-48-1-63-5-68-18-9-23 19-50 36-35 8 6 87 14 191 18 140 6 177 10 177 21 0 7-12 18-26 23-30 12-152 11-209-1z"/><path d="m3450 19600c-80-4-296-13-480-19-184-7-426-17-537-23-195-10-1061-5-1270 8-89 6-93 5-93-15 0-27 36-47 55-31 11 9 32 9 84 1 89-14 1097-14 1426 0 736 30 1633 53 1795 44 69-3 278-10 465-15 187-6 383-14 435-20 52-5 132-13 178-16 78-7 82-6 82 14 0 17-8 22-47 26-27 4-82 11-123 16-41 6-176 15-300 21-298 13-1486 20-1670 9z"/><path d="m9765 19500c-27-5-110-9-182-9-126-1-133-2-133-21s7-20 160-20c137 0 166 3 212 21 29 11 57 25 63 30 11 11-46 10-120-1z"/><path d="m17633 19424c-7-3-28-27-47-53-19-27-67-76-108-110-40-34-97-83-127-109-85-74-83-73-110-51l-24 20 31 32c32 33 62 102 62 142 0 52-80 67-126 25-36-35-74-119-74-166 0-36-3-41-42-60-62-31-75-35-103-24-22 8-25 16-25 57 0 27 4 64 10 83 6 20 6 38 1 43s-7 33-4 62c5 47 3 54-17 65-39 21-88 3-139-49-50-51-106-154-117-213-13-75 68-103 154-53l44 25 32-35c47-49 103-49 199 1 58 30 71 33 85 22 32-25 30-32-31-98-105-113-141-219-98-287 55-87 242-54 286 50 19 46 4 185-28 248l-23 47 80 70c45 39 94 81 110 93 27 21 29 22 22 4-13-34-64-199-70-227-8-35 15-93 42-107 12-6 38-11 59-11 115 1 245 142 201 220-33 60-134 76-184 29-37-34-31-6 23 118 31 72 58 119 81 140 47 43 31 79-25 57zm-738-111c-7-32-52-83-72-83-7 0-13-9-13-20 0-15 7-20 28-20 15 0 33 5 40 12 9 9 12 9 12 0 0-35-125-132-150-117-18 11-10 51 20 113 52 102 154 189 135 115zm359-40c-4-16-11-37-17-48-12-25-58-75-69-75-18 0 16 90 51 133 23 28 43 22 35-10zm419-197c28-22 21-63-20-107-39-41-102-70-135-62-26 7-32 44-18 104 12 49 13 51 25 29 12-23 12-23 46 14 36 38 71 46 102 22zm-398-118c9-24 19-77 21-118 5-80-1-95-56-133-31-22-103-22-124-1-49 48-17 135 93 257 18 20 37 37 41 37s16-19 25-42z"/><path d="m15555 19386c-89-28-155-97-155-162 0-38-90-124-129-124-62 0-68 59-16 153 40 72 43 92 17 106-30 16-57-11-82-81-26-71-73-126-135-159-63-33-79-23-72 47 8 79-11 82-76 9-49-55-121-100-140-88-10 6-5 52 12 135 6 27 8 54 5 62-16 41-85 21-165-47-116-98-152-127-156-124-2 2 4 24 13 48 8 24 18 76 21 114 5 58 3 73-11 84-29 24-46-3-46-73 0-41-9-89-25-137-30-86-30-123 1-127 22-3 75 36 217 160 43 37 83 68 89 68s8-10 4-27c-4-16-10-55-13-89-4-48-2-64 12-77 32-33 116-15 172 36 23 20 23 20 43-6 39-49 107-42 188 19 18 14 34 24 36 23 1-2 7-16 14-31 23-55 139-61 186-9 18 20 18 20 43-9 49-58 141-62 249-11 88 42 134 107 134 192 0 39-40 91-90 117-49 25-86 27-145 8zm117-47c58-27 76-100 41-163-25-42-130-96-190-96-62 0-113 56-67 74 10 4 14 12 10 22-3 8-1 25 6 37 6 12 14 37 17 56 5 28 14 39 50 58 48 25 96 29 133 12z"/><path d="m15852 19378c-5-7-15-60-22-118s-14-122-17-143c-7-48 17-77 62-77 43 0 114 55 157 121 33 51 33 51 39 22 9-43 16-51 57-63 59-16 96-12 153 18l54 28 21-25c19-22 32-26 98-29 42-2 76-7 74-11s-22-46-46-92c-34-66-46-103-54-167-12-94-7-115 24-110 21 3 23 9 28 85 5 71 11 93 50 170 24 48 52 99 62 112 22 28 23 60 4 67-8 3-29 1-48-4-18-5-59-7-91-4-73 6-83 23-56 100 20 59 16 85-13 80-13-2-27-21-41-58-18-44-32-62-71-87-58-40-128-46-146-14-12 24-13 105-2 146 11 38 5 55-18 55-12 0-30-25-59-82-22-46-58-104-78-130-38-46-97-88-108-76-4 4-2 30 4 60 28 142 34 207 21 223-15 18-24 19-38 3z"/><path d="m3259 19140c-106-19-153-70-145-157 6-69 25-107 55-111 26-4 26-10 1 87-23 93 24 133 165 139 149 7 230-29 228-102-1-46-65-136-163-231-131-126-170-187-170-263 0-43 20-68 45-58 12 4 14 14 9 41-10 56 27 117 148 239 60 60 125 134 145 164 97 147 22 250-187 258-47 2-106-1-131-6z"/><path d="m1704 19067c-3-12-15-30-25-40-25-23-24-54 1-69 25-16 26-66 4-215-26-176-93-317-175-369-43-27-49-57-14-62 50-7 140 100 194 228 35 84 71 296 71 417 0 39 4 74 9 77s38 6 74 7c46 1 73-4 94-16 64-38 123-187 138-350 11-122-34-221-128-281-41-27-134-54-183-54-32 0-32 0-21 35 15 51 0 55-39 12-48-52-45-90 6-95 56-6 181 17 235 43 68 33 137 107 165 178 20 52 22 69 17 160-10 175-63 318-141 380-40 32-42 32-158 34-113 2-117 1-124-20z"/><path d="m12033 18838c-6-7-13-51-16-98-4-47-14-113-23-148-17-66-14-95 9-86 45 17 100 297 65 332-15 15-23 15-35 0z"/><path d="m14025 18838c-11-7-92-31-180-54s-200-53-250-67c-49-14-157-44-240-67-338-93-904-267-987-304-13-6-18-4-18 8 0 26-43 19-86-13-63-46-116-107-112-127 3-17 14-19 123-19 100 0 120 3 120 15s-17 16-83 18c-60 2-82 6-79 15 2 7 13 11 25 10 11-1 58 15 104 36 46 22 137 56 203 76s197 61 290 90c94 30 285 86 425 124 140 39 287 80 325 91 39 11 140 38 225 61 183 48 275 82 275 100s-54 23-80 7z"/><path d="m2370 18630c0-20 4-20 153-18 127 3 152 5 152 18s-25 15-152 18c-149 2-153 2-153-18z"/><path d="m11616 18575c-46-16-96-62-96-87 0-27 44-64 98-84 102-37 208-86 220-101 23-31 14-71-25-114-49-54-86-69-172-69-66 0-72 2-88 28-22 34-33 42-50 35-22-8-15-41 16-75 29-33 31-33 118-33 48 0 104 6 123 13 55 19 126 90 141 141 12 39 11 47-7 80-15 28-36 44-94 73-41 20-97 44-125 52-53 16-95 41-95 56 0 5 11 17 25 26 60 39 188 41 198 3 7-25 33-34 52-19 24 20 17 43-18 68-27 18-46 22-108 22-41-1-91-7-113-15z"/><path d="m10662 18543c-17-7-119-219-132-275-15-68-13-116 8-127 9-6 11-11 5-11-7 0-13-10-13-21 0-21 3-22 78-14 42 4 118 10 167 13 84 7 90 9 93 30 2 15-9 38-32 67-20 24-53 72-73 107-30 53-36 75-41 138-6 93-17 110-60 93zm53-255c17-30 44-73 62-95l32-40-111-6c-61-4-113-6-114-4-1 1 11 40 27 87s29 95 29 107c0 39 42 12 75-49z"/><path d="m11131 18502c-66-44-123-142-162-276-25-86-19-109 23-89 17 8 32 37 58 109 22 61 36 90 38 77 2-16 20-30 60-49 104-48 170-117 138-143-16-13-178-18-237-7-38 7-47 6-52-8-4-10 2-20 16-28 31-16 236-23 279-9 42 14 63 49 53 88-9 37-86 110-142 135-45 20-45 20-21 35 92 62 118 151 52 181-38 18-57 15-103-16zm83-31c13-20-16-63-61-91-26-17-51-30-55-30-17 0 27 49 60 67 26 14 32 23 27 41-4 15-1 22 9 22 8 0 17-4 20-9z"/><path d="m15985 18512c-13-9-75-105-76-118 0-5-28-45-62-88-43-55-84-95-132-127-90-61-115-68-115-37 0 13 7 36 15 52 20 39 12 60-19 52-23-6-24-5-13 35 22 87-43 146-150 137-63-5-94-31-145-116-47-79-82-110-146-128-50-15-58-15-88 0-31 14-32 17-23 44 6 19 39 50 100 92 89 64 107 92 64 98-28 4-128-52-162-91-16-18-52-52-81-75-52-44-52-44-47-15 40 236 41 255 20 273-22 18-45-4-45-44 0-44-29-249-45-321-12-49-12-62-1-73 18-18 43-5 51 26 3 15 23 44 42 64 35 36 37 37 50 18 27-38 72-53 138-47 33 3 68 9 78 12 11 5 17 2 17-8 0-25 38-64 69-70 62-13 154 29 240 107l34 31-6-43c-11-89 52-104 162-39 30 18 78 54 107 81 51 46 54 47 54 23 0-33 52-77 91-77 33 0 115 38 167 77l33 25-7-61c-6-58-5-61 24-91 23-23 39-30 69-30 70 0 143 71 143 139 0 29-46 60-101 67-27 4-49 11-49 16s16 38 35 72c40 72 45 106 16 106-13 0-30-18-50-52-53-93-213-218-279-218-58 0-47 98 25 223 37 63 43 80 33 92-14 17-20 18-35 7zm-490-146c31-13 35-19 35-53 0-21-8-54-19-73-36-69-179-155-226-137-8 4-15 18-15 34 0 38 12 54 30 43 28-18 43-12 36 16-5 17 0 36 14 60 12 19 19 42 16 52-9 28 34 63 87 71 4 0 23-6 42-13zm819-152c19-7 21-44 4-67-7-9-26-23-42-31-39-20-66-6-66 34 0 52 52 84 104 64z"/><path d="m16533 18433c-18-44-31-118-39-224-6-70-5-78 16-99 18-18 30-21 60-17 38 5 154 75 163 99 3 7 6-1 6-18 1-35 32-80 61-89 18-6 14-14-40-72-64-70-76-107-40-118 11-4 34-4 50 0 29 6 253 148 376 238l62 45 6-38c7-45 63-101 122-121 59-21 169-16 236 10 77 30 86 46 22 37-173-24-238-17-294 30-37 31-39 69-9 148 23 62 18 80-18 73-19-3-23-1-18 11 14 38 17 102 5 117-16 20-54 19-85-1-37-24-128-141-169-216-46-82-59-125-46-149 9-15-2-25-76-69-48-28-90-48-93-44-7 7 73 79 109 97 14 7 26 20 28 29 2 12-8 17-45 23-76 10-87 23-81 97 3 36 15 82 27 105 27 54 27 83 1 83-13 0-34-23-66-72-55-87-85-120-141-159-47-33-71-37-80-13-8 23 18 187 33 199 17 14 26 86 12 102-19 23-39 14-55-24zm667-96c-24-77-92-174-144-207-21-12-39-20-41-18-7 6 41 103 76 156 32 48 120 144 126 138 2-1-6-32-17-69z"/><path d="m3282 18260c-24-22-20-50 8-50 23 0 54 36 47 55-9 21-29 19-55-5z"/><path d="m8959 18235c-97-24-199-105-215-172-5-19-12-23-43-22-63 2-86 12-86 39 0 34-39 40-55 9-26-48 50-96 156-98 23-1 47-7 54-15 6-8 28-20 48-26s43-13 50-16c8-2 0-15-22-35-45-39-85-123-92-196-8-75 6-88 85-87 62 1 199 51 267 98l39 27-50-7c-27-3-90-22-140-40-49-19-105-34-123-34-33 0-33 1-27 33 23 116 63 174 142 209 66 29 57 44-47 73-36 10-69 21-74 23-5 3 29 19 75 37 132 50 195 83 228 120 38 43 32 71-18 85-46 13-83 12-152-5zm113-64c-33-28-260-127-269-117-9 9 25 53 63 82 48 37 128 63 189 63h50z"/><path d="m9540 18041c-16-4-25-14-25-26 0-15 6-20 25-18 14 1 120 5 237 9 210 7 254 14 223 34-17 11-421 12-460 1z"/><path d="m9850 17948c-36-4-105-10-153-12-89-4-116-13-102-37 15-23 342 4 449 37 15 5 16 8 5 15-17 11-111 9-199-3z"/><path d="m10470 17910c0-20 7-20 890-20s890 0 890 20-7 20-890 20-890 0-890-20z"/><path d="m7096 17862c-3-5-25-12-48-16-120-19-181-27-268-35-52-6-176-19-275-31-299-35-403-41-830-50-225-5-534-14-685-22-355-17-1530-16-1675 2-69 8-445 15-1220 20-616 5-1135 11-1153 15-28 6-32 5-32-13 0-11 9-23 23-28 12-4 488-11 1057-15 569-5 1096-13 1170-19 197-15 1437-23 1740-11 140 6 422 15 625 21 204 6 465 15 580 20 203 10 260 15 465 40 52 6 138 16 190 21 304 29 399 52 386 94-4 13-43 19-50 7z"/><path d="m11783 17783c-33-31-91-133-118-204l-17-46-99-6c-102-6-139-17-139-42 0-12 18-13 111-8l111 6-17-39c-35-79-65-170-65-196 0-39 38-62 93-56 56 7 97 33 97 64 0 29-6 30-48 4-18-11-46-20-62-20-28 0-30 2-24 27 4 15 24 71 45 123l37 95 80 7c95 9 140 24 124 40-7 7-42 9-96 6-52-3-86-1-86 5 0 27 78 166 112 200 31 31 37 42 27 53-17 21-33 17-66-13z"/><path d="m11104 17553c-15-32-44-96-66-143-60-131-90-209-83-220 10-15 32-12 47 8 10 13 29 17 83 18 145 2 266 16 287 34 21 17 21 18-53 92-64 65-80 89-115 169-50 117-64 123-100 42zm145-215 52-57-33-5c-76-11-143-15-183-9l-43 5 44 93c24 51 46 105 50 121 7 28 8 27 35-31 15-33 50-86 78-117z"/><path d="m11800 16938c-33-18-41-68-11-68 11 0 24 6 28 13 14 23 69 29 92 9 41-35 27-82-45-153-55-54-69-91-38-103 36-14 327 3 343 20 4 3-3 12-13 20-24 17-67 18-167 3-42-7-85-9-95-5-15 6-11 13 28 54 72 75 84 132 39 191-15 20-30 25-77 28-36 2-69-1-84-9z"/><path d="m11494 16774c-26-6-54-10-61-7s-25-6-40-21c-14-14-29-26-34-26s-13-10-20-21c-8-16-8-27 1-44 14-26-5-71-62-146-19-24-46-65-61-91-30-51-89-98-149-117-28-9-38-18-38-33 0-47 130 2 197 74 11 12 34 44 50 69 15 26 43 68 61 93s47 80 65 123c33 76 34 77 88 95 115 39 157-6 195-209l17-92-27-55c-15-31-39-65-53-76-39-31-115-48-241-54l-113-6 30 26c33 28 41 54 16 54-30 0-125-61-125-81 0-31 33-39 158-39 233 0 320 36 381 157 25 51 26 99 5 207-40 194-105 255-240 220z"/><path d="m9196 16705c-17-25-36-149-36-231 0-22 6-49 14-60 28-37 41-2 47 127 5 91 10 124 23 138 19 21 12 51-14 51-10 0-25-11-34-25z"/><path d="m10520 16661c-122-23-190-59-177-94 8-20 43-22 54-3s42 33 90 41l42 7-5-39c-13-87-70-225-85-202-7 12-15 10-44-5-36-20-52-52-41-82 8-21 79-13 107 12s64 93 95 181c29 83 28 129-4 135-9 2 39 7 108 11 76 4 140 2 165-4 80-20 147 3 93 32-27 15-331 22-398 10z"/><path d="m10762 16558c-7-7-12-16-12-20 0-5-29-54-65-111-35-56-68-117-71-136-6-30-5-33 17-29 15 2 29 14 38 33 8 17 41 72 73 123 66 104 82 152 51 152-10 0-24-5-31-12z"/><path d="m8790 16441c-75-23-143-84-155-140s11-95 104-180c117-107 171-177 174-227 2-34-2-40-28-53-34-17-175-30-204-19-11 4-25 17-31 28-10 19-8 26 14 49 14 15 26 32 26 39 0 21-37 13-69-14-39-33-42-79-7-117 32-35 61-41 164-34 137 8 192 40 192 109 0 65-27 107-152 231-65 65-123 128-127 140-25 66 69 147 169 147 45 0 49-11 29-69-15-42-4-81 21-81 12 0 21 8 24 23 30 139 29 153-11 168-28 11-97 11-133 0z"/><path d="m9430 16171c0-18 10-19 178-23 97-2 179-2 182 0 2 1-1 11-6 20-10 15-34 17-183 20-163 2-171 2-171-17z"/><path d="m11770 16169c-74-5-371-13-660-19s-582-13-652-16c-122-5-128-6-128-26 0-21 1-21 233-14 127 4 457 11 732 16s533 12 573 16c67 6 73 9 70 28-4 25 1 25-168 15z"/><path d="m9605 16075c-112-23-115-24-115-45 0-24 7-24 124-5 50 8 116 18 146 22 39 6 55 12 55 23 0 21-117 23-210 5z"/><path d="m11098 15908c-27-44-130-328-125-343 7-17 53-20 92-5 62 23 225 49 225 36 0-11-45-208-82-358-22-91-38-174-35-182 4-9 15-16 25-16 15 0 24 24 55 148 20 81 48 201 62 267s30 134 35 151c6 17 8 38 5 45-3 8 4 32 15 54 26 51 25 65-4 65-30 0-42-15-58-73-11-43-15-47-43-47-34-1-190-33-219-45-11-5-17-5-14 1 3 5 27 63 52 129 26 66 52 130 58 142 23 46-17 74-44 31z"/><path d="m10450 14806c0-24 79-234 126-335 24-52 44-95 44-97s-17-6-37-10c-68-12-113-35-113-56 0-22 7-22 102 3 27 7 50 10 52 8 6-7-23-180-39-229-23-70-70-130-116-148-48-19-55-52-11-52 39 0 108 48 137 96 29 46 65 154 65 194 0 16 4 41 10 55 10 26 10 26 55-40 44-64 45-67 34-108-12-47-44-114-65-138s6-45 35-29c22 11 63 85 74 131 6 25 11 21 119-86 129-128 211-195 239-195 32 0 22 23-33 72-49 44-51 47-28 48 14 1 43 7 65 15 35 12 41 12 56-1 22-20 56-10 65 19 3 12 18 35 32 50 21 22 24 30 13 36-11 7-12 17-3 47 25 91 57 198 98 336 24 81 44 154 44 162 0 22-37 20-49-1-11-23-125-401-154-515-7-25-15-50-19-53-4-4-30 13-58 38-74 67-146 84-194 46-18-14-26-30-26-51v-31l-26 24c-14 13-44 45-66 72l-40 48 18 69c13 52 15 73 7 81-20 20-40 2-52-46-6-25-16-43-21-40-10 6-80 122-80 132 0 3 33 2 73-3 39-5 135-9 212-9 118 0 140 2 140 15 0 16-14 17-322 35l-131 8-52 109c-28 60-64 143-80 186-50 135-59 152-80 152-11 0-20-6-20-14zm660-783c14-9 35-25 48-37l23-20-23-13c-29-16-110-17-126-1-13 13-17 70-5 81 12 13 58 7 83-10z"/><path d="m11690 14775c-18-22-5-30 45-30 50-1 85-26 85-62 0-35-42-96-119-171-108-105-135-166-88-197 31-20 169-45 201-37 34 9 37 24 6 32-60 17-122 30-140 30-28 0-35 25-17 54 9 13 50 58 91 100 42 42 85 94 96 116 38 74 20 148-42 169-45 16-103 14-118-4z"/><path d="m3767 14560c-29-23-80-139-107-244-10-40-35-125-55-189-34-108-40-120-80-153-47-38-52-70-9-61 23 4 23 4 17-74-6-77-5-78 25-108 37-38 71-40 167-10 64 21 105 47 105 69 0 15-20 12-100-15-141-48-163-30-136 114 14 77 19 87 64 135 127 135 231 347 232 474 0 40-38 82-73 82-13 0-36-9-50-20zm64-47c4-70-23-175-63-243-49-83-101-160-105-156-3 3 4 33 15 68 12 35 30 97 41 138 27 102 76 210 96 210 8 0 15-8 16-17z"/><path d="m9675 14413c-23-10-56-29-74-42-36-26-75-100-66-124 7-17-39-27-121-27-37 0-54 4-58 15-3 8-14 15-25 15-21 0-33-22-25-45 7-16 64-35 108-35 16 0 58 5 92 11 58 10 68 9 114-12 27-12 50-27 50-33s-24-24-52-40c-70-40-98-69-98-104 0-78 135-122 376-122 128 0 187 13 215 49 19 24 19 26 4 29-10 2-29-2-43-10-41-22-362-18-429 5-96 34-94 56 12 117 57 32 75 47 75 64 0 30-24 61-59 75l-29 13 66 35c78 41 103 62 128 108 17 32 17 36 3 50-24 25-116 29-164 8zm99-58c-16-25-116-86-161-100-34-9-30 17 9 60 37 43 79 63 131 64 37 1 37 1 21-24z"/><path d="m6184 14321c-72-18-167-124-203-227-11-33-21-66-21-72 0-7-18-54-39-105-22-50-43-116-47-145-7-52-6-54 17-50 20 2 26 13 40 67 14 51 59 165 76 190 9 12 97-51 161-115 72-72 112-94 169-94 71 0 72 37 1 46-49 6-59 13-133 84-44 43-90 83-103 89-22 12-20 14 44 47 140 73 183 118 184 192 0 88-45 117-146 93zm90-57c17-43 6-73-39-111s-142-95-182-107c-21-7-21-6 7 65 28 73 82 142 123 159 37 15 84 12 91-6z"/><path d="m6850 14302c-58-37-106-92-115-131-9-44 19-85 109-159 114-93 127-163 38-203-49-22-158-37-188-25-15 6-16 8 0 24 34 39 3 58-42 26-30-21-28-58 6-84 24-20 35-22 103-17 89 7 175 37 207 73 16 18 22 38 22 70 0 58-17 90-77 143-145 130-149 140-78 208 46 44 83 60 111 49 13-5 15-15 10-51-7-43-6-45 17-45 27 0 37 21 37 76 0 45-20 65-71 71-36 4-52-1-89-25z"/><path d="m1618 14096c-81-29-123-79-99-118 23-36-41-329-106-483-56-132-84-184-98-179-7 3-19-4-25-16-10-18-9-25 3-37 24-24 59-9 87 37 23 37 26 38 30 19 8-33 53-61 97-62 136-2 328 130 402 276 40 81 49 133 40 237-7 71-16 99-50 168-73 144-169 198-281 158zm155-76c83-73 134-213 124-338-12-159-170-327-349-372-59-15-97 0-50 19 17 7 33 19 36 27 10 25-24 28-75 6-27-11-49-17-49-12 0 4 15 41 34 82 48 105 92 248 111 359 23 134 36 181 53 202 12 13 13 20 4 29-17 17 22 37 74 38 34 0 49-7 87-40z"/><path d="m4630 13730c0-20 4-20 268-18 229 3 267 5 267 18s-38 15-267 18c-264 2-268 2-268-18z"/><path d="m8265 13719c-22-4-57-8-77-8-32-1-38-5-38-22 0-21 2-21 143-12 78 4 179 7 225 6 66-1 82 1 82 13 0 8-12 19-26 24-30 12-252 11-309-1z"/><path d="m2264 13679c-22-36 75-52 296-47 121 2 145 5 145 18 0 12-27 16-155 22-85 3-183 9-216 13-44 4-64 3-70-6z"/><path d="m12215 13679c-502-37-873-51-1165-45-168 3-623 9-1012 12-708 7-708 7-708-14 0-20 5-20 613-27 947-12 1732-11 1907 3 85 6 239 17 343 23 103 7 187 16 187 20 0 22-15 39-34 38-11-1-70-6-131-10z"/><path d="m7446 13623c-4-5-413-10-909-13-793-4-902-7-902-20s115-15 980-14c1012 1 1210 7 1210 34 0 13-28 15-186 18-102 1-189-1-193-5z"/><path d="m3975 13609c-49-5-229-12-400-17-222-5-317-11-333-20-34-19-22-37 24-35 21 1 204 6 405 12 372 11 444 19 444 51 0 18-23 20-140 9z"/><path d="m4858 13593c-160-3-168-4-168-23s7-20 175-20c136 0 184 4 213 15 29 13 34 18 22 25-8 5-28 9-45 8-16-2-105-4-197-5z"/><path d="m2310 13512c0-28 24-33 202-39 138-5 161-3 184 11 14 10 23 20 20 23s-65 7-138 8c-73 2-163 7-200 10-63 7-68 6-68-13z"/><path d="m8405 13520c-27-5-83-9-122-9-66-1-73-3-73-21s7-20 78-20c149 1 349 18 373 31l24 13-25 7c-33 9-192 8-255-1z"/><path d="m9490 13450c0-18 7-20 85-20h85l-6-27c-4-16-18-57-32-93-13-36-45-127-71-202l-46-138h-47c-42 0-48-3-48-21 0-22 2-22 118-16 145 8 174 14 170 36-3 13-16 16-66 15-39-1-62 3-62 10 1 6 20 67 45 136 108 307 101 294 154 285 39-6 68 6 57 24-13 20-82 31-208 31-121 0-128-1-128-20z"/><path d="m11734 13444c-10-14-38-88-64-165s-50-143-54-146c-3-4-6-15-6-25 0-24 23-23 95 7 56 23 105 32 105 19 0-3-5-15-12-27-17-32-38-126-31-143 3-8 15-14 27-12 15 2 22 13 27 44 10 56 55 164 75 179 10 7 15 19 11 28-3 9 3 44 15 77 19 57 19 63 4 78-22 23-33 9-65-85-24-73-28-78-56-81-16-1-47-7-68-14-20-6-39-9-42-6-6 5 65 215 86 255 23 44-19 60-47 17z"/><path d="m6824 13366c-4-16-15-26-35-30-44-8-79-48-79-89 0-23 6-37 16-41 22-9 34 1 34 29 0 24 23 55 41 55 22 0 0-122-36-205-23-52-68-95-98-95-26 0-30 21-8 36 26 19 27 31 1 39-31 10-70-20-70-53s8-45 37-61c34-18 64-13 114 18 40 25 51 40 76 103 17 40 36 107 43 149l12 76 54-20c43-16 52-23 45-36-15-29-40-155-46-232-4-61-3-79 10-89 28-23 45 5 45 74 0 63 21 180 41 229 10 23 16 27 33 22 38-12 230-17 246-6 27 19-3 28-117 39-61 5-117 13-122 17-6 3-11 17-11 31 0 31-32 33-52 3-14-21-14-21-65-3-38 13-54 25-58 41-7 31-43 31-51-1z"/><path d="m10364 13365c-4-9 6-33 22-56 16-22 34-47 39-55 6-9 43-48 84-89l75-73-18-45c-18-48-94-127-122-127-12 0-10 5 10 21 37 29 33 43-10 36-44-7-74-32-74-62 0-35 24-48 74-41 59 9 117 53 153 115l29 52 101-113c129-144 174-186 248-235 129-85 120-65-50 103-136 135-166 169-150 172 30 6 43 20 50 55 4 18 25 72 48 120 29 64 37 91 29 99-6 6-18 8-27 4-17-6-88-147-101-201-14-58-29-60-76-9-24 25-46 51-49 58-6 11 31 189 42 200 3 3 37-1 75-8 101-20 394-28 394-11 0 22-57 33-205 40-96 4-171 14-238 31-54 13-116 24-138 24-45 0-98-19-117-43-12-14-17-12-44 19-33 37-46 42-54 19zm260-108c-28-120-22-116-82-53-55 58-62 76-36 97 17 14 89 27 115 21 15-3 16-9 3-65z"/><path d="m6234 13334c-51-22-114-92-145-160-20-44-37-68-54-74-25-10-33-38-16-55 10-11-48-193-88-277-32-67-51-63-51 10 0 32 5 63 11 69 15 15 3 33-20 33-29 0-40-21-47-92-6-62-5-68 19-92 31-30 76-34 100-8s70 128 102 229l29 90 78 6c185 12 275 113 218 245-31 73-81 101-136 76zm65-60c60-76 46-145-40-188-38-18-69-26-107-26-48 0-53 2-42 16 8 8 15 26 16 38 4 43 43 103 91 145 26 22 51 41 55 41s16-12 27-26z"/><path d="m10144 13316c-65-29-122-113-153-227-12-40-28-77-36-82-16-9-21-53-6-59 14-4-11-123-37-182-48-108-132-185-132-122 0 13-7 29-15 36-21 18-45-4-45-41 0-40 32-69 77-69 29 0 43 8 73 39 65 68 117 177 135 283 5 34 9 38 43 43 122 21 198 68 230 143 19 44 21 58 13 123-12 88-34 123-82 126-19 2-48-3-65-11zm85-67c16-45 14-125-4-158-8-16-28-40-45-55-33-27-131-61-153-53-7 3-5 6 6 6 18 1 24 27 7 33-15 5 16 114 45 164 31 52 79 94 110 94 17 0 26-8 34-31z"/><path d="m3445 13291c-4-13-19-20-51-25-59-8-144-53-144-77 0-30 17-31 62-3 23 15 61 29 84 32l42 4-9-43c-15-70-29-110-62-176-27-58-32-63-62-63-20 0-42-9-58-24-21-20-24-29-18-52 5-18 17-32 33-38 63-22 162 122 211 309 13 50 27 89 31 88 3-1 27-5 51-9 53-8 54-2-6-137-51-114-73-195-58-214 21-24 38-14 49 30 5 23 24 76 41 117s40 99 51 128l21 52h116c64 0 122 4 130 9 27 17-1 31-67 32-78 0-181 12-269 29-46 9-64 17-68 31-8 24-42 25-50 0z"/><path d="m11383 13215c-26-29-16-46 25-43 32 3 37 6 37 28 0 19-6 26-25 27-14 2-31-4-37-12z"/><path d="m6930 12312c0-10 4-22 9-27 6-6 33-61 61-124l51-113-22-24c-39-42-19-128 26-110 12 4 14 14 9 41-10 57 9 40 38-32l26-68-30-31c-44-47-35-68 28-72l51-3 52-122c29-67 67-149 86-183 34-61 112-150 122-140 3 3-13 39-36 81-40 72-161 340-161 355 0 5 16 4 36 0 44-10 66-3 62 18-4 18-36 30-89 31-28 1-38 6-47 26-10 21-8 31 11 62 25 44 30 151 8 192-12 22-17 23-70 18l-57-6-44 97c-23 53-51 109-62 125-22 31-58 37-58 9zm250-329c0-87-13-93-38-21-12 35-22 66-22 71 0 4 14 7 30 7 30 0 30 0 30-57z"/><path d="m8929 11852c-21-10-35-26-37-39-4-28 15-30 56-6 37 21 58 8 68-42 10-54-12-100-72-151-67-58-71-85-16-113s176-55 209-46l28 7-24 19c-13 10-30 19-39 19-27 0-152 41-152 49 0 5 12 17 27 27 59 38 93 98 93 164 0 96-67 149-141 112z"/><path d="m6630 11826c-36-12-84-31-107-41-51-24-59-44-74-185-17-161-76-420-107-466-4-6-31-23-59-38-46-23-53-30-53-56 0-59 63-60 112-2 24 28 26 29 42 14 13-14 36-17 109-16 86 0 98 3 177 40 98 47 142 93 184 191 36 85 46 163 36 274-11 122-32 187-76 241-62 74-82 79-184 44zm133-65c53-59 72-131 71-281 0-114-2-130-28-190-55-127-163-200-306-207-66-3-72-1-49 10 34 16 59 37 59 50 0 10-60 5-92-8-16-6-15-2 2 49 28 79 68 275 79 384 5 61 14 99 25 111 9 10 16 27 16 38 0 22 20 35 100 62 78 26 84 26 123-18z"/><path d="m4151 11792c-84-42-186-239-230-440-21-95-19-115 12-110 21 3 27 17 52 118 26 106 58 205 80 251 23 45 89 131 106 137 15 6 10-76-6-116-9-20-34-53-57-73-47-41-47-69-1-69 42 0 125-43 156-79 31-37 36-91 11-111-8-8-49-16-90-19-72-6-107 0-91 15 4 4 2 13-4 21-27 32-88-1-69-38 21-37 67-52 154-47 99 5 142 25 163 76 29 70-22 152-124 199l-53 24 24 32c40 56 58 115 51 171-11 79-25 89-84 58z"/><path d="m8661 11596c-18-21-69-179-102-316-17-69-32-127-34-129-3-2-16 11-31 28-37 45-76 62-152 67-57 4-73 2-106-18-57-34-97-88-103-140-4-37-1-49 21-75 14-17 38-34 52-37 36-9 166 28 241 69 35 19 68 32 75 30 32-12 47 23 88 192 17 70 46 171 65 224s35 101 35 108c0 16-35 14-49-3zm-263-407c17-6 42-25 56-43l25-33-77-36c-42-19-101-41-130-47-48-11-55-10-73 6-15 13-19 26-15 46 18 93 116 141 214 107z"/><path d="m3521 11488c-29-55-68-142-87-191-45-117-41-122 89-121 136 1 247 48 247 105 0 34-159 309-179 309-11 0-35-34-70-102zm108-43c17-30 45-80 62-110l30-55-32-19c-54-33-237-64-226-39 3 7 19 47 36 90 27 69 88 188 96 188 2 0 17-25 34-55z"/><path d="m5622 11535c-10-22-18-25-64-25-77 0-128-16-128-41 0-23 25-36 43-21 6 5 40 12 75 15 52 4 62 3 58-9-3-8-10-51-16-97-19-153-40-210-79-215-24-4-24-3 5 22l29 25-28 1c-39 0-95-28-102-51-11-32 13-49 66-49 68 0 98 17 120 68 18 41 25 78 50 240l11 72h93 92l-47-143c-61-180-67-231-28-225 18 2 24 12 30 43 3 22 25 96 48 164 23 69 39 133 37 143-5 16 2 18 61 18 66 0 116 16 113 35-1 6-67 9-185 6l-183-3-7 26c-9 35-48 36-64 1z"/><path d="m1360 11371c0-10 15-38 34-62 18-25 55-78 81-118l48-74-23-101c-27-122-60-215-110-317-43-85-53-96-94-101-39-4-56-32-34-54 14-14 22-15 49-5 18 6 43 21 56 33l23 21v-22c0-60 55-87 155-77s139 28 242 111l31 26 107-163c103-156 238-331 345-447 27-30 50-51 50-47 0 9-80 128-185 276-46 63-129 187-185 274l-103 159 17 47c28 78 36 164 26 294-10 141-29 200-84 263-38 43-42 45-83 40-24-2-52-12-62-21s-27-16-38-16c-26 0-49-27-66-75l-13-38-24 39c-82 134-160 210-160 155zm413-123c50-68 62-121 62-278 0-140-8-220-23-220-4 0-20 24-36 53-16 28-66 111-110 182-47 76-79 138-77 150 2 11 16 36 33 55 86 103 111 112 151 58zm-88-394c52-87 95-164 95-171 0-17-93-98-137-118-48-23-177-33-188-15-5 8-1 16 9 22 23 13 3 38-30 38-30 0-30-1 2 62 41 80 90 215 110 300 21 91 5 104 139-118z"/><path d="m10135 11139c-16-24 18-29 176-27 138 3 164 5 164 18s-26 15-167 18c-114 2-169-1-173-9z"/><path d="m4890 11035c-20-25 16-85 51-85 36 0 43 23 16 57-36 47-47 52-67 28z"/><path d="m2565 10989c-33-5-139-12-235-17-146-6-175-10-175-22 0-13 29-15 205-14 248 1 404 23 385 55-7 11-96 10-180-2z"/><path d="m7320 10948c-21-48-17-66 16-74 30-8 50 8 58 44 3 15 8 37 12 50 6 20 3 22-30 22-34 0-39-4-56-42z"/><path d="m6546 10963c-4-5-233-10-509-13-437-4-502-7-502-20s61-15 485-15c486 0 887 8 897 19 3 3 0 12-7 21-10 12-43 15-185 15-94 0-175-3-179-7z"/><path d="m3475 10940c-4-6-3-15 1-20 5-5 162-11 349-15 187-3 378-7 425-8 69-2 85 1 85 13 0 26-66 32-461 37-299 4-393 2-399-7z"/><path d="m10340 10930c-130-8-150-14-150-42 0-18 5-19 58-14 31 3 95 8 142 12 107 7 160 20 160 39 0 17-15 17-210 5z"/><path d="m7995 10920c-14-22 10-28 145-34 74-3 187-9 250-12 63-4 334-1 603 6 474 13 487 14 487 33s-5 20-362 12c-517-11-574-11-859-1-199 7-258 6-264-4z"/><path d="m2308 10838c-48-9-58-14-58-30 0-19 5-20 83-14 45 3 134 8 197 11 139 7 160 11 160 30 0 13-25 15-162 14-90-1-189-6-220-11z"/><path d="m6004 10723c-15-49-51-138-80-199-30-62-54-119-54-128 0-27 29-30 83-8 57 24 150 53 154 49 1-2-4-27-12-57-17-62-38-258-29-271 12-19 44-8 59 21 17 32 20 76 6 84-9 6-7 24 16 144 12 60 22 86 35 93 25 13 44 63 68 173 10 48 4 66-20 66-22 0-51-45-80-125-13-33-26-64-30-68-4-5-38-16-76-26s-77-22-86-26c-13-5-7 14 24 77 49 99 100 251 92 273-4 8-15 15-25 15-14 0-24-18-45-87z"/><path d="m4070 10724c-11-26-20-50-20-54s-9-38-20-74l-21-66h-69c-63 0-70-2-70-20s7-20 60-20c33 0 60-1 60-3s-11-36-25-76c-33-93-42-156-25-176 39-47 190 24 190 90 0 33-9 31-56-8-44-39-79-59-87-51s11 83 40 157l26 67h89c98 0 149 15 168 51 12 21 11 22-21 14-95-21-118-24-166-25-29 0-53 3-53 6 0 11 31 118 47 161 29 80-13 103-47 27z"/><path d="m3626 10688c-8-13-40-93-72-178-93-252-93-253-83-272 14-26 38-22 49 7 9 25 10 25 144 25 74 0 146 4 160 10 47 18 30 87-48 198-33 47-86 169-86 197 0 12-28 35-44 35-3 0-12-10-20-22zm49-134c9-25 33-68 52-97 42-62 76-127 70-133-2-3-44-8-92-11-87-6-87-6-80 17 6 20 4 22-16 18-13-3-33-9-43-13-15-7-18-5-14 7 4 9 26 70 50 137 23 66 46 121 49 121s14-20 24-46z"/><path d="m9115 10700c-13-21 8-30 70-30h64l-41-117c-23-65-54-154-69-198-16-44-29-90-29-102 0-21-5-23-48-23-51 0-72-12-72-44 0-18 6-19 124-13 127 6 186 22 186 52 0 20-17 27-37 17-10-5-37-12-61-15l-43-5 7 36c4 21 17 64 30 97 12 33 42 117 65 188l43 127h83c76 0 83 2 83 20 0 19-7 20-174 20-106 0-177-4-181-10z"/><path d="m8213 10658c-6-7-13-33-17-58s-25-89-46-144c-46-113-50-146-19-146 11 0 30 5 42 12 20 10 97 29 97 23 0-1-9-29-19-62-27-85-30-133-9-146 14-9 23-6 48 18 34 32 38 50 14 63-14 8-10 25 31 147 48 143 52 185 15 185-10 0-21-8-23-17-3-10-10-39-17-65-14-53-36-72-92-81-21-3-38-5-38-3 0 1 11 29 24 62 41 104 61 191 46 209s-24 19-37 3z"/><path d="m8693 10552c-49-27-94-95-123-187-7-22-18-53-25-70-7-16-29-88-49-160-20-71-46-150-58-173-24-50-94-122-119-122s-41 25-33 54c4 19 2 28-10 32-25 9-46-14-46-51 0-46 27-75 75-82 34-4 47 0 82 26 24 17 58 55 77 83 33 51 45 80 83 217l19 65 72 12c88 15 150 50 196 110 43 56 50 87 37 161-14 74-43 103-104 103-23-1-56-9-74-18zm117-58c6-14 10-48 10-76 0-48-3-54-52-103-51-51-100-75-155-75-38 0-26 16 20 26 52 11 58 37 9 42-38 4-38 7 6 105 31 71 71 107 118 107 28 0 36-5 44-26z"/><path d="m7534 9401c-24-11-36-34-28-55 9-24 33-27 46-6 10 15 24 20 55 20 35 0 46-5 59-25 24-36 9-62-70-126-88-71-87-87 12-108 65-13 329-15 337-2 11 20-33 29-165 36-74 4-142 9-150 11-12 3 0 20 42 64 69 71 77 109 30 161-23 26-35 31-87 35-33 2-69 0-81-5z"/><path d="m6448 9235c-44-15-82-42-132-93-38-40-38-40-26-92 33-139-53-440-126-440-12 0-36-13-54-30-26-25-30-32-20-50 14-27 39-25 85 6 30 20 40 23 46 12 5-7 9-16 9-20s14-15 31-24c37-19 111-12 175 16 89 38 174 162 193 277 4 28 4 104 0 170-8 133-30 201-77 245-35 33-61 38-104 23zm65-53c9-10 26-40 39-67 19-44 22-67 22-200 1-144 0-152-27-206-49-100-117-155-205-166-37-4-51-2-61 11-16 19-16 18 24 39l30 15-28 11c-16 6-33 9-38 5-5-3-9-1-9 5 0 5 4 12 9 15s24 45 42 94c30 81 33 96 35 225 2 155 3 157 83 209 52 33 62 34 84 10z"/><path d="m7352 9178c-5-7-13-62-17-123-4-60-13-137-20-170-24-105-45-224-45-258l-1-32-37 42c-50 57-98 83-150 83-48 0-96-21-106-45-11-30-6-100 9-122 29-41 129-55 205-28 23 8 55 15 71 15 37 0 55 29 63 100 7 56 17 113 41 230 8 36 19 116 26 177 9 90 9 116-1 128-15 18-24 19-38 3zm-224-518c19-11 44-33 57-48l23-27-30-12c-44-19-123-17-143 3-24 25-16 76 15 91 33 17 39 16 78-7z"/><path d="m4156 9047c-29-29-83-199-92-287-5-54-3-68 10-79 27-22 43 2 49 77 3 37 19 110 34 162 26 87 30 95 53 95 17 0 29-9 38-28 17-35 5-75-38-123-36-42-31-60 23-75 57-15 133-55 140-73 4-10-4-18-26-25-55-16-146-22-169-10-16 9-24 8-36-5-13-13-13-17-2-32 12-14 29-15 110-12 52 3 113 11 135 19 34 12 40 19 43 45 4 43-27 77-102 110l-64 27 25 46c34 63 28 124-16 163-39 35-83 37-115 5z"/><path d="m5923 8990c-5-19-14-20-147-20-84 0-146 4-152 10-7 7-20 6-40-5-16-8-35-15-42-15-22 0-96-41-114-64-22-26-23-62-2-70 10-4 21 4 32 24 16 27 84 70 112 70 20 0 8-225-14-268-26-50-106-93-106-57 0 9-9 15-24 15-39 0-56-11-56-36 0-33 32-47 89-39 125 19 166 87 180 295l6 95 129 3c113 2 128 1 122-13-13-36-60-273-60-310-1-33 2-40 18-40 21 0 28 21 61 185 8 41 20 99 27 128l11 52h46c55 0 84 14 61 30-8 5-31 10-51 10-28 0-38 5-42 20-3 11-13 20-22 20s-19-9-22-20z"/><path d="m3492 8958c-7-7-12-18-12-26s-14-44-31-80c-17-37-45-105-61-150-27-73-29-86-16-98 18-18 48-8 48 15 0 9 26 69 58 132l58 116 29-39c17-22 63-71 103-108l72-68-77-7c-177-14-208-20-208-35 0-12 18-15 105-14 58 1 141 5 185 10 105 12 108 25 18 97-75 59-161 153-187 204-14 28-51 63-66 63-3 0-11-5-18-12z"/><path d="m1644 8578c-17-18-52-60-78-93-26-32-68-77-92-98s-44-47-44-58c0-35 39-21 97 36 31 30 58 53 60 51 3-2-19-71-47-152-55-159-59-197-23-202 24-4 47 27 38 50-3 8 31 119 75 247 44 127 78 236 75 241-11 18-31 10-61-22z"/><path d="m3375 8420c-4-7-3-16 1-20 10-10 1110-17 1120-8 3 4-5 12-18 20-31 18-1092 25-1103 8z"/><path d="m2400 8400c-25-5-69-9-98-9-45-1-53-4-50-18 3-16 17-18 148-15 206 5 285 13 285 32 0 12-21 15-120 16-66 1-140-2-165-6z"/><path d="m4986 8395c-9-26 5-45 34-45 16 0 30 7 34 15 9 26-5 45-34 45-16 0-30-7-34-15z"/><path d="m5440 8393c0-20 9-20 318-28 602-16 1983-6 1990 14 1 4-4 14-13 21-12 10-109 11-498 5-670-11-778-11-1319-1-475 9-478 9-478-11z"/><path d="m2250 8290c0-19 7-20 180-20 116 0 188 4 205 12 47 21 4 28-192 28-186 0-193-1-193-20z"/><path d="m3672 8178c-5-7-13-28-17-47-4-18-17-47-29-65-11-17-30-52-40-76-10-25-41-94-68-155-55-125-58-145-25-145 19 0 32 19 85 129 34 71 74 155 89 187l26 57 18-37c10-21 59-80 108-132 50-52 91-98 91-102 0-11-233-33-240-23-3 5-20 3-38-5-23-9-32-19-30-31 4-21 31-21 216-6 95 8 116 13 135 31 21 22 21 23 4 55-10 18-58 74-107 125-79 82-91 99-110 159-27 88-45 109-68 81z"/><path d="m4232 8136c-21-30-51-84-68-120l-29-65-52-1c-46 0-53-3-53-20s7-20 45-20c52 0 53-4 30-90-25-93 8-160 78-160 38 0 107 67 107 103 0 41-14 39-54-8-65-78-101-48-77 64 22 99 11 91 116 91 78 0 97 3 116 20 24 19 24 19-89 20h-112l31 63c17 34 45 81 62 104 30 42 31 73 3 73-8 0-32-24-54-54z"/><path d="m5790 8064c-30-31-88-81-128-111s-71-60-69-66c7-23 37-18 83 14 45 30 46 31 39 8-4-13-21-51-37-83-31-64-30-89 3-84 16 2 30 24 58 88 35 82 109 216 139 252 8 9 11 22 7 27-13 23-43 9-95-45z"/><path d="m6041 8073c-62-31-124-159-125-260-1-64 25-96 91-112 59-15 106-5 144 30 25 23 30 35 27 66-3 32-9 41-43 61-32 18-51 22-97 19-70-4-71 1-27 83 34 63 72 90 129 90 25 0 31 4 28 18-5 24-82 28-127 5zm55-249c40-19 43-35 12-64-25-23-71-26-108-7-27 14-40 47-18 47 7 0 21 9 31 20 20 24 38 25 83 4z"/><path d="m7122 8074c-7-12-31-18-88-23-64-5-79-9-82-23-3-16 6-18 78-18 64 0 81-3 77-13-3-8-13-54-22-103-35-184-46-204-122-204-26 0-33-4-33-20 0-19 7-20 138-20 137 0 162 6 162 36 0 10-18 11-70 7l-69-6 13 54c8 30 22 90 31 134 31 149 23 139 118 152 164 22 189 59 33 49-70-5-106-4-111 3-10 16-43 13-53-5z"/><path d="m6625 8043c-42-10-103-84-132-159-20-53-33-74-46-74-25 0-32-28-12-50 18-20 20-8-26-160-19-61-82-180-96-180-9 0-13 16-13 54 0 35-5 58-15 66-42 35-62-70-27-140 54-109 158 15 227 273 20 73 27 81 93 91 119 18 188 99 167 195-15 67-59 98-120 84zm63-84c27-71-26-134-130-153-22-4-38-3-38 2 0 25 55 131 83 160 40 42 67 39 85-9z"/><path d="m4913 6809c-49-15-63-24-63-39 0-24 22-26 80-5 23 8 64 15 89 15h47l-17-89c-18-89-84-335-120-447-10-33-19-72-19-87 0-27-22-38-35-17-10 16-55 12-61-5-4-8 0-23 7-32 12-13 29-15 116-10 109 6 163 25 163 56 0 27-10 32-39 17-14-7-41-16-58-19-30-6-33-4-33 19 0 14 11 63 24 108 74 250 119 435 119 488v27l111 3c91 2 111 6 111 18 0 13-28 15-180 17-156 2-188-1-242-18z"/><path d="m7140 6588c-25-28-69-66-98-85-35-23-52-40-50-51 5-25 44-26 68-2 12 12 24 19 27 16s-16-57-42-122c-54-132-61-177-30-182 17-2 25 9 47 75 39 113 88 228 132 306 60 106 25 135-54 45z"/><path d="m4051 6535c-67-63-132-192-156-311-8-39 15-98 43-113 79-42 172 30 172 133 0 63-71 89-109 40-24-31-26-53-8-78 12-16 14-14 30 18 17 37 37 48 37 21 0-29-28-83-48-94-26-14-28-14-46 5-23 22-20 69 9 154 31 91 72 157 127 200l41 34-7-73c-6-71-6-72 16-69 26 4 36 31 37 104 1 58-11 74-56 74-26 0-45-10-82-45z"/><path d="m3765 6496c-29-49-99-113-193-176-34-22-62-45-62-51 0-32 64-8 160 59 23 16 24 16 16-3-32-77-56-155-56-183 0-29 3-33 22-30 16 2 25 16 38 63 27 93 58 171 101 256 44 88 48 109 19 109-12 0-28-16-45-44z"/><path d="m4565 6514c-67-33-126-158-169-360-14-66-34-146-44-179l-18-60-550-5c-479-4-549-7-549-20s69-16 539-20l538-5-45-61c-25-34-65-74-90-90-77-48-51-86 27-40 49 28 104 88 143 154l25 42h488c436 0 489 2 494 16 3 9 6 18 6 20s-218 4-485 4-485 4-485 8c0 5 9 34 19 65 11 31 23 76 26 101 7 43 8 44 52 51 58 8 115 59 156 139 26 53 30 71 29 135 0 58-5 78-19 92-27 26-55 30-88 13zm53-102c2-51-2-70-27-120-31-61-80-112-108-112-12 0-13 3-4 13 8 10 8 16-1 25-19 19 20 138 69 204 24 33 49 58 56 55 7-2 13-28 15-65z"/><path d="m1729 6237c-43-9-63-20-83-43-14-18-26-40-26-49 0-24-65-203-105-290-46-101-125-225-125-197 0 44-49 12-79-53-25-54-25-50-5-69 22-23 39-20 78 15 73 63 181 269 270 512 10 26 22 47 27 47s9 11 9 25c0 46 80 77 144 55 91-30 139-191 105-349-16-78-78-165-138-195-69-36-129-48-174-35-40 11-49 21-51 53-1 16-7 21-31 21-38 0-44-24-15-65 35-49 73-63 154-58 86 6 176 47 226 104 78 90 116 256 85 376-25 99-51 145-98 172-53 31-98 37-168 23z"/><path d="m9040 5987c-77-16-105-26-105-37 0-22 39-24 140-5 85 16 143 16 208 0 34-9 37 13 6 41-30 27-124 28-249 1z"/><path d="m2540 5984c-8-2-49-8-90-12-57-5-75-11-75-22 0-17 76-19 328-6 109 6 147 11 147 21 0 7-7 16-16 19-17 6-269 6-294 0z"/><path d="m7715 5914c-395-19-762-36-940-43-133-5-160-9-160-21 0-13 36-15 275-13 151 1 356 7 455 12 289 17 658 31 978 37 282 6 297 7 297 25s-13 19-322 18c-178-1-440-8-583-15z"/><path d="m5747 5896c-4-9-4-23-1-31 7-17 44-21 44-5 0 6 9 10 21 10 14 0 19 5 17 18-4 23-73 30-81 8z"/><path d="m8983 5853c-7-2-13-13-13-23 0-14 12-21 50-29 73-16 222-14 245 2 33 25 7 34-104 35-60 1-121 6-136 12-14 5-27 10-28 9-1 0-8-3-14-6z"/><path d="m2501 5832c-6-2-11-13-11-24 0-20 4-21 153-16 144 5 207 17 207 40 0 8-324 8-349 0z"/><path d="m4960 5770c0-16 7-20 31-20 17 0 39-5 50-10 35-19 22-47-46-101-106-83-86-111 77-107 84 2 103 6 103 18s-18 16-77 20c-43 3-80 8-83 12-3 3 10 17 29 31 57 44 66 57 66 93 0 54-36 84-100 84-43 0-50-3-50-20z"/><path d="m7425 5743c-62-33-87-69-124-179-49-150-77-275-72-331 2-22 42-15 48 8 5 20 6 20 17-3 11-21 18-23 88-22 65 1 85 6 130 31 104 59 104 117 2 223l-65 67 37 28c56 42 81 125 54 176-13 24-72 25-115 2zm70-73c-5-21-25-50-56-78-27-25-49-51-49-59s28-40 62-71c61-57 93-108 82-135-7-19-96-67-124-67-12 0-29 4-39 10-11 6-30 6-50 0-17-5-31-8-31-7 0 35 56 251 75 288 14 29 24 57 22 63-8 21 24 66 61 85 44 23 57 15 47-29z"/><path d="m4781 5708c-4-13-13-50-20-83s-27-120-45-193l-32-134-24 39c-14 22-44 48-70 61-39 21-55 23-125 19-97-6-155-28-195-73-32-37-40-87-17-117 20-28 120-57 192-57 67 0 149 26 187 58 15 13 18 12 24-11 9-38 31-54 48-36 22 24 132 509 122 536-8 21-36 15-45-9zm-225-347c25-11 49-33 62-55 20-34 20-37 4-42-9-3-42-15-72-27-69-27-165-25-222 4-42 21-46 33-22 67 19 28 46 42 109 57 71 18 94 17 141-4z"/><path d="m7796 5703c-7-16-27-66-44-113s-60-146-96-221c-74-155-157-354-159-384-2-16 4-20 28-20 27 0 31 5 44 45 30 100 67 192 133 329 76 161 153 365 143 381-11 18-34 10-49-17z"/><path d="m3819 5623c-6-16-15-51-21-79l-10-51-88-6c-93-6-130-18-130-42 0-13 16-14 100-9 58 4 100 3 100-2s-9-43-20-84-20-84-20-96c0-11-7-29-15-40-14-18-15-16-13 26 3 42 2 45-22 42-33-4-39-16-28-70 14-78 64-94 104-34 12 18 25 51 29 75 4 23 16 77 27 120l20 77h80c71 0 79-2 74-17-27-69-78-270-74-289 2-11 12-19 22-19 15 0 24 19 47 95 16 52 29 102 29 111s10 39 21 68l22 51h61c33 0 68 5 76 10 33 22-18 30-183 30h-167l6 28c3 15 10 43 15 62 14 54 11 70-11 70-13 0-24-10-31-27z"/><path d="m6997 5613c-13-21-34-65-47-98s-36-88-52-122c-35-77-37-116-6-111 17 2 32 27 70 113 27 61 55 116 62 124 12 11 22-3 65-88 28-55 51-107 51-115 0-26-28-36-126-43-78-6-99-11-99-23s19-15 107-15c93 0 110 3 135 21 44 33 41 67-15 186-27 56-55 123-62 148-22 72-48 79-83 23z"/><path d="m8324 5633c-3-10-9-27-14-39-4-12-18-58-30-102l-22-81-81-3c-69-3-82-6-85-20-3-16 5-18 71-18h74l-24-81c-37-131-30-179 28-179 37 0 118 66 119 98 0 21-31 13-70-18-21-16-41-30-45-30-8 0 0 44 27 136l21 71 77 6c81 5 124 20 117 40-4 13-18 13-113 2l-62-6 25 83c32 104 35 151 10 156-10 2-19-4-23-15z"/><path d="m7864 5363c-49-104-94-221-94-244 0-12 30-13 167-11 93 2 174 5 181 7 23 8 12 35-34 82-58 61-88 113-105 183-15 65-25 80-50 80-14 0-31-25-65-97zm86-70c0-6 23-41 50-77l51-66h-106c-58 0-105 4-105 8 0 11 42 117 66 166l19 38 12-28c7-16 12-34 13-41z"/><path d="m7524 4252c-51-24-84-66-84-106 0-35 30-89 58-107 19-12 18-14-9-53-58-83-45-143 29-130 135 22 179 81 110 146l-32 30 42 38c42 39 56 80 27 80-8 0-33-20-56-45s-47-45-54-45c-11 0-75 64-75 75 0 22 31 60 63 76 45 24 63 16 28-12-24-19-23-49 1-49 19 0 65 42 72 65 3 11 2 26-3 33-14 22-73 24-117 4zm69-280c9-8 17-21 17-28 0-18-52-44-86-44-30 0-28 12 9 67 22 32 28 32 60 5z"/><path d="m7077 4084c-32-32 35-57 143-52 60 2 75 6 78 19 3 14-11 17-90 21-51 3-100 8-109 12-8 4-18 3-22 0z"/><path d="m4213 3859c-53-26-84-73-123-187-23-68-32-114-33-169-2-70 0-76 26-99 38-32 78-31 115 4 34 32 56 98 46 137-8 33-43 56-88 58-20 1-36 5-36 9 0 19 62 163 77 180 26 29 70 50 78 38 4-6-1-31-11-56-11-29-14-48-7-55 19-19 43 4 59 56 16 50 16 55 0 79-20 32-47 33-103 5zm-23-314c15-18 5-66-21-100-24-29-32-31-53-9-21 21-22 94-1 94 9 0 18 7 21 15 8 19 38 19 54 0z"/><path d="m5811 3860c-42-10-86-52-78-74 8-20 47-21 47-1 0 17 23 30 68 38 27 6 38 2 58-18 49-49 26-102-84-195-35-30-71-66-80-79-15-22-15-25 8-43 19-16 37-18 109-16 69 2 86 6 86 18s-18 16-80 20l-79 5 77 70c92 82 117 119 117 169 0 27-8 45-32 71-36 39-78 50-137 35z"/><path d="m3851 3738c-87-89-101-107-99-132 4-42 25-43 42-3 12 29 54 72 62 64 2-2-8-25-21-53-26-55-44-123-45-167 0-24 4-28 22-25 19 3 24 11 30 58 6 38 30 100 79 197 67 134 75 163 45 163-7 0-59-46-115-102z"/><path d="m6599 3780c-32-34-74-66-97-76-29-11-42-22-42-35 0-23 21-24 62-3 29 15 31 15 23-2-35-87-44-158-20-168 29-11 41 4 42 52 0 54 33 133 87 212 20 29 35 58 33 64-8 25-35 12-88-44z"/><path d="m8415 3821c-35-21-85-76-85-94 0-7-14-39-30-72-17-33-30-70-30-82 0-35 42-57 113-57 87 0 149 29 177 83 46 91 31 171-39 218-41 28-66 29-106 4zm76-31c16 0 49-63 49-93 0-92-78-152-182-139-46 5-49 23-13 76 14 20 25 44 25 52 0 43 69 119 98 109 8-3 18-5 23-5z"/><path d="m5016 3775c-70-48-81-52-91-38-17 22-35 8-35-28 0-39 21-46 70-21 22 11 40 16 40 12 0-5-14-39-31-77-34-74-44-158-20-158 17 0 21 9 51 100s55 140 98 192c33 41 38 74 10 72-7 0-49-24-92-54z"/><path d="m5373 3823c-29-6-49-31-36-44 7-7 23-7 49 0 42 12 134 15 134 5 0-3-13-23-28-43-16-20-42-60-58-88-25-46-33-53-60-53-37 0-70-22-59-39 5-8 19-11 40-7l33 7-19-51c-26-68-25-92 2-88 16 2 25 15 34 43 27 92 36 100 125 118 45 9 84 18 87 21s3 13-1 22c-5 13-13 15-39 9-68-15-107-22-107-19 0 6 45 81 72 118 52 73 35 97-71 95-42-1-86-4-98-6z"/><path d="m6818 3803c-29-33-36-58-43-148-8-102-4-112 58-122 133-21 242 213 126 272-40 21-122 20-141-2zm121-39c20-15 23-23 18-62-8-70-73-141-117-127-19 6-21 12-17 48 3 23 11 62 17 87 7 25 14 51 16 58 5 17 55 15 83-4z"/><path d="m8149 3768c-22-34-110-108-127-108-5 0-15-6-21-14-18-21 11-41 39-26 12 6 23 10 25 8s-6-29-17-61c-23-67-19-87 18-87 21 0 25 4 21 19-6 23 34 142 58 174 56 77 65 92 65 108 0 31-37 23-61-13z"/><path d="m4540 3676c-6-8-10-25-8-38 3-20 9-23 48-23 42 0 45 2 48 29 2 16-2 32-10 37-21 14-64 10-78-5z"/><path d="m6204 3665c-20-31-12-57 18-53 25 3 41 45 25 66-14 18-25 15-43-13z"/><path d="m7734 3675c-6-16 20-65 35-65 20 0 31 28 21 54-11 29-47 36-56 11z"/><path d="m10237 3589c-54-21-103-55-111-76-15-39 29-59 52-23 10 16 99 70 116 70 2 0 11-18 20-39 21-54 51-79 102-87 76-11 167 38 150 82-8 20-20 18-62-11-64-44-112-31-143 39-17 40-46 67-68 65-4 0-30-9-56-20z"/><path d="m5139 3563c-40-106-51-153-39-168 19-23 40-18 40 10 0 14 12 54 26 90s24 72 20 80c-9 24-36 17-47-12z"/><path d="m2490 3373c0-31 60-43 212-43 100 0 139 4 153 14 19 13 18 15-15 20-19 3-84 8-145 11-60 3-131 8-157 12-43 5-48 4-48-14z"/><path d="m10320 3383c-77-25-118-48-137-75-12-17-19-37-16-44 8-22 39-16 57 12 17 25 92 64 123 64 9 0 45-19 81-41 91-58 135-62 202-19 32 21 50 39 48 49-5 25-31 24-72-4-48-33-78-32-132 6-72 49-117 65-154 52z"/><path d="m9086 3343c-14-14-1380-32-1821-24-82 2-438-2-790-9-352-6-1191-15-1865-18-1079-6-1225-9-1225-22s142-15 1225-14c674 1 1522 7 1885 14s712 11 775 9c240-5 892-1 1330 10 981 23 930 21 930 42 0 18-11 19-218 19-120 0-222-3-226-7z"/><path d="m2523 3193c-7-2-13-11-13-18 0-29 45-39 196-43 126-4 156-2 183 12 45 24 30 38-32 32-54-6-281 6-307 17-8 3-21 3-27 0z"/><path d="m7455 3180c-10-17 3-27 42-34 48-7 103-41 103-62 0-9-25-40-55-69-57-54-67-82-38-106 25-21 248-20 248 1 0 12-20 16-102 20-56 3-105 9-109 13-5 4 13 26 40 49 57 49 72 80 55 119-20 50-163 103-184 69z"/><path d="m6912 3114c-31-21-30-64 2-64 15 0 26 7 29 20 5 20 30 26 61 14 30-11 19-63-19-98-19-18-35-35-35-38s29-20 65-37c59-27 65-33 65-60 0-38-29-59-100-70-54-9-77-22-66-40 10-16 46-13 120 9 73 23 96 46 96 98 0 36-45 92-74 92-25 0-28 19-7 46 29 37 27 89-4 119-29 30-97 34-133 9z"/><path d="m5500 3094c-82-70-157-197-208-354-56-172-67-301-33-377 34-73 231-184 231-130 0 10-21 27-53 41-83 40-134 89-145 139-19 92 28 304 103 462 21 45 59 98 105 147 67 72 78 98 45 98-7 0-27-12-45-26z"/><path d="m7237 3104c-14-14-6-47 38-156 54-134 73-255 55-342-17-85-83-179-165-236-59-40-81-45-88-19-9 33-32 17-32-22 0-31 3-34 32-37 91-9 249 138 293 272 15 47 15 182 0 251-9 44-78 234-99 274-9 18-25 24-34 15z"/><path d="m6572 2933c3-16 15-18 108-18 87 0 105 3 105 15s-20 16-108 18c-100 2-108 1-105-15z"/><path d="m9194 2841c-59-36-114-129-114-192 0-19-8-37-21-48-14-11-23-33-26-63-4-37-2-49 16-67 43-43 112-22 179 54 48 54 66 92 88 174 12 49 13 69 4 96-21 63-70 80-126 46zm73-47c16-25 16-30 0-93-20-77-75-162-123-192-42-25-64-19-64 18 0 33 9 47 32 56 12 4 16 17 16 49-1 51 31 120 74 160 37 35 43 35 65 2z"/><path d="m5470 2837c-53-19-70-97-21-97 14 0 21 8 23 28 2 23 8 28 37 30l33 3-4-68c-3-56-10-76-36-114-17-25-42-50-56-57-32-14-43-49-22-70 27-27 125-28 206-1 75 24 103 45 81 58-7 5-45-2-87-15-68-22-154-32-154-19 0 3 15 19 34 36 53 46 86 121 86 194 0 34-6 69-12 78-17 23-66 29-108 14z"/><path d="m4649 2833c-1-5-3-19-4-33s-12-61-25-105c-12-44-23-93-24-110-1-30-1-30 63-33 35-2 77 1 92 7 34 12 35 7 14-63-19-63-19-92 0-100 24-9 58 31 52 63-3 14 10 78 28 141 23 81 29 120 23 133-18 35-39 13-58-64-14-54-35-68-119-77-51-5-54-4-47 14 23 54 50 185 47 222-1 13-40 17-42 5z"/><path d="m8538 2735c-60-57-108-111-108-119 0-33 24-26 71 20 27 27 49 43 49 37 0-7-13-54-30-105-36-111-37-120-8-116 17 2 26 17 41 63 46 145 90 255 108 271 24 22 25 54 2 54-10-1-66-48-125-105z"/><path d="m3861 2818c-52-14-111-55-111-78 0-33 29-36 53-7 24 28 57 47 81 47 30 0 16-41-30-85-25-25-43-49-39-55 3-5 28-10 54-10 58 0 96-26 106-71 9-41-8-57-67-65-41-6-46-4-45 12 3 25-44 31-63 9-11-14-10-19 9-38 18-19 32-22 90-21 78 1 117 19 127 59 14 55-40 140-95 151l-29 6 24 35c50 73 15 132-65 111z"/><path d="m9526 2801c-37-25-63-66-71-112-11-66 9-94 78-108l28-6-37-37c-35-36-90-58-113-44-6 4-8 20-4 36 5 26 2 30-15 30-24 0-42-27-42-65 0-46 90-61 158-26 57 29 149 133 150 170 0 17 3 40 7 51 11 35-13 99-45 115-38 20-59 19-94-4zm84-52c13-23 12-45-1-91-9-34-13-38-43-38-17 0-40 6-51 13-25 19-12 81 25 118 30 31 53 30 70-2z"/><path d="m4382 2757c-32-28-71-61-87-73-20-14-27-25-22-37 10-27 28-20 85 29 28 25 52 42 52 37 0-4-13-55-30-113-38-132-39-160-6-160 24 0 41 23 30 41-3 5 8 57 25 116 61 219 52 250-47 160z"/><path d="m6147 2704c-43-41-75-79-72-84 9-14 49-12 64 3 16 14 17 18-24-81-14-35-25-71-23-80 5-26 43-26 74 1 28 24 28 24 7 37s-21 13 8 74c16 34 29 66 29 72 0 5 14 31 30 57 36 57 38 77 8 77-15 0-52-28-101-76z"/><path d="m6389 2747c-56-48-79-92-79-150 0-72 28-101 98-101 89 0 155 69 156 165 1 40-4 53-28 78-25 26-37 31-75 31-33 0-53-6-72-23zm109-37c12-12 22-28 22-37 0-36-25-96-48-114-30-23-94-25-112-4-29 35 46 175 94 175 12 0 32-9 44-20z"/><path d="m5867 2692c-21-23-22-71-2-78 26-10 61 4 75 31 12 22 11 27-5 45-23 25-47 26-68 2z"/><path d="m7967 2692c-35-39-7-69 54-60 18 2 25 10 27 32 6 46-48 64-81 28z"/><path d="m5042 2618c-22-22-15-67 13-80 35-16 57 5 53 51-2 30-7 36-28 39-14 2-31-3-38-10z"/><path d="m4135 2484c-8-20-15-38-15-40s-14-33-31-69c-32-68-33-100-3-88 19 7 104 181 104 213 0 36-38 25-55-16z"/><path d="m8744 2493c-4-15-20-56-36-90-33-73-35-93-10-93 22 0 95 148 90 183-5 33-36 34-44 0z"/><path d="m3607 992c-15-9-36-34-47-56-10-21-29-44-41-50-26-13-49-92-52-179-1-52 2-60 29-88 61-61 169-57 262 11 55 40 72 67 84 142 13 76 1 132-39 179-49 57-139 76-196 41zm107-36c18-7 43-28 56-45 19-28 22-42 18-106-3-69-6-77-38-111-100-105-232-94-229 18 1 63 12 94 32 90 18-3 27 14 46 85 10 38 50 83 73 83 5 0 24-6 42-14z"/><path d="m4155 918c-30-23-56-74-48-95 10-26 42-14 57 21 31 73 84 64 93-16 7-60-9-107-56-160-47-54-73-103-69-131 3-21 9-22 99-25 99-3 154 9 146 31-3 9-29 11-95 8-56-2-92 1-92 7 0 5 21 36 46 68 61 78 74 111 74 189 0 60-3 69-29 96-36 36-86 39-126 7z"/><path d="m2493 805c-23-25-46-57-49-72-8-32 6-58 32-58 14 0 20 10 25 38 3 22 18 50 33 65l26 27 44-47c56-57 98-72 187-65 74 6 129 29 129 53 0 13-7 15-37 10-21-4-70-9-109-12l-72-6-61 56c-35 32-70 56-83 56-12 0-39-19-65-45z"/><path d="m5158 803c-14-21-46-72-71-113-53-87-166-200-199-200-6 0-9 37-7 93 4 92 4 92-21 92-29 0-37-24-39-123-1-54 2-66 24-87 13-14 31-25 40-25 31 0 81 34 153 103 48 47 72 65 72 53 0-26 55-76 83-76s78 32 160 102l57 50v-49c0-151 218-164 408-24 24 18 42 35 39 37-3 3-51-13-108-36-70-28-126-44-170-47-59-5-68-3-94 20l-29 25 13 68c7 38 14 87 15 109 1 33-2 41-19 43-15 2-27-8-43-36-36-64-196-212-229-212-39 0-32 91 15 200 10 25 17 51 15 58-9 24-41 12-65-25z"/><path d="m2524 599c-55-16-109-87-89-118 12-20 32-11 56 26 38 60 60 62 161 14s140-51 245-18c78 25 109 45 94 60-9 9-50 2-159-28-58-16-81-11-177 39-62 31-91 37-131 25z"/><path d="m3846 558c-3-7-7-26-10-43-4-16-18-70-33-118-21-70-24-90-14-100 20-19 48 24 75 117 36 117 37 156 6 156-11 0-22-6-24-12z"/></g><g fill="#44b" transform="matrix(.08161748 0 0 -.08161748 1581.40119751453 2561.76822285665)"><path d="m750 2973c-57-10-88-25-119-57-40-41-55-100-46-179 6-45 12-61 32-77 32-25 35-25 64-1 22 17 24 26 21 89-4 105 24 120 164 87 33-7 119-19 190-25 88-8 134-16 144-26 32-32 8-420-28-456-18-18-126-28-289-28-185 0-206-4-250-52-55-58-58-82-55-363 1-145 7-274 13-293 11-34 51-62 89-62 12 0 35 14 52 31l31 30-6 238c-3 130-3 249 0 264l5 27h112c234 1 363 26 423 82 58 54 98 260 91 463-4 122-7 138-34 191-40 81-79 100-217 108-174 10-361 14-387 9z"/><path d="m3660 2971c-42-9-83-34-103-65-39-59-50-127-54-343-5-206-5-212 18-252 28-50 78-86 143-102 48-12 257-8 370 7l49 7-7-104c-4-57-11-189-16-294-9-177-9-192 8-214 35-47 100-46 136 2 22 29 27 86 42 452 7 191 0 235-44 283-45 48-92 56-241 38-146-18-229-20-265-6l-26 10v162c0 156 8 230 27 249 5 5 99 6 210 2l201-6 5-50c3-39 11-56 31-74 34-29 48-29 80 0 24 20 26 30 28 113 4 147-23 169-218 179-242 11-340 13-374 6z"/><path d="m1565 2945c-14-13-25-32-25-42s-1-297-3-638c-2-677-3-662 55-694 33-19 73-7 101 31 18 24 20 51 29 300 5 150 10 278 12 283 2 6 37 8 97 3 52-3 135-7 186-7 154-2 161-10 143-176-21-189-27-310-18-343 12-45 45-72 86-72 71 0 102 46 102 151 0 33 7 118 16 187 24 190 9 280-58 349-50 52-112 67-263 65-71-1-164-6-205-11-41-4-78-7-81-5-4 2-10 108-13 236-9 286-17 352-47 384-31 33-82 32-114-1z"/><path d="m2542 2944c-55-38-64-109-53-419 6-186 9-215 28-250 50-95 116-125 302-135 75-4 171-5 215-1l78 7-4-178c-2-97-7-181-11-184-4-4-42 1-85 11-104 26-285 27-363 3-106-33-149-107-99-170 26-34 68-41 132-21 74 23 202 20 308-7 182-47 274 5 301 168 12 77 27 831 19 994-7 152-20 181-86 186-88 7-103-51-104-401v-219l-201 4c-197 3-201 3-220 27-18 21-19 42-19 283v260l-29 29c-33 33-74 38-109 13z"/><path d="m2374 1391c-55-34-79-78-79-147 0-51 4-66 27-96 35-45 102-73 153-64 78 15 146 111 131 188-20 108-145 172-232 119z"/><path d="m1853 999c-39-11-66-56-61-101 6-59 69-64 76-6 4 30 34 38 145 38h67v-110c0-135-1-136-132-126-85 6-89 6-113-18-24-25-25-28-25-179 0-162 4-177 47-177 35 0 43 29 43 159v121h73c85 0 141 14 168 41 17 17 19 34 19 169 0 147-1 152-25 175-23 24-30 25-137 24-62 0-128-5-145-10z"/><path d="m2985 1000c-91-16-93-18-104-58-15-51-14-537 0-564 19-36 69-48 204-48 121 0 127 1 151 25l24 24-2 292-3 292-26 19c-31 23-161 33-244 18zm169-86c14-5 16-37 16-250v-245l-102 3-103 3v240 240l40 6c57 9 131 10 149 3z"/><path d="m2351 971c-24-24-29-73-37-372-6-232-6-237 15-258 23-23 29-25 51-11 12 7 16 40 20 150l5 141 35-23c19-13 59-55 88-93 30-39 78-96 108-128 47-51 56-57 74-47 29 16 25 42-15 92-19 24-62 78-95 121-61 77-61 77-33 77 15 0 46 9 69 19 56 26 67 57 62 179-6 156-27 172-220 172-93 0-111-3-127-19zm257-74c16-13 17-168 0-185-7-7-41-12-84-12-40 0-84-4-98-10l-26-10v120 119l98-6c53-3 103-10 110-16z"/></g></svg>