<svg xmlns="http://www.w3.org/2000/svg" version="1.0" width="1227.318081pt" height="835.2459174006158pt" viewBox="0 0 1227.318081 835.2459174006158" preserveAspectRatio="xMidYMid meet">
<metadata>
Created by potrace 1.16, written by Peter Selinger 2001-2019
</metadata>
<g transform="translate(-16.681919,734.000000) scale(0.100000,-0.100000)" fill="#000000" stroke="none">
<path d="M714 7280 c-31 -70 -37 -75 -86 -84 l-37 -7 21 50 c22 53 19 81 -7 81 -10 0 -29 -27 -49 -71 l-33 -72 -94 -23 c-51 -13 -97 -28 -103 -34 -15 -15 22 -24 47 -12 27 13 127 36 132 30 12 -11 -18 -28 -80 -45 -45 -13 -70 -25 -70 -34 0 -17 27 -16 80 4 22 8 41 14 43 13 1 -2 -7 -23 -18 -47 -24 -53 -25 -88 -4 -96 21 -8 34 7 55 68 29 81 44 99 84 99 l35 0 -21 -42 c-12 -24 -30 -55 -41 -70 -21 -30 -17 -48 11 -48 23 0 41 21 81 95 39 71 54 85 91 85 15 0 34 3 43 6 31 12 16 24 -29 24 -43 0 -45 1 -35 20 6 11 21 20 35 20 32 0 56 10 49 21 -3 5 -16 9 -30 9 -27 0 -30 14 -9 50 23 41 19 70 -9 70 -21 0 -30 -10 -52 -60z m-54 -120 c0 -12 -43 -30 -71 -30 -12 0 -19 5 -17 12 7 21 88 37 88 18z"/>
<path d="M1175 7306 c-21 -31 -145 -334 -145 -352 0 -27 40 -14 60 18 34 57 142 317 138 335 -5 27 -35 27 -53 -1z"/>
<path d="M1385 7296 c-40 -17 -85 -71 -85 -101 0 -14 9 -29 20 -35 19 -10 19 -12 -10 -52 -32 -43 -39 -95 -18 -116 17 -17 73 -15 111 4 56 28 87 64 87 101 0 33 -28 73 -52 73 -7 0 5 15 25 34 36 32 36 35 23 61 -25 47 -48 54 -101 31z m71 -40 c12 -13 10 -18 -20 -41 -24 -18 -42 -25 -56 -20 -27 9 -25 16 17 48 42 32 40 31 59 13z m-41 -130 c16 -12 17 -18 8 -39 -15 -32 -52 -57 -89 -60 -46 -3 -45 35 1 79 40 38 52 41 80 20z"/>
<path d="M990 7218 c-64 -165 -97 -263 -93 -275 3 -7 15 -13 28 -13 18 0 26 8 33 33 6 17 33 92 61 166 59 153 61 171 27 171 -21 0 -29 -11 -56 -82z"/>
<path d="M6270 6894 c-14 -3 -54 -12 -89 -21 -77 -19 -80 -25 -118 -219 -24 -120 -25 -136 -12 -150 23 -23 45 -7 55 39 10 47 24 54 127 56 54 1 57 0 57 -23 0 -27 42 -76 67 -77 10 -1 29 0 42 1 22 2 23 0 16 -42 -11 -65 -35 -117 -57 -124 -23 -7 -58 21 -58 46 0 18 32 51 70 70 15 8 20 15 12 18 -20 6 -79 -36 -91 -66 -22 -52 22 -112 79 -112 54 1 85 49 110 170 10 50 16 98 13 106 -8 22 -51 17 -58 -7 -5 -16 -14 -19 -38 -17 -24 2 -33 9 -40 33 -17 53 -23 55 -128 55 -54 0 -100 4 -103 8 -3 5 5 53 17 107 l22 99 35 8 c19 4 73 8 118 10 83 3 108 12 81 29 -14 9 -80 10 -129 3z"/>
<path d="M3130 6830 c-25 -4 -65 -14 -90 -21 -25 -7 -58 -13 -75 -13 l-30 -1 0 -135 c0 -147 12 -195 50 -195 17 0 20 6 18 41 l-3 41 69 16 c78 19 135 23 111 7 -19 -12 -2 -43 26 -49 19 -3 19 -3 0 18 l-19 21 46 0 c42 0 45 -2 40 -22 -3 -13 -9 -27 -13 -33 -5 -5 -5 -28 -1 -50 5 -34 10 -40 31 -40 23 0 25 5 37 74 7 40 13 75 15 76 2 2 19 6 39 10 l36 7 5 -80 c5 -92 26 -135 61 -130 23 3 23 3 11 100 l-6 47 38 -20 c62 -31 163 -20 206 23 25 25 18 72 -16 106 -47 47 -161 35 -216 -23 -20 -21 -24 -22 -37 -9 -17 17 -50 18 -162 3 -56 -7 -86 -7 -90 0 -4 6 -49 9 -114 6 l-107 -3 0 83 0 83 63 15 c34 8 81 18 105 22 24 4 41 12 39 18 -5 15 -15 16 -67 7z m515 -214 c27 -12 35 -21 35 -41 0 -36 -55 -59 -119 -51 -25 3 -54 7 -63 8 -10 1 -18 8 -18 16 0 19 49 62 79 68 14 3 31 7 36 9 6 2 11 4 13 4 1 1 18 -6 37 -13z"/>
<path d="M2274 6753 c-14 -14 -15 -37 -9 -182 3 -91 12 -265 20 -386 18 -283 39 -1335 31 -1530 -14 -300 -56 -550 -116 -690 -26 -61 -44 -81 -95 -109 -37 -19 -54 -21 -210 -20 -187 1 -279 13 -696 88 -347 63 -488 79 -734 79 -203 1 -265 -4 -265 -22 0 -4 127 -11 282 -14 315 -7 411 -18 808 -91 516 -95 744 -108 867 -50 115 55 199 342 224 773 12 214 -12 1342 -36 1661 -8 113 -18 271 -21 352 -6 154 -14 176 -50 141z"/>
<path d="M1850 6719 c-63 -5 -465 -8 -892 -7 -551 2 -781 -1 -789 -9 -18 -18 53 -22 511 -28 417 -6 1265 8 1323 21 15 3 27 13 27 20 0 15 -1 15 -180 3z"/>
<path d="M6916 6635 c-13 -14 -32 -25 -43 -25 -13 0 -26 -14 -40 -43 -17 -35 -29 -46 -61 -55 -50 -15 -68 -8 -76 29 -7 34 -31 47 -57 31 -17 -11 -18 -9 -13 18 5 22 2 31 -11 36 -22 9 -40 -11 -63 -71 -11 -27 -23 -57 -26 -66 -11 -25 20 -52 45 -39 10 6 19 18 19 27 0 9 7 25 17 35 16 17 17 17 34 -12 25 -40 57 -46 113 -21 25 11 46 17 46 13 0 -4 -9 -41 -20 -82 -24 -93 -25 -129 -4 -137 31 -12 49 12 56 73 8 71 50 206 78 252 26 42 50 41 100 -4 62 -56 56 -63 -72 -99 -55 -15 -69 -27 -49 -39 14 -9 173 23 199 40 43 28 26 87 -40 134 -52 38 -100 40 -132 5z"/>
<path d="M1536 6518 c-3 -7 -7 -35 -11 -63 -3 -27 -18 -109 -32 -182 -14 -72 -23 -139 -19 -148 3 -10 15 -15 28 -13 18 2 25 12 32 46 8 39 26 59 26 29 0 -8 8 -21 18 -30 21 -19 144 -67 172 -67 41 0 18 27 -51 60 -105 51 -109 73 -19 130 31 20 50 39 50 51 0 32 -31 22 -108 -36 -39 -29 -72 -52 -72 -49 0 3 9 51 21 107 25 125 23 171 -9 175 -12 2 -24 -3 -26 -10z"/>
<path d="M507 6333 c-9 -14 -12 -168 -3 -181 4 -6 16 -12 26 -12 18 0 31 29 42 95 3 22 63 56 83 49 21 -8 23 -38 8 -84 -13 -38 -13 -44 0 -58 28 -27 57 2 81 79 9 30 74 72 114 73 l37 1 0 -67 c0 -73 13 -100 39 -79 44 37 39 145 -9 177 -31 20 -85 6 -144 -37 -24 -17 -44 -29 -46 -27 -1 2 -7 13 -13 24 -17 33 -56 38 -109 14 -25 -11 -47 -20 -49 -20 -1 0 -4 12 -6 28 -2 19 -9 28 -25 30 -11 2 -23 0 -26 -5z"/>
<path d="M5815 6290 c-11 -18 4 -26 90 -46 l80 -18 -160 -8 c-88 -4 -294 -16 -458 -28 -374 -25 -345 -26 -353 6 -14 56 -32 58 -549 56 l-470 -1 -3 -80 -3 -80 -257 6 c-141 3 -291 8 -332 12 l-75 6 63 25 c74 30 85 55 19 48 -83 -10 -247 -101 -247 -137 0 -25 16 -36 78 -49 75 -17 122 -16 122 3 0 8 -8 15 -18 15 -10 0 -40 7 -67 17 l-48 16 23 19 c16 13 26 16 34 8 6 -6 57 -10 120 -10 61 0 216 -3 345 -7 l234 -6 -6 -153 c-6 -160 -2 -177 38 -188 11 -3 0 -3 -25 -1 -25 2 -202 5 -394 7 -250 2 -350 0 -353 -8 -7 -21 83 -26 717 -35 1401 -21 2218 -22 2695 -5 248 9 513 18 589 19 109 2 140 5 144 16 4 12 -42 13 -309 8 -173 -3 -438 -11 -589 -18 -390 -16 -2471 2 -2440 21 7 4 221 5 475 2 l462 -5 7 27 c3 14 13 26 20 26 19 0 26 23 26 85 l0 53 83 55 c77 51 139 87 152 87 3 0 5 -20 5 -45 0 -93 44 -144 107 -126 41 12 128 57 205 107 73 47 129 77 132 72 1 -2 8 -23 15 -48 17 -59 54 -97 102 -105 46 -8 123 16 279 85 183 81 199 83 215 23 11 -46 44 -82 80 -89 41 -7 74 3 232 73 67 30 137 57 156 60 33 5 35 3 59 -48 14 -30 35 -63 47 -74 43 -38 130 -16 291 74 150 84 170 85 191 8 14 -51 56 -94 102 -102 44 -9 124 26 243 104 42 28 80 51 84 51 4 0 26 -19 49 -41 39 -39 44 -41 84 -36 24 3 49 9 57 12 10 3 21 -6 32 -25 21 -37 60 -40 83 -7 15 22 16 22 345 25 l329 4 -12 -31 c-8 -23 -8 -34 0 -42 19 -19 39 -4 64 46 17 35 21 50 13 63 -13 20 -114 48 -140 38 -18 -7 -18 -8 -2 -20 15 -11 -32 -14 -266 -20 -275 -7 -285 -6 -317 13 -41 25 -66 26 -90 5 -10 -9 -35 -18 -56 -21 -34 -4 -44 0 -83 32 -55 46 -80 44 -176 -18 -101 -65 -149 -87 -189 -87 -53 0 -70 13 -95 75 -40 97 -63 98 -252 3 -119 -60 -151 -72 -192 -73 l-49 0 -34 57 c-19 32 -43 62 -53 68 -27 15 -79 0 -216 -60 -184 -81 -222 -83 -258 -11 -14 26 -32 53 -40 60 -26 22 -82 8 -221 -53 -238 -105 -302 -105 -334 -5 -16 50 -43 73 -76 65 -15 -4 -65 -31 -113 -60 -203 -125 -262 -137 -262 -53 0 49 -21 97 -44 103 -28 7 -104 -29 -191 -91 -33 -23 -66 -40 -72 -38 -9 3 -13 32 -13 97 l0 93 118 7 c64 4 205 13 312 21 107 7 274 16 370 20 l175 6 -40 -23 c-39 -23 -59 -58 -33 -58 18 0 127 45 140 58 18 18 4 55 -27 73 -57 34 -218 68 -230 49z m-872 -89 c24 -19 21 -29 -7 -24 -13 3 -27 0 -31 -6 -9 -15 13 -41 35 -41 15 0 18 -17 23 -150 6 -134 4 -154 -12 -183 l-18 -32 -109 -8 c-60 -5 -215 -5 -344 -1 -129 3 -282 6 -340 4 l-105 -2 4 214 c1 117 7 221 13 231 9 18 31 19 442 15 348 -2 436 -6 449 -17z"/>
<path d="M1045 6078 c-4 -24 -16 -65 -26 -91 -17 -44 -18 -48 -3 -54 26 -10 48 10 67 62 24 64 20 119 -10 123 -18 3 -22 -3 -28 -40z"/>
<path d="M1042 5627 c-43 -93 -106 -182 -187 -263 -79 -77 -126 -104 -149 -85 -10 8 -13 23 -9 47 5 31 4 34 -20 34 -29 0 -37 -16 -37 -70 0 -47 25 -65 74 -56 66 13 219 166 301 302 34 56 35 57 35 26 0 -32 29 -72 52 -72 7 0 31 18 54 41 l41 41 5 -52 c6 -55 18 -76 41 -67 20 8 44 207 26 218 -17 10 -49 -7 -49 -26 0 -8 -21 -36 -47 -62 l-48 -48 -5 75 c-5 68 -7 75 -27 78 -19 3 -27 -7 -51 -61z"/>
<path d="M6508 5309 c-10 -5 -18 -14 -18 -20 0 -5 7 -5 18 2 22 14 93 -3 113 -27 12 -15 7 -23 -42 -68 -60 -55 -79 -82 -79 -115 0 -37 37 -49 190 -59 130 -9 177 -5 158 13 -3 3 -61 12 -130 20 -138 16 -158 21 -158 40 0 8 27 37 60 66 65 57 77 78 60 109 -22 41 -128 65 -172 39z"/>
<path d="M5887 5248 c-24 -37 -138 -400 -135 -428 4 -29 45 -42 53 -16 17 54 15 53 35 28 24 -29 68 -42 142 -42 108 0 122 25 18 32 -89 7 -117 26 -95 67 7 15 32 43 53 62 109 94 100 83 74 87 -33 5 -102 -39 -156 -99 -25 -28 -46 -46 -46 -39 0 6 23 83 51 171 28 87 49 166 47 175 -5 27 -25 28 -41 2z"/>
<path d="M1725 5109 c-202 -14 -653 -29 -913 -29 -141 0 -281 -3 -309 -6 -50 -6 -68 -17 -40 -26 29 -9 994 12 1217 26 135 9 282 16 328 16 63 0 83 3 80 13 -6 15 -198 18 -363 6z"/>
<path d="M3417 5086 c-22 -22 -37 -104 -37 -199 0 -148 -19 -403 -36 -478 -23 -103 -23 -113 2 -117 18 -3 22 -12 28 -64 3 -34 6 -149 6 -257 0 -210 10 -275 50 -331 34 -47 110 -80 110 -46 0 7 -11 21 -24 29 -13 9 -34 38 -47 64 -22 46 -24 61 -29 324 -5 251 -7 278 -25 305 -11 16 -19 34 -18 39 28 149 36 224 42 438 6 199 10 250 22 258 10 6 11 13 3 26 -15 24 -29 26 -47 9z"/>
<path d="M6369 5058 c-17 -24 -35 -50 -40 -58 -8 -13 -12 -12 -26 6 -10 12 -23 30 -29 40 -12 21 -44 13 -44 -12 0 -9 13 -38 29 -65 29 -47 30 -48 14 -88 -27 -70 12 -103 44 -36 l16 34 34 -29 c66 -59 95 -28 33 35 l-43 43 42 76 c47 85 49 96 21 96 -12 0 -32 -17 -51 -42z"/>
<path d="M4539 4938 c-17 -18 -57 -69 -90 -113 -51 -68 -66 -82 -101 -91 -48 -12 -63 -34 -23 -34 31 0 31 3 -15 -73 -19 -31 -43 -59 -52 -62 -11 -4 -18 -16 -18 -31 0 -19 5 -24 25 -24 27 0 27 0 29 42 1 15 22 56 46 91 l43 65 66 4 c36 3 67 4 69 3 1 -1 -3 -25 -9 -54 -15 -71 -6 -103 28 -99 30 4 55 34 36 46 -8 5 -9 21 -2 55 10 57 15 67 35 67 8 0 14 5 14 10 0 6 -6 10 -14 10 -12 0 -11 11 5 67 10 38 19 82 19 98 0 62 -45 73 -91 23z m26 -40 c-3 -24 -13 -66 -21 -94 l-14 -52 -56 -7 c-31 -4 -57 -5 -59 -3 -5 5 143 198 151 198 3 0 3 -19 -1 -42z"/>
<path d="M1568 4808 c-20 -5 -48 -20 -62 -33 -26 -24 -35 -55 -16 -55 6 0 10 9 10 19 0 36 159 66 210 39 45 -24 36 -48 -44 -120 -78 -71 -116 -132 -116 -187 0 -44 27 -93 48 -89 13 3 18 18 22 74 4 57 11 79 34 112 16 23 32 42 35 42 4 0 30 21 59 46 48 42 53 50 50 82 -4 54 -51 82 -132 81 -34 -1 -78 -5 -98 -11z"/>
<path d="M4954 4796 c-12 -31 10 -37 141 -34 162 4 182 22 33 31 -57 4 -118 9 -135 13 -25 5 -34 3 -39 -10z"/>
<path d="M6275 4774 c-93 -6 -253 -13 -355 -13 -183 -1 -230 -6 -230 -21 0 -15 412 -11 693 7 211 13 277 20 277 30 0 16 -142 15 -385 -3z"/>
<path d="M783 4696 c-17 -18 -54 -72 -82 -120 -47 -77 -56 -86 -82 -86 -19 0 -29 -5 -29 -15 0 -8 7 -15 15 -15 20 0 19 -15 -6 -60 -18 -32 -26 -37 -53 -36 -30 1 -31 -1 -34 -41 -3 -34 0 -42 17 -48 25 -8 41 1 41 21 0 8 17 46 38 84 l37 68 68 4 69 3 -3 -45 c-3 -66 -1 -77 16 -84 33 -12 45 4 45 63 0 32 3 61 8 65 4 4 7 20 8 34 1 15 5 64 9 108 4 45 5 94 1 108 -9 38 -47 34 -83 -8z m24 -68 c-4 -40 -9 -88 -13 -105 -6 -33 -7 -33 -66 -33 l-60 0 23 38 c41 68 112 172 117 172 3 0 2 -33 -1 -72z"/>
<path d="M4920 4685 c-24 -29 6 -37 120 -30 113 6 150 12 150 26 0 5 -44 9 -99 9 -54 0 -112 3 -128 6 -20 4 -33 1 -43 -11z"/>
<path d="M6010 4615 c0 -12 15 -15 73 -15 83 0 119 -8 114 -24 -1 -6 -43 -31 -91 -56 -94 -47 -114 -66 -102 -95 6 -16 18 -17 139 -12 72 3 142 9 155 13 48 14 17 23 -85 26 l-108 3 64 36 c70 38 105 76 96 101 -11 27 -54 38 -155 38 -82 0 -100 -3 -100 -15z"/>
<path d="M1153 4503 c-31 -3 -43 -9 -43 -20 0 -14 14 -15 110 -11 61 3 113 8 116 11 24 24 -50 32 -183 20z"/>
<path d="M1613 4234 c-8 -21 40 -69 61 -61 28 11 31 39 7 59 -28 22 -60 23 -68 2z"/>
<path d="M5985 4117 c-20 -47 -95 -327 -95 -353 0 -22 24 -39 42 -28 5 3 13 16 18 29 l9 22 58 -19 c64 -22 136 -29 141 -13 2 5 -25 19 -60 31 -35 11 -64 27 -66 36 -2 8 24 36 60 63 68 53 78 63 78 83 0 26 -39 10 -106 -45 -38 -31 -74 -64 -81 -72 -22 -28 -16 6 25 141 39 127 40 158 6 158 -8 0 -21 -15 -29 -33z"/>
<path d="M4923 4098 c-60 -75 -54 -168 11 -168 21 0 24 -6 30 -61 13 -125 11 -130 -46 -169 -29 -19 -63 -50 -75 -69 -57 -84 0 -226 82 -205 64 16 115 124 115 245 0 58 3 69 23 82 22 16 22 16 1 16 -19 1 -22 9 -28 78 -3 42 -6 94 -6 115 0 31 -4 41 -19 45 -16 4 -21 15 -23 52 -3 41 -6 46 -29 49 -14 2 -30 -3 -36 -10z m52 -67 c-8 -50 -25 -64 -25 -21 0 32 18 76 27 67 3 -3 2 -24 -2 -46z m-5 -387 c0 -135 -69 -221 -117 -147 -24 36 -23 96 2 124 24 26 94 79 107 79 4 0 8 -25 8 -56z"/>
<path d="M4166 4068 c-3 -7 -7 -29 -10 -48 -10 -58 -101 -231 -161 -308 -74 -95 -90 -94 -90 8 0 60 -3 75 -16 78 -26 5 -40 -23 -46 -87 -4 -46 -2 -66 10 -85 19 -28 50 -41 71 -29 32 18 139 172 186 268 34 67 50 92 50 75 0 -14 7 -36 16 -48 25 -35 55 -25 81 28 l22 45 0 -76 c1 -80 15 -114 45 -108 16 4 19 19 22 127 4 126 -3 162 -32 162 -8 0 -19 -12 -25 -27 -6 -16 -21 -48 -32 -73 l-21 -45 -6 65 c-6 74 -13 90 -41 90 -11 0 -21 -6 -23 -12z"/>
<path d="M4452 4058 c-12 -15 -19 -248 -8 -266 9 -15 39 -15 54 0 7 7 12 33 12 59 0 32 6 54 20 70 l19 24 1 -32 c0 -32 22 -63 44 -63 17 0 36 21 36 40 0 8 22 40 48 70 l49 54 7 -58 c9 -76 29 -116 61 -116 31 0 41 17 22 38 -8 9 -17 42 -20 71 -8 64 -33 97 -66 86 -11 -3 -40 -29 -63 -56 l-41 -49 -18 30 c-23 37 -29 37 -68 4 l-31 -26 0 39 c0 63 -34 110 -58 81z"/>
<path d="M6350 3994 c0 -15 12 -53 26 -85 l26 -58 -31 -47 c-17 -26 -31 -53 -31 -61 0 -25 38 -13 69 22 l31 36 42 -14 c22 -8 49 -12 60 -9 23 6 24 32 1 32 -10 0 -30 10 -46 23 l-27 22 40 65 c46 77 49 90 15 90 -19 0 -32 -11 -53 -45 -15 -25 -30 -45 -33 -45 -4 0 -16 23 -27 50 -16 37 -26 50 -41 50 -16 0 -21 -6 -21 -26z"/>
<path d="M5311 3905 c5 -26 40 -33 186 -36 91 -2 128 0 130 8 5 15 -19 20 -132 28 -49 3 -112 8 -139 12 -43 5 -48 4 -45 -12z"/>
<path d="M5344 3817 c-13 -34 6 -40 111 -34 57 2 111 10 121 16 24 13 17 14 -81 17 -44 0 -95 5 -112 9 -25 6 -34 4 -39 -8z"/>
<path d="M4803 3158 c-6 -7 -16 -31 -23 -53 -24 -75 -113 -210 -185 -279 -63 -61 -126 -84 -139 -50 -8 20 -50 15 -54 -7 -4 -24 25 -49 57 -49 63 0 194 120 270 247 28 46 41 61 41 46 0 -65 48 -73 97 -16 l33 38 -3 -45 c-2 -39 1 -45 19 -48 19 -3 25 6 43 67 11 38 21 79 21 90 0 32 -30 39 -49 12 -31 -45 -90 -106 -96 -100 -3 4 0 37 6 74 11 56 11 68 -2 76 -19 12 -25 11 -36 -3z"/>
<path d="M5560 3133 c-30 -25 -38 -38 -54 -89 -8 -25 19 -58 40 -50 11 4 14 -6 14 -42 0 -46 -1 -48 -47 -72 -27 -14 -68 -39 -94 -56 l-45 -30 -261 4 c-266 5 -357 -1 -351 -20 3 -7 51 -10 147 -9 184 3 442 -9 435 -20 -22 -37 61 -92 138 -93 55 0 91 26 108 80 7 19 12 35 13 36 1 1 89 4 195 7 255 8 256 25 2 29 l-190 2 5 58 c3 31 8 78 11 105 6 56 -9 91 -37 84 -25 -7 -24 0 7 40 28 37 49 44 41 13 -6 -24 11 -27 20 -3 7 17 -28 53 -52 53 -8 0 -28 -12 -45 -27z m-14 -319 c-8 -67 -28 -110 -56 -119 -57 -18 -146 27 -124 62 10 16 162 112 178 113 5 0 6 -25 2 -56z"/>
<path d="M5155 3098 c-17 -51 -36 -151 -31 -164 3 -9 15 -14 27 -12 17 2 25 14 34 51 7 27 20 56 30 65 17 16 17 15 12 -21 -8 -50 0 -67 29 -67 16 0 27 8 33 23 5 12 21 33 36 47 l27 25 -7 -37 c-15 -78 19 -121 76 -98 33 14 38 30 9 30 -21 0 -23 5 -20 62 2 42 -14 78 -35 78 -8 0 -26 -11 -42 -24 l-28 -24 -10 31 c-12 37 -39 46 -65 22 -17 -15 -19 -15 -25 4 -7 23 -43 29 -50 9z"/>
<path d="M3575 2990 c-3 -6 12 -32 35 -58 64 -72 67 -82 35 -136 -15 -25 -24 -53 -21 -61 10 -27 42 -17 62 20 22 41 25 42 49 15 19 -21 50 -26 60 -10 3 5 -8 28 -24 50 l-29 41 24 60 c26 64 25 79 -7 79 -13 0 -24 -13 -35 -41 l-17 -40 -41 39 c-44 43 -80 59 -91 42z"/>
<path d="M4066 2896 c-16 -7 -25 -15 -20 -17 18 -9 244 6 247 16 3 16 -192 16 -227 1z"/>
<path d="M4082 2842 c-7 -2 -12 -10 -12 -19 0 -13 15 -14 89 -11 79 3 113 10 100 22 -6 5 -163 13 -177 8z"/>
<path d="M4965 2668 c-3 -11 -20 -109 -39 -236 -4 -25 20 -56 35 -46 6 3 14 17 19 30 l9 24 69 -25 c81 -29 92 -30 92 -9 0 10 -26 27 -70 47 -38 17 -70 34 -70 38 0 4 27 29 60 55 33 26 60 51 60 55 0 15 -39 10 -79 -11 l-39 -19 2 52 c1 47 -1 52 -22 55 -12 2 -24 -3 -27 -10z"/>
<path d="M7081 2407 c-26 -13 -40 -37 -22 -37 6 0 11 5 11 10 0 12 60 13 79 1 12 -8 9 -16 -17 -46 -38 -42 -41 -79 -9 -99 24 -16 151 -26 164 -13 11 11 -17 27 -49 27 -39 0 -78 17 -78 35 0 8 11 22 25 31 47 30 43 76 -7 93 -40 14 -67 14 -97 -2z"/>
<path d="M6463 2293 c-23 -9 -14 -23 15 -23 15 0 37 -3 50 -6 l22 -6 -20 -33 c-25 -40 -25 -57 -1 -79 14 -13 33 -16 82 -14 75 4 90 23 24 31 -65 7 -74 19 -42 57 30 35 26 57 -10 71 -25 9 -99 11 -120 2z"/>
<path d="M5913 2263 c-7 -2 -13 -9 -13 -15 0 -6 7 -7 16 -4 21 8 54 -2 54 -16 0 -6 -16 -28 -35 -49 -53 -59 -45 -119 15 -119 14 0 32 5 40 10 13 9 11 13 -9 29 -27 20 -22 38 23 80 31 29 33 52 8 74 -18 16 -72 21 -99 10z"/>
<path d="M4760 2181 c-5 -11 -10 -27 -10 -36 0 -10 -14 -58 -30 -108 -28 -82 -29 -92 -15 -106 18 -19 48 -5 54 25 3 18 28 43 44 44 4 0 7 -8 7 -18 0 -42 31 -53 135 -50 129 4 138 22 18 34 -112 11 -115 26 -15 74 49 24 72 40 72 52 0 10 -7 18 -16 18 -21 0 -141 -48 -182 -72 -18 -11 -35 -19 -37 -16 -2 2 5 34 15 72 14 49 17 74 9 87 -13 24 -35 24 -49 0z"/>
<path d="M6153 2148 c-5 -7 -15 -42 -21 -78 -10 -53 -9 -67 2 -79 22 -21 44 -6 55 37 6 21 22 49 36 62 l26 24 -3 -54 c-3 -53 -2 -55 24 -58 19 -2 28 2 32 16 4 10 18 29 31 42 l25 23 0 -52 c0 -54 17 -74 44 -52 15 12 29 111 20 135 -9 24 -48 19 -74 -9 l-24 -25 -12 30 c-18 43 -38 47 -79 16 -31 -24 -35 -25 -35 -9 0 19 -18 43 -31 43 -4 0 -11 -6 -16 -12z"/>
<path d="M6818 2148 c-38 -10 -88 -58 -88 -83 0 -21 29 -45 53 -45 20 1 57 13 111 35 17 7 18 4 11 -36 -5 -31 -18 -54 -41 -77 -45 -43 -71 -97 -80 -160 -7 -59 4 -82 42 -82 50 0 108 123 140 301 16 86 16 90 -2 111 -20 22 -74 49 -96 47 -7 -1 -30 -6 -50 -11z m107 -28 c8 -12 -36 -40 -80 -50 -36 -8 -56 3 -37 22 10 10 80 37 99 38 6 0 14 -4 18 -10z m-49 -238 c-17 -63 -47 -125 -63 -130 -17 -5 -17 49 0 91 14 32 67 101 73 94 2 -1 -3 -26 -10 -55z"/>
<path d="M5660 2111 c-5 -11 -10 -25 -10 -32 0 -22 -88 -135 -150 -192 -66 -61 -97 -72 -102 -35 -3 26 -36 37 -49 16 -28 -44 11 -94 61 -77 37 13 139 107 186 170 35 48 37 49 51 29 22 -31 47 -24 92 23 39 40 41 41 41 17 1 -71 51 -62 62 11 3 24 4 52 1 62 -7 27 -40 20 -59 -12 -19 -32 -72 -76 -81 -68 -3 3 0 22 7 42 6 20 9 42 6 50 -8 21 -43 18 -56 -4z"/>
<path d="M3793 2021 c-26 -17 -113 -111 -140 -153 -4 -7 -25 -21 -45 -30 -21 -10 -38 -23 -38 -30 0 -9 3 -9 12 0 7 7 18 12 26 12 15 0 5 -21 -45 -88 l-24 -32 -20 22 -19 23 -20 -24 c-23 -27 -26 -73 -5 -91 15 -13 55 -5 55 11 0 11 109 171 125 181 12 9 62 10 91 2 20 -5 21 -11 17 -63 -6 -69 8 -104 40 -99 19 3 22 8 19 43 -5 61 6 102 28 108 23 6 27 27 5 27 -17 0 -14 20 12 94 32 92 -1 131 -74 87z m9 -91 l-19 -65 -51 -3 c-30 -2 -52 1 -52 7 0 16 132 147 136 136 2 -5 -4 -39 -14 -75z"/>
<path d="M6964 1911 c-2 -2 -4 -12 -4 -21 0 -16 12 -17 118 -13 108 5 156 15 121 27 -19 6 -229 13 -235 7z"/>
<path d="M6560 1893 c-58 -2 -289 -7 -513 -12 -281 -5 -411 -11 -419 -19 -7 -7 -10 -13 -7 -15 7 -7 1011 13 1068 21 68 9 83 33 19 30 -23 -1 -90 -4 -148 -5z"/>
<path d="M4096 1872 c-15 -25 28 -36 147 -36 137 -1 171 15 55 25 -40 4 -101 10 -134 14 -38 4 -64 3 -68 -3z"/>
<path d="M4716 1866 c-73 -10 -102 -25 -77 -40 5 -4 29 -2 53 4 24 6 122 14 218 18 108 4 174 11 173 17 -4 14 -271 15 -367 1z"/>
<path d="M4173 1783 c-7 -2 -13 -14 -13 -25 0 -19 4 -20 68 -13 84 8 112 15 112 26 0 5 -29 9 -64 9 -35 0 -70 2 -78 4 -7 3 -19 2 -25 -1z"/>
<path d="M4733 1755 c-7 -19 15 -37 36 -30 22 8 81 -6 81 -19 0 -14 -42 -54 -82 -79 -29 -18 -37 -52 -15 -59 24 -9 227 8 239 20 9 9 -6 12 -70 12 -45 0 -82 3 -82 8 0 4 16 20 36 35 67 54 29 105 -89 122 -39 5 -48 3 -54 -10z"/>
<path d="M6036 1761 c-10 -16 -76 -252 -76 -272 0 -14 7 -19 25 -19 20 0 27 6 32 30 8 42 35 55 59 29 15 -16 28 -19 78 -17 69 3 77 19 17 31 -23 5 -41 12 -41 16 0 4 17 16 37 27 20 10 38 25 41 32 7 22 -51 13 -107 -18 -30 -17 -56 -28 -58 -26 -2 2 5 37 17 77 26 94 26 119 1 119 -11 0 -22 -4 -25 -9z"/>
<path d="M6308 1764 c-32 -9 -19 -22 28 -29 l46 -7 -28 -29 c-40 -42 -25 -64 42 -64 54 1 144 23 144 36 0 4 -33 5 -72 2 -70 -5 -72 -4 -50 11 25 19 29 48 8 65 -15 13 -92 22 -118 15z"/>
<path d="M9636 1261 c-3 -4 13 -13 34 -20 55 -16 52 -41 -10 -107 -54 -57 -56 -62 -37 -87 9 -13 38 -20 114 -27 57 -5 109 -7 118 -4 25 10 17 23 -17 28 -107 18 -152 26 -156 31 -3 3 16 24 41 48 55 51 61 84 22 122 -17 18 -35 25 -64 25 -22 0 -42 -4 -45 -9z"/>
<path d="M6475 1221 c-7 -13 27 -31 59 -31 68 0 66 -23 -5 -76 -53 -38 -70 -74 -48 -101 12 -14 31 -15 138 -10 68 3 128 10 134 16 18 18 -39 31 -131 31 l-87 1 30 22 c74 55 88 72 81 101 -4 18 -18 32 -41 42 -39 16 -121 19 -130 5z"/>
<path d="M7699 1148 c-45 -61 -104 -190 -130 -283 -17 -65 -21 -97 -16 -170 5 -102 11 -121 39 -136 33 -18 44 3 28 50 -20 61 -7 207 26 310 15 46 51 122 80 170 28 47 50 89 47 94 -12 19 -46 3 -74 -35z"/>
<path d="M6263 1132 c-9 -5 -2 -22 24 -60 32 -46 37 -60 41 -130 7 -128 -31 -251 -107 -343 -29 -34 -34 -36 -106 -42 -81 -6 -95 -11 -78 -28 7 -7 99 -7 294 1 156 6 325 12 374 13 72 2 90 5 90 17 0 18 -66 19 -359 7 l-189 -7 36 39 c44 49 68 96 96 185 39 127 21 243 -49 317 -38 40 -46 44 -67 31z"/>
<path d="M4843 1071 c-71 -51 -151 -202 -177 -333 -28 -138 -16 -242 26 -225 12 4 15 23 16 84 0 86 28 205 66 289 29 63 98 156 132 179 14 9 22 20 19 25 -11 18 -41 11 -82 -19z"/>
<path d="M9485 1081 c-3 -6 4 -25 15 -43 39 -64 20 -215 -45 -362 -27 -60 -27 -86 -1 -86 19 0 46 48 83 146 45 117 57 183 43 248 -15 74 -73 132 -95 97z"/>
<path d="M5173 978 c-5 -7 -21 -38 -36 -68 -32 -66 -103 -162 -190 -256 -68 -73 -143 -132 -154 -120 -3 3 -1 27 4 53 13 54 10 63 -18 63 -22 0 -34 -25 -44 -91 -5 -37 -3 -48 13 -63 17 -15 24 -16 44 -5 44 23 149 123 215 203 100 122 96 120 89 61 -4 -37 -2 -56 10 -73 26 -38 54 -27 122 46 l63 67 -3 -55 c-3 -52 -2 -55 21 -55 20 0 26 8 38 50 8 28 23 78 33 112 22 69 18 96 -13 91 -13 -2 -30 -22 -49 -58 -29 -56 -123 -160 -145 -160 -16 0 -10 36 24 152 14 47 23 94 20 102 -8 19 -31 21 -44 4z"/>
<path d="M6043 961 c-35 -22 -83 -87 -83 -113 0 -29 37 -42 66 -23 27 17 28 15 15 -35 -6 -19 -15 -53 -20 -76 -9 -34 -21 -48 -66 -77 -30 -20 -64 -50 -76 -67 -15 -20 -26 -27 -34 -20 -15 12 -865 -6 -878 -19 -15 -15 3 -33 28 -27 12 3 121 6 241 7 121 0 297 4 392 9 95 4 181 6 191 3 18 -4 18 -7 5 -39 -31 -75 -8 -107 60 -84 98 32 213 264 245 495 12 87 -16 108 -86 66z m75 -23 c-3 -7 -13 -15 -24 -17 -16 -3 -17 -1 -5 13 16 19 34 21 29 4z m-133 -330 c-13 -44 -67 -123 -103 -151 -87 -67 -50 48 42 129 57 49 70 54 61 22z"/>
<path d="M8710 943 c-28 -36 -109 -93 -131 -93 -27 0 -44 -27 -29 -45 18 -22 26 -19 61 20 18 19 36 35 40 35 4 0 -8 -35 -27 -77 -37 -85 -43 -133 -18 -154 22 -18 49 1 50 37 0 41 20 96 71 197 24 48 41 92 38 97 -11 18 -33 10 -55 -17z"/>
<path d="M5520 923 c-6 -21 -25 -73 -42 -115 -33 -84 -31 -111 4 -106 16 2 25 13 32 37 11 38 138 180 144 162 2 -6 -6 -40 -18 -76 -17 -52 -19 -69 -10 -80 21 -25 49 -18 64 18 8 17 33 52 56 77 l41 45 -6 -52 c-9 -68 0 -93 31 -93 20 0 24 5 24 28 0 16 7 52 15 80 16 54 9 92 -18 92 -6 0 -38 -26 -71 -57 -32 -32 -55 -49 -51 -38 24 61 13 105 -25 105 -10 0 -44 -24 -76 -52 -46 -43 -55 -48 -48 -28 4 14 8 39 9 55 0 23 -5 31 -22 33 -17 3 -23 -4 -33 -35z"/>
<path d="M9187 933 c-47 -57 -89 -93 -120 -101 -22 -6 -32 -14 -32 -28 0 -30 39 -30 59 1 28 43 28 23 1 -49 -20 -52 -23 -71 -14 -87 19 -36 40 -16 72 71 18 47 45 107 60 134 31 56 33 71 11 80 -10 4 -24 -4 -37 -21z"/>
<path d="M7890 933 c-69 -35 -111 -145 -76 -198 39 -59 102 -50 168 23 56 62 64 130 18 163 -39 28 -71 31 -110 12z m111 -32 c21 -17 22 -21 11 -59 -24 -79 -123 -135 -138 -77 -7 28 2 89 18 118 19 37 74 46 109 18z"/>
<path d="M8163 905 c-43 -18 -42 -28 2 -19 26 5 36 2 41 -9 7 -18 -31 -96 -51 -103 -23 -9 -66 -80 -59 -98 13 -34 49 -39 142 -20 38 8 24 21 -28 28 -27 4 -50 10 -50 14 0 5 18 25 40 47 69 67 87 140 40 165 -24 13 -38 12 -77 -5z"/>
<path d="M9325 908 c-59 -32 -115 -130 -115 -200 0 -31 38 -61 68 -53 61 15 152 139 152 207 0 46 -58 72 -105 46z m86 -30 c4 -46 -18 -97 -64 -145 -61 -65 -87 -24 -50 78 11 34 25 51 47 62 38 19 66 21 67 5z"/>
<path d="M3795 808 c-19 -18 -57 -73 -83 -123 l-49 -90 -46 -7 c-52 -7 -70 -15 -62 -29 4 -5 25 -6 48 -2 l41 6 -18 -29 c-26 -40 -68 -84 -80 -84 -6 0 -17 9 -24 20 -18 29 -52 26 -52 -4 0 -33 25 -56 60 -56 31 0 56 24 106 104 29 46 29 46 86 46 l56 0 -14 -47 c-18 -60 -18 -88 2 -107 19 -20 64 -21 90 -2 18 14 18 15 -8 25 -31 12 -35 31 -16 92 7 26 17 39 29 39 24 0 49 10 49 21 0 5 -11 9 -25 9 -30 0 -30 -4 -4 82 24 77 21 135 -8 155 -26 20 -40 16 -78 -19z m15 -149 l-21 -69 -54 0 -54 0 41 78 c23 42 55 92 72 110 l31 33 3 -41 c2 -23 -6 -73 -18 -111z"/>
<path d="M8850 785 c-11 -13 -11 -19 4 -33 20 -20 51 -6 51 24 0 24 -37 30 -55 9z"/>
<path d="M8407 784 c-17 -17 -5 -34 24 -34 24 0 30 4 27 18 -3 17 -38 29 -51 16z"/>
<path d="M11654 756 c-5 -12 -20 -16 -58 -16 -73 0 -151 -25 -175 -57 -41 -51 -18 -87 64 -98 28 -4 58 -11 69 -15 17 -6 17 -8 -5 -33 -23 -25 -26 -26 -66 -15 -38 11 -46 10 -70 -8 -36 -27 -37 -36 -13 -67 25 -31 54 -34 108 -11 27 11 53 13 93 9 87 -10 150 14 192 75 37 53 10 140 -55 180 -18 11 -35 30 -38 42 -7 27 -38 36 -46 14z m-24 -61 c0 -2 -7 -23 -16 -45 -13 -33 -21 -40 -43 -39 -42 0 -96 23 -96 39 0 22 63 50 113 50 23 0 42 -2 42 -5z m126 -38 c59 -54 47 -124 -28 -163 -31 -16 -124 -19 -133 -4 -3 5 6 26 21 45 21 28 33 35 61 35 39 0 42 23 4 28 -17 3 -21 8 -16 20 4 9 12 29 17 45 13 35 30 34 74 -6z m-282 -177 c5 -5 -2 -12 -18 -16 -28 -7 -60 11 -50 28 7 10 53 2 68 -12z"/>
<path d="M8012 713 c-5 -10 -17 -42 -28 -71 -19 -55 -12 -81 20 -69 20 8 58 96 54 127 -4 30 -33 39 -46 13z"/>
<path d="M10441 704 c-76 -33 -190 -177 -191 -241 0 -28 45 -63 81 -63 72 0 183 83 220 163 34 75 22 127 -32 146 -39 13 -36 14 -78 -5z m114 -44 c10 -16 -12 -79 -41 -121 -61 -88 -195 -127 -194 -56 1 39 26 71 56 72 23 0 29 6 38 38 13 45 48 84 79 89 24 4 52 -6 62 -22z"/>
<path d="M10920 625 c-35 -35 -73 -65 -84 -67 -13 -2 -22 -12 -24 -25 -3 -19 1 -23 22 -23 14 0 26 4 26 10 0 12 71 92 77 87 2 -2 -10 -36 -27 -75 -36 -84 -38 -112 -10 -112 16 0 32 25 75 115 61 128 67 155 32 155 -15 0 -45 -23 -87 -65z"/>
<path d="M6964 645 c-12 -29 8 -35 116 -35 170 0 157 32 -18 43 -74 5 -94 3 -98 -8z"/>
<path d="M4145 640 c-4 -7 -2 -16 6 -21 20 -13 236 -11 244 2 4 6 5 12 3 15 -3 2 -59 7 -125 10 -91 5 -122 4 -128 -6z"/>
<path d="M11970 599 c-30 -11 -70 -25 -87 -31 -18 -6 -33 -15 -33 -19 0 -14 21 -21 33 -11 21 18 117 52 117 42 0 -5 -5 -12 -10 -15 -13 -8 -60 -100 -60 -118 0 -23 21 -37 42 -26 10 5 18 14 18 20 0 5 8 21 17 35 16 26 17 26 25 5 9 -25 40 -28 59 -5 11 13 61 44 72 44 2 0 2 -13 -1 -28 -7 -51 19 -65 112 -60 80 5 166 31 166 50 0 6 -9 7 -22 3 -13 -4 -57 -10 -98 -12 -63 -4 -78 -2 -90 12 -13 15 -11 20 18 46 18 16 39 29 47 29 8 0 15 7 15 15 0 32 -65 15 -201 -53 -4 -1 -9 6 -12 18 -3 12 -13 20 -25 20 -16 0 -19 5 -15 21 4 12 0 25 -8 30 -18 11 -15 12 -79 -12z"/>
<path d="M9797 594 c-4 -4 -7 -16 -7 -26 0 -17 11 -18 130 -18 104 0 130 3 130 14 0 10 -24 15 -102 19 -57 3 -112 8 -123 12 -11 3 -24 3 -28 -1z"/>
<path d="M4147 544 c-4 -4 -7 -16 -7 -26 0 -16 9 -18 73 -18 108 0 177 10 177 26 0 11 -21 14 -89 14 -49 0 -101 3 -117 6 -16 3 -32 2 -37 -2z"/>
<path d="M6962 529 c3 -23 6 -24 73 -21 103 4 165 13 165 23 0 5 -37 9 -82 9 -46 0 -100 3 -121 7 -37 6 -39 5 -35 -18z"/>
<path d="M7725 530 c-3 -5 -1 -11 4 -14 38 -24 1836 -16 1828 8 -5 14 -1823 21 -1832 6z"/>
<path d="M10591 457 c-11 -25 -36 -64 -56 -86 -35 -39 -39 -61 -10 -61 20 0 72 47 106 96 35 51 36 87 1 92 -18 3 -26 -5 -41 -41z"/>
<path d="M9750 440 c0 -19 12 -26 35 -20 6 1 59 5 119 9 74 4 111 10 114 19 3 9 -28 12 -132 12 -129 0 -136 -1 -136 -20z"/>
<path d="M5466 408 c-7 -13 -16 -48 -20 -79 -3 -31 -17 -96 -31 -144 -28 -94 -23 -119 19 -113 15 2 25 16 36 50 l15 46 27 -23 c30 -26 112 -47 147 -38 34 9 21 23 -39 43 -55 19 -80 41 -80 71 0 19 103 89 132 89 10 0 18 7 18 15 0 8 -8 15 -18 15 -20 0 -135 -70 -146 -89 -18 -29 -21 -5 -8 58 17 79 11 121 -18 121 -11 0 -26 -10 -34 -22z"/>
<path d="M8838 384 c-10 -3 -18 -12 -18 -21 0 -12 7 -14 34 -9 44 8 86 -8 86 -33 0 -21 -44 -63 -103 -100 -39 -24 -45 -39 -25 -59 18 -18 198 -16 198 2 0 16 -30 26 -80 26 l-35 0 53 46 c58 51 67 84 34 124 -15 18 -31 24 -73 26 -30 1 -62 0 -71 -2z"/>
<path d="M8241 359 c-47 -14 -23 -29 47 -29 71 0 66 -12 -31 -76 -93 -61 -127 -92 -127 -115 0 -31 24 -41 71 -30 24 6 72 11 106 11 62 0 88 14 62 32 -8 5 -47 7 -87 4 -42 -4 -71 -2 -68 3 4 5 44 34 91 65 98 65 116 89 88 117 -23 24 -103 33 -152 18z"/>
<path d="M5163 348 c-18 -6 -33 -17 -33 -24 0 -15 22 -19 34 -7 9 9 88 4 99 -7 21 -19 -10 -54 -99 -112 -94 -62 -109 -83 -80 -107 11 -10 32 -9 93 3 43 9 98 20 122 24 51 8 69 32 24 32 -15 0 -57 -5 -93 -10 -35 -5 -66 -8 -68 -6 -1 2 19 16 45 31 109 62 149 128 103 170 -24 22 -102 29 -147 13z"/>
<path d="M9160 324 c-45 -41 -68 -101 -50 -133 42 -79 170 -60 214 32 29 63 17 108 -35 126 -56 19 -86 14 -129 -25z m150 -14 c16 -16 18 -24 9 -48 -30 -85 -149 -109 -149 -30 0 71 94 124 140 78z"/>
<path d="M8561 251 c-21 -13 -5 -41 23 -41 25 0 52 31 39 44 -9 9 -46 7 -62 -3z"/>
</g><g transform="translate(1077.318081, 726.883452) scale(0.40808740102544044)"><g transform="translate(-57.706759,297.537395) scale(0.100000,-0.100000)" fill="#000000" stroke="none">
<path d="M750 2973 c-57 -10 -88 -25 -119 -57 -40 -41 -55 -100 -46 -179 6 -45 12 -61 32 -77 32 -25 35 -25 64 -1 22 17 24 26 21 89 -4 105 24 120 164 87 33 -7 119 -19 190 -25 88 -8 134 -16 144 -26 32 -32 8 -420 -28 -456 -18 -18 -126 -28 -289 -28 -185 0 -206 -4 -250 -52 -55 -58 -58 -82 -55 -363 1 -145 7 -274 13 -293 11 -34 51 -62 89 -62 12 0 35 14 52 31 l31 30 -6 238 c-3 130 -3 249 0 264 l5 27 112 0 c234 1 363 26 423 82 58 54 98 260 91 463 -4 122 -7 138 -34 191 -40 81 -79 100 -217 108 -174 10 -361 14 -387 9z" fill="#4444bb"/>
<path d="M3660 2971 c-42 -9 -83 -34 -103 -65 -39 -59 -50 -127 -54 -343 -5 -206 -5 -212 18 -252 28 -50 78 -86 143 -102 48 -12 257 -8 370 7 l49 7 -7 -104 c-4 -57 -11 -189 -16 -294 -9 -177 -9 -192 8 -214 35 -47 100 -46 136 2 22 29 27 86 42 452 7 191 0 235 -44 283 -45 48 -92 56 -241 38 -146 -18 -229 -20 -265 -6 l-26 10 0 162 c0 156 8 230 27 249 5 5 99 6 210 2 l201 -6 5 -50 c3 -39 11 -56 31 -74 34 -29 48 -29 80 0 24 20 26 30 28 113 4 147 -23 169 -218 179 -242 11 -340 13 -374 6z" fill="#4444bb"/>
<path d="M1565 2945 c-14 -13 -25 -32 -25 -42 0 -10 -1 -297 -3 -638 -2 -677 -3 -662 55 -694 33 -19 73 -7 101 31 18 24 20 51 29 300 5 150 10 278 12 283 2 6 37 8 97 3 52 -3 135 -7 186 -7 154 -2 161 -10 143 -176 -21 -189 -27 -310 -18 -343 12 -45 45 -72 86 -72 71 0 102 46 102 151 0 33 7 118 16 187 24 190 9 280 -58 349 -50 52 -112 67 -263 65 -71 -1 -164 -6 -205 -11 -41 -4 -78 -7 -81 -5 -4 2 -10 108 -13 236 -9 286 -17 352 -47 384 -31 33 -82 32 -114 -1z" fill="#4444bb"/>
<path d="M2542 2944 c-55 -38 -64 -109 -53 -419 6 -186 9 -215 28 -250 50 -95 116 -125 302 -135 75 -4 171 -5 215 -1 l78 7 -4 -178 c-2 -97 -7 -181 -11 -184 -4 -4 -42 1 -85 11 -104 26 -285 27 -363 3 -106 -33 -149 -107 -99 -170 26 -34 68 -41 132 -21 74 23 202 20 308 -7 182 -47 274 5 301 168 12 77 27 831 19 994 -7 152 -20 181 -86 186 -88 7 -103 -51 -104 -401 l0 -219 -201 4 c-197 3 -201 3 -220 27 -18 21 -19 42 -19 283 l0 260 -29 29 c-33 33 -74 38 -109 13z" fill="#4444bb"/>
<path d="M2374 1391 c-55 -34 -79 -78 -79 -147 0 -51 4 -66 27 -96 35 -45 102 -73 153 -64 78 15 146 111 131 188 -20 108 -145 172 -232 119z" fill="#4444bb"/>
<path d="M1853 999 c-39 -11 -66 -56 -61 -101 6 -59 69 -64 76 -6 4 30 34 38 145 38 l67 0 0 -110 c0 -135 -1 -136 -132 -126 -85 6 -89 6 -113 -18 -24 -25 -25 -28 -25 -179 0 -162 4 -177 47 -177 35 0 43 29 43 159 l0 121 73 0 c85 0 141 14 168 41 17 17 19 34 19 169 0 147 -1 152 -25 175 -23 24 -30 25 -137 24 -62 0 -128 -5 -145 -10z" fill="#4444bb"/>
<path d="M2985 1000 c-91 -16 -93 -18 -104 -58 -15 -51 -14 -537 0 -564 19 -36 69 -48 204 -48 121 0 127 1 151 25 l24 24 -2 292 -3 292 -26 19 c-31 23 -161 33 -244 18z m169 -86 c14 -5 16 -37 16 -250 l0 -245 -102 3 -103 3 0 240 0 240 40 6 c57 9 131 10 149 3z" fill="#4444bb"/>
<path d="M2351 971 c-24 -24 -29 -73 -37 -372 -6 -232 -6 -237 15 -258 23 -23 29 -25 51 -11 12 7 16 40 20 150 l5 141 35 -23 c19 -13 59 -55 88 -93 30 -39 78 -96 108 -128 47 -51 56 -57 74 -47 29 16 25 42 -15 92 -19 24 -62 78 -95 121 -61 77 -61 77 -33 77 15 0 46 9 69 19 56 26 67 57 62 179 -6 156 -27 172 -220 172 -93 0 -111 -3 -127 -19z m257 -74 c16 -13 17 -168 0 -185 -7 -7 -41 -12 -84 -12 -40 0 -84 -4 -98 -10 l-26 -10 0 120 0 119 98 -6 c53 -3 103 -10 110 -16z" fill="#4444bb"/>
</g>
</g>
</svg>
