<svg width="110mm" height="70.17mm" version="1.1" viewBox="0 0 110 70.17" xml:space="preserve" xmlns="http://www.w3.org/2000/svg"><g transform="translate(-56.97 -60.56)"><g fill="none" stroke="#000"><g stroke-linecap="square" stroke-width="1.852"><path d="m165.7 129.8h-108.3l108.3-62.52" stroke-linejoin="bevel" style="paint-order:fill markers stroke"/><rect transform="rotate(-30)" x="8.8" y="120" width="26.63" height="19.32" style="paint-order:fill markers stroke"/><rect transform="rotate(-30)" x="37.29" y="111.6" width="32.36" height="27.67" style="paint-order:fill markers stroke"/></g><path d="m72.52 121.5a17.23 17.23 0 0 1 2.148 8.388" stop-color="#000000" style="font-variation-settings:normal"/></g><g stroke-width="1.7"><path transform="matrix(.2646 0 0 .2646 50.09 54.81)" d="m138.6 194.5h-20.76v-1.68q4.26 0 6-0.9t1.74-3.12v-25.38q0-1.56-0.42-2.22-0.42-0.72-1.56-0.72-0.6 0-1.68 0.12t-2.28 0.36q-1.2 0.18-2.16 0.48v-1.98l11.64-3.3h1.74v32.64q0 2.22 1.8 3.12t5.94 0.9z" aria-label="1"/><path transform="matrix(.2646 0 0 .2646 54.42 59.68)" d="m217.2 103.3h-23.64v-2.04l9.12-9.12q3-3.06 4.98-5.52 1.98-2.52 2.94-5.04 1.02-2.52 1.02-5.64 0-3.36-2.04-5.34-1.98-2.04-5.46-2.04-2.94 0-5.04 1.26-2.04 1.26-3.72 4.62l-1.44-0.6q1.38-4.38 4.38-6.78t7.38-2.4q3.42 0 6 1.32 2.58 1.26 4.02 3.6 1.5 2.28 1.5 5.46 0 2.64-1.14 5.1-1.08 2.4-3.3 4.98-2.16 2.58-5.34 5.82l-7.92 7.5v0.3l4.2-0.18h8.34q2.4 0 3.36-1.08t1.98-3.78h1.74z" aria-label="2"/><path transform="matrix(.2646 0 0 .2646 49.46 55.39)" d="m121.2 271.7q-3.66 0-5.28-2.94-1.62-3-1.62-8.16 0-5.52 1.8-9.66 1.8-4.2 4.98-6.48 3.24-2.34 7.38-2.34 2.16 0 3.54 0.9t2.16 2.28q0.84 1.32 1.2 2.88 0.42 1.5 0.6 2.76h1.32l-0.48 5.28q0 1.62 0 3.54 0.06 1.86 0.3 3.54 0.3 1.62 0.96 2.7 0.66 1.02 1.92 1.02 1.38 0 2.28-0.66 0.96-0.72 1.8-1.68l0.96 0.96q-0.36 0.54-0.96 1.56-0.6 0.96-1.56 1.98-0.96 0.96-2.34 1.68-1.38 0.66-3.18 0.66-2.1 0-3-1.44-0.84-1.44-0.84-3.66 0-1.08 0.18-2.34t0.3-2.76h-0.48q-1.74 2.82-3.72 5.22-1.92 2.34-3.96 3.78-2.04 1.38-4.26 1.38zm1.32-5.28q2.16 0 4.2-1.2 2.04-1.26 3.66-3.3 1.68-2.04 2.64-4.5t0.96-4.92q0-2.82-1.5-4.08-1.44-1.32-4.32-1.32-4.86 0-7.98 3.06-3.12 3-3.12 9.06 0 3.9 1.68 5.58 1.74 1.62 3.78 1.62zm13.62-9.24-0.24-5.22q1.08-2.76 2.58-5.34 1.56-2.64 2.52-3.96l4.98-0.12 0.06 0.9q-0.48 0.6-1.56 2.04-1.08 1.38-2.4 3.18-1.32 1.74-2.58 3.54t-2.16 3.18q-0.9 1.32-1.2 1.8z" aria-label="α"/></g></g></svg>
