<svg width="1305pt" height="1032pt" version="1.1" viewBox="0 0 1305 1032" xmlns="http://www.w3.org/2000/svg"><g transform="matrix(.1 0 0 -.1 -57 1084)"><path d="m1202 10763-40-78-80-7c-85-7-126-21-119-41 4-12 129-12 169-1 12 4 15 0 11-16-5-18-13-20-74-20-62 0-69-2-69-20s7-20 60-20h61l-15-29c-9-16-18-47-22-70-5-32-3-42 10-47 24-9 43 11 51 54 4 20 13 49 21 64 13 26 19 28 75 28 51 0 60-2 50-14-24-29-61-140-51-150 18-18 40 5 78 84 37 75 37 75 87 83 68 11 76 23 21 31-25 4-46 10-46 14 1 24 23 31 100 34 68 2 85 6 85 18s-16 16-72 18l-72 3 32 59c25 45 29 61 20 71-20 20-39 4-77-65l-37-66h-139l32 64c31 63 32 96 4 96-8 0-32-34-54-77zm126-140c-3-15-16-19-70-21-63-3-66-2-61 18 5 17 13 20 70 20 56 0 64-2 61-17z"/><path d="m1935 10761c-52-33-195-175-195-194 0-37 30-30 75 19 25 26 47 45 50 43 3-3-6-34-20-69s-30-90-37-122c-11-51-10-60 4-74 19-20 53-11 44 11-14 37 85 301 135 361 9 11 8 18-1 29-16 19-19 19-55-4z"/><path d="m2172 10729c-56-11-112-45-112-70s26-24 65 1c68 45 174 31 196-27 10-26 7-31-33-65-24-21-78-57-121-80-108-59-129-76-125-102 3-19 10-21 73-24 84-4 201 13 272 39 50 19 82 44 70 55-3 3-54-5-114-19-116-27-223-43-223-33 0 3 16 13 36 21 50 21 163 97 198 134 24 25 28 35 23 67-13 80-98 123-205 103z"/><path d="m3081 10709c-65-48-78-98-38-145l23-26-23-46c-26-52-29-89-9-137 21-49 46-58 146-53 113 7 150 25 150 76 0 29-27 65-74 97-20 14-52 36-72 50l-36 24 48 33c82 57 105 88 65 88-14 0-18 5-14 19 7 26-33 51-82 51-30 0-52-8-84-31zm123-27 34-18-28-12c-14-7-45-28-68-47-40-35-41-35-55-15-21 30-10 57 32 86 43 29 42 29 85 6zm31-257c48-43 49-45 31-60-11-8-40-15-65-15s-55-3-66-6c-53-14-77 65-41 134l17 33 37-21c20-12 60-41 87-65z"/><path d="m2720 10680c-86-41-93-45-114-73-14-19-21-47-24-93-4-58-2-68 19-91 54-57 132-73 211-43 85 32 148 108 163 197 12 76-26 107-146 118-53 5-72 3-109-15zm169-41c26-9 31-16 31-44 0-49-25-100-67-134-69-57-141-64-197-20-30 24-35 69-12 123 27 65 159 105 245 75z"/><path d="m6031 10481c-37-37-124-175-161-255-103-226-159-469-131-573 22-83 101-157 148-139 13 5 8 13-24 41-22 19-48 50-57 69-47 99 14 390 129 616 15 30 55 95 87 143 54 81 66 117 38 117-5 0-19-9-29-19z"/><path d="m5354 10425c-29-20-61-99-69-170-7-63 0-132 35-330 39-222 28-412-32-585-32-90-50-120-99-170-32-32-34-47-6-64 14-9 24-4 53 27 40 42 54 45 78 18 44-49 48-93 56-576 8-447 11-494 45-607 18-61 30-80 63-97 34-18 36-9 12 44-49 107-57 192-64 635-4 228-11 446-16 483-9 63-51 167-68 167-4 0-15 6-24 14-16 12-15 19 18 106 38 101 64 245 64 357 0 78-22 255-46 368-31 144-18 281 33 337 23 25 31 23 54-17 24-41 59-48 59-12 0 22-24 65-44 79-19 13-81 9-102-7z"/><path d="m13515 10388c-90-260-101-296-92-304 12-13 49 29 72 83 21 46 75 211 75 227 0 12-51 6-55-6z"/><path d="m7812 10342c-18-12-6-35 28-56 43-25 106-113 132-182 17-48 21-82 22-179l1-120-47-95c-25-52-63-114-83-137l-37-43h28c65 0 173 179 193 320 25 183-42 371-167 467-47 36-50 37-70 25z"/><path d="m12323 10288c-6-7-13-26-17-43-8-31-26-75-123-297-60-138-71-193-39-193 14 0 32 32 81 145 34 80 70 168 81 195l19 50 6-76c8-94 20-119 59-119 31 0 57 27 126 135 48 75 53 60 26-78-25-126-34-218-23-236 5-7 17-11 27-9 16 3 20 16 26 83 4 44 18 136 32 205 51 253-7 265-153 33-36-57-61-83-61-63 0 6-5 66-11 133-10 113-19 147-39 147-4 0-12-6-17-12z"/><path d="m8198 10268c-3-7-1-29 3-48 14-58 37-210 44-290 13-143 34-200 75-200 25 0 42 23 118 165 120 222 136 248 185 299 51 54 59 76 27 76-53 0-122-90-235-305-37-71-73-138-80-148-11-16-13-16-19-2-3 9-9 42-12 73-9 100-34 275-47 332-10 44-17 56-34 58-11 2-23-3-25-10z"/><path d="m12854 10256c-3-13-1-41 5-62 6-22 11-77 11-124 1-94 20-258 33-277 5-7 12-13 17-13 17 0 60 54 97 120 69 125 207 276 278 306 36 14 46 40 21 50-59 23-235-141-333-308l-41-71-6 54c-2 30-10 113-15 185-6 72-13 138-17 147-9 26-43 21-50-7z"/><path d="m680 10240c0-19 16-20 1778-24 977-2 1802-7 1832-10 31-4 62-2 70 3 27 18-5 33-87 42-43 4-869 8-1835 8-1744 1-1758 1-1758-19z"/><path d="m10824 10240c-56-22-160-202-193-333-10-38-21-65-24-60-16 25-37 144-37 208 0 78-8 99-36 93-17-3-19-13-18-88 1-151 48-290 98-290 33 0 41 13 65 110 22 90 87 228 134 285 18 22 40 37 62 41 37 7 42 13 23 32-14 14-43 15-74 2z"/><path d="m6277 10213c-4-3-7-15-7-26 0-10-8-31-19-45-55-78-159-311-168-378-6-44-5-46 17-42 19 2 27 15 45 73 12 39 44 115 71 170l49 100 5-65c6-80 12-90 54-90 37 0 71 32 155 144 28 38 51 62 51 55 0-8-11-68-25-133-30-140-33-214-9-223 22-8 30 9 38 74 3 30 20 121 36 201 35 171 35 178 14 186-27 10-66-22-127-102-31-42-73-95-92-117l-34-40-1 121c0 79-4 124-12 132-13 13-31 16-41 5z"/><path d="m3690 10118c0-2-3-289-8-638-9-768-8-1420 2-2240 6-445 5-709-5-955-22-583-20-1398 7-2649 8-390-16-643-70-743-66-120-214-171-461-159-184 9-437 24-670 41-110 8-283 19-385 25-310 18-606 39-795 56-231 21-645 24-698 6-20-8-37-18-37-23s92-9 218-9c210 0 367-8 617-29 147-13 323-25 740-51 176-11 385-24 465-30 80-5 217-14 305-20 357-24 500-13 624 50 85 42 125 102 161 234 23 85 43 286 44 441 3 294-17 1143-31 1355-14 215-15 303-4 725 6 264 16 604 22 755 15 377 15 552 5 1815-7 827-6 1171 3 1385 13 311 4 617-19 645-11 13-30 21-30 13z"/><path d="m9838 10088c-3-7-1-26 4-43 13-48 9-177-7-231-20-66-19-84 4-84 14 0 30 18 52 60 65 122 184 229 210 189 10-15 4-65-13-115-11-31-6-64 9-64s28 16 75 86c32 49 57 76 83 88 20 10 40 15 43 11 4-4 9-59 12-122 4-96 8-118 22-127 13-8 21-7 32 4 22 24-4 254-32 283-19 19-25 19-64 8-24-7-57-24-75-37-31-24-32-24-38-4-4 11-17 28-30 36-22 14-29 14-79 0-44-13-63-26-93-61-43-51-50-46-53 35-3 67-13 95-37 98-11 2-23-3-25-10z"/><path d="m7222 10068c-8-8-12-45-12-103 0-49-4-104-8-120-11-38-5-55 19-55 14 0 26 14 39 46 39 89 146 190 181 169 14-9 6-122-10-138-6-6-11-21-11-34 0-18 6-23 25-23 14 0 25 4 25 9 0 17 113 142 141 157 15 8 31 14 35 14s4-52 0-115c-5-99-4-116 9-122 22-8 24-4 41 68 13 57 13 106-2 176-11 56-85 49-155-14l-39-35v36c0 52-31 80-78 71-51-10-84-29-121-70l-31-36v54c0 47-12 77-30 77-3 0-11-5-18-12z"/><path d="m9160 9940c0-19 7-20 168-20 92 0 174 5 182 10 33 22-18 30-182 30-161 0-168-1-168-20z"/><path d="m11421 9949c-51-10-70-24-55-39 8-8 52-8 145 0 74 5 154 11 179 13 32 1 45 6 45 17 0 13-22 15-135 17-74 0-155-3-179-8z"/><path d="m6720 9920c0-20 4-20 193-18 163 3 192 5 192 18s-29 15-192 18c-189 2-193 2-193-18z"/><path d="m8699 9833c-87-91-119-132-119-153 0-34 34-22 74 26 21 25 40 44 42 42s-10-42-26-88c-30-87-38-154-20-165s37 13 44 56c7 42 50 165 88 250 44 100-1 117-83 32z"/><path d="m11388 9827c-64-10-85-25-58-42 5-3 93 0 195 6 159 11 185 15 183 28-3 13-23 16-128 17-69 1-155-3-192-9z"/><path d="m13305 9808c-32-17-165-151-165-166 0-28 32-24 66 9 19 18 34 28 34 23 0-6-14-49-30-94-27-75-29-86-15-99 23-23 38-1 75 108 17 52 45 121 62 152 37 71 27 97-27 67z"/><path d="m6662 9764c-39-20-81-46-92-57-20-17-20-21-7-35 14-14 19-13 42 2 36 23 41 15 21-35-17-42-13-83 7-77 7 2 26 31 42 65 17 34 47 80 68 104 68 75 30 90-81 33z"/><path d="m12697 9733c-34-50-43-71-35-80 6-7 17-13 25-13 11 0 12-9 7-37-4-21-11-48-15-61-14-36-11-84 3-80 24 8 49 67 80 187 25 98 28 124 18 136-21 26-35 17-83-52z"/><path d="m10780 9740c0-17 8-19 67-22 96-4 97-25 2-72-39-20-80-36-90-36-30 0-49-12-49-31 0-32 34-39 187-39 125 0 152 3 173 18 24 17 22 17-100 22l-125 5 57 32c79 45 97 84 58 123-17 17-33 20-100 20-73 0-80-2-80-20z"/><path d="m1090 9684c-6-14-10-29-10-34s-6-13-14-17c-13-8-58-118-117-288-15-44-37-106-49-137-36-91-5-122 49-48 35 48 69 131 112 270l33 105 12-60c12-60 39-95 72-95 28 0 85 47 151 125 35 41 65 74 67 72 1-1-4-31-12-67-69-314-75-354-50-363 24-9 32 11 61 153 15 74 36 173 46 220 24 110 24 146 2 155-14 5-47-24-140-122-67-70-125-124-129-121-12 13-23 91-24 170 0 42-3 83-6 92-10 25-43 19-54-10z"/><path d="m2365 9643c-10-16-26-35-36-43-22-17-67-133-115-298-54-181-58-277-12-270 16 2 25 14 34 48 7 25 20 70 29 100 10 30 31 118 47 195 17 77 37 149 44 160 12 17 14 6 15-90 0-127 13-174 50-192 55-27 123 28 174 140 13 28 24 47 24 41 1-18-59-313-70-340-5-14-9-37-9-50 0-41 40-28 56 18 11 33 71 318 88 420 9 53-2 88-28 88-24 0-45-30-100-141-43-88-101-153-116-129-5 8-10 86-10 173 0 156-7 197-34 197-8 0-22-12-31-27z"/><path d="m1491 9163c-15-32-41-97-57-145-23-71-26-90-15-100 18-19 45 18 72 100 12 37 32 88 45 114 30 59 31 88 4 88-14 0-28-16-49-57z"/><path d="m2700 9143c0-14 10-21 42-29 29-6 44-15 46-27 5-25-43-93-84-118-63-39-53-93 19-104 70-11 141-2 145 16 2 14-11 18-74 24l-78 7 41 34c114 95 111 200-5 212-46 4-52 2-52-15z"/><path d="m13569 9133c-15-40-69-280-69-309 0-79 59 34 89 172 11 50 25 102 30 116 7 18 6 29-2 37-19 19-37 12-48-16z"/><path d="m5980 9112c-100-63-190-199-273-412-29-74-57-245-57-348 0-73 27-180 59-233 16-25 76-79 89-79 2 0-6 16-18 37-47 79-70 178-70 297 0 178 33 304 130 496 39 78 123 176 176 209 43 26 54 53 24 59-8 1-36-10-60-26z"/><path d="m7964 9026c-3-8 4-46 17-83 48-142 23-395-52-530-34-62-36-73-9-73 13 0 31 16 51 48 88 138 116 421 57 582-23 65-51 89-64 56z"/><path d="m13238 9008c-43-46-134-189-175-274-18-40-41-78-50-85-14-12-15-10-9 16 6 31 21 132 33 217 5 39 3 49-11 54-10 4-21 3-26-2-11-11-60-301-60-354 0-110 92-32 185 157 53 108 137 228 162 231 26 4 39 37 23 57-19 23-39 18-72-17z"/><path d="m6182 9008c-7-7-12-18-12-25s-16-62-35-121c-19-60-39-131-45-158-5-27-21-89-34-138-26-94-25-116 5-116 23 0 26 6 80 196 23 82 45 153 49 157 4 5 11-13 15-40 19-131 97-126 167 11 32 63 32 30-2-104-42-171-39-230 12-230 23 0 36 29 18 40-15 9-9 49 37 230 60 238 63 280 19 280-17 0-37-27-96-131-41-71-79-131-85-132-11-2-19 41-34 173-12 108-29 138-59 108z"/><path d="m10936 8907c-47-49-112-161-151-259-15-38-31-65-36-63-17 11-51 141-55 215-8 111-11 122-37 118-18-2-23-10-25-48-4-58 13-157 44-250 29-85 47-110 80-110 26 0 42 25 86 136 48 116 139 257 162 248 7-3 19 2 26 11 10 12 10 18 0 30-21 26-51 17-94-28z"/><path d="m1823 8923c-4-9-1-19 5-21 19-6 14-31-13-79-14-23-21-43-15-43 28 0 73 34 86 65 18 45 18 51-6 75s-48 26-57 3z"/><path d="m8477 8858c-30-46-68-119-86-163-37-92-60-136-61-116-1 46-21 300-26 319-3 14-12 22-24 22-28 0-35-42-22-122 7-38 12-103 13-146 0-42 6-99 13-127 10-44 14-50 36-50 20 0 31 11 57 60 18 33 47 96 64 140 34 84 84 170 119 205 26 26 22 54-7 58-19 3-32-12-76-80z"/><path d="m12389 8898c-7-13-23-36-35-51-23-27-45-70-129-252-45-96-50-139-18-143 28-4 61 45 106 158 18 47 43 103 55 125l21 40 1-37c0-78 31-117 91-118 41 0 93 33 152 98 20 23 37 39 37 36s-14-45-31-92c-16-48-31-109-32-137-2-47-1-50 23-50 21 0 25 5 27 30 2 44 20 106 64 223 43 112 49 156 22 166-12 5-32-10-72-56-117-132-160-169-189-166-27 3-27 3-30 112-1 61-8 116-14 123-16 20-36 16-49-9z"/><path d="m10017 8813c-4-3-7-54-7-113s-5-122-11-139c-10-27-9-36 4-48 19-20 34-10 52 32 16 40 97 119 138 136 22 9 31 9 40 0 14-14 16-105 4-138-6-17-3-24 13-33 18-10 23-7 38 22 9 18 42 58 73 89 57 58 105 81 120 57 13-20 10-80-6-134-20-67-19-76 7-72 14 2 29 15 37 33 19 40 27 166 12 194-29 53-113 43-185-20l-44-39-7 28c-20 79-97 88-181 21l-39-31-3 68c-2 38-8 74-14 81-11 14-31 17-41 6z"/><path d="m7236 8738c-3-13-7-58-10-100-2-46-13-95-25-123-27-60-27-85-2-85 13 0 33 20 58 58 76 116 193 208 210 166 3-9 1-42-6-73s-14-68-17-82c-4-19-1-28 11-33 13-5 39 17 104 85 86 92 157 149 184 149 21 0 27-31 27-146 0-81 3-104 16-115 14-11 18-10 31 6 22 29 10 239-16 275-39 54-107 32-213-68l-68-64v45c0 29-7 53-19 68-17 22-21 22-62 10-50-15-102-44-130-74-19-21-19-20-19 39s-11 84-37 84c-7 0-15-10-17-22z"/><path d="m11400 8701c0-14 9-25 26-31 33-13 345-13 364 0 29 19-10 27-173 33-89 4-174 10-189 13-24 5-28 3-28-15z"/><path d="m9160 8663c0-19 9-21 108-27 59-3 143-9 187-12 67-5 83-4 94 10 11 13 10 17-12 25-14 6-105 13-201 17-172 7-176 7-176-13z"/><path d="m13240 8636c-46-17-50-53-5-47 76 8 80 7 83-22 2-16-2-35-8-42-11-14-162-101-203-117-10-5-17-16-15-25 7-38 175-26 267 20 43 21 71 50 60 62-3 3-45-9-94-25-48-17-90-29-92-26-3 3 17 16 44 29 70 36 98 70 98 119 0 32-6 45-28 64-31 27-55 29-107 10z"/><path d="m6705 8629c-15-24 17-29 151-27 116 3 139 6 139 18s-24 15-142 18c-96 2-144-1-148-9z"/><path d="m11026 8551c-16-31-66-261-66-304 0-28 23-42 38-24 6 7 22 71 36 144 15 73 31 144 36 158 15 39 12 55-10 55-11 0-26-12-34-29z"/><path d="m11490 8571c-51-5-66-10-68-24-5-26 15-29 149-18 128 10 199 25 199 41 0 11-168 11-280 1z"/><path d="m8496 8547c-12-9-17-20-13-31 5-13 15-15 46-10 37 6 41 4 52-20 17-38-2-68-77-122-110-78-131-124-69-150 67-28 247 8 291 58 19 21 19 21-11 15-16-3-65-12-108-21-90-18-147-21-147-6 0 5 34 35 75 65 105 78 132 143 82 200-27 32-92 44-121 22z"/><path d="m6460 8460c0-17 6-20 45-20 25 0 45-4 45-8s-29-37-65-72c-77-77-84-103-29-126 50-21 207-16 212 7 2 13-12 17-89 22-51 4-95 9-97 12-3 3 23 34 57 70 54 56 62 69 59 97-3 33-3 33-70 36-63 3-68 1-68-18z"/><path d="m12763 8328c-13-6-23-20-23-31 0-18 5-19 45-14 53 8 57-3 14-35-60-45-79-67-79-91 0-32 15-37 110-37 54 0 81 4 89 14 15 18-5 26-62 26-61 0-76 13-41 35 40 23 86 90 82 118-3 19-9 22-58 24-30 1-65-3-77-9z"/><path d="m1413 8308c-19-21-66-105-186-328-54-100-99-149-121-131-7 6-19 24-25 39-15 38-59 263-67 344-7 69-22 95-48 85-22-9-32-94-13-115 8-9 17-41 21-70 12-91 53-258 71-290 59-99 142-53 239 130 105 200 158 288 171 288 19 0 29 38 15 55-17 21-33 19-57-7z"/><path d="m2593 8248c-33-35-116-168-191-306-25-45-49-79-54-74s-22 53-38 108c-16 54-36 122-46 149-9 28-18 56-20 63-4 16-41 16-46 0-10-29 110-387 134-402 25-15 56 18 108 116 24 46 56 101 71 123s45 72 68 112c43 76 61 95 61 68 0-25 24-12 34 18 7 18 6 30-4 41-19 24-43 19-77-16z"/><path d="m1501 7933c-71-83-89-153-41-153 14 0 22 11 30 39 5 21 17 44 25 51 18 15 19 3 4-37-14-36-29-151-22-170 3-8 15-13 27-11 18 3 22 12 27 63 3 33 14 84 23 113 26 78 12 152-29 152-2 0-22-21-44-47z"/><path d="m2652 7929c-23-7-32-15-30-27 3-14 13-16 51-14 55 3 87-11 87-39 0-36-18-57-100-115-44-32-80-64-80-71 0-31 180-74 219-53 27 14 20 27-22 35-17 3-51 11-74 16l-41 11 61 47c72 53 104 106 90 148-18 53-93 82-161 62z"/><path d="m1873 7732c-7-5-11-35-10-88s-3-90-12-107c-18-33-12-41 23-27 36 13 48 52 44 132-4 69-21 104-45 90z"/><path d="m10933 7588c-66-68-169-292-194-420-14-71-6-175 17-220 30-60 74-98 113-98h35l-41 43c-72 74-93 148-73 258 21 117 126 346 187 411 26 27 26 58 0 58-7 0-27-15-44-32z"/><path d="m12667 7493c-16-16-3-32 57-70 112-72 189-191 208-323 14-92 6-130-44-204-29-45-62-71-149-119-26-15-30-20-18-28 36-23 138 27 193 94 55 68 76 122 76 202 0 167-87 322-234 417-59 38-77 44-89 31z"/><path d="m7487 7403c-16-19-95-182-128-266-30-74-71-238-65-254 3-8 16-13 28-11 17 2 24 12 30 43 14 67 78 253 117 337l37 80 13-84c21-142 32-178 56-194 36-24 65-4 110 75 22 39 55 94 72 123l33 53v-45c0-25-5-110-10-189-9-147-5-181 25-181 19 0 23 21 29 160 3 63 9 154 12 201 9 114 0 159-29 158-24 0-70-66-162-228-55-95-60-94-76 21-5 40-14 101-18 135-5 34-12 66-16 72-10 17-40 13-58-6z"/><path d="m8701 7351c-81-81-167-191-221-284l-45-77-6 202c-3 112-6 204-7 206s-12 2-24 0c-23-3-23-3-26-238-1-129 0-245 3-258 4-18 11-23 33-20 22 2 35 17 71 78 97 167 150 239 243 334 54 54 95 102 92 107-15 25-57 6-113-50z"/><path d="m11357 7358c-30-24-116-139-169-228-34-58-56-86-62-80s-12 67-13 138c-5 161-7 174-36 170-21-3-22-6-22-133 1-181 31-277 82-261 10 3 49 58 87 121 64 109 142 216 175 241 16 13 8 44-12 44-7 0-21-6-30-12z"/><path d="m6104 7283c-43-104-59-258-30-282 21-18 32 9 40 97 3 40 16 100 27 133s18 66 15 74c-10 27-35 16-52-22z"/><path d="m12425 7286c-45-20-70-47-185-203l-105-142-2 137c-3 169-7 184-36 180-22-3-22-6-25-163-1-88 0-170 3-182 6-27 45-39 75-23 11 6 73 81 136 165 113 152 153 195 181 195 9 0 13 8 11 22-4 27-16 30-53 14z"/><path d="m11824 7252c-12-8-30-54-39-99l-7-33h-79c-72 0-79-2-79-20s7-20 75-20h74l-6-65c-4-45-2-69 7-80 26-31 37-16 44 57 4 40 10 76 15 81 4 4 31 10 59 14 29 3 60 12 69 19 29 22-2 36-66 28l-54-6 8 39c15 78 9 106-21 85z"/><path d="m9950 7214c-6-14-10-29-10-34s-16-59-35-120c-19-62-33-116-29-121 13-22 44-5 85 46 42 53 176 157 227 176 35 14 44-4 38-74-8-81 10-85 77-19 53 52 142 106 158 96 12-7 11-82-1-166-11-78-6-100 24-96 18 3 22 12 28 70 3 37 9 72 13 78s4 38 0 72c-9 75-32 102-78 93-37-8-112-48-144-78-23-20-23-20-23 2 0 55-45 87-100 71-18-5-72-37-121-70-49-34-89-60-89-58s7 28 15 58c21 77 20 100-5 100-13 0-24-10-30-26z"/><path d="m9280 7160c0-19 7-20 168-20 92 0 184-5 206-9 43-11 66-5 66 15 0 24-73 34-257 34-176 0-183-1-183-20z"/><path d="m8741 7039c-52-39-81-67-81-80 0-26 41-25 65 1 26 28 36 25 24-9-6-16-9-51-7-77 2-41 6-49 24-52 19-3 22 3 27 56 3 37 17 85 36 125 17 36 31 69 31 75 0 8-22 22-35 22-2 0-40-27-84-61z"/><path d="m5743 7068c-11-13-87-123-168-245-82-123-152-223-156-223-15 0-29 66-49 224-24 192-31 220-54 224-28 6-37-10-26-48 5-19 18-107 29-195 19-152 40-231 65-247 22-15 63-8 83 15 11 12 87 122 168 244 122 184 151 221 162 211 11-9 17-9 24 3 31 50-37 82-78 37z"/><path d="m8050 7054c-54-31-64-44-45-63 12-12 18-12 40 3 15 10 28 16 30 14s-10-36-27-77c-33-84-35-136-3-136 14 0 21 10 27 38 4 21 24 76 43 123 28 67 33 89 25 104-14 26-36 25-90-6z"/><path d="m11324 7003c-17-42-38-225-29-261 4-17 12-22 28-20 21 3 22 9 28 108 3 58 11 121 19 141 25 69-17 98-46 32z"/><path d="m12445 7036c-5-3-22-7-37-10-19-5-28-13-28-27 0-19 4-20 61-13 55 6 61 5 58-11-2-9-43-38-94-65-63-34-90-54-90-67 0-16 10-18 110-17 61 0 136 4 168 8 49 6 57 10 57 28 0 20-4 21-87 15-49-4-99-9-113-12-18-4-14 0 15 17 87 51 114 97 76 132-18 16-76 29-96 22z"/><path d="m1555 6980c-4-7-8-79-9-162-1-116 1-151 11-155 8-3 52 32 101 79 90 87 152 119 200 104 32-11 39-82 14-139-15-33-17-48-9-56 18-18 27-13 68 33 42 47 162 116 203 116 36 0 41-30 26-146-13-109-8-124 44-124 48 0 120 28 146 56l23 24h-25c-14 0-45-7-68-15-73-26-71-28-64 94 7 108 7 109-19 135-36 36-78 33-167-11-41-21-78-39-82-41-5-2-8 8-8 22 0 44-19 76-54 93-33 15-39 15-103-2-52-14-78-28-114-62-25-24-49-43-52-43-4 0-8 46-9 103-3 96-4 102-25 105-11 2-24-2-28-8z"/><path d="m6287 6794c-38-38 47-54 296-54 194 0 227 4 227 30 0 4-102 10-227 14-126 4-242 9-258 12-17 3-33 2-38-2z"/><path d="m8688 6714c-9-8-929-27-1113-23-77 2-223 4-325 4-158 0-185-2-185-15s33-16 200-24c296-13 468-13 1130 4 390 10 875 14 1385 12 432-2 1349-4 2037-5l1252-2 23 22c12 12 20 24 17 27-2 2-50 0-107-6-98-9-768-7-3337 8-534 3-974 2-977-2z"/><path d="m6400 6647c0-32 42-41 200-45 148-4 210 4 210 26 0 5-69 12-152 16-84 3-177 9-205 12-44 5-53 4-53-9z"/><path d="m5794 6526c-34-34-59-67-57-73 7-19 43-16 66 5 19 16 19 16 12-8-4-14-18-51-31-82-31-74-32-111-3-106 22 3 28 16 94 198 19 52 32 103 29 112-10 32-48 16-110-46z"/><path d="m9476 6447c-21-23-59-78-84-122s-54-92-64-107c-38-55-88-151-88-168 0-22 26-33 41-17 12 14 137 221 173 287 52 96 55 96 56-10 0-109 12-136 64-145 51-10 96 15 190 106 48 45 86 80 86 77 0-2-16-66-35-141-41-161-45-207-15-207 11 0 22 6 24 13 2 6 18 71 35 142 17 72 40 161 51 199 20 70 15 106-13 106-7 0-51-39-97-86-110-111-176-164-206-164-24 0-24 0-24 118 0 64-3 127-6 140-10 34-44 26-88-21z"/><path d="m10076 6123c-35-53-96-244-96-299 0-41 2-45 22-42 18 2 24 13 33 63 15 75 60 210 86 251 25 41 24 64-1 64-12 0-30-15-44-37z"/><path d="m1025 5830c-3-5-3-14 0-20 8-14 2304-14 2325 0 13 9 13 11 0 20-21 14-2317 14-2325 0z"/><path d="m2520 5471c-47-9-89-38-96-66-9-36 14-103 37-110 30-10 45 9 32 37-30 63-13 88 66 96 103 10 201-48 201-118 0-44-21-69-160-186-143-122-174-160-144-185 12-10 20-6 43 22 16 19 66 66 112 104 197 167 215 190 205 258-12 74-54 112-155 143-49 15-84 16-141 5z"/><path d="m1716 5412c-3-5-10-37-16-73-6-35-19-98-29-139-19-78-18-100 5-100 19 0 29 23 54 120 28 109 31 193 8 198-9 2-19-1-22-6z"/><path d="m980 5325c-9-11-10-30-6-63 4-26 11-101 16-167 16-203 22-254 35-265 20-17 38-2 83 69 24 37 90 115 146 174 95 100 105 107 137 105 30-3 34 0 37 23 4 33-15 41-65 28-28-8-62-35-129-102-49-51-109-115-131-144l-41-52-6 32c-3 18-10 102-16 187s-13 163-16 173c-7 21-27 22-44 2z"/><path d="m5020 5239c-8-14-8-24-1-33 36-43 38-550 6-1106-8-135-19-364-25-510s-15-305-21-353c-8-65-8-96 0-115 12-29 61-62 91-62 17 0 19-16 23-247 3-137 11-369 18-518 16-314 16-741-1-835-16-96-26-655-11-664 6-4 11-25 11-47 0-53 22-104 56-126 26-16 64-19 419-25 398-7 656-18 870-38 66-7 179-16 250-22 112-9 6410-24 6417-16 1 2 6 282 10 623s10 841 13 1110c7 585-1 787-35 858-27 57-58 76-96 58-26-11-26-11-19 29 6 36 5 40-14 40-23 0-51-35-51-63 0-18-17-19-567-12-975 12-2302 10-2608-4-154-7-467-16-695-21-444-10-713-20-1040-42-139-9-322-11-565-8-455 6-1202 4-1725-5-423-8-614 2-673 32-28 14-29 15-23 86 3 40 10 185 15 322 5 138 14 320 20 405s15 283 21 440c5 157 12 310 15 340 6 66-10 448-19 471-6 14 129 17 1521 24 2777 16 3072 14 4203-26 151-6 628-14 1060-19 899-11 1050-19 1050-57 0-8 11-24 25-35 47-37 57-136 30-313-18-114-39-770-40-1205v-275h50l7 345c14 693 27 1096 38 1150 14 70 14 229 0 266-15 38-59 84-82 84-10 0-15 5-12 13s-1 18-8 24c-36 29-132 34-878 43-421 5-814 12-875 15-60 4-249 10-420 15-170 5-494 14-720 20-267 7-812 9-1560 6-632-3-1658-9-2279-12-793-4-1132-2-1139 5-16 16-25 14-37-10zm7370-2112c327-1 609 0 625 3 27 4 32 1 50-35 19-39 20-59 19-680-1-352-5-913-9-1247l-7-608h-2992c-1932 0-3041 4-3131 10-77 6-196 15-265 20s-219 16-335 25c-115 9-415 19-665 24-478 8-495 10-505 54-23 105-26 619-5 842 16 168 15 353 0 645-6 96-13 330-17 520l-6 345h484c266 0 687 2 934 5 248 2 610 1 805-4 234-5 435-4 590 4 129 6 323 15 430 20s285 14 395 19c110 6 292 11 405 11 186 0 352 5 870 29 96 5 526 7 955 4 429-2 1048-5 1375-6z"/><path d="m6250 2236c-37-98-64-376-38-392 18-11 38 26 38 72 0 47 36 261 49 297 6 16 6 28-2 36-18 18-37 13-47-13z"/><path d="m10317 2095c-96-194-148-375-166-584-17-200 28-375 101-394 15-4 18-2 13 11-56 133-73 262-56 420 19 178 104 462 150 502 21 18 61 110 61 139 0 15-6 21-23 21-19 0-32-18-80-115z"/><path d="m9830 2171c-47-15-115-54-162-93-50-42-68-42-68-2 0 38-18 64-44 64-65 0-123-40-194-132-19-26-38-46-40-44-2 3 6 36 18 75 22 68 22 101 1 101-6 0-18-12-27-26-21-31-83-253-76-271 11-31 45-9 114 74 113 134 141 162 172 169l29 7-7-72c-5-58-3-73 8-77 15-6 80 36 150 98 40 35 137 88 163 88 7 0 15-16 19-36 5-27-1-56-25-122-40-110-40-106-14-110 25-4 42 24 74 116 27 80 25 147-6 177-25 26-42 29-85 16z"/><path d="m7938 2117c-34-29-132-227-208-420-13-32-27-54-31-50-11 11-48 190-63 303-10 75-14 85-32 88-12 2-24-4-27-12-12-31 51-374 79-427 31-61 78-34 119 68 41 101 147 335 162 359 9 14 21 20 32 17 24-6 35 11 27 42-8 32-38 48-58 32z"/><path d="m5943 2088c-12-13-32-50-46-83-50-120-120-271-145-314l-26-45-17 117c-22 154-37 212-61 242-26 33-63 33-84-1-16-23-16-27-1-41 13-13 19-14 31-4 13 11 17 11 20 0 12-36 26-104 41-209 20-140 36-183 67-178 36 5 106 132 224 408 13 30 24 51 24 46s7-3 15 4c18 15 20 51 3 68-16 16-21 15-45-10z"/><path d="m12344 2005c-4-10 11-34 39-64 78-83 117-190 117-322 0-148-108-372-252-520-54-56-59-64-41-67 36-5 77 24 135 95 89 109 164 254 203 387 19 67 15 155-12 260-20 82-47 131-106 193-51 54-73 64-83 38z"/><path d="m10616 1988c-3-7-10-29-16-48-7-19-17-126-23-236-12-223-6-259 40-270 32-8 42 2 112 122 79 135 118 197 173 277 50 70 55 82 38 92-24 15-80-47-156-175-12-19-51-84-88-145l-68-110 5 190c3 125 10 208 20 242 11 37 12 54 4 62-15 15-37 14-41-1z"/><path d="m11999 1878c-26-27-70-104-121-208-44-91-85-171-92-179-8-11-12 31-16 179-4 171-7 194-23 204-33 20-38-10-35-214 3-168 6-200 21-223 41-63 82-21 180 182 88 185 124 241 155 241 20 0 23 4 20 28-5 45-42 42-89-10z"/><path d="m6890 1834c-14-2-59-9-100-15-101-14-110-17-110-40s2-23 138-4c59 8 146 17 195 21 88 6 97 10 75 32-11 11-135 15-198 6z"/><path d="m11271 1783c-5-21-11-49-13-63-3-23-8-26-83-35-72-9-80-12-83-33-3-22-1-22 55-17 32 4 68 8 81 11 22 4 22 4 16-93-6-82-4-100 9-111 22-19 33 5 41 93 11 114 9 111 79 121 45 7 62 13 62 24s-15 16-63 18l-62 3 6 42c4 23 7 44 6 47 0 24-5 30-22 30-14 0-22-10-29-37z"/><path d="m9776 1753c-4-4-134-9-289-12-242-5-282-8-282-21s32-15 220-18c121-2 303 2 403 7 174 10 221 19 206 42-6 11-247 12-258 2z"/><path d="m6895 1725c-118-16-135-22-135-47 0-18 5-20 38-15 20 3 80 11 132 17 119 14 152 22 157 36 9 26-53 28-192 9z"/><path d="m8280 1720c0-19 7-20 168-20 92 0 174 5 182 10 33 22-18 30-182 30-161 0-168-1-168-20z"/><path d="m6009 1631c-61-19-89-42-89-73 0-25 23-22 66 7 44 30 70 32 79 5 9-29-19-80-75-135-67-66-66-87 3-103 96-22 158-9 183 39 13 26 13 30 0 35-9 3-27-4-42-15-27-21-107-30-118-13-3 4 13 25 34 45 69 68 88 141 49 191-21 27-43 31-90 17z"/><path d="m10924 1612c-26-18-64-184-64-282 0-46 4-62 16-67 21-8 34 14 34 59 0 20 10 83 21 140 12 57 22 114 23 127 1 25-12 36-30 23z"/><path d="m7920 1560c0-18 7-20 53-20 41 0 58-5 72-20 30-33 1-78-90-140-41-28-75-55-75-60s14-17 32-26c25-13 48-15 117-9 92 7 151 21 151 36 0 16-50 22-128 15-44-4-73-3-67 1 6 5 27 22 48 37 79 58 99 131 49 179-25 24-36 27-95 27-60 0-67-2-67-20z"/><path d="m12035 1532c-21-5-31-14-33-31-4-22-2-23 45-16 41 5 51 3 71-15 47-44 19-98-85-165-49-32-73-53-71-64 9-47 271 4 306 59 16 26-1 26-92 0-38-11-71-18-73-16s8 11 21 20c14 9 37 36 52 62 24 41 26 49 15 84-19 63-85 98-156 82z"/><path d="m9385 1430c-41-80-119-332-119-390-1-42 1-45 24-45s25 5 31 55c3 30 23 109 45 175l39 120 6-92c6-97 22-136 60-148 34-11 68 22 134 131 69 115 77 109 52-40-25-147-29-233-10-251 28-29 38-11 44 86 4 52 14 132 23 178 24 124 20 213-9 225-24 9-60-30-120-131-32-54-68-111-79-127-18-27-20-28-27-10-4 10-8 67-8 126-1 81-5 110-16 122-8 8-15 22-15 30 0 28-38 18-55-14z"/><path d="m9828 1148c-17-6-28-17-28-29 0-17 6-18 74-13 51 5 75 3 80-5 5-7-23-42-68-88-77-77-88-100-61-127 22-22 70-28 184-24 88 3 103 6 123 25 12 12 19 25 16 28-3 4-30 2-60-3-59-10-218-4-218 8 0 5 24 29 53 55 92 83 108 127 61 164-29 23-107 28-156 9z"/><path d="m1840 5060c0-20 5-20 138-18 114 3 137 6 137 18s-23 15-137 18c-133 2-138 2-138-18z"/><path d="m1351 4825c-64-68-91-103-91-120 0-42 32-29 79 31 24 30 45 53 48 50s-2-26-11-52-16-58-16-70c0-23 20-37 36-26 12 9 84 224 84 250 0 16-17 32-35 32-1 0-44-43-94-95z"/><path d="m6364 4872c-13-9-48-94-64-157-7-27-21-79-31-114-20-66-25-156-10-165 15-10 29 16 45 84 36 144 56 217 77 272 26 69 18 105-17 80z"/><path d="m10470 4748c-44-78-91-203-106-288-20-108-29-401-15-475 19-99 100-195 165-195 25 0 19 23-13 44-44 30-88 104-101 171-9 40-10 103-6 190 13 256 35 352 113 509 19 37 32 74 29 82-11 28-36 13-66-38z"/><path d="m9224 4705c-13-32-70-224-87-296-7-29 13-56 33-44 6 3 32 39 59 78 62 91 135 167 161 167 18 0 20-6 20-84 0-65 4-87 16-97 15-12 20-10 43 20 67 88 104 121 158 141 61 23 89 20 98-11 11-34-5-109-36-171-35-69-37-98-9-98 16 0 30 19 60 82 34 69 40 92 40 144 0 84-26 117-91 117-55 0-144-40-183-82-34-35-46-28-46 30 0 43-15 59-53 59-44 0-93-28-137-78-22-25-40-41-40-36s12 45 26 88c13 44 23 85 20 93-10 25-37 13-52-22z"/><path d="m12363 4664c-4-11 17-39 64-87 154-158 206-256 225-430 10-90 9-111-6-172-23-93-81-178-159-235l-61-45 33-3c77-8 203 128 236 254 41 159-3 388-102 521-49 66-195 213-211 213-7 0-15-7-19-16z"/><path d="m6019 4647c-44-38-92-105-202-287-124-203-140-225-156-216-47 29-96 305-79 446 2 19-2 26-19 28-42 6-54-95-28-253 31-192 75-279 138-273 40 4 81 57 217 283 112 186 156 241 176 224s42 34 24 56c-17 21-41 19-71-8z"/><path d="m7713 4483c-34-59-73-133-88-163-37-74-112-190-124-190-24 0-77 217-88 357-3 39-10 77-14 85-13 20-43-3-47-35-4-31 33-250 55-327 31-110 77-161 122-133 25 15 87 113 172 272 54 101 82 145 93 143 17-3 30 32 24 69-2 15-11 25-24 27-16 2-31-17-81-105z"/><path d="m2437 4559c-25-29-18-62 16-73 36-13 61 2 65 38 7 53-46 76-81 35z"/><path d="m10754 4529c-11-19-26-251-20-327 9-115 54-194 100-176 17 7 69 84 86 129 42 110 145 274 201 318 21 17 30 30 26 41-10 24-32 19-72-16-66-57-130-158-210-330-20-43-40-78-45-78-19 0-30 80-30 215 0 77 4 157 9 177 6 24 5 40-2 47-14 14-34 14-43 0z"/><path d="m11737 4493c-11-10-8-449 3-478 26-69 92-34 176 95 34 53 78 129 99 170s53 96 72 123c29 39 33 50 23 62-7 8-18 15-25 15-15 0-72-85-120-180-43-86-134-229-158-249-16-12-17 2-17 206 0 157-3 222-12 231-13 13-31 16-41 5z"/><path d="m11441 4346c-10-12-30-112-31-153 0-10-24-13-85-13-78 0-85-2-85-20s7-20 80-20h80v-64c0-44 5-67 15-76 12-10 16-8 25 15 5 14 10 49 10 76v49h51c57 0 89 13 89 36 0 13-10 15-65 9l-66-7 7 43c3 24 10 61 14 81 10 49-13 75-39 44z"/><path d="m6500 4322c0-18 10-20 198-25 108-4 208-8 222-9 30-4 40 26 13 37-10 5-111 10-225 13-202 4-208 3-208-16z"/><path d="m8905 4249c-4-6-3-15 2-20s221-8 529-7c453 3 519 5 519 18s-66 15-522 18c-370 1-524-1-528-9z"/><path d="m8160 4200c0-20 5-20 177-18 160 3 178 5 181 21s-11 17-177 17c-175 0-181-1-181-20z"/><path d="m6560 4180c0-20 4-20 218-18 185 3 217 5 217 18s-32 15-217 18c-214 2-218 2-218-18z"/><path d="m9254 4133c-48-107-174-490-174-527 0-10 8-16 23-16 20 0 27 13 60 113 20 61 46 144 57 182 11 39 32 103 48 144 35 90 42 78 42-77 0-128 14-165 63-160 27 3 40 15 84 77 29 40 53 67 53 60 0-8-7-45-15-84-30-146-18-290 25-290 11 0 15 24 16 130 2 110 8 151 36 266 35 138 36 179 4 179-14 0-57-61-136-193-63-105-67-104-75 25-4 62-12 138-19 168-11 49-16 55-39 58-25 3-30-2-53-55z"/><path d="m11103 4178c-29-39-62-257-44-287 5-7 17-11 27-9 16 3 20 16 26 98 4 52 14 113 22 135 19 53-3 99-31 63z"/><path d="m7943 4133c-20-7-143-170-143-188 0-30 31-29 56 1 29 36 29 33 5-37-22-62-30-164-14-180 6-6 21-8 33-4 19 6 21 12 17 44-8 48 4 96 53 221 32 84 39 109 31 128-11 22-16 24-38 15z"/><path d="m5988 4058c-48-59-92-144-85-162 8-21 33-20 47 2 9 13 10 10 4-18-13-66-10-85 12-88 16-2 23 6 36 50 9 29 28 93 43 141 22 70 25 91 15 102-20 24-35 18-72-27z"/><path d="m12130 4074c-58-19-90-39-90-56 0-22 19-23 67-3 19 8 47 15 60 15 24 0 25-1 11-22-8-12-37-38-64-56-64-45-65-66-1-70 92-6 237 51 237 93 0 10-20 6-80-16-44-16-83-29-86-29s8 16 25 35c17 20 31 47 31 60 0 41-57 66-110 49z"/><path d="m1676 4008c-2-7-9-42-15-78s-16-88-23-116c-13-59-6-93 17-74 28 23 82 224 69 262-6 20-43 25-48 6z"/><path d="m2564 3971c-51-13-101-49-108-77-9-33 17-74 45-74 17 0 19 6 17 37-3 34 0 40 32 55 59 30 210 19 210-15 0-5-31-41-69-81-109-113-190-215-202-255-6-20-9-54-7-76 2-32 7-40 23-40 14 0 21 8 23 25 8 74 17 95 73 165 33 42 91 109 128 148 102 108 108 130 45 172-30 19-159 29-210 16z"/><path d="m1018 3888c-3-7 6-60 18-118s25-132 29-165c8-77 25-203 31-232 5-28 35-30 56-5 9 9 43 72 77 139 67 132 145 256 179 287 29 25 29 66 1 66-34 0-113-109-207-289-67-128-66-128-82 19-6 52-21 142-33 200-20 90-26 105-44 108-11 2-23-3-25-10z"/><path d="m9723 3769c-75-80-100-127-74-143 17-11 36 4 60 47 33 56 37 33 11-56-27-91-24-141 8-145 21-3 27 6 23 36-1 7 9 52 23 100 32 112 39 156 32 180-12 38-34 33-83-19z"/><path d="m1763 3583c-8-21 12-31 82-38 79-9 147-3 153 12 6 19-33 30-136 36-78 5-94 3-99-10z"/><path d="m1298 3343c-10-2-18-14-18-25 0-19 4-20 46-14 52 7 114-16 114-41 0-20-51-67-132-120-68-45-76-55-58-83 7-12 28-15 98-13 99 3 142 14 142 39 0 15-10 16-86 11l-87-6 45 28c141 90 169 164 78 212-33 18-100 23-142 12z"/><path d="m2433 3243c-18-7-16-43 2-43 8 0 24-5 34-12 22-13 51-5 51 16 0 11-58 48-72 45-1 0-9-3-15-6z"/></g><g transform="matrix(.06652 0 0 -.06652 -28.54 1042)" fill="#44b" stroke-width="1.227"><path d="m750 2973c-57-10-88-25-119-57-40-41-55-100-46-179 6-45 12-61 32-77 32-25 35-25 64-1 22 17 24 26 21 89-4 105 24 120 164 87 33-7 119-19 190-25 88-8 134-16 144-26 32-32 8-420-28-456-18-18-126-28-289-28-185 0-206-4-250-52-55-58-58-82-55-363 1-145 7-274 13-293 11-34 51-62 89-62 12 0 35 14 52 31l31 30-6 238c-3 130-3 249 0 264l5 27h112c234 1 363 26 423 82 58 54 98 260 91 463-4 122-7 138-34 191-40 81-79 100-217 108-174 10-361 14-387 9z"/><path d="m3660 2971c-42-9-83-34-103-65-39-59-50-127-54-343-5-206-5-212 18-252 28-50 78-86 143-102 48-12 257-8 370 7l49 7-7-104c-4-57-11-189-16-294-9-177-9-192 8-214 35-47 100-46 136 2 22 29 27 86 42 452 7 191 0 235-44 283-45 48-92 56-241 38-146-18-229-20-265-6l-26 10v162c0 156 8 230 27 249 5 5 99 6 210 2l201-6 5-50c3-39 11-56 31-74 34-29 48-29 80 0 24 20 26 30 28 113 4 147-23 169-218 179-242 11-340 13-374 6z"/><path d="m1565 2945c-14-13-25-32-25-42s-1-297-3-638c-2-677-3-662 55-694 33-19 73-7 101 31 18 24 20 51 29 300 5 150 10 278 12 283 2 6 37 8 97 3 52-3 135-7 186-7 154-2 161-10 143-176-21-189-27-310-18-343 12-45 45-72 86-72 71 0 102 46 102 151 0 33 7 118 16 187 24 190 9 280-58 349-50 52-112 67-263 65-71-1-164-6-205-11-41-4-78-7-81-5-4 2-10 108-13 236-9 286-17 352-47 384-31 33-82 32-114-1z"/><path d="m2542 2944c-55-38-64-109-53-419 6-186 9-215 28-250 50-95 116-125 302-135 75-4 171-5 215-1l78 7-4-178c-2-97-7-181-11-184-4-4-42 1-85 11-104 26-285 27-363 3-106-33-149-107-99-170 26-34 68-41 132-21 74 23 202 20 308-7 182-47 274 5 301 168 12 77 27 831 19 994-7 152-20 181-86 186-88 7-103-51-104-401v-219l-201 4c-197 3-201 3-220 27-18 21-19 42-19 283v260l-29 29c-33 33-74 38-109 13z"/><path d="m2374 1391c-55-34-79-78-79-147 0-51 4-66 27-96 35-45 102-73 153-64 78 15 146 111 131 188-20 108-145 172-232 119z"/><path d="m1853 999c-39-11-66-56-61-101 6-59 69-64 76-6 4 30 34 38 145 38h67v-110c0-135-1-136-132-126-85 6-89 6-113-18-24-25-25-28-25-179 0-162 4-177 47-177 35 0 43 29 43 159v121h73c85 0 141 14 168 41 17 17 19 34 19 169 0 147-1 152-25 175-23 24-30 25-137 24-62 0-128-5-145-10z"/><path d="m2985 1e3c-91-16-93-18-104-58-15-51-14-537 0-564 19-36 69-48 204-48 121 0 127 1 151 25l24 24-2 292-3 292-26 19c-31 23-161 33-244 18zm169-86c14-5 16-37 16-250v-245l-102 3-103 3v480l40 6c57 9 131 10 149 3z"/><path d="m2351 971c-24-24-29-73-37-372-6-232-6-237 15-258 23-23 29-25 51-11 12 7 16 40 20 150l5 141 35-23c19-13 59-55 88-93 30-39 78-96 108-128 47-51 56-57 74-47 29 16 25 42-15 92-19 24-62 78-95 121-61 77-61 77-33 77 15 0 46 9 69 19 56 26 67 57 62 179-6 156-27 172-220 172-93 0-111-3-127-19zm257-74c16-13 17-168 0-185-7-7-41-12-84-12-40 0-84-4-98-10l-26-10v239l98-6c53-3 103-10 110-16z"/></g></svg>
