<?xml version="1.0" standalone="no"?>
<!DOCTYPE svg PUBLIC "-//W3C//DTD SVG 20010904//EN"
 "http://www.w3.org/TR/2001/REC-SVG-20010904/DTD/svg10.dtd">
<svg version="1.0" xmlns="http://www.w3.org/2000/svg"
 width="1212.000000pt" height="1831.630726pt" viewBox="0 0 1212.000000 1831.630726"
 preserveAspectRatio="xMidYMid meet">
<metadata>
Created by potrace 1.16, written by Peter Selinger 2001-2019
</metadata>
<g transform="translate(-44.000000,1883.072998) scale(0.100000,-0.100000)"
fill="#000000" stroke="none">
<path d="M797 18813 c4 -10 17 -31 29 -46 39 -46 49 -101 49 -257 0 -116 -4
-156 -19 -200 -28 -82 -60 -142 -95 -174 -34 -33 -40 -56 -15 -56 80 0 181
180 204 363 17 138 -19 290 -85 361 -28 31 -78 37 -68 9z"/>
<path d="M1528 18720 c-70 -12 -143 -38 -161 -58 -17 -19 -51 -151 -62 -243
-7 -55 -6 -57 24 -78 26 -19 39 -21 74 -16 92 15 167 65 167 113 0 60 -55 98
-132 89 -54 -7 -56 -3 -37 66 7 28 7 42 -1 52 -22 26 191 60 217 34 6 -6 16
-8 22 -5 19 12 12 36 -15 46 -28 11 -29 11 -96 0z m-55 -229 c51 -20 46 -67
-11 -98 -43 -24 -97 -39 -88 -24 4 5 2 12 -2 15 -9 5 -8 28 4 83 4 19 18 27
61 32 6 0 23 -3 36 -8z"/>
<path d="M8058 18630 c-21 -16 -26 -31 -32 -91 -7 -80 -37 -159 -59 -159 -12
0 -16 22 -19 109 -3 112 -13 141 -48 141 -20 0 -81 -64 -104 -109 -19 -35 -19
-41 -6 -41 6 0 10 5 10 11 0 15 61 99 73 99 5 0 6 -31 2 -78 -11 -128 13 -182
80 -182 22 0 30 9 51 54 20 44 42 153 44 215 0 11 15 12 73 8 39 -4 85 -9 101
-13 46 -11 27 18 -25 38 -60 23 -111 22 -141 -2z"/>
<path d="M570 18583 c-74 -28 -140 -213 -95 -263 30 -34 61 -25 115 33 41 43
50 48 50 31 0 -12 9 -33 21 -48 29 -37 76 -36 114 4 19 20 24 30 14 30 -8 0
-20 -5 -26 -11 -24 -24 -40 -2 -46 67 -4 38 -13 74 -22 83 -8 9 -25 28 -37 43
-24 28 -61 41 -88 31z m85 -53 c3 -10 2 -27 -4 -37 -5 -10 -15 -33 -21 -51 -7
-17 -28 -46 -48 -63 -30 -27 -36 -29 -44 -15 -6 10 -3 39 7 79 23 92 91 146
110 87z"/>
<path d="M4221 18553 c-5 -10 -10 -69 -12 -130 -3 -93 -1 -115 13 -129 29 -29
55 -3 63 63 4 32 17 74 28 93 l22 35 5 -54 c3 -37 11 -57 23 -65 24 -15 49 3
59 42 5 17 25 45 46 62 l37 31 6 -73 c6 -87 21 -120 52 -116 21 3 22 8 22 95
0 82 -3 95 -22 114 -19 20 -25 21 -51 10 -16 -7 -42 -25 -57 -41 l-28 -29 -16
32 c-22 44 -45 45 -86 4 l-35 -35 0 35 c0 19 -5 43 -10 54 -13 24 -46 25 -59
2z"/>
<path d="M6657 18546 c-9 -9 -19 -58 -27 -125 -14 -122 -9 -141 36 -141 25 0
36 17 48 70 3 14 19 41 36 60 l29 35 1 -47 c0 -88 57 -105 97 -28 13 25 30 51
38 59 12 13 16 10 25 -15 18 -47 50 -74 87 -74 35 0 44 18 19 39 -8 7 -18 27
-21 44 -23 117 -51 128 -111 45 l-38 -53 -7 34 c-16 77 -56 77 -118 0 l-40
-51 6 66 c4 46 2 70 -7 81 -16 19 -34 19 -53 1z"/>
<path d="M2244 18525 c-42 -64 -55 -173 -28 -231 21 -44 50 -64 92 -64 26 0
36 6 50 30 9 16 30 34 46 40 25 8 31 7 43 -10 17 -24 66 -26 103 -5 17 9 42
12 80 8 39 -4 67 -1 94 11 22 9 41 14 44 11 6 -6 -16 -235 -27 -286 -5 -20 -4
-44 1 -53 12 -21 45 -21 56 2 8 14 36 174 44 252 3 21 9 26 46 31 86 11 128
70 95 136 -24 50 -53 54 -93 14 l-30 -29 0 54 c0 41 -4 56 -16 61 -26 10 -53
-28 -61 -87 -7 -44 -13 -57 -33 -67 -26 -13 -92 -18 -102 -7 -4 3 5 27 19 54
27 53 25 85 -7 95 -11 3 -29 1 -41 -5 -29 -16 -63 -95 -55 -131 5 -27 3 -29
-24 -29 -22 0 -29 5 -32 22 -4 30 -35 35 -58 10 -30 -32 -75 -37 -99 -13 -20
20 -39 26 -70 21 -11 -1 -13 11 -8 60 3 34 10 67 16 73 6 6 11 21 11 34 0 31
-35 31 -56 -2z m409 -122 c-12 -26 -19 -32 -21 -21 -4 20 30 88 35 71 3 -7 -4
-29 -14 -50z m240 -90 c-15 -13 -31 -23 -35 -23 -18 0 -6 40 25 81 l32 44 3
-40 c3 -34 -1 -43 -25 -62z m-553 17 c12 -8 9 -10 -13 -10 -16 0 -26 4 -22 10
8 12 16 12 35 0z m-13 -56 c-3 -3 -12 -4 -19 -1 -8 3 -5 6 6 6 11 1 17 -2 13
-5z"/>
<path d="M5374 18525 c-12 -18 -18 -56 -22 -120 -5 -100 3 -125 39 -125 24 0
51 29 44 47 -3 9 5 32 17 52 l23 36 5 -40 c13 -92 46 -90 131 10 l64 76 5 -53
c7 -68 25 -100 53 -96 25 3 35 44 36 144 1 60 -10 84 -37 84 -7 0 -47 -35 -87
-77 l-74 -78 -1 45 c0 25 -4 51 -9 58 -17 27 -55 8 -94 -48 l-39 -55 5 58 c9
96 -22 139 -59 82z"/>
<path d="M9013 18535 c-49 -21 -70 -78 -39 -104 11 -10 9 -17 -15 -41 -54 -53
-30 -111 51 -124 36 -6 53 -2 99 21 72 36 95 69 95 133 0 58 -18 83 -79 111
-48 22 -69 23 -112 4z m153 -56 c75 -71 -52 -209 -147 -159 -23 13 -25 33 -4
50 21 17 19 50 -2 50 -13 0 -14 3 -5 12 7 7 12 20 12 29 0 50 99 62 146 18z"/>
<path d="M1612 18527 c-17 -20 -41 -168 -32 -193 17 -45 62 -41 109 9 l23 26
29 -21 c26 -19 32 -20 71 -9 24 7 67 26 96 43 28 16 52 27 52 24 0 -3 -10 -26
-22 -51 -20 -42 -21 -46 -6 -61 25 -25 47 -10 70 46 l21 50 16 -32 c19 -38 51
-57 86 -50 30 5 33 28 5 37 -21 7 -29 35 -33 130 -2 54 -4 60 -24 63 -16 2
-26 -4 -35 -22 -6 -14 -14 -26 -18 -26 -4 0 -21 -13 -38 -30 -41 -39 -124 -80
-162 -80 -29 0 -30 1 -30 50 0 46 -2 50 -25 50 -20 0 -26 -7 -36 -41 -13 -43
-66 -96 -81 -81 -5 5 -2 40 7 86 9 42 13 81 10 86 -9 14 -41 12 -53 -3z"/>
<path d="M3497 18523 c-21 -20 1 -73 30 -73 17 0 32 38 25 62 -4 18 -42 25
-55 11z"/>
<path d="M3135 18491 c-35 -21 -79 -70 -101 -113 -32 -63 12 -106 76 -75 29
15 30 15 29 -6 -2 -47 -16 -68 -81 -116 -83 -63 -118 -112 -118 -164 0 -91 68
-126 170 -86 48 19 62 54 79 190 12 95 21 132 35 148 17 19 17 21 2 21 -13 0
-15 7 -10 38 4 28 2 41 -10 51 -14 12 -22 10 -54 -13 -41 -28 -62 -33 -62 -14
0 20 40 71 79 101 l36 29 6 -49 6 -48 1 51 c3 74 -24 92 -83 55z m-9 -368
c-10 -111 -20 -138 -62 -158 -43 -20 -78 -13 -100 20 -30 46 0 99 99 171 32
24 62 44 64 44 3 0 3 -35 -1 -77z"/>
<path d="M7216 18494 c-15 -14 -14 -50 1 -76 8 -14 41 -8 47 8 20 52 -15 101
-48 68z"/>
<path d="M8536 18491 c-10 -16 19 -30 84 -40 115 -19 211 -12 172 13 -11 7
-195 36 -226 36 -14 0 -27 -4 -30 -9z"/>
<path d="M6152 18447 c-23 -27 14 -41 140 -52 112 -10 143 -6 121 16 -5 5 -54
16 -108 24 -55 8 -109 17 -121 20 -12 4 -25 1 -32 -8z"/>
<path d="M4918 18442 c-22 -4 -23 -25 -3 -42 16 -13 257 -11 271 3 14 13 -3
17 -102 23 -54 3 -110 9 -124 13 -14 4 -33 5 -42 3z"/>
<path d="M3454 18345 c-13 -20 -14 -28 -4 -40 20 -24 49 -18 61 12 5 14 8 32
5 40 -9 22 -44 15 -62 -12z"/>
<path d="M4702 18358 c-15 -19 -41 -144 -32 -158 4 -7 16 -10 26 -8 28 5 73
140 55 162 -16 19 -35 21 -49 4z"/>
<path d="M4943 18343 c-9 -23 9 -33 60 -33 53 0 165 24 180 39 4 4 -47 7 -114
7 -85 -1 -123 -5 -126 -13z"/>
<path d="M8483 18354 c-17 -7 -17 -40 0 -47 14 -5 196 10 247 21 36 8 40 28 5
26 -66 -5 -203 -5 -220 -1 -11 3 -26 4 -32 1z"/>
<path d="M9327 18343 c-13 -12 -7 -51 9 -67 21 -22 54 -4 54 29 0 31 -44 58
-63 38z"/>
<path d="M5794 18325 c-10 -25 6 -37 40 -31 25 5 37 2 51 -14 18 -20 17 -21
-28 -62 -51 -45 -56 -58 -31 -79 24 -20 154 -2 154 21 0 6 -17 10 -37 10 l-38
0 33 26 c44 35 43 72 -3 113 -30 26 -44 31 -86 31 -34 0 -51 -5 -55 -15z"/>
<path d="M6182 18323 c3 -15 18 -17 125 -17 67 0 125 2 128 6 21 20 -15 28
-131 28 -113 0 -125 -2 -122 -17z"/>
<path d="M8148 18333 c-20 -3 -28 -10 -28 -24 0 -26 26 -35 48 -17 19 17 42
13 42 -7 0 -7 -16 -32 -35 -55 -68 -81 -34 -114 87 -85 81 20 181 62 173 74
-2 5 -28 0 -57 -10 -29 -10 -75 -18 -101 -19 l-49 0 26 31 c31 37 33 72 6 99
-20 20 -47 23 -112 13z"/>
<path d="M7285 18298 c-46 -150 -67 -241 -55 -248 20 -12 32 -3 61 43 55 87
72 155 49 198 -12 21 -48 26 -55 7z"/>
<path d="M7553 17868 c-17 -22 -35 -87 -48 -177 -14 -95 -11 -113 18 -109 17
3 25 24 53 137 26 101 31 137 23 148 -14 16 -34 17 -46 1z"/>
<path d="M4708 17773 c-19 -22 -29 -112 -20 -173 6 -36 11 -46 29 -48 17 -3
24 3 28 25 3 15 10 44 15 64 28 104 -5 186 -52 132z"/>
<path d="M8405 17718 c-22 -11 -51 -30 -65 -40 -39 -31 -65 -88 -40 -88 6 0
10 8 10 19 0 20 54 61 113 86 49 20 52 13 38 -115 -21 -196 -12 -245 43 -238
46 5 122 123 155 240 l27 93 80 10 c85 11 101 28 32 33 -53 4 -115 -13 -127
-36 -5 -9 -16 -46 -25 -81 -19 -73 -57 -149 -92 -182 l-24 -22 0 59 c0 32 4
87 9 121 20 139 -32 194 -134 141z"/>
<path d="M7201 17633 c-70 -37 -91 -75 -91 -165 0 -37 -4 -78 -10 -92 -13 -34
-46 -66 -69 -66 -27 0 -34 40 -21 127 14 93 2 133 -39 133 -53 0 -131 -70
-117 -105 9 -25 29 -17 22 9 -5 20 0 28 30 46 19 12 37 20 40 17 3 -2 0 -44
-6 -91 -14 -102 -8 -150 23 -171 32 -22 61 -19 98 12 48 41 69 95 69 184 0 75
1 78 35 107 49 44 95 51 173 27 26 -9 31 15 7 35 -31 26 -87 23 -144 -7z"/>
<path d="M4461 17633 c-41 -20 -61 -64 -61 -132 0 -83 -48 -174 -65 -122 -3 9
-4 59 -3 110 3 82 1 94 -16 107 -25 18 -53 10 -93 -29 -37 -35 -46 -62 -10
-31 63 55 60 58 52 -52 -8 -110 4 -156 45 -169 58 -18 99 50 109 182 8 106 18
116 106 110 33 -3 69 -6 79 -8 35 -7 29 21 -8 36 -46 19 -93 19 -135 -2z"/>
<path d="M5654 17630 c-11 -4 -34 -23 -50 -41 -17 -19 -39 -39 -50 -45 -27
-16 -64 -96 -71 -152 -10 -87 53 -161 145 -170 46 -4 50 -2 93 39 52 52 76 98
91 178 10 54 9 63 -13 107 -34 69 -95 104 -145 84z m84 -44 c33 -18 62 -66 62
-102 0 -97 -77 -214 -141 -214 -42 0 -89 47 -90 92 -2 70 22 178 40 178 5 0
28 13 52 30 51 34 47 33 77 16z"/>
<path d="M6335 17500 c-9 -15 4 -30 26 -30 12 0 19 7 19 20 0 21 -33 29 -45
10z"/>
<path d="M4990 17489 c-24 -10 -24 -11 -5 -22 11 -6 73 -13 138 -15 99 -4 117
-2 117 11 0 10 -15 16 -52 21 -124 14 -175 15 -198 5z"/>
<path d="M7788 17474 c-29 -29 28 -44 165 -44 123 0 167 10 137 30 -8 5 -38
10 -66 10 -28 0 -91 3 -140 6 -49 4 -92 3 -96 -2z"/>
<path d="M8818 17429 c-20 -11 -34 -53 -48 -144 -11 -76 -4 -122 23 -139 30
-19 47 13 57 105 5 46 12 103 15 126 6 34 4 43 -12 51 -11 7 -25 7 -35 1z"/>
<path d="M4930 17375 c-10 -12 -10 -18 0 -30 18 -21 320 -22 320 -1 0 16 -63
26 -171 26 -43 0 -81 5 -84 10 -9 15 -51 12 -65 -5z"/>
<path d="M4552 17367 c-17 -20 -46 -171 -38 -200 8 -32 34 -42 57 -22 18 17
44 158 38 205 -5 29 -39 39 -57 17z"/>
<path d="M7784 17335 c-3 -8 -3 -19 1 -25 9 -14 216 -13 252 2 26 11 24 12
-42 19 -182 18 -206 19 -211 4z"/>
<path d="M7283 17290 c-31 -13 -29 -28 3 -22 24 4 26 3 19 -19 -5 -13 -23 -44
-41 -68 -19 -24 -34 -50 -34 -57 0 -20 30 -45 49 -40 9 3 44 12 78 22 34 9 70
25 79 35 19 21 12 38 -8 22 -7 -6 -37 -14 -66 -18 l-54 -7 31 42 c59 82 28
143 -56 110z"/>
<path d="M6307 17263 c-14 -13 -6 -45 12 -50 17 -4 18 -9 9 -41 -6 -20 -23
-59 -39 -88 -26 -46 -28 -53 -14 -64 13 -11 20 -8 46 16 70 67 102 139 83 189
-11 28 -80 56 -97 38z"/>
<path d="M4148 17145 c-9 -21 -7 -33 18 -82 42 -83 60 -90 260 -108 93 -8 234
-21 314 -29 173 -18 579 -41 970 -56 363 -13 1869 -13 2185 0 591 25 1086 68
1223 106 l52 15 -1 42 c0 51 -31 131 -51 135 -20 4 -42 -24 -34 -43 3 -8 17
-15 30 -15 21 0 26 -6 32 -35 3 -19 4 -41 1 -49 -18 -45 -648 -99 -1502 -127
-732 -24 -2238 6 -2790 57 -457 41 -564 53 -584 63 -23 13 -44 49 -55 96 -14
58 -48 73 -68 30z"/>
<path d="M650 16883 c0 -5 18 -25 39 -46 63 -61 98 -207 88 -367 -8 -127 -46
-218 -130 -307 -29 -31 -30 -53 -1 -53 8 0 35 19 60 42 127 117 171 261 141
461 -24 160 -95 277 -168 277 -16 0 -29 -3 -29 -7z"/>
<path d="M627 16729 c-126 -30 -206 -130 -147 -184 18 -16 18 -20 5 -34 -22
-25 -45 -86 -45 -120 0 -46 39 -85 85 -85 29 0 43 7 61 28 13 15 24 35 24 45
0 23 -50 135 -62 139 -27 11 -68 57 -68 76 0 47 87 98 189 112 31 4 50 11 48
18 -5 14 -42 17 -90 5z m-66 -293 c42 -21 33 -86 -12 -86 -31 0 -50 60 -33
105 5 12 9 13 14 5 4 -7 18 -17 31 -24z"/>
<path d="M6626 16584 c-33 -32 -10 -76 39 -76 14 0 25 -3 25 -7 0 -27 -106
-111 -140 -111 -14 0 -18 12 -22 55 -8 100 -69 144 -123 91 -15 -15 -23 -31
-19 -38 5 -8 11 -5 17 11 6 12 18 20 26 19 13 -3 17 -21 21 -88 6 -98 12 -110
47 -110 50 0 213 122 213 160 0 6 16 10 35 10 47 0 185 31 185 42 0 4 -45 8
-100 8 -92 0 -101 2 -124 25 -29 29 -58 32 -80 9z"/>
<path d="M4660 16543 c-31 -49 -36 -68 -21 -78 5 -3 7 -29 4 -59 -5 -49 -3
-55 19 -70 19 -12 32 -14 50 -7 33 12 83 90 103 158 13 45 19 53 33 48 9 -4
27 -10 40 -12 32 -7 29 21 -4 36 -39 17 -66 -5 -92 -76 -21 -58 -65 -113 -75
-96 -3 5 1 41 9 79 18 86 18 89 -2 108 -24 24 -32 20 -64 -31z"/>
<path d="M2413 16558 c-12 -15 -25 -200 -17 -223 8 -20 60 -20 68 1 3 9 6 30
6 48 0 18 7 41 15 52 14 18 15 17 10 -16 -8 -47 12 -75 48 -66 20 5 28 14 33
40 3 19 14 42 24 51 16 15 17 12 23 -41 12 -113 67 -108 75 6 3 44 0 66 -12
85 -21 32 -33 32 -72 -6 l-31 -30 -17 25 c-21 33 -49 33 -75 0 l-21 -27 0 37
c0 62 -31 97 -57 64z"/>
<path d="M5456 16537 c-31 -41 -34 -61 -6 -54 19 5 20 2 14 -61 -6 -59 -4 -69
14 -85 14 -13 28 -17 42 -12 30 10 77 87 91 152 l12 54 46 -3 c36 -2 46 0 46
12 0 10 -12 16 -38 18 -48 4 -72 -16 -82 -66 -8 -46 -42 -112 -56 -112 -8 0
-9 23 -4 75 3 41 4 83 0 95 -10 32 -50 26 -79 -13z m16 -19 c-7 -7 -12 -8 -12
-2 0 14 12 26 19 19 2 -3 -1 -11 -7 -17z"/>
<path d="M1352 16548 c-12 -16 -20 -178 -9 -195 10 -16 39 -17 55 -1 7 7 12
32 12 56 0 28 7 53 19 69 l20 24 3 -52 c2 -36 8 -55 21 -63 23 -15 51 3 55 35
6 43 22 45 23 4 0 -22 5 -56 12 -75 9 -27 17 -35 37 -35 24 0 25 2 28 79 4
113 -24 151 -80 106 l-25 -19 -11 24 c-14 31 -54 33 -82 5 l-20 -20 0 23 c0
40 -36 61 -58 35z"/>
<path d="M3536 16518 c-7 -13 -16 -53 -20 -89 -5 -58 -4 -68 14 -84 18 -17 21
-17 46 0 19 13 25 23 21 41 -3 15 3 34 14 47 18 22 18 22 19 -23 0 -51 13 -70
47 -70 23 0 43 26 43 57 0 18 48 73 63 73 3 0 4 -13 1 -30 -15 -75 51 -126 75
-59 15 43 14 64 -4 99 -21 41 -55 39 -104 -5 l-39 -35 -16 25 c-19 29 -51 32
-78 8 -17 -15 -18 -15 -18 6 0 30 -18 61 -35 61 -8 0 -21 -10 -29 -22z"/>
<path d="M4087 16528 c-30 -16 -19 -88 14 -88 23 0 42 35 35 65 -7 27 -26 36
-49 23z"/>
<path d="M3065 16496 c-16 -12 -18 -17 -8 -27 23 -24 263 -40 263 -19 0 15
-36 26 -125 38 -45 6 -87 14 -96 17 -8 3 -23 -1 -34 -9z"/>
<path d="M5070 16491 c0 -11 8 -22 18 -25 38 -11 133 -18 158 -12 42 11 15 27
-68 42 -100 18 -108 17 -108 -5z"/>
<path d="M5993 16494 c-14 -38 49 -53 161 -38 62 9 54 27 -15 35 -30 3 -73 9
-96 13 -36 7 -44 5 -50 -10z"/>
<path d="M1945 16481 c-11 -19 35 -31 120 -31 65 0 86 3 83 13 -8 22 -190 38
-203 18z"/>
<path d="M4873 16384 c-24 -38 -25 -132 -1 -148 30 -19 46 11 50 94 3 63 1 75
-14 78 -10 2 -24 -8 -35 -24z"/>
<path d="M5044 16396 c-34 -25 -3 -41 74 -38 76 3 102 9 102 23 0 5 -24 9 -54
9 -30 0 -58 5 -61 10 -9 14 -38 12 -61 -4z"/>
<path d="M6100 16401 c-86 -5 -95 -8 -95 -26 0 -18 6 -20 62 -17 68 3 135 22
141 40 2 7 0 11 -5 10 -4 -1 -51 -4 -103 -7z"/>
<path d="M1734 16365 c-26 -64 -10 -127 30 -112 20 8 39 103 26 128 -16 29
-39 23 -56 -16z"/>
<path d="M3085 16391 c-10 -10 -4 -41 8 -42 59 -7 217 18 217 35 0 7 -35 11
-110 11 -61 1 -113 -1 -115 -4z"/>
<path d="M1955 16381 c-28 -4 -41 -12 -43 -25 -3 -16 1 -18 30 -12 18 3 66 9
106 12 46 4 71 11 69 18 -4 12 -101 17 -162 7z"/>
<path d="M2730 16371 c0 -5 16 -18 35 -30 19 -11 35 -27 35 -35 0 -8 -18 -30
-40 -48 -50 -40 -52 -74 -5 -72 25 1 212 67 224 80 14 14 -15 14 -55 0 -65
-22 -77 -21 -64 3 16 31 12 51 -19 82 -23 23 -39 29 -70 29 -23 0 -41 -4 -41
-9z"/>
<path d="M4140 16344 c-6 -14 -10 -30 -10 -36 0 -6 -14 -42 -31 -79 -48 -104
-19 -138 44 -51 47 65 67 106 67 140 0 53 -52 73 -70 26z"/>
<path d="M5708 16357 c-26 -7 -38 -16 -38 -29 0 -21 30 -24 48 -6 17 17 14 -3
-3 -26 -19 -25 -19 -50 0 -66 20 -17 128 3 203 37 68 30 57 39 -23 18 -33 -8
-72 -15 -87 -15 -25 0 -27 2 -18 19 16 30 12 59 -9 71 -22 11 -22 11 -73 -3z"/>
<path d="M8022 16011 c-20 -12 -42 -97 -48 -181 -6 -84 4 -112 33 -94 13 8 22
35 31 95 24 157 20 203 -16 180z"/>
<path d="M4807 15927 c-19 -45 -30 -122 -22 -158 5 -23 12 -29 28 -27 16 2 27
18 43 63 12 33 23 73 23 88 2 68 -48 92 -72 34z"/>
<path d="M4407 15785 c-41 -21 -68 -57 -55 -72 13 -16 29 -7 22 12 -5 13 32
42 42 32 2 -2 -2 -50 -11 -105 -8 -56 -15 -119 -15 -140 0 -46 23 -82 54 -82
46 0 88 79 110 206 13 74 20 93 43 113 23 20 33 23 79 17 56 -6 78 6 45 23
-28 15 -87 13 -120 -4 -34 -17 -46 -45 -65 -147 -15 -75 -36 -131 -56 -143
-14 -8 -13 60 2 163 10 71 10 87 -3 110 -18 33 -35 37 -72 17z"/>
<path d="M6196 15784 c-65 -20 -122 -59 -136 -93 -10 -24 -7 -36 16 -83 30
-61 28 -94 -6 -128 -24 -24 -65 -26 -74 -4 -3 9 -6 52 -6 97 0 99 -14 131 -57
135 -22 2 -39 -4 -62 -26 -30 -27 -32 -42 -4 -42 7 0 13 9 13 20 0 11 7 20 15
20 8 0 18 0 23 0 4 0 7 -47 7 -105 0 -100 1 -106 27 -131 36 -37 79 -36 118 1
52 50 57 105 16 183 -9 17 -16 38 -16 46 0 40 161 102 201 78 27 -17 39 -15
39 8 0 13 -10 24 -26 30 -31 12 -27 12 -88 -6z"/>
<path d="M7724 15750 c-42 -16 -54 -49 -55 -140 0 -94 -15 -153 -40 -158 -23
-4 -29 25 -29 138 0 70 -4 101 -16 118 -28 40 -77 23 -121 -43 -24 -36 -20
-55 13 -55 26 0 33 27 13 47 -8 8 -4 15 13 27 l23 16 5 -123 c6 -146 19 -177
75 -177 52 0 68 38 75 177 7 135 13 146 92 147 29 0 63 -4 76 -8 29 -11 31 18
3 34 -23 12 -97 12 -127 0z"/>
<path d="M8971 15704 c-12 -15 -21 -30 -21 -33 0 -17 33 -51 50 -51 35 0 34
-23 -3 -56 -40 -37 -82 -52 -106 -37 -9 6 -19 33 -24 64 -16 105 -20 114 -54
117 -26 3 -36 -3 -59 -33 -22 -29 -25 -38 -14 -45 19 -12 33 -1 27 21 -3 10 1
23 8 29 10 9 14 -5 16 -69 3 -67 8 -83 27 -104 43 -46 87 -43 165 10 20 14 46
41 58 59 20 34 21 34 95 34 59 0 74 3 74 15 0 10 -10 15 -27 15 -70 0 -101 12
-108 39 -10 38 -24 51 -55 51 -19 0 -36 -9 -49 -26z m89 -25 c0 -24 -23 -21
-28 4 -2 10 3 17 12 17 10 0 16 -9 16 -21z"/>
<path d="M6630 15670 c0 -5 5 -10 11 -10 5 0 7 5 4 10 -3 6 -8 10 -11 10 -2 0
-4 -4 -4 -10z"/>
<path d="M6671 15666 c-17 -20 -2 -46 25 -46 29 0 41 24 24 45 -16 19 -34 19
-49 1z"/>
<path d="M5027 15633 c-10 -3 -16 -10 -14 -16 2 -8 44 -13 125 -15 102 -3 122
-1 122 11 0 8 -7 18 -16 21 -18 7 -190 6 -217 -1z"/>
<path d="M8183 15623 c-13 -2 -23 -11 -23 -19 0 -14 14 -16 190 -16 57 -1 75
3 75 13 0 8 -16 17 -40 21 -43 7 -165 8 -202 1z"/>
<path d="M5569 15616 c-2 -2 -24 -5 -49 -7 -57 -3 -70 -8 -70 -24 0 -14 44
-13 204 4 90 9 86 31 -6 31 -41 0 -77 -2 -79 -4z"/>
<path d="M5005 15540 c-14 -23 11 -30 103 -30 98 0 172 13 172 30 0 13 -267
13 -275 0z"/>
<path d="M8195 15536 c-16 -11 -17 -17 -7 -29 18 -22 242 -11 242 12 0 5 -35
12 -77 16 -43 3 -92 8 -108 10 -18 3 -39 -1 -50 -9z"/>
<path d="M4653 15508 c-6 -7 -13 -43 -16 -79 -5 -50 -2 -71 9 -88 18 -25 27
-26 46 -7 18 17 23 152 7 172 -14 17 -33 18 -46 2z"/>
<path d="M6700 15418 c-19 -24 -75 -85 -124 -136 -49 -51 -86 -95 -83 -98 18
-19 71 17 169 116 85 85 109 114 106 132 -5 37 -32 32 -68 -14z"/>
<path d="M7792 15418 c-32 -23 -39 -53 -12 -53 8 0 16 10 18 23 4 25 20 29 28
8 7 -17 -17 -65 -62 -127 -64 -88 -41 -114 80 -93 123 21 143 51 29 45 -39 -2
-63 1 -60 6 4 6 22 34 42 62 40 60 45 101 15 131 -26 26 -38 25 -78 -2z"/>
<path d="M4161 15411 c-16 -11 -27 -129 -17 -195 8 -54 44 -101 83 -110 16 -3
136 -13 268 -21 779 -50 925 -55 1880 -67 994 -12 1199 -9 1750 27 121 8 337
21 480 30 581 35 616 39 635 76 13 24 9 106 -4 99 -6 -3 -9 -21 -7 -41 4 -61
-8 -64 -259 -79 -96 -6 -393 -24 -660 -40 -768 -48 -933 -50 -2005 -35 -827
13 -1234 25 -1540 50 -38 3 -155 10 -260 15 -294 17 -295 17 -295 175 0 113
-11 140 -49 116z"/>
<path d="M806 14921 c-4 -6 4 -32 18 -59 50 -99 69 -336 42 -537 -17 -131 -34
-189 -89 -305 -29 -61 -33 -76 -20 -78 42 -10 115 119 154 273 55 218 42 513
-30 657 -26 52 -60 74 -75 49z"/>
<path d="M734 14655 c-46 -46 -93 -191 -94 -287 0 -30 -4 -37 -22 -40 -32 -4
-38 -47 -8 -55 20 -5 22 -10 16 -54 -4 -26 -2 -50 2 -53 5 -3 12 -18 15 -34 8
-40 45 -82 72 -82 37 0 49 25 49 107 1 69 -1 76 -26 98 -44 37 -39 104 12 201
22 42 47 100 56 130 15 52 15 57 -2 75 -23 25 -40 24 -70 -6z m63 -38 c-6 -37
-65 -173 -72 -166 -9 10 27 135 48 166 12 18 24 33 26 33 2 0 1 -15 -2 -33z
m-49 -435 c2 -28 -1 -60 -7 -69 -8 -16 -11 -15 -20 10 -6 16 -11 49 -11 73 0
38 3 45 18 42 13 -2 18 -15 20 -56z"/>
<path d="M9558 14598 c-13 -13 -32 -28 -43 -34 -45 -23 -11 -184 41 -192 42
-6 83 75 84 165 0 78 -37 106 -82 61z m68 -35 c13 -52 -31 -163 -55 -138 -16
18 -20 83 -6 95 7 6 18 24 25 40 15 37 28 38 36 3z"/>
<path d="M7068 14565 c-38 -21 -69 -77 -75 -137 -4 -45 -2 -57 16 -75 12 -13
32 -23 45 -23 70 0 129 177 76 230 -23 23 -27 24 -62 5z m66 -31 c17 -43 -9
-130 -46 -153 -17 -11 -22 -11 -29 1 -21 32 -4 101 35 146 23 26 32 28 40 6z"/>
<path d="M9235 14434 c-141 -72 -145 -75 -145 -90 0 -23 37 -16 136 26 52 22
96 40 99 40 18 0 -3 -42 -41 -85 -25 -27 -81 -94 -126 -147 -49 -59 -88 -98
-99 -98 -13 0 -18 -7 -17 -22 1 -14 -21 -55 -56 -103 l-57 -80 -142 -5 c-117
-4 -142 -8 -142 -20 0 -12 22 -15 123 -18 67 -1 122 -5 122 -8 0 -3 -12 -21
-26 -40 -26 -33 -28 -34 -46 -17 -16 14 -20 15 -33 2 -12 -11 -12 -21 -4 -50
11 -34 9 -40 -22 -81 l-34 -45 -183 -7 c-101 -4 -258 -5 -350 -1 -129 5 -195
3 -292 -10 -100 -13 -260 -18 -810 -24 -377 -4 -738 -5 -802 -2 l-117 6 44 50
c35 40 46 48 56 38 22 -21 41 -15 84 27 l42 41 12 -41 c10 -34 16 -41 34 -38
18 2 22 9 21 40 -2 72 -38 86 -99 38 -57 -45 -77 -18 -29 39 l25 31 171 2
c126 2 172 6 176 16 3 9 -13 12 -57 12 -47 0 -59 3 -55 14 6 15 -23 26 -76 26
l-35 0 53 25 c46 21 52 28 52 54 0 22 -7 34 -24 43 l-25 13 75 80 74 80 40
-44 c61 -66 75 -125 74 -306 -1 -82 -3 -161 -5 -175 -6 -37 33 -40 50 -4 41
91 36 285 -9 408 -23 60 -78 131 -110 141 -16 5 -12 15 35 77 31 42 58 89 65
117 10 41 23 60 41 61 3 0 2 -23 -4 -51 -8 -40 -7 -53 3 -59 20 -13 40 0 46
29 3 14 10 36 15 49 16 40 11 72 -11 72 -40 0 -265 -111 -265 -132 0 -21 32
-21 62 0 16 10 46 29 67 42 l39 24 -7 -30 c-9 -38 -64 -121 -118 -178 -24 -25
-72 -79 -108 -121 -44 -50 -72 -75 -87 -75 -25 0 -41 -19 -24 -29 7 -4 -10
-31 -47 -73 l-57 -67 -135 0 c-144 -1 -183 -7 -177 -25 2 -7 51 -13 136 -16
l131 -5 -15 -22 c-9 -13 -25 -23 -36 -23 -11 0 -31 -11 -44 -26 -22 -24 -24
-24 -30 -5 -3 10 -12 22 -20 25 -14 5 -45 -18 -45 -34 0 -23 22 -61 39 -68 18
-7 18 -9 -9 -38 l-28 -32 -303 -7 c-167 -4 -347 -8 -399 -9 -79 -1 -95 -4 -98
-17 -4 -24 12 -26 113 -17 50 4 218 11 374 14 l283 6 -23 -32 c-13 -18 -34
-36 -47 -41 -28 -11 -26 -44 3 -44 13 0 21 8 23 21 2 12 18 36 37 54 l34 33
743 4 c409 2 793 8 853 14 61 6 277 12 480 14 204 3 396 7 428 11 l58 6 -37
-56 c-21 -31 -42 -56 -46 -56 -4 0 -8 -9 -8 -20 0 -13 7 -20 19 -20 24 0 44
23 31 36 -7 7 3 28 26 62 l37 52 151 0 c304 0 1123 43 1140 60 11 11 -3 17
-64 24 -78 10 -103 12 -163 14 l-59 2 31 26 c33 28 42 73 18 92 -27 22 -137
20 -137 -3 0 -11 12 -15 45 -15 25 0 45 -5 45 -10 0 -6 -19 -28 -42 -49 -29
-28 -40 -44 -36 -58 5 -19 -1 -21 -81 -27 -121 -8 -784 -29 -805 -25 -14 4
-14 8 6 36 18 25 28 31 46 26 25 -6 52 12 52 35 0 8 8 24 17 34 16 18 17 18
27 -14 16 -47 43 -48 82 -2 29 35 33 36 34 17 0 -41 22 -73 48 -73 24 0 24 2
18 46 -10 76 -42 94 -94 53 l-26 -20 -8 20 c-11 30 -58 28 -88 -4 -41 -43 -35
-18 10 41 l42 56 81 -4 c58 -2 81 0 84 10 3 6 -3 12 -14 12 -15 0 -16 2 -3 10
8 5 30 10 48 10 53 0 33 24 -24 30 l-49 5 35 19 c54 28 70 47 70 78 0 21 -8
33 -31 47 l-31 19 83 98 c141 169 156 185 162 162 4 -14 12 -19 29 -16 21 3
23 7 20 61 -5 113 -25 119 -157 51z m-140 -419 c0 -17 -81 -83 -90 -74 -2 2
13 26 32 52 36 48 58 56 58 22z m-2565 -78 c0 -12 -49 -47 -66 -47 -4 0 5 14
21 30 31 32 45 38 45 17z m2460 -47 c9 -18 8 -20 -15 -20 -23 0 -24 2 -13 20
7 11 14 20 15 20 1 0 7 -9 13 -20z m-2570 -60 c0 -5 -5 -10 -11 -10 -5 0 -7 5
-4 10 3 6 8 10 11 10 2 0 4 -4 4 -10z"/>
<path d="M1397 14373 c-3 -4 -7 -54 -8 -110 -3 -87 -1 -105 14 -120 30 -31 51
-6 57 68 5 62 30 119 52 119 7 0 9 -28 6 -75 -4 -61 -2 -77 12 -90 9 -8 22
-15 28 -15 19 0 42 43 42 81 0 32 23 69 42 69 3 0 8 -30 10 -67 2 -38 10 -81
18 -98 17 -34 60 -61 83 -52 15 6 14 11 -8 53 -17 31 -25 63 -25 95 0 71 -14
99 -47 99 -16 0 -39 -9 -52 -19 l-25 -19 -15 32 c-22 43 -72 49 -97 10 l-18
-27 -11 34 c-11 32 -46 52 -58 32z"/>
<path d="M2220 14355 c-18 -22 -6 -41 46 -77 98 -68 95 -60 31 -103 -31 -21
-57 -44 -57 -52 0 -29 31 -23 99 17 62 37 71 46 71 71 0 23 -10 35 -57 68 -32
21 -69 51 -82 65 -28 30 -34 31 -51 11z"/>
<path d="M2510 14351 c-17 -32 -13 -157 6 -175 31 -31 64 -11 64 39 0 16 9 43
20 59 l19 30 3 -59 c2 -42 8 -61 21 -69 23 -14 51 3 55 35 2 13 10 32 17 42
11 16 13 14 20 -20 9 -52 22 -73 44 -73 14 0 20 10 25 46 3 26 6 63 6 83 0 68
-45 82 -80 26 -12 -19 -25 -35 -29 -35 -3 0 -12 14 -18 30 -15 39 -38 38 -80
-2 l-33 -32 0 25 c0 26 -25 69 -40 69 -5 0 -14 -9 -20 -19z"/>
<path d="M1966 14311 c-8 -12 9 -24 82 -56 34 -15 62 -30 62 -34 0 -3 -20 -17
-46 -30 -52 -28 -71 -55 -53 -77 17 -21 33 -17 57 16 13 17 37 33 61 40 44 12
66 33 57 55 -7 19 -161 95 -192 95 -13 0 -25 -4 -28 -9z"/>
<path d="M2908 14203 c-10 -2 -18 -11 -18 -19 0 -11 6 -13 21 -9 25 8 69 -2
69 -15 0 -5 -18 -27 -40 -49 -42 -42 -49 -61 -26 -80 18 -15 282 -11 279 4 -1
6 -49 15 -105 21 -57 7 -104 12 -106 13 -2 1 13 16 32 35 41 38 45 57 16 86
-19 19 -75 25 -122 13z"/>
<path d="M1872 14143 c-5 -10 -18 -53 -28 -96 -19 -84 -14 -112 22 -112 15 0
21 12 30 55 6 30 16 71 21 90 17 60 -20 111 -45 63z"/>
<path d="M5357 14122 c-44 -48 -97 -239 -97 -347 0 -94 52 -185 105 -185 21 0
19 13 -10 56 -23 33 -25 47 -25 139 0 110 26 235 61 291 10 17 19 39 19 48 0
22 -33 20 -53 -2z"/>
<path d="M8722 14096 c-30 -34 -30 -34 -36 -11 -6 25 -26 37 -43 27 -6 -4 -12
-42 -15 -85 -4 -60 -2 -82 9 -93 18 -17 24 -18 48 0 14 10 17 21 12 48 -4 26
0 45 15 69 39 65 58 65 58 0 0 -64 7 -81 34 -81 29 0 46 18 46 50 0 30 52 86
69 76 6 -4 11 -25 11 -46 0 -51 8 -70 31 -70 40 0 48 73 13 128 -20 31 -57 28
-97 -8 l-35 -30 -12 30 c-18 44 -67 42 -108 -4z"/>
<path d="M3312 14098 c7 -19 38 -22 38 -4 0 10 -9 16 -21 16 -12 0 -19 -5 -17
-12z"/>
<path d="M6106 14048 c-3 -7 -7 -53 -10 -101 -5 -75 -4 -88 10 -94 27 -10 48
11 56 58 4 24 17 52 28 63 l20 20 0 -46 c0 -77 43 -91 75 -24 9 19 23 40 31
47 11 9 14 6 14 -18 0 -37 22 -68 43 -60 20 8 32 68 20 104 -13 40 -40 40 -79
2 l-33 -32 -10 25 c-14 36 -40 43 -73 18 -27 -20 -28 -20 -28 -1 0 11 -3 26
-6 35 -7 19 -53 22 -58 4z"/>
<path d="M7300 14049 c-52 -21 -62 -38 -54 -96 7 -62 -6 -104 -43 -128 -47
-31 -57 -15 -50 80 7 101 -4 145 -37 145 -12 0 -31 -7 -42 -16 -16 -13 -16
-15 -2 -10 10 3 19 2 21 -2 3 -4 1 -47 -3 -97 -10 -118 3 -155 54 -155 23 0
45 9 67 27 46 39 61 82 53 153 -7 67 -6 68 96 79 30 3 55 11 55 16 0 14 -84
17 -115 4z"/>
<path d="M9383 13986 c-15 -13 -24 -28 -20 -33 5 -4 13 0 18 10 18 32 29 18
29 -37 0 -91 38 -156 91 -156 40 0 53 24 59 109 l5 76 60 2 c33 1 67 2 75 2
12 1 12 4 -2 17 -10 11 -34 17 -67 17 -70 1 -85 -15 -91 -101 -4 -52 -9 -68
-22 -70 -22 -4 -35 22 -47 97 -15 95 -37 111 -88 67z"/>
<path d="M8198 13943 c-32 -8 -19 -20 24 -21 56 -3 78 -10 78 -28 0 -15 -12
-27 -77 -74 -69 -49 -54 -90 32 -90 75 0 125 11 125 26 0 10 -15 14 -53 14
-30 0 -57 3 -60 6 -3 4 13 20 36 37 50 36 57 45 57 74 0 39 -37 63 -94 62 -28
-1 -59 -3 -68 -6z"/>
<path d="M4599 13914 c-8 -10 -15 -51 -17 -113 -4 -81 -1 -99 12 -111 32 -26
44 5 48 125 3 94 1 110 -13 113 -9 1 -22 -5 -30 -14z"/>
<path d="M5512 13900 c-7 -12 -26 -26 -43 -32 -37 -13 -43 -58 -6 -58 20 0 22
-4 19 -49 -3 -39 0 -50 14 -55 25 -10 37 7 53 77 21 95 20 131 -4 135 -12 1
-25 -6 -33 -18z"/>
<path d="M7725 13870 c-3 -5 -4 -14 -1 -19 8 -13 269 -8 273 6 2 6 -6 13 -19
17 -38 10 -246 7 -253 -4z"/>
<path d="M7357 13833 c-4 -3 -7 -43 -7 -88 0 -92 15 -128 47 -109 14 9 19 27
21 87 2 42 -2 86 -8 97 -10 19 -40 27 -53 13z"/>
<path d="M11233 13829 c-47 -14 -60 -42 -68 -144 -7 -88 -17 -125 -34 -125
-16 0 -31 62 -31 131 0 121 -24 148 -108 124 -54 -16 -112 -71 -112 -105 0
-11 0 -22 0 -25 0 -15 15 -2 16 14 1 11 4 26 7 35 7 18 78 56 107 56 18 0 20
-6 20 -81 0 -98 15 -154 48 -180 63 -49 92 -10 101 136 4 75 11 109 22 120 9
9 43 19 78 23 34 4 63 12 64 17 3 13 -70 16 -110 4z"/>
<path d="M5597 13813 c-19 -18 2 -23 101 -23 117 0 182 8 182 21 0 10 -273 12
-283 2z"/>
<path d="M4196 13750 c-20 -18 -36 -38 -36 -46 0 -8 -4 -14 -10 -14 -5 0 -10
-7 -10 -15 0 -9 9 -15 21 -15 16 0 20 5 16 19 -5 22 8 47 32 60 16 9 17 2 13
-124 -4 -115 -2 -138 12 -160 13 -19 24 -25 44 -23 45 5 75 80 80 198 3 53 9
98 15 102 6 4 40 10 75 14 77 8 80 30 3 28 -75 -2 -101 -23 -101 -82 0 -111
-38 -236 -61 -201 -5 8 -6 64 -3 124 8 158 -18 197 -90 135z"/>
<path d="M10294 13755 c-34 -18 -58 -54 -67 -103 -5 -24 -3 -34 8 -38 25 -10
36 5 20 29 -13 20 -12 26 5 55 28 46 63 46 128 1 77 -55 143 -58 188 -7 11 11
29 24 42 29 25 9 29 27 9 35 -8 3 -29 -9 -46 -26 -43 -39 -82 -39 -146 1 -59
38 -100 45 -141 24z"/>
<path d="M9187 13753 c-4 -3 -7 -29 -7 -58 0 -57 18 -92 44 -82 19 7 23 95 6
128 -11 19 -31 25 -43 12z"/>
<path d="M6540 13670 c0 -50 26 -100 51 -100 20 0 21 3 16 51 -7 57 -20 79
-48 79 -14 0 -19 -7 -19 -30z"/>
<path d="M4795 13612 c-3 -3 -5 -11 -5 -19 0 -10 27 -13 124 -13 73 0 127 4
131 10 3 6 0 12 -7 14 -21 7 -237 14 -243 8z"/>
<path d="M11341 13551 c-6 -11 -11 -72 -11 -136 0 -98 3 -117 16 -122 9 -3 24
-2 33 4 13 9 16 31 16 139 0 125 -1 129 -22 132 -14 2 -26 -4 -32 -17z"/>
<path d="M10395 13528 c-75 -26 -127 -93 -67 -86 21 2 27 8 25 25 -3 22 3 26
63 38 27 5 37 1 69 -29 29 -28 46 -36 74 -36 38 0 191 50 191 63 0 12 -44 8
-90 -8 -55 -19 -104 -19 -121 1 -33 40 -87 52 -144 32z"/>
<path d="M4834 13518 c-14 -23 19 -30 133 -29 107 2 160 13 122 25 -30 10
-250 13 -255 4z"/>
<path d="M4471 13506 c-15 -18 -33 -132 -29 -183 3 -33 6 -38 28 -38 29 0 37
28 42 150 2 66 0 80 -13 83 -9 1 -21 -4 -28 -12z"/>
<path d="M8361 13350 c-58 -22 -106 -40 -108 -40 -2 0 -3 -7 -3 -15 0 -24 49
-18 119 15 35 17 66 29 68 27 5 -6 -70 -73 -189 -169 -73 -59 -103 -78 -126
-78 -44 0 -46 12 -6 39 38 27 51 59 35 90 -14 25 -67 36 -105 21 -35 -13 -25
-27 24 -32 l35 -3 -52 -52 c-29 -28 -53 -57 -53 -65 0 -24 23 -38 64 -38 36
-1 39 -2 24 -14 -22 -16 -417 -30 -455 -15 -25 9 -63 -3 -63 -21 0 -29 45 -32
248 -21 112 7 206 11 208 9 2 -2 -39 -41 -91 -86 -90 -79 -94 -81 -97 -56 -3
31 -28 50 -52 41 -12 -5 -16 -20 -16 -68 0 -57 -3 -64 -40 -106 -36 -42 -48
-63 -35 -63 3 0 21 18 41 40 31 34 38 38 55 27 24 -15 53 1 57 31 2 11 22 38
45 59 l42 38 5 -35 c8 -52 43 -54 86 -3 29 33 33 35 34 16 0 -32 41 -76 63
-68 31 13 17 118 -18 132 -10 3 -34 -7 -59 -25 -41 -29 -43 -30 -54 -11 -7 11
-23 19 -38 19 -22 0 -17 7 43 60 60 52 73 60 110 60 23 0 48 3 57 6 28 11 17
24 -20 24 -60 0 -24 26 47 34 63 7 77 26 25 36 -25 5 -19 12 91 102 105 86
119 94 125 76 13 -32 40 -16 61 36 21 50 16 78 -14 83 -8 2 -61 -15 -118 -37z"/>
<path d="M8611 13352 c-50 -25 -70 -59 -77 -128 -6 -59 -5 -63 20 -79 33 -22
60 -15 120 32 48 37 86 96 86 132 0 27 -46 61 -84 61 -17 0 -46 -8 -65 -18z
m127 -35 c10 -50 -70 -137 -125 -137 -24 0 -25 2 -18 53 9 63 9 64 49 88 38
24 89 22 94 -4z"/>
<path d="M7632 13303 c-5 -10 -12 -55 -15 -100 -5 -66 -3 -85 9 -98 9 -8 19
-15 23 -15 14 0 31 24 31 45 0 12 16 44 35 71 l35 49 0 -31 c0 -57 53 -73 77
-24 7 14 24 37 38 50 l26 25 -6 -51 c-6 -40 -4 -54 9 -67 19 -18 43 -13 50 11
14 49 16 103 6 121 -15 29 -40 26 -80 -9 -43 -36 -46 -36 -54 -5 -11 42 -49
33 -88 -21 l-33 -47 -3 44 c-5 64 -39 93 -60 52z"/>
<path d="M6724 13167 c-38 -35 -79 -67 -92 -71 -16 -6 -22 -14 -20 -29 4 -30
52 -31 56 -1 2 11 24 41 49 65 29 28 43 37 39 24 -19 -50 -43 -161 -39 -173 3
-7 15 -12 27 -10 17 2 27 21 54 103 54 167 34 192 -74 92z"/>
<path d="M6982 13178 c-7 -7 -12 -24 -12 -39 0 -24 -5 -28 -47 -36 -32 -5 -48
-13 -48 -23 0 -16 22 -18 68 -6 l28 7 -1 -53 c-2 -78 -2 -80 21 -76 18 2 25
15 38 68 15 59 19 65 45 70 39 7 39 24 0 28 -24 2 -34 10 -45 34 -16 36 -29
44 -47 26z"/>
<path d="M8231 12871 c-14 -26 -14 -90 0 -130 9 -24 16 -31 33 -29 17 2 23 13
30 61 6 36 6 68 0 85 -12 34 -48 41 -63 13z"/>
<path d="M8485 12468 c-87 -76 -112 -218 -39 -218 31 0 106 59 146 114 72 100
-15 185 -107 104z m119 -13 c12 -33 -42 -113 -95 -140 -37 -20 -39 -19 -39 11
0 51 68 144 106 144 12 0 24 -7 28 -15z"/>
<path d="M8188 12412 c-59 -19 -78 -31 -78 -44 0 -24 14 -23 107 7 42 13 79
23 81 21 2 -2 -71 -61 -163 -130 -138 -105 -170 -124 -185 -116 -23 12 -70 13
-89 1 -15 -10 -8 -15 32 -25 15 -3 27 -10 27 -15 0 -5 -47 -50 -104 -99 l-105
-90 -108 -7 c-59 -4 -119 -9 -133 -10 -14 -2 -33 -4 -42 -4 -21 -1 -24 -26 -5
-34 6 -2 37 -1 67 4 30 4 82 8 115 8 l60 0 -25 -21 c-14 -11 -37 -25 -52 -30
-16 -6 -28 -17 -28 -27 0 -10 -55 -70 -123 -134 l-124 -116 -489 -15 c-269 -9
-597 -21 -730 -26 -133 -6 -291 -10 -351 -10 -121 0 -173 -7 -173 -23 0 -11
602 -4 1005 12 127 6 338 13 470 16 l240 7 -25 -27 c-14 -15 -35 -31 -48 -36
-13 -5 -22 -15 -20 -22 6 -17 48 -22 48 -4 0 7 15 31 33 52 l34 39 1089 -2
c599 -1 1209 -5 1357 -8 l267 -7 0 22 0 21 -397 0 c-219 0 -821 3 -1337 7
l-939 6 104 98 104 97 3 -33 c2 -19 9 -39 17 -45 21 -17 55 -3 55 23 0 13 7
33 16 46 l16 23 12 -24 c15 -29 47 -30 61 -2 27 54 55 70 55 31 0 -35 22 -59
51 -55 21 3 24 7 21 37 -9 84 -40 103 -97 57 -27 -22 -31 -22 -52 -9 -21 14
-25 13 -57 -19 l-34 -34 -5 29 c-3 23 4 36 42 73 l46 44 98 0 c76 0 97 3 97
14 0 10 -20 16 -72 21 l-72 7 44 38 c41 35 45 37 57 20 16 -23 148 -39 166
-21 16 16 -4 27 -60 36 -50 7 -54 19 -14 40 22 11 31 23 33 47 3 28 20 45 158
148 l155 117 3 -38 c3 -41 27 -58 50 -36 16 16 29 131 16 140 -31 19 -103 14
-176 -11z"/>
<path d="M8710 12228 c1 -7 21 -26 46 -42 125 -79 138 -234 33 -390 -54 -81
-59 -96 -30 -96 28 0 88 73 127 155 28 57 34 81 34 135 0 79 -31 152 -81 194
-55 47 -129 72 -129 44z"/>
<path d="M7293 12173 c-135 -210 -189 -409 -137 -508 19 -37 94 -105 115 -105
23 0 20 32 -5 51 -100 79 -74 296 64 519 45 73 50 100 20 100 -14 0 -32 -19
-57 -57z"/>
<path d="M7716 12140 c-33 -37 -36 -38 -46 -20 -13 24 -52 26 -71 4 -12 -15
-14 -14 -19 7 -7 30 -46 38 -54 12 -3 -10 -8 -51 -12 -90 -6 -64 -4 -73 11
-79 30 -12 50 10 53 58 2 30 10 52 23 63 19 18 19 17 19 -22 0 -74 57 -84 71
-13 4 18 21 47 38 64 l32 31 -7 -55 c-5 -43 -3 -59 9 -68 33 -28 57 6 57 84 0
75 -47 86 -104 24z"/>
<path d="M9135 12078 c-10 -6 -33 -14 -50 -18 -21 -4 -30 -12 -30 -25 0 -32
35 -31 60 2 13 15 26 25 29 22 3 -3 -1 -60 -9 -127 -16 -130 -12 -162 25 -182
12 -7 32 -9 45 -6 33 8 121 110 153 177 l27 56 66 5 c37 3 71 8 78 12 24 16
-3 26 -68 26 -63 0 -69 2 -79 25 -7 14 -20 25 -31 25 -21 0 -51 -25 -51 -41 0
-23 22 -49 40 -49 11 0 20 -6 20 -13 0 -40 -126 -183 -153 -174 -14 4 -14 54
-2 173 7 76 6 83 -14 103 -24 24 -29 25 -56 9z"/>
<path d="M8654 11979 c-16 -17 -44 -38 -61 -45 -36 -16 -43 -38 -16 -48 12 -5
26 3 45 26 31 37 34 30 18 -51 -11 -60 -1 -91 30 -91 18 0 45 32 35 42 -3 3 0
29 6 59 14 74 14 120 -2 130 -20 13 -23 12 -55 -22z"/>
<path d="M6233 11969 c-17 -5 -43 -23 -57 -40 -22 -26 -26 -40 -26 -99 0 -51
-5 -73 -18 -90 -38 -46 -52 -4 -30 89 10 43 9 53 -6 75 -18 28 -53 34 -87 16
-29 -16 -23 -27 13 -22 29 4 31 3 24 -19 -15 -56 -19 -168 -6 -184 19 -23 73
-19 99 8 18 20 22 38 25 111 2 61 8 92 18 102 19 19 85 35 114 28 29 -7 40 12
15 25 -23 13 -34 13 -78 0z"/>
<path d="M8163 11904 c-3 -7 -2 -17 1 -22 8 -14 244 -8 258 6 17 17 -1 20
-136 25 -89 2 -119 0 -123 -9z"/>
<path d="M4799 11869 c-13 -25 -24 -196 -15 -233 7 -29 40 -36 50 -11 3 9 10
66 16 127 8 82 8 114 -1 124 -16 20 -37 17 -50 -7z"/>
<path d="M5690 11874 c-31 -11 -60 -28 -60 -34 0 -4 22 -5 48 -2 54 5 112 -18
112 -43 0 -8 -22 -31 -50 -52 -102 -76 -87 -132 39 -141 57 -4 71 -2 71 9 0 9
-21 20 -52 29 -28 8 -53 20 -55 27 -3 7 21 28 51 49 31 20 58 45 62 56 7 22
-16 61 -49 82 -25 17 -94 28 -117 20z"/>
<path d="M6632 11853 c-34 -3 -43 -8 -40 -21 3 -15 20 -17 178 -13 96 2 177 5
179 7 2 2 1 10 -2 19 -5 13 -28 15 -139 13 -73 -1 -152 -3 -176 -5z"/>
<path d="M9492 11807 c-15 -17 0 -33 36 -39 20 -3 18 -7 -24 -38 -60 -44 -72
-63 -55 -84 21 -25 216 -17 216 9 0 6 -20 11 -45 13 -25 1 -56 5 -68 8 -23 5
-22 6 17 34 45 33 55 72 23 89 -35 19 -88 23 -100 8z"/>
<path d="M6257 11779 c-38 -22 -2 -169 42 -169 29 0 31 9 18 89 -11 76 -28 98
-60 80z"/>
<path d="M7920 11771 c-18 -34 -12 -99 11 -122 31 -31 49 -10 49 57 0 71 -36
110 -60 65z"/>
<path d="M4358 11699 c-60 -63 -69 -83 -42 -93 23 -9 36 3 30 28 -4 17 3 31
24 51 29 28 30 28 30 6 0 -12 -12 -68 -27 -124 -32 -122 -35 -199 -11 -223 25
-26 70 -21 112 11 55 42 84 99 97 190 14 101 28 115 111 115 78 0 76 24 -3 28
-44 2 -59 -2 -82 -20 -24 -19 -30 -35 -38 -97 -11 -81 -34 -134 -71 -167 -79
-71 -92 -5 -38 194 25 91 28 126 10 147 -22 26 -43 17 -102 -46z"/>
<path d="M12260 11715 c-24 -29 0 -59 48 -58 17 1 15 -54 -4 -110 -19 -55 -81
-129 -124 -147 -51 -21 -55 -5 -26 115 22 90 25 114 15 142 -8 26 -16 33 -35
33 -14 0 -34 -5 -44 -10 -21 -11 -70 -88 -70 -109 0 -22 23 -6 25 18 1 12 16
37 33 54 l32 32 0 -40 c0 -22 -9 -74 -20 -115 -25 -97 -26 -142 -1 -164 30
-27 73 -12 138 47 68 62 103 131 103 202 l0 50 53 3 c126 7 147 34 29 38 -59
1 -88 7 -101 18 -22 20 -35 20 -51 1z"/>
<path d="M11423 11701 c-55 -26 -66 -49 -58 -122 7 -56 6 -60 -23 -89 -31 -30
-56 -38 -67 -20 -3 5 8 44 25 86 36 89 36 98 10 124 -34 34 -102 7 -140 -57
-22 -38 -19 -53 12 -53 17 0 20 4 15 30 -7 35 13 60 48 60 22 0 23 -2 14 -36
-6 -19 -19 -56 -30 -81 -27 -62 -25 -99 6 -119 23 -15 27 -15 71 6 67 33 85
68 78 151 -6 61 -5 67 17 82 13 9 49 22 81 28 32 6 58 16 58 20 0 16 -74 9
-117 -10z"/>
<path d="M10938 11688 c-16 -5 -28 -16 -28 -24 0 -12 10 -13 49 -8 43 6 50 4
55 -14 11 -32 -11 -71 -84 -149 -117 -125 -109 -155 39 -151 77 2 96 6 96 18
0 11 -18 17 -70 24 -38 5 -72 10 -74 12 -3 2 30 39 72 83 90 92 103 118 82
167 -20 49 -73 66 -137 42z"/>
<path d="M10445 11650 c-52 -25 -85 -54 -85 -75 0 -24 44 -15 48 10 10 54 71
60 102 10 46 -74 101 -85 168 -33 23 18 42 38 42 45 0 18 -4 17 -46 -12 -20
-14 -43 -25 -51 -25 -7 0 -35 23 -62 50 -27 28 -55 50 -62 50 -8 0 -32 -9 -54
-20z"/>
<path d="M11865 11597 c-8 -13 -18 -37 -21 -55 l-6 -32 -54 6 c-46 6 -54 4
-54 -10 0 -18 37 -36 75 -36 22 0 24 -5 27 -52 2 -41 7 -54 20 -56 20 -4 33
22 43 81 4 22 11 37 20 37 21 0 65 22 65 32 0 6 -17 7 -39 3 l-39 -6 8 43 c12
63 -15 90 -45 45z"/>
<path d="M5060 11543 c-8 -2 -22 -7 -30 -9 -36 -12 21 -24 118 -24 80 0 102 3
102 14 0 21 -141 36 -190 19z"/>
<path d="M11511 11447 c-11 -29 -69 -77 -86 -71 -17 7 -37 -20 -29 -40 10 -26
35 -19 69 21 l32 38 -1 -85 c-1 -84 -1 -85 24 -85 24 0 26 4 38 85 17 117 13
154 -15 158 -17 3 -26 -3 -32 -21z"/>
<path d="M4984 11435 c-3 -8 -3 -18 0 -24 7 -11 197 -3 210 10 14 12 -8 17
-112 23 -74 4 -94 2 -98 -9z"/>
<path d="M10676 11429 c-12 -8 -51 -9 -113 -4 -92 7 -95 6 -134 -21 -43 -29
-46 -47 -10 -52 19 -3 22 1 19 20 -3 26 0 26 147 12 62 -5 73 -4 98 16 40 32
35 53 -7 29z"/>
<path d="M4577 11393 c-15 -8 -25 -18 -22 -24 8 -12 35 -12 35 1 0 6 9 10 20
10 11 0 20 -3 20 -7 0 -10 -27 -51 -63 -97 -31 -38 -32 -62 -5 -80 14 -8 30
-4 74 19 72 39 141 115 104 115 -5 0 -10 -4 -10 -9 0 -14 -59 -57 -90 -66 -23
-7 -22 -5 13 34 21 23 37 51 37 65 0 52 -54 70 -113 39z"/>
<path d="M7909 11369 c-10 -6 -15 -35 -18 -100 -3 -79 -1 -95 14 -105 28 -21
55 0 55 42 0 33 19 82 44 113 9 11 12 5 16 -29 6 -49 29 -72 58 -54 9 6 18 22
20 36 2 14 14 36 27 48 l24 23 -2 -73 c-2 -60 1 -74 16 -84 26 -16 43 11 51
83 13 112 -26 142 -96 74 -26 -25 -38 -32 -38 -21 0 48 -66 46 -98 -3 l-19
-31 -7 40 c-6 42 -23 56 -47 41z"/>
<path d="M9023 11326 c-50 -48 -56 -59 -60 -103 -5 -45 -3 -52 23 -72 34 -27
66 -22 107 17 60 57 90 171 52 198 -35 26 -64 16 -122 -40z m124 8 c9 -25 -15
-89 -46 -123 -34 -36 -67 -40 -76 -10 -10 29 14 97 35 104 10 3 25 14 35 25
22 24 43 26 52 4z"/>
<path d="M8695 11355 c-27 -7 -64 -14 -82 -14 -17 -1 -35 -6 -39 -12 -13 -22
13 -28 79 -18 38 6 70 9 73 7 2 -2 -71 -55 -162 -116 -138 -93 -172 -112 -203
-112 -59 0 -56 11 10 44 65 33 82 56 68 94 -10 28 -70 54 -112 50 -43 -4 -46
-25 -3 -33 38 -8 62 -28 51 -45 -4 -6 -38 -26 -76 -46 -39 -19 -73 -42 -76
-51 -12 -30 12 -48 68 -53 51 -5 53 -6 31 -18 -16 -9 -89 -15 -235 -20 -179
-6 -212 -9 -212 -22 0 -13 27 -15 188 -13 l187 2 -98 -79 c-78 -62 -104 -78
-122 -73 -23 6 -40 -9 -40 -39 0 -9 -75 -91 -167 -182 -92 -91 -164 -168 -160
-172 4 -5 76 60 160 144 84 84 156 152 160 152 4 0 7 -14 7 -31 0 -62 46 -94
70 -49 6 11 8 20 5 20 -4 0 8 27 26 60 17 33 35 60 40 60 4 0 11 -16 15 -35
10 -57 54 -74 78 -30 19 34 67 95 76 95 4 0 11 -20 14 -45 8 -53 36 -91 59
-82 32 12 14 115 -25 149 -17 16 -23 16 -46 4 -15 -8 -40 -28 -56 -45 l-29
-31 -19 30 c-10 17 -26 30 -36 30 -22 0 -63 -41 -88 -90 l-19 -35 -3 43 c-4
49 -12 40 140 157 l96 75 70 0 c39 0 77 3 86 6 32 12 15 24 -33 24 -28 0 -52
4 -55 9 -12 18 25 33 88 33 47 1 66 5 66 15 0 7 -12 15 -27 19 -16 3 -31 6
-35 7 -4 1 68 52 160 114 92 61 168 110 170 108 2 -1 -2 -33 -9 -70 -8 -50 -8
-70 0 -78 21 -21 45 7 59 69 12 52 12 64 -2 97 -14 32 -20 37 -49 36 -17 -1
-54 -7 -82 -14z"/>
<path d="M12402 11342 c-35 -10 -27 -26 15 -32 l38 -5 -48 -52 c-35 -37 -48
-58 -45 -75 3 -20 8 -23 43 -22 50 1 155 32 155 45 0 6 -24 7 -62 3 l-63 -6
36 38 c48 51 53 70 29 94 -20 20 -54 24 -98 12z"/>
<path d="M6923 11298 c-6 -7 -13 -26 -17 -42 -10 -41 -66 -116 -86 -116 -10 0
-23 -7 -31 -16 -17 -21 0 -49 32 -49 18 0 25 6 27 25 2 13 11 34 19 45 14 19
15 18 9 -15 -16 -83 -18 -147 -7 -168 16 -29 49 -29 55 1 60 326 61 341 30
345 -11 2 -25 -3 -31 -10z"/>
<path d="M7246 11255 c-10 -10 -16 -33 -16 -59 0 -43 0 -43 -41 -49 -23 -3
-52 -1 -65 3 -33 13 -56 2 -52 -24 3 -20 8 -21 80 -18 l77 3 3 -33 c2 -25 8
-33 23 -33 15 0 21 10 27 41 8 37 13 42 48 53 53 16 53 35 0 26 l-40 -7 0 45
c0 53 -19 76 -44 52z"/>
<path d="M8460 10774 c-12 -31 -13 -204 -1 -222 5 -8 17 -12 27 -10 17 3 20
17 27 116 5 62 6 120 3 128 -9 24 -46 17 -56 -12z"/>
<path d="M3038 10415 c-88 -15 -148 -35 -148 -48 0 -5 14 -7 33 -3 17 4 61 10
96 13 53 5 63 4 59 -8 -61 -166 -71 -241 -32 -247 20 -3 26 10 64 125 24 70
47 134 53 141 5 6 31 12 57 12 59 0 110 10 110 21 0 13 -203 9 -292 -6z"/>
<path d="M3252 10358 c-36 -46 -106 -223 -95 -241 4 -7 -33 -8 -120 -4 -122 6
-127 6 -127 -13 0 -19 7 -20 148 -20 144 0 215 10 228 32 5 7 -7 9 -38 4 l-46
-7 23 65 c12 35 37 89 54 120 18 31 30 60 26 66 -9 14 -41 13 -53 -2z"/>
<path d="M4902 10340 c-125 -19 -146 -81 -43 -133 37 -18 47 -28 40 -38 -14
-23 -10 -48 11 -69 38 -38 140 -19 140 27 0 21 -49 53 -126 83 -45 17 -90 40
-100 51 -33 36 -7 44 164 46 146 1 196 11 140 27 -41 11 -171 15 -226 6z m102
-186 c9 -3 16 -12 16 -20 0 -22 -48 -17 -60 6 -9 17 -8 20 9 20 11 0 26 -3 35
-6z"/>
<path d="M6853 10343 c-19 -7 -16 -37 6 -50 10 -6 28 -31 40 -55 38 -80 23
-188 -36 -250 -25 -26 -24 -48 3 -48 23 0 96 72 115 115 10 22 19 52 19 67 1
92 -97 238 -147 221z"/>
<path d="M6501 10274 c-72 -113 -70 -281 5 -300 31 -8 42 2 27 25 -23 36 -25
90 -9 165 10 41 26 86 37 99 27 35 25 57 -6 57 -19 0 -33 -11 -54 -46z"/>
<path d="M3592 10230 c-36 -22 -72 -75 -72 -106 0 -29 31 -54 68 -54 17 0 69
20 117 44 71 36 85 41 85 26 0 -23 32 -50 59 -50 27 0 54 14 104 52 l37 30 0
-36 c0 -25 6 -38 21 -46 17 -10 30 -6 80 24 42 25 59 31 59 21 0 -8 9 -24 20
-35 35 -35 142 -21 179 23 31 38 -20 97 -84 97 -14 0 -34 6 -46 13 -18 11 -24
8 -57 -30 -38 -42 -69 -63 -95 -63 -12 0 -13 7 -5 41 9 34 8 43 -6 57 -15 15
-19 13 -58 -24 -57 -54 -88 -74 -115 -74 -16 0 -23 6 -23 19 0 54 -25 64 -75
30 -86 -58 -182 -88 -199 -61 -6 11 39 79 56 85 7 2 23 -3 35 -10 12 -8 27
-12 33 -8 19 12 10 32 -17 39 -16 3 -37 8 -48 11 -11 3 -34 -3 -53 -15z m726
-46 c30 -8 28 -38 -3 -52 -65 -30 -123 1 -76 40 24 19 41 22 79 12z"/>
<path d="M4454 10230 c-55 -22 -85 -108 -45 -130 25 -13 142 -13 177 0 23 9
30 7 50 -15 27 -29 41 -31 91 -10 50 21 73 43 73 71 0 25 -43 54 -80 54 -28 0
-77 -26 -89 -47 -7 -14 -26 -18 -83 -21 -90 -4 -108 6 -85 41 11 17 28 27 49
29 22 2 34 9 36 21 3 14 -4 17 -35 16 -21 0 -48 -4 -59 -9z m326 -74 c0 -20
-32 -45 -37 -28 -3 6 -11 12 -19 12 -25 0 -15 19 14 23 15 2 30 5 35 6 4 0 7
-5 7 -13z"/>
<path d="M6795 10218 c-59 -32 -115 -112 -115 -163 0 -54 70 -92 121 -65 28
16 23 45 -12 74 -35 30 -37 25 35 103 42 46 23 80 -29 51z m-7 -175 c6 -19
-25 -16 -32 3 -4 11 -1 14 11 12 9 -2 18 -9 21 -15z"/>
<path d="M5573 10140 c-23 -14 -33 -27 -33 -44 0 -36 26 -47 73 -30 54 19 57
18 57 -16 0 -24 -8 -35 -39 -55 -73 -46 -111 -102 -80 -120 21 -14 79 -6 113
14 36 23 64 70 73 125 5 34 -16 94 -45 129 -20 23 -79 22 -119 -3z m117 -20
c0 -5 -15 -10 -32 -10 -25 0 -29 3 -18 10 20 13 50 13 50 0z m-30 -141 c0 -16
-56 -69 -74 -69 -27 0 -18 19 26 50 46 34 48 34 48 19z"/>
<path d="M6186 10141 c-9 -10 -21 -32 -25 -47 -10 -38 -63 -47 -81 -15 -15 28
-38 26 -66 -5 -31 -33 -87 -31 -92 3 -4 29 -22 42 -63 45 -31 3 -36 -1 -59
-44 -23 -44 -24 -49 -8 -64 20 -20 48 -12 55 16 5 20 6 19 29 -5 28 -30 67
-32 110 -6 26 16 33 17 49 5 23 -17 48 -17 95 -1 30 11 40 9 79 -10 52 -27
111 -31 111 -8 0 8 -9 15 -19 15 -11 0 -32 11 -48 24 -26 22 -27 25 -12 43 27
31 30 52 9 63 -27 15 -45 12 -64 -9z"/>
<path d="M3036 10012 c-7 -12 11 -27 45 -35 76 -18 507 -29 1168 -28 403 0
736 3 739 6 3 3 2 8 -2 13 -4 4 -380 10 -834 13 -740 6 -977 14 -1078 35 -18
3 -34 2 -38 -4z"/>
<path d="M3507 9571 c-39 -36 -43 -38 -64 -24 -30 20 -60 9 -80 -30 l-16 -32
-18 43 c-19 44 -53 58 -65 27 -9 -21 35 -124 57 -135 21 -12 53 14 45 36 -6
15 13 64 24 64 4 0 15 -9 25 -20 28 -31 50 -24 89 30 20 28 40 50 45 50 5 0
14 -14 20 -32 14 -41 49 -78 73 -78 33 0 31 27 -6 84 -45 70 -68 73 -129 17z"/>
<path d="M3703 9565 c-3 -9 -3 -41 -1 -71 5 -64 36 -107 61 -86 16 14 13 97
-5 145 -11 30 -45 37 -55 12z"/>
<path d="M3455 9296 c-73 -8 -114 -9 -123 -3 -9 7 -18 5 -29 -6 -14 -14 -15
-88 -14 -697 l1 -683 -113 8 c-173 12 -171 12 -175 -6 -2 -13 9 -17 50 -22
102 -13 812 -7 1014 7 110 8 264 18 343 22 l144 6 -37 -32 c-36 -32 -43 -55
-15 -55 8 0 14 9 14 20 0 18 48 46 59 34 2 -2 -1 -45 -7 -96 -9 -81 -8 -94 7
-117 18 -28 47 -34 65 -12 6 7 16 49 21 92 6 43 17 85 25 93 8 8 33 15 55 15
51 1 53 20 2 24 -57 4 -79 -19 -97 -103 l-14 -70 5 77 c5 84 -4 114 -38 127
-12 4 156 11 373 14 864 15 1078 20 1090 27 6 4 8 13 4 20 -6 10 -84 11 -354
6 l-346 -7 50 28 c56 32 87 77 87 128 0 73 -57 117 -153 118 -48 0 -65 -5
-106 -31 -29 -19 -56 -46 -66 -67 l-17 -35 -232 1 c-228 0 -232 0 -193 17 55
23 65 31 65 49 0 23 -44 11 -148 -39 -74 -37 -87 -47 -90 -70 -3 -24 1 -28 36
-37 78 -21 132 -25 132 -9 0 8 -20 21 -47 30 -46 16 -39 16 211 17 244 1 259
0 280 -19 11 -11 38 -33 60 -50 21 -16 37 -30 35 -30 -2 -1 -164 -5 -359 -10
-321 -9 -555 -20 -980 -50 -80 -5 -243 -10 -362 -10 -201 0 -218 1 -218 18 0
15 13 17 136 17 79 0 139 4 144 10 4 6 10 141 14 300 4 160 9 305 12 323 l6
32 112 0 c105 0 267 14 311 26 13 4 7 -5 -17 -26 -71 -59 -37 -76 50 -25 65
39 78 56 62 85 -16 30 -180 74 -194 52 -11 -18 24 -42 60 -42 19 0 34 -4 34
-9 0 -11 -127 -21 -281 -21 l-128 0 -3 293 c-4 320 -7 338 -61 357 -16 5 -33
9 -36 9 -3 -1 -55 -7 -116 -13z m133 -311 c2 -209 -1 -322 -14 -445 -10 -100
-17 -241 -16 -357 l1 -192 -35 -7 c-40 -7 -160 -1 -170 9 -4 3 -1 64 6 134 9
94 9 172 2 293 -5 91 -11 314 -12 497 l-1 332 48 6 c26 3 55 8 63 10 8 2 40 2
70 2 l55 -2 3 -280z m532 -335 c0 -5 -5 -10 -11 -10 -5 0 -7 5 -4 10 3 6 8 10
11 10 2 0 4 -4 4 -10z m1345 -465 c29 -28 30 -34 11 -80 -20 -48 -68 -75 -132
-75 -47 0 -55 3 -83 35 -35 40 -38 60 -15 94 23 33 70 50 137 51 48 0 62 -4
82 -25z"/>
<path d="M4566 9130 c-53 -16 -66 -37 -66 -104 0 -43 -6 -71 -20 -93 -20 -33
-54 -58 -69 -49 -4 3 -11 38 -14 77 -7 89 -22 108 -66 89 -40 -16 -91 -74 -91
-103 1 -19 3 -17 14 9 12 27 59 74 75 74 3 0 5 -30 3 -68 -3 -57 0 -72 18 -95
30 -38 68 -36 107 6 47 49 63 89 63 156 0 57 1 59 31 70 18 6 45 11 61 11 19
0 28 4 26 13 -6 15 -35 18 -72 7z"/>
<path d="M4621 8976 c-8 -9 -11 -48 -9 -112 3 -93 4 -99 25 -102 16 -2 22 3
27 25 11 59 18 162 11 182 -7 24 -37 28 -54 7z"/>
<path d="M1841 8831 c-12 -7 -6 -13 27 -26 25 -10 49 -30 61 -49 18 -29 19
-36 6 -101 -17 -90 -39 -146 -87 -219 -22 -32 -37 -65 -34 -72 25 -64 145 116
182 270 17 72 17 77 -1 116 -10 23 -31 50 -47 61 -33 24 -87 34 -107 20z"/>
<path d="M1781 8654 c-24 -30 -54 -60 -68 -65 -34 -13 -29 -54 7 -54 19 0 26
6 28 24 4 25 32 75 38 68 2 -2 -3 -36 -12 -76 -13 -55 -14 -75 -5 -84 24 -24
46 9 74 113 15 57 25 110 23 117 -11 27 -43 11 -85 -43z"/>
<path d="M5540 8410 c-16 -31 -6 -168 14 -188 26 -26 50 -4 56 52 4 29 14 55
28 68 18 19 22 20 22 6 0 -9 10 -24 22 -32 27 -19 52 -7 66 33 6 16 19 34 31
40 18 10 20 7 31 -44 13 -64 39 -101 63 -92 20 8 23 58 6 108 -24 71 -58 85
-116 49 -19 -11 -35 -15 -38 -10 -13 21 -51 9 -87 -27 l-38 -37 0 35 c0 55
-38 80 -60 39z"/>
<path d="M5997 8266 c-9 -24 18 -39 43 -26 39 21 31 4 -15 -34 -48 -39 -58
-73 -30 -96 15 -12 115 -9 203 7 54 9 31 27 -31 24 -32 -1 -72 1 -89 4 l-32 7
49 42 c39 34 46 46 41 64 -7 20 -14 22 -71 22 -45 0 -64 -4 -68 -14z"/>
<path d="M4729 7734 c-10 -12 -9 -18 3 -30 13 -13 20 -14 37 -4 12 6 32 10 43
8 21 -3 20 -5 -11 -41 -26 -29 -32 -43 -27 -62 5 -21 12 -25 46 -25 47 0 143
34 162 57 12 15 10 16 -12 9 -102 -31 -144 -27 -105 10 27 25 32 56 13 71 -7
6 -41 13 -75 16 -47 4 -65 2 -74 -9z"/>
<path d="M2845 7148 c-46 -16 -84 -46 -101 -80 -19 -36 -12 -58 18 -58 13 0
18 -3 12 -8 -21 -13 -45 -73 -47 -114 -2 -51 -24 -61 -126 -56 -62 3 -76 7
-92 27 -25 31 -24 86 2 157 23 60 69 118 77 96 6 -19 22 -14 22 7 0 21 -19 31
-57 31 -55 0 -131 -124 -140 -230 -5 -55 -4 -61 24 -88 56 -56 164 -68 251
-27 53 25 53 25 74 5 50 -46 135 -37 201 20 58 51 82 111 74 181 -14 114 -94
172 -192 137z m146 -60 c32 -44 37 -130 11 -178 -27 -49 -76 -80 -127 -80 -64
0 -80 23 -71 105 5 54 4 66 -9 71 -21 8 -19 18 12 55 32 38 75 58 125 59 30 0
41 -6 59 -32z"/>
<path d="M1940 7093 c0 -5 17 -34 39 -65 64 -94 66 -184 5 -264 -38 -50 -42
-64 -16 -64 28 0 61 28 93 78 23 37 29 57 29 101 0 95 -73 221 -127 221 -13 0
-23 -3 -23 -7z"/>
<path d="M3874 7026 c-29 -21 -58 -89 -50 -120 19 -77 147 -81 327 -11 13 5
16 -2 17 -35 2 -50 7 -60 32 -60 29 0 40 30 33 94 -7 66 -23 79 -56 48 -13
-12 -43 -29 -67 -38 -57 -21 -181 -24 -203 -5 -21 17 -22 55 -1 86 19 29 46
34 42 8 -2 -10 4 -19 15 -21 24 -5 21 15 -8 43 -27 28 -51 31 -81 11z"/>
<path d="M4706 7018 c-14 -22 -28 -74 -40 -145 -4 -21 0 -37 10 -48 31 -31 64
-10 64 41 0 26 4 32 28 37 15 3 35 9 45 12 13 6 17 2 17 -18 0 -62 94 -75 191
-27 l60 31 -7 -25 c-3 -13 -1 -34 6 -45 17 -32 48 -26 71 14 22 36 39 45 39
20 0 -39 94 -45 237 -15 51 10 111 29 133 40 l41 21 20 -26 c35 -43 106 -69
161 -58 42 8 34 20 -24 37 -39 12 -69 31 -111 71 -44 42 -64 55 -88 55 -58 0
-109 -41 -109 -88 0 -15 -9 -21 -46 -26 -87 -12 -154 -6 -154 14 0 4 14 24 30
45 34 42 38 63 14 72 -10 4 -35 -15 -77 -58 -45 -46 -63 -59 -65 -47 -2 9 2
26 7 37 16 28 13 68 -4 75 -18 6 -38 -13 -54 -52 -15 -37 -95 -82 -147 -84
-47 -2 -67 22 -58 69 6 30 4 33 -18 33 -13 0 -31 -8 -40 -19 -15 -18 -85 -38
-95 -27 -3 3 0 19 6 37 6 18 11 40 11 50 0 27 -36 24 -54 -3z m875 -79 c-21
-17 -61 -26 -61 -14 0 8 75 44 80 38 3 -3 -6 -13 -19 -24z"/>
<path d="M4401 6993 c-25 -31 -34 -60 -29 -99 7 -65 134 -82 231 -33 46 24 36
38 -15 20 -52 -18 -138 -12 -138 10 0 4 11 19 25 33 14 14 25 32 25 41 0 58
-63 75 -99 28z m75 -38 c-2 -7 -14 -19 -25 -25 -29 -15 -28 8 1 46 19 24 23
26 26 11 2 -10 1 -24 -2 -32z"/>
<path d="M4047 6998 c-56 -20 -23 -32 84 -30 188 4 263 17 213 36 -26 10 -267
5 -297 -6z"/>
<path d="M1788 6987 c-31 -7 -48 -16 -48 -25 0 -11 8 -13 30 -8 17 3 44 9 60
12 45 10 37 -8 -29 -66 -67 -58 -76 -73 -60 -102 10 -19 18 -20 83 -16 75 6
163 35 149 49 -5 5 -24 4 -43 -1 -19 -6 -57 -10 -85 -10 l-50 0 63 58 c64 60
73 80 46 106 -17 18 -45 18 -116 3z"/>
<path d="M5907 6964 c-10 -11 3 -24 24 -24 10 0 19 7 19 15 0 15 -31 21 -43 9z"/>
<path d="M3344 6946 c-11 -29 8 -34 119 -29 81 4 107 9 107 19 0 11 -19 14
-79 14 -43 0 -92 3 -110 6 -23 5 -32 2 -37 -10z"/>
<path d="M5940 6886 c-16 -21 -9 -60 13 -64 25 -5 47 16 47 43 0 33 -38 46
-60 21z"/>
<path d="M3840 6447 c-25 -57 -41 -196 -28 -245 12 -44 35 -72 59 -72 27 0 30
14 13 49 -13 27 -14 45 -3 139 17 156 17 166 -4 170 -13 3 -23 -9 -37 -41z"/>
<path d="M4607 6463 c-14 -13 -6 -23 36 -49 23 -14 59 -42 80 -62 34 -33 37
-41 37 -89 0 -46 -4 -58 -35 -92 -40 -44 -42 -51 -16 -51 56 0 121 76 121 142
0 53 -50 122 -121 168 -60 38 -88 48 -102 33z"/>
<path d="M4163 6405 c-15 -10 -23 -30 -28 -67 -8 -59 -20 -88 -37 -88 -7 0 -8
19 -4 58 9 77 2 92 -39 92 -33 0 -95 -45 -95 -69 0 -18 11 -13 32 14 23 29 54
35 43 8 -4 -10 -9 -41 -12 -69 -5 -48 -4 -53 21 -70 57 -36 103 14 105 112 1
49 13 61 65 66 22 2 41 9 44 16 5 18 -68 16 -95 -3z"/>
<path d="M3336 6384 c-3 -9 -11 -120 -16 -248 -5 -127 -14 -316 -20 -421 -6
-104 -13 -280 -16 -391 -6 -235 -6 -236 73 -209 26 9 98 20 160 24 62 4 116
11 120 15 5 4 8 128 8 274 0 155 5 305 12 357 7 50 22 180 34 290 17 163 19
208 10 243 -15 52 -29 59 -148 67 -48 3 -116 8 -149 10 -51 4 -63 2 -68 -11z
m234 -41 l62 -6 -6 -101 c-4 -56 -13 -157 -21 -226 -42 -368 -49 -490 -37
-599 7 -59 12 -134 12 -167 l0 -60 -92 -12 c-51 -7 -104 -15 -118 -18 l-25 -5
7 158 c4 87 12 255 18 373 5 118 13 317 17 443 l6 227 57 0 c31 0 85 -3 120
-7z"/>
<path d="M4560 6353 c-32 -6 -50 -29 -50 -65 0 -62 100 -77 148 -23 27 32 28
49 2 75 -19 19 -45 23 -100 13z m100 -38 c0 -20 -43 -47 -64 -39 -21 8 -21 41
2 47 37 10 62 7 62 -8z"/>
<path d="M4249 6323 c-15 -18 -2 -33 28 -33 51 0 154 22 150 33 -5 15 -165 16
-178 0z"/>
<path d="M4438 6295 c-3 -3 -41 -9 -84 -13 -64 -6 -79 -10 -82 -25 -2 -9 3
-20 12 -23 19 -7 186 43 186 56 0 11 -23 14 -32 5z"/>
<path d="M2670 6015 c-11 -13 -11 -26 -2 -66 7 -28 12 -79 12 -114 0 -69 13
-89 52 -83 21 3 23 8 23 58 0 39 6 65 20 85 l19 30 8 -30 c4 -16 9 -42 13 -57
10 -51 75 -44 75 9 0 28 22 74 44 92 12 10 17 7 30 -18 9 -16 21 -52 27 -80
10 -49 26 -65 54 -55 24 9 27 42 10 93 -19 58 -56 101 -86 101 -12 0 -37 -16
-56 -36 -19 -20 -35 -35 -37 -33 -2 2 -9 14 -15 27 -16 29 -52 28 -81 -3 -13
-14 -27 -25 -31 -25 -4 0 -11 20 -15 45 -9 65 -38 91 -64 60z"/>
<path d="M3099 5868 c-15 -28 -6 -135 15 -176 18 -35 37 -40 56 -17 16 19 8
178 -10 200 -18 22 -47 18 -61 -7z"/>
<path d="M5448 5773 c-9 -11 -18 -47 -22 -96 -3 -43 -11 -87 -16 -97 -22 -41
-31 -20 -29 68 1 49 -1 94 -5 100 -22 36 -107 -21 -106 -71 1 -18 3 -16 14 9
8 18 19 35 26 39 10 6 11 -13 5 -83 -7 -89 -7 -91 19 -117 25 -24 29 -26 49
-13 38 25 57 76 57 153 0 81 8 98 44 99 32 1 35 20 3 24 -13 2 -30 -5 -39 -15z"/>
<path d="M4974 5740 c-30 -12 -35 -22 -50 -103 -14 -70 -33 -105 -52 -94 -5 4
-12 40 -15 80 -8 90 -13 104 -39 113 -41 13 -122 -82 -97 -113 6 -7 15 -10 21
-7 5 3 5 11 -2 19 -9 10 -4 21 19 47 l30 33 1 -88 c0 -80 2 -90 25 -112 57
-58 105 -16 123 106 12 83 23 99 68 99 24 0 34 5 34 15 0 17 -32 19 -66 5z"/>
<path d="M5171 5661 c-6 -11 -11 -28 -11 -38 0 -11 -12 -23 -30 -30 -16 -6
-30 -15 -30 -20 0 -5 14 -8 30 -5 25 4 30 1 30 -16 0 -11 7 -25 15 -32 23 -19
45 -4 45 29 0 16 5 33 10 36 7 4 8 11 1 18 -5 7 -11 25 -13 42 -4 36 -32 45
-47 16z"/>
<path d="M5485 5612 c-3 -3 -5 -14 -5 -24 0 -27 27 -33 50 -13 37 34 34 5 -3
-31 -39 -39 -44 -53 -25 -72 17 -17 40 -15 122 9 100 30 108 43 19 35 l-71 -6
29 29 c33 33 35 43 14 64 -14 15 -117 22 -130 9z"/>
<path d="M5009 5553 c-14 -37 -6 -120 14 -140 31 -31 47 -9 47 66 0 38 -3 76
-6 85 -10 26 -43 19 -55 -11z"/>
<path d="M5860 5442 c-79 -39 -101 -58 -123 -104 l-22 -48 -390 0 -390 1 40
20 c62 32 81 69 36 69 -30 0 -184 -88 -218 -125 -62 -65 -37 -98 65 -86 84 10
99 26 31 34 -59 7 -68 12 -50 30 9 9 121 13 444 17 l432 5 23 -27 c32 -38 116
-55 168 -33 21 9 46 23 56 32 10 9 19 14 19 12 9 -29 25 -176 20 -180 -11 -11
-597 -28 -1161 -34 -311 -3 -800 0 -1140 7 -855 18 -938 17 -892 -11 12 -7
656 -25 1282 -36 514 -8 1529 11 2080 40 616 32 772 45 778 64 4 12 -21 13
-154 8 -91 -3 -145 -2 -126 3 19 4 39 13 45 20 9 10 -7 11 -73 8 l-86 -4 35
31 c27 25 33 37 28 57 -11 42 -82 61 -141 38 -42 -15 -30 -30 24 -30 69 0 67
-15 -12 -69 -29 -19 -48 -39 -48 -51 0 -24 -20 -27 -217 -36 l-151 -6 3 36 c2
21 17 55 34 78 l31 42 0 -31 c0 -27 21 -63 36 -63 17 0 44 23 44 38 0 24 49
83 50 60 0 -35 23 -68 46 -68 26 0 34 17 34 76 0 94 -40 110 -91 39 -31 -43
-33 -44 -46 -25 -25 35 -59 25 -100 -30 -40 -53 -46 -52 -57 12 -4 20 -17 45
-29 55 -17 14 -21 26 -19 57 8 94 -67 149 -148 108z m114 -38 c23 -23 21 -95
-5 -127 -42 -55 -138 -57 -159 -3 -19 50 8 89 85 126 49 24 59 24 79 4z"/>
<path d="M4798 4813 c-30 -7 -20 -19 31 -41 65 -27 127 -84 145 -135 24 -69
28 -140 10 -189 -29 -79 -30 -90 -3 -86 60 8 100 181 64 275 -40 104 -167 195
-247 176z"/>
<path d="M3882 4738 c-44 -56 -81 -201 -68 -269 9 -51 65 -109 105 -109 37 0
40 14 7 36 -52 34 -60 160 -16 276 12 32 19 62 15 68 -9 14 -30 13 -43 -2z"/>
<path d="M4315 4686 c-42 -18 -60 -42 -80 -106 -38 -115 -70 -130 -71 -32 0
73 -12 90 -51 76 -14 -5 -28 -15 -31 -22 -2 -7 2 -10 11 -6 12 4 14 -6 10 -63
-5 -60 -3 -70 15 -87 47 -42 96 4 132 125 23 77 33 87 91 97 24 4 44 12 44 17
0 15 -37 16 -70 1z"/>
<path d="M4642 4597 c-26 -28 -51 -87 -44 -107 22 -67 123 -66 158 1 21 42 17
67 -15 100 -35 35 -70 37 -99 6z m96 -20 c15 -12 16 -59 0 -75 -18 -18 -65
-15 -72 4 -4 9 0 27 9 40 8 13 15 30 15 38 0 16 23 12 48 -7z"/>
<path d="M4323 4564 c-10 -28 10 -33 110 -27 144 9 110 41 -46 42 -43 1 -59
-3 -64 -15z"/>
<path d="M4371 4503 c-13 -9 -14 -14 -3 -24 10 -11 23 -10 70 1 31 8 57 19 57
25 0 13 -105 12 -124 -2z"/>
<path d="M3324 4485 c-14 -21 -15 -44 -10 -148 3 -67 2 -345 -2 -619 -9 -588
4 -538 -134 -538 -70 0 -88 -3 -88 -14 0 -19 40 -20 785 -28 370 -5 665 -13
815 -23 183 -13 444 -18 1178 -22 856 -4 942 -3 942 11 0 9 -1 17 -2 17 -2 1
-412 5 -913 9 -657 6 -984 13 -1175 25 -146 9 -452 20 -680 23 l-415 7 24 22
c22 20 23 26 18 125 -2 56 -10 148 -17 203 -11 81 -11 157 -2 405 16 389 15
461 -1 484 -11 15 -32 19 -108 23 -138 6 -154 10 -167 38 -15 32 -27 32 -48 0z
m260 -230 c0 -82 -4 -265 -9 -405 -7 -216 -5 -271 8 -360 9 -58 18 -144 19
-192 l3 -87 -50 -11 c-27 -6 -84 -14 -126 -17 l-75 -6 12 98 c8 62 14 283 16
616 l3 520 100 -3 100 -3 -1 -150z"/>
<path d="M6506 3928 c-13 -13 -34 -52 -45 -88 -26 -80 -41 -105 -41 -71 0 13
5 41 11 61 15 51 5 88 -26 96 -42 11 -116 -30 -100 -55 3 -6 14 -2 25 9 20 20
50 27 50 13 -1 -5 -7 -37 -15 -73 -20 -92 -19 -127 4 -140 11 -5 26 -7 34 -4
14 5 45 71 88 187 17 49 25 59 50 64 33 6 40 23 10 23 -11 0 -31 -10 -45 -22z"/>
<path d="M5565 3896 c-48 -48 -39 -142 12 -121 17 6 16 8 -4 22 -13 9 -23 23
-23 32 0 19 27 61 40 61 4 0 10 -38 11 -84 5 -99 26 -139 76 -144 40 -4 51 12
68 99 16 85 40 114 86 104 33 -8 47 10 19 25 -49 26 -102 -19 -120 -103 -21
-102 -45 -102 -55 1 -11 125 -52 166 -110 108z"/>
<path d="M6107 3884 c-4 -4 -7 -24 -7 -44 0 -36 -1 -37 -47 -46 -25 -5 -49
-15 -51 -23 -4 -11 5 -13 45 -8 l50 6 9 -52 c8 -46 12 -52 34 -52 21 0 25 5
26 30 1 86 3 93 29 99 28 7 24 29 -3 24 -12 -3 -20 7 -27 32 -10 34 -40 51
-58 34z"/>
<path d="M6537 3763 c-14 -14 -6 -34 18 -43 32 -12 31 -20 -5 -55 -32 -31 -39
-65 -16 -84 22 -19 240 13 234 34 -2 6 -36 9 -85 6 -46 -2 -83 0 -83 4 0 4 11
20 24 36 32 37 24 64 -25 89 -41 21 -52 24 -62 13z"/>
<path d="M5827 3743 c-13 -12 -7 -149 7 -168 18 -25 42 -13 50 25 8 41 8 113
0 134 -6 16 -45 22 -57 9z"/>
<path d="M4640 3489 c-71 -20 -92 -33 -121 -76 -17 -24 -33 -59 -36 -77 -5
-30 0 -40 37 -79 108 -118 288 -81 307 63 l6 40 351 0 c193 0 410 3 481 7
l130 6 -37 -41 c-37 -41 -42 -72 -11 -72 8 0 34 17 59 37 31 27 44 45 44 64 0
32 -15 45 -107 95 -58 31 -75 36 -85 26 -15 -15 -2 -42 31 -58 12 -6 24 -14
28 -18 3 -3 -196 -6 -443 -6 l-449 0 -17 29 c-31 55 -99 79 -168 60z m144 -62
c18 -22 18 -22 -10 -27 -41 -7 -38 -34 4 -38 37 -4 42 -24 17 -72 -20 -39 -48
-52 -108 -52 -57 0 -93 21 -119 71 -13 26 -14 39 -6 62 11 33 30 45 108 70 62
20 87 17 114 -14z"/>
<path d="M1943 2783 c-21 -8 -15 -23 8 -23 36 0 100 -43 119 -80 25 -49 33
-94 32 -173 -2 -85 -25 -140 -82 -195 -34 -33 -40 -43 -28 -47 40 -16 128 61
166 144 55 121 -1 310 -110 367 -26 14 -80 17 -105 7z"/>
<path d="M3594 2749 c-43 -12 -59 -32 -39 -49 12 -10 15 -10 15 4 0 22 61 21
90 -2 27 -22 20 -42 -26 -77 -19 -14 -34 -35 -34 -45 0 -22 36 -50 63 -50 21
0 93 -35 102 -50 12 -19 -14 -37 -85 -60 -68 -22 -87 -41 -54 -54 28 -11 163
31 197 61 9 9 17 25 17 36 0 19 -62 87 -79 87 -5 0 -26 7 -47 16 l-38 16 31
27 c40 34 46 56 28 91 -24 46 -83 66 -141 49z"/>
<path d="M1803 2703 c-7 -3 -13 -13 -13 -24 0 -16 7 -19 54 -19 80 0 93 -25
33 -63 -35 -23 -31 -36 19 -63 27 -15 38 -26 36 -40 -4 -24 -68 -82 -96 -86
-11 -2 -21 -10 -21 -18 0 -17 35 -25 72 -15 33 8 113 83 113 107 0 27 -26 74
-45 82 -13 5 -13 8 5 26 24 24 25 38 5 67 -20 29 -126 59 -162 46z"/>
<path d="M2548 2690 c-37 -28 -83 -106 -107 -177 -28 -83 -27 -118 4 -148 20
-21 33 -25 82 -24 68 1 145 19 150 35 3 8 -15 10 -59 7 -35 -3 -76 0 -92 6
-28 11 -29 13 -23 69 6 68 50 163 96 206 17 16 28 33 25 38 -9 15 -51 9 -76
-12z"/>
<path d="M2834 2645 c-19 -20 -36 -51 -40 -72 -4 -20 -17 -51 -30 -70 -31 -46
-40 -107 -20 -137 48 -74 202 -47 263 46 54 80 29 200 -51 249 -48 29 -83 25
-122 -16z m130 -16 c107 -84 47 -259 -89 -259 -58 0 -70 12 -69 63 1 56 66
194 97 207 31 12 31 12 61 -11z"/>
<path d="M5171 2576 c-24 -28 -31 -77 -17 -116 l13 -38 -32 -6 c-41 -8 -65 1
-65 24 0 49 -48 71 -69 31 -12 -21 -51 -34 -75 -25 -9 3 -21 23 -27 45 -16 51
-54 87 -77 73 -9 -6 -19 -24 -23 -40 -3 -16 -12 -53 -19 -82 -11 -47 -10 -56
3 -69 20 -20 45 -10 57 22 8 22 13 24 29 15 24 -13 81 -13 101 0 11 7 20 2 35
-16 18 -22 29 -26 72 -26 29 1 66 8 84 17 22 12 44 15 71 11 49 -8 120 3 115
18 -2 6 -17 12 -33 14 -71 6 -71 7 -66 65 2 31 -1 63 -7 76 -13 24 -53 28 -70
7z m69 -58 c0 -9 -4 -20 -10 -23 -6 -4 -10 9 -10 32 0 28 3 34 10 23 5 -8 10
-23 10 -32z"/>
<path d="M4592 2567 c-6 -7 -16 -25 -21 -40 -11 -29 -69 -61 -99 -55 -9 2 -19
17 -24 34 -4 18 -16 35 -25 39 -23 8 -53 -28 -53 -65 0 -19 -7 -30 -25 -38
-36 -17 -48 -15 -68 8 -22 26 -43 25 -58 -2 -16 -31 -28 -38 -65 -38 -32 0
-94 18 -94 27 0 3 16 23 35 44 19 22 35 45 35 52 0 21 -22 37 -51 37 -31 0
-85 -54 -95 -95 -3 -14 -12 -25 -19 -25 -41 0 -22 -44 23 -54 133 -28 148 -29
193 -14 29 10 52 12 68 6 30 -11 87 5 116 32 19 18 27 20 43 11 32 -17 63 -13
111 14 52 30 58 31 66 7 10 -34 89 -55 123 -33 10 6 4 14 -22 29 -33 19 -36
26 -36 65 0 58 -31 87 -58 54z m-492 -46 c-12 -23 -29 -35 -37 -27 -7 7 26 46
39 46 5 0 4 -9 -2 -19z"/>
<path d="M3110 2512 c-16 -6 -12 -49 6 -56 9 -3 20 -3 25 0 5 3 66 12 134 19
128 14 145 19 145 36 0 9 -282 10 -310 1z"/>
<path d="M5472 2503 c2 -10 13 -19 26 -21 17 -3 22 2 22 17 0 16 -6 21 -26 21
-19 0 -25 -5 -22 -17z"/>
<path d="M5451 2401 c-24 -43 -2 -114 33 -109 28 4 56 80 40 106 -16 25 -60
28 -73 3z"/>
<path d="M3321 1918 c-4 -13 -11 -111 -15 -218 -4 -107 -11 -249 -16 -315 -5
-66 -9 -269 -9 -452 -1 -294 1 -333 15 -348 10 -10 23 -13 33 -9 16 7 118 26
203 38 41 6 47 5 53 -14 10 -32 49 -25 78 13 23 30 24 36 11 49 -13 13 -14 44
-5 242 6 125 11 250 11 278 0 39 3 48 13 40 7 -6 171 -13 420 -17 224 -4 407
-11 407 -16 0 -4 -5 -20 -10 -35 -7 -19 -7 -30 1 -40 19 -23 37 -16 69 28 38
52 38 101 0 129 -34 25 -137 46 -152 31 -16 -16 6 -40 40 -45 15 -3 -142 -4
-349 -3 -301 1 -379 4 -392 15 -9 7 -24 11 -32 7 -14 -5 -16 27 -13 310 3 306
2 316 -17 330 -16 12 -48 15 -157 13 -76 -2 -141 0 -144 4 -14 14 -35 6 -43
-15z m289 -85 c0 -32 -4 -182 -10 -333 -5 -151 -13 -400 -16 -553 -6 -249 -8
-278 -24 -287 -9 -5 -58 -12 -108 -16 l-92 -7 -2 259 c-2 142 0 329 3 414 4
85 10 247 14 360 5 130 12 208 19 212 6 4 57 8 114 8 l102 0 0 -57z"/>
<path d="M2872 1910 c-11 -12 -27 -39 -37 -61 l-18 -39 -18 40 c-25 55 -60 56
-88 3 l-20 -38 -1 31 c0 42 -29 78 -54 68 -16 -6 -17 -14 -12 -58 3 -28 9 -87
12 -131 7 -88 15 -105 50 -105 30 0 35 21 25 95 -8 56 1 125 17 125 4 0 14
-21 22 -47 8 -25 23 -51 33 -57 27 -17 51 4 52 46 1 19 12 54 26 77 l24 43 8
-34 c14 -59 39 -107 59 -114 35 -11 41 9 23 73 -29 102 -61 128 -103 83z"/>
<path d="M3006 1892 c-10 -30 36 -176 56 -180 39 -8 44 79 9 171 -12 32 -56
38 -65 9z"/>
<path d="M4231 1754 c-26 -33 -43 -95 -39 -137 2 -27 8 -33 31 -35 32 -4 36
13 7 28 -24 13 -27 62 -6 99 13 23 14 23 19 5 3 -10 9 -43 12 -71 15 -118 113
-181 153 -99 7 14 16 57 19 95 3 38 9 75 13 82 5 7 39 15 76 18 40 4 69 11 72
19 5 16 -97 17 -132 1 -28 -13 -46 -55 -46 -104 0 -42 -18 -92 -36 -99 -22 -8
-42 32 -54 109 -18 111 -48 141 -89 89z"/>
<path d="M4571 1661 c-11 -7 -14 -27 -13 -71 2 -76 32 -150 61 -150 27 0 34
29 26 113 -9 99 -34 133 -74 108z"/>
<path d="M6599 1411 c-32 -32 -37 -51 -15 -51 8 0 16 10 18 23 2 14 11 23 27
25 41 6 45 -8 31 -126 -16 -129 -11 -155 30 -172 63 -26 100 33 100 161 0 88
17 110 89 117 60 5 66 28 7 26 -82 -3 -106 -35 -115 -154 -8 -91 -14 -110 -36
-110 -20 0 -27 45 -14 95 16 65 7 164 -16 181 -31 23 -74 17 -106 -15z"/>
<path d="M6266 1379 c-33 -26 -36 -69 -5 -69 18 0 19 3 9 15 -16 19 -6 45 18
45 51 0 57 -69 17 -176 -47 -124 -35 -140 97 -130 50 4 99 11 107 16 25 14
-29 30 -100 30 -69 0 -69 1 -33 91 19 47 25 75 21 107 -9 81 -73 116 -131 71z"/>
<path d="M5509 1320 c-30 -30 -31 -50 -3 -50 10 0 14 8 12 23 -2 14 2 22 12
22 13 0 14 -17 12 -105 -3 -91 -1 -109 15 -128 23 -27 72 -38 95 -20 19 14 38
95 38 159 0 21 5 49 11 62 10 21 18 24 66 25 61 0 82 12 59 31 -10 8 -29 9
-61 4 -66 -11 -85 -40 -95 -138 -5 -48 -13 -83 -23 -93 -22 -21 -25 -9 -29
111 -3 84 -6 101 -22 113 -30 21 -55 17 -87 -16z"/>
<path d="M6040 1274 c-6 -14 -10 -43 -10 -64 0 -35 -3 -39 -30 -45 -16 -4 -30
-10 -30 -15 0 -5 14 -11 30 -15 17 -4 30 -12 30 -20 0 -7 7 -18 15 -25 19 -16
45 3 45 31 0 12 7 19 18 19 10 0 27 7 38 15 18 14 17 14 -13 15 l-33 0 0 65
c0 63 -1 65 -25 65 -18 0 -28 -7 -35 -26z"/>
<path d="M6883 1182 c-52 -34 -53 -202 -2 -202 27 0 39 38 39 125 0 72 -10 94
-37 77z"/>
<path d="M5714 1159 c-3 -6 1 -18 10 -27 12 -13 19 -13 28 -4 17 17 48 15 48
-4 0 -9 -13 -28 -30 -42 -33 -29 -38 -53 -16 -71 11 -9 27 -9 68 1 55 14 67
31 24 36 -25 3 -25 3 -5 23 21 21 25 69 7 87 -15 15 -124 16 -134 1z"/>
<path d="M5732 844 c4 -21 19 -29 81 -45 26 -6 44 -15 40 -20 -4 -4 -126 -11
-269 -16 l-261 -8 -21 36 c-28 48 -73 67 -106 45 -14 -9 -31 -13 -39 -11 -39
16 -94 -82 -76 -133 17 -46 156 -80 209 -52 11 6 24 28 31 49 l11 38 152 2
c83 0 210 4 281 7 l130 6 -42 -32 c-44 -33 -54 -54 -29 -63 18 -7 131 64 140
89 12 32 -25 67 -105 96 -88 32 -132 36 -127 12z m-442 -69 c24 -39 25 -63 3
-87 -31 -34 -134 -13 -148 30 -3 11 -1 30 4 43 10 24 10 24 10 2 1 -34 39 -30
52 4 23 61 45 63 79 8z"/>
<path d="M6695 604 c-16 -2 -156 -8 -310 -14 -154 -6 -372 -15 -485 -20 -293
-14 -2681 -23 -2800 -11 -63 7 -98 7 -105 0 -38 -38 99 -43 1265 -44 1033 -1
1451 4 1850 25 102 5 320 14 485 20 314 12 386 18 386 35 -1 9 -217 16 -286 9z"/>
</g>
</svg>
