<svg width="293.8mm" height="90.26mm" version="1.1" viewBox="0 0 293.8 90.26" xml:space="preserve" xmlns="http://www.w3.org/2000/svg"><defs><marker id="a" overflow="visible" markerHeight="1" markerWidth="1" orient="auto-start-reverse" preserveAspectRatio="xMidYMid" viewBox="0 0 1 1"><path transform="scale(-.5)" d="m0 0 5-5-17.5 5 17.5 5z" fill="context-stroke" fill-rule="evenodd"/></marker></defs><g transform="translate(12.54 -113.9)"><rect x="200" y="128.4" width="79.91" height="71.79" fill="none" stroke="#000" stroke-dashoffset=".8333" stroke-width="2.646"/><circle cx="155.4" cy="164.3" r="22.91" fill="none" stop-color="#000000" stroke="#000" stroke-width="2.646" style="font-variation-settings:normal"/><circle cx="155.4" cy="164.3" r="3.969"/><g fill="none" stroke="#000" stroke-dashoffset=".8333"><path d="m155.4 164.3h44.64" stroke-width="1.852"/><rect x="59.04" y="125.6" width="41" height="31.41" stroke-width="2.646"/><rect x="-11.22" y="171.5" width="41" height="31.41" stroke-width="2.646"/><g stroke-width="1.852"><path d="m155.4 141.3h-55.33"/><path d="m59.04 141.3h-53.04" marker-end="url(#a)"/><path d="m155.4 187.2h-124.3"/></g></g><path transform="matrix(.2646 0 0 .2646 -38.79 86.67)" d="m1024 308.2h-24.02l0.624-3.12q4.056 0 6.24-0.728 2.184-0.832 3.432-3.432t2.288-7.904l8.216-40.46q0.832-3.952 0.52-5.928-0.312-2.08-2.288-2.808-1.872-0.832-6.032-0.832l0.624-3.12h20.8l11.23 52.62h0.416l31.72-52.62h19.66l-0.624 3.12q-3.64 0-5.824 0.832-2.08 0.728-3.224 2.808-1.144 1.976-1.976 5.824l-8.84 43.37q-1.144 5.72 0.52 7.488 1.768 1.768 7.28 1.768l-0.624 3.12h-27.77l0.624-3.12q3.848 0 5.824-0.728 2.08-0.728 3.12-2.704 1.04-2.08 1.768-5.824l9.256-44.93h-0.416l-34.94 57.3h-2.288l-12.58-57.2h-0.416l-8.632 42.02q-1.04 5.304-0.936 7.904 0.208 2.6 2.08 3.432 1.872 0.728 5.824 0.728z" stroke-width="1.7" aria-label="M"/><g transform="translate(-2.841 -1.882)"><path transform="matrix(.2646 0 0 .2646 -50.44 93.13)" d="m516 207.7q-3.952 0-5.408-1.872-1.456-1.976-1.456-4.264 0-1.248 0.208-2.392 0.208-1.248 0.312-1.664l5.304-20.18q0.52-2.08 1.04-4.576 0.624-2.6 0.624-4.264 0-1.768-0.624-2.912-0.624-1.248-2.392-1.248-1.976 0-4.576 2.184-2.496 2.08-5.2 5.512t-5.2 7.488q-2.496 3.952-4.368 7.696-1.872 3.64-2.808 6.344l3.536-13.42q1.56-3.016 3.952-6.968t5.408-7.696q3.12-3.744 6.76-6.136 3.744-2.496 7.904-2.496 3.744 0 5.096 2.288t1.352 5.096q0 1.976-0.416 4.264t-0.624 3.432l-5.72 24.02t-0.208 0.832q-0.104 0.728-0.104 1.664 0 1.976 1.976 1.976 2.704 0 4.576-1.976 1.976-1.976 3.224-3.432l2.08 1.56q-1.04 1.456-2.392 3.328-1.248 1.872-3.016 3.744-1.664 1.768-3.848 2.912t-4.992 1.144zm-55.12-1.04h-8.528l8.32-39.52t0.104-1.144q0.208-1.144 0.208-2.288 0-1.352-0.728-2.08t-2.6-0.728q-1.04 0-2.184 0.104t-1.144 0.104v-2.808l14.25-1.144h2.392l-5.096 22.57h1.144zm27.77 0h-8.632q1.144-4.16 2.184-8.32 1.144-4.264 2.184-8.424 1.04-4.264 1.976-8.528 1.04-4.264 1.976-8.632 0 0 0.208-1.456 0.312-1.56 0.312-2.808 0-1.768-0.624-2.912-0.624-1.248-2.392-1.248-2.6 0-5.72 2.912t-6.344 7.488q-3.12 4.576-5.824 9.776-2.704 5.096-4.472 9.464l2.6-13.1q1.56-3.016 3.952-7.072t5.512-7.904q3.224-3.848 7.176-6.448t8.424-2.6q3.848 0 5.096 2.288 1.352 2.288 1.352 5.096 0 2.288-0.416 4.784t-0.52 2.912l-1.976 7.8h1.456l-4.68 13.83z" stroke-width="1.7" aria-label="m"/><path d="m96.73 152.4h-6.103v-0.4939q1.252 0 1.764-0.2646 0.5115-0.2646 0.5115-0.9172v-7.461q0-0.4586-0.1235-0.6526-0.1235-0.2117-0.4586-0.2117-0.1764 0-0.4939 0.0353t-0.6703 0.1058q-0.3528 0.0529-0.635 0.1411v-0.5821l3.422-0.9701h0.5115v9.596q0 0.6526 0.5292 0.9172t1.746 0.2646z" stroke-width=".4498" aria-label="1"/></g><path transform="matrix(.2646 0 0 .2646 -40.63 97.62)" d="m234.8 130h-29.95l0.624-3.12q3.64 0 5.72-0.624 2.184-0.624 3.432-2.496 1.352-1.976 2.08-5.824l9.256-44.51q0.728-3.64 0.416-5.408-0.312-1.872-2.288-2.496-1.976-0.728-6.24-0.728l0.624-3.12h53.66l-2.808 16.95h-3.12q0.104-4.992-0.624-7.8-0.624-2.808-3.536-3.952t-9.672-1.144h-15.6l-10.82 53.25q-0.208 1.04-0.312 1.976-0.104 0.832-0.104 1.56 0 2.704 2.496 3.536t7.28 0.832zm19.24-23.3h-3.432q0.832-4.472 0.416-6.552-0.416-2.08-2.704-2.704-2.184-0.728-6.656-0.728h-12.27l0.728-3.952h12.58q4.472 0 6.864-0.832 2.496-0.832 3.744-3.016 1.352-2.288 2.184-6.448h3.328z" stroke-width="1.7" aria-label="F"/><g transform="translate(2.034 .03615)"><path transform="matrix(.2646 0 0 .2646 -126.4 137.3)" d="m516 207.7q-3.952 0-5.408-1.872-1.456-1.976-1.456-4.264 0-1.248 0.208-2.392 0.208-1.248 0.312-1.664l5.304-20.18q0.52-2.08 1.04-4.576 0.624-2.6 0.624-4.264 0-1.768-0.624-2.912-0.624-1.248-2.392-1.248-1.976 0-4.576 2.184-2.496 2.08-5.2 5.512t-5.2 7.488q-2.496 3.952-4.368 7.696-1.872 3.64-2.808 6.344l3.536-13.42q1.56-3.016 3.952-6.968t5.408-7.696q3.12-3.744 6.76-6.136 3.744-2.496 7.904-2.496 3.744 0 5.096 2.288t1.352 5.096q0 1.976-0.416 4.264t-0.624 3.432l-5.72 24.02t-0.208 0.832q-0.104 0.728-0.104 1.664 0 1.976 1.976 1.976 2.704 0 4.576-1.976 1.976-1.976 3.224-3.432l2.08 1.56q-1.04 1.456-2.392 3.328-1.248 1.872-3.016 3.744-1.664 1.768-3.848 2.912t-4.992 1.144zm-55.12-1.04h-8.528l8.32-39.52t0.104-1.144q0.208-1.144 0.208-2.288 0-1.352-0.728-2.08t-2.6-0.728q-1.04 0-2.184 0.104t-1.144 0.104v-2.808l14.25-1.144h2.392l-5.096 22.57h1.144zm27.77 0h-8.632q1.144-4.16 2.184-8.32 1.144-4.264 2.184-8.424 1.04-4.264 1.976-8.528 1.04-4.264 1.976-8.632 0 0 0.208-1.456 0.312-1.56 0.312-2.808 0-1.768-0.624-2.912-0.624-1.248-2.392-1.248-2.6 0-5.72 2.912t-6.344 7.488q-3.12 4.576-5.824 9.776-2.704 5.096-4.472 9.464l2.6-13.1q1.56-3.016 3.952-7.072t5.512-7.904q3.224-3.848 7.176-6.448t8.424-2.6q3.848 0 5.096 2.288 1.352 2.288 1.352 5.096 0 2.288-0.416 4.784t-0.52 2.912l-1.976 7.8h1.456l-4.68 13.83z" stroke-width="1.7" aria-label="m"/><path d="m21.26 196.6h-6.95v-0.5997l2.681-2.681q0.8819-0.8996 1.464-1.623 0.5821-0.7408 0.8643-1.482 0.2999-0.7408 0.2999-1.658 0-0.9878-0.5997-1.57-0.5821-0.5997-1.605-0.5997-0.8643 0-1.482 0.3704-0.5997 0.3704-1.094 1.358l-0.4233-0.1764q0.4057-1.288 1.288-1.993 0.8819-0.7056 2.17-0.7056 1.005 0 1.764 0.388 0.7585 0.3704 1.182 1.058 0.441 0.6703 0.441 1.605 0 0.7761-0.3351 1.499-0.3175 0.7056-0.9701 1.464-0.635 0.7585-1.57 1.711l-2.328 2.205v0.0882l1.235-0.0529h2.452q0.7056 0 0.9878-0.3175t0.5821-1.111h0.5115z" stroke-width=".4498" aria-label="2
"/></g></g></svg>
