<svg height="2414.217699pt" preserveAspectRatio="xMidYMid meet" viewBox="0 0 1640.425522 2414.217699" width="1640.425522pt" xmlns="http://www.w3.org/2000/svg"><g transform="matrix(.1 0 0 -.1 -16.5 2499.867608)"><path d="m605 24945c-14-31-33-83-42-115l-16-59-86-3c-69-2-86-6-86-18s16-16 76-18l77-3-11-35c-11-35-11-35-59-29-43 6-48 5-48-13 0-22 18-32 56-32 22 0 24-3 18-22-5-13-8-36-9-53 0-23 4-30 20-30 14 0 23 12 34 48 14 46 15 47 56 47h42l-10-49c-11-57-3-101 18-101 15 0 18 9 35 91l11 56 56 13c61 13 57 30-8 30h-36l10 40 11 39 70 3c55 2 71 6 71 18 0 11-15 16-62 18-35 2-63 7-63 11 0 12 27 86 46 126 16 35 14 65-5 65-21 0-47-42-74-119-28-80-29-81-62-81h-34l16 53c17 59 29 84 50 109 21 24 13 62-15 66-19 3-26-6-47-53zm51-231c-3-9-9-27-12-40-6-22-10-24-43-18-20 4-37 7-38 8-1 0 5 16 12 34 12 28 19 32 51 32 29 0 35-3 30-16z"/><path d="m1995 24898c-38-21-144-111-150-126-3-9 1-22 9-31 14-13 20-10 58 27 23 23 45 42 50 42 4 0-12-39-36-87-51-104-86-227-69-244 22-22 40-1 58 68 10 37 45 123 77 190 33 69 58 132 56 145-3 26-24 33-53 16z"/><path d="m2189 24887c-57-30-83-74-71-119 6-23 15-34 30-36 21-3 27 6 22 37-4 30 10 57 39 74s29 17 41-19c13-38 7-92-15-134-7-14-43-56-79-95-36-38-65-76-64-84 5-23 94-41 206-41 97 0 142 9 142 29 0 5-61 12-135 16s-135 9-135 12 23 30 51 61c66 75 81 104 87 177 5 67-12 116-47 135-25 13-21 14-72-13z"/><path d="m1557 24872c-33-36-7-101 28-72 8 7 15 19 15 26 0 18 29 18 36 1 11-29-21-76-112-164-71-68-94-97-94-117 0-34 16-37 180-34 112 3 135 6 135 18s-23 16-130 20l-130 5 89 85c113 109 140 171 100 228-20 29-93 31-117 4z"/><path d="m5588 24871c-9-12-31-22-63-26-78-10-234-61-293-95-60-35-84-73-61-94 26-25 82-36 210-43 127-6 128-6 113-27-13-19-24-21-124-21-105 0-111-1-136-26-21-22-25-32-19-58 17-77 143-80 241-6l36 27 81-23c63-18 106-24 182-24 94 1 105 3 176 36 46 22 84 48 97 66 29 42 46 112 33 145-13 36-68 96-103 114-42 22-168 44-248 44-48 0-71 4-80 15-16 20-26 19-42-4zm315-86c59-21 107-76 107-122 0-35-14-50-34-34-6 6-95 15-197 22-101 6-185 12-187 13-1 2 5 22 13 46 8 23 15 56 15 72v30l118-5c74-3 135-11 165-22zm-337-20c-4-19-14-51-22-71l-15-37-138 5c-183 7-196 15-100 61 76 37 202 75 253 76 27 1 28-1 22-34zm420-178c-6-10-40-32-76-50-60-30-72-32-165-32-68 0-118 6-157 18l-57 18 17 35 16 36 217-4c205-3 215-4 205-21zm-591-92c-65-40-138-34-122 9 5 13 23 16 84 16l78-1z"/><path d="m1315 24852c-28-15-73-41-100-59-28-17-67-39-87-49-42-20-53-54-18-54 22 0 88 31 132 61 52 37 52 19-2-41-59-67-95-137-80-155 20-25 35-17 57 29 12 24 35 59 51 77 42 49 142 183 142 191 0 7-35 29-42 27-2 0-26-13-53-27z"/><path d="m13160 24732c-42-14-62-27-87-61-18-23-33-51-33-61 0-28-95-78-161-86-49-6-58-4-85 20-25 20-32 36-37 77-6 47-18 68-39 69-4 0-31-21-60-47l-53-47-3 46c-3 54-25 80-47 57-9-10-14-50-17-129-3-99-1-115 13-118 10-2 28 15 47 45 17 26 47 64 66 82 31 30 36 32 36 15 0-31 36-82 72-100 55-29 149-22 222 16l60 31 20-25c23-28 83-45 156-46 45 0 138 36 172 67 14 12 21 13 31 4 45-37 187-31 339 15 45 13 83 22 85 21 2-2-2-18-8-35-11-32 1-72 22-72 16 0 58 50 71 86 13 37 20 41 37 20 6-8 35-24 64-37 48-22 66-24 227-24 127-1 186-5 215-15 27-10 80-15 160-15 102 0 125 3 155 20l35 20-160 6c-88 4-170 10-182 14l-23 7 25 30c26 31 32 67 15 99-17 31-84 59-140 59-44 0-56-5-81-29-40-40-38-74 6-118l35-35-117 4c-131 4-174 19-226 77-30 34-52 39-77 16-8-8-72-31-140-51-146-43-276-52-306-22-21 21-11 36 40 59 50 23 83 24 103 4 19-20 37-14 41 13 8 53-88 65-171 23-36-18-36-18-59 7-50 54-166 74-258 44zm199-59c79-59-11-153-146-153-46 0-67 5-84 20-17 14-20 20-9 20 12 0 11 3-3 11-34 20 2 96 56 116 47 18 153 10 186-14zm1060 11c47-18 57-38 36-70-24-37-51-39-96-8-31 22-39 33-37 53 2 17 11 27 28 32 14 4 26 7 27 8 2 1 20-6 42-15z"/><path d="m6235 24597c-62-21-101-44-124-73-44-56-16-109 64-123 28-5 79-15 115-21 75-14 194-7 244 14 44 18 66 51 66 99 0 45-30 78-88 95-62 19-231 24-277 9zm283-64c41-30 37-73-8-95-41-21-175-25-245-7-82 21-100 78-35 112 51 26 249 19 288-10z"/><path d="m1127 24384c-3-4-221-9-484-13-415-5-478-8-478-21 0-18 362-19 1833-6 914 9 952 10 952 28 0 17-34 18-908 18-500 0-911-3-915-6z"/><path d="m10293 24313c-10-34-9-553 2-1433 6-513 5-708-6-900-15-264-20-1712-6-1726 4-4 10-4 15 0 4 4 10 267 14 584 8 566 18 913 39 1282 8 132 7 424-1 1025-7 462-11 920-9 1018 4 177 4 177-18 177-16 0-25-8-30-27z"/><path d="m2644 24289c-16-27-25-289-15-451 14-208 14-1120 0-1373-11-219-26-944-21-1086 3-95 3-95 30-91l27 4v421c0 241 7 532 15 677 15 276 18 622 10 1407-5 464-6 503-22 503-9 0-20-5-24-11z"/><path d="m13445 24103c-71-98-98-184-63-206 14-9 23-6 50 20l33 32v-324c0-270-2-325-14-325-25 0-119-60-166-106-140-136-83-256 148-309 225-51 377 50 377 250 0 104-76 165-206 165h-71l-7 38c-3 20-6 167-6 325 0 230 3 301 16 351l16 63 57-58c46-48 63-59 89-59 43 0 42 22-4 50-19 12-53 46-75 75-44 59-55 65-105 65-29 0-39-7-69-47zm219-854c58-16 96-58 96-106 0-105-54-188-138-213-73-23-221 0-298 45-72 42-77 107-15 173 24 24 36 27 46 12 10-17 23-11 37 16 8 16 28 31 51 39l37 13v-37c0-45 12-64 36-59 16 3 19 12 18 60-1 50 1 57 20 61 40 8 71 7 110-4z"/><path d="m13084 24062c-6-4-32-43-57-87-49-86-85-200-73-231 7-18 8-18 26 4 10 12 26 46 35 75 18 54 77 170 103 199 25 30-2 62-34 40z"/><path d="m12591 23864c-15-47-23-108-27-217-6-136-5-154 10-166 24-20 33-9 112 144 40 77 89 155 121 192 29 33 53 66 53 71 0 13-20 20-42 14-26-6-108-116-155-206l-42-81v74c-1 40 6 104 15 141 18 72 15 100-10 100-10 0-22-23-35-66z"/><path d="m7323 23843c-12-21-40-84-62-141-47-117-86-198-100-207-10-5-71 69-71 85 0 4-16 34-35 66-33 54-41 77-59 157-7 30-40 38-50 11-9-25 13-104 46-164 16-30 42-77 56-104 34-64 84-116 110-116 38 0 83 75 159 264 24 61 51 114 59 119 8 4 14 21 14 37 0 25-4 30-23 30-17 0-29-11-44-37z"/><path d="m14808 23749c-18-14-28-30-28-47 0-15-9-42-20-60-35-56-61-144-49-159 17-19 34-16 53 10 15 20 15 4 11-228-3-137-8-305-11-372l-6-123h-279-278l-19 43c-12 26-35 53-62 72-39 27-52 30-134 33-86 3-94 1-144-28-31-18-67-50-85-76l-32-46-540 6c-297 2-557 8-577 12-34 5-38 4-38-14 0-11 8-24 18-28 9-5 265-10 568-12l552-3-19-60c-47-151 3-256 130-275 72-11 172 9 224 45 25 17 48 31 52 31 10 0 248-192 365-295 184-163 378-321 474-388 49-34 118-87 152-117s74-66 90-80l29-25-65-7c-209-22-242-30-226-57 9-14 59-14 156-1 41 5 116 15 167 22 55 7 94 17 97 24 10 27-16 80-83 168-38 51-71 101-73 112-2 10-13 20-25 22-38 6-36-29 7-114 22-43 40-82 40-87s-30 18-67 50c-38 32-99 81-138 108-111 77-238 181-496 405-85 74-203 172-262 218l-106 82 28 43c31 45 51 104 51 150v27h275 275l2-292 3-293h25 25l3 291 2 291 98 6c53 4 315 10 582 13l484 7-27-32c-33-40-37-91-7-91 12 0 24 10 30 24 5 13 25 40 44 60 20 19 36 40 36 47 0 26-62 67-132 87-95 29-138 29-138 2 0-13 9-21 28-25 15-4 41-12 57-20 26-12-23-14-370-14-220-1-464-4-542-8l-143-6 1 209c1 273 21 588 33 524 10-56 31-80 68-80 33 0 36 15 8 38-17 15-22 36-30 146-12 160-28 183-92 135zm-721-902c27-18 53-54 53-72 0-3-79-5-175-5-173 0-176 0-165 20 15 28 84 72 128 81 54 11 122 1 159-24zm61-169c-3-34-14-68-31-95l-26-41-66 35c-66 35-108 40-112 13-2-10 16-23 51-38 93-40 95-44 44-77-35-24-56-29-120-33-88-5-115 6-148 61-25 41-25 65 1 155l22 72h195 194zm1132-1099c0-5-4-9-10-9-5 0-10 7-10 16 0 8 5 12 10 9 6-3 10-10 10-16z"/><path d="m15064 23755c-4-9-2-38 5-64 6-25 20-82 31-126 43-179 72-245 111-245 28 0 74 63 104 141 16 41 30 69 32 64 1-6 9-61 17-124l15-115-51-50c-86-86-115-178-88-278 25-87 130-74 173 20 18 40 21 64 19 167-2 117-1 120 25 147 29 30 26 46-4 29-18-9-21-1-42 136-31 192-32 198-60 198-20 0-28-13-60-105-37-103-67-170-77-170-2 0-9 12-15 27-16 43-82 306-83 333-1 30-42 42-52 15zm301-752c-15-40-44-61-64-49-15 10-23 93-12 133 6 22 28 59 48 83l38 44 3-84c2-60-2-97-13-127z"/><path d="m5231 23746c-8-9-11-70-9-197 3-184 3-184 26-184 19 0 27 9 37 38 15 43 87 156 135 211 50 57 60 49 60-44 0-67 3-83 20-100 11-11 24-20 28-20 13 0 36 29 75 93 35 59 111 147 127 147 14 0 30-95 30-176 0-85 11-114 42-114 21 0 21 3 14 110-11 191-34 248-92 234-32-8-102-77-149-146l-32-49-7 32c-3 17-6 46-6 64 0 33-25 65-51 65-40 0-105-59-161-145l-33-50-3 110c-3 123-19 160-51 121z"/><path d="m13975 23607-74-73-7 53c-6 53-24 83-48 83-18 0-63-50-85-95-19-37-20-38-21-14 0 35-24 56-45 39-11-9-15-35-15-104 0-50-4-105-9-122-10-37-1-57 25-52 11 2 27 25 42 63 38 94 75 178 89 200 11 17 13 5 13-76 0-94 8-119 37-119 6 0 28 29 48 64 38 68 130 170 146 161 12-8 11-71-2-174-8-71-8-87 5-99 24-25 46 2 46 57 0 25 5 64 10 86 13 57-2 164-25 181-34 25-55 15-130-59z"/><path d="m486 23582c-2-4-10-43-16-87s-16-107-21-140c-22-147-22-142-5-148 25-10 60 30 132 148 64 107 122 180 133 169 3-3 8-72 11-152 5-147 5-147 30-147h25l-1 146c-2 168-12 202-58 207-37 5-100-55-163-156-25-40-47-72-48-70-3 3 10 84 27 164 6 29 8 57 4 63-8 13-42 15-50 3z"/><path d="m7484 23559c-3-6-11-62-17-124-11-122-6-145 34-145 17 0 19 9 19 93 0 50 4 108 9 127 4 19 6 41 4 48-6 15-39 16-49 1z"/><path d="m1704 23532c-16-10-38-57-69-147-60-176-247-444-367-524-67-45-76-47-103-28-15 11-17 22-11 56 5 33 3 43-10 48-24 9-44-23-44-69 0-55 35-88 93-88 89 0 247 143 359 326 50 82 50 82 88 77 44-6 82 15 138 76l33 36-5-30c-4-16-9-63-12-102-7-78 2-103 38-103 23 0 34 25 19 44-7 9-9 30-5 57 12 89 35 190 51 230 13 34 14 42 3 49-19 12-45-4-76-48-37-50-103-119-137-144l-28-20 6 38c10 57 24 101 57 177 16 38 27 75 24 83-6 15-24 18-42 6z"/><path d="m12795 23492c-70-38-91-66-60-79 10-3 30 2 46 11 34 20 35 17 10-32-26-53-64-180-56-192 3-5 15-10 25-10 14 0 23 16 40 73 13 39 43 111 67 159 62 121 48 134-72 70z"/><path d="m5900 23322c-14-1-43-9-65-16-22-8-52-17-66-20-45-10-118-74-145-128-31-61-46-154-33-202 12-43 76-101 126-115 120-34 345 22 402 100 33 44 45 142 26 206-18 62-65 127-105 148-35 18-104 32-140 27zm117-73c19-12 42-41 59-75 23-48 26-63 21-120-5-73-19-95-81-126-65-33-128-48-206-48-65 0-81 4-113 26-62 42-73 101-36 199 14 37 25 55 34 51 7-2 31 13 53 35 26 24 50 39 66 39 14 0 29 6 33 14 22 39 110 42 170 5z"/><path d="m7270 23212c0-11 10-24 23-30 12-7 47-25 77-42l55-30h-270c-232 0-505-14-705-35-50-6-182 6-253 21-26 6-28 4-25-17 6-40 74-51 283-44 99 3 216 9 261 14 108 13 666 23 633 12-51-17-69-32-69-56 0-30 15-31 55-5 17 11 37 20 45 20s45 12 82 26c89 34 92 57 13 104-140 83-205 102-205 62z"/><path d="m1022 23173c-5-10-15-36-22-58s-30-77-52-122c-21-45-38-89-38-97 0-21 23-20 42 2 35 39 118 231 118 272 0 25-36 27-48 3z"/><path d="m8395 23025c-5-2-36-9-68-15-106-21-172-104-183-230-5-52-3-75 11-103 16-35 85-99 132-124 83-43 250-58 301-26 63 39 104 78 122 113 28 54 37 165 18 210-25 57-92 125-148 149-46 20-161 36-185 26zm149-66c42-15 65-32 96-71 38-48 40-54 40-120 0-104-30-151-129-202-58-31-203 2-285 65-55 42-66 65-65 132 0 29 3 46 6 40 9-24 44 7 68 62 28 63 67 97 101 89 17-4 26-1 30 10 9 23 71 21 138-5z"/><path d="m16413 22887c-22-24-48-62-58-84l-18-42-68 35c-78 39-99 42-99 15 0-13 21-30 70-55 39-21 70-41 70-45 0-5-18-52-40-105s-40-98-40-101 9-5 20-5c17 0 70 62 70 81 0 4 9 28 20 54l20 46 31-23c74-55 116-78 147-78 49 0 40 24-20 55-29 14-72 43-95 63l-42 37 26 53c13 29 42 67 64 84 30 24 36 34 28 45-20 23-45 14-86-30z"/><path d="m8972 22898c-8-12-25-203-26-313-1-34 2-40 22-43 12-2 24 3 26 10 23 80 38 113 78 175 27 41 60 79 77 88l31 16v-150c0-120 3-151 15-161s18-10 31 1c14 12 16 34 12 166-4 130-8 156-23 173-10 11-28 20-39 20-30-1-95-48-132-97l-31-41 5 69c3 47 1 74-8 84-15 18-24 19-38 3z"/><path d="m9366 22828c-3-13-8-68-11-123-12-171-13-160 14-160 18 0 27 9 40 45 19 48 102 183 120 195 8 4 11-22 11-83 0-70 3-92 16-103 14-11 19-10 36 11 55 70 119 125 181 156 37 19 72 32 77 29 12-7 12-91 1-200-10-89-7-105 20-105 21 0 22 4 38 135 18 143-4 225-59 225-27 0-174-76-212-109l-35-31-7 59c-4 33-13 65-21 71-31 26-90-11-136-85l-19-30v51c0 50-12 74-37 74-7 0-15-10-17-22z"/><path d="m608 22572c-89-32-129-95-97-153 6-11 47-44 92-73 96-63 124-91 142-141 31-93-36-169-160-182-55-6-105 2-105 15 0 5 17 17 38 27l37 18-32 10c-38 11-88-5-103-33-14-27 23-67 73-81 126-34 294 47 312 149 16 97-34 172-172 258-40 25-75 55-79 66-8 27 26 62 75 77 48 14 71 6 71-24 0-36 10-55 31-55 12 0 21 9 25 25 20 82-54 131-148 97z"/><path d="m1615 22555c-22-8-41-15-42-15s-14-21-29-46c-57-96-23-185 120-321 183-174 195-227 64-273-73-25-99-25-132 1-31 25-32 33-6 59 11 11 20 25 20 30 0 19-49 10-76-14-27-23-27-24-13-62 19-52 85-88 144-79 71 11 154 46 180 77 55 65 28 125-123 278-156 157-180 217-119 294 19 24 32 29 68 30l44 1 3-52c5-91 62-97 62-6 0 101-59 136-165 98z"/><path d="m8547 22380c-63-75-100-286-62-360 45-91 152-154 204-121 19 12 7 27-26 34-43 9-95 49-121 92-20 35-22 49-17 110 8 90 28 162 60 209 14 20 25 43 25 51 0 25-37 16-63-15z"/><path d="m9654 22375c-7-18 13-45 33-45 8 0 38-23 68-51 57-54 100-140 111-222 11-80-63-202-162-264-47-30-57-53-24-53 63 0 174 102 217 198 33 75 32 131-5 226-37 93-87 157-155 196-59 34-75 37-83 15z"/><path d="m8989 22238c-38-77-124-208-135-208s-37 79-48 145c-11 60-15 70-34 73-33 5-37-21-18-102 30-127 70-186 115-171 27 8 92 98 151 206 54 100 63 139 30 139-15 0-30-21-61-82z"/><path d="m13165 22147c-4-12-1-35 4-51 13-31 13-131 2-161-11-27-3-45 21-45 14 0 26 15 42 53 14 30 43 71 70 95 45 42 69 51 81 32 6-10 21-82 31-157 8-52 28-73 50-52 12 12 12 24 3 69-6 30-14 75-18 100-18 116-77 131-183 48-25-19-38-25-38-16 0 8 5 19 12 26 9 9 8 16-4 29-8 10-18 26-21 36-9 25-45 22-52-6z"/><path d="m9095 22140c-14-23 11-30 99-30 68 0 97 4 105 14 9 11 8 15-5 20-26 10-192 7-199-4z"/><path d="m9497 22116c-26-7-59-24-73-37-27-25-27-49-2-127 18-59 105-80 176-43 49 26 86 62 101 99 34 82-78 142-202 108zm143-51c19-12 10-51-17-77-37-34-66-48-100-48-39 0-53 17-53 60 0 37 14 63 40 74 18 7 115 0 130-9z"/><path d="m13589 22118c-1-7 0-17 1-23 11-45 30-166 30-191 0-40 23-62 45-44 8 7 15 17 15 23s19 42 41 79c41 68 94 123 109 113 12-7 30-89 30-134 0-40 20-71 45-71 8 0 24 15 36 33 30 44 136 145 172 164 44 22 59 2 66-89 7-85 14-98 46-98 28 0 41 16 27 33-5 7-14 45-20 86-23 159-106 166-254 23-68-65-68-65-68-35 0 50-30 123-55 135-37 17-109-23-148-83-18-27-35-49-39-49s-10 21-13 48c-9 66-21 92-45 92-11 0-21-6-21-12z"/><path d="m2003 22065c-22-9-33-21-33-35 0-23 29-27 60-8 26 17 43-1 43-43 0-27-11-43-71-99-105-99-99-110 54-110 95 0 164 17 164 40 0 9-29 10-107 5l-108-7 64 66c62 66 63 68 58 113-8 74-60 107-124 78z"/><path d="m9090 22032c0-31 57-45 154-40 80 5 140 23 130 39-3 5-47 9-98 8-51 0-114 2-140 6-42 7-46 5-46-13z"/><path d="m847 21988c-46-57-54-84-32-108 14-15 16-30 11-67-7-54 3-77 30-71 16 3 20 15 25 68 3 36 16 95 28 132s20 72 16 78c-13 21-45 8-78-32z"/><path d="m1079 21823c-1-5-1-11 0-16 3-21-53-134-84-168-51-56-44-88 11-56 35 20 74 72 100 136 32 81 32 111-1 111-14 0-26-3-26-7z"/><path d="m15374 21313c-4-10-17-46-31-81-33-86-64-209-56-228 3-8 15-14 26-12 16 2 23 15 33 63 12 62 57 184 81 221 7 12 11 29 7 38-8 22-53 21-60-1z"/><path d="m270 21292c0-24-108-19 1060-43 899-18 1165-18 1165 1s-126 24-900 39c-1338 27-1325 27-1325 3z"/><path d="m15047 21108c-29-46-86-143-127-215-40-73-76-133-80-133s-28 62-53 138c-59 179-93 252-117 252-30 0-29-23 2-96 16-38 41-105 55-149 57-180 71-205 113-205 34 0 41 8 135 180 83 151 128 223 156 249 26 24 21 55-8 59-17 3-32-13-76-80z"/><path d="m2604 20995c-9-35 2-553 16-775 14-218 14-566 1-700-6-52-11-153-13-225l-3-130h29 29l1 125c1 69 7 241 15 382 11 206 11 287 2 410-7 84-14 320-17 523-3 204-7 380-10 393-6 31-42 29-50-3z"/><path d="m1642 20739c-40-12-74-62-70-104 3-25 8-31 32-33 25-3 28-1 23 18-15 59 40 92 117 70 92-26 113-79 60-149-16-21-49-65-74-97-104-137-145-259-100-299 24-22 56-13 44 13-23 51 14 143 107 262 99 129 111 150 106 199-6 54-44 90-122 115-58 18-75 19-123 5z"/><path d="m15088 20719c-10-5-18-19-18-30 0-17 6-19 53-17 48 3 52 1 55-20 3-18-16-42-82-107-47-46-86-91-86-99 0-30 38-38 144-32 190 12 239 23 206 47-10 7-60 8-145 5l-130-5 50 47c74 69 95 101 95 142 0 57-23 80-78 80-26 0-55-5-64-11z"/><path d="m490 20575c-20-24 16-184 97-436 25-80 50-114 75-104 8 3 46 72 84 153 89 189 166 296 214 297 9 0 15 10 15 25 0 18-6 26-23 28-57 8-149-106-241-298-32-67-61-118-64-113-12 19-85 293-97 363-17 97-32 118-60 85z"/><path d="m1405 20254c-27-8-79-18-115-22-48-5-65-11-65-22 0-12 16-16 68-18 75-3 172 25 203 59 16 18 16 19-12 18-16 0-51-7-79-15z"/><path d="m8560 20160c-10-19-34-95-81-254-22-77-22-141 0-141 10 0 30 52 63 165 27 91 56 178 64 193 9 15 13 35 10 43-8 21-44 17-56-6z"/><path d="m989 20123c-110-119-142-173-102-173 9 0 27 10 40 22l23 21v-29c0-17-5-35-12-42-17-17 6-62 32-62 21 0 25 10 34 93 3 26 20 81 37 122 45 108 22 128-52 48z"/><path d="m1695 19984c-20-20-15-38 11-42 27-4 59 21 51 42s-41 21-62 0z"/><path d="m7907 19977c-3-8 1-38 8-68 8-30 23-123 35-208 21-165 35-201 75-201 30 0 42 18 139 203 95 184 116 215 141 219 15 2 20 11 20 33 0 25-4 31-27 33-23 3-32-6-68-58-23-33-78-132-123-218-94-181-83-185-112 45-23 179-36 227-62 231-11 2-23-3-26-11z"/><path d="m11477 19972c-46-51-112-277-123-420-6-82-5-94 19-145 27-60 63-90 98-85 22 3 22 4-9 39-43 49-54 82-54 161 1 83 16 169 48 268 27 83 30 90 59 106 23 13 29 35 21 70-8 29-36 32-59 6z"/><path d="m5041 19895c-16-24-41-71-55-102-85-201-122-283-127-283-4 0-9 8-12 18-3 9-18 51-32 92-16 47-28 108-32 163-6 90-18 115-49 103-44-17 30-358 94-428 8-10 26-18 39-18 27 0 38 22 170 333 13 31 37 77 53 101 36 53 37 66 6 66-18 0-33-12-55-45z"/><path d="m3020 19898c-33-36-64-121-80-218-15-96-12-398 5-525 59-428 76-696 64-994-12-303-46-490-116-638-24-53-24-73 2-73 23 0 61-79 84-175 31-134 41-209 51-404 18-331 14-561-31-1716-16-392-9-601 20-677 23-60 54-88 97-88h26l-31 35c-17 19-38 61-48 93-24 77-24 306 2 972 24 612 27 1418 7 1575-16 119-58 308-79 350-9 17-24 39-35 51-19 21-19 22 3 75 59 149 86 302 100 573 16 302-3 639-56 996-47 315-19 688 56 756 26 24 24 4-7-57-45-89-4-113 46-26 34 59 38 106 12 130-28 26-60 20-92-15z"/><path d="m11981 19876c-15-18-6-36 17-36 34 0 109-91 132-160 30-88 23-217-16-314-41-98-15-102 44-8 69 110 57 336-23 433-63 77-130 114-154 85z"/><path d="m6616 19788c-8-13-18-41-22-63s-24-91-45-153c-44-128-49-172-20-172 10 0 27 12 37 28 23 36 105 133 169 200 50 54 91 82 119 82 23 0 29-57 17-154-12-98-8-118 23-114 18 3 22 12 27 63 16 147 8 225-25 247-46 31-143-19-228-116-42-48-59-63-54-46 4 14 14 49 22 79 9 30 22 60 30 68 17 18 18 45 2 61-18 18-36 15-52-10z"/><path d="m3932 19778c-8-8-12-67-12-199 0-154 3-189 15-199 20-16 45 3 45 35 0 82 123 215 198 215 41 0 57-36 57-128 0-73 3-87 17-90 11-2 28 15 51 50 40 63 109 129 166 157 46 24 50 24 71 11 12-7 16-39 20-147 5-138 5-138 30-138 24 0 25 3 28 63 5 107-13 231-37 256-45 45-156 10-242-75l-47-46-6 37c-8 48-63 100-107 100-38 0-124-43-166-83l-33-31v100c0 92-8 124-30 124-3 0-11-5-18-12z"/><path d="m7559 19724c-30-20-66-50-80-67l-26-31-6 44c-6 47-27 70-62 70-32 0-123-68-172-128l-43-53v60c0 74-13 111-39 111-25 0-30-16-18-63 9-36 4-91-19-214-6-30-4-33 19-33 14 0 27 7 31 15 3 8 39 57 81 109 82 101 151 158 166 134 14-21 10-85-6-125-22-52-20-73 9-73 17 0 27 9 37 33 7 17 47 66 89 108 71 71 113 99 127 85 11-11 4-73-18-161-22-90-18-110 17-103 13 2 23 26 40 103 27 113 29 147 13 178-26 49-69 49-140 1z"/><path d="m11845 19712c-75-43-105-65-105-77 0-19 28-27 52-14 11 6 22 9 24 6 3-3-3-34-12-69-19-70-16-91 13-107 26-14 48 1 35 24-11 20 4 86 39 172 32 78 16 101-46 65z"/><path d="m5592 19679c-32-12-25-45 8-42 14 1 102 5 197 9 173 7 213 14 183 34-19 12-357 12-388-1z"/><path d="m5840 19605c-8-2-49-8-90-15-111-16-120-19-120-36 0-23 25-27 97-14 38 6 107 15 155 20 88 8 133 23 123 41-6 8-127 11-165 4z"/><path d="m5154 19458c-20-18-59-67-85-108-39-61-46-77-35-88 18-19 39-7 67 39 46 77 48 78 49 39 0-19-4-51-10-70-5-19-11-65-12-102-2-71 10-98 43-98 23 0 35 18 20 33-16 16-13 79 10 202 37 190 28 219-47 153z"/><path d="m8274 19475c-8-20 13-45 38-45 19 0 48-51 48-84 0-17-99-116-116-116-19 0-57-48-51-64 5-13 27-16 125-16 102 0 121 3 135 18 25 27 22 46-5 37-13-4-54-9-92-12l-69-5 62 60c56 55 61 63 61 103 0 45-27 102-59 126-23 17-70 16-77-2z"/><path d="m8546 19475c-8-22 10-63 44-97 17-16 30-34 30-39 0-6-22-37-50-70-49-59-66-109-36-109 7 0 38 29 67 65l54 66 30-38c68-85 92-106 108-100 25 9 21 40-9 68-14 13-39 43-56 67l-29 42 21 28c12 15 37 44 56 64 40 44 44 68 10 68-21 0-55-33-112-108-8-11-18-1-48 47-38 61-68 77-80 46z"/><path d="m1385 19390c-853-4-970-7-970-20s117-15 981-18c851-2 983 0 994 13 15 18 5 36-18 33-9-2-453-5-987-8z"/><path d="m5614 18922c-18-12-40-62-59-137-10-38-29-108-41-154-27-95-30-131-10-131 24 0 35 24 76 176 22 82 48 166 57 186 21 49 9 82-23 60z"/><path d="m8745 18731c-6-21-23-142-32-234-5-57-5-59 18-55 22 3 25 11 37 83 6 44 17 105 22 136 6 31 7 64 4 73-8 22-41 20-49-3z"/><path d="m12150 18630c0-14 17-28 58-49 68-34 124-92 143-147 7-22 14-73 14-114 0-65-4-84-32-140-18-36-62-98-99-138s-64-75-61-78c15-15 69 16 121 70 81 83 120 167 124 267 7 146-41 240-157 310-73 44-111 50-111 19z"/><path d="m11560 18595c-80-116-146-298-157-434-7-82 7-129 52-176 27-29 39-35 74-35 50 0 53 14 6 36-39 18-70 63-80 114-12 68 30 233 93 360 38 77 65 118 80 125 32 14 26 49-10 53-22 3-32-5-58-43z"/><path d="m5163 18598c-29-31-114-163-193-299l-65-112-3 109c-2 60 2 139 8 176s9 72 5 78c-8 13-42 13-50 0-3-5-11-87-17-182-10-152-9-178 5-210 26-62 54-53 114 35 27 39 67 104 88 142 21 39 61 104 89 145 44 66 51 72 56 52 7-31 22-31 40 1 13 24 13 30 0 55-20 35-50 39-77 10z"/><path d="m8473 18533c-10-15-37-55-61-88-25-33-48-70-53-82-22-59-144-237-151-222-1 2-4 87-7 188-5 162-8 185-24 195-30 19-37-11-36-174 0-186 16-253 61-258 40-5 85 42 157 164 96 163 130 211 152 217 17 5 20 12 17 44-4 48-29 56-55 16z"/><path d="m6815 18454c-27-15-76-51-107-82l-58-56 7 55c11 88 10 94-14 97-17 2-24-3-27-20-39-183-56-289-50-300 3-4 14-8 24-8 13 0 26 17 43 53 31 68 124 168 194 208 45 26 57 29 64 18 19-31 9-118-27-224-31-93-34-110-22-122 16-16 48-8 48 12 0 7 14 55 31 107 44 130 42 249-5 280-19 13-50 8-101-18z"/><path d="m7670 18427c-46-24-84-51-136-94-28-24-53-43-55-43s-5 26-6 57c-3 75-17 90-69 72-40-15-84-53-147-128l-37-45v80c0 87-8 108-36 102-17-3-20-17-27-138-4-74-9-146-10-160-1-18 3-26 18-28s35 19 82 85c61 87 148 183 165 183 16 0 8-57-17-120-14-36-23-70-20-77 6-18 40-16 56 3 27 33 185 161 232 189 69 40 73 32 69-130-2-111 0-135 13-149 20-20 26-20 51-1 18 14 18 16 2 25-15 9-17 25-12 138 5 116 4 130-15 160-23 36-57 42-101 19z"/><path d="m11795 18400c-12-20 7-30 60-30 50 0 55-2 61-25 7-29-29-77-93-124-85-61-91-111-14-111 52 0 179 35 202 56 34 31 5 36-81 14-97-25-117-22-68 8 20 12 52 42 72 66 40 49 47 96 20 134-13 19-24 22-84 22-38 0-72-4-75-10z"/><path d="m3976 18374c-12-11-16-36-16-97 0-45-5-111-10-145-10-72-6-92 21-92 12 0 25 15 37 44 41 91 139 226 165 226 6 0 8-37 4-95-6-94-6-95 16-95 13 0 38 15 58 36 53 56 153 133 195 150 30 13 38 13 45 2 11-16 11-101 0-193-9-80-1-108 32-103 19 3 22 8 19 44-2 23 1 68 7 100 15 82 1 172-29 196-41 33-110 8-212-77l-66-53-6 59c-7 57-25 89-50 89-27 0-105-63-136-108l-31-47 4 78c3 67 2 79-14 87-13 7-22 6-33-6z"/><path d="m5830 18290c0-19 7-20 138-20 75 0 153-4 173-9 41-9 65 0 56 22-8 21-54 27-218 27-142 0-149-1-149-20z"/><path d="m5900 18181c-16-4-26-15-28-30-4-22-1-23 45-17 26 3 91 8 143 12 94 6 130 16 130 34 0 11-251 12-290 1z"/><path d="m8841 18109c-11-17-22-46-25-64-14-71-232-225-319-225-29 0-29 0 25 61 75 85 88 108 88 157 0 57-37 97-81 88-81-16-125-61-117-118 5-36 40-30 50 8 9 37 23 50 60 59 23 6 28 3 34-19 9-39-9-74-81-148-93-95-86-138 22-138 44 0 182 65 243 113 38 31 46 34 49 19 14-69 91-50 179 46 37 40 43 43 38 22-3-14-6-41-6-62 0-33-4-39-52-66-116-66-188-160-188-244 0-88 71-164 148-161 96 4 117 42 136 248 13 143 16 159 39 184 31 34 61 80 55 86-3 3-22-6-43-21l-38-25 7 94c5 82 4 96-10 101-11 4-27-5-48-30-82-94-132-147-149-156s-18-7-12 24c4 18 20 59 36 90 37 73 39 108 4 108-18 0-31-10-44-31zm152-386c-7-141-19-195-48-220-15-13-34-23-45-23-22 0-77 61-86 95-8 33 23 110 60 148 35 34 105 87 116 87 4 0 6-39 3-87z"/><path d="m5224 18042c-132-141-153-175-117-189 10-4 23 2 35 18 54 68 90 110 94 107 2-2-8-35-21-74-31-88-33-134-5-134 11 0 22 6 24 13 17 61 64 195 87 250 16 38 26 73 23 78-15 25-51 4-120-69z"/><path d="m5602 17474c-30-21-27-68 5-72 14-2 23 3 28 17 5 16 15 21 40 21 19 0 37-4 40-10 6-10-61-56-106-72-15-5-30-15-33-23-9-26 20-43 102-59 103-20 132-20 132-1 0 20-32 35-90 42-41 5-48 8-39 19 6 8 16 14 22 14 20 0 67 54 67 76 0 54-114 86-168 48z"/><path d="m5331 17228c-72-98-104-159-95-182 11-28 36-14 61 33 13 25 47 77 75 115 54 74 65 108 37 114-11 2-37-25-78-80z"/><path d="m4783 17214c-9-24 3-180 21-269 26-124 71-145 122-56 64 110 153 217 192 232 15 6 22 15 20 27-5 23-50 19-85-7-29-24-98-110-145-183-17-27-35-45-39-41-12 13-29 132-29 210 0 39-3 78-6 87-8 21-43 21-51 0z"/><path d="m4052 17198c-5-7-17-42-26-78s-30-103-46-150c-36-101-37-110-7-110 15 1 37 20 72 68 54 71 157 161 206 179 37 14 38 5 3-104-25-76-27-113-6-113 5 0 50 40 100 88 50 49 114 101 142 116l50 27v-71c0-44 6-82 15-100 16-31 39-39 47-17 9 25-14 212-27 226-26 27-110-12-213-97l-40-32 5 39c7 52-3 88-25 95-39 13-129-34-210-108l-33-31 6 30c4 17 14 52 22 78 12 38 12 51 3 62-15 18-25 19-38 3z"/><path d="m8783 17059c-38-11-90-71-103-119-19-68-13-104 28-154 32-39 174-156 191-156 14-1 121-109 121-123 0-33-67-60-164-65-83-4-93-3-110 17-16 17-17 23-6 37 12 13 11 17-1 25-21 13-36 11-53-7-20-19-20-28-1-64 22-42 63-60 137-60 131 0 249 52 256 111 4 36-54 99-182 194-166 123-186 150-166 224 15 57 60 101 102 101 61 0 84-52 57-129-10-27-9-36 4-49 13-12 19-13 30-3 19 15 39 125 28 154-22 57-99 87-168 66z"/><path d="m11555 16832c-67-102-120-334-96-427 24-94 83-155 148-155 45 0 61 17 24 25s-89 57-107 102c-18 43-17 152 1 231 20 83 73 210 92 221 21 12 9 41-17 41-12 0-30-15-45-38z"/><path d="m12125 16849c-5-14 0-27 17-43 27-26 66-77 122-156 72-102 95-223 61-321-25-71-95-159-177-224-42-33-77-63-77-66-1-10 60 6 97 25 50 26 110 83 154 148 76 113 93 211 56 328-24 72-40 100-157 258-55 74-84 90-96 51z"/><path d="m5141 16754c-60-62-91-99-87-109 7-20 25-19 49 2 18 17 19 17 12-18-4-22-3-39 3-43 14-8 42 4 42 18 0 17 65 151 91 185 22 30 20 62-3 60-7-1-55-43-107-95z"/><path d="m6799 16747c-9-7-37-53-62-102-87-173-224-328-384-435-69-46-118-68-128-58-2 2 1 23 7 46 12 47 3 67-25 56-17-6-37-61-37-104 0-86 106-62 271 61 81 60 196 175 234 233l17 26 18-23c15-19 28-22 82-22 76 0 131 25 198 91l45 43-3-77c-4-91 8-132 39-132 20 0 21 3 15 63-4 40-1 90 9 140 21 110 20 127-7 126-15 0-40-22-74-62-85-104-185-165-244-150-41 11-21 88 50 193 23 33 40 69 38 78-4 21-37 26-59 9z"/><path d="m11843 16695c-25-11-33-20-33-40 0-29 29-35 50-10 7 9 29 15 52 15 58 0 47-24-40-89-94-70-94-84 1-111 122-35 157-62 123-99-23-25-67-36-77-19-6 10-13 10-26 2-41-26-20-80 28-70 52 10 115 46 132 75 20 34 13 64-24 98-25 22-100 53-131 53-26 0-22 15 10 35 43 27 83 68 93 93 9 24-3 60-25 74-18 13-99 8-133-7z"/><path d="m7367 16663c-4-3-7-25-7-48s-12-88-26-145c-36-143-17-157 68-50 40 51 110 121 115 116 2-1-2-29-7-61-8-48-7-62 4-74 19-18 54 3 173 105l88 76 5-91c5-93 13-110 50-111 13 0 15 16 12 108-4 132-12 166-38 170-12 1-58-32-128-93-60-53-110-94-112-92s1 18 7 35c14 41 0 106-24 110-10 2-45-21-84-55-44-38-64-51-60-38 24 81 19 145-12 145-10 0-21-3-24-7z"/><path d="m8143 16644c-87-43-174-161-159-217 22-90 146-98 247-17 37 29 37 29 43 7 10-38 7-43-46-79-124-84-229-201-242-273-10-51 15-102 59-121 30-12 46-13 97-3 67 13 117 49 145 103 24 47 44 143 47 226l3 75 85 45c103 55 138 77 138 90 0 19-35 10-132-34l-97-44-6 47c-4 25-9 53-12 61-4 8-5 36-4 61 2 40-1 49-25 68-32 25-95 28-141 5zm114-50c3-9-2-32-12-50s-15-40-12-48c8-20-56-73-106-88-48-15-87 1-87 35 0 33 51 106 97 139 45 32 110 38 120 12zm12-419c-22-123-54-168-135-186-48-11-56-10-74 6-58 53 11 163 184 293l31 23 3-33c2-18-2-64-9-103z"/><path d="m5674 16599c-3-6-2-15 2-19 10-10 401-16 411-7 3 4 0 13-7 22-10 12-45 15-206 15-128 0-195-4-200-11z"/><path d="m3750 16573c0-36 115-43 751-43 524 0 588-2 593-16 3-9 15-14 28-12 29 4 37 43 11 56-10 6-276 12-633 16-338 3-645 9-682 12-63 6-68 5-68-13z"/><path d="m9330 16445c-13-14-46-33-72-43-58-20-68-52-17-52 27 0 30-2 22-22-4-13-8-45-8-73 0-43 3-50 19-50 15 0 22 11 31 55 11 56 33 105 68 152 21 28 17 58-6 58-7 0-24-11-37-25z"/><path d="m5738 16449c-6-4-8-14-5-23 6-14 29-16 164-16 165 0 226 9 251 34 13 13-8 14-192 13-114-1-212-5-218-8z"/><path d="m4318 16279c-18-7-28-18-28-31 0-18 4-19 58-12 92 12 141 9 159-9 15-14 13-18-13-44-16-16-69-51-119-78-96-52-106-60-98-82 4-10 50-13 225-13 209 0 258 6 258 30 0 6-74 10-187 10h-188l67 40c113 68 143 123 93 170-22 21-37 24-113 27-48 1-99-2-114-8z"/><path d="m5822 15643c-26-5-45-35-36-57 8-20 43-21 50-1 5 11 21 15 59 15 44 0 55-3 60-20 15-46-33-90-220-202-44-26-59-58-35-73 23-14 306-52 323-43 39 20 17 35-70 47-49 7-110 17-136 23l-49 10 29 15c63 31 169 110 190 142 29 42 29 90 2 125-18 23-27 26-82 25-34-1-72-4-85-6z"/><path d="m5533 15598c-5-7-19-40-31-73-11-33-32-91-46-128-31-81-34-120-9-115 10 2 23 14 30 28 24 47 91 225 94 250 4 26-6 50-20 50-5 0-13-6-18-12z"/><path d="m5268 15343c-20-21-75-96-123-168-48-71-98-141-111-154-21-22-24-23-30-7-4 10-2 48 5 86 16 97 14 155-5 170-30 26-41-7-48-145-7-142 1-177 42-183 39-6 75 32 181 190 125 185 128 188 155 185 17-2 21 3 21 28s-5 31-25 33c-18 2-35-8-62-35z"/><path d="m3411 15256c-10-11-10-20-1-37 22-40 50-153 50-200 0-54 20-80 45-59 8 7 15 25 15 40 0 14 14 48 31 73 33 50 126 137 146 137 19 0 24-32 14-110-8-58-7-80 4-100 19-37 68-57 100-42 33 15 32 30-2 38-52 13-55 20-48 121 6 77 5 97-9 118-35 53-122 18-217-89l-36-40-12 50c-13 53-45 114-60 114-5 0-14-6-20-14z"/><path d="m3967 15252c-21-23-22-62-2-62 11 0 15-20 17-102 3-102 3-103 28-103 19 0 26 6 31 31 9 44 57 112 104 145 47 34 132 50 146 28 11-17 11-97 0-124-10-25-3-45 15-45 8 0 43 30 77 67 45 48 81 75 132 100 94 45 101 38 97-97-2-79 1-102 14-114 12-12 20-13 35-6 20 11 26 30 9 30-5 0-7 38-3 98 6 95 5 98-22 130-19 23-35 32-57 32-43 0-147-48-188-87-20-18-38-33-42-33-3 0-8 19-11 42-8 58-28 71-99 64-74-7-116-25-166-70l-39-36-6 51c-9 76-36 99-70 61z"/><path d="m9546 15216c-58-22-104-72-122-133-9-29-12-63-9-75 19-64 109-120 319-199 96-36 123-61 112-104-15-60-114-133-211-155-62-14-98-6-141 32-34 30-34 31-14 45 27 19 17 33-24 33-58 0-71-31-33-81 82-112 266-107 400 11 57 50 77 86 77 136 0 53-46 94-145 128-195 69-285 125-285 179 0 46 29 98 70 125 29 20 43 23 84 18 66-7 76-18 76-81 0-66 7-85 30-85 22 0 30 19 30 76 0 67-22 110-62 123-60 19-112 21-152 7z"/><path d="m11643 15088c-46-80-114-241-128-302-20-88-22-201-3-246 8-20 31-52 50-73 28-29 43-37 72-37 44 0 46 9 7 32-16 9-42 35-58 59-26 39-28 50-27 133 1 110 16 164 89 320 31 65 54 125 51 132-9 24-33 15-53-18z"/><path d="m12191 15096c-8-10-5-20 17-42 63-67 144-177 158-217 40-111 24-250-44-380-28-54-48-77-99-115l-63-47 35-3c117-10 245 204 246 408 0 124-26 187-126 308-47 56-91 102-99 102-7 0-19-6-25-14z"/><path d="m11955 14973c-44-104-86-227-83-242 3-13 20-16 111-19 69-2 107-7 107-14 0-6-9-51-21-100-11-49-18-95-15-103 7-20 55-19 62 0 4 8 6 27 6 42 0 16 14 92 30 170 17 78 28 149 24 158-3 10-15 15-28 13-20-3-24-11-31-65l-9-63h-89c-49 0-89 2-89 4 0 7 23 73 35 101 39 88 52 134 42 144-20 20-37 11-52-26z"/><path d="m5225 14983c-48-10-95-37-95-54 0-29 17-31 60-9 52 27 106 24 103-5-1-11-21-36-45-55s-57-48-74-65l-31-30-299-1c-164 0-433-4-596-9-281-7-298-9-298-26 0-18 12-19 203-19 112 0 364 5 561 11 256 7 367 7 389 0 21-8 34-8 41-1 5 5 53 10 106 11 113 0 183 21 188 57 2 12 2 22 0 22s-35-9-73-20-85-20-104-20h-34l61 58c51 47 62 63 62 90 0 58-46 82-125 65z"/><path d="m7319 14953c-29-72-39-91-76-138-26-33-62-62-101-83-62-33-100-34-86-3 25 55 56 162 51 175-9 22-53 20-75-4-24-26-42-85-42-139 0-113-183-341-361-448-36-22-75-44-87-47-21-7-22-4-22 48 0 48-3 56-19 56-24 0-31-19-31-80 0-60 16-74 73-68 104 12 319 190 425 352 28 44 53 83 54 88 2 4 17 4 35-1 26-8 42-4 90 18 32 16 72 40 90 55l32 27 3-58c3-50 6-58 23-58s21 11 32 85c6 47 19 116 28 153 9 38 14 75 11 83-9 23-36 16-47-13z"/><path d="m7843 14954c-23-8-72-42-109-75-37-32-69-57-71-55s6 27 17 56c23 59 20 83-11 78-16-2-26-19-44-68-26-74-59-153-81-192-18-34-18-54 2-62s31-1 68 43c44 54 191 197 220 217 15 9 29 14 32 11s-11-43-31-89c-45-102-56-176-29-199 32-27 62-28 159-5 99 24 145 47 145 71 0 19 12 20-121-15-63-16-122-27-132-24-24 8-15 54 34 168 43 99 46 117 23 140-18 19-17 19-71 0z"/><path d="m8995 14946c-17-7-45-30-63-50-85-97 10-186 167-156 30 5 60 15 68 21 11 9 13 2 13-38 0-28-3-71-6-96-6-38-11-46-33-52-56-14-173-78-232-127-72-59-109-127-109-200 0-63 38-110 91-110 99 0 175 51 234 156 69 125 101 244 111 421 6 97 5 112-10 125-15 11-21 12-38 1-19-12-20-11-15 21 5 37-14 82-38 92-28 10-108 6-140-8zm106-36c27-15 24-56-6-86-14-14-25-29-25-34 0-14-61-12-90 3-14 7-26 20-28 28-5 26 45 76 86 87 20 5 38 10 40 11s12-4 23-9zm39-447c-30-90-54-137-102-200-33-43-50-56-90-68-76-22-108 5-93 78 13 59 43 103 99 147 57 43 197 122 205 115 2-3-6-35-19-72z"/><path d="m8295 14920c-8-16-15-34-15-40s-21-58-46-116c-77-178-49-185 96-26 57 62 105 111 107 109s-4-23-12-47c-20-57-20-116 1-124 19-7 18-8 129 73 50 37 102 74 118 84l27 17v-104c0-108 9-133 44-120 13 5 16 23 15 118-1 126-8 159-32 164-21 4-88-34-186-106-63-46-73-51-67-31 4 13 10 48 13 76 4 43 2 54-11 59-26 10-75-16-124-65-26-27-42-38-38-26 30 82 37 109 32 121-9 23-35 16-51-16z"/><path d="m6167 14836c-3-8 0-22 8-32 11-15 15-16 29-5 12 10 52 12 173 8 87-3 167-7 178-9 31-5 26 34-5 43-14 4-104 7-201 8-143 1-178-2-182-13z"/><path d="m6265 14715c-76-16-95-24-95-41 0-22 26-27 62-14 18 6 102 16 186 21 164 9 246 24 221 40-21 13-304 9-374-6z"/><path d="m10085 14657c-17-13-18-18-7-41 14-31 41-34 64-7 17 20 52 19 64-1 10-17-56-75-126-112-85-45-99-61-76-84 24-24 271-26 271-2 0 12-21 17-93 25l-92 10 47 25c105 55 150 132 103 175-28 25-127 32-155 12z"/><path d="m4623 14539c-23-6-33-16-33-29 0-18 5-19 74-13 79 6 130-6 140-33 8-20-8-55-35-81-24-21-159-93-177-93-5 0-16-8-26-19-13-14-14-20-4-28 18-14 395-27 403-14 12 20-42 33-160 39l-123 5 47 24c131 70 171 181 81 228-38 20-144 28-187 14z"/><path d="m6195 13758c-26-52-77-199-82-240-4-30-2-38 11-38 19 0 46 52 80 154 14 43 32 89 41 102 8 13 12 30 9 38-10 27-42 18-59-16z"/><path d="m2584 13696c-17-8-43-29-56-47-82-111-91-258-58-964 12-277 12-722-1-868-13-151-63-453-82-498-7-19-12-40-10-46 7-20 41-15 53 8 17 31 59 21 87-20 83-123 99-406 58-989-32-460-36-537-41-792-6-251-4-272 19-405 36-202 89-325 156-360 38-19 39-7 6 43-46 70-84 178-107 303-19 106-22 156-21 349 2 201 27 682 53 1015 13 163 12 482-1 606-12 110-35 188-74 256-27 45-51 63-84 63-12 0-21 4-21 9s11 76 25 157c13 82 29 199 36 259 16 154 13 744-7 1134-23 456-5 652 66 723 47 47 71 33 78-46 5-62 22-86 47-66 18 15 19 58 3 112-18 60-70 87-124 64z"/><path d="m10190 13616c0-8 14-43 30-78 36-76 70-241 70-334 0-82-23-173-59-239-26-46-44-95-36-95 20 0 57 29 79 63 31 49 53 115 68 212 18 118-35 363-99 462-17 25-53 32-53 9z"/><path d="m9421 13578c-82-83-187-409-167-512 8-38 43-76 71-76 34 0 37 11 8 37-25 24-26 27-20 111 4 67 14 112 45 197 48 135 63 165 108 215 56 62 14 88-45 28z"/><path d="m3230 13495c-9-11-9-24 4-62 9-26 32-111 51-187 42-165 64-218 98-241 38-24 56-9 123 97 127 204 168 264 191 283s24 22 9 34c-38 32-62 3-250-296l-50-78-18 41c-9 23-29 88-43 145-65 267-81 304-115 264z"/><path d="m10005 13456c-22-8-84-34-137-60-54-25-106-46-116-46-21 0-49-28-80-81-40-66-20-94 46-66 20 9 60 19 89 22 46 6 53 4 63-15 16-30-3-81-40-108-16-12-32-22-34-22-3 0-13 14-22 32-16 30-17 31-30 13-19-26-18-40 9-71 20-22 28-25 56-19 73 16 134 110 117 179-11 46-32 56-112 56-41 0-74 4-74 8 0 14 23 32 42 32 10 0 71 25 136 55s130 55 143 55c33 0 53 15 46 34-8 19-46 20-102 2z"/><path d="m5491 13436c-8-10-6-37 9-107 11-52 20-112 20-135 0-112 40-202 78-178 9 6 49 67 88 135 107 186 145 241 159 235 8-3 19 2 25 10 16 19-4 44-35 44-34 0-79-58-164-210-44-78-77-128-83-122-4 4-13 53-18 108-13 147-35 234-60 234-4 0-13-6-19-14z"/><path d="m4852 13338c-8-8-12-46-12-105 0-50-5-115-11-144-9-43-9-54 4-66 20-20 47-10 47 17 0 32 25 73 68 112 42 38 122 74 145 65 25-10 35-114 18-189-6-27-5-40 4-48 62-52 84 201 23 267-20 21-29 24-65 19-44-6-136-47-148-66-16-26-25-4-25 58 0 61-10 92-30 92-3 0-11-5-18-12z"/><path d="m4130 13230c0-20 4-20 178-18 149 3 177 5 177 18s-28 15-177 18c-174 2-178 2-178-18z"/><path d="m6353 13078c-22-29-47-63-55-75l-15-23-20 23c-11 12-28 37-39 55-19 33-51 43-60 18-6-16 39-93 68-117 20-16 20-16-6-57-27-43-32-67-18-76 13-8 51 22 67 54l15 30 56-36c53-34 93-41 101-18 2 7-23 28-57 49-33 20-60 40-60 45 0 4 24 41 54 81 29 41 51 79 49 86-10 27-42 11-80-39z"/><path d="m5833 13100c-25-10-37-41-28-71 9-28 49-22 53 9 4 26 5 26 42 7 67-34 7-113-108-145-35-9-42-15-42-35 0-21 8-27 54-40 71-21 221-17 221 5 0 12-21 17-92 25l-92 10 40 19c50 25 109 89 109 119 0 59-98 120-157 97z"/><path d="m4360 13069c-63-10-144-18-180-16-59 2-65 0-65-18 0-19 6-20 120-19 129 0 237 18 262 42 12 12 12 16 1 23-7 5-15 8-18 8-3-1-57-10-120-20z"/><path d="m3766 12974c-72-60-89-84-80-108 10-27 38-18 62 20 13 20 25 34 27 32s-12-47-31-102c-19-54-34-115-34-137 0-34 3-39 24-39 26 0 36 16 36 59 0 28 58 208 87 268 17 36 12 63-11 63-8 0-44-25-80-56z"/><path d="m6326 12478c-2-7-10-49-19-93s-27-127-39-185c-22-101-26-160-9-160 14 0 40 72 71 195 45 180 52 226 39 241-14 17-39 18-43 2z"/><path d="m4100 12451c-20-39-60-211-60-262 0-42 3-50 17-47 13 2 25 36 51 138 19 74 35 146 36 160 1 31-28 39-44 11z"/><path d="m9535 12302c-26-19-79-98-109-164-51-109-69-181-64-251 4-54 8-63 41-93 27-25 46-34 72-34 42 0 45 14 7 34-71 37-86 96-52 207 26 88 76 189 119 243 17 22 30 44 28 50-5 14-29 18-42 8z"/><path d="m9974 12275c-9-24 5-35 45-35 88 0 257-124 301-222 43-94 14-216-68-290-52-47-53-59-4-46 99 26 168 168 142 291-19 96-99 194-208 259-87 52-196 75-208 43z"/><path d="m3760 12162c-65-83-96-124-182-246-85-120-80-120-93-1-27 256-28 260-55 260-23 0-25-3-24-45 2-75 41-347 53-369 7-12 22-21 35-21 20 0 46 31 143 167 65 92 139 190 166 219 52 57 62 94 25 94-16 0-37-18-68-58z"/><path d="m6039 12193c-57-63-209-310-209-341 0-7-4-12-9-12-8 0-25 113-38 260-8 82-9 85-33 85-23 0-25-4-24-40 1-78 25-270 41-332 26-104 55-107 99-10 34 77 124 237 167 297 20 28 40 45 52 45 24 0 35 53 13 66-21 14-33 10-59-18z"/><path d="m9766 12051c-35-23-92-110-106-161-5-19-10-56-10-81 0-63 37-104 103-114 26-4 57-5 70-1 33 8 75 49 83 82 6 23 2 32-23 55-33 28-113 47-152 34-29-9-27 10 8 70 30 52 71 96 71 77 0-17 37-15 43 2 7 19-20 56-41 56-9 0-30-9-46-19zm58-241c30-11 33-26 9-52-23-25-81-24-110 4-32 30-29 45 6 40 16-2 32 1 35 7 9 14 27 14 60 1z"/><path d="m4992 12048c-7-7-12-37-12-67 0-62-18-139-44-189-14-26-15-37-5-48 19-23 38-16 58 24 26 51 133 176 154 180s22-17 7-137c-12-94-8-119 24-131 55-20 258 23 240 51-6 10-120 5-188-8l-29-5 6 80c3 44 7 83 8 88 5 30-3 93-15 109-12 17-18 18-54 7-23-7-55-26-71-43l-31-31v54c0 48-12 78-30 78-3 0-11-5-18-12z"/><path d="m4170 11932c0-20 5-22 68-22 37 0 94-4 127-9 103-16 168-17 172-3 9 26-64 42-217 49-149 6-150 6-150-15z"/><path d="m4395 11819c-22-5-76-8-120-6-74 2-80 1-80-18 0-18 8-20 98-23 87-2 105 0 153 22 30 14 54 27 54 30 0 8-58 5-105-5z"/><path d="m3807 11747c-34-35-74-72-89-82-34-21-38-55-6-55 12 0 30 8 41 18 20 17 20 16 12-13-16-57-12-90 10-93 17-2 23 6 33 45 7 27 33 84 58 128 25 43 43 86 42 94-7 35-39 21-101-42z"/><path d="m6024 11796c-44-20-60-71-29-96 19-15 45 3 45 31 0 10 5 21 11 24 14 9 59-34 59-56 0-28-43-71-108-109-73-42-91-71-62-100 47-47 210 1 210 62 0 22 5 23-54-7-27-14-63-25-80-25-30 0-28 2 29 38 66 42 112 90 121 127 8 34-31 94-72 111-39 16-32 16-70 0z"/><path d="m6332 11778c-17-17-15-113 3-147 23-45 80-47 127-4 17 15 18 11 18-70v-85l-39-29c-93-68-140-155-121-224 13-45 38-68 82-75 75-13 119 65 134 231 7 77 8 81 45 113 40 34 84 90 77 97-2 2-30-11-61-30l-57-34v113c0 84-4 117-14 125-16 13-46 5-46-13 0-23-62-96-81-96-17 0-19 8-19 58 0 51-11 82-30 82-3 0-11-5-18-12zm148-401c0-44-22-142-36-164-40-63-98 21-63 90 14 26 80 97 91 97 4 0 8-10 8-23z"/><path d="m4081 11152c-37-73-81-224-74-251 13-48 42-9 73 99 12 41 35 100 51 131 21 42 25 59 16 68-21 21-37 11-66-47z"/><path d="m4303 11178c-24-12-49-61-38-77 12-20 45-12 55 14 8 21 16 25 50 25 26 0 43-5 46-14 9-23-23-73-73-113-86-69-153-139-153-161 0-36 31-43 172-40 110 3 133 6 133 18 0 11-13 16-50 17-27 2-83 5-123 9-73 6-73 6-55 26 10 12 47 43 83 70 77 59 120 117 120 165 0 51-29 73-92 72-29 0-63-5-75-11z"/><path d="m9584 11010c-23-11-50-31-62-43-53-58-105-262-88-351 10-51 54-96 95-96s47 16 14 32c-16 7-36 29-46 50-16 32-17 47-8 115 19 151 67 237 147 263 24 8 34 17 32 28-5 25-37 25-84 2z"/><path d="m10177 11003c-16-15-5-32 31-46 100-40 159-144 149-262-5-64-45-158-96-225-15-19-35-47-44-62-29-46 4-35 65 21 77 70 133 189 133 281 0 91-29 164-86 222-57 57-131 92-152 71z"/><path d="m7312 10949c-46-30-62-67-62-142 0-58 4-69 40-124 23-33 66-86 96-118 79-82 110-131 94-149-34-42-134-44-198-4l-35 21 39 21 39 21-49 3c-59 4-72 0-79-27s24-66 71-90c78-39 196-32 246 14s30 101-74 210c-83 87-128 150-136 192-9 46 3 100 28 123 34 31 99 25 118-11 14-25-16-99-40-99-19 0-30-17-23-37 7-19 58-16 75 5 43 49 58 109 37 155-15 33-44 48-103 53-41 4-58 1-84-17z"/><path d="m3758 10903c-26-21-91-92-145-158-55-66-106-126-115-133-14-11-19 0-41 90-14 57-29 127-33 156-6 45-9 52-29 52-13 0-25-7-29-15-6-15 43-246 63-297 11-29 38-48 70-48 19 0 43 26 218 235 55 67 96 100 128 106 12 3 20 12 20 24 0 15-8 21-31 23s-41-6-76-35z"/><path d="m9738 10859c-18-7-28-18-28-31 0-18 4-20 45-14 25 3 64 9 88 12 27 3 48 1 59-8 17-12 17-15-1-53-11-22-22-47-24-56-4-10-26-20-66-28-51-10-61-15-61-33 0-19 4-20 50-15l50 6v-40c0-36 2-40 22-37 18 2 24 12 29 41 3 20 8 40 11 43s34 9 69 14c67 10 107 34 75 46-9 4-42 4-72 1s-54-4-54-1c0 2 9 21 20 41 24 44 25 72 6 99-12 16-28 19-103 21-48 1-100-2-115-8z"/><path d="m5466 10774c-38-38-8-51 82-36 77 13 135 4 165-26 12-12 17-27 13-38-9-28-72-74-134-100-120-48-111-79 25-87 56-3 122-14 155-26 72-25 120-30 125-13 7 19-102 63-190 76l-79 12 34 16c18 8 54 35 81 58 57 50 61 82 19 128-36 39-86 52-194 52-65 0-90-4-102-16z"/><path d="m6905 10775c-43-21-114-103-126-146-21-69 28-104 125-89l48 7-6-36c-3-20-6-50-6-67 0-29-5-34-102-81-148-73-198-129-200-227-1-64 18-110 63-150 120-109 254 37 290 314 6 47 15 93 20 103 6 11 6 17-1 17-14 0-13 129 1 169 8 22 8 36 1 43-5 5-7 37-4 74 5 62 4 64-22 74-36 13-45 13-81-5zm55-52c-1-10-7-43-14-73-12-54-14-55-55-64-79-17-81 28-6 107 47 49 75 60 75 30zm-23-424c-9-79-34-164-64-216-25-43-76-93-95-93-5 0-25 15-43 33-58 58-56 164 4 221 23 22 183 114 200 116 2 0 1-27-2-61z"/><path d="m4810 10712c0-18 8-20 118-24 84-3 127-9 154-22 58-28 84 7 31 41-21 14-54 18-165 21-132 4-138 3-138-16z"/><path d="m6222 10718c-5-7-21-41-35-75-59-149-203-348-301-418-85-60-166-58-166 5 0 23-4 30-20 30-43 0-45-66-3-100 57-45 138-33 231 34 45 32 158 159 207 234 23 35 30 40 37 28 22-39 112-5 217 82l40 33-1-44c-1-57 16-87 49-87 22 0 24 3 18 23-16 48-16 95-1 160 16 70 15 87-8 87-13 0-26-13-112-109-46-50-126-111-147-111-14 0 1 93 23 151 25 63 26 89 1 89-10 0-23-6-29-12z"/><path d="m7781 10513c-66-71-81-101-61-117 10-7 15-30 15-66 0-48 2-55 20-55 15 0 21 9 27 43 10 59 44 151 69 185 11 15 19 36 17 45-6 33-35 22-87-35z"/><path d="m3780 10504c-71-62-87-94-47-94 13 0 32 9 42 20 30 33 28 17-10-66-42-91-42-118-3-122 23-3 28 1 34 25 12 55 27 99 61 173 59 130 28 156-77 64z"/><path d="m4750 10532c0-21 4-22 98-22 53 0 126-5 162-10 67-10 121-2 127 17 7 19-30 25-209 30-177 6-178 6-178-15z"/><path d="m4196 9974c-35-35-9-51 55-34 38 10 44 10 56-6 30-40 17-70-72-163-47-50-85-99-85-109 0-30 66-52 153-52 128 0 133 37 6 46-41 3-80 8-88 10-9 3 14 33 67 88 82 84 82 84 82 140 0 77-19 96-99 96-41 0-65-5-75-16z"/><path d="m4011 9937c-27-69-73-253-74-294-2-42 1-48 18-48 15 0 22 10 29 40 21 99 69 261 81 275 10 11 11 20 4 33-14 25-48 21-58-6z"/><path d="m10191 9797c-8-11 2-32 47-94 32-44 73-113 92-154 28-62 34-85 34-149 1-133-60-223-204-303-17-9-30-23-27-30 15-42 177 51 228 131 74 117 78 248 11 386-43 88-139 226-158 226-6 0-17-6-23-13z"/><path d="m9684 9698c-59-71-113-232-114-341 0-86 46-136 112-122 37 9 35 20-4 31-52 15-63 49-48 147 14 97 51 194 97 254 18 24 31 48 28 53-12 20-44 9-71-22z"/><path d="m3694 9678c-22-24-75-93-117-153-42-61-94-130-116-155l-39-44-11 39c-6 22-14 60-16 85-14 121-29 217-37 233-11 21-47 22-55 2-3-9 2-39 10-68 9-29 21-97 27-151 21-195 63-231 156-133 28 28 82 97 119 152 38 55 84 119 103 142 30 37 36 41 53 30 16-10 21-9 28 2 16 25-4 56-36 59-24 2-37-5-69-40z"/><path d="m7365 9675c-44-24-86-66-101-102-28-64 30-157 165-263 135-107 132-123-20-128-100-4-101-4-94 18 6 20 4 21-32 18-33-3-38-6-38-28 0-18 9-30 35-43 29-15 53-18 136-14 206 8 226 73 63 203-109 87-169 161-169 208 0 10 18 36 40 58 44 41 81 49 115 24 18-13 19-18 7-58-23-75-26-98-11-98 21 0 33 12 52 53 25 54 22 108-6 135-31 30-103 38-142 17z"/><path d="m9930 9583c-29-11-60-47-60-68 0-23 38-65 59-65 7 0-3-18-23-40-59-66-58-113 5-146 25-12 39-13 80-5 66 14 106 36 114 61 7 23-37 108-62 117-11 4-4 15 28 43 41 35 47 60 13 60-9 0-23 9-33 21-17 21-90 35-121 22zm84-59c10-26-13-46-43-39-39 10-54 25-40 41 16 20 75 18 83-2zm0-130c32-32 40-56 22-70-27-19-86-27-102-13-20 17-17 33 12 68s45 38 68 15z"/><path d="m5648 9539c-33-19-15-89 22-89 19 0 24 10 21 36-2 19 70 25 96 8 46-30 19-83-87-170-85-69-100-88-82-106 9-9 31-9 105 1 50 7 134 16 184 21 51 5 100 13 110 18 14 9 13 11-7 22-23 12-148 9-255-6l-40-6 62 56c78 71 103 127 79 174-9 17-25 36-35 42-25 13-151 13-173-1z"/><path d="m6858 9462c-38-28-78-94-78-129 0-45 87-76 149-55l31 11v-80c0-43-4-79-9-79-19 0-132-113-158-157-14-24-34-71-44-104-22-71-13-131 27-174 43-46 135-24 183 44 33 46 61 178 61 285 0 96 0 96 33 127l32 30-32-6-33-7v79c0 43 4 92 9 110 7 23 6 35-4 43-7 6-15 24-19 40-10 55-88 66-148 22zm98-36c3-8-4-35-15-60-17-40-24-46-50-46-57 0-63 7-41 50 31 60 92 92 106 56zm4-435c0-154-54-277-120-269-55 7-63 92-17 191 24 53 109 157 128 157 5 0 9-36 9-79z"/><path d="m4910 9431c0-11 5-23 12-27 17-11 321-25 331-15 18 18-29 34-126 42-56 5-128 11-159 14-53 6-58 4-58-14z"/><path d="m6526 9383c-62-103-167-213-203-213-10 0 5 116 23 177 17 58 11 78-21 71-12-2-26-29-44-84-44-134-181-353-296-471-34-35-66-63-73-63-14 0-16 58-2 115 7 31 6 43-5 55-25 24-44-7-54-86-10-83 0-114 44-126 23-6 39-2 71 17 51 30 160 163 240 293 58 92 58 92 79 72 12-11 29-20 39-20 31 0 89 40 148 104l57 61-1-71c-1-77 13-114 41-114 27 0 30 8 18 46-8 26-7 59 2 127 26 183 26 167-2 167-20 0-33-12-61-57z"/><path d="m3738 9354c-34-18-40-64-9-64 10 0 24 7 31 15 20 24 49 18 56-10 8-33-27-79-114-148-82-66-96-82-88-103 6-15 20-16 121-11 120 7 185 25 185 52 0 14-8 15-57 10-32-4-76-11-98-16-76-16-78-11-16 40 34 27 75 65 91 86 75 94-1 204-102 149z"/><path d="m4838 9269c-6-4-8-14-5-23 6-14 30-16 181-16 168 0 204 6 180 30-11 10-341 18-356 9z"/><path d="m7742 9174c-18-7-32-17-32-23 0-5-2-15-5-23-3-7 0-22 8-31 15-22 47-13 47 13 0 30 20 34 46 9 43-41 28-84-48-134-75-50-128-96-128-110 0-33 30-45 114-45 77 0 86 2 127 32 46 33 40 47-13 29-17-6-58-11-91-11-53 0-58 2-46 16 7 8 26 22 41 30 54 28 107 85 119 126 9 36 8 44-15 79-15 21-27 39-29 39-1 0-16 4-33 9-21 6-41 4-62-5z"/><path d="m8807 8583c-4-3-7-15-7-25 0-16 7-18 52-16 51 3 52 3 62-31s9-35-67-105c-113-104-106-120 66-143 81-10 120-11 140-4 42 16 32 29-30 37-32 4-89 12-126 18l-68 12 59 48c68 54 87 90 79 142-10 58-31 74-97 74-31 0-60-3-63-7z"/><path d="m10845 8563c-29-8-55-33-55-55s27-23 54-3c23 18 151 21 161 5 7-11-39-59-123-132-76-66-57-82 108-92 63-3 132-11 153-17 39-11 77-5 77 12 0 19-66 37-181 50l-116 13 51 45c67 59 86 84 86 114 0 44-33 62-119 64-42 1-85-1-96-4z"/><path d="m10586 8541c-3-5-10-40-16-77-33-221-32-216-17-232 13-13 17-11 30 14 8 16 22 81 32 143 9 63 19 119 21 123 7 12-15 38-32 38-7 0-15-4-18-9z"/><path d="m4691 8516c-19-22-2-49 28-43 34 7 57-7 69-41 13-37 3-54-80-131-72-67-85-89-69-118 15-29 181-80 216-67 25 10 17 33-12 40-49 10-129 35-144 45-11 7 3 25 63 81 83 79 97 107 78 163-21 65-116 110-149 71z"/><path d="m2134 8382c-10-6-45-122-75-244-13-57-5-101 18-96 11 2 25 40 48 133 18 72 38 143 44 159 15 39-6 68-35 48z"/><path d="m2390 8380c-39-9-72-43-63-65 7-20 40-19 51 1 13 23 83 29 120 10 66-34 29-90-108-162-74-39-107-72-96-99 15-40 194-88 243-66 27 12 27 13 8 27-10 8-33 14-51 14-42 0-135 31-131 43 1 5 29 24 62 42 147 81 193 158 134 221-36 39-97 51-169 34z"/><path d="m6678 8318c-18-6-28-17-28-30 0-18 4-20 43-14 33 5 47 3 56-8 17-21 8-32-55-68-86-48-105-96-51-131 50-32 228-63 272-47 19 7 19 7-1 18-12 6-57 19-100 28-90 18-144 38-144 53 0 6 19 20 43 32 112 56 131 135 40 170-29 11-40 10-75-3z"/><path d="m4312 8308c-5-7-17-35-25-63-9-27-27-77-40-110-14-33-28-71-32-85-7-25-7-25 25 5 43 40 75 97 99 175 15 47 17 68 9 77-13 16-23 16-36 1z"/><path d="m8504 8298c-29-32-77-111-137-224-29-54-57-99-63-101s-27 29-46 69c-37 74-56 134-60 198-3 30-7 35-28 35-24 0-25-3-24-51 2-68 27-142 77-232 66-117 106-108 183 41 67 131 122 215 145 222 13 4 19 15 19 36 0 24-4 29-23 29-13 0-33-10-43-22z"/><path d="m10273 8188c-121-155-194-232-205-216-4 7-8 76-8 153s-4 146-9 153c-5 8-17 12-27 10-17-3-19-15-22-148-3-162 9-207 60-224 38-13 89 31 195 168 47 61 101 128 121 148 37 39 38 68 3 68-14 0-49-37-108-112z"/><path d="m9606 8273c-3-10-8-50-12-90l-6-71-79-13c-76-12-100-27-76-47 8-7 29-7 57-2 25 5 57 9 72 10 26 0 27-2 25-49-1-36 3-54 17-70 11-12 23-21 28-21 4 0 8 33 8 74 0 74 0 74 31 80 17 3 45 6 61 6 41 0 69 17 61 36-5 14-17 15-80 10l-74-7 7 48c15 88 12 118-13 121-14 2-23-3-27-15z"/><path d="m6283 8158c-23-28-68-211-57-229 3-5 9-9 13-9 11 0 51 75 51 96 0 11 11 44 23 75 13 30 21 61 19 67-5 16-37 15-49 0z"/><path d="m3983 8079c-110-149-173-249-241-387-46-94-79-149-84-144-14 14-22 386-10 457 5 33 7 65 5 72-6 16-39 17-49 2-15-24-24-315-13-428 14-148 26-185 60-189 33-4 45 15 141 211 74 150 193 335 234 362 35 22 51 60 34 80-21 25-36 18-77-36z"/><path d="m1466 8052c-7-20 47-450 66-532 11-43 18-56 35-58 30-4 53 31 174 279 59 119 116 226 128 238 27 27 24 55-5 59s-60-47-180-291c-53-109-98-196-101-194-6 7-22 114-43 297-11 96-23 185-25 198-6 27-41 30-49 4z"/><path d="m8634 7999c-58-46-104-107-104-140 0-22 5-29 19-29 17 0 20-8 23-52 3-45 6-53 24-56 19-3 22 3 27 58 5 43 19 86 47 142 32 63 38 83 29 94-16 19-21 18-65-17z"/><path d="m5707 7983c-3-5-8-107-12-229-6-191-5-225 9-251 24-48 66-57 109-22 65 50 363 470 353 496-9 22-45 14-63-14-112-180-282-411-323-440-18-13-21-12-31 14-7 17-9 60-5 108 22 305 21 345-14 345-10 0-21-3-23-7z"/><path d="m10430 7925c-27-28-64-53-92-63-33-11-48-22-48-34 0-23 53-24 90-3s39 19 24-22c-7-21-13-54-14-74v-36l-407-7c-225-4-455-11-513-16-58-6-367-13-687-16-559-7-583-8-583-25 0-18 19-19 503-19 292 0 623 6 792 14 340 17 1063 25 1118 12 37-8 39-8 35 15-4 29-29 37-134 38l-81 1 12 53c7 28 24 81 39 116 47 110 21 142-54 66z"/><path d="m5327 7903c-3-5-12-42-22-83l-17-75-49 3c-43 4-49 2-49-16 0-16 9-21 46-27 37-5 44-10 39-23-3-9-9-44-12-78-5-55-4-63 15-73 22-12 24-6 47 121l7 37 71 3c59 2 72 6 75 21 3 14-5 17-45 18-26 1-57 4-69 7-21 7-21 7-4 78 9 39 14 76 12 82-4 13-38 16-45 5z"/><path d="m2870 7810c0-19 7-20 179-20 151 0 182-3 196-16 19-19 45-11 45 14 0 39-17 42-222 42-191 0-198-1-198-20z"/><path d="m6990 7730c0-19 6-20 181-20 166 0 180 1 177 18-3 15-21 17-181 20-172 2-177 2-177-18z"/><path d="m2843 7633c-24-9-14-42 15-49 15-3 43-10 62-15 66-17 246-23 280-9 17 7 27 17 23 21-5 5-67 13-138 19-117 9-171 17-215 33-8 3-21 3-27 0z"/><path d="m6950 7612c-6-2-10-12-10-23 0-18 10-19 208-19 156 1 213 4 232 14 24 14 24 14-20 20-50 6-394 13-410 8z"/><path d="m3925 7563c-29-7-55-33-55-55 0-23 27-24 52-1 17 16 20 15 46-4 15-11 31-32 36-46 14-38-17-67-130-122-51-24-96-50-99-56-17-26 14-30 146-21 136 10 189 24 189 49 0 12-15 13-82 8l-83-7 40 28c72 50 92 88 71 137-25 60-85 101-131 90z"/><path d="m1800 7536c-28-16-61-72-53-92 8-22 43-16 52 9 5 13 16 29 24 36 13 10 17 9 27-8 19-37-4-94-56-136-36-30-44-43-42-64 3-24 7-26 61-29 106-5 197 36 197 89 0 13-9 11-57-12-32-15-76-30-98-34l-40-7 37 39c20 21 42 51 47 66 23 61 7 126-36 146-30 14-32 13-63-3z"/><path d="m4301 7490c-15-21-34-53-41-70-7-16-15-30-19-30-7 1-55 77-64 103-8 21-43 23-51 1-7-19 11-56 59-118 19-25 35-50 35-56 0-5-19-37-42-70-30-44-38-64-30-72 17-17 37-4 80 51l40 50 24-23c33-33 73-57 81-49 17 16 3 43-44 86l-50 45 27 54c15 29 37 67 49 83 12 17 20 36 18 43-9 24-43 11-72-28z"/><path d="m9670 7431c0-23 10-29 103-55 31-10 57-23 57-30 0-19-38-50-95-79-27-14-58-34-69-46-16-18-17-23-5-37 12-15 30-16 152-10 141 8 217 23 252 51 19 15 15 16-55 11-41-3-115-8-165-12l-90-6 45 27c90 53 109 89 73 134-18 22-98 54-165 66-34 7-38 5-38-14z"/><path d="m6236 7418c-8-13-18-35-21-50-9-35-103-123-157-148-24-11-63-19-88-19-45 0-45 0-20 17 59 39 100 89 100 121 0 44-38 81-84 81-54 0-116-28-116-52 0-18 4-19 33-14 85 18 104 18 111 1 8-23-8-50-47-73-77-49-96-94-47-119 61-31 183-1 258 63 23 19 42 31 42 25 0-5 6-16 14-24 12-12 7-23-32-80-42-62-46-72-46-129 0-103 50-178 121-178s112 44 139 149c18 72 14 126-15 221-18 58-18 59 0 76 34 31 17 58-21 34-9-5-19-5-27 1-17 15-48 3-61-24l-11-22v23c-1 12 6 39 14 59 22 51 20 83-5 83-11 0-26-10-34-22zm103-259c23-107 4-220-45-258-33-26-57-17-83 29-30 55-28 124 5 175 35 52 95 115 105 109 4-2 12-27 18-55z"/><path d="m9100 7314c-6-14-10-28-10-31s-22-59-50-124c-27-65-50-128-50-139 0-32 36-24 67 15 29 37 181 163 221 184 22 11 22 11 21-41 0-29-3-84-7-123-9-90-7-101 27-115 24-10 35-8 67 8 58 30 179 126 182 145 6 29-39 20-88-18-25-20-65-49-90-66-44-29-45-29-48-8-2 11 1 50 8 86 11 64 6 142-12 176-19 36-82 14-175-62-35-28-63-49-63-47s14 38 31 80 28 83 25 91c-9 25-45 18-56-11z"/><path d="m5367 6396c-8-21 18-39 44-31 29 9 96-22 103-48 7-28-4-46-62-95-59-49-73-79-46-99 23-17 295-18 327-1 21 11 21 11 2 19-11 4-47 8-80 8-33 1-90 4-126 7l-66 7 54 51c55 54 63 78 43 130-5 14-27 34-49 46-48 24-136 28-144 6z"/><path d="m7955 6248c-22-13-50-39-63-58-40-60-19-93 121-192 74-52 109-106 91-136-14-23-128-61-184-62h-45l35 23 35 22-44 3c-74 5-110-55-51-86 53-28 238 11 287 61 59 61 17 143-123 237-84 57-88 62-80 96 9 32 62 64 109 64 34 0 37-2 37-28 0-15-5-33-11-39-16-16-4-43 19-43 33 0 62 102 39 134-23 31-121 33-172 4z"/><path d="m7060 6018c-76-156-115-219-224-361l-50-64-378-13c-307-10-500-11-1030 0-764 14-943 12-943-10 0-21 595-34 1549-34l749 1-41-38c-34-32-46-38-70-33-33 7-51-18-31-42 32-39 110-3 189 86l35 40 258 7 257 6-26-57c-35-76-38-172-8-213 28-38 87-43 150-12 65 31 140 135 168 233 9 30 18 41 39 47 15 4 258 13 540 19 282 7 516 16 521 20 4 5 5 13 2 19-10 15-530 15-834 0-128-7-235-10-237-7-11 11 18 118 34 123 9 3 27 15 41 26l25 21-42-6-43-6-2 92c0 51 0 100 1 108 2 8 5 29 7 45 18 108-164 91-236-21-33-53-46-114-30-143 24-46 109-65 160-36 37 21 40 19 40-27 0-43-1-43-57-67-31-14-81-44-112-67l-56-41-259-8-260-7 29 39c16 21 41 52 56 70s40 53 54 77c24 40 28 44 42 31 29-29 98-11 153 41l26 24-1-81c0-66 3-84 17-92 24-16 28-8 32 64 3 71 19 147 47 227 25 70 24 82-3 81-17 0-37-22-82-89-51-78-127-152-141-139-9 10 24 118 64 209 43 99 45 120 11 120-17 0-36-30-100-162zm552-3c-2-11-5-33-7-50-11-73-50-115-107-115-40 0-52 14-45 54 11 69 84 139 137 134 19-2 24-8 22-23zm-17-357c-11-48-11-48-78-48-38 0-58 3-51 10 12 12 117 70 127 70 5 0 5-15 2-32zm-31-125c-11-46-63-137-100-176-45-46-103-65-122-39-18 23-10 127 13 172 33 66 40 70 132 70h83z"/><path d="m5114 6140c-33-21-108-113-184-224-25-36-48-66-51-66-4 0-14 30-23 68-30 119-92 232-126 232-26 0-31-25-11-52 32-40 58-101 81-185 34-122 71-151 122-95 14 15 57 72 96 127 38 55 86 116 106 135 31 29 39 33 55 23 26-16 50 10 34 35-15 25-63 25-99 2z"/><path d="m6473 6120c-29-12-29-41-2-66 21-19 21-18 38 2 10 13 34 23 64 27 54 8 77 1 77-22-1-24-25-49-123-130-99-82-122-110-112-141 15-46 97-52 225-17 93 26 130 42 130 57 0 16-59 11-140-10-77-20-160-26-160-12 0 5 30 33 68 63 96 77 160 144 168 175 5 18 1 34-13 52-19 25-25 27-109 29-49 1-99-2-111-7z"/><path d="m6047 6063c-3-5-13-45-23-90l-19-82-85-3c-68-2-85-6-85-18s18-16 89-18l88-3-5-28c-7-35 13-67 37-58 11 4 16 18 16 46 0 44-5 42 114 56 57 6 61 8 52 31-6 15-17 16-85 11l-79-6 13 57c23 99 22 112-4 112-11 0-22-3-24-7z"/><path d="m2840 6020c-74-39-116-112-104-179 5-29 28-57 116-142 61-59 118-119 129-135 21-32 25-75 9-105-20-36-135-79-215-79-40 0-40 0-17 18 13 10 20 21 16 25-14 13-62 7-84-11-19-15-21-22-11-39 19-37 88-48 180-29 241 50 263 191 56 365-107 89-129 121-122 172 3 22 14 50 24 61 25 28 89 59 107 52 19-7 20-20 5-63-10-27-9-35 5-49 15-15 17-15 32 0 26 25 31 114 9 138-23 26-87 26-135 0z"/><path d="m8247 5922c-58-59-68-78-43-88 12-4 12-12 0-51-18-60-18-129-1-136 24-9 32 6 44 75 8 49 24 91 57 147 52 91 56 111 23 111-14 0-43-21-80-58z"/><path d="m5215 5878c-33-19-105-98-105-115 0-11 7-14 25-11 29 6 30 2 9-40-21-43-15-67 16-67 18 0 26 6 28 22 2 13 21 59 43 103 43 89 46 105 23 114-19 7-15 8-39-6z"/><path d="m1380 5834c-76-33-110-92-74-129 23-22 39-14 39 21 1 35 52 74 98 74 29 0 29 0 25-55-3-38-18-80-49-142-37-73-49-89-74-96-57-16-114-51-125-78-15-35-10-69 12-83 22-13 56 5 122 67 27 26 52 47 55 47s30-27 61-60c48-53 61-61 100-66 31-4 51-1 65 9 18 14 16 16-34 31-43 13-65 28-110 76l-56 60 31 63c64 126 76 214 36 260-19 21-74 22-122 1z"/><path d="m1912 5813c-25-47-52-153-58-227-5-64-16-108-56-211-66-170-94-224-166-321-63-86-108-128-125-117-9 6-6 82 9 186 6 43 5 47-14 47-28 0-43-46-49-156-5-84-4-93 16-113 30-30 62-26 111 16 95 81 191 236 259 414 33 86 33 87 60 76 39-15 79-1 122 41l37 37 6-70c7-77 29-118 66-123 36-6 47 14 19 37-23 19-24 25-29 183-5 163-5 163-29 163-21 0-27-7-36-45-16-62-60-146-87-164-61-43-68-1-28 164 36 149 36 193 3 198-13 2-25-4-31-15z"/><path d="m2353 5695c-55-23-98-118-74-163 14-26 70-52 131-59l50-6v-61-62l-75-49c-131-86-226-227-210-315 12-68 27-99 62-131 33-28 41-31 88-27 63 5 94 27 133 93 41 68 52 131 59 325 7 206 1 257-33 270-23 9-25 13-19 57 3 27 8 58 11 71 6 28-36 72-68 72-13-1-38-7-55-15zm63-89c-9-77-14-88-40-80-33 10-46 24-46 49 0 31 46 85 72 85 19 0 20-4 14-54zm34-536c-15-116-58-189-121-203-51-12-99 51-99 130 0 68 40 132 136 221l89 82 3-73c2-39-2-110-8-157z"/><path d="m3695 5700c-11-19 4-27 72-38 90-15 381-23 389-10 15 24-26 33-218 44-254 16-236 16-243 4z"/><path d="m3741 5511c-7-5-11-15-9-22 11-32 351-53 413-25 43 19 25 23-170 36-93 6-181 13-195 15-14 3-31 1-39-4z"/><path d="m6265 5320c-10-16 20-40 49-40 26-1 108-42 113-57 6-16-48-62-113-97-66-36-84-58-68-83s46-31 171-32c107-1 139 7 117 29-5 5-60 12-122 16l-113 7 67 36c37 20 81 54 98 74 29 36 30 40 15 65-29 53-193 116-214 82z"/><path d="m3074 5299c-10-17 7-27 50-31 84-7 71-84-30-185-100-99-86-133 55-133 47 0 72 4 80 14 14 17 3 22-82 32l-57 6 49 49c59 58 91 121 91 177 0 60-25 82-94 82-30 0-58-5-62-11z"/><path d="m5747 5163c-4-3-7-61-7-127-1-67-5-141-9-165-17-86 20-98 71-23 48 70 128 152 170 173 20 10 40 19 43 19 11 0 4-84-11-136-8-29-14-68-12-86 3-29 7-33 36-36 47-5 187 71 203 110 17 40 5 45-39 16-49-33-143-81-148-76-2 3 5 34 15 70 23 82 18 153-13 173-39 26-100 1-178-73l-68-64v100c0 55-3 107-6 116-6 16-35 22-47 9z"/><path d="m4238 4079c-34-13-41-59-9-59 11 0 23 5 26 10 8 13 61 13 86-1 29-15 16-45-42-101-88-83-60-118 94-118 94 0 137 10 137 30 0 6-22 10-49 10-26 0-76 3-110 6l-61 7 44 44c62 61 74 137 27 162-28 16-114 21-143 10z"/><path d="m6231 4040c-34-8-53-27-47-45 3-10 13-10 97 1 42 5 48 3 68-21 11-15 21-34 21-41s-36-49-80-93-80-87-80-95c0-24 39-44 110-56 75-13 196-10 193 5-4 13-29 20-128 34-44 7-87 14-95 17-11 3 6 26 57 79 62 64 73 81 73 110 0 54-52 106-110 110-25 2-60 0-79-5z"/><path d="m8725 3981c-76-13-131-56-141-107-12-66 3-92 132-225 68-70 124-133 124-140 0-31-20-43-84-50-77-10-116 1-116 31 0 22-20 26-38 8-19-19-14-45 14-67 21-17 41-21 96-21 38 0 89 5 114 11 37 10 47 17 59 47 8 19 15 41 15 49 0 7-58 73-128 146-71 73-132 145-135 159-16 62 32 105 127 115 59 6 134-11 143-33 3-8 0-21-7-29-15-18-6-45 14-45 23 0 57 51 54 79-6 52-138 91-243 72z"/><path d="m3025 3957c-17-8-36-27-43-42-21-45 0-82 94-165 169-148 178-161 127-181-19-7-37-8-55-1-52 19-114-11-88-43 8-10 30-15 64-15 68 0 118 15 145 44 42 44 21 76-157 234-46 41-82 81-82 91 0 32 26 44 84 39 74-6 86-18 86-87 0-68 12-91 37-75 13 8 19 26 21 65 4 95-35 136-138 144-44 4-75 1-95-8z"/><path d="m1469 3831c-22-18-23-21-8-36 8-8 32-18 52-22 29-4 37-2 37 10 0 20 71 33 99 17 48-25 16-75-105-165-57-42-93-76-92-85 3-12 25-16 98-21 52-4 119-14 149-23 58-17 67-16 58 8-10 26-66 47-138 53l-69 6 68 52c78 61 117 120 107 165-11 49-38 60-141 60-76 0-96-3-115-19z"/><path d="m5610 3823c0-16 7-68 15-118 8-49 15-117 16-150 1-130 42-171 95-93 60 90 162 224 188 248 15 14 37 25 49 25 15 0 23 7 25 22 4 26-25 44-53 33-29-11-132-123-192-209l-52-74-5 34c-6 40-18 174-21 240-3 58-10 69-41 69-20 0-24-5-24-27z"/><path d="m7219 3817c-27-14-45-32-47-44-5-31 21-34 59-8 53 37 100 42 134 13 27-24 27-25 11-56-9-18-58-63-111-102-112-84-139-114-125-140 22-42 167-63 248-36 29 10 52 22 52 27s-42 9-94 9-107 5-123 11l-28 10 25 20c14 11 57 44 96 73 105 79 134 124 120 181-16 63-134 86-217 42z"/><path d="m7830 3790c-38-53-92-181-95-227-4-48-34-102-153-272-70-101-265-311-278-299-4 4 1 38 10 75 9 38 16 78 16 91 0 24-22 30-37 10-15-19-42-127-43-173-3-73-2-75 31-75 27 0 50 19 164 133 107 108 150 160 231 282 84 128 102 150 122 147 37-5 87 16 135 59l45 39-5-73c-6-84 5-117 41-117 32 0 37 9 19 36-13 20-14 35-5 94 6 38 22 95 36 126s23 60 20 65c-12 21-43 6-94-47-74-76-148-134-170-134-17 0-17 4 6 44 37 67 85 206 79 227-10 30-50 24-75-11z"/><path d="m3827 3803c-4-3-7-39-7-79 0-71-16-164-43-254-8-25-12-51-10-57 11-32 44-9 101 70 59 81 140 166 130 137-36-106-33-165 8-180 60-23 153 8 162 53 4 21-25 22-52 2-21-16-81-20-90-7-3 5 1 33 9 63 20 72 19 128 0 135-26 10-75-17-128-70-28-28-47-43-44-33 11 29 20 173 13 201-6 25-33 35-49 19z"/><path d="m2158 3788c-9-7-39-57-67-111-81-156-255-403-328-466-56-48-66-50-57-15 6 23 4 25-21 22-34-4-48-35-31-69 13-26 35-34 71-25 34 9 131 101 184 176 120 168 114 162 124 143 15-28 38-43 67-43 27 0 51 15 152 96l64 51-4-63c-3-48 0-70 12-89 31-47 42-32 43 63 0 62 7 104 22 146 28 77 27 96-2 96-16 0-38-18-72-62-28-34-84-91-125-125-106-89-118-86-90 24 10 39 40 108 65 153 37 65 44 84 34 96-14 17-21 17-41 2z"/><path d="m6843 3710-28-80h-62c-65 0-97-17-87-45 5-11 19-13 65-8 32 3 59 3 59-2 0-4-7-32-16-62-12-42-14-61-5-79 6-13 15-24 19-24 5 0 22 41 38 90l28 90h96c70 0 102 4 116 15 32 24 2 33-102 27l-95-5 26 69c28 73 27 94-4 94-15 0-25-17-48-80z"/><path d="m2660 3727c-33-26-62-88-67-146-5-53-3-60 18-75 13-9 33-16 44-16 19 0 22-10 34-102 13-96 13-102-5-115-85-59-134-108-161-160-54-101-52-175 3-250 32-43 77-51 136-25 86 38 108 97 108 292v136l50 29c50 29 88 71 75 83-3 3-35-8-70-26-45-22-66-28-71-20-4 6-10 59-12 116-4 90-2 106 12 114 29 16 15 118-22 161-17 20-50 22-72 4zm54-99c5-22 3-28-9-28-9 0-21-13-26-30-11-29-39-42-39-17 0 24 22 91 38 115 17 27 20 23 36-40zm4-548c-5-120-21-166-69-194-41-24-73-14-93 28-39 82-5 179 91 265 56 50 58 51 66 29 5-13 7-70 5-128z"/><path d="m8255 3691c-71-32-123-108-106-153 12-32 72-52 126-42l35 6v-53c0-30-3-63-6-74s-38-42-79-68c-84-55-159-131-181-182-20-49-18-114 6-153 11-18 41-46 67-62 88-56 191-32 213 49 17 66 29 180 30 289 0 56 3 102 8 102 11 0 85 70 79 76-3 3-22-2-42-10-21-9-39-16-41-16-10 0-2 85 12 127s14 48 1 58c-12 8-14 22-10 53 10 72-30 91-112 53zm55-68c-6-24-5-42 2-50 8-9 3-15-17-23-42-16-95-10-95 11 0 17 44 71 70 85 42 22 49 18 40-23zm-10-425c0-83-12-194-26-240-3-9-19-21-35-27-41-14-84 4-128 54-30 34-32 42-27 79 9 57 51 112 132 173 38 29 72 53 77 53 4 0 7-42 7-92z"/><path d="m4755 3599c-16-25 18-29 191-27 151 3 179 5 179 18s-28 15-182 18c-125 2-184-1-188-9z"/><path d="m9222 3563c-71-49-142-121-136-137 9-23 34-20 62 7 21 18 24 19 19 4-34-93-51-207-32-213 22-8 38 17 51 82 16 75 59 175 97 226 45 60 9 78-61 31z"/><path d="m4770 3450c0-19 7-20 198-20 112 0 203 5 212 10 34 22-19 30-212 30-191 0-198-1-198-20z"/><path d="m3308 3399c-26-15-22-46 8-66 28-18 59-9 59 18 1 15 22 14 41-2 40-33 8-88-80-138-64-37-91-65-82-87 5-14 25-15 159-12 119 3 159 7 183 20 27 15 51 45 42 53-2 2-34-5-73-15-39-11-106-19-150-19l-80-1 35 22c52 33 94 68 107 92 26 45 8 108-38 132-32 16-106 18-131 3z"/><path d="m5973 3362c-60-50-113-107-113-122 0-4 7-14 16-21 14-11 20-10 40 14 30 35 30 31-1-54-22-62-23-70-8-84 20-21 48-15 46 9-2 27 50 157 87 217 57 94 23 115-67 41z"/><path d="m9075 2504c-164-22-477-27-1900-34-1041-6-1617-12-1710-20-77-6-462-15-855-18-626-6-715-9-715-22-1-19-52-120-103-203-21-34-84-147-140-252-55-104-171-314-258-465-86-151-168-294-181-318-14-23-25-42-26-42s-2 100-2 223c0 276-7 309-79 384-42 42-59 53-84 53s-32-4-32-20c0-11 6-20 13-20s34-20 59-44c37-35 48-54 57-97 18-85 25-322 12-429-7-52-15-123-18-157-6-63-6-63 21-63 22 0 31 10 61 69 19 39 56 105 81 148 93 155 339 592 439 778 56 105 133 245 171 311l69 121 770 6c424 3 831 11 905 17 84 7 732 14 1705 20 1057 6 1604 12 1675 20 108 12 433 10 445-2 4-4-2-35-14-69-11-34-19-65-16-68 13-12 62 41 78 85 21 56 16 89-15 98-26 8-368 16-413 10z"/><path d="m8847 2143c-15-15-5-31 36-53 65-37 184-165 217-235 54-114 62-281 18-370-58-115-172-238-275-297-73-41-77-53-18-45 61 9 126 50 202 130 64 67 107 127 142 196 29 55 39 193 22 283-26 131-125 272-252 357-60 40-79 47-92 34z"/><path d="m5770 2119c-37-15-117-97-155-159-42-69-102-214-127-305-11-38-22-113-25-166-7-113 5-146 73-209 36-33 51-40 84-40 49 0 51 14 5 36-52 24-103 88-110 139-13 83 19 232 83 386 66 161 163 282 221 279 47-3 52-1 49 23-2 17-10 22-38 24-19 1-46-2-60-8z"/><path d="m6905 2028c-55-28-93-65-105-104-16-48 8-96 94-184 40-41 83-90 96-109l23-34-22-18c-16-13-40-19-76-19-29 0-60-3-69-6-11-4-16-1-16 10s-9 16-28 16c-37 0-65-21-60-46 3-17 13-19 83-22 163-7 235 19 235 83 0 36-61 124-126 180-100 86-108 144-27 195 79 51 142 35 98-24-21-28-19-56 4-56 32 0 61 47 61 97 0 38-3 45-26 53-40 16-96 11-139-12z"/><path d="m6378 1999c-18-7-28-18-28-31 0-18 4-19 55-13 51 7 56 6 85-24 36-35 32-53-21-93-56-42-99-86-99-102 0-29 154-59 204-40 9 3 16 12 16 19 0 14-44 25-101 25-52 0-55 13-8 39 43 25 89 84 89 116-2 75-112 135-192 104z"/><path d="m1506 1973c-3-10-1-36 4-58s10-110 10-195c1-174 12-223 49-228 29-5 98 70 195 212 119 176 172 230 199 207 10-8 17-7 25 1 20 20 14 48-13 60-21 9-30 7-62-14-59-39-94-80-192-222-50-73-101-142-114-154l-24-23-7 178c-8 214-14 247-43 251-14 2-23-3-27-15z"/><path d="m8235 1907c-54-31-85-79-85-133 0-38 6-50 40-84 21-21 56-48 77-59 50-25 154-103 148-110-3-2-63-7-133-10-104-5-127-9-127-21 0-13 24-15 145-18 163-3 185 0 200 28 13 25-3 40-145 135-60 40-121 85-134 99-23 24-23 29-12 66 15 49 58 80 114 80 41 0 49-20 22-56-22-29-19-54 8-54 30 0 57 46 57 99 0 35-4 43-26 51-43 17-106 11-149-13z"/><path d="m4557 1853c-42-44-77-134-84-211-6-68-7-71-72-148-80-96-154-165-242-227-69-49-85-55-91-35-6 18-38 1-38-20 0-30 26-45 61-38s133 73 221 149c43 37 163 171 183 205 1 1 15-4 31-13 38-20 53-19 118 5 35 13 68 36 93 63l39 42v-95c-1-89 0-95 19-95 22 0 25 20 41 230 6 83 4 102-8 113-24 19-42 6-61-47-33-95-126-181-194-181-45 0-46 24-3 97 65 113 86 193 58 221-19 19-42 14-71-15zm14-90c-8-15-10-15-11-2 0 17 10 32 18 25 2-3-1-13-7-23z"/><path d="m4000 1854c-51-17-102-66-94-89 4-10 19-15 44-15 42 0 58 13 41 34-8 10-2 15 28 24 53 16 78 15 89-5 26-46-68-168-172-223-46-24-66-41-66-54 0-18 7-18 138-11 183 10 227 16 227 35 0 12-18 15-110 14l-110-1 66 68c72 73 95 120 85 174-12 61-74 80-166 49z"/><path d="m2307 1756c-10-25 15-34 123-46 207-22 240-23 240-12 0 19-37 33-128 47-160 24-229 28-235 11z"/><path d="m6007 1734c-4-4-7-22-7-39 0-33-26-122-43-142-12-16-2-43 16-43 7 0 26 14 43 31 43 46 143 129 156 129 7 0 9-33 6-105-6-104-6-105 17-105 32 0 50 68 41 160-7 80-12 96-33 104-18 7-93-24-112-47-21-26-30-20-33 21-2 28-8 38-23 40-12 2-24 0-28-4z"/><path d="m5048 1691c-40-35-82-114-74-139 10-32 63-55 111-49 49 7 55 0 55-64 0-37-2-40-62-70-156-79-260-233-237-353 22-119 97-177 200-155 129 28 184 153 171 391l-7 126 55 26c30 15 69 38 85 52l30 25-40-6c-22-4-62-16-88-27-26-12-50-18-53-16-3 3-5 42-6 87s-5 84-10 87-6 19-3 35c17 75-63 106-127 50zm72-65c0-36-5-48-26-65-20-16-31-18-45-10-26 13-24 23 11 75 41 58 60 58 60 0zm40-417c0-180-35-269-119-297-39-13-47-13-77 1-18 9-41 31-51 49-23 44-23 142 0 186 44 81 219 220 239 188 4-6 8-63 8-127z"/><path d="m7555 1640c-15-24 12-30 121-30s154 9 154 30c0 13-267 13-275 0z"/><path d="m2318 1569c-6-4-8-14-5-23 6-14 29-16 169-16 157 0 205 8 183 29-12 11-330 20-347 10z"/><path d="m8710 1537c-63-30-120-73-120-89 0-23 37-24 68-2 30 20 34 16 22-25-12-42-16-124-6-139 12-20 35-14 40 11 3 12 8 44 11 70 4 27 15 70 26 95 32 75 16 107-41 79z"/><path d="m2005 1503c-16-9-47-30-69-46-21-17-62-43-90-57-34-18-52-34-54-48-5-31 21-28 87 8 30 17 56 30 57 30 2 0-13-32-33-70-33-63-35-72-22-86 18-18 49-9 49 15 0 20 51 101 113 181 28 35 46 67 43 75-7 19-43 18-81-2z"/><path d="m7130 1490c0-16 7-20 34-20 81 0 67-61-29-122-48-31-65-47-65-64 0-29 16-34 110-34 69 0 82 3 107 24 36 31 27 39-28 27-24-6-60-10-79-10h-35l25 17c91 62 121 125 84 176-16 22-27 25-71 26-46 0-53-2-53-20z"/></g><g fill="#44b" transform="matrix(.08161748 0 0 -.08161748 1293.32671951453 2440.33529185665)"><path d="m750 2973c-57-10-88-25-119-57-40-41-55-100-46-179 6-45 12-61 32-77 32-25 35-25 64-1 22 17 24 26 21 89-4 105 24 120 164 87 33-7 119-19 190-25 88-8 134-16 144-26 32-32 8-420-28-456-18-18-126-28-289-28-185 0-206-4-250-52-55-58-58-82-55-363 1-145 7-274 13-293 11-34 51-62 89-62 12 0 35 14 52 31l31 30-6 238c-3 130-3 249 0 264l5 27h112c234 1 363 26 423 82 58 54 98 260 91 463-4 122-7 138-34 191-40 81-79 100-217 108-174 10-361 14-387 9z"/><path d="m3660 2971c-42-9-83-34-103-65-39-59-50-127-54-343-5-206-5-212 18-252 28-50 78-86 143-102 48-12 257-8 370 7l49 7-7-104c-4-57-11-189-16-294-9-177-9-192 8-214 35-47 100-46 136 2 22 29 27 86 42 452 7 191 0 235-44 283-45 48-92 56-241 38-146-18-229-20-265-6l-26 10v162c0 156 8 230 27 249 5 5 99 6 210 2l201-6 5-50c3-39 11-56 31-74 34-29 48-29 80 0 24 20 26 30 28 113 4 147-23 169-218 179-242 11-340 13-374 6z"/><path d="m1565 2945c-14-13-25-32-25-42s-1-297-3-638c-2-677-3-662 55-694 33-19 73-7 101 31 18 24 20 51 29 300 5 150 10 278 12 283 2 6 37 8 97 3 52-3 135-7 186-7 154-2 161-10 143-176-21-189-27-310-18-343 12-45 45-72 86-72 71 0 102 46 102 151 0 33 7 118 16 187 24 190 9 280-58 349-50 52-112 67-263 65-71-1-164-6-205-11-41-4-78-7-81-5-4 2-10 108-13 236-9 286-17 352-47 384-31 33-82 32-114-1z"/><path d="m2542 2944c-55-38-64-109-53-419 6-186 9-215 28-250 50-95 116-125 302-135 75-4 171-5 215-1l78 7-4-178c-2-97-7-181-11-184-4-4-42 1-85 11-104 26-285 27-363 3-106-33-149-107-99-170 26-34 68-41 132-21 74 23 202 20 308-7 182-47 274 5 301 168 12 77 27 831 19 994-7 152-20 181-86 186-88 7-103-51-104-401v-219l-201 4c-197 3-201 3-220 27-18 21-19 42-19 283v260l-29 29c-33 33-74 38-109 13z"/><path d="m2374 1391c-55-34-79-78-79-147 0-51 4-66 27-96 35-45 102-73 153-64 78 15 146 111 131 188-20 108-145 172-232 119z"/><path d="m1853 999c-39-11-66-56-61-101 6-59 69-64 76-6 4 30 34 38 145 38h67v-110c0-135-1-136-132-126-85 6-89 6-113-18-24-25-25-28-25-179 0-162 4-177 47-177 35 0 43 29 43 159v121h73c85 0 141 14 168 41 17 17 19 34 19 169 0 147-1 152-25 175-23 24-30 25-137 24-62 0-128-5-145-10z"/><path d="m2985 1000c-91-16-93-18-104-58-15-51-14-537 0-564 19-36 69-48 204-48 121 0 127 1 151 25l24 24-2 292-3 292-26 19c-31 23-161 33-244 18zm169-86c14-5 16-37 16-250v-245l-102 3-103 3v240 240l40 6c57 9 131 10 149 3z"/><path d="m2351 971c-24-24-29-73-37-372-6-232-6-237 15-258 23-23 29-25 51-11 12 7 16 40 20 150l5 141 35-23c19-13 59-55 88-93 30-39 78-96 108-128 47-51 56-57 74-47 29 16 25 42-15 92-19 24-62 78-95 121-61 77-61 77-33 77 15 0 46 9 69 19 56 26 67 57 62 179-6 156-27 172-220 172-93 0-111-3-127-19zm257-74c16-13 17-168 0-185-7-7-41-12-84-12-40 0-84-4-98-10l-26-10v120 119l98-6c53-3 103-10 110-16z"/></g></svg>