<svg height="1413pt" preserveAspectRatio="xMidYMid meet" viewBox="0 0 1762.746332 1413" width="1762.746332pt" xmlns="http://www.w3.org/2000/svg"><g transform="matrix(.1 0 0 -.1 -12 1418)"><path d="m845 14128c-84-163-93-175-133-182-53-8-145-7-160 3-11 6-6 23 23 80 37 74 39 111 7 111-12 0-31-31-61-95l-43-94-67 2c-53 2-66-1-66-13 0-10 16-18 50-24 28-5 51-10 53-11 2-2-4-17-12-33-13-25-23-31-53-34-45-4-54-31-12-36l27-3-20-51c-23-61-21-93 7-93 14 0 23 11 32 36 6 20 19 53 27 74l16 38 96-6c53-3 98-8 101-10 2-3-3-20-12-37-12-24-14-35-6-43 16-16 42 2 61 41 14 29 19 32 62 32 52 0 98 14 98 30 0 5-17 10-37 10-21 0-48 3-60 6-22 6-22 6-2 45 19 38 21 39 75 39 57 0 124 21 124 39 0 7-28 11-70 11-38 0-70 3-70 6s23 46 50 97c51 92 56 117 21 117-13 0-28-17-46-52zm-140-245c-4-10-10-26-13-36-4-15-11-18-35-13-16 3-63 6-104 6h-74l16 30c16 30 16 30 116 30 92 0 101-2 94-17z"/><path d="m1510 14066c-53-14-143-73-137-89 7-22 34-18 84 13 28 18 69 34 92 37l41 6v-43c0-58-40-119-135-204-54-48-75-74-75-92 0-34 29-38 172-24 154 15 163 17 146 37-11 13-32 15-131 10l-118-5 60 54c65 59 111 121 129 173 12 35 6 107-11 129-12 15-58 15-117-2z"/><path d="m2368 14066c-21-8-49-21-63-30-55-36-82-119-52-159 13-18 94-37 155-37h36l-34-35c-42-44-158-105-199-105-17 0-40 6-51 12-16 10-23 10-36-3-14-15-14-18 1-33 12-11 34-16 82-16 55 0 75 5 132 35 37 20 92 59 122 88 35 34 68 55 94 62 47 12 63 45 22 45-24 0-24 1-11 38 28 80 9 126-61 142-54 13-93 12-137-4zm145-51c12-11 13-23 5-57-15-67-20-70-120-66-104 4-115 11-94 62 11 27 27 42 58 56 52 23 130 26 151 5z"/><path d="m1293 14043c-35-35-139-118-191-153-57-39-68-56-51-76 15-18 49-18 49-1 0 8 20 28 44 45 47 34 66 41 47 19-16-20-71-157-71-178 0-32 46-25 55 8 10 43 80 182 125 252 40 62 47 90 23 98-6 2-20-4-30-14z"/><path d="m1894 14053c-12-2-32-15-45-29-22-23-23-27-8-52 8-15 25-28 38-30 20-3 22 0 19 30-3 33-3 33 47 39 106 13 101-9-34-140-114-111-131-134-131-174 0-28 16-37 63-37 18 0 64-7 103-16 69-16 104-15 104 5 0 13-68 38-125 46-68 9-85 15-85 27 0 6 51 61 114 122 131 127 146 155 102 193-22 19-38 23-84 22-31-1-67-4-78-6z"/><path d="m6697 13633c-14-13-6-34 28-82 25-35 38-64 42-100 6-50 6-50-51-110-91-94-73-118 106-143 85-12 118-7 99 16-12 14-66 29-148 41-38 6-71 25-44 25 6 0 29 23 51 51 36 46 40 56 40 108 0 48-6 66-42 129-39 66-62 84-81 65z"/><path d="m10308 13574c-13-13-9-44 7-50 8-4 22-1 30 6 17 14 100 9 117-8 6-6-15-36-61-85-97-105-106-156-34-191 47-23 187-34 198-16 13 20-10 31-76 37-58 5-119 25-119 39 0 16 30 56 86 117 68 71 81 110 48 138-18 14-184 26-196 13z"/><path d="m13354 13550c-34-11-47-30-38-55 8-20 40-19 48 1 5 13 16 16 57 12 27-3 55-10 60-15 16-16-16-70-50-87-35-19-119-103-127-128-12-38 5-68 49-87 54-23 162-45 181-38 28 11 6 34-42 47-151 37-157 43-105 101 21 23 55 53 76 66 75 47 98 127 47 165-30 22-112 31-156 18z"/><path d="m1005 13510c-33-4-246-8-472-9-397-1-413-2-413-20 0-29 26-46 53-33 14 7 213 13 572 18 726 9 695 10 1045-6 188-9 577-14 1015-14 625-1 710 1 710 14s-86 16-690 21c-379 4-769 12-865 18-232 14-879 22-955 11z"/><path d="m4581 13490c-24-18-49-47-58-68-25-58-31-245-15-412 21-214 21-613 0-720-27-143-112-330-187-413-31-34-33-40-19-53 14-14 20-14 57 6 58 29 82 23 106-25 19-38 20-60 20-565 0-484 1-528 18-565 34-76 88-115 157-115 39 0 90 23 90 41 0 5-24 7-52 4-69-8-111 17-141 83-18 41-21 64-20 182 7 912 7 922-43 987-15 20-38 36-55 40-16 3-29 7-29 9s13 25 29 51c55 90 109 241 125 354 21 139 21 418 0 652-26 293-11 457 45 487 19 10 21 8 21-15 0-14-9-43-19-64-20-39-14-61 16-61 32 0 73 165 47 189-25 23-52 20-93-9z"/><path d="m3502 13408c-17-22-35-4176-18-4245 6-23 5-33-3-33-6 0-28-26-48-57-20-32-53-73-74-91s-44-45-51-59c-16-33-137-127-203-158-70-32-78-35-200-67-132-34-569-39-1590-18-945 20-1190 20-1190 0 0-18 119-23 1035-41 724-14 1437-16 1595-5 182 12 345 59 447 128 74 51 137 104 153 132 10 16 35 45 56 65 36 35 89 105 89 119 0 3 12 16 26 27 26 20 26 22 14 75-8 41-10 294-6 1015 16 2672 17 3197 5 3211-14 17-24 18-37 2z"/><path d="m5212 13410c-64-15-147-86-135-117 7-18 61-46 73-38 14 9 12 45-2 45-6 0-1 11 12 25 27 28 83 49 120 43 22-3 25-8 22-36-2-36-50-146-81-191-19-26-25-28-66-24-85 10-135-33-135-116 0-73 64-74 147-1l35 31 39-53c48-65 82-88 132-88s47 20-6 45c-26 12-58 42-85 77l-44 57 36 58c78 128 106 241 68 276-20 18-73 21-130 7zm-86-375c-42-37-56-43-56-22 0 29 31 57 63 57l32-1z"/><path d="m9585 13370c-173-35-310-219-242-324 52-79 268-87 378-13 29 19 53 67 34 67-3 0-36-14-72-32-138-66-303-44-303 41 0 73 90 175 181 204 77 25 125 23 145-8 11-17 25-25 45-25 37 0 38 20 3 55-44 44-82 52-169 35z"/><path d="m8903 13350c-14-6-23-18-23-31 0-18 4-20 38-15 120 17 179 18 195 1 10-9 17-21 17-26 0-17-62-68-111-93-98-48-119-66-119-97 0-47 38-64 140-62 96 2 163 21 169 48 3 16-2 17-50 11-126-16-159-18-184-12-34 9-25 21 44 55 31 16 80 48 109 70 45 36 52 46 52 77 0 24-8 43-25 59-23 23-31 25-127 24-57 0-113-4-125-9z"/><path d="m6435 13310c-12-5-48-63-95-154-41-80-78-146-81-146-7 0-33 91-54 194-19 92-20 96-45 96-18 0-34-25-25-40 3-5 10-32 15-62 19-101 63-253 79-265 36-30 48-16 137 157 68 132 92 169 104 164 8-3 21-8 28-11 8-3 12 4 12 21 0 31-44 58-75 46z"/><path d="m12458 13290c-108-68-166-218-109-284 52-61 221-80 333-37 50 19 78 45 64 59-3 3-34-3-68-13-90-27-212-26-258 1-22 12-36 29-38 44-9 58 46 153 109 192 43 26 59 23 59-11 0-42 9-61 30-61s30 19 30 66c0 75-70 95-152 44z"/><path d="m5618 13292c-27-11-85-69-120-119-51-75-74-185-48-234 13-23 53-44 103-53 56-10 235 38 279 74 18 16 30 32 25 36-4 4-35-2-70-14-79-27-182-52-212-52-37 0-75 21-81 45-7 30 13 113 39 155 34 55 98 120 118 120 16 0 19-8 19-49 0-57 19-81 44-56 10 10 16 33 16 61 0 71-51 110-112 86z"/><path d="m9874 13254c-70-119-91-215-55-248 35-32 80-30 153 7l67 35 3-42c3-38 6-42 41-53 46-15 98 2 117 37 16 30 7 34-29 16-33-18-67-21-75-7-11 18 25 108 64 159 22 29 38 57 35 63-14 22-48 4-119-65-95-93-201-149-221-116-9 15 14 89 51 163 39 77 42 97 14 97-12 0-29-16-46-46z"/><path d="m12914 13273c-36-38-94-161-94-197 0-40 9-52 43-65 48-18 101-13 161 17l56 29v-26c0-34 10-48 43-60 44-17 72-13 95 12 32 33 28 39-22 32-25-4-49-4-55-1-14 9 15 102 50 157 33 52 36 74 13 83-21 8-50-18-75-66-37-72-144-141-212-136-40 3-42 4-39 32 4 36 42 113 76 154 15 16 26 37 26 46 0 25-38 19-66-11z"/><path d="m16823 13178c-53-60-94-190-100-318-8-157 21-237 110-301 28-20 52-29 79-29 44 0 49 12 12 29-42 19-92 61-113 95-66 106-43 342 46 476 13 19 23 43 23 52 0 25-32 23-57-4z"/><path d="m17415 13190c-3-5 14-39 39-74 60-84 94-159 102-226 12-106-44-281-131-417-42-63-57-113-36-113 33 0 138 170 186 300 24 64 28 91 29 185 1 105-1 114-31 175-65 133-135 208-158 170z"/><path d="m14883 13136c-33-15-53-42-53-73 0-12-20-32-52-53-53-35-98-97-98-135 0-11 9-39 20-62 16-36 28-47 77-69 74-32 149-45 212-35l50 8 16-44c22-58 58-85 109-81 53 4 56 22 6 37-39 11-57 33-74 86-5 17 0 23 29 34 49 17 116 76 143 123 39 72 25 164-32 201-91 60-284 94-353 63zm260-71c55-22 72-34 84-60 22-46 10-97-34-146-31-34-112-88-116-77-45 92-83 127-126 112-16-6-27-18-29-33-3-21 0-23 22-19 20 4 32-1 51-24 35-41 32-55-15-63-49-8-109 1-166 26-105 47-98 138 16 203 37 21 45 30 46 57 3 50 26 61 119 56 57-3 100-12 148-32z"/><path d="m11337 13051c-13-16-33-53-43-81-23-63-37-70-144-70-68 0-82 3-99 21-23 25-51 19-51-9 0-42 30-52 147-52h111l7-55c5-40 12-59 28-70 39-28 77-14 42 15-10 8-15 31-15 66v54l43 1c57 0 111 20 115 42 3 17-3 17-73 11l-76-7 16 39c8 21 24 51 35 66 42 57 3 83-43 29z"/><path d="m14324 13005c-8-20-21-59-28-88l-13-52-69-7c-102-10-149-22-149-38 0-12 18-14 104-12 104 4 104 4 97-20-4-12-10-46-13-74-6-60 11-84 59-84h31l-21 23c-25 27-26 42-8 112l13 50 109 5c88 4 109 8 109 20s-19 16-102 18c-57 1-103 6-103 11 0 17 33 117 42 128 15 18 2 43-22 43-15 0-26-11-36-35z"/><path d="m17208 12934c-43-35-78-69-78-74 0-39 44-56 55-21 5 16 65 71 77 71 2 0 0-41-5-91-10-100-1-143 31-137 14 3 18 20 23 113 4 61 10 120 14 132 10 33-2 73-23 73-9-1-52-30-94-66z"/><path d="m824 12912c-73-88-224-293-269-366l-50-78-7 33c-4 19-12 88-18 154-15 170-31 239-54 243-34 7-38-12-21-99 9-46 21-131 26-189 20-208 22-215 47-218 32-5 46 9 118 121 76 116 233 325 274 364 17 15 30 38 30 50 0 37-40 29-76-15z"/><path d="m7365 12909c-16-25 20-29 236-27 191 3 224 5 224 18s-33 15-227 18c-157 2-229-1-233-9z"/><path d="m9260 12910c-36-4-122-8-192-9-123-1-128-2-128-22 0-22 0-22 323-13 358 10 342 10 767-1 299-8 305-7 330 13 20 16 22 23 13 33-10 10-20 10-50 0s-102-10-333-2c-323 12-628 12-730 1z"/><path d="m12420 12863c0-20 7-21 268-27 265-6 512-18 648-32 52-5 73-3 79 6 4 6 3 16-3 22-22 22-249 38-614 45-375 6-378 6-378-14z"/><path d="m5104 12829c-3-6-2-15 3-20s320-8 779-7c676 3 769 5 769 18s-94 15-772 18c-550 1-774-1-779-9z"/><path d="m2565 12765c-54-25-73-48-129-156-58-114-78-191-55-214 22-22 154-38 260-32 155 8 235 60 182 119-10 12-53 38-95 58-49 24-72 40-63 44 51 19 75 151 33 180-28 20-93 20-133 1zm105-59c0-43-13-65-52-91-57-38-50-61 27-89 33-12 80-35 105-51l45-28-41-18c-39-16-128-23-239-20-35 1-38 3-22 15 26 20 21 26-19 26-25 0-34 4-31 13 3 6 24 57 47 112 45 110 71 143 121 154 44 10 59 4 59-23z"/><path d="m7448 12739c-6-4-8-14-5-23 6-14 30-16 176-16 163 0 199 6 175 30-11 10-331 18-346 9z"/><path d="m1642 12729c-15-5-22-15-20-26 4-19 18-21 84-9 32 6 45 3 62-11 21-17 22-19 6-41-8-13-47-37-85-54-56-25-69-35-69-54 0-18 9-25 53-40 93-30 98-35 47-50-59-18-110-17-124 1-16 22-56 8-56-20 0-26 36-45 86-45 54 0 161 30 179 50 32 35-4 77-85 100-24 7-23 9 22 29 54 25 98 72 98 106 0 14-13 34-31 49-25 22-40 26-87 25-31 0-67-4-80-10z"/><path d="m1155 12710c-22-5-79-9-127-9-83-1-88-2-88-23s1-21 158-15c159 6 217 17 210 40-5 15-96 19-153 7z"/><path d="m9640 12700c0-17 7-20 48-20 27 0 56-6 66-13 27-20 10-45-77-112-107-84-126-138-57-162 51-17 308-16 340 2 36 20 20 23-162 30-123 6-158 10-158 21 0 7 31 38 69 68 115 92 135 133 86 181-21 22-33 25-90 25-58 0-65-2-65-20z"/><path d="m12777 12628c-27-7-37-15-35-27 3-13 15-15 78-12l74 3-16-23c-17-28-70-67-147-112-65-38-80-59-62-81 19-22 314-23 366-2 71 30 42 37-119 30-91-4-155-3-159 2-3 5 19 22 48 38 66 34 135 106 135 140 0 50-70 69-163 44z"/><path d="m1902 12589c-43-22-72-61-72-99 0-11 5-20 10-20 6 0 10-13 10-28 0-70 138-129 213-91 83 43 118 128 78 193-40 64-155 86-239 45zm141-33c49-21 68-47 61-85-15-74-121-108-180-57-26 22-27 25-15 55 10 23 11 34 2 45-13 15-1 29 40 45 34 14 55 13 92-3z"/><path d="m5554 12566c-36-16-49-40-29-56 11-9 19-8 37 4 14 10 44 16 81 16 63 0 97-12 97-35 0-19-66-73-145-120-72-42-84-57-65-80s435-18 435 5c0 13-28 16-175 20l-175 5 59 40c119 79 148 127 106 173-38 40-162 56-226 28z"/><path d="m1145 12559c-27-4-80-11-117-15-57-6-68-10-68-25 0-16 8-19 58-19 122 1 240 28 250 58 4 14-42 14-123 1z"/><path d="m2851 11663c-5-21-11-47-13-58-3-17-13-21-78-26-41-3-84-10-95-16-51-28-83-96-64-136 13-28 86-83 122-92 25-7 27-10 21-44-4-20-18-72-31-116-14-44-27-118-30-163-6-84-6-84 18-80 22 3 25 10 35 83 6 44 24 128 39 187l29 108 66-6c96-9 166 9 191 50 26 43 24 79-8 118-47 56-76 78-120 89-46 12-48 16-33 69 12 43 5 70-20 70-14 0-22-11-29-37zm-42-150c0-10-8-45-18-78-15-54-19-60-41-57-32 3-94 53-98 79-2 11 6 31 17 44 18 23 21 23 33 6 12-16 15-16 48 2 44 25 60 26 59 4zm179-47c45-49 50-62 28-92-12-16-29-20-100-23-94-3-93-4-77 59 6 19 15 54 20 76 11 42 11 42 49 33 24-5 51-23 80-53z"/><path d="m472 11663c-96-47-202-267-190-393 8-85 76-141 151-125 38 9 149 63 159 78 4 6 5 14 3 18-7 11-77-6-122-29-55-29-84-28-114 4-20 22-24 35-22 82 2 97 60 228 133 300 26 26 39 32 76 32 43 0 44-1 44-32 0-18-7-46-15-62-23-43-19-56 15-56 26 0 31 5 40 41 20 73 17 119-9 140-29 24-103 25-149 2z"/><path d="m17437 11626c-7-18 20-36 55-36s119-44 152-78c33-35 59-128 50-182-30-195-125-349-284-461-57-40-86-67-80-73 31-31 190 76 268 180 124 165 169 307 142 448-16 86-56 138-135 176-75 37-159 50-168 26z"/><path d="m16990 11581c-83-45-160-221-163-376-2-61 2-77 26-118 33-56 80-89 122-85 39 4 36 18-10 44-54 30-85 86-85 154s28 178 63 246c24 47 79 106 108 116 16 5 4 38-13 38-7-1-29-9-48-19z"/><path d="m8693 11513c-37-7-75-50-71-81 4-38 29-38 53 1 19 30 24 32 75 32 48 0 56-3 69-26 9-17 12-37 7-63-10-51-133-174-234-235-114-68-105-75 118-82 102-3 189-2 195 3 24 22-20 33-148 38-119 5-130 6-107 19 57 33 151 116 186 164 63 88 58 194-12 223-32 13-84 16-131 7z"/><path d="m6496 11448c-19-24-71-88-114-143-44-55-97-120-119-145l-40-44-13 24c-9 16-16 72-18 152-4 130-12 155-45 143-9-4-17-26-21-58-14-100-78-175-209-241-84-43-186-66-237-55-79 18-103 104-55 198 32 63 96 98 168 93 39-3 50-9 59-28 13-27 43-32 52-8 9 22-19 63-50 74-14 6-51 10-83 10-122 0-223-103-225-229-1-138 115-194 290-140 38 12 83 28 99 37 56 28 136 93 165 133l29 40 6-48c16-108 63-170 109-140 40 27 247 270 275 324 6 12 21 23 33 25 18 2 23 9 23 33 0 48-35 45-79-7z"/><path d="m1505 11471c-44-11-93-39-104-59-19-35 0-71 71-137 59-54 68-67 58-80-34-40-173-43-183-4-4 15-12 20-29 17-32-4-34-33-4-63 61-61 286-9 286 65 0 9-34 47-75 84-42 38-75 76-75 86 0 35 74 52 235 54 143 1 161 6 133 34-13 13-260 15-313 3z"/><path d="m5215 11469c-35-10-55-34-55-66s33-30 54 2c14 22 24 25 71 25 81 0 124-28 140-92 10-38-78-118-200-182-73-39-100-58-100-72 0-18 10-19 200-19 171 0 200 2 200 15 0 12-25 16-148 20l-149 5 58 28c71 35 133 85 169 137 22 32 26 47 22 75-17 104-138 161-262 124z"/><path d="m9263 11430c-29-16-64-45-79-63-41-53-73-136-74-193 0-47 3-55 39-87 52-47 99-61 183-54 83 7 147 36 205 94 56 56 54 71-4 37-27-15-67-38-91-52-29-16-65-26-107-30-78-6-105 0-144 34-38 32-40 62-8 140 38 97 126 168 194 157 28-4 31-8 23-23-15-29 4-70 33-70 23 0 24 4 25 60 1 71-9 80-90 80-40 0-65-7-105-30z"/><path d="m1065 11430c-22-5-77-9-123-9-74-1-83-3-80-18 3-16 17-18 128-18 152 1 203 9 198 33-4 20-60 25-123 12z"/><path d="m9709 11395c-42-33-63-59-82-103-31-68-33-89-13-137 12-27 23-36 58-45 51-14 113-9 157 13l31 15v-33c0-46 30-72 91-80 66-9 125 2 157 31l27 23-91-6c-118-8-137 1-128 60 4 23 24 72 45 108 40 67 49 104 27 112-25 9-49-15-83-83-30-61-42-73-85-95-53-27-127-34-148-13-17 17-15 74 4 114 9 19 41 57 72 84 37 33 53 54 49 64-10 25-28 19-88-29z"/><path d="m11005 11421c-75-45-149-160-174-268-16-67 1-104 59-127 59-23 125-20 232 13 129 40 164 56 225 102 53 40 53 40 53 14 0-58 102-65 230-16 66 25 64 25 56 5-9-23 20-72 54-89 39-20 164-37 220-29 48 7 106 32 96 41-3 3-61 7-128 8-128 2-173 13-183 46-12 36 8 70 61 110 63 46 87 79 82 111-8 57-98 12-154-77-25-39-38-47-109-74-89-34-159-48-168-34-15 23 18 91 69 145 30 31 54 64 54 72 0 20-43 31-69 17-22-12-74-83-85-116-8-25-113-108-175-139-65-33-220-77-274-78-29 0-57 6-73 17-24 16-26 21-20 64 9 65 51 146 106 203 41 43 52 49 81 46 26-2 35-8 37-25 5-34 30-50 49-30 19 19 11 59-17 87-26 26-94 26-135 1z"/><path d="m10482 11327c-12-14-42-121-42-149 0-16-10-18-80-18-73 0-80-2-80-20s7-20 75-20h75v-34c0-59 32-56 47 3 8 30 15 36 58 48 53 16 47 33-11 33-31 0-31 0-23 43 4 23 12 56 17 72 5 17 7 36 5 43-6 16-28 15-41-1z"/><path d="m935 11310c-16-4-42-5-57-2-20 3-30 0-34-12-13-35 9-39 150-27 155 13 172 17 155 37-12 15-157 18-214 4z"/><path d="m2345 11304c-18-19-47-81-58-124-5-20-25-35-86-64-44-22-86-36-95-33-21 8-21 56 1 116 32 91-13 115-52 28-21-48-69-97-82-83-3 3 0 19 6 37 23 66 7 128-30 114-8-3-22-27-32-53-9-26-37-69-62-97l-45-50 3 34c3 40-22 63-47 42-19-16-21-82-4-99 7-7 31-12 54-12 36 0 45 5 69 36 27 35 27 35 42 15 15-23 53-27 84-11 16 9 21 7 28-14 12-31 48-56 81-56 15 0 52 15 83 34l56 34 3-26c4-37 32-39 63-3 27 29 27 29 47 9 18-18 29-20 98-15 80 5 130 22 138 45 3 10-16 12-97 6-126-9-130 2-36 78 65 52 78 74 50 84-28 11-79-18-132-74-31-33-53-49-53-40 0 24 30 91 47 103 19 14 13 49-8 53-9 2-24-5-34-14z"/><path d="m7202 11308c-7-9-9-23-6-33 6-14 13-15 43-8 20 4 70 6 111 4 41-3 125-5 185-5 91-1 110 2 110 14 0 20-47 26-260 35-146 7-172 5-183-7z"/><path d="m17170 11311c-16-4-26-15-28-30-3-22-1-23 37-17 23 3 60 8 84 11l42 6-74-69c-67-63-73-70-62-91 17-32 51-41 150-41 72 0 91 3 104 18 27 29 20 34-32 27-27-4-75-3-106 0l-57 8 66 66c66 67 76 87 54 109-13 13-135 15-178 3z"/><path d="m7210 11162c-5-2-10-12-10-23 0-18 9-19 183-19 142 0 188 3 202 14 19 13 18 15-15 20-39 6-345 13-360 8z"/><path d="m167 10354c-15-16-6-44 16-49 12-2 375-7 807-9 816-5 1082-12 1508-42 260-18 421-14 652 17 41 5 127 15 190 22 90 9 115 15 115 27 0 22-174 20-335-3-176-25-401-32-592-18-90 6-233 16-318 23-85 6-571 14-1080 17-509 4-932 10-941 14-8 4-18 4-22 1z"/><path d="m7225 10325c-61-22-93-81-62-112 13-14 19-14 31-3 9 7 16 21 16 31 0 26 36 46 98 52 65 7 82 1 82-28 0-27-36-60-115-105-66-38-73-64-20-86 41-17 305-21 305-4 0 18-48 30-118 31-37 0-85 3-107 7l-40 7 46 27c26 15 61 44 78 64 27 30 31 41 26 68-11 50-37 66-114 66-36-1-84-7-106-15z"/><path d="m8379 10242c-70-45-182-174-342-393-53-74-67-44-67 144 0 116-3 147-15 157-8 7-22 10-30 6-12-4-15-30-15-151 0-161 10-201 55-231 37-24 70-10 115 47 19 25 64 84 99 130 95 123 195 230 241 259 41 26 54 60 22 60-10 0-38-13-63-28z"/><path d="m5506 10128c-49-78-61-104-90-201-51-167-46-218 22-237 65-17 139 16 246 110 32 28 60 49 62 47s-3-20-11-40c-18-43-20-103-3-113 24-15 100-5 195 27 141 46 145 48 138 59-11 18-92 11-162-14-37-13-83-27-101-31-32-7-33-6-26 22 9 35 79 194 106 239 21 36 18 64-6 64-9 0-33-24-54-52-74-100-294-278-344-278-29 0-48 28-42 63 16 86 60 210 100 280 25 44 43 85 40 93-11 28-37 13-70-38z"/><path d="m6211 10006c-11-13-11-19-1-31 19-23 345-18 345 5 0 12-24 16-130 21-71 4-146 10-166 14-26 5-39 3-48-9z"/><path d="m7288 9947c-37-8-48-15-48-29 0-18 5-19 93-11 50 4 140 8 200 7 107 0 123 6 95 34-15 15-270 14-340-1z"/><path d="m6213 9883c-28-11-13-42 25-52 59-17 257-14 272 4s-1 22-143 30c-59 4-110 11-113 16-6 10-21 11-41 2z"/><path d="m1955 9831c-65-17-154-91-170-142-4-11-4-31-1-44 8-31 54-85 72-85 26 0 26 29 0 60-21 26-24 35-15 58 24 62 103 112 178 112 42 0 56-5 85-30 46-40 53-84 25-144-21-45-41-61-200-156-79-47-117-148-85-225 24-57 40-40 46 48 4 67 8 79 35 107 17 18 53 43 80 56 78 38 146 95 172 144 44 83 16 187-61 227-34 18-119 25-161 14z"/><path d="m7328 9768c-17-6-28-17-28-29 0-21 12-23 80-9 39 7 48 6 68-13 12-11 22-25 22-30 0-6-21-30-46-54-55-53-53-73 7-73 33 0 47-6 70-31 16-17 29-37 29-45 0-21-74-54-120-54-48 0-60 18-36 55 21 32 20 35-7 35-29 0-67-34-67-61 0-11 14-34 31-51 28-29 34-30 88-25 148 13 203 92 124 175-21 22-45 41-53 44-12 4-10 10 8 33 31 40 28 76-10 114-27 27-39 31-82 30-28 0-63-5-78-11z"/><path d="m544 9614c-111-111-194-323-157-402 24-50 56-66 146-72l80-5 13-45c20-69 79-122 99-90 3 6-3 23-15 39-31 44-54 115-39 120 30 10 99 86 120 134 20 44 24 68 24 152 0 114-10 142-67 188-29 23-51 31-91 35-54 4-54 4-113-54zm173-23c38-30 48-65 46-161-1-70-19-124-59-177-33-43-48-42-63 7-10 35-16 40-41 40-41 0-60-10-60-31 0-13 7-19 24-19 18 0 27-8 34-29 9-25 8-30-9-34-37-10-129 9-145 29-23 30-11 108 31 199 50 106 73 139 90 125 9-8 15-3 25 20 7 16 21 32 31 35 10 4 19 13 19 21 0 21 34 9 77-25z"/><path d="m1047 9373c-4-3-7-12-7-20 0-10 28-13 131-13 124 0 177 10 164 31-7 10-278 13-288 2z"/><path d="m9425 9086c-48-14-54-34-21-65 30-28 61-22 53 10-5 19-1 20 61 17l67-3v-35c0-33-4-37-72-73-40-21-73-44-73-52s12-22 28-31c91-56 133-86 127-92-4-4-39-11-78-17-53-7-72-14-72-25s14-16 55-18c70-4 113 4 141 27 36 29 20 62-57 112l-66 43 45 23c63 32 87 65 80 111-8 59-42 82-116 81-34 0-80-6-102-13z"/><path d="m11037 9083c-12-3-17-12-15-26 3-20 8-22 49-19 51 4 122-25 133-53 4-12-15-38-64-86-73-73-89-104-71-137 22-41 201-77 261-52 16 7 30 16 30 20 0 5-30 11-67 15-92 9-164 27-170 43-3 7 26 45 66 86 75 78 84 102 55 145-34 48-141 81-207 64z"/><path d="m8040 9055c0-20 5-25 24-25 30 0 86-45 86-69 0-9-24-41-54-70-59-59-75-103-48-133 19-23 143-26 161-4 14 16-4 26-47 26-38 0-72 11-72 22 0 5 25 35 55 67 45 47 55 64 55 92 0 53-75 119-134 119-21 0-26-5-26-25z"/><path d="m1820 9000c0-17 7-20 40-20s40 3 40 20-7 20-40 20-40-3-40-20z"/><path d="m5250 8931c-105-32-182-125-138-169 21-21 38-14 38 16 0 56 89 112 178 112 70 0 108-16 133-57 19-30 21-45 16-112-6-92-34-165-82-211l-33-32-49 51c-53 55-76 63-93 32-10-21-8-24 35-46 11-6 30-26 43-45l23-34-23-13c-55-30-201-8-255 40-34 30-35 33-30 87 3 34 17 81 38 122 23 47 30 71 23 78-19 19-41 0-74-61-40-76-57-177-36-218 17-33 76-74 131-92 54-17 193-17 224 0 23 13 26 12 40-10 23-35 77-89 90-89 27 0 20 33-19 84l-42 55 47 57c60 74 73 101 91 186 28 135-9 230-102 262-49 17-131 20-174 7z"/><path d="m7570 8796c-50-105-198-218-346-263-75-22-282-26-307-4-39 32-3 131 62 174 61 40 119 67 146 67 22 0 25-4 25-36 0-20-8-49-17-65-13-22-14-32-6-40 30-30 68 21 78 102 6 45 4 59-10 72-59 60-273-41-330-156-65-133 17-197 230-181 157 11 296 70 418 175l57 50v-81c0-81 9-114 39-137s51-13 115 55c71 75 236 279 236 292 0 4-7 11-16 14-16 6-74-28-74-44 0-22-213-270-232-270-12 0-10 254 2 286 7 19 7 30-1 40-22 26-38 14-69-50z"/><path d="m10153 8834c-68-33-118-90-137-155-20-65-20-90-1-135 20-49 85-77 185-78 66-1 84 3 143 32 37 18 87 49 112 68l45 34v-28c0-15 7-38 16-51 15-21 23-23 70-19 63 5 188 64 243 114l37 33-4-59c-4-52-2-59 18-70 29-16 86-15 105 0 22 18 18 33-6 27-12-3-32-1-46 4-23 8-24 13-18 47 8 47 31 115 51 154 8 16 13 36 10 44-8 22-42 17-59-9-8-12-43-53-78-91-50-53-80-76-144-106-98-46-131-55-138-36-8 20 19 129 43 176 27 53 26 80-2 80-18-1-31-16-58-63-49-87-121-155-212-201-71-36-81-38-140-34-117 10-148 44-124 137 17 67 39 97 94 132 38 24 56 29 109 29 69 0 79-12 47-58-19-28-12-52 15-52s53 51 49 98-31 62-114 62c-45 0-73-7-111-26z"/><path d="m12104 8766c-15-39 6-42 243-42 196 1 228 3 228 16 0 12-25 16-135 22-74 3-179 9-233 13-84 6-98 4-103-9z"/><path d="m8540 8660c0-19 7-20 130-20 97 0 140-4 170-16 44-18 68-9 57 20-11 28-55 36-208 36-142 0-149-1-149-20z"/><path d="m9403 8638c-27-31-3-38 203-54 56-5 87-3 104 6 20 11 21 14 7 21-9 5-60 14-114 19s-118 12-143 16c-33 4-49 2-57-8z"/><path d="m12191 8642c-6-2-11-12-11-23 0-18 9-19 148-18 81 0 156 4 167 8 19 8 19 8 0 18s-281 23-304 15z"/><path d="m5840 8600c0-27 35-35 160-35 87 0 105 3 105 15s-25 18-115 27c-155 16-150 16-150-7z"/><path d="m5790 8500c-28-18 3-44 66-57 138-28 271-28 261 0-2 7-28 15-58 20-177 25-205 30-213 38-13 12-37 11-56-1z"/><path d="m9420 8440c0-17 7-20 53-20 74 0 129-17 125-38-4-18-110-76-171-93-45-12-58-36-31-56 28-21 329-14 329 7 0 12-20 16-112 18l-113 3 73 38c83 43 101 72 74 115-21 31-72 46-159 46-61 0-68-2-68-20z"/><path d="m7631 8074c-100-84-212-424-240-729-17-181-16-486 3-596 19-120 29-145 56-154 32-10 45 8 27 36-29 48-42 176-41 424 1 259 11 368 50 540 49 215 115 378 181 447 53 55 23 82-36 32z"/><path d="m12440 8065c0-9 11-32 25-53 33-51 65-184 75-316 26-356-107-738-369-1056-67-81-76-110-36-110 14 0 25 3 25 8 0 4 28 41 62 82 255 311 392 690 375 1040-9 179-42 318-94 388-25 33-63 44-63 17z"/><path d="m12047 7953c-18-17-5-33 28-33 46 0 75-29 75-76 0-31-10-46-64-102-100-106-110-139-48-171 66-33 242-55 257-32 8 14-5 19-107 40-111 23-128 29-128 45 0 7 32 47 70 90 69 75 70 77 70 132 0 48-4 59-29 85-24 23-38 29-74 29-24 0-47-3-50-7z"/><path d="m11764 7845c-4-8 1-31 10-50 98-206 89-406-30-654-37-78-58-108-120-169-73-72-87-102-47-102 10 0 52 35 94 78 88 89 151 206 195 357 34 119 39 174 25 278-22 165-102 329-127 262z"/><path d="m10603 7802c-59-58-131-165-173-256-49-105-117-319-131-410-15-93-6-212 19-268 21-49 78-93 106-82 13 5 9 14-24 51-44 51-54 91-53 213 1 113 73 360 145 504 36 72 109 177 156 223 34 34 37 63 7 63-8 0-32-17-52-38z"/><path d="m10863 7785c-43-18-61-52-38-74 15-15 18-14 36 8 10 12 36 27 56 32 64 15 73 12 73-20 0-33-31-64-130-131-65-44-77-74-37-89 85-34 292-42 292-11 0 11-25 17-113 27-109 11-143 20-114 30 22 8 131 102 147 126 16 25 6 94-17 108-20 13-120 10-155-6z"/><path d="m6940 7739c-78-48-137-109-173-176-75-144-101-325-54-393 40-59 71-75 145-75 70 1 132 24 180 68 49 46 19 47-83 3-75-32-131-33-167-3-52 43-60 106-29 229 34 134 103 236 201 302 33 22 98 20 138-4 28-17 32-25 32-64 0-51 20-76 45-56 21 17 19 79-5 117-25 42-70 64-139 70-45 3-63 0-91-18z"/><path d="m9505 7690c-13-21 8-30 71-30 35 0 64-4 64-8 0-12-30-37-67-56-51-26-43-49 25-69 100-30 104-44 24-78-32-14-58-18-80-14-24 4-34 2-38-10-12-30 19-48 68-41 51 8 146 54 161 78 17 26-7 67-51 85-20 8-39 17-41 19s10 19 28 39c33 38 39 63 19 83-15 15-174 16-183 2z"/><path d="m11249 7631c-32-33-37-58-13-68 10-4 24 4 39 23l22 28 12-54c7-30 16-116 21-190 10-144 30-234 56-244 33-13 59 17 139 159 52 92 183 271 209 285 14 7 26 19 26 26 0 35-72 14-109-32-56-70-146-206-189-281-25-46-49-83-53-83-9 0-18 61-24 175-7 122-23 221-42 258-18 37-56 36-94-2z"/><path d="m8165 7630c-10-16 4-30 30-30 42 0 37-18-20-75-70-71-73-98-12-125 69-32 237-25 237 10 0 4-44 12-99 15-54 4-105 11-112 16-10 6 0 22 39 63 56 59 65 91 34 119-20 19-87 23-97 7z"/><path d="m7696 7524c-10-27-7-213 6-283 13-72 22-91 47-91 19 0 286 281 286 301 0 8-8 15-19 17-18 4-123-96-217-206l-36-43-7 32c-3 17-6 82-6 144 0 126-4 145-30 145-10 0-21-7-24-16z"/><path d="m13588 7494c-4-3-83-9-175-13-140-5-168-9-168-21 0-13 32-15 234-13 128 1 236 5 239 8 4 3 1 14-4 23-8 12-27 18-65 20-30 2-58 0-61-4z"/><path d="m6155 7389c-22-4-66-8-97-8-51-1-58-3-58-21s7-20 63-20c77 0 286 18 299 26 5 3 4 12-3 20-13 16-134 18-204 3z"/><path d="m8865 7380c-151-4-180-7-180-20 0-23 351-28 380-5 17 13 18 16 5 25-8 5-17 9-20 8s-86-5-185-8z"/><path d="m10780 7360c0-18 9-19 178-22 97-2 182 1 187 5 6 5 3 14-9 23-15 11-58 14-188 14-160 0-168-1-168-20z"/><path d="m13331 7361c-24-15-5-38 46-56 65-23 251-32 294-15 31 13 31 14 9 22-13 5-76 12-141 16-82 6-125 13-143 25-28 19-44 21-65 8z"/><path d="m10047 7353c-4-3-7-17-7-30 0-20 5-23 34-23 41 0 51 12 34 40-12 19-48 27-61 13z"/><path d="m6111 7303c-38-33-14-44 70-33 41 5 102 10 137 10s73 5 85 12c22 12 22 12-3 19-14 4-80 7-146 8-102 1-125-2-143-16z"/><path d="m9400 7301c0-20 5-21 148-21 82 0 174-5 206-11 68-12 92-1 63 29-15 15-44 17-217 20-197 3-200 3-200-17z"/><path d="m10840 7200c0-18 7-20 60-20 33 0 60-4 60-10s-22-26-50-46c-65-47-66-68-2-96 49-21 82-45 82-59 0-24-153-56-181-38-12 7-16 47-8 79 7 26-34 17-50-11-17-31-9-71 21-101 18-18 29-20 97-15 49 3 94 13 124 27 42 20 47 26 47 54-1 39-16 59-69 89l-43 25 30 18c43 25 68 74 53 102-11 20-20 22-91 22-73 0-80-2-80-20z"/><path d="m9528 7114c-29-15-36-38-17-50 6-3 29 2 50 12 39 17 40 17 61-4 14-14 22-34 22-57 0-50-54-102-165-156-86-43-113-69-91-91 7-7 57-6 154 2 141 12 188 23 196 47 3 10-23 11-110 7l-113-5 45 25c54 29 127 104 136 140 25 102-77 180-168 130z"/><path d="m8344 6167c-55-32-117-95-163-165-48-74-142-283-156-349-3-18-10-35-14-38-10-6-145 21-183 36-16 6-28 15-28 19s28 24 62 45c84 52 138 103 138 129 0 38-35 80-91 109-58 29-88 34-106 16-17-17-4-39 24-39 32 0 100-40 112-66 12-27-3-42-106-108-77-49-98-75-88-105 9-28 91-59 178-67 42-4 77-7 77-8 0 0-7-37-16-81-8-44-15-114-16-155-1-135 61-217 183-241 39-8 62-8 82 0 32 12 28 31-7 31-45 0-122 30-148 57-60 65-69 119-44 273 26 157 113 394 189 512 40 62 130 154 160 164 21 7 19 38-3 41-8 1-24-3-36-10z"/><path d="m10300 6021c0-10 24-43 53-73 74-78 106-145 114-244 6-80 5-81-39-175-51-106-133-221-232-323-36-39-65-75-63-80 10-30 42-13 109 56 99 101 183 217 232 318 40 83 41 87 41 190-1 96-3 110-30 163-16 32-55 87-88 123-59 64-97 82-97 45z"/><path d="m9749 5986c-91-32-130-75-114-125 10-33 44-27 52 10 4 20 17 38 37 50 32 20 93 35 102 26 6-6-75-117-86-117-3 0-16-18-29-40-45-81-5-105 179-105 104 0 125 2 125 15 0 12-22 17-110 22-126 9-155 14-155 28 0 6 17 29 38 53 85 95 106 134 92 172-8 21-16 25-52 25-24-1-59-7-79-14z"/><path d="m6917 5745c-140-52-237-164-267-309-10-50-10-64 5-103 24-63 77-86 195-85 107 0 187 23 225 62 16 16 26 33 22 36-3 4-28-3-55-14-114-49-273-52-320-5-22 22-24 30-19 83 5 64 39 135 93 198 37 44 151 105 185 100 21-3 24-9 27-55 3-58 22-84 47-63 18 15 20 88 3 124-7 17-24 30-47 36-44 12-47 12-94-5z"/><path d="m7597 5728c-34-46-83-132-161-280-37-71-71-128-76-128-11 0-27 77-40 191-9 81-17 126-35 207-6 27-41 30-49 4-3-9-1-33 4-52s17-89 25-155c27-210 45-265 88-265 34 0 56 30 132 175 83 159 153 276 173 291s8 44-17 44c-11 0-31-15-44-32z"/><path d="m8652 5678c-33-24-79-56-102-73-73-52-124-101-116-113 11-19 36-14 70 13 52 43 126 95 126 90 0-3-14-34-31-68-23-45-32-77-33-117-1-71 14-74 79-16 47 42 54 64 11 31-48-36-48-2 1 101 20 44 52 98 71 122 63 79 18 97-76 30z"/><path d="m5900 5622c0-12 9-26 19-32 25-13 371-13 391 0 30 20-11 27-183 33-95 4-184 9-199 13-24 5-28 3-28-14z"/><path d="m10920 5562c0-24 20-30 160-42 58-5 124-12 147-16 35-5 44-4 49 11 4 10 1 20-6 25-13 8-137 24-272 36-74 6-78 5-78-14z"/><path d="m6103 5543c-95-3-103-5-103-23 0-19 7-20 118-19 117 1 207 15 207 34 0 11-63 13-222 8z"/><path d="m8875 5529c-16-24 18-29 181-27 142 3 169 5 169 18s-27 15-172 18c-118 2-174-1-178-9z"/><path d="m9780 5510c-19-5-42-7-51-4-25 7-49-6-49-27 0-23 13-24 198-7 112 10 132 14 130 27-3 13-21 16-98 18-52 1-111-3-130-7z"/><path d="m10970 5442c-5-2-10-12-10-23 0-18 9-19 143-19 101 1 149 5 167 14 24 14 24 14-20 20-54 7-265 13-280 8z"/><path d="m9778 5327c-26-7-38-16-38-29 0-20 16-22 93-9 56 9 65-9 17-37-19-11-30-25-30-39 0-23 5-25 81-38 19-3 44-12 55-20 17-12 17-15 4-28-19-19-98-29-103-14-6 20-59-10-55-31 2-13 15-18 58-20 74-4 116 5 140 30 44 47 11 109-66 124l-34 6 20 25c56 72-20 114-142 80z"/><path d="m7878 4633c-22-6-31-32-17-49s36-18 41-2c5 13 44 5 72-15 30-22 13-60-52-113-66-53-81-76-82-122 0-44 18-50 176-53 107-2 128 0 126 12-6 22-23 29-78 29-82 0-174 12-174 22 0 6 34 43 75 82 63 61 75 77 75 105 0 47-16 70-63 92-41 18-65 21-99 12z"/><path d="m7004 4436c-81-37-136-130-136-229 1-66 19-103 68-136 30-21 47-24 117-24 93 1 168 23 247 74 51 33 67 56 51 72-7 7-34-4-78-31-128-77-266-94-320-39-47 47-38 150 21 229 26 37 116 71 162 62 35-6 35-6 28-51-6-43-6-45 17-41 18 2 27 13 37 42 7 21 10 47 7 56-14 45-137 54-221 16z"/><path d="m7437 4393c-13-12-7-119 9-174 32-115 76-157 131-128 42 22 188 231 179 256-14 36-48 7-118-102-25-38-56-80-70-93l-25-23-15 23c-21 33-38 108-38 170 0 52-12 78-35 78-7 0-15-3-18-7z"/><path d="m7170 4009c-41-5-103-13-136-19-34-5-73-10-88-10-19 0-26-5-26-20 0-24 25-25 185-8 63 7 253 12 445 13 291 0 335 2 335 15s-30 16-180 21c-99 4-243 9-320 12s-174 1-215-4z"/><path d="m8744 3989c-3-6-2-14 2-19 5-4 92-10 194-12 185-3 220 3 169 29-31 16-355 18-365 2z"/><path d="m5964 3969c-14-23 16-27 194-31 163-3 182-1 182 13 0 9-7 20-16 23-29 11-352 7-360-5z"/><path d="m6084 3861c-2-2-4-13-4-23 0-17 12-18 163-18 125 0 168 3 183 14 10 8 17 17 14 19-6 6-350 14-356 8z"/><path d="m8813 3863c-19-7-16-41 5-52 53-28 304-53 317-31 9 15-26 25-150 44-60 9-117 23-125 31-17 15-26 17-47 8z"/><path d="m7202 3789c-15-5-22-15-20-26 4-20 3-20 121-9 102 10 124 1 81-33-14-11-44-26-66-32-29-7-38-15-36-27 3-14 19-18 88-23 47-3 103-14 125-24l39-17-25-13c-29-16-139-22-186-10-29 7-33 5-33-14 0-32 42-44 136-39 57 3 91 10 115 24 36 21 49 55 28 80-16 20-96 54-127 54h-26l22 20c27 25 28 61 4 83-15 14-39 17-118 16-54 0-109-4-122-10z"/><path d="m8764 3021c-43-26-77-74-103-144-25-69-27-114-5-146 34-48 136-68 167-33 28 31 22 86-15 122-27 28-37 31-69 27l-37-5 15 36c22 54 61 99 94 111 19 7 29 17 29 30 0 27-34 28-76 2zm8-238c10-9 18-24 18-35 0-26-54-24-82 4-20 20-20 22-3 35 25 17 45 17 67-4z"/><path d="m10410 2965c-10-12-10-18 0-30 15-18 34-19 59-3 23 14 75-4 69-25-3-6-30-29-61-50-35-23-57-45-57-56 0-19 29-51 47-51 6 0 36-11 67-25s74-28 97-31c36-6 41-5 38 11-4 16-126 77-177 87-12 3-3 13 28 32 87 57 103 100 46 135-41 26-137 29-156 6z"/><path d="m8310 2841c-84-5-105-9-105-21 0-21 211-27 239-7 21 16 14 38-12 35-9-1-64-4-122-7z"/><path d="m6977 2767c-3-7-3-24 0-38 4-22-16-77-52-139-22-39-1-54 56-41 52 12 139 14 156 3 19-12 3-27-67-62-45-23-85-35-131-39l-66-7 5 43c2 24 1 43-4 43-26-1-54-44-54-83 0-42 22-50 114-45 71 5 96 11 158 43 81 40 108 66 108 101 0 38-35 54-123 54-77 0-78 1-72 23 4 12 16 37 26 55s19 40 19 49c0 13 25 15 203 13 111-1 207-2 212-1 6 1-1 11-14 21-22 19-39 20-246 20-175 0-224-3-228-13z"/><path d="m7744 2658c-21-35-47-79-57-98-11-19-25-42-33-51-20-22-17-46 5-59 26-13 51-3 51 21 0 23 32 88 72 146 15 23 31 56 34 73 6 25 3 30-13 30-14 0-33-20-59-62z"/><path d="m7961 2667c-43-22-37-37 14-37 55 0 103-25 111-57 9-34-14-89-48-118-27-23-38-26-97-23l-66 3 2 42c1 22 12 64 24 93 17 39 19 54 10 63-19 19-43-4-68-64-29-72-30-139-2-165 33-29 171-27 221 4 45 28 78 92 78 151 0 35-6 48-31 72-27 25-83 49-114 49-5 0-21-6-34-13z"/><path d="m9740 2641c0-17 8-20 58-23l57-3-37-22c-30-18-38-28-38-52 0-31 30-61 60-61 9 0 25-7 36-16 18-14 16-15-25-10-56 6-71 0-71-30 0-22 4-24 55-24 75 0 125 21 125 53 0 19-11 29-53 50-29 15-58 27-65 27-6 0-12 5-12 10 0 6 4 10 10 10 22 0 81 63 78 84-3 19-10 21-90 24-82 3-88 1-88-17z"/><path d="m10174 2646c-62-13-90-36-116-93-36-81 3-156 88-169 54-8 90 1 130 31 40 31 64 82 64 138 0 38-5 49-31 71-17 14-37 26-44 26s-19 2-27 4c-7 2-36-2-64-8zm94-52c37-25 26-87-23-136-52-53-145-31-145 34 0 39 26 88 48 88 9 1 28 7 42 15 33 19 51 18 78-1z"/><path d="m9303 2563c-4-10-13-24-20-31-28-29-1-55 53-50 34 3 39 6 45 36 6 29 3 34-22 47-37 19-48 19-56-2z"/><path d="m7448 2535c-14-32 4-55 44-55 32 0 43 18 34 55-9 36-62 36-78 0z"/><path d="m11120 2345c-10-12-10-18 0-30 19-23 315-18 315 5 0 12-24 16-135 21-74 3-142 8-151 12-10 5-21 2-29-8z"/><path d="m6100 2320c0-19 7-20 160-20s160 1 160 20-7 20-160 20-160-1-160-20z"/><path d="m9248 2315c-16-17-409-28-1223-35-857-7-997-12-1073-41-13-5-22-15-19-22 5-14 123-11 197 5 26 5 463 13 1015 18 824 7 988 10 1090 25 96 13 167 16 355 11 129-2 280-10 335-15 277-30 336-34 405-34 107 0 160 11 160 34 0 15-8 19-39 19-22 0-51-4-65-10-24-9-145 1-371 31-92 13-757 25-767 14z"/><path d="m6153 2263c-7-2-13-13-13-24 0-18 9-19 150-19 143 0 150 1 150 20s-7 20-124 20c-68 0-130 2-138 4-7 3-19 2-25-1z"/><path d="m11150 2222c-6-2-10-12-10-23 0-18 9-19 148-19 113 0 153 3 168 14 16 12 16 15 4 20-17 6-295 13-310 8z"/><path d="m8440 1984c-11-12-11-18 1-29 12-12 20-13 45-3 37 14 64 5 64-20 0-22-36-57-68-67-14-4-22-13-20-23 2-13 18-18 65-23 62-6 126-37 138-67 12-31-146-60-179-33-19 16-46 8-46-13 0-44 114-61 207-30 54 18 73 37 73 72 0 30-60 87-107 103-28 9-31 13-23 29 15 28 12 87-6 104-21 22-127 22-144 0z"/><path d="m9210 913c-24-9-50-35-50-50 0-21 29-27 48-10 10 9 37 19 60 23 39 6 42 5 42-15 0-28-22-71-49-95-27-25-26-34 4-48 43-19 59-99 27-138-32-40-161-50-158-12 1 22-34 22-47 0-9-13-7-22 7-37 24-26 66-35 134-26 47 6 63 13 94 45 46 45 50 84 15 152l-23 45 23 43c27 51 29 77 7 108-12 18-24 22-67 21-29 0-59-3-67-6z"/><path d="m8745 790c-15-24 12-30 141-30 127 0 134 1 134 20s-7 20-134 20c-79 0-137-4-141-10z"/><path d="m6943 657c-15-12-75-54-133-93s-105-77-105-85c0-29 35-18 114 36 44 30 81 53 81 50 0-2-29-63-65-134-67-134-79-175-48-169 10 2 36 40 63 93 25 50 69 135 98 191 29 55 52 105 52 111 0 21-29 21-57 0z"/><path d="m7345 591c-68-17-105-54-105-106 0-45 33-90 96-132l56-37-28-24c-37-30-99-62-120-62-14 0-15 8-9 59 5 41 3 61-5 66-23 14-42-22-47-89-6-65-5-66 23-76 15-6 40-8 54-5 45 11 161 86 173 112 12 28 20 19-97 116-70 58-62 113 21 136 28 8 53 6 114-10 94-24 172-23 177 4 3 14-4 17-40 17-24 0-79 9-123 20-86 21-94 22-140 11z"/><path d="m8217 523c-36-43-80-90-97-106-27-22-30-30-20-42 17-20 30-19 57 7 28 26 29 18 3-64-27-87-26-108 5-108 14 0 25 6 25 14 0 24 71 229 101 294 17 34 27 67 24 72-14 22-36 6-98-67z"/><path d="m10100 554c-99-17-131-27-144-46-11-15-12-26-6-39 11-20 93-53 158-64 33-5 42-11 42-27 0-24-16-56-43-85l-20-22-45 35c-60 46-112 59-171 44-56-14-91-45-91-79 0-37 35-90 68-102 37-15 132-4 191 21 48 21 48 21 91-1 64-34 168-37 244-9 68 26 141 93 151 139 3 16 12 32 20 34 10 4 8 16-10 54-50 103-126 140-302 147-59 3-119 3-133 0zm280-68c48-18 100-61 100-83 0-17-25-16-108 1-37 8-96 20-132 26-120 21-205 40-219 49-50 32 275 37 359 7zm-50-121c139-24 140-24 140-39 0-23-68-83-114-101-57-22-178-18-202 7-15 14-13 19 14 57 17 23 34 55 37 71s12 27 18 25c7-2 55-11 107-20zm-367-66c12-7 35-23 50-35l28-24-28-11c-15-7-56-14-90-17-60-4-62-4-78 27-9 17-13 36-9 42 16 27 90 37 127 18z"/><path d="m6058 529c-10-5-18-19-18-31 0-18 4-20 33-13 17 4 104 10 192 14 133 5 160 9 160 21 0 13-27 15-175 17-107 2-182-1-192-8z"/><path d="m10903 508c-6-7-13-53-16-103-6-105-12-124-35-119-9 1-38 6-64 9l-48 6 19 38c39 75 39 161 2 161-22 0-31-19-31-66 0-37-41-128-63-141-25-15-39-51-27-73 15-28 31-25 61 11 24 30 28 31 59 21 18-7 48-12 66-12 19 0 34-2 34-5 0-2-11-34-25-71-25-67-32-114-17-114 20 0 51 50 73 116l24 72 45 5c25 3 46 4 48 2s-4-17-13-35c-19-38-16-74 7-78 17-3 46 50 62 113 4 16 27 51 52 77 32 34 44 55 44 77 0 63-47 51-90-23-25-44-39-57-81-75-28-13-53-20-55-18-3 3 0 33 6 68 13 85 13 142-2 157s-23 15-35 0z"/><path d="m8425 451c-44-16-52-23-67-62-21-55-22-82-3-118 26-52 140-69 203-31 55 34 93 118 77 170-18 56-114 75-210 41zm123-32c41-14 46-33 23-84s-52-69-106-66c-49 3-65 15-65 52 0 52 16 76 62 92 54 19 49 19 86 6z"/><path d="m7817 382c-25-27-21-55 10-69 39-18 47-16 66 16 21 35 21 36 1 55-21 21-57 20-77-2z"/><path d="m6067 364c-15-15-6-42 16-48 12-4 83-10 158-13 102-4 138-3 144 7 14 23-11 30-140 39-72 5-139 12-150 16-11 3-24 3-28-1z"/><path d="m6976 255c-41-69-86-168-86-187 0-11 8-18 19-18 13 0 26 18 46 63 15 34 41 83 57 110 30 47 32 77 4 77-8 0-26-20-40-45z"/></g><g fill="#44b" transform="matrix(.08161748 0 0 -.08161748 1415.64752951453 1439.11759285665)"><path d="m750 2973c-57-10-88-25-119-57-40-41-55-100-46-179 6-45 12-61 32-77 32-25 35-25 64-1 22 17 24 26 21 89-4 105 24 120 164 87 33-7 119-19 190-25 88-8 134-16 144-26 32-32 8-420-28-456-18-18-126-28-289-28-185 0-206-4-250-52-55-58-58-82-55-363 1-145 7-274 13-293 11-34 51-62 89-62 12 0 35 14 52 31l31 30-6 238c-3 130-3 249 0 264l5 27h112c234 1 363 26 423 82 58 54 98 260 91 463-4 122-7 138-34 191-40 81-79 100-217 108-174 10-361 14-387 9z"/><path d="m3660 2971c-42-9-83-34-103-65-39-59-50-127-54-343-5-206-5-212 18-252 28-50 78-86 143-102 48-12 257-8 370 7l49 7-7-104c-4-57-11-189-16-294-9-177-9-192 8-214 35-47 100-46 136 2 22 29 27 86 42 452 7 191 0 235-44 283-45 48-92 56-241 38-146-18-229-20-265-6l-26 10v162c0 156 8 230 27 249 5 5 99 6 210 2l201-6 5-50c3-39 11-56 31-74 34-29 48-29 80 0 24 20 26 30 28 113 4 147-23 169-218 179-242 11-340 13-374 6z"/><path d="m1565 2945c-14-13-25-32-25-42s-1-297-3-638c-2-677-3-662 55-694 33-19 73-7 101 31 18 24 20 51 29 300 5 150 10 278 12 283 2 6 37 8 97 3 52-3 135-7 186-7 154-2 161-10 143-176-21-189-27-310-18-343 12-45 45-72 86-72 71 0 102 46 102 151 0 33 7 118 16 187 24 190 9 280-58 349-50 52-112 67-263 65-71-1-164-6-205-11-41-4-78-7-81-5-4 2-10 108-13 236-9 286-17 352-47 384-31 33-82 32-114-1z"/><path d="m2542 2944c-55-38-64-109-53-419 6-186 9-215 28-250 50-95 116-125 302-135 75-4 171-5 215-1l78 7-4-178c-2-97-7-181-11-184-4-4-42 1-85 11-104 26-285 27-363 3-106-33-149-107-99-170 26-34 68-41 132-21 74 23 202 20 308-7 182-47 274 5 301 168 12 77 27 831 19 994-7 152-20 181-86 186-88 7-103-51-104-401v-219l-201 4c-197 3-201 3-220 27-18 21-19 42-19 283v260l-29 29c-33 33-74 38-109 13z"/><path d="m2374 1391c-55-34-79-78-79-147 0-51 4-66 27-96 35-45 102-73 153-64 78 15 146 111 131 188-20 108-145 172-232 119z"/><path d="m1853 999c-39-11-66-56-61-101 6-59 69-64 76-6 4 30 34 38 145 38h67v-110c0-135-1-136-132-126-85 6-89 6-113-18-24-25-25-28-25-179 0-162 4-177 47-177 35 0 43 29 43 159v121h73c85 0 141 14 168 41 17 17 19 34 19 169 0 147-1 152-25 175-23 24-30 25-137 24-62 0-128-5-145-10z"/><path d="m2985 1000c-91-16-93-18-104-58-15-51-14-537 0-564 19-36 69-48 204-48 121 0 127 1 151 25l24 24-2 292-3 292-26 19c-31 23-161 33-244 18zm169-86c14-5 16-37 16-250v-245l-102 3-103 3v240 240l40 6c57 9 131 10 149 3z"/><path d="m2351 971c-24-24-29-73-37-372-6-232-6-237 15-258 23-23 29-25 51-11 12 7 16 40 20 150l5 141 35-23c19-13 59-55 88-93 30-39 78-96 108-128 47-51 56-57 74-47 29 16 25 42-15 92-19 24-62 78-95 121-61 77-61 77-33 77 15 0 46 9 69 19 56 26 67 57 62 179-6 156-27 172-220 172-93 0-111-3-127-19zm257-74c16-13 17-168 0-185-7-7-41-12-84-12-40 0-84-4-98-10l-26-10v120 119l98-6c53-3 103-10 110-16z"/></g></svg>