<svg height="2285.911097pt" preserveAspectRatio="xMidYMid meet" viewBox="0 0 1639.688947 2285.911097" width="1639.688947pt" xmlns="http://www.w3.org/2000/svg"><g transform="matrix(.1 0 0 -.1 -4.424648 2331.892384)"><path d="m7592 23294c-79-39-96-83-108-289-6-111 5-178 29-183 35-7 47 17 47 88 0 72 6 79 65 80 11 0 37 5 58 11 33 9 37 12 25 26-10 12-26 14-79 10l-66-6 10 45c8 34 7 50-3 69-30 56 27 117 120 129 41 5 51 10 48 24-6 29-83 27-146-4z"/><path d="m7215 23087c-20-10-37-36-116-178-27-49-34-70-26-78 20-20 36-11 72 41l35 53v-675l-1-675-91-60c-49-33-94-61-99-63-17-7-10 80 8 93 11 8 13 17 7 26-5 8-7 134-5 284 2 149-3 392-10 540-7 149-9 283-6 297 6 21 14 27 40 30 39 4 44 31 7 36-14 2-29 8-34 13-13 12-46 12-46-1 0-5-20-10-45-10-33 0-47-5-52-16-7-20 13-34 49-34h27v-97c0-54 3-289 6-523 4-234 4-444 0-468l-6-43-152 6c-84 3-413 7-733 11l-581 5-12 307c-7 169-13 332-14 362-2 51-4 55-27 55h-25l2-145c9-491 6-781-11-1080-17-321-17-586 0-1123 5-183 0-272-36-582-17-152-20-221-16-450 2-148 9-306 15-350 41-288 52-489 56-974 3-351 4-375 22-385 10-6 66-13 124-16l107-5-44-100c-49-111-89-167-125-175-13-3-24-12-24-20 0-17 35-25 70-16 32 8 95 108 141 221l39 97 110-5c61-3 175-12 255-19 214-19 1968-18 2210 1 97 8 358 16 586 18 411 4 411 4 417-17 4-16 12-21 29-18 23 3 23 3 21 178-8 661-22 1192-34 1305-15 142-17 1327-4 2849 5 648 9 774 21 798 17 33 11 48-17 48-14 0-25-12-37-37-14-34-17-136-26-928-14-1332-13-2509 3-2685 8-80 17-368 22-640s11-566 14-652l6-158-443-4c-244-2-531-9-638-17-269-18-1908-19-2030-2-47 7-167 16-268 19l-183 7 6 26c4 14 20 82 36 151 49 214 64 256 85 251 63-12 132-2 196 28 88 42 128 87 128 145 0 30-6 48-20 61-20 18-23 18-98 1-113-27-183-67-228-131-49-73-59-103-141-455l-18-75-50-3c-27-2-73-1-102 3l-52 6-5 352c-6 476-22 735-57 967-17 106-17 705-2 835 34 272 38 338 33 530-8 358-4 1104 8 1355 6 135 11 246 11 248 1 4 1090-7 1297-13l182-6 2-182c3-357 1-1036-5-1286-6-228-4-259 11-293 16-36 19-38 63-38 25 1 64 7 86 15s44 15 49 15 6-75 2-182c-18-476-24-620-29-625-3-2-22 14-42 36-43 47-72 53-81 16-9-35 36-107 92-145 54-38 78-36 82 5 5 40 41 86 87 110 40 21 46 34 23 49-12 7-38-1-102-32-5-3-5 1-1 9 5 7 12 121 17 254 4 132 11 304 14 382l6 142 45 7c26 4 69 1 100-6 30-6 58-9 61-5 4 4 10 214 14 468 3 255 11 496 17 537 7 41 14 223 17 404l6 329 91-9c162-15 1554 0 1571 17 6 5 32 9 58 9 41 0 48 3 48 20 0 18-7 20-63 20-35 0-67-4-73-9-5-6-195-12-449-15-242-4-507-9-590-12s-250 0-371 7l-222 12 5 46c2 25 6 285 9 578 6 531 6 531-16 543-12 6-25 9-28 5-4-4-10-255-13-558-3-304-7-553-7-553-1-1-11-4-22-7-26-7-26-27 0-34 19-5 21-12 18-66-3-57-5-61-33-70-16-6-49-23-74-39-25-15-49-28-53-28s-8 40-8 89v89l35 12c19 6 38 16 41 22 9 14-15 28-48 28h-28v701c0 683 0 701 18 678s67-103 87-144c12-23 42-32 57-17 11 11-63 151-103 197-9 11-20 30-24 43-7 23-26 26-60 9zm-45-1765c-22-8-131-93-137-108-3-8-1-20 5-26 8-8 26 1 66 30 30 23 60 42 65 42s11-12 13-27c2-22 8-28 28-28 23 0 25 4 28 55 3 61-7 51 130 133l32 19v-219l-1-218-56-34c-32-19-121-92-199-162l-141-127-7 251c-3 139-9 307-12 375-5 100-4 122 7 122 8 0 52 26 99 58l85 58 3-95c2-60-1-97-8-99zm219-492c-23-238-19-218-50-225-32-7-259-180-306-234l-32-36-1 122v122l58 54c153 144 330 292 338 283 1 0-2-39-7-86zm-29-368v-99l-42-13c-64-20-158-73-249-142-61-46-79-65-77-81 5-31 21-31 59 3 53 48 190 137 252 165l57 25v-240-240h-34c-34 0-34 0-20 29 22 44 3 84-54 112-77 39-77 46 3 83 32 15 55 31 55 40 0 58-213-54-244-128-34-81-28-127 18-153 18-10 17-12-15-21-18-5-41-13-50-16-32-14-39 36-39 281 0 205 2 234 15 223 17-15 26-10 78 47 42 46 264 223 279 223 4 0 8-44 8-98zm-1240-2598c0-70-175-156-254-125-17 7-16 10 14 45 37 41 91 72 160 91 71 20 80 18 80-11z"/><path d="m7314 21177c-55-21-216-121-262-163-32-28-44-45-39-57 9-25 22-21 64 17 42 37 218 145 276 170 72 29 35 61-39 33z"/><path d="m880 23035c-17-25-38-61-45-80-12-28-21-35-52-40-21-3-58-10-83-14-25-5-46-8-48-7-1 2 16 31 38 66 43 65 48 95 16 95-13 0-35-27-70-86-50-85-52-87-96-93-83-13-110-25-110-52 0-25 26-33 46-15 14 13 74 24 74 13 0-9-44-23-115-37-50-10-85-27-85-42 0-20 27-27 54-15 13 6 44 14 70 17l47 7-36-77c-27-59-32-81-24-91 21-25 46 3 84 94l38 89 76 10c42 6 78 9 80 7s-11-33-28-70c-33-71-40-124-17-124 19 0 27 13 71 112 37 83 41 88 75 94 19 4 42 10 50 15 16 8 17 7-36 24-24 8-11 30 19 33 30 4 33 13 15 41-10 16-6 29 26 81 37 60 41 90 12 90-8 0-29-20-46-45zm-96-179c-6-16-27-21-119-31-82-9-61 11 31 29 91 18 94 18 88 2z"/><path d="m1213 23062c-24-19-103-139-103-157 0-6-17-47-38-91-57-117-68-153-50-170 20-20 48-7 48 22 0 14 16 56 35 94 20 39 45 95 56 126 12 31 41 81 66 111 42 52 50 83 21 83-7 0-23-8-35-18z"/><path d="m2515 23073c-63-9-186-43-224-63-50-25-65-51-58-102 8-61 58-105 150-133l39-11-27-32c-31-37-112-65-172-60-37 3-38 4-38 42 0 48-20 58-46 25-64-83 37-141 178-103 54 14 77 27 111 60 36 36 43 48 40 76-3 30-7 34-51 45-90 22-147 75-133 121 14 43 184 87 371 97 118 6 144 13 131 34-7 11-202 13-271 4z"/><path d="m1353 23050c-41-9-63-27-63-51 0-23 17-24 58-3 20 9 51 14 84 12 52-3 53-4 56-36 6-61-54-133-235-280-85-69-67-109 36-80 138 39 268 81 284 93 46 32-40 29-163-6-36-11-69-19-74-19s32 39 81 88c56 54 98 105 113 135 55 117-25 183-177 147z"/><path d="m1733 23050c-25-10-31-45-10-53 6-2 19-1 28 4 29 15 110 14 120-2 5-8 9-17 9-21s-34-37-75-74c-102-92-100-105 20-133 101-24 90-57-28-86-88-21-108-31-101-50 8-20 29-19 121 6 119 32 164 87 111 136-20 18-56 33-117 49-8 3 6 20 34 43 86 71 105 122 60 166-21 22-33 25-87 24-35 0-73-4-85-9z"/><path d="m7895 23005c-31-14-55-65-85-182-8-32-16-43-30-43-26 0-37-21-18-34 12-7 14-16 6-44-8-27-6-38 6-50 20-21 39-4 54 47 10 31 18 40 43 45 55 11 66 7 79-24 16-39 65-67 86-49 13 10 10 17-17 45l-32 33 24 20 24 19-26 7c-25 6-26 10-32 102-8 123-18 136-82 108zm13-206c-7-5-21-9-30-9-19 0-14 27 18 94l19 39 3-58c2-40-1-61-10-66z"/><path d="m8204 22883c-17-8-38-28-47-43-13-21-22-26-41-23-33 7-43-30-52-187-6-110-4-127 10-139 26-22 41 2 55 84l12 70 47 1c53 1 113 28 155 69 42 43 36 135-12 172-22 17-90 15-127-4zm106-52c26-50 0-95-72-126-58-23-66-20-64 23 3 43 28 96 53 111 30 17 71 13 83-8z"/><path d="m8430 22883c1-28 36-99 71-143l32-40-28-52c-15-29-36-65-47-80-24-34-23-58 1-58 21 0 57 42 86 100 10 19 19 37 21 39s15-6 30-18c54-43 79-18 36 36l-29 36 44 78c48 86 54 119 23 119-11 0-24-8-28-18-4-9-22-44-41-75l-33-58-24 21c-12 12-34 47-48 76-19 39-31 54-46 54-12 0-20-7-20-17z"/><path d="m13419 22776c-3-3-29-10-58-16-114-21-125-48-118-268 5-175 9-197 34-206 33-13 43 13 43 115v99h60c67 0 134 25 109 41-8 5-49 6-91 2l-78-6v46c0 25-4 49-10 52-15 9-12 41 4 54 8 7 54 22 103 34 62 15 88 26 88 37 0 10-12 16-40 18-23 2-43 1-46-2z"/><path d="m5710 22720c0-20 5-21 88-18 69 2 87 6 87 18s-18 16-87 18c-83 3-88 2-88-18z"/><path d="m5980 22720c0-18 7-20 80-20s80 2 80 20-7 20-80 20-80-2-80-20z"/><path d="m6270 22720c0-19 7-20 100-20s100 1 100 20-7 20-100 20-100-1-100-20z"/><path d="m6565 22730c-14-22 13-31 86-28 58 2 74 6 74 18s-16 16-77 18c-49 2-79-1-83-8z"/><path d="m6443 22594c-46-47-64-80-56-101 8-20 30-16 71 12l37 25 3-312c1-186-2-332-8-361-5-26-10-61-10-78v-30l-33 25c-41 32-77 34-77 6 0-22 131-120 160-120 10 0 23 14 31 33 7 17 38 58 67 90 34 37 51 64 48 74-3 8-6 17-6 19 0 17-33-5-78-53l-54-58 7 55c4 30 9 202 11 382l5 327 45-20c25-11 53-19 62-17 27 5 20 31-14 48-45 22-68 42-88 73-29 43-70 37-123-19z"/><path d="m14331 22568c-11-18-30-50-42-71l-24-38-37 41c-38 40-71 52-81 26-3-7 14-32 39-57 24-24 44-46 44-50s-18-29-40-55c-40-49-51-84-27-84 18 0 40 18 80 67l34 41 29-19c31-20 69-25 79-10 4 8-19 29-74 68-3 2 5 16 16 31 28 38 63 108 63 127 0 28-39 16-59-17z"/><path d="m13655 22540c-9-10-28-42-41-70-17-36-29-50-44-50-23 0-29-37-6-42 12-2 10-16-10-72-30-87-30-96 1-96 29 0 46 24 70 97 9 29 20 55 25 58s26 3 48-1c31-5 41-12 49-35 13-33 39-47 55-31 8 8 8 19-1 38-8 19-9 30-1 38 14 14 12 26-5 26-14 0-18 9-29 80-12 68-73 102-111 60zm62-89c5-39 4-41-21-41-29 0-33 17-15 69 14 40 28 29 36-28z"/><path d="m13993 22544c-18-9-33-20-33-24 0-5-13-21-30-37-28-26-30-32-30-105 0-43-5-123-11-178-13-120-8-153 24-148 20 3 23 10 30 103 9 130 19 176 37 185 75 36 97 48 121 71 77 72-13 181-108 133zm81-56c8-13 6-22-9-38-23-26-84-64-91-57-9 9 14 78 32 99 21 22 52 20 68-4z"/><path d="m5886 22524c-3-9-6-41-6-72s-12-106-26-167c-53-221-52-219-40-233 18-19 38-7 73 48 32 48 107 109 119 97 4-3 1-20-5-38-30-88-2-139 77-138 59 0 116 19 120 40 2 14-8 15-78 11-92-5-89-10-63 89 21 85 15 104-34 96-20-4-59-20-86-37l-49-31 7 28c22 91 45 214 45 250 0 54-8 73-30 73-10 0-21-7-24-16z"/><path d="m2805 22422c-52-14-150-16-705-16-355 0-787 2-960 4-212 4-390 0-545-9-261-17-465-20-511-7-38 10-53-14-26-40 15-16 41-16 277-11 143 4 323 12 400 18s232 10 345 9c1438-11 1748-6 1823 32 15 8 16 12 6 24-14 17-25 16-104-4z"/><path d="m11266 22348c-28-66-38-345-49-1283-11-1013-12-3342-2-3663l6-194-29 7c-40 8-53-12-22-37 14-11 38-18 65-18h44l-6-37c-25-180-76-313-119-313-26 0-35 11-44 54-8 40-40 43-54 4-13-37 30-95 78-104 54-10 85 12 123 86 29 58 73 230 73 289 0 16 22 19 218 30 245 14 490 25 861 41 293 12 844 14 839 3-68-136-71-143-66-211 10-130 75-223 158-226 42-1 72 20 98 69 14 25 16 58 14 193l-3 163 413-5c236-2 447-9 493-16 117-17 680-24 717-9 33 13 39 49 9 49-11 0-23 6-28 13-9 14-25 521-25 807-1 184 14 508 28 613l6 47h89c82 0 89 1 89 20s-7 20-90 20h-91l5 268c3 147 10 524 16 837 13 704 14 768 5 1348l-7 467h36c29 0 36 4 36 20s-7 20-35 20h-35v329c0 280-2 330-15 341-12 10-18 10-30 0-13-11-15-60-15-330v-318l-47-6c-192-25-309-29-658-27-918 8-1000 7-1000-9 0-13 45-16 315-23 688-19 1275-11 1343 18 10 4 17 3 17-4 0-6 6-11 14-11 13 0 16-63 21-412 9-623 8-811-4-1453-17-865-27-1206-42-1430-7-110-13-270-12-355 3-272 20-744 28-778l7-33-263 4c-170 3-301 10-369 21-80 12-184 16-441 16-185 0-369 3-410 6l-74 7-30 106c-17 58-32 119-35 135-8 46-34 56-64 23-25-26-76-38-76-17 0 6 7 26 14 45 12 29 20 35 45 35 30 0 75-36 113-91 15-22 18-23 33-7 16 15 16 18-4 55-42 73-143 114-197 79-33-22-56-77-52-124 3-34 7-38 41-46 26-7 48-6 67 1 29 11 29 10 45-37l16-49-38-49-38-50-510-5c-602-7-1029-23-1363-53l-73-7 7 69c6 67 46 283 61 334 7 23 13 25 74 26 78 1 141 31 186 90 23 31 27 45 26 97-3 76-18 114-54 132-86 45-172-6-227-136-40-92-118-448-124-558-1-20-6 47-11 149-21 420-4 4481 21 4825 6 77 8 143 6 147-10 17-26 7-38-24zm358-4460c10-13 16-44 16-75 0-47-4-56-36-87-20-19-50-39-68-45-30-9-116-22-116-17 0 17 47 141 66 173 42 73 106 97 138 51zm1761-636c-1-1-9 0-18 4-14 5-15 10-5 27 12 22 12 22 18-3 4-14 6-26 5-28zm9-73c3-17 6-91 6-163 0-134-8-168-42-190-41-25-111 70-123 168-7 56 3 92 51 174 22 38 29 42 63 42 35 0 39-3 45-31z"/><path d="m12972 22328c-7-7-12-16-12-21s-16-28-36-53c-60-72-24-105 39-35l34 38 7-231c4-127 9-254 12-283l6-52-61-38c-171-107-161-105-161-30v62h77c62 0 78 3 78 15 0 21-145 44-160 25-6-7-19-14-30-16-20-4-20-21-28-1304-4-715-8-1394-10-1510l-2-210 30-1c17-1 74-2 128-3l97-1v-207c-1-115-5-242-11-283-5-41-12-104-15-140-9-107-10-111-40-100-38 15-84 12-84-4 0-19 128-146 147-146 8 0 17 9 20 20s11 20 17 20c19 0 156 136 156 154 0 33-42 16-97-39-30-30-59-55-64-55-14 0-10 94 11 255 13 103 20 209 20 338v187h99c68 0 102 4 109 13 11 13 14 65 33 567 13 365 16 1344 5 1836l-9 381 29 14c37 18 37 33 2 37-28 3-28 3-28 96 0 71-4 97-15 106-12 10-18 10-30 0-11-9-15-40-17-121l-3-110-72-39-71-40 1 126 2 125 60 29c33 15 68 31 78 34s17 12 14 19c-6 18-73 11-117-12l-37-19-7 90c-3 50-6 168-6 262 1 155 2 169 15 144 16-29 52-45 66-31 12 12-55 129-82 143-25 14-73 12-87-2zm43-845-7-113-50-44c-49-43-56-66-19-66 10 0 24 7 31 15 24 29 30 14 29-82v-98l-85-70c-79-66-98-96-64-103 8-1 46 25 84 58s72 58 74 55c3-3 8-33 11-67 6-59 8-63 31-63 22 0 25 4 25 35 0 19-4 58-8 87l-8 52 78 45 78 45 7-97c5-53 11-309 14-568l6-471-24-6c-33-9-174-98-235-149-83-69-126-103-155-122l-28-18v890 890l27 6c14 4 63 29 107 56 66 40 82 46 85 33 2-9 0-68-4-130zm205-157v-114l-28-7c-15-3-48-19-72-35-25-17-48-30-52-30-5 0-8 49-8 108v108l73 42c39 23 75 42 80 42 4 0 7-51 7-114zm10-1822c-11-79-13-82-42-88-34-7-64-26-166-109-125-101-216-193-209-211 11-28 32-18 99 47 96 93 276 237 297 237 7 0 11-35 11-97v-98l-51-30c-28-16-74-54-103-82-40-41-58-53-82-53-76 0-127-56-139-150-6-53-5-58 23-88 20-21 43-33 71-38 22-4 41-11 41-17 0-10-153-3-185 9-18 7-18-44 1 715l6 247 26 5c15 4 65 38 112 76 47 39 132 102 190 142l105 72 3-204c2-120-1-238-8-285zm-20-537c-5-16-10-79-10-138v-109h-80c-72 0-80 2-80 19 0 10 7 21 15 25 9 3 25 27 36 53 24 56 21 112-10 153l-20 27 52 50c29 28 63 58 77 67l25 16 3-66c2-37-2-80-8-97z"/><path d="m13135 20796c-60-26-325-248-325-272 0-36 33-22 116 48 49 40 99 84 113 97 49 44 115 85 137 83 26-2 49 22 40 43-7 18-41 19-81 1z"/><path d="m13115 20448c-72-43-265-221-265-245 0-40 35-21 130 71 55 52 112 103 128 112 72 45 102 68 102 79 0 27-30 22-95-17z"/><path d="m13116 20235c-32-19-80-51-107-71-62-45-161-161-157-183 7-34 35-20 88 45 64 76 145 141 230 181 38 18 59 34 59 46 1 28-49 21-113-18z"/><path d="m13124 19654c-72-49-93-68-179-168-87-102-107-138-85-159 9-9 18-4 39 22 88 112 183 213 242 256 38 28 68 56 69 63 0 21-45 13-86-14z"/><path d="m3744 22322c-18-12-25-43-35-142-39-384-48-789-49-2097 0-1137 1-1228 21-1495 18-236 20-334 15-593-12-661-44-1456-59-1471-3-3-185-1-404 6-256 7-858 10-1693 8-1143-3-1295-5-1295-18s167-16 1420-22c781-3 1544-10 1695-13l275-7-7-181c-4-100-13-306-19-457s-15-336-20-410c-15-224-12-320 11-357 22-36 32-40 49-19 10 11 10 20 1 37-13 23-10 217 10 619 5 113 14 331 19 485 6 154 12 296 15 315 6 45 25 371 31 515 31 851 35 1295 12 1500-9 82-12 499-12 1640 0 1524 1 1581 35 2025 9 121 6 147-16 132z"/><path d="m587 21821c-15-10-35-28-43-39-25-36-54-132-54-178 0-62 61-135 159-191 90-51 127-85 142-131 11-33 10-37-14-58-32-27-93-38-183-32-58 4-70 8-91 32-23 27-23 29-7 47 14 15 15 22 5 32-18 18-65-12-69-45-4-38 49-95 101-109 53-14 190-6 238 14 51 21 79 54 79 95 0 66-52 128-161 192-79 46-149 116-149 150 0 36 39 143 61 166 48 51 96 20 101-66 2-44 7-55 22-58 26-5 36 15 36 76 0 45-4 57-27 79-51 46-100 55-146 24z"/><path d="m11290 21701c0-19 12-20 293-25 160-2 353-10 427-16 154-14 261-15 515-3 168 7 180 9 180 27 0 19-8 19-175 17-96-1-190-7-209-13s-58-8-90-4c-205 24-431 36-668 36-263 0-273-1-273-19z"/><path d="m15245 21690c-14-22 10-30 86-30 72 0 79 2 79 20s-7 20-79 20c-44 0-83-4-86-10z"/><path d="m15535 21689c-14-22 14-30 106-27 76 2 94 6 94 18s-19 16-97 18c-63 2-99-1-103-9z"/><path d="m2332 21638c3-20 8-23 40-20 20 2 46-2 58-8 21-11 20-13-34-69-81-86-85-143-10-157 61-11 193 1 212 19 26 27 3 40-54 30-70-11-154-5-154 12 0 7 27 43 61 80 37 42 58 73 55 82-3 8-6 16-6 19 0 14-68 34-115 34-53 0-56-1-53-22z"/><path d="m7048 21609c-20-11-24-34-8-44 14-9 72 24 67 38-5 16-38 19-59 6z"/><path d="m15430 21572c0-4-23-39-50-77-65-90-60-131 11-101 19 8 29-34 29-134 0-36 8-130 16-210 12-103 18-314 24-735 5-382 13-631 21-705 16-133 18-487 3-575l-9-60-43 63c-42 61-73 79-85 48-15-38 106-186 151-186 29 0 53 24 131 135 70 98 80 118 62 129-19 12-40-7-92-81-51-72-54-74-57-47-2 15 2 45 9 66 14 44 6 376-11 443-6 23-14 301-20 665-5 344-12 643-15 665-17 130-46 570-39 590 5 11 24 0 78-43 91-74 146-100 146-68 0 8-37 44-82 81-46 36-96 83-113 105-27 35-65 54-65 32z"/><path d="m1355 21480c-44-44-85-80-92-80s-13-9-13-20c0-15 7-20 28-20 15 0 34 6 41 13 16 14 13 0-13-68-8-22-15-59-16-83 0-39 2-43 22-40 19 2 24 12 31 53 5 27 35 105 68 173 87 178 70 199-56 72z"/><path d="m1743 21485c-45-19-104-137-111-222-4-57-3-63 22-88 24-24 33-27 75-23 26 3 61 11 77 19 25 13 35 13 59 3 44-19 68-17 106 9 34 23 34 23 51 3 22-27 86-26 126 2l29 21 11-25c14-29 50-45 75-32 23 12 22 38-3 38-31 0-28 76 6 125 30 45 28 70-6 70-20 0-31-11-52-50-29-54-103-125-130-125-23 0-15 49 18 107 26 45 23 73-7 73-12 0-26-15-39-41-29-56-111-139-138-139-29 0-36 19-23 66 8 30 8 42-2 52-19 18-46 4-53-27-8-43-28-75-54-87-50-24-68-25-85-8-23 24-13 88 28 170 41 83 77 98 47 20-12-32-3-56 20-56 20 0 28 15 40 79 6 36 5 46-11 62-22 22-33 23-76 4z"/><path d="m877 21454c-4-4-7-13-7-21 0-10 25-13 111-13 100 0 110 2 107 18-3 15-17 17-104 20-55 1-103 0-107-4z"/><path d="m890 21360c0-19 7-20 98-20 53 0 104 5 112 10 29 19-11 30-112 30-91 0-98-1-98-20z"/><path d="m11430 21360c0-19 7-20 158-20 86 0 164 5 172 10 32 21-17 30-172 30-151 0-158-1-158-20z"/><path d="m14010 21221c0-17 13-19 158-24 86-4 177-9 202-12s52-1 60 4c44 30-69 50-282 51-128 0-138-1-138-19z"/><path d="m6331 21166c-9-11-8-17 5-30 14-14 40-16 192-14 150 3 177 5 177 18 0 12-27 16-160 21-88 3-169 9-181 13-13 4-26 1-33-8z"/><path d="m8270 21019c0-21 3-21 188-17 103 2 195 8 204 12 43 19-6 26-193 26-195 0-199 0-199-21z"/><path d="m16014 20965c-22-55-44-145-44-187 0-31-4-38-20-38-26 0-34-35-25-108 7-55 18-82 36-82 20 0 38 34 44 87l8 58 75 38c41 21 76 36 79 33 2-2-3-21-12-42-9-22-19-73-22-114-9-122 22-160 132-163 34 0 64 7 95 22 119 61 103 98-20 44-151-65-199 32-116 239 14 35 26 72 26 82 0 28-27 29-72 4-24-14-69-40-102-58l-58-33 7 54c4 29 16 77 26 108 25 71 24 91-2 91-13 0-25-11-35-35z"/><path d="m14012 20683c3-16 21-18 198-18 193 0 270 10 205 25-16 4-115 8-218 9-174 1-188 0-185-16z"/><path d="m5975 20670c-33-4-88-8-122-9-56-1-63-3-63-21s7-20 73-20c39 1 130 5 201 10 126 8 167 20 136 40-17 11-136 11-225 0z"/><path d="m11845 20670c-15-25 13-30 160-30 154 0 193 8 133 29-39 14-285 15-293 1z"/><path d="m8152 20623c3-16 20-18 158-21 106-2 164 1 184 10 30 12 30 12 6 19-14 4-98 7-188 8-151 1-163 0-160-16z"/><path d="m639 20579c-12-12-18-27-15-36 4-8-7-63-23-122-37-137-69-293-73-356-3-45-1-50 19-53 17-3 32 12 71 70 27 40 61 84 76 97l26 24v-91c0-80 3-95 21-113s28-20 63-15c49 8 86 30 86 52 0 17-10 16-81-1l-27-7-4 100c-4 112-15 137-57 127-14-3-47-27-73-53-28-26-48-40-48-32 0 25 26 139 54 238 37 130 43 177 22 185-10 4-25-2-37-14z"/><path d="m1619 20395c-90-108-92-146-6-124 57 14 92 6 113-26 33-51-18-95-111-95-43 0-45 1-45 29 0 25-3 28-21 24-11-3-26-17-32-31-10-21-8-27 18-49 27-23 35-25 96-20 103 9 159 47 159 109 0 64-36 99-114 108l-48 5 42 48 42 47h101c56 0 109 5 117 10 30 20-14 30-136 30h-120z"/><path d="m2113 20294c-64-50-123-163-123-236 0-75 137-75 222-1 16 14 21 14 52-1 48-23 66-20 140 18 63 33 67 34 76 16 24-45 116-32 216 32 52 32 54 33 54 13 0-48 200-71 256-29 40 30 44 49 8 40-55-14-159-18-186-7-27 10-27 11-13 45 8 20 15 47 15 61 0 39-29 31-87-23-56-53-170-116-199-110-23 5-21 29 8 84 33 64 0 106-38 49-29-45-104-115-145-136-55-27-81-22-91 19-11 43-39 42-75-4-33-42-90-74-133-74-25 0-30 4-27 18 3 9 8 31 12 47 8 37 69 131 90 139 12 4 14 0 9-19-7-27 19-46 37-28 16 16 27 79 17 97-13 24-58 19-95-10z"/><path d="m1067 20286c-9-23 2-26 100-26 86 0 93 1 93 20s-7 20-94 20c-71 0-95-3-99-14z"/><path d="m6438 20279c-6-4-8-14-5-23 5-13 25-16 124-16 112 0 157 9 139 27-10 10-244 20-258 12z"/><path d="m1257 20214c-3-4-59-7-124-8-109-2-118-4-118-22s8-19 110-19c71 0 122 5 143 14 35 15 40 26 16 35-19 7-19 7-27 0z"/><path d="m8264 19949c-16-26 19-30 217-27 196 3 273 14 204 29-53 12-413 10-421-2z"/><path d="m11574 19915c-4-9-3-20 2-25 11-9 223-40 279-40 41 0 74 13 59 23-10 6-156 33-229 42-27 3-62 8-78 11-19 4-29 1-33-11z"/><path d="m13720 19814c-14-2-40-7-57-10-23-3-33-10-33-23 0-17 11-18 168-13 111 3 175 9 192 18 15 8 19 14 10 14-8 1-31 3-50 4-108 9-208 14-230 10z"/><path d="m5993 19747c-59-7-83-14-83-24 0-7 6-16 14-19 20-8 380 14 408 25 23 9 23 9-5 20-34 13-218 12-334-2z"/><path d="m7615 19550c-3-5-3-14 0-20 9-14 242-13 307 2l53 12-45 7c-69 11-308 11-315-1z"/><path d="m14190 19403c0-17 11-21 94-31 168-21 379-11 361 17-2 5-60 11-127 15-68 3-169 9-225 12-98 6-103 5-103-13z"/><path d="m636 19224c-20-42-36-81-36-86 0-6-29-66-65-133-68-128-75-152-50-161 27-11 47 18 121 171 63 130 73 145 74 114 0-59 29-129 57-140 51-19 69-11 133 59 63 67 63 67 57 32-4-19-12-79-18-133-10-86-10-101 4-114 30-31 47-9 47 62 0 69 13 171 36 275 18 81 18 96 0 103-22 9-52-19-80-75-30-61-121-168-142-168-20 0-30 31-44 140-15 121-17 130-40 130-12 0-28-22-54-76z"/><path d="m8155 19249c-4-6 0-18 9-27 14-15 42-17 185-17 157 0 195 5 178 22-4 3-60 10-125 14-64 5-145 11-179 14-40 3-64 2-68-6z"/><path d="m1777 19148c-36-13-33-44 3-41 36 2 87-16 94-33 11-28-23-59-111-103-92-46-113-63-113-93 0-16 10-18 88-18 82 0 180 11 229 25 16 5 23 2 28-14 18-57 153-82 221-41 113 70 110 173-6 199-79 18-210-35-210-84 0-9-10-15-23-15s-65-7-115-16c-51-8-98-14-105-11-6 2 20 20 59 40 102 51 134 101 104 158-21 38-98 63-143 47zm458-178c23-19 18-36-19-73-42-42-93-54-136-32-38 20-38 41 0 63 16 9 30 25 30 34s8 19 18 22c27 7 91-1 107-14z"/><path d="m1157 19114c-34-34 36-56 163-52 76 2 95 6 95 18s-19 17-85 22c-47 4-103 9-126 13-22 3-43 2-47-1z"/><path d="m12220 19114c-8-2-49-8-90-12-57-5-75-11-75-22 0-13 19-15 123-12 124 2 201 20 187 42-6 9-113 12-145 4z"/><path d="m2490 19080c-6-11-10-56-8-102 2-65 7-83 21-92 27-17 37 8 37 96v77l73 3c56 2 72 6 72 18s-18 16-92 18c-84 2-93 1-103-18z"/><path d="m13986 19047c-12-9-17-20-13-31 5-13 21-16 84-16 210 1 431 29 416 53-4 7-61 7-177 2-223-11-258-11-276-2-9 4-24 1-34-6z"/><path d="m6355 19030c-16-26 14-30 209-30 161 0 206 3 215 14s8 15-5 20c-27 10-412 7-419-4z"/><path d="m1170 19002c0-16 14-20 103-30 76-9 111-9 135-1 18 6 32 14 32 19 0 9-156 30-223 30-39 0-47-3-47-18z"/><path d="m8892 18863c3-15 20-20 93-27 123-12 196-13 220-3 17 7 18 10 4 17-22 12-170 30-252 30-60 0-68-2-65-17z"/><path d="m7146 18706c-18-18-45-58-61-89-19-35-32-51-37-44-12 19-42-5-49-39-4-16-7-52-8-81 0-28-8-86-16-129-13-68-13-80 0-93 11-12 17-12 29-1 9 7 16 20 16 30s16 71 36 136c34 113 70 196 112 258 19 27 21 27 30 9 6-11 16-51 22-89 36-212 86-313 140-284 22 12 66 91 86 155 12 38 13 34 13-67 1-84-2-106-12-102-8 3-13-6-15-25-2-23 5-34 27-51 34-23 68-20 113 11 39 28 41 23 8-23-35-48-39-95-15-175 22-75 85-123 141-109 21 6 24 12 24 54-1 26-13 95-28 153l-28 106 38 49c50 65 48 80-6 44-59-40-71-38-47 8 51 100 29 199-39 177-41-13-64-106-46-181 6-27 3-35-21-54l-28-22-5 224c-5 223-5 223-29 223-26 0-32-12-77-160-34-115-64-177-79-165s-38 97-55 195c-21 123-50 185-87 185-9 0-30-15-47-34zm485-307c-6-24-9-28-10-12-1 24 9 56 16 50 2-3 0-20-6-38zm28-340c13-55 21-103 18-106-15-14-56 48-67 102-12 57-4 105 18 105 4 0 18-45 31-101z"/><path d="m11593 18724c-3-8-2-19 3-23 27-25 210-62 243-49 38 14 9 33-71 48-40 7-90 19-112 26-49 18-55 17-63-2z"/><path d="m14767 18733c-10-3-17-12-15-21 3-14 16-17 78-17 68 0 75 2 75 20s-7 20-60 22c-33 0-68-1-78-4z"/><path d="m15340 18720c0-20 5-21 78-18 60 2 77 6 77 18s-17 16-77 18c-73 3-78 2-78-18z"/><path d="m13584 18705c-10-25 6-35 59-35 71 0 97 9 97 31 0 17-8 19-75 19-57 0-77-4-81-15z"/><path d="m13870 18700c0-19 7-20 100-20s100 1 100 20-7 20-100 20-100-1-100-20z"/><path d="m14165 18710c-14-22 13-31 86-28 58 2 74 6 74 18s-16 16-77 18c-49 2-79-1-83-8z"/><path d="m14455 18709c-14-22 14-30 106-27 76 2 94 6 94 18s-19 16-97 18c-63 2-99-1-103-9z"/><path d="m13343 18689c-24-7-33-16-33-30 0-19 4-20 68-14 90 9 102 13 102 36 0 16-7 19-52 18-29 0-68-5-85-10z"/><path d="m7052 18667c-19-23 1-37 25-17 22 17 21 30-2 30-7 0-17-6-23-13z"/><path d="m5912 18603c3-16 20-18 183-18 179 0 254 10 190 25-16 4-108 8-203 9-160 1-173 0-170-16z"/><path d="m12041 18240c-30-11-62-27-72-36-37-34-37-134 0-134 22 0 31 19 31 66 0 32 4 36 46 54 52 23 150 26 175 7 22-17 39-51 39-79 0-34-30-77-113-162-79-80-96-120-76-173 9-25 10-25 29-8 12 11 20 31 20 49 0 25 14 46 75 108 93 95 115 131 115 186 0 122-118 176-269 122z"/><path d="m13554 18225c-4-9-4-18-2-20 21-22 301-35 313-16 10 17-29 30-111 36-43 3-105 8-137 11-46 4-58 2-63-11z"/><path d="m8167 18133c-10-3-17-11-15-19 3-13 38-16 223-17 221-2 267 5 195 30-34 12-363 16-403 6z"/><path d="m2170 18020c0-18 7-20 56-20 30 0 65-5 77-11 20-11 19-13-23-33-35-16-45-27-45-45 0-20 8-26 50-38l49-15-33-14c-18-8-43-14-55-14-29 0-61-24-52-38 4-7 20-12 35-12 37 0 133 29 150 45 23 23 6 61-36 77l-37 15 30 14c40 20 44 60 8 88-22 17-40 21-100 21-67 0-74-2-74-20z"/><path d="m3058 18024c-9-9-41-18-79-21-35-3-67-11-71-17s-8-52-8-102c0-83 2-92 24-114 29-26 63-21 50 8-5 9-10 54-12 100l-3 82h50c57 0 109 34 98 63-8 21-28 22-49 1z"/><path d="m2656 17998c-27-44-71-192-62-207 12-19 33-12 54 16l20 28 50-18c58-21 127-20 127 3 0 9-18 19-50 26-61 14-85 24-85 34 0 11 82 77 114 91 31 15 36 49 6 49-12 0-33-6-48-14-53-27-69-28-75-6-7 27-33 25-51-2z"/><path d="m6470 17940c0-20 5-20 137-18 122 3 138 5 141 21 3 15-9 17-137 17-135 0-141-1-141-20z"/><path d="m764 17886c-78-34-149-196-224-511-49-209-62-246-87-256-26-10-29-19-11-37 16-16 53-15 66 1 16 19 47 121 81 267 18 74 41 163 52 197l20 62 42-5c82-12 178 33 209 96 9 19 17 58 18 87 0 41-5 58-26 82-21 26-33 31-67 31-23-1-56-7-73-14zm110-77c14-57-10-109-65-136-49-26-117-31-125-9-7 18 50 131 82 163 19 19 33 23 62 21 33-3 38-7 46-39z"/><path d="m3205 17837c-103-54-215-126-313-201-42-32-113-83-157-112-114-76-129-89-122-108 9-24 29-20 78 17 24 18 61 43 81 55 20 13 79 55 132 95 112 85 238 167 344 222 76 39 98 68 57 72-11 2-56-16-100-40z"/><path d="m12753 17788c-6-7-14-28-18-47s-14-41-21-49c-8-7-16-25-19-40s-12-53-20-84c-19-74-20-182-1-197 37-31 66 29 66 135 0 64 17 142 38 180 13 23 62-100 62-156 0-95 60-119 112-45 15 22 45 69 65 105l38 65 3-50c2-27-2-86-8-131s-8-89-4-98c8-20 43-21 50-1 4 8 15 15 27 15 20 0 20 1-3 25-22 23-22 27-10 85 15 73 7 176-17 202-34 38-58 24-109-64-26-46-56-93-65-106-18-24-18-24-25 27-8 60-92 235-115 239-9 2-21-3-26-10z"/><path d="m1813 17703c-15-21-59-73-97-115-44-50-66-83-62-93 7-18 27-19 45-2 11 10 12 7 5-13-4-14-8-38-9-55 0-24 5-31 23-33 12-2 22 1 22 7v16c1 35 98 235 132 272 12 12 18 29 15 37-11 28-45 18-74-21z"/><path d="m14345 17703c-147-20-283-47-295-59-31-31 3-35 126-15 172 29 216 39 244 61l25 20-35-2c-19 0-48-3-65-5z"/><path d="m1972 17666c-56-18-76-35-61-52 7-9 6-25-5-59-9-25-16-63-16-85 0-34 4-42 32-56 62-32 153 5 199 79 21 36 34 105 25 135-13 38-107 59-174 38zm112-49c45-33-39-167-104-167-16 0-31 4-35 9-9 15 13 96 36 135 17 29 27 36 53 36 18 0 40-6 50-13z"/><path d="m5943 17635c-13-9-25-32-29-53-4-20-13-51-21-69-37-89 4-153 97-153 62 0 101 57 99 147-1 71-11 95-48 120-40 27-68 29-98 8zm67-45c27-14 36-96 16-144-14-34-19-37-48-34-31 3-33 6-36 44-3 41 10 66 40 77 10 3 11 9 1 26-24 39-12 52 27 31z"/><path d="m1150 17600c0-34 43-52 139-58 63-3 90-1 96 8 12 20-7 29-80 36-38 3-83 13-99 20-40 19-56 18-56-6z"/><path d="m11653 17585c-13-35 23-46 137-43 85 2 105 6 105 18s-19 16-90 21c-49 4-102 10-117 14-22 5-29 3-35-10z"/><path d="m3210 17560c0-12 9-24 23-29 30-12 51-37 44-55-3-8-18-20-34-28-19-9-29-22-31-40-3-23 3-30 40-49l42-22-42-16c-49-19-67-35-58-50 10-16 28-14 90 10 66 24 79 49 45 85-12 13-30 26-39 29-16 5-14 9 11 35 33 32 37 64 13 100-25 37-45 50-76 50-21 0-28-5-28-20z"/><path d="m7370 17540c0-19 7-20 163-20 160 0 209 9 177 30-8 5-88 10-177 10-156 0-163-1-163-20z"/><path d="m1209 17495c-3-2-23-5-44-6-60-2-75-8-75-30 0-15 7-19 33-19 68 1 207 19 229 31s22 12 3 20c-22 8-139 12-146 4z"/><path d="m12086 17403c-4-9 0-23 9-32 13-14 17-14 30 0 19 19 10 49-15 49-10 0-21-8-24-17z"/><path d="m835 17391c-42-10-75-30-75-43 0-6-6-19-14-27-7-9-16-35-20-58-5-35-2-46 20-72 32-39 92-56 138-41 80 26 144 127 118 185-21 46-100 73-167 56zm112-67c7-10 10-27 7-38-9-32-80-96-106-96-38 0-68 27-68 61 0 24 4 29 25 29 18 0 25 5 25 19 0 11-6 21-12 24-8 3-3 9 12 16 34 15 101 6 117-15z"/><path d="m2962 17338c-7-7-12-17-12-24 0-17-123-146-161-168-32-19-32-19-24 0 20 49 27 96 17 106-19 19-39 1-56-51-24-74-21-99 11-112 34-13 74 4 131 56 31 28 41 32 46 20 6-17 53-20 76-5 12 7 16 4 20-18 4-19 12-28 29-30 31-5 48 12 32 32-14 17-10 37 21 103 35 75-3 103-46 35-25-39-76-81-76-62 0 6 9 28 20 50 25 49 26 80 2 80-10 0-23-5-30-12z"/><path d="m2305 16174c-148-31-177-62-140-149 29-70 74-56 49 14-18 52-12 61 51 79 48 13 239 19 275 7 43-13 70-45 70-82 0-47-74-119-206-201-102-63-154-116-154-158 0-25 18-44 43-44 16 0 18 5 14 27-7 36 47 89 166 161 145 90 205 165 191 239-10 51-52 89-115 102-48 11-202 13-244 5z"/><path d="m6257 16068c-40-62-91-141-112-176-27-44-50-69-74-80-41-19-81-87-81-137 0-17-13-52-30-78-25-41-33-47-54-41-18 4-27 1-36-15-6-12-7-21-3-21s14-4 22-9c10-7 2-27-38-96-101-170-160-305-133-305 12 0 61 75 161 248 69 119 86 142 106 142 13 0 46 18 74 40 49 39 51 40 51 16 0-13 3-38 6-55 5-21 3-31-6-31-21 0-133-71-177-113-73-69-78-154-15-249 27-41 85-78 124-78 29 0 84 33 96 57 20 41 37 154 37 256 0 89 3 108 16 112 21 7 64 53 56 61-3 4-20 1-37-6s-32-11-35-9c-10 10-21 176-13 197 5 15 4 40-2 63-11 39-10 41 71 167 132 206 141 222 135 237-12 33-37 10-109-97zm-157-382c-11-34-36-63-46-54-3 3 7 26 23 51 31 53 40 54 23 3zm17-383c-7-144-21-201-53-215-81-37-168 124-115 210 19 29 142 120 165 122 5 0 6-51 3-117z"/><path d="m8423 16153c-46-44-85-109-150-248-79-169-108-252-133-377-33-165-26-291 22-381 22-42 81-97 104-97 32 0 30 11-11 61-45 53-55 71-71 134-18 66-17 121 2 236 20 120 57 231 132 396 62 136 104 205 149 247 16 15 24 30 20 40-9 24-31 20-64-11z"/><path d="m12063 16088c-41-42-56-67-72-119-22-69-61-308-61-371 0-109 47-198 104-198 32 0 33 11 5 36-52 46-61 141-33 339 22 161 47 230 102 287 29 30 43 52 39 62-11 27-31 18-84-36z"/><path d="m4944 16109c-41-12-90-68-103-116-5-21-12-117-16-213-8-213-30-457-50-548-29-126-67-222-97-243-46-33-27-88 26-75 23 6 25 2 35-46 26-135 23-217-18-488-12-74-24-191-27-260-6-113-5-130 13-171 28-62 92-94 171-85 29 3 65 14 80 24 26 17 26 17-66 22-107 6-129 20-143 91-9 50 4 233 26 383 29 187 34 241 35 326 0 94-21 210-45 246-13 21-12 29 11 90 60 160 91 373 103 710 6 143 13 229 21 245 21 40 40 58 72 64 35 8 68-16 68-51s11-54 30-54c32 0 40 52 15 99-14 28-69 62-97 60-7 0-27-5-44-10z"/><path d="m8011 16048c-23-40-58-120-78-176-38-104-38-104-68-99-38 6-99-14-132-45-33-30-66-103-58-128 10-31 64-70 96-70 16 0 29-3 29-7s-10-38-22-76c-19-57-30-74-58-93-118-79-160-257-79-333 39-36 76-28 130 28 53 55 95 153 124 286 10 44 26 89 36 101 23 25 24 34 4 34-18 0-20 56-5 110 9 29 7 37-8 50-26 23-16 50 19 50 32 0 40 25 14 44-14 10-11 24 25 120 22 59 56 139 76 176 37 67 40 100 10 100-9 0-33-33-55-72zm-147-327c9-15-37-132-56-142-22-12-78 15-78 37 0 58 110 144 134 105zm2-235c-6-41-20-65-31-54-3 2 3 27 12 56 20 61 28 60 19-2zm-22-143c-39-171-120-313-162-287-44 28-36 140 14 200l24 29-6-52c-5-36-3-53 5-53 12 0 52 74 70 132 18 54 67 81 55 31z"/><path d="m9624 16087c-3-8 9-36 25-63 85-136 108-338 61-539-15-66-48-122-104-173-51-47-59-72-23-72 31 0 131 104 157 162 35 81 53 204 47 318-7 136-22 197-72 295-30 59-47 81-63 83-12 2-24-3-28-11z"/><path d="m9367 16033c-4-3-7-36-7-72 0-86-29-226-78-378-28-86-36-125-29-132 17-17 33-13 51 13 18 29 78 86 89 86 4 0 7-11 7-24 0-73 47-114 114-102 39 8 86 41 86 62 0 19-30 18-58-2-12-8-34-14-49-12-23 2-28 9-35 43-16 83-17 85-43 85-13 0-35-4-49-10-14-5-26-8-26-6s9 32 20 67c42 139 70 331 54 373-6 16-35 22-47 9z"/><path d="m12624 15987c-2-7 20-50 51-95 75-113 90-167 90-322 0-69-6-147-13-175-7-27-14-65-16-83-3-32-3-32 17-15 72 64 95 295 47 463-18 63-79 169-123 218-23 25-45 29-53 9z"/><path d="m8572 15968c-7-7-12-41-12-81 0-37-4-87-9-110-6-23-12-54-15-68-4-19-14-29-33-34-39-9-53-23-53-51 0-29 34-33 49-7 14 26 18 14 13-34-3-28-9-43-18-43-17 0-19-51-2-68 32-32 56 0 73 98l10 65 70 3 71 3-7-88c-7-83 0-123 20-123 27 0 32 34 47 315 5 95 4 113-10 124-13 11-19 11-31 1-11-9-15-34-15-95 0-93-1-95-87-95-50 0-50 1-28 100 24 109 17 200-15 200-3 0-11-5-18-12z"/><path d="m5588 15864c-48-96-105-181-114-171-7 7-45 169-41 173 2 3-1 21-8 42-10 28-19 37-36 37-21 0-24-7-35-75-7-41-13-109-13-151-1-41-6-102-12-134-9-48-8-60 5-73 12-12 18-13 29-3 18 15 37 87 37 140 0 49 9 52 32 11 27-47 59-41 109 22 22 28 52 75 66 102 15 28 28 46 30 40s0-78-5-160c-9-143-4-194 17-194 20 0 29 37 35 145 3 61 9 149 12 196 9 116 1 159-31 159-20 0-31-16-77-106z"/><path d="m10078 15884c-75-38-97-64-105-122-7-50 11-84 86-164 55-59 111-151 111-181 0-23-34-47-66-47-16 0-45 9-65 19-39 21-63 15-57-14 5-29 89-59 143-51 48 8 105 53 105 84 0 34-63 148-108 197-26 27-61 67-76 88-27 35-28 40-17 77 10 32 21 44 68 69 53 29 58 30 75 15 14-14 20-14 33-4 21 18 19 36-7 54-31 22-43 20-120-20z"/><path d="m7215 15866c-43-19-57-39-108-151-40-87-69-170-185-525-21-65-21-65-19-21 2 47-11 61-36 37-16-17-33-152-22-186 3-11 15-25 25-30 31-16 52 15 87 125 18 55 53 169 80 254l48 154 80-2c96-1 149 10 180 39 29 28 33 50 24 137-9 80-36 142-73 166-30 20-41 20-81 3zm59-55c23-25 46-104 46-156 0-65-16-79-100-83-54-3-71-1-65 7 4 8-1 14-14 18-12 3-21 9-21 13 0 21 92 200 107 209 25 14 27 14 47-8z"/><path d="m12383 15748c-38-28-53-47-53-64 0-34 30-31 65 6 16 16 30 29 31 27 2-2-6-36-16-77-34-130-23-225 24-207 12 5 14 18 10 54-3 32 2 75 17 128 12 44 22 100 23 125 1 41-1 45-24 47-16 2-43-12-77-39z"/><path d="m6450 15740c0-20 4-20 143-18 118 3 142 5 142 18s-24 15-142 18c-139 2-143 2-143-18z"/><path d="m1008 15731c-114-37-149-114-187-416-21-163-40-233-68-249-25-14-28-8-28 54 0 43-4 55-17 58-19 4-38-49-38-105 0-38 30-73 61-73 28 0 76 35 93 68 17 34 41 149 56 272 19 161 7 145 108 145 186 1 279 73 230 180-24 54-137 89-210 66zm149-75c43-50 23-86-63-112-59-18-135-19-131-2 1 7-8 14-21 16-18 3-22 8-16 25 21 72 76 110 153 104 44-3 59-9 78-31z"/><path d="m8910 15680c0-19 7-20 121-20 69 0 129 5 141 11 38 20-1 29-134 29-121 0-128-1-128-20z"/><path d="m6514 15637c-3-9-3-21 1-27 8-13 245-13 265 0 28 19-11 30-106 30-50 0-105 3-123 6-23 5-32 2-37-9z"/><path d="m1550 15620c0-19 7-20 126-20s164 8 164 30c0 6-59 10-145 10-138 0-145-1-145-20z"/><path d="m2283 15402c-15-2-23-10-23-23 0-16 7-19 45-19 37 0 45 3 45 19 0 20-27 29-67 23z"/><path d="m7263 15293c-34-6-91-76-98-120-4-21-13-58-21-83-19-61-21-115-5-134 9-11 29-16 60-16 78 1 152 72 192 186 16 45 17 58 6 90-18 55-75 88-134 77zm67-63c27-27 25-66-6-128-30-61-85-112-119-112-31 0-32 21-6 91 11 28 17 57 15 64-11 28 46 105 78 105 10 0 27-9 38-20z"/><path d="m6578 14828c-9-7-47-62-83-123-124-206-167-264-197-265-40 0-68-42-68-102 0-65-40-128-80-128-32 0-48-27-26-44 12-9 3-29-51-121-82-139-143-263-143-289 1-37 48 26 165 223 103 172 113 185 159 208 26 13 52 21 56 16 4-4 10-40 14-80l6-72-60-42c-67-47-125-125-135-182-25-151 105-300 215-244 43 22 62 93 60 237 0 69-5 144-9 167-8 41-8 41 30 58 21 10 48 28 60 41l22 24h-27c-14 0-43-7-63-15-19-8-37-15-39-15s-4 31-4 69c0 48-5 74-15 84-12 13-12 19 5 53 22 43 25 76 9 105-8 17 3 40 74 147 46 70 94 146 106 170s35 57 52 74c22 24 26 34 18 44-14 17-30 18-51 2zm-264-539c-25-27-29-16-7 21 13 23 19 27 21 15 2-9-4-25-14-36zm40-360c10-103 7-203-9-257-14-46-19-52-43-52-15 0-38 7-51 16-58 41-80 175-40 240 23 38 106 114 124 114 8 0 15-23 19-61z"/><path d="m8417 14761c-19-21-67-93-107-160-69-114-74-121-91-105-24 21-92 29-127 15-60-25-99-116-71-167 15-28 57-54 89-54 11 0 20-4 20-9 0-24-79-173-120-227-71-93-94-159-95-271 0-78 3-96 21-120 12-15 32-29 45-31 37-4 91 37 121 93 58 107 118 319 118 419 0 19 10 41 27 58l27 28h-28c-28 0-28 0-24 58 4 46 15 77 63 162 75 135 152 258 183 292 25 28 25 58-2 58-7 0-29-17-49-39zm-227-317c12-22 12-30-5-62-25-47-34-54-65-46-40 9-62 34-55 64 17 67 98 96 125 44zm-30-348c0-48-30-166-66-261-35-90-78-155-103-155-15 0-24 44-25 116-1 52 3 65 28 94 16 19 46 71 68 115 48 99 98 146 98 91z"/><path d="m12250 14738c-66-44-137-210-155-361-6-50-4-64 19-111 28-57 67-83 105-71 20 6 19 8-9 32-62 52-74 118-45 242 21 87 89 217 126 238 31 18 35 46 8 51-8 1-30-8-49-20z"/><path d="m12755 14730c-8-13 12-40 30-40 16 0 135-125 163-171 72-118 68-297-10-484-16-38-33-83-38-99s-17-37-26-47c-33-36-5-18 41 26 52 51 89 123 116 229 55 207 26 339-105 489-79 90-151 130-171 97z"/><path d="m8753 14698c-6-7-13-58-17-113-7-115-13-145-30-145-7 0-22-22-34-49s-26-52-32-56c-13-8-13-122 1-130 5-4 21-4 33-1 28 7 58 70 80 168 6 26 8 27 96 30 50 2 90 2 90 0s-12-43-26-92c-29-101-29-145-1-145 15 0 24 18 43 95 14 52 33 122 44 155 37 114 54 205 42 217-26 26-47-11-76-144-7-32-51-48-136-48h-56l12 83c17 106 17 160 2 175s-23 15-35 0z"/><path d="m9307 14673c-57-31-87-70-94-122-4-32-1-42 26-68 16-17 55-44 84-61 61-35 97-74 97-107 0-46-77-84-172-85-46 0-58 3-58 16 0 11-8 14-27 12-32-4-40-25-19-53 13-17 26-20 103-19 142 0 222 47 223 129 0 57-27 95-102 138-82 48-112 78-103 106 17 56 136 114 157 77 5-9 17-16 27-16 30 0 33 29 6 56-32 32-84 31-148-3z"/><path d="m5698 14505c-56-94-102-157-125-173-21-13-23-12-34 14-6 16-13 58-16 94-6 93-11 110-31 110-37-1-69-51-82-129-7-40-25-120-40-178-16-57-26-111-23-119 6-17 42-19 48-1 2 6 18 62 36 122 17 61 34 114 37 119 3 6 11-5 17-24s23-43 38-53c22-17 30-18 55-8 33 14 77 58 116 116l26 40v-157c0-86 3-163 6-172s14-16 24-16 21 7 24 16c12 31 7 429-6 442-22 22-36 13-70-43z"/><path d="m7538 14526c-45-16-106-64-142-111-40-53-79-143-125-295-81-267-104-336-126-379l-22-44-6 53c-11 92-41 94-52 5-9-71-1-103 29-111 71-17 110 60 222 439 35 118 39 128 58 121 59-19 109-16 179 11 93 37 143 87 152 154 9 64-19 132-64 155-36 19-54 19-103 2zm92-58c15-16 20-35 20-73 0-45-4-55-32-83-31-30-81-55-140-73-27-7-48 4-28 16 24 15 8 27-30 23-22-2-40-2-40 0 0 12 48 93 73 122 39 46 104 90 133 90 13 0 32-10 44-22z"/><path d="m12467 14450c-45-8-62-23-53-45 4-12 12-15 24-10 9 4 47 10 85 12 85 7 87-5 16-87-55-63-59-86-19-108 50-27 224 2 235 39 10 30 3 32-58 14-31-9-77-15-103-13l-47 3 41 42c69 71 77 99 37 138-26 27-76 31-158 15z"/><path d="m6790 14400c0-20 5-21 118-18 96 2 117 6 117 18s-21 16-117 18c-113 3-118 2-118-18z"/><path d="m6819 14279c-7-4-9-14-6-23 9-22 173-23 203-2 16 12 16 15 4 20-26 8-189 13-201 5z"/><path d="m4130 13360c-11-21-20-46-20-54 0-25-91-288-126-365-41-88-42-101-10-101 21 0 31 13 65 84 22 46 54 126 72 177 43 128 48 135 49 64 0-73 18-105 60-105 25 0 43 15 107 89 43 49 79 89 80 87 2-1-2-18-7-37-25-84-50-220-52-289-3-74-3-75 22-75 24 0 25 3 31 80 8 107 30 208 81 368 33 101 31 126-9 113-11-3-71-70-134-149-106-132-114-140-116-112-5 65-25 231-29 248-9 31-42 20-64-23z"/><path d="m1873 13365c-12-8-29-39-39-68-20-59-22-201-4-432 21-276 7-463-45-613-13-37-36-79-50-94-37-36-28-61 18-53 40 8 56-8 83-80 30-79 26-290-10-465-32-163-55-341-56-432 0-116 37-173 129-198 74-20 84 9 14 43-78 37-88 60-86 187 2 59 14 173 28 251 54 309 57 339 53 468-3 109-7 133-30 182-14 31-37 65-50 75l-24 18 27 70c52 133 62 224 55 486-3 129-9 296-12 371-5 110-3 147 10 193 19 63 33 72 38 24 3-35 33-51 49-26 14 22 10 75-7 92-20 20-63 20-91 1z"/><path d="m2687 13129c-96-23-161-80-196-173-28-74-36-115-61-281-12-77-28-167-36-201-17-67-48-122-58-105-11 17-46 13-46-5 0-55 63-74 98-29 39 50 69 149 93 311 23 160 24 161 42 138 37-48 119-49 210-2 137 69 189 187 133 297-23 44-106 67-179 50zm121-63c8-7 17-29 21-48 18-79-47-167-152-207-74-27-85-27-97 4-10 27-21 30-51 15-24-13-24-10 2 70 33 109 73 153 159 181 32 11 101 2 118-15z"/><path d="m9168 13114c-18-18-5-32 39-44 67-16 159-75 194-123 92-126 73-311-53-524-27-47-47-87-44-90 12-13 56 18 84 59 115 169 155 365 102 503-28 73-101 148-182 188-58 30-127 45-140 31z"/><path d="m7493 13081c-34-21-87-108-135-221-20-48-32-102-40-174-11-96-10-108 7-147 28-62 100-98 143-71 9 6-3 17-37 35-68 37-77 80-50 242 13 81 113 285 139 285 29 0 44 35 24 54-19 19-13 20-51-3z"/><path d="m8954 13006c-3-8 6-34 20-59 14-24 26-53 26-63 0-27-48-100-104-156-54-55-62-94-20-104 76-19 264 35 272 79 5 23-14 21-92-8-99-37-173-32-112 8 13 9 42 44 65 78 52 78 55 123 11 192-29 47-56 60-66 33z"/><path d="m7685 12888c-2-7-9-54-14-105-12-114-3-156 39-173 43-18 89 2 144 60 38 41 47 46 55 33 13-24 63-20 102 9 32 24 112 68 124 68 9 0 6-28-11-102-15-65-22-78-79-138-110-117-115-224-12-276 40-21 98-13 142 21 45 33 46 71 6 163-49 113-50 105 27 145 38 20 75 43 82 52 22 26-18 30-67 6-25-12-47-20-50-17-2 2 0 21 6 43 24 86 9 153-35 153-26 0-137-52-166-78-17-14-18-13-18 16 0 45-9 62-35 62-16 0-26-9-35-29-19-47-124-154-146-149-24 4-31 77-15 159 7 31 9 64 5 73-7 19-43 22-49 4zm473-545c-2-9-18-24-37-34-31-16-37-17-63-3-16 8-34 25-39 38-15 33 5 98 43 142l32 36 33-82c19-45 33-89 31-97z"/><path d="m3070 12820c0-20 4-20 163-18 136 3 162 5 162 18s-26 15-162 18c-159 2-163 2-163-18z"/><path d="m3797 12751c-44-9-51-15-44-36 5-13 18-14 79-8 100 10 465 9 748-1 242-9 280-5 280 28 0 11-21 14-92 13-51-1-282 2-513 6-231 3-437 3-458-2z"/><path d="m3180 12700c-69-10-126-19-127-19-2-1-3-10-3-22 0-20 3-21 73-14 155 14 261 38 254 58-5 18-58 17-197-3z"/><path d="m3845 12588c-2-7-11-44-20-83-42-191-47-204-69-207-19-3-21-11-28-108-7-124-4-142 24-138 18 3 25 19 45 106 25 102 25 102 57 102 18 0 55 7 81 15 27 8 51 12 54 10 2-3-6-43-18-89-29-109-26-140 13-144 26-3 28-1 24 22-6 30 42 229 67 276 23 45 17 85-15 85-20 0-26-7-35-40-11-39-14-41-90-68-44-15-84-26-91-25-9 2-7 22 6 73 43 171 48 200 38 213-6 6-17 12-25 12-7 0-16-6-18-12z"/><path d="m4338 12567c-50-38-67-77-67-158-1-53 2-59 39-98 22-23 65-57 95-76 84-54 83-57-37-70-35-4-59-2-63 4-10 17-45 13-52-5-13-34 25-46 127-42 174 8 195 60 60 150-75 51-120 99-120 129 0 53 13 91 42 120 33 32 48 37 48 14 0-10 10-15 29-15 41 0 53 36 21 62-33 27-73 22-122-15z"/><path d="m9311 11746c-9-11-1-26 37-72 143-175 155-204 156-384 1-123-1-139-22-179-29-53-108-131-179-177-59-38-70-51-55-66 31-31 246 138 285 224 42 91 46 256 8 378-19 61-92 172-161 246-45 48-52 51-69 30z"/><path d="m2567 11633c-2-5-9-28-17-53-27-94-49-168-76-252l-28-88h-39c-34 0-38-2-35-22 2-18 9-22 31-20l27 3-26-68c-44-111-60-181-47-194 20-20 40-3 51 43 6 23 27 81 46 128l34 85 51 9c28 5 53 7 56 4 2-2-9-40-26-83-39-99-46-200-14-200 16 0 21 12 32 65 7 36 28 104 45 152 26 68 38 88 56 93 25 6 31 45 7 45-21 0-20 4 21 80 37 67 40 100 10 100-16 0-83-111-95-158-6-22-16-29-59-41-29-8-55-11-59-8-3 4 4 32 15 64 12 32 26 76 31 98 6 22 21 77 34 122 17 58 21 85 14 92-13 13-34 14-40 4z"/><path d="m3905 11544c-25-53-45-99-45-102s-20-40-45-83-45-85-45-94c0-21 27-30 45-15 16 13 16 13 104 185 49 96 61 113 61 89 0-17 10-46 23-65 31-46 65-49 124-10 26 17 48 29 50 28 2-2-13-48-32-103-41-118-45-157-14-152 17 2 31 33 85 193 35 105 61 198 58 208-10 31-39 18-75-35-33-49-110-116-136-117-12-1-33 58-33 92 0 36-29 77-56 77-22 0-30-12-69-96z"/><path d="m7644 11521c-44-27-88-84-128-166-42-84-58-154-60-257-1-63 3-81 20-105 25-34 83-58 119-49 28 7 34 26 9 26-27 0-82 39-90 63-17 52 3 194 37 274 30 71 90 154 126 175s45 58 16 58c-10 0-32-9-49-19z"/><path d="m5539 11493c-24-68-39-110-47-143-6-19-35-116-66-216-31-99-56-190-56-202 0-35 34-27 61 15 31 47 106 110 142 118 27 7 27 7 27-43 0-34 6-57 19-73 18-22 26-24 118-24 75 0 106 4 131 18 57 31 39 37-87 30l-118-6-7 66c-4 37-14 71-22 78-21 17-91 3-137-27l-39-25 7 23c4 13 25 79 46 148 92 295 91 290 59 290-13 0-24-10-31-27z"/><path d="m9173 11407c-44-24-182-152-182-169-2-34 44-20 95 27 26 25 49 44 50 42 2-2-17-51-41-110-25-58-45-111-45-116 0-9-44-18-120-23-23-2-35-8-35-18 0-11 15-16 60-18 63-4 124 6 240 40 79 22 106 41 87 60-8 8-29 6-87-11-42-13-78-21-80-19-6 5 44 127 84 205 34 69 39 108 15 117-19 7-14 8-41-7z"/><path d="m4992 11372c-7-5-15-24-17-43-3-19-10-73-16-121l-11-88h-78c-97 0-140 8-140 27 0 10-9 13-27 11-21-2-29-9-31-27-6-42 20-51 146-51h114l-8-27c-4-16-8-44-8-63-1-28 3-35 18-35 16 0 24 14 38 62l18 62 93 3c74 2 92 6 92 18s-18 16-86 18l-86 3 7 42c13 69 16 210 5 213-5 2-16 0-23-4z"/><path d="m7826 11344c-10-27-7-221 5-251 13-34 26-43 63-43 28 0 67 32 114 95l23 30-2-40c-3-65 0-72 29-84 53-22 126 28 186 128 40 65 70 96 85 86 19-11 12-67-12-99-37-49-37-59-1-116l34-54-32-25c-56-43-99-94-124-146-62-131 12-220 123-148 64 41 85 89 91 204 4 81 8 99 22 104 9 3 29 19 45 35l29 30h-30c-16-1-40-7-54-15-24-13-26-12-53 31l-28 45 26 30c25 30 29 47 25 104-3 43-17 64-46 71-45 11-85-17-128-90-37-63-105-136-126-136-15 0-12 54 7 124 18 69 14 96-15 96-19 0-46-32-136-157-58-81-66-74-66 61 0 127-4 146-30 146-10 0-21-7-24-16zm529-489c-7-72-32-115-82-147l-33-20-10 28c-9 22-7 38 6 74 19 48 116 160 122 140 2-6 1-40-3-75z"/><path d="m2954 11289c-3-6-2-15 2-19 11-11 431-16 441-6 5 4-1 14-11 22-25 18-421 21-432 3z"/><path d="m3845 11194c-11-3-47-9-80-15-87-16-95-19-95-35 0-24 25-26 109-9 61 12 168 18 438 23 309 6 358 9 358 22s-47 15-355 16c-195 1-364 0-375-2z"/><path d="m3135 11160c-125-9-145-14-145-41 0-18 6-19 83-14 105 8 243 24 263 32 8 3 13 11 11 17-4 14-69 16-212 6z"/><path d="m4249 11070c-46-37-85-124-71-155 11-24 67-44 149-52 63-7 93-35 93-89 0-48-42-74-136-85-42-4-88-6-103-3-29 6-58-16-46-36 8-13 164-13 220 1 24 6 61 26 81 43 34 30 37 36 36 81-4 87-53 135-142 135-35 0-100 19-100 29 0 5 7 25 15 45 19 44 70 79 96 65 41-21 73 5 43 36-27 26-94 19-135-15z"/><path d="m3824 11064c-48-24-85-130-99-284-4-41-10-88-15-105-4-16-11-42-14-57-4-16-13-28-21-28-31 0-45 70-26 136 10 37 0 60-23 51-24-9-36-50-36-118 0-54 3-64 29-90 34-33 79-39 103-11 20 22 44 111 52 188 8 91 11 94 67 94 57 0 126 25 139 51 16 29 12 91-9 129-30 58-86 75-147 44zm100-68c33-70 15-97-70-106-60-7-59-8-43 60 13 55 34 80 69 80 22 0 31-8 44-34z"/><path d="m3940 10687c-25-5-52-9-60-9-32-1-40-20-40-94 0-90 10-117 49-133 60-25 139 20 177 103 29 61 29 77 7 105-23 28-76 39-133 28zm74-43c39-15 0-111-56-140-47-25-58-14-58 60 0 65 0 65 33 75 40 11 61 13 81 5z"/><path d="m3408 9902c-131-218-187-297-201-283-5 5-14 70-21 145s-17 141-24 148c-19 19-56-5-80-50-25-48-117-330-126-388-6-34-4-43 10-48 37-14 66 49 129 277 23 82 45 73 45-19 0-56 22-110 48-118 47-15 95 27 160 141 20 35 38 59 40 54 2-6-6-43-17-83-16-61-27-163-22-215 4-45 51 26 51 78 0 17 18 104 40 192s38 169 34 179c-8 28-46 22-66-10z"/><path d="m1319 9364c-54-16-106-68-142-141-27-54-76-202-102-308-19-76-73-205-86-205-15 0-22 23-21 67 0 39-2 44-20 41-71-10-27-158 46-158 46 0 94 94 141 275 15 55 29 102 31 105 3 3 24 6 47 6 55 2 159 45 205 85 125 109 122 250-5 248-26 0-69-7-94-15zm137-60c8-31-12-71-60-122-35-38-60-53-129-76-43-14-50-15-63-1-14 13-13 21 11 72 51 113 100 152 187 153 43 0 48-2 54-26z"/><path d="m5797 9333c-15-14-5-33 26-50 53-29 237-23 430 13 15 3 27 12 27 21 0 13-13 15-92 9-291-19-297-19-322-2-26 17-58 21-69 9z"/><path d="m4169 9315c-5-4-633-21-1299-34-253-5-295-8-295-21s59-15 480-13c264 1 635 7 825 12 190 6 551 14 803 17 413 6 458 9 455 23s-52 16-484 19c-264 1-483 0-485-3z"/><path d="m1635 9290c-16-25 14-30 191-30s184 1 184 20-7 20-184 20c-113 0-187-4-191-10z"/><path d="m1675 9129c-16-24 18-29 186-27 147 3 174 5 174 18s-28 15-177 18c-121 2-179-1-183-9z"/><path d="m5858 9099c-6-4-8-14-5-23 6-14 32-16 205-16 155 0 202 3 217 14 19 13 18 15-15 20-50 9-390 12-402 5z"/><path d="m2675 9012c-14-10-98-182-130-267-48-128-49-133-35-150 25-31 42-10 84 105 58 161 66 174 99 178 18 2 27-1 27-11 0-28 48-67 81-67 27 0 43 11 91 63 64 68 72 63 42-29-18-56-36-198-27-220 7-19 39-18 47 2 3 9 6 35 6 59 0 23 14 97 31 164 33 132 34 158 6 175-16 9-30-2-104-78-65-67-90-86-101-80-8 5-26 39-41 74-37 93-47 103-76 82z"/><path d="m4754 8926c-71-31-144-122-144-180 0-30 48-72 98-85 203-55 217-62 228-118 5-26 2-31-23-41-26-11-162-16-258-10-30 2-40-1-40-12 0-45 265-55 336-14 32 19 34 24 34 72-1 85-43 113-240 162-94 23-102 63-29 136 65 66 144 71 144 9 0-32 25-51 45-35 35 29 12 94-40 116-42 17-71 17-111 0z"/><path d="m4127 8913c-2-4-8-46-12-93-3-47-18-143-32-215-32-160-34-198-11-203 11-2 26 11 43 38 28 44 97 111 126 122 17 7 18 4 13-20-4-15-11-35-15-44-17-32-10-67 17-85 22-14 34-15 78-6 68 15 171 64 171 83 0 21-44 15-117-16-47-20-108-32-108-21 0 1 7 20 15 42 20 55 19 114-1 122-23 9-89-14-124-44-17-14-33-23-37-20-3 3 0 28 6 54 16 70 35 211 35 263 1 39-2 45-21 48-11 2-23 0-26-5z"/><path d="m3522 8763c-5-10-15-50-22-90l-13-72-56-3c-42-2-56-7-56-18s14-16 52-18l53-3-7-74c-5-65-4-75 12-81 23-9 32 8 40 76 4 31 10 62 14 68 4 7 47 17 96 23 91 10 128 25 103 40-17 11-113 11-161 0-33-8-37-7-33 7 2 10 8 37 11 62 4 25 12 51 17 57 15 18 2 43-21 43-11 0-24-8-29-17z"/><path d="m2980 8530c-196-21-357-31-418-25-37 3-91 8-120 11-51 5-53 5-50-17 2-18 12-25 43-32 54-12 406-1 585 18 135 15 174 25 157 42-11 10-113 12-197 3z"/><path d="m2724 8378c-54-37-85-77-110-146-10-26-22-53-28-61s-12-26-12-40c-2-40-22-162-32-196l-9-30-12 38c-9 26-18 37-32 37-36 0-18-77 26-106 52-34 84 19 100 167l6 57 58 6c116 13 211 108 211 211 0 71-19 95-74 95-33 0-56-8-92-32zm110-24c30-79-68-204-161-204h-33l22 58c29 78 45 101 97 134 51 32 66 35 75 12z"/><path d="m2720 7846c-19-7-44-27-56-44-18-26-20-41-16-109 3-64 8-82 27-102 33-34 108-40 152-12 55 34 96 147 79 215-12 48-118 78-186 52zm128-59c26-21-16-156-53-171-29-11-72-6-85 9-12 15-12 26 6 137 6 35 8 37 48 40 45 3 64 0 84-15z"/><path d="m3220 6880c-22-38-64-93-93-121-61-60-145-129-158-129-5 0-9 62-9 138 0 162-9 188-57 162-30-16-95-133-113-205-18-68-50-167-76-233-29-73-29-107 1-107 15 0 25 15 45 66 14 37 50 124 80 195l55 129 3-65c3-92 8-107 39-117 45-16 83 2 177 83 49 42 86 68 82 58-52-129-80-264-57-278 19-12 38 11 45 56 4 22 22 86 40 142 62 190 86 267 86 282 0 8-10 14-25 14-19 0-32-13-65-70z"/><path d="m3838 6867c-79-26-124-70-170-165-33-69-48-92-70-100-33-12-37-32-7-39 11-3 18-11 16-17s-17-55-32-108c-29-98-29-98-62-98-30 0-33 3-33 29 0 37-24 59-45 41-8-7-15-25-15-41v-28l-442-3c-344-2-448-6-466-16-32-19-22-37 19-35 19 2 225 6 460 9l425 7 12-40c12-40 42-63 82-63 18 0 70 66 70 88 0 5 91 14 203 21 111 7 292 19 402 27s286 19 390 24c105 6 264 15 355 20s260 10 375 10c249 0 285 4 285 33 0 20-3 20-307 14-338-7-454-13-1315-68-191-13-350-20-354-17-5 6 48 204 58 213 2 2 37 13 78 24 109 29 186 67 216 107 23 29 26 41 21 80-9 80-69 117-149 91zm80-50c6-6 13-24 17-40 10-40-15-71-81-101-58-27-164-58-164-49 0 20 77 145 98 159 70 46 110 55 130 31zm-400-542c-13-30-32-28-36 3-3 18 2 22 22 22 24 0 25-2 14-25z"/><path d="m4001 6610c-34-16-42-24-38-40 3-10-2-25-10-31-8-7-21-26-29-42-14-25-14-31 0-52 21-32 74-46 127-34 95 22 229 109 229 149 0 62-181 94-279 50zm169-31c27-6 50-15 50-19 0-20-118-86-187-105-29-8-63 2-63 19 0 7 11 23 25 36s24 31 23 39c-2 10 10 20 32 28 44 15 58 15 120 2z"/><path d="m1760 6510c-25-5-64-9-88-9-39-1-43-3-40-22 5-33 33-47 60-30 14 9 64 15 147 17 123 4 126 5 126 27 0 21-4 22-80 23-44 1-100-2-125-6z"/><path d="m5953 6465c-14-37 21-45 203-45 169 0 229 9 222 32-3 8-59 12-184 13-98 1-191 5-206 9-22 6-29 4-35-9z"/><path d="m1838 6343c-160-3-168-4-168-23s7-20 165-20c124 0 175 4 201 15 40 16 37 36-4 33-15-1-102-4-194-5z"/><path d="m6038 6259c-6-4-8-14-5-23 6-14 30-16 180-16 175 0 237 5 237 21 0 4-19 10-42 13-65 8-358 12-370 5z"/><path d="m4525 6088c-2-7-6-76-8-153-4-110-11-167-35-265-41-171-43-200-14-200 11 0 41 29 73 69l54 70 6-62c7-72 26-92 95-103 55-8 116 8 144 39 25 26 14 32-37 18-52-15-118-14-131 2-5 6-12 45-14 84-2 40-9 78-15 84-14 14-46 4-83-28-17-13-30-23-30-21 0 1 9 48 20 103 26 131 38 338 20 360-15 18-39 20-45 3z"/><path d="m5183 6024c-72-26-133-113-133-192 0-57 54-110 206-203 67-40 106-97 88-127-19-31-67-46-160-50-101-5-130 4-140 43-7 29-16 31-38 9-21-20-20-26 4-57 30-38 80-51 176-44 106 8 156 23 190 58 53 56 18 142-84 205-129 81-165 109-178 140-24 58 17 143 82 170 50 21 73 18 84-11 11-30 46-33 55-5s-10 56-46 69c-40 14-54 13-106-5z"/><path d="m2921 5902c-11-9-50-77-87-150-69-134-116-203-129-190-4 4-16 76-25 159-20 167-30 191-73 172-18-8-33-36-61-110-42-111-125-421-119-440 3-7 13-13 24-13 24 0 48 53 114 252 27 81 50 146 52 145 1-2 9-43 18-92 17-97 34-125 75-125 36 0 82 51 140 157 24 45 46 81 48 79s-3-42-10-87c-7-46-13-122-13-169 0-78 2-85 20-85 17 0 20 8 23 45 1 25 14 122 27 216 14 93 25 186 25 206 0 42-20 55-49 30zm-301-107c0-8-4-15-10-15-5 0-7 7-4 15 4 8 8 15 10 15s4-7 4-15z"/><path d="m3823 5905c-44-19-97-103-123-195-12-41-25-84-30-95-4-11-8-31-9-45-2-49-42-246-62-309-25-73-56-131-71-131-6 0-7 25-3 70 7 66 6 70-14 70-25 0-44-59-39-123 2-33 8-44 31-57 24-13 30-13 54 0 53 30 105 160 138 345 9 50 18 97 21 105 2 10 30 22 76 33 117 27 183 87 195 177 8 56-21 126-61 151-36 22-59 23-103 4zm81-50c9-9 20-34 26-56 10-35 8-47-10-84-12-24-36-53-53-64-32-20-124-47-132-39-2 2 2 32 10 66 33 141 110 226 159 177z"/><path d="m3246 5784c-3-9-6-45-6-80v-64h-85c-78 0-85-2-85-20s7-20 81-20h82l-5-70c-3-38-3-81-1-95l5-25 20 25c15 20 36 106 38 157 0 4 24 10 53 13 65 8 82 18 73 40-5 14-15 15-61 10l-55-7v60c0 73-6 92-30 92-10 0-21-7-24-16z"/><path d="m3963 5549c-72-36-116-104-80-126 9-5 13-27 13-63-1-50 1-56 26-68 64-30 164 40 204 143 21 56 13 90-29 115-41 26-81 25-134-1zm111-45c14-14 14-19 0-52-21-51-66-105-97-116-35-13-41-4-30 41 11 44 7 63-13 63-22 0-5 24 36 55 39 28 81 32 104 9z"/><path d="m5795 4693c-60-12-105-36-110-56-7-37-15-108-21-202-5-76-4-93 10-104 25-21 46 3 46 53 0 23 5 57 11 76 5 19 10 65 11 102l1 66 41 11c22 5 56 12 74 14 29 3 32 1 32-24 0-54 39-48 57 8 17 56 10 63-66 62-36-1-75-3-86-6z"/><path d="m6205 4522c-33-26-105-84-160-128-118-95-195-152-287-214-96-64-249-202-246-220 7-32 37-17 133 66 55 47 136 110 180 139s143 104 220 165 166 132 198 158c56 44 69 73 37 80-8 1-42-19-75-46z"/><path d="m6730 4400c0-16 7-20 35-20 24 0 35-5 35-14 0-8-16-27-35-42-49-37-48-70 3-84 82-23 81-39-9-68-42-13-55-22-57-39-4-29 7-29 85-3 117 40 139 98 49 135l-38 16 26 28c28 29 35 78 14 99-7 7-34 12-60 12-41 0-48-3-48-20z"/><path d="m3624 4363c-99-23-104-31-104-177 0-98 3-126 15-136 23-19 45 5 45 48 0 20 7 65 16 101 16 61 16 65-2 78-11 8-14 16-8 21 10 10 99 29 161 36 40 4 43 2 38-17-7-29 8-50 31-45 19 3 39 69 30 95-7 18-141 15-222-4z"/><path d="m5088 4304c-67-45-98-72-98-85 0-25 24-24 66 2 19 11 34 18 34 15 0-4-18-32-39-64-66-95-76-147-29-140 14 2 24 13 29 31 6 23 70 125 161 260 20 30 17 47-10 47-9 0-61-30-114-66z"/><path d="m2535 4326c-21-15-26-79-8-97 19-19 43-2 43 31 0 29 1 30 46 30 50 0 84-14 84-34 0-12-42-45-150-118-70-47-104-83-97-102 5-13 29-16 146-16 155 0 221 15 221 51 0 23 4 23-67 4-31-8-96-15-143-15h-85l48 33c148 98 172 121 175 159 2 27-2 41-18 56-35 32-160 44-195 18z"/><path d="m2954 4236c-17-8-38-23-45-33-8-11-22-22-31-26-19-7-48-93-48-142 0-89 116-121 256-71 96 35 154 98 156 168 3 81-185 149-288 104zm186-58c58-29 63-58 20-110-37-44-119-78-191-78-76 0-92 12-84 63 4 23 13 57 21 75 12 30 17 33 44 27 30-7 42 7 19 21-20 12 14 24 71 24 38 0 70-7 100-22z"/><path d="m4390 4155c-9-24 1-75 15-75 3 0 19 7 35 15 23 12 30 23 30 44 0 47-64 59-80 16z"/><path d="m6416 4161c-19-21-45-85-46-112 0-18-72-89-110-109-22-12-23-12-16 35 7 46 7 46-20 43-56-6-53-114 3-135 20-8 92 30 128 67 24 25 31 27 51 18 31-14 92 3 134 38l30 26v-55c0-48 3-57 21-62 28-9 33-2 34 53 1 26 7 80 14 121 13 74 8 97-20 86-8-3-25-24-37-48-34-62-136-136-158-115-2 3 7 30 22 61 27 61 29 100 3 105-8 1-23-6-33-17z"/><path d="m5989 4140c-77-41-166-168-150-214 18-46 55-60 172-64 104-4 112-3 135 19 33 31 30 43-8 34-45-11-206-7-229 6-29 15-23 42 22 99 40 51 91 90 118 90 19 0 7-53-20-91-22-32-20-59 6-59 43 0 100 168 64 191-23 14-71 9-110-11z"/><path d="m1577 4123c-19-18-5-43 29-52 55-15 294 17 294 40 0 20-37 22-152 10-88-10-123-10-131-2-12 12-30 14-40 4z"/><path d="m1820 3990c-36-4-102-8-148-9-74-1-83-3-80-18s16-19 83-21c161-7 289 18 245 48-8 5-19 9-25 8-5 0-39-4-75-8z"/><path d="m10214 3876c-4-10-3-21 2-25 30-26 369-44 404-21 26 17-8 30-80 31-68 0-205 13-277 25-35 5-44 4-49-10z"/><path d="m9460 3849c-63-5-257-13-430-19s-403-14-510-19c-206-9-580-1-890 19-103 6-283 9-405 6-121-3-490-10-820-15s-728-14-885-20c-652-26-1058-34-2045-40-915-5-1040-8-1040-21s108-15 900-18c768-2 1280 4 2005 24 80 2 262 9 405 15 242 10 1118 28 1565 32 107 1 269-4 360-11 261-21 607-25 980-12 491 16 838 30 965 38 101 6 110 9 110 27s-7 20-75 21c-41 1-127-3-190-7z"/><path d="m10301 3697c-7-7-7-15 0-24 16-19 321-18 364 1 21 10 26 15 15 19-30 11-369 14-379 4z"/><path d="m5322 3340c-38-24-51-52-63-140-5-36-11-85-15-110-5-35-2-49 10-59 26-22 38-8 67 79 33 99 35 116 14 128-28 15-2 59 42 71 53 15 55 15 84-20 30-36 49-32 49 11 0 41-32 60-100 60-37 0-65-6-88-20z"/><path d="m9285 3250c-13-21 8-30 66-30 50 0 64-4 84-25 14-13 25-31 25-40 0-8-27-36-61-62-33-26-67-60-75-75-13-25-12-29 10-55l24-27 97 12c95 12 175 38 189 61 9 15-12 14-114-4-47-8-103-15-124-15h-40l30 31c16 17 43 39 60 49 71 45 71 140-1 175-37 17-160 21-170 5z"/><path d="m6535 3188c-40-10-40-10-78-122-21-61-41-124-44-140-6-28-5-29 28-22 102 21 115 20 137-9 32-40 29-87-7-117-15-14-43-31-61-38-30-12-34-12-50 10-20 27-50 22-50-9 0-22 44-61 69-61 31 0 137 57 154 83 10 16 17 46 17 75 0 46-6 59-48 112-2 3-30 7-62 10l-57 5 27 84c15 46 33 87 40 91s60 11 119 15c131 8 146 12 130 31-14 17-199 18-264 2z"/><path d="m2505 3162c-38-13-50-22-50-37 0-26 64-35 77-11 7 12 25 16 73 16 63 0 64 0 70-30 5-24 1-38-19-64-24-32-165-136-184-136s-62-42-62-61 7-19 198-17c167 3 197 5 197 18 0 12-25 16-143 20l-142 5 66 45c37 25 84 65 106 90 37 42 40 48 35 94-6 68-30 86-111 86-33-1-83-9-111-18z"/><path d="m4944 3148c-12-13-30-39-42-59-31-52-187-189-215-189-17 0-26-18-20-37 10-28 58-12 117 37 33 27 62 47 64 45 3-2-3-28-13-57-20-63-36-164-28-184 3-8 16-14 29-14 22 0 24 4 24 42 0 42 48 227 77 296 8 20 29 52 45 70 16 19 28 41 26 50-5 26-41 26-64 0z"/><path d="m2951 3117c-78-25-120-95-122-209-2-62 10-85 57-117s108-31 179 3c62 31 95 73 115 146 16 59 6 100-33 138-51 49-120 63-196 39zm150-63c30-27 37-52 27-98-12-55-52-104-102-127-56-25-79-24-116 8-31 26-32 29-28 88 7 76 27 117 70 139 42 21 120 16 149-10z"/><path d="m3426 3079c-27-10-53-24-58-31-20-30 23-252 51-263 8-3 21 0 28 8 11 11 12 22 2 59-9 32-9 59-2 94 11 58 8 74-15 75-22 1 77 37 104 38 11 1 29-8 39-19s24-20 32-20c25 0 26 30 3 56-20 20-32 24-79 23-31 0-78-9-105-20z"/><path d="m4186 3085c-3-9-6-46-6-81v-64h-116c-105 0-115-2-112-17 3-16 18-18 115-21l112-3 7-37c14-82 20-97 40-97 17 0 19 6 16 67l-2 67 72 3c60 2 73 6 76 21s-6 17-72 17h-75l-3 78c-3 70-5 77-24 80-13 2-24-4-28-13z"/><path d="m7035 3081c-76-46-134-151-142-255-7-93 5-122 56-137 48-14 80-7 121 27 27 23 34 25 56 15 14-6 36-11 50-11 39 0 146 48 179 80 29 29 33 29 98 23 62-5 68-8 73-32 15-64 104-118 153-92 31 17 26 28-15 34-86 14-111 94-54 166 38 47 43 87 13 108-20 14-24 13-47-10-13-13-30-44-37-68s-18-47-24-51c-13-10-88-10-83 0 44 84 49 145 13 150-33 5-67-40-72-95-4-36-13-57-37-82-38-40-119-81-164-81-32 0-32 1-30 43 3 39 1 42-21 42-19 0-27-7-33-31-10-39-70-94-103-94-77 0-46 184 48 284 47 49 69 48 61-3-4-25-2-41 6-46 19-12 41 19 47 65 5 35 2 46-12 57-26 18-64 16-100-6z"/><path d="m8306 3084c-9-8-21-25-28-37-6-12-38-59-70-104-62-85-70-119-30-117 21 1 21-2 16-52-9-72 1-106 28-102 18 3 21 11 23 63 3 74 26 155 72 257 33 72 38 108 14 108-5 0-17-7-25-16z"/><path d="m8750 3073c-77-30-148-154-157-275-5-72-4-78 19-101 37-36 98-44 148-18 32 17 44 18 70 10 43-16 95-3 135 33 19 16 35 25 35 19 0-18 69-43 98-36 14 3 44 20 68 36 36 25 46 28 62 18 11-7 27-9 36-6 17 7 22 37 6 37-17 0-11 37 15 86 30 57 31 80 5 94-28 15-66-24-76-76-9-52-29-79-80-115-48-33-66-36-84-14-10 13-10 25 4 66 23 74 21 99-7 99-26 0-38-20-56-88-14-52-79-112-121-112-34 0-37 10-14 45 8 13 14 38 12 57-2 27-8 34-29 36-28 3-49-28-49-74 0-35-53-84-90-84-47 0-63 25-56 84 10 79 37 145 78 190l37 41-5-46c-7-51 8-72 33-47 21 21 30 127 12 139-16 10-27 10-49 2z"/><path d="m6062 2928c-6-7-13-25-17-39-8-33 13-51 57-47 25 2 35 9 42 31 7 19 7 34 0 45-14 21-67 28-82 10z"/><path d="m5150 2900c0-20 5-20 252-18 232 3 253 4 256 21 3 16-14 17-252 17-250 0-256 0-256-20z"/><path d="m7850 2845c-10-12-10-18 0-30 20-25 55-15 55 15s-35 40-55 15z"/><path d="m5655 2730c-29-11-48-37-41-55 7-19 30-19 46 0 15 18 60 20 60 2 0-7-13-27-30-45-16-18-27-38-24-46 3-7 23-21 45-29 48-19 44-29-16-56-43-19-57-42-34-57 12-7 79 20 122 49 36 25 34 50-8 84-32 27-34 31-20 49 18 23 20 85 3 102-14 14-73 15-103 2z"/><path d="m5013 2501c-17-11-43-39-57-63-28-49-66-158-66-193 0-39 36-73 85-81 58-8 94 7 144 61 38 41 40 42 56 25 33-37 114-29 155 15 20 21 24 22 50 8 25-12 33-12 64 1 20 8 36 19 36 23 1 4 11 21 24 37l24 29-5-44c-6-53 15-91 40-71 10 9 16 39 19 100 3 48 8 94 12 102 9 21-16 53-35 45-9-3-28-27-42-53-30-54-94-132-109-132-6 0-8 24-3 69 7 74 0 90-35 71-12-6-20-21-20-36 0-56-47-123-98-139-31-9-52 10-52 49 0 33-15 56-36 56-6 0-24-25-40-56-36-72-84-114-129-114-51 0-59 24-36 98 33 102 72 162 106 162 20 0 20-49-1-78-19-27-12-52 14-52 45 0 76 137 37 166-26 19-64 17-102-5z"/><path d="m4313 1278c-22-35-65-119-96-188-30-69-81-181-112-249-67-146-139-361-126-374 22-22 42 7 72 105 18 56 54 152 82 213 27 60 64 144 82 185 70 160 115 252 145 296 32 45 34 74 6 74-8 0-32-28-53-62z"/><path d="m5603 1334c-7-3-13-15-13-26 0-18 4-20 31-14 39 8 59-7 59-44 0-21-12-38-47-67-52-45-51-63 5-63 41 0 82-23 82-45 0-11-20-15-87-17-70-2-88-6-88-18s16-16 75-18c99-4 137 4 145 29 10 32-13 76-50 93l-34 16 26 28c21 23 24 34 20 71-3 23-11 50-20 58-15 15-83 26-104 17z"/><path d="m2445 1101c-50-31-81-72-113-151-68-166-48-249 58-250 40 0 54 6 105 48 80 64 120 141 120 232 0 49-5 72-20 92-38 50-97 62-150 29zm100-46c55-54 19-183-75-268-55-50-96-61-120-32-30 36 15 187 71 241 16 15 29 34 29 42 0 18 29 41 53 42 10 0 29-11 42-25z"/><path d="m3030 1091c-43-14-69-34-81-62-15-37-4-64 37-95l34-26-45-40c-81-72-101-141-53-184 40-37 195-1 251 59 41 45 37 81-17 132l-44 41 42 27c54 34 81 63 67 72-6 3-11 17-11 29 0 13-7 29-15 36-18 15-130 23-165 11zm115-41c17-7 25-16 23-28-3-16-90-82-109-82-5 0-23 13-41 28-37 34-33 56 14 77 39 17 77 19 113 5zm-30-201c19-17 35-39 35-48 0-35-74-79-149-88-54-6-67 3-57 42 7 26 103 125 123 125 7 0 28-14 48-31z"/><path d="m3804 1083c-39-12-54-22-66-46-27-54-37-99-40-182-3-69-1-80 14-83 21-4 38 32 62 131 31 127 72 164 172 155 33-3 39 0 39 17 0 18-7 20-65 22-36 0-88-6-116-14z"/><path d="m5270 988c-11-24-20-48-20-55 0-23-63-84-109-107-66-34-90-39-106-26-12 10-11 16 5 38 29 41 36 80 15 88-20 8-37-8-68-65-27-53-90-91-148-91-37 0-38 1-33 28 4 19 1 32-10 41-23 20-46 6-46-27 0-57-82-142-137-142-13 0-36 12-50 26-22 22-25 31-20 69 9 66 55 172 82 189 33 22 35 21 35-21 0-23-9-48-25-69-27-35-31-49-16-58 35-22 91 67 91 143 0 47-2 52-27 62-33 12-70-1-106-39-36-37-79-155-81-220-1-50 2-56 36-88 29-26 47-34 75-34 48 0 118 35 145 71 20 26 27 29 82 29 44 1 74 8 105 24 40 21 46 22 73 8 36-18 78-10 151 26l54 27 1-43c0-49 12-68 38-58 12 5 15 14 10 37-8 41 12 118 40 151 27 33 48 93 40 113-3 8-17 15-31 15-21 0-30-8-45-42z"/><path d="m1635 935c-55-6-104-11-110-9-5 1-33 5-61 8-57 7-77-10-48-39 28-27 284-13 360 21 38 16 38 17 14 24-31 10-34 10-155-5z"/><path d="m1583 823c-125-3-133-5-133-23 0-19 7-20 140-20 147 0 231 12 251 36 10 12 1 14-57 12-38-1-129-4-201-5z"/><path d="m2595 678c-49-57-107-157-103-177 6-32 32-15 70 48 21 36 55 82 74 104 19 21 33 44 31 50-8 26-36 16-72-25z"/></g><g fill="#44b" transform="matrix(.08161748 0 0 -.08161748 1292.59014451453 2312.02868985665)"><path d="m750 2973c-57-10-88-25-119-57-40-41-55-100-46-179 6-45 12-61 32-77 32-25 35-25 64-1 22 17 24 26 21 89-4 105 24 120 164 87 33-7 119-19 190-25 88-8 134-16 144-26 32-32 8-420-28-456-18-18-126-28-289-28-185 0-206-4-250-52-55-58-58-82-55-363 1-145 7-274 13-293 11-34 51-62 89-62 12 0 35 14 52 31l31 30-6 238c-3 130-3 249 0 264l5 27h112c234 1 363 26 423 82 58 54 98 260 91 463-4 122-7 138-34 191-40 81-79 100-217 108-174 10-361 14-387 9z"/><path d="m3660 2971c-42-9-83-34-103-65-39-59-50-127-54-343-5-206-5-212 18-252 28-50 78-86 143-102 48-12 257-8 370 7l49 7-7-104c-4-57-11-189-16-294-9-177-9-192 8-214 35-47 100-46 136 2 22 29 27 86 42 452 7 191 0 235-44 283-45 48-92 56-241 38-146-18-229-20-265-6l-26 10v162c0 156 8 230 27 249 5 5 99 6 210 2l201-6 5-50c3-39 11-56 31-74 34-29 48-29 80 0 24 20 26 30 28 113 4 147-23 169-218 179-242 11-340 13-374 6z"/><path d="m1565 2945c-14-13-25-32-25-42s-1-297-3-638c-2-677-3-662 55-694 33-19 73-7 101 31 18 24 20 51 29 300 5 150 10 278 12 283 2 6 37 8 97 3 52-3 135-7 186-7 154-2 161-10 143-176-21-189-27-310-18-343 12-45 45-72 86-72 71 0 102 46 102 151 0 33 7 118 16 187 24 190 9 280-58 349-50 52-112 67-263 65-71-1-164-6-205-11-41-4-78-7-81-5-4 2-10 108-13 236-9 286-17 352-47 384-31 33-82 32-114-1z"/><path d="m2542 2944c-55-38-64-109-53-419 6-186 9-215 28-250 50-95 116-125 302-135 75-4 171-5 215-1l78 7-4-178c-2-97-7-181-11-184-4-4-42 1-85 11-104 26-285 27-363 3-106-33-149-107-99-170 26-34 68-41 132-21 74 23 202 20 308-7 182-47 274 5 301 168 12 77 27 831 19 994-7 152-20 181-86 186-88 7-103-51-104-401v-219l-201 4c-197 3-201 3-220 27-18 21-19 42-19 283v260l-29 29c-33 33-74 38-109 13z"/><path d="m2374 1391c-55-34-79-78-79-147 0-51 4-66 27-96 35-45 102-73 153-64 78 15 146 111 131 188-20 108-145 172-232 119z"/><path d="m1853 999c-39-11-66-56-61-101 6-59 69-64 76-6 4 30 34 38 145 38h67v-110c0-135-1-136-132-126-85 6-89 6-113-18-24-25-25-28-25-179 0-162 4-177 47-177 35 0 43 29 43 159v121h73c85 0 141 14 168 41 17 17 19 34 19 169 0 147-1 152-25 175-23 24-30 25-137 24-62 0-128-5-145-10z"/><path d="m2985 1000c-91-16-93-18-104-58-15-51-14-537 0-564 19-36 69-48 204-48 121 0 127 1 151 25l24 24-2 292-3 292-26 19c-31 23-161 33-244 18zm169-86c14-5 16-37 16-250v-245l-102 3-103 3v240 240l40 6c57 9 131 10 149 3z"/><path d="m2351 971c-24-24-29-73-37-372-6-232-6-237 15-258 23-23 29-25 51-11 12 7 16 40 20 150l5 141 35-23c19-13 59-55 88-93 30-39 78-96 108-128 47-51 56-57 74-47 29 16 25 42-15 92-19 24-62 78-95 121-61 77-61 77-33 77 15 0 46 9 69 19 56 26 67 57 62 179-6 156-27 172-220 172-93 0-111-3-127-19zm257-74c16-13 17-168 0-185-7-7-41-12-84-12-40 0-84-4-98-10l-26-10v120 119l98-6c53-3 103-10 110-16z"/></g></svg>