<svg xmlns="http://www.w3.org/2000/svg" version="1.0" width="1286.049777pt" height="2361.306867400616pt" viewBox="0 0 1286.049777 2361.306867400616" preserveAspectRatio="xMidYMid meet">
<metadata>
Created by potrace 1.16, written by Peter Selinger 2001-2019
</metadata>
<g transform="translate(-96.500000,2338.944402) scale(0.100000,-0.100000)" fill="#000000" stroke="none">
<path d="M1292 23373 c-5 -10 -19 -57 -32 -104 l-22 -87 -99 -38 c-96 -38 -137 -59 -128 -68 2 -2 50 13 107 34 107 39 111 38 92 -17 -9 -25 -23 -35 -83 -59 -40 -16 -83 -31 -97 -34 -14 -3 -26 -13 -28 -23 -5 -26 26 -32 51 -10 12 11 48 30 80 42 57 21 58 21 52 2 -26 -82 -45 -166 -41 -178 10 -24 51 -11 54 17 1 14 15 64 29 112 19 64 31 89 45 94 11 3 21 4 23 2 2 -2 -12 -48 -31 -103 -34 -99 -34 -120 2 -113 13 2 29 35 59 123 l42 120 127 26 c128 25 164 47 71 41 -27 -2 -79 -10 -114 -18 -35 -8 -66 -13 -68 -11 -1 2 3 21 10 43 16 44 43 58 140 70 54 6 73 19 44 30 -8 3 -45 -2 -83 -10 -38 -7 -70 -13 -72 -11 -1 1 5 21 13 45 17 48 19 76 6 84 -21 13 -38 -8 -65 -80 -19 -53 -34 -78 -49 -83 -12 -5 -23 -8 -24 -7 -1 0 8 36 19 78 12 42 18 84 15 92 -8 21 -34 20 -45 -1z m35 -228 c-14 -39 -40 -65 -53 -53 -12 13 18 79 40 88 11 4 22 7 24 5 1 -1 -4 -19 -11 -40z"/>
<path d="M1833 23332 c-22 -14 -103 -239 -127 -356 -16 -77 -13 -98 17 -94 16 2 25 21 47 105 15 56 44 147 64 202 36 98 42 141 21 148 -5 1 -15 -1 -22 -5z"/>
<path d="M2297 23313 c-15 -26 -97 -284 -97 -304 0 -53 44 -64 97 -23 37 28 38 28 19 -41 -15 -58 -12 -75 15 -75 27 0 54 48 88 155 58 181 60 235 10 235 -22 0 -32 -18 -48 -85 -28 -118 -31 -125 -62 -141 -17 -8 -34 -13 -37 -9 -4 3 13 62 37 130 46 133 47 165 6 165 -13 0 -26 -3 -28 -7z"/>
<path d="M2009 23280 c-67 -20 -105 -70 -54 -70 18 0 25 5 25 20 0 16 7 20 35 20 44 0 52 -17 36 -72 -9 -28 -40 -69 -107 -138 -67 -71 -94 -106 -94 -124 0 -14 5 -28 10 -31 13 -8 254 15 272 26 27 17 -8 24 -109 21 l-105 -2 86 92 c126 135 149 200 88 248 -26 21 -41 23 -83 10z"/>
<path d="M3138 22788 c-6 -17 -287 -26 -808 -27 -217 -1 -514 -6 -660 -11 -146 -5 -364 -12 -485 -14 -173 -4 -220 -8 -220 -18 0 -20 49 -21 510 -8 237 6 705 16 1040 21 336 5 624 11 640 12 l30 2 6 -80 c3 -44 4 -334 3 -645 -7 -1132 -40 -2078 -90 -2505 -8 -71 -17 -155 -21 -187 -3 -31 -9 -62 -13 -69 -11 -18 -354 -28 -1000 -29 -593 -1 -926 -12 -983 -32 -33 -12 51 -13 595 -11 617 4 1291 18 1354 29 l32 6 -14 -89 c-25 -156 -62 -327 -84 -385 -35 -93 -89 -126 -265 -163 -236 -48 -612 -40 -1165 25 -215 25 -450 37 -450 22 0 -20 22 -25 159 -34 75 -5 235 -19 356 -33 372 -40 502 -49 725 -49 238 0 384 17 521 60 163 51 197 117 263 510 59 354 94 732 116 1254 32 793 44 2039 21 2314 -8 91 -11 102 -35 123 -29 25 -72 31 -78 11z"/>
<path d="M7195 22619 c-25 -34 -74 -110 -110 -169 -82 -136 -142 -218 -219 -298 -47 -49 -57 -65 -46 -72 21 -13 38 0 131 98 51 54 107 127 143 188 33 54 88 143 123 197 35 53 61 102 58 107 -14 22 -37 7 -80 -51z"/>
<path d="M1526 22635 c-94 -33 -164 -152 -202 -343 -18 -94 -18 -126 2 -167 22 -46 72 -69 133 -60 72 11 227 63 253 86 l23 20 -25 -5 c-14 -3 -68 -17 -119 -31 -121 -32 -165 -32 -185 -3 -20 28 -21 105 -1 196 40 190 111 282 218 282 57 0 86 -49 97 -159 l7 -76 1 75 c3 157 -76 230 -202 185z"/>
<path d="M6664 22536 c-45 -20 -72 -106 -33 -106 5 0 7 11 3 25 -4 18 -1 32 11 45 22 24 44 25 89 4 l34 -17 -18 -43 c-31 -71 -35 -112 -15 -134 26 -29 86 -27 122 5 l28 25 -47 -7 c-47 -6 -48 -5 -48 20 0 15 5 46 11 69 l12 43 86 0 c48 0 88 4 91 10 3 6 -30 15 -77 22 -45 7 -105 22 -133 33 -59 23 -74 24 -116 6z"/>
<path d="M3883 22468 c-43 -48 -47 -100 -36 -469 19 -586 -14 -949 -112 -1235 -19 -56 -35 -111 -35 -123 0 -18 37 -49 50 -41 3 1 11 -10 19 -26 23 -45 26 -396 7 -730 -33 -582 -14 -827 76 -997 35 -65 69 -97 104 -97 31 0 30 5 -5 45 -33 38 -66 118 -89 220 -17 76 -21 381 -12 1120 5 344 4 374 -14 424 -10 30 -30 65 -44 78 l-25 23 36 108 c112 332 144 800 102 1487 -4 72 -2 114 8 150 8 28 16 56 18 64 7 24 -25 23 -48 -1z"/>
<path d="M7360 22440 c-135 -15 -135 -36 0 -32 55 2 100 0 100 -4 0 -10 -86 -159 -122 -212 -32 -46 -31 -72 2 -72 23 0 97 107 150 219 l32 67 94 -4 c81 -4 94 -2 94 11 0 10 -12 18 -32 21 -62 9 -253 13 -318 6z"/>
<path d="M4590 22343 c-14 -9 -73 -54 -132 -100 -58 -46 -111 -83 -116 -83 -5 0 -15 -7 -22 -16 -11 -12 -11 -18 2 -30 18 -18 48 -9 48 15 0 14 208 187 215 179 2 -2 -3 -32 -11 -68 -7 -36 -11 -75 -7 -88 8 -32 48 -40 76 -15 21 20 198 145 264 187 18 12 32 24 33 29 1 19 -35 0 -157 -83 -72 -49 -136 -90 -141 -90 -9 0 0 79 13 113 11 27 -3 67 -23 67 -10 0 -29 -8 -42 -17z"/>
<path d="M6170 22280 c0 -19 7 -20 145 -20 116 0 145 3 145 14 0 17 -64 26 -191 26 -92 0 -99 -1 -99 -20z"/>
<path d="M5940 22131 c-46 -14 -87 -40 -104 -65 -20 -31 -20 -36 -1 -36 8 0 15 9 15 19 0 20 48 44 114 57 37 6 38 6 31 -17 -11 -34 -40 -74 -108 -147 -46 -50 -58 -69 -55 -90 l3 -27 126 -3 c123 -3 187 8 174 28 -3 5 -39 10 -78 11 -40 0 -92 4 -117 7 l-45 7 61 65 c33 36 70 78 82 94 24 32 29 75 10 94 -13 13 -69 15 -108 3z"/>
<path d="M1832 22093 c-6 -10 -13 -32 -16 -49 -4 -18 -20 -53 -37 -78 -34 -55 -36 -66 -10 -66 28 0 57 28 85 84 28 53 33 95 14 114 -16 16 -26 15 -36 -5z"/>
<path d="M5170 22050 c-11 -7 -8 -11 15 -21 28 -11 281 -7 292 5 3 3 2 9 -2 15 -8 14 -284 15 -305 1z"/>
<path d="M4685 22019 c-71 -3 -198 -7 -281 -8 -151 -1 -241 -15 -198 -32 10 -4 57 -8 104 -8 137 -2 594 21 604 30 12 11 -38 29 -72 27 -15 -1 -85 -5 -157 -9z"/>
<path d="M5183 21932 c-3 -7 -2 -16 1 -20 10 -10 319 -2 330 9 21 19 -12 24 -166 24 -123 0 -162 -3 -165 -13z"/>
<path d="M4694 21788 c-16 -11 -55 -46 -87 -77 l-59 -56 7 46 c7 50 -6 89 -30 89 -7 0 -71 -41 -142 -92 -78 -56 -136 -91 -149 -90 -12 1 -28 -5 -35 -14 -10 -12 -9 -18 5 -32 11 -12 20 -14 30 -7 7 6 66 50 130 99 64 49 119 86 122 83 3 -3 1 -30 -6 -61 -14 -69 -7 -96 25 -96 16 0 29 9 39 28 29 54 168 175 191 166 23 -9 38 5 24 22 -16 19 -31 18 -65 -8z"/>
<path d="M2367 21686 c-8 -8 -17 -33 -21 -55 -6 -41 -80 -219 -143 -346 -39 -77 -108 -175 -124 -175 -5 0 -9 17 -7 38 3 34 1 37 -22 37 -22 0 -26 -6 -34 -48 -7 -39 -5 -51 8 -66 26 -29 51 -15 105 58 49 67 100 163 161 304 l34 77 10 -32 c8 -25 18 -34 37 -36 22 -3 33 6 68 55 l41 58 0 -71 c0 -51 4 -75 15 -84 25 -21 42 4 49 72 3 34 13 91 22 126 15 58 15 66 1 79 -20 21 -45 10 -57 -24 -18 -50 -34 -75 -73 -117 l-38 -41 5 48 c3 26 9 67 12 91 6 38 4 46 -14 55 -16 8 -24 8 -35 -3z"/>
<path d="M1377 21683 c-12 -12 -8 -168 5 -181 30 -30 73 2 62 44 -4 15 7 32 40 62 61 56 70 55 63 -12 -6 -60 7 -91 38 -85 20 4 31 21 39 60 5 23 80 88 90 78 2 -2 0 -24 -4 -49 -14 -72 -12 -98 10 -110 16 -8 22 -6 35 14 25 38 31 120 11 151 -21 33 -43 32 -97 -5 -54 -36 -55 -36 -63 -5 -7 27 -41 41 -74 31 -10 -4 -35 -22 -55 -42 l-35 -35 -7 33 c-11 50 -37 73 -58 51z"/>
<path d="M4674 21496 c-35 -35 -44 -50 -44 -79 0 -45 45 -87 95 -87 58 0 125 75 125 140 0 36 -44 70 -91 70 -36 0 -48 -6 -85 -44z m140 8 c35 -14 8 -101 -39 -122 -34 -16 -50 -15 -64 2 -8 10 -9 16 -1 21 5 3 7 17 4 30 -11 45 51 88 100 69z"/>
<path d="M1933 21478 c-6 -7 -14 -31 -17 -53 -4 -22 -25 -75 -47 -117 -43 -85 -50 -122 -22 -116 40 7 137 201 131 261 -3 34 -27 47 -45 25z"/>
<path d="M2661 21398 c-4 -13 -16 -47 -26 -77 -9 -30 -28 -72 -41 -93 -44 -69 -22 -93 33 -35 33 34 76 113 87 160 13 53 -35 93 -53 45z"/>
<path d="M9074 21286 c-3 -7 8 -33 25 -58 44 -65 57 -155 42 -295 -18 -172 -70 -348 -136 -457 -40 -67 -42 -76 -16 -76 47 0 136 169 188 357 24 86 28 116 28 243 0 130 -2 150 -23 195 -37 81 -94 128 -108 91z"/>
<path d="M7313 21175 c-81 -57 -173 -352 -173 -551 1 -140 81 -294 155 -294 36 0 35 10 -5 50 -54 54 -71 116 -71 260 0 230 71 472 153 524 10 6 18 14 18 18 0 14 -55 9 -77 -7z"/>
<path d="M4505 21045 c-80 -39 -133 -98 -167 -188 -57 -151 2 -257 143 -257 63 0 189 35 189 52 0 6 -9 8 -22 4 -50 -15 -177 -19 -207 -7 -89 38 -64 235 41 325 50 43 118 71 153 62 21 -5 23 -9 13 -25 -15 -24 -4 -51 21 -51 29 0 33 28 8 62 -40 54 -93 62 -172 23z"/>
<path d="M5312 21014 c-16 -20 -52 -74 -78 -120 -38 -64 -54 -84 -71 -84 -34 0 -123 -23 -123 -31 0 -17 20 -19 69 -7 28 6 53 9 56 7 2 -3 -2 -23 -10 -44 -31 -88 -14 -138 53 -151 41 -8 118 20 133 48 10 18 9 20 -7 13 -109 -44 -149 -17 -118 80 l16 54 64 3 c79 4 85 22 8 26 l-55 3 32 57 c17 31 49 81 70 111 21 29 36 58 33 62 -12 19 -44 7 -72 -27z"/>
<path d="M7877 20918 c-57 -68 -115 -132 -127 -143 l-22 -20 7 107 c7 99 6 107 -12 117 -27 14 -32 9 -153 -146 -68 -89 -108 -133 -121 -133 -22 0 -45 -41 -36 -64 13 -32 67 -12 67 25 0 15 150 222 171 235 6 3 7 -25 3 -75 -6 -66 -4 -85 10 -106 18 -27 49 -33 65 -12 85 104 196 234 240 280 46 47 52 57 34 57 -14 0 -53 -38 -126 -122z"/>
<path d="M8836 21014 c-10 -9 -55 -74 -101 -144 -46 -70 -97 -138 -112 -150 l-27 -21 -8 21 c-4 12 -3 67 4 122 10 93 10 102 -6 114 -24 17 -37 10 -63 -30 -48 -74 -184 -234 -203 -239 -29 -7 -37 -37 -15 -53 21 -16 45 -3 45 25 1 9 12 30 26 46 14 17 52 62 83 102 l58 72 -5 -98 c-4 -91 -3 -100 17 -120 11 -11 29 -21 38 -21 27 0 99 84 191 223 65 98 93 133 110 135 13 2 21 9 19 15 -6 19 -33 19 -51 1z"/>
<path d="M6181 21003 c-10 -20 76 -341 99 -368 17 -20 56 -19 64 1 4 9 4 32 0 50 -6 33 39 194 55 194 4 0 13 -34 19 -75 12 -79 43 -152 67 -162 41 -15 61 5 112 114 28 60 59 129 68 156 13 34 23 47 37 47 13 0 18 6 16 18 -2 9 -12 17 -22 17 -14 0 -30 -27 -68 -120 -27 -67 -60 -134 -73 -150 l-23 -30 -11 27 c-6 15 -18 69 -26 120 -22 123 -54 159 -92 102 -9 -15 -31 -67 -48 -116 l-31 -89 -38 129 c-21 72 -43 135 -49 141 -17 17 -45 13 -56 -6z"/>
<path d="M1822 20849 c-26 -105 -68 -202 -85 -196 -7 2 -21 47 -32 100 -20 96 -41 135 -67 124 -8 -3 -36 -53 -63 -111 -27 -58 -52 -106 -56 -106 -4 0 -13 24 -19 53 -25 105 -72 169 -101 140 -12 -12 46 -231 68 -255 28 -32 73 -16 73 25 0 10 16 53 36 95 l37 77 12 -66 c22 -112 61 -163 109 -141 23 10 85 156 106 252 7 30 19 60 27 67 8 6 12 16 8 22 -16 27 -32 4 -53 -80z"/>
<path d="M5615 20809 c-4 -6 -4 -13 0 -17 8 -8 344 -4 357 4 5 3 6 10 3 15 -9 13 -352 12 -360 -2z"/>
<path d="M4770 20778 c-11 -18 -27 -54 -36 -80 -8 -27 -20 -48 -25 -48 -5 0 -9 -11 -9 -25 0 -37 32 -48 145 -49 l100 -1 3 26 c2 19 -8 39 -35 71 -21 25 -53 66 -70 91 -18 26 -37 47 -43 47 -6 0 -19 -15 -30 -32z m64 -96 c25 -34 46 -64 46 -67 0 -3 -30 -5 -66 -5 -43 0 -63 4 -59 10 4 6 1 17 -5 26 -10 11 -9 24 5 60 9 25 21 44 25 42 5 -2 29 -31 54 -66z"/>
<path d="M6964 20803 c-8 -5 -8 -16 -3 -31 7 -18 15 -23 36 -20 22 2 28 8 28 28 0 19 -6 26 -25 28 -14 1 -30 -1 -36 -5z"/>
<path d="M8048 20804 c-5 -4 -8 -13 -8 -21 0 -10 26 -13 115 -13 105 0 140 8 100 24 -26 10 -200 19 -207 10z"/>
<path d="M5613 20693 c-3 -8 -2 -18 3 -23 13 -11 330 13 324 25 -3 6 -69 10 -164 11 -126 0 -159 -2 -163 -13z"/>
<path d="M6710 20642 c-34 -35 -55 -119 -39 -156 15 -33 57 -50 92 -37 69 26 108 162 58 202 -34 28 -77 24 -111 -9z m114 -54 c0 -55 -34 -101 -69 -96 -17 3 -20 10 -18 51 2 63 25 99 61 95 25 -3 27 -6 26 -50z"/>
<path d="M7806 20620 c-27 -25 -47 -55 -55 -81 -11 -38 -11 -45 7 -68 57 -77 182 6 182 122 0 75 -67 89 -134 27z m114 -26 c0 -65 -52 -124 -95 -108 -32 12 -17 61 32 108 26 25 50 43 55 40 4 -3 8 -21 8 -40z"/>
<path d="M1853 20615 c-45 -32 -66 -74 -70 -145 -5 -77 8 -100 57 -100 23 0 35 9 57 43 41 61 53 92 53 142 0 65 -48 94 -97 60z m82 -74 c-10 -53 -53 -123 -73 -119 -13 3 -17 15 -17 51 -1 41 4 54 33 88 28 33 37 38 49 27 10 -8 13 -22 8 -47z"/>
<path d="M1427 20148 c-45 -12 -97 -58 -97 -87 0 -22 25 -39 38 -26 4 4 1 10 -5 12 -28 10 -13 44 25 60 38 16 154 24 168 11 4 -5 -5 -47 -20 -95 -41 -135 -34 -173 29 -173 21 0 40 9 55 25 26 28 22 42 -8 26 -38 -20 -41 10 -12 109 l20 68 43 -10 c65 -15 210 5 241 33 5 4 -44 7 -110 6 -113 -2 -122 -1 -171 26 -56 29 -122 34 -196 15z"/>
<path d="M5124 20142 c-6 -4 -18 -20 -27 -37 -8 -16 -54 -77 -101 -133 -48 -57 -91 -114 -98 -125 -6 -12 -17 -26 -24 -30 -18 -10 -18 -43 0 -50 8 -3 22 0 32 8 15 10 16 16 6 28 -12 14 19 60 131 191 l19 21 -6 -25 c-15 -61 -19 -160 -6 -175 23 -28 80 -13 80 22 0 7 41 66 91 132 60 80 97 121 112 123 16 2 22 10 22 28 0 50 -33 24 -123 -96 -49 -67 -96 -125 -103 -129 -18 -12 -5 85 22 162 19 51 20 65 9 77 -14 18 -20 19 -36 8z"/>
<path d="M7047 19966 c-18 -18 -30 -185 -15 -203 25 -31 68 1 68 49 0 22 11 41 39 69 52 53 66 51 66 -8 0 -42 3 -48 23 -51 28 -4 52 14 52 39 0 18 48 59 69 59 6 0 11 -20 11 -48 0 -35 5 -54 19 -66 28 -26 106 -46 177 -46 66 0 95 15 47 25 -100 21 -155 39 -163 56 -6 10 -10 35 -10 57 0 23 -6 45 -15 52 -19 16 -68 7 -107 -21 -25 -18 -32 -19 -39 -8 -5 8 -9 17 -9 21 0 4 -9 9 -19 13 -20 6 -70 -12 -109 -41 -21 -16 -22 -16 -28 15 -8 39 -36 57 -57 37z"/>
<path d="M5312 19944 c-12 -8 -37 -44 -54 -80 -27 -55 -30 -68 -20 -89 18 -39 74 -35 113 8 39 41 69 99 69 131 0 43 -64 61 -108 30z m82 -62 c-25 -60 -76 -104 -96 -84 -6 6 -1 27 16 60 30 59 63 87 83 71 10 -9 10 -18 -3 -47z"/>
<path d="M6130 19738 l-25 -10 22 -10 c34 -16 293 0 293 18 0 11 -25 14 -132 13 -73 0 -144 -5 -158 -11z"/>
<path d="M4591 19666 c-20 -11 -8 -14 105 -19 165 -9 552 -9 716 0 93 4 128 10 132 20 8 19 -917 19 -953 -1z"/>
<path d="M6882 19653 c-20 -3 -32 -9 -29 -16 3 -9 115 -11 458 -8 250 2 457 5 462 8 33 19 -34 23 -425 21 -238 0 -448 -3 -466 -5z"/>
<path d="M2033 19638 c-5 -7 -22 -43 -37 -80 l-28 -67 -76 -3 c-61 -2 -77 -6 -77 -18 0 -12 13 -15 66 -13 l66 2 -25 -70 c-29 -80 -22 -114 24 -125 46 -12 173 41 151 62 -3 3 -14 1 -25 -5 -12 -6 -39 -11 -61 -11 -49 0 -51 11 -20 95 20 55 21 55 62 55 23 0 52 3 65 6 39 11 24 24 -28 24 -27 0 -50 4 -50 8 0 5 11 35 24 67 13 33 22 65 19 72 -7 17 -38 17 -50 1z"/>
<path d="M6114 19635 c-12 -31 12 -39 118 -37 178 4 258 13 258 29 0 13 -24 14 -157 11 -87 -1 -170 1 -185 6 -22 6 -29 5 -34 -9z"/>
<path d="M1657 19483 c-16 -31 -103 -143 -142 -184 -22 -23 -24 -28 -11 -38 8 -7 19 -10 25 -7 5 4 55 8 110 9 80 3 105 7 121 22 11 10 20 25 20 33 0 13 -43 120 -70 172 -13 26 -38 23 -53 -7z m27 -87 c33 -56 33 -74 0 -86 -26 -10 -134 -14 -134 -5 0 5 103 134 107 135 0 0 13 -20 27 -44z"/>
<path d="M5200 19503 c-30 -11 -83 -70 -144 -158 l-61 -90 -3 77 c-3 77 -15 104 -43 93 -8 -3 -50 -56 -93 -118 -44 -61 -89 -119 -99 -128 -13 -10 -18 -23 -14 -33 11 -27 40 -15 47 19 4 17 34 68 68 114 l62 85 0 -72 c0 -72 13 -102 45 -102 19 0 26 9 95 121 67 108 127 169 165 169 28 0 34 15 9 24 -9 3 -16 6 -17 5 -1 0 -9 -3 -17 -6z"/>
<path d="M7217 19468 c-14 -24 -50 -90 -82 -148 -68 -124 -110 -184 -165 -234 -46 -42 -74 -45 -100 -13 -17 20 -20 21 -35 6 -21 -20 -12 -54 16 -70 67 -35 174 72 304 306 73 132 71 132 48 -15 -3 -26 0 -42 14 -59 30 -36 59 -22 133 64 l65 75 6 -62 c3 -35 11 -73 17 -84 13 -24 41 -39 53 -27 10 11 15 235 5 251 -16 27 -45 10 -95 -57 -59 -80 -113 -130 -119 -111 -3 7 1 50 8 96 9 61 9 87 1 103 -19 34 -47 26 -74 -21z"/>
<path d="M5244 19268 c-22 -24 -50 -60 -63 -80 -12 -21 -30 -38 -38 -38 -27 0 -93 -23 -93 -32 0 -16 32 -21 52 -9 11 7 22 10 24 8 7 -7 -19 -61 -33 -70 -15 -9 -17 -43 -4 -51 21 -13 43 7 38 34 -9 42 25 90 64 90 32 0 32 0 26 -44 -4 -28 -2 -49 7 -61 18 -24 50 -15 54 15 9 85 11 89 49 92 45 4 58 28 16 28 -17 0 -32 3 -35 6 -3 3 1 30 8 60 11 40 12 59 4 74 -16 30 -33 25 -76 -22z m2 -72 c-5 -27 -13 -37 -32 -42 -37 -9 -37 -2 -3 45 36 48 44 47 35 -3z"/>
<path d="M2514 19066 c-75 -24 -152 -103 -91 -94 14 2 21 9 20 21 -1 22 40 42 107 51 56 8 73 -3 72 -44 -2 -69 -22 -93 -133 -159 -67 -39 -77 -124 -16 -145 34 -12 57 5 38 28 -26 31 -9 68 44 99 99 57 144 122 130 187 -14 63 -80 84 -171 56z"/>
<path d="M1715 19012 c-2 -2 -45 -7 -97 -12 -84 -8 -165 -29 -154 -41 2 -2 52 -2 110 1 122 6 113 16 90 -106 -8 -46 -14 -105 -12 -131 3 -42 6 -48 27 -51 29 -5 37 8 45 67 4 25 14 88 22 139 l16 92 112 0 c123 0 156 6 156 26 0 10 -34 14 -156 16 -86 2 -157 2 -159 0z"/>
<path d="M1957 18854 c-10 -3 -16 -11 -14 -17 5 -15 235 -21 257 -8 8 6 12 12 9 15 -8 8 -230 16 -252 10z"/>
<path d="M2457 18664 c-12 -12 -8 -41 9 -54 22 -19 54 12 38 38 -12 19 -36 27 -47 16z"/>
<path d="M7125 18551 c-3 -6 -84 -68 -179 -140 -95 -71 -222 -174 -281 -228 -59 -54 -119 -105 -134 -114 -35 -21 -35 -53 1 -57 23 -3 28 2 35 27 11 40 158 173 353 319 154 115 230 179 230 194 0 11 -18 10 -25 -1z"/>
<path d="M6311 18460 c-61 -15 -109 -66 -73 -78 7 -2 10 2 6 12 -15 38 106 49 167 14 l38 -21 -19 -28 c-34 -47 -70 -132 -70 -166 0 -59 52 -85 129 -64 56 15 81 35 63 53 -8 8 -12 8 -12 1 0 -14 -55 -25 -86 -17 -33 8 -32 52 4 129 l29 60 99 0 c65 1 119 7 158 19 77 23 62 39 -24 25 -90 -15 -172 -5 -247 31 -74 34 -115 42 -162 30z"/>
<path d="M6973 18298 c-76 -17 -49 -38 47 -38 l59 0 -13 -42 c-7 -24 -23 -66 -34 -94 -12 -29 -22 -69 -24 -90 -3 -35 -1 -39 21 -39 21 0 27 9 47 67 12 36 34 94 49 127 l28 61 82 0 c72 0 83 2 87 18 9 34 -24 42 -169 41 -76 -1 -157 -5 -180 -11z"/>
<path d="M3281 18251 c-29 -29 -33 -95 -15 -267 23 -222 24 -571 0 -729 -21 -148 -49 -277 -88 -413 -24 -83 -27 -106 -17 -118 7 -8 19 -12 27 -9 13 5 14 -28 9 -257 -3 -145 -14 -346 -23 -448 -10 -108 -17 -289 -18 -435 -1 -220 1 -258 18 -314 23 -74 67 -131 102 -131 30 0 30 15 0 51 -42 50 -51 120 -50 399 1 140 9 350 18 465 34 430 31 661 -8 704 -14 15 -13 24 8 91 31 98 70 276 93 420 23 150 23 513 -1 713 -19 164 -21 253 -4 263 14 9 46 -29 54 -65 9 -42 14 -54 20 -49 13 14 -20 100 -48 123 -35 30 -52 31 -77 6z"/>
<path d="M5390 17989 c-66 -69 -124 -122 -135 -122 -18 -2 -20 6 -25 83 -9 150 -27 148 -159 -12 -56 -67 -111 -126 -124 -132 -12 -7 -23 -22 -25 -34 -3 -20 0 -23 24 -20 20 2 30 10 34 26 3 12 41 66 85 119 l80 97 5 -70 c6 -82 28 -124 65 -124 32 0 89 52 207 188 49 56 96 102 104 102 8 0 14 5 14 10 0 32 -49 -4 -150 -111z"/>
<path d="M4024 18074 c-37 -18 -118 -94 -187 -174 l-47 -55 2 90 c3 84 2 90 -17 92 -13 2 -57 -29 -124 -87 -64 -56 -112 -90 -126 -90 -27 0 -49 -24 -41 -45 8 -21 53 -19 60 3 3 9 30 36 59 60 29 23 66 56 82 72 16 17 32 30 36 30 3 0 4 -40 1 -89 -4 -82 -3 -90 16 -100 29 -15 50 -4 72 38 49 98 219 251 278 251 12 0 22 5 22 10 0 15 -51 12 -86 -6z"/>
<path d="M5963 18009 c-43 -21 -56 -39 -29 -39 8 0 16 7 20 15 8 21 49 19 77 -4 37 -30 18 -67 -65 -122 -83 -56 -97 -76 -69 -98 17 -14 38 -15 146 -9 70 4 132 10 137 13 27 17 -11 25 -113 25 l-112 0 57 38 c90 60 114 103 87 154 -9 17 -64 48 -86 48 -4 0 -27 -9 -50 -21z"/>
<path d="M4436 17971 c-4 -6 -4 -15 -1 -21 9 -14 302 -13 310 1 4 6 5 12 4 14 -2 1 -72 6 -155 10 -107 5 -154 4 -158 -4z"/>
<path d="M5663 17943 c-32 -12 -6 -43 37 -43 19 0 34 25 24 41 -5 9 -40 11 -61 2z"/>
<path d="M4095 17901 c-53 -24 -88 -63 -83 -92 4 -33 36 -37 47 -6 13 34 66 75 106 83 80 15 88 -28 17 -96 -51 -49 -112 -83 -140 -78 -10 2 -19 16 -22 33 -7 41 -46 48 -56 10 -9 -37 10 -73 43 -81 56 -14 223 105 239 170 6 24 2 33 -20 53 -33 28 -76 29 -131 4z"/>
<path d="M4458 17879 c-6 -4 -8 -14 -5 -23 5 -13 24 -16 110 -16 127 0 199 9 194 24 -4 12 -282 26 -299 15z"/>
<path d="M7185 17315 c-28 -65 -54 -115 -62 -115 -7 0 -22 5 -32 12 -15 9 -23 9 -35 -1 -23 -19 -8 -41 29 -41 l33 0 -5 -63 c-5 -61 -4 -65 23 -86 23 -18 38 -22 71 -18 65 7 171 83 147 105 -4 4 -9 1 -11 -6 -6 -16 -58 -43 -100 -52 -44 -10 -67 8 -66 53 2 59 15 73 79 80 83 9 94 27 16 27 -34 0 -62 2 -62 4 0 2 16 41 35 86 42 99 45 130 12 130 -21 0 -30 -15 -72 -115z"/>
<path d="M6570 17388 c-106 -19 -246 -124 -294 -220 -33 -65 -33 -89 0 -127 31 -37 91 -55 154 -48 50 6 240 64 254 78 23 21 -11 20 -107 -5 -192 -49 -261 -29 -243 69 16 85 189 212 305 223 42 4 51 1 60 -16 7 -14 8 -23 1 -27 -17 -10 -11 -25 10 -25 17 0 19 4 14 28 -14 59 -71 85 -154 70z"/>
<path d="M6853 17163 c-29 -38 -59 -76 -68 -85 -36 -41 -5 -63 103 -71 68 -6 100 10 86 42 -3 9 -9 48 -13 86 -11 119 -33 125 -108 28z m40 -105 c-5 -10 -45 -10 -67 -2 -23 9 -20 21 17 67 l32 41 11 -49 c6 -28 9 -53 7 -57z"/>
<path d="M4006 17089 c-19 -23 -61 -91 -93 -153 l-58 -111 -5 140 c-5 135 -6 140 -27 143 -17 2 -29 -7 -49 -40 -53 -83 -175 -238 -188 -238 -20 0 -29 -31 -13 -47 17 -18 47 -6 47 18 0 14 99 159 154 226 0 1 0 -47 -2 -105 -3 -125 7 -157 52 -157 16 0 32 7 36 15 86 191 174 330 210 330 11 0 20 5 20 10 0 6 -11 10 -24 10 -16 0 -36 -14 -60 -41z"/>
<path d="M5083 17108 c-11 -13 -48 -79 -81 -148 -101 -207 -122 -217 -122 -61 0 62 -4 101 -12 109 -21 21 -48 14 -59 -15 -29 -76 -117 -237 -136 -250 -26 -17 -30 -51 -8 -59 20 -8 47 15 41 35 -3 9 16 56 43 104 l48 89 6 -63 c6 -71 31 -112 70 -117 32 -4 47 18 146 216 39 77 75 144 82 147 6 4 16 2 22 -4 19 -19 39 -13 35 12 -4 32 -47 35 -75 5z"/>
<path d="M4171 16973 c-14 -10 -14 -12 4 -20 29 -12 289 -10 293 2 4 15 -49 23 -172 27 -73 2 -114 -1 -125 -9z"/>
<path d="M5570 16948 c0 -27 40 -32 183 -19 73 6 140 11 150 11 9 0 17 7 17 15 0 13 -25 15 -175 13 -158 -3 -175 -5 -175 -20z"/>
<path d="M6750 16930 c-431 -4 -495 -7 -495 -20 0 -13 65 -15 530 -14 561 0 685 6 685 30 0 11 -21 14 -112 12 -62 -2 -336 -5 -608 -8z"/>
<path d="M4160 16848 c0 -10 6 -18 13 -19 49 -2 343 3 346 7 16 15 -34 22 -186 26 -162 4 -173 3 -173 -14z"/>
<path d="M5174 16851 c-36 -16 -45 -27 -64 -78 -16 -41 -19 -65 -13 -83 11 -33 52 -55 87 -46 38 9 113 81 126 121 25 76 -52 125 -136 86z m124 -54 c5 -40 -63 -107 -107 -107 -28 0 -31 3 -31 30 0 37 23 85 47 99 10 6 34 10 53 8 30 -2 35 -6 38 -30z"/>
<path d="M7005 16821 c-3 -6 -3 -15 0 -21 6 -10 -19 -115 -37 -155 -6 -14 -15 -25 -20 -25 -6 0 -24 31 -41 70 -43 97 -71 103 -96 18 -19 -64 -52 -138 -62 -138 -12 0 -37 51 -69 140 -29 77 -46 98 -74 87 -23 -9 -20 -46 14 -138 46 -128 98 -181 138 -141 10 10 28 51 41 93 l24 76 26 -51 c33 -64 70 -93 99 -77 21 11 56 108 69 187 4 21 12 34 25 37 26 7 20 41 -9 45 -11 2 -24 -2 -28 -7z"/>
<path d="M7071 16673 c-12 -10 -23 -30 -25 -46 -1 -15 -6 -30 -9 -34 -13 -12 -7 -99 8 -120 19 -27 61 -37 96 -23 52 22 87 137 58 192 -10 19 -65 48 -93 48 -7 0 -23 -8 -35 -17z m116 -54 c25 -51 -26 -147 -65 -123 -21 14 -33 100 -19 132 15 33 67 27 84 -9z"/>
<path d="M6006 15944 c-3 -9 -6 -37 -6 -62 0 -26 -7 -78 -15 -117 -13 -62 -13 -71 0 -85 26 -25 48 0 66 74 18 72 27 86 72 118 l30 22 -7 -67 c-6 -58 -4 -67 12 -76 23 -12 48 2 56 33 5 21 104 122 111 114 2 -2 -4 -37 -12 -78 -18 -91 -8 -130 32 -130 23 0 25 4 25 43 1 23 7 67 14 97 28 119 -27 135 -130 38 l-32 -30 -7 32 c-4 19 -16 35 -31 42 -21 10 -31 7 -69 -20 l-45 -32 0 31 c0 17 -5 39 -10 50 -13 23 -46 25 -54 3z"/>
<path d="M5437 15798 c-18 -29 -54 -87 -79 -128 -45 -73 -102 -140 -119 -140 -16 0 -21 69 -10 160 12 94 7 120 -24 120 -7 0 -41 -39 -75 -86 -103 -142 -200 -253 -223 -256 -28 -4 -31 -51 -4 -56 22 -4 47 15 47 37 0 9 23 43 52 76 28 33 73 90 100 128 27 37 51 67 52 67 1 0 0 -42 -2 -92 -4 -84 -2 -96 18 -120 53 -68 109 -16 267 247 19 32 37 50 49 50 24 0 26 38 2 43 -12 2 -28 -14 -51 -50z"/>
<path d="M4063 15821 c-18 -11 -62 -65 -102 -127 l-71 -107 0 96 c0 85 -2 97 -20 107 -23 12 -19 15 -96 -100 -68 -103 -92 -130 -115 -130 -9 0 -19 -7 -23 -15 -9 -24 4 -45 30 -45 17 0 25 7 30 26 4 15 30 60 59 100 l52 73 5 -70 c6 -72 25 -109 58 -109 20 0 40 19 40 38 0 24 89 164 133 210 30 30 49 42 70 42 18 0 27 4 25 13 -7 20 -41 19 -75 -2z"/>
<path d="M4520 15734 c-8 -3 -22 -8 -30 -11 -12 -4 -11 -7 5 -13 29 -12 303 -12 310 0 3 6 0 12 -7 14 -22 7 -262 15 -278 10z"/>
<path d="M6195 15639 c-99 -11 -211 -18 -250 -17 -59 3 -70 0 -73 -14 -5 -28 40 -32 182 -19 72 7 232 21 356 31 124 11 226 19 228 20 1 0 2 5 2 10 0 16 -245 10 -445 -11z"/>
<path d="M4503 15643 c-24 -9 -14 -42 13 -49 29 -7 272 1 281 9 18 19 -19 27 -122 27 -65 0 -116 4 -120 10 -6 10 -31 12 -52 3z"/>
<path d="M5524 15538 c-28 -29 -62 -72 -75 -95 -16 -29 -33 -44 -51 -49 -29 -6 -39 -24 -13 -24 19 0 19 -5 -2 -41 -10 -16 -23 -29 -30 -29 -7 0 -13 -9 -13 -20 0 -13 7 -20 20 -20 21 0 23 4 34 50 10 42 29 57 82 64 l51 6 -5 -70 c-4 -58 -2 -71 12 -76 29 -11 43 14 50 86 6 59 10 70 26 70 28 0 36 20 10 27 -18 5 -20 10 -13 37 4 17 8 54 8 81 0 72 -25 73 -91 3z m25 -62 l-12 -66 -45 0 -44 0 17 28 c28 44 87 113 92 109 2 -3 -2 -34 -8 -71z"/>
<path d="M4116 15569 c-10 -6 -26 -19 -36 -28 -10 -9 -25 -22 -34 -29 -8 -6 -21 -30 -27 -53 -35 -114 80 -147 189 -54 49 43 65 87 46 126 -21 41 -96 62 -138 38z m115 -38 l24 -20 -20 -38 c-14 -26 -35 -45 -67 -61 -73 -37 -110 -13 -87 55 8 25 16 33 35 33 17 0 24 6 24 19 0 33 57 40 91 12z"/>
<path d="M6232 15513 c-5 -10 -12 -31 -16 -47 -16 -65 -157 -280 -218 -331 -41 -35 -56 -32 -60 11 -4 47 -32 68 -54 40 -31 -43 1 -126 50 -126 36 0 146 123 220 245 l36 60 0 -36 c0 -38 24 -69 53 -69 17 0 136 140 139 163 0 7 4 -23 8 -66 5 -60 11 -82 27 -99 19 -18 24 -19 38 -8 8 7 13 20 10 29 -2 9 -1 61 4 116 5 62 5 107 -1 118 -16 31 -49 16 -75 -32 -31 -59 -101 -151 -115 -151 -7 0 -8 17 -3 58 5 31 9 75 9 97 1 34 -2 40 -21 43 -13 2 -25 -4 -31 -15z"/>
<path d="M8487 14857 c-57 -109 -166 -345 -212 -461 -24 -63 -25 -70 -11 -84 24 -24 35 -8 107 163 35 83 98 220 141 305 43 85 76 160 74 167 -3 7 -14 13 -25 13 -14 0 -33 -26 -74 -103z"/>
<path d="M6616 14861 c-4 -6 -24 -68 -44 -138 l-38 -128 -53 -3 c-43 -3 -52 -6 -49 -20 3 -14 12 -16 47 -14 l43 4 -7 -49 c-5 -41 -3 -53 15 -76 18 -23 29 -27 74 -27 55 0 96 20 96 48 0 12 -3 13 -12 4 -7 -7 -29 -12 -50 -12 -47 0 -61 22 -50 77 8 36 10 38 57 45 92 13 115 19 115 30 0 7 -25 8 -79 4 l-79 -7 36 117 c25 85 32 121 25 133 -12 19 -39 26 -47 12z"/>
<path d="M6857 14848 c-2 -7 1 -27 8 -45 36 -87 50 -197 50 -398 0 -230 -10 -284 -75 -420 -45 -95 -47 -105 -21 -105 41 0 100 115 142 280 44 170 34 429 -24 600 -26 77 -36 96 -54 98 -11 2 -23 -3 -26 -10z"/>
<path d="M7892 14813 c-32 -16 -76 -66 -66 -75 2 -3 20 10 38 28 41 41 78 44 119 10 l28 -23 -25 -48 c-43 -80 -61 -150 -48 -180 20 -44 121 -72 150 -43 20 20 14 28 -21 28 -77 0 -90 58 -35 161 l33 62 92 -2 c59 -1 94 2 98 9 11 18 1 22 -93 29 -70 6 -100 14 -135 34 -52 31 -88 33 -135 10z"/>
<path d="M4592 14738 c-78 -114 -145 -286 -163 -415 -19 -143 28 -290 120 -376 50 -47 88 -64 118 -53 13 5 5 17 -39 56 -73 65 -107 139 -118 262 -13 140 9 243 90 414 26 56 52 104 59 108 6 4 11 16 11 27 0 14 -7 19 -25 19 -17 0 -32 -12 -53 -42z"/>
<path d="M5944 14736 c-77 -34 -147 -123 -160 -204 -11 -72 60 -127 194 -147 55 -9 129 9 186 46 58 36 60 57 4 27 -58 -31 -193 -32 -253 -3 -68 34 -73 112 -12 182 31 36 116 83 149 83 23 0 32 -18 19 -34 -13 -16 11 -42 29 -31 17 11 11 32 -19 64 -33 35 -81 41 -137 17z"/>
<path d="M8550 14692 c0 -26 16 -32 122 -46 l87 -11 -24 -65 c-13 -36 -38 -107 -56 -158 -29 -78 -32 -94 -19 -102 29 -18 47 12 105 165 l58 157 116 -3 c113 -4 116 -3 119 18 4 24 15 22 -258 43 -74 5 -161 13 -192 16 -54 6 -58 5 -58 -14z"/>
<path d="M6320 14661 c-5 -11 -10 -26 -10 -33 0 -24 -59 -138 -75 -144 -20 -8 -19 -43 1 -51 8 -3 26 0 40 7 18 10 37 11 78 3 86 -15 103 4 66 76 -11 22 -22 59 -26 83 -4 23 -11 51 -16 61 -12 23 -45 22 -58 -2z m20 -117 c11 -26 20 -48 20 -50 0 -2 -20 -4 -44 -4 l-45 0 22 50 c12 27 23 50 24 50 1 0 11 -21 23 -46z"/>
<path d="M4993 14557 c-16 -24 -48 -85 -73 -135 -24 -51 -48 -92 -54 -92 -5 0 -6 37 -2 93 7 100 -3 133 -39 126 -19 -4 -26 -14 -46 -67 -14 -38 -127 -226 -157 -260 -24 -28 -18 -54 12 -50 16 2 21 10 21 34 1 18 6 38 12 45 6 8 33 51 61 96 l49 82 6 -78 c3 -43 12 -90 18 -104 24 -52 79 -42 79 14 0 15 20 70 44 121 65 136 89 173 111 173 25 0 27 38 3 43 -12 2 -27 -11 -45 -41z"/>
<path d="M3553 14399 c-68 -68 -126 -120 -129 -116 -3 3 -1 29 6 57 16 68 8 100 -27 100 -19 0 -44 -19 -97 -74 -39 -40 -80 -76 -92 -80 -11 -3 -27 -18 -34 -31 -12 -22 -11 -28 1 -41 22 -21 45 -8 68 39 11 23 40 65 65 92 40 44 45 47 46 27 0 -13 -5 -43 -11 -67 -14 -54 -6 -92 22 -100 16 -5 45 19 159 136 110 113 142 141 152 131 7 -7 20 -12 31 -12 14 0 18 6 15 28 -2 20 -9 28 -28 30 -20 2 -49 -21 -147 -119z"/>
<path d="M7583 14453 c-36 -7 -27 -19 22 -33 89 -25 119 -74 73 -117 -13 -12 -59 -43 -103 -71 -80 -49 -101 -77 -73 -99 14 -11 265 -2 286 11 31 19 4 26 -100 26 l-113 0 51 30 c29 17 71 47 95 68 34 31 42 44 41 71 -1 45 -43 88 -106 106 -27 8 -50 14 -50 14 -1 -1 -11 -4 -23 -6z"/>
<path d="M5333 14403 c-73 -3 -93 -7 -93 -18 0 -25 48 -28 209 -16 159 13 171 15 171 32 0 9 -76 9 -287 2z"/>
<path d="M6395 14379 c-115 -10 -302 -22 -415 -26 -172 -7 -205 -10 -205 -23 0 -22 289 -18 620 9 355 28 365 30 365 47 0 19 -90 17 -365 -7z"/>
<path d="M4098 14383 c-76 -3 -98 -7 -98 -18 0 -24 15 -26 154 -19 97 5 136 11 136 19 0 15 -34 26 -70 23 -14 -1 -69 -4 -122 -5z"/>
<path d="M7191 14312 c-12 -23 4 -52 29 -52 29 0 44 35 24 54 -20 21 -41 20 -53 -2z"/>
<path d="M4053 14293 c-10 -25 10 -33 85 -33 80 0 173 19 179 35 5 15 -258 13 -264 -2z"/>
<path d="M3655 14281 c-30 -13 -85 -86 -85 -114 0 -39 23 -50 89 -45 72 5 150 49 166 92 8 25 6 31 -18 52 -22 19 -39 24 -80 23 -29 0 -61 -4 -72 -8z m139 -27 c54 -21 -44 -94 -125 -94 -37 0 -48 20 -21 38 12 8 22 21 22 28 0 22 88 42 124 28z"/>
<path d="M5024 14241 c-44 -27 -46 -33 -50 -126 -3 -71 -1 -86 17 -109 31 -40 69 -35 114 15 45 50 74 112 75 157 0 72 -85 106 -156 63z m120 -17 c28 -11 20 -83 -13 -136 -62 -98 -105 -83 -97 32 3 36 5 68 6 72 0 10 52 37 72 38 9 0 23 -3 32 -6z"/>
<path d="M6375 14138 c-10 -29 -29 -77 -42 -106 -29 -62 -42 -59 -69 16 -41 114 -52 132 -77 132 -21 0 -27 -10 -52 -85 -15 -47 -31 -87 -34 -90 -4 -2 -22 32 -40 75 -21 51 -39 81 -51 85 -49 15 -52 -24 -11 -125 34 -83 57 -112 84 -108 24 4 30 15 53 96 9 34 20 62 24 62 3 0 14 -23 24 -51 10 -27 33 -66 51 -85 57 -60 73 -49 124 87 50 135 54 149 42 149 -5 0 -17 -24 -26 -52z"/>
<path d="M6422 13983 c-15 -13 -23 -35 -27 -84 -7 -62 -5 -68 16 -83 24 -17 66 -21 85 -8 24 15 54 79 54 114 0 65 -79 102 -128 61z m106 -25 c16 -16 15 -33 -4 -73 -17 -37 -40 -51 -59 -35 -16 13 -17 102 -1 112 17 12 51 9 64 -4z"/>
<path d="M4183 13278 c-17 -24 -64 -208 -58 -228 13 -42 65 -16 65 33 0 39 15 64 51 83 38 19 47 12 51 -46 3 -41 6 -45 31 -48 15 -2 27 1 27 7 0 13 59 81 71 81 5 0 9 -31 9 -69 0 -69 11 -89 39 -72 27 17 41 124 21 162 -15 28 -43 23 -93 -15 l-45 -34 -6 29 c-8 42 -42 55 -91 35 -20 -9 -39 -16 -40 -16 -2 0 2 18 7 40 8 30 7 44 -2 55 -15 18 -25 19 -37 3z"/>
<path d="M3512 13030 c-51 -49 -106 -97 -124 -106 l-31 -16 7 91 c6 80 5 92 -10 98 -25 9 -70 -20 -166 -107 -47 -44 -91 -80 -96 -80 -17 0 -22 -29 -6 -44 24 -25 50 -7 45 31 -1 11 148 153 162 153 4 0 5 -35 1 -79 -6 -76 -6 -79 18 -95 18 -11 32 -14 48 -8 23 9 267 231 269 245 3 23 -34 -4 -117 -83z"/>
<path d="M8695 13063 c-65 -88 -245 -485 -245 -540 0 -11 6 -26 14 -32 15 -12 46 -5 46 11 0 45 198 486 250 555 12 17 19 36 16 42 -15 24 -47 10 -81 -36z"/>
<path d="M7916 13050 c-15 -5 -37 -17 -47 -26 -21 -19 -25 -44 -8 -44 5 0 8 4 4 9 -17 29 106 49 160 27 35 -15 37 -17 22 -34 -30 -33 -57 -106 -57 -158 0 -42 5 -56 26 -77 28 -28 87 -42 134 -32 42 9 38 31 -8 38 -61 10 -77 28 -76 84 1 27 9 65 17 85 15 36 17 37 54 30 85 -16 313 -3 313 17 0 4 -67 12 -149 17 -140 10 -153 12 -193 39 -33 23 -56 30 -103 32 -33 1 -73 -2 -89 -7z"/>
<path d="M4023 12974 c-13 -3 -23 -12 -23 -20 0 -12 54 -14 360 -14 313 0 360 2 360 15 0 13 -35 15 -257 15 -142 0 -294 2 -338 4 -44 3 -90 2 -102 0z"/>
<path d="M3650 12943 c-19 -14 -48 -39 -65 -54 -16 -15 -45 -30 -62 -34 -34 -7 -46 -25 -16 -25 14 0 14 -2 -3 -21 -10 -12 -29 -25 -42 -30 -32 -12 -25 -44 8 -44 17 0 25 6 25 17 0 9 11 28 24 42 20 22 33 26 78 26 l53 0 0 -39 c0 -46 22 -70 45 -51 8 7 15 28 15 46 0 27 4 34 20 34 11 0 20 7 20 15 0 8 -7 15 -15 15 -17 0 -19 21 -6 66 10 36 -2 64 -27 64 -9 0 -33 -12 -52 -27z m13 -56 c-4 -29 -10 -37 -27 -37 -46 0 -49 16 -10 48 21 17 39 30 41 29 1 -2 0 -20 -4 -40z"/>
<path d="M8738 12938 c-16 -5 -28 -13 -28 -17 0 -9 98 -21 166 -21 l43 0 -13 -38 c-8 -21 -30 -71 -51 -112 -68 -135 -77 -185 -32 -178 16 2 38 39 96 165 l76 163 135 0 c153 0 210 7 210 25 0 8 -28 14 -82 18 -126 10 -489 7 -520 -5z"/>
<path d="M4392 12785 c-53 -55 -79 -59 -84 -12 -2 26 -8 33 -30 35 -23 3 -28 -1 -34 -25 -7 -30 -62 -104 -103 -140 -36 -31 -67 -30 -75 2 -8 33 -43 34 -52 1 -8 -32 11 -64 42 -72 32 -8 86 29 139 96 43 54 50 58 59 35 11 -29 66 -18 117 25 l47 40 -4 -38 c-6 -45 14 -87 41 -87 17 0 21 10 28 70 4 39 5 80 2 93 -9 36 -45 27 -93 -23z"/>
<path d="M7432 12530 c-46 -21 -52 -43 -14 -48 15 -2 22 2 22 12 0 23 56 20 80 -4 11 -11 20 -25 20 -30 0 -30 -34 -68 -84 -95 -61 -33 -71 -45 -53 -68 15 -18 233 -33 257 -17 23 15 -1 27 -82 40 l-68 12 39 29 c54 38 65 61 51 103 -24 75 -93 101 -168 66z"/>
<path d="M2802 12459 c14 -43 162 -51 1223 -59 545 -5 1295 -12 1668 -16 692 -7 696 -7 697 26 0 3 -165 5 -367 5 -770 1 -2932 25 -3008 34 -210 24 -218 25 -213 10z"/>
<path d="M6697 12450 c-37 -23 -1 -30 158 -30 153 0 194 7 163 27 -20 13 -300 15 -321 3z"/>
<path d="M6723 12324 c-3 -8 -2 -19 3 -23 5 -5 73 -11 152 -15 117 -5 142 -3 142 8 0 14 -76 27 -228 40 -51 5 -64 3 -69 -10z"/>
<path d="M5785 12113 c-14 -31 -28 -67 -31 -80 -6 -21 -12 -23 -69 -23 -58 0 -87 -11 -71 -27 3 -4 31 -8 61 -11 45 -4 55 -8 51 -21 -17 -56 -17 -73 -2 -96 26 -40 93 -28 153 28 30 27 18 42 -14 17 -28 -22 -83 -27 -83 -7 0 6 5 28 10 48 10 35 12 36 70 42 79 9 110 17 110 29 0 7 -29 9 -79 6 l-79 -5 24 69 c26 72 25 88 -7 88 -14 0 -26 -16 -44 -57z"/>
<path d="M5164 12119 c-63 -24 -138 -100 -153 -154 -23 -84 32 -135 154 -143 75 -4 160 19 207 58 35 28 16 33 -38 9 -68 -30 -183 -31 -222 -2 -34 26 -36 85 -4 131 26 36 114 82 158 82 28 0 31 -2 26 -26 -4 -23 -2 -25 24 -22 36 4 46 37 15 45 -12 3 -21 9 -21 13 0 9 -56 30 -79 29 -9 0 -39 -9 -67 -20z"/>
<path d="M3801 12111 c-7 -5 -19 -47 -27 -97 -8 -49 -17 -105 -20 -125 -6 -32 -3 -38 16 -44 30 -10 45 9 59 76 7 36 21 65 36 79 l25 24 -6 -46 c-6 -40 -4 -47 14 -57 29 -15 52 -3 59 30 4 20 20 38 51 59 25 16 50 30 55 30 5 0 6 -24 3 -57 -9 -77 16 -127 51 -105 16 10 37 117 29 148 -8 29 -33 54 -55 54 -9 0 -43 -16 -76 -35 -57 -35 -58 -35 -72 -15 -17 24 -41 26 -71 4 -22 -15 -22 -14 -22 23 0 22 -5 44 -12 51 -14 14 -19 15 -37 3z"/>
<path d="M3282 11986 c-17 -19 -56 -78 -88 -132 -64 -107 -72 -107 -73 -1 -1 77 -23 130 -52 125 -24 -3 -101 -108 -144 -195 -14 -29 -30 -53 -35 -53 -6 0 -10 -11 -10 -25 0 -20 5 -25 24 -25 26 0 43 27 27 43 -11 11 12 62 68 146 l36 54 8 -88 c10 -108 27 -148 64 -143 21 2 34 18 69 86 48 92 129 211 150 219 18 7 18 23 0 23 -8 0 -28 -16 -44 -34z"/>
<path d="M5479 11949 c-30 -35 -66 -75 -81 -90 -30 -29 -36 -48 -15 -50 6 -1 56 -2 110 -3 115 -1 126 5 108 62 -7 20 -15 60 -19 87 -11 75 -35 73 -103 -6z m55 -88 c5 -8 -11 -11 -54 -11 l-61 0 42 50 43 51 12 -39 c6 -22 14 -44 18 -51z"/>
<path d="M3372 11756 c-17 -19 -43 -56 -57 -81 -19 -31 -34 -45 -48 -45 -12 0 -31 -7 -41 -15 -19 -15 -19 -15 1 -15 31 0 36 -14 16 -49 -11 -19 -27 -31 -43 -33 -29 -3 -39 -38 -17 -57 18 -14 47 -4 47 16 0 8 12 37 27 63 20 36 35 50 56 54 54 11 56 9 59 -51 3 -51 6 -58 25 -61 27 -4 43 28 43 84 0 19 6 37 13 39 6 2 31 9 55 15 60 15 54 32 -9 24 l-52 -7 6 49 c7 54 -7 97 -34 102 -9 2 -30 -13 -47 -32z m10 -73 c-4 -53 -4 -53 -39 -53 -24 0 -32 4 -27 13 18 31 66 98 68 95 1 -2 0 -27 -2 -55z"/>
<path d="M3955 11774 c-82 -8 -173 -12 -202 -10 -38 3 -55 0 -64 -10 -10 -12 -9 -18 2 -29 11 -11 27 -12 74 -6 33 5 141 14 240 20 205 14 266 22 266 36 -1 15 -148 15 -316 -1z"/>
<path d="M4433 11783 c-22 -8 -14 -21 18 -32 34 -12 230 -15 292 -5 27 5 37 11 35 22 -3 14 -28 16 -168 18 -91 1 -171 0 -177 -3z"/>
<path d="M5380 11758 c-292 -8 -330 -12 -330 -28 0 -19 49 -20 364 -10 373 11 436 17 436 36 0 16 -15 16 -470 2z"/>
<path d="M5217 11633 c-23 -23 32 -168 86 -225 49 -52 70 -38 97 61 l12 44 23 -51 c26 -55 62 -85 96 -80 26 4 28 6 74 136 23 62 43 102 51 102 8 0 14 5 14 11 0 6 -8 9 -17 7 -19 -3 -34 -30 -79 -136 -15 -34 -32 -61 -38 -59 -6 2 -19 26 -29 53 -33 87 -41 99 -67 99 -17 0 -26 -6 -29 -20 -7 -41 -43 -125 -52 -125 -6 0 -30 43 -55 95 -32 69 -49 95 -62 95 -10 0 -22 -3 -25 -7z"/>
<path d="M3950 11554 c-6 -14 -10 -30 -10 -36 0 -33 -127 -221 -157 -232 -25 -10 -33 5 -40 77 -5 56 -9 67 -24 67 -25 0 -40 -32 -41 -89 0 -75 35 -120 86 -107 22 5 106 109 147 183 26 47 39 54 39 23 0 -28 35 -60 65 -60 19 0 34 13 63 52 l37 53 5 -55 c6 -69 14 -80 51 -80 33 0 32 -3 29 100 -2 112 -41 156 -78 89 -21 -40 -71 -99 -83 -99 -5 0 -9 23 -9 51 0 63 -13 89 -46 89 -17 0 -27 -8 -34 -26z"/>
<path d="M5727 11479 c-15 -11 -27 -27 -27 -35 0 -8 -7 -14 -15 -14 -17 0 -35 -30 -35 -60 0 -29 47 -70 80 -70 44 0 90 62 90 122 0 64 -48 93 -93 57z m76 -31 c7 -10 4 -27 -9 -54 -15 -30 -25 -39 -44 -39 -20 0 -26 6 -28 28 -2 15 1 27 7 27 6 0 18 14 26 31 17 31 32 34 48 7z"/>
<path d="M8413 10993 c-15 -6 -18 -43 -3 -43 5 0 6 7 3 17 -4 11 -3 14 6 9 6 -4 57 -13 112 -21 64 -8 106 -19 118 -29 17 -15 19 -44 25 -319 13 -571 -34 -1675 -75 -1785 -6 -14 -30 -33 -63 -48 -88 -40 -52 -71 48 -43 50 14 91 55 105 105 6 21 23 208 38 414 25 346 27 423 28 990 0 610 0 615 -22 662 -13 29 -33 52 -51 62 -52 27 -228 46 -269 29z"/>
<path d="M4715 10871 c-66 -28 -68 -60 -40 -486 26 -403 51 -927 60 -1265 9 -338 13 -379 41 -407 22 -22 30 -24 119 -21 53 2 95 7 95 13 1 5 -29 14 -65 20 -36 6 -72 18 -80 26 -11 11 -16 81 -25 334 -14 444 -36 879 -62 1215 -11 157 -21 341 -22 410 l-1 125 83 3 c52 2 82 -1 82 -8 0 -5 4 -10 10 -10 17 0 -2 31 -24 40 -35 13 -149 20 -171 11z"/>
<path d="M6165 10706 c-19 -28 -147 -136 -162 -136 -16 0 -32 -22 -26 -36 8 -21 53 -18 53 4 0 15 78 92 93 92 2 0 -18 -44 -46 -99 -49 -97 -53 -121 -18 -121 27 0 178 276 164 299 -16 26 -40 24 -58 -3z"/>
<path d="M9624 10546 c-32 -14 -74 -60 -74 -80 0 -7 7 -21 15 -32 13 -17 14 -16 8 18 -4 30 -2 38 18 51 39 24 88 29 118 11 l27 -16 -23 -87 c-13 -47 -25 -117 -26 -154 -2 -65 0 -70 27 -94 26 -22 37 -25 80 -20 32 3 54 11 63 23 21 29 16 33 -36 27 -48 -5 -50 -4 -57 21 -8 33 4 144 22 206 l14 47 104 6 c192 12 213 47 28 47 -95 0 -125 4 -161 20 -50 23 -103 25 -147 6z"/>
<path d="M3479 10468 c-37 -38 -119 -159 -138 -207 -10 -23 -18 -30 -31 -26 -9 3 -23 -1 -29 -9 -14 -16 -6 -56 10 -56 7 0 8 -20 4 -54 -7 -50 -5 -57 18 -80 39 -39 79 -34 169 19 42 25 79 49 83 55 12 20 21 10 17 -19 -6 -43 34 -81 86 -81 40 0 104 37 133 77 11 14 28 18 72 18 l59 0 -7 -65 c-5 -51 -11 -68 -28 -80 -70 -47 -128 -144 -113 -192 2 -7 7 -26 10 -41 4 -17 16 -31 32 -37 39 -15 78 11 108 72 25 52 56 156 56 188 0 9 15 22 33 29 l32 14 -27 4 c-28 4 -28 5 -28 84 0 86 -12 105 -51 81 -31 -19 -69 -15 -69 7 0 21 18 43 57 68 29 19 42 9 24 -18 -14 -24 -9 -34 15 -25 18 7 12 51 -11 75 -22 23 -79 5 -114 -35 -17 -19 -31 -31 -31 -26 0 5 -14 15 -31 22 -47 20 -142 -12 -195 -65 -56 -55 -155 -107 -197 -103 -32 3 -32 4 -30 52 2 69 19 102 88 178 74 80 130 179 113 196 -21 21 -56 13 -89 -20z m61 -27 c0 -14 -91 -133 -97 -127 -7 6 38 78 70 114 22 24 27 26 27 13z m267 -243 c22 -36 -16 -106 -71 -132 -42 -20 -51 -20 -70 0 -21 20 -20 44 0 44 11 0 15 6 11 19 -11 43 107 105 130 69z m103 -287 c0 -36 -40 -148 -59 -165 -25 -23 -39 -14 -47 28 -7 42 16 96 58 131 35 30 48 31 48 6z"/>
<path d="M6995 10279 c-409 -11 -2005 -30 -2015 -24 -4 3 -10 -5 -13 -17 l-6 -21 822 7 c452 4 971 11 1152 16 182 5 582 10 890 10 308 0 566 4 574 9 44 28 -9 31 -557 29 -306 0 -687 -5 -847 -9z"/>
<path d="M7274 10112 c-6 -4 -25 -50 -43 -102 -18 -52 -40 -111 -49 -130 -17 -34 -18 -35 -85 -38 -48 -2 -67 -7 -67 -16 0 -20 28 -28 78 -20 36 5 43 4 39 -7 -3 -8 -13 -38 -22 -66 -14 -44 -14 -57 -3 -80 26 -53 115 -51 174 4 33 30 19 43 -20 18 -36 -24 -80 -16 -84 15 -5 31 14 95 34 115 8 8 31 15 50 15 24 0 34 5 34 15 0 10 -10 15 -34 15 l-33 0 35 93 c38 100 47 170 22 174 -8 2 -20 0 -26 -5z"/>
<path d="M8990 10092 c0 -26 21 -30 185 -34 78 -2 132 1 135 7 10 20 -50 34 -182 41 -135 7 -138 6 -138 -14z"/>
<path d="M9528 10044 c-42 -23 61 -34 311 -34 231 0 271 5 245 30 -14 13 -532 17 -556 4z"/>
<path d="M6532 10000 c-142 -64 -275 -319 -201 -386 31 -28 145 -26 220 4 108 43 123 74 20 42 -71 -22 -151 -26 -169 -8 -31 31 4 142 74 233 85 112 272 131 249 24 -5 -21 -3 -34 6 -39 16 -10 39 -2 39 15 0 26 -53 106 -81 120 -39 21 -106 18 -157 -5z"/>
<path d="M9030 9995 c-21 -25 4 -41 83 -54 79 -14 177 -12 177 4 1 5 -34 15 -77 22 -43 7 -96 20 -118 28 -50 18 -50 18 -65 0z"/>
<path d="M4093 9953 c-40 -8 -27 -33 17 -33 73 0 72 -56 -3 -122 -36 -31 -40 -40 -31 -55 10 -15 24 -18 95 -15 85 2 165 18 175 33 3 5 -37 9 -89 9 l-95 0 34 34 c76 76 9 173 -103 149z"/>
<path d="M7747 9884 c-3 -3 -17 -29 -31 -57 -14 -29 -39 -68 -56 -87 l-31 -35 5 58 c7 65 -5 97 -35 97 -21 0 -39 -34 -39 -76 0 -37 -46 -140 -96 -216 -65 -97 -133 -148 -117 -88 6 22 -17 36 -43 26 -22 -8 -175 -13 -644 -21 -212 -4 -389 -10 -394 -15 -17 -17 72 -25 274 -25 273 0 699 16 729 27 19 7 22 6 17 -8 -14 -36 30 -72 65 -53 48 25 155 168 185 247 16 41 17 42 28 20 7 -13 22 -24 37 -26 22 -3 32 7 69 60 l43 63 -6 -61 c-7 -65 7 -102 34 -92 32 12 73 224 49 253 -13 15 -32 20 -43 9z"/>
<path d="M6889 9768 c-35 -45 -69 -87 -76 -94 -9 -9 -9 -15 0 -27 8 -10 38 -16 100 -20 80 -4 89 -3 102 16 12 17 12 25 0 55 -8 19 -15 52 -15 74 0 44 -14 78 -34 78 -7 0 -41 -37 -77 -82z m61 -95 c0 -2 -27 -3 -60 -3 l-59 0 39 43 c22 23 40 47 40 52 1 8 40 -83 40 -92z"/>
<path d="M9613 9833 c-56 -4 -83 -23 -60 -42 8 -6 55 -14 104 -17 l91 -7 5 -48 c3 -26 2 -87 -4 -136 -24 -221 -24 -240 -1 -252 25 -13 49 -5 56 17 14 47 37 283 34 348 -2 45 1 74 7 75 67 3 169 19 177 27 6 6 8 18 5 26 -6 14 -31 16 -184 14 -98 -1 -201 -3 -230 -5z"/>
<path d="M5333 9633 c-32 -73 -119 -166 -143 -153 -23 12 -42 -3 -38 -31 6 -44 41 -35 92 23 25 29 46 49 46 44 0 -5 -10 -55 -22 -112 -23 -109 -19 -134 22 -134 28 0 35 18 60 145 12 66 31 147 41 180 26 82 25 95 -7 95 -21 0 -29 -9 -51 -57z"/>
<path d="M7855 9500 c-38 -4 -141 -8 -227 -9 -133 -1 -158 -3 -158 -16 0 -13 22 -15 138 -15 203 0 452 20 452 37 0 14 -79 16 -205 3z"/>
<path d="M5533 9477 c-2 -4 1 -14 7 -22 15 -18 114 -20 275 -5 121 12 145 17 145 31 0 11 -419 8 -427 -4z"/>
<path d="M7916 9247 c-12 -12 -48 -67 -79 -122 -31 -55 -65 -113 -77 -130 l-20 -30 0 106 c0 111 -11 144 -45 138 -11 -3 -40 -46 -79 -119 -34 -64 -71 -126 -84 -138 -27 -27 -26 -65 2 -70 26 -5 37 10 42 58 2 24 21 73 43 113 l39 70 -5 -86 c-7 -102 8 -137 56 -137 26 0 34 11 101 133 112 202 114 205 144 200 19 -4 26 -1 26 10 0 12 -19 27 -36 27 -3 0 -15 -10 -28 -23z"/>
<path d="M6735 9208 c-2 -7 -11 -55 -20 -106 -18 -104 -31 -146 -44 -138 -5 3 -21 45 -35 93 -36 119 -47 138 -76 138 -20 0 -25 -6 -28 -30 -4 -45 -44 -185 -53 -185 -6 0 -20 52 -44 166 -8 43 -40 72 -63 57 -21 -14 -19 -74 8 -179 25 -95 52 -136 89 -132 19 2 27 9 29 28 4 43 36 160 42 160 4 0 13 -19 20 -42 30 -102 79 -160 118 -139 14 7 24 37 41 128 31 164 30 163 41 163 6 0 10 7 10 15 0 18 -29 20 -35 3z"/>
<path d="M7074 9142 c-7 -4 -21 -58 -33 -121 -19 -97 -20 -116 -8 -128 7 -8 21 -11 30 -7 17 6 21 16 32 77 5 34 56 107 74 107 8 0 -2 -93 -14 -129 -8 -26 10 -51 36 -51 21 0 34 21 43 71 5 26 20 49 51 78 25 23 49 41 54 41 5 0 7 -26 4 -59 -7 -75 1 -108 29 -117 32 -10 48 20 48 88 0 129 -55 153 -147 65 l-33 -31 0 26 c0 31 -34 60 -59 51 -9 -3 -29 -18 -44 -32 l-29 -26 7 38 c9 49 -12 79 -41 59z"/>
<path d="M6807 8978 c-33 -31 -54 -136 -35 -176 17 -35 71 -62 106 -53 31 8 72 79 72 124 0 45 -28 94 -65 111 -43 21 -49 20 -78 -6z m108 -41 c31 -45 11 -133 -33 -144 -38 -9 -53 19 -48 89 2 32 9 64 15 72 15 18 47 9 66 -17z"/>
<path d="M7931 8970 c-16 -17 -42 -57 -58 -89 -21 -45 -34 -60 -52 -63 -30 -4 -37 -21 -16 -42 14 -14 14 -18 -1 -41 -12 -18 -20 -23 -27 -16 -14 14 -44 14 -52 1 -4 -6 1 -22 10 -36 25 -39 55 -28 82 29 22 45 25 47 63 47 36 0 40 -2 40 -25 0 -44 27 -85 56 -85 25 0 25 1 19 55 -4 31 -3 55 2 55 5 0 9 19 9 43 0 23 4 69 8 103 7 50 6 63 -8 77 -24 24 -40 21 -75 -13z m13 -93 l-16 -86 -32 6 c-17 3 -33 7 -34 9 -2 1 6 24 17 50 22 49 70 118 77 111 2 -2 -3 -42 -12 -90z"/>
<path d="M5938 7815 c-15 -9 -35 -29 -43 -45 -19 -36 -19 -40 0 -40 8 0 12 6 9 14 -6 15 32 56 51 56 22 0 130 -23 137 -29 4 -4 -4 -41 -17 -84 -33 -103 -33 -166 -1 -196 32 -30 91 -37 139 -17 36 15 56 40 43 53 -3 4 -12 1 -18 -5 -7 -7 -31 -12 -55 -12 -71 0 -79 45 -34 190 l20 65 103 1 c102 2 170 16 152 33 -5 5 -85 12 -179 15 -93 4 -195 9 -225 11 -38 4 -63 0 -82 -10z"/>
<path d="M10192 7571 c-10 -6 -10 -10 3 -21 12 -10 46 -12 145 -7 130 6 155 10 145 28 -8 11 -275 12 -293 0z"/>
<path d="M3301 7557 c-26 -13 -40 -37 -22 -37 6 0 11 3 11 8 0 4 54 6 120 4 l119 -3 -4 -27 c-21 -126 -46 -344 -42 -356 10 -25 56 -20 67 7 11 26 50 293 50 342 l0 33 119 4 c119 3 139 7 126 27 -10 16 -512 15 -544 -2z"/>
<path d="M10243 7433 c-3 -7 -2 -20 1 -29 5 -14 24 -15 164 -9 86 4 160 9 165 12 22 13 -2 22 -75 27 -196 13 -250 13 -255 -1z"/>
<path d="M8505 7409 c-82 -4 -604 -12 -1160 -17 -555 -6 -1041 -14 -1080 -17 -38 -4 -438 -10 -887 -14 -450 -4 -820 -10 -824 -13 -3 -4 -3 -12 2 -19 5 -9 178 -11 778 -5 424 3 926 10 1116 15 190 6 626 10 970 11 344 0 715 5 825 11 110 6 409 14 665 17 404 6 465 9 465 22 0 13 -47 15 -360 16 -198 0 -427 -3 -510 -7z"/>
<path d="M3965 7370 c-4 -6 -4 -14 0 -18 4 -4 82 -7 173 -7 142 0 167 2 167 15 0 13 -26 15 -167 18 -112 2 -169 -1 -173 -8z"/>
<path d="M4004 7285 c-4 -9 -3 -20 2 -23 12 -10 350 1 360 11 17 17 -18 22 -182 25 -154 3 -175 2 -180 -13z"/>
<path d="M9102 7239 c-12 -5 -22 -13 -22 -18 0 -9 22 -15 170 -42 99 -19 106 -30 115 -180 8 -149 -10 -736 -30 -997 -8 -103 -18 -262 -22 -355 -4 -100 -11 -174 -18 -183 -6 -9 -33 -20 -60 -25 -57 -11 -60 -13 -51 -35 6 -14 17 -16 76 -11 126 11 140 33 140 224 0 70 7 211 15 313 25 311 40 866 28 1027 -11 157 -27 205 -79 235 -38 22 -234 57 -262 47z"/>
<path d="M5825 7164 c-14 -15 -25 -36 -26 -48 0 -12 0 -239 1 -506 0 -267 -4 -552 -9 -635 -28 -414 -26 -480 20 -526 17 -17 31 -19 122 -17 60 2 102 7 102 13 -1 6 -34 16 -75 23 -45 8 -80 20 -87 29 -15 20 -17 242 -3 403 17 203 23 736 11 988 -14 275 -13 278 48 267 20 -4 39 -12 43 -18 4 -6 10 -8 13 -5 20 19 -51 58 -105 58 -21 0 -39 -9 -55 -26z"/>
<path d="M7105 7055 c-41 -40 -76 -65 -93 -67 -19 -2 -28 -10 -30 -26 -6 -41 26 -38 68 8 22 24 42 41 45 38 3 -3 -13 -47 -35 -99 -34 -78 -38 -95 -27 -106 7 -8 20 -11 29 -8 17 7 138 265 138 295 0 38 -29 28 -95 -35z"/>
<path d="M4817 7040 c-35 -30 -90 -127 -122 -212 -15 -40 -21 -46 -44 -45 -34 3 -42 -34 -12 -55 19 -13 20 -19 10 -81 -16 -105 15 -168 76 -153 12 3 51 34 86 69 l64 63 0 -41 c0 -53 18 -75 61 -75 71 0 175 136 176 230 1 56 -26 83 -81 83 -63 0 -118 -41 -134 -100 -18 -70 -146 -201 -171 -176 -11 11 -6 116 8 175 9 38 25 70 50 99 70 82 125 221 95 240 -21 13 -25 12 -62 -21z m35 -73 c-24 -54 -72 -127 -72 -109 0 14 56 129 73 150 19 24 19 4 -1 -41z m242 -193 c11 -29 6 -50 -25 -112 -30 -61 -72 -102 -103 -102 -20 0 -21 48 -4 133 10 50 18 63 43 79 37 22 81 23 89 2z"/>
<path d="M5215 6788 c-31 -18 -53 -49 -70 -97 -20 -59 -19 -77 6 -102 16 -16 29 -20 50 -15 l29 6 0 -53 c0 -51 -1 -53 -58 -97 -75 -59 -122 -137 -122 -201 0 -56 18 -79 63 -79 24 0 42 11 83 54 44 45 57 67 78 136 14 44 26 93 26 108 0 15 7 38 16 51 11 15 13 25 6 30 -6 3 -14 34 -18 68 -3 35 -13 68 -20 74 -19 16 -43 4 -55 -27 -14 -39 -33 -16 -25 30 7 35 49 96 67 96 15 0 10 -30 -6 -36 -24 -10 -18 -34 9 -34 21 0 25 5 24 33 -1 56 -38 81 -83 55z m0 -419 c-21 -81 -58 -145 -95 -164 -26 -13 -30 -13 -44 1 -23 22 -20 42 14 101 27 47 126 140 137 129 2 -2 -3 -32 -12 -67z"/>
<path d="M6065 6709 c-4 -6 -4 -13 0 -17 4 -4 651 -8 1440 -10 l1432 -3 6 21 5 20 -1438 0 c-1008 0 -1441 -3 -1445 -11z"/>
<path d="M7952 6498 c-5 -7 -15 -33 -22 -58 -7 -25 -21 -62 -31 -82 l-19 -38 -70 0 c-63 0 -70 -2 -70 -20 0 -18 7 -20 61 -20 54 0 60 -2 54 -17 -18 -44 -22 -70 -14 -91 7 -19 15 -22 66 -21 63 1 124 18 131 38 3 9 -12 10 -61 5 -75 -8 -84 0 -63 50 13 32 18 35 75 43 74 10 80 27 12 31 l-49 3 24 56 c26 58 33 101 20 122 -9 15 -31 14 -44 -1z"/>
<path d="M7245 6480 c-75 -29 -162 -111 -196 -185 -38 -79 -37 -109 4 -150 39 -39 123 -61 190 -50 57 10 142 42 157 60 16 19 6 19 -67 0 -68 -18 -135 -18 -183 -2 -102 35 -34 204 112 278 46 23 70 29 106 27 40 -3 47 -6 52 -28 7 -30 39 -39 56 -15 17 22 7 45 -19 45 -11 0 -29 8 -39 17 -28 25 -113 27 -173 3z"/>
<path d="M8335 6329 c-82 -164 -210 -349 -241 -349 -8 0 -14 10 -14 25 0 14 -7 28 -15 31 -23 9 -45 -15 -45 -50 0 -66 48 -75 102 -18 51 53 117 147 163 232 l40 73 3 -47 c3 -39 7 -49 29 -59 23 -10 28 -8 63 33 l39 45 3 -45 c2 -32 8 -46 20 -48 24 -5 38 28 45 101 5 54 3 65 -11 70 -12 5 -25 -2 -39 -19 -12 -14 -34 -40 -50 -58 l-27 -31 2 80 c3 75 2 80 -19 83 -17 3 -27 -7 -48 -49z"/>
<path d="M5342 6349 c-37 -14 -17 -26 43 -26 30 0 58 -3 61 -6 17 -17 -10 -58 -61 -92 -53 -35 -70 -65 -44 -81 13 -8 203 -6 225 3 22 8 11 28 -17 31 -13 1 -44 5 -67 8 l-44 5 41 38 c47 44 52 71 16 106 -20 21 -34 25 -77 24 -29 0 -63 -4 -76 -10z"/>
<path d="M7556 6254 c-82 -85 -95 -109 -74 -131 15 -14 22 -14 90 0 40 9 87 18 103 19 36 4 45 35 21 70 -9 12 -16 33 -16 46 0 34 -18 62 -40 62 -11 0 -48 -30 -84 -66z m54 -4 c0 -12 7 -31 16 -44 15 -24 15 -24 -38 -35 -29 -7 -64 -15 -78 -18 -21 -5 -17 2 30 55 30 33 58 61 63 61 4 1 7 -8 7 -19z"/>
<path d="M6402 6228 c-17 -37 -103 -129 -129 -139 -32 -12 -27 -44 7 -44 16 0 26 7 30 20 6 24 61 98 67 91 3 -2 -5 -47 -17 -99 -24 -105 -24 -135 3 -151 26 -16 43 11 51 83 4 32 18 98 31 146 13 48 21 93 18 101 -8 22 -48 17 -61 -8z"/>
<path d="M6580 6083 c-53 -8 -70 -14 -70 -23 0 -21 320 -4 328 18 3 9 -24 12 -115 11 -65 -1 -129 -3 -143 -6z"/>
<path d="M8383 6031 c-116 -6 -145 -12 -129 -28 9 -9 178 -8 314 2 63 5 92 11 89 18 -4 14 -97 17 -274 8z"/>
<path d="M7047 5986 c-38 -16 95 -25 403 -28 206 -2 308 1 368 11 45 7 82 16 82 20 0 10 -829 7 -853 -3z"/>
<path d="M8662 5793 c-10 -16 -39 -64 -63 -108 l-44 -80 -5 80 c-3 44 -9 86 -13 93 -19 29 -45 11 -88 -60 -56 -96 -106 -161 -130 -170 -20 -8 -26 -33 -10 -42 16 -10 35 3 51 34 8 16 35 59 60 95 l45 66 3 -84 c2 -68 6 -88 22 -102 25 -23 58 -11 65 23 3 15 18 50 32 77 61 118 87 157 109 165 13 5 24 16 24 25 0 25 -37 17 -58 -12z"/>
<path d="M7080 5795 c-14 -17 -9 -34 40 -140 40 -86 77 -129 107 -123 15 3 18 14 20 63 1 33 6 73 10 89 8 27 9 26 27 -30 25 -81 60 -126 94 -122 32 4 54 44 73 128 7 31 21 62 32 71 24 19 16 52 -10 47 -12 -2 -20 -17 -25 -47 -12 -71 -38 -141 -53 -141 -13 0 -30 38 -56 125 -14 50 -26 65 -50 65 -14 0 -23 -16 -39 -66 -11 -36 -20 -77 -20 -90 0 -13 -4 -24 -8 -24 -10 0 -21 21 -64 125 -35 84 -53 100 -78 70z"/>
<path d="M7945 5716 c-16 -7 -46 -31 -66 -53 l-36 -40 -11 29 c-5 15 -17 28 -26 28 -24 0 -36 -33 -36 -104 0 -53 3 -67 18 -75 14 -7 25 -6 42 6 18 13 21 22 17 50 -5 31 -1 39 42 84 68 71 82 67 79 -23 l-3 -73 29 -3 c35 -4 46 10 46 60 0 28 7 42 31 62 17 14 35 26 39 26 5 0 11 -39 12 -87 l3 -88 30 0 c25 0 31 5 36 30 12 54 9 115 -6 144 -25 49 -52 49 -114 3 -25 -19 -36 -22 -39 -13 -6 17 -39 51 -49 51 -5 -1 -21 -7 -38 -14z"/>
<path d="M8707 5561 c-19 -21 -38 -48 -41 -59 -4 -10 -20 -23 -37 -28 -33 -10 -40 -30 -8 -27 19 3 19 2 -1 -37 -11 -22 -27 -40 -34 -40 -21 0 -27 -26 -11 -47 18 -24 50 -6 50 29 1 13 7 38 14 56 12 28 18 32 53 32 39 0 39 -1 33 -29 -9 -43 10 -73 43 -69 20 2 26 8 24 23 -1 11 3 61 10 112 9 74 9 95 -2 107 -22 27 -55 19 -93 -23z m35 -38 c-4 -40 -6 -43 -33 -43 -16 0 -29 4 -29 9 0 15 60 87 66 78 0 -1 -1 -21 -4 -44z"/>
<path d="M7512 5565 c-15 -19 -20 -41 -20 -92 0 -37 4 -75 9 -86 13 -24 49 -37 71 -25 27 14 59 85 61 135 2 38 -2 49 -26 69 -36 31 -70 31 -95 -1z m96 -17 c7 -7 12 -25 12 -40 0 -51 -39 -122 -57 -104 -8 7 -15 127 -8 144 6 15 37 16 53 0z"/>
<path d="M5888 4581 c-42 -3 -82 -11 -89 -18 -20 -20 53 -26 171 -14 119 13 143 18 134 32 -6 10 -89 9 -216 0z"/>
<path d="M6965 4527 c-29 -29 -68 -86 -88 -126 -63 -125 -46 -203 46 -218 31 -5 40 -1 67 25 16 17 30 38 30 47 0 27 -46 65 -80 65 -16 0 -30 5 -30 10 0 24 56 119 101 171 54 61 60 79 27 79 -13 0 -42 -21 -73 -53z m30 -247 c9 -15 -4 -47 -22 -54 -37 -15 -75 22 -52 50 13 16 65 19 74 4z"/>
<path d="M6238 4534 c-45 -14 -98 -61 -98 -88 0 -8 -9 -33 -19 -57 -11 -24 -23 -61 -26 -81 -6 -33 -3 -41 23 -68 37 -36 61 -37 129 -6 212 99 204 364 -9 300z m134 -41 c38 -34 9 -123 -60 -185 -45 -40 -73 -51 -118 -46 -26 3 -29 7 -32 41 -2 26 4 52 22 84 14 25 26 54 26 64 0 24 64 58 109 59 19 0 43 -7 53 -17z"/>
<path d="M5756 4518 c-9 -12 -16 -26 -16 -31 0 -5 -14 -28 -31 -53 -27 -36 -30 -46 -19 -59 16 -19 34 -19 50 0 17 21 69 19 108 -5 62 -38 31 -84 -68 -99 -40 -6 -55 -5 -66 6 -12 13 -15 12 -20 -1 -17 -44 36 -64 127 -48 78 15 106 28 125 58 17 25 17 28 -2 62 -24 46 -77 82 -120 82 -39 0 -40 2 -18 35 35 53 -14 105 -50 53z"/>
<path d="M7274 4526 c-33 -14 -74 -60 -74 -82 0 -28 23 -23 66 15 53 46 93 58 136 40 62 -25 67 -112 11 -171 -94 -100 -247 -82 -188 22 22 38 19 62 -6 58 -31 -4 -60 -49 -66 -99 -6 -55 16 -79 82 -86 63 -8 165 42 202 98 33 50 42 119 19 154 -38 58 -115 80 -182 51z"/>
<path d="M6610 4395 c-15 -18 -7 -43 16 -52 11 -4 24 2 36 17 17 22 17 23 1 36 -24 18 -38 17 -53 -1z"/>
<path d="M13482 4318 c-17 -22 -42 -90 -36 -99 3 -5 14 -9 25 -9 21 0 28 35 8 42 -9 3 -9 10 0 26 12 23 13 22 67 -27 66 -61 121 -81 167 -62 18 7 47 19 66 26 36 13 59 49 40 61 -6 3 -24 -3 -41 -16 -37 -27 -88 -36 -119 -19 -13 7 -45 30 -70 51 -46 39 -88 49 -107 26z"/>
<path d="M3891 4221 c-11 -7 -9 -11 10 -21 16 -9 51 -11 119 -7 99 6 130 13 130 28 0 12 -241 11 -259 0z"/>
<path d="M7950 4200 c-195 -4 -456 -15 -580 -23 -462 -33 -745 -40 -1650 -41 -503 0 -994 1 -1092 4 -163 5 -202 1 -184 -17 19 -20 399 -28 1225 -27 868 2 1144 8 1611 39 463 31 752 37 1760 39 1003 1 1771 -6 2610 -25 223 -5 641 -12 929 -15 511 -7 523 -7 519 12 -3 18 -18 19 -393 20 -321 0 -882 11 -1470 29 -263 8 -2973 12 -3285 5z"/>
<path d="M3859 4124 c-24 -29 6 -37 150 -41 99 -3 141 -1 146 8 15 24 -16 30 -212 43 -55 4 -74 1 -84 -10z"/>
<path d="M13508 4070 c-32 -32 -33 -53 -3 -58 14 -3 17 1 11 21 -9 37 7 40 38 8 39 -40 81 -46 148 -20 60 23 117 63 106 75 -5 4 -30 -5 -57 -19 -62 -34 -109 -35 -157 -2 -20 14 -41 25 -46 25 -5 0 -23 -14 -40 -30z"/>
<path d="M12615 3796 c-5 -2 -23 -7 -38 -10 -49 -11 -18 -26 53 -26 46 0 73 -5 83 -14 10 -11 15 -60 20 -198 3 -100 18 -354 33 -563 35 -515 27 -881 -22 -977 -19 -36 -37 -45 -120 -58 -91 -14 -134 -29 -134 -45 0 -8 3 -16 8 -18 10 -5 189 19 239 32 86 23 114 97 134 352 14 172 9 286 -36 943 -34 503 -38 531 -79 565 -15 12 -120 25 -141 17z"/>
<path d="M5820 3761 c-15 -4 -32 -21 -43 -44 -17 -33 -17 -47 -8 -144 15 -142 14 -1005 0 -1260 -14 -247 -14 -247 83 -256 69 -7 144 3 142 18 -1 6 -24 13 -50 18 -27 4 -60 10 -73 13 l-24 5 9 227 c12 294 5 1036 -11 1222 -7 90 -8 150 -3 157 5 7 37 13 71 15 52 3 59 5 42 14 -26 15 -103 23 -135 15z"/>
<path d="M6996 3685 c-9 -9 -16 -22 -16 -29 0 -17 -61 -73 -85 -78 -28 -5 -27 -42 2 -46 17 -2 26 3 32 20 5 13 16 30 26 38 19 16 19 19 -21 -135 -30 -111 -30 -115 0 -115 19 0 28 10 45 49 29 68 73 244 69 278 -4 33 -28 41 -52 18z"/>
<path d="M4734 3568 c-34 -41 -73 -124 -94 -203 -14 -48 -22 -61 -41 -65 -33 -8 -38 -52 -9 -73 16 -11 21 -24 19 -49 -4 -65 1 -89 26 -113 35 -36 60 -31 120 26 51 48 54 49 60 27 12 -38 46 -68 77 -68 37 0 97 48 126 99 22 38 28 84 16 116 -9 23 -57 45 -98 45 -46 0 -116 -59 -116 -98 0 -32 -91 -125 -117 -120 -16 3 -18 15 -18 105 0 97 1 102 31 144 39 55 78 131 94 186 11 34 11 45 0 58 -20 24 -46 18 -76 -17z m26 -115 c-23 -46 -44 -82 -47 -79 -8 8 24 93 54 145 44 75 39 26 -7 -66z m256 -198 c21 -32 7 -76 -38 -122 -43 -45 -83 -45 -92 -2 -3 17 -1 39 4 49 6 10 10 30 10 44 0 53 86 77 116 31z"/>
<path d="M5127 3332 c-43 -48 -63 -166 -32 -192 8 -7 27 -10 41 -7 l27 5 -6 -96 c-5 -91 -7 -97 -34 -116 -58 -40 -132 -124 -143 -163 -32 -107 92 -150 168 -58 33 41 57 112 71 209 6 40 17 77 28 89 16 18 16 20 1 14 -15 -5 -17 5 -16 97 0 116 -6 146 -30 146 -12 0 -13 3 -4 12 7 7 12 21 12 33 0 44 -52 61 -83 27z m58 -44 c-4 -18 -11 -37 -15 -43 -4 -5 -10 -19 -13 -30 -3 -15 -5 -13 -6 8 -1 28 23 97 34 97 4 0 3 -15 0 -32z m-46 -425 c-13 -72 -38 -131 -62 -148 -47 -33 -95 -8 -83 42 7 26 127 153 145 153 5 0 5 -21 0 -47z"/>
<path d="M7395 3309 c-209 -4 -533 -15 -720 -23 -187 -8 -424 -18 -527 -22 -177 -6 -224 -15 -161 -30 25 -7 404 5 863 26 118 6 503 11 855 13 704 2 2915 -12 2927 -19 4 -2 161 -9 350 -14 189 -5 476 -14 638 -20 162 -6 410 -10 550 -8 219 3 255 5 255 18 0 13 -65 16 -502 21 -275 4 -530 9 -565 13 -53 5 -615 25 -873 31 -44 1 -510 5 -1035 8 -525 4 -1117 9 -1315 11 -198 2 -531 0 -740 -5z"/>
<path d="M10392 3109 c-30 -12 -19 -29 19 -29 36 0 37 -12 4 -34 -32 -21 -33 -54 -2 -60 12 -3 31 -7 42 -9 11 -3 -1 -5 -26 -6 -44 -1 -77 -20 -62 -34 3 -4 44 -7 89 -7 72 0 85 3 94 19 13 26 5 46 -27 60 -20 9 -23 14 -13 26 7 9 10 26 6 40 -10 39 -70 56 -124 34z"/>
<path d="M7063 3058 c-6 -7 -25 -41 -43 -76 -21 -40 -39 -62 -49 -61 -29 3 -39 -1 -45 -17 -8 -20 11 -54 29 -54 18 0 18 -4 4 -53 -13 -50 -4 -77 26 -77 19 0 26 7 30 28 3 15 23 81 46 147 23 66 42 131 42 145 2 27 -23 39 -40 18z"/>
<path d="M8477 3052 c-31 -34 -60 -117 -65 -182 -4 -60 -2 -67 23 -90 38 -35 94 -34 134 4 39 37 43 60 19 92 -18 22 -27 25 -60 22 l-40 -4 6 40 c4 21 15 57 25 80 11 22 17 44 15 48 -9 14 -41 8 -57 -10z m110 -199 c6 -17 -33 -53 -58 -53 -16 0 -19 4 -13 23 3 12 11 28 17 35 12 15 49 12 54 -5z"/>
<path d="M7934 3033 c-58 -61 -88 -177 -60 -231 23 -44 51 -58 80 -38 31 20 61 129 61 221 0 69 0 70 -27 73 -20 2 -35 -5 -54 -25z m71 -60 c-10 -81 -37 -158 -55 -158 -25 0 -15 99 16 162 34 70 47 68 39 -4z"/>
<path d="M9100 3046 c-74 -41 -124 -187 -84 -244 50 -71 174 -66 174 7 0 43 -29 71 -78 78 -23 3 -42 7 -42 10 0 2 7 20 16 41 26 64 101 126 87 72 -4 -14 0 -20 10 -20 28 0 29 21 2 46 -29 27 -49 29 -85 10z m54 -192 c23 -9 20 -51 -4 -59 -38 -12 -79 33 -53 58 8 9 36 9 57 1z"/>
<path d="M10111 3040 c-7 -4 -11 -16 -9 -26 4 -24 73 -31 135 -13 59 16 54 29 -11 29 -30 0 -65 4 -79 9 -13 5 -29 6 -36 1z"/>
<path d="M8227 3001 c-46 -51 -85 -170 -68 -207 16 -36 53 -50 91 -34 44 18 99 98 112 164 11 51 10 58 -8 83 -15 20 -32 29 -56 31 -30 3 -40 -3 -71 -37z m123 -37 c0 -67 -60 -164 -101 -164 -24 0 -30 25 -19 77 13 56 25 80 58 115 33 36 62 23 62 -28z"/>
<path d="M9397 3022 c-9 -10 -23 -35 -32 -56 -9 -20 -29 -45 -45 -54 -34 -19 -39 -51 -10 -59 15 -4 20 -14 20 -38 0 -42 24 -69 49 -55 13 6 20 26 24 69 4 33 16 88 27 122 16 47 18 64 9 75 -15 18 -23 18 -42 -4z"/>
<path d="M7417 3000 c-49 -39 -93 -205 -64 -244 49 -66 169 51 171 167 1 41 -3 52 -27 73 -34 29 -47 30 -80 4z m81 -22 c39 -39 -20 -188 -74 -188 -14 0 -16 8 -11 48 3 26 15 67 26 92 28 64 36 71 59 48z"/>
<path d="M7205 2976 c-43 -19 -72 -64 -86 -134 -11 -53 -11 -63 4 -86 28 -42 68 -35 111 17 70 85 85 161 40 196 -31 24 -30 24 -69 7z m75 -36 c15 -28 -3 -81 -42 -126 -40 -45 -58 -44 -58 4 1 63 45 140 82 142 4 0 12 -9 18 -20z"/>
<path d="M9806 2941 c-22 -22 -51 -41 -65 -43 -18 -2 -27 -10 -29 -25 -3 -22 6 -28 36 -24 10 2 11 -2 3 -18 -16 -29 -13 -68 5 -75 22 -8 40 8 47 42 3 15 22 53 41 86 20 32 36 67 36 77 0 31 -33 22 -74 -20z"/>
<path d="M9944 2938 c-41 -19 -71 -114 -47 -147 24 -35 74 -28 120 18 48 46 60 83 38 117 -12 19 -24 24 -53 23 -20 0 -47 -5 -58 -11z m106 -37 c0 -41 -79 -106 -96 -79 -9 15 3 51 26 76 26 28 70 30 70 3z"/>
<path d="M5342 2908 c3 -20 9 -23 45 -23 76 0 71 -28 -14 -77 -39 -23 -58 -41 -58 -54 0 -17 9 -19 97 -22 109 -3 189 7 195 25 3 9 -22 13 -89 15 l-93 3 36 23 c85 53 36 132 -81 132 -37 0 -41 -2 -38 -22z"/>
<path d="M9573 2903 c-16 -6 -17 -35 -1 -51 17 -17 43 -15 59 4 11 14 9 19 -11 35 -27 20 -28 20 -47 12z"/>
<path d="M8781 2878 c-10 -26 3 -58 22 -58 25 0 39 18 35 46 -4 38 -44 47 -57 12z"/>
<path d="M7681 2876 c-23 -28 17 -68 45 -45 20 16 17 37 -5 49 -25 13 -26 13 -40 -4z"/>
<path d="M8045 2818 c-8 -28 -15 -69 -15 -90 0 -34 3 -38 25 -38 20 0 26 7 35 43 6 23 15 56 21 73 12 40 3 64 -27 64 -19 0 -26 -8 -39 -52z"/>
<path d="M6213 2776 c-15 -27 -102 -86 -126 -86 -28 0 -43 -26 -26 -46 18 -22 26 -18 81 36 28 28 52 49 53 48 1 -2 -6 -47 -17 -101 -12 -57 -17 -112 -14 -131 12 -61 66 -54 66 8 0 17 9 82 21 143 12 62 19 120 15 128 -7 19 -42 20 -53 1z"/>
<path d="M11565 2669 c-827 -13 -1532 -28 -1810 -39 -369 -15 -1471 -20 -1970 -9 -358 8 -620 24 -747 45 -30 5 -38 3 -38 -8 0 -9 6 -20 13 -25 15 -12 232 -30 502 -43 417 -20 2463 -8 2585 15 27 5 749 20 1703 34 324 5 591 12 594 14 3 3 2 10 -2 16 -7 12 -62 12 -830 0z"/>
<path d="M6373 2654 c-21 -9 -15 -31 10 -38 80 -22 267 -12 267 13 0 5 -51 11 -112 15 -62 4 -122 9 -133 11 -11 2 -26 1 -32 -1z"/>
<path d="M10344 2471 c-70 -42 -118 -216 -80 -286 49 -91 176 -63 176 39 0 35 -45 69 -82 61 -33 -8 -36 6 -14 79 17 55 41 86 68 86 24 0 23 17 -1 30 -26 14 -31 13 -67 -9z m81 -231 c8 -13 -20 -59 -41 -67 -9 -3 -22 1 -31 9 -13 14 -13 18 8 42 23 27 53 34 64 16z"/>
<path d="M12044 2480 c-26 -10 -42 -32 -23 -29 8 1 27 1 43 0 28 -1 28 -2 13 -19 -34 -37 -22 -60 48 -91 36 -16 65 -34 65 -39 0 -9 -32 -18 -128 -38 -42 -8 -12 -24 46 -24 86 0 131 10 143 32 15 28 3 51 -41 79 -75 45 -74 44 -61 67 14 27 6 46 -25 61 -29 13 -50 13 -80 1z"/>
<path d="M8475 2428 c-33 -74 -54 -153 -45 -167 19 -31 45 -5 77 78 39 101 43 141 12 141 -15 0 -26 -14 -44 -52z"/>
<path d="M8614 2472 c-13 -8 -34 -46 -34 -61 0 -22 41 -51 70 -51 37 0 37 -6 3 -42 -29 -30 -61 -36 -93 -16 -15 10 -22 10 -31 1 -16 -16 -4 -41 26 -55 36 -16 87 10 121 61 14 22 35 43 45 46 22 7 25 21 5 28 -9 4 -12 14 -9 26 9 34 -22 71 -60 71 -17 0 -37 -4 -43 -8z m84 -50 c3 -31 2 -32 -22 -20 -28 12 -33 27 -14 46 19 19 33 9 36 -26z"/>
<path d="M11788 2426 c-26 -20 -23 -22 29 -22 25 1 48 -4 50 -10 2 -6 -14 -33 -37 -60 -70 -85 -44 -130 56 -98 30 9 54 21 54 25 0 5 -21 9 -46 9 l-47 0 42 45 c47 51 53 86 19 109 -27 19 -96 20 -120 2z"/>
<path d="M7253 2380 c-44 -27 -85 -110 -53 -110 5 0 7 7 4 15 -8 20 60 88 83 83 15 -3 18 -14 17 -61 -2 -76 -37 -146 -85 -169 -19 -10 -48 -31 -63 -47 -52 -54 -7 -83 63 -40 l33 20 35 -40 c29 -34 41 -41 72 -41 35 0 61 14 61 32 0 4 -13 8 -29 8 -22 0 -38 10 -64 41 l-35 40 34 57 c57 94 65 153 28 210 -18 28 -58 29 -101 2z"/>
<path d="M8138 2374 c-5 -4 -8 -13 -8 -21 0 -10 23 -13 100 -13 82 0 100 3 100 15 0 10 -10 15 -34 15 -18 0 -60 3 -92 6 -32 3 -62 3 -66 -2z"/>
<path d="M10028 2333 c-29 -7 -20 -21 21 -34 26 -8 48 -8 67 -2 44 15 42 33 -4 33 -22 0 -46 2 -54 4 -7 2 -21 2 -30 -1z"/>
<path d="M11514 2313 c-16 -48 -59 -123 -70 -123 -22 0 -27 -20 -9 -40 14 -15 15 -25 6 -57 -17 -61 -14 -101 9 -108 26 -8 40 1 40 26 0 11 19 80 42 153 22 73 38 141 35 150 -8 21 -46 21 -53 -1z"/>
<path d="M7843 2298 c-6 -7 -23 -37 -37 -66 -16 -31 -36 -56 -50 -62 -36 -13 -42 -31 -18 -51 15 -12 22 -28 22 -53 0 -25 6 -38 21 -46 29 -16 49 4 49 49 0 20 12 68 26 106 31 85 35 128 13 133 -9 1 -21 -3 -26 -10z"/>
<path d="M10931 2288 c-37 -34 -75 -126 -79 -194 -4 -57 -2 -64 26 -95 25 -28 37 -34 72 -34 34 0 47 6 66 28 27 32 31 69 9 87 -8 7 -35 15 -60 18 -35 3 -45 9 -45 23 0 31 39 125 60 144 19 18 20 17 20 -3 0 -12 5 -22 10 -22 14 0 13 43 -2 58 -18 18 -52 14 -77 -10z m87 -231 c7 -23 -18 -57 -44 -57 -19 0 -54 36 -54 55 0 12 10 15 48 13 26 -2 48 -7 50 -11z"/>
<path d="M7982 2258 c-51 -23 -72 -62 -72 -132 0 -116 148 -115 196 1 27 64 17 116 -27 138 -35 19 -44 18 -97 -7z m110 -25 c22 -20 23 -45 2 -90 -22 -44 -56 -67 -89 -59 -22 6 -25 12 -25 48 0 23 7 48 15 57 8 9 23 26 35 39 24 26 37 28 62 5z"/>
<path d="M9313 2262 c-12 -2 -43 -22 -68 -45 -44 -41 -46 -46 -48 -101 -2 -50 1 -60 22 -77 14 -11 39 -19 62 -19 33 0 47 7 84 44 54 54 70 104 50 152 -8 19 -15 34 -17 34 -2 0 -17 4 -33 8 -17 4 -40 6 -52 4z m85 -44 c42 -42 -30 -158 -98 -158 -53 0 -55 69 -4 128 37 44 77 55 102 30z"/>
<path d="M11681 2255 c-55 -14 -71 -37 -78 -114 -5 -54 -3 -62 20 -85 36 -36 69 -33 117 10 60 55 75 139 32 177 -26 22 -43 24 -91 12z m99 -68 c0 -41 -18 -75 -52 -100 -38 -28 -58 -10 -58 52 0 53 4 60 45 83 40 22 65 9 65 -35z"/>
<path d="M9106 2233 c-19 -38 -55 -69 -89 -77 -22 -5 -28 -12 -25 -29 5 -34 45 -35 58 -1 14 37 23 25 9 -14 -6 -17 -9 -45 -7 -64 2 -25 8 -34 26 -36 12 -2 24 2 25 10 2 7 19 59 37 115 18 56 29 106 26 112 -13 20 -45 11 -60 -16z"/>
<path d="M9919 2225 c-49 -38 -57 -56 -58 -132 -2 -100 64 -121 142 -45 47 45 67 81 67 121 0 43 -9 60 -41 76 -42 22 -62 19 -110 -20z m122 -14 c21 -17 22 -21 11 -59 -14 -45 -74 -105 -100 -100 -11 2 -18 15 -20 37 -6 60 6 94 41 119 38 27 39 27 68 3z"/>
<path d="M9769 2188 c-24 -48 -48 -70 -66 -63 -21 7 -43 -6 -43 -26 0 -19 27 -39 45 -33 6 2 10 -14 10 -38 0 -38 3 -43 23 -43 21 0 27 10 46 70 13 39 30 84 39 102 25 48 22 73 -8 73 -19 0 -30 -10 -46 -42z"/>
<path d="M7511 2191 c-16 -30 -13 -71 5 -78 29 -11 49 11 49 53 0 32 -4 40 -22 42 -14 2 -26 -4 -32 -17z"/>
<path d="M8814 2165 c-9 -22 9 -37 37 -33 16 2 24 10 24 23 0 26 -52 35 -61 10z"/>
<path d="M11205 2170 c-10 -16 4 -30 31 -30 17 0 24 5 24 20 0 15 -7 20 -24 20 -14 0 -28 -4 -31 -10z"/>
<path d="M10596 2154 c-7 -19 10 -44 30 -44 16 0 37 37 29 50 -10 16 -52 11 -59 -6z"/>
<path d="M9545 2150 c-10 -15 14 -50 34 -50 28 0 46 26 31 45 -14 17 -56 20 -65 5z"/>
<path d="M4664 1250 c-28 -4 -59 -12 -71 -18 -23 -13 -86 -135 -81 -159 5 -28 34 -39 55 -21 48 44 76 -50 28 -97 -29 -30 -43 -31 -61 -7 -12 15 -13 14 -14 -14 0 -66 66 -70 138 -8 33 28 42 42 42 67 0 42 -33 95 -69 110 -27 12 -28 14 -15 37 7 14 13 35 14 46 0 20 7 22 105 29 75 5 105 11 105 20 0 23 -75 30 -176 15z"/>
<path d="M5053 1233 c-46 -9 -21 -23 42 -23 36 0 65 -3 65 -7 0 -3 -14 -37 -31 -75 l-32 -68 -48 0 c-26 0 -54 -3 -63 -6 -25 -10 -19 -24 12 -24 15 0 37 -3 50 -6 l22 -6 -20 -33 c-28 -45 -27 -77 2 -73 15 2 33 21 53 55 l30 53 65 0 c126 1 150 24 35 35 l-75 7 31 58 c28 54 29 62 17 87 -12 26 -18 28 -73 29 -33 1 -70 0 -82 -3z"/>
<path d="M5810 1234 c-85 -13 -129 -27 -150 -49 -33 -35 -21 -67 40 -104 63 -39 67 -72 17 -128 -36 -39 -57 -38 -57 2 0 22 -23 55 -38 55 -20 -1 -35 -22 -34 -48 2 -85 78 -116 130 -53 27 33 54 103 48 126 -3 13 -29 43 -56 66 -48 40 -60 62 -41 73 4 3 74 12 156 20 81 8 149 17 152 20 22 22 -75 33 -167 20z"/>
<path d="M5433 1208 c-17 -22 -63 -184 -63 -221 0 -38 19 -53 43 -34 24 18 85 219 76 245 -9 24 -41 29 -56 10z"/>
<path d="M3856 1110 c-39 -42 -42 -70 -7 -70 22 0 34 23 19 38 -8 8 -8 16 2 27 18 22 41 19 80 -10 78 -57 155 -57 210 0 38 39 28 46 -22 15 -43 -26 -55 -25 -124 10 -82 41 -111 40 -158 -10z"/>
<path d="M6183 1070 c-55 -33 -81 -112 -50 -154 28 -39 125 -39 255 1 54 17 73 40 25 29 -16 -3 -64 -9 -108 -12 -69 -6 -83 -4 -98 10 -24 24 -21 53 8 81 24 25 85 35 85 15 0 -5 9 -10 21 -10 29 0 19 20 -21 42 -44 23 -77 23 -117 -2z"/>
<path d="M3845 957 c-25 -14 -54 -48 -55 -64 0 -7 9 -13 21 -13 16 0 19 4 14 21 -5 14 -2 25 6 30 10 6 25 -4 50 -31 34 -37 41 -40 87 -40 30 0 81 11 124 27 85 30 85 31 72 42 -5 5 -32 1 -64 -9 -84 -28 -133 -26 -172 8 -42 36 -60 43 -83 29z"/>
</g><g transform="translate(1136.049777, 2252.944402) scale(0.40808740102544044)"><g transform="translate(-57.706759,297.537395) scale(0.100000,-0.100000)" fill="#000000" stroke="none">
<path d="M750 2973 c-57 -10 -88 -25 -119 -57 -40 -41 -55 -100 -46 -179 6 -45 12 -61 32 -77 32 -25 35 -25 64 -1 22 17 24 26 21 89 -4 105 24 120 164 87 33 -7 119 -19 190 -25 88 -8 134 -16 144 -26 32 -32 8 -420 -28 -456 -18 -18 -126 -28 -289 -28 -185 0 -206 -4 -250 -52 -55 -58 -58 -82 -55 -363 1 -145 7 -274 13 -293 11 -34 51 -62 89 -62 12 0 35 14 52 31 l31 30 -6 238 c-3 130 -3 249 0 264 l5 27 112 0 c234 1 363 26 423 82 58 54 98 260 91 463 -4 122 -7 138 -34 191 -40 81 -79 100 -217 108 -174 10 -361 14 -387 9z" fill="#4444bb"/>
<path d="M3660 2971 c-42 -9 -83 -34 -103 -65 -39 -59 -50 -127 -54 -343 -5 -206 -5 -212 18 -252 28 -50 78 -86 143 -102 48 -12 257 -8 370 7 l49 7 -7 -104 c-4 -57 -11 -189 -16 -294 -9 -177 -9 -192 8 -214 35 -47 100 -46 136 2 22 29 27 86 42 452 7 191 0 235 -44 283 -45 48 -92 56 -241 38 -146 -18 -229 -20 -265 -6 l-26 10 0 162 c0 156 8 230 27 249 5 5 99 6 210 2 l201 -6 5 -50 c3 -39 11 -56 31 -74 34 -29 48 -29 80 0 24 20 26 30 28 113 4 147 -23 169 -218 179 -242 11 -340 13 -374 6z" fill="#4444bb"/>
<path d="M1565 2945 c-14 -13 -25 -32 -25 -42 0 -10 -1 -297 -3 -638 -2 -677 -3 -662 55 -694 33 -19 73 -7 101 31 18 24 20 51 29 300 5 150 10 278 12 283 2 6 37 8 97 3 52 -3 135 -7 186 -7 154 -2 161 -10 143 -176 -21 -189 -27 -310 -18 -343 12 -45 45 -72 86 -72 71 0 102 46 102 151 0 33 7 118 16 187 24 190 9 280 -58 349 -50 52 -112 67 -263 65 -71 -1 -164 -6 -205 -11 -41 -4 -78 -7 -81 -5 -4 2 -10 108 -13 236 -9 286 -17 352 -47 384 -31 33 -82 32 -114 -1z" fill="#4444bb"/>
<path d="M2542 2944 c-55 -38 -64 -109 -53 -419 6 -186 9 -215 28 -250 50 -95 116 -125 302 -135 75 -4 171 -5 215 -1 l78 7 -4 -178 c-2 -97 -7 -181 -11 -184 -4 -4 -42 1 -85 11 -104 26 -285 27 -363 3 -106 -33 -149 -107 -99 -170 26 -34 68 -41 132 -21 74 23 202 20 308 -7 182 -47 274 5 301 168 12 77 27 831 19 994 -7 152 -20 181 -86 186 -88 7 -103 -51 -104 -401 l0 -219 -201 4 c-197 3 -201 3 -220 27 -18 21 -19 42 -19 283 l0 260 -29 29 c-33 33 -74 38 -109 13z" fill="#4444bb"/>
<path d="M2374 1391 c-55 -34 -79 -78 -79 -147 0 -51 4 -66 27 -96 35 -45 102 -73 153 -64 78 15 146 111 131 188 -20 108 -145 172 -232 119z" fill="#4444bb"/>
<path d="M1853 999 c-39 -11 -66 -56 -61 -101 6 -59 69 -64 76 -6 4 30 34 38 145 38 l67 0 0 -110 c0 -135 -1 -136 -132 -126 -85 6 -89 6 -113 -18 -24 -25 -25 -28 -25 -179 0 -162 4 -177 47 -177 35 0 43 29 43 159 l0 121 73 0 c85 0 141 14 168 41 17 17 19 34 19 169 0 147 -1 152 -25 175 -23 24 -30 25 -137 24 -62 0 -128 -5 -145 -10z" fill="#4444bb"/>
<path d="M2985 1000 c-91 -16 -93 -18 -104 -58 -15 -51 -14 -537 0 -564 19 -36 69 -48 204 -48 121 0 127 1 151 25 l24 24 -2 292 -3 292 -26 19 c-31 23 -161 33 -244 18z m169 -86 c14 -5 16 -37 16 -250 l0 -245 -102 3 -103 3 0 240 0 240 40 6 c57 9 131 10 149 3z" fill="#4444bb"/>
<path d="M2351 971 c-24 -24 -29 -73 -37 -372 -6 -232 -6 -237 15 -258 23 -23 29 -25 51 -11 12 7 16 40 20 150 l5 141 35 -23 c19 -13 59 -55 88 -93 30 -39 78 -96 108 -128 47 -51 56 -57 74 -47 29 16 25 42 -15 92 -19 24 -62 78 -95 121 -61 77 -61 77 -33 77 15 0 46 9 69 19 56 26 67 57 62 179 -6 156 -27 172 -220 172 -93 0 -111 -3 -127 -19z m257 -74 c16 -13 17 -168 0 -185 -7 -7 -41 -12 -84 -12 -40 0 -84 -4 -98 -10 l-26 -10 0 120 0 119 98 -6 c53 -3 103 -10 110 -16z" fill="#4444bb"/>
</g>
</g>
</svg>
