<?xml version="1.0" encoding="UTF-8" standalone="no"?>
<!-- Created with Inkscape (http://www.inkscape.org/) -->

<svg
   width="77.443802mm"
   height="51.587173mm"
   viewBox="0 0 77.443802 51.587174"
   version="1.1"
   id="svg1"
   xml:space="preserve"
   inkscape:version="1.3.2 (091e20e, 2023-11-25)"
   sodipodi:docname="1256t.svg"
   xmlns:inkscape="http://www.inkscape.org/namespaces/inkscape"
   xmlns:sodipodi="http://sodipodi.sourceforge.net/DTD/sodipodi-0.dtd"
   xmlns="http://www.w3.org/2000/svg"
   xmlns:svg="http://www.w3.org/2000/svg"><sodipodi:namedview
     id="namedview1"
     pagecolor="#ffffff"
     bordercolor="#000000"
     borderopacity="0.25"
     inkscape:showpageshadow="2"
     inkscape:pageopacity="0.0"
     inkscape:pagecheckerboard="0"
     inkscape:deskcolor="#d1d1d1"
     inkscape:document-units="mm"
     inkscape:zoom="1.666622"
     inkscape:cx="131.70353"
     inkscape:cy="106.20285"
     inkscape:current-layer="layer1" /><defs
     id="defs1" /><g
     inkscape:label="Layer 1"
     inkscape:groupmode="layer"
     id="layer1"
     transform="translate(15.13032,-51.792965)"><path
       style="opacity:1;fill:none;fill-opacity:1;fill-rule:evenodd;stroke:#000000;stroke-width:1.7;stroke-linejoin:bevel;stroke-dashoffset:25.3985;stroke-opacity:0.938343;paint-order:stroke fill markers"
       d="M -15.13032,102.53014 H 61.870155 L -14.650566,55.754153"
       id="path1" /><path
       style="font-variation-settings:normal;opacity:1;fill:none;fill-opacity:1;fill-rule:evenodd;stroke:#000000;stroke-width:1;stroke-linecap:butt;stroke-linejoin:miter;stroke-miterlimit:4;stroke-dasharray:none;stroke-dashoffset:0;stroke-opacity:1;stop-color:#000000;stop-opacity:1"
       id="path2"
       sodipodi:type="arc"
       sodipodi:cx="61.322952"
       sodipodi:cy="102.7746"
       sodipodi:rx="16.228313"
       sodipodi:ry="16.228313"
       sodipodi:start="3.1415927"
       sodipodi:end="3.7387693"
       sodipodi:open="true"
       sodipodi:arc-type="arc"
       d="M 45.094639,102.7746 A 16.228313,16.228313 0 0 1 47.90333,93.649254" /><rect
       style="opacity:1;fill:none;fill-opacity:1;fill-rule:evenodd;stroke:#000000;stroke-width:0.999997;stroke-linejoin:bevel;stroke-dasharray:none;stroke-dashoffset:25.3985;stroke-opacity:0.938343;paint-order:stroke fill markers"
       id="rect2"
       width="18.640202"
       height="18.640202"
       x="42.507591"
       y="35.212273"
       transform="rotate(31.454898)" /><rect
       style="opacity:1;fill:none;fill-opacity:1;fill-rule:evenodd;stroke:#000000;stroke-width:0.999997;stroke-linejoin:bevel;stroke-dasharray:none;stroke-dashoffset:25.3985;stroke-opacity:0.938343;paint-order:stroke fill markers"
       id="rect3"
       width="18.640202"
       height="18.640202"
       x="62.15139"
       y="35.234383"
       transform="rotate(31.454898)" /><g
       id="g4"><path
         d="m 21.509829,67.85891 q -0.375356,0 -0.513645,-0.1778 -0.138288,-0.187678 -0.138288,-0.404989 0,-0.118533 0.01975,-0.227189 0.01976,-0.118533 0.02963,-0.158044 l 0.503766,-1.916287 q 0.04939,-0.197556 0.09878,-0.434622 0.05927,-0.246945 0.05927,-0.404989 0,-0.167922 -0.05927,-0.276577 -0.05927,-0.118534 -0.227189,-0.118534 -0.187678,0 -0.434622,0.207433 -0.237067,0.197556 -0.493889,0.523522 -0.256822,0.325967 -0.493888,0.7112 -0.237067,0.375355 -0.414866,0.730955 -0.1778,0.345722 -0.2667,0.602544 L 19.514519,65.2413 q 0.148166,-0.286455 0.375355,-0.66181 0.227189,-0.375356 0.513644,-0.730955 0.296333,-0.3556 0.642055,-0.582789 0.3556,-0.237066 0.750711,-0.237066 0.3556,0 0.484011,0.217311 0.128411,0.217311 0.128411,0.484011 0,0.187677 -0.03951,0.404988 -0.03951,0.217311 -0.05927,0.325967 l -0.543277,2.281764 q 0,0 -0.01976,0.07902 -0.0099,0.06914 -0.0099,0.158044 0,0.187678 0.187678,0.187678 0.256822,0 0.434622,-0.187678 0.187677,-0.187678 0.306211,-0.325966 l 0.197555,0.148166 q -0.09878,0.138289 -0.227189,0.316089 -0.118533,0.1778 -0.286455,0.355599 -0.158044,0.167923 -0.365477,0.276578 -0.207434,0.108656 -0.474133,0.108656 z m -5.235219,-0.09878 h -0.809977 l 0.790222,-3.753553 q 0,0 0.0099,-0.108655 0.01976,-0.108656 0.01976,-0.217311 0,-0.128411 -0.06914,-0.197556 -0.06915,-0.06914 -0.246945,-0.06914 -0.09878,0 -0.207433,0.0099 -0.108655,0.0099 -0.108655,0.0099 v -0.266699 l 1.353254,-0.108656 h 0.227189 l -0.484011,2.143476 h 0.108656 z m 2.637365,0 H 18.09212 q 0.108655,-0.395111 0.207433,-0.790222 0.108656,-0.404988 0.207433,-0.800099 0.09878,-0.404989 0.187678,-0.809977 0.09878,-0.404989 0.187678,-0.819855 0,0 0.01975,-0.138289 0.02963,-0.148167 0.02963,-0.2667 0,-0.167922 -0.05927,-0.276577 -0.05927,-0.118534 -0.227189,-0.118534 -0.246944,0 -0.543277,0.276578 -0.296333,0.276577 -0.602544,0.711199 -0.296333,0.434622 -0.553155,0.928511 -0.256822,0.48401 -0.424745,0.898877 l 0.246945,-1.244599 q 0.148166,-0.286456 0.375355,-0.671689 0.227189,-0.385233 0.523522,-0.75071 0.306211,-0.365478 0.681566,-0.612422 0.375355,-0.246944 0.800099,-0.246944 0.365478,0 0.484011,0.217311 0.128411,0.217311 0.128411,0.484011 0,0.21731 -0.03951,0.454377 -0.03951,0.237066 -0.04939,0.276578 l -0.187677,0.740832 h 0.138288 l -0.444499,1.313744 z"
         id="text3"
         style="font-style:italic;font-size:9.87777px;font-family:'STIX Two Text';-inkscape-font-specification:'STIX Two Text, Italic';baseline-shift:baseline;stroke-width:0.449792"
         aria-label="m" /><path
         d="M 26.383324,69.982689 H 23.69798 v -0.217311 q 0.551039,0 0.776111,-0.116417 0.225072,-0.116416 0.225072,-0.403578 v -3.282949 q 0,-0.201789 -0.05433,-0.287161 -0.05433,-0.09313 -0.201788,-0.09313 -0.07761,0 -0.217312,0.01552 -0.1397,0.01552 -0.294922,0.04657 -0.155222,0.02328 -0.2794,0.06209 v -0.256116 l 1.505656,-0.426861 h 0.225072 v 4.222043 q 0,0.287162 0.232833,0.403578 0.232833,0.116417 0.76835,0.116417 z"
         id="text4"
         style="font-size:7.76111px;font-family:'STIX Two Text';-inkscape-font-specification:'STIX Two Text, Normal';baseline-shift:baseline;stroke-width:0.449792"
         aria-label="1" /></g><path
       d="m 37.544009,78.01918 q -0.375355,0 -0.513644,-0.1778 -0.138289,-0.187677 -0.138289,-0.404988 0,-0.118533 0.01976,-0.227189 0.01976,-0.118533 0.02963,-0.158044 l 0.503766,-1.916288 q 0.04939,-0.197555 0.09878,-0.434622 0.05927,-0.246944 0.05927,-0.404988 0,-0.167922 -0.05927,-0.276578 -0.05927,-0.118533 -0.227189,-0.118533 -0.187677,0 -0.434621,0.207433 -0.237067,0.197556 -0.493889,0.523522 -0.256822,0.325966 -0.493888,0.711199 -0.237067,0.375356 -0.414867,0.730955 -0.1778,0.345722 -0.2667,0.602544 L 35.5487,75.401571 q 0.148166,-0.286455 0.375355,-0.661811 0.227189,-0.375355 0.513644,-0.730955 0.296333,-0.355599 0.642055,-0.582788 0.3556,-0.237067 0.750711,-0.237067 0.355599,0 0.48401,0.217311 0.128411,0.217311 0.128411,0.484011 0,0.187678 -0.03951,0.404989 -0.03951,0.217311 -0.05927,0.325966 l -0.543278,2.281765 q 0,0 -0.01976,0.07902 -0.0099,0.06914 -0.0099,0.158045 0,0.187677 0.187678,0.187677 0.256822,0 0.434621,-0.187677 0.187678,-0.187678 0.306211,-0.325967 l 0.197556,0.148167 q -0.09878,0.138289 -0.227189,0.316088 -0.118533,0.1778 -0.286455,0.3556 -0.158045,0.167922 -0.365478,0.276578 -0.207433,0.108655 -0.474133,0.108655 z m -5.235218,-0.09878 h -0.809977 l 0.790221,-3.753553 q 0,0 0.0099,-0.108656 0.01976,-0.108655 0.01976,-0.217311 0,-0.128411 -0.06914,-0.197555 -0.06914,-0.06914 -0.246944,-0.06914 -0.09878,0 -0.207433,0.0099 -0.108656,0.0099 -0.108656,0.0099 v -0.2667 l 1.353255,-0.108655 h 0.227189 l -0.484011,2.143476 h 0.108655 z m 2.637365,0 h -0.819855 q 0.108655,-0.395111 0.207433,-0.790222 0.108655,-0.404989 0.207433,-0.8001 0.09878,-0.404988 0.187678,-0.809977 0.09878,-0.404988 0.187677,-0.819855 0,0 0.01976,-0.138288 0.02963,-0.148167 0.02963,-0.2667 0,-0.167922 -0.05927,-0.276578 -0.05927,-0.118533 -0.227188,-0.118533 -0.246945,0 -0.543278,0.276578 -0.296333,0.276577 -0.602544,0.711199 -0.296333,0.434622 -0.553155,0.92851 -0.256822,0.484011 -0.424744,0.898878 l 0.246944,-1.2446 q 0.148167,-0.286455 0.375356,-0.671688 0.227188,-0.385233 0.523521,-0.75071 0.306211,-0.365478 0.681567,-0.612422 0.375355,-0.246945 0.800099,-0.246945 0.365478,0 0.484011,0.217311 0.128411,0.217311 0.128411,0.484011 0,0.217311 -0.03951,0.454378 -0.03951,0.237066 -0.04939,0.276577 l -0.187678,0.740833 h 0.138289 l -0.4445,1.313743 z"
       id="text5"
       style="font-style:italic;font-size:9.87777px;font-family:'STIX Two Text';-inkscape-font-specification:'STIX Two Text, Italic';baseline-shift:baseline;stroke-width:0.449792"
       aria-label="m" /><path
       d="m 42.46407,80.14296 h -3.057877 v -0.263878 l 1.179689,-1.179689 q 0.388055,-0.395816 0.644172,-0.714022 0.256117,-0.325967 0.380294,-0.651933 0.131939,-0.325967 0.131939,-0.729544 0,-0.434623 -0.263878,-0.690739 -0.256116,-0.263878 -0.706261,-0.263878 -0.380294,0 -0.651933,0.162983 -0.263878,0.162984 -0.481189,0.597606 l -0.186266,-0.07761 q 0.178505,-0.566561 0.566561,-0.877006 0.388055,-0.310444 0.954616,-0.310444 0.442384,0 0.776111,0.170744 0.333728,0.162984 0.519995,0.465667 0.194027,0.294922 0.194027,0.706261 0,0.341489 -0.147461,0.659694 -0.1397,0.310445 -0.426861,0.644172 -0.2794,0.333728 -0.690739,0.752828 l -1.024466,0.970139 v 0.03881 l 0.543278,-0.02328 h 1.078794 q 0.310444,0 0.434622,-0.1397 0.124178,-0.1397 0.256117,-0.48895 h 0.225072 z"
       id="text6"
       style="font-size:7.76111px;font-family:'STIX Two Text';-inkscape-font-specification:'STIX Two Text, Normal';baseline-shift:baseline;stroke-width:0.449792"
       aria-label="2" /><path
       d="m 40.374917,100.12553 q -0.602544,0 -0.869243,-0.484008 -0.2667,-0.493889 -0.2667,-1.343377 0,-0.908755 0.296333,-1.590321 0.296333,-0.691444 0.819855,-1.066799 0.533399,-0.385233 1.214966,-0.385233 0.355599,0 0.582788,0.148166 0.227189,0.148167 0.3556,0.375355 0.138289,0.217311 0.197555,0.474133 0.06914,0.246945 0.09878,0.454378 h 0.217311 l -0.07902,0.869244 q 0,0.266699 0,0.582788 0.0099,0.306211 0.04939,0.582789 0.04939,0.266699 0.158044,0.444499 0.108655,0.167922 0.316089,0.167922 0.227188,0 0.375355,-0.108655 0.158044,-0.118533 0.296333,-0.276578 l 0.158044,0.158045 q -0.05927,0.0889 -0.158044,0.256822 -0.09878,0.158044 -0.256822,0.325966 -0.158044,0.158044 -0.385233,0.276578 -0.227189,0.108656 -0.523522,0.108656 -0.345722,0 -0.493888,-0.237067 -0.138289,-0.237067 -0.138289,-0.602544 0,-0.1778 0.02963,-0.385233 0.02963,-0.207434 0.04939,-0.454378 h -0.07902 q -0.286456,0.464255 -0.612422,0.859366 -0.316089,0.385233 -0.651933,0.6223 -0.335844,0.227186 -0.701322,0.227186 z m 0.217311,-0.869241 q 0.3556,0 0.691444,-0.197556 0.335844,-0.207433 0.602544,-0.543277 0.276578,-0.335844 0.434622,-0.740833 0.158045,-0.404989 0.158045,-0.809977 0,-0.464255 -0.246945,-0.671688 -0.237066,-0.217311 -0.711199,-0.217311 -0.8001,0 -1.313744,0.503766 -0.513644,0.493888 -0.513644,1.491543 0,0.642055 0.276578,0.918633 0.286455,0.2667 0.622299,0.2667 z m 2.242254,-1.521177 -0.03951,-0.859366 q 0.1778,-0.454377 0.424744,-0.879122 0.256822,-0.434621 0.414867,-0.651932 l 0.819855,-0.01976 0.0099,0.148167 q -0.07902,0.09878 -0.256822,0.335844 -0.1778,0.227188 -0.39511,0.523522 -0.217311,0.286455 -0.424745,0.582788 -0.207433,0.296333 -0.355599,0.523522 -0.148167,0.217311 -0.197556,0.296333 z"
       id="text7"
       style="font-style:italic;font-size:9.87777px;font-family:'STIX Two Text';-inkscape-font-specification:'STIX Two Text, Italic';baseline-shift:baseline;stroke-width:0.449792"
       aria-label="α" /></g></svg>
