<svg height="2201.787281pt" preserveAspectRatio="xMidYMid meet" viewBox="0 0 1672.812417 2201.787281" width="1672.812417pt" xmlns="http://www.w3.org/2000/svg"><g transform="matrix(.1 0 0 -.1 -.187583 2223.929335)"><path d="m872 22228c-14-18-35-75-77-210-40-131-34-126-135-130-41-2-55-7-55-18 0-12 15-16 67-18 67-3 67-3 56-27-6-13-24-28-39-34-34-12-38-31-8-38 11-3 18-11 15-19-3-7-8-29-12-48-6-34-5-36 19-36 27 0 30 6 41 71 6 33 10 37 44 43 20 3 54 6 75 6h37l-7-42c-12-71-10-92 10-96 19-4 21 1 37 80 9 46 15 57 32 60 29 4 35 28 9 35-25 6-25 10-6 56 14 34 16 35 85 42 58 6 70 10 68 24-3 13-16 16-65 15l-61-1 10 36c6 19 28 73 49 119 21 47 39 89 39 93 0 5-11 9-24 9-20 0-29-14-68-107-25-60-48-120-52-134-5-22-13-27-51-32-25-4-56-9-69-13-24-6-24-6 16 123 22 70 46 135 54 144 19 21 18 45-2 53-21 8-20 8-32-6zm53-360c-4-13-9-31-11-40-4-15-17-18-70-18-45 0-64 4-64 13 0 27 21 41 77 53 78 17 75 17 68-8z"/><path d="m1725 22123c-31-7-43-30-36-66 9-43 44-46 49-4 4 37 27 44 68 22 24-13 35-27 40-51 13-69-1-93-127-214-65-63-119-121-119-127 0-28 52-47 141-51 103-5 142 2 137 24-2 13-21 16-105 17-56 1-105 6-110 10-8 9 5 21 127 126 99 86 132 182 89 262-21 40-97 65-154 52z"/><path d="m2576 22121c-12-18 3-31 37-31 18 0 70-7 117-15s86-15 88-15-7-15-20-32c-13-18-34-55-49-83-24-48-27-50-85-60-68-12-84-20-84-42 0-15 11-15 103 3 35 7 34 5-24-131-32-73-36-92-26-102 22-22 45 5 76 92 56 155 53 152 118 165 152 30 198 49 177 70-6 6-43 3-107-11-54-12-100-19-103-16-10 10 37 87 66 109 52 38 38 60-50 80-102 24-225 34-234 19z"/><path d="m2179 22100c-50-26-117-105-129-151-12-43-2-71 32-99 18-15 18-16-5-48-34-45-60-118-53-147 15-59 61-69 141-30 128 62 146 129 50 195l-45 31 42 60c23 33 49 64 59 69 21 12 35 106 18 126-16 20-67 17-110-6zm66-47c-3-15-26-54-51-86-24-33-49-67-54-76-7-13-13-14-27-5-42 27 8 129 82 171 52 29 59 29 50-4zm-57-268c62-38 49-76-42-122-73-37-94-17-62 58 16 39 55 91 65 87 3-2 21-12 39-23z"/><path d="m1457 22052c-51-56-81-107-73-128 6-15 36-20 36-6 0 11 81 124 86 120 5-6-70-228-90-267-10-19-31-65-46-102-23-57-25-70-14-80 19-16 40 3 55 49 6 20 22 58 35 84 31 61 114 304 114 332 0 26-18 46-41 46-9 0-37-22-62-48z"/><path d="m11087 21724c-7-7-201-22-404-31-101-4-125-8-142-24-11-10-24-19-30-19-12 0-21-25-21-60 0-55 7-60 79-60h66l-3-85c-4-98 0-94-112-119-80-17-191-13-378 15-63 10-85 10-94 1-21-21 3-30 128-51 141-24 294-27 379-6 33 8 63 14 67 15 16 1 26-578 19-1115-2-145 13-1148 17-1152 1-2 13-3 26-3 17 0 28 9 38 30 7 17 20 33 30 36 9 2 34 19 55 35 38 31 91 61 138 79 23 9 25 7 25-24 0-30-5-35-56-62-64-33-97-61-89-75 10-16 33-10 88 21 30 17 56 30 60 30 3 0 11-16 17-35 8-23 18-35 30-35 21 0 36 33 23 52-12 20-21 224-34 768-14 580-15 926-3 1360l9 315 102 3c117 3 123 8 93 78-11 25-20 56-20 69 0 45-10 55-54 55-24 0-45-3-49-6zm73-146c0-5-137-8-305-8-289 0-305 1-305 18 0 10 10 28 23 39 19 19 38 22 147 27 240 10 388 21 396 29 7 7 43-81 44-105zm-206-225c-2-98-9-347-15-553-8-273-8-393 0-440 6-36 11-125 11-198 0-130 0-132-20-120-17 11-22 10-29-1-5-8-7-20-4-28 6-17 40-17 46 0 3 6 6-32 6-85l1-98h-119-118l-8 108c-4 59-7 168-6 242 5 478 4 790-4 957l-8 192 37 15c44 18 43 40-2 44-32 3-32 3-32 66 0 34 3 66 7 69 3 4 63 7 133 7h127zm-65-1567c-2-2-43-34-91-70l-88-67v71 70h92c50 0 89-2 87-4zm54-164c-9-3-174-111-210-138-23-16-23-16-23 55 0 61 3 71 18 72 9 0 62 35 117 78l100 78 3-71c2-39-1-72-5-74zm7-120v-68l-42-24c-53-29-134-85-170-119l-28-25v77c0 53 4 77 12 77 7 0 24 12 39 26 28 27 168 122 182 123 4 1 7-30 7-67zm20-177v-55l-65-29c-35-16-90-48-121-70-32-23-61-41-66-41-4 0-8 23-8 50 0 39 4 50 16 50 8 0 36 18 62 39 60 50 153 111 169 111 9 0 13-17 13-55z"/><path d="m10800 21335c-10-12-10-18 0-30 16-19 39-19 46 0 6 15-11 45-26 45-4 0-13-7-20-15z"/><path d="m10787 21123c-14-13-6-39 14-51 18-12 24-11 35 0 12 12 12 17-2 36-15 22-35 28-47 15z"/><path d="m10845 20781c-9-16 3-31 26-31 14 0 19 6 17 17-4 20-33 29-43 14z"/><path d="m10764 20475c-7-18 12-45 32-45 18 0 26 17 19 40s-43 27-51 5z"/><path d="m10760 20270c0-16 7-20 30-20s30 4 30 20-7 20-30 20-30-4-30-20z"/><path d="m9525 21700c-55-13-93-35-138-77-25-23-48-46-51-52-4-6 5-55 19-108 21-76 28-132 34-248 6-150 6-150 31-150s25 0 23 110c-2 61-5 135-8 166l-6 56 63-1c91-1 153 20 205 69 39 38 43 46 43 89 0 123-82 180-215 146zm134-59c28-28 38-88 20-120-8-14-33-36-56-49-49-27-143-42-143-22 0 8-12 11-35 8l-35-4v62c0 59 2 63 36 90 46 37 87 52 147 53 34 1 52-4 66-18z"/><path d="m3367 21604c-5-5-192-12-415-15-404-7-602-17-717-39-158-29-296-33-1245-39-975-6-985-6-988-26s2-20 945-17c885 2 1135 8 1273 32 145 25 421 43 785 52 529 12 624 11 637-7 19-26 358-33 961-20 180 4 327 4 327 0 0-16-22-45-34-45-19 0-30-228-17-345 6-49 11-214 11-366 0-178 7-364 19-525 43-556 43-554 38-1914-4-1261-10-1537-35-1600-6-14-18-51-27-82-20-67-66-127-147-193l-58-46-1022 4c-746 3-1035 7-1068 16-28 8-175 14-395 18-306 5-384 3-624-17-248-20-317-21-740-16-256 3-479 6-495 8-36 4-45-16-14-34 30-17 989-24 1183-8 72 5 271 15 443 22 289 11 329 10 505-8 175-17 278-19 1177-19 542 0 994 3 1005 8 19 6 21 4 17-28-3-21 0-35 7-35 6 0 35 24 65 53 29 28 79 75 110 104 72 66 104 131 138 283 26 118 31 398 32 1645 1 1290 0 1358-35 1730-5 61-14 283-19 495s-14 481-20 598l-11 213 30 25c31 26 47 70 36 104-5 15-15 20-39 20-17 0-36-4-41-9-9-9-373-19-820-23-186-2-434 15-465 32-28 15-241 26-253 14z"/><path d="m11360 21418c-40-39-73-114-65-145 7-28 40-31 54-6 5 10 11 16 14 13 2-3 0-63-5-135-9-126-1-300 23-515 5-47 9-213 9-370v-284l-38 37c-40 40-66 47-76 21-4-10 14-38 52-80 54-61 59-64 97-62 39 3 40 4 61 65 11 34 40 87 62 117 23 30 42 62 42 70 0 47-55 11-109-71l-28-42-7 292c-4 161-11 315-16 342-17 95-24 494-10 583l12 82 50-45c35-31 59-45 78-45 42 0 45 15 8 41-58 40-123 102-138 133-21 41-33 42-70 4z"/><path d="m12004 21250c-57-23-118-174-150-369-18-111-20-114-58-147-54-46-36-89 22-48 22 15 22 15 15-75-6-87-5-90 21-116s31-27 89-20c69 7 153 39 161 61 7 18-21 18-99-1-33-8-72-14-87-15h-28v116 115l41 61c72 106 159 316 159 383 0 51-37 75-86 55zm31-77c-8-48-80-228-106-268l-19-30 6 45c10 77 44 183 77 238 37 61 52 67 42 15z"/><path d="m12837 21243c-4-3-7-66-7-138 0-156-16-260-70-449-43-149-49-196-26-196 8 0 49 34 90 75 75 73 127 110 140 98 3-4 6-27 6-53 0-32 5-52 18-62 41-36 68-32 227 28 127 49 155 62 155 75 0 20-99 2-190-35-47-18-99-37-117-40-31-7-31-7-38 49-4 31-15 65-25 77-16 20-21 21-57 10-22-7-64-30-92-53-55-44-58-43-36 20 8 23 26 97 41 164 31 145 46 396 24 422-13 16-32 20-43 8z"/><path d="m654 21125c-50-21-100-90-152-213-28-65-54-130-58-146s-15-31-25-33c-25-7-35-42-17-60 13-12 12-26-9-106-13-50-26-138-30-195-6-95-4-106 12-118 32-23 79-16 202 32 122 48 146 61 138 74-9 15-90-3-189-42-66-26-102-36-109-29-14 14 7 184 37 300 17 68 32 101 53 124 59 63 167 213 192 267 32 70 35 139 6 150-12 5-34 3-51-5zm20-62c-16-65-133-250-142-224-9 27 119 251 144 251 3 0 1-12-2-27z"/><path d="m10087 21003c-24-23 4-38 121-64 48-10 72-29 72-57 0-8-81-22-300-54-168-24-515-91-670-128-691-169-896-294-970-595-76-304-119-394-274-565-43-48-149-130-221-172-94-54-407-196-466-212-72-18-74-41-4-40 60 2 118 25 360 144 201 99 297 166 394 275 136 153 184 253 256 535 50 197 123 286 316 385 114 58 281 116 464 159 55 13 143 35 195 49s147 35 210 47 160 30 215 40 154 26 220 35c255 34 375 62 375 87 0 13-8 18-25 18-16 0-25 6-25 15 0 13 7 15 38 9 49-9 102-31 102-42 0-5-26-41-58-79-97-116-125-173-83-173 13 0 40 28 80 83 33 46 67 90 76 97 30 25 46 67 36 93-11 29-86 61-171 72-30 4-74 16-97 26-41 19-152 27-166 12z"/><path d="m1940 20819c-58-75-215-222-256-241-27-12-32-36-10-44 20-8 64 17 126 70 30 25 55 45 56 43 1-1-9-34-22-74s-27-100-31-134c-6-64 1-79 41-79 14 0 17 5 12 24-18 71 71 323 155 439 22 31 26 43 18 53-20 24-33 16-89-57z"/><path d="m12240 20730c0-19 7-20 133-20 121 0 136 2 152 20 18 20 17 20-133 20-145 0-152-1-152-20z"/><path d="m2569 20703c-23-66-49-102-124-179-82-83-144-124-190-124-23 0-25 4-25 44 0 52-20 76-46 55-12-10-15-25-11-62 5-57 20-76 69-83 55-9 132 31 223 117 73 69 78 72 72 44-6-37 14-90 41-104 70-37 167 18 270 154l22 30-6-100c-4-55-7-102-7-105-1-3 2-19 5-36 18-83 223-74 328 15 19 16 32 32 28 37-4 4-44-7-89-25-93-37-166-49-197-32-26 14-29 61-11 171 7 37 8 89 5 114-11 74-37 65-130-49-108-133-186-175-202-108-10 37 3 148 21 182 23 46 20 71-10 71-19 0-28-7-36-27z"/><path d="m1178 20695c-125-18-138-22-138-45 0-24 8-24 125-5 50 8 108 15 130 15s53 8 68 19c28 18 28 18 5 25-33 8-89 6-190-9z"/><path d="m1131 20591c-8-5-11-16-8-25 5-14 27-16 142-16 128 0 135 1 135 20s-7 20-114 20c-63 0-120 2-128 5-7 3-19 1-27-4z"/><path d="m9006 20064c-22-8-47-21-56-29-14-13-18-13-33 2-12 13-19 14-30 4-16-13-30-100-28-176 1-27 4-161 7-297 4-200 7-248 19-258s18-10 30 0 15 46 15 200c0 104 3 195 6 204 4 11 19 16 48 16 60 1 123 17 156 42 32 24 60 83 60 128s-37 142-61 163c-25 20-79 21-133 1zm96-41c43-52 54-146 22-190-28-38-57-50-131-55l-63-4v88c0 85 1 89 30 115 25 23 98 60 121 62 3 1 13-7 21-16z"/><path d="m11855 19948c-3-7-4-153-3-323l3-310h25c20 0 26 6 28 29 5 42 50 98 76 94 15-2 22-12 24-33 8-68 45-71 160-15 44 22 86 40 91 40 15 0 34 41 24 51-8 8-163-50-188-71-17-14-35-5-35 18 0 54-63 79-122 48l-28-15-2 247c-3 247-3 247-26 250-12 2-24-3-27-10z"/><path d="m7256 19843c-4-5-92-11-194-15-214-7-301-16-321-31-10-9-12-32-9-99l5-87-36-3c-24-2-36-8-36-18 0-11 13-16 48-18 26-2 47-7 47-13 0-5 9-9 20-9s20 5 20 10c0 6 11 10 24 10h25l6-422c3-233 8-525 11-650l5-228h-74c-40 0-77 4-83 10-5 5-155 11-359 14-193 2-371 7-397 11l-48 7v212c0 116-3 262-7 324-5 97-8 112-23 112-16 0-19-17-25-152-9-207 1-2289 12-2406l8-93 1032 1c647 0 1042 4 1059 10 14 6 58 10 99 10s85 4 99 10c16 6 27 6 31 0 12-19 45-10 50 13 6 24 2 472-14 1337-6 294-13 686-16 870s-8 345-11 358c-3 14-12 22-24 22s-22-9-25-22-5-154-3-315l3-292-215-5c-118-3-326-8-462-12l-248-5 8 63c4 35 7 92 6 128-11 742-15 1012-18 1046l-3 42 66 6c138 14 151 17 151 37 0 11-7 19-17 19-16 0-18 10-15 89 5 121-2 131-82 131-34 0-66-3-70-7zm96-122 3-90-60-10c-33-5-156-9-272-9h-213v61c0 34-5 69-10 77-8 13 5 17 83 27 51 7 157 12 237 13s154 5 165 10 30 9 42 9c20 1 22-4 25-88zm-176-503c0-194 4-447 9-563 4-115 5-244 1-286l-8-77-66-6c-37-3-93-9-124-12l-56-6-6 189c-3 103-8 396-12 651l-6 462h134 133zm-836-969c195-4 395-11 444-14l88-7-6-156c-4-86-11-242-16-347-14-273-23-662-16-691 4-15 14-24 26-24 11 0 21 1 22 3 1 1 5 121 10 267 4 146 12 360 18 475 5 116 12 269 16 342l6 131 56 6c31 2 88 8 126 12l69 7-6-78c-4-43-7-161-7-262v-183h-46c-38 0-45-3-42-17 2-13 15-19 46-21l42-3v-318c0-276 2-320 16-331 12-11 18-11 30 1 12 13 14 103 14 611v597l253 5c138 4 350 9 469 12l217 5 6-528c3-290 7-713 10-939l6-412-33-7c-102-22-321-27-1198-31-531-3-979-2-996 1-30 5-31 6-42 94-8 62-12 347-12 956v867l38-7c20-4 197-11 392-16z"/><path d="m7000 19375c-11-13-11-19 2-31 14-14 18-14 42 1 15 10 25 23 23 29-6 18-52 19-67 1z"/><path d="m7083 19174c-8-21 13-42 28-27 13 13 5 43-11 43-6 0-13-7-17-16z"/><path d="m6982 19053c-12-24-4-43 17-43 22 0 55 35 46 49-10 17-53 13-63-6z"/><path d="m7082 18798c-19-19-14-45 11-63 21-15 23-14 36 15 13 28 13 31-5 45-23 18-27 18-42 3z"/><path d="m7021 18576c-17-20 13-43 34-26 12 10 13 16 4 26-6 8-15 14-19 14s-13-6-19-14z"/><path d="m7106 18474c-10-26-7-34 14-34 11 0 20 4 20 9 0 17-12 41-20 41-4 0-11-7-14-16z"/><path d="m6945 18100c-13-21 8-30 68-30 69 0 103 13 77 30-20 13-137 13-145 0z"/><path d="m7660 17920c-36-4-96-8-133-9-59-1-68-3-65-18 2-14 15-19 57-21 100-6 298 28 286 49-7 10-46 10-145-1z"/><path d="m6225 17880c-15-24 12-30 134-30 124 0 197 12 185 31-7 13-311 12-319-1z"/><path d="m6670 17733c-92-11-253-42-263-52-8-8-8-14 1-23 8-8 51-4 174 17 175 30 221 42 212 56-5 9-55 10-124 2z"/><path d="m6048 17549c-6-4-8-14-5-23 5-14 28-16 151-16 84 0 156 5 173 11l28 12-30 8c-37 10-303 16-317 8z"/><path d="m7520 17490c0-19 7-20 106-20 116 0 219 18 174 31-14 4-82 7-152 8-122 1-128 0-128-19z"/><path d="m7073 17360c-43-19-54-35-30-43 19-6 107 34 107 49 0 19-27 17-77-6z"/><path d="m7665 17140c-27-5-71-9-97-9-42-1-48-4-48-22 0-21 3-22 93-16 94 5 197 30 197 47 0 11-72 11-145 0z"/><path d="m6432 17133c-91-3-103-6-100-21 5-25 155-30 215-7 54 21 64 36 21 33-18-1-79-4-136-5z"/><path d="m6184 16905c-10-24 5-34 71-46 61-11 219-8 232 4 14 15-13 22-135 33-70 7-135 15-144 19-12 5-20 2-24-10z"/><path d="m7637 16913c-48-3-58-7-55-21 4-23 59-27 177-12 105 13 123 18 115 31-5 9-113 9-237 2z"/><path d="m6918 16762c-77-15-100-34-62-49 32-12 274 42 274 61 0 11-136 3-212-12z"/><path d="m6219 16605c-116-17-161-32-157-53 4-19 20-20 123-2 81 14 143 34 171 55 18 13 17 14-16 13-19 0-74-6-121-13z"/><path d="m7684 16484c-112-20-154-33-154-49 0-24 20-27 83-12 34 9 89 21 122 27 71 13 115 29 115 41s-81 9-166-7z"/><path d="m6505 16471c-80-5-100-9-100-21s17-16 85-18c103-4 141 3 172 28l23 19-40-1c-22-1-85-4-140-7z"/><path d="m11338 19832c-7-10-44-41-83-69-80-56-98-93-46-93 20 0 43 11 66 31l35 31v-317-317l-25 16c-31 21-65 21-65 0 0-8 17-35 37-60 31-37 43-44 73-44 28 1 46 11 93 55 59 56 72 89 37 100-21 7-40 0-40-15 0-12-32-50-42-50-4 0-9 153-10 340-2 187-1 340 2 340s17-23 32-50c19-34 34-50 48-50 27 0 25 20-6 83-44 88-77 109-106 69z"/><path d="m542 19777c-6-7-16-44-22-82-31-202-42-245-60-245-25 0-32-26-13-45 15-15 14-23-6-98-12-45-30-98-40-117-21-41-17-60 10-60 25 0 58 71 85 181l19 77 120 4c66 3 121 5 122 4s-7-41-18-91c-20-96-25-190-10-199 23-14 41 7 41 48 0 22 10 90 23 149 19 92 25 109 46 120 35 17 38 37 7 37-14 0-26 2-26 3 0 12 43 126 62 163 16 33 19 47 11 55-29 29-74-38-109-163l-18-66-55-11c-30-6-83-11-119-11-64 0-64 0-59 28 21 100 49 303 44 316-8 19-21 20-35 3z"/><path d="m6141 19742c-18-34-39-147-46-252-4-61-13-117-22-134-14-27-14-31 1-41 9-7 16-24 16-39 0-41 16-64 61-86 49-26 164-25 164 0 0 11-15 17-55 21-30 3-67 11-82 19-27 13-28 16-28 94 0 64 7 100 31 171 35 103 49 226 29 250-17 21-57 19-69-3z"/><path d="m9284 19676c-33-15-104-91-104-113 0-7-4-13-10-13-12 0-30-66-30-110 1-119 182-119 250 1 24 44 36 121 26 173-11 56-75 86-132 62zm66-46c20-13 18-115-3-157-33-64-115-96-147-58-18 22-4 80 35 140 47 74 81 96 115 75z"/><path d="m2605 19609c-84-28-128-67-127-109 1-43 16-56 77-71 28-6 55-13 62-15 16-4 2-52-29-97-25-37-113-117-129-117-5 0-9 15-9 34 0 18-7 39-15 46-34 28-61-42-34-91 14-28 53-41 85-29 69 27 174 147 189 217 13 63-6 81-107 98-21 3-38 12-38 19 0 21 42 53 97 72 50 18 54 18 102 0 28-10 55-15 60-12 16 10 1 35-28 51-49 25-93 26-156 4z"/><path d="m6450 19548c-88-82-115-138-66-138 16 0 44 20 83 57l58 57 8-144c4-80 10-326 13-548 5-387 4-403-13-394-10 6-27 20-37 31-25 27-79 29-74 3 4-24 137-142 160-142 9 0 20 9 23 20s12 20 19 20c8 0 33 25 56 55s54 64 68 74c17 12 23 24 19 35-11 28-46 11-104-49l-51-54-6 382c-3 210-9 456-12 547l-6 165 22-20c13-11 29-35 37-53 19-45 49-40 46 7-1 38-64 111-95 111-10 0-18 5-18 10 0 6-19 10-43 10-36 0-49-6-87-42z"/><path d="m1847 19544c-13-13-7-42 9-48 9-3 50-6 93-6 79 0 190-16 204-29 4-4-16-40-44-79l-52-72h-61c-84 0-136-16-136-40 0-18 6-19 81-13l81 6-41-58c-39-56-51-97-32-109 13-9 41 4 41 19 0 6 22 43 49 82 51 72 69 83 140 83 14 0 43 5 65 11 55 15 32 30-48 31h-66l35 47c93 121 70 146-147 160-73 5-140 12-149 15-8 4-18 3-22 0z"/><path d="m2887 19530c-31-25-37-70-9-70 9 0 23 10 30 21 11 18 20 20 52 15 92-15 118-49 100-130-20-90-97-171-157-164-25 3-28 7-31 46-2 24 1 64 6 89 12 53 6 75-17 71-23-5-40-62-40-139-1-84 16-109 79-116 37-4 53 0 90 25 101 65 158 210 114 293-18 35-74 63-145 73-37 6-50 3-72-14z"/><path d="m1155 19480c-16-25 13-30 176-30 162 0 169 1 169 20s-7 20-169 20c-103 0-172-4-176-10z"/><path d="m3537 19393c-25-38-72-95-106-128-61-59-61-59-61-28 0 39-23 61-45 43-41-34 5-136 54-123 12 3 58 42 102 87l79 81-2-43c-4-100 93-116 191-30 32 29 36 30 39 12 7-43 25-74 43-74 17 0 19 9 19 99 0 71-4 102-14 110-17 14-46 4-46-15 0-20-87-112-123-131-16-8-35-12-43-9-19 7-18 78 1 144 18 59 14 72-20 72-19 0-34-15-68-67z"/><path d="m4154 19329c-14-28-61-88-104-133l-79-81-1 36c0 44-22 68-45 49-20-17-20-94 1-114 33-33 65-20 145 60 71 71 78 75 88 56 23-43 91-34 165 23l34 26-2-79c-1-98 16-132 69-132 42 0 44 9 9 39-27 23-27 23-21 142s6 119-17 119c-13 0-42-18-67-41-45-41-98-79-111-79-11 0-10 64 2 96 13 34 4 64-21 64-13 0-27-16-45-51z"/><path d="m1289 19346c-2-3-36-7-74-10-39-3-71-5-72-5-8-2-1-31 7-36 17-11 373 15 388 28 12 9 11 12-5 18-19 8-237 12-244 5z"/><path d="m913 19080c-18-10-39-30-48-44-17-26-38-113-49-208-6-49-5-59 13-77 49-49 143-3 191 92 52 103 49 193-7 237-32 25-59 25-100 0zm78-52c18-34 14-88-11-146-23-53-69-102-96-102-28 0-12 130 28 217 26 57 58 70 79 31z"/><path d="m6218 19045c-3-3-25-9-49-13-29-5-44-13-44-22 0-32 192-5 203 28 3 8-12 12-50 12-30 0-57-2-60-5z"/><path d="m10606 18955c-91-32-86-71 8-61l61 6-45-41c-47-43-236-186-306-231-93-60-259-133-372-164-23-7-7-29 23-32 56-7 275 87 400 171 110 74 259 191 317 247l56 55 9-55c5-38 13-55 23-55 20 0 37 105 24 143-9 26-13 27-84 29-43 1-91-4-114-12z"/><path d="m6160 18890c0-18 7-20 65-20 61 0 65-1 65-23 0-35-58-116-107-151-69-48-56-61 58-60 95 1 159 20 159 46 0 12-110 6-145-8-13-5-6 8 22 42 47 55 63 90 63 138s-15 56-102 56c-71 0-78-2-78-20z"/><path d="m9448 18651c-100-39-158-92-158-145 0-37 44-79 135-127 114-60 162-95 191-138 30-47 43-131 22-149-14-11-140-17-228-10-29 3-35 0-35-17 0-25 31-32 145-34 98-1 156 12 170 39 13 24 13 95-1 143-19 71-107 145-266 226-75 37-91 60-67 96 27 41 128 85 196 85h58v-44c0-51 20-76 45-56 16 13 21 95 7 117-23 36-138 43-214 14z"/><path d="m3647 18384c-5-5-417-12-915-16-884-6-1277-16-1552-38-125-10-386-23-760-39-128-5-155-9-155-21s18-16 85-18c92-4 819 25 860 34 22 5 146 10 830 34 146 5 535 9 865 10 330 0 701 5 824 11 204 9 241 8 405-11 220-25 491-25 491 0 0 13-30 16-180 22-99 4-209 13-245 19-82 13-542 24-553 13z"/><path d="m2355 18186c-88-25-144-54-193-100-55-52-78-106-68-160 14-73 56-53 56 27 0 48 3 54 49 98 82 79 245 125 293 83 49-44 61-129 28-202-23-50-106-140-203-219-37-31-74-68-82-83-30-58-19-182 20-224 45-48 54-33 30 48-18 59-19 123-2 152 7 11 50 54 96 94 117 103 146 133 175 183 57 96 50 208-17 275-29 28-44 35-84 38-26 2-70-3-98-10z"/><path d="m577 17823c-3-5-14-73-26-153-21-137-57-321-100-509-11-47-18-89-15-93 12-19 44-6 60 25 33 63 96 142 127 159 75 40 101 9 78-92-25-106-25-107-1-120 36-19 122-3 202 38 84 43 103 69 42 58-22-4-59-16-83-27s-62-22-84-26c-39-6-40-5-33 18 4 13 10 56 13 96 5 67 4 73-20 97-17 17-37 26-57 26-32 0-101-30-132-58-23-19-23-12 2 94 11 47 29 148 40 223s24 156 29 180c5 25 7 51 4 58-5 14-39 18-46 6z"/><path d="m14211 17504c-49-41-78-100-114-234-41-149-57-295-57-518 0-241 45-422 105-422 30 0 30 2 8 43-30 59-62 235-63 345-1 360 67 677 161 756 16 14 29 32 29 40 0 24-35 19-69-10z"/><path d="m11443 17498c-12-6-25-18-28-27-15-36-35-149-35-197 0-49-2-53-53-101-55-52-104-83-132-83-8 0-15-9-15-20 0-16 7-20 31-20 35 0 59 11 112 53l38 29-6-28c-4-16-13-50-22-76-8-26-13-62-11-80l3-33 81-3c84-3 154 13 162 37 4 11-12 12-91 6-59-4-97-3-101 3-3 5 1 29 9 51 8 23 21 77 29 121 9 47 26 95 40 117 60 91 93 217 64 241-22 17-52 21-75 10zm22-108c-9-27-19-50-21-50-7 0 8 84 19 105 18 35 20-2 2-55z"/><path d="m1475 17459c-149-24-190-35-193-53-4-17 2-18 60-13 95 8 244 34 268 47 51 27-23 38-135 19z"/><path d="m15674 17446c-3-8 15-42 40-75 94-128 129-217 157-393 13-87 0-256-27-349-31-105-91-205-155-256-32-27-59-51-59-55 0-29 110 21 152 68 35 40 99 174 119 250 18 64 22 108 22 234 1 139-2 165-26 254-48 174-197 389-223 322z"/><path d="m16374 17247c-78-54-98-156-48-248 29-52 61-77 175-134 130-65 149-88 164-188 11-72-19-111-115-148-74-29-190-31-243-5-35 17-36 20-22 36 34 37 6 54-40 24-29-19-33-54-7-76 75-66 247-68 374-4 104 52 131 123 92 242-23 68-53 96-158 150-118 60-152 86-177 136-39 76-2 172 77 198 27 9 38 9 49 0 18-15 20-71 4-87-15-15-3-33 20-33 25 0 37 17 45 62 12 67-24 108-94 108-38 0-58-7-96-33z"/><path d="m14525 17241c-17-10-38-29-46-42-24-38-62-137-85-224-17-67-25-82-50-95-35-20-38-44-6-48 23-3 23-5 20-115-1-74 2-120 10-134 28-52 119-69 166-32 36 28 35 54-1 44-109-27-123-16-122 93 1 141 10 173 63 233 57 65 127 204 134 267 4 36 1 48-13 59-25 17-34 17-70-6zm11-114c-24-63-75-151-83-143s60 171 80 193c11 13 22 21 24 19s-7-33-21-69z"/><path d="m15370 17225c-5-14-10-51-10-81 0-64-35-321-56-413-19-79-13-114 19-109 18 2 23 12 29 53 9 61 34 85 89 85 35 0 41-4 59-39 50-99 144-114 228-38 23 21 30 47 12 47-6 0-33-12-60-26-67-35-90-28-134 41-39 60-62 71-126 61-48-7-47-10-26 140 8 54 16 144 18 199 3 88 1 100-14 103-12 2-21-6-28-23z"/><path d="m10695 17131c-22-10-56-35-75-55-29-31-35-45-35-81 0-50 14-68 95-128 83-62 180-158 180-179 0-25-63-51-176-71-115-21-109-22-90 8 20 30 12 31-32 5-39-24-49-45-31-66 10-12 24-15 59-10 194 25 314 65 325 108 3 13 1 36-4 51-12 32-109 126-200 194-44 33-67 57-73 78-7 26-3 34 37 72 32 31 54 43 75 43 32 0 40-9 50-54 9-46 34-40 38 10 6 78-62 114-143 75z"/><path d="m2312 17098c-23-23-14-56 20-72 44-22 68-13 68 28 0 39-15 56-50 56-14 0-31-5-38-12z"/><path d="m9244 16945c-53-42-77-113-82-245-3-104 0-135 37-320 53-266 63-358 63-570 0-153-3-184-22-245-27-85-69-170-121-248-22-32-37-62-34-67s35-24 71-41c49-24 73-43 92-73 37-59 70-172 83-284 15-120 6-484-15-669-54-465-63-698-29-774 33-75 101-111 167-89 25 8 36 18 36 31 0 18-5 19-48 13-41-5-50-3-74 19-35 33-48 83-48 192 0 84 27 410 50 618 6 51 15 183 20 295 13 314-9 497-76 630-38 77-50 90-115 125l-46 24 24 39c48 78 91 171 113 244 48 162 36 459-32 798-60 300-58 476 8 547 30 33 37 32 57-10 16-34 40-45 52-24 19 30-37 109-77 109-13 0-37-11-54-25z"/><path d="m9955 16916c-111-53-156-142-169-336-7-91-22-188-56-345-5-22-9-61-10-87 0-44 2-48 24-48s26 6 31 48c4 26 18 103 31 172s31 185 39 259 20 153 26 175c15 55 81 118 141 135 41 12 50 11 76-5 71-41 100-167 52-219-35-39-97-65-153-65-40 0-47 3-45 18 2 13-4 17-27 17-37 0-43-22-16-56 16-20 28-24 73-24 78 1 120 12 170 45 81 54 98 141 48 244-45 93-134 120-235 72z"/><path d="m13356 16909c-33-11-71-29-85-40-25-20-25-20-33 0-31 85-123-111-143-304-19-181-53-384-68-403-7-9-5-18 6-29 15-15 18-15 35 1 21 18 31 61 57 246 43 299 50 322 143 415 80 82 190 107 237 55 26-28 31-101 10-133-25-39-113-69-225-76-86-5-95-8-95-26 0-19 6-20 96-19 118 2 222 36 265 87 24 28 26 37 22 99-3 57-8 72-32 97-16 16-47 34-71 40-55 14-49 14-119-10z"/><path d="m12240 16870c0-20 4-20 198-18 167 3 197 5 197 18s-30 15-197 18c-194 2-198 2-198-18z"/><path d="m11535 16804c-16-2-61-9-98-15-38-6-110-14-160-18-72-5-92-9-92-21 0-22 123-25 265-6 63 8 162 17 219 20 102 5 130 14 117 35-7 10-174 13-251 5z"/><path d="m14870 16789c-98-12-110-17-110-40 0-19 4-20 68-14 94 9 183 25 205 36 50 27-27 36-163 18z"/><path d="m12267 16660c-44-8-59-20-49-37 6-9 51-9 192 0 179 12 210 18 210 38 0 11-296 10-353-1z"/><path d="m11420 16563c-57-9-120-35-120-49 0-23 25-27 74-10 67 23 141 21 166-4 28-28 26-83-5-135-13-23-63-74-109-114-98-82-115-106-93-128 28-29 357 69 357 107 0 4-27 2-59-6-61-14-203-44-209-44-2 0 18 17 45 38 150 119 190 240 106 320-29 27-41 32-81 31-26-1-58-4-72-6z"/><path d="m10195 16430c-11-4-32-6-46-3-22 4-28-1-42-34-37-88-27-150 32-192 47-34 103-32 141 4 42 40 67 125 49 167-21 52-83 79-134 58zm73-52c34-34-7-149-56-156-33-5-72 39-72 82 0 60 90 112 128 74z"/><path d="m14414 15822c-30-20-46-89-19-78 41 15-5-237-74-412-28-70-27-92 2-92 16 0 33 13 54 43 39 53 129 147 142 147 5 0 17-21 27-47 39-108 43-113 80-129 31-13 45-13 86-3 62 14 124 49 163 89 38 40 18 39-74-5-91-44-142-53-161-30-7 9-27 51-44 93-30 74-32 77-66 80-29 2-44-4-79-35-50-43-49-49-12 91 24 92 36 218 23 261-9 30-28 41-48 27z"/><path d="m11915 15701c-78-20-109-48-152-136-45-91-71-213-104-500-14-123-12-140 21-140 23 0 25 5 36 80 7 44 19 109 28 145 8 36 20 108 25 160 25 231 50 297 125 331 50 22 130 24 170 4 34-18 76-56 76-71 0-37-91-80-190-90-133-12-140-14-140-35 0-17 7-19 63-19 34 0 92 7 129 15 209 44 251 143 101 236-35 22-139 33-188 20z"/><path d="m13253 15661c-78-14-158-85-181-161-6-19-14-60-18-90-4-32-13-60-23-67-15-12-14-14 3-28 17-13 18-25 14-157-5-125-9-151-33-210-32-80-45-93-93-90-57 4-75 32-67 103 5 39 3 59-5 64-37 23-64-92-37-157 12-29 23-39 54-47 110-31 152-4 206 129 15 39 35 218 37 333 0 26 2 27 53 27 84 0 165 17 233 49 75 35 104 74 104 139 0 123-99 189-247 163zm143-62c41-25 62-82 48-131-7-28-20-39-76-67-59-29-81-34-163-39l-95-5v31c0 71 21 131 60 171 61 62 162 80 226 40z"/><path d="m12591 15573c-6-21-11-62-11-90v-53h-80c-73 0-80-2-80-20s7-20 75-20h74l3-122c2-72 7-123 13-123 21 0 39 64 43 151l4 91 53 6c114 12 127 53 14 44l-69-6v37c0 20 5 54 9 76 11 46 5 66-20 66-12 0-21-11-28-37z"/><path d="m13710 15599c-42-17-87-57-98-87-29-83 62-115 252-90 16 3 21-8 33-67l15-70-100-95c-151-144-196-226-178-324 16-84 89-129 208-129 134 1 196 49 211 161 5 45-29 233-59 324l-16 48 102 108c55 59 113 127 127 152l27 45-40-32c-23-18-84-73-137-123-52-50-98-86-102-81-3 6-8 32-12 59-4 37-2 51 11 61 14 12 16 11 16-7 0-30 26-48 46-31 12 10 15 26 12 67-8 94-58 121-223 121-38 0-81-5-95-10zm227-50c27-11 27-11 7-19-12-5-28-18-36-29-19-27-94-44-173-39-72 4-79 8-70 37 13 41 63 61 157 61 48 0 99-5 115-11zm40-474c42-186 24-261-71-286-49-13-120-8-161 12-41 19-69 78-60 128 9 55 76 145 170 230 92 84 82 91 122-84z"/><path d="m10038 15536c-62-17-124-58-144-98-13-24-15-44-9-92 12-94 8-222-9-321-18-104-21-201-5-211 21-13 34 18 45 104 6 48 17 133 24 188l13 102 101 5c123 6 197 29 248 78 60 57 48 122-37 197-69 61-130 74-227 48zm168-64c50-36 63-53 74-92 8-29 6-35-22-60-38-35-110-57-215-64-81-6-83-6-83 16 0 13 11 54 24 91 20 58 21 71 9 82-11 12-10 16 9 26 71 38 152 39 204 1z"/><path d="m10784 15419c-3-6-2-14 2-19 5-4 100-10 211-12 203-3 235 2 182 29-31 17-385 18-395 2z"/><path d="m11140 15320c-305-42-320-46-320-70 0-14 7-20 23-20 50 0 337 50 375 66 78 31 45 41-78 24z"/><path d="m10176 14979c-14-11-26-25-26-32 0-6-10-21-22-34-24-25-39-99-27-132 12-31 68-61 114-61 57 0 102 31 127 87 33 76 9 151-57 179-47 19-78 18-109-7zm94-39c52-28 41-129-18-163-32-19-36-19-68-4-28 14-34 22-34 48 0 19 13 52 31 81 32 49 52 58 89 38z"/><path d="m13179 14503c-12-27-32-93-45-148-53-216-54-220-85-237-33-19-40-61-12-76 15-9 15-13-1-61-26-81-31-135-12-150 28-23 39-7 57 86 11 50 25 108 31 129 13 37 15 38 78 49 66 11 170 53 202 82 25 23 23 10-23-123-69-202-69-199-55-225 21-43 116-36 116 8 0 12-8 14-35 9-45-9-45-4 0 115 69 185 141 463 128 495-3 8-13 14-24 14-20 0-27-20-50-143-11-56-18-72-41-88-46-33-190-96-234-103l-41-6 25 103c13 56 37 144 54 196 16 51 27 100 24 107-11 29-37 13-57-33z"/><path d="m11695 14319c-82-20-109-67-129-220-30-228-37-265-58-329-23-71-70-151-112-190-33-30-59-19-64 29-3 27-7 32-25 29-24-3-33-33-22-75 6-24 55-53 90-53 27 0 111 87 142 148 17 31 38 80 47 107 14 45 44 230 61 376 7 65 35 116 70 129 14 5 73 10 132 11 94 2 114-1 151-20 50-25 52-41 13-74-63-52-128-74-284-93-38-4-47-9-45-22 3-14 16-17 83-15 97 2 180 27 258 76 94 60 96 117 7 167-40 22-58 25-160 27-63 1-133-2-155-8z"/><path d="m12369 14281c-47-29-72-69-84-132-5-30-2-41 18-64 21-25 31-29 73-28 40 0 89 15 135 40 8 5 29-110 29-155 0-27-14-46-94-125-140-138-192-237-180-342 21-175 157-194 261-36 55 84 73 163 73 326v125l53 34c60 39 104 83 93 93-4 4-39-9-77-29-44-22-72-32-74-24-2 6-9 46-15 88-10 62-10 81 0 92 16 20 4 88-21 120-20 26-73 46-120 46-14 0-45-13-70-29zm135-34c26-19 12-81-25-107-40-30-85-43-115-36-25 7-26 10-21 49 11 79 106 134 161 94zm36-621c-12-78-44-152-87-204-21-25-37-34-63-35-31-2-37 2-53 33-26 50-19 131 18 204 17 34 62 91 109 139l81 82 3-74c2-41-2-107-8-145z"/><path d="m10060 14277c-67-24-109-126-134-325-32-251-38-319-34-372 3-51 5-55 27-55s26 7 41 80c10 44 23 125 31 179 19 147 29 155 227 212 36 10 67 25 73 35 28 54-12 176-75 224-42 32-104 41-156 22zm115-53c32-21 63-76 71-124 7-46 2-50-107-79-41-11-82-23-92-27-14-5-17 0-17 26 0 17 5 51 11 76 9 33 9 48 0 58-10 11-9 21 3 44 9 17 21 32 28 35 27 11 80 6 103-9z"/><path d="m10945 14189c-110-13-150-23-150-39 0-12 17-14 90-12 81 2 225 25 247 38 38 24-46 30-187 13z"/><path d="m10828 14009c-6-4-8-14-5-23 5-13 24-16 110-16 106 0 171 13 164 34-4 12-250 16-269 5z"/><path d="m13616 13908c-22-35-38-108-34-162 2-40 8-53 30-69 38-28 80-25 128 8 49 34 69 69 77 135 5 43 3 51-20 74-31 31-61 33-104 6-32-19-32-19-35 2-4 30-24 33-42 6zm147-52c9-23-10-87-35-113-61-66-88-51-57 32 30 80 77 121 92 81z"/><path d="m10300 13854c-47-20-100-73-100-100 0-12-6-24-13-27-34-13-47-156-17-192 18-22 77-29 122-16 60 18 133 95 152 162 24 79 21 141-7 167s-85 29-137 6zm100-39c17-20-2-133-28-172-26-42-91-83-128-83-28 0-35 5-40 26-8 33 15 131 32 138 8 3 14 11 14 19 0 19 38 53 80 71 45 19 55 19 70 1z"/><path d="m4289 13113c-22-5-164-224-222-338-53-106-92-233-83-269 14-57 25-60 206-52 187 8 235 15 235 36 0 18-109 20-237 6-121-14-165 1-151 52 3 14 16 22 43 26 47 7 84 55 154 193 69 137 98 219 99 288 2 61-4 69-44 58zm-29-160c-7-21-39-93-72-159-57-117-95-170-117-163-14 5 35 116 93 214 95 158 121 187 96 108z"/><path d="m12703 12814c-3-10-2-19 3-21 38-14 61-35 83-78 119-240 25-639-214-902-46-51-54-64-40-69 28-11 61 12 120 83 221 266 304 668 186 901-34 68-56 90-99 98-25 5-33 3-39-12z"/><path d="m6226 12755c-147-160-309-700-267-888 7-31 22-71 34-89 26-38 82-78 109-78 16 0 11 10-27 53-67 76-81 133-67 260 32 272 165 625 274 727 23 21 18 50-8 50-9 0-31-16-48-35z"/><path d="m11004 12755c-39-16-107-91-137-152-33-65-121-303-142-383-19-71-44-268-45-342 0-98 68-217 134-234 43-10 43 3-2 47-28 29-47 60-62 103-18 56-19 71-10 171 6 61 16 139 22 175 23 138 155 471 210 530 13 14 38 36 56 48 17 13 32 27 32 32 0 15-26 18-56 5z"/><path d="m10145 12720c-9-15 3-30 24-30 37 0 111-73 147-145 51-103 68-213 60-395-9-232-59-394-155-502-22-25-41-49-41-52s11-6 24-6c34 0 112 88 147 166 62 137 97 369 80 539-13 139-26 191-69 276-45 90-122 159-177 159-19 0-37-4-40-10z"/><path d="m11268 12646c-25-24-46-64-73-133-62-163-62-162-89-169-14-3-30-3-36 1s-17 1-25-5c-11-9-12-17-4-32 9-16 18-19 45-15 19 3 34 3 34 0s-11-37-25-75c-29-79-41-166-26-188s174-19 219 4c54 28 41 40-35 32-70-8-134-9-140-2-6 6 17 95 49 186 26 75 35 89 74 118 68 51 142 162 159 240 16 74-65 98-127 38zm49-93c-29-56-86-137-93-130-10 9 57 162 83 190 26 26 28 27 31 9 2-11-8-42-21-69z"/><path d="m12297 12663c-4-3-7-20-7-36 0-104-50-268-130-427-22-44-40-87-40-95 0-34 29-24 81 27 30 30 75 68 102 86l48 32-7-63c-8-79 4-92 85-91 64 0 165 40 202 80 31 33 11 32-91-6-45-16-96-30-114-30h-33l1 78c1 76 1 77-26 80-16 2-42-7-68-24-22-15-43-24-47-21-3 4 8 39 25 79 40 97 80 302 62 323-13 16-32 20-43 8z"/><path d="m2678 12613c-21-23-56-115-88-233-17-64-30-95-40-96-46-3-47-6-65-124-16-103-11-142 18-138 21 3 38 37 82 161 14 40 20 47 44 47 16 0 52 18 89 45 34 25 62 44 62 41 0-2-18-51-40-109-56-149-42-177 91-177 59 0 129 21 129 38 0 5-43 9-95 9-53 0-99 3-102 7-15 15 90 284 134 344 27 36 24 62-7 62-12 0-29-14-44-38-13-20-45-55-72-77-51-42-147-106-152-101-6 6 37 165 63 231 30 77 36 116 19 122-6 2-18-4-26-14z"/><path d="m1598 12596c-63-17-91-37-129-92-52-75-101-186-179-399-40-110-91-238-113-284-40-84-40-84-54-57-17 32-34 30-48-8-7-20-5-34 6-54 52-93 127 19 260 386 49 134 76 196 80 185 15-40 49-58 108-57 80 2 145 26 224 85 113 82 136 172 63 245-49 49-144 71-218 50zm125-52c53-18 77-45 77-87 0-46-25-80-90-126-98-69-208-93-231-50-8 15-18 20-35 16-13-2-24-3-24-2 0 14 58 127 87 171 58 87 122 110 216 78z"/><path d="m7583 12528c-29-33-29-33-63-164-17-65-40-132-50-149-26-42-42-221-22-242 22-21 39 0 46 60 4 29 13 75 20 102l12 50 67 7c64 6 102 22 175 74 20 15 22 15 22 1 0-9-14-53-31-99-38-103-49-197-25-217 28-24 87-17 164 18 116 54 82 87-38 36-87-36-93-35-84 23 3 26 15 72 26 102 24 68 87 267 95 297 7 30-26 45-41 19-68-114-159-189-252-209-30-6-56-8-59-5-10 10 55 232 76 261 36 49 2 79-38 35z"/><path d="m9877 12543c-4-3-7-26-7-49 0-60-52-258-91-346-33-75-44-157-22-165 13-5 17 0 84 89 27 37 54 70 59 73 6 4 10-23 10-69 0-70 2-77 25-92 18-12 36-15 65-10 55 9 168 63 180 87 19 34-11 32-94-6-112-51-116-50-117 33-2 121-19 142-86 102-32-19-35-19-28-3 16 41 75 285 75 311 0 39-32 67-53 45z"/><path d="m9095 12479c-50-14-110-73-148-146-41-79-46-95-92-319-40-189-56-246-93-319l-26-50-11 40c-7 22-18 40-26 40-16 0-33-66-25-100 7-28 49-44 75-28 27 16 80 105 101 169 17 51 80 331 80 357 0 5 5 5 11 1 21-13 96-5 152 16 60 23 149 95 172 141 22 42 19 115-6 151-36 50-96 67-164 47zm110-65c48-52 24-125-62-190-51-39-135-68-169-60-23 6-24 10-18 44 32 168 175 286 249 206z"/><path d="m2080 12389c-35-27-60-58-76-92-57-124-3-193 106-137 22 11 41 20 43 20s1-19-4-42c-4-24-8-65-9-91 0-46-4-53-63-118-150-164-215-367-150-466 15-23 22-25 66-20 62 6 93 29 128 97 42 82 61 172 67 313l5 128 76 55c73 54 99 80 88 91-7 6-90-31-128-58-17-12-31-20-33-18-7 9 22 197 34 222 11 22 11 33 2 48-7 10-12 34-12 54 0 24-6 37-19 45-36 19-69 10-121-31zm90-43c0-69-12-97-53-127-40-29-87-39-87-18 0 40 30 99 68 137 54 52 72 54 72 8zm-39-547c-15-170-61-287-123-308-38-13-44-6-54 57-12 78 45 211 139 325 22 26 41 46 43 44s0-55-5-118z"/><path d="m6582 12423c-35-7-92-71-123-139-15-34-43-124-62-200-50-203-97-299-97-198 0 27-4 34-20 34-41 0-47-68-9-109 44-47 88-17 127 87 17 42 36 104 43 137l12 60 67 1c82 0 171 39 201 88 30 46 23 155-11 192-24 25-80 56-97 53-4-1-18-4-31-6zm71-63c31-25 43-74 30-127-7-32-17-42-62-65-58-30-121-37-140-14-29 35 80 226 130 226 9 0 28-9 42-20z"/><path d="m9421 12384c-43-36-72-96-78-164-6-62 3-76 53-86 21-4 39 1 65 19l37 25-5-42c-5-34-14-49-57-86-121-106-162-167-173-261-11-92 49-199 113-199 40 0 103 31 125 61 31 44 49 150 49 296v132l38 27c67 50 102 87 102 111 0 13-2 23-5 23s-30-20-61-45c-30-25-60-45-66-45-11 0-6 91 8 138 5 18 2 24-15 29-13 3-21 13-21 27 0 30-20 54-51 61-19 5-34 0-58-21zm27-176c-33-33-58-36-58-8 0 33 31 114 54 138l21 24 5-64c5-59 4-65-22-90zm40-335c-4-160-16-200-65-222-55-25-86-2-104 80-17 72 11 140 88 221 37 37 71 68 76 68 6 0 8-57 5-147z"/><path d="m5140 12352c0-16 11-21 73-31 39-7 126-11 192-9 99 2 120 6 120 18s-21 16-105 21c-58 3-144 9-192 13-83 7-88 7-88-12z"/><path d="m7095 12356c-76-33-175-167-161-219 13-53 130-60 201-11l35 23v-58c0-106-5-117-74-154-33-17-89-60-123-95-141-143-168-306-62-385 37-27 80-15 135 35 57 53 125 212 149 353 16 89 21 103 49 127l31 27-29 1h-29l6 68c4 37 7 90 7 117 0 36 3 46 10 35 7-12 13-12 27-4 26 16 26 34 4 87-22 52-48 67-109 67-20-1-51-7-67-14zm124-67c16-45 15-64-3-50-19 16-38 6-58-29-32-56-168-98-168-52 0 24 46 88 94 130 29 26 45 32 80 32 40 0 45-3 55-31zm-83-468c-29-153-125-331-180-331-42 0-69 96-46 166 16 48 59 112 108 160 39 39 123 97 130 90 2-2-3-41-12-85z"/><path d="m4124 12304c-5-2-66-8-135-12-100-6-124-10-124-22 0-17 137-17 515-2 155 6 185 9 185 22s-31 15-215 17c-118 1-220 0-226-3z"/><path d="m11607 12298c-35-13-33-44 3-41 14 1 75 5 137 9 115 7 141 14 129 33-9 14-230 14-269-1z"/><path d="m8340 12211c0-19 9-20 148-24 81-3 160-7 177-8 21-3 30 1 33 12 6 30-43 39-203 39-147 0-155-1-155-19z"/><path d="m5285 12183c-11-2-30-6-42-9-15-3-23-12-23-25 0-20 4-21 48-16 26 4 100 9 164 13 122 7 155 16 128 34-14 9-234 12-275 3z"/><path d="m3109 12134c-51-21-84-93-84-185 0-81 19-109 73-109 128 0 231 198 149 288-24 26-82 29-138 6zm101-39c17-20 15-87-3-122-17-32-51-65-86-83-34-17-46 1-45 64 2 89 41 141 115 155 4 0 12-6 19-14z"/><path d="m8110 12115c-29-15-49-20-56-14-46 37-96-123-64-205 6-17 21-28 47-35 59-17 74-14 141 26 125 74 155 198 57 239-47 19-72 17-125-11zm120-46c23-42-20-113-91-149-70-36-109-20-109 45 0 20 4 26 15 22 9-4 22 8 37 34 26 47 59 68 105 69 23 0 36-6 43-21z"/><path d="m4062 12020c-41-9-46-15-38-35 4-12 14-15 33-11 89 17 140 18 156 1 10-9 17-22 17-29 0-20-46-73-130-151-182-169-178-185 46-185 117 0 154 3 163 14 18 21-7 26-139 26-65 0-121 4-124 8-3 5 44 56 105 115 60 59 114 119 120 134 14 38 3 89-24 108-23 16-126 19-185 5z"/><path d="m2926 11223c-14-38-32-95-40-128-15-59-47-149-65-183-20-37-61-153-61-172 0-26 27-37 44-19 7 8 26 48 41 90l27 77 76 4c47 3 96 14 125 26 26 12 47 19 47 16s-9-22-20-43c-26-52-44-126-36-155 7-30 50-46 120-46 103 0 99 33-5 44-32 4-61 11-63 15-11 17 64 212 124 323 24 44 25 67 5 74-22 9-41-11-69-71-29-64-75-100-157-126-71-22-133-25-127-6 3 6 15 44 27 82 53 169 65 201 78 222 18 27 10 43-22 43-20 0-27-10-49-67z"/><path d="m3891 11265c-54-46-105-172-166-410-32-126-33-180-3-196 25-13 178-5 228 12 71 25-26 53-105 30-17-4-45-6-64-3-33 5-33 5-27 46 14 83 37 145 57 151 10 4 19 10 19 15 0 4 33 41 73 82 82 82 109 130 115 203 5 57-12 80-64 91-24 4-37 0-63-21zm77-57c6-53-71-178-130-209-17-9-18-7-12 18 12 48 54 146 80 186 29 44 57 46 62 5z"/><path d="m12304 10835c-9-21 5-37 27-30 48 16 139-22 139-58 0-7-49-60-110-118-135-131-142-161-39-175 57-7 248 11 263 26 24 24-18 31-146 25-71-4-128-3-128 2 1 4 36 40 78 78 100 90 132 131 132 168 0 36-46 82-91 91-57 11-119 7-125-9z"/><path d="m10581 10776c-6-8-18-47-27-87-23-113-110-372-165-492-27-59-49-114-49-122 0-17 45-21 55-5 7 12 151 110 160 110 4 0 4-17 0-39-8-46 7-65 63-81 51-14 82-13 157 6 59 15 106 46 92 60-3 3-37-1-76-10-76-17-148-21-169-7-9 5-12 27-10 72 3 58 1 64-17 67-11 1-50-15-87-37-38-22-68-36-68-31s9 24 19 42c51 88 172 515 157 553-7 19-20 19-35 1z"/><path d="m3317 10763c-17-29-29-175-18-206 6-14 23-29 42-36 100-35 240 148 168 220-17 17-31 20-84 17-35-1-67 1-71 5-10 9-32 9-37 0zm151-55c18-18 15-38-15-81-25-36-68-67-93-67-6 0-10 23-10 54 0 48 3 57 31 80 33 28 68 33 87 14z"/><path d="m8532 10745c-45-33-108-140-152-260-27-76-53-131-71-150-32-34-36-53-15-61 11-4 11-11 0-42-22-61-18-98 14-122 24-20 35-22 97-17 80 6 105 14 105 32s-34 28-62 20c-31-10-99-8-111 4-6 6 0 39 17 93 21 69 34 91 71 128 99 97 176 217 210 328 15 50-54 81-103 47zm48-47c0-38-134-257-148-243-3 2 6 33 18 67 39 105 130 229 130 176z"/><path d="m7924 10742c-10-7-28-66-38-132-11-67-108-353-147-433-45-94-49-117-16-117 15 1 30 14 49 45 28 46 106 94 177 110 31 7 33 5 26-11-28-66-38-102-32-117 14-36 134-10 161 35 17 27 1 31-49 13-25-10-48-16-50-13-3 3 5 29 17 57 37 90 1 109-124 67-40-13-74-23-74-23-1 1 23 76 53 167 67 206 96 329 81 347-12 15-19 16-34 5z"/><path d="m6652 10678c-38-19-71-105-93-238-11-68-22-127-26-133-3-5-7-40-9-76s-6-100-9-141c-6-80 2-103 41-114 23-7 229 92 225 109-4 20-68 7-139-28l-72-36 1 77c1 141 10 174 62 232 55 61 100 151 117 233 14 72 8 100-25 115-31 14-43 14-73 0zm52-46c11-17-26-139-60-200-20-35-37-62-39-60-4 4 14 111 27 165 17 70 56 121 72 95z"/><path d="m5715 10658c-2-7-23-75-46-150-33-107-46-138-59-138-10 0-24-7-31-16-11-13-11-21 3-44 15-27 15-33-3-90-26-85-25-112 3-108 18 2 26 15 40 68 9 36 23 83 31 105l14 40 79 6c48 4 99 15 128 28 27 11 51 20 53 18 1-2-6-30-17-62-22-65-40-189-29-206 3-6 15-9 25-7 15 2 21 18 29 78 10 67 30 140 83 310 13 43 22 56 40 58 30 4 29 36-2 50-18 8-28 7-44-4-21-14-62-109-62-142 0-23-124-70-208-78l-61-7 44 143c25 79 42 147 39 151-8 14-44 11-49-3z"/><path d="m9761 10617c-6-8-18-42-26-78-37-147-65-218-93-231-23-11-28-21-33-69-3-31-9-61-12-66-10-16 17-45 35-38 9 4 29 35 44 71 27 61 30 64 64 64 19 0 64 14 99 30 63 30 63 30 57 8-4-13-10-53-13-90-6-67-5-68 22-78 22-8 37-7 68 5 42 17 51 14 71-26 33-66 148-89 201-39 58 53 72 139 31 187-22 26-30 28-93 28-61 0-72-3-108-32-22-17-62-43-90-58-62-33-64-27-35 87 15 58 35 103 66 150 38 57 43 71 34 88-15 27-56 26-74-2-8-13-25-49-37-81-21-56-24-58-102-97-68-34-117-49-117-36 0 2 7 20 15 41 31 74 73 253 62 264-14 14-22 14-36-2zm477-385c17-23 7-80-21-109-24-27-72-30-105-7-24 17-27 36-12 81 20 55 106 77 138 35z"/><path d="m12051 10593c-31-59-183-429-188-457-8-52 19-55 66-7 22 22 62 51 90 66l52 26-6-28c-4-15-8-38-11-50-12-60 88-69 155-15 19 16 37 34 39 40 6 19-40 14-73-8-16-11-38-20-48-20-15 0-17 6-11 48 5 38 2 52-11 65-22 22-30 21-94-8-30-14-55-24-57-22s31 83 72 180c42 97 74 184 70 192-7 20-33 19-45-2z"/><path d="m11462 10483c-12-27-31-87-43-135-23-96-25-98-116-98-67 0-106-15-101-38 4-18 8-19 121-7 68 8 68 8 59-16-15-40-22-113-13-128 18-28 37-2 55 77l18 80 78 6c45 4 83 13 90 20 15 19-8 26-86 26-43 0-64 4-64 12 0 27 34 146 52 181 22 43 18 67-10 67-12 0-26-16-40-47z"/><path d="m4670 10416c-45-8-65-16-65-26 0-16 65-17 295-2 92 6 115 10 115 22 0 13-23 15-140 16-77 1-169-4-205-10z"/><path d="m7080 10374c-11-12-11-18 2-30 11-12 21-13 42-4 15 5 80 10 144 10s124 5 132 10c32 21-16 30-161 30-120 0-149-3-159-16z"/><path d="m3020 10344c-8-2-55-8-105-12-70-5-90-10-90-22s17-15 95-14c1213 19 1195 19 1195 34 0 13-67 15-540 16-297 1-547 0-555-2z"/><path d="m9060 10310c0-20 4-20 168-18 141 3 167 5 167 18s-26 15-167 18c-164 2-168 2-168-18z"/><path d="m4560 10229c0-29 109-42 260-30 74 6 138 15 143 20 25 25-11 30-203 28-174-2-200-4-200-18z"/><path d="m6107 10162c-27-17-47-63-47-110 0-53 106-98 172-73 51 19 83 100 57 148-28 51-125 70-182 35zm129-43c18-15 18-49-2-77-27-39-124-23-124 21 0 7 9 27 21 46 18 30 24 33 55 28 20-3 42-11 50-18z"/><path d="m3440 10144c-8-3-40-13-70-22-32-10-69-32-93-54-33-32-38-41-35-75 3-33 6-38 28-38 21 0 25 5 25 31 0 44 27 69 98 93 76 26 112 26 136 2 37-37 31-45-172-239-101-96-118-116-115-140 4-37 35-40 102-8 59 28 133 33 284 21 67-6 87-4 107 9 14 9 25 20 25 24 0 13-347 22-395 9-24-6-6 16 97 115 104 102 127 130 133 161 8 40-9 78-44 96-23 13-91 22-111 15z"/><path d="m5576 9065c-103-95-210-556-210-895 1-152 13-213 46-234 27-16 31-2 17 61-27 123 0 494 51 693 46 181 103 321 142 351 13 10 19 23 15 33-9 23-30 20-61-9z"/><path d="m3842 9048c2-19 8-22 36-20 67 7 105-48 79-110-8-18-42-66-76-106-33-41-61-79-61-86 0-28 39-45 132-60 110-18 196-20 218-6 28 18-6 31-101 41-121 11-189 21-189 25 0 2 27 36 60 76 66 78 86 127 76 181-10 56-55 87-122 87-52 0-55-2-52-22z"/><path d="m7327 8963c-10-9-9-43 1-43 20 0 146-116 177-163 75-114 107-270 81-404-23-123-66-204-155-294-42-42-82-79-90-81-23-7-5-38 21-38 37 0 187 161 226 243 59 123 75 250 47 391-27 143-91 243-219 345-63 51-77 57-89 44z"/><path d="m10092 8942c-7-5-27-36-46-71-18-34-63-93-100-131s-65-74-61-80c9-15 41-12 55 5 23 28 20 10-11-70-33-87-33-117 2-94 12 8 45 73 79 157 33 78 76 165 95 193 38 56 44 83 19 93-19 7-16 7-32-2z"/><path d="m3435 8878c-8-29-24-102-35-163-28-146-64-289-101-402-33-101-32-136 4-131 17 2 25 14 34 52 13 52 57 109 82 104 7-2 23-32 35-68 28-84 54-97 124-60 62 33 132 101 132 128 0 12-2 22-5 22s-41-27-86-60c-44-33-84-60-89-60-8 0-26 40-36 82-10 43-48 72-85 64-29-5-31-4-25 17 17 62 57 234 75 328 11 58 25 118 31 133 17 46 13 66-15 66-21 0-27-7-40-52z"/><path d="m8053 8873c-3-10-14-27-23-38-20-25-70-137-70-159 0-9 8-16 18-16 12 0 25 17 40 52 27 63 37 57 23-14-35-174-47-224-88-342-61-180-61-176-30-176 19 0 32 12 56 48 17 27 48 61 69 76l37 26 3-75c2-66 6-77 26-91 27-17 46-14 151 23 76 26 115 48 115 63 0 6-9 10-19 10-16 0-148-38-196-57-8-3-14 21-18 78-4 56-10 87-22 98-15 15-20 14-65-10-28-15-50-24-50-20 0 3 10 33 21 66s33 126 49 206c29 143 36 221 24 253-8 21-43 20-51-1z"/><path d="m10698 8873c-19-22-63-166-93-305-16-76-17-78-45-78-42 0-50-23-42-121 7-84 7-84 36-84 32 0 30-3 61 108 16 57 16 57 58 57 23 1 60 7 82 15s41 15 42 15-5-19-13-42c-15-44-32-179-26-210 2-11 19-22 45-29 61-16 107-37 107-49 0-16 64-40 108-40 45 0 99 32 121 71 12 22 13 31 1 58-17 41-51 59-131 67-55 5-69 3-101-15-20-12-39-28-42-36s-17-15-32-15c-27 0-27 0-21 68 11 111 43 198 93 248 28 29 46 57 50 80 16 84-52 64-101-30-35-66-84-99-169-111-46-7-49-6-42 11 4 11 14 48 21 84 8 36 26 106 41 155 29 101 34 136 18 142-6 2-18-4-26-14zm357-619c12-3 27-14 34-26 11-17 9-23-10-44-25-27-95-34-117-12-13 13-17 70-5 81 8 8 70 9 98 1z"/><path d="m5877 8850c-43-38-96-139-133-254-27-84-32-91-76-120-52-34-64-66-25-66 13 0 28 5 35 12 15 15 15 14-3-46-23-74-20-122 10-151 13-14 34-25 46-25 41 0 137 32 159 53 35 32 4 40-63 17-76-27-105-26-112 3-9 35 40 207 63 223 33 23 117 135 152 202 71 138 38 232-53 152zm9-123c-43-87-75-131-76-104 0 20 52 127 83 171 36 51 31 9-7-67z"/><path d="m6696 8788c-8-13-26-68-41-123-14-55-33-125-42-155-17-59-43-172-46-205-1-14 5-21 19-23 24-3 40 26 52 98 8 45 8 45 57 51 48 6 187 68 200 89 15 24 22 7 13-32-5-24-8-76-6-117 4-94 24-114 105-109 46 3 53 1 53-15 0-57 63-85 150-66 97 21 176 131 141 197-18 33-96 65-146 60-53-6-120-58-136-105-9-29-15-33-47-33-62 0-67 9-66 102 2 91 26 175 69 240 14 21 28 52 32 68 5 27 3 30-21 30-21 0-31-10-55-59-35-69-91-120-182-166-69-35-139-54-139-38 0 6 7 32 15 59 32 107 66 255 60 264-10 16-23 12-39-12zm587-418c22-18 24-24 16-53-12-44-63-85-116-93-76-11-101 43-41 89 17 14 32 36 34 49 1 12 3 24 3 26 1 1 18 2 40 2 23 0 48-8 64-20z"/><path d="m11496 8800c-16-5-40-19-53-32-37-34-99-165-114-237-7-37-20-71-32-82-14-13-17-22-10-31 6-7 13-35 16-62 7-68 38-98 111-104 65-5 106 3 106 22 0 9-21 15-69 20-45 5-74 13-83 23-18 22-15 103 4 114 42 24 141 117 172 163 20 29 40 76 47 109 11 53 11 59-7 76-25 25-53 31-88 21zm44-69c0-62-43-134-115-195l-46-38 7 38c9 54 69 174 100 202 35 31 54 28 54-7z"/><path d="m6302 8658c-5-7-17-44-26-83-26-108-25-105-54-105-52 0-103-20-100-38 3-14 13-16 62-14l59 4-7-34c-4-18-9-66-13-105-5-63-4-73 12-79 23-9 31 7 40 80 3 33 11 82 17 109 9 46 11 47 46 47 56 0 112 19 112 37 0 13-11 15-70 11-44-2-70 0-70 7 0 5 9 42 19 80 18 66 15 95-9 95-4 0-12-6-18-12z"/><path d="m12895 8610c-22-11-50-32-62-46-23-26-31-68-14-79 6-3 4-18-3-38-26-63-28-109-6-145 32-51 88-72 198-72 106 0 137 11 178 66 36 46 44 134 20 197-19 51-78 110-125 126-53 17-140 13-186-9zm210-60c84-78 84-209 1-262-26-16-43-19-108-14-145 10-178 56-127 172 17 38 19 51 10 66-25 40 34 70 131 65 55-2 72-7 93-27z"/><path d="m9127 8583c-4-3-7-30-7-60v-53h-70c-62 0-70-2-70-19 0-29 28-47 51-33 10 7 35 12 55 12h36l-6-52c-3-29-9-77-12-106-4-35-2-57 6-67 28-34 45 24 55 190 1 30 1 30 73 33 64 3 72 5 72 22 0 18-7 20-73 20h-73l-2 36c-2 20 2 42 8 50 7 7 9 18 5 24-7 11-38 14-48 3z"/><path d="m12345 8539c-22-4-99-8-172-8-108-1-135-4-148-17-9-9-13-20-8-24 4-4 102-4 217 1 215 8 251 16 212 45-22 15-40 16-101 3z"/><path d="m4915 8501c-4-7-60-11-151-11-138 0-144-1-144-20 0-20 5-20 168-18l167 3v25c0 26-28 40-40 21z"/><path d="m9742 8413c3-16 18-18 163-18 136 0 160 2 160 15s-26 15-163 18c-152 2-163 1-160-15z"/><path d="m12095 8399c-15-24 16-30 146-27 111 3 134 6 134 18s-23 15-137 18c-92 2-139-1-143-9z"/><path d="m9802 8273c3-15 17-19 78-23 84-6 100-12 100-41 0-26-87-108-175-166-77-51-86-60-78-80 10-26 276-10 310 19 36 30-22 34-177 12l-45-7 40 28c78 54 153 126 170 165 17 37 17 41 1 65-23 36-54 45-147 45-71 0-80-2-77-17z"/><path d="m15567 7363c-13-13-7-33 21-65 104-121 152-309 152-593 0-267-43-451-145-620-29-49-57-98-61-109-7-17-5-17 23-2 80 41 180 234 212 410 38 204 33 493-10 676-37 157-154 342-192 303z"/><path d="m14756 7303c-9-9-323-20-926-32-397-9-566-17-900-42-74-6-630-14-1235-18-903-7-1129-11-1260-24-88-9-212-17-275-18-113-1-195-15-195-34 0-6-12-26-27-45-48-63-178-281-295-495-64-115-145-255-182-310l-66-100-3 67c-2 46 7 115 28 216 35 171 36 185 14 207-23 22-289 18-289-5 0-12 22-15 123-18 138-3 140-4 121-73-27-99-40-180-49-293-8-101-7-123 5-143 9-13 24-23 34-23 44 0 141 141 314 455 109 200 216 381 278 472 16 23 29 48 29 56 0 18 54 23 325 32 99 3 214 10 255 16 42 6 575 14 1225 18 670 6 1192 13 1250 20 204 21 451 33 885 42 245 6 531 14 635 20 105 5 335 12 513 15l322 6v-70c0-79 13-98 42-62 13 16 18 39 18 80 0 98 34 90-359 90-191 0-351-3-355-7z"/><path d="m5014 7163c-30-68-65-139-85-172-10-17-11-25-3-28 11-4 0-55-35-173-14-45-14-107-1-115 16-10 40 14 40 40 0 34 74 279 114 378 42 103 45 127 15 127-15 0-26-14-45-57z"/><path d="m6076 7141c-23-25-59-159-105-396-54-272-64-348-64-505 0-195 25-269 105-299 27-10 58-6 58 8-1 3-15 15-33 26-55 34-71 83-75 223-5 151 8 270 59 527 48 245 82 373 105 389 21 16 12 46-14 46-10 0-26-8-36-19z"/><path d="m3402 7098c-7-7-12-35-12-64 0-90-66-530-95-631-21-71-19-83 8-83 17 0 33 14 57 52 19 28 47 66 63 84 32 37 95 79 104 70 3-3 2-42-4-87-12-103-4-114 76-106 61 5 134 35 128 51-4 12-34 12-109 1-54-9-55-6-39 70 12 50 1 115-20 128s-98-23-151-71c-21-19-38-30-38-26 0 5 5 36 10 69 23 135 70 472 70 500s-15 55-30 55c-3 0-11-5-18-12z"/><path d="m10333 6978c-100-107-173-383-173-650 0-94 31-168 79-188 41-16 49-8 23 25-46 58-55 115-43 264 20 243 75 431 149 513 56 62 23 97-35 36z"/><path d="m12288 6978c-18-6-28-17-28-29 0-23 25-35 43-21 16 13 68 18 85 9 23-15 12-52-38-125-57-84-63-118-24-132 33-13 215-13 234 0 26 17-4 27-102 33-50 3-93 8-96 11-2 3 19 40 47 83 44 64 52 82 47 107-10 51-43 76-95 75-25 0-58-5-73-11z"/><path d="m8537 6953c-4-3-10-28-13-54l-6-48-77-3c-60-2-76-6-76-18s17-16 78-18l77-3v-57c0-92 12-163 27-169 30-12 36 13 23 96-7 44-9 92-6 106 6 22 11 25 54 25 51 0 90 19 78 38-5 8-27 10-68 5l-61-6 7 56c5 51 4 57-12 57-10 0-22-3-25-7z"/><path d="m10669 6914c-63-60-120-172-149-295-28-119-33-129-71-129-24 0-30-4-27-17 2-13 14-19 39-21 36-3 37-4 43-51 15-114 120-140 268-65 42 21 78 56 78 76 0 15-23 8-102-32-132-66-184-52-195 52-5 54-5 56 46 119 90 111 196 346 178 393-12 31-56 18-108-30zm-3-156c-25-51-55-104-66-118l-22-25 6 35c8 45 59 155 94 200 45 58 39 12-12-92z"/><path d="m6391 6870c-31-43-65-137-91-255-22-101-48-145-86-145-8 0-14-9-14-20 0-16 7-20 30-20h30v-89c0-49 3-97 6-106 20-52 174-61 174-10 0 11-13 15-54 15-76 0-80 9-72 129l6 99 68 92c72 96 96 153 108 251 5 44 3 59-11 72-27 27-68 21-94-13zm55-67c-11-75-34-135-66-173l-30-35 6 30c23 104 72 225 91 225 3 0 2-21-1-47z"/><path d="m12081 6877c-6-8-9-16-6-19 14-14 56-187 64-263 20-202-38-433-133-524-58-56-14-75 48-20 99 87 167 371 136 574-20 134-64 265-89 265-5 0-14-6-20-13z"/><path d="m14237 6875c-16-15-35-76-56-170-33-153-44-195-52-195-5 0-9-17-10-37 0-21-6-72-13-113-16-84-12-102 17-98 22 3 27 18 42 131 4 33 12 50 23 53 38 12 118 50 150 72l34 23-7-68c-3-38-8-82-11-99-7-48 36-96 84-92 46 4 50 19 9 38-32 15-32 15-31 90 2 101 26 182 81 263 37 55 43 70 33 82-29 35-78-2-110-83-7-18-34-52-61-76-47-42-153-105-162-96-5 5 8 67 48 230 15 58 27 116 28 129 2 29-15 37-36 16z"/><path d="m7262 6858c-9-12-36-165-49-280-4-38-9-47-27-50s-21-9-19-48c2-36 7-103 12-152 2-13 41-9 46 5 2 6 9 44 15 84 11 69 13 72 43 78 52 11 170 64 196 88l23 22-6-22c-13-41-24-227-15-251 10-26 54-45 89-38 15 3 45-5 76-20 46-22 55-24 102-13 73 15 118 59 127 123 6 39 4 53-12 74-46 62-149 61-208-2-16-18-38-35-47-39-9-3-21-21-26-39-6-24-15-34-32-36-23-4-23-4-18 95 4 70 15 127 38 200 34 111 35 138 6 138-14 0-23-12-33-42-20-59-95-124-187-162-94-39-100-39-93 2 23 131 39 267 34 281-8 19-21 21-35 4zm548-418c38-38 3-112-61-132-37-10-46-10-78 8-43 24-43 43 2 89 59 59 102 70 137 35z"/><path d="m11524 6802c-23-15-56-97-85-208-32-128-38-214-14-234 26-22 45 5 45 65 0 52 0 52 43 65 49 14 113 50 176 97 24 18 45 32 47 30 2-1-4-22-12-46-19-57-28-123-20-155 5-19 16-28 46-36 21-6 50-8 64-4 22 5 25 3 24-26-1-37 29-82 63-91 44-13 104-9 128 7 43 30 65 119 41 164-12 22-79 44-104 34-10-4-16-1-16 9 0 50-77 31-100-23-12-28-16-31-54-28l-41 3 2 48c3 49 33 132 81 225 23 45 25 54 12 62-23 15-25 14-77-36-102-96-271-209-288-192-9 9 31 153 57 205s16 88-18 65zm497-398c11-13 10-23-2-57-13-40-16-42-59-45-33-3-47 1-57 14-22 30-15 48 29 77 48 31 70 34 89 11z"/><path d="m13684 6799c-47-13-70-44-58-77 13-37 48-37 52 0 4 32 26 41 93 36 43-3 44-4 53-46 7-33 5-51-10-85-24-55-144-172-228-221-101-59-91-70 74-77 74-3 152-10 172-14 45-9 88 0 88 19 0 17-47 27-177 35l-102 6 78 65c99 82 161 175 161 242 0 63-18 108-47 119-30 11-107 10-149-2z"/><path d="m15040 6770c-26-27-101-168-115-213-3-11-14-21-25-24-23-6-27-31-7-39 11-4 13-23 9-79-4-71-3-75 24-103 36-35 96-47 171-32 59 11 103 30 124 56 12 15 10 16-26 12-22-3-65-11-95-18-68-16-126-7-141 21-7 13-8 43-4 81 6 50 12 64 39 86 104 88 159 175 154 240-3 35-5 37-41 40-31 3-43-2-67-28zm60-35c0-26-36-88-69-119-17-17-31-26-31-22 0 20 80 156 93 156 4 0 7-7 7-15z"/><path d="m11179 6674c-7-9-15-45-17-80l-4-63-52-10c-28-6-71-12-96-13-32-2-45-7-45-18 0-12 17-15 96-14l96 1v-31c0-93 4-117 18-123 9-3 18-4 20-1 2 2 8 40 12 83l8 79 40 8c77 15 85 18 85 34 0 14-10 16-65 12l-65-4v36c0 19 4 49 8 65 15 51-9 75-39 39z"/><path d="m4754 6616c-3-9-1-23 6-31 10-13 53-15 256-15 133 0 245 4 248 9 14 23-32 30-234 34-118 3-227 8-242 12-21 5-29 3-34-9z"/><path d="m6779 6614c-7-9-15-45-17-80l-4-64h-69c-62 0-69-2-69-20s7-20 64-20h63l6-92c5-93 12-128 27-128s22 35 27 128l6 92 31 1c17 0 40 4 51 8 19 8 19 8-2 19-12 7-36 12-53 12h-31l3 76c3 80-6 100-33 68z"/><path d="m3876 6595c-9-23 8-26 150-23 107 3 129 6 129 18 0 23-270 28-279 5z"/><path d="m16294 6565c-4-9-2-21 4-27 21-21 137-39 285-45 128-5 147-4 147 10 0 23-23 28-170 38-74 5-153 14-175 20-82 22-85 22-91 4z"/><path d="m8595 6520c-11-5-43-9-70-9-36-1-60-8-81-23-164-120-182-141-190-227-10-95 13-120 144-152 214-54 509 18 542 131 27 94 5 173-62 223-70 52-222 83-283 57zm182-62c32-12 70-35 86-51 24-26 27-37 27-98 0-65-1-69-33-93-42-32-89-49-200-71-55-11-105-15-135-11-73 10-144 27-179 42-32 13-33 16-33 71 0 49 5 63 28 89 36 40 91 80 122 86 29 7 82 25 125 44 45 20 127 17 192-8z"/><path d="m8405 6360c-4-7 0-19 9-28 13-14 42-18 149-20 140-4 200 5 205 29 2 13-20 15-145 14-81 0-162 4-180 8-21 5-33 4-38-3z"/><path d="m12880 6511c0-20 5-21 141-21 79 0 159-5 181-12 49-14 73 1 45 30-15 15-42 17-192 20-171 3-175 3-175-17z"/><path d="m3978 6458c-39-7-58-15-58-24 0-24 21-26 149-14 126 10 176 24 150 41-18 11-168 9-241-3z"/><path d="m14614 6454c-83-40-124-117-90-169 42-65 167-33 202 51 20 47 17 69-8 97-30 32-66 40-104 21zm64-46c29-36-24-108-79-108-43 0-40 42 7 86 38 36 55 41 72 22z"/><path d="m4832 6359c-24-7-32-15-30-27 3-14 13-16 65-14 71 4 119-15 129-52 12-51-45-135-135-196-50-34-65-65-37-76 21-8 305 45 340 64l31 17-54 3c-29 2-76-2-103-7-27-6-60-11-74-11-25 0-25 1 16 47 95 109 94 199-4 244-44 20-92 23-144 8z"/><path d="m16240 6352c0-29 25-34 222-39 164-5 180-4 209 14l31 20-184 7c-101 4-204 9-230 13-43 5-48 4-48-15z"/><path d="m12930 5300c0-6 20-45 45-88 133-231 160-543 69-810-44-129-130-298-230-449l-74-113h33c20 0 37 7 43 18 162 252 221 364 273 516 87 252 81 536-16 756-38 86-103 180-124 180-11 0-19-5-19-10z"/><path d="m6073 5221c-64-47-93-82-155-186-65-110-121-269-140-395-16-113-16-414 1-475 36-131 155-288 235-312 22-7 41-11 43-9s-34 44-80 93c-133 142-162 225-160 448 2 172 15 278 48 392 44 155 140 325 226 401 27 24 49 47 49 52 0 20-32 16-67-9z"/><path d="m5031 5079c-41-39-94-84-118-100-45-31-54-53-27-63 19-7 26-4 82 41 23 19 42 30 42 26 0-5-18-63-39-129-42-126-41-156 4-114 16 15 35 57 55 124 42 139 70 207 93 233 20 23 17 53-5 53-7-1-46-32-87-71z"/><path d="m9871 5102c-16-5-57-53-117-137-87-122-129-188-296-464-69-113-148-225-154-218-3 3 5 44 36 187 52 233 41 274-68 256-20-3-67-9-104-12-47-5-69-11-73-22-8-22 20-48 37-35 7 6 52 14 101 18 87 7 87 7 87-19 0-14-18-107-40-207s-40-191-40-201c0-28 44-45 75-28 24 13 118 134 162 210 139 238 335 537 397 608l29 33 816-4c522-3 884-10 1006-18 105-7 332-13 505-13 279 0 391 6 587 30l52 6-19-40c-20-41-25-62-14-62 34 0 99 88 89 121-7 20-13 20-103 15-54-3-144-11-202-17-140-16-648-15-775 1-112 14-1931 25-1974 12z"/><path d="m10611 4991c-22-14-5-44 21-38 27 7 84-18 93-41 8-20-20-45-94-85-51-27-83-69-65-86 5-5 62-12 127-15 102-6 117-5 117 9 0 21-15 26-102 34l-73 7 52 27c77 40 111 94 85 135-31 48-122 78-161 53z"/><path d="m12364 4935c-9-22 6-37 29-31 26 7 87-19 87-37s-35-50-111-100c-81-54-92-72-60-98 21-17 40-19 171-19 111 0 150 3 159 13 18 22 3 27-88 28-47 1-111 4-141 7l-55 7 55 31c57 32 130 104 130 127s-32 59-66 73c-44 19-103 18-110-1z"/><path d="m10255 4902c-72-44-147-172-161-274-5-34-13-52-30-63-27-17-31-40-11-52 11-6 12-28 5-108-5-54-7-110-3-122 7-28 44-39 82-25 50 19 222 99 248 116 30 20 33 36 5 36-22 0-148-48-220-85-27-14-52-25-55-25-7 0-6 107 1 163 6 42 11 49 49 71 91 54 196 202 212 299 4 29 1 40-20 61-31 31-61 33-102 8zm65-59c0-49-56-151-115-210-31-30-58-53-61-50-8 8 23 122 45 164 26 50 94 123 115 123 11 0 16-9 16-27z"/><path d="m6252 4856c-33-38-61-107-98-241-35-125-39-133-79-152-19-9-35-23-35-30 0-20 28-27 55-15 24 11 25 11 23-34-2-40 2-50 26-70 26-23 35-25 124-22 78 2 97 6 97 18s-20 16-89 22c-49 3-93 11-98 16-6 6-9 39-6 74 4 61 6 66 75 153 80 102 105 147 123 224 12 52 12 55-10 73-35 29-73 23-108-16zm64-64c-16-58-29-83-73-141-40-53-40-48-8 49 29 87 59 140 79 140 12 0 12-7 2-48z"/><path d="m7375 4832c-22-33-75-210-75-250 0-8-9-25-20-39-15-19-20-40-19-82 2-92 10-116 39-116 24 0 25 3 35 94l10 93 62 23c34 12 93 40 130 63 37 22 69 39 71 38 1-2-11-37-28-79s-38-105-47-140c-16-60-16-66-1-89 18-27 79-43 122-32 21 5 24 1 29-36 10-78 71-110 210-110 109 1 177 47 177 121 0 70-89 116-208 106-34-2-65-1-68 4-10 17-57 9-86-16-26-22-39-25-82-23-49 3-51 4-48 31 4 29 28 104 83 247 34 90 41 141 22 147-6 2-17-4-25-13-46-60-106-107-180-143-135-65-129-67-106 31 10 46 30 106 44 135 15 28 23 56 20 62-13 21-36 11-61-27zm610-501c38-22 44-60 14-87-18-16-36-19-125-19-116 0-129 6-141 65-6 34-6 34 12 17 17-18 19-17 44 7 14 14 37 30 51 35 32 13 107 4 145-18z"/><path d="m11424 4802c-23-14-64-105-81-182l-17-78-108-17c-108-18-130-27-109-48 8-8 37-8 108 1 53 6 98 10 100 9 1-2-5-45-13-96-17-109-16-156 6-156 16 0 40 86 56 200l9 60 85 10c64 8 85 14 85 25 0 12-17 16-82 18l-81 3 14 59c17 72 39 128 61 152 26 29 0 62-33 40z"/><path d="m12058 4720c-24-33-145-128-193-153-34-17-167-58-172-53-2 2 17 48 42 103 51 113 53 123 26 123-26 0-35-14-85-124-24-54-53-106-65-117-16-15-21-32-21-67 0-26-4-61-9-79-7-24-6-35 5-44 22-18 41-4 48 38 4 21 14 57 23 81 13 35 20 42 42 42 43 0 176 45 230 79 28 17 51 29 51 27s-11-28-24-57c-33-71-44-170-22-204 19-29 85-49 133-40l33 6v-50c0-42 5-56 31-86 54-61 167-70 229-19 35 30 63 98 55 135-13 60-80 93-207 102-68 5-68 5-88-28-19-30-23-33-53-25-17 4-44 11-58 14-15 3-29 13-33 21-19 49 74 289 133 344 28 26 31 34 21 46-20 24-47 18-72-15zm227-411c54-15 75-36 75-75 0-52-36-86-98-92-47-4-54-2-82 26-23 23-30 39-30 69 0 48 9 62 46 73 40 11 43 11 89-1z"/><path d="m6860 4705c-5-14-10-50-10-79 0-62 0-62-117-73-81-7-107-23-80-50 13-13 21-14 44-5 15 6 57 13 91 17l64 6-7-73c-5-56-3-77 8-92 14-19 14-19 25 0 5 10 15 50 20 88 6 37 13 70 15 72 2 3 31 8 63 12 44 5 60 11 62 25 3 15-5 17-62 17h-65l-3 77c-3 65-6 78-20 81-12 2-21-6-28-23z"/><path d="m3823 4675c-3-9-4-17-2-18s18-12 36-25c42-29 77-30 70-2-5 19 0 20 104 20 85 0 119-4 159-20 63-25 62-25 58 2-6 46-56 57-246 58-147 0-174-2-179-15z"/><path d="m5040 4619c-30-4-82-12-115-18s-79-11-103-11c-36 0-43-3-40-17 4-23 92-29 176-13 31 6 110 15 175 20 66 5 121 11 124 14s3 12 0 21c-5 12-22 15-84 14-43-1-103-5-133-10z"/><path d="m14005 4620c-15-25 13-30 151-30 111 0 152-4 175-15 47-25 66-2 29 35-18 18-33 20-184 20-99 0-167-4-171-10z"/><path d="m8636 4543c-4-4-53-10-109-13-82-4-102-8-102-20s19-15 100-17c113-3 210 14 210 37 0 11-13 16-45 18-25 2-49-1-54-5z"/><path d="m3920 4510c0-19 7-20 154-20 146 0 223 11 210 31-3 5-86 9-185 9-172 0-179-1-179-20z"/><path d="m14040 4432c0-29 52-42 167-42 89 0 143 11 143 28 0 5-53 12-117 16-65 4-135 9-155 13-34 5-38 3-38-15z"/><path d="m4900 4330c0-18 7-20 69-20 60 0 74-3 100-26 39-32 39-60 2-110-38-52-62-73-146-127-38-25-79-54-89-66-18-20-18-23-3-38 14-15 26-15 109-4 51 7 130 16 176 21 52 5 93 15 110 27l27 18-60 3c-33 2-102-2-153-8-52-6-96-10-98-7-3 2 17 19 45 36 57 37 137 119 151 156 20 52 12 85-29 126-39 39-39 39-125 39-79 0-86-2-86-20z"/><path d="m14215 3460c-3-5 15-67 40-137 112-307 131-403 122-615-6-153-30-249-98-388-46-95-61-114-151-203-84-81-96-97-77-97 49 0 158 90 221 182 88 131 144 295 163 483 7 70-9 262-31 355-15 65-115 351-141 403-14 27-37 36-48 17z"/><path d="m10376 3275c-6-28-12-35-29-35-13 0-38-16-59-37-36-38-154-198-238-323-72-108-241-332-246-328-2 3 10 36 27 74 58 128 37 185-73 199-85 10-173 3-173-15 0-12 21-16 104-21 154-10 157-18 64-203-51-103-54-111-37-123 27-20 37-17 92 27 54 44 106 106 218 265 204 290 251 355 291 403 24 30 43 57 43 62 0 4 9 6 20 3 14-4 23 2 32 22 11 24 16 26 47 21 44-8 434-22 941-35 206-6 508-15 670-21 611-22 1021-32 1517-37l511-5-5-36c-2-21-11-63-19-95-18-76-18-107 1-107 27 0 63 103 80 228l7 52h-314c-172 1-432 5-578 11-146 5-429 14-630 19s-502 14-670 19c-168 6-498 15-735 21-236 5-511 15-609 20-261 14-243 16-250-25z"/><path d="m5843 3238c-34-38-140-247-177-350-32-88-74-276-91-405-10-79 12-230 41-281 29-49 86-90 136-99 55-8 54 13-1 43-122 66-148 205-95 490 33 175 77 300 165 467 63 118 76 157 51 157-5 0-18-10-29-22z"/><path d="m4919 3223c-8-10-33-44-54-77-22-32-54-79-72-105-32-47-40-75-24-85 17-11 38 5 55 41 27 57 27 34 0-52-41-130-54-195-40-195 26 0 46 39 91 180 26 80 60 175 77 212s28 74 25 83c-8 20-40 19-58-2z"/><path d="m10642 3008c2-14 11-24 23-26 52-8 66-14 94-44 37-39 31-53-43-105-106-74-102-116 12-121 70-3 123 11 106 28-5 5-37 10-72 12l-63 3 63 50c82 66 91 90 52 146-32 47-90 78-142 79-29 0-33-3-30-22z"/><path d="m13427 2943c-4-3-7-12-7-20 0-9 15-13 50-13 41 0 52-4 65-24 8-13 13-30 9-39-6-15-95-77-112-77-4 0-20-11-36-23-21-17-27-29-23-42 6-15 19-17 115-14 95 4 114 8 167 34 98 49 81 73-26 36-57-19-149-36-149-27 0 3 18 15 39 26 80 40 102 103 55 159-23 28-31 31-83 31-32 0-61-3-64-7z"/><path d="m6265 2881c-3-11-30-40-60-66-62-53-108-123-103-157 5-35 34-34 46 2 6 17 21 43 33 58l22 27-6-30c-23-112-39-235-34-249 10-26 53-17 49 9-6 44 49 277 78 335 17 33 30 66 30 75 0 23-47 19-55-4z"/><path d="m10417 2804c-88-79-157-154-157-171 0-37 32-21 97 47 37 40 69 67 71 60 2-6-5-21-16-33-26-27-112-204-112-229 0-11 7-18 20-18 16 0 31 22 69 98 26 53 60 115 74 136 36 52 61 135 46 153-18 20-25 17-92-43z"/><path d="m12303 2814c-8-21 5-28 120-65 53-17 97-36 97-42 0-7-16-36-35-64-29-43-41-53-72-58-64-11-73-16-73-36 0-15 7-19 31-19h30l-23-42c-12-24-31-53-41-65-21-24-16-43 12-43 23 0 36 15 82 94 35 61 35 61 104 73 37 7 70 15 73 18 6 6-45 25-69 25-25 0-24 1 11 58s37 73 12 95c-15 14-220 87-244 87-5 0-11-7-15-16z"/><path d="m15110 2800c-77-13-203-30-245-32-28-2-40-8-40-18 0-22 90-25 205-6 52 8 121 18 153 22 46 5 57 10 55 23-4 19-56 23-128 11z"/><path d="m11396 2778c-7-13-25-45-38-73-24-49-25-49-91-64-56-11-67-17-67-34 0-18 5-19 50-14 28 3 50 5 50 3s-7-20-16-41c-16-40-16-96 2-102 11-4 18 8 59 103 27 62 27 62 78 66 57 5 108 25 115 47 4 11-9 12-67 6l-71-7 16 37c8 20 21 46 27 56 10 16 9 21-3 29-22 14-28 12-44-12z"/><path d="m7740 2770c0-19 7-20 126-20 125 0 125 0 118-22-3-13-23-48-43-79-21-30-43-69-49-85-12-28-18-31-88-41-83-12-89-15-80-39 5-13 16-15 68-9 57 7 61 6 54-11-22-57-30-104-19-115 20-20 38-3 56 57 25 79 30 84 96 84 59 0 100 18 87 39-5 8-27 9-72 5l-65-7 32 54c17 30 40 66 50 81 25 35 34 81 20 107-11 20-19 21-151 21-133 0-140-1-140-20z"/><path d="m13090 2780c-14-4-53-8-86-9-72-1-78-9-68-79 6-42 10-46 55-65 59-25 63-47 20-95-35-38-68-52-120-52-36 0-37 1-33 29 5 39-22 49-44 16-37-57 5-99 92-91 68 6 127 37 159 83 44 66 31 120-35 147-32 13-40 21-40 41 0 23 4 25 43 26 23 0 85 6 137 12 71 10 95 16 95 27 0 12-17 15-75 17-41 1-86-2-100-7z"/><path d="m8445 2759c-22-4-66-8-97-8-65-1-107-17-109-40-4-61 28-132 68-150 13-6 48-14 78-17 30-4 56-12 59-20 13-33-109-124-166-124-23 0-28 4-28 24 0 33-25 53-45 36-21-18-19-66 5-90 55-55 228 19 280 118 27 54-22 102-104 102-43 0-84 33-92 76l-6 31 114 11c62 6 159 14 214 18 105 7 131 14 120 33-8 13-229 13-291 0z"/><path d="m6802 2748c-6-7-16-34-22-60-14-53-26-58-137-58-56 0-64-2-61-17s17-18 89-21l87-3-9-37c-12-52-11-150 1-157 18-11 40 16 40 48 0 17 5 58 11 92l11 62 91 7c50 3 95 10 100 15 21 21-8 31-90 31h-85l7 33c12 54 11 71-6 75-9 1-21-3-27-10z"/><path d="m7315 2753c-11-3-24-9-29-14-6-5-18-9-27-9-25 0-49-78-56-182-6-87-6-87 25-117 58-59 154-33 226 61 55 73 68 137 41 202-23 55-97 79-180 59zm119-58c40-41 31-104-25-175-22-28-55-58-74-67-31-15-36-15-59 1-30 19-32 43-15 144 15 87 40 112 108 112 31 0 55-6 65-15z"/><path d="m11804 2749c-42-12-57-31-99-129-34-80-45-136-31-159 4-6 26-16 49-22 134-36 327 88 327 211 0 80-131 132-246 99zm158-55c72-37 30-127-85-186-68-34-149-37-155-6-3 15 44 129 74 181 20 35 106 41 166 11z"/><path d="m3830 2714c-42-8-100-12-132-9-53 4-58 3-58-15 0-35 43-44 140-30 47 6 114 16 149 20 69 9 96 24 71 40-21 13-81 11-170-6z"/><path d="m14840 2652c-13-11-20-24-16-30 9-15 124-16 289-1 108 10 127 15 125 28-4 19-53 20-235 6-83-6-113-5-113 3 0 18-25 14-50-6z"/><path d="m4640 2630c0-19 7-20 218-20 120 0 222 3 225 7 4 3 2 12-4 20-9 10-59 13-225 13-207 0-214-1-214-20z"/><path d="m8860 2590c0-19 7-20 145-20s145 1 145 20-7 20-145 20-145-1-145-20z"/><path d="m3628 2549c-6-4-8-15-4-24 5-15 23-16 169-13 148 4 231 17 214 35-9 8-366 10-379 2z"/><path d="m12008 2448c-17-27-74-171-83-209-9-35 16-56 39-34 9 9 16 23 16 31 0 17 59 164 72 179 4 5 8 19 8 32 0 30-33 31-52 1z"/><path d="m7552 2438c-5-7-30-56-56-109-49-103-58-149-28-149 12 1 34 36 75 123 31 67 57 128 57 135 0 6-8 12-19 12-10 0-23-6-29-12z"/><path d="m4747 2433c-17-16-6-43 21-48 159-34 192-53 192-108 0-33-49-117-68-117-16 0-132-117-132-133 0-31 38-40 154-34 109 5 218 30 264 58 51 32 15 37-93 13-116-25-200-35-225-26-21 8-18 12 48 71 43 38 80 81 93 108 19 40 20 49 10 85-18 59-47 82-126 102-39 10-78 22-87 27-21 11-42 12-51 2z"/><path d="m6051 1054c-30-8-111-24-180-35-141-22-188-34-213-57-21-18-24-75-5-112 16-33 74-62 110-56 25 5 28 4 22-17-16-51-53-114-91-154-52-55-68-56-59-4 4 25 2 41-5 46-20 13-43-22-44-66-1-36 3-45 23-55 17-9 32-9 50-3 72 28 172 173 174 257 2 46 2 47-28 45-80-7-88-6-101 12-8 10-14 33-14 51 0 38 16 45 140 64 209 32 325 61 325 81s-40 21-104 3z"/><path d="m5275 968c-71-39-127-148-77-148 12 0 25 14 37 41 21 46 62 79 98 79 33 0 48-21 54-75 5-37 1-52-26-93-17-27-65-81-106-122-131-127-126-140 56-140 125 0 149 4 149 26 0 16 7 16-135 14l-109-1 76 75c78 77 130 143 143 184 12 38-4 109-31 142-21 25-33 30-67 30-23 0-51-6-62-12z"/><path d="m4531 954c-88-24-122-66-132-164-4-36-10-91-14-122-8-56-7-58 26-89 31-29 38-31 86-26 71 7 134 37 186 90 68 67 99 127 99 188-1 60-23 91-87 120-48 22-91 23-164 3zm147-45c71-35 78-92 21-176-54-78-154-143-219-143-33 0-53 36-47 83 10 69 45 153 84 199 51 62 90 71 161 37z"/><path d="m6574 858c-66-105-274-338-301-338-7 0-13 19-15 43-2 29-8 42-18 42-11 0-16-15-18-62-3-55-1-62 18-68 41-13 106 32 202 141 50 58 93 103 95 101s-2-28-9-57c-11-47-10-54 6-66 24-17 54-5 140 57 60 44 68 48 63 27-3-13-9-42-13-65-6-37-4-43 20-58 21-14 40-17 90-12 91 9 396 130 396 157 0 25-36 20-108-13-195-90-335-128-348-93-9 23 22 112 62 178 69 114 33 118-83 8-80-76-170-146-178-138-2 1 12 50 31 108 19 57 34 113 32 124-5 38-35 30-64-16z"/><path d="m3749 796c-30-14-36-41-12-51 38-14 181-35 244-35 51 0 68 4 73 15 7 20-1 22-104 29-109 7-150 15-150 31 0 19-24 25-51 11z"/><path d="m3725 619c-14-22 24-37 111-44 120-10 235 7 210 32-4 4-60 8-124 9-65 0-133 4-153 8-26 5-39 4-44-5z"/><path d="m4776 532c-3-21-23-86-45-144-50-131-54-162-24-166 17-3 23 3 28 29 4 18 25 79 46 136 44 116 51 183 20 183-14 0-20-10-25-38z"/></g><g fill="#44b" transform="matrix(.054411653 0 0 -.054411653 1441.41321553537 2219.19900891264)"><path d="m750 2973c-57-10-88-25-119-57-40-41-55-100-46-179 6-45 12-61 32-77 32-25 35-25 64-1 22 17 24 26 21 89-4 105 24 120 164 87 33-7 119-19 190-25 88-8 134-16 144-26 32-32 8-420-28-456-18-18-126-28-289-28-185 0-206-4-250-52-55-58-58-82-55-363 1-145 7-274 13-293 11-34 51-62 89-62 12 0 35 14 52 31l31 30-6 238c-3 130-3 249 0 264l5 27h112c234 1 363 26 423 82 58 54 98 260 91 463-4 122-7 138-34 191-40 81-79 100-217 108-174 10-361 14-387 9z"/><path d="m3660 2971c-42-9-83-34-103-65-39-59-50-127-54-343-5-206-5-212 18-252 28-50 78-86 143-102 48-12 257-8 370 7l49 7-7-104c-4-57-11-189-16-294-9-177-9-192 8-214 35-47 100-46 136 2 22 29 27 86 42 452 7 191 0 235-44 283-45 48-92 56-241 38-146-18-229-20-265-6l-26 10v162c0 156 8 230 27 249 5 5 99 6 210 2l201-6 5-50c3-39 11-56 31-74 34-29 48-29 80 0 24 20 26 30 28 113 4 147-23 169-218 179-242 11-340 13-374 6z"/><path d="m1565 2945c-14-13-25-32-25-42s-1-297-3-638c-2-677-3-662 55-694 33-19 73-7 101 31 18 24 20 51 29 300 5 150 10 278 12 283 2 6 37 8 97 3 52-3 135-7 186-7 154-2 161-10 143-176-21-189-27-310-18-343 12-45 45-72 86-72 71 0 102 46 102 151 0 33 7 118 16 187 24 190 9 280-58 349-50 52-112 67-263 65-71-1-164-6-205-11-41-4-78-7-81-5-4 2-10 108-13 236-9 286-17 352-47 384-31 33-82 32-114-1z"/><path d="m2542 2944c-55-38-64-109-53-419 6-186 9-215 28-250 50-95 116-125 302-135 75-4 171-5 215-1l78 7-4-178c-2-97-7-181-11-184-4-4-42 1-85 11-104 26-285 27-363 3-106-33-149-107-99-170 26-34 68-41 132-21 74 23 202 20 308-7 182-47 274 5 301 168 12 77 27 831 19 994-7 152-20 181-86 186-88 7-103-51-104-401v-219l-201 4c-197 3-201 3-220 27-18 21-19 42-19 283v260l-29 29c-33 33-74 38-109 13z"/><path d="m2374 1391c-55-34-79-78-79-147 0-51 4-66 27-96 35-45 102-73 153-64 78 15 146 111 131 188-20 108-145 172-232 119z"/><path d="m1853 999c-39-11-66-56-61-101 6-59 69-64 76-6 4 30 34 38 145 38h67v-110c0-135-1-136-132-126-85 6-89 6-113-18-24-25-25-28-25-179 0-162 4-177 47-177 35 0 43 29 43 159v121h73c85 0 141 14 168 41 17 17 19 34 19 169 0 147-1 152-25 175-23 24-30 25-137 24-62 0-128-5-145-10z"/><path d="m2985 1000c-91-16-93-18-104-58-15-51-14-537 0-564 19-36 69-48 204-48 121 0 127 1 151 25l24 24-2 292-3 292-26 19c-31 23-161 33-244 18zm169-86c14-5 16-37 16-250v-245l-102 3-103 3v240 240l40 6c57 9 131 10 149 3z"/><path d="m2351 971c-24-24-29-73-37-372-6-232-6-237 15-258 23-23 29-25 51-11 12 7 16 40 20 150l5 141 35-23c19-13 59-55 88-93 30-39 78-96 108-128 47-51 56-57 74-47 29 16 25 42-15 92-19 24-62 78-95 121-61 77-61 77-33 77 15 0 46 9 69 19 56 26 67 57 62 179-6 156-27 172-220 172-93 0-111-3-127-19zm257-74c16-13 17-168 0-185-7-7-41-12-84-12-40 0-84-4-98-10l-26-10v120 119l98-6c53-3 103-10 110-16z"/></g></svg>