<svg width="115.8mm" height="102mm" version="1.1" viewBox="0 0 115.8 102" xml:space="preserve" xmlns="http://www.w3.org/2000/svg"><g transform="translate(-15.41 -16.86)"><path d="m20.6 111.7h110.6" fill="none" stroke="#000" stroke-dasharray="4, 3" stroke-linecap="round" style="paint-order:stroke fill markers"/><path d="m109.7 118.3c1.479-4.287 1.566-8.729 0-13.35" fill="none" stroke="#000" stroke-dashoffset="7.937" stroke-linecap="round" style="paint-order:stroke fill markers"/><g transform="matrix(.8947 0 0 1 -54.06 2.369)" fill="#a0a0a0" fill-rule="evenodd" stroke-width="1.057"><path d="m174.6 109.3v-4.934h15.64l-0.1857 0.1999c-0.5585 0.6014-0.9711 1.755-1.175 3.288-0.0832 0.6239-0.0832 2.268 0 2.892 0.2043 1.532 0.6168 2.686 1.175 3.288l0.1857 0.1999h-15.64z" style="paint-order:stroke fill markers"/><g stroke="#000" stroke-width=".4758"><path d="m174.7 104.4h15.78" stroke-dashoffset="7.937" stroke-linecap="round" style="paint-order:stroke fill markers"/><path d="m174.7 114.2h15.91" stroke-dashoffset="7.937" stroke-linecap="round" style="paint-order:stroke fill markers"/><ellipse cx="190.6" cy="109.3" rx="1.994" ry="4.934" stop-color="#000000" style="font-variation-settings:normal"/><path d="m174.8 114.2a2.467 4.934 0 0 1-2.136-2.467 2.467 4.934 0 0 1 0-4.934 2.467 4.934 0 0 1 2.136-2.467" stop-color="#000000" style="font-variation-settings:normal"/></g></g><g stroke="#000"><path d="m38.2 105h71.43c-1.74 4.451-1.643 8.903 0 13.35h-71.43c-1.479-4.287-1.566-8.729 0-13.35z" fill="none" stroke-dashoffset="7.937" stroke-linecap="square" stroke-linejoin="round" style="paint-order:stroke fill markers"/><path d="m131.2 18.36-108.2 0.6" fill="#2a75a4" fill-rule="evenodd" stroke-dashoffset="2.1" stroke-width="3" style="paint-order:stroke fill markers"/><path d="m48.01 104.5v-85.53" fill="none" stroke-dashoffset="7.937" stroke-linecap="round" stroke-width="1.2" style="paint-order:stroke fill markers"/><path d="m97.75 104.5v-85.53" fill="none" stroke-dashoffset="7.937" stroke-linecap="round" stroke-width="1.2" style="paint-order:stroke fill markers"/></g><g fill-rule="evenodd"><path d="m29.52 26.49a0.5 0.5 0 0 0-0.5 0.5v77.8a0.5 0.5 0 0 0 0.5 0.5 0.5 0.5 0 0 0 0.5-0.5v-77.8a0.5 0.5 0 0 0-0.5-0.5z" color="#000000" stroke-linecap="round" style="-inkscape-stroke:none;paint-order:stroke fill markers"/><path d="m29.52 26.99 2.5 2.5-2.5-8.75-2.5 8.75z" color="#000000" style="-inkscape-stroke:none"/><path d="m29.52 104.8-2.5-2.5 2.5 8.75 2.5-8.75z" color="#000000" style="-inkscape-stroke:none"/></g><path d="m23.25 71.11h-7.842l0.09525-0.4762q0.6191 0 0.9366-0.1111 0.3334-0.1111 0.508-0.4286t0.3016-0.9525l1.365-6.62q0.1111-0.5239 0.07937-0.8255-0.03175-0.3016-0.3334-0.4128-0.2858-0.127-0.9684-0.127l0.09525-0.4762h4.508l-0.07938 0.4762q-0.5715 0-0.9525 0.1111-0.3651 0.09525-0.5874 0.3969t-0.3492 0.8731l-1.445 7.112q-0.1111 0.5239 0.1111 0.6985 0.2222 0.1588 0.9208 0.1588h0.7461q0.762 0 1.238-0.127 0.4762-0.1429 0.8096-0.4286t0.6191-0.762q0.3016-0.4921 0.6668-1.175h0.508z" stroke-width=".4498" aria-label="L"/></g></svg>
