<svg height="1349.715504pt" preserveAspectRatio="xMidYMid meet" viewBox="0 0 1346.182566 1349.715504" width="1346.182566pt" xmlns="http://www.w3.org/2000/svg"><g transform="matrix(.1 0 0 -.1 -33 1413.905294)"><path d="m2451 14130c-43-10-98-65-116-116-28-82 24-132 149-141l75-6-21-41c-27-53-151-176-178-176-17 0-20 7-20 50 0 36-4 52-15 56-28 11-45-16-45-72 0-61 21-84 77-84 62 0 205 141 249 245 8 19 17 69 21 110 5 68 4 78-18 110-23 35-85 76-111 74-7-1-28-5-47-9zm83-61c39-30 47-53 40-107l-6-47-71 6c-40 4-80 10-90 14-41 17-26 91 29 134 34 27 64 27 98 0z"/><path d="m1827 14098c-9-13-41-50-71-83-63-68-76-95-54-109 13-8 10-22-25-100-22-50-41-107-41-126-1-32 1-35 28-35 34 0 59 30 37 45-17 10 13 82 116 274 35 65 63 126 61 135-5 25-33 24-51-1z"/><path d="m2825 14096c-38-16-59-41-51-61 8-21 32-19 56 5 23 23 72 26 90 5 6-8 14-32 17-54 5-40 4-43-70-116-85-84-97-101-97-142 0-36 9-49 43-62 40-15 250-14 265 1 23 23 12 28-60 29-40 1-100 4-133 8-57 6-60 7-57 31 1 14 17 39 35 56 17 17 53 54 80 82 41 45 47 56 47 96 0 62-14 93-52 116s-70 25-113 6z"/><path d="m2014 14079c-17-5-37-15-44-24-16-20-2-38 24-30 76 24 96 23 116-3 39-49 28-72-92-194-85-86-107-128-81-154 14-13 35-15 127-12 114 5 186 22 194 47 4 11-7 12-59 7-174-18-209-19-209-3 0 8 36 51 79 95 89 90 111 125 111 175 0 31-27 79-55 99-13 10-72 8-111-3z"/><path d="m12565 14070c-11-17 3-26 75-49l65-20h-132c-73-1-189 4-259 10-106 9-129 8-141-3-7-8-11-21-8-30 5-13 43-15 273-14 252 1 267 2 265 19-1 16 4 18 40 12 62-11 63-14 10-49-48-31-64-59-44-79 8-8 17-5 33 10 13 11 39 29 59 41 48 29 71 56 63 75-7 19-16 23-134 54-123 33-156 38-165 23z"/><path d="m1063 14003c-15-32-28-59-29-61-1-1-27-7-58-12-32-5-73-19-92-30-60-38-35-77 27-41 41 24 109 38 109 23 0-6-5-22-11-36-9-20-20-26-53-28-52-4-58-31-8-36l33-3-7-59c-6-50-4-61 10-66 23-9 25-5 43 70 11 49 19 66 31 66 9 0 34 3 56 7 35 5 38 5 28-13-15-30-23-88-13-103 16-25 36-4 55 57l18 61 76 18c41 9 85 25 96 35 21 17 20 17-29 18-28 0-65-4-83-9-36-11-34-15-16 49 3 11 15 22 27 24 140 27 215 55 202 76-9 14-46 12-95-5-23-8-56-15-72-15-24 0-28 3-23 19 14 44-20 65-59 36-13-10-17-21-12-39 8-31-15-46-70-46-33 0-36 2-29 23 19 60 18 77-4 77-16 0-28-14-48-57zm127-93c0-5-5-20-11-34-11-24-43-36-95-36-23 0-24 1-11 33 10 25 21 33 48 38 54 10 69 10 69-1z"/><path d="m12299 13835c-54-29-138-158-139-211 0-26 24-48 45-40 10 3 15 19 15 45 0 30 9 51 36 88 41 55 84 94 96 87 4-3 8-63 8-134 0-142 7-171 45-196 44-28 70-8 116 93 93 201 104 215 181 223 58 6 71 21 33 38-67 31-137-2-188-87-20-34-37-65-37-69 0-18-74-161-81-156-5 3-9 42-10 87-1 129-13 227-29 237-21 14-61 11-91-5z"/><path d="m9588 13741c-18-9-55-46-83-83-47-63-50-66-53-40-5 60-22 102-42 102-23 0-35-33-21-59 6-11 11-35 11-54 0-40 17-96 36-116s40 0 69 64c20 46 87 136 106 143 4 2 9-25 11-60 3-61 4-63 31-66 22-3 38 7 77 46 28 28 69 59 93 71l42 21 17-37c10-21 18-45 18-54 0-28 53-76 96-88 56-16 130-14 165 4 46 24 26 35-66 35-73 0-87 3-112 24-17 14-33 42-40 68-30 113-91 120-216 24l-46-35-6 32c-12 57-15 65-35 70-10 3-34-3-52-12z"/><path d="m330 13585c0-13 8-28 18-34 25-13 878-23 2122-25 950-1 1075 1 1075 14s-123 16-1020 22c-1668 10-2146 18-2152 34-3 8-14 14-24 14-14 0-19-7-19-25z"/><path d="m12713 13526c-35-16-56-47-47-70 3-9 1-16-6-16-6 0-10-10-8-22 4-31 48-50 130-56 76-5 96 5 119 59 10 26 9 34-8 57-36 50-124 73-180 48zm122-56c19-15 19-44 2-59-9-7-31-8-72-1-76 12-85 23-54 56 20 22 30 25 66 21 24-2 50-10 58-17z"/><path d="m11229 13484c-8-10-15-47-17-90l-4-74h-232c-127 0-247 3-266 6-30 5-41 15-73 65-26 42-47 64-72 74-44 19-98 19-134 1-30-16-111-100-111-116 0-5-7-18-15-27-8-10-20-26-28-36-7-10-39-24-77-32-57-13-231-51-459-100-56-12-88-25-126-54-28-21-82-52-120-69-292-126-382-177-550-307-100-79-237-220-292-304-86-129-162-378-207-676-80-526-81-638-15-960 27-133 50-203 121-370 83-192 101-226 171-319 33-45 89-119 125-166 153-205 276-313 457-403 91-45 243-101 325-120 171-40 208-42 635-42l420 1 165 37c232 52 712 201 845 262 246 113 541 461 636 750l26 80 72 5 71 5v-46c0-54-8-59-98-59-45 0-53-3-50-17 3-15 16-19 76-21l72-3v-251-251l-23 43c-26 49-47 66-71 57-16-6-23-52-8-60 4-3 26-43 50-89 24-45 56-99 72-118 27-32 30-34 45-19 9 9 27 46 40 82 12 35 41 91 64 122 22 32 41 62 41 67 0 4-11 8-25 8-18 0-35-14-64-53-22-29-44-64-50-77-7-17-10 62-10 261l-1 286 60 6c123 13 132 51 11 45l-71-3v47 46l68 7c37 3 76 7 87 8s20 9 20 17c0 12-18 16-87 18l-88 3v349 350l38 19c52 27 82 62 93 111 22 96-28 165-131 185-33 6-37 11-68 93-20 51-38 120-43 165-5 43-17 109-28 145-11 37-36 134-56 216-46 194-80 288-126 356-57 82-67 93-159 166-116 92-217 157-324 208-50 24-154 74-231 111s-167 78-200 90l-60 23-3 66-3 66h56 55v-37c0-42 18-84 38-91 9-3 12 14 12 62v66h250 249l-24-25c-52-51-15-87 38-38 18 17 53 44 80 62 79 53 62 93-58 136-79 29-133 32-142 10-8-21-6-22 68-41 35-9 72-22 82-29 41-28-14-35-284-35h-261l7 84c5 60 3 86-5 91-24 15-41-22-47-99l-6-76h-55-54l3 87c4 89-5 110-32 77zm-670-73c11-11 27-34 36-51l16-31-45 6c-37 6-47 4-52-9-8-22-2-28 43-36 25-5-8-8-92-9-130 0-130 0-106 19 13 12 38 20 58 20 27 0 34 4 31 17-2 11-15 20-32 23l-29 5 37 33c44 39 104 44 135 13zm641-180v-49l-67 25c-38 14-115 35-173 48l-105 23 173 1 172 1zm-847-21c-6-24 18-36 44-22 22 12 221 38 228 30 12-11-18-54-53-78-34-23-44-25-133-22-92 3-97 5-108 28-18 41-14 84 8 84 14 0 18-5 14-20zm-93-15c0-13 10-45 22-70 19-39 29-48 78-66 41-15 67-19 105-15 208 26 556 1 715-49 191-61 515-255 658-394 15-14 56-52 90-84 84-76 185-211 212-283 41-111 93-219 140-289 25-38 63-101 83-138 35-63 37-73 37-155v-88l-40-37c-23-20-45-37-51-37-15 0-49-80-49-118 0-74 60-132 138-132h42v-92c0-88-16-211-41-323-6-27-42-147-80-265-55-172-81-237-131-327-126-226-360-459-536-534-114-49-583-196-727-228-327-72-359-75-734-68-401 7-509 24-741 114-235 91-365 193-547 428-157 204-199 266-244 361-108 231-146 341-185 529-34 171-44 453-21 590 9 50 21 131 26 180 32 268 99 547 170 707 30 67 127 192 207 268 105 100 288 234 378 279 186 91 300 141 323 141 15 0 36 12 53 29 16 18 46 35 74 42 45 11 70 28 44 30-22 1 91 29 207 50 61 11 155 31 210 44s103 24 108 24c4 1 7-10 7-24zm545 5c76-11 312-68 459-112 96-28 369-187 473-275 29-24 75-61 103-82 153-115 339-332 417-486 35-69 93-250 93-290 0-45-124 188-160 300-35 110-221 318-416 468-233 177-505 313-691 346-32 6-114 15-183 21s-157 13-197 17l-71 6 29 40c16 22 29 46 29 54 0 9 7 12 18 9 9-3 53-10 97-16zm1051-388c216-134 348-266 389-390 9-29 15-55 13-58-3-2-28 30-56 71-65 92-246 275-346 349-42 31-76 58-76 61 0 11 18 3 76-33zm729-1297c38-15 55-46 55-99 0-32-32-86-50-86-4 0-11 24-15 53-4 28-13 73-20 100-8 26-12 47-9 47 2 0 20-7 39-15zm-188-98c2-38 8-56 23-69 11-9 20-28 20-43 0-23-3-26-22-21-13 3-30 6-39 6-8 0-25 9-37 20-39 37-25 140 18 140 11 0 20 5 20 10 0 6 3 10 8 10 4 0 8-24 9-53zm121-47c0-25-3-54-8-65-6-13-8 11-8 70 0 60 3 82 8 65 4-14 8-45 8-70zm-11-177c-3-10-5-2-5 17s2 27 5 18c2-10 2-26 0-35zm-10-639c-2-2-31-7-65-10l-61-7 30 94c50 158 86 332 91 444 2 28 4-78 5-234 2-156 2-286 0-287z"/><path d="m10365 11337c-16-24-26-83-18-104 7-18 50-16 83 3 27 16 60 62 60 82 0 44-99 59-125 19z"/><path d="m3596 13444c-4-10-9-189-12-399-2-209-7-444-10-522l-6-143-1557-2c-1375-3-1556-5-1556-18s181-15 1559-18l1558-2-6-163c-23-567-37-1872-20-1954 5-25 10-29 30-25l23 4 4 837c3 460 11 998 18 1196 19 487 16 1192-4 1212-12 13-15 12-21-3z"/><path d="m2965 13308c-120-62-188-203-202-420-4-72-3-101 7-113 30-37 62 1 74 88 3 27 8 53 11 57 3 5 34-8 69-29 137-85 274-127 307-94 18 18 1 33-37 33-39 0-146 43-228 93l-54 32 58 28c74 34 116 69 140 118 22 43 27 127 10 176-19 54-85 68-155 31zm105-54c16-40 12-91-10-134-21-42-62-72-144-108l-48-22 7 28c19 69 23 108 13 120-16 19 37 91 87 119 54 31 83 30 95-3z"/><path d="m666 13118c-7-13-19-48-26-78-13-60-24-93-52-158-22-49-20-75 4-80 11-2 24 11 39 40 43 85 131 198 171 219 27 15 40-27 27-88-24-110-24-103 7-103 21 0 47 15 89 53 149 129 183 146 203 102 7-14 12-65 12-114 0-102 11-124 61-124 35 0 199 60 211 77 25 36-48 33-137-4-38-17-70-30-71-30 0 0-4 43-8 96-7 101-23 146-57 165-36 19-100-7-178-72-38-33-71-59-73-59s-2 19 0 43c2 26-4 55-15 77-16 30-23 35-52 33-20-1-52-14-78-32-42-30-50-27-34 14 8 20-3 45-20 45-5 0-15-10-23-22z"/><path d="m2228 13060c-21-17-21-18-5-44 10-14 27-26 38-26 18 0 20-4 14-32-12-61-36-83-93-86-70-4-108 17-134 74-15 36-24 45-41 42-17-2-23-12-29-47-9-51-51-111-78-111s-40 30-40 89c0 62-7 81-30 81-55 0-32-182 26-209 49-22 75-14 125 39 30 32 50 46 54 39 15-23 91-49 147-49 47 0 62 5 89 27 59 50 78 146 39 195-26 34-55 40-82 18z"/><path d="m2436 12781c-3-22-19-73-36-114-30-75-31-111-2-105 17 3 20 9 55 93 29 67 46 134 40 153-3 6-15 12-28 12-18 0-24-7-29-39z"/><path d="m1484 12769c-4-7 3-19 14-28 20-15 21-18 7-45-9-16-33-49-55-72-40-44-49-67-30-79 17-10 52 18 98 77 46 60 60 104 43 137-13 23-64 30-77 10z"/><path d="m2715 11651c-39-10-83-39-95-62-15-28-12-105 5-119 25-21 46-5 39 29-15 74 29 111 130 111 49 0 61-4 83-27 29-31 53-82 53-112s-44-75-107-109c-112-60-159-136-112-183l24-24 7 44c9 55 23 70 108 121 74 43 125 96 134 139 7 37-46 144-87 173-34 24-125 34-182 19z"/><path d="m12985 11638c-2-7-6-58-9-113-2-55-6-111-8-125-2-21 1-25 21-25 19 0 27 9 42 50 22 58 79 139 109 155 19 10 20 8 20-53 0-58 11-87 32-87 5 0 28 18 52 40 47 43 95 72 108 64 4-3 8-34 8-70 0-115 52-138 207-90 43 13 104 32 136 41 36 10 57 21 54 28-7 23-72 18-171-13-54-16-113-30-131-30h-32l-7 79c-9 95-24 116-80 106-20-4-54-20-76-36l-40-29-5 25c-3 14-7 36-10 50-11 50-80 40-135-20l-25-27-5 44c-4 35-9 44-28 46-12 2-24-3-27-10z"/><path d="m1219 11318c-6-13-19-32-29-43s-39-84-66-162c-44-133-49-143-76-148-37-9-40-45-4-45 14 0 28-4 31-10 9-14 21-12 39 6 11 11 49 17 139 23 135 9 183 26 193 68 7 27-33 102-83 154-19 20-47 67-62 105-31 77-59 95-82 52zm104-187c18-20 41-53 52-74 20-38 20-39 1-53-11-8-39-14-61-14-23 0-70-3-104-6-54-6-61-5-61 10 0 18 45 150 75 220l17 39 24-43c14-24 39-60 57-79z"/><path d="m1725 11244c-56-31-107-89-147-169-39-78-40-79-33-35 3 25 8 57 11 73 4 19 1 29-11 33-10 4-21 1-25-6-16-26-41-152-50-252-5-57-14-148-19-203-8-83-7-102 5-115 23-23 38 4 58 105 9 50 27 125 38 168 17 65 23 77 37 70 24-12 171-8 213 6 20 7 51 28 67 47 30 33 30 35 24 116-3 46-12 95-20 110-27 55-97 79-148 52zm86-53c21-17 23-27 24-106 0-84-1-88-28-108-20-16-47-22-97-25-38-2-77-2-85 2-14 5-14 8 1 31s15 25 0 25c-21 0-21 1 13 68 28 56 66 98 106 120 28 16 40 15 66-7zm-274-213c-3-8-6-5-6 6-1 11 2 17 5 13 3-3 4-12 1-19z"/><path d="m2380 11140c-128-8-166-15-174-35-8-21 18-37 45-27 13 5 71 12 128 16 102 7 168 27 156 46-4 6-14 9-23 8s-69-4-132-8z"/><path d="m2730 10842c0-33 22-51 58-45 65 10 48 63-19 63-31 0-39-4-39-18z"/><path d="m13415 10390c-10-16 3-26 45-38 27-8-5-10-136-11-149-1-173-3-178-17-4-9-1-23 5-30 13-16 39-19 39-4 0 6 70 10 189 10 155 0 191 3 201 15s10 18-1 31c-12 15-10 16 21 9 68-14 67-23-10-75-56-38-72-61-51-74 11-7 121 59 149 90 28 32 28 45-4 75-24 22-35 24-144 28-83 2-120 0-125-9z"/><path d="m3339 10176c-4-4-21-7-329-52-183-26-189-26-500-18-414 12-1522 11-1775-1-167-8-200-12-200-25s41-14 330-10c431 7 1167 4 1625-5 393-8 421-6 748 46 37 5 121 16 187 22 95 10 120 15 120 27s-19 16-101 18c-55 1-102 1-105-2z"/><path d="m13394 10006c-4-9 4-28 20-47 18-21 26-42 26-68 0-115-54-258-118-310-41-35-63-38-87-14-15 15-16 33-10 163 8 164 3 178-54 165-51-11-99-91-72-118 13-12 13-12 63 55 16 22 17 16 11-119-7-162-1-182 62-203 77-26 176 61 226 198 19 53 24 87 24 159v93h140c140 0 161 4 167 28 2 11-34 14-172 16-96 2-185 7-197 11-17 5-24 3-29-9z"/><path d="m2615 9080c-17-27 23-45 223-99 42-12 43-13 28-34-45-62-59-126-24-111 20 8 88 110 88 132 0 31-19 41-140 72-25 7-68 20-95 31-58 22-71 23-80 9z"/><path d="m6104 9027c-8-22 3-37 29-39 12-1-59-5-158-8-151-4-180-7-180-20s30-15 198-18c109-1 212 2 230 7l32 8-25 12c-24 11-23 11 9 6 18-3 38-5 44-5s-6-15-26-34c-37-34-47-56-25-56 16 0 138 69 138 79 0 30-92 66-197 77-52 6-64 4-69-9z"/><path d="m2375 8990c-17-27 21-34 251-46 86-5 127-3 143 6 13 6 20 14 17 17-7 7-279 32-353 33-28 0-55-4-58-10z"/><path d="m11901 8986c-15-17 5-39 57-63 37-17 37-17-83-24-129-7-193-21-202-45-9-25 14-41 37-26 26 16 136 32 223 32 73 0 107 11 107 35 0 16 27 20 48 7 9-6 4-14-18-30-32-24-65-78-52-86 10-6 37 9 101 59 78 60 74 67-79 119-118 41-123 41-139 22z"/><path d="m4623 8965c-7-20-7-20 47-44l45-20h-212c-200-1-213-2-213-19 0-11 11-24 25-30 32-15 55-15 55-2 0 6 65 10 176 10 109 0 183 4 196 11 21 11 68-1 68-18 0-5-25-19-56-32-56-24-75-44-57-62 10-10 156 52 168 71 18 28-10 54-111 101-113 54-122 56-131 34z"/><path d="m1958 8736c-13-14-34-26-47-28-18-2-32-17-50-53-28-53-77-127-122-185-60-75-69-120-25-120 15 0 28 11 40 33 25 47 79 123 138 195 29 35 62 75 73 88l20 24 62-77c78-98 113-150 113-167 0-20-46-34-130-40-131-9-231-23-241-33-14-14 0-43 21-43 9 0 42 5 71 10 30 6 100 15 155 20 123 11 167 31 172 78 4 39-6 57-82 156-34 43-72 95-85 115-39 58-50 62-83 27z"/><path d="m6169 8704c-37-11-56-26-100-81-34-43-61-68-74-68-15 0-23-11-33-45-7-25-26-79-42-120-80-206-104-400-50-400 25 0 26 2 44 100 48 254 59 290 105 371 67 114 128 186 173 200 47 15 62 4 77-56 32-125-4-173-130-175-35-1-74 2-86 5-31 10-44-22-17-42 25-20 179-11 224 12 44 23 70 70 70 130 0 70-17 124-50 157-32 31-45 33-111 12z"/><path d="m2425 8648c-2-7-13-74-25-148-32-205-60-356-81-446s-18-117 14-112c17 2 23 13 30 48 19 105 61 260 89 332 26 70 31 76 45 63 32-33 86-47 155-42 150 12 210 90 159 203s-249 87-332-43c-33-54-33-55-15 54 9 57 10 85 3 92-15 15-37 14-42-1zm312-93c27-19 45-78 34-109-14-35-57-51-138-51-71 0-76 2-99 30-22 28-23 31-7 55 50 76 155 114 210 75z"/><path d="m4565 8651c-50-13-92-39-116-72-24-34-39-26-39 24 0 20-5 27-19 27-15 0-19-11-25-61-3-34-6-82-6-107 0-27-23-114-61-229-66-201-78-278-44-278s98 163 134 343c21 105 50 181 51 135 0-42 41-57 133-50 107 8 154 23 189 57 48 49 32 144-32 190-36 26-112 35-165 21zm133-61c26-21 45-75 36-102-10-31-64-50-157-56-83-5-88-4-94 16-4 18-9 20-24 11-26-13-24-3 11 58 37 64 84 92 155 92 35 0 57-6 73-19z"/><path d="m3310 8600c0-21 2-21 239-18 224 3 265 7 247 26-4 4-115 8-247 10-237 3-239 3-239-18z"/><path d="m5152 8563c3-16 22-18 208-21 199-3 288 6 275 28-4 6-105 10-246 10-224 0-240-1-237-17z"/><path d="m11855 8545c-81-29-99-79-131-360-18-163-14-239 14-250 31-12 42 23 42 129 0 56 3 117 6 137l6 36 92 18c202 38 260 100 200 216-33 66-149 103-229 74zm162-79c32-35 42-76 25-102-12-19-65-41-139-58-107-24-106-24-83 29 17 40 18 46 4 60-13 12-14 21-4 50 15 47 52 66 114 61 42-3 55-9 83-40z"/><path d="m3545 8513c-64-10-135-35-135-48 0-24 19-27 83-11 34 8 116 18 183 21 118 7 157 16 140 32-8 9-222 14-271 6z"/><path d="m6313 8310c-23-9-31-44-13-55 5-3 18 0 28 6 16 10 27 10 52-1 68-28 91-89 50-130-22-22-46-25-84-10-31 12-33 32-5 71 22 31 18 49-11 49-47 0-80-109-42-143 28-25 99-40 135-28 69 25 101 94 71 156-27 58-130 106-181 85z"/><path d="m11946 8122c-8-14 13-28 54-37 53-11 125-51 150-82 27-35 20-68-23-105-56-47-100-16-95 67 3 42 0 50-16 53-26 5-36-15-36-75 0-70 27-103 92-110 40-5 51-1 83 22 79 61 86 145 15 203-59 49-207 91-224 64z"/><path d="m12797 7753c-17-17-3-45 43-85l50-43-87-8c-245-22-1978-40-2633-27-258 5-355-3-355-30 0-12 13-15 65-13 36 2 136 2 223 2 1277-7 2452 5 2725 27 39 3 72 2 72-2s-16-31-35-60-35-55-35-58 11-6 24-6c31 0 81 62 107 132 24 66 24 62-8 94-62 59-137 96-156 77z"/><path d="m5364 7667c-3-9-3-21 1-27 4-7-26-10-102-8-91 3-108 1-108-12 0-16 24-20 238-40 124-11 157-8 157 16 0 17 8 17 38 1 22-13 22-13-13-44-23-21-33-37-29-47 3-9 11-16 16-16 16 0 96 61 103 78 18 48-90 103-217 110-64 3-79 1-84-11z"/><path d="m2037 7633c-22-22-2-37 83-61 26-7-18-10-177-11-206-1-213-2-213-21 0-13 7-20 20-20 11 0 43-9 71-20 54-20 74-18 65 6-8 21 196 20 214-1 7-8 19-15 26-15 8 0 14 7 14 15 0 9 9 15 25 15 37 0 75 21 75 41 0 33-179 96-203 72z"/><path d="m3933 7625c-7-20 19-49 58-65 62-26 26-35-157-40-98-3-185-9-191-13-7-5-13-17-13-29 0-17 4-19 28-13 15 4 104 9 199 12 171 5 171 5 175-19 5-34 44-37 52-4 4 15 23 37 46 51 22 14 40 30 40 35 0 12-33 30-55 30-9 0-49 16-89 35-84 40-85 40-93 20z"/><path d="m9775 7497c-14-22-15-77-11-523 11-998 25-1701 36-1784 6-47 13-184 16-305 4-202 3-218-11-192-17 30-49 36-59 11-12-31 75-164 107-164 20 0 27 21 27 79 0 30 9 65 23 94 23 45 21 67-8 67-8 0-14 49-19 153-3 83-11 170-17 192-11 41-25 745-35 1796-6 556-6 556 16 562 31 8 19 31-18 35-24 2-34-2-47-21z"/><path d="m12808 7412c-9-4-43-29-74-57-85-73-205-165-216-165-6 0-94-82-197-182-103-101-209-203-236-228-49-45-175-180-410-442-66-73-226-241-356-373s-297-305-371-385-212-219-305-310-198-198-232-239c-35-40-117-130-183-199-66-70-134-146-151-169-17-24-32-41-34-39-3 2 7 33 22 68 15 34 47 121 72 192 42 118 44 129 29 144-14 14-18 14-30 2-8-8-19-31-25-50-5-19-28-82-51-140s-52-135-65-171c-13-37-28-76-35-89-9-17-9-32 2-67 13-44 13-44 48-38 19 4 54 15 78 25 24 11 73 27 110 36 81 20 102 30 102 49 0 22-32 19-145-14-55-16-101-28-102-27-7 7 116 156 207 251 59 61 139 148 179 195s151 161 247 253c95 93 250 251 344 352s257 271 363 377 248 255 317 332c258 285 395 432 439 470 25 22 123 114 216 206 94 92 184 175 200 185 32 20 47 31 193 151 76 62 91 78 81 90-6 8-12 14-13 13 0 0-9-3-18-7z"/><path d="m5440 7403c-44-18-122-89-167-155-65-94-93-156-153-343-61-190-65-208-46-225 25-20 43-5 51 42 11 70 95 317 133 393 67 136 148 227 218 249 51 16 83-89 48-153-30-56-75-76-167-75-73 0-78-1-75-20 5-32 44-40 126-26 80 13 125 39 159 89 38 56 26 184-20 216-21 15-78 19-107 8z"/><path d="m3352 7368c-7-7-12-16-12-21 0-6-24-46-53-91-66-100-88-153-68-166 23-13 33-3 85 82l48 80 24-41c13-23 40-62 60-87 20-24 34-48 30-52s-78-9-164-12c-131-4-157-8-157-20 0-13 27-15 173-18 107-1 180 2 192 8 32 17 24 52-26 116-61 78-84 125-84 172 0 34-13 62-30 62-3 0-11-5-18-12z"/><path d="m4672 7328c-7-7-12-33-12-60v-47l-112-3c-93-2-113-6-113-18s20-16 108-18c59-1 107-4 107-7 0-2-7-34-16-71-9-41-12-70-6-76 14-14 49 36 67 97l15 54 63 3c47 2 62 7 62 18s-14 16-57 18l-58 3v44c0 70-18 93-48 63z"/><path d="m1740 7278c-5-24-42-140-80-258-67-204-107-369-95-398 3-7 14-12 26-10 23 3 21-1 78 188 26 85 83 228 98 249 2 3 22-6 46-20 36-20 55-24 132-24 144 0 185 37 155 139-15 50-93 133-136 145-34 9-74 3-110-17-14-8-23-3-42 19-35 43-59 38-72-13zm255-73c24-25 49-62 56-82 11-34 10-38-11-55-33-26-153-25-198 2-18 11-35 27-38 35-9 22 43 103 79 126 47 28 63 24 112-26zm-197 15c-14-22-24-19-15 5 4 8 11 15 17 15s6-7-2-20z"/><path d="m2355 7290c-14-23 21-38 130-54 120-18 235-21 235-7 0 19-29 30-95 36-39 4-90 10-115 15-92 18-148 22-155 10z"/><path d="m3825 7271c-16-4-46-16-65-27-19-10-44-21-55-24-14-4-23-21-31-60-7-30-21-93-32-140-10-47-25-129-32-183-11-87-11-100 3-114 25-25 44-9 49 39 3 24 15 105 28 181 22 130 24 137 37 113 17-33 48-40 140-32 78 6 148 31 172 59 19 24 6 81-30 121-48 55-123 83-184 67zm120-75c38-29 60-79 42-94-21-18-91-32-153-32-56 0-62 2-83 31l-23 31 23 32c51 70 127 83 194 32z"/><path d="m2394 7169c-3-6-1-16 4-21 27-27 220-37 261-14l25 14-30 6c-25 5-208 25-241 26-6 0-15-5-19-11z"/><path d="m5578 7010c-36-22-20-37 42-42 72-5 104-28 95-68-9-37-32-50-88-50-49 0-49 0-42 28 13 47 11 57-12 60-17 3-26-3-33-23-15-38-12-81 5-95 38-32 164-20 199 19 10 11 20 38 23 60 6 45-9 71-57 96-36 19-112 27-132 15z"/><path d="m6630 6489c-106-24-312-29-1288-29-818 0-1032-3-1033-12-1-7-2-18-3-23 0-6-29-40-63-75-74-76-213-265-324-439-43-69-79-120-79-115s7 46 16 92c14 67 15 90 5 122-14 47-27 52-131 48-73-3-75-4-75-28 0-20 4-24 20-21 11 2 44 5 72 8 49 4 54 3 62-19 6-15 5-43 0-74-15-73-28-206-22-221 3-7 16-13 29-13 24 0 71 65 197 270 62 102 203 286 273 358 36 35 63 72 62 81-3 15 93 17 1117 22 1067 6 1184 9 1225 34 5 3 11-35 12-86 3-103 18-125 43-65 17 41 20 148 5 177-12 21-54 24-120 8z"/><path d="m8825 6410c-14-22 10-30 86-30 77 0 79-1 67-20-11-18-13-18-16-4-4 15-17 16-122 9-148-8-224-24-228-48-3-12 3-17 20-17 28 1 237 26 292 36 37 7 38 6 27-14-13-25-15-99-2-106 12-8 26 12 41 58 7 22 32 59 57 82 24 24 42 48 38 54-8 13-252 13-260 0z"/><path d="m891 6347c-47-57-52-150-16-326 37-183 50-349 37-468-19-165-63-297-119-355-37-39-25-62 27-53 69 12 113-36 139-150 58-257 41-617-64-1305-8-52-17-133-21-180-6-79-4-88 18-120 13-19 38-44 56-55s51-35 73-52c46-37 79-43 79-14 0 18-109 111-130 111-4 0-16 12-26 28-22 33-22 105 0 249 22 143 73 530 88 663 7 63 12 205 12 315-1 333-47 513-142 547-37 14-37 11 3 106 81 194 84 474 10 812-17 75-15 141 4 191 8 21 14 26 35 22 23-5 26-10 26-48 0-50 21-75 45-55 9 8 15 30 15 57 0 61-32 93-93 93-25 0-49-6-56-13z"/><path d="m4863 6281c-32-20-49-53-38-71 10-16 26-12 51 15 31 34 73 33 106-2 38-41 40-67 11-110-14-21-34-44-44-51-31-21-24-51 16-68 44-18 165-19 190 0 18 13 18 14-1 19-10 3-49 9-86 12l-67 7 35 50c38 55 41 73 20 121-35 82-127 120-193 78z"/><path d="m6354 6280c-23-9-38-36-28-51 7-12 34-11 34 1 0 20 48 11 53-11 7-26-13-46-87-88-49-29-57-37-54-60 4-34 51-50 160-53 137-5 103 33-44 49l-58 6 62 41c71 46 88 77 69 124-18 43-62 61-107 42z"/><path d="m5512 6128c-5-7-13-34-17-59s-10-50-13-56c-4-5-34-16-67-24-40-9-60-19-60-29 0-12 12-15 58-13l57 2v-65c0-49 4-66 15-71 23-8 28 2 33 67 2 33 10 63 16 67s47 10 91 13c62 4 80 8 80 20s-17 16-86 18l-85 3 11 57c12 54 6 82-15 82-4 0-12-6-18-12z"/><path d="m1890 6065c-7-8-24-21-38-28-14-6-29-24-33-39s-16-40-27-55c-26-37-72-151-72-178s22-47 43-40c16 7 66 110 93 194 16 51 44 91 62 91 4 0 15-13 24-28 9-16 46-57 82-93l65-64-37-7c-20-4-53-7-72-7-90-2-153-46-120-86 18-21 29-19 40 9 7 20 17 24 67 29 181 18 195 20 200 34 4 9-23 44-71 92-43 43-94 102-115 132-39 56-69 71-91 44z"/><path d="m2487 6068c-21-6-56-27-77-47-28-26-42-34-53-27-20 13-45 1-56-26-5-13-14-70-21-128-6-58-18-152-26-210-19-138-18-204 1-220 12-10 19-10 28-1 17 17 36 116 36 199 1 40 8 102 17 138 16 63 18 65 43 58 69-18 109-22 150-13 107 24 136 64 121 170-7 53-14 69-40 92-32 29-58 32-123 15zm94-54c7-8 14-40 17-70 5-63-9-86-65-105-39-13-111-5-138 15-18 13-17 16 9 70 41 84 140 135 177 90z"/><path d="m6034 6067c-17-7-57-36-89-65-55-50-61-61-112-194-30-77-57-162-60-189-6-47-5-49 18-49 19 0 28 9 42 43 9 23 17 49 17 57 1 8 11 44 24 80l23 64 61 13c34 7 83 23 109 37 109 55 133 118 69 182-36 36-52 39-102 21zm75-69c14-24 14-28-4-48-38-42-185-100-185-73 0 16 95 127 120 140 34 18 52 13 69-19z"/><path d="m8935 6062c-45-21-72-56-82-102-3-17-10-33-14-36-5-3-9-21-9-40 0-27-4-34-20-34-11 0-20-7-20-15s9-20 20-27c17-11 20-24 20-83 0-38 7-110 15-160 8-49 15-108 15-130 0-53 13-74 37-59 20 13 22 88 8 307l-8 117h26c147 0 244 99 193 198-38 73-109 98-181 64zm113-54c67-73 9-158-108-158-40 0-40 0-40 44 0 56 15 96 43 118 31 25 79 23 105-4z"/><path d="m4666 6005c-21-7-57-32-80-54-23-23-49-41-58-41-20 0-54-46-63-86-4-16-20-67-36-114-41-122-55-209-35-228 22-23 46-8 46 30 0 87 89 323 112 300 30-30 159 1 213 52 29 28 35 40 35 75 0 73-47 97-134 66zm82-63c5-30-14-51-63-73-42-19-100-25-109-11-6 9 66 82 99 101 33 18 70 9 73-17z"/><path d="m3025 5990c-16-26 14-30 221-30s214 1 214 20-7 20-214 20c-133 0-217-4-221-10z"/><path d="m12240 5942c0-17 8-22 48-27 26-4 72-13 102-20s59-10 65-7c12 8 65 3 83-7 10-6 5-12-17-21-31-12-81-63-81-81 0-22 33-20 58 4 15 13 41 32 58 40 41 21 57 42 49 65-10 33-85 51-282 68-79 6-83 6-83-14z"/><path d="m12290 5860c-215-15-272-23-277-38-7-17 16-33 37-27 8 2 89 9 180 15 159 11 217 24 213 45-3 13-25 14-153 5z"/><path d="m3012 5843c3-17 17-18 180-18 166 0 202 4 184 23-4 4-89 8-188 10-170 3-180 3-176-15z"/><path d="m6102 5755c4-18-1-39-13-59-41-67-8-107 70-86 47 12 80 47 87 91 8 48-20 71-93 77-56 5-56 5-51-23zm96-43c4-13-41-62-58-62-16 0-12 18 12 51 22 29 38 33 46 11z"/><path d="m12270 5623c-51-19-84-78-95-170-6-52-9-60-25-56-18 5-50-30-50-55 0-7 12-25 27-39 26-27 26-27 15-132-10-89-17-251-13-298 1-19 38-15 46 5 7 16 15 88 31 302l7 85 56 3c91 4 160 29 204 73 38 38 39 41 33 87-18 132-137 231-236 195zm129-84c52-52 73-129 45-161-29-32-97-58-170-65l-67-6 6 34c3 19 9 64 13 101 14 142 87 183 173 97z"/><path d="m11566 5558c-3-7-7-49-10-93s-15-111-26-150c-11-38-20-82-20-97s-11-62-25-105-25-81-25-86c0-4 11-12 25-17 30-11 81 6 105 35 14 16 12 17-20 11-59-10 121 74 264 124 186 65 190 81 36 162-149 79-211 126-239 181-23 46-56 64-65 35zm179-200c50-30 109-62 133-72 23-11 42-22 42-26 0-3-42-19-92-35-51-16-133-46-181-68-49-21-91-37-93-34-2 2 9 75 26 161 16 87 30 160 30 164 0 3 10-4 23-15 12-12 63-45 112-75z"/><path d="m6517 5126c-57-16-114-60-138-107-27-51-34-155-20-288 15-140 23-164 54-159 21 3 22 7 25 143 2 128 1 141-16 156-18 14-19 21-10 73 8 45 18 64 46 92 55 54 144 71 177 34 11-12 19-36 19-57 0-30-7-42-39-70-21-18-62-46-91-63-80-45-92-79-48-138 27-35 75-60 247-129 75-30 93-34 120-26l32 10-55 26c-30 14-100 44-155 67-100 42-168 91-159 115 3 7 28 25 56 40 64 35 134 102 143 138 27 106-67 177-188 143z"/><path d="m3534 4935c-24-24-25-28-12-48 8-12 29-29 46-38l31-16-42-68c-56-92-98-135-131-135-26 0-26 0-26 79 0 99-11 131-44 131-29 0-43-17-27-33 6-6 11-47 11-94 0-76 2-86 25-108 18-19 35-25 65-25 36 0 47 6 88 48 26 26 68 81 92 122l45 75 85 2c129 3 172 11 168 31-3 15-17 17-119 14l-116-3-6 30c-4 20-16 35-36 46-42 21-68 19-97-10zm71-36c11-17 0-20-21-4-17 13-17 14-2 15 9 0 20-5 23-11z"/><path d="m1823 4868c-46-10-98-61-129-127-53-111-115-519-84-556 41-49 59 0 105 275 8 52 18 108 21 123l6 29 19-30c12-21 29-33 53-37 40-8 140 11 177 32 58 34 74 107 43 197-13 38-26 54-62 77-48 30-76 34-149 17zm118-55c21-13 34-32 44-67 19-65 19-78-4-108-22-27-80-48-135-48-44 0-46 14-6 35 17 9 30 20 30 25 0 13-51 13-85 0-25-10-26-9-19 25 5 28 3 35-10 35-23 0-20 9 19 62 19 25 44 48 57 51 49 9 81 6 109-10z"/><path d="m2811 4826c-6-7-29-64-52-126-34-96-38-116-26-127 14-15 47-8 47 10 0 19 82 147 101 157 17 9 18 4 21-57s5-68 25-71c18-3 26 7 48 57 15 33 36 68 46 77 18 17 19 15 19-67 0-46 4-90 9-97 13-21 44-10 51 18 6 24-4 143-15 188-8 33-56 29-99-8-33-29-35-30-41-10-8 25-46 35-75 20-19-10-21-9-19 7 4 20-7 43-20 43-5 0-14-6-20-14z"/><path d="m5988 4819c-22-12-23-52-3-69 9-8 27-10 46-6 32 6 32 6 27-39-3-25-13-56-22-70-37-56-155-18-171 55-3 16-12 34-19 39-18 15-46 3-46-20 0-25-51-127-66-133-7-3-20 1-31 9-15 11-19 30-21 114-4 104-15 130-48 117-13-5-15-21-12-104 4-114 18-150 70-175 34-17 39-17 67-2 17 8 40 34 52 57 21 41 21 41 38 21 24-30 53-42 118-49 50-5 62-3 87 17 37 29 56 76 56 137 0 50-16 75-67 101-26 13-33 13-55 0z"/><path d="m5361 4809c-14-5-44-25-67-45-34-27-45-31-51-21-26 44-83 40-134-9-26-25-26-25-32-4-4 16-12 21-29 18-20-3-24-10-30-60-4-32-17-80-29-108-22-50-20-80 4-80 7 0 39 41 72 91 60 92 109 144 126 133 5-3 9-20 9-39 0-75 35-89 70-27 25 42 107 115 121 107 5-4 9-52 9-108 0-109 7-131 36-125 23 4 29 63 19 176-9 100-33 125-94 101z"/><path d="m2190 4762c0-15 12-21 53-30 74-16 200-19 204-6 7 22-23 32-125 43-133 14-132 14-132-7z"/><path d="m4470 4750c-25-5-89-9-142-9-93-1-98-2-98-22 0-21 2-22 153-17 148 4 208 17 211 43 1 13-66 15-124 5z"/><path d="m4430 4669c-88-15-122-29-118-47 4-19 21-20 123-3 39 6 99 14 135 17 67 5 100 17 87 30-11 12-166 14-227 3z"/><path d="m2232 4623c3-16 18-18 116-21 73-2 120 2 134 9 22 12 22 12 3 20-11 4-73 8-138 8-108 1-118-1-115-16z"/><path d="m3631 3808c-77-22-104-57-114-148-7-59-43-173-72-230-16-30-18-32-28-15-5 10-12 69-15 132-5 115-14 142-47 129-29-11-11-239 23-303 28-52 80-37 116 35 32 64 76 206 76 247 0 19 5 45 11 59 24 51 120 71 193 41 31-13 36-13 36-1 0 8-7 22-17 31-34 35-93 43-162 23z"/><path d="m6550 3749c-47-14-93-51-121-96-21-34-23-47-21-153 2-63 6-144 10-180 7-61 9-65 32-65 24 0 25 3 28 72l3 71 37-13c20-8 79-25 130-40 52-14 128-41 169-60 79-36 103-42 103-25 0 38-122 97-297 143-49 13-88 29-88 35 0 7 34 40 75 75 87 73 109 116 91 178-6 20-18 42-26 49-20 17-83 21-125 9zm98-73c6-50-6-72-70-125-35-28-65-51-68-51s-6 12-5 28c0 21-5 28-24 30-20 3-22 8-17 34 13 64 84 121 146 116 30-3 35-7 38-32z"/><path d="m1732 3630c-27-17-45-45-89-137-67-143-99-262-113-415-11-127-8-148 21-148 25 0 26 3 38 145 13 146 45 268 104 400 34 75 53 105 76 118 30 18 30 18 48-9 23-36 23-122 0-158-10-14-36-40-58-56-34-24-44-27-60-17-28 17-56-12-40-42 15-27 50-27 100-1 81 41 131 115 131 193 0 121-72 179-158 127z"/><path d="m2793 3608c-6-7-13-75-16-151-5-121-4-139 10-144 30-12 48 12 53 68 6 63 38 120 76 138 22 10 28 9 40-6 17-22 17-32 2-88-9-34-9-48-1-56 20-20 59 14 68 58 9 50 47 98 95 123l39 20 11-42c9-33 8-55-6-114-18-78-14-107 13-102 24 5 56 127 49 195-6 67-29 103-68 103-35 0-83-23-119-57l-27-24-25 25c-32 32-42 32-100 2l-47-23v31c0 46-27 70-47 44z"/><path d="m5322 3550c-23-10-67-43-97-71l-55-52v31c0 22-7 36-24 47-27 18-61 9-113-31l-33-25v44c0 52-20 77-45 57-10-8-15-31-16-64 0-28-4-73-9-101-25-144-24-135-2-135 16 0 28 15 51 63 31 65 101 147 126 147 12 0 15-14 15-59 0-42 5-62 16-72 15-12 20-10 38 15 44 62 119 135 162 157 41 22 44 23 61 6 13-13 18-39 21-114 5-102 13-133 37-133 21 0 27 54 16 158-11 99-18 115-62 138-35 18-35 18-87-6z"/><path d="m2268 3523c-70-3-78-6-78-23 0-18 7-20 83-19 84 1 159 16 161 34 1 11-48 13-166 8z"/><path d="m5632 3508c-7-7-12-35-12-63 0-100 46-195 93-195 29 0 82 36 95 64l11 25 46-26c52-28 134-34 186-13 34 15 65 85 55 126-16 64-118 116-155 80-25-26-2-51 45-51 33 0 40-4 48-27 26-73-42-117-130-83-43 16-48 23-56 80-2 14-11 20-27 20-19 0-27-8-38-39-15-44-59-106-74-106-19 0-39 69-39 133 0 56-11 87-30 87-3 0-11-5-18-12z"/><path d="m4067 3485c-4-8-1-17 5-21 12-8 328-5 340 3 5 2 4 11-3 19-17 21-334 21-342-1z"/><path d="m2224 3375c-31-22-5-32 104-39 105-7 147-2 137 14-13 20-218 42-241 25z"/><path d="m4220 3381c-49-5-65-10-65-21 0-34 228-16 250 20 7 11-71 11-185 1z"/><path d="m1962 3333c2-10 16-20 35-24 36-7 59-23 73-50 12-22-6-75-28-84-24-9-54 31-50 69 2 25-1 32-19 34-44 6-43-79 2-124 44-44 116-28 141 31 23 56 18 83-25 126-34 34-44 39-86 39-38 0-46-3-43-17z"/><path d="m3671 3325c-32-15-33-17-28-61 6-58 33-95 81-111 31-11 42-10 66 2 30 15 65 88 58 120-9 49-114 78-177 50zm109-45c16-9 17-15 9-39-16-46-34-56-64-37-29 19-32 34-7 52 15 12 15 15 2 24-12 8-9 10 13 10 16 0 37-5 47-10z"/><path d="m7995 3005c-259-26-499-37-990-45-275-5-563-13-640-19s-196-16-265-21c-69-6-233-15-365-20-132-6-294-15-360-20-66-6-216-13-332-17-213-6-213-6-232 18-16 19-22 22-32 12-7-7-21-13-30-13-15 0-71-59-109-117-8-12-89-124-180-250-90-125-191-266-223-313l-59-85 7 90c8 98 7 180-1 207-9 29-51 32-149 9-112-25-185-55-185-75 0-27 20-28 88-3 73 27 151 47 182 47 24 0 25-7 9-217-10-124-10-155 1-168 23-28 41-12 99 82 31 51 103 159 161 239 318 441 347 478 370 485 14 4 113 8 220 8 107 1 263 6 345 11 83 6 245 15 360 20 116 5 305 16 420 24 423 31 550 37 1065 46 289 6 570 14 625 19 207 20 363 31 440 32 140 2 125 15 126-108 1-141 17-218 44-218 19 0 20 5 16 160-2 88-8 168-13 178s-20 22-34 27c-34 13-220 10-379-5z"/><path d="m7784 2605c-7-18 3-35 22-35 26 0 133-59 144-79 14-28 6-42-43-73-89-56-98-91-32-116 52-20 308-23 326-5 7 7 11 15 8 17-2 2-53 7-114 11-139 7-195 14-195 23 0 4 16 16 36 27 73 39 93 98 52 150-22 28-149 95-181 95-9 0-20-7-23-15z"/><path d="m6947 2508c-31-8-38-14-35-32 2-16 9-20 28-18 76 11 123 7 134-11 9-15 6-22-16-38-34-25-36-59-7-85 31-28 163-27 204 1l30 20-90 3c-115 3-125 7-91 33 33 26 34 68 4 104-27 30-99 41-161 23z"/><path d="m5995 2466c-29-8-40-17-40-31s6-19 20-17c173 21 180 22 194 7 12-12 12-17-5-41-61-86-69-115-35-134 38-20 209 0 214 25 1 6-34 11-85 13-49 1-88 6-88 11s14 25 30 46c35 44 39 86 10 115-17 17-33 20-97 19-43 0-96-6-118-13z"/><path d="m7610 2470c-85-23-163-102-191-193-23-75-41-236-37-332 3-67 4-70 28-70 25 0 25 0 28 117l3 117 36-40c55-61 160-119 227-126 64-7 86 5 85 46 0 14-3 20-6 14-3-8-23-13-51-13-51 0-121 32-187 85l-37 31 47 29c29 18 69 59 102 105 54 73 55 76 51 132-6 80-39 114-98 98zm47-97c5-35 0-46-44-104-48-62-155-147-161-128-12 32 45 184 87 233 21 25 94 57 104 47 5-5 11-26 14-48z"/><path d="m4863 2345c-39-17-53-30-53-45 0-16 6-20 30-20 17 0 30 4 30 9 0 8 32 23 77 36 19 5 23 1 29-30 5-30 0-49-30-111-34-67-40-74-67-74-39 0-86-20-126-54-50-42-56-113-12-137 25-13 51 2 130 78 56 53 56 53 75 32 38-43 106-79 148-79 40 1 82 21 69 33-3 4-22 7-42 7-41 0-93 28-134 72l-27 30 36 73c31 64 36 81 32 124-3 28-11 57-18 66-19 23-87 18-147-10zm-8-294c-3-5-23-24-45-41-29-23-40-27-40-16 0 8 17 27 37 41 38 26 59 32 48 16z"/><path d="m5526 2298c-3-7-7-56-11-108-3-52-7-108-8-125-2-26 1-30 23-30 19 0 26 6 30 30 4 17 14 44 23 61 16 32 112 124 128 124 5 0 9-38 9-84 0-62 4-87 15-96 22-18 57 9 83 64 35 74 43 67 40-41-3-92-2-98 17-98 17 0 21 10 29 60 13 87 13 202 0 215-19 19-52 2-88-46l-35-45-7 46c-13 92-65 99-153 20l-40-36-3 48c-3 41-6 48-26 51-12 2-24-3-26-10z"/><path d="m6472 2288c-19-19-14-127 7-173 23-51 43-67 78-63 22 2 34 14 56 56l29 53 28-58c62-128 152-173 213-106 11 13 21 50 28 103 9 79 9 86-14 129-24 48-53 64-63 36-4-9 1-31 11-49 14-26 17-48 13-105-7-89-23-113-62-88-40 26-73 77-91 142-28 98-33 107-57 103-14-2-25-14-31-33-6-16-23-54-40-83-38-68-50-57-55 46-5 92-20 120-50 90z"/><path d="m1756 2239c-34-27-146-255-146-299 0-27 3-31 22-28 27 4 59 57 89 148 12 36 29 75 37 88 15 23 15 23 39-25 14-29 54-77 100-120 90-84 92-82-82-86-90-2-110-5-110-17 0-23 326-28 349-4 21 21 15 30-79 106-89 72-123 117-151 197-11 30-24 56-30 58s-23-6-38-18z"/><path d="m2366 2186c-59-18-66-33-117-236-50-200-75-402-52-422 31-26 47 9 87 192 7 36 17 86 20 111l7 47 76 11c89 13 134 33 180 78 27 28 33 41 33 77 0 56-32 104-90 134-48 24-85 26-144 8zm124-51c31-16 60-61 60-93 0-21-58-78-94-91-11-5-45-12-73-16-57-7-58-6-54 50 4 42 43 145 59 155 25 14 69 12 102-5z"/><path d="m2990 2180c0-19 6-20 166-20 152 0 165 1 162 18-3 15-20 17-166 20-157 2-162 2-162-18z"/><path d="m8858 2147c-56-8-68-13-68-28 0-22 1-22 184-9 121 9 163 20 150 41-7 12-179 9-266-4z"/><path d="m3034 2109c-3-6 1-18 10-27 14-14 40-17 159-17 129 0 188 7 175 20-4 4-292 34-330 35-4 0-10-5-14-11z"/><path d="m8784 1995c-27-20-10-33 61-46s341-7 356 8c13 13-58 23-242 32-74 4-140 10-146 14-5 3-19 0-29-8z"/><path d="m6289 1256c-2-3-79-9-169-15-233-15-278-30-304-103-12-37-12-48 13-247 10-80 7-131-8-131-16 0-61 87-61 117 0 37-21 53-45 33-22-18-19-49 11-108 30-60 78-104 108-100 13 2 28 18 40 43 18 37 19 46 7 155-24 208-24 209-7 235 21 31 100 55 185 55 36 0 104 4 151 9 47 6 145 12 218 15l132 6v-31c0-16 5-51 12-76 11-46 11-46 25-19 20 38 28 119 14 144-11 21-18 22-165 22-84 0-155-2-157-4z"/><path d="m5185 1195c-5-2-22-6-38-9-36-8-101-68-118-109-7-17-20-37-29-44-16-12-27-118-29-274-1-61 3-82 18-100 16-20 21-21 34-11 13 11 16 44 19 175 3 157 4 164 33 222 35 70 80 105 136 105 42 0 56-21 44-68-8-33-70-119-110-152-80-66-94-102-60-154 41-63 292-121 321-75 7 12-39 29-76 29-44 0-157 38-186 63-34 29-27 53 25 90 22 15 61 57 87 94 38 54 48 77 52 117 5 68-22 106-76 105-20 0-41-2-47-4z"/><path d="m3845 970c-16-10-37-30-47-42l-18-23v26c0 15-7 32-15 39-27 22-45-5-46-69 0-31-4-78-9-106-6-37-5-54 5-64 19-20 31-8 71 72 33 67 87 137 106 137 10 0 10-85-1-130-18-79 24-83 73-7 19 28 47 64 62 79 32 29 80 51 95 42 14-9 10-96-6-128-17-32-19-52-6-60 28-18 64 39 76 119 7 50-6 89-39 110-24 16-29 16-73 1-26-9-65-30-85-47l-38-30v35c0 63-48 84-105 46z"/><path d="m4298 965c-9-20-8-41 6-100 14-61 24-80 52-105 47-41 96-41 152 0l42 30 20-39c15-30 30-43 64-56 57-22 91-14 116 28 31 50 27 122-9 179-33 51-67 79-87 71-16-6-19-43-4-43s70-90 70-115c0-12-5-36-11-54-13-37-37-40-74-8-22 18-27 34-32 85-3 34-11 66-18 72-20 17-43 1-49-35-8-41-68-95-107-95-42 0-62 31-68 113-4 39-10 78-14 85-13 20-37 14-49-13z"/><path d="m6188 929c-10-5-18-18-18-27 0-39 51-57 69-25 9 17 11 16 31-2 31-28 22-49-50-102-80-60-89-87-33-102 53-13 208-24 233-16 12 4 19 12 17 18-4 12-118 35-181 36l-39 1 54 38c70 49 87 78 70 121-24 55-106 88-153 60z"/><path d="m2912 809c3-24 3-24 178-26 173-3 224 4 190 27-8 5-51 10-95 10s-124 3-178 7c-99 6-99 6-95-18z"/><path d="m2950 722c0-25 12-28 170-43 100-9 134-9 170 1 42 12 43 13 20 20-22 7-91 15-297 36-59 6-63 5-63-14z"/></g><g fill="#44b" transform="matrix(.054411653 0 0 -.054411653 1114.78336453537 1367.12723191264)"><path d="m750 2973c-57-10-88-25-119-57-40-41-55-100-46-179 6-45 12-61 32-77 32-25 35-25 64-1 22 17 24 26 21 89-4 105 24 120 164 87 33-7 119-19 190-25 88-8 134-16 144-26 32-32 8-420-28-456-18-18-126-28-289-28-185 0-206-4-250-52-55-58-58-82-55-363 1-145 7-274 13-293 11-34 51-62 89-62 12 0 35 14 52 31l31 30-6 238c-3 130-3 249 0 264l5 27h112c234 1 363 26 423 82 58 54 98 260 91 463-4 122-7 138-34 191-40 81-79 100-217 108-174 10-361 14-387 9z"/><path d="m3660 2971c-42-9-83-34-103-65-39-59-50-127-54-343-5-206-5-212 18-252 28-50 78-86 143-102 48-12 257-8 370 7l49 7-7-104c-4-57-11-189-16-294-9-177-9-192 8-214 35-47 100-46 136 2 22 29 27 86 42 452 7 191 0 235-44 283-45 48-92 56-241 38-146-18-229-20-265-6l-26 10v162c0 156 8 230 27 249 5 5 99 6 210 2l201-6 5-50c3-39 11-56 31-74 34-29 48-29 80 0 24 20 26 30 28 113 4 147-23 169-218 179-242 11-340 13-374 6z"/><path d="m1565 2945c-14-13-25-32-25-42s-1-297-3-638c-2-677-3-662 55-694 33-19 73-7 101 31 18 24 20 51 29 300 5 150 10 278 12 283 2 6 37 8 97 3 52-3 135-7 186-7 154-2 161-10 143-176-21-189-27-310-18-343 12-45 45-72 86-72 71 0 102 46 102 151 0 33 7 118 16 187 24 190 9 280-58 349-50 52-112 67-263 65-71-1-164-6-205-11-41-4-78-7-81-5-4 2-10 108-13 236-9 286-17 352-47 384-31 33-82 32-114-1z"/><path d="m2542 2944c-55-38-64-109-53-419 6-186 9-215 28-250 50-95 116-125 302-135 75-4 171-5 215-1l78 7-4-178c-2-97-7-181-11-184-4-4-42 1-85 11-104 26-285 27-363 3-106-33-149-107-99-170 26-34 68-41 132-21 74 23 202 20 308-7 182-47 274 5 301 168 12 77 27 831 19 994-7 152-20 181-86 186-88 7-103-51-104-401v-219l-201 4c-197 3-201 3-220 27-18 21-19 42-19 283v260l-29 29c-33 33-74 38-109 13z"/><path d="m2374 1391c-55-34-79-78-79-147 0-51 4-66 27-96 35-45 102-73 153-64 78 15 146 111 131 188-20 108-145 172-232 119z"/><path d="m1853 999c-39-11-66-56-61-101 6-59 69-64 76-6 4 30 34 38 145 38h67v-110c0-135-1-136-132-126-85 6-89 6-113-18-24-25-25-28-25-179 0-162 4-177 47-177 35 0 43 29 43 159v121h73c85 0 141 14 168 41 17 17 19 34 19 169 0 147-1 152-25 175-23 24-30 25-137 24-62 0-128-5-145-10z"/><path d="m2985 1000c-91-16-93-18-104-58-15-51-14-537 0-564 19-36 69-48 204-48 121 0 127 1 151 25l24 24-2 292-3 292-26 19c-31 23-161 33-244 18zm169-86c14-5 16-37 16-250v-245l-102 3-103 3v240 240l40 6c57 9 131 10 149 3z"/><path d="m2351 971c-24-24-29-73-37-372-6-232-6-237 15-258 23-23 29-25 51-11 12 7 16 40 20 150l5 141 35-23c19-13 59-55 88-93 30-39 78-96 108-128 47-51 56-57 74-47 29 16 25 42-15 92-19 24-62 78-95 121-61 77-61 77-33 77 15 0 46 9 69 19 56 26 67 57 62 179-6 156-27 172-220 172-93 0-111-3-127-19zm257-74c16-13 17-168 0-185-7-7-41-12-84-12-40 0-84-4-98-10l-26-10v120 119l98-6c53-3 103-10 110-16z"/></g></svg>