<?xml version="1.0" encoding="UTF-8" standalone="no"?>
<svg
   width="308.38013pt"
   height="310.65387pt"
   viewBox="0 0 308.38014 310.65387"
   version="1.1"
   id="svg19"
   sodipodi:docname="1302t.svg"
   xmlns:inkscape="http://www.inkscape.org/namespaces/inkscape"
   xmlns:sodipodi="http://sodipodi.sourceforge.net/DTD/sodipodi-0.dtd"
   xmlns:xlink="http://www.w3.org/1999/xlink"
   xmlns="http://www.w3.org/2000/svg"
   xmlns:svg="http://www.w3.org/2000/svg"
   xmlns:rdf="http://www.w3.org/1999/02/22-rdf-syntax-ns#"
   xmlns:cc="http://creativecommons.org/ns#"
   xmlns:dc="http://purl.org/dc/elements/1.1/">
  <sodipodi:namedview
     id="namedview19"
     pagecolor="#ffffff"
     bordercolor="#000000"
     borderopacity="0.25"
     inkscape:showpageshadow="2"
     inkscape:pageopacity="0.0"
     inkscape:pagecheckerboard="0"
     inkscape:deskcolor="#d1d1d1"
     inkscape:document-units="pt" />
  <metadata
     id="metadata1">
    <rdf:RDF>
      <cc:Work>
        <dc:type
           rdf:resource="http://purl.org/dc/dcmitype/StillImage" />
        <dc:date>2025-01-10T11:31:48.170871</dc:date>
        <dc:format>image/svg+xml</dc:format>
        <dc:creator>
          <cc:Agent>
            <dc:title>Matplotlib v3.8.2, https://matplotlib.org/</dc:title>
          </cc:Agent>
        </dc:creator>
      </cc:Work>
    </rdf:RDF>
  </metadata>
  <defs
     id="defs1">
    <style
       type="text/css"
       id="style1">*{stroke-linejoin: round; stroke-linecap: butt}</style>
  </defs>
  <g
     id="figure_1"
     transform="translate(-9.92,-8.761875)">
    <g
       id="axes_1">
      <g
         id="line2d_1">
        <path
           d="m 228.02,237.79294 h -1.44 -1.44 -1.44 -1.44 -1.44 -1.44 -1.44 -1.44 -1.44 -1.44 -1.44 -1.44 -1.44 -1.44 -1.44 -1.44 -1.44 -1.44 -1.44 -1.44 -1.44 -1.44 -1.44 -1.44 -1.44 -1.44 -1.44 -1.44 -1.44 -1.44 -1.44 -1.44 -1.44 -1.44 -1.44 -1.44 -1.44 -1.44 -1.44 -1.44 -1.44 -1.44 -1.44 -1.44 -1.44 -1.44 -1.44 -1.44 -1.44 -1.44 -1.44 -1.44 -1.44 -1.44 -1.44 -1.44 -1.44 -1.44 -1.44 -1.44 -1.44 -1.44 -1.44 -1.44 -1.44 -1.44 -1.44 -1.44 -1.44 -1.44 -1.44 -1.44 -1.44 -1.44 -1.44 -1.44 -1.44 -1.44 -1.44 -1.44 -1.44 -1.44 -1.44 -1.44 -1.44 -1.44 -1.44 -1.44 -1.44 -1.44 -1.44 -1.44 -1.44 -1.44 -1.44 -1.44 -1.44 -1.44 -1.44"
           clip-path="url(#p09dd991fa9)"
           style="fill:none;stroke:#000000;stroke-width:2.5;stroke-linecap:square"
           id="path3" />
      </g>
      <g
         id="line2d_2">
        <path
           d="m 85.46,237.79294 v -1.488 -1.488 -1.488 -1.488 -1.488 -1.488 -1.488 -1.488 -1.488 -1.488 -1.488 -1.488 -1.488 -1.488 -1.488 -1.488 -1.488 -1.488 -1.488 -1.488 -1.488 -1.488 -1.488 -1.488 -1.488 -1.488 -1.488 -1.488 -1.488 -1.488 -1.488 -1.488 -1.488 -1.488 -1.488 -1.488 -1.488 -1.488 -1.488 -1.488 -1.488 -1.488 -1.488 -1.488 -1.488 -1.488 -1.488 -1.488 -1.488 -1.488 -1.488 -1.488 -1.488 -1.488 -1.488 -1.488 -1.488 -1.488 -1.488 -1.488 -1.488 -1.488 -1.488 -1.488 -1.488 -1.488 -1.488 -1.488 -1.488 -1.488 -1.488 -1.488 -1.488 -1.488 -1.488 -1.488 -1.488 -1.488 -1.488 -1.488 -1.488 -1.488 -1.488 -1.488 -1.488 -1.488 -1.488 -1.488 -1.488 -1.488 -1.488 -1.488 -1.488003 -1.488 -1.488 -1.488 -1.488 -1.488 -1.488"
           clip-path="url(#p09dd991fa9)"
           style="fill:none;stroke:#000000;stroke-width:2.5;stroke-linecap:square"
           id="path4" />
      </g>
      <g
         id="matplotlib.axis_1">
        <g
           id="xtick_1">
          <g
             id="line2d_3" />
          <g
             id="text_1">
            <!-- $V$ -->
            <g
               transform="matrix(0.34,0,0,-0.34,293.172,319.31481)"
               id="g4">
              <defs
                 id="defs4">
                <path
                   id="STIXTwoText-Italic-56"
                   d="M 1504,-32 H 1293 L 934,3430 q -25,218 -77,343 -51,125 -150,182 -99,58 -272,58 l 13,192 h 1568 l -19,-192 q -243,0 -384,-96 -141,-96 -128,-314 0,-32 9,-115 10,-83 10,-115 l 192,-1824 45,-749 h 32 l 371,563 1376,2061 q 90,128 144,237 54,109 54,185 0,96 -83,131 -83,36 -301,36 l 13,192 h 1383 l -13,-192 q -128,0 -228,-26 -99,-25 -189,-99 -89,-74 -195,-208 -105,-134 -252,-352 z"
                   transform="scale(0.015625)" />
              </defs>
              <use
                 xlink:href="#STIXTwoText-Italic-56"
                 transform="translate(0,0.296875)"
                 id="use4" />
            </g>
          </g>
        </g>
        <g
           id="xtick_2">
          <g
             id="line2d_4" />
          <g
             id="text_2">
            <!-- $0$ -->
            <g
               transform="matrix(0.34,0,0,-0.34,29.44,319.31481)"
               id="g5">
              <defs
                 id="defs5">
                <path
                   id="STIXTwoText-30"
                   d="M 1581,-70 Q 1197,-70 928,99 659,269 492,563 326,858 249,1242 q -76,384 -76,806 0,608 163,1072 163,464 480,726 317,263 778,263 416,0 729,-247 314,-246 493,-710 179,-464 179,-1123 0,-410 -80,-788 Q 2835,864 2665,569 2496,275 2227,102 1958,-70 1581,-70 Z m 0,230 q 377,0 585,454 208,455 208,1376 0,973 -202,1437 -201,464 -598,464 -377,0 -582,-461 Q 787,2970 787,2016 787,1088 992,624 1197,160 1581,160 Z"
                   transform="scale(0.015625)" />
              </defs>
              <use
                 xlink:href="#STIXTwoText-30"
                 transform="translate(0,0.796875)"
                 id="use5" />
            </g>
          </g>
        </g>
      </g>
      <g
         id="matplotlib.axis_2">
        <g
           id="ytick_1">
          <g
             id="line2d_5" />
          <g
             id="text_3">
            <!-- $T$ -->
            <g
               transform="matrix(0.34,0,0,-0.34,7.2,31.201875)"
               id="g6">
              <defs
                 id="defs6">
                <path
                   id="STIXTwoText-Italic-54"
                   d="M 2547,0 H 723 l 39,192 q 268,0 409,41 141,42 211,179 71,138 128,426 l 653,3220 h 576 L 2086,838 q -57,-288 -41,-426 16,-137 144,-179 128,-41 397,-41 z M 717,3098 H 512 L 774,4205 H 4211 L 4019,3098 h -198 q 0,352 -36,534 -35,182 -189,252 -153,71 -511,71 H 1779 q -269,0 -429,-39 -160,-38 -262,-131 -102,-92 -182,-259 -80,-166 -189,-428 z"
                   transform="scale(0.015625)" />
              </defs>
              <use
                 xlink:href="#STIXTwoText-Italic-54"
                 transform="translate(0,0.296875)"
                 id="use6" />
            </g>
          </g>
        </g>
      </g>
      <g
         id="line2d_6">
        <path
           d="m 228.02,237.79294 v 47.52"
           clip-path="url(#p09dd991fa9)"
           style="fill:none;stroke:#000000;stroke-width:1.6;stroke-dasharray:5.92, 2.56;stroke-dashoffset:0"
           id="path6" />
      </g>
      <g
         id="line2d_7">
        <path
           d="m 85.46,237.79294 v 47.52"
           clip-path="url(#p09dd991fa9)"
           style="fill:none;stroke:#000000;stroke-width:1.6;stroke-dasharray:5.92, 2.56;stroke-dashoffset:0"
           id="path7" />
      </g>
      <g
         id="line2d_8">
        <path
           d="M 85.46,237.79294 H 37.94"
           clip-path="url(#p09dd991fa9)"
           style="fill:none;stroke:#000000;stroke-width:1.6;stroke-dasharray:5.92, 2.56;stroke-dashoffset:0"
           id="path8" />
      </g>
      <g
         id="patch_3">
        <path
           d="m 150.26,237.79294 q -0.72,0 0.14114,0"
           clip-path="url(#p09dd991fa9)"
           style="fill:none;stroke:#000000;stroke-linecap:round"
           id="path9" />
        <path
           d="m 166.60114,243.19294 -16.2,-5.4 16.2,-5.4 z"
           clip-path="url(#p09dd991fa9)"
           style="stroke:#000000;stroke-linecap:round"
           id="path10" />
      </g>
      <g
         id="text_4">
        <!-- 1 -->
        <g
           transform="matrix(0.34,0,0,-0.34,236.3602,269.51115)"
           id="g10">
          <defs
             id="defs10">
            <path
               id="STIXTwoText-31"
               d="M 2726,0 H 512 v 179 q 454,0 640,96 186,96 186,333 v 2707 q 0,167 -45,240 -45,74 -167,74 -64,0 -179,-13 -115,-13 -243,-36 -128,-22 -230,-54 v 212 l 1241,352 h 186 V 608 q 0,-237 192,-333 192,-96 633,-96 z"
               transform="scale(0.015625)" />
          </defs>
          <use
             xlink:href="#STIXTwoText-31"
             id="use10" />
        </g>
      </g>
      <g
         id="text_5">
        <!-- 2 -->
        <g
           transform="matrix(0.34,0,0,-0.34,60.2898,269.51115)"
           id="g11">
          <defs
             id="defs11">
            <path
               id="STIXTwoText-32"
               d="M 2765,0 H 243 v 218 l 973,972 q 320,327 531,592 211,266 317,535 106,269 106,601 0,359 -215,573 -214,215 -585,215 -314,0 -535,-135 -221,-134 -400,-493 l -153,64 q 147,468 467,724 320,256 787,256 365,0 640,-138 275,-138 432,-384 157,-246 157,-586 0,-281 -119,-541 -118,-259 -352,-534 -233,-275 -572,-621 L 877,518 v -32 l 448,20 h 889 q 256,0 358,115 103,115 212,403 h 186 z"
               transform="scale(0.015625)" />
          </defs>
          <use
             xlink:href="#STIXTwoText-32"
             id="use11" />
        </g>
      </g>
      <g
         id="patch_4">
        <path
           d="m 85.46,157.44094 q 0,-0.744 0,0.0931"
           clip-path="url(#p09dd991fa9)"
           style="fill:none;stroke:#000000;stroke-linecap:round"
           id="path11" />
        <path
           d="m 80.06,173.73408 5.4,-16.2 5.4,16.2 z"
           clip-path="url(#p09dd991fa9)"
           style="stroke:#000000;stroke-linecap:round"
           id="path12" />
      </g>
      <g
         id="text_6">
        <!-- 3 -->
        <g
           transform="matrix(0.34,0,0,-0.34,60.2898,78.635635)"
           id="g12">
          <defs
             id="defs12">
            <path
               id="STIXTwoText-33"
               d="m 1094,-83 q -288,0 -442,55 -153,54 -214,134 -60,80 -60,163 0,102 64,191 64,90 185,90 96,0 201,-48 106,-48 221,-109 116,-60 234,-108 119,-48 240,-48 205,0 384,73 179,74 294,250 116,176 116,490 0,288 -160,499 -160,211 -426,329 -265,119 -573,119 h -128 v 243 h 122 q 218,0 422,109 205,109 336,307 132,198 132,454 0,282 -176,439 -176,157 -477,157 -288,0 -480,-132 -192,-131 -359,-387 l -147,83 q 179,416 473,634 295,218 686,218 492,0 761,-247 269,-246 269,-611 0,-333 -195,-538 -195,-204 -496,-396 v -20 q 256,-76 470,-220 215,-144 343,-352 128,-208 128,-496 0,-436 -244,-734 Q 2355,211 1958,64 1562,-83 1094,-83 Z"
               transform="scale(0.015625)" />
          </defs>
          <use
             xlink:href="#STIXTwoText-33"
             id="use12" />
        </g>
      </g>
      <g
         id="line2d_9">
        <path
           d="M 228.02,237.79294"
           clip-path="url(#p09dd991fa9)"
           style="fill:none;stroke:#000000;stroke-width:1.5;stroke-linecap:square"
           id="path13" />
        <defs
           id="defs13">
          <path
             id="m0ceeabfa25"
             d="M 0,4 C 1.060812,4 2.078319,3.578535 2.828427,2.828427 3.578535,2.078319 4,1.060812 4,0 4,-1.060812 3.578535,-2.078319 2.828427,-2.828427 2.078319,-3.578535 1.060812,-4 0,-4 -1.060812,-4 -2.078319,-3.578535 -2.828427,-2.828427 -3.578535,-2.078319 -4,-1.060812 -4,0 -4,1.060812 -3.578535,2.078319 -2.828427,2.828427 -2.078319,3.578535 -1.060812,4 0,4 Z"
             style="stroke:#000000" />
        </defs>
        <g
           clip-path="url(#p09dd991fa9)"
           id="g13">
          <use
             xlink:href="#m0ceeabfa25"
             x="228.02"
             y="237.79294"
             style="stroke:#000000"
             id="use13" />
        </g>
      </g>
      <g
         id="line2d_10">
        <path
           d="M 85.46,237.79294"
           clip-path="url(#p09dd991fa9)"
           style="fill:none;stroke:#000000;stroke-width:1.5;stroke-linecap:square"
           id="path14" />
        <g
           clip-path="url(#p09dd991fa9)"
           id="g14">
          <use
             xlink:href="#m0ceeabfa25"
             x="85.459999"
             y="237.79294"
             style="stroke:#000000"
             id="use14" />
        </g>
      </g>
      <g
         id="line2d_11">
        <path
           d="M 85.46,90.480937"
           clip-path="url(#p09dd991fa9)"
           style="fill:none;stroke:#000000;stroke-width:1.5;stroke-linecap:square"
           id="path15" />
        <g
           clip-path="url(#p09dd991fa9)"
           id="g15">
          <use
             xlink:href="#m0ceeabfa25"
             x="85.459999"
             y="90.480934"
             style="stroke:#000000"
             id="use15" />
        </g>
      </g>
      <g
         id="patch_5">
        <path
           d="m 37.94,285.31294 q 133.056,0 260.9639,0"
           style="fill:none;stroke:#000000;stroke-width:2.56;stroke-linecap:round"
           id="path16" />
        <path
           d="m 282.9039,281.2058 16,4.10714 -16,4.10714 z"
           style="stroke:#000000;stroke-width:2.56;stroke-linecap:round"
           id="path17" />
      </g>
      <g
         id="patch_6">
        <path
           d="m 37.94,285.31294 q 0,-133.056 0,-260.963903"
           style="fill:none;stroke:#000000;stroke-width:2.56;stroke-linecap:round"
           id="path18" />
        <path
           d="m 33.832857,40.349037 4.107143,-16 4.107143,16 z"
           style="stroke:#000000;stroke-width:2.56;stroke-linecap:round"
           id="path19" />
      </g>
    </g>
  </g>
  <defs
     id="defs19">
    <clipPath
       id="p09dd991fa9">
      <rect
         x="37.939999"
         y="19.200937"
         width="266.112"
         height="266.112"
         id="rect19" />
    </clipPath>
  </defs>
</svg>
