<svg height="1925.772564pt" preserveAspectRatio="xMidYMid meet" viewBox="0 0 1881.939902 1925.772564" width="1881.939902pt" xmlns="http://www.w3.org/2000/svg"><g transform="matrix(.1 0 0 -.1 -61.945897 1977.889833)"><path d="m1372 19753c-10-16-43-74-73-130-52-98-55-103-86-103-26 0-33-4-33-20 0-13 7-20 20-20 11 0 20-4 20-10s-27-10-60-10c-53 0-60-2-60-20 0-17 7-20 50-20 49 0 49 0 40-25-12-32-3-54 26-61 30-8 40 0 64 47 20 39 21 39 81 39s60 0 45-22c-23-32-20-50 6-46 13 2 32 18 43 35 14 23 32 36 60 43 70 19 73 22 30 35l-40 13 40 3c47 5 57 32 13 37-16 2-28 5-28 8 0 2 9 40 21 84 23 90 22 128-3 144-26 16-42-6-40-56 1-24-7-72-17-108l-18-65-81-3c-45-2-82 0-82 3s27 56 60 116c48 88 58 114 49 125-16 20-25 18-47-13zm73-283c-3-5-42-10-86-10-46 0-79 4-79 10s35 10 86 10c54 0 83-4 79-10z"/><path d="m1895 19650c-39-39-85-81-102-93-18-12-33-28-33-35 0-19 30-27 52-13 32 20 30 7-6-35-37-43-76-115-76-139 0-43 63-20 68 25 1 13 20 45 41 70 54 65 163 247 159 268-7 34-34 21-103-48z"/><path d="m2093 19708c-23-8-33-17-33-31 0-18 5-19 57-12 31 4 62 9 70 12 43 17-47-74-113-113-30-18-10-44 33-44 40 0 109-34 126-61 6-9 7-24 4-33-9-22-116-22-158 0-36 18-73 15-77-7-5-27 81-54 171-54 74 0 80 2 103 28 13 15 24 35 24 43 0 35-32 72-84 100l-54 28 44 39c48 42 63 79 44 102-15 18-106 19-157 3z"/><path d="m2540 19669c-37-15-70-49-92-94-11-22-30-60-44-85-31-57-30-75 5-111 56-55 158-32 241 55 75 77 92 123 70 181-16 42-126 75-180 54zm93-50c35-9 37-12 37-51 0-37-6-47-57-99-62-61-120-87-154-68-28 15-23 51 16 108 19 28 35 57 35 65 0 17 48 55 70 56 8 0 32-5 53-11z"/><path d="m2965 19642c-51-32-103-89-113-124-41-135 2-205 132-215 59-5 66-4 90 20 30 30 35 80 11 114-21 30-95 56-144 51-52-5-53 9-4 63 54 60 83 72 139 58 34-9 48-9 57 0 39 39-112 69-168 33zm55-221c52-37 35-76-32-72-51 3-81 26-72 55 14 48 52 54 104 17z"/><path d="m10466 19649c-65-10-169-62-200-100-34-41-41-87-29-204 10-98 4-234-16-355-10-59 1-86 31-75 16 6 17 14 43 245 28 250 23 231 60 224 49-9 152 14 224 51 50 25 74 45 99 82 38 57 41 91 9 121-20 19-34 22-98 21-41-1-96-5-123-10zm183-77c-25-65-125-126-230-138-68-8-85 6-68 55 8 24 8 35-1 46-21 25 85 67 189 75 105 7 125 1 110-38z"/><path d="m10942 19303c-65-105-113-208-106-226 13-35 42-18 76 43l33 61 7-418c3-230 11-447 17-483s14-131 17-212l6-148h-46c-39 0-46-3-46-20s7-20 45-20h45v-808c0-445 3-864 7-930l6-122h-31c-44 0-45-35-2-44l30-6 1-102c0-57 2-159 2-228 1-69-2-220-7-336-6-155-5-221 3-247 18-53 20-510 3-562-17-50-36-151-59-318-9-64 4-104 39-121 42-21 55-20 63 5 7 20 11 21 158 15s683-19 1333-32l312-6 4-94c2-51 7-97 12-101 4-4 16 3 27 16 15 18 19 39 19 101v78l558 6c306 3 725 9 930 12l372 6 1-58c1-74 11-108 31-112 17-3 28 41 28 122v48l333-6c343-5 582-16 842-36 83-6 213-16 290-22s411-12 743-15l603-4-42-47c-51-58-66-89-52-103 12-12 53 4 53 21 0 5 27 35 60 67 62 60 74 91 48 126-14 18-201 86-259 94-40 5-58-9-40-31 6-8 33-19 59-26s65-23 87-34l40-21-470-3c-441-3-616 2-950 29-410 33-552 40-927 46-418 6-418 6-418 27 0 12 5 27 10 32 17 17 0 44-26 44-23 0-24 3-24 74 0 87-5 106-31 106-25 0-32-32-27-131 2-62 7-84 21-93 9-7 17-23 17-34 0-21-3-21-447-26-1506-19-1413-19-1413 2 0 11-7 25-15 32-19 16-45-3-45-33 0-20-3-20-242-13-134 4-450 11-703 17-253 5-544 12-646 15-177 6-186 8-181 26 2 10 24 32 47 48 41 28 62 57 50 68-10 10-89-35-137-77-25-22-49-41-53-41-8 0-6 14 24 184 11 66 27 143 35 170 16 55 16 110 12 856-1 228-6 457-10 508l-9 92h31c46 0 48 17 6 42l-37 22 7 125c3 69 6 489 6 932v806l26 12c29 13 27 35-3 39-19 3-22 12-27 110-3 59-11 134-17 167-11 56-25 888-17 995l3 45 28-77c31-83 60-128 83-128 19 0 18 20-7 82-12 29-36 96-54 148-28 83-35 95-57 98-20 3-31-8-66-65z"/><path d="m627 19214c-15-16-6-44 16-49 12-3 762-4 1667-3 1454 3 1645 5 1645 18s-192 16-1645 20c-905 3-1652 9-1661 13-8 4-18 4-22 1z"/><path d="m4014 19205c-4-9-4-18-1-21 18-19 131-24 537-24 362 0 484-4 595-17 77-9 167-16 200-15s249 6 480 13c386 10 527 11 690 6 47-2 60 1 60 13 0 24-138 41-280 35-66-3-295-9-510-14-214-5-404-12-420-16-18-4-58 0-100 11-61 15-147 18-645 23-316 3-581 10-588 14-7 5-14 2-18-8z"/><path d="m6746 19168c-34-113-44-455-20-733 18-216 17-158 40-3080 3-368 2-689-1-711-7-53-57-129-93-142-35-14-135-84-136-97-2-24 53-14 100 18 27 19 60 37 72 41 32 10 88 88 107 149 14 46 15 120 12 652-12 1662-27 2927-37 3000-6 44-13 229-16 410-6 283-4 341 10 408 9 44 13 83 10 88-8 13-44 11-48-3z"/><path d="m3847 18628c-59-77-170-297-206-408-69-215-59-400 26-481 46-45 65-55 122-64 52-9 49 5-8 34-62 32-107 91-121 158-15 68-8 191 15 277 37 138 137 350 213 450 53 70 61 98 31 104-10 2-37-24-72-70z"/><path d="m983 18620c-61-37-102-133-143-334-36-177-44-278-31-386 11-93 51-183 98-220 48-38 88-15 43 25-11 10-34 43-52 74-33 56-33 56-33 216 0 128 5 182 23 270 54 258 99 335 197 335 28 0 35 4 35 20 0 17-7 20-52 20-35 0-64-7-85-20z"/><path d="m2227 18633c-15-14-5-31 37-60 109-77 223-263 251-408 43-224-8-415-127-476-21-11-38-25-35-32 6-21 45-19 84 3 187 106 198 521 21 777-86 124-203 224-231 196z"/><path d="m5867 18613c-18-17-3-33 42-46 104-30 212-144 246-259 55-188 8-378-124-501-33-30-74-64-91-74-41-24-38-34 8-21 105 29 189 110 240 232 39 92 51 172 40 262-18 151-74 259-175 338-72 57-165 91-186 69z"/><path d="m14427 18528c-18-6-27-16-25-27 3-14 16-15 84-13 76 4 81 3 97-21 9-14 19-36 22-49 10-39-31-148-75-202-41-50-57-87-45-105 3-7 44-11 96-11 76 0 92 3 109 20s28 50 16 50c-2 0-23-7-46-15s-60-15-82-15h-39l41 53c66 88 98 213 69 270-6 12-23 34-37 50-23 24-32 27-91 26-36 0-79-5-94-11z"/><path d="m1883 18393c-10-4-13-58-13-226 0-191 2-227 18-257 20-41 59-51 84-23 9 10 34 65 56 123 67 175 74 188 82 165 7-19 7-19 18 2 19 34 15 122-5 130-26 10-46-24-106-179-31-79-62-156-69-173-11-26-14 1-19 200-3 127-7 231-8 231-6 7-28 10-38 7z"/><path d="m1230 18350c-19-5-45-21-57-36-22-29-43-101-43-152 0-16-5-33-11-39-7-7-15-81-20-177-8-138-7-171 5-201 16-37 44-47 65-21 7 8 14 74 18 164l6 150 43 6c63 8 141 51 164 89 26 42 25 83-2 137-33 65-98 96-168 80zm79-55c29-14 36-25 52-78 17-58-33-109-125-126l-46-8v73c0 133 41 180 119 139z"/><path d="m5096 18344c-8-21 1-34 23-34 20 0 99-48 123-76 9-10 19-30 23-44 5-22-5-37-76-106-72-72-82-85-83-119-1-32 4-41 24-52 53-29 211 1 227 43 9 24-2 26-51 10-26-9-71-16-100-16-49 0-54 2-49 20 3 11 35 48 72 81 36 33 71 70 78 82 38 68-17 154-132 208-49 23-71 24-79 3z"/><path d="m5516 18344c-11-29-5-318 7-354 10-29 17-35 42-35s34 8 65 60c20 33 49 90 65 128 17 37 43 82 58 100 40 44 51 77 34 94-30 30-70-19-138-167-18-41-44-93-56-115l-23-40v157c0 86-3 163-6 172s-14 16-24 16-21-7-24-16z"/><path d="m3233 18294c-7-19 42-65 89-85 15-6 25-15 22-20s-86-9-184-9c-207 0-280-11-280-42 0-19 4-20 47-14 26 3 135 9 242 13 179 6 194 8 199 25 4 15 10 18 31 13 37-9 91-36 91-45 0-4-25-27-56-50-55-43-90-92-79-110 8-13 45-13 45-1 0 9 15 23 119 118 37 34 42 42 33 59-6 11-32 30-59 41-26 12-75 33-107 47-32 15-69 37-82 51-26 29-62 33-71 9z"/><path d="m4510 18249c-37-15-60-39-87-94-14-27-32-54-39-60-24-19-80-269-87-392-4-75 6-102 37-90 13 5 55 160 71 262 10 64 13 69 29 56 19-16 78 0 137 38 38 24 48 36 58 74 15 63 14 95-8 143-18 40-54 75-76 73-5 0-21-5-35-10zm56-71c10-19 17-54 16-82-1-57-22-85-85-111-23-9-50-21-59-26-10-5-18-8-18-6s9 38 19 80c29 111 66 175 103 177 4 0 15-15 24-32z"/><path d="m3962 18219c3-20 8-22 71-23 72-1 97-16 97-57 0-16-70-85-124-122-18-12-26-27-26-47 0-45 26-53 147-48 92 4 107 7 126 28l22 22-90-6c-49-3-106-2-125 2-35 8-35 8-10 21 14 7 49 36 78 64 44 44 52 57 52 89 0 25-8 46-24 65-23 26-30 28-111 32-85 3-87 3-83-20z"/><path d="m10104 18190c-27-11-64-57-64-81 0-10-11-30-24-44-31-34-37-81-39-301l-2-169 27-3c22-3 28 2 32 20 20 95 26 136 26 186 0 70 5 77 53 86 47 9 100 55 120 104 16 40 9 130-12 170-21 39-69 52-117 32zm75-71c14-41 13-98-2-126-15-27-55-58-86-66-24-6-24-6-17 64 6 72 28 138 49 151 25 16 45 7 56-23z"/><path d="m9527 18113c-18-18-5-33 29-33 26 0 43-8 65-29 51-51 37-93-46-141-59-33-71-61-36-80 11-5 69-10 129-10 96 0 111 2 127 20 18 20 17 20-72 20-49 0-92 3-96 6-3 3 12 23 34 43 34 33 39 43 39 82-1 53-16 84-56 110-28 18-103 26-117 12z"/><path d="m1382 17973c-16-6-42-57-42-83 0-11 7-23 16-27 10-4 14-13 10-29-7-28 33-79 70-88 53-14 104 50 104 130 0 53-53 104-106 103-22 0-45-3-52-6zm83-58c29-28 30-43 10-91-15-37-31-40-49-11-7 11-6 26 7 52 19 41 16 55-14 55-11 0-17 5-14 10 10 17 35 11 60-15z"/><path d="m5682 17958c-40-20-42-78-2-78 10 0 20-3 22-7 5-12 65-52 92-63 56-21 109 25 92 78s-148 98-204 70zm126-65c17-13 32-28 32-34 0-17-26-9-66 21-21 16-46 30-54 30-10 1-8 4 5 9 25 10 41 5 83-26z"/><path d="m4638 17949c-33-13-45-39-20-46 14-3 17-12 14-39-10-82 85-107 156-42 14 14 22 33 22 53 0 45-33 72-95 79-27 3-62 1-77-5zm116-62c9-15 7-22-13-38-33-27-55-21-59 18-2 19-10 34-20 37-9 2 5 4 32 3 35-2 52-7 60-20z"/><path d="m14783 17935c-12-11-25-33-28-48-8-32-124-144-220-212-39-27-95-69-125-93-69-55-294-285-407-417-154-179-169-192-293-256-63-32-137-71-165-85-27-15-57-30-65-34s-16-17-18-29c-3-16 2-21 20-21 21 0 43 11 171 85 26 15 50 25 53 22 3-2-115-121-261-263-247-241-438-442-494-520-20-28-27-32-56-27s-35 2-49-25c-9-17-16-53-16-79 0-44-4-50-40-77-43-32-56-54-41-69 10-10 91 47 91 64 0 6 8 5 20-1 31-17 69-1 97 41 20 31 24 46 19 74-6 28-2 42 16 68 52 73 201 230 520 547 367 365 343 348 318 220-5-25-12-71-15-102-6-57-6-58 18-58 27 0 37 16 37 60 0 30 11 94 36 200 9 36 14 70 12 75-5 15 139 181 316 365 115 120 195 192 290 263 72 54 155 122 184 150 42 42 58 51 81 49 16-2 44 4 61 13 28 14 31 21 27 48-3 20 1 38 10 49 25 28 10 45-39 45-30 0-49-7-65-22z"/><path d="m12860 17927c-29-8-46-18-48-29-2-10 2-18 10-18 46 2 219 28 225 34 26 25-104 34-187 13z"/><path d="m13375 17910c-11-18 6-30 43-30 43 0 68 13 58 29-9 14-93 15-101 1z"/><path d="m13772 17903c3-16 15-18 115-18 106 0 136 6 119 23-4 4-59 9-123 10-107 4-115 3-111-15z"/><path d="m2088 17885c-24-32-23-36 13-95 23-38 39-52 67-60 67-18 98-13 127 22 61 73-13 158-137 158-44-1-56-5-70-25zm150-43c16-10 22-23 20-41-2-21-9-27-36-29-42-4-72 21-72 59 0 42 34 46 88 11z"/><path d="m12175 17890c-14-23 11-30 113-30 110 0 151 10 122 30-20 13-227 13-235 0z"/><path d="m14502 17883c3-16 17-18 103-21 102-2 145 8 115 28-8 5-61 10-118 10-93 0-103-2-100-17z"/><path d="m11575 17875c-5-2-27-6-47-10-30-5-38-10-38-27 0-19 4-20 58-15 31 4 104 10 162 13 58 4 114 10 125 14 18 7 18 9-8 19-25 10-227 15-252 6z"/><path d="m10325 17829c-51-27-65-45-65-85 0-45 17-80 47-93 83-38 203 37 203 127 0 67-100 94-185 51zm109-29c35-13 33-35-8-76-58-58-128-40-103 27 9 23 43 47 84 58 1 1 13-3 27-9z"/><path d="m4863 17778c-9-15-30-86-39-135-5-27-3-33 10-33 22 0 59 82 60 134 1 40-15 58-31 34z"/><path d="m1591 17723c-39-147-40-188-7-188 16 0 22 12 34 70 21 101 21 149 0 153-12 2-20-7-27-35z"/><path d="m14775 17630c-9-29 4-60 25-60 10 0 22 9 25 20 9 29-4 60-25 60-10 0-22-9-25-20z"/><path d="m14754 17405c-14-56 18-134 50-122 17 7 17 43 0 125-6 31-42 29-50-3z"/><path d="m5179 17316c-13-14-321-28-784-36-258-5-510-13-560-20-49-6-187-16-305-21-264-13-1886-33-2250-28-515 6-555 6-555-11 0-12 29-17 160-24 204-12 511-12 1660 2 903 11 1220 21 1375 43 41 5 305 14 585 19 281 5 553 14 605 20 126 15 485 16 910 2 190-6 363-13 384-14 46-3 58 14 24 33-16 9-106 15-298 21-535 14-945 20-951 14z"/><path d="m14787 17064c-4-4-7-34-7-66 0-52 2-58 20-58 19 0 21 5 18 62s-14 79-31 62z"/><path d="m4155 16935c-83-29-104-115-27-115 21 0 23 3 17 28-5 24-2 30 20 40 55 25 125 7 189-49 41-37 46-45 46-84 0-42-3-45-80-109-96-80-109-98-117-165-11-93 38-106 52-14 9 59 12 63 112 151 95 83 107 113 79 186-20 52-108 122-164 131-21 3-48 8-62 10s-43-3-65-10z"/><path d="m2110 16779c-58-35-80-61-120-139-87-173-137-379-124-512 5-53 12-74 36-102 36-44 94-64 129-45 24 12 23 13-27 35-70 31-84 56-84 153 0 139 43 299 123 461 25 51 43 72 82 98 75 51 61 97-15 51z"/><path d="m2707 16753c-16-15-4-33 41-65 33-24 56-52 77-94 28-56 30-66 30-179 0-92-4-133-19-175-27-80-72-166-123-238-26-37-42-69-39-78 24-61 150 119 211 300 20 60 26 99 27 170 2 165-36 262-129 331-48 35-64 41-76 28z"/><path d="m14762 16588c3-70 6-83 21-86s17 6 17 82c0 80-1 86-20 86-20 0-21-5-18-82z"/><path d="m12801 16597c-10-23-28-62-40-87-27-57-27-70 4-70 17 0 29 7 35 23s9 0 9-58l1-81-35-13c-25-9-35-18-35-33 0-20 3-21 104-15 111 7 160 20 153 40-2 8-25 12-65 12h-62v147c0 80-3 153-6 162-12 31-44 18-63-27z"/><path d="m1066 16551c-14-22 6-31 67-31 34 0 79-3 100-7l39-6-7-81c-4-45-10-97-15-116s-11-63-15-96c-6-52-4-62 10-68 27-10 45 12 45 55 0 21 4 60 9 86s15 85 22 130l11 83 182 2c153 3 181 5 181 18 0 12-24 16-135 21-74 3-214 10-311 14-128 6-178 5-183-4z"/><path d="m2480 16358c-56-83-133-178-151-186-7-3-49 135-49 164 0 40-21 84-40 84-11 0-21-4-24-9-12-19 46-252 67-270 7-5 25-13 40-16 25-7 34-1 83 51 66 70 176 232 172 253-2 9-11 17-19 19-11 2-37-27-79-90z"/><path d="m3680 16323c-38-3-159-23-237-39-15-3-23-12-23-24 0-25 26-26 125-5 38 8 90 15 115 15 47 0 111 26 118 48 4 12-1 12-98 5z"/><path d="m14782 16203c2-35 7-48 18-48s16 13 18 48c3 42 1 47-18 47s-21-5-18-47z"/><path d="m10126 16225c-21-7-54-28-73-47-35-33-35-33-27-98 4-36 6-129 5-208-2-117 1-148 14-168 8-13 22-24 30-24 13 0 15 24 15 150v150l48 1c100 1 162 50 162 129 0 109-67 153-174 115zm102-47c20-26 24-76 7-107-15-30-23-34-99-46-38-6-38-6-34 25 3 23 0 35-15 45-16 11-17 17-7 35 25 47 122 79 148 48z"/><path d="m4161 16033c-13-24 13-73 39-73 27 0 35 35 13 64-21 30-38 33-52 9z"/><path d="m11440 16020c0-18 7-20 86-20 82 0 124 10 124 30 0 6-44 10-105 10-98 0-105-1-105-20z"/><path d="m12014 16026c-12-30 13-39 108-40 76-1 93 2 93 14 0 11-16 17-55 21-30 4-74 10-97 14-35 6-44 5-49-9z"/><path d="m12435 15986c-41-8-60-16-60-26 0-12 16-14 90-12 128 4 200 26 149 46-23 9-111 5-179-8z"/><path d="m14784 15937c-11-29 0-102 16-102 19 0 22 106 3 112-7 3-16-2-19-10z"/><path d="m12882 15788c-13-13-17-173-6-202 3-9 14-16 24-16 25 0 30 19 30 119 0 79-9 111-30 111-3 0-11-5-18-12z"/><path d="m10311 15686c-28-10-37-20-47-57-16-52-18-99-4-99 6 0 10 4 10 9 0 6 12 3 28-5 29-15 60-18 87-8 21 8 45 67 45 111 0 29-5 36-35 49-40 16-39 16-84 0zm64-47c11-17-16-69-36-69-19 0-23 10-19 40 5 34 41 53 55 29z"/><path d="m12555 15660c-11-5-45-31-75-58-47-43-52-51-37-57 24-10 51 5 110 60 61 57 62 81 2 55z"/><path d="m3505 15593c-74-16-92-38-80-101 9-48 22-72 41-72 22 0 27 23 15 67-16 56 2 66 109 61 71-3 94-9 140-33 60-33 84-71 60-100-7-8-62-45-122-81-87-53-116-76-139-112-41-64-56-140-41-210 11-50 43-102 64-102 11 0 10 44-3 77-16 42-13 123 6 170 22 54 59 86 179 157 53 31 103 68 112 81 19 29 12 72-18 110-51 65-219 111-323 88z"/><path d="m2105 15549c-16-29-75-282-75-317 0-9 5-24 10-32 19-30 38 14 70 159 17 79 35 152 41 162 5 10 9 27 9 38 0 33-37 26-55-10z"/><path d="m14767 15464c-9-10 2-24 19-24 8 0 14 7 14 15 0 15-21 21-33 9z"/><path d="m1589 15427c-57-35-196-203-319-387-59-88-102-140-117-140-7 0-13-9-13-20 0-15 7-20 28-20 31 0 55 22 120 111 34 47 48 58 84 67 61 15 217 36 223 31 2-3-12-58-32-123-32-107-34-119-20-134 21-20 42-4 51 40 3 17 20 75 36 128 30 97 30 97 76 115 39 15 44 19 30 27-10 6-28 7-42 4-28-7-28-6-8 59 18 57 20 215 4 246-14 26-56 24-101-4zm61-100c0-52-28-189-41-202-5-4-232-36-235-32-2 1 29 45 69 97 87 116 181 215 196 206 6-4 11-35 11-69z"/><path d="m12176 15324c-55-44-74-84-40-84 32 0 130 102 118 122-9 14-22 8-78-38z"/><path d="m12856 15344c-3-9-6-42-6-74 0-71 6-90 30-90s30 19 30 90-6 90-30 90c-10 0-21-7-24-16z"/><path d="m14767 15184c-4-4-7-29-7-56s-5-69-11-94c-9-35-9-51 1-72l12-27 16 30c11 21 16 59 16 124 1 87-7 115-27 95z"/><path d="m2480 15066c-67-14-80-22-80-47 0-22 29-26 63-8 11 7 81 16 155 21 129 8 172 18 172 38 0 14-243 11-310-4z"/><path d="m12862 15058c-16-16-15-146 1-178 7-14 20-26 30-28 15-3 17 7 17 95 0 91-8 123-30 123-3 0-11-5-18-12z"/><path d="m11935 15001c-41-25-135-126-135-145 0-31 29-15 92 50 35 36 67 72 71 80 15 27 2 34-28 15z"/><path d="m14707 14703c-13-12-7-144 7-178 27-63 37-42 31 68-3 56-5 105-5 110 0 9-24 9-33 0z"/><path d="m3523 14663c-16-6-17-43-1-43 6 0 19-7 29-16 20-18 49-13 49 9 0 35-44 64-77 50z"/><path d="m12836 14654c-3-9-6-73-6-143 0-98 3-132 15-147 15-19 15-19 30 0 12 15 15 49 15 147 0 140-4 159-30 159-10 0-21-7-24-16z"/><path d="m11448 14508c-64-40-86-68-54-68 20 0 107 61 124 88 21 32 6 28-70-20z"/><path d="m845 14450c-4-7-3-16 2-21 8-8 243-11 2513-28 728-6 1299-15 1375-21 73-6 487-13 948-16 804-5 817-4 817 15s-17 19-797 25c-510 3-821 9-863 16-43 7-495 14-1320 21-690 5-1573 12-1961 15-532 4-709 3-714-6z"/><path d="m18035 14209c-4-5-2-22 3-37 6-15 22-88 37-162 47-243 97-345 167-338 43 4 80 54 187 255 144 269 145 273 132 286-21 21-44-6-104-119-132-247-179-330-197-354s-19-24-38-7c-30 27-58 116-96 299-18 91-37 171-40 177-9 14-43 14-51 0z"/><path d="m10496 13968c-51-46-66-94-66-204 0-124 18-192 61-228 45-38 91-35 122 7 36 48 46 91 49 212 2 127-9 173-53 210-38 31-80 32-113 3zm96-68c32-63 20-267-18-325-13-20-19-23-36-14-35 19-48 70-48 193 0 107 4 128 33 174 15 23 51 9 69-28z"/><path d="m15285 13766c-17-26-23-43-61-186-14-52-28-99-31-104s-16 27-29 70c-34 120-41 134-64 134-29 0-33-20-14-65 8-21 28-88 44-149 27-109 28-111 56-111s29 3 62 115c18 63 46 157 62 208 17 52 27 98 24 103-10 16-33 9-49-15z"/><path d="m13006 13687c-14-11-21-39-58-227-6-30-13-68-17-84l-7-28-16 33c-44 90-117 256-120 274-4 26-51 28-56 2-2-10 19-66 46-125 28-59 62-134 76-167 15-33 34-67 43-77 16-18 58-24 67-10 2 4 16 66 30 137 44 222 47 235 56 240 12 7 2 32-15 39-7 2-20-1-29-7z"/><path d="m14760 13653c-14-2-39-14-55-27-26-21-29-27-20-52 14-38 60-42 60-6 0 30 20 42 72 42 71 0 66-47-16-169-64-94-61-108 32-130 90-21 147-11 147 26 0 9-15 13-47 13-27 0-64 3-84 6l-37 6 40 60c50 75 68 118 68 162 0 62-54 86-160 69z"/><path d="m15355 13442c-54-34-85-91-61-115 8-7 17-29 21-48s18-51 31-71c20-31 30-38 58-38 58 0 96 69 96 173 0 54-4 68-25 91-29 31-76 35-120 8zm91-113c-6-58-23-109-37-109-15 0-39 44-39 72 0 14-7 34-15 42-20 20-6 50 33 70 24 13 29 12 46-2 15-14 17-26 12-73z"/><path d="m13133 13363c-28-36-28-38-25-166 3-165 18-197 87-197 76 0 110 60 110 195 0 109-24 167-80 191-50 21-61 18-92-23zm74-21c58-37 57-273-1-295-30-12-36 17-48 220-1 31 18 83 31 83 3 0 11-4 18-8z"/><path d="m1997 13014c-16-17-4-34 40-55 65-32 167-135 198-200 78-169 71-358-20-565-27-61-126-167-172-185-27-10-27-11-9-25 59-42 195 89 255 246 40 104 65 240 57 315-8 76-40 194-68 248-53 104-246 256-281 221z"/><path d="m2694 12915c-20-30-15-60 27-194 36-115 54-278 46-441-6-140-23-223-86-422-77-241-76-253 15-250 40 2 46-1 55-25 21-52 23-263 4-457-9-102-16-217-13-255 3-61 7-74 33-102 34-35 95-69 124-69 39 0 31 20-23 55-91 58-92 61-76 244 19 220 24 518 10 571-16 60-52 93-96 88-23-3-34 0-34 9 0 7 15 62 34 121 100 311 111 382 103 634-4 135-10 189-27 248-49 171-58 205-53 210 2 3 17-11 33-30 23-28 31-33 42-22 25 25-45 112-91 112-6 0-18-11-27-25z"/><path d="m4332 12768c-6-6-12-18-12-25s-9-32-20-56c-11-23-42-97-69-165-47-116-123-252-142-252-14 0-44 38-68 85-23 46-94 272-106 339-8 41-27 55-49 37-17-14-13-34 43-219 44-147 73-211 113-254 23-25 33-29 70-26 41 3 45 6 94 80 29 42 70 123 92 180 23 57 55 135 72 173s30 78 28 89c-4 24-28 32-46 14z"/><path d="m6203 12731c-22-16-50-43-62-60-57-79-114-240-159-443-15-73-15-79 0-95 26-25 44-3 52 61 10 86 20 106 56 106 46 0 97-31 172-104 75-72 108-85 177-66 46 12 94 51 72 58-7 2-32-1-56-7-75-19-88-15-151 47-32 32-71 66-87 77l-27 20 47 35c102 77 133 145 122 275-4 60-11 80-29 100-32 34-76 33-127-4zm102-130c0-83-2-92-30-132-40-57-117-109-161-109-19 0-34 2-34 5s11 43 24 89c34 114 65 174 121 225 44 40 48 42 64 27 12-13 16-36 16-105z"/><path d="m6738 12709c-10-5-18-19-18-31 0-17 4-19 28-13 15 4 195 10 400 12 359 4 372 5 372 24 0 18-12 19-382 19-242 0-389-4-400-11z"/><path d="m6976 12518c-25-79-55-180-67-226-21-76-21-84-6-99 23-23 43-4 51 49 4 22 21 87 38 142 84 278 84 276 48 276-15 0-27-28-64-142z"/><path d="m1800 12604c-19-22-123-100-160-119-17-9-30-22-27-28 7-22 52-18 90 7 20 14 37 22 37 18s-9-39-20-77-20-87-20-107v-37l-67-3c-65-3-68-4-68-28v-25l217 1c185 0 220 3 242 18 14 9 26 23 26 32 0 16-36 14-159-7-30-5-71-9-92-9-33 0-38 3-44 30-11 50 49 257 87 297 11 12 18 29 15 37-8 20-41 20-57 0z"/><path d="m5546 12594c-21-20-12-34 23-34 31 0 71-36 71-64 0-25-26-72-84-151l-51-69-7 53c-10 83-61 138-136 148-37 5-42 3-42-13 0-14 12-24 42-34 58-21 79-54 85-136 5-66 15-94 34-94 32 0 162 159 200 245 22 49 19 74-13 115-38 48-93 64-122 34z"/><path d="m3345 12551c-48-12-90-37-123-75-28-33-31-40-26-88 7-74 24-147 35-154 6-3 7-13 5-22-3-10-10-59-16-111-9-80-8-97 4-109 21-22 46 1 46 42 0 17 7 88 16 157l17 125 36-19c74-38 271 9 315 75 44 68 17 139-64 170-47 18-187 23-245 9zm232-58c36-16 48-42 39-79-15-57-193-106-249-69-15 9-33 15-41 12-19-7-10 65 13 113 17 34 20 35 87 40 79 7 106 4 151-17zm-316-103-9-45-1 46c-1 25 2 49 6 53 12 12 13-6 4-54z"/><path d="m4560 12440c0-19 7-20 178-20 99 0 184 5 192 10 33 22-18 30-192 30-171 0-178-1-178-20z"/><path d="m4690 12334c-62-11-70-15-70-34s5-20 108-14c122 6 241 20 250 28 15 15-20 21-136 23-70 0-138-1-152-3z"/><path d="m7051 11618c-62-42-152-234-205-437-33-125-34-249-2-314 40-81 127-140 198-135 51 4 61 24 16 33-129 28-197 129-185 273 14 163 154 514 219 548 18 9 28 22 26 32-5 25-30 25-67 0z"/><path d="m4964 11549c-9-18-20-66-24-108-16-133-34-457-27-474 4-10 17-17 31-17 19 0 29 11 49 53 14 28 32 61 41 72 15 19 15 19 10-10-14-74 71-112 230-102 105 7 146 19 165 48 12 21 11 21-26 15-21-3-86-9-145-12-116-7-168 4-168 35 0 26 41 76 122 149 40 36 73 73 73 81 0 27-43 24-108-7-79-37-139-85-182-147l-35-49v67c0 101 30 358 46 388 10 20 10 29 1 38-19 19-36 12-53-20z"/><path d="m6012 11492c-11-11-54-86-96-168-103-198-167-304-183-304-32 0-69 148-79 314-7 131-10 146-33 146-36 0-40-63-16-231 31-211 62-279 129-279 51 0 77 37 221 315 43 83 89 162 103 177 13 14 21 31 18 37-11 17-44 13-64-7z"/><path d="m16104 11383c-9-21-22-54-29-73-8-19-34-84-58-145-46-112-49-135-16-135 12 0 29 20 51 63l33 62 90 5c74 4 101 11 150 35 33 17 63 32 67 33 5 2 8-19 8-46 0-80 46-110 184-120 169-12 180-10 289 46 4 2 7-6 7-18s13-35 29-51c23-22 39-29 70-29 63 0 62 29-2 45-37 10-49 35-45 102 4 77-10 80-64 14-25-30-39-26-22 7 45 87-30 148-129 104-52-23-106-97-107-146 0-29 0-29-56-23-30 3-67 13-81 22-23 15-25 22-21 65 3 26 15 67 27 90 39 75 9 94-51 31-21-21-71-55-112-76-62-31-89-39-151-43-41-2-75-2-75 1 0 2 17 47 39 98 21 51 36 99 34 106-10 27-43 13-59-24zm701-143c3-5-1-25-10-44-23-49-136-102-135-63 1 22 48 90 72 104 28 15 65 17 73 3z"/><path d="m3462 11339c-23-12-49-33-56-48-18-35-62-182-77-256-6-33-29-122-51-198-24-84-40-162-41-200-2-60-1-62 23-62 23 0 25 4 31 65 3 36 22 121 42 190 19 69 41 150 47 181l11 56 57-1c73-1 171 29 216 66 54 44 50 104-13 171-56 61-116 72-189 36zm137-54c36-31 58-89 42-109-23-28-115-59-169-58-30 0-56 3-59 6-13 13 39 146 64 166 36 28 85 26 122-5z"/><path d="m8048 11339c-40-23-9-61 31-39 48 25 141-31 141-85 0-30-54-77-140-120-66-33-94-66-73-85 8-8 57-14 208-26 71-5 110 5 90 25-6 6-53 15-105 21-52 7-96 13-98 15-2 1 21 16 50 33 62 35 128 103 128 133 0 44-46 103-99 125-39 16-108 18-133 3z"/><path d="m7445 11328c-11-6-45-32-75-58s-81-62-112-79c-57-32-72-56-43-67 15-6 113 44 148 74 24 21 21 5-13-81-16-42-30-90-30-107 0-27 3-31 22-28 14 2 25 13 30 33 21 69 83 223 106 258 34 56 18 83-33 55z"/><path d="m12017 11322c-12-13-19-47-24-118l-8-99-50-24c-27-13-74-26-102-29-53-4-53-4-53 27 0 56-62 53-68-3-5-43-53-66-140-66-83 0-95 11-72 64 21 47 19 120-4 145-29 32-78 28-122-11-39-35-73-98-74-135 0-16-6-23-20-23-37 0-149 32-161 46-15 18-2 86 20 111 26 28 43 62 36 73-9 15-51 12-65-5-7-8-20-30-29-48-19-37-131-107-173-107-36 0-43 27-28 102 11 52 11 61-3 75-22 23-41 11-55-33-20-67-112-180-181-225-54-35-69-36-73-6s-44 36-53 8c-11-36 4-60 44-72 33-10 43-8 82 11 54 28 105 71 142 122l29 38 22-32c36-55 80-51 219 20 4 2 7-7 7-20 0-31 33-66 68-74 15-3 43-11 62-17s83-11 143-12c59 0 107-4 107-8 0-18 73-37 140-37 68 0 138 22 154 49 4 6 19 6 39 0 52-15 87-10 167 21 60 24 76 27 82 16 11-19 124-60 145-51 16 6 14 9-12 31-16 13-39 27-50 30-11 4-28 13-37 22-17 14-16 16 7 44 27 31 45 86 45 133-1 61-68 105-103 67zm45-103-10-44-1 55c-1 39 2 51 10 43 7-7 8-24 1-54zm-606-56c-4-16-10-41-13-56-5-28-45-57-78-57-19 0-19 11 0 58 20 47 53 82 78 82 16 0 18-5 13-27z"/><path d="m9962 11289c-18-5-51-30-74-54-33-34-47-43-64-39-31 8-50-32-118-247-30-96-66-205-80-244-33-89-33-105-1-105 35 0 69 64 128 239 66 199 114 297 174 360 27 28 56 51 65 51 24 0 49-35 55-77 8-61-25-93-102-102-62-6-78-23-43-45 21-13 123 6 147 29 15 13 19 12 35-15 9-17 28-33 42-36 47-12 151 2 188 26l36 22v-50c0-52 17-79 45-68 17 6 19 55 6 124-6 32-5 54 6 82 21 53 11 88-32 106-48 20-91 18-115-6-30-30-25-49 25-95l46-42-40-27c-49-34-128-40-159-13-10 9-26 17-36 17-13 0-15 4-6 19 15 29 12 108-6 142-12 24-70 63-86 58-2 0-18-5-36-10zm396-91c5-7 7-21 3-30-6-16-9-15-34 7-15 14-27 28-27 30 0 11 48 4 58-7z"/><path d="m13045 11279c-49-10-109-18-132-18-23-1-49-4-58-7-21-8-46-59-39-78 10-25 42-19 56 12 12 25 19 27 98 35 47 4 100 12 118 17 30 8 33 7 26-8-4-9-10-42-12-73-3-52-2-57 24-74 40-26 202-33 263-12 43 15 45 15 73-8 36-31 82-40 184-39 58 1 91 7 115 20l34 19-130 6c-121 5-181 19-173 41 2 3 26 22 53 41 86 59 108 128 45 142-53 12-135-54-160-129-14-44-49-56-163-56-92 0-117 10-117 48 0 31 33 90 55 98 8 4 15 15 15 25 0 16-7 19-42 18-24-1-83-9-133-20zm496-70c-45-37-56-26-13 13 19 16 37 26 40 23 4-4-8-20-27-36z"/><path d="m14178 11288c-48-13-107-64-154-135-49-74-118-250-143-366-11-51-27-108-36-127l-15-35 6 50c9 78 54 315 69 365 22 76 63 159 90 182 48 42 18 76-34 39-35-25-91-137-114-231-46-183-77-401-63-454 5-19 13-26 30-26 49 0 82 61 117 213 31 136 99 320 99 268 0-11 14-13 65-8 173 16 249 86 216 198-8 27-23 46-44 59-35 22-36 22-89 8zm56-44c8-3 20-21 26-40 15-45-3-81-53-107-43-22-167-36-167-19 0 22 96 136 130 154 38 20 42 21 64 12z"/><path d="m17295 11280c-27-11-66-19-86-20-60 0-129-73-114-121 10-30 61-23 58 8-3 30 50 73 90 73 18 0 43 3 56 7 24 6 24 6-6-38-61-88-68-167-20-203 24-18 42-21 115-20 51 0 97 6 111 13 45 25 141 32 200 14 64-18 190-12 248 12 20 8 37 15 38 15 2 0 3-21 2-47-2-39 1-48 16-51 26-5 52 21 108 106 40 61 49 69 54 52 4-12 25-33 47-48 34-22 53-27 104-27 55 0 64-3 73-22 23-51 127-74 215-49 61 18 127 69 152 117 42 83-11 187-115 224-109 38-169 5-221-122-17-43-39-84-48-90-28-23-97-16-131 13-27 22-31 32-31 74 0 27-3 55-6 64-8 20-50 21-58 1-3-8-12-15-21-15s-42-27-74-59c-78-79-125-102-222-108-42-3-89-3-103 1-24 6-25 8-12 29 8 12 22 55 31 95 15 66 15 75 1 97-23 35-77 50-114 31-66-34-143-149-146-219-2-32-7-42-27-49-30-12-145-6-159 8-21 21 9 98 66 174 30 40 53 79 50 86-7 19-61 16-121-6zm389-36c24-9 19-54-10-97-27-40-98-97-121-97-36 0 5 94 74 168 34 35 34 35 57 26zm953-21c19-9 46-33 60-54 32-49 25-87-27-139-54-54-130-73-198-49-44 15-49 42-18 88 14 20 26 49 26 65 0 33 24 81 47 95 27 15 71 13 110-6z"/><path d="m9355 11268c-13-40-53-177-59-199-4-18-1-31 9-39 13-11 24-4 69 41 29 30 72 64 95 77l41 23v-61c0-79 26-110 92-110 46 0 88 22 88 45 0 10-13 12-59 8l-58-6-5 72c-3 39-11 78-19 87-17 21-58 12-120-26-53-32-57-28-35 35 15 42 7 65-21 65-7 0-15-6-18-12z"/><path d="m14605 11241c-64-30-91-60-102-112-6-30-6-31-62-27-52 3-56 1-59-19-3-22 0-23 66-23 45 0 81-6 103-17 24-12 60-17 124-17 110 0 175 22 266 94l63 48 16-46c9-26 27-66 39-90s24-70 27-105l5-62-42-30c-68-46-173-150-215-210-30-45-38-65-38-104-1-64 14-81 73-81 88 0 194 67 235 149 23 45 46 157 46 223 0 30 6 37 54 66 51 30 116 95 116 115 0 8-61-23-141-71l-36-22-6 52c-3 29-19 82-36 118s-31 81-31 102c0 48-16 88-35 88-8 0-46-29-85-64-88-81-163-119-247-124-91-6-109 4-53 29 88 39 132 109 94 150-24 27-69 24-139-10zm95-34c0-24-57-63-117-81-53-17-12 43 52 77 37 20 65 21 65 4zm382-511c-6-36-21-81-36-104-28-44-117-102-163-105-25-2-28 2-31 31-5 51 58 136 168 228 75 63 79 60 62-50z"/><path d="m19183 11253c-23-9-15-43 9-43 30 0 99-43 125-78 59-80 85-249 60-387-29-159-166-486-252-600-47-62-55-85-31-85 39 0 126 114 182 237 59 131 135 343 150 418 12 57 15 108 11 185-9 177-64 286-171 336-52 24-62 26-83 17z"/><path d="m4090 11207c-19-7-35-19-35-27 0-16-7-16 240-1 88 5 110 9 110 21 0 13-23 15-140 17-89 1-153-2-175-10z"/><path d="m8745 11175c-5-2-22-6-37-9-20-5-28-13-28-27 0-19 4-21 38-16 20 4 101 10 179 13 145 7 181 15 153 34-13 9-280 13-305 5z"/><path d="m7685 11150c-146-28-171-38-147-62 10-10 30-9 96 5 46 9 96 17 110 17 34 0 89 28 81 40-7 11-81 11-140 0z"/><path d="m4205 11093c-11-2-30-6-42-9-23-4-31-28-15-38 10-6 242 11 282 20 24 5 24 6 6 20-14 10-47 14-115 13-53-1-105-3-116-6z"/><path d="m15376 10698c-11-57-26-285-20-301 10-27 43-20 86 19l40 36 25-24c22-21 33-23 126-23 102 0 102 0 129-31 49-56 150-69 234-30 49 23 85 69 84 108-2 56-154 107-241 80-19-6-46-13-61-16s-30-15-33-27c-11-33-60-48-134-40-36 3-66 11-68 17-4 12 33 53 62 70 23 13 14 44-12 44-10 0-51-25-91-55s-78-55-84-55c-7 0-8 17-4 48 16 123 18 152 12 176-8 33-44 36-50 4zm610-223c45-19 43-50-6-83-29-20-44-23-93-20-65 5-106 30-68 43 24 7 26 16 9 34-36 35 87 56 158 26z"/><path d="m17042 10560c-39-24-67-78-58-113 7-29 52-47 116-47 35 0 35 0 34-52v-53l-91-32c-92-32-205-100-223-133-33-62 11-128 103-155 91-27 233-10 275 32 24 24 24 29 18 111-3 48-9 101-12 119-6 30-3 33 42 56 50 25 92 63 82 73-3 3-34-6-69-20-34-15-64-26-66-26s-3 18-3 41c0 29 7 50 25 71 30 36 32 54 5 70-11 7-20 23-20 35s-9 27-19 33c-32 17-103 12-139-10zm108-35c0-3-7-21-14-40-14-32-19-35-55-35-34 0-41 3-41 20 0 32 36 60 75 60 19 0 35-2 35-5zm11-371c9-60 9-91 2-103-27-43-180-53-255-17-64 31-59 61 21 120 45 33 163 83 202 85 14 1 19-16 30-85z"/><path d="m16756 10540c-21-19-41-50-51-79-20-62-55-259-56-320 0-41-1-43-11-21-14 35-2 188 22 284 11 43 20 85 20 92 0 21-38 17-49-5-21-39-51-203-52-283-1-100 17-157 55-178 25-14 28-14 45 7 12 14 20 47 25 100 4 43 11 106 17 139l11 61 74 5c104 7 129 26 129 98-1 48-4 55-43 91-52 49-87 51-136 9zm98-42c13-13 27-37 31-55 8-39-7-49-87-55l-57-5 6 31c10 54 44 106 69 106 7 0 24-10 38-22z"/><path d="m16282 10523c-24-10-82-96-82-123 0-51 61-89 158-97 112-9 181 22 197 90 7 24 1 34-37 71-30 29-60 47-91 54-46 12-121 15-145 5zm108-44c94-21 139-87 80-116-34-17-133-16-176 2-29 12-33 17-25 32 5 10 12 31 16 46 3 16 15 32 28 37 28 11 24 11 77-1z"/><path d="m17432 10517c-33-40-57-129-53-199 2-42 125-48 202-10l42 21 29-24c63-53 181-58 265-11 25 14 47 26 48 26s-2-21-6-47c-7-37-6-50 5-62 21-21 45 1 52 50l7 39h96c62 1 105 6 121 14 23 13 26 12 42-16 20-32 71-58 115-58 15 0 37-7 47-15 35-26 118-13 161 26 19 17 23 17 65 3 44-16 126-15 177 1 20 7 22 5 16-27-6-43 17-57 53-33 19 12 24 24 24 55 0 27 7 45 21 59 31 29 18 53-27 49-30-3-40 2-61 30l-26 32h111c101 0 113 2 138 23 14 13 25 30 23 40-4 15-7 15-46-3-37-16-55-18-151-11-69 5-120 15-141 26-30 15-35 15-49 2-13-14-7-24 57-93 39-43 70-83 68-88-5-15-44-24-107-25-71-1-80 6-77 55 2 33-1 39-19 42-17 2-27-7-44-43-22-46-45-67-88-80-18-5-11 5 27 42 70 67 69 110 0 128-55 14-129-54-129-117 0-23-4-28-26-28-54 0-66 16-62 83 3 56 1 62-17 62-11 0-24-10-30-22-14-32-95-73-143-73-104 0-119 17-82 90 29 57 27 82-7 78-24-3-31-12-53-68-25-62-29-66-89-97-72-37-151-44-201-18-35 18-41 40-22 82 18 39 10 66-20 61-20-3-32-19-58-78-11-25-91-60-138-60h-45l6 41c3 23 17 63 30 89 18 35 22 51 14 59-15 15-32 14-45-2zm1108-139c0-13-49-68-62-68-11 0 2 32 25 58 23 24 37 28 37 10z"/><path d="m10415 10291c-22-10-49-28-59-40-27-30-76-171-95-276l-16-90-90-5c-71-4-90-8-90-20s18-16 88-18l87-3v-40c0-26 5-42 15-45 22-9 45 14 45 45v27l195-4c197-5 558 12 598 28 22 8 22 8 2 16-11 5-66 9-122 8l-101-1 18 26c61 88 10 136-145 136-77 0-155-28-155-57 0-16 5-19 24-14 23 6 24 3 28-47 2-28 4-52 4-53-1-1-75 1-166 4l-166 4 8 72c4 39 7 76 7 82 1 7 39 13 104 16 159 8 267 52 267 108 0 26-32 90-57 112-53 48-157 62-228 29zm129-32c70-19 120-97 84-127-38-31-278-64-278-39 0 23 30 110 42 125 13 15 85 51 103 52 6 0 28-5 49-11zm295-280c35-13 34-10 21-43-20-54-119-86-154-50-9 8-16 28-16 44s-3 35-6 44c-5 14 4 16 58 16 36 0 79-5 97-11z"/><path d="m5057 10253c-3-5-8-24-12-43-11-54-51-189-74-250-30-82-41-136-28-149 19-19 35-12 66 31 24 33 31 37 31 22 0-27 25-48 75-64 22-7 64-21 93-32 54-18 122-24 122-10 0 18-27 31-126 63-57 19-104 39-104 46 0 20 86 85 168 128 57 30 77 45 77 60 0 17-6 20-37 18-44-3-152-47-223-91-27-17-51-29-53-28-2 2 6 32 17 67 36 112 59 212 54 225-5 15-39 19-46 7z"/><path d="m5986 10198c-13-24-34-66-45-95-25-63-92-196-120-237l-20-30-11 30c-6 16-23 75-36 132-33 138-55 182-94 182-37 0-48-18-23-39 29-23 37-43 67-166 15-60 34-124 43-142 20-42 55-53 91-26 28 21 108 163 148 265 16 41 31 65 39 62 20-8 36 23 33 63-2 30-7 39-25 41-16 2-27-7-47-40z"/><path d="m8582 10207c-7-8-7-18-2-27 28-44-3-300-53-448-19-58-20-64-4-79 21-22 40-6 55 46 7 21 30 58 52 82l41 44-6-32c-4-17-1-42 5-53 29-54 280-118 280-72 0 11-71 38-124 47-61 10-106 36-106 60 0 37 29 63 126 110 93 46 117 66 97 86-22 22-223-44-285-93-44-33-43-36-24 93 14 92 10 208-7 237-10 16-32 15-45-1z"/><path d="m3516 10100c-31-28-100-153-121-220-4-14-14-33-22-42-10-11-13-26-9-40 5-22 0-51-44-233-27-109-27-155 0-155 26 0 31 13 65 185 16 77 34 154 41 171 13 31 14 31 104 37 106 7 154 26 188 77 20 30 23 44 19 92-9 101-62 158-146 158-31 0-49-7-75-30zm134-42c25-27 44-92 35-125-9-38-52-71-98-77-120-15-137-14-137 4 0 23 63 159 90 193 28 35 80 37 110 5z"/><path d="m7503 10044c-3-9 7-28 28-50 35-37 185-134 253-165l39-17-59-17c-109-32-204-81-204-106 0-16 51-10 84 10 17 10 72 31 121 46 154 46 165 69 61 118-83 40-227 131-260 166-33 34-53 39-63 15z"/><path d="m4080 9922c0-34 44-43 205-40 125 3 150 5 150 18 0 12-23 16-122 21-67 4-147 10-177 13-51 7-56 6-56-12z"/><path d="m6920 9923c0-19 9-21 203-28 335-12 342-12 342 5 0 23-56 30-307 37-234 6-238 6-238-14z"/><path d="m9245 9850c-3-5-3-14 0-20 7-12 310-13 340-1 19 8 19 8-2 19-27 15-329 16-338 2z"/><path d="m4230 9814c-63-11-70-15-70-34 0-23 10-24 120-10 105 14 133 21 123 31s-137 20-173 13z"/><path d="m7042 9803c3-17 21-18 223-18 189 0 220 2 220 15s-33 15-223 18c-209 2-223 1-220-15z"/><path d="m6051 9756c-44-16-76-53-60-72s37-17 48 5c13 23 91 44 137 35s58-32 36-75c-15-30-22-34-60-37-56-4-75 10-60 44 13 28 1 48-24 39-16-6-38-46-38-69 0-26 47-57 98-63 67-8 114 20 137 81 21 54 13 81-28 107-37 22-131 25-186 5z"/><path d="m9404 9750c-74-11-124-29-124-46 0-22 26-28 62-14 18 6 92 15 164 20s142 14 155 19l24 9-28 11c-31 12-173 13-253 1z"/><path d="m10666 9629c-33-26-123-145-170-226-37-63-60-78-69-45-3 9-10 55-17 102-24 177-24 175-45 175-19 0-20-6-17-79 4-103 27-224 48-247s62-24 91-4c11 8 33 36 48 62 47 80 126 186 168 224 40 36 43 59 8 59-10 0-30-9-45-21z"/><path d="m3607 9609c-60-9-117-50-117-85 0-14 6-24 14-24 11 0 15-11 13-40-3-77 67-117 146-82 87 39 139 170 82 208-35 23-83 31-138 23zm88-51c34-15 32-38-8-90-38-49-77-68-101-48-21 16-20 59 0 88 9 13 13 29 10 37-9 23 57 32 99 13z"/><path d="m10719 9355c-68-22-153-122-106-126 6-1 17-2 23-3 6 0 19-10 29-20 27-27 94-56 130-56 42 0 94 34 110 74 38 91-70 167-186 131zm112-52c48-29 35-90-22-108-14-5-41 3-79 23-42 21-61 27-69 19-7-7-11-7-11-1 0 14 39 49 75 68 39 21 70 20 106-1z"/><path d="m2775 8478c-2-7-11-59-19-116-23-149-85-372-110-398-8-8-13-21-10-29 10-26 44-16 82 24 36 37 125 111 134 111 2 0 2-16 0-35-8-70 60-122 171-131 106-9 121 31 16 43-30 3-71 14-91 25-35 17-38 21-38 63 0 45 0 45 68 79 37 19 92 57 121 85 47 43 52 52 41 66-29 35-119-5-278-124-75-56-122-85-118-74 42 147 91 396 81 413-9 14-45 13-50-2zm230-308c-3-5-11-10-16-10-6 0-7 5-4 10 3 6 11 10 16 10 6 0 7-4 4-10z"/><path d="m3663 8468c-40-42-89-188-107-318-9-58-47-202-53-196-15 15-34 146-44 301-11 191-20 223-55 194-13-11-15-24-10-69 3-30 10-116 15-192 14-195 45-308 87-308 41 0 79 79 105 220 36 200 84 343 111 338 8-2 13 7 13 22 0 34-34 38-62 8z"/><path d="m4791 8383c-48-24-70-59-161-258-45-99-88-188-96-199-12-17-13-15-23 20-18 70-30 157-36 276-7 127-20 157-52 125-14-14-14-28-4-129 33-311 47-358 106-358 36 0 63 44 154 245 72 158 88 186 132 227 46 42 49 47 32 56-14 8-28 6-52-5z"/><path d="m6525 8300c-163-35-177-56-196-295-5-66-10-131-12-145-2-21 2-25 23-25 22 0 26 6 38 60 7 32 14 61 16 62 8 9 149-39 196-66 91-52 100-56 118-45 27 17 24 29-10 45-18 9-63 32-101 52-37 19-92 41-122 47s-55 17-55 23c0 7 55 40 123 73 179 90 280 179 247 219-17 21-160 19-265-5zm198-34c-15-27-99-84-192-130-51-26-94-46-95-44-2 2 8 37 21 79l23 76 83 12c45 6 98 13 117 15 19 1 39 4 43 4 4 1 4-4 0-12z"/><path d="m6980 8280c0-17 7-20 47-20 26 0 84-5 128-12l82-12-34-100c-56-170-63-185-78-180-9 4-17-7-24-33-15-51-14-78 3-92 35-29 55 7 132 235 25 76 51 148 56 158 10 18 19 19 144 13 114-5 134-4 134 9 0 25-38 31-285 43-317 15-305 15-305-9z"/><path d="m6019 8181c-23-19-23-21-7-37 13-14 20-15 31-5 12 9 21 6 46-15 35-29 38-50 14-102-23-51-59-92-107-124-48-33-56-34-56-10 0 16-29 108-59 189-13 32-35 48-53 37-12-8-8-29 26-120 15-40 30-91 34-115 6-36 13-46 35-53 56-20 171 63 217 155 47 92 37 160-28 193-52 26-68 27-93 7z"/><path d="m5100 8042c0-33 69-53 200-59 92-5 128-2 175 11 84 25 56 34-104 35-75 1-154 6-176 12-85 23-95 23-95 1z"/><path d="m3941 7958c-14-37 4-58 49-58 29 0 42 5 50 19 13 25 13 27-6 45-8 9-31 16-50 16-27 0-37-5-43-22z"/><path d="m5286 7950c-71-13-107-30-104-49 4-18 31-19 98-1 30 8 84 10 162 5 128-7 158 4 81 29-61 20-173 27-237 16z"/><path d="m2915 7115c-18-17-25-35-25-63 0-41-12-115-35-222-24-113-25-127-10-140 12-10 18-10 30 0 17 14 45 106 45 152 0 18 4 38 8 44s46 13 94 16c76 4 92 8 114 29 23 21 25 30 21 72-3 32-12 56-28 73-61 66-169 85-214 39zm124-34c46-24 59-39 67-78 8-40-7-49-91-58l-70-7-2 44c-2 69 6 106 25 111 29 8 32 7 71-12z"/><path d="m7156 7024c-8-22 11-53 37-59 12-2 126-7 252-10 127-2 252-6 279-7 31-2 51 1 53 9 10 29-44 37-301 43-225 6-260 9-268 23-11 21-44 22-52 1z"/><path d="m4325 7010c-11-17 3-25 67-39 72-16 124-61 107-93-6-11-31-32-56-46-69-41-107-77-100-94 10-29 276-59 285-33 6 15-64 36-135 42-35 3-63 8-63 12 1 3 25 21 55 40 76 48 94 95 54 145-11 15-39 36-61 47-50 25-142 37-153 19z"/><path d="m6777 6926c-72-20-117-62-151-142-28-64-30-78-30-199-1-130-1-130 24-130 28 0 24-16 45 225 5 48 16 101 26 121 23 46 77 80 135 87 40 4 44 3 54-23 15-41-9-71-86-105-115-52-140-102-86-173 40-54 114-80 227-81 74-1 90 2 93 15 2 13-14 18-90 26-51 5-111 19-132 29-47 23-80 63-70 87 3 9 43 35 89 57 62 31 87 49 100 74 23 43 14 98-22 126-29 23-57 24-126 6z"/><path d="m7396 6872c-2-4-7-25-11-47s-18-83-32-135c-36-138-36-137-25-144 17-10 40 4 51 32 18 47 61 236 61 270 0 25-4 32-19 32-11 0-22-3-25-8z"/><path d="m3210 6834c-19-8-42-22-52-31s-28-21-41-27c-15-8-23-22-25-44-3-26 4-40 30-66 81-81 238-45 282 65 12 28 12 40 3 60-26 53-125 74-197 43zm138-46c19-16 14-41-16-77-23-28-36-34-80-39-62-5-102 15-102 52 0 20 12 30 62 56 63 31 104 33 136 8z"/><path d="m4126 6827c-8-12-28-54-45-92-63-151-118-255-134-255-10 0-24 62-37 155-18 135-27 165-50 165-27 0-31-12-21-67 5-26 15-84 21-128 21-138 38-175 86-175 42 0 80 49 138 180 31 69 65 142 76 162s20 46 20 57c0 29-35 27-54-2z"/><path d="m6140 6835c0-8 7-27 16-41 13-18 15-38 11-77-5-44-13-58-46-89-68-64-102-50-137 56-21 65-54 99-93 94-33-4-34-29-2-44 16-8 33-35 51-83 16-40 34-78 40-86 17-21 73-29 113-16 47 16 113 82 121 121 10 52 7 123-7 150-15 30-67 42-67 15z"/><path d="m5182 6703c3-16 19-18 188-18 158 0 185 2 185 15s-29 15-188 18c-176 2-188 1-185-15z"/><path d="m2760 6602c0-11 9-23 23-28 35-12 719-16 737-4 12 8 13 12 2 19-8 4-161 11-340 14-180 4-348 10-374 13-44 6-48 5-48-14z"/><path d="m5285 6593c-64-5-85-12-85-28 0-7 5-17 10-20 13-8 327 14 354 25 59 23-118 37-279 23z"/><path d="m2962 6488c-7-7-12-39-12-76 0-89 39-352 57-380 35-56 81-1 154 183 34 86 66 146 112 212 30 43 29 63-3 63-30 0-101-113-155-245-18-44-41-97-51-118l-19-39-12 64c-7 34-15 122-19 193-8 145-19 176-52 143z"/><path d="m3275 6238c-38-20-64-50-70-80-6-25-1-34 31-65 48-45 91-63 150-63 38 0 51 5 74 30 58 63 47 129-30 168-48 24-121 29-155 10zm143-54c25-16 30-60 10-86-28-35-94-26-152 20-18 13-21 23-15 39 18 49 100 63 157 27z"/><path d="m4949 5896c-9-10-484-28-934-37-242-4-491-11-552-15-105-6-113-8-113-26 0-20 4-21 148-14 81 3 372 10 647 15 275 6 574 16 665 23 246 19 2049 18 2215-1 73-9 303-17 590-22 481-8 704-18 810-39 33-6 96-16 140-21s114-14 155-20c41-5 115-12 164-15l88-6-5-77c-10-129-31-692-30-771 2-190 20-526 27-539 14-21 7-120-10-152-24-48-60-59-186-59-62 1-156 8-208 17-83 14-300 17-1655 25-1873 11-2239 12-2585 7-320-5-933 15-1012 32l-58 13v68c0 37 6 114 14 170 48 350 64 593 67 1000 2 197 0 361-4 364-11 11-34-14-41-44-4-15-10-223-15-462-8-368-14-469-36-655-35-296-45-385-45-416 0-40 29-68 85-80 113-25 786-37 1645-30 723 5 3450-16 3540-28 47-7 166-14 266-17 202-6 227 0 271 64 26 40 38 120 24 164-12 38-26 370-24 603 1 177 19 647 29 738 11 102 9 104-103 110-54 4-125 11-158 16s-103 14-155 20-113 16-135 21c-80 20-301 31-800 40-302 6-532 14-565 21-56 12-2150 26-2161 15z"/><path d="m6095 5684c-89-26-104-36-134-81-24-36-28-50-20-64 5-11 14-19 20-19 5 0 1-17-10-38-27-52-73-217-69-244 5-38 40-29 51 12 4 19 20 73 34 119 19 65 27 81 35 68 18-33 220-17 298 23 45 23 66 47 73 87 5 27 0 40-33 82s-46 51-90 60c-65 14-93 13-155-5zm196-75c64-76 3-126-173-141-55-4-104-11-109-14-14-8-11 2 21 73 17 36 29 73 28 81-4 22 66 41 141 38 59-2 65-5 92-37z"/><path d="m8344 5645c-10-24 6-37 37-30 20 5 43 0 74-15 92-44 111-110 49-164-98-84-126-115-122-138 3-25 17-30 145-48 82-12 147-8 158 10 7 11-42 24-159 41l-89 13 30 25c17 14 47 39 67 54 48 37 70 80 61 123-8 44-55 97-109 123-50 25-134 29-142 6z"/><path d="m8092 5292c-22-32-70-123-107-202-91-198-107-230-116-230-10 0-19 32-66 234-55 233-56 238-70 243-7 3-19 0-27-6-11-10-9-30 15-124 15-61 40-164 54-227 33-141 56-190 89-190 39 0 54 24 171 280 37 80 86 171 111 203 24 31 44 62 44 67 0 6-13 10-29 10-23 0-35-10-69-58z"/><path d="m6297 5260c-28-24-40-29-65-24-29 6-31 4-43-36-11-36-10-46 2-69 17-31 80-55 125-48 48 8 124 48 141 74 64 97-70 182-160 103zm108-23c30-23 13-61-40-86-77-36-138-21-128 32 4 19 10 23 31 20 18-3 39 5 61 21 40 30 50 31 76 13z"/><path d="m3456 5264c-12-33 12-39 165-43 148-3 151-4 145-25-29-106-61-209-94-305-42-116-44-144-10-139 14 2 28 30 59 118 39 112 49 141 90 283l20 67 57-1c56 0 182-20 213-33 18-8 41 15 31 30-16 25-59 35-172 41-66 3-120 10-120 15 0 12-38 10-46-3-7-12-209-6-295 7-29 5-37 2-43-12z"/><path d="m4460 5103c0-16 11-22 53-31 77-16 369-20 374-5 6 18-58 30-195 37-67 3-147 9-177 12-50 6-55 5-55-13z"/><path d="m7070 5069c-391-29-1312-40-1535-19-108 11-133 4-102-28 16-16 61-17 585-20 546-3 926 6 1156 28 121 11 138 17 111 37-20 14-53 14-215 2z"/><path d="m4500 5001c0-27 10-32 99-47 130-23 246-15 215 16-5 5-46 13-89 16-44 3-102 12-129 20-70 20-96 18-96-5z"/><path d="m6255 4851c-35-9-102-50-127-77-49-55-94-272-63-303 27-27 46 7 56 97 18 161 69 229 178 240 47 4 51 3 44-14-16-44-58-80-126-109-60-26-72-35-75-56-4-38 46-84 142-130 82-40 110-46 136-29 13 9 12 12-4 25-11 8-26 15-33 15-36 0-183 89-183 111 0 4 24 15 53 25 99 32 176 146 132 194-19 21-70 25-130 11z"/><path d="m5788 4829c-10-5-18-19-18-31 0-16 5-19 24-14 30 7 76-27 76-57 0-34-44-119-79-151l-31-29-18 44c-11 24-27 65-36 91-19 52-57 98-81 98-25 0-28-27-6-51 11-12 28-43 37-68 41-112 62-150 89-157 61-15 163 106 173 207 4 43 1 54-19 76-13 14-38 32-56 39-38 16-33 16-55 3z"/><path d="m6802 4707c-88-146-98-161-110-153-11 7-33 66-62 164-21 74-39 94-64 73-12-10-12-18-1-49 8-20 23-68 35-105 44-144 91-180 147-113 48 58 175 277 169 292-14 38-43 10-114-109z"/><path d="m6980 4568c-81-30-68-106 22-133 28-8 71-15 94-15 35 0 47 5 68 31 36 43 35 84-4 104-41 21-137 28-180 13zm145-52c47-34-39-61-114-35-31 11-41 33-18 42 26 11 114 6 132-7z"/><path d="m3815 3468c-2-7-22-69-44-137-23-68-41-134-41-147 0-34 17-38 35-10 24 37 104 276 98 292-6 17-42 18-48 2z"/><path d="m5171 3409c-79-24-158-100-147-142 3-11-8-66-25-122-16-56-32-129-35-162-6-51-4-61 11-66 26-11 32-2 39 55 11 82 48 212 56 197 6-8 32-10 97-7 127 7 180 40 190 116 6 42-11 84-44 114-24 22-97 31-142 17zm121-76c23-38 16-78-18-99-30-20-172-40-186-26-6 6-4 20 7 42 12 23 13 35 5 44-8 10-4 18 17 32 56 36 79 44 118 42 32-3 42-9 57-35z"/><path d="m6610 3382c-53-26-80-82-80-167 0-42-8-96-20-135-12-36-23-95-27-131l-6-66-391-7c-215-3-492-11-616-17s-301-14-395-17c-141-6-170-10-170-22 0-13 40-15 315-12 173 1 376 7 450 12s403 12 730 15 611 8 630 11c33 5 34 7 15 20-11 8-45 14-84 15-46 0-60 3-45 9 38 15 74 68 74 110 0 90-125 159-214 119-56-26-33-60 27-40 25 9 42 9 63 1 107-41 93-150-19-150-82 0-129 40-93 79 24 27 20 51-8 51-25 0-66-51-66-81 0-26 45-70 85-84 38-14 35-14-87-15h-126l13 28c7 15 15 76 18 136 4 60 10 113 15 118 4 4 46 13 93 19 50 6 100 19 124 32 34 19 40 28 43 60 4 46-16 80-61 107-42 26-138 27-187 2zm150-37c30-16 50-43 50-69 0-8-18-21-42-30-57-20-148-30-148-16 0 5-7 10-15 10-21 0-19 49 4 79 14 18 33 27 67 32 27 3 50 7 52 8 2 0 16-6 32-14z"/><path d="m7703 3338c-84-88-178-276-208-418-27-127-36-279-21-335 22-84 41-118 91-168 50-48 102-72 145-65 23 3 22 5-15 25-66 35-132 111-156 178-18 52-21 74-15 160 8 140 28 235 71 340 48 117 96 198 152 258 24 26 41 52 38 57-13 20-42 9-82-32z"/><path d="m2240 3345c-16-19 3-45 34-45s136-115 173-191c52-106 67-177 67-329 1-117-2-141-20-180-35-74-101-148-177-198-72-47-72-47-39-50 74-7 196 94 255 210 74 148 44 453-61 612-50 75-128 154-169 172s-48 17-63-1z"/><path d="m5810 3334c-6-14-10-42-10-62 0-57-9-64-96-71-61-5-79-9-79-21s16-16 76-18l75-3v-47c-1-65 23-64 45 2 18 54 33 64 92 65 25 1 37 6 37 15 0 17-22 26-66 26-33 0-34 1-33 38 0 20 4 46 8 57 11 27 3 45-20 45-12 0-23-10-29-26z"/><path d="m10275 3350c-4-6 23-41 58-78 104-108 134-188 144-382 5-99 3-126-16-194-28-102-87-215-151-289-66-77-67-88-6-63 66 28 163 180 204 321 29 100 35 167 23 270-23 188-54 263-150 363-57 58-92 75-106 52z"/><path d="m6118 3328c-28-7-38-15-38-30 0-18 5-19 58-14 127 15 154 9 165-34 8-30-30-78-108-136-133-100-144-109-149-122-4-8-4-18 0-23 3-5 76-9 163-9 120 0 161 3 170 13 6 8 8 17 4 20-3 4-62 7-131 7h-124l64 47c83 61 136 111 155 147 21 40 9 89-28 120-26 23-39 26-97 25-37-1-84-6-104-11z"/><path d="m3455 3226c-42-18-103-90-178-208-34-54-66-98-72-98-5 0-27-5-47-11-42-11-53-44-19-57 17-6 13-15-41-86-56-74-66-106-35-106 17 0 49 35 121 132 31 42 65 79 74 82 14 5 223 26 255 26 5 0 5-10 2-21-10-30-23-181-17-197 2-7 14-12 26-10 16 2 22 11 24 38 1 19 7 72 13 117 10 78 12 82 41 92 31 11 30 31-2 31-17 0-19 7-17 48 1 26 1 78-1 115-2 61-5 72-31 98-32 32-51 35-96 15zm65-62c6-14 10-67 10-119v-93l-47-6c-103-12-193-18-193-12 0 11 64 113 106 167 70 91 107 110 124 63z"/><path d="m8023 3150c-17-4-52-19-77-34-53-31-62-64-22-86 34-18 60-6 52 24-5 21 0 26 34 40 22 9 56 16 75 16 32 0 35-3 35-28 0-37-40-98-129-197-103-114-134-183-97-214 23-19 361 9 361 29 0 13-25 15-162 14l-162-1 15 29c8 15 49 67 90 115 131 151 156 204 129 270-13 31-17 33-62 32-26-1-62-4-80-9z"/><path d="m8396 3144c-10-26 64-378 87-415 13-22 50-25 65-6 6 7 27 59 46 117 52 148 95 238 129 264 17 13 27 29 23 35-9 14-41 14-67 1-24-14-76-116-125-250l-38-104-18 79c-9 44-25 118-33 165-24 130-24 130-44 130-10 0-22-7-25-16z"/><path d="m9991 3143c-14-9-50-71-86-148-66-137-113-220-152-268l-23-28-9 24c-5 13-12 44-15 68-38 297-47 332-81 298-13-13-13-25 0-99 7-47 19-129 26-182 14-116 34-158 79-158s105 84 201 280c45 91 90 172 102 181 12 10 18 23 14 33-8 20-26 20-56-1z"/><path d="m5275 3131c-41-17-45-32-46-145 0-45 23-61 86-61s99 26 116 86c15 50 5 85-30 104-37 19-100 27-126 16zm90-51c23-9 26-14 20-38-12-50-33-72-69-72-33 0-34 1-38 48-3 26 0 53 5 60 11 15 46 16 82 2z"/><path d="m2005 3093c-11-2-30-6-42-9-14-2-23-12-23-22 0-16 12-18 135-17 114 0 137-3 152-17 16-17 16-20-13-60-32-46-114-109-207-160-71-38-109-81-105-117 5-44 37-52 193-49 142 4 185 14 185 43 0 17-4 18-90 5-36-5-104-7-152-3-99 7-104 17-28 63 148 89 208 135 251 194 70 95 7 157-155 155-44-1-90-3-101-6z"/><path d="m3980 2940c0-18 7-20 78-20 67 0 185-16 275-36 21-5 27-3 27 10 0 40-107 65-282 66-91 0-98-1-98-20z"/><path d="m9112 2869c-51-10-62-16-62-35 0-13 13-19 35-14 6 1 73 6 150 11 137 9 164 16 151 38-8 13-209 13-274 0z"/><path d="m11105 2849c-16-25 19-29 221-27 178 3 209 5 209 18s-31 15-212 18c-147 2-214-1-218-9z"/><path d="m3968 2819c-6-4-8-14-5-23 6-15 27-16 179-14 146 3 173 5 173 18s-28 16-169 20c-92 3-173 2-178-1z"/><path d="m8745 2766c-42-19-96-82-88-104 15-43 53-80 97-92 54-15 84-9 124 25 37 31 49 83 28 123-24 46-109 71-161 48zm102-57c7-6 13-24 13-40 0-57-81-79-125-34-33 32-31 45 8 73 33 24 75 24 104 1z"/><path d="m10060 2751c-33-9-72-68-64-95 17-55 26-68 59-81 47-20 88-19 116 4 20 16 23 28 24 76 0 50-3 60-25 75-30 21-75 30-110 21zm75-54c14-11 16-21 11-50-6-32-10-37-36-37-31 0-60 22-60 46 0 48 45 69 85 41z"/><path d="m11230 2660c-7-4-10-15-7-23 4-11 39-16 162-22 98-4 161-3 167 3 16 16-49 33-147 38-49 3-106 6-126 8s-42 0-49-4z"/><path d="m5675 2590c-14-22 11-30 98-31 112-1 142-8 142-34 0-24-53-55-158-92-82-29-108-53-86-79 18-22 324-16 324 6 0 12-21 16-110 20-74 4-104 8-90 14 131 56 157 72 171 99 21 39 4 82-38 96-39 14-245 14-253 1z"/><path d="m5180 1380c0-17 7-20 39-20 27 0 49-7 67-23l27-24-36-27c-21-16-37-36-37-45 0-10 20-32 46-50 25-18 43-38 41-44-4-13-61-26-119-26-31-1-38-5-38-21 0-18 7-20 70-20 39 0 86 6 105 14 50 21 49 65-1 113l-36 34 26 26c36 35 33 65-9 102-31 27-43 31-90 31-48 0-55-2-55-20z"/><path d="m7119 1268c-47-48-181-226-254-335-48-73-65-88-65-57 0 25-59 263-71 285-5 11-11 36-12 57-2 32-5 37-27 37-35 0-37-29-7-128 14-45 33-118 42-162 43-204 76-223 165-90 96 143 211 295 263 348 32 34 56 66 53 74-10 25-46 13-87-29z"/><path d="m6117 1206c-52-19-60-27-102-111-58-116-86-236-92-397-5-126-4-138 12-144 23-9 48 7 57 37 3 13 14 95 22 181 33 322 68 398 183 398 30 0 63-5 73-10 21-11 44-81 36-108-10-31-63-52-153-63-91-11-110-19-98-39 6-9 32-11 94-7 144 8 211 49 211 129 0 94-55 148-150 148-30-1-72-7-93-14z"/><path d="m3985 1029c-4-6 0-18 8-26 15-16 30-17 412-38 101-6 142 2 119 25-6 6-102 17-215 25-112 8-229 17-261 20-37 4-59 2-63-6z"/><path d="m5127 1013c-17-16-4-33 31-42 20-5 110-12 200-15 135-5 162-4 162 8 0 22-25 27-175 37-77 4-156 11-176 14-20 2-39 2-42-2z"/><path d="m4020 846c0-8 5-18 12-22 49-31 348-56 412-34 21 7 34 16 29 20-4 4-80 13-168 19s-176 15-195 21c-51 15-90 13-90-4z"/><path d="m7195 836c-47-21-87-70-92-110-3-32 0-38 39-63 32-20 59-28 103-31 80-4 122 18 154 82 28 56 20 85-30 112-44 22-136 28-174 10zm140-48c14-6 25-17 25-24 0-44-54-94-102-94-34 1-108 37-108 53 0 8 16 29 35 46 28 25 45 31 80 31 24 0 56-5 70-12z"/><path d="m6336 833c-61-10-101-58-56-70 15-4 18-11 14-33-8-39 11-69 59-91 65-29 93-25 138 20 57 56 53 123-9 155-31 16-104 25-146 19zm103-54c26-9 31-16 31-42 0-60-53-85-106-51-17 12-24 24-22 42 2 20-3 27-22 32l-25 7 25 11c33 14 80 15 119 1z"/><path d="m5200 800c0-16 7-20 35-20 54 0 112-27 123-58 16-47-4-70-105-118-70-34-93-50-91-62 3-15 21-17 138-20 148-3 180 1 180 23 0 12-18 15-97 15h-98l53 30c71 41 92 83 72 143-19 54-78 87-157 87-46 0-53-3-53-20z"/></g><g fill="#44b" transform="matrix(.054411653 0 0 -.054411653 1650.54070053537 1943.18429191264)"><path d="m750 2973c-57-10-88-25-119-57-40-41-55-100-46-179 6-45 12-61 32-77 32-25 35-25 64-1 22 17 24 26 21 89-4 105 24 120 164 87 33-7 119-19 190-25 88-8 134-16 144-26 32-32 8-420-28-456-18-18-126-28-289-28-185 0-206-4-250-52-55-58-58-82-55-363 1-145 7-274 13-293 11-34 51-62 89-62 12 0 35 14 52 31l31 30-6 238c-3 130-3 249 0 264l5 27h112c234 1 363 26 423 82 58 54 98 260 91 463-4 122-7 138-34 191-40 81-79 100-217 108-174 10-361 14-387 9z"/><path d="m3660 2971c-42-9-83-34-103-65-39-59-50-127-54-343-5-206-5-212 18-252 28-50 78-86 143-102 48-12 257-8 370 7l49 7-7-104c-4-57-11-189-16-294-9-177-9-192 8-214 35-47 100-46 136 2 22 29 27 86 42 452 7 191 0 235-44 283-45 48-92 56-241 38-146-18-229-20-265-6l-26 10v162c0 156 8 230 27 249 5 5 99 6 210 2l201-6 5-50c3-39 11-56 31-74 34-29 48-29 80 0 24 20 26 30 28 113 4 147-23 169-218 179-242 11-340 13-374 6z"/><path d="m1565 2945c-14-13-25-32-25-42s-1-297-3-638c-2-677-3-662 55-694 33-19 73-7 101 31 18 24 20 51 29 300 5 150 10 278 12 283 2 6 37 8 97 3 52-3 135-7 186-7 154-2 161-10 143-176-21-189-27-310-18-343 12-45 45-72 86-72 71 0 102 46 102 151 0 33 7 118 16 187 24 190 9 280-58 349-50 52-112 67-263 65-71-1-164-6-205-11-41-4-78-7-81-5-4 2-10 108-13 236-9 286-17 352-47 384-31 33-82 32-114-1z"/><path d="m2542 2944c-55-38-64-109-53-419 6-186 9-215 28-250 50-95 116-125 302-135 75-4 171-5 215-1l78 7-4-178c-2-97-7-181-11-184-4-4-42 1-85 11-104 26-285 27-363 3-106-33-149-107-99-170 26-34 68-41 132-21 74 23 202 20 308-7 182-47 274 5 301 168 12 77 27 831 19 994-7 152-20 181-86 186-88 7-103-51-104-401v-219l-201 4c-197 3-201 3-220 27-18 21-19 42-19 283v260l-29 29c-33 33-74 38-109 13z"/><path d="m2374 1391c-55-34-79-78-79-147 0-51 4-66 27-96 35-45 102-73 153-64 78 15 146 111 131 188-20 108-145 172-232 119z"/><path d="m1853 999c-39-11-66-56-61-101 6-59 69-64 76-6 4 30 34 38 145 38h67v-110c0-135-1-136-132-126-85 6-89 6-113-18-24-25-25-28-25-179 0-162 4-177 47-177 35 0 43 29 43 159v121h73c85 0 141 14 168 41 17 17 19 34 19 169 0 147-1 152-25 175-23 24-30 25-137 24-62 0-128-5-145-10z"/><path d="m2985 1000c-91-16-93-18-104-58-15-51-14-537 0-564 19-36 69-48 204-48 121 0 127 1 151 25l24 24-2 292-3 292-26 19c-31 23-161 33-244 18zm169-86c14-5 16-37 16-250v-245l-102 3-103 3v240 240l40 6c57 9 131 10 149 3z"/><path d="m2351 971c-24-24-29-73-37-372-6-232-6-237 15-258 23-23 29-25 51-11 12 7 16 40 20 150l5 141 35-23c19-13 59-55 88-93 30-39 78-96 108-128 47-51 56-57 74-47 29 16 25 42-15 92-19 24-62 78-95 121-61 77-61 77-33 77 15 0 46 9 69 19 56 26 67 57 62 179-6 156-27 172-220 172-93 0-111-3-127-19zm257-74c16-13 17-168 0-185-7-7-41-12-84-12-40 0-84-4-98-10l-26-10v120 119l98-6c53-3 103-10 110-16z"/></g></svg>