<svg width="442.65mm" height="171.81mm" version="1.1" viewBox="0 0 442.65 171.81" xml:space="preserve" xmlns="http://www.w3.org/2000/svg"><g transform="translate(115.37 -58.58)"><path d="m-102.87 121.6h416.6" fill="#2a2a2a" fill-rule="evenodd" stroke="#000" stroke-linecap="square" stroke-width="10" style="paint-order:markers stroke fill"/><circle cx="318.73" cy="108.9" r="8.5562"/><g transform="translate(0 -.073933)" fill="none" stroke="#000" stroke-width="2"><path d="m211.87 229.46v-101.77h-326.24" stroke-linecap="square" style="paint-order:markers stroke fill"/><path d="m-108.34 127.69-6.0301 6.0301m6.993 9.8449 15.875-15.875m16.838 0-15.875 15.875m16.838 0 15.875-15.875m16.838 0-15.875 15.875m16.838 0 15.875-15.875m16.838 0-15.875 15.875m16.838 0 15.875-15.875m16.838 0-15.875 15.875m16.838 0 15.875-15.875m16.838 0-15.875 15.875m16.838 0 15.875-15.875m16.838 0-15.875 15.875m16.838 0 15.875-15.875m16.838 0-15.875 15.875m16.838 0 15.875-15.875m16.838 0-15.875 15.875m16.838 0 15.875-15.875m16.838 0-15.875 15.875m16.838 0 15.875-15.875m0.29021 16.548-15.875 15.875m0 16.838 15.875-15.875m0 16.838-15.875 15.875m0 16.838 15.875-15.875m0 16.838-15.875 15.875m14.844 1.9942 1.0312-1.0312"/></g><g><path d="m318.73 82.726v131.81" fill="none" stroke="#000" stroke-linecap="square" stroke-width="1.5" style="paint-order:markers stroke fill"/><g transform="matrix(1.0775 0 0 .99498 -17.595 1.0383)" stroke-width="1.4487"><g fill-rule="evenodd" stroke-width="1.4487"><path d="m311.32 206.72-12.11 2.5v-4.9999z" color="#000000"/><path d="m298.65 203.54v6.3691l12.781-2.6367v-1.0938zm1.1152 1.3711 8.791 1.8145-8.791 1.8144z" color="#000000"/><path d="m214.25 206.72 12.11-2.5v4.9999z" color="#000000"/><path d="m226.92 203.54-12.781 2.6387v1.0938l12.781 2.6367zm-1.1152 1.3711v3.6289l-8.791-1.8144z" color="#000000"/></g><path d="m221.83 206.22v1h81.908v-1h-81.408z" color="#000000" fill-rule="evenodd" stroke-linecap="square" style="paint-order:markers stroke fill"/></g><g transform="matrix(1.0917 0 0 .99751 -22.212 .22015)" stroke-width="1.4374"><g fill-rule="evenodd" stroke-width="1.4374"><path d="m311.48 88.534-12.11 2.5v-5z" color="#000000"/><path d="m298.81 85.35v6.3691l12.779-2.6387v-1.0918zm1.1152 1.3691 8.7949 1.8164-8.7949 1.8145z" color="#000000"/><path d="m-77.191 88.534 12.11-2.5v5z" color="#000000"/><path d="m-64.523 85.35-12.779 2.6387v1.0918l12.779 2.6387zm-1.1152 1.3691v3.6309l-8.7949-1.8145z" color="#000000"/></g><path d="m-69.613 88.033v1h373.51v-1h-373.01z" color="#000000" fill-rule="evenodd" stroke-linecap="square" style="paint-order:markers stroke fill"/></g></g><path d="m251.23 197.65q-0.88567 0-1.3875-0.3838-0.47237-0.41332-0.47237-1.1809 0-0.59046 0.1476-1.4761 0.14765-0.91521 0.26573-1.4761l2.8637-13.698t0.0296-0.29522q0.0594-0.29522 0.0594-0.6495 0-0.29522-0.17712-0.59044-0.14762-0.29524-0.73806-0.29524-0.38378 0-0.70854 0.0297-0.29523 0.0297-0.29523 0.0297v-0.7676l4.0741-0.32476h0.6495l-3.4246 17.271q-0.0594 0.35427-0.11812 0.73806-0.0296 0.35427-0.0296 0.50191 0 0.29523 0.14758 0.44282 0.14765 0.11811 0.41333 0.11811 0.76762 0 1.3285-0.5609 0.56091-0.59048 0.9152-0.97424l0.59044 0.44284q-0.5019 0.70853-1.0923 1.4466-0.59048 0.7085-1.3285 1.1809-0.73809 0.47234-1.7123 0.47234zm5.4617 2.3618h-1.6238l12.724-23.559h1.5942zm20.607-2.6275h-2.6275l3.3656-15.676h-0.1181l-7.7054 8.8568-0.0296 0.11813h11.543l-0.41333 2.037h-13.167l0.38383-1.8599 11.012-12.518h1.8009z" stroke-width=".44979" aria-label="l/4"/><path d="m104.1 81.504q-0.96317 0-1.509-0.41738-0.51367-0.44948-0.51367-1.2842 0-0.64212 0.16053-1.6053 0.16052-0.99528 0.28895-1.6053l3.1143-14.897t0.0317-0.32106q0.0644-0.32106 0.0644-0.70632 0-0.32106-0.19262-0.64212-0.16054-0.32106-0.80265-0.32106-0.41738 0-0.77055 0.03209-0.32106 0.03209-0.32106 0.03209v-0.83475l4.4306-0.35316h0.70632l-3.7243 18.782q-0.0644 0.38527-0.12844 0.80265-0.0317 0.38527-0.0317 0.5458 0 0.32106 0.16056 0.48159 0.16049 0.12842 0.44944 0.12842 0.83475 0 1.4448-0.61001 0.61002-0.64212 0.9953-1.0595l0.64211 0.48158q-0.5458 0.77054-1.1879 1.5732-0.6421 0.77054-1.4448 1.2842-0.80264 0.51369-1.8622 0.51369z" stroke-width=".44979" aria-label="l"/><path d="m-107.37 116.1v-33.37" fill="none" stroke="#000" stroke-linecap="square" stroke-width="1.5" style="paint-order:markers stroke fill"/></g></svg>
