<svg height="1781.724369pt" preserveAspectRatio="xMidYMid meet" viewBox="0 0 1878.262149 1781.724369" width="1878.262149pt" xmlns="http://www.w3.org/2000/svg"><g transform="matrix(.1 0 0 -.1 -44.5 1783.907384)"><path d="m1555 17814c-55-46-199-139-277-179-52-27-78-46-78-57 0-30 39-21 132 32 48 28 90 50 93 50 2 0-13-28-35-62-36-55-70-140-70-174 0-16 30-33 48-27 6 3 12 18 12 34s8 48 17 71c27 69 149 242 197 279 30 23 33 44 10 53-19 7-14 10-49-20z"/><path d="m1754 17830c-87-20-195-130-128-130 8 0 17 7 21 15 10 28 88 73 137 80l49 8-19-33c-19-33-63-78-123-128-51-43-38-62 39-62 55 0 65-3 91-29 40-40 39-78-5-120-28-27-44-34-107-42-41-6-78-14-83-19-29-29 64-40 149-19 63 16 125 84 125 136 0 21-6 49-13 63-18 35-74 70-114 70h-33l39 36c22 19 54 58 72 85 27 43 30 53 21 75-10 20-18 24-49 23-21-1-52-4-69-9z"/><path d="m848 17800c-14-10-35-42-47-69-21-50-21-50-79-53-43-2-57-7-57-18s13-16 47-18l46-3-24-61c-13-34-24-66-24-71 0-6-8-15-17-22-14-11-15-17-6-36 6-13 14-32 17-41 3-10 12-18 19-18 21 0 40 27 33 47-8 19 9 33 40 33 17 0 20-5 16-31s-2-30 14-27c11 2 28 19 38 39 20 36 21 37 99 43 44 4 89 12 100 18 19 10 19 11 3 20-9 5-48 8-87 6-38-2-69 0-69 4s8 24 17 44l18 36 72-7c61-6 73-4 73 8 0 18-50 37-98 37-29 0-33 3-27 18 33 81 39 102 29 112-19 19-39 0-62-60-23-59-24-60-63-60-37 0-38 1-29 26 16 41 32 68 48 80 15 11 11 44-6 44-5 0-21-9-34-20zm32-190c0-6-9-29-20-50-15-30-27-40-44-40-14 0-31-3-39-6-12-4-11 5 5 50 20 55 22 56 59 56 22 0 39-5 39-10z"/><path d="m2208 17808c-9-7-24-37-34-67-15-47-25-59-86-104-37-27-68-54-68-59 0-21 34-18 71 7 34 22 40 24 35 8-32-105-35-198-7-213 27-14 35 2 32 59-3 62 33 190 75 269 38 72 42 97 18 106-20 8-17 8-36-6z"/><path d="m2390 17788c-11-18-20-36-20-40s-17-45-38-90c-77-166-87-218-41-218 26 0 131 61 178 104 25 23 32 26 27 12-56-159-72-249-43-259 24-9 48 12 41 38-10 39 56 232 94 277 8 10 12 24 9 33-7 17-42 20-52 5-12-19-205-144-212-137-5 6 16 61 66 176 23 51 41 100 39 109-6 28-27 24-48-10z"/><path d="m4945 17506c-74-32-140-146-156-268-12-87-10-151 15-448 26-318 40-701 41-1085 0-398-8-520-51-740-44-227-80-327-129-359-35-23-31-60 6-64 19-2 33 4 47 23 15 19 27 25 41 20 55-17 86-143 102-410 13-209 5-1065-13-1486-9-212-9-294 0-359 17-122 70-216 102-184 8 8 6 22-9 49-48 91-51 149-32 820 14 540 15 1072 1 1246-17 215-52 323-114 360l-32 19 28 85c37 115 76 319 93 495 33 326 9 1265-46 1790-12 121 3 276 33 338 28 59 91 125 115 120 14-3 18-12 16-43-1-22-4-54-8-71-5-22-2-34 10-44 27-23 44 7 51 91 6 74 6 76-21 97-32 25-48 27-90 8z"/><path d="m12536 17403c-48-74-155-410-182-570-22-137 13-220 113-264 31-15 47-17 67-9 36 13 32 25-14 39-90 27-128 94-115 204 6 56 69 297 100 382 52 146 56 154 78 157 41 6 32 98-9 98-8 0-25-17-38-37z"/><path d="m13083 17433c-24-9-13-32 24-50 57-27 166-140 197-204 15-31 34-94 42-140 28-156 0-292-97-478-53-103-56-111-36-111 36 0 108 115 158 251 56 152 50 353-15 495-50 110-221 258-273 237z"/><path d="m5962 17412c-10-10-29-33-43-52-136-186-209-276-274-339-94-91-101-87-91 53 18 241 18 253 7 274-7 12-18 22-26 22s-42-59-80-137c-37-76-101-193-142-261s-72-130-69-138c7-19 30-18 48 4 24 28 154 252 187 322l31 65-5-55c-10-109-8-205 4-228 18-33 56-45 89-28 58 30 223 215 343 386 26 36 56 74 68 84 11 11 21 25 21 33 0 19-47 16-68-5z"/><path d="m7072 17400c-95-20-167-60-195-108-15-25-22-64-28-150-5-65-13-135-18-157s-11-60-13-85c-3-40-1-45 19-48 28-4 37 16 54 118l12 75 156-3c93-1 162 2 171 8 32 21-17 30-173 30-158 0-158 0-151 23 4 12 8 51 9 87s5 73 9 82c13 28 81 66 142 79 122 24 175 26 212 7 55-28 74 3 26 41-33 26-113 27-232 1z"/><path d="m14719 17213c0-54-4-120-9-148-5-27-12-354-15-725s-11-749-17-840c-18-277-24-534-26-1032-1-263-5-490-8-505s-9-163-15-328c-5-165-12-326-15-359-5-44-2-68 12-98l18-39 100 6c56 3 493 8 972 11l871 5 7-98c4-54 12-138 17-188 6-49 12-358 15-685l4-595-27 33c-29 33-57 42-66 19-3-7 12-38 32-69s44-70 53-87c13-24 24-31 46-31 27 0 32 8 81 110 29 60 57 112 62 115 15 10 10 45-7 52-20 8-48-27-85-106l-26-56-6 580c-4 319-11 604-16 633-6 29-13 125-17 212l-7 160h212 211v-174-175l-51 55c-34 36-60 54-75 54-37 0-30-30 17-75 22-22 54-59 70-82 28-40 33-43 78-43 54 0 72 15 135 113 21 31 42 57 47 57 15 0 10 40-6 47-22 8-50-20-101-99-24-38-51-68-59-68-12 0-14 4-5 19 6 12 10 93 10 195v175l538 5c887 9 1432 27 1432 47 0 5 20 9 44 9s46 5 48 10c4 12-7 125-17 188-4 23-13 42-20 42s-14 10-15 23c-4 49 0 348 9 612 6 154 13 379 16 500 6 220 6 220 32 241 28 24 24 44-9 44-20 0-20 4-14 73 37 418 42 671 24 1366-12 479-7 625 24 764 8 40 8 52-4 63-29 29-46 7-53-69-3-40-10-99-15-132-12-81-13-309-5-950 5-376 3-602-5-745-7-113-14-246-17-297l-5-92-102-6c-55-3-242-8-413-11l-313-5v233c0 265-9 329-63 456-52 122-81 165-162 246-104 105-203 169-290 188-22 5-60 14-85 19-25 6-85 14-135 19-147 15-237 28-290 40-27 7-75 14-107 17l-56 5-5 176c-2 98-10 252-17 344-8 92-11 170-8 174 8 7 46-12 74-38 27-24 77-21 82 5 2 9-2 17-8 17-10 0-22 7-97 58-36 24-86 29-103 10-90-110-113-148-104-172 11-29 43-17 71 26 16 23 29 35 30 27 9-57 33-439 33-528 0-109 0-109-28-119-16-5-69-7-119-5l-91 6-6 101c-3 55-8 157-11 226l-6 125 36-70c43-82 62-102 83-82 11 12 7 26-27 93-23 43-41 86-41 95 0 16-19 35-57 56-50 28-150-63-213-193-21-42-21-47-7-61 13-13 19-14 31-4 8 7 18 22 22 34 10 33 95 157 106 157 8 0 18-125 24-322l6-178h-39c-21 0-43-4-49-9-5-5-36-16-68-26-125-35-386-194-525-319-91-82-194-363-211-576-5-63-10-148-10-187 0-69-1-73-25-79-14-3-141-3-283 1-374 11-741 11-789 2l-43-9v204c0 111 4 253 9 313 25 289 31 516 34 1218 3 727 3 757-15 757-16 0-18-10-19-97zm2501-1214c51-12 151-25 290-39 139-13 292-52 357-92 119-72 236-195 280-294 12-27 34-76 49-109 28-60 28-60 32-385 5-433-4-504-115-840-54-162-128-283-245-399-67-65-100-89-182-130-174-86-225-105-311-113-132-12-232-25-242-31-16-10-24 256-22 731 1 274-2 437-8 439-23 8-35-33-44-154-11-127-6-771 7-940l6-83h-98c-56 0-123 7-158 16-237 61-229 57-325 155-47 48-131 129-186 180-99 92-209 222-262 309-15 25-40 61-55 81-58 73-71 127-76 322-4 159-3 177 12 177 9 0 16 8 16 20s-7 20-16 20c-15 0-16 18-11 173 4 165 6 177 45 302 57 186 100 271 169 330 205 175 462 315 579 315h44l2-337 3-338h25 25l3 339c2 301 4 342 19 358s30 18 120 16l103-3v-436c0-376 2-438 15-449 12-10 18-10 30 0 13 11 15 74 15 461v449l33-6c17-3 52-10 77-15zm1894-1266c-2-49-6-164-10-258-11-319-24-680-30-818-5-111-3-142 9-160l14-22-701-1c-386-1-830-5-988-9l-288-7v31c0 17 5 31 10 31 6 0 56 7 113 16 56 8 136 19 177 23 80 9 110 20 289 108 85 41 131 72 179 117 140 132 231 289 305 526 52 170 63 219 93 443l6 47h317c187 0 322 4 331 10 8 5 52 10 96 10h81zm-3541 51 277-5v-119c0-114 16-233 40-295 14-37 140-223 219-323 31-41 116-128 188-195s153-146 179-175c55-62 90-81 204-111 47-12 99-26 116-32 17-5 85-9 152-9h122v-30-29l-727-5c-755-5-1536-20-1611-32l-43-6 5 278c3 154 8 460 11 681l6 401 47 10c46 10 190 9 815-4zm3499-1354c47-14 58-33 58-109v-61h-35c-19 0-35-4-35-9s-39-12-87-16c-150-10-795-25-1330-30l-513-6v111 110l253 1c138 1 290 4 337 8 137 12 1309 12 1352 1zm-2002-120v-110h-210c-210 0-210 0-210 23 0 41-12 67-30 67s-30-26-30-67v-23l-882-4c-486-2-914-7-952-11-52-5-71-4-77 7-12 18-11 136 1 143 6 3 10 14 10 24 0 29 148 41 532 42 189 1 402 5 473 8 72 4 410 8 753 9l622 2z"/><path d="m16650 14953c-43-16-103-72-130-120-31-54-36-76-65-252-15-95-34-141-58-141-22 0-45 24-49 50-2 19-9 25-28 25-37 0-40-51-6-88 21-22 34-27 75-27 45 0 53 3 76 34 25 33 35 71 55 216 17 120 42 174 103 224 46 38 129 57 162 39 21-12 45-75 45-119 0-47-42-81-111-89-53-7-58-5-93 25-49 43-83 31-56-21 18-32 64-49 137-49 80 0 127 20 161 71 24 35 24 70-1 149-19 63-48 80-130 79-40 0-79-3-87-6z"/><path d="m18500 14420c0-18 7-20 73-20 39 0 78 4 86 9 24 16-22 31-93 31-59 0-66-2-66-20z"/><path d="m18391 14001c-8-5-11-16-8-25 5-14 27-16 139-16 133 0 179 10 148 30-8 5-65 10-127 10-61 0-117 2-125 5-7 3-19 1-27-4z"/><path d="m15401 14486c-55-11-76-31-46-42 16-7 191 12 207 22 5 3 4 12-3 20-14 17-80 17-158 0z"/><path d="m15256 14259c-41-32-87-133-112-249-29-132-65-224-91-228-10-2-31 10-48 28-33 35-65 40-65 10 0-24 62-88 95-96 58-14 108 58 148 216l22 85 83-3c104-4 150 18 182 85 23 50 20 91-11 142-18 30-20 31-98 31-64 0-83-4-105-21zm164-49c17-40 5-95-26-119-45-35-193-41-164-6 7 8 9 19 5 24-6 10 22 70 48 103 13 17 40 24 93 27 26 1 34-4 44-29z"/><path d="m15343 13887c-49-42-88-67-108-67-8 0-15-9-15-20 0-16 7-20 30-20 17 0 42 7 56 16 13 9 26 15 29 13 4-5-32-146-41-161-12-18 8-48 32-48 13 0 25 3 25 8 1 4 3 18 4 32 3 38 22 107 48 185 13 39 22 76 20 83-8 22-42 13-80-21z"/><path d="m15710 13737c-34-21-34-22-10-25 45-4 115 12 115 28 0 24-65 22-105-3z"/><path d="m1677 17193c-4-3-283-9-620-12-535-5-612-8-612-21 0-22 353-24 1375-10 673 10 890 10 1065 0 176-10 229-10 265 0 45 13 45 13 15 22-65 18-355 27-906 28-317 0-579-3-582-7z"/><path d="m6232 17183c-6-10-15-37-21-60l-12-43-57-1c-90-1-197-23-197-40 0-16 57-18 172-6l72 8-6-74c-5-68-4-76 15-86 23-12 26-6 38 102l6 57h62c69 0 101 13 76 30-8 5-39 10-69 10h-54l8 38c12 63 11 76-7 80-9 2-21-5-26-15z"/><path d="m8681 17166c-8-10-9-16-1-21 15-9 12-115-4-193-25-118-27-148-11-162 19-16 40 0 50 37 15 63 121 200 177 229 36 19 41 9 36-89-3-74-1-82 16-85 11-3 26 4 33 14 55 77 205 194 248 194 27 0 32-12 46-104 12-89 36-140 68-144 32-5 50 14 28 30-21 16-47 90-47 133 0 39-18 94-38 118-32 36-115 10-218-68-39-30-74-55-78-55-3 0-6 13-6 30 0 41-19 77-43 84-32 8-99-27-148-78l-44-46-2 81c-1 78-12 109-38 109-7 0-18-6-24-14z"/><path d="m9692 17150c-74-31-186-174-180-228 3-24 8-27 43-30 56-5 98 5 139 33l36 24v-75-76l-54-59c-111-119-164-249-153-373 7-74 31-110 78-114 105-9 153 108 184 450l7 77 73 46c90 56 174 145 137 145-4 0-53-30-107-66l-100-66-7 77c-6 66-4 82 12 113 24 43 26 95 5 112-19 16-85 22-113 10zm74-72c-10-53-102-128-174-141l-33-7 23 38c52 86 115 142 160 142 29 0 30-2 24-32zm-45-475c-13-117-35-222-57-265-16-31-62-48-74-28-31 50-12 196 37 280 30 51 95 132 101 125 2-2-1-52-7-112z"/><path d="m12863 17078c-87-90-104-121-80-146 13-13 19-13 31-2 9 7 16 18 16 24 0 13 60 89 66 83 2-2-5-36-16-75s-20-87-20-106c0-24-5-36-17-40-10-3-37-10-61-16-36-9-43-15-40-33 3-19 10-22 57-25 43-3 61 1 83 18 33 24 122 39 132 21 10-16 56-14 56 2 0 32-41 52-101 51-48-1-59 2-59 15 0 14 16 75 60 232 14 49 9 79-13 79-7 0-50-37-94-82z"/><path d="m17988 17143c-17-21-69-113-128-231-23-45-45-82-50-82-16 0-32 31-64 121-18 51-40 97-48 103-20 12-48-8-48-35s-26-99-87-242c-38-90-53-136-49-153 9-34 44-32 51 4 4 15 26 74 50 132s51 123 60 145l16 40 19-55c21-62 67-110 105-110 29 0 60 38 108 136 19 40 54 104 77 144 40 69 46 100 17 100-8 0-21-8-29-17z"/><path d="m16110 17068c-52-16-100-34-106-39-14-12-21-51-34-194-5-60-15-135-22-165-6-30-12-131-12-225l-1-170h25c22 0 25 5 28 40 1 22 9 85 17 140s17 127 20 160c10 92 9 91 57 87 59-4 163 21 163 39 0 17-70 18-152 2l-53-10 6 56c3 31 10 72 15 92 9 38 4 69-12 69-5 0-9 10-9 23 0 45 215 96 303 72 21-6 27-4 27 8 0 55-117 62-260 15z"/><path d="m7965 17069c-16-25 20-29 231-27 187 3 219 5 219 18s-33 15-222 18c-154 2-224-1-228-9z"/><path d="m3156 16998c-3-29-6-405-6-835v-783l-167 8c-444 19-2275-1-2336-26-36-15-30-38 9-35 16 2 250 8 519 15 606 14 1490 16 1768 4 205-9 208-10 203-30-4-12-9-478-12-1036-3-573-9-1058-15-1113-11-108-7-137 21-137 39 0 40 30 49 1235 4 583 8 1060 9 1060 1 1 17-1 36-3 40-5 58 15 31 35-11 7-28 13-39 13-21 0-21 0-18 767 4 828 1 913-27 913-14 0-20-11-25-52z"/><path d="m7507 16939c-18-11-72-91-107-158-11-23-27-41-36-41-19 0-31-30-15-39 8-6 3-27-19-76-31-69-33-95-7-95 20 0 42 28 80 100l33 65 57 3 57 3v-60c0-74 16-113 44-109 19 3 20 9 17 85l-3 82 34 15 33 14-31 7c-27 6-33 13-38 44-3 20-6 56-6 81 0 74-41 109-93 79zm43-125v-74h-46c-40 0-45 2-39 18 4 9 10 28 13 42 7 34 52 101 63 94 5-3 9-39 9-80z"/><path d="m8090 16938c-30-5-71-10-90-11-28-2-35-6-35-22 0-18 6-20 60-18 79 3 230 32 252 49 16 12 8 13-57 13-41-1-100-5-130-11z"/><path d="m2485 16639c-218-41-235-49-235-104 0-17-4-56-10-86-5-30-12-88-14-129s-7-107-11-146c-10-92-2-126 28-122 20 3 22 10 28 93 3 50 9 105 13 123l8 32h106c110 0 151 11 122 30-8 5-61 10-117 10-112 0-112 0-91 57 10 27 10 38 0 53-16 26-15 85 2 99 15 12 199 50 286 58 61 6 82 17 73 39-7 19-63 17-188-7z"/><path d="m16246 16548c-8-13-20-35-27-50-8-19-19-27-33-25-23 2-26-8-61-192-10-51-25-120-35-151-18-61-14-84 15-78 12 2 27 29 45 78 27 73 29 75 66 82 60 11 74 9 74-7 0-9 12-38 26-65 20-39 31-50 50-50 30 0 30 9-1 70-14 27-25 51-25 54s12 6 28 8c39 4 36 32-5 36-38 4-40 11-48 147-9 147-13 165-35 165-11 0-26-10-34-22zm22-210 8-76-40-5c-23-2-42-3-43-3-1 1 10 41 25 88 15 48 30 84 34 80s11-42 16-84z"/><path d="m1049 16411-79-79v63c0 68-18 98-47 79-12-7-15-39-18-159-2-83-5-161-7-175-2-21 1-25 21-25s27 9 45 65c27 84 75 158 139 216l51 45 15-28c8-15 16-64 19-108 2-44 9-86 14-92 19-23 38-13 58 30 30 63 101 139 155 166 47 23 49 23 62 5 26-35 36-97 30-191-5-73-4-92 8-96 18-7 29 8 44 61 20 72-5 219-46 264-39 44-149 4-227-83l-46-51v33c-1 44-33 114-58 128-37 20-54 12-133-68z"/><path d="m6229 16103c-30-32-168-206-192-242-24-37-126-141-137-141-15 0-12 95 6 198 19 112 16 146-11 150-16 2-42-24-110-110-50-62-110-140-135-174-61-84-176-204-195-204-8 0-15-9-15-20 0-16 7-20 34-20 29 0 43 10 112 88 44 49 121 143 173 211 51 67 95 120 97 119 1-2-1-21-5-43-5-22-11-74-15-116-5-68-3-80 15-103 34-43 69-35 137 32 32 31 71 75 87 97 17 22 69 90 117 151 78 100 90 111 114 106 22-4 25-2 22 19-2 19-10 25-38 27s-41-3-61-25z"/><path d="m7450 16089c-28-11-61-57-79-111-7-20-19-42-27-48-7-7-14-20-14-30 0-9-11-66-24-126-14-60-26-129-28-154-3-40-1-45 19-48 27-4 38 18 59 123 8 39 16 79 19 90 4 19 11 20 192 17 114-1 194 2 203 8 33 22-18 30-197 30-150 0-183 3-183 14 0 30 50 161 68 179 19 18 28 19 188 9 165-10 202-6 177 19-21 21-332 44-373 28z"/><path d="m12498 16070c-27-16-75-109-97-190-26-92-29-245-6-311 16-46 59-100 93-118 29-15 85-14 80 2-3 6-15 17-27 23-70 35-111 114-111 213 0 166 69 351 131 351 12 0 19 7 19 20 0 16-7 20-32 20-18 0-41-5-50-10z"/><path d="m13114 16048c-4-7 2-18 17-27 140-91 217-271 206-481-6-105-24-162-100-318-25-50-42-92-37-92 20 0 83 66 105 111 74 145 102 279 86 405-23 179-85 308-182 380-48 35-82 43-95 22z"/><path d="m1875 15986c-26-19-13-50 19-42 45 11 64-45 34-101-10-21-36-52-56-70-32-28-34-33-18-39 32-12 83 22 116 78 34 60 37 86 15 128-28 53-74 73-110 46z"/><path d="m12805 15850c-85-18-119-39-108-67 7-17 23-17 62 3 18 9 58 18 89 21 130 11 147-36 54-144-32-38-66-74-75-82-26-21-21-50 9-57 14-4 62-4 108-2 97 5 181 39 181 73 0 24-7 23-107-11-50-18-85-24-103-20-26 7-26 7 29 67 84 90 95 163 32 204-29 20-116 27-171 15z"/><path d="m6440 15780c0-20 4-20 178-18 149 3 177 5 177 18s-28 15-177 18c-174 2-178 2-178-18z"/><path d="m6555 15693c-59-7-115-34-115-54 0-22 29-26 62-8 11 6 67 15 125 21 119 11 166 24 143 38-14 9-153 11-215 3z"/><path d="m10044 15133c-37-40-135-205-199-335-31-64-65-124-75-133-17-15-20-13-53 42-20 33-55 99-78 148-87 189-105 213-133 185-13-13-12-20 13-60 16-25 32-57 36-70 15-51 121-245 151-277 62-66 101-36 189 144 69 141 170 309 190 317 20 7 19 52-1 60-9 3-25-4-40-21z"/><path d="m2630 14966c-46-12-119-51-132-70-25-36 6-156 41-156 29 0 34 15 16 49-8 17-15 41-15 55 0 48 130 101 204 82 39-10 96-65 117-114 23-53 24-103 4-141-20-40-108-114-179-152-33-18-73-46-88-63-42-46-34-106 15-106 15 0 17 5 12 28-7 34 23 65 103 107 64 35 167 126 189 168 50 97-13 247-129 308-42 22-92 23-158 5z"/><path d="m5860 14873c-14-2-46-11-73-19-39-13-50-22-62-51-8-20-15-54-15-77-1-43-20-164-44-281-12-59-13-72-1-84 7-7 18-10 24-6 19 11 42 77 49 140l7 60 130 7c184 9 235 17 235 34 0 23-48 28-154 16-111-13-196-16-196-6 0 4 8 13 18 20 16 13 16 15-2 29-16 12-18 23-13 70 3 31 11 62 17 70 20 24 97 35 282 41 208 6 216 8 198 29-10 12-44 15-194 14-99-1-192-4-206-6z"/><path d="m12494 14696c-82-111-127-269-104-368 14-59 37-102 88-166 42-53 127-98 166-88 14 3 26 10 26 14s-27 20-61 37c-70 34-141 117-160 188-26 97 10 246 87 353 44 63 51 94 20 94-8 0-36-29-62-64z"/><path d="m13187 14713c-16-15-5-31 33-48 59-27 173-151 194-211 9-27 20-94 23-150 7-115-8-173-78-318-21-44-37-81-35-83 12-12 81 69 111 130 58 119 69 183 55 307-14 129-30 165-109 256-75 86-169 143-194 117z"/><path d="m7983 14670c-71-15-140-58-165-103-15-28-54-189-78-322-35-196-71-297-115-327-18-13-62-9-75 7-7 8-16 30-19 48-5 23-13 33-29 35-29 4-37-18-23-61 16-47 52-78 98-84 56-7 95 16 131 79 36 64 53 122 83 291l24 127 17-35c10-19 33-42 50-51 28-14 41-15 96-5 79 15 122 36 185 91 61 54 77 86 77 155 0 73-22 119-67 140-42 20-132 27-190 15zm178-66c15-15 22-39 26-82l6-61-53-51c-62-61-115-89-179-97-36-4-51-1-64 12-22 22-34 68-19 73 25 8 12 32-18 32-16 0-30 1-30 3 1 15 34 106 45 124 31 47 106 73 198 70 52-2 72-7 88-23z"/><path d="m8703 14656c-103-49-173-184-112-217 33-17 85-13 124 9 19 12 36 18 38 14 3-4 8-37 11-73l7-66-48-28c-55-33-132-111-169-172-28-46-34-126-14-178 25-65 118-135 179-135 17 0 48 7 70 16 32 12 45 26 66 67 14 30 25 68 25 91 0 35-27 207-45 296-6 28-4 29 168 104 50 22 78 48 65 61-6 6-153-42-199-66-23-11-43-18-46-16-2 3-7 45-10 93-5 82-4 91 16 108 26 23 27 57 4 85-28 33-70 35-130 7zm87-34c0-11-36-80-51-98-19-23-89-56-105-50-51 19 69 154 139 156 9 0 17-4 17-8zm9-447c26-158 30-191 24-215-12-49-35-82-69-96-31-13-38-13-72 5-90 46-128 143-86 223 21 40 89 114 138 150 47 34 49 32 65-67z"/><path d="m1608 14646c-130-35-184-136-334-621-26-84-89-218-111-236-9-8-19 3-40 48-16 32-35 58-43 58-45 0 12-152 64-170 25-8 31-6 53 20 48 59 103 186 158 362 55 179 134 376 174 431 32 46 93 70 182 73 91 4 129-10 153-56 26-48 15-93-34-143-46-46-111-79-185-95-66-13-105-4-98 23 4 16 0 20-18 20-56-1-64-38-16-74 80-59 322 20 387 127 39 63 42 96 15 154-20 44-32 57-67 73-51 23-166 26-240 6z"/><path d="m12928 14630c-45-24-52-34-34-49 10-8 23-7 50 4 44 18 56 13 56-23 0-18-13-38-41-64-59-54-52-72 36-79 112-9 154-44 110-91-23-25-80-46-92-34-11 11-43-15-43-34 0-43 127-16 177 37 36 38 40 60 18 102-17 33-78 61-132 61h-37l26 28c48 52 44 127-8 151-33 15-42 14-86-9z"/><path d="m7195 14530c-38-4-121-8-182-9-106-1-113-2-113-21s7-20 133-20c211 0 350 20 324 46-10 10-87 12-162 4z"/><path d="m9957 14534c-4-4-89-10-189-13-153-5-183-8-183-21s32-15 240-13c274 3 360 10 360 33 0 12-20 16-111 18-60 1-113 0-117-4z"/><path d="m6398 14458c-32-25-98-123-104-155-5-25-11-33-28-33-41 0-66-12-66-31 0-15 7-19 31-19 28 0 31-3 25-22-28-98-30-119-13-135 15-15 19-15 30-3 8 8 22 44 32 80 9 36 19 71 21 78s22 12 53 12c27 0 56 3 64 6 12 4 17-7 22-58 13-119 29-173 53-176 19-3 22 1 22 30 0 18-4 49-9 68s-11 58-14 87c-4 52-4 52 27 55 46 4 41 32-6 36l-38 3v57c0 100-51 159-102 120zm50-118 4-60h-50-51l21 48c49 110 69 113 76 12z"/><path d="m2084 14385c-9-23 9-33 81-40 92-10 159-3 163 16 2 14-10 18-75 23-43 4-97 9-120 13-35 4-44 2-49-12z"/><path d="m7156 14379c-189-27-262-57-228-91 7-7 28-3 68 11 33 11 101 27 152 36 103 17 167 39 157 55-3 5-9 10-13 9s-65-9-136-20z"/><path d="m9785 14294c-11-3-30-7-42-10-23-4-31-28-14-38 5-3 49-2 97 3 50 5 98 5 111 0 53-20 11-103-104-205-163-144-209-200-188-233 10-17 62-13 165 14 52 14 118 25 145 26 68 1 99 11 103 33 4 18-2 19-94 13-55-4-130-15-169-26-79-23-88-24-83-13 2 4 58 58 126 121 131 121 174 179 174 237 0 61-27 79-125 81-45 1-91 0-102-3z"/><path d="m2604 14145c-9-21 14-45 43-45 31 0 42 29 18 46-25 18-54 18-61-1z"/><path d="m7941 13958c-48-37-81-69-81-80 0-23 37-24 62-1 28 25 31 10 14-66-19-82-20-117-5-127 19-12 36 19 54 101 10 44 32 109 50 145 55 111 26 119-94 28z"/><path d="m13130 13330c0-5-1-13-1-17-1-5 16-17 37-28 77-40 102-116 91-284-14-234-121-492-233-562-40-25-44-39-9-39 53 0 114 53 172 150 69 115 126 342 127 500 0 124-13 177-57 227-42 47-127 83-127 53z"/><path d="m7969 13306c-43-15-83-43-123-85-33-35-46-32-46 8 0 37-22 54-57 46-30-6-157-123-236-214l-46-55 5 40c3 21 15 71 26 109 32 112 32 114 13 122-39 14-69-75-105-312-9-60-2-85 24-85 7 0 38 36 70 80 32 43 102 122 155 175l96 95 3-84c2-58 7-88 17-96 20-17 32-6 64 59 30 59 87 118 140 145 40 21 58 20 71-3 17-34 11-79-26-186-36-105-42-170-15-170 17 0 20 7 65 140 42 129 47 202 16 253-22 36-49 40-111 18z"/><path d="m12537 13247c-78-79-150-309-131-422 12-72 44-143 79-174 36-31 105-49 145-36 34 11 18 28-38 40-66 15-86 34-112 102-34 91-23 217 30 341 33 78 83 142 111 142 12 0 19 7 19 20 0 16-7 20-35 20-26 0-43-8-68-33z"/><path d="m12775 13091c-8-14-25-171-25-242 0-42 5-60 18-72 24-22 80-21 117 1 17 10 45 24 63 30l33 11-7-32c-5-17-9-52-9-77 0-38 3-45 19-45 17 0 23 16 42 110 12 61 30 136 40 168 12 42 14 61 6 69-21 21-40-1-62-69l-22-69-76-30c-42-16-83-31-91-32-11-3-13 21-10 139 4 128 2 144-13 147-9 2-19-2-23-7z"/><path d="m935 13070c-38-4-115-8-170-9-105-1-143-12-115-32 10-7 80-8 225-2 295 11 406 10 675-7 230-15 539-19 870-11 91 2 266-1 390-6s229-6 234-2c5 5 4 14-2 22-14 16-312 31-582 29-532-4-725-2-804 7-117 14-631 22-721 11z"/><path d="m5754 13054c-11-43 50-360 89-462 18-47 23-53 45-50 15 2 32 14 41 29 66 110 106 172 143 220 85 112 158 197 194 227 24 20 35 36 31 46-17 44-76-3-204-162-56-70-123-162-149-205-25-43-50-75-54-70-15 17-67 250-75 338-9 103-13 115-35 115-13 0-22-9-26-26z"/><path d="m6420 12942c0-35 43-43 230-40 148 3 175 5 175 18 0 12-27 16-160 21-88 3-179 10-202 14-39 7-43 6-43-13z"/><path d="m7385 12769c-4-6-3-15 2-20s203-8 484-7c413 3 474 5 474 18s-61 15-477 18c-338 1-479-1-483-9z"/><path d="m6460 12738c0-30 65-40 189-28 114 11 141 16 141 30 0 16-36 19-182 17-132-2-148-4-148-19z"/><path d="m17402 12687c-6-7-13-62-15-122-3-61-8-125-12-143-8-34 6-62 31-62 18 0 44 63 44 104s50 120 92 146c42 25 48 16 48-86 0-116 36-141 69-47 13 39 96 133 116 133 14 0 35-109 35-182 0-63 18-90 45-68 13 11 14 27 9 89-8 92-29 180-48 199-26 26-81 6-131-46l-45-47v33c0 40-14 68-40 82-24 13-70-5-117-44l-33-28v32c0 33-15 70-29 70-5 0-13-6-19-13z"/><path d="m18047 12638c-48-48-67-99-67-177 0-50 1-53 35-66 41-18 75-8 117 32 15 15 30 24 32 22 3-3 8-34 12-69l6-65-71-80c-123-138-174-277-141-381 19-60 46-84 94-84 121 0 179 124 177 382 0 101 4 158 13 180 15 37 11 59-9 52-9-4-15 5-19 28-3 18-10 60-16 92-5 33-10 79-10 102 0 50-25 74-77 74-26 0-43-10-76-42zm103-48c0-55-21-100-60-133-44-38-55-31-53 33 4 76 47 139 96 140 13 0 17-8 17-40zm38-477c-7-185-43-283-110-298-40-10-62 30-62 114 0 55 5 76 32 128 29 57 125 183 139 183 3 0 3-57 1-127z"/><path d="m7802 12581c-128-45-182-152-211-418-6-54-18-107-30-130-29-57-88-116-107-109-8 3-22 6-30 6-10 0-14 12-14 39 0 52-8 71-30 71-53 0-33-139 22-154 63-16 97-7 143 38 59 60 84 113 95 204 5 42 12 100 16 129l7 51 30-19c66-39 162-32 289 23 66 28 109 91 101 146-9 68-23 90-71 114-63 30-143 34-210 9zm173-45c63-27 76-102 26-150-36-34-148-76-204-76-45 0-87 22-87 46 0 8-7 14-15 14-19 0-19-1 4 51 47 107 171 158 276 115z"/><path d="m17240 11723c-30-8-71-18-90-21-29-6-38-15-59-60-14-28-31-52-37-52-21 0-24-28-24-215 0-101 3-190 6-199 8-21 40-21 48 0 3 9 6 55 6 104 0 58 4 91 13 98 14 12 142 47 205 57 33 5 42 11 40 23-5 24-104 19-182-8-33-11-61-20-63-20-17 0 15 166 40 203 13 20 126 55 180 56 31 1 48 28 26 42-18 12-43 10-109-8z"/><path d="m6454 11201c-22-10-71-47-107-81l-67-62v31c0 38-23 86-45 95-29 11-65 6-103-13-34-18-112-90-146-136-15-19-15-19-15 10 0 17 4 48 9 70 7 31 6 43-5 54-22 22-43-2-50-57-11-95-27-189-42-246-13-52-13-61 1-74 21-21 43-1 52 44 13 70 139 239 213 286 64 40 76 26 76-89 0-62 4-88 13-91 15-5 52 26 52 43 0 7 34 44 74 83 75 71 128 107 140 95 15-16 4-182-18-273-25-97-25-110-2-110 24 0 37 28 62 132 37 155 20 308-34 308-9 0-35-9-58-19z"/><path d="m2630 10962c-48-26-62-54-111-217-34-116-42-159-46-250-5-95-3-113 11-124 15-12 19-12 30 0 14 14 50 186 61 292l6 57h162c160 0 209 9 177 30-8 5-85 10-171 10h-157l9 43c6 23 19 54 29 69 11 15 20 32 20 37 0 20 27 24 189 30 138 5 166 9 166 21 0 13-27 15-170 18-150 2-174 0-205-16z"/><path d="m3531 10909c-6-18-11-62-11-98s-4-71-8-77c-8-13-98-34-143-34-24 0-30-4-27-17 4-22 60-29 124-15l44 10 1-77c1-90 9-125 31-129 20-4 28 36 28 138v78l50 11c28 6 62 11 76 11 31 0 94 26 94 39 0 16-31 17-120 4-47-7-89-13-94-13-7 0-4 86 6 170 2 19-2 26-18 28-17 2-24-5-33-29z"/><path d="m4264 10893c-67-13-95-99-114-351-13-166-24-231-58-342-23-72-31-86-50-88-31-5-52 15-52 48 0 41-10 60-30 60-53 0-31-129 26-150 77-29 120-2 155 95 25 72 59 269 59 343 0 56 13 157 32 255 14 73 32 87 113 87 90 0 155-52 155-124 0-68-100-146-189-147-57-1-103-18-99-37 3-14 15-17 67-15 210 6 344 170 240 296-53 65-149 91-255 70z"/><path d="m5124 10841c-43-27-76-107-82-203-4-72-3-78 21-102 35-35 73-33 119 4 36 30 36 30 42 7 3-12 6-61 6-108 0-86-1-87-32-116-85-75-155-174-172-246-4-15-2-45 4-67 22-82 118-107 185-48 64 56 75 90 75 238v131l60 55c55 51 79 88 66 101-7 7-66-31-95-61-14-14-28-26-31-26-4 0-11 82-14 183-8 207-15 241-56 262-38 20-59 19-96-4zm76-46c18-21 7-125-17-173-11-20-32-44-47-52-24-13-28-13-37 0-15 22-3 124 21 178 28 63 54 78 80 47zm20-746c-26-62-84-90-118-59-46 43-17 136 75 240l48 54 3-104c2-61-2-115-8-131z"/><path d="m8385 10781c-48-22-128-91-166-144l-28-38-6 38c-4 21-7 44-8 52-3 22-31 35-60 27-28-7-91-64-140-126l-28-35 6 45c17 128 17 136 1 149-27 23-42-3-50-82-3-39-17-112-30-162-13-49-21-96-18-103 12-33 49-2 128 107 46 63 97 126 114 139l30 23v-84c0-63 4-88 15-97 20-17 32-6 91 81 61 91 182 194 202 174 4-4 6-70 5-147-2-136-1-139 19-136 33 5 53 117 40 222-14 107-43 131-117 97z"/><path d="m8825 10761c-87-53-132-169-89-229 21-30 71-29 118 3l36 24v-117-117l-100-64c-118-75-186-143-195-195-18-93 76-176 200-176 49 0 59 4 90 33 47 44 65 117 65 269 0 108 2 119 20 130 26 16 75 86 67 95-4 3-25-6-48-21l-41-28 3 182c4 174 3 182-18 206-26 29-66 31-108 5zm63-83c-5-44-11-57-42-85-58-54-85-42-66 29 13 45 68 108 95 108 15 0 17-7 13-52zm2-524c0-171-24-220-106-216-124 5-173 97-96 181 32 36 173 138 195 140 4 1 7-47 7-105z"/><path d="m7084 10689c-3-6-2-15 2-19 11-11 421-16 431-6 5 4-1 14-11 22-25 18-411 21-422 3z"/><path d="m5761 10667c-6-8-6-18-1-27 8-13 50-15 257-15 136 0 364 4 506 9 248 8 257 9 257 28 0 21-3 21-312 13-425-11-584-11-645-3-36 5-55 3-62-5z"/><path d="m4660 10493c-52-55-128-113-147-113-7 0-13-9-13-20 0-29 46-26 93 5 40 28 46 21 27-31-14-37-30-153-23-170 3-8 15-14 27-12 18 3 22 12 28 69 4 37 24 113 44 170s36 113 37 124c3 35-28 26-73-22z"/><path d="m7253 10523c-127-3-133-5-133-24 0-21 4-21 168-17 161 3 212 13 212 38 0 6-26 9-57 8-32-1-118-4-190-5z"/><path d="m6352 10390c-71-29-115-129-187-425-36-147-83-261-113-272-21-9-60 17-66 43-8 29-42 32-51 4-8-27 8-54 49-79 70-44 118-18 170 92 19 40 39 97 46 127s21 89 32 131l20 75h47c59 1 151 47 206 103 35 37 39 46 37 86-2 52-24 90-63 111-31 16-92 18-127 4zm115-62c53-50 14-121-97-172-65-30-76-32-88-9-15 26 27 133 71 181 27 29 82 30 114 0z"/><path d="m5762 10289c-32-12-25-45 8-42 118 9 134 4 166-58 12-24 11-30-7-52-11-15-53-47-94-73-51-31-75-52-75-65 0-18 9-19 113-19 116 0 144 7 134 33-4 12-19 14-71 10-36-3-66-3-66 0 0 4 12 13 28 21 40 21 91 75 99 104 8 34-28 100-70 130-36 24-120 30-165 11z"/><path d="m2520 8958c-79-40-115-140-170-473-17-104-37-206-45-225l-13-35-22 48c-23 52-42 66-65 47-12-10-10-20 15-70 16-31 36-60 45-64 45-17 73 2 93 62 10 29 28 127 63 342 17 100 55 235 80 279 21 39 54 61 88 61 30 0 74-77 79-137 4-46 1-55-22-76-29-27-125-67-161-67-26 0-50-24-40-41 22-34 216 36 256 92 60 84-17 279-110 279-15 0-47-10-71-22z"/><path d="m3915 8889c-38-18-69-77-73-138-5-63 4-77 54-87 21-4 39 1 67 20 21 14 40 26 42 26 3 0 5-44 5-98v-98l-76-49c-164-108-211-229-123-318 28-27 33-29 81-23 61 8 94 24 129 63 54 57 62 88 56 198l-7 100 66 34c61 32 97 71 80 88-3 4-38-10-76-31l-70-37v95c0 52 4 98 10 101 14 8 13 78-1 109-21 46-111 71-164 45zm98-45c20-21-71-134-108-134-26 0-11 86 21 121 16 18 73 26 87 13zm12-468c7-67 5-79-16-117-30-54-65-79-117-86-39-5-42-4-58 30-26 54-13 94 49 153 59 57 106 93 124 94 7 0 14-28 18-74z"/><path d="m3255 8826c-16-7-51-29-77-49l-47-36-3 32c-2 27-7 32-28 32-24 0-25-3-27-60-1-33-7-95-14-137-13-91-7-128 21-128 21 0 25 12 33 87 6 55 66 151 116 186 21 15 44 27 50 27 13 0 14-37 1-113-5-32-7-64-3-72 10-28 42-16 62 23 10 20 40 59 66 86 59 61 65 54 65-77 0-54 5-107 10-118 11-20 46-26 52-9 7 23-12 243-24 268-20 41-56 40-111-2-25-19-48-32-51-29-3 4-6 19-6 35 0 26-30 69-47 68-5-1-21-7-38-14z"/><path d="m8084 8544c-39-7-88-19-108-28-53-22-66-59-111-317-9-53-29-148-44-210-16-63-26-120-23-127 2-7 14-12 25-10 15 2 26 20 44 73 13 39 26 94 30 122 4 36 11 54 22 58 9 3 83 11 165 19 106 10 153 19 164 30 14 14 14 16-1 22-10 3-48 3-85 0-137-13-242-18-242-13 0 21 41 246 50 272 8 25 19 34 48 43 53 15 138 30 207 37 62 6 82 16 71 34-9 14-121 12-212-5z"/><path d="m2688 8468c-62-49-79-80-47-86 9-2 30 9 47 23 16 14 32 25 35 25 4 0 0-21-8-47-8-27-15-67-15-91 0-39 2-43 23-40 15 2 23 11 25 28 1 14 12 60 23 104 36 136 12 160-83 84z"/><path d="m5775 8188c-2-7-8-47-15-88-14-99-26-158-37-195-12-37-7-55 16-55 12 0 29 21 50 65 49 99 171 199 203 167 6-6 13-45 16-86 7-107 29-123 70-48 32 61 87 121 130 144 56 30 62 21 62-98 0-65 4-96 15-110 15-19 15-19 31 1 13 17 15 37 9 120-8 131-18 151-72 148-56-2-114-34-154-84l-33-42-9 34c-10 39-31 66-58 74-32 11-95-14-143-56-50-44-53-42-35 41 8 39 8 54-1 65-15 18-39 19-45 3z"/><path d="m6556 8159c-39-31-76-113-76-170 0-53 17-74 54-67 29 6 36-7 35-60 0-33-6-41-59-80-47-34-66-56-90-106-39-78-46-125-30-202 10-46 21-67 50-97 33-32 43-37 67-31 99 25 134 113 132 328l-1 130 37 13c75 26 89 59 23 50-24-2-50-8-59-12-14-5-18 2-21 47-3 43 0 56 16 69 25 21 37 168 15 186-30 24-64 25-93 2zm54-73c0-58-7-75-30-69-13 3-23-4-34-24-12-23-15-24-15-8 0 44 48 145 69 145 6 0 10-20 10-44zm-23-460c-3-61-12-128-18-149-13-41-56-90-73-84-23 8-48 57-55 112-12 86 10 146 78 214 48 49 54 53 64 36 6-11 8-60 4-129z"/><path d="m4978 8095c-3-3-66-9-139-13-109-6-134-10-134-22 0-21 99-24 315-10 170 11 211 20 180 40-16 10-213 14-222 5z"/><path d="m7233 8067c-62-9-73-13-73-30 0-19 5-19 116-13 129 8 211 19 221 30 26 26-120 33-264 13z"/><path d="m3827 7994c-6-6-412-17-1262-33-324-6-340-7-343-25-4-19 7-19 504-13 553 8 1145 22 1292 33 81 6 92 9 92 25 0 18-10 19-138 19-76 0-142-3-145-6z"/><path d="m4999 7980c-117-9-139-16-139-41 0-18 6-19 88-13 89 5 284 31 308 41 8 3 11 9 8 14-6 10-123 10-265-1z"/><path d="m2733 7729c-24-7-33-15-33-31 0-18 4-20 38-15 101 16 197 19 214 5 17-12 17-15-1-44-11-18-69-65-135-109-109-74-130-95-106-110 5-3 80-1 167 5 238 17 274 41 75 50l-116 5 72 52c72 52 112 101 112 136 0 10-11 29-25 42-23 23-30 25-127 24-57 0-118-5-135-10z"/><path d="m3405 7725c-64-34-84-83-111-278-9-67-26-147-37-177-18-50-21-53-30-32-12 26-42 29-51 6s26-78 51-82c38-6 92 89 107 188 3 19 8 52 11 73l6 37h65c122 0 189 32 219 104 18 43 5 111-29 144-22 23-36 27-99 30-51 2-81-2-102-13zm168-57c28-32 22-89-12-122-24-23-43-29-106-37-97-12-102-8-86 66 17 76 50 113 104 118 57 4 79-1 100-25z"/><path d="m5069 6766c-59-16-137-71-170-122-34-50-76-150-100-239-45-161-87-258-121-279-13-8-24-5-49 13-29 22-32 22-48 6-15-15-14-18 12-41 36-31 107-34 137-4 28 28 76 135 102 229 13 45 27 81 33 81 5 0 24-9 40-20 34-22 106-27 152-9 15 6 58 33 95 61 90 69 132 144 126 226-9 101-78 133-209 98zm140-50c20-24 23-79 7-118-21-50-65-98-130-143-64-44-107-48-170-14l-42 22 23 59c13 32 33 73 44 92 21 36 95 94 137 106 45 14 118 11 131-4z"/><path d="m6420 6562c-48-37-65-58-95-116-62-123 0-178 114-102l51 35v-122-122l-116-55c-110-52-174-101-174-133 1-32 42-98 72-117 110-67 239 35 267 210 6 35 12 64 13 65 2 1 24 12 49 23 25 12 56 33 69 47 23 25 23 25 3 25-12 0-43-9-69-20s-48-19-50-18c-1 2-4 91-5 198-3 171-5 196-21 212-26 26-68 22-108-10zm70-58c0-45-41-100-99-132l-42-24 7 29c14 61 92 163 125 163 5 0 9-16 9-36zm-6-466c-19-121-106-208-173-173-34 17-59 70-44 94 8 12 204 121 220 121 2 0 0-19-3-42z"/><path d="m5531 6483c-5-21-15-65-22-98s-20-76-30-96c-25-51-28-89-6-103 28-18 49 4 67 70 9 32 23 70 33 84 28 44 106 101 144 107l36 6-6-61c-4-35-18-84-32-113-21-40-24-54-14-65 16-19 38-18 46 4 18 47 147 167 228 211 36 19 40 19 49 4 12-22 0-191-15-209-14-17-5-44 14-44 39 0 72 111 61 210-7 62-24 96-53 105-23 7-114-37-183-91l-48-36v50c0 33-6 56-16 66-30 31-112 14-175-35l-35-28v47c1 36-3 47-16 50-12 2-20-7-27-35z"/><path d="m2951 6229c-48-15-106-53-128-86-29-41-72-141-84-193-6-25-24-108-40-185-30-142-55-209-88-239-17-16-20-15-42 8-13 13-28 39-35 58-11 33-38 48-56 30-14-14 29-108 60-132 28-23 81-26 104-7 49 40 80 123 118 312 22 109 30 136 30 99 0-11 13-27 31-38 25-15 42-17 94-11 144 15 285 127 285 226 0 48-39 119-78 142-38 22-124 30-171 16zm153-69c38-34 54-87 35-122-21-41-83-99-129-119-66-30-145-36-170-14-10 9-26 15-35 12-21-9-19 20 5 86 48 127 115 187 212 187 38 0 54-6 82-30z"/><path d="m5111 6179c-13-17-48-47-79-67-65-44-82-66-64-84 8-8 17-9 26-3 49 36 67 47 71 43 3-3-1-24-9-46-19-53-23-129-8-144 18-18 42 9 42 48 0 40 22 108 61 189 16 33 29 68 29 77 0 29-42 21-69-13z"/><path d="m3560 5900c0-19 7-20 184-20 101 0 198-3 215-6 26-6 31-4 31 14 0 11-7 23-16 26s-105 6-215 6c-192 0-199-1-199-20z"/><path d="m8322 5887c-7-8-10-22-6-31 5-14 31-16 216-16 194 0 209 1 206 18-3 15-22 18-168 23-91 3-181 9-201 13-26 6-39 4-47-7z"/><path d="m6855 5744c-178-14-1684-38-2030-32s-410 4-410-12c0-20 191-34 465-34 427-1 1941 24 2030 34 52 5 180 10 285 11 104 0 244 1 310 2 66 0 159-3 208-8 90-8 99-5 73 30-13 19-32 20-383 21-242 2-430-3-548-12z"/><path d="m3630 5702c-6-2-10-12-10-23 0-18 9-19 154-19 148 0 184 7 160 30-9 8-284 19-304 12z"/><path d="m8373 5643c-7-2-13-13-13-24 0-18 9-19 158-19 155 0 204 9 172 30-8 5-74 10-147 10-72 0-137 2-145 4-7 3-19 2-25-1z"/><path d="m5132 5455c-39-58-84-138-100-178-57-136-80-318-51-405 32-99 114-174 170-157 31 10 22 31-20 47-73 29-119 136-108 253 9 89 43 218 77 285 16 31 54 94 85 140 56 85 64 112 33 118-11 2-38-29-86-103z"/><path d="m7504 5525c-4-9 11-35 36-65 23-27 54-74 68-102 24-47 27-64 27-153 0-97-2-102-39-172-26-50-61-94-109-139-71-68-117-94-162-94-28 0-33-21-10-40 24-20 98 6 166 57 112 85 193 214 208 331 16 128-14 229-100 332-50 60-75 73-85 45z"/><path d="m7240 5450c-14-4-46-8-73-9-46-1-48-2-70-48-12-27-25-51-30-54-4-3-32-102-62-220-47-187-52-216-39-229 12-13 16-13 28 0 12 14 66 172 66 195 0 6 5 27 10 47 10 35 15 38 78 57 37 11 94 26 127 34 42 9 61 18 63 30 3 13-4 17-32 17-44 0-130-17-178-36-21-7-38-11-38-8 0 5 27 74 54 139 13 30 13 30 167 45 124 12 154 18 154 30s-19 15-100 17c-55 1-111-2-125-7z"/><path d="m4683 5365c-80-25-128-60-143-105-14-44-6-75 20-75 14 0 23 15 36 60 7 23 22 37 63 58 69 34 89 34 102 0 8-21 5-38-12-79-28-72-69-127-167-228-112-116-108-150 15-125 92 19 176 26 204 19 26-8 59 4 59 20 0 27-149 40-223 19-22-6-40-9-42-7s33 44 77 93c150 168 191 321 95 355-35 12-31 12-84-5z"/><path d="m6130 5369c-78-31-149-164-119-221 7-13 17-26 23-30 19-13 76-9 106 7l30 16v-69-68l-54-26c-69-34-118-77-150-133-34-58-37-162-5-214 20-33 22-33 71-28 61 8 89 25 128 79 37 51 59 121 67 215 5 59 9 74 24 78 26 9 24 35-2 35-21 0-21 3-16 118 3 64 8 139 11 165 4 39 1 52-15 68-21 21-59 24-99 8zm60-63c0-13-7-29-16-37-9-7-14-22-11-36s-4-29-17-41c-29-27-65-44-76-37-16 10-12 53 10 94 35 71 110 109 110 57zm-24-433c-6-81-38-164-75-197-10-9-34-19-54-23-35-5-35-5-42 41-4 26-5 60-1 77 10 50 63 117 119 149 29 16 54 30 56 30s1-35-3-77z"/><path d="m5276 5304c-3-9-6-50-6-92s-5-106-10-142c-7-51-6-68 4-79 20-20 30-9 73 76 36 72 105 163 124 163 4 0 10-48 11-107 3-103 4-108 25-111 17-3 26 4 35 25 7 15 29 53 50 84 93 140 173 146 184 13 8-90 12-104 33-104 26 0 33 24 25 94-8 68-34 130-63 146-53 28-144-8-193-77-27-37-33-41-39-26-4 10-8 31-8 46-1 41-18 67-44 67-34 0-82-31-116-74l-31-39v65c0 62-11 88-36 88-6 0-15-7-18-16z"/><path d="m6480 5140c0-19 7-20 119-20 89 0 121 3 130 14 18 21-7 26-135 26-107 0-114-1-114-20z"/><path d="m4697 3647c-88-90-174-147-219-147-11 0-18-7-18-20 0-29 54-27 115 5 27 13 50 23 51 22 2-1-9-29-22-62-55-129-56-159-8-153 32 4 56 34 36 47-10 6-7 21 13 67 68 155 91 195 142 249 44 46 52 59 42 71-6 8-18 14-25 14-8 0-56-42-107-93z"/><path d="m7728 3703c-64-67-108-183-108-286 0-44 4-54 39-88 35-35 44-39 89-39 69 0 102 28 109 92 4 37 1 50-15 66-29 29-93 37-131 17-30-15-31-15-31 8 0 56 59 179 103 216 12 10 20 10 36-1 16-10 23-10 33 0 21 21-4 47-48 50-34 3-44-2-76-35zm66-279c22-9 20-50-4-74s-48-25-78-4c-21 14-21 17-7 44 19 37 50 49 89 34z"/><path d="m7136 3708c-9-12-16-27-16-32s-10-25-22-44c-23-35-159-132-184-132-8 0-14-9-14-20 0-33 48-24 125 24 38 25 70 44 71 43s-2-29-7-62c-13-101-11-145 6-152 9-3 18-3 21 0 11 11 34 152 34 207 0 37 8 72 25 108 14 30 25 60 25 68 0 23-47 17-64-8z"/><path d="m8663 3674c-26-30-78-78-115-107-76-57-92-94-37-83 27 5 30 4 24-12-39-91-46-149-19-159 28-11 49 11 46 48-1 18 7 56 19 83 23 53 88 156 98 156 15 0 83 101 77 115-11 30-45 15-93-41z"/><path d="m8992 3693c-13-3-44-25-70-49-34-33-43-47-34-56 8-8 26-2 72 26 54 33 67 37 102 32 86-14 124-51 112-111-11-60-56-110-131-146-92-44-155-46-190-5-28 33-26 53 13 130 26 50 23 71-11 64-24-4-66-89-72-142-5-39-2-48 28-80 58-64 144-65 266-6 170 83 207 267 66 323-44 17-117 27-151 20z"/><path d="m5112 3676c-58-15-115-55-149-106-20-29-23-30-23-11 0 17-5 22-22 19-40-6-94-209-69-256 30-57 142-67 219-21 82 50 180 129 200 161 31 50 48 122 37 154-22 60-99 83-193 60zm128-56c23-23 23-23 9-73-13-48-66-108-139-157-113-76-164-90-201-53-20 19-20 21-3 93 10 40 20 67 22 59s11-20 20-27c14-11 20-5 43 46 38 84 104 129 192 131 24 1 44-6 57-19z"/><path d="m5469 3650c-43-23-96-81-105-114-3-13 0-35 7-48 8-12 14-43 14-67 1-54 33-85 98-95 60-9 93 0 149 41 94 68 128 205 64 260-53 45-164 56-227 23zm168-45c46-19 52-61 19-128-43-87-122-127-191-95-17 8-25 19-25 37 0 30 32 105 49 115 20 13 12 44-11 48-20 3-18 6 17 25 43 23 80 23 142-2z"/><path d="m5894 3646c-66-29-124-133-124-224 0-75 42-122 123-136 69-13 168 56 204 143 8 19 15 57 15 84-1 108-115 178-218 133zm99-40c98-40 83-179-27-252-47-32-95-27-126 13-34 43-27 82 36 196 9 16 30 35 47 43 40 16 32 16 70 0z"/><path d="m6433 3508c-30-40-19-92 19-86 31 5 65 54 52 76-14 21-57 27-71 10z"/><path d="m8126 3488c-3-7-4-29-3-48 2-27 7-36 23-38 28-4 56 30 52 65-2 24-8 28-36 31-20 2-34-2-36-10z"/><path d="m7298 3433c-8-10-34-52-57-94-42-78-45-109-11-109 23 0 116 179 107 204-8 21-20 20-39-1z"/><path d="m10020 3342c0-17 10-20 83-28 45-4 156-8 247-9 140 0 165 2 165 15 0 17-53 22-332 35-157 7-163 6-163-13z"/><path d="m3483 3304c-3-9 3-25 16-37 20-21 33-22 189-25 103-2 173 1 182 8 28 19-9 27-163 34-104 5-159 12-174 22-29 18-42 18-50-2z"/><path d="m8708 3235c-2-3-90-10-194-15-104-6-234-15-289-21-55-5-314-14-575-20-261-5-686-14-945-19-1234-25-1575-23-2330 14-20 1-30-4-30-13 0-8 14-18 30-23 114-33 1468-44 2495-20 289 7 716 17 950 22s454 14 490 20c36 5 101 10 145 10s121 5 170 11c50 6 297 14 550 18 399 5 460 8 460 21s-59 15-461 18c-253 1-463 0-466-3z"/><path d="m10024 3077c-12-33 6-37 181-37 181 0 205 3 205 26 0 11-29 14-152 14-84 0-170 3-190 6-29 5-39 3-44-9z"/><path d="m3547 3073c-38-4-58-26-41-43 9-9 258 3 334 16 33 5 34 7 15 20-14 11-50 14-144 12-69-1-143-3-164-5z"/><path d="m8980 2999c0-6 18-31 39-57 105-127 137-289 102-517-36-230-165-498-291-604-28-24-49-45-46-48s34 8 70 25c56 26 71 39 116 104 159 226 249 579 209 817-22 128-120 291-175 291-13 0-24-5-24-11z"/><path d="m5557 2820c-82-73-163-261-208-484-33-168-14-283 58-346 28-25 42-30 71-28 49 4 49 19-1 43-87 41-109 147-71 335 44 213 113 373 191 447 29 27 43 48 39 58-9 24-30 18-79-25z"/><path d="m8725 2661c-38-16-113-91-143-144-27-48-61-148-77-225-16-76 35-125 130-126 66-1 122 25 151 69 46 70-103 128-191 76-19-11-35-17-35-13s11 41 25 83c48 153 125 239 211 239 36 0 44 3 44 19 0 28-68 41-115 22zm-10-383c33-15 32-22-9-47-44-28-106-29-106-2 0 23 45 61 71 61 10 0 30-5 44-12z"/><path d="m6424 2592c-62-51-114-181-121-306-5-75-3-98 12-126 26-53 55-79 96-90 62-17 117 17 139 86 31 94-107 178-176 109l-26-26 7 58c13 105 57 215 104 257 20 18 21 18 30-8 15-37 51-36 51 2 0 56-70 82-116 44zm58-369c25-22 23-56-6-90-22-25-26-26-52-14-22 10-25 14-13 21 12 8 12 12-3 26-13 13-14 22-6 45 12 34 50 40 80 12z"/><path d="m4828 2556c-49-38-78-90-60-108 8-8 25 4 61 41 59 61 87 66 96 18 9-47-10-112-50-173-32-49-36-52-86-56-43-5-58-11-81-37-33-37-36-76-8-91 25-13 96 15 136 55l26 26 85-21c121-30 203-36 228-17 28 22 16 29-67 37-77 8-175 28-195 39-10 5-7 16 11 41 41 62 59 124 54 186-8 98-69 122-150 60zm-53-336c-3-5-11-10-16-10-6 0-7 5-4 10 3 6 11 10 16 10 6 0 7-4 4-10z"/><path d="m7244 2494c-51-76-147-160-179-156-35 5-35-34 0-50 22-10 30-8 55 11 17 12 30 19 30 16s-16-49-36-101c-37-99-38-124-6-124 21 0 49 26 39 36-3 4 3 29 14 58 12 28 28 71 36 96s40 89 70 143c31 54 53 104 49 112-11 29-35 15-72-41z"/><path d="m5832 2477c-64-59-144-115-181-128-20-7-31-18-31-30 0-38 74-17 155 45 26 20 49 35 51 33s-7-39-21-83c-14-43-25-96-25-117 0-33 3-38 21-35 18 2 25 19 45 97 14 52 38 126 53 165 16 39 26 77 24 84-9 23-44 12-91-31z"/><path d="m7473 2456c-40-18-83-98-90-170-6-62 18-100 75-116 153-42 301 78 249 202-30 71-159 118-234 84zm134-56c52-31 66-60 51-106-17-50-66-84-124-84s-92 15-99 43c-7 26 37 146 58 159 22 14 81 8 114-12z"/><path d="m7840 2342c0-15 13-21 64-30 92-17 210-16 226 3 16 20 10 21-131 34-155 15-159 14-159-7z"/><path d="m6720 2322c0-21 18-32 52-32 14 0 19 6 16 23-2 17-11 23-35 25-27 3-33 0-33-16z"/><path d="m5993 2243c-3-10-21-58-40-107-37-97-39-119-7-124 18-3 24 7 44 65 12 37 29 80 36 95 8 15 14 41 14 58 0 23-4 30-20 30-11 0-23-8-27-17z"/><path d="m6243 1110c-79-16-86-24-80-91l5-59-56-50c-69-61-185-120-236-120s-86 25-86 61c0 23 12 37 70 80 52 39 70 59 70 76 0 18-5 23-26 23-37 0-88-33-163-104l-63-61 5 87c5 68 3 89-9 98-32 27-39-2-37-157 1-81 2-151 3-155 0-5 9-8 20-8 13 0 22 9 26 27 4 15 17 43 28 63 18 29 21 32 24 15 5-26 30-53 66-72 70-36 219 10 322 101l51 45 7-60c7-71 11-79 36-79 18 0 19 8 17 120-1 90-5 120-14 120-20 0-16 47 5 55 9 3 73 9 142 12 105 5 131 3 157-11 18-9 39-16 48-16 26 0 16 29-17 50-28 17-50 20-153 19-66-1-139-5-162-9z"/><path d="m4182 978c-50-24-72-60-79-132-6-63 11-102 62-143 19-15 35-32 35-36 0-5-38-52-85-104-86-97-100-128-70-153s260 21 327 65c66 44 48 107-48 171l-53 35 29 47c33 54 48 116 30 127-16 10-34-11-54-66-9-25-23-54-31-65-13-18-15-17-54 21-35 33-41 45-41 81 0 60 14 91 52 114 43 26 74 26 81-1 9-32 51-22 55 13 3 22-2 30-23 38-40 15-85 11-133-12zm96-355c118-73 107-117-40-153-94-23-158-32-158-22 0 8 159 192 167 192 2 0 16-8 31-17z"/><path d="m4633 940c-105-60-127-121-126-346 0-85 33-127 112-145 48-11 88 8 139 66 52 59 82 147 89 263 5 67 2 90-12 123-34 75-113 90-202 39zm141-29c41-45 39-163-5-284-26-70-89-137-129-137s-78 34-86 78c-8 42 11 168 33 224 13 34 18 37 44 31 36-7 41 18 8 41-21 14-21 14 3 29 69 43 105 48 132 18z"/><path d="m5109 931c-109-35-148-95-164-253-12-115 21-170 112-187 69-14 119 2 165 50 70 73 100 224 61 306-29 61-114 103-174 84zm103-68c37-40 53-104 38-161-28-114-83-172-161-172-35 0-54 5-69 20-25 25-37 70-21 80 9 5 11 21 6 51-8 52 21 131 54 149 12 6 21 17 21 25 0 20 29 34 71 35 26 0 42-7 61-27z"/><path d="m3404 749c-15-25 20-29 192-27 161 3 179 5 182 21s-11 17-182 17c-122 0-187-4-192-11z"/><path d="m6385 664c-66-8-276-18-467-22-311-6-349-9-365-24-27-28-5-41 48-29 24 6 193 12 374 15 182 3 359 9 395 15 36 5 107 12 158 16 81 6 92 9 92 26s-7 19-57 18c-32-1-112-8-178-15z"/><path d="m3488 547c-58-8-68-12-68-30 0-19 4-20 93-13 163 12 217 19 217 28 0 27-111 35-242 15z"/><path d="m6383 493c-29-6-49-31-36-44 7-7 23-7 49 0 22 6 47 11 57 11 29 0 20-41-19-81-37-38-38-59-3-59 26 0 103-39 94-48-3-4-48-9-98-12-84-5-92-7-92-25 0-19 5-20 90-16 90 3 155 20 155 41 0 24-22 50-60 71-39 22-39 22-19 47 26 34 25 87-3 106-21 15-66 19-115 9z"/><path d="m6067 269c-64-74-165-165-174-156-2 2 8 36 22 74 31 87 31 93 1 93-17 0-34-15-64-57-63-88-93-119-137-142-86-45-141-7-101 71 17 32 1 62-30 56-16-3-19-13-22-79-3-89 4-100 77-107 54-5 127 26 170 72l24 26 11-23c27-53 89-29 199 78 59 56 59 56 51 23-5-18-8-49-9-68 0-29 4-36 23-38 18-3 22 1 22 26 0 16 9 58 20 93 11 34 23 80 26 101 6 35 5 38-17 38-17-1-43-23-92-81z"/></g><g fill="#44b" transform="matrix(.054411653 0 0 -.054411653 1646.86294753537 1799.13609691264)"><path d="m750 2973c-57-10-88-25-119-57-40-41-55-100-46-179 6-45 12-61 32-77 32-25 35-25 64-1 22 17 24 26 21 89-4 105 24 120 164 87 33-7 119-19 190-25 88-8 134-16 144-26 32-32 8-420-28-456-18-18-126-28-289-28-185 0-206-4-250-52-55-58-58-82-55-363 1-145 7-274 13-293 11-34 51-62 89-62 12 0 35 14 52 31l31 30-6 238c-3 130-3 249 0 264l5 27h112c234 1 363 26 423 82 58 54 98 260 91 463-4 122-7 138-34 191-40 81-79 100-217 108-174 10-361 14-387 9z"/><path d="m3660 2971c-42-9-83-34-103-65-39-59-50-127-54-343-5-206-5-212 18-252 28-50 78-86 143-102 48-12 257-8 370 7l49 7-7-104c-4-57-11-189-16-294-9-177-9-192 8-214 35-47 100-46 136 2 22 29 27 86 42 452 7 191 0 235-44 283-45 48-92 56-241 38-146-18-229-20-265-6l-26 10v162c0 156 8 230 27 249 5 5 99 6 210 2l201-6 5-50c3-39 11-56 31-74 34-29 48-29 80 0 24 20 26 30 28 113 4 147-23 169-218 179-242 11-340 13-374 6z"/><path d="m1565 2945c-14-13-25-32-25-42s-1-297-3-638c-2-677-3-662 55-694 33-19 73-7 101 31 18 24 20 51 29 300 5 150 10 278 12 283 2 6 37 8 97 3 52-3 135-7 186-7 154-2 161-10 143-176-21-189-27-310-18-343 12-45 45-72 86-72 71 0 102 46 102 151 0 33 7 118 16 187 24 190 9 280-58 349-50 52-112 67-263 65-71-1-164-6-205-11-41-4-78-7-81-5-4 2-10 108-13 236-9 286-17 352-47 384-31 33-82 32-114-1z"/><path d="m2542 2944c-55-38-64-109-53-419 6-186 9-215 28-250 50-95 116-125 302-135 75-4 171-5 215-1l78 7-4-178c-2-97-7-181-11-184-4-4-42 1-85 11-104 26-285 27-363 3-106-33-149-107-99-170 26-34 68-41 132-21 74 23 202 20 308-7 182-47 274 5 301 168 12 77 27 831 19 994-7 152-20 181-86 186-88 7-103-51-104-401v-219l-201 4c-197 3-201 3-220 27-18 21-19 42-19 283v260l-29 29c-33 33-74 38-109 13z"/><path d="m2374 1391c-55-34-79-78-79-147 0-51 4-66 27-96 35-45 102-73 153-64 78 15 146 111 131 188-20 108-145 172-232 119z"/><path d="m1853 999c-39-11-66-56-61-101 6-59 69-64 76-6 4 30 34 38 145 38h67v-110c0-135-1-136-132-126-85 6-89 6-113-18-24-25-25-28-25-179 0-162 4-177 47-177 35 0 43 29 43 159v121h73c85 0 141 14 168 41 17 17 19 34 19 169 0 147-1 152-25 175-23 24-30 25-137 24-62 0-128-5-145-10z"/><path d="m2985 1000c-91-16-93-18-104-58-15-51-14-537 0-564 19-36 69-48 204-48 121 0 127 1 151 25l24 24-2 292-3 292-26 19c-31 23-161 33-244 18zm169-86c14-5 16-37 16-250v-245l-102 3-103 3v240 240l40 6c57 9 131 10 149 3z"/><path d="m2351 971c-24-24-29-73-37-372-6-232-6-237 15-258 23-23 29-25 51-11 12 7 16 40 20 150l5 141 35-23c19-13 59-55 88-93 30-39 78-96 108-128 47-51 56-57 74-47 29 16 25 42-15 92-19 24-62 78-95 121-61 77-61 77-33 77 15 0 46 9 69 19 56 26 67 57 62 179-6 156-27 172-220 172-93 0-111-3-127-19zm257-74c16-13 17-168 0-185-7-7-41-12-84-12-40 0-84-4-98-10l-26-10v120 119l98-6c53-3 103-10 110-16z"/></g></svg>