<svg height="2031.424992pt" preserveAspectRatio="xMidYMid meet" viewBox="0 0 1973.707783 2031.424992" width="1973.707783pt" xmlns="http://www.w3.org/2000/svg"><g transform="matrix(.1 0 0 -.1 -2.5 2052)"><path d="m661 20441c-21-44-40-88-43-98-4-17-18-21-82-26-84-7-116-19-116-43 0-13 13-14 85-8l86 7-11-27c-24-65-27-67-91-65s-75-2-66-26c5-11 21-15 56-15 51 0 51 0 40-27-15-40-3-75 24-71 15 2 22 11 24 30 4 54 19 68 74 68 45 0 50-2 44-17-28-69-42-122-35-133 13-21 31-1 66 75l34 73 55 7c30 3 55 10 55 15 0 4-20 11-45 14-25 4-45 10-45 13s5 23 12 44l11 39h83c75 0 109 10 85 24-5 3-37 10-70 14-34 5-64 11-67 14s9 36 25 73c33 71 37 90 22 99-21 13-41-10-77-90l-37-84h-44c-23 0-43 3-43 7s16 42 36 84c36 77 39 109 9 109-10 0-30-30-54-79zm79-164c0-2-7-24-16-50-16-47-16-47-65-47-48 0-48 0-39 25 6 14 14 36 20 50 8 22 16 25 55 25 25 0 45-1 45-3z"/><path d="m1291 20440c-62-32-125-60-140-62s-26-9-26-18c0-11 11-15 45-14 25 1 56 5 69 9 19 6 23 5 18-6-26-61-68-174-81-219-13-47-14-57-2-69 26-25 42-5 61 74 26 113 100 252 152 290 40 28 54 64 28 71-5 1-61-24-124-56z"/><path d="m1625 20484c-22-8-59-22-82-30-53-19-103-65-103-93 0-30 26-26 60 8 28 27 157 87 167 77 3-3-3-26-13-51-12-33-33-60-73-92-77-63-74-76 16-85 118-12 197-67 191-132-5-49-52-69-162-70-89-1-91 0-89 22 2 16-3 22-16 22-47 0-50-57-5-87 20-13 41-15 107-10 106 8 151 22 190 57 25 22 32 36 32 68 0 74-88 153-187 167l-46 7 35 31c66 58 93 162 51 191-27 19-23 19-73 0z"/><path d="m2013 20404c-75-51-113-82-113-94 0-27 18-34 43-16 80 57 121 85 123 83 2-1-13-47-31-102-24-69-35-118-35-158 0-55 1-58 23-55 19 3 23 11 28 59 6 58 69 254 97 300 16 29 11 59-10 59-7 0-64-34-125-76z"/><path d="m2335 20466c-39-17-61-43-73-86-12-48 0-77 43-97l35-17-51-45c-69-60-129-137-129-166 0-67 72-70 210-9 94 41 118 59 130 90 14 36-6 97-39 122l-30 24 25 38c34 52 30 94-10 98-37 5-58-14-34-32 15-11 15-14-4-44-22-34-50-41-80-18-42 31 3 100 72 112 53 8 62 13 58 27-6 17-87 19-123 3zm94-247c16-15 21-30 19-52-3-29-10-36-83-71-44-21-97-41-119-44-38-5-38-5-26 19 18 32 158 169 173 169 7 0 23-9 36-21z"/><path d="m15186 20358c-30-46-82-110-115-142-60-60-61-60-123-61-75-2-144-33-158-71-14-35-13-41 9-63 17-17 25-18 63-10 23 6 69 25 100 45l57 35 53-41c95-72 175-98 218-70 20 13 2 26-49 34-36 6-91 38-149 87l-30 26 59 64c70 75 153 195 153 224 1 11-7 21-16 23-12 2-33-21-72-80zm-271-273c-36-23-75-33-75-20 0 12 67 45 90 45 23-1 21-3-15-25z"/><path d="m11141 20399c-17-16-49-67-71-112-105-214-32-338 146-247 32 16 59 30 60 30 0 0 6-18 13-40 14-49 57-82 130-104 65-19 107-20 140-3 46 23 37 37-23 37-78 0-142 19-173 52-23 24-28 39-31 98-3 39-10 74-17 80-16 13-45 2-45-17 0-30-44-76-95-99-82-38-111-14-95 79 13 84 92 227 124 227 19 0 26-23 26-80 0-61 7-80 30-80s30 19 30 81c0 115-80 167-149 98z"/><path d="m15883 20343c-54-59-47-110 19-137l31-13-52-41c-68-54-123-71-160-51-22 13-26 21-25 59 0 25 7 67 14 93 26 87-18 108-118 58-63-32-92-65-92-106 0-37 33-33 51 7 8 19 31 42 54 55 59 33 67 31 50-18-8-23-15-65-15-94 0-41 5-56 23-73 69-65 191-37 292 67 32 34 46 41 77 41 85 0 209 43 222 77 7 17-5 16-93-7-41-11-91-20-111-20-36 0-36 0-32 41 8 81-79 121-135 62zm79-63c-3-43-6-46-37-32-29 14-31 28-8 54 26 29 49 18 45-22z"/><path d="m8932 20314c-26-18-52-65-52-94 0-11 11-32 24-45l25-25-67-59c-73-66-166-121-205-121-44 0-77 18-77 41 0 12 18 67 40 122 23 56 38 107 36 114-7 18-89 17-157-3-62-18-96-48-78-70 14-17 24-18 41-1 23 24 128 50 128 33 0-3-14-40-32-83-50-123-37-174 48-193 85-20 186 25 304 137l77 72 147 9c147 9 188 21 156 43-9 7-63 8-143 5l-127-5 15 29c20 39 19 73-3 93-23 21-71 22-100 1zm52-75c-18-35-34-45-44-28-10 15 13 65 32 72 21 7 27-15 12-44z"/><path d="m2407 19894c-3-3-232-10-509-15-650-12-1118-25-1343-39-99-7-259-15-355-18-146-6-175-9-175-22 0-21 173-24 465-10 252 13 563 23 1220 39 245 6 618 16 830 21 502 13 877 13 885 0 9-15 42-12 49 5 3 8-2 21-10 30-13 13-82 15-533 15-285 0-520-3-524-6z"/><path d="m10858 19876c-97-41-175-86-188-110-24-46-11-59 95-96 55-20 111-43 125-53 26-18 80-23 80-7 0 21-85 71-165 97-81 26-83 27-58 40 20 10 160 13 694 13 662 0 669 0 669 20s-7 20-642 21l-643 1 68 31c47 21 67 36 67 49 0 25-32 23-102-6z"/><path d="m13289 19828c-18-29-20-44-15-117 6-93 22-125 54-105 13 9 18 28 20 97l3 86 52 10c29 5 95 12 148 16 94 6 95 6 109-20 7-14 17-25 22-25 4 0 8-11 8-24 0-23-4-25-52-28-39-2-53-7-53-18s15-16 65-18c61-3 79-12 80-38 0-16-269-6-297 12-36 22-63 18-63-10 0-34 34-42 234-56 189-13 190-12 180 51l-6 36 513 7c283 3 525 9 538 13l24 6-23-31c-32-43-22-82 21-82 28 0 30 2 24 29-5 26-3 30 32 44 61 25 77 40 70 69-9 35-182 121-247 122-72 2-64-23 24-69l75-40-167-7c-92-3-334-10-538-14l-372-7-7 32c-4 18-18 50-33 71l-26 40h-111c-61 0-137-5-169-11-43-9-60-9-69 0-17 17-26 14-48-21z"/><path d="m3510 19783c-17-60-24-486-11-673 7-91 16-237 21-325s16-268 24-400c47-763 50-1061 27-2775-16-1145-17-1289-6-1754 5-216 4-325-4-366-6-31-9-65-5-74 9-24 43-20 48 7 2 12 10 48 17 80 9 44 10 123 3 340-11 348-10 692 6 1982 17 1430 15 1744-21 2370-23 414-40 691-50 830-5 83-9 294-8 470 2 286 0 320-14 323-11 2-19-9-27-35z"/><path d="m8900 19700c0-12 12-25 33-35 17-9 50-26 72-40l40-25h-1237-1238v28c0 41-11 51-69 62-68 13-271 13-291 0-17-10-32-187-18-206 5-6 23-14 41-17 17-4 63-13 100-21 38-9 103-18 144-22 89-8 93-5 93 78v58l1268 3c697 1 1278 6 1292 11 24 8 24 7-5-18-16-15-47-38-67-53-39-27-48-50-24-59 19-7 48 10 124 71 64 52 76 79 47 109-17 16-114 55-160 63-16 2-47 11-68 19-53 20-77 18-77-6zm-2435-52 45-12v-89c0-77-2-88-16-83-8 3-45 11-82 16-115 19-154 31-148 47 3 8 6 41 6 74v59h75c41 0 95-5 120-12z"/><path d="m13456 19364c-3-9-6-40-6-69v-54l-162-6c-90-3-1110-10-2268-15-1158-6-2217-11-2355-12-222-1-994 10-1870 28-185 4-316 2-342-4-41-9-43-9-43 13 0 36-10 55-30 55-26 0-54-36-45-57 5-10 11-40 14-68 5-45 8-50 31-50 20 0 26 6 28 27 6 49 10 49 1182 28 366-6 825-11 1020-11 988 1 4620 21 4723 26l117 6v-69c0-77 14-127 37-136 9-4 18-4 21-2 2 3 4 52 3 110l-2 104 123 7c178 9 2259-2 2613-14 165-6 417-16 560-22 143-5 599-13 1013-17l754-7-52-59c-29-33-58-66-66-73-23-23-18-53 9-52 15 0 42 23 82 71 33 39 77 89 98 110 56 58 50 74-52 125-149 74-242 97-249 63-2-11 20-26 73-50 41-19 90-47 108-62l32-28-725 4c-399 3-826 9-950 15-640 29-977 35-2143 35l-1227 1v23c0 13 6 22 15 22 23 0 18 47-7 64-29 20-54 20-62 0z"/><path d="m782 19278c-7-7-12-19-12-28 0-20-61-200-89-262-19-42-25-47-64-53-67-10-77-15-77-37 0-19 4-20 50-14l50 7-21-53c-12-29-30-80-42-112l-20-59 27-24c15-13 34-23 42-23 24 0 98 39 132 70 60 55 33 68-46 21-60-35-92-46-92-31s69 193 79 202c4 5 56 15 116 23 171 24 187 32 98 45-26 4-79 4-117-1s-71-7-73-5c-3 2 4 21 15 43 11 21 37 91 58 155 32 98 36 119 25 132-16 19-23 20-39 4z"/><path d="m1860 19062c0-13 12-22 40-31 110-33 84-130-64-236-107-76-118-105-47-126 54-16 313-8 335 10 27 23 0 32-79 26-38-2-107-1-152 3l-82 7 83 62c61 46 90 74 105 106 27 56 27 107-1 142-38 49-138 75-138 37z"/><path d="m2427 19020c-29-16-45-36-68-83-72-153-1-227 215-227 101 1 165 12 177 32 15 24-7 28-109 20-157-14-244 7-258 62-7 31 31 121 64 146 30 24 64 25 97 4 46-30 75 5 35 41-30 27-107 30-153 5z"/><path d="m1200 18920c0-19 7-20 158-20 86 0 164 5 172 10 32 21-17 30-172 30-151 0-158-1-158-20z"/><path d="m18816 18925c-10-27-7-57 12-111l18-51-103-87c-57-48-101-92-98-97 14-21 55-6 110 41 33 27 75 62 94 77l33 27 25-29c39-45 144-125 164-125 32 0 33 22 3 47-83 69-155 136-152 142 2 4 29 31 60 59 49 44 62 51 86 46 21-4 31-2 35 10 11 27-3 46-35 46-38 0-61-12-126-68-29-24-56-42-59-39-3 4-8 32-12 64-5 49-9 58-27 61-13 2-24-4-28-13z"/><path d="m13424 18801c-48-22-84-57-84-83 0-24 32-42 114-63 93-24 125-54 133-122 6-53 6-53-30-68-53-22-87-19-153 15-64 32-94 38-94 17 0-18 26-40 80-67 85-44 205-27 245 33 12 18 13 35 5 82-8 51-16 66-48 97-26 23-60 42-98 53-104 30-102 29-72 49 49 32 85 37 113 14 21-16 28-18 40-8 20 16 19 22-5 48-26 28-88 29-146 3z"/><path d="m6355 18796c-16-8-39-27-49-43s-28-34-40-39c-22-10-32-39-47-144-11-80-5-111 27-141 76-71 247 34 285 175 35 128-70 242-176 192zm109-75c40-69 9-166-72-228-87-66-122-55-122 40 0 56 1 59 18 45 42-37 76-27 48 14-19 27-20 57-4 95 34 80 95 96 132 34z"/><path d="m1258 18791c-72-7-84-12-74-36 5-14 21-15 128-9 134 8 209 22 216 42 4 13-137 15-270 3z"/><path d="m11113 18093c-23-12-33-24-33-40 0-33 27-40 51-14 15 16 27 20 47 15 76-19 149-78 138-112-4-11-45-55-91-96-86-79-113-124-100-167 10-29 58-47 162-59 124-14 133-13 133 9 0 16-12 21-72 30-165 25-163 24-166 49-3 18 19 44 99 121 93 91 101 101 95 127-13 50-47 86-110 114-81 38-114 42-153 23z"/><path d="m659 17944c-27-8-68-33-98-60-42-38-51-52-51-80 0-40 8-48 113-114 78-50 98-82 60-94-114-33-214-25-192 15 8 15 6 21-7 26-24 9-48-10-52-39-7-58 79-81 215-58 82 14 113 34 113 74 0 42-35 74-172 159-16 10-28 23-28 30 0 29 111 107 151 107 12 0 15-7 11-25-3-20 0-25 16-25 19 0 52 33 52 52 0 17-41 48-62 47-13 0-44-7-69-15z"/><path d="m10852 17888c-18-23-72-131-72-144 0-28-33-93-48-98-147-40-172-50-172-67 0-23 27-24 94-4s67 20 50-27c-8-24-18-73-21-109-5-60-3-69 17-89 45-45 160-4 160 57 0 29-11 29-48-2-31-26-66-33-77-15-9 14 14 128 34 175l18 40 94 13c52 7 103 12 115 12 11 0 33 14 49 30 16 17 25 30 19 30-5 0-54-7-109-15-156-23-146-26-126 43 10 32 30 80 46 105 27 47 28 77 2 77-8 0-19-6-25-12z"/><path d="m1782 17845c-36-16-50-41-33-58 9-9 17-8 34 3 34 21 108 30 114 13 14-35-63-130-180-223-31-25-57-53-57-63 0-16 12-17 148-15 123 3 147 5 147 18 0 12-21 16-105 20l-104 5 29 19c51 34 141 129 164 175 24 46 22 78-5 105-20 20-107 21-152 1z"/><path d="m14127 17793c-17-16-2-33 57-62 71-35 138-101 173-172 35-70 49-199 35-308-16-116-40-180-102-271-28-40-49-77-48-81 7-22 76 32 115 90 105 155 127 438 46 598-38 75-114 150-187 184-63 30-78 34-89 22z"/><path d="m2194 17766c-27-13-56-26-64-29-39-13-82-157-66-222 8-30 56-55 105-55 140 0 305 175 255 272-31 60-141 77-230 34zm138-27c46-12 56-40 34-93-37-88-166-158-240-130-39 15 0 145 56 187 20 15 90 45 108 47 3 0 22-5 42-11z"/><path d="m1120 17741c0-31 61-42 212-39 110 3 133 6 133 18s-22 16-110 22c-60 3-138 9-172 12-58 6-63 5-63-13z"/><path d="m2805 17732c-6-4-19-27-30-51-33-75-154-181-189-168-7 3-16 19-19 36-8 40-43 43-53 5-10-41 23-78 74-82 50-4 93 17 150 71 40 40 42 40 42 16 0-37 26-67 65-75 34-6 63 6 153 64 22 14 22 14 21-32-3-60 17-82 82-91 92-13 249 27 249 62 0 16-20 16-95-2-67-16-153-19-174-6-19 12-8 93 19 136 11 18 20 42 20 54 0 43-29 34-98-30-38-35-89-75-115-89-44-23-48-23-64-8-15 16-15 24-3 89 9 48 10 76 4 87-13 19-26 24-39 14z"/><path d="m5558 17723c-46-53-52-100-53-393 0-241-2-262-28-384-31-145-71-254-99-274-25-18-20-56 9-60 13-2 27 5 38 20l16 23 28-32c60-71 81-265 71-643-4-136-3-272 2-305 21-140 117-265 203-265 37 0 31 15-21 51-54 37-97 101-119 176-13 45-15 111-13 416 3 353 2 364-21 457-25 98-56 162-90 179-18 10-18 12 4 73 59 162 86 382 74 598-7 130-6 174 6 231 22 108 45 127 64 54 8-34 16-45 30-45 11 0 23 9 26 20 8 24-13 90-34 108-22 18-75 15-93-5z"/><path d="m8490 17681c-5-11-10-29-10-40 0-21-35-117-106-288-38-93-38-93-74-93-20 0-41 5-48 12-16 16-45-12-36-35 5-13 19-17 56-17 44 0 49-2 43-17-12-32-35-127-35-146 0-10 11-29 25-42 31-32 74-32 140-1 58 27 90 59 82 81-8 19-31 19-48-1-33-40-131-69-142-41-2 6 5 46 17 87l21 75 80 6c87 6 135 17 135 29 0 15-52 21-121 14-52-5-69-4-69 6 0 7 20 58 44 114 84 194 112 286 93 305-17 17-35 13-47-8z"/><path d="m10032 17625c-52-56-92-141-92-193 0-72 73-90 151-37 77 53 73 53 65-3-5-39-3-54 9-66 46-46 261-25 322 32 36 33 19 38-54 17-32-10-95-20-140-23l-83-5v44c1 49 23 122 40 127 15 5 12 32-4 38-7 3-19 23-26 45-17 52-52 79-100 79-33 0-44-7-88-55zm129-22c6-16 15-36 20-45 6-13-4-27-49-66-76-65-109-85-127-78-11 4-14 13-9 33 31 132 136 231 165 156z"/><path d="m1100 17620c0-19 7-20 158-20 154 0 192 6 178 29-5 7-62 11-172 11-157 0-164-1-164-20z"/><path d="m13440 17549c-48-61-95-200-112-335-11-84-10-99 10-180 23-94 58-158 92-169s35 1 7 52c-45 85-60 156-55 262 7 124 53 278 103 344 40 52 45 77 15 77-12 0-36-20-60-51z"/><path d="m6464 17540c-61-30-92-69-103-125-14-75 1-98 108-165 72-46 88-82 62-143-21-48-53-77-87-77-11 0-40 14-63 30-32 24-41 35-36 50 4 13 1 22-9 26-21 8-56-13-56-34 0-35 111-122 154-122 121 0 208 161 136 253-11 14-52 46-90 71-60 40-70 51-70 76 0 47 17 78 59 105 45 30 75 30 79-2 5-32 28-49 47-33 29 24 16 74-26 95-37 20-56 19-105-5z"/><path d="m7735 17521c-59-36-100-104-93-152 6-45 34-34 54 21 18 50 58 99 71 87 9-9-12-135-42-247-30-114-31-142-7-163 30-27 68-21 112 19 61 55 96 117 130 228 42 136 50 155 71 166 10 6 66 12 126 14 59 2 110 5 113 5 3 1-6 11-19 21-19 16-38 20-100 20-99-1-151-13-177-43-11-13-35-71-53-128-42-137-54-162-104-220-42-49-73-64-63-31 2 9 12 53 22 97 9 44 20 87 25 95 16 32 30 176 20 204-13 31-43 34-86 7z"/><path d="m13918 17428c-9-7-27-32-42-55-32-52-149-167-198-195-39-22-49-45-24-54 20-8 72 21 130 72 28 24 52 41 54 39 7-7-20-138-35-167-7-15-13-32-13-38 0-16 25-12 50 8 17 14 27 44 46 142 13 69 36 149 50 178 33 67 24 102-18 70z"/><path d="m6920 17380c0-20 4-20 188-18 158 3 187 5 187 18s-29 15-187 18c-184 2-188 2-188-18z"/><path d="m7018 17262c-10-2-18-11-18-21 0-14 14-20 64-29 90-17 220-16 235 2 16 19 2 23-110 31-52 4-107 10-124 14-16 4-38 5-47 3z"/><path d="m9000 17241c0-26 54-48 75-31 10 8 58 11 169 9 107-2 159 0 167 8 28 28-4 33-207 33-193 0-204-1-204-19z"/><path d="m10405 17240c-435-4-500-7-500-20s64-15 507-18c314-1 516 2 532 8 39 14 34 41-6 38-18-2-258-5-533-8z"/><path d="m10260 17060c0-17 7-20 45-20 48 0 91-15 99-36 9-24-39-78-109-120-45-28-70-49-70-61 0-17 13-18 171-21 165-2 224 5 224 28 0 6-54 10-147 11-119 0-144 3-129 12 159 99 147 227-21 227-56 0-63-2-63-20z"/><path d="m13875 17004c-44-7-110-17-147-20-59-6-68-10-68-27 0-19 5-20 100-14 166 10 270 34 270 62 0 18-40 18-155-1z"/><path d="m2783 16610c-25-15-33-27-33-48 0-41 61-92 109-92 30 0 27-9-24-66-33-39-59-57-104-74-36-13-68-19-81-15-21 7-21 10-15 104 9 119 3 141-34 141-18 0-40-13-69-43-23-23-42-48-42-55 0-14 26-16 35-2 3 5 19 19 36 31l30 21-7-94c-8-110 0-131 52-148 31-11 44-9 109 15 74 27 131 74 179 147 16 24 22 26 119 30s157 20 157 41c0 5-33 8-77 6-43-1-98-2-123-1-43 2-45 4-47 33-5 75-99 113-170 69zm98-40c20-11 27-60 9-60-19 0-77 28-85 40-15 25 39 39 76 20z"/><path d="m2225 16533c-32-70-101-187-145-245-3-4-22-2-43 4-84 26-156-32-127-102 19-47 50-48 121-6l60 36 39-20c55-28 167-45 204-31 40 16 24 26-61 40-71 11-143 37-143 52 0 5 20 36 44 71 63 90 128 225 124 256-6 54-32 35-73-55zm-210-299c-36-28-53-35-60-24-11 18 16 40 49 40 30-1 30-1 11-16z"/><path d="m801 16549c-13-38 0-66 34-75 38-10 30-33-32-94-72-69-158-116-196-106-37 9-43 43-22 140 22 109 19 140-18 144-35 4-132-40-146-66-16-30-3-52 30-52 22 0 29 5 29 20 0 18 55 58 66 47 2-2-3-29-11-61-8-31-15-82-15-112 0-66 24-97 84-108 32-6 50-2 103 24 73 36 184 135 203 180 12 29 14 30 80 30 77 0 100 6 100 26 0 10-14 14-52 14-74 0-97 8-104 37-7 27-39 43-89 43-28 0-35-5-44-31zm79-29c0-5-4-10-9-10-6 0-13 5-16 10-3 6 1 10 9 10 9 0 16-4 16-10z"/><path d="m1493 16483c-23-9-15-43 10-43 22 0 196-46 204-54 3-2-27-22-65-45-77-45-97-64-88-86 8-21 29-19 57 6 13 11 38 28 54 36 17 9 45 26 63 40 58 44 34 95-56 114-20 4-64 14-97 23-66 17-65 17-82 9z"/><path d="m1505 16390c-27-5-112-9-187-9-134-1-138-2-138-22 0-21 1-22 198-17 119 3 209 10 227 17 29 12 29 13 11 27-21 15-34 16-111 4z"/><path d="m11751 16042c-27-53-54-116-61-138-12-41-12-41-76-48-80-8-94-14-94-36 0-23 33-35 59-21 11 6 32 11 46 11 23 0 25-3 19-22-30-94-33-205-6-238 39-48 154-31 168 26 11 42-11 52-44 21-31-30-63-35-82-12-15 18-7 106 16 176l15 46 76 7c42 3 102 6 133 6 37 0 62 5 69 14 18 21-7 26-139 26h-119l13 38c8 20 34 78 58 127 47 93 50 115 17 115-14 0-32-25-68-98z"/><path d="m14083 16104c-7-20 13-34 50-34 43 0 121-45 161-91 55-64 78-137 77-242-1-67-6-100-23-138-34-80-117-168-213-228-17-10-13-11 25-5 66 10 112 37 164 97 62 73 96 150 103 236 15 174-59 326-190 391-69 34-143 41-154 14z"/><path d="m13508 16083c-32-36-97-216-123-341-20-97-19-158 4-209 21-46 45-63 90-63 38 0 50 17 16 26-33 8-61 49-69 102-11 75 59 343 115 441 30 52 4 86-33 44z"/><path d="m6638 16048c-14-18-54-78-91-133-92-139-91-139-116-126-15 8-33 8-65 0-109-27-210-181-135-204 26-8 133 42 182 85l37 32 21-48c32-78 45-98 79-121 37-26 92-30 109-10 14 17 4 27-25 27-25 0-94 54-94 74 0 6-11 35-25 64l-24 52 55 78c99 140 154 227 154 245 0 28-36 20-62-15zm-230-310c-5-15-128-101-135-94-11 10 20 46 63 75 49 32 79 40 72 19z"/><path d="m7229 15964c-7-9-13-43-13-84-1-53 3-72 18-88 18-21 18-22-8-66-31-54-103-106-155-113-21-3-52 1-73 10-46 19-50 48-27 174 30 157 7 191-91 137-55-30-100-81-100-113 0-33 34-26 60 12 13 18 38 43 56 55 32 21 34 21 34 3 0-10-7-56-16-102-31-164 6-222 142-223 86 0 158 45 216 134l28 45 94 2c98 2 174 23 160 44-5 8-34 10-100 5-52-3-105-4-118 0-22 5-23 9-18 69 4 58 3 65-21 89-30 30-49 33-68 10z"/><path d="m9045 15928c-57-21-155-80-166-100-9-16-7-24 5-36 14-15 18-14 43 10 31 28 114 78 131 78 6 0-2-31-20-72-36-87-50-206-26-226 69-57 302 24 405 141l31 35 130 4c122 3 155 9 139 25-6 5-158 21-222 23-18 0-20 5-17 42 5 47-13 68-59 68-68 0-110-113-54-143l26-13-53-43c-75-62-171-105-233-106h-50l1 45c1 25 16 81 33 125 33 86 38 124 19 143-14 14-23 14-63 0zm381-74c-3-9-6-22-6-30 0-19-19-18-26 1-7 16 12 45 28 45 6 0 7-7 4-16z"/><path d="m10974 15895c-72-43-164-197-164-274 0-78 60-91 164-36l66 35 11-24c14-31 43-43 117-52 111-12 264 43 322 116 35 44 32 50-10 20-16-11-73-36-127-56-85-31-107-35-167-32-53 3-71 8-82 23-20 27-17 47 12 90s28 69-4 73c-20 3-22 9-22 57 0 44-4 57-22 69-30 22-46 20-94-9zm47-218c-21-26-115-77-141-77-20 0-22 4-16 33 11 58 58 139 110 191l51 51 5-90c4-69 2-94-9-108z"/><path d="m13775 15873c-38-8-94-36-99-49-3-7 1-18 9-24 10-8 23-6 55 10 47 24 113 24 118 0 1-8-29-50-68-93-101-112-95-146 29-155 69-5 247 20 282 39 10 5 24 19 30 31 13 24 22 24-131-7-100-20-220-20-220-1 0 8 9 21 19 28 31 22 108 121 114 147 4 18-2 31-23 52-28 29-59 34-115 22z"/><path d="m8028 15764c-5-4-8-15-8-25 0-16 14-17 143-18 78-1 175-4 215-7 61-6 72-4 72 9 0 9-14 20-32 26-41 13-380 26-390 15z"/><path d="m9960 15722c0-12 11-24 30-32 30-13 76-12 333 6 72 6 87 4 85-7-2-9 6-14 22-14 18 0 26 6 28 21 6 42-16 47-190 40-90-4-172-7-183-8s-44 2-72 6c-49 7-53 6-53-12z"/><path d="m8076 15642c-9-2-16-12-16-23 0-19 7-19 193-17 163 3 192 5 192 18s-28 16-176 20c-97 3-184 4-193 2z"/><path d="m2087 15568c-97-103-104-115-84-135 15-15 18-15 37 2 25 22 25 22 0-50-22-64-26-130-9-141 18-10 28 8 49 87 12 41 43 119 70 175 55 111 57 119 34 128-25 10-25 10-97-66z"/><path d="m800 15395c-10-13-11-20-1-39 11-19 10-35-3-85-9-34-24-78-34-98-18-34-22-36-69-38-63-2-106-28-144-84-41-62-36-141 9-141 25 0 99 48 151 98l43 41 33-25c41-31 134-52 171-39 45 16 40 33-13 40-87 11-99 16-133 44l-33 27 26 45c36 62 59 149 55 211-3 45-6 53-24 56-11 2-27-4-34-13zm-148-365c-34-33-67-60-72-60-22 0-8 32 33 75 33 34 51 45 73 45 28-1 28-2-34-60z"/><path d="m1339 15200c-117-9-139-16-139-41 0-19 5-19 93-13 92 6 264 31 279 40 5 3 6 10 3 15-7 10-92 10-236-1z"/><path d="m2045 15145c-83-18-145-44-145-61 0-24 23-25 85-4 33 12 105 26 160 31s109 12 119 16c19 5 19 6 1 19-24 18-138 17-220-1z"/><path d="m1485 15134c-56-8-170-35-197-45-28-12-37-33-18-44 6-4 50 3 97 15 48 12 121 25 161 30 70 8 104 21 89 36-8 9-93 13-132 8z"/><path d="m1962 14983c3-15 17-19 73-23 84-6 90-21 28-62-58-39-49-58 27-58 41 0 64-5 81-18 22-19 22-19-26-35-27-10-70-17-97-17-46 0-48 1-38 20 9 16 8 20-5 20-30 0-55-20-55-45 0-47 74-58 185-29 74 19 105 38 105 65 0 30-53 79-85 79-25 0-25 1-11 22 44 63 5 98-107 98-69 0-78-2-75-17z"/><path d="m15427 14713c-14-13-6-30 17-41 13-6 49-30 80-54 64-49 122-146 132-221 13-91-43-193-158-293-64-55-76-70-60-72 56-9 188 105 237 203 26 52 30 71 30 140 0 74-3 86-39 153-30 55-53 84-100 121-87 68-120 83-139 64z"/><path d="m13815 14676c-56-26-123-93-154-154-64-126-89-280-57-356l14-33-142-6c-77-4-324-7-548-7-406 0-408 0-408-21 0-20 0-20 565-18l565 2 40-28c45-31 123-50 148-36 13 8 3 15-48 38l-65 28 240 6c132 3 510 11 840 17 635 13 695 16 676 35-15 15-729 16-1371 3l-435-9-13 28c-33 72-20 184 36 308 37 81 79 128 147 163 35 18 55 35 55 47 0 23-25 21-85-7z"/><path d="m9575 14669c-4-5-1-24 5-40 15-36-3-92-57-172-59-86-76-96-165-97-64 0-82-4-98-20-25-25-25-35 1-61 24-24 64-21 138 12l44 19 84-40c68-34 92-41 131-38 26 2 45 7 43 13s-31 19-65 31c-63 22-161 74-139 74 17 0 89 99 119 163 25 55 30 100 14 141-10 27-43 36-55 15z"/><path d="m10269 14641c-25-25-29-37-29-81s4-56 31-83l32-31-50-46c-67-62-153-87-205-59-19 10-20 17-13 99 7 94 0 124-34 135-37 11-121-38-121-71 0-27 30-27 57 0 46 47 56 36 47-51-10-106-9-115 20-140 37-32 94-38 167-17 52 15 74 28 129 80l67 63 129 3c107 3 129 6 129 18s-24 17-116 25c-110 9-116 11-108 30 4 11 8 37 8 58 1 47-42 97-84 97-16 0-38-12-56-29zm82-42c14-27-5-99-26-99-17 0-35 31-35 60 0 53 39 78 61 39z"/><path d="m15229 14593c-29-79-81-172-113-203-35-33-38-34-120-35-75 0-88-3-132-31-61-37-78-75-47-106 20-19 25-20 87-8 40 7 88 26 122 46 49 30 59 32 73 21 21-18 85-42 134-51 38-7 107 8 107 23 0 5-32 13-71 20-39 6-89 21-110 32l-40 20 49 53c49 54 116 191 110 224-6 29-37 26-49-5zm-238-299c-22-16-102-44-124-44-17 0 17 33 48 46 16 7 46 13 65 14 34 0 34 0 11-16z"/><path d="m8237 14565c-25-25-21-60 11-84l27-21-63-60c-74-69-150-110-204-110-36 0-38 2-38 30 0 17 11 57 25 90 47 112 28 156-62 147-62-6-133-43-133-68 0-30 18-31 63-5 24 15 58 26 76 26 31 0 33-2 26-27-3-15-15-46-25-68-26-57-29-130-7-153 30-29 130-23 194 12 63 35 149 106 181 151 22 31 27 32 110 39 96 7 196 31 212 51 19 23-21 27-99 10-91-19-182-20-175-2 15 40-85 76-119 42zm63-45c0-5-7-7-15-4-8 4-15 8-15 10s7 4 15 4 15-4 15-10z"/><path d="m19377 14573c-17-17-2-32 67-67 83-42 179-133 214-202 25-50 52-150 52-196 0-55-27-130-69-195-32-49-53-69-109-102-38-22-95-48-125-58-31-10-55-22-53-28 7-23 102-10 172 25 172 87 264 264 228 437-31 152-122 272-264 351-73 41-100 49-113 35z"/><path d="m1575 14534c-16-2-149-8-295-14-840-32-865-34-865-60 0-10 9-14 30-13 17 1 201 6 410 12s452 15 540 21c88 5 408 13 710 16 544 6 693 2 953-28 79-9 105-9 114 0 20 20-3 32-103 48-78 13-211 17-779 19-377 2-698 1-715-1z"/><path d="m12555 14526c-52-16-95-45-95-62 0-25 24-25 74 1 48 24 76 31 76 19 0-4-16-33-36-65-89-147-59-215 96-213 56 0 76 6 139 39 40 21 101 65 135 97l61 58 80-10c100-13 275-13 295 0 28 18-4 29-105 35-250 15-242 13-264 50-16 28-27 35-64 40-57 9-85 0-100-32-10-22-8-28 16-49 16-13 40-24 55-24 26-1 26-2-21-45-65-60-177-115-234-115-97 0-105 35-37 151 57 97 58 133 4 136-19 1-53-4-75-11zm405-66c0-13-30-13-50 0-11 7-7 10 18 10 17 0 32-4 32-10z"/><path d="m14260 14481c-117-47-180-81-180-96 0-23 24-28 57-12 15 8 38 18 51 21 21 7 21 5-9-43-37-59-45-123-16-129 10-2 19 4 23 15 20 64 56 123 107 176 79 82 66 108-33 68z"/><path d="m18880 14445c-73-40-180-216-216-356-20-78-23-195-5-229 40-75 124-126 167-102 15 8 12 13-23 30-46 24-90 72-99 109-11 43 6 172 31 240 49 129 127 244 190 279 12 7 16 16 12 27-8 20-23 21-57 2z"/><path d="m8704 14425c-9-23 10-33 74-41 63-8 279 0 305 11 10 4 16 13 14 19-2 7-49 11-141 12-75 1-161 5-191 9-46 5-56 4-61-10z"/><path d="m14680 14390c-41-4-121-8-177-9-98-1-103-2-103-22 0-22 1-22 168-17 128 4 176 9 207 23 35 15 38 18 20 25-11 5-24 8-30 8-5-1-44-4-85-8z"/><path d="m5894 14350c-51-20-116-123-153-243-33-108-10-157 72-157 52 0 99 24 142 71 38 42 65 50 65 20 0-11 11-33 25-49 45-54 162-63 248-20 41 21 53 55 15 44-135-36-203-31-227 19-11 24-12 42-2 104 14 97 14 138-1 148-7 4-18 17-24 28-22 40-104 58-160 35zm111-110c0-58-4-71-34-114-74-107-146-156-179-122-21 21-2 102 44 196 44 87 74 112 128 108l41-3z"/><path d="m19240 14259c-83-50-220-163-220-180 0-11 7-19 16-19 17 0 91 50 153 103 36 30 49 30 32-1-13-24-41-158-41-197 0-50-13-60-87-65-65-5-68-6-68-30s3-25 62-28c39-2 75 2 95 12 18 7 69 18 113 22 64 7 81 12 83 27 3 15-6 17-72 17-76 0-76 0-76 28 1 48 36 187 64 247 20 44 23 61 15 71-16 19-28 18-69-7z"/><path d="m6640 14180c0-20 4-20 233-18 198 3 232 5 232 18s-34 15-232 18c-229 2-233 2-233-18z"/><path d="m10975 14190c-14-23 12-30 118-30 62 0 144-5 182-11 39-5 85-7 104-4 30 6 32 8 19 22-9 8-46 19-84 23-95 13-331 12-339 0z"/><path d="m2207 14170c-39-12-57-29-57-54 0-33 37-86 60-86 24 0 26 20 5 60-18 35-9 40 75 40 109 0 216-59 208-114-3-23-81-79-168-122-156-76-205-151-144-223 18-22 35-31 55-31 36 0 36 4-1 47-16 18-30 38-30 43 0 23 67 81 133 115 94 48 176 103 200 136 37 52-10 127-108 170-55 24-180 35-228 19z"/><path d="m18040 14140c0-13 14-25 43-39 42-19 42-19-460-20-496-1-503-1-503-21s7-20 546-20c483 0 545-2 534-15-14-17-7-45 12-45 24 1 108 70 108 89 0 28-16 36-130 65-129 32-150 33-150 6zm147-56c-3-3-12-4-19-1-8 3-5 6 6 6 11 1 17-2 13-5z"/><path d="m8797 14074c-4-4-212-10-464-13-398-5-458-8-458-21 0-17 347-18 1795-3 723 7 825 10 825 23s-102 15-846 18c-465 1-848-1-852-4z"/><path d="m6711 14041c-8-5-11-16-8-25 6-14 30-16 184-16 175 0 226 8 193 30-8 5-82 10-165 10-82 0-159 3-170 5-11 3-26 1-34-4z"/><path d="m1009 13961c-21-21-29-39-29-65 0-34 12-49 66-82 17-11 15-16-33-63-59-57-130-84-210-79-47 3-48 4-51 37-2 19 4 54 13 77 9 24 15 58 13 76-3 33-3 33-55 32-67-2-131-37-158-86-18-35-19-39-3-54 20-20 33-13 54 31 11 25 28 39 60 51 50 19 61 15 44-16-18-34-29-132-17-157 14-32 68-47 140-39 104 12 159 40 226 112l59 65 78 9c44 5 91 13 107 19 51 20 24 45-41 36-20-2-56-7-79-10l-43-5 6 44c6 39 3 48-19 70-37 37-89 36-128-3zm92-35c3-23-3-51-12-60-12-13-59 10-59 29 0 38 67 68 71 31z"/><path d="m10948 13979c-6-4-8-14-5-23 6-14 29-16 174-16 167 0 213 5 213 21 0 4-15 10-32 13-51 8-338 12-350 5z"/><path d="m13392 13948c-7-7-12-19-12-27 0-9-9-30-20-48-19-32-19-32-117-35-83-3-98-6-101-20-3-15 8-18 81-20l85-3-39-64c-52-86-60-128-28-154 21-17 35-19 119-14 101 6 170 27 170 52 0 18-32 19-112 2-31-7-77-11-101-9-41 4-44 6-38 27 3 13 26 55 51 94l45 70 115 1c117 0 160 10 130 30-8 5-59 10-112 10-54 0-98 2-98 4s9 23 19 46c11 24 17 49 14 57-6 16-35 17-51 1z"/><path d="m9018 13904c-20-10-28-22-28-43 0-17-22-61-57-114-56-84-59-87-103-92-61-8-90-21-90-41 0-14 8-16 53-10l53 6-29-59c-35-71-45-132-25-149 41-33 202-21 254 20 22 18 34 58 17 58-4 0-27-10-52-22-27-13-72-24-108-26-62-4-63-4-63 21 0 14 15 54 33 89 33 63 33 63 87 70 30 3 98 7 150 7 92 1 133 11 116 28-4 4-70 10-147 13l-140 5 52 75c67 96 91 150 77 167-13 16-16 16-50-3z"/><path d="m1623 13830c-23-9-31-34-15-44 10-6 292 20 299 28 23 23-232 37-284 16z"/><path d="m2233 13483c-7-2-13-13-13-22 0-13 14-21 54-31 58-14 86-9 86 14 0 19-16 29-49 31-14 1-35 4-46 7-11 4-26 4-32 1z"/><path d="m3471 13372c-22-15-81-100-171-247-39-64-78-91-198-137l-77-30-430 5c-236 3-473 10-525 15-241 26-570 37-1155 37-536 0-610-2-610-15s72-16 560-21c529-6 785-16 1110-40 77-6 351-13 609-15 514-6 499-7 626 54 75 37 115 80 186 202 34 58 80 125 103 150 22 25 41 48 41 52 0 14-44 7-69-10z"/><path d="m12633 12923c-4-10-1-19 8-21 26-9 82-77 107-130 66-144 22-386-94-523-21-26-47-56-56-68-17-20-25-21-240-21-123 0-324-4-448-10-516-24-595-26-612-16-13 8-21 7-30-2-8-8-58-12-168-12-105 0-150 3-140 10 13 9 13 11 0 20-8 5-25 10-37 10-41 0-75 41-80 97-11 106 46 314 119 438 54 91 66 105 95 105 27 0 33 34 7 44-27 10-42 7-72-19-76-64-167-272-197-452-16-94-16-105-1-158 13-43 24-60 48-75 31-19 29-19-338-23-203-2-379-7-391-11-14-5-23-17-23-28 0-18 5-19 43-14 23 4 290 9 592 12l550 5 101-108c87-93 100-111 93-131-7-19-15-22-69-22-53 0-60-2-60-20 0-17 7-20 50-20 28 0 50-2 50-4s-9-23-20-47c-41-91-20-135 69-146 59-7 135 17 151 47 15 28-4 34-53 15-24-9-63-15-88-13-40 3-44 5-42 28 2 14 13 46 25 73 31 68 55 65 138-19 130-133 264-234 310-234 21 0-9 36-62 77-29 22-96 81-148 131l-95 91 43 1c45 0 82 14 82 30 0 6-35 10-78 10-72 0-80 2-104 28l-26 27 28 70c35 86 38 115 9 115-14 0-25-11-35-35-7-19-21-52-30-72l-16-38-73 80-74 80 72 6c40 4 122 7 182 8 61 0 205 5 320 11 116 6 313 13 439 16 207 6 229 8 233 24 3 10 15 22 28 28 130 60 232 311 204 507-12 89-45 160-101 219-46 48-83 59-95 29z"/><path d="m13840 12765c0-9 31-54 69-100 37-47 87-112 110-144l41-59-43-36c-24-20-52-51-62-70-17-31-17-36-3-58 19-29 75-47 167-55l66-6 37-62c41-69 134-185 149-185 9 0-60 142-106 217-15 25-21 44-15 48 16 10 12 22-8 27-10 3-40 42-66 88-48 82-48 82-28 103 28 32 35 61 22 107-15 57-88 100-171 100-31 0-42 7-78 50-41 49-81 66-81 35zm250-164c19-14 25-27 25-56 0-21-4-40-10-41-8-3-82 91-94 120-6 14 51-3 79-23zm36-252c31-52 32-54 12-57-33-6-103 7-124 23-18 13-17 16 21 54 21 23 44 40 49 38 6-2 25-28 42-58z"/><path d="m12347 12733c-3-5-5-25-5-45 0-21-12-59-28-90l-29-53-75-7c-118-12-208-55-225-108-9-27 12-69 39-80 37-14 120 13 182 60 29 22 60 43 67 46 8 3 25-12 42-36 42-60 104-86 144-61 11 7 5 14-25 29-41 21-68 48-98 95-15 25-16 31-3 45 45 52 76 156 58 191-12 21-35 28-44 14zm-157-273c-39-33-81-55-122-65-23-6-28-4-28 12 0 11 8 27 18 35 23 21 99 47 137 47h30z"/><path d="m8263 12563c-20-43-53-123-73-178l-37-100-66-3c-59-3-67-5-67-22 0-18 7-20 60-20h59l-15-42c-8-22-17-65-20-94-8-69 10-99 68-115 45-12 149-6 194 11 30 12 29 46-1 43-93-11-182-13-195-4-18 12-17 63 4 135 15 50 19 56 39 51 43-10 196-10 198 0 2 15-67 35-138 42-35 3-63 7-63 9 0 11 59 165 92 241 40 92 43 123 13 123-11 0-29-28-52-77z"/><path d="m10052 12630c-91-37-185-158-143-184 14-9 41 5 41 21 0 36 135 141 156 120 3-2 0-52-6-111-17-168 3-210 101-209 134 2 187 116 117 252-17 33-29 63-27 66 8 7 105 7 210 0 92-7 139 1 139 24 0 9-222 31-308 31-43 0-58-5-77-25-14-13-25-28-25-32s16-39 35-77c19-39 35-82 35-97 0-65-104-127-138-83-11 15-13 44-8 146 8 148 2 168-47 167-18 0-42-4-55-9z"/><path d="m11210 12555c-58-36-105-71-105-78 0-24 50-17 95 12 24 17 46 29 47 27 2-2-17-36-42-77-48-78-59-129-26-129 12 0 28 21 52 67 18 36 48 85 65 107 64 84 78 136 37 136-10 0-65-29-123-65z"/><path d="m13666 12498c-15-21-15-24 0-35 19-14 16-27-39-146-43-94-36-88-139-111-20-5-28-13-28-28 0-19 4-20 45-15l45 7-40-64c-43-68-70-134-70-172 0-73 204-70 231 4 8 20 7 20-39 6-26-7-67-14-91-14-44 0-44 0-38 35 3 19 31 77 63 130 56 95 57 95 96 95 62 0 139 43 124 69-4 6-21 5-48-5-22-7-51-14-64-14-23 0-23 0 11 74 46 98 63 162 49 184-17 26-50 26-68 0z"/><path d="m7404 12486c-66-21-104-48-104-73 0-16 6-23 19-23 11 0 23 5 27 11 7 13 82 48 102 49 23 0 12-41-45-157-52-106-57-122-61-198-4-79-3-84 19-96 13-7 51-13 84-13 75 0 129 27 179 87 46 56 64 101 71 174 13 131 0 117 131 131 118 13 160 25 148 44-8 12-232 2-282-13-35-12-38-17-46-119-9-100-24-138-73-191-48-51-96-73-148-67-30 3-30 3-27 68 2 56 10 81 57 176 79 162 82 193 23 213-17 6-31 11-32 10-1 0-19-6-42-13z"/><path d="m11517 12493c-4-3-7-12-7-20 0-20 300-19 340 2 17 9 30 18 30 20 0 8-356 6-363-2z"/><path d="m5895 12424c-44-22-68-61-73-119-5-65 12-100 87-180 31-33 65-77 76-98 17-33 18-39 5-47-21-13-150-12-189 1-33 12-37 20-21 50 9 16 7 19-13 19-31 0-60-32-55-62 6-41 68-62 183-63 114 0 165 18 165 58 0 34-51 115-113 180-65 69-82 104-73 150 11 58 47 81 123 78 28-1 32-5 35-33 2-25 8-34 25-36 46-7 43 91-3 108-38 15-125 12-159-6z"/><path d="m6735 12270c-27-5-101-9-162-9-109-1-113-2-113-23s0-21 203-14c230 7 259 11 255 35-3 13-17 16-68 17-36 1-87-2-115-6z"/><path d="m14882 12238c2-14 10-23 21-22 9 0 97 1 195 2 97 1 184 7 192 12 34 22-19 30-213 30-198 0-198 0-195-22z"/><path d="m13140 12181c0-24 8-30 52-35 23-3 41 2 58 15 20 15 22 19 8 19-10 0-18 5-18 10 0 6-22 10-50 10-43 0-50-3-50-19z"/><path d="m9000 12120c0-20 4-20 178-18 149 3 177 5 177 18s-28 15-177 18c-174 2-178 2-178-18z"/><path d="m6510 12102c-6-2-10-12-10-23 0-18 9-19 159-19 153 0 189 7 165 30-9 8-293 19-314 12z"/><path d="m14915 12052c-20-5-31-14-33-27-3-20 1-21 160-17 166 4 205 12 152 32-34 14-236 22-279 12z"/><path d="m10662 11869c-32-12-25-45 8-42 14 1 61 4 105 8 132 10 142-22 23-77-138-63-153-72-156-95s-3-23 193-23c188 0 244 7 230 31-4 5-74 9-158 10h-152l75 37c41 20 83 49 93 64 25 34 16 75-19 88-32 13-211 12-242-1z"/><path d="m12044 11145c-4-10 12-35 44-69 88-93 131-212 132-360 0-159-60-296-187-425-46-46-81-86-79-89 3-2 19-1 38 3 45 10 155 122 200 205 57 102 78 185 78 304 0 176-39 284-138 388-56 59-78 70-88 43z"/><path d="m8919 11103c-111-117-213-391-244-660-17-143-10-206 34-299 21-45 38-67 61-79 45-23 58-6 25 33-38 46-75 153-75 220 0 148 41 346 106 515 56 146 136 267 177 267 32 0 16 35-18 38-24 2-38-5-66-35z"/><path d="m11517 11086c-3-9-1-18 5-22 14-9 4-79-17-110-13-21-22-25-43-21-35 8-137-42-180-86-17-18-38-48-46-68-13-32-13-38 0-57 18-26 25-27 91-7 39 12 66 30 110 75l59 59 53-35c91-61 180-90 196-64 3 5-18 21-47 36-79 39-168 97-168 110 0 6 7 17 15 24 23 19 44 102 36 141-5 27-12 35-33 37-16 2-28-3-31-12zm-67-204c0-12-116-122-128-122-6 0-18-3-27-6-16-6-16-5-2 22 19 36 39 55 97 88 49 27 60 31 60 18z"/><path d="m10545 11034c-16-14-43-32-60-41-46-24-125-93-125-109 0-30 30-25 71 10 24 20 44 35 45 33 2-2-11-30-28-63-32-61-33-94-4-94 9 0 25 19 37 43 37 72 111 191 127 203 19 14 9 44-15 44-10-1-31-12-48-26z"/><path d="m8296 10968c-2-7-28-87-57-178l-54-165-82-3c-75-3-83-5-83-22 0-18 7-20 70-20 39 0 70-4 70-8s-9-33-20-65c-26-74-25-93 6-124 23-23 31-25 86-21 44 3 64 10 74 23 21 28 9 33-61 27-64-5-65-4-65 20 0 13 9 52 21 85l20 62 57 6c94 10 157 26 183 46 24 19 24 19-21 19-25 0-76-5-114-10-38-6-71-8-73-6-3 3 14 62 37 133 55 167 60 189 47 202-15 15-37 14-41-1z"/><path d="m10765 10910c-3-5-3-14 0-20 7-12 340-13 370-1 19 8 19 8-2 19-28 15-359 17-368 2z"/><path d="m9236 10845c-77-53-156-125-156-141 0-29 31-27 64 5 17 17 35 31 38 31s-6-30-21-67c-82-204-91-234-71-258 7-8 21-15 31-15 14 0 18 8 17 38 0 21 6 52 14 68 9 16 23 54 33 84 26 81 74 180 108 223 24 31 27 40 17 52-16 20-17 19-74-20z"/><path d="m7863 10735c-129-23-197-77-238-190-23-63-44-90-103-137-84-68-89-46-20 101 45 96 45 136 1 171-29 23-59 25-135 9-75-16-138-88-93-105 9-4 26 6 43 24 30 31 76 46 128 40 44-5 43-44-2-137-28-58-37-89-38-131-1-51 1-55 24-58 49-7 100 18 164 81 48 48 66 74 80 117 34 105 89 150 207 169 64 11 97 30 85 50-8 13-10 13-103-4z"/><path d="m13020 10710c-30-5-101-8-157-9-98-1-103-2-103-23s0-21 193-15c202 7 252 14 252 38 0 17-96 21-185 9z"/><path d="m9360 10600c0-19 7-20 195-20s195 1 195 20-7 20-195 20-195-1-195-20z"/><path d="m10335 10610c-3-5-3-14 0-20 4-7 270-10 766-10 752 0 759 0 759 20s-7 20-759 20c-496 0-762-3-766-10z"/><path d="m6600 10580c0-20 4-20 183-18 154 3 182 5 182 18s-28 15-182 18c-179 2-183 2-183-18z"/><path d="m12776 10562c-10-2-16-11-14-20 3-15 28-18 218-23 118-3 219-2 224 3 6 5 5 13-2 21-9 8-72 13-211 17-109 3-206 3-215 2z"/><path d="m10230 10544c0-8 5-12 10-9 6 4 8 11 5 16-9 14-15 11-15-7z"/><path d="m6820 10515c-8-2-49-8-90-15-103-16-110-19-110-41s29-25 95-9c22 5 84 14 138 20 55 6 111 16 125 22 26 11 26 11-18 19-45 7-112 9-140 4z"/><path d="m10915 10493c-30-7-86-34-118-56-58-40-53-97 8-97 28 0 35 4 35 20 0 12-7 20-17 20-11 0 3 14 32 32 63 40 159 52 169 21 17-53-50-149-151-216-97-63-99-102-5-92 32 4 122 10 202 13 119 6 145 10 145 22 0 13-24 15-146 18l-146 3 64 65c36 37 71 81 79 100 37 89 2 155-83 153-26-1-57-3-68-6z"/><path d="m11597 9193c-4-3-7-16-7-28 0-33-54-134-100-187-39-45-43-47-83-42-34 5-49 1-77-18-74-50-94-148-29-148 34 0 69 19 120 67l35 33 105-45c102-44 152-55 164-35 5 9-92 59-192 99-18 8-33 15-33 17 0 3 20 29 45 60 92 112 128 234 70 234-7 0-15-3-18-7zm-227-333c-41-34-55-38-40-10 12 22 38 39 60 39 9 0 0-12-20-29z"/><path d="m9138 9117c-53-46-144-178-195-282-50-104-80-229-90-376-5-87-3-104 22-183 24-75 36-97 82-147 61-65 100-83 173-77l45 3-30 14c-88 38-120 58-152 95-69 81-99 194-83 324 24 204 63 314 164 466 30 44 75 102 101 128 46 45 52 68 17 68-9 0-34-15-54-33z"/><path d="m8214 9068c-14-29-56-106-92-170l-67-118h-67c-61 0-68-2-68-20s7-20 61-20 60-2 54-17c-14-37-35-150-35-194 0-31 6-51 18-61 66-59 218-5 210 74-4 44-25 46-45 4-18-40-66-62-109-52-23 6-24 9-17 64 3 31 13 84 22 117l16 60 90 5c83 5 135 19 135 38 0 4-45 6-100 4-55-3-100-2-100 1s20 40 45 82c66 111 115 211 115 235 0 13-7 20-20 20-14 0-27-16-46-52z"/><path d="m12083 9105c-3-10 8-29 31-52 68-68 106-180 106-309 0-160-99-403-212-521-22-22-37-46-34-52 42-68 217 186 278 404 25 89 29 224 9 309-17 71-61 155-103 198-40 40-65 48-75 23z"/><path d="m10459 9087c-9-12-53-47-97-77-49-33-81-62-82-72 0-23 32-24 65-2 28 18 31 11 10-26-21-36-19-87 3-99 26-14 46 2 37 28-8 25 38 119 91 190 19 24 34 52 34 62 0 27-41 24-61-4z"/><path d="m9499 9091c-46-15-69-31-69-51 0-16 7-20 35-20 18 0 38 6 42 14 4 7 33 16 66 19 53 5 57 4 57-15 0-33-36-83-106-147-50-46-65-65-62-83 3-22 7-23 123-29 66-4 134-10 151-14 31-7 74 7 74 24 0 13-117 31-205 31h-79l61 58c69 66 97 113 95 161-2 52-16 61-91 60-36 0-78-4-92-8z"/><path d="m10932 9063c-6-10-15-37-21-60l-12-43h-80c-71 0-80-2-77-17s16-19 73-21l70-3-3-44c-3-35 0-46 13-51 21-8 31 7 39 57l6 38 72 3c60 2 73 6 76 21s-5 17-64 17h-66l7 33c13 56 11 81-7 85-9 2-21-5-26-15z"/><path d="m9940 8980c0-19 7-20 96-20 52 0 104-4 114-10 22-12 50-3 50 16 0 25-39 34-149 34-104 0-111-1-111-20z"/><path d="m7659 8904c-10-13-10-21 3-47 26-51 29-72 18-122-16-73-55-146-104-198-59-61-91-70-124-32-21 25-23 35-17 79 3 28 15 82 26 121 41 150 16 195-92 165-43-12-117-73-130-108-15-38-2-62 32-62 25 0 30 4 29 23-4 41 0 47 47 77 50 32 83 38 83 16 0-8-11-57-25-110s-25-119-25-147c0-46 4-55 39-90 47-48 79-50 142-11 90 58 178 215 179 320v42h55c56 0 120 23 129 46 4 10-17 12-97 7-103-6-103-6-115 21-13 29-33 33-53 10z"/><path d="m6500 8702c0-33 64-45 200-39 128 7 160 13 160 32 0 15-54 30-70 20-14-9-166-8-236 1-50 6-54 5-54-14z"/><path d="m12885 8710c-3-5-3-14 0-20 9-15 452-13 461 1 3 6 0 15-7 20-20 12-446 11-454-1z"/><path d="m10716 8693c-4-5-332-10-729-13-633-4-722-7-722-20s84-15 700-15c385 0 905 3 1155 5 250 3 494 1 541-4 75-8 87-7 92 7 8 22 0 26-85 37-86 11-941 13-952 3z"/><path d="m6675 8620c-150-7-175-13-175-41 0-18 5-19 73-15 39 3 108 8 152 11 83 6 145 21 145 35 0 8-38 21-55 18-5-1-68-4-140-8z"/><path d="m13035 8589c-22-4-61-8-87-8-41-1-48-4-48-21s7-20 48-20c68 0 333 19 362 26 24 5 24 6 6 20-22 16-210 18-281 3z"/><path d="m10395 8482c-52-18-67-40-45-67 17-21 41-19 47 4 3 11 15 22 26 25 44 10 158 9 169-2 22-22-23-80-116-150-117-88-138-109-134-130 3-14 14-17 63-16 33 1 96 7 140 13s109 13 145 16c122 11 119 45-3 45-38 0-99-5-137-11-108-16-111-11-29 52 75 56 121 112 133 162 5 21 1 33-18 52-23 23-33 25-108 25-51-1-102-7-133-18z"/><path d="m8170 7263c-6-10-39-67-74-128l-62-110-72-10c-74-11-100-25-87-45 5-8 27-9 70-5l64 7-24-67c-30-88-22-120 38-136 69-19 168 15 186 64 5 12 8 23 7 24-2 2-22-6-45-18-23-11-64-23-91-26-64-7-69 6-39 90l23 64 157-1c105-1 162 3 169 10 15 15-31 24-172 33-59 4-111 10-114 14-4 3 8 32 27 64 64 113 89 163 89 178 0 21-37 19-50-2z"/><path d="m10743 7263c-4-11 0-21 12-27 72-42 170-171 206-273 14-39 23-93 26-163 8-157-23-256-123-396-50-71-91-106-184-158l-65-36h38c22 0 64 13 103 32 80 39 142 105 207 220 138 245 104 533-87 736-71 75-120 99-133 65z"/><path d="m7338 7146c-74-27-127-78-114-111 9-23 56-19 56 5 0 20 73 70 103 70 23 0 22-4-19-100-57-134-63-152-64-196 0-49 14-64 68-71 74-10 159 37 215 119 31 47 36 111 12 158-14 26-13 29 3 34 35 11 129 27 205 35 82 9 114 24 87 41-23 15-86 12-209-11-175-32-179-35-141-106 33-62 25-98-34-161-40-44-76-62-121-62h-37l7 43c4 23 15 58 25 77 39 77 81 195 78 219-3 23-8 26-43 28-22 2-57-4-77-11z"/><path d="m9003 7118c-67-73-199-357-240-517-34-132-33-212 6-289 34-68 43-76 93-90 49-13 57 1 17 30-41 30-79 108-86 172-12 124 110 454 237 643 31 45 33 73 7 73-7 0-23-10-34-22z"/><path d="m9416 6968c-3-7-7-27-10-44-4-25-90-179-116-207-4-5-22-1-40 8-61 32-127 1-181-84-45-71-36-171 16-171 19 0 125 73 164 113l33 35 71-59c53-45 78-59 102-59 50 0 49 11-6 47-70 47-132 111-122 126 4 7 33 53 64 103 62 101 84 153 74 184-7 22-43 28-49 8zm-181-291c17-13 16-16-21-53-54-54-113-98-121-90-13 12 18 86 51 121 35 37 61 43 91 22z"/><path d="m10415 6943c-9-16-48-53-87-83-112-86-122-96-114-108 13-21 42-13 87 23 24 19 47 35 51 35s-2-30-13-67c-10-38-19-86-19-108 0-62-19-81-88-89-68-8-98-25-89-50 6-16 18-17 114-10 243 15 268 18 268 34 0 12-17 16-81 18l-81 3 4 52c7 86 41 207 79 284 20 39 33 76 29 82-12 20-44 11-60-16z"/><path d="m9956 6911c-14-22-36-130-36-174v-49l-100 7c-96 7-100 6-100-13 0-17 11-21 75-31 42-6 87-11 100-11 23 0 25-4 25-45 0-32 5-47 15-52 22-8 27 0 32 52 5 42 8 45 35 45 35 0 71 17 63 31-4 5-27 9-52 9h-46l7 71c4 38 13 87 20 107s11 43 9 50c-5 14-39 16-47 3z"/><path d="m11597 6906c-3-8 1-22 9-33 14-17 14-17 28 0 18 23 10 47-14 47-10 0-20-6-23-14z"/><path d="m6400 6780c0-20 4-20 208-18 176 3 207 5 207 18s-31 15-207 18c-204 2-208 2-208-18z"/><path d="m6460 6700c0-19 7-20 149-20 145 0 201 8 201 30 0 6-62 10-175 10-168 0-175-1-175-20z"/><path d="m7240 6640c0-20 7-20 484-20 392 0 486 3 495 13 6 8 8 17 4 20-3 4-226 7-495 7-481 0-488 0-488-20z"/><path d="m11654 6558c-30-59-134-171-237-255-71-59-106-102-71-89 138 52 396 315 371 379-12 31-37 17-63-35z"/><path d="m7620 6480c0-19 7-20 101-20 172 0 176-24 19-125-106-69-130-96-108-122 11-13 30-15 128-9 148 8 250 33 250 62 0 17 3 17-125-2-57-8-122-14-142-12l-38 3 71 42c92 54 136 104 132 146-5 47-34 57-170 57-111 0-118-1-118-20z"/><path d="m8735 5429c-70-10-109-35-113-72-4-31 43-66 129-95 111-39 203-88 219-116 18-35 8-53-51-86-36-20-61-25-139-28-82-3-99 0-128 18-18 11-30 25-27 30 7 11-39 25-54 15-28-16 12-66 78-100 50-25 205-17 277 14 96 42 131 103 91 162-24 37-149 106-244 134-64 20-105 50-84 64 43 28 195 18 208-15 7-18 27-18 43 1 10 13 10 19-5 35-33 36-113 52-200 39z"/><path d="m8155 5411c-11-5-29-18-39-30-16-18-18-28-10-59 6-24 16-38 28-40 24-5 36 16 26 44-13 32 9 46 67 42 43-3 48-6 51-29 4-36-26-69-133-144-99-69-125-96-125-131 0-32 63-44 237-44 118 0 153 3 171 16 12 8 22 22 22 30 0 17 0 17-56 3-55-14-317-3-311 14 1 5 41 36 88 69 128 88 169 136 169 196 0 36-46 65-108 69-31 1-66-1-77-6z"/><path d="m5805 5068c-23-27-26-39-23-83s-1-57-26-91c-50-68-146-144-182-144-13 0-28 9-34 20-11 20-10 22 60 218 18 52 20 65 9 78-18 22-80 12-130-21-33-21-40-31-37-53 4-38 44-43 58-8 8 22 46 53 55 44 2-2-9-35-25-74-44-109-53-149-46-188 9-47 51-71 109-62 51 8 152 87 203 159 21 29 39 54 41 56 1 2 36-2 78-8 79-13 115-9 115 14 0 15-14 20-95 30-27 4-53 9-56 11-4 2 1 24 9 48 15 42 15 46-2 65-27 29-50 26-81-11z"/><path d="m10600 5020c0-19 7-20 209-20 143 0 212 4 217 11 14 23-27 29-223 29s-203-1-203-20z"/><path d="m6460 4940c0-19 7-20 193-20 109 0 198 5 207 10 34 22-19 30-207 30-186 0-193-1-193-20z"/><path d="m7264 4869c-3-6-2-15 3-20s547-8 1349-7c1182 3 1339 5 1339 18s-157 15-1342 18c-961 1-1344-1-1349-9z"/><path d="m10939 4846c-2-3-71-7-153-10-154-5-183-13-154-42 15-15 33-15 181-6 168 12 222 23 215 45-4 12-79 23-89 13z"/><path d="m6508 4819c-6-4-8-14-5-23 6-14 29-16 164-16 158 0 203 5 203 21 0 4-15 10-32 13-52 9-318 12-330 5z"/><path d="m8218 4638c-81-88-210-343-216-428-4-48 0-64 16-88 34-46 130-66 182-37 29 16 21 20-49 28-24 3-56 14-70 25-46 35-37 86 49 258 58 118 86 162 133 211 39 41 57 68 54 78-12 29-41 15-99-47z"/><path d="m7713 4673c-3-10-16-31-27-48-12-16-37-61-57-99-31-61-40-71-80-85-33-12-45-23-47-40-3-21 0-23 23-19 14 3 24 3 22-1-40-73-58-161-37-186 18-22 143-21 164 1 24 24 9 37-35 30-22-3-50-3-64 0-30 7-27 27 16 122 29 62 29 62 71 62 46 1 157 22 177 34 6 4 8 12 5 18-5 7-37 8-96 4l-89-7 16 38c9 21 34 66 57 100 23 36 38 69 34 78-8 21-45 19-53-2z"/><path d="m9820 4661c0-14 13-24 50-36 88-29 125-117 100-241-29-149-101-282-203-375-47-43-56-69-23-69 24 0 95 59 135 113 72 97 124 215 145 324 17 90 7 163-31 218-47 67-173 115-173 66z"/><path d="m8653 4628c-5-7-24-47-43-88-18-41-46-103-62-137l-29-63h-50c-113 0-174-64-137-144 6-14 19-28 30-32 28-8 102 31 143 78l37 40 82-28c77-25 136-28 136-6 0 4-42 23-92 41-109 40-104 37-91 53 24 32 125 269 119 283-7 18-30 20-43 3zm-183-347c0-5-19-23-42-40-43-32-43-32-53-10-7 17-5 25 14 40 24 19 81 26 81 10z"/><path d="m9095 4608c-3-7-13-42-23-78l-19-65-66-3c-59-3-67-5-67-22 0-18 7-20 60-20h61l-8-37c-4-21-8-65-8-98 0-48 3-60 17-63 19-4 18-5 40 118l13 75 85 5c70 4 85 8 88 23s-6 17-77 17c-45 0-81 4-81 8 0 5 9 37 20 71 12 34 18 66 15 71-9 14-45 12-50-2z"/><path d="m9608 4581c-44-47-128-163-128-178 0-28 33-27 58 3 17 20 22 23 17 9-4-11-25-69-46-130-41-113-49-125-86-125-16 0-23-6-23-20 0-19 7-20 121-20 115 0 166 10 154 31-4 5-39 9-79 9h-74l38 108c20 59 56 149 79 201 48 110 52 141 19 141-13-1-35-14-50-29z"/><path d="m7500 3240c0-10 6-23 14-27s59-44 115-87c99-78 100-80 81-98-21-20-17-48 8-48 8 0 23 7 33 15 15 15 20 12 53-26 20-24 36-45 36-48-1-3-43-35-95-71s-97-74-101-84c-11-34 22-48 96-42 36 3 101 8 145 11l80 5 45-61c25-33 51-69 59-80 13-19 6-19-298-19s-311 0-311-20 7-20 838-20c814 1 1701 12 1950 26 122 7 122 7 122 32 0 24-1 24-52 18-71-10-887-26-1613-33l-590-5-17 34c-42 80-87 158-134 228-50 74-51 76-37 109 27 64-14 111-97 111-34 0-54 12-164 100-124 99-166 119-166 80zm377-245c9-25-2-27-22-5-17 18-17 20-1 20 9 0 19-7 23-15zm-41-216c-55-3-102-4-104-3s29 25 70 52l73 49 31-46 31-46z"/><path d="m8690 3049c-32-13-70-49-70-66 0-25 30-26 55-3 26 24 104 44 119 30 12-12 0-52-25-85-13-15-56-55-98-88-115-91-114-92 124-92 171 0 200 2 200 15 0 12-26 16-155 20l-155 5 60 46c61 47 115 125 115 166 0 11-9 29-20 41-17 17-32 22-73 21-29 0-63-5-77-10z"/><path d="m9220 3023c-63-33-101-76-82-95 9-9 17-9 26-3 72 55 113 75 152 75 89 0 116-30 94-109-15-55-57-101-124-135-46-23-65-28-102-23-66 7-80 24-65 79 20 68 19 83-4 83-38 0-70-105-49-160 11-27 64-47 128-49 52-1 72 4 130 34 71 36 105 70 131 133 20 48 19 117-1 146-40 57-148 68-234 24z"/><path d="m8315 2950c-3-6-3-19 0-30 9-27 65-29 65-2 0 34-49 58-65 32z"/><path d="m6478 2728c-10-25 5-36 52-36 25 1 99-3 165-7 80-5 129-3 148 4 64 25 26 33-239 47-101 6-122 4-126-8z"/><path d="m11046 2591c-4-6-5-15-2-20 4-6 207-19 369-23 41-1 55 17 26 33-32 17-383 26-393 10z"/><path d="m6650 2573c-74-5-90-11-90-34 0-21 3-21 103-15 199 13 251 24 217 46-14 9-129 11-230 3z"/><path d="m11122 2369c-15-5-22-16-20-26 3-16 21-19 138-25 132-6 150-5 150 11 0 18-56 31-130 31-43 0-82 5-85 10-7 12-22 12-53-1z"/><path d="m8838 2311c-97-62-169-204-188-372-13-109-1-184 36-242 28-43 78-77 113-77 21 0 18 5-28 56-31 34-55 71-62 97-19 68-5 209 29 304 36 103 72 155 134 195 28 19 48 39 48 50 0 26-29 23-82-11z"/><path d="m10377 2293c-17-16-3-34 41-57 121-61 183-216 152-381-18-97-68-167-144-205-33-17-67-30-77-30-25 0-32-15-14-30 20-17 79-5 140 28s128 126 144 202c31 146 2 293-75 379-60 67-146 115-167 94z"/><path d="m9171 2185c-30-30-62-57-73-61-10-3-18-14-18-25 0-24 36-26 70-2 23 16 23 16 16-3-5-10-13-32-18-49-6-16-15-34-19-40-14-15-10-42 6-49 23-8 48 26 72 96 12 35 30 86 41 114 15 38 18 54 9 63-19 19-30 13-86-44z"/><path d="m7862 2143c-39-19-82-67-82-92 0-27 24-54 46-49 15 3 18 11 16 35-2 25 3 35 27 52 37 26 41 26 41-2 0-26-57-126-81-140-12-7-32 4-88 46-138 107-231 152-231 112 0-8 44-43 98-79 53-36 115-81 137-99l40-35-52-15c-65-19-100-42-118-77-11-20-11-30-2-39 22-22 64-12 114 28 89 70 102 67 230-52 89-84 133-116 133-99 0 12-52 83-73 101-26 21-20 31 17 31 78 0 46 29-75 69-37 12-75 31-84 41-17 19-16 21 15 57 47 53 80 129 73 167-11 59-39 70-101 39z"/><path d="m9836 2144c-3-9-6-35-6-58v-43l-82-6c-105-8-162-27-166-55-4-26 15-28 73-7 22 8 69 14 105 15h65l-3-76c-4-74-3-76 20-72 14 2 24 10 25 23 1 11 5 46 8 77l6 57 52 3c38 2 52 7 52 18s-13 16-47 18l-48 3v44c0 56-8 75-30 75-10 0-21-7-24-16z"/><path d="m10227 2087c-32-23-81-56-110-72-34-20-53-38-55-53-5-30 13-28 81 9 31 17 57 28 57 26 0-3-11-29-25-58-45-99-43-169 6-169 23 0 34 17 20 34-20 24 40 172 100 246 16 19 29 45 29 57 0 35-36 28-103-20z"/><path d="m8261 1946c-16-19 12-46 49-46 31 0 47 25 29 46-15 18-63 18-78 0z"/><path d="m9080 1880c0-19 7-20 143-20 141 0 188 9 157 30-8 5-79 10-157 10-136 0-143-1-143-20z"/><path d="m9205 1753c-31-8-65-34-65-49 0-23 28-28 56-10 14 10 39 16 57 14 28-3 32-7 35-35 3-25-4-38-32-64-49-44-48-69 3-69 44 0 91-15 91-28 0-24-113-51-135-32-17 14-35 5-35-19 0-43 42-51 131-25 66 19 89 39 89 74 0 31-23 56-62 65-26 7-27 8-13 28 23 32 19 113-5 137-20 20-67 25-115 13z"/><path d="m8855 1009c-95-96-244-199-290-199-9 0-15 9-15 24 0 33-25 53-45 36-39-32-2-110 53-110 58 0 246 115 309 189l22 26-6-40c-12-75-8-91 26-104 37-16 89-2 154 39 52 33 53 32 32-55-18-76-19-105-1-105 23 0 38 27 56 103 10 39 27 95 38 122 20 50 16 85-9 85-6 0-40-25-76-55-66-57-130-95-158-95-19 0-19 19 1 102 29 117-1 129-91 37z"/><path d="m8010 913c-47-14-132-38-190-53l-104-28-39-58c-21-33-48-69-59-81-21-22-19-53 3-53 7 0 26 11 43 24 39 29 115 44 127 25 18-29 10-75-18-101-60-56-143-78-143-38 0 26-24 26-50 0s-25-35 2-54c52-36 148-13 218 52 61 57 74 107 41 160-19 29-25 32-71 32h-51l18 30c10 18 26 30 38 30s59 12 106 26c46 14 124 36 173 50 85 23 111 38 100 56-9 13-55 7-144-19z"/><path d="m7432 840c-59-36-193-152-189-164 8-24 44-16 85 19 48 41 49 40 23-12-11-21-33-74-51-117-28-72-29-81-15-95 12-12 19-13 33-5 9 6 17 17 17 25 0 39 81 216 134 292 48 70 30 98-37 57z"/><path d="m6500 740c0-20 4-20 218-18 185 3 217 5 217 18s-32 15-217 18c-214 2-218 2-218-18z"/><path d="m8540 641c0-17 13-19 178-25 97-3 242-9 322-12 102-4 154-2 175 6 30 12 30 12 7 21-31 12-338 29-529 29-143 0-153-1-153-19z"/><path d="m6570 582c-5-2-10-13-10-24 0-19 5-20 173-16 163 3 227 14 227 38 0 7-368 9-390 2z"/><path d="m8808 428c-52-27-67-41-86-79-31-62-19-92 45-121 40-18 69-21 173-22 114-1 128 1 153 20l27 22-153 4c-152 4-207 16-207 44 0 34 22 62 68 87 59 32 72 34 72 7 0-31 38-26 51 7 9 24 7 30-11 45-32 26-60 22-132-14z"/></g><g fill="#44b" transform="matrix(.054411653 0 0 -.054411653 1742.30858153537 2048.83671991264)"><path d="m750 2973c-57-10-88-25-119-57-40-41-55-100-46-179 6-45 12-61 32-77 32-25 35-25 64-1 22 17 24 26 21 89-4 105 24 120 164 87 33-7 119-19 190-25 88-8 134-16 144-26 32-32 8-420-28-456-18-18-126-28-289-28-185 0-206-4-250-52-55-58-58-82-55-363 1-145 7-274 13-293 11-34 51-62 89-62 12 0 35 14 52 31l31 30-6 238c-3 130-3 249 0 264l5 27h112c234 1 363 26 423 82 58 54 98 260 91 463-4 122-7 138-34 191-40 81-79 100-217 108-174 10-361 14-387 9z"/><path d="m3660 2971c-42-9-83-34-103-65-39-59-50-127-54-343-5-206-5-212 18-252 28-50 78-86 143-102 48-12 257-8 370 7l49 7-7-104c-4-57-11-189-16-294-9-177-9-192 8-214 35-47 100-46 136 2 22 29 27 86 42 452 7 191 0 235-44 283-45 48-92 56-241 38-146-18-229-20-265-6l-26 10v162c0 156 8 230 27 249 5 5 99 6 210 2l201-6 5-50c3-39 11-56 31-74 34-29 48-29 80 0 24 20 26 30 28 113 4 147-23 169-218 179-242 11-340 13-374 6z"/><path d="m1565 2945c-14-13-25-32-25-42s-1-297-3-638c-2-677-3-662 55-694 33-19 73-7 101 31 18 24 20 51 29 300 5 150 10 278 12 283 2 6 37 8 97 3 52-3 135-7 186-7 154-2 161-10 143-176-21-189-27-310-18-343 12-45 45-72 86-72 71 0 102 46 102 151 0 33 7 118 16 187 24 190 9 280-58 349-50 52-112 67-263 65-71-1-164-6-205-11-41-4-78-7-81-5-4 2-10 108-13 236-9 286-17 352-47 384-31 33-82 32-114-1z"/><path d="m2542 2944c-55-38-64-109-53-419 6-186 9-215 28-250 50-95 116-125 302-135 75-4 171-5 215-1l78 7-4-178c-2-97-7-181-11-184-4-4-42 1-85 11-104 26-285 27-363 3-106-33-149-107-99-170 26-34 68-41 132-21 74 23 202 20 308-7 182-47 274 5 301 168 12 77 27 831 19 994-7 152-20 181-86 186-88 7-103-51-104-401v-219l-201 4c-197 3-201 3-220 27-18 21-19 42-19 283v260l-29 29c-33 33-74 38-109 13z"/><path d="m2374 1391c-55-34-79-78-79-147 0-51 4-66 27-96 35-45 102-73 153-64 78 15 146 111 131 188-20 108-145 172-232 119z"/><path d="m1853 999c-39-11-66-56-61-101 6-59 69-64 76-6 4 30 34 38 145 38h67v-110c0-135-1-136-132-126-85 6-89 6-113-18-24-25-25-28-25-179 0-162 4-177 47-177 35 0 43 29 43 159v121h73c85 0 141 14 168 41 17 17 19 34 19 169 0 147-1 152-25 175-23 24-30 25-137 24-62 0-128-5-145-10z"/><path d="m2985 1000c-91-16-93-18-104-58-15-51-14-537 0-564 19-36 69-48 204-48 121 0 127 1 151 25l24 24-2 292-3 292-26 19c-31 23-161 33-244 18zm169-86c14-5 16-37 16-250v-245l-102 3-103 3v240 240l40 6c57 9 131 10 149 3z"/><path d="m2351 971c-24-24-29-73-37-372-6-232-6-237 15-258 23-23 29-25 51-11 12 7 16 40 20 150l5 141 35-23c19-13 59-55 88-93 30-39 78-96 108-128 47-51 56-57 74-47 29 16 25 42-15 92-19 24-62 78-95 121-61 77-61 77-33 77 15 0 46 9 69 19 56 26 67 57 62 179-6 156-27 172-220 172-93 0-111-3-127-19zm257-74c16-13 17-168 0-185-7-7-41-12-84-12-40 0-84-4-98-10l-26-10v120 119l98-6c53-3 103-10 110-16z"/></g></svg>