<svg height="3477.394267pt" preserveAspectRatio="xMidYMid meet" viewBox="0 0 1648.883453 3477.394267" width="1648.883453pt" xmlns="http://www.w3.org/2000/svg"><g transform="matrix(.1 0 0 -.1 -35.059343 3557.925479)"><path d="m1073 35561c-10-11-56-82-102-159l-84-139-76-7c-100-8-123-15-119-35 3-13 15-15 76-13 39 2 72 0 72-5 0-17-16-30-45-37-85-20-105-28-105-41 0-21 12-25 55-15 22 5 41 8 42 6 2-2-11-33-28-69-37-81-36-121 3-125 32-4 60 34 37 49-11 6-6 23 23 82l36 73 93 11c52 6 95 10 97 8 1-1-20-40-48-86-28-45-49-88-47-93 13-40 66 14 137 141 22 40 26 42 79 48 103 11 124 16 113 27-5 5-37 12-71 15-33 3-58 9-56 13s34 10 70 13c97 7 105 23 16 34-28 3-50 9-49 12 2 3 12 21 23 40 11 18 35 58 53 89 34 57 35 86 5 80-18-3-36-28-91-125-56-99-49-94-146-91l-86 3 70 115c97 160 102 170 96 186-7 19-22 18-43-5zm13-356c-11-8-36-15-55-15-20 0-60-3-90-7-52-6-53-6-40 15 13 20 22 22 109 22 86-1 93-2 76-15z"/><path d="m1885 35355c-5-2-27-6-47-10-24-4-38-11-38-21 0-22 17-25 100-15 41 4 78 6 83 4 9-5-40-45-73-60-36-15-90-62-90-79 0-19 27-30 91-38 31-4 65-13 75-21 18-13 15-16-38-40-31-14-89-33-129-41-83-17-84-17-76-39 8-19 46-19 122 0 216 56 258 157 76 181l-53 7 34 20c77 46 106 69 119 93 12 24 12 28-10 45-17 14-38 19-80 18-31 0-60-2-66-4z"/><path d="m2300 35347c-27-9-36-18-38-39-3-22 1-28 16-28 11 0 25 7 32 15 16 20 64 19 84-1 19-18 20-70 3-101-14-25-82-78-152-118-61-35-125-84-125-95 0-27 34-40 103-40 83 0 139 13 158 37 13 15 6 15-79 9-59-5-92-4-92 3 0 5 26 24 58 42 84 48 155 104 175 137 19 34 23 112 6 144-11 21-66 48-96 47-10 0-34-5-53-12z"/><path d="m1615 35312c-28-20-83-58-123-85-69-45-88-72-58-83 8-3 36 11 64 30 27 20 52 36 56 36s-16-27-43-60c-60-72-74-97-67-116 9-24 32-5 127 109 107 126 150 187 143 199-11 18-52 6-99-30z"/><path d="m2790 35267c-72-42-150-117-150-145 0-31 35-29 56 4 20 29 104 97 112 89 3-3-6-31-21-63-99-217-114-267-77-267 16 0 39 43 98 180 75 176 87 227 52 232-8 1-40-12-70-30z"/><path d="m2695 34849c-110-4-369-13-575-19s-469-15-585-21c-115-5-361-9-545-10-337 0-429-6-400-24 39-25 1080-11 2005 26 143 5 456 13 695 15 239 3 437 8 439 10s-9 9-25 16c-35 16-689 20-1009 7z"/><path d="m1016 34628c-13-29-52-141-86-248-35-107-76-226-92-264-25-59-28-71-16-83 16-15 48-8 48 12 0 7 13 29 30 50l30 38-6-48c-5-35-3-49 7-56 20-13 164-11 194 3 53 24 20 40-64 32-32-4-66-2-75 3-28 16 26 106 121 201 46 46 83 87 83 92 0 44-91-8-217-124-18-16-35-28-37-25-5 5 116 374 136 415 18 35 13 54-13 54-15 0-27-15-43-52z"/><path d="m10343 34638c-4-7-10-111-13-232l-5-218-55 54c-49 48-88 109-104 161-7 22-42 22-50 0-18-47 150-262 219-279 51-13 55 5 55 244 0 192 2 216 17 227 17 12 17 14-1 34-21 23-51 27-63 9z"/><path d="m12115 34630c-3-5-26-10-51-10-37 0-44-3-44-20 0-18 7-20 73-20 43 0 78 5 85 12 9 9 12 9 12 0 0-8 17-12 46-12 27 0 43-4 39-10-3-5-21-10-39-10-26 0-35-5-39-22-3-12-4-25-1-30 7-11 44-10 44 2 0 6 7 10 15 10s15 6 15 14c0 9 8 12 25 8 18-3 25-11 25-28 0-12 4-25 10-29 16-10 50 19 50 44 0 21-3 23-30 18-42-9-37 0 10 19 34 14 40 21 40 45 0 25-4 29-28 29-15 0-33-5-39-11-8-8-13-8-17 0-10 15-96 14-96-1 0-9-3-9-12 0-15 15-84 16-93 2z"/><path d="m12585 34556c-5-2-49-16-97-31-70-22-88-31-88-46s7-19 35-19h36l-43-43c-24-24-97-88-163-142-122-100-162-140-521-505-179-183-386-373-514-470-85-65-185-154-185-164 0-27 44-13 95 28 30 25 80 64 110 88 200 155 442 383 714 671 96 101 229 228 310 295 77 65 157 133 176 151 45 41 160 124 165 119 3-2-5-21-16-42s-17-46-14-57c13-40 38-18 80 70 35 75 29 95-31 98-21 1-43 0-49-1z"/><path d="m12140 34515c-16-42-12-55 16-55 23 0 25 3 22 37-4 44-24 54-38 18z"/><path d="m12053 34480c-24-10-32-39-10-41 44-4 86 19 73 40-8 13-32 13-63 1z"/><path d="m1875 34461c-6-21 6-83 30-150 8-24 15-49 15-56 0-6-30-47-67-90-98-113-123-146-123-167 0-36 37-18 83 40 25 31 66 79 90 107l44 50 37-72c35-70 57-93 90-93 20 0 21 29 2 44-27 21-88 156-82 181 3 13 34 48 67 79 41 37 60 60 56 71-11 26-34 17-95-40-59-54-59-54-70-31-6 13-14 45-17 72-4 27-12 55-17 62-15 18-36 15-43-7z"/><path d="m12271 34446c-25-26-21-46 8-46 19 0 61 40 61 58 0 21-46 13-69-12z"/><path d="m11958 34444c-16-8-28-18-28-23 0-4-14-6-30-3-34 5-60-12-60-39 0-24 18-24 67 0 21 11 49 22 63 25 38 9 54 22 47 40-8 20-24 20-59 0z"/><path d="m12201 34376c-12-13-30-23-39-22-13 1-18-9-20-36-3-33 0-38 17-38 15 0 21 6 21 24s4 23 18 19c22-5 67 40 59 61-9 23-30 20-56-8z"/><path d="m11753 34373c-7-2-13-14-13-25 0-18 4-19 38-13 42 8 57 18 48 34-7 11-51 14-73 4z"/><path d="m3355 34314c-8-20-15-57-15-83 0-25-4-84-9-131-14-124-21-589-21-1411v-726l-57 8c-76 9-1368 24-2173 24-558 0-635-2-635-15 0-16-90-14 2010-38 464-5 802-13 820-19l30-9 3-480c1-263-2-564-7-667-5-104-7-195-4-203 8-23 42-17 48 9 12 55 16 347 24 1902 5 929 13 1704 19 1760 5 55 8 103 5 108-9 16-23 5-38-29z"/><path d="m11670 34333c-8-3-22-11-30-18s-31-15-51-19c-41-7-67-30-49-41 20-12 82 5 87 24 3 12 12 17 26 14 31-6 77 13 77 32 0 15-30 19-60 8z"/><path d="m10567 34310c-44-8-51-14-43-35 5-13 16-15 66-9 58 6 60 6 60-17 0-12-12-40-26-60-14-21-24-47-22-61 3-21 8-23 53-22 51 2 177 35 228 61 29 15 37 43 12 43-9 0-61-14-117-30-56-17-103-28-106-26-2 3 3 15 12 28 19 26 21 109 4 126-13 13-61 14-121 2z"/><path d="m11465 34236c-24-20-28-27-17-37 10-11 19-10 48 6 21 11 34 25 32 34-5 25-30 23-63-3z"/><path d="m11368 34189c-16-6-28-14-28-19 0-4-8-6-18-3-10 2-34-7-55-21s-42-26-48-26c-5 0-23-7-39-15-34-18-40-45-10-45 31 0 70 22 70 40 0 13 7 16 29 12 22-3 36 2 54 20 13 13 29 22 36 20s28-1 47 3c26 4 34 11 32 23-4 20-33 25-70 11z"/><path d="m2412 34155c-23-7-48-18-55-23-7-6-23-12-37-14-20-2-29-14-44-55-32-90-4-130 96-139 115-11 288 84 288 157 0 36-37 65-101 78-63 14-93 13-147-4zm150-45c21-6 40-15 44-21 12-20-57-78-120-99-142-48-224-1-132 77 61 51 128 65 208 43z"/><path d="m9947 34098c-7-18-19-59-26-91-13-58-13-59-29-35-25 36-44 47-79 48-56 0-78-35-85-140-3-35-3-34-38 35-41 80-61 98-87 73-16-17-16-19 4-40 12-13 46-76 77-141 49-104 59-118 78-115 22 3 23 7 28 138 5 125 6 135 24 135 13 0 29-16 46-45 19-32 34-46 52-48 29-3 38 14 58 108 22 98 22 98 60 49 39-51 97-109 110-109 15 0 40 12 40 19 0 4-39 49-88 99-98 103-123 113-145 60z"/><path d="m11068 34069c-24-14-23-39 2-39 29 0 70 21 70 37 0 15-47 17-72 2z"/><path d="m10978 34027c-28-11-40-47-16-47 30 0 78 25 76 40-4 19-25 21-60 7z"/><path d="m1385 33963c-9-21-39-86-67-146-28-59-48-110-44-114 16-17 65 41 110 133 52 105 63 156 34 162-12 2-22-8-33-35z"/><path d="m10878 33987c-28-11-40-47-16-47 30 0 78 25 76 40-4 19-25 21-60 7z"/><path d="m10778 33947c-30-12-39-47-13-47s77 30 72 43c-5 16-26 17-59 4z"/><path d="m10673 33904c-18-8-33-18-33-24 0-5-6-7-14-4-20 8-76-23-76-41 0-8 9-15 20-15 28 0 70 21 70 36 0 7 8 10 19 7 24-6 84 24 78 40-5 17-27 18-64 1z"/><path d="m10478 33814c-50-27-29-52 28-34 24 8 34 17 32 28-4 22-27 25-60 6z"/><path d="m12817 33789c-69-16-122-53-156-110-12-19-21-28-21-21 0 8-9 12-22 10-26-3-23 8-64-248-41-261-41-252-14-248s28 5 67 180l28 128 45 6c70 10 191 53 228 81 70 53 89 120 52 181-30 49-66 59-143 41zm92-52c6-8 14-28 17-44 9-45-52-104-137-131-72-24-139-37-139-28 0 18 51 116 76 145 49 58 155 91 183 58z"/><path d="m10383 33775c-18-8-33-21-33-29 0-9-7-12-19-9-21 5-81-22-81-37 0-6-9-10-20-10-32 0-70-22-70-42 0-10 7-18 15-18 26 0 75 29 75 45 0 9 6 12 15 9 20-8 72 14 79 32 3 8 14 14 25 14 32 0 72 22 69 38-4 22-18 23-55 7z"/><path d="m12117 33685c-9-8-20-29-26-47-22-70-83-295-88-324-9-56 36-57 53-1 7 25 14 31 30 29 18-2 264 82 314 107 31 17 21 40-37 82-32 23-86 71-121 106-66 65-96 77-125 48zm107-104c16-18 52-48 79-66l48-33-73-27c-40-15-89-34-108-42s-48-19-63-23c-24-8-27-6-23 8 3 9 10 40 16 67 6 28 20 81 32 118 20 67 20 68 41 50 11-10 34-33 51-52z"/><path d="m10092 33634c-32-13-45-44-18-44s76 22 76 35c0 20-23 24-58 9z"/><path d="m9983 33588c-26-12-31-48-8-48 26 0 75 30 75 45 0 18-34 19-67 3z"/><path d="m9893 33544c-36-15-45-44-13-44 31 0 71 22 68 38-4 21-18 23-55 6z"/><path d="m9787 33494c-30-16-32-37-4-42 21-4 67 26 67 44s-28 17-63-2z"/><path d="m9693 33444c-18-8-33-19-33-25 0-5-5-7-10-4-18 11-80-18-80-37 0-10 5-18 12-18 25 0 78 25 78 36 0 7 8 10 19 7 24-6 84 24 78 40-5 17-27 18-64 1z"/><path d="m9498 33364c-35-18-37-44-4-44 30 0 72 33 62 48-9 16-25 15-58-4z"/><path d="m8860 33322c-30-21-80-49-110-61-30-13-59-27-64-32-6-5-18-9-28-9-11 0-18-7-18-20 0-15 7-20 28-20 30 0 180 69 228 105l31 23 12-36c7-20 28-60 47-89 32-49 32-52 14-58-11-4-20-15-20-26 0-16 7-19 49-19 63 0 89-24 51-49-45-30-180-156-180-169 0-22 27-24 56-5 16 10 52 41 80 68 28 28 70 65 93 84 23 18 40 38 38 45-3 8 210 11 832 11 460 0 852 3 871 8l35 7-32-26c-18-14-33-34-33-45 0-28 29-36 49-13 9 11 33 32 54 48 55 41 51 66-19 100-31 15-80 30-110 33-50 5-54 4-54-15 0-15 9-22 38-29 32-8 20-11-93-21-157-15-1206-16-1433-2-170 10-202 19-147 39 36 13 51 51 19 51-19 0-56-19-66-33-4-7-15-1-27 14-24 28-71 122-71 141 0 20-21 38-45 38-11 0-45-17-75-38z"/><path d="m979 33313c-10-27-2-94 41-365 21-130 32-158 60-158 26 0 61 55 154 239 43 85 86 168 97 183s17 32 14 38c-9 14-41 12-54-4-16-19-104-184-150-282-42-88-61-110-61-70 0 13-9 80-21 148-11 68-22 157-23 198s-5 81-9 88c-13 20-37 13-48-15z"/><path d="m9393 33320c-23-9-31-34-14-44 15-9 81 23 81 39 0 17-32 19-67 5z"/><path d="m2157 33273c-2-5-14-38-26-74-22-68-77-167-113-206-16-17-25-20-39-13-23 13-65 13-90 0-29-16-49-64-49-118 0-88 34-94 115-20 57 52 57 52 83 34 77-50 185-75 254-59l43 10-55 15c-30 8-77 21-105 27-27 7-69 24-92 40l-43 27 41 54c23 30 50 73 61 95 29 55 66 167 61 183-5 13-39 17-46 5zm-197-343c0-6-16-27-35-48-31-33-34-35-35-15 0 39 21 73 47 73 12 0 23-5 23-10z"/><path d="m9298 33268c-16-5-28-16-28-24s-6-11-15-8c-22 9-85-16-85-33 0-13 8-15 42-10 23 3 47 12 53 20 5 7 28 17 49 20 44 7 62 20 52 36-9 13-31 13-68-1z"/><path d="m14680 33187c-85-89-160-185-160-204 0-46 90-6 146 64 21 27 41 52 45 57 4 4 7-68 7-160-1-93 3-492 7-886l7-718-548 1c-568 0-823 8-1149 33-104 8-247 18-317 22-124 6-128 6-128-13 0-24 15-26 300-43 96-5 213-15 260-21 53-7 370-13 833-16l747-5v-291c0-161-5-345-10-410-10-129-7-147 21-147 31 0 36 49 45 522l6 327 62 5c33 3 156 8 271 10 324 8 801 25 890 31 97 7 91 2-67-61-115-45-134-58-102-71 35-13 221 57 309 116 32 22 58 31 86 31 55 0 55 32 0 60-22 11-42 24-45 29-17 27-372 139-403 127-15-6-17-32-3-41 5-3 36-13 67-21 54-14 108-33 242-87l55-22-50-7c-27-4-191-12-364-17-173-6-349-12-390-15s-184-8-317-11l-243-5v298c0 163-5 536-11 827-6 292-9 552-7 579l3 50 29-55c45-84 84-129 112-129 31 0 30 7-5 56-51 69-122 210-115 228 6 17-20 56-38 56-5 0-40-33-78-73z"/><path d="m15010 33204c-17-52-6-127 28-188 37-65 71-80 107-46 17 16 25 19 25 9 0-8 7-59 15-114l14-100-37-43c-62-73-88-118-115-200-24-71-25-85-16-147 12-85 26-116 62-133 24-12 32-11 59 5 41 24 64 56 88 125 17 48 20 83 20 217v160l37 30c20 16 64 44 97 62 80 42 100 69 51 69-29 0-89-28-153-72-30-21-43-25-47-16-6 19-35 255-35 288 0 15-7 33-15 40-22 18-41-2-49-50-7-46-26-90-37-90-5 0-18 19-30 42-20 39-25 85-17 158 2 19-2 26-19 28-17 3-24-5-33-34zm198-665c-4-116-7-133-34-186-36-72-62-78-82-18-18 54-10 136 21 212 29 71 75 136 89 127 7-4 9-54 6-135z"/><path d="m8637 33146c-3-7 1-23 8-33 13-18 9-26-36-79-27-32-71-96-96-142-95-167-160-199-246-117-51 48-86 47-137-4-21-21-47-56-58-77-21-41-91-151-139-219-25-35-34-40-74-43-38-2-54 3-98 33-86 57-102 49-167-81-56-112-118-185-172-207-41-16-115-11-198 14-81 24-125-9-196-150-12-24-47-70-77-101-72-72-115-86-210-69-82 14-127 3-159-41-28-37-122-200-122-211 0-4-13-17-30-29-33-23-31-50 5-50 27 0 39 14 95 110 83 144 101 168 128 177 15 5 38 6 52 2s52-7 86-8c116-2 205 67 299 235 51 92 74 107 129 85 17-7 65-15 108-18 65-5 82-3 122 16 64 31 128 107 183 217 26 52 51 94 56 94s27-14 48-31c31-24 52-32 97-36 91-7 102 2 233 212 64 103 112 165 125 165 7 0 28-14 46-30 102-94 212-48 312 131 26 46 66 106 89 135l42 52 60-64c46-48 68-64 88-64s27 5 27 20c0 11-8 24-19 28-23 9-110 104-140 155-23 37-54 49-64 23z"/><path d="m10563 32993c-39-42-92-128-132-216l-37-78-34 97c-35 98-51 118-75 93-11-12-10-24 10-74 13-33 31-82 41-109 21-58 54-79 83-52 10 9 44 68 75 131 32 64 77 136 102 164s43 55 39 61c-11 19-46 10-72-17z"/><path d="m9595 32898c-3-8-4-70-3-139 3-120 4-124 26-127 12-2 24 3 26 10 24 84 35 108 62 136 26 26 40 32 72 32 48 0 72-26 72-76 0-35 19-57 42-49 8 3 25 24 37 45 29 52 66 80 107 80s54-21 54-83c0-53 22-79 46-55 11 11 13 28 8 72-9 73-41 116-87 116-54 0-104-19-136-52-22-22-31-27-31-16 0 9-14 28-32 43-29 24-38 27-86 22-36-4-65-14-87-31l-34-26-3 52c-3 46-6 53-26 56-12 2-24-3-27-10z"/><path d="m1424 32752c-11-8-104-230-104-250 0-6 9-12 19-12 20 0 36 29 101 176 22 51 24 85 5 91-5 1-15-1-21-5z"/><path d="m8784 31838c-11-13-44-72-74-131l-54-109-17 49c-26 76-57 131-79 138-41 13-55-24-20-53 11-10 33-57 49-107 21-64 36-93 51-99 29-13 38-1 116 149 36 72 71 133 76 136 15 9 5 43-13 47-8 1-24-8-35-20z"/><path d="m7996 31744c-3-9-6-46-6-82 0-37-4-82-9-100-12-42-4-64 22-60 14 2 24 14 30 37 10 40 54 99 81 107 24 8 36-11 36-58 0-78 37-95 64-29 17 43 67 106 99 122 27 15 37-3 37-68 0-64 7-83 30-83 26 0 32 26 24 97-7 71-33 113-68 113-26 0-93-41-118-73-17-22-17-22-38 6-25 31-56 35-102 11l-31-16 7 32c7 36-7 60-34 60-10 0-21-7-24-16z"/><path d="m6175 31728c-64-24-197-105-217-132-3-5 4-31 18-57 13-26 21-54 18-62-8-22 45-167 79-214 33-46 47-52 68-27 11 14 9 29-15 98-16 44-47 118-71 163l-42 82 41 29c44 30 146 82 163 82 6 0 33-35 61-77 27-43 73-110 100-149l51-70-66-52c-45-36-70-49-77-42-21 21-47 10-62-25-10-25-23-37-47-43-22-6-32-14-32-28 0-16 6-19 38-17 36 2 37 2 37-32 0-28 4-35 20-35 15 0 20 7 20 29 0 46 28 83 88 119l55 32 806-2c493-2 806-7 806-12 0-6-31-34-70-63-76-58-99-98-48-84 27 8 94 50 139 88 38 32 56 70 49 102-7 31-53 57-147 82-82 22-107-12-35-48l42-22h-748l-748-1 20 27c25 30 27 24-68 155-31 43-74 108-97 145-44 74-66 84-129 61z"/><path d="m2140 31530c-134-23-177-53-167-116 6-37 20-54 46-54 10 0 12 9 7 39-4 26-2 42 7 49 19 16 124 42 168 42 88 0 192-57 205-112 6-29-9-46-170-191-91-83-124-142-104-184 8-17 23-29 37-31 22-4 23-1 17 33-5 27-2 44 13 68 25 40 90 103 159 155 29 22 64 54 77 73 64 86-5 184-158 225-57 15-70 15-137 4z"/><path d="m7531 31229c-35-57-54-160-49-269 3-93 5-101 35-138l32-39-32-30c-18-16-59-51-92-78s-87-74-120-105-103-90-155-132c-52-43-124-105-160-139s-132-122-215-197c-82-74-180-165-217-201-38-36-68-62-68-59 0 4 18 44 39 90 49 104 84 206 77 225-3 8-15 13-26 11-16-2-27-22-49-83-15-44-45-116-66-160-44-94-70-184-56-198 5-5 17-5 29 2 11 6 40 11 63 11s82 5 130 12c77 10 89 14 89 31 0 18-6 19-77 14-43-3-91-9-108-13-30-7-30-7 15 42 25 27 90 89 145 138s174 158 265 242 199 179 242 213c42 33 105 86 140 118 109 102 247 213 262 213 8 0 21 12 28 27 13 28 139 140 218 195 60 41 120 99 120 115 0 18-35 16-51-3-7-9-38-33-69-54-30-21-102-77-159-125l-104-88-23 28c-41 51-44 188-8 311 12 42 22 57 41 65 33 12 24 33-15 37-26 3-35-2-51-29z"/><path d="m917 31224c-4-4-7-26-7-48-1-23-19-93-41-156-46-131-51-163-29-168 10-2 39 32 82 95 37 54 85 116 109 138l42 40-6-40c-4-22-16-70-28-106-21-64-21-99 0-99 5 0 42 33 83 73 67 66 160 137 180 137 16 0 7-37-27-109-41-84-44-111-15-111 16 0 30 19 60 82 47 96 54 160 19 178-29 16-99-9-158-57-25-20-51-40-57-45-8-6-10 11-6 61 4 63 3 70-17 80-27 15-51 3-110-53l-43-41 8 35c5 19 8 53 9 75 0 33-4 41-20 43-12 2-24 0-28-4z"/><path d="m16678 31177c-24-23-60-63-81-90-21-26-43-47-50-47s-32 19-57 42c-80 76-130 100-130 62 0-15 89-103 136-134l23-16-36-44c-43-55-73-112-73-140 0-39 29-20 73 48 24 37 53 75 65 86 20 18 22 17 79-9 108-51 199-68 210-40 8 22 1 26-53 36-43 8-158 53-178 70-9 8 54 90 118 151 24 24 36 43 33 53-10 25-35 17-79-28z"/><path d="m6227 31094c-4-4-7-25-7-46 0-32 3-38 21-38s20 5 17 42c-3 39-16 57-31 42z"/><path d="m7174 31073c-14-65-28-95-65-146l-40-54-42 14c-47 17-123 12-156-9-32-20-54-75-48-120 7-49 22-68 55-68 28 0 146 66 176 98 18 20 19 21 65 3 75-29 161-46 178-35 28 18 14 29-64 50-134 36-129 31-83 89s84 149 75 182c-8 34-43 30-51-4zm-156-232c14-8-16-34-92-81-31-19-40-20-47-9-12 20 0 61 23 82 21 18 92 23 116 8z"/><path d="m1755 31059c-44-5-116-12-160-16-61-6-80-12-80-23s14-16 58-18c130-7 336 34 297 58-8 5-19 9-25 8-5 0-46-4-90-9z"/><path d="m6220 30945c0-38 3-45 20-45s20 7 20 45-3 45-20 45-20-7-20-45z"/><path d="m6220 30835c0-38 3-45 20-45s20 7 20 45-3 45-20 45-20-7-20-45z"/><path d="m2196 30797c-25-18-12-37 25-37 26 0 30 3 27 22-4 27-26 34-52 15z"/><path d="m6222 30728c2-30 8-43 18-43s16 13 18 43c3 37 1 42-18 42s-21-5-18-42z"/><path d="m6222 30618c2-30 8-43 18-43s16 13 18 43c3 37 1 42-18 42s-21-5-18-42z"/><path d="m5546 30551c-21-23-99-218-116-291l-13-55-20 44c-10 24-29 84-42 135-34 132-50 171-70 174-27 6-34-15-18-60 7-22 25-83 39-136 45-175 91-246 135-206 10 9 30 54 44 100 38 124 84 240 106 268 11 14 17 30 14 36-10 16-40 12-59-9z"/><path d="m6227 30554c-4-4-7-25-7-46 0-32 3-38 21-38s20 5 17 42c-3 39-16 57-31 42z"/><path d="m2860 30509c-92-7-228-16-570-39-329-23-461-26-810-17-480 11-864 5-1005-18-112-17-137-27-119-45 6-6 54-5 139 5 159 18 635 24 1035 11 290-9 460-3 925 29 116 8 273 19 350 25 187 13 386 16 407 6 23-10 35 18 18 39-10 12-38 15-144 13-72 0-174-4-226-9z"/><path d="m4602 30488c-17-17-15-277 2-343 11-42 17-50 37-50s25 6 30 45c11 69 53 155 92 184 58 45 66 38 69-61 3-82 5-88 25-91 16-2 25 5 37 30 21 44 99 139 128 155 61 33 80 5 88-127 5-93 5-95 30-95s25 0 22 95c-5 123-26 176-74 185-49 9-111-19-157-71-21-24-41-44-45-44-3 0-6 14-6 31 0 64-37 85-103 60-37-14-96-70-112-105-12-29-13-22-14 80-1 101-8 134-31 134-3 0-11-5-18-12z"/><path d="m6220 30400c0-33 3-40 20-40s20 7 20 40-3 40-20 40-20-7-20-40z"/><path d="m7863 30353c-32-6-79-67-93-122-7-25-18-66-26-91-14-47-38-176-49-271-5-44-4-58 9-68 27-23 43-6 49 51 3 29 11 88 18 130 13 77 13 77 49 83 19 4 61 21 93 38 115 61 137 148 59 230-25 27-50 31-109 20zm80-61c9-10 19-32 23-48 5-24 0-35-30-64-35-35-121-78-133-66-4 4-2 21 4 39 6 17 14 48 17 68 13 77 79 115 119 71z"/><path d="m6227 30334c-4-4-7-25-7-46 0-32 3-38 21-38s20 5 17 42c-3 39-16 57-31 42z"/><path d="m7343 30198c-39-76-105-258-99-273 9-25 35-17 51 16 9 16 32 71 51 121 19 49 36 94 39 98 3 5 22-7 43-26 20-19 54-42 74-52 21-9 38-19 38-22s-33-22-72-43c-132-68-196-127-137-127 25 0 54 15 93 47 16 13 64 40 107 59 111 51 113 69 14 119-31 15-75 50-99 76-24 27-52 49-63 49s-26-16-40-42z"/><path d="m6220 30185c0-38 3-45 20-45s20 7 20 45-3 45-20 45-20-7-20-45z"/><path d="m5557 30214c-10-11-9-92 3-160 32-178 39-198 66-187 17 6 18 38 4 96-6 23-14 89-18 147-6 95-9 105-27 108-12 2-24 0-28-4z"/><path d="m6222 30078c2-30 8-43 18-43s16 13 18 43c3 37 1 42-18 42s-21-5-18-42z"/><path d="m6206 29988c-12-45-7-60 16-56 21 3 43 51 32 70-11 17-42 7-48-14z"/><path d="m6067 29994c-4-4-7-25-7-46 0-32 3-38 21-38s20 5 17 42c-3 39-16 57-31 42z"/><path d="m6362 29937c-27-28-29-57-4-57s66 45 59 64c-9 23-30 20-55-7z"/><path d="m6207 29904c-4-4-7-25-7-46 0-32 3-38 21-38s20 5 17 42c-3 39-16 57-31 42z"/><path d="m6085 29890c-10-15 17-69 37-76 10-3 18-15 18-27 1-37 24-57 66-58 27-1 32-3 14-6-36-7-43-18-28-42 17-28 58-28 58-1 0 11 6 20 13 20 6 0 20 16 29 36 16 32 17 35 2 41-9 3-25 1-35-6-16-9-19-8-19 9 0 22-40 30-40 8-1-8-6-6-14 5-7 9-19 17-27 17-9 0-14 12-15 32-2 41-43 74-59 48z"/><path d="m6306 29845c-22-33-20-55 4-55 18 0 50 44 50 70 0 20-38 10-54-15z"/><path d="m10847 28513c-17-16-4-31 32-37 39-6 51-20 51-59-1-35-34-98-78-150-52-60-64-110-33-140 19-19 35-22 136-26 127-4 154 1 136 23-8 10-47 16-119 21-59 4-110 9-114 12-13 7 11 53 52 101 105 126 91 262-29 262-15 0-31-3-34-7z"/><path d="m13204 28485c-8-21 6-31 58-39 49-8 156-64 170-89 12-23-14-64-87-137-88-88-83-136 18-161 29-7 97-13 152-14 167 0 185 29 24 40-128 9-199 25-199 44 0 9 27 43 61 76 125 124 120 178-23 248-89 44-165 58-174 32z"/><path d="m2633 28373c-15-5-17-39-4-47 4-3 22-2 38 3 35 10 63-2 63-28 0-10-25-56-55-101-63-95-71-134-29-150 36-14 221-13 247 2 21 11 21 11 2 19-11 4-45 8-75 9s-77 5-103 8l-49 7 56 84c65 97 72 136 31 176-18 19-34 25-67 24-24 0-49-3-55-6z"/><path d="m1025 28307c-23-23-40-55-56-107-32-105-29-245 10-530 62-453 63-880 5-1170-30-147-124-454-193-629-17-41-19-56-10-67 6-8 15-14 20-14s37 26 73 58c35 32 81 63 102 70 36 11 41 10 56-9 21-25 44-100 59-189 16-93 13-385-6-595-8-99-31-355-50-570-57-653-68-846-62-1079 4-186 9-229 37-361 50-238 101-375 140-375 15 0 12 20-10 86-28 81-65 227-90 363-21 106-22 135-17 440 5 362 20 566 109 1501 18 197 15 556-5 648-24 103-55 170-87 187s-96 5-147-26c-18-12-33-19-33-17s20 64 45 138c62 184 110 362 135 500 44 239 37 733-16 1105-35 254-41 404-20 492 27 107 76 175 76 104 0-42 9-61 30-61 35 0 43 87 10 120-30 30-67 25-105-13z"/><path d="m4963 28328c-37-8-43-13-43-35 0-23 3-25 28-19 63 16 78 17 105 7 49-19 37-52-57-151-63-66-87-98-92-125-4-23-2-41 5-48 13-13 216-23 258-12 37 9 11 35-36 35-84 0-171 13-171 26 0 7 36 49 79 93 92 93 111 133 86 180-8 17-23 34-33 39-30 16-85 20-129 10z"/><path d="m7457 28331c-46-10-62-24-53-46 5-13 12-15 34-9 15 4 49 8 77 9 42 0 51-3 61-24 17-33 6-53-66-121-61-58-81-100-60-125 33-40 173-81 218-64 36 14 18 27-59 45-64 15-109 37-109 53 0 5 27 35 59 66 70 67 88 102 75 147-17 59-88 87-177 69z"/><path d="m6421 28226c-7-8-16-43-22-78-5-34-17-88-25-118-35-123-64-283-52-297 17-21 34-15 63 23l28 36 13-30c53-128 278-81 398 83 12 17 16 15 64-21 29-21 52-41 52-45s-11-27-25-50c-46-82-18-126 32-49 50 78 45 75 80 56 51-26 131-40 148-26 21 17 11 28-38 40-53 13-117 41-117 50 0 4 17 33 38 66 21 32 49 79 64 104 14 25 35 54 47 64 16 15 18 22 10 33-6 7-17 13-24 13-16 0-70-60-91-103-9-17-32-57-52-87s-38-57-39-59c-10-16-113 85-113 111 0 31-12 48-35 48-28 0-39-27-26-62 15-41-30-100-114-148-80-45-124-55-168-36-32 13-37 19-37 49 0 43 33 92 117 176 63 63 75 92 40 99-19 4-146-103-209-175l-39-46 6 39c4 21 15 71 25 109 33 121 49 219 38 233-13 16-23 15-37-2z"/><path d="m2513 28208c-33-36-48-74-88-213-20-71-41-137-45-145-13-22-21 21-34 178-10 127-13 137-31 137s-20-8-23-94c-3-99 19-244 44-293 15-29 44-37 62-15 15 18 47 106 83 232 33 116 57 173 83 194 9 8 16 20 16 27 0 22-44 16-67-8z"/><path d="m10579 28181c-38-31-149-191-194-281-27-52-29-53-36-30-4 14-7 52-8 85-1 80-28 216-46 234-11 11-17 12-28 3-12-10-12-21 0-74 7-35 16-99 18-143 17-249 58-272 154-88 62 119 160 253 198 272s39 45 3 49c-16 2-38-8-61-27z"/><path d="m12990 28122c-54-17-121-122-160-251l-23-74-34 84c-19 46-39 96-45 112s-17 27-29 27c-27 0-29-44-3-90 7-14 25-56 39-95 40-108 58-129 93-106 7 4 28 53 46 107 59 177 107 250 158 239 21-5 28-3 28 8 0 25-42 48-70 39z"/><path d="m1556 28078c-3-7-7-67-9-133-3-83-10-132-21-159-15-34-16-41-3-54 21-20 33-10 62 53 34 72 105 149 156 169 22 9 44 14 49 11 19-12 21-65 3-114-28-79 17-99 52-23 35 75 97 122 159 122 44 0 56-19 64-109 7-62 9-66 32-66 24 0 25 2 22 55-7 120-40 170-111 170-44-1-106-22-131-45-19-17-20-17-29 8-16 42-53 60-96 48-48-13-121-56-131-78-6-12-10 10-14 67-5 79-7 85-28 88-12 2-24-3-26-10z"/><path d="m4738 28068c-8-13-31-68-52-123-60-162-87-216-102-204-17 14-42 91-50 151-7 52-24 74-50 64-13-5-15-15-10-49 12-75 48-175 75-208 57-68 100-16 187 225 26 74 45 111 57 114 20 5 22 23 5 40-19 19-44 14-60-10z"/><path d="m9523 28068c-6-7-15-57-22-111-6-54-20-125-31-158-24-70-25-92-5-109 22-18 35-3 55 64 23 73 73 132 141 167 31 15 59 25 63 22 10-10 7-126-4-143-10-16 5-40 26-40 7 0 22 17 33 38 28 54 133 132 179 132 32 0 42-159 12-195-15-17-5-35 19-35 31 0 44 28 49 104 5 86-9 140-44 163-21 14-31 14-67 3-22-6-65-27-94-46l-53-34v34c0 69-54 84-143 40-29-15-60-33-69-42-22-19-23-11-6 69 9 46 9 61-1 73-16 19-25 20-38 4z"/><path d="m3912 28018c-7-7-12-23-12-37 0-28-15-116-35-205-15-65-11-86 15-86 11 0 28 21 49 64 32 65 117 156 146 156 21 0 20-53-4-120-21-59-18-80 9-80 11 0 28 21 48 63 37 75 88 127 128 130 24 2 30-3 41-33 6-19 12-69 12-111 1-80 14-108 47-95 13 5 15 19 9 94-3 48-9 99-11 115-7 35-50 87-72 87-36 0-90-21-116-45l-26-24v23c0 35-23 49-67 41-51-9-87-29-113-62l-21-27 7 54c4 30 10 62 15 71 15 29-25 51-49 27z"/><path d="m12075 27969c-4-6-13-83-21-172s-15-166-15-172c-3-26 2-35 20-35 13 0 36 26 71 83 29 45 64 91 78 101l25 19-7-81c-6-71-4-82 9-82 9 0 57 43 107 96 83 87 130 124 157 124 20 0 32-69 25-140s-7-72 17-68c15 2 26 12 30 28 12 44 9 140-5 175-32 76-98 68-203-25-70-62-83-63-83-8 0 63-71 49-135-25l-35-41v75c0 41 4 88 8 104 5 17 7 36 5 43-6 15-39 16-48 1z"/><path d="m10621 27793c-25-80-27-131-6-140 22-8 22-6 45 82 26 100 26 125 1 125-15 0-24-15-40-67z"/><path d="m7325 27809c-21-5-43-15-47-22-13-21-9-61 11-94 39-63 191-69 219-8s5 107-62 124c-51 13-66 13-121 0zm136-56c6-6 7-22 3-37-5-22-11-26-44-26-21 0-50 4-63 9-30 12-45 49-26 63 18 11 116 5 130-9z"/><path d="m13000 27802c0-16 10-22 50-32 53-13 76-31 67-55-4-8-31-34-62-57-83-65-70-98 42-98 97 0 163 27 163 67 0 10-5 13-17 8-47-18-124-33-142-28-20 5-18 8 18 36 53 41 69 78 47 112-24 37-55 53-113 61-49 6-53 5-53-14z"/><path d="m3137 27693c-3-4-8-26-12-48-14-91-6-84-98-87-65-2-82-6-82-18s17-16 77-18l77-3-7-32c-4-18-7-52-7-77 0-38 3-45 20-45s22 11 33 77l14 77 96 3c83 3 97 6 100 21s-6 17-89 17h-92l8 48c12 81 12 87-12 90-11 2-23-1-26-5z"/><path d="m5594 27685c-4-8-11-39-18-68l-11-52-83-3c-74-3-82-5-82-22 0-18 7-20 75-20 41 0 75-3 75-7 0-5-7-30-15-57-19-62-19-96-1-96 22 0 36 24 55 92l18 63 69 7c75 8 114 21 114 38 0 20-32 23-97 10-35-7-66-10-69-7s2 31 10 63c8 31 13 61 10 66-9 14-44 9-50-7z"/><path d="m11336 27684c-3-9-6-41-6-72s-4-64-9-72c-7-10-36-15-105-18-86-4-96-6-96-23s9-19 95-19h95l-6-30c-4-16-3-37 0-46 6-15 8-15 26 1 11 10 24 32 28 49 8 29 11 31 101 47 86 15 123 30 108 45-9 9-43 9-120 0l-67-8 6 55c8 70 0 107-25 107-10 0-22-7-25-16z"/><path d="m8100 27601c0-39 60-46 272-33 105 6 195 15 201 21 5 5 6 15 2 21-6 10-41 11-144 5-75-4-149-7-166-8-16-1-60 2-97 6-64 7-68 6-68-12z"/><path d="m4348 27575c-2-3-101-9-219-15-215-10-291-21-319-46-11-11-12-16-2-26 9-9 22-9 60 2 26 7 117 16 202 20s277 13 425 20c149 6 274 16 279 20 25 25-13 30-213 30-114 0-210-2-213-5z"/><path d="m1860 27550c-36-4-131-8-213-9l-147-1 2-37c3-38 3-38 61-41 51-3 57-1 57 16 0 21 46 24 705 41 195 5 230 8 230 21s-42 15-315 16c-173 1-344-2-380-6z"/><path d="m9447 27554c-13-14-7-25 21-36 35-14 319-27 753-34 355-6 389-3 389 32 0 20-27 29-45 14-22-18-608-3-1030 25-45 3-84 3-88-1z"/><path d="m6265 27526c-41-8-60-16-60-26 0-12 13-15 55-13 30 1 161 1 290 1 993-3 980-4 980 27 0 23-35 27-152 15-81-7-208-8-443 0-404 12-591 11-670-4z"/><path d="m11925 27509c-4-6-3-15 2-20s205-8 489-7c418 3 479 5 479 18s-61 15-482 18c-341 1-484-1-488-9z"/><path d="m8202 27454c-38-28 0-34 207-34 171 0 211 3 221 15s8 15-12 19c-50 11-401 11-416 0z"/><path d="m12320 27362c-42-21-55-62-19-62 12 0 30 6 38 14 24 20 98 27 111 10 20-23 2-49-88-129-172-153-171-156 70-153 155 3 183 5 183 18s-25 15-149 18l-150 3 97 92c88 83 97 95 97 128 0 54-32 79-101 79-31 0-69-7-89-18z"/><path d="m4215 27354c-50-12-95-38-95-56 0-22 19-23 79-2 83 30 191-4 191-60 0-27-62-82-165-146-80-51-88-59-72-78 9-12 35-14 127-10 100 4 122 9 168 32 30 15 51 30 48 33s-42 0-88-6-101-14-123-17l-40-6 60 41c79 52 133 109 141 147 4 24 0 37-21 63-15 17-39 38-54 45-29 15-124 27-156 20z"/><path d="m9965 27351c-52-22-72-83-29-89 14-2 24 5 31 21 20 44 153 44 153 1 0-9-30-43-67-77-38-34-94-87-125-117-59-58-81-105-57-121 8-5 84-8 169-6 130 2 155 4 155 17 0 12-24 16-128 21-70 4-131 10-135 14s29 39 73 78c148 132 165 151 165 186 0 21-9 41-25 56-21 22-33 25-92 24-37 0-77-4-88-8z"/><path d="m1783 27320c-30-13-43-25-43-40 0-24 23-26 60-5 39 23 77 19 96-10 23-35 13-62-46-122-77-80-74-83 83-83 143 0 192 9 229 41l23 20-34-5c-19-3-86-9-149-13l-116-6 33 41c23 28 35 55 38 86 5 42 3 48-30 81-41 41-79 45-144 15z"/><path d="m6818 27303c-10-2-18-14-18-25 0-19 4-20 45-15 75 11 162-37 138-76-14-23-114-101-186-145-62-39-39-82 45-82 67 0 236 28 268 45 30 15 56 43 47 51-2 3-29-1-58-9-75-21-199-40-229-35-23 3-20 6 30 39 89 59 140 111 140 145 0 41-25 73-74 95-38 17-107 23-148 12z"/><path d="m6937 26289c-32-24-71-94-137-244-29-66-55-122-57-124-5-7 8 198 16 251 6 36 5 51-6 60-30 24-44-12-54-143-6-68-14-164-18-214-9-102-6-115 20-115 24 0 59 55 105 167 44 106 115 255 144 302 16 25 26 32 41 28 16-4 20-1 17 15-5 32-42 41-71 17z"/><path d="m4583 26255c-40-28-130-160-208-303-42-79-82-141-89-139-27 8-49 110-50 227-1 108-2 115-21 115-24 0-32-31-34-135-2-143 49-260 112-260 32 0 43 10 71 60 111 206 146 265 198 333 32 42 63 77 68 77 6 0 10 9 10 20 0 24-26 26-57 5z"/><path d="m2688 26173c-71-76-137-165-170-233l-27-55-1 116c0 91-3 119-15 129s-18 10-30 0-15-40-15-155c0-142 10-199 35-209 22-8 40 15 80 104 45 102 108 194 190 276 63 63 70 84 31 84-15 0-42-20-78-57z"/><path d="m5882 26148c-7-7-12-25-12-40 0-37-30-145-64-229-32-79-33-109-7-109 13 0 30 20 54 63 46 81 109 153 158 177 21 11 40 20 43 20 15 0 14-58-3-107-16-47-17-60-7-71 16-16 43-6 52 20 15 47 148 168 184 168s33-94-7-217c-14-42-15-55-5-65 29-29 56 17 82 140 39 187-51 249-189 129l-34-29-16 32c-24 50-41 56-96 36-26-10-63-33-83-50-25-22-34-26-29-13 4 11 10 30 13 43s11 24 16 24c13 0 3 57-13 77-14 16-22 16-37 1z"/><path d="m1780 26125c-6-7-18-41-26-75s-32-97-54-141-40-89-40-99c0-43 43-34 60 13 23 68 171 170 201 140 15-15-8-71-46-115-37-44-43-80-13-86 10-2 32 17 58 50 68 85 239 182 261 147 14-23 10-79-10-151-17-59-17-68-5-79 12-10 18-9 29 2 21 22 45 117 45 180 0 109-53 128-186 65l-72-34-9 31c-12 45-47 55-113 33-29-9-55-15-58-12s0 25 7 48c7 24 14 51 17 60 7 24-30 43-46 23z"/><path d="m3076 26042c-14-21-35-62-45-92-10-29-25-56-32-60-8-4-48-10-90-13-91-8-111-14-107-36 3-13 15-16 68-13 36 1 80 5 98 8l32 5v-75c0-46 4-78 12-82 20-12 38 28 38 85 0 31 4 61 8 67s46 14 94 17c105 8 123 14 107 33-8 10-37 14-101 14-88 0-89 0-82 23 9 29 32 76 54 107 9 14 15 31 13 38-9 24-41 12-67-26z"/><path d="m3929 26024c-19-15-51-43-71-63-33-30-38-32-38-15 0 76-106 48-210-56l-40-40 7 42c13 73 10 110-10 122-26 16-33-2-42-97-3-44-13-109-20-145-15-72-13-82 15-82 14 0 28 16 45 51 39 76 161 199 198 199 6 0 7-21 2-57-13-106-13-108 14-108 18 0 26 7 32 27 4 15 22 47 39 72 34 46 121 126 138 126s22-62 13-150c-10-89-6-104 25-98 16 3 20 18 28 110 7 95 6 111-10 145-25 50-66 56-115 17z"/><path d="m4800 26003c0-17 11-22 68-31 96-16 454-20 459-6 6 19-80 32-242 38-82 4-180 9-217 13-63 5-68 4-68-14z"/><path d="m7431 25858c-61-88-49-85-119-27-61 49-92 58-92 25 0-8 29-38 63-67l64-52-36-50c-20-27-57-76-83-109-52-65-62-100-28-91 24 6 87 75 142 156 21 31 41 57 45 57 3 0 31-20 61-45 36-30 64-45 83-45 40 0 45 17 11 37-16 10-49 36-74 58l-46 41 31 51c19 31 40 53 52 55s20 11 20 23c0 15-8 21-32 23-28 3-36-2-62-40z"/><path d="m6940 25843c-26-10-60-46-60-65 0-24 28-23 54 1 34 31 90 31 106 0 22-40-46-123-152-187-41-25-52-44-35-61 18-18 247-15 275 5 12 8 20 19 17 24-3 4-51 6-108 3l-102-6 57 47c60 49 108 117 108 154 0 34-20 69-47 81-25 11-87 14-113 4z"/><path d="m4840 25759c0-20 3-20 218-17 119 2 223 7 230 11 32 21-14 27-224 27-220 0-224 0-224-21z"/><path d="m4227 25018c-50-87-109-213-139-297-56-159-57-158-58 40 0 144-3 179-15 189s-18 10-30 0-15-45-15-199c0-204 7-234 52-239 22-3 30 4 52 44 14 26 42 90 62 141 53 142 135 303 154 300 11-1 15 7 15 28 0 25-4 31-26 33-22 3-31-4-52-40z"/><path d="m6710 25030c-10-10-31-43-46-72-26-52-69-128-147-261-22-37-42-65-45-62s-9 47-13 97c-11 128-26 249-35 271-9 25-49 19-48-8 1-17 14-135 40-351 6-50 33-79 66-71 31 8 80 84 215 335 25 45 51 82 58 82 18 0 28 30 14 46-16 19-36 17-59-6z"/><path d="m1993 24883c-22-3-46-20-82-58-28-30-52-61-52-69-1-9-2-28-4-43-1-16-9-55-18-88-43-151-5-225 108-213 103 12 192 110 220 244 27 128 14 179-55 214-38 20-52 21-117 13zm92-49c8-4 22-19 30-35 20-37 3-153-30-220-57-112-190-166-211-85-15 63 53 264 110 321 25 25 65 32 101 19z"/><path d="m5682 24848c-9-12-31-119-63-317-9-54-9-66 5-79 12-13 18-13 30-2 9 7 16 22 16 34 0 30 83 168 120 200 37 31 42 32 56 8 20-31 25-75 15-126-11-58-6-76 20-76 12 0 25 15 39 46 36 82 134 204 164 204 8 0 6-122-3-193-8-64-2-81 25-75 15 2 21 17 28 68 14 93 9 231-9 249-31 31-129-31-186-119l-16-24-21 47c-35 79-89 82-165 9l-38-37 8 55c16 111 6 164-25 128z"/><path d="m3296 24828c-3-7-6-44-9-83-3-45-17-107-40-173-20-56-34-109-30-117 7-21 42-19 49 3 35 107 98 217 162 285 53 55 62 50 62-35-1-40-5-93-11-118-23-101-23-100-1-100 12 0 29 13 41 33 58 92 91 135 124 164 37 32 82 51 94 39 15-15 15-108-1-155-21-66-20-81 4-81 47 0 79 164 49 249-21 60-110 49-189-25-46-43-48-44-54-22-3 13-6 44-6 69 0 63-24 86-74 69-19-6-49-24-65-39-33-31-46-26-53 19-3 27-45 42-52 18z"/><path d="m2460 24740c0-20 4-20 203-18 172 3 202 5 202 18s-30 15-202 18c-199 2-203 2-203-18z"/><path d="m5389 24736c-5-5-203-25-349-35-75-5-95-9-95-21 0-30 435-10 498 22 15 7 16 12 6 24-11 13-50 20-60 10z"/><path d="m6845 24606c-39-18-125-101-125-121 0-36 32-27 84 24 28 28 55 51 58 51 4 0-16-45-43-99-57-113-76-203-44-214 25-10 32-2 39 50 3 27 28 91 57 147 72 143 63 202-26 162z"/><path d="m2440 24563c0-19 9-21 113-28 160-12 245-11 257 1 19 19-72 35-227 41-139 6-143 5-143-14z"/><path d="m4240 24473c-40-13-60-28-60-45 0-26 27-34 49-14 10 9 32 16 49 16 29 0 32-3 32-31 0-36-24-79-87-157-61-75-58-122 9-122 27 0 154 71 196 109 30 28 43 61 23 61-4 0-23-10-42-23-53-36-169-99-169-92 0 4 20 32 44 63 24 32 51 71 60 89 22 44 21 115-2 136-18 16-69 21-102 10z"/><path d="m4492 24383c-5-10-13-45-16-78-8-70 3-91 52-101 28-6 37-2 66 29 33 35 34 35 40 14 12-44 6-57-34-77-124-63-180-166-141-256 27-60 73-83 132-65 50 15 97 63 105 109 9 48 10 262 2 262-5 0-8 29-8 64 0 144-42 154-108 26-41-81-55-78-51 11 3 63 2 74-13 77-9 2-21-5-26-15zm153-400c-4-30-15-49-36-68-39-32-62-32-89 3-43 54-11 133 78 192l47 31 3-58c2-32 1-77-3-100z"/><path d="m5890 23638c-12-13-48-72-82-133-63-115-145-245-155-245-3 0-3 75 0 166 4 140 3 166-10 171-28 11-35-16-45-170-12-167-5-210 33-222 45-14 89 39 209 249 65 114 91 151 105 151 15 0 20 7 20 25 0 35-45 40-75 8z"/><path d="m4920 23536c0-17-73-239-89-271-14-28-16-44-9-52 15-18 26-16 46 9 65 81 101 112 179 150 70 35 86 40 94 27 15-24 10-51-16-85-29-37-32-62-9-71 10-4 33 12 67 48 65 68 171 127 193 108 18-14 16-55-6-131-16-54-6-75 29-63 25 8 50 47 33 53-8 2-8 11-1 28 5 14 9 48 9 75 0 95-65 116-176 55l-62-35-6 25c-4 13-17 31-29 39-21 13-30 13-69 1-26-7-72-28-104-45-31-17-59-30-60-28-1 1 5 32 13 68 17 70 14 99-12 99-8 0-15-2-15-4z"/><path d="m2104 23413c-10-16-27-44-40-64-12-20-52-96-89-168l-66-132-54 6c-51 7-55 6-55-14 0-14 8-22 28-27 60-13 64-15 56-32-3-10-9-40-11-69-5-46-2-55 20-77 50-50 162-27 242 49 19 18 35 40 35 48 0 13-11 10-57-15-32-17-67-37-78-45-11-7-39-13-62-13-37 0-43 3-49 25-3 13 0 43 8 67l15 43 124 11c68 6 139 14 157 18 28 7 32 5 32-12 0-26 17-39 60-47 27-5 48 0 93 23l59 30-7-47c-4-25-8-46-8-47-1 0-45-18-97-39-107-43-194-94-209-124-26-48 4-118 67-154 45-26 129-26 174-1 47 28 95 122 110 219 12 77 12 77 58 100 51 26 101 64 84 65-6 0-33-7-60-15-66-20-67-20-60 16 11 55-4 109-41 145-37 37-67 43-112 20-27-15-95-83-102-104-3-8-17-8-49-1-39 9-167 5-210-7-8-2-21 0-28 5-14 8 31 102 135 284 25 42 42 84 39 92-9 24-34 18-52-12zm341-309c15-15 15-18-2-36-23-26-86-58-113-58-19 0-20 2-6 29 18 33 71 81 91 81 7 0 21-7 30-16zm0-291c-24-115-75-183-136-183-41 0-89 29-103 62-18 41-14 49 41 84 47 30 179 92 199 93 8 1 8-14-1-56z"/><path d="m6028 23383c-31-37-37-57-22-74 13-14 12-24-6-80-11-35-20-77-20-92 0-23 4-28 21-25 24 3 32 24 70 176 16 66 18 86 9 97-16 20-34 19-52-2z"/><path d="m3034 23348c-4-6-6-35-5-63 2-66-14-134-50-205-46-91-48-93-138-106-93-13-170-48-191-86-13-24-13-29 5-48 17-19 27-21 71-16 74 8 129 31 178 71 50 40 80 44 209 21 73-13 177-9 193 6 6 7-9 10-181 39-71 12-131 22-132 23-2 2 11 28 27 58 54 100 87 277 58 306-15 15-35 15-44 0zm-184-433c-15-18-112-48-138-43-32 7 76 53 137 57 11 1 11-2 1-14z"/><path d="m3580 23100c0-20 4-20 298-18 256 3 297 5 297 18s-41 15-297 18c-294 2-298 2-298-18z"/><path d="m4090 23028c-41-4-139-6-217-6-79 1-146-1-149-5-4-3-4-13-1-22 5-13 32-15 175-15 175 0 267 11 290 34 20 19-6 23-98 14z"/><path d="m5380 22980c-538-4-615-7-615-20s76-15 615-18c615-3 697 1 687 31-4 14 59 14-687 7z"/><path d="m5846 22628c-36-45-82-115-103-157l-37-76-13 45c-7 25-16 84-20 133-6 93-20 120-48 97-19-16-19-67 0-166 22-115 43-172 66-179 28-9 41 5 79 83 40 82 101 172 153 229 41 44 44 73 8 73-13 0-43-29-85-82z"/><path d="m5071 22609c-41-16-85-59-124-123-22-33-36-50-33-36 17 70 18 106 2 119-30 25-42-3-55-125-11-103-11-118 3-132 21-22 35-8 102 104 61 102 121 165 135 142 12-18 11-116-1-157-18-62 27-85 56-28 34 65 170 185 198 174 15-6 25-44 32-122 8-81 13-95 34-95 27 0 34 35 21 107-22 126-32 146-77 157-33 9-77-14-141-69-28-25-53-45-56-45-2 0-7 25-9 56-6 75-31 96-87 73z"/><path d="m6158 21873c-66-73-128-188-194-364-78-208-118-440-93-543 34-147 172-346 240-346 17 0 9 16-57 105-123 165-149 257-125 437 29 218 146 524 251 657 40 50 46 81 17 81-7 0-25-12-39-27z"/><path d="m1190 21855c-48-36-86-107-111-210-32-130-37-427-13-721 13-163 18-333 18-664 1-520-10-652-76-910-22-85-42-165-45-177-5-20-1-23 25-23 27 0 33-6 58-57 17-36 35-107 50-191 81-462 88-1083 19-1724-14-131-14-150-1-183 19-44 64-65 144-68 107-3 107 25 2 43-39 7-77 19-85 27-20 19-19 68 4 298 60 582 51 1109-25 1580-29 175-50 240-95 298l-30 37 35 138c63 249 71 352 71 917 0 371-4 539-15 650-9 89-15 243-14 380 0 197 3 243 22 322 22 99 48 157 81 187 21 19 21 19 21-31 0-58 19-84 45-63 19 16 21 119 3 142-23 29-52 30-88 3z"/><path d="m2878 21859c-39-22-12-55 30-36 32 15 89-14 98-48 7-30-8-50-79-102-35-26-47-41-45-56 3-24 18-29 143-48 136-20 156-22 167-11 16 16-35 37-138 57l-91 17 48 47c53 51 61 82 36 131-24 47-124 76-169 49z"/><path d="m10584 21826c-8-20 12-100 32-130 27-43 73-183 94-292 65-339 20-539-147-664-32-24-60-45-62-47-13-10 12-13 46-4 165 45 270 281 242 545-21 192-58 345-107 441-14 28-33 75-43 105-17 55-43 77-55 46z"/><path d="m1991 21806c-6-7-20-55-32-106-25-116-69-251-130-402-35-85 6-108 60-33 27 37 35 43 50 35 67-35 286-51 286-20 0 11-21 18-80 27-190 29-187 28-161 68 8 13 61 62 116 110 65 56 100 93 98 103-6 32-38 24-86-20-26-25-77-73-114-108-38-35-68-60-68-56s13 47 30 95c24 73 47 161 77 299 4 17 1 22-15 22-11 0-25-6-31-14z"/><path d="m8453 21665c-27-11-33-20-33-45 0-23 5-30 19-30 10 0 25 9 32 20 20 30 73 18 89-20 18-42 5-67-76-151-79-82-99-123-69-146 24-17 266-18 297-2 32 17 4 29-77 30-38 0-95 4-125 8l-55 7 73 74c41 40 78 84 83 97 25 68-6 146-63 158-18 3-40 8-48 10s-30-2-47-10z"/><path d="m4837 21613c-4-3-7-19-7-34s-20-83-45-150c-75-205-59-226 74-95 47 45 96 88 108 95 22 11 22 10 17-21-3-18-7-39-10-45-6-21 7-43 25-43 9 0 31 19 47 43 41 57 129 123 186 138 26 7 50 10 54 6 12-12-13-79-56-149-44-74-50-98-21-98 21 0 77 78 111 152 24 53 26 111 3 133-33 33-155-3-237-70-42-34-45-35-51-16-3 12-15 26-26 32-24 12-69-13-136-75-24-21-43-35-43-31s14 48 31 97c32 95 33 138 0 138-10 0-21-3-24-7z"/><path d="m10346 21605c-28-28-9-47 39-39 37 5 45 3 54-14 26-48 14-80-57-155-83-87-106-122-98-143 11-30 316-4 316 27 0 5-12 12-26 15-28 7-153-1-191-12s-27 13 38 79c68 68 79 89 79 148 0 43-14 77-39 96-23 18-97 16-115-2z"/><path d="m6938 21583c-20-5-29-26-18-44 7-11 15-11 43-1 50 18 75 15 102-13 42-41 34-62-60-150-66-63-85-87-85-108 0-19 7-30 23-36 37-14 244-24 251-12 11 17-31 32-124 43-50 6-90 14-90 18s26 29 59 56c99 83 119 128 86 199-9 18-27 37-41 44-24 11-111 13-146 4z"/><path d="m2623 21561c-17-11-45-40-62-65s-35-48-40-51-31 22-57 55c-27 35-55 60-65 60-38 0-16-49 58-133l34-38-45-57c-51-66-88-131-80-144 14-22 45-5 71 40 15 26 41 63 57 84l30 36 37-29c36-28 82-38 93-20 3 5-19 28-49 51l-54 42 42 60c26 37 55 66 75 74 21 9 32 21 32 34 0 26-34 26-77 1z"/><path d="m6720 21377c-27-14-112-151-165-267-21-47-40-87-42-89-14-19-79 150-91 237-6 42-10 47-35 50-24 3-27 0-27-26 0-16 16-79 35-140 27-83 44-120 69-146 18-20 40-36 48-36 23 0 47 33 87 117 63 135 130 243 150 243 21 0 33 22 25 44-8 21-28 26-54 13z"/><path d="m10191 21352c-20-17-89-150-127-244-10-27-22-48-25-48-10 0-39 119-47 190-7 61-9 65-32 65-21 0-25-5-28-36-2-19 9-80 24-135 14-54 30-116 34-136 14-69 63-95 76-40 15 57 124 288 148 313 46 46 24 111-23 71z"/><path d="m2812 21330c-20-12-32-26-29-34s0-22-7-32c-7-11-16-38-20-61-5-35-3-46 14-63 25-25 43-25 96-1 32 15 47 30 68 72 32 66 33 83 1 114-30 31-77 33-123 5zm88-50c0-41-52-110-82-110-15 0-8 43 13 87 16 33 26 43 45 43 18 0 24-6 24-20z"/><path d="m7894 21336c-4-9-2-29 4-44s13-49 17-77c13-100 37-200 52-217 29-33 61-23 91 28 66 113 161 250 180 261 26 16 18 43-12 43-31 0-74-49-154-177l-69-112-11 52c-6 29-17 84-23 122-20 120-23 130-47 133-13 2-25-3-28-12z"/><path d="m9523 21308c-29-14-37-38-19-57 14-13 17-13 34 2 11 10 35 17 59 17 32 0 42-5 53-24 34-64-27-123-238-233-19-10-31-23-30-33 3-12 29-16 143-23 232-13 258-13 262 0 8 21-46 34-170 40l-118 6 70 39c72 40 123 93 142 147 9 25 7 38-8 69-11 20-31 43-44 49-29 15-106 16-136 1z"/><path d="m7516 21224c-3-9-6-36-6-60v-44h-77c-89 0-153-15-153-35 0-23 13-25 114-14 54 6 100 9 103 6s-1-38-8-77c-11-63-11-73 4-88 23-22 32-9 46 68 20 108 10 99 119 102 78 2 97 6 97 18s-18 16-92 18l-93 3v44c0 56-8 75-30 75-10 0-21-7-24-16z"/><path d="m4797 21207c-64-8-77-12-75-26 3-14 18-16 103-13 55 2 233 6 395 10 253 6 295 9 295 22s-43 15-320 16c-176 1-355-3-398-9z"/><path d="m3540 21161c0-34 38-41 236-41 172 0 184 1 184 19 0 17-14 19-182 24-101 4-195 10-210 13-24 5-28 3-28-15z"/><path d="m9145 21149c-22-4-95-8-162-8-118-1-123-2-123-22s3-21 158-17c116 2 163 7 175 17 35 28 13 41-48 30z"/><path d="m2065 21129c-60-5-146-13-191-19-44-5-101-10-127-10-41 0-47-3-47-22 0-21 2-21 128-15 70 4 183 12 252 17 69 6 235 14 370 18 208 6 245 9 245 22s-36 15-260 16c-143 1-309-3-370-7z"/><path d="m5021 21062c-48-24-60-47-38-69 16-17 18-16 43 10 20 22 34 27 69 27 34 0 45-4 45-15 0-45-50-99-165-179-88-62-76-72 80-68 209 5 300 14 300 32 0 13-25 15-163 15-130 0-159 2-145 12 69 47 108 84 130 127 26 51 25 82-3 110-21 22-109 21-153-2z"/><path d="m6735 21038c-9-37-25-120-32-160-5-34-3-38 16-38 14 0 25 9 32 27 18 47 39 162 33 178-9 23-43 18-49-7z"/><path d="m8213 21045c-25-11-33-20-33-40 0-29 29-35 50-10 12 14 60 22 60 10 0-21-42-61-96-91-61-34-83-61-68-85 10-17 160-6 211 15 37 16 64 49 50 62-3 3-33-4-67-16-73-25-112-23-64 3 18 9 43 30 58 47 64 77-4 148-101 105z"/><path d="m3630 21042c-6-2-10-12-10-23 0-18 9-19 174-19 158 0 176 2 197 20 13 10 22 20 19 20-18 3-372 4-380 2z"/><path d="m2125 20930c-13-21 9-30 76-30 105 0 95-26-41-98-51-28-75-46-75-59 0-17 12-18 180-18 153 0 180 2 180 15 0 12-23 16-123 20l-123 5 33 19c59 33 88 67 88 101 0 17-5 36-12 43-15 15-174 16-183 2z"/><path d="m1916 20084c-3-8 1-28 9-44s15-37 15-47 7-30 14-45c8-16 22-67 31-115 25-138 65-296 81-320 21-33 56-29 78 8 10 17 36 85 57 152 47 146 106 268 131 275 10 2 18 13 18 23 0 26-51 26-74 0-31-34-82-149-127-282l-44-132-17 58c-9 31-26 109-38 173-22 119-50 221-76 280-16 34-47 43-58 16z"/><path d="m4498 19823c-24-56-93-161-141-218l-34-39-15 29c-13 26-51 178-60 240-4 25-43 32-52 10-6-16 12-112 41-213 16-57 46-97 80-107 31-9 87 45 158 151 86 129 107 194 64 194-14 0-26-13-41-47z"/><path d="m3853 19852c-35-11-63-40-57-57 8-19 33-19 58 0 30 23 108 19 140-6 14-11 26-28 26-38 0-22-85-104-182-175-43-31-78-60-78-65s7-14 15-21c31-26 297 11 336 46 25 22 26 49 2 38-20-8-208-43-238-44-14 0-4 11 30 34 67 46 153 130 165 161 14 37-10 89-51 110-35 19-131 28-166 17z"/><path d="m3222 19723c3-16 18-18 158-18 131 0 155 2 155 15s-25 15-158 18c-147 2-158 1-155-15z"/><path d="m3440 19639c-36-5-98-10-138-13-80-4-88-7-78-32 6-15 19-16 117-11 141 8 229 32 213 58-6 10-22 10-114-2z"/><path d="m2713 19528c-26-40-49-75-50-77-6-9-46 36-64 72-19 36-41 47-54 26-12-18 4-56 46-109l42-53-34-63c-26-48-31-66-22-75 18-18 40-4 62 38 37 70 35 69 78 36 55-43 101-65 123-58 28 9 25 30-7 44-16 7-51 31-80 53l-52 40 18 36c11 21 35 59 54 86 37 50 39 76 6 76-12 0-35-25-66-72z"/><path d="m2282 19567c-26-27-28-55-6-64 10-4 24 4 37 21l22 26 33-20c26-16 32-26 32-55 0-48-20-85-86-156-43-47-55-66-52-87 3-26 6-27 70-30 51-2 76 2 105 16 50 26 80 59 66 73-8 8-29 2-74-20-61-30-109-40-109-23 0 4 18 26 41 47 49 49 85 108 94 156 18 96-111 182-173 116z"/><path d="m2094 18715c-8-32 3-75 19-75 9 0 19-38 31-117 18-121 26-157 52-230 13-34 20-43 40-43 31 0 43 20 110 181 30 73 67 149 81 168 27 35 24 62-9 69-20 4-70-87-128-231-24-59-47-104-52-99-4 4-21 84-37 178-16 93-34 181-41 197-17 36-57 38-66 2z"/><path d="m4369 18633c-50-55-126-183-175-290-23-52-45-97-47-100-16-15-37 110-37 213 0 126-4 144-31 144s-32-34-27-168c6-136 33-225 74-244 21-10 28-8 54 17 17 16 30 32 30 37s20 50 43 101c51 109 152 267 171 267 8 0 19 7 26 15 10 12 10 18 0 30-20 24-46 17-81-22z"/><path d="m3340 18382c0-35 57-46 205-39 151 8 177 13 173 36-3 12-14 16-53 14-170-5-226-5-272 1-49 7-53 6-53-12z"/><path d="m2744 18292c-7-4-18-23-27-43-19-47-110-138-171-172-27-15-50-27-52-27s8 21 21 46c46 86 26 184-36 184-36 0-87-38-94-70-13-59 22-68 54-14 27 45 46 40 45-13 0-28-11-57-33-91-38-60-40-105-3-110 27-4 139 56 203 108l45 38 11-29c14-36 51-39 94-8l29 20v-42c0-39-5-46-59-95-74-67-95-110-88-176 15-125 118-178 181-95 18 24 21 46 24 161l4 134 45 12c75 18 146 60 130 76-3 3-41-4-85-15-44-12-83-21-86-21s-6 42-6 94c0 67-4 97-14 105-17 14-46 4-46-16 0-23-39-87-61-101-24-16-25 0-3 79 20 73 12 103-22 81zm77-555c-6-15-17-27-24-27-23 0-49 37-57 79-8 47 5 83 51 136l34 38 3-100c1-55-2-112-7-126z"/><path d="m4539 18268c-37-31-139-157-139-172 0-32 39-15 85 37 26 28 45 43 42 32-15-48-48-267-43-280 8-23 35-18 45 8 8 21 29 128 53 276 14 88-5 131-43 99z"/><path d="m3418 18231c-54-8-63-14-54-37 5-14 16-16 64-10 31 3 111 9 177 12 119 7 161 16 150 35-7 10-262 10-337 0z"/><path d="m2057 17393c-11-11-8-73 7-132 8-31 24-99 36-151 32-139 59-210 81-210 34 0 85 70 212 290 19 32 39 55 49 55 26 0 40 20 36 51-7 68-74 26-135-86-44-79-110-187-133-217-17-22-18-21-43 75-34 130-57 241-57 274 0 14-3 33-6 42-6 16-35 22-47 9z"/><path d="m4345 17368c-8-18-32-78-54-133s-51-126-65-157c-25-57-27-58-66-58-33 0-40-3-40-20 0-16 7-20 31-20 28 0 31-3 25-22-3-13-9-42-12-64-6-36-3-43 17-58 30-21 81-21 122 1 58 29 107 75 107 99 0 21 5 23 83 26 68 2 84 0 95-14 7-10 28-20 47-24 34-6 35-7 35-55 0-33-4-49-13-49-7 0-45-16-85-35-70-33-162-108-184-149-36-68-27-149 23-190 34-29 54-31 129-15 89 19 136 77 171 214 10 39 19 91 19 117 0 34 5 50 18 57 16 10 16 10 0 11-14 0-18 9-19 38-2 71-11 86-58 98l-44 10 37 22c73 43 70 102-5 102-45 0-79-27-79-64 0-20-6-24-36-28-38-4-273 8-280 15-2 2 11 37 29 78 58 128 109 269 103 284-9 26-36 17-51-17zm-28-399c68-12 76-19 41-38-13-6-38-23-57-36-27-20-91-35-91-22 0 14 32 107 37 107 4 0 35-5 70-11zm350-256c-10-115-55-205-113-229-81-34-134-8-134 66 0 64 66 137 175 193 75 39 79 37 72-30z"/><path d="m3520 17351c0-4 9-44 19-87 11-44 24-133 29-200 12-153 35-214 81-214 36 0 66 35 112 134 42 91 126 235 152 265 12 13 37 30 55 38 37 16 38 36 1 42-70 10-134-72-268-344l-44-90-15 35c-8 19-18 91-22 160-5 69-11 132-14 140-2 8-12 41-21 73-14 50-19 57-40 57-14 0-25-4-25-9z"/><path d="m5269 17273c-1-5-1-44 1-89 2-71-2-90-31-159l-32-78-58 7c-92 9-158-7-198-50-30-33-33-40-27-78 9-58 46-90 95-81 75 13 143 59 194 129 13 17 18 17 139-18 128-37 172-43 197-27 9 6-3 15-43 30-31 11-61 21-66 21-9 0-173 50-177 54-2 1 12 36 30 77 28 65 32 84 31 156-2 83-12 113-40 113-8 0-15-3-15-7zm-113-375c11-17-71-86-119-99-47-12-59-2-55 46 2 23 11 34 38 47 40 20 125 24 136 6z"/><path d="m2901 17056c-7-8-10-20-6-26 9-14 292-14 301 1 13 21-12 27-147 34-115 5-137 4-148-9z"/><path d="m2488 16888c-67-72-84-108-51-108 9 0 30 12 45 27 28 27 37 18 18-17-13-24-29-140-22-158 2-7 14-12 26-10 18 3 22 12 27 58 4 30 21 99 39 153 50 151 25 168-82 55z"/><path d="m2944 16921c-2-2-4-13-4-23 0-16 11-18 129-18 125 0 182 10 210 35 11 11-18 13-159 12-94-1-173-4-176-6z"/><path d="m11540 16394c0-9 32-51 71-93 143-152 186-243 196-416 7-119-28-257-100-400-45-88-65-114-163-212-102-103-110-113-85-113 104 0 301 253 366 471 40 133 49 225 31 329-9 49-22 106-29 127-20 58-93 160-175 246-72 74-112 96-112 61z"/><path d="m6141 16223c-68-34-167-155-256-312-89-158-129-325-105-444 15-79 29-104 86-161 64-64 149-95 214-77 30 8 22 14-53 35-64 19-130 71-169 135-33 53-33 214 1 321 56 182 237 439 332 472 20 7 29 16 27 27-4 22-37 24-77 4z"/><path d="m11160 16223c0-17 9-21 51-26 54-7 96-28 106-53 7-18-15-44-82-97-80-63-99-118-47-138 43-17 166-7 191 15 11 10 19 22 16 26-2 3-42 4-89 2-54-3-86-1-86 6 0 5 31 35 68 65 87 72 99 92 79 140-20 46-63 68-144 75-58 4-63 3-63-15z"/><path d="m1417 16202c-21-23-44-99-52-172-3-30-10-266-15-525-7-415-11-481-29-565-27-125-33-143-72-222-43-88-36-99 60-91 67 6 67 6 99-33 65-79 86-293 57-594-68-715-77-885-51-975 23-78 54-125 117-175 96-75 109-41 19 51-85 86-104 148-95 314 8 165 33 474 51 630 9 72 18 222 21 333 5 172 3 217-12 290-30 148-85 212-178 212h-46l25 53c29 64 58 176 74 283 7 45 15 289 19 559 5 264 11 487 14 495s11 35 17 60c12 44 12 44 26 20 7-14 13-35 14-46 0-28 33-69 48-60 26 16 4 115-33 152-29 29-56 31-78 6z"/><path d="m7038 16179c-10-5-18-19-18-31 0-18 4-20 33-13 79 19 153-7 170-59 9-28 6-33-67-101-75-71-89-98-64-123 17-17 225-16 257 2 23 13 23 13-9 20-18 3-56 6-85 6s-67 3-84 6l-31 6 71 66c71 66 71 66 66 111-8 73-81 121-182 121-22 0-48-5-57-11z"/><path d="m9027 16153c-19-18-5-33 32-33 51 0 98-38 107-86 6-33 2-39-60-103-69-72-81-103-47-121 24-12 180-13 200-1 21 14 3 31-33 31-18 0-54 3-80 6l-47 7 60 59c55 53 61 63 61 99 0 88-58 149-142 149-25 0-48-3-51-7z"/><path d="m6430 16086c-5-13-12-122-16-243-6-193-5-220 9-231 27-23 52-5 141 102 103 124 207 223 238 228 15 2 23 10 23 23 0 24-27 31-65 15-28-11-182-165-252-250l-37-45-1 131c0 72 5 156 11 188 9 42 9 63 1 81-15 32-40 32-52 1z"/><path d="m2026 16033c-30-85-79-205-138-343-94-216-89-271 16-192 53 41 53 41 64 18 12-27 51-36 165-36 43 0 109-5 147-11 68-10 110-2 110 20 0 13-108 29-247 37-133 7-146 14-95 54 67 53 157 113 188 126 36 15 39 20 24 44-8 12-14 13-47 1-20-8-58-27-83-44-90-59-231-147-235-147-2 0 5 21 17 48 40 91 140 338 159 391 14 40 16 58 8 68-20 24-36 14-53-34z"/><path d="m8455 16010c-4-6-2-25 4-43 6-17 18-81 26-141 27-189 37-218 73-214 20 2 34 20 71 86 56 100 138 202 163 202 35 0 35 56 0 68-28 9-143-122-203-232l-27-48-12 73c-37 237-43 259-70 259-10 0-22-5-25-10z"/><path d="m3031 15992c-40-20-57-43-48-66 8-21 47-21 47 0 0 40 117 49 168 13 41-29 27-67-41-113-32-21-64-50-70-63-10-22-8-28 11-43 55-45 352-56 307-11-6 5-60 14-122 19-144 13-159 21-102 55 60 34 86 65 94 109 7 34 4 41-26 69-18 17-44 35-57 40-39 15-124 10-161-9z"/><path d="m7942 15953c-25-35-42-96-42-148v-41l-78-12c-42-7-92-12-110-12-26 0-32-4-32-22 0-21 2-21 104-15l104 7 4-90c3-93 16-126 41-102 7 8 13 50 15 111l4 98 81 6c83 7 110 18 90 38-6 6-43 9-92 7-55-2-81 1-81 8 0 46 23 121 41 135 26 19 22 53-8 57-14 2-28-6-41-25z"/><path d="m10677 15948c-2-7 4-30 15-51 10-21 32-90 49-155 35-136 46-153 82-129 27 17 40 35 143 192 36 55 75 107 86 116 25 19 16 39-16 39-29 0-49-23-124-140-33-52-69-106-80-119-19-24-19-24-40 64-29 117-65 195-91 195-10 0-21-6-24-12z"/><path d="m10217 15906c-9-22 12-34 51-29 28 4 42 0 60-17 44-41 22-80-95-167-85-63-108-97-78-119 27-20 249-19 319 1 124 36 115 71-11 44-90-20-151-23-217-11l-38 7 55 38c31 22 74 59 97 83 33 36 40 51 40 85 0 33-6 47-31 70-27 25-39 29-89 29-40 0-59-4-63-14z"/><path d="m4976 15884c-9-8-16-23-16-32s-14-53-31-97c-46-119-55-153-43-165 17-17 40-2 85 56 46 59 116 120 127 110 3-4-4-26-17-50-42-76-5-88 79-25 61 47 144 89 176 89 39 0 49-26 46-117-3-83-3-84 20-81 21 3 24 10 31 80 7 63 5 83-8 112-31 65-102 68-217 10-47-24-48-24-48-4 0 27-43 54-72 45-13-4-41-21-62-38-39-30-39-30-32-6s21 75 26 94c9 36-16 47-44 19z"/><path d="m3900 15822c0-19 10-20 198-24 108-3 199-3 201-1 3 2-3 11-12 21-15 15-43 17-202 20-178 3-185 2-185-16z"/><path d="m2783 15774c-6-3-39-41-73-85-34-43-65-79-70-79-9 0-82 75-106 108-17 24-49 29-57 9-6-16 49-89 99-133l36-31-52-78c-48-75-59-114-33-122 14-5 23 5 79 95 25 39 51 72 57 72 7-1 30-9 52-20 48-23 135-27 135-6 0 8-19 19-47 26-27 6-63 19-81 28l-32 18 57 77c32 42 63 77 69 77 17 0 33 21 27 36-5 14-36 17-60 8z"/><path d="m9695 15713c-46-6-160-32-189-43-26-9-35-33-17-45 5-3 45 4 88 16 47 14 123 24 193 28 66 3 115 10 115 16 0 22-110 38-190 28z"/><path d="m6802 15677c-25-32-55-118-59-175-6-63-5-64 18-60 20 3 25 10 31 54 4 28 17 72 28 98s20 56 20 66c0 22-25 33-38 17z"/><path d="m4025 15669c-33-5-78-6-101-3-30 3-44 1-54-11-28-34 0-39 192-29s217 16 197 40c-13 16-132 17-234 3z"/><path d="m8811 15614c-21-9-31-20-31-35 0-22 17-23 62-4 52 21 17-65-55-137-41-40-30-58 34-58 61 0 117 24 132 57 15 34 3 38-44 14-23-12-43-20-46-17-2 2 9 23 26 47 19 26 31 54 31 74 0 54-52 83-109 59z"/><path d="m3007 15490c-21-4-43-12-49-18-12-12-2-32 17-32 10 0 13-8 9-27-7-43 15-73 70-95 60-23 89-18 128 24 56 60 28 126-62 147-50 12-59 12-113 1zm140-61c19-17 16-33-11-58-22-21-27-22-60-10-40 14-44 28-19 65 13 21 22 25 46 20 17-3 36-11 44-17z"/><path d="m7668 14905c-28-16-37-48-18-60 6-4 23 1 37 11 26 16 27 16 45-6 21-26 14-43-38-103-22-24-34-47-34-67 0-25 5-31 38-40 20-6 69-14 107-17 59-5 73-3 85 11 19 24-1 36-61 36-64 0-109 10-109 25 0 6 12 22 26 36 31 29 54 71 54 98s-49 79-80 85c-14 3-37-1-52-9z"/><path d="m5553 14904c-7-3-13-14-13-25 0-16 7-19 55-19 43 0 56-4 65-19 8-17 2-27-44-68-29-26-59-58-65-71-16-30-5-61 26-73 32-12 194-11 213 1 26 17-5 27-102 35-48 4-88 10-88 14s27 33 60 66c67 66 73 89 37 131-19 22-33 28-78 30-30 2-60 1-66-2z"/><path d="m4363 14850c-99-83-168-239-193-433-18-130 5-215 75-275 47-42 78-49 113-26l27 18-32 7c-95 19-140 105-130 246 13 177 79 336 179 428 38 36 58 61 54 70-9 25-32 17-93-35z"/><path d="m5223 14865c-3-10 15-37 54-78 84-88 103-120 124-200 54-203-17-454-137-486-42-11-37-35 8-39 30-3 44 3 77 33 115 105 158 329 100 523-22 75-42 105-128 195-65 68-87 79-98 52z"/><path d="m2747 14853c-18-17-3-31 39-36 49-5 97-34 102-60 5-23-45-82-96-114-106-68-89-104 61-129 78-13 103-14 124-5 39 18 19 29-87 47-52 9-96 17-98 19s9 11 24 22c16 10 50 40 76 67 41 41 48 54 48 87 0 44-23 73-76 95-35 15-106 19-117 7z"/><path d="m2533 14723c-39-38-138-169-208-278l-57-89-16 29c-24 47-51 163-58 252-7 88-22 116-49 93-20-17-19-69 5-181 26-124 36-156 63-204 41-73 82-55 157 70 49 81 170 243 205 273 19 17 35 38 35 47 0 25-45 18-77-12z"/><path d="m6417 14647c-3-8-1-32 4-53 4-22 9-55 9-75 0-46-6-48-167-56-114-5-123-7-123-26s6-19 144-15l144 4 11-75c11-70 31-111 54-111 6 0 7 34 3 94l-7 94 75 7c65 6 76 10 76 26 0 17-8 19-80 19h-80l-1 58c-2 86-11 117-35 120-12 2-24-3-27-11z"/><path d="m5188 14623c-28-29-62-84-125-195-20-38-41-68-45-68s-8 48-8 108c0 114-6 136-36 130-17-3-19-15-22-103-4-118 10-180 46-203 24-15 25-15 51 15 14 17 55 81 91 144 36 62 76 126 89 141 43 52 5 80-41 31z"/><path d="m7337 14588c-30-35-71-85-91-113-91-123-132-174-139-175-11 0-27 46-46 140-10 47-29 111-44 143-21 47-30 57-50 57-29 0-42-23-22-40s50-104 74-214c23-106 40-136 78-136 42 0 61 18 163 153 100 133 160 202 182 209 21 7 0 38-26 38-17 0-40-18-79-62z"/><path d="m4460 14622c0-17 8-20 79-24 87-5 124-22 144-65 10-23 8-28-29-62-22-20-68-53-102-73-70-42-85-64-56-85 28-21 246-13 292 11 17 9 32 21 32 26 0 13-24 13-130-2-48-6-95-8-106-4-15 6-11 11 26 33 25 14 64 44 88 66 46 45 53 76 27 127-24 46-68 63-172 68-88 4-93 3-93-16z"/><path d="m3420 14520c0-19 6-20 201-20 186 0 200 1 197 18-3 15-22 17-201 20-192 2-197 2-197-18z"/><path d="m7611 14444c-12-8-38-41-60-72-21-31-59-80-85-108-76-85-49-121 31-42 24 23 43 38 43 33 0-6-9-39-20-73-22-69-25-108-11-116 15-10 41 5 41 23 0 9 23 81 51 161 27 80 52 157 55 171 7 33-15 44-45 23z"/><path d="m3528 14427c-76-8-88-12-88-28 0-22 17-23 210-9 125 9 195 24 184 41-7 11-191 9-306-4z"/><path d="m2513 14385c-25-11-33-20-33-40 0-29 24-34 50-10 22 20 48 10 56-20 10-41-29-107-100-170-47-42-66-65-64-80 3-18 9-20 77-18 86 3 137 17 151 43 13 25 0 31-41 20-19-6-47-10-64-10h-29l46 48c96 97 106 203 23 238-40 16-32 17-72-1z"/><path d="m4433 13548c-25-31-103-192-129-266-25-70-32-82-54-84-33-4-39-35-8-43 22-5 23-10 20-70-3-58-1-67 22-90 48-48 159-27 189 38 16 33 14 67-2 67-4 0-22-18-40-40-27-34-37-40-71-40-45 0-55 18-45 79l6 38 102 6c56 4 123 9 148 13 43 6 47 5 52-17 6-22 79-127 97-139 7-5 30-45 30-53 0-3-41-29-91-58-98-57-141-101-183-185-33-67-34-128-3-175 60-90 201-18 274 139 37 78 67 200 57 226-4 11 3 24 20 37 33 26 33 39 1 39-15 0-28 7-32 18-4 9-30 45-59 78-62 73-74 104-49 119 50 30 66 48 63 74-2 21-10 28-42 36-35 8-40 7-62-18-13-16-24-36-24-46 0-22-33-29-184-38l-108-6 7 24c17 55 76 188 109 248 20 35 35 71 34 80-4 20-32 26-45 9zm317-686c0-35-30-133-59-190-27-54-99-132-120-132-5 0-16-3-25-6-17-6-46 41-46 76 0 63 88 178 180 235 65 39 70 41 70 17z"/><path d="m5401 13527c-8-10-7-22 1-44 10-26 8-45-10-114-13-46-33-101-45-123-22-40-22-40-87-41-76 0-140-27-200-84-69-66-72-162-6-169 44-5 150 53 224 123l66 62 71-45c83-54 142-81 172-82 41 0 33 18-22 49-31 17-87 52-125 76l-70 45 20 32c31 51 70 183 70 239 0 76-28 112-59 76zm-164-422c-60-55-160-115-173-103-13 14 7 60 39 89 46 42 106 69 152 69l40-1z"/><path d="m3674 13469c-3-6-10-55-14-108-8-103 9-292 31-333 50-98 92-77 197 100 38 64 80 136 93 160 14 27 43 56 76 78 29 19 53 42 53 50 0 43-124-20-164-85-13-20-49-81-81-136s-69-118-83-139l-25-40-15 30c-22 41-38 264-26 347 5 35 8 70 6 76-5 14-39 14-48 0z"/><path d="m2014 13445c-27-70 84-423 138-441 29-9 43 10 119 159 34 67 75 141 91 165 27 39 33 43 59 37s29-4 29 19c0 34-37 54-68 37-38-20-89-95-151-218-34-68-65-123-70-123s-11 8-14 18c-3 9-20 58-37 107-19 54-34 122-38 170-6 73-9 80-30 83-13 2-25-3-28-13z"/><path d="m2760 13160c0-19 7-20 194-20 207 0 234 3 215 26-9 11-53 14-210 14-192 0-199-1-199-20z"/><path d="m2478 13020c-42-53-45-61-32-74s13-19 1-43c-8-15-27-64-41-109-31-91-32-139-2-139 14 0 23 18 43 84 13 47 37 114 52 150 67 159 70 166 59 178-18 22-32 14-80-47z"/><path d="m3037 12974c-3-4-48-7-99-8-90-1-93-2-96-25l-4-24 140 7c142 6 206 19 199 40-4 12-128 21-140 10z"/><path d="m13061 12526c-9-11 1-26 50-72 134-129 188-249 197-434 4-103 1-128-23-225-62-251-199-445-382-540-21-11-54-30-73-42l-35-23h43c80 0 223 93 317 207 108 130 199 369 212 553 7 108-18 243-64 338-27 54-61 100-121 164-46 48-90 88-97 88s-18-6-24-14z"/><path d="m6144 12464c-49-24-141-111-183-173-91-134-164-322-195-503-18-101-10-203 22-285 25-67 100-171 147-208 38-29 111-55 152-55 35 0 20 16-42 46-135 66-235 232-235 390 0 173 92 440 207 602 44 63 127 136 171 153 15 6 22 16 20 26-4 24-26 26-64 7z"/><path d="m8940 12423c0-14 11-23 38-31 44-13 78-45 87-82 8-35-25-82-100-143-69-55-75-77-25-93 49-16 286-28 294-15 4 5-1 14-11 19-25 13-141 32-197 32h-48l57 51c61 57 85 94 85 134 0 68-63 132-139 142-36 5-41 3-41-14z"/><path d="m10498 12388c-9-23 3-38 29-38 32 0 122-65 134-97 10-26-12-68-49-95-33-24-62-71-62-99 0-23 7-32 40-49 50-25 158-37 188-21 41 22 25 36-45 39-37 2-82 10-100 17-40 17-37 29 22 85 83 80 84 134 2 203-29 24-62 49-74 56-29 15-80 14-85-1z"/><path d="m12800 12361c0-13 10-20 35-24 44-7 94-42 106-75 12-32-4-57-82-130-87-80-80-94 61-118 71-12 99-13 117-5 38 17 22 35-38 42-30 4-71 10-92 14l-38 8 54 48c30 26 60 62 67 78 34 83-50 181-156 181-27 0-34-4-34-19z"/><path d="m1400 12340c-48-48-53-147-15-296 17-64 30-154 37-253 14-184 3-298-41-445-17-55-28-103-25-108 3-4 13-8 22-8 41 0 87-137 102-305 5-60 10-189 10-285 0-191 28-448 54-498 8-16 31-43 51-61 46-40 92-42 132-5l28 25-44-5c-34-3-51 0-72 14-63 45-75 121-93 565-16 375-31 465-93 557l-33 50 27 97c27 92 28 105 27 311 0 158-5 232-16 280-9 36-24 101-33 145-39 175 18 257 110 157 31-35 65-40 65-10-1 16-51 73-78 87-35 18-100 13-122-9z"/><path d="m3349 12289c-57-9-109-35-109-55 0-22 25-27 52-10 13 8 47 18 75 22 58 7 78-2 94-44 12-32-2-55-82-132-51-50-69-74-74-103-13-67 29-87 183-87 74 0 94 3 99 15 3 9 4 18 1 20-2 3-53 8-114 12-102 8-109 9-112 30-2 17 15 39 67 89 77 74 96 108 87 157-12 66-77 100-167 86z"/><path d="m6842 12258c-7-7-12-21-12-31 0-16 5-18 29-14 23 5 30 2 40-19 23-52 2-127-66-235-32-50-16-59 104-59 111 0 153 10 123 30-8 5-50 10-93 10s-77 3-75 8c2 4 18 37 37 74 38 76 43 145 16 198-24 46-76 65-103 38z"/><path d="m2243 12213c-21-27-43-55-48-63-17-27-181-527-177-539 2-6 9-11 16-11 16 0 124 58 132 71 3 5 17 0 31-11 24-18 40-20 212-20 153 0 191 3 209 16 12 8 22 19 22 23s-56 6-124 3c-68-2-159-1-202 3l-78 7 35 32c20 17 79 58 132 91 92 57 116 86 83 98-17 7-57-14-180-95-161-106-199-129-203-124-7 7 127 411 146 439 9 14 29 41 45 61 28 36 30 66 3 66-8 0-32-21-54-47z"/><path d="m8695 12148c-33-39-125-174-183-268l-22-35v135c0 74-4 141-9 148-5 8-17 12-27 10-18-3-19-16-22-165-3-175 2-193 53-193 27 0 22-6 147 185 50 76 105 151 121 167 26 23 28 29 17 42-20 25-36 19-75-26z"/><path d="m8097 12164c-4-4-7-20-7-36 0-33-36-145-81-252-38-89-38-116-1-116 15 0 44 5 65 11 22 6 41 9 43 7 2-3-5-22-16-44-26-49-23-88 7-92 22-3 49 30 39 47-10 15 47 121 65 121 23 0 49 33 49 62 0 14 7 42 15 61 8 20 12 43 9 51-9 22-41 20-49-3-3-10-23-46-44-79-34-52-44-60-86-71-26-7-49-10-51-8s19 65 47 141c54 147 60 199 24 204-12 2-24 0-28-4z"/><path d="m12275 12151c-3-6-1-29 5-53 5-24 10-80 10-124 0-145 33-256 77-262 12-2 36 7 53 20 31 23 180 237 219 315 15 31 25 41 37 36 21-8 35 16 23 39-6 11-21 18-40 18-23 0-34-7-47-31-73-134-206-329-229-336-16-6-30 74-41 230-6 73-15 134-22 142-14 17-36 20-45 6z"/><path d="m6297 12113c-4-3-7-67-6-142 0-142 17-269 39-296 32-39 84-5 185 121 119 149 145 174 170 168 27-7 40 18 25 47-26 48-93-2-222-166-66-83-115-131-125-122-4 4-8 85-10 180-2 94-6 182-9 195-4 21-32 30-47 15z"/><path d="m9913 12069c-9-9-6-19 9-40 19-25 22-47 27-198 6-159 7-172 29-193 22-22 23-22 55-5 19 10 71 66 118 125 103 131 207 242 225 242 19 0 18 39-1 46-34 13-111-59-250-236-32-41-70-88-84-103l-26-28-11 168c-8 122-15 177-28 201-17 33-43 41-63 21z"/><path d="m11684 12049c-12-20 11-29 107-42 93-13 127-25 162-55 48-42-9-105-158-176-103-50-123-67-100-86 12-10 43-11 123-7 110 6 269 24 311 36 26 7 50 36 39 46-3 3-71-3-152-14-191-27-204-27-143 5 65 34 157 123 157 153 0 68-81 125-202 141-97 12-135 12-144-1z"/><path d="m2942 11973c-23-38-53-84-66-102l-25-33-35 71c-26 50-42 71-55 71-24 0-35-28-18-49 7-9 26-44 41-77 34-74 36-68-76-174-78-72-92-95-63-106 9-4 48 25 108 80l93 85 25-49c24-49 42-65 60-54 16 9 10 34-22 95l-31 58 30 38c49 63 113 174 110 191-7 39-36 22-76-45z"/><path d="m7521 11990c-10-17-26-57-36-90l-18-60h-94c-86 0-93-1-93-20s7-20 90-20h90v-89c0-91 9-113 35-91 10 8 15 31 15 65 0 29 3 66 6 83l6 31 102 3c82 2 101 6 101 18s-19 16-99 18l-98 3 6 32c3 18 16 53 29 78 13 26 21 52 19 58-7 22-43 11-61-19z"/><path d="m9563 12008c-6-7-14-40-17-73-12-103 0-95-152-95-127 0-134-1-134-20s7-20 130-20h130v-64c0-66 15-94 44-83 11 4 13 16 9 41-3 19-2 51 1 70l7 36h99c93 0 100 1 100 20s-7 20-96 20h-96l8 58c12 91 11 116-7 120-9 1-20-3-26-10z"/><path d="m4942 11988c-5-7-12-49-16-93-3-44-12-107-19-140-14-60-9-85 18-85 6 0 36 33 66 74 51 71 80 97 64 59-4-10-10-30-13-45-4-25-1-28 22-28 14 0 40 13 58 29 45 38 104 74 167 102 52 22 54 22 67 4 11-14 13-38 8-96-5-55-3-78 6-84 22-14 39 20 46 92 10 102-15 153-74 153-23 0-146-54-184-81l-26-19-9 38c-13 56-48 56-100-1l-41-45 5 74c4 52 2 78-7 89-15 18-24 19-38 3z"/><path d="m4108 11915c-3-3-52-8-109-10s-107-5-111-5c-5 0-8-9-8-20 0-18 7-20 68-20 96 0 403 20 414 26 5 3 4 12-3 20-9 11-40 14-129 14-64 0-119-2-122-5z"/><path d="m11100 11860c0-19 7-20 220-20 209 0 270 7 270 32 0 4-110 8-245 8-238 0-245-1-245-20z"/><path d="m4099 11796c-2-2-30-7-63-9-62-6-88-19-70-37 16-16 380 5 427 25 20 8 37 17 37 20 0 6-325 7-331 1z"/><path d="m3126 11715c-33-9-65-20-73-26-17-15-17-39 1-39 11 0 13-10 9-40s-1-45 12-60c35-38 132-18 197 40 32 28 41 43 41 69 0 17-7 39-16 48-22 22-100 25-171 8zm134-54c0-23-50-63-99-79-53-18-66 4-34 59 19 32 30 36 91 38 35 1 42-2 42-18z"/><path d="m10362 11697c-6-6-13-26-17-42-4-17-16-59-26-94-21-69-25-156-9-166 19-12 37 14 43 63 3 26 17 87 31 136 20 67 23 92 15 102-14 17-24 18-37 1z"/><path d="m6592 11608c-39-100-42-141-11-136 16 2 26 15 35 43 6 22 21 64 32 93 22 57 20 82-7 82-12 0-27-24-49-82z"/><path d="m4968 10853c-27-60-65-139-83-178-18-38-36-78-39-87-8-25-52-24-59 2-6 22-36 26-68 10-41-23-11-57 61-70 35-6 35-6 32-61-3-51-1-58 23-78 34-26 67-27 120-1 40 19 94 76 108 113 5 13 18 17 54 17 27 0 62 4 80 9 24 7 35 6 44-5 6-8 17-14 24-14 16 0 55-47 55-66 0-7-26-20-57-29-104-30-224-113-248-172-18-42-19-65-4-116 15-56 56-72 135-51 94 23 132 56 182 154 23 47 45 102 49 123 4 29 12 41 32 49 25 9 25 10 7 24-11 8-23 14-27 14s-17 20-28 44c-14 28-33 50-54 59-26 13-29 17-14 23 40 15 64 115 31 128-49 19-104-18-104-68 0-12-6-31-14-42-13-17-27-19-155-19-77 0-143 4-147 8s9 40 28 80c75 151 128 270 128 288 0 13-7 19-21 19-16 0-30-22-71-107zm313-246c-8-8-11-5-11 9 0 27 14 41 18 19 2-9-1-22-7-28zm-302-133c-35-35-54-46-80-47-32-2-34 0-33 31 3 59 7 62 86 62h73zm346-116c-19-65-72-162-105-191-45-42-122-66-146-46-12 10-15 26-12 68 4 47 10 59 39 83 42 35 184 108 211 108 15 0 18-5 13-22z"/><path d="m2114 10854c-15-61 45-251 128-401 73-133 94-126 211 72 36 61 75 126 87 145 30 49 89 112 109 114 27 4 21 50-7 54-18 3-37-11-78-55-30-32-67-78-81-103-72-122-155-260-158-260-9 0-78 137-111 220-24 63-39 119-43 165-5 62-8 70-28 73-17 3-24-3-29-24z"/><path d="m3870 10840c-6-11-8-25-5-30s14-73 25-152c29-207 53-279 99-291 31-8 76 27 127 100 122 174 206 281 229 291 30 14 31 45 2 50-40 8-80-37-285-325-43-62-58-70-73-41-15 27-46 202-54 308-4 47-12 91-17 98-15 18-36 15-48-8z"/><path d="m5932 10788c-17-17-15-38 4-38 13 0 9-11-16-57-18-31-48-77-67-103-34-45-38-48-95-53-75-7-105-26-114-73-10-56 5-88 44-92 27-3 41 5 92 54l59 56 88-35c154-62 198-68 261-40l37 16-70 9c-81 10-112 19-212 61l-72 31 33 45c52 71 96 155 96 182 0 29-17 49-40 49-9 0-21-5-28-12zm-192-333c-41-42-55-44-45-8 8 32 21 43 54 43 25 0 24 0-9-35z"/><path d="m3056 10565c-3-9 0-18 7-21 7-2 98-3 202-2 161 3 190 5 190 18 0 23-390 28-399 5z"/><path d="m2772 10457c-26-24-71-60-99-82-54-40-70-75-34-75 10 0 38 16 62 34 24 19 45 33 47 31 3-2-7-23-20-47-41-71-75-175-61-189 19-19 40-3 53 38 10 31 77 177 133 291 9 19 8 25-3 32-23 15-28 13-78-33z"/><path d="m3435 10433c-100-9-328-50-357-65-21-10-24-36-4-44 8-3 38 2 66 10 29 9 109 25 177 36 120 20 183 40 183 60 0 6-6 9-12 8-7-1-31-3-53-5z"/><path d="m12184 10086c-3-8 13-33 39-58 93-94 132-211 132-403 0-134-25-239-88-370-79-163-196-273-339-316-77-24-91-35-53-45 76-19 199 39 306 145 63 63 85 93 128 181 67 137 102 272 102 400-1 212-48 350-151 444-42 38-67 45-76 22z"/><path d="m8672 9913c-7-3-31-33-54-66-61-92-226-376-240-414-11-30-15-32-62-35-39-2-52-7-54-20-3-15 4-18 38-18s41-3 36-15c-21-55-36-128-31-145 11-34 50-53 111-52 63 0 103 14 152 49 59 44 34 80-28 39-45-30-120-49-155-40-31 8-32 33-4 108 24 62 20 60 156 70 39 3 82 10 95 15 22 9 22 9 3 17-11 5-62 9-113 9-50 0-92 1-92 3 0 7 39 77 116 210 90 153 115 192 153 234 34 38 18 69-27 51z"/><path d="m7884 9814c-16-23-16-27-1-41 13-13 19-14 31-4 17 14 36 7 36-14 0-8-25-44-55-80-53-62-68-102-42-109 52-15 207-38 221-33 42 16-18 49-115 62l-48 7 45 61c47 65 53 91 29 136-24 48-75 56-101 15z"/><path d="m11840 9820c0-15 15-27 54-46 87-41 129-101 100-142-8-11-37-34-65-51-39-25-50-36-47-54 3-21 9-22 97-25 99-3 151 9 151 35 0 12-14 13-82 7l-81-7 46 45c36 34 47 52 47 74-1 61-52 120-144 165-52 25-76 25-76-1z"/><path d="m6105 9794c-63-41-93-74-140-149-53-84-80-151-107-265-26-108-29-253-5-330 22-73 81-172 139-232 42-43 51-48 90-48h43l-34 27c-79 63-160 178-186 267-57 192 55 562 203 669 26 19 55 37 65 40 24 9 18 41-9 45-11 2-38-9-59-24z"/><path d="m2399 9719c-40-79-138-414-159-544-8-52 0-75 27-75 8 0 18 12 24 28 10 28 46 61 112 101 36 22 37 22 37 3 0-28 14-36 115-67 164-50 235-65 263-54 35 14 20 23-73 49-127 34-245 73-245 81 0 4 42 31 94 58 96 52 111 67 95 92-15 25-122-13-256-89-68-39-123-67-123-62 0 39 98 368 132 442 35 79-4 113-43 37z"/><path d="m9815 9730c-3-5-7-43-8-84-2-66-8-84-51-171-26-53-63-114-82-135-32-35-38-37-111-44-97-8-158-36-197-93-24-34-27-47-22-78 5-24 15-39 31-47 34-15 135 34 210 104l60 56 114-60c93-49 121-58 154-56 58 4 57 24-3 41-27 8-88 36-134 63l-84 48 38 50c95 128 162 327 134 400-7 18-39 22-49 6zm-275-521c-45-39-110-79-130-79-19 0-10 29 21 65 32 36 71 53 124 54h30z"/><path d="m3567 9713c-18-17-5-33 26-33 42 0 121-40 125-63 5-24-11-42-83-95-65-48-95-85-95-118 0-27 30-39 130-53 63-8 80-7 113 7l40 17-112 19c-61 10-111 22-111 27 0 4 21 25 48 45 124 99 142 126 116 179-11 24-29 39-64 54-47 20-120 28-133 14z"/><path d="m9205 9716c-5-2-22-7-37-10-19-4-28-13-28-26 0-18 6-20 78-17 74 2 77 1 80-21 4-23-21-51-126-145-76-68-40-101 101-93 71 4 97 10 133 31 24 14 44 30 44 35 0 13 1 13-79-6-38-8-93-14-122-12l-54 3 63 50c91 71 120 142 76 186-19 18-104 35-129 25z"/><path d="m7598 9576c-30-40-83-119-118-175-35-55-69-101-76-101s-18 17-23 38c-5 20-21 84-35 140-31 121-40 142-66 142-25 0-30-19-15-55 6-16 24-84 40-149 22-98 33-125 56-149 22-21 34-27 51-21 41 12 52 26 169 214 19 30 53 79 77 108 44 55 49 82 13 82-13 0-38-25-73-74z"/><path d="m10444 9568c-9-17-19-66-21-109l-6-78-76-3c-60-2-76-6-76-18s16-16 73-18l72-3v-54c0-76 26-135 52-119 4 3 8 43 8 89 0 80 1 85 23 89 12 3 51 10 87 16 95 18 100 19 100 41 0 23-9 23-120 4-47-8-87-15-89-15-9 0 13 138 26 158 18 29 11 52-16 52-13 0-27-12-37-32z"/><path d="m11714 9579c-3-6-24-45-46-87-65-125-131-242-137-242-36 1-80 122-81 225 0 49-11 68-36 63-26-5-29-52-9-151 21-105 46-153 91-175 31-15 38-15 61-2 15 8 38 35 53 60 42 72 160 301 160 311 0 13-47 11-56-2z"/><path d="m6665 9553c-11-2-30-6-42-9-14-3-23-12-23-24 0-18 6-19 105-13 114 7 135 0 135-44 0-51-50-111-152-181-63-43-55-58 35-65 40-4 108-11 152-17 176-23 170-23 185-5 12 14 12 18-1 26-8 5-27 9-42 9-16 0-47 4-70 10-23 5-76 12-118 15l-76 6 62 62c71 70 90 114 74 172-14 48-50 65-136 64-37-1-77-3-88-6z"/><path d="m8815 9528c-62-21-135-119-150-199-5-30-2-41 18-65 23-27 30-29 96-29h71v-35c0-58-9-73-61-109-113-77-206-223-216-339-5-58-4-62 26-93 27-26 37-30 64-25 48 10 84 52 132 151 73 154 102 261 112 420 3 44 11 92 19 107 18 34 18 52 0 67-21 18-43 3-60-39-18-45-40-60-88-60-67 0-75 38-25 120 37 63 89 99 112 80 8-7 19-27 23-44 5-18 16-32 26-34 63-13 16 115-49 131-11 3-33 1-50-5zm-5-561c-48-159-135-304-170-282-23 14-11 106 24 179 36 73 156 211 164 187 2-6-6-44-18-84z"/><path d="m5025 9466c-15-34-57-191-68-253-6-33 12-61 33-48 6 4 31 37 56 75 44 67 114 140 134 140 13 0 13-4-5-47-35-84-9-89 95-17 88 60 164 98 217 109 29 6 33 4 39-19 3-14 1-52-6-83-25-125-25-133 2-133 22 0 26 7 41 69 35 143 16 216-56 214-53-1-135-31-202-74-33-21-61-35-62-31s-4 19-7 34-15 29-25 33c-27 8-92-26-136-72l-37-38 8 30c4 17 13 47 21 69 19 55 17 76-8 76-13 0-25-11-34-34z"/><path d="m10939 9461c-20-16-22-23-13-38 14-23 52-29 60-9s85 31 113 17c33-18 26-56-16-101-38-39-144-105-188-116-13-3-31-15-41-25-17-19-17-21 3-41 23-23 148-42 283-43 62 0 75 3 78 16 2 13-7 18-45 22-26 4-92 12-145 18l-98 12 63 31c36 18 89 57 126 94 60 59 63 65 58 100-10 62-44 82-136 82-63 0-83-4-102-19z"/><path d="m2980 9440c0-29 23-82 60-136l32-46-30-37c-134-167-160-221-108-221 17 0 27 7 32 23 7 24 36 65 98 139 44 54 50 53 85-17 25-50 45-65 64-46 8 8 4 24-16 64-15 28-33 61-42 72-13 19-11 24 38 77 32 35 62 58 77 60 17 2 26 10 28 26 3 19-1 22-34 22s-45-8-97-61c-45-46-62-58-68-47-40 59-53 84-58 112-5 24-12 32-34 34-22 3-27-1-27-18z"/><path d="m4100 9320c0-20 4-20 198-18 167 3 197 5 197 18s-30 15-197 18c-194 2-198 2-198-18z"/><path d="m4170 9222c-5-2-10-12-10-23 0-18 9-19 173-19 133 0 178 3 192 14 19 13 18 15-15 20-40 6-324 13-340 8z"/><path d="m3353 9161c-44-20-58-51-24-51 16 0 17-5 10-42-18-101 69-118 144-29 36 43 44 88 20 112-28 29-100 34-150 10zm107-52c0-11-15-35-32-52-31-31-33-31-36-10-5 32 25 83 48 83 14 0 20-7 20-21z"/><path d="m7429 8503c-54-48-150-195-189-290-69-166-86-353-40-443 59-116 231-206 342-179 27 6 46 14 43 19-2 4-30 10-60 13-68 7-177 56-223 100-55 53-72 96-72 184 0 146 49 295 148 449 56 87 85 118 120 129 16 5 22 13 20 28-5 37-42 33-89-10z"/><path d="m10755 8470c-9-15 20-40 44-40 25 0 113-49 149-83 41-40 78-117 87-183 14-106-53-269-156-379-55-59-226-185-250-185-5 0-9-4-9-9 0-10 91 4 122 20 58 30 170 123 211 176 200 261 176 538-59 657-64 33-128 44-139 26z"/><path d="m2445 8349c-30-26-40-49-74-157-43-138-81-278-88-328-9-59 30-55 72 7 14 22 43 58 63 81 36 39 37 40 42 17 7-29 43-49 90-49 19 0 80-9 134-19 96-19 136-16 136 8 0 14-213 61-277 61-18 0-33 4-33 9 0 19 45 64 98 97 98 62 134 106 98 120-15 6-166-71-226-114-19-14-52-41-72-61-21-19-38-31-38-25 0 5 20 74 44 154 38 124 49 149 77 172 20 17 30 32 26 42-10 24-33 19-72-15z"/><path d="m3525 8356c-5-2-22-7-37-10-19-4-28-13-28-26 0-18 5-19 73-14 81 7 122-4 130-35 6-25 0-32-94-108-38-30-69-61-69-69 0-25 38-34 145-34 82 0 113 4 138 18 32 17 32 17-73 23-58 4-109 7-113 8-5 0 19 24 52 53 34 28 64 62 67 74 8 32-8 75-37 96-22 17-130 33-154 24z"/><path d="m6658 8349c-10-5-18-19-18-31 0-17 4-20 30-15 41 9 89-10 96-38 9-36-3-57-56-98-83-64-65-87 67-87 95 0 143 13 143 37 0 12-12 13-64 8-35-4-73-4-85 0-20 6-19 8 14 39 30 29 35 40 35 80 0 56-27 89-86 105-47 13-54 13-76 0z"/><path d="m8123 8325c-31-38-106-167-117-202-4-13-15-23-26-23-26 0-36-21-17-35 11-8 17-27 17-54 0-79 78-126 168-101 45 12 66 37 52 60-8 13-13 12-39-3-34-20-81-22-103-4-20 15-30 48-20 64s322 23 322 6 33-33 67-33c15 0 50 12 77 26l49 26-5-113c-7-132-11-147-47-156-53-13-166-64-189-86-36-34-52-71-52-125 0-67 17-111 47-123 33-12 93 4 130 35 34 29 117 183 133 248 7 26 18 49 26 52s14 10 14 16-5 8-11 4c-9-5-10 1-5 22 3 16 9 85 13 154 4 100 3 129-8 141-8 8-19 24-25 34-23 41-117 30-173-20-51-46-109-58-243-49l-107 6 10 26c18 48 104 184 121 193 10 5 18 19 18 29 0 34-44 25-77-15zm359-255c-18-11-42-20-55-19-17 0-13 5 18 19 54 25 78 25 37 0zm27-357c-5-16-29-64-52-108-33-61-52-85-80-100-45-24-57-15-64 48-7 56 21 107 71 131 58 27 121 55 128 55 4 1 3-11-3-26z"/><path d="m8772 8328c-17-17-15-45 4-52 27-11 54-7 60 9 8 20 68 20 84 0 15-19-6-56-48-82-142-88-147-143-13-143 68 0 91 6 91 26 0 9-11 14-29 14-16 0-43 3-61 6l-32 7 52 33c91 58 125 129 80 174-17 17-33 20-98 20-47 0-83-5-90-12z"/><path d="m9395 8328c-2-7-6-35-10-62-7-51-72-187-118-248-23-29-37-37-75-43-26-4-61-13-78-21-44-21-94-94-94-137 0-35 21-67 43-67 24 0 84 45 144 108l62 64 38-15c21-8 63-29 93-46 57-32 142-43 156-20 8 14-14 29-43 29-17 0-185 77-212 96-2 2 6 15 17 31 80 115 148 297 122 328-15 18-39 20-45 3zm-250-458c-33-33-63-60-67-60-18 0-6 29 27 68 31 36 47 45 90 51 5 0-17-26-50-59z"/><path d="m3243 8238c-11-13-47-62-78-110-32-49-61-88-66-88-13 0-100 85-102 100-6 39-49 56-61 24-9-24 17-64 81-125l59-57-22-43c-32-65-39-108-19-115 21-8 37 10 54 61 23 67 26 68 97 19 62-42 97-54 108-35 7 10-23 37-87 80-27 18-51 39-53 46-5 13 108 191 134 211 18 13 12 48-9 52-8 1-24-8-36-20z"/><path d="m10660 8223c-14-9-51-42-83-72-32-31-65-60-73-64-21-12-36-46-29-67 9-27 43-25 54 3 5 13 17 29 27 37 16 14 17 13 9-5-46-111-55-164-29-189 19-20 28-20 44-1 9 11 10 19 3 26-17 17 9 98 62 197 26 48 54 95 62 104 13 14 13 20 3 33-16 19-20 19-50-2z"/><path d="m9951 8207c-6-8-22-39-36-70l-25-57h-75c-68 0-75-2-75-20s7-20 65-20c36 0 65-3 65-6 0-4-14-47-31-96-31-92-34-133-9-133 18 0 30 25 70 142l32 92 92 3c73 2 91 6 91 18s-18 16-83 20l-83 5 28 56c16 31 27 62 25 68-5 15-37 14-51-2z"/><path d="m6236 8171c-4-6 1-41 9-78 9-37 19-106 21-153 3-47 10-100 16-118 8-28 14-33 36-30s31 14 57 79c33 79 91 166 158 236 44 46 46 80 5 68-38-11-136-132-195-240l-22-40-1 55c-1 30-9 93-18 140-15 72-21 85-39 88-12 2-24-1-27-7z"/><path d="m4985 8114c-51-13-75-27-75-46 0-26 21-31 56-13 18 9 56 15 102 15 75 0 112-11 112-33 0-19-67-85-145-142-83-62-99-79-91-100 4-12 23-15 88-15 146 1 289 17 306 33 14 14 12 17-13 23-27 7-142 1-255-12l-55-6 55 38c73 50 170 149 170 174 0 11-13 34-29 52-27 31-31 32-117 34-49 2-98 1-109-2z"/><path d="m5577 8104c-4-4-7-42-7-84 0-41-7-103-16-135-25-89-24-110 5-110 19 0 26 8 36 42 16 55 45 99 93 147 63 61 81 27 40-79-19-51-20-57-5-72 23-23 42-11 56 37 7 22 29 60 49 82 40 45 141 98 184 98 23 0 28-5 34-36 4-21-1-71-12-125-20-97-14-120 24-100 22 11 28 40 38 176 6 73 4 82-17 109s-25 28-76 22c-54-6-140-43-177-75-15-12-20-13-24-3-2 7-14 25-26 39-21 24-25 25-58 14-19-6-46-23-59-37l-24-26-5 59c-4 49-8 58-25 61-12 2-24 0-28-4z"/><path d="m4305 8064c-137-18-145-21-145-45 0-19 4-20 68-14 37 3 91 11 121 16s85 9 122 9c72 0 89 9 63 34-19 19-85 19-229 0z"/><path d="m4510 7943c-170-10-290-42-290-79 0-25 27-27 73-5 27 13 73 23 123 27 116 9 220 36 208 55-3 5-17 8-32 7s-52-3-82-5z"/><path d="m3342 7888c-20-10-23-18-20-56 2-35 9-49 29-64 36-27 124-34 172-15 71 30 76 110 7 134-44 15-157 15-188 1zm177-52c9-11 8-18-5-31-14-13-30-16-71-13-58 5-79 18-70 42 8 21 129 23 146 2z"/><path d="m7465 7162c-88-54-190-214-245-381-63-194-75-359-34-476 40-114 236-232 350-210 47 8 35 21-41 40-115 30-223 104-252 172-53 129-22 367 78 581 61 132 167 252 223 252 11 0 16 6 14 18-5 24-56 27-93 4z"/><path d="m11683 7090c-13-5-23-18-23-29 0-22 30-33 54-19 23 13 106-18 106-38 0-9-34-47-75-86s-75-77-75-84c0-38 101-45 170-12l45 22-69 6-69 5 55 47c90 76 95 133 16 168-56 24-107 32-135 20z"/><path d="m12610 7082c0-12 15-25 40-36 21-9 59-39 83-66 38-43 48-63 68-142 21-80 24-116 23-248-2-230-35-350-143-508-51-75-88-106-181-151-60-29-70-37-51-39 88-13 197 48 268 149 59 84 121 211 138 287 24 100 37 312 25 389-27 171-55 244-115 306-63 64-155 100-155 59z"/><path d="m9011 7029c-49-9-67-27-48-46 9-10 22-10 47-3 75 21 170 7 170-26 0-10-25-43-55-75-83-86-105-154-63-183 43-31 132-13 173 34l20 23-35-7c-19-3-56-9-82-12l-48-7 11 32c6 18 40 63 75 101 35 39 64 77 64 85 0 73-99 110-229 84z"/><path d="m12214 7026c-3-8 0-24 6-36 36-68 31-212-11-310l-19-45h-98c-118-1-165-15-182-55-24-59 16-110 87-110 49 0 141 38 184 77l39 35 69-21c79-24 145-28 139-8-3 6-45 26-95 43-90 31-90 31-77 55 45 86 55 249 21 344-15 42-52 61-63 31zm-73-450c-19-23-110-57-144-54-26 2-32 7-32 28 0 30 24 38 119 39 57 1 67-1 57-13z"/><path d="m9656 7008c-32-110-55-164-101-232-79-119-76-116-129-116-70 0-105-50-80-114 13-34 97-5 134 46 3 4 35-4 72-17 59-21 108-24 108-6 0 8-81 51-96 51-5 0-15 4-23 9-11 7 0 30 52 107 69 106 107 194 107 249 0 29-4 35-20 35-11 0-22-6-24-12zm-241-408c-3-5-11-10-16-10-6 0-7 5-4 10 3 6 11 10 16 10 6 0 7-4 4-10z"/><path d="m8442 6987c-9-10-8-18 2-32 18-25 48-13 44 17-4 27-30 35-46 15z"/><path d="m10888 6920c-36-28-60-84-68-160-5-47-3-72 6-92 28-55 146-62 218-13 28 19 36 21 40 9 3-8 25-24 48-34 82-37 170-20 235 45 34 34 43 50 43 77 0 58-67 98-163 98-82 0-112-15-164-82-25-33-60-68-77-79-35-21-106-25-124-7-15 15-14 80 2 133 11 37 15 40 46 40s35 3 38 28c6 54-35 73-80 37zm442-135c17-9 30-22 30-29 0-28-51-75-99-91-45-15-52-15-90 1-36 14-41 20-41 48 0 36 25 71 60 85 31 13 101 6 140-14z"/><path d="m11458 6925c-27-15-58-61-58-86 0-30 55-89 116-124 43-25 64-44 62-54-4-23-95-63-147-65-42-1-46-3-46-26 0-35 31-37 118-9 73 24 137 69 137 98 0 28-27 58-82 89-73 41-102 74-94 106 8 33 44 42 105 28 50-11 61-9 61 14 0 32-128 54-172 29z"/><path d="m8045 6902c-41-25-93-87-101-119-5-20-2-31 16-45 18-15 41-18 119-19h96l-28-22c-15-12-58-38-95-58s-67-42-67-50c0-21 53-23 83-2 15 9 43 26 62 37 41 22 92 63 103 83 6 9 3 21-8 33-12 14-38 19-120 25-58 4-105 9-105 12s9 17 20 33c24 33 67 63 94 64 14 1 22 9 24 24 3 19-1 22-30 22-18 0-47-8-63-18z"/><path d="m10306 6849c-9-28-19-73-22-100l-7-49h-108c-102 0-109-1-109-20s7-20 110-20h110l-2-74c-1-76 4-96 26-96 18 0 26 32 26 107 0 70-8 64 109 77 48 5 67 18 56 36-6 9-29 11-85 6l-77-6 8 51c4 28 13 66 19 85 13 38 7 54-20 54-14 0-23-13-34-51z"/><path d="m2416 6832c-5-9-111-466-132-572-9-45-9-69-2-77 19-23 38-14 54 27 25 63 118 179 200 253 43 37 82 67 88 67s-16-24-49-52c-157-136-206-215-144-231 11-3 65-1 121 4 112 9 161 2 206-30 30-21 82-29 82-12 0 18-75 71-114 82-22 6-88 9-148 7-59-1-108 0-108 3 0 9 143 149 152 149 15 0 148 161 148 180 0 13-9 22-25 26-35 9-225-126-317-226-39-41-68-66-65-55 9 29 52 215 78 332 12 55 19 108 16 117-7 17-32 22-41 8z"/><path d="m3434 6831c-41-10-54-19-54-37 0-12 14-13 83-8 143 10 153-36 24-123-78-53-100-85-74-110 24-24 155-63 215-63 81 0 61 20-53 53-55 15-101 30-103 32-8 8 11 26 65 62 30 20 64 50 74 67 57 92-38 160-177 127z"/><path d="m8724 6805c-26-64-45-154-42-202 3-44 5-48 30-51 15-2 40 4 57 13 29 15 31 15 31-4 0-28 28-48 48-34 10 6 16 17 14 24s6 34 18 61c46 107 6 140-68 58-26-29-55-56-65-62-17-9-18-6-11 39 4 26 15 72 25 102 25 71 24 91-2 91-14 0-25-11-35-35z"/><path d="m8464 6768c-9-18-41-70-71-115-31-44-52-86-49-92 17-28 45-7 98 72 67 100 78 120 78 146 0 34-37 26-56-11z"/><path d="m6527 6753c-4-3-7-12-7-20 0-9 17-13 60-13 66 0 127-20 136-45 9-22-45-77-129-132-105-69-112-112-21-133 61-15 265-12 293 4 13 7 19 16 14 19s-72 9-148 13c-77 3-146 10-154 14-11 6-2 14 30 30 66 34 169 137 169 169 0 34-23 67-60 86-29 15-170 22-183 8z"/><path d="m6347 6605c-15-25-27-49-27-53s-23-55-52-115c-32-67-55-104-61-98-5 5-12 62-15 125-5 122-16 152-47 126-29-24-12-231 24-298 10-18 19-22 44-20 29 3 36 11 79 93 26 50 55 110 65 135 9 25 27 62 40 82 29 48 29 68 0 68-16 0-30-13-50-45z"/><path d="m3133 6583c-27-32-58-70-70-85l-20-27-11 24c-6 13-14 40-18 60-7 40-26 54-48 36-15-13-11-43 19-126l18-51-71-96c-76-102-88-132-50-126 14 2 42 29 75 73 53 72 73 88 73 61 0-20 56-83 81-91 29-9 59 4 59 26 0 13-7 19-23 19-31 0-56 28-72 82-14 50-13 52 88 176 56 70 67 102 33 102-8 0-36-26-63-57z"/><path d="m5292 6548c-17-17-15-45 3-52 12-4 15-27 15-119 0-90 3-117 15-127 18-15 45 2 45 29 0 24 52 103 85 129 41 32 71 29 84-9 6-18 11-49 11-70 0-91 28-91 110 2 69 77 115 108 133 90 6-6 13-43 15-81 5-75 16-94 54-88 28 4 36 41 14 64-9 8-16 31-16 50 0 52-25 102-53 110-38 9-109-27-161-82-46-48-46-48-46-18 0 37-32 90-60 99-37 12-90-5-129-41-38-34-39-34-45-12-3 13-6 39-6 58 0 59-38 98-68 68z"/><path d="m4745 6535c-5-2-22-6-37-9-20-5-28-13-28-27 0-19 4-20 63-14 76 8 112-4 121-40 9-37-9-55-121-122-101-60-128-85-120-108 9-22 264-22 308 1 17 8 28 19 24 22-4 4-61 6-128 4-136-4-135-7-22 61 33 19 73 49 89 66 25 26 28 35 23 71-3 23-13 50-22 60-23 26-114 47-150 35z"/><path d="m4045 6495c-5-2-22-6-37-9-20-5-28-13-28-28 0-19 4-20 47-14 25 3 118 9 205 13 150 6 188 14 157 34-13 8-321 12-344 4z"/><path d="m8113 6431c-50-9-58-14-49-37 5-12 14-15 39-10 17 3 163 9 322 12 226 5 364 3 625-12 281-16 476-19 1205-19 590 0 936 4 1075 13 113 7 370 14 572 15 284 2 368 5 368 14 0 7-12 16-27 20-51 14-761 8-1193-11-358-16-523-17-1049-12-344 4-672 12-730 17-131 12-1100 21-1158 10z"/><path d="m4160 6374c-130-20-177-41-152-66 9-9 23-9 60 1 26 7 116 17 200 22 147 8 199 19 187 40-6 8-240 11-295 3z"/><path d="m3287 6329c-68-16-77-25-77-75 0-56 21-90 66-104 79-26 164 23 180 105 8 43-5 61-55 75-42 11-62 11-114-1zm106-45c38-14-19-94-66-94-59 0-94 70-44 90 25 10 88 13 110 4z"/><path d="m11157 6193c-4-3-7-26-7-49 0-58-18-141-41-186-18-35-20-36-54-27-44 12-126-3-172-31-42-25-67-74-59-113 9-45 24-57 70-57 57 1 115 30 167 84l44 45 75-44c62-38 82-45 125-45h50l-75 41c-41 22-88 50-105 62-16 11-31 21-33 22-1 1 9 26 22 56 27 61 51 188 42 224-6 24-34 34-49 18zm-107-311c0-11-71-77-95-89-11-6-32-13-47-17-25-6-28-4-28 18 0 41 11 58 54 77 41 19 116 26 116 11z"/><path d="m10593 6163c-7-2-13-13-13-23 0-17 9-20 73-22l72-3-67-38c-69-39-86-60-67-83 23-28 201-12 184 16-3 5-30 10-58 10h-52l47 30c58 36 76 66 55 87-24 24-138 41-174 26z"/><path d="m9643 6111c-52-37-106-130-97-165 11-44 40-61 108-61 33 0 75 6 93 13 28 13 33 12 53-8 104-104 335-25 295 101-22 68-225 63-225-6 0-29 30-35 50-10 16 19 103 20 118 2s-6-58-38-74c-14-7-47-13-73-13-43 0-53 4-85 36l-37 37-70-17c-131-30-156-17-115 61 33 63 70 86 120 78 35-6 40-4 40 13 0 21-37 42-74 42-13 0-41-13-63-29z"/><path d="m10285 6085c-55-20-79-58-57-91 11-18 62-40 125-54 82-19 89-33 26-53-28-10-65-17-83-17-69 0-106-12-106-33 0-19 5-19 88-15 121 8 212 46 212 89 0 26-46 54-121 74-88 23-100 31-75 50 26 19 72 19 80 0 3-8 14-15 25-15 40 0 36 55-6 71-33 12-61 11-108-6z"/><path d="m9195 4726c-45-44-104-103-132-129-33-30-50-53-47-62 11-27 35-16 102 45 36 33 66 59 68 57 2-1-13-45-32-96-38-101-41-146-10-146 15 0 24 15 41 70 27 87 89 239 115 283 55 93-4 81-105-22z"/><path d="m3484 4625c-11-26 5-32 78-28 80 5 139-12 157-45 11-20-22-82-84-160-70-87-39-122 115-130 73-3 104-1 116 8 14 12 14 14 0 22-9 5-59 13-111 17-53 4-98 10-100 13-3 2 16 31 41 64 50 64 84 124 84 148 0 34-25 66-66 86-55 25-221 30-230 5z"/><path d="m7195 4613c-49-10-95-37-95-55 0-28 21-31 65-8 49 25 101 26 114 3 13-24-16-77-69-128-47-44-70-89-70-135 0-41 33-53 136-48 78 4 134 24 134 47 0 5-50 6-112 3-103-5-111-4-105 12 4 10 7 22 7 28 0 5 24 35 54 66 54 57 86 108 86 136 0 64-61 97-145 79z"/><path d="m2459 4569c-6-13-17-45-24-73-30-125-88-301-133-406-27-63-47-121-45-127 10-25 42-13 65 25 12 20 38 54 56 74l34 37 32-33c61-65 387-145 403-99 3 7-8 15-24 18-15 3-80 19-143 36-125 33-200 62-200 77 0 14 47 59 114 112 32 25 71 56 87 68 45 37 36 81-15 68-34-8-171-100-227-153-53-49-55-49-38-6 19 51 89 297 89 315 0 9 7 24 16 32 21 21 14 50-13 54-14 2-26-4-34-19z"/><path d="m6617 4413c-23-22 8-235 44-305 48-95 121-75 176 47 84 190 94 219 78 234-22 23-38 2-84-110-74-182-95-208-120-153-21 46-41 147-41 206 0 31-3 63-6 72-6 16-35 22-47 9z"/><path d="m3172 4364c-16-20-47-69-68-111-21-41-42-77-46-79-9-6-63 65-81 109-17 39-36 47-57 22-10-12-7-24 15-62 16-27 43-65 62-86l34-38-35-62c-46-84-60-137-41-156 11-12 17-12 29-1 9 7 16 20 16 29 0 20 55 136 68 145 5 3 16-1 23-10 19-23 95-65 133-74 42-9 73 5 55 26-6 8-19 14-28 14-21 0-111 52-135 78-18 20-17 23 30 113 27 50 62 104 78 120 24 24 27 31 16 44-19 23-36 18-68-21z"/><path d="m5325 4355c-5-1-37-8-70-16-73-15-95-25-95-44 0-24 14-25 91-5 94 25 131 25 153 1 16-18 15-20-31-61-26-23-61-49-78-57-16-9-61-36-98-60-53-36-67-50-65-67 3-21 7-21 208-24 153-2 216 1 245 11 79 28 49 34-145 29-121-3-195-1-201 5-7 7 15 26 68 56 101 59 163 116 163 150 0 53-85 101-145 82z"/><path d="m6263 4341c-28-9-70-30-92-44-49-32-47-32-54-7-12 45-87 33-158-26-23-19-50-39-61-45-16-9-18-7-12 15 8 35-4 66-26 66-26 0-33-15-36-74-1-28-10-71-18-95-14-38-14-47-3-58 16-16 44-8 52 15 8 26 43 62 115 120 89 72 110 70 70-8-47-92-12-101 72-18 58 58 191 138 206 124 11-11 13-104 4-161-11-68-7-85 19-85 20 0 44 35 34 50-3 5-1 26 4 47 16 56 2 153-25 180s-25 27-91 4z"/><path d="m10220 4259c-195-4-578-13-850-19-427-10-565-11-750-6-25 1-35-4-38-16-6-28 38-33 278-31 368 2 1711 33 1760 39 86 12 96 45 13 42-32-1-218-5-413-9z"/><path d="m4567 4254c-3-4-55-10-114-13-96-5-108-8-111-25-4-19 2-19 159-13 177 8 224 15 224 38 0 11-18 15-75 17-42 1-79 0-83-4z"/><path d="m7983 4226c-34-16-30-46 6-46 32 0 56 22 47 45-6 17-21 17-53 1z"/><path d="m4468 4159c-6-4-8-14-5-23 5-14 27-16 145-16 103 0 143 4 158 14 10 8 17 17 14 19-8 8-301 13-312 6z"/><path d="m3335 4050c-9-14 13-40 32-40 9 0 13-6 10-14-29-76-12-128 47-145 75-20 159 27 172 97 10 53-11 84-66 99-57 14-187 16-195 3zm190-50c23-9 26-14 20-38-9-36-34-60-71-68-42-8-66 15-54 54 4 16 4 36-2 45-8 15-3 17 36 17 25 0 57-5 71-10z"/><path d="m9820 3980c0-12 7-20 18-20 27 0 86-18 106-33 26-19 11-43-58-96-60-47-75-73-55-98 19-22 229-14 277 11 66 34 34 44-86 26-37-6-80-7-95-2l-28 7 54 47c62 53 75 86 51 123-18 27-94 55-151 55-26 0-33-4-33-20z"/><path d="m10456 3971c-4-5-1-31 5-58 14-59-3-127-51-211l-31-52-64 6c-77 8-122-7-131-42-9-34 14-83 41-90 31-8 95 11 139 41l38 26 75-26c95-32 142-39 189-31 50 10 35 20-66 45-47 12-104 28-127 37l-41 16 39 73c45 83 60 175 40 238-12 36-41 50-55 28zm-116-365c0-2-21-12-46-22-38-14-47-15-54-4-5 8-6 18-4 22 5 8 104 12 104 4z"/><path d="m8803 3848c-33-7-54-22-97-70-70-77-94-140-72-191 8-20 23-40 33-45 39-21 138-25 211-8l71 16 26-26c24-24 32-26 86-21 109 10 221 100 253 203 15 50-70 83-169 64-83-16-122-41-145-93-11-24-28-51-39-61-41-37-195-59-255-36-48 18-28 93 45 172 32 34 54 49 82 54 29 5 37 3 37-9 0-8 7-20 15-27 35-29 62 41 29 74-17 18-47 19-111 4zm445-127c20-12-6-57-58-105-50-45-96-66-145-66-28 0-35 4-35 19 0 10 10 25 22 33 16 11 22 24 20 45-1 17 4 36 13 43 39 32 151 51 183 31z"/><path d="m9545 3830c-29-11-44-32-51-68-6-28-1-37 33-69 22-21 59-50 81-65 59-39 58-71 0-86-24-6-76-13-117-17-63-5-72-3-62 9 17 20 0 27-39 16-41-12-52-28-38-53 9-18 19-19 136-15 177 7 226 31 215 105-6 36-41 77-88 100-46 24-65 44-65 70 0 41 90 54 121 17 16-20 49-18 49 4 0 23-10 37-37 51-25 13-108 14-138 1z"/><path d="m5355 2925c-143-8-431-19-640-25s-488-15-620-21c-187-9-1507-29-1841-29h-62l-6-208c-3-114-11-295-17-402-16-299-24-1298-10-1334l12-29 97 7c53 3 248 9 432 12 263 5 390 2 590-11 152-10 488-21 830-26 687-10 1159-23 1525-41 464-23 2519-13 2865 13 228 18 376 38 437 59 125 45 131 49 148 98 20 59 19 153-2 222-25 85-16 310 33 830 14 140 33 347 44 460 21 216 26 406 11 429-7 11-74 12-387 6-464-9-625-9-2049-2-874 4-1189 2-1390-8zm2690-38c231-1 570 2 754 7l334 9-6-194c-4-107-11-234-17-284-39-362-48-460-70-755-23-326-25-447-7-452 8-3 13-34 15-96 5-124-5-144-83-173-106-39-118-41-410-70-288-28-2346-43-2767-21-380 21-760 32-1458 42-377 5-757 15-845 22-185 14-1091 18-1203 4l-74-8 5 618c5 594 17 1039 32 1191l7 71 47 6c25 3 456 10 958 15 501 5 916 12 922 15 5 4 186 11 403 16 216 6 488 15 603 21 399 20 853 26 1645 22 437-3 984-5 1215-6z"/><path d="m5840 2727c-24-8-35-18-35-32 0-16 5-19 25-16 76 12 149 3 193-22 25-15 47-34 51-42 9-26-17-65-92-137-39-37-73-77-77-89-15-48 66-90 200-104 68-8 133 9 103 26-9 5-50 14-90 19-75 9-136 26-153 41-6 6 20 39 67 87 82 83 98 107 98 145 0 81-186 160-290 124z"/><path d="m4857 2523c-10-17-30-99-28-115 1-9-16-74-38-144-45-140-48-156-26-174 20-16 45 3 45 35 0 13 20 42 51 74 53 53 82 68 55 29-22-31-20-65 3-78 30-15 193-12 271 6 69 15 122 45 107 60-7 7-28 4-172-26-46-10-165-4-165 8 0 5 59 73 122 139 39 40 43 63 12 63-22 0-111-47-183-97-56-39-63-42-57-21 30 101 57 221 52 233-6 16-41 21-49 8z"/><path d="m5337 2448c-5-16 11-54 62-146l40-73-35-59c-42-72-47-104-18-108 17-2 27 10 54 62l33 64 50-39c48-39 86-48 94-23 2 7-15 25-38 42-74 55-74 55-3 165 69 106 77 130 42 125-16-2-41-30-82-91-32-49-62-85-66-80-5 4-27 45-51 91-28 55-48 82-60 82-10 0-19-6-22-12z"/><path d="m7784 2310c-24-10-36-33-28-55 8-19 23-19 45 1s64 12 79-15c16-31-4-66-57-102-59-40-64-47-61-84 4-41 37-55 134-55 86 0 144 14 144 34 0 9-30 13-111 13-60 1-113 4-117 8s6 17 22 29c75 54 97 81 103 123 5 39 2 46-30 78-36 36-76 44-123 25z"/><path d="m8493 2248c-5-7-15-31-21-54-13-46-74-143-121-193-27-29-35-33-64-27-145 32-226 25-265-20-20-23-23-35-19-73 7-66 35-85 110-77 79 9 133 30 182 70l41 34 70-29c92-40 172-62 191-55 14 6 14 9-2 26-10 11-22 20-27 20s-51 17-102 37l-93 37 48 59c91 113 142 245 98 255-9 1-20-3-26-10zm-275-309 65-12-24-19c-36-29-80-46-137-54-49-6-52-5-62 20-24 65 29 87 158 65z"/><path d="m5662 2164c2-11 13-20 24-22 17-2 21-10 20-39-1-46 37-78 95-78 34 0 46 6 70 33 66 73 26 114-118 120-89 4-95 3-91-14zm175-42c16-10-11-52-33-52-30 0-52 19-47 40 4 15 14 20 37 20 17 0 37-4 43-8z"/><path d="m7434 2097c-68-30-86-45-82-75 5-39 44-60 153-83 55-11 104-24 109-29 6-6-12-19-45-35-62-28-129-34-129-10 0 19-14 19-34-1s-20-29 1-50c34-33 184-1 246 54 22 20 22 54-1 75-10 9-64 26-120 38s-110 27-119 34c-15 11-11 15 32 34 37 16 59 20 92 15 39-6 43-4 43 14 0 16-10 24-37 31-49 14-49 14-109-12z"/><path d="m6742 2085c-82-36-142-113-142-182 0-93 146-134 263-75 53 27 57 28 63 10 11-36 51-52 137-52 104-1 173 27 217 87 48 66 33 145-32 166-76 23-123 24-177 1-61-27-85-54-70-82 13-25 63-25 55 0-5 14 3 22 29 35 60 28 137 19 162-20 15-23 15-27-3-61-28-53-105-86-189-80-36 2-67 7-71 11s-10 23-13 43-14 42-23 48c-15 9-23 6-43-17-54-58-151-83-218-58-48 18-42 78 11 134 50 53 125 76 138 42 8-19 28-19 44 0 11 13 9 20-10 40-27 29-76 33-128 10z"/><path d="m2577 2084c-4-4-7-53-7-108-1-56-5-121-11-146-23-103-24-100 4-100 19 0 29 8 41 38 36 82 171 222 198 205 9-5 7-83-4-158-2-14 3-21 18-23 17-2 33 11 67 55 77 100 155 163 202 163 28 0 58-80 64-170 6-82 7-85 31-85 25 0 25 0 22 85-5 138-49 216-121 214-54-2-107-30-168-91l-53-53v38c0 46-23 82-54 82-27 0-101-46-141-89l-30-32-5 88c-4 79-7 88-25 91-12 2-24 0-28-4z"/><path d="m3434 1988c-21-34 89-51 291-46 99 2 120 6 120 18s-20 16-95 21c-259 18-309 19-316 7z"/><path d="m4625 1929c-4-6-3-15 2-20s293-8 709-7c613 3 699 5 699 18s-86 15-702 18c-500 1-704-1-708-9z"/><path d="m3515 1833c-27-2-60-6-72-8-24-6-31-29-13-40 12-7 423 13 446 22 11 4 12 9 3 19-9 11-44 14-163 12-83-1-173-3-201-5z"/><path d="m5868 1808c-18-6-28-17-28-29 0-17 6-19 53-17 47 3 52 1 55-20 3-16-11-37-53-77-34-32-55-60-52-68 4-10 31-16 84-21 43-3 109-9 146-12 45-4 72-3 80 5 21 21-10 34-118 45-107 11-107 11-85 31 51 46 65 120 30 155-22 22-67 25-112 8z"/><path d="m5658 1728c-16-17-38-49-49-70-36-71-120-188-134-188-8 0-22 11-31 26-21 31-54 148-54 190 0 40-23 62-46 43-19-16-15-66 17-173 33-112 93-158 158-120 17 10 33 24 36 32 5 13 45 77 132 208 37 57 40 69 17 78-10 4-27-5-46-26z"/><path d="m4832 1649c-24-7-32-15-30-27 4-19 6-19 161-7 93 7 97 7 97-13 0-22-19-36-145-108-64-36-90-57-90-70 0-18 9-19 110-19 124 1 207 20 252 60 15 13 23 25 18 25-6 0-64-11-129-25s-125-25-135-25c-9 0 18 20 61 45 110 64 137 104 102 153-14 21-22 22-127 21-62 0-127-5-145-10z"/></g><g fill="#44b" transform="matrix(.054411653 0 0 -.054411653 1417.48425153537 3494.80599491264)"><path d="m750 2973c-57-10-88-25-119-57-40-41-55-100-46-179 6-45 12-61 32-77 32-25 35-25 64-1 22 17 24 26 21 89-4 105 24 120 164 87 33-7 119-19 190-25 88-8 134-16 144-26 32-32 8-420-28-456-18-18-126-28-289-28-185 0-206-4-250-52-55-58-58-82-55-363 1-145 7-274 13-293 11-34 51-62 89-62 12 0 35 14 52 31l31 30-6 238c-3 130-3 249 0 264l5 27h112c234 1 363 26 423 82 58 54 98 260 91 463-4 122-7 138-34 191-40 81-79 100-217 108-174 10-361 14-387 9z"/><path d="m3660 2971c-42-9-83-34-103-65-39-59-50-127-54-343-5-206-5-212 18-252 28-50 78-86 143-102 48-12 257-8 370 7l49 7-7-104c-4-57-11-189-16-294-9-177-9-192 8-214 35-47 100-46 136 2 22 29 27 86 42 452 7 191 0 235-44 283-45 48-92 56-241 38-146-18-229-20-265-6l-26 10v162c0 156 8 230 27 249 5 5 99 6 210 2l201-6 5-50c3-39 11-56 31-74 34-29 48-29 80 0 24 20 26 30 28 113 4 147-23 169-218 179-242 11-340 13-374 6z"/><path d="m1565 2945c-14-13-25-32-25-42s-1-297-3-638c-2-677-3-662 55-694 33-19 73-7 101 31 18 24 20 51 29 300 5 150 10 278 12 283 2 6 37 8 97 3 52-3 135-7 186-7 154-2 161-10 143-176-21-189-27-310-18-343 12-45 45-72 86-72 71 0 102 46 102 151 0 33 7 118 16 187 24 190 9 280-58 349-50 52-112 67-263 65-71-1-164-6-205-11-41-4-78-7-81-5-4 2-10 108-13 236-9 286-17 352-47 384-31 33-82 32-114-1z"/><path d="m2542 2944c-55-38-64-109-53-419 6-186 9-215 28-250 50-95 116-125 302-135 75-4 171-5 215-1l78 7-4-178c-2-97-7-181-11-184-4-4-42 1-85 11-104 26-285 27-363 3-106-33-149-107-99-170 26-34 68-41 132-21 74 23 202 20 308-7 182-47 274 5 301 168 12 77 27 831 19 994-7 152-20 181-86 186-88 7-103-51-104-401v-219l-201 4c-197 3-201 3-220 27-18 21-19 42-19 283v260l-29 29c-33 33-74 38-109 13z"/><path d="m2374 1391c-55-34-79-78-79-147 0-51 4-66 27-96 35-45 102-73 153-64 78 15 146 111 131 188-20 108-145 172-232 119z"/><path d="m1853 999c-39-11-66-56-61-101 6-59 69-64 76-6 4 30 34 38 145 38h67v-110c0-135-1-136-132-126-85 6-89 6-113-18-24-25-25-28-25-179 0-162 4-177 47-177 35 0 43 29 43 159v121h73c85 0 141 14 168 41 17 17 19 34 19 169 0 147-1 152-25 175-23 24-30 25-137 24-62 0-128-5-145-10z"/><path d="m2985 1000c-91-16-93-18-104-58-15-51-14-537 0-564 19-36 69-48 204-48 121 0 127 1 151 25l24 24-2 292-3 292-26 19c-31 23-161 33-244 18zm169-86c14-5 16-37 16-250v-245l-102 3-103 3v240 240l40 6c57 9 131 10 149 3z"/><path d="m2351 971c-24-24-29-73-37-372-6-232-6-237 15-258 23-23 29-25 51-11 12 7 16 40 20 150l5 141 35-23c19-13 59-55 88-93 30-39 78-96 108-128 47-51 56-57 74-47 29 16 25 42-15 92-19 24-62 78-95 121-61 77-61 77-33 77 15 0 46 9 69 19 56 26 67 57 62 179-6 156-27 172-220 172-93 0-111-3-127-19zm257-74c16-13 17-168 0-185-7-7-41-12-84-12-40 0-84-4-98-10l-26-10v120 119l98-6c53-3 103-10 110-16z"/></g></svg>