<svg height="1521.15478pt" preserveAspectRatio="xMidYMid meet" viewBox="0 0 2007.35822 1521.15478" width="2007.35822pt" xmlns="http://www.w3.org/2000/svg"><g transform="matrix(.1 0 0 -.1 -52.5 1585.901168)"><path d="m2245 15848c-34-19-171-136-204-174-17-19-29-39-26-45 13-20 40-6 102 52 36 33 67 58 70 56 2-3-5-24-17-48-32-61-59-149-60-187 0-26 4-33 17-30 12 2 28 32 49 88 39 106 80 196 105 231 23 33 24 55 3 63-19 7-15 8-39-6z"/><path d="m832 15828c-6-13-23-51-37-85l-27-62-79-7c-81-7-118-22-105-43 5-8 29-10 82-5l75 7-12-27c-10-21-19-26-51-26-31 0-38-3-38-20 0-15 7-20 29-20 23 0 30-5 33-22 5-34 51-36 83-4 33 33 72 35 77 4 4-33 35-35 50-4 7 17 24 30 47 36 61 17 69 28 28 35-20 4-37 11-37 15 0 23 14 40 34 40 11 0 28 5 36 10 13 9 13 11 0 20-8 5-20 10-27 10-9 0-6 14 8 47 23 54 22 86-3 91-12 2-22-6-29-25-44-111-45-113-95-113-25 0-44 4-42 8s12 31 22 60c11 29 25 52 32 52 6 0 14 6 16 13 15 40-50 54-70 15zm68-195c0-5-3-18-6-30-5-20-12-22-60-21-59 2-64 8-34 38 20 20 100 30 100 13z"/><path d="m1400 15831c-45-9-60-18-60-37 0-12 10-14 60-8 70 8 74-5 14-45-49-34-42-55 23-61 50-5 109-36 107-56-3-19-119-68-164-69-51 0-67-25-30-45 28-15 69-6 157 36 75 36 99 61 88 94-8 25-62 66-98 75-28 7-28 7-8 29 53 56 2 105-89 87z"/><path d="m1772 15830c-29-12-37-35-24-66 16-34 52-33 52 2 0 22 4 25 27 22 20-2 30-11 38-32 9-26 7-31-18-50-16-12-67-42-114-67-48-25-88-49-90-55-1-5 2-16 7-24 20-33 260-23 260 11 0 4-39 10-87 11l-88 3 58 30c32 16 74 43 93 58 28 24 34 35 34 68 0 76-73 119-148 89z"/><path d="m1264 15778c-66-76-135-235-115-267 16-25 32-6 66 77 18 45 50 105 70 133 35 49 40 79 12 79-7 0-22-10-33-22z"/><path d="m3502 15499c-32-12-25-45 8-42 82 8 147 1 210-21 142-49 227-127 255-231 19-76 19-93-5-190-13-51-34-100-57-135-53-78-204-226-300-294-78-54-103-86-68-86 72 0 323 217 421 365 38 57 74 182 74 258 0 28-8 78-17 111-31 112-165 218-328 261-65 17-157 19-193 4z"/><path d="m5328 15396c-129-53-226-132-299-244-55-83-66-125-49-177 24-72 167-126 335-126 116 0 235 26 235 51 0 8-72 6-180-5-112-10-272 22-318 66-77 71 72 284 263 376 85 40 111 42 119 8 10-41 56-25 56 20 0 56-69 69-162 31z"/><path d="m5950 15304c-184-50-276-147-288-306-4-59-1-72 21-110 38-65 67-87 132-100 69-14 150 0 231 38 196 93 254 381 94 468-55 30-106 32-190 10zm155-47c56-31 77-76 72-152-12-161-136-270-308-270-87 0-106 11-141 79-16 32-19 49-13 95 9 75 20 93 49 85 21-5 23-2 19 18-6 31 33 79 91 113 31 18 129 47 186 54 3 0 23-9 45-22z"/><path d="m1300 15289c-74-4-223-17-330-28-107-12-221-21-252-21-57 0-82-14-57-32 17-11 147-5 449 22 173 16 351 22 770 28 475 6 545 9 545 22s-62 15-495 16c-272 1-556-2-630-7z"/><path d="m3544 15263c-9-16-46-63-81-106-62-76-75-112-42-112 9 0 33 20 53 43 20 24 36 38 36 30 0-16-42-218-61-292-12-50-3-71 27-59 17 6 26 37 75 273 57 271 55 250 31 250-11 0-28-12-38-27z"/><path d="m8561 15271c-8-5-18-35-22-68-8-56 2-117 32-194 17-45 86-64 119-34 16 14 18 10 29-57 8-53 9-93 1-146-12-86-19-101-61-136-38-32-76-33-120-3-28 19-34 29-32 55 0 18 13 48 28 67 29 39 17 46-29 16-83-55-71-143 26-192 59-30 119-18 175 35 38 36 45 50 59 116 16 77 15 130-6 285-12 88-29 117-54 95-9-7-16-19-16-27 0-25-33-73-50-73-20 0-50 89-50 148 0 31 4 42 15 42 19 0 19 30-1 58-17 24-22 26-43 13z"/><path d="m2623 15248c-4-7-11-616-15-1353-3-737-11-1443-17-1570-13-298-14-800-1-940 6-60 14-188 19-283 8-172 19-216 42-182 12 18 6 279-12 541-13 176-10 346 21 1389 10 343 12 2294 2 2359-7 45-24 62-39 39z"/><path d="m8229 15210c-39-20-103-102-123-154-11-31-11-31-16 19-5 45-7 50-30 50-25 0-25 0-31-130-4-71-14-159-24-195-22-83-45-216-45-257 0-29 3-33 25-33 32 0 40 19 55 125 6 44 15 107 20 139 5 33 19 83 32 111l23 53 90 4c158 9 223 54 212 150-7 60-26 92-70 118-40 25-72 25-118 0zm98-45c25-18 47-86 38-115s-61-50-145-60c-41-5-77-7-79-4-6 6 21 66 53 117 45 71 90 92 133 62z"/><path d="m7556 15198c-2-7-10-42-17-78s-25-105-40-153c-15-49-25-95-22-103 8-23 43-16 53 10 20 55 189 210 207 192 4-3 9-43 13-87 5-69 9-84 29-100 28-23 87-25 134-5 32 13 97 78 97 96 0 5-28-7-62-27-41-24-75-36-96-36-18 1-35 3-37 5-3 2-9 42-14 87-12 106-29 128-87 112-21-6-63-31-91-57-29-25-53-42-53-38s9 43 21 86 19 85 15 93c-7 18-45 20-50 3z"/><path d="m8987 15187c-45-14-107-62-107-83 0-29 30-26 70 9 38 32 104 56 118 43 6-7-9-58-55-179-65-175-37-192 104-61l93 86-7-62c-9-94 25-103 92-24 37 45 37 45 59 25 50-47 228-53 323-11 26 11 63 35 81 52l32 32v-26c0-15 11-39 24-55 22-25 30-28 84-27 40 1 73 8 101 22 42 22 42 22 70 1 36-27 133-36 187-19 21 7 56 24 77 37l37 23v-44c0-79 55-87 62-8l3 37 90 7c50 3 103 11 118 17 38 15 37 16 37-24 0-54 33-81 108-90 68-8 143 6 204 36 26 14 59 19 111 19 83 0 79 4 108-99 8-25 23-50 36-58 34-22 48-5 28 33-8 16-15 36-15 44s-11 39-25 68l-24 52h-61-61l20 26c25 32 26 52 6 81-33 47-108 33-150-27-26-37-27-51-11-91 5-12-3-18-32-27-53-16-154-15-176 1-30 22-13 87 35 136 42 43 48 73 15 79-12 3-34-14-65-47-54-59-102-79-209-88l-74-6 7 34c4 19 20 54 36 78 31 48 32 59 6 75-22 14-52-15-73-73-35-94-134-161-241-161-35 0-67 6-79 14-17 13-18 17-5 48 23 55 25 94 6 102-9 3-25 1-36-4-17-10-24-24-31-74-2-10-20-33-41-50-31-25-47-30-90-31h-52l-3 59c-2 32 2 72 8 89 8 25 7 34-5 46-13 14-17 14-31 0-8-9-18-35-21-58-5-37-11-44-63-76-32-19-77-42-100-50-48-17-185-20-224-5-23 8-24 12-14 41 8 25 23 37 72 58 33 15 73 31 88 34 27 7 45 38 33 57-19 31-152-8-198-59-18-20-55-57-82-83l-50-46-2 50c-1 47-12 67-37 68-4 0-41-32-82-72-41-39-76-69-80-66-3 3 2 22 10 42s23 66 32 102c21 87 11 114-43 113-21 0-55-6-76-12zm2089-148c6-11-42-69-58-69-20 0-19 33 2 56 25 26 45 31 56 13z"/><path d="m6660 15144c-11-12-10-18 3-32 16-15 18-15 33 0 19 18 12 48-9 48-8 0-20-7-27-16z"/><path d="m6616 14944c-7-19 20-54 41-54 20 0 26 25 13 49-13 25-45 28-54 5z"/><path d="m881 14827c-6-8-15-43-20-78-13-91-75-294-127-418-47-108-50-145-12-139 14 2 26 19 41 58 17 46 21 51 28 33 4-11 20-30 36-41 69-49 259-120 290-108 25 10 0 36-47 50-69 20-220 95-226 111-8 20 42 81 95 118 64 43 219 164 259 201 43 40 43 60-1 53-38-6-64-22-234-143-71-50-129-91-130-90s14 51 33 111c35 111 61 253 50 280-7 19-20 19-35 2z"/><path d="m1675 14510c-7-12 28-142 56-207l19-45-29-36c-16-21-43-50-60-66-38-36-39-46-5-46 17 0 43 17 78 50l52 49 32-33c33-36 89-54 106-35 8 8 5 14-8 23-11 6-38 27-60 47l-40 37 27 33c46 56 107 152 114 177 6 27-7 45-28 37-8-3-27-30-42-59-16-30-44-72-63-93-38-43-46-39-65 32-35 132-41 145-59 145-10 0-22-4-25-10z"/><path d="m2166 14263c-33-9-116-64-127-84-8-16-6-19 11-19 15 0 20-7 20-26 0-68 108-113 195-80 52 20 105 91 105 141 0 51-29 69-113 72-40 1-81-1-91-4zm146-49c19-12 5-49-31-85-32-32-46-39-79-39-24 0-49 7-62 18l-23 19 23 42c16 27 33 44 50 47 14 3 30 7 35 9 11 5 76-4 87-11z"/><path d="m1355 14168c-10-29-35-201-35-238 0-34 3-40 20-40 11 0 22 6 24 13 12 39 38 248 33 261-8 19-36 21-42 4z"/><path d="m14577 14073c-2-5-7-20-11-35-4-19-19-34-45-47-51-27-98-67-132-115-23-30-29-50-29-88 0-27 5-58 11-69 17-32-12-55-76-62-91-9-146-69-100-107 20-16 76-1 127 34l36 24 58-25c88-37 132-45 206-40 140 12 255 115 284 258 18 85 4 144-46 194l-40 40h-95c-89 0-94 1-100 23-5 21-39 31-48 15zm248-114c28-27 30-34 30-102-1-84-16-120-79-185-59-62-102-82-180-82-85 0-206 45-178 66 9 7 27 14 40 14 23 0 28 10 13 26-6 5 12 42 49 97 32 49 67 110 76 135 10 26 19 49 20 51 9 11 76 19 124 15 44-4 61-11 85-35zm-285-25c0-19-109-184-121-184-14 0-10 58 6 89 22 43 115 120 115 95z"/><path d="m18687 13976c-12-13-33-42-46-64-30-51-112-113-210-160-62-30-88-36-156-40-100-5-128 6-119 46 15 63 56 96 149 117 69 16 68 39-2 43-43 3-65-3-136-38-47-23-95-53-108-66l-23-25-11 38c-18 64-40 56-145-49-51-51-95-87-97-81-3 7 14 50 37 97s40 93 38 103c-5 28-57 27-139-3-41-14-84-28-96-31-14-3-23-13-23-24 0-27 42-25 120 6 35 14 67 25 72 25 4 0-9-33-29-72-20-41-38-94-41-119-4-41-2-48 16-53 31-10 74 16 158 96 66 63 74 68 74 46 0-56 40-62 97-14l40 35-1-41c-1-56 30-78 117-85 93-8 186 17 287 78 46 27 85 49 87 49s-3-10-11-22c-21-30-21-121-1-138 23-19 45 5 45 49 0 49 14 61 70 61 26 0 69 7 96 15 65 20 64 20 64-20 0-26 6-39 24-50 34-22 126-30 179-16 32 10 54 10 84 2 71-19 163 23 331 152 34 26 62 46 62 43 0-2-16-30-35-62-49-81-53-103-25-126 30-25 47-23 116 12 32 16 59 28 59 27 17-52 38-77 74-87 98-26 233 35 271 124 32 72 9 117-69 135-54 12-94-1-138-42-24-22-33-27-33-15 0 33-31 28-68-12-34-36-144-110-164-110-15 0-8 17 32 86 61 105 51 166-22 128-18-9-59-37-92-63-181-138-327-202-233-102 45 48 66 102 54 135-3 8-20 17-38 21-57 13-116-49-126-132-5-47-9-53-36-62-33-12-116-15-141-5-28 11-19 61 19 103 19 21 35 45 35 54 0 40-55 32-85-13-11-16-31-34-45-39-58-23-142-42-169-39l-30 3 24 60c14 33 34 72 45 87s20 34 20 42c0 25-30 27-53 2zm533-111c0-13-30-62-44-74-25-21-21 20 5 53 19 24 39 34 39 21zm714-25c55-21 18-102-65-144-69-34-123-35-145-1-15 23-15 27 7 71 20 43 23 45 30 26 11-29 20-28 55 9 44 47 73 56 118 39z"/><path d="m8305 13943c-19-44-39-286-30-351 3-23 16-54 28-68 24-27 79-41 122-30 31 8 101 69 127 111 14 24 18 26 18 11 0-34 43-156 62-176 20-22 48-27 48-9 0 6-11 43-25 81-35 97-47 188-37 279 9 91 8 99-24 99-26 0-30-8-38-107-13-150-145-293-210-227-13 12-16 40-16 138 0 68 5 148 11 177 17 81 16 103-3 107-12 2-22-8-33-35z"/><path d="m16533 13963c-4-10-21-58-39-108-25-72-36-91-53-93-26-4-38-44-22-78 14-31 26-30 59 5 16 17 42 31 65 35 22 4 76 27 122 51l83 43-5-39c-7-47 13-74 62-88 46-12 113 2 216 48l88 39 11-29c30-72 148-52 255 43l32 27-5-49c-5-57 8-80 44-80 27 0 29 3 12 30-10 16-9 33 5 87 33 129 16 141-77 56-74-67-156-116-189-111-18 2-23 10-25 45-2 34 2 50 22 76 32 41 32 54 4 63-17 5-27 0-45-22-69-88-82-99-148-130-147-68-224-68-209-2 7 36 31 77 53 94 8 6 11 18 8 28-7 17-42 22-51 7-15-23-246-141-277-141-5 0 6 40 23 89s28 96 25 105c-8 21-36 20-44-1z"/><path d="m15182 13843c-39-19-159-145-186-195-21-38-16-68 10-68 9 0 57 43 107 95l90 96 17-65c9-36 25-74 35-86 29-32 87-45 136-31 35 11 43 10 58-3 26-23 99-30 151-13 38 11 50 11 78 0 37-15 126-22 137-11 14 14-7 27-60 38-30 6-57 15-60 20s8 18 24 29c32 23 65 95 59 132-5 35-77 50-124 24-64-34-106-129-72-163 20-20-5-34-53-30-39 3-46 7-58 36-17 38-40 41-69 7-23-26-60-32-92-15-24 13-40 62-40 121 0 61-14 99-37 99-10 0-33-8-51-17zm541-97c-3-13-23-41-44-62-33-32-41-36-49-24-16 24-12 37 21 75 38 42 79 49 72 11z"/><path d="m9238 13514c-4-3-47-10-95-15-126-13-193-34-193-61 0-20 4-21 63-15 34 3 78 9 97 12 33 6 33 5-17-23-69-39-260-180-343-251-87-76-181-148-260-201-79-52-149-108-212-169-46-44-48-44-63-26-8 11-35 61-59 110-24 50-54 100-65 112-16 17-21 35-21 75-1 65-14 136-28 150-22 22-77-2-144-62-36-33-69-60-71-60-3 0-7 12-9 26-9 74-110 43-170-51l-20-30 6 65c7 77-9 114-41 94-16-10-18-28-21-141-2-107 0-132 13-143 22-18 38-1 87 87 22 40 52 82 66 94l27 21 3-33c8-81 41-77 144 16 45 41 86 75 90 75 5 0 8-43 8-95 0-110 6-102-125-158-93-40-198-107-221-141-19-30-11-85 22-142 13-23 20-44 17-48-4-3 10-21 30-40s37-40 37-47c0-8-35-66-78-129-76-113-78-115-119-118-30-2-57 5-94 23-57 29-103 29-159 0-16-8-83-78-150-155-176-204-213-226-340-209-49 7-81 7-104-1-41-13-119-102-210-238-75-111-125-163-202-208-48-29-51-29-204-29-130 0-159-3-180-17-30-21-78-82-157-203-33-49-88-116-123-148l-63-59-61 5c-34 2-87 14-120 26-39 15-68 20-89 15-51-11-126-90-165-174l-35-75-76 81c-42 44-85 85-95 91-16 9-16 11 8 27 36 23 35 50-1 44-28-4-28-4-30 67-3 95-32 165-67 165-51 0-106-32-151-87-39-48-45-52-45-30 0 13-9 32-20 42-18 17-21 17-45 1-14-9-39-35-55-58l-30-41v35c0 43-22 67-45 48-22-18-22-242 0-260s33-5 59 72c12 34 35 83 51 108l30 45 3-47c2-27 10-52 19-60 14-11 21-7 52 32 60 75 137 150 154 150 20 0 37-51 37-114 0-54 6-70 29-77 8-3-14-29-60-69-41-36-125-115-186-177-102-101-113-116-113-148 0-25 4-35 16-35 15 0 96-59 180-131l32-27-82-66c-44-36-111-92-148-123-250-214-602-487-620-481-5 2 12 31 38 66 44 60 52 92 20 92-27 0-136-140-136-175 0-8-5-24-12-34-17-28-3-55 25-46 12 4 69 10 127 13 84 6 105 10 105 22 0 11-16 16-63 20l-63 5 103 75c247 181 253 186 568 455 52 45 114 95 136 113l42 32 78-53c44-29 88-56 98-60s16-10 12-14c-3-3 4-13 16-21 20-15 23-14 47 18 14 19 46 57 71 85s79 99 120 158c47 68 81 107 92 107 12 0 18 8 18 23 0 26-17 47-38 47-12 0-141 56-151 65-2 2 7 32 20 67 16 42 40 79 75 115 57 60 74 64 143 32 57-25 148-35 193-20 51 17 150 121 233 246 40 61 88 124 107 142l33 32 145-1c159-2 176 2 268 64 52 35 104 92 162 178 58 85 116 163 153 202l34 37 99-6c94-5 103-4 157 21 57 27 146 115 289 286 71 85 102 94 186 57 39-18 77-27 109-27 60 0 82 20 170 157l60 92 54-55c36-36 61-54 74-52 37 5 28 36-24 86-41 39-51 56-51 81 0 27-3 31-18 27-23-8-48 19-96 99-21 36-36 73-36 92 0 29 7 37 68 77 37 24 92 54 122 66s79 35 108 51l53 30 35-77c19-42 48-95 64-119 17-24 30-47 30-51 0-8-1-7 106-88l77-60-31-26c-18-15-78-53-135-84-131-75-207-132-207-155 0-31 26-31 61 0 19 16 67 49 109 73 153 89 228 140 243 166 15 24 14 29-3 58-11 18-23 32-28 32-14 0-117 82-117 93 0 16 133 126 240 199 110 76 200 144 285 219 96 83 296 227 365 261 33 17 72 39 88 50 64 46 2-83-87-179-32-35-24-41 27-20 70 30 142 154 135 234-3 36-5 38-38 41-20 2-39 0-42-4zm-4310-2582c9-10 40-43 67-73 28-30 63-64 80-77 25-20 28-26 17-43-23-36 6-53 40-22 17 15 22 14 83-16l66-32-22-32c-160-229-203-279-241-282-13-1-55 20-96 47-84 57-84 57 9 115 59 36 73 58 43 70-19 7-45-6-114-59-57-43-47-44-126 17-86 66-134 107-134 117 0 18 282 288 301 288 5 0 17-8 27-18z"/><path d="m1289 13448c-36-40-140-181-187-253-48-76-163-209-193-225-14-8-20-6-29 9-13 26-31 319-21 362s4 59-19 59c-34 0-42-63-32-248 6-92 15-179 22-194 18-39 60-54 98-34 42 22 162 156 229 257 30 46 87 124 125 172 67 85 79 117 43 117-9 0-25-10-36-22z"/><path d="m2056 13388c-41-137-105-276-144-312-16-14-29-15-85-7-80 11-132 1-166-33-21-21-24-30-16-52 6-15 22-36 37-47 27-20 29-20 90-3 35 9 80 29 102 42l38 26 97-32c88-28 131-32 131-10 0 8-116 59-168 75-24 7-24 7-5 28 50 56 137 258 131 306-3 27-35 42-42 19zm-236-368c24-7 24-8-15-25-55-24-98-25-103-2-6 30 60 45 118 27z"/><path d="m16079 13211c-45-14-69-31-84-62-20-38-12-65 26-88l29-18-105-48-106-49-17 25c-9 13-31 40-49 60s-33 43-33 51c0 19-20 38-40 38-8 0-67-34-130-75l-115-75-3 54c-2 30-9 59-16 65-19 16-45 3-52-25-9-34-60-74-95-74-37 0-48 34-25 78 22 43 20 62-7 62-15 0-29-11-40-29-35-60-202-181-248-181-18 0-20 4-14 33 4 17 18 52 30 77 33 66 38 96 19 114-18 19-46 20-95 2-57-20-104-62-138-124-32-57-32-57-26-17 4 21 18 52 31 68 29 35 27 51-8 55-18 2-32-5-45-22-11-13-49-40-84-59-62-34-196-83-204-75-2 2 12 23 31 47 28 36 34 52 34 90 0 60-16 81-67 88-76 10-133-21-133-72 0-35 37-34 50 1 9 22 15 25 52 22 40-3 43-5 46-34 2-24-7-43-43-88-54-65-54-92-1-101 36-7 193 40 255 76l33 20-6-26c-4-14-13-63-22-108-8-45-22-114-29-154-8-40-15-88-15-108 0-34 2-36 27-33 26 3 30 11 70 143 57 191 118 311 174 348 45 29 75 35 66 15-63-143-70-183-39-211 10-10 30-17 45-17 31 0 143 57 194 99l37 31 21-26c29-36 92-43 140-16l35 21v-29c0-22-9-36-37-57-78-60-146-130-169-175-29-57-29-70-4-126 25-55 72-77 145-67 61 8 89 25 112 68 15 27 18 54 16 171-2 122 0 141 15 153 9 7 61 43 114 78l98 65 37-41c21-23 46-54 56-69l18-28-73-41c-150-82-175-110-147-163 10-18 17-20 72-14 106 12 197 90 197 169 0 22 13 30 108 72 59 26 131 61 161 78l54 30-7-35c-9-49 23-90 67-86 39 4 46 25 13 38-30 11-34 43-15 131 15 67 3 94-48 108-43 12-57 12-94 2zm85-47c22-8 20-17-10-48-42-41-124-33-110 11 11 34 77 54 120 37zm-388-332c-10-29-83-74-130-79l-41-4 30 25c32 28 137 87 143 81 2-2 1-12-2-23zm-375-84c5-101 0-128-26-153-33-34-105-35-135-3-49 53-5 151 105 230l40 29 6-25c4-14 8-49 10-78z"/><path d="m16615 13109c-12-19 4-59 24-59 22 0 34 25 26 51-7 20-40 26-50 8z"/><path d="m16623 12928c-23-33-54-100-49-105 8-9 55 27 79 60 17 22 18 29 7 42-15 18-25 19-37 3z"/><path d="m1356 12888c-3-7-12-44-22-83-10-38-28-94-41-124-28-66-30-104-5-99 23 4 68 100 96 207 25 94 24 111-5 111-11 0-21-6-23-12z"/><path d="m2238 12214c-8-7-646-23-1278-33-377-5-435-8-435-21s71-15 585-14c532 1 1141 15 1328 30 61 5 73 9 70 22-3 15-21 17-134 20-71 1-133 0-136-4z"/><path d="m2022 11789c-95-16-166-72-160-125 4-35 40-42 46-9 11 56 69 85 190 94 115 8 179-8 200-51 20-42 1-73-122-193-97-95-114-116-124-157-12-46-8-77 12-90 18-12 36 13 36 50 0 48 28 89 108 158 147 129 179 192 130 264-43 62-163 84-316 59z"/><path d="m15345 11500c-10-11-56-45-101-76-161-106-166-142-39-262l55-53-32-27c-18-15-67-56-108-92s-133-115-205-174c-154-129-401-355-645-591-237-229-433-407-560-505-132-102-324-268-465-404-61-57-112-103-113-101-2 2 17 38 43 80 47 78 51 105 16 105-19 0-92-101-164-226-15-27-40-69-56-94s-30-57-30-72c-1-26 2-28 36-28 70 0 222 69 318 145 22 17 48 34 58 38 23 9 23 47-1 47-10 0-38-13-62-30-25-16-63-42-85-56-45-31-118-68-154-79-23-7-23-7 5 44 21 37 35 51 51 51 14 0 75 49 175 143 203 188 261 237 285 237 23 0 85-43 125-86 99-108 163-344 114-419-20-31-10-51 21-41 25 8 43 46 50 106 6 54-32 201-73 283-31 61-104 141-163 177l-44 28 99 77c55 43 119 94 143 113 70 57 273 243 453 418 222 215 507 477 648 594 63 52 150 127 194 165 45 39 102 88 129 109l47 38v-27c0-24 3-27 25-23 14 3 25 5 26 4 0 0 5-50 10-111 27-298 18-974-18-1380-8-93-18-232-22-307-6-141-18-181-40-139-7 12-20 21-31 21-28 0-35-36-13-67 10-14 30-44 44-67 17-28 33-42 50-44 25-3 32 3 114 99 11 13 38 38 60 56 31 24 37 34 28 44-21 21-64 0-121-58l-54-56 6 44c4 24 12 109 17 189s13 204 19 275c34 468 44 1087 21 1309-6 61-14 134-16 162l-5 52 64 25c87 35 167 80 180 100 17 26-27 98-91 153-30 26-79 78-110 115-58 73-78 82-108 49zm237-260c10-14 18-28 18-32 0-9-80-54-139-77l-51-21v24c0 24 33 55 85 81 28 15 25 39-6 43-19 2-48-13-107-57l-82-61-65 65c-36 36-65 71-65 79 0 20 46 63 130 121l75 51 95-95c52-53 102-107 112-121z"/><path d="m856 11468c-11-33-76-378-76-402 0-47 39-30 69 29 14 28 37 66 50 85 29 42 102 120 113 120 14 0 19-66 8-110-24-94-24-100-1-100 14 0 27 12 40 38 53 100 144 182 203 182 29 0 42-40 42-125 0-79-18-179-35-201-14-18 16-38 38-25 33 17 61 183 49 285-8 61-44 116-75 116-43 0-125-34-162-67-34-30-39-33-39-16 0 29-38 73-62 73-32 0-80-34-117-84-19-25-36-44-37-43-2 2 6 48 17 103 11 54 18 110 17 124-3 27-35 41-42 18z"/><path d="m1710 11229c-36-10-88-20-117-21-52-2-68-13-53-38 18-29 248 19 285 60 18 20 18 20-16 19-19 0-63-9-99-20z"/><path d="m18872 10913c-81-55-131-161-132-280 0-23-4-45-10-48-15-9-12-61 5-75 8-6 19-9 24-6 6 4 17-4 26-18 35-53 122-68 145-26 27 50 0 103-60 121l-40 12 70 72c66 69 130 175 130 216 0 24-31 46-75 53-34 6-47 3-83-21zm103-33c13-20-50-126-109-185-58-57-61-59-64-35-2 14 1 49 8 79 9 41 22 64 59 102 46 48 90 64 106 39zm-120-344c24-10 35-22 35-35 0-27-22-27-47 2-24 26-36 47-28 47 3 0 21-7 40-14z"/><path d="m2062 10911c-8-5-12-17-10-27 2-15 13-19 45-20 49-2 73 17 53 41-13 16-67 20-88 6z"/><path d="m13740 10861c0-14 12-22 48-31 26-7 52-16 57-19 14-8-118-19-327-27-165-6-178-8-178-25 0-18 10-19 146-19 80 0 200 5 267 11 89 8 122 8 125 0 6-19 48-12 76 14 14 13 26 28 26 33 0 20-40 41-117 61-103 26-123 27-123 2z"/><path d="m18100 10845c-7-8-16-45-21-82-4-38-11-93-15-123s-13-63-22-72c-19-23-5-126 20-141 29-19 48 9 48 68 0 50 2 53 33 66 17 7 56 28 85 46s54 33 57 33c2 0-3-16-11-35-19-47-18-98 4-118 24-22 64-30 94-18 25 9 27 8 26-18-1-38 6-48 48-61 54-18 99-5 148 43 55 53 83 123 70 175-12 47-62 82-117 82-82 0-171-68-146-112 13-24 2-44-32-58-32-14-59-8-59 13 0 29 39 121 64 150 29 33 28 57-2 57-10 0-59-25-108-56s-104-63-123-71c-33-14-33-14-27 10 11 45 27 217 21 227-9 14-21 12-35-5zm507-231c14-22 14-28-2-72-26-67-73-112-119-112-35 0-36 1-36 38 0 21 7 47 15 58 17 22 20 60 5 69-17 10 8 34 44 43 44 12 75 3 93-24z"/><path d="m3751 10833c-20-39-31-136-34-288-2-153-1-162 23-208 63-124 195-95 283 62l25 44 6-59c14-133 59-234 103-234 17 0 17-4-13 76-24 60-28 88-32 216-3 117-1 161 13 217 19 77 14 111-16 111-25 0-49-53-49-108 0-84-87-272-147-319-57-45-62-46-89-28-44 28-54 71-54 223 0 138 13 246 32 269 15 18 2 43-21 43-11 0-24-8-30-17z"/><path d="m19122 10748c-39-27-89-124-98-188-8-59 14-89 72-97 40-5 104 17 104 35 0 4 29 6 64 4s72 1 82 6c15 9 23 6 39-14 29-36 110-43 187-17 48 16 60 17 80 7 43-24 121-37 151-25 36 14 28 27-24 35-22 4-56 13-75 21l-34 14 44 41c57 53 73 97 51 139-21 41-58 50-104 25-57-32-76-66-75-139 0-63 0-65-29-75-17-5-52-10-80-10h-50l7 50c8 63-12 78-50 37-37-40-76-57-115-51-30 5-34 9-34 37 0 17 8 39 17 49 13 13 15 24 9 46-11 38-31 75-45 84-21 14-61 8-94-14zm78-60c6-18 16-41 21-50 7-14 5-18-10-18-19 0-31-18-31-48 0-43-89-85-103-48-12 30 27 131 66 174 28 30 42 28 57-10zm520-13c0-29-61-102-77-92-7 5-8 20-2 44 13 61 79 101 79 48z"/><path d="m13483 10628c-31-49-36-73-43-230-4-91-5-178-3-193 8-42 65-95 101-95 46 0 123 67 187 163l55 82v-77c0-71 2-78 26-97 29-23 83-28 102-9s14 28-14 28c-68 0-77 33-49 190 21 120 20 142-6 138-15-2-37-27-65-73-24-38-43-73-44-77 0-16-105-155-139-185-44-39-64-41-86-6-15 23-17 43-12 152 3 69 13 159 22 199 13 57 14 76 5 87-15 18-26 19-37 3z"/><path d="m17811 10588c-92-236-183-381-391-621-136-157-405-381-558-463-57-31-73-56-39-62 68-13 455 284 629 482 163 186 286 363 355 513 20 43 42 83 50 88 9 7 13 24 11 45-2 27-8 36-25 38-16 2-25-3-32-20z"/><path d="m18164 10121c-73-44-124-143-124-238 0-82 68-115 191-93 77 14 132 41 182 88 41 40 42 40 28-58-8-54-1-80 22-80 6 0 35 26 64 58l53 57v-33c0-29 5-35 38-49 27-11 54-14 100-10 50 5 62 3 62-8 0-8 10-21 23-29 72-47 215-17 299 64 26 26 48 55 48 66 0 32-27 61-75 79-82 32-177 4-260-75-45-42-70-53-128-52-74 1-73 29 5 123 46 55 49 62 35 77-15 14-20 14-57-3-22-10-69-48-104-85l-62-67 4 53c6 66-3 104-25 104-9 0-41-27-71-60-68-76-132-109-221-117-56-5-70-3-85 12-35 35 5 169 66 220 42 35 60 33 56-7-2-25 1-33 16-36 22-5 46 22 46 50 0 26-44 68-72 68-13 0-37-9-54-19zm917-234c28-18 23-43-15-73-46-37-112-63-163-63-50-1-73 7-73 24 0 9 11 12 40 8 44-6 52 6 19 28-26 18-18 39 22 63 62 37 125 41 170 13z"/><path d="m20340 10046c-66-36-281-46-431-20-46 8-59-9-30-40l22-23-57-5c-47-4-62-10-81-32-66-77 27-141 165-112l62 13v-37c0-37 19-65 40-58 15 5 91 180 85 195-7 21-37 15-66-13l-26-25-21 35-21 36h82c84 1 209 14 240 26 14 5 17 0 17-23 0-17-4-43-9-59s-12-41-15-56c-5-21-13-27-39-30-20-2-32-8-32-18 0-23 287-21 332 3 40 21 46 32 39 62-14 54-130 92-200 65-31-12-33-1-11 65 22 64 8 80-45 51zm-382-151c7-14 12-27 12-29s-25-7-55-11c-66-8-127 8-118 31 8 22 40 33 99 33 45 1 52-2 62-24zm563-24c13-11 21-23 16-27-4-4-45-10-92-12-92-5-103 2-59 37 35 27 103 28 135 2z"/><path d="m19315 9963c-27-8-58-22-67-30-16-15-18-15-18 1 0 21-26 32-44 17-8-6-17-33-21-59s-18-81-31-122c-50-153-55-305-9-305 13 0 26 13 37 36 21 45 48 186 48 253 0 51 0 51 38 53 20 0 69 15 109 31l72 29 20-21c12-12 21-30 21-40s14-23 37-32c73-31 182 21 205 98 11 38 10 42-10 59-29 23-113 33-176 21-42-9-51-7-67 9-23 23-74 24-144 2zm86-47c-14-17-134-66-159-66-12 1-8 8 17 28 39 32 85 50 125 51 23 1 26-1 17-13zm256-14c9-6 8-16-7-39-20-33-84-61-113-50-17 6-28 85-12 91 18 8 120 6 132-2z"/><path d="m16387 9933c-13-12-7-33 8-33 8 0 15-4 15-8 0-5-71-13-157-17-347-17-368-19-368-35 0-18 136-20 469-6 192 8 209 8 203-7-8-22 6-29 37-17 18 7 26 17 26 34 0 30-24 44-124 75-71 22-98 26-109 14z"/><path d="m14300 9635c-49-67-57-73-80-67-85 24-144-3-181-83-37-79-19-155 36-155 25 0 126 78 164 126 22 27 23 28 49 11 137-88 166-101 226-105 55-4 60-3 47 12-7 9-19 16-25 16-27 0-194 92-240 131-5 4 17 44 48 88s56 85 56 91c0 5-10 10-22 10-17 0-38-20-78-75zm-92-124c4-13-112-131-130-131-22 0 6 96 39 133 20 21 84 20 91-2z"/><path d="m16060 9636c-9-12-6-38 14-123 14-59 37-158 50-218 29-135 47-178 79-200 51-33 70-5 152 216 24 64 65 160 91 215 26 54 48 104 48 109 1 6-10 10-24 10-22 0-31-13-72-95-26-52-59-129-74-170s-43-113-63-159l-35-85-13 31c-7 18-24 85-38 150-68 311-74 333-95 333-4 0-13-7-20-14z"/><path d="m19275 9511c-102-46-188-187-165-271 36-134 320-191 421-84 22 24 22 24 2 24-11 0-40-7-63-15-136-48-311 15-310 112 1 104 159 242 226 198 13-8 24-27 26-42 2-20 9-29 25-31 46-7 37 67-13 107-34 26-94 27-149 2z"/><path d="m18854 9448c-23-24-68-86-102-138-33-52-82-124-107-159-41-55-45-65-33-77 29-29 37-21 187 212 39 61 81 120 93 130 21 19 21 19 15-21-3-22-9-98-12-170-6-136-1-165 37-189 28-17 45 7 28 39-10 19-12 64-7 201 4 110 2 184-4 196-16 30-52 21-95-24z"/><path d="m18274 9466c-46-20-81-62-125-148-38-75-41-78-74-78-28 0-35-4-35-20s7-20 34-20c32 0 34-1 39-46 9-87 77-140 176-138 59 2 94 27 106 75 17 71-127 137-207 95-26-14-28-13-28 4 0 12 21 33 55 55 30 20 77 64 105 97 47 57 59 88 42 115-12 19-55 24-88 9zm40-48c-15-25-89-108-96-108-20 0-4 34 35 75 40 41 78 62 61 33zm-4-281c51-26 32-77-28-77-31 0-102 33-102 48 0 3 7 14 17 24 19 21 76 24 113 5z"/><path d="m19760 9470c-104-20-143-76-157-227-6-67 7-89 70-119 67-31 81-30 155 6 76 39 117 84 138 156 20 71 12 115-27 148-26 22-44 28-124 40-11 2-36 0-55-4zm132-61c42-23 42-93-2-164-23-37-110-95-143-95-21 0-79 28-89 44-13 19-9 71 8 94 9 13 14 32 11 43-6 24 27 67 67 85 33 15 114 11 148-7z"/><path d="m20174 9136c-7-18 14-96 26-96 15 0 30 71 19 91-11 22-37 25-45 5z"/><path d="m16489 9043c-8-10-21-31-29-47-13-26-13-30 6-45 20-16 20-22 11-76-5-33-10-78-11-100-1-33 2-40 18-40 22 0 28 17 51 148 23 132 19 177-15 177-9 0-23-8-31-17z"/><path d="m15004 9025c-10-26 3-41 63-70 32-16 68-39 80-52l22-23h-717c-541 0-776-4-957-16-338-22-370-26-370-44 0-13 22-15 145-12 80 1 197 7 260 13 63 5 453 12 865 15 726 5 749 5 729-13-41-34-54-83-22-83 5 0 33 20 60 45 28 25 61 48 74 51 18 5 24 13 24 33 0 36-10 48-56 73-21 11-52 31-67 44-16 13-36 24-46 24-9 0-26 7-37 15-25 19-43 19-50 0z"/><path d="m14245 8709c-4-5 1-19 11-30 17-19 14-19-229-19-240 0-247-1-247-20s7-20 288-22c158-1 302-2 320-1 65 1 94 64 42 90-31 15-176 17-185 2zm149-38c10-15-22-20-34-5-10 11-9 14 8 14 12 0 23-4 26-9z"/><path d="m14302 8373c-39-43-97-112-128-153-66-88-143-170-160-170-12 0-26 60-48 220-20 142-28 164-54 168-28 4-36-16-22-53 6-16 19-92 30-170s24-153 29-168c11-29 39-47 71-47 27 0 128 94 185 173 23 32 80 101 126 153 46 53 84 101 84 108 0 6-10 12-21 14-16 2-40-17-92-75z"/><path d="m16980 8333c-175-8-480-58-685-112-60-16-173-46-250-66-244-64-438-168-580-311-78-77-101-108-134-176-73-155-77-250-14-375 109-216 352-362 783-467 192-48 611-108 1005-146 147-14 330-37 437-56 288-49 611-68 1013-61 435 9 504 22 780 157 252 122 405 243 466 368 20 39 24 63 24 142 0 87-3 101-33 164-92 194-237 329-491 457-241 120-722 278-1174 384-354 83-752 117-1147 98zm665-63c449-49 1260-277 1618-456 250-125 386-248 473-427 78-163 44-300-108-427-34-29-87-69-118-90-66-45-280-153-369-187-176-66-403-86-856-73-326 9-492 23-760 65-82 13-222 31-310 40-183 19-693 80-805 96-224 32-523 115-693 193-170 77-290 186-358 324-29 60-31 70-27 148 6 119 57 220 168 333 70 71 174 151 197 151 4 0-27-35-69-77-96-98-108-122-108-215 1-65 2-71 15-55 7 11 17 38 20 60 12 68 38 107 131 198 76 72 108 94 212 147 189 97 288 129 418 138 68 4 132 2 168-5 40-7 63-8 70-1 17 17-6 30-73 41-34 6-61 13-59 14 8 8 390 67 481 75 129 11 610 4 742-10z"/><path d="m17611 7894c-27-34-23-49 14-49 34-1 41-17 61-136 20-127 43-211 65-241l20-28-88-1c-118-2-218-19-218-39 0-17 106-17 420 0 94 5 393 12 665 15 499 6 757 18 774 35 16 16-2 23-57 23-499-6-1359-24-1412-29l-69-7 36 32c20 17 69 82 109 144 79 120 149 216 173 236 13 11 18 10 32-4s19-14 31-2c22 22 1 67-33 67-61 0-99-41-263-292-39-60-74-108-79-108-9 0-43 141-61 249-6 35-21 85-33 110-28 56-56 64-87 25z"/><path d="m15977 7773c-3-5-8-24-12-43s-37-105-73-189c-48-113-66-167-66-200-1-45 0-46 32-49 36-4 63 12 153 89l56 48-1-44c-1-55 23-82 85-96 88-20 289 38 289 83 0 13-46 6-120-16-76-24-153-31-179-17-15 8-21 21-21 45 0 40 65 172 99 202 16 13 22 27 18 37-13 34-45 16-127-70-85-92-208-203-222-203-4 0-8 6-8 13 0 14 105 263 118 281 14 18 32 103 26 120-6 16-39 22-47 9z"/><path d="m17049 7575c-5-4-156-20-299-31-90-7-110-12-110-28 0-25 28-40 53-28 12 6 78 14 147 18 118 6 255 25 267 38 12 12-8 36-30 36-13 0-26-2-28-5z"/><path d="m16794 7450c-64-9-96-26-92-48 4-18 20-19 83-4 22 6 119 14 215 17 168 7 210 14 210 35 0 12-338 11-416 0z"/><path d="m17575 7194c-67-35-141-109-161-161-15-40-15-44 3-75 14-25 30-36 64-44 51-13 143-3 189 21 27 14 29 14 32-7 2-11 15-30 30-41 41-30 157-29 218 2 73 38 99 62 116 107 14 36 14 46 2 71-20 42-78 66-162 67-91 1-139-21-174-80-31-50-94-88-163-98-126-18-144 53-39 148 71 64 146 90 192 65 16-8 24-8 35 4 13 12 12 16-2 31-26 26-119 21-180-10zm423-123c31-17 29-61-5-94-59-55-155-81-217-57-33 12-36 58-5 86 12 10 25 29 30 42 5 12 19 27 31 32 29 12 137 6 166-9z"/><path d="m19080 7185c-9-11-10-18-1-29 13-16 4-46-33-104l-25-40-63 15c-147 34-289-26-274-115 6-42 22-61 63-79 58-24 188 21 260 90l33 30 105-41c67-27 121-42 148-42l42 1-75 39c-41 21-100 48-131 60l-56 21 34 65c40 75 43 137 7 142-11 2-27-4-34-13zm-103-208c17-18-80-80-153-98-49-13-78-2-87 32-6 24 30 65 66 73 29 6 166 1 174-7z"/><path d="m18284 7170c-77-16-114-36-114-64 0-30 30-45 130-66 36-7 89-22 119-33l54-20-27-14c-15-8-64-18-109-23s-89-11-97-13c-8-3-27-8-42-11-20-5-28-13-28-27 0-18 5-20 33-16 17 2 70 10 117 16 88 12 176 35 198 53 52 43-45 101-233 139l-60 12 50 15c41 12 59 13 100 3 105-25 105-25 105-3 0 12-10 24-27 31-27 10-113 31-123 30-3-1-23-5-46-9z"/><path d="m7907 6593c-18-18-5-33 29-33 92 0 93-38 3-144-32-39-59-75-59-81 0-25 41-47 105-56 37-5 76-14 87-20 24-13 44 1 35 25-7 17-95 46-139 46-29 0-29 0 27 71 30 39 58 83 62 97 8 35-8 74-37 89-26 13-102 18-113 6z"/><path d="m2598 6540c-110-59-132-192-104-646 20-323 20-519 2-616-15-77-51-165-82-199-23-26-6-44 43-44 51 0 71-37 85-160 12-107-1-378-27-540-26-166-40-442-27-549 7-52 17-105 22-118 11-23 101-92 149-115 29-13 96-16 125-4 25 9 13 17-41 26-45 7-156 76-179 110-37 56-33 378 8 657 27 188 33 565 9 633-17 50-57 105-77 105-19 0-18 13 7 61 39 78 49 159 49 398 0 124-3 241-5 260-3 20-9 117-15 216-16 291 9 443 79 479 38 20 88 20 107 1 9-8 22-15 29-15 17 0 57 49 52 64-5 16-38 20-47 6-6-9-13-9-28-1-31 17-93 12-134-9z"/><path d="m4168 6548c-22-7-28-16-28-39 0-22 5-29 20-29 10 0 23 7 27 14 5 10 33 17 75 22 61 6 67 5 77-15 15-27-3-62-54-111-60-58-83-123-52-149 18-14 245-66 254-58 17 18-35 47-120 67-51 12-93 24-95 25-8 7 29 63 63 95 49 47 68 86 61 123-11 57-30 67-120 66-45 0-93-5-108-11z"/><path d="m7454 6308c-43-47-58-73-87-158-37-107-22-152 54-165 56-10 102 10 177 73l65 55-7-39c-23-123-18-154 26-154 22 0 36 29 19 39-8 6-4 43 16 144 27 138 26 165-9 152-8-3-36-35-63-71-50-69-131-140-170-150-13-3-34-4-46-2-21 3-24 8-23 43 2 57 41 151 81 196 21 23 33 45 29 54-9 24-29 18-62-17z"/><path d="m3097 6323c-4-3-7-19-7-35 0-55-64-278-114-396-21-50-24-67-15-78 18-22 37-17 54 15 19 37 35 43 55 19 22-28 126-47 250-47 105-1 149 10 122 28-8 4-62 11-120 15-152 9-213 23-205 44 9 27 72 89 156 154 76 60 91 83 62 94-14 6-76-37-215-151-30-25-56-41-58-36-1 4 10 51 27 102 40 128 65 243 58 263-6 16-38 22-50 9z"/><path d="m3907 6211c-18-16-55-61-82-100-28-39-53-71-56-71s-34 32-68 70c-60 67-101 89-101 55 0-8 29-50 64-92l64-76-69-90c-66-86-81-118-58-132 19-13 60 4 57 24-3 17 31 70 80 123l25 27 36-28c49-38 58-42 98-52 71-16 90 24 20 42-24 6-59 25-80 45l-36 35 65 89c36 49 77 98 91 108 17 13 24 25 20 36-9 24-32 20-70-13z"/><path d="m6657 6204c-4-4-7-19-7-34 0-31-37-141-75-222-28-61-27-78 6-78 14 0 27 16 47 58 28 59 74 127 101 150 8 6 25 12 38 12 20 0 23-5 23-37 0-20-5-52-12-70-10-28-10-36 4-50 14-13 20-14 32-3 9 7 16 21 16 31 0 40 147 178 191 179 35 0 31-105-7-196-25-60-12-126 19-95 17 17 57 151 64 211 4 39 1 66-10 93-14 32-21 37-47 37-40 0-81-19-147-69-48-37-52-38-55-19-5 34-30 43-87 32l-49-10 1 40c2 34-1 41-18 44-12 2-24 0-28-4z"/><path d="m1603 6145c-7-21-2-25 38-30 152-19 293-122 371-270 43-83 72-218 66-315-9-164-132-297-398-430-100-50-98-49-80-60 31-19 149 30 275 115 146 98 217 186 250 311 13 49 14 74 4 154-14 121-37 194-88 279-46 79-142 171-216 208-95 49-210 68-222 38z"/><path d="m5883 6021c-78-28-151-71-169-99-30-46-15-102 28-102 17 0 19 5 14 33-5 27-2 38 17 55 31 29 154 84 181 80 49-7 16-109-81-245-40-57-48-63-79-63-82 0-157-64-152-129s64-55 148 25l58 55 41-20c22-12 62-35 88-51 45-29 84-37 117-24 24 9 19 22-11 29-16 3-61 26-102 50s-79 46-85 48 7 30 30 63c105 150 131 247 80 291-32 28-54 28-123 4zm-140-423c-18-18-36-28-40-24-9 9 42 56 60 56 6 0-3-14-20-32z"/><path d="m4104 5990c-26-10-38-27-25-34 5-3 7-23 4-44-4-28 0-44 15-62 17-21 30-25 90-28 61-4 73-1 91 17 42 42 22 105-44 139-30 15-107 23-131 12zm114-60c33-20 43-54 18-63-22-9-94 4-99 17-3 7-3 24 0 39 7 33 34 36 81 7z"/><path d="m1246 5720c-83-22-93-31-80-67 12-35 59-41 59-8 0 40 148 61 179 26 38-42-20-122-202-282-108-95-60-112 184-63 71 14 151 31 179 36 56 11 85 24 85 38 0 18-91 10-241-21-82-17-154-29-161-27-6 2 21 30 60 63 156 128 205 253 119 305-40 25-91 25-181 0z"/><path d="m4703 5710c-13-5-23-17-23-27 0-17 16-18 223-18 191 0 222 2 222 15 0 23-373 50-422 30z"/><path d="m7520 5709c-294-19-520-29-690-29-102 0-191-4-198-9-8-5-12-17-10-27 3-14 11-18 33-16 17 1 179 6 360 11 289 8 460 16 783 37 72 5 82 8 82 25 0 18-8 19-122 18-68-1-175-5-238-10z"/><path d="m3945 5663c-88-7-344-17-570-21-355-6-410-9-410-22 0-25 650-26 1007-1 153 11 285 18 292 15 23-9 31 18 11 33-23 16-111 15-330-4z"/><path d="m5020 5534c-58-8-152-13-210-11-99 2-105 1-105-18s6-20 185-18c197 1 272 14 278 46 4 20 0 20-148 1z"/><path d="m7446 5509-69-29-44 21c-38 18-56 21-121 16-91-6-114-14-110-36 3-14 17-16 98-13 127 4 138-7 42-42-190-69-556-233-639-284-42-27-53-45-33-57 6-4 75 25 153 63 154 76 394 182 411 182 6 0-1-10-16-21-31-23-37-56-11-66 9-4 62 1 117 10 56 10 118 17 139 17 42 0 107 26 107 43 0 10-191 4-240-9-16-4-5 7 30 31 30 21 69 50 85 65 17 15 72 46 123 70 137 64 118 100-22 39z"/><path d="m3905 5463c-16-3-74-23-127-44-96-40-97-40-125-22-20 13-47 18-98 18-87 0-135-18-135-51 0-28 24-32 54-9 12 9 42 15 72 15 89 0 92-9 12-44-67-29-262-131-480-252-138-76-219-135-242-176-17-29-18-40-9-49 17-17 63 4 63 29 0 11 8 26 18 34 27 24 164 105 307 181 302 161 376 198 387 195 6-2-34-31-90-63-98-58-118-77-106-96 7-12 366-12 398 1 57 21 23 30-131 32l-158 3 49 30c69 42 123 91 130 119 4 17 23 29 78 51 89 34 145 62 177 86 26 21 23 21-44 12z"/><path d="m5136 4684c-7-19 19-165 45-250 20-65 37-86 82-103 47-18 87 9 233 153 81 81 152 142 175 153 44 19 49 46 11 51-36 5-96-40-212-157-137-139-172-166-199-152-23 13-56 108-71 209-16 103-19 112-39 112-10 0-22-7-25-16z"/><path d="m3200 4347c-25-28-56-68-68-88-28-46-52-140-52-206 0-42 4-55 22-67 48-34 131-6 245 81 46 35 83 62 83 61 0-2-7-25-15-52-18-59-19-118-3-134 17-17 68-15 68 3 0 7-7 18-16 23-26 15-2 100 63 223 56 107 62 139 26 139-10 0-47-35-82-76-104-123-254-233-320-234-23 0-24 2-18 53 15 120 74 238 124 245 25 4 37 32 28 62-10 33-37 23-85-33z"/><path d="m4138 4234c-4-3-75-9-160-12-126-6-153-10-153-22 0-13 26-15 175-14 228 1 312 10 308 32-3 14-18 18-84 20-44 1-83 0-86-4z"/><path d="m6290 4229c-63-5-230-13-370-19s-331-15-425-20c-93-6-228-10-300-10-101-1-223-12-312-30-7-1-2-40 6-44 4-3 39 1 77 8 40 8 208 19 404 25 184 6 371 14 415 17s181 9 305 14c239 10 423 25 442 36 7 5 5 11-7 21-20 14-55 14-235 2z"/><path d="m3993 4088c-62-8-73-13-73-29 0-10 7-19 15-19 67 0 361 23 378 30 70 26-158 39-320 18z"/><path d="m6403 3929c-6-6-9-17-7-24 6-15-42-118-65-139-15-14-22-14-69 0-76 23-150 6-202-46-43-43-64-99-50-135 11-28 47-55 76-55 34 0 135 55 191 105l53 46 58-35c77-47 169-71 208-55l29 12-30 7c-50 12-130 47-184 80l-50 31 28 39c36 50 75 145 67 165-6 18-37 20-53 4zm-124-214c19-20-171-144-202-132-40 15-4 101 54 131 25 12 49 15 88 12 29-3 56-8 60-11z"/><path d="m4994 3907c-71-41-148-146-169-230-22-87 105-120 239-64 36 15 51 18 54 9 15-45 87-67 195-58 126 11 208 63 223 142 12 65-50 106-162 106-87-1-158-27-176-66-6-14-19-26-28-26-10 0-44-16-76-35-81-49-153-66-198-49-42 16 7 129 82 193 68 56 105 53 114-9 4-30 44-41 54-15 10 24-27 96-54 106-32 12-73 11-98-4zm470-160c23-15 24-20 14-48-6-17-27-42-50-57-34-22-54-27-127-30-95-5-131 6-131 38 0 23 18 35 46 32 16-2 23 4 27 26 6 28 26 42 82 56 37 9 114-1 139-17z"/><path d="m5721 3861c-57-20-98-46-115-75-16-25 22-53 82-61 80-11 145-29 149-42 2-6-12-23-32-38-27-22-48-28-91-30-56-2-77-15-67-42 11-29 135-7 195 35 21 15 41 37 44 50 9 31-3 69-23 77-35 14-128 34-160 35-47 0-41 14 16 39 52 22 97 27 120 12 20-13 41-2 41 20 0 12-11 21-37 28-50 14-59 14-122-8z"/><path d="m2314 2974c-35-52-54-397-65-1154-9-700-9-587-1-801 7-172 8-176 35-212 32-42 59-58 140-81 151-44 377-55 1312-67 1155-15 1388-15 1640-1 127 7 349 17 495 22s310 14 365 20c105 12 1082 32 1465 31 124 0 533-3 910-7 739-6 776-4 879 45 51 24 65 36 132 110 28 31 31 32 43 16 9-12 19-16 31-11 17 6 18 22 10 284-8 259-8 397-4 1082 3 353-11 431-101 563-16 25-30 47-30 50 0 2 10 7 22 11 43 11-3 35-99 52-74 12-142 14-355 10-145-3-504-10-798-15-294-6-593-15-665-21-275-21-613-23-1180-4-552 19-1054 21-3050 11-524-2-1095 12-1095 27 0 6 4 18 10 26 5 9 5 19-2 27-15 19-26 16-44-13zm306-100c146-5 594-7 995-4 1290 8 2060 5 2490-9 708-23 1284-25 1540-5 126 9 439 20 730 26 281 5 623 11 760 14 278 6 407-6 378-35-13-13-13-16 4-30 44-36 94-129 111-202 18-79 21-319 13-889-2-146-1-382 3-525l7-260-30-13c-16-7-45-35-64-61-37-51-94-85-177-105-42-10-710-12-1655-6-377 3-1389-17-1550-30-71-6-245-15-385-20s-349-15-465-21c-252-14-446-14-1495-1-962 12-1208 25-1393 74-64 17-83 27-103 54l-25 32v769c1 422 6 845 11 938 19 305 22 338 29 328 3-6 114-14 271-19z"/><path d="m6142 2648c-32-32 13-64 73-52 34 6 152-25 218-58 72-36 32-78-121-131-57-19-73-40-51-62 18-18 242-57 305-53l49 3-35 18c-19 10-80 26-135 36-68 12-94 21-80 25 88 32 139 63 152 94 28 67-15 105-170 152-116 34-189 44-205 28z"/><path d="m5026 2598c-3-13-9-45-15-73-43-227-81-370-109-413-11-18-12-25-2-37 18-22 30-19 61 18 26 29 28 30 29 10 0-14 10-24 31-32 44-15 429-15 466 0l28 12-25 7c-14 5-83 8-155 9-71 1-167 4-213 8l-83 6 23 24c22 24 188 111 276 146 39 15 54 38 34 51-12 7-94-16-172-48-73-30-72-29-154-76-50-28-58-30-52-14 15 38 85 379 86 417 0 4-11 7-25 7-18 0-26-6-29-22z"/><path d="m5875 2348c-11-6-48-38-82-71l-63-61-31 29c-17 17-38 45-45 63-15 34-34 41-53 18-15-18 4-59 44-96 52-48 51-55-7-119-76-82-97-161-42-161 20 0 24 5 24 28 0 30 38 89 83 131l26 24 52-38c70-50 146-85 187-85 50 0 39 25-23 50-58 23-175 97-175 110 0 19 127 140 147 140 24 0 36 23 20 39-14 14-36 14-62-1z"/><path d="m8998 2315c-3-3-3-35 0-71 10-128-66-295-185-405l-61-56-63 10c-74 12-243-4-288-28-64-33-91-104-53-138 42-38 234-1 359 69l63 35 66-27c118-47 244-71 244-46 0 5-17 14-37 20-21 6-81 29-134 49l-97 39 73 75c82 86 124 163 156 286 27 104 15 193-26 193-6 0-14-2-17-5zm-308-570c0-18-171-77-257-89-46-7-59 3-43 34 13 25 40 39 93 50 46 9 207 13 207 5z"/><path d="m8137 2270c-44-8-66-25-51-40 6-6 38-6 88-1 81 9 127 2 156-25 12-12 7-21-40-67-30-29-81-67-112-85-31-17-62-42-69-54-10-18-8-24 11-40 44-35 309-18 405 27 61 29 49 30-120 11-66-7-144-10-174-7l-55 6 60 37c70 43 140 115 150 153 17 70-107 113-249 85z"/><path d="m6106 2165c-11-8-31-15-45-15s-32-4-40-9c-18-11-7-41 15-41 12 0 15-6 10-24-8-31 11-84 35-96 10-6 45-13 78-16 77-9 141 19 166 72 32 68-3 104-112 119-29 4-55 11-59 16-8 13-26 11-48-6zm148-65c62-23 7-90-75-90-63 0-79 7-79 37 0 49 16 63 75 63 29 0 65-4 79-10z"/><path d="m2780 2125c-7-8-15-35-18-60-4-37-2-45 12-45 21 0 22-78 1-106-20-26-19-83 1-91 26-10 48 11 55 51 3 21 15 49 25 64 29 40 122 83 193 89 57 5 61 4 69-17 13-35-2-95-32-130-34-41-35-70-1-70 14 0 25 4 25 9 0 4 22 30 49 57 54 54 188 127 224 122 34-5 48-58 41-161l-6-89 28 4c28 3 28 3 32 96 4 103-7 148-43 182-32 30-79 24-174-24-40-20-74-36-77-36-2 0-4 9-4 20 0 42-28 79-65 86-48 9-158-12-216-42l-49-24-1 37c-2 59-13 88-35 91-12 2-27-4-34-13z"/><path d="m7025 2078c-88-45-132-111-142-211-5-62-5-63 30-94 61-53 187-57 292-9 38 17 57 21 70 14 34-19 176-22 244-4 80 21 114 45 142 103 20 42 21 49 8 72-8 13-37 36-64 50-40 21-63 26-125 26-153-1-304-87-249-142 22-22-2-55-58-80-46-21-66-25-129-21-97 5-117 22-108 91 9 64 53 131 103 157 56 28 94 26 111-5 14-26 45-34 53-12 6 17-20 65-42 77-31 16-93 11-136-12zm538-111c18-8 38-22 46-31 13-15 12-22-3-51-26-48-75-69-174-73-125-6-154 6-113 47 19 19 19 19-10 31-49 21-32 42 58 70 69 23 152 25 196 7z"/><path d="m4130 2070c-30-5-108-8-172-9-111-1-118-2-118-21s7-20 113-20c205 0 357 11 357 27 0 30-66 38-180 23z"/><path d="m7765 2062c-44-28-57-47-53-84 3-32 31-58 168-150 21-13 23-19 14-35-12-20-139-71-193-77-38-4-55-24-39-43 14-17 57-9 163 29 80 29 109 48 126 80s-9 65-100 128c-50 34-91 68-91 76 0 21 49 48 99 54 32 3 46 10 46 20 0 24-102 25-140 2z"/><path d="m3840 1840c0-20 4-20 193-18 163 3 192 5 192 18s-29 15-192 18c-189 2-193 2-193-18z"/><path d="m4745 1809c-4-6-3-15 2-20s295-8 714-7c618 3 704 5 704 18s-86 15-707 18c-503 1-709-1-713-9z"/><path d="m5985 1656c-5-2-22-7-37-10-19-4-28-13-28-26 0-19 5-20 68-14 46 4 76 3 91-5 31-17 16-32-66-66-38-15-75-34-83-42-13-13-12-17 9-34s40-19 185-19c144 0 164 2 191 20l30 20h-121c-67 0-136 3-153 6l-32 7 38 17c75 34 93 84 43 122-23 17-112 33-135 24z"/><path d="m5763 1597c-28-15-105-114-162-208-25-40-46-68-48-63-66 187-92 249-107 252-9 2-19-4-22-12-8-20 71-254 93-278 38-43 81-12 153 109 44 74 116 160 141 168 10 4 19 15 19 26 0 22-32 25-67 6z"/><path d="m5007 1550c-48-9-87-30-87-46 0-23 19-26 63-10 59 21 180 28 203 12 16-12 16-14-3-33-11-11-70-41-131-68-112-48-134-67-110-92 11-10 49-11 203-3 184 11 255 22 255 41 0 11 5 11-175 10l-150-1 74 38c100 52 126 101 75 141-22 17-40 21-103 20-42-1-93-5-114-9z"/></g><g fill="#44b" transform="matrix(.054411653 0 0 -.054411653 1775.95901853537 1538.56650791264)"><path d="m750 2973c-57-10-88-25-119-57-40-41-55-100-46-179 6-45 12-61 32-77 32-25 35-25 64-1 22 17 24 26 21 89-4 105 24 120 164 87 33-7 119-19 190-25 88-8 134-16 144-26 32-32 8-420-28-456-18-18-126-28-289-28-185 0-206-4-250-52-55-58-58-82-55-363 1-145 7-274 13-293 11-34 51-62 89-62 12 0 35 14 52 31l31 30-6 238c-3 130-3 249 0 264l5 27h112c234 1 363 26 423 82 58 54 98 260 91 463-4 122-7 138-34 191-40 81-79 100-217 108-174 10-361 14-387 9z"/><path d="m3660 2971c-42-9-83-34-103-65-39-59-50-127-54-343-5-206-5-212 18-252 28-50 78-86 143-102 48-12 257-8 370 7l49 7-7-104c-4-57-11-189-16-294-9-177-9-192 8-214 35-47 100-46 136 2 22 29 27 86 42 452 7 191 0 235-44 283-45 48-92 56-241 38-146-18-229-20-265-6l-26 10v162c0 156 8 230 27 249 5 5 99 6 210 2l201-6 5-50c3-39 11-56 31-74 34-29 48-29 80 0 24 20 26 30 28 113 4 147-23 169-218 179-242 11-340 13-374 6z"/><path d="m1565 2945c-14-13-25-32-25-42s-1-297-3-638c-2-677-3-662 55-694 33-19 73-7 101 31 18 24 20 51 29 300 5 150 10 278 12 283 2 6 37 8 97 3 52-3 135-7 186-7 154-2 161-10 143-176-21-189-27-310-18-343 12-45 45-72 86-72 71 0 102 46 102 151 0 33 7 118 16 187 24 190 9 280-58 349-50 52-112 67-263 65-71-1-164-6-205-11-41-4-78-7-81-5-4 2-10 108-13 236-9 286-17 352-47 384-31 33-82 32-114-1z"/><path d="m2542 2944c-55-38-64-109-53-419 6-186 9-215 28-250 50-95 116-125 302-135 75-4 171-5 215-1l78 7-4-178c-2-97-7-181-11-184-4-4-42 1-85 11-104 26-285 27-363 3-106-33-149-107-99-170 26-34 68-41 132-21 74 23 202 20 308-7 182-47 274 5 301 168 12 77 27 831 19 994-7 152-20 181-86 186-88 7-103-51-104-401v-219l-201 4c-197 3-201 3-220 27-18 21-19 42-19 283v260l-29 29c-33 33-74 38-109 13z"/><path d="m2374 1391c-55-34-79-78-79-147 0-51 4-66 27-96 35-45 102-73 153-64 78 15 146 111 131 188-20 108-145 172-232 119z"/><path d="m1853 999c-39-11-66-56-61-101 6-59 69-64 76-6 4 30 34 38 145 38h67v-110c0-135-1-136-132-126-85 6-89 6-113-18-24-25-25-28-25-179 0-162 4-177 47-177 35 0 43 29 43 159v121h73c85 0 141 14 168 41 17 17 19 34 19 169 0 147-1 152-25 175-23 24-30 25-137 24-62 0-128-5-145-10z"/><path d="m2985 1000c-91-16-93-18-104-58-15-51-14-537 0-564 19-36 69-48 204-48 121 0 127 1 151 25l24 24-2 292-3 292-26 19c-31 23-161 33-244 18zm169-86c14-5 16-37 16-250v-245l-102 3-103 3v240 240l40 6c57 9 131 10 149 3z"/><path d="m2351 971c-24-24-29-73-37-372-6-232-6-237 15-258 23-23 29-25 51-11 12 7 16 40 20 150l5 141 35-23c19-13 59-55 88-93 30-39 78-96 108-128 47-51 56-57 74-47 29 16 25 42-15 92-19 24-62 78-95 121-61 77-61 77-33 77 15 0 46 9 69 19 56 26 67 57 62 179-6 156-27 172-220 172-93 0-111-3-127-19zm257-74c16-13 17-168 0-185-7-7-41-12-84-12-40 0-84-4-98-10l-26-10v120 119l98-6c53-3 103-10 110-16z"/></g></svg>