<svg height="1552.343238pt" preserveAspectRatio="xMidYMid meet" viewBox="0 0 1701.675575 1552.343238" width="1701.675575pt" xmlns="http://www.w3.org/2000/svg"><g transform="matrix(.1 0 0 -.1 -62 1593.499567)"><path d="m6135 15931c-55-10-100-35-129-73-59-79-44-117 91-225 138-111 148-143 60-184-83-37-132-18-131 51 1 39 0 41-25 38-24-3-26-7-25-50 0-57 21-84 76-99 55-14 140 11 185 56 62 62 40 112-97 219-64 49-102 87-106 103-14 53 46 108 128 119 53 7 85-6 98-42 11-27 32-31 49-10 9 10 9 20-1 41-21 46-94 70-173 56z"/><path d="m9236 15873c-75-61-97-108-72-159 23-49 97-126 173-180 81-58 81-77 4-116-30-16-68-28-85-28-41 1-116 35-116 53 0 17-19 26-37 20-19-7-16-47 5-66 9-8 40-25 67-37 57-25 110-21 185 11 67 30 90 56 90 101 0 35-5 42-57 81-32 23-86 71-120 106-77 78-82 106-27 157 50 48 73 59 80 39 10-25 43-18 50 10 8 34-11 55-50 55-23 0-48-13-90-47z"/><path d="m1085 15828c-5-15-29-104-45-166-11-44-22-52-86-66l-32-7 21 69c12 42 17 79 13 95-6 24-11 27-46 27-33 0-40-4-40-19 0-10 7-21 15-25 20-7 19-23-7-102l-22-66-63 6c-58 6-63 5-63-13 0-15 10-23 38-30 20-6 43-11 50-11 23 0 12-18-15-23-41-9-57-23-49-42 4-12 14-16 31-13 20 4 24 1 27-21 5-42 47-35 77 12 21 32 29 37 64 37 38 0 39-1 32-27-15-53-12-78 10-78 15 0 24 13 38 56 18 56 18 56 73 68 67 15 67 35 0 39-38 3-46 6-42 18 3 9 6 19 6 24 0 4 17 18 37 30 32 19 35 23 20 31-9 6-22 7-28 3-7-4-9 0-6 12 27 100 39 164 34 178-7 19-36 21-42 4zm-75-275c-1-21-20-31-68-35-60-6-57 9 6 28 46 15 62 16 62 7z"/><path d="m1607 15790c-38-12-57-29-57-51 0-23 27-25 54-4 55 42 76-9 30-71-33-43-26-64 21-64 45 0 105-25 105-43 0-8-8-21-18-30-22-20-106-58-147-67-33-6-48-46-21-56 20-8 174 61 208 93 54 52 22 126-61 139-39 6-40 7-26 27 20 28 19 101-1 121-17 17-43 19-87 6z"/><path d="m2276 15787c-28-20-18-61 17-65 20-2 27 1 27 13s7 15 28 13c23-3 27-8 30-40 3-30-3-44-32-76-20-22-36-46-36-54 0-14 39-38 63-38 20 0 102-45 102-55 0-18-117-55-165-52-39 2-45-1-45-18 0-35 52-40 140-14s125 51 125 83c0 20-36 66-52 66-3 0-27 9-53 21-47 21-47 21-27 42 36 40 43 63 33 107-14 61-35 80-91 80-25 0-54-6-64-13z"/><path d="m1897 15773c-20-19-5-33 36-33 32 0 51-7 77-28 32-27 33-30 21-60-7-16-48-60-92-96-89-75-106-108-69-138 30-24 151-26 174-2 29 28 19 37-34 30-49-7-100 0-100 13 0 4 31 33 70 65 76 64 110 109 110 148 0 31-32 73-70 93-29 15-111 21-123 8z"/><path d="m1474 15752c-37-24-89-215-82-302 2-37 6-45 23-45s21 9 27 65c9 84 25 152 50 217 23 61 16 88-18 65z"/><path d="m11666 15584c-3-9 0-28 8-42 8-15 42-85 76-155l62-128-36-72c-19-40-72-130-116-202-81-131-95-169-62-163 23 4 192 260 234 354l19 45 34-29c44-39 100-58 120-42 19 16 11 27-33 46-20 8-51 31-68 52l-32 37 30 79c16 44 41 101 55 127 27 50 25 69-7 69-22 0-64-76-94-168-10-28-21-50-25-48-4 3-34 62-66 131-42 89-63 125-76 125-9 0-20-7-23-16z"/><path d="m11320 15368c-18-29-53-83-77-119-65-100-89-168-64-183 17-11 36 5 69 57 18 29 45 67 61 85l28 33 7-53c20-146 27-234 41-473 15-266 20-805 8-952-6-82-6-83-33-83-31 0-43-19-34-56 5-19 13-24 36-24h30l-4-442c-1-244 1-609 6-813 8-364 4-496-25-710-16-116-16-130 1-130 22 0 43 51 52 125 16 132 37 401 32 423-2 12-7 365-11 785l-6 762h40c38 0 41 2 46 33 6 43 3 47-44 47-37 0-40 2-33 23 11 34 7 787-6 1002-6 105-18 254-26 333-8 78-14 166-14 195l1 52 16-30c28-53 105-155 123-165 23-12 60-13 60-1 0 5-7 14-15 21-28 24-106 141-148 223-54 104-70 109-117 35z"/><path d="m2005 15274c-22-2-119-8-215-14s-260-20-365-32c-209-23-419-28-652-14-149 8-153 8-153-11 0-18 10-21 103-29 171-15 555-10 707 9 187 24 362 35 745 48 289 10 353 9 515-6 273-25 566-39 815-39 189-1 220 1 220 14 0 12-18 15-90 17-162 4-698 34-790 44-86 10-757 21-840 13z"/><path d="m5830 15265c-10-12-10-18 0-30 14-17 13-138-17-1375-24-1024-21-1250 18-1645 6-55 13-255 17-444 7-321 6-344-10-352-10-5-18-14-18-20 0-5 8-12 18-16 9-3 30-15 45-26 26-18 40-19 225-12 108 4 312 7 452 6 140 0 422-1 625-2 204-1 485 4 625 10s361 15 490 20c129 6 291 15 360 22s184 12 255 11c200-2 568-17 590-24 11-4 36-9 56-12 33-4 36-2 32 17-4 20-3 21 10 5 26-33 51-19 80 42 13 28 17 79 21 255 2 121 10 299 16 395 14 197 19 1286 7 1423-7 83-6 87 13 87 13 0 20 7 20 20s-7 20-20 20c-21 0-21 1-16 668 3 367 8 721 11 788 5 102 4 123-9 134-50 41-53-7-62-952l-6-638h-279-279l-1 103c-1 56-1 120 0 142s1 327 1 678c0 420 3 637 10 637 16 0 11 32-7 46-27 20-52 17-58-9-5-19-2-420 8-907 1-69-1-251-6-404-7-247-10-281-25-293-16-12-16-14 2-28s18-21 6-197c-8-117-10-256-6-383 11-308 12-874 2-931-10-61-36-82-83-68-40 12-1021 7-1383-6-458-17-1009-18-1038-2-23 13-23 14-17 165 3 84 10 348 15 587 18 808 19 830 35 830 8 0 15 9 15 20s-6 20-14 20c-12 0-15 83-20 548-3 301-9 636-12 745-5 185-4 200 13 212 24 18 7 49-30 53-41 5-49-42-42-248 3-96 8-425 10-732l6-556-68-7c-37-3-179-8-314-11l-247-5 5 68c2 37 6 79 10 93 6 29 25 838 27 1185 1 215-1 244-17 268-20 31-29 33-47 12zm613-1665h38l-5-212c-4-117-11-411-16-653-6-242-13-498-16-569-3-72-3-140 0-152 4-16 20-27 55-39 44-14 95-15 433-11 211 3 518 10 683 17 334 12 1237 15 1329 4 38-5 62-3 69 4 6 6 21 11 34 11 40 0 47 72 44 485-6 844-5 974 3 1043l9 72h277 277l12-57c15-71 8-1293-9-1503-6-74-14-234-18-355-8-257-12-270-77-260-60 10-468 26-660 27-93 0-224-5-290-11-66-7-221-16-345-21s-342-15-485-21c-246-10-488-12-1215-8-173 0-387-2-476-6-226-9-204-52-209 405-2 201-8 417-14 480-33 357-39 619-26 1047l8 283 256 3c141 1 265 1 276 0 11-2 37-3 58-3z"/><path d="m9495 13470c-13-20 8-30 63-30 65 0 97 13 72 30-20 13-127 13-135 0z"/><path d="m6330 13461c-57-5-75-10-75-21 0-12 16-16 74-18 76-3 135 12 128 32-4 13-29 15-127 7z"/><path d="m9163 13449c-32-9-43-31-23-44 16-10 118 15 123 30 10 23-43 31-100 14z"/><path d="m5915 13370c-13-21 9-29 96-36 60-5 88-3 93 5 10 16-37 31-115 38-47 4-68 2-74-7z"/><path d="m9275 13370c-13-22 9-30 80-30 88 0 111 6 94 26-14 17-164 20-174 4z"/><path d="m9157 13213c-4-3-7-12-7-20 0-9 18-13 66-13 66 0 109 13 99 31-7 10-148 13-158 2z"/><path d="m9469 13094c-20-25 2-34 81-34 74 0 104 11 84 30-17 15-153 18-165 4z"/><path d="m6012 13043c3-15 17-18 87-21 50-2 97 2 114 9 46 19 13 29-101 29-93 0-103-2-100-17z"/><path d="m9130 12960c0-20 5-21 73-18 56 2 72 6 72 18s-16 16-72 18c-68 3-73 2-73-18z"/><path d="m6272 12903c2-14 15-19 55-21 58-3 106 14 82 29-8 5-42 9-77 9-55 0-63-2-60-17z"/><path d="m9510 12880c-64-12-102-28-97-43 9-27 193 9 184 36-5 15-30 17-87 7z"/><path d="m6055 12650c-14-22 11-30 96-30 95 0 153 16 114 31-30 11-203 11-210-1z"/><path d="m9355 12650c-14-22 13-31 86-28 58 2 74 6 74 18s-16 16-77 18c-49 2-79-1-83-8z"/><path d="m9143 12426c-34-15-43-33-20-41 13-6 155 20 164 29 23 23-98 33-144 12z"/><path d="m5995 12350c-13-22 12-31 76-28 49 2 64 7 64 18 0 12-15 16-67 18-41 2-69-1-73-8z"/><path d="m9355 12270c-14-23 11-30 103-30 101 0 141 11 112 30-20 13-207 13-215 0z"/><path d="m6111 12046c-72-11-101-29-66-42 19-8 174 13 194 26 33 20-40 29-128 16z"/><path d="m8977 11914c-16-16-5-33 29-44 39-13 120-8 136 8 10 10-4 13-132 38-14 3-29 2-33-2z"/><path d="m8614 11845c-4-9-1-22 5-28 17-17 163-22 191-7 32 17 12 26-75 33-38 4-80 9-92 13-16 4-25 1-29-11z"/><path d="m6872 11824c3-16 73-44 111-44 27 0 20 28-13 45-41 21-103 20-98-1z"/><path d="m7385 11830c-15-24 12-30 123-30 119 0 162 10 132 30-20 13-247 13-255 0z"/><path d="m9290 11801c0-18 6-21 41-21 41 0 79 14 79 29 0 4-27 9-60 10-55 2-60 0-60-18z"/><path d="m6570 11781c0-23 17-30 89-37 61-6 128 11 101 25-13 7-153 31-180 31-6 0-10-9-10-19z"/><path d="m8090 11780c0-16 7-20 33-20 17 0 56-3 85-6 43-6 52-4 52 9 0 20-51 37-116 37-47 0-54-2-54-20z"/><path d="m6185 11741c-49-10-39-36 13-34 54 2 114 22 107 34-7 10-73 10-120 0z"/><path d="m9465 11696c-16-11-17-17-8-27 10-10 23-9 63 2 28 8 52 19 53 24 3 17-86 18-108 1z"/><path d="m7855 11689c-13-20 25-39 81-39 93 0 74 30-28 45-32 5-48 3-53-6z"/><path d="m9088 11613c-25-10-38-22-38-34 0-24 20-24 85-3 92 31 105 36 99 45-8 14-105 9-146-8z"/><path d="m8395 11570c-3-5-3-14 0-20 9-14 163-11 205 4l35 13-49 6c-73 10-184 8-191-3z"/><path d="m7067 11563c-48-3-58-7-55-21s16-17 78-16c74 0 126 16 115 35-6 9-19 9-138 2z"/><path d="m7552 11543c2-12 23-20 72-30 72-15 120-11 114 9-6 16-91 38-146 38-35 0-43-3-40-17z"/><path d="m6633 11506c-4-5 3-15 13-23 33-25 154-3 154 28 0 11-160 7-167-5z"/><path d="m16066 15168c-14-161-22-1141-15-1938 0-74-2-233-6-352l-7-217-57-3c-42-2-56-7-56-18s14-16 58-18l58-3-5-187c-3-103-8-225-12-271l-6-83-66 7c-84 10-428 8-1142-4-500-9-744-18-1073-37-78-4-112-2-122 6-12 10-15 38-15 119 0 59 4 111 9 117 5 5 12 54 15 109s8 128 11 162l7 62 71 3c56 2 72 6 72 18s-16 16-72 18l-72 3-5 372c-18 1474-26 1935-35 2027-5 58-10 115-10 128-1 15-7 22-20 22-17 0-20-10-26-84-4-51-3-104 4-135 6-29 11-128 11-221 0-157-1-170-19-180-25-13-118-13-126 0-4 6-95 10-241 10h-235l3 305c3 283 2 305-14 305-42 0-43-11-43-745 0-385 4-728 9-762l9-62-44-3c-31-2-44-7-44-18 0-10 13-16 42-18l41-3 7-132c10-186 9-345-3-797-12-423-22-597-47-754-15-99-22-496-9-530 7-18 44-22 44-5 0 5 10 3 22-5 18-13 55-16 197-16h174l-7-182c-4-101-10-199-14-218l-8-35-44 57c-45 58-73 72-84 42-7-17 15-64 39-84 9-7 32-37 52-67 33-50 37-53 77-53 50 0 56 6 116 108 24 41 49 76 57 79 23 9 15 43-10 43-28 0-52-25-101-107-43-73-62-90-52-47 9 38 23 187 32 342l7 122h376c301 0 395 3 471 16 74 13 215 19 645 26 303 5 647 11 765 14 149 3 221 1 236-6 15-9 111-10 340-5 175 4 385 7 467 8 145 2 147 2 147 25 0 17-6 22-25 22h-26l6 223c20 860 41 3077 30 3350-6 177-9 197-25 197-15 0-18-16-23-142-4-79-7-436-7-795v-652l-42-3c-59-4-60-32-2-36l41-3 6-97c10-151 8-418-3-448-6-15-14-101-17-190l-6-163-96-6c-53-3-187-8-299-11l-203-5 6 213c8 318 8 419 0 571l-8 137h52c44 0 51 3 51 20s-7 20-50 20h-51l5 433c3 237 8 567 12 732 6 347 2 425-26 425-15 0-19-10-24-62zm-2807-650c-18-24-96-106-173-183l-141-140-3 174c-2 133 1 176 10 183 7 4 87 8 176 8h164zm126 32c3-5 44-10 91-10h84v-43c0-38-3-44-35-61-20-11-97-82-173-158-133-134-138-138-179-138-36 0-43-3-43-19 0-14 8-21 28-23 26-3 26-4-27-46-30-24-60-41-68-37-8 3-39 5-69 5h-54v53c0 52 0 52 95 140 91 85 97 88 157 98 35 5 71 12 81 15 29 9 1 32-43 36l-39 3 71 78c51 56 69 83 65 97-4 17 0 20 23 20 16 0 32-4 35-10zm175-294c0-137-1-144-19-139-14 4-27-6-48-34-15-21-50-66-78-100-45-55-54-62-87-62-31-1-38-5-38-20 0-11 7-21 16-23 12-2 7-13-21-45-35-41-39-43-94-43-81 0-161-25-161-50 0-24 11-25 90-4 33 8 66 14 72 12 7-3-17-28-53-58-86-71-169-161-169-182 0-33 33-18 85 37l52 54 84 3c67 2 84 6 84 18 0 11-14 16-55 18l-55 3 117 119c71 73 125 120 137 120 25 0 36 17 21 34-8 11-2 24 28 59 21 24 50 62 63 83l24 39 3-133 3-134-70-81c-38-45-125-137-193-204-111-110-127-122-163-125-28-2-41-8-43-20-3-14 3-18 23-18 26 0 26 0-17-52-56-67-88-113-88-127 0-27 39-6 76 42 23 28 108 121 189 205l147 152h68 67l6-42c4-24 9-57 13-74 5-27 3-32-18-37-13-4-39-25-57-47l-32-40h-89c-83 0-90-1-90-20 0-18 7-20 67-20h67l-39-40c-38-39-40-40-48-18-17 47-74 53-107 11-19-24-21-36-17-89 5-55 4-64-17-83-14-14-35-21-60-21-46 0-124-19-132-32-14-22 14-30 66-19 29 6 54 10 56 8s-32-35-75-73c-80-70-93-90-66-100 19-8 57 21 182 140 55 53 104 96 107 96s6-24 6-54c0-49-2-54-26-60-32-8-29-41 4-40 20 1 22-4 22-54 0-52-3-59-56-123-51-63-61-89-31-89 6 0 28 17 49 37l38 37-2-484-3-485-32-3c-25-2-33-8-33-23s7-19 35-19h35v-171-170l-164 3c-159 3-165 4-191 28l-26 24 5 221c2 121 9 258 16 305 25 190 32 352 52 1180 1 41-2 157-7 258l-8 182h31c25 0 32 4 32 19s-8 21-32 23l-33 3-9 95c-6 66-5 95 2 98 6 2 37 28 69 57 32 30 83 73 114 95 46 32 58 37 63 24 8-21 131-16 131 6 0 11-16 16-63 20l-62 5 80 86c66 71 86 87 117 93 21 3 56 11 78 17 37 10 38 12 20 25-10 8-30 14-44 14-24 1-21 6 37 60 34 33 65 60 67 60 3 0 5-65 5-144zm-530-279c0-2-20-23-45-47l-45-44v47 47h45c25 0 45-1 45-3zm527-334c-3-2-23-3-46-1l-41 3 43 53 42 52 3-51c2-28 1-53-1-56zm22-355v-133l-119-125c-120-125-120-125-120-90 0 28 6 38 30 52 40 23 39 42-1 36l-31-5 4 75 5 74 90 89c50 49 101 105 114 124s25 35 27 35c1 0 2-60 1-132zm1-313c0-83-3-115-12-115-7 0-24-11-38-25-26-25-26-25-94-11-37 8-70 17-73 20-3 2 24 35 59 73 35 37 83 92 107 121 24 28 46 52 48 52 1 0 3-52 3-115zm-4-365c-3-80-11-188-16-240-6-52-13-156-16-231-5-115-3-137 10-148 11-9 20-10 29-3 6 5 84 13 172 16 88 4 246 12 350 17 200 11 1155 29 1530 30 121 1 258-3 305-8 92-9 160 1 160 23 0 8-5 14-11 14-7 0-9 28-4 88 3 48 9 170 13 272l7 185 298 3 298 2-6-382c-3-211-8-474-11-585l-5-201-137-7c-75-4-257-7-404-6-617 2-830 1-1353-8-362-6-570-13-610-21-39-8-195-14-447-17l-388-4v175 175l40 11c47 13 44 30-6 30h-34v415 415h54c58 0 80 15 52 36-15 11-9 19 56 84 72 71 73 72 76 44 2-16 1-94-2-174zm-138 168c22-3 20-7-28-60-28-32-56-58-61-58s-9 31-9 69v69l38-8c20-5 47-10 60-12z"/><path d="m13017 14411c-45-9-51-15-43-36 5-13 15-15 53-9 64 9 98 23 87 34-15 14-56 19-97 11z"/><path d="m13067 13870c-43-8-63-23-52-40 8-13 85-6 144 12 32 10 33 12 16 24-20 15-48 16-108 4z"/><path d="m13432 13810c-41-9-46-15-38-36 5-13 14-15 43-9 21 4 46 11 57 17 19 10 19 11 1 24-10 8-21 14-24 13s-21-5-39-9z"/><path d="m12995 12649c-14-22 14-30 106-27 76 2 94 6 94 18s-19 16-97 18c-63 2-99-1-103-9z"/><path d="m13078 12523c-61-4-68-6-68-25 0-20 4-21 88-15 97 5 122 12 122 33 0 10-11 13-37 12-21-1-68-3-105-5z"/><path d="m13047 12194c-3-3-3-12 0-20 7-19 116-19 132-1 6 8 8 17 4 20-8 9-127 9-136 1z"/><path d="m16495 12470c-13-21 11-31 61-28 36 2 49 7 49 18 0 19-99 27-110 10z"/><path d="m13430 12360c0-16 7-20 34-20 19 0 42 3 50 6 29 11-3 34-45 34-32 0-39-3-39-20z"/><path d="m16195 12350c-13-21 11-31 66-28 40 2 54 7 54 18 0 19-109 28-120 10z"/><path d="m16418 12188c-27-9-37-31-19-42 10-7 159 18 168 28 24 23-94 35-149 14z"/><path d="m16255 11950c-13-20 8-30 63-30 65 0 97 13 72 30-20 13-127 13-135 0z"/><path d="m15350 11922c0-15 12-21 67-29 75-11 103-7 103 12 0 15-80 35-135 35-27 0-35-4-35-18z"/><path d="m14997 11893c-17-17-3-33 41-47 47-16 88-13 76 5-6 10-87 49-102 49-5 0-12-3-15-7z"/><path d="m15695 11870c-13-21 9-30 74-30 46 0 72 5 80 14 9 11 8 15-5 20-26 10-142 7-149-4z"/><path d="m13842 11840c-48-20-18-35 73-38 85-3 121 7 100 27-15 13-147 21-173 11z"/><path d="m14435 11830c-13-21 11-31 61-28 36 2 49 7 49 18 0 19-99 27-110 10z"/><path d="m16045 11810c-14-22 10-30 88-30 84 0 115 9 103 29-9 14-182 15-191 1z"/><path d="m16475 11755c-5-2-22-6-37-9-20-5-28-13-28-27 0-19 4-20 53-14 28 3 67 11 86 17 32 10 33 12 16 24-17 13-65 17-90 9z"/><path d="m15250 11680c0-21 3-22 79-19 44 2 83 7 87 12 15 15-10 22-87 26-76 3-79 2-79-19z"/><path d="m13952 11663c3-15 16-18 78-21 79-2 118 9 90 28-8 5-50 10-93 10-69 0-78-2-75-17z"/><path d="m15730 11660c0-17 7-20 53-20 61 0 91 14 67 30-8 5-39 10-67 10-46 0-53-3-53-20z"/><path d="m14743 11574c-35-17-43-41-18-50 17-7 97 35 103 54 5 17-46 15-85-4z"/><path d="m13540 11545c0-20 8-22 108-30 68-5 82-4 82 8 0 22-53 37-126 37-51 0-64-3-64-15z"/><path d="m3712 15063c-12-31-7-1255 7-1653 7-206 16-594 20-862 4-305 10-491 16-497s16-7 25-1c13 8 15 68 13 442-1 238-7 541-13 673s-14 616-17 1075c-5 813-5 835-24 838-11 2-22-4-27-15z"/><path d="m2015 14710c-31-13-81-71-94-109-6-19-11-59-11-90 0-72 28-108 145-185 84-55 125-101 138-157 8-32-18-59-85-89-58-25-190-40-170-19 19 21 14 39-11 39-45 0-65-53-30-81 24-21 137-15 208 10 67 23 99 45 128 83 45 60-14 164-143 250-98 66-130 101-130 143 1 100 47 165 117 165 47 0 63-17 63-67 0-16 6-37 13-48 34-46 62 46 31 103-28 53-109 77-169 52z"/><path d="m13812 14517c-45-46-62-70-62-90 0-21 5-27 21-27 26 0 85 35 99 58 6 11 9-100 10-331 0-341 0-348-19-337-11 5-23 15-26 20-10 16-42 12-49-7-5-11 7-30 36-60 37-38 48-43 85-43 24 0 54 7 68 16 37 24 105 120 105 149 0 41-25 29-72-34-24-33-49-62-55-65-10-4-13 75-13 379 0 223 4 385 9 385s28-16 51-35 48-35 56-35c25 0 15 35-18 67-45 42-70 53-120 53-40 0-48-5-106-63z"/><path d="m3048 14466c-93-25-166-93-201-188-27-73-58-246-67-371-9-132-37-209-75-215-24-3-55 51-55 93 0 19-5 25-21 25-20 0-21-4-17-51 9-92 79-145 136-102 50 38 72 98 82 229 12 144 34 269 42 237 3-12 21-31 39-43 28-17 43-20 83-15 145 18 256 131 256 260 0 135-63 179-202 141zm119-44c37-23 42-116 11-179-50-99-195-166-248-113-11 11-29 20-40 20-19 0-20 4-14 38 15 87 72 180 127 209 60 31 137 43 164 25z"/><path d="m1035 14450c-3-5-12-60-20-122s-21-130-29-150c-20-48-20-87-1-95 23-8 55 26 55 59 0 48 107 194 127 174 5-4 10-45 12-91 3-82 16-115 40-101 5 4 21 31 34 61 28 59 123 165 150 165 37 0 48-91 22-176-21-70-20-86 8-82 34 5 58 83 54 181-2 73-4 81-31 104-22 19-35 23-60 17-48-10-88-38-126-89l-35-47-8 40c-8 42-39 82-62 82-8 0-33-16-55-36-44-40-44-40-30 37 9 47 8 56-7 66-20 16-30 16-38 3z"/><path d="m14396 14362c-9-11-26-47-37-80-11-34-23-62-25-62s-13 32-25 70c-16 53-25 70-39 70-30 0-31-28-5-103 14-40 28-79 31-87s-11-41-31-74c-40-67-43-86-15-86 18 0 71 60 83 93 3 8 13 4 30-12 17-15 39-24 64-25 32-1 38 2 41 22 3 19-1 22-27 22-35 0-76 44-65 69 4 9 18 45 31 81 14 36 31 73 40 82 8 9 12 22 8 27-10 17-40 13-59-7z"/><path d="m11094 14116c-17-8-44-31-60-52-15-22-33-43-39-49-32-28-46-67-52-143-7-92 4-118 60-152 51-31 79-26 125 24 62 68 94 139 100 222 5 82-11 125-58 149-35 18-36 18-76 1zm66-63c19-25 21-36 15-88-7-65-50-158-91-196-23-22-27-23-52-8-25 14-27 19-30 96l-3 82 50 52c28 29 48 56 45 60-4 7 23 28 38 29 4 0 16-12 28-27z"/><path d="m1647 14003c-4-3-7-16-7-27 0-33-46-151-74-193-22-32-24-39-11-41 28-6 62 26 88 80 31 66 52 150 44 172-6 16-28 21-40 9z"/><path d="m2405 13968c-2-7-11-41-20-75-8-34-24-83-35-108-27-64-27-78 4-64 40 19 109 201 92 244-7 18-35 20-41 3z"/><path d="m6685 13630c-13-22 12-31 76-28 49 2 64 7 64 18 0 12-15 16-67 18-41 2-69-1-73-8z"/><path d="m6965 13630c-14-23 11-30 101-30 87 0 94 1 94 20s-7 20-94 20c-53 0-98-4-101-10z"/><path d="m7260 13620c0-20 5-21 78-18 60 2 77 6 77 18s-17 16-77 18c-73 3-78 2-78-18z"/><path d="m7545 13629c-14-22 14-30 106-27 76 2 94 6 94 18s-19 16-97 18c-63 2-99-1-103-9z"/><path d="m7845 13630c-14-22 13-31 86-28 58 2 74 6 74 18s-16 16-77 18c-49 2-79-1-83-8z"/><path d="m8130 13620c0-20 5-21 103-18 83 2 102 6 102 18s-19 16-102 18c-98 3-103 2-103-18z"/><path d="m8430 13620c0-18 7-20 80-20s80 2 80 20-7 20-80 20-80-2-80-20z"/><path d="m8715 13630c-14-23 11-30 106-30 92 0 99 1 99 20s-7 20-99 20c-56 0-103-4-106-10z"/><path d="m9890 13620c0-19 7-20 100-20s100 1 100 20-7 20-100 20-100-1-100-20z"/><path d="m10185 13630c-14-22 13-31 86-28 58 2 74 6 74 18s-16 16-77 18c-49 2-79-1-83-8z"/><path d="m10475 13629c-14-22 14-30 106-27 76 2 94 6 94 18s-19 16-97 18c-63 2-99-1-103-9z"/><path d="m10770 13620c0-18 7-20 80-20s80 2 80 20-7 20-80 20-80-2-80-20z"/><path d="m11060 13620c0-19 7-20 100-20s100 1 100 20-7 20-100 20-100-1-100-20z"/><path d="m11645 13629c-14-22 14-30 106-27 76 2 94 6 94 18s-19 16-97 18c-63 2-99-1-103-9z"/><path d="m11940 13620c0-20 5-21 83-18 65 2 82 6 82 18s-17 16-82 18c-78 3-83 2-83-18z"/><path d="m12230 13620c0-20 5-21 103-18 83 2 102 6 102 18s-19 16-102 18c-98 3-103 2-103-18z"/><path d="m12525 13630c-14-22 10-30 86-30 72 0 79 2 79 20s-7 20-79 20c-44 0-83-4-86-10z"/><path d="m13700 13620c0-18 7-20 80-20s80 2 80 20-7 20-80 20-80-2-80-20z"/><path d="m13985 13630c-14-23 11-30 106-30 92 0 99 1 99 20s-7 20-99 20c-56 0-103-4-106-10z"/><path d="m14285 13630c-14-22 13-31 86-28 58 2 74 6 74 18s-16 16-77 18c-49 2-79-1-83-8z"/><path d="m14570 13620c0-20 5-21 103-18 83 2 102 6 102 18s-19 16-102 18c-98 3-103 2-103-18z"/><path d="m14870 13620c0-18 7-20 80-20s80 2 80 20-7 20-80 20-80-2-80-20z"/><path d="m15155 13630c-14-23 11-30 106-30 92 0 99 1 99 20s-7 20-99 20c-56 0-103-4-106-10z"/><path d="m15455 13630c-14-22 13-31 86-28 58 2 74 6 74 18s-16 16-77 18c-49 2-79-1-83-8z"/><path d="m15745 13629c-14-22 14-30 106-27 76 2 94 6 94 18s-19 16-97 18c-63 2-99-1-103-9z"/><path d="m16330 13620c0-20 5-21 98-18 78 2 97 6 97 18s-19 16-97 18c-93 3-98 2-98-18z"/><path d="m16925 13630c-14-23 13-31 96-28 67 2 84 6 84 18s-18 16-87 18c-56 2-89-1-93-8z"/><path d="m17235 13630c-13-21 11-31 66-28 40 2 54 7 54 18 0 19-109 28-120 10z"/><path d="m17515 13630c-13-21 11-31 66-28 40 2 54 7 54 18 0 19-109 28-120 10z"/><path d="m17119 13550c-30-17-81-107-74-130 10-30 39-24 58 13 15 30 16 13 16-301 1-326 1-332-18-322-11 5-36 10-55 10-29 0-36-4-36-20 0-11 5-20 10-20 6 0 30-18 54-40 61-56 104-56 158 1 25 27 38 49 36 62-5 34-34 32-54-2-10-17-22-31-26-31s-8 160-8 356v356l29-31c52-56 72-32 33 42-33 64-77 84-123 57z"/><path d="m17553 13336c-10-13-27-42-37-65l-19-41-25 22c-13 13-28 33-33 46-9 23-48 31-50 10-3-30 5-46 47-89l45-46-25-68c-29-75-32-105-13-105 20 0 41 29 61 83l18 48 39-36c42-37 66-44 75-20 4 9-13 32-46 63l-53 48 28 62c15 34 33 67 41 73 7 6 10 17 7 25-8 22-39 17-60-10z"/><path d="m3237 13314c-9-9-653-28-957-29-129 0-401 2-605 5-203 2-467 4-585 3-118 0-235 0-260 1-34 1-45-3-45-14s24-18 95-28c74-11 161-12 400-5 168 4 368 4 445 0 258-16 1374 5 1670 31 61 5 80 10 80 22s-21 16-116 18c-63 1-118 0-122-4z"/><path d="m2788 12949c-67-19-116-88-91-128 16-25 38-19 41 10 2 15 14 37 28 50 22 20 36 24 93 24 60 0 71-3 116-36 39-27 51-42 53-66 3-28-6-40-77-108-44-43-90-96-101-119-23-49-26-124-6-152 14-18 15-18 25 9 6 16 11 40 11 54 0 49 41 112 116 180 78 71 100 107 90 147-23 92-187 165-298 135z"/><path d="m1415 12689c-4-6-3-15 2-20s150-8 349-7c293 3 339 5 339 18s-46 15-342 18c-240 1-344-1-348-9z"/><path d="m12445 12650c-14-22 13-31 86-28 58 2 74 6 74 18s-16 16-77 18c-49 2-79-1-83-8z"/><path d="m12715 12650c-14-22 12-31 81-28 53 2 69 6 69 18s-16 16-72 18c-45 2-74-1-78-8z"/><path d="m13875 12650c-14-22 10-30 86-30 72 0 79 2 79 20s-7 20-79 20c-44 0-83-4-86-10z"/><path d="m14165 12650c-14-23 11-30 106-30 92 0 99 1 99 20s-7 20-99 20c-56 0-103-4-106-10z"/><path d="m14465 12650c-14-22 13-31 86-28 58 2 74 6 74 18s-16 16-77 18c-49 2-79-1-83-8z"/><path d="m14750 12640c0-20 5-21 103-18 83 2 102 6 102 18s-19 16-102 18c-98 3-103 2-103-18z"/><path d="m15050 12640c0-18 7-20 80-20s80 2 80 20-7 20-80 20-80-2-80-20z"/><path d="m15335 12650c-14-23 11-30 106-30 92 0 99 1 99 20s-7 20-99 20c-56 0-103-4-106-10z"/><path d="m15635 12650c-14-22 13-31 86-28 58 2 74 6 74 18s-16 16-77 18c-49 2-79-1-83-8z"/><path d="m1672 12608c-5-7-12-78-15-158-3-88-12-170-22-209-18-70-11-96 23-75 38 25 83 401 52 439-15 18-24 19-38 3z"/><path d="m2465 12560c-16-5-55-13-85-20-86-18-90-20-90-41 0-24 13-24 125 1 129 28 161 38 175 55 11 13 5 15-41 14-30-1-67-5-84-9z"/><path d="m2914 12176c-9-25 3-45 31-52 57-14 77 25 23 47-18 7-36 14-40 17-5 2-11-3-14-12z"/><path d="m3702 12037c-6-7-31-65-56-128-75-194-79-203-103-237-28-38-183-120-253-134-61-12-261-30-340-31-182 0-864 25-995 38-279 27-516 38-665 30-80-4-206-10-280-14-111-5-135-9-135-21 0-13 42-15 330-12 244 3 386-1 545-13 118-9 219-19 224-22 5-4 190-10 410-15 221-5 442-11 491-14 86-6 232 4 395 27 84 12 256 87 301 132 36 37 186 397 174 417-9 14-31 12-43-3z"/><path d="m13747 11113c-54-89-157-320-157-350 0-23 25-24 74-3 40 17 69 20 181 20 73 0 140 3 149 6 27 10 18 39-22 71-37 30-136 168-164 228-13 29-50 46-61 28zm107-200 65-93h-114c-63 0-115 2-115 4 0 19 90 190 96 183 1-1 32-44 68-94z"/><path d="m14162 11043c-5-21-14-60-19-88-6-27-18-71-28-96-22-55-15-99 16-99 11 0 21 6 23 13 30 111 38 126 86 171 28 26 56 46 63 43 17-5 21-74 6-109-10-24-9-32 3-44 17-17 48-9 48 13 0 34 96 123 134 123 3 0 6-29 6-64 0-54 4-70 24-93 21-24 31-28 82-27 47 0 78 8 153 42 52 23 96 41 98 38 2-2 6-19 9-37 5-32 2-36-48-69-126-84-175-151-163-226 11-78 71-126 157-126 60 0 111 35 129 89 10 32 9 116-4 252-2 22 11 32 115 87 146 77 168 91 168 109 0 27-36 16-162-50-69-36-128-65-131-65-4 0-7 32-7 70 0 62-3 74-25 95-20 21-34 25-79 25-54 0-57-1-82-40-27-40-27-86-1-102 18-11-65-41-118-42l-50-1-10 79c-12 97-30 116-92 96-21-7-50-21-65-32-28-19-28-19-28 1 0 28-34 61-64 61-13 0-40-11-60-25-44-30-50-31-35-7 17 27 3 72-21 72-14 0-22-10-28-37zm679-73c23 0 24-17 2-42-20-22-73-25-73-3 0 25 24 56 38 50 8-3 22-5 33-5zm54-336c9-93-6-149-46-170-61-31-139 15-139 81 0 55 24 91 98 145 77 57 76 57 87-56z"/><path d="m2193 10760c-56-33-66-60-60-148 3-42 11-111 17-152 8-48 10-150 7-280-3-177-8-221-31-325-30-130-70-235-112-296-21-31-33-39-58-39-63 0-104-41-76-75 16-19 47-19 84 0 37 20 49 10 76-62 36-97 46-286 26-519-28-337-22-383 52-403 50-14 76-14 116 3 54 23 56 39 5 33-24-2-63 0-86 5-38 9-43 14-49 45-4 20-1 99 6 177 19 214 23 434 11 533-13 99-44 193-72 219-18 16-18 18 11 58 44 62 85 168 116 301 25 110 28 141 32 366 3 199 1 261-12 324-33 158-15 205 78 205 42 0 52-5 95-45 51-48 81-57 81-26 0 23-70 88-116 107-47 20-103 17-141-6z"/><path d="m6341 10563c-6-21-11-42-11-47 0-4-25-71-56-148-51-125-55-141-42-155 11-11 21-12 34-5 11 5 53 12 94 16s123 11 181 16c127 12 179 30 179 63 0 30-29 56-109 98-72 38-159 113-191 165-31 49-65 47-79-3zm149-145c25-19 73-50 108-68 41-22 59-37 53-43s-50-14-98-18-115-10-148-14c-90-9-93-3-51 99 20 47 36 99 36 114l1 27 27-31c15-17 47-47 72-66z"/><path d="m2992 10568c-5-7-12-53-14-103-3-67-9-100-25-130-61-113-73-146-63-165 23-43 47-20 95 92 35 82 174 208 229 208 26 0 29-44 7-87-15-30-17-43-8-52 18-18 30-13 61 25 57 72 200 140 278 132 32-3 33-4 32-48 0-31-8-57-27-85-57-85-57-135 0-135 22 0 24 3 19 24-4 18 5 47 34 101 49 93 51 126 10 167-30 29-33 30-92 24-75-9-139-30-191-63-21-13-40-23-41-21s-7 15-14 30c-22 52-99 45-191-17l-51-34v63c0 73-21 106-48 74z"/><path d="m4074 10556c-52-24-126-91-148-136-8-14-19-49-26-78-11-46-10-55 6-80 24-36 42-49 82-56 68-11 191 61 241 140l29 47 3-96c4-84 7-99 27-120 27-29 54-38 73-26 11 6 8 14-12 36-24 26-27 39-38 171-7 85-17 155-26 172-27 53-127 65-211 26zm164-53c5-31-62-156-100-188-35-29-109-65-136-65-23 0-52 30-52 54 0 47 24 101 63 143 58 63 100 83 167 80 48-2 55-5 58-24z"/><path d="m7719 10541c-32-25-52-69-47-107 4-39 40-56 101-50 35 4 47 2 44-7-16-50-328-110-405-78-28 12-29 15-36 96-7 98-11 112-37 120-37 12-135-34-202-94-24-22-29-23-37-11-5 8-10 27-10 41 0 44-22 63-64 56-21-3-36-2-36 4s-10 9-21 7c-15-2-34-27-66-88-89-167-115-260-73-260 24 0 40 25 76 120 19 51 42 90 72 122 25 27 49 48 53 48 14 0 10-81-6-125-8-22-15-46-15-52 0-22 35-14 61 13 58 62 215 174 245 174 2 0 4-31 4-69 0-87 11-115 52-138 67-36 302-14 431 42 16 7 17-2 17-116l-1-124-90-45c-159-78-209-143-175-224 29-69 134-87 233-42 70 33 86 65 91 186l4 95 72 26c39 15 123 43 187 63 71 22 124 45 135 58 19 21 19 21-36 15-44-5-260-69-342-102-17-7-18 3-18 128 0 105 3 137 14 147 28 23 38 75 22 113-17 42-58 66-124 74-38 4-52 1-73-16zm108-42c28-11 43-26 43-45 0-11-137-30-147-21-2 3 3 21 11 41 16 39 39 46 93 25zm-7-558c0-95-12-124-62-147-82-37-158-14-158 47 0 15 10 39 23 53 19 23 170 114 190 115 4 1 7-30 7-68z"/><path d="m4927 10433c-4-3-7-12-7-20 0-10 34-13 163-13 90 0 167 3 170 7 4 3 2 12-4 20-9 10-49 13-164 13-83 0-155-3-158-7z"/><path d="m5610 10400c0-19 7-20 204-20 194 0 274 9 260 31-3 5-108 9-235 9-222 0-229-1-229-20z"/><path d="m5080 10290c-82-13-110-26-110-51 0-18 4-20 28-16 68 13 162 28 212 32 59 6 90 19 77 32-12 11-142 13-207 3z"/><path d="m4689 10187c-8-6-27-29-41-51l-27-39-18 39c-10 22-25 39-33 39-24 0-24-46 0-90l22-41-56-86c-61-94-69-121-34-116 15 2 39 27 71 77l49 73 31-30c39-37 79-49 96-29 13 16 10 19-33 42-11 5-28 23-40 38-21 28-21 28 4 74 14 26 37 54 52 62 16 9 27 23 26 31-4 19-48 24-69 7z"/><path d="m6320 9561c-76-41-110-100-110-191 0-47 1-48 186-215 36-33 70-71 75-84 13-31-11-68-56-87-41-17-128-18-158-3-39 21-67 52-62 70 7 21-20 32-46 19-29-16-23-42 19-82 56-53 79-62 162-62 91 0 144 22 178 74 39 58 27 91-67 180-43 41-96 88-116 104-62 50-70 68-56 131 15 66 65 115 118 115 31 0 33-2 33-34 0-18 7-39 15-46 39-32 63 56 27 100-25 31-95 37-142 11z"/><path d="m5401 9400c-73-27-90-39-137-101-68-90-91-174-124-455-19-160-43-249-82-306-11-16-23-28-28-28s-19 19-31 42c-19 37-20 48-11 88 11 48 5 64-24 58-36-6-45-108-15-167 25-48 41-61 84-68 32-5 37-2 64 38 45 65 81 184 93 307 21 204 55 372 88 422 62 98 164 158 227 134 33-13 79-140 70-193-10-59-28-74-96-82-73-8-125 4-132 31-6 25-64 28-73 5-16-40 72-84 166-85 142 0 185 37 184 155 0 75-32 163-70 196-32 28-92 31-153 9z"/><path d="m3017 9288c-58-84-126-199-144-247s-14-63 28-88c25-15 35-14 175 20 82 20 176 38 209 42 92 9 105 14 105 33 0 25-32 52-111 96-68 37-141 107-171 164-24 46-48 41-91-20zm78-59c26-39 85-87 160-129l60-35-80-11c-44-6-98-17-120-23-52-14-55-14-49 4 9 23-19 19-77-11-28-14-53-23-55-21s11 24 29 48 42 59 52 77c11 17 27 32 37 32 11 0 18 7 18 20 0 15-7 20-25 20h-26l23 30c12 17 24 30 27 30s15-14 26-31z"/><path d="m7182 9323c-46-22-63-51-53-88 6-23 13-30 32-30 21 0 24 4 22 31-3 32 13 46 65 57 27 6 50-23 62-80 10-42-3-87-44-157-27-46-27-46-56-31-33 17-112 20-141 5-23-13-24-41-4-80 18-35 41-38 126-16 54 14 58 14 104-10 58-29 96-31 118-6 24 26 22 29-27 29-26 0-56 7-75 19l-31 20 27 39c32 47 63 126 63 160 0 41-30 119-53 137-28 22-92 23-135 1zm-17-329c13-5 14-8 3-15-18-12-58-11-58 0 0 9 15 18 32 20 3 1 14-2 23-5z"/><path d="m3885 9261c-27-16-61-43-74-61-25-35-38-31-43 14-7 67-68 52-171-43-58-54-59-55-54-26 16 86 17 102 3 120-25 33-47 9-51-55-1-30-12-82-23-116-11-33-22-78-24-100-3-34 0-39 19-42 17-3 31 11 67 66 46 69 122 148 164 171 22 12 22 11 20-55-2-47 1-68 10-71 7-3 47 29 90 69 77 75 119 108 135 108 5 0 6-36 1-82-9-106-9-116 12-139 27-29 72-37 142-24 62 12 111 38 120 65 3 9-2 11-19 6-80-23-172-35-190-25-18 9-19 17-13 114 8 116 1 135-45 135-14 0-48-13-76-29z"/><path d="m4510 9260c0-19 7-20 124-20 138 0 163 5 145 26-9 11-43 14-140 14-122 0-129-1-129-20z"/><path d="m7804 9173c-31-60-59-110-60-112-8-9-54 19-95 56-23 21-51 57-61 81-27 61-67 55-53-8 8-37 91-129 139-155 20-11 36-23 36-28s-22-41-50-80c-54-76-62-107-30-107 13 0 38 27 77 85l58 85 75-5c52-4 82-2 99 7 41 22 24 33-56 36-42 1-79 5-82 8-8 7 79 172 102 194 22 22 12 50-18 50-20 0-33-18-81-107z"/><path d="m6788 9246c-10-7-18-21-18-30 0-13 10-16 50-16 51 0 58 7 44 44-7 19-52 21-76 2z"/><path d="m5854 9126c-22-56 35-89 69-41 15 21 16 29 7 40-16 19-69 19-76 1z"/><path d="m4492 9069c-15-5-22-15-20-26 3-16 18-18 148-17 142 1 200 11 200 35 0 9-37 10-139 4-96-5-141-3-145 4-8 13-13 13-44 0z"/><path d="m3646 7784c-9-24-8-31 10-48 20-21 63-21 71 0 3 8 0 26-7 40-16 28-64 34-74 8z"/><path d="m3866 7746c-29-38-32-56-14-74 29-29 66-9 78 44 16 68-21 86-64 30z"/><path d="m6247 7700c-59-47-87-149-69-251 7-33 30-88 59-139 56-98 93-180 93-208 0-37-28-47-141-50-60-3-109-1-109 3s10 15 23 26c18 15 19 20 8 28-30 20-108-30-95-62 3-8 22-23 42-33 47-22 220-15 276 11 74 35 70 82-21 255-31 58-62 117-70 132s-14 58-15 97c-1 83 31 154 71 159 23 4 23 2 17-42-7-45-6-46 19-46 18 0 28 7 35 26 24 63 4 103-55 111-31 4-46 0-68-17z"/><path d="m5806 7569c-46-11-69-29-101-80-47-73-56-129-65-394-5-137-12-261-15-275-21-76-62-164-88-186-33-28-46-29-73-10-17 13-19 27-19 133 0 102-2 118-17 121-23 4-38-47-39-143-2-98 15-140 68-161 122-51 233 140 233 402 0 45 3 101 6 126 6 41 8 44 33 40 45-6 160 26 208 59 61 43 98 120 88 187-9 69-50 147-89 171-36 22-67 25-130 10zm112-62c50-54 66-147 35-212-28-59-118-105-205-105-35 0-38 2-44 36-7 37 0 114 16 175 13 49 64 117 92 122 57 11 85 7 106-16z"/><path d="m4484 7515c-14-25-36-82-49-128l-22-82-79-5c-61-4-79-8-79-20s16-16 72-18l73-3-7-75c-5-63-3-77 12-94 19-21 55-27 55-10 0 5-5 20-11 33-7 15-8 44-2 83l8 59 110 5c89 4 110 8 110 20s-19 16-103 18l-104 3 7 27c20 84 39 135 61 167 19 29 22 40 13 51-20 24-37 16-65-31z"/><path d="m3813 7485c-11-8-49-65-84-126l-62-111-34 53-34 54 26 3c18 2 25 9 23 20-4 21-87 30-98 11-15-23 24-111 72-165 18-20 17-22-53-118-66-94-78-126-45-126 15 0 61 53 115 133l32 48 47-40c26-21 63-55 82-75 36-37 54-44 65-26 13 21-8 49-80 111-41 35-75 68-75 73 0 6 28 61 63 123 40 72 68 113 78 113 22 0 33 29 18 46-15 18-29 18-56-1z"/><path d="m5177 7490c-70-21-128-99-112-150 12-38 55-16 55 27 0 29 39 70 75 79 21 5 33 1 53-20 24-24 27-33 27-104 0-65-4-84-27-122-46-79-55-84-169-84-101-1-101-1-130-34-34-38-38-83-9-112 36-36 124-18 203 40 23 16 45 30 50 30 6 0 31-13 57-29 58-36 146-56 183-42 43 17 32 28-38 40-73 13-170 65-158 84 4 7 22 31 40 55 39 52 53 98 53 177 0 80-26 136-73 158-39 19-40 19-80 7zm-57-434c-6-8-31-24-54-35-72-36-113-23-82 24 15 22 23 25 82 25 57 0 65-2 54-14z"/><path d="m8905 7471c-56-25-111-90-129-152-21-69-20-96 3-108 16-9 20-2 41 67 17 61 30 85 61 114 53 50 78 55 129 27 88-50 105-173 32-242-71-68-221-91-289-44-36 24-45 65-18 87 17 14 20 46 6 54-43 27-97-105-61-148 7-9 29-26 49-38 53-33 194-33 266 0 125 57 171 155 130 273-19 52-39 75-85 99-57 29-91 32-135 11z"/><path d="m7354 7465c-5-13 84-204 107-229 10-12-48-127-100-196-42-56-46-73-18-78 22-4 64 45 118 138l46 80 22-24c37-39 137-88 174-84 17 2 31 8 30 13-1 6-34 27-75 47-40 20-86 51-101 68l-28 31 36 68c20 38 50 84 66 102 25 29 27 35 15 47-8 8-21 12-29 9-19-7-60-61-96-127l-29-52-32 68c-35 75-75 134-91 134-5 0-12-7-15-15z"/><path d="m6625 7430c-65-28-105-107-91-181 9-53 57-105 108-117 24-6 55-8 70-5 25 5 27 2 33-41 4-26 6-48 4-49-2-2-42-25-88-52-100-60-145-113-161-190-31-151 51-295 167-295 58 0 97 28 117 83 22 59 35 193 29 317l-4 105 55 35c63 40 71 52 24 40-18-4-46-11-62-15l-29-6 5 96c4 72 2 98-7 101-7 3-11 14-8 25 3 10-5 44-17 74-30 75-83 102-145 75zm88-72c9-18 19-45 22-61 4-15 11-29 15-32 13-8-12-76-33-87-10-5-34-7-53-4-76 15-106 127-49 186 40 42 78 41 98-2zm45-545c-6-182-19-240-61-262-44-23-118 28-136 95-24 87-9 178 37 231 20 23 141 103 156 103 5 0 7-73 4-167z"/><path d="m2799 7393c0-5-2-51-3-103-2-58-10-119-21-157-16-51-17-64-6-77 32-39 60-3 82 103 12 54 19 68 61 107 27 25 53 42 60 38 7-5 9-36 5-100-4-69-2-94 7-97 19-8 31 4 54 49 28 55 68 101 103 119 15 8 30 15 33 15 13 0 37-65 45-125 9-61 36-124 47-112 3 3 5 41 5 85 0 123-35 192-98 192-42 0-68-13-110-53l-33-31v37c0 35-27 77-49 77s-68-23-92-46c-29-28-45-19-34 17 8 24-19 69-40 69-8 0-15-3-16-7z"/><path d="m8110 7281c0-34 40-42 199-39 122 3 146 5 146 18 0 12-24 16-135 21-74 4-152 10-172 14-34 7-38 5-38-14z"/><path d="m7147 7242c-10-10-17-25-17-34 0-25 36-50 67-46 22 2 29 9 31 30 7 59-44 91-81 50z"/><path d="m8310 7183c-19-1-68-8-107-14-62-10-73-15-73-31 0-19 5-19 88-13 105 8 213 31 238 50 17 13 12 14-46 13-36-1-81-3-100-5z"/><path d="m5930 6525c-105-12-143-19-267-46-23-5-60-9-82-9s-63-5-93-11c-176-34-203-45-359-135-136-78-216-159-258-259-69-164-120-452-109-605 12-149 99-300 218-377 36-23 99-65 140-94 78-55 374-197 464-223 101-30 397-61 566-60 217 1 475 86 695 229 68 44 113 95 173 195 131 219 197 476 166 643-36 191-135 409-235 520-86 95-218 156-423 197-55 11-126 26-156 35-68 18-275 18-440 0zm440-52c30-8 75-19 100-23 155-27 267-64 350-115 118-74 222-250 296-500 61-206-27-530-209-772-112-150-520-317-767-314-116 1-413 34-512 57-93 21-387 159-480 225-42 30-102 70-133 89-74 45-149 143-175 229-28 88-28 291 0 422 65 311 120 400 312 510 154 87 205 107 328 125 58 8 182 28 275 44 94 17 193 31 220 31 28 1 64 5 80 10 43 12 251 0 315-18z"/><path d="m6237 6229c-55-13-90-33-126-74-66-75-37-126 138-245 138-94 150-105 130-125-35-34-271-71-321-50-23 9-60-13-56-33 3-15 18-17 113-17 174 1 335 54 335 110 0 26-53 75-174 158-65 45-125 94-134 109-15 26-15 29 4 55 27 37 99 73 146 73 31 0 42-6 65-35 31-38 73-48 73-17-1 24-50 79-83 91-33 13-57 13-110 0z"/><path d="m5888 6098c-30-24-58-94-87-219-26-116-30-124-52-124-19 0-24-5-24-25 0-19 6-26 23-28 19-3 23-8 19-25-3-12-9-43-12-69l-7-48-307-2c-264-3-306-5-306-18s42-15 303-18l304-2-7-33c-9-45-72-177-84-177-6 0-13 11-17 26-8 32-38 28-42-6-4-37 33-73 67-65 14 4 32 12 39 18 21 17 63 106 82 172l17 60 261 3 261 2 13-27c29-60 101-85 245-85 99 1 174 34 200 88 11 24 27 40 42 44 34 8 39 30 7 30-24 0-26 4-26 40 0 34 4 42 26 50 29 12 23 30-10 30-22 0-23 4-30 103-3 56-3 123 0 149 4 26 4 57 1 70-8 29-49 54-104 63-102 16-206-102-144-164 23-23 104-35 147-23l30 10 12-69c7-38 12-84 12-103 0-33 0-33-62-40-35-3-117-19-182-36-97-24-125-35-151-60l-31-30h-258c-220 0-257 2-253 14 3 8 9 42 13 75l7 61 57 26c60 27 100 62 144 128 62 92 9 246-84 246-20 0-43-6-52-12zm86-61c14-20 20-43 20-80 0-47-4-59-39-101-33-41-110-94-120-84-3 3 24 130 45 209 12 42 47 92 63 86 6-2 20-15 31-30zm751-27c53-44-69-105-136-70-26 14-24 23 13 60 27 28 37 31 70 27 21-3 45-11 53-17zm11-437c-3-3-83-7-178-10-153-3-170-2-148 10 32 19 144 47 245 61l80 12 3-34c2-19 1-36-2-39zm-6-50c0-16-16-31-50-49-50-26-200-25-255 2-75 37-59 43 122 47 92 1 171 4 176 5 4 1 7-1 7-5z"/><path d="m5188 6049c-32-12-40-31-28-65 13-34 56-31 53 4-3 20 1 22 52 22 47 0 59-4 90-31 43-38 44-61 6-121-33-52-59-72-159-122-54-27-72-41-70-54 3-15 21-17 143-20 137-3 222 9 210 28-4 6-59 10-123 10l-117 1 40 21c83 43 155 137 155 204 0 33-7 46-37 76-21 20-51 42-66 47-34 13-112 13-149 0z"/><path d="m6301 5329c-24-4-59-18-78-29-31-18-36-18-49-5-23 22-66 18-108-10-20-14-38-25-40-25s-6 14-10 31c-5 25-10 30-28 27-21-3-24-10-29-79-4-42-14-99-24-128-19-60-15-84 16-79 16 2 25 15 34 45 25 84 101 183 141 183 18 0 18-24-1-40-20-17-19-69 1-77 24-9 47 9 59 45 20 59 102 102 196 102 65 0 74-14 74-118 0-79 2-86 26-104 15-12 44-20 72-21 39-2 51 3 74 26l28 28-56-7c-35-4-64-2-77 5-20 11-21 17-16 66 9 70-1 117-31 149-20 22-32 26-77 25-29-1-73-5-97-10z"/><path d="m3411 6101c-15-27-15-25 18-61 43-47 66-38 66 25 0 50 0 50-37 53-28 2-39-1-47-17z"/><path d="m3574 6096c-3-8-4-29-2-47 4-39 30-59 56-43 21 13 28 70 11 90-15 18-58 18-65 0z"/><path d="m3685 5858c-15-11-54-63-87-114l-60-94-26 33c-53 66-97 107-113 107-33 0-31-22 3-58 19-21 51-57 71-82l36-45-36-50c-20-28-60-80-89-116-56-69-65-89-38-89 30 0 53 21 124 114l72 95 64-54c76-65 136-97 171-93 44 5 37 25-19 50-50 23-178 130-178 149 0 21 132 210 144 206 23-9 39 9 32 37-8 32-33 34-71 4z"/><path d="m8845 5850c-98-20-235-140-208-183 4-6 8-28 8-48 2-81 66-124 201-135 97-8 194 13 271 58 62 38 93 87 93 152 0 41-5 51-41 86-69 67-199 95-324 70zm201-55c60-18 114-67 114-104 0-97-134-168-300-159-123 7-160 30-160 98 0 16-6 30-12 33-35 12 101 128 164 140 52 10 147 6 194-8z"/><path d="m7450 5748c-22-40-41-77-43-83-2-5-36 19-76 53-69 61-101 73-101 38 0-8 32-42 70-77 39-34 70-66 70-70 0-5-22-46-50-92-49-82-59-110-41-121 15-10 40 18 89 100l48 81 49-38c69-53 162-96 177-81 16 16-3 36-71 73-31 16-72 44-91 60l-35 30 47 91c26 50 45 94 42 99s-14 9-24 9c-14 0-31-22-60-72z"/><path d="m4281 5758c-4-13-13-56-20-96-10-53-17-72-26-68-8 3-29 8-49 11-19 4-40 13-47 21-17 21-49 18-49-4 0-29 29-49 92-63l57-13-2-66c-2-59 0-65 18-65 17 0 21 10 29 63l9 62 46 1c99 1 179 25 157 46-4 4-49 6-100 5l-93-4 12 74c7 40 14 78 15 83 9 40-35 51-49 13z"/><path d="m8030 5682c0-15 14-20 83-30 115-17 228-16 253 2 18 14 18 15-6 20-29 7-249 26-297 26-25 0-33-4-33-18z"/><path d="m8040 5562c-6-2-10-12-10-23 0-18 9-19 178-19 124 1 186 5 207 14l30 13-45 7c-49 6-344 13-360 8z"/><path d="m7135 4950c-18-29 11-75 98-161 92-91 163-135 236-146 36-6 36-6 17 16-11 12-45 35-76 52-62 33-215 176-226 212-10 33-36 47-49 27z"/><path d="m8256 4904c-18-17-19-24-10-48 9-23 41-20 49 4 7 22 35 26 53 8 22-22 13-55-29-101-40-46-62-97-53-121 11-28 61-44 160-50 66-5 104-4 108 3 11 17-29 31-120 43-55 7-88 16-91 25-3 7 8 29 23 49 71 88 81 130 43 178-17 22-28 26-69 26-31 0-54-6-64-16z"/><path d="m6954 4865c-14-35 102-180 179-223 62-35 128-55 151-46 28 11 18 20-61 54-87 38-140 86-197 173-35 56-61 71-72 42z"/><path d="m7664 4613c-10-38 13-118 57-198 42-78 70-108 112-124 63-24 99-2 118 74 11 42 13 44 25 27 23-33 85-74 125-83 31-7 47-5 77 10 89 46 123 212 57 284-30 31-47 34-70 11-22-23-15-49 14-49 57-1 49-140-11-190-37-31-65-28-113 13-34 29-75 92-75 115 0 8-7 20-15 27-24 20-42-3-48-63-17-170-65-181-146-34-22 40-43 93-46 117-11 81-15 90-35 90-13 0-22-9-26-27z"/><path d="m8318 4368c-51-14-92-53-84-81 3-12 6-37 6-55 0-41 52-100 95-108 62-12 115 61 115 156 0 52-23 90-54 90-8 0-20 2-28 4-7 2-30-1-50-6zm70-50c16-16 15-61-3-103-30-73-81-49-87 41-3 50-1 55 22 63 35 13 54 13 68-1z"/><path d="m4207 4010c-40-12-57-29-57-56 0-26 24-54 47-54 11 0 14 8 11 30-5 33 5 40 59 40 74 0 126-47 126-116 0-39-30-71-136-152-163-123-150-142 97-142 168 0 219 8 186 30-8 5-71 10-140 11-69 0-136 4-150 8-23 6-19 11 52 64 138 104 166 156 133 242-19 52-54 80-116 94-52 12-74 12-112 1z"/><path d="m4877 3953c-4-3-7-17-7-30 0-22-3-23-71-23-82 0-109-11-109-45 0-28 41-61 65-51 18 7 20 36 3 36-9 0-8 4 2 10 8 5 39 10 68 10h52v-81c0-82-7-107-43-146-27-30-39-29-31 1 7 31-7 39-34 20-29-20-30-69-1-84 28-16 62-6 103 31 49 42 70 103 64 182l-5 63 90-15 89-14-7-56c-25-195-25-211 5-211 21 0 30 19 30 62 0 17 5 60 11 97 20 123 11 111 87 111 45 0 81 7 111 21 62 28 43 44-35 30-73-14-131-14-139-1-4 7-24 8-51 4-26-4-78-1-120 7-64 11-74 16-74 34 0 33-34 58-53 38z"/><path d="m2658 3715c-5-5-8-14-8-22 0-10 28-13 130-13 72 0 207-9 301-21 115-14 174-18 181-11 15 15-19 30-109 48-85 17-483 32-495 19z"/><path d="m2906 3638c-7-40-27-218-37-347-9-106-8-126 5-139 12-13 18-13 30-2 12 9 16 32 16 90 0 43 9 144 21 225 11 80 18 157 15 171-8 32-44 33-50 2z"/><path d="m3332 3404c3-17 16-20 103-25 55-3 128-10 163-14 53-7 62-6 62 8 0 30-42 40-188 45-137 5-144 4-140-14z"/><path d="m4144 3409c-3-6-2-14 2-19 5-5 117-11 249-14 414-10 710-22 724-30 18-11 61 2 61 18 0 22-105 34-387 46-337 13-640 13-649-1z"/><path d="m3432 3290c-41-9-46-15-38-35 4-13 15-15 48-11 24 3 84 8 133 12 50 3 99 11 110 17 19 10 19 10 0 18-26 10-210 9-253-1z"/><path d="m4164 3159c-4-7-9-41-11-78-4-57-2-71 19-101 54-79 196-81 279-4l26 24 54-23c82-36 115-40 163-19 55 25 66 41 73 104 4 45 2 57-17 81-17 22-29 27-53 25-41-4-58-32-33-55 13-13 20-15 23-5 3 6 8 12 13 12 14 0 21-32 14-67-5-26-15-38-39-50-29-14-37-14-82 1-50 17-66 29-102 75-23 31-51 22-51-15 0-18-12-38-36-60-32-31-41-34-95-34-53 0-63 3-85 27-24 26-26 32-19 100 6 69 6 73-14 73-11 0-23-5-27-11z"/><path d="m4811 2972c-38-19-45-30-32-51 7-11 13-12 23-4 7 6 32 16 56 22 52 14 109 1 140-32 19-20 21-28 13-50-11-28-16-30-96-27-55 2-90 19-100 50-8 24-28 26-45 5-15-18 6-55 45-81 28-18 147-31 190-20 28 7 65 59 65 93 0 29-47 83-87 99-45 19-131 18-172-4z"/><path d="m6610 2241c0-11-11-44-25-73-13-29-45-100-70-158-26-58-89-187-141-287-52-101-155-303-229-450-74-148-141-277-149-288-14-18-15-10-14 95 0 63 3 147 7 185 3 39 4 111 1 162-8 134-33 152-167 121-41-10-53-17-53-31 0-18 6-19 79-12l79 7 7-47c4-25 3-147-4-271-10-224-7-268 22-286 43-28 81 24 233 327 75 149 183 360 240 470 93 182 132 265 212 453l27 63 765-6c1247-10 1293-10 1333-2l37 8v-42c0-22-7-66-16-96-17-58-13-73 14-57 41 25 74 145 58 210-7 26-7 26-84 19-96-9-105-9-1234 0-928 8-928 8-928-14z"/><path d="m7312 1948c-7-7-12-24-12-39 0-30-45-162-66-193-14-21-8-46 12-46 7 0 48 35 91 78 78 77 149 124 211 137 31 6 32 6 32-27 0-18-9-52-19-74-14-31-16-45-8-53 18-18 26-14 83 38 64 59 151 104 191 99 28-3 28-3 33-113 5-104 6-110 27-113 31-4 37 28 29 140-6 98-16 123-47 133-38 12-117-6-175-41-31-19-58-34-60-34s-4 15-4 34c0 38-21 66-49 66-35 0-118-31-174-65l-58-35 7 45c8 59-15 92-44 63z"/><path d="m3008 1907c-67-9-78-13-78-29 0-19 6-19 137-12 76 4 212 7 303 7 137 1 178-3 240-20 41-12 77-19 78-18 2 2 1 12-2 23-8 24-21 30-106 48-76 16-448 17-572 1z"/><path d="m3211 1847c-6-8-16-52-22-98-5-46-23-153-38-238-16-85-27-161-24-169 3-7 15-12 27-10 22 3 19-12 65 261 34 202 31 301-8 254z"/><path d="m4613 1736c-25-21-26-26-15-51 16-34 59-33 54 3-4 28 27 30 51 4 31-35 21-69-39-132-31-32-71-69-90-82-18-13-41-38-51-56-17-32-17-34 1-48 13-9 47-14 100-14 45 0 98-4 119-9 44-10 77-4 77 14 0 20-28 27-133 33-54 2-100 8-102 12-3 4 20 27 50 51 31 24 73 66 95 93 33 40 40 56 40 93 0 55-12 78-50 98-41 21-75 19-107-9z"/><path d="m5190 1741c-5-11-10-33-10-50 0-29-2-31-37-31-86 0-133-28-133-79 0-26 38-29 47-3 10 26 23 32 77 32h49l-6-67c-4-57-9-71-32-90-28-24-55-30-55-12s-55 5-58-14c-9-46 45-60 118-31 48 20 75 65 86 143l7 53 46-7c25-4 47-8 49-10 7-7-52-171-65-181-13-9-13-12 1-23 29-25 59 0 80 65 10 33 25 78 34 102l15 42h68c87 0 169 17 169 36 0 20-39 27-90 15-56-13-117-14-125-2-3 5-30 7-59 4-30-3-70-3-90 1-31 6-36 11-36 34 0 16 5 33 12 40 9 9 7 16-7 32-23 25-41 26-55 1z"/><path d="m6635 1590c-24-38 30-41 1096-46 913-5 927-4 932 15s-8 20-912 25c-504 3-959 9-1013 12-67 4-98 2-103-6z"/><path d="m3586 1552c-15-25 18-30 213-33 151-2 206 0 209 9 2 7-8 16-23 22-31 12-392 14-399 2z"/><path d="m3755 1454c-11-3-30-7-42-10-22-4-31-28-15-37 10-7 381 18 389 26 3 4 3 10-1 15-8 8-299 13-331 6z"/><path d="m7845 1280c-54-27-103-72-111-104-6-27 12-86 27-86 16 0 201-163 220-194 10-17 19-34 19-37 0-10-142-19-184-12-26 4-40 12-44 25-5 22-41 24-68 3-19-15-19-15 4-35 13-11 40-24 60-30 52-14 222-12 252 3 50 25 34 92-37 159-61 58-141 127-169 144-37 25-29 61 24 101 44 34 92 44 92 20 0-17 42-37 75-37 46 0 38 81-9 94-43 12-112 5-151-14z"/><path d="m7437 1090c-19-16-42-45-51-63-9-17-27-52-41-77s-25-50-25-57-17-21-37-30c-46-22-56-58-24-83 22-15 22-15-16-146-21-72-45-141-54-155-14-21-18-22-33-10-14 11-17 27-14 70 2 46 0 56-14 59-22 4-37-27-40-83-2-61 25-99 75-103 62-5 89 43 149 269l20 77 57 6c69 8 137 40 165 79 18 25 21 42 20 124-1 78-5 100-21 121-30 40-73 41-116 2zm77-36c3-9 6-51 6-95 0-71-3-83-24-104-24-24-82-45-123-45-13 0-23 2-23 3 0 17 44 124 60 146 11 16 20 32 20 36 0 12 55 75 66 75 7 0 15-7 18-16z"/><path d="m6864 1066c-37-17-46-28-38-50 7-18 40-22 46-5 4 12 79 27 141 28 30 1 37-3 37-17 0-25-46-87-131-177-41-43-69-80-66-88 14-36 232-52 232-17 0 11-20 17-83 24l-82 8 73 78c91 97 125 157 111 197-9 28-10 28-109 30-68 2-110-2-131-11z"/><path d="m8264 1056c-51-24-74-57-74-106 0-46 112-102 170-86 65 19 60 22 60-41v-58l-108-39c-163-60-209-121-147-195 36-42 83-55 177-48 129 9 160 44 151 176l-5 76 46 22c62 31 61 48-4 39l-49-7-3 87c-2 69-7 89-20 98-14 9-24 4-52-27-39-43-81-49-133-18-39 24-35 54 11 83 26 16 42 18 99 14 61-6 67-4 67 12 0 45-106 55-186 18zm176-420c0-91-8-99-101-104-86-5-114 2-135 33-27 42-2 66 118 113 57 22 106 38 111 35 4-2 7-37 7-77z"/></g><g fill="#44b" transform="matrix(.054411653 0 0 -.054411653 1470.27637353537 1569.75496591264)"><path d="m750 2973c-57-10-88-25-119-57-40-41-55-100-46-179 6-45 12-61 32-77 32-25 35-25 64-1 22 17 24 26 21 89-4 105 24 120 164 87 33-7 119-19 190-25 88-8 134-16 144-26 32-32 8-420-28-456-18-18-126-28-289-28-185 0-206-4-250-52-55-58-58-82-55-363 1-145 7-274 13-293 11-34 51-62 89-62 12 0 35 14 52 31l31 30-6 238c-3 130-3 249 0 264l5 27h112c234 1 363 26 423 82 58 54 98 260 91 463-4 122-7 138-34 191-40 81-79 100-217 108-174 10-361 14-387 9z"/><path d="m3660 2971c-42-9-83-34-103-65-39-59-50-127-54-343-5-206-5-212 18-252 28-50 78-86 143-102 48-12 257-8 370 7l49 7-7-104c-4-57-11-189-16-294-9-177-9-192 8-214 35-47 100-46 136 2 22 29 27 86 42 452 7 191 0 235-44 283-45 48-92 56-241 38-146-18-229-20-265-6l-26 10v162c0 156 8 230 27 249 5 5 99 6 210 2l201-6 5-50c3-39 11-56 31-74 34-29 48-29 80 0 24 20 26 30 28 113 4 147-23 169-218 179-242 11-340 13-374 6z"/><path d="m1565 2945c-14-13-25-32-25-42s-1-297-3-638c-2-677-3-662 55-694 33-19 73-7 101 31 18 24 20 51 29 300 5 150 10 278 12 283 2 6 37 8 97 3 52-3 135-7 186-7 154-2 161-10 143-176-21-189-27-310-18-343 12-45 45-72 86-72 71 0 102 46 102 151 0 33 7 118 16 187 24 190 9 280-58 349-50 52-112 67-263 65-71-1-164-6-205-11-41-4-78-7-81-5-4 2-10 108-13 236-9 286-17 352-47 384-31 33-82 32-114-1z"/><path d="m2542 2944c-55-38-64-109-53-419 6-186 9-215 28-250 50-95 116-125 302-135 75-4 171-5 215-1l78 7-4-178c-2-97-7-181-11-184-4-4-42 1-85 11-104 26-285 27-363 3-106-33-149-107-99-170 26-34 68-41 132-21 74 23 202 20 308-7 182-47 274 5 301 168 12 77 27 831 19 994-7 152-20 181-86 186-88 7-103-51-104-401v-219l-201 4c-197 3-201 3-220 27-18 21-19 42-19 283v260l-29 29c-33 33-74 38-109 13z"/><path d="m2374 1391c-55-34-79-78-79-147 0-51 4-66 27-96 35-45 102-73 153-64 78 15 146 111 131 188-20 108-145 172-232 119z"/><path d="m1853 999c-39-11-66-56-61-101 6-59 69-64 76-6 4 30 34 38 145 38h67v-110c0-135-1-136-132-126-85 6-89 6-113-18-24-25-25-28-25-179 0-162 4-177 47-177 35 0 43 29 43 159v121h73c85 0 141 14 168 41 17 17 19 34 19 169 0 147-1 152-25 175-23 24-30 25-137 24-62 0-128-5-145-10z"/><path d="m2985 1000c-91-16-93-18-104-58-15-51-14-537 0-564 19-36 69-48 204-48 121 0 127 1 151 25l24 24-2 292-3 292-26 19c-31 23-161 33-244 18zm169-86c14-5 16-37 16-250v-245l-102 3-103 3v240 240l40 6c57 9 131 10 149 3z"/><path d="m2351 971c-24-24-29-73-37-372-6-232-6-237 15-258 23-23 29-25 51-11 12 7 16 40 20 150l5 141 35-23c19-13 59-55 88-93 30-39 78-96 108-128 47-51 56-57 74-47 29 16 25 42-15 92-19 24-62 78-95 121-61 77-61 77-33 77 15 0 46 9 69 19 56 26 67 57 62 179-6 156-27 172-220 172-93 0-111-3-127-19zm257-74c16-13 17-168 0-185-7-7-41-12-84-12-40 0-84-4-98-10l-26-10v120 119l98-6c53-3 103-10 110-16z"/></g></svg>