<svg height="1483.90966pt" preserveAspectRatio="xMidYMid meet" viewBox="0 0 1227.467044 1483.90966" width="1227.467044pt" xmlns="http://www.w3.org/2000/svg"><g transform="matrix(.1 0 0 -.1 -161.200089 1516.90966)"><path d="m8997 15163c-16-16-5-33 21-33 21 0 24-2 12-10-8-5-37-10-65-10-99 0-185-12-185-26 0-24 18-25 164-9 178 18 173 18 158 3-16-16-15-58 1-58 15 0 67 64 67 83 0 23-24 37-87 52-67 16-77 17-86 8z"/><path d="m1983 15058c-4-7-16-44-25-82-19-72-29-86-63-86-22 0-45-17-45-33 0-5 16-6 35-3 21 4 35 3 35-3 0-5-17-11-37-13-26-2-38-8-38-18 0-11 9-14 31-12l31 3-10-46c-13-57 1-78 31-45 22 24 35 60 21 60-5 0-9 6-9 14 0 10 16 15 53 18 28 2 53 3 55 2s-8-31-22-65c-14-35-22-67-17-72 12-12 26 10 51 79 21 60 23 62 73 77l52 15-42 1c-42 1-52 11-35 38 4 6 28 14 55 18 26 4 50 11 53 16 6 10-4 12-60 9-34-2-38 1-31 17 4 10 10 38 13 62 4 38 3 43-14 39-21-4-49-51-34-56 10-4 3-51-9-64-4-4-28-12-54-17-56-10-56-9-22 73 18 44 21 63 13 73-13 16-25 17-35 1zm87-177c0-32-14-41-61-41-61 0-70 26-11 35 20 4 42 8 47 10 18 6 25 5 25-4z"/><path d="m2625 15015c-5-2-22-6-37-9-32-7-56-42-39-59 8-8 17-5 34 11 30 29 73 29 82 1 8-25-40-80-86-100-16-6-29-19-29-29 0-14 12-18 70-22 74-6 108-22 90-43s-111-57-154-59c-31-2-42-7-45-21-3-16 3-17 59-12 109 10 205 73 186 122-7 19-65 45-101 45-25 0-25 1 15 38 44 43 51 77 23 110-18 20-50 33-68 27z"/><path d="m2375 14939c-41-39-75-76-75-81s7-11 16-15c10-4 30 8 55 33 21 21 39 35 39 31s-18-44-41-88c-39-78-44-109-17-109 16 1 151 276 143 290-15 23-50 5-120-61z"/><path d="m2960 14971c-46-9-80-28-80-45 0-24 12-25 48-5 45 23 102 26 102 4s-55-78-134-138c-114-85-113-107 4-106 77 1 112 9 118 28 4 11-11 13-79 7-50-5-80-4-74 1s40 31 77 56c114 80 155 150 110 190-20 18-35 19-92 8z"/><path d="m8947 14971c-73-15-107-51-107-112 0-11-6-19-14-19-23 0-31-22-13-35 20-14 22-36 5-53-21-21 21-26 113-13 110 16 139 23 136 36-2 11-15 12-114 1-68-7-73-6-73 12 0 24 34 32 136 32 41 0 74 4 74 9 0 16-30 21-116 21-92 0-100 7-64 53 17 21 33 27 110 38 57 7 89 16 87 23-4 13-106 17-160 7z"/><path d="m3226 14941c-21-24-56-140-56-189 0-97 95-149 195-108 38 16 70 58 61 81-16 43-124 42-176-1l-29-25-7 25c-8 35 23 170 44 189 9 8 27 17 40 19 38 5 29 23-14 26-30 2-45-2-58-17zm154-235c0-21-80-49-109-38-23 8-23 8 10 30 39 25 99 30 99 8z"/><path d="m8455 14700c-10-16 13-37 40-37 33 0 157-24 151-30-7-7-626 17-691 27-46 7-63 7-73-4-29-29 12-34 372-45 197-6 377-11 400-12 40 0 39-1-35-28-84-30-129-55-129-72 0-7 9-9 23-6 53 14 238 84 249 95 9 9 93 12 330 12 175 0 318 4 318 8 0 12-203 22-440 22-149 0-206 4-232 14-43 18-230 66-257 66-11 0-23-5-26-10z"/><path d="m6477 14642c-3-4-7-100-9-214-3-218 2-247 38-218 12 10 14 24 10 50-3 19-3 91 1 160 5 96 9 119 16 100 5-14 25-58 43-98 29-63 37-73 56-70 23 3 28 14 59 128 15 54 16 51 28-120 11-153 15-170 43-170 18 0 20 4 13 38-4 20-10 117-14 215-5 142-9 180-21 187-8 5-19 8-25 7-14-5-40-59-66-139-13-37-26-65-30-62-4 2-17 35-30 72-24 72-43 109-68 130-17 14-37 16-44 4z"/><path d="m1614 14595c-4-10-1-20 6-25 28-17 403-22 935-10 308 6 741 14 963 17 221 3 402 9 402 14 0 18-92 22-415 16-1264-25-1432-26-1625-17-113 5-217 12-232 16-21 5-29 2-34-11z"/><path d="m3823 14558c-4-7-11-254-15-548-7-582-14-735-58-1270-29-347-43-555-56-832-5-113-9-138-21-138-8 0-17-9-20-20-3-10-13-21-22-24-29-8-1825-9-1873-1-45 7-48 6-48-13 0-14 8-23 23-26 68-14 165-16 367-6 124 6 532 12 908 13l682 2v-275c-1-223 4-327 25-550 15-151 29-311 33-355 6-71 9-80 27-80 14 0 19 6 18 20-1 11-16 157-34 325-25 245-32 366-36 613-6 307-6 307 16 307 24 0 28 18 6 26-29 11-17 316 35 949 46 565 49 613 60 1090 11 511 18 751 22 780 3 23-26 33-39 13z"/><path d="m10674 14480c-12-4-35-25-52-45l-30-37-14 28c-22 47-61 45-109-7l-39-42v45c0 47-14 63-44 52-12-4-13-25-9-102 6-117 7-122 32-122 14 0 27 16 46 57 25 56 60 103 76 103 5 0 9-30 11-67 3-64 4-68 27-68 18 0 27 9 41 48 20 53 65 117 82 117 7 0 9-25 4-79-5-65-4-82 10-95 24-25 60-19 99 15 46 40 33 62-18 30-19-11-37-21-41-21s-4 38 0 85c9 109-7 132-72 105z"/><path d="m2000 14331c-63-22-106-67-116-120-4-20-18-58-30-86-32-67-32-134-1-163s99-37 159-19l47 15 26-39c26-40 88-79 102-65 5 4-1 15-12 24-35 29-79 92-69 101 5 4 28 22 52 40 60 46 95 110 95 174 1 66-12 90-66 122-60 35-119 40-187 16zm143-35c50-21 70-50 70-100-1-52-20-90-65-132-60-57-67-57-103-5-34 48-61 63-71 37-4-9 9-33 31-61l37-45-27-10c-39-15-98-12-124 6-20 15-22 22-17 58 10 57 50 122 81 130 32 8 32 34 0 42s-31 14 3 46c49 46 125 60 185 34z"/><path d="m9503 14300c-77-16-134-58-146-110-4-14-4-67 0-118 6-87 7-93 27-90 18 3 21 11 24 56 3 50 5 54 37 68 19 8 58 17 86 22 30 4 54 13 57 21 4 11-8 13-64 9-38-3-77-9-86-13-15-6-18-2-18 19 0 14-5 26-12 26-6 0-1 11 12 25 15 16 53 35 100 49 102 31 90 57-17 36z"/><path d="m2996 14225c-73-26-166-142-166-208 0-14 7-33 16-41 29-30 73-18 147 38 26 20 47 31 47 26s-18-72-39-147c-21-76-46-185-55-242-15-94-15-106-2-120 25-25 37-1 41 80 4 80 35 209 92 384 61 188 61 213 0 235-36 12-33 12-81-5zm74-40c10-13 8-22-15-56-48-68-161-147-181-126-23 23 73 158 131 183 39 17 50 17 65-1z"/><path d="m9626 14158c-8-25-26-132-26-150 0-23 35-24 48-2 8 14 13 14 33 4 56-30 189-52 189-31 0 5-39 21-87 36l-87 28 47 39c69 59 37 95-41 48-31-19-33-19-30-3 3 23-9 43-28 43-8 0-16-6-18-12z"/><path d="m11737 14046c-94-20-103-31-164-210-32-94-51-162-45-168 12-12 39 0 45 21 4 15 11 16 74 7 76-10 214 2 213 19 0 6-43 11-102 13-57 2-104 7-106 12-2 6-14 10-27 10-22 0-22 2-12 29 10 26 17 30 83 41 40 7 84 10 98 6 21-5 26-3 26 13 0 25-28 31-103 21-33-5-63-7-65-5-3 2 5 20 16 39 19 32 20 37 6 51-13 12-14 18-4 30 19 23 117 48 167 42 48-5 66 9 38 30-23 16-60 16-138-1z"/><path d="m5261 14022c-96-25-102-37-110-219-4-81-5-151-3-155 5-12 154-9 212 3 27 6 50 16 50 23 0 8-28 10-105 8l-105-4v54 55l86 6c47 2 88 7 91 10 16 17-17 27-89 27h-81l8 48c4 26 8 57 7 70 0 18 9 25 55 38 37 11 72 14 104 10 37-5 49-4 49 7 0 40-62 47-169 19z"/><path d="m4946 13991c-60-62-87-251-47-318 24-39 53-49 89-31 22 11 32 11 52 1 33-17 50-16 50 2 0 8-7 15-15 15-27 0-36 35-19 76 18 43 30 177 20 218-17 67-83 86-130 37zm88-114c-1-45-6-93-12-107l-10-25-7 30c-12 52-14 55-35 55-32 0-34-24-7-84 22-47 23-57 11-67-21-17-41 4-49 51-8 49 11 152 30 163 8 4 15 19 15 32 0 16 6 25 15 25s18 7 22 16c4 11 9 12 17 4 6-7 10-44 10-93z"/><path d="m6558 13984c-54-45-75-77-83-125l-6-37-342-4c-188-2-343-3-345-2s19 12 47 25c34 16 50 30 51 43 0 27-45 15-130-34-84-49-100-64-100-96 0-21 10-30 53-49 54-25 138-37 134-20-1 5-23 17-48 25-62 21-104 49-91 62 5 5 166 12 390 15l381 6 6-29c22-95 50-133 122-158 146-51 248-15 309 110l26 54h329c185 0 330-4 333-9s-14-21-39-35c-44-26-60-56-30-56 21 0 118 56 140 80 16 18 16 21 2 43-19 30-93 66-152 74-38 5-45 3-45-11 0-9 14-23 30-30 17-7 27-15 23-19-8-9-555-9-577-1-10 4-16 18-16 38 0 42-38 105-79 133-47 31-94 43-178 43-67 0-74-2-115-36zm214-14c52-15 108-80 108-126 0-29-3-35-16-30-9 4-23 1-30-5-18-15-1-39 27-39 19 0 19-1 0-38-45-87-107-121-193-103-92 20-124 51-142 133-5 22-2 27 16 30 29 4 30 32 1 36-31 5-16 39 45 97 12 12 22 30 22 39 0 13 11 16 63 16 34 0 78-5 99-10z"/><path d="m2540 13928c0-25-37-83-67-106-12-8-14-15-7-22 14-14 72 26 102 70 28 42 26 74-5 78-18 3-23-1-23-20z"/><path d="m11330 13903c-31-12-73-60-96-108-30-63-31-99-2-119 28-20 45-20 82-1 36 19 41 14 23-22-24-45-60-172-53-188 8-22 39-18 54 6 9 15 10 24 3 33-13 16 0 56 59 184 28 59 49 92 62 95 16 5 18 12 14 47-2 23-6 43-8 43-2 1-13 8-25 14-27 15-92 25-113 16zm73-46c16-11 13-17-30-72-80-99-136-114-110-30 14 46 76 115 104 115 10 0 27-6 36-13z"/><path d="m9260 13849c-74-53-92-76-80-99 12-22 68-40 123-40 54 0 46 16-18 35-55 15-71 30-37 32 319 22 448 25 592 13 85-7 188-11 228-8l73 4-6-37c-5-30-2-42 14-58 47-47 146-30 180 31 10 18 27 30 46 33 17 3 172 6 346 8 263 2 313 0 298-11-22-15-25-42-6-42 7 0 39 14 70 31 63 34 73 58 35 83-25 16-155 56-182 56-21 0-21-29 2-37 9-3 33-13 52-21l35-15-45-8c-59-10-640 2-640 13 0 5-11 20-25 33-31 32-69 32-116-1l-37-25-416 7c-388 7-415 8-401 24 47 52-11 52-85-1zm1020-108c-11-22-51-37-75-27-20 7-20 46 0 46 8 0 15 5 15 10 0 6 10 8 24 4 15-3 27-1 32 8 14 21 17-17 4-41z"/><path d="m7990 13864c-14-2-59-9-100-15s-82-15-92-20c-9-5-26-37-37-71-25-77-60-293-50-309 16-27 36 2 48 69l12 70 97 11c147 18 162 21 162 33 0 7-40 9-120 7-116-4-120-3-113 16 9 29 52 117 66 136 13 18 117 39 190 39 49 0 60 12 28 30-19 10-42 11-91 4z"/><path d="m10241 13516c-50-54-82-206-45-220 9-3 31 3 50 15 19 11 34 16 34 11 0-6-9-49-21-97-23-100-23-178 2-183 13-2 17 10 23 67 3 38 22 125 42 193 50 167 49 162 24 203-18 28-28 35-54 35-21 0-40-8-55-24zm63-55c3-22 4-45 1-53-8-18-85-72-85-59 0 18 32 104 47 128 21 32 30 29 37-16z"/><path d="m7794 13384c-19-41-34-84-34-95 0-25 31-25 55 1 17 19 18 19 42 0 38-29 134-63 146-51 13 13 14 12-60 50-35 17-63 35-63 40 0 12 25 37 56 58 13 8 24 22 24 29 0 22-40 16-77-12-35-26-44-23-17 7 20 23 12 49-16 49-17 0-29-17-56-76z"/><path d="m2147 13390c-65-10-124-23-131-29-18-15-32-72-47-195-10-85-10-101 3-110 8-6 17-19 21-28 6-16 22-18 139-18 121 0 173 9 156 25-3 3-68 9-145 12l-140 6 20 68c11 38 24 66 29 63 6-4 66-3 134 1 164 9 164 28 1 36-65 3-120 9-123 12-10 10 16 65 33 71 8 4 13 13 9 21-3 10 2 16 17 20 79 17 146 24 174 19 25-5 34-2 39 11 8 21-11 35-46 34-14-1-78-9-143-19z"/><path d="m6325 13308c-30-23-65-107-77-184-8-52-7-69 6-96 26-54 66-72 148-65 56 5 70 3 75-9 5-13 72-54 88-54 13 0 2 20-31 55l-36 39 26 19c32 23 71 90 80 136 9 51-26 116-83 152-40 26-53 29-110 27-43-2-72-9-86-20zm138-22c43-17 97-80 97-112 0-36-23-85-53-113l-26-24-11 27c-5 15-10 36-10 47 0 26-28 36-46 17-13-13-13-21 4-66 22-57 19-62-44-62-24 0-43 8-61 26-23 23-25 31-20 80 3 30 17 78 30 108 20 43 29 54 44 50 11-3 26 3 37 15 23 25 19 24 59 7z"/><path d="m2407 13024c-4-4-7-15-7-25s-26-70-59-134c-54-107-60-125-40-125 25 0 152 228 147 263-3 22-28 34-41 21z"/><path d="m9275 13020c-3-5-1-27 5-49 8-29 16-40 33-43 41-6 31-39-28-102-36-37-53-62-47-68 14-14 44 5 89 53l38 40 48-45c50-49 67-55 87-31 10 12 8 16-12 24-28 11-88 75-88 95 0 8 11 34 25 57 31 54 31 59 1 59-17 0-27-9-36-30-15-36-23-37-43-6-33 49-59 67-72 46z"/><path d="m9115 12765c-16-7-57-26-90-40-64-28-105-60-105-82 0-27 47-60 126-90 101-39 154-49 154-30 0 8-18 19-40 26-21 6-63 23-92 37l-53 25 625-6c814-7 2520 6 2520 20 0 7-236 10-687 10-379 0-980 0-1338 0-357 0-766 0-908 0-234 0-289 5-239 22 54 18 202 97 199 107-5 16-38 17-72 1z"/><path d="m2041 12463c-5-11-21-59-35-109-14-49-34-116-46-148-25-73-25-86-1-86 16 0 26 19 53 107l32 107 14-36c15-40 43-53 76-36 12 6 51 38 89 71 37 32 67 53 67 46 0-8-6-48-14-89s-16-109-18-150c-3-69-2-75 17-75 18 0 21 9 27 90 5 50 19 136 33 193 41 160 33 161-154 4-35-30-67-50-72-45-4 4-9 44-11 88-3 74-5 80-25 83-13 2-26-4-32-15z"/><path d="m2867 12304c-4-4-7-29-7-55 0-30-9-66-22-94-18-36-20-47-9-58 10-10 17-7 34 14 12 15 29 40 38 56 16 29 123 93 157 93 15 0 14-12-4-92-9-41 19-37 58 8 58 66 132 86 144 38 4-14 1-37-5-50-27-61 5-91 35-32 11 21 15 46 11 77-8 72-52 89-136 51-24-11-44-20-46-20s-6 11-9 24c-3 14-14 26-24 28-28 6-94-12-139-38l-42-24-3 37c-3 35-17 51-31 37z"/><path d="m2440 12116c0-8 5-18 10-21 19-12 10-35-35-81-49-52-50-68-4-52 60 21 110 123 77 156-17 17-48 15-48-2z"/><path d="m8003 12022c-5-4-13-65-17-137-6-123-16-198-31-237-11-28 25-36 43-10 13 20 14 20 33 1 15-15 33-19 90-19 72 0 159 16 159 30 0 5-44 6-97 3-55-2-104 0-112 5-21 15 13 68 76 117 52 40 68 75 35 75-9 0-50-25-91-56l-74-55 7 48c4 26 9 89 13 139 5 75 3 92-9 96-8 4-19 3-25 0z"/><path d="m8590 11786c0-187 6-225 30-200 5 5 12 96 16 202l7 192h-27-26z"/><path d="m9117 11974c-4-5-9-155-11-393l-1-53-50 6c-27 3-168 6-312 6h-261l20 73c11 39 27 88 36 107 12 24 16 50 12 85-4 43-8 50-28 53-13 2-32-4-42-13-31-28-84-156-84-205-1-43 0-45 27-43s28 0 22-25c-4-15-8-28-9-29-1-2-105-6-230-9-182-6-229-10-233-21-11-29 12-33 118-24 57 6 157 12 221 14l117 4 3-41c2-29 8-42 21-44 14-3 17 4 17 43v47l323-3c237-1 321 1 320 10-2 6 6 11 17 11 19 0 20 7 21 123 0 67 4 162 7 210 4 48 4 95-1 103-8 14-29 19-40 8zm-642-254c-15-29-29-50-31-47-3 2 8 30 23 61s29 53 31 47c2-5-9-33-23-61z"/><path d="m8802 11939c-23-11-52-35-64-53-12-17-28-35-34-41-25-20-47-113-42-177 4-51 9-65 32-85 33-28 101-31 147-7 19 9 41 13 60 9 30-7 37 3 18 22-8 8-4 20 15 45 37 50 65 117 72 180 6 51 4 57-23 88-25 28-38 34-84 37-41 3-64-1-97-18zm152-41c14-18 17-33 12-66-7-50-36-121-66-159l-20-26-20 44c-11 24-20 65-20 91 0 50-8 62-35 52-25-10-15-99 18-163l26-51-36-15c-48-20-60-19-88 10-63 62 8 256 109 301 41 19 96 10 120-18z"/><path d="m4488 11899c-42-24-50-95-58-479-6-295-11-377-24-425-24-86-59-158-95-196-17-17-31-38-31-45 0-21 37-17 53 6 20 29 61 42 83 25 17-12 19-28 19-122 0-59-11-182-23-273-28-199-40-499-23-581 18-88 61-116 144-95 39 9 23 28-18 20-79-14-100 37-98 241 1 151 13 294 44 500 36 249 20 355-56 355h-24l25 54c47 103 55 169 64 531 9 352 18 428 53 449 15 9 23 5 46-24 25-29 31-32 45-21 24 20 20 33-18 64-36 28-77 34-108 16z"/><path d="m6845 11698c0-95-4-224-9-285-8-103-7-113 8-113 21 0 21-3 40 185 17 169 20 262 10 339-6 39-10 46-28 46-22 0-22-2-21-172z"/><path d="m6356 11838c-2-7-9-107-16-223-6-115-14-250-17-299-6-83-5-88 13-84 17 3 21 25 41 258 28 337 28 334 19 348-9 16-36 15-40 0z"/><path d="m4864 11733c-6-26-80-306-91-345-4-13 0-18 15-18 16 0 24 18 52 113 51 178 46 169 54 104 15-113 68-116 145-8l31 44-6-91c-7-94 0-122 32-122 11 0 13 9 8 38-3 21 2 89 11 150 27 176 7 187-83 47-66-103-92-119-92-57-1 20-6 66-13 102-10 55-16 65-34 68-17 3-24-3-29-25z"/><path d="m6615 11735c-52-27-123-147-132-224-5-43-3-50 22-69 21-17 41-22 84-21 31 0 65 4 76 8 14 6 28 2 48-15 27-23 67-33 67-16 0 4-12 18-26 31l-25 24 30 31c60 62 77 145 41 204-32 52-129 76-185 47zm136-54c16-16 29-38 29-48 0-38-21-90-46-113-28-27-39-20-50 30-8 40-20 55-40 55-28 0-28-29 0-84l25-50-35-11c-38-13-87-6-104 15-26 32 54 195 97 195 7 0 13 9 13 20 0 17 7 20 41 20 31 0 47-6 70-29z"/><path d="m7042 11738c-60-13-70-34-77-168-9-154-12-151 129-142 73 5 111 11 114 20s-21 12-97 12h-101v40 40h99c55 0 102 4 106 9 8 15-62 31-131 31h-62l10 40c8 29 7 44-1 54-10 12-6 17 26 25 21 6 73 14 116 17 63 6 75 9 66 20-13 16-129 17-197 2z"/><path d="m5393 11576c-35-29-85-129-81-159 4-31 61-36 99-8l27 20 11-29c19-56 97-63 156-16 40 32 27 42-28 21-27-10-54-14-67-10-20 6-22 12-17 47 3 23 11 44 18 48 30 19-28 110-70 110-11 0-32-11-48-24zm63-40c8-21-11-51-51-82-43-33-55-25-31 21 35 65 71 91 82 61z"/><path d="m6014 11581c-2-2-4-13-4-24 0-18 6-19 120-15 117 4 143 10 124 27-9 9-232 20-240 12z"/><path d="m7451 11582c-12-4-15-42-3-43 4 0 56-1 116-2 118-2 150 12 74 31-44 12-167 21-187 14z"/><path d="m6125 11510c-98-4-110-7-113-24-4-18 1-19 84-13 120 9 165 18 161 30-4 14-3 14-132 7z"/><path d="m8630 11422c-20-16-22-23-13-33 10-10 18-10 38-1 63 29 61-3-5-72-52-55-61-80-34-90 24-9 207-7 223 3 21 13 3 18-92 26l-87 7 45 49c32 35 45 56 45 78 0 35-4 38-56 47-31 4-45 2-64-14z"/><path d="m8505 11388c-2-7-11-66-21-130-9-65-19-118-22-118s-16 10-29 22c-36 34-94 31-133-7-59-56-78-124-41-145 29-15 109-11 171 9l55 18 16 73c24 103 43 254 36 274-8 19-26 21-32 4zm-109-246c14-9 34-47 34-65 0-8-13-20-28-26-31-13-108-19-117-9-8 8 20 63 46 89 20 20 46 24 65 11z"/><path d="m2902 11283c-41-20-54-44-50-91 2-26 8-38 21-40 14-3 17 4 17 32 0 46 26 72 79 81 49 8 105-9 126-38 32-46 15-85-94-218-63-78-75-110-57-154 19-45 48-49 40-5-10 47 2 75 69 157 91 113 97 123 97 169 0 47-25 86-70 109-38 20-136 19-178-2z"/><path d="m2220 11166c-5-13-23-93-40-177-30-142-40-181-40-151 0 23-63 52-111 52-87 0-239-102-239-161 0-58 67-90 149-69 120 29 181 52 181 65 0 21-24 19-120-10-46-14-94-25-107-25-29 0-63 17-63 30 0 24 75 89 129 114 93 42 136 24 170-70 25-72 48-70 56 3 10 88 55 313 72 360 8 23 12 46 8 52-11 19-35 12-45-13z"/><path d="m2583 10921c-78-6-89-12-79-36 5-14 14-15 49-10 79 13 128 28 124 38-4 14-10 15-94 8z"/><path d="m7033 10734c-3-9 0-103 9-208 8-105 14-192 12-194-1-2-24-2-52 0l-50 3 38 80c41 84 43 117 10 135-54 29-120-11-120-74 0-33-2-34-52-47-66-17-203-18-218-3-19 19 4 50 65 89 30 19 55 39 55 44 0 33-48 16-134-47-48-35-49-35-43-12 33 126 33 160-1 160-16 0-21-10-26-58-4-33-17-98-30-145-12-48-21-89-18-92 14-14 39-2 55 25 17 29 37 40 37 21 0-38 197-39 304-2 33 12 63 21 67 21 11 0-29-93-44-102-7-4-52-8-101-8-126 0-314-20-326-35-7-9-6-16 3-24 10-8 31-7 82 4 38 8 129 17 202 21l132 7-6-37c-5-31-3-36 14-36 27 0 44 22 41 51l-3 24 244 6c171 5 246 10 251 19 5 8 9 7 13-4 4-9 13-16 21-16 12 0 14 7 9 32-8 40-10 248-3 343 5 69 5 70-20 70h-25v-207l1-208-40 7c-26 4-48 16-66 37l-28 30 25 32c28 38 49 135 39 187-9 47-47 77-99 77-32 0-46-7-78-39-22-21-39-48-39-60 0-11 0-23 0-26s-9-14-20-25-20-28-20-37c0-16-2-16-10-3-6 8-10 60-9 115v113c-1 18-41 15-48-4zm272-86c17-16 11-122-10-167-22-49-35-39-35 27 0 38-2 42-25 42-22 0-25-4-25-35 0-20 7-51 14-70 15-35 15-35-16-51-17-9-40-13-54-10-20 5-24 13-24 44 0 37 28 130 56 184 25 49 86 67 119 36zm-325-135c0-12-33-43-47-43-16 0-17 22-1 38 13 13 48 17 48 5zm189-163c23 0 54 6 69 14 24 12 30 12 49-4 22-18 22-18-15-24-20-3-70-6-109-6-72 0-73 0-73 27 0 25 1 25 18 10 11-10 36-17 61-17z"/><path d="m3026 10695c-21-16-15-45 8-45 15 0 36 29 36 49 0 15-21 13-44-4z"/><path d="m8510 10490c-70-10-106-24-118-47-5-10-13-56-17-103-3-47-15-109-26-139-10-30-16-58-13-62 6-11 44-12 44-1 0 4 55 7 123 7 124 0 177 8 177 25 0 6-36 8-97 4-103-7-184 6-182 29 2 37 18 51 80 69 71 20 125 23 134 8s35-12 35 4c0 38-90 52-177 27-18-5-33-8-33-6 0 3 11 29 25 60 13 31 22 62 19 69-4 11 10 16 60 21 36 4 77 4 91 1 20-5 25-3 25 13 0 30-40 36-150 21zm-75-90c-4-12-9-19-12-17-3 3-2 15 2 27s9 19 12 17c3-3 2-15-2-27z"/><path d="m8132 10414c-27-19-77-114-93-178-10-39-9-50 6-72 14-22 22-25 53-22 21 3 44 8 53 12 13 6 10-14-17-104-40-130-42-160-14-160 23 0 44 34 37 61-3 10 15 80 40 156 53 163 70 279 46 306-20 22-81 23-111 1zm78-32c0-4-7-18-16-31-11-15-13-26-6-33 26-26-50-153-87-146-37 8-3 140 50 197 19 20 59 29 59 13z"/><path d="m4835 10338c-8-28-29-76-46-106-32-57-32-82-1-82 13 0 26 16 42 51 23 48 98 129 120 129 16 0 12-38-11-91-16-36-19-53-11-61s33 12 88 68c43 44 79 74 81 67s-5-41-17-76c-26-76-24-101 9-105 19-3 22 0 17 14-4 9 6 51 21 93 40 113 17 146-69 98-35-20-50-24-52-15-13 44-17 48-41 48-15 0-35-4-45-10-14-7-19-5-23 10-3 12-14 20-26 20-16 0-24-11-36-52z"/><path d="m5269 10293c-50-45-92-115-87-145 5-36 65-37 126-2l47 26 39-26c22-15 53-26 72-26 53 0 134 22 134 37 0 10-7 11-27 6-41-11-115-8-140 6-18 9-23 21-23 51 0 21-5 42-10 45-6 4-8 10-6 14 3 4-2 17-10 29-24 34-67 29-115-15zm77-35c-7-37-30-64-68-84-65-33-65-1 0 66 57 59 77 65 68 18z"/><path d="m7650 10312c0-21 4-22 119-22 109 0 148 8 122 25-6 3-62 8-126 12-113 6-115 6-115-15z"/><path d="m5877 10303c-4-3-7-15-7-25 0-17 12-18 180-18 162 0 209 7 165 24-8 3-63 8-122 11-60 3-131 8-159 10-28 3-54 2-57-2z"/><path d="m7068 10204c-16-15-7-34 16-34 13 0 34-8 47-19 20-16 22-21 9-36-7-9-31-25-52-36-43-22-47-33-16-50 40-21 198 5 198 33 0 5-27 6-62 2l-62-7 27 32c33 40 33 44 0 81-28 30-90 50-105 34z"/><path d="m5870 10172c0-20 5-20 157-16 86 3 159 7 162 9 14 15-27 20-165 24-149 3-154 2-154-17z"/><path d="m6935 10158c-5-14-45-243-45-261 0-7-11 0-24 15-34 38-78 58-130 58-56 0-91-15-105-47-34-75 3-97 163-98h120l12 50c7 28 20 95 28 150s18 110 22 123c5 18 2 22-15 22-12 0-24-6-26-12zm-155-234c46-19 69-48 44-58s-124-7-144 4c-35 19-2 67 47 69 7 1 31-6 53-15z"/><path d="m8675 9638c-2-7-11-62-20-123-9-60-20-128-25-150-6-24-5-44 0-49 14-14 39 12 44 48 3 17 12 73 21 125 20 123 20 161 0 161-9 0-17-6-20-12z"/><path d="m8145 9618c-2-7-13-49-24-93s-27-102-35-128c-14-43-14-49 0-54 8-3 23 2 34 12 15 14 23 15 34 6 17-14 123-16 229-4 76 9 78 9 72-11-3-12-8-35-11-52l-6-31-142-6c-180-8-248-17-243-31 2-6 21-11 43-10 662 10 1304 29 1301 38-3 8-144 11-460 11-252 0-457 3-457 6 0 18 44 147 56 164 32 45-2 83-56 63-32-12-79-56-90-84-10-24-51-34-148-34-55 0-63 2-60 18 2 9 29 31 60 47 57 30 75 55 39 55-10 0-44-13-75-28-31-16-56-26-56-23s7 38 16 77c17 71 15 104-6 104-6 0-13-6-15-12zm326-189c-13-11-27-17-30-14-3 4 5 15 19 25 32 24 42 14 11-11z"/><path d="m9100 9508c1-91 11-172 24-185 19-20 25 23 18 142-6 112-9 130-24 133-16 3-18-6-18-90z"/><path d="m8900 9543c-88-27-130-71-130-136 0-80 29-96 163-94 93 1 116 7 80 21-14 6-12 11 15 36 36 33 54 72 45 97-12 34-46 63-82 68-20 4-45 8-56 10-11 1-27 1-35-2zm115-58c30-29 31-35 4-69-39-50-55-51-85-6-15 22-33 40-40 40-22 0-16-36 11-68l25-30-29-7c-40-9-85 13-89 44-12 80 29 119 126 120 43 1 57-3 77-24z"/><path d="m6155 9448c-2-7-6-71-9-143-4-71-9-170-12-218-6-83-5-89 12-85 22 4 30 61 40 306 6 137 5 152-10 152-9 0-18-6-21-12z"/><path d="m6756 9442c-2-4-8-91-12-193-5-142-4-188 6-194 6-4 15-3 20 1 4 5 11 96 15 202 7 171 6 192-8 192-9 0-18-3-21-8z"/><path d="m6975 9424c-33-8-65-20-71-27s-16-61-22-121c-6-63-15-112-22-116s-9-13-5-20c6-9 29-11 88-6 88 7 125 20 95 31-10 4-40 5-68 3-50-3-50-3-49 27 1 41 11 60 32 61 9 0 34 1 55 2 41 3 71 17 59 29-9 9-73 9-110-1-23-5-24-4-23 41 1 54 3 55 127 75 42 7 77 18 78 23 2 16-98 15-164-1z"/><path d="m6330 9400c-37-9-62-34-54-55 3-7-2-25-12-40-26-39-35-105-19-136 25-47 76-62 181-56 63 4 94 2 97-6 2-6 11-8 20-4 9 3 14 13 11 20-3 9 8 23 30 36 45 28 76 79 76 124 0 47-47 103-98 117-43 12-181 12-232 0zm240-45c64-33 67-91 8-149l-43-41-3 45c-3 43-17 64-34 54-4-3-8-29-8-59v-53l-50-7c-55-8-104 0-137 21-17 11-23 24-23 50 0 63 62 150 113 157 53 8 145-2 177-18z"/><path d="m4553 9228c-36-72-63-170-63-227 0-31-4-40-21-44-12-3-19-11-17-18 9-27 508 3 508 31 0 15-39 18-107 9-38-4-128-11-202-15-132-7-133-7-123 13 6 11 18 56 27 99 9 44 21 93 27 111l12 32 15-46c20-58 59-90 90-74 11 6 32 28 46 49 28 41 30 33 14-51-5-32-7-67-4-77 9-29 33-24 39 8 14 74 28 200 25 222-6 41-32 34-63-16-16-26-41-60-54-76-24-28-25-28-38-10-7 11-19 46-26 78-10 46-18 60-33 62-16 2-27-12-52-60z"/><path d="m7521 9261c-72-6-103-23-66-37 18-7 233 11 243 21 4 3 0 10-8 15-16 10-46 10-169 1z"/><path d="m8903 9193c-23-9-14-33 12-33 36 0 31-18-17-67-35-36-39-44-28-58 18-22 115-17 115 5 0 9-11 16-31 18l-31 3 28 29c56 55 20 131-48 103z"/><path d="m8732 9143c-5-10-15-41-21-70l-13-51-46 20c-92 41-234 19-248-38-14-56 77-87 184-64 31 7 75 15 96 19 40 6 40 6 62 86 12 44 23 86 25 94 6 22-28 25-39 4zm-100-129c29-15 30-17 13-27-23-13-145-22-180-13-14 4-25 12-22 19 12 37 133 50 189 21z"/><path d="m5413 9041c-54-7-84-23-64-35 6-4 59-2 118 4 133 14 153 18 153 30 0 11-122 11-207 1z"/><path d="m5497 8943c-87-3-98-6-95-21 3-14 16-17 88-16 86 0 165 18 155 35-4 5-16 8-28 7s-66-4-120-5z"/><path d="m9125 8889c-93-5-812-9-1596-10-1313-1-1665-7-1318-23 155-7 1379-11 2164-8 522 2 1014 21 1075 42 31 10-88 10-325-1z"/><path d="m4825 8831c-17-10-43-32-57-49l-26-31-6 29c-11 58-72 60-130 4l-35-34-6 30c-5 22-12 30-27 30-19 0-20-4-14-52 3-29 6-68 6-85 0-53 30-42 65 24 37 67 81 106 95 83 5-8 10-36 10-62 0-66 24-63 77 10 39 54 86 92 98 80 3-3 11-34 17-69 12-66 28-96 47-85 6 4 8 21 5 39-26 155-49 182-119 138z"/><path d="m6904 8749c-10-16-19-372-10-395 6-15 9-16 20-3 19 19 27 400 9 406-6 2-15-2-19-8z"/><path d="m6393 8718c-14-23-51-253-42-262 5-5 14-4 24 4 12 10 24 10 58 1 50-14 129-11 134 5 2 7-23 14-69 19-71 7-72 7-50 23 63 45 87 71 76 82-13 13-75-9-106-37-22-20-22-15-3 84 8 43 15 81 15 86 0 12-28 8-37-5z"/><path d="m7088 8689c-16-6-28-17-28-25 0-11 7-13 28-7 15 5 51 8 80 8 46 0 57-4 78-28 29-34 30-49 3-104-24-50-39-51-51-4-6 23-14 31-26 29-18-4-19-47-1-79 12-23 2-29-47-29-36 0-47 5-61 26-14 23-15 33-5 77 18 76 18 79 4 84-21 8-55-83-49-135 7-68 33-87 115-88 37 0 77-6 90-13 31-17 48-4 26 20-16 17-15 20 14 54 34 38 57 105 48 139-3 12-19 35-36 51-26 25-39 29-93 32-34 1-74-2-89-8z"/><path d="m7395 8668c-23-72-34-258-17-285 4-6 13-13 21-15 10-2 13 19 15 97 1 55 6 126 10 158 8 50 7 57-8 57-9 0-18-6-21-12z"/><path d="m6639 8559c-59-63-50-115 20-113 35 1 41-2 35-15-3-9-9-36-12-60-4-38-3-43 14-39 15 2 23 22 39 95 15 69 24 93 37 97 23 6 23 17-2 44-33 35-94 30-131-9zm70-38c-17-37-53-59-64-40-8 12 11 45 37 63 39 27 48 20 27-23z"/><path d="m8740 8528c-92-13-104-23-119-104-7-38-19-88-27-111-9-24-12-48-8-54 8-14 225-5 253 10 30 18-15 24-114 17l-94-6 15 42 14 43 101-3c80-3 100-1 97 10-3 9-31 14-96 16l-92 3 16 31c13 25 13 32 3 39-8 4-10 11-7 15 12 11 89 23 155 24 61 0 89 14 62 31-17 11-72 10-159-3z"/><path d="m8315 8468c-30-24-75-110-75-146 0-32 38-48 81-33 18 6 34 9 36 7s-3-32-12-66c-20-76-17-124 8-128 13-3 17 3 17 25 0 15 14 78 32 138 35 122 38 193 11 212-26 19-67 16-98-9zm75-47c0-32-6-44-35-70-44-38-80-42-69-8 18 59 63 117 91 117 8 0 13-13 13-39z"/><path d="m7750 8348c-87-10-112-20-94-38 7-7 42-7 110 1 54 6 124 14 154 18 30 3 55 11 55 16 0 13-119 15-225 3z"/><path d="m6828 8320c-346-4-460-8-470-17-15-16-56-15 367-14 259 1 355-2 342-10-30-18-9-28 43-22 33 4 55 2 65-7 21-18 4-36-65-69-30-14-56-34-58-44-3-15 7-17 88-17 69 0 91 3 88 13-3 6-24 14-48 17l-43 5 37 17c20 10 42 30 48 44 11 24 10 29-14 49l-26 23 126 6c143 8 182 13 182 27 0 5-45 8-102 7s-309-5-560-8z"/><path d="m6963 8207c-11-14-30-60-42-102-19-63-26-75-40-69-85 35-157 39-217 12-33-16-40-46-16-70 29-29 94-38 187-26 82 11 120 33 110 61-3 7 8 55 25 107 32 97 29 132-7 87zm-125-193 37-17-40-8c-57-11-109-11-142 2-27 10-27 11-9 25 27 19 108 18 154-2z"/><path d="m13140 7578c-5-13-30-107-55-210-47-194-57-288-31-288 17 0 22 14 31 85 3 28 15 82 25 120 33 118 70 297 64 306-9 16-24 10-34-13z"/><path d="m13637 7533c-4-3-7-34-7-67 0-34-7-106-15-161-19-134-20-205 0-205 8 0 16 13 19 33 40 244 49 407 23 407-8 0-17-3-20-7z"/><path d="m5287 7493c-9-21-21-58-27-83-7-25-27-95-47-157-19-62-32-117-28-123 10-17 30-11 55 15 21 23 24 23 36 7 10-14 28-17 90-17 102 0 112 20 14 30-64 6-70 9-70 30 0 14 20 41 55 74 55 52 66 71 42 71-16 0-83-44-126-84-26-24-32-27-27-11 4 11 19 61 33 110 13 50 31 106 38 126 8 20 11 39 8 43-15 15-31 3-46-31z"/><path d="m5916 7518c-10-31-46-427-41-440 7-18-49-28-151-28h-64l11 28c68 171 77 208 56 236-9 12-27 18-60 18-39 1-53-4-79-28-84-80-62-162 36-128 22 8 40 13 42 12 5-6-50-133-60-140-6-4-65-8-131-8-135-1-196-9-202-27-3-9 34-10 156-6l161 6v-30c0-19 6-33 16-37 23-9 24-8 24 22 0 15 5 33 12 40 15 15 371 16 717 2 220-9 285-6 254 13-15 9-273 26-494 33l-216 6 8 47c11 66 39 339 39 384 0 26-4 37-15 37-9 0-17-6-19-12zm-218-245c-2-22-13-33-48-50-45-24-80-30-80-15 0 5 14 28 30 50 26 36 35 42 66 42 33 0 35-2 32-27z"/><path d="m12427 7514c-4-4-7-20-7-35 0-46-28-168-61-270-30-91-33-129-9-129 5 0 16 16 24 35 17 41 27 44 41 13 6-12 21-25 35-29 40-11 128-10 135 2 10 16 4 18-64 25-34 4-64 11-67 16-9 15 22 54 71 89 43 31 59 59 33 59-7 0-42-18-77-41-35-22-65-38-67-36s5 39 17 83c32 122 29 251-4 218z"/><path d="m6459 7488c-18-33-49-234-49-314 0-51 4-75 15-84 24-20 32-4 27 52-4 52 19 236 39 311 15 55-8 80-32 35z"/><path d="m6166 7428c-42-9-76-33-76-53 0-7-7-18-16-26-23-19-53-82-60-126-5-33-2-44 18-67 21-25 33-29 95-33 39-3 85-1 102 5 19 7 33 7 36 1 4-5 13-9 22-9 10 0 14 6 10 20-3 13 2 25 14 34 27 19 59 84 59 120 0 41-44 111-77 124-44 17-85 20-127 10zm107-39c52-24 70-93 41-154-24-50-40-51-57-2-16 48-47 64-47 24 0-14 7-41 15-60l15-36-45-7c-49-7-113 2-132 18-20 17-15 61 13 114 14 27 31 59 38 71 6 12 20 27 31 32 27 13 99 13 128 0z"/><path d="m13342 7389c-23-12-49-34-57-50-19-36-19-39 2-39 14 0 14-3-5-22-43-47-55-123-23-152 12-11 41-18 82-21 35-3 81-7 102-11 24-4 37-2 37 5 0 6-3 11-7 11-5 0-14 4-22 9-11 7-6 17 24 46 60 61 81 138 54 199-22 48-115 60-187 25zm146-37c16-21 15-77-2-110s-74-88-82-80c-3 4-8 25-11 48-4 31-10 40-22 38-20-4-27-59-11-88 11-20 9-21-32-18-40 3-43 5-46 33-2 20 6 44 23 68 29 43 31 57 10 57-20 0-10 21 22 44 50 37 125 40 151 8z"/><path d="m9846 7318c-23-121-44-402-32-433 5-14 9-15 21-5 10 9 15 33 15 79 0 36 7 120 15 186 19 157 19 195 0 195-8 0-17-10-19-22z"/><path d="m12778 7301c-46-40-95-137-81-160 15-25 52-25 85-1 16 12 31 20 34 18 2-3-6-32-19-66l-22-62-180-2c-240-4-242-22-2-26l177-2v-35c0-28 4-35 19-35s21 8 23 33c2 26 8 32 28 34 14 1 192 7 395 14 204 6 377 15 385 20 38 20-47 22-408 10-212-6-386-10-388-8s9 37 25 78 32 90 36 109 13 38 19 42c8 5 7 15-4 35-23 42-77 44-122 4zm84-12c5-14-108-136-117-127s29 79 60 111c29 29 51 35 57 16z"/><path d="m10389 7304c-10-13-15-60-17-187-4-187 0-217 26-217 15 0 17 16 17 177 0 98 2 191 5 207 6 34-11 44-31 20z"/><path d="m4516 7228c-3-13-8-41-11-63s-18-86-31-142c-27-107-28-138-5-138 10 0 24 35 42 105 16 58 28 108 29 113 0 4 5 7 10 7 6 0 10-15 10-33s7-43 16-55c23-33 58-28 93 15l31 37-7-66c-7-76 1-118 22-118 11 0 15 13 15 53 0 28 6 84 14 122 8 39 16 88 18 110 2 34 0 40-16 40-13 0-24-14-38-50-10-27-34-68-53-90-41-47-50-41-60 44-12 102-23 131-50 131-17 0-26-7-29-22z"/><path d="m8360 7225c-8-2-47-8-87-15-40-6-76-17-81-23-5-7-12-63-15-125l-6-113 27-10c26-10 134-5 167 7 34 13-1 24-76 24h-79l6 28c4 15 10 30 13 34 4 5 42 11 84 14 57 5 77 11 77 21 0 12-15 14-75 11-75-3-75-3-75 25 0 15-4 27-10 27-5 0-10 7-10 15 0 19 40 35 88 35 52 0 114 19 109 33-4 12-30 18-57 12z"/><path d="m7390 7194c-6-15-14-54-19-88-5-33-16-88-25-121-22-81-21-127 1-123 18 3 32 44 54 152l11 60 14-39c12-36 37-65 55-65 15 0 68 51 76 73 6 15 10-4 13-63 4-72 8-85 22-85 15 0 18 17 22 147 3 119 2 148-10 152-9 4-24-17-48-67-19-40-44-83-55-97l-20-25-9 25c-5 14-13 50-16 80-12 99-16 110-37 110-12 0-23-10-29-26z"/><path d="m10061 7178c-32-7-56-22-89-56-75-78-92-145-46-181 23-18 41-21 118-21 50 0 106 4 124 9 24 7 40 6 60-5 35-18 52-18 52 1 0 8-3 15-7 15-5 0-14 4-21 9-11 6-9 15 7 42 26 43 26 79 2 128-29 55-109 79-200 59zm151-58c10-12 21-33 24-46 6-24-12-84-25-84-3 0-16 18-29 40-14 25-30 40-42 40-26 0-25-12 5-60 13-21 21-41 16-44-36-23-205-16-214 8-11 27 7 67 52 114 56 60 61 62 135 58 47-2 63-7 78-26z"/><path d="m10600 7156-65-11-5-103c-3-56-3-107-2-112 7-20 237 2 259 24 18 18-23 22-112 10-54-7-101-11-103-9s-1 12 2 23c5 15 21 21 74 28 82 11 83 29 2 28l-60-1v43 42l73 12c88 14 97 17 97 30s-75 11-160-4z"/><path d="m7964 7095c-48-49-69-106-53-138 9-15 18-18 48-14l37 5-18-72c-24-95-24-149 0-144 9 2 18 14 20 28 7 58 65 268 84 309 21 43 21 44 3 57-37 27-75 17-121-31zm69-24c-8-22-31-54-49-72-34-33-34-33-34-8 0 35 64 119 91 119 4 0 0-18-8-39z"/><path d="m11529 7108c0-7-1-44-1-83 0-60 3-70 19-73 13-2 25 11 42 43 26 49 55 73 66 55 4-6 5-34 3-63-2-37 1-52 10-52 7 0 45 32 84 70l71 70 18-55c18-50 40-80 61-80 4 0 8 6 8 13 0 13-40 113-53 135-16 24-61 13-107-27l-45-38-10 31c-13 40-55 47-96 17l-28-21-3 33c-2 21-9 33-20 35-10 2-18-2-19-10z"/><path d="m9319 7083c-1-5 0-24 1-44s-6-53-14-74c-21-48-20-55 4-55 14 0 26 14 40 43 26 53 39 69 72 91s41 10 32-49c-6-40-4-45 13-45 11 0 34 17 51 39 17 21 45 44 62 49 35 13 38 6 42-93 2-46 7-60 18-60 12 0 16 17 18 77 3 87-8 118-42 118-29 0-92-26-102-41-4-7-12 1-20 20-11 26-18 31-47 31-19 0-46-9-60-20-26-20-26-20-32 0-6 19-34 29-36 13z"/><path d="m8777 7063c-19-19 2-23 90-21 66 2 98 7 101 16s-20 12-90 12c-52 0-98-3-101-7z"/><path d="m6925 7050c-14-23 13-32 88-28 74 3 98 11 83 25-13 14-163 16-171 3z"/><path d="m7786 7043c-4-9-2-21 3-26 15-15 41 0 41 23 0 25-35 28-44 3z"/><path d="m4968 7039c-37-21-12-85 29-77 21 4 33 46 21 71-10 19-25 21-50 6z"/><path d="m11010 7036c0-22 23-26 141-26 85 0 109 3 109 14 0 14-85 26-192 26-43 0-58-4-58-14z"/><path d="m12015 7021c-7-12 12-24 25-16 11 7 4 25-10 25-5 0-11-4-15-9z"/><path d="m8810 6975c0-12 19-15 109-15 115 0 153 6 129 21-7 5-64 9-125 9-94 0-113-3-113-15z"/><path d="m13253 6943c-7-2-13-12-13-20 0-11 7-14 25-11 40 8 29-11-19-32-48-22-71-44-61-59 8-14 101-41 138-41 46 0 27 23-34 40-48 15-51 17-28 23 28 7 79 50 79 66 0 29-51 49-87 34z"/><path d="m5942 6928c2-6 22-17 44-23l39-11-53-28c-37-19-52-32-50-44 3-14 17-18 82-20 60-2 77 0 74 10-3 7-22 14-43 16l-38 3 32 27c36 30 35 53-5 71-33 15-87 15-82-1z"/><path d="m13081 6863c-7-43-15-81-17-85-2-3-25 5-49 19-30 16-63 26-95 26-42 2-54-2-77-26-22-22-26-31-17-45 19-29 63-44 140-46 61-1 75-4 80-18 6-19 29-24 38-10 11 19 48 232 43 246-4 9-12 16-20 16-9 0-17-26-26-77zm-107-87c19-8 37-19 41-26 10-16-120-9-136 7-31 31 35 44 95 19z"/><path d="m5786 6894c-13-15-35-54-47-86s-24-58-27-58-13 7-23 16c-40 36-134 9-169-49-24-39-24-41-3-62 16-17 25-17 146 1 29 5 37 3 37-10 0-9 8-16 19-16 15 0 20 10 26 47 12 83 55 183 82 194 16 6 23 15 21 26-5 28-34 26-62-3zm-114-161c33-30 22-41-47-48-36-4-68-5-71-3-10 10 9 39 35 53 35 19 61 19 83-2z"/><path d="m7335 6034c-6-190-4-259 4-267 9-9 14-9 20 1 8 14 21 277 21 434 0 80-2 88-19 88-18 0-19-14-26-256z"/><path d="m11040 6270c0-6 19-34 43-63 59-72 85-140 96-244 16-162-23-309-110-408-42-47-26-68 20-29 44 37 79 94 106 175 64 188 29 410-85 533-40 43-70 59-70 36z"/><path d="m4487 6228c-84-112-123-295-115-529 5-143 26-208 85-259 47-42 74-41 38 1-61 73-85 158-85 300 0 179 42 370 101 457 16 24 29 47 29 53 0 20-30 7-53-23z"/><path d="m6025 6228c-2-7-18-85-35-173s-35-179-40-202c-16-68-13-103 9-103 14 0 20 12 28 53 10 49 10 50 12 15 1-31 6-40 33-54 42-22 141-15 166 10 16 18 15 18-44 12-79-9-114 4-114 42 0 34 18 61 89 135 30 31 50 57 44 57-20 0-102-41-133-66-16-14-30-22-30-18s12 67 26 141 23 140 20 148c-7 18-25 20-31 3z"/><path d="m8423 6225c-30-21-87-126-109-200-13-44-18-97-18-195-1-121 1-140 22-182 22-44 78-98 101-98 17 0 14 7-28 60-32 40-41 63-51 119-13 79-7 192 16 286 15 61 71 172 99 195 8 7 12 16 9 21-7 13-16 11-41-6z"/><path d="m6714 6187c-11-31-9-344 4-385 16-54 38-51 34 4-2 21-3 119-2 217 1 155-1 177-15 177-9 0-18-6-21-13z"/><path d="m5590 6155c0-8 6-15 13-15 23 0 58-46 73-95 18-62 18-227 0-330-18-96-56-212-91-271-29-49-30-54-12-54 51 0 124 175 152 366 27 184-2 354-69 397-32 21-66 22-66 2z"/><path d="m10368 6138c-14-22-38-229-38-326 0-36 3-43 17-40 15 3 20 23 30 132 7 71 14 130 16 133 2 2 10-17 17-42 21-76 76-97 122-47 13 15 44 55 68 90 24 34 47 59 51 55 5-5 10-65 11-133 3-103 6-125 18-125s15 22 18 126c1 69-2 138-8 153-23 60-57 41-137-77-26-38-53-72-61-75-22-8-38 21-57 101-24 100-40 117-67 75z"/><path d="m7050 6124c-64-17-100-39-100-59 0-8 4-15 9-15s0-17-10-37c-24-46-25-134-3-168 33-50 119-54 206-9 25 13 31 13 50-1 22-15 58-21 58-9 0 4-11 17-26 30l-25 24 27 36c32 41 44 126 24 163-14 27-84 61-125 60-16 0-55-7-85-15zm150-39c40-20 45-82 12-137-20-35-32-36-32-3 0 18-5 25-20 25-23 0-28-37-10-71 10-17 6-22-32-39-118-54-182 14-132 141 14 34 15 42 3 50-13 8 2 17 71 42 31 11 112 6 140-8z"/><path d="m9597 6123c-4-3-7-76-7-162 1-211 14-273 55-257 13 5 14 9 3 28-8 15-13 88-16 211-3 137-8 187-17 187-6 0-15-3-18-7z"/><path d="m11540 6103c-83-6-90-10-90-49 0-19-6-37-12-39-9-4-13-38-13-120-1-103 1-115 16-115 23 0 28 10 37 62l8 43 74 7c93 9 120 16 120 28 0 6-37 10-89 10-100 0-101 0-101 79v48l53 7c28 3 77 6 107 6 59 0 87 11 76 29-7 10-79 12-186 4z"/><path d="m9044 5963c-10-168-9-229 6-267 10-26 13-28 26-15 11 11 12 25 7 53-5 21-5 88 0 150 10 150 6 210-14 214-14 2-17-17-25-135z"/><path d="m6371 6044c-42-48-75-131-64-160 14-38 75-34 121 8l22 21-1-29c0-16-6-65-12-109l-12-80-202-9c-171-7-203-11-203-24s25-14 199-9l199 7 6-30c7-38 34-40 38-2l3 27 495 13c272 7 502 15 510 18 12 4 12 7-4 16-13 7-169 8-509 3l-490-7 6 33c4 19 11 72 17 117 6 46 15 95 21 109 13 35 11 70-6 103-13 25-21 30-54 30-34 0-45-6-80-46zm97 4c18-18 15-34-14-78-23-35-78-80-98-80-12 0-6 42 10 77 17 34 69 93 83 93 4 0 12-5 19-12z"/><path d="m9280 5988c-45-23-61-51-42-70 7-7 18-2 34 17 19 22 35 29 75 32 45 5 55 2 77-20 30-30 35-94 12-136l-14-25-15 30c-21 40-39 55-56 44-11-6-9-17 13-54l27-46-27-11c-16-5-46-9-68-7-41 3-41 3-44 54-2 36 1 54 13 64 8 7 15 16 15 21 0 15-38 10-54-7-21-21-22-127-1-147 23-24 96-30 148-12 43 14 49 14 72-1 19-12 29-14 37-6s5 16-13 31c-22 18-23 20-7 38 24 26 38 97 27 137-23 84-121 119-209 74z"/><path d="m9900 5949v-62l-45 5c-26 3-48 1-52-5-9-15 27-37 63-37 28 0 33-4 36-27 2-17 10-29 21-31 14-3 17 4 17 32 0 29 4 36 19 36 26 0 51 10 51 21 0 5-16 9-35 9h-35v60c0 53-2 60-20 60s-20-7-20-61z"/><path d="m4505 5948c-11-68-45-311-45-324 0-20 38-17 44 4 2 9 7 49 11 87 4 39 9 73 11 77 3 4 14-2 25-13 31-31 68-21 106 29l33 44v-34c0-19-5-61-11-93-9-49-8-60 5-73 10-10 19-13 25-7 5 6 14 73 20 151 14 184 14 184-6 184-12 0-29-23-51-68-69-140-94-144-112-18-10 73-15 86-31 86-13 0-20-10-24-32z"/><path d="m10866 5945c-25-27-50-101-44-131 2-10 16-25 32-33 25-12 33-11 62 2l33 16-6-109c-5-97-4-110 11-116 9-4 19-5 21-2 3 2 8 82 11 176 7 171 7 173-16 197-31 33-74 33-104 0zm82-47c4-33-47-94-71-85-17 6-11 52 12 95 17 33 55 26 59-10z"/><path d="m5346 5851c-39-40-40-40-50-18-19 36-58 34-94-7l-31-35-3 32c-2 21-9 33-20 35-16 3-18-6-20-72-1-42-2-84-2-93-1-10 7-19 16-21 12-2 23 11 38 46 12 27 35 62 51 78l29 28v-52c0-73 22-69 85 16l49 67 11-63c12-64 37-104 54-87 6 6 6 25 1 50-5 22-13 60-17 85-7 38-12 45-33 48-18 2-36-8-64-37z"/><path d="m4916 5872c-3-5-8-27-12-50-5-35-10-41-33-44-35-4-34-32 1-36 23-3 27-8 30-40 4-51 32-51 36 0 3 34 7 38 43 48 50 14 50 30-1 30h-39l6 50c5 41 3 50-10 50-9 0-18-4-21-8z"/><path d="m8596 5868c-15-43-26-97-26-125 0-53 32-43 75 21 46 70 63 77 67 28 4-53 28-52 67 3 18 25 36 45 41 45s10-30 12-67c2-55 6-68 21-71s17 6 17 75c0 48-5 84-12 91-20 20-48 14-79-17-24-24-29-26-29-11 0 25-25 43-49 35-11-3-33-21-50-40l-30-35 2 36c2 36-18 60-27 32z"/><path d="m7746 5832c-11-18 18-30 103-41 103-13 178-14 186-2 10 16-13 23-116 32-55 4-115 11-133 15-19 3-36 1-40-4z"/><path d="m11568 5771c-59-9-110-19-114-23-16-17 36-20 145-8 132 15 174 26 151 40-20 13-55 11-182-9z"/><path d="m7724 5676c-4-9-3-20 1-24 3-4 67-8 141-10 111-3 134-1 134 11 0 11-24 15-117 20-65 2-126 8-135 12-12 5-20 2-24-9z"/><path d="m7017 5623c-15-15-5-32 20-35 43-5 38-26-17-77-30-28-50-53-46-60 11-18 151-14 166 4 14 17 13 17-55 15l-50-2 38 37c22 22 37 45 37 60 0 38-70 82-93 58z"/><path d="m6835 5548c-2-7-9-33-15-58-7-25-21-73-31-106l-20-61-37 18c-48 25-186 27-220 3-61-42-1-71 162-75 98-3 120-1 127 11 16 30 69 224 69 251 0 30-26 42-35 17zm-160-227 40-7-56-8c-59-8-113 0-103 15 6 11 63 11 119 0z"/><path d="m6472 4939c-16-3-41-14-55-25-55-40-165-231-376-655-120-240-226-447-235-460-18-24-18-24-13 11 34 214 34 439 0 508-22 45-58 60-98 41-32-16-53-44-42-55 4-5 21 0 36 9 41 24 50 22 67-19 19-46 23-294 6-404-6-41-13-100-14-130-3-49-1-55 18-58 11-2 27 5 36 15 25 28 141 241 183 334 148 332 418 820 462 836 10 4 21 11 25 17 5 8 60 9 170 6 189-5 870-6 1468-2 358 2 2193-3 2243-7 23-1 21-17-8-76-28-58-31-75-10-75 17 0 71 90 81 134 4 19 1 33-10 44-14 14-205 16-1960 16-1070 1-1958-2-1974-5z"/><path d="m6771 4699c-56-60-140-286-141-376 0-42 18-81 42-89 29-9 33 2 13 40-18 33-18 37 0 123 13 60 35 122 72 195 29 58 53 111 53 117 0 17-18 13-39-10z"/><path d="m8510 4695c-5-13-17-50-26-82s-39-114-65-182c-27-68-49-130-49-138 0-21 30-15 51 10 10 12 18 16 19 10 0-28 63-47 157-48 87 0 115 6 99 22-4 4-49 10-101 13-101 5-128 17-109 48 14 22 93 75 172 114 62 31 77 55 31 51-13-2-69-25-124-52s-101-48-103-46c-2 1 8 31 22 66 34 89 66 194 66 219 0 28-28 25-40-5z"/><path d="m9351 4538c-27-112-44-209-45-250l-1-68h-152c-84 0-153 1-153 3 0 16 73 184 86 198 17 19 17 22-4 63-16 34-29 47-56 56-32 10-40 9-71-10-39-24-111-135-121-188-13-64 48-92 114-52 36 22 39 16 18-35-11-27-22-35-48-39-69-11-433-26-633-26h-208l27 25c77 71 104 235 55 330-26 51-77 95-110 95-29 0-22-23 13-45 54-34 72-69 76-143 5-85-8-135-55-206l-38-57-340 6c-460 8-1237-6-1242-22-3-9 269-11 1169-9 645 2 1203 7 1239 11l65 7v-48c-1-37 3-49 14-49 10 0 18 16 24 48l8 49 257-5c141-3 324-11 406-18 83-7 255-13 383-13 196-1 234 1 242 14 5 8 10 17 10 20s-73 4-162 2l-161-4 7 226c6 202 5 227-9 232-9 4-18 5-20 2-2-2-10-107-16-232l-13-228-115 6c-171 11-420 34-431 41-20 13-9 125 30 288 46 192 47 207 22 207-15 0-25-30-61-182zm-330-38c43-24 5-132-58-167-42-24-93-31-93-13 0 24 71 150 96 169 31 24 30 24 55 11z"/><path d="m7097 4553c-30-38-71-84-91-103-48-46-59-32-52 73 4 78 4 78-22 75-15-2-27-7-27-13-1-5-20-49-44-97-26-52-44-102-45-125-2-61 23-47 48 27 12 36 28 74 34 85 10 18 11 17 12-12 0-45 9-63 38-74 32-12 61 5 125 74l49 52-6-35c-3-19-9-63-12-97-6-58-5-63 13-63 17 0 21 9 26 53 4 29 16 88 27 131 25 100 25 116 0 116-12 0-40-26-73-67z"/><path d="m9665 4598c-58-32-101-99-125-194-25-99 18-149 129-149 51 0 72-4 85-17 32-32 47-18 26 23-9 16-6 24 20 45 63 54 94 160 66 228-11 27-26 42-58 56-48 22-112 25-143 8zm120-38c54-20 63-107 20-191-27-50-45-52-70-5-22 42-55 61-55 31 0-9 9-33 20-54 22-44 16-51-45-51-78 0-96 55-54 165 38 102 100 137 184 105z"/><path d="m7387 4513c-3-5-8-28-12-51l-7-44-56 4c-36 2-57-1-59-9-4-12 9-17 70-28 35-5 37-8 37-41 0-28 4-35 17-32 9 2 20 17 25 34 6 26 14 33 43 38 49 9 52 23 7 31l-39 6 5 50c4 40 2 49-11 49-9 0-18-3-20-7z"/><path d="m7626 4511c-3-5-13-46-22-91-11-59-12-86-5-93 14-14 24-4 53 52 23 42 81 86 100 75 4-3 8-25 8-50 0-56 20-59 54-6 32 50 72 86 81 73 3-6 9-39 13-73 5-48 11-64 25-66 14-3 17 4 17 45-1 62-15 124-32 134-23 15-37 10-76-25-36-33-39-34-50-15-15 23-69 26-98 4-27-20-32-19-36 12-3 27-22 41-32 24z"/><path d="m4981 4452c-10-19-36-107-75-261l-22-85-22 36c-37 60-119 75-202 37-77-35-127-98-116-145 8-32 29-35 176-32 100 2 125 6 125 17 0 12-21 14-115 13-63-2-121 2-129 7-25 17-4 60 46 91 35 23 59 30 95 30 60 0 89-27 108-98 15-56 26-70 41-55 14 14 130 434 124 451-6 18-23 15-34-6z"/><path d="m10818 4253c-10-3-18-9-18-14s0-12 0-15c0-12 240-15 262-3 11 6 16 14 12 19-10 8-229 20-256 13z"/><path d="m5160 4215c0-20 28-27 136-32 67-4 104-2 108 5 12 19-27 29-136 35-84 4-108 2-108-8z"/><path d="m5235 4096c-53-8-71-15-73-28-4-22-1-22 112-3 107 18 128 24 121 36-8 12-70 10-160-5z"/><path d="m10802 4082c2-9 17-19 33-24 52-14 225 7 205 25-3 3-58 7-123 9-103 5-118 3-115-10z"/><path d="m6721 3974c-98-82-161-389-93-456 29-29 36-19 22 33-36 133 47 395 132 417 42 11 43 26 2 30-22 2-40-5-63-24z"/><path d="m7366 3963c-22-69-95-478-87-486 21-21 37 4 50 79 8 44 29 153 47 243 18 91 31 168 28 173-9 14-32 9-38-9z"/><path d="m7906 3948c-15-43-58-238-66-297-10-74-6-101 16-101 13 0 16 12 29 109 3 25 17 91 31 148 14 56 24 113 22 125-3 25-26 36-32 16z"/><path d="m9415 3950c-3-5 6-17 20-26 65-43 95-160 75-300-12-82-59-197-117-286-9-15-14-30-11-34 23-22 82 52 127 160 74 178 63 389-25 471-28 26-58 32-69 15z"/><path d="m9835 3883c-89-6-95-9-95-51 0-20-4-53-9-72-25-99-34-182-22-189 7-5 70-9 142-10 106-2 129 0 129 12 0 11-23 15-105 19-58 3-108 7-111 11-3 3-3 27 1 54l6 48 80-4c65-2 79 0 79 12 0 21-22 27-91 27h-60l4 53 4 52 83 7c91 8 110 12 110 28 0 10-34 10-145 3z"/><path d="m8701 3841c-15-27-59-218-63-271-3-39-1-45 17-45 16 0 21 10 28 50 17 103 41 199 45 180 29-160 125-166 222-14 18 27 34 48 35 47 2-2-1-43-6-91-13-115-9-182 11-182 16 0 19 23 36 238l7 99-28-4c-23-2-41-20-89-88-88-121-121-120-147 5-6 33-16 68-21 78-11 22-35 22-47-2z"/><path d="m7573 3840c-27-11-58-66-42-76 6-3 24 6 40 22 55 53 141 24 155-52 8-41-10-95-40-123l-23-22-13 46c-13 47-33 66-51 48-7-7-3-28 10-61l21-52h-43c-24 0-48 5-55 12s-12 44-12 96c0 73-2 83-17 80-40-8-43-163-3-202 17-18 34-21 116-23 89-1 96 0 91 18-3 10 2 24 11 31 25 21 52 90 52 133 0 97-103 163-197 125z"/><path d="m6799 3768c-18-107-18-162 2-166 11-2 18 7 23 28 10 50 36 99 65 120 50 35 56 31 61-45 4-61 7-70 25-70 15 0 21 9 25 36 11 63 62 119 109 119 28 0 35-33 21-102-7-32-10-61-7-64 16-16 36 10 47 59 15 65 6 123-20 137-28 15-103-6-131-36l-22-24-12 23c-16 31-85 30-120-3l-25-23 3 38c1 30-2 40-15 43-13 2-18-11-29-70z"/><path d="m8207 3803c-2-4-7-25-11-45-7-38-7-38-61-38-42 0-55-3-55-15s13-15 56-15h55l-6-42c-6-45 5-75 24-64 6 4 13 29 17 56 7 50 7 50 45 50 40 0 52 13 23 24-9 3-25 6-36 6-17 0-19 6-16 42 2 33-1 44-14 46-9 2-18-1-21-5z"/><path d="m9196 3770c-19-17-44-50-55-74-54-110 3-164 113-109 27 14 28 14 22-2-11-30-34-148-40-208-7-62 6-100 30-95 12 2 16 23 18 88 3 104 40 259 67 279 29 21 26 95-6 126-37 38-103 35-149-5zm122-22c21-17 14-33-36-85-45-47-103-75-119-59-14 14 22 93 58 129 39 39 62 43 97 15z"/><path d="m11025 2929c-104-11-338-23-520-29-181-5-467-14-635-20-562-19-1637-34-2478-34-457-1-832-3-832-7 0-3 62-11 138-17 238-21 2054-10 2917 17 182 6 521 15 755 21 246 5 486 16 569 25 188 20 530 34 612 24 35-4 490-11 1012-15 521-4 947-10 947-14 0-3-9-44-21-89-13-52-17-87-12-92 6-6 14-5 20 3 17 20 53 147 53 184v34h-432c-238 0-527 4-643 9-115 6-446 12-735 14-458 4-549 2-715-14z"/><path d="m6442 2798c-101-152-231-415-498-1007-38-84-70-146-72-137s4 92 12 184c18 187 20 304 6 406-15 117-56 146-160 111-45-15-60-31-45-47 3-3 31 2 63 12 89 28 90 25 103-139 7-89 4-163-11-340-11-124-23-245-26-268-5-34-3-44 10-49 38-15 55 17 251 451 240 530 397 831 429 819 16-6 36 24 36 55 0 16-6 21-25 21s-35-15-73-72z"/><path d="m13226 2740c-36-11-66-38-66-61 0-27 27-48 77-60l45-12-30-30c-21-21-42-31-69-33-21-2-41-3-45-3-19-2-5-31 16-37 43-10 98 15 151 70 47 48 51 55 50 101 0 42-4 51-25 62-28 14-62 15-104 3zm89-40c3-6 3-19 0-30-8-25-60-27-94-4l-24 17 24 13c29 16 85 18 94 4z"/><path d="m11723 2710c-18-10-40-31-49-46-25-38-9-58 52-64l49-5-47-32c-26-18-56-33-67-33-27 0-27-27-1-35 25-8 92 29 134 74 17 17 37 31 46 31 12 0 17 8 16 28 0 15 3 37 7 48 18 51-75 74-140 34zm97-20c0-5-5-21-12-35-9-21-18-25-55-25-52 0-53 14-3 48 34 23 70 29 70 12z"/><path d="m10203 2671c-33-21-51-57-36-72 5-5 33-12 62-16 50-6 51-6 34-25-31-35-73-51-114-44-23 4-40 2-45-5-10-17 16-29 65-29 84 0 171 75 171 148 0 58-74 81-137 43zm84-19c6-4 13-14 15-21 2-11-8-14-47-12-27 2-52 4-53 6-5 4 50 34 63 34 6 1 15-3 22-7z"/><path d="m6567 2643c-48-47-78-129-85-224-4-74-4-76 28-112 20-23 41-37 56-37 31 0 30 6-5 39-17 16-33 40-37 55-21 84 42 247 109 279 46 23 47 37 4 37-25 0-43-9-70-37z"/><path d="m8627 2673c-14-13-6-23 19-23 17 0 40-13 64-38 49-49 69-127 51-204-16-74-53-149-95-196-22-24-33-43-26-47 32-20 82 33 132 141 59 127 46 268-33 339-28 25-48 35-72 35-19 0-37-3-40-7z"/><path d="m11518 2606c-48-15-68-33-45-42 21-8 139 27 145 44 5 15-48 15-100-2z"/><path d="m10740 2572c-65-35-47-101 31-111 57-8 60-26 12-81-36-40-40-42-61-29-19 12-24 12-31 0-24-37 28-62 77-37 36 19 74 62 92 105 12 29 11 34-6 51-10 10-39 22-64 27-29 5-45 14-45 23 0 17 30 27 108 36 79 8 70 28-14 32-48 2-73-2-99-16z"/><path d="m12850 2575c0-13 13-15 77-13 50 2 78 7 81 16s-17 12-77 12c-66 0-81-3-81-15z"/><path d="m7439 2546c-92-33-109-44-109-67 0-11-7-36-15-56-19-45-7-63 28-44 31 17 61 11 65-13 5-24-14-36-60-36-42 0-49-13-18-30 50-27 138 26 124 74-8 29-42 56-69 56-18 0-21 4-18 24 5 26 64 56 158 79 25 7 47 17 48 22 4 19-69 14-134-9z"/><path d="m9340 2548c-24-13-53-35-64-50-30-41-10-58 70-58 35 0 64-4 64-9 0-15-74-70-124-92-33-14-56-18-81-13-39 7-48-8-16-26 69-37 224 48 276 151 31 60 31 83 3 103-31 22-76 20-128-6zm99-17c9-6 11-18 7-35-6-25-9-26-77-26-65 0-70 1-58 17 14 16 85 53 104 53 6 0 16-4 24-9z"/><path d="m6679 2511c-38-39-49-59-54-95-9-55 3-73 51-82 24-4 42-1 59 10 60 40 88 169 43 200-34 24-48 20-99-33zm81-30c0-63-61-134-91-104-15 15 8 74 43 110 17 18 36 33 40 33s8-17 8-39z"/><path d="m7998 2549c-20-11-82-102-97-142-15-38-14-90 1-105 7-7 29-12 49-12 50 0 93 37 113 97 24 69 21 119-9 148-27 28-32 29-57 14zm33-122c-8-29-23-62-34-74-25-28-67-31-67-5 0 23 47 115 80 155 14 18 15 18 24-3 6-14 5-38-3-73z"/><path d="m11201 2479c-40-50-51-79-31-79 6 0 9-15 8-32-3-27 1-33 16-33s23 11 31 45c7 25 22 64 33 87 27 52 27 63 3 63-11 0-37-22-60-51z"/><path d="m6975 2501c-50-31-65-54-71-117-7-65 0-77 46-89 30-7 72 21 101 69l19 31v-31c0-36 13-49 55-57 63-11 126 40 140 114 9 47-23 89-69 89-39 0-76-25-76-51 0-24 6-24 37 1 33 25 49 25 63 0 8-15 8-30 0-55-14-41-44-65-82-65-31 0-36 17-17 52 18 33-7 49-31 20-19-23-19-23-13 27 6 51 6 51-30 66-44 18-36 19-72-4zm59-62c-1-43-48-112-73-107-13 3-15 15-13 58 4 60 29 92 67 87 16-2 20-9 19-38z"/><path d="m9787 2513c-7-12-57-196-57-210 0-7 9-13 20-13s20 7 20 16c0 8 12 55 26 104 14 50 23 94 19 100-7 12-22 13-28 3z"/><path d="m12187 2452c-37-37-67-73-67-80 0-23 38-12 65 20l27 31-7-39c-4-21-7-41-7-44 0-40 29-42 37-2 4 15 18 57 31 94 42 111 17 117-79 20z"/><path d="m12613 2474c-24-25-43-47-43-49 0-3 9-5 21-5 16 0 19-4 14-17-16-39-27-93-21-108 10-27 34-16 40 20 4 19 20 68 37 110 43 107 25 125-48 49z"/><path d="m11400 2501c-14-4-26-14-28-24-3-14 4-15 46-10 32 3 52 1 56-6 9-15-19-60-56-90-25-20-33-22-54-12-23 10-24 14-18 66 6 47 4 55-10 55-20 0-36-39-36-90 0-47 27-70 82-70 77 0 173 129 126 168-18 14-78 22-108 13z"/><path d="m9932 2480c-39-24-52-54-52-124 0-82 47-109 116-67 75 46 122 163 78 196-28 21-103 18-142-5zm116-22c7-9 6-25-3-51-15-45-39-73-79-94-43-22-57-3-49 66 5 46 10 56 37 72 36 22 79 25 94 7z"/><path d="m7687 2483c-3-4-8-27-12-50-6-39-9-43-36-43-19 0-29-5-29-15 0-9 9-15 25-15 21 0 25-5 25-30 0-23 5-30 19-30s21 8 23 28c3 23 9 28 46 36 57 12 59 40 2 34-35-3-39-1-35 17 11 52 10 70-7 73-9 2-18-1-21-5z"/><path d="m8263 2480c-12-5-29-22-37-38-20-38-36-110-29-128 8-20 69-28 104-14 62 26 107 122 77 163-16 21-82 31-115 17zm71-33c36-26-17-117-69-117-20 0-25 5-25 24 0 40 22 87 44 96 29 12 30 12 50-3z"/><path d="m12795 2480c-27-11-72-62-85-95-41-109 159-93 213 18 18 35 18 39 3 62-14 21-24 25-64 24-26 0-56-4-67-9zm92-36c15-40-49-94-112-94-25 0-27 3-21 28 8 30 49 69 81 75 39 8 46 7 52-9z"/><path d="m8466 2429c-31-28-56-55-56-60 0-13 44-11 59 4 11 10 13 6 8-20-8-41 18-68 31-32 10 27 41 116 49 142 11 34-35 17-91-34z"/><path d="m10984 2455c-7-18 3-35 22-35 20 0 30 30 13 41-20 12-29 11-35-6z"/><path d="m9611 2420c-14-8-8-40 7-40 5 0 15 6 21 14 15 17-8 39-28 26z"/><path d="m12384 2419c-6-10 11-29 26-29 3 0 11 4 19 9 17 11 5 31-19 31-10 0-22-5-26-11z"/><path d="m10469 2404c-10-13-10-17 2-25 17-11 21-11 38 0s7 41-12 41c-8 0-20-7-28-16z"/><path d="m11900 2398c0-18 20-38 38-38 24 0 10 45-15 48-14 2-23-2-23-10z"/><path d="m9002 2378c2-15 10-23 23-23 30 0 27 39-3 43-20 3-23 0-20-20z"/><path d="m6812 2377c-23-27-53-120-42-131 14-14 33 8 54 62 25 65 18 106-12 69z"/><path d="m8083 2353c-3-10-12-33-20-52-16-41-3-65 23-40 18 18 44 90 37 101-8 14-34 8-40-9z"/><path d="m5220 2280c0-21 45-32 117-28 77 5 89 10 78 27-8 14-195 15-195 1z"/><path d="m13564 2235c-15-15-24-34-22-47 4-31 26-33 39-4 15 33 27 33 35 1 10-40 50-65 103-65 45 0 111 29 111 49 0 19-21 23-43 9-58-38-109-27-131 26-12 30-41 56-61 56-3 0-17-11-31-25z"/><path d="m12890 2197c-55-5-674-10-1460-11-1147-1-1383-4-1475-16-93-13-345-15-1675-15-861 0-1634 3-1718 8-123 6-153 5-150-5 3-7 25-17 49-22s775-10 1669-13c1495-4 1641-3 1820 13 158 15 281 17 650 15 1416-7 2041-5 2207 8 217 16 265 23 271 39 4 14-41 14-188-1z"/><path d="m5375 2181c-89-5-110-9-110-21s17-15 96-14c93 0 165 17 153 35-3 5-11 8-17 7-7-1-61-4-122-7z"/><path d="m8989 2055c-35-19-55-66-40-94 17-30 43-41 100-41 56 0 60-6 32-41-16-19-30-24-90-27-49-3-71-8-71-17 0-31 102-34 159-5 44 22 71 75 71 138 0 49-22 79-68 92-48 13-61 12-93-5zm103-42c10-9 18-27 18-41 0-24-1-24-52-18-62 8-68 12-68 35 0 41 66 57 102 24z"/><path d="m11960 2027c0-8 9-22 21-33 50-46 64-91 63-214 0-95-4-125-22-171-31-79-72-131-131-170-32-20-48-36-42-42 35-35 152 68 202 176 30 65 33 83 37 183 5 128-9 186-59 247-30 36-69 50-69 24z"/><path d="m13535 2015c-26-25-31-50-16-74 14-21 39-6 43 26 4 37 29 41 70 10 18-14 52-31 76-38 37-11 51-10 97 5 61 19 101 49 72 54-8 2-36-4-62-12-67-23-95-20-155 19-64 41-92 44-125 10z"/><path d="m11752 1990c-26-16-33-26-30-47 4-33 49-48 121-39 26 3 47 1 47-3 0-16-80-81-99-81-24 0-37-18-23-32 17-17 74 8 119 51 43 42 60 90 43 122-26 48-121 64-178 29zm133-42c20-21 20-21-5-14-14 3-47 6-73 6-50 0-56 13-13 30 29 12 67 3 91-22z"/><path d="m6803 1979c-63-23-132-392-86-469 17-30 51-50 83-50s31 17-1 30c-63 26-72 91-39 260 27 134 47 182 70 175 22-7 33 8 25 34-7 24-24 31-52 20z"/><path d="m10511 1929c-64-12-130-47-145-78-17-31-3-73 34-106l22-20-24-5c-14-4-24-14-26-28-4-27 37-40 74-23 37 16 32 59-11 101-22 22-35 42-33 55 4 28 78 65 143 72 30 3 55 10 55 14 0 8-34 30-42 28-2-1-23-5-47-10z"/><path d="m10955 1903c-11-3-45-16-76-30-52-22-57-28-72-75-9-28-14-55-11-59 3-5 24-6 48-3 57 8 67-13 28-57-26-29-30-30-50-18-25 16-36 8-27-20 19-60 126-10 141 66 7 38-22 73-62 73-18 0-25 5-22 16 5 27 48 52 122 71 79 20 100 44 39 42-21-1-47-3-58-6z"/><path d="m8778 1883c-34-3-48-8-48-19 0-10 13-14 53-14 66 0 97 9 97 26 0 14-4 14-102 7z"/><path d="m11583 1883c-13-2-23-11-23-20 0-13 9-14 52-9 56 8 68 12 68 27 0 9-54 10-97 2z"/><path d="m9397 1873c-4-3-7-26-7-49v-43l-52-3c-39-2-53-7-53-18s14-16 51-18c50-3 50-3 46-32-2-17-1-37 2-46 10-25 33 0 41 44 5 33 11 39 52 52 57 19 56 36-2 32l-45-3v45c0 43-13 59-33 39z"/><path d="m9721 1868c-46-24-62-68-64-175l-2-98 31-3c19-2 40 5 57 18 69 54 109 191 71 237-24 28-62 37-93 21zm59-43c26-32-30-181-75-199-21-8-20 63 0 111 9 20 13 43 10 51-6 17 21 52 40 52 7 0 18-7 25-15z"/><path d="m11241 1833c-33-40-67-126-56-143 13-21 26-9 50 45 13 31 34 69 45 85 20 28 20 50 0 50-5 0-22-17-39-37z"/><path d="m11338 1860c-10-6-18-18-18-26 0-11 9-13 38-8 52 8 92-9 92-39 0-33-40-90-72-101-41-15-58-2-58 44 0 28-4 40-14 40-20 0-26-13-28-56-3-68 60-94 131-53 52 29 75 65 75 117 1 36-4 48-24 63-31 23-99 33-122 19z"/><path d="m10212 1838c-19-22-62-116-62-139 0-5 11-21 25-34 36-37 95-35 129 5 27 33 42 86 32 118-11 33-54 72-79 72-13 0-33-10-45-22zm75-49c9-18 10-35 2-62-12-44-40-63-70-47-22 12-20 42 7 108 16 40 42 40 61 1z"/><path d="m8461 1813c-20-73-41-165-41-179 0-8 8-14 19-14 15 0 23 18 45 105 31 125 31 125 6 125-14 0-22-10-29-37z"/><path d="m7564 1813c-10-16-27-44-40-65-20-31-21-38-9-48 9-8 15-30 15-56 0-36 3-44 19-44s19 10 23 74c3 52 11 84 27 110 12 19 20 40 16 46-11 18-34 10-51-17z"/><path d="m8000 1768c-73-96-74-98-60-111 9-9 19-4 41 23l30 35-6-30c-4-16-8-36-11-42-5-20 6-43 22-43 7 0 16 12 20 28 3 15 16 63 29 107 21 75 20 105-4 105-4 0-31-32-61-72z"/><path d="m8618 1825c-16-9-28-24-28-35 0-24 17-26 41-4 40 36 92-21 69-77-7-15-18-30-24-32-24-10-61 18-66 48-4 22-11 30-25 30-16 0-20-6-18-33 2-42 26-70 69-78 52-10 80 2 98 40 23 49 20 81-11 115-34 37-69 45-105 26z"/><path d="m6956 1807c-13-13-29-51-40-95-16-66-16-75-2-96 28-44 79-38 119 15 24 33 35 145 18 177-16 30-65 29-95-1zm59-84c-7-65-36-116-55-97-17 17-2 119 22 150 30 37 42 18 33-53z"/><path d="m9965 1799c-25-31-30-69-10-76 6-2 19 12 29 31 33 62 76 58 76-6 0-60-44-128-82-128-15 0-18 8-18 46s-3 45-17 42c-24-4-39-62-25-92 15-34 63-43 105-19 44 25 90 116 83 162-7 48-32 71-77 71-29 0-43-6-64-31z"/><path d="m7263 1778c-15-25-26-56-25-73 3-104 33-143 80-108 28 21 48 71 58 142 7 56-10 81-57 81-23 0-34-8-56-42zm63-69c-7-30-17-63-23-73-9-16-12-10-14 39-3 43 1 66 15 88 26 45 39 16 22-54z"/><path d="m10585 1780c-8-13 13-40 30-40 7 0 18 7 25 15 10 12 8 16-15 25-32 12-32 12-40 0z"/><path d="m8220 1745c-12-15-7-45 7-45 13 0 34 40 28 50-9 14-21 12-35-5z"/><path d="m11065 1750c-9-15 4-30 26-30 12 0 19 7 19 20 0 21-33 29-45 10z"/><path d="m7797 1703c-10-15 10-35 29-31 26 5 24 32-3 36-11 2-23-1-26-5z"/><path d="m9831 1565c-21-45-28-72-22-78 15-15 34 5 61 63 22 47 22 52 8 67-15 15-19 10-47-52z"/><path d="m7060 1544c0-14-9-47-21-74-28-66-20-84 19-42 30 32 54 102 44 130-2 6-13 12-23 12-14 0-19-7-19-26z"/><path d="m5897 580c-32-45-57-87-57-95 0-23 22-18 48 13l23 27-6-45c-19-146-19-150-1-150 20 0 20 1 36 104 10 68 21 116 46 204 5 17 2 22-13 22-13 0-38-26-76-80z"/><path d="m6412 532c-91-96-105-97-91-9 17 104-14 117-61 25-72-141-110-182-110-120 0 35-9 45-27 31-18-15-17-64 3-83 34-35 74-14 117 62 28 50 32 54 35 32 10-70 53-67 137 11l65 61v-76c0-87 18-116 69-116 31 0 101 35 101 51 0 14-39 10-65-7-28-18-61-11-70 15-3 10 0 51 6 92 17 110 17 114-6 116-14 1-47-26-103-85z"/><path d="m5280 585c-15-18-6-45 14-45 7 0 16 7 20 15 8 21 20 19 68-14 46-32 123-48 148-31 13 9 13 11 0 20-8 5-31 10-51 10-24 0-48 10-75 30-44 33-103 40-124 15z"/><path d="m5314 426c-15-12-17-18-8-33 15-24 49-24 48 0-2 22 3 21 51-8 44-28 116-33 160-13 43 19 29 31-31 23-48-6-62-3-104 19-56 29-87 32-116 12z"/></g><g fill="#44b" transform="matrix(.054411653 0 0 -.054411653 996.06784253537 1501.32138791264)"><path d="m750 2973c-57-10-88-25-119-57-40-41-55-100-46-179 6-45 12-61 32-77 32-25 35-25 64-1 22 17 24 26 21 89-4 105 24 120 164 87 33-7 119-19 190-25 88-8 134-16 144-26 32-32 8-420-28-456-18-18-126-28-289-28-185 0-206-4-250-52-55-58-58-82-55-363 1-145 7-274 13-293 11-34 51-62 89-62 12 0 35 14 52 31l31 30-6 238c-3 130-3 249 0 264l5 27h112c234 1 363 26 423 82 58 54 98 260 91 463-4 122-7 138-34 191-40 81-79 100-217 108-174 10-361 14-387 9z"/><path d="m3660 2971c-42-9-83-34-103-65-39-59-50-127-54-343-5-206-5-212 18-252 28-50 78-86 143-102 48-12 257-8 370 7l49 7-7-104c-4-57-11-189-16-294-9-177-9-192 8-214 35-47 100-46 136 2 22 29 27 86 42 452 7 191 0 235-44 283-45 48-92 56-241 38-146-18-229-20-265-6l-26 10v162c0 156 8 230 27 249 5 5 99 6 210 2l201-6 5-50c3-39 11-56 31-74 34-29 48-29 80 0 24 20 26 30 28 113 4 147-23 169-218 179-242 11-340 13-374 6z"/><path d="m1565 2945c-14-13-25-32-25-42s-1-297-3-638c-2-677-3-662 55-694 33-19 73-7 101 31 18 24 20 51 29 300 5 150 10 278 12 283 2 6 37 8 97 3 52-3 135-7 186-7 154-2 161-10 143-176-21-189-27-310-18-343 12-45 45-72 86-72 71 0 102 46 102 151 0 33 7 118 16 187 24 190 9 280-58 349-50 52-112 67-263 65-71-1-164-6-205-11-41-4-78-7-81-5-4 2-10 108-13 236-9 286-17 352-47 384-31 33-82 32-114-1z"/><path d="m2542 2944c-55-38-64-109-53-419 6-186 9-215 28-250 50-95 116-125 302-135 75-4 171-5 215-1l78 7-4-178c-2-97-7-181-11-184-4-4-42 1-85 11-104 26-285 27-363 3-106-33-149-107-99-170 26-34 68-41 132-21 74 23 202 20 308-7 182-47 274 5 301 168 12 77 27 831 19 994-7 152-20 181-86 186-88 7-103-51-104-401v-219l-201 4c-197 3-201 3-220 27-18 21-19 42-19 283v260l-29 29c-33 33-74 38-109 13z"/><path d="m2374 1391c-55-34-79-78-79-147 0-51 4-66 27-96 35-45 102-73 153-64 78 15 146 111 131 188-20 108-145 172-232 119z"/><path d="m1853 999c-39-11-66-56-61-101 6-59 69-64 76-6 4 30 34 38 145 38h67v-110c0-135-1-136-132-126-85 6-89 6-113-18-24-25-25-28-25-179 0-162 4-177 47-177 35 0 43 29 43 159v121h73c85 0 141 14 168 41 17 17 19 34 19 169 0 147-1 152-25 175-23 24-30 25-137 24-62 0-128-5-145-10z"/><path d="m2985 1000c-91-16-93-18-104-58-15-51-14-537 0-564 19-36 69-48 204-48 121 0 127 1 151 25l24 24-2 292-3 292-26 19c-31 23-161 33-244 18zm169-86c14-5 16-37 16-250v-245l-102 3-103 3v240 240l40 6c57 9 131 10 149 3z"/><path d="m2351 971c-24-24-29-73-37-372-6-232-6-237 15-258 23-23 29-25 51-11 12 7 16 40 20 150l5 141 35-23c19-13 59-55 88-93 30-39 78-96 108-128 47-51 56-57 74-47 29 16 25 42-15 92-19 24-62 78-95 121-61 77-61 77-33 77 15 0 46 9 69 19 56 26 67 57 62 179-6 156-27 172-220 172-93 0-111-3-127-19zm257-74c16-13 17-168 0-185-7-7-41-12-84-12-40 0-84-4-98-10l-26-10v120 119l98-6c53-3 103-10 110-16z"/></g></svg>