<svg height="992.017294pt" preserveAspectRatio="xMidYMid meet" viewBox="0 0 1494.512375 992.017294" width="1494.512375pt" xmlns="http://www.w3.org/2000/svg"><g transform="matrix(.1 0 0 -.1 -46.393941 2316.00445)"><path d="m5255 23126c-8-18-21-64-29-102s-20-93-26-122c-14-62-8-91 15-72 8 7 20 30 26 52 22 83 57 263 53 270-11 17-26 7-39-26z"/><path d="m794 23055c-9-14-27-51-39-82l-24-58-71-9c-85-11-89-30-8-34 56-3 56-3 45-31-9-24-20-31-62-40-29-7-61-19-71-27-17-14-14-15 42-10l60 5-4-29c-4-27-1-30 22-30 19 0 26 5 26 19 0 41 11 51 56 51 43 0 43 0 32-30-11-33-4-64 13-58 7 2 20 24 29 48l18 45 73 10c41 6 74 15 74 20 0 6-28 11-62 13-35 2-63 6-63 11 0 20 29 40 69 48 59 11 67 33 12 33-23 0-41 1-41 3 0 1 7 23 14 49 14 43 12 58-4 58-4 0-19-27-33-60-26-60-26-60-72-60-53 0-53 1-8 97 23 50 24 73 3 73-5 0-17-11-26-25zm44-210c-9-21-18-25-55-25-47 0-48 2-33 31 8 14 21 19 55 19 44 0 44 0 33-25z"/><path d="m2100 23044c-70-19-121-53-150-99s-21-77 32-126c39-36 41-39 29-67-17-40-63-60-96-42-29 16-44 6-29-18s88-28 121-7c13 9 31 33 40 52 18 44 5 83-38 114-83 59 17 145 187 164 88 9 104 14 104 30 0 20-124 19-200-1z"/><path d="m1353 23020c-33-13-30-39 3-37 38 3 39-14 5-57-17-21-28-43-25-50s30-25 61-40c55-27 56-28 37-46-11-11-53-28-94-38-50-12-75-23-75-33s12-14 48-12c83 3 177 52 177 93 0 21-36 53-77 70-18 7-33 15-33 17 0 3 9 16 20 30 25 32 26 75 2 96-21 19-19 19-49 7z"/><path d="m1261 22989c-40-53-131-242-131-271 0-41 19-45 33-6 6 18 42 93 79 167s68 136 68 138-6 3-13 3-23-14-36-31z"/><path d="m5042 22983c-16-21-41-56-55-78-39-62-100-126-122-130-11-2-28-4-37-4-10-1-18-7-18-15s8-16 18-18c12-2-2-15-43-41-33-20-65-37-72-37-18 0-16-19 3-27 21-8 94 28 141 70 32 29 48 35 101 40 34 3 62 4 62 3 0-2-9-29-20-61-16-45-17-60-8-66 21-13 37 10 58 81 11 38 25 70 32 72 6 2 12 20 14 38 2 19 6 65 10 101 6 64-4 109-26 109-4 0-22-17-38-37zm12-135c-9-32-22-58-28-58s-29-3-50-7l-40-6 40 49c23 27 52 67 65 89 23 38 24 39 27 15 2-13-4-50-14-82z"/><path d="m1690 22989c-101-46-117-95-49-153 46-39 47-60 3-76-21-8-29-7-39 6-14 20-35 11-35-16 0-51 98-46 139 7 30 37 26 51-25 99-26 24-43 47-40 53 12 19 82 50 128 57 81 13 88 44 10 44-26 0-67-10-92-21z"/><path d="m3158 22893c-33-40-47-73-68-163-22-90-23-104-17-379 4-157 11-326 16-376 42-389 54-558 55-785 1-209-2-257-18-329-18-76-22-84-48-93-39-14-54-53-33-84 20-30 30-30 59 1 23 24 23 24 41 5 9-10 29-49 42-87 25-66 26-77 31-368 3-165-1-523-8-795-13-514-10-588 26-702 16-50 62-98 94-98s32 17 0 40c-43 31-60 69-77 179-13 84-13 156-2 561 6 256 10 611 7 790-5 303-7 329-28 388-12 35-37 85-55 112l-33 48 21 79c19 70 21 106 20 353-1 232-6 324-32 585-42 410-53 829-26 950 18 82 43 145 57 145 4 0 8-27 8-60 0-60 12-80 24-37 11 42 6 105-10 121-20 20-28 20-46-1z"/><path d="m10561 22814c-56-28-96-77-107-129-5-25-11-31-32-30-40 0-43-33-4-41 38-8 42-24 35-130-4-60-3-84 6-84h19c4 0 9 43 12 95l5 96 68 4c80 5 145 35 165 79 29 59-27 166-86 166-15 0-52-12-81-26zm113-40c11-15 16-40 14-62-2-31-9-40-38-54-40-20-156-26-144-7 3 6 1 15-6 19-9 6-9 14 3 36 19 37 44 59 87 78 49 21 65 20 84-10z"/><path d="m3788 22743c-19-21-57-65-83-97l-47-60 7 65c12 91 11 101-1 106-7 2-23-45-43-125-17-71-31-132-31-135 0-4 8-7 18-7 19 0 59 39 140 138 29 35 52 58 52 50 0-7-14-60-31-118-32-111-109-426-109-447 0-7 9-17 20-23 36-19 120 37 94 63-4 3-20-1-36-9-28-14-29-14-25 3 3 10 18 72 32 138s35 147 45 180c38 119 70 265 64 290-9 34-24 31-66-12z"/><path d="m4210 22670c-25-5-68-9-96-9-52-1-97-22-75-35 37-23 276 6 276 34 0 18-40 22-105 10z"/><path d="m10946 22540c-52-54-86-97-86-109 0-30 15-26 78 22 87 66 82 66 78-5-2-35-4-195-5-355-1-253-3-293-16-293-20 0-19-17 1-28 14-8 16-162 20-1518 3-830 6-1522 7-1539 3-53 37-57 429-63l347-4 3-37c2-28 7-36 23-36s21 8 23 38l3 37h375 374v-32c0-42 13-63 34-55 11 4 16 19 16 46v39l328 7c180 3 383 10 452 14s258 7 420 6l295-1 3-24c2-14 9-31 14-38 15-17 41 5 35 30-3 10 0 21 5 24 14 9 855 6 973-2l89-7-53-49c-34-31-51-54-47-63 10-27 32-16 109 58 87 81 93 101 46 141-109 92-189 94-101 3l37-40-109 7c-60 3-302 6-537 6h-428l-3 33c-4 43-32 44-36 1l-3-31-462-7c-915-14-2581-21-2596-12-16 10-21 175-14 449l6 277h74c65 0 73 2 73 19 0 26-20 31-94 24l-64-6v1152 1151h54c41 0 54 4 54 15 0 12-13 15-55 15h-55v258c0 143-3 306-6 364-6 95-5 105 11 112 14 5 30-4 61-35 40-39 64-45 64-14 0 22-57 81-109 114l-48 29z"/><path d="m5015 22574c-11-3-106-8-212-12-182-7-216-12-199-29 10-10 228-10 441 0 197 9 215 12 215 32 0 12-19 15-112 14-62-1-122-3-133-5z"/><path d="m4135 22553c-48-11-115-35-115-42 0-16 13-17 87-5 43 7 106 13 141 13 55 1 62 3 62 21s-6 20-77 19c-43-1-87-3-98-6z"/><path d="m2220 22539c-91-3-516-7-945-9-429-1-791-5-805-9-59-18 309-24 1183-19 881 5 971 8 946 32-8 8-216 11-379 5z"/><path d="m2651 22465c-24-298-54-861-63-1185-17-601-17-2845-1-2861 7-7 15-10 18-7s5 109 3 234c-14 1148 10 2721 53 3551 9 171 10 238 1 255-6 13-11 19-11 13z"/><path d="m4835 22438c-45-16-56-28-81-83-12-28-29-57-39-65-25-21-52-80-63-137-18-99 24-154 125-161 32-2 74 0 93 5 31 8 37 6 57-18 28-33 74-51 94-37 12 7 11 11-5 21-10 7-31 22-45 35-20 18-23 25-12 29 39 16 102 88 122 141 38 102-1 215-86 253-55 24-122 32-160 17zm137-47c14-5 39-27 55-47 39-52 39-129-1-198-24-40-75-86-98-86-6 0-21 41-32 93-4 15-10 27-16 27-17 0-21-38-9-85 15-57 7-65-68-65-67 0-99 15-112 52-18 52 28 200 55 177 15-12 28 8 39 61 8 39 30 68 60 81 23 10 89 5 127-10z"/><path d="m719 22163c-32-27-89-133-89-166 0-9 5-25 11-36 9-14 8-38-6-105-11-60-14-91-7-98 16-16 29-2 37 39 19 105 27 133 41 133 29 0 121 49 142 75 16 20 22 41 22 77 0 41-5 54-29 79-38 37-79 38-122 2zm107-50c14-33 14-40 1-68-15-31-55-57-107-70-26-6-26-6-20 59 6 76 35 116 82 116 24 0 32-6 44-37z"/><path d="m5164 22143c-4-16-15-61-25-102-11-41-19-89-19-108 0-47 26-43 41 7 11 35 19 43 67 65 30 14 56 25 59 25s2-13-2-28c-15-70 44-118 127-106 54 8 101 31 95 47-4 13-12 13-94 2-70-10-87 3-79 62 3 24 12 57 21 73 8 16 15 36 15 45 0 25-35 17-52-13-10-16-45-43-79-62l-61-32 5 28c18 92 18 124 3 124-9 0-19-12-22-27z"/><path d="m1532 22129c-9-17-37-57-61-90-37-50-41-62-30-75 13-15 54-14 126 3 23 5 23 5-3-42-18-32-23-50-16-57 16-16 30-2 64 65 42 82 68 156 58 162-9 6-46-37-55-65-4-12-20-19-56-24-28-4-53-5-56-2-3 2 9 25 26 50 34 49 51 106 32 106-7 0-20-14-29-31z"/><path d="m1855 22104c-81-30-142-122-133-200 2-21-1-63-9-93-16-72-16-101 0-101 9 0 19 22 26 58 26 122 39 150 74 158 122 26 198 114 146 170-26 27-47 29-104 8zm83-46c2-10-7-28-20-41-25-25-114-64-124-55-3 3-1 21 4 39 15 59 131 105 140 57z"/><path d="m14313 22089c-20-20-3-39 33-39 34 0 34 0 19-24-19-28-12-47 30-86l27-25-34-5c-25-4-33-10-33-25 0-17 6-20 42-18 89 4 107 42 44 92-39 31-40 32-24 60 9 15 14 35 10 44-12 31-91 49-114 26z"/><path d="m1071 22005c11-11 39-16 89-18 64-2 75 0 78 16 3 15-6 17-89 17-84 0-92-2-78-15z"/><path d="m10089 21908c-11-40-25-86-30-102-24-75-2-96 81-77 25 6 48 11 52 11s1-18-7-39c-11-33-11-42-1-50 18-15 25-4 66 94 18 44 37 88 42 98 6 12 5 23-3 33-21 25-36 15-48-31-11-42-14-45-63-60-47-14-78-19-78-12 0 1 9 34 20 72 24 85 26 135 5 135-9 0-22-25-36-72z"/><path d="m10446 21949c-14-11-37-40-51-63-28-48-81-239-91-329-6-54-5-59 12-55 15 2 21 16 27 63 4 33 14 74 22 92 8 17 15 39 15 50 0 28 11 38 60 52 93 27 140 74 140 141 0 64-78 93-134 49zm92-50c4-36-30-75-85-93-25-9-48-14-50-12-11 11 14 63 48 98 44 47 82 50 87 7z"/><path d="m1185 21953c-81-10-136-25-132-36 9-26 225 3 235 31 4 12-34 14-103 5z"/><path d="m781 21867c-15-19-3-28 25-21s33-16 9-36c-33-28-12-52 58-64 20-4 37-11 37-16 0-16-40-32-72-28-37 4-48-16-18-32 40-22 130 20 130 61 0 21-31 43-74 53-22 5-26 10-17 19 14 14 14 50-1 65-16 16-63 15-77-1z"/><path d="m2031 21847c-36-19-25-32 23-29 25 2 47-1 51-8 4-6-17-35-49-67-31-31-56-60-56-64 0-25 151-47 169-25 17 20-8 36-57 36h-44l36 42c39 45 46 86 20 112-18 19-60 20-93 3z"/><path d="m14099 21841c-14-11-49-23-78-27-40-5-51-10-49-23 3-13 14-15 58-12l55 3-20-22c-11-13-78-68-150-123-110-86-182-150-339-302-21-21-120-107-236-205-79-66-196-184-393-397-149-159-149-159-207-171-78-17-130-39-130-57 0-24 18-27 66-10 26 9 48 14 51 12 2-2-53-61-121-132l-125-127-67 22c-171 55-256 127-361 304-19 34-54 108-77 165-41 103-60 128-72 97-10-26 75-213 147-320 71-108 106-147 167-190 46-31 189-96 214-96 9 0 19-4 22-8 4-7-73-107-216-279-37-44-134-145-216-224-81-79-164-163-184-187-25-30-45-44-66-47-17-2-36-6-42-10-5-3-10-1-10 6 0 14-189 4-204-11-13-13 13-42 33-36 9 3 49 8 89 11 72 7 72 7 72-19 0-32 35-70 60-63 15 4 18-3 22-45 5-52 19-75 38-63 7 4 9 26 4 65-5 48-3 63 12 84 19 25 20 25 161 26 128 0 142-2 147-18 9-27 73-85 85-78 18 11 13 31-14 56-14 13-25 27-25 32 0 4 75 8 168 8 157 0 168-1 180-20 7-12 24-25 39-31 25-9 26-12 20-67-7-62 2-88 27-79 13 5 16 21 16 75 0 43 6 81 16 101 14 29 14 34 0 56-15 23-14 26 44 102 174 227 208 275 253 348 27 44 66 115 88 158 22 42 44 77 49 77 6 0 10 7 10 16s12 32 27 53c20 29 33 37 57 37 30 0 126 39 173 70 22 14 22 44-1 44-6 0-44-16-85-36-40-19-75-33-77-31-5 4 113 187 223 346 84 122 163 248 248 397 58 102 80 133 100 138 23 6 36 36 15 36-5 0 13 35 39 78 26 42 72 117 102 165s83 125 119 170c56 71 69 82 93 79 25-3 27-6 27-52 0-57 7-80 25-80 21 0 23 10 15 80-5 52-3 72 12 103 21 42 17 73-10 81-60 17-88 17-113-3zm-171-304-63-95-78-27c-44-15-81-25-83-23-7 7 89 95 186 172 52 41 96 73 98 71s-25-46-60-98zm-99-159c-11-20-97-158-104-166-3-4-175-38-235-47l-45-6 45 42c25 23 65 61 90 85 36 34 66 50 145 77 122 43 118 42 104 15zm-161-260c-88-154-103-177-122-183-74-22-451-113-455-110-6 6 162 177 230 235 55 46 60 48 180 69 68 12 131 24 139 26 51 10 53 7 28-37zm-159-270c-17-29-46-73-64-98s-53-76-79-114c-25-39-54-71-63-72-10-1-69-18-131-38-63-20-120-36-128-36-7 0-56-13-107-30-106-34-114-35-98-17 7 9 8 24 1 48-6 18-10 39-10 45 0 7 48 63 107 125l108 114 240 61c132 33 243 62 247 62 4 1-6-22-23-50zm-219-327c0-9-99-161-105-161-2 0-12 16-24 35-11 19-27 35-36 35-20 0-20-59 1-103 16-34 16-34-22-88-20-30-40-57-43-61-8-9-162-55-343-102-149-39-337-101-352-116-17-17 27-11 115 15 46 14 161 45 254 69 94 25 198 54 233 64 34 11 62 18 62 16 0-9-49-104-89-172-45-78-150-227-212-302-20-25-53-69-73-99-22-32-46-57-59-59-12-2-94-6-182-8l-160-4 37 30c22 19 35 37 31 46-8 23-28 17-96-30l-64-44-156-3c-86-2-158-1-162 2-3 4 67 76 156 160 146 140 256 261 424 468 33 40 65 79 70 86 9 10 29 11 96 3 84-11 159-5 159 11 0 5-43 11-96 13-52 3-100 10-106 16-13 13 77 113 96 106 7-3 84 18 172 45 87 27 195 59 239 70s112 31 150 45c81 28 85 29 85 17zm-490-50c0-10 7-24 16-32 13-11 4-16-62-41-43-15-82-28-87-28-4 0 20 29 54 65 62 63 79 71 79 36z"/><path d="m12725 19830c-75-34-267-111-435-174-166-62-300-128-300-147 0-12 45-1 95 24 22 11 126 53 230 92 406 155 470 183 470 206 0 19-17 19-60-1z"/><path d="m1915 21791c-32-64-44-131-22-131 10 0 23 27 41 84 29 95 30 96 16 96-5 0-21-22-35-49z"/><path d="m11498 21813c-16-2-28-11-28-19 0-11 20-14 101-14 90 0 100 2 97 18-3 14-15 17-73 18-39 1-82-1-97-3z"/><path d="m11727 21814c-4-4-7-13-7-21 0-10 23-13 101-13 90 0 100 2 97 18-3 14-17 17-94 20-49 1-93 0-97-4z"/><path d="m11977 21814c-4-4-7-13-7-21 0-10 23-13 101-13 90 0 100 2 97 18-3 14-17 17-94 20-49 1-93 0-97-4z"/><path d="m12227 21814c-4-4-7-13-7-21 0-10 23-13 101-13 90 0 100 2 97 18-3 14-17 17-94 20-49 1-93 0-97-4z"/><path d="m11230 21802c-5-2-10-10-10-18 0-11 20-14 101-14 90 0 100 2 97 17s-16 17-91 18c-48 0-91-1-97-3z"/><path d="m12470 21797c0-20 31-27 123-27 69 0 78 2 75 18-3 14-17 17-101 20-78 2-97 0-97-11z"/><path d="m12727 21803c-4-3-7-12-7-20 0-10 23-13 100-13 79 0 100 3 100 14 0 8-7 17-16 20-21 8-169 8-177-1z"/><path d="m12977 21804c-4-4-7-13-7-21 0-10 23-13 101-13 90 0 100 2 97 18-3 14-17 17-94 20-49 1-93 0-97-4z"/><path d="m13227 21804c-4-4-7-13-7-21 0-10 23-13 101-13 90 0 100 2 97 18-3 14-17 17-94 20-49 1-93 0-97-4z"/><path d="m13477 21804c-4-4-7-13-7-21 0-10 23-13 101-13 90 0 100 2 97 18-3 14-17 17-94 20-49 1-93 0-97-4z"/><path d="m13727 21804c-4-4-7-13-7-21 0-10 23-13 101-13 90 0 100 2 97 18-3 14-17 17-94 20-49 1-93 0-97-4z"/><path d="m4046 21741c-7-10-33-137-41-192-5-37-3-48 10-53 9-3 18 0 20 7 5 13 45 217 45 228s-29 19-34 10z"/><path d="m10550 21666c-42-13-84-70-75-103 20-82 48-98 118-64 48 23 93 88 82 120-13 42-72 64-125 47zm78-62c4-25-49-74-80-74-18 0-19 4-13 38 9 50 23 64 59 60 23-2 32-9 34-24z"/><path d="m6310 21588c0-12 24-61 54-108 34-53 64-117 81-172 24-77 27-100 23-190-4-108-22-162-71-216-15-16-18-25-10-33 29-29 90 47 119 147 13 44 15 80 11 149-8 132-46 238-127 353-36 50-68 92-72 92-5 0-8-10-8-22z"/><path d="m3822 21503c-32-54-74-124-93-155-22-38-43-61-61-67-29-10-37-26-17-33 7-2-1-22-20-49-77-116-53-136 29-24 56 77 61 81 141 88l45 4-9-60c-9-63-1-85 27-74 10 4 16 19 16 41 0 19 9 87 20 151s20 153 20 196c0 71-2 79-19 79-14 0-37-29-79-97zm48-86c-6-46-15-89-20-96-4-7-29-16-55-19-47-5-47-5-34 19 41 78 112 190 116 185 3-3 0-43-7-89z"/><path d="m4752 21583c-23-44-73-215-70-238 3-29 17-37 28-15 12 24 80 245 80 258 0 18-28 14-38-5z"/><path d="m6786 21567c-38-41-103-170-127-254-23-84-33-178-24-253 8-67 47-132 98-160 24-13 29-13 37 0 7 11 0 23-26 46-48 45-64 89-64 182 0 132 66 330 140 420 16 20 30 40 30 44 0 19-35 5-64-25z"/><path d="m5161 21515c-50-57-98-164-115-254-26-138-18-184 41-230 39-31 53-11 19 29-37 45-40 68-22 175 17 99 60 203 110 262s18 76-33 18z"/><path d="m14192 21527c-13-15-11-182 2-194 3-3 12-3 21 0 12 5 15 24 15 90 0 91-15 132-38 104z"/><path d="m8296 21523c-12-13-5-21 52-56 208-128 267-353 137-523-14-18-50-48-80-66s-55-38-55-45c0-21 19-24 52-7 63 32 118 85 155 152 37 64 38 71 38 162 0 83-4 103-28 155-30 65-87 129-155 176-50 36-107 61-116 52z"/><path d="m5486 21461c-12-19-8-59 13-151 13-52 25-105 27-117 3-14 12-23 22-23 24 0 45 24 127 143 41 60 65 103 61 113-11 28-29 10-101-94l-70-102-9 32c-4 18-17 60-27 92-10 33-19 70-19 82 0 25-15 40-24 25z"/><path d="m6034 21456c-4-10 1-74 10-144s17-138 19-152c1-14 9-26 19-28 23-4 58 37 112 132 26 44 52 89 59 98 9 14 9 20-1 30-18 17-45-14-102-118l-44-79-8 50c-30 186-49 249-64 211z"/><path d="m6903 21408c-16-29-40-79-53-111-22-53-23-59-7-74 16-17 38-15 134 13 22 6 22 6 2-68-24-94-25-121-2-116 13 2 25 30 45 103 15 55 31 118 34 140s10 45 15 51 3 18-6 30c-15 19-15 19-30 0-8-11-15-29-15-40 0-36-17-50-72-62-29-7-54-11-56-9s13 40 33 86c34 77 38 109 16 109-5 0-22-24-38-52z"/><path d="m5273 21430c-22-9-49-47-40-57 3-2 17 3 31 12 34 23 70 16 74-14 6-40-7-71-50-117-64-69-40-91 100-93 65-1 73 1 70 17-2 13-15 18-58 20-30 1-65 5-78 7-23 6-23 6 8 41 57 65 66 129 25 169-25 26-45 30-82 15z"/><path d="m7353 21422c-13-2-34-15-47-30-80-88-67-59-182-421-23-72-23-91-3-91 17 0 60 106 101 248 38 132 60 184 101 230 42 47 96 16 104-61 4-36 1-48-17-64-23-22-62-33-116-33-23 0-34-5-34-15 0-22 46-29 106-16 90 20 123 81 93 172-21 61-57 89-106 81z"/><path d="m8061 21409c-55-12-90-55-107-135-53-236-79-403-67-415 15-15 33-2 33 24 0 12 18 116 41 232 47 241 55 258 130 258 35 0 48-6 71-32 33-36 35-52 10-74-19-17-120-47-160-47-17 0-22-5-20-17 8-38 182-2 218 45 25 31 25 58 0 99-30 50-90 75-149 62z"/><path d="m1533 21388c-35-17-27-27 21-25 49 2 86-22 86-56 0-28-49-69-108-91-60-21-70-32-50-53 32-31 230-35 260-5 22 22-4 31-62 21-30-5-72-6-94-2l-39 6 34 18c44 22 86 67 94 100 14 58-83 117-142 87z"/><path d="m823 21370c-18-10-56-56-86-100l-54-81-33 80c-32 81-51 108-68 97-11-7 61-204 82-224 19-20 29-12 92 78 30 44 74 95 96 113 24 20 38 39 34 46-10 16-26 14-63-9z"/><path d="m1840 21371c0-28 28-161 41-193 24-58 64-40 137 62 29 41 62 85 73 98 23 26 25 52 4 52-19 0-52-37-113-126-26-38-52-68-57-67-6 1-16 28-24 60-28 121-32 133-46 133-8 0-15-9-15-19z"/><path d="m11956 21328c-54-128-68-168-73-205-4-34-3-43 9-43 14 0 92 194 100 249 5 37-21 37-36-1z"/><path d="m1100 21286c0-10 19-16 64-21 71-8 106-1 106 21 0 11-18 14-85 14s-85-3-85-14z"/><path d="m4164 21289c-19-32 83-54 191-41 43 5 60 11 60 22 0 12-19 15-105 15-58 1-112 4-121 9-10 4-20 3-25-5z"/><path d="m14195 21280c-9-14-10-188-2-197 4-3 13-3 22 0 21 9 22 179 1 196-11 9-16 9-21 1z"/><path d="m4690 21271c-75-5-95-9-95-21 0-18 92-25 203-15 61 6 73 10 70 23-4 20-33 22-178 13z"/><path d="m5885 21253c-70-7-95-14-95-28 0-11 13-15 48-15 85 0 152 12 152 26 0 8-8 15-17 15-10 1-27 2-38 3s-33 0-50-1z"/><path d="m7726 21230c-53-5-72-26-34-35 13-3 57-5 98-3 59 2 75 6 75 18 0 18-66 27-139 20z"/><path d="m11691 21205c-17-20-45-62-61-95-26-52-35-61-70-70-22-6-40-15-40-19 0-12 30-22 42-15 13 8 12 6-30-73-17-34-32-67-32-74 0-26 28 3 71 72 46 74 46 74 97 77l50 3-1-83c-2-68 1-83 13-83 8 0 16 7 17 15 21 154 23 159 56 162 43 4 52 38 10 38-29 0-29 0-25 65 7 111-37 147-97 80zm45-142c-8-8-86-16-86-9 0 13 32 71 59 106l26 35 3-64c2-35 1-65-2-68z"/><path d="m1182 21193c-68-6-47-28 31-31 53-2 67 0 67 11 0 15-23 28-43 25-7-1-31-3-55-5z"/><path d="m8180 21178c-49-25-66-58-31-58 18 0 19-3 10-24-23-50 22-86 108-86 90 0 148 103 89 159-37 35-119 39-176 9zm157-41c12-12 13-19 2-38-18-35-40-48-79-49-54 0-67 12-50 47 8 15 16 31 18 36 2 4-5 7-15 8-16 0-16 1 2 10 28 12 104 4 122-14z"/><path d="m2042 21174c-33-23-27-35 15-32 49 4 53-16 14-66-35-43-32-61 12-75 56-18 161-31 171-21 18 18-3 38-51 44-26 4-60 9-75 12-28 5-28 5-9 32 31 44 33 66 10 95-23 30-54 34-87 11z"/><path d="m4236 21181c-38-3-71-11-73-17-5-15 59-23 143-17 73 6 108 18 99 34-6 9-52 9-169 0z"/><path d="m5701 21180c-25-6-50-35-39-45 4-4 22-1 41 6 30 11 39 10 61-5 31-20 32-30 5-57-25-25-62-22-67 6-6 32-19 39-32 16-16-30-5-57 30-71 54-22 120 19 120 76 0 55-55 89-119 74z"/><path d="m6220 21170c-27-27-25-52 6-89 33-39 74-41 109-6 14 13 25 29 25 35 0 17-21 53-39 67-25 19-78 16-101-7zm90-35c18-22 5-45-28-45-37 0-54 17-41 42 12 22 52 24 69 3z"/><path d="m4624 21159c-10-17 16-29 68-29 26 0 50-5 54-11 4-7-22-38-61-75-43-40-65-69-62-78 7-17 73-29 132-24 58 4 53 30-8 43l-48 10 31 30c64 61 74 116 23 136-34 13-120 11-129-2z"/><path d="m7463 21148c-20-25-24-95-7-112 22-23 76-20 115 7 28 18 34 29 34 57 0 27-6 37-25 47-32 16-105 17-117 1zm104-36c23-15-25-52-66-52-24 0-24 0-11 34 7 19 17 26 37 26 16 0 33-4 40-8z"/><path d="m916 21128c-30-143-33-188-13-188 13 0 25 50 43 168 5 34 3 42-10 42-9 0-18-10-20-22z"/><path d="m14195 21030c-9-14-10-188-2-197 4-3 13-3 22 0 21 9 22 179 1 196-11 9-16 9-21 1z"/><path d="m14195 20780c-9-14-10-188-2-196 3-4 13-4 22-1 21 9 22 179 1 196-10 9-16 9-21 1z"/><path d="m3805 20743c-63-33-105-88-105-138 0-37 26-31 40 10 13 39 68 92 107 101 40 11 96-8 111-36 22-43 11-150-20-198-27-40-94-99-103-90-3 3-8 32-11 66-5 44-11 62-21 62-11 0-14-16-12-77 2-72 1-77-21-85-31-12-87 8-95 33-9 26 2 84 22 122 17 34 11 46-13 26-26-22-44-73-44-128 0-41 4-53 25-70 34-26 72-33 113-22 31 9 33 8 48-27 18-43 42-72 61-72 18 0 16 16-7 48-38 53-36 75 12 112 87 67 117 124 118 223 0 76-23 125-66 143-44 18-102 17-139-3z"/><path d="m5044 20696c-80-35-137-125-120-191 4-16 3-24-2-21-25 15-29-99-6-133 32-45 123-65 179-39 22 10 31 9 56-6 16-9 34-14 39-11 16 10 11 34-10 45-18 10-18 12 10 58 46 73 59 217 25 272-22 35-116 50-171 26zm127-45c21-17 24-27 23-85-1-66-24-145-49-166-11-9-17-2-33 33-38 86-68 62-34-27 21-54 21-54-1-60-38-10-77-7-107 9-35 18-50 43-50 84 0 23 5 30 23 33 15 2 21 9 20 23-15 116 127 222 208 156z"/><path d="m8580 20565c-7-69-10-128-7-132 3-3 12-3 20 0 9 3 17 37 24 99 12 101 8 158-12 158-8 0-16-39-25-125z"/><path d="m610 20632c0-11 11-70 25-132 41-183 66-190 147-37 29 56 65 116 81 133 32 38 34 54 6 54-30 0-67-47-121-152l-46-91-10 39c-6 21-16 64-22 94-14 63-36 110-50 110-6 0-10-8-10-18z"/><path d="m1996 20618c-4-12-18-200-20-263-2-50 26-42 78 22 122 153 175 226 170 234-16 27-47 3-115-88-40-54-75-102-79-106s-7 40-6 99c1 77-2 108-11 111-7 3-15-1-17-9z"/><path d="m6947 20598c-52-69-87-164-87-235 0-49 25-73 75-73 39 0 127 42 161 75 26 27 27 27 21 3-17-65-18-104-4-122 20-27 37-12 37 32 1 45 18 115 60 240 17 51 28 97 25 103-14 22-35 5-50-40-18-55-79-154-116-188-36-33-117-66-145-59-18 5-24 13-24 34 1 41 46 162 79 209 16 23 27 44 24 47-14 13-33 4-56-26z"/><path d="m1661 20524c-44-94-44-97-25-111 14-11 34-12 78-7l59 6-8-28c-12-46-11-58 6-61 11-3 25 22 52 92 21 53 35 100 32 106-11 17-25 9-39-25-14-35-41-46-111-46h-33l30 69c28 62 32 101 11 101-4 0-28-44-52-96z"/><path d="m8409 20533c-52-63-71-79-100-83-19-4-40-10-47-14-19-11-14-26 8-26 25 0 25-8 1-34-11-12-21-30-23-40-6-36 18-26 56 24 34 45 42 50 78 50h39l-7-70c-6-66-6-70 14-70 17 0 23 8 28 38 3 20 10 55 16 77 31 129 37 163 38 193 0 54-30 40-101-45zm43-44c-6-27-14-35-36-37l-28-4 33 40c19 23 35 39 37 37 2-1-1-18-6-36z"/><path d="m6561 20510c-10-17-20-28-23-25-9 9-23-16-51-88-30-74-35-127-13-127 7 0 35 45 61 100 27 55 51 100 54 100s17-16 30-36c14-20 44-52 68-71 23-19 40-39 37-44s-48-9-100-9c-86 0-95-2-92-17 3-16 15-18 93-18 180 1 203 21 111 100-30 25-71 70-91 100-47 67-60 73-84 35z"/><path d="m14195 20529c-8-13-9-189-1-197 3-2 12-2 21 1 21 9 22 179 1 196-11 9-16 9-21 0z"/><path d="m4450 20491c-14-4-25-13-25-21 0-13 21-14 125-11 69 2 128 5 133 8 4 2 7 11 7 19 0 11-20 14-107 13-60-1-119-4-133-8z"/><path d="m7996 20465c3-14 3-36 0-50-6-24-9-25-86-25-72 0-103-10-85-28 4-4 42-9 86-11l79-3-7-55c-5-50-4-55 13-51 14 2 21 15 25 50 8 55 15 68 35 68 8 0 14 7 14 15s-9 15-20 15c-16 0-20 7-20 34 0 44-9 66-26 66-10 0-13-7-8-25z"/><path d="m6010 20452c-66-4-84-17-44-32 39-16 269-9 285 7 10 10 9 13-2 17-19 7-170 12-239 8z"/><path d="m1230 20436c0-18 31-26 107-26 70 0 93 6 93 26 0 11-21 14-100 14-78 0-100-3-100-14z"/><path d="m4538 20413c-81-4-98-16-50-34 41-16 217 1 217 21 0 17-33 19-167 13z"/><path d="m2198 20399c-10-5-18-17-18-25 0-12 7-14 30-9 70 15 82-50 20-110-45-44-49-59-20-75 26-14 119-15 132-2 18 18-2 32-43 32-42 0-49 9-22 31 24 20 45 77 37 102-16 55-72 82-116 56z"/><path d="m4034 20365c-7-19-14-46-14-60s-7-28-15-31c-10-4-15-20-15-50 0-37 3-44 19-44 13 0 23 11 31 34 9 28 19 37 57 50 26 9 48 16 50 16s3-11 3-24c0-35 27-58 64-54 23 2 31 8 31 23 0 14-7 20-25 20-23 0-25 3-21 35 1 19 7 43 12 52 14 25 11 48-6 48-8 0-19-9-25-20-10-19-44-41-96-60-25-10-25-10-19 45 9 65-8 75-31 20z"/><path d="m5576 20391c-8-12-3-14 62-31 47-12 49-16 26-41-22-24-6-51 45-74 23-10 41-22 41-26 0-12-55-39-80-39-23 0-38-26-23-41 16-16 113 22 137 53 20 28 20 28-3 52-13 13-36 30-52 36-30 13-36 24-19 35 16 10 11 41-10 60-23 21-114 33-124 16z"/><path d="m6110 20388c-118-9-154-18-136-35 9-10 203-6 266 5 29 5 45 13 45 22 0 19-20 20-175 8z"/><path d="m8870 20376c0-8 15-17 36-20 44-9 53-30 24-61-28-30-20-55 28-83 29-17 33-22 16-22-31 0-48-24-29-40 11-10 23-9 57 1 62 20 63 48 3 83-43 26-45 28-30 49 22 32 18 63-11 86-31 24-94 29-94 7z"/><path d="m845 20371c-5-10 3-17 40-36 12-6 21-23 23-40 2-24 13-37 47-59 51-32 57-53 18-62-47-10-53-13-53-28 0-7 7-17 16-20 20-8 83 22 97 45 17 27-1 65-43 93-23 15-40 34-40 45 0 32-39 71-70 71-16 0-31-4-35-9z"/><path d="m1241 20371c-14-4-26-12-29-19-3-9 23-12 100-12 116 0 148 6 148 26 0 11-21 14-97 13-54-1-109-4-122-8z"/><path d="m7562 20373c-15-3-22-10-20-21 3-13 12-16 37-14 32 4 33 3 17-13-25-25-17-37 49-69l60-29-33-14c-41-17-37-39 7-36 41 1 63 20 59 51-2 19-16 32-54 51-44 22-50 28-40 44 23 37-19 63-82 50z"/><path d="m5337 20343c-18-18-5-33 28-33h36l-42-39c-44-43-46-59-8-78 51-26 189-9 189 24 0 12-12 14-74 8-80-8-103 3-63 30 61 40 51 95-17 95-23 0-46-3-49-7z"/><path d="m7268 20343c-10-2-18-13-18-23 0-16 7-18 61-13 74 7 76-6 11-50-26-17-42-36-42-48 0-27 55-49 125-49 48 0 55 2 55 20s-7 20-59 20c-69 0-81 10-42 33 16 9 34 31 42 48 12 29 11 33-10 50-22 18-79 24-123 12z"/><path d="m8632 20322c-35-10-26-27 13-23 55 4 59-7 20-50-60-66-45-100 51-116 40-7 104 14 104 33 0 11-16 14-68 14-38 0-71 3-75 6-3 3 10 26 29 51 19 24 34 51 34 58 0 29-53 42-108 27z"/><path d="m14195 20279c-9-13-10-187-2-196 4-3 13-3 22 0 21 9 22 179 1 196-11 9-16 9-21 0z"/><path d="m6207 20048c-32-41-90-188-118-293-11-44-23-130-26-190-5-100-4-114 16-152 24-48 52-68 69-51 8 8 3 21-16 46-25 34-27 42-26 136 1 64 9 133 22 188 23 95 85 269 109 307 25 39-1 48-30 9z"/><path d="m14195 20030c-11-18-23-184-14-194 4-5 14-6 22-3 20 8 32 177 13 195-10 11-15 11-21 2z"/><path d="m5643 19979c-45-11-72-34-57-49 6-6 23-6 44 0 19 6 46 10 60 10l25-1-28-23c-37-30-33-58 11-71 17-5 32-12 32-15 0-4-21-11-47-16-63-12-66-38-6-42 46-3 108 20 117 44 9 23-11 53-40 60-23 6-24 8-9 30 21 32 19 50-7 68-25 18-34 18-95 5z"/><path d="m8795 19919c-4-6 29-46 73-89 111-108 144-178 150-313 5-124-10-170-76-227-35-29-44-42-35-51 8-8 20-6 47 6 125 60 154 291 60 478-44 86-201 227-219 196z"/><path d="m4054 19853c-58-137-74-188-74-232 0-55 20-81 63-81 36 0 109 35 143 68l27 27-6-51c-6-55 3-80 26-71 9 3 16 25 20 59 3 30 19 95 35 144 17 49 28 92 25 97-12 20-35 2-59-45-60-119-143-186-222-179-20 1-7 65 34 181 19 51 32 100 30 107-9 23-25 14-42-24z"/><path d="m7122 19867c-13-15-71-143-82-179-10-34 3-46 55-51 38-4 40-6 36-33-9-62-6-89 9-89 11 0 24 34 47 120 36 138 38 155 19 155-14 0-30-32-42-82-5-24-11-28-44-28h-37l33 83c19 45 34 87 34 94 0 18-16 24-28 10z"/><path d="m6285 19829c-30-37-75-122-75-143 0-25 39-39 90-32l47 6-31-105c-16-57-27-107-23-111 17-18 38 13 61 88 53 179 73 259 66 263-10 6-34-23-51-60-11-23-23-31-57-38-24-5-47-6-50-2-4 4 10 38 31 76 20 37 37 73 37 79 0 19-18 10-45-21z"/><path d="m7270 19695c0-133 2-157 16-162 24-9 64 38 138 161 66 109 79 146 51 146-16 0-34-25-111-159l-49-83-5 123c-4 108-7 124-22 127-17 3-18-9-18-153z"/><path d="m3670 19738c-28-51-54-105-57-119-8-42 31-52 160-40 108 11 147 22 147 43 0 6-26 39-57 73-32 34-71 78-86 98s-34 37-42 37c-7 0-37-42-65-92zm177-93c28-12-19-23-104-24l-72-1 30 53c49 83 47 82 90 28 22-27 47-52 56-56z"/><path d="m6610 19817c-46-23-99-137-145-307-47-176-50-194-31-209 8-7 20-10 25-6 14 8 48 119 68 222 9 48 20 79 24 72 12-20 88 8 127 47 33 33 34 37 30 91-4 46-10 61-32 80-31 27-33 27-66 10zm50-46c19-37 12-90-16-116-15-14-32-25-38-25s-21-3-33-6l-23-6 19 55c38 110 67 141 91 98z"/><path d="m8493 19778c4-13 9-69 13-123 4-55 11-110 15-122 16-42 45-28 96 48 26 38 67 96 90 128 28 40 38 62 32 72-14 24-39 0-114-110l-70-103-7 83c-9 106-20 143-43 147-14 3-17-1-12-20z"/><path d="m14182 19778c-7-7-12-46-12-100 0-72 3-90 16-95 25-9 34 16 34 103 0 85-13 117-38 92z"/><path d="m8109 19757c-9-7-24-28-34-47s-22-38-27-41-24-77-42-165c-19-87-39-172-45-187-16-41-14-49 11-45 17 2 27 20 50 88 16 47 34 113 40 147 9 47 14 60 24 53 15-13 94 3 129 26 30 19 48 64 40 97-16 61-104 106-146 74zm90-53c26-33 27-56 3-78-20-17-122-48-122-36 0 16 33 116 42 128 17 20 55 14 77-14z"/><path d="m4990 19707c0-21 22-27 144-35 115-8 126-7 126 13 0 23-15 26-145 32-110 5-125 4-125-10z"/><path d="m5565 19689c-15-24 17-29 156-27 120 3 144 5 144 18s-24 15-147 18c-100 2-149-1-153-9z"/><path d="m7727 19686c-21-8-41-17-44-19-10-11 7-25 25-21 9 3 53 8 97 12 61 5 80 11 80 22 0 21-107 24-158 6z"/><path d="m6880 19670c0-23 25-27 33-6 7 16-1 26-20 26-7 0-13-9-13-20z"/><path d="m637 19670c-53-3-98-9-100-15-1-7 340-11 1006-13 891-2 1007 0 1007 13 0 12-14 15-62 16-250 4-1773 3-1851-1z"/><path d="m10494 19650c-51-26-115-90-119-121-1-13-17-67-34-119-36-108-38-133-14-128 10 2 26 30 42 78l26 75 50 3c72 5 156 48 177 92 30 62-7 140-67 140-11 0-38-9-61-20zm94-49c14-40-4-71-58-98-42-22-120-32-120-15 1 4 11 27 23 52 16 32 34 50 66 67 58 30 77 29 89-6z"/><path d="m4644 19619c-7-12 12-29 34-29 19 0 14-25-8-45-13-12-20-29-18-44 3-25 23-40 83-62l30-11-40-19c-22-10-48-19-58-19-26 0-18-34 9-38 29-4 111 33 123 57 17 31 4 48-55 72l-54 23 21 22c26 28 28 73 3 91-22 16-60 17-70 2z"/><path d="m5057 19601c-48-8-52-22-7-34 39-10 214-6 225 5 4 4 5 14 2 23-5 12-23 15-94 14-48-1-105-5-126-8z"/><path d="m7483 19591c-42-26-53-50-49-100 4-52 20-71 61-71 44 0 91 40 107 91 10 35 9 43-9 67-25 34-67 39-110 13zm85-57c2-25-3-37-28-58-46-39-70-35-70 11s33 85 70 81c20-2 26-9 28-34z"/><path d="m4362 19575c-30-13-51-40-40-51 3-2 26 5 52 17 47 21 76 20 76-2 0-6-22-32-50-57-27-25-50-51-50-58 0-22 35-34 95-34 62 0 95 13 95 36 0 12-11 13-67 8l-68-7 31 34c32 35 54 70 54 88 0 38-68 52-128 26z"/><path d="m5690 19563c-38-5-63-20-54-34 3-5 32-6 64-2 79 8 80-11 5-68-30-23-55-47-55-54 0-33 75-52 165-40 45 5 55 10 55 26 0 17-8 19-76 19h-77l42 45c42 46 51 74 28 93-17 14-55 20-97 15z"/><path d="m6722 19550c-48-30-96-120-62-120 5 0 20-11 34-25s35-25 48-25c36 0 88 37 103 73 36 88-39 148-123 97zm88-35c27-33-34-107-75-92-52 20-12 103 51 106 6 1 17-6 24-14z"/><path d="m8764 19550c-28-11-37-27-30-47 6-14 9-14 31 1 26 17 70 21 79 8 9-15-22-49-50-56-20-5-33-1-49 14-27 26-40 12-24-24 21-44 70-46 123-5 63 50 50 120-22 118-20 0-47-4-58-9z"/><path d="m13145 19542c-5-4-19-24-29-45-11-21-33-47-48-58-36-26-38-53-3-46 17 3 24 0 21-7-2-6-12-44-22-84-16-64-16-75-3-82 21-14 34 7 49 74 7 33 25 98 41 145 22 68 26 88 16 98-7 7-16 9-22 5z"/><path d="m8293 19529c-22-6-34-18-42-41-24-68-7-88 77-88 91 0 159 76 100 113-31 20-96 28-135 16zm102-39c23-9 25-13 15-25-27-33-140-45-140-15 0 6 9 19 20 30 22 22 64 26 105 10z"/><path d="m14171 19521c-6-11-11-56-11-101 0-63 3-82 15-87 9-3 18-4 20-2 2 3 5 49 7 103 2 70-1 100-9 103-6 2-16-5-22-16z"/><path d="m11270 19465c-23-27 0-35 101-35 90 0 99 2 99 19 0 26-19 31-110 31-56 0-81-4-90-15z"/><path d="m1735 19403c-46-10-93-37-103-59-13-28 5-46 22-22 31 42 142 60 200 33 111-53 77-131-95-220-90-46-109-68-90-103 21-40 59-34 46 8-5 16 7 26 71 61 169 93 211 168 139 247-46 52-115 72-190 55z"/><path d="m10539 19341c-27-28-35-54-30-106 4-51 88-72 157-39 44 21 64 50 64 91 0 42-30 63-92 63-27 0-48 5-48 10 0 18-21 10-51-19zm149-58c7-45-97-82-132-47-21 20-21 21 11 50 22 20 35 24 72 22 39-3 46-7 49-25z"/><path d="m14157 19283c-3-5-8-49-12-99-5-67-4-94 5-99 6-4 16-3 21 2 14 14 28 176 16 191-11 14-24 16-30 5z"/><path d="m867 19259c-33-52-60-118-54-134 9-21 38-13 91 26 22 16 46 29 54 29 23 0 5-72-60-230-60-148-67-182-35-188 27-5 102 47 88 61-7 7-18 7-36-1-25-12-26-11-19 10 3 13 26 70 49 128 80 197 82 269 8 257-20-4-44-14-54-23-27-25-33-12-13 30 13 26 15 39 7 47s-15 5-26-12z"/><path d="m4261 19179c-24-54-57-238-47-264 14-39 34 10 59 150 27 149 22 192-12 114z"/><path d="m11807 19203c-10-10-8-176 2-192 8-12 12-12 25-2 27 23 19 201-9 201-6 0-15-3-18-7z"/><path d="m5373 19181c-18-11-39-31-48-44-17-27-40-128-51-224-6-59-5-63 13-63 17 0 22 11 33 75 12 69 15 75 37 75 35 0 94 27 126 57 74 72-21 179-110 124zm81-34c29-21 16-58-29-84-49-28-85-30-80-5 2 9 6 29 10 44 3 16 17 34 33 42 34 19 44 19 66 3z"/><path d="m6264 19171c-37-22-67-99-92-229-8-48-17-89-18-90-1-2-98-8-216-13-117-5-256-11-308-15l-95-6 31 20c91 58 84 152-12 152-43 0-84-22-84-46 0-18 9-18 49 2 45 22 85 6 72-28-10-29-66-68-97-68-20 0-24 5-24 30 0 37-25 41-34 5-7-28 8-64 27-66 7-1-32-7-86-14-96-12-117-18-104-32 4-3 102-1 219 6 205 11 873 40 951 41 27 0 37 4 34 13-2 6 2 20 10 29 51 59-77 140-145 92-24-17-30-44-9-44 8 0 13-13 13-34v-33l-70 5c-39 2-72 5-73 6s5 38 14 83l16 81 44 5c83 9 128 69 98 127-23 44-61 52-111 21zm80-44c9-15 6-23-17-43-16-13-41-24-57-24-24 0-27 3-23 23 14 57 73 84 97 44zm90-207c33-12 33-37 2-52-34-15-53-5-58 31-5 34 9 39 56 21z"/><path d="m12611 19176c-8-9-11-45-9-103 3-80 5-88 23-88 19 0 20 7 20 99 0 100-9 123-34 92z"/><path d="m8420 19170c0-6 33-50 74-98 110-130 146-218 146-356 0-82-24-142-73-181-61-48-59-47-47-59 30-30 138 75 161 157 19 67-2 221-40 303-36 76-51 97-133 182-56 58-88 76-88 52z"/><path d="m11430 19173c-26-10-50-36-50-55 0-23 2-23 42 2 37 22 92 27 86 8-2-7-26-28-54-46-59-41-68-53-49-78 11-16 26-19 96-19 72 0 84 3 87 18 3 14-4 17-40 18-24 1-54 4-68 8-25 7-25 8-3 15 25 8 83 71 83 90 0 36-76 59-130 39z"/><path d="m6816 19123c-36-50-78-147-102-236-20-74-29-272-15-324 15-55 56-103 87-103 27 0 33 24 9 34-8 3-24 20-35 38-29 48-29 252 1 358 27 98 82 213 115 239 28 22 25 41-6 41-12 0-34-19-54-47z"/><path d="m4025 19103c-79-136-142-223-168-234-21-9-27-17-23-32 3-13-9-34-41-68-40-43-43-50-27-56 14-5 33 10 83 65 57 61 73 73 115 82 27 6 51 9 53 6 3-2-1-30-7-61-8-38-9-60-2-67 18-18 29 0 47 72 16 67 18 70 51 76 42 8 46 34 6 34h-28l1 112c0 96-2 113-16 116-11 2-26-14-44-45zm17-143c-7-41-10-45-46-52-22-5-41-7-43-4-2 2 18 38 44 80 43 68 48 73 51 49 1-16-1-48-6-73z"/><path d="m5968 19102c-38-42-49-97-26-120 7-7 30-12 51-12 32 0 38-3 33-16-13-33-18-92-8-98 15-9 27 13 56 107 15 48 29 94 32 102 13 32-27 14-43-20-15-32-20-35-60-35h-43l20 50c20 51 14 72-12 42z"/><path d="m1295 19078c-66-10-102-32-71-44 24-9 215 11 228 24 31 31-35 39-157 20z"/><path d="m5786 19064c-3-9-6-24-6-35 0-12-7-19-20-19-30 0-90-27-90-40 0-8 15-10 50-5l50 7v-36c0-52 28-49 36 3 5 32 11 40 31 43 31 4 31 22-1 26-22 3-24 7-19 38 4 26 2 34-10 34-8 0-18-7-21-16z"/><path d="m14145 19028c-3-8-5-55-3-104 2-71 6-89 18-89s15 18 15 99c0 71-4 101-12 103-7 3-15-2-18-9z"/><path d="m8318 18998c-9-13-28-48-43-78s-43-82-63-114c-41-69-47-64-57 55s-14 139-32 139c-14 0-15-15-11-124 6-128 19-178 50-184 26-5 72 51 120 143 23 44 52 97 65 117 12 21 23 44 23 53 0 23-36 18-52-7z"/><path d="m6984 18993c-3-10-18-52-33-93-41-109-41-107-25-120 13-11 83-7 120 7 10 4 11-8 7-51-5-47-3-56 10-56 11 0 19 17 27 58 7 31 17 63 23 70 5 7 8 15 5 18-3 2 0 29 7 59 9 36 10 57 3 61-15 9-25-6-41-61-14-51-17-53-94-68l-31-6 29 80c16 44 29 88 29 99 0 25-29 27-36 3z"/><path d="m7371 18887c-22-45-55-100-75-122l-35-40-1 118c0 96-3 117-15 117-22 0-26-32-23-165 3-112 4-120 24-123 11-2 32 6 46 18 54 42 168 246 152 271-15 25-37 2-73-74z"/><path d="m11805 18947c-3-7-5-54-3-103 3-81 5-89 23-89 19 0 20 7 20 100 0 87-2 100-18 103-9 2-19-3-22-11z"/><path d="m12612 18928c-14-14-16-165-3-187 5-8 16-11 25-8 14 6 16 21 14 104-3 95-11 116-36 91z"/><path d="m4762 18898c-33-6-52-14-49-21 3-9 46-11 153-8 146 3 173 8 160 30-9 14-188 13-264-1z"/><path d="m4886 18815c-109-14-145-27-116-45 8-5 24-7 35-5s52 6 90 10c114 9 135 15 135 36 0 22 5 22-144 4z"/><path d="m7795 18819c-90-12-102-16-87-31 13-13 142-14 215-2 28 4 37 10 35 22-4 21-60 24-163 11z"/><path d="m1716 18765c-3-9 1-18 10-22 19-7 39 11 30 26-10 16-33 13-40-4z"/><path d="m4452 18748c3-7 17-14 32-16 34-4 44-27 21-52-26-29-14-44 54-69 34-12 61-26 61-31 0-15-42-38-83-45-44-8-53-18-32-35 20-17 95 4 130 36 45 42 28 77-51 109-41 16-41 17-31 46 17 44 0 63-58 67-35 2-46 0-43-10z"/><path d="m4220 18732c-41-23-55-49-19-37 38 11 89 18 89 11 0-4-22-34-50-67-27-33-50-69-50-79 0-36 81-68 140-55 52 11 36 32-30 40-33 4-60 11-60 16s23 43 52 84c43 63 49 76 38 89-17 21-68 20-110-2z"/><path d="m8380 18737c-30-15-43-55-14-42 11 5 43 11 71 13 44 3 54 1 60-14 8-22-38-64-72-64-13 0-37 11-53 25-33 28-50 19-32-16 18-33 75-52 114-39 78 25 105 104 46 135-35 18-86 19-120 2z"/><path d="m7437 18710c-46-14-57-29-57-75 0-59 30-95 77-95 29 0 44 8 79 44 49 48 56 82 25 110-23 21-85 29-124 16zm101-55c4-31-49-77-84-73-25 3-29 8-32 38-4 44 19 62 73 58 31-2 41-7 43-23z"/><path d="m5770 18703c-56-9-70-14-70-28 0-12 16-15 79-15 47 0 83-5 87-11 9-15-43-66-103-101-29-16-53-34-53-39 0-21 51-33 150-33 99-1 105 0 105 19 0 18-8 20-77 23l-77 3 46 42c25 23 49 51 53 62 12 32-9 64-49 75-36 10-46 10-91 3z"/><path d="m13905 18567c-77-252-77-252 26-245l69 5-7-41c-11-70-10-81 12-81 17 0 22 13 38 105 18 106 16 155-6 147-6-2-16-23-22-46-5-23-12-40-15-38-3 3-25 2-50-3s-46-7-48-5c-4 3 35 152 43 164 8 13-4 39-21 45-8 3-16 0-19-7z"/><path d="m11744 18518c-6-7-15-24-21-38-44-98-106-220-112-220-11 0-42 106-48 166-6 57-15 67-33 35-17-32-12-88 16-169 33-98 44-111 78-89 28 19 159 278 154 304-4 21-23 27-34 11z"/><path d="m12942 18489c-11-11-27-48-37-82-9-34-26-82-37-107-20-44-20-45-30-20-6 14-21 63-33 110-15 53-28 85-37 85-23 0-21-64 7-152 26-83 55-128 78-120 23 7 56 68 86 158 17 50 38 97 47 104 20 14 13 45-10 45-9 0-24-9-34-21z"/><path d="m14153 18494c-3-8-3-52-1-97 16-247 101-257 213-25 41 84 44 117 11 105-8-3-35-46-60-94-24-48-53-99-63-112-20-25-20-25-32-4-6 12-16 66-22 120s-13 104-15 111c-5 17-23 15-31-4z"/><path d="m492 18472c-43-6-16-27 44-34 229-26 346-30 1044-30 410 0 769 3 798 7 152 21 2 26-783 29-620 3-862 7-955 17-69 8-135 13-148 11z"/><path d="m15322 18403c-27-38-62-88-77-113-28-46-93-120-106-120s-29 57-37 130c-5 57-11 75-22 75-12 0-15-16-15-90 1-102 18-149 59-157 47-9 89 27 163 142 31 47 71 104 89 127 38 46 43 73 15 73-12 0-38-25-69-67z"/><path d="m12458 18438c-20-7-28-17-28-34 0-24 23-33 35-14 7 11 88 14 98 3 10-9-13-40-73-100-90-90-58-121 108-101 99 12 136 28 115 49-10 9-30 10-95 1-129-18-127-20-65 47 65 71 75 104 41 138-25 25-85 30-136 11z"/><path d="m14398 18261c-30-27-33-35-33-86 0-50 3-60 29-82 34-29 76-26 132 10 61 40 70 103 20 153-46 46-101 48-148 5zm118-34c21-18 26-29 21-49-12-47-92-82-121-53-25 25-20 63 13 96 36 35 52 36 87 6z"/><path d="m12984 18255c-53-23-76-114-39-154 28-32 77-44 127-31 53 15 67 26 85 68 37 88-71 161-173 117zm117-45c25-14 25-54-1-80-23-23-98-28-118-8-34 34 9 98 65 98 19 0 43-5 54-10z"/><path d="m11778 18215c-33-19-70-78-66-107 5-34 26-32 41 4 28 67 96 97 131 59 16-18 17-25 7-50-15-36-47-66-83-80-23-9-30-7-41 9-16 23-27 16-27-15 0-37 24-50 69-36 51 15 87 45 111 92 27 52 25 75-9 110-34 33-87 39-133 14z"/><path d="m2957 18133c-3-5-24-86-47-181-41-168-46-223-16-191 27 27 100 333 88 367-4 13-18 16-25 5z"/><path d="m2651 17848c-94-177-94-178-146-178s-58-15-14-34l30-13-26-31c-24-29-25-33-9-39 12-4 27 5 53 35 33 39 40 42 84 42h48l-3-47c-2-37 0-48 12-48 10 0 18 16 24 51 8 51 9 52 48 58 30 5 39 10 36 24-2 12-11 16-31 14-28-4-28-4-20 45 4 26 8 86 8 133 0 77-2 85-20 88-16 2-31-17-74-100zm59-34c-6-38-15-86-21-106-9-36-12-38-49-38-22 0-40 2-40 4s15 30 33 63c18 32 43 80 56 106s25 46 28 44c2-3-1-35-7-73z"/><path d="m870 17742c-36-37-45-111-36-311 20-460 20-542-4-651-26-122-72-227-106-242-25-12-40-41-29-58 10-16 30-12 50 10 41 45 115 8 159-79 15-29 28-82 35-142 11-86 10-116-9-265-22-174-52-318-95-460-34-111-43-260-21-336 23-80 106-184 106-134 0 9-11 33-24 54-13 20-32 63-42 94-24 78-10 200 45 413 40 154 59 258 80 450 8 67 7 117-3 197-12 96-18 114-52 170-28 44-51 67-80 82l-41 21 24 55c34 76 73 265 73 353 0 40-7 174-16 298-17 233-15 411 5 448 14 25 43 28 61 5 8-8 22-20 32-25 30-16 22 15-13 50-38 38-62 39-99 3z"/><path d="m1423 17708c-11-16-72-271-76-318-1-25 2-35 14-38 12-2 35 27 78 100 73 123 149 221 163 212 6-4 9-38 6-88-5-80-38-184-124-393-39-93-23-145 40-129 34 8 32 42-2 39-28-3-28 4 3 78 30 71 90 235 112 303 22 72 15 212-11 232-11 8-24 14-28 14-15 0-99-92-136-148-19-29-36-51-38-49-2 1 3 39 11 82 8 44 14 88 15 98 0 20-14 22-27 5z"/><path d="m1905 17616c-5-3-22-7-37-10-16-4-28-13-28-21 0-22 219-20 227 1 3 8 2 18-1 22-8 7-145 14-161 8z"/><path d="m7880 17589c-40-16-79-60-86-94-3-17-6-91-7-163-2-107 1-134 13-142 23-14 30-2 30 58 0 31 7 84 14 117 15 64 13 80-11 71-12-5-14-1-8 21 10 45 34 74 73 90 67 28 182-10 182-60 0-35-30-56-101-71-52-10-64-16-64-32s6-18 35-16c66 5 114 24 147 57 18 18 33 41 33 52 0 32-36 79-76 98-45 22-138 29-174 14z"/><path d="m2403 17509c-18-5-33-13-33-18 0-14 709-26 723-12 7 7 7 14 1 20-13 13-651 23-691 10z"/><path d="m2000 17500c-112-17-170-33-170-46 0-18 30-18 168 3 91 14 112 20 110 32-4 19-33 22-108 11z"/><path d="m8574 17492c-181-46-246-154-112-187 24-6 26-9 13-22-8-8-19-22-25-32-5-10-29-29-54-42-57-30-80-20-84 37-4 50-48 84-108 84-48 0-76-18-98-65-18-38-15-68 12-97 23-27 94-24 128 5l27 23 23-23c28-28 48-29 99-3 30 15 41 17 44 8 2-7 17-25 32-40 51-52 138-27 157 45 17 60-27 108-137 153-30 13-57 27-59 32-4 14 70 59 129 77 30 9 93 19 141 22 87 6 119 15 104 30-16 16-160 13-232-5zm-320-224c8-13 6-24-10-45-17-22-29-28-60-28-35 0-39 3-42 27-7 56 82 93 112 46zm324-28c12-11 22-28 22-37 0-28-31-53-67-53-46 0-61 31-42 94 13 44 13 44 38 31 15-7 36-23 49-35z"/><path d="m12597 17380c-14-11-39-47-56-81-16-33-40-68-52-77-15-13-22-30-23-57-2-56 25-59 58-7 22 35 30 40 74 46 27 3 71 17 98 31s50 25 50 25c1 0 4-13 7-28 4-17 16-33 32-40 33-15 50-15 97 2 34 12 38 12 43-5 16-48 134-65 204-30 21 11 52 36 70 56 26 30 31 44 29 73-3 33-8 40-48 60-51 26-127 29-168 8-15-8-50-40-79-70-47-50-56-56-93-56-47 0-51 15-23 75 15 31 15 38 3 45-17 10-41-2-94-47-37-30-56-39-139-57l-28-7 22 43c12 24 31 56 42 71 26 38 10 55-26 27zm558-64c45-19 46-47 3-87-41-37-95-54-142-45s-62 36-41 76c32 62 108 86 180 56z"/><path d="m2565 17382c-41-14-65-40-95-103-40-86-40-137 0-183 37-41 102-69 141-61 24 5 33 1 60-29 50-57 81-45 37 15-23 30-23 31-3 41 42 23 103 94 114 133 21 78-34 167-115 186-44 10-109 10-139 1zm177-68c57-56 53-119-12-178-22-20-46-36-54-36-7 0-20 18-29 40-26 68-49 46-28-28 10-32 10-32-29-32-47 0-110 48-110 85 0 44 13 85 26 85 8 0 14 9 14 19 0 58 46 84 135 76 46-4 65-11 87-31z"/><path d="m12278 17353c-8-10-21-28-27-40-16-31-74-59-140-68-59-8-59-9-25 74 18 42 18 41-6 41-13 0-27-15-44-47-35-69-111-118-180-118-28 1-60 4-70 8-18 7-18 9 6 35 71 76 40 161-36 101-34-27-59-75-53-105 4-21-1-25-37-35-50-14-133-5-156 16-10 9-20 29-24 46-8 41-30 46-67 14-76-63-237-117-292-96-15 6-27 15-27 19 0 17 42 62 70 77 37 19 38 19 43-7 4-23 4-23 14 2 23 55-21 67-94 25-68-41-92-105-52-141 39-36 188-15 261 37 35 26 42 24 22-6-19-29-12-55 15-55 19 0 61 69 61 100 0 7 10-2 23-21 37-56 125-74 221-45 41 13 52 13 81 0 53-22 125-18 179 11 42 23 46 23 46 6 0-23 22-42 36-33 6 4 14 16 18 28 5 17 17 22 66 27 33 4 74 14 90 22 38 19 47 19 54-3 3-10 18-25 33-34 60-34 168-34 161 0-2 13-18 18-65 23-34 3-69 12-78 19-21 18-19 50 7 77 17 18 20 28 12 40-15 24-28 26-46 6zm-502-79c-10-14-20-23-23-20s2 17 11 32c10 14 20 23 23 20s-2-17-11-32z"/><path d="m10490 17340c-8-5-56-10-107-10-110 0-143-10-143-44 0-13 7-27 16-30 23-9 24-8 24 13 0 18 9 20 93 23 50 2 93 3 95 2 1 0-5-17-13-37-18-44-20-98-3-115 22-22 86-13 151 20 34 18 65 34 70 36 4 2 7-3 7-11 0-7 9-22 21-33 28-25 93-23 147 5 51 26 50 26 54-1 2-13 11-24 21-26 13-3 17 3 17 25 0 15 9 48 20 72s20 47 20 52c0 19-24 8-57-26-49-50-106-77-156-73-46 3-47 7-32 76 9 40-8 43-44 8-46-44-143-96-178-96-29 0-33 3-33 28 0 15 14 51 30 81 16 29 27 57 24 62-7 12-25 11-44-1z"/><path d="m9280 17304c-30-14-63-32-72-41-16-14-18-14-27 9-5 13-16 30-25 37-21 18-67-1-101-41-26-31-25-32-41 20-2 8-9 12-16 10-11-4-13-132-2-150 12-19 31-4 58 48 32 60 79 96 90 68 3-9 6-33 6-55 0-50 15-50 65 1 40 41 110 80 145 80 23 0 35-21 45-73 7-37 36-64 55-52 12 7 13 35 2 35-5 0-14 23-21 50-22 84-65 99-161 54z"/><path d="m8728 17298c-20-12-42-35-49-51-11-25-10-34 6-64 32-58 62-76 122-71 91 8 166 82 143 142-24 64-146 88-222 44zm170-34c30-21 28-45-8-79-36-35-117-47-143-21-24 25-20 91 7 104 33 16 119 14 144-4z"/><path d="m9594 17277c-31-28-37-42-41-84-5-45-3-52 22-71 39-31 104-30 143 3 29 24 31 24 62 9 56-28 190 2 190 42 0 18-8 17-92-7-67-18-98-3-98 48 0 21-4 43-8 49-17 25-60 44-99 44-35 0-50-6-79-33zm117-17c23-13 25-52 3-85-19-29-72-42-104-25-18 10-21 18-16 43 11 58 70 92 117 67z"/><path d="m3090 17105c-13-16-4-19 45-16 11 1 26-3 34-8 12-8 10-16-12-48-15-22-27-44-27-51s28-25 63-40c59-27 61-29 39-41-12-6-48-15-80-19-41-5-57-11-57-22 0-25 98-25 150 0 72 35 64 84-19 115l-44 17 19 32c24 39 24 58 1 79-24 21-95 22-112 2z"/><path d="m2857 17064c-22-12-27-21-25-41 4-33 27-42 35-14 3 12 9 21 13 21 5 0 15 3 24 6 24 9 20-8-14-57-36-54-39-88-7-90 73-5 161 15 154 34-3 8-26 11-66 9l-61-3 25 37c56 82 6 144-78 98z"/><path d="m8699 16690c-41-43-60-96-62-166 0-41-2-44-48-63-56-25-112-27-129-6-8 9-10 28-5 54 9 52-20 81-80 81-67 0-145-71-145-133 0-55 88-83 154-48 35 18 42 19 56 6 21-19 90-19 135-1 33 14 34 14 37-11 4-36 26-40 38-9l10 26 32-20c51-31 113-27 149 9 59 60 27 126-61 126-43 0-47 2-35 15 18 20 36 65 45 115 15 75-31 88-91 25zm61-35c-8-36-53-120-70-130-25-16 3 89 36 133 32 42 44 41 34-3zm-335-115c3-5 2-10-4-10-5 0-12-14-16-30-8-39-44-62-87-58-46 4-49 35-8 77 25 24 40 31 70 31 21 0 42-4 45-10zm409-63c9-15 6-23-18-43-31-28-65-26-98 3-25 23-22 32 15 48 41 19 87 15 101-8z"/><path d="m9026 16621c-11-17-39-210-33-225 11-27 35-17 47 19 14 42 28 50 99 59 30 4 69 13 88 21 33 14 33 14 33-14 0-42 28-68 88-80 42-9 60-8 87 3 18 8 42 12 52 10 10-3 41 7 68 21l50 25 18-25c19-26 41-32 52-15 3 5-6 27-22 47-34 46-44 54-60 48-8-3-13 4-13 18 0 31-18 47-53 47-62 0-125-66-112-117 6-26 6-26-42-19-56 7-73 25-67 69 3 18 0 39-5 47-9 13-18 11-63-12-29-15-83-31-120-36l-68-9v64c0 57-9 78-24 54zm514-95c0-17-46-56-66-56-21 0-17 18 11 45 27 28 55 33 55 11z"/><path d="m7876 16605c-65-23-80-45-88-133-3-42-10-110-14-149-7-76 3-107 32-96 10 4 14 25 14 85 0 44 7 107 16 140 8 33 13 67 10 74-8 20 32 43 85 50 36 4 54 0 99-23 47-24 55-33 58-59 4-40-12-52-88-66-46-9-69-9-91-1-25 10-31 9-36-4-12-30 26-45 95-39 87 9 137 31 155 68 30 61-8 118-101 151-56 20-94 21-146 2z"/><path d="m10171 16581c-23-23-41-165-22-184s31 4 44 84c11 68 14 74 37 77 34 3 104-38 108-64 2-13-12-38-33-64-35-42-42-69-19-77 14-5 83 83 91 115 11 45-8 75-66 105-64 32-113 35-140 8z"/><path d="m10800 16573c-28-10-62-48-81-90-15-34-27-45-58-54-58-17-91-2-123 57-35 64-56 64-87 1-48-97-21-175 28-81 24 44 25 45 36 23 7-12 23-28 36-35 30-17 105-17 144 0 26 11 33 10 56-6 37-27 117-26 167 2 82 46 82 133 2 175-28 15-90 19-120 8zm122-60c26-24 19-53-21-80-48-32-148-30-121 3 8 9 8 19 1 32-30 56 88 94 141 45z"/><path d="m11205 16568c-2-7-9-32-15-54-13-52-61-81-105-64-24 9-26 14-24 57 3 38 0 49-13 51-19 4-31-26-31-82 0-75 83-102 158-50 37 24 38 25 73 8 46-21 95-13 150 26l44 31 21-28c11-15 45-51 75-79l54-51-44-17c-113-45-153-75-129-99 11-11 200 81 215 105 9 14-3 31-65 95-42 43-81 88-87 100-19 35-50 39-73 9-26-33-70-56-106-56-45 0-58 15-58 62 0 33-4 43-18 46-9 2-19-2-22-10z"/><path d="m12124 16570c-27-11-64-57-64-81 0-9 7-25 16-34s14-19 10-22c-13-13-117-15-146-3-27 11-30 17-25 40 11 48-31 47-48-1-10-29-101-62-120-43-3 4 1 20 9 36 16 30 16 30 35 9 23-24 47-18 60 16 23 61-44 85-102 36-36-30-62-84-53-108 15-38 86-46 144-17 34 17 36 17 63-3 46-32 135-27 222 12l70 32 19-51c16-43 16-52 4-59-102-57-155-123-143-179 20-91 172-95 231-5 13 20 16 40 11 91-2 36-10 71-15 76-8 8 5 22 43 50 46 33 57 37 80 28 42-16 97 4 156 57l26 24 16-41c11-29 21-40 36-40 22 0 29 28 12 46-5 5-13 24-18 43-15 58-36 62-85 14-48-46-77-63-107-63-25 0-28 27-6 56s19 64-5 64c-20 0-50-45-50-74 0-17-96-106-115-106-17 0-27 24-34 85-4 32-11 49-19 48-7-2-12 7-12 21 0 26-33 56-60 55-8 0-25-4-36-9zm60-48c3-5-2-19-10-31-12-16-22-20-37-15-30 9-30 9-17 33 11 21 54 29 64 13zm83-249c16-61 9-104-20-129-39-33-100-33-122 0-15 22-15 27 0 55 13 27 107 101 127 101 4 0 11-12 15-27z"/><path d="m1815 16558c-7-20-24-252-19-260 3-5 11-8 19-8 15 0 23 55 27 189 2 60-1 85-9 88-7 3-15-1-18-9z"/><path d="m3539 16560c-14-8-36-51-109-217-13-29-26-53-30-53-3 0-19 54-35 120-15 66-32 120-37 120-15 0-12-79 8-175 17-79 36-115 63-115 32 0 44 19 133 222 12 27 29 55 39 64 31 28 5 56-32 34z"/><path d="m13054 16553c-46-6-66-50-62-133 2-49 7-65 18-65 15 0 25 31 35 108 6 44 8 47 36 47 33 0 89-25 89-40 0-5-9-24-20-42-26-43-25-54 6-74 31-21 56-5 34 21-10 12-10 19 2 37 8 13 17 33 20 45 14 54-72 106-158 96z"/><path d="m13640 16513c-22-8-60-45-60-58 0-23 37-45 73-45 21 0 37-5 37-11s-21-30-47-52c-77-69-103-112-103-172 0-57 20-92 55-96 36-5 124 31 149 62 41 49 44 101 11 205-5 17-1 23 24 34 17 7 31 19 31 26 0 16-33 18-61 4-16-9-21-7-29 15-8 21-16 25-52 25-40 1-42 2-24 15 28 21 50 19 84-10 32-27 45-22 35 14-10 37-76 61-123 44zm89-234c13-49 12-58-3-91-13-26-29-41-57-52-74-30-98-13-85 59 7 37 101 148 120 142 6-2 17-28 25-58z"/><path d="m13338 16484c-61-44-62-122-2-144 113-43 234 75 150 147-38 33-99 31-148-3zm132-33c14-27 3-49-32-67s-96-11-104 11c-3 7 7 27 22 44 33 38 96 44 114 12z"/><path d="m2911 16475c-16-14-33-36-37-48-3-12-16-29-27-39-18-14-21-29-24-110-4-97 8-143 37-143 12 0 17 27 26 126 15 166 32 199 103 199 31 0 81-40 81-64s-44-48-102-55c-41-5-54-10-56-25-4-17 1-19 59-13 66 6 104 26 128 69 12 21 12 28 0 53-34 71-131 97-188 50z"/><path d="m2470 16441c-14-4-26-14-28-23-3-14 5-15 58-11 60 6 62 5 49-14-18-29-6-49 43-74 47-23 78-47 78-60 0-16-50-41-97-47-34-5-49-12-51-25-9-44 140-4 174 48 24 37 7 68-58 101-67 33-64 30-44 53 10 11 16 28 14 38-3 15-14 18-58 20-30 1-66-2-80-6z"/><path d="m1549 16363c-77-176-68-163-111-163-27 0-38-4-38-15 0-9 9-15 25-15 14 0 25-4 25-8 0-17-81-122-92-119-18 4-20-20-2-27 25-10 59 17 104 84 23 34 48 60 58 60 9 0 34 3 55 6l38 7-3-44c-2-34 1-44 14-47 12-2 19 9 27 49 34 158 15 291-42 297-25 3-30-2-58-65zm76-45c4-26 4-61 0-78-6-28-10-30-51-30-24 0-44 1-44 3 0 1 16 41 35 87s35 87 35 90c1 21 20-33 25-72z"/><path d="m3634 16336c-37-16-50-34-37-47 6-6 21-4 39 7 40 23 87 13 82-19-4-27-62-67-99-67-24 0-29 4-29 26 0 30-19 28-31-3-5-13-2-28 7-42 33-47 143-10 179 60 21 40 11 68-31 85-40 17-41 17-80 0z"/><path d="m1933 16287c-13-21 24-32 121-35 84-3 105-1 115 12 11 13 11 17 0 20-27 9-231 11-236 3z"/><path d="m3093 16265c-47-33-22-91 44-106 61-13 133 19 133 61 0 49-128 81-177 45zm126-34c35-22-36-49-83-31-23 9-26 13-16 25 14 16 77 20 99 6z"/><path d="m2067 16196c-91-11-112-26-55-38 38-8 156 6 171 21 11 11 1 32-16 30-7-1-52-7-100-13z"/><path d="m3555 16144c-27-2-178-8-335-14-304-12-607-34-617-44-19-18 28-22 172-15 88 4 273 13 410 19 447 20 469 22 462 43-4 13-19 15-92 11z"/><path d="m3131 16026c-41-15-61-40-44-57 8-8 17-7 35 5 31 20 113 32 122 17 11-18-21-67-75-114-45-39-51-48-39-61 10-13 34-16 109-16 101 0 128 8 118 34-5 13-22 16-79 16h-72l31 33c56 59 69 110 35 140-22 20-91 21-141 3z"/><path d="m12710 15972c0-10 11-29 25-42s39-60 57-104c27-69 32-94 32-171 1-78-2-96-24-135-24-43-85-94-100-85-11 7-33-22-25-35 3-5 18-10 33-10 48 0 106 52 144 128 55 114-3 376-99 452-32 25-43 25-43 2z"/><path d="m12206 15918c-59-35-116-141-141-263-25-121-22-165 10-193 38-32 55-15 30 31-17 32-17 37 0 123 9 49 26 112 37 140 22 62 91 144 120 144 28 0 17 24-13 27-13 2-33-2-43-9z"/><path d="m7956 15820c-36-11-66-38-66-60 0-26 28-33 40-10 18 34 145 55 156 26 9-23-20-67-80-124-54-50-65-73-48-99 22-34 131-19 245 36l59 28-6-31c-4-17-9-89-13-159-5-122-4-129 13-125 15 2 22 18 31 73 6 39 13 99 14 135 3 84 24 155 52 175 47 33 124 5 115-42-5-28-66-55-110-47-40 6-51-9-26-34 32-32 149 8 178 61 13 24 13 30 0 54-36 64-118 86-176 48-27-17-27-17-22 9 4 17 1 26-8 26-17 0-34-32-34-64 0-19-9-32-32-46-44-27-176-70-213-70-29 0-29 0 27 58 76 77 98 140 62 176-17 18-107 21-158 6z"/><path d="m9381 15809c-24-26-51-101-51-141 0-29 30-68 54-68 25 0 81 23 113 46 39 29 45 30 61 3 9-15 21-19 44-17 40 4 46 21 12 37-27 12-27 11-12 95 4 23-16 32-31 14-55-68-78-90-115-107-23-12-50-21-59-21-26 0-22 57 8 115 32 64 18 89-24 44z"/><path d="m9050 15805c-120-33-197-97-184-151 4-17 2-24-8-24-24 0-47 24-52 54-8 47-23 53-39 15-21-50-51-72-99-73-23-1-43 4-45 11-6 17 55 82 98 104s89 25 107 7c9-9 15-9 25 1s7 16-13 33c-56 45-186-3-241-90-37-59-34-82 13-105 45-22 81-17 133 18 19 14 35 21 35 16 0-4 12-14 28-21 24-12 64-16 199-19 42-1 42-1 36-38-3-21-9-52-13-70-8-33 8-61 29-49 11 7 31 94 31 135 0 26 4 29 67 45 85 21 137 60 141 105 8 82-120 131-248 96zm185-49c40-26 33-61-15-86-22-11-60-24-84-29l-43-8-15 68c-13 61-13 69 1 73 31 9 132-2 156-18zm-201-58c15-79-4-94-84-62-23 9-40 23-40 32 0 22 40 62 61 62 10 0 21 5 24 11 13 20 30 2 39-43z"/><path d="m12578 15783c-13-16-46-57-73-93-62-84-77-97-87-73-3 10-7 50-7 88-1 77-12 108-32 88-18-18-17-180 2-218 21-44 44-43 92 7 53 54 161 194 165 213 6 25-32 17-60-12z"/><path d="m9720 15744c-16-40-12-130 5-144 13-11 24-7 66 19 58 36 59 36 59 16 0-8 9-24 20-35 27-27 118-27 177 0 43 19 43 19 54-1 27-51 141-64 225-25 86 40 115 97 74 149-48 60-204 57-236-5-11-22-19-27-27-19s-19 2-42-23-45-37-87-46c-61-14-108-8-108 14s55 75 89 87c44 15 42 43-1 33-39-8-125-49-185-87-24-15-45-27-49-27-3 0-5 21-4 48 1 26 1 53 1 60-2 21-21 13-31-14zm638-40c12-8 22-20 22-28 0-30-79-75-141-78-41-3-41-3-45 38-5 50 11 73 56 84 40 9 76 3 108-16zm-211-71c-3-10-5-4-5 12 0 17 2 24 5 18 2-7 2-21 0-30z"/><path d="m10890 15724c-32-33-72-54-105-54-22 0-25 4-23 32 4 49-26 49-51 1-34-65-132-113-188-92-35 13-43 11-43-11 0-24 28-40 72-40 37 0 126 38 147 63 10 12 18 14 31 7 42-22 102-5 164 47l29 25 19-61c11-37 26-65 38-71 29-15 37 11 17 58-8 20-21 55-29 77-17 50-44 56-78 19z"/><path d="m11749 15736c-25-6-60-22-77-35l-32-22v27c0 46-22 12-72-111-59-145-74-203-59-218 16-16 24-3 61 105 35 103 61 141 82 120 30-30 168 0 209 45 37 40 42 60 19 83s-63 25-131 6zm99-38c-8-24-58-51-109-59-71-11-88 0-44 30 52 35 162 56 153 29z"/><path d="m5085 15643c-100-23-135-44-135-82 0-10 16-42 36-70 23-35 33-58 29-72-8-25-59-51-93-47-22 2-26 7-24 26 3 18-1 23-15 20-11-2-19-14-21-31-9-76 118-76 177-1 29 37 26 60-15 120-20 29-33 57-30 63 11 17 83 33 184 41 95 7 109 11 97 29-6 11-149 14-190 4z"/><path d="m1505 15596c-33-14-57-44-70-86-4-14-20-41-35-60-67-87-81-232-23-255 43-16 112-23 148-15 35 8 41 6 65-20 28-30 71-47 89-35 19 11 12 23-26 42-20 10-38 23-40 29s15 24 37 39c44 31 63 60 75 113 18 85-31 191-109 237-48 28-68 30-111 11zm86-41c40-21 86-87 94-134 10-58-10-116-49-146-18-14-36-25-39-25-4 0-13 13-22 30-18 34-47 53-69 44-20-8-21-24-1-24 19 0 49-46 41-65-7-19-102-21-141-3-48 22-28 122 46 228 24 33 47 60 52 60 4 0 5 5 1 12-8 12 22 38 43 38 8 0 27-7 44-15z"/><path d="m2747 15528c-78-111-81-116-67-133 7-9 29-15 51-15 34 0 38-3 36-22-4-42 28-25 82 41 50 63 66 111 37 111-8 0-17-8-20-18-11-32-49-60-93-67-24-4-43-4-43 0 0 9 78 123 90 130 17 11 11 35-9 35-13 0-36-22-64-62z"/><path d="m4761 15528c-7-35-24-89-38-120-25-56-24-78 1-78 27 0 90 173 84 227-2 15-10 29-18 31-12 2-19-13-29-60z"/><path d="m13091 15576c-14-17-7-36 14-36 22 0 29 20 13 36-13 13-16 13-27 0z"/><path d="m3816 15562c-2-4-1-39 4-77 5-39 9-125 10-191 0-102 3-123 16-128 26-10 65 42 133 174 35 67 70 134 79 150 14 23 14 32 4 42-19 19-42-11-113-149-34-68-63-122-65-120-1 1-7 59-13 129-6 69-15 138-21 152-9 26-24 34-34 18z"/><path d="m3056 15549c-74-18-99-65-51-94 14-8 37-22 52-31l27-17-28-23c-31-28-66-32-66-8s-25 11-28-16c-10-64 115-44 146 25 16 34 6 52-40 76-22 11-38 25-35 32 5 15 63 26 145 26 55 1 63 3 60 19-3 14-15 17-73 19-39 1-88-3-109-8z"/><path d="m3428 15504c-15-8-34-27-42-43-17-33-33-152-40-309-5-95-3-114 10-119 8-3 17-4 19-1 2 2 12 94 22 203 16 181 19 202 40 223 43 43 144 18 172-44 9-20 9-29-1-41-21-26-85-52-142-59-46-6-56-10-56-25s8-19 38-19c97 0 212 65 212 119 0 92-144 163-232 115z"/><path d="m5978 15483c-8-10-36-57-62-104-27-47-59-99-72-115l-23-29-1 46c0 80-12 139-26 139-15 0-16-6-14-128 1-93 5-108 26-116 22-9 71 47 131 150 28 49 61 101 73 117 35 44 4 82-32 40z"/><path d="m5385 15463c-64-17-90-68-106-211-13-125-9-197 11-197 12 0 16 18 20 79l5 80 72 12c40 7 88 21 107 33 63 39 71 113 18 164-41 39-80 52-127 40zm68-46c18-8 38-26 46-40 30-56-26-104-126-110l-48-2 3 39c5 56 27 105 54 116 31 12 34 12 71-3z"/><path d="m4427 15413c-3-4-8-23-12-40-6-28-11-33-36-33-39 0-70-17-63-34 4-10 17-12 44-9l39 5 3-58c2-45 7-60 19-62 13-2 18 9 23 58l7 60h45c31 0 46 5 51 15 8 22-3 30-45 30-34 1-37 3-42 35s-23 50-33 33z"/><path d="m2205 15381c-89-5-110-9-110-21s18-16 95-18c126-3 215 8 215 28 0 18-34 19-200 11z"/><path d="m4885 15286c-183-28-215-35-215-47 0-20 56-20 197-1 81 12 174 24 206 27 47 5 58 10 55 23-5 25-68 24-243-2z"/><path d="m2228 15287c-61-6-88-13-88-23 0-17 47-21 135-12 108 11 135 17 135 33 0 17-44 18-182 2z"/><path d="m1782 15273c-14-26-44-180-40-206 4-32 31-27 41 9 7 23 21 37 53 53 25 11 46 21 48 21s-3-22-11-50c-16-55-6-90 26-90 26 0 31 9 20 33-7 16-3 43 15 99 13 42 21 80 18 83-9 8-20 6-34-9-8-8-38-26-67-41l-53-26 7 64c7 66-4 95-23 60z"/><path d="m2703 15276c5-16 94-26 257-26 141-1 205 7 205 25 0 5-104 10-233 11-168 1-232-2-229-10z"/><path d="m4038 15273c-25-16-48-51-48-73s36-8 52 20c14 24 24 30 51 30 18 0 42-6 52-14 17-12 18-17 7-40-13-29-67-66-95-66-11 0-21 9-24 20-7 26-23 16-23-14 0-60 81-55 145 10 44 44 49 95 10 120-37 24-95 28-127 7z"/><path d="m5546 15249c-38-30-49-55-36-79 12-23 30-18 30 9 0 29 33 51 77 51 53 0 72-20 49-55-21-32-65-44-81-21-18 23-35 20-35-8 0-31 47-52 87-39 38 13 87 84 78 112-15 49-120 68-169 30z"/><path d="m6036 15255c-38-13-45-19-68-59-8-15-7-22 4-30 8-6 13-16 11-22s6-22 17-36c44-57 163-40 194 27 21 44 9 75-39 103-50 30-74 34-119 17zm108-56c14-11 26-27 26-34 0-23-51-55-87-55-24 0-41 8-58 26-14 15-25 30-25 35 0 17 55 49 85 49 18 0 44-9 59-21z"/><path d="m3606 15239c-22-17-26-28-26-73 0-61 19-86 66-86 41 0 75 20 101 59 30 44 29 57-6 92-37 36-94 40-135 8zm112-31c18-18 15-36-13-63-15-16-36-25-55-25-25 0-30 4-30 24 0 14 4 36 10 50 8 21 16 26 43 26 18 0 38-5 45-12z"/><path d="m2875 15145c-5-2-22-6-37-9-54-12-28-26 47-26 43 0 75-4 75-10 0-14-33-45-80-75-60-38-48-50 51-53 97-3 184 15 184 38 0 17-25 18-122 6l-62-8 34 37c40 42 44 68 13 89-20 14-76 20-103 11z"/><path d="m4783 15090c-41-17-24-29 44-32 57-3 68-6 71-21 5-26-32-62-100-100-100-55-65-99 63-80 117 19 135 58 21 47l-67-7 45 34c81 63 101 132 45 157-30 14-90 15-122 2z"/><path d="m2321 14459c-49-9-87-37-72-52 6-6 21-5 42 2 49 17 66 14 65-11-1-17 12-30 54-52l55-30-30-12c-17-7-39-13-51-14-31 0-55-22-45-39 8-13 18-12 73 3 34 9 68 22 75 28 32 27-1 85-59 103-18 6-18 8-3 25 9 10 15 27 13 37-4 21-49 26-117 12z"/><path d="m3671 14431c-7-5-46-66-85-137-39-70-76-129-82-131s-19 18-29 44c-45 121-88 213-101 213-21 0-18-17 27-136 51-134 64-161 88-174 27-14 65 28 126 141 28 51 60 108 73 127 30 45 20 77-17 53z"/><path d="m2935 14416c-17-7-35-19-42-27-6-8-15-64-21-125-14-153 4-237 43-204 10 9 15 31 15 75v63l87 13c103 15 167 44 171 77 6 38-71 105-144 125-71 20-70 20-109 3zm130-56c23-11 52-31 65-45l23-25-34-14c-19-8-61-17-94-21-33-3-70-8-82-11-22-4-23-1-23 54 0 32 5 63 12 70 18 18 87 14 133-8z"/><path d="m5390 14372c0-4-27-39-61-76-42-48-57-72-50-79s17-5 32 9c18 15 21 16 16 3-16-47-47-153-47-165 0-8 9-14 20-14 15 0 23 14 40 73 30 104 61 189 76 212 20 28 17 45-6 45-11 0-20-4-20-8z"/><path d="m1106 14264c-3-9-6-35-6-59 0-23-7-79-15-124-25-130-7-133 104-20 45 46 84 78 90 75 19-12 12-66-35-261-60-249-63-279-34-295 38-20 110 21 96 55-5 14-9 14-36 0-40-20-40-26 15 209 47 201 52 252 34 305-18 52-58 41-148-43-40-38-43-39-38-16 12 55 19 141 13 165-7 28-31 33-40 9z"/><path d="m2415 14223c-70-8-95-14-95-23 0-14 341-13 377 1 50 19 5 29-127 27-69 0-138-3-155-5z"/><path d="m3673 14215c-40-17-71-61-55-77 9-9 17-7 32 7 20 18 20 18 20-12 0-66 78-105 163-82 48 12 97 54 97 82 0 68-167 122-257 82zm188-51c37-19 35-43-6-64-66-32-155-8-155 42 0 10-7 18-17 18-21 0-6 16 22 23 32 9 124-2 156-19z"/><path d="m2361 14131c-14-4-27-13-29-20-4-12 10-13 75-7 87 7 146 0 140-18-6-20-81-56-130-62-48-7-69-26-50-45 10-10 287 4 331 17 14 4 22 13 20 23-3 13-17 15-88 12l-85-3 23 24c52 56 13 88-103 87-44-1-91-4-104-8z"/><path d="m3092 14113c-23-18-24-19-5-51 22-38 59-55 122-56 58-1 101 24 101 59 0 34-48 57-130 63-53 3-69 1-88-15zm152-33c35-13 33-28-6-34-47-8-102 6-106 27-3 14 4 17 42 17 24 0 56-4 70-10z"/><path d="m1663 14041c-56-3-104-9-108-13-20-20 14-28 118-28 143 0 189 7 185 29-4 19-40 21-195 12z"/><path d="m4628 14021c-53-3-100-9-103-13-4-4-5-15-1-24 6-15 20-16 133-10 70 3 137 9 150 12 26 7 31 29 7 38-16 6-27 6-186-3z"/><path d="m5286 14014c-82-13-118-26-105-39 9-8 41-8 252 3 190 9 228 17 213 41-10 16-250 12-360-5z"/><path d="m3965 13964c-21-3-351-9-1285-23-530-8-610-12-610-32 0-17 1718-3 2070 17 105 6 128 13 116 33-7 10-236 14-291 5z"/><path d="m1597 13913c-4-3-7-12-7-20 0-10 26-13 116-13 111 0 161 10 149 31-7 10-248 13-258 2z"/><path d="m4690 13873c-145-20-152-22-147-36 5-16 138-15 235 2 60 11 72 16 72 32 0 23-10 23-160 2z"/><path d="m5510 13832c-65-35-86-115-40-154 11-9 20-26 20-37 0-52 85-83 160-57 89 31 140 87 126 140-24 97-172 157-266 108zm137-37c74-31 107-83 76-117-26-29-88-58-123-58-50 0-70 16-70 57 0 30-3 35-20 30-16-4-20 0-20 22 0 27 29 63 60 74 27 10 60 7 97-8z"/><path d="m5243 13830c-29-12-57-55-49-76 5-14 10-13 30 9 42 45 146 47 154 4 4-22-47-70-116-110-41-23-52-34-50-51 3-20 8-21 116-20 88 1 117 4 129 16 8 9 12 21 8 28-6 10-36 9-135-6l-35-6 53 42c29 23 59 54 66 69 18 36 4 84-29 99-30 14-110 15-142 2z"/><path d="m2452 13758c-60-63-77-138-42-195 54-89 274-55 245 38-9 27-47 50-98 60-53 10-109-6-105-29 3-14 14-16 61-14 68 4 118-18 96-44-17-20-118-19-148 2-20 14-23 23-18 61 5 48 48 119 78 128 29 9 23 25-9 25-19 0-39-11-60-32z"/><path d="m2740 13713c-44-16-64-79-40-123 32-60 201-43 246 25 37 56-26 106-133 104-32 0-65-3-73-6zm166-55c15-15 14-17-10-33-14-9-44-21-67-26-70-16-123 26-83 66 23 22 136 17 160-7z"/><path d="m3223 13646c-28-23-43-63-60-151-3-16-11-33-16-37-8-5-8-14 0-30 6-13 14-50 18-83 6-65 15-81 39-72 12 5 16 21 16 70v64l62 7c108 13 162 48 160 107-2 69-89 149-161 149-17 0-42-11-58-24zm100-31c37-18 80-76 75-102-4-25-63-51-123-54l-50-3 2 69c1 58 5 72 23 87 27 22 33 22 73 3z"/><path d="m3829 13654c-8-9-36-62-64-117-27-55-54-100-59-101s-15 16-22 38c-8 21-26 58-41 82-30 48-59 60-50 22 5-23 65-162 80-185 14-22 44-14 72 19 34 40 128 235 120 248-9 14-21 12-36-6z"/><path d="m2878 13485c-3-3-97-8-209-11-191-6-247-14-205-30 23-9 461 3 505 13 62 15 50 33-21 33-36 0-67-2-70-5z"/><path d="m3898 13432c-16-9-28-20-28-24 0-3-7-13-15-21-20-21-3-68 33-89 45-27 131-32 171-11 51 26 74 63 62 95-22 57-162 89-223 50zm172-47c27-25 26-32-12-56s-114-21-155 7l-25 16 28 30c27 28 33 30 86 26 37-3 64-11 78-23z"/><path d="m2655 13410c-55-6-75-15-75-33 0-9 25-11 91-8 51 2 95-1 101-7 14-14-37-50-88-63-44-11-58-26-44-49 11-18 290-10 314 9 33 27 12 35-85 32l-94-3 23 24c61 66-9 114-143 98z"/><path d="m3381 13407c-20-25-5-35 43-30 65 8 118-4 114-25-8-43-117-52-138-11-13 22-40 14-40-12 0-46 110-73 170-42 38 19 60 54 53 82-7 29-45 44-118 49-56 3-73 1-84-11z"/></g><g fill="#44b" transform="matrix(.054411653 0 0 -.054411653 1263.11317353537 1009.42902191264)"><path d="m750 2973c-57-10-88-25-119-57-40-41-55-100-46-179 6-45 12-61 32-77 32-25 35-25 64-1 22 17 24 26 21 89-4 105 24 120 164 87 33-7 119-19 190-25 88-8 134-16 144-26 32-32 8-420-28-456-18-18-126-28-289-28-185 0-206-4-250-52-55-58-58-82-55-363 1-145 7-274 13-293 11-34 51-62 89-62 12 0 35 14 52 31l31 30-6 238c-3 130-3 249 0 264l5 27h112c234 1 363 26 423 82 58 54 98 260 91 463-4 122-7 138-34 191-40 81-79 100-217 108-174 10-361 14-387 9z"/><path d="m3660 2971c-42-9-83-34-103-65-39-59-50-127-54-343-5-206-5-212 18-252 28-50 78-86 143-102 48-12 257-8 370 7l49 7-7-104c-4-57-11-189-16-294-9-177-9-192 8-214 35-47 100-46 136 2 22 29 27 86 42 452 7 191 0 235-44 283-45 48-92 56-241 38-146-18-229-20-265-6l-26 10v162c0 156 8 230 27 249 5 5 99 6 210 2l201-6 5-50c3-39 11-56 31-74 34-29 48-29 80 0 24 20 26 30 28 113 4 147-23 169-218 179-242 11-340 13-374 6z"/><path d="m1565 2945c-14-13-25-32-25-42s-1-297-3-638c-2-677-3-662 55-694 33-19 73-7 101 31 18 24 20 51 29 300 5 150 10 278 12 283 2 6 37 8 97 3 52-3 135-7 186-7 154-2 161-10 143-176-21-189-27-310-18-343 12-45 45-72 86-72 71 0 102 46 102 151 0 33 7 118 16 187 24 190 9 280-58 349-50 52-112 67-263 65-71-1-164-6-205-11-41-4-78-7-81-5-4 2-10 108-13 236-9 286-17 352-47 384-31 33-82 32-114-1z"/><path d="m2542 2944c-55-38-64-109-53-419 6-186 9-215 28-250 50-95 116-125 302-135 75-4 171-5 215-1l78 7-4-178c-2-97-7-181-11-184-4-4-42 1-85 11-104 26-285 27-363 3-106-33-149-107-99-170 26-34 68-41 132-21 74 23 202 20 308-7 182-47 274 5 301 168 12 77 27 831 19 994-7 152-20 181-86 186-88 7-103-51-104-401v-219l-201 4c-197 3-201 3-220 27-18 21-19 42-19 283v260l-29 29c-33 33-74 38-109 13z"/><path d="m2374 1391c-55-34-79-78-79-147 0-51 4-66 27-96 35-45 102-73 153-64 78 15 146 111 131 188-20 108-145 172-232 119z"/><path d="m1853 999c-39-11-66-56-61-101 6-59 69-64 76-6 4 30 34 38 145 38h67v-110c0-135-1-136-132-126-85 6-89 6-113-18-24-25-25-28-25-179 0-162 4-177 47-177 35 0 43 29 43 159v121h73c85 0 141 14 168 41 17 17 19 34 19 169 0 147-1 152-25 175-23 24-30 25-137 24-62 0-128-5-145-10z"/><path d="m2985 1000c-91-16-93-18-104-58-15-51-14-537 0-564 19-36 69-48 204-48 121 0 127 1 151 25l24 24-2 292-3 292-26 19c-31 23-161 33-244 18zm169-86c14-5 16-37 16-250v-245l-102 3-103 3v240 240l40 6c57 9 131 10 149 3z"/><path d="m2351 971c-24-24-29-73-37-372-6-232-6-237 15-258 23-23 29-25 51-11 12 7 16 40 20 150l5 141 35-23c19-13 59-55 88-93 30-39 78-96 108-128 47-51 56-57 74-47 29 16 25 42-15 92-19 24-62 78-95 121-61 77-61 77-33 77 15 0 46 9 69 19 56 26 67 57 62 179-6 156-27 172-220 172-93 0-111-3-127-19zm257-74c16-13 17-168 0-185-7-7-41-12-84-12-40 0-84-4-98-10l-26-10v120 119l98-6c53-3 103-10 110-16z"/></g></svg>