<?xml version="1.0" encoding="UTF-8" standalone="no"?>
<!-- Created with Inkscape (http://www.inkscape.org/) -->

<svg
   version="1.1"
   id="svg1"
   width="407.74692"
   height="348.40372"
   viewBox="0 0 407.74692 348.40372"
   xmlns="http://www.w3.org/2000/svg"
   xmlns:svg="http://www.w3.org/2000/svg">
  <defs
     id="defs1">
    <clipPath
       clipPathUnits="userSpaceOnUse"
       id="clipPath9">
      <path
         d="M 72,72 H 3643.2 V 2720.64 H 72 Z"
         transform="translate(0,2.5000001e-5)"
         id="path9" />
    </clipPath>
    <clipPath
       clipPathUnits="userSpaceOnUse"
       id="clipPath11">
      <path
         d="M 72,72 H 3643.2 V 2720.64 H 72 Z"
         transform="translate(0,2.5000001e-5)"
         id="path11" />
    </clipPath>
    <clipPath
       clipPathUnits="userSpaceOnUse"
       id="clipPath19">
      <path
         d="M 72,72 H 3643.2 V 2720.64 H 72 Z"
         transform="translate(0,2.5000001e-5)"
         id="path19" />
    </clipPath>
    <clipPath
       clipPathUnits="userSpaceOnUse"
       id="clipPath21">
      <path
         d="M 72,72 H 3643.2 V 2720.64 H 72 Z"
         transform="translate(0,2.5000001e-5)"
         id="path21" />
    </clipPath>
    <clipPath
       clipPathUnits="userSpaceOnUse"
       id="clipPath25">
      <path
         d="M 72,72 H 3643.2 V 2720.64 H 72 Z"
         transform="translate(0,2.5000001e-5)"
         id="path25" />
    </clipPath>
  </defs>
  <g
     id="g1"
     transform="translate(-47.503102,-6.4815775)">
    <path
       id="path8"
       d="m 2056,270.398 c 131.54,0 257.71,52.262 350.73,145.278 93.01,93.012 145.27,219.183 145.27,350.722 0,131.543 -52.26,257.712 -145.27,350.732 -93.02,93.01 -219.19,145.27 -350.73,145.27 -131.54,0 -257.71,-52.26 -350.73,-145.27 C 1612.26,1024.11 1560,897.941 1560,766.398 c 0,-131.539 52.26,-257.71 145.27,-350.722 93.02,-93.016 219.19,-145.278 350.73,-145.278"
       style="fill:#ffffff;fill-opacity:1;fill-rule:nonzero;stroke:none"
       transform="matrix(0.13333333,0,0,-0.13333333,0,372.34667)"
       clip-path="url(#clipPath9)" />
    <path
       id="path10"
       d="m 2056,270.398 c 131.54,0 257.71,52.262 350.73,145.278 93.01,93.012 145.27,219.183 145.27,350.722 0,131.543 -52.26,257.712 -145.27,350.732 -93.02,93.01 -219.19,145.27 -350.73,145.27 -131.54,0 -257.71,-52.26 -350.73,-145.27 C 1612.26,1024.11 1560,897.941 1560,766.398 c 0,-131.539 52.26,-257.71 145.27,-350.722 93.02,-93.016 219.19,-145.278 350.73,-145.278 z"
       style="fill:none;stroke:#000000;stroke-width:30;stroke-linecap:butt;stroke-linejoin:miter;stroke-miterlimit:10;stroke-dasharray:none;stroke-opacity:1"
       transform="matrix(0.13333333,0,0,-0.13333333,0,372.34667)"
       clip-path="url(#clipPath11)" />
    <path
       id="path18"
       d="m 3259.63,210.879 -59.52,-19.84 17.85,19.742 h -355.13 v 0.199 h 355.13 l -17.85,19.739 z"
       style="fill:none;stroke:#000000;stroke-width:30;stroke-linecap:butt;stroke-linejoin:miter;stroke-miterlimit:10;stroke-dasharray:none;stroke-opacity:1"
       transform="matrix(0.13333333,0,0,-0.13333333,5.7e-6,374.48942)"
       clip-path="url(#clipPath19)" />
    <path
       id="path20"
       d="m 468.801,1956.8 c 52.234,0 103.562,13.75 148.801,39.87 45.234,26.12 82.808,63.69 108.925,108.93"
       style="fill:none;stroke:#000000;stroke-width:20;stroke-linecap:butt;stroke-linejoin:miter;stroke-miterlimit:10;stroke-dasharray:none;stroke-opacity:1"
       transform="matrix(0.13333333,0,0,-0.13333333,0,372.34667)"
       clip-path="url(#clipPath21)" />
    <path
       id="path24"
       d="M 468.801,2254.4 2329.79,1187.01"
       style="fill:none;stroke:#000000;stroke-width:17.1;stroke-linecap:square;stroke-linejoin:round;stroke-miterlimit:10;stroke-dasharray:none;stroke-opacity:1"
       transform="matrix(0.13333333,0,0,-0.13333333,0,372.34667)"
       clip-path="url(#clipPath25)" />
    <path
       id="path26"
       d="m 432.22657,307.69141 c -0.64063,0.125 -0.70313,1.03125 -0.0781,1.25 0.29688,0.10937 0.625,0.0312 0.9375,0.0312 h 9.78125 c 0.29688,0 0.625,0.0469 0.89063,-0.15625 0.35937,-0.29688 0.26562,-0.89063 -0.17188,-1.09375 -0.23437,-0.0937 -0.46875,-0.0625 -0.6875,-0.0625 h -9.625 c -0.32812,0 -0.71875,-0.0625 -1.04687,0.0312 z m 16.57031,-0.0312 h -10.53125 c -0.26563,0 -0.53125,-0.0312 -0.79688,0.0312 -0.29687,0.0312 -0.53125,0.32812 -0.53125,0.625 0,0.29687 0.23438,0.59375 0.53125,0.625 0.26563,0.0781 0.53125,0.0312 0.79688,0.0312 h 10.53125 c -0.39063,0.60937 -0.75,1.23437 -1.15625,1.82812 -0.32813,0.53125 -0.65625,1.09375 -1.01563,1.60938 -0.10937,0.20312 -0.32812,0.46875 -0.14062,0.67187 0.14062,0.15625 0.32812,0.0937 0.5,0.0312 0.39062,-0.20313 0.79687,-0.4375 1.1875,-0.65625 1.65625,-0.9375 3.34375,-1.85938 4.98437,-2.78125 l 1.625,-0.89063 c 0.17188,-0.10937 0.46875,-0.23437 0.46875,-0.46875 0,-0.23437 -0.29687,-0.35937 -0.46875,-0.45312 l -1.625,-0.90625 c -1.64062,-0.92188 -3.32812,-1.84375 -4.98437,-2.76563 -0.39063,-0.23437 -0.79688,-0.46875 -1.1875,-0.67187 -0.17188,-0.0625 -0.35938,-0.125 -0.5,0.0469 -0.1875,0.1875 0.0312,0.45313 0.14062,0.65625 0.35938,0.53125 0.6875,1.09375 1.01563,1.625 0.40625,0.59375 0.76562,1.21875 1.15625,1.8125 z m 0,0"
       style="fill:#000000;fill-opacity:1;fill-rule:nonzero;stroke:none;stroke-width:1.33333" />
    <path
       id="path27"
       d="m 449.00545,318.56429 c 0,-2.42187 -1.23437,-2.57812 -1.54687,-2.57812 -0.92188,0 -1.76563,0.92187 -1.76563,1.6875 0,0.46875 0.26563,0.73437 0.42188,0.89062 0.375,0.34375 1.375,1.39063 1.375,3.39063 0,1.625 -2.3125,10.625 -6.92188,10.625 -2.35937,0 -2.8125,-1.95313 -2.8125,-3.39063 0,-1.92187 0.875,-4.60937 1.92188,-7.39062 0.60937,-1.57813 0.76562,-1.96875 0.76562,-2.73438 0,-1.60937 -1.15625,-3.07812 -3.03125,-3.07812 -3.54687,0 -4.96875,5.57812 -4.96875,5.89062 0,0.15625 0.14063,0.34375 0.42188,0.34375 0.34375,0 0.375,-0.15625 0.53125,-0.6875 0.92187,-3.3125 2.42187,-4.78125 3.89062,-4.78125 0.34375,0 1,0 1,1.28125 0,1 -0.42187,2.10938 -1,3.57813 -1.84375,4.92187 -1.84375,6.125 -1.84375,7.04687 0,0.84375 0.10938,2.42188 1.3125,3.5 1.375,1.20313 3.3125,1.20313 3.65625,1.20313 6.39063,0 8.59375,-12.59375 8.59375,-14.79688 z M 102.30625,119.08774 c 0,-3.73437 -2.10938,-7.23437 -6.20313,-7.23437 -5.03125,0 -10.07813,5.49999 -10.07813,10.96874 0,3.35937 2.07812,6.40625 6,6.40625 2.39063,0 5.23438,-0.9375 7.96875,-3.23438 0.54688,2.15625 1.73437,3.23438 3.39063,3.23438 2.07812,0 3.125,-2.15625 3.125,-2.65625 0,-0.35937 -0.26563,-0.35937 -0.39063,-0.35937 -0.29687,0 -0.34375,0.12493 -0.45312,0.42186 -0.34375,0.96876 -1.23437,1.81251 -2.15625,1.81251 -1.20312,0 -1.20312,-2.45313 -1.20312,-4.81251 3.93749,-4.70312 4.85937,-9.54686 4.85937,-9.59374 0,-0.34375 -0.31251,-0.34375 -0.42188,-0.34375 -0.34375,0 -0.39063,0.12494 -0.54687,0.8125 -0.5,1.6875 -1.5,4.70313 -3.89062,7.85937 z m -2.42188,5.96874 c -3.39063,3.04688 -6.4375,3.39063 -7.78126,3.39063 -2.73437,0 -3.5,-2.42188 -3.5,-4.23437 0,-1.65626 0.84376,-5.57814 2.03125,-7.70313 1.57812,-2.6875 3.75,-3.89063 5.46876,-3.89063 3.74999,0 3.74999,4.89062 3.74999,8.125 0,0.96876 -0.0468,1.96876 -0.0468,2.9375 0,0.76563 0.0468,0.95312 0.0781,1.375 z m 0,0"
       style="fill:#000000;fill-opacity:1;fill-rule:nonzero;stroke:none;stroke-width:1.33333" />
    <g
       id="g29">
      <rect
         style="fill:none;fill-opacity:1;fill-rule:evenodd;stroke:#000000;stroke-width:3;stroke-linecap:round;stroke-linejoin:round;stroke-dasharray:none;paint-order:fill markers stroke"
         id="rect27"
         width="211.39067"
         height="14"
         x="168.31999"
         y="339.38528"
         rx="0.072986163"
         ry="0.072986163" />
      <path
         style="fill:none;stroke:#000000;stroke-width:3"
         d="m 183.26344,339.38528 -14.94345,13.45514 m 14.33964,0.54486 15.54857,-14 m 14.94477,0 -15.54858,14 m 14.94477,0 15.54857,-14 m 14.94477,0 -15.54858,14 m 14.94477,0 15.54857,-14 m 14.94477,0 -15.54857,14 m 14.94476,0 15.54858,-14 m 14.94476,0 -15.54857,14 m 14.94476,0 15.54858,-14 m 14.94476,0 -15.54857,14 m 14.94476,0 15.54858,-14 m 14.94476,0 -15.54857,14 m 14.94476,0 15.54858,-14 m 2.16527,11.50671 -2.76908,2.49329"
         id="path29" />
    </g>
    <g
       id="g30">
      <path
         style="fill:none;stroke:#000000;stroke-width:3"
         d="M 60.411996,8.169053 48.506798,18.888541 m 0,13.456328 14,-12.605657 m 0,13.456327 -14,12.605657 m 0,13.456327 14,-12.605657 m 0,13.456328 -14,12.605657 m 0,13.456327 14,-12.605657 m 0,13.456328 -14,12.605657 m 0,13.456324 14,-12.60565 m 0,13.45632 -14,12.60566 m 5.158255,8.81181 8.841745,-7.96114"
         id="path30" />
    </g>
    <path
       style="fill:none;fill-opacity:1;fill-rule:evenodd;stroke:#000000;stroke-width:3;stroke-linecap:butt;stroke-linejoin:round;stroke-dasharray:none;paint-order:fill markers stroke"
       d="M 62.506798,6.4815775 V 136.64746"
       id="path31" />
  </g>
</svg>
