<svg xmlns="http://www.w3.org/2000/svg" version="1.0" width="901.074117pt" height="613.777642pt" viewBox="0 0 901.074117 613.777642" preserveAspectRatio="xMidYMid meet">
<metadata>
Created by potrace 1.16, written by Peter Selinger 2001-2019
</metadata>
<g transform="translate(-57.925883,644.890945) scale(0.100000,-0.100000)" fill="#000000" stroke="none">
<path d="M6427 6443 c-11 -17 -37 -179 -40 -239 -2 -70 11 -94 54 -94 39 0 94 56 142 145 34 64 37 67 30 30 -5 -22 -8 -67 -8 -100 0 -53 3 -61 26 -74 16 -9 36 -12 52 -7 36 9 34 26 -2 26 -58 0 -61 27 -19 198 21 85 17 111 -15 99 -9 -3 -41 -54 -72 -112 -53 -99 -112 -175 -135 -175 -21 0 -21 58 -1 163 12 62 23 119 24 127 2 16 -28 26 -36 13z"/>
<path d="M6003 6282 c-6 -4 -17 -35 -23 -70 -17 -86 -4 -100 48 -50 36 35 91 68 112 68 8 0 9 -19 4 -59 -6 -58 -6 -60 18 -66 31 -8 106 21 92 35 -6 6 -22 6 -41 1 l-32 -9 6 63 c5 58 4 63 -15 69 -13 5 -45 -2 -82 -18 l-61 -24 6 28 c6 28 -11 45 -32 32z"/>
<path d="M970 6246 c-4 -13 -14 -42 -20 -65 -8 -30 -16 -41 -30 -41 -10 0 -26 -3 -35 -6 -14 -6 -15 -2 -9 31 6 33 4 37 -12 33 -13 -2 -22 -16 -28 -44 -7 -37 -13 -43 -46 -53 -20 -6 -45 -11 -54 -11 -9 0 -16 -8 -16 -20 0 -24 18 -25 66 -5 32 13 35 13 32 -2 -2 -12 -20 -20 -58 -27 -66 -13 -65 -32 1 -28 l47 2 -2 -52 c-1 -43 2 -53 17 -56 20 -4 40 37 26 53 -5 5 -9 21 -9 36 0 27 15 39 52 39 19 0 20 -5 17 -92 -3 -78 -2 -93 11 -93 10 0 16 12 17 35 11 156 12 160 44 160 19 0 29 5 29 15 0 9 -10 15 -26 15 -20 0 -25 4 -20 16 3 9 6 20 6 25 0 5 18 9 41 9 49 0 50 23 1 28 -18 2 -32 5 -32 6 0 2 7 23 15 47 16 44 14 69 -5 69 -6 0 -15 -11 -20 -24z m-40 -148 c0 -23 -15 -35 -47 -40 -36 -5 -40 0 -20 24 20 26 67 37 67 16z"/>
<path d="M6767 6220 c-45 -39 -51 -71 -20 -104 41 -45 117 -24 148 40 39 83 -54 129 -128 64z m87 -6 c24 -9 19 -38 -10 -68 -41 -40 -72 -34 -51 11 8 19 8 26 -2 33 -26 15 30 37 63 24z"/>
<path d="M1373 6180 c-20 -12 -33 -28 -33 -40 0 -27 20 -25 49 5 24 26 71 34 71 13 0 -7 -16 -29 -36 -49 -44 -45 -40 -64 14 -73 50 -7 87 -48 72 -77 -11 -19 -70 -40 -105 -36 -12 1 -20 -4 -20 -13 0 -22 86 -17 128 7 64 37 41 117 -40 144 l-35 11 32 33 c23 24 31 40 28 61 -3 27 -7 29 -48 32 -31 2 -55 -4 -77 -18z"/>
<path d="M1684 6166 c-59 -59 -43 -118 39 -139 l47 -12 -35 -52 c-41 -61 -69 -83 -107 -83 -23 0 -28 4 -28 25 0 28 -25 44 -42 27 -16 -16 -1 -60 27 -78 56 -37 153 24 203 128 13 25 32 48 42 51 23 6 27 27 5 27 -11 0 -15 12 -15 48 0 64 -21 92 -67 92 -27 0 -43 -8 -69 -34z m96 -20 c5 -14 6 -41 3 -61 -5 -34 -7 -36 -37 -29 -60 13 -74 49 -34 91 28 30 56 29 68 -1z"/>
<path d="M1240 6148 c-30 -49 -50 -124 -50 -190 0 -42 4 -58 14 -58 9 0 15 20 20 63 9 87 23 132 52 166 14 17 23 35 19 41 -12 19 -35 10 -55 -22z"/>
<path d="M4890 6061 c-100 -52 -116 -98 -39 -112 19 -4 49 -14 67 -24 20 -10 43 -15 58 -11 27 7 24 26 -5 26 -9 0 -26 6 -36 14 -15 11 35 14 336 20 195 4 532 13 749 21 743 27 1279 36 1570 25 151 -5 363 -10 470 -11 118 0 187 -4 174 -9 -26 -10 -39 -39 -21 -46 8 -3 38 8 68 23 77 40 74 61 -11 90 -36 13 -76 22 -90 20 -29 -2 -39 -33 -13 -41 10 -2 -243 -2 -562 1 -548 5 -1027 -3 -1595 -28 -124 -5 -432 -12 -685 -14 l-460 -6 58 31 c54 29 69 52 36 57 -8 1 -39 -11 -69 -26z"/>
<path d="M587 5784 c-25 -25 1 -31 181 -42 294 -19 692 -33 994 -35 l277 -2 21 -65 c52 -166 79 -375 87 -667 5 -196 4 -233 -8 -234 -8 0 -142 -2 -299 -4 -460 -5 -1074 -22 -1092 -30 -10 -4 -18 -14 -18 -22 0 -12 7 -14 28 -9 33 9 507 24 1013 34 l376 7 7 -89 c21 -301 -8 -466 -94 -524 -94 -63 -319 -107 -667 -128 -322 -19 -470 -15 -608 20 -59 14 -104 21 -109 16 -13 -13 26 -26 147 -51 118 -24 277 -27 591 -9 232 13 321 24 451 55 198 47 266 88 301 184 23 64 29 322 15 721 -13 387 -45 633 -98 773 l-18 48 -375 4 c-457 4 -922 26 -1065 51 -17 3 -34 2 -38 -2z"/>
<path d="M6228 5643 l-348 -3 4 -79 3 -78 -261 -7 c-336 -8 -756 -7 -756 2 0 10 -50 32 -71 32 -10 0 -24 -9 -32 -20 -13 -18 -30 -19 -458 -24 -244 -2 -446 -4 -448 -5 -2 -1 1 -7 7 -13 12 -15 167 -16 603 -3 267 7 277 7 296 -12 19 -19 20 -32 17 -259 -8 -614 -9 -620 -23 -638 -23 -27 1 -40 87 -47 69 -7 416 0 800 16 138 6 142 5 142 -15 0 -41 43 -113 87 -144 61 -43 97 -54 173 -55 103 -1 178 43 249 147 l22 32 352 0 352 0 1 -37 c1 -21 6 -50 12 -65 l11 -27 323 4 c178 3 343 8 368 12 l45 8 -3 48 -4 47 224 0 c331 0 379 15 363 112 -3 24 -10 158 -15 298 -5 140 -12 314 -16 386 l-7 131 28 21 c27 21 36 22 264 22 130 0 379 5 554 12 245 9 323 9 337 0 23 -14 80 -5 80 14 0 21 -62 27 -204 21 -72 -4 -315 -9 -541 -12 -225 -3 -425 -8 -442 -10 -23 -3 -33 0 -33 10 0 28 -63 27 -86 -1 -12 -15 -99 -19 -614 -28 -322 -6 -844 23 -887 50 -21 13 -23 23 -23 89 l0 75 -92 -2 c-51 -2 -249 -4 -440 -5z m492 -148 c3 -66 8 -125 13 -132 12 -18 -43 -22 -437 -27 l-358 -5 6 33 c6 30 0 89 -20 213 l-5 33 313 3 c172 1 351 3 398 2 l85 0 5 -120z m-858 -51 c24 -5 27 -10 33 -74 4 -45 12 -70 21 -74 8 -3 76 -1 151 4 76 6 271 11 433 12 277 3 295 4 298 21 2 11 -6 28 -17 38 -12 11 -21 32 -21 46 l0 26 108 -7 c477 -29 633 -34 1002 -26 451 8 419 16 420 -105 0 -38 5 -110 11 -160 6 -49 11 -184 10 -300 0 -115 4 -226 9 -246 16 -59 1 -83 -60 -97 -54 -13 -435 -17 -465 -6 -13 6 -15 17 -9 73 8 88 -3 100 -81 81 -53 -13 -375 -9 -561 7 -64 5 -74 3 -93 -16 -17 -17 -21 -33 -21 -81 l0 -60 -343 0 -344 0 5 53 c8 95 -51 172 -154 203 -61 18 -230 18 -263 0 -40 -22 -121 -128 -133 -173 -12 -41 -13 -42 -62 -48 -96 -10 -791 -26 -857 -20 l-67 7 6 316 c3 175 4 374 3 443 -3 116 -1 128 17 145 20 19 44 20 509 21 268 1 500 0 515 -3z m267 -714 c76 -11 134 -47 162 -101 33 -65 20 -129 -26 -129 -26 0 -33 -18 -14 -37 18 -18 -42 -87 -99 -115 -113 -56 -263 -7 -308 101 -27 65 -11 174 25 164 11 -3 23 11 41 49 35 75 79 89 219 68z m1518 -120 l93 0 0 -109 0 -108 -52 -8 c-29 -4 -178 -9 -331 -10 l-279 -3 7 86 c3 48 9 105 12 126 l5 39 226 -6 c124 -4 267 -7 319 -7z"/>
<path d="M5960 4638 c1 -32 50 -181 65 -199 40 -43 80 -10 115 96 12 36 29 69 37 74 18 9 9 31 -12 31 -24 0 -43 -28 -65 -94 -37 -112 -55 -105 -83 34 -11 55 -16 66 -35 68 -13 2 -22 -2 -22 -10z"/>
<path d="M7251 4582 c-25 -37 -40 -182 -18 -182 9 0 18 13 22 30 5 22 10 28 18 22 28 -22 130 -53 141 -42 7 7 -9 18 -52 37 -34 15 -62 30 -62 33 0 3 18 12 40 22 28 11 41 24 46 44 11 43 -6 59 -64 61 -46 1 -54 -2 -71 -25z m99 -15 c0 -17 -28 -43 -57 -51 -18 -6 -20 -4 -16 14 10 36 73 68 73 37z"/>
<path d="M1025 5495 c-5 -2 -22 -6 -37 -9 -37 -8 -45 -46 -44 -206 1 -116 3 -135 17 -138 11 -2 19 6 23 23 6 23 9 25 22 14 19 -16 202 -19 206 -4 2 6 -33 12 -83 16 -85 6 -109 12 -109 29 0 5 27 38 61 74 64 69 81 114 59 155 -17 32 -81 58 -115 46z m63 -42 c21 -18 26 -32 23 -65 0 -9 -27 -44 -58 -78 -67 -73 -82 -66 -63 27 9 42 9 58 1 61 -6 2 -11 15 -11 28 0 41 71 58 108 27z"/>
<path d="M1649 5375 c-8 -8 11 -186 22 -206 19 -37 33 -22 80 86 l22 50 9 -54 c11 -72 31 -95 80 -88 39 5 98 41 98 59 0 11 -18 8 -71 -15 -50 -22 -63 -10 -69 64 -8 103 -51 103 -106 -1 l-23 -45 -1 78 c0 68 -2 77 -18 77 -10 0 -21 -2 -23 -5z"/>
<path d="M1406 5202 c-2 -4 -14 -49 -26 -100 -12 -52 -24 -92 -26 -90 -2 3 -12 40 -22 84 -15 67 -21 79 -40 82 -27 4 -27 9 -1 -85 32 -121 61 -150 94 -100 12 19 54 178 55 210 0 9 -27 9 -34 -1z"/>
<path d="M1465 4945 c0 -76 3 -105 12 -105 22 0 33 37 33 109 0 80 -6 101 -29 101 -14 0 -16 -14 -16 -105z"/>
<path d="M962 4630 c-13 -6 -32 -29 -43 -56 -19 -43 -20 -58 -14 -200 6 -121 10 -154 21 -154 10 0 14 15 14 55 l0 54 33 -18 c35 -21 173 -48 184 -37 11 11 -17 24 -76 37 -67 14 -101 29 -101 43 1 6 18 23 40 38 54 37 73 79 67 142 -3 40 -11 55 -36 78 -33 29 -51 33 -89 18z m65 -42 c46 -51 34 -124 -29 -172 -19 -14 -38 -26 -42 -26 -4 0 -6 27 -4 59 1 33 0 63 -5 67 -13 13 -7 41 14 68 25 32 39 33 66 4z"/>
<path d="M1597 4629 c-28 -11 -44 -46 -33 -75 8 -20 31 -13 31 10 0 23 32 46 66 46 33 0 79 -35 79 -60 0 -10 -23 -47 -51 -82 -57 -70 -88 -130 -89 -169 0 -29 27 -59 54 -59 15 0 15 2 0 25 -25 38 -11 85 48 157 83 103 92 145 39 192 -25 22 -103 30 -144 15z"/>
<path d="M1284 4391 c-2 -2 -4 -10 -4 -18 0 -9 17 -13 63 -13 71 0 109 8 105 22 -3 9 -155 17 -164 9z"/>
<path d="M6707 4259 c-51 -34 -97 -83 -97 -104 0 -18 13 -26 85 -51 87 -30 90 -30 90 -14 0 8 -21 23 -50 33 -92 36 -93 37 -20 33 39 -2 286 -9 550 -16 555 -14 928 -10 963 9 33 18 38 7 13 -32 -26 -42 -26 -47 -2 -47 22 0 56 43 72 90 14 39 -6 72 -59 98 -63 32 -88 2 -31 -39 l31 -22 -43 -16 c-39 -14 -118 -16 -649 -15 -546 0 -829 10 -849 29 -2 3 13 20 34 38 23 20 36 38 31 45 -10 17 -17 15 -69 -19z"/>
<path d="M4817 4208 c-44 -28 -48 -34 -45 -66 3 -40 15 -46 121 -55 44 -4 57 -2 57 8 0 9 -17 16 -47 20 -27 4 -52 8 -58 9 -5 2 51 6 125 9 74 4 198 12 275 17 280 20 961 10 1127 -16 38 -7 38 -7 23 -30 -19 -30 -19 -34 3 -34 10 0 35 19 55 42 43 49 39 65 -22 92 -56 26 -102 5 -48 -22 18 -10 12 -11 -38 -7 -165 12 -865 16 -1045 6 -107 -7 -258 -15 -335 -18 l-140 -6 19 22 c11 11 25 21 31 21 14 0 27 25 18 34 -12 11 -28 6 -76 -26z"/>
<path d="M1660 4155 c-10 -12 -9 -16 4 -21 16 -6 46 11 46 27 0 15 -37 10 -50 -6z"/>
<path d="M6854 3993 c-50 -116 -89 -441 -65 -540 14 -57 59 -133 78 -133 18 0 17 5 -12 48 -50 76 -56 195 -20 404 18 100 51 214 65 223 18 11 11 35 -10 35 -13 0 -25 -12 -36 -37z"/>
<path d="M5341 3963 c-16 -31 -61 -291 -61 -354 0 -27 36 -60 57 -52 32 11 83 66 130 140 26 40 48 72 49 70 2 -1 -2 -35 -8 -75 -9 -65 -9 -75 7 -92 23 -26 47 -25 76 1 l24 20 -39 -6 -39 -6 6 63 c3 35 15 97 26 138 20 75 16 105 -12 82 -7 -6 -40 -55 -72 -108 -59 -95 -138 -194 -156 -194 -12 0 -11 83 2 156 24 136 41 194 55 194 17 0 18 12 2 28 -17 17 -36 15 -47 -5z"/>
<path d="M7595 3970 c-4 -6 11 -30 33 -55 42 -48 59 -92 68 -182 9 -79 -24 -211 -67 -271 -39 -54 -28 -69 15 -21 58 63 80 137 80 269 1 101 -2 121 -23 163 -25 50 -72 107 -89 107 -6 0 -14 -5 -17 -10z"/>
<path d="M7876 3843 c-4 -27 -9 -102 -13 -169 -6 -116 -5 -122 16 -143 29 -29 55 -21 102 29 37 40 49 42 49 8 0 -19 52 -48 85 -48 28 0 15 27 -17 37 l-33 9 2 70 c2 38 11 102 22 141 11 44 15 76 9 85 -13 21 -35 -15 -49 -81 -14 -70 -52 -153 -91 -197 -63 -72 -77 -34 -54 149 20 162 20 157 -3 157 -14 0 -20 -10 -25 -47z"/>
<path d="M6938 3726 c-1 -64 -2 -126 -2 -138 -1 -35 32 -36 40 -1 23 105 47 153 83 173 20 10 21 8 20 -37 0 -26 -4 -73 -8 -103 -5 -34 -5 -60 1 -67 19 -24 118 -9 118 17 0 8 -15 9 -47 4 l-46 -7 6 29 c36 184 -1 255 -89 168 l-36 -37 3 54 c4 50 2 54 -18 57 -23 3 -23 2 -25 -112z"/>
<path d="M7478 3754 c-27 -31 -48 -62 -48 -70 0 -17 22 -18 38 -2 8 8 11 -7 9 -63 -2 -70 -1 -74 21 -77 22 -3 30 12 12 23 -12 8 16 152 45 228 15 38 -31 15 -77 -39z"/>
<path d="M7214 3679 c-11 -19 10 -28 76 -31 66 -3 96 10 50 22 -56 15 -119 19 -126 9z"/>
<path d="M5788 3668 c-59 -20 -121 -163 -88 -203 24 -28 60 -18 110 33 56 56 78 113 55 148 -17 27 -42 33 -77 22z m52 -50 c0 -28 -17 -58 -58 -100 -41 -43 -52 -47 -52 -18 0 11 4 20 9 20 5 0 11 18 15 41 11 68 86 118 86 57z"/>
<path d="M8260 3663 c-47 -17 -74 -69 -72 -138 2 -57 60 -72 112 -29 96 82 67 206 -40 167z m57 -35 c16 -21 -4 -74 -38 -102 -17 -14 -35 -24 -40 -20 -13 8 -11 38 3 52 10 10 10 15 -2 23 -13 8 -10 13 13 34 31 28 50 31 64 13z"/>
<path d="M3222 3038 c-10 -14 -45 -182 -62 -297 -11 -79 -3 -111 29 -111 26 0 110 78 156 145 21 30 40 53 42 52 2 -2 -1 -28 -7 -57 -19 -102 -6 -152 36 -136 13 5 14 9 4 21 -18 21 -7 109 26 220 51 169 31 189 -47 49 -55 -99 -145 -215 -188 -243 l-24 -15 7 49 c14 107 49 250 62 258 17 10 18 49 2 65 -15 15 -23 15 -36 0z"/>
<path d="M6095 3029 c-4 -6 2 -20 13 -32 32 -34 42 -72 42 -157 0 -56 -7 -102 -25 -158 -25 -80 -93 -198 -120 -208 -20 -8 -19 -24 1 -24 45 0 132 141 164 266 33 127 21 245 -31 300 -25 26 -35 29 -44 13z"/>
<path d="M5153 2919 c-67 -25 -159 -287 -133 -379 12 -42 27 -63 58 -79 36 -19 39 -4 7 29 -54 57 -41 186 33 325 31 56 43 70 62 70 13 0 25 5 27 12 6 17 -29 32 -54 22z"/>
<path d="M6359 2863 c-11 -31 -54 -206 -64 -265 -4 -29 -2 -41 14 -57 27 -27 56 -17 112 39 l46 46 9 -30 c7 -24 16 -32 37 -34 29 -4 37 12 12 22 -22 8 -19 65 10 144 29 80 30 92 12 92 -8 0 -31 -34 -52 -77 -37 -75 -128 -183 -154 -183 -19 0 -8 74 29 199 17 55 30 107 30 116 0 26 -30 17 -41 -12z"/>
<path d="M5963 2735 c-28 -29 -66 -59 -82 -66 -17 -8 -31 -20 -31 -27 0 -25 31 -24 67 4 24 18 34 22 30 11 -15 -41 -27 -98 -22 -107 15 -24 33 -8 39 33 4 24 24 78 45 120 21 42 36 79 33 82 -12 11 -29 0 -79 -50z"/>
<path d="M5256 2691 c-32 -175 -14 -195 72 -81 29 39 57 70 62 70 6 0 10 -29 10 -65 0 -59 2 -65 20 -65 20 0 21 5 18 83 -3 82 -3 82 -31 85 -24 3 -38 -6 -75 -44 l-45 -48 6 40 c4 21 10 56 13 77 6 32 4 37 -13 37 -18 0 -23 -12 -37 -89z"/>
<path d="M3609 2733 c-53 -33 -78 -133 -41 -166 45 -41 118 -23 158 38 25 38 24 113 0 131 -26 19 -85 17 -117 -3z m97 -37 c7 -30 -19 -91 -46 -106 -11 -6 -31 -10 -43 -8 -18 2 -22 9 -21 39 2 52 37 99 74 99 23 0 31 -6 36 -24z"/>
<path d="M5570 2665 c0 -12 15 -15 78 -15 83 0 122 7 122 21 0 5 -45 9 -100 9 -82 0 -100 -3 -100 -15z"/>
<path d="M6730 2630 c-8 -5 -27 -10 -42 -10 -17 0 -35 -11 -52 -31 -63 -74 -7 -130 93 -94 101 35 146 106 86 133 -31 14 -65 15 -85 2z m70 -30 c12 -7 11 -13 -9 -34 -30 -32 -118 -63 -134 -47 -20 20 8 58 55 74 51 18 68 20 88 7z"/>
<path d="M4215 2460 c-4 -7 0 -19 8 -28 13 -12 46 -17 157 -20 124 -4 140 -3 140 12 0 13 -14 16 -87 16 -81 1 -133 8 -189 25 -13 4 -25 2 -29 -5z"/>
<path d="M6575 2423 c-612 -25 -1014 -35 -1195 -30 -224 6 -300 2 -300 -17 0 -18 377 -17 975 5 303 11 632 20 733 22 113 1 182 6 182 12 0 10 -239 15 -395 8z"/>
<path d="M3292 2388 c-151 -9 -173 -12 -170 -27 2 -9 8 -16 13 -16 6 0 96 6 202 14 127 9 251 12 367 8 107 -4 176 -3 176 2 0 5 -8 12 -17 15 -39 11 -408 13 -571 4z"/>
<path d="M4255 2310 c-3 -6 -3 -14 0 -20 11 -19 225 -5 232 15 4 13 -224 18 -232 5z"/>
<path d="M5966 2199 c-76 -18 -88 -43 -111 -234 -9 -77 -18 -144 -18 -149 -1 -6 6 -11 15 -14 13 -2 18 6 24 35 3 21 17 85 31 143 13 58 22 117 19 131 -13 67 115 89 169 29 17 -19 17 -21 -1 -41 -10 -12 -44 -37 -74 -56 -113 -72 -138 -120 -85 -162 27 -21 142 -51 194 -51 56 0 32 18 -46 35 -170 38 -174 69 -21 168 32 20 65 48 74 62 15 23 15 27 -1 51 -28 43 -106 67 -169 53z"/>
<path d="M3337 2185 c-78 -20 -116 -41 -123 -69 -9 -37 -1 -70 19 -74 14 -3 17 4 17 36 0 26 5 42 15 46 19 7 20 12 -15 -134 -40 -169 -48 -230 -27 -230 10 0 17 14 22 43 4 23 11 58 16 78 l9 37 65 -42 c103 -68 153 -92 165 -80 8 8 -17 28 -87 71 -54 33 -98 66 -98 74 0 7 32 31 70 52 94 51 145 101 145 143 0 17 -7 37 -16 45 -22 18 -110 21 -177 4z m152 -29 c25 -30 -39 -95 -141 -147 l-61 -31 8 38 c14 76 45 143 68 147 52 10 115 6 126 -7z"/>
<path d="M3791 1907 c-5 -12 -18 -55 -30 -94 -12 -40 -28 -86 -35 -104 l-13 -32 -28 84 c-35 105 -52 139 -70 139 -25 0 -25 -17 -1 -71 12 -30 35 -84 51 -121 23 -57 31 -68 51 -68 16 0 28 9 38 28 14 28 76 231 76 251 0 20 -30 11 -39 -12z"/>
<path d="M6340 1125 c0 -3 15 -21 34 -39 45 -45 67 -112 73 -223 9 -144 -26 -280 -92 -368 -37 -48 -30 -73 9 -36 67 63 117 221 117 371 0 138 -22 221 -74 278 -18 19 -67 32 -67 17z"/>
<path d="M5326 1048 c-31 -56 -72 -187 -91 -295 -18 -102 -20 -267 -3 -314 22 -66 87 -143 105 -125 2 2 -11 26 -30 53 -44 60 -57 108 -57 204 0 149 64 406 116 468 14 17 23 35 19 41 -13 21 -35 9 -59 -32z"/>
<path d="M6792 924 c-45 -31 -64 -98 -117 -407 -3 -19 0 -30 10 -33 21 -9 45 14 45 42 0 12 4 25 9 28 8 6 71 -2 169 -20 18 -4 32 -2 32 3 0 14 -68 41 -122 49 -27 3 -48 11 -48 17 0 6 32 41 71 79 l71 68 -4 74 c-2 55 -8 80 -22 95 -23 25 -63 27 -94 5z m68 -34 c6 -11 14 -43 17 -71 l6 -50 -69 -64 c-40 -37 -70 -59 -72 -51 -2 7 4 44 13 82 9 38 19 83 22 101 6 35 36 73 58 73 8 0 19 -9 25 -20z"/>
<path d="M4300 900 c-8 -5 -25 -10 -36 -10 -28 0 -31 -12 -44 -205 -6 -88 -13 -166 -15 -173 -5 -13 21 -29 31 -19 3 3 10 52 14 109 19 216 21 230 46 255 30 30 59 29 89 -3 18 -19 25 -38 25 -65 0 -35 -4 -41 -59 -78 -43 -30 -62 -50 -71 -76 -17 -51 -6 -73 43 -85 23 -5 65 -17 92 -26 58 -18 68 -19 73 -6 3 11 -79 48 -131 57 -20 4 -40 12 -43 17 -13 20 20 69 67 99 55 35 69 54 69 94 0 83 -91 153 -150 115z"/>
<path d="M6218 823 c-9 -16 -39 -54 -67 -86 -28 -32 -49 -63 -46 -68 11 -16 33 -10 52 15 19 23 19 23 18 -53 0 -69 2 -76 21 -79 19 -3 20 1 16 60 -3 53 1 76 27 141 17 43 29 83 26 88 -11 17 -31 9 -47 -18z"/>
<path d="M5477 814 c-4 -4 -7 -63 -7 -131 l0 -123 24 0 c20 0 32 15 72 93 l49 92 6 -65 c7 -80 15 -99 46 -106 32 -9 43 4 18 22 -16 12 -21 30 -25 96 -8 130 -45 131 -112 2 l-33 -64 -5 92 c-5 84 -14 110 -33 92z"/>
<path d="M4640 720 c0 -17 7 -20 48 -20 26 0 73 -6 105 -14 35 -8 60 -10 63 -4 9 15 0 19 -83 39 -104 25 -133 25 -133 -1z"/>
<path d="M7191 699 c-11 -12 -32 -62 -48 -111 l-28 -89 -12 48 c-7 26 -13 62 -13 80 0 37 -16 51 -35 32 -12 -12 -11 -25 1 -84 17 -79 36 -115 63 -115 27 0 36 16 60 105 12 44 31 95 42 113 10 18 19 35 19 38 0 12 -32 1 -49 -17z"/>
<path d="M5822 694 c3 -17 13 -19 85 -19 73 1 105 7 92 19 -2 2 -44 7 -92 11 -84 7 -89 6 -85 -11z"/>
<path d="M4674 611 c-2 -2 -4 -10 -4 -18 0 -10 19 -13 78 -12 83 1 124 9 129 24 3 10 -194 15 -203 6z"/>
</g><g transform="translate(751.074117, 505.4151765993842) scale(0.40808740102544044)"><g transform="translate(-57.706759,297.537395) scale(0.100000,-0.100000)" fill="#000000" stroke="none">
<path d="M750 2973 c-57 -10 -88 -25 -119 -57 -40 -41 -55 -100 -46 -179 6 -45 12 -61 32 -77 32 -25 35 -25 64 -1 22 17 24 26 21 89 -4 105 24 120 164 87 33 -7 119 -19 190 -25 88 -8 134 -16 144 -26 32 -32 8 -420 -28 -456 -18 -18 -126 -28 -289 -28 -185 0 -206 -4 -250 -52 -55 -58 -58 -82 -55 -363 1 -145 7 -274 13 -293 11 -34 51 -62 89 -62 12 0 35 14 52 31 l31 30 -6 238 c-3 130 -3 249 0 264 l5 27 112 0 c234 1 363 26 423 82 58 54 98 260 91 463 -4 122 -7 138 -34 191 -40 81 -79 100 -217 108 -174 10 -361 14 -387 9z" fill="#4444bb"/>
<path d="M3660 2971 c-42 -9 -83 -34 -103 -65 -39 -59 -50 -127 -54 -343 -5 -206 -5 -212 18 -252 28 -50 78 -86 143 -102 48 -12 257 -8 370 7 l49 7 -7 -104 c-4 -57 -11 -189 -16 -294 -9 -177 -9 -192 8 -214 35 -47 100 -46 136 2 22 29 27 86 42 452 7 191 0 235 -44 283 -45 48 -92 56 -241 38 -146 -18 -229 -20 -265 -6 l-26 10 0 162 c0 156 8 230 27 249 5 5 99 6 210 2 l201 -6 5 -50 c3 -39 11 -56 31 -74 34 -29 48 -29 80 0 24 20 26 30 28 113 4 147 -23 169 -218 179 -242 11 -340 13 -374 6z" fill="#4444bb"/>
<path d="M1565 2945 c-14 -13 -25 -32 -25 -42 0 -10 -1 -297 -3 -638 -2 -677 -3 -662 55 -694 33 -19 73 -7 101 31 18 24 20 51 29 300 5 150 10 278 12 283 2 6 37 8 97 3 52 -3 135 -7 186 -7 154 -2 161 -10 143 -176 -21 -189 -27 -310 -18 -343 12 -45 45 -72 86 -72 71 0 102 46 102 151 0 33 7 118 16 187 24 190 9 280 -58 349 -50 52 -112 67 -263 65 -71 -1 -164 -6 -205 -11 -41 -4 -78 -7 -81 -5 -4 2 -10 108 -13 236 -9 286 -17 352 -47 384 -31 33 -82 32 -114 -1z" fill="#4444bb"/>
<path d="M2542 2944 c-55 -38 -64 -109 -53 -419 6 -186 9 -215 28 -250 50 -95 116 -125 302 -135 75 -4 171 -5 215 -1 l78 7 -4 -178 c-2 -97 -7 -181 -11 -184 -4 -4 -42 1 -85 11 -104 26 -285 27 -363 3 -106 -33 -149 -107 -99 -170 26 -34 68 -41 132 -21 74 23 202 20 308 -7 182 -47 274 5 301 168 12 77 27 831 19 994 -7 152 -20 181 -86 186 -88 7 -103 -51 -104 -401 l0 -219 -201 4 c-197 3 -201 3 -220 27 -18 21 -19 42 -19 283 l0 260 -29 29 c-33 33 -74 38 -109 13z" fill="#4444bb"/>
<path d="M2374 1391 c-55 -34 -79 -78 -79 -147 0 -51 4 -66 27 -96 35 -45 102 -73 153 -64 78 15 146 111 131 188 -20 108 -145 172 -232 119z" fill="#4444bb"/>
<path d="M1853 999 c-39 -11 -66 -56 -61 -101 6 -59 69 -64 76 -6 4 30 34 38 145 38 l67 0 0 -110 c0 -135 -1 -136 -132 -126 -85 6 -89 6 -113 -18 -24 -25 -25 -28 -25 -179 0 -162 4 -177 47 -177 35 0 43 29 43 159 l0 121 73 0 c85 0 141 14 168 41 17 17 19 34 19 169 0 147 -1 152 -25 175 -23 24 -30 25 -137 24 -62 0 -128 -5 -145 -10z" fill="#4444bb"/>
<path d="M2985 1000 c-91 -16 -93 -18 -104 -58 -15 -51 -14 -537 0 -564 19 -36 69 -48 204 -48 121 0 127 1 151 25 l24 24 -2 292 -3 292 -26 19 c-31 23 -161 33 -244 18z m169 -86 c14 -5 16 -37 16 -250 l0 -245 -102 3 -103 3 0 240 0 240 40 6 c57 9 131 10 149 3z" fill="#4444bb"/>
<path d="M2351 971 c-24 -24 -29 -73 -37 -372 -6 -232 -6 -237 15 -258 23 -23 29 -25 51 -11 12 7 16 40 20 150 l5 141 35 -23 c19 -13 59 -55 88 -93 30 -39 78 -96 108 -128 47 -51 56 -57 74 -47 29 16 25 42 -15 92 -19 24 -62 78 -95 121 -61 77 -61 77 -33 77 15 0 46 9 69 19 56 26 67 57 62 179 -6 156 -27 172 -220 172 -93 0 -111 -3 -127 -19z m257 -74 c16 -13 17 -168 0 -185 -7 -7 -41 -12 -84 -12 -40 0 -84 -4 -98 -10 l-26 -10 0 120 0 119 98 -6 c53 -3 103 -10 110 -16z" fill="#4444bb"/>
</g>
</g>
</svg>
