<svg height="1632.190873pt" preserveAspectRatio="xMidYMid meet" viewBox="0 0 2131.433658 1632.190873" width="2131.433658pt" xmlns="http://www.w3.org/2000/svg"><g transform="matrix(.1 0 0 -.1 -65 2628.187012)"><path d="m2300 26278c-89-16-190-113-190-183 0-21 9-40 26-56 23-21 35-24 102-24 57 1 89 6 125 22 63 29 60 44-5 26-67-18-172-13-194 9-23 23-12 58 31 101 44 44 93 67 142 67 135 0 130-180-9-320-77-77-199-117-211-69-7 26-31 20-35-9-2-13 6-27 23-38 54-36 163 5 254 95 62 62 101 132 112 202 20 126-50 198-171 177z"/><path d="m1858 26214c-10-3-18-12-18-20 0-10 13-14 48-14 54 0 82-20 82-59 0-29-54-80-91-88-43-8-55-28-27-47 12-9 28-16 34-16 19 0 94-59 94-75 0-19-51-45-119-61-55-13-76-11-66 7 10 15-12 10-25-6-36-44 60-60 151-25 118 44 131 107 34 169l-44 28 30 17c62 37 78 131 29 168-27 19-82 30-112 22z"/><path d="m1035 26193c-5-15-45-197-45-209 0-2-29-1-65 3-45 4-65 2-65-5 0-16 34-32 67-32 39 0 53-12 47-37-4-16-15-23-38-25-39-4-43-32-5-36 17-2 29-11 32-23 7-25 37-25 37 1 0 18 7 20 66 20 66 0 66 0 60-27-4-16-8-66-11-113-4-76-3-80 6-40 6 25 20 78 31 118l21 72h48c27 0 49 5 49 10 0 6-18 10-39 10-22 0-42 4-45 9-11 18 13 61 34 61 11 0 20 5 20 10 0 6-9 10-19 10-18 0-18 6 15 102 19 56 34 110 34 120 0 21-13 24-27 6-8-10-55-144-79-227-3-10-17-12-62-6-31 4-59 9-61 11s8 49 22 106c13 56 22 108 20 115-7 19-40 16-48-4zm113-276c-3-20-10-22-65-25-56-3-63-1-63 16 0 26 1 27 70 29 58 3 61 2 58-20z"/><path d="m2575 26163c-21-58-65-152-99-212-19-33-23-48-14-58 14-17 63-17 121 1 26 8 47 12 47 9s-12-42-26-88c-14-45-24-95-22-111 4-27 5-26 30 26 14 30 48 119 75 197 40 117 46 144 35 155-18 18-37-8-52-73-8-31-20-55-34-63-21-14-126-31-126-21 0 3 18 41 40 84 66 129 86 201 56 201-8 0-22-21-31-47z"/><path d="m1661 26138c-43-133-72-331-53-364 14-24 15-20 37 116 10 58 26 137 36 175 10 39 19 78 19 88 0 30-28 19-39-15z"/><path d="m21741 25798c-12-40-29-92-37-115l-16-43-58 59c-63 63-93 79-115 61-15-13-9-40 9-40 15 0 136-122 136-138s-77-162-100-187c-33-38-34-49-3-27 41 29 86 81 118 137 15 25 28 45 30 45 1 0 22-11 46-24 50-28 117-41 138-27 18 12 5 31-20 31-24 0-111 43-128 63-10 13-6 34 18 113 34 107 40 164 17 164-9 0-22-27-35-72z"/><path d="m715 25626c-5-2-22-7-37-10-16-4-28-11-28-16 0-6 37-8 93-6 50 1 166-2 257-9 293-21 1244-27 2015-12 220 4 425 5 456 1l56-6-1-1449-1-1448-55-7c-30-4-248-3-485 1-236 5-560 8-720 8-420-1-1316-13-1343-19-13-3-22-10-19-17 3-9 118-11 508-7 782 7 1172 6 1579-4 358-8 411-6 511 19 24 6 27 3 32-27 3-18 9-226 12-463 7-412 0-684-25-1137-9-151-9-192 2-210 9-16 13-76 15-203 0-99 4-335 8-525 6-323 6-347-12-379-28-53-59-69-158-82-107-14-185-9-475 31-354 48-450 55-725 54-273-1-326-4-787-56-231-25-288-35-288-46 0-20 164-12 485 23 170 19 318 28 510 32 298 6 466-6 805-55 210-31 492-37 563-13 54 18 93 55 113 107 16 41 16 75 10 367-13 581-15 621-21 749-3 72 1 259 11 440 14 264 15 404 8 893-5 319-9 1064-9 1655s-4 1226-8 1410c-5 217-4 340 2 350 10 14 51 10 164-16 16-4 27-2 27 4s-30 21-67 34c-68 22-68 22-1328 23-693 1-1273 4-1290 8-36 7-346 19-360 13z"/><path d="m8835 25571c-8-14 3-18 70-25 135-16 183-43 164-93-5-16-53-69-105-119-88-83-95-93-92-124 2-21 12-40 28-51 63-46 333-44 304 2-3 5-44 9-92 10-110 1-186 18-190 42-2 11 25 45 76 96 95 94 113 119 114 162 2 65-86 109-217 109-30 0-56-4-60-9z"/><path d="m4206 25528c-35-53-39-117-40-603-2-410-4-495-19-580-23-127-53-229-73-246-24-20-36-48-29-69 10-33 43-23 70 21 15 22 31 39 38 37 22-7 47-74 56-153 5-44 10-269 10-500 2-506 16-705 63-885 20-76 83-210 99-210 13 0 12 7-16 76-21 53-47 165-69 304-18 114-25 296-27 681-1 429-10 590-39 664-14 37-49 75-68 75-10 0-12 7-8 23 45 157 58 312 55 642-6 581-5 627 13 668 9 20 24 37 32 37s37-18 65-40 55-40 61-40c25 0 2 36-48 77-61 50-103 57-126 21z"/><path d="m18165 25466c-30-21-61-94-104-242-25-85-42-129-51-129-8 0-47 49-86 109-87 130-109 155-125 139-9-9 6-40 61-125 148-232 188-236 244-26 31 112 59 190 82 226 15 23 16 23 30 5 13-16 14-15 12 17-3 40-29 51-63 26z"/><path d="m8606 25423c-9-21-40-110-69-198-45-139-55-160-74-163-26-4-32-32-7-32 18 0 17-7-6-115-16-74-8-113 24-121 61-15 168 89 200 194 10 30-8 28-22-3-28-62-142-159-163-138-8 8 13 119 31 161 7 17 18 22 47 22 45 1 170 24 180 33 3 4-42 7-100 7-59 0-107 4-107 8 0 5 25 85 55 177 30 93 55 177 55 187 0 31-26 20-44-19z"/><path d="m4735 25374c-44-47-75-183-75-327 0-56-6-92-20-126-29-66-31-106-5-106 18 0 19-7 17-100-2-55-5-115-9-133-6-36 17-82 42-82 27 0 195 83 195 96 0 19-16 18-104-11-42-14-78-25-81-25-2 0-2 39 1 88 2 48 6 140 8 204 4 109 7 124 46 224 61 156 87 265 72 298-15 35-55 35-87 0zm20-168c-47-140-58-137-30 8 8 42 22 90 32 107l18 31 3-32c2-18-9-69-23-114z"/><path d="m18317 25313c-13-13-7-45 34-168 60-185 82-161 33 36-33 131-45 155-67 132z"/><path d="m21563 25313c-38-5-60-27-45-46 8-9 35-10 120-3 61 5 123 5 138 1 26-6 19-11-76-47-140-54-735-292-1040-416-686-278-1039-420-1275-512-270-106-293-115-925-353-212-80-392-148-401-152-11-4-21 8-39 45-28 60-46 78-62 62-8-8-5-26 12-67 13-32 19-60 14-64s-67-29-139-55c-71-26-146-54-165-61-19-8-187-71-372-140-1336-495-1644-613-2828-1087-489-196-654-257-666-245-3 3 5 20 17 37 14 19 26 51 29 82l5 50 185 75c408 166 507 206 545 223 58 26 117 50 122 50 2 0-8-20-22-43-28-49-33-87-10-87 8 0 15 6 15 13 0 6 21 42 46 80 26 38 44 73 40 82-4 12-25 15-108 13-121-1-140-5-136-27 2-11 18-17 53-21l50-5-105-43c-58-24-239-97-403-163-283-114-300-119-332-108-68 25-160-35-186-121-14-45-6-85 18-96 10-4 43-10 73-13l55-6-110-28c-195-51-244-67-271-91-18-15-25-29-21-39 6-15 10-14 41 7 20 13 73 33 118 45 46 12 120 33 164 46 94 29 104 30 104 13 0-46 108-198 140-198 5 0-3 19-19 43-23 35-81 163-81 180 0 3 21 13 48 22 169 61 281 104 977 380 308 122 621 246 695 274 139 54 1029 387 1685 631 200 74 715 266 747 279 27 10 28 9 78-88 84-164 132-184 58-24-25 54-48 108-52 119-6 20 12 29 276 127 687 257 1272 485 1793 697 165 67 584 236 930 375 347 139 674 271 728 293 97 40 116 42 76 6-51-45-119-136-119-160 0-13 5-24 12-24 15 0 175 167 194 203 19 35 6 61-37 76-30 10-282 13-356 4zm-7808-2990c-38-20-38-20-31-32 4-6 21-5 48 5 48 17 53 14 44-21-15-58-83-97-135-79-31 11-31 46 0 80 10 11 19 25 19 32 0 15 30 31 60 31 25 0 25 0-5-16z"/><path d="m14755 25296c-108-49-179-233-115-301 18-19 33-25 64-25 48 0 87 23 138 82l37 43 1-32c0-23 7-37 25-49 23-15 29-14 87 5 66 22 138 65 138 81s-22 12-95-20c-39-16-81-30-94-30-23 0-23 1-15 68 12 106 11 127-7 127-8 0-26 13-40 28-29 33-81 43-124 23zm104-52c29-36 26-56-12-117-72-112-151-148-186-85-37 66 64 228 142 228 27 0 41-7 56-26z"/><path d="m1298 25273c-30-33-54-78-74-142-17-51-18-55-64-225-17-65-38-129-46-141s-12-28-9-36-1-47-9-88-12-80-9-87c3-8 19-14 37-14 63 0 316 85 324 109 6 17-13 14-126-18-57-17-124-33-148-37-51-7-49-21-19 116 12 51 29 92 55 130 55 81 83 135 124 239 61 155 65 221 13 221-13 0-35-12-49-27zm45-50c-13-79-115-324-129-310-7 7 33 157 63 231 37 95 76 142 66 79z"/><path d="m7933 25276c-60-51-123-202-123-297 0-51 3-61 24-74 35-23 80-1 143 70l51 57 7-41c9-56 48-101 86-101 37 0 37 15 0 34-51 27-59 144-15 228 18 35 18 68-1 68-8 0-21-12-29-27l-14-28-7 30c-13 59-18 70-33 88-21 24-55 21-89-7zm76-34c5-10 13-46 17-80 6-57 4-65-21-102-39-56-111-120-135-120-17 0-20 7-20 38 0 75 49 202 98 255 30 31 47 34 61 9z"/><path d="m6564 25173c-23-103-86-348-90-353-3-3-33-6-66-7-65-1-73-5-65-28 5-11 21-15 63-15h56l-5-32c-19-110-19-123 3-151 13-16 31-27 45-27 45 0 125 89 125 137 0 13-11 6-36-25-20-23-49-49-65-58-26-13-30-13-35 1-8 21 3 121 17 146 8 15 21 19 64 19 30 0 55 4 55 9 0 13-27 21-71 21-34 0-39 3-35 18 35 117 86 359 78 367-14 13-32 2-38-22z"/><path d="m5670 25118c0-7 11-83 25-168 52-325 62-360 100-360 21 0 40 44 106 239 33 97 66 181 73 186 18 14 26 63 11 75-34 28-57-16-146-287-24-73-46-129-50-125-6 5-79 422-79 447 0 3-9 5-20 5s-20-6-20-12z"/><path d="m8852 24978c-32-39-66-295-44-334 9-16 11-14 16 16 3 19 12 76 20 125 9 50 22 112 30 139 15 48 14 66-3 66-5 0-13-6-19-12z"/><path d="m15020 24812c-327-142-427-187-739-339-117-57-215-102-218-100-6 7 81 119 126 162 39 37 52 65 31 65-14 0-165-134-195-174-14-18-25-46-25-63 0-42 35-55 146-55 76 0 94 4 142 29 72 37 80 58 13 32-49-18-191-38-191-26 0 6 58 35 335 167 226 109 300 142 545 247 135 57 259 110 275 117 17 7 45 19 63 26 37 14 43 40 10 39-13 0-156-57-318-127z"/><path d="m18172 24893c-55-3-74-8-79-19-9-23 15-34 72-34 27 0 45-4 40-8-6-5-118-51-250-102s-255-99-272-106c-19-7-33-20-33-30 0-24 28-16 241 67 212 83 388 149 395 149 2 0-14-23-36-51-40-50-45-78-12-60 36 19 162 159 162 180 0 23-16 24-228 14z"/><path d="m5173 24870c-45-3-85-9-89-12-16-16 12-28 64-27 117 1 313 35 231 40-60 4-130 4-206-1z"/><path d="m7110 24850c0-29 29-32 189-23 222 13 176 40-71 42-111 1-118 0-118-19z"/><path d="m5098 24792c-26-5-22-30 5-34 53-7 277 19 277 33 0 9-242 10-282 1z"/><path d="m6765 24727c-42-64-87-382-57-401 7-4 13 3 16 16s17 84 32 158 33 152 40 174c18 49 18 63-1 70-9 3-21-4-30-17z"/><path d="m8191 24737c-167-5-315-13-329-18-21-8-22-12-11-25 12-14 31-16 134-10 66 3 246 9 400 12 214 5 283 10 294 20 13 11 13 14 0 18-28 10-189 11-488 3z"/><path d="m6055 24721c-67-41-108-97-120-165-10-51 12-45 30 8 15 44 36 68 89 107 51 37 93 38 106 3 22-58-39-164-94-164-20 0-32 9-47 35-24 41-44 36-35-8 20-100 140-87 195 22 31 61 31 131-1 161-28 25-83 26-123 1z"/><path d="m1653 24498c2-77-28-143-91-205-45-44-42-54 7-28 42 21 98 90 115 143 28 79 18 152-20 152-8 0-11-20-11-62z"/><path d="m8223 24503c-7-2-13-12-13-20 0-12 7-14 35-9 19 4 44 2 55-4 43-23 17-72-94-180-66-65-76-79-74-105l3-30 80 1c85 1 309 49 300 64-3 5-13 7-23 6-9-2-57-7-107-10-49-4-115-9-145-12l-55-6 57 58c107 112 141 191 98 234-19 19-84 27-117 13z"/><path d="m16707 24358c-32-44-44-77-76-204l-27-106-44 113c-45 112-69 144-90 123-8-8-5-22 11-48 12-21 41-92 64-159s47-123 52-124c25-9 43 29 68 142 29 130 75 251 93 248 18-4 14 34-4 41-22 8-21 9-47-26z"/><path d="m17602 24129c-214-104-352-161-352-146 0 2 11 32 25 67 22 56 23 66 11 79-12 12-18 12-31 1-30-25-115-162-115-185 0-36 28-45 144-45 87 0 106 3 106 15 0 8-12 18-27 21-49 12-47 16 28 49 41 18 115 52 164 75 50 23 123 58 163 76 43 20 72 40 72 49 0 28-43 15-188-56z"/><path d="m1272 24123c-6-15-21-66-32-113-12-47-28-106-36-132l-16-48h-68c-76 0-100-6-100-25 0-21 30-27 97-19 35 3 63 5 63 3s-16-67-35-143c-33-128-34-141-20-163 9-12 22-23 31-23 28 0 72 29 108 72 49 56 47 79-3 36-22-18-53-41-70-51-31-18-31-18-31 9 0 42 62 265 74 269 6 2 32 6 59 10 33 4 47 11 47 22 0 13-8 14-50 9-38-5-50-3-50 6 0 7 14 65 32 128 33 124 39 171 22 177-6 2-16-9-22-24z"/><path d="m2309 24023c-6-16-27-93-46-173s-39-162-44-182l-10-38h-68c-50 0-70-4-74-14-9-22 2-26 71-26h65l-7-32c-32-160-29-218 13-218 25 0 77 44 96 81 26 50 16 54-28 11-42-41-67-53-67-31 0 6 7 51 16 99l16 88 84 7c96 8 103 25 11 25-34 0-67 4-74 8-9 6-2 50 27 177 21 94 43 183 49 198 15 38 14 47-4 47-9 0-20-12-26-27z"/><path d="m16753 24020c-36-22-57-55-49-77 5-12 14-8 46 21 41 37 80 47 80 22 0-8-16-34-35-58-103-128-110-142-79-172 30-31 202-16 191 17-2 8-27 12-74 12-39 0-74 3-78 7s20 41 54 83c63 78 78 124 49 153-18 18-69 14-105-8z"/><path d="m9113 23913c-32-12-6-43 36-43 10 0 30-9 45-21 33-26 34-61 1-114-56-91-60-103-45-130 20-37 69-49 178-42 52 3 99 10 104 15 23 23-6 32-106 32-66 0-108 4-119 13-16 11-15 15 8 50 35 51 56 114 49 146-9 37-52 80-93 91-39 11-40 11-58 3z"/><path d="m8893 23707c-6-6-30-94-53-193l-44-182-39-5c-45-6-52-11-44-32 4-9 19-15 38-15 28 0 31-3 25-22-18-64-19-138-2-163 38-57 137-11 178 83 24 53 12 79-13 29-23-43-77-87-109-87-22 0-23 2-17 72 3 39 10 74 14 78 4 5 49 11 98 14 85 7 118 17 98 29-5 3-46 7-91 8-46 1-84 5-86 8s11 66 30 140c38 156 50 236 36 245-5 3-14 0-19-7z"/><path d="m4761 23578c-35-37-70-169-95-364-10-77-19-109-37-133-22-31-23-33-7-45 16-11 17-26 12-122-6-102-5-111 16-136 18-23 29-28 66-28 75 0 213 55 191 76-3 3-48-2-100-11-136-26-131-31-124 129 6 131 7 135 46 213 22 43 52 119 66 169 57 193 38 330-34 252zm5-207c-50-175-66-189-36-30 11 57 28 126 37 154l18 50 3-44c2-25-7-79-22-130z"/><path d="m1431 23567c-18-22-41-85-41-113 0-32 22-28 31 7 14 48 10-16-6-98-17-89-19-116-6-109 32 20 79 253 61 302-11 27-22 30-39 11z"/><path d="m8221 23433c-89-92-161-286-130-345 7-13 17-26 23-30 38-25 115 17 186 102 23 28 45 48 48 46 2-3 6-24 7-46 3-46 27-87 58-99 34-14 46 7 18 30-33 27-37 85-13 191l19 87-24 21c-13 11-23 26-23 33 0 27-45 57-85 57-33 0-45-7-84-47zm122-7c8-8 17-33 21-56 5-33 2-49-15-78-61-101-170-201-205-188-60 23 94 336 166 336 10 0 25-6 33-14z"/><path d="m18430 23433c-35-24-48-41-77-103-21-45-26-69-26-135 0-44 6-100 12-123 10-37 10-47-3-61-24-26-20-44 7-38 20 6 24-1 47-69 31-97 58-145 93-164 25-14 30-13 72 9 28 15 65 48 93 85 110 140 109 166 0 59-92-89-132-118-148-108s-39 60-71 153l-30 84 38 56c74 113 115 291 79 347-19 29-51 32-86 8zm57-105c-3-40-14-93-24-118-22-55-64-130-73-130-8 0-20 76-20 125 0 83 58 195 102 195 20 0 21-4 15-72z"/><path d="m6697 23288c-20-84-39-168-42-185-6-31-9-33-47-33-32 0-39-3-36-17 2-12 14-19 37-21 32-3 33-5 27-38-11-55-8-171 4-193 14-28 55-37 87-20s69 65 78 102c9 36-5 34-30-4-25-39-67-64-90-55-16 6-17 17-12 102 3 53 7 97 9 99 2 1 39 5 83 8 44 4 81 6 83 7 1 0 2 7 2 15 0 12-15 15-79 15h-79l14 70c7 38 24 117 38 176 31 126 31 124 8 124-16 0-24-24-55-152z"/><path d="m2493 23393c-7-2-13-11-13-19 0-10 12-14 39-14 56 0 71-8 71-39 0-19-19-44-75-98-41-39-75-78-75-87s12-19 27-22c29-8 240 10 251 21 15 15-28 25-107 25h-85l30 33c59 62 74 89 74 128 0 54-27 79-82 78-24 0-49-3-55-6z"/><path d="m1622 23347c-5-6-15-37-22-67-18-78-65-205-96-257-29-50-26-69 5-32 54 64 141 271 141 334 0 28-14 40-28 22z"/><path d="m14447 23330c-24-28-60-126-102-277-10-35-22-60-27-57-4 3-35 45-67 92-60 90-130 162-156 162s-16-25 26-65c22-22 70-84 106-138 68-101 100-125 128-96 12 12 38 90 87 259 6 19 20 53 31 75l22 40 5-45 6-45 13 43c16 57 12 76-20 80-19 2-33-5-52-28z"/><path d="m5763 23324c-16-42 70-507 96-524 12-7 51-2 51 6 0 17 65 250 82 294 26 67 73 153 93 170 13 10 15 9 16-11v-24l10 24c13 34 4 51-27 51-62 0-138-139-195-360-10-39-13-42-19-24-10 26-45 207-62 323-13 82-30 112-45 75z"/><path d="m14710 23198c-54-15-100-56-125-110-17-37-24-45-29-32-5 12-10 14-17 7-18-18 0-52 42-80 32-21 47-25 89-21 94 9 186 114 166 191-9 39-70 61-126 45zm74-34c10-4 16-18 16-40 0-45-57-109-111-126-36-10-41-9-64 12-32 30-31 38 4 87 41 57 107 85 155 67z"/><path d="m9033 23194c-12-3-27-11-33-19-21-26-2-34 65-28 76 7 103 0 85-22-6-8-56-44-111-80-70-46-99-71-99-85 0-45 85-52 227-20 158 37 156 58-4 40-153-17-160-14-80 39 63 41 127 101 127 120 0 5-8 19-19 32-14 18-29 23-77 25-32 1-69 0-81-2z"/><path d="m5138 23156c-53-6-100-15-104-18-14-15 6-38 33-38 31 0 170 23 251 40 127 28 10 38-180 16z"/><path d="m5205 23049c-107-9-151-22-139-40 14-23 334 18 334 43 0 9-56 9-195-3z"/><path d="m7495 23041c-42-6-61-35-31-47 8-3 92 1 185 10s174 16 180 16 11 7 11 15c0 13-23 15-152 14-84-1-171-5-193-8z"/><path d="m6113 22899c-17-11-38-35-47-54-21-43-13-60 56-127 42-42 53-48 91-48 48 0 77 20 101 67 20 40 20 76 1 114-35 66-136 90-202 48zm153-40c50-47 16-159-49-159-31 0-72 32-103 81-19 31-22 44-14 59 28 52 120 63 166 19z"/><path d="m8440 22868c-264-10-350-15-356-21-3-3-3-11 1-18 6-9 91-9 359-3 193 5 372 8 399 6 55-2 62 12 13 28-43 14-183 17-416 8z"/><path d="m7027 22844c-11-12 3-24 28-24 46 0 75-21 75-53 0-25-17-48-101-130-66-65-98-104-95-114 3-8 6-17 6-19 0-12 111-1 211 22 108 24 140 36 127 49-6 6-206-12-248-22-20-5-11 9 47 72 101 110 118 176 53 210-29 15-91 20-103 9z"/><path d="m8402 22629c-23-7-32-15-30-26 2-14 15-16 70-14 157 6 142-67-37-189-39-26-77-55-85-65-13-15-12-19 8-36 26-21 27-21 207 21 66 16 137 32 158 35 20 4 37 12 37 17 0 9-73 7-225-8l-60-6 71 68c81 78 97 117 69 160-31 47-106 65-183 43z"/><path d="m2412 22243c-35-17-67-66-58-89 8-22 24-17 38 13 7 15 24 33 38 40 56 29 167 6 191-39 25-47-16-102-156-209-106-80-125-104-125-152 0-39 26-68 82-92 56-23 66-18 32 13-17 16-39 40-48 54-24 36-12 54 77 124 158 125 202 183 187 251-10 42-31 66-75 87-43 21-140 20-183-1z"/><path d="m1416 22167c-32-41-52-90-110-262-27-77-52-147-56-155-14-24-26 22-61 222-30 175-44 218-68 204-19-12-11-80 40-336 29-145 41-172 76-168 40 4 62 45 118 209 56 167 100 269 115 269 5 0 10-4 10-10 0-5 5-10 10-10 11 0 13 30 4 54-11 27-51 19-78-17z"/><path d="m14016 21867c-54-30-78-67-83-124-5-43 0-59 33-122 47-90 84-121 146-121 60 0 89 24 129 105 58 119 37 220-55 264-56 28-120 27-170-2zm176-66c35-39 37-95 7-161-44-97-94-116-147-56-34 39-57 98-49 127 3 11-1 23-10 28-13 7-13 11 0 38 36 69 147 82 199 24z"/><path d="m2039 21796c-2-2-56-7-119-10-63-4-119-11-124-16-35-34 81-40 200-10 83 21 117 40 73 40-14 0-28-2-30-4z"/><path d="m1525 21735c-31-30-34-84-7-108 27-25 35-21 16 9-16 24-16 27 3 52 27 37 56 39 82 6 35-45 22-134-27-177-29-27-57-14-88 39-29 49-52 47-40-2 9-33 67-94 90-94 56 0 126 93 126 167 0 106-93 171-155 108z"/><path d="m7754 21626c-80-35-173-213-191-365-9-83-17-96-80-137-94-61-273-125-273-98 0 4 39 47 86 95 65 67 85 93 82 111-4 32-27 26-117-32-42-27-77-48-78-46-2 1 2 18 7 37 14 46 15 158 2 171-19 19-29-2-35-77-7-83-38-186-68-223-23-30-25-60-2-69 11-4 22 1 32 18 27 40 69 84 75 78 4-3-3-17-14-32-29-36-26-65 7-73 59-15 202 36 318 115l45 30v-51c0-45 4-54 38-89 50-49 85-58 131-33 63 35 96 106 79 171-17 64-95 93-162 58-15-8-30-15-33-15s22 29 55 65c75 82 126 167 158 261 29 88 30 98 4 124-23 23-25 23-66 6zm43-78c-8-58-76-190-138-267-28-34-53-60-56-57-9 9 37 172 67 231 31 64 93 135 118 135 11 0 13-9 9-42zm-537-413c-7-8-17-15-22-15-6 0-5 7 2 15s17 15 22 15c6 0 5-7-2-15zm484-1c41-40-9-144-69-144-27 0-53 28-65 70-8 29-6 36 20 61 33 33 88 39 114 13zm-524-28c0-3-4-8-10-11-5-3-10-1-10 4 0 6 5 11 10 11 6 0 10-2 10-4z"/><path d="m4556 21468c-57-125-110-294-119-380-11-96 63-105 156-19l29 26-7-27c-10-39 1-75 26-89 27-14 50 4 31 23-7 7-12 22-12 34 0 37 49 155 106 255 54 96 63 122 43 134-17 11-45-21-85-98-45-86-105-167-167-224-46-43-77-55-77-30 0 54 81 311 126 399 29 58 30 68 3 68-16 0-28-17-53-72z"/><path d="m12625 21516c-74-33-191-192-230-314-23-73-24-171-2-205 56-86 192-82 235 6 7 15 25 30 40 33 15 4 44 16 65 26 22 11 40 18 42 16s10-20 18-40c23-54 71-64 165-34 18 6 22 4 22-13 0-32 35-61 75-61 39 0 106 24 146 51 26 19 26 19 50-27 23-45 23-47 5-58-174-106-220-158-196-217 37-89 208-75 264 21 16 27 21 52 21 113v77l105 62c70 41 114 61 131 59 15-1 44 5 64 14 21 8 39 14 40 13 1-2 7-18 15-36 19-48 68-112 85-112 19 0 19 2-4 42-11 18-27 60-36 93-19 74-37 95-66 77-31-20-31-11 2 37 33 50 37 89 12 120-27 31-72 36-111 11-47-29-75-96-70-168l3-55-50-32c-27-17-71-43-97-58l-47-27-26 50-26 51 27 32c49 58 69 138 42 165-18 18-62 14-92-9-42-33-58-74-54-137 3-56 3-56-37-79-27-16-53-22-80-21-38 3-40 4-39 35 1 19 13 46 27 63 32 37 42 69 28 83-17 17-48-4-83-58-27-40-41-52-81-64-59-18-81-8-85 40-2 28 4 42 38 77 42 45 53 88 25 98-25 10-64-24-92-81-23-47-33-57-82-79-81-35-90-35-127 2-19 19-42 32-58 32-66 0-107-53-70-91 16-16 40-23 99-29 24-2-32-30-61-30-46 0-82 35-89 85-7 47-4 52 58 94 104 71 218 213 237 295 14 65-27 92-95 62zm37-108c-36-73-114-165-178-209-56-38-57-25-3 79 59 116 173 229 203 201 5-5-4-34-22-71zm994-192c3-8 0-25-6-38-15-28-71-88-82-88s-10 53 1 83c19 50 74 77 87 43zm-352-34c7-11-28-84-47-101-15-12-17-10-17 15 0 48 47 112 64 86zm346-96c0-3-4-8-10-11-5-3-10-1-10 4 0 6 5 11 10 11 6 0 10-2 10-4zm-1075-16c4-6-6-10-24-10-16 0-33 5-36 10-4 6 6 10 24 10 16 0 33-4 36-10zm724-273c1-41-25-90-58-110-53-31-141-16-141 25 0 18 77 86 133 118 57 33 65 29 66-33z"/><path d="m9814 21481c-58-35-132-182-149-293-4-26-16-55-26-64-26-24-114-52-144-46-36 6-44 47-15 74 18 16 21 28 17 55-8 46-23 63-58 63-61 0-175-143-167-208 5-42 45-41 102 2 27 22 46 30 46 22 0-7 9-21 21-32 28-25 90-23 153 5 27 11 51 19 53 17 3-2 1-19-4-38-11-39-3-90 14-95 7-3 13 10 15 33 3 37 4 37 21 20 30-30 96-32 137-4 42 27 85 108 76 141-11 41-24 51-75 57l-50 5 31 45c80 117 110 227 69 250-26 14-31 13-67-9zm30-110c-19-52-73-138-104-166-18-16-20-16-20-2 0 48 68 185 112 227 20 19 23 19 26 5 2-10-4-38-14-64zm-394-146c0-32-120-161-127-138-6 17 40 85 77 116 30 25 50 34 50 22zm410-107c0-54-67-116-111-103-11 4-25 18-32 32-10 23-8 28 23 55 57 47 120 56 120 16z"/><path d="m2432 21463c-13-24-4-43 18-43 25 0 43 33 28 48-17 17-36 15-46-5z"/><path d="m11868 21328c-31-33-78-121-78-146 0-16-72-49-125-57-82-13-98 50-35 130 17 21 30 46 30 56 0 28-38 24-63-7-70-84-92-103-149-132-72-36-138-43-138-16 0 9 14 43 30 76 17 32 30 65 30 73 0 25-27 17-52-16-55-73-117-133-163-160-58-34-115-39-115-11s46 114 86 160c35 41 40 72 11 72-8 0-30-18-50-40-21-21-57-51-80-65-47-27-157-68-165-60-2 2 7 24 22 49 53 91 20 105-46 19-50-65-133-116-216-134-83-17-93-7-45 44 42 43 73 95 73 121 0 25-38 39-70 26-56-23-120-113-120-170 0-23-51-50-95-50-21 0-25 5-25 28 0 15 11 47 25 71 14 23 25 47 25 52 0 20-38 7-65-21-17-17-51-37-79-45-50-15-106-20-106-9 0 3 16 39 35 81 39 85 41 93 21 93-17 0-43-38-71-108-13-33-31-58-46-66-43-21-63-166-22-166 8 0 25 25 40 60 26 59 27 60 67 60 23 1 59 7 81 15s41 15 43 15c1 0 2-16 2-35 0-43 29-75 68-75 15 0 50 11 79 24 39 19 59 23 80 17 59-17 164 13 244 69 32 23 39 17 13-11-18-20-35-94-27-116 11-28 35-11 57 40 24 52 25 53 122 95 54 23 99 40 102 38 2-3-1-20-7-39-21-63 5-107 61-107 32 0 127 46 162 78 21 20 30 23 34 13 10-29 43-51 75-51 37 1 130 37 176 69l31 22v-30c0-63 67-92 155-68 28 8 57 17 66 21 12 5 18-2 25-31 21-88 179-110 270-38 38 31 25 41-26 21-66-26-170-17-192 17-20 31-7 64 43 112 56 55 79 92 79 128 0 54-48 62-92 15zm-1292-85c-18-35-86-101-86-84 0 32 62 111 87 111 11 0 11-5-1-27zm1306 5c-7-7-12-8-12-2 0 14 12 26 19 19 2-3-1-11-7-17z"/><path d="m5049 21313c-8-10-31-43-51-73-75-116-208-238-208-190 0 6-7 10-15 10-26 0-18-49 9-61 31-15 78 12 136 78l40 46v-37c0-29 5-39 25-48 22-10 33-8 72 11l46 22 22-21c27-26 86-35 135-23 28 8 43 6 73-10 43-22 110-19 187 8 44 15 44 15 65-11 28-36 114-45 180-20 35 14 48 15 66 5 37-19 104-5 166 36 55 37 55 37 88 19 49-26 121-15 215 33l78 40-5-38c-7-47 12-104 40-124 32-22 40-18 21 10-21 32-15 138 12 204 27 67 6 75-54 19-56-53-104-79-183-102-94-27-124-3-74 59 40 49 56 87 45 105-22 36-104-35-117-103-6-31-58-78-119-107-46-23-94-26-94-7 0 14-35 39-44 30-3-4-6-14-6-23 0-20-37-30-104-30-38 0-86 21-86 39 0 4 22 24 49 44 60 46 111 122 111 166 0 61-70 61-127-1-28-30-73-120-73-147 0-12-9-30-19-40-25-25-118-46-166-37l-38 8 43 24c131 75 194 170 142 217-70 63-252-80-252-198 0-24-3-25-54-25-75 0-87 17-45 64 33 38 33 66 0 66-18 0-71-52-71-69 0-9-74-51-90-51-20 0-6 58 34 146 34 73 39 104 18 104-5 0-15-8-23-17zm459-66c7-36-86-123-162-150-16-7-18-4-12 25 9 45 54 98 106 125 48 25 63 25 68 0zm222 5c0-34-92-144-107-129-9 10 27 85 58 118s49 37 49 11z"/><path d="m8529 21253c-7-21-13-81-14-134 0-82 3-100 19-118 37-41 88-19 148 63l31 41-7-79c-4-44-10-84-12-88-3-5-26-18-51-30-65-31-141-90-171-134-31-45-41-132-23-187 15-44 73-97 106-97 85 0 124 72 160 302 9 57 20 111 26 121 5 10 7 21 5 26-3 4 2 72 11 149 8 78 13 148 10 156-7 18-37 10-37-9 0-28-73-156-106-185-30-26-38-29-51-18-13 10-14 29-10 108 4 52 9 107 13 123 5 23 3 27-14 27-15 0-24-11-33-37zm161-371c0-43-46-248-65-289-38-83-95-81-131 4s-4 160 103 238c74 54 93 63 93 47z"/><path d="m9094 21270c-12-5-25-14-29-20-5-8-11-8-21 1-11 9-17 9-28-1-17-13-91-200-131-330-15-47-33-103-40-125-31-99-39-145-27-157 22-22 37 11 87 184 47 159 50 167 67 151 16-15 21-14 65 2 78 29 136 75 172 135 25 41 27 80 6 120-24 47-69 61-121 40zm66-40c4 0 13-13 20-29 10-24 9-35-5-65-23-47-122-126-138-109-3 3-22-4-42-15-20-12-35-17-35-10 0 17 67 150 87 173 32 36 76 66 91 60 7-3 17-5 22-5z"/><path d="m2403 21161c-45-21-81-75-70-105 10-26 34-18 45 13 32 90 185 81 221-12 13-36 12-40-15-94-21-40-51-75-104-120-187-160-190-163-190-194 0-47 16-69 50-69s40 15 10 23c-38 10-22 44 47 104 203 176 253 240 253 321 0 43-29 93-72 125-39 29-122 33-175 8z"/><path d="m7963 20994c-8-20 9-49 28-49 8 0 15 13 17 33 3 27 0 32-18 32-11 0-23-7-27-16z"/><path d="m1340 20807c-60-30-147-199-158-305-8-84 45-117 105-65 11 10 45 53 75 95l56 77 6-39c9-58 26-90 57-106 33-17 49-2 26 24-24 29-37 82-37 158 0 63-3 76-20 86-11 7-20 19-20 26 0 14-44 62-57 62-4 0-19-6-33-13zm57-74c15-37 15-39-18-101-33-63-122-172-140-172-12 0-11 56 2 104 27 97 93 206 125 206 8 0 22-17 31-37z"/><path d="m1773 20604c-11-30 21-42 100-37 105 6 139 12 134 26-4 12-82 24-175 26-40 1-54-3-59-15z"/><path d="m2432 20381c-16-9-13-42 4-48 6-2 23 6 38 18 21 17 25 24 14 30-17 11-39 11-56 0z"/><path d="m6090 20379c0-8 28-32 61-53 33-22 67-50 76-62 21-33 2-66-74-128-96-79-95-121 4-133 57-6 250 14 259 28 8 14-11 17-141 23-66 3-122 5-124 6-2 0 17 18 42 40 113 100 114 170 4 243-62 41-107 56-107 36z"/><path d="m5054 20260c-50-20-118-126-149-233-19-66-13-95 21-103 32-8 62 6 112 50l39 36-5-69c-4-63-3-69 18-84 30-21 42-13 28 19-15 32 2 121 38 202 24 56 25 82 3 82-7 0-18-8-25-17-12-16-13-13-14 27 0 46-17 91-35 96-5 1-19-1-31-6zm26-118c0-77 0-78-37-113-41-39-83-69-95-69-29 0 30 162 79 219 19 23 39 41 44 41s9-35 9-78z"/><path d="m5841 20213c-10-21-40-103-66-183s-52-150-56-156c-5-6-34-16-64-23-45-10-55-16-55-33 0-19 4-20 50-14 28 4 50 4 50 0 0-3-7-34-16-68-30-115-43-198-34-222 29-76 151 6 167 112l5 39-30-46c-32-50-87-95-97-80-6 10 22 149 49 241 14 49 21 58 61 79 25 13 44 29 42 35-5 12-10 12-45 1-21-6-22-4-16 22 4 15 29 93 55 172 27 79 46 148 43 153-10 16-24 7-43-29z"/><path d="m9238 20209c-58-33-112-166-129-316-10-87-15-103-45-142-19-24-34-50-34-58 0-19 30-16 46 5 12 15 13 14 14-13 0-16-8-85-17-153-17-123-17-123 5-144 21-21 25-22 92-10 76 13 177 45 194 62 15 15-73 12-169-5-43-8-81-13-82-11-2 1 6 83 18 181l20 179 50 82c90 146 140 302 109 339-14 17-47 19-72 4zm26-128c-9-25-35-82-58-126-34-66-42-76-45-55-8 60 37 192 85 250l29 34 3-28c2-16-4-50-14-75z"/><path d="m7203 20098c-4-7-9-148-11-314-3-264-2-302 12-313 26-22 60 9 92 86 94 219 189 370 250 393 29 11 30 16 4 30-60 32-176-108-261-315-18-44-36-84-41-89-4-6-8 105-8 246s-3 263-6 272c-7 19-20 21-31 4z"/><path d="m7948 19983c-24-28-74-124-88-168-17-55-24-62-73-69-53-8-72-20-64-40 5-13 16-14 53-9l47 6-9-49c-16-88-11-179 10-203 37-41 120-13 146 48 17 42 8 48-26 16-30-27-66-41-83-30-14 8-14 97 0 168 13 65 11 64 133 75 86 8 112 26 51 38-20 3-63 3-96 0-60-7-61-7-53 16 12 40 56 132 75 160 34 47 14 82-23 41z"/><path d="m8585 19938c-2-7-6-44-7-83l-3-70-85-1c-71 0-85-3-88-17-5-24 36-37 112-37h63l6-106c6-100 10-124 22-113 2 3 7 55 11 116l7 111 71 7c127 11 127 33 1 38l-70 2-5 79c-3 51-10 81-17 84-7 2-15-2-18-10z"/><path d="m10805 19931c-81-26-152-102-189-202-27-72-33-137-16-168 25-49 112-51 202-5 166 84 248 302 138 367-28 17-97 21-135 8zm125-51c43-43 14-146-62-222-79-80-203-116-229-67-31 59 66 245 151 290 48 25 114 25 140-1z"/><path d="m9894 19846c-4-9-3-20 1-24s53-6 108-5c247 4 278 34 42 41-128 4-145 3-151-12z"/><path d="m4850 19801c0-15 10-20 50-25 76-10 344-8 371 3 21 9 22 10 4 11-11 0-36 3-55 5-61 8-290 25-331 25-31 0-39-4-39-19z"/><path d="m6604 19797c-14-36 4-40 155-34 243 9 239 34-6 44-125 5-143 4-149-10z"/><path d="m9952 19694c-71-19-92-31-92-54 0-24 7-24 51-6 35 14 172 39 289 52 51 6 60 9 40 15-44 13-232 8-288-7z"/><path d="m7445 19647c-49-28-85-88-69-114 6-10 20-19 30-20 10-2 13 0 7 3-19 8-16 28 8 58 40 51 128 76 164 46 39-32 1-128-61-157-33-16-38-16-82-1-73 27-89 2-20-33 74-38 155-3 197 84 29 60 27 93-8 128-25 24-38 29-78 29-31 0-62-8-88-23z"/><path d="m4920 19640c0-15 7-20 29-20 48 0 81-17 81-41 0-13-28-50-71-94-53-56-70-79-67-97 3-22 7-23 83-22 93 0 225 35 225 59 0 18 4 18-95 0-44-8-95-14-114-15h-34l52 54c78 84 88 121 42 167-25 24-37 29-80 29-44 0-51-3-51-20z"/><path d="m15436 18693c-23-38-70-125-104-195-59-121-63-127-94-130-42-4-51-34-14-44 31-7 31-3 6-82-30-94-27-147 9-183 32-32 66-37 122-17 69 23 120 81 118 133-1 23-3 25-6 8-12-61-152-126-202-94-21 13-17 76 8 159 21 67 23 70 59 76 20 3 57 6 82 6 59 0 120 11 120 20 0 5-47 11-105 15-102 7-105 8-99 29 11 34 105 225 141 289 32 53 35 77 12 77-5 0-29-30-53-67z"/><path d="m13432 18697c-6-6-14-26-18-42-3-17-33-98-66-181-55-142-60-152-88-158-35-6-40-31-9-41 14-5 18-12 14-23-20-48-36-116-37-157-2-40 2-51 25-71 31-26 72-30 125-11 33 13 92 62 92 78 0 13-4 12-43-11-19-12-57-23-85-27-42-5-51-3-60 13-12 22-1 96 24 162l16 42h166c110 0 163 3 156 10-11 11-197 40-261 40-24 0-43 2-43 4s14 36 31 77c53 131 89 240 89 275s-10 43-28 21z"/><path d="m5154 18648c-50-40-74-71-110-143-36-74-64-182-64-250 0-22-9-57-20-78-25-46-25-61-1-54 15 4 20-2 26-30 7-41 45-83 75-83 12 0 32 11 46 25s48 33 77 43l51 18 26-30c23-25 36-30 86-33 47-3 66 0 92 16 37 24 44 47 10 36-44-14-103-15-128-3-37 20-36 43 3 65 50 30 76 53 106 98 49 70 50 118 4 136-70 26-175-87-198-212-6-32-12-38-47-48-22-7-41-11-41-9-30 61-32 63-80 62-26 0-47 4-47 9 0 6 25 49 55 97 67 106 154 286 162 336 9 57-31 72-83 32zm51-45c-19-77-163-333-172-307-8 23 28 148 59 206 31 59 91 128 110 128 6 0 7-11 3-27zm225-279c0-40-97-154-131-154-29 0 17 107 63 145 34 28 68 33 68 9zm-337-198c7-19-1-26-30-26-25 0-29 10-11 28 16 16 35 15 41-2z"/><path d="m16756 18567c-17-12-20-32-26-143-5-88-17-174-39-272-34-150-35-196-2-155 10 12 23 48 29 80 33 170 42 227 47 318 9 143 10 146 43 139 15-3 55-19 89-35 116-55 134-138 54-248-102-142-114-162-114-191 0-52 72-86 119-55 30 20 24 33-13 28-15-2-36 2-47 10-17 13-17 15-2 45 9 17 37 59 64 94 62 82 84 130 84 183 0 77-48 136-147 181-69 31-116 38-139 21z"/><path d="m18844 18519c-10-11-30-56-45-99-14-44-28-77-31-74-12 11-29-28-42-97-25-128-27-156-12-168 22-19 35 8 72 150 36 140 68 235 87 257 28 35 51-72 26-121-7-12-32-43-56-70-63-68-58-90 30-138 38-20 76-43 84-52 13-13 11-16-18-25-19-6-71-14-116-17-75-6-83-9-83-27 0-20 4-21 88-16 105 7 170 30 178 65 9 32-19 61-101 103-36 19-65 36-65 40 0 3 18 23 40 45 21 21 47 54 56 72 49 106-25 246-92 172z"/><path d="m3652 18499c-76-38-149-141-181-255-16-57-13-95 8-130 40-65 137-66 261-4 58 30 108 75 96 87-4 4-28-4-54-19-116-64-228-78-258-33-16 24-16 30 0 93 21 85 73 164 133 202 48 31 96 39 109 18 4-6 10-25 14-42 4-22 12-31 25-31 40 0 26 89-19 120-29 21-84 18-134-6z"/><path d="m11500 18400c-24-34-60-133-60-166 0-27-51-89-91-110-46-24-76-18-88 16-16 47-49 34-37-15 16-62 86-74 152-27 21 16 45 36 52 45 12 14 16 14 48-5 44-26 109-20 185 16 65 32 69 32 69 2 0-60 79-66 181-13 42 21 69 30 69 23s10-22 23-34c18-17 36-22 79-22 46 0 71 8 142 43 73 37 86 41 86 26 0-80 126-142 213-105 20 8 37 19 37 23 0 5-26 9-57 8-44 0-67 6-97 24-37 23-38 25-34 71 3 33 15 62 38 94 31 42 32 48 18 62-21 21-47 5-79-49-43-71-195-153-271-145-28 2-34 8-36 30-3 22 8 39 47 81 57 60 65 87 26 87-27 0-45-16-107-92-58-71-202-141-223-108-13 21 7 69 51 126 24 31 43 62 41 68s-17 11-33 11c-24 0-34-9-60-50-18-27-45-63-61-80-39-39-117-67-179-63-44 3-49 6-52 29-2 14 13 58 33 99 40 85 46 130 16 130-11 0-29-13-41-30z"/><path d="m4265 18386c-21-50-65-223-65-256 0-30 27-60 54-60 24 0 98 53 137 97 18 22 28 29 24 18s-9-46-12-77c-5-48-3-58 10-58 11 0 19 17 27 56 7 31 25 93 40 138 16 44 26 84 24 88-11 18-33 5-59-34-54-81-157-178-190-178-13 0-2 73 25 174 16 60 27 113 24 117-11 18-25 8-39-25z"/><path d="m10115 18379c-25-23-58-64-75-93-29-51-42-49-16 2 24 48 29 72 13 72-18 0-66-91-102-195-16-44-30-82-32-84s-15 2-29 9c-20 11-23 16-12 25 20 15 48 82 48 114 0 64-74 105-170 95-99-10-220-95-235-164-7-32-46-48-136-56-71-7-119 6-119 32 0 31 41 84 102 130 39 30 56 50 50 56s-20 7-31 3c-29-9-160-115-202-162l-32-37 6 39c3 22 13 77 21 123 16 85 13 112-9 112-15 0-21-14-30-80-4-25-20-101-36-169-21-86-27-127-20-134 17-17 52 8 91 63 19 27 37 50 40 50s10-10 15-22c22-51 95-60 214-29l74 19 24-29c48-57 152-59 253-5 40 21 44 22 60 7 9-9 24-20 33-26 15-9 12-23-25-140-50-160-70-243-63-255 4-6 17-10 30-10 19 0 28 12 53 73 17 39 48 125 69 191 41 127 38 124 124 146 60 15 135 74 166 128 58 106 34 242-42 242-16 0-42-16-70-41zm101-45c9-49-13-125-48-168-32-39-113-86-149-86-18 0-20 4-14 28 15 60 79 176 124 223 54 56 77 57 87 3zm-368-70c52-36 4-125-93-170-85-40-195-27-195 22 0 8 18 23 40 34 47 24 73 66 50 80-18 11-11 19 37 35 52 19 133 19 161-1z"/><path d="m6466 18388c-2-7-9-47-16-88-6-41-21-92-31-113-25-50-36-122-19-132 16-10 31 7 50 56 12 33 23 44 55 57 22 9 57 26 77 39 21 13 39 23 42 23 2 0-5-17-15-37-39-76-15-118 60-111 47 5 124 36 174 70l27 19v-38c0-45 22-80 57-94 33-12 75 8 83 40 4 20 16 27 53 37 26 7 66 21 89 33 23 11 44 19 46 17s-1-21-7-43c-6-21-11-55-11-76 0-30 5-40 24-48 31-15 67-6 104 26 21 17 42 25 68 25 41 0 114 32 170 75 18 14 35 25 38 25s6-17 6-38c0-56 20-77 72-77 45 0 105 22 170 62 45 28 48 28 48 5 0-30 33-52 76-52s120 33 189 80l46 31-7-25c-10-41 19-76 62-76 37 0 136 44 184 82 25 20 25 20 28-4 9-71 57-108 138-108 43 0 104 27 104 46 0 17-16 18-59 3-26-9-41-8-77 6-39 15-44 20-44 48 0 18 14 61 30 96 29 62 33 91 10 91-5 0-40-31-77-69-88-88-243-169-243-126 0 21 36 91 67 133 25 34 25 62-1 62-8 0-48-33-90-74-82-81-194-146-252-146-28 0-34 4-34 20 0 26 25 76 56 113 29 35 32 67 5 67-22 0-71-53-89-96-23-53-152-124-227-124-33 0-35 2-35 33 1 41 32 110 71 154 16 19 28 40 26 46-12 37-72-4-108-75-23-45-63-77-149-117-77-36-96-38-103-10-5 17-9 19-26 10-11-6-22-20-26-30-7-22-64-61-89-61-38 0 3 153 60 221 38 46 43 69 15 69-22 0-62-43-80-88-22-52-161-99-260-87-53 7-53 7-47 38 4 18 28 54 59 86 62 65 79 93 71 115-18 48-87-6-142-111-39-75-43-79-108-111-40-20-91-36-123-39l-54-6 7 29c4 16 28 59 52 96 25 37 43 72 39 78-3 5-33-13-66-39-53-43-172-101-184-90-2 2 3 31 11 64 19 82 19 145-1 145-9 0-17-6-19-12zm502-288c14 0 22-5 20-12-11-31-68-14-68 20 0 12 3 13 12 4 7-7 23-12 36-12z"/><path d="m4760 18371c-27-8-70-63-70-92 0-28 16-23 41 14 40 56 59 58 59 4 0-21-17-61-46-110-54-90-54-102 0-191 47-78 49-130 7-170-32-31-88-39-115-17-19 16-21 62-4 79 20 20 0 26-27 8-19-12-25-25-25-50 0-48 8-65 41-81 67-35 156-5 191 65 28 54 22 91-27 184l-44 84 41 67c72 121 61 227-22 206z"/><path d="m5635 18361c-62-37-124-135-125-194 0-17 10-38 26-54 23-23 31-25 88-21 77 7 117 26 184 91 28 28 52 47 52 42 0-6-12-45-26-88-20-60-23-81-14-90s18-4 41 23c96 113 133 151 160 171l31 22-7-24c-4-13-20-51-35-84-24-50-26-62-15-74 17-18 26-12 142 95 54 51 114 104 132 120 32 27 33 27 26 5-44-138-55-210-36-239 11-18 15-8 52 136 36 141 37 162 6 162-22 0-111-67-202-152-16-15-31-25-33-23s1 20 7 42c16 55 14 71-10 83-25 14-50-1-125-72l-52-49 5 44c4 32 1 46-12 57-15 12-18 12-28-5-22-41-101-115-141-135-42-20-130-27-152-12s-22 41 1 88c12 27 39 64 59 83 37 36 56 37 35 2-14-21-8-37 10-26 18 10 43 66 37 81-7 20-45 17-81-5z"/><path d="m10395 18358c-23-75-70-178-81-178-36 0-72-133-42-157 21-18 36-2 63 62 21 52 28 60 62 70 21 7 52 19 70 28 43 23 44 22 27-18-20-48-18-82 5-95 30-16 81-12 130 10 49 23 77 25 87 9 4-8 27-10 68-6 62 6 112 22 178 58 42 23 58 19 58-14 0-70 39-127 77-113 14 6 14 8 0 24-8 9-20 43-26 75s-13 63-17 68c-3 6 4 30 17 54 31 59 20 92-41 123-58 29-114 29-134 0-19-27-10-46 51-109 44-46 44-46 21-61-44-28-139-58-186-58h-47l30 24c28 23 29 26 13 42-24 25-65 11-89-31-16-27-32-38-72-50-71-21-87-20-87 8 0 29 67 136 104 164 14 12 26 28 26 37 0 28-39 17-80-23-38-37-122-84-174-97l-24-6 24 79c13 43 22 84 19 91-7 19-23 14-30-10zm625-43c32-16 39-45 17-63-10-9-24-1-57 33-44 45-44 45-17 45 16 0 41-7 57-15z"/><path d="m14485 18333c-24-23-71-128-80-176-17-90 56-114 159-52 32 19 59 35 60 35 0 0 1-20 1-44 0-29 6-51 19-65 30-33 37-25 30 29-5 38-1 64 17 115 33 94 17 104-53 33-54-55-101-83-157-94-29-6-31-4-31 21 0 15 16 66 36 112 24 56 33 88 27 94-7 7-16 4-28-8z"/><path d="m20495 18321c-46-20-102-79-111-117-4-13-4-39 0-55l6-31-71 4c-89 5-109 23-109 103 0 86-16 89-110 16l-80-62 3 38c2 36 0 38-28 41-23 2-41-6-72-33-23-19-44-35-47-35s-6 13-6 29c0 17-5 33-10 36-6 4-39-23-73-58-50-52-73-68-116-81-30-9-65-16-78-16-21 0-19 4 22 43 51 49 58 84 25 117-27 27-103 27-147 0-42-25-67-73-60-116 7-39-11-49-68-38-44 8-53 27-31 64 40 69 5 80-61 19-44-40-110-75-121-64-3 3 4 29 16 58 25 60 27 77 10 77-23 0-37-15-57-60-39-86-21-135 44-120 19 4 46 15 60 24 30 20 45 20 45 1 0-33 50-42 217-43 157 0 163 1 221 28 33 15 63 33 66 39 4 6 12 11 18 11 5 0 0-16-12-36-11-20-19-43-16-50 8-22 44-16 60 9 8 12 42 46 75 75l60 52-6-34c-5-32-3-36 21-42 27-7 48 4 144 76 42 32 42 32 42 7 0-88 66-134 178-124 37 3 100 17 140 31l72 25v-38c0-74 64-117 105-71 22 24 14 36-13 21-41-22-50 72-15 143 11 20 12 31 4 39-6 6-11 21-11 33 0 36-11 54-41 69-35 19-35 19-84-4zm73-68c5-34-60-93-103-93-23 0-35 5-35 14 0 15 34 62 65 88 27 24 69 19 73-9zm-953-33c14-23-63-90-104-90-38 0-33 56 8 87 19 15 87 17 96 3z"/><path d="m17134 18246c-63-28-95-104-59-139 29-30 102-50 156-44 130 16 184 116 91 170-43 25-146 32-188 13zm155-39c67-34 41-86-48-95-69-6-97 3-114 37-13 27-13 31 2 44 9 8 23 17 31 20 28 10 105 7 129-6z"/><path d="m17832 18251c-43-8-71-25-59-38 7-7 74-6 135 2 39 5 40-2 12-100-24-84-26-125-5-125 15 0 21 17 51 145l18 78 91-6c68-5 85-4 71 5-55 31-231 54-314 39z"/><path d="m20950 18235c-10-12-11-24-1-55 14-49 28-51 36-6 12 61-7 94-35 61z"/><path d="m15571 18107c-10-13-9-17 8-26 11-6 24-11 28-10 34 6 75-3 80-18 6-15-15-39-85-95-27-22-28-54-2-68 22-12 165-15 193-5 33 13 16 24-58 36l-75 13 40 41c73 74 47 134-64 143-38 3-55 0-65-11z"/><path d="m13879 18071c-42-26-59-47-59-72 0-13 34-11 48 3 16 16 15 12-8-50-24-63-25-86-4-106 24-24 33-19 32 17 0 33 30 119 58 162 18 28 15 69-6 73-8 1-36-11-61-27z"/><path d="m18223 18059c-32-32 33-54 73-25 18 14 18 15-9 25-36 14-50 14-64 0z"/><path d="m20926 18048c-18-26-21-103-5-114 17-10 32 11 45 64 9 32 9 51 2 60-15 17-25 15-42-10z"/><path d="m16108 17994c-5-4-8-16-8-26 0-14 8-18 40-18 27 0 43 5 47 15 3 9 3 18 0 21-9 9-72 16-79 8z"/><path d="m10625 17538c-3-7-4-515-3-1128l3-1115h2285 2285l3 1114c1 815-1 1117-9 1127-16 20-4557 21-4564 2zm4520-1118v-1075l-2237-3-2238-2v1073c0 591 3 1077 7 1080 3 4 1010 6 2237 5l2231-3z"/><path d="m13825 17255c-38-42-82-129-120-240-15-44-38-91-51-106-28-29-31-49-8-49 12 0 15-6 9-22-4-13-9-60-12-104-5-80-5-82 21-99s30-17 109 3c114 29 249 82 244 96-5 13 2 14-134-24-57-16-128-33-155-36l-51-7 7 74c10 115 30 176 74 228 97 114 177 276 152 306-20 25-50 17-85-20zm32-69c-29-63-86-150-94-142-8 7 53 134 84 174 35 47 40 33 10-32z"/><path d="m13013 17029c-39-11-63-46-38-55 8-4 21-2 28 3 54 43 217-7 217-66 0-40-91-99-235-150-50-18-98-42-108-54-16-19-17-22-2-36 13-13 52-17 245-19 147-3 230 0 230 6 0 13-40 19-225 33-88 6-161 12-163 14-1 1 19 10 45 20 210 78 293 162 234 237-42 53-159 87-228 67z"/><path d="m11275 16641c-69-43-164-172-186-254-12-46 8-87 43-87 28 0 96 33 128 62 58 53 59 53 53 10-7-49 18-105 53-121 62-28 183-3 228 48 27 30 14 36-32 12-75-38-168-37-194 3-23 33 3 161 34 169 18 5 19 11 13 49-15 99-35 128-87 128-13 0-36-9-53-19zm88-58c8-27 5-37-22-76-49-71-156-157-197-157-50 0 50 178 140 248 40 31 68 25 79-15z"/><path d="m12075 16583c-16-1-54-6-82-9-37-4-53-10-53-20 0-8 6-17 14-20 14-5 205 19 321 41l70 13-120-1c-66 0-133-2-150-4z"/><path d="m14005 16519c-77-4-378-10-670-14-295-4-534-12-540-17-28-26 33-29 470-24 441 5 1078 23 1103 31 6 2 12 12 12 21 0 17-43 18-375 3z"/><path d="m12398 16493c7-3 16-2 19 1 4 3-2 6-13 5-11 0-14-3-6-6z"/><path d="m12318 16485c-2-3-69-7-149-10-79-4-154-8-166-11-27-5-31-33-5-35 81-6 254 17 342 45 42 13 43 14 14 15-17 1-33-1-36-4z"/><path d="m13143 16198c-12-46-28-100-37-120-14-33-21-38-49-38-56 0-107-12-107-25 0-17 32-24 80-18 23 3 40 1 40-4s-9-36-20-68c-39-113-20-144 65-106 53 23 105 59 105 71 0 4-29-1-65-13-35-11-67-18-71-15-11 12 36 137 54 142 9 3 52 8 95 12 42 3 80 10 83 15 6 10-19 12-114 12-45-1-62 3-59 11 21 55 57 182 57 202 0 17-6 24-18 24-15 0-23-17-39-82z"/><path d="m13887 16228c-11-28-32-83-76-203-6-15-24-22-86-31-80-13-107-26-89-44 7-7 28-7 63 0 98 18 99 18 90-42-12-85-10-107 11-128 16-16 24-18 50-9 31 11 90 74 90 96 0 7-21-3-46-22-70-54-76-49-64 49 5 38 14 73 22 77 7 5 39 9 71 9 43 0 57 4 57 15 0 10-16 15-65 17l-65 3 40 115c45 131 45 130 25 130-8 0-21-15-28-32z"/><path d="m13446 15888c-3-18-8-69-11-113s-8-95-11-112c-10-52 11-38 29 20 21 66 39 194 32 219-10 30-34 21-39-14z"/><path d="m14155 15859c-11-17 3-23 70-27 36-2 65-8 65-12 0-24-19-45-86-95-76-58-88-77-55-94 30-16 269 32 295 60 11 11-72 8-179-8l-40-6 53 56c58 62 66 96 30 121-26 18-143 22-153 5z"/><path d="m6452 17190c-55-34-115-142-175-312-4-10-11-18-16-18-6 0-10-19-10-42 0-24-6-72-15-108-47-196 1-220 238-118 122 52 144 63 135 73-6 5-142-32-242-66-88-29-97-27-97 24 0 23 9 77 19 121 16 67 25 85 64 125 84 87 187 248 187 291 0 21-25 50-43 50-7 0-27-9-45-20zm17-92c-24-49-120-180-127-173-9 9 78 172 109 204 40 40 48 28 18-31z"/><path d="m16338 16999c-34-19-18-29 47-29 70 0 121-16 144-44 26-31-19-97-130-192-147-126-163-154-113-193 23-18 41-21 134-21 100 0 170 12 170 30 0 7-120 20-199 20-89 0-87 9 41 132 113 109 148 157 148 207 0 31-45 76-88 89-48 15-131 15-154 1z"/><path d="m17332 16990c-18-11-41-34-50-50s-22-30-29-30c-33 0-80-178-68-253 23-134 176-110 244 38 71 152 47 315-46 315-10 0-33-9-51-20zm88-66c34-102-43-289-127-310-56-14-78 28-67 126l7 65 16-45 16-45 5 60c10 102 61 185 114 185 19 0 27-8 36-36z"/><path d="m17735 16976c-23-17-16-21 53-29 51-6 72-21 72-52 0-26-59-88-101-105-30-13-39-38-16-44 102-30 180-83 175-119-6-40-54-60-270-111-46-11-31-26 25-26 58 0 179 30 236 60 35 17 61 54 61 85 0 23-65 90-112 115l-43 22 37 39c43 45 55 80 40 114-22 49-118 80-157 51z"/><path d="m3019 16897c-9-7-24-28-35-47-18-33-19-65-19-665-1-543-3-643-17-726-31-179-48-236-79-275-32-41-35-77-6-82 11-2 23 8 35 27 9 17 22 31 29 31 19 0 60-100 77-189 26-138 39-361 32-551-13-314-42-525-120-870-9-36-15-82-16-102 0-31 4-38 20-38 12 0 26 12 36 33 17 32 17 32-5 13-21-19-21-19-15 15 3 19 13 63 21 99 46 212 73 362 95 545 20 170 17 692-5 820-22 125-52 209-88 244l-28 28 19 74c52 199 64 501 51 1269-3 206-2 240 14 278 20 48 55 60 55 18 0-13 3-31 6-40 12-30 24-16 24 27 0 64-40 95-81 64z"/><path d="m3836 16838c-3-18-23-86-43-150l-36-118h-78c-43 0-81-5-84-10-8-14 9-19 78-24 32-2 61-7 64-9 3-3-4-34-16-69-31-96-37-146-17-154 9-3 26-4 39 0 30 7 97 70 97 90 0 13-9 10-47-14-27-16-49-25-51-20s6 45 18 89l22 81h60c68 0 70 14 3 24-49 8-49 8-36 51 5 17 23 75 40 130 36 117 38 135 12 135-13 0-20-10-25-32z"/><path d="m4566 16862c-2-4-14-46-26-92-39-155-82-305-91-314-5-5-41-12-81-15s-73-10-73-16c0-5 33-11 73-13 39-2 72-4 72-6 0-1-11-40-25-86-30-99-29-94-9-114 23-24 100 0 152 47 36 33 25 38-30 12-61-29-88-31-88-9 0 9 10 49 21 89l22 73 69 7c119 12 133 23 32 24l-91 1 19 68c26 93 78 313 78 335 0 17-15 23-24 9z"/><path d="m21122 16763c-11-16-43-74-71-131-127-252-201-464-201-577 0-87 15-107 23-31 9 93 124 391 238 619 55 109 65 147 40 147-5 0-18-12-29-27z"/><path d="m16896 16742c-2-4-1-14 3-21 11-18 45-10 49 12 3 12-3 17-22 17-14 0-27-4-30-8z"/><path d="m21400 16700c-23-23-26-53-7-68 17-15 39 1 35 24-2 13 3 19 17 19 13 0 21-8 23-24 6-40-6-68-58-132-55-68-56-72-37-87 17-14 210-18 214-5 6 16-54 33-113 33-56 0-66 8-37 31 9 8 29 34 45 58 36 58 38 112 3 146-29 30-58 32-85 5z"/><path d="m9583 16628c-43-21-39-69 9-100 13-8 66-32 118-52 103-41 190-85 190-96 0-14-25-28-105-59-85-34-155-75-155-91 0-20 274 93 299 124 33 40-41 95-226 166-45 17-92 39-104 48-21 18-21 18 5 32 51 27 22 53-31 28z"/><path d="m17526 16579c-10-23-20-71-23-105l-6-64h-46c-81 0-420-20-603-35-97-8-210-15-251-15-84 0-107-6-107-26 0-19 90-18 353 1s551 33 862 41c138 4 259 10 270 15 15 6 9 8-25 9-25 1-52 3-60 4-8 2-93 3-187 4-201 2-189-8-148 119 30 94 30 93 6 93-13 0-24-13-35-41z"/><path d="m5362 16600c-35-4-68-12-74-18-22-22 2-28 79-19 43 4 131 7 196 4 80-3 117-1 114 6-2 6-17 15-33 19-40 12-205 17-282 8z"/><path d="m19761 16577c-36-13-61-41-48-53 4-5 22-2 40 4 19 7 52 12 75 12 56 0 55-21 0-60-87-60-85-58-65-74 9-7 45-19 78-25 74-15 109-30 109-47 0-26-194-67-202-42-5 15-28 1-28-17 0-39 106-43 202-9 124 43 96 126-54 158l-28 6 40 36c45 40 51 71 20 99-24 22-95 29-139 12z"/><path d="m20578 16573c-9-10-23-34-31-54-18-44-101-127-135-136-34-8-43 11-40 82 2 48 0 60-13 63-18 3-29-34-29-102 0-56 22-86 64-86 34 0 65 18 127 78 23 21 39 30 43 23 12-18 61-12 110 14 25 13 46 23 46 22s-9-36-20-77c-22-82-25-137-10-160 9-13 10-13 10 1 0 8 22 87 49 174 53 173 52 205-4 140-39-44-102-85-131-85-28 0-31 18-8 61 24 48 4 78-28 42z"/><path d="m15590 16548c-92-9-116-21-87-43 10-7 26-11 35-8 9 2 80 7 157 11 139 7 140 7 114 25-32 22-104 27-219 15z"/><path d="m19062 16536c-71-18-141-63-164-107-13-26-18-60-19-129-2-91-1-94 27-118 96-83 377 88 392 239 4 46 2 51-31 83-51 48-104 56-205 32zm152-36c14-5 32-20 41-34 14-22 15-31 5-62-39-118-290-248-331-173-13 25-7 84 17 171 15 53 19 58 63 76 25 11 55 22 66 25 36 9 113 7 139-3z"/><path d="m6827 16514c-1-1-78-4-172-8-338-13-641-36-665-51s5-27 54-21c96 10 361 25 626 36 350 14 415 19 401 33-8 8-234 18-244 11z"/><path d="m9085 16510c-17-28 16-35 161-34 180 2 261 11 245 27-17 17-396 23-406 7z"/><path d="m18424 16477c-13-35 5-40 110-33 97 6 138 18 100 29-11 3-61 9-111 12-79 6-94 5-99-8z"/><path d="m5600 16474c-67-5-242-25-262-30-10-3-18-12-18-20 0-18 28-18 161 1 120 16 177 23 202 24 9 1 17 8 17 16 0 10-9 14-27 13-16-1-48-3-73-4z"/><path d="m9470 16428c-211-12-283-21-288-37-4-12 13-13 104-8 106 6 314 34 323 43s-8 9-139 2z"/><path d="m21160 16389c-62-63-93-164-61-203 25-30 125-12 173 31 37 33 12 44-38 18-33-17-104-20-104-5 0 20 31 84 56 117 21 28 28 32 40 22 22-18 39 3 25 30-17 30-54 26-91-10z"/><path d="m15563 16374c-21-9-15-31 10-38 38-10 257-7 257 4 0 6-3 10-7 10-5 0-35 4-68 9-88 14-178 21-192 15z"/><path d="m4803 16360c-13-5-23-16-23-25 0-13 9-14 54-9 94 11 84-22-41-141-60-57-73-76-73-101 0-32 18-47 72-58 36-8 157 10 208 30 47 19 57 50 13 40-16-3-66-11-111-17-85-11-132-7-132 11 0 6 33 45 74 88 102 107 114 134 76 172-21 21-77 26-117 10z"/><path d="m6213 16341c-144-104-263-433-208-576 9-25 28-53 41-61 22-15 26-15 56 3 17 10 34 25 36 33 4 12 1 11-15-2-91-81-126 118-54 311 41 111 112 224 167 264 43 32 57 57 31 57-8 0-32-13-54-29z"/><path d="m18425 16330c-3-5-3-15 1-21 9-15 208-5 284 15 54 14 52 14-112 15-102 1-169-3-173-9z"/><path d="m4006 16303c-17-54-36-262-27-287 17-42 31-30 31 25 0 29 7 96 16 151 8 55 13 106 10 114-7 19-24 18-30-3z"/><path d="m19355 16289c-13-19-110-327-103-323 29 18 138 267 138 314 0 21-24 27-35 9z"/><path d="m6757 16248c-89-120-216-465-217-590 0-65 18-50 35 30 29 131 104 341 165 464 58 114 66 162 17 96z"/><path d="m7000 16250c0-5 19-22 43-39 124-86 188-206 188-356 1-165-88-318-220-378-43-19-44-21-19-25 36-4 114 37 159 85 130 137 161 347 79 528-22 49-90 128-144 167-38 27-86 38-86 18z"/><path d="m17296 16197c-38-12-67-40-54-53 4-3 21-1 39 5 46 16 118 14 125-3 12-32-45-100-159-191-50-40-67-76-47-100s153-20 236 8l69 22-124 5-125 5 69 60c91 80 125 128 125 176 0 68-60 94-154 66z"/><path d="m6357 16171c-57-37-109-107-131-179-20-61-15-96 14-112 30-16 82 11 156 82 56 54 65 59 59 36-4-15-8-61-8-102-2-65 1-78 20-97 12-13 28-19 37-16 20 8 21 27 2 27-32 0-31 123 1 243 21 75 7 93-34 46-116-136-194-202-215-181-29 29 38 164 104 212 60 44 84 47 135 20 55-29 68-18 25 21-45 40-101 40-165 0z"/><path d="m16644 16124c-96-68-124-93-124-111 0-25 26-13 98 43 40 30 72 53 72 51s-11-29-24-58c-35-80-52-165-37-183 20-24 36-8 38 39 1 27 16 77 39 127 37 84 48 138 28 145-6 2-47-22-90-53z"/><path d="m16910 16017c0-18 24-29 45-20 23 8 12 28-18 31-18 2-27-1-27-11z"/><path d="m6797 15993c-16-16-5-33 21-33 72-1 66-38-18-111-66-58-88-96-71-128 16-28 56-36 110-22 51 13 132 59 139 79 4 14-29 17-43 3-27-24-165-53-165-35 0 4 32 40 70 80 60 63 70 79 70 110s-4 37-35 50c-37 15-68 18-78 7z"/><path d="m6958 14799c-26-15-81-121-129-249-23-63-46-119-49-123-4-4-15 23-24 60-39 155-77 263-91 263-17 0-19-27-6-63 5-14 26-87 46-163 20-79 44-147 54-157 17-17 18-17 38 0 12 10 33 52 48 93 56 155 108 271 136 301 38 41 23 65-23 38z"/><path d="m3950 14444c-6-14-10-30-10-36s-27-93-61-194c-66-199-60-190-139-196-50-4-39-22 16-26 44-3 46-4 40-30-18-80-18-118-1-135 9-9 25-17 36-17 28 0 90 33 118 63 31 35 24 55-11 28-32-26-106-53-112-42-3 4 2 37 10 73 14 61 17 66 46 72 17 3 48 6 69 6 65 0 44 19-24 22l-64 3 58 175c55 165 73 260 49 260-6 0-15-12-20-26z"/><path d="m5305 14460c-4-6-15-48-26-93-10-45-28-119-40-163l-21-82-59-4c-56-4-91-20-76-34 4-4 33-6 66-5l58 2-18-78c-23-97-25-161-4-169 22-9 60 20 100 74 52 70 42 83-18 24-29-29-55-52-58-52-7 0 18 151 31 184 9 24 43 36 101 36 16 0 29 5 29 10 0 6-25 10-55 10-63 0-65 3-40 86 30 104 57 246 47 256-6 6-12 6-17-2z"/><path d="m7043 14389c-66-12-109-37-129-74-22-41-10-60 16-25l20 25v-28c1-120 121-176 241-111 36 20 54 38 70 71 21 43 21 47 5 80-26 55-123 82-223 62zm157-47c26-12 36-25 38-46 8-68-116-134-193-102-37 16-50 34-60 89-4 20-12 37-19 38-6 0 7 9 29 20 53 25 157 25 205 1z"/><path d="m5853 14253c-7-2-13-11-13-19 0-11 16-14 68-15 37 0 76-2 87-4 11-1 54-5 95-8l75-6-42 20c-60 27-232 48-270 32z"/><path d="m4637 14213c-3-4-8-36-12-70-4-36-12-63-18-63-7-1-38-2-69-3s-59-5-63-9c-17-17 11-28 71-28h64l1-97c1-108 9-100 29 26l12 73 74-4c41-2 74 0 74 4 0 9-63 27-105 30-30 3-30 3-30 72 0 43-4 71-12 73-6 2-13 0-16-4z"/><path d="m6665 14113c-48-10-51-14-30-29 17-13 75-14 370-13 413 3 475 6 475 23 0 10-43 15-167 19-180 8-616 7-648 0z"/><path d="m5950 14083c-79-5-110-13-110-28 0-18 26-18 198-2 68 7 122 16 122 22 0 10-113 14-210 8z"/><path d="m6683 13974c-92-96-156-279-156-449 0-120 28-171 106-190 37-10 34 7-6 25-47 22-59 58-59 164 2 166 70 356 158 441 24 23 41 45 37 48-15 16-39 4-80-39z"/><path d="m4277 13963c-7-12-35-200-41-273-4-61-4-63 9-35 20 43 57 208 58 262 2 42-13 68-26 46z"/><path d="m7203 13913c-47-74-130-250-178-378-46-122-56-200-28-234 19-23 19-23 19 31 1 86 136 420 231 571 23 37 25 67 3 67-6 0-27-26-47-57z"/><path d="m7505 13960c-3-5 14-46 39-92 109-203 118-389 26-517-33-44-75-71-115-71-14 0-25-4-25-10 0-15 77-12 109 5 43 22 98 92 122 154 50 131-4 388-106 510-28 32-40 38-50 21z"/><path d="m5425 13920c-3-6 7-18 24-28 42-23 41-60-1-104-18-18-44-41-58-50-21-13-23-19-14-35 24-40 187-22 226 24 12 15 10 16-14 10-15-4-56-10-90-14l-62-6 36 43c59 68 62 127 8 155-34 18-47 19-55 5z"/><path d="m6853 13887c-52-29-120-167-130-263-10-93 48-113 121-40l44 43 5-39c6-41 31-78 54-78 16 0 16 0-1 36-10 21-14 68-14 166 1 112-2 142-16 163-18 28-30 30-63 12zm37-99c0-51-6-73-30-114-30-54-76-98-91-88-35 21 63 264 106 264 12 0 15-14 15-62z"/><path d="m7271 13701c-14-4-26-12-29-19-3-9 15-12 62-12 48 0 68-4 72-14 10-25-23-72-96-138-79-71-84-93-22-105 91-17 204 7 262 56 43 36 33 51-18 26-53-26-130-45-181-45h-44l55 58c88 92 106 139 68 180-21 23-76 28-129 13z"/><path d="m8910 12948c0-7 21-35 46-63 111-122 189-273 220-425 54-269-61-541-250-592-58-15-61-33-4-24 132 21 228 120 289 296 29 85 32 271 5 370-41 152-106 267-215 382-60 65-91 83-91 56z"/><path d="m6779 12783c-54-86-107-295-124-493-14-155 28-317 96-375 46-38 53-21 14 31-64 83-86 224-65 404 15 133 61 314 100 397 16 36 30 69 30 74 0 22-23 5-51-38z"/><path d="m5915 12752c-59-37-99-105-115-194-15-79 3-132 46-136 39-4 66 18 104 88l30 55v-88c0-85 10-127 30-127 6 0 10 53 10 130 0 99 3 129 13 128 8-2 12 14 12 54 0 44-5 63-20 78-30 29-74 34-110 12zm70-58c-8-9-15-23-15-31 0-23-65-154-90-181-28-30-40-20-40 33 0 111 86 233 143 203 16-8 16-11 2-24z"/><path d="m7196 12709c-13-21-100-218-119-271-5-13-17-18-47-18-29 0-40-4-40-15s11-15 36-15c29 0 34-3 30-17-44-143-48-238-13-279 20-22 29-26 53-20 53 14 134 120 109 144-4 4-15-4-23-18-30-45-74-81-96-78-35 5-33 87 5 231 9 36 11 37 57 38 26 1 58 4 72 9l25 7-25 6c-14 4-44 8-66 9l-41 3 59 143c41 97 57 147 50 154s-15 3-26-13z"/><path d="m8476 12708c-9-13-34-78-57-143-22-66-45-125-50-131-6-8-28-10-59-7-49 5-95-10-85-28 4-5 35-9 71-9 35 0 64-3 64-7-1-5-7-35-15-68-27-113-16-189 30-201 49-12 115 33 115 80 0 16-2 16-20-7-24-30-66-43-87-25-17 14-14 79 7 176 12 52 12 52 51 53 21 1 44 3 49 4 6 1 27 3 47 4 55 2 35 10-43 17-38 4-71 8-73 10-3 2 17 68 43 145 31 93 44 145 38 151-7 7-16 2-26-14z"/><path d="m4097 12663c-44-44-90-130-133-242l-31-84-17 94c-34 190-36 195-76 189-24-3-24-8-7-42 9-18 27-95 42-172 27-146 37-176 59-176 21 0 33 20 50 87 35 136 131 321 181 347 11 6 22 12 25 14 7 5-24 22-41 22-9 0-33-17-52-37z"/><path d="m7821 12473c-5-21-13-51-16-68-13-60-16-65-40-65-34 0-55-10-55-27 0-12 8-13 39-8l38 6-4-68c-5-66 11-183 25-183 4 0 7 46 8 103 1 150 2 152 74 167 81 17 87 32 14 30-33-1-62-1-65-1-4 1 0 27 7 59 18 73 17 92-1 92-8 0-18-16-24-37z"/><path d="m10187 12463c-4-3-7-568-7-1255v-1248l2553 2 2552 3v1250 1250l-2546 3c-1400 1-2549-1-2552-5zm5051-1250 2-1203h-2505-2505v1198c0 659 3 1202 7 1205 3 4 1129 6 2502 5l2496-3z"/><path d="m12896 12282c-16-27-109-275-139-372-76-245-100-454-60-523 33-56 109-43 128 21 7 24 7 24-14 3-25-25-54-27-72-4-23 27-16 190 14 320 28 121 102 355 148 467 16 39 29 77 29 84 0 13-26 17-34 4z"/><path d="m14795 12198c-5-12 4-35 23-66 108-167 156-424 118-631-20-106-43-165-91-233-23-32-30-48-21-48 19 0 80 84 111 153 103 225 52 622-105 808-24 29-29 32-35 17z"/><path d="m14229 12083c-24-54-99-255-122-323-15-45-15-45-76-51-34-3-64-9-67-12-15-15 12-27 60-27h53l-17-79c-10-43-16-89-15-102s3-34 4-46c2-32 36-63 69-63 39 0 90 35 109 75 22 46 8 57-22 18-14-17-38-36-55-41-60-21-75 34-44 167l15 68 100 5c91 5 120 11 108 22-3 3-46 6-98 7l-93 3 6 27c3 14 34 106 71 202 36 97 65 181 65 187 0 5-7 10-15 10-9 0-25-20-36-47z"/><path d="m12361 12099c-30-28-62-103-95-224-30-108-45-128-118-161-21-9-38-21-38-26 0-19 32-19 70 0 36 17 40 18 36 3-3-9-10-57-17-107-14-111-4-155 41-174 46-19 141 11 184 59 29 32 16 33-50 6-117-49-151-30-139 78 13 124 33 187 74 236 21 25 49 66 61 91 44 87 64 202 38 228-16 16-21 15-47-9zm19-91c-13-55-67-168-80-168-11 0 32 135 59 188 12 24 25 41 28 39 3-3 0-30-7-59z"/><path d="m13107 11993c-14-36-47-144-81-265-15-52-19-57-48-60-43-4-50-28-8-28 32 0 33 0 26-40-3-22-9-73-12-113-6-62-4-75 13-96 16-19 25-22 51-16 38 8 72 48 72 84 0 26 0 26-26-6-14-19-35-33-46-33-20 0-21 4-15 89 9 115 18 141 54 141 38 0 73 10 73 21 0 5-23 9-51 9-43 0-50 2-45 18 3 9 12 46 21 82s27 101 41 144c24 76 25 106 5 106-5 0-16-17-24-37z"/><path d="m13677 11894c-4-4-7-49-7-99v-92l-72-7c-75-7-100-18-82-36 7-7 35-8 82-2 81 9 81 9 82-83 0-64 16-42 19 27 1 29 4 55 7 59 2 4 25 11 50 15 51 7 42 24-13 24h-32l-3 97c-3 89-12 116-31 97z"/><path d="m13280 11585c-7-8-14-59-17-118-5-84-3-109 11-135 9-18 18-32 20-32s3 35 4 78c0 42 4 107 7 143 7 68-2 92-25 64z"/><path d="m14497 11559c-28-17-10-29 44-29 69 0 64-20-20-76-73-48-85-62-71-84 18-29 207 2 268 45 37 27 15 35-41 16-29-10-78-22-108-26l-54-7 47 36c55 42 72 68 63 97-11 34-88 51-128 28z"/><path d="m10473 11534c-4-10 0-22 11-29 26-19 62-118 106-295 46-182 53-200 79-200 34 0 50 38 141 328 50 161 53 186 23 190-20 3-25-6-48-85-15-48-45-146-68-218l-41-130-14 50c-82 309-117 397-160 403-14 2-25-3-29-14z"/><path d="m11446 11232c-19-31 6-35 178-28 93 4 172 9 175 11 12 12-19 16-176 22-123 4-172 3-177-5z"/><path d="m12170 11168c0-13 125-16 1048-22 576-4 1130-9 1232-10 191-1 443 9 540 22 31 4-93 7-285 8-187 0-834 4-1437 9-974 7-1098 7-1098-7z"/><path d="m11497 11056c-31-7-63-18-69-24-22-22 21-25 130-9 59 9 135 19 170 23 34 4 62 11 62 15 0 13-226 9-293-5z"/><path d="m10969 11017c-62-28-105-108-89-165 36-127 172-151 245-45 33 50 35 128 3 168-38 49-106 67-159 42zm120-63c38-49 19-129-39-159-42-22-58-19-96 19-47 47-45 66 6 59 26-4 40-2 40 6 0 6-8 11-18 11-30 0-42 19-31 49 13 34 26 41 76 41 33 0 46-5 62-26z"/><path d="m13636 10948c-2-13-14-75-26-138s-26-119-31-125c-6-6-34-5-76 3-45 7-71 8-78 1-14-14 9-26 82-39 35-7 63-13 63-14 0 0-16-50-35-111-53-167-54-185-9-199 26-8 80 27 111 73 39 58 26 67-27 17-27-25-54-46-60-46-13 0-7 34 20 120 10 30 23 74 29 97l12 42 99-6c68-4 100-3 100 5 0 10-18 14-125 28-27 4-53 8-56 10s2 35 12 74c23 88 29 221 12 227-7 3-14-6-17-19z"/><path d="m12805 10938c-4-12-61-193-72-230-3-11-21-19-54-23-62-9-69-35-9-35 22 0 40-1 40-2 0-2-9-37-20-78-25-96-25-121 1-155 18-22 27-26 53-21 61 13 126 103 125 176 0 35 0 35-25-17-26-54-87-117-107-110-7 2-13 14-15 26-4 24 23 147 37 169 4 6 43 16 86 22 132 18 137 18 143 24 5 6-123 10-180 6-16-1-28 1-28 5s16 58 35 122c19 63 32 119 29 124-8 13-34 11-39-3z"/><path d="m13091 10584c-32-72-57-284-33-284 5 0 17 46 26 102 10 56 24 119 32 141s14 46 14 53c0 24-26 15-39-12z"/><path d="m13998 10502c-27-5-22-32 6-32 71 0 63-70-15-128-52-39-71-78-48-93 20-12 289-12 289 1 0 5-10 12-22 15-90 20-119 25-163 25h-49l36 38c44 46 58 72 58 110 0 43-45 74-92 64z"/><path d="m4837 12434c-20-20 8-24 176-23 177 0 256 9 194 21-44 8-362 10-370 2z"/><path d="m5955 12273c-167-15-179-18-169-34 9-16 243-4 382 19 194 33 68 41-213 15z"/><path d="m4203 12245c-32-32-34-39-29-73 4-20 7-52 6-71-1-88 47-139 113-120 89 25 147 170 100 249-21 36-52 50-109 50-39 0-51-5-81-35zm145-21c17-12 22-25 22-60 0-73-50-144-102-144-40 0-55 35-41 96 10 42 9 47-8 51-25 7-24 19 6 48 29 29 88 34 123 9z"/><path d="m4870 12267c0-9 10-19 22-23 21-6 369 4 377 12 14 14-32 19-205 22-170 4-194 2-194-11z"/><path d="m8695 12269c-9-13-7-14 30-26 61-19 40-83-42-135-109-66-21-139 148-122 131 13 119 39-22 47-114 6-135 16-94 43s85 93 85 126c0 52-82 105-105 67z"/><path d="m7432 12248c-21-26-43-139-40-211l3-72 33 130c18 72 34 136 35 144 3 19-18 25-31 9z"/><path d="m5890 12067c-57-20-36-32 54-32 46 0 87-3 91-7 13-13-36-77-112-147-58-54-74-74-71-93 3-21 9-23 63-26 81-3 296 20 295 33 0 12-167 26-233 20l-49-5 62 68c34 37 68 80 76 95 21 40 14 79-16 94-31 16-114 16-160 0z"/><path d="m17541 12033c-112-130-202-408-202-625 0-97 24-156 76-184 43-23 60-9 21 19-41 30-56 74-56 167 0 192 88 462 196 601 24 31 40 59 37 63-15 14-34 3-72-41z"/><path d="m18610 11961c0-5 24-34 53-63 68-68 97-140 104-258 8-147-34-286-115-381-64-74 16-69-1052-69-528 0-960 2-960 4s16 42 35 87c20 46 39 102 42 126 5 38 4 43-14 43-15 0-22-9-27-30-3-17-20-75-36-130l-31-99-254-3c-139-2-257-6-261-11-29-29 28-30 1233-29 1405 1 1553 4 1553 38 0 11-22 14-114 14h-114l27 29c40 42 98 158 118 232 25 98 22 249-7 324-27 71-66 128-111 161-33 24-69 32-69 15z"/><path d="m16474 11831c-17-10-42-34-55-53-13-18-32-39-42-47-56-41-87-199-51-261 47-78 153-79 223-1 60 67 97 217 72 293-24 73-91 104-147 69zm91-51c60-66-1-278-91-316-48-20-62-18-95 15-23 24-29 38-28 73 0 24 7 59 14 78l13 35 1-37c1-51 21-60 21-9 0 52 15 91 36 91 11 0 14 5 10 17-9 24 41 73 74 73 15 0 35-9 45-20z"/><path d="m16873 11801c-32-20-49-53-38-72 5-7 14-4 29 9 49 45 93 53 119 24s20-53-24-98c-46-47-47-67-2-86 99-40 153-69 153-81 0-7-10-23-22-34-31-28-124-84-146-87-22-4-22-26 0-39 13-8 33-1 95 35 72 42 123 93 123 123 0 28-43 64-107 91-38 15-70 29-72 31-3 2 9 18 26 36 39 42 46 63 33 103-21 62-102 84-167 45z"/><path d="m18047 11738c-3-13-9-53-12-89l-7-67-49-6c-63-9-79-15-79-32 0-16 5-16 73-14l47 1v-63c0-35 5-70 10-78 8-12 10-10 10 9 0 14 5 51 12 83 10 50 16 59 38 64 14 3 34 9 45 14 18 8 17 9-7 9-55 2-57 5-51 102 5 76 4 89-9 89-9 0-18-10-21-22z"/><path d="m17754 11716c-47-40-100-113-90-124 4-4 30 18 57 48 26 30 49 50 49 44 0-7-16-44-35-83-52-105-77-231-46-231 4 0 14 30 24 68 10 37 38 109 62 161 45 94 57 151 32 151-7 0-31-15-53-34z"/><path d="m18357 11703c-37-10-9-24 51-27 48-2 68-7 83-23 29-29 16-49-76-112-70-49-76-55-73-84 4-42 39-58 131-60 130-2 227 26 110 32-26 1-77 6-113 11s-68 10-72 10c-21 0-2 23 52 61 104 73 125 138 57 179-31 19-103 25-150 13z"/><path d="m21466 11448c-3-7-10-31-16-53-27-88-120-195-171-195-10 0-24 12-31 26-18 36-32 35-36-1-3-39 7-53 46-64 45-13 105 21 162 91 42 53 45 55 55 34 14-29 49-32 75-6 20 20 20 20 14-73-5-66-3-100 6-116 17-32 27-14 35 63 3 34 13 109 22 167 23 149 5 183-43 87-28-56-52-88-65-88-4 0-9 30-11 67-2 55-6 68-21 71-9 2-19-2-21-10z"/><path d="m20815 11381c-51-23-90-95-74-139 5-12 25-29 46-38 125-53 138-67 107-121-27-47-89-92-138-100-38-6-39-5-34 21 6 32-14 45-37 26-16-13-20-57-7-77 4-6 20-15 35-18 90-23 247 101 247 195 0 33-51 79-115 103-66 26-73 43-32 83 20 20 36 22 155 27 127 4 170 14 141 33-19 11-270 16-294 5z"/><path d="m19960 11363c-95-32-135-70-160-150-11-36-20-83-20-105 0-80 50-138 117-138 70 0 183 85 232 173 29 52 29 135 0 171-37 47-111 69-169 49zm109-48c33-16 41-33 41-81 0-123-198-268-265-194-25 28-33 108-11 116 13 5 15 14 10 38-15 84 138 166 225 121z"/><path d="m20407 11348c-30-47-80-223-81-282-1-83 13-90 102-45l70 34-2-89c-2-129 17-124 38 11 12 76 23 114 36 128 24 25 26 42 5 47-12 2-11 10 6 47 14 32 17 47 9 55-17 16-57-38-70-94-10-44-15-48-76-78-35-18-67-32-70-32-13 0 9 97 42 189 19 53 36 103 37 111 3 24-31 23-46-2z"/><path d="m19360 11279c-132-10-170-19-170-43 0-21 34-29 88-22 135 19 273 49 269 60-5 15-37 15-187 5z"/><path d="m15655 11216c-133-12-153-19-133-43 10-12 27-14 83-10 88 8 255 46 255 58 0 11-46 10-205-5z"/><path d="m19371 11114c-142-15-151-18-151-39 0-18 28-19 120-5 131 21 170 31 170 46 0 8-3 13-7 13-5-1-64-7-132-15z"/><path d="m15735 11100c-122-22-151-33-160-59-11-35 4-43 38-23 18 11 94 35 170 53 75 18 137 37 137 41 0 13-77 8-185-12z"/><path d="m21640 11037c-3-3-66-7-140-10-133-5-190-16-190-37 0-22 38-23 204-6 202 20 228 25 223 40-3 10-87 22-97 13z"/><path d="m20169 10968c-1-2-7-35-13-75-11-67-7-113 11-113 12 0 45 147 38 170-5 16-31 29-36 18z"/><path d="m17536 10861c-27-29-12-40 47-34 97 9 137-29 101-98-9-19-59-74-109-124-111-108-122-125-100-159 27-41 151-46 310-12l60 13-55 6c-30 4-102 9-160 12-57 3-106 8-109 10-2 3 40 49 94 102 92 92 134 153 135 196 0 34-31 79-65 93-51 21-128 18-149-5z"/><path d="m16731 10715c-93-81-109-101-93-117 7-7 26 4 57 33 42 38 47 41 40 19-26-82-32-158-15-191 18-32 26-22 26 34 0 58 34 170 70 234 50 88 23 84-85-12z"/><path d="m21444 10740c-100-22-192-175-161-267 25-75 98-97 238-69 84 17 209 67 230 92 17 21-3 18-82-11-81-29-222-50-272-41-20 4-43 14-52 22-21 22-19 80 6 131 36 74 118 125 144 89 18-23 35-20 35 8 0 38-35 57-86 46z"/><path d="m17042 10628c2-17 10-23 28-23s26 6 28 23c3 19-1 22-28 22s-31-3-28-22z"/></g><g fill="#44b" transform="matrix(.054411653 0 0 -.054411653 1900.03445653537 1649.60260091264)"><path d="m750 2973c-57-10-88-25-119-57-40-41-55-100-46-179 6-45 12-61 32-77 32-25 35-25 64-1 22 17 24 26 21 89-4 105 24 120 164 87 33-7 119-19 190-25 88-8 134-16 144-26 32-32 8-420-28-456-18-18-126-28-289-28-185 0-206-4-250-52-55-58-58-82-55-363 1-145 7-274 13-293 11-34 51-62 89-62 12 0 35 14 52 31l31 30-6 238c-3 130-3 249 0 264l5 27h112c234 1 363 26 423 82 58 54 98 260 91 463-4 122-7 138-34 191-40 81-79 100-217 108-174 10-361 14-387 9z"/><path d="m3660 2971c-42-9-83-34-103-65-39-59-50-127-54-343-5-206-5-212 18-252 28-50 78-86 143-102 48-12 257-8 370 7l49 7-7-104c-4-57-11-189-16-294-9-177-9-192 8-214 35-47 100-46 136 2 22 29 27 86 42 452 7 191 0 235-44 283-45 48-92 56-241 38-146-18-229-20-265-6l-26 10v162c0 156 8 230 27 249 5 5 99 6 210 2l201-6 5-50c3-39 11-56 31-74 34-29 48-29 80 0 24 20 26 30 28 113 4 147-23 169-218 179-242 11-340 13-374 6z"/><path d="m1565 2945c-14-13-25-32-25-42s-1-297-3-638c-2-677-3-662 55-694 33-19 73-7 101 31 18 24 20 51 29 300 5 150 10 278 12 283 2 6 37 8 97 3 52-3 135-7 186-7 154-2 161-10 143-176-21-189-27-310-18-343 12-45 45-72 86-72 71 0 102 46 102 151 0 33 7 118 16 187 24 190 9 280-58 349-50 52-112 67-263 65-71-1-164-6-205-11-41-4-78-7-81-5-4 2-10 108-13 236-9 286-17 352-47 384-31 33-82 32-114-1z"/><path d="m2542 2944c-55-38-64-109-53-419 6-186 9-215 28-250 50-95 116-125 302-135 75-4 171-5 215-1l78 7-4-178c-2-97-7-181-11-184-4-4-42 1-85 11-104 26-285 27-363 3-106-33-149-107-99-170 26-34 68-41 132-21 74 23 202 20 308-7 182-47 274 5 301 168 12 77 27 831 19 994-7 152-20 181-86 186-88 7-103-51-104-401v-219l-201 4c-197 3-201 3-220 27-18 21-19 42-19 283v260l-29 29c-33 33-74 38-109 13z"/><path d="m2374 1391c-55-34-79-78-79-147 0-51 4-66 27-96 35-45 102-73 153-64 78 15 146 111 131 188-20 108-145 172-232 119z"/><path d="m1853 999c-39-11-66-56-61-101 6-59 69-64 76-6 4 30 34 38 145 38h67v-110c0-135-1-136-132-126-85 6-89 6-113-18-24-25-25-28-25-179 0-162 4-177 47-177 35 0 43 29 43 159v121h73c85 0 141 14 168 41 17 17 19 34 19 169 0 147-1 152-25 175-23 24-30 25-137 24-62 0-128-5-145-10z"/><path d="m2985 1000c-91-16-93-18-104-58-15-51-14-537 0-564 19-36 69-48 204-48 121 0 127 1 151 25l24 24-2 292-3 292-26 19c-31 23-161 33-244 18zm169-86c14-5 16-37 16-250v-245l-102 3-103 3v240 240l40 6c57 9 131 10 149 3z"/><path d="m2351 971c-24-24-29-73-37-372-6-232-6-237 15-258 23-23 29-25 51-11 12 7 16 40 20 150l5 141 35-23c19-13 59-55 88-93 30-39 78-96 108-128 47-51 56-57 74-47 29 16 25 42-15 92-19 24-62 78-95 121-61 77-61 77-33 77 15 0 46 9 69 19 56 26 67 57 62 179-6 156-27 172-220 172-93 0-111-3-127-19zm257-74c16-13 17-168 0-185-7-7-41-12-84-12-40 0-84-4-98-10l-26-10v120 119l98-6c53-3 103-10 110-16z"/></g></svg>