<svg height="1114.123305pt" preserveAspectRatio="xMidYMid meet" viewBox="0 0 2032.861453 1114.123305" width="2032.861453pt" xmlns="http://www.w3.org/2000/svg"><g transform="matrix(.1 0 0 -.1 -11.247444 1124.626031)"><path d="m10358 11244c-10-3-18-14-18-24 0-20 9-23 115-35 72-8 139-32 164-59 21-22 22-26 8-53-8-16-58-69-111-119-82-77-96-94-96-122 0-53 39-66 195-66 170 0 225 9 225 35 0 17-8 19-87 20-95 0-240 13-249 22-3 3 35 45 84 94 103 102 122 140 98 197-17 40-58 70-128 91-52 15-173 27-200 19z"/><path d="m15193 11102c-22-26-44-58-48-72s-25-59-45-100c-84-169-111-291-65-298 12-2 30 7 42 20 24 26 85 167 105 243l13 50 6-60c11-101 10-843-2-1325-6-250-12-456-13-457-2-2-39 2-83 7-97 12-136 3-131-33 3-21 10-23 111-31l107-9 2-891c0-490 2-902 3-916s6-197 10-407l8-381-79-7c-43-3-90-7-104-8-19-2-25-8-25-27 0-25 1-25 103-28l102-3v-292c1-951 4-1315 16-1677 7-223 13-442 13-487l1-82-92-3c-92-3-93-3-93-28s2-25 96-30l96-5 2-85c2-47 6-141 10-210s9-285 10-480c1-291 4-358 16-369 12-12 16-12 31 0s16 49 10 454c-3 242-9 497-12 567l-6 126 48 7c27 3 56 7 64 8s15 9 15 17c0 11-18 17-65 23-35 4-65 9-66 10-3 4-13 354-19 622-3 143-8 287-10 320-5 69-7 1596-2 1601 2 2 59 10 126 18 68 8 125 17 129 20 14 15-19 21-131 25-67 1-123 4-123 5-7 7-16 645-20 1527l-6 1066 90 6c99 7 146 21 139 40-2 8-35 12-111 13-59 1-110 4-113 8-3 3 0 277 7 608 7 332 11 716 9 854l-4 250 27-42c37-60 83-100 133-119 83-32 128-1 51 36-117 55-196 214-196 396 0 32-5 45-19 53-27 14-23 16-68-38z"/><path d="m14435 11116c-9-13-20-52-26-87-24-150-29-170-54-210-15-23-30-37-34-33-17 18-29 74-41 180-16 150-17 154-40 154-28 0-32-26-20-131 23-214 49-269 120-259 8 1 23 9 33 17 16 15 17 10 17-88v-104l-48-27c-112-63-173-148-174-241-1-112 84-190 179-165 73 19 101 103 102 310l1 86 38 13c20 7 66 17 102 23 46 8 65 15 65 26 0 12-14 15-70 15-38 0-85-3-102-7l-33-7v157c0 86 5 173 10 192 28 96 40 182 29 196-17 21-37 17-54-10zm-48-749c-6-131-22-182-60-189-78-15-125 94-78 182 18 35 112 120 133 120 8 0 9-33 5-113z"/><path d="m10040 11116c-9-12-2-27 41-78 162-194 195-493 78-718-51-98-52-99-154-105-49-2-301-7-560-10-258-3-490-8-515-10s-106-7-182-10c-75-3-237-12-360-20-122-8-279-18-348-21l-126-7-19 44c-30 66-28 310 4 428 43 163 104 301 151 346 37 35 40 65 6 65-15 0-38-16-66-46-117-127-211-482-183-692 6-44 18-94 27-112s15-34 13-36c-1-1-96-5-210-8l-207-6v90 91l45 27c56 34 58 46 3 26-22-8-42-13-43-12-10 11-14 224-6 255 10 37 15 100 12 155-1 34-43 84-75 90-79 15-175-124-176-254 0-46 5-62 26-87 31-37 72-41 114-11l27 20 5-106 5-106-41-43c-108-111-144-282-86-412 36-81 104-81 140 0 11 24 24 76 30 117 20 132 9 119 103 118 45 0 150 1 233 2 137 2 154 0 185-19 44-27 69-27 69-1 0 11-5 20-12 20-6 0-9 2-6 5 6 6 333 29 708 50 368 21 1260 32 1260 17 0-18 58-44 83-37 12 4 38 17 57 30 33 22 84 28 263 35 4 0 7 9 7 20 0 19-7 20-95 20-93 0-109 6-81 29 18 15 63 117 82 184 24 90 29 251 10 337-33 143-117 296-190 343-31 21-31 21-46 3zm-2672-348c6-7 13-29 17-49 6-31 3-38-19-52-14-10-30-34-37-57-15-51-47-86-63-70-28 28 7 165 56 217 25 26 32 28 46 11zm-2-624c-5-17-13-24-31-24-32 0-31 6 2 55 26 37 28 38 31 16 2-12 1-34-2-47zm-29-64c20 0 23-5 23-42-1-70-32-188-50-188-16 0-31 60-32 122 0 84 10 134 25 119 6-6 21-11 34-11z"/><path d="m2701 11089c-85-26-106-63-99-178 3-53 11-91 26-119l21-40-25-23c-42-39-65-86-74-147-14-105 15-138 125-136 77 2 135 22 172 59 57 57 40 129-52 213l-52 48 46 52c25 29 52 52 59 52 20 0 42 63 42 119 0 72-27 101-100 106-30 2-70 0-89-6zm118-81c14-40-5-86-60-143-29-30-56-55-60-55-13 0-29 72-29 133 0 56 1 58 33 72 17 8 49 14 70 15 30 0 39-5 46-22zm-60-352c54-58 62-83 34-108-39-34-172-53-188-28-4 6-4 33 0 60 5 35 16 60 42 89 19 23 40 41 47 41s36-24 65-54z"/><path d="m556 11008c-8-13-27-62-42-110l-28-88h-57c-70 0-89-7-89-30s19-30 81-30c39 0 47-3 43-15-4-11-21-15-55-15-41 0-49-3-49-19 0-21 19-31 57-31 23 0 25-3 19-34-15-77 29-90 70-21 20 34 32 45 51 45 24 0 25 0 18-67-4-38-10-83-15-100-5-20-5-33 1-33 18 0 49 65 65 136l15 71 57 9c40 6 57 13 57 24 0 12-11 14-52 12-46-3-53-1-53 15 0 35 19 47 96 63 47 9 79 21 82 29 4 12-9 13-77 8-93-7-90-11-66 88 20 83 19 105-3 105-23 0-35-26-57-122-15-69-19-76-43-81-15-3-29-3-32-1-2 3 10 46 28 96 25 69 30 94 21 104-16 20-26 17-43-8zm44-260c0-28-18-39-52-36-32 3-35 5-27 26 6 17 16 22 44 22 21 0 35-5 35-12z"/><path d="m1303 10960c-178-121-228-169-182-178 8-1 60 32 117 74s105 74 108 72c2-3-23-47-57-98-82-124-159-279-162-325-4-71 21-49 82 72 32 66 86 162 119 214 84 133 105 177 98 205-4 13-13 24-21 24-7 0-53-27-102-60z"/><path d="m2154 11006c-41-19-80-70-95-128-11-41-11-52 4-82 32-68 99-86 195-52 25 9 42 11 42 5 0-36-89-161-136-190-32-20-39-20-74-9-69 23-97-8-32-35 83-35 145-15 223 73 117 133 132 297 34 392-27 26-44 34-82 37-28 2-61-3-79-11zm120-83c27-29 43-80 29-94-4-4-37-15-73-23-58-14-67-14-88 0-17 11-22 22-18 37 3 12 6 27 6 34 0 6 12 25 26 42 34 41 82 43 118 4z"/><path d="m1692 10973c-113-61-180-139-148-171 13-13 22-9 74 40 61 56 144 105 150 89 7-20-44-98-100-154-75-76-74-90 12-97 76-6 111-26 136-78 15-32 15-39 3-62-30-54-158-90-203-57-17 12-17 14-2 20 26 10 19 27-12 27-56 0-70-50-26-91 23-21 35-24 102-23 141 1 227 75 208 177-8 44-70 115-117 136l-38 16 45 65c52 76 65 127 40 165-22 33-59 33-124-2z"/><path d="m9838 10834c-4-3-48-7-100-9-116-4-182-13-204-30-37-27-5-33 130-28l134 6-28-59c-39-83-70-180-77-240-5-46-3-52 22-72 29-23 55-22 107 4 37 19 134 111 126 119-3 4-48-14-100-40-89-45-93-46-96-25-6 40 87 300 108 300 4 0 33-10 66-21 67-25 196-31 216-11 17 17 8 22-63 33-89 13-199 50-199 66 0 13-31 18-42 7z"/><path d="m8585 10781c-71-18-145-80-145-122 0-30 24-23 67 20 56 57 132 75 181 43 10-7 7-21-13-64-32-70-65-199-65-253 0-53 30-95 68-95 54 1 172 76 172 109 0 16-7 14-64-14-28-14-66-28-85-31l-34-7 7 66c6 60 58 232 74 249 4 3 32 2 62-4 44-7 69-6 124 9 110 28 98 43-33 41-104-2-112-1-136 22-14 13-28 21-31 17-3-3-24 1-46 9-44 15-57 16-103 5z"/><path d="m8163 10715c-37-16-57-47-48-75s40-25 53 5c10 21 19 25 51 25 22 0 42-4 46-10 12-20-26-78-99-150-43-41-84-88-92-103-14-26-14-31 3-49 16-19 26-20 108-14 108 8 187 31 183 53-2 13-20 15-102 14-55-1-104-4-108-7s-8-1-8 3c0 5 25 33 56 63 121 118 148 207 73 245-35 18-74 18-116 0z"/><path d="m9203 10633c-43-6-62-29-40-50 14-15 25-15 89-5 40 6 109 22 153 36l80 25-125-1c-69-1-139-3-157-5z"/><path d="m5964 10588c-4-7-11-100-15-208-7-185-31-393-65-553-13-61-13-73 0-85 20-21 29-11 69 72 34 71 108 166 130 166 6 0 7-39 3-114-6-85-4-116 5-122 21-13 36 23 49 119 16 125 1 166-62 167-19 0-42-14-73-43-25-24-45-41-45-38s5 33 10 66c26 157 45 487 32 544-8 37-25 50-38 29z"/><path d="m3614 10480c-56-22-100-143-123-335-14-114-14-442 0-700 6-110 11-324 11-475 1-326-14-458-59-523-31-45-23-74 20-69 22 2 27-4 41-45 42-127 74-382 82-658 7-213-4-465-37-895-23-300-22-512 4-570s56-90 85-90c15 0 32 4 37 8 22 15 55 65 55 83 0 30-23 22-48-17-28-42-41-40-65 10-42 89-43 225-2 791 32 440 30 764-6 1065-15 130-49 280-75 335-22 48-23 53-9 98 37 125 43 420 19 964-24 527-9 800 51 931 26 57 39 62 79 31 29-23 52-15 40 14-5 14-64 58-75 56-2 0-14-4-25-9z"/><path d="m19988 10394c-16-15-6-23 66-58 139-67 249-212 298-393 30-111 30-306 0-418-26-93-84-218-120-257-14-15-40-31-59-34-45-8-42-24 5-24 108 0 206 138 248 350 22 109 19 280-5 382-45 182-166 360-289 422-54 27-131 44-144 30z"/><path d="m286 10320c-107-3-151-9-154-17-2-7 2-15 10-17 28-9 572-16 1413-17 943-1 1297-11 1380-38 42-13 53-23 70-56 31-61 33-324 6-626-18-205-41-529-41-597 0-13-4-20-10-17-5 3-56 8-112 10-57 2-182 7-278 11s-555 8-1020 9-976 6-1136 10c-226 6-293 5-299-5-4-6-3-15 1-20 23-21 645-36 1559-39 424-1 793-4 820-7 28-2 146-5 264-7l213-2-6-90c-11-150-15-1632-5-1760 15-200 38-271 75-233 13 13 13 24-2 99-13 71-17 188-21 739-7 847 10 1395 58 1920 27 296 24 541-9 613-32 72-86 117-152 129-59 11-2357 18-2624 8z"/><path d="m4177 10312c-22-24-21-65 2-199 27-158 59-223 107-223 22 0 64 45 64 69 0 6 5 11 10 11 6 0 10-15 10-32 0-18 11-114 25-213 29-213 32-330 9-363-18-26-61-29-103-7-37 19-81 71-81 96 0 30 76 106 126 125 56 21 58 39 3 30-106-17-198-107-185-180 18-97 174-180 256-136 70 37 75 124 30 485-17 132-33 302-37 378-6 134-6 137-29 137-25 0-27-6-40-125-6-60-40-183-53-198-22-23-84 275-67 319 6 16-9 44-24 44-4 0-14-8-23-18z"/><path d="m5138 10163c-10-2-18-13-18-23 0-27 49-34 188-25 146 8 254 26 260 43 3 9-43 12-205 11-114-1-216-3-225-6z"/><path d="m6571 10159c-102-8-136-24-111-54 10-12 26-14 79-9 83 7 311 43 322 50 42 25-54 30-290 13z"/><path d="m18867 10037c-38-29-93-181-137-377-28-127-32-132-58-71-23 52-63 175-82 249-8 31-16 42-30 42-17 0-20-7-20-41 0-69 70-281 112-341 25-36 71-38 92-5 8 12 31 86 50 164 50 196 85 303 102 310 18 7 19 69 0 76-8 3-21 0-29-6z"/><path d="m16967 9989c-70-54-118-421-72-548 35-99 121-167 199-159 24 3 53 12 64 20 19 13 16 14-37 10-58-4-58-4-105 44-67 71-79 116-74 277 6 150 28 259 64 313 19 28 22 39 13 50-15 19-22 18-52-7z"/><path d="m5140 9975c-11-13-11-18 1-30 17-17 140-33 224-30 33 1 87 2 120 3 60 2 96 14 82 29-4 4-85 13-180 20-95 6-186 14-203 18-22 4-35 1-44-10z"/><path d="m8620 9937c-41-13-87-31-102-41-53-35-23-85 31-54 80 46 239 69 275 39 31-26-5-65-192-206-59-44-113-93-122-108-14-27-14-29 12-52 37-32 129-41 291-28 125 10 163 21 141 43-6 6-86 13-182 17-95 3-172 9-172 13s42 39 93 77c114 86 148 117 181 167 35 52 33 85-4 121-28 26-39 30-103 32-52 2-92-3-147-20z"/><path d="m17560 9948c-54-20-92-82-145-233-15-44-32-91-37-105l-10-25-13 25c-21 36-74 199-83 251-7 38-11 44-32 44-22 0-25-5-28-40-4-46 24-147 74-267 36-87 53-108 91-108 28 0 42 26 84 152 17 51 47 127 67 168 31 66 36 72 40 48 5-38 20-35 38 7 27 66 7 103-46 83z"/><path d="m20065 9929c-124-51-181-144-120-197 14-12 25-31 25-43s15-36 34-55c27-27 42-34 73-34 51 0 130 39 175 86 96 103 104 205 18 249-42 22-144 18-205-6zm198-58c17-16 17-22 6-62-29-97-164-184-224-145-22 15-25 23-25 79 0 35-5 68-11 74-7 7 0 17 26 33 83 51 188 61 228 21z"/><path d="m19675 9899c-49-5-124-15-165-22-70-11-75-14-75-37 0-21 5-26 31-28 60-6 384 69 384 89 0 10-48 10-175-2z"/><path d="m494 9865c-21-32-127-566-115-578 19-19 47 0 74 50 48 89 149 175 175 148 4-3 8-59 9-122 1-115 8-141 36-130 20 7 32 116 24 205-12 127-78 147-189 60-29-23-38-26-38-14 0 26 60 324 71 353 6 18 6 30-2 39-16 20-26 17-45-11z"/><path d="m4721 9793c-42-22-61-67-38-90 18-18 35-10 47 23 9 23 43 33 54 16 10-17-26-72-103-156-82-90-93-113-66-136 37-31 300 13 300 50 0 13-17 15-102 12-57-1-103 2-103 6 0 5 12 19 26 33 51 48 104 139 104 179 0 64-58 94-119 63z"/><path d="m19730 9786c-135-39-238-77-251-92-10-12-9-18 3-30 14-14 23-13 91 11 113 39 270 109 275 123 5 17-31 14-118-12z"/><path d="m1495 9754c-32-8-77-25-100-38-47-28-115-94-115-112 0-28 23-24 60 10 66 60 135 89 223 94 42 2 77 2 77-1s-9-22-21-41c-36-62-70-186-76-281-5-82-3-92 17-117 44-57 150-13 150 61 0 27-8 26-37-5-14-16-32-24-46-22-19 3-22 10-25 50-5 81 70 339 95 326 84-43 113-51 170-51 34 1 86 9 115 18 63 21 148 65 148 77 0 10 6 11-67-12-34-10-103-22-152-26-89-7-89-7-173 34-96 48-156 56-243 36z"/><path d="m18145 9755c-5-2-22-6-37-9-20-5-28-13-28-28 0-20 3-21 93-14 118 8 247 27 247 36 0 12-70 20-170 19-52 0-99-2-105-4z"/><path d="m19150 9684c-19-8-45-25-58-36-17-17-33-21-71-19-86 4-171-49-171-108 0-22 11-40 41-68 71-66 112-78 170-48 57 30 88 121 59 175-8 16-3 21 33 39 110 53 115 1 12-120-48-57-56-92-23-113s235 40 269 81c25 29-6 33-94 11-48-12-90-18-94-15-3 4 3 17 14 30 90 97 82 208-14 207-21-1-54-8-73-16zm-86-115c53-41 14-128-58-129-30 0-115 56-116 76 0 17 44 54 76 64 47 14 70 11 98-11z"/><path d="m17914 9656c-3-9-4-71-2-138 3-92 8-131 21-155 32-61 38-40 35 135-3 165-3 167-26 170-13 2-24-3-28-12z"/><path d="m17685 9648c-26-14-89-79-104-106-16-30-14-94 5-121 24-33 77-53 121-45 75 14 144 120 129 199-9 48-51 85-95 85-20 0-45-6-56-12zm83-50c7-7 12-32 12-56 0-37-6-50-34-78-49-49-106-45-106 6 0 87 85 171 128 128z"/><path d="m18325 9620c-137-29-199-53-203-77-5-30 15-33 93-11 39 10 117 31 175 46 73 19 105 32 105 42 0 22-65 22-170 0z"/><path d="m13876 9468c-7-13-24-90-36-173-12-82-35-229-52-325-39-218-40-234-12-238 15-2 30 11 56 50 66 98 166 179 204 164 23-9 42-66 54-162 14-112 17-122 42-130 28-8 56 19 40 39-7 8-17 52-22 98-6 46-16 100-22 119-37 118-117 129-235 33-55-45-55-45-49-16 12 60 36 214 57 363 11 85 23 159 26 163 6 9-15 37-28 37-5 0-15-10-23-22z"/><path d="m10000 9361c0-14 16-25 61-41 126-48 149-97 80-173-85-92-107-148-80-199 18-34 91-59 173-60 81 0 186 18 186 33 0 5-26 9-57 9-100 0-253 40-253 66 0 13 24 51 50 79 92 99 104 164 43 225-39 38-133 80-178 80-18 0-25-5-25-19z"/><path d="m901 9296c-13-16-14-263-1-271 24-15 62 243 40 270-16 19-24 19-39 1z"/><path d="m16534 9251c-22-10-57-33-78-52-36-31-38-35-33-83 6-70 47-106 117-106 28 0 50-4 50-10 0-15 20-12 20 3 0 6 20 24 44 38 29 18 50 41 64 71 30 61 28 93-7 129-25 25-37 29-83 29-30 0-71-9-94-19zm133-67c9-24-13-62-49-84-35-21-53-26-44-11 3 5 0 14-8 20-10 9-16 8-26-4-26-31-63-6-43 30 28 49 155 86 170 49z"/><path d="m9700 9205c0-8 20-34 44-59 130-129 110-430-43-655-27-39-51-62-72-70-42-14-32-36 15-35 29 1 46 10 77 40 50 49 122 194 149 301 48 191 8 390-94 468-37 28-76 33-76 10z"/><path d="m8638 9071c-74-82-159-274-194-435-20-94-20-203 0-251 9-21 15-39 14-41-2-1-106-5-231-8l-229-7 6 28c3 15 10 69 16 118 12 105 21 116 111 143 33 9 59 21 59 25 0 9-103-1-137-14-20-8-22-5-28 69-8 105-22 150-55 184-52 52-130 31-176-47-36-62-48-119-34-161 22-67 106-81 169-29 16 14 32 25 35 25s6-18 6-40-4-40-9-40c-26 0-130-114-159-172-55-113-67-290-25-376 24-50 71-57 109-15 23 25 74 122 74 141 0 5 7 31 15 59l15 51 223 1c122 0 310 5 417 11 107 5 395 13 640 16 245 4 453 11 463 16s17 17 15 26c-3 15-27 17-223 20-121 2-397-2-614-8-338-10-395-10-407 2-21 21-28 117-14 200 27 163 123 401 195 485 70 82 24 104-47 24zm-692-253c32-63-23-153-90-146-27 3-31 7-34 37-5 47 4 74 34 110 35 41 68 41 90-1zm12-365c-12-109-13-111-56-115-46-4-50-28-7-42 17-6 32-11 34-12 12-8-68-206-88-218-19-12-34 67-29 155 4 70 12 101 36 152 27 59 94 147 111 147 4 0 4-30-1-67z"/><path d="m6143 8978c-6-7-13-58-17-113-12-182-62-523-90-615-31-99-28-124 15-118 20 2 27 13 40 65 19 68 61 136 110 177 55 46 63 35 69-86 4-81 9-111 21-123 25-25 90-30 127-11 41 21 42 40 3 31-19-4-41 0-61 10-31 16-31 17-30 88 3 119 2 127-30 159-26 25-36 29-63 24-17-4-49-20-69-37-21-16-38-28-38-26 0 3 7 40 15 83 21 115 45 328 45 410 0 81-20 116-47 82z"/><path d="m9270 8934c-39-17-69-50-70-76 0-24 28-23 48 2 14 16 112 46 112 35 0-2-13-33-29-69-44-97-91-251-91-296 0-83 71-105 156-47 56 37 93 92 75 110-8 8-19 3-43-21-28-26-93-62-113-62-3 0-5 18-5 39 0 40 41 170 86 272l25 56 52-18c53-19 114-24 155-13 35 10 26 20-29 32-28 7-85 26-126 42-83 34-148 38-203 14z"/><path d="m8853 8874c-43-22-47-60-5-49 15 4 48 9 75 12 43 5 47 3 47-17 0-28-54-80-141-136-78-51-92-66-87-96 2-19 10-23 46-26 81-6 254 30 297 62 29 22 8 38-33 27-18-5-69-12-115-16l-82-6 30 22c17 12 54 46 83 76 43 43 52 59 52 88 0 51-28 75-87 75-27 0-63-8-80-16z"/><path d="m16604 8825c-8-20 1-283 10-292 15-16 20 17 20 154 1 108-2 147-11 150-7 3-16-3-19-12z"/><path d="m4154 8735c-10-25 3-153 21-212 21-69 71-123 115-123 25 0 43 10 76 44l44 43v-126c0-127 0-127-31-157-67-63-90-149-69-257 14-75 61-163 95-179 33-15 75 12 76 50 3 76-2 304-7 350l-6 53 61 27c33 15 61 31 61 36 0 9-73 3-104-10-19-7-19-1-13 198 5 177 4 208-9 219-21 18-38-3-53-66-22-88-90-175-126-161-27 10-54 85-67 182-12 90-16 99-36 102-13 2-25-3-28-13zm264-773-3-127-24 60c-30 77-33 165-6 219l19 40 8-32c5-18 7-89 6-160z"/><path d="m2290 8713c-96-13-160-56-181-122-15-45-15-169 0-184 19-19 29 4 36 78 12 124 45 161 149 172 59 6 148-16 182-45 79-67 41-137-146-275-161-118-202-202-151-312 20-43 64-95 81-95 14 0 13 5-11 52-12 23-24 68-26 100-5 51-3 63 20 97 15 22 62 66 105 99 173 132 222 191 222 268 0 72-79 143-175 159-71 11-80 12-105 8z"/><path d="m18900 8596c-6-16-3-81 10-193 10-92 21-199 24-238 9-114 20-695 13-695-4 0-30 32-58 71-40 54-56 69-73 67-15-2-22-11-24-35-7-67 132-293 180-293 26 0 44 31 91 150 24 64 54 133 66 155 25 46 27 90 6 99-29 11-45-7-77-85-17-43-33-78-34-76-1 1-5 108-8 237-8 274-23 536-36 635-6 39-12 101-15 138-2 38-7 72-10 78-12 18-46 9-55-15z"/><path d="m5439 8546c-2-2-53-7-114-10-118-8-150-21-125-50 16-21 91-21 224-1 217 33 274 65 114 65-52 0-97-2-99-4z"/><path d="m1175 8466c-9-13-20-39-25-57-9-29-80-376-80-388 0-2-13 14-29 36-81 111-234 119-294 14-42-71-19-147 57-185 42-20 146-24 204-7 24 7 39 7 54-2 17-10 22-8 41 15 12 15 34 30 50 33 36 9 35 25-3 25-19 0-30 5-30 13 0 26 69 362 89 432 14 50 17 73 9 82-15 19-26 16-43-11zm-224-399c32-22 78-89 79-114 0-24-148-35-198-14-41 17-55 49-41 91 21 59 100 77 160 37z"/><path d="m6788 8472c-53-6-61-61-9-63 155-8 359 18 368 48 3 9-38 13-164 15-92 2-180 2-195 0z"/><path d="m4859 8416c-37-26-106-110-133-164-22-42-17-76 10-80 17-2 27 10 52 60 30 59 79 125 87 117 2-2-12-60-31-129-37-136-44-233-20-266 21-27 31-11 33 54 1 31 19 120 41 197 55 195 56 201 29 220s-26 19-68-9z"/><path d="m5391 8399c-83-8-117-28-91-53 13-13 37-13 180 1 162 15 194 23 174 43-13 13-169 18-263 9z"/><path d="m19658 8284c-14-14-8-43 10-47 9-3 35-8 57-12 38-7 39-8 15-17-14-6-108-12-210-15-102-2-195-6-207-9-27-5-31-39-6-48 37-15 330-1 425 19 23 5 26 3 21-13-7-30 14-62 42-62 29 0 41 16 26 34-8 10-7 23 5 51 21 51 12 79-32 100-39 18-135 31-146 19z"/><path d="m16604 8205c-7-18 3-185 11-194 12-11 16 14 18 105 1 70-1 98-10 101-7 3-16-3-19-12z"/><path d="m1536 8164c-108-14-143-32-116-59 13-13 25-12 100 5 47 10 105 23 130 27 29 6 45 14 45 23 0 19-35 20-159 4z"/><path d="m8710 8098c-27-10-35-18-35-38 0-25 0-25 97-25 77 0 101-3 114-17 16-15 16-19-3-50-10-18-61-69-113-114-97-83-107-98-91-123 11-16 49-18 261-10 108 4 135 8 135 20 0 21-85 40-187 42l-87 2 78 80c85 87 102 124 79 172-7 15-28 36-46 46-42 24-153 32-202 15z"/><path d="m19599 8007c-117-59-127-268-15-321 46-22 67-20 108 8l35 23 16-81c10-45 17-88 17-97 0-10-28-30-74-53-158-78-218-201-166-337 43-115 146-169 227-119 75 45 95 113 95 311-1 150 0 157 20 162 25 7 19 31-10 35-16 2-23 13-28 40-3 20-15 73-25 117s-19 111-19 148c0 145-79 216-181 164zm101-67c21-21 26-55 10-65-5-3-10-26-10-51 0-34-6-51-25-69-29-30-35-31-68-5-49 39-43 148 10 189 32 26 57 27 83 1zm79-626c1-107-14-181-45-215-21-23-71-25-102-3-56 39-82 157-49 220 21 39 71 86 132 121l50 30 6-26c4-14 7-71 8-127z"/><path d="m2274 7756c-10-26 4-48 28-44 17 2 23 10 23 28s-6 26-23 28c-13 2-25-3-28-12z"/><path d="m16590 7545c0-25 5-45 10-45 6 0 10 20 10 45s-4 45-10 45c-5 0-10-20-10-45z"/><path d="m4620 7195c-25-30-41-144-47-345-3-113-7-206-8-208-1-1-14 15-28 36-14 22-47 54-74 71-42 29-54 32-103 29-65-5-116-35-162-97-58-79-85-191-58-242 14-26 62-49 102-49 58 0 196 39 268 75 38 19 76 35 84 35 31 0 35 28 40 280 3 175 9 278 20 329 12 55 13 78 5 88-15 17-24 16-39-2zm-167-514c23-22 57-66 75-100l33-60-38-9c-21-5-78-18-128-30-132-32-161-35-184-23-52 29 10 192 93 242 52 32 100 25 149-20z"/><path d="m5883 7138c-16-20-24-93-24-220 0-129 18-195 59-217 29-16 66 3 88 45 24 44 29 31 39-102l7-102-54-25c-71-33-132-87-158-143-46-93-9-246 73-305 47-34 109-39 143-11 52 42 59 73 59 274v186l28 6c36 7 35 26-2 26h-28l-17 188c-9 103-18 220-20 260-2 74-14 96-42 85-17-6-23-42-23-124 0-36-5-86-11-110-13-49-40-99-52-99-26 0-39 137-27 280 5 63 4 99-3 107-13 16-23 16-35 1zm182-924c-8-74-35-124-69-124-59 0-116 89-116 181 0 73 29 120 110 182l65 50 8-114c5-62 6-141 2-175z"/><path d="m16605 7069c-9-14 4-139 15-139s24 125 15 139c-3 6-10 11-15 11s-12-5-15-11z"/><path d="m7559 7033c-10-12-14-49-13-137 1-294 114-409 250-254l38 45 41-126c23-69 40-129 38-133-2-5-15-8-29-8-60 0-169-82-207-157-42-81-27-164 42-233 113-112 293-85 316 48 12 70-17 204-120 566-37 129-37 129-20 186 14 45 15 62 6 79-16 28-35 27-60-5-17-21-21-41-21-99 0-64-3-76-30-114-17-23-46-49-66-58-34-17-35-16-59 8-36 36-56 126-59 265-3 143-13 169-47 127zm396-715c29-96 42-207 31-252-12-47-96-71-163-45-61 23-113 93-113 152 0 41 40 120 83 164 29 31 100 73 123 73 6 0 23-42 39-92z"/><path d="m1439 6926c-2-2-76-7-164-10-88-4-173-10-190-13-16-3-217-6-445-7-415-2-478-7-468-38 3-8 25-10 69-8 108 6 156 5 384-3 204-8 409-2 670 20 44 3 383 5 753 4l674-2 59-24c32-14 76-25 98-25 73 0 97 23 36 34-19 4-65 21-102 39l-68 32-651 2c-359 1-653 1-655-1z"/><path d="m5060 6855c-10-12-10-18 0-30 24-28 520-14 520 15 0 15-167 30-331 30-145 0-179-3-189-15z"/><path d="m13816 6708c-21-29-20-54 5-150 57-225 166-308 246-189l23 34v-30c0-16 3-64 6-106 6-68 5-77-10-77-24 0-104-77-128-123-28-56-33-129-14-211 28-119 99-221 149-214 11 2 29 16 41 31 20 27 21 43 24 257 3 216 4 228 23 233 25 7 25 27 0 34-22 6-23 12-41 253-6 80-10 166-9 191 3 63-8 80-41 59-10-6-16-38-20-117-4-85-11-118-29-156-13-27-30-51-38-54-21-8-68 42-92 97-28 66-54 179-47 211 5 24-8 49-25 49-5 0-15-10-23-22zm295-645c1-43 3-123 5-178 2-95-6-178-20-192-12-12-44 29-72 90-32 71-43 183-25 239 14 42 76 118 97 118 11 0 14-18 15-77z"/><path d="m8489 6673c-40-28-125-124-160-180-25-43-29-56-19-66 9-9 17-6 34 17 60 82 139 176 144 172 2-3-4-32-16-63-47-134-65-218-66-313-1-78 2-95 14-95 11 0 18 20 27 70 14 84 45 211 79 318 13 43 24 91 24 107 0 40-28 55-61 33z"/><path d="m5460 6663c-47-7-305-53-332-59-19-4-28-12-28-25 0-16 7-19 43-19s207 37 370 81c72 19 32 36-53 22z"/><path d="m6874 6655c-16-40 0-45 139-45 107 0 137 3 147 15s10 18 0 30-40 15-147 15c-110 0-135-3-139-15z"/><path d="m16618 6630c-85-26-169-154-152-233 7-33 79-86 129-94l35-6v-189-190l-36 32c-54 47-81 57-101 37-14-14-15-22-5-54 15-50 78-132 120-156 56-33 77-19 123 81 22 48 48 95 56 105 12 13 14 20 5 29-14 14-67-7-87-36-13-18-15 0-15 165v186l41 18c49 22 75 54 90 108 14 52 5 99-28 137-43 51-118 77-175 60zm109-87c44-29 42-107-4-143l-27-21-17 36c-10 20-19 46-21 57-2 12-9 23-15 26-17 5-33-39-33-89 0-43-5-46-38-23-15 10-22 25-22 49 0 42 9 67 21 59 16-10 40 17 34 37-13 38 70 46 122 12z"/><path d="m6364 6541c-23-10-45-24-49-30-10-17 15-43 34-35 33 14 82 22 101 17 14-4 20-14 20-35 0-42-23-80-75-126-48-42-55-61-29-83 13-11 30-10 98 4 107 23 243 65 252 78 16 26-16 29-122 10-60-11-110-18-111-17s12 30 29 64c26 51 29 67 22 93-19 66-98 94-170 60z"/><path d="m17446 6269c-34-27-70-97-92-182-10-37-21-67-24-67-7 0-40 127-40 153 0 8-7 20-16 27-12 11-18 10-31-3-15-14-15-24-4-82 17-92 58-220 76-235 12-10 20-9 38 3s29 39 51 129c34 139 71 214 104 211 27-3 38 18 22 46-14 27-50 27-84 0z"/><path d="m14438 6203c-10-2-18-13-18-24 0-15 7-19 36-19 50 0 74-15 74-48 0-34-17-60-90-137-31-33-61-69-67-80-15-28 1-63 33-71 50-13 274 16 274 35 0 5-53 11-117 15-64 3-119 8-121 11-3 2 11 22 30 43 116 128 138 218 65 262-31 19-62 23-99 13z"/><path d="m12160 6123c0-10 22-82 49-160 113-321 152-552 131-775-26-280-115-510-285-738-63-85-92-108-167-133-10-4-18-12-18-18 0-22 90-3 133 28 93 65 214 241 289 420 82 195 111 343 111 553 0 208-36 396-116 620-56 154-88 220-109 220-10 0-18-7-18-17z"/><path d="m17661 6008c-51-14-121-66-121-88 0-27 18-25 81 10 30 16 66 30 82 30 23 0 27-4 27-28 0-32-41-99-91-152-91-95-102-116-73-144 21-22 81-20 200 4 102 21 121 30 109 50-6 9-37 10-123 5l-115-7 53 63c53 63 100 148 100 181s-23 67-53 78c-34 11-31 11-76-2z"/><path d="m11598 5943c-29-7-22-42 10-49 90-20 140-51 167-105 29-55 12-103-70-205-67-82-56-134 35-162 45-14 259-37 267-28 14 14-17 26-145 59-73 19-136 38-139 41s19 43 51 88c66 97 81 141 67 195-25 93-162 185-243 166z"/><path d="m2809 5649c-194-221-329-483-391-759-31-138-31-334 0-450 35-129 73-203 139-268 81-80 203-136 203-92 0 5-21 21-47 34-119 61-177 132-225 276-31 92-32 100-33 270 0 184 7 226 66 405 52 155 203 421 322 567 26 32 47 62 47 68 0 25-32 5-81-51z"/><path d="m5985 5690c-7-11 6-38 51-101 208-296 229-745 55-1163-50-119-103-198-182-270-97-87-60-86 49 2 200 163 336 584 302 941-25 261-88 423-224 569-32 34-41 38-51 22z"/><path d="m5580 5661c0-11 12-23 30-31 39-16 60-46 60-86 0-24-13-46-55-93-94-105-75-132 105-150 63-6 124-12 134-14 10-1 21 4 23 11 8 23-65 45-225 68l-33 5 39 43c75 81 88 130 51 196-24 42-65 70-103 70-19 0-26-5-26-19z"/><path d="m16614 5643c-9-48 3-222 18-269 7-21 19-39 26-42 9-3 12 31 12 150 0 172-4 198-31 198-13 0-20-10-25-37z"/><path d="m11210 5631c-41-13-103-48-140-79-27-24-32-33-23-43 10-9 19-7 45 13 53 40 115 68 150 68 33 0 33 0 9-13-29-15-87-97-136-192-74-147-84-218-36-266 16-16 40-29 53-30 88-4 163 20 220 71 43 38 47 67 5 40-47-29-78-41-137-52-110-19-130 9-91 123 24 71 52 125 110 215l47 72 28-35c46-57 129-79 191-51 29 13 37 55 8 43-67-25-125-8-169 51-52 72-75 83-134 65z"/><path d="m10143 5578c-6-7-20-39-31-70-12-32-34-81-49-109-15-30-28-74-31-105-4-50-3-53 22-60 17-4 41 1 71 15 42 20 75 27 75 16 0-3-20-55-45-116-43-107-58-185-34-177 12 4 119 247 159 361 17 49 21 70 13 78-16 16-32 3-49-41-14-34-19-38-62-43-26-3-55-9-64-12-24-10-23 15 1 64 40 77 72 183 60 198-14 16-24 17-36 1z"/><path d="m8138 5550c-115-76-257-271-336-462-114-273-106-540 20-699 41-53 152-132 177-127 31 6 20 28-31 61-112 71-161 160-178 320-10 98-3 182 24 282 57 220 223 488 375 606 32 25 35 49 7 49-7 0-33-13-58-30z"/><path d="m10575 5469c-25-23-59-70-76-104-37-76-37-122 2-144 33-19 66-10 123 34 26 19 48 35 49 35 2 0 1-18-2-41-6-39-9-41-71-68-123-52-194-109-239-191-26-48-35-55-73-65-55-13-59-39-6-43 36-3 37-5 44-50 18-127 92-200 179-178 57 14 100 72 175 236 9 19 152 29 470 30 233 1 274-1 317-22 30-15 55-3 51 24-9 59-278 79-712 52l-109-7 6 24c4 13 12 61 18 106l12 82 51 11c28 5 62 11 75 12 30 4 39 24 14 32-10 3-47 2-81-3l-64-8 7 78c6 71 5 79-14 95-13 12-21 30-21 50 0 35-26 64-59 64-12 0-42-19-66-41zm71-65c-3-25-12-57-18-71-14-28-82-72-94-61-19 20 77 178 108 178 7 0 8-16 4-46zm24-261c0-12-20-135-25-160-5-20-12-23-58-23-28 0-81-5-117-10-35-5-66-7-69-5-5 6 48 75 77 100 25 21 172 104 185 105 4 0 7-3 7-7zm-50-248c0-16-38-96-61-131-37-55-79-73-115-49-31 20-63 88-64 132 0 30 2 32 43 37 91 12 197 18 197 11z"/><path d="m8564 5460c-7-7-9-63-6-158 5-163-14-308-63-483-22-78-24-94-12-106 18-18 41-8 56 23 15 35 98 121 121 127 26 7 36-8 52-83 16-73 36-85 52-32 14 48-8 136-41 162-33 25-54 25-105-1l-41-21 7 39c33 190 38 246 33 376-5 150-19 191-53 157z"/><path d="m4605 5434c-69-35-105-89-105-154 0-54 40-97 100-106 40-7 42-8 36-37-3-16-6-39-6-51 0-18-12-27-56-45-145-60-245-247-214-397 35-167 164-129 238 69 17 48 32 96 32 107 0 25 8 27 213 41 149 10 436 8 547-3 19-2 26 2 28 19 4 26-31 38-144 49l-71 6 24 24c12 13 23 30 23 39 0 19-26 20-33 1-9-24-82-41-112-28-39 18-35 101 11 217 40 102 46 130 24 130s-56-58-85-144c-35-106-42-169-21-208l16-31-108-7c-59-4-147-10-197-14-49-5-91-7-92-7-2 1 8 49 22 112 3 15 15 24 40 28 45 9 46 26 2 26h-34l10 58c6 36 18 66 32 82 44 46 54 101 34 172-17 62-89 86-154 52zm103-76c2-17-4-34-18-48-11-11-23-34-27-50-5-27-9-30-43-30-78 0-91 71-23 130 28 25 42 30 71 28 32-3 37-7 40-30zm-103-405c-4-27-12-51-18-55-7-4-36-8-66-8h-54l24 26c29 32 98 84 112 84 5 0 6-19 2-47zm-25-118c0-11-42-131-55-157-61-120-123-97-112 42 9 110 13 115 96 116 39 1 71 0 71-1z"/><path d="m2902 5418c-5-7-19-76-31-153-30-187-96-517-120-591-19-61-15-94 13-94 18 0 29 16 50 72 31 83 108 168 153 168 21 0 34-38 49-137 16-105 31-142 68-167 34-22 89-21 109 2 25 27 21 31-21 25-61-8-77 22-103 194-14 97-41 137-95 141-30 2-49-4-78-23-21-14-40-25-41-23-2 2 3 32 11 68 7 36 30 163 50 282 30 178 35 220 24 233-15 18-24 19-38 3z"/><path d="m5030 5391c-42-13-70-35-70-53 0-22 17-23 63-3 55 23 113 19 176-12 72-35 117-33 214 8 69 28 88 45 72 61-3 3-41-5-83-18-97-30-127-30-194 1-54 25-126 32-178 16z"/><path d="m1256 5301c-6-9-92-582-98-651l-3-34-24 48c-48 92-114 139-197 138-67 0-137-31-192-85-52-50-72-85-72-127 0-85 44-105 225-104 281 0 336 11 322 65-3 11-1 48 4 82 20 137 69 477 80 558 7 47 10 93 6 102-7 18-42 23-51 8zm-245-584c33-22 109-150 97-162-10-10-232-18-290-11-73 9-93 24-84 62 9 33 68 92 117 117 50 24 119 22 160-6z"/><path d="m16614 5134c-7-47 9-270 20-281 13-13 18 10 28 120 13 138 5 207-22 207-15 0-20-10-26-46z"/><path d="m1661 4997c-11-14-11-20 0-34 13-14 37-15 239-9 221 6 270 11 270 26s-49 20-270 26c-202 6-226 5-239-9z"/><path d="m12663 4993c-42-5-62-28-42-48 12-12 39-13 147-8 117 5 132 8 132 24 0 10-12 21-31 28-30 10-137 12-206 4z"/><path d="m9266 4958c-97-7-130-24-107-52 10-12 27-14 75-10 125 11 326 49 326 62 0 9-180 9-294 0z"/><path d="m3557 4941c-68-10-100-33-77-55 12-11 28-12 71-6 30 4 127 11 215 15 153 7 189 14 169 34-13 13-306 22-378 12z"/><path d="m6925 4891c-48-8-67-19-62-34 2-8 53-12 168-13 90-1 197-7 238-13 76-12 108-4 84 20-25 25-343 55-428 40z"/><path d="m1770 4793c-60-9-70-14-70-33s4-22 33-23c14-1 236 13 287 18 19 2 50 4 68 4 25 1 32 5 32 21 0 19-6 20-162 19-90-1-174-3-188-6z"/><path d="m12685 4723c-64-14-85-25-85-45 0-18 5-20 43-16 71 7 267 51 267 60 0 8-189 9-225 1z"/><path d="m16625 4709c-11-17 23-309 36-309 23 0 23 255 0 298-13 24-26 28-36 11z"/><path d="m10733 4673c-12-2-27-11-34-19-24-29 5-38 126-35 106 2 185-9 185-28 0-18-38-56-110-111-111-84-150-127-150-162 0-24 6-32 38-45 61-26 316-7 445 33 50 16-2 21-175 17-106-3-203-1-215 4-21 8-15 15 79 93 104 86 148 138 148 172 0 28-42 65-86 77-37 10-205 13-251 4z"/><path d="m4804 4649c-10-16 5-26 71-49 100-34 116-66 70-134-30-45-62-74-135-123-77-52-100-74-100-94 0-23 20-29 98-29s312 36 326 50c23 23-10 30-94 20-47-5-116-10-154-10h-69l39 28c60 44 135 123 150 159 24 56 18 92-21 129-48 45-164 79-181 53z"/><path d="m16639 4218c-6-11-14-58-17-103-4-78-6-83-34-99-16-10-41-36-55-57-26-40-26-41-15-127 10-74 15-91 38-110 14-13 40-26 56-29s31-11 33-17c4-12 18-890 19-1186 0-102-3-238-8-302l-8-116-42 44c-30 31-48 43-60 38-27-11-18-45 34-124 65-99 90-122 126-118 26 3 35 14 76 98 25 52 57 103 69 113 19 15 20 20 8 28-7 5-22 9-31 9-25 0-73-45-94-88-19-36-19-23-22 785l-3 822 39 10c67 19 105 77 105 161 0 110-66 200-147 200h-42l8 83c4 45 6 88 3 95-7 19-23 14-36-10zm96-244c26-10 48-65 49-122 0-47-3-57-27-78-35-30-45-30-53 1-7 30-39 34-47 5-6-24-39-27-57-5-11 13-10 18 6 30s19 12 22-1c6-24 19-15 26 17 3 17 6 60 6 95 0 64 0 64 29 64 16 0 37-3 46-6zm-115-119c0-18-4-23-15-19-8 4-15 15-15 25s7 19 15 19c9 0 15-9 15-25z"/><path d="m14340 4115c-7-9-17-55-22-103-14-126-24-157-68-203-33-35-41-39-59-30-28 16-49 92-56 209-8 119-9 124-37 120-22-3-23-8-26-101-5-192 51-311 138-292 17 4 46 22 65 41l34 34 5-43c3-23 7-94 10-158l4-115-43-23c-113-60-154-233-89-369 43-89 112-104 149-32 30 58 36 136 35 523 0 246 4 413 11 457 9 55 9 73-1 85-16 19-34 19-50 0zm-20-979c-13-64-24-81-44-73-30 12-56 86-56 162 0 82 30 158 76 194l29 23 3-128c1-70-2-151-8-178z"/><path d="m7346 3793c-14-14-4-23 54-49 99-44 155-124 131-186-5-14-39-55-75-91-54-52-66-70-66-96 0-25 7-35 32-51 65-39 293-71 293-41 0 9-28 19-87 31-198 41-204 46-128 126 33 34 67 79 76 99 41 99-56 226-197 259-14 3-29 3-33-1z"/><path d="m14632 3558c-21-27-81-157-84-183-6-53 22-39 49 24 14 33 29 59 32 56 4-2 4-43 0-92-8-103-12-208-10-275 1-40 4-48 20-48s21 9 25 43c27 202 35 454 14 475-15 15-33 15-46 0z"/><path d="m6293 3489c-84-41-165-157-167-237-2-82 76-115 170-73 23 10 45 24 48 30 18 28 26 4 26-73v-85l-54-15c-30-9-57-16-61-16-21 0-141-68-180-102-75-66-103-138-83-215 21-86 120-123 212-79 52 24 117 93 145 152l24 50 256 18c311 21 613 35 624 29 4-2 7 0 7 6s-12 19-27 28c-22 15-51 18-153 19-112 2-415-14-609-31l-74-7 7 49c4 26 13 53 19 59 7 6 58 26 114 45 56 18 100 35 98 37s-50-1-106-7c-57-5-104-9-105-8s2 65 6 142 4 144 0 148-5 30-2 57c4 42 1 52-21 74-32 31-59 33-114 5zm85-46c10-18-1-69-25-116-10-20-11-32-4-41 31-37-122-99-157-64-17 17-15 46 8 92 25 52 55 86 104 120 45 30 61 32 74 9zm-22-470c-2-10-7-33-11-50-6-31-9-33-50-33-50 0-75-21-55-45 7-8 25-15 41-15 35 0 35-4 8-50-31-51-59-79-101-101-75-39-136-15-144 56-10 83 77 171 221 224 95 36 98 36 91 14z"/><path d="m6794 3489c-74-25-124-62-108-79 9-9 22-6 53 9 61 32 158 54 200 46 20-3 65-24 101-45 85-51 133-59 195-31 45 20 60 51 19 42-10-2-45-4-76-5-48 0-65 6-120 39-55 35-71 40-133 42-51 2-87-3-131-18z"/><path d="m6982 3368c-44-72-102-196-118-255-31-114 7-173 113-173 48 0 124 28 138 50 14 23-10 29-54 14-50-17-123-10-143 13-20 24 6 116 67 239 30 61 55 118 55 127 0 29-37 19-58-15z"/><path d="m4558 3303c-10-2-18-13-18-23 0-18 26-30 68-30 35 0 91-29 109-56 21-32 11-54-57-120-33-32-60-66-60-74 0-32 47-45 164-45 120 0 226 12 226 24 0 5-51 14-112 20-62 6-128 14-146 17l-33 5 36 44c57 69 62 127 18 178-34 38-148 73-195 60z"/><path d="m2687 3029c-48-8-97-32-97-48 0-24 27-30 76-15 87 27 174 5 174-44 0-55-82-136-212-207-78-44-97-73-58-91 46-20 350 27 398 62 31 23 2 35-59 25-29-6-88-13-129-17l-75-7 55 43c100 78 140 133 140 192 0 49-43 94-98 104-20 3-44 7-52 9-8 1-37-1-63-6z"/><path d="m3864 3026c-60-19-104-48-104-68 0-24 17-23 71 4 27 13 71 23 115 26 66 4 78 2 145-29 63-29 84-34 149-34 60 0 75 3 75 15 0 11-16 17-55 21-56 7-101 21-180 58-52 24-151 27-216 7z"/><path d="m3365 3003c-44-23-65-44-86-85-24-46-24-81-2-119 30-51 100-60 187-24 17 8 19 5 13-25-4-18-7-47-7-65 0-30-4-35-37-46-96-31-209-104-277-179-110-122-122-283-26-363 91-77 229-19 299 126 49 104 56 132 97 394 3 18 7 68 9 112s9 89 14 100c17 30 13 108-5 137-35 52-118 70-179 37zm119-54c65-51-3-139-108-139-58 0-72 39-36 98 20 32 67 61 101 62 9 0 28-9 43-21zm-26-396c-11-87-45-224-68-277-10-23-31-59-48-82-85-115-217-85-216 51 0 76 33 138 119 221 70 68 188 154 211 154 7 0 8-20 2-67z"/><path d="m8040 2975c-19-23 6-45 62-56 64-12 288-11 288 2 0 19-72 40-164 49-50 5-109 12-132 15-30 4-44 2-54-10z"/><path d="m1701 2956c-11-13-11-19 0-32 12-15 33-16 179-10 169 7 210 12 210 26s-41 19-210 26c-146 6-167 5-179-10z"/><path d="m4011 2906c-35-37-71-147-71-217 0-54 3-64 29-90 36-35 83-38 142-9 33 17 85 77 76 87-2 1-26-9-55-23-35-16-66-24-90-22-36 3-37 4-40 46-4 49 19 136 49 187 17 29 19 38 9 50-17 20-23 19-49-9z"/><path d="m1760 2775c-11-13-11-19 4-33 14-15 38-17 169-16 152 1 213 12 204 37-3 9-41 12-143 13-76 0-157 4-180 8-31 6-44 4-54-9z"/><path d="m5121 2756c-12-15-12-19 0-31 21-20 434-25 434-5 0 24-95 41-260 47-142 5-162 4-174-11z"/><path d="m8375 2753c-11-1-91-4-177-5-161-3-198-12-170-40 25-25 458-6 485 21s-24 36-138 24z"/><path d="m6711 2700c-18-4-40-15-49-24-28-28 0-41 81-38 87 4 114-10 103-53-8-33-88-119-173-187-64-50-78-79-51-106 21-21 155-14 291 14 70 15 127 31 127 36 0 4-35 9-77 10-99 2-86 2-178-6l-79-7 81 78c81 79 123 142 123 187 0 32-44 83-78 90-57 12-88 13-121 6z"/><path d="m17180 2615c-22-27-4-198 57-543 3-18 14-37 23-42 26-14 66 21 74 66 24 125 103 344 148 406 19 28 23 29 33 14 11-15 13-14 19 10 13 51-38 72-86 34-14-10-41-52-61-92-37-75-97-245-97-275 0-9-2-14-5-11-8 7-55 337-55 384 0 56-25 80-50 49z"/><path d="m17510 2205c-14-36-12-88 5-168 15-71 60-152 85-152 18 0 17 10-5 95-10 35-20 105-24 155-6 83-8 90-28 93-17 3-26-3-33-23z"/><path d="m4685 1613c-11-2-30-6-42-9-14-3-23-12-23-24 0-17 7-19 85-17 68 1 88-2 102-15 23-24 12-44-77-142-60-67-71-85-68-110 5-51 49-66 196-66 67 0 122 4 122 9 0 4-55 18-122 31-68 12-127 26-131 30-5 4 18 38 51 76 80 95 92 114 92 149 0 64-92 108-185 88z"/><path d="m4011 1400c-57-21-68-28-118-74-35-32-44-66-17-66 9 0 36 18 61 39 79 70 179 89 261 50l44-22-31-13c-70-30-191-178-224-275-19-57-11-95 27-123 57-43 227-17 280 43 26 29 15 36-24 16-19-10-68-19-121-22-132-9-145 10-83 128 34 65 158 199 184 199 6 0 10 7 10 15 0 13 5 13 38-1 79-35 206-18 283 36 43 31 26 42-28 18-33-15-67-20-127-20-78-1-86 1-170 46-101 53-154 59-245 26z"/><path d="m2934 1339c-63-8-74-14-74-40 0-19 5-19 90-13 84 6 90 6 90-12 0-11-34-50-77-91-91-85-90-92 22-121 82-21 103-43 65-72-36-27-148-61-194-58-42 3-64-16-53-46 19-48 255 15 308 83 15 19 19 34 15 56-9 41-32 61-95 83l-54 18 37 29c20 15 48 48 63 72 52 89-2 131-143 112z"/><path d="m3590 1323c-107-37-190-122-192-195-2-61 70-86 149-53l36 15-7-31c-3-17-6-49-6-70 0-31-4-39-18-39-28 0-171-38-229-61-53-21-115-78-128-118-6-20-13-21-113-21-144-1-265-10-277-21-5-6-5-13 3-21s67-11 197-10c116 1 185-2 185-9 0-5 11-27 25-48 66-99 236-99 318-1 14 16 28 39 32 50 7 23 14 23 770 24 413 1 420 1 420 21 0 17-9 21-60 27-33 4-287 7-565 7s-511 0-518 0c-10 1-11 16-6 64 3 34 10 66 14 71 5 4 48 16 96 25 54 10 89 21 92 30 4 12-11 13-92 7l-98-7 6 28c3 16 8 51 11 80 4 31 16 65 31 84 27 37 30 57 10 65-21 8-54-13-71-46-12-23-28-33-69-45-52-15-86-12-86 7 0 25 44 79 88 106 94 60 182 63 182 7 0-18 5-25 20-25 28 0 37 43 16 76-30 45-87 55-166 27zm-36-470c-14-97-5-92-164-95-95-2-140 0-140 8 0 16 40 49 89 74 34 17 170 55 214 59 5 1 5-20 1-46zm-44-152c0-5-16-23-35-39-62-55-154-55-209 1l-31 32 45 6c73 10 230 10 230 0z"/><path d="m1741 936c-11-13-11-19 0-32 12-15 33-16 183-11 94 4 174 11 180 17 22 22-17 30-180 37-150 5-171 4-183-11z"/><path d="m2100 829c-19-4-80-11-135-14-146-9-165-13-165-34 0-11 9-21 23-24 34-9 148 4 260 29 54 13 67 19 67 35 0 21 0 21-50 8z"/><path d="m3755 534c-115-28-141-43-114-69 12-12 24-12 79 2 114 27 240 3 240-45 0-28-76-95-180-158-52-32-103-64-112-72-24-20-23-45 3-68 18-16 37-19 143-19 153 0 327 12 339 24 23 23-9 31-127 31-68 0-157 3-199 6l-77 7 90 58c104 67 180 139 181 171 3 64-13 90-71 115-36 15-159 26-195 17z"/></g><g fill="#44b" transform="matrix(.054411653 0 0 -.054411653 1801.46225153537 1131.53503291264)"><path d="m750 2973c-57-10-88-25-119-57-40-41-55-100-46-179 6-45 12-61 32-77 32-25 35-25 64-1 22 17 24 26 21 89-4 105 24 120 164 87 33-7 119-19 190-25 88-8 134-16 144-26 32-32 8-420-28-456-18-18-126-28-289-28-185 0-206-4-250-52-55-58-58-82-55-363 1-145 7-274 13-293 11-34 51-62 89-62 12 0 35 14 52 31l31 30-6 238c-3 130-3 249 0 264l5 27h112c234 1 363 26 423 82 58 54 98 260 91 463-4 122-7 138-34 191-40 81-79 100-217 108-174 10-361 14-387 9z"/><path d="m3660 2971c-42-9-83-34-103-65-39-59-50-127-54-343-5-206-5-212 18-252 28-50 78-86 143-102 48-12 257-8 370 7l49 7-7-104c-4-57-11-189-16-294-9-177-9-192 8-214 35-47 100-46 136 2 22 29 27 86 42 452 7 191 0 235-44 283-45 48-92 56-241 38-146-18-229-20-265-6l-26 10v162c0 156 8 230 27 249 5 5 99 6 210 2l201-6 5-50c3-39 11-56 31-74 34-29 48-29 80 0 24 20 26 30 28 113 4 147-23 169-218 179-242 11-340 13-374 6z"/><path d="m1565 2945c-14-13-25-32-25-42s-1-297-3-638c-2-677-3-662 55-694 33-19 73-7 101 31 18 24 20 51 29 300 5 150 10 278 12 283 2 6 37 8 97 3 52-3 135-7 186-7 154-2 161-10 143-176-21-189-27-310-18-343 12-45 45-72 86-72 71 0 102 46 102 151 0 33 7 118 16 187 24 190 9 280-58 349-50 52-112 67-263 65-71-1-164-6-205-11-41-4-78-7-81-5-4 2-10 108-13 236-9 286-17 352-47 384-31 33-82 32-114-1z"/><path d="m2542 2944c-55-38-64-109-53-419 6-186 9-215 28-250 50-95 116-125 302-135 75-4 171-5 215-1l78 7-4-178c-2-97-7-181-11-184-4-4-42 1-85 11-104 26-285 27-363 3-106-33-149-107-99-170 26-34 68-41 132-21 74 23 202 20 308-7 182-47 274 5 301 168 12 77 27 831 19 994-7 152-20 181-86 186-88 7-103-51-104-401v-219l-201 4c-197 3-201 3-220 27-18 21-19 42-19 283v260l-29 29c-33 33-74 38-109 13z"/><path d="m2374 1391c-55-34-79-78-79-147 0-51 4-66 27-96 35-45 102-73 153-64 78 15 146 111 131 188-20 108-145 172-232 119z"/><path d="m1853 999c-39-11-66-56-61-101 6-59 69-64 76-6 4 30 34 38 145 38h67v-110c0-135-1-136-132-126-85 6-89 6-113-18-24-25-25-28-25-179 0-162 4-177 47-177 35 0 43 29 43 159v121h73c85 0 141 14 168 41 17 17 19 34 19 169 0 147-1 152-25 175-23 24-30 25-137 24-62 0-128-5-145-10z"/><path d="m2985 1000c-91-16-93-18-104-58-15-51-14-537 0-564 19-36 69-48 204-48 121 0 127 1 151 25l24 24-2 292-3 292-26 19c-31 23-161 33-244 18zm169-86c14-5 16-37 16-250v-245l-102 3-103 3v240 240l40 6c57 9 131 10 149 3z"/><path d="m2351 971c-24-24-29-73-37-372-6-232-6-237 15-258 23-23 29-25 51-11 12 7 16 40 20 150l5 141 35-23c19-13 59-55 88-93 30-39 78-96 108-128 47-51 56-57 74-47 29 16 25 42-15 92-19 24-62 78-95 121-61 77-61 77-33 77 15 0 46 9 69 19 56 26 67 57 62 179-6 156-27 172-220 172-93 0-111-3-127-19zm257-74c16-13 17-168 0-185-7-7-41-12-84-12-40 0-84-4-98-10l-26-10v120 119l98-6c53-3 103-10 110-16z"/></g></svg>