<svg height="2391.076994pt" preserveAspectRatio="xMidYMid meet" viewBox="0 0 1600.50628 2391.076994" width="1600.50628pt" xmlns="http://www.w3.org/2000/svg"><g transform="matrix(.1 0 0 -.1 -50 3048.97979)"><path d="m10112 30475c-57-41-132-198-132-280 0-63 15-93 54-112 50-23 103-6 167 56 27 26 51 45 54 43 3-3 5-16 5-29 0-71 95-84 207-28 69 34 112 69 100 81-3 4-26-3-50-14-49-23-162-46-184-38-11 5-14 26-13 98 1 51 1 99 1 106-1 6-12 12-26 12-20 0-26 7-35 41-6 22-20 49-31 60-23 23-85 26-117 4zm86-48c6-7 16-34 22-60 7-26 16-47 21-47 14 0-25-70-65-116-44-52-92-77-119-62-41 22 3 182 73 261 34 39 51 45 68 24z"/><path d="m1277 30363c-8-10-34-53-57-95l-42-78h-54c-51 0-54 1-50 23 12 57 15 113 7 125-15 24-46 10-49-23-1-17-7-53-13-81l-10-51-61-7c-67-7-84-16-75-40 5-12 21-16 62-16 87 0 64-19-27-22-76-3-83-5-86-24-4-26 19-34 99-34h56l-1-36c-1-51 20-54 39-6 13 31 23 41 47 46 59 12 69 9 58-18-5-13-12-52-16-85-6-53-4-61 10-61 9 0 16 4 16 10 0 5 11 33 24 62 14 29 27 65 31 79 6 24 14 28 81 39 79 14 108 28 96 46-5 8-26 9-71 3-35-5-67-7-69-4-13 12 20 24 123 44 103 21 136 33 123 46-3 3-43 1-89-5-46-5-94-10-106-10-27 0-25 8 30 102 21 37 36 72 32 78-10 16-40 12-58-7zm-122-242c-6-4-31-11-57-15-39-4-48-3-48 9s13 15 57 15c33 0 53-4 48-9z"/><path d="m1675 30317c-58-88-145-317-145-384 0-13 6-23 14-23 14 0 39 52 102 214 21 54 53 123 71 154 18 30 33 60 33 67 0 11-20 25-36 25-2 0-20-24-39-53z"/><path d="m1828 30303c-11-27-42-95-69-152-52-109-61-157-32-168 10-4 55 3 102 15 46 12 86 20 88 18 3-2-3-18-12-36-19-37-12-70 16-70 15 0 30 22 63 93 60 128 96 226 89 243-3 8-15 14-28 14-18 0-27-14-55-83l-34-83-79-18c-43-10-81-15-84-13-2 3 8 29 23 58 38 75 74 175 74 204 0 19-5 25-21 25-15 0-26-13-41-47z"/><path d="m13448 30329c-24-13-90-112-155-229-29-52-53-86-53-75 0 41-29 271-35 288-7 17-40 24-49 9s33-370 46-392c30-47 67-14 144 127 67 125 113 190 135 196s44 49 36 71c-7 18-43 21-69 5z"/><path d="m2747 30300c-54-14-92-36-116-66-37-48-25-82 42-116l28-14-60-38c-91-55-97-106-18-145 39-19 64-23 135-24 101 0 159 14 201 49 59 50 48 114-26 149-21 10-39 19-41 20s11 16 28 33c28 28 45 92 20 77-5-3-10 2-10 13 0 51-95 83-183 62zm130-70c10-11 24-20 33-20 8-1-16-15-55-31-65-29-73-30-115-20-25 7-51 18-59 26-13 12-7 18 40 40 67 31 132 33 156 5zm13-183c25-12 45-26 44-32-1-21-66-53-122-59-51-6-157 6-171 19-9 9 22 34 89 70 71 38 85 39 160 2z"/><path d="m2208 30289c-25-14-23-56 3-64 12-4 26-2 32 4 18 18 126 14 134-4 8-21-16-45-124-126-83-62-123-107-123-139 0-5 9-19 20-30 23-23 27-23 220 12 143 25 140 24 140 43 0 12-14 15-76 15-41 0-107-5-145-11-39-6-73-9-75-6-3 3 30 32 73 65 119 91 148 125 148 173 0 41-12 55-60 71-32 10-148 8-167-3z"/><path d="m9494 30285c-10-26 3-42 48-58l43-14-65-7c-91-8-726-36-836-36-93 0-122-11-105-38 11-18 315-16 671 3 151 8 301 15 333 15h57l-20-37c-24-46-25-72-3-80 11-4 22 1 32 18 9 13 35 45 59 72 69 78 58 96-85 145-104 36-121 38-129 17z"/><path d="m5990 30240c-27-29-79-155-95-230-5-23-27-54-67-93-58-59-68-87-30-87 11 0 31 9 46 21l27 21-5-23c-15-65-26-162-26-233v-79l-254 5c-144 3-260 1-270-4-13-7-16-25-16-88 0-47-4-80-10-80-5 0-10-9-10-19 0-22 5-22 799-37 298-5 305-5 368 18 46 16 68 29 74 45 8 21 15 23 70 23 54 0 60-2 49-16-11-12-10-18 4-32 15-16 64-17 594-17 607 0 622 1 622 45 0 16 9 19 80 22 69 3 80 1 80-14 0-9-5-18-12-20-6-2-9-12-5-21 6-16 55-17 643-17 636 0 636 0 685 22 27 13 49 29 49 35 0 10 25 13 90 13 74 0 92 3 97 16 10 25-16 34-104 34-76 0-83 2-83 20 0 41-19 42-538 35-285-4-561-2-647 3-110 7-152 7-157-2-25-42-35-47-103-52-77-7-72-10-99 70-6 17-21 18-374 11-202-4-466-8-587-9l-220-2-3-37-3-37h-59-59l-3 46c-4 59-23 74-71 56-21-8-96-12-208-12h-174l34 21c50 30 28 44-40 25-30-8-79-16-109-18l-55-3 1 90c1 134 31 290 65 345 74 119 111 240 78 261-22 14-29 11-59-21zm480-764c0-7-7-29-14-48-12-27-25-39-60-52-49-19 1-19-798 0l-238 5v55 54h555c465 0 555-2 555-14zm1310-20c0-19 6-38 13-43s-23-11-73-16c-106-11-920-20-977-12-42 6-43 7-43 46v39l388 1c213 1 401 5 417 9 17 4 85 8 153 9l122 1zm1023-6h457v-25c0-17 6-25 18-25 14 0 15-2 2-10-9-6-244-10-612-10h-598v35 34l103 4c56 2 118 2 137 0 19-1 241-3 493-3z"/><path d="m12707 30073c-19-18-4-41 36-57 23-9 53-25 67-36 25-20 25-20-100-20-160 0-748-20-778-26-17-3-22-10-20-27 3-22 6-22 143-22 77 0 291 4 475 9 278 7 333 6 323-5-16-16-17-79-3-79 6 0 33 20 59 45s55 45 64 45c23 0 27 12 20 54-7 45-25 56-162 97-102 31-114 33-124 22z"/><path d="m13534 29976c-19-19-34-41-34-50s-3-15-7-15c-71 11-13-80 82-130 58-31 91-27 132 14 34 34 35 38 31 90-5 61-25 90-75 111-55 24-91 18-129-20zm131-51c36-35 30-93-10-109-20-7-95 30-95 47 0 6-3 21-6 33-14 52 68 73 111 29z"/><path d="m500 29820c0-40 115-49 790-60 333-5 864-14 1180-20 1057-20 1316-23 1344-16 20 5 27 12 24 27-3 21-9 21-313 25-170 2-519 8-775 14s-816 15-1245 21c-429 5-807 13-840 18s-84 10-112 10c-46 1-53-1-53-19z"/><path d="m3603 29513c-11-123-8-1035 6-1413 21-555 26-1690 10-2285-20-805-18-1065 10-1065 5 0 12 132 15 293 4 160 14 450 22 642 31 727 28 1741-7 2585-5 124-12 474-16 778-5 432-9 552-19 552-8 0-15-29-21-87z"/><path d="m11105 29490c-222-7-288-14-310-31-6-4-29-4-50 1-85 20-198 9-193-19 3-13 23-18 103-24 55-4 110-9 123-10 12-1 22-7 22-13s11-23 25-38l24-26h556c363 0 555 3 555 10 0 6 9 10 20 10 27 0 42 40 38 99l-3 46-340 1c-187 0-443-3-570-6zm613-40c232 0 242-1 242-19 0-54 32-51-549-51-295 0-542 4-550 9s-11 16-8 23c7 21 79 28 292 29 99 0 205 4 235 9 30 4 64 6 75 4s129-4 263-4z"/><path d="m10375 29460c-9-27 1-40 31-40 29 0 42 24 24 45s-48 19-55-5z"/><path d="m9670 29445c-22-26 3-65 40-65 27 0 30 3 30 30 0 43-45 65-70 35z"/><path d="m9940 29427c0-26 16-37 56-37 22 0 25 4 22 28-3 23-8 27-40 30-34 3-38 1-38-21z"/><path d="m1175 29396c-18-28-145-321-145-335 0-5-18-12-41-16-22-4-43-13-46-21-8-21 17-45 38-39 11 4 19 5 19 3s-7-28-15-58c-33-123-12-167 74-157 56 7 193 60 212 83 26 32-6 35-92 11-128-37-149-41-149-25 0 7 10 46 21 86 21 69 23 72 53 72 17 0 55 3 84 6 42 6 52 10 52 25 0 16-9 19-57 20-32 1-64 1-70 0-20-3-17 8 48 161 34 78 62 156 63 173 1 39-27 45-49 11z"/><path d="m13836 29305c-20-30-38-55-40-55-1 0-17 23-35 51-21 34-37 49-49 47-29-5-24-49 12-113l34-59-49-98c-54-108-57-118-31-118 10 0 35 29 66 77 43 67 50 74 59 57 21-39 51-64 79-64 32 0 37 19 12 48-8 10-26 36-39 58l-23 39 44 73c50 83 56 112 20 112-17 0-33-14-60-55z"/><path d="m2460 29264c-99-43-154-160-99-210 27-24 133-25 199-1 24 9 46 14 48 12s-19-28-47-58c-55-58-154-117-211-127-29-4-35-10-35-30 0-23 3-25 42-23 59 2 175 65 238 128 116 117 137 262 45 310-37 19-134 19-180-1zm158-60c15-10 22-25 22-48 0-32-2-33-52-44-130-27-188-26-188 3 0 21 51 76 85 91 41 18 106 17 133-2z"/><path d="m13098 29274c-5-4-8-18-8-30 0-19 7-24 45-30 25-3 44-8 42-11-3-2-130-9-283-16-334-14-1014-15-1584-3-524 12-1704 9-2217-6-370-10-985-6-1155 8-70 6-77 8-83 31-7 30-48 29-53-2-3-20-8-20-225-13-122 3-454 9-737 12-283 4-561 8-617 10-96 4-103 3-103-15 0-38 41-43 370-46 173-1 537-8 808-14l492-12 1-76c1-42 6-105 13-141 11-63 12-65 41-65 27 0 30 3 28 30-2 17-6 79-9 139l-7 109 79-7c173-14 791-18 1136-7 424 13 1823 17 2313 6 531-12 1202-11 1524 3 162 7 296 10 298 8 3-2-5-23-17-46-24-47-23-93 2-98 11-2 29 19 58 70 23 40 56 85 73 99 28 24 30 29 19 53-8 19-25 29-64 40-66 19-170 30-180 20z"/><path d="m5260 29136c-121-44-142-54-138-73 3-15 14-18 70-17 37 0 65-2 63-6s-40-27-83-52c-168-98-358-270-510-462-77-96-165-243-158-261 12-32 39-11 93 73 85 131 136 195 268 330 130 134 189 182 329 268 50 31 114 79 143 105 28 27 57 49 64 49 12 0 8-94-7-152-5-22-3-28 10-28 26 0 49 60 54 142 4 69 3 78-14 84-11 3-27 10-36 15-29 15-79 10-148-15z"/><path d="m1794 29045c-4-8-4-22 0-30 10-28 286-13 286 15s-276 43-286 15z"/><path d="m2845 28961c-71-42-116-130-96-183 18-46 55-63 141-62 90 2 180 34 180 65 0 23 1 23-68 3-53-16-133-15-176 2-27 10-18 52 20 94 41 45 76 59 100 39 12-10 18-9 31 4 15 15 15 18-2 37-23 26-89 27-130 1z"/><path d="m1985 28929c-27-5-86-15-130-22-75-11-80-13-80-37s3-25 49-22c84 4 236 54 236 78 0 15-2 15-75 3z"/><path d="m1433 28888c-39-49-68-363-34-363 11 0 24 44 49 173 18 95 31 180 28 188-7 17-30 18-43 2z"/><path d="m6774 28546c-120-43-154-64-154-93 0-32 17-29 123 21 50 24 109 51 130 59 41 18 51 47 15 47-13-1-64-16-114-34z"/><path d="m7875 28503c-37-9-80-50-110-104-26-48-30-66-33-156-4-102-4-102 21-114 39-18 81 5 127 65 83 110 121 239 84 283-20 24-56 34-89 26zm32-126c-24-76-106-201-122-185-2 2 0 36 6 77 10 83 36 133 83 162 44 27 53 11 33-54z"/><path d="m6676 28292c-29-56-175-167-194-147-3 3-1 26 6 50 16 62 15 75-7 75-11 0-36-23-61-54-45-59-93-100-136-116-27-11-27-11-21 34 4 24 14 60 24 80 13 28 14 39 5 48-17 17-42 0-64-42-31-60-116-133-164-142-16-2-18 2-15 27 1 16 14 48 27 71 29 50 30 71 4 79-27 8-46-8-62-51-9-26-24-40-62-59-27-14-60-25-72-25-20 0-22 3-16 43 12 83 9 112-14 115-19 3-22-5-34-75-7-42-18-82-26-88-10-7-15-34-17-80-2-66-1-70 20-73 20-3 25 4 39 57 13 47 21 60 33 56 16-4 69 6 104 20 13 6 17 2 17-18 0-72 89-75 179-6 23 18 24 18 43-6 14-17 29-25 52-25 32 0 109 41 135 74 13 15 15 15 28-4 27-38 101-23 181 38l32 24v-31c0-84 97-93 186-18 38 32 44 33 44 7 0-33 22-68 50-80 38-16 95 8 102 41 6 35-1 59-18 59-8 0-18-8-21-17-17-47-53-30-53 26 0 20 5 54 10 76 7 31 6 43-5 54-12 13-17 12-35-4-11-10-20-24-20-32 0-33-146-143-170-128-15 9-12 52 6 111 10 28 14 59 11 68-10 25-35 19-51-12z"/><path d="m5556 28230c-69-21-105-89-71-137 14-20 12-22-43-46-78-35-139-43-185-23-40 16-49 36-17 36 47 0 156 77 166 116 25 99-171 54-238-54-19-32-21-64-4-103 6-13-1-18-30-23-69-14-100 13-136 119-18 53-42 57-83 12-39-42-127-77-196-77-59 0-61 12-8 48 28 19 42 22 77 17 41-6 43-5 40 16-7 52-118 45-177-10-26-25-31-26-31-11 0 31-47 60-99 60-64-1-122-30-184-94-39-40-64-56-91-62-47-8-57 4-45 55 13 54 11 69-9 80-23 12-68-9-127-61l-45-40 2 58c3 53 1 59-18 62s-21-5-33-102c-19-153-8-159 94-56 38 39 73 70 77 70s5-13 2-29c-6-28 9-69 30-83 19-13 86-9 118 8 29 15 34 15 61-1 59-35 185-1 241 65 22 27 26 29 26 11 0-53 84-67 187-31 32 11 58 20 58 20 1 0-1-14-3-31-5-33 11-51 36-42 8 4 24 27 36 53l22 47 18-44c21-51 56-73 116-73 29 0 47 6 64 23 23 23 23 23 62 4 29-13 56-17 109-14 76 4 131 26 189 77 18 17 43 30 54 30s32 4 46 10c25 9 26 8 26-24 0-27-5-35-23-40-41-10-147-85-167-118-54-88 13-178 132-178 96 0 129 47 128 177 0 48-3 102-5 118-14 91-16 112-7 135 25 65-50 107-142 80zm75-67c-9-33-45-49-86-39-27 7-27 7-9 28 22 23 50 36 81 37 18 1 20-3 14-26zm-301 2c0-7-91-58-96-53-6 6 67 57 84 57 6 1 12-1 12-4zm-771-54c23-15-6-50-62-77-66-30-103-31-110-3-13 51 120 113 172 80zm1101-213c0-68-12-103-41-118-30-16-86-4-115 26-24 23-24 25-9 54 20 39 146 125 157 107 4-6 8-38 8-69z"/><path d="m1130 28178c0-19-132-383-141-389-6-4-33-10-60-13-59-8-88-31-66-53 12-12 22-13 53-4 64 18 65 17 45-43-35-98-46-163-31-181 16-19 53-19 93 1 63 32 111 94 73 94-7 0-34-12-60-26-30-17-46-21-46-13 0 13 51 180 58 189 2 3 34 7 70 10 53 4 67 9 70 23 3 15-5 17-57 17-34 0-61 3-61 6 0 4 25 81 56 171 30 91 54 174 52 186-2 14-11 23-25 25-13 2-23 2-23 0z"/><path d="m11680 28058c-44-30-58-54-43-69 9-9 20-6 47 14 19 15 40 27 46 27 20 0 2-50-38-109-20-29-45-65-54-79-35-52 1-82 98-82 105 0 136 8 132 34-3 19-10 21-86 24l-82 3 30 45c57 81 74 149 50 195-14 26-59 25-100-3z"/><path d="m2590 28009c-86-34-101-123-34-200 12-13 4-25-61-91-60-61-75-83-75-107 0-41 36-65 82-56 189 38 231 82 173 180-24 42-24 42-3 61 11 11 31 36 44 56 45 71 27 76-52 16l-56-42-19 25c-29 37-34 67-14 89 29 32 80 41 132 24 33-11 48-13 56-5 15 15-7 35-52 50-41 13-87 13-121 0zm45-305c13-28 14-38 4-50-15-18-111-47-141-42-20 3-16 10 42 66 36 34 68 62 71 62 4 0 14-16 24-36z"/><path d="m11396 27902c-9-15-89-228-111-297l-23-70-59-5c-50-4-58-8-58-25s8-20 51-23l51-3-13-57c-17-71-18-144-2-160 29-29 107 6 158 69 54 68 33 85-42 33-53-36-53-36-56-13-1 13 4 47 11 74l13 50 60 5c44 4 60 9 62 22 3 13-8 18-52 23l-55 7 61 174c33 96 58 181 54 189-6 16-41 21-50 7z"/><path d="m2949 27801c-116-74-163-190-105-258 23-26 29-28 103-28 69 0 87 4 156 37 68 33 99 59 85 73-2 2-33-5-68-16-36-11-99-23-140-26-64-5-78-3-90 12s-11 22 10 61c42 80 120 131 161 105 30-18 49-13 49 13 0 59-88 74-161 27z"/><path d="m1844 27807c-13-36 3-47 68-47 68 0 187 15 196 25 16 16-27 26-136 32-107 5-122 4-128-10z"/><path d="m1959 27679c-95-12-121-24-117-52 4-27 20-27 193 0 106 17 120 21 120 38 0 18-8 20-65 21-36 1-95-2-131-7z"/><path d="m10796 27588c-67-78-106-231-72-283 26-39 85-35 135 10 42 38 51 42 51 21 0-7 10-25 21-40 28-36 77-33 98 6 19 32 8 47-21 29-39-24-44 19-21 186 5 36 3 44-13 50-10 4-29 20-42 35-18 22-32 28-62 28-33 0-44-6-74-42zm109-58c4-19-1-42-15-70-26-52-88-120-108-120-34 0 17 169 68 220 25 25 45 15 55-30z"/><path d="m1274 27556c-10-25 3-46 29-46 33 0 61-33 53-63-3-14-24-43-47-65-55-53-49-72 25-72 58 0 186 35 186 50 0 6-29 10-65 10s-65 2-65 4 7 21 16 42c30 72-7 134-89 149-29 6-38 4-43-9z"/><path d="m9316 27522c-2-4-14-43-25-87s-33-118-49-165l-29-85h-74c-68 0-74-2-77-22-3-22-1-23 91-39 20-3 37-9 37-13-1-3-7-33-15-66-19-78-19-110 1-129 37-38 151-1 212 69 52 58 36 92-19 39-14-14-53-36-85-49-71-29-74-25-47 75l18 65 120 5c112 5 120 6 120 25s-8 20-111 23l-112 3 30 91c35 111 62 234 54 254-6 15-32 19-40 6z"/><path d="m5542 27485c-24-10-39-28-54-62-29-65-35-245-17-543 25-412 15-663-29-792-15-43-23-53-52-63-31-10-35-16-35-46 0-33 2-34 44-39 54-6 72-28 105-125 43-127 51-203 50-465 0-201-5-285-27-469-40-332-35-401 31-457 36-32 75-31 101 2 21 27 28 54 13 54-4 0-13-9-20-20-18-29-39-25-62 12-33 54-34 106-6 351 69 612 48 938-73 1129l-30 47 21 53c51 132 62 434 32 881-23 352-14 469 39 501 26 16 64-31 73-89 5-40 9-46 28-43s21 9 20 56c-2 55-20 93-57 116s-60 26-95 11z"/><path d="m7030 27441c-50-52-93-140-121-247-19-73-27-89-53-105-19-11-39-16-58-12-33 6-48-18-27-43 10-12 25-15 61-12l47 5 3-70c4-89 13-96 100-78 95 19 264 76 258 86-7 13-141 6-223-11-38-8-71-14-74-14s-4 31-1 69c3 56 8 74 31 102 111 137 165 230 174 300 11 79-54 96-117 30zm30-108c-38-72-70-114-70-93 0 40 89 188 98 162 2-6-10-37-28-69z"/><path d="m8685 27452c-58-36-188-193-267-324-21-34-38-60-39-57-1 2-6 85-13 184-11 175-12 180-34 183-14 2-25-3-29-14-7-18 13-387 23-436 7-31 34-44 63-29 10 6 37 43 59 83 52 94 126 199 191 270 40 44 58 56 79 55 21-2 30 5 46 35 17 30 18 39 7 52-18 21-49 20-86-2z"/><path d="m11556 27451c-11-18-36-154-36-197 0-31 5-46 15-51 9-3 18-3 21 0 9 9 52 231 47 244-6 15-39 18-47 4z"/><path d="m10155 27271c-5-10-2-47 11-108 4-23 3-23-95-23-103 0-128-10-115-44 5-13 24-16 115-16 109 0 109 0 109-26 0-31 42-154 52-154 5 0 8 42 8 93v94l50 11c68 16 123 40 116 51-4 5-21 5-43 0-21-5-59-9-84-9h-46l-14 68c-12 56-18 68-36 70-11 2-24-2-28-7z"/><path d="m7577 27183c-4-3-7-14-7-23 0-24 73-30 240-20 159 10 140 7 140 24 0 9-22 15-77 20-99 8-288 8-296-1z"/><path d="m11565 27120c-77-4-243-9-370-10-126-1-291-5-365-9-125-6-135-7-135-26 0-14 10-21 40-28 43-10 840 0 940 11 58 7 60 8 60 37 0 35 10 34-170 25z"/><path d="m7648 27073c-30-8-20-30 16-37 19-4 51-4 73-2 21 3 77 11 126 17 48 6 87 15 87 20 0 9-269 11-302 2z"/><path d="m8655 27037c-38-38-40-48-24-117 13-59 34-80 77-80 78 0 142 57 142 128 0 63-32 94-103 100-54 4-58 3-92-31zm126-36c20-16 22-23 14-47-13-35-71-71-93-58-8 6-16 19-17 30-2 10-5 26-9 34-7 18 2 33 29 48 29 16 50 15 76-7z"/><path d="m9611 26998c-16-50-41-205-41-255 0-36 3-44 17-41 13 2 24 38 50 152 19 82 32 155 29 163-10 26-44 14-55-19z"/><path d="m15756 26993c-8-21-1-28 47-43 56-18 66-47 33-102-44-76-33-125 34-152 48-19 81-20 167-5 69 12 81 32 22 37-60 5-179 34-179 43 0 6 9 27 20 49 28 55 26 110-5 144-42 45-126 63-139 29z"/><path d="m11140 26896c0-28 16-36 70-36 21 0 42-5 45-10 3-6-37-55-89-110-102-106-117-138-78-173 25-23 150-23 237-1 67 17 89 32 76 52-5 9-36 9-121 3-63-5-119-6-123-4-4 3 22 36 58 75 111 117 130 167 79 207-21 16-41 21-90 21-61 0-64-1-64-24z"/><path d="m663 26794c-3-8-2-19 3-24 16-15 1007-31 1987-33 853-2 967 0 965 13-8 39-210 44-2071 55-787 4-878 3-884-11z"/><path d="m13836 26742c-32-63-140-382-171-503-31-123-33-219-5-264l20-32-46-7c-26-3-172-6-326-6-279 0-279 0-276-22l3-23 685 2c617 2 1080 10 1607 29l182 7 6-26c15-59 55-60 121-3 28 24 52 36 80 38 32 2 40 7 42 26 3 17-2 25-17 29-12 3-21 7-21 8s11 27 25 56c40 90 56 166 56 279 0 117-15 189-61 288-37 79-67 122-86 122-29 0-26-33 14-118 92-200 94-377 8-559l-35-73h-68c-37 0-156-5-263-10s-391-14-630-19c-239-6-538-13-663-17l-228-6 7 26c5 20 2 26-9 26-9 0-19-4-22-10-12-19-35-10-51 22-31 59-9 164 112 529 41 124 74 233 74 242 0 10-8 17-20 17-13 0-27-15-44-48zm1744-816c0-2-7-9-15-16-12-10-15-10-15 4 0 9 7 16 15 16s15-2 15-4z"/><path d="m15236 26667c-29-38-81-150-117-249-23-66-25-68-59-68-44 0-63-12-58-36 2-14 13-20 39-22l36-3-13-57c-21-86-18-119 12-149 22-22 31-24 66-19 50 8 106 36 137 70 40 42 14 50-53 16-61-31-100-38-111-20-10 16 25 160 38 161 72 4 241 37 245 47 3 9-25 12-117 12h-120l29 83c17 45 48 118 70 162s40 86 40 93c0 24-39 11-64-21z"/><path d="m14161 26599c-12-17-52-90-87-162-62-129-65-132-96-132-41 0-51-30-15-46 24-11 24-12 11-57-20-65-18-108 7-133 41-41 140-5 175 63 25 48 2 60-38 21-39-37-85-52-93-31-3 8 2 39 13 69l18 54 62 7c70 8 82 13 82 35 0 13-9 15-60 9-33-4-60-4-60-1 0 11 93 209 122 262 16 29 27 57 23 63-12 19-41 10-64-21z"/><path d="m2593 26515c-41-17-58-52-49-99s47-92 71-83c18 8 17 16-6 74-18 43 0 63 55 63 85 0 191-52 220-109 33-64-24-117-218-203-184-82-224-132-180-225 17-34 76-83 101-83 20 0 15 35-8 56-11 10-27 34-35 53-13 31-13 36 3 54 10 10 77 49 148 84 215 108 255 145 255 239 0 45-3 51-54 100-43 42-68 57-121 73-78 24-136 26-182 6z"/><path d="m13154 26451c-83-51-185-228-192-335-5-70 8-90 58-88 58 1 126 58 189 158l28 44 6-56c7-68 27-101 75-121 52-22 122-3 122 33 0 10-11 12-42 8-38-5-46-2-68 21-23 24-25 35-27 128-2 113-20 175-60 207-32 25-50 25-89 1zm82-74c15-32 15-32-47-125s-129-162-157-162c-38 0 41 194 113 278 44 51 70 54 91 9z"/><path d="m7091 26391c-48-45-63-93-68-211-2-69-9-116-20-137-13-26-13-35-3-47 9-12 9-37-1-121-16-133-13-140 67-140 64 0 212 49 222 73 13 34-17 32-217-14-20-4-23-2-18 18 3 13 11 72 17 132 8 76 17 117 29 135 60 85 128 261 114 297-19 51-76 58-122 15zm69-54c0-13-18-59-39-102-42-86-52-78-30 24 16 74 69 134 69 78z"/><path d="m14647 26414c-4-4-7-23-7-43 0-73-6-80-69-83-48-3-56-6-56-23s8-20 55-23l56-3-9-80c-6-55-6-84 2-92 15-15 41 10 42 42 0 14 6 51 12 81 12 54 12 54 62 65 36 7 51 15 53 29 4 17-1 18-47 13l-50-6-3 62c-2 46-7 63-18 65-9 1-19 0-23-4z"/><path d="m9425 26338c-77-90-146-243-197-437-34-132-43-273-20-328 17-39 62-60 100-47 39 14 35 39-6 39-47 0-54 17-48 120 10 184 113 481 210 608 65 85 30 125-39 45z"/><path d="m11590 26272c0-10 25-56 55-102 86-131 117-228 116-371-1-149-36-259-112-350-33-41-37-49-23-60 12-10 23-4 65 40 89 92 138 234 139 396 0 45-7 108-15 140-35 136-151 325-200 325-18 0-25-5-25-18z"/><path d="m15433 26274c-3-8 4-25 16-38 30-32 27-42-24-88-49-45-55-66-27-91 27-25 71-21 139 13 101 50 130 102 34 61-27-11-57-21-67-21-15 0-15 2 1 26 25 38 22 101-6 130-26 27-57 31-66 8z"/><path d="m14305 26218c-26-86-40-207-27-220 19-19 29 0 61 122 38 141 38 150 6 150-21 0-27-8-40-52z"/><path d="m1003 26221c-85-29-163-102-163-153 0-35 23-29 62 16 46 53 117 94 182 102l44 6-48-93c-85-165-108-268-70-314 37-45 163-20 236 47 43 39 53 61 35 72-5 3-25-8-46-24-40-32-91-50-142-50-30 0-33 3-33 30 0 34 23 96 81 214 23 47 39 92 35 101-7 19-10 20 75-17 54-23 94-32 149-36 92-5 190 13 190 35 0 13-9 14-53 9-71-9-171 8-263 44-90 36-188 40-271 11z"/><path d="m11051 26200c-16-22-48-85-72-141l-43-100-37 6c-29 5-38 3-43-12-8-19 17-43 45-43 15 0 15-5-3-72-20-75-19-138 2-163 7-9 30-15 52-15 32 0 47 7 74 34 19 19 34 41 34 50 0 22-33 20-55-4-10-11-26-20-37-20-23 0-24 42-2 120l16 57 66 7c37 3 84 6 105 6 40 0 51 17 15 24-13 3-54 8-91 11-68 7-69 7-62 33 4 15 29 74 56 131 28 57 48 110 45 117-10 25-35 15-65-26z"/><path d="m12367 26214c-4-4-7-56-7-114v-107l-31-7c-17-3-57-7-88-7-92-2-116-10-116-39 0-25 0-25 117-23l117 1 3-86c3-79 5-87 23-87 16 0 20 7 22 40 2 22 5 63 9 92l5 52 80 7c68 6 79 9 79 25s-8 19-42 19c-24 0-60 3-80 6l-37 7-3 111c-3 103-4 111-23 114-12 2-24 0-28-4z"/><path d="m8715 26181c-54-31-142-112-193-176l-31-40-1 82c0 97-5 113-35 113-31 0-35-20-35-186 0-117 3-144 16-155 22-18 41-4 88 66 58 87 177 207 245 245 62 36 70 47 49 68-19 19-49 14-103-17z"/><path d="m9671 26138c-15-35-43-100-62-145l-34-83h-57c-50 0-58-3-58-19 0-14 10-20 41-24 22-3 42-7 45-9 2-2-5-28-16-56-24-63-26-125-4-146 19-20 66-20 103-1 34 17 81 70 81 91 0 19-24 18-41-2-16-20-63-44-85-44-21 0-15 47 15 116l21 47 60-6c38-4 61-3 66 4 11 18-12 31-61 37-37 4-46 8-41 21 3 9 25 70 49 135 25 66 43 126 40 133-11 29-36 10-62-49z"/><path d="m6385 26093c-70-15-96-43-76-82 21-38 81-34 81 5 0 9 13 15 38 16 96 5 162-11 162-41 0-23-50-69-136-125-40-26-77-53-84-61-19-23-8-59 24-74 67-32 336 20 336 65 0 19-15 25-42 15-13-5-68-12-123-16l-100-7 75 53c118 86 146 146 94 208-14 17-42 35-62 41-36 10-148 12-187 3z"/><path d="m10406 26068c-3-13-10-48-16-78-12-62-20-70-76-70-49 0-80-20-71-45 6-14 15-16 65-10l59 7-5-81c-4-77-4-81 17-81 17 0 21 6 22 33 0 17 6 55 13 82l11 50 64 7c71 8 76 10 68 33-5 11-21 15-62 15h-56l7 63c7 67 7 66 5 85-2 22-40 14-45-10z"/><path d="m1862 26033 3-28 153 1c169 2 222 9 222 28 0 15-109 26-273 26h-108z"/><path d="m7693 25950c-27-11-30-32-8-50 12-10 52-11 168-6 174 7 217 13 217 31 0 16-53 23-220 30-79 3-144 1-157-5z"/><path d="m7791 25849c-70-9-87-19-77-45 5-14 16-16 79-10 105 10 297 47 297 57 0 11-211 10-299-2z"/><path d="m9840 25758c-42-70-54-219-17-226 11-2 17 3 17 15 0 10 14 63 31 117s28 104 25 112c-9 24-35 15-56-18z"/><path d="m11263 25783c-21-7-15-29 12-47 34-22 32-38-15-103-44-61-49-89-22-109 38-29 191-10 288 35 89 42 87 68-1 37-23-8-86-18-140-22l-99-7 18 29c11 16 25 38 33 49 21 31 16 88-9 112-27 23-48 32-65 26z"/><path d="m8779 25765c-14-8-38-30-53-50-36-47-30-91 20-134 62-55 158-32 191 46 40 98-64 189-158 138zm89-51c31-22 29-67-4-93-42-33-76-24-103 27-11 20-10 27 6 44 34 38 68 45 101 22z"/><path d="m2685 25720c-3-5-25-7-50-3-43 5-45 5-45-20 0-48 67-63 114-26 31 24 35 59 7 59-11 0-23-4-26-10z"/><path d="m14385 25676c-5-3-22-7-37-10-22-5-28-12-28-32 0-26 0-26 59-19 33 4 61 3 64-3 7-9-36-53-120-121-37-30-53-50-53-66 0-25 23-55 43-55 7-1 86-7 177-14s168-11 173-9c4 2 7 13 7 23 0 14-11 22-37 29-62 16-165 31-220 31h-52l75 73c60 59 74 78 74 103 0 17-8 38-18 47-17 16-87 30-107 23z"/><path d="m7301 25143c-34-34-130-196-178-300l-36-78-14 34c-27 64-63 216-63 267 0 40-4 53-17 58-49 19-56-89-18-234 36-135 67-198 100-206 37-9 51 8 132 166 85 165 139 250 158 250 21 0 20 56-1 64-26 10-34 7-63-21z"/><path d="m3105 25110c-11-5-49-6-85-3s-245-4-465-16c-579-30-1155-44-1593-40-390 4-408 3-365-32 37-31 1196-21 1923 16 455 23 462 24 518 13 45-8 57-7 72 7 10 9 34 19 54 22s39 10 43 15c14 24-59 37-102 18z"/><path d="m9484 25021c-76-22-134-57-134-81 0-31 20-33 68-7 59 32 156 52 204 43l37-7-34-45c-50-65-89-195-83-279 3-54 9-70 30-91 53-54 180-37 214 27 27 53 8 67-32 24-43-47-136-27-147 31-12 64 43 232 91 277 27 25 27 25 102 9 66-14 82-14 135-1 46 11 60 18 60 32 0 17-11 19-95 22-77 2-111 8-180 33-97 36-147 39-236 13z"/><path d="m8850 24933c-89-45-160-165-160-268 0-131 145-130 245 1l32 41 11-42c27-102 168-147 243-79 25 22 25 49 2 39-63-25-74-27-106-14-18 7-40 19-50 27-26 22-50 116-52 200-1 58-6 77-21 93-34 33-82 34-144 2zm94-39c52-20-31-190-120-244-19-12-41-19-49-16-36 13-1 132 60 205 23 26 65 54 92 61 1 0 8-3 17-6z"/><path d="m7874 24807c-16-43 54-62 195-53 109 7 158 20 111 29-14 3-72 11-130 17s-120 13-137 17c-24 4-34 1-39-10z"/><path d="m7435 24747c-17-8-45-31-63-51-27-31-32-45-32-86 0-43 3-50 20-50 16 0 20 7 20 31 0 44 65 109 108 109 37 0 57-29 48-71-8-41-54-106-91-129-69-43-115-13-115 75 0 42-4 57-16 62-20 8-32-11-40-64-13-87 56-162 136-148 128 22 230 216 157 300-27 32-88 42-132 22z"/><path d="m7894 24659c-3-6-1-16 5-22 12-12 47-13 189-9 75 2 82 4 82 22 0 19-7 20-134 20-86 0-137-4-142-11z"/><path d="m15614 23795c-9-23 3-32 51-37 81-10 156-84 141-142-3-13-28-54-56-92-27-38-50-77-50-86 0-57 92-78 234-54 140 23 135 30-34 46-69 6-126 13-127 14-2 1 9 18 23 37 51 68 66 109 62 165-6 65-40 113-101 143-51 25-135 29-143 6z"/><path d="m13311 23718c-102-136-201-408-201-551 0-136 70-217 168-191 38 11 27 34-16 34-25 0-45 7-54 18-25 28-41 116-33 180 17 133 97 344 179 471 25 39 46 76 46 81 0 6-11 10-25 10-18 0-35-14-64-52z"/><path d="m14918 23673c-16-28-89-249-102-310-7-31-9-32-69-35-56-3-62-5-65-25-3-22 0-23 52-23 63 0 62 4 41-90-18-80-19-152-3-168 21-21 82-14 124 14 53 35 94 75 94 91 0 20-20 16-80-15-30-16-63-31-73-35-21-8-21-14 9 129l15 71 71 6c39 3 73 8 75 11 14 14-14 26-62 26s-81 13-56 22c6 1 12 28 15 58s22 104 41 163c20 60 34 115 31 123-9 23-41 16-58-13z"/><path d="m15403 23673c-4-9 5-35 21-62 108-182 140-354 97-523-22-86-64-176-87-185-8-3-21 0-30 7-12 11-116 12-507 7-707-10-1703-27-1982-35-239-7-240-7-243-29-3-23-3-23 170-23 95 0 589 7 1098 15 509 9 1059 15 1223 14 278-2 299 0 318 17 92 83 143 328 105 504-19 88-80 221-126 273-36 41-47 45-57 20z"/><path d="m13762 23638c-5-7-51-85-101-173l-92-160-54 3c-53 4-55 3-55-21 0-22 6-26 40-32 22-4 40-8 40-10 0-1-9-22-20-46-20-44-26-115-12-135 35-51 172 10 172 77 0 26-20 24-45-6-11-13-32-27-47-31-36-8-37 12-3 84l24 52h86c47 0 85 4 85 9s-29 14-65 21-67 16-70 20c-3 5 33 78 80 163s85 164 85 176c0 24-31 29-48 9z"/><path d="m14355 23568c-3-7-11-53-18-103l-12-90-80-5c-77-5-80-6-80-30s2-25 75-28l76-3-4-99c-5-107 0-133 21-124 9 3 18 40 26 112 7 59 14 108 16 111 2 2 24 6 50 8 35 5 45 10 45 24 0 16-8 19-45 19h-45l6 43c3 23 10 69 15 101 4 32 6 63 3 67-8 14-44 11-49-3z"/><path d="m8848 23528c-106-145-223-402-279-615-40-151-46-300-14-332 28-27 75-38 75-18 0 9-9 19-20 22-27 9-34 42-25 123 21 203 162 573 292 769 34 52 38 83 10 83-8 0-25-15-39-32z"/><path d="m12605 23506c-59-27-114-106-141-203-14-53-15-69-5-103 26-87 142-90 234-5 24 23 27 24 27 7 0-55 68-148 92-124 9 9 7 17-7 32-25 27-32 139-15 219 11 52 10 61-8 97-41 80-110 111-177 80zm112-72c23-24 32-42 27-53-3-9-10-31-14-49-12-49-36-80-88-113-92-58-148-28-122 64 26 96 99 187 149 187 7 0 29-16 48-36z"/><path d="m5708 23434c-5-4-8-15-8-25 0-13 15-22 53-33 29-8 64-27 77-41l24-25-62-63c-68-69-78-100-41-133 19-17 37-19 146-19 97 0 126 3 133 15 14 23 5 27-77 34-43 4-95 10-116 13l-38 6 44 46c72 75 82 109 46 155-36 45-159 93-181 70z"/><path d="m10915 23420c-7-11 11-48 65-131 47-72 93-189 110-276s7-260-19-340c-32-97-55-136-116-192-38-34-55-56-51-67 5-13 12-12 47 8 180 101 264 397 189 667-50 177-191 386-225 331z"/><path d="m3070 23338c-22-50-85-256-95-311-7-37-8-37-55-37-35 0-50-4-54-16-9-24 1-33 45-40 29-5 39-11 35-21-4-8-9-45-12-83-6-61-5-69 16-90 17-17 29-21 53-16 38 8 92 57 118 109 30 58 13 65-40 14-25-25-57-50-70-57-24-12-24-12-17 41 14 109 5 101 119 97 78-2 101 0 105 11 7 20-14 28-105 41l-84 12 7 32c4 17 26 96 50 176 50 167 52 180 23 180-14 0-26-12-39-42z"/><path d="m742 23344c-12-8-32-34-45-57-22-41-22-49-22-382 0-363-2-381-52-482-14-28-23-59-20-67 8-20 41-21 57-1 20 24 56 18 83-14 52-63 58-142 46-651-4-193-4-196 21-245 35-67 84-94 138-73 52 19 49 44-4 40-48-3-65 12-88 81-19 58-20 112-4 375 14 233 4 377-33 462-23 54-69 100-99 100-17 0-17 2-2 53 14 44 16 107 17 402 0 312 2 353 17 382 20 36 36 44 60 29s42 5 34 38c-5 22-12 26-44 26-21 0-48-7-60-16z"/><path d="m10516 23338c-3-7-30-90-61-184-54-165-57-171-80-166-14 2-41 1-60-2-52-10-43-38 15-49 25-5 46-10 47-11 1 0-5-26-13-56-20-78-18-107 11-135 34-35 93-34 134 1 34 28 42 64 14 64-9 0-27-10-39-21-17-16-30-20-48-15-31 8-33 26-10 108l17 59 43-6c24-3 64-7 88-10 47-6 69 7 39 24-10 5-48 15-83 22-36 7-66 13-67 14-1 0 20 70 48 155 51 159 58 212 26 218-9 2-19-2-21-10z"/><path d="m5418 23248c-19-46-50-124-68-175-36-102-25-93-140-105-17-2-25-9-25-23 0-17 8-20 58-23 47-2 58-6 53-18-3-8-11-44-18-80-10-56-9-69 5-99 15-31 21-35 54-35 21 0 52 9 69 19 46 28 85 121 51 121-8 0-19-11-25-25-14-29-77-64-92-49-6 6-4 35 5 79 19 92 21 95 44 95 11 0 54 7 96 17 62 13 75 20 75 35 0 16-5 19-27 14-74-13-143-17-143-7 0 6 23 71 51 143 28 73 53 148 56 166 5 29 3 32-20 32-22 0-29-10-59-82z"/><path d="m7585 23319c-4-5-2-90 4-187 23-372 24-375 62-387 32-11 60 23 133 163 82 155 163 279 188 285 28 8 21 61-8 65-46 7-108-72-224-284l-68-127-5 54c-3 30-11 135-17 233-6 99-13 183-16 188-7 12-42 10-49-3z"/><path d="m1898 23285c-9-20-8-28 5-43 14-15 18-56 25-234 8-228 13-248 57-248 29 0 41 15 115 145 69 121 156 247 207 300 43 44 44 75 4 75-23 0-41-12-81-57-60-68-141-187-199-293l-41-75v135c-1 175-13 275-35 300-24 27-43 25-57-5z"/><path d="m9181 23122-63-189-37 8c-20 5-49 9-64 9-24 0-28-4-25-22 3-21 18-29 79-42l26-6-25-86c-35-123-16-165 60-133 28 12 108 100 108 120 0 16-26 10-45-11-21-23-85-63-85-52 0 4 10 40 22 80l21 73 75-7c61-5 74-4 70 7-3 8-31 22-64 32l-59 17 57 173c32 94 57 181 56 192-2 11-12 21-23 23-18 2-28-20-84-186z"/><path d="m13886 23218c-25-38-48-100-62-163-18-80-17-105 1-105 8 0 15 5 15 10 0 6 23 64 51 129 29 66 49 126 46 135-9 23-34 20-51-6z"/><path d="m1327 23156c-60-17-87-41-87-79 0-37 29-87 52-87 25 0 31 18 17 52-11 27-10 32 5 43 25 19 102 28 126 15 19-10 19-13 5-39-17-34-85-95-175-158-98-69-130-102-130-135 0-48 27-51 270-38 118 7 218 14 223 17 4 2 7 10 7 18 0 22-62 30-237 28l-162-1 87 68c107 83 178 157 186 197 8 37-7 78-33 93-33 17-103 20-154 6z"/><path d="m15080 23155c-15-19-5-35 24-35 12 0 30-6 40-13 17-13 17-16-8-65-29-56-32-82-14-100 17-17 50-15 112 9 68 25 101 51 93 72-5 13-13 12-64-9-80-32-85-32-67 11 15 38 18 93 6 113-9 13-64 32-93 32-9 0-22-7-29-15z"/><path d="m4741 23128c-83-43-141-151-141-263 0-66 22-95 73-95 55 0 120 55 184 156 10 16 12 10 12-39 1-51 5-62 30-88 23-22 39-29 69-29 45 0 92 31 92 61 0 23-23 25-40 4-17-20-55-19-75 2-14 13-16 28-11 72 3 31 9 93 12 137l7 82-39 6c-115 18-128 18-173-6zm124-48c12-20-93-191-141-229-43-34-64-28-64 17 0 61 29 131 75 178 36 38 47 44 83 44 22 0 44-4 47-10z"/><path d="m11684 23135c-4-9-1-49 5-91 17-113 23-104-74-104-70 0-86-3-93-17-19-36-4-43 89-43h89l1-37c2-162 3-168 24-168 18 0 21 10 29 102l9 102 46 7c120 17 126 19 126 39 0 19-6 20-85 17l-86-4-12 88c-7 48-17 96-23 106-12 22-37 24-45 3z"/><path d="m4016 23122c-3-5-8-38-12-74l-6-65-72-9c-61-8-71-12-71-29 0-18 8-20 72-23l72-3 3-67c2-52 7-67 19-70 13-2 17 11 23 69 3 40 8 74 9 76 2 1 48 6 103 10 78 6 99 11 99 23s-21 17-98 24l-98 9 1 56c1 31 1 62 1 69-1 13-37 17-45 4z"/><path d="m10017 23124c-4-4-7-28-7-54s-3-68-6-94l-7-46h-74c-71 0-74-1-71-22s9-23 71-26l67-3-1-52c0-29-4-79-8-112-5-33-7-62-5-64 9-10 19 16 44 112l27 102 74 5c57 4 74 8 74 20 0 11-18 17-70 23l-70 8v102c0 84-3 102-15 105-9 1-19 0-23-4z"/><path d="m6550 23071c0-34 26-43 167-52 223-15 246-15 250-2 11 29-208 73-369 73-40 0-48-3-48-19z"/><path d="m6688 22929c-54-4-104-9-113-13-15-6-21-41-7-49 8-6 390 21 410 28 8 3 12 11 10 18-6 16-168 24-300 16z"/><path d="m2408 22891c-49-16-86-51-114-106-22-45-26-65-22-110 6-73 26-95 89-95 38 0 56 6 90 33 87 66 126 195 77 252-25 28-76 39-120 26zm85-72c32-51-86-202-143-184-19 6-21 12-17 68s8 64 46 100c33 30 48 38 73 35 17-2 35-10 41-19z"/><path d="m9512 22838c-35-43-62-253-33-253 13 0 54 116 77 219 9 37-21 61-44 34z"/><path d="m5616 22832c-10-17-66-325-66-367 0-61 23-60 44 3 19 59 53 227 62 310 6 58 5 62-14 62-12 0-23-3-26-8z"/><path d="m3351 22812c-30-56-41-320-14-329 7-3 14 9 17 29 3 18 14 93 26 165 12 73 19 137 15 143-10 16-33 12-44-8z"/><path d="m10680 22815c-10-13-10-19 5-35 24-27 13-63-44-140-26-36-51-73-54-82-10-27 20-48 66-48 69 0 227 53 227 76 0 16-21 18-70 5-19-5-58-11-87-14l-52-6 38 59c47 72 58 118 37 159-8 15-23 31-31 35-22 8-21 8-35-9z"/><path d="m7975 22796c-27-9-43-21-52-42-20-48-16-92 12-119 47-48 158-26 200 39 23 35 22 83-3 108-25 26-100 32-157 14zm120-56c19-30-59-85-103-73-31 8-31 60 1 73 30 12 94 12 102 0z"/><path d="m13990 22561c-15-4-26-15-28-29-3-21 0-22 77-22 82 0 126-12 135-36 9-23-50-80-140-136-46-29-86-59-89-66-2-6 0-23 5-36 15-39 102-44 328-19 47 5 53 8 50 27-3 20-8 21-88 18-47-1-107 1-133 5l-49 8 61 42c76 54 115 104 115 149 0 42-34 80-83 94-40 11-123 12-161 1z"/><path d="m2184 22090c-49-20-131-150-170-271-9-30-20-57-24-62-3-4-32 53-64 127s-64 140-71 146c-23 19-50 8-49-20 2-31 137-335 160-361 37-41 66-12 95 92 25 94 100 247 139 284 23 22 30 25 30 12 0-9 7-17 15-17 10 0 15 10 15 28 0 46-28 62-76 42z"/><path d="m4355 21940c-3-5-39-10-80-10-86 0-165-15-217-41-45-23-54-37-36-55 11-12 21-11 68 7 34 13 89 23 144 27l89 5-6-29c-4-16-14-58-22-94-40-180-5-257 106-230 53 13 119 63 119 91 0 25-12 24-56-6-20-14-45-25-55-25-9 0-24-3-33-6-38-15-37 105 2 234l18 57 131-3c138-4 173 1 173 23 0 15-23 19-184 35-54 5-104 14-110 20-13 13-43 13-51 0z"/><path d="m3605 21871c-90-54-146-189-98-236 28-28 100-15 184 33 39 23 75 39 80 36s9-22 9-42c0-77 67-136 110-97 11 10 20 26 20 37 0 21-4 22-30 8-27-15-34 2-40 100-5 78-7 85-27 88-12 2-25 12-28 22-3 11-20 31-36 45-37 31-100 34-144 6zm125-68c20-26 21-28 3-41-26-20-155-82-170-82-17 0-17 4 8 53 48 93 117 123 159 70z"/><path d="m2666 21845c-15-39 9-45 171-45 119 0 154 3 151 13-6 17-103 36-219 44-86 5-97 4-103-12z"/><path d="m2230 21713c-35-13-61-48-59-78 2-17-1-36-5-44-5-8-1-23 11-38 59-80 215-86 267-11 36 51 5 122-66 157-42 20-113 27-148 14zm115-57c18-8 41-27 51-41 18-27 18-28-10-51-16-15-40-24-59-24-39 0-100 30-103 50-1 8-5 22-9 31-8 22 30 49 68 49 15 0 43-6 62-14z"/><path d="m2632 21688c3-23 4-23 172-21 93 2 171 5 174 8 2 2 2 11-1 20-5 13-32 15-177 15-171 0-171 0-168-22z"/><path d="m15207 21151c-60-6-94-13-105-24-30-31-3-37 108-26 127 13 225 8 244-11 12-12 16-105 21-520 6-424 4-535-9-690-27-305-31-568-11-680 18-103 33-204 30-207 0-2-35-7-76-12-41-6-111-21-156-33-75-20-83-25-83-46s4-24 28-19c15 3 97 13 182 23 85 9 161 22 169 28 17 13 8 134-15 198-20 56-35 286-28 413 3 55 12 192 21 305 12 168 14 297 8 708-4 276-10 515-14 529-13 47-49 65-142 68-46 2-124 0-172-4z"/><path d="m12586 21133c-14-14-4-33 26-49 42-22 126-101 144-137 21-39 11-62-57-134-66-69-74-99-35-137 50-51 231-59 231-11 0 17-9 21-60 26-33 4-75 12-93 19l-32 12 50 55c91 99 90 171-3 267-29 29-66 60-82 68-39 20-80 29-89 21z"/><path d="m10605 20993c-106-106-228-398-253-604-27-219 49-366 173-335 40 10 30 31-15 31-49 0-65 15-90 88-47 135-8 351 110 603 26 55 66 128 89 162 22 33 41 66 41 71 0 20-27 11-55-16z"/><path d="m9518 20994c-48-25-69-83-69-182 1-48 5-114 11-147 31-180 37-1083 9-1320-5-44-12-148-16-231-5-128-3-155 11-182 23-44 68-66 123-58 69 9 233 67 233 82 0 21-11 22-95 8-167-29-180-29-199-3-21 31-21 125 1 310 15 119 18 236 18 679 0 483-2 549-20 675-33 232-26 300 36 326 34 14 86 7 172-22 48-16 62-18 68-7 13 20-23 45-98 68-76 23-147 25-185 4z"/><path d="m12404 20875c-3-8 6-50 21-92 36-105 45-285 21-427-30-174-108-385-143-387-10 0-452 0-983 1-991 2-1140-2-1140-26 0-8 1-14 3-15 1 0 490-5 1087-9 597-5 1155-14 1240-20 154-10 200-8 200 10 0 21-46 31-179 38-77 5-143 10-145 13-3 3 8 32 24 65 36 77 74 195 95 299 20 93 23 306 6 377-32 135-87 225-107 173z"/><path d="m12000 20833c-21-63-121-338-126-342-2-2-21-7-41-10-32-5-38-10-38-31 0-20 6-26 28-28 24-3 28-7 23-25-30-105-31-182-1-207 25-21 92-24 139-6 54 21 95 61 78 78-9 9-21 7-51-10-22-13-56-22-80-22-34 0-42 4-46 23-5 18 26 162 37 172 1 1 52 8 113 15 60 6 111 13 114 15 2 2 1 11-2 20-5 12-25 15-102 15-52 0-95 3-95 7s21 68 46 142c50 147 61 223 32 229-11 2-20-8-28-35z"/><path d="m10910 20763c-32-38-140-247-140-270 0-7-10-15-22-17-104-22-103-21-103-46 0-23 3-25 46-22l46 3-19-57c-23-68-33-142-24-179 15-59 90-55 134 8 19 29 30 77 18 77-2 0-20-16-40-36-44-44-62-40-58 10 3 40 46 174 59 187 4 4 45 12 91 17 46 6 86 13 89 16s3 13-1 22c-5 14-17 16-82 10-74-5-75-5-68 17 11 37 85 179 116 225 24 35 27 46 18 57-18 22-25 19-60-22z"/><path d="m2870 20633c-70-84-154-299-201-513-28-127-33-335-10-414 17-58 86-136 119-136 32 0 27 27-8 57-59 49-65 72-65 243 1 134 5 171 29 274 45 192 117 383 178 469 19 27 19 57-1 57-5 0-24-17-41-37z"/><path d="m11401 20627c-7-10-8-32 0-77 12-77 9-80-84-80-65 0-68-1-65-22s9-23 83-28l80-5v-60c0-33-3-81-7-107-6-38-5-48 6-48 8 0 19 15 25 33 9 28 30 153 31 183 0 7 21 17 46 23 34 9 45 16 42 28-2 14-13 17-49 14l-46-2-6 61c-10 87-29 118-56 87z"/><path d="m6850 20613c0-9 17-37 38-62 79-94 135-199 161-298 67-251 0-561-157-730-39-42-52-47-100-43-35 3-24-32 13-42 117-31 258 144 316 392 32 137 27 335-12 465-47 156-171 335-232 335-19 0-27-5-27-17z"/><path d="m14720 20612c0-10 11-29 25-42 38-36 32-67-25-135-61-72-66-106-18-131 63-33 268 12 268 58 0 16-4 19-22 14-40-12-122-21-160-18l-38 3 34 50c42 60 51 98 36 144-19 58-100 104-100 57z"/><path d="m974 20596c-18-8-38-29-50-52-18-37-19-67-19-584 0-574-3-625-49-735-25-58-21-75 14-75 43 0 82-66 111-184 32-131 32-407 0-666-25-202-30-363-13-425 6-22 26-65 44-95 27-44 42-58 81-74 42-18 53-19 95-7 54 14 82 35 66 51-8 8-19 8-38 0-42-16-91-12-119 10-13 11-37 50-52 87-35 87-36 184-4 448 52 434 20 769-87 881l-34 37 15 56c35 136 44 445 26 906-9 233-2 336 24 365 29 32 63 25 107-21 36-38 58-44 58-14 0 22-52 77-87 91-39 17-49 17-89 0z"/><path d="m5156 20398c-29-62-61-134-71-160l-17-47-67-3c-55-3-66-6-69-22-5-25 14-36 69-36h46l-22-83c-44-165-42-227 10-247 19-7 36-6 63 5 47 20 70 41 93 88 17 32 17 38 5 43-9 4-27-8-46-29-36-42-88-64-96-42-6 15 17 139 40 215 12 43 15 45 57 52 24 3 69 7 99 8 69 1 49 15-36 25-33 3-66 10-73 14-10 6 2 44 49 156 34 81 59 153 56 161-14 37-39 10-90-98z"/><path d="m14241 20448c-27-60-117-325-140-415l-12-42-82-3c-74-3-82-5-82-23 0-17 10-21 70-29 39-5 71-10 73-11 1-1-4-42-13-91-22-127-5-184 57-184 42 0 112 69 137 133 18 49 19 67 3 67-4 0-13-14-21-31-7-17-36-49-65-71l-51-41-3 32c-3 28 23 179 32 188 2 2 70 5 151 6 93 2 150 7 152 14 5 13-90 32-199 40-105 7-105-27-2 281 41 123 72 228 68 233-3 5-14 9-25 9-15 0-27-16-48-62z"/><path d="m6422 20448c-7-7-12-19-12-27 0-9-18-78-41-153l-42-137-61-3c-53-3-61-5-61-23 0-17 8-20 54-23 49-3 53-5 47-25-46-167-42-256 14-275 41-15 92 1 135 42 41 39 51 80 13 52-31-22-59-33-94-38-27-3-29 0-32 31-2 19 6 73 18 121l22 87 60 7c34 3 76 6 94 6 27 0 34 4 34 20 0 18-7 20-86 20-77 0-85 2-80 18 58 182 79 273 70 297-7 18-35 20-52 3z"/><path d="m3720 20408c-20-33-140-331-140-348 0-10-5-11-90-27-39-7-45-11-45-33 0-24 2-25 53-22 28 2 52 2 52 0s-5-19-10-38c-15-49-14-128 0-145 39-47 190 29 190 96 0 21-25 26-37 7-15-23-48-46-75-53-25-6-28-4-28 17 0 37 30 128 43 133 7 3 50 9 96 14 95 10 120 24 75 42-18 7-55 9-96 5l-67-6 24 62c13 35 44 117 69 182 26 66 44 126 42 133-9 23-36 14-56-19z"/><path d="m1536 20412c-2-4-1-77 4-162s10-216 10-290 3-152 6-173c8-44 34-63 63-47 11 5 58 87 104 182 91 184 159 294 232 374 49 53 56 87 18 92-49 7-189-181-293-390-71-143-67-151-73 157-3 116-10 222-16 238-10 26-43 38-55 19z"/><path d="m11092 20397c-11-13-42-170-42-212 0-23 15-41 39-47 8-2 14 8 17 27 1 17 11 74 20 128 15 85 15 100 3 108-19 12-25 11-37-4z"/><path d="m8675 20310c-75-31-155-237-156-404-1-97 17-129 75-134 60-5 126 50 209 173 27 39 27 39 27 12 0-38 23-80 52-95 37-19 114-32 150-26 57 10 108 36 108 55 0 27-14 30-54 14-19-8-51-15-71-15-39 0-105 24-117 43-13 20-9 93 8 168 17 77 14 99-14 99-13 0-32-26-65-92-79-155-200-296-236-273-16 9-13 116 5 198 18 84 76 212 100 221 38 15 69-34 76-119 2-22 8-30 23-30 17 0 20 8 23 52 4 64-25 126-68 148-32 17-46 18-75 5z"/><path d="m3052 20284c-29-20-31-74-2-74 10 0 24 9 30 20 15 28 47 25 81-9 57-58 31-103-138-238-79-63-93-78-93-103 0-23 7-33 32-46 28-14 53-16 174-10 156 7 176 11 172 35-3 14-24 17-140 21-75 3-139 8-142 11-4 3 18 25 49 49 30 23 80 69 110 101 82 89 86 150 16 221-33 32-45 38-83 38-24 0-54-7-66-16z"/><path d="m12137 20293c-13-12-7-44 8-49 21-8 19-17-20-104-29-64-33-83-25-104 7-20 16-26 40-26 64 0 190 89 177 124-9 22-19 20-62-14-21-16-41-30-46-30-4 0-14-3-22-6-12-4-10 7 9 53 32 78 31 116-2 142-27 22-46 26-57 14z"/><path d="m7653 20109c-77-10-123-32-123-61 0-23-1-23 130 1 31 5 113 12 183 16 111 7 127 10 127 25 0 13-12 19-52 24-67 8-186 6-265-5z"/><path d="m5795 20070c-66-4-126-8-132-9-7 0-13-13-13-28v-26l128 7c185 11 217 17 217 41s-21 25-200 15z"/><path d="m4227 20044c-12-4-17-13-15-27 3-21 8-22 143-25 169-3 327 9 332 24 2 6-2 14-10 17-19 7-428 17-450 11z"/><path d="m13067 20024c-4-4-7-18-7-32v-24l218 4c204 4 252 9 252 28 0 4-8 11-17 16-23 10-436 18-446 8z"/><path d="m5432 19988c-48-61-92-223-83-307 6-57 27-80 35-39 2 13 10 52 17 88 6 36 27 106 45 156 19 51 34 97 34 103 0 15-35 14-48-1z"/><path d="m7606 19974c-3-9-4-20 0-25 6-10 267-12 338-3 26 4 46 12 46 19 0 15-107 25-265 25-94 0-114-3-119-16z"/><path d="m6667 19963c-15-14-6-33 18-39 14-3 25-12 25-20s-36-53-80-101c-81-88-96-123-68-151 32-32 258 6 258 43 0 10-23 12-102 7l-103-5 51 59c73 86 84 104 84 146 0 27-6 41-22 52-24 17-50 21-61 9z"/><path d="m3925 19908c-22-65-37-150-42-235-5-91-4-103 10-103 9 0 19 10 22 23 41 179 65 302 61 313-7 17-45 18-51 2z"/><path d="m1995 19878c-16-12-40-22-54-23-22 0-27-8-44-60-12-40-17-80-14-119 3-51 8-63 35-87 53-48 143-37 199 23 53 56 80 176 52 231-31 60-120 78-174 35zm106-47c63-51-19-221-106-221-8 0-24 9-35 20-24 24-28 90-5 90 10 0 15 10 15 28 0 34 8 46 50 77 41 30 51 31 81 6z"/><path d="m14503 19773c-17-40-79-284-85-330-2-22 1-28 16-28 16 0 29 27 73 160 29 88 56 177 60 197 5 36 4 38-21 38-22 0-30-7-43-37z"/><path d="m11285 19676c-62-19-85-35-85-56 0-25 5-25 84 1 168 55 150-31-36-173-43-32-78-65-78-73s11-22 25-31c21-14 40-16 110-10 120 10 244 31 256 43 35 35-26 39-231 16l-55-6 73 68c81 75 102 108 102 157 0 42-8 54-43 67-36 14-72 13-122-3z"/><path d="m1590 18925c-31-82 19-578 66-652 17-27 45-30 66-5 8 9 43 76 77 147 91 191 152 295 174 295 15 0 18 7 15 33-2 26-8 33-29 35-41 5-88-59-183-249l-84-166-11 61c-19 111-33 249-40 386-5 117-8 135-23 138-12 2-21-6-28-23z"/><path d="m3661 18678c-50-14-77-35-96-74-29-61 7-92 41-36 24 42 51 54 126 60l68 5-20-45c-66-150-67-322-1-358 47-25 123 4 140 52 14 39 14 38-2 38-7 0-20-9-30-20-19-22-57-26-75-8-21 21-14 136 14 213 14 39 28 81 31 93 5 21 10 23 37 18 17-4 64-9 104-13 67-5 74-4 70 12-9 49-301 94-407 63z"/><path d="m3104 18591c-93-57-165-247-120-316 14-21 24-25 62-25 50 0 85 15 157 67l47 35v-30c0-38 36-90 80-114 45-24 113-19 143 11 29 28 11 46-35 35-44-10-58-7-90 23-33 32-44 89-28 158 10 46 9 51-9 67-12 9-21 22-21 30 0 7-6 20-13 28-40 52-117 65-173 31zm137-70 32-29-22-36c-43-69-170-156-207-142-21 8-14 48 21 124 49 108 115 139 176 83z"/><path d="m2406 18497c-54-13-79-38-58-59 9-9 32-8 104 6 51 10 126 20 166 23 61 5 72 9 72 24 0 18-9 19-117 18-65 0-140-6-167-12z"/><path d="m2529 18414c-153-31-171-38-167-67 4-31 42-27 188 19 95 30 120 42 120 56 0 22 3 22-141-8z"/><path d="m1953 18351c-17-11-33-28-36-38s-10-39-17-65c-7-27-10-71-8-100 9-86 77-130 146-94 118 62 159 241 68 297-41 25-111 25-153 0zm121-52c37-29 35-74-6-135-63-94-118-82-126 26-4 59-4 60 22 60 31 0 34 16 5 25-20 7-20 8 7 26 37 24 65 24 98-2z"/><path d="m16244 17965c-3-8 20-72 51-142 111-249 145-396 145-623 0-213-37-386-120-566-37-80-61-120-173-281-58-84-66-103-45-103 28 0 96 61 150 134 110 150 196 348 235 543 22 107 25 410 5 518-28 155-100 349-178 476-35 58-59 73-70 44z"/><path d="m10726 17891c-86-142-166-349-221-571-58-237-76-374-76-593-1-185 15-287 59-381 29-61 113-156 139-156 30 0 21 28-26 78-91 97-117 224-108 524 10 348 97 699 258 1037 32 68 59 128 59 132 0 5-8 9-18 9-12 0-34-27-66-79z"/><path d="m13452 17761c-8-5-12-17-10-27 3-15 11-18 41-16 38 3 77-11 77-29 0-6-14-28-31-49-38-47-34-84 9-101 56-22 232 10 232 42 0 8-15 10-51 5-28-4-70-4-94 0l-43 6 19 32c28 46 25 100-7 125-28 22-115 29-142 12z"/><path d="m3320 17649c-102-146-205-379-255-576-36-144-46-225-46-353 1-190 39-290 131-336 47-24 100-31 100-14 0 6-19 19-43 29-50 22-90 65-108 118-23 65-17 318 10 443 46 215 152 480 269 673 43 71 45 87 12 87-13 0-37-25-70-71z"/><path d="m11249 17608c-124-257-229-724-201-893 12-75 53-145 83-145 25 0 24 10-7 67-25 46-26 53-21 173 5 134 30 266 92 475 36 124 94 284 124 343 21 42 18 62-10 62-15 0-30-21-60-82z"/><path d="m8298 17606c-108-92-143-147-102-163 10-4 30 10 61 43 24 27 42 42 39 34s-26-65-51-126c-34-85-44-118-39-143 4-17 10-31 14-31 12 0 34 39 54 95 10 28 45 109 78 182 85 189 72 216-54 109z"/><path d="m15767 17613c-4-3-7-15-7-25 0-15 8-18 50-18 40 0 56-5 75-24 32-32 25-52-41-126-59-67-70-105-34-128 28-17 123-25 195-15 52 7 60 11 63 31s0 22-50 22c-29 0-77 3-105 6l-53 7 40 50c73 91 75 166 6 208-30 19-125 27-139 12z"/><path d="m13150 17583c0-9 22-50 49-92 98-154 142-269 156-411 14-135-32-355-102-495-14-27-50-73-80-102-51-50-60-73-28-73 8 0 41 25 75 57 50 46 70 75 110 157 54 113 75 184 89 301 12 100 0 244-29 340-43 141-168 335-216 335-16 0-24-6-24-17z"/><path d="m5920 17575c-10-12-8-21 8-47 90-145 122-266 122-459 0-226-46-439-130-603-29-56-38-82-30-90 20-20 44 9 97 115 58 114 94 231 119 376 23 133 15 368-16 473-25 87-68 173-110 218-32 36-42 39-60 17z"/><path d="m15406 17558c-23-31-111-243-167-400-22-64-26-68-54-68-40 0-70-22-62-44 4-11 18-16 43-16 31 0 35-3 29-17-4-10-10-50-12-90-5-70-5-73 25-102 24-25 39-31 72-31 77 0 130 36 130 89 0 25-9 27-25 5-8-12-29-17-71-18-59-1-59-1-62 32-2 18 2 57 8 86l11 53 61 7c33 3 82 6 108 6 33 0 50 5 53 15 9 22-7 27-104 33-49 2-89 9-89 14 0 11 120 335 149 402 16 37 19 52 10 62-17 21-25 17-53-18z"/><path d="m11677 17547c-8-18-38-105-68-194l-53-162-36-3c-27-2-35-7-35-23 0-14 8-21 26-23l26-3-24-82c-30-101-41-220-23-242 20-24 74-19 108 10 29 24 72 98 72 123 0 7-9 12-20 12s-20-6-20-14c0-16-89-101-97-92-6 6 22 137 49 224l19 62 77 1c96 1 167 11 167 24 0 6-49 14-110 18-60 5-111 10-113 12s14 57 37 123c50 149 74 240 66 252-12 20-35 9-48-23z"/><path d="m1520 17543c0-10 24-89 54-176l54-158-43-86c-90-175-83-313 15-313 41 0 73 14 113 49l34 31 103-205c77-154 107-205 121-205 10 0 20 4 24 9 3 5-26 73-65 150-71 143-130 281-130 305 0 7 6 19 14 25 11 9 14 3 19-30 11-80 99-137 170-110 18 7 27 18 27 32 0 19-4 20-34 15-45-9-62-1-87 41-20 31-21 42-14 139 7 104 7 104-18 104-23 0-25 5-32 56-9 71-33 99-81 91-19-3-47-15-62-26l-29-20-54 147c-46 125-57 147-76 150-17 3-23-2-23-15zm260-369c0-57 3-67 20-71 11-3 20-7 20-9 0-9-45-74-51-74-4 0-20 37-37 83l-30 82 26 28c42 44 52 36 52-39zm-85-141 28-77-41-37c-75-66-110-54-91 32 12 58 59 170 69 164 4-2 20-39 35-82z"/><path d="m3913 17502c-7-4-16-25-22-47-5-22-29-96-54-165l-45-125-86 4c-86 3-86 3-86-22 0-20 6-25 38-31 20-3 54-6 75-6 20 0 37-4 37-10 0-5-9-33-21-62-34-87-59-206-49-234 8-20 16-24 52-24 76 1 155 54 173 118 8 28-11 29-40 2-22-20-125-65-125-55 0 3 18 62 41 131l41 126 96-3c64-2 97 1 99 8 5 13-9 18-104 33-40 7-73 13-73 14 0 2 22 68 50 147 52 152 57 178 38 197-14 14-19 14-35 4z"/><path d="m5322 17493c-5-10-33-86-63-170l-54-152-84-3c-46-2-86-7-88-13-8-26 18-39 82-43 48-3 65-8 61-17-39-102-57-222-38-251 12-19 49-34 82-34 64 0 160 61 160 102 0 25-17 23-50-6-29-24-111-43-131-30-13 8-6 54 24 148 26 83 32 86 168 86 79 0 99 3 99 14s-20 16-77 21c-43 3-92 8-109 11l-31 4 55 161c29 88 51 166 48 174-8 21-43 19-54-2z"/><path d="m12777 17503c-2-5-21-70-43-146l-38-139-66 4c-63 3-65 2-65-22 0-26 23-37 82-39l31-1-19-72c-32-122-40-191-28-227 20-58 90-52 129 11 21 35 26 83 10 93-5 3-19-9-30-29-12-19-27-37-35-40-22-8-18 31 13 154l27 105 67 6c38 3 71 8 74 12 14 14-11 27-54 27-26 0-52 4-58 8-8 5-1 47 23 142 18 74 31 140 29 147-6 14-42 18-49 6z"/><path d="m9425 17428c-3-8 12-52 34-98 68-148 68-147 36-226-67-166-27-262 86-206l40 20 15-37c8-20 38-91 66-158 46-114 66-140 83-113 3 5-21 82-55 170-33 87-60 163-60 167 1 4 18 28 40 52l38 44 12-43c16-60 67-110 112-110 18 0 39 4 47 9 19 12 5 31-24 31-41 0-71 49-89 146-16 89-27 108-58 98-15-4-18 1-18 26 0 37-39 80-72 80-13 0-39-11-58-24l-35-24-50 102c-48 97-77 127-90 94zm255-227c5-11 10-35 10-55 0-24 5-36 16-38 13-2 7-13-23-48l-40-44-21 54c-11 30-23 62-27 71-7 19 39 79 61 79 7 0 18-9 24-19zm-101-170c11-30 20-56 18-57-7-5-67-34-72-34-11 0-5 57 12 102 9 26 18 47 19 45 1-1 12-26 23-56z"/><path d="m2241 17310c-106-28-168-75-146-110 10-16 32-12 70 14 34 23 121 47 223 61l43 5-17-31c-26-51-64-217-64-281 0-33 7-74 15-92 17-36 61-66 97-66 27 0 68 38 68 63 0 27-20 30-42 7l-21-22-26 26c-22 23-26 35-25 84 1 66 36 207 64 263 23 45 17 45 147-18 75-37 103-46 150-47 46-1 58 2 61 15 2 12-7 18-35 24-20 4-86 32-146 63l-109 57-116 2c-91 2-133-1-191-17z"/><path d="m12258 17275c-3-3-3-46 0-95l5-89-34-5c-19-3-56-7-84-8-42-3-50-6-50-23 0-18 8-20 83-23l82-3v-104c0-96 2-105 19-105 20 0 31 40 31 116 0 23 3 55 6 72 6 29 11 32 66 43 73 15 71 33-4 37l-55 3-6 77c-3 43-9 86-13 95-6 16-34 23-46 12z"/><path d="m14640 17253c-8-3-27-17-42-31-21-19-28-35-28-64 0-33 3-38 23-38 17 0 25 8 32 32 16 53 105 66 120 18 9-29-9-55-105-155-97-100-111-126-84-156 15-17 31-19 128-18 154 1 201 9 201 34 0 26-64 38-173 31l-84-5 77 80c77 81 105 127 105 173 0 39-21 76-51 92-28 14-90 18-119 7z"/><path d="m7022 17173c-54-3-75-8-79-19-12-31 12-34 177-23 270 17 290 19 290 35 0 12-27 14-157 12-87-1-191-4-231-5z"/><path d="m8054 17157c-9-25 3-36 63-53 106-31 373-15 373 22 0 11-22 14-117 14-107 0-163 6-275 26-29 5-39 3-44-9z"/><path d="m8964 17125c-11-28 4-45 40-45 35 0 50 17 40 45-4 9-19 15-40 15-22 0-37-6-40-15z"/><path d="m4728 17115c-2-3-65-8-139-11s-138-10-144-15c-6-6-6-16 2-27 9-14 24-17 79-15 101 4 244 41 244 64 0 9-33 13-42 4z"/><path d="m6960 17075c-35-42 53-78 228-95 143-13 185-13 207 4 36 26 4 42-97 49-80 6-207 28-299 52-18 4-30 1-39-10z"/><path d="m13790 17076c-17-21-6-44 27-57 56-21 405-10 419 13 13 21-17 26-207 36-107 6-202 14-211 17-8 3-21-1-28-9z"/><path d="m11882 16963c-10-20-20-111-29-280-5-100-4-113 10-113 18 0 18 0 42 139 25 148 31 251 14 262-20 13-27 11-37-8z"/><path d="m4153 16952c-44-29-115-314-98-393 9-42 33-37 40 9 12 79 39 190 66 271 16 47 29 90 29 97 0 15-23 25-37 16z"/><path d="m5556 16945c-10-26 5-45 35-45 17 0 29-5 29-12 0-18-32-69-85-133-25-31-45-65-45-75 0-34 36-60 81-60 87 0 259 63 259 95 0 19-2 19-78-5-35-11-91-20-124-20h-60l34 43c81 97 100 165 58 207-25 25-95 28-104 5z"/><path d="m8175 16935c-5-2-22-6-37-9-22-5-28-12-28-31 0-25 1-25 68-19 77 7 112-4 112-37 0-12-40-62-101-124-86-88-100-108-97-132 2-19 12-32 32-42 68-32 353 56 312 96-4 4-44 0-89-10-45-9-104-19-132-23l-50-6 76 78c112 115 135 176 86 222-34 32-111 51-152 37z"/><path d="m15606 16886c-30-64-54-148-56-202-3-57-1-64 14-64 8 0 25 32 41 78 15 42 40 107 56 145 31 73 29 97-6 97-19 0-29-12-49-54z"/><path d="m12867 16913c-17-16-6-43 21-49 62-15 66-38 21-127-48-94-51-112-27-143 19-24 26-26 70-21 79 10 238 93 238 125 0 17-5 16-68-14-54-25-167-52-177-42-3 3 10 38 30 79 19 40 35 84 35 97 0 31-26 79-49 92-22 11-84 14-94 3z"/><path d="m11684 15935c-8-21 2-32 37-39 43-8 98-52 114-89 16-40 7-70-45-146-33-50-41-69-38-99 4-55 36-67 178-67 97 0 115 2 118 16 2 13-17 19-101 33-131 23-136 26-110 62 87 124 84 227-9 297-30 23-94 47-126 47-7 0-15-7-18-15z"/><path d="m9497 15874c-12-12-8-44 6-44 33 0 119-33 147-56 49-42 43-62-57-184-72-87-55-141 50-160 23-5 60-5 82-1 31 5 41 11 43 29 3 20-1 22-41 22-47 0-107 17-107 30 0 4 22 36 50 70 54 67 76 123 66 163-9 38-51 83-99 106-47 22-128 37-140 25z"/><path d="m5420 15828c-19-5-41-17-47-26-31-40 4-84 36-45 9 11 31 23 50 27 33 6 31 4-43-68-70-67-77-77-74-108 4-46 29-55 181-62 110-5 128-4 134 10 10 26-8 33-124 46-62 6-113 16-113 22 0 5 29 40 65 77 46 47 65 75 65 93 0 43-51 56-130 34z"/><path d="m11347 15776c-8-8-52-109-98-225l-84-211h-47c-44 0-48-2-48-25 0-21 6-26 39-31 38-6 38-6 30-43-5-20-9-57-9-83 0-39 5-50 26-67 15-12 37-21 51-21 59 0 131 53 159 118 23 51-1 74-27 26-13-26-94-74-124-74-10 0-15 10-15 33 0 27 17 106 23 107 1 1 46 5 101 10 54 4 103 13 109 19 15 15-3 20-105 29l-86 7 74 190c42 105 79 194 85 200 5 5 9 19 9 32 0 18-6 23-24 23-14 0-31-6-39-14z"/><path d="m7751 15718c-18-45-101-313-101-326 0-2-42-2-92-1-93 4-93 4-93-21 0-21 6-26 40-32 22-4 59-7 82-7l41-1-24-87c-13-49-24-103-24-120 0-38 30-73 62-73 35 0 106 39 129 71 30 42 15 52-38 24-25-14-57-25-70-25-26 0-27-4 11 130l21 75 67 6c93 8 108 25 32 35-90 12-87-9-27 200 29 102 51 190 47 195-3 5-13 9-23 9-13 0-25-16-40-52z"/><path d="m7074 15728c-4-7-39-106-77-220l-68-208-42-1c-23 0-60-3-82-7-34-6-40-11-40-32 0-25 1-25 72-22l72 4-20-62c-35-114-20-180 42-180 49 0 139 78 139 119 0 19-23 12-50-14-15-14-41-29-58-34-39-12-40-6-9 99 25 84 30 87 130 89 42 1 57 5 57 15 0 19-22 26-86 26-30 0-54 3-54 8 0 4 22 73 49 154 66 197 79 257 60 269s-26 11-35-3z"/><path d="m9142 15685c-11-14-41-91-67-170l-46-144-67 2c-63 2-67 1-70-20-4-27 28-43 84-43 29 0 34-3 30-17-32-105-34-195-6-223 40-40 135-17 165 40 21 40 4 46-50 20-24-12-50-18-56-14-13 8-7 84 11 145 10 35 11 36 72 43 67 7 84 16 75 40-5 12-21 16-62 16-30 0-55 1-55 3 0 8 89 266 100 289 11 22 11 30 0 43-18 22-36 19-58-10z"/><path d="m4895 15643c-9-31-35-100-57-153l-40-97-85-6c-93-5-128-22-104-51 9-11 28-13 87-9 40 3 74 3 74-2 0-4-7-34-16-67-21-81-16-126 17-150 20-15 34-18 64-12 64 12 144 99 115 128-7 7-19 2-37-16-28-27-72-48-99-48-17 0-14 19 18 118 20 62 20 62 61 63 23 1 57 1 75 0 53-4 36 17-25 30-32 7-61 15-65 18s6 36 22 72c42 99 74 204 67 223-4 9-17 16-31 16-21 0-27-8-41-57z"/><path d="m8630 15565c-7-9-18-54-23-100l-11-85h-82c-64 0-83-3-88-15-13-36 3-45 85-45h80l-7-64c-5-46-3-65 6-71 18-11 37 17 44 68 4 23 10 48 14 54 4 7 40 15 80 19 59 6 72 10 72 24s-12 18-66 23c-36 2-67 7-70 9-2 3 1 42 7 87s8 88 5 96c-7 19-30 19-46 0z"/><path d="m10640 15519c-42-17-60-40-60-76 0-30 3-33 29-33 20 0 30 6 34 20 5 20 47 36 72 26 42-16 6-82-122-225-117-130-100-150 109-132 133 11 155 18 145 44-6 17-110 29-177 20l-45-6 20 24c11 13 42 48 68 78 62 69 87 120 87 174 0 33-6 49-24 66-28 27-97 37-136 20z"/><path d="m5906 15511c-3-5-9-43-12-84l-7-75-45-6c-25-3-62-6-83-6-35 0-39-3-39-25 0-31 27-39 110-33 68 5 70 3 70-77 0-61 7-85 25-85 15 0 25 45 25 116 0 36 4 54 13 55 6 0 48 6 92 12 62 10 80 16 83 30s-5 17-55 18c-32 1-75 1-95 0l-37-3-3 84c-2 68-6 83-20 86-9 2-19-1-22-7z"/><path d="m6477 15510c-38-12-57-29-57-52 0-26 25-33 52-14 33 23 84 21 102-5 27-40-11-92-119-164-93-61-108-76-99-99 9-24 46-30 163-23 148 9 183 16 179 36-3 17-59 28-153 30-47 2-49 3-30 17 82 61 125 122 125 177 0 51-15 76-55 93-38 15-66 17-108 4z"/><path d="m9922 15264c-9-7-12-18-8-32 10-31 92-38 212-18 102 17 138 30 131 49-5 16-313 17-335 1z"/><path d="m2575 15256c-105-33-165-87-165-146 0-64 51-69 61-6 4 22 15 46 25 54 52 40 167 67 224 53 19-5 27-9 18-10-11-1-21-15-28-43-6-24-18-65-25-93-54-194-80-409-55-454 27-51 77-47 100 9 16 38 4 52-19 22-54-72-40 92 36 398 19 80 37 146 38 148 2 2 33-6 70-17 38-12 95-21 131-21 57 0 64 2 64 20 0 15-7 20-26 20-29 0-103 20-211 56-80 27-172 31-238 10z"/><path d="m11545 15153c-14-65-29-132-34-148-20-76 22-74 56 3 28 63 67 228 59 249-3 7-16 13-30 13-23 0-26-7-51-117z"/><path d="m5185 15158c-41-103-53-174-36-206 16-30 24-28 37 11 6 17 28 82 49 143 39 114 40 144 6 144-15 0-27-21-56-92z"/><path d="m7270 15218c-36-59-61-140-67-221-6-72-5-79 12-76 12 3 22 21 32 59 7 30 31 97 52 150 21 52 36 101 34 108-9 23-43 12-63-20z"/><path d="m7926 15185c-9-24 4-45 28-45 11 0 27-4 35-9 15-10 18-6-68-130-40-57-42-108-5-117 82-21 267 58 214 91-5 3-33-1-62-10-28-8-62-15-76-15-24 0-24 0 6 38 87 110 93 164 25 200-31 17-90 15-97-3z"/><path d="m9284 15176c-30-23-7-52 39-48 19 2 38-1 41-6 3-6-23-50-59-98-63-86-72-105-59-138 9-25 67-30 123-11 46 15 148 91 137 103-3 2-27-4-53-15s-67-23-91-27l-42-6 43 59c58 77 72 112 60 148-16 48-96 70-139 39z"/><path d="m3294 15126c-4-10-2-22 4-28 18-18 181-31 285-23 83 6 97 9 97 25 0 15-14 18-112 24-62 4-148 9-190 13-67 5-78 4-84-11z"/><path d="m3460 14930c-145-5-145-5-145-30 0-24 2-25 85-28 78-3 260 12 303 24 9 3 17 14 17 25 0 17-7 19-57 17-32-1-123-5-203-8z"/><path d="m10915 14894c-137-7-414-24-615-38-616-43-747-47-1793-48-796-1-1101 2-1427 15-296 12-637 17-1190 17-426 0-849 5-940 10-276 17-274 17-278-1-10-52 133-60 1283-69 580-5 1114-14 1255-21 316-17 2224-17 2540 0 118 7 370 23 560 36 393 28 910 55 1049 55 137 0 321 20 321 35 0 28-329 32-765 9z"/><path d="m9743 14683c-7-18-2-27 79-146 160-234 164-454 14-770-34-71-63-113-117-171-103-110-67-119 46-11 103 99 192 267 231 431 18 78 20 238 4 308-23 104-99 241-181 331-44 48-66 56-76 28z"/><path d="m7534 14671c-132-80-290-423-324-704-18-147 13-301 73-365 29-32 88-61 129-64 27-2 33 1 33 16 0 13-12 23-40 33-89 31-123 95-132 246-9 164 33 344 127 543 55 118 114 208 165 253 56 49 33 81-31 42z"/><path d="m7742 14583c-15-6-107-160-157-264l-35-74-68-10c-58-9-67-13-70-32-3-22 0-23 52-23 31 0 56-2 56-3 0-2-9-30-20-62-48-140-5-217 96-169 38 18 104 87 104 108 0 29-21 26-55-7-19-18-50-38-70-44-33-10-35-10-35 10 0 12 12 57 27 101l27 79 88-6c58-4 90-2 94 5 12 19-24 35-91 43-63 6-63 6-54 34 5 15 41 85 79 155 39 71 70 134 70 141 0 15-19 24-38 18z"/><path d="m9172 14473c-10-16-36-71-57-123s-41-98-44-102-35-11-71-15c-61-7-65-10-65-33s4-25 52-28l52-3-29-80c-36-97-40-173-11-189 29-15 75-12 118 7 52 24 123 81 123 100 0 18-8 16-95-21-108-46-115-34-61 104 36 93 40 96 136 99 53 2 75 13 67 35-5 12-21 16-72 16-36 0-65 4-65 8 0 12 68 180 82 201 29 48-28 70-60 24z"/><path d="m6734 14373c-29-6-52-49-38-71 15-23 55-28 66-8 12 22 178 24 178 2 0-20-85-94-186-162-73-49-104-78-104-98 0-2 7-12 16-20 20-21 139-21 253-1 130 23 126 32-23 48l-106 12 46 29c74 47 162 133 174 172 10 29 9 39-5 60-9 14-27 29-41 34-24 10-187 12-230 3z"/><path d="m8435 14230-180-5v-25c0-25 1-25 100-28 89-3 229 9 293 25 13 3 22 13 22 24 0 15-6 18-27 17-16-1-109-5-208-8z"/><path d="m7973 14172c-18-11-64-206-70-300-6-77-5-84 12-81 24 5 112 354 94 375-13 16-19 17-36 6z"/><path d="m9442 14050c-41-10-46-15-38-36 5-13 15-15 46-11 24 3 46 0 57-8 17-13 17-15-1-50-11-20-50-63-87-96-78-69-93-104-57-132 19-16 33-18 77-13 58 7 134 36 146 56 15 25-12 32-59 16-26-9-61-16-79-16l-32 1 41 37c23 20 58 59 78 85 78 104 28 196-92 167z"/><path d="m7232 12973c-5-10-24-63-42-118s-59-168-92-252c-59-152-59-152-85-142-34 13-53 5-53-21 0-13 10-24 25-30 14-5 25-12 25-15 0-2-11-38-25-79-30-91-31-120-4-147 28-28 71-20 163 29 72 39 113 80 103 105-4 12-26 4-106-36-56-27-105-47-108-43-4 4 4 39 17 79l25 72 92 5c96 5 109 10 100 34-4 10-16 13-44 10-21-3-57-1-80 3l-41 8 42 105c80 198 143 407 132 436-7 19-33 18-44-3z"/><path d="m8057 12933c-3-4-12-44-21-88-16-80-59-248-91-357l-16-58h-80c-63 0-81-3-86-16-9-24 7-33 78-41l66-8-28-95c-32-111-35-147-13-179 15-21 23-23 79-19 70 4 142 41 178 90 27 37 17 44-30 20-21-10-51-22-68-25-16-4-47-11-69-16-38-9-38-9-32 22 3 18 18 71 33 120l26 87h78c44 0 81 5 84 11 11 16 3 19-69 26-37 3-69 9-71 13-3 5 4 37 15 72 39 128 82 322 83 381 2 56 0 62-20 65-11 2-23 0-26-5z"/><path d="m9912 12931c-8-5-12-17-10-27 3-16 11-19 46-16 82 5 153-48 133-99-5-13-41-62-80-109-77-92-101-134-101-174 0-60 95-93 240-82 109 8 130 14 130 37 0 17-9 19-92 20-100 1-199 18-205 34-2 6 30 52 71 103 84 104 112 163 102 215-6 34-42 75-83 96-25 13-132 15-151 2z"/><path d="m5178 12868c-18-6-28-17-28-29 0-25 20-32 54-19 19 7 33 7 47 0 26-14 16-31-67-122-60-65-65-74-62-111 5-67 35-81 176-85 91-3 121 0 137 11 16 13 17 17 6 31-10 12-31 16-82 16-83 0-169 17-169 34 0 7 25 40 55 74 31 33 62 76 70 95 35 84-40 141-137 105z"/><path d="m9642 12862c-7-5-37-83-66-173-30-90-64-190-76-222l-22-59-57 4c-52 3-56 1-59-19-4-25 28-43 73-43h24l-20-57c-11-32-22-83-26-115-5-51-3-59 20-82 61-61 193-14 234 83 12 28 12 35 1 42-9 6-21-1-38-20-31-36-80-61-120-61-25 0-30 4-30 24 0 27 38 157 49 169 4 4 43 11 87 15 60 5 79 11 79 22 0 9-11 16-30 18-16 1-49 5-71 8l-42 5 35 96c62 174 105 343 92 359s-19 17-37 6z"/><path d="m4892 12758c-5-7-44-110-84-228l-75-215-64-5c-60-5-64-6-64-30 0-23 4-25 53-28 40-2 52-7 49-16-24-63-47-156-47-192 0-35 5-47 25-60s30-14 60-4c82 27 162 140 99 140-8 0-17-7-20-15-7-16-65-55-83-55-16 0-14 15 15 111l27 87 105 16c58 9 109 19 113 22 27 16-1 24-85 24-52 0-97 4-100 8-3 5 26 104 64 221 39 117 67 217 64 222-8 13-40 11-52-3z"/><path d="m6480 12659c-14-6-36-20-48-32-29-27-71-107-65-124 9-25 42-13 64 25 52 83 114 108 138 56 28-62-33-148-209-295-52-43-54-48-45-75 13-37 59-47 185-41 107 6 132 13 128 35s-39 30-135 31l-83 1 72 63c152 132 196 260 118 339-30 30-72 36-120 17z"/><path d="m5865 12570c-5-7-35-151-35-165 0-2-28-5-62-7-60-3-63-4-63-28 0-23 4-25 58-28l57-3v-42c0-23 3-72 7-109 5-56 9-68 23-68 20 0 26 22 36 143 7 77 7 77 38 78 46 0 101 22 101 39 0 11-15 16-62 18-41 2-63 7-63 15 0 7 5 41 10 76 8 46 8 67-1 77-13 16-35 18-44 4z"/><path d="m8699 12424c-36-44 65-86 216-88 94-1 100 0 100 19 0 17-9 21-60 27-33 4-100 19-148 33-104 30-92 29-108 9z"/><path d="m7458 12237c-45-38-64-61-66-81-3-27-2-28 27-24 35 5 36 4 17-48-19-56-29-134-17-134 5 0 19 13 30 28 24 34 111 254 111 281 0 16-18 31-36 31-2 0-32-24-66-53z"/><path d="m8258 12143c-10-2-18-13-18-24 0-16 7-19 45-19 25 0 45-4 45-9s-25-27-55-50c-54-41-66-66-43-89 30-30 229 5 236 42 4 18-1 18-69 12l-72-8 26 32c30 36 35 81 11 104-15 15-67 20-106 9z"/><path d="m9840 12119c-14-6-47-24-73-41-36-23-47-36-45-52 4-29 32-31 69-6 16 12 32 21 33 19 2-2-1-31-6-64-10-62 0-115 22-115 13 0 12-3 40 132 19 87 20 110 10 123-14 17-16 17-50 4z"/><path d="m5012 12073c-17-3-22-10-20-26 3-20 8-22 51-19 26 2 47 0 47-5s-27-34-60-66c-79-74-78-110 2-124 59-9 238 39 238 64-1 27-18 33-66 24-27-5-69-12-93-16l-44-6 41 45c45 48 61 90 45 115-10 16-91 24-141 14z"/><path d="m2835 11799c-76-10-191-58-201-84-14-35 13-39 73-12 58 25 151 47 204 47h27l-33-77c-84-195-113-380-69-439 40-54 131-49 191 11 18 18 33 42 33 54 0 24-18 28-27 6-8-23-57-45-97-45-63 0-70 43-32 191 20 81 93 269 110 287 3 3 41-3 83-12 82-18 220-19 216-1-1 6-15 12-30 13-15 2-83 19-152 38-129 35-171 38-296 23z"/><path d="m11243 11779c-35-4-67-11-73-14-12-8-13-42-1-49 11-7 251 21 320 37 30 7 57 19 59 25 4 14-202 15-305 1z"/><path d="m3661 11686c-11-13-11-19 0-33 12-14 35-15 208-10 185 6 228 14 205 37-5 5-97 12-204 16-174 6-197 5-209-10z"/><path d="m5605 11689c-132-5-401-6-597-3-353 6-358 6-358-14 0-17 9-20 68-26 225-21 541-27 903-17 687 19 1055 14 1719-24 404-23 796-28 1150-16 179 6 442 12 585 12 237 1 792 24 823 34 6 2 12 11 12 19 0 24-60 29-239 22-91-4-301-9-466-11-165-3-480-10-700-16-420-12-730-8-1155 16-635 36-1164 43-1745 24z"/><path d="m3860 11569c-204-12-220-15-220-45 0-23 3-24 69-24 70 0 284 25 337 39 16 4 29 14 29 22 0 18-37 19-215 8z"/><path d="m6285 11513c-82-130-143-287-201-513-68-267-78-425-34-498 29-48 61-59 101-36 41 24 53 50 18 40-46-14-53-11-66 24-45 131 56 576 203 889 31 66 54 127 51 136-12 29-36 15-72-42z"/><path d="m11240 11551c-66-5-75-8-75-26s8-20 90-23c98-4 262 14 282 30 7 6 10 14 7 19-5 10-178 9-304 0z"/><path d="m8076 11343c-14-21-46-90-72-153-25-63-48-117-49-118-2-2-36-7-76-10-80-8-105-26-79-57 12-14 26-16 72-12 32 3 58 4 58 4 0-1-12-38-26-82-34-108-43-215-20-238 36-36 98-15 159 52 64 71 42 111-26 47-19-18-45-36-56-39-31-8-28 28 15 164l37 116 56 12c81 18 91 21 91 32 0 5-27 9-61 9-60 0-61 0-55 25 4 14 27 73 52 131 25 59 44 116 42 128-5 36-35 31-62-11z"/><path d="m8597 11373c-17-16-3-46 42-88 30-28 59-69 77-108 27-58 29-71 29-182-1-109-4-129-33-215-44-128-131-278-193-334-49-44-58-60-39-71 30-19 143 79 204 179 157 252 179 543 55 730-39 59-121 110-142 89z"/><path d="m6632 11358c-6-7-42-89-81-182s-72-170-74-172-30-6-63-10c-85-10-106-19-102-47 3-21 7-22 69-19l67 4-19-69c-25-85-29-164-10-186 8-10 28-17 48-17 27 0 44 10 80 43 38 36 46 50 50 90 3 26 2 47-2 47s-25-20-47-45-48-50-59-55c-17-10-18-7-12 22 3 18 16 67 29 109l24 76 50 7c68 9 80 15 80 38 0 19-4 20-50 15-27-3-50-3-50 1s28 77 61 162c34 85 62 164 63 175 1 24-35 33-52 13z"/><path d="m5604 11230c-17-6-43-22-58-37-22-22-26-34-24-67 3-36 6-41 28-41 20 0 26 6 28 28 4 36 41 59 89 55 33-3 38-6 41-31 4-34-23-78-113-187-159-193-182-274-85-300 27-7 59-7 102 0 35 5 96 10 136 10 70 0 73 1 70 22-2 17-14 26-53 37-42 11-65 12-137 2-48-7-92-10-98-6-15 9 16 58 126 197 100 127 130 187 120 241-13 67-90 102-172 77z"/><path d="m7315 10979c-115-12-125-15-125-44 0-13 4-26 9-29 8-5 235 28 274 40 9 3 17 14 17 25 0 22-30 23-175 8z"/><path d="m6790 10849c-27-33-50-68-50-78 0-21 26-35 43-24 6 4 8 1 5-8-27-72-50-160-45-173 4-11 15-16 28-14 17 2 29 28 70 148 51 154 56 179 37 198-21 21-36 13-88-49z"/><path d="m8215 10820c-12-20 16-39 63-42 25-2 47-8 49-14 2-7-21-42-52-78-47-55-56-71-53-98 4-46 40-57 110-35 64 21 192 105 196 130 4 22-25 23-55 2-12-9-52-27-88-40-63-24-82-22-49 6 23 19 54 84 54 114 0 45-32 65-104 65-36 0-68-5-71-10z"/><path d="m9621 9836c-20-24 3-47 40-39 34 6 86-13 99-37 6-12-2-39-32-97-33-67-38-84-29-102 18-32 46-42 120-43 91-1 131 9 131 32 0 15-12 18-90 22-49 2-92 7-96 10-3 4 8 33 25 65 42 78 42 129 1 168-25 24-41 30-93 33-49 3-66 1-76-12z"/><path d="m5200 9812c-16-5-25-15-25-27 0-18 6-20 56-17 82 5 83-9 6-82-36-33-68-71-72-83-10-36 24-60 97-68 65-7 196 9 213 26 19 19-12 28-123 35l-112 7 55 58c61 63 71 102 35 134-21 19-91 28-130 17z"/><path d="m7190 9709c-69-40-111-133-91-200 14-45 65-74 117-66 32 5 33 5 23-21-30-79-126-202-158-202-13 0-13 2-2 9 19 12 6 41-18 41-36 0-51-12-51-39 0-46 23-66 74-66 39 0 50 5 86 40 49 47 98 125 135 215 15 36 33 72 41 81s11 19 7 22c-3 4-5 40-4 80 2 61-1 77-19 100-17 22-30 27-63 27-24 0-57-9-77-21zm98-86c5-67-9-106-43-115-41-11-83 0-90 23-9 27 29 100 62 121 46 29 67 20 71-29z"/><path d="m7864 9681c-65-28-84-119-39-185l25-36-37-48c-43-57-72-118-73-153 0-37 40-91 75-101 67-18 147 29 185 108 28 57 22 103-20 156l-31 39 30 41c25 34 31 52 31 95 0 45-4 55-25 69-30 19-92 27-121 15zm78-56c22-9 10-60-22-90l-28-27-16 23c-38 56 5 117 66 94zm18-293c0-7-7-26-15-42-34-66-118-95-131-46-8 35 1 58 48 118l41 52 29-34c15-19 28-40 28-48z"/><path d="m4823 9649c-105-22-146-143-80-236l25-35-30-42c-107-148-59-277 89-236 26 8 60 28 79 47 29 29 34 40 34 82s-6 56-40 100l-40 51 35 39c19 21 38 53 41 70 4 17 11 34 15 37 15 9 10 91-6 104-21 18-84 27-122 19zm68-59c5 0 8-19 7-42-3-34-10-48-46-81-41-38-43-39-57-21-22 28-29 64-19 93 10 28 70 64 92 56 8-3 18-5 23-5zm-11-361c0-49-100-100-129-65-18 21-7 59 32 120l31 49 33-38c20-23 33-49 33-66z"/><path d="m5891 9651c-14-9-26-58-36-148l-7-63h-71c-80 0-101-8-95-36 3-16 14-19 82-22l78-3-3-102c-4-88-2-102 13-105 11-2 18 6 23 30 3 18 13 65 21 104l15 71 75 6c82 6 89 9 81 30-3 9-30 17-77 21l-72 7 6 62c4 34 10 78 13 99 4 29 1 38-14 46-10 6-25 7-32 3z"/><path d="m6400 9651c-15-4-26-15-28-29-3-22-2-22 75-16 66 5 81 4 92-10 21-25 3-54-75-122-168-147-175-155-172-193 3-32 7-38 43-50 74-25 330 13 330 49 0 13-23 15-155 13l-155-3 30 26c111 96 190 172 206 198 28 45 25 92-7 121-23 22-36 25-93 24-36-1-77-4-91-8z"/><path d="m9281 9609c-25-25-31-39-31-75 0-72 54-104 151-91 47 6 47 4-5-109-67-144-164-201-178-104-6 47-68 33-68-16 0-32 54-91 91-99 86-19 201 110 253 284 21 71 20 116-3 168-24 51-63 73-130 73-42 0-54-5-80-31zm119-44c24-13 49-51 38-59-1-2-28 0-58 3-60 7-75 25-45 55 20 20 28 20 65 1z"/><path d="m8666 9443c-170-4-202-16-160-57 20-21 117-20 244 2 83 15 95 20 95 37 0 11-7 20-15 20-8 1-82-1-164-2z"/><path d="m6856 9397c-10-7-16-22-14-33 2-15 12-19 43-19s41 4 43 19c4 19-21 46-43 46-6 0-19-6-29-13z"/><path d="m7570 9395c-20-25-8-50 25-50 36 0 47 31 19 52-23 17-29 16-44-2z"/><path d="m3808 9270c-37-5-72-11-78-15-13-8-13-42 0-50s340 17 340 26c0 4-17 15-37 25-44 21-129 26-225 14z"/><path d="m10501 9177c-7-9-11-24-7-32 4-12 31-15 155-15 161 0 215 10 190 35-10 11-55 16-169 21-137 6-157 5-169-9z"/><path d="m9366 9073c-4-4-388-11-854-15-1499-15-2804-29-3337-36l-520-7-3-23-4-23 559 5c307 2 1049 10 1648 16 600 5 1344 12 1655 13 719 4 1055 15 1072 35 23 27-17 42-117 42-51 0-95-3-99-7z"/><path d="m3706 9044c-13-35 12-44 123-44 152 0 211 9 211 30 0 23-44 30-201 30-108 0-128-2-133-16z"/><path d="m10640 8988c-111-14-135-22-138-46-3-19 1-22 30-22 18 0 74 7 123 16 50 8 117 19 150 25 58 10 73 15 64 23s-177 11-229 4z"/><path d="m6153 8909c-101-65-190-298-200-525-7-151 10-219 67-276 31-31 45-38 78-38 50 0 72 8 72 26 0 10-12 14-38 14-51 0-77 21-95 77-24 76-29 142-17 235 23 188 82 348 160 432 60 65 43 100-27 55z"/><path d="m7894 8896c-3-8 13-32 38-58 62-61 90-126 96-220 6-93-9-158-58-263-59-126-171-265-215-265-32 0-32-18-1-26 44-11 92 14 153 80 70 76 116 150 151 248 24 65 27 87 27 198 0 113-2 130-25 175-46 94-149 175-166 131z"/><path d="m6515 8818c-35-19-76-62-96-100-21-40-25-118-9-149 12-22 61-49 90-49 11 0 20-6 20-13 0-28-98-147-121-147-3 0-5 10-5 23 1 34-35 29-47-6-7-22-5-32 9-48 49-54 156 20 220 153 10 21 27 40 38 43 39 11 116 48 116 57 0 4-25 8-56 8-54 0-56 1-50 23 4 12 9 54 13 94 8 93-8 123-65 123-20 0-46-6-57-12zm65-99c0-27-5-70-11-95-10-40-14-44-41-44-46 0-68 17-68 51 0 39 22 80 60 113 48 40 60 35 60-25z"/><path d="m7663 8821c-89-23-144-91-123-154 6-19 26-52 45-74 30-35 33-43 20-53-8-7-28-39-45-73-58-115-34-217 51-217 48 0 84 17 124 60 27 28 30 37 30 99 0 58-4 74-29 111l-29 44 50 47c45 43 51 54 57 102s4 58-16 81c-26 29-82 40-135 27zm86-60c24-15 5-74-32-101-17-13-36-30-41-38-6-11-15-7-42 19-19 18-34 40-34 49 0 45 108 97 149 71zm-39-354c0-35-57-97-89-97-44 0-39 63 10 149l31 54 24-39c13-21 24-52 24-67z"/><path d="m5417 8729c-82-19-122-52-111-93 9-36 60-37 74-2 7 19 20 27 60 35 74 16 100 14 100-6 0-10-61-77-135-149-104-101-135-137-135-157 0-17 7-28 20-32 11-3 104 8 207 25 246 40 243 39 243 55 0 23-122 28-239 11-58-9-107-16-110-16-2 0 41 46 97 103 124 127 146 173 102 217-16 16-32 20-77 19-32-1-75-5-96-10z"/><path d="m7007 8568c-40-11-61-36-47-58 7-11 19-11 77 3 37 9 101 21 141 28 48 8 72 16 72 25 0 11-22 14-102 13-57-1-120-6-141-11z"/><path d="m5695 7250c-95-13-109-33-103-140 4-79 22-105 80-117 31-6 34-12 16-35-41-52-141-77-151-38-3 13-14 20-31 20-50 0-55-64-6-90 29-16 101-11 145 9 50 22 115 93 115 124 0 28-23 51-65 64-48 15-72 86-42 127 12 16 42 20 233 32 120 7 220 13 222 14 10 1-1 29-14 34-21 8-336 5-399-4z"/><path d="m4671 7240c-47-11-110-58-145-107-24-35-30-54-33-115-4-64-2-77 19-107 36-54 73-76 125-76 38 0 49 5 74 33 76 85-4 224-113 195-54-15-51 9 11 68 52 50 97 67 131 49 24-13 40-6 40 19 0 35-50 54-109 41zm-2-256c26-33 26-45 2-75-16-20-23-22-47-14-37 13-53 68-28 96 24 26 49 24 73-7z"/><path d="m5039 7226c-55-19-106-54-129-87-37-50 7-70 51-23 22 24 88 64 105 64 15 0-33-44-88-81-100-68-97-101 11-118 36-6 69-15 74-20 22-22-99-61-189-61-36 0-52-24-32-48 10-11 27-13 83-9 90 8 160 32 185 64 39 50 20 94-54 122l-46 17 46 35c80 60 109 125 65 149-25 13-37 12-82-4z"/><path d="m3663 7084c-7-3-13-17-13-30s6-25 13-26c6-1 85-2 175-2 137-1 162 1 160 14-2 8-23 20-48 28-47 14-266 26-287 16z"/><path d="m6322 7055c-83-72-136-226-97-282 42-60 212-46 360 28 126 62 190 126 79 78-71-30-270-79-323-79-72 0-78 8-58 72 18 57 77 145 104 155 10 4 25-3 40-21 13-15 31-26 41-24 30 6 25 37-11 73-46 46-80 46-135 0z"/><path d="m3795 6928c-70-3-132-11-138-17-5-5-7-17-3-27 6-15 19-16 139-9 250 14 282 18 285 37 3 14-8 17-76 20-43 2-136 0-207-4z"/><path d="m5170 6790c-56-81-119-189-120-202-1-41 113 70 180 173 43 67 48 102 15 106-15 2-34-17-75-77z"/></g><g fill="#44b" transform="matrix(.054411653 0 0 -.054411653 1369.10707853537 2408.48872191264)"><path d="m750 2973c-57-10-88-25-119-57-40-41-55-100-46-179 6-45 12-61 32-77 32-25 35-25 64-1 22 17 24 26 21 89-4 105 24 120 164 87 33-7 119-19 190-25 88-8 134-16 144-26 32-32 8-420-28-456-18-18-126-28-289-28-185 0-206-4-250-52-55-58-58-82-55-363 1-145 7-274 13-293 11-34 51-62 89-62 12 0 35 14 52 31l31 30-6 238c-3 130-3 249 0 264l5 27h112c234 1 363 26 423 82 58 54 98 260 91 463-4 122-7 138-34 191-40 81-79 100-217 108-174 10-361 14-387 9z"/><path d="m3660 2971c-42-9-83-34-103-65-39-59-50-127-54-343-5-206-5-212 18-252 28-50 78-86 143-102 48-12 257-8 370 7l49 7-7-104c-4-57-11-189-16-294-9-177-9-192 8-214 35-47 100-46 136 2 22 29 27 86 42 452 7 191 0 235-44 283-45 48-92 56-241 38-146-18-229-20-265-6l-26 10v162c0 156 8 230 27 249 5 5 99 6 210 2l201-6 5-50c3-39 11-56 31-74 34-29 48-29 80 0 24 20 26 30 28 113 4 147-23 169-218 179-242 11-340 13-374 6z"/><path d="m1565 2945c-14-13-25-32-25-42s-1-297-3-638c-2-677-3-662 55-694 33-19 73-7 101 31 18 24 20 51 29 300 5 150 10 278 12 283 2 6 37 8 97 3 52-3 135-7 186-7 154-2 161-10 143-176-21-189-27-310-18-343 12-45 45-72 86-72 71 0 102 46 102 151 0 33 7 118 16 187 24 190 9 280-58 349-50 52-112 67-263 65-71-1-164-6-205-11-41-4-78-7-81-5-4 2-10 108-13 236-9 286-17 352-47 384-31 33-82 32-114-1z"/><path d="m2542 2944c-55-38-64-109-53-419 6-186 9-215 28-250 50-95 116-125 302-135 75-4 171-5 215-1l78 7-4-178c-2-97-7-181-11-184-4-4-42 1-85 11-104 26-285 27-363 3-106-33-149-107-99-170 26-34 68-41 132-21 74 23 202 20 308-7 182-47 274 5 301 168 12 77 27 831 19 994-7 152-20 181-86 186-88 7-103-51-104-401v-219l-201 4c-197 3-201 3-220 27-18 21-19 42-19 283v260l-29 29c-33 33-74 38-109 13z"/><path d="m2374 1391c-55-34-79-78-79-147 0-51 4-66 27-96 35-45 102-73 153-64 78 15 146 111 131 188-20 108-145 172-232 119z"/><path d="m1853 999c-39-11-66-56-61-101 6-59 69-64 76-6 4 30 34 38 145 38h67v-110c0-135-1-136-132-126-85 6-89 6-113-18-24-25-25-28-25-179 0-162 4-177 47-177 35 0 43 29 43 159v121h73c85 0 141 14 168 41 17 17 19 34 19 169 0 147-1 152-25 175-23 24-30 25-137 24-62 0-128-5-145-10z"/><path d="m2985 1000c-91-16-93-18-104-58-15-51-14-537 0-564 19-36 69-48 204-48 121 0 127 1 151 25l24 24-2 292-3 292-26 19c-31 23-161 33-244 18zm169-86c14-5 16-37 16-250v-245l-102 3-103 3v240 240l40 6c57 9 131 10 149 3z"/><path d="m2351 971c-24-24-29-73-37-372-6-232-6-237 15-258 23-23 29-25 51-11 12 7 16 40 20 150l5 141 35-23c19-13 59-55 88-93 30-39 78-96 108-128 47-51 56-57 74-47 29 16 25 42-15 92-19 24-62 78-95 121-61 77-61 77-33 77 15 0 46 9 69 19 56 26 67 57 62 179-6 156-27 172-220 172-93 0-111-3-127-19zm257-74c16-13 17-168 0-185-7-7-41-12-84-12-40 0-84-4-98-10l-26-10v120 119l98-6c53-3 103-10 110-16z"/></g></svg>