<svg height="1440.001896pt" preserveAspectRatio="xMidYMid meet" viewBox="0 0 1591.984705 1440.001896" width="1591.984705pt" xmlns="http://www.w3.org/2000/svg"><g transform="matrix(.1 0 0 -.1 -37.015295 3145)"><path d="m1522 31393c-77-115-142-286-126-331 5-14 14-24 19-21 5 2 9 8 7 13-9 27 84 241 142 327 41 62 43 69 16 69-12 0-33-20-58-57z"/><path d="m2450 31441c-45-14-89-41-100-60-13-24-13-64-1-76 6-6-4-32-26-67-93-149 0-227 170-144 138 68 141 163 6 197-27 7-49 17-49 21 0 5 16 16 35 25 34 16 48 43 22 43-7 0-37-12-66-26-28-15-55-24-58-21-13 14 10 40 54 59 37 16 58 19 105 14 48-5 58-3 58 9 0 30-88 45-150 26zm26-186c27-8 58-21 69-28 18-14 18-16 2-41-30-45-151-95-197-81-36 11-19 86 33 143 24 26 28 26 93 7z"/><path d="m1672 31428c-11-14-62-180-62-203 0-6 9-20 19-29 25-22 47-12 114 52 26 26 47 44 47 40 0-3-11-36-25-72-25-66-33-130-17-140 5-3 32 54 60 127 65 172 67 178 51 188-10 6-41-18-103-79-63-60-91-82-93-71-2 9 7 51 21 95 21 65 23 81 12 92-10 11-15 11-24 0z"/><path d="m1983 31402c-4-9-1-18 6-20 21-7 51-41 51-57 0-8-14-30-31-50-36-41-31-55 28-74 48-14 77-36 68-51-11-17-93-50-125-50-23 0-27 3-23 20 7 28-24 16-33-13-7-22 17-47 46-47 37 0 123 33 151 58 27 24 29 30 20 54-6 17-27 36-53 49-56 28-54 26-33 49 27 29 24 84-4 114-29 31-60 40-68 18z"/><path d="m1032 31348c-10-29-27-76-37-105-20-55-31-63-97-63h-38l26 73c14 39 30 76 35 82 16 17 10 45-10 45-19 0-39-37-77-147-21-60-27-63-139-63-85 0-118-11-98-31 7-7 43-10 102-8 83 4 91 2 91-15s-6-18-84-11c-51 4-86 3-90-3-13-22 25-33 146-41 4-1 5-14 2-30-4-19-1-30 8-33 22-9 87 18 119 48 16 15 31 25 34 22s-4-31-16-62c-11-32-19-60-16-63 8-8 50 44 72 90 17 35 25 43 53 45 21 2 32 9 32 19 0 12-7 14-31 9-28-5-30-4-24 17 11 34 20 39 74 45 65 6 66 22 2 22h-49l24 78c13 42 24 87 24 99 0 42-19 33-38-19zm-134-220c-2-18-11-24-35-26-27-3-31 0-26 17 4 17 15 23 56 30 5 0 7-9 5-21zm62 14c0-13-28-47-34-42-10 10 6 50 20 50 8 0 14-4 14-8zm-104-81c-7-11-46-21-46-12 0 13 13 21 32 21 11 0 17-4 14-9z"/><path d="m15597 31232c-41-45-49-164-55-824-4-344-10-629-13-632s-32 21-64 54c-61 62-99 76-112 43-8-21 184-209 224-219 32-8 35-5 139 156 76 119 90 160 54 160-14 0-39-29-87-106-38-58-75-115-83-126-28-36-13 1285 16 1430 4 18 13 32 21 32 20 0 13 44-8 48-8 1-23-6-32-16z"/><path d="m12174 31135c-5-13 75-176 133-267 40-65 66-53 160 72 57 75 108 130 122 130 9 0 9-5 1-21-17-31-2-37 21-9 10 14 18 36 17 50-3 21-9 25-41 28-45 4-66-15-169-150-68-90-57-93-123 27-50 91-93 155-106 155-5 0-12-7-15-15z"/><path d="m5226 31114c-3-9-6-33-6-55 0-45-19-98-43-118-27-21-47 3-47 55 0 47-12 57-30 25-18-34-12-80 15-106 31-32 47-31 89 5l34 31 7-76c4-42 6-77 4-79-2-1-35-21-74-43-85-50-132-95-156-148-22-47-23-65-8-99 33-71 147-39 219 62 33 46 60 118 60 159 0 31 3 33 67 53 37 11 94 24 125 27 39 4 58 10 58 19 0 19-122 19-185-1-27-8-51-12-54-9-6 5-16 93-27 232-6 69-10 82-24 82-10 0-21-7-24-16zm14-406c-1-58-67-155-124-182-48-23-70-12-63 31 8 48 39 86 108 132 71 47 79 49 79 19z"/><path d="m5848 31003c-9-2-63-61-120-130-129-157-131-160-123-173 15-25 47-5 111 67 38 43 93 103 121 133l53 55v-60c0-33 7-132 16-220 9-90 18-319 21-522l6-363h-72c-56 0-73-3-78-16-9-25 11-36 80-41l66-6-2-571c-1-314 0-706 2-871 3-265 0-403-14-540-11-101-12-360-3-450 7-72 7-138-2-235-6-74-11-142-11-150 2-86 42-120 144-120 36 0 68-4 71-8 3-5 42-3 88 5 51 8 156 13 273 13 237-2 227-2 220 10-4 6 11 7 42 3 103-15 2158-4 2548 13 61 2 612 7 1225 9 1722 8 2522 13 2555 18 98 16 543 20 1684 18l844-1-39-26c-58-39-124-106-124-126s15-24 25-8c4 6 55 44 114 85 60 41 114 81 120 89 20 23 3 56-37 73-82 35-378 124-402 121-41-5-30-32 20-46 193-57 306-100 294-111-3-3-481-6-1062-7-953 0-1329-6-1477-21-53-5-715-10-2465-18-1170-6-1564-10-2205-25-231-6-482-10-557-10h-138l-1 48c-1 26-1 94 1 151 2 84 0 103-11 99s-13-24-12-79c2-41 0-107-3-147l-6-72-366 1c-202 0-415 3-474 6l-106 6 5 156c6 175-6 298-37 366-11 24-20 48-20 53s42 40 93 78c50 37 125 92 166 123 87 64 488 334 611 411 47 29 95 59 106 67 21 13 23 12 43-49l20-63-1 60c-1 33 0 67 0 77 4 35 689 422 1082 611 739 355 1432 639 2165 886 269 90 270 91 331 81 52-9 65-7 98 10 21 10 59 22 85 25 74 10 92 15 86 25-3 6-29 10-57 10s-49 2-46 5c9 9 689 205 712 205 4 0-1-13-10-29s-14-36-11-45c3-8 34-30 69-47 90-45 110-75 58-86-17-3-33-10-36-14-11-18 29-22 82-9 57 14 81 30 45 30-13 0-21 6-21 18 0 26-41 64-98 91-29 14-52 28-52 32 0 8 40 79 44 79 1 0 81 20 177 44 215 55 382 94 654 152 422 91 593 122 1200 219 144 23 233 33 343 41 100 7 150 23 75 25-69 1-177-2-233-7-152-13-318-31-405-44-270-40-461-74-781-139l-282-56-10 99c-8 84-13 103-32 118-12 10-30 18-40 18-9 0-29 9-43 21-47 36-138 38-151 3-8-21 21-54 48-54 35 0 5-15-99-50-107-36-416-148-477-174-21-9-48-16-62-16-13 0-26-5-28-11s-141-69-308-139l-305-128-14 26c-17 32-31 142-21 162 5 9 29 21 55 28 93 25 173 142 162 238-9 85-79 115-145 64-42-33-91-135-104-217-11-65-11-65-40-59-89 18-129 63-134 149-3 55 28 175 57 225 31 53 21 83-16 46-39-39-85-180-85-260 0-111 61-187 161-200l49-7v-57c0-39 7-70 23-103l24-46-48-20c-31-13-60-18-86-14-32 4-42 1-62-21-16-17-25-39-25-61-1-19-5-35-11-36-5 0-71-2-145-3-136-4-195-16-187-39 3-8 28-11 88-10l84 3-170-59c-612-211-1221-453-1693-672-46-22-85-39-87-39-26 0-695-340-910-462-33-19-67-37-75-41-8-3-100-58-205-120-159-96-191-111-193-96-6 32-31 21-38-15-5-29-16-41-67-72-78-48-487-320-570-379-34-24-80-57-101-72-47-34-159-116-243-178l-61-46-61 58-60 58 142 160c252 285 629 657 919 908l67 58 3-77c2-49 7-79 15-81 19-7 34 70 31 160l-3 82-33 3c-52 5-222-82-222-113 0-25 29-29 67-11 20 9 37 15 39 13 3-2-64-65-148-139-250-222-526-500-771-778-92-103-135-145-150-145-17 0-21-5-20-23 2-16-28-60-105-152-153-184-241-295-296-372-26-37-51-70-55-72-4-3-7 61-7 142s-1 215-3 297c-2 83-1 204 4 270 4 66 10 170 14 230 4 61 6 178 5 260-10 784-12 1043-7 1245l5 235 32 2c17 1 99 12 181 23 83 12 172 24 200 27 38 5 45 8 30 14-32 12-129 10-270-6-127-14-221-18-140-6 31 5 40 10 40 26s-8 21-36 23l-37 3-1 253c0 251-9 427-36 726-8 85-12 156-10 158 9 10 130-118 157-165 51-90 69-54 21 43-30 62-134 167-187 189-36 15-39 16-68 8zm5731-598c11-24 12-37 2-75-20-75-77-131-160-155-23-7-24-6-17 36 13 86 41 153 78 192 44 46 76 47 97 2zm1228-32c-57-55-75-89-63-118 7-18 36-20 36-2 0 7 24 36 54 66l53 52 7-54c3-31 8-61 11-69 4-10-28-20-122-41-71-16-236-55-368-88l-240-60-52 17c-29 10-53 22-53 27 0 7 18 46 25 55 18 21 705 270 750 271 15 1 6-12-38-56zm-771-265c-1-28 4-36 33-50 39-19 38-20-54-42-81-20-304-83-511-145-301-90-271-69 177 119 195 82 355 149 355 149 1 1 1-14 0-31zm-716-363c-14-17-40-20-40-6 0 8 18 16 44 20 5 0 3-6-4-14zm-4762-2306c-2-4-97-80-213-169-115-90-231-180-257-202-27-22-48-36-48-32 0 9 155 206 293 373l119 143 54-53c30-29 53-56 52-60zm45-71c8-18 21-53 27-78 15-52 18-287 6-374l-8-59-166 7c-92 4-180 9-197 11-157 18-353 12-271-9 36-9 33-24-3-18-34 5-46 25-31 52 16 29 124 119 360 299 118 90 224 172 235 182 26 25 30 24 48-13z"/><path d="m12591 30913c-20-71-11-228 13-220 12 4 20 48 30 175 6 77 5 82-13 82-15 0-23-10-30-37z"/><path d="m2680 30887c-35-6-357-9-875-8-660 2-866-1-1055-14-276-18-310-23-310-41s13-17 275 2c167 12 380 15 1045 13 733-1 845 0 920 15 47 9 86 16 88 16 1 0 2 7 2 15 0 17-11 17-90 2z"/><path d="m3470 30860c-24-44-27-242-24-1468 2-1277 2-1292 39-1262 9 8 11 312 9 1376-1 751-5 1368-8 1371-2 3-10-5-16-17z"/><path d="m900 30408c1-82 45-407 57-419 16-16 49 5 58 38 11 47 75 214 107 279 16 34 40 72 55 85l26 24-7-43c-9-58 13-53 33 6 10 34 10 46 1 57-49 59-137-50-214-266-18-51-35-88-38-83s-13 77-22 159c-23 206-25 215-41 215-11 0-15-13-15-52z"/><path d="m16093 30399c-78-39-141-132-150-223-14-131 95-186 206-105l42 30-3-48c-3-44-5-48-33-53-128-27-246-158-274-304-32-174 70-363 184-342 49 10 81 40 114 109 57 122 66 184 66 476 0 264 0 264 23 272 18 7 22 16 22 54 0 128-89 188-197 134zm121-48c21-23 36-108 17-97-18 12-38-11-46-50-8-44-71-109-116-119-28-6-36-4-57 20-20 24-23 35-18 69 7 43 49 126 75 150 51 46 117 58 145 27zm-17-523c-6-154-28-271-64-342-53-106-124-101-179 12-14 27-18 61-19 127 0 76 4 98 26 145 14 31 48 77 75 103 45 44 137 105 158 106 5 1 7-63 3-151z"/><path d="m2112 30221c-13-75-39-131-88-199-39-53-39-53-84-45-75 13-172 9-207-10-74-39-96-101-48-133 50-33 156-10 267 57l37 23 118-59c161-79 163-80 128-50-43 38-190 135-204 135-17 0-14 7 31 67 76 104 122 273 74 273-7 0-17-25-24-59zm-217-279 40-7-30-21c-66-46-183-71-200-43-11 16 33 56 74 67 44 12 65 13 116 4z"/><path d="m13532 30165c-22-19-54-62-72-96-22-42-35-58-42-51-6 6-27 41-47 78-40 73-63 96-81 78-8-8 3-37 40-105 63-113 76-129 107-129 19 0 29 12 53 63 48 101 119 174 132 135 3-8 9-4 17 10 10 18 10 27 0 38-21 25-66 17-107-21z"/><path d="m2983 30165c-71-30-156-155-184-269-12-48-12-48-48-42-22 3-45 16-60 33-20 23-23 34-17 77 3 28 9 63 12 79 5 20 2 27-8 27-21 0-39-46-45-110-3-43 0-62 15-86 21-32 76-64 111-64 19 0 21-6 21-66 0-77 13-130 42-165l20-24-7 30c-10 48-18 173-12 198 5 16 25 30 69 50 75 33 93 47 142 111 47 63 66 108 66 162 0 67-46 90-117 59zm71-31c24-9 20-63-10-122-36-72-103-128-188-156-16-6-18-3-12 26 17 86 90 203 151 239 33 21 37 22 59 13z"/><path d="m1230 30060c-73-13-140-67-140-113s48-87 102-87c70 0 146 57 161 121 13 52-49 92-123 79zm64-40c16-6 26-17 26-29 0-31-48-80-92-93-34-10-44-9-74 7-19 10-34 22-34 27 0 32 45 69 110 89 35 10 36 10 64-1z"/><path d="m12897 30063c-15-15-4-123 13-123 10 0 20 81 13 108-5 22-14 27-26 15z"/><path d="m13757 30034c-16-16-5-64 20-94 22-27 32-31 57-27 31 5 32 3 66-76 26-59 35-95 35-136v-56l-39-3c-21-2-56 4-78 13-47 18-54 15-38-15 24-45 115-63 170-35 37 19 46 52 33 124-10 53-84 241-106 269-13 16-37-3-37-29 0-39-30-16-47 35-9 30-24 42-36 30z"/><path d="m13647 30013c-4-3-7-28-7-55 0-54 23-108 45-108 12 0 14 12 9 63-3 34-7 72-10 85-4 21-23 29-37 15z"/><path d="m5126 29923c-4-43-18-158-32-257-17-118-22-182-16-188 19-19 52 4 92 63 23 32 59 78 80 101 58 60 68 46 52-79-11-85-11-98 4-114 23-25 64-32 109-17 41 14 65 46 26 35-12-3-37-1-57 4l-35 10 8 62c11 93 8 143-11 171-34 53-93 26-180-84l-28-35 5 50c3 28 12 108 22 178 18 139 15 177-14 177-16 0-19-11-25-77z"/><path d="m12910 29847c0-30 6-49 18-60 26-24 30-15 19 48-13 69-37 76-37 12z"/><path d="m1564 29726c-43-47-82-93-88-103-13-24 78 30 129 76 22 20 51 44 63 53 29 19 26 52-4 56-16 2-42-19-100-82z"/><path d="m2415 29802c-6-4-23-24-38-44-15-21-59-72-98-114-70-75-79-92-40-79 28 9 196 176 203 202 6 24-11 46-27 35z"/><path d="m12447 29794c-15-15 8-24 61-24 69 0 99 14 52 24-42 8-105 8-113 0z"/><path d="m12680 29786c0-21 26-27 97-20 89 9 77 28-20 32-62 2-77 0-77-12z"/><path d="m7395 29779c-69-7-105-17-105-29 0-17 18-19 111-10 52 5 125 12 163 16 44 4 64 9 55 14-19 11-151 17-224 9z"/><path d="m10080 29784c-91-15-131-27-127-37 4-12 200-13 301 0l50 5-30 16c-28 15-144 25-194 16z"/><path d="m11935 29780c-92-16 45-40 145-24 35 5 41 8 25 14-28 10-134 17-170 10z"/><path d="m8591 29767c-30-15-24-33 9-30 60 4 252 3 277-2 15-2-3 6-42 20-79 27-203 33-244 12z"/><path d="m6767 29764c-10-3-16-11-14-17 2-8 37-13 98-15 111-4 225 6 212 19-9 9-268 21-296 13z"/><path d="m9260 29757c-25-6-45-18-45-24 0-16-6-16 133-9 257 14 298 18 272 28-41 15-309 19-360 5z"/><path d="m11617 29762c-25-5-16-26 13-30 40-6 175 9 159 18-15 9-143 17-172 12z"/><path d="m7890 29751c0-16 30-21 128-21 129 0 237 11 220 21-18 12-348 11-348 0z"/><path d="m11925 29578c-33-39-41-59-69-171l-22-88-49 88c-73 132-96 163-116 163-11 0-19-7-19-16 0-17 152-292 181-327 16-20 19-20 33-7 8 8 22 57 30 110 23 146 66 251 93 228 10-8 13-5 13 15 0 22-16 37-40 37-4 0-20-14-35-32z"/><path d="m12063 29394c-3-9-2-19 4-23 5-3 26-36 47-73l37-68-21-46c-34-79-21-104 19-34 25 44 32 48 52 23 15-18 70-43 94-43 8 0 24 9 35 20 25 25 18 45-11 30-13-8-26-7-41 1-30 15-68 50-68 62 0 5 21 39 46 74 25 36 43 72 40 79-11 28-36 12-76-46-22-33-43-60-45-60-3 0-18 27-35 60-22 43-36 60-50 60-12 0-23-7-27-16z"/><path d="m6887 29233c-8-10-37-69-63-130-26-62-51-113-56-113-13 0-48 77-62 138-8 38-18 58-29 60-40 8-5-153 50-225 42-57 79-41 112 47 38 100 74 168 86 163 15-5 45 45 38 65-7 18-58 15-76-5z"/><path d="m2025 29197c-165-6-569-10-897-10-492 0-598-3-598-14 0-10 20-13 78-14 42-1 93-3 112-6 64-9 942-5 1200 5 140 5 508 9 818 8 519-1 562 0 562 16 0 14-13 17-82 20-175 8-907 5-1193-5z"/><path d="m7016 28974c-21-8-46-20-54-26-8-7-22-13-31-13-15 0-29-46-30-103-1-30 23-24 27 7 3 17 8 21 20 15 61-26 126-11 167 38 31 37 32 62 3 82-27 19-50 19-102 0zm79-34c8-13-29-48-60-56s-78 3-70 16c10 16 78 49 102 50 12 0 24-4 28-10z"/><path d="m2234 28880c-99-20-198-100-165-133 8-8 21-1 47 25 57 59 182 92 247 65 86-37 51-98-138-241-137-103-225-211-225-275 0-62 53-111 120-111 36 0 40 17 5 26-32 8-75 59-75 89 0 44 77 131 205 232 147 117 195 174 195 231 0 79-90 117-216 92z"/><path d="m1005 28788c-2-7-11-73-20-147-8-73-29-197-45-274s-27-144-24-149c15-23 46-4 80 50 20 31 52 77 72 101 34 42 106 101 124 101 16 0 8-66-24-192-27-107-30-131-20-153 18-39 36-25 43 31 4 27 19 95 33 151 32 124 33 166 5 194-34 34-97 2-184-93-59-66-61-64-44 28 20 101 45 318 41 342-5 23-30 30-37 10z"/><path d="m7650 28476c0-88 6-120 21-110 5 3 9 48 9 100 0 77-3 94-15 94s-15-16-15-84z"/><path d="m1557 28405c-107-15-138-29-114-52 11-11 31-9 128 16 63 17 128 35 144 40 28 9 28 9-15 9-25 0-89-6-143-13z"/><path d="m2121 28111c-8-14-7-22 3-30 18-15 52 10 43 33-9 22-34 20-46-3z"/><path d="m3445 28089c-38-3-110-9-160-13-49-4-173-13-275-21s-239-17-305-20c-66-4-127-8-135-10s-96-7-195-10c-99-4-182-9-185-10-3-2-115-6-250-10-135-3-252-8-260-10s-114-7-235-10c-121-4-240-9-265-10-25-2-178-6-340-10s-301-9-309-11c-9-3-11-8-4-15 9-9 534-13 628-4 22 1 157 6 300 9 143 4 310 8 370 11 61 3 184 7 275 10s201 8 245 10c44 3 161 10 260 15 325 18 880 58 913 65 24 6 31 40 10 47-7 2-44 1-83-3z"/><path d="m7629 27883c-14-36-23-196-10-189 20 13 49 216 31 216-6 0-15-12-21-27z"/><path d="m8418 27881c-30-24-79-130-111-238l-23-82-55 105c-57 111-74 133-89 118-9-9 134-314 148-314 22 1 35 26 52 102 20 90 70 232 95 264 14 18 14 18 15-4 0-32 17-19 25 19 5 22 3 34-6 40-20 12-23 11-51-10z"/><path d="m8767 27554c-9-9-9-126-1-148 9-22 40-20 57 4 18 25 27 16 27-28 0-22-9-45-27-66-36-43-53-87-53-139 0-72 61-143 112-129 36 9 42 43 31 165l-11 112 31 30c18 17 61 56 97 88 64 57 64 58 25 42s-98-49-141-80c-21-15-21-14-28 43-8 72-26 102-49 83-9-7-19-27-24-44-7-31-8-30-13 17-5 46-17 65-33 50zm108-365c4-48 3-85-3-91-15-15-52 40-52 79 0 35 24 93 39 93 5 0 12-37 16-81z"/><path d="m8540 27492c-51-50-67-109-44-157 22-47 48-51 112-20 62 30 92 72 92 132 0 33-5 46-26 62-43 34-90 28-134-17zm108-8c29-20 29-72 1-107-22-28-88-54-113-44-41 16-1 126 54 154 32 16 31 16 58-3z"/><path d="m7075 27508c-2-7-6-46-10-86-3-40-12-89-19-110-13-37-14-37-68-38-35 0-66-7-82-18-85-55-89-206-5-206 36 0 99 54 136 117 13 23 30 43 37 43s38-16 69-35 83-51 114-70c50-31 83-43 83-31s-169 139-211 158c-36 17-47 27-43 38 34 78 46 250 19 250-9 0-17-6-20-12zm-65-284c0-12-62-94-82-109-31-21-47-19-54 9-7 27 17 80 43 95 19 11 93 15 93 5z"/><path d="m7601 27501c-21-38-20-151 2-185 10-15 19-26 20-24 1 1 0 55-3 118-5 104-6 113-19 91z"/><path d="m16159 27239c-91-93-69-93-177 4-30 26-62 47-73 47-27 0-24-34 4-57 13-10 49-41 80-69l57-50-31-57c-17-31-29-65-27-74 3-17 16-2 80 91 3 5 42-9 91-33 59-30 91-41 106-36 11 3 21 9 21 13s-28 22-63 40c-34 18-73 41-87 51l-24 19 82 84c45 47 82 90 82 96 0 33-47 6-121-69z"/><path d="m6480 26630c0-6 13-28 29-48 36-46 70-134 111-282 18-66 40-123 51-135 20-20 20-20 39 2 10 13 21 47 25 75 10 76 52 265 72 321 14 38 15 49 4 60-10 10-16 7-32-12-23-28-44-97-74-245-12-61-25-104-27-96-3 8-25 75-48 149-45 141-87 213-128 219-12 2-22-2-22-8z"/><path d="m7033 26321c-10-11-31-45-47-76l-29-58-34 57c-34 55-63 73-63 39 0-10 18-46 39-80l40-62-20-50c-20-53-26-121-10-121 5 0 19 27 31 60s25 60 28 60c2 0 22-16 43-35 23-20 50-35 64-35s25 2 25 5c0 2-25 29-56 59-64 62-64 61-8 163 34 61 42 93 24 93-5 0-17-9-27-19z"/><path d="m3250 25767c0-8 9-22 20-32 37-33 25-67-52-152-42-47-48-77-18-93 21-11 186-17 196-7 15 14-12 27-81 38l-75 13 24 25c69 74 86 152 41 196-26 27-55 33-55 12z"/><path d="m4406 25765c-58-16-75-30-58-47 9-9 23-9 63 0 65 15 139 16 139 0 0-6-22-35-50-64-41-43-50-59-50-88s5-38 30-51c45-23 188-15 197 11 3 8-21 14-69 19-81 7-108 13-108 23 0 4 23 33 50 65 55 64 62 95 30 127-24 24-97 26-174 5z"/><path d="m648 25755c-36-20-67-90-75-167-3-36 2-176 12-312 22-314 17-686-13-876-36-226-89-410-119-410-8 0-30-15-49-34-35-35-44-72-22-94 26-26 52-12 107 58 18 23 21 24 46 10 36-19 75-89 91-163 23-107 17-334-16-617-41-350-48-509-25-582 32-103 105-160 165-128 27 15 21 35-12 36-45 2-58 13-86 71-25 55-27 66-25 193 0 75 15 260 33 415 56 506 32 731-90 811-22 15-40 31-40 36s11 44 24 86c32 99 62 250 76 377 6 55 13 118 15 140 10 85 6 458-7 625-7 96-13 229-13 295 0 103 3 125 20 155 15 24 29 36 49 38 36 4 54-12 82-75 36-80 57-67 33 20-22 82-100 126-161 92z"/><path d="m8456 25718c-3-7-7-36-10-65-7-68-48-171-102-255-24-38-45-68-47-68-1 0-20 9-42 20-53 27-71 25-106-9-23-24-29-38-29-74 0-50 22-77 62-77 26 0 93 40 115 68 10 12 17 13 35 4 80-40 294-102 354-102 47 0 42 17-8 30-107 27-159 44-245 78l-91 36 27 40c105 153 168 386 105 386-8 0-16-6-18-12zm-219-409 28-10-33-30c-42-37-62-38-62-1 0 27 15 52 31 52 4 0 20-5 36-11z"/><path d="m6516 25684c-9-8-16-22-16-30 0-16 26-19 35-4 8 13 52 13 60 0 12-20-7-49-55-86-78-60-80-104-5-123 54-14 155-15 155-1 0 9-24 17-119 41l-44 10 57 54c62 60 73 98 36 135-24 24-82 27-104 4z"/><path d="m7781 25657c-36-18-22-32 34-32 67 0 69-18 6-90-56-64-65-100-31-130 39-36 187-30 219 9 8 10-8 12-79 12-102-1-123 9-96 46 9 13 32 45 51 72 39 54 44 85 17 109-22 20-87 22-121 4z"/><path d="m6302 25629c-17-6-43-51-98-166-96-202-96-203-104-203-11 0-20 94-20 207 0 114-4 133-30 133-27 0-32-28-25-153 8-158 23-242 45-262 39-35 73 11 169 225 56 127 89 185 98 176 3-3 0-19-7-36-20-48-4-46 25 4 21 36 24 49 15 65-11 22-31 25-68 10z"/><path d="m2674 25606c-3-7 6-58 20-112 13-54 36-160 51-234 39-201 42-210 70-210 19 0 29 12 54 65 17 36 31 69 31 74 0 20 76 190 107 239 18 29 43 56 55 61l22 8-22 12c-60 32-116-43-202-273-26-68-36-85-41-70-4 10-27 107-50 214s-46 205-52 218c-11 25-35 29-43 8z"/><path d="m3882 25578c-13-13 2-38 23-38s36 25 23 38c-7 7-17 12-23 12s-16-5-23-12z"/><path d="m4101 25513c-20-78-51-243-51-271 0-16 6-35 14-41 22-19 49 1 97 69 23 33 44 60 46 60 3 0 2-31-2-69-7-74-3-93 19-85 28 11 57 195 37 233-7 11-15 21-20 21s-34-34-66-75c-32-42-60-73-63-71-2 3 5 57 18 120 12 63 20 122 17 131-11 28-36 16-46-22z"/><path d="m1346 25518c-2-7-7-80-11-163-9-215-46-449-95-589-23-69-25-102-7-109 22-8 35 6 52 53 38 107 150 273 210 310 34 21 38 22 53 6 23-23 28-184 9-289-15-84-7-114 26-101 9 3 17 9 18 13 2 19 9 73 18 126 24 150-3 289-60 309-46 16-81-2-153-77-51-52-68-65-63-47 22 75 39 245 40 395 2 154 0 170-16 173-9 2-19-2-21-10z"/><path d="m7216 25522c-5-8 18-59 33-75 12-12 19 36 10 61-8 22-33 30-43 14z"/><path d="m3625 25499c-116-61-124-124-20-154 63-19 71-27 47-47-29-26-82-50-82-37 0 14-45 4-77-17-31-20-30-52 2-60 54-13 203 68 216 118 10 40-14 65-79 84l-56 17 38 33c22 19 45 35 53 35 41 4 57 17 42 35-16 19-38 18-84-7z"/><path d="m4964 25488c-43-49-92-163-108-250-4-21-11-40-15-43-16-9-70 16-87 42-16 26-16 94 2 206 5 32 4 37-14 37-25 0-50-59-59-141-10-103 35-179 117-195 26-6 31-11 26-28-3-12-8-46-11-76s-8-66-11-79l-5-23-652 5c-711 6-831 12-911 43-30 12-15-29 17-44 53-25 236-33 889-39l657-5 7-34c7-37 39-63 56-46 6 6 6 17-1 30-6 11-11 28-11 38 0 16 25 17 396 10 384-6 640-13 774-21 142-9 1196-13 1365-5 99 4 326 11 505 14 342 7 502 13 560 22 33 6 34 6 15 21-16 12-43 14-145 9-69-3-246-8-395-11-148-3-443-10-655-17-323-9-994-5-1175 7-22 1-173 6-335 10s-315 8-340 10-161 4-302 4c-297 1-267-14-246 124 12 79 12 79 58 102 90 46 149 139 150 236 0 42-5 63-21 83-26 33-68 35-95 4zm66-47c26-50-3-135-68-193-23-21-46-38-51-38-17 0 34 159 70 216 24 39 34 42 49 15z"/><path d="m9832 25423c-97-154-181-366-219-558-19-99-22-267-5-316 29-82 107-124 147-79 19 21 8 29-12 9-35-35-98 51-108 146-14 129 48 400 136 597 47 104 101 199 124 218 22 18 19 30-9 30-18 0-32-12-54-47z"/><path d="m7455 25388c-24-80-30-169-12-192 20-28 62-14 107 36l37 40 6-31c14-68 47-16 47 73 0 72-21 91-49 44-37-62-72-108-92-118-17-10-19-7-19 22 1 18 7 62 15 98 14 68 13 80-10 80-8 0-21-22-30-52z"/><path d="m3927 25388c-48-64-137-215-137-232 0-42 40-3 117 114 46 69 83 131 83 138 0 24-39 11-63-20z"/><path d="m6870 25405c-52-16-93-54-88-82 2-12 21-24 63-36 33-10 71-23 85-29l25-10-28-24c-15-13-46-27-68-30-45-8-56-19-38-40 24-29 137 16 158 63 23 49 4 74-69 93-91 23-87 20-61 41 13 11 43 24 67 30 26 7 44 17 44 25 0 17-31 17-90-1z"/><path d="m7157 25308c-73-105-77-112-77-135 0-13 6-23 14-23 18 0 150 196 141 210-14 22-36 7-78-52z"/><path d="m10236 25341c-3-4 17-36 45-71 154-193 187-436 97-720-38-119-74-191-130-259-23-30-50-63-58-74-14-19-13-20 7-8 34 18 126 137 171 221 23 41 53 116 68 165 25 80 28 106 28 240 1 132-2 159-22 220-33 98-87 197-136 250-42 44-60 54-70 36z"/><path d="m5528 25300c-136-7-168-16-168-46 0-13 34-29 47-21 5 3 49 8 98 11 85 6 185 19 248 32 15 3 27 12 27 20 0 16-16 16-252 4z"/><path d="m6326 25238c-26-29-30-43-34-110-4-72-3-78 21-102 38-38 84-35 124 7 68 70 63 186-9 223-43 22-71 17-102-18zm97-40c21-25 22-69 2-108-28-55-79-62-91-13-7 28 1 126 11 144 10 15 57 2 78-23z"/><path d="m3067 25153c-11-10-8-283 3-283 30 0 64 192 46 264-6 25-33 35-49 19z"/><path d="m1974 25125c-4-10-1-21 7-27 16-10 216-3 264 10 26 7 27 9 10 16-11 4-77 10-147 13-115 5-128 4-134-12z"/><path d="m10091 25043c-28-56-73-207-69-234 6-44 26-31 42 28 9 32 30 94 46 139 17 45 30 86 30 93 0 25-31 9-49-26z"/><path d="m1974 24929c-12-20 13-31 92-41 85-10 244-2 244 13 0 5-1 9-2 9-2 0-59 7-128 15-149 18-197 19-206 4z"/><path d="m5239 24715c-60-22-119-55-119-66 0-13 20-9 118 26 129 46 119 11-31-101-118-89-137-108-137-140 0-33 34-39 128-24 85 13 220 45 230 54 15 15-16 16-143 1-119-14-160-14-144-2 2 2 47 38 101 81 99 79 128 112 128 144 0 42-58 54-131 27z"/><path d="m5573 24718c-40-10-83-61-83-98 0-41 22-54 81-47l52 6-7-46c-3-25-6-53-6-63 0-9-19-31-43-48-105-75-177-177-177-252 0-45 30-95 71-116s121-15 150 12c36 32 42 63 48 219l6 150 48 23c71 34 40 56-37 26-17-7-18-4-12 32 4 21 12 43 17 49 5 5 9 30 9 56 0 78-45 116-117 97zm58-54c10-13 10-17-2-25-19-12-79-23-86-15-8 8 17 37 42 46 28 12 31 12 46-6zm-26-502c-8-45-38-72-78-72-72 0-105 64-71 137 10 21 48 67 84 103l65 65 3-100c2-55 0-115-3-133z"/><path d="m4621 24552c-64-17-95-42-76-61 7-7 32-4 75 9 36 10 100 26 143 35 42 9 77 21 77 26 0 15-151 9-219-9z"/><path d="m9726 23454c-93-128-168-406-153-570 12-129 82-214 140-171 16 11 14 12-15 12-30 0-35 5-57 50-22 44-25 64-25 160 0 165 37 307 120 464 52 99 46 131-10 55z"/><path d="m1363 23474c-3-9-1-50 6-92 6-43 23-174 37-292s30-218 36-221c21-13 38 3 48 45 20 78 51 151 95 221 43 70 135 175 153 175 5 0 7-12 5-27-5-28-5-28 17 4 29 44 23 67-18 71-27 3-40-5-87-49-60-57-128-153-166-234l-24-50-6 50c-3 28-9 75-13 105-15 132-39 276-47 292-12 22-28 23-36 2z"/><path d="m10220 23415c0-9 22-62 49-118 99-204 119-411 52-535-39-73-134-154-203-173-48-12-46-35 3-31 85 7 191 91 241 193 60 118 59 266-1 445-46 137-141 284-141 219z"/><path d="m15651 23393c-6-21-15-58-20-83-13-59-54-177-76-221-30-58-33-60-68-38-18 10-40 19-49 19-28 0-58-48-58-94 0-86 55-105 120-41l38 37 64-21c35-12 99-24 143-26l80-4-53 13c-55 15-163 52-195 68-16 8-16 12 7 52 45 82 116 327 103 360-11 27-26 18-36-21zm-173-386c22-13 22-13-7-41-33-32-51-28-51 13 0 43 16 51 58 28z"/><path d="m4523 23323c3-10 17-49 31-86 25-64 57-223 72-349 11-100 51-117 82-36 48 126 203 391 219 375 2-3-1-15-7-27s-9-24-6-28c15-15 68 70 59 94-3 8-18 14-34 14-56 0-127-87-219-270l-43-85-22 120c-41 219-71 295-117 295-15 0-19-5-15-17z"/><path d="m12544 23316c-3-9 1-28 11-42 34-52 67-162 91-303 13-79 29-150 35-158 29-34 53-4 84 102 43 149 128 323 145 295 10-17 34 25 26 46-8 22-60 17-84-8-25-28-83-148-116-242-26-75-26-74-46 29-18 97-58 219-83 256-25 38-54 49-63 25z"/><path d="m14691 23301c-25-25-59-117-73-201s-4-135 33-163c39-29 82-15 140 44l48 49 25-25c50-49 152-25 196 47 23 38 25 57 9 91-39 87-200 47-254-63-22-44-73-99-104-111-52-20-70 38-47 148 8 39 24 91 35 115l21 43-5-37c-9-60 29-46 40 15 12 60-25 87-64 48zm333-167c24-23 20-42-18-80-25-25-43-34-66-34-27 0-30 2-21 14 10 12 8 15-11 18-36 5-35 41 2 72 36 30 90 35 114 10z"/><path d="m13950 23286c0-8 9-54 20-103 10-48 29-160 41-248 22-169 35-203 65-174 8 9 26 54 40 100 52 180 117 308 149 295 19-7 28 25 12 42-22 22-69-8-105-66-24-39-80-177-99-241-7-25-11-8-32 142-26 176-50 260-74 265-10 2-17-3-17-12z"/><path d="m9886 23261c-12-19 4-31 38-31 46 0 86-33 86-72 0-45-25-88-85-148-57-56-66-79-39-101 20-16 115 5 236 53 79 31 81 33 47 36-20 2-74-6-119-17-46-12-87-21-91-21-5 0 11 27 35 60 70 95 73 191 6 225-39 20-106 30-114 16z"/><path d="m3195 23238c-2-7-13-51-24-98s-35-120-53-164c-32-77-34-78-72-82-73-6-156-91-156-159 0-90 93-64 174 49l39 54 71-38c75-40 158-60 170-41 4 6-1 14-11 17-44 13-203 99-203 108 0 6 6 23 14 38 35 67 86 243 86 297 0 31-26 45-35 19zm-145-397c0-15-91-111-106-111-18 0-17 4 1 39 25 50 105 104 105 72z"/><path d="m15111 23194c-12-15-21-37-21-50 0-36 54-90 110-110 28-10 50-21 50-25 0-14-82-60-99-54-10 3-29-4-45-16-21-17-24-24-15-35 16-19 42-18 92 6 65 31 117 78 117 106 0 20-13 30-77 61-61 30-79 43-81 62-5 31 12 41 71 41 33 0 47 4 47 14 0 19-22 26-80 26-41 0-52-4-69-26z"/><path d="m2179 23170c-81-85-93-264-22-320 31-24 89-26 121-4 21 14 24 14 47-14 46-55 123-49 187 14 43 42 62 93 47 132-14 37-38 51-87 52-47 0-87-17-116-49-11-12-25-21-33-21s-21-16-28-35c-25-59-79-73-114-29-47 60-11 233 54 262 27 12 30 8 49-50 3-10 10-18 15-18 29 0 13 93-19 110-35 19-62 11-101-30zm341-200c14-26-8-79-45-108-47-37-117-25-129 22-9 36 1 53 48 81 51 31 111 34 126 5z"/><path d="m11857 23143c-34-33 31-87 185-154 65-29 118-55 118-58 0-4-33-23-74-43-117-58-175-119-146-153 17-21 51-20 43 1-9 24 35 62 122 106 140 71 145 101 26 155-42 18-109 51-150 71-70 35-72 37-43 40 36 4 41 16 13 32-22 11-84 14-94 3z"/><path d="m2702 23132c-27-4-90-67-98-98-15-57 29-91 157-120l74-17-117-30c-98-24-118-32-118-48 0-26 38-25 162 7 122 30 158 48 158 74 0 25-18 33-141 60-118 26-138 38-122 73 7 14 24 34 39 43 22 15 31 16 57 6 20-8 35-8 41-2 22 22-45 60-92 52z"/><path d="m13367 23103c-4-3-7-12-7-20 0-26 306-10 335 18 5 5-57 9-156 9-91 0-169-3-172-7z"/><path d="m6667 23085c-61-15-133-65-176-122-37-47-70-130-71-174 0-21-7-28-37-37-110-32-178-27-193 14-14 35 2 96 40 157 37 60 34 93-6 56-73-67-104-213-57-261 30-29 120-36 194-15 29 9 55 14 57 12s8-22 13-46c13-55 54-138 91-184 36-42 46-40 23 5-20 39-61 162-70 212-7 35-5 38 21 48 27 10 97 45 148 74 43 23 134 96 164 131 82 93 2 166-141 130zm122-44c22-14 4-47-61-105-59-54-241-156-254-143-14 13 33 113 75 159 59 66 117 96 191 97 19 0 41-3 49-8z"/><path d="m5325 23068c-36-19-116-102-136-140-47-91-8-148 102-148 35 0 67 8 101 25l49 25 34-35c21-21 55-40 87-50 64-19 87-19 135-1 21 8 65 17 97 20 99 11 196 37 223 60 26 23 26 23 6 43-11 11-45 26-74 33-89 21-159 50-159 66 0 19 59 44 104 44 44 0 89 17 81 30-3 5-37 10-74 10-52 0-78-5-113-24-38-20-48-22-69-11-103 53-289-13-289-102 0-70-141-123-201-74-23 19-23 19-4 60 19 43 116 141 139 141 7 0 21-9 31-20 39-44 61-13 24 34-22 28-59 34-94 14zm396-105c49-48 27-147-38-178-43-21-90-14-153 22-44 26-44 26-22 41 31 20 27 29-8 24-28-4-30-2-30 25 0 82 187 131 251 66zm173-93c38-11 71-21 73-23 6-6-76-26-139-33l-55-6 11 46c8 35 14 45 26 41 8-4 46-15 84-25z"/><path d="m3647 23052c-11-2-17-11-15-20 3-15 25-17 217-15 121 1 219 7 224 12 6 6-3 12-24 15-42 7-377 14-402 8z"/><path d="m11598 22993c-10-2-18-9-18-14 0-13 34-19 130-21l85-3-102-19c-56-10-107-22-114-26-18-12-3-40 21-40 76 0 370 68 370 86 0 3-20 2-44-1-41-7-45-5-48 16-3 24-5 24-133 25-71 1-138 0-147-3z"/><path d="m13462 22970c-80-7-111-23-71-38 28-11 349 16 349 30 0 13-157 18-278 8z"/><path d="m1779 22906c-90-32-147-85-134-126 5-15 13-20 26-17 11 3 32-1 47-9 77-40 202 25 202 104 0 27-46 62-79 62-14-1-42-7-62-14zm96-46c9-15-18-49-54-66-28-13-41-14-72-5-21 6-41 16-44 21s16 20 42 34c49 25 117 34 128 16z"/><path d="m4871 22888c-25-80-39-242-25-295 12-42 32-26 38 30 11 116 26 244 32 270 5 23 3 27-14 27-14 0-24-10-31-32z"/><path d="m3664 22879c-15-25 24-30 169-25 169 7 217 19 111 29-112 11-272 8-280-4z"/><path d="m14270 22872c-44-17-45-19-48-65-3-43 0-51 31-82 25-25 44-35 66-35 90 0 168 82 139 145-12 27-74 55-116 54-15 0-47-8-72-17zm146-47c25-34-31-95-88-95-58 0-95 89-45 110 34 15 118 6 133-15z"/><path d="m12956 22839c-3-16-9-85-12-152-6-113-5-124 14-147 11-14 22-23 25-20 2 3 7 83 10 178 6 163 6 172-12 172-13 0-20-10-25-31z"/><path d="m14840 22782c-49-5-59-19-24-33 36-14 1003-6 1049 8 29 10 29 10-21 17-51 7-936 14-1004 8z"/><path d="m14931 22554c-26-18-69-91-82-138-18-66 26-104 101-87 37 8 39 7 49-20 19-56 117-77 189-40 45 23 87 66 101 103l10 28 36-24c20-14 52-30 70-36 19-6 35-15 35-20s-30-18-66-30c-49-17-68-19-74-11-10 18-32-12-24-34 6-14 15-16 55-12 55 7 138 44 153 70 16 26-2 48-69 82-96 49-97 82-6 109 57 16 56 30-4 34-41 3-50-1-82-33l-36-36-26 24c-57 54-108 61-147 22-42-42-17-111 32-90 18 8 18 8 1 12-22 6-19 41 4 56 24 15 77-10 95-45 14-27 14-33-4-66-23-44-83-82-133-82-38 0-57 15-77 63-12 27-12 28-78 21l-67-7 6 37c3 21 15 52 27 69l21 32-7-37c-4-24-2-38 4-38 13 0 51 100 45 117-8 19-29 22-52 7z"/><path d="m15789 22497c-40-27-84-110-99-187-6-30-13-67-16-82-4-21-11-28-29-28-14 0-29 9-35 19-13 25-13 115 1 165 8 27 8 41 0 49-41 41-82-164-46-232 14-28 68-56 86-45 5 3 9 1 9-4 0-68 10-231 15-244 16-40 22-11 27 119l6 137 33 25c87 65 160 166 174 243 6 31 3 41-19 62-31 32-63 33-107 3zm88-43c12-33-21-99-84-163-34-36-65-63-67-60-8 7 22 126 40 162 25 48 55 77 81 77 13 0 26-7 30-16z"/><path d="m4683 21793c-22-8-14-33 10-33 40 0 97-21 97-35 0-7-27-37-60-66s-60-60-60-71c0-39 86-46 168-12 50 21 38 30-35 27l-68-4 42 38c73 66 77 121 11 141-46 14-91 20-105 15z"/><path d="m5175 21748c-2-7-9-38-15-69-11-55-69-191-87-202-4-3-29-1-54 5-105 24-186-27-180-114 4-53 92-66 157-22 21 14 50 37 64 49l25 24 80-23c44-13 98-26 120-30l40-6-55 29c-30 17-76 37-102 46-27 9-48 19-48 22 0 2 16 38 36 78 36 77 62 180 51 209-8 19-26 21-32 4zm-145-318c0-17-78-62-112-63-40-2-49 22-19 52 16 16 34 21 76 21 30 0 55-4 55-10z"/><path d="m8517 21753c-15-15-4-20 47-26 65-6 144-39 153-63 10-26-8-46-77-84-73-40-90-61-71-84 15-17 59-20 160-10 41 5 61 11 61 20s-13 14-37 15c-38 1-108 16-87 18 6 0 29 17 52 37 71 61 55 117-48 163-43 20-139 29-153 14z"/><path d="m3971 21694c-69-57-123-233-91-293 25-48 100-47 179 3 36 23 36 23 52 2 13-17 26-21 63-19 85 3 186 90 203 174 14 69-72 92-167 44-46-23-100-79-100-103 0-32-141-111-175-98-41 15-36 94 12 192 34 70 57 91 79 74 13-11 17-11 24 0 12 19-6 50-30 50-10 0-32-12-49-26zm358-103c45-28-53-144-139-164-28-7-61 8-45 21 6 4 10 15 11 25 0 9 1 26 2 37 3 31 80 76 152 89 3 0 11-3 19-8z"/><path d="m4458 21669c-34-19-21-57 37-115 31-30 60-54 65-54 6 0 10-7 10-15 0-15-64-53-97-58-26-4-43-16-43-32 0-26 29-23 98 10 101 48 116 90 49 136-50 35-87 71-87 87 0 8 6 12 14 9s31-9 50-13c51-9 48 19-4 40-46 18-68 20-92 5z"/><path d="m3212 21632c-31-10-7-29 49-40 120-22 119-59-5-145-32-22-34-54-3-68 25-11 231 1 244 15 14 13-10 20-99 25l-92 6 36 27c66 51 72 115 14 153-25 17-122 35-144 27z"/><path d="m8164 21566c-57-59-116-171-155-294-20-63-24-70-32-50-4 13-11 79-13 148-6 155-11 190-28 190-28 0-29-117-5-319 12-96 22-121 48-121 27 0 37 17 71 121 47 144 103 250 162 305 46 43 52 46 58 29 7-19 7-19 17 0 16 31 5 45-35 45-30 0-44-8-88-54z"/><path d="m6445 21553c-16-3-36-9-42-15-26-21 0-30 66-23 48 4 71 3 84-7 16-12 12-19-53-76-75-68-89-101-49-122 23-13 101 0 149 25 42 22 47 36 8 24-18-5-55-9-82-9h-49l61 55c33 31 64 64 67 75 20 62-42 90-160 73z"/><path d="m10563 21538c-5-7-17-53-27-101-19-101-56-218-95-297-28-59-24-58-118-45-68 10-106-6-128-52-36-75 2-165 70-171 36-3 43 1 107 68l68 71 166-57c117-41 168-54 176-46 13 13-34 37-204 107-98 40-116 50-109 64 71 135 144 408 121 451-13 23-14 24-27 8zm-214-494c17-4 31-10 31-14 0-16-97-110-113-110-10 0-20 14-28 40-10 33-9 43 5 65 17 26 44 31 105 19z"/><path d="m9890 21525c0-8 17-19 43-25 81-21 148-43 153-51 2-4-29-30-69-58-89-60-106-90-71-125 20-21 112-21 159-2 58 25 43 52-19 35-21-6-51-7-69-3l-31 6 25 22c14 11 47 36 72 53 38 26 47 38 47 62 0 37-24 55-109 81-76 24-131 26-131 5z"/><path d="m2715 21520c-4-6-2-25 4-43 10-29 30-186 46-349 4-40 13-76 24-89 16-20 17-20 38-2 12 10 40 65 63 123 46 118 111 253 140 290 18 23 20 23 20 5 0-17 2-17 10-5 5 8 10 25 10 38 0 28-38 30-68 5-28-24-79-122-139-263l-48-115-7 60c-33 278-40 321-55 337-18 20-29 23-38 8z"/><path d="m7004 21443c-25-26-50-87-77-193-24-92-26-95-55-98-23-2-35 3-52 25-20 25-22 37-18 123 3 89 2 95-17 95-15 0-21-9-27-40-26-146 9-238 95-252 38-6 39-7 34-42-18-115-19-177-4-214 23-54 36-45 35 26 0 34 6 102 12 152 12 88 14 91 56 128 81 71 136 227 100 282-19 29-57 33-82 8zm56-67c0-47-27-118-59-157-16-19-31-32-34-29-8 7 35 157 57 198 20 39 36 34 36-12z"/><path d="m5936 21433c-11-12-6-31 10-37 21-8 34 1 28 19-6 16-29 26-38 18z"/><path d="m5663 21410c-18-11-35-31-39-45-12-47 3-69 72-111 37-22 69-45 71-51 6-18-55-45-109-48-55-3-63-7-55-30 15-38 163-3 200 47 29 39 13 67-61 106-75 40-87 54-72 81 13 25 57 38 73 22 15-15 37-14 37 2 0 21-34 47-61 47-13 0-39-9-56-20z"/><path d="m9330 21401c-13-26-13-54 2-69s48-16 48-2c0 6-5 10-11 10-7 0-8 14-4 40 5 32 4 40-9 40-8 0-20-9-26-19z"/><path d="m6161 21293c-41-137-44-164-23-185 26-27 47-15 98 55 24 34 44 59 44 57 1-3 2-35 3-72 2-67 12-93 26-69 11 17 22 180 15 209-8 28-28 28-41 0-19-41-106-153-110-141-2 6 5 47 17 91 24 95 25 122 5 122-9 0-21-24-34-67z"/><path d="m9005 21344c-41-21-64-43-82-77-30-59 8-84 142-92 124-8 132-10 114-31-16-19-109-74-126-74-7 0-10 7-7 15 8 21-9 19-37-5l-24-20 24-20c29-25 35-25 97 4 68 31 124 82 124 111 0 27-24 55-48 55-67 2-213 18-219 24-11 10 10 38 47 63 29 21 34 21 44 7 11-14 13-14 26 1 10 12 11 21 3 33-14 23-42 25-78 6z"/><path d="m1162 21318c-5-7-24-96-41-198-18-102-50-275-73-385-48-227-51-268-26-273 12-2 22 6 29 25 53 134 92 199 140 236 50 38 83 43 108 18 28-28 28-116 1-203-24-77-25-107-4-115 31-12 82 39 56 56-10 6-10 19 3 66 47 183-16 298-139 251-25-10-61-35-81-57-20-23-38-39-39-37-2 1 12 80 31 173 27 139 60 325 75 430 4 23-24 32-40 13z"/><path d="m9631 21293c-48-183-52-227-25-237 23-9 51 9 118 73 32 31 55 47 51 36s-10-41-12-66c-6-57 11-74 40-38 10 13 15 25 9 27-5 1-3 29 6 66 28 118-1 125-101 26-39-39-72-68-75-65-3 2 5 47 17 99 12 53 20 100 16 106-13 22-35 8-44-27z"/><path d="m5996 21258c-35-47-86-147-86-169 0-32 25-21 44 19 10 20 36 65 58 99 36 56 42 83 18 83-5 0-20-15-34-32z"/><path d="m4033 21270c-99-9-113-13-113-37 0-13 8-15 53-9 28 4 347 9 707 11 360 3 670 7 689 11 26 4 31 8 22 17-14 14-1201 20-1358 7z"/><path d="m8272 21225c-72-60-11-175 93-175 29 0 45 8 71 34 43 43 45 83 6 127-24 27-38 33-83 37-49 4-59 1-87-23zm132-36c31-24 33-52 6-79-28-28-75-26-105 5-30 29-32 55-6 55 11 0 23 5 26 10 3 6-2 10-12 10-15 0-16 2-3 10 25 16 66 11 94-11z"/><path d="m9336 21212c-6-11-56-141-66-173-4-15-4-33 1-40 7-12 11-12 23 1 19 19 76 167 76 197 0 22-23 32-34 15z"/><path d="m7559 21206c-2-2-76-7-164-11-165-7-203-17-168-42 36-28 413 16 413 48 0 9-72 13-81 5z"/><path d="m3033 21131c-15-41 10-151 43-182 49-46 122-19 156 57 38 86-11 148-113 143-27-2-52 0-55 4-13 12-19 8-31-22zm151-34c40-29 6-119-47-125-18-2-30 4-41 20-17 28-31 92-21 107 9 15 88 14 109-2z"/><path d="m4693 21100c-13-5-23-16-23-25 0-13 8-15 50-9 67 9 67-13 0-56-28-18-55-41-61-51-14-27 5-56 42-64 30-7 115 1 133 12 15 10-19 23-61 23-75 0-80 9-27 46 55 39 64 50 64 81 0 46-58 67-117 43z"/><path d="m5201 21053c-29-35-71-131-87-195-5-23-12-28-38-28-58 0-71 19-71 101 0 49-4 74-12 76-36 12-46-138-13-180 22-27 81-50 106-40 11 4 14-8 14-61 0-89 30-160 59-141 6 3 4 19-5 40-16 40-19 138-4 166 6 10 23 25 38 33 98 51 167 201 114 249-31 28-67 21-101-20zm82-23c12-48-38-136-94-165-16-9-29-14-29-12 0 18 43 123 64 156 29 45 51 53 59 21z"/><path d="m3995 21020c-79-17-139-97-140-188 0-48 3-57 33-83 40-36 94-39 152-9 40 20 40 20 60 0 65-65 260 42 260 143v30l24-22c13-12 56-33 95-45s73-25 76-28c6-6-33-12-130-24-57-6-60-8-52-29 8-19 34-19 138 1 98 18 119 28 119 54 0 11-1 20-2 20-2 0-48 15-102 33-137 45-158 82-48 82 44 0 57 3 57 15 0 21-66 36-112 24-28-6-42-18-54-40-15-31-15-31-38-13-48 39-138 12-209-62-23-24-42-52-42-62 0-46-129-77-163-39-38 42-10 146 48 182 39 24 73 25 119 4 60-29 92 1 34 31-46 24-88 32-123 25zm313-106c12-8 22-22 22-30 0-67-122-148-186-124-33 13-32 46 4 56 20 5 23 8 10 11-10 3-18 9-18 15 0 17 61 68 94 77 44 13 49 13 74-5z"/><path d="m1661 20862c-8-6-11-17-7-27 6-16 25-17 210-13 113 2 208 7 212 11s3 12-3 18c-15 15-392 24-412 11z"/><path d="m10255 20829c-44-3-123-9-175-13s-115-9-140-11c-226-20-672-33-1134-34-241-1-442-3-445-5s-197-7-431-11-585-10-780-15c-195-4-643-8-995-9-576-2-733-8-618-24 44-6 2004 0 2198 7 209 8 633 16 1180 21 471 5 874 21 1170 46 66 5 172 14 235 19s146 10 183 10c51 0 68 3 64 13-4 14-176 17-312 6z"/><path d="m2535 20760c-4-6-4-14 0-18 10-10 290-20 595-21 270-1 608 15 624 30 5 4-135 7-310 6s-450 2-610 6c-219 7-293 6-299-3z"/><path d="m1825 20716c-5-3-27-7-47-11-36-6-51-26-29-39 9-6 313 22 320 30 13 12-20 18-122 21-61 1-116 1-122-1z"/><path d="m6459 20500c-27-22-25-23 55-24 35-1 61-6 63-13 7-18-56-82-138-139-42-30-79-61-82-68-3-8 3-22 14-32 18-17 24-16 132 5 245 50 256 51 291 30 17-10 43-19 58-19 23 0 28-6 42-52 8-29 14-53 13-53-35-17-130-89-167-126-89-89-116-175-79-254 37-78 129-120 215-97 62 17 89 39 115 92 36 72 29 202-17 351-3 13 10 22 58 39 74 27 88 37 69 49-8 5-35 2-65-6-79-22-78-22-93 26-14 49-8 115 13 132 26 21 17 75-17 103-46 39-101 36-145-8-28-28-34-41-34-78v-44l-122-18c-68-10-139-20-158-23-34-6-33-5 30 44 102 78 136 147 92 186-27 25-113 23-143-3zm452-90c45-25 10-68-68-85-31-6-33-5-33 22 0 60 49 90 101 63zm51-471c28-158-43-258-166-235-43 8-91 54-99 95-14 68 41 154 152 236l76 57 13-43c7-24 18-74 24-110z"/><path d="m5638 20413c-30-8-20-32 16-39 43-8 331 3 371 14 30 9 29 9-15 15-57 9-349 17-372 10z"/><path d="m1013 19503c-10-4-13-259-13-1229v-1224l5238 2 5237 3 3 1215c2 1133 1 1216-15 1228-13 9-1074 12-5227 11-2866 0-5217-3-5223-6zm10417-1228v-1175h-5190-5190v1175 1175h5190 5190z"/><path d="m3645 18962c-16-4-30-14-30-22 0-11 19-14 91-15 69-1 99-6 129-21 84-44 74-85-40-162-88-59-107-84-84-107 17-17 123-34 194-30 28 1 70 3 95 4 64 2 33 15-75 31-49 7-104 15-122 19l-32 6 66 50c77 57 108 102 98 142-9 36-55 77-102 91-51 15-151 22-188 14z"/><path d="m10776 18911c-3-4 35-77 85-161s105-189 124-234c121-293 67-580-159-839-49-56-129-107-168-107-10 0-18-5-18-11 0-17 82-3 132 22 95 49 214 203 275 359 79 200 65 433-39 649-55 114-198 331-218 331-5 0-11-4-14-9z"/><path d="m3110 18804c-13-33 11-264 36-351 12-43 19-54 41-59 39-10 61 22 139 196 36 79 70 150 76 157 19 23 36 15 30-14-3-22-2-26 8-16 7 6 13 29 14 50 1 36-1 38-32 41-46 5-65-21-142-194-36-81-70-149-76-151-15-5-36 119-43 252-5 94-9 110-23 113-12 2-22-6-28-24z"/><path d="m4595 18731c-97-161-169-370-210-616-11-67-6-262 9-317 19-75 52-147 79-176 26-28 89-62 114-62 11 1 7 6-12 14-74 32-124 133-146 296-30 216 74 637 215 865 13 22 22 43 20 47-13 20-36 3-69-51z"/><path d="m9562 18643c-37-58-105-194-123-246-11-32-17-37-36-32-31 7-41-15-15-35 18-15 19-22 11-61-18-78 10-158 63-180 80-33 208 53 208 139 0 12-4 24-10 27s-10-4-10-18c0-72-126-136-184-94-21 16-31 80-19 127 9 34 10 34 59 31 27-2 58-5 69-6s54-3 95-4l75-1 26-63c44-103 44-121 3-152-167-127-212-298-101-379 39-29 113-27 155 2 50 36 66 94 58 215-3 56-9 118-12 138-5 33-3 37 20 43 39 10 34 38-6 34-30-3-32-1-43 47-6 28-19 65-28 84-21 42-21 41 1 41 9 0 32 9 50 20 27 16 33 26 30 48-2 22-10 29-41 37-47 11-85-6-106-49l-13-29-126 7c-69 4-129 9-133 12-14 9 34 123 104 247 35 63 42 97 18 97-5 0-23-21-39-47zm285-289c-3-3-12-4-19-1-8 3-5 6 6 6 11 1 17-2 13-5zm-10-450c4-79 2-107-10-131-19-35-66-58-102-49-30 8-65 60-65 96 0 44 45 123 101 178 52 51 54 52 62 30 5-13 12-68 14-124z"/><path d="m10150 18671c0-4 19-11 41-14 81-11 72-41-28-98-53-31-66-55-40-77 19-16 146-34 189-27 61 11 47 32-27 40-35 3-77 10-92 14l-28 8 30 15c77 40 106 102 63 132-24 17-108 22-108 7z"/><path d="m1443 18562c-24-15-42-83-87-327-61-336-61-338-42-354 25-21 40-8 81 71 46 88 125 206 161 239l27 24-7-115c-3-63-9-143-12-177-6-54-4-62 13-71 37-20 41-2 49 184 8 202 3 224-45 224-36 0-111-79-171-178-22-37-40-60-40-52 0 32 80 437 94 477 11 33 12 44 2 52-6 5-17 7-23 3z"/><path d="m8368 18549c-10-5-18-17-18-24 0-12 14-15 58-15 34 0 66-6 77-14 18-13 15-16-45-54-36-22-75-48-87-57-28-20-30-61-4-75 24-12 112-13 164-1 78 18 62 34-40 41l-76 5 66 44c75 51 91 76 73 112-19 40-125 63-168 38z"/><path d="m3473 18505c-18-8-33-21-33-30s5-13 11-9c20 12 122 4 146-11 58-39-10-147-102-162-49-8-65 9-65 68 0 26-5 51-11 55-19 12-33-15-33-66 0-41 5-56 26-77 56-56 187-12 234 79 37 71 6 140-73 159-50 11-62 11-100-6z"/><path d="m10678 18493c-41-43-66-97-89-186-12-45-26-88-31-94-6-7-28-13-49-13-29 0-41 5-50 21-11 21-8 92 7 152 5 22 3 27-13 27-25 0-43-39-50-107-10-96 37-152 117-139l38 6 4-88c4-81 25-152 46-152 4 0 7 61 7 135v134l36 38c97 102 155 243 117 281-21 21-63 14-90-15zm56-50c-9-41-40-104-69-138-29-36-33-19-10 46 30 84 95 159 79 92z"/><path d="m8926 18503c-3-4-4-32 0-63 8-71-15-163-60-245-25-45-38-59-52-57-118 19-174 13-210-23-31-31-32-87-3-116 18-18 30-21 74-17s64 12 110 47l57 43 56-25c32-14 71-29 87-32l30-7-30 26c-16 15-49 38-73 52l-42 26 21 35c58 93 78 161 79 261 0 78-19 120-44 95zm-177-399c40-8 39-18-6-48-50-33-84-40-107-23-16 11-17 17-7 36 19 35 59 47 120 35z"/><path d="m6285 18478c-2-7-8-60-14-118s-19-135-31-172l-20-66-64-1c-118-1-196-53-196-133 0-78 83-123 158-84 38 20 86 73 111 123l21 43 98-35c102-37 122-41 122-25 0 12-112 74-163 90-33 10-38 15-33 34 4 11 14 46 22 76 9 30 18 106 21 168 5 100 4 112-11 112-9 0-18-6-21-12zm-85-403c0-14-52-85-80-108-52-45-110-32-110 23 0 38 19 59 70 75 44 13 120 20 120 10z"/><path d="m5714 18466c-69-30-51-51 29-34 48 10 58 9 81-5 14-10 26-24 26-33 0-24-28-60-71-90-54-37-68-63-43-82 15-11 40-12 119-7 95 6 128 16 111 32-4 4-41 9-82 11l-74 4 40 45c32 36 40 54 40 84 0 74-90 112-176 75z"/><path d="m7580 18399c-50-52-102-155-107-217-4-38-1-52 18-76 21-26 26-28 78-24 31 3 76 14 100 26 55 27 58 27 66 1 8-24 61-49 102-49 39 0 122 41 155 76 15 16 34 46 42 66 15 34 18 37 41 28 13-5 55-15 92-21 38-6 74-15 82-19 28-15-150-97-185-83-12 4-15 0-12-18 5-37 69-31 163 15 85 42 113 73 95 105-11 22-15 24-134 46-44 8-84 19-89 24-18 18 42 44 114 49 38 2 72 9 75 14 23 37-115 41-187 5l-47-23-28 24c-24 21-35 24-77 18-67-7-127-49-182-124-46-63-103-101-173-117-43-9-62 8-62 54 0 69 97 221 141 221 9 0 24-11 33-25s21-25 26-25c17 0 11 36-11 64-33 41-79 36-129-15zm415-95c36-36-16-138-87-173-56-27-99-27-123-1-18 20-18 22-2 49 9 16 17 35 17 43 0 18 45 60 85 81 39 21 89 21 110 1z"/><path d="m4884 18361c-40-25-74-72-74-105 0-36 31-52 125-68 101-17 108-32 34-82-36-24-55-32-60-24-11 17-74-24-74-48 0-50 141 0 205 73 62 70 28 111-105 128-65 8-79 17-71 43 8 23 64 62 89 62 9 0 23-10 31-21 9-14 21-19 31-15 14 5 14 9 1 35-24 46-78 55-132 22z"/><path d="m5175 18340c-4-7-3-16 3-22 14-14 47-6 47 12s-40 26-50 10z"/><path d="m2096 18275c-60-8-114-19-120-25-16-16 17-38 52-35 152 15 291 43 295 61 3 14-105 14-227-1z"/><path d="m5401 18233c-35-97-42-145-25-170 8-13 17-23 20-23 20 0 68 37 110 86l49 58 6-52c9-69 15-82 38-82 21 0 36 26 20 36-5 3-9 38-8 78 4 107-16 124-73 59-99-112-118-129-118-106 0 11 9 50 20 85 25 78 25 88 1 88-14 0-24-15-40-57z"/><path d="m5194 18164c-48-74-77-142-70-160 3-9 10-13 14-10 17 10 123 207 117 216-12 20-26 9-61-46z"/><path d="m6767 18197c-13-35 16-40 218-34 185 5 244 14 215 32-7 4-106 10-220 13-181 4-208 3-213-11z"/><path d="m3044 18175c-4-9-4-18-1-21 14-14 235-23 572-24 354 0 435 3 435 20 0 15-64 19-351 20-297 0-514 6-602 16-37 4-49 1-53-11z"/><path d="m2028 18083c-10-2-18-13-18-23 0-21 40-33 86-26 16 2 68 7 117 11 146 11 113 22-118 40-27 2-58 1-67-2z"/><path d="m3604 17969c-20-22-25-91-11-140 8-24 6-26-50-42-32-10-79-22-105-27-59-12-248-25-248-17 0 4 22 18 50 32 53 27 115 77 130 106 7 11 7 27 0 43-14 37-76 52-159 37-76-14-101-26-101-48 0-12 6-14 33-8 112 25 187 25 187-1 0-17-51-55-136-102-55-30-70-43-72-64-3-22 2-28 33-38 66-22 250 2 394 50 126 42 141 41 165-16 19-46 19-47 0-57-10-6-49-39-85-74-84-81-124-157-114-219 16-106 151-155 271-98 94 45 109 179 38 342l-23 52 60 44c33 24 80 54 104 67 25 13 45 30 45 36 0 7-2 13-4 13-12 0-105-44-157-75-33-19-63-35-68-35-16 0-42 73-36 100 3 16 1 31-4 35-6 3-11 23-11 44 0 70-82 109-126 60zm82-55c7-28-9-74-26-74-20 0-34 48-22 75 15 32 40 32 48-1zm109-350c59-168 7-267-133-251-36 4-53 12-75 37-25 28-28 38-22 69 4 20 16 50 26 68 29 46 160 166 171 155 5-5 20-40 33-78z"/></g><g fill="#44b" transform="matrix(.054411653 0 0 -.054411653 1360.58550353537 1457.41362391264)"><path d="m750 2973c-57-10-88-25-119-57-40-41-55-100-46-179 6-45 12-61 32-77 32-25 35-25 64-1 22 17 24 26 21 89-4 105 24 120 164 87 33-7 119-19 190-25 88-8 134-16 144-26 32-32 8-420-28-456-18-18-126-28-289-28-185 0-206-4-250-52-55-58-58-82-55-363 1-145 7-274 13-293 11-34 51-62 89-62 12 0 35 14 52 31l31 30-6 238c-3 130-3 249 0 264l5 27h112c234 1 363 26 423 82 58 54 98 260 91 463-4 122-7 138-34 191-40 81-79 100-217 108-174 10-361 14-387 9z"/><path d="m3660 2971c-42-9-83-34-103-65-39-59-50-127-54-343-5-206-5-212 18-252 28-50 78-86 143-102 48-12 257-8 370 7l49 7-7-104c-4-57-11-189-16-294-9-177-9-192 8-214 35-47 100-46 136 2 22 29 27 86 42 452 7 191 0 235-44 283-45 48-92 56-241 38-146-18-229-20-265-6l-26 10v162c0 156 8 230 27 249 5 5 99 6 210 2l201-6 5-50c3-39 11-56 31-74 34-29 48-29 80 0 24 20 26 30 28 113 4 147-23 169-218 179-242 11-340 13-374 6z"/><path d="m1565 2945c-14-13-25-32-25-42s-1-297-3-638c-2-677-3-662 55-694 33-19 73-7 101 31 18 24 20 51 29 300 5 150 10 278 12 283 2 6 37 8 97 3 52-3 135-7 186-7 154-2 161-10 143-176-21-189-27-310-18-343 12-45 45-72 86-72 71 0 102 46 102 151 0 33 7 118 16 187 24 190 9 280-58 349-50 52-112 67-263 65-71-1-164-6-205-11-41-4-78-7-81-5-4 2-10 108-13 236-9 286-17 352-47 384-31 33-82 32-114-1z"/><path d="m2542 2944c-55-38-64-109-53-419 6-186 9-215 28-250 50-95 116-125 302-135 75-4 171-5 215-1l78 7-4-178c-2-97-7-181-11-184-4-4-42 1-85 11-104 26-285 27-363 3-106-33-149-107-99-170 26-34 68-41 132-21 74 23 202 20 308-7 182-47 274 5 301 168 12 77 27 831 19 994-7 152-20 181-86 186-88 7-103-51-104-401v-219l-201 4c-197 3-201 3-220 27-18 21-19 42-19 283v260l-29 29c-33 33-74 38-109 13z"/><path d="m2374 1391c-55-34-79-78-79-147 0-51 4-66 27-96 35-45 102-73 153-64 78 15 146 111 131 188-20 108-145 172-232 119z"/><path d="m1853 999c-39-11-66-56-61-101 6-59 69-64 76-6 4 30 34 38 145 38h67v-110c0-135-1-136-132-126-85 6-89 6-113-18-24-25-25-28-25-179 0-162 4-177 47-177 35 0 43 29 43 159v121h73c85 0 141 14 168 41 17 17 19 34 19 169 0 147-1 152-25 175-23 24-30 25-137 24-62 0-128-5-145-10z"/><path d="m2985 1000c-91-16-93-18-104-58-15-51-14-537 0-564 19-36 69-48 204-48 121 0 127 1 151 25l24 24-2 292-3 292-26 19c-31 23-161 33-244 18zm169-86c14-5 16-37 16-250v-245l-102 3-103 3v240 240l40 6c57 9 131 10 149 3z"/><path d="m2351 971c-24-24-29-73-37-372-6-232-6-237 15-258 23-23 29-25 51-11 12 7 16 40 20 150l5 141 35-23c19-13 59-55 88-93 30-39 78-96 108-128 47-51 56-57 74-47 29 16 25 42-15 92-19 24-62 78-95 121-61 77-61 77-33 77 15 0 46 9 69 19 56 26 67 57 62 179-6 156-27 172-220 172-93 0-111-3-127-19zm257-74c16-13 17-168 0-185-7-7-41-12-84-12-40 0-84-4-98-10l-26-10v120 119l98-6c53-3 103-10 110-16z"/></g></svg>