<?xml version="1.0" standalone="no"?>
<!DOCTYPE svg PUBLIC "-//W3C//DTD SVG 20010904//EN"
 "http://www.w3.org/TR/2001/REC-SVG-20010904/DTD/svg10.dtd">
<svg version="1.0" xmlns="http://www.w3.org/2000/svg"
 width="1826.000000pt" height="824.000000pt" viewBox="0 0 1826.000000 824.000000"
 preserveAspectRatio="xMidYMid meet">

<g transform="translate(0.000000,824.000000) scale(0.100000,-0.100000)"
fill="#000000" stroke="none">
<path d="M13403 7988 c-28 -36 -122 -211 -117 -219 14 -23 35 -4 73 64 l41 72
0 -1612 0 -1613 -1837 0 c-1542 0 -1834 2 -1818 13 11 8 50 31 88 51 62 35 80
57 58 70 -11 7 -211 -106 -235 -133 -20 -22 -14 -41 13 -41 12 0 18 -7 17 -17
-1 -14 21 -25 94 -51 52 -18 100 -30 108 -27 29 11 2 31 -84 62 l-89 32 1841
0 1842 1 5 -21 c3 -12 12 -19 19 -17 11 4 14 297 18 1622 l5 1617 52 -106 c29
-58 58 -105 63 -105 27 0 16 38 -45 159 -36 72 -69 148 -73 168 -8 40 -23 51
-39 31z"/>
<path d="M12140 7563 l0 -26 -107 6 c-60 4 -136 10 -170 13 -59 6 -63 5 -63
-13 0 -18 11 -21 113 -32 173 -17 260 -15 288 8 22 18 22 19 6 45 -24 37 -67
36 -67 -1z"/>
<path d="M11070 7555 c0 -12 -20 -15 -120 -15 -113 0 -120 -1 -120 -20 0 -19
7 -20 159 -20 132 0 160 -3 165 -15 4 -11 -1 -15 -19 -15 -28 0 -35 -27 -10
-36 22 -9 65 4 72 21 9 25 -15 68 -50 93 -38 25 -77 29 -77 7z"/>
<path d="M10247 7483 c-14 -13 -6 -23 31 -42 l37 -20 -181 -1 c-147 0 -183 -3
-187 -14 -3 -8 -3 -17 0 -20 4 -3 97 -6 208 -6 165 0 205 3 215 15 19 23 3 50
-44 73 -44 23 -68 27 -79 15z"/>
<path d="M11766 7442 c-8 -13 78 -259 99 -282 12 -13 31 -20 57 -20 53 0 103
47 128 119 l18 54 27 -53 c38 -75 63 -107 96 -120 27 -12 49 -7 49 10 0 4 -15
17 -33 28 -26 15 -47 45 -86 121 -64 126 -77 126 -101 8 -21 -102 -97 -161
-135 -104 -8 13 -22 48 -30 78 -41 141 -69 193 -89 161z"/>
<path d="M10810 7349 c0 -38 35 -153 61 -197 35 -62 105 -112 156 -112 67 0
147 52 176 113 14 29 25 36 77 50 38 11 60 22 60 31 0 21 -15 27 -42 18 -69
-26 -75 -25 -82 18 -17 104 -126 106 -126 2 0 -35 37 -82 65 -82 25 0 17 -24
-17 -57 -59 -55 -103 -66 -156 -39 -59 31 -100 101 -122 209 -9 46 -15 57 -31
57 -10 0 -19 -5 -19 -11z m364 -77 c10 -37 2 -51 -22 -36 -19 12 -27 38 -18
60 9 24 30 11 40 -24z"/>
<path d="M11544 7295 c-4 -8 -3 -35 0 -60 l7 -44 -58 -3 c-46 -2 -59 -7 -61
-20 -3 -16 5 -18 56 -18 l59 0 6 -41 c6 -48 31 -79 48 -62 8 8 8 16 0 31 -6
11 -11 32 -11 46 0 23 4 26 33 26 42 0 73 21 64 44 -5 13 -11 15 -26 6 -29
-15 -58 -12 -65 6 -10 25 -7 34 9 34 22 0 18 23 -8 48 -27 26 -45 28 -53 7z"/>
<path d="M10235 7257 c-8 -19 -23 -78 -34 -132 -11 -53 -21 -99 -23 -100 -2
-2 -32 34 -66 81 -68 91 -98 116 -108 89 -4 -10 4 -28 23 -48 17 -18 43 -50
58 -72 95 -133 125 -129 151 18 8 47 21 105 29 128 19 53 19 69 -1 69 -8 0
-21 -15 -29 -33z"/>
<path d="M10442 7223 c3 -16 17 -18 106 -21 97 -3 102 -2 102 18 0 19 -6 20
-106 20 -95 0 -105 -2 -102 -17z"/>
<path d="M467 7213 c-2 -4 -7 -24 -11 -44 -6 -37 -71 -194 -88 -215 -5 -7 -29
-17 -53 -23 -72 -18 -157 -59 -152 -73 6 -18 31 -14 104 13 34 13 65 21 68 17
4 -3 -5 -28 -19 -55 l-25 -50 -91 -13 c-91 -13 -111 -23 -91 -43 8 -8 31 -8
83 1 40 6 74 10 75 8 2 -2 -22 -56 -53 -120 -39 -81 -53 -121 -46 -128 6 -6
15 -7 20 -4 6 3 38 64 72 135 l63 129 86 16 c120 22 125 22 117 -11 -10 -39
-74 -174 -93 -196 -20 -21 -6 -41 21 -31 19 7 84 132 110 212 19 56 19 55 108
67 49 6 79 28 61 46 -6 6 -19 6 -37 -1 -15 -5 -43 -10 -62 -10 -39 0 -39 0 -5
105 l16 49 85 27 c51 16 85 33 85 41 0 21 -38 21 -94 -2 -28 -11 -55 -20 -60
-20 -5 0 -2 32 6 71 11 51 12 74 4 82 -18 18 -29 -3 -46 -88 -9 -44 -18 -81
-19 -83 -2 -1 -44 -15 -94 -31 l-91 -28 15 36 c42 97 65 167 62 189 -3 25 -22
40 -31 25z m123 -249 c0 -4 -9 -37 -20 -73 l-20 -67 -96 -13 c-53 -7 -98 -10
-101 -7 -3 2 8 28 24 57 27 51 31 54 108 80 84 29 105 33 105 23z"/>
<path d="M10495 7180 c-11 -19 6 -30 46 -30 21 0 48 -6 59 -12 16 -10 22 -10
32 0 11 11 9 17 -11 33 -25 21 -115 27 -126 9z"/>
<path d="M2147 7173 c-4 -3 -7 -62 -7 -129 0 -121 1 -124 25 -140 19 -13 37
-15 75 -10 61 8 84 -3 109 -52 41 -82 41 -82 -39 -82 -52 0 -82 6 -112 21 -47
24 -74 13 -45 -19 25 -27 84 -42 165 -42 110 0 122 22 72 128 -35 74 -69 94
-153 90 l-52 -3 -3 103 -3 102 141 0 c133 0 140 1 140 20 0 19 -7 20 -153 20
-85 0 -157 -3 -160 -7z"/>
<path d="M1364 7127 c-3 -8 -4 -72 -1 -141 2 -78 0 -129 -7 -136 -5 -5 -34
-10 -64 -10 -52 0 -53 1 -69 38 -9 20 -18 82 -22 137 -5 79 -9 100 -21 100
-12 0 -15 -18 -15 -105 1 -92 4 -112 25 -155 l25 -50 75 0 c41 0 83 4 92 9 15
7 17 -1 20 -81 2 -70 6 -88 18 -88 25 0 25 149 1 275 -12 58 -22 129 -23 159
-3 53 -21 80 -34 48z"/>
<path d="M1565 7130 c-12 -20 8 -30 63 -31 31 0 106 -6 167 -12 88 -10 110
-15 113 -28 2 -9 -11 -52 -27 -96 l-31 -79 -106 -11 c-106 -11 -138 -23 -117
-44 7 -7 36 -7 97 1 48 7 90 9 93 6 3 -3 -8 -36 -24 -73 -44 -97 -57 -143 -45
-155 16 -16 29 -2 48 55 9 28 30 78 46 111 l30 59 68 -7 c45 -4 71 -2 76 5 11
18 -11 30 -70 36 -47 5 -56 9 -50 22 61 151 67 192 32 215 -13 8 -76 19 -145
25 -150 14 -210 14 -218 1z"/>
<path d="M1028 7113 c-8 -10 -25 -36 -36 -59 -12 -23 -37 -62 -57 -89 -36 -47
-37 -73 -2 -59 16 6 95 115 99 138 1 6 5 -90 8 -214 4 -191 7 -225 20 -225 13
0 15 35 18 241 2 219 1 243 -16 263 -17 22 -18 22 -34 4z"/>
<path d="M3755 6729 c-89 -24 -73 -135 49 -358 74 -134 101 -214 91 -270 -9
-57 -58 -153 -100 -199 -33 -37 -39 -40 -61 -30 -34 16 -74 -3 -74 -36 0 -31
15 -41 64 -41 39 0 40 -1 63 -58 62 -153 69 -442 19 -727 -40 -226 -35 -258
43 -247 78 10 192 100 163 129 -8 8 -22 1 -56 -30 -42 -39 -119 -73 -133 -58
-4 4 -2 41 5 84 6 42 21 140 33 217 17 116 20 170 16 315 -5 184 -18 254 -63
359 l-24 53 38 43 c49 55 89 136 104 207 16 77 -5 148 -86 298 -86 158 -100
195 -101 254 l0 51 42 0 c48 0 61 9 44 29 -16 19 -41 24 -76 15z"/>
<path d="M5547 6548 c-19 -15 -47 -78 -47 -107 0 -34 46 -78 95 -90 41 -10 45
-14 45 -41 0 -64 -75 -216 -131 -266 -17 -15 -43 -23 -90 -28 -62 -6 -66 -5
-92 21 -34 37 -69 117 -127 292 -45 139 -63 171 -76 137 -8 -20 77 -279 122
-373 36 -75 81 -123 117 -123 69 1 151 20 174 42 61 57 129 190 142 278 l6 45
95 5 c76 4 95 8 95 20 0 12 -18 16 -93 18 -80 2 -93 5 -88 18 10 26 -15 103
-44 134 -30 32 -73 40 -103 18z m86 -65 c17 -29 26 -87 16 -98 -3 -2 -24 1
-48 7 -55 14 -69 40 -47 92 19 47 51 46 79 -1z"/>
<path d="M7185 6548 c-2 -7 -11 -83 -20 -168 -8 -85 -18 -174 -21 -197 l-5
-41 -52 5 c-46 4 -55 2 -76 -20 -14 -16 -25 -43 -28 -70 -5 -40 -2 -48 29 -82
29 -32 41 -38 77 -39 34 0 47 4 62 23 10 13 19 34 19 46 0 51 8 56 51 35 49
-26 110 -26 140 -1 18 15 21 22 13 31 -9 9 -17 9 -32 1 -33 -18 -72 -13 -120
15 l-44 26 6 52 c29 265 38 367 33 380 -8 19 -26 21 -32 4z m-70 -448 c25 -9
26 -13 20 -57 -9 -58 -27 -76 -63 -62 -48 18 -62 55 -40 104 12 27 38 32 83
15z"/>
<path d="M12954 6446 c-3 -8 -3 -20 0 -25 4 -7 -25 -11 -81 -13 -70 -2 -88 -6
-88 -18 0 -12 20 -16 108 -18 109 -3 131 -12 76 -31 -37 -13 -33 -37 6 -34 41
3 65 30 65 73 0 39 -18 62 -58 75 -15 4 -24 2 -28 -9z"/>
<path d="M4067 6443 c-15 -15 -5 -88 32 -232 46 -177 63 -215 120 -258 100
-77 186 -21 237 152 l17 60 17 -60 c53 -187 125 -287 175 -245 21 18 13 35
-16 35 -54 0 -137 224 -160 432 -10 86 -15 103 -28 101 -13 -3 -17 -24 -22
-128 -12 -270 -95 -401 -199 -314 -44 37 -62 79 -105 247 -33 127 -36 151 -25
171 7 13 9 29 6 35 -8 12 -39 15 -49 4z"/>
<path d="M2189 6416 c-2 -2 -78 -9 -169 -15 -91 -7 -226 -21 -300 -31 -194
-29 -547 -45 -995 -45 -285 0 -418 4 -495 14 -142 20 -185 20 -185 1 0 -11 28
-19 115 -34 98 -15 178 -18 550 -19 484 -2 805 12 1015 42 177 26 371 41 600
48 l180 5 -3 -149 c-2 -104 2 -188 15 -274 13 -92 18 -209 20 -451 l4 -326
-723 -7 c-1265 -12 -1594 -11 -1678 4 -102 18 -115 19 -115 1 0 -47 216 -63
725 -56 223 3 716 9 1097 12 l691 5 5 -528 c3 -405 8 -554 20 -638 8 -61 28
-225 42 -365 15 -140 30 -282 34 -314 4 -40 12 -62 23 -70 22 -14 46 6 31 26
-5 7 -17 83 -27 168 -9 85 -31 277 -48 425 -31 262 -32 285 -35 777 -4 443 -2
507 10 502 26 -9 32 18 9 37 -22 17 -22 22 -22 331 0 240 -4 333 -16 398 -21
117 -34 493 -16 478 20 -17 40 7 26 30 -10 15 -34 17 -196 20 -101 1 -186 0
-189 -2z"/>
<path d="M12542 6323 c2 -12 13 -18 33 -18 20 0 31 6 33 18 3 14 -4 17 -33 17
-29 0 -36 -3 -33 -17z"/>
<path d="M12618 6302 c-32 -34 -48 -65 -48 -91 0 -28 21 -37 37 -16 11 16 13
-30 13 -298 l0 -317 -662 1 c-365 0 -656 3 -648 6 8 3 47 21 87 39 53 25 71
38 67 49 -9 21 -23 19 -90 -14 -32 -17 -99 -42 -149 -56 -104 -30 -126 -45
-107 -75 15 -24 15 -68 1 -144 -11 -59 -4 -82 18 -68 15 9 33 96 33 153 0 22
2 39 5 39 3 0 47 -16 96 -35 102 -39 163 -46 157 -18 -2 12 -17 20 -46 25
-137 23 -54 27 548 27 l625 -1 -644 -319 c-354 -176 -646 -318 -648 -315 -2 2
2 15 8 30 9 20 10 29 1 38 -16 16 -32 0 -67 -64 -16 -29 -33 -56 -38 -59 -5
-3 -7 -19 -5 -35 l3 -29 123 -3 c117 -3 122 -3 122 17 0 19 -7 20 -97 23 l-98
3 304 153 305 153 114 -6 c62 -3 117 -7 121 -9 14 -9 132 21 148 36 20 20 9
53 -23 75 -32 21 -56 4 -36 -27 6 -10 8 -21 4 -23 -15 -9 -199 -18 -217 -11
-13 6 50 41 245 139 l264 132 15 -31 c18 -35 108 -86 153 -86 21 0 28 -5 28
-19 0 -21 23 -45 33 -34 12 12 7 79 -7 98 -12 17 -16 17 -30 6 -33 -27 -146
27 -146 70 0 14 21 30 82 60 46 22 87 44 91 48 5 5 8 175 8 377 -1 329 1 367
14 350 8 -11 15 -31 15 -44 0 -33 34 -26 38 9 3 28 -23 67 -67 98 l-28 20 -25
-27z"/>
<path d="M12986 6268 c-2 -7 -9 -46 -15 -86 -12 -80 -35 -136 -54 -129 -13 4
-26 37 -57 145 -19 66 -38 89 -54 64 -8 -13 51 -203 72 -231 26 -36 36 -36 75
-1 25 22 38 45 47 80 l12 51 29 -46 c55 -87 106 -117 129 -76 11 22 -3 37 -32
33 -20 -4 -73 71 -104 148 -23 55 -41 73 -48 48z"/>
<path d="M12326 6255 c-27 -8 -56 -21 -64 -29 -14 -14 -14 -16 2 -22 10 -4 36
-1 59 6 23 7 53 16 67 20 30 8 33 34 5 37 -11 1 -42 -5 -69 -12z"/>
<path d="M4840 6186 c-55 -8 -75 -15 -75 -26 0 -21 44 -23 135 -8 54 10 75 17
75 28 0 19 -38 21 -135 6z"/>
<path d="M6598 6191 c-59 -12 -87 -44 -50 -58 9 -4 33 -19 53 -33 20 -14 64
-34 97 -45 34 -10 59 -22 56 -27 -8 -12 -133 1 -168 18 -37 18 -56 18 -56 -1
0 -24 40 -43 115 -55 88 -14 151 -6 166 21 16 31 -12 55 -91 80 -37 12 -78 30
-91 40 l-24 19 32 0 c17 0 44 5 58 10 23 9 25 13 15 25 -13 16 -50 18 -112 6z"/>
<path d="M6050 6162 c-21 -17 -21 -20 -7 -54 17 -41 47 -64 101 -79 33 -9 43
-8 65 9 23 17 29 18 48 5 12 -8 36 -15 54 -15 58 -2 90 68 53 120 -23 33 -60
28 -104 -15 -64 -63 -79 -72 -108 -63 -48 14 -60 21 -66 37 -9 21 2 33 28 33
25 0 51 22 39 33 -13 14 -81 6 -103 -11z m285 -63 c0 -19 -6 -25 -27 -27 -32
-4 -36 12 -11 40 21 24 38 18 38 -13z"/>
<path d="M10587 6163 c-16 -15 -5 -43 21 -57 l27 -15 -42 -1 c-59 0 -141 -21
-147 -37 -3 -7 -3 -20 1 -29 5 -13 18 -15 87 -9 45 4 103 11 130 16 33 6 53 6
60 -1 27 -27 96 5 96 44 0 33 -25 51 -104 75 -69 21 -117 27 -129 14z"/>
<path d="M5816 6122 c-10 -17 6 -53 23 -50 22 4 21 52 -1 56 -9 2 -19 -1 -22
-6z"/>
<path d="M164 6105 c-17 -45 37 -283 87 -380 27 -53 96 -124 138 -142 43 -18
100 -10 163 25 94 50 131 105 154 229 4 24 14 37 30 43 29 11 31 30 4 37 -14
4 -20 14 -20 32 -1 44 -36 109 -72 131 -39 24 -95 26 -126 4 -19 -13 -22 -24
-22 -75 0 -33 5 -69 10 -80 14 -26 62 -49 102 -49 59 0 64 -9 43 -85 -20 -74
-57 -121 -123 -153 -92 -47 -148 -32 -214 54 -46 61 -107 244 -117 353 -6 63
-24 90 -37 56z m465 -61 c25 -18 51 -71 51 -104 0 -17 -6 -20 -48 -20 -69 0
-92 20 -92 79 0 26 3 51 7 54 12 13 58 7 82 -9z"/>
<path d="M12016 6082 c-44 -30 -55 -49 -33 -58 21 -8 97 45 97 67 0 26 -18 23
-64 -9z"/>
<path d="M1027 6094 c-13 -13 -7 -228 8 -284 18 -69 66 -165 105 -212 68 -82
149 -27 205 140 l23 67 7 -40 c13 -74 26 -104 61 -135 43 -37 100 -42 129 -10
14 16 16 23 7 32 -9 9 -15 9 -24 0 -21 -21 -67 -14 -92 13 -35 37 -56 145 -56
281 0 107 -1 114 -20 114 -15 0 -20 -7 -20 -27 0 -33 -16 -120 -42 -236 -21
-88 -62 -168 -100 -191 -22 -13 -49 11 -87 78 -51 89 -64 142 -70 280 -6 120
-14 150 -34 130z"/>
<path d="M4948 6095 c-3 -4 -37 -10 -75 -13 -51 -5 -68 -11 -68 -22 0 -11 13
-16 50 -18 61 -3 140 18 140 38 0 15 -36 26 -47 15z"/>
<path d="M11780 5971 c-31 -13 -45 -24 -45 -37 0 -21 9 -21 73 3 29 11 42 22
42 34 0 23 -12 23 -70 0z"/>
<path d="M10797 5912 c-9 -10 -17 -35 -17 -54 0 -20 -3 -50 -6 -68 l-7 -32
-72 72 c-71 71 -95 80 -109 43 -8 -20 18 -54 112 -145 81 -79 100 -89 121 -64
10 12 24 111 34 236 3 32 -32 39 -56 12z"/>
<path d="M11528 5854 c-45 -23 -60 -46 -39 -59 5 -3 26 4 46 16 20 12 51 25
68 28 19 4 33 14 35 24 5 26 -53 21 -110 -9z"/>
<path d="M7505 5748 c-2 -7 -11 -98 -20 -203 -19 -221 -26 -262 -46 -256 -103
27 -164 19 -175 -25 -17 -69 37 -177 92 -182 39 -4 76 25 104 82 l21 45 45
-35 c39 -29 53 -34 100 -34 58 0 118 23 111 43 -2 7 -15 11 -28 9 -124 -17
-125 -17 -173 30 -45 42 -45 44 -36 83 13 56 43 422 36 440 -7 18 -25 20 -31
3z m-80 -501 c16 -12 17 -18 6 -48 -13 -37 -48 -79 -67 -79 -20 0 -56 58 -61
100 l-6 40 55 0 c30 0 62 -6 73 -13z"/>
<path d="M11306 5725 c-11 -8 -31 -15 -44 -15 -15 0 -26 -7 -29 -19 -4 -17
-43 -42 -85 -55 -30 -9 -22 -36 10 -36 34 0 197 100 197 120 0 20 -26 23 -49
5z"/>
<path d="M5670 5641 c-16 -30 -12 -113 6 -139 9 -13 37 -33 62 -45 l47 -23 -2
-72 c-3 -89 -28 -141 -91 -189 -37 -28 -52 -33 -98 -33 -45 0 -59 5 -79 24
-27 27 -139 245 -165 320 -17 52 -36 69 -46 41 -9 -23 28 -118 104 -261 78
-148 101 -169 188 -168 66 1 132 38 175 97 42 57 49 78 56 168 5 69 8 78 27
81 30 4 26 32 -5 36 -23 3 -28 9 -33 44 -4 23 -16 58 -28 79 -31 56 -97 78
-118 40z m55 -27 c19 -8 40 -46 50 -91 8 -40 -9 -44 -49 -12 -21 17 -26 29
-26 65 0 47 0 47 25 38z"/>
<path d="M706 5588 c-19 -66 -45 -118 -83 -169 -36 -47 -43 -63 -34 -72 28
-27 158 168 149 224 -3 25 -26 37 -32 17z"/>
<path d="M12661 5501 c-19 -35 -9 -111 14 -111 17 0 25 23 25 70 0 47 -23 71
-39 41z"/>
<path d="M4560 5466 c-13 -17 -39 -149 -40 -211 -1 -22 -7 -58 -14 -80 l-12
-40 -153 153 c-140 142 -169 164 -178 135 -2 -6 71 -85 162 -177 140 -141 169
-165 184 -157 23 13 47 101 56 205 3 43 13 98 21 122 19 57 4 85 -26 50z"/>
<path d="M6317 5332 c-15 -15 -27 -38 -27 -50 0 -18 6 -22 33 -22 47 0 102
-18 121 -39 17 -18 16 -19 -24 -26 -23 -4 -71 -5 -108 -3 -61 3 -67 1 -67 -17
0 -19 7 -20 100 -20 55 0 112 3 127 8 40 11 46 43 13 77 -25 26 -44 36 -99 54
-18 6 -18 7 -1 26 40 44 -26 56 -68 12z"/>
<path d="M6534 5349 c-10 -17 13 -36 27 -22 12 12 4 33 -11 33 -5 0 -12 -5
-16 -11z"/>
<path d="M4890 5326 c-82 -9 -105 -14 -105 -26 0 -12 16 -15 95 -13 117 3 175
14 175 33 0 19 -32 20 -165 6z"/>
<path d="M6680 5307 c0 -18 67 -142 85 -157 22 -18 37 -2 30 31 -8 34 8 59 35
59 12 0 21 -10 25 -28 3 -15 14 -42 25 -60 15 -25 27 -32 50 -32 31 0 80 37
80 60 0 22 -30 22 -48 -1 -25 -30 -47 -20 -62 28 -7 21 -19 46 -28 56 -20 22
-64 22 -93 -2 l-24 -19 -23 39 c-22 38 -52 53 -52 26z"/>
<path d="M12477 5303 c-4 -3 -7 -38 -7 -76 0 -57 -3 -68 -15 -63 -26 10 -45
-5 -45 -36 0 -62 45 -92 72 -48 9 14 24 20 51 20 45 0 77 15 77 35 0 12 -10
14 -53 9 l-52 -6 4 86 c2 70 0 86 -11 86 -8 0 -18 -3 -21 -7z"/>
<path d="M6570 5243 c1 -25 45 -77 59 -69 16 10 14 24 -10 57 -23 32 -49 38
-49 12z"/>
<path d="M5981 5232 c-12 -23 4 -52 29 -52 30 0 43 34 21 54 -23 21 -38 20
-50 -2z"/>
<path d="M11117 5244 c-4 -4 -7 -29 -7 -56 0 -42 3 -49 18 -46 13 3 17 14 17
52 0 46 -12 66 -28 50z"/>
<path d="M4825 5209 c-15 -23 16 -30 131 -27 98 2 119 6 119 18 0 12 -21 15
-122 18 -81 2 -124 -1 -128 -9z"/>
<path d="M12643 5174 c-7 -18 9 -51 23 -46 14 3 11 55 -3 59 -7 3 -16 -3 -20
-13z"/>
<path d="M11120 5050 c-16 -30 -9 -105 10 -105 10 0 17 14 21 45 3 25 8 51 10
59 7 24 -28 24 -41 1z"/>
<path d="M12057 5032 c-19 -21 -22 -58 -8 -95 10 -24 65 -52 82 -41 17 10 9
-17 -17 -55 -32 -49 -46 -54 -95 -39 -56 16 -121 90 -149 167 -25 69 -33 77
-49 57 -13 -16 6 -76 44 -142 54 -91 160 -151 223 -125 30 13 102 112 102 141
0 10 7 21 16 24 16 6 16 42 0 37 -4 -1 -17 11 -27 28 -18 30 -65 61 -92 61 -8
0 -21 -8 -30 -18z m76 -50 c21 -19 22 -38 2 -46 -23 -8 -45 4 -51 30 -11 45 8
51 49 16z"/>
<path d="M12634 5015 c-9 -21 3 -45 21 -45 10 0 15 10 15 30 0 32 -26 43 -36
15z"/>
<path d="M426 4948 c-3 -7 -7 -94 -11 -193 -3 -99 -8 -196 -11 -216 l-6 -36
-37 19 c-82 41 -147 -33 -116 -132 8 -25 55 -50 94 -50 30 0 81 47 81 75 0 12
6 11 36 -1 45 -19 119 -15 119 6 0 11 -15 17 -51 21 -92 11 -92 12 -77 131 17
129 14 379 -4 386 -7 2 -15 -2 -17 -10z m-58 -476 c23 -18 23 -20 8 -55 -16
-39 -39 -47 -77 -27 -14 8 -19 21 -19 49 0 21 3 41 7 44 12 13 58 6 81 -11z"/>
<path d="M1115 4948 c-35 -19 -75 -61 -75 -79 0 -34 20 -30 58 10 33 35 45 41
78 41 76 0 82 -34 23 -131 -36 -61 -40 -72 -37 -125 2 -44 7 -59 18 -59 11 0
16 16 20 62 3 40 12 71 26 90 60 81 69 135 28 177 -21 21 -36 26 -73 26 -25 0
-55 -6 -66 -12z"/>
<path d="M12613 4914 c-9 -23 13 -40 32 -24 8 7 15 19 15 26 0 19 -39 18 -47
-2z"/>
<path d="M705 4670 c-4 -7 0 -19 9 -28 23 -24 181 -25 181 -2 0 11 -18 16 -75
21 -41 3 -82 9 -91 13 -10 4 -20 2 -24 -4z"/>
<path d="M13647 4664 c-14 -14 -7 -35 11 -32 9 2 17 10 17 17 0 16 -18 25 -28
15z"/>
<path d="M11124 4525 c-4 -11 12 -43 46 -91 93 -134 133 -268 150 -506 16
-211 1 -279 -83 -365 -31 -32 -38 -46 -30 -54 26 -26 114 70 144 156 19 54 16
289 -5 419 -28 168 -69 269 -162 401 -40 56 -51 64 -60 40z"/>
<path d="M1172 4438 c-15 -15 -16 -45 -1 -54 16 -10 51 29 43 49 -7 20 -25 22
-42 5z"/>
<path d="M5465 4408 c-8 -21 42 -173 82 -250 37 -72 101 -138 132 -138 28 0
68 36 87 80 l18 40 36 -58 c47 -74 84 -104 124 -100 39 4 42 32 4 36 -14 2
-39 15 -54 30 -31 31 -114 195 -114 226 0 28 -15 50 -29 42 -7 -5 -11 -41 -11
-95 0 -75 -3 -93 -22 -121 -31 -45 -43 -47 -76 -12 -40 43 -81 123 -117 231
-31 91 -49 118 -60 89z"/>
<path d="M10475 4365 c-48 -76 -63 -116 -80 -212 -8 -45 -21 -112 -30 -148
-19 -82 -19 -170 -1 -221 7 -22 16 -64 20 -94 20 -156 138 -276 262 -268 36 2
49 7 49 18 0 11 -15 16 -55 20 -68 7 -109 28 -147 77 -42 53 -49 70 -57 130
-3 28 -15 77 -26 109 -24 68 -25 137 -4 219 9 33 20 91 25 129 12 88 39 163
79 221 30 43 34 75 11 75 -6 0 -26 -25 -46 -55z"/>
<path d="M4726 4391 c-4 -5 -2 -20 3 -33 15 -40 34 -256 27 -309 -11 -78 -13
-81 -46 -64 -65 34 -134 10 -146 -49 -17 -92 73 -123 152 -54 l35 31 52 -26
c71 -35 124 -49 172 -45 27 2 40 8 40 18 0 11 -16 17 -61 22 -38 4 -85 19
-123 38 -58 29 -61 32 -49 53 27 47 8 376 -24 415 -12 14 -25 16 -32 3z m-31
-444 c23 -17 15 -30 -31 -52 -33 -15 -38 -16 -52 -1 -13 12 -13 20 -4 41 13
29 55 34 87 12z"/>
<path d="M10702 4348 c-35 -35 3 -135 87 -230 96 -109 167 -80 186 75 l7 58
38 -44 c41 -46 86 -71 117 -65 28 5 21 31 -11 39 -39 11 -82 53 -118 117 -46
81 -61 70 -71 -52 -12 -165 -36 -183 -120 -95 -61 65 -89 120 -85 166 3 38
-10 51 -30 31z"/>
<path d="M7527 4334 c-4 -4 -7 -55 -7 -114 0 -59 -3 -128 -6 -152 l-6 -46 -41
6 c-31 4 -43 1 -54 -13 -20 -28 -16 -92 7 -115 28 -28 48 -25 84 13 l31 33 70
-37 c137 -73 290 -110 290 -70 0 9 -21 18 -60 27 -73 14 -173 54 -241 95 l-51
31 9 55 c12 74 6 285 -8 290 -5 2 -13 0 -17 -3z m-39 -365 c4 -19 -25 -52 -39
-44 -5 4 -9 20 -9 36 0 26 3 30 22 27 13 -2 24 -10 26 -19z"/>
<path d="M8276 4159 c-34 -41 -54 -88 -56 -136 -3 -64 -1 -73 25 -98 43 -44
115 -28 170 37 19 22 30 29 33 20 8 -24 64 -82 93 -98 40 -20 91 -18 117 6 12
12 22 25 22 30 0 18 -22 22 -39 6 -44 -40 -116 -4 -155 78 -30 62 -48 70 -70
27 -21 -39 -82 -91 -109 -91 -34 0 -47 19 -47 67 0 65 44 143 81 143 10 0 31
-16 47 -36 29 -35 52 -39 52 -7 0 8 -15 30 -34 49 -46 46 -93 47 -130 3z"/>
<path d="M9864 4169 c-17 -5 -38 -17 -48 -27 -16 -18 -15 -20 19 -46 19 -15
83 -47 141 -71 110 -45 133 -59 120 -72 -10 -10 -134 -9 -173 1 -28 7 -33 6
-33 -8 0 -29 66 -49 142 -44 78 6 121 28 116 60 -4 30 -40 53 -158 101 -106
44 -135 67 -83 67 64 0 103 12 103 31 0 17 -8 19 -57 18 -32 0 -72 -5 -89 -10z"/>
<path d="M5105 4130 c-14 -22 12 -31 81 -28 53 2 69 6 69 18 0 12 -16 16 -72
18 -45 2 -74 -1 -78 -8z"/>
<path d="M8684 4125 c-8 -20 11 -87 39 -138 25 -44 68 -71 99 -61 17 5 20 12
15 43 -3 20 -8 43 -12 52 -6 16 23 34 70 41 26 4 26 32 1 36 -26 5 -92 -17
-110 -37 -8 -9 -16 -27 -18 -41 l-3 -25 -14 25 c-8 14 -19 45 -26 69 -12 47
-31 64 -41 36z m111 -153 c-3 -3 -11 0 -18 7 -9 10 -8 11 6 5 10 -3 15 -9 12
-12z"/>
<path d="M9008 4125 c-73 -40 -58 -135 27 -171 53 -22 216 -47 228 -35 18 18
-3 28 -112 49 -106 21 -151 46 -151 83 0 24 41 47 91 51 31 2 44 7 44 18 0 21
-91 25 -127 5z"/>
<path d="M9543 4120 c-34 -20 -63 -66 -63 -98 0 -33 -75 -43 -135 -18 -56 24
-46 76 15 76 22 0 33 23 17 39 -6 6 -23 11 -38 11 -40 0 -71 -43 -67 -94 3
-37 7 -43 48 -64 52 -27 133 -27 187 0 28 14 33 14 47 0 11 -11 35 -17 73 -17
53 0 59 2 71 27 16 34 1 101 -31 136 -26 28 -80 29 -124 2z m101 -42 c9 -12
16 -37 16 -55 0 -31 -2 -33 -35 -33 -25 0 -43 8 -66 31 l-33 32 28 23 c34 30
70 31 90 2z"/>
<path d="M1179 4105 c-30 -16 -44 -44 -30 -58 6 -6 19 -2 37 12 34 27 87 28
114 1 28 -28 25 -48 -17 -110 -32 -47 -37 -63 -38 -110 0 -42 3 -55 15 -55 10
0 17 14 20 45 6 47 15 67 56 127 35 53 32 94 -11 132 -28 24 -45 31 -78 31
-23 -1 -54 -7 -68 -15z"/>
<path d="M6704 4109 c-10 -17 15 -35 76 -54 67 -22 242 -90 283 -111 39 -21
24 -34 -44 -42 -38 -5 -54 -11 -54 -22 0 -11 13 -16 45 -18 49 -3 106 21 124
51 21 36 -51 76 -304 168 -118 43 -116 43 -126 28z"/>
<path d="M636 4068 c-21 -49 -46 -283 -46 -425 0 -68 -4 -123 -9 -123 -14 0
-37 40 -153 264 -128 245 -157 296 -169 296 -27 0 -11 -43 77 -211 166 -317
197 -370 228 -395 26 -23 31 -24 44 -10 13 13 18 56 24 213 4 109 15 239 24
288 21 119 21 127 6 132 -7 3 -18 -10 -26 -29z"/>
<path d="M7960 4086 c-73 -8 -95 -15 -95 -26 0 -21 58 -23 175 -8 72 10 95 17
95 28 0 19 -49 21 -175 6z"/>
<path d="M4042 4045 c-59 -18 -92 -42 -92 -65 0 -22 20 -26 38 -8 8 8 15 8 24
1 7 -6 45 -20 83 -32 39 -11 76 -25 83 -29 23 -15 -72 -35 -138 -29 -64 5 -86
-6 -55 -30 45 -32 223 -4 246 39 16 29 -8 49 -93 78 -40 13 -77 27 -81 31 -5
4 20 11 54 15 49 7 65 13 67 27 3 14 -4 17 -45 16 -26 0 -67 -6 -91 -14z"/>
<path d="M3480 4021 c-37 -10 -71 -65 -63 -104 11 -56 22 -77 46 -86 31 -12
92 2 129 29 l29 21 26 -20 c31 -25 95 -28 117 -5 25 25 21 99 -6 118 -34 24
-73 20 -100 -11 -13 -16 -33 -34 -44 -41 -10 -7 -32 -21 -49 -32 -37 -24 -90
-26 -99 -4 -3 9 -6 29 -6 46 0 25 6 32 40 46 61 26 45 61 -20 43z m258 -109
c3 -32 2 -33 -30 -30 -27 2 -32 7 -30 23 6 38 12 46 34 43 18 -2 24 -11 26
-36z"/>
<path d="M5065 4009 c-14 -22 14 -30 101 -27 71 2 89 6 89 18 0 12 -18 16 -92
18 -60 2 -94 -1 -98 -9z"/>
<path d="M6565 4010 c-13 -21 11 -31 61 -28 36 2 49 7 49 18 0 19 -99 27 -110
10z"/>
<path d="M7965 4009 c-5 -7 -1 -17 10 -25 40 -29 160 -32 160 -4 0 11 -15 17
-55 21 -30 3 -67 9 -81 13 -18 5 -29 3 -34 -5z"/>
<path d="M11134 3994 c-7 -3 -88 -8 -180 -12 -140 -6 -169 -10 -169 -22 0 -13
25 -15 175 -13 182 2 235 10 235 34 0 14 -39 22 -61 13z"/>
<path d="M6726 3953 c-4 -4 -46 -10 -94 -13 -68 -4 -87 -8 -87 -20 0 -12 17
-16 80 -18 83 -2 130 11 130 37 0 17 -18 25 -29 14z"/>
<path d="M5797 3904 c-266 -19 -312 -26 -312 -44 0 -19 42 -19 270 -1 94 7
253 16 355 20 155 5 185 8 185 21 0 21 -244 23 -498 4z"/>
<path d="M1006 3893 c-4 -4 -46 -10 -94 -13 -68 -4 -87 -8 -87 -20 0 -12 17
-16 80 -18 83 -2 130 11 130 37 0 17 -18 25 -29 14z"/>
<path d="M10972 3858 c-34 -34 3 -106 72 -143 33 -18 36 -23 36 -64 0 -38 -5
-49 -44 -87 -47 -48 -69 -53 -120 -29 -41 20 -47 31 -85 160 -35 119 -44 136
-63 117 -15 -15 54 -247 85 -281 27 -29 76 -51 115 -51 36 0 106 49 132 93 11
18 20 49 20 70 0 29 4 37 18 37 26 0 62 29 62 50 0 29 -22 36 -38 12 -22 -33
-37 -27 -52 20 -22 75 -103 131 -138 96z m72 -59 c26 -31 33 -49 18 -49 -12 0
-62 54 -62 68 0 21 17 13 44 -19z"/>
<path d="M5647 3734 c-15 -15 -6 -72 18 -121 31 -61 106 -141 171 -183 40 -25
58 -30 110 -30 35 0 73 4 86 9 33 13 86 69 100 107 10 28 17 33 57 39 61 9
191 51 216 69 14 11 17 18 9 26 -8 8 -35 3 -100 -19 -49 -16 -107 -32 -129
-35 -40 -7 -40 -7 -59 40 -12 29 -31 53 -50 65 -89 54 -174 -19 -116 -101 20
-28 84 -60 120 -60 19 0 20 -2 5 -29 -25 -50 -65 -71 -133 -71 -47 0 -67 5
-98 26 -87 58 -160 153 -172 224 -7 42 -20 58 -35 44z m409 -69 c23 -16 51
-72 40 -82 -3 -3 -24 -1 -46 6 -43 13 -76 51 -66 76 7 19 45 19 72 0z"/>
<path d="M15850 3606 c0 -8 4 -17 9 -20 11 -7 33 18 24 27 -12 12 -33 7 -33
-7z"/>
<path d="M1205 3570 c-4 -7 -3 -16 3 -22 14 -14 47 -6 47 12 0 18 -40 26 -50
10z"/>
<path d="M11844 3567 c-3 -8 6 -61 20 -118 14 -57 22 -107 18 -111 -8 -8 -155
-19 -492 -38 -102 -6 -516 -15 -920 -20 -1115 -15 -1463 -29 -2120 -85 -492
-43 -838 -68 -855 -62 -22 9 -32 43 -48 149 -10 68 -17 93 -28 93 -11 0 -14
-14 -12 -62 2 -96 22 -172 50 -201 25 -25 26 -25 141 -18 65 4 329 25 587 46
874 74 1123 84 2315 100 869 11 1357 34 1408 66 28 18 27 34 -6 163 -26 98
-45 131 -58 98z"/>
<path d="M17359 3276 c-6 -6 -136 -15 -545 -35 -99 -6 -239 -17 -310 -26 -71
-8 -169 -20 -219 -26 -49 -6 -130 -17 -180 -26 -51 -8 -204 -18 -355 -22 -328
-10 -338 -13 -311 -105 31 -104 43 -156 61 -279 11 -76 20 -160 20 -188 l0
-50 -87 96 c-95 104 -154 151 -178 141 -23 -9 -18 -22 18 -43 18 -11 77 -69
132 -130 138 -154 155 -157 155 -35 0 89 -33 336 -54 402 -26 83 -34 130 -23
137 6 3 128 10 271 14 173 5 305 14 391 27 72 11 159 19 195 18 37 -1 73 3 85
10 26 16 186 33 400 45 94 4 253 14 355 21 298 20 724 11 743 -16 4 -6 5 -25
2 -43 -7 -38 12 -54 32 -27 16 21 12 89 -7 108 -17 17 -576 47 -591 32z"/>
<path d="M1227 3234 c-3 -4 -275 -9 -604 -13 -522 -5 -598 -8 -598 -21 0 -16
208 -18 1550 -10 545 3 924 -6 997 -25 36 -9 74 1 82 22 9 24 -9 39 -29 23 -9
-8 -25 -10 -42 -5 -78 20 -1338 47 -1356 29z"/>
<path d="M14269 3195 c-3 -2 -77 -9 -164 -14 -165 -9 -739 -70 -903 -95 -51
-8 -101 -21 -110 -29 -13 -11 -62 -16 -227 -20 -212 -6 -313 -20 -374 -52 -35
-18 -40 -48 -16 -95 8 -16 22 -71 30 -122 23 -137 52 -409 44 -406 -4 2 -64
56 -134 121 -117 110 -143 127 -152 100 -5 -15 286 -283 307 -283 10 0 21 7
24 16 7 17 -26 332 -49 467 -9 49 -22 101 -30 117 -20 39 -19 45 10 58 51 23
165 35 405 41 226 6 245 7 244 24 -1 10 7 19 20 22 21 5 573 66 766 84 167 17
380 31 441 31 67 0 77 -9 94 -82 6 -29 17 -54 23 -56 39 -13 17 125 -25 158
-22 17 -41 20 -123 20 -53 0 -99 -2 -101 -5z"/>
<path d="M17663 3167 c-43 -16 -70 -44 -57 -57 7 -7 24 -4 55 9 87 40 119 23
119 -61 0 -31 -9 -55 -30 -87 -17 -24 -30 -48 -30 -53 0 -19 43 -48 94 -63 69
-20 181 -17 181 5 0 12 -18 16 -80 21 -83 7 -145 24 -145 41 0 5 9 21 20 35
50 63 44 180 -10 208 -34 18 -72 18 -117 2z"/>
<path d="M14022 3025 c-36 -16 -50 -41 -34 -57 9 -9 16 -7 29 4 29 26 68 32
87 13 18 -18 20 -51 6 -110 -14 -61 3 -78 96 -99 48 -10 81 -13 87 -7 17 17
-2 29 -73 46 l-71 17 7 72 c6 66 5 74 -17 99 -29 33 -73 42 -117 22z"/>
<path d="M16284 3009 c-10 -17 7 -27 51 -31 l40 -3 0 -67 c0 -37 5 -71 10 -76
17 -16 138 -33 150 -21 15 16 -18 35 -73 43 l-48 6 4 59 c4 51 1 61 -19 80
-25 23 -102 30 -115 10z"/>
<path d="M17103 3004 c-17 -45 93 -304 167 -389 92 -107 129 -95 210 67 32 66
40 75 51 62 26 -31 97 -65 131 -62 45 4 44 31 -2 38 -69 12 -127 64 -132 120
-2 27 -7 35 -23 35 -17 0 -21 -9 -26 -60 -9 -88 -81 -225 -119 -225 -11 0 -37
22 -61 53 -63 78 -124 213 -165 365 -5 17 -23 15 -31 -4z"/>
<path d="M10475 2950 c-16 -4 -221 -8 -455 -9 -584 -1 -989 -16 -1165 -43 -77
-11 -174 -21 -215 -21 -80 0 -93 -7 -80 -43 21 -56 40 -241 40 -395 l-1 -164
-22 29 c-12 17 -35 52 -52 79 -38 63 -55 74 -92 61 -37 -13 -38 -40 -1 -37 24
1 34 -9 82 -82 60 -89 76 -101 108 -84 20 11 20 17 15 237 -3 140 -10 251 -19
288 l-14 62 70 7 c39 4 129 15 200 26 93 13 134 16 148 8 12 -7 24 -7 31 -1
20 16 227 24 847 33 327 6 631 11 675 12 l80 2 28 -57 c27 -57 40 -68 52 -48
11 18 -25 109 -52 130 -21 16 -40 20 -102 19 -42 -1 -89 -5 -106 -9z"/>
<path d="M16062 2904 c-45 -31 -23 -96 43 -125 42 -19 44 -21 34 -47 -13 -33
-55 -91 -83 -114 -14 -12 -39 -18 -73 -18 -50 0 -52 1 -87 48 -19 26 -52 66
-72 90 -30 34 -38 53 -43 100 -4 41 -10 57 -21 57 -10 0 -16 -12 -18 -34 -6
-64 8 -99 71 -175 34 -41 70 -86 79 -99 21 -31 65 -40 128 -26 40 9 58 20 94
60 25 27 52 70 62 94 14 38 22 46 50 51 41 7 62 30 46 46 -9 9 -18 8 -37 0
-32 -15 -45 -8 -45 21 0 26 -26 60 -57 76 -29 15 -44 14 -71 -5z m66 -40 c24
-17 30 -54 8 -54 -24 0 -60 36 -53 53 8 21 17 21 45 1z"/>
<path d="M13520 2873 c0 -34 33 -182 57 -258 28 -87 72 -143 115 -147 12 -1
-20 -4 -72 -7 -75 -5 -95 -9 -95 -21 0 -24 126 -24 329 0 97 11 209 20 249 20
119 0 240 41 211 70 -7 7 -24 5 -55 -6 -55 -20 -233 -31 -243 -15 -4 6 -16 11
-27 11 -11 0 -32 12 -46 28 -28 30 -83 137 -83 163 0 21 -36 53 -49 44 -7 -3
-11 -42 -11 -92 0 -83 -1 -86 -34 -119 -91 -91 -150 0 -201 309 -4 28 -11 37
-25 37 -12 0 -20 -7 -20 -17z m346 -285 c9 -18 30 -47 46 -64 l29 -31 -38 -6
c-21 -3 -67 -9 -103 -12 l-65 -7 33 21 c37 24 72 76 72 109 0 30 7 28 26 -10z"/>
<path d="M11755 2831 c-63 -27 -80 -106 -30 -148 23 -20 37 -24 73 -21 l44 3
-4 -65 c-4 -43 -15 -88 -36 -132 -38 -84 -59 -96 -136 -79 -86 19 -138 50
-161 96 -24 50 -95 240 -104 280 -8 35 -35 40 -39 8 -4 -26 100 -306 127 -343
22 -30 134 -79 201 -87 73 -8 109 18 150 109 25 55 34 92 38 148 l4 75 40 17
c24 10 38 23 35 30 -4 14 -31 15 -59 3 -15 -6 -18 -2 -18 23 0 59 -71 106
-125 83z m63 -47 c32 -22 30 -72 -3 -80 -32 -8 -71 2 -78 20 -9 23 3 53 26 64
29 14 29 14 55 -4z"/>
<path d="M10484 2727 c-3 -9 0 -26 7 -39 16 -29 24 -202 12 -248 l-9 -35 -76
3 c-60 3 -78 1 -91 -13 -33 -33 -11 -96 40 -116 20 -7 36 -5 70 12 25 12 47
28 50 35 8 22 26 17 98 -25 51 -30 82 -41 129 -46 69 -7 121 4 121 26 0 11
-18 14 -82 15 -77 1 -85 3 -153 43 -68 40 -71 44 -63 69 14 47 9 263 -7 296
-17 34 -38 44 -46 23z m-35 -366 c10 -7 8 -12 -10 -25 -39 -27 -89 -15 -89 21
0 15 76 18 99 4z"/>
<path d="M4139 2694 c-5 -15 -37 -135 -70 -268 -79 -318 -79 -316 -87 -316 -4
1 -19 18 -34 40 -15 21 -74 108 -132 192 -116 169 -169 229 -187 211 -9 -9 -2
-23 24 -55 20 -24 90 -122 156 -217 66 -96 130 -185 141 -198 30 -35 55 -30
74 17 24 60 157 600 151 611 -11 16 -25 9 -36 -17z"/>
<path d="M10129 2706 c-41 -20 -30 -41 18 -38 50 4 62 -12 43 -57 -16 -40 -2
-64 55 -91 44 -21 75 -21 75 -1 0 6 -21 21 -47 34 -30 15 -46 30 -44 38 13 42
12 86 -2 97 -27 22 -73 31 -98 18z"/>
<path d="M12853 2708 c-6 -7 -15 -29 -22 -48 -6 -19 -21 -45 -33 -57 -15 -16
-18 -27 -12 -33 17 -17 42 -1 68 43 l24 40 12 -44 c55 -212 59 -224 82 -201
11 11 -42 232 -69 285 -14 29 -34 35 -50 15z"/>
<path d="M16554 2709 c-14 -23 34 -49 90 -49 29 0 57 -5 62 -10 7 -7 20 -6 40
5 16 8 45 15 64 16 52 1 85 13 85 29 0 19 -329 28 -341 9z"/>
<path d="M7890 2653 c-46 -24 -72 -74 -58 -114 12 -36 62 -78 100 -86 29 -6
30 -8 24 -46 -16 -97 -116 -207 -189 -207 -25 0 -102 45 -129 76 -33 38 -69
125 -85 206 -17 91 -26 109 -45 90 -17 -17 12 -163 48 -237 44 -94 142 -175
210 -175 76 0 187 97 217 190 9 29 17 60 17 69 0 12 15 22 48 32 62 18 66 45
5 41 l-42 -3 5 33 c7 38 -10 111 -29 126 -25 21 -62 23 -97 5z m60 -33 c37
-20 38 -130 0 -130 -28 0 -80 48 -80 75 0 14 11 32 26 44 31 24 30 24 54 11z"/>
<path d="M14645 2650 c-15 -25 13 -30 171 -30 100 0 173 -4 186 -11 15 -8 23
-8 32 1 8 9 5 16 -13 31 -21 17 -40 19 -197 19 -104 0 -175 -4 -179 -10z"/>
<path d="M6826 2632 c-2 -4 0 -48 6 -97 10 -88 5 -288 -8 -333 -5 -16 -11 -21
-23 -17 -35 15 -91 17 -106 5 -25 -20 -19 -87 10 -115 34 -35 62 -31 104 13
l36 37 95 -32 c99 -35 155 -39 155 -13 0 9 -11 16 -25 18 -14 2 -67 17 -118
34 l-93 32 8 50 c12 74 8 366 -5 399 -11 26 -26 35 -36 19z m-51 -482 c21 -8
24 -13 16 -29 -23 -42 -71 -32 -71 15 0 26 14 30 55 14z"/>
<path d="M4985 2585 c-29 -28 -34 -85 -9 -109 8 -9 36 -21 61 -28 l45 -11 -7
-79 c-10 -114 -29 -170 -70 -207 -81 -71 -120 -31 -295 304 -42 80 -63 98 -68
60 -4 -30 173 -343 218 -387 66 -64 120 -63 182 3 44 47 64 107 74 224 l7 84
36 3 c50 4 50 32 0 36 -35 3 -38 6 -48 48 -21 81 -78 108 -126 59z m83 -59 c7
-21 11 -40 9 -42 -2 -2 -20 1 -40 7 -29 8 -37 15 -37 32 0 28 19 49 40 45 8
-2 21 -21 28 -42z"/>
<path d="M8869 2568 c-12 -24 -33 -58 -46 -76 -19 -26 -23 -36 -14 -45 9 -9
20 -3 47 26 38 41 37 42 53 -47 11 -59 41 -106 67 -106 24 0 27 23 6 39 -21
17 -36 62 -46 146 -16 120 -31 135 -67 63z"/>
<path d="M11006 2567 c-58 -12 -82 -31 -53 -42 7 -3 56 0 108 8 69 9 94 17 94
28 0 18 -69 21 -149 6z"/>
<path d="M13145 2569 c-15 -23 14 -30 111 -27 80 2 99 6 99 18 0 12 -19 16
-102 18 -67 2 -104 -1 -108 -9z"/>
<path d="M14644 2545 c-4 -8 -1 -22 6 -30 19 -23 445 -18 445 5 0 13 -31 15
-205 18 -116 1 -209 7 -214 12 -14 14 -26 12 -32 -5z"/>
<path d="M9462 2510 c-35 -21 -35 -25 -16 -118 8 -38 104 -68 130 -42 8 8 20
6 40 -6 64 -37 168 19 168 89 0 48 -18 67 -66 67 -30 0 -46 -7 -67 -27 -15
-16 -34 -27 -43 -25 -9 2 -24 -12 -36 -33 -23 -38 -28 -40 -67 -25 -23 9 -26
15 -23 47 3 38 3 38 45 35 50 -3 65 14 33 40 -29 23 -57 23 -98 -2z m282 -66
c9 -24 -10 -51 -45 -63 -44 -15 -67 -15 -51 1 7 7 12 19 12 27 0 40 71 70 84
35z"/>
<path d="M9955 2518 c-44 -23 -47 -40 -15 -69 16 -15 46 -33 67 -39 58 -19
113 -49 113 -62 0 -11 -206 -5 -262 8 -22 5 -28 3 -28 -9 0 -30 43 -40 176
-45 l132 -5 17 27 c16 23 16 28 2 49 -8 13 -32 30 -53 39 -22 9 -61 26 -88 38
-56 23 -53 37 9 42 28 2 41 8 43 21 3 14 -4 17 -45 17 -26 0 -57 -6 -68 -12z"/>
<path d="M11985 2510 c-11 -18 10 -32 41 -28 40 4 38 32 -3 36 -17 2 -34 -2
-38 -8z"/>
<path d="M11065 2486 c-45 -14 -55 -42 -15 -40 79 5 145 20 145 34 0 20 -75
23 -130 6z"/>
<path d="M9125 2471 c-6 -5 -21 -11 -35 -13 -19 -2 -25 -9 -25 -28 0 -24 2
-25 80 -28 104 -4 127 2 123 31 -2 18 -11 23 -43 25 -22 2 -44 8 -49 13 -13
12 -39 12 -51 0z"/>
<path d="M7185 2390 c-14 -23 13 -31 91 -28 62 2 79 6 79 18 0 12 -17 16 -82
18 -52 2 -84 -1 -88 -8z"/>
<path d="M14190 2381 c-44 -12 -31 -36 20 -36 53 0 57 -9 36 -79 -17 -55 -13
-74 19 -86 24 -9 131 13 150 31 21 21 -11 29 -68 17 -31 -7 -59 -10 -62 -7 -2
3 1 30 7 61 10 49 9 59 -5 82 -18 27 -45 32 -97 17z"/>
<path d="M8169 2348 c-10 -18 -8 -24 7 -35 22 -16 38 -12 42 11 4 18 -14 46
-29 46 -5 0 -14 -10 -20 -22z"/>
<path d="M5657 2326 c-15 -14 -27 -32 -27 -40 0 -18 31 -39 81 -55 20 -6 56
-28 80 -49 l43 -37 -30 -6 c-39 -9 -119 -10 -138 -3 -8 3 -12 12 -10 19 8 21
-15 28 -47 15 -44 -19 -36 -51 16 -66 70 -21 220 -13 247 14 26 26 -67 121
-149 152 -34 13 -41 19 -31 27 7 6 27 13 43 15 47 5 39 32 -11 36 -31 2 -46
-2 -67 -22z"/>
<path d="M6110 2328 c0 -27 62 -162 79 -173 19 -11 41 15 41 51 0 60 64 91 75
37 25 -119 46 -148 101 -141 32 4 54 32 37 49 -8 8 -16 7 -32 -3 -19 -11 -24
-11 -36 6 -8 11 -17 36 -21 55 -9 55 -25 91 -46 102 -25 13 -89 -17 -103 -48
-14 -34 -21 -29 -43 30 -21 56 -52 77 -52 35z"/>
<path d="M13966 2327 c-14 -21 -15 -30 -4 -63 11 -33 20 -41 56 -54 23 -8 42
-20 42 -28 0 -46 -98 -162 -138 -162 -46 0 -84 34 -147 131 -35 53 -72 117
-83 142 -21 47 -38 59 -48 34 -14 -39 134 -279 199 -320 60 -40 106 -37 158
10 45 41 89 110 98 155 5 24 14 33 41 42 48 15 47 42 0 38 -31 -2 -37 1 -46
27 -12 31 -44 56 -86 66 -21 5 -30 2 -42 -18z m76 -44 c16 -14 25 -43 14 -43
-21 0 -54 22 -59 39 -6 26 18 28 45 4z"/>
<path d="M5964 2329 c-10 -17 13 -36 27 -22 12 12 4 33 -11 33 -5 0 -12 -5
-16 -11z"/>
<path d="M7345 2334 c-6 -2 -44 -7 -85 -12 -57 -5 -75 -11 -75 -22 0 -12 15
-15 80 -13 86 1 139 16 133 36 -5 12 -35 19 -53 11z"/>
<path d="M5294 2277 c-23 -20 -25 -26 -15 -45 19 -35 67 -30 91 10 14 24 16
35 8 45 -16 20 -54 15 -84 -10z"/>
<path d="M4285 2230 c-14 -22 12 -31 81 -28 53 2 69 6 69 18 0 12 -16 16 -72
18 -45 2 -74 -1 -78 -8z"/>
<path d="M5965 2230 c-8 -13 24 -69 47 -84 13 -8 21 -7 29 1 8 8 3 22 -22 52
-34 43 -43 48 -54 31z"/>
<path d="M4283 2107 c-3 -5 2 -16 10 -25 30 -30 175 -12 164 21 -4 13 -166 17
-174 4z"/>
<path d="M7237 1634 c-3 -4 -64 -10 -134 -15 -70 -5 -150 -13 -178 -19 -28 -6
-260 -15 -535 -19 -267 -5 -519 -14 -560 -20 -41 -5 -154 -17 -252 -26 -97 -8
-188 -19 -202 -25 -55 -21 -55 -42 -5 -348 11 -68 19 -130 17 -138 -2 -10 -34
14 -96 72 -64 60 -96 84 -104 76 -15 -15 4 -43 74 -107 154 -140 193 -135 163
21 -17 89 -55 339 -55 360 0 25 39 34 222 50 101 9 228 21 283 28 71 9 105 10
117 3 12 -8 23 -8 40 0 16 8 154 13 438 17 258 3 432 9 460 16 47 11 269 31
379 34 l64 1 12 -58 c12 -62 28 -88 45 -71 15 15 -15 146 -37 161 -17 13 -144
18 -156 7z"/>
<path d="M4321 1496 c-7 -8 -19 -84 -27 -168 -17 -168 -46 -347 -63 -391 -7
-18 -17 -27 -28 -25 -9 2 -68 62 -131 133 -190 216 -304 336 -315 332 -24 -8
-13 -26 64 -112 45 -50 142 -158 215 -241 140 -159 169 -180 205 -148 10 9 25
37 34 63 19 57 51 271 61 405 6 79 11 101 27 117 17 15 18 21 7 34 -16 19 -34
19 -49 1z"/>
<path d="M6155 1406 c-38 -16 -61 -44 -49 -56 6 -6 25 -2 51 11 23 11 47 18
53 14 13 -8 13 -48 -2 -96 -10 -34 -9 -42 7 -58 21 -24 122 -48 137 -33 17 17
0 30 -58 42 -46 10 -54 15 -48 28 3 10 9 40 11 68 4 43 2 55 -16 73 -24 24
-43 26 -86 7z"/>
<path d="M7065 1390 c-12 -20 7 -30 55 -30 27 0 52 -5 55 -10 4 -6 1 -26 -5
-46 -10 -29 -9 -39 5 -60 15 -23 21 -25 88 -22 56 2 72 6 72 18 0 11 -16 16
-63 20 -34 3 -63 8 -63 13 0 4 2 26 6 49 6 36 4 44 -15 60 -24 20 -124 26
-135 8z"/>
<path d="M6686 1352 c-7 -11 53 -183 95 -272 50 -107 96 -143 149 -115 27 14
41 42 67 129 l9 28 42 -56 c41 -54 71 -72 109 -64 29 5 22 33 -10 36 -29 4
-85 65 -129 143 -33 60 -52 49 -59 -36 -4 -39 -14 -87 -23 -108 -13 -33 -20
-38 -42 -35 -34 4 -69 65 -124 214 -22 60 -44 115 -48 123 -10 18 -28 25 -36
13z"/>
<path d="M5585 1310 c-8 -13 9 -69 41 -131 45 -90 177 -179 266 -179 56 0 93
27 129 94 20 39 28 45 59 48 49 4 48 32 -1 36 -26 2 -40 10 -49 28 -18 32 -74
66 -102 62 -12 -2 -29 -15 -37 -30 -13 -22 -13 -30 -2 -51 14 -27 50 -47 81
-47 28 0 25 -20 -11 -63 -37 -45 -78 -49 -147 -14 -78 38 -139 103 -171 181
-27 69 -43 87 -56 66z m383 -96 c27 -19 28 -34 3 -34 -23 0 -54 28 -46 41 8
13 17 11 43 -7z"/>
<path d="M4545 1171 c-15 -26 12 -31 151 -31 86 0 154 -4 166 -11 30 -16 48 5
25 29 -15 14 -42 17 -176 20 -105 2 -161 0 -166 -7z"/>
<path d="M6410 1126 c-82 -8 -105 -14 -105 -26 0 -21 45 -22 190 -7 94 9 120
15 120 27 0 20 -65 22 -205 6z"/>
<path d="M4800 1075 c-8 -2 -54 -7 -102 -10 -78 -6 -88 -9 -88 -26 0 -23 7
-23 195 -6 104 10 130 15 130 27 0 11 -14 15 -60 17 -33 0 -67 0 -75 -2z"/>
<path d="M7845 810 c-3 -6 3 -22 14 -36 12 -15 21 -41 21 -59 0 -28 -5 -35
-32 -44 -40 -14 -189 -26 -588 -46 -168 -9 -379 -20 -470 -26 -202 -12 -1213
-27 -2327 -36 l-832 -6 -6 29 c-11 49 -15 56 -28 52 -35 -12 -10 -104 30 -115
30 -7 1458 3 2363 16 592 9 751 15 1165 41 88 6 259 15 380 20 213 10 343 27
371 51 27 23 14 117 -21 152 -19 19 -31 21 -40 7z"/>
</g>
</svg>
