<?xml version="1.0" encoding="UTF-8" standalone="no"?>
<svg
   version="1.0"
   width="275.88791pt"
   height="269.86475pt"
   viewBox="0 0 275.88791 269.86473"
   preserveAspectRatio="xMidYMid"
   id="svg22"
   sodipodi:docname="149t.svg"
   inkscape:version="1.3 (0e150ed, 2023-07-21)"
   xmlns:inkscape="http://www.inkscape.org/namespaces/inkscape"
   xmlns:sodipodi="http://sodipodi.sourceforge.net/DTD/sodipodi-0.dtd"
   xmlns="http://www.w3.org/2000/svg"
   xmlns:svg="http://www.w3.org/2000/svg">
  <defs
     id="defs22" />
  <sodipodi:namedview
     id="namedview22"
     pagecolor="#ffffff"
     bordercolor="#000000"
     borderopacity="0.25"
     inkscape:showpageshadow="2"
     inkscape:pageopacity="0.0"
     inkscape:pagecheckerboard="0"
     inkscape:deskcolor="#d1d1d1"
     inkscape:document-units="pt"
     inkscape:zoom="0.65590214"
     inkscape:cx="183.71643"
     inkscape:cy="179.90489"
     inkscape:window-width="1440"
     inkscape:window-height="847"
     inkscape:window-x="0"
     inkscape:window-y="25"
     inkscape:window-maximized="0"
     inkscape:current-layer="svg22" />
  <metadata
     id="metadata1">&#10;Created by potrace 1.16, written by Peter Selinger 2001-2019&#10;</metadata>
  <path
     d="m 138.05591,2.7136249 v 2.9 l -19.7,1.1 c -27.699997,1.7 -56.199997,5.0000001 -60.099997,7.1000001 -0.9,0.5 -3.9,1.2 -6.7,1.6 -2.7,0.5 -6.4,1.4 -8.2,2.1 -1.8,0.8 -4.3,1.4 -5.5,1.4 -1.3,0 -3.4,0.6 -4.8,1.3 -1.4,0.7 -5.3,2.4 -8.7,3.7 -3.5,1.4 -6.3,2.8 -6.3,3.2 0,0.5 -0.6,0.8 -1.4,0.8 -1.3,0 -9.6000003,6 -12.5000003,9 -6.1,6.5 -5.5,14.4 1.9,24 1.4,1.9 3.6,5.5 4.8000003,8 1.2,2.5 4.2,7.2 6.6,10.5 2.5,3.3 4.5,6.6 4.5,7.2 0.1,0.7 0.5,1.3 0.9,1.3 0.5,0 1.4,1 2.1,2.2 2.5,4.8 7,11.699995 8.8,13.599995 0.7,0.7 1.3,1.9 1.3,2.7 0,1.1 5.2,9.8 7.8,13 0.5,0.6 2.1,3.2 3.6,5.8 1.5,2.6 3.2,4.7 3.7,4.7 0.5,0 0.9,0.4 0.9,0.9 0,0.5 1.6,3.3 3.5,6.2 1.9,3 3.5,6.2 3.5,7.1 0,1 0.4,1.8 0.9,1.8 0.8,0 2.5,2.6 14.2,21 2.9,4.7 5.7,8.6 6.1,8.8 0.5,0.2 0.8,1 0.8,1.8 0,0.8 1.6,3.7 3.5,6.4 1.9,2.7 3.5,5.2 3.5,5.5 0,0.6 5.5,8.3 8,11.2 0.6,0.7 1.5,2.3 2,3.5 1.5,3.4 3.299997,6.2 4.799997,7.1 0.6,0.4 1.2,1.5 1.2,2.3 0,0.8 1.6,3.7 3.5,6.4 1.9,2.7 3.5,5.4 3.5,6 0,0.5 0.5,1 1,1 0.6,0 1,0.6 1,1.3 0,0.8 0.9,2.2 2,3.2 1.1,1 2,2.4 2,3.1 0,0.7 0.6,1.7 1.3,2.1 0.7,0.4 1.8,1.9 2.5,3.3 1.5,3.2 3.5,6.4 4.4,7 0.4,0.3 1.2,1.7 1.8,3 0.5,1.4 3,5.4 5.5,8.9 2.5,3.6 4.5,7.5 4.5,8.8 0,3.4 1.9,2.8 2.7,-0.8 0.3,-1.7 1.2,-3.3 1.9,-3.6 0.8,-0.3 1.4,-1 1.4,-1.5 0,-0.5 2.9,-5.2 6.5,-10.4 3.6,-5.2 6.5,-9.7 6.5,-10 0,-0.2 2.3,-3.8 5,-8 2.8,-4.1 5,-7.7 5,-8 0,-0.4 16.3,-25.1 17.8,-27 0.5,-0.5 2,-3 3.3,-5.5 1.3,-2.4 2.7,-4.5 3.2,-4.7 0.4,-0.2 0.7,-0.8 0.7,-1.4 0,-0.5 1.8,-3.5 3.9,-6.6 2.1,-3.2 5.2,-7.7 6.7,-10.2 3.2,-5.1 3.2,-5 9.7,-15.9 2.7,-4.5 5.3,-8.1 5.8,-8.1 0.5,0 0.9,-0.7 0.9,-1.5 0,-0.7 0.6,-1.8 1.3,-2.2 1.2,-0.8 1.5,-1.3 6.3,-9.3 4.1,-6.9 11.9,-19.2 21.3,-33.499995 4.7,-7.2 9.1,-13.9 9.7,-15 3.7,-6.8 6.1,-10.6 9.5,-15.4 2.2,-3 3.9,-6 3.9,-6.8 0,-0.7 0.4,-1.3 0.8,-1.3 1.1,0 4.8,-7.5 5.7,-11.3 1.1,-5 -0.5,-9.2 -5.3,-14.4 -4.9,-5.2 -17.6,-13.3 -20.9,-13.3 -1.1,0 -2.3,-0.4 -2.8,-0.9 -1.3,-1.2 -10.9,-3.8 -20,-5.6 -3.8,-0.7 -8.3,-1.7 -10,-2.3 -4.5,-1.5 -15,-3.1 -24.5,-3.8000001 -4.7,-0.3 -10.1,-1 -12,-1.5 -3,-0.7 -22.9,-1.8 -35.3,-1.9 -3.4,0 -3.8,-0.3 -4.3,-3 -0.8,-3.8 -2.4,-3.9 -2.4,-0.2 z m 26.5,7.3000001 c 3.9,0 10.2,0.5 14,1 3.9,0.6 11.3,1.4 16.5,1.9 5.2,0.4 12.9,1.6 17,2.4 4.1,0.9 9.7,2.1 12.4,2.6 2.6,0.5 6.9,1.6 9.5,2.4 2.5,0.8 6.2,1.8 8.1,2.2 1.9,0.3 4.1,1 5,1.4 0.8,0.5 3.5,1.8 6,3.1 10.7,5.3 14.5,8.2 17.7,13.7 3.2,5.3 2.7,9.7 -1.6,15.1 -3.3,4.1 -12.8,10.3 -17.7,11.5 -1.6,0.4 -4.2,1.3 -5.9,2 -4.7,2 -9.7,3.7 -14,4.8 -2.2,0.6 -4.5,1.4 -5,1.9 -0.6,0.4 -3.9,1 -7.5,1.4 -3.6,0.4 -8.7,1.3 -11.5,2 -8.6,2.3 -24.4,4.4 -38.5,5 -7.4,0.4 -16.7,0.8 -20.7,1 -9.1,0.5 -9.6,0 -9,-9.9 0.3,-4.2 0.2,-7.6 -0.3,-7.6 -1.4,0 -1.8,2.5 -1.4,9.7 0.3,6.1 0.1,7.3 -1.4,7.7 -2,0.6 -16.2,0.1 -37.199997,-1.4 -18.7,-1.3 -54.4,-7.9 -62.7,-11.6 -1.8,-0.8 -4.8,-2 -6.5,-2.8 -20.7000003,-8.8 -26.8000003,-13.8 -26.8000003,-21.9 0,-4.6 5,-12.7 7.9000003,-12.7 0.5,0 1.1,-0.7 1.5,-1.5 0.3,-0.8 1.3,-1.5 2.2,-1.5 1,0 2.5,-0.6 3.3,-1.3 1.4,-1.2 8.2,-4.3 13.6,-6.3 3.4,-1.2 14.7,-4.4 21,-5.8 3.3,-0.8 7.8,-1.9 10,-2.5 2.2,-0.6 5.9,-1.1 8.3,-1.1 2.3,0 5,-0.4 6,-0.9 2.7,-1.5 29.299997,-4 43.199997,-4.1000001 6.8,-0.1 12.7,-0.3 13,-0.6 0.3,-0.3 5.9,-0.3 12.5,0 6.6,0.4 15.2,0.7000001 19,0.7000001 z m 99.9,55.1 c -0.4,0.7 -1.7,2.6 -2.8,4.3 -1.2,1.6 -2.5,3.8 -3.1,4.7 -3.8,6.8 -13.2,20.8 -14.2,21.2 -0.7,0.3 -2.9,-0.4 -4.8,-1.5 -2.9,-1.7 -3.8,-1.9 -5,-0.9 -0.8,0.7 -1.5,1.9 -1.5,2.6 0,0.8 -0.4,1.4 -1,1.4 -0.5,0 -1.6,1.5 -2.5,3.399995 -0.9,1.8 -2.4,4.2 -3.3,5.2 -1,1.1 -3.5,4.6 -5.6,7.8 -2.2,3.3 -4.7,6.7 -5.8,7.8 -1,1 -1.8,2.2 -1.8,2.7 0,0.6 -2,3.9 -4.5,7.5 -2.5,3.7 -4.5,7 -4.5,7.4 0,0.4 -1.3,2 -2.8,3.7 -1.6,1.6 -4.1,5.2 -5.8,7.8 -1.6,2.7 -3.7,6.1 -4.6,7.5 -1,1.5 -2.4,4.3 -3.3,6.1 -0.9,1.9 -2.7,4.9 -4,6.7 -1.4,1.8 -2.5,3.7 -2.5,4.3 0,0.6 -2.1,0.7 -5.3,0.4 -4.7,-0.5 -5.9,-0.2 -9.5,2.2 -4.5,3 -5.2,4.3 -5.5,10.4 -0.2,5.1 2.4,8.8 7.7,10.9 3,1.2 4.5,1.3 6.7,0.5 2.5,-1 2.9,-0.9 2.9,0.7 0,0.9 -0.7,2.3 -1.5,3 -0.8,0.7 -2.5,3.3 -3.7,5.7 -1.3,2.5 -2.8,4.8 -3.5,5 -0.7,0.3 -1.3,1.1 -1.3,1.9 0,2.9 -3.2,3.2 -10.4,0.9 -10.9,-3.5 -18.3,-4.3 -27.9,-2.9 -4.5,0.7 -9.5,1.9 -11.2,2.8 -1.6,0.9 -3.6,1.6 -4.2,1.6 -0.7,0 -1.3,0.4 -1.3,1 0,0.5 -0.8,1 -1.8,1 -1.8,0 -5.2,-4.7 -5.2,-7.1 0,-0.7 -0.7,-1.9 -1.6,-2.8 -0.9,-0.9 -3.2,-4.1 -5.199997,-7.2 -2,-3.1 -6.3,-9.5 -9.4,-14.2 -3.2,-4.7 -5.8,-9 -5.8,-9.4 0,-0.5 -1.6,-3.2 -3.5,-6 -1.9,-2.9 -3.5,-5.5 -3.5,-5.8 0,-0.3 -1.6,-2.7 -3.5,-5.4 -1.9,-2.6 -3.5,-5.3 -3.5,-5.9 0,-0.6 -0.4,-1.2 -0.8,-1.4 -0.5,-0.2 -3.4,-4.6 -6.5,-9.8 -5.5,-9.2 -8.4,-13.7 -17.5,-26.9 -2.3,-3.4 -4.2,-6.6 -4.2,-7 0,-0.5 -0.7,-1.4 -1.5,-2.1 -0.8,-0.7 -1.5,-2.1 -1.5,-3.2 0,-1 -0.7,-2.1 -1.5,-2.4 -0.8,-0.4 -1.5,-1.2 -1.5,-1.9 0,-0.8 -0.6,-1.999995 -1.3,-2.699995 -0.7,-0.7 -2.4,-3.4 -3.7,-6.1 -1.3,-2.6 -2.6,-4.7 -3,-4.7 -0.8,0 -6,-7.8 -6,-9 0,-0.5 -0.4,-1 -0.8,-1.2 -1.2,-0.5 -7.4,-10.9 -6.8,-11.5 0.2,-0.3 2.6,0.6 5.3,2 2.6,1.4 7.7,3.6 11.3,4.8 3.6,1.2 7,2.6 7.5,3 0.6,0.4 2.8,1 5,1.4 2.2,0.4 5.1,1.1 6.5,1.6 2.8,1.1 6.6,1.8 28.9,5.4 11.1,1.8 21.6,2.7 37.499997,3.3 l 22.1,0.7 0.5,4 c 0.5,3.4 0.7,3.7 1.3,1.8 0.5,-1.3 0.6,-2.7 0.2,-3.2 -0.9,-1.6 1.7,-2.5 8,-2.7 18.7,-0.5 39.2,-1.8 40.6,-2.5 0.9,-0.5 5.9,-1.3 11,-1.9 5.2,-0.6 10.8,-1.5 12.4,-2 1.7,-0.5 5.5,-1.3 8.5,-1.9 8.1,-1.4 14.1,-3 17.7,-4.6 1.7,-0.8 3.5,-1.5 3.9,-1.5 1,0 9.6,-3.3 16.1,-6.1 2.3,-1 4.4,-2.3 4.8,-2.9 0.9,-1.5 2.8,-1.2 1.9,0.2 z m -25.6,33.4 c 1.2,0.8 2.2,1.999995 2.2,2.499995 0,0.6 -1.8,3.6 -4,6.6 -2.2,3.1 -4,6 -4,6.4 0,0.4 -2,3.7 -4.5,7.3 -2.5,3.7 -4.5,7 -4.5,7.5 0,0.5 -0.7,1.4 -1.6,2.1 -0.8,0.8 -2.1,2.8 -2.8,4.5 -0.7,1.7 -2.6,4.4 -4.1,6.1 -1.5,1.6 -3.7,4.6 -4.9,6.8 -1.1,2.1 -2.6,4.6 -3.1,5.5 -0.6,0.9 -2.3,3.6 -3.9,6.1 -3.5,5.5 -9.1,14.2 -12.6,19.5 -1.5,2.2 -3,4.8 -3.3,5.7 -0.9,2.5 -2.4,2.2 -3,-0.5 -0.3,-1.2 -1,-3.6 -1.7,-5.2 -1.1,-2.8 -0.9,-3.5 3.2,-9.8 2.3,-3.7 6.6,-10.4 9.3,-14.8 2.8,-4.5 5.5,-8.6 6.1,-9.3 0.5,-0.6 3.4,-4.7 6.4,-9.1 2.9,-4.4 6.4,-9.6 7.7,-11.5 1.3,-1.9 6.1,-9 10.6,-15.8 4.5,-6.7 8.6,-12.199995 9.2,-12.199995 0.6,0 2.1,0.7 3.3,1.6 z m -58.9,83.099995 c 3.4,4.1 3.6,5.4 2,10 -0.7,2.1 -2.3,3.6 -4.8,4.8 -3.7,1.6 -4.1,1.6 -7.5,0 -3.6,-1.7 -6.6,-5.8 -6.6,-8.9 0,-3 2.3,-6.5 5.4,-8 5.2,-2.6 8.1,-2 11.5,2.1 z m -43.9,36.3 c 0,2 0.5,3 1.5,3 1,0 1.5,-1 1.5,-3 0,-3.6 0.9,-3.7 11.1,-1.1 13.5,3.4 14.7,4.4 11.1,9.2 -1,1.3 -2.3,3.6 -3,5.1 -0.6,1.6 -1.6,2.8 -2.2,2.8 -0.5,0 -1,0.7 -1,1.6 0,0.9 -1.3,3.3 -2.8,5.3 -1.6,2 -3.1,4.4 -3.5,5.3 -1.3,3.7 -10.3,14.7 -11.9,14.8 -1,0 -1.8,-0.4 -1.8,-0.9 0,-0.5 -0.6,-1.6 -1.2,-2.3 -1.7,-1.9 -3.5,-4.7 -5.2,-8.3 -0.8,-1.7 -2.6,-4.5 -4,-6.4 -1.4,-1.9 -2.6,-4 -2.6,-4.7 0,-0.7 -0.4,-1.4 -0.9,-1.6 -1.5,-0.5 -8.9,-13 -8.5,-14.2 0.6,-1.5 7,-4.3 11.7,-5.1 2,-0.4 4,-1.1 4.3,-1.6 0.3,-0.5 2.1,-0.9 4,-0.9 3.1,0 3.4,0.2 3.4,3 z"
     id="path1"
     style="fill:#000000;stroke:none;stroke-width:0.1" />
  <path
     d="m 138.75591,10.513625 c -1,1.1 -0.9,7.4 0.2,7.4 0.5,0 1.2,-0.8 1.6,-1.9 0.6,-2.1 -0.7,-6.5000001 -1.8,-5.5 z"
     id="path2"
     style="fill:#000000;stroke:none;stroke-width:0.1" />
  <path
     d="m 143.55591,17.713625 c -1.2,1.3 -0.1,2.3 5.1,4.8 4.3,2 5.8,2.4 6.4,1.4 1.1,-1.8 3,-0.3 3,2.4 0,1.7 -1,2.6 -4.7,3.9 -6,2.1 -10.1,2.2 -12.5,0.1 -1.6,-1.6 -1.8,-1.6 -2.4,0 -0.9,2.2 -6.8,2.1 -12.2,-0.4 -3.5,-1.6 -4.3,-2.4 -4,-4.2 0.2,-1.8 1.5,-2.7 5.2,-3.9 2.8,-0.8 5.2,-2.1 5.4,-2.9 0.7,-1.9 -7.5,-0.5 -10.8,1.9 -3.2,2.3 -3.8,7.1 -1.3,9.4 1.8,1.6 12,4.7 15.5,4.7 1,0 1.8,0.4 1.8,0.9 0,0.5 1.3,0.3 3,-0.5 1.6,-0.9 3.4,-1.3 4,-0.9 1.5,0.9 12.3,-2.5 14.3,-4.6 1.9,-2 2.3,-7.9 0.5,-7.9 -0.6,0 -2.1,-0.8 -3.2,-1.9 -2,-1.8 -11.9,-3.5 -13.1,-2.3 z"
     id="path3"
     style="fill:#000000;stroke:none;stroke-width:0.1" />
  <path
     d="m 138.05591,23.313625 c 0,3.8 1.4,5.5 2.4,3 0.7,-1.9 -0.3,-6.4 -1.5,-6.4 -0.5,0 -0.9,1.5 -0.9,3.4 z"
     id="path4"
     style="fill:#000000;stroke:none;stroke-width:0.1" />
  <path
     d="m 138.05591,42.913625 c 0,2.2 0.5,4 1,4 0.6,0 1,-1.8 1,-4 0,-2.2 -0.4,-4 -1,-4 -0.5,0 -1,1.8 -1,4 z"
     id="path6"
     style="fill:#000000;stroke:none;stroke-width:0.1" />
  <path
     d="m 138.05591,57.413625 c 0,5.2 0.4,9.5 0.9,9.5 0.5,0 1.1,-0.8 1.3,-1.8 0.7,-2.9 -0.4,-17.2 -1.3,-17.2 -0.5,0 -0.9,4.3 -0.9,9.5 z"
     id="path7"
     style="fill:#000000;stroke:none;stroke-width:0.1" />
  <path
     d="m 137.65591,97.813625 c -0.8,1.3 0.5,7.099995 1.5,7.099995 0.5,0 0.9,-1.8 0.9,-4 0,-3.699995 -1.1,-5.199995 -2.4,-3.099995 z"
     id="path8"
     style="fill:#000000;stroke:none;stroke-width:0.1" />
  <path
     d="m 137.25591,115.41362 c 0,4.7 0.4,8.8 0.9,9.1 0.5,0.3 0.9,-3.4 0.9,-8.5 0,-5 -0.4,-9.1 -0.9,-9.1 -0.5,0 -0.9,3.8 -0.9,8.5 z"
     id="path9"
     style="fill:#000000;stroke:none;stroke-width:0.1" />
  <path
     d="m 137.75591,126.61362 c -0.9,1.5 -0.6,16.3 0.4,16.8 0.5,0.4 0.9,-3.1 0.9,-8.4 0,-8.6 -0.2,-10.1 -1.3,-8.4 z"
     id="path10"
     style="fill:#000000;stroke:none;stroke-width:0.1" />
  <path
     d="m 136.05591,149.71362 c 0,2.1 0.5,4.3 1.1,4.9 0.8,0.8 0.8,1.3 0,1.7 -1.5,1 -1.4,2.9 0.4,5.2 1.3,1.7 1.4,1.1 1.5,-6.9 0,-7.1 -0.3,-8.7 -1.5,-8.7 -1.1,0 -1.5,1.1 -1.5,3.8 z"
     id="path12"
     style="fill:#000000;stroke:none;stroke-width:0.1" />
  <path
     d="m 137.75591,165.61362 c -1.1,1 -0.8,7.1 0.3,7.8 0.6,0.4 1,-1.2 1,-3.9 0,-4.7 -0.2,-5.1 -1.3,-3.9 z"
     id="path15"
     style="fill:#000000;stroke:none;stroke-width:0.1" />
  <path
     d="m 136.65591,178.11362 c -0.4,2.2 -0.2,3.7 0.9,4.7 1.3,1.4 1.5,1 1.5,-3.2 0,-5.4 -1.4,-6.3 -2.4,-1.5 z"
     id="path16"
     style="fill:#000000;stroke:none;stroke-width:0.1" />
  <path
     d="m 136.25591,188.61362 c 0.4,5.2 2.8,5.6 2.8,0.4 0,-3 -0.4,-4.1 -1.6,-4.1 -1.1,0 -1.4,0.9 -1.2,3.7 z"
     id="path17"
     style="fill:#000000;stroke:none;stroke-width:0.1" />
  <path
     d="m 137.25591,194.81362 c -1.6,1 -1.2,5.3 0.6,5.9 0.8,0.2 1.2,-0.8 1.2,-3.2 0,-4 0,-3.9 -1.8,-2.7 z"
     id="path18"
     style="fill:#000000;stroke:none;stroke-width:0.1" />
  <path
     d="m 136.85591,206.91362 c 0.6,4.4 2.2,4.7 2.2,0.6 0,-2.3 -0.5,-3.6 -1.3,-3.6 -0.9,0 -1.2,1 -0.9,3 z"
     id="path19"
     style="fill:#000000;stroke:none;stroke-width:0.1" />
  <path
     d="m 136.05591,225.91362 c 0,2.9 0.4,4 1.5,4 1.1,0 1.5,-1.1 1.5,-4 0,-2.9 -0.4,-4 -1.5,-4 -1.1,0 -1.5,1.1 -1.5,4 z"
     id="path20"
     style="fill:#000000;stroke:none;stroke-width:0.1" />
  <path
     d="m 136.05591,236.31362 c 0,1.9 0.5,3.8 1.1,4.2 0.8,0.4 0.8,0.9 0,1.7 -1.7,1.7 -1.4,7.7 0.4,7.7 1.2,0 1.5,-1.6 1.5,-8.5 0,-6.9 -0.3,-8.5 -1.5,-8.5 -1,0 -1.5,1 -1.5,3.4 z"
     id="path21"
     style="fill:#000000;stroke:none;stroke-width:0.1" />
  <path
     d="m 136.05591,255.91362 c 0,2.2 0.5,4 1,4 0.6,0 1,-1.8 1,-4 0,-2.2 -0.4,-4 -1,-4 -0.5,0 -1,1.8 -1,4 z"
     id="path22"
     style="fill:#000000;stroke:none;stroke-width:0.1" />
  <g
     id="g24"
     transform="translate(-10.328974,2.2866714)">
    <g
       id="text24"
       style="font-style:italic;font-size:44px;font-family:'STIX Two Text';-inkscape-font-specification:'STIX Two Text, Italic';stroke-width:0;stroke-linejoin:round;stroke-miterlimit:3.2;paint-order:stroke fill markers"
       aria-label="2α">
      <path
         style="font-style:normal;-inkscape-font-specification:'STIX Two Text, Normal'"
         d="m 115.05892,179.52373 1.408,-7.04 h -1.276 c -1.012,2.64 -1.584,3.564 -3.916,3.564 h -6.116 l -3.08,0.132 v -0.22 l 5.808,-5.5 c 4.664,-4.708 7.172,-7.744 7.172,-11.66 0,-4.62 -3.476,-7.612 -8.448,-7.612 -4.268,0 -7.260001,2.464 -8.624001,6.732 l 1.056,0.44 c 1.628001,-3.3 3.564001,-4.312 6.424001,-4.312 3.388,0 5.5,2.112 5.5,5.412 0,4.62 -2.2,7.392 -6.556,11.88 l -6.688001,6.688 v 1.496 z"
         id="path32" />
      <path
         d="m 124.16687,180.13973 c 3.212,0 6.16,-3.432 8.756,-7.612 h 0.352 c -0.132,1.452 -0.352,2.684 -0.352,3.74 0,2.156 0.748,3.74 2.816,3.74 3.564,0 5.236,-3.212 5.896,-4.312 l -0.704,-0.704 c -0.836,0.924 -1.672,1.716 -2.992,1.716 -2.332,0 -2.332,-4.268 -2.332,-7.436 0,-0.176 0,-0.352 0,-0.484 v -0.088 c 1.54,-2.288 5.72,-8.052 6.776,-9.284 l -0.044,-0.66 -3.652,0.088 c -0.836,1.144 -2.376,3.608 -3.432,6.072 h -0.264 c -0.396,-2.464 -1.232,-6.468 -5.5,-6.468 -6.072,0 -10.384,5.456 -10.384,13.552 0,5.06 1.452,8.14 5.06,8.14 z m 0.968,-3.872 c -2.024,0 -4.004,-1.452 -4.004,-5.28 0,-5.896 3.388,-8.888 8.14,-8.888 2.816,0 4.268,1.232 4.268,3.96 0,4.84 -4.18,10.208 -8.404,10.208 z"
         id="path31" />
    </g>
  </g>
  <path
     d="m 103.06654,46.946348 c 7.155,0 10.125,-6.66 10.125,-12.6 0,-6.165 -3.465,-8.955 -5.22,-9.18 l -0.405,0.585 c 0.765,0.72 2.745,3.645 2.745,7.92 0,5.4 -2.16,9.405 -7.29,9.405 -2.655,0 -3.419992,-1.395 -3.419992,-2.925 1.934992,-3.06 3.599992,-6.57 3.869992,-8.91 0,-0.36 -0.855,-0.855 -1.8,-0.855 -0.72,0 -1.575,0.225 -1.799992,0.585 -1.44,2.25 -2.16,6.255 -2.16,8.145 0,0.405 0,0.81 0.045,1.215 -0.63,0.855 -2.16,2.565 -4.995,2.565 -2.34,0 -4.185,-1.26 -4.185,-4.995 0,-4.815 3.195,-8.28 8.1,-9.18 0.99,-0.225 1.665,-1.215 1.665,-2.25 0,-0.63 -0.225,-1.125 -0.54,-1.485 -8.73,1.395 -11.205,7.74 -11.205,13.635 0,4.905 1.305,8.325 4.995,8.325 2.88,0 4.95,-2.295 6.435,-4.815 h 0.045 c 0.72,2.655 2.339992,4.815 4.994992,4.815 z"
     id="path34"
     style="font-style:italic;font-size:45px;font-family:'STIX Two Text';-inkscape-font-specification:'STIX Two Text, Italic';stroke-width:0;stroke-linejoin:round;stroke-miterlimit:3.2;paint-order:stroke fill markers"
     aria-label="ω&#10;" />
  <text
     xml:space="preserve"
     style="font-style:normal;font-variant:normal;font-weight:normal;font-stretch:normal;font-size:50px;font-family:'STIX Two Text';-inkscape-font-specification:'STIX Two Text, Normal';font-variant-ligatures:normal;font-variant-caps:normal;font-variant-numeric:normal;font-variant-east-asian:normal;fill:#000000;stroke-width:0;stroke-linejoin:round;stroke-miterlimit:3.2;paint-order:stroke fill markers"
     x="309.84073"
     y="205.82314"
     id="text26"><tspan
       sodipodi:role="line"
       id="tspan26"
       style="stroke-width:0"
       x="309.84073"
       y="205.82314" /></text>
  <text
     xml:space="preserve"
     style="font-style:normal;font-variant:normal;font-weight:normal;font-stretch:normal;font-size:44px;font-family:'STIX Two Text';-inkscape-font-specification:'STIX Two Text, Normal';font-variant-ligatures:normal;font-variant-caps:normal;font-variant-numeric:normal;font-variant-east-asian:normal;fill:#000000;stroke-width:0;stroke-linejoin:round;stroke-miterlimit:3.2;paint-order:stroke fill markers"
     x="178.34247"
     y="147.5065"
     id="text28"><tspan
       sodipodi:role="line"
       id="tspan28"
       style="stroke-width:0"
       x="178.34247"
       y="147.5065" /></text>
  <path
     d="m 219.64801,215.33697 c 3.124,0 4.884,-3.08 6.028,-4.708 l -0.88,-0.66 c -0.704,0.836 -1.76,2.288 -3.3,2.288 -0.572,0 -0.836,-0.352 -0.836,-0.836 0,-0.528 0.132,-1.056 0.132,-1.056 l 2.42,-10.164 c 0.132,-0.616 0.44,-2.112 0.44,-3.256 0,-1.584 -0.616,-3.124 -2.728,-3.124 -4.62,0 -8.272,6.248 -10.076,9.68 h -0.22 l 0.836,-3.3 c 0.044,-0.22 0.396,-1.98 0.396,-3.256 0,-1.584 -0.572,-3.124 -2.728,-3.124 -4.884,0 -8.536,6.204 -10.34,9.68 h -0.352 l 2.156,-9.548 h -1.012 l -6.028,0.484 v 1.188 c 0,0 0.836,-0.088 1.408,-0.088 1.056,0 1.408,0.44 1.408,1.188 0,0.66 -0.132,1.452 -0.132,1.452 l -3.52,16.72 h 3.608 l 1.364,-6.028 c 2.156,-4.928 6.38,-11.88 9.196,-11.88 0.968,0 1.276,0.748 1.276,1.76 0,0.704 -0.22,1.804 -0.22,1.804 -1.056,4.928 -2.244,9.636 -3.52,14.344 h 3.652 l 1.188,-5.544 c 1.276,-3.74 6.556,-12.364 9.372,-12.364 0.968,0 1.276,0.748 1.276,1.76 0,0.924 -0.396,2.596 -0.704,3.74 l -2.244,8.536 c -0.044,0.22 -0.22,1.012 -0.22,1.716 0,1.32 0.66,2.596 2.904,2.596 z"
     id="path33"
     style="font-style:italic;font-size:44px;font-family:'STIX Two Text';-inkscape-font-specification:'STIX Two Text, Italic';stroke-width:0;stroke-linejoin:round;stroke-miterlimit:3.2;paint-order:stroke fill markers"
     aria-label="m" />
</svg>
