<svg xmlns="http://www.w3.org/2000/svg" xml:lang="en" height="212.41099999999997pt" width="248.82999999999998pt" viewBox="-22.829999999999995 -208.71099999999996 248.82999999999998 212.41099999999997"><path d="M 0.0,-0.0 L 5.304251448806973e-15,-86.625 M 5.717569743519205e-15,-93.375 L 1.1021821192326179e-14,-180.0" style="stroke:black;fill:none;stroke-width:2.0;stroke-dasharray:-;stroke-linecap:round;stroke-linejoin:round;" /><path d="M 13.500000000000005,-93.375 L -13.499999999999995,-93.375" style="stroke:black;fill:none;stroke-width:2.0;stroke-dasharray:-;stroke-linecap:round;stroke-linejoin:round;" /><path d="M 6.750000000000005,-86.625 L -6.749999999999995,-86.625" style="stroke:black;fill:none;stroke-width:2.0;stroke-dasharray:-;stroke-linecap:round;stroke-linejoin:round;" /><path d="M 1.1021821192326179e-14,-180.0 L 36.00000000000001,-180.0 L 36.00000000000001,-189.0 L 72.00000000000001,-189.0 L 72.00000000000001,-171.0 L 36.00000000000001,-171.0 L 36.00000000000001,-180.0 M 72.00000000000001,-180.0 L 108.00000000000001,-180.0" style="stroke:black;fill:none;stroke-width:2.0;stroke-dasharray:-;stroke-linecap:round;stroke-linejoin:round;" /><path d="M 108.00000000000001,-180.0 L 144.0,-180.0 L 144.0,-189.0 L 180.0,-189.0 L 180.0,-171.0 L 144.0,-171.0 L 144.0,-180.0 M 180.0,-180.0 L 216.0,-180.0" style="stroke:black;fill:none;stroke-width:2.0;stroke-dasharray:-;stroke-linecap:round;stroke-linejoin:round;" /><path d="M 216.0,-180.0 L 216.0,-93.24 M 225.0,-93.24 L 207.0,-93.24 M 225.0,-86.75999999999999 L 207.0,-86.75999999999999 M 216.0,-86.75999999999999 L 216.0,-0.0" style="stroke:black;fill:none;stroke-width:2.0;stroke-dasharray:-;stroke-linecap:round;stroke-linejoin:round;" /><path d="M 216.0,-0.0 L 162.0,-6.613092715395706e-15 L 108.00000000000001,-1.3226185430791412e-14" style="stroke:black;fill:none;stroke-width:2.0;stroke-dasharray:-;stroke-linecap:round;stroke-linejoin:round;" /><path d="M 108.00000000000001,-1.3226185430791412e-14 L 54.00000000000001,-6.6130927153957035e-15 L 0.0,5.32481111024183e-30" style="stroke:black;fill:none;stroke-width:2.0;stroke-dasharray:-;stroke-linecap:round;stroke-linejoin:round;" /><path d="M 108.00000000000001,-1.3226185430791412e-14 L 108.00000000000001,-18.00000000000001 L 99.00000000000001,-18.00000000000001 L 99.00000000000001,-54.000000000000014 L 117.00000000000001,-54.000000000000014 L 117.00000000000001,-18.00000000000001 L 108.00000000000001,-18.00000000000001 M 108.00000000000001,-54.000000000000014 L 108.00000000000001,-72.00000000000001" style="stroke:black;fill:none;stroke-width:2.0;stroke-dasharray:-;stroke-linecap:round;stroke-linejoin:round;" /><path d="M 108.00000000000001,-72.00000000000001 L 108.00000000000001,-108.0 M 104.4,-116.64000000000001 L 91.80000000000003,-136.8 M 108.00000000000001,-144.0 L 108.00000000000001,-180.0" style="stroke:black;fill:none;stroke-width:2.0;stroke-dasharray:-;stroke-linecap:round;stroke-linejoin:round;" /><g><g><g><path d="M -11.305 -81.13 C -12.255 -81.613 -13.355 -81.855 -14.605 -81.855 C -16.005 -81.855 -17.142 -81.518 -18.017 -80.843 C -18.892 -80.168 -19.33 -79.355 -19.33 -78.405 C -19.33 -77.288 -18.792 -76.401 -17.717 -75.743 C -16.642 -75.084 -15.213 -74.738 -13.43 -74.705 C -13.397 -74.705 -13.367 -74.672 -13.342 -74.605 C -13.317 -74.538 -13.288 -74.463 -13.255 -74.38 C -13.222 -74.297 -13.188 -74.238 -13.155 -74.205 L -13.155 -74.155 C -15.005 -73.772 -16.455 -73.068 -17.505 -72.043 C -18.555 -71.018 -19.08 -69.847 -19.08 -68.53 C -19.08 -67.197 -18.559 -66.159 -17.517 -65.418 C -16.476 -64.676 -15.197 -64.305 -13.68 -64.305 C -11.98 -64.305 -10.48 -64.755 -9.18 -65.655 C -7.88 -66.555 -7.23 -67.572 -7.23 -68.705 C -7.23 -69.572 -7.513 -70.268 -8.08 -70.793 C -8.647 -71.318 -9.48 -71.58 -10.58 -71.58 C -11.797 -71.58 -12.859 -71.18 -13.767 -70.38 C -14.676 -69.58 -15.297 -68.497 -15.63 -67.13 L -15.105 -66.98 C -14.805 -68.03 -14.267 -68.884 -13.492 -69.543 C -12.717 -70.201 -11.888 -70.53 -11.005 -70.53 C -10.355 -70.53 -9.83 -70.363 -9.43 -70.03 C -9.03 -69.697 -8.83 -69.247 -8.83 -68.68 C -8.83 -67.897 -9.122 -67.188 -9.705 -66.555 C -10.622 -65.555 -11.863 -65.055 -13.43 -65.055 C -14.53 -65.055 -15.405 -65.347 -16.055 -65.93 C -16.705 -66.513 -17.03 -67.213 -17.03 -68.03 C -17.03 -69.13 -16.584 -70.18 -15.692 -71.18 C -14.801 -72.18 -13.622 -72.872 -12.155 -73.255 C -11.738 -73.022 -11.297 -72.905 -10.83 -72.905 C -10.13 -72.905 -9.78 -73.138 -9.78 -73.605 C -9.78 -74.072 -10.405 -74.33 -11.655 -74.38 C -11.705 -74.48 -11.738 -74.58 -11.755 -74.68 C -9.488 -74.847 -7.542 -75.401 -5.917 -76.343 C -4.292 -77.284 -3.48 -78.272 -3.48 -79.305 C -3.48 -80.522 -4.313 -81.13 -5.98 -81.13 C -7.03 -81.13 -8.109 -80.901 -9.217 -80.443 C -10.326 -79.984 -11.297 -79.313 -12.13 -78.43 C -12.963 -77.547 -13.43 -76.563 -13.53 -75.48 C -14.88 -75.48 -16.013 -75.734 -16.93 -76.243 C -17.847 -76.751 -18.305 -77.447 -18.305 -78.33 C -18.305 -79.147 -17.938 -79.813 -17.205 -80.33 C -16.472 -80.847 -15.505 -81.105 -14.305 -81.105 C -13.205 -81.105 -12.288 -80.963 -11.555 -80.68 Z M -4.505 -79.38 C -4.505 -78.547 -5.222 -77.709 -6.655 -76.868 C -8.088 -76.026 -9.788 -75.547 -11.755 -75.43 C -11.588 -76.547 -10.855 -77.622 -9.555 -78.655 C -8.255 -79.688 -7.005 -80.205 -5.805 -80.205 C -5.438 -80.205 -5.13 -80.13 -4.88 -79.98 C -4.63 -79.83 -4.505 -79.63 -4.505 -79.38 Z " fill="black" /></g></g></g><circle cx="108.00000000000001" cy="-180.0" r="2.6999999999999997" style="stroke:black;fill:black;stroke-width:2.0;stroke-dasharray:-;" /><g><g><g><path d="M 61.537 -204.537 C 61.537 -205.656 61.092 -206.465 60.203 -206.964 C 59.314 -207.462 58.056 -207.711 56.431 -207.711 L 51.026 -207.711 L 50.888 -207.021 C 51.348 -207.021 51.708 -206.99 51.969 -206.929 C 52.23 -206.868 52.418 -206.772 52.533 -206.642 C 52.648 -206.511 52.705 -206.339 52.705 -206.124 C 52.705 -205.909 52.674 -205.641 52.613 -205.319 L 50.589 -195.452 C 50.497 -194.977 50.397 -194.593 50.29 -194.302 C 50.183 -194.011 50.041 -193.792 49.865 -193.647 C 49.688 -193.501 49.466 -193.405 49.198 -193.359 C 48.929 -193.313 48.58 -193.29 48.151 -193.29 L 48.013 -192.6 L 54.361 -192.6 L 54.476 -193.29 C 53.985 -193.29 53.594 -193.313 53.303 -193.359 C 53.012 -193.405 52.801 -193.505 52.671 -193.658 C 52.54 -193.811 52.479 -194.03 52.487 -194.314 C 52.494 -194.597 52.544 -194.977 52.636 -195.452 L 53.487 -199.546 L 53.97 -199.546 C 54.384 -199.546 54.691 -199.496 54.89 -199.397 C 55.089 -199.297 55.273 -199.086 55.442 -198.764 C 55.626 -198.411 55.799 -198.07 55.96 -197.74 C 56.121 -197.411 56.308 -197.024 56.523 -196.579 C 56.738 -196.134 56.991 -195.598 57.282 -194.969 C 57.573 -194.34 57.934 -193.551 58.363 -192.6 L 61.859 -192.6 L 61.997 -193.29 C 61.46 -193.29 61.039 -193.37 60.732 -193.531 C 60.425 -193.692 60.142 -194.003 59.881 -194.463 C 59.406 -195.352 59.015 -196.104 58.708 -196.717 C 58.401 -197.33 58.133 -197.84 57.903 -198.246 C 57.673 -198.653 57.47 -198.975 57.294 -199.213 C 57.117 -199.45 56.922 -199.638 56.707 -199.776 L 56.707 -199.891 C 57.213 -199.983 57.746 -200.125 58.306 -200.316 C 58.865 -200.508 59.387 -200.78 59.87 -201.133 C 60.353 -201.486 60.751 -201.938 61.066 -202.49 C 61.38 -203.042 61.537 -203.724 61.537 -204.537 Z M 53.648 -200.397 L 54.936 -206.745 C 55.197 -206.776 55.411 -206.795 55.58 -206.803 C 55.749 -206.81 55.986 -206.814 56.293 -206.814 C 56.86 -206.814 57.336 -206.749 57.719 -206.618 C 58.102 -206.488 58.409 -206.316 58.639 -206.101 C 58.869 -205.886 59.03 -205.633 59.122 -205.342 C 59.214 -205.051 59.26 -204.752 59.26 -204.445 C 59.26 -203.709 59.134 -203.088 58.881 -202.582 C 58.628 -202.076 58.283 -201.662 57.846 -201.34 C 57.409 -201.018 56.891 -200.784 56.293 -200.638 C 55.695 -200.493 55.051 -200.405 54.361 -200.374 Z " fill="black" /></g></g></g><g><g><g><path d="M 168.187 -204.537 C 168.187 -205.656 167.742 -206.465 166.853 -206.964 C 165.964 -207.462 164.706 -207.711 163.081 -207.711 L 157.676 -207.711 L 157.538 -207.021 C 157.998 -207.021 158.358 -206.99 158.619 -206.929 C 158.88 -206.868 159.067 -206.772 159.183 -206.642 C 159.298 -206.511 159.355 -206.339 159.355 -206.124 C 159.355 -205.909 159.324 -205.641 159.263 -205.319 L 157.239 -195.452 C 157.147 -194.977 157.047 -194.593 156.94 -194.302 C 156.833 -194.011 156.691 -193.792 156.514 -193.647 C 156.338 -193.501 156.116 -193.405 155.847 -193.359 C 155.579 -193.313 155.23 -193.29 154.801 -193.29 L 154.663 -192.6 L 161.011 -192.6 L 161.126 -193.29 C 160.635 -193.29 160.244 -193.313 159.953 -193.359 C 159.662 -193.405 159.451 -193.505 159.321 -193.658 C 159.19 -193.811 159.129 -194.03 159.137 -194.314 C 159.144 -194.597 159.194 -194.977 159.286 -195.452 L 160.137 -199.546 L 160.62 -199.546 C 161.034 -199.546 161.341 -199.496 161.54 -199.397 C 161.739 -199.297 161.923 -199.086 162.092 -198.764 C 162.276 -198.411 162.448 -198.07 162.609 -197.74 C 162.77 -197.411 162.958 -197.024 163.173 -196.579 C 163.388 -196.134 163.641 -195.598 163.932 -194.969 C 164.223 -194.34 164.584 -193.551 165.013 -192.6 L 168.509 -192.6 L 168.647 -193.29 C 168.11 -193.29 167.689 -193.37 167.382 -193.531 C 167.075 -193.692 166.792 -194.003 166.531 -194.463 C 166.056 -195.352 165.665 -196.104 165.358 -196.717 C 165.051 -197.33 164.783 -197.84 164.553 -198.246 C 164.323 -198.653 164.12 -198.975 163.944 -199.213 C 163.767 -199.45 163.572 -199.638 163.357 -199.776 L 163.357 -199.891 C 163.863 -199.983 164.396 -200.125 164.956 -200.316 C 165.515 -200.508 166.037 -200.78 166.519 -201.133 C 167.002 -201.486 167.401 -201.938 167.716 -202.49 C 168.03 -203.042 168.187 -203.724 168.187 -204.537 Z M 160.298 -200.397 L 161.586 -206.745 C 161.847 -206.776 162.061 -206.795 162.23 -206.803 C 162.399 -206.81 162.636 -206.814 162.943 -206.814 C 163.51 -206.814 163.986 -206.749 164.369 -206.618 C 164.752 -206.488 165.059 -206.316 165.289 -206.101 C 165.519 -205.886 165.68 -205.633 165.772 -205.342 C 165.864 -205.051 165.91 -204.752 165.91 -204.445 C 165.91 -203.709 165.784 -203.088 165.531 -202.582 C 165.278 -202.076 164.933 -201.662 164.495 -201.34 C 164.059 -201.018 163.541 -200.784 162.943 -200.638 C 162.345 -200.493 161.701 -200.405 161.011 -200.374 Z " fill="black" /></g></g></g><g><g><g><path d="M 202.733 -85.319 L 202.319 -85.756 C 200.786 -84.361 199.137 -83.663 197.374 -83.663 C 195.841 -83.663 194.714 -84.062 193.993 -84.859 C 193.272 -85.657 192.912 -86.83 192.912 -88.379 C 192.912 -89.651 193.085 -90.805 193.43 -91.84 C 193.775 -92.875 194.246 -93.764 194.844 -94.508 C 195.442 -95.252 196.136 -95.827 196.926 -96.233 C 197.715 -96.639 198.555 -96.843 199.444 -96.843 C 200.579 -96.843 201.46 -96.509 202.089 -95.842 C 202.718 -95.175 203.001 -94.075 202.94 -92.541 L 203.699 -92.541 L 204.78 -97.808 L 204.113 -97.808 C 203.929 -97.548 203.768 -97.345 203.63 -97.199 C 203.492 -97.053 203.331 -96.98 203.147 -96.98 C 203.009 -96.98 202.856 -97.026 202.687 -97.118 C 202.518 -97.21 202.308 -97.306 202.055 -97.406 C 201.802 -97.506 201.483 -97.602 201.1 -97.694 C 200.717 -97.785 200.234 -97.831 199.651 -97.831 C 198.486 -97.831 197.363 -97.613 196.282 -97.176 C 195.201 -96.739 194.242 -96.095 193.407 -95.244 C 192.571 -94.393 191.904 -93.343 191.406 -92.093 C 190.907 -90.843 190.658 -89.413 190.658 -87.803 C 190.658 -87.052 190.758 -86.335 190.957 -85.653 C 191.156 -84.971 191.478 -84.369 191.923 -83.847 C 192.368 -83.326 192.947 -82.916 193.66 -82.617 C 194.373 -82.318 195.25 -82.168 196.293 -82.168 C 197.014 -82.168 197.681 -82.245 198.294 -82.398 C 198.907 -82.552 199.479 -82.77 200.008 -83.054 C 200.537 -83.338 201.027 -83.671 201.48 -84.054 C 201.932 -84.438 202.35 -84.859 202.733 -85.319 Z " fill="black" /></g></g></g><circle cx="108.00000000000001" cy="-1.3226185430791412e-14" r="2.6999999999999997" style="stroke:black;fill:black;stroke-width:2.0;stroke-dasharray:-;" /><g><g><g><path d="M 94.25 -40.382 C 94.25 -41.501 93.805 -42.31 92.916 -42.808 C 92.027 -43.306 90.769 -43.556 89.144 -43.556 L 83.739 -43.556 L 83.601 -42.866 C 84.061 -42.866 84.421 -42.835 84.682 -42.774 C 84.943 -42.712 85.13 -42.616 85.245 -42.486 C 85.36 -42.356 85.418 -42.183 85.418 -41.969 C 85.418 -41.754 85.387 -41.486 85.326 -41.164 L 83.302 -31.297 C 83.21 -30.821 83.11 -30.438 83.003 -30.147 C 82.896 -29.855 82.754 -29.637 82.577 -29.491 C 82.401 -29.345 82.179 -29.25 81.91 -29.204 C 81.642 -29.158 81.293 -29.135 80.864 -29.135 L 80.726 -28.445 L 87.074 -28.445 L 87.189 -29.135 C 86.698 -29.135 86.307 -29.158 86.016 -29.204 C 85.725 -29.25 85.514 -29.349 85.383 -29.503 C 85.253 -29.656 85.192 -29.874 85.2 -30.158 C 85.207 -30.442 85.257 -30.821 85.349 -31.297 L 86.2 -35.391 L 86.683 -35.391 C 87.097 -35.391 87.404 -35.341 87.603 -35.241 C 87.802 -35.141 87.986 -34.931 88.155 -34.609 C 88.339 -34.256 88.511 -33.915 88.672 -33.585 C 88.833 -33.255 89.021 -32.868 89.236 -32.424 C 89.451 -31.979 89.704 -31.442 89.995 -30.814 C 90.286 -30.185 90.647 -29.395 91.076 -28.445 L 94.572 -28.445 L 94.71 -29.135 C 94.173 -29.135 93.752 -29.215 93.445 -29.376 C 93.138 -29.537 92.855 -29.848 92.594 -30.308 C 92.119 -31.197 91.728 -31.948 91.421 -32.562 C 91.114 -33.175 90.846 -33.685 90.616 -34.091 C 90.386 -34.497 90.183 -34.819 90.006 -35.057 C 89.83 -35.295 89.635 -35.483 89.42 -35.621 L 89.42 -35.736 C 89.926 -35.828 90.459 -35.969 91.018 -36.161 C 91.578 -36.353 92.099 -36.625 92.582 -36.978 C 93.066 -37.33 93.464 -37.783 93.778 -38.335 C 94.093 -38.887 94.25 -39.569 94.25 -40.382 Z M 86.361 -36.242 L 87.649 -42.59 C 87.91 -42.62 88.124 -42.639 88.293 -42.647 C 88.462 -42.655 88.699 -42.659 89.006 -42.659 C 89.573 -42.659 90.049 -42.593 90.432 -42.463 C 90.815 -42.333 91.122 -42.16 91.352 -41.946 C 91.582 -41.731 91.743 -41.478 91.835 -41.187 C 91.927 -40.895 91.973 -40.596 91.973 -40.29 C 91.973 -39.554 91.846 -38.933 91.593 -38.427 C 91.34 -37.921 90.995 -37.507 90.558 -37.185 C 90.121 -36.863 89.604 -36.629 89.006 -36.483 C 88.408 -36.337 87.764 -36.249 87.074 -36.219 Z " fill="black" /></g></g></g><circle cx="108.00000000000001" cy="-112.32000000000001" r="4.32" style="stroke:black;fill:white;stroke-width:2.0;stroke-dasharray:-;" /><circle cx="108.00000000000001" cy="-139.68" r="4.32" style="stroke:black;fill:white;stroke-width:2.0;stroke-dasharray:-;" /><g><g><g><path d="M 89.557 -118.329 L 89.557 -119.019 C 89.128 -119.019 88.783 -119.035 88.522 -119.066 C 88.261 -119.096 88.043 -119.157 87.867 -119.249 C 87.69 -119.341 87.537 -119.468 87.407 -119.629 C 87.276 -119.79 87.127 -120.008 86.958 -120.284 C 86.452 -121.128 86.015 -121.864 85.647 -122.492 C 85.279 -123.121 84.953 -123.665 84.67 -124.126 C 84.386 -124.585 84.125 -124.973 83.888 -125.287 C 83.65 -125.601 83.401 -125.866 83.14 -126.081 L 83.14 -126.195 C 83.416 -126.425 83.642 -126.667 83.819 -126.92 C 83.995 -127.173 84.148 -127.438 84.279 -127.713 C 84.409 -127.989 84.516 -128.285 84.601 -128.599 C 84.685 -128.913 84.773 -129.247 84.865 -129.6 C 85.08 -130.428 85.306 -130.987 85.544 -131.279 C 85.781 -131.57 86.038 -131.715 86.314 -131.715 C 86.467 -131.715 86.602 -131.685 86.717 -131.624 C 86.832 -131.562 86.947 -131.489 87.062 -131.405 C 87.177 -131.321 87.299 -131.248 87.43 -131.186 C 87.56 -131.125 87.717 -131.095 87.901 -131.095 C 88.284 -131.095 88.568 -131.213 88.752 -131.451 C 88.936 -131.689 89.028 -131.961 89.028 -132.267 C 89.028 -132.758 88.856 -133.115 88.511 -133.337 C 88.166 -133.559 87.755 -133.671 87.28 -133.671 C 86.713 -133.671 86.237 -133.544 85.854 -133.291 C 85.471 -133.038 85.149 -132.712 84.888 -132.314 C 84.627 -131.915 84.417 -131.474 84.256 -130.991 C 84.095 -130.508 83.953 -130.044 83.83 -129.6 C 83.554 -128.526 83.247 -127.725 82.91 -127.196 C 82.573 -126.667 82.059 -126.403 81.369 -126.403 L 79.276 -126.403 L 79.276 -130.404 C 79.276 -130.849 79.291 -131.221 79.322 -131.52 C 79.353 -131.819 79.437 -132.06 79.575 -132.244 C 79.713 -132.428 79.924 -132.559 80.208 -132.636 C 80.491 -132.712 80.886 -132.75 81.392 -132.75 L 81.392 -133.44 L 75.09 -133.44 L 75.09 -132.75 C 75.596 -132.75 75.987 -132.716 76.263 -132.647 C 76.539 -132.578 76.742 -132.455 76.873 -132.279 C 77.003 -132.103 77.08 -131.865 77.103 -131.566 C 77.126 -131.267 77.137 -130.88 77.137 -130.404 L 77.137 -121.343 C 77.137 -120.867 77.122 -120.48 77.091 -120.181 C 77.06 -119.882 76.98 -119.648 76.85 -119.48 C 76.719 -119.311 76.516 -119.192 76.24 -119.123 C 75.964 -119.054 75.581 -119.019 75.09 -119.019 L 75.09 -118.329 L 81.461 -118.329 L 81.461 -119.019 C 80.955 -119.019 80.56 -119.046 80.277 -119.1 C 79.993 -119.154 79.774 -119.261 79.621 -119.422 C 79.468 -119.583 79.372 -119.817 79.334 -120.123 C 79.295 -120.43 79.276 -120.837 79.276 -121.343 L 79.276 -125.552 L 80.38 -125.552 C 80.625 -125.552 80.829 -125.54 80.99 -125.517 C 81.151 -125.494 81.289 -125.448 81.404 -125.379 C 81.519 -125.31 81.626 -125.222 81.726 -125.114 C 81.825 -125.007 81.929 -124.861 82.036 -124.677 C 82.312 -124.218 82.577 -123.769 82.83 -123.332 C 83.083 -122.895 83.343 -122.435 83.612 -121.952 C 83.88 -121.469 84.171 -120.936 84.486 -120.353 C 84.8 -119.771 85.164 -119.096 85.578 -118.329 Z " fill="black" /></g></g></g></svg>