<?xml version="1.0" standalone="no"?>
<!DOCTYPE svg PUBLIC "-//W3C//DTD SVG 20010904//EN"
 "http://www.w3.org/TR/2001/REC-SVG-20010904/DTD/svg10.dtd">
<svg version="1.0" xmlns="http://www.w3.org/2000/svg"
 width="1888.799490pt" height="321.524771pt" viewBox="0 0 1888.799490 321.524771"
 preserveAspectRatio="xMidYMid meet">
<metadata>
Created by potrace 1.16, written by Peter Selinger 2001-2019
</metadata>
<g transform="translate(-66.188681,379.692417) scale(0.100000,-0.100000)"
fill="#000000" stroke="none">
<path d="M3060 3791 c-123 -40 -218 -145 -236 -260 l-7 -41 -153 0 -154 0 0
-115 0 -115 67 0 66 0 -21 -23 c-45 -48 -45 -116 -1 -163 25 -27 27 -26 -71
-48 -240 -54 -532 -182 -763 -333 -377 -248 -658 -567 -863 -978 -159 -321
-232 -605 -259 -1008 -6 -81 -5 -87 13 -87 18 0 20 11 26 118 31 525 223 1023
549 1427 89 110 302 315 419 403 365 274 794 440 1248 483 151 14 444 6 585
-16 428 -66 828 -240 1160 -503 97 -77 285 -262 361 -356 l64 -78 -972 -730
c-535 -401 -977 -733 -983 -739 -5 -6 -5 -13 1 -19 7 -7 328 228 989 724 539
404 984 732 989 729 23 -15 156 -234 221 -368 149 -303 229 -609 251 -963 6
-98 9 -112 24 -112 16 0 18 8 14 83 -21 389 -97 686 -258 1014 -316 643 -910
1128 -1590 1299 -55 14 -107 27 -114 30 -10 3 -7 12 12 35 36 42 36 106 0 148
l-26 31 66 0 66 0 0 115 0 115 -154 0 -153 0 -7 41 c-9 55 -49 131 -91 174
-59 58 -128 88 -215 91 -41 2 -86 0 -100 -5z m200 -52 c85 -38 152 -122 166
-208 l7 -41 -287 0 -286 0 0 28 c0 41 43 123 86 164 58 55 116 78 199 78 49 0
84 -7 115 -21z m480 -359 l0 -80 -595 0 -595 0 0 80 0 80 595 0 595 0 0 -80z
m-235 -146 c-30 -32 -40 -79 -25 -118 6 -16 9 -31 6 -33 -2 -3 -67 1 -143 8
-136 12 -383 7 -500 -10 -29 -4 -53 -7 -53 -6 0 1 7 16 16 34 20 41 12 89 -21
125 l-24 26 384 0 384 0 -24 -26z m-748 -26 c50 -47 14 -128 -58 -128 -42 0
-79 35 -79 75 0 12 9 34 21 49 27 34 82 36 116 4z m886 4 c48 -53 18 -132 -51
-132 -72 0 -108 76 -60 127 27 29 87 32 111 5z"/>
<path d="M16890 3093 c-369 -35 -644 -113 -950 -268 -784 -400 -1304 -1200
-1347 -2072 -6 -132 -6 -133 15 -133 21 0 22 5 22 88 0 373 147 854 368 1206
321 510 819 886 1393 1051 141 41 143 41 129 16 -14 -27 -12 -71 4 -103 l15
-28 -55 0 -54 0 0 -115 0 -115 155 0 155 0 6 -27 c29 -141 112 -231 243 -270
173 -50 375 80 398 257 l6 40 153 0 154 0 0 115 0 115 -49 0 -49 0 15 40 c13
32 14 48 6 75 -6 19 -7 35 -3 35 25 0 262 -76 360 -115 380 -152 743 -421 991
-733 23 -30 38 -57 33 -61 -5 -5 -443 -334 -974 -731 -531 -397 -969 -727
-975 -731 -5 -6 -5 -13 2 -20 8 -8 285 195 993 726 540 405 986 733 990 728
33 -34 164 -253 220 -368 146 -299 230 -620 247 -950 6 -116 8 -125 26 -125
19 0 20 4 13 118 -20 347 -103 667 -251 967 -128 262 -270 461 -475 665 -348
349 -784 583 -1266 679 -214 43 -487 61 -664 44z m421 -43 c136 -14 135 -13
108 -49 -25 -34 -28 -91 -5 -126 l16 -25 -360 0 -361 0 15 22 c22 31 20 87 -5
127 -11 18 -19 35 -17 36 2 2 46 8 98 13 133 13 388 14 511 2z m-631 -60 c27
-27 27 -90 0 -115 -30 -27 -88 -25 -111 4 -26 32 -25 85 3 111 28 26 82 26
108 0z m889 -6 c36 -46 24 -102 -27 -123 -57 -24 -120 28 -107 89 14 62 96 82
134 34z m101 -244 l0 -80 -600 0 -600 0 0 80 0 80 600 0 600 0 0 -80z m-317
-152 c-11 -59 -44 -116 -92 -161 -163 -152 -435 -63 -476 156 l-7 37 291 0
291 0 -7 -32z"/>
<path d="M10185 2989 c-4 -6 -5 -12 -4 -13 2 -2 420 -315 929 -696 509 -381
935 -702 947 -713 l22 -20 -62 -75 c-295 -357 -725 -639 -1165 -762 -127 -36
-136 -37 -122 -11 14 27 13 57 -5 91 l-15 29 48 3 47 3 3 113 3 112 -150 0
-149 0 -7 37 c-18 99 -112 207 -207 239 -114 38 -252 2 -335 -88 -37 -41 -83
-137 -83 -173 0 -13 -25 -15 -150 -15 l-151 0 3 -112 3 -113 47 -3 47 -3 -16
-37 c-12 -28 -13 -44 -5 -70 l11 -34 -36 7 c-20 3 -85 22 -144 40 -382 120
-711 323 -995 616 -181 187 -309 369 -424 604 -142 292 -219 586 -238 915 -6
112 -9 125 -26 128 -18 4 -19 -1 -12 -114 52 -896 558 -1664 1351 -2049 315
-153 616 -228 970 -242 408 -15 791 70 1160 256 385 195 690 466 930 826 77
116 198 357 250 500 76 206 128 464 141 704 7 118 6 123 -12 119 -16 -3 -19
-13 -21 -68 -12 -343 -101 -693 -252 -993 -84 -169 -200 -350 -218 -343 -6 3
-435 322 -952 710 -518 388 -943 706 -945 706 -3 0 -8 -5 -11 -11z m119 -1704
c78 -33 166 -145 166 -212 0 -23 0 -23 -275 -23 -275 0 -275 0 -275 23 1 34
38 108 73 145 34 36 93 70 142 83 40 11 124 3 169 -16z m466 -345 l0 -80 -575
0 -575 0 0 80 0 80 575 0 575 0 0 -80z m-955 -145 c64 -63 -5 -161 -85 -120
-52 27 -52 106 0 132 37 19 58 16 85 -12z m710 -5 c-21 -41 -19 -72 9 -112
l24 -35 -100 -12 c-127 -14 -399 -14 -526 0 l-100 12 24 35 c28 40 30 71 9
112 l-16 30 346 0 346 0 -16 -30z m158 -2 c41 -49 7 -122 -58 -122 -61 0 -94
60 -64 115 22 42 89 46 122 7z"/>
<path d="M11285 2780 c3 -5 15 -10 26 -10 29 0 24 -33 -30 -225 -39 -139 -51
-172 -69 -180 -40 -18 -23 -25 64 -25 54 0 83 4 79 10 -3 6 -13 10 -21 10 -25
0 -25 21 0 110 18 68 27 86 43 88 18 3 27 -13 63 -107 l43 -111 56 0 56 0 -28
23 c-18 15 -39 52 -61 112 l-34 90 36 13 c46 16 89 56 95 90 8 43 -17 91 -57
107 -42 18 -271 22 -261 5z m224 -34 c16 -10 23 -61 12 -89 -6 -14 -22 -33
-36 -43 -27 -17 -115 -32 -115 -19 0 26 44 152 56 162 14 10 57 5 83 -11z"/>
<path d="M4270 1320 c0 -5 9 -10 20 -10 11 0 23 -7 26 -14 3 -8 -18 -101 -47
-206 -45 -165 -56 -194 -76 -203 -43 -19 -24 -27 67 -27 87 0 117 11 65 24
-31 8 -31 10 -3 119 20 76 25 87 44 87 22 0 35 -27 95 -192 13 -37 14 -38 65
-38 29 0 56 5 59 10 3 6 0 10 -8 10 -24 0 -44 32 -80 126 l-34 92 38 11 c20 6
51 27 68 46 52 60 37 131 -35 161 -40 17 -264 20 -264 4z m231 -41 c17 -17 20
-29 16 -63 -8 -58 -43 -86 -108 -86 -27 0 -49 3 -49 6 0 10 41 147 47 157 10
16 73 7 94 -14z"/>
<path d="M18190 1325 c0 -3 11 -10 25 -15 15 -6 25 -17 25 -30 0 -31 -97 -369
-111 -386 -6 -8 -18 -14 -25 -14 -8 0 -14 -4 -14 -10 0 -6 37 -10 90 -10 87 0
117 11 65 24 -30 8 -30 17 -1 121 20 70 25 80 45 80 20 0 29 -14 66 -110 l42
-110 57 -3 c58 -3 72 6 34 23 -16 7 -34 37 -60 100 -20 50 -37 95 -37 102 -1
6 15 17 34 23 19 6 49 25 65 42 54 54 35 141 -37 169 -25 9 -263 13 -263 4z
m232 -42 c30 -27 24 -88 -11 -124 -25 -25 -37 -29 -81 -29 -38 0 -51 4 -47 13
2 6 12 39 21 72 9 33 19 66 21 73 6 18 75 15 97 -5z"/>
</g>
</svg>
