<svg height="2328.568766pt" preserveAspectRatio="xMidYMid meet" viewBox="0 0 1835.260964 2328.568766" width="1835.260964pt" xmlns="http://www.w3.org/2000/svg"><g transform="matrix(.1 0 0 -.1 -49.387094 3113.568766)"><path d="m1251 31119c-11-12-35-50-53-85-32-62-33-63-95-78-34-9-66-16-72-16-14 0 26 123 44 132 21 12 19 35-4 48-41 21-65-11-99-134l-18-68-158-53c-162-54-183-65-172-84 12-18 45-13 176 28 68 22 126 38 128 36s-1-26-7-52c-12-48-12-48-84-72-109-35-157-58-157-76 0-27 23-26 115 5 49 16 90 30 91 30 2 0 4-19 6-42 2-34 7-44 23-46 12-1 25 6 33 18 7 12 8 20 2 20-13 0-2 50 14 66 13 14 109 46 104 36-27-63-59-164-54-169 4-4 15-3 24 3 18 11 34 39 80 139l27 60 95 34c107 37 104 36 96 49-4 6-35 2-82-10-42-10-78-17-81-14-6 6 27 95 37 101 4 2 45 15 91 28 110 32 117 50 15 41-42-4-76-3-76 1 0 5 14 33 31 63 27 48 29 56 16 69s-17 12-36-8zm-131-259c-11-28-20-53-20-55 0-6-112-37-117-31-3 2 1 26 9 52 13 47 14 48 73 65 33 9 63 17 67 18 4 0-1-22-12-49z"/><path d="m12584 31100c-66-37-130-110-182-208-69-130-88-244-57-345 20-66 94-175 161-236 58-53 195-128 213-117 22 14 10 37-26 53-99 41-222 162-278 273-38 74-31 202 18 314l21 49 33-99c19-54 43-144 55-199 11-55 24-108 29-117 16-29 55-22 82 15 37 49 113 193 142 271 32 84 30 121-4 121-22 0-28-9-51-75-33-92-107-240-120-240-6 0-10 8-10 18 0 62-90 326-117 340-22 13 56 106 130 155 87 59 54 81-39 27z"/><path d="m2293 31105c-134-37-253-113-253-164 0-36 36-56 131-71 42-7 83-16 90-21 36-22-91-162-189-207-61-28-92-24-112 13-9 17-21 25-34 23-65-9 11-108 83-108 123 0 350 214 312 296-12 28-42 41-121 55-107 18-104 18-86 38 23 25 137 77 216 97 36 10 98 17 138 17 39 0 72 4 72 8s-18 14-40 23c-49 19-136 20-207 1z"/><path d="m13824 31106c-8-22 1-31 51-46 96-29 208-129 250-223 56-123 54-249-7-408-27-73-41-93-99-151-71-70-76-98-9-54 101 66 177 187 206 326 36 175-29 368-160 473-92 73-219 118-232 83z"/><path d="m2645 31052c-58-20-135-88-135-120 0-31 33-28 55 4 9 14 40 36 68 50 58 27 137 33 137 11 0-25-59-95-115-138-82-62-74-89 28-89 106 0 177-37 177-91 0-39-51-94-107-115-54-21-153-23-207-5l-38 13 25 25c14 14 47 31 74 38 47 13 47 13 19 20-55 15-157-26-171-67-9-25 11-55 48-75 25-14 56-18 142-18 94 0 116 3 151 22 120 64 157 175 83 251-29 29-56 41-133 57l-29 6 30 32c51 55 75 97 76 134 2 69-68 91-178 55z"/><path d="m1867 31033c-67-80-118-136-183-203-74-75-88-105-57-117 12-5 36 14 85 65 37 40 68 67 68 61s-16-70-35-142c-20-72-34-136-31-144 3-7 14-13 25-13 22 0 19-6 95 265 21 73 49 151 66 178s30 55 30 63c0 23-39 16-63-13z"/><path d="m3298 31003c-51-63-167-172-225-211-62-42-77-67-48-78 19-7 74 26 147 88 31 26 58 48 60 48 3 0-6-33-19-72-28-85-50-217-40-242 4-10 15-16 24-14 13 2 20 17 25 53 8 66 51 209 94 318 35 87 40 127 17 134-7 3-22-8-35-24z"/><path d="m7474 30899c-3-6-7-38-8-72-4-111-68-214-128-205-18 2-28 16-46 60-12 32-25 79-28 105-10 87-12 93-39 93-23 0-25-4-25-46 0-55 24-154 51-205 56-110 169-85 230 51l16 35 12-60c6-33 14-69 16-81 3-13-3-28-17-40-77-69-78-268-1-371 30-41 68-53 89-27 13 16 14 44 9 167-3 81-8 167-11 191-6 41-5 44 28 64 19 12 52 25 74 30 24 5 39 14 39 22 0 23-36 23-99 2l-56-19-6 36c-10 59-56 265-61 274-6 11-31 9-39-4zm74-619v-75l-20 44c-25 55-29 152-8 201l15 35 6-65c4-36 7-99 7-140z"/><path d="m13780 30802c-19-9-40-28-46-40-7-15-14-20-18-13-27 43-68-31-68-120 0-98 42-149 123-149 38 0 56 6 91 33 129 99 137 250 15 296-39 15-56 14-97-7zm110-62c62-62-47-228-136-206-28 7-54 53-54 93 0 44 11 75 25 69 8-3 16 5 19 18 11 46 109 63 146 26z"/><path d="m13292 30776c-123-12-150-22-139-50 9-22 76-20 222 8 87 16 120 26 120 37 0 19-49 20-203 5z"/><path d="m16025 30705c-4-35-2-144 4-242 14-224 33-850 29-962l-3-84-38 56c-38 58-63 71-86 43-15-17-2-46 64-142 25-35 49-81 54-102 8-27 19-41 42-51 28-12 33-12 49 5 9 11 27 63 39 117 27 118 79 226 129 267 44 36 34 56-22 46-55-10-97-69-142-196l-23-65v220c-2 309-20 733-47 1083-5 61-8 72-24 72-15 0-20-11-25-65z"/><path d="m13385 30645c-103-19-208-46-223-58-11-8-10-13 1-25 17-16 26-14 255 40 193 46 168 80-33 43z"/><path d="m12960 30598c-10-17-22-57-26-87-6-54-16-71-41-71-21 0-55 59-61 108-6 42-10 47-32 47s-25-5-28-37c-4-47 32-132 65-154 14-9 41-16 60-16h35l-7-71c-8-80-32-150-47-141-6 4-8 26-4 56 8 54-3 58-29 9-27-53-21-133 11-145 26-10 67 17 91 59 25 45 43 141 43 228 0 43 6 69 24 100 48 84 46 147-5 147-22 0-34-8-49-32z"/><path d="m12267 30550c-37-29-79-108-126-239-67-181-138-313-230-421l-46-54-5 44c-4 40-8 45-30 45-25 0-25 0-25-100 0-95 1-100 22-103 26-4 122 40 163 75 34 28 39 62 11 70-17 4-14 14 34 86 71 110 110 189 162 332 48 129 85 205 114 231 14 13 16 21 8 35-12 24-20 24-52-1z"/><path d="m7030 30443c-59-79-130-220-130-259 0-35 23-52 45-34 7 6 26 41 41 78 67 160 64 176 64-289 0-361-2-418-15-423-8-3-15-12-15-21 0-8 7-15 15-15 13 0 15-221 15-1929 0-1616 2-1930 14-1940 10-8 611-11 2290-11h2276v-39c0-39 20-68 40-56 5 3 10 26 10 51v44h2004c1769 0 2005-2 2016-15 7-8 21-15 32-15 10 0 21 7 24 15 5 13 146 15 1183 15 1176 0 1176 0 1141-21-74-45-99-86-68-117 9-9 21-3 51 24 45 41 113 74 207 99 71 19 104 43 95 67-3 8-49 34-101 58-110 50-170 90-186 125-13 29-36 39-54 24-36-29 8-97 98-151l62-38h-1226-1225l-88 203c-139 321-242 536-369 772-66 121-182 337-259 480-372 694-555 952-954 1347-365 361-702 598-1119 787-334 151-622 231-959 267-236 25-214 18-208 65 5 36 3 43-28 69-52 44-80 40-128-21-22-27-38-56-35-64 4-9-11-15-56-20-49-6-65-4-79 9-25 23-62 21-68-4-4-15-14-20-42-20-33 0-37 3-37 23 1 19-4 22-34 22-43 0-57-32-18-43 20-5 17-7-17-14-22-4-55-7-74-7l-33-1 23 19c23 19 23 21 7 37-14 15-22 16-43 6-31-15-33-48-2-58 16-5-7-12-82-25-534-92-1059-331-1551-707-349-266-611-541-1122-1175-122-152-128-157-128-124 0 22 6 37 15 41 20 7 19 46-5 105-10 27-24 80-30 118-14 87-25 113-47 113-10 0-83-53-163-118-115-94-145-123-145-143 0-36 32-35 95 5 30 19 56 33 58 31 9-8-386-810-671-1363-72-140-168-337-205-422-8-18-11 597-11 2225v2250l39-80c60-121 117-165 100-78-10 47-114 280-137 305-27 30-48 21-93-39zm4600-970c1-10 9-34 20-53l19-35 1 53c0 61-16 57 177 42 455-38 830-146 1238-359 321-167 556-335 850-608 391-363 653-718 980-1333 54-102 151-282 215-400 212-388 331-636 527-1097 4-10-747-13-3735-13h-3741l2 62c2 52-1 63-15 66s-19-6-24-37l-6-39-112 4c-400 15-502 15-643 4-86-7-158-8-167-3-12 7 8 47 117 233 73 124 191 317 263 430s175 277 229 365c98 160 268 419 328 501 18 23 38 42 46 41 9-1 17 10 21 30 8 35 73 122 279 373 470 571 700 807 1032 1056 634 478 1292 717 2012 732 77 2 87 0 87-15zm-3464-1818c13-45 17-87 15-164l-3-103-62-87c-104-143-200-290-350-534-79-128-193-311-253-407-61-96-157-256-213-355-106-185-128-220-115-175 14 43 84 186 238 480 236 451 596 1179 688 1392 20 48 25 53 31 35 3-12 14-49 24-82z"/><path d="m11635 29143c4-27 10-103 14-170 7-118 13-145 29-129 9 10 9 283-1 319-5 18-14 27-28 27-20 0-21-4-14-47z"/><path d="m11654 28656c-8-21-1-213 9-222 16-16 21 12 22 118 0 80-3 112-12 115-7 3-16-2-19-11z"/><path d="m11656 28172c-3-5-8-65-12-135-5-90-4-127 4-127 6 0 14 15 17 33 12 71 23 199 18 217-6 21-18 26-27 12z"/><path d="m11646 27588c-9-36-7-144 4-172 16-42 28-30 27 27-1 28 2 78 6 110 8 53 7 57-11 57-12 0-22-9-26-22z"/><path d="m11654 27156c-8-21-1-333 9-342 17-18 22 18 22 178 0 128-3 172-12 175-7 3-16-2-19-11z"/><path d="m8185 27138c-3-7-6-96-8-197-1-129 1-185 9-188 6-2 14 9 17 24 12 60 30 322 23 347-7 27-33 36-41 14z"/><path d="m8471 26876c-8-10-7-24 3-54 8-23 25-88 37-144 31-146 55-207 85-214 55-14 76 16 126 189 21 72 43 136 48 141 14 14 12 52-2 64-29 23-54-4-78-85-51-176-72-235-80-227-4 5-22 71-40 146-31 129-58 198-79 198-5 0-14-6-20-14z"/><path d="m9297 26643c-4-3-7-63-7-132 0-217-26-411-55-413-15-1-45 64-39 85 8 26-13 21-32-8-21-32-12-83 21-119 47-51 103-21 131 70 28 93 45 464 24 505-11 19-31 25-43 12z"/><path d="m8157 26634c-12-12-8-282 4-289 6-4 13-4 16-1 4 3 7 70 7 148 1 132-5 164-27 142z"/><path d="m9032 26608c-20-20-14-31 54-101 69-70 118-94 169-81 30 7 34 34 5 34-35 0-73 25-140 94-35 36-67 66-70 66s-11-5-18-12z"/><path d="m11654 26576c-8-22-1-343 9-352 18-18 22 18 22 183 0 132-3 177-12 180-7 3-16-2-19-11z"/><path d="m8842 26550c-21-13-35-31-38-49-4-17-12-32-20-35-27-10-14-37 31-65 60-38 106-46 149-26 53 25 70 80 41 135-30 58-104 76-163 40zm96-46c32-22 30-72-3-80-27-7-95 20-95 37 0 15 47 59 62 59 8 0 24-7 36-16z"/><path d="m8162 26143c-9-24-9-209 1-219 4-4 9-5 11-3 7 7 35 223 30 231-9 14-34 8-42-9z"/><path d="m11654 26098c-9-14-9-237 0-265 4-13 11-23 16-23 14 0 20 44 20 166 0 98-3 123-15 127-8 4-17 1-21-5z"/><path d="m526 30411c-41-8-43-27-5-35 17-3 158-6 313-6 388-1 790-15 1218-45 595-40 813-48 1293-43 459 5 495 8 495 43 0 19-51 45-87 45-16 0-39-8-52-17-22-15-70-16-470-17-439 0-571 5-1126 44-154 11-363 24-465 30-197 11-1065 12-1114 1z"/><path d="m4416 30368c-11-41-6-356 11-738 14-309 17-633 18-1840 0-1286 3-1501 18-1763 10-165 17-300 15-302-5-4-972-86-1238-105-268-19-903-22-1144-6-391 27-995 20-1316-14-147-16-170-21-170-35 0-22 49-24 235-9 237 19 990 21 1245 2 330-23 986-11 1425 27 154 13 375 31 490 40 116 9 248 20 295 25 47 6 108 10 137 10h52l3-42c3-38 6-43 28-43s25 5 28 43c3 40 5 42 35 42 41 0 60 13 55 36-2 15-13 20-49 22l-46 3-6 117c-4 64-12 212-19 327-13 229-15 1417-3 2030 7 377-1 709-35 1575-23 583-26 620-45 620-7 0-15-10-19-22z"/><path d="m16690 30003c-28-10-72-58-95-104-47-91-69-233-45-280 15-27 65-25 95 5l23 23 4-91c4-91 4-91-33-146-94-141-134-272-134-440 0-75 5-120 18-157 21-59 65-103 104-103 35 0 80 51 98 113 25 85 37 284 27 457l-9 155 58 57c50 48 66 58 116 68 71 15 77 18 62 36-26 31-139 9-203-40l-34-26-7 66c-6 54-5 67 9 77 11 8 20 40 27 105 14 113 6 176-26 208-25 25-30 26-55 17zm24-79c3-9 6-36 6-60 0-38-3-44-20-44-13 0-24-10-31-27-17-46-53-114-62-120-14-8 3 95 24 152 22 59 55 115 68 115 5 0 12-7 15-16zm-27-819c-3-161-8-212-24-260-38-120-85-66-91 105-5 126 11 204 65 321 33 73 38 79 46 58 5-13 7-114 4-224z"/><path d="m3973 29838c-34-37-130-194-178-294-90-184-150-373-126-397 14-14 28-1 34 32 8 36 97 251 144 346 39 77 85 157 145 252 38 59 42 83 14 83-7 0-22-10-33-22z"/><path d="m1198 29803c-9-10-23-33-33-52-15-30-129-321-142-363-13-43-27-9-78 197-35 142-59 199-83 203-29 4-36-29-17-74 9-21 33-110 55-197 45-180 63-221 102-225 36-4 59 24 93 111 100 258 127 323 141 333 8 7 18 28 21 48 5 33 4 36-19 36-14 0-32-8-40-17z"/><path d="m3679 29788c-79-87-101-106-151-131-57-29-106-35-113-14-3 7 4 30 15 51 15 30 17 43 9 53-16 19-27 16-54-12-14-14-25-36-25-51 0-78-257-223-307-173-15 15-43 4-43-15 0-59 112-62 204-5 32 18 78 52 104 75 44 39 48 40 70 26 32-21 94-10 154 27 27 17 51 31 53 31s1-18-2-40c-4-27 0-47 11-65 21-32 40-33 32-1s27 129 70 194c51 78 31 113-27 50z"/><path d="m6434 29735c-36-54-152-602-145-682 1-7 11-13 24-13 18 0 28 11 46 48 31 64 163 261 195 291l26 24v-110c0-61 3-125 6-142 8-36 43-65 68-55 19 7 21 31 4 36-10 4-14 48-16 165-3 140-6 163-21 177-14 12-24 14-42 7-27-10-94-84-158-175-48-70-51-61-21 77 52 233 72 307 85 307 23 0 24 27 1 49-28 27-32 26-52-4z"/><path d="m2271 29701c-96-34-90-75 7-47 69 19 146 21 160 4 26-33-55-114-195-198-138-82-155-97-151-133 3-26 9-32 38-40 75-20 369 40 384 78 9 24-17 28-74 11-52-16-258-42-266-34-2 3 45 37 104 75 137 90 212 168 212 222 0 55-26 74-103 78-42 2-79-3-116-16z"/><path d="m2847 29700c-27-5-73-20-102-35-109-53-106-106 10-145 74-25 90-50 60-96-37-57-155-80-170-33-10 29-45 25-45-6 0-93 171-88 244 7 63 84 30 154-86 183-16 4-28 11-28 17 0 18 91 49 177 60 116 14 120 15 102 32-19 18-102 26-162 16z"/><path d="m9355 29586c-27-19-13-46 25-46 34 0 49 22 30 45-15 19-31 19-55 1z"/><path d="m9490 29586c-18-22 5-48 39-44 20 2 26 9 26 28s-6 26-26 28c-14 2-31-4-39-12z"/><path d="m9634 29585c-12-29 4-46 38-43 57 5 48 57-10 58-12 0-25-7-28-15z"/><path d="m9784 29585c-10-24 4-45 29-45 32 0 49 18 36 42-12 22-57 24-65 3z"/><path d="m9930 29585c-7-8-10-22-6-31 9-23 70-15 74 10 7 33-45 49-68 21z"/><path d="m10074 29585c-10-26 4-45 35-45 32 0 48 24 30 46-15 19-58 18-65-1z"/><path d="m10221 29586c-6-7-8-21-5-30 9-24 68-18 72 8 7 32-44 49-67 22z"/><path d="m9196 29564c-10-26 17-48 49-40 20 5 26 12 23 29-4 29-62 38-72 11z"/><path d="m10363 29564c-6-17 20-44 43-44 18 0 37 28 30 45-8 21-65 20-73-1z"/><path d="m10510 29566c-18-22 5-48 39-44 20 2 26 9 26 28s-6 26-26 28c-14 2-31-4-39-12z"/><path d="m10657 29574c-27-27 12-62 54-49 33 11 21 49-16 53-17 2-34 0-38-4z"/><path d="m10804 29565c-10-25 4-45 29-45 14 0 30 7 37 15 17 20-3 45-37 45-13 0-26-7-29-15z"/><path d="m10950 29566c-18-22 5-48 39-44 20 2 26 9 26 28s-6 26-26 28c-14 2-31-4-39-12z"/><path d="m1747 29555c-109-12-131-22-119-53 6-17 116-12 317 16 249 35 70 68-198 37z"/><path d="m9054 29555c-10-25 4-45 29-45 30 0 50 22 41 44-8 21-62 22-70 1z"/><path d="m7452 29547c-17-20 8-50 39-45 18 2 24 9 24 28s-6 26-26 28c-14 2-31-3-37-11z"/><path d="m7594 29545c-4-9 0-24 9-33 13-13 21-13 42-4 37 17 29 46-13 50-23 2-34-2-38-13z"/><path d="m7740 29536c0-15 7-27 19-31 28-9 51 5 51 31 0 21-5 24-35 24s-35-3-35-24z"/><path d="m7883 29544c-6-15 19-44 37-44 3 0 15 6 25 14 27 19 13 46-25 46-19 0-33-6-37-16z"/><path d="m8037 29553c-14-13-6-42 13-48 26-8 63 12 56 32-3 8-6 17-6 19 0 7-56 5-63-3z"/><path d="m8176 29544c-10-26 17-48 49-40 20 5 26 12 23 29-4 29-62 38-72 11z"/><path d="m8324 29545c-8-19 13-45 36-45s44 26 36 45c-3 9-18 15-36 15s-33-6-36-15z"/><path d="m8472 29547c-19-23 9-52 42-43 21 5 27 12 24 29-4 26-48 36-66 14z"/><path d="m8614 29545c-8-19 13-45 36-45s44 26 36 45c-3 9-18 15-36 15s-33-6-36-15z"/><path d="m8767 29553c-17-16-6-43 20-49 29-8 56 17 46 42-5 14-54 20-66 7z"/><path d="m8903 29544c-6-17 20-44 43-44 18 0 37 28 30 45-8 21-65 20-73-1z"/><path d="m7304 29535c-9-22 4-35 36-35 28 0 41 14 33 38-6 17-62 15-69-3z"/><path d="m7164 29525c-9-22 9-37 37-33 16 2 24 10 24 23 0 26-52 35-61 10z"/><path d="m3953 29500c-81-49-120-183-72-244 31-39 77-56 154-56 70 0 126 18 162 52 47 44 20 63-39 29-47-27-95-34-153-21-61 14-85 34-85 73 0 40 35 100 72 121 24 15 34 16 58 6 33-14 50-7 50 19 0 40-94 54-147 21z"/><path d="m1307 29460c-25-16-52-38-59-50-7-11-20-20-29-20-33 0-38-73-9-130 35-69 109-89 171-47 63 42 108 137 95 201-16 78-87 98-169 46zm115-45c24-52-34-155-96-171-33-8-71 24-81 67-8 32 29 80 84 109 51 27 79 25 93-5z"/><path d="m1910 29435c-179-34-245-56-245-80 0-12 8-21 20-23 18-2 363 92 373 102 5 6-7 26-16 25-4 0-63-11-132-24z"/><path d="m1156 28638c-22-35-40-79-112-273-37-99-82-212-100-252-27-59-30-74-20-89 11-14 18-15 47-6 19 6 128 23 242 38 243 31 246 33 224 119-10 43-15 50-37 50s-25-5-28-42c-2-24-7-43-11-43-5 0-76-9-157-20-215-29-198-33-167 48 14 37 52 142 84 235 32 92 66 181 75 198 27 52-9 85-40 37z"/><path d="m7694 28605c-7-17 2-45 83-260 98-261 124-267 178-37 35 147 55 205 77 220 32 23 16 92-22 92-34 0-59-59-109-257l-26-103-62 163c-34 89-64 170-67 180-7 21-44 23-52 2z"/><path d="m2476 28582c-61-18-84-38-73-66 8-20 35-21 73-2 16 8 49 18 74 21l45 7-25-21c-14-12-69-44-123-72-83-43-98-54-95-72 3-21 9-22 124-27 124-5 159-16 147-47-18-45-247-139-278-113-21 17-90-17-90-45 0-17 8-21 45-23 97-7 275 56 345 123 31 29 36 39 33 71-4 46-34 71-108 87l-53 12 62 39c41 25 68 50 78 72 15 31 15 35-2 54-23 25-94 26-179 2z"/><path d="m2964 28526c-39-17-63-52-100-146-22-57-29-91-29-143 0-63 2-71 28-93 34-29 69-31 111-4 65 39 142 165 153 249 13 98-78 175-163 137zm86-66c28-28 25-74-8-145-29-60-99-135-127-135-30 0-33 112-4 147 8 8 15 34 16 57 2 31 10 48 33 69 36 32 63 34 90 7z"/><path d="m3522 28447c-64-113-222-287-260-287-15 0-23 13-33 53-11 41-19 52-34 52-17 0-21-8-23-45-4-64 29-114 79-118 48-4 102 38 193 148l69 85-7-43c-21-132 59-173 158-82l44 40-5-42c-4-34 0-49 18-72 21-27 26-28 80-23 70 6 160 51 214 107 45 46 41 61-7 32-33-20-156-64-212-77-29-6-29-6-23 44 3 28 18 79 33 113 34 81 36 113 8 113-14 0-42-26-85-80-35-43-84-95-109-113l-45-35-3 54c-1 30 4 88 12 129 14 76 10 100-19 100-7 0-27-24-43-53z"/><path d="m1740 28435c-10-12-10-18 1-31 12-15 32-16 169-10 144 7 185 15 166 33-9 9-142 21-247 22-57 1-80-3-89-14z"/><path d="m8120 28394c-17-15-40-45-52-68-11-22-27-45-34-49-10-6-14-30-14-84 0-76 0-76 42-115 31-29 50-38 76-38 119 0 197 314 93 370-34 18-78 11-111-16zm98-54c19-36 8-114-25-179-38-75-57-85-88-46-14 16-27 42-30 57-12 54 76 203 114 196 9-2 21-14 29-28z"/><path d="m1965 28323c-11-2-74-16-140-30-119-25-154-41-141-62 11-18 62-11 216 28 113 28 146 40 148 54 3 13-3 17-30 16-18-1-42-3-53-6z"/><path d="m3295 27550c-446-3-815-9-820-12-6-3-154-8-330-12-683-13-824-17-935-27-232-20-450-71-450-105 0-17-11-18 106 6 184 38 333 50 754 60 228 5 548 15 710 21s561 13 885 15c779 5 923 9 963 24 17 6 32 15 32 20 0 11-39 20-75 18-16-1-395-4-840-8z"/><path d="m2665 27201c-76-22-120-45-139-73-37-53-2-80 42-33 54 56 253 96 307 61 31-21 31-39 0-94-40-71-110-146-213-229-150-121-182-156-182-201 0-30 7-45 33-69 47-44 78-63 104-63 36 0 27 21-28 69-36 31-49 49-47 64 2 13 43 55 98 101 240 202 330 326 306 421-4 14-21 34-39 45-41 26-157 26-242 1z"/><path d="m1013 26905c-78-34-243-163-243-191 0-30 24-22 84 28 79 65 161 116 202 124 24 5 36 1 51-16 21-21 21-21-5-73-35-73-122-341-122-376 0-18 9-39 23-51 28-27 80-23 151 10 52 25 146 112 146 135 0 22-13 18-39-9-25-26-137-80-190-91l-34-7 7 43c6 39 102 338 112 348 2 2 12-3 22-12 34-31 105-42 182-29 100 17 174 45 178 66 3 16-1 18-30 13-99-18-212-28-244-23-25 5-51 24-93 67-63 65-92 73-158 44z"/><path d="m1985 26669c-38-5-114-11-167-15-96-6-116-15-98-43 9-15 160-16 237-2 113 22 143 33 143 52 0 21-3 21-115 8z"/><path d="m2607 26219c-23-13-22-56 1-68s42 3 42 35c0 29-20 45-43 33z"/><path d="m18777 25912c-19-15-52-51-73-79-21-29-42-53-46-53-5 0-23 29-40 65-34 69-53 84-76 61-12-12-11-21 12-71 14-31 35-69 47-86l21-30-32-74c-46-102-24-148 28-59 12 21 27 46 31 54 8 12 19 5 60-33 39-37 57-47 84-47 34 0 64 20 50 33-3 4-15 7-25 7-21 0-88 58-107 94-13 23-10 29 32 88 24 35 57 74 71 87 53 50 20 87-37 43z"/><path d="m11505 25510c-3-5-9-150-12-322-6-316-3-358 29-358 7 0 21 9 33 20 40 37 194 50 340 29 54-8 79-9 87-1 13 13 11 141-3 199-11 43-27 57-55 46-13-5-15-16-9-67 3-33 8-72 11-86l5-25-149 3c-82 2-165-1-185-6l-37-10v226c0 209-5 318-15 350-5 14-31 16-40 2z"/><path d="m7287 25423c-12-11-8-48 19-185 34-175 68-279 105-314 26-25 30-26 58-14 39 16 64 69 125 260 45 143 69 195 86 185 15-9 20 12 6 30-20 27-57 12-88-36-15-23-46-100-69-173-50-158-77-215-90-195-20 31-58 171-80 294-12 72-27 136-32 143-10 13-30 16-40 5z"/><path d="m7777 25063c-17-16-3-43 53-98 32-32 57-62 54-67-10-16-53-232-48-240 11-17 22 4 54 105l34 105 49-34c42-29 97-45 97-29 0 3-29 33-64 65l-64 60 18 58c16 50 17 59 4 72-14 13-17 13-29-4-8-11-18-35-21-54l-7-34-51 51c-50 50-66 58-79 44z"/><path d="m7617 24973c-16-15-5-84 20-133 43-82 92-107 152-75 28 14 61 68 61 99 0 66-92 118-168 96-23-6-32-5-36 6-6 15-18 18-29 7zm154-73c29-16 25-65-6-86-25-16-27-16-51 7-29 26-47 66-38 80 7 12 71 11 95-1z"/><path d="m3410 23913c-54-61-113-200-175-408-15-49-31-94-36-99-39-42-130 215-133 379-2 66-5 80-18 83-25 5-41-67-33-142 16-145 68-294 125-359 65-75 102-41 160 144 72 231 140 379 165 359 21-17 40 15 29 48-14 41-45 39-84-5z"/><path d="m1018 23888c-70-75-91-158-144-573-48-377-85-623-110-723-18-70-14-92 15-92 12 0 23 11 30 30 13 39 34 38 66-4 88-115 105-307 97-1051-4-335 4-398 61-488 77-120 164-130 238-26 15 22 18 34 11 41-8 8-24 0-56-30-25-23-52-42-59-42-27 0-64 39-95 102-46 92-51 168-45 673 4 363 3 460-10 555-29 219-81 321-185 366-2 1 6 55 17 120 29 175 58 381 86 624 37 321 57 405 112 470 28 34 48 37 74 14 18-16 49-13 49 4 0 5-9 21-21 36-31 39-91 37-131-6z"/><path d="m1784 23799c-37-10-101-77-110-114-4-15-17-30-30-35-30-12-54-91-54-179 0-173 154-305 267-228 45 30 98 139 119 247 19 98 9 187-29 245-36 56-101 81-163 64zm85-64c77-39 80-237 5-386-28-57-48-73-88-73-77 0-147 101-145 208 1 34 5 72 9 86 7 23 8 22 9-10 3-85 28-110 28-27 1 66 38 153 82 190 37 31 60 33 100 12z"/><path d="m5621 23719c-143-13-225-60-244-140-4-17-2-31 6-37 16-13 28-5 47 32 21 41 91 74 174 82l69 7-6-29c-44-205-25-372 47-419 59-39 166-23 230 33 34 31 71 132 48 132-4 0-13-13-19-30-13-35-89-86-142-95-52-9-89 8-106 50-18 42-19 213-2 295l12 55 140 6c132 5 235 22 235 39 0 4-80 11-177 14-98 4-187 9-198 11-11 1-62-1-114-6z"/><path d="m5185 23622c-63-29-120-115-131-196-12-86 20-136 87-136 35 0 47 7 89 50l50 49v-38c0-33-5-42-37-64-114-79-211-222-220-326-12-132 72-241 185-241 80 0 134 64 153 181 11 62 7 252-7 350-6 47-6 47 37 72 24 14 65 32 92 38 26 7 47 17 47 22 0 11-92-1-144-19-21-8-40-13-41-12-1 2-7 54-13 117-9 98-14 117-34 137-33 32-66 37-113 16zm73-95c6-69-67-177-119-177-16 0-19 7-19 45 0 55 27 113 71 149 43 36 63 31 67-17zm44-487c1-128-1-151-20-193-37-82-116-85-169-6-58 88-23 206 101 337l71 74 7-33c5-19 9-99 10-179z"/><path d="m2523 23619c-28-5-100-12-160-16-99-7-108-10-108-28 0-19 6-20 95-18 113 2 233 30 238 56 2 9 0 16-5 16-4-1-31-5-60-10z"/><path d="m4393 23509c-38-39-3-56 128-65 156-10 331 18 301 48-4 4-86 10-182 12s-188 7-205 11c-19 4-35 2-42-6z"/><path d="m3817 23504c-17-18-6-108 19-154 38-71 76-95 148-95h58l-4-115c-5-123-19-171-59-209-27-25-89-44-113-35-15 6-15 9 5 30 28 30 18 46-22 32-70-24-71-86-2-114 61-26 156 10 197 74 36 55 45 101 50 272 2 85 10 171 15 191 13 41 1 89-21 89-32-1-42-20-46-90-5-83-20-99-76-80-58 19-95 73-105 154-6 48-24 69-44 50z"/><path d="m3582 23460c-18-11-41-34-51-52-11-18-25-38-30-45-15-17-14-28 9-72 55-110 167-106 227 8 34 64 31 105-11 147-41 41-92 46-144 14zm108-48c19-15 22-24 16-55-8-43-56-97-85-97-28 0-71 43-71 70 0 43 57 99 101 100 9 0 27-8 39-18z"/><path d="m2495 23463c-117-15-167-26-172-40-13-32 13-35 138-14 68 12 142 22 164 23 28 2 40 8 40 18 0 12-15 15-70 16-38 1-83 0-100-3z"/><path d="m3558 22375c-5-5-8-16-8-25s-19-53-43-97c-61-112-152-315-242-538-97-240-156-362-200-411l-34-39v210c0 246-9 305-55 351-38 38-89 54-177 54-75 0-112-17-91-43 9-11 38-16 106-19 152-5 158-17 161-335 2-122 6-231 10-243 9-29 44-41 75-25 58 30 123 149 245 445 156 378 247 570 286 600 11 9 21 26 22 39 1 24 1 24 142 17 77-3 253-8 390-12 303-6 918-31 1110-44 77-5 228-10 335-10 200 0 340-18 340-45 0-30-32-114-50-130-11-10-20-22-20-27 0-19 33-5 68 30 41 41 66 107 60 157-3 27-7 29-103 52-87 20-127 23-310 23-115 0-273 4-350 9s-203 12-280 15c-77 4-183 9-235 12-52 2-277 9-500 14s-459 12-525 16-123 3-127-1z"/><path d="m1679 22188c0-7 0-80 1-163 1-180-11-251-78-453-27-81-47-152-45-159 6-16 33-25 47-15 6 5 38 12 71 15 51 5 318 83 407 118 32 13 41 31 24 54-11 16-26 13-187-38-145-46-279-81-279-73 0 1 13 41 29 89 63 186 75 251 75 407 0 163-13 230-44 230-11 0-20-6-21-12z"/><path d="m5613 22004c-7-19 5-31 37-36 46-6 36-39-34-117-37-39-66-77-66-85 0-31 28-38 122-34 100 5 228 42 236 67 4 11-2 12-24 7-16-3-78-9-139-13l-110-6 38 43c53 58 71 101 55 135-21 46-102 73-115 39z"/><path d="m5314 21981c-57-35-137-149-203-291l-39-85-7 38c-6 33-5 87 7 232 3 24-1 30-17 30-31 0-49-64-49-175 0-101 13-157 44-185 33-30 57-11 101 83 89 187 187 324 215 301 30-25 48 26 18 55-20 21-32 20-70-3z"/><path d="m7017 21919c-60-24-212-49-295-49-35 0-110 9-165 21-66 14-123 19-162 16-72-5-128-30-123-55 4-19 29-20 98-2 38 9 60 8 150-11 131-28 294-31 390-5 89 23 190 71 190 90 0 20-23 19-83-5z"/><path d="m4060 21893c-42-18-26-56 21-46 15 3 45 2 66-2l38-7-27-21c-15-12-47-37-72-55-51-36-61-73-27-92 39-20 274-5 324 22 38 20 1 26-136 21l-142-6 65 49c36 27 66 58 68 70 5 36-39 65-105 70-32 2-65 1-73-3z"/><path d="m3587 21863c-3-5-8-95-12-201-8-205-5-222 39-222 26 0 61 35 143 145 88 117 151 189 174 197 26 10 23 61-3 66-27 5-109-78-210-214-51-68-94-122-95-120-2 2 1 70 7 151 12 164 8 205-20 205-10 0-21-3-23-7z"/><path d="m2341 21816c-6-7-9-21-5-30 5-14 27-16 161-16 119 0 154 3 151 13-3 6-25 20-49 29-57 22-241 25-258 4z"/><path d="m6518 21773c-24-28-58-129-64-192-6-51-4-60 19-87 21-24 32-29 69-28 76 2 186 75 227 153 20 37-8 34-47-6-47-48-140-96-179-91-27 3-28 4-27 65 1 45 8 76 28 118 28 56 29 85 3 85-8 0-21-8-29-17z"/><path d="m4865 21689c-48-14-240-39-303-39-71 0-104-18-82-45 27-33 202-8 368 51 39 14 72 30 72 35 0 11-15 10-55-2z"/><path d="m2590 21679c-168-12-244-39-208-75 12-12 23-13 69-4 56 12 241 61 248 67 17 13-28 18-109 12z"/><path d="m3897 21540c-38-11-57-29-57-51 0-27 21-35 37-13 11 15 26 19 72 19 64 0 91-15 91-50 0-54-77-79-141-46-46 24-74 16-49-14 27-32 71-47 124-42 41 4 55 10 83 41 60 65 36 136-54 157-46 10-69 10-106-1z"/><path d="m5445 21510c-15-48 23-193 55-210 26-14 73-12 89 3 11 10 12 3 6-36-12-86-67-207-94-207-15 0-32 66-25 94 4 16 2 26-5 26-35 0-44-127-11-160 29-29 51-25 92 18 69 71 99 172 102 332 1 95-1 105-17 105-13 0-23-15-36-53-21-62-43-87-65-79-22 9-33 40-41 120-6 55-10 67-25 67-10 0-21-9-25-20z"/><path d="m5219 21431c-14-5-35-14-47-20-14-8-22-8-22-1 0 5-9 10-20 10-17 0-20-7-22-42-3-71 1-97 22-138 41-81 163-104 250-47 53 36 75 72 75 125 0 36-5 48-32 72-49 44-135 61-204 41zm136-55c62-26 71-72 22-121-40-40-92-53-148-36-48 14-69 45-72 102-2 42-1 43 38 55 55 17 119 17 160 0z"/><path d="m6945 20658c-3-8 14-57 39-109 61-130 85-208 98-321 14-118 1-259-38-410-30-115-47-154-98-221-48-63-29-59 31 6 90 99 145 248 163 440 17 196-16 359-108 532-46 86-75 114-87 83z"/><path d="m3794 20581c-75-55-144-146-193-254-98-216-75-511 54-686 46-62 140-141 168-141 31 0 18 25-33 64-56 43-111 112-140 179-49 112-66 312-36 439 36 154 133 313 229 374 20 13 37 31 37 39 0 24-44 17-86-14z"/><path d="m6693 20495c-7-20-9-19 68-57 38-20 65-40 67-52 5-24-64-95-86-89-10 2-37-3-62-12s-80-19-124-22c-70-5-83-4-121 17-51 28-76 23-133-26-56-47-69-72-49-92 14-13 18-12 41 13 14 15 40 38 57 51 30 22 33 22 54 6l22-16-31-45c-43-64-76-162-76-227 0-48 4-60 29-85 26-25 37-29 86-29 64 0 106 15 153 54 31 27 43 56 22 56-5 0-25-11-45-24-64-44-162-46-189-4-20 32 14 145 76 253 23 40 24 40 90 42 36 1 89 11 117 22 48 18 51 18 51 2 0-35 38-55 111-59 152-9 227 29 84 43-41 4-87 10-101 14l-27 7 31 26c39 33 82 95 82 119 0 29-51 80-105 105-58 28-83 30-92 9z"/><path d="m2133 20474c-9-25 16-34 96-34h74l-39-26c-50-33-64-52-64-86 0-19 8-33 26-45 51-33 228-56 263-34 30 19 3 35-81 47-47 7-100 19-119 27l-34 13 67 43c37 23 70 52 74 63 12 38-18 48-143 48-95 0-115-3-120-16z"/><path d="m4390 20463c-27-11-39-24-33-39 4-10 23-14 72-14 69 0 136-14 146-30 3-5-20-26-52-47-82-52-103-73-103-100 0-18 9-28 38-40 32-13 53-14 148-6 62 6 117 14 123 17 21 13 0 26-43 26-24 0-77 3-120 6l-76 7 52 34c77 51 88 63 88 98 0 36-19 57-68 73-42 14-152 24-172 15z"/><path d="m7985 20409c-12-6-27-20-34-31-11-17-10-23 2-35 13-14 18-14 38 1 13 9 40 16 60 16 39 0 99-18 99-29 0-4-25-23-55-42-152-94-175-111-182-136-5-21-1-31 18-46 22-17 35-19 134-14 111 5 228 32 222 50-2 6-55 9-140 8-75-1-137 0-137 2 0 3 41 31 90 62 104 66 125 94 105 141-9 21-25 36-54 47-45 19-134 21-166 6z"/><path d="m4162 20333c-54-26-134-124-220-270-45-76-82-134-82-129 0 14-50 299-59 340-12 48-26 65-43 48-9-9-6-52 16-189 34-221 42-250 66-263 30-16 56 3 100 73 126 200 171 264 222 313 31 30 64 54 72 54 21 0 21 26 0 34-23 9-36 7-72-11z"/><path d="m7509 20324c-48-14-119-80-119-109 0-32 29-26 69 14 41 41 91 59 131 46 24-8 24-10-14-101-33-78-51-194-42-259 11-67 58-115 113-115 45 1 78 22 69 46-3 9-12 14-19 11-6-3-19-8-28-12-10-4-27 3-44 18-23 19-29 34-32 78-5 60 16 164 48 240l21 49 67-5c37-3 92 0 126 7 49 11 61 17 63 34 3 21 0 22-115 20-110-1-122 1-173 26-63 32-60 31-121 12z"/><path d="m1796 20305c-9-9-16-23-16-32 0-8-31-111-69-227-84-257-85-260-66-276 12-10 42-8 147 9 73 11 182 26 241 32 146 16 159 41 29 55-44 4-109 0-210-14-80-12-147-20-148-19s21 72 51 157c29 86 61 188 71 228 17 65 17 73 3 88-15 14-18 14-33-1z"/><path d="m5863 20283c-35-5-59-26-48-44 5-7 26-10 58-6 54 5 87 0 87-14 0-4-27-27-60-51-66-46-83-79-56-106 14-14 36-17 119-16 56 0 115 3 130 7 48 13 26 32-39 34-32 2-78 5-102 9l-43 5 46 41c54 47 67 74 52 105-10 22-64 45-97 41-8-1-29-3-47-5z"/><path d="m5572 20160c-45-10-100-65-112-111-25-92 56-146 155-105l35 15v-33c0-24-9-41-36-67-178-171-242-360-174-516 20-45 44-63 85-63 82 0 153 195 173 477 7 95 13 127 27 142 18 21 14 57-6 45-9-5-10 2-6 26 4 18 7 41 7 50 0 13 6 17 19 13 31-8 34 16 7 57-39 60-106 86-174 70zm89-60c26-14 24-23-12-65-37-42-100-65-124-45s-18 49 19 86c36 36 78 44 117 24zm-36-487c-24-155-72-283-106-283-19 0-49 84-49 137 0 96 38 183 134 308l31 39 3-48c2-27-4-96-13-153z"/><path d="m2861 20072c-8-6-11-17-7-28 6-16 22-17 206-11 201 6 251 13 195 29-46 13-378 21-394 10z"/><path d="m5209 19995c-3-3-77-10-165-16-155-10-178-16-167-46 14-36 378 9 378 48 0 14-36 25-46 14z"/><path d="m3167 19934c-3-3-73-9-156-13-82-4-153-10-157-13-3-4-4-14-1-23 8-20 117-20 250 1 111 18 147 28 147 44 0 10-72 14-83 4z"/><path d="m4191 19917c-28-14-49-43-38-53 3-4 20-1 37 6 36 15 106 8 127-12 18-19 7-45-28-63-51-27-88-17-147 38-25 24-35 28-44 19-15-15 14-57 62-89 64-44 171-22 206 42 15 28 15 37 5 63-22 53-120 80-180 49z"/><path d="m4333 19275c-40-17-58-48-38-65 10-9 19-8 37 3 13 8 36 18 51 21 25 6 27 5 18-13-6-10-29-35-51-54-79-67-42-106 87-91 62 7 79 13 81 27 3 12-3 17-21 17-13 0-38 3-55 6l-31 6 26 35c30 39 33 91 7 110-23 17-70 16-111-2z"/><path d="m4996 19265c-25-25-9-48 30-42 64 11 143-29 129-65-3-8-26-27-50-42-54-35-63-55-35-78 24-19 86-23 169-10 53 8 64 28 22 36-103 20-95 15-72 40 11 12 23 36 27 53 5 24 0 37-25 65-46 53-160 78-195 43z"/><path d="m6585 19260c-8-26 1-40 28-40 28 0 99-48 94-63-2-7-27-25-55-40-40-22-52-34-52-52 0-35 28-45 122-44 100 0 160 10 165 26 4 12-11 16-110 28l-47 6 20 26c24 31 25 71 2 100-51 63-153 96-167 53z"/><path d="m2673 19208c-6-7-13-29-17-49-3-19-20-57-36-83-48-76-42-86 52-78l57 5-1-70c-2-67 4-93 21-93 11 0 38 75 46 127 4 23 13 47 21 54 16 13 19 39 5 39s-2 36 20 59c28 29 25 61-5 61-29 0-72-47-81-90-5-25-11-30-36-30-16 0-29 1-29 3s7 24 16 50c8 25 14 58 12 74-3 30-28 42-45 21z"/><path d="m4082 19146c-40-44-107-165-152-279-12-32-25-56-27-53-3 3-8 69-12 148-6 143-6 143-31 143h-25l2-170c1-185 8-221 41-243 20-13 23-12 42 9 12 13 48 85 79 160 64 148 113 234 156 267 33 26 30 56-6 60-19 2-35-8-67-42z"/><path d="m6281 19108c-5-13-16-57-26-98s-40-145-66-230c-53-166-58-197-33-207 8-3 55 6 102 20 48 15 115 33 149 40 84 19 134 53 104 71-14 9-160-12-230-33-58-18-63-18-58-3 3 9 28 92 56 185 60 196 68 241 51 262-18 22-39 18-49-7z"/><path d="m1710 19105c-19-23-4-48 25-41 41 10 31-23-26-87-35-40-49-64-47-79 3-22 7-23 83-23 103 1 175 12 175 29 0 14-62 26-131 26h-38l35 51c39 58 43 90 14 119-24 24-72 26-90 5z"/><path d="m4696 19039c-30-24-66-88-66-119 0-34 33-23 58 20 12 22 34 47 48 57 24 16 28 15 60-2l34-18-24-26c-34-37-82-136-101-212-22-82-15-146 16-172 52-42 177 3 222 81 17 29 17 32 2 38-10 4-26-3-43-19-57-52-136-74-149-41-12 32 17 140 61 228 34 68 43 93 35 103-9 10-3 12 32 7 32-4 54 0 78 13 59 31 51 43-26 43-50 0-76 5-101 20-43 26-102 26-136-1z"/><path d="m2124 18976c-24-26-44-55-44-66 0-37 23-32 62 14 41 48 69 57 109 35 14-7 17-14 11-22-13-15-47-134-62-214-23-116 19-170 127-161 62 5 136 50 141 86 4 25-5 28-27 8-42-35-158-49-181-21-16 19-2 108 34 220 21 68 23 70 51 65 59-10 140-3 173 14 19 10 31 20 28 24-4 3-44 7-89 8-57 2-102 9-142 25-33 12-79 24-103 27-41 4-46 1-88-42z"/><path d="m5652 18958c-6-6-19-42-29-80l-17-68h-72c-75 0-100-12-88-44 5-13 21-16 78-16 73 0 73 0 69-27-5-39 10-116 23-120s34 69 34 116c0 18 5 31 13 32 60 3 179 17 184 22 3 4-2 16-12 27-15 17-31 20-92 20-40 0-73 3-73 7s7 33 17 66c14 50 14 60 2 68-18 11-23 11-37-3z"/><path d="m7209 18945c-112-13-129-18-129-40 0-30 35-35 136-19 137 20 199 37 199 55 0 19-69 20-206 4z"/><path d="m7715 18938c-16-6-45-21-64-34-18-12-40-20-47-17-36 14-94-63-94-125 0-41 40-87 95-108 67-25 192-16 267 20 62 29 114 83 123 128 10 45-22 99-75 126-49 24-150 29-205 10zm165-64c78-31 62-92-37-140-48-24-71-29-134-29-87 0-132 22-136 66-1 15 0 17 3 7 8-28 22-21 43 21 38 74 169 112 261 75z"/><path d="m1385 18884c-53-57-38-144 26-144 16 0 43 7 59 15l30 16v-52c0-49-3-55-54-109-29-31-66-79-80-108-47-93-51-243-8-302 26-34 76-39 108-9 46 43 83 206 84 367v82l50 28c27 15 50 33 50 40 0 17-35 15-72-4l-31-16 6 101c4 79 2 103-9 112-10 8-18 8-27 1-8-7-18-7-27-2-30 19-80 11-105-16zm86-40c11-14 10-19-10-35-30-24-51-24-51 0 0 20 24 51 39 51 5 0 15-7 22-16zm20-370c-11-121-32-200-60-235l-18-23-14 25c-9 15-14 53-13 99 0 61 5 85 27 129 26 50 78 121 85 115 2-1-1-51-7-110z"/><path d="m7230 18809c-134-11-174-21-178-43-7-36 1-36 356 10 33 4 42 9 40 22-4 21-72 24-218 11z"/><path d="m3171 18796c-11-13-11-20 2-40s29-26 99-35c46-7 137-11 202-9 100 3 121 6 130 20 20 33-6 40-161 45-134 4-176 9-239 28-13 4-25 1-33-9z"/><path d="m4124 18781c-38-23-57-71-44-106 5-14 14-25 20-25s23-9 39-21c42-31 89-23 119 21 62 93-37 190-134 131zm94-43c17-17 15-54-4-72-20-21-31-20-51 4-10 11-23 20-30 20-19 0-16 17 9 40 24 22 58 26 76 8z"/><path d="m9505 18409c-110-13-416-29-554-29-110 0-643-29-831-45-36-3-294-19-575-35-515-31-903-59-1183-85-115-11-158-12-171-3-14 9-23 7-42-5-13-10-31-17-41-17-21 0-33-19-20-32 7-7-9-40-48-102-31-50-126-208-210-351-190-323-204-344-208-321-2 9 3 59 12 110 21 126 20 211-3 263-27 59-66 77-168 78-89 0-117-12-93-40 9-11 32-15 90-15 136 0 156-40 125-254-26-182-15-228 48-212 32 8 68 59 212 306 212 365 305 509 322 503 9-4 21 0 27 8 8 12 66 19 241 33 409 30 615 45 885 61 146 8 375 22 510 30 771 47 932 55 1167 61 142 3 330 12 417 20 88 7 162 12 164 10s3-26 3-52c0-50-20-121-47-161-26-41 10-28 51 18 53 59 65 95 62 186l-2 78-35 1c-19 1-66-2-105-7z"/><path d="m8814 18125c-10-24 3-32 63-38 54-6 102-29 111-55 2-6-19-36-47-65-84-89-64-122 74-119 129 2 305 44 305 73 0 8-15 10-52 5-29-3-107-9-172-12l-119-7 30 39c42 53 47 77 28 118-23 47-83 76-158 76-41 0-59-4-63-15z"/><path d="m6631 18063c-6-21-11-45-11-53s-10-54-22-102c-20-83-20-90-5-105 15-16 20-16 70 0 30 9 56 17 59 17s3-34 0-75c-3-54-1-75 7-75 16 0 40 60 48 118 3 26 14 61 24 78 11 18 17 39 13 47-3 9 0 25 6 37 9 16 9 25 0 35-19 22-37 7-61-50-17-41-28-54-48-59-14-3-35-8-47-11-20-6-20-6-2 82 24 119 24 153-2 153-14 0-22-11-29-37z"/><path d="m8670 17928c-17-57-40-130-50-163-41-130-90-311-90-332 0-42 38-38 176 18 158 65 210 95 195 113-14 17-81 2-199-44-46-17-86-30-89-27s27 116 66 250c39 135 71 255 71 266 0 16-6 21-25 21-22 0-27-9-55-102z"/><path d="m8272 17979c-23-7-32-15-30-27 3-13 15-17 65-17 96 0 101-15 25-83-65-59-75-84-43-102 50-26 263 7 269 42 3 16-5 17-95 11l-98-6 35 37c19 20 38 48 42 61 9 33-23 71-70 85-43 12-56 12-100-1z"/><path d="m4151 17966c-7-8-11-23-9-33 3-14 13-18 50-18 88-1 85-32-9-97-47-32-52-47-25-71 39-35 233-13 240 27 4 18-1 19-57 13-87-9-100-2-63 37 66 69 34 134-75 152-29 4-42 2-52-10z"/><path d="m4797 17933c-4-3-7-34-7-68v-61l-62-15c-52-11-63-18-63-34 0-18 6-20 58-18l57 2v-95c0-72 3-94 14-94 9 0 17 29 25 104l13 104 46 11c122 30 135 57 25 54l-69-2-3 52c-3 63-13 82-34 60z"/><path d="m6383 17853c-39-37-79-102-119-192l-32-74-7 99c-8 133-8 129-30 129-19 0-20-6-18-158 3-168 10-200 46-195 24 3 30 13 94 162 49 116 94 185 131 201 31 14 25 49-9 53-17 2-36-6-56-25z"/><path d="m3925 17851c-32-14-55-45-111-154-41-79-53-96-54-74 0 57-32 168-55 195-22 25-25 26-41 10-14-14-15-20-5-32 18-21 30-69 46-186 8-57 19-108 24-113s20-7 33-4c18 5 35 31 73 108 69 141 101 189 124 189 29 0 35 17 17 45-18 27-21 28-51 16z"/><path d="m7600 17768c-15-35-38-93-51-130-22-63-23-69-7-84 14-14 24-15 79-5 34 6 64 9 66 7s-3-31-11-64c-18-68-20-140-6-162 9-13 12-12 25 4 8 11 15 27 15 35s10 55 22 104c19 78 25 90 52 104s28 17 13 28c-22 16-21 27 4 77 19 37 19 42 5 56s-17 14-35-2c-10-10-28-39-40-66-19-45-23-48-67-55-26-3-53-9-60-12-8-3 2 34 26 97 46 116 48 130 19 130-15 0-27-15-49-62z"/><path d="m8037 17760c-60-47-79-189-32-236l25-25-41-51c-47-60-73-107-88-163l-10-40h-903c-849 0-1004-3-1808-36-129-5-553-12-943-16-505-4-710-9-716-17-6-7-6-17-1-26 16-26 1256-20 1985 10 675 28 1725 34 2231 14l151-6 2-52c6-180 105-237 174-101 8 17 22 58 32 91l17 61 191 6c206 6 303 21 321 49 20 33-4 41-80 29-38-7-149-15-247-18-150-5-177-4-173 8 3 8 15 79 26 159 17 118 26 150 46 177 39 51 26 125-20 107-12-5-16 0-16 19 0 13-9 36-21 51-25 32-66 34-102 6zm57-92c-6-42-4-53 11-64 22-16 14-39-15-47-35-9-63 27-55 71 9 50 32 92 51 92 12 0 13-9 8-52zm-8-313c-9-58-16-110-16-115 0-6-27-10-61-10-61 0-61 0-55 28 18 73 136 250 144 216 2-8-4-61-12-119zm-41-217c-10-46-52-138-64-138s-28 51-37 118l-7 52h58 57z"/><path d="m2232 17674c-91-24-136-54-113-77 8-8 28-5 73 10 86 29 116 35 123 23 10-16-12-46-67-90-70-55-77-69-48-92 20-16 34-18 89-13 141 12 151 15 151 36 0 17-8 19-82 19l-83 1 28 20c15 12 39 41 53 66 23 37 25 48 15 69-10 23-48 45-74 43-7 0-36-7-65-15z"/><path d="m7235 17670c-33-4-106-8-161-9-77-1-105-5-114-16-10-12-10-18 0-30 15-18 212-21 275-4 61 17 105 40 105 55s-10 15-105 4z"/><path d="m6472 17610c-41-10-72-37-72-62 0-11 3-18 8-16 85 44 136 46 177 8 33-31 36-56 13-85-27-34-56-29-86 15-13 19-29 35-35 35-37 0 7-89 55-113 22-10 33-10 61 2 73 30 90 109 36 170-16 19-38 37-47 40-41 11-79 14-110 6z"/><path d="m3956 17549c-28-33-31-44-16-54 6-3 10-15 10-26 0-31 53-79 79-72 49 13 70 124 31 163-30 30-73 26-104-11zm70-34c4-8 3-27-1-43l-7-27-13 25c-8 14-14 33-15 43 0 21 28 23 36 2z"/><path d="m4663 17497c-3-5 2-16 11-25 36-36 322-23 314 14-2 12-33 15-161 17-88 1-161-2-164-6z"/><path d="m1704 17421c-49-30-82-138-55-180 16-24 41-4 41 32 0 47 18 95 40 107 21 11 90 13 114 4 22-8 21-14-20-160-42-154-49-248-20-270 41-30 115-11 179 46 20 18 37 41 37 51 0 24-5 24-43-5-32-23-88-46-113-46-27 0-14 84 40 272l17 57 35-15c48-20 118-15 122 9 3 13-3 17-23 17-14 0-48 9-75 21-39 17-49 26-52 47-3 27-3 27-98 30-79 2-100-1-126-17z"/><path d="m2724 17246c-4-10-2-22 4-28 14-14 318-6 333 9 21 21-15 27-173 31-141 4-158 3-164-12z"/><path d="m2761 17131c-73-13-29-56 47-46 20 2 78 9 127 16 106 12 125 17 125 30 0 10-243 10-299 0z"/><path d="m6050 16925c-17-21-8-30 59-54 33-12 63-26 66-30 2-5-18-37-46-72-27-35-47-69-44-77 3-7 5-18 5-23 0-4 14-16 32-25 49-25 176-16 252 19 32 15 57 29 54 32s-27 1-54-4c-55-11-202-3-210 11-3 4 11 27 31 50 30 36 35 49 33 83-3 38-6 42-58 67-73 35-105 41-120 23z"/><path d="m5278 16783c-37-6-56-30-37-48 11-10 27-11 76-3 86 13 143-2 143-39 0-32-73-106-203-206-70-54-88-73-85-90 3-20 8-22 73-21 105 2 321 63 312 88-3 6-8 10-13 9-48-8-238-32-241-30-2 2 33 34 76 70 97 81 131 124 138 174 4 33 0 42-27 68-29 28-37 30-108 31-42 1-89 0-104-3z"/><path d="m5835 16758c-62-34-105-96-105-151 0-42 21-61 66-60l35 1-54-57c-30-31-70-86-88-122-62-122-49-282 29-350 41-36 80-37 121-4 58 49 88 178 97 415 6 135 6 135 36 162 35 30 33 64-2 53-18-6-20-2-20 33 0 73-57 113-115 80zm60-69c4-13 1-27-9-38-19-21-94-57-102-48-9 9 24 64 52 86 34 27 51 27 59 0zm-25-374c-18-183-53-275-97-261-36 11-58 72-58 156 1 91 28 154 108 245l52 59 3-44c2-25-1-94-8-155z"/><path d="m15966 15759c-169-4-441-20-605-33-163-14-433-35-601-46-414-27-651-45-1070-81-557-47-798-53-1135-28-296 21-553 38-635 41-69 2-85 0-85-11 0-8 15-19 32-23l33-9-24-38c-13-21-52-93-85-160-206-410-361-843-517-1446l-39-149-6 329c-4 188-11 344-17 363-24 73-48 78-115 26-50-39-56-54-32-74 13-11 21-8 50 20 19 19 38 31 41 27 13-13 23-235 23-540 1-285 3-318 17-324 36-14 49 14 107 223 175 631 222 783 335 1064 108 269 257 590 282 605 6 3 16 21 24 38l13 32 234-17c129-9 312-22 407-28 272-20 665-8 1157 33 231 20 596 48 810 62 215 14 554 39 755 55 534 42 1297 57 1765 36 199-10 212-13 310-69 31-19 41-32 48-63 14-65 16-68 31-55 21 18 27 69 12 104-8 21-29 41-57 56-24 13-62 33-84 45-33 17-65 22-175 28-239 12-886 16-1204 7z"/><path d="m3689 15490c-17-16-61-94-98-172-130-273-230-545-300-818-22-85-40-148-40-140-1 8 6 92 14 185 20 234 20 317-3 344-15 19-25 22-87 19s-70-5-70-23 8-20 63-23l62-3v-54c0-30-11-188-25-352-30-361-55-694-55-746 0-38 21-60 40-41 5 5 25 111 45 234 80 511 150 778 300 1145 73 179 134 309 149 317 7 4 20 24 30 46l17 38 67-14c83-18 757-21 1907-8 827 9 1162 3 1930-34 642-31 1139-43 1540-36 204 3 412 9 464 13l93 6-5-89c-2-49-8-100-12-114-8-25-8-25 14-5 35 31 61 89 68 154 3 37 11 62 19 65 20 8 17 34-3 44-10 5-82 4-163-1-184-12-1116-15-1400-4-118 4-393 17-610 27-823 41-1263 45-2490 27-619-10-1187-15-1262-11-122 6-138 9-138 24 0 32-30 32-61 0z"/><path d="m6511 15278c-216-8-241-13-241-48 0-22 20-30 62-25 18 3 60 7 93 11 97 9 2192 17 2512 9l291-7-19-42c-25-56-26-116 0-116 12 0 24 14 35 43 18 48 48 81 84 92 33 10 48 43 28 63-11 12-50 17-158 23-193 10-2419 8-2687-3z"/><path d="m13893 15192c-86-98-148-181-245-327-93-140-99-147-92-105 20 114 4 133-106 125-105-9-144-18-148-37-4-23 14-25 115-14 51 5 95 7 99 4 5-6 1-26-46-198-18-65-18-76-5-89s17-12 36 5c12 10 70 91 127 179 169 257 312 442 333 430 4-3 12 2 17 11 8 14 21 15 118 5 60-6 242-16 404-21 162-6 374-15 470-20 226-12 1420-12 1655 0 99 6 307 13 463 16 319 8 295 15 263-79-11-32-16-57-11-57 15 0 80 83 80 101 0 10 5 21 10 24 20 13 10 45-17 57-35 13-333 12-563-3-91-6-489-13-885-16-767-6-1339 9-1965 52l-65 5z"/><path d="m6224 15192c-34-24-213-329-321-547l-74-150 8 70c26 231-3 287-168 319-41 9-84 18-96 22-17 4-25 1-30-11-10-28 27-51 104-65 149-28 157-47 125-298-17-132-20-178-11-188 14-17-16-18-301-3-225 11-1755 12-1808 1-55-12-37-27 40-33 40-4 366-7 723-8 757-1 1220-17 1640-56 88-8 284-22 435-30 151-9 316-20 365-25 285-31 1269-45 1575-22 279 21 746 42 928 42 94 0 172 4 172 9s-19 17-42 26c-36 15-74 18-233 17-200 0-554-16-765-33-69-6-305-13-525-15-351-4-397-3-375 10 46 26 113 143 160 278 32 91 23 113-46 113-48 0-49 1-52 33-4 36 27 96 58 112 10 6 37 10 60 10 28 0 43 5 47 16 16 42-86 60-144 25-40-25-81-95-89-152-5-39-3-49 21-77 21-25 35-32 62-32 26 0 34-4 30-14-30-78-72-168-93-201l-25-40 5 57c5 69-6 81-34 36-28-46-28-131 0-151 11-8 18-16 16-18-8-7-469 11-661 26-104 9-302 22-440 30-137 8-343 22-456 32-176 15-204 19-192 31 7 8 62 114 122 235 102 206 249 468 307 545 14 18 24 42 22 55-3 23-25 33-44 19z"/><path d="m4504 15145c-10-25 4-32 76-38 71-6 125-24 124-42 0-5-25-27-54-48-67-46-75-60-53-83 15-14 30-16 118-10 199 14 237 36 87 50l-92 8 25 30c30 35 32 78 6 102-45 41-225 64-237 31z"/><path d="m6762 15078c-6-8-16-36-22-63-6-28-27-99-46-158-30-90-34-110-23-123 12-15 45-15 80 0 12 5 14 0 11-27-2-19 3-47 11-63l16-29 14 35c8 19 18 59 22 88 4 28 12 55 18 60 25 16 80 82 74 88-3 4-18-1-33-10-32-22-38-17-24 19 9 23 8 32-4 43-22 22-43 1-62-64-14-50-29-72-40-61-3 2 6 43 20 90 32 108 37 180 15 185-9 1-21-3-27-10z"/><path d="m14693 15083c-7-3-13-14-13-26s-14-53-30-92c-17-38-30-77-30-87 0-25 38-31 86-15l40 15-4-60c-3-37 0-64 7-71 17-17 25 1 46 97 10 44 23 97 31 117 22 65-24 77-51 13-12-30-46-54-75-54-5 0 0 25 11 55 10 30 19 63 19 74 0 22-20 40-37 34z"/><path d="m8325 15040c-12-19 15-36 77-49 32-7 67-20 80-30l22-18-32-50c-43-67-43-107 0-129 56-29 198 5 206 49 3 15 0 16-23 7-30-12-155-14-155-2 0 4 11 25 25 47 29 48 33 105 8 127-51 45-190 77-208 48z"/><path d="m12683 15037c-51-8-63-13-63-28 0-16 8-19 59-19h60l-30-32c-34-38-35-42-9-68 15-15 32-20 73-19 69 2 109 11 115 26 4 15-6 19-70 28l-47 6 29 41c23 32 27 44 19 59-11 21-36 22-136 6z"/><path d="m3943 15013c-4-9 3-120 15-246 22-245 28-265 74-253 18 4 41 43 110 183 91 187 142 258 203 287 43 21 41 40-4 44-74 7-148-75-246-275l-62-126-7 94c-9 116-25 268-32 292-7 22-43 22-51 0z"/><path d="m1708 15003c-60-10-105-84-96-159 4-38 42-42 46-4 9 83 33 110 96 110 23 0 57-5 74-11l31-11-19-38c-40-78-121-335-127-400-5-58-3-67 16-84 43-39 138-11 200 59 47 54 22 79-30 29-14-14-47-31-73-39-56-17-62-9-52 58 7 41 88 285 120 359 15 36 15 36 58 26 65-14 198 11 198 39 0 10-23 13-97 13-78 0-112 5-167 25-74 26-134 36-178 28z"/><path d="m8196 14978c-30-46-166-475-166-523 0-45 31-49 117-15 100 38 186 88 180 103-6 18-61 10-145-23-42-16-77-28-79-26-5 4 125 434 138 458 7 14 7 24-2 34-16 20-26 18-43-8z"/><path d="m16060 14986c-81-14-96-22-78-43 9-11 24-13 60-9l49 7-26-40c-17-25-25-50-23-68 3-25 7-28 45-31 50-4 106 10 152 39 52 32 28 45-54 29-36-7-68-10-71-7s8 24 25 48c17 23 31 46 31 50 0 10-29 39-38 38-4-1-36-6-72-13z"/><path d="m7783 14964c-8-21 4-29 62-43s95-36 95-55c0-7-16-34-36-60-19-25-40-60-46-78-10-29-9-33 21-60 53-47 110-32 126 33 12 48-31 45-47-3-4-12-38 1-38 14 0 5 18 35 40 65 49 69 52 107 13 146-55 52-175 78-190 41z"/><path d="m12514 14956c-102-32-224-120-224-161 0-23 28-44 68-50 51-9 62-13 62-23 0-19-47-78-79-99-30-21-37-22-55-10-12 8-26 28-32 46-14 43-28 55-42 38-31-37 36-137 91-137 57 0 139 75 161 148 12 36-17 71-64 78-22 4-43 10-45 15-11 17 98 83 180 109 46 15 59 29 43 47-12 15-11 15-64-1z"/><path d="m11963 14940c-69-31-115-94-99-136 9-22 40-13 44 13 4 30 69 85 95 81 33-5 35-64 4-125-33-64-68-95-113-99-47-4-82-27-90-59-15-59 23-71 95-29 39 22 48 23 75 13 56-20 99-28 128-22 31 6 39 33 10 33-24 0-111 30-117 40-3 4 4 19 15 33 38 49 71 126 72 171 1 85-46 119-119 86z"/><path d="m14479 14940c-121-25-179-60-179-106 0-30 44-80 92-105 45-23 42-34-19-61-52-23-84-18-98 13-13 30-32 35-39 11-9-27 12-69 38-76 36-10 85-7 119 8 42 18 90 69 85 92-2 11-25 33-52 51s-56 39-65 48c-15 15-14 18 7 35 12 10 57 26 100 36 42 9 93 23 112 31 33 14 34 15 16 29-11 8-22 14-25 13-3 0-45-9-92-19z"/><path d="m16932 14939c2-19 12-26 44-33l42-8-17-30c-15-28-15-30 8-49 30-25 102-25 159 1 60 27 54 41-18 37-33-2-63-1-67 2-5 3-8 19-8 36 0 35-24 49-98 60-47 7-49 7-45-16z"/><path d="m6231 14916c-40-48-34-415 8-467 24-29 46-16 73 44 54 125 149 305 179 340 17 21 43 43 56 48 36 13 26 43-15 47-28 3-40-3-72-37-42-44-110-159-155-264l-30-69-8 54c-4 29-6 111-5 182 3 130-4 155-31 122z"/><path d="m13942 14873c-27-5-41-31-23-42 7-5 34-6 62-3 49 5 49 5 49-27 0-18-7-45-15-61-13-26-21-30-56-30-72 0-139-53-139-111 0-60 52-58 141 6 40 28 54 33 83 28 39-6 106 4 106 16 0 4-25 13-55 20l-55 12 20 39c26 52 26 114 0 140-20 20-60 24-118 13zm-22-237c-19-13-37-22-40-19-7 7 43 43 60 43 8 0-1-11-20-24z"/><path d="m15193 14852c-12-8-33-122-33-181s17-62 148-25l22 6-22-61c-19-54-20-63-8-71 8-5 20-8 25-7 10 4 82 182 91 227 3 13 10 30 16 37s8 20 4 28c-10 26-45-1-67-50-17-38-24-44-66-54-27-7-56-14-66-17-17-5-18 0-11 79 5 69 4 85-8 90-8 3-19 2-25-1z"/><path d="m7350 14815c-5-14-17-77-26-141-23-159-6-193 74-144l32 20v-33c0-43 34-97 61-97 26 0 59 17 59 31 0 6-12 9-27 7-42-5-47 35-17 154 14 55 23 106 20 114-11 28-36 13-75-44-21-32-46-64-55-71-14-12-16-10-16 20 1 19 7 68 14 109 14 77 9 100-20 100-8 0-19-11-24-25z"/><path d="m5205 14820c-3-6-9-35-12-64l-6-53-84-6c-88-5-110-14-100-41 5-13 24-16 95-16h89l6-62c7-76 35-161 51-155 6 3 9 11 7 18-2 8-6 57-9 110l-5 96 59 8c127 16 135 44 14 53l-72 5 4 56c2 46 0 56-14 59-9 2-19-2-23-8z"/><path d="m13018 14805c-3-3-3-26 0-50 4-41 3-44-23-51-15-4-54-4-88-2-74 6-87 2-87-22 0-33 35-42 126-35l84 7v-68c0-80 13-72 31 18 11 53 13 57 46 65 44 10 44 26-1 36-31 8-36 14-41 45-4 21-8 43-10 50-4 12-27 17-37 7z"/><path d="m16552 14793c2-10 13-19 26-21 30-4 28-30-3-44-39-18-32-45 16-58 23-6 39-16 36-23-2-6-28-21-58-32-54-21-75-49-45-61 19-7 109 22 137 45 29 23 28 69-1 93-17 14-21 24-16 44 11 41-17 74-60 74-28 0-35-3-32-17z"/><path d="m15681 14698c-73-155-79-175-58-195 16-16 18-16 33-1 9 9 18 27 19 40 2 12 22 66 45 118 48 108 53 133 27 138-14 3-28-19-66-100z"/><path d="m16860 14783c-79-27-113-67-126-150-4-30-1-43 16-60 37-40 95-29 158 31 85 79 83 164-3 179-16 3-37 3-45 0zm56-68c7-17-17-57-54-92-26-24-66-31-77-12-10 15 23 97 43 109 27 15 82 12 88-5z"/><path d="m2465 14757c-17-13-18-17-5-32 13-16 28-17 125-12 275 15 274 34-5 53-76 5-99 3-115-9z"/><path d="m15870 14760c-14-6-42-29-62-52-32-34-38-49-38-85 0-55 26-83 75-83 113 0 222 144 155 205-23 21-95 29-130 15zm84-46c41-16-1-92-64-118-64-25-90 0-64 63 18 44 84 72 128 55z"/><path d="m16322 14750c-27-16-33-26-30-48 3-30 30-41 47-20 40 49 61 77 61 82 0 13-47 5-78-14z"/><path d="m15532 14691c-25-15-10-46 23-46 21 0 31 5 33 19 4 18-13 36-33 36-5 0-16-4-23-9z"/><path d="m14960 14685c-8-2-50-7-92-10-66-6-78-10-78-25 0-24 52-31 153-19 121 14 180 29 166 43-7 7-131 16-149 11z"/><path d="m4275 14650c-34-13-46-35-50-92-8-109 32-178 103-178 124 0 154 217 37 266-38 16-60 17-90 4zm74-50c62-32 43-170-23-170-32 0-49 37-52 112l-3 68h30c17 0 38-4 48-10z"/><path d="m7005 14649c-106-14-135-26-135-56 0-24 1-25 48-18 69 10 215 58 220 73 4 14-27 14-133 1z"/><path d="m17654 14584c-21-50-15-99 11-99 14 0 21 8 25 29l5 30 12-27c7-14 27-33 44-43 58-30 278-10 246 23-4 3-55 9-113 12-115 6-116 7-156 80-24 43-55 41-74-5z"/><path d="m6478 14544c-31-16-52-49-42-65 4-7 13-4 26 7 12 12 40 19 81 22 52 3 65 1 80-16 23-25 14-65-21-93-36-28-65-21-77 19-13 47-45 44-45-3 0-52 39-89 86-82 46 8 88 39 108 82 22 46 13 87-26 120-24 20-40 25-86 25-31-1-69-7-84-16z"/><path d="m2474 14537c-14-37 4-40 159-33 83 3 153 8 156 11 15 16-30 25-161 31-130 6-148 5-154-9z"/><path d="m2116 14431c-31-43-56-84-56-89 0-18 20-24 35-12 19 15 19 12 0-60-19-73-22-137-7-152 19-19 29 0 41 77 7 39 28 116 47 172 40 117 42 143 15 143-13 0-39-27-75-79z"/><path d="m17255 14494c-60-7-171-18-245-24s-250-23-390-37c-259-27-514-34-915-24-209 4-1401-17-1565-29-74-5-466-12-870-16-717-7-1015 0-1268 27-217 23-225 23-220 8 9-29 233-55 598-69 249-10 1582-3 1760 10 74 5 414 15 755 21 722 14 654 14 1050 4 252-6 340-4 470 9 88 9 266 25 395 37 129 11 325 31 435 42 172 19 200 24 203 40 4 21-29 21-193 1z"/><path d="m10117 14467c-10-26 4-55 26-55 12-1 97-4 190-8 149-6 167-5 167 9 0 27-39 39-155 47-61 5-136 11-166 15-45 6-57 4-62-8z"/><path d="m17623 14305c-17-7-34-22-38-34-6-21 9-61 24-61 13 0 32 26 25 33-17 17 57 29 146 24 52-3 132-3 178 0 68 5 82 9 82 23s-13 18-67 23c-121 12-315 7-350-8z"/><path d="m10415 14233c-79-8-280-44-289-53-15-15 2-40 26-40 40 0 373 61 382 70 4 4 5 13 2 19-7 11-39 12-121 4z"/><path d="m14822 14121c-19-5-38-13-44-19-21-21 3-29 75-24 42 2 77 0 80-5s-24-35-62-66c-62-51-69-54-84-40-20 21-94 20-133 0-16-9-44-32-63-52-78-84-54-215 41-215 67 0 175 90 193 160 6 25 7 25 123 25 139 1 226 24 206 56-2 4-65 5-139 2l-135-6 55 55c58 58 67 84 36 112-22 20-102 29-149 17zm-68-191c59-22 18-127-67-169-40-20-52-22-73-13-33 16-33 69 1 122 14 22 26 40 28 40 1 0 20 7 42 15s41 14 42 15c1 0 13-4 27-10z"/><path d="m6002 14081c-8-5-12-17-10-27 3-16 15-20 71-24l69-5-29-26c-15-14-50-41-76-59-107-76-45-139 110-113 70 12 178 63 178 84 0 17-11 16-90-5-32-9-79-16-104-16h-45l58 51c52 47 57 55 54 88-2 26-9 39-28 48-28 14-138 17-158 4z"/><path d="m14442 13928c-64-105-94-181-90-227 2-20 6-36 11-36 4 0 23 36 42 80 19 43 55 115 81 158 25 43 43 85 40 93-12 31-37 10-84-68z"/><path d="m13532 13974c-45-31-22-39 106-35 104 3 122 1 122-12 0-19-76-88-175-158-82-60-95-77-68-97 34-25 289 16 378 61 38 19 39 20 18 30-21 9-44 6-273-38-25-5-25-5-4 12 12 10 47 38 79 63 99 77 125 133 79 169-23 18-41 21-133 21-81 0-112-4-129-16z"/><path d="m14093 13923c-17-6-16-38 1-52 16-14 43-4 66 24 12 14 11 18-1 26-15 9-46 11-66 2z"/><path d="m5819 13900c-48-25-91-93-97-152-2-26-10-49-16-51-160-67-245-98-288-106-92-16-90-4 12 105 100 108 124 145 115 175-12 37-39 42-152 28-121-15-161-35-131-65 16-16 24-16 101-4 46 7 90 11 97 8 9-3-17-36-73-95-124-129-141-187-62-213 63-21 170 13 324 102 51 29 96 48 115 48 33 0 61 15 110 59 25 23 28 24 23 6-3-11-9-47-13-80s-10-52-12-42c-6 30-36 19-119-48-171-137-242-250-208-331 20-48 55-67 115-62 142 14 233 171 285 488 23 144 21 179-14 218-34 37-60 40-112 12zm71-53c0-15-64-83-92-98-22-12-23 2-3 41 26 50 95 91 95 57zm-24-277c-11-73-55-195-86-243-38-56-85-87-133-87-71 0-68 68 5 162 47 61 197 208 211 208 6 0 7-17 3-40z"/><path d="m3898 12504c-62-113-68-134-39-134 12 0 29 20 50 58l32 57-8-120c-4-66-8-149-8-185 0-59 2-65 22-68 28-4 30 5 43 173 26 354 6 400-92 219z"/><path d="m3234 12545c-14-34 3-45 70-45 36 0 68-5 71-10 10-17-49-133-112-223-71-99-74-108-55-129 25-29 40-27 311 47 55 15 63 30 19 38-42 6-85 2-171-19-37-9-71-14-74-10-3 3 5 20 19 38 42 56 97 156 114 208 15 45 15 51-2 79-21 35-38 41-122 41-47 0-64-4-68-15z"/><path d="m2370 12513c-15-20-20-38-18-67 4-54 28-54 42-1 10 35 16 40 44 43 27 3 41-5 84-46 29-27 63-54 75-61 46-24 129-6 166 37 29 32 12 43-30 21-21-10-55-19-76-19-32 0-47 8-90 49-65 60-85 71-136 71-31 0-44-6-61-27z"/><path d="m4285 12433c-49-50-86-144-87-226 0-33 5-46 28-65 24-21 34-23 73-18 54 7 207 82 227 110 12 18 12 22-1 35s-26 9-112-32c-54-26-110-47-125-47-24 0-28 4-28 29 0 38 27 121 50 151l18 23 7-32c5-26 11-32 28-29 18 2 23 11 25 41 7 80-50 112-103 60z"/><path d="m2513 12275c-73-20-130-51-138-74-12-40 33-84 62-60 10 9 11 15 3 23-17 17-12 26 26 42 69 29 127 34 195 18 99-24 239 1 239 42 0 12-5 14-17 9-38-17-148-17-209-1-74 19-93 19-161 1z"/><path d="m3663 12168c-9-13-83-267-83-287 0-6 4-11 10-11 20 0 102 194 112 265 3 22-8 45-21 45-5 0-13-6-18-12z"/><path d="m16335 11480c-71-4-215-8-320-9-104-1-271-8-370-16-256-22-652-52-845-64-342-23-606-43-940-72-697-59-789-60-1480-10-385 28-405 29-405 11 0-8 14-18 32-23l32-10-19-27c-25-35-146-277-200-401-142-322-258-656-371-1076-40-149-75-271-76-269-1 1-3 112-4 247-3 421-21 515-92 477-44-23-87-63-87-81 0-32 30-31 64 2 17 17 35 31 38 31 12 0 20-150 26-505 7-360 7-360 30-363 31-5 34 4 141 395 137 500 235 788 383 1122 65 149 176 370 193 388 8 7 17 23 20 34 8 24 11 24 400-6 577-45 642-44 1445 20 234 19 601 46 815 60 215 14 523 37 685 51 493 42 1313 60 1780 39l215-10 77-44c76-43 77-44 83-92 11-82 45-57 45 33 0 33-6 42-40 67-21 15-65 41-97 57-54 27-69 30-218 36-258 12-799 16-940 8z"/><path d="m3817 11198c-98-130-304-650-393-991-30-114-34-124-30-72 34 419 32 476-17 489-29 8-101 8-121 0s-21-44-1-45c8-1 20-3 25-4 6-1 29-3 51-4l41-1-6-97c-4-54-16-204-26-333-33-396-50-632-50-697 0-56 2-63 19-63 11 0 22 4 25 8s21 113 41 241c60 389 110 607 203 881 76 226 219 560 240 560 5 0 19 22 32 50 20 43 25 48 42 39 49-26 281-31 1203-22 1501 13 1915 8 2725-32 600-30 965-38 1455-31 270 3 514 9 544 12l54 7-6-89c-3-49-9-100-13-114-7-25-7-25 15-5 38 33 61 89 61 149 0 40 4 55 16 60 9 3 14 15 12 28-3 23-3 23-218 18-379-9-1327-4-1575 9-695 34-907 42-1305 51-259 5-704 5-1100 0-366-5-890-12-1165-16-557-8-713-2-711 24 2 32-40 26-67-10z"/><path d="m6790 10999c-102-3-222-7-266-8-65-1-87-5-105-20-21-17-22-21-9-34 12-12 38-13 150-6 353 22 2772 20 2795-2 3-3-1-21-9-40s-16-50-18-69c-2-29 0-35 18-38 16-2 23 4 28 24 11 43 44 83 87 104 29 15 39 27 39 44 0 13-8 27-17 31-44 17-478 24-1453 23-580-1-1138-5-1240-9z"/><path d="m14007 10883c-76-88-158-200-254-351-65-101-83-120-63-68 16 43 12 111-7 127-17 15-93 15-188 1-41-6-50-11-50-27 0-23 14-24 133-11 72 7 72 7 72-18 0-14-14-75-31-136s-28-117-25-125c17-45 57-1 200 218 143 221 287 404 307 392 4-3 12 2 17 10 7 14 19 15 93 6 46-6 206-15 354-21 149-5 371-15 495-22 294-16 1485-15 1765 1 116 6 317 15 448 18 267 7 250 13 217-76-12-29-18-56-15-59 19-19 114 131 102 162-4 9-28 17-64 22-67 8-413 0-713-17-331-19-1415-17-1895 4-376 16-634 30-775 42l-55 5z"/><path d="m6351 10899c-45-48-213-340-316-546l-63-128 5 125c9 190-9 217-171 252-123 26-121 26-124 1-4-28 17-39 110-58 87-18 120-40 130-86 5-21 0-103-14-213-21-176-21-179-2-193 17-14 14-15-36-9-268 28-2084 36-2111 9-7-7-9-16-5-20 4-5 375-11 824-14 893-7 1163-17 1582-54 85-8 281-22 435-30 154-9 321-20 370-26 129-14 492-28 920-35 309-5 428-3 725 15 508 30 798 42 930 40 63-1 117 2 119 7s-9 16-25 24c-58 30-432 24-1054-15-385-25-1302-11-1645 25-55 5-224 17-375 25-151 9-315 20-365 25-49 5-127 12-172 16-74 5-81 8-67 21 8 8 57 103 109 209 102 211 159 316 274 498 56 90 72 123 64 134-15 25-30 25-52 1z"/><path d="m4651 10872c-29-20-4-39 61-46 81-9 128-24 128-41 0-8-27-33-60-55-62-42-71-58-45-80 16-13 188-9 263 6 46 9 34 29-19 31-24 2-63 6-87 9l-43 5 26 30c43 52 30 97-35 123-49 19-170 31-189 18z"/><path d="m6896 10788c-7-13-17-41-21-63s-22-89-42-148c-40-126-36-143 29-133 38 6 38 6 38-30 0-19 5-44 11-56 10-19 11-19 24-1 7 10 19 47 26 82 10 53 20 72 55 110 24 25 44 49 44 54 0 11-14 8-36-8-29-22-33-19-27 26 6 39 5 41-18 37-20-2-28-14-44-65-17-54-39-83-51-70-2 2 5 30 16 63 27 75 52 194 46 211-8 20-34 15-50-9z"/><path d="m14796 10717c-15-45-29-95-30-112-1-28 1-30 34-30 19 1 46 4 59 9 23 8 24 7 18-29-8-47 2-95 18-95 9 0 23 40 40 108 41 166 41 162 15 162-16 0-26-10-37-39-12-30-23-41-50-49-33-10-35-10-28 11 37 117 38 147 6 147-11-1-25-25-45-83z"/><path d="m8464 10757c-9-25 2-35 49-42 48-8 127-40 127-52 0-4-14-28-30-53-37-55-40-102-8-124 41-29 152-15 200 23 32 27 17 36-37 22-47-12-125-5-125 11 0 5 11 26 25 46 62 91 7 161-139 178-46 6-57 4-62-9z"/><path d="m12835 10757c-73-10-92-22-73-45 8-9 26-11 66-6l54 7-31-32c-36-37-38-51-11-76 16-15 32-17 95-13 42 3 81 10 87 16 19 19-2 32-51 32-26 0-50 3-54 6-3 4 5 21 18 39 28 35 31 55 13 73-13 13-15 13-113-1z"/><path d="m4082 10737c-8-9-7-56 4-162 24-250 33-325 39-335 7-12 45-13 61-2 5 4 49 87 97 184 90 183 150 264 212 288 23 9 25 13 15 25-33 40-122-5-182-92-18-26-61-104-95-173-35-69-63-118-63-110 0 58-35 367-43 378-12 16-32 15-45-1z"/><path d="m1809 10705c-15-8-34-30-43-49-18-38-22-121-6-131 20-12 40 17 40 57 0 51 35 88 82 88 32 0 108-17 108-25 0-2-8-23-18-47-38-88-113-318-122-373-16-100 21-139 110-114 51 15 130 81 130 110 0 27-17 24-56-11-36-31-111-57-125-43-17 17 14 125 122 424 9 24 12 25 97 25 89-1 166 17 159 37-2 7-39 11-98 12-75 1-110 7-170 28-84 30-168 35-210 12z"/><path d="m8315 10655c-30-67-145-447-145-478 0-25 17-47 37-47 24 0 209 81 239 105 64 52-7 50-145-4-30-11-56-19-58-17-4 4 101 366 122 419s19 77-6 77c-15 0-26-14-44-55z"/><path d="m16173 10703c-44-4-70-24-57-44 4-8 25-10 59-6l53 5-30-48c-24-39-28-52-19-68 6-12 19-23 30-27 43-13 191 40 191 70 0 18-7 18-90 0-36-7-66-12-67-11-2 1 11 21 28 44 18 25 29 51 27 64-2 19-9 23-43 24-22 1-59-1-82-3z"/><path d="m7924 10686c-8-22 13-46 42-46 35 0 102-29 109-48 3-9-3-28-15-44-80-109-87-135-41-167 57-41 121-16 121 46 0 33-18 38-32 9-6-14-17-26-25-26-28 0-24 31 11 79 45 60 54 102 32 136-35 53-187 99-202 61z"/><path d="m12584 10646c-120-57-183-130-140-165 7-6 34-15 60-20s49-11 53-14c16-16-81-127-111-127-19 0-52 41-60 73-6 27-29 36-41 17-11-18 5-69 32-100 48-57 138-30 194 59 31 48 38 101 15 120-7 6-34 14-60 17-45 7-46 7-29 26 24 27 109 73 171 93 38 13 52 22 52 36 0 30-54 24-136-15z"/><path d="m17070 10665c-17-21-5-32 40-40 39-7 50-18 30-30-15-10-12-42 7-60 30-31 199-4 194 30-1 6-31 8-73 6-65-3-71-1-59 13 23 28 6 64-37 75-82 20-90 21-102 6z"/><path d="m12085 10651c-68-41-111-129-71-144 17-7 36 11 36 34 0 24 70 80 95 77 47-7 21-116-45-191-26-30-39-37-70-37-53 0-92-33-88-74 3-29 6-31 39-30 21 1 51 11 69 24 30 22 34 22 65 7 44-21 99-31 130-23 32 8 33 36 2 36-30 0-117 29-117 40 0 4 9 19 20 33 35 44 70 131 70 173 0 83-64 119-135 75z"/><path d="m14615 10659c-92-22-116-31-145-55-41-35-40-72 3-114 17-17 45-38 60-46 35-18 31-32-14-56s-91-20-104 10c-12 28-45 30-45 1 0-55 55-85 124-69 65 15 134 79 121 113-4 9-26 27-48 41-23 13-51 34-61 45-17 19-18 23-5 36 8 9 62 27 119 41 106 27 134 39 124 55-7 11-76 10-129-2z"/><path d="m6601 10611c-44-44-104-142-152-250-30-67-34-71-42-50-5 13-7 93-4 177 4 143 3 152-14 152-37 0-44-36-43-225 2-200 13-258 51-263 19-3 33 19 111 180 85 174 147 268 177 268 21 0 28 19 15 35-22 26-58 17-99-24z"/><path d="m14085 10591c-21-4-30-12-30-26 0-18 7-20 55-20 52 0 55-1 58-27 2-15-4-40-13-57-13-26-21-31-51-31-76 0-144-55-144-116 0-27 5-35 24-40 27-6 86 20 133 60 26 22 35 24 64 16 30-9 109 2 109 15 0 2-24 12-54 20l-55 16 19 42c25 55 25 98-1 131-21 27-49 31-114 17zm-34-241c-13-11-28-20-35-20-6 1 0 10 13 20 13 11 28 20 35 20 6-1 0-10-13-20z"/><path d="m15316 10548c-3-13-9-65-13-115l-6-93h35c20 0 55 7 78 15s46 15 51 15 0-23-11-50c-11-28-20-57-20-66 0-20 30-30 41-13 12 19 77 188 85 222 3 15 10 30 15 33 16 10 9 34-9 34-23 0-46-26-59-65-8-25-19-33-64-47-88-27-87-28-76 51 5 38 7 77 4 85-9 24-44 19-51-6z"/><path d="m7501 10551c-16-10-42-143-44-230-2-93 12-108 73-74l40 21v-37c0-68 50-108 101-81 30 16 23 33-10 25-26-6-30-3-35 23-7 30 4 91 31 179 13 42 14 55 4 67-18 21-36 10-70-43-17-26-42-58-56-71l-26-24 6 44c4 25 11 67 16 93 17 90 6 130-30 108z"/><path d="m7810 10528c-42-29-90-117-90-167 0-49 22-78 71-92 36-11 40-15 34-38-3-14-26-68-51-120-33-67-49-90-56-83-8 8-8 22 0 50 15 50 15 52-3 52-42 0-67-149-29-177 27-20 43-16 76 19 32 34 105 181 132 265 24 73 12 93-54 93-61 0-70 19-42 84 25 56 61 80 107 73 23-4 38-1 46 9 18 22-10 45-62 51-35 4-51 0-79-19z"/><path d="m16692 10513c2-10 14-19 26-21 29-4 26-33-6-47-33-15-24-45 18-59 19-6 35-15 35-21 0-5-25-20-55-32-38-15-55-27-55-40 0-29 44-27 105 4 45 23 56 33 58 57 2 18-4 36-16 50-13 13-20 35-20 59 0 49-16 67-59 67-27 0-34-4-31-17z"/><path d="m15873 10512c-18-11-113-216-120-256-4-28-2-37 11-42 22-8 48 16 51 48 2 19 75 202 91 229 7 11-21 28-33 21z"/><path d="m16952 10484c-24-11-40-29-57-67-45-96-26-147 54-147 35 0 49 7 85 40 72 67 94 132 56 170-24 24-88 26-138 4zm102-43c10-15-10-56-44-89-37-37-90-45-90-13 0 34 30 92 53 101 29 12 74 12 81 1z"/><path d="m16013 10479c-47-14-104-87-106-138-4-101 105-116 198-28 69 67 74 136 10 163-39 16-56 16-102 3zm94-65c20-52-105-140-144-101-20 20-10 60 22 93 29 29 111 35 122 8z"/><path d="m16468 10474c-37-19-53-51-37-70 19-23 43-16 67 21 12 19 27 35 32 35 6 0 10 7 10 15 0 19-36 19-72-1z"/><path d="m2594 10467c-13-36 4-40 145-34 247 12 256 36 16 44-136 5-155 4-161-10z"/><path d="m5210 10404c-74-13-136-23-137-24-1 0-7-9-13-21-14-25 5-53 29-43 26 10 223 43 262 44 32 0 59 14 59 31 0 14-32 39-48 38-9-1-78-12-152-25z"/><path d="m15045 10395c-91-8-110-13-113-27-2-12 5-19 23-24 29-7 141 2 220 17 70 14 80 18 69 28-16 15-86 17-199 6z"/><path d="m15660 10385c0-24 3-26 33-23 24 2 32 8 32 23s-8 21-32 23c-30 3-33 1-33-23z"/><path d="m13053 10378c-13-14-13-20-3-33 18-22 262-22 280 1 27 31-6 42-138 46-107 3-125 1-139-14z"/><path d="m4413 10365c-17-7-34-19-39-27-13-20-15-118-3-160 10-40 59-88 89-88 83 0 141 112 106 205-26 67-90 96-153 70zm87-60c40-36 28-129-20-155-38-20-62 14-69 100-4 39-4 73-1 76 9 10 72-5 90-21z"/><path d="m7155 10369c-38-5-86-14-106-19-38-11-57-36-40-53 21-21 259 41 269 71 4 14-18 14-123 1z"/><path d="m17805 10323c-34-33-33-118 0-118 14 0 22 9 26 30 4 17 7 23 8 13 0-9 15-28 32-42 28-24 38-26 119-26 103 0 150 8 150 25 0 14-65 25-151 25-77 0-88 6-109 55-20 46-51 62-75 38z"/><path d="m6630 10269c-35-14-60-39-60-61s8-23 31-2c22 20 119 30 147 15 33-17 30-73-4-100-41-32-72-28-82 11-4 18-16 34-25 36-25 5-23-58 4-92 53-67 179 6 179 104 0 42-15 67-50 85-33 17-102 19-140 4z"/><path d="m2618 10265c-5-5-8-17-8-27 0-14 8-18 33-19 115-3 287 10 287 21 0 4-14 10-31 14-53 10-274 19-281 11z"/><path d="m17420 10214c-63-7-200-20-305-29-104-9-275-25-380-37-175-19-258-21-1075-24-487-1-993-8-1125-14-506-25-610-27-1305-28-707-2-984 7-1195 37-96 14-115 14-115-4 0-8 1-15 3-15 1 0 29-5 62-10 189-32 413-42 1095-47 666-5 933 0 1474 28 110 5 581 10 1046 10 811 1 855 2 1090 24 135 13 304 29 375 35 184 15 519 51 524 55 2 2 1 11-2 20-7 17-12 17-167-1z"/><path d="m10256 10192c-13-22-2-60 19-61 11 0 98-4 193-7 147-5 172-4 172 8 0 26-52 40-175 48-66 5-139 11-161 15-25 4-44 3-48-3z"/><path d="m2210 10063c-32-6-60-31-60-54 0-22 47-60 66-52 14 5 18 16 15 41-3 19 58 15 66-4 9-24-27-91-96-176-34-42-61-85-61-95 0-48 55-55 188-23 46 11 92 20 102 20 30 0 33 19 5 30-36 14-78 15-148 6l-59-9 47 64c83 112 104 183 67 229-18 23-80 34-132 23z"/><path d="m17775 10027c-46-14-68-54-45-81 18-22 29-20 40 9 10 25 10 25 157 25 182 0 253 8 253 27 0 20-8 21-195 27-119 3-182 1-210-7z"/><path d="m10560 9948c-52-4-140-15-195-25-90-16-100-20-103-40s1-23 35-23c50 0 364 57 375 68 20 20-21 28-112 20z"/><path d="m14932 9829c-45-18-19-34 49-31 64 3 103-9 84-26-105-91-120-100-139-86-25 18-87 18-129 0-18-8-49-32-69-53-29-30-38-50-43-89-8-55 10-106 40-118 47-17 114 1 166 46 32 28 69 87 69 109 0 14 19 17 133 21 141 6 197 19 197 47 0 16-12 17-135 13l-135-5 55 55c60 60 68 88 33 112-25 18-137 21-176 5zm-24-191c16-16 15-53-3-88-31-60-126-108-160-80-36 30-6 127 49 161 35 21 96 25 114 7z"/><path d="m6150 9803c-20-8-29-23-23-40 4-9 25-13 70-13 80 0 79-8-10-75-78-58-92-88-56-118 48-38 246-4 308 54 34 32 13 40-49 19-30-11-81-19-113-20h-59l56 53c62 58 71 90 35 123-21 19-127 30-159 17z"/><path d="m14633 9722c-6-4-34-45-62-92-73-119-113-262-70-248 6 2 23 35 39 73 16 39 33 77 38 85 69 119 91 168 79 178-7 6-18 8-24 4z"/><path d="m13680 9697c-31-16-35-54-5-48 53 10 208 12 218 2 15-15-26-56-139-141-50-38-96-76-104-84-20-25 5-46 55-46 102 0 343 59 352 87 7 20-49 19-166-5-62-12-118-21-122-20-5 2 23 27 61 57 86 65 120 107 120 149 0 47-37 62-152 62-55 0-103-5-118-13z"/><path d="m14232 9642c-21-14-11-56 13-60 20-3 74 42 63 53-10 10-64 15-76 7z"/><path d="m5960 9618c-55-28-101-98-103-157-2-39-4-41-61-67-154-69-316-113-316-85 0 6 41 55 91 109 106 113 123 140 110 175-12 32-43 39-117 27-32-5-79-11-102-14-47-5-72-20-72-42 0-28 35-34 110-18 126 26 127 22 19-92-103-108-120-141-94-180 41-64 184-33 369 80 47 28 89 46 107 46 36 0 64 13 102 48 26 24 27 25 27 5 0-11-3-41-6-66-6-40-9-44-24-35-14 9-25 5-56-18-136-100-230-202-259-278-34-89 11-160 101-158 148 2 249 174 299 509 21 146 20 156-19 197-39 42-47 43-106 14zm65-54c0-21-84-104-105-104-17 0 4 44 41 82 34 36 64 46 64 22zm-35-335c-40-154-98-244-175-269-30-10-40-9-60 4-46 30-28 80 70 197 68 80 177 177 183 160 2-6-6-47-18-92z"/><path d="m4167 8496c-86-31-206-99-258-147-29-27-39-44-39-67 0-41 24-53 89-45 38 4 51 3 51-7 0-23-59-107-105-149-48-44-75-52-75-22 0 23-23 34-39 18-12-12-14-46-3-63 15-22 47-31 80-22 64 17 202 187 202 248 0 31-25 51-74 58l-49 7 55 36c71 48 140 82 208 104 30 10 59 21 65 26 5 5 17 9 27 9 27 0 22 19-8 30-36 14-51 13-127-14z"/><path d="m3533 8467c-78-85-185-236-180-252 12-31 36-13 107 81 39 53 74 94 76 92 5-5-45-185-75-272-12-32-18-62-15-67 9-16 43-10 53 9 19 35 82 256 95 331 20 122 1 146-61 78z"/><path d="m2515 8235c-19-19-25-35-25-70 0-38 3-46 17-43 10 2 20 16 24 34 9 45 17 54 49 54 20 0 46-16 94-60 58-52 72-60 107-60 48 0 97 19 123 49 27 29 13 38-29 18-20-9-55-17-78-17-37 0-48 6-87 45-76 78-149 97-195 50z"/><path d="m4490 8228c-41-27-70-80-70-126 0-42 34-77 83-86 72-13 327 66 327 102 0 18-63 11-184-19-43-11-97-19-120-17-39 3-41 5-39 33 3 41 44 75 91 75 46 0 65 12 60 36-5 31-103 32-148 2z"/><path d="m3662 8107c-28-33-82-165-82-199 0-21 4-38 8-38 12 0 112 206 112 230 0 22-22 27-38 7z"/><path d="m2611 7981c-73-28-101-50-101-83 0-22 27-48 51-48 21 0 27 36 7 43-7 2 7 15 32 28 39 21 56 23 130 21 213-8 244-7 278 11 17 10 32 21 32 25 0 5-48 8-107 8-60 1-144 4-188 8-67 5-89 3-134-13z"/></g><g fill="#44b" transform="matrix(.054411653 0 0 -.054411653 1603.86176253537 2345.98049391264)"><path d="m750 2973c-57-10-88-25-119-57-40-41-55-100-46-179 6-45 12-61 32-77 32-25 35-25 64-1 22 17 24 26 21 89-4 105 24 120 164 87 33-7 119-19 190-25 88-8 134-16 144-26 32-32 8-420-28-456-18-18-126-28-289-28-185 0-206-4-250-52-55-58-58-82-55-363 1-145 7-274 13-293 11-34 51-62 89-62 12 0 35 14 52 31l31 30-6 238c-3 130-3 249 0 264l5 27h112c234 1 363 26 423 82 58 54 98 260 91 463-4 122-7 138-34 191-40 81-79 100-217 108-174 10-361 14-387 9z"/><path d="m3660 2971c-42-9-83-34-103-65-39-59-50-127-54-343-5-206-5-212 18-252 28-50 78-86 143-102 48-12 257-8 370 7l49 7-7-104c-4-57-11-189-16-294-9-177-9-192 8-214 35-47 100-46 136 2 22 29 27 86 42 452 7 191 0 235-44 283-45 48-92 56-241 38-146-18-229-20-265-6l-26 10v162c0 156 8 230 27 249 5 5 99 6 210 2l201-6 5-50c3-39 11-56 31-74 34-29 48-29 80 0 24 20 26 30 28 113 4 147-23 169-218 179-242 11-340 13-374 6z"/><path d="m1565 2945c-14-13-25-32-25-42s-1-297-3-638c-2-677-3-662 55-694 33-19 73-7 101 31 18 24 20 51 29 300 5 150 10 278 12 283 2 6 37 8 97 3 52-3 135-7 186-7 154-2 161-10 143-176-21-189-27-310-18-343 12-45 45-72 86-72 71 0 102 46 102 151 0 33 7 118 16 187 24 190 9 280-58 349-50 52-112 67-263 65-71-1-164-6-205-11-41-4-78-7-81-5-4 2-10 108-13 236-9 286-17 352-47 384-31 33-82 32-114-1z"/><path d="m2542 2944c-55-38-64-109-53-419 6-186 9-215 28-250 50-95 116-125 302-135 75-4 171-5 215-1l78 7-4-178c-2-97-7-181-11-184-4-4-42 1-85 11-104 26-285 27-363 3-106-33-149-107-99-170 26-34 68-41 132-21 74 23 202 20 308-7 182-47 274 5 301 168 12 77 27 831 19 994-7 152-20 181-86 186-88 7-103-51-104-401v-219l-201 4c-197 3-201 3-220 27-18 21-19 42-19 283v260l-29 29c-33 33-74 38-109 13z"/><path d="m2374 1391c-55-34-79-78-79-147 0-51 4-66 27-96 35-45 102-73 153-64 78 15 146 111 131 188-20 108-145 172-232 119z"/><path d="m1853 999c-39-11-66-56-61-101 6-59 69-64 76-6 4 30 34 38 145 38h67v-110c0-135-1-136-132-126-85 6-89 6-113-18-24-25-25-28-25-179 0-162 4-177 47-177 35 0 43 29 43 159v121h73c85 0 141 14 168 41 17 17 19 34 19 169 0 147-1 152-25 175-23 24-30 25-137 24-62 0-128-5-145-10z"/><path d="m2985 1000c-91-16-93-18-104-58-15-51-14-537 0-564 19-36 69-48 204-48 121 0 127 1 151 25l24 24-2 292-3 292-26 19c-31 23-161 33-244 18zm169-86c14-5 16-37 16-250v-245l-102 3-103 3v240 240l40 6c57 9 131 10 149 3z"/><path d="m2351 971c-24-24-29-73-37-372-6-232-6-237 15-258 23-23 29-25 51-11 12 7 16 40 20 150l5 141 35-23c19-13 59-55 88-93 30-39 78-96 108-128 47-51 56-57 74-47 29 16 25 42-15 92-19 24-62 78-95 121-61 77-61 77-33 77 15 0 46 9 69 19 56 26 67 57 62 179-6 156-27 172-220 172-93 0-111-3-127-19zm257-74c16-13 17-168 0-185-7-7-41-12-84-12-40 0-84-4-98-10l-26-10v120 119l98-6c53-3 103-10 110-16z"/></g></svg>