<?xml version="1.0" standalone="no"?>
<!DOCTYPE svg PUBLIC "-//W3C//DTD SVG 20010904//EN"
 "http://www.w3.org/TR/2001/REC-SVG-20010904/DTD/svg10.dtd">
<svg version="1.0" xmlns="http://www.w3.org/2000/svg"
 width="612.000000pt" height="658.000000pt" viewBox="0 0 612.000000 658.000000"
 preserveAspectRatio="xMidYMid meet">

<g transform="translate(0.000000,658.000000) scale(0.100000,-0.100000)"
fill="#000000" stroke="none">
<path d="M400 6445 c0 -44 -4 -57 -17 -62 -52 -18 -105 -44 -100 -49 3 -4 24
1 47 10 22 9 45 16 50 16 11 0 13 -61 4 -109 -6 -29 -10 -32 -38 -29 -24 2
-32 -1 -34 -16 -3 -16 1 -18 27 -14 29 4 31 3 31 -28 0 -19 -6 -34 -15 -38 -8
-3 -15 -10 -15 -17 0 -7 7 -8 18 -4 9 5 51 12 92 16 41 4 118 12 170 18 311
36 593 48 1010 41 476 -7 486 -9 508 -75 7 -22 29 -132 49 -245 19 -113 46
-245 59 -295 14 -49 33 -134 44 -187 11 -53 31 -145 45 -205 14 -59 28 -119
31 -132 6 -29 43 -391 51 -504 6 -87 -2 -104 -67 -137 -123 -61 -464 -75 -970
-39 -113 8 -263 9 -480 3 -173 -4 -358 -8 -410 -8 -84 -1 -95 -3 -98 -20 -4
-17 6 -18 270 -10 335 11 615 8 813 -8 224 -18 597 -14 720 7 120 20 200 56
233 105 22 32 23 42 19 120 -15 244 -48 504 -86 669 -16 69 -35 153 -41 186
-7 33 -25 107 -41 165 -16 58 -43 186 -59 285 -36 211 -61 305 -89 322 -44 27
-155 36 -406 31 -275 -5 -320 -2 -305 22 29 45 -26 123 -95 136 -35 6 -44 17
-25 29 15 9 12 51 -4 64 -21 18 -75 16 -94 -2 -20 -21 -10 -32 16 -18 57 30
86 -31 32 -69 -40 -28 -38 -42 4 -35 65 13 158 -48 142 -92 -5 -12 -22 -14
-95 -12 -55 3 -93 0 -102 -7 -14 -12 -74 -19 -254 -30 l-100 -7 -13 61 c-7 33
-15 97 -19 141 -3 45 -9 81 -13 81 -4 0 -13 -26 -19 -58 -6 -32 -18 -67 -26
-78 -8 -10 -15 -22 -15 -26 0 -14 23 -8 35 9 10 14 13 8 19 -38 4 -30 9 -63
12 -75 5 -19 -2 -21 -142 -37 -81 -9 -151 -14 -154 -12 -3 2 -4 20 -2 40 4 31
10 39 39 51 34 14 52 39 39 52 -4 3 -10 2 -14 -4 -4 -6 -17 -14 -29 -18 -21
-7 -23 -4 -23 36 0 77 6 85 70 97 54 11 87 30 74 43 -3 3 -29 0 -57 -8 -73
-19 -77 -18 -77 17 0 17 -4 28 -10 24 -5 -3 -10 -19 -10 -35 0 -34 -3 -36 -54
-45 l-38 -8 2 39 c4 53 2 64 -10 64 -5 0 -10 -25 -10 -55z m95 -141 c-7 -49
-7 -49 -53 -59 l-33 -7 7 64 c4 34 8 65 10 67 2 2 18 6 36 10 39 8 44 -4 33
-75z m-12 -116 c-7 -41 -4 -38 -48 -45 -38 -6 -38 -6 -31 23 8 34 31 54 63 54
20 0 22 -4 16 -32z"/>
<path d="M990 6479 c-14 -6 -36 -12 -50 -13 -20 -3 -27 -11 -34 -40 -15 -64 1
-82 78 -90 72 -8 92 -23 82 -62 -7 -26 -8 -27 -72 -21 -52 4 -67 2 -71 -10 -8
-21 15 -33 68 -33 59 0 96 27 105 77 6 32 3 40 -20 60 -19 16 -40 23 -71 23
-61 0 -75 8 -75 40 0 24 5 29 44 39 25 6 65 11 90 11 46 0 61 12 30 24 -23 9
-75 6 -104 -5z"/>
<path d="M1464 6476 c-12 -9 -24 -25 -27 -37 -5 -19 -4 -20 12 -5 18 17 48 20
75 10 23 -9 20 -23 -9 -46 -14 -11 -25 -23 -25 -27 0 -5 22 -11 49 -14 58 -7
85 -22 100 -54 14 -31 0 -37 -85 -31 -61 4 -65 3 -62 -16 3 -18 11 -21 59 -24
96 -5 138 28 116 91 -10 30 -60 67 -90 67 -15 0 -17 6 -12 33 7 38 -6 54 -51
62 -18 4 -37 0 -50 -9z"/>
<path d="M2967 6383 c-12 -11 -8 -25 6 -20 33 12 67 -49 37 -68 -5 -3 -10 -15
-10 -26 0 -17 6 -20 32 -17 35 3 52 28 19 28 -19 0 -21 4 -15 40 4 26 2 45 -6
55 -13 15 -51 20 -63 8z"/>
<path d="M4060 6325 c0 -11 13 -60 29 -110 16 -49 37 -116 46 -148 18 -66 35
-67 35 -1 0 24 4 44 10 44 5 0 23 -18 41 -40 52 -64 63 -31 12 38 -24 33 -50
41 -70 21 -8 -8 -20 17 -43 88 -33 99 -60 148 -60 108z"/>
<path d="M2378 6283 c-81 -93 -75 -233 22 -496 68 -186 78 -282 48 -439 -7
-37 -19 -65 -34 -79 -14 -13 -24 -34 -24 -51 0 -33 15 -36 39 -6 18 21 18 20
52 -58 43 -102 48 -202 23 -433 -26 -226 -26 -683 -1 -818 21 -113 42 -167 75
-193 34 -27 64 -25 101 6 40 33 44 66 5 35 -74 -58 -125 9 -155 204 -22 143
-17 558 9 807 28 254 23 310 -33 434 -20 43 -32 81 -28 85 59 54 106 87 117
83 9 -3 21 7 32 25 23 39 28 39 44 1 16 -38 33 -39 23 -2 -17 69 -1 91 32 42
26 -39 88 -83 111 -78 24 4 62 61 70 105 7 35 -16 102 -42 124 -19 16 -51 2
-58 -26 -10 -38 10 -74 49 -91 20 -8 34 -18 32 -22 -37 -80 -60 -83 -125 -15
l-45 47 39 34 39 34 -43 -24 c-24 -13 -64 -42 -90 -65 -50 -46 -66 -52 -76
-28 -7 21 -43 19 -55 -2 -10 -17 -10 -17 -11 0 0 10 -6 20 -12 23 -9 3 -14 33
-15 92 -3 94 -18 156 -81 328 l-41 112 30 28 c16 15 29 24 29 19 0 -4 16 9 35
31 32 36 36 38 48 22 19 -24 23 -23 36 12 14 43 37 37 57 -15 18 -47 34 -59
34 -25 0 22 -24 75 -45 100 -10 12 -8 19 15 37 l28 23 38 -67 c43 -72 70 -95
111 -95 66 0 111 169 62 229 -19 22 -58 16 -71 -12 -16 -36 0 -76 38 -95 27
-14 29 -18 22 -48 -15 -58 -66 -62 -111 -8 -28 33 -65 110 -60 124 3 6 -2 12
-11 12 -9 0 -16 -6 -17 -12 0 -7 -26 -34 -58 -60 l-59 -48 -16 25 c-20 31 -48
32 -70 3 -11 -15 -15 -17 -12 -6 5 19 -20 33 -27 15 -2 -7 2 -29 9 -51 8 -21
14 -46 14 -56 0 -20 -47 -66 -57 -56 -4 4 -9 49 -11 100 -4 96 10 150 44 163
15 5 20 33 6 33 -5 0 -16 -8 -24 -17z m456 -29 c16 -16 22 -64 9 -64 -23 1
-59 53 -48 70 9 14 21 12 39 -6z m-350 -127 c8 -13 6 -22 -12 -39 l-22 -22 0
43 c0 44 13 51 34 18z m378 -584 c19 -21 33 -63 21 -63 -24 1 -69 61 -56 74
10 10 19 7 35 -11z m-342 -199 c0 -6 -11 -21 -25 -34 -28 -27 -30 -22 -13 52
l11 53 13 -30 c7 -16 13 -35 14 -41z m49 30 c-16 -19 -29 -17 -29 4 0 26 11
34 27 21 10 -9 10 -15 2 -25z"/>
<path d="M3536 6164 c-9 -8 -16 -21 -16 -27 0 -7 -7 -4 -14 6 -34 44 -35 1 -1
-68 13 -27 23 -50 22 -50 -9 -4 -67 -55 -63 -55 5 0 124 80 206 138 17 13 20
10 35 -24 20 -49 39 -34 23 19 -9 30 -9 40 0 46 6 4 -4 7 -23 8 -26 1 -40 -5
-55 -24 l-20 -26 -21 27 c-31 39 -54 49 -73 30z m47 -52 l27 -28 -29 -22 -29
-21 -6 22 c-8 32 -7 77 2 77 5 0 20 -13 35 -28z"/>
<path d="M3772 6148 c-31 -31 13 -103 57 -91 15 4 24 -5 41 -43 11 -27 20 -60
18 -74 -3 -22 -9 -25 -44 -28 -28 -2 -48 3 -64 16 -28 22 -21 38 20 47 35 8
50 25 21 25 -39 0 -70 -19 -77 -46 -17 -69 114 -103 160 -41 22 30 21 38 -27
171 -24 65 -27 69 -59 73 -19 2 -39 -2 -46 -9z m39 -18 c22 -12 26 -40 4 -40
-8 0 -19 9 -25 19 -17 33 -12 38 21 21z"/>
<path d="M2919 6111 l-24 -20 33 -30 c39 -36 36 -35 56 -15 21 21 20 40 -4 64
-25 25 -32 25 -61 1z m45 -17 c19 -7 22 -44 3 -44 -17 0 -37 20 -37 37 0 14
10 16 34 7z"/>
<path d="M3955 6088 c-19 -12 -18 -13 10 -18 21 -4 29 -11 27 -23 -2 -10 3
-17 12 -17 8 0 18 -5 22 -11 5 -8 -3 -10 -25 -7 -40 6 -50 -8 -17 -23 20 -10
30 -9 51 5 30 20 32 42 5 51 -11 3 -20 13 -20 20 0 8 -9 19 -19 25 -24 12 -21
12 -46 -2z"/>
<path d="M4300 6076 c0 -8 8 -13 17 -12 10 0 19 -7 21 -19 2 -11 13 -27 25
-36 20 -16 19 -17 -21 -24 -22 -3 -47 -14 -54 -22 -12 -15 -9 -16 24 -10 84
13 124 55 74 78 -13 6 -27 22 -30 35 -5 17 -13 24 -31 24 -15 0 -25 -6 -25
-14z"/>
<path d="M1595 6061 c-3 -5 6 -22 21 -38 42 -45 73 -106 80 -156 6 -44 5 -48
-30 -83 -38 -38 -42 -53 -9 -36 36 20 65 61 70 100 6 48 -27 128 -77 185 -33
38 -45 44 -55 28z"/>
<path d="M1296 6008 c-27 -38 -21 -142 9 -195 14 -23 30 -43 35 -43 13 0 14
-2 -15 54 -34 68 -36 167 -3 190 18 13 19 16 6 16 -9 0 -24 -10 -32 -22z"/>
<path d="M3237 6023 c-17 -17 -2 -23 53 -23 47 0 60 3 60 15 0 11 -13 15 -53
15 -30 0 -57 -3 -60 -7z"/>
<path d="M350 5958 c1 -70 17 -208 25 -217 11 -10 25 24 25 62 0 26 4 37 13
35 13 -4 50 -72 60 -110 5 -18 9 -20 19 -10 9 9 8 23 -5 65 -21 66 -46 92 -82
83 -23 -6 -25 -4 -27 31 -4 88 -5 99 -6 111 -1 6 -6 12 -12 12 -6 0 -10 -27
-10 -62z"/>
<path d="M3049 5986 c-2 -2 -87 -9 -189 -15 -174 -11 -420 -38 -429 -47 -14
-13 25 -13 180 1 96 8 222 15 281 15 123 0 208 15 208 36 0 12 -40 20 -51 10z"/>
<path d="M955 5920 c-4 -22 -11 -42 -16 -46 -5 -3 -9 -10 -9 -16 0 -7 5 -6 14
1 12 10 17 2 30 -43 18 -61 24 -66 49 -38 21 23 22 33 3 26 -16 -6 -36 49 -36
98 0 64 -25 77 -35 18z"/>
<path d="M1447 5944 c-3 -3 -3 -21 0 -40 5 -33 4 -34 -26 -34 -33 0 -42 -14
-15 -24 21 -8 54 2 54 15 0 6 10 3 22 -5 26 -19 59 -21 75 -5 9 9 16 8 28 -5
9 -9 20 -16 25 -16 18 0 21 21 6 36 -9 8 -19 26 -22 40 -8 32 -34 31 -34 -1 0
-14 -7 -28 -16 -32 -17 -6 -60 30 -70 59 -5 18 -16 23 -27 12z"/>
<path d="M3222 5938 c-6 -8 -9 -18 -5 -21 10 -11 113 -8 113 3 0 13 -45 24
-70 17 -10 -3 -21 0 -22 5 -2 6 -9 4 -16 -4z"/>
<path d="M1067 5902 c-22 -24 -21 -29 6 -69 16 -24 30 -33 50 -33 58 0 89 73
45 104 -30 22 -81 20 -101 -2z m81 -28 c27 -19 28 -30 2 -44 -16 -8 -24 -8
-35 4 -8 8 -20 16 -27 18 -18 6 -1 38 19 38 10 0 29 -7 41 -16z"/>
<path d="M700 5864 c0 -25 96 -34 118 -12 22 22 12 27 -53 25 -41 -1 -65 -6
-65 -13z"/>
<path d="M2713 5843 c-26 -10 -12 -23 26 -23 56 0 66 -18 35 -64 -26 -38 -26
-66 0 -66 8 0 38 5 66 11 39 8 54 8 65 -1 12 -10 15 -9 15 9 0 29 -16 33 -83
23 -31 -5 -57 -8 -57 -6 0 2 9 18 20 36 25 42 25 64 1 78 -20 10 -66 12 -88 3z"/>
<path d="M717 5794 c-13 -14 6 -24 43 -24 50 0 77 10 58 21 -15 10 -92 12
-101 3z"/>
<path d="M550 5765 c-10 -13 -9 -15 9 -15 14 0 21 -6 21 -20 0 -10 9 -28 21
-39 l21 -19 -32 -7 c-22 -5 -35 -3 -40 5 -10 17 -30 3 -30 -21 0 -15 7 -19 38
-19 74 0 120 52 73 82 -12 7 -21 20 -21 28 0 35 -38 51 -60 25z"/>
<path d="M3016 5645 c-18 -19 -20 -31 -6 -40 6 -3 10 1 10 10 0 10 7 15 18 13
18 -4 21 -36 7 -89 -7 -25 -5 -27 35 -31 22 -2 43 -2 45 1 9 8 -17 31 -35 31
-15 0 -17 9 -16 58 1 51 -1 57 -20 60 -12 2 -29 -4 -38 -13z"/>
<path d="M4260 5642 c0 -10 18 -66 40 -125 22 -58 40 -115 40 -126 0 -31 28
-25 32 7 4 27 4 26 23 -13 25 -52 24 -50 37 -37 15 15 -30 104 -60 117 -12 5
-25 19 -28 30 -4 11 -20 53 -36 93 -29 70 -48 91 -48 54z"/>
<path d="M1513 5623 c-10 -16 -21 -31 -26 -34 -5 -3 8 -52 29 -107 28 -75 40
-99 49 -92 7 6 10 21 7 35 l-4 25 47 -15 c27 -7 53 -19 58 -24 16 -16 27 -13
27 8 0 25 -16 36 -75 53 l-49 15 28 18 c55 36 52 101 -5 131 -42 21 -67 17
-86 -13z m84 -35 c30 -28 29 -32 -8 -59 -36 -25 -46 -19 -55 39 -6 39 -5 42
17 42 12 0 33 -10 46 -22z"/>
<path d="M360 5550 c-12 -12 -19 -24 -17 -28 3 -4 15 -51 27 -104 15 -64 28
-98 37 -98 8 0 13 11 13 29 0 28 1 29 31 21 17 -5 50 -20 74 -34 37 -22 45
-24 55 -11 10 12 3 20 -36 45 -27 17 -66 33 -86 37 -21 3 -38 9 -38 14 0 5 4
9 9 9 21 0 71 59 71 83 0 53 -98 79 -140 37z m98 -26 c30 -21 28 -29 -14 -55
-36 -22 -37 -22 -50 -4 -8 10 -14 31 -14 47 0 24 4 28 28 28 15 0 38 -7 50
-16z"/>
<path d="M1258 5539 c-30 -17 -22 -56 15 -75 17 -9 33 -18 35 -19 2 -2 -4 -18
-13 -36 -16 -31 -16 -33 1 -46 24 -17 33 -17 72 7 45 28 43 64 -6 89 -16 9
-21 18 -17 31 4 12 -2 27 -14 39 -23 23 -46 26 -73 10z m60 -42 c2 -12 -1 -15
-12 -11 -19 7 -22 38 -3 32 6 -3 13 -12 15 -21z m52 -92 c0 -10 -10 -15 -30
-15 -33 0 -35 2 -20 31 9 15 15 17 30 9 11 -6 20 -17 20 -25z"/>
<path d="M1017 5522 c-22 -24 -22 -39 -1 -18 22 23 64 21 64 -2 0 -10 -7 -27
-15 -38 -19 -26 -19 -34 3 -34 10 0 27 -7 38 -15 16 -13 17 -16 4 -25 -8 -6
-33 -9 -55 -8 -30 2 -40 -1 -40 -12 0 -20 62 -25 95 -7 33 17 35 68 4 81 -18
8 -20 16 -16 53 l5 43 -35 0 c-21 0 -41 -7 -51 -18z"/>
<path d="M1756 5473 c-4 -5 -13 -8 -19 -8 -7 0 -13 -19 -15 -42 -2 -34 0 -43
12 -43 10 0 16 9 16 24 0 39 19 41 56 5 35 -34 50 -34 40 -1 -17 52 -67 88
-90 65z"/>
<path d="M782 5463 c-6 -2 -10 -9 -6 -14 7 -12 101 -12 108 0 10 16 -69 27
-102 14z"/>
<path d="M3476 5459 c-4 -8 5 -45 19 -83 14 -37 22 -73 19 -79 -4 -7 11 5 33
26 27 26 45 36 57 31 11 -4 27 3 46 21 35 34 56 28 76 -20 8 -21 19 -33 25
-29 17 10 1 66 -28 96 -16 17 -21 28 -13 28 7 0 10 3 7 6 -4 4 -25 -5 -47 -20
-48 -31 -52 -32 -75 -6 -22 24 -48 26 -70 4 -18 -18 -17 -19 -32 16 -9 20 -12
22 -17 9z m90 -98 c-23 -25 -36 -19 -36 18 0 38 10 45 34 22 19 -20 19 -21 2
-40z"/>
<path d="M3910 5451 c0 -6 -16 -7 -35 -4 -62 10 -100 -51 -57 -90 23 -21 51
-22 80 -1 26 18 24 19 45 -22 l16 -32 -34 -6 c-45 -9 -74 -34 -81 -73 -5 -26
-1 -37 19 -57 30 -30 64 -33 107 -11 62 32 65 83 10 188 -22 41 -40 85 -40 96
0 12 -6 21 -15 21 -8 0 -15 -4 -15 -9z m-12 -52 c4 -20 -28 -30 -52 -17 -9 5
-16 16 -16 24 0 22 64 15 68 -7z m82 -138 c5 -11 10 -31 10 -45 0 -43 -66 -62
-102 -29 -29 26 -23 57 15 76 43 21 64 21 77 -2z"/>
<path d="M2960 5431 c-15 -29 -12 -34 12 -17 16 11 25 13 35 4 21 -17 16 -41
-8 -35 -13 3 -19 1 -16 -6 6 -19 41 -14 45 6 2 10 1 29 -2 43 -8 30 -50 33
-66 5z"/>
<path d="M610 5400 c0 -6 7 -13 16 -17 12 -4 14 -14 10 -37 -5 -28 -3 -33 24
-43 46 -17 37 -33 -16 -28 -39 4 -45 2 -42 -13 3 -13 14 -17 51 -16 83 1 102
49 33 82 -20 10 -25 18 -21 33 4 11 1 26 -5 34 -14 17 -50 20 -50 5z"/>
<path d="M4496 5387 c-17 -25 -25 -110 -12 -117 5 -3 15 16 24 43 8 26 18 47
21 47 3 0 20 -21 36 -45 31 -47 39 -52 50 -34 10 14 -54 105 -82 118 -19 9
-25 7 -37 -12z"/>
<path d="M4107 5388 c-20 -16 -36 -108 -18 -108 6 0 14 14 18 30 8 44 20 46
63 11 72 -57 83 -32 16 35 -47 48 -54 50 -79 32z"/>
<path d="M792 5378 c5 -14 61 -23 86 -13 14 5 14 7 2 15 -23 15 -92 12 -88 -2z"/>
<path d="M1166 5373 c4 -10 7 -35 6 -56 -1 -23 2 -35 8 -32 20 12 9 105 -12
105 -6 0 -7 -7 -2 -17z"/>
<path d="M3240 5341 c0 -10 13 -15 68 -26 24 -5 32 -3 32 8 0 8 -10 17 -22 21
-35 9 -78 7 -78 -3z"/>
<path d="M2830 5285 c-321 -35 -330 -36 -330 -46 0 -13 26 -12 270 11 118 11
242 20 276 20 66 0 80 6 63 27 -14 16 -29 16 -279 -12z"/>
<path d="M3250 5246 c0 -12 9 -16 34 -16 19 0 38 5 41 10 3 6 -5 10 -19 10
-13 0 -31 3 -40 6 -11 4 -16 1 -16 -10z"/>
<path d="M1657 5154 c-8 -106 -17 -106 -100 6 -19 27 -41 45 -53 45 -16 0 -19
-6 -17 -46 2 -42 43 -183 58 -197 3 -4 10 -1 14 6 10 17 -12 111 -34 145 -9
15 -15 32 -13 38 2 7 22 -14 44 -47 46 -69 71 -78 103 -38 20 26 22 26 27 8
13 -48 51 -128 62 -132 20 -6 14 32 -22 131 -19 52 -36 105 -38 118 -1 12 -8
24 -14 26 -7 2 -13 -20 -17 -63z"/>
<path d="M404 5155 c-10 -25 19 -231 31 -225 12 6 12 44 2 115 -7 49 -7 50 10
27 60 -79 70 -87 88 -72 10 8 25 30 32 49 l15 35 30 -72 c33 -80 54 -95 44
-31 -9 57 -63 172 -78 167 -7 -3 -19 -30 -26 -61 -8 -31 -18 -57 -22 -57 -4 0
-22 22 -39 48 -17 27 -42 59 -56 72 -22 21 -25 22 -31 5z"/>
<path d="M2826 5161 c-3 -5 8 -11 24 -14 38 -8 52 -35 40 -78 -14 -47 -2 -53
71 -40 68 12 74 15 64 31 -5 7 -25 9 -62 4 l-55 -7 7 32 c9 44 -16 81 -55 81
-16 0 -31 -4 -34 -9z"/>
<path d="M1135 5125 c-36 -36 -32 -51 20 -64 l45 -11 -15 -30 c-29 -56 -11
-89 39 -74 57 17 73 69 32 102 -17 13 -23 25 -20 40 7 25 -27 62 -56 62 -12 0
-32 -11 -45 -25z m65 -20 c7 -9 10 -18 7 -21 -5 -6 -67 23 -67 31 0 12 49 3
60 -10z m48 -87 c18 -18 15 -27 -15 -39 -34 -13 -49 1 -31 30 15 24 28 27 46
9z"/>
<path d="M1342 5112 c-26 -50 -27 -53 -7 -46 10 4 15 0 15 -14 0 -32 11 -52
27 -52 12 0 13 7 8 28 -4 15 -10 50 -14 77 l-6 50 -23 -43z"/>
<path d="M1857 5102 c-16 -17 -42 -111 -33 -119 10 -10 25 9 31 40 13 65 15
69 32 56 8 -7 21 -26 29 -42 19 -36 28 -29 20 17 -11 60 -48 83 -79 48z"/>
<path d="M4282 5078 c-7 -7 -12 -19 -12 -28 0 -23 26 -119 45 -163 13 -31 19
-36 30 -27 15 13 6 64 -22 115 l-16 30 33 -32 c39 -39 52 -41 78 -8 19 24 32
24 32 -1 0 -28 42 -124 55 -124 16 0 30 33 16 38 -5 2 -21 42 -36 90 -14 48
-28 93 -30 100 -3 6 -9 12 -15 12 -12 0 -16 -10 -25 -62 -3 -22 -12 -38 -19
-38 -8 0 -32 25 -55 55 -23 30 -43 55 -44 55 -2 0 -8 -5 -15 -12z"/>
<path d="M937 5063 c-26 -25 46 -33 79 -8 18 13 16 14 -27 15 -25 0 -49 -3
-52 -7z"/>
<path d="M738 5039 c-26 -14 -24 -42 2 -34 17 5 20 2 20 -24 0 -23 5 -31 18
-31 14 0 15 -2 2 -10 -8 -5 -30 -10 -48 -10 -26 0 -33 -4 -30 -17 4 -25 40
-28 83 -7 56 26 71 74 24 74 -13 0 -19 7 -19 23 0 21 -17 47 -29 47 -4 0 -14
-5 -23 -11z"/>
<path d="M4175 4986 c-41 -49 -49 -54 -66 -43 -15 9 -24 9 -41 -2 -16 -10 -23
-10 -26 -2 -2 6 -11 11 -19 11 -11 0 -13 -5 -8 -17 31 -73 33 -88 18 -105 -15
-17 -5 -26 11 -10 4 4 13 7 19 7 7 0 13 10 15 22 2 12 10 27 19 34 12 11 17
10 24 -4 13 -23 28 -21 56 5 l24 22 24 -29 c23 -28 24 -29 25 -8 0 34 -18 73
-34 73 -9 0 -24 -10 -36 -22 -15 -17 -23 -19 -32 -10 -12 12 -7 21 56 89 16
18 27 35 24 38 -3 3 -27 -19 -53 -49z m-77 -88 c-6 -18 -28 -21 -28 -4 0 9 7
16 16 16 9 0 14 -5 12 -12z"/>
<path d="M953 5008 c-9 -16 9 -28 42 -28 38 0 65 8 65 20 0 10 -100 17 -107 8z"/>
<path d="M3734 5001 c-38 -23 -44 -32 -54 -77 -25 -110 100 -229 205 -194 65
21 95 89 56 124 -26 24 -124 19 -129 -6 -3 -14 3 -16 32 -11 54 9 86 -3 86
-32 0 -33 -32 -48 -88 -42 -50 5 -87 29 -119 77 -26 38 -31 98 -8 106 8 4 15
12 15 20 0 22 68 29 108 10 42 -20 67 -7 40 20 -26 26 -107 29 -144 5z"/>
<path d="M2774 4892 c-69 -75 -72 -76 -91 -59 -23 20 -59 23 -66 5 -4 -10 -8
-9 -16 2 -7 10 -13 12 -20 5 -10 -10 22 -92 41 -106 4 -3 -8 -24 -27 -46 -58
-68 -39 -62 24 7 49 55 61 63 73 52 13 -10 17 -8 28 18 7 16 18 35 26 41 12
10 18 4 32 -30 9 -22 20 -41 25 -41 17 0 5 61 -17 87 l-25 29 41 48 c30 35 43
44 49 34 6 -9 9 -7 9 10 0 12 -3 22 -7 22 -5 0 -40 -35 -79 -78z m-110 -94 c7
-12 6 -21 -4 -33 -16 -19 -30 -4 -30 33 0 26 17 26 34 0z"/>
<path d="M4572 4958 c-6 -6 -12 -19 -12 -27 0 -12 3 -12 12 -3 20 20 28 14 22
-16 -5 -25 -2 -30 35 -47 46 -20 53 -35 17 -35 -38 0 -86 -12 -86 -21 0 -15
94 -10 118 7 32 22 27 40 -20 66 -35 19 -42 28 -43 53 0 32 -22 44 -43 23z"/>
<path d="M1219 4886 c-4 -4 -869 -20 -981 -19 -38 1 -68 -2 -68 -6 0 -13 92
-20 167 -15 37 3 309 9 603 13 420 7 591 5 795 -6 277 -15 336 -14 342 3 2 7
-72 14 -229 22 -217 12 -619 17 -629 8z"/>
<path d="M2890 4838 c-26 -28 -26 -72 0 -98 22 -22 65 -27 76 -9 4 8 9 7 15
-2 6 -10 -4 -19 -34 -34 -58 -28 -69 -61 -36 -110 13 -19 44 -45 68 -57 40
-19 47 -20 70 -7 41 23 39 67 -5 157 -20 43 -40 94 -43 115 -5 34 -11 41 -46
53 -22 7 -41 14 -42 14 -1 0 -11 -10 -23 -22z m52 -25 c20 -17 25 -53 7 -53
-35 0 -63 42 -42 63 9 10 15 9 35 -10z m84 -166 c24 -44 33 -82 24 -96 -10
-17 -70 9 -105 43 -36 36 -32 61 13 79 43 17 47 16 68 -26z"/>
<path d="M3387 4813 c-22 -21 -3 -30 68 -32 72 -2 115 9 115 29 0 11 -173 14
-183 3z"/>
<path d="M417 4774 c-11 -12 -8 -67 9 -151 9 -43 18 -89 20 -101 4 -20 7 -22
20 -11 10 8 13 21 9 37 -8 33 3 62 24 62 23 0 45 -25 69 -78 16 -35 21 -40 31
-28 18 21 4 61 -39 108 l-39 43 -32 -18 c-17 -10 -33 -16 -34 -15 -2 2 -9 38
-16 81 -8 43 -18 75 -22 71z"/>
<path d="M3133 4765 c-17 -14 -17 -14 5 -15 17 0 22 -6 22 -24 0 -20 6 -25 40
-31 79 -13 51 -38 -39 -34 -53 3 -67 -3 -56 -20 9 -15 105 -13 135 2 16 8 25
21 25 37 0 24 -8 29 -72 46 -7 2 -13 12 -13 23 0 25 -23 33 -47 16z"/>
<path d="M1032 4762 c-7 -2 -12 -15 -12 -29 0 -21 3 -23 14 -14 11 9 19 9 36
-1 27 -17 35 -50 22 -88 -13 -35 0 -40 22 -8 44 62 -15 163 -82 140z"/>
<path d="M3410 4711 c0 -15 29 -21 111 -21 83 0 106 13 42 24 -57 9 -153 7
-153 -3z"/>
<path d="M3987 4692 c-9 -2 -17 -8 -17 -13 0 -5 131 -9 323 -9 177 0 339 -3
360 -6 33 -6 37 -4 37 15 l0 22 -343 -3 c-188 -2 -350 -4 -360 -6z"/>
<path d="M4548 4619 c-30 -17 -21 -30 16 -24 40 8 56 -9 26 -25 -34 -18 -20
-42 33 -56 44 -11 47 -11 47 7 0 12 -9 21 -25 25 -29 7 -29 8 -14 36 9 18 8
24 -7 35 -21 15 -52 16 -76 2z"/>
<path d="M4230 4601 c-18 -34 -11 -74 25 -150 27 -55 39 -71 47 -63 9 9 9 18
0 37 l-12 25 60 0 c71 0 78 15 15 31 -44 11 -55 22 -35 34 17 11 11 64 -10 85
-26 26 -76 26 -90 1z m67 -36 l28 -25 -24 -20 c-29 -25 -40 -17 -48 33 -7 44
5 47 44 12z"/>
<path d="M870 4592 c0 -14 25 -22 73 -22 30 0 38 3 30 11 -15 15 -103 25 -103
11z"/>
<path d="M711 4577 c-12 -15 -41 -93 -41 -110 0 -20 24 13 41 56 l17 42 21
-47 c12 -26 26 -50 31 -53 17 -10 11 37 -10 83 -19 43 -39 52 -59 29z"/>
<path d="M4463 4473 c-23 -9 -14 -23 14 -23 21 0 24 -3 15 -12 -19 -19 -15
-27 24 -43 51 -21 34 -37 -40 -34 -47 2 -61 0 -61 -12 0 -18 68 -24 116 -10
58 17 63 61 9 79 -23 8 -27 15 -23 36 5 22 2 26 -18 25 -13 0 -30 -3 -36 -6z"/>
<path d="M1100 4445 c0 -16 6 -25 15 -25 8 0 15 9 15 19 0 10 -7 21 -15 25
-11 4 -15 -1 -15 -19z"/>
<path d="M4155 4275 l-7 -55 -48 51 c-36 38 -53 50 -71 47 -16 -2 -25 -11 -27
-26 -5 -34 47 -182 64 -182 19 0 18 20 -7 77 -27 60 -39 103 -31 103 3 0 29
-25 58 -56 58 -64 79 -66 89 -10 l7 35 29 -58 c34 -67 66 -102 74 -80 7 19
-93 209 -110 209 -9 0 -16 -18 -20 -55z"/>
<path d="M3589 4279 c-35 -37 -44 -82 -29 -139 13 -48 46 -86 84 -96 42 -10
93 4 115 32 26 33 16 55 -35 79 -32 15 -38 15 -51 3 -12 -13 -8 -17 31 -32 67
-26 60 -47 -14 -48 -44 0 -72 18 -96 64 -19 38 -18 104 2 112 28 11 69 6 92
-10 23 -16 42 -12 42 10 0 11 -84 56 -105 56 -4 0 -20 -14 -36 -31z"/>
<path d="M3937 4243 c-29 -29 -44 -37 -72 -36 -19 1 -35 0 -35 -2 0 -10 43
-95 50 -100 16 -10 23 21 11 44 -15 28 4 37 23 10 11 -17 21 -20 41 -15 20 5
31 2 40 -11 18 -25 28 -11 15 22 -9 23 -14 26 -36 21 -19 -5 -30 -2 -39 11
-12 16 -10 22 17 50 44 46 30 50 -15 6z"/>
<path d="M2805 4205 l-64 -68 -10 26 c-14 35 -47 36 -63 1 l-12 -25 -14 26
c-9 18 -17 24 -24 17 -7 -7 -6 -17 2 -32 6 -12 18 -44 26 -71 8 -27 19 -47 24
-44 6 4 10 33 10 66 0 61 11 75 31 38 8 -16 8 -28 -1 -48 -11 -25 -11 -25 7
-8 11 9 23 17 27 17 4 0 20 9 36 20 30 22 40 18 40 -16 0 -13 5 -26 10 -29 6
-4 10 11 10 38 0 51 -16 64 -50 40 -21 -15 -22 -15 -12 4 6 11 32 39 57 62 26
24 44 46 40 49 -3 3 -35 -25 -70 -63z"/>
<path d="M4377 4202 c-17 -18 -47 -84 -47 -102 0 -26 23 -5 45 41 l23 51 27
-42 c14 -23 29 -48 32 -56 8 -21 23 -17 23 6 0 39 -51 120 -75 120 -7 0 -19
-8 -28 -18z"/>
<path d="M2922 4180 c-28 -46 3 -109 47 -95 16 5 23 0 34 -27 22 -54 27 -94
13 -113 -11 -16 -15 -16 -49 -1 -55 22 -60 51 -12 69 6 3 7 7 4 11 -11 12 -57
-12 -64 -33 -20 -65 124 -119 149 -56 11 30 6 74 -14 127 -11 29 -20 66 -20
82 0 50 -63 76 -88 36z m46 -36 l3 -29 -22 21 c-12 12 -18 27 -14 34 12 19 30
5 33 -26z"/>
<path d="M3820 4130 c-14 -10 -22 -21 -19 -24 3 -3 16 5 29 19 28 30 24 32
-10 5z"/>
<path d="M3133 4122 c-7 -5 -16 -30 -19 -57 -5 -35 -4 -46 4 -41 7 4 12 17 12
30 0 38 12 38 46 -2 40 -45 44 -27 8 34 -27 46 -31 49 -51 36z"/>
<path d="M3290 4108 c0 -9 18 -14 50 -15 49 -2 66 9 34 21 -28 11 -84 7 -84
-6z"/>
<path d="M3318 4043 c-16 -2 -28 -9 -28 -15 0 -13 110 -2 124 12 10 10 -40 11
-96 3z"/>
<path d="M3700 4000 c-19 -4 -33 -8 -30 -9 8 -4 607 -15 780 -16 140 0 155 2
158 18 3 16 -22 17 -435 16 -241 -1 -454 -5 -473 -9z"/>
<path d="M4250 3963 c-8 -2 -21 -7 -29 -9 -11 -3 -11 -7 -1 -20 9 -9 17 -11
23 -5 5 5 16 8 23 5 49 -15 49 -13 19 -44 -40 -41 -29 -60 35 -60 44 0 51 3
48 17 -2 10 -15 20 -30 23 -22 4 -25 8 -18 20 30 47 -13 93 -70 73z"/>
<path d="M3941 3924 c-21 -15 -23 -22 -18 -69 6 -59 52 -159 70 -152 7 3 11
10 9 16 -1 8 10 9 36 5 30 -5 40 -3 45 10 8 19 3 22 -51 31 l-43 7 40 35 c47
40 52 69 19 100 -33 30 -78 37 -107 17z m77 -40 c12 -8 22 -21 22 -29 0 -13
-46 -55 -60 -55 -6 0 -40 82 -40 97 0 10 59 1 78 -13z"/>
<path d="M4172 3767 c-16 -19 -28 -102 -14 -93 7 4 12 15 12 25 0 9 6 25 13
35 13 18 15 17 36 -13 12 -17 29 -31 37 -31 20 0 18 10 -11 53 -26 38 -54 47
-73 24z"/>
<path d="M1727 3630 c-5 -18 -13 -20 -99 -20 -162 0 -572 -23 -585 -33 -21
-16 -15 -31 35 -98 50 -66 82 -120 82 -139 0 -19 -29 -10 -63 20 -19 17 -37
30 -41 30 -16 0 -3 -29 27 -58 39 -38 81 -43 97 -11 18 32 3 72 -56 153 l-54
76 68 1 c37 0 97 3 134 8 44 4 72 3 79 -3 7 -8 14 -6 22 5 10 14 44 18 193 24
l180 7 38 -81 c21 -45 40 -96 42 -114 1 -18 3 -34 3 -36 2 -12 31 25 31 40 0
45 43 32 71 -23 14 -28 24 -37 31 -30 16 16 0 61 -33 94 -27 28 -31 29 -52 15
-21 -14 -23 -12 -58 57 l-35 71 160 11 c89 6 166 9 173 7 7 -3 17 -21 24 -40
7 -24 14 -32 21 -25 15 15 0 80 -20 91 -10 6 -59 6 -122 1 -169 -14 -260 -13
-266 5 -8 21 -21 19 -27 -5z"/>
<path d="M3400 3632 c-130 -18 -595 -23 -785 -8 -163 13 -166 2 -58 -202 30
-57 53 -105 51 -108 -3 -2 -28 14 -56 37 -29 22 -52 35 -52 28 0 -21 97 -111
117 -107 37 7 27 53 -41 181 -36 68 -66 128 -66 132 0 4 57 4 128 -1 70 -4
160 -8 200 -9 51 0 72 -4 72 -12 0 -17 5 -16 43 4 26 13 58 16 167 14 74 -1
158 3 185 8 28 6 113 14 190 17 l140 7 18 -52 c19 -56 44 -61 32 -7 -3 17 -7
42 -8 56 -1 14 -6 28 -12 32 -16 12 -141 7 -265 -10z"/>
<path d="M276 3594 c-9 -24 4 -114 22 -149 48 -97 136 -123 210 -60 17 14 37
23 45 19 8 -3 18 -1 21 5 4 5 -3 12 -14 16 -17 5 -19 12 -14 44 8 50 -17 111
-46 111 -31 0 -55 -61 -40 -105 6 -18 18 -39 26 -45 21 -18 17 -27 -17 -39
-56 -19 -113 9 -146 72 -18 35 -33 127 -22 127 5 0 9 5 9 10 0 16 -27 11 -34
-6z m249 -91 c8 -46 -7 -63 -29 -32 -16 24 -22 70 -9 82 12 12 31 -13 38 -50z"/>
<path d="M3200 3545 c0 -23 66 -205 75 -205 6 0 16 15 23 33 l13 32 28 -32
c15 -18 31 -33 35 -33 12 0 -3 53 -21 73 -20 21 -31 21 -54 1 -16 -14 -18 -11
-34 38 -20 60 -41 98 -55 98 -6 0 -10 -2 -10 -5z"/>
<path d="M2682 3474 c-12 -8 -20 -20 -17 -25 9 -13 43 -11 47 3 7 21 58 -7 58
-31 0 -11 -14 -36 -31 -55 -41 -48 -31 -60 44 -53 79 7 100 27 29 27 -29 0
-52 2 -52 5 0 2 9 19 20 37 25 42 25 63 0 88 -24 24 -67 26 -98 4z"/>
<path d="M1216 3465 c-4 -11 1 -15 17 -15 31 0 67 -27 67 -51 0 -11 -7 -31
-16 -45 -20 -30 -17 -34 33 -41 25 -3 45 1 58 11 19 15 19 15 -10 16 -46 1
-58 12 -45 44 7 18 7 33 0 46 -23 44 -92 66 -104 35z"/>
<path d="M2923 3438 c-28 -14 -37 -41 -23 -68 11 -20 25 -25 71 -21 22 2 29
-5 43 -39 9 -22 16 -58 16 -80 0 -35 -3 -40 -27 -46 -29 -8 -69 10 -87 39 -14
22 2 33 56 42 44 8 41 25 -3 25 -63 0 -99 -41 -79 -91 7 -16 16 -29 19 -29 4
0 15 -6 24 -12 14 -11 -47 -14 -320 -16 -334 -2 -487 -12 -507 -32 -7 -7 -7
-17 2 -30 7 -11 26 -83 42 -160 16 -77 46 -203 66 -281 19 -77 34 -155 32
-172 l-3 -32 -41 61 c-34 52 -60 107 -80 172 -5 18 -98 16 -114 -3 -11 -13 -6
-15 37 -15 l50 0 21 -57 c27 -73 91 -182 115 -195 30 -15 47 8 47 63 0 27 -21
129 -46 226 -36 142 -94 386 -94 399 0 1 24 6 53 10 51 8 166 11 682 18 143 2
321 9 395 15 74 7 194 14 266 18 l131 6 7 -29 c6 -22 9 -25 17 -13 13 21 11
66 -3 71 -14 5 -176 -5 -368 -21 -168 -15 -339 -23 -320 -15 8 4 25 16 38 27
29 27 30 97 2 167 -11 28 -20 59 -20 69 0 12 -9 21 -24 25 -13 3 -30 8 -38 10
-7 3 -23 0 -35 -6z m57 -43 c10 -13 9 -15 -9 -15 -13 0 -29 7 -37 15 -14 13
-13 15 9 15 14 0 30 -7 37 -15z"/>
<path d="M1463 3419 c-18 -12 -33 -23 -33 -25 0 -2 10 -20 23 -39 25 -40 55
-52 87 -35 24 13 23 13 39 -17 16 -30 16 -30 -34 -36 -25 -2 -54 -12 -64 -21
-65 -59 10 -146 98 -115 38 13 61 49 61 92 0 40 -63 174 -94 199 -27 23 -44
22 -83 -3z m61 -25 c33 -33 9 -47 -32 -18 -23 16 -21 34 3 34 7 0 21 -7 29
-16z m84 -179 c4 -35 -18 -55 -63 -55 -36 0 -71 31 -62 54 7 17 60 35 97 33
20 -2 26 -8 28 -32z"/>
<path d="M792 3413 c-10 -4 -10 -8 -1 -19 17 -20 129 -20 129 1 0 11 -12 15
-44 15 -24 0 -50 2 -58 4 -7 3 -19 2 -26 -1z"/>
<path d="M1997 3413 c-14 -13 -6 -23 18 -23 21 0 25 -5 25 -31 0 -25 6 -32 36
-45 44 -19 36 -30 -30 -41 -27 -5 -51 -14 -54 -22 -4 -11 6 -13 49 -7 102 14
131 59 58 91 -29 13 -39 24 -36 35 7 26 -11 50 -37 50 -12 0 -26 -3 -29 -7z"/>
<path d="M604 3386 c-8 -20 39 -69 61 -64 10 1 23 11 29 21 9 15 7 22 -13 38
-27 22 -69 25 -77 5z m66 -36 c0 -5 -4 -10 -9 -10 -6 0 -13 5 -16 10 -3 6 1
10 9 10 9 0 16 -4 16 -10z"/>
<path d="M1657 3393 c-17 -17 -6 -33 18 -27 16 4 25 2 25 -6 0 -6 10 -20 22
-29 l21 -18 -24 1 c-31 1 -33 -28 -2 -32 54 -8 85 45 39 66 -13 6 -27 20 -31
31 -4 15 -15 21 -34 21 -15 0 -31 -3 -34 -7z"/>
<path d="M2275 3393 c-33 -8 -42 -23 -13 -23 40 0 88 12 88 21 0 9 -40 10 -75
2z"/>
<path d="M3127 3368 c-10 -7 -20 -31 -24 -53 -6 -36 -5 -39 10 -26 10 7 17 19
17 27 0 26 22 25 47 -2 33 -36 43 -17 16 29 -22 36 -40 43 -66 25z"/>
<path d="M3457 3367 c-20 -14 -36 -87 -18 -87 6 0 13 11 17 25 3 14 10 25 15
25 14 0 38 -42 32 -58 -4 -10 -1 -13 8 -10 22 7 22 50 -1 86 -22 35 -28 38
-53 19z"/>
<path d="M827 3344 c-17 -17 -3 -24 48 -24 30 0 55 5 55 10 0 6 -15 10 -34 10
-19 0 -41 2 -48 5 -8 3 -17 2 -21 -1z"/>
<path d="M2274 3328 c-9 -14 19 -20 61 -13 65 9 64 23 -1 22 -31 -1 -58 -5
-60 -9z"/>
<path d="M1327 3089 c-98 -4 -195 -10 -215 -14 -20 -4 -170 -9 -332 -11 -405
-5 -569 -15 -603 -37 -31 -20 -35 -53 -12 -96 8 -16 19 -49 24 -73 15 -64 33
-347 26 -391 l-7 -38 -29 62 c-17 35 -37 89 -46 121 -17 62 -29 68 -91 52 -39
-11 -25 -27 17 -20 39 6 39 6 46 -32 7 -46 101 -267 112 -266 40 2 22 435 -23
573 -18 54 -22 76 -13 81 22 14 150 21 554 31 226 5 431 12 458 15 44 6 47 5
47 -16 0 -13 14 -88 32 -167 32 -144 50 -175 56 -97 5 60 18 62 46 5 25 -48
46 -66 46 -38 0 6 -11 36 -25 65 -25 54 -55 69 -73 36 -6 -11 -17 17 -36 96
-16 61 -26 113 -24 115 3 3 64 7 137 9 120 4 135 2 152 -15 17 -17 24 -39 20
-62 -1 -5 4 -7 11 -5 7 3 14 19 16 36 3 25 -4 39 -27 62 -16 17 -38 29 -48 28
-10 0 -98 -4 -196 -9z"/>
<path d="M3260 3088 c0 -27 85 -258 95 -255 5 2 12 18 16 36 4 17 9 35 13 38
9 9 33 -15 46 -47 15 -36 45 -42 35 -7 -13 40 -41 82 -59 85 -10 2 -26 -4 -36
-13 -22 -20 -19 -24 -65 105 -21 59 -45 90 -45 58z"/>
<path d="M2777 3043 c-20 -20 7 -243 31 -251 15 -5 15 14 -3 113 -20 111 -19
114 17 64 56 -78 92 -90 111 -39 13 34 27 40 27 10 0 -32 31 -101 44 -97 6 3
9 11 7 18 -2 8 -13 49 -24 92 -22 85 -35 93 -55 31 -7 -21 -17 -43 -22 -48
-12 -12 -43 15 -78 71 -26 41 -41 51 -55 36z"/>
<path d="M624 2995 c-4 -9 -2 -54 4 -99 7 -44 14 -102 17 -128 7 -52 30 -82
42 -53 3 10 0 46 -7 79 -24 114 -24 115 4 69 39 -61 82 -68 109 -16 13 23 14
22 36 -42 14 -38 29 -65 37 -65 8 0 14 6 13 13 -2 30 -65 199 -74 198 -5 0
-13 -19 -16 -41 -12 -87 -45 -79 -101 25 -38 73 -54 87 -64 60z"/>
<path d="M2530 2987 c-34 -17 -62 -74 -55 -112 6 -33 46 -80 87 -101 45 -23
115 -18 143 11 14 13 25 29 25 35 0 44 -77 83 -119 61 -34 -18 -26 -38 13 -33
68 8 106 -41 42 -54 -48 -9 -100 11 -136 52 -58 66 -25 122 64 109 39 -6 46
-5 46 9 0 17 -37 36 -68 36 -9 0 -28 -6 -42 -13z"/>
<path d="M374 2978 c-58 -28 -72 -171 -23 -224 32 -35 111 -74 148 -74 37 0
61 31 61 78 0 47 -14 69 -56 82 -31 10 -38 10 -53 -4 -14 -15 -14 -18 -1 -26
8 -5 25 -10 36 -10 29 0 46 -23 42 -57 -4 -33 -17 -33 -95 2 -57 26 -83 62
-85 120 -2 63 34 80 106 50 33 -14 37 -14 43 2 4 11 -4 25 -27 45 -36 29 -61
34 -96 16z"/>
<path d="M3078 2928 c-31 -25 -51 -128 -25 -128 23 0 37 23 37 65 l1 40 25
-52 c27 -55 48 -67 57 -33 3 11 1 20 -4 20 -5 0 -20 23 -34 50 -27 53 -32 57
-57 38z"/>
<path d="M3230 2930 c0 -5 4 -10 9 -10 6 0 13 5 16 10 3 6 -1 10 -9 10 -9 0
-16 -4 -16 -10z"/>
<path d="M2277 2923 c-18 -18 -4 -28 33 -25 22 2 40 0 40 -4 0 -5 -14 -27 -30
-48 -17 -22 -30 -48 -30 -58 0 -16 8 -18 82 -14 53 2 84 8 86 16 7 21 -21 29
-82 23 l-59 -6 27 39 c14 21 26 49 26 61 0 20 -5 23 -43 23 -24 0 -47 -3 -50
-7z"/>
<path d="M3526 2888 c-9 -36 -7 -88 4 -88 5 0 13 18 16 40 4 22 10 40 14 40 4
0 25 -21 46 -47 41 -50 56 -45 28 9 -25 50 -44 68 -74 68 -20 0 -29 -6 -34
-22z"/>
<path d="M250 2825 c-10 -13 -9 -15 9 -15 25 0 27 -22 6 -73 -23 -54 -20 -77
9 -77 34 0 76 17 76 31 0 7 -13 10 -36 7 -35 -4 -36 -4 -29 26 3 17 9 50 12
74 4 37 3 42 -15 42 -11 0 -25 -7 -32 -15z"/>
<path d="M910 2820 c-18 -11 -6 -24 23 -25 17 0 21 -5 19 -22 -2 -14 4 -23 18
-28 31 -10 24 -18 -39 -47 l-58 -28 -262 0 c-167 0 -261 -4 -261 -10 0 -5 8
-10 18 -10 9 0 180 -3 379 -7 372 -6 393 -5 393 32 0 9 -11 10 -42 4 -24 -4
-72 -8 -108 -8 l-65 0 48 21 c52 23 62 49 27 70 -11 7 -20 20 -20 28 0 34 -38
50 -70 30z"/>
<path d="M1478 2792 c-25 -5 -22 -22 3 -22 19 0 21 -4 16 -30 -6 -27 -3 -32
33 -50 22 -11 40 -23 40 -27 0 -3 -22 -3 -50 0 -30 4 -52 2 -56 -5 -11 -18 19
-28 76 -26 53 3 55 4 55 32 0 22 -7 33 -35 47 -19 11 -35 27 -36 37 -2 34 -4
40 -16 44 -7 2 -21 3 -30 0z"/>
<path d="M1180 2730 c0 -5 4 -10 9 -10 6 0 13 5 16 10 3 6 -1 10 -9 10 -9 0
-16 -4 -16 -10z"/>
<path d="M1710 2706 c0 -13 13 -15 70 -14 90 3 87 22 -3 26 -55 2 -67 0 -67
-12z"/>
<path d="M2355 2682 c23 -24 105 -33 350 -39 171 -4 353 -1 530 8 149 8 312
12 364 11 89 -3 94 -2 80 14 -13 16 -32 16 -239 8 -286 -11 -991 -12 -1050 0
-30 5 -42 5 -35 -2z"/>
<path d="M1713 2616 c7 -21 70 -29 132 -15 68 14 63 16 -53 22 -56 2 -81 0
-79 -7z"/>
<path d="M2843 2598 c-18 -5 -40 -20 -49 -34 -15 -23 -15 -30 -1 -90 20 -78
38 -119 52 -116 6 2 9 14 8 28 -2 29 7 30 92 9 37 -8 64 -10 70 -4 16 16 -8
29 -76 40 -35 6 -67 14 -72 18 -4 4 13 21 38 39 60 42 60 74 0 104 -22 11 -39
13 -62 6z m64 -42 l27 -24 -49 -31 c-27 -17 -52 -31 -56 -31 -13 0 -27 79 -15
88 34 27 60 27 93 -2z"/>
<path d="M3052 2598 c-6 -6 -12 -16 -12 -20 0 -13 28 -9 32 4 2 6 12 9 21 5
18 -7 23 -42 7 -52 -5 -3 -10 -14 -10 -24 0 -14 9 -20 36 -23 41 -5 56 8 22
21 -19 7 -23 15 -23 52 0 42 -2 44 -30 47 -17 2 -36 -3 -43 -10z"/>
<path d="M807 2593 c-15 -14 -6 -23 23 -23 34 0 37 -10 14 -46 -20 -30 -20
-30 39 -48 59 -18 72 -2 19 22 -40 18 -40 18 -24 44 13 22 13 29 3 42 -13 16
-62 22 -74 9z"/>
<path d="M602 2565 c-13 -15 -22 -39 -22 -58 0 -33 27 -188 35 -195 11 -11 26
13 23 39 -3 34 -2 34 59 8 26 -11 56 -19 67 -17 21 3 35 28 16 28 -17 0 -130
51 -130 59 0 3 16 19 35 34 43 35 46 68 8 95 -48 33 -67 35 -91 7z m68 -30
c38 -20 38 -28 -2 -59 -30 -23 -34 -24 -40 -8 -11 27 -9 82 2 82 6 0 24 -7 40
-15z"/>
<path d="M3082 2428 c-16 -33 -24 -96 -13 -102 11 -7 21 17 21 54 0 45 15 43
38 -5 20 -41 42 -59 42 -35 0 22 -51 110 -63 110 -8 0 -19 -10 -25 -22z"/>
<path d="M843 2433 c-20 -8 -15 -23 7 -23 11 0 20 -7 20 -15 0 -8 -4 -15 -10
-15 -5 0 -10 -4 -10 -9 0 -6 15 -11 32 -13 47 -4 49 -33 4 -48 -20 -6 -40 -9
-46 -5 -5 3 -10 1 -10 -4 0 -6 0 -14 0 -18 0 -25 88 11 101 40 10 22 7 31 -20
71 -31 44 -41 50 -68 39z"/>
<path d="M933 2179 c20 -50 67 -203 67 -219 0 -32 20 -23 36 15 8 19 19 35 24
35 14 0 47 -38 60 -71 13 -31 27 -37 36 -15 10 25 -57 116 -84 116 -9 0 -24
-7 -34 -16 -16 -16 -18 -15 -24 2 -25 77 -61 158 -73 162 -8 3 -11 -1 -8 -9z"/>
<path d="M2304 2156 c-3 -8 1 -27 9 -43 8 -15 22 -64 31 -108 24 -117 36 -155
46 -155 6 0 10 20 10 44 0 58 12 64 34 19 23 -48 41 -25 20 25 -8 19 -14 36
-14 38 0 10 -40 3 -46 -8 -4 -7 -15 18 -24 58 -32 134 -51 170 -66 130z"/>
<path d="M448 2113 c0 -10 0 -29 1 -42 1 -13 -2 -27 -8 -30 -9 -6 1 -50 29
-126 15 -39 24 14 12 62 -7 24 -12 58 -12 76 l0 32 31 -47 c47 -71 82 -74 109
-8 16 40 26 38 35 -6 9 -50 26 -84 42 -84 7 0 13 2 13 4 0 12 -54 172 -60 179
-3 4 -18 -20 -33 -54 -16 -38 -31 -59 -39 -57 -7 3 -30 29 -51 59 -40 57 -66
73 -69 42z"/>
<path d="M1810 2100 c0 -20 -5 -30 -15 -30 -8 0 -15 -1 -15 -2 3 -27 70 -203
78 -206 16 -5 15 35 -2 89 -8 24 -17 62 -20 84 l-5 40 27 -35 c52 -68 79 -90
111 -90 19 0 35 8 45 22 15 21 16 21 22 2 16 -51 54 -104 74 -104 16 0 11 18
-15 58 -13 20 -30 61 -38 90 -7 29 -17 54 -22 55 -5 1 -13 -14 -18 -33 -21
-84 -60 -76 -132 24 -51 72 -75 84 -75 36z"/>
<path d="M882 2051 c2 -7 7 -12 11 -12 12 1 9 15 -3 20 -7 2 -11 -2 -8 -8z"/>
<path d="M1193 2005 c-7 -21 6 -33 16 -16 7 10 13 10 29 2 16 -9 20 -18 16
-39 -5 -23 -1 -29 28 -41 l33 -13 -55 -15 c-80 -21 -89 -37 -16 -30 92 9 126
61 56 85 -23 9 -27 14 -22 37 3 17 0 30 -9 36 -23 14 -69 10 -76 -6z"/>
<path d="M762 1977 c-14 -16 -6 -28 14 -20 10 3 14 -2 14 -19 0 -17 8 -27 30
-35 42 -16 37 -31 -12 -35 -51 -4 -65 -28 -16 -28 71 0 106 61 48 83 -20 8
-30 19 -32 36 -3 29 -29 39 -46 18z"/>
<path d="M2240 1940 c0 -5 7 -10 15 -10 8 0 15 5 15 10 0 6 -7 10 -15 10 -8 0
-15 -4 -15 -10z"/>
<path d="M2526 1928 c-19 -30 -31 -78 -19 -78 6 0 15 12 22 27 l13 28 28 -35
c16 -19 31 -32 35 -28 11 10 -34 88 -51 88 -8 0 -12 5 -9 10 13 21 -5 9 -19
-12z"/>
<path d="M2156 1918 c-18 -25 -21 -68 -6 -68 6 0 10 9 10 19 0 34 15 31 35 -5
18 -34 45 -46 45 -21 0 14 -56 97 -64 97 -3 0 -12 -10 -20 -22z"/>
<path d="M1550 1858 c-63 -14 -74 -28 -19 -27 61 2 102 12 107 27 4 14 -23 14
-88 0z"/>
<path d="M1320 1788 c-19 -4 -114 -5 -210 -2 -169 6 -657 -10 -669 -21 -16
-17 36 -19 221 -12 111 4 289 5 393 0 284 -11 312 -8 303 29 -2 11 -11 12 -38
6z"/>
<path d="M1497 1794 c-18 -18 -1 -24 74 -24 60 0 80 3 77 13 -5 13 -139 23
-151 11z"/>
<path d="M1925 1780 c-62 -9 -95 -19 -95 -29 0 -4 26 -4 58 0 105 13 324 9
452 -9 140 -19 310 -16 318 6 3 9 -25 12 -120 12 -67 0 -161 7 -208 15 -89 16
-314 18 -405 5z"/>
<path d="M2272 1708 c-19 -19 -14 -29 13 -22 30 7 31 0 5 -33 -25 -33 -25 -50
0 -58 32 -10 100 4 100 21 0 10 -12 14 -40 14 -43 0 -47 5 -25 34 25 33 19 56
-13 56 -15 0 -33 -5 -40 -12z"/>
<path d="M1088 1698 c-36 -12 -36 -27 -1 -20 23 4 25 2 18 -14 -4 -10 -10 -29
-12 -41 -5 -21 -2 -23 36 -23 47 0 55 15 12 25 -28 6 -29 8 -19 36 13 38 2 50
-34 37z"/>
<path d="M842 1693 c-8 -3 -23 -19 -34 -37 -11 -17 -18 -23 -14 -13 3 9 1 17
-4 17 -13 0 -13 -36 1 -63 22 -43 93 -147 100 -147 16 0 20 21 8 36 -20 24 -5
26 65 9 81 -18 76 -18 76 -1 0 20 -15 28 -79 41 l-56 11 43 23 c24 12 45 28
48 36 18 46 -97 111 -154 88z m80 -50 c43 -24 48 -29 33 -38 -10 -5 -33 -20
-52 -33 -20 -13 -36 -22 -38 -20 -12 14 -35 71 -35 86 0 41 24 42 92 5z"/>
<path d="M2037 1663 c-15 -14 -5 -68 30 -163 23 -63 42 -100 51 -100 11 0 13
8 8 31 -6 31 -5 31 24 25 17 -3 44 -9 60 -12 23 -5 30 -3 30 9 0 15 -28 27
-92 41 -35 8 -36 19 -4 34 38 17 60 56 46 81 -21 40 -130 78 -153 54z m102
-51 c14 -10 26 -23 29 -30 4 -12 -57 -54 -71 -49 -5 1 -17 26 -27 56 l-18 53
32 -6 c17 -3 42 -14 55 -24z"/>
<path d="M1100 1527 l-25 -11 33 -4 c30 -3 33 -6 28 -27 -5 -20 -1 -24 29 -29
72 -14 30 -38 -60 -35 -53 2 -75 -4 -62 -17 3 -3 35 -9 71 -11 59 -5 66 -4 90
20 31 31 25 56 -15 64 -22 4 -29 11 -29 28 0 18 -21 39 -33 34 -1 0 -13 -5
-27 -12z"/>
<path d="M5157 1533 c-4 -3 -7 -16 -7 -27 1 -18 2 -19 10 -4 13 21 50 12 50
-12 0 -10 -7 -23 -15 -30 -23 -19 -8 -30 40 -30 52 0 69 18 25 26 -25 5 -30
11 -28 29 1 12 -3 30 -11 39 -13 16 -52 22 -64 9z"/>
<path d="M2322 1497 c-18 -22 -44 -89 -37 -96 8 -7 35 28 35 46 0 29 18 10 30
-32 7 -25 17 -45 21 -45 22 0 -4 129 -28 137 -5 2 -15 -2 -21 -10z"/>
<path d="M5030 1404 c0 -14 17 -36 46 -60 104 -84 185 -274 188 -435 l1 -86
-49 -72 c-27 -39 -47 -73 -44 -76 8 -9 83 80 102 120 27 55 30 124 11 216 -34
169 -109 309 -198 367 -23 15 -45 31 -49 37 -4 5 -8 0 -8 -11z"/>
<path d="M2208 1339 c-27 -15 -22 -32 7 -25 33 8 42 -15 26 -61 -14 -39 -8
-51 28 -55 30 -4 39 18 10 25 -21 6 -22 21 -3 70 3 9 -4 25 -15 36 -24 24 -29
25 -53 10z"/>
<path d="M3611 1336 c-8 -10 -10 -30 -6 -60 5 -31 4 -46 -4 -46 -16 0 -14 -18
11 -77 35 -86 57 -60 33 40 -20 84 -19 86 15 39 17 -23 35 -42 41 -42 6 0 23
13 38 29 l27 29 18 -70 c17 -67 19 -69 44 -63 15 4 28 1 32 -6 10 -16 30 -2
30 21 0 38 18 29 39 -19 11 -28 21 -57 21 -66 0 -9 6 -15 13 -12 6 2 11 18 10
36 -2 42 -51 141 -69 141 -9 0 -23 -18 -32 -40 -20 -46 -39 -52 -48 -12 -16
73 -47 152 -59 152 -8 0 -20 -18 -26 -40 -7 -22 -18 -40 -25 -40 -7 0 -29 27
-49 60 -20 33 -38 60 -39 60 -2 0 -9 -6 -15 -14z"/>
<path d="M4281 1241 c-61 -134 -103 -350 -82 -428 13 -47 46 -93 67 -93 11 0
7 10 -13 37 -27 35 -28 42 -27 142 0 118 32 258 79 350 27 55 29 61 16 61 -4
0 -22 -31 -40 -69z"/>
<path d="M4405 1292 c-28 -6 -35 -20 -35 -70 0 -58 30 -174 44 -169 6 2 10 14
9 26 -3 20 0 21 35 15 20 -4 52 -13 71 -20 33 -14 51 -11 51 6 0 13 -49 37
-93 45 -35 7 -52 25 -23 25 24 0 66 41 66 64 0 13 -8 30 -18 39 -25 23 -84 44
-107 39z m65 -54 c19 -13 34 -27 33 -33 0 -5 -20 -20 -44 -31 -49 -24 -50 -24
-63 49 -6 34 -5 37 17 37 13 0 39 -10 57 -22z"/>
<path d="M1667 1253 c-25 -64 -50 -274 -45 -382 6 -115 22 -152 84 -181 22
-11 46 -31 52 -45 15 -34 31 -32 38 5 l6 29 59 -6 c49 -5 59 -3 59 10 0 10
-14 18 -42 22 -60 10 -61 12 -26 43 35 32 41 75 12 97 -25 19 -89 19 -108 0
-18 -18 -31 -94 -21 -125 6 -19 4 -20 -12 -12 -66 36 -89 121 -79 284 9 126
31 265 47 284 7 8 7 14 1 14 -5 0 -17 -17 -25 -37z m180 -444 c20 -17 16 -26
-24 -54 l-38 -25 -13 37 c-17 51 -10 67 30 59 17 -3 37 -11 45 -17z"/>
<path d="M2070 1260 c0 -5 4 -10 9 -10 13 0 85 -115 128 -205 34 -72 38 -88
38 -160 0 -71 -4 -89 -37 -161 -38 -81 -47 -124 -28 -124 6 0 10 7 10 17 0 9
19 57 42 107 39 82 43 99 43 166 0 69 -4 83 -48 175 -52 108 -119 205 -142
205 -8 0 -15 -4 -15 -10z"/>
<path d="M356 1251 c-13 -20 38 -291 55 -291 5 0 10 3 10 8 1 4 3 21 5 37 9
83 25 95 51 40 17 -35 44 -50 79 -43 32 6 28 28 -5 28 -25 0 -34 6 -50 39 -26
50 -45 57 -70 25 -11 -13 -22 -21 -24 -17 -3 5 -13 46 -21 93 -17 88 -20 97
-30 81z"/>
<path d="M3292 1248 c-5 -7 -9 -29 -7 -48 4 -47 4 -47 15 -30 8 13 13 12 32
-7 20 -20 20 -24 6 -40 -35 -42 -26 -73 22 -73 48 0 68 35 46 78 -7 15 -11 41
-9 58 4 26 0 35 -25 53 -34 24 -65 27 -80 9z m86 -61 c3 -16 1 -17 -17 -5 -25
16 -27 31 -4 26 10 -2 19 -11 21 -21z m6 -73 c10 -26 7 -34 -12 -34 -26 0 -33
10 -21 31 12 23 25 24 33 3z"/>
<path d="M3510 1216 c-5 -14 -18 -30 -30 -36 -29 -16 -25 -32 6 -20 30 12 34
12 33 3 -4 -24 2 -53 11 -53 6 0 10 28 10 65 0 67 -13 85 -30 41z"/>
<path d="M1021 1153 c1 -84 17 -154 37 -161 14 -4 15 15 3 76 l-9 43 22 -20
c12 -12 31 -21 42 -21 22 0 56 33 69 65 5 16 12 6 29 -47 25 -75 33 -88 45
-70 6 11 -22 117 -54 201 -8 21 -35 -6 -35 -36 0 -37 -28 -85 -48 -81 -9 2
-30 31 -47 65 -41 86 -55 82 -54 -14z"/>
<path d="M2466 1221 c-5 -8 7 -126 20 -199 8 -40 26 -37 35 7 4 17 9 35 12 38
14 13 37 -9 48 -47 7 -22 17 -39 23 -37 14 5 10 41 -10 83 -18 38 -52 46 -75
17 -12 -14 -15 -12 -21 23 -4 21 -7 56 -7 76 -1 36 -14 57 -25 39z"/>
<path d="M1713 1201 c-43 -47 -43 -48 -27 -87 9 -20 19 -64 22 -96 8 -64 25
-82 30 -30 4 36 1 35 60 22 24 -6 48 -8 53 -4 16 9 -9 32 -42 39 l-30 7 31 34
c39 45 38 65 -5 103 -41 36 -68 39 -92 12z m76 -42 c12 -11 21 -26 21 -35 0
-13 -54 -54 -72 -54 -9 0 -22 86 -15 104 7 18 38 11 66 -15z"/>
<path d="M5454 1145 c-3 -19 -15 -46 -26 -60 -21 -27 -9 -35 13 -8 12 14 15
12 19 -23 3 -26 10 -39 20 -39 8 0 13 7 11 15 -2 8 -6 45 -9 83 -5 73 -17 88
-28 32z"/>
<path d="M5557 1168 c-38 -29 -18 -101 36 -130 48 -25 76 65 36 116 -22 28
-46 33 -72 14z m57 -40 c19 -26 21 -54 5 -63 -16 -10 -59 35 -59 62 0 30 33
31 54 1z"/>
<path d="M4644 1162 c-13 -8 -34 -67 -34 -94 0 -33 24 -14 33 26 l9 37 29 -27
c16 -15 31 -25 35 -22 10 11 -38 88 -55 88 -3 0 -11 -4 -17 -8z"/>
<path d="M5706 1124 c-20 -20 -20 -34 -1 -34 8 0 15 7 15 15 0 19 3 19 51 -5
42 -22 71 -16 83 16 10 25 -2 30 -19 8 -13 -18 -15 -18 -45 -1 -39 21 -64 22
-84 1z"/>
<path d="M2991 1109 c-13 -5 -21 -12 -18 -15 9 -9 157 7 157 17 0 12 -109 10
-139 -2z"/>
<path d="M1290 1089 c0 -17 3 -19 14 -10 20 17 45 4 38 -21 -3 -14 2 -26 18
-38 l23 -17 -46 -11 c-66 -17 -74 -37 -11 -27 27 4 57 11 67 16 24 13 21 44
-5 56 -15 7 -22 19 -23 39 0 26 -4 29 -37 32 -33 3 -38 0 -38 -19z"/>
<path d="M5321 1097 c-13 -16 -5 -27 21 -27 21 0 23 13 4 29 -10 8 -16 8 -25
-2z"/>
<path d="M1932 1091 c-15 -9 -42 -75 -42 -103 0 -30 16 -13 33 37 l14 39 23
-47 c39 -77 57 -51 21 29 -21 46 -32 56 -49 45z"/>
<path d="M790 1047 c0 -22 89 -32 109 -12 14 13 10 15 -31 15 -26 0 -53 3 -62
6 -10 4 -16 1 -16 -9z"/>
<path d="M5721 1047 c-38 -19 -36 -34 2 -29 22 2 49 -4 75 -17 49 -25 62 -26
62 -6 0 14 -51 45 -95 58 -11 4 -31 1 -44 -6z"/>
<path d="M641 1017 c-23 -37 -27 -57 -11 -57 6 0 10 4 10 8 0 5 6 17 14 27 13
17 14 17 27 -10 15 -31 39 -45 39 -23 -1 21 -34 81 -46 85 -7 2 -21 -11 -33
-30z"/>
<path d="M2663 1044 c-7 -3 -13 -10 -13 -15 0 -6 6 -9 13 -8 42 5 49 0 43 -36
-6 -30 -4 -35 13 -35 11 0 23 -5 27 -11 4 -7 -7 -10 -33 -8 -40 3 -63 -5 -63
-22 0 -12 86 -12 111 1 27 15 24 48 -5 62 -17 7 -26 20 -28 42 -2 25 -8 31
-28 33 -14 1 -31 -1 -37 -3z"/>
<path d="M2994 1025 c-10 -24 13 -35 71 -34 37 0 45 3 30 9 -11 5 -30 9 -42 9
-12 1 -29 8 -37 17 -15 14 -17 14 -22 -1z"/>
<path d="M4104 1006 c-10 -8 -16 -17 -13 -20 3 -3 14 3 24 14 21 23 17 26 -11
6z"/>
<path d="M782 988 c3 -8 26 -14 54 -16 27 -2 52 -9 56 -15 5 -8 8 -4 8 9 0 26
-17 34 -77 34 -31 0 -43 -4 -41 -12z"/>
<path d="M2360 970 c0 -5 7 -10 15 -10 8 0 15 5 15 10 0 6 -7 10 -15 10 -8 0
-15 -4 -15 -10z"/>
<path d="M4603 973 c-156 -2 -283 -7 -283 -12 0 -12 140 -21 321 -21 l156 0 5
-42 c5 -46 41 -132 59 -143 6 -4 13 2 16 14 4 17 10 20 32 14 68 -17 99 7 34
27 -50 16 -60 26 -34 35 12 3 26 16 32 28 10 18 8 24 -17 47 -16 14 -28 33
-26 43 2 9 0 16 -5 15 -4 -2 -135 -4 -290 -5z m273 -64 c40 -25 41 -29 9 -52
-25 -18 -25 -18 -35 8 -6 15 -10 31 -10 36 0 5 -5 9 -11 9 -5 0 -7 5 -4 10 9
14 13 13 51 -11z"/>
<path d="M1575 950 c-3 -5 -1 -10 4 -10 6 0 11 5 11 10 0 6 -2 10 -4 10 -3 0
-8 -4 -11 -10z"/>
<path d="M2089 955 c-3 -2 -68 -9 -144 -15 -158 -12 -241 -26 -251 -42 -5 -8
-1 -9 10 -5 10 4 95 12 189 18 170 10 217 19 217 39 0 10 -13 14 -21 5z"/>
<path d="M3277 952 c-21 -4 -22 -18 -3 -25 21 -8 712 -11 725 -3 6 4 11 13 11
20 0 10 -71 13 -358 12 -197 -1 -366 -2 -375 -4z"/>
<path d="M968 923 c-58 -15 10 -23 220 -25 227 -3 272 1 272 22 0 10 -457 13
-492 3z"/>
<path d="M4395 880 c-22 -4 -31 -11 -33 -29 -3 -22 -2 -23 11 -9 9 8 26 14 39
13 13 -1 29 -3 37 -4 11 -1 8 -7 -8 -22 l-23 -22 33 -14 c33 -14 33 -15 14
-29 -18 -14 -32 -14 -74 -3 -8 2 -17 -4 -19 -13 -8 -40 106 -29 128 12 11 20
4 50 -11 50 -5 0 -8 14 -7 32 3 28 0 32 -27 38 -16 3 -43 3 -60 0z"/>
<path d="M4588 863 c-7 -9 2 -20 36 -40 32 -20 44 -33 39 -43 -15 -37 -15 -80
1 -86 59 -23 103 49 59 98 -9 10 -13 26 -10 37 9 35 -13 51 -66 48 -27 -1 -53
-8 -59 -14z m97 -24 c11 -17 -1 -21 -15 -4 -8 9 -8 15 -2 15 6 0 14 -5 17 -11z
m23 -81 c16 -16 15 -25 -1 -31 -21 -8 -39 7 -31 26 7 20 16 21 32 5z"/>
<path d="M3419 848 c-24 -44 7 -196 34 -169 8 8 8 20 -1 44 -7 18 -12 47 -12
64 l0 31 39 -39 c47 -47 74 -49 112 -8 l29 31 15 -36 c17 -40 18 -41 48 -24
21 11 21 11 2 18 -11 4 -25 26 -35 56 -19 56 -40 63 -52 18 -17 -67 -58 -68
-110 -3 -36 44 -52 49 -69 17z"/>
<path d="M1082 848 c-7 -7 -12 -24 -12 -39 0 -15 -4 -31 -10 -34 -9 -6 23
-101 41 -119 19 -20 20 6 3 78 -10 42 -14 79 -10 83 4 4 23 -11 42 -35 46 -54
77 -57 101 -7 20 42 29 38 37 -17 8 -55 21 -77 36 -62 9 9 9 14 1 18 -6 4 -11
22 -11 39 0 48 -19 107 -34 107 -8 0 -21 -18 -29 -39 -24 -59 -35 -60 -81 -8
-43 49 -54 55 -74 35z"/>
<path d="M5015 830 c-16 -31 -20 -90 -6 -90 13 0 29 22 36 52 l7 28 36 -30
c61 -50 73 -30 21 33 -38 47 -72 49 -94 7z"/>
<path d="M3730 813 c-15 -20 -20 -38 -18 -67 4 -54 21 -49 32 8 5 25 12 46 16
46 3 0 21 -20 40 -45 19 -25 36 -45 38 -45 12 0 -11 67 -34 97 -30 40 -46 41
-74 6z"/>
<path d="M1386 758 c-18 -25 -22 -113 -6 -103 6 3 10 19 10 34 0 15 6 35 13
45 13 17 14 16 26 -13 8 -17 17 -31 22 -31 17 0 19 21 5 55 -18 41 -47 47 -70
13z"/>
<path d="M1965 741 c-6 -11 6 -15 32 -12 16 2 26 -16 13 -24 -20 -13 -9 -34
24 -45 19 -6 40 -17 46 -25 10 -11 7 -15 -14 -21 -15 -3 -40 -4 -56 0 -25 5
-30 2 -30 -14 0 -17 7 -20 48 -20 53 0 92 21 92 50 0 20 -44 60 -66 60 -8 0
-12 11 -11 28 2 24 -2 27 -35 30 -20 2 -39 -2 -43 -7z"/>
<path d="M4547 669 c-10 -22 -17 -45 -14 -52 5 -14 39 62 35 79 -2 6 -11 -6
-21 -27z"/>
<path d="M2745 510 c-7 -11 8 -41 29 -60 9 -7 16 -17 16 -22 0 -6 -352 -8
-917 -6 -1016 3 -893 8 -1383 -63 -154 -22 -153 -22 -165 56 -6 41 -19 64 -31
52 -3 -2 0 -24 5 -48 5 -24 12 -56 15 -70 3 -15 13 -29 21 -33 9 -3 75 3 148
14 477 71 543 73 1592 63 825 -9 861 -7 787 31 -16 8 -46 34 -64 56 -37 42
-43 46 -53 30z"/>
<path d="M4990 488 c-40 -66 -64 -243 -40 -289 6 -10 17 -19 25 -19 17 0 20
16 5 25 -16 10 -12 165 6 224 8 28 22 55 30 58 16 6 19 33 4 33 -6 0 -19 -14
-30 -32z"/>
<path d="M5290 487 c0 -2 19 -24 43 -48 63 -66 87 -173 53 -237 -19 -36 -72
-85 -116 -107 -19 -10 -29 -20 -22 -22 22 -8 116 53 146 95 38 54 46 132 21
199 -21 55 -80 123 -106 123 -11 0 -19 -1 -19 -3z"/>
<path d="M4702 427 c-37 -39 -23 -149 24 -188 36 -30 103 4 104 54 0 26 -35
56 -59 50 -28 -7 -26 -21 4 -33 31 -12 35 -50 5 -50 -40 0 -90 91 -74 134 7
18 59 22 69 6 8 -13 25 -3 25 14 0 13 -41 36 -64 36 -7 0 -22 -10 -34 -23z"/>
<path d="M4526 423 c-13 -33 -5 -53 27 -69 51 -26 97 -64 97 -80 0 -17 -12
-17 -63 -3 -27 7 -37 15 -33 25 7 19 -9 18 -28 -1 -8 -9 -13 -22 -10 -30 6
-15 63 -35 99 -35 28 0 65 28 65 49 0 20 -50 70 -98 99 l-33 19 53 8 c58 8 48
18 -29 27 -31 5 -43 2 -47 -9z"/>
<path d="M4230 395 c-13 -14 -21 -27 -18 -30 3 -3 11 1 18 10 17 21 33 19 88
-10 26 -14 53 -25 60 -25 18 0 62 46 62 65 0 12 -7 8 -25 -12 l-24 -28 -51 28
c-62 33 -80 34 -110 2z"/>
<path d="M5140 375 c0 -28 -26 -85 -38 -85 -5 0 -13 5 -20 12 -17 17 -28 2
-12 -17 18 -22 36 -19 60 12 19 25 23 26 31 10 11 -19 49 -23 66 -6 8 8 19 3
41 -22 28 -31 62 -36 62 -9 0 6 -4 9 -9 5 -12 -7 -61 63 -61 87 0 28 -16 21
-30 -12 -17 -40 -42 -35 -56 10 -14 42 -34 51 -34 15z"/>
<path d="M4237 303 c-13 -13 -7 -21 13 -16 12 3 36 -5 60 -21 50 -33 71 -33
104 1 29 29 27 46 -2 20 -24 -22 -40 -21 -80 3 -32 20 -82 27 -95 13z"/>
</g>
</svg>
