<svg height="1322.041754pt" preserveAspectRatio="xMidYMid meet" viewBox="0 0 1207.299208 1322.041754" width="1207.299208pt" xmlns="http://www.w3.org/2000/svg"><g transform="matrix(.1 0 0 -.1 -38.362395 2303.976959)"><path d="m3255 23012c-51-28-95-81-95-113 0-51 133-68 241-32 74 25 77 46 4 27-61-16-183-22-203-10-18 11-15 30 9 60 30 38 76 59 138 66 74 7 81 30 9 30-39 0-66-8-103-28z"/><path d="m4620 23029c-99-20-94-34 6-19 166 23 179-47 23-126-82-41-55-67 60-57 109 9 123 21 26 23-74 1-87 3-71 13 54 34 115 89 121 108 16 48-68 78-165 58z"/><path d="m4972 23027c-44-17-98-61-105-87-4-15 2-30 19-47 25-24 28-25 132-20 111 5 182 20 182 39 0 6-9 8-22 3-13-4-72-9-133-12-84-4-114-1-128 9-58 44 92 119 197 99 47-9 61 0 27 19-26 13-128 12-169-3z"/><path d="m5960 23005c-7-9-9-22-5-32 8-17 8-17 12 0 4 14 16 17 64 17 78 0 88-19 34-64-21-18-35-37-32-43 4-6 29-13 56-17 56-7 83-29 54-44-36-18-84-21-123-8-46 16-61 5-28-18 27-19 122-21 157-3 13 6 29 20 35 29 15 24-18 57-66 64-21 4-38 9-38 11 0 3 11 14 26 25 32 26 30 67-6 85-35 18-124 17-140-2z"/><path d="m6387 23010c-67-20-137-98-137-152 0-51 35-63 201-66 81-2 155 0 164 6 12 6-30 11-128 14-156 6-200 18-205 55-5 34 76 110 132 124 25 6 43 15 40 20-6 11-29 10-67-1z"/><path d="m694 22934c-15-36-15-36-66-30-39 5-49 4-46-6 3-7 19-14 37-16 38-4 46-18 31-56-9-25-14-28-40-22-17 3-30 1-30-4 0-15 42-29 110-36 75-8 75-8 135-4 40 3 43 4 18 7-18 2-33 7-33 10s10 23 22 44c17 31 28 39 52 40s26 3 9 6c-18 3-23 11-23 34 0 35-21 38-65 9-30-20-75-26-88-13-4 3 0 17 8 30 16 23 13 43-6 43-6 0-17-16-25-36zm141-44c-3-5-11-10-16-10-6 0-7 5-4 10 3 6 11 10 16 10 6 0 7-4 4-10zm-120-45c-33-27-42-26-25 4 6 12 20 21 33 21 21-1 20-2-8-25zm96 12c-1-4-9-23-18-42-17-36-27-40-82-29l-31 6 43 33c54 41 90 55 88 32z"/><path d="m1402 22925c-108-30-147-66-118-110 9-14 41-43 72-66 41-30 53-44 43-49-24-13-118-19-151-9-38 11-50 3-24-17 23-16 92-18 156-3 77 18 73 46-14 104-61 40-72 58-50 80 30 30 90 47 182 52 62 4 92 10 89 17-5 17-124 17-185 1z"/><path d="m1170 22880c-6-21-28-77-49-123-46-101-55-127-43-127 11 0 87 153 113 228 23 66 22 62 4 62-8 0-19-16-25-40z"/><path d="m1763 22899c-18-5-35-14-39-20-4-7 0-9 12-6 11 3 40 8 67 12 38 5 48 3 53-10 8-20-55-125-76-125-30 0-90-21-90-32 0-7 15-9 44-5l45 6-15-27c-7-15-14-35-14-44 0-32 17-19 34 27 21 54 22 54 111 77l70 18-62-4c-35-2-63-2-63 0s12 27 27 55c20 39 24 56 16 68-12 19-73 24-120 10z"/><path d="m2101 22874c-46-33-66-128-36-168 8-11 13-28 10-37-5-14 1-17 32-16 21 0 63-3 93-7 42-6 60-4 75 7 20 15 20 15 0 37-17 19-28 21-100 19-77-3-80-3-92 22-27 56 26 139 89 139 17 0 27 4 23 10-10 16-68 12-94-6zm134-194c15-6 8-9-27-9-27-1-48 4-48 9 0 12 47 12 75 0z"/><path d="m3650 22705c0-94-3-117-15-121-12-5-13-9-4-20 8-10 10-45 5-119-5-65-4-105 2-105 14 0 22 26 22 68 0 20 3 61 6 90l7 52h151c83 0 223 4 311 10 167 10 323 14 488 11l97-1v-79c0-90 5-111 28-111 12 0 13 3 4 12-16 16-17 188-1 188 8 0 8 4 2 13-6 7-7 36-3 72 4 33 6 62 4 64-9 10-16-11-21-64-3-31-11-58-17-60s-128-6-271-9-376-9-518-12l-258-7 5 99c5 102 0 144-15 144-5 0-9-52-9-115z"/><path d="m4875 22770c-19-30-35-345-20-370 16-26 22-3 21 79 0 49 3 93 8 98 4 4 215 8 468 8h461l4-70c3-58 15-100 25-84 8 12-4 329-12 329-6 0-10-17-11-37-1-60-5-102-10-107-2-2-212-6-466-8l-462-3 6 88c5 82 3 101-12 77z"/><path d="m3546 22739c-3-17-6-56-6-87v-55l-37 6c-21 3-108 9-194 13-153 7-157 6-168-15-9-16-8-27 4-52 9-17 20-56 26-87 11-70 13-434 3-678-5-137-4-183 5-189 7-4 14-5 16-3 9 9 14 758 5 840-5 48-16 101-25 118s-13 36-9 42c7 11 275 5 342-8l32-6v-88c0-49 3-95 6-104 18-46 24 3 24 184 0 185-8 245-24 169z"/><path d="m5960 22571c0-100 4-181 9-181 13 0 21 39 21 112v66l103-4c127-5 220-21 274-46 67-31 69-37 50-136-51-267-84-692-57-741l12-24-158 7c-88 4-433 7-767 6h-609l3 150c2 82 0 152-3 156-18 17-26-56-32-286-4-140-9-276-12-301-6-47 9-93 26-87 5 2 12 73 14 158s5 163 5 172c1 16 40 17 649 10 893-10 934-10 939 6 3 6-2 12-10 12-7 0-19 11-25 25-27 59-5 389 45 668 21 116 24 152 15 172-27 60-191 103-394 105h-67l-3 77c-2 50-7 78-15 81-10 3-13-37-13-177z"/><path d="m445 22570c-161-13 73-19 805-20 432 0 819-3 860-5s129-7 195-10 164-10 218-16c87-10 120-8 106 5-14 14-186 31-441 42-176 8-1657 11-1743 4z"/><path d="m2325 22308c-4-24-4-405 1-848s9-960 9-1150c0-368-13-1221-19-1227-2-2-16 1-32 8-35 13-418 13-714-1-238-11-1123-7-1160 5-18 6-22 5-15-4 27-28 180-34 750-27 313 3 676 9 805 12 219 6 282 2 359-22 18-5 22-4 19 7-3 8-2 21 3 30 23 46 31 1312 15 2574-5 374-10 681-11 683-2 2-6-16-10-40z"/><path d="m672 22219c-79-39-152-143-152-215 0-35 37-81 76-94 45-15 124-7 164 17 42 24 37 35-7 16-56-23-160-14-184 16-34 42-18 117 35 173 78 81 173 115 150 53-4-9-16-21-28-25-19-8-19-9 7-9 20-1 31 6 39 25 26 56-28 79-100 43z"/><path d="m1575 22136c-39-17-59-41-52-65 4-17-2-21-52-27-31-4-77-3-103 3-51 10-65-1-22-17 32-13 116-12 170 0 30 7 54 6 85-3l44-13-41-22c-74-38-118-108-95-151 25-46 163-50 265-6 55 23 39 28-35 10-115-27-209-14-209 30 0 24 49 72 105 104 67 38 71 58 14 67l-42 7 38 23c21 12 41 28 46 35 22 35-55 52-116 25zm95-16c0-13-74-50-100-50-31 0-20 22 21 42 37 20 79 24 79 8z"/><path d="m4460 21955c-65-13-100-30-100-50 0-13-76-35-125-35-13 0-27-4-30-10-8-13 48-13 117 1 46 9 60 9 86-5 18-9 32-18 32-21 0-2-27-23-60-45s-64-49-70-61c-15-26-4-56 23-65 55-19 267 4 267 28 0 6-8 7-17 3-10-4-63-9-118-12-79-4-104-2-120 10-19 15-19 16-2 35 10 11 40 35 67 53 54 36 62 60 30 82-21 14-17 27 7 27 8 0 37 10 64 21 85 37 52 65-51 44zm60-20c0-4-32-13-104-31-40-10-25 13 17 25 35 10 87 14 87 6z"/><path d="m972 21901c0-22-13-65-28-97l-27-57-161 6c-166 6-187 8-294 33-72 16-99 17-62 3 48-19 186-47 265-53 72-6 951-6 1035-1 19 2 162 3 318 4 197 1 282 4 282 12s-189 9-680 4c-374-4-680-5-680-2s11 23 25 43c36 54 47 132 19 141-7 2-12-11-12-36z"/><path d="m4696 21754c-3-9-6-41-6-72v-57l-713-4c-391-2-721-7-732-12-28-11-2-11 768-10l677 2v-51c0-38 4-50 15-50 13 0 15 22 15 135 0 123-8 161-24 119z"/><path d="m1521 21502c-42-21-57-43-46-68 8-18 9-18 12 2 7 41 38 57 118 62 89 6 138-10 133-41-2-12-35-45-77-78-86-66-127-125-116-167l8-27 7 27c15 51 49 94 113 141 35 26 72 56 82 67 26 29 12 68-30 86-49 20-162 18-204-4z"/><path d="m695 21378c-64-44-99-111-100-191 0-52 3-61 28-83 33-28 83-32 127-9 17 9 30 17 30 18 0 2-26 1-59-1-51-4-62-1-81 18s-22 30-17 72c11 88 63 157 133 177 63 18 104-32 70-84-21-32-20-38 3-26 10 6 24 24 30 41 31 90-70 132-164 68z"/><path d="m1223 21233c-89-4-118-14-71-27 26-6 155 12 178 25 13 7 13 8 0 7-8-1-57-4-107-5z"/><path d="m880 21095c-7-8-9-23-5-32 6-16 8-16 16 5 10 26 45 30 75 8 17-14 18-16 3-31-21-21-90-31-118-16-11 7-21 21-21 32s-4 17-10 14c-5-3-10-17-10-30 0-34 32-48 96-43 81 7 119 52 76 91-23 21-85 22-102 2z"/><path d="m3020 21081c0-4 21-16 46-26 96-37 153-114 162-220 5-74-16-130-74-194-41-46-63-61-109-72l-30-7 28-1c109-4 228 157 214 290-10 95-79 190-163 225-38 16-74 18-74 5z"/><path d="m1615 21029c-11-17 1-21 15-4 8 9 8 15 2 15s-14-5-17-11z"/><path d="m9660 21000c-35-38-60-109-60-172 0-38 6-54 28-80 31-34 78-42 106-18 20 16 21 54 2 70-20 16-60 9-64-11-2-13 3-15 23-12 18 4 25 1 25-11 0-9-6-17-12-17-79-8-104 87-50 191 15 30 32 56 39 58s19-12 27-30l14-33 1 36c2 64-34 77-79 29z"/><path d="m3769 20987c-15-12-37-31-50-41-37-31-4-32 36-2 18 14 36 26 38 26 3 0-4-37-14-82-23-105-25-151-2-93 19 52 53 175 53 198 0 24-29 21-61-6z"/><path d="m10326 20991c-13-14-15-24-8-37 9-16 11-15 21 4 8 15 21 22 41 22 40 0 40-27 0-65-40-39-38-60 13-105 35-32 40-41 31-57-14-24-82-42-93-25-9 15-41 5-41-13 0-34 111-29 149 6 31 29 26 54-21 105l-41 45 31 32c33 34 41 74 20 95-19 19-82 15-102-7z"/><path d="m5257 20961c-46-51-60-78-46-86 6-4 11-5 13-4 1 2 13 19 25 37 13 18 25 31 28 28s-9-45-26-94c-31-91-39-142-21-142 5 0 14 19 20 43 6 23 24 83 41 132 16 50 29 98 29 108 0 28-25 19-63-22z"/><path d="m7992 20982c-28-21-19-34 14-22 13 5 24 8 24 5 0-2-13-41-30-87-31-87-52-178-41-178 10 0 101 255 101 280 0 26-36 26-68 2z"/><path d="m10016 20974c-3-9-6-31-6-50 0-34 0-34-49-34-50 0-74-13-45-24 9-3 33-6 54-6 35 0 38-2 44-33 3-19 13-42 21-53 12-17 13-13 8 39l-6 57 39 1c21 1 50 4 64 8 44 12 3 24-57 16l-56-7 6 51c6 49-4 69-17 35z"/><path d="m10983 20967c-51-19-63-38-13-21 63 22 111 15 129-18 14-25 14-29-5-55-12-15-45-47-75-69-30-24-54-50-54-60 0-26 51-38 129-29 74 7 89 25 22 25-24 0-58 3-75 6l-31 7 60 56c52 49 60 61 60 93 0 66-66 95-147 65z"/><path d="m10793 20947c-11-12-23-34-27-49-5-23-12-27-48-30-59-4-63-28-5-28 43 0 45-1 51-35 4-19 12-37 18-41 7-5 9 4 4 31-9 44 1 54 54 56 19 0 44 4 55 9 14 6 2 9-42 9-70 1-75 8-47 62 19 39 14 46-13 16z"/><path d="m2912 20914c-40-25-72-52-72-60 0-20 5-18 71 27 33 22 62 39 65 36 2-2-9-30-26-63-29-58-40-124-20-124 6 0 10 8 10 18s18 55 40 101c22 45 40 89 40 97 0 25-35 15-108-32z"/><path d="m12295 20950c-3-5-42-37-86-70-73-56-94-80-70-80 6 0 37 23 70 50 67 55 81 62 58 26-39-59-77-229-47-211 6 3 10 15 10 25 0 28 28 105 66 184 18 38 31 73 28 78-7 11-21 10-29-2z"/><path d="m6541 20908c-25-24-39-44-32-46s21 4 32 14c24 22 25 24-16-76-34-84-43-130-26-130 5 0 17 21 25 48 9 26 31 83 50 126 31 70 37 106 17 106-3 0-26-19-50-42z"/><path d="m12000 20901c-30-25-56-50-58-56-8-22 19-14 54 17 30 26 36 29 31 13-34-108-47-164-42-182 8-34 25-28 25 9 0 18 14 76 32 130 20 62 29 101 23 107-6 5-32-9-65-38z"/><path d="m1632 20734c-17-12-22-25-22-63 0-54 17-111 32-111 6 0 7 8 3 18-4 9-9 40-12 67-7 62 7 77 73 77 56 0 98-27 102-66 4-35-7-48-101-113-84-59-101-88-76-131 17-30 45-49 56-39 4 5 2 11-4 15-15 10-31 53-26 70 3 7 33 33 68 58 36 25 76 59 90 75 63 76 1 159-118 159-24 0-53-7-65-16z"/><path d="m4482 20708c7-19 85-29 163-22 86 9 61 18-73 27-72 5-93 4-90-5z"/><path d="m7394 20668-9-52-45-2c-25-1-62-2-83-3-73-2-26-21 54-21h79l1-47c0-40 2-44 9-23 4 14 11 37 14 53 6 25 11 27 54 28 84 2 105 17 25 18l-73 1v50c0 65-14 64-26-2z"/><path d="m3758 20700c-91-3-169-8-173-12-16-15 80-21 269-15 111 4 230 7 266 8 58 1 61 2 30 10-47 12-191 15-392 9z"/><path d="m11491 20699c-49-19-7-28 94-19 55 5 111 10 125 10 23 1 23 2 5 10-27 12-194 11-224-1z"/><path d="m606 20677c-40-60-53-188-24-224 16-20 67-15 104 8 33 20 34 20 34 1 0-27 20-82 30-82 4 0 6 26 3 58-4 40-1 69 11 96 20 48 20 56 0 56-8 0-21-15-29-34-15-36-62-80-97-92-52-16-62 85-18 184 23 51 23 52 10 52-5 0-16-10-24-23z"/><path d="m5917 20660c-10-27-15-30-58-30-26 0-54-3-63-6-30-12-4-24 50-24 56 0 56 0 50-30-3-16-9-43-12-60-11-58 13-29 26 30l13 60 41 1c22 0 50 4 61 9 16 7 11 9-22 9-61 1-70 7-65 41 6 39-7 38-21 0z"/><path d="m8648 20678c14-14 218-13 254 1 16 7-21 10-121 10-111 1-142-2-133-11z"/><path d="m5187 20656c-31-7-63-18-70-25-10-11-2-12 43-6 30 4 82 11 115 15 61 8 167 5 218-6 41-9 32 11-12 24-49 15-219 14-294-2z"/><path d="m9603 20640c-133-3-244-8-248-12-15-14 94-20 263-13 97 3 519 8 937 10 551 2 760 6 763 15 4 11-1170 11-1715 0z"/><path d="m7960 20628c-98-10-122-16-114-29 4-7 23-8 53-4 25 4 114 13 196 20 107 9 133 13 90 15-33 1-80 3-105 4s-79-2-120-6z"/><path d="m12180 20624c-183-14-293-34-277-50 3-3 38-1 79 5s142 13 224 17c144 6 228 11 249 15 6 1-3 5-20 8-32 8-180 10-255 5z"/><path d="m6467 20609c-59-7-76-14-64-26 10-9 387 19 387 29s-235 8-323-3z"/><path d="m4553 20603c-24-2-43-9-43-15 0-13 121-5 160 11 21 8 18 10-25 9-27-1-69-3-92-5z"/><path d="m8730 20571c0-20 24-23 113-15 90 8 91 8 42 15-74 11-155 10-155 0z"/><path d="m11531 20571c-25-3-46-12-49-20-4-12 9-13 79-8 46 4 102 10 124 14l40 7-40 7c-45 9-90 9-154 0z"/><path d="m9995 20535c-68-36-110-97-103-151 7-62 111-94 194-59 28 11 35 19 32 37-6 42-126 63-141 25-4-11 5-13 41-10 54 4 87-10 62-27-24-15-113-12-138 6-33 23-29 66 10 110 18 20 47 43 65 50 40 17 38 17 58-2 20-20 33-10 19 14-15 23-62 26-99 7z"/><path d="m12005 20536c-57-24-115-112-115-174 0-26 48-62 83-62 38 0 71 28 65 57-5 25-47 45-85 39-30-4-31-3-23 20 17 43 40 71 74 89 29 16 37 17 50 6s16-11 16 2c0 26-31 37-65 23zm5-176c13-9 12-12-4-25-11-8-25-15-31-15-20 0-48 27-41 38 9 15 56 15 76 2z"/><path d="m3725 20528c-103-37-182-165-128-209 11-10 43-14 110-13 85 2 93 0 93-17 0-43 107-66 134-28 18 27 11 46-25 64-33 18-71 20-160 10-91-10-139-1-139 28 0 33 35 83 81 117 42 30 79 39 79 20 0-5 7-10 15-10 22 0 19 27-4 40-11 5-21 10-23 9-2 0-16-5-33-11zm176-229c26-13 15-29-20-29-29 0-57 21-44 33 10 10 42 8 64-4z"/><path d="m6428 20532c-51-6-29-22 31-22 148 0 145-52-7-124-42-20-62-35-62-48 0-23 19-23 125-1 79 16 84 16 124-1 50-23 166-18 207 8 14 10 24 20 21 22-3 3-34 0-69-7-73-13-135-4-152 24-24 38 53 107 121 107 35 0 44 14 17 24-69 27-184-49-184-122 0-17-8-22-54-27-73-9-89-2-46 20 83 42 113 99 68 129-24 15-92 24-140 18z"/><path d="m7870 20523c-44-14-37-18 43-23 48-3 88-9 88-15 1-5-20-20-45-33s-46-27-46-32 14-17 32-26c25-13 29-18 16-25-9-5-37-10-64-12-29-2-49-8-52-17-4-10 8-12 59-7 35 3 72 9 82 12 25 10 22 50-5 62-22 10-22 11 14 32 47 28 56 51 28 73-22 17-112 24-150 11z"/><path d="m8203 20520c-72-17-143-84-143-135 0-28 27-52 65-58 74-11 235 30 235 60 0 11-5 13-17 8-38-16-130-35-170-35-56 0-73 8-73 34 0 39 75 95 149 111 24 5 30 10 20 16-16 10-22 10-66-1z"/><path d="m5190 20499c-69-41-98-111-62-147 40-40 159-38 258 3 48 20 38 31-13 14-21-7-75-13-120-13-66-1-86 3-100 17-17 16-17 19 1 52 20 36 45 57 84 69 16 6 22 3 22-8 0-9 5-16 11-16s9 10 7 23c-4 30-43 33-88 6z"/><path d="m12205 20513c-45-11-85-70-85-123 0-49 38-80 99-80 57 0 101 16 101 38 0 10-5 12-17 6-10-4-40-9-66-12-80-7-109 37-68 105 24 39 66 50 115 29 26-11 36-12 36-3 0 25-73 50-115 40z"/><path d="m10254 20471c-39-24-64-58-64-87 0-28 42-62 87-70 42-8 158 11 193 32 24 14 23 14-15 7-71-13-182-8-210 11-24 16-24 18-11 44 19 37 58 56 112 57 60 0 50 19-12 23-35 2-58-3-80-17z"/><path d="m1210 20433c-69-4-100-11-100-22 0-18 34-20 101-7 76 16 124 37 79 34-14-1-50-3-80-5z"/><path d="m861 20417c-34-17-42-43-10-33 97 31 114 7 45-63-47-48-53-76-18-83 25-6 83 9 98 24 11 11 4 12-39 9l-52-3 43 46c47 51 52 78 20 100-27 19-55 20-87 3z"/><path d="m1640 20205c0-17 43-30 67-20 15 6 13 9-12 21-40 17-55 17-55-1z"/><path d="m4171 20009c-117-4-282-9-365-13-83-3-231-9-329-12-103-4-180-11-184-17-6-10 125-8 812 14 187 6 518 9 735 6 344-4 409-7 504-25 60-12 111-23 114-26 2-3-7-52-21-108-14-57-31-138-38-181l-13-78-378 3c-208 2-378 0-378-3 0-16 74-20 402-20l350 1-6-38c-5-36-12-97-21-177-11-110-15-242-6-254 19-29 31 2 31 84 0 176 39 455 91 659 26 99 29 120 18 131-19 17-181 44-343 56-135 10-599 9-975-2z"/><path d="m1728 19984c-35-19-44-53-24-93 22-42 28-39 20 11-9 51 10 68 73 68 56 0 107-22 129-55 16-25 16-27-3-53-11-15-48-43-83-63-84-49-120-84-120-118 0-27 16-51 33-51 5 0 4 6-2 14-22 26 13 71 87 116 118 70 147 116 107 176-36 55-156 82-217 48z"/><path d="m4835 19933c-108-57-173-220-112-280 54-54 164-20 141 44-17 50-105 57-124 10-8-19-9-18-9 13-1 48 29 108 75 153 64 62 107 63 141 2 18-32 23-36 29-22 8 22-14 75-37 87-26 14-70 11-104-7zm-4-239c10-13 10-17-2-25-17-11-72-12-66-1 2 4 7 15 10 25 8 21 40 22 58 1z"/><path d="m3285 19930c-4-6-9-86-11-178-6-193-22-516-31-616-5-56-3-68 8-64 9 3 16 27 20 69 14 131 35 799 26 799-3 0-9-5-12-10z"/><path d="m5145 19891c-48-22-79-54-100-103-20-50-19-80 6-112 17-22 28-26 72-26 29 1 66 7 82 15 29 13 27 13-42 14-66 1-74 3-89 26-15 24-15 28 1 70 19 51 65 91 113 101 28 6 32 4 32-16 0-24 23-23 28 2 4 20-24 48-46 48-9 0-35-9-57-19z"/><path d="m754 19776c-46-33-94-195-70-235 14-22 62-12 91 19 16 16 30 28 32 26s-9-48-25-102c-40-137-47-187-27-204 13-11 19-11 33 3 15 16 15 17-2 17-24 0-18 29 44 246 40 142 46 171 34 180-8 6-14 18-14 26 0 37-57 51-96 24zm75-29c14-35 2-77-36-129-58-80-102-76-83 6 26 116 95 187 119 123z"/><path d="m3630 19714c-64-28-118-96-142-179-28-96 14-151 107-138 45 6 105 34 124 57 17 21 12 20-40-4-49-22-138-27-157-8-7 7-12 28-12 48 1 117 156 259 211 191 21-26 29-27 29-2 0 23-36 51-65 51-11-1-36-8-55-16z"/><path d="m1395 19633c-84-7-125-15-125-24 0-19 180 0 205 22 9 9 2 9-80 2z"/><path d="m4172 19619c3-9 23-15 54-17 50-4 179 7 172 13-2 3-55 7-117 11-94 5-113 4-109-7z"/><path d="m4285 19546c-47-6-78-15-75-21 8-17 112-8 165 14 43 17 46 20 20 19-16 0-66-6-110-12z"/><path d="m968 19476c-12-6-25-20-27-31-3-19-3-19 16-2 21 19 53 23 53 7 0-6-7-22-16-35-16-24-15-25 11-35 14-5 43-10 64-10 47 0 79-21 59-38-21-17-103-36-122-29-11 4-16 13-13 22 4 9 1 12-9 8-21-8-17-41 8-54 44-24 178 29 178 70 0 19-47 42-98 48-47 5-50 7-41 25 23 43-17 77-63 54z"/><path d="m1817 19473c-12-11-8-33 6-33 8 0 22 9 32 20 18 19 17 20-7 20-13 0-28-3-31-7z"/><path d="m4890 19460c0-5-27-38-60-73-33-36-60-68-60-72s16 2 35 14c19 11 35 19 35 17s-7-23-15-46c-17-47-20-100-6-100 5 0 14 21 20 48 7 26 27 84 45 129 18 46 31 85 28 88-9 8-22 6-22-5z"/><path d="m3875 19449c-11-6-33-31-49-55-35-56-30-88 18-104 43-14 105 9 141 52 31 37 32 62 0 93-26 27-73 32-110 14zm73-20c17-6 33-16 35-23 16-42-73-107-122-90-19 7-26 16-26 34 0 22 4 25 32 22 17-2 34 1 38 7 4 7-4 11-19 11-19 0-24 4-19 16 3 9 15 20 27 24 12 5 21 9 22 9 1 1 15-4 32-10z"/><path d="m5104 19435c-4-8-33-31-65-51s-59-43-59-50c0-20 12-17 54 11 20 13 36 21 36 17 0-5-9-36-21-70-20-59-20-112 0-112 4 0 11 20 14 45 4 24 22 82 41 129s31 87 28 90c-10 10-23 6-28-9z"/><path d="m4135 19099c-297-19-415-24-585-24-119 0-197 4-217 12-28 10-33 10-33-3 0-27 54-36 230-38 162-1 241 2 580 24 69 4 351 8 628 8s506 3 509 6c4 3 3 9-1 14-10 9-967 11-1111 1z"/><path d="m3030 18772c0-4 20-17 44-30 99-53 179-169 179-260 0-104-92-199-212-218-22-4-38-10-35-15 9-15 77-9 120 10 138 63 194 205 131 333-35 70-81 125-136 159-42 27-91 38-91 21z"/><path d="m3603 18738c-47-52-49-65-38-278 8-163-1-236-42-330l-25-59 22-46c21-43 22-59 21-233-1-103-3-236-6-295-2-59 0-118 4-130 13-33 24 158 25 408 1 179-2 217-17 257-18 46-18 47 6 106 22 53 30 89 43 192 2 14-2 87-8 163-9 105-8 146 1 177 13 45 50 75 82 67 13-3 19-1 16 6-7 23-61 19-84-5z"/><path d="m3917 18667c-47-99-74-279-47-312 25-30 71-16 133 43l37 36v-31c0-17 6-36 13-42 18-14 29-3 18 18-12 22 3 100 29 150 24 48 25 61 5 61-8 0-27-27-43-62-29-63-99-142-135-154-28-9-39 8-38 62 0 50 45 221 62 239 13 13 11 25-5 25-7 0-21-15-29-33z"/><path d="m7505 18666c-46-20-85-71-85-111 0-33-3-35-52-50-61-18-90-19-105-4-7 7-13 7-17 1-3-6 1-18 11-27 19-20 67-15 146 12 66 24 82 6 28-30-51-34-62-70-32-100 30-31 148-30 206 1l40 21-86-6c-141-9-176 12-100 63 46 30 54 46 36 70-11 16-7 23 35 61 47 42 64 71 51 91-11 17-46 21-76 8zm45-46c-21-39-100-87-100-60 0 22 63 80 86 80 21 0 23-3 14-20z"/><path d="m4876 18632c-10-16-36-171-36-213 0-80 58-76 126 8l43 52-6-69c-9-113 7-119 28-10 32 165 34 190 16 190-9 0-26-22-40-54-27-59-110-152-126-141-14 8-13 43 4 139 13 73 8 125-9 98z"/><path d="m6011 18622c-12-23-27-88-36-159-7-60 12-118 44-128 27-8 71 16 111 61l33 38-7-45c-7-47 7-105 23-95 4 3 11 38 15 78 3 40 9 97 12 126 9 69-8 68-41-2-31-65-97-129-128-124-19 3-22 10-25 59-2 31 4 87 13 125 16 68 8 107-14 66z"/><path d="m5663 18590c-7-10-15-37-19-59-6-37-8-40-52-48-63-11-68-33-8-33h46v-45c0-43 16-95 30-95 4 0 5 34 2 75l-5 75h34c19 0 45 3 57 7 34 8 8 23-42 23-39 0-39 0-32 38 3 20 9 47 12 60 8 27-7 29-23 2z"/><path d="m2916 18561c-16-3-31-12-34-19-3-11 10-12 66-7 41 5 77 3 87-3 16-8 13-13-26-42-24-17-57-39-72-48-32-19-47-60-26-73 35-22 161 5 194 41 21 24 14 25-40 5-22-8-60-14-84-15h-44l71 50c57 40 72 56 72 76 0 39-73 55-164 35z"/><path d="m4526 18530c-9-22-16-47-16-55 0-10-11-15-34-15-42 0-66-9-66-24 0-7 16-10 46-8l45 4-7-38c-4-22-8-46-8-54 0-93 19-93 27 1 3 39 11 77 17 84s31 16 56 20c24 3 42 10 39 15-3 4-23 6-45 3-46-6-49 0-25 66 20 57-6 58-29 1z"/><path d="m6718 18489c-38-22-16-29 75-23 50 3 112 8 137 11l45 7-45 7c-66 11-192 10-212-2z"/><path d="m6753 18424c-33-14-6-24 65-23 73 1 156 15 107 18-131 9-162 10-172 5z"/><path d="m4242 18377c-30-36-41-166-14-175 7-2 10 2 6 11-5 13 16 119 31 160 8 20-8 23-23 4z"/><path d="m6372 18368c-6-6-12-19-12-27 0-12 3-12 12-3 13 13 48 17 48 5 0-4-10-17-21-29-28-30-19-51 29-64 54-14 68-32 43-54-26-23-90-37-113-25-21 11-24 35-5 43 6 3 3 5-8 3-24-3-32-41-15-63 18-20 94-18 139 6 67 34 66 78-3 106-43 18-43 18-27 46 12 21 13 32 5 45-13 22-55 28-72 11z"/><path d="m5157 18364c-18-19-6-33 23-27 41 8 38-8-11-62-54-58-50-79 15-83 50-3 110 14 101 28-3 5-30 6-60 3s-55-2-55 2 16 25 36 47c48 53 45 92-6 96-20 2-39 0-43-4z"/><path d="m2532 17948c142-138 154-338 28-504-24-32-62-66-93-84-57-33-39-42 21-11 96 50 176 187 185 316 8 110-50 250-127 306-64 47-73 33-14-23z"/><path d="m11900 17996c0-2 12-25 28-52 22-40 27-61 26-115 0-59-6-78-52-170-33-68-73-128-112-173-60-67-70-87-33-68 47 26 155 181 203 292 41 96 30 207-28 273-13 15-32 23-32 13z"/><path d="m1955 17926c-70-74-135-251-135-367 0-146 59-219 158-193 35 10 26 20-13 16-21-3-45 2-59 11-30 20-56 95-56 162 0 130 95 345 166 377 32 15 31 28-2 28-17 0-38-12-59-34z"/><path d="m3969 17906c-64-44-138-170-146-250-7-71 10-92 72-89 48 2 143 41 165 68 21 26 7 25-47-1-63-32-127-42-149-23-34 28 20 161 98 242 57 60 83 61 82 2 0-22-4-53-8-70l-7-30 20 23c28 33 38 89 20 121-20 35-56 37-100 7z"/><path d="m4294 17885c-21-32-54-158-54-206 0-21 8-47 18-59 26-32 64-20 120 35 34 34 43 39 38 22-20-70-25-118-14-142 15-34 41-34 28-1-10 27 8 116 40 204 24 63 24 72 5 72-8 0-22-14-31-31-21-42-91-117-125-135-23-12-29-11-39 1-24 28 13 204 47 232 15 12 10 33-7 33-5 0-17-11-26-25z"/><path d="m8588 17873c-43-49-102-210-124-335-16-94-10-142 24-180 26-31 33-20 12 19-24 45-25 89-4 190 25 124 91 286 120 297 9 3 12 10 9 16-9 15-20 12-37-7z"/><path d="m11182 17883c-18-7-71-118-78-165-5-31-14-42-48-62-23-13-58-27-78-31-46-9-64 16-49 70 7 27 6 38-5 50-23 22-64-5-108-69-50-74-22-122 49-86 26 13 43 16 60 10 24-9 77-1 112 18 32 17 34 15 15-18-16-28-16-30 2-47 17-16 18-16 13-1-3 9 3 28 15 43 20 26 20 26 40 6 10-12 27-21 37-21 17 0 51 29 51 43s-34 37-56 37c-32 0-30 14 10 69 38 52 71 134 61 150-7 12-21 13-43 4zm-3-95c-12-24-24-38-26-31-2 6 6 31 18 55s24 38 26 31c2-6-6-31-18-55zm-269-87c0-35-44-91-71-91-10 0-19 4-19 9 0 19 70 109 88 111 1 0 2-13 2-29zm270-81c0-5-6-10-14-10s-18 5-21 10c-3 6 3 10 14 10 12 0 21-4 21-10z"/><path d="m2285 17835c-37-44-37-44-113-47-69-3-77-5-77-23 0-14 12-23 48-34 26-8 47-18 47-23s-16-32-35-61c-39-58-41-63-21-83 22-21 43-17 106 21 32 19 63 35 69 35s24-14 40-32c34-39 67-34 57 8-20 77-20 77 34 112 40 26 51 38 48 55-3 19-10 22-60 25-60 3-58 2-72 65-9 39-29 34-71-18zm51-42c-2-3-14-3-25-1-21 3-21 4-5 27l17 24 9-23c5-13 6-25 4-27zm-113-44c-8-8-16-8-30 0-16 9-14 10 12 11 21 0 26-3 18-11zm125-25c5-51-19-61-66-26-32 23-38 32-30 46 7 13 20 16 51 14 39-3 42-5 45-34zm87 20c-33-26-55-36-55-25 0 5-3 16-6 25-5 13 2 16 37 16 42-1 43-1 24-16zm-177-70c12-8 22-18 22-22 0-10-120-75-126-69-8 7 59 107 71 107 6 0 21-7 33-16zm112-45c0-6-4-7-10-4-5 3-10 11-10 16 0 6 5 7 10 4 6-3 10-11 10-16z"/><path d="m7123 17823c-15-5-18-43-4-43 5 0 11 5 13 11 5 16 48-7 48-24 0-8-13-26-30-42-16-16-30-35-30-42s18-24 40-38c44-28 51-49 21-65-29-15-71-13-71 4 0 8 6 17 13 20 6 3 1 4-13 3-29-2-36-25-17-51 30-41 128-8 135 45 3 17-6 32-34 56l-39 32 28 29c39 41 37 79-8 98-19 7-36 14-37 13-2 0-9-3-15-6z"/><path d="m10110 17788c-17-22-40-67-51-99-18-48-31-66-77-101-104-80-95-78-87-13 5 35 17 72 31 93 28 40 30 55 9 72-34 28-126-34-141-95-8-33 17-58 50-49 20 5 21 1 18-46-4-50-6-52-74-106-76-61-108-104-108-146 0-67 85-92 137-40 29 30 62 117 64 168 1 48 12 63 84 119 62 48 71 53 85 40 24-22 34-19 71 19 22 22 47 35 72 39 37 6 37 6 37-32 0-22 6-44 15-51 17-14 18-12 15 50-3 63-12 72-74 64-40-5-56-13-74-35-23-29-42-37-42-19 0 5 21 32 46 61 52 59 80 110 71 133-11 29-46 18-77-26zm25-48c-30-43-45-48-25-8 17 31 42 59 48 53 3-2-8-23-23-45zm-215-38c0-18-29-65-30-48 0 4-11 1-25-8-37-24-48-20-30 13 26 51 85 81 85 43zm-66-274c-13-75-26-109-50-138-60-71-130-9-73 65 20 24 115 105 125 105 2 0 1-15-2-32z"/><path d="m11342 17808c-5-7-30-55-56-105-55-111-61-147-17-110 9 8 46 30 82 50l67 35 5-28c9-43 49-48 129-15 13 5 17 0 20-21 6-55 68-55 98 1 7 14 25 25 44 28 17 3 39 8 48 12 13 5 17 0 20-21 2-15 9-29 16-32 7-2 11 0 10 5-2 4 3 27 11 51 8 23 11 45 8 48-3 4-27-4-52-16-37-18-55-21-93-15l-47 7 43 36c45 40 52 56 26 66-12 5-35-12-78-57-48-50-72-66-109-77-61-16-76-6-52 40s6 59-37 27c-39-29-142-82-136-70 2 4 17 35 34 68s35 70 38 83c8 24-5 30-22 10zm302-182c-7-17-31-28-38-18-3 4 3 23 12 41 15 31 16 32 24 12 4-11 5-27 2-35z"/><path d="m6087 17802c-15-23-57-187-57-224 0-31 20-68 36-68 18 0 67 36 93 67l31 38v-48c0-56 17-62 25-9 4 20 16 70 27 110 12 40 18 75 15 78-10 11-26-6-45-49-23-52-111-147-136-147-17 0-18 6-12 53 4 28 14 76 22 104 16 54 16 119 1 95z"/><path d="m7455 17791c-71-44-133-137-142-211-5-42-3-49 22-68 35-28 95-28 153-2 50 23 55 32 10 19-93-26-165 2-152 59 20 86 116 198 162 189 17-3 22 0 20 12-5 23-38 24-73 2z"/><path d="m7679 17789c-22-43-59-163-59-196 0-62 52-57 124 11 25 25 46 42 46 38s-4-23-9-42c-4-21-4-46 1-60 9-22 12-18 29 45 43 157 35 170-44 80-46-52-103-93-114-81-8 8 18 106 43 165 28 63 28 61 9 61-8 0-19-10-26-21z"/><path d="m5380 17791c0-5 19-12 43-16 52-9 97-31 97-49s-37-49-97-81c-70-37-88-57-74-84 22-39 135-40 200 0 37 22 37 35 0 20-39-14-102-20-139-12l-35 7 45 28c124 77 139 93 125 137-4 11-26 29-48 40-44 19-117 26-117 10z"/><path d="m5765 17781c-70-44-125-126-125-189 0-70 110-105 204-64 47 21 67 51 24 37-40-14-145-17-167-5-27 14-28 64-3 105 30 48 84 95 109 95 24 0 26-5 23-57-2-37 15-44 24-10 24 90-19 132-89 88z"/><path d="m9408 17769c-23-13-73-85-121-174l-37-70 6 63c8 71-5 81-47 36-29-31-76-57-89-49-12 7-7 69 9 107 28 71-30 85-97 24-77-69-64-163 16-122 29 15 30 15 36-9 10-40 54-37 109 7l38 30-6-39c-11-60-65-305-70-313-2-3 0-12 5-19 10-17 30-5 30 18 0 50 99 294 116 287 53-20 181 174 144 219-14 17-19 18-42 4zm16-51c-17-57-86-149-100-136-10 11 11 54 54 111 39 51 58 61 46 25zm-314-26c0-21-10-36-42-60-45-35-58-39-58-19 0 27 68 106 93 107 4 0 7-13 7-28zm137-184c-3-8-6-5-6 6-1 11 2 17 5 13 3-3 4-12 1-19z"/><path d="m8840 17740c-25-25-16-49 9-26 34 31 42 15 12-23-40-50-39-70 4-104 39-31 44-60 20-107-33-64-126-94-133-42-2 12 2 22 9 22s9 3 6 6c-11 11-37-17-37-40 0-86 145-43 184 54 21 54 14 92-25 124-16 14-29 28-29 33 0 4 14 28 30 52 23 34 27 47 19 57-16 20-46 17-69-6z"/><path d="m9639 17729c-15-17-31-45-35-64-6-35-28-45-100-45-19 0-34-5-34-11 0-7 24-10 68-8 39 2 76-2 89-9 31-17 68-15 84 4 12 15 11 16-8 10-12-4-32-2-44 4-21 12-20 13 16 42 43 36 61 74 44 94-19 23-49 16-80-17zm61-11c0-14-40-58-52-58-14 0-9 16 13 44s39 34 39 14z"/><path d="m6710 17733c-65-5-80-12-57-24 22-13 240 9 231 22-5 9-80 9-174 2z"/><path d="m10637 17720c-15-12-36-38-47-58-17-33-19-35-20-12-1 54-20-4-66-195-60-256-58-245-45-245 15 0 27 29 51 130 36 147 63 231 70 219 17-26 154 46 179 95 11 19 12 34 5 54-8 23-16 27-55 30-34 2-52-2-72-18zm103-21c10-18 6-26-28-59-39-37-132-79-132-59 0 22 41 88 70 113 38 32 75 34 90 5z"/><path d="m4878 17693c-16-2-28-9-28-15 0-7 20-9 61-4 34 3 92 6 128 7 46 0 60 3 46 9-20 9-157 11-207 3z"/><path d="m6763 17656c-85-12-107-21-80-32 17-6 144 17 187 35l25 10-25-1c-14 0-62-6-107-12z"/><path d="m4579 17614c-14-38-23-139-14-161 5-12 13 8 25 67 9 47 20 93 25 103 5 12 3 17-9 17-9 0-21-12-27-26z"/><path d="m4952 17633c-36-3-52-8-49-16 5-16 95-12 162 7l50 14-55-1c-30 0-79-2-108-4z"/><path d="m7957 17594c-11-11-8-44 4-44 7 0 9-10 5-25-5-18 1-40 21-75 32-56 26-70-37-89-23-7-40-18-40-26 0-21 34-19 80 5 50 25 60 58 34 109-12 22-19 57-19 91 0 48-3 55-20 58-12 2-24 0-28-4z"/><path d="m6332 17568c-20-20-13-27 26-25 32 2 37-1 34-18-2-11-23-40-48-65-45-47-56-83-28-94 43-16 194 4 194 27 0 6-24 8-66 4-36-2-74-3-85 0-17 5-16 9 16 45 33 36 55 76 55 98 0 33-73 53-98 28z"/><path d="m5051 17154c-29-37-52-116-58-199-4-59-2-74 14-93 25-31 81-32 122-3l30 22-1-54c-1-29 2-59 6-65 16-26 26-9 26 41 0 30 9 89 21 133 34 129 34 126 13 122-13-2-24-23-39-72-17-56-27-73-55-93-22-15-46-23-65-21-25 3-31 9-39 39-11 47 16 175 49 223 22 32 23 46 4 46-4 0-17-12-28-26z"/><path d="m7875 17131c-47-20-65-60-52-112 6-24 3-29-36-44-23-10-77-20-120-23-101-6-101-28 1-26 52 1 84 8 128 28 34 16 65 24 77 20 17-5 13-12-31-50-80-70-107-155-60-188 39-28 139-16 242 28 57 24 40 28-42 11-86-18-169-22-183-8-20 20 5 69 68 130 34 33 63 66 63 71s-10 16-22 24c-22 15-22 15 5 42 36 36 46 75 22 93-21 15-31 15-60 4zm45-44c0-18-49-68-61-62-14 9-11 37 8 57 18 21 53 24 53 5z"/><path d="m6604 17083c-38-90-58-279-34-324 21-38 79-16 120 46l20 30v-65c0-76 19-123 20-50 1 38 27 152 55 238 5 16 3 22-8 22-9 0-24-23-38-57-25-62-109-158-131-151-10 4-13 29-11 104 1 87 8 125 38 222 12 38-15 25-31-15z"/><path d="m6250 17097c-14-7-26-23-28-35-4-27 2-28 28-2 25 25 60 26 60 2 0-10-16-33-35-52-38-36-45-64-19-74 35-14 174-1 174 15 0 5-34 9-75 9s-75 3-75 6c0 4 14 22 30 41 61 68 20 130-60 90z"/><path d="m3865 17080c-91-20-152-89-113-128 20-20 28-14 22 17-5 22-1 32 21 49 15 12 44 26 64 32 30 8 38 7 48-7 23-30-12-116-71-172-34-33-36-33-60-17-35 22-73 21-86-4-25-46 24-85 75-62 17 8 32 8 52 0 58-22 130 11 232 105l41 38v-28c0-36 26-73 51-73 11 0 40 19 66 42l46 43-8-42c-7-44 0-83 16-83 5 0 9 15 9 33 0 17 9 66 20 107 24 90 24 100 6 100-8 0-28-24-44-53-28-50-92-117-112-117-26 0-22 77 7 133 7 15 11 32 8 37-11 17-34-2-45-36-8-24-34-54-78-90-83-69-131-94-178-94h-37l41 44c53 57 82 116 82 163 0 59-20 75-75 63zm-105-250c12-8 12-10-3-16-20-7-47 1-47 16 0 12 30 13 50 0z"/><path d="m4746 17018c-23-111-16-101-79-114-32-6-61-14-64-18-15-15 12-19 67-10l60 10v-41c0-23 6-49 13-58 10-15 12-12 11 23-2 77 3 87 53 95 55 8 73 14 73 26 0 5-27 6-60 2l-61-6 7 57c5 38 3 56-4 56s-14-10-16-22z"/><path d="m5820 16971c-5-11-14-37-18-58-5-21-13-37-18-37-92 15-116 15-112 3 5-14 26-23 81-34 27-5 27-8 26-63-3-61 8-122 20-122 5 0 8 30 8 68 0 101 5 109 66 117 88 13 99 24 23 24l-68 1 7 38c3 20 9 47 12 60 6 27-12 29-27 3z"/><path d="m7130 16955c10-12 38-15 136-15 68 0 124 4 124 9 0 8-127 21-219 21-46 0-52-2-41-15z"/><path d="m7185 16861c-11-19 18-23 104-17 155 13 168 24 29 25-70 1-129-3-133-8z"/><path d="m4382 16848c-12-12-17-38-6-38 3 0 12 7 20 15s21 12 29 9c30-12 15-49-40-100-58-54-65-72-39-98 24-25 174-20 174 5 0 5-26 9-57 10-100 1-104 7-44 68 40 42 51 61 51 85 0 39-15 56-50 56-14 0-31-5-38-12z"/><path d="m5321 16851c-8-5-11-16-7-26 5-14 9-15 21-5 21 18 35 3 35-37 0-25-12-53-40-95-22-33-40-71-40-84 0-42 60-57 125-30 52 22 42 33-25 28-71-5-74 2-30 68 54 81 61 137 24 174-17 18-42 20-63 7z"/><path d="m6291 16850c-33-3-56-10-59-19-4-11 13-12 98-6 56 4 114 11 129 15 23 7 20 9-19 10-25 1-56 3-70 4s-49-1-79-4z"/><path d="m6308 16753c-25-6-22-21 3-25 28-4 47-33 34-52-38-52-45-65-40-79 4-8 17-18 31-21 32-8 30-22-6-41-41-21-74-20-66 3 7 16 6 16-10 0-14-14-15-20-4-32 31-38 132 4 138 56 3 22-2 29-22 34-31 7-32 18-6 51 20 26 26 59 12 79-11 17-45 31-64 27z"/><path d="m6818 16749c-10-5-18-19-18-29 0-24 6-25 26-5 20 19 64 20 64 1 0-8-16-33-35-56-66-79-57-120 27-120 54 0 116 26 101 41-6 6-20 6-37-1-15-5-43-10-62-10-43 0-45 19-5 69 45 57 53 78 41 101-12 22-71 28-102 9z"/><path d="m4400 16206c-47-40-87-80-88-90-6-27 10-17 78 48 33 32 64 56 67 52 3-3-8-34-24-68-43-90-56-125-51-140 6-16 128 224 128 252 0 33-21 23-110-54z"/><path d="m4105 16178c-85-61-111-88-83-88 7 0 49 27 93 59 44 33 81 58 83 56s-22-50-53-108c-37-69-52-108-45-112 14-9 8-18 74 106 89 168 74 188-69 87z"/><path d="m4737 16188c-3-13-15-81-27-151-18-100-20-134-11-153 22-49 63-22 151 101 37 52 42 56 37 30-24-147-28-187-23-201 4-9 9-15 11-12 10 10 54 268 49 283-12 31-35 13-88-67-64-99-102-139-111-116-4 9 3 68 14 132 23 124 26 176 12 176-5 0-11-10-14-22z"/><path d="m6260 16168c-24-13-53-35-64-51-17-23-19-32-9-57 11-30 11-30-58-51-38-12-69-25-69-30 0-16 54-9 112 15 56 23 59 23 103 7 25-9 44-19 43-22-2-3-27-26-57-50-71-58-93-88-94-133-1-44 13-56 67-56 48 0 196 39 196 51s-8 12-111-7c-48-9-95-14-104-11-40 16-1 80 92 148 66 49 69 74 13 97-44 19-49 28-21 37 23 7 101 78 101 93 0 21-32 42-64 42-17 0-52-10-76-22zm104-17c11-17-92-91-126-91-25 0-22 32 5 58 37 35 108 55 121 33z"/><path d="m5434 15949c-2-4 3-13 12-20 13-10 36-10 129 0 183 20 189 30 17 28-85-1-156-5-158-8z"/><path d="m4038 15939c-19-12 7-18 99-25 90-6 347 11 387 26 11 4-91 7-227 6-137 0-253-4-259-7z"/><path d="m5060 15891c-44-9-60-18-60-36 0-12 5-12 35 1 43 18 98 19 93 2-3-7-33-33-69-59-65-46-86-82-57-100 26-17 83-9 123 16l40 26-32-6c-18-3-46-8-62-11-51-9-43 13 21 58 61 42 83 78 61 98-14 13-56 18-93 11z"/><path d="m5510 15850c0-6 47-10 120-10s120 4 120 10-47 10-120 10-120-4-120-10z"/><path d="m4222 15832c-42-12-23-24 41-25 72-2 102-18 87-47-10-19-1-31 33-43 47-17-33-69-98-65-35 3-40 6-37 26 2 26-15 26-32-1-17-26 19-57 66-57 42 0 102 22 130 47 25 22 23 60-4 75-13 7-23 22-23 32 0 40-101 76-163 58z"/><path d="m5419 15366c-3-3-238-8-524-12-518-6-665-9-760-14l-50-3 55-6c61-7 955-4 1035 4 28 2 401 7 830 9 719 4 934 1 949-15 4-3-3-36-14-72-48-155-87-421-105-712-3-49-8-111-11-137l-6-48-51-1c-156-3-347-2-747 3-406 5-794-1-1150-16-74-3-276-9-447-13l-313-6v49c1 27 5 96 10 154s12 157 16 220c3 63 7 120 9 127 10 32 17 446 8 440-6-4-13-53-17-109-4-57-9-130-11-163-3-33-12-172-20-310-9-137-20-290-25-340-12-117-13-115 5-115 8 0 15 7 15 15 0 12 45 14 306 14 168 1 308 3 312 5 19 11 767 21 1411 17 638-3 723-1 718 12-3 8-2 32 3 53 4 22 11 82 15 134 21 317 58 563 107 717 25 81 22 106-17 114-33 7-1529 12-1536 5z"/><path d="m6473 15245c-43-18-83-59-83-84 0-16-12-24-52-36-28-8-69-15-90-15s-38-4-38-10c0-16 91-12 144 6 40 14 55 15 88 5l40-12-46-29c-56-36-70-74-36-102 31-25 150-25 205 1l40 19-86-5c-148-10-174 12-89 72 50 35 56 55 23 70-28 12-29 22-4 30 38 12 101 65 101 85 0 17-7 20-42 20-24-1-58-7-75-15zm87-14c0-12-79-58-116-67-29-7-29-7-9 16 32 36 125 74 125 51z"/><path d="m5843 15193c-29-11-9-23 40-23 65 0 87-12 69-37-25-36-24-45 8-89 39-55 30-74-36-74-36 0-42 3-37 17 5 13 2 15-11 10-10-4-20-7-22-7s-4-9-4-20c0-25 40-42 78-34 91 20 111 52 68 108-28 38-32 56-15 73s6 57-21 70c-25 13-93 16-117 6z"/><path d="m4432 14982c-86-199-22-264 126-129l45 42-6-30c-15-68-19-123-10-139 7-13 12 0 22 51 8 37 25 98 38 136 13 37 21 72 17 78-3 6-36-21-75-64-68-74-145-125-162-108-12 12 9 106 37 164 21 42 21 47 6 47-11 0-25-17-38-48z"/><path d="m5248 14953c-10-2-18-8-18-13 0-4 8-10 18-12 23-5 208 15 218 25 8 7-188 8-218 0z"/><path d="m6505 14908c-55-5-259-10-453-11-248 0-349-4-342-11 31-31 935-10 1049 24 36 11-127 10-254-2z"/><path d="m5351 14889c-46-4-91-11-100-14-14-6-14-7 1-16 20-11 216 15 232 31 11 11-7 11-133-1z"/><path d="m4727 14804c-16-16-6-31 17-27 29 6 66-12 66-32 0-8-27-36-60-62-66-51-76-82-30-93 32-8 104 5 153 26 41 19 52 39 12 24-14-5-55-13-92-16l-68-7 58 52c44 41 57 60 57 82 0 17-7 32-18 38-26 14-86 23-95 15z"/><path d="m6015 14699c-98-112-107-150-12-49 33 36 57 56 53 45-5-11-21-58-37-104-41-118-38-170 7-136 15 12 16 16 6 23-17 12-5 58 49 195 64 161 54 165-66 26z"/><path d="m6363 14749c-25-33-99-106-162-161-30-26-50-51-46-58s33 13 78 52c59 53 69 59 64 38-39-150-44-201-17-174 5 5 21 50 35 99 14 50 39 117 55 150 30 62 26 96-7 54z"/><path d="m3290 14107c0-2 9-22 20-45 39-80 52-158 48-276-4-98-8-119-35-177-35-77-90-141-134-160-28-11-33-10-45 6-14 18-14 18-14-2 0-63 76-48 146 30 90 101 128 229 112 387-12 122-53 240-83 240-8 0-15-1-15-3z"/><path d="m3459 14024c-10-12-15-75-20-234-5-155-12-236-24-281-29-108-30-102 12-124 21-11 44-33 51-48 21-44 15-161-18-337-33-179-37-247-16-289 24-45 43-56 71-41 24 13 40 38 30 48-3 3-13-2-23-11-25-23-29-22-48 15-20 39-15 132 17 298 28 148 31 292 6 337-9 18-31 40-48 49-21 10-29 20-25 31 23 60 45 298 46 501 0 80 14 93 35 32 8-23 14-30 19-21 10 16 0 56-20 75-20 20-28 20-45 0z"/><path d="m5255 13932c-78-48-155-171-155-249 0-62 33-96 93-96 26 0 56 7 71 17 31 20 36 42 7 26-34-18-106-12-126 10-35 39 7 152 87 233 55 55 74 59 83 17 8-36 25-30 25 9 0 51-33 64-85 33z"/><path d="m5692 13913c-37-73-63-170-60-220 3-46 4-48 36-51 30-3 41 4 99 65 50 51 65 62 59 43-18-67-25-122-17-142 11-27 10-28 41 104 12 54 19 102 15 108-13 20-35 9-64-33-36-52-106-117-126-117-30 0-8 114 50 263 14 34-15 17-33-20z"/><path d="m3115 13929c-36-21-75-62-75-81 0-25 15-22 34 7 15 23 76 63 76 49 0-4-16-24-36-46-45-51-42-75 14-106 46-26 55-54 23-72-26-13-58-13-63 2-6 17-28 0-28-21 0-36 78-31 123 7 28 25 18 72-21 99-18 12-38 23-44 25-7 3 7 28 31 58 23 29 41 60 39 69-4 19-46 25-73 10z"/><path d="m3771 13914c-65-54-136-255-112-316 20-53 73-28 121 55 44 77 40 48-24-163-31-103-34-153-8-148 12 3 16 12 14 32-2 15 6 57 18 93 46 144 91 331 91 381 1 88-41 116-100 66zm73-20c11-29 6-72-9-78-8-3-15-12-15-20 0-45-93-196-120-196-45 0 17 216 83 288 24 26 52 29 61 6z"/><path d="m4917 13922c-29-18-44-53-31-73 5-9 10-6 15 9 14 37 87 71 96 45 2-7-14-32-36-56-50-54-52-77-8-101 57-33 68-46 56-68-13-24-67-48-109-48-34 0-38 14-12 43 16 18 16 19-3 16-10-2-26-16-34-31-13-22-13-29-2-42 30-36 152-4 186 48 16 24 16 28 2 50-9 13-32 34-51 46-20 12-36 24-36 27s18 26 41 50c30 33 39 51 37 71-3 24-8 27-43 29-25 2-51-4-68-15z"/><path d="m4400 13811c0-18 44-23 148-16 66 5 100 10 91 16-19 12-239 12-239 0z"/><path d="m4539 13729c-37-5-80-14-95-21-27-11-28-12-7-15 30-6 184 24 197 37 12 12 2 11-95-1z"/><path d="m5465 13729c-4-6-5-13-2-16 7-7 27 6 27 18s-17 12-25-2z"/><path d="m5957 13649c-22-13-12-32 14-24 26 9 24-7-6-35-33-31-32-39 12-76l37-31-28-18c-15-10-50-20-77-23-58-5-62-25-5-30 51-4 124 32 133 66 5 21 0 31-27 54l-34 28 22 23c25 26 28 47 10 65-14 14-27 15-51 1z"/><path d="m3953 13603c-7-2-13-10-13-17 0-10 14-12 50-8 62 6 65-8 10-46-47-32-52-59-12-68 46-10 52-13 52-27 0-8-8-22-19-31-23-21-91-34-91-17 0 6-5 11-11 11s-9-10-7-22c7-50 113-25 153 36 21 32 6 64-36 73l-30 6 35 29c38 31 48 71 20 82-18 7-83 7-101-1z"/><path d="m9030 13323c-8-3-28-15-43-26-24-16-28-25-25-53 4-33 3-34-50-50-30-8-75-17-101-19-61-4-68-19-11-23 28-2 73 6 118 21 60 19 76 21 90 11 9-7 15-14 12-17-3-2-26-18-52-36-51-34-62-63-29-81 21-11 110-14 135-4 30 12 5 24-49 24-30 0-56 4-60 9-3 6 15 24 40 41 48 33 61 72 28 84-14 6-9 12 25 32 41 24 61 61 47 83-6 12-49 13-75 4zm49-41c-18-29-70-55-83-42-15 16 37 60 70 60 21 0 23-3 13-18z"/><path d="m6984 13246c-25-19-15-28 22-17 34 9 74-2 74-22 0-7-18-31-40-52-52-51-50-73 10-102 25-11 45-27 45-35 0-12-39-27-110-43-27-6-28-8-11-17 36-20 146 13 160 48 8 22-9 41-58 66-23 11-43 22-45 24-3 3 12 22 33 43 43 44 51 86 20 108-23 17-75 17-100-1z"/><path d="m8393 13220c-32-19-42-43-24-55 5-3 21 6 35 20 16 15 36 25 55 25 29 0 61-22 61-42 0-10-52-63-103-105-52-42-12-65 95-55 98 8 82 29-27 34l-50 3 37 23c39 24 78 78 78 106 0 9-11 28-25 41-30 31-86 33-132 5z"/><path d="m5137 13203c-10-18-47-161-47-184 0-25 16-49 32-49 5 0 28 18 52 40l43 39-5-57c-2-31-1-54 4-49 9 9 56 163 58 191 2 35-22 27-47-17-31-53-80-107-97-107-15 0-6 70 16 132 8 22 14 47 14 54 0 15-16 19-23 7z"/><path d="m4865 13190c-37-9-26-13 40-14 73-1 68-27-17-91-99-74-103-122-9-110 66 8 116 25 147 51l29 24-58-20c-71-24-157-36-157-23 0 5 20 24 44 42 64 45 106 90 106 111 0 36-53 48-125 30z"/><path d="m6243 13183c-28-11-11-23 31-23 28 0 52-7 67-19l24-19-29-31c-16-16-58-42-93-57-82-35-83-58-3-62 69-4 160 6 160 19 0 5-35 9-77 9h-78l45 26c66 37 90 63 90 96 0 24-7 32-42 48-42 19-71 23-95 13z"/><path d="m2454 13172c-6-4-26-35-43-69-31-63-31-63-79-64-120-3-145-32-63-74 28-14 51-27 51-29 0-12-53-96-61-96-5 0-9-5-9-11 0-13 27-8 92 17l48 18 34-38c20-21 40-35 46-31 5 3 10 28 10 54v47l68 28c169 69 174 126 11 126h-69v48c0 51-17 87-36 74zm6-81c0-31-4-40-22-44-12-4-24-5-26-3-4 5 37 86 43 86 3 0 5-17 5-39zm-5-98c-2-16-4-40-4-54-1-38-38-46-70-15-37 38-7 96 49 96 25 0 28-3 25-27zm195 18c0-10-103-62-147-76-21-6-23-3-23 33 0 21 3 42 7 45 10 11 163 8 163-2zm-302-26c-11-25-20-24-63 9-19 14-17 15 27 16 47 0 47 0 36-25zm11-79c10-12 8-17-8-25-33-18-42-14-29 14 13 29 21 31 37 11zm91-42c0-8-4-12-10-9-5 3-10 10-10 16 0 5 5 9 10 9 6 0 10-7 10-16z"/><path d="m3775 13098c-27-39-74-174-81-230-5-43-3-56 10-67 15-12 22-12 51 2 35 17 123 116 151 168 22 44 26 32 9-31-17-64-19-136-5-145 6-3 10 4 10 17s11 70 24 127c14 56 22 109 19 117-10 28-31 13-67-49-46-79-109-153-147-173-29-14-29-14-29 15 0 39 44 177 70 219 11 18 20 37 20 42 0 17-18 11-35-12z"/><path d="m7608 13096c-26-7-54-18-62-26-24-19-19-48 10-63l26-14-43-17c-24-10-70-21-102-23-36-4-56-10-54-17 7-20 93-9 166 22 68 29 101 32 101 11 0-5-27-30-60-55-33-26-62-56-66-67-9-29 18-49 76-55 53-5 190 14 190 26 0 4-49 7-109 7s-113 4-118 9c-4 4 10 22 32 40 56 44 95 83 95 95 0 5-7 17-16 25-14 15-13 18 15 42 36 30 39 49 12 64-24 12-34 12-93-4zm76-37c-10-11-27-25-37-31-21-11-77-1-77 13 0 15 60 38 99 39 34 0 34 0 15-21z"/><path d="m1557 13083c-9-14-37-168-39-207-1-36 18-66 43-66 14 0 62 45 101 94l41 51-7-55c-4-31-4-64 0-73 9-24 31-21 45 6 12 21 11 21-6 7s-18-12-12 56c10 107-4 111-82 24-95-107-112-96-81 54 11 54 20 102 20 107 0 11-17 12-23 2z"/><path d="m5327 13073c-14-13-6-23 15-20 16 1 24-4 26-18 2-15-10-30-43-53-51-36-63-57-47-82 10-17-1-18-174-25-101-4-187-11-190-16-15-24 397-8 454 18l37 16-43 7c-67 10-70 22-13 64 41 28 51 42 51 64 0 15-5 33-12 40-13 13-50 16-61 5z"/><path d="m2852 13039c2-6 8-10 13-10s11 4 13 10-4 11-13 11-15-5-13-11z"/><path d="m4350 13039c0-20 58-30 143-26 48 2 90 7 94 10 3 4 0 7-8 7-30 1-165 11-196 15-18 2-33-1-33-6z"/><path d="m1838 12998c-8-7-24-26-34-43l-18-30 31 29c37 34 70 30 59-7-4-12-10-40-13-61-5-35-3-42 27-66l33-27-75-74c-59-59-77-84-88-121-11-42-10-51 4-73 28-43 80-30 144 35 51 52 77 123 68 185-4 26-3 46 4 50 18 11 11 27-7 16-14-7-27-2-55 22-36 32-36 32-25 85 8 38 8 58 1 70-14 22-35 26-56 10zm112-280c0-57-35-124-83-159-117-84-110 37 8 153 32 31 62 55 67 52 4-3 8-24 8-46z"/><path d="m5760 13001c0-5 24-11 53-15 28-4 69-10 90-13 46-7 50 11 6 26-38 13-149 15-149 2z"/><path d="m7973 12983c-30-3-43-9-43-19 0-15 33-15 175 1 17 2 40 4 53 4 12 1 22 6 22 11 0 10-114 11-207 3z"/><path d="m8870 12969c-52-4-140-10-195-13-148-9-205-17-205-29 0-11 134-5 422 19 224 18 295 32 163 32-49-1-133-4-185-9z"/><path d="m4421 12949c-46-9-58-15-48-25 7-8 176 16 197 27 20 11-91 9-149-2z"/><path d="m5838 12912c-86-17-108-38-30-29 48 6 164 47 127 45-11-1-55-8-97-16z"/><path d="m6655 12911c-3-5-1-12 4-15 13-8 42 4 35 15-7 12-31 12-39 0z"/><path d="m6233 12890c-40-3-76-10-80-14-13-13 19-24 56-20 85 12 226 36 230 40 6 6-118 3-206-6z"/><path d="m7908 12893c-10-2-18-9-18-14 0-11 205-10 240 1 27 9 36 8-130 15-41 1-83 1-92-2z"/><path d="m8915 12833c-68-47-107-94-91-110 4-4 15 2 23 15 18 26 112 97 119 90 2-3-13-41-35-84-42-84-59-148-43-158 5-3 17 16 27 42s37 87 61 135c24 49 44 95 44 103 0 26-35 15-105-33z"/><path d="m6896 12862c-11-18 23-22 182-22 122 0 153 3 144 12-16 16-316 25-326 10z"/><path d="m2862 12849c2-6 8-10 13-10s11 4 13 10-4 11-13 11-15-5-13-11z"/><path d="m4025 12844c-21-21-13-29 14-14 33 17 44 3 37-45-7-41-6-42 34-60 22-10 40-24 40-31 0-21-45-45-90-49-47-3-61-12-40-25 32-20 130 13 150 51 15 26-10 66-46 75-23 6-25 10-19 46 8 45-6 68-41 68-12 0-30-7-39-16z"/><path d="m8677 12784c-79-76-83-98-5-30 28 25 53 44 55 43 1-2-13-41-32-86-39-92-42-113-20-131 13-11 15-8 15 14 0 15 18 71 40 125 63 154 53 167-53 65z"/><path d="m6242 12788c3-7 19-14 36-16 31-3 43-24 22-37-18-11-10-44 15-60 14-8 36-22 50-30 44-27 2-67-83-81-39-6-41-5-48 21-5 22-2 32 17 47l24 19-25-6c-48-13-63-53-34-93 41-59 221 19 199 87-3 12-25 31-48 42-23 12-43 22-45 24-1 1 5 16 14 34 13 25 13 35 4 46-16 19-104 21-98 3z"/><path d="m5059 12739c-19-16-20-19-6-15 39 12 123 17 137 7 13-9 11-14-13-37-31-28-31-42-1-58 55-30 63-37 58-50-13-34-116-48-133-18-8 13-12 14-22 5-20-20 17-53 57-53 45 0 112 28 125 51 13 25-3 54-42 75l-31 16 21 22c45 47 20 76-65 76-48 0-67-5-85-21z"/><path d="m7161 12693c-46-51-65-93-43-93 5 0 23 20 42 45 18 25 35 43 37 42 2-2-6-30-17-62-21-62-25-95-11-95 11 0 79 192 74 208-9 24-32 11-82-45z"/><path d="m6973 12686c-34-25-64-50-68-56-16-25 5-18 59 21 32 23 59 39 61 37 3-2-4-28-15-56-22-59-27-126-8-120 6 2 17 29 23 59s19 71 28 93c35 80 10 87-80 22z"/><path d="m6350 12133c-46-17-73-66-50-89 15-15-1-26-90-63-85-36-105-51-71-51 13 0 61 18 108 40s92 40 99 40c26 0 25-21-3-43-86-66-105-112-59-142 30-20 118-31 141-18 14 8 5 12-42 22-33 6-68 18-79 26-18 13-16 16 39 67 57 54 73 92 43 104-11 4-4 16 26 45 34 32 39 41 28 54-12 15-60 19-90 8zm32-53c-36-34-52-38-52-14 0 22 29 43 60 43 25 0 25 0-8-29z"/><path d="m5834 12075c-18-14-17-14 13-9 55 10 133-26 133-62 0-21-62-85-140-145-76-58-91-82-66-108 13-12 36-16 99-16 123 0 145 18 30 25-50 3-95 9-100 14-4 4 12 24 37 45 141 114 179 166 156 212-24 49-121 75-162 44z"/><path d="m3685 12006c-57-25-110-107-136-212-23-91 28-137 105-96 21 12 42 20 44 17 3-3-9-64-27-135-26-109-29-134-19-153 12-21 12-21 16-2 19 109 81 336 109 398 34 78 34 78 17 123-11 29-27 50-45 60-33 17-27 16-64 0zm50-22c33-13 37-52 14-123-34-102-121-176-165-140-34 28 21 185 83 239 36 32 42 34 68 24z"/><path d="m4743 11913c-7-2-13-9-13-15s16-8 43-4c44 7 97-6 97-23 0-5-12-23-26-40-32-39-26-58 26-78 22-9 39-21 37-27-4-14-80-34-129-35-28-1-38-5-38-17 0-15 8-16 59-11 149 16 191 74 84 116-33 13-33 13-13 38 26 33 26 79 1 93-20 10-106 13-128 3z"/><path d="m5120 11893c-41-34-90-135-90-185 0-47 22-68 68-68 42 0 122 33 122 51 0 7-7 8-17 4-10-5-39-13-65-18-84-19-99 19-48 120 37 73 61 96 100 96s33 21-7 25c-21 2-40-5-63-25z"/><path d="m4312 11813c-6-2-10-9-6-14 6-10 224-11 299 0l50 7-70 7c-79 8-253 8-273 0z"/><path d="m5470 11735c0-14 5-25 10-25 6 0 10 11 10 25s-4 25-10 25c-5 0-10-11-10-25z"/><path d="m4300 11710c0-6 48-10 125-10s125 4 125 10-48 10-125 10-125-4-125-10z"/><path d="m5905 11672c-53-3-85-11-85-20 0-10 603-2 614 9 6 5-17 9-60 10-203 3-434 4-469 1z"/><path d="m3912 11570c-23-10-39-36-29-47 3-3 13 2 22 11 16 15 45 22 45 10 0-3-8-19-17-36-20-33-20-34 46-70 39-22 39-33-1-58-23-14-47-20-78-18-41 3-45 5-42 28 4 21 2 22-12 11-19-16-21-42-4-59 20-20 99-14 148 11 60 30 66 64 17 101-19 14-40 26-47 26-9 0-8 7 4 25 21 32 20 52-3 65-22 12-19 12-49 0z"/><path d="m6009 11499c-88-60-103-73-97-89 2-6 35 13 75 45 39 30 74 55 77 55 4 0 0-13-8-28-29-56-56-152-50-177 10-39 21-30 28 23 3 26 22 83 41 126 49 114 42 119-66 45z"/><path d="m6256 11497c-71-53-96-81-83-93 3-4 27 12 53 35 25 24 48 41 50 38 3-3-9-33-26-67-22-43-30-73-28-98 4-50 22-43 30 13 3 25 25 79 47 120 39 70 50 105 34 105-5 0-39-24-77-53z"/><path d="m5070 10910c-140-4-309-11-375-14s-318-8-560-11c-440-6-561-11-569-23-8-14 1068 3 1509 23 199 9 985 12 1215 5 377-13 639-35 706-60 26-10 26-10 19-88-4-42-8-84-10-92s-6-51-10-95-8-91-10-105-6-50-10-80c-3-30-13-102-21-160-21-151-22-160-29-215-3-27-9-63-12-78l-5-28-106 6c-59 3-577 7-1152 8-982 2-1203-3-1485-28-277-25-526-38-597-30l-63 7 1 66c1 37 7 175 14 308 17 319-2 668-33 616-4-5-2-91 4-191 11-193-1-557-26-778-2-23 0-45 6-48 5-4 87-6 182-6 158 2 247 7 737 43 160 12 1794 18 2325 9 121-2 225-3 231-2 6 0 9 11 7 24-2 12 5 92 17 177 51 378 85 705 79 750-6 41-64 52-484 85-124 10-1231 13-1495 5z"/><path d="m5129 10795c-28-15-72-74-88-118-6-16-11-52-11-82 0-44 5-58 28-83 46-50 119-55 142-12 25 46-31 100-102 100-33 0-38 3-38 23 1 33 33 98 65 130 34 33 81 37 90 7 8-25 25-26 25-2 0 45-60 65-111 37zm14-236c30-16 38-31 25-46-21-26-75-5-98 38-10 17-7 19 20 19 17 0 41-5 53-11z"/><path d="m3912 10586c-66-60-117-190-93-235 18-33 72-28 116 10 20 18 38 30 40 27 3-2-2-40-11-84-21-110-42-314-33-320 12-7 17 8 29 82 39 256 65 384 86 431 31 66 31 87 3 80-16-4-28 1-41 19-26 33-51 30-96-10zm91-30c15-45-8-101-60-153-35-33-52-43-72-41-23 3-26 7-24 40 4 73 86 192 127 186 11-2 24-15 29-32z"/><path d="m5651 10530c-59-58-106-157-117-249-4-34 20-87 44-100 49-26 159 1 218 54 44 40 42 40-39 1-74-36-151-41-174-11-34 46 12 198 81 271 40 41 76 57 76 34 0-17-27-65-44-79-18-15-21-31-6-31 16 0 60 54 69 85 20 74-42 89-108 25z"/><path d="m6185 10477c-55-22-75-37-75-59 0-19-4-20-60-16-44 3-60 1-60-8 0-16 60-28 104-21 19 3 38 1 43-4s32-18 59-29c40-15 45-20 29-25-100-32-147-77-126-121 30-66 196-74 315-15 36 18 66 36 66 42 0 13-6 12-48-10-40-20-135-41-186-41-47 0-106 19-113 36-9 24 26 51 97 76 41 15 65 29 65 38s-25 25-63 39l-63 25 62 22c34 12 69 29 77 38 38 38-50 61-123 33zm58-38c-23-11-57-22-75-26-30-6-32-5-19 10 16 20 63 35 106 35 29 0 29 0-12-19z"/><path d="m4938 10403c-10-2-18-9-18-14s62-9 143-9c78-1 195-3 260-6 130-7 166 9 45 20-100 8-409 15-430 9z"/><path d="m4380 10382c0-6 12-13 28-16 31-6 170-10 252-6 47 1 51 3 27 10-47 14-307 24-307 12z"/><path d="m4410 10280c0-16 68-23 153-17 134 11 118 27-26 27-74 0-127-4-127-10z"/><path d="m5079 10244c-18-20-53-47-77-61-23-14-39-29-36-34 3-6 21-1 41 11l36 21-7-23c-13-44-19-98-10-98 5 0 20 30 32 68 13 37 37 84 53 104s29 39 29 42c0 17-30 2-61-30z"/><path d="m5205 10210c-69-70-68-92 1-28 42 38 47 40 40 18-19-68-29-128-23-143 11-28 27-19 27 14 0 17 9 62 21 100 20 65 20 99 2 99-5 0-35-27-68-60z"/><path d="m4063 10163c-7-2-13-10-13-18 0-9 12-11 45-7 46 5 60-9 34-35-18-18-3-41 33-48 38-8 78-31 78-45 0-18-59-40-104-40-36 0-44 3-40 15 4 9 0 15-9 15-22 0-30-31-12-49 19-19 100-19 136-1 81 42 78 96-6 124-36 13-40 17-37 44 3 22-2 33-17 41-20 11-66 13-88 4z"/></g><g fill="#44b" transform="matrix(.054411653 0 0 -.054411653 975.90000653537 1339.45348191264)"><path d="m750 2973c-57-10-88-25-119-57-40-41-55-100-46-179 6-45 12-61 32-77 32-25 35-25 64-1 22 17 24 26 21 89-4 105 24 120 164 87 33-7 119-19 190-25 88-8 134-16 144-26 32-32 8-420-28-456-18-18-126-28-289-28-185 0-206-4-250-52-55-58-58-82-55-363 1-145 7-274 13-293 11-34 51-62 89-62 12 0 35 14 52 31l31 30-6 238c-3 130-3 249 0 264l5 27h112c234 1 363 26 423 82 58 54 98 260 91 463-4 122-7 138-34 191-40 81-79 100-217 108-174 10-361 14-387 9z"/><path d="m3660 2971c-42-9-83-34-103-65-39-59-50-127-54-343-5-206-5-212 18-252 28-50 78-86 143-102 48-12 257-8 370 7l49 7-7-104c-4-57-11-189-16-294-9-177-9-192 8-214 35-47 100-46 136 2 22 29 27 86 42 452 7 191 0 235-44 283-45 48-92 56-241 38-146-18-229-20-265-6l-26 10v162c0 156 8 230 27 249 5 5 99 6 210 2l201-6 5-50c3-39 11-56 31-74 34-29 48-29 80 0 24 20 26 30 28 113 4 147-23 169-218 179-242 11-340 13-374 6z"/><path d="m1565 2945c-14-13-25-32-25-42s-1-297-3-638c-2-677-3-662 55-694 33-19 73-7 101 31 18 24 20 51 29 300 5 150 10 278 12 283 2 6 37 8 97 3 52-3 135-7 186-7 154-2 161-10 143-176-21-189-27-310-18-343 12-45 45-72 86-72 71 0 102 46 102 151 0 33 7 118 16 187 24 190 9 280-58 349-50 52-112 67-263 65-71-1-164-6-205-11-41-4-78-7-81-5-4 2-10 108-13 236-9 286-17 352-47 384-31 33-82 32-114-1z"/><path d="m2542 2944c-55-38-64-109-53-419 6-186 9-215 28-250 50-95 116-125 302-135 75-4 171-5 215-1l78 7-4-178c-2-97-7-181-11-184-4-4-42 1-85 11-104 26-285 27-363 3-106-33-149-107-99-170 26-34 68-41 132-21 74 23 202 20 308-7 182-47 274 5 301 168 12 77 27 831 19 994-7 152-20 181-86 186-88 7-103-51-104-401v-219l-201 4c-197 3-201 3-220 27-18 21-19 42-19 283v260l-29 29c-33 33-74 38-109 13z"/><path d="m2374 1391c-55-34-79-78-79-147 0-51 4-66 27-96 35-45 102-73 153-64 78 15 146 111 131 188-20 108-145 172-232 119z"/><path d="m1853 999c-39-11-66-56-61-101 6-59 69-64 76-6 4 30 34 38 145 38h67v-110c0-135-1-136-132-126-85 6-89 6-113-18-24-25-25-28-25-179 0-162 4-177 47-177 35 0 43 29 43 159v121h73c85 0 141 14 168 41 17 17 19 34 19 169 0 147-1 152-25 175-23 24-30 25-137 24-62 0-128-5-145-10z"/><path d="m2985 1000c-91-16-93-18-104-58-15-51-14-537 0-564 19-36 69-48 204-48 121 0 127 1 151 25l24 24-2 292-3 292-26 19c-31 23-161 33-244 18zm169-86c14-5 16-37 16-250v-245l-102 3-103 3v240 240l40 6c57 9 131 10 149 3z"/><path d="m2351 971c-24-24-29-73-37-372-6-232-6-237 15-258 23-23 29-25 51-11 12 7 16 40 20 150l5 141 35-23c19-13 59-55 88-93 30-39 78-96 108-128 47-51 56-57 74-47 29 16 25 42-15 92-19 24-62 78-95 121-61 77-61 77-33 77 15 0 46 9 69 19 56 26 67 57 62 179-6 156-27 172-220 172-93 0-111-3-127-19zm257-74c16-13 17-168 0-185-7-7-41-12-84-12-40 0-84-4-98-10l-26-10v120 119l98-6c53-3 103-10 110-16z"/></g></svg>