<svg height="1621.21128pt" preserveAspectRatio="xMidYMid meet" viewBox="0 0 1827.139114 1621.21128" width="1827.139114pt" xmlns="http://www.w3.org/2000/svg"><g transform="matrix(.1 0 0 -.1 -16.4211 3491.864507)"><path d="m1568 34900c-14-11-41-49-59-84l-34-65-114-3c-77-2-116-7-118-15-7-20 36-35 119-40 63-5 78-9 74-20-4-8-6-17-6-19s-31-4-68-4c-62 0-92-10-92-31 0-10 59-29 91-29 34 0 34 0 14-47-20-46-19-79 1-87 19-7 54 19 54 40 0 7 8 29 17 49 17 35 17 35 85 35 37 0 68-1 68-3s-16-40-35-84c-36-83-44-128-23-121 10 4 119 172 130 200 2 5 39 10 83 14 44 3 90 7 103 10 41 8 12 24-46 25-31 1-67 4-80 8l-23 6 23 35c23 34 25 35 116 44 51 5 92 12 92 16s-36 11-80 14l-79 7 21 45c16 33 19 47 11 55-18 18-39 4-79-51l-36-50h-69c-38 0-69 3-69 7s14 35 32 68c42 82 31 118-24 75zm87-230c-15-29-18-30-85-30-72 0-79 4-57 32 12 17 42 24 115 27l43 1z"/><path d="m2435 34846c-22-9-48-25-57-37-26-31-23-98 5-140 32-48 62-61 129-55 38 3 63 0 75-9 17-13 17-16 3-42-9-15-37-43-64-60-62-42-120-45-164-8-52 44-91 23-56-30 38-59 118-71 200-30 89 45 144 106 144 160 0 57-31 75-129 75-61 0-72 3-85 22-24 33-20 75 7 90 15 8 85 13 222 15 213 3 249 7 242 26-5 16-75 24-272 31-129 5-168 4-200-8z"/><path d="m2063 34748c-79-51-143-99-143-106 0-37 82-12 171 54 56 41 71 39 40-5s-89-171-96-212c-5-26-2-40 9-52 27-26 43-10 66 64 21 70 38 105 112 231 45 76 47 112 8 116-17 1-69-27-167-90z"/><path d="m3054 34822c-50-21-75-39-97-72-19-27-23-75-7-85 6-4-9-25-36-48-97-85-90-156 20-202 57-24 182-22 239 3 73 32 86 79 38 135-17 18-51 44-77 57-40 21-44 26-29 35 59 34 139 92 143 103 7 24-44 10-211-57-23-9-29-8-33 4-13 33 56 78 121 79 31 1 41 5 43 20 5 23-23 46-52 45-12 0-39-8-62-17zm24-251c107-55 123-90 49-107-90-20-207 6-207 45 0 18 73 91 92 91 5 0 34-13 66-29z"/><path d="m3509 34805c-107-39-159-80-159-124 0-30 38-71 66-71 19 0 18-5-12-66-33-67-27-111 17-148 23-20 42-26 76-26 101 0 243 56 265 105 14 31-4 78-41 101-14 10-56 27-93 39l-67 21 40 37c39 37 48 60 29 72-5 3-10 16-10 29 0 46-41 57-111 31zm64-52c2-5-20-29-47-55-51-46-51-46-85-32-42 17-33 32 42 68 53 26 83 32 90 19zm22-187c73-19 117-44 113-64-9-47-205-94-241-57-21 20-16 43 19 98 27 41 36 43 109 23z"/><path d="m170 34255c-10-12-8-16 13-24 30-12 264-37 522-56 169-13 922-12 1275 2 567 22 1584 22 1881 0 130-9 274-17 319-17 78 0 83-1 112-30 29-30 30-33 24-98-14-157-18-312-9-312 17 0 66 284 61 351-7 98-63 139-193 139-33 0-127 7-210 15-215 22-475 30-915 30-356 0-998-12-1115-21-27-2-252-6-500-9-458-5-749 3-1020 30-189 19-229 19-245 0z"/><path d="m7340 34120c-182-17-349-64-495-137-129-65-198-117-480-364-137-120-172-158-225-249-23-40-69-113-101-164-75-114-119-249-155-466-14-85-32-182-40-215-45-196 39-586 187-863 27-52 60-108 72-125 163-231 421-490 632-632 111-75 280-161 410-208 319-115 814-140 1150-57 269 66 496 196 751 429 161 147 346 352 447 499 44 62 97 140 114 167 45 70 117 237 140 321 24 90 26 116 27 294 0 168-3 208-22 290-44 187-76 272-199 515-272 540-602 769-1298 899-299 56-714 86-915 66zm390-80c173-13 280-26 460-56 695-119 1019-336 1289-866 127-248 191-428 209-586 8-65 7-72-7-65-9 4-430 10-937 13-742 4-924 8-937 18-21 18-77 11-91-10-25-40 49-102 93-79 15 8 276 11 916 11 808 0 899-2 937-17l41-16-6-104c-9-135-30-235-72-335-86-204-280-472-513-708-182-183-249-241-391-334-243-161-480-231-808-241-606-17-1028 146-1456 564-280 273-435 528-518 850-35 137-57 322-41 355 19 37 31 87 67 271 51 257 83 354 153 461 32 49 75 121 97 159 59 108 115 164 410 412 146 122 203 159 320 206 233 93 459 121 785 97z"/><path d="m8806 32979c-43-10-91-41-122-77l-21-25-12 46c-16 55-37 67-53 31-9-20-7-49 11-147 27-139 34-157 62-157 25 0 39 36 39 103 0 32 7 66 19 87 33 62 140 100 191 68 23-15 44 0 34 25-15 39-85 61-148 46z"/><path d="m7665 31913c-163-15-285-87-285-169 0-24 5-34 15-34 8 0 15 8 15 18 0 78 255 150 395 111 52-15 111-74 120-122 21-111-38-199-160-236-152-47-362-10-395 70-12 28-5 95 11 105 17 10 9 34-10 34-41 0-81-87-67-145 34-137 329-198 526-109 109 50 163 127 163 235 0 86-37 159-102 200-50 32-143 49-226 42z"/><path d="m8445 31816c-20-16-20-16 2-35 23-19 22-19-127-23-154-3-195-14-150-38 31-17 426-10 458 8 12 7 27 10 33 6 15-9-18-42-65-66-33-17-37-22-24-34 20-20 68-8 112 28 42 34 49 83 17 112-45 41-221 70-256 42z"/><path d="m7600 31651c-5-11-10-29-10-40 0-20 34-51 57-51 19 0 43 30 43 54 0 48-69 76-90 37z"/><path d="m8310 31648c-25-13-54-37-65-54-25-37-80-291-71-327 9-37 55-51 160-49 181 3 276 38 276 103 0 36-51 80-129 110-34 13-60 28-58 32 1 5 29 23 62 40 68 37 91 70 75 112-22 57-165 75-250 33zm163-39c21-6 37-15 35-22s-37-29-77-50c-80-43-104-76-76-107 9-10 54-32 100-49 123-47 132-66 40-92-41-12-259-18-269-9-3 3 5 35 18 70 20 56 31 100 52 207 5 24 31 42 79 54 44 10 56 10 98-2z"/><path d="m737 33883c-8-14-17-67-32-207-14-124-15-141-1-154 22-23 40-3 88 94 40 84 94 149 136 165 54 21 122 4 140-35 10-20 11-19 11 7 2 60-45 97-121 97-52 0-100-26-151-83l-37-42 6 57c8 66 0 108-21 108-7 0-16-3-18-7z"/><path d="m1940 33778c-142-110-158-126-141-137s51 0 94 31c20 14 28 17 24 7-65-151-70-184-28-184 20 0 26 8 37 45 13 42 61 143 115 237 22 38 23 44 8 58-14 14-24 9-109-57z"/><path d="m2265 33827c-68-27-93-49-143-125-41-62-52-88-52-119 0-113 192-142 322-47 59 42 88 96 88 163 0 42-5 56-31 85-45 51-118 68-184 43zm140-67c51-48 29-137-46-187-78-52-239-42-239 15 0 9 13 44 29 78 22 47 38 66 72 86 24 14 53 28 64 31 37 10 97-1 120-23z"/><path d="m2744 33818c-61-46-112-117-137-192-25-74-22-110 12-148 28-31 33-33 98-33 46 0 83 6 111 19 35 16 47 17 68 8 53-25 117-5 194 60 31 25 34 26 56 11 24-15 64-14 122 3 17 5 22 2 22-13 0-29 29-64 66-79 50-21 126-2 173 43 24 23 29 33 16 28-77-28-153-25-181 6-16 18-16 29 2 117 5 28 4 32-14 32-12 0-32-15-48-36-44-57-117-84-131-48-3 9 1 31 10 50 18 36 14 59-9 68-21 8-51-27-64-73-12-45-53-84-118-113-28-13-47-16-58-10s-13 11-5 16c17 11 13 63-5 70-25 9-54-12-61-45-8-39-51-62-124-63-69-1-89 13-89 64 0 48 49 146 96 190 34 33 36 33 29 10-11-39-11-44 5-47 19-4 50 46 50 79 0 50-38 61-86 26z"/><path d="m4387 33698c-20-84-25-233-38-1153-11-729-6-2306 8-2505 2-36 5-478 6-982 2-842 3-918 18-918 23 0 28 24 40 195 13 174 5 1319-12 1920-11 372-14 2239-5 3058 4 363 0 457-17 385z"/><path d="m1188 33674c-17-16-6-36 27-50 57-23 343-14 352 12 2 7-43 15-129 23-73 6-158 14-188 17s-58 2-62-2z"/><path d="m1280 33553c-22-11-36-27-38-42-3-21-1-23 20-17 23 7 261 46 282 46 6 0 2 6-9 12s-65 13-120 15c-82 4-106 1-135-14z"/><path d="m15382 33171c-10-29-10-29-120-32-73-3-115-9-126-18-36-30-18-36 104-32l120 3-14-39c-19-55-73-159-112-219-39-58-43-84-15-84 37 0 119 130 167 264l26 74 188 3c123 3 193 8 200 15 23 23-15 29-197 32l-183 4v29c0 38-25 38-38 0z"/><path d="m15982 33087c-6-6-18-40-26-75-9-35-26-80-37-102-27-51-22-84 11-88 22-3 29 5 53 57 18 39 42 71 69 92 53 43 131 70 169 59 30-9 54 7 41 26-31 47-141 43-214-8-35-24-38-23-38 11s-13 47-28 28z"/><path d="m15517 33038c-19-19-117-260-117-288 0-4 7-10 15-14 21-8 46 35 94 159 46 121 54 152 41 160-5 3-20-4-33-17z"/><path d="m3061 32784c-6-15-21-113-32-218-19-179-19-191-3-203 21-15 52-1 62 28 7 18 11 16 40-19 58-73 160-102 223-65 49 29 45 43-14 43-69 0-132 32-174 88-18 24-33 49-33 56 0 22 75 137 119 182 23 24 55 47 69 50 53 12 62 16 62 28 0 23-24 36-65 36-61 0-125-49-189-145l-27-40 3 100c3 84 1 100-13 103-9 1-20-8-28-24z"/><path d="m1965 32746c-74-33-104-112-66-173 23-36 68-53 143-53 26 0 50-4 53-10 21-34-91-111-172-118-53-4-54-4-66 27-17 45-47 42-47-4 0-35 27-74 53-76 6 0 19-2 28-4 26-5 129 34 175 66 56 38 84 75 84 110 0 41-38 62-124 68l-71 6-3 37c-5 57 19 68 152 68 113 0 274 16 296 30 7 4 10 15 7 24-6 14-32 16-209 16-147-1-211-4-233-14z"/><path d="m789 32617c-91-55-148-185-119-271 31-94 122-85 223 23 26 27 47 47 47 44s-22-74-50-157c-54-165-90-291-115-405-15-66-16-75-2-88 23-23 45-9 52 34 15 94 62 265 131 473 41 123 74 235 74 247 0 13-8 27-17 30-9 4-35 26-58 50-37 38-47 43-86 43-28 0-57-8-80-23zm106-33c21-9 45-56 45-91-1-50-122-163-176-163-52 0-60 77-16 161 39 75 97 112 147 93z"/><path d="m3553 32545c-83-90-143-187-143-232 0-43 15-50 36-16 85 142 185 269 171 218-23-84-39-184-34-223 6-53 36-85 76-80 33 4 38 31 12 57s-26 44-1 168c23 113 25 154 8 171-27 27-56 12-125-63z"/><path d="m17785 32590c-49-4-155-8-235-9-80 0-219-5-310-11-411-25-662-31-1500-35-492-3-953-9-1025-15-71-5-395-12-720-15-324-4-606-11-626-16-42-10-58-37-35-55 9-6 16-18 16-26 0-41 63-66 200-80 86-8 929-27 1350-31 116-1 511 17 720 33 131 10 559 27 960 38 210 5 302 6 1125 4 339-1 563 3 602 9 65 11 106 39 101 67-2 9 5 25 15 35 22 22 15 51-19 87-24 25-24 25-277 26-138 1-292-2-342-6zm584-84c20-23 1-44-52-58-41-10-171-13-587-12-294 1-623 3-730 5-107 1-319-2-470-9-151-6-418-16-592-21s-321-12-326-15c-14-9-561-30-722-28-80 1-397 3-705 6-308 2-601 8-652 14-93 11-142 27-127 42 5 4 293 11 639 14 347 4 648 9 670 12s353 7 735 9c1030 7 1381 13 1620 25 316 17 646 26 986 28 245 2 304-1 313-12z"/><path d="m1417 32560c-110-7-134-16-124-44 5-12 21-16 62-16 84 0 285 43 285 60 0 11-57 11-223 0z"/><path d="m2606 32529c-19-22-26-42-26-73 0-50-21-74-90-105-79-36-101-28-104 42-3 67-56 28-56-41 0-94 110-105 235-23 40 27 40 27 75 9 44-23 82-16 132 23l37 29 29-30c39-39 75-47 118-27 40 20 46 42 9 33-55-14-115 51-101 108 6 26-15 52-37 43-7-3-19-23-25-46-21-68-109-116-141-77-9 11-9 16 0 21 12 8 48 83 49 102 0 19-30 43-55 43-14 0-34-13-49-31z"/><path d="m11747 32554c-29-29 25-67 140-98 48-14 86-25 83-26-3 0-70-3-150-6s-285-11-457-19-445-15-608-15c-233 0-296-3-293-12 3-7 22-20 44-28 49-18 622-19 909-2 105 6 291 14 415 17l225 5-95-31c-52-16-105-34-117-39-26-11-31-45-8-53 13-6 209 46 280 73 38 15 75 49 75 70 0 43-59 69-305 135-55 15-107 29-115 32-9 2-19 1-23-3zm250-130c-3-3-12-4-19-1-8 3-5 6 6 6 11 1 17-2 13-5zm112-30c7-6-2-12-31-19-24-6-26-4-21 14 4 17 10 20 27 15 11-4 23-8 25-10z"/><path d="m1330 32445c-6-8-9-19-6-24 10-16 104-22 206-14 75 6 95 11 98 24 4 23-26 29-164 29-94 0-124-3-134-15z"/><path d="m3404 31766c-55-26-145-109-170-159-16-30-31-98-41-188-4-42-2-48 27-72 58-49 136-26 242 72 58 53 58 53 52 22-20-96 103-74 222 41l41 39 17-27c16-24 23-26 63-21 38 4 43 2 38-12-22-55-33-107-25-115 12-12 4-24 83 120 70 126 81 164 49 164-22 0-43-22-65-66-16-31-67-61-85-50-6 4-4 25 6 56 15 47 15 51-2 68-17 16-19 16-39-13-46-62-118-131-169-162-70-42-90-45-98-13-4 14-12 24-18 23-17-4-15 2 11 45 90 143 68 272-46 272-23 0-65-11-93-24zm134-48c19-19 14-79-12-135-60-128-223-242-274-191-15 15-16 58-2 58 6 0 10 10 10 23s6 29 12 35c10 10 10 15-1 21-29 18 90 155 162 186 40 18 89 19 105 3z"/><path d="m940 31560c-96-18-131-80-235-425-43-140-88-240-116-255-16-9-21-7-31 15-14 31-26 32-34 1-13-54 44-93 95-65 49 28 104 148 166 366 5 20 11 21 55 16 62-7 170 13 238 44 104 49 139 147 80 225-45 59-139 93-218 78zm149-89c44-32 55-63 36-107-21-51-103-87-210-91-44-2-86 0-93 5-19 13 34 145 75 190 32 33 34 34 96 30 45-3 72-10 96-27z"/><path d="m2187 31486c-52-19-112-60-134-92-10-14-27-36-38-48-32-33-45-72-45-131 0-46 5-60 29-87 25-28 35-32 79-32 58 0 157 45 209 94 83 78 127 182 102 241-25 63-113 86-202 55zm141-58c22-22 14-82-17-125-79-109-239-183-271-124-15 29-12 61 5 61 11 0 15 11 15 40 0 50 40 98 112 134 56 28 135 35 156 14z"/><path d="m2813 31445c-84-70-123-114-123-137 0-40 29-27 95 41 38 39 70 69 72 67 3-2-13-46-35-97-22-52-43-104-47-117-6-22 11-92 23-92 8 0 23 34 93 208 56 138 60 175 17 180-20 2-43-11-95-53z"/><path d="m1527 31416c-21-21-21-30-2-46 12-10 53-11 173-7 171 7 215 13 209 31-4 14-64 22-232 31-116 7-133 6-148-9z"/><path d="m3885 31313c-60-3-363-29-562-49-72-8-99-27-68-50 22-16 94-18 220-4 50 5 115 12 145 15 172 17 488 58 508 66 13 5 20 14 17 19-6 9-95 10-260 3z"/><path d="m1552 31260c-42-10-54-21-42-40 16-26 151-16 256 19l89 29h-135c-74 0-150-4-168-8z"/><path d="m2468 31133c-13-28-98-174-132-225-31-47 2-33 55 22 65 67 119 149 126 193 5 33 3 37-16 37-14 0-26-10-33-27z"/><path d="m3762 31089c-60-109-173-240-235-274-47-25-67-15-67 32 0 72-11 113-30 113-24 0-30-20-30-90 0-105 34-148 101-130 38 11 126 82 175 141 29 36 29 36 55 16 33-24 52-18 121 33 28 22 53 38 55 36s-1-35-7-74-10-84-8-99c3-24 10-16 45 60 63 133 87 210 74 236-19 34-46 25-95-33-45-52-122-114-131-104-3 2 7 34 22 70 14 37 23 74 20 82-11 27-46 19-65-15z"/><path d="m998 31040c-36-30-128-158-128-178 0-6-8-15-17-21-10-5-19-20-20-33 0-13-12-52-26-88-65-169-37-247 88-244 84 2 120 50 38 50-27 0-59 6-72 13-21 12-23 18-18 66 3 29 18 83 34 120 25 60 34 72 78 98 64 37 101 71 136 126 34 53 38 96 10 111-33 17-65 11-103-20zm53-57c-13-25-81-89-81-77 0 14 69 94 81 94 6 0 6-6 0-17z"/><path d="m9068 30314c-91-16-200-55-243-89-18-13-38-38-45-55-35-84 80-173 241-187l66-6 12-65c17-94 62-172 99-172 16 0 13 18-12 87-9 24-19 66-22 95l-6 53 101 17c162 28 251 87 251 167 0 20-7 47-16 59-56 80-255 125-426 96zm67-61c-14-36-45-167-45-191s-1-25-57-19c-81 8-127 24-163 53-35 30-38 54-9 80 20 18 21 18 35-1 8-10 14-22 14-27 0-4 4-8 9-8s11 18 15 39c5 35 11 41 48 55 46 17 112 33 142 35 13 1 16-3 11-16zm242-18c28-13 59-35 68-49 16-24 16-28 1-51-22-34-81-62-166-80-109-23-120-21-120 18 0 36 13 90 37 155l16 44 56-7c31-3 79-17 108-30z"/><path d="m11880 30289c-65-26-95-91-66-147 21-40 56-68 190-151 115-72 176-127 176-160 0-22-36-56-75-71-87-34-225-31-251 4-30 42-69-5-40-49 19-28 64-40 156-40 145 0 270 70 270 150 0 74-42 117-218 225-107 65-162 111-162 136s39 54 72 54c17 0 51-10 76-21 33-16 46-19 55-10 17 17-2 42-53 69-47 23-89 27-130 11z"/><path d="m10764 30246c-33-15-69-64-85-118-5-18-16-100-24-183-12-129-12-152 0-164 26-26 41 4 54 106 7 54 12 118 12 143 1 141 78 215 153 145 42-39 33-81-30-141-39-36-44-75-14-101 10-9 61-34 112-55 111-46 138-59 138-69 0-23-148-57-272-61-66-3-78-6-78-20 0-30 37-41 114-33 147 14 254 48 281 88 31 48-2 79-140 137-55 22-104 45-109 51-6 5 1 21 21 41 42 45 53 70 53 117s-36 96-87 117c-40 17-59 17-99 0z"/><path d="m15305 30243c-37-8-75-25-75-34 0-5 30-9 68-9 37 0 73-4 81-9 25-16 2-62-65-125-46-45-64-69-64-88 0-38 43-52 130-44 81 7 120 20 120 40s-22 26-91 26h-60l35 43c20 24 42 60 51 79 33 81-33 143-130 121z"/><path d="m8361 30226c-6-7-18-38-27-67-9-30-22-61-29-69-15-17-50-138-60-210-4-25-14-56-22-68-8-13-12-27-8-30 15-15 150-3 308 28 176 34 217 52 217 94 0 27-22 48-116 109-67 44-174 141-174 158 0 14-52 69-65 69-7 0-18-6-24-14zm228-271c52-33 70-50 60-55-20-11-328-64-335-58-5 5 30 141 62 240l15 47 62-63c34-35 95-85 136-111z"/><path d="m5339 30161c-118-124-146-446-95-1060 51-605 22-859-136-1174-27-55-48-106-46-115s23-23 48-32c78-27 126-123 158-313 24-146 23-791-2-1154-22-318-19-495 8-536 20-29 64-57 91-57 25 0 17 19-22 56l-36 34 7 228c4 125 9 259 12 297 35 514 22 1039-32 1249-31 122-98 229-154 248-7 2 3 31 28 78 102 198 158 438 161 703 1 80-8 260-21 412-30 359-32 788-5 915 21 96 62 187 93 207 30 19 54-3 61-55 9-64 33-56 33 11 0 43-5 58-23 75-38 36-83 29-128-17z"/><path d="m11380 30111c-14-28-70-273-70-310 0-26 4-31 25-31s27 7 41 58c9 31 22 79 30 106s14 65 14 84c0 34 0 34 103-63 56-54 103-101 105-106 4-9-45-25-153-47-69-15-80-20-83-40-2-14 3-25 14-29 21-8 207 33 249 54 37 19 45 30 45 65 0 21-17 41-78 95-42 37-99 94-126 126-38 44-55 57-77 57-18 0-32-7-39-19z"/><path d="m13592 30098c-68-33-130-120-173-247-27-77-25-119 5-131 13-5 27-19 31-30 11-33 64-50 158-50 178 0 270 63 207 142-10 14-52 42-92 63-72 38-72 38-48 54 14 8 42 32 63 52 37 37 48 79 31 124-18 45-111 57-182 23zm116-47c29-18 8-55-53-96-46-32-61-48-63-69-4-33 9-44 113-96 40-20 70-41 70-50 0-23-70-41-163-42-77-1-85 1-110 25l-26 26 32 14c35 15 33 27-6 27-15 0-22 5-19 13 2 6 15 45 28 85s36 89 53 108c43 52 109 78 144 55z"/><path d="m15035 30106c-57-18-82-33-130-77l-43-40-10 31c-20 57-45 31-57-60-4-30-23-102-42-159-34-98-35-105-18-117 20-15 55-2 55 19 0 7 23 58 50 115 63 132 130 203 215 227 32 10 68 14 83 10 50-12 66-10 70 7 5 24-54 58-98 57-19 0-53-6-75-13z"/><path d="m14419 30056c-2-2-84-7-182-10-245-9-334-29-325-74 4-19 18-19 97-3 29 6 73 11 97 11 44 0 44 0 44-39 0-110-43-223-91-240-24-8-30-16-27-33 2-18 10-24 36-26 26-3 39 3 61 27 39 41 71 138 78 233 7 92-22 82 272 97 187 9 238 18 218 38-16 15-263 32-278 19z"/><path d="m6225 30007c-91-36-145-88-145-141 0-17 5-37 12-44 17-17 7-23-79-43-95-23-166-24-197-4-21 14-24 14-36 0-10-12-10-21-2-40 25-54 146-54 309 0l73 25 55-25c30-13 55-28 55-34 0-14-50-50-164-116-158-92-206-155-155-201 45-40 266-23 404 32 70 28 97 50 49 40-73-15-352-35-379-28l-29 8 54 41c30 22 92 62 138 89 101 59 142 97 142 133s-8 45-59 74c-43 25-43 25-20 37 34 18 90 68 117 104 45 61 18 107-64 105-27 0-62-6-79-12zm71-86c-21-21-60-51-86-65-49-27-49-27-60-5-10 17-8 25 10 44 31 33 98 64 140 65h34z"/><path d="m14382 29948c-10-18-32-67-47-108s-41-95-57-119c-48-72-25-104 36-51 26 24 45 57 76 136 46 120 54 166 29 172-10 2-24-10-37-30z"/><path d="m3539 29926c-4-3-237-9-889-21-151-3-369-8-485-10-115-3-554-8-975-11-421-4-773-11-782-16-23-11-23-34-2-42 40-15 1957-2 2669 19 99 3 342 9 540 15s405 12 460 15c55 2 126 5 158 5 49 0 57 3 57 19 0 13-10 20-31 25-33 6-713 9-720 2z"/><path d="m9747 29696c-7-16 7-31 43-44 43-16 370-20 370-4 0 14-138 41-260 52-147 13-147 13-153-4z"/><path d="m7485 29660c-55-5-144-11-198-15-55-3-105-9-113-12-23-9-16-32 12-39 53-14 237 5 347 35 161 43 156 46-48 31z"/><path d="m6641 29616c-13-15-5-46 12-46 10 0 77 21 86 27 2 1-2 9-9 18-16 19-74 20-89 1z"/><path d="m8455 29594c-115-6-211-12-212-13-2 0-3-9-3-20 0-29 41-32 294-24 290 10 615 10 729 0 72-6 87-5 87 7 0 18-70 41-164 56-84 13-442 10-731-6z"/><path d="m12620 29603c-51-5-70-17-70-44 0-33 34-41 128-30 48 6 115 11 150 11 54 0 62 3 62 18 0 11-12 25-27 32-29 14-165 21-243 13z"/><path d="m13803 29570c-205-4-285-8-294-17-7-7-9-16-5-20 13-13 256-20 711-19 498 0 801 14 858 39 20 10 37 20 37 22 0 6-889 2-1307-5z"/><path d="m7580 29553c-63-5-257-33-275-39-8-4-15-15-15-25 0-15 7-19 35-19 35 0 324 56 333 64 7 8-9 26-21 24-7-1-32-3-57-5z"/><path d="m9784 29535c-11-29 7-35 107-35 98 0 245 23 264 41 5 5-64 9-178 9-155 0-189-3-193-15z"/><path d="m12515 29500c-4-7 1-21 12-32 53-52 234-49 355 7 33 15 33 15-27 10s-259 8-307 20c-16 4-29 2-33-5z"/><path d="m10652 29493c-41-8-22-37 28-45 25-3 356-7 736-7 731-1 725-2 708 43-6 15-70 16-728 15-396-1-731-4-744-6z"/><path d="m6653 29475c-13-9-28-40-38-80-15-54-16-72-6-105 13-44 52-80 87-80 56 0 122 46 145 101 16 41 4 48-29 16-40-39-97-60-123-46-19 10-21 17-15 67 3 32 8 73 12 93 7 43-4 54-33 34z"/><path d="m2960 29456c-76-17-115-40-130-76-16-40-5-75 32-103 35-26 47-15 25 22-9 16-17 36-17 45 0 21 40 46 92 58 60 13 238 12 297-2 45-11 91-40 91-59 0-27-91-78-235-132-225-83-297-165-235-266 34-56 141-122 176-109 13 5 2 21-50 76-42 45-66 79-66 93 0 45 59 84 245 163 110 46 154 73 188 114 54 64 21 132-80 165-71 23-252 29-333 11z"/><path d="m9037 29393c-8-16-22-53-32-83-23-72-28-77-79-84-54-8-81-27-73-50 6-14 15-16 58-10 49 7 52 6 44-12-4-10-10-51-12-91-5-70-5-73 25-102 35-36 60-38 119-12 65 30 135 141 88 141-8 0-19-9-25-20-16-29-81-70-112-70-22 0-28 5-29 23-2 38 1 70 12 119 12 52 8 49 123 75 22 5 41 14 44 22 3 10-11 12-67 9-39-1-71-1-71 1 0 3 10 35 22 72 11 36 18 74 15 83-10 25-35 19-50-11z"/><path d="m14678 29380c-14-11-41-43-59-72-41-65-39-64-104-72-67-8-85-14-85-32 0-20 47-36 82-29l28 7-21-49c-42-98-19-153 65-153 69 1 155 52 187 112 10 19 0 24-17 9-12-12-140-51-165-51-11 0-19 7-19 16 0 19 40 114 49 115 3 0 53 6 111 12 82 9 105 15 105 27s-19 16-83 21c-45 4-85 8-87 11-2 2 14 31 35 63 22 33 40 66 40 73 0 18-34 14-62-8z"/><path d="m8469 29323c-7-21-18-47-25-58-20-31-84-195-84-216 0-23 15-32 39-24 20 6 68 104 97 195 9 30 19 57 20 59 2 2 27-18 56-45s77-67 106-88c38-28 50-41 40-46-14-8-177-32-215-32-30 0-41-24-20-45 13-14 27-13 136 5 185 30 207 57 113 137-26 22-83 75-128 118-93 89-116 96-135 40z"/><path d="m11827 29303c-14-27-30-65-36-85-11-32-18-38-49-44-72-11-103-25-100-42 2-13 16-18 56-20 51-3 52-4 46-30-4-15-11-37-15-50-5-13-9-41-9-62 0-64 46-92 105-65 39 19 105 88 105 110s-24 18-46-6c-10-12-36-30-57-40-34-18-38-18-44-3-3 9 3 46 13 83l19 66 81 16c44 8 88 18 98 22 37 14 2 27-74 27h-79l25 72c13 40 22 78 20 85-11 27-36 11-59-34z"/><path d="m11256 29305c-16-17-17-20-40-115-30-126-34-153-29-166 7-19 32-18 40 1 5 14 7 14 22 1s28-12 125 10c123 28 162 45 171 74 9 28-9 55-63 91-26 18-72 52-103 76-58 45-96 54-123 28zm122-100c39-29 80-58 89-64 10-5 15-12 12-16-6-6-232-65-236-61-3 3 36 176 42 186 10 16 17 13 93-45z"/><path d="m14058 29300c-26-16-168-246-168-273 0-14 6-27 13-29 6-3 73-5 147-6 163-1 220 11 234 50 11 30 4 41-107 183-63 79-86 94-119 75zm115-187c38-41 38-42 15-47-44-9-208-16-208-8 0 4 23 43 51 87l51 80 27-35c14-19 43-54 64-77z"/><path d="m1420 29224c-116-22-166-62-180-145-5-30-21-94-35-144-50-166-51-189-12-183 18 2 28 24 59 123 21 66 44 149 51 185 12 61 16 66 53 85 28 14 60 19 116 20 42 0 80-3 84-8 12-12-20-39-93-77-37-19-71-43-77-53-20-32 13-68 119-129 107-61 164-113 146-131-25-25-240-30-266-6-28 27-74-6-56-40 15-28 70-41 171-41 149 1 212 27 218 93 4 48-44 101-146 161-128 75-124 68-59 105 52 30 107 82 107 101 0 23-25 59-49 70-29 13-113 21-151 14z"/><path d="m2103 29003c-36-5-56-24-47-46 11-30 106-33 334-11 96 9 123 15 113 25-14 14-332 40-400 32z"/><path d="m3044 28619c-3-6 1-18 9-27 13-12 19-13 31-3 8 7 12 19 9 27-6 17-39 19-49 3z"/><path d="m13952 28349c-77-13-148-47-183-86-26-30-30-41-28-86 2-41-5-71-35-141-40-96-51-161-26-161 8 0 25 26 41 63 23 57 27 61 40 46 30-37 110-64 189-64 86 0 120 7 120 24 0 8-34 17-89 25-94 13-176 46-176 70 0 9 29 25 75 41 100 35 134 54 186 102 117 108 56 197-114 167zm104-64c9-21-20-61-65-91-41-27-179-79-188-70-3 2 0 20 5 38 6 18 13 46 16 61 7 32 49 54 126 67 73 12 100 11 106-5z"/><path d="m6550 28241c-109-34-230-134-249-207-13-48-29-54-142-54-54 0-69-3-69-15 0-37 111-58 189-35 30 8 43 6 90-17l54-27-39-31c-125-98-193-183-194-242-1-88 88-121 246-92 71 13 187 66 181 82-3 7-8 11-13 10-80-14-236-33-273-33-53 0-77 17-66 49 13 41 65 100 139 155 42 31 81 66 87 77 19 36 3 65-47 89-53 24-57 18 51 83 33 20 84 58 113 86 59 57 67 89 27 115-26 17-46 19-85 7zm24-73c-11-27-189-146-201-135-10 11 82 94 134 121 54 28 75 32 67 14z"/><path d="m8997 28190c-123-19-196-74-223-167-9-30-14-68-12-85 4-21-8-56-39-119-46-95-52-126-28-136 24-8 50 22 86 97l32 68 71-58c103-83 148-104 226-105 39 0 77 6 94 15 53 27 42 37-47 42-90 5-145 25-206 78l-35 29 40 16c187 75 300 192 262 271-7 16-24 34-38 41-36 17-117 23-183 13zm147-66c45-17-7-89-109-153-43-27-158-71-186-71-5 0 3 26 17 58 15 31 32 77 38 102 11 40 17 46 52 57 42 12 162 17 188 7z"/><path d="m8071 28159c-70-9-87-19-77-44 5-14 19-16 81-13 41 2 75 2 75 1 0-2-12-37-26-80-21-63-25-91-22-156 3-89 8-83-104-131-49-21-58-29-58-51 0-43 35-49 190-31 146 16 215 35 215 57 0 16-46 18-205 6l-105-8 35 22c65 39 90 70 90 108 0 62 28 170 57 224 30 56 19 50 158 72l50 8-40 8c-62 13-243 17-314 8z"/><path d="m2290 28064c-372-12-431-14-955-39-165-8-408-15-540-16-132 0-262-4-289-7-53-8-71-26-35-37 44-14 627-8 974 10 882 47 1754 55 2337 22 219-12 358-11 358 2 0 9-282 36-595 57-291 20-787 23-1255 8z"/><path d="m12174 28002c-112-62-146-139-194-437-55-341-82-443-112-433-18 6-38 48-38 81 0 35-27 37-36 2-14-57 28-125 77-125 62 0 105 101 139 320 11 69 20 128 20 131s19 6 43 6c76 2 205 64 278 136 108 106 106 268-4 320-45 22-133 21-173-1zm149-53c77-39 76-144-1-226-44-47-118-91-191-113-91-29-94-28-86 23 14 83 56 211 83 251 44 66 134 96 195 65z"/><path d="m7125 27990c-10-17 18-38 62-46 56-11 332 1 345 14 15 15 1 19-92 26-249 18-307 19-315 6z"/><path d="m6697 27823c-16-16-6-43 18-48 14-3 36-7 51-10 22-5 24-4 14 14-19 36-67 61-83 44z"/><path d="m12694 27795c-11-27 7-35 79-35 88 0 298 30 291 42-3 4-86 8-185 8-148 0-181-3-185-15z"/><path d="m7167 27788c-22-17-14-44 15-52 44-11 327 13 331 29 3 12-60 21-210 30-92 5-122 4-136-7z"/><path d="m14230 27783c-36-2-157-12-270-22-113-11-240-23-282-26-78-7-103-19-77-37 18-12 303-3 484 17 237 26 300 42 241 65-15 5-28 9-29 8s-31-3-67-5z"/><path d="m6739 27653c-41-35-79-116-79-170 0-33 7-50 28-74 25-28 35-32 76-32 54 1 112 28 135 63 16 24 16 24-9 7-15-11-43-17-75-17-52 0-79 12-87 40-8 25 18 96 52 143 47 67 21 92-41 40z"/><path d="m12985 27670c-120-7-209-21-222-34-3-3-3-13 1-22 5-14 16-16 76-10 99 10 368 77 295 74-11-1-78-4-150-8z"/><path d="m14295 27506c-27-13-62-35-76-50l-27-26-6 25c-8 31-34 33-40 3-9-43-19-143-20-197-1-42 3-56 17-65 24-15 47 15 47 63 1 100 111 211 209 211 21 0 34-7 42-21 9-17 13-19 20-8 14 23 10 38-16 64-31 32-83 33-150 1z"/><path d="m12214 27485c-82-34-222-392-199-511 8-46 47-74 102-74 40 0 114 28 127 48 2 4-31 8-75 7-92 0-102 7-96 70 3 29 17 59 49 100 62 83 82 118 117 208 49 122 39 179-25 152zm-14-136c-25-63-80-162-87-156-6 7 42 121 73 174 14 25 28 43 30 40 3-2-5-29-16-58z"/><path d="m13820 27489c-134-15-190-34-190-66 0-12 9-13 42-8 35 6 40 5 35-9-15-38-89-135-141-185-59-56-65-74-26-79 31-5 152 120 200 207 19 34 41 69 48 77 17 18 61 18 68-1 3-8-4-57-17-110-22-91-22-96-6-130 9-20 29-40 43-45 50-19 89 14 42 35-41 19-43 36-19 144 13 55 21 107 18 115-6 15 3 18 91 32 28 4 40 10 34 16-13 13-132 17-222 7z"/><path d="m8065 26904c-100-52-168-189-119-238 23-23 79-19 136 9 28 14 52 24 54 22 2-1-3-16-12-32-27-52-102-249-115-302-11-46-11-57 4-88l17-35-63-1c-130-1-343-9-374-15-36-5-44-27-15-40 9-4 256-9 547-12 480-3 534-2 570 13l39 17-29 17c-26 14-75 16-333 19-246 3-304 6-308 17-11 27 140 433 180 485 19 24 46 89 46 109s-25 35-41 25c-5-3-23 6-40 20-36 31-97 35-144 10zm113-50c12-8 22-21 22-29 0-32-117-108-180-117-21-3-25 1-22 22 5 47 99 140 141 140 9 0 27-7 39-16z"/><path d="m6160 26555c-18-22 14-45 75-55 33-5 133-10 223-10 150 0 163 1 160 17-3 15-26 20-153 34-209 23-294 27-305 14z"/><path d="m6333 26468c-4-7-25-62-45-123-20-60-46-135-57-165-44-119-12-165 46-67 36 60 98 223 108 284 7 45-6 83-30 83-7 0-17-6-22-12z"/><path d="m6893 26284c-4-11 1-23 16-36 20-15 41-18 140-18 127 1 256 21 211 33-14 4-77 11-140 17-63 5-139 13-168 16-43 5-53 3-59-12z"/><path d="m6963 26150c-61-26-5-46 122-43 159 4 229 18 180 37-29 11-280 16-302 6z"/><path d="m8405 26070c-3-5-14-42-24-82-11-40-27-90-35-110-16-38-16-38-84-38-79 0-115-17-93-44 10-11 30-16 72-16 33 0 59-2 59-3 0-2-9-30-20-62-43-126-16-185 84-185 63 0 132 24 146 50 17 32-8 40-82 28-85-15-100-6-87 53 5 22 17 57 27 77 16 35 21 37 77 44 80 10 167 37 160 48-4 6-49 10-101 10s-94 2-94 3c0 2 9 30 20 62s20 73 20 91c0 59-27 103-45 74z"/><path d="m6420 26040c-14-5-88-18-164-29-132-19-174-21-127-6 12 3 21 13 21 22 0 12-8 13-42 8-107-18-153-59-112-99 37-37 339 0 424 52 67 41 67 75 0 52z"/><path d="m7853 25868c-59-67-166-258-161-290 3-23 5-23 143-23 176 0 213 7 221 42 6 23 0 33-51 78-58 51-58 52-64 121-4 38-10 75-14 82-13 19-52 14-74-10zm75-220 30-26-90-7c-49-4-91-5-93-3s17 41 43 86l46 83 18-53c9-31 29-64 46-80z"/><path d="m1610 25091c-88-28-136-79-175-182-15-41-48-125-72-188-39-101-42-116-29-129 8-8 21-12 29-9 22 8 118 259 115 301-3 45 38 105 93 135 50 29 154 39 199 21 66-27 23-74-137-145-102-46-120-66-89-98 8-8 36-18 62-22 119-17 234-72 234-111 0-32-61-47-210-53-80-4-153-11-163-17-59-34 192-53 312-24 132 31 151 129 38 194-23 13-69 32-102 41s-67 19-75 21c-9 3 15 21 60 44 81 43 150 107 150 139 0 12-13 35-29 53-28 31-33 33-108 35-43 1-89-1-103-6z"/><path d="m3222 25093c-15-3-22-10-20-21 2-12 17-19 50-22 26-3 51-9 55-13 11-12-10-39-58-74-97-71-94-68-82-96 8-16 23-28 43-32 36-8 232 13 225 24-2 4-37 13-77 21-40 7-76 14-80 16-4 3 13 23 38 46 68 63 71 118 8 144-33 14-57 15-102 7z"/><path d="m4990 25066c-69-47-130-154-130-229 0-84 62-101 149-42 28 20 51 34 51 33 0-2-16-52-36-113-20-60-38-135-41-165l-5-55-182-3c-206-2-239-7-234-30 6-30 69-34 423-28 327 5 574 22 592 39 21 22-40 27-280 25-251-3-257-3-257 17 0 33 34 151 89 309 28 82 51 152 51 156s-14 22-30 41c-17 19-37 42-45 52-21 24-74 21-115-7zm86-61c11-44-4-89-44-127-92-88-139-74-93 28 22 49 91 124 114 124 9 0 19-11 23-25z"/><path d="m2905 24840c-51-27-56-28-50-10 9 28-20 37-45 15-29-26-112-193-108-218 6-43 36-31 108 45 43 47 91 86 128 106 59 32 115 41 127 22 12-20 35-10 35 14 0 62-102 75-195 26z"/><path d="m2301 24846c-10-12-32-16-85-16-75 0-116-17-116-47 0-13 12-15 70-11 39 2 70 1 70-3 0-3-21-50-46-103-25-54-44-100-41-102 3-3 18 1 34 9 21 11 41 41 76 111l47 96h70 71l-26-27c-34-37-85-140-85-173 0-32 23-66 38-56 7 4 12 19 12 33 0 67 113 233 159 233 26 0 35 16 15 24-9 4-64 9-123 13-74 4-109 11-117 21-9 12-12 12-23-2z"/><path d="m6510 24811c-117-36-229-162-255-288-8-37-30-101-50-142-39-80-42-116-10-116 15 0 32 23 68 93l48 92 42-21c23-12 65-39 94-60 79-59 131-83 193-87 54-4 130 16 130 35 0 4-26 8-57 8-42 0-74 7-115 27-55 26-147 87-148 99 0 3 17 11 38 17 94 28 172 109 187 193 10 55-24 125-69 144-38 16-58 17-96 6zm90-80c28-54-1-132-67-175-45-30-193-71-193-53 0 1 9 26 20 55s20 63 20 76c0 27 55 80 104 102 47 20 103 18 116-5z"/><path d="m3668 24558c-40-11-50-31-20-43 25-10 295-34 387-35 73 0 118 11 104 24-10 10-221 45-309 51-47 4-94 8-105 9-11 2-37-1-57-6z"/><path d="m5875 24510c-18-30 23-68 59-54 21 8 21 50 0 58-24 9-52 7-59-4z"/><path d="m1200 24453c-94-4-120-10-120-27 0-9 18-16 53-20 97-12 1961-10 1965 2 4 14-16 19-143 34-91 10-1536 20-1755 11z"/><path d="m3640 24381c-46-8-49-41-5-53 30-9 271-1 353 11 57 8 54 25-5 32-81 10-306 17-343 10z"/><path d="m5299 24266c-31-44-31-44-110-48-77-5-109-17-109-44 0-11 18-14 74-14h75l-25-43c-21-38-30-45-75-55-42-10-54-10-63 1-6 7-31 26-55 41-55 35-90 72-107 113-8 18-23 37-35 44-19 10-27 4-78-48-57-59-141-203-141-241 0-11-8-23-17-26-10-3-99-28-198-55-209-59-307-93-313-109-7-22-33-28 618 139 202 52 372 96 402 105 14 4 16 0 12-28-4-24 0-40 13-57 49-61 223 4 223 83 0 17-1 18-17 4-18-16-113-48-141-48-10 0-12 7-7 28 3 15 10 31 15 35 4 5 77 28 161 52 202 56 409 118 405 122-3 3-205-42-416-92-58-14-108-25-112-25s2 16 13 35c21 35 22 35 90 35 54 0 71 4 76 15 8 22 3 25-56 32-28 3-51 7-51 8 0 2 7 15 15 31 10 20 11 32 3 41-18 23-38 14-69-31zm-423-116c15-22 45-53 66-69l40-29-49-7c-26-3-75-9-108-14s-62-7-63-6c-4 3 80 165 85 165 2 0 15-18 29-40z"/><path d="m2404 24283c-22-63-88-200-102-210-9-7-35-13-58-13-57 0-96-15-92-37 3-17-8-22-115-48l-59-14-29 62c-16 34-29 68-29 75s-7 26-15 42c-12 23-22 30-45 30-25 0-38-10-73-56-23-30-70-92-105-136-34-44-65-90-68-103-5-19-21-28-92-50-189-58-354-127-381-158-24-30 10-28 106 7 320 114 333 117 528 126 99 5 192 11 208 15 34 9 50 37 42 74-6 28-5 28 112 70 65 23 124 44 131 47 15 4 15 7-17-93-20-63-21-75-9-100 26-54 130-40 246 34 53 34 64 61 17 43-40-15-197-51-202-47-6 7 14 78 37 129l19 43 108 10c85 8 108 13 108 25 0 11-16 16-65 20l-65 5 78 29c43 15 76 30 75 32-2 2-48-10-103-26-54-17-101-28-103-25-3 3 9 36 27 75 36 77 39 132 8 138-10 2-20-4-23-15zm-544-215c0-7 11-37 25-67s23-56 21-58c-7-7-200-63-204-59-4 5 142 196 151 196 4 0 7-6 7-12zm95-188c4-6-9-10-32-10-28 0-34 3-23 10 20 13 47 13 55 0z"/><path d="m3030 23011c0-12 11-23 28-29 15-5 55-30 90-56 54-40 61-49 52-66-13-24 2-34 37-25 20 5 37-3 79-35 30-22 54-43 54-45s-5-16-12-30c-25-56 44-104 134-92 33 4 44 0 87-34 34-27 52-36 57-28 4 8-7 24-29 42-21 16-37 38-37 48 0 14-9 21-29 25-16 4-39 17-51 29-21 22-21 25-6 47 51 73-17 138-145 138-59 0-65 2-133 53-89 67-107 77-145 77-24 0-31-4-31-19zm388-184c19-11 20-15 10-30-12-15-16-14-48 13-34 29-34 29-10 29 14 0 35-5 48-12z"/><path d="m2320 22971c0-10 61-178 83-231l15-35-94-17c-155-27-196-73-66-73 43 0 72-4 72-10s-13-45-30-87c-55-144-82-182-109-155-8 8-11 3-11-20s5-32 21-36c66-17 125 63 188 256 27 81 52 91 77 30 9-21 23-53 32-72 14-31 14-38-7-105-12-39-25-84-28-99-5-26-3-28 18-25 16 2 31 18 48 52l25 49 20-44c11-24 48-109 82-189 35-80 68-146 74-148 5-2 10 0 10 4s-39 104-86 223l-86 216 17 50c9 28 24 58 32 67 9 10 13 24 9 33-10 26-48 13-73-24l-23-34-19 44-20 44 97 12c53 6 120 12 148 12 58 1 85 20 59 41-10 8-65 12-177 14l-162 1-52 120c-30 66-53 126-54 133 0 13-30 17-30 3z"/><path d="m6686 22912c-3-5 7-40 23-78 15-38 38-95 49-126l22-58h-54c-69 0-106-14-106-39s19-31 101-31c83 0 83-1 36-103-45-96-66-120-118-132-51-13-61-36-26-60 54-35 130 24 188 145 19 38 37 66 41 62s27-52 51-107c39-87 44-108 40-148-5-38-3-47 10-47 9 0 19 5 22 10 4 6 57-88 118-209s113-218 115-216c8 7-92 283-141 390l-50 109 18 51c18 51 104 244 114 257 4 4 31 10 61 14 54 6 80 17 63 27-4 2-91 10-193 18-140 10-188 16-196 27-6 9-18 13-26 9-12-4-25 19-57 103-40 102-64 140-89 140-6 0-13-4-16-8zm384-326c0-2-15-37-34-78-19-40-42-91-51-113l-17-40-13 30c-7 17-29 67-49 112l-35 82 92 4c51 1 95 4 100 5 4 1 7 0 7-2z"/><path d="m7235 22860c-11-18 63-130 163-248l54-64-23-61c-12-34-33-84-46-110-30-60-27-91 7-95 19-2 30 5 44 30 11 18 37 56 59 85l40 51 185-184c102-102 193-189 203-194 42-23 22 11-52 90-123 130-289 319-289 328 0 12 82 69 132 92 46 21 103 26 113 10 3-5 13-10 21-10 24 0 12 40-19 63-51 39-143 20-235-48-57-41-61-43-64-22-2 15-12 24-30 27s-48 32-98 95c-149 188-150 189-165 165z"/><path d="m1695 22796c-65-29-121-113-179-270-43-114-44-150-5-154 25-3 30 4 80 119 29 67 65 141 81 165 15 24 25 50 22 57-3 9 7 19 26 27 27 11 33 11 41-1 22-35 3-117-35-148-9-8-16-28-16-47 0-37 14-49 118-104 92-49 105-87 30-91-16-1-36-2-45-2-59-3-145 16-179 39-41 28-64 21-45-15 17-30 59-49 142-62 118-18 209 2 224 50 13 43-32 94-137 154-27 16-48 30-48 33 0 4 11 19 25 35 47 56 47 166 0 206-30 26-57 28-100 9z"/><path d="m6145 22780c-58-15-81-28-117-68-64-71-91-148-157-462-44-205-69-286-107-343-33-50-56-46-68 11-13 56-33 54-42-4-8-57 5-88 44-102 87-30 173 107 222 353 26 132 36 160 56 156 58-13 132-5 186 21 158 74 238 231 178 352-33 69-118 107-195 86zm122-93c69-68 23-205-91-272-58-34-216-77-216-59 0 22 54 203 72 241 52 111 169 156 235 90z"/><path d="m3063 22666c-48-15-102-47-127-75-11-12-25-17-38-13-26 6-38-13-38-60 0-20-5-59-10-86-14-63-1-102 34-102 27 0 36 16 36 68 1 104 97 198 233 226 18 4 27 13 27 25 0 33-44 39-117 17z"/><path d="m5250 22667c-130-33-236-266-186-407 14-39 67-80 103-80 37 0 87 25 132 65 23 21 41 34 41 29s-16-53-34-109c-76-221-94-335-60-383 20-28 55-28 82 1 31 33 29 61-3 55-24-5-25-3-25 38 0 66 67 275 172 540 23 58 19 99-10 106-11 3-21 18-25 37-16 76-106 129-187 108zm109-83c11-14 27-45 37-69l17-45-41-62c-67-102-144-168-198-168-79 0-68 202 17 308 54 67 131 83 168 36z"/><path d="m4063 22579c-83-4-157-10-162-14-21-13-12-44 15-51 67-17 454 17 531 47 77 29-45 35-384 18z"/><path d="m4065 22393c-109-7-151-25-138-59 5-14 23-15 137-10 168 9 358 25 365 32 13 12-28 23-113 29-142 10-197 12-251 8z"/><path d="m6133 22090c-98-59-193-290-193-466 0-77 11-101 54-119 61-26 189 25 173 69-6 15-9 15-36 1-17-8-48-15-70-15-53 0-65 22-56 99 11 90 15 99 60 125 88 52 185 189 185 263 0 61-55 81-117 43zm38-113c-21-44-121-150-121-129 0 26 60 131 96 168 31 32 38 36 42 21 2-9-6-37-17-60z"/><path d="m4610 21349c-397-24-867-31-1980-28-942 2-1195 0-1232-10-26-7-55-11-63-7-10 4-19-2-24-17-5-13-12-421-15-908-7-1076-12-1295-33-1369-10-37-13-72-8-110 11-87 28-118 77-140 42-18 77-19 763-19 461 0 776-4 875-11 435-33 519-32 900 11 146 17 360 39 475 49 116 11 255 24 310 29 55 6 155 13 223 16s131 9 141 15c15 7 20 24 22 77 8 152 2 368-14 538-13 145-17 310-19 845-2 837-6 949-34 987-47 64-85 70-364 52zm262-69c22-7 39-19 43-31 12-38 22-438 24-1005 2-570 6-688 35-904 9-63 16-185 16-271 0-182 10-169-125-169-44 0-120-5-170-10-49-5-164-17-255-25-232-22-450-44-480-50-14-2-108-14-210-26-213-24-506-28-660-7-69 9-314 12-905 13-620 0-815 3-832 13-34 19-56 109-36 147 5 11 13 38 16 60 13 82 22 715 22 1467v776l47 6c63 9 339 7 513-4 153-9 2168-4 2410 6 83 3 215 9 295 13 214 12 212 12 252 1z"/><path d="m4090 20977c-54-17-104-75-129-148-12-35-32-127-46-205-13-77-34-169-44-205-35-112-108-209-158-209-27 0-36 14-35 51 1 58-42 43-54-18-5-27-1-37 24-63 98-97 254 71 302 325l12 61 57 11c88 16 203 74 259 130 99 99 88 214-25 272-27 14-116 13-163-2zm161-63c32-16 54-64 45-99-16-64-111-135-225-169-90-26-95-25-87 34 13 97 44 176 81 209 20 17 48 33 63 37 15 3 32 7 37 9 14 4 56-6 86-21z"/><path d="m3445 20899c-77-38-158-135-194-232-29-80-27-112 9-149 27-26 35-29 66-23 20 3 51 15 71 26l36 20-6-23c-3-13-19-74-36-135-37-141-46-216-32-270 11-40 38-65 46-40 2 6 6 41 9 77 8 103 91 402 133 484 8 15 30 49 48 75 42 60 50 85 30 104-8 9-15 25-15 37 0 11-11 32-25 45-30 31-83 33-140 4zm95-76c0-31-56-159-83-190-11-12-43-34-72-49-89-47-107-15-52 94 61 122 207 225 207 145z"/><path d="m4173 20554c-18-9-50-36-72-59-40-44-101-152-101-180 0-8-9-24-21-36-15-15-18-24-10-33 6-7 9-15 6-18s-6-35-6-72c-1-82 15-111 72-126 48-13 126 1 161 29 35 29 15 38-67 33-51-3-79-1-90 8-24 20-17 130 9 130 6 0 40 14 76 31 142 67 231 226 164 293-20 20-80 20-121 0zm92-55c13-21-26-98-71-139-46-42-127-86-132-71s38 103 70 144c49 62 116 95 133 66z"/><path d="m1814 20176c-36-16-100-87-120-133-19-45-62-214-75-293-12-78-1-120 31-120 11 0 23 7 26 15 5 12 10 12 32-3 21-14 50-17 157-17 138 1 197 12 233 45 51 48 6 114-127 186-39 21-71 41-71 45s15 18 34 32c38 29 66 82 66 124s-32 94-71 115c-40 21-72 22-115 4zm89-57c30-16 37-28 37-67 0-28-10-43-55-87-30-29-55-56-55-61 0-24 38-58 107-96 42-23 87-52 102-65 25-22 25-24 7-38-17-13-46-19-136-30-62-7-149 6-143 21 7 20-24 29-53 16-13-7-24-10-24-8 0 16 42 248 49 274 16 53 59 120 89 136 33 19 47 19 75 5z"/><path d="m2290 19985c-44-54 136-73 341-36 196 36 192 39-41 40-118 1-231 4-250 7-26 4-40 2-50-11z"/><path d="m4005 19952c-104-7-325-14-490-15-259-2-300-4-300-17 0-61 465-61 990 1 219 25 241 29 223 40-17 12-181 8-423-9z"/><path d="m2413 19839c-36-11-46-44-15-53 30-9 405 28 409 40 2 6-13 14-34 18-57 9-323 6-360-5z"/><path d="m3799 19672c-24-16-63-51-86-78l-43-49v48c0 43-2 47-25 47-21 0-26-7-39-52-74-278-70-258-52-276 24-24 41-9 104 92 62 100 163 213 198 222 33 8 57-13 49-43-9-38 4-47 31-22 34 32 32 78-4 112-37 35-76 35-133-1z"/><path d="m8593 20991c-42-19-64-56-48-80 9-16 33-13 42 4 10 17 59 33 86 27 34-7 21-57-25-96-23-20-45-36-50-36-4 0-8-11-8-25 0-28 28-49 76-60 35-7 74-39 74-60 0-31-50-49-139-51-47-2-89-3-93-3-5-1-8-12-8-26 0-20 7-26 42-36 51-13 137-4 195 21 81 35 94 121 28 178-18 17-43 33-54 37-20 6-20 8 10 45 84 104-6 218-128 161z"/><path d="m8197 20761c-60-7-85-25-65-48 12-15 106-17 158-4 19 6 55 15 79 21s40 15 35 20c-13 12-140 19-207 11z"/><path d="m6805 20660c-68-8-192-36-285-64-36-10-47-19-53-42-4-16-19-63-33-105-36-111-19-133 81-104 32 10 68 14 83 10 131-32 38-186-123-202-56-6-95 8-95 34 0 13-3 13-15 3-38-32-1-94 62-106 101-19 269 78 294 170 15 54-10 117-57 146-34 22-129 30-155 14-8-5-10-1-7 12 3 10 12 40 19 65l12 46 141 33c185 42 290 73 296 85 6 13-74 15-165 5z"/><path d="m13600 20618c-14-8-25-22-25-33 0-18 6-20 50-17 94 6 112-43 35-95-70-45-65-77 18-121 32-17 68-42 81-56l24-25-27-11c-15-5-53-10-86-10-32 0-73-6-91-14l-33-14 32-16c76-39 242-8 256 48 12 49-20 87-129 151-16 10-14 14 18 46 59 59 60 117 3 154-34 23-96 29-126 13z"/><path d="m9553 20581c-97-45-173-161-173-266 0-74 23-121 71-147 121-65 256 50 275 232 15 153-61 233-173 181zm96-65c21-25 24-100 6-162-29-102-109-159-174-124-47 25-51 119-8 195 43 77 144 130 176 91z"/><path d="m7527 20560c-46-54-116-275-101-317 12-36 28-39 42-8 28 60 112 330 108 342-8 20-22 16-49-17z"/><path d="m7880 20571c-80-26-131-73-162-152-31-81-35-142-9-168 100-100 336 96 306 256-9 51-76 83-135 64zm86-77c16-65-52-170-134-206-98-44-116 24-42 157 21 39 85 75 132 75 32 0 39-4 44-26z"/><path d="m10201 20537c-34-51-92-103-130-120-48-21-50-47-4-47 14 0 41 10 60 22l35 21-7-54c-16-111-6-193 23-187 13 2 21 26 34 100 9 54 27 133 38 177 12 43 20 90 18 102-5 40-34 34-67-14z"/><path d="m9010 20435c-17-21-8-50 18-53 29-4 55 44 31 59-20 13-35 11-49-6z"/><path d="m14628 20373c-32-36-9-47 106-51 59-3 106-6 106-9 0-2-34-72-76-155-49-95-73-153-67-159 19-19 64 14 97 70 38 66 116 227 116 240 0 5 30 12 68 16 89 8 265 34 271 40 15 16-40 20-307 23-281 4-298 3-314-15z"/><path d="m7104 20359c-12-14-14-23-7-30 17-17 48-6 51 17 4 29-22 37-44 13z"/><path d="m13150 20362c-14-5-26-16-28-25-6-28 43-40 137-33 90 6 115 17 91 40-17 17-161 29-200 18z"/><path d="m9868 20293c-21-24-91-211-83-223 22-35 55 7 106 132 25 64 29 81 19 93-16 19-23 19-42-2z"/><path d="m11745 20195c-59-79-135-214-129-230 8-20 47-17 135 10 49 15 60 16 85 4 58-28 38-116-31-145-42-17-115-18-150-2-50 23-42-20 10-52 45-28 127-27 185 3 106 53 122 204 27 254-19 10-53 17-84 16-29 0-53 2-53 5 0 13 51 90 63 95 7 3 62 6 123 6 122 2 279 22 296 39 29 29-5 34-229 30l-226-3z"/><path d="m12639 20098c-102-172-122-239-72-246 21-3 49 28 37 41-3 3 24 63 60 133 69 135 78 164 48 164-12 0-36-30-73-92z"/><path d="m15224 20148c-50-46-124-162-124-195 0-23 21-36 45-27 8 3 35 41 60 84 49 84 71 109 84 94 4-5 16-31 26-58 19-53 78-126 102-126 11 0 11 4 3 20-6 11-19 54-30 95-24 94-45 133-76 145-38 15-41 14-90-32z"/><path d="m12973 20140c-42-10-119-56-127-76-15-39-18-126-6-149 60-113 324 46 291 174-13 47-81 70-158 51zm91-56c27-10 18-52-19-93-40-44-80-64-121-59-24 2-30 9-32 32-6 46 5 70 39 90 52 31 102 42 133 30z"/><path d="m10775 20046c-5-2-22-7-37-10-37-8-39-43-3-51 14-3 36-7 49-10 30-6 201 11 261 26 26 7 45 17 45 25 0 11-21 14-94 14-51 0-120 2-152 5-32 2-63 3-69 1z"/><path d="m5350 20000c-9-17-6-25 16-46 26-27 26-27 167-21 121 5 252 21 345 42 12 3 22 11 22 19 0 19-134 26-302 16-75-4-156-4-180 1-58 11-56 12-68-11z"/><path d="m12253 20004c-3-8 1-22 9-30 19-19 52 3 42 29-8 21-43 22-51 1z"/><path d="m9854 19934c-5-1-200-5-434-8s-562-12-730-20c-372-18-791-28-1695-41-395-6-525-15-525-35 0-26 180-30 740-17 157 4 420 9 585 12 318 5 548 12 680 20 44 3 166 7 270 11 105 3 195 7 202 9 6 2 163 6 350 9 775 14 991 21 1007 36 4 5 5 13 1 20-5 8-68 11-224 9-120-2-222-4-227-5z"/><path d="m10828 19899c-26-15-23-46 5-51 13-3 72 2 131 10 105 15 128 28 75 43-38 11-192 9-211-2z"/><path d="m5647 19823c-222-3-259-5-264-19-11-28 21-45 104-53 133-14 299 0 421 35 32 9 52 20 49 27-4 14 15 14-310 10z"/><path d="m8567 19601c-62-69-94-147-72-177 16-23 40-6 48 34 7 31 57 103 57 81 0-8-9-55-20-105-30-138-24-242 12-206 16 16 68 227 75 303 10 114-33 144-100 70z"/><path d="m7893 19550c-81-40-195-166-212-234-15-60 3-107 51-133 53-28 179-25 242 7 154 79 210 299 94 370-48 29-104 26-175-10zm151-56c20-19 21-93 2-137-33-75-115-127-201-127-62 0-99 18-103 49-4 23-3 23 13 8 23-23 35-13 35 31 0 85 112 190 202 192 20 0 43-7 52-16z"/><path d="m8216 19298c-40-63-109-217-103-232 12-30 35-16 75 45 56 85 89 174 72 194-17 21-27 19-44-7z"/></g><g fill="#44b" transform="matrix(.054411653 0 0 -.054411653 1595.73991253537 1638.62300791264)"><path d="m750 2973c-57-10-88-25-119-57-40-41-55-100-46-179 6-45 12-61 32-77 32-25 35-25 64-1 22 17 24 26 21 89-4 105 24 120 164 87 33-7 119-19 190-25 88-8 134-16 144-26 32-32 8-420-28-456-18-18-126-28-289-28-185 0-206-4-250-52-55-58-58-82-55-363 1-145 7-274 13-293 11-34 51-62 89-62 12 0 35 14 52 31l31 30-6 238c-3 130-3 249 0 264l5 27h112c234 1 363 26 423 82 58 54 98 260 91 463-4 122-7 138-34 191-40 81-79 100-217 108-174 10-361 14-387 9z"/><path d="m3660 2971c-42-9-83-34-103-65-39-59-50-127-54-343-5-206-5-212 18-252 28-50 78-86 143-102 48-12 257-8 370 7l49 7-7-104c-4-57-11-189-16-294-9-177-9-192 8-214 35-47 100-46 136 2 22 29 27 86 42 452 7 191 0 235-44 283-45 48-92 56-241 38-146-18-229-20-265-6l-26 10v162c0 156 8 230 27 249 5 5 99 6 210 2l201-6 5-50c3-39 11-56 31-74 34-29 48-29 80 0 24 20 26 30 28 113 4 147-23 169-218 179-242 11-340 13-374 6z"/><path d="m1565 2945c-14-13-25-32-25-42s-1-297-3-638c-2-677-3-662 55-694 33-19 73-7 101 31 18 24 20 51 29 300 5 150 10 278 12 283 2 6 37 8 97 3 52-3 135-7 186-7 154-2 161-10 143-176-21-189-27-310-18-343 12-45 45-72 86-72 71 0 102 46 102 151 0 33 7 118 16 187 24 190 9 280-58 349-50 52-112 67-263 65-71-1-164-6-205-11-41-4-78-7-81-5-4 2-10 108-13 236-9 286-17 352-47 384-31 33-82 32-114-1z"/><path d="m2542 2944c-55-38-64-109-53-419 6-186 9-215 28-250 50-95 116-125 302-135 75-4 171-5 215-1l78 7-4-178c-2-97-7-181-11-184-4-4-42 1-85 11-104 26-285 27-363 3-106-33-149-107-99-170 26-34 68-41 132-21 74 23 202 20 308-7 182-47 274 5 301 168 12 77 27 831 19 994-7 152-20 181-86 186-88 7-103-51-104-401v-219l-201 4c-197 3-201 3-220 27-18 21-19 42-19 283v260l-29 29c-33 33-74 38-109 13z"/><path d="m2374 1391c-55-34-79-78-79-147 0-51 4-66 27-96 35-45 102-73 153-64 78 15 146 111 131 188-20 108-145 172-232 119z"/><path d="m1853 999c-39-11-66-56-61-101 6-59 69-64 76-6 4 30 34 38 145 38h67v-110c0-135-1-136-132-126-85 6-89 6-113-18-24-25-25-28-25-179 0-162 4-177 47-177 35 0 43 29 43 159v121h73c85 0 141 14 168 41 17 17 19 34 19 169 0 147-1 152-25 175-23 24-30 25-137 24-62 0-128-5-145-10z"/><path d="m2985 1000c-91-16-93-18-104-58-15-51-14-537 0-564 19-36 69-48 204-48 121 0 127 1 151 25l24 24-2 292-3 292-26 19c-31 23-161 33-244 18zm169-86c14-5 16-37 16-250v-245l-102 3-103 3v240 240l40 6c57 9 131 10 149 3z"/><path d="m2351 971c-24-24-29-73-37-372-6-232-6-237 15-258 23-23 29-25 51-11 12 7 16 40 20 150l5 141 35-23c19-13 59-55 88-93 30-39 78-96 108-128 47-51 56-57 74-47 29 16 25 42-15 92-19 24-62 78-95 121-61 77-61 77-33 77 15 0 46 9 69 19 56 26 67 57 62 179-6 156-27 172-220 172-93 0-111-3-127-19zm257-74c16-13 17-168 0-185-7-7-41-12-84-12-40 0-84-4-98-10l-26-10v120 119l98-6c53-3 103-10 110-16z"/></g></svg>