<svg height="1631.40722pt" preserveAspectRatio="xMidYMid meet" viewBox="0 0 2042.198477 1631.40722" width="2042.198477pt" xmlns="http://www.w3.org/2000/svg"><g transform="matrix(.1 0 0 -.1 -37.966242 3478.928746)"><path d="m2489 34767c-53-28-109-98-109-136 0-14 7-37 16-49 15-21 14-26-20-76-45-68-57-99-58-151-1-76 45-115 136-115 72 0 153 31 197 76 28 29 34 43 34 79 0 52-23 80-105 133-30 19-57 37-60 39-2 2 19 26 48 52 48 44 52 51 52 93 0 78-48 98-131 55zm82-40c-1-9-116-117-125-117-12 0-6 31 10 56 27 40 117 88 115 61zm6-268c76-52 64-102-32-138-163-61-216 19-104 160 30 39 30 39 62 22 18-8 51-29 74-44z"/><path d="m3095 34753c-77-21-155-113-155-181 0-66 83-121 183-122 57 0 57 0 46-22-50-97-167-150-205-93-21 31-32 32-40 1-9-36 4-64 36-81 40-21 67-19 125 9 59 27 124 94 159 164 17 34 33 52 51 56 14 4 25 11 25 16 0 6-10 8-23 5-22-6-22-5-19 72 3 86-12 126-62 158-27 18-89 27-121 18zm90-98c20-19 25-34 25-74 0-81-1-81-78-61-76 19-112 36-112 51 0 27 39 73 75 90 52 24 61 24 90-6z"/><path d="m1960 34724c-124-33-178-78-200-166-23-89 16-149 103-158l52-6-59-28c-74-36-165-45-220-22s-78 21-74-6c2-14 19-30 48-46 39-21 55-23 122-20 64 4 90 11 152 42 85 42 130 87 120 120-10 31-9 31-97 36l-82 5-3 35c-6 81 70 134 217 151 136 16 221 30 226 39 9 14-110 40-181 39-38 0-94-7-124-15z"/><path d="m9750 34729c-83-10-163-44-168-73-7-33 12-38 82-20 37 9 68 15 70 13s-4-43-14-90-21-126-25-175c-6-78-10-91-28-100-27-12-42-37-33-59 6-16 18-17 144-10 75 4 140 9 145 12 11 7 8 38-5 51-7 7-41 12-81 12h-70l7 93c4 51 13 124 21 162 8 39 15 80 15 92 0 24 13 28 123 39 71 7 89 17 66 39-19 17-156 25-249 14z"/><path d="m1434 34611c-107-95-124-116-124-147 0-28 28-13 96 50 38 36 70 63 71 62 2-1-6-20-16-42-81-171-142-316-137-329 16-44 67 8 116 121 17 38 35 78 40 89s32 69 60 129c27 60 50 116 50 125 0 19-19 41-34 41-6 0-61-45-122-99z"/><path d="m924 34655c-3-8-4-18-1-22 3-5-1-23-8-41-10-22-21-32-36-32-21 0-21 1-5 19 24 27 17 55-15 59-21 2-34-6-61-37l-35-41h-101c-109 0-128-9-93-43 15-16 37-22 86-25 36-2 65-5 65-7 0-1-7-15-14-31-11-21-29-34-64-47-28-9-53-24-56-33-9-24 13-46 40-40 21 6 22 4 11-29-13-44 3-85 33-85 16 0 28 16 52 70 22 49 36 70 49 70 9 0 25 3 35 7 19 7 21 15-25-117-22-61-27-88-19-97 6-7 14-10 19-7s36 56 69 119c67 126 56 117 175 127 22 2 30 8 30 23 0 17-8 20-57 23-32 2-58 4-58 6s5 16 10 32c10 28 15 30 113 47 127 23 139 26 132 38-4 5-52 9-109 9h-103l5 30c7 48-49 96-64 55zm-44-160c0-23-27-54-51-57-16-3-31-3-33 0-10 10 18 51 38 55 33 7 46 7 46 2z"/><path d="m11650 34618c-51-27-72-62-94-158-9-36-23-97-32-137-16-67-16-73 0-97 21-32 40-33 63-3 17 23 19 23 62 10 54-16 117-17 179-2 56 14 77 29 41 30-13 0-71 12-129 27-72 19-105 31-105 41 0 8 32 39 70 68 93 72 135 111 146 140 31 81-98 133-201 81zm140-58c0-15-31-43-98-89-63-42-78-49-66-30 4 7 8 28 10 48 4 52 41 81 105 81 27 0 49-4 49-10z"/><path d="m11103 34603c-16-6-17-39-2-49 6-3 45-10 87-15 51-6 82-14 94-26 16-17 16-20 1-51-9-19-53-62-100-99-117-92-132-117-94-164 17-21 27-24 86-22 36 1 92 7 123 14 70 14 175 65 169 82-3 7-11 11-18 9-32-8-271-33-281-30-6 2 22 30 61 62 92 73 131 127 131 176 0 52-30 86-92 105-49 14-139 19-165 8z"/><path d="m7314 34394c-68-17-125-80-149-166s-24-387 0-424c28-44 75-25 75 31 0 16 3 40 6 51 5 21 7 21 52 7 103-30 312-29 312 3 0 8-3 14-7 14-22 0-311 63-325 71-32 17-19 38 60 95 184 135 221 203 150 279-41 44-102 58-174 39zm118-81c38-34 14-72-91-149l-76-56-9 67c-10 77 1 107 49 137 38 23 102 24 127 1z"/><path d="m10000 34395c-18-21 3-43 49-51 20-4 44-11 55-16 17-9 15-14-24-53-33-33-41-48-38-71 5-48 44-59 157-46 102 12 135 28 111 56-9 12-31 16-81 16-38 0-69 3-69 8 0 4 7 16 15 26 18 23 19 69 4 98-23 42-151 66-179 33z"/><path d="m15168 34236c-104-38-154-114-239-359-29-83-32-99-19-107 16-10 50 14 50 34 0 6 4 17 9 25 7 11 14 10 37-7 44-32 107-42 244-38 143 5 162 10 158 40-3 20-10 21-148 27-146 6-210 14-210 28 0 12 62 66 125 109 97 65 155 135 155 187 0 8-10 25-22 39-29 32-89 41-140 22zm81-65c27-17-25-71-158-160-57-39-62-41-56-20 11 34 68 120 97 147 36 33 92 49 117 33z"/><path d="m14452 34168c-48-129-82-250-76-273 14-57 86-74 193-45 24 6 45 9 47 7 3-2-3-36-12-74-18-74-14-107 12-101 10 2 27 40 50 109 28 86 39 108 59 117 27 13 33 30 11 38-11 4-10 15 7 60 16 43 18 57 8 67-15 15-41-14-77-85-22-43-27-47-76-58-65-14-158-25-158-18 0 3 16 57 35 119 41 132 45 189 16 189-14 0-25-14-39-52z"/><path d="m16080 34185c-124-26-142-34-138-58 3-21 7-22 91-20l89 2-9-52c-4-29-7-100-6-159l1-107-56-3c-45-2-58-7-60-21-2-10 2-24 8-32 27-32 279-7 322 32 11 9 18 26 16 37-3 22-5 23-95 8l-52-9-6 63c-8 72 10 224 30 251 9 12 40 23 101 33 69 12 90 19 92 33 3 15-8 17-130 16-73 0-162-7-198-14z"/><path d="m10954 34159c-47-13-58-33-64-118l-5-76-50-7c-61-8-357-7-520 1l-120 6 53 20c56 20 76 42 66 69-12 32-51 29-133-9-44-21-90-48-102-61-22-24-23-24-265-24-134 0-254-4-267-9-24-9-24-9-26-188-2-219-10-334-25-338-10-3-428-10-1211-21-192-3-356-7-364-10-12-4-13 11-8 91 7 106 0 136-38 161-25 16-31 16-133-7-98-22-129-24-363-24-202 0-259-3-272-14-28-22-38-81-26-145 6-32 9-60 7-62-12-11-283-19-669-19-350 0-439 3-452 13-22 18-86 7-129-21-40-27-73-91-89-172-7-38-13-269-16-640-5-555-4-588 17-770 30-253 39-289 68-293 16-3 25 2 28 16 5 16 11 18 52 11 50-7 487-23 637-22 180 1 1180 13 1533 19l364 6-7-110c-8-124-4-157 24-172 24-12 54 13 47 39-10 32 20 480 34 496 18 21 5 45-24 45-38 0-57-38-65-129-4-44-9-82-11-84-10-9-241-17-675-22-247-3-637-10-865-16-349-9-753-6-850 7-14 1-64 3-112 3l-86 1-7 68c-3 37-13 116-21 175-17 134-20 1152-3 1305 11 104 36 175 66 189 10 6 90 6 193 0 154-7 939-2 1013 7 29 3 28 6 32-75 4-58 0-57 370-60 361-4 371-2 397 44 7 12 15 41 18 65l5 43 385 3c525 5 1181 16 1203 21 17 3 18-5 14-135-4-150 7-336 23-386 10-30 14-32 75-39 35-3 142-5 238-4 174 3 174 3 206-24 55-46 175-73 271-59 45 6 55 10 55 27 0 16-14 22-85 40l-85 20 220 6c121 3 292 10 379 14 148 7 159 7 153-9-4-10-7-31-7-47 0-22-6-32-25-39-32-12-32-28 1-40 25-10 743-5 831 6 46 6 63 28 38 53-14 14-54 16-313 14-163-1-337-5-385-10-86-9-88-8-83 12 3 11 6 31 6 45 0 17 8 29 23 35 31 14 28 39-5 43-21 3-28 9-28 25 0 12-3 38-6 58-5 28-2 37 10 42 21 8 231 35 331 42 259 18 378 25 443 25h73l-8-47c-4-27-8-111-8-188 0-135 1-140 21-143 34-5 64 45 64 105 0 26 5 103 12 170 14 146 9 167-51 183-68 18-718-28-871-61-82-18-104-55-83-143 7-32 12-60 11-61-2-2-50-6-108-9-58-4-134-8-170-11-179-13-540-17-540-6 0 6 37 29 81 51 45 22 88 45 95 51 29 24 10 79-27 79-9 0-67-25-128-55-95-48-113-61-125-90l-15-34-205-3c-197-3-205-2-213 17-4 11-7 244-8 517v498h243c207 0 242-2 242-15 0-23 45-47 128-66 92-22 155-24 171-5 9 11 3 19-35 40-26 14-50 26-55 26s-9 5-9 11c0 7 16 8 48 3 65-10 498-11 545-1 37 8 37 8 37-25 0-70 5-74 88-85 42-6 241-11 441-12 346-1 365-2 389-21 36-29 80-25 122 11 30 25 33 32 22 47-20 28-24 41-18 57 4 12 25 15 93 15 48 1 120 5 158 10 39 5 141 13 229 16l158 7-7-63c-15-128-7-309 19-480 33-208 49-397 41-479l-7-63-46 7c-78 12-278 22-452 21-162-1-165-1-168-23-2-14 4-26 18-33 12-7 115-15 242-21 122-5 249-14 282-19 104-17 151-13 183 14 28 24 28 24 31 177 3 132-7 275-24 345-5 21-3 21 263 27 273 6 845 31 985 43 77 6 77 6 83-22 9-44 20-58 46-65l24-6-25-4c-43-7-29-33 25-47 37-10 98-12 235-8 619 20 674 20 689 2 17-20 35-21 51 0 8 8 28 21 47 29 25 11 33 20 33 39 0 25-30 44-50 31-6-4-10 7-10 27 0 25 3 29 10 18 11-18 145-20 358-6l132 8v-29c0-57 64-92 219-119 46-8 86-13 89-9 17 17-79 80-188 122l-24 10 24 15c18 11 59 17 137 20l111 4 6-27c7-38 45-56 174-80 182-35 172-35 172-5 0 23-8 31-52 51-29 13-89 32-133 42l-80 18 168 3c135 2 173 0 197-13 60-31 70-89 51-305-9-97-13-157-26-390-3-47-7-123-10-170-19-316-24-449-21-628 4-197 3-203-17-214-15-8-69-8-192-2-207 11-444 11-795 1-420-12-574-21-900-57-134-15-253-14-780 5-560 20-1024 26-2360 31-2117 9-2389 8-2509-5-105-11-141-25-121-45 7-7 168-11 493-11 265-1 932-4 1482-8s1340-9 1755-11c415-3 874-10 1020-15 253-11 567-15 824-13 104 2 174 6 376 27 119 12 451 25 790 31 421 8 467 7 667-6 196-13 274-5 307 29 39 40 44 95 50 521 3 212 7 395 10 406 2 12 7 95 11 185 3 90 11 208 16 263 14 146 11 311-5 349-33 80-126 119-274 114-51-2-95 0-98 4-2 4 26 25 63 45 87 48 103 62 103 90 0 17-7 25-25 30-42 10-202-74-281-148-29-27-36-29-99-26l-69 3 42 28c46 30 57 69 25 85-24 13-35 8-138-62l-90-60-135-8c-397-23-430-26-445-38-18-15-17-20-5 98 11 106-1 154-42 168-28 11-216 7-398-6-74-6-227-15-339-20s-221-15-242-20c-55-15-73-47-65-115 3-29 3-56-1-58-5-3-120-8-258-11-137-4-331-11-430-16s-272-12-385-15-217-8-232-11c-22-4-27-1-32 23-19 95-28 232-22 363 8 162 2 194-41 211-28 11-258 0-453-21-227-24-213-24-206 4 3 14 9 46 12 70 6 39 3 48-21 72-26 26-30 26-103 21-295-24-477-18-732 24-63 10-117 19-120 18-3 0-19-5-36-10zm146-78c191-35 330-44 569-36 205 6 223 5 218-10-4-9-12-56-19-106l-12-89h-437c-411 0-439 1-448 18-17 31-25 210-11 227 15 19 13 19 140-4zm3915-501c3-5 0-69-6-143l-12-134-306-7c-168-3-372-9-453-13l-148-6 11 33c9 24 9 50 0 100-6 38-11 82-11 99 0 28 2 30 53 35 28 3 111 8 182 11 72 3 193 10 270 15 77 6 160 12 185 13 107 8 229 6 235-3zm-7189-147c-4-82-12-152-17-158-6-6-127-10-321-10-171 0-303 1-294 3 20 4 21 28 1 39-14 8-37 111-47 208l-3 30 255 1c191 1 271 5 320 16 36 9 76 16 89 17l24 1z"/><path d="m2170 33958c-212-3-587-16-835-27-247-11-522-23-610-26-190-7-235-12-235-30 0-20 53-26 260-25 169 0 352 6 1055 35 258 10 1327 14 1625 5 393-11 680-28 752-44 60-14 85-8 75 17-7 19-88 45-182 57-268 35-1107 52-1905 38z"/><path d="m4612 33928c-6-9-12-324-15-883-5-690-23-1704-31-1711 0-1-44 2-96 7-134 12-1081 11-1615-2-247-6-894-14-1437-17-1017-7-1036-8-999-44 22-23 1503-18 2506 7 356 8 1572 15 1610 9l30-6-2-96c-5-200-24-771-28-867-3-55-9-226-15-380-18-498-20-547-32-731-6-100-8-189-5-198 4-9 15-16 26-16 29 0 41 54 56 260 6 84 14 311 45 1240 12 355 24 677 26 715l5 70 45-3c59-5 58 14-2 29l-46 12 7 261c19 691 22 953 21 1611-1 391-6 718-10 728-10 20-29 22-44 5z"/><path d="m3260 33638c-25-13-60-43-78-68-21-26-42-44-55-45-17 0-25-17-53-125-19-69-34-135-34-148 0-54 63-28 76 32 12 55 64 182 94 230 46 73 128 110 159 72 18-22 0-49-64-97-97-73-84-111 49-155 95-31 156-60 156-74 0-21-58-33-161-34-72-1-111 3-121 12-23 18-44-9-28-37 19-36 50-45 145-44 108 1 189 25 218 65 18 24 18 30 7 58-16 39-70 71-179 106l-84 27 53 46c60 51 85 98 71 133-24 63-98 83-171 46z"/><path d="m866 33589c-39-34-137-224-155-301-43-183 55-233 216-110l33 24-5-43c-7-52 9-87 47-109 22-12 30-12 40-2s9 18-6 43c-32 54 1 167 94 324 62 104 70 134 46 154-35 29-91-46-159-209-30-74-197-204-240-187-45 17 11 194 113 357 22 36 40 71 40 78 0 21-28 13-64-19z"/><path d="m2062 33612c-41-3-64-23-47-40 3-4 52-9 108-12 61-3 102-9 104-16 2-6-26-35-62-63-95-75-90-99 32-160 34-17 64-35 68-41 12-19-62-40-144-40-84 0-102-11-77-45 11-15 25-17 97-13 88 5 160 31 173 63 21 55-6 89-99 131l-60 26 35 27c72 54 102 89 98 117-6 54-82 76-226 66z"/><path d="m2584 33583c-65-28-102-62-128-117-48-101-43-185 17-253 44-50 104-74 186-76s121 18 121 61c0 71-150 130-251 99-24-8-27-6-33 24-13 69 32 158 99 193 32 17 59 21 140 22 81 0 101 3 103 15 8 41-178 64-254 32zm116-366 35-22-44-3c-43-3-125 20-136 39-4 5 19 9 52 9 43 0 67-6 93-23z"/><path d="m1375 33356c-28-21-12-44 37-51 56-8 328 11 342 25 17 17-1 23-91 31-145 13-267 11-288-5z"/><path d="m1645 33255c-5-2-72-11-148-19-76-9-143-18-148-22-18-11-8-35 19-45 51-19 352 47 352 78 0 12-49 17-75 8z"/><path d="m7320 33017c-41-21-117-200-127-303-5-43-2-55 16-73 41-41 102-19 211 78 25 22 46 38 48 37 1-2-2-15-8-30-23-62 0-126 44-126 22 0 24 4 22 53 0 42 8 69 42 143 46 97 52 146 19 152-13 3-43-23-95-79-78-84-183-169-208-169-8 0-14 7-14 16 0 23 49 162 76 216 38 75 27 111-26 85z"/><path d="m7713 32786c-16-14-41-46-54-71-23-44-23-47-6-59 16-12 16-17 2-56-19-55-19-89 1-97 24-9 36 11 89 145 38 96 47 127 39 140-17 26-38 25-71-2z"/><path d="m4009 32678c0-1-1-91-3-198-1-159-6-214-24-299-41-187-103-336-171-413-46-52-49-58-23-58 36 0 150 140 191 235 21 48 60 174 79 250 12 51 17 116 17 240 0 152-2 174-20 204-17 29-43 51-46 39z"/><path d="m2971 32565c-17-20-56-86-86-148-142-293-171-519-66-516 24 0 25 1 5 9-12 4-24 16-28 25-16 42 35 226 106 385 61 135 90 194 112 227 42 61 8 75-43 18z"/><path d="m1105 32560c-97-31-205-135-205-197 0-28 26-31 35-4 11 36 113 119 173 141 61 23 129 23 157 0 19-16 19-63 1-99-34-64-160-146-256-166-19-4-45-13-57-21-31-19-29-6 9 71 26 53 30 67 19 77-17 18-51-25-101-127-65-135-100-263-74-272 10-3 31 39 84 167 26 62 40 82 40 58 0-23 129-141 184-167 56-28 146-37 204-22 68 19 52 35-57 54-102 19-161 47-209 99l-22 25 70 27c137 54 230 148 238 239 3 43 0 57-19 81-45 57-112 68-214 36z"/><path d="m3272 32547c-65-34-116-89-157-174-40-84-45-92-75-138-30-44-50-121-50-187 0-50 4-62 29-90 27-30 34-33 88-33 184 0 366 228 368 460 0 66-4 86-22 115-41 66-109 84-181 47zm108-57c38-21 50-106 26-195-33-125-97-214-200-279-30-19-30-19-57 13-33 40-39 69-29 140 12 83 20 110 51 172 62 124 145 183 209 149zm-258-464 42-36h-45c-25 0-50 5-57 12-13 13-16 76-5 104 6 15 8 13 15-13 5-18 26-47 50-67z"/><path d="m9835 32516c-141-28-235-76-235-122 0-28 24-42 44-25 13 11 121 51 138 51 5 0 7-9 3-20-7-22 22-346 36-401 5-19 20-46 33-58 24-23 24-23 35-3 14 26 14 74 0 204-23 226-29 263-46 275-13 10-13 13-2 17 32 11 173 36 200 36 31 0 49 24 32 41-16 16-164 19-238 5z"/><path d="m11750 32514c-59-21-103-55-140-108-74-109-82-335-10-296 10 5 20 15 22 22 3 9 13 8 39-3 24-10 68-14 149-12 126 1 173 13 168 41-3 15-20 18-139 23-187 8-194 14-91 82 38 25 88 67 110 93 35 39 42 54 42 90 0 34-5 47-26 63-31 25-62 26-124 5zm90-67c0-12-13-37-29-54-38-42-139-106-153-97-6 4-17-1-25-11-16-22-17-7-2 32 21 56 61 102 112 128 65 32 97 33 97 2z"/><path d="m11193 32450c-24-14-33-27-33-46 0-29 4-29 95-5 44 11 78 6 72-12-2-7-23-25-46-41-48-32-53-66-11-78 14-4 45-13 70-20 69-20 64-41-17-72-38-14-74-26-81-26-6 0-12-6-12-14 0-15 30-26 70-26 36 0 126 45 139 69 27 49 0 99-67 122l-32 11 25 30c32 37 32 72 0 103-20 21-34 25-82 25-40 0-68-6-90-20z"/><path d="m2459 32319c-29-22-87-59-126-81-40-22-73-46-73-54 0-21 54-18 100 6 22 11 40 18 40 15s-16-37-36-76c-25-51-34-81-32-107 5-63 29-50 73 41 23 45 63 123 90 174 45 83 49 94 34 108-14 14-20 11-70-26z"/><path d="m8618 32288c-13-11-17-56-22-308-3-162-9-437-12-610-8-345-3-416 27-449 44-47 98-10 63 44-16 24-17 58-9 453 13 661 13 846-4 865-16 20-22 21-43 5z"/><path d="m8053 32238c-42-47-77-143-94-263-18-132 17-215 91-215 47 0 91 30 146 96l41 51-1-86c-1-90 15-151 40-151 9 0 14 12 14 35 0 20 14 111 31 203 35 186 36 199 15 220-22 22-42 8-72-50-59-116-170-248-209-248-55 0-10 284 60 375 14 19 23 40 20 45-11 18-61 11-82-12z"/><path d="m1593 32234c-18-49 104-75 260-55 115 15 167 28 167 44 0 9-35 12-128 14-70 1-164 4-209 8-73 6-84 5-90-11z"/><path d="m3840 32139c-44-41-76-61-115-73-19-5-20-2-17 32 4 41-14 67-39 56-8-3-27-24-44-46-34-46-117-108-146-108-15 0-19 7-19 34 0 41-23 65-45 46-20-16-19-89 1-118 11-16 25-22 55-22 45 0 67 9 122 53 35 27 39 28 56 13 32-29 97-18 165 28l29 20-6-30c-3-17-2-36 2-43 18-28 43-5 74 68 28 68 30 75 16 100-21 37-38 36-89-10z"/><path d="m1740 32123c-55-6-90-23-90-44 0-23 25-23 223-5 121 10 156 23 103 37-33 9-194 18-236 12z"/><path d="m10192 32018c-18-18-14-46 7-58 11-5 44-10 73-10 74 0 87-10 59-45-30-40-28-81 7-99 27-14 27-14-26-22-57-7-70-20-53-52 14-26 43-30 122-17 88 14 121 36 117 78-3 30-25 49-83 71-6 2-5 9 3 17 6 7 12 29 12 49 0 40-26 75-67 91-35 13-157 11-171-3z"/><path d="m10057 31923c-9-10-54-24-99-33-69-14-85-15-93-4s-18 9-50-9c-44-25-52-43-32-71 17-24 75-23 180 0 80 19 127 55 127 98 0 32-12 39-33 19z"/><path d="m2318 30850c-119-19-175-77-133-137 19-28 43-20 47 15 5 43 46 57 168 57 130 0 183-20 188-71 3-35 1-38-147-178-113-107-148-189-101-236 38-38 84-19 60 25-18 34 9 77 115 180 113 110 145 155 145 206 0 101-161 166-342 139z"/><path d="m11830 30791c-80-25-121-66-165-165-48-108-93-347-69-367 17-14 41 23 50 80l7 43 16-26c19-32 53-46 133-56 61-7 200 4 222 18 11 6-44 20-194 48-47 8-86 17-88 19-8 8 11 27 66 67 80 58 120 96 153 147 51 78 35 157-37 187-36 15-56 16-94 5zm93-82c27-43-39-127-167-217l-76-52v30c0 37 42 151 71 192 32 45 77 69 123 66 22-2 43-10 49-19z"/><path d="m5918 30775c-16-9-33-32-43-59-20-52-17-92 20-276 67-333 57-656-26-838-16-36-29-73-29-82 0-10 16-30 35-44 112-86 132-304 68-747-42-290-47-417-21-466 42-75 132-110 198-76 38 20 48 50 15 45-11-2-34-6-51-9-25-4-38 2-67 27-65 57-67 94-22 405 38 256 46 342 46 470 0 182-29 294-96 372l-35 41 19 44c50 117 71 245 71 435 0 137-17 307-46 453-38 192-38 232-2 251 26 14 35 3 20-21-32-52 4-82 45-37 38 41 37 94-1 119-18 12-69 8-98-7z"/><path d="m8399 30720c-110-58-206-228-228-408-12-92-4-136 26-140 29-4 44 19 59 95 8 37 16 69 18 71 3 2 24-7 48-21 70-40 140-58 210-55l63 3-40 18c-22 10-49 22-60 27s-50 22-87 39c-38 16-68 34-68 40 0 5 21 24 48 42 127 86 172 142 172 214 0 27-8 44-29 66-35 35-78 38-132 9zm99-77c3-26-5-41-38-77-22-24-68-60-100-80l-60-35 6 42c8 50 17 70 55 118 32 40 83 70 114 66 15-1 21-11 23-34z"/><path d="m10361 30730c-59-13-127-47-150-76-10-13-24-24-30-24-19 0-39-53-81-214-43-165-43-186 1-186 25 0 35 22 75 163 45 157 77 215 137 245 49 26 137 35 144 15 6-18-61-79-151-137-88-57-116-86-116-122 0-51 103-99 278-129 81-14 102-13 102 4 0 9-161 78-248 106-30 9-51 22-49 28 2 7 41 38 87 70 101 69 134 99 155 143 39 83-35 138-154 114z"/><path d="m970 30690c-53-75-120-268-120-347 0-55 27-87 71-87 46 0 92 24 169 86 35 28 61 45 58 37-16-41-29-135-23-166 7-37 36-73 59-73s76 50 76 71c0 24-27 25-52 2-17-15-18-14-18 30 0 78 54 228 131 364 18 32 21 45 12 54-22 22-53-2-94-76-60-110-240-265-307-265-24 0-25 2-19 53 8 62 42 165 87 259 17 37 29 72 25 78-11 18-33 11-55-20z"/><path d="m5494 30705c-8-19 3-35 25-35 25 0 102-51 134-90 78-93 105-213 72-325-35-121-160-273-259-316-31-13-56-28-56-33 0-16 92 4 142 31 27 15 78 57 112 94 179 189 190 430 29 594-72 73-185 118-199 80z"/><path d="m9585 30683c-9-21-34-80-57-130-45-104-45-137 0-155 20-8 46-7 106 5 44 9 81 15 83 13 2-1-4-24-13-50-14-40-14-55-5-87 13-43 41-54 41-16 0 21 29 103 60 170 7 15 19 27 25 27 7 0 32 18 56 41 45 41 43 42-23 22l-22-6 22 37c24 40 22 56-7 56-21 0-52-32-75-77-11-21-26-35-44-38-15-4-46-10-69-16-43-9-93-12-93-5 0 2 18 50 41 105 44 110 46 134 12 139-17 3-26-5-38-35z"/><path d="m6492 30679c-114-57-219-264-224-444-2-76 33-111 65-65 15 22-7 24 261-30 27-6 51-8 54-5 20 19-90 76-201 104-44 11-82 23-85 26-4 4 3 14 14 23 12 10 57 44 100 77 88 69 145 135 169 199 42 109-40 170-153 115zm96-67c4-28-18-69-65-117-42-44-126-115-137-115-14 0-5 63 15 103 34 67 76 113 122 136 48 24 61 23 65-7z"/><path d="m11020 30675c-9-11-10-39-5-104l7-89-95-4c-106-3-141-18-112-47 12-13 37-16 115-16l98 1 6-29c3-16 6-45 6-64 0-27 4-34 18-31s18 16 20 66c3 55 5 62 25 66 195 35 222 42 222 56 0 13-18 14-121 11l-121-3-6 87c-7 104-26 137-57 100z"/><path d="m8935 30619c-14-14-21-42-25-97l-5-77-80-2c-98-3-107-7-103-35 3-22 8-23 105-26l101-3 19-60c10-33 23-59 28-57 6 2 9 28 7 59l-3 55 107 23c187 39 193 62 15 54l-120-6-3 34c-2 19 0 57 3 84 9 70-11 94-46 54z"/><path d="m5413 30493c-44-29-78-76-67-94 3-6 19-9 35-5 16 3 29 4 29 2s-16-38-36-80c-30-62-36-84-31-118 8-60 23-69 42-24 9 21 43 94 76 162 32 68 59 130 59 138 0 17-32 46-51 46-8 0-33-12-56-27z"/><path d="m12477 30463c-16-15-5-34 28-47 43-18 44-31 4-72-45-47-36-73 42-116 33-18 61-37 62-43 1-5-22-17-51-25-62-18-65-35-11-64 36-19 36-19 81 3 95 45 83 122-28 186l-30 17 19 39c17 34 18 44 7 70-7 16-22 36-34 44-21 15-77 20-89 8z"/><path d="m7281 30412c-40-28 34-56 124-47 22 2 79 7 127 10 162 12 111 32-107 41-77 3-136 1-144-4z"/><path d="m12145 30396c-31-22-12-44 42-48 42-3 48-6 51-26 2-15-9-40-32-69-40-51-44-73-19-98 13-13 27-16 62-11 59 8 154 52 148 68-2 7-11 11-18 10-8-2-38-6-67-9l-54-6 21 34c12 20 21 51 21 76 0 34-5 46-31 67-34 29-93 35-124 12z"/><path d="m1684 30341c-2-2-4-12-4-21 0-54 190-53 358 1 17 6 32 14 32 17 0 7-379 10-386 3z"/><path d="m7465 30310c-118-10-145-17-145-41 0-11 6-22 14-25 13-5 315 42 324 50 2 3 1 9-3 15-7 12-50 12-190 1z"/><path d="m1414 30266c-29-19-55-39-58-44-9-15 22-42 39-36 19 8 18-4 0-36-23-40-19-87 10-116 31-31 43-28 73 16 26 38 21 52-8 25-20-18-20-17-20 9 0 14 16 58 36 97 19 39 34 81 32 92-5 34-46 31-104-7z"/><path d="m2383 30174c-11-30 11-49 58-49 56 0 57 18 4 45-48 24-54 25-62 4z"/><path d="m6820 30153c-62-22-100-126-66-178 44-66 189-49 236 28 35 57 23 115-30 142-28 14-109 19-140 8zm104-53c40-15 36-64-6-90-64-39-133-19-126 35 2 23 12 34 38 47 40 20 58 22 94 8z"/><path d="m18295 29867c-22-22-40-56-54-102-12-37-35-96-51-129-16-34-37-101-46-149-16-82-16-89-1-104 13-13 23-15 44-7 36 12 52 57 93 250 35 168 50 198 102 202 29 3 40-2 62-28 45-55 36-75-87-191-84-79-91-89-91-124 0-49 35-78 129-107 87-27 240-32 240-8 0 8-11 18-25 22s-61 16-105 28c-96 26-165 55-165 69 0 6 8 19 19 29 99 92 145 142 158 167 51 97-27 215-140 215-42 0-54-5-82-33z"/><path d="m14218 29873c-67-22-128-90-157-173-16-46-24-98-28-177-5-100-4-113 11-119 30-12 40 13 46 119 12 179 58 271 150 298 48 14 90 0 90-29s-51-92-119-147c-144-116-129-195 37-195 71 0 165 25 160 42-2 5-48 10-103 12-55 1-109 7-119 13-18 10-12 18 68 94 102 98 126 133 126 183 0 42-36 86-69 86-11 0-25 2-33 4-7 3-34-2-60-11z"/><path d="m12870 29851c-73-22-140-82-180-160-49-97-67-253-32-284 26-24 51-21 62 8 9 24 10 24 44 10 24-10 68-15 133-14 111 1 148 8 148 29 0 12-23 17-100 23-109 9-175 23-175 37 0 5 38 41 84 79 132 110 171 169 151 230-12 40-76 60-135 42zm76-66c10-25-34-82-112-146-42-34-77-60-78-58-2 2-6 22-8 45-5 35-1 47 29 88 49 67 154 111 169 71z"/><path d="m20225 29844c-75-9-134-27-150-45-10-10-15-22-12-25 7-7 255 12 342 27 83 14 95 18 95 35 0 11-22 14-122 13-68-1-136-4-153-5z"/><path d="m16926 29820c-48-15-93-52-130-109-70-106-100-276-56-316 18-16 23-17 45-5 14 7 27 21 31 32 6 20 19 24 29 8 8-13 177-13 235 1 107 24 121 30 118 47-3 15-19 17-148 14l-145-3 68 62c96 87 124 150 95 213-21 47-86 73-142 56zm80-85c15-23 15-27-3-57-20-34-121-123-130-114-3 3 7 26 21 51 39 66 17 89-36 38-37-35-36-17 3 36 48 68 117 89 145 46z"/><path d="m2610 29801c-46-15-89-41-104-63-18-25-21-93-6-103 15-9 40 13 40 34 0 50 105 87 198 69 58-10 120-50 128-83 12-46-6-73-109-169-113-105-163-178-173-248-8-59 10-118 37-118 15 0 19 7 19 35 0 70 43 140 164 264 121 125 145 168 131 231-11 52-59 105-115 129s-168 36-210 22z"/><path d="m16325 29770c-33-36-14-49 62-44 79 6 101-3 83-33-7-11-26-28-42-39-58-38-61-83-5-104 102-37 122-47 122-60 0-18-76-56-127-63-29-4-38-2-38 9 0 17-31 19-48 2-19-19-14-46 13-64 56-36 228 14 260 76 8 16 15 36 15 44 0 28-52 76-100 93l-49 17 35 38c74 82 30 148-99 148-51 0-68-4-82-20z"/><path d="m19971 29708c-36-70-38-111-6-117 11-2 61 5 111 14 98 20 124 17 124-14 0-39-142-128-239-150-51-11-66-23-57-47 15-40 216 26 296 98 63 57 80 127 39 164-23 21-110 26-183 11-35-8-38-7-31 10 15 33 11 87-6 91-11 2-26-17-48-60z"/><path d="m17743 29750c-39-16-29-40 16-40 51 0 91-31 91-71 0-23-15-45-70-101-38-40-70-79-70-88 0-33 30-59 75-65 83-13 285 46 330 95 21 23 4 35-27 19-59-32-298-66-298-42 0 5 14 22 31 39 48 44 89 114 89 150 0 39-33 82-76 100-38 16-59 17-91 4z"/><path d="m8520 29714c-6-14-10-117-10-230v-204h-32c-79 0-139-36-118-70 7-12 30-12 142-2 182 17 467 64 442 73-10 4-105 8-210 8l-191 1 14 68c19 98 29 332 14 360-16 29-39 28-51-4z"/><path d="m13680 29704c-6-14-10-42-10-63v-38l-72-6c-53-5-77-11-92-27-18-17-19-22-6-34 12-11 25-13 60-6 25 5 61 9 81 10h37l7-72c8-82 19-74 30 20 5 46 12 65 24 69 51 17 131 57 131 65 0 5-16 6-37 1-21-4-54-8-73-8-33 0-35 2-38 35-6 82-23 104-42 54z"/><path d="m17434 29719c-3-6-9-34-13-63l-6-51-78-6c-85-6-124-28-111-63 6-15 16-17 83-11 42 4 85 9 95 12 18 5 19 1 13-57-4-48-2-63 9-67 21-8 24-3 36 70l11 65 53 7c93 11 89 55-5 55-40 0-41 1-41 34 0 62-27 106-46 75z"/><path d="m6481 29687c-14-17-31-133-31-215 0-54 4-67 25-87 13-14 28-25 33-25s9 42 11 93c1 50 6 123 12 160 5 38 7 73 3 78-8 13-40 11-53-4z"/><path d="m10333 29634c-61-64-86-106-81-136 5-38 22-29 67 32 24 33 46 58 48 56 3-2-5-52-17-111-24-115-20-190 10-190 20 0 91 282 87 350-2 47-4 50-31 53-24 3-38-6-83-54z"/><path d="m1007 29673c-4-3-7-14-7-23 0-13-19-18-105-27-108-11-138-23-128-50 5-13 22-14 115-8 109 7 109 7 103-17-11-48-37-255-51-398-3-36-9-68-12-72-4-3-33-9-65-12-68-7-77-11-77-36 0-29 31-40 108-40 109 0 220 25 262 58 39 33 55 70 24 57-21-8-187-34-192-30-2 2 1 12 6 22 6 11 15 57 20 103 37 315 45 375 47 378 2 2 54 8 117 13 62 6 117 14 122 19 22 22-10 30-124 30-110 0-119 1-125 20-6 20-25 26-38 13z"/><path d="m14507 29614c-12-12 6-34 28-34 53 0 43-43-21-91-53-39-68-62-59-89 10-30 67-43 181-38 160 6 166 39 10 52-44 4-84 9-88 12-5 3 10 26 32 51 46 53 52 91 18 123-21 19-86 28-101 14z"/><path d="m13190 29552c-32-26-18-42 37-42 39 0 44-2 38-17-5-10-10-33-13-51-4-29-1-33 32-47 19-8 46-15 58-15 19 0 20-2 8-10-8-5-28-10-45-10-39 0-59-14-52-34 10-26 106-22 148 7 19 12 35 30 37 39 5 26-33 57-79 64-36 6-40 9-34 28 17 54 16 65-4 85-27 27-99 29-131 3z"/><path d="m9724 29445c-6-15 2-94 12-120 4-9-16-14-73-17-90-6-133-22-133-51 0-19 5-20 113-15l113 5 24-75c28-84 57-113 47-46-3 22-9 60-12 85l-7 47 78 13c94 17 112 39 31 39-69 0-118 10-122 24-2 6-9 37-15 69-9 46-15 57-31 57-11 0-22-7-25-15z"/><path d="m19117 29410c-21-4-46-14-55-24-15-15-15-17 1-33 15-15 25-16 104-5 163 24 253 44 253 59 0 10-28 13-132 12-73-1-150-5-171-9z"/><path d="m7580 29366c-23-9-35-19-35-32 0-18 7-19 115-16 116 3 331 21 339 28 31 29-344 47-419 20z"/><path d="m11678 29371c-94-7-120-20-102-49 15-23 90-27 231-12 123 13 156 27 134 54-14 17-87 19-263 7z"/><path d="m15460 29361c-64-9-100-26-100-46 0-38 44-39 367-9 83 8 112 27 67 44-35 14-263 21-334 11z"/><path d="m18375 29323c-38-2-284-19-545-38s-601-42-755-50c-271-14-466-30-512-42-26-6-30-28-8-37 9-3 34-4 58-1 23 2 134 6 247 10 113 3 228 7 255 10 28 2 104 7 170 10s208 12 315 20c820 60 1089 72 1148 51 17-6 22-5 22 7 0 8-23 27-52 41-54 27-104 30-343 19z"/><path d="m20435 29323c-253-15-384-26-514-42-156-20-224-37-218-56 6-17 82-17 287-1 107 9 290 23 405 32 252 18 426 38 405 46-30 13-278 27-365 21z"/><path d="m2070 29289c-140-9-180-19-180-43 0-29 28-39 97-31 143 14 336 44 346 54 20 20-6 31-66 30-34-1-123-6-197-10z"/><path d="m14850 29293c-36-2-157-10-270-18-152-10-356-13-795-10-700 5-983-8-1022-48-10-9 169-12 880-11 765 1 913 3 1042 17 168 19 245 33 258 46 11 11 0 32-16 29-7-1-41-3-77-5z"/><path d="m10421 29264c-170-25-255-58-249-98 4-27 17-26 178 6 69 14 193 35 275 48 155 23 179 29 176 45-2 16-275 15-380-1z"/><path d="m19087 29264c-10-3-17-13-15-22 3-15 23-17 156-20 131-2 153 0 158 13 4 9 4 19 0 22-8 8-274 14-299 7z"/><path d="m6420 29235c-58-8-114-14-126-14-11-1-29-7-40-15-18-14-18-16-2-33 17-16 27-16 240 5 123 12 241 22 263 22 48 0 70 12 62 34-5 14-27 16-149 15-79-1-190-7-248-14z"/><path d="m7885 29234c-5-2-63-13-129-24-65-10-121-22-124-24-13-14 10-36 39-36 65 0 239 58 239 80 0 10-7 12-25 4z"/><path d="m11613 29230c-29-12-30-37-1-45 79-26 393 13 373 45-8 13-341 12-372 0z"/><path d="m15512 29190c-73-11-112-29-112-51 0-10 4-20 8-23 4-2 80 6 167 19 88 14 175 25 193 25 17 0 32 4 32 9 0 19-205 34-288 21z"/><path d="m10535 29119c-22-11-55-37-72-57-18-20-44-49-58-63-57-57-62-359-7-359 28 0 42 21 42 62 0 38 1 38 23 24 26-17 120-41 195-50 108-13 36 49-103 89l-60 17 36 31c20 18 67 59 104 91 102 90 127 144 87 192-39 49-119 59-187 23zm133-51c29-29-1-67-130-169l-91-72 5 61c8 79 41 139 93 169 44 25 104 30 123 11z"/><path d="m8645 29104c-16-9-42-23-57-31-33-17-44-51-58-175-15-148-13-212 8-239 21-25 51-21 59 9 4 16 10 17 61 9 62-10 171 9 162 28-2 6-49 18-104 27-54 9-103 21-108 26-16 16 7 46 90 116 108 90 152 140 152 174 0 33-8 45-37 61-32 17-133 14-168-5zm151-47c12-12-18-47-100-114l-91-76-3 39c-7 81 27 139 90 155 31 7 95 5 104-4z"/><path d="m14173 29079c-45-9-82-35-95-67-12-30-19-414-8-432 13-21 45-6 60 28 12 25 19 31 35 26 36-12 169-16 205-7 62 16 44 37-38 45-77 8-137 22-161 37-22 14 1 56 71 131 95 102 114 142 88 190-20 38-97 62-157 49zm97-67c28-23 26-27-67-127l-73-77v40c0 21-3 60-6 85-6 40-3 49 19 71 32 32 93 35 127 8z"/><path d="m6482 29063c-76-37-104-110-122-311-10-127-9-142 15-142 26 0 28 9 64 283 9 70 35 108 87 125 43 15 107 11 129-8 20-17 18-50-3-78-10-13-56-49-102-80-97-66-115-97-83-141 47-62 140-85 236-57 39 11 57 22 57 33 0 12-7 14-34 10-47-8-166 19-189 41-18 19-17 20 45 65 153 109 187 195 99 254-42 29-147 32-199 6z"/><path d="m13435 29061c-48-22-97-74-123-135-48-107-69-290-35-303 10-4 21 0 26 9 9 13 13 13 41-1 24-12 61-16 156-16 110 0 125 2 128 17 4 20 0 21-138 38-52 7-101 15-109 20-9 5 7 25 59 71 137 122 183 227 125 284-13 14-30 25-37 26-7 0-22 2-33 4s-38-4-60-14zm86-41c10-6 19-21 19-34 0-29-49-103-97-146-21-18-57-51-81-74l-44-41 7 60c10 83 39 155 77 194 47 48 82 60 119 41z"/><path d="m20376 29055c-57-20-102-70-147-160-48-99-72-187-59-220 11-30 35-32 52-6 12 19 13 19 40-4 48-40 270-98 314-81 32 12 8 27-98 61-140 43-188 64-188 81 0 7 45 36 99 64 121 62 171 111 171 168 0 47-22 80-66 98-41 17-68 17-118-1zm106-62c24-22 23-55-4-80-19-17-218-125-218-118 0 19 47 127 66 153 44 56 119 79 156 45z"/><path d="m1317 29051c-43-9-73-33-63-50 4-7 38-10 89-8 162 4 189-38 87-133-59-55-70-79-50-110 14-22 83-17 168 13 84 29 172 83 172 104 0 18-12 16-118-22-95-34-111-31-78 14 72 97 20 184-117 195-28 3-69 1-90-3z"/><path d="m18355 29031c-22-10-55-34-72-54-18-21-39-37-48-37-8 0-15-3-16-7 0-5-2-60-5-123-4-92-2-119 10-135 21-29 50-9 54 37l3 35 29-27c40-37 163-82 224-81 26 0 51 3 54 6 10 10-38 43-88 61-25 9-69 27-99 41l-54 23 76 70c83 77 106 120 86 163-22 48-85 60-154 28zm105-54c0-23-32-58-94-104-33-25-67-55-74-66-12-20-13-18-9 20 7 59 36 114 76 140 37 25 101 31 101 10z"/><path d="m19857 29040c-31-9-91-52-120-85-28-31-66-115-73-161-9-61 23-127 73-153 118-60 223-19 223 86 0 38-5 50-34 79-28 28-42 34-75 34-47 0-95-21-110-47-10-16-10-17-11-1-1 52 59 142 113 169 51 26 89 22 97-11 13-54 59-22 51 35-6 48-73 75-134 55zm27-276c23-23 20-71-5-85-24-13-83-4-113 17-20 14-20 14 0 14 27 0 36 10 23 26-7 9-4 17 13 28 29 20 62 20 82 0z"/><path d="m17149 28986c-100-35-139-101-164-274-18-128-15-152 20-152 30 0 45 26 45 78 0 67 30 204 52 234 11 16 32 35 48 43 39 20 124 20 145-1 25-25 3-50-113-126-110-73-127-98-99-142 11-16 33-28 68-36 59-14 179-9 224 10l30 13-35 8c-19 5-75 15-124 23-48 8-90 16-91 18-2 2 32 27 75 56 102 68 140 111 140 158 0 82-115 128-221 90z"/><path d="m17810 28908c-27-10-35-18-35-38 0-25 0-25 85-21l85 3-47-44c-27-24-48-51-48-60 0-18 24-39 65-58l30-13-45-9c-25-5-56-12-69-16-27-8-49-37-37-49 11-11 146-7 179 6 59 23 58 94-2 129l-29 16 34 38c40 45 42 58 11 93-18 22-33 27-82 31-34 2-75-1-95-8z"/><path d="m2660 28901c-40-5-45-9-48-33-3-22 2-29 22-34 32-8 91 25 91 51 0 22-7 24-65 16z"/><path d="m16704 28896c-71-22-104-47-104-78 0-34 12-35 70-7 49 24 160 38 160 21 0-13-43-57-143-145-77-69-92-98-65-125 18-18 87-13 148 11 64 26 182 88 177 94-4 3-161-22-202-33-11-3 9 22 46 58 113 107 134 157 83 197-31 24-104 27-170 7z"/><path d="m7027 28813c-16-15-5-34 27-47 43-18 48-27 34-64-17-43 7-68 75-77 45-7 49-9 33-20-28-21-119-40-124-26-2 6-10 11-18 11-19 0-18-54 1-70 40-33 205 18 234 73 22 41-4 72-73 88-52 11-54 13-54 46 0 18-6 40-13 49-28 34-103 57-122 37z"/><path d="m8884 28805c-9-22 2-32 51-44 25-6 45-15 45-20s-16-28-35-51c-40-48-43-69-15-95 18-16 27-17 78-8 102 19 189 70 164 95-8 8-25 7-63-5-28-10-62-17-75-17h-23l20 34c39 66-5 126-93 126-33 0-50-5-54-15z"/><path d="m6791 28767c-14-6-26-18-29-24-5-18 36-31 76-26 41 7 41-5-3-57-37-44-41-60-25-91 21-38 108-15 173 44 47 45 34 59-28 30-43-20-50-15-30 23 20 39 19 56-6 88-16 21-29 26-62 26-23 0-53-6-66-13z"/><path d="m14478 28759c-27-10-42-34-32-50 3-5 28-9 55-9 66 0 72-18 25-70-56-62-52-72 62-151 23-16 42-35 42-43 0-19-53-36-115-36-56 0-79-15-73-46 5-26 63-38 127-25 153 31 178 126 55 211l-51 36 23 34c32 46 32 99 0 129-27 26-80 35-118 20z"/><path d="m4346 28705c-56-113-159-191-300-223-130-30-1077-17-1561 22-50 4-471 17-1155 36-385 10-588 27-802 65-163 29-148 28-148 11 0-37 280-91 590-115 184-15 299-20 560-26 612-14 804-21 1425-55 253-14 903-20 1007-10 151 15 245 52 329 128 76 68 134 206 93 219-6 2-24-21-38-52z"/><path d="m10774 28727-29-25 28-11c16-6 37-11 48-11 24 0 24-21-1-62-11-18-20-41-20-50 0-22 37-48 70-48 24-1 24-1 5-12-11-6-49-22-85-34-69-25-89-49-46-60 29-7 115 10 154 30 71 37 83 99 24 126-25 12-31 19-26 35 18 57 16 90-8 112-38 36-79 39-114 10z"/><path d="m13703 28698c-13-6-23-19-23-30 0-15 8-18 50-18 28 0 50-3 50-6s-9-17-20-31c-20-26-25-49-14-77 10-25 77-20 148 13 75 34 97 57 45 48-94-17-119-19-119-9 0 6 5 14 10 17 17 11 11 64-10 85-22 22-80 26-117 8z"/><path d="m17563 28693c-18-6-16-38 2-53 20-16 45-6 45 19 0 22-27 41-47 34z"/><path d="m12465 27991c-22-10-58-38-80-62-21-24-46-44-55-44s-18-13-22-35c-4-19-17-81-29-138-23-113-18-152 20-152 27 0 28 2 46 115 16 100 47 179 88 224 39 42 112 63 147 41 13-8 12-14-5-46-14-27-47-56-117-101-88-57-98-66-98-94 0-25 6-32 37-45 88-37 443-73 443-46 0 11-175 57-295 77-49 9-96 18-104 21-7 2 19 25 62 53 140 91 181 184 103 232-39 24-89 24-141 0z"/><path d="m9597 27965c-75-77-179-341-157-399 14-37 48-35 61 4 13 35 11 35 52 13 26-15 58-18 178-18 109 0 150 3 162 14 9 7 15 17 12 21-2 4-55 10-117 14-122 7-204 21-228 37-13 8-10 13 15 32 63 47 138 124 151 154 52 122-43 216-129 128zm93-64c0-37-42-94-94-131-25-16-47-30-50-30-20 0 75 184 102 199 23 13 42-5 42-38z"/><path d="m9093 27953c-59-20-141-97-169-158-71-150 32-291 221-303 61-4 74-1 98 18 49 39 27 101-46 129-48 18-128 13-166-10l-35-21-18 24c-54 71 15 217 124 262 63 27 138 16 138-19 0-17 36-20 45-4 13 20-6 60-38 79-38 23-94 25-154 3zm87-366c51-17 46-41-9-45-45-3-131 22-131 38 0 19 91 24 140 7z"/><path d="m11970 27940c-23-43-70-430-52-430 6 0 22 35 36 78 51 153 78 330 56 357-17 20-27 19-40-5z"/><path d="m11390 27921c-15-4-25-14-25-26 0-16 12-21 70-31 114-18 131-34 76-73-66-47-41-91 61-106 26-4 55-13 65-20 16-13 15-15-22-31-24-10-71-18-115-19-94-3-120-11-120-36 0-40 77-48 207-19 54 12 108 43 126 71 28 44-26 97-116 113l-38 7 21 26c37 47 20 98-45 131-28 14-115 22-145 13z"/><path d="m7702 27754c-116-58-238-250-244-383-2-53 13-81 43-81 20 0 20 0 44 134 19 105 41 152 101 216 48 52 89 74 126 68 20-3 23-8 22-41-2-46-36-92-115-155-30-24-71-56-91-73-44-35-47-51-14-83 23-24 210-91 270-98 85-9-7 57-147 107-42 15-77 29-77 30 0 2 31 26 70 55 152 113 209 240 133 300-31 24-76 25-121 4z"/><path d="m7097 27705c-124-17-159-36-169-91-3-23-14-58-22-79-37-88-20-106 93-99 76 6 89 4 110-13 19-15 23-25 17-46-17-70-217-149-256-102-7 8-16 12-21 9-16-9-10-43 12-65 46-46 222 1 290 78 60 69 61 122 4 172-38 33-83 45-145 39-38-3-41-2-35 17 4 11 10 38 13 60l7 40 75 13c109 19 311 63 335 72 33 14-199 9-308-5z"/><path d="m8346 27641c-4-5 6-32 20-61 14-28 24-53 22-54-1-1-46-8-98-15-184-24-230-40-216-76 3-9 18-15 39-15 32 0 210 24 270 36 25 5 27 3 27-29 0-48 9-67 31-67 16 0 19 8 19 54v55l58 11c116 22 127 26 127 40 0 12-19 15-99 15h-99l-10 30c-22 65-72 107-91 76z"/><path d="m5240 27604c-142-49-253-220-276-423-7-68 4-93 40-90 12 1 34-3 51-10 16-7 72-19 125-27 75-11 107-11 153-3 31 7 57 15 57 19 0 7-82 26-234 54-43 9-81 17-83 20-9 9 8 26 85 85 143 110 194 168 218 248 18 60 5 107-36 128-35 18-43 18-100-1zm86-68c8-31-24-100-68-147-32-34-200-169-211-169-9 0 25 135 45 173 58 116 216 212 234 143z"/><path d="m10420 27581c-42-12-37-38 9-51 49-13 364-6 369 9 9 27-306 62-378 42z"/><path d="m10645 27459c-168-23-220-39-220-64 0-15 8-21 30-23 41-3 358 80 363 96 5 15-10 15-173-9z"/><path d="m12240 27437c-3-2-93-8-200-11-541-20-591-23-602-34-9-9-8-16 4-29 14-14 41-16 188-15 94 1 258 6 363 12 106 5 311 14 457 20 322 13 348 16 322 42-8 8-90 13-269 16-142 2-260 2-263-1z"/><path d="m5930 27422c-103-3-130-8-130-27 0-29 92-38 242-24 113 10 184 27 180 44-2 10-115 13-292 7z"/><path d="m9350 27404c-187-24-355-56-369-69-21-20-4-35 40-35 93 0 699 97 699 112 0 13-255 7-370-8z"/><path d="m9655 27353c-126-8-219-32-229-60-15-38 87-33 302 16 90 21 97 24 87 40-6 10-47 11-160 4z"/><path d="m6065 27293c-22-1-81-5-132-9-98-6-138-22-115-46 23-23 327 2 410 33 61 23-19 34-163 22z"/><path d="m12171 27245c-166-35-186-43-196-75-3-10-20-33-38-52-42-45-72-101-64-122 8-20 42-21 95-2 125 45 212 24 150-34-80-75-258-105-241-41 6 24-15 29-35 9-24-24-14-67 21-89 95-60 337 51 337 154 0 71-64 96-192 74l-47-8 17 39c14 34 23 41 52 45 19 3 123 24 230 46 107 23 207 41 222 41 34 0 46 19 23 37-32 23-157 15-334-22z"/><path d="m5514 27186c-36-16-74-61-74-88 0-36 59-125 94-142 43-20 105-21 134 0 45 31 64 101 43 157-25 64-131 103-197 73zm106-61c34-17 47-55 34-94-19-55-134-28-134 31 0 10-7 21-15 24-23 9-18 20 18 38 40 20 60 20 97 1z"/><path d="m9331 27167c-19-24-61-127-61-152 0-34 22-32 103 6 79 36 140 38 145 3 4-31-66-87-134-109-64-20-89-22-124-11-23 8-24 8-10-9 17-21 70-45 99-45 41 0 136 44 177 82 71 65 70 134-3 165-39 16-99 11-146-14-16-8-31-13-33-10-2 2 3 20 11 40s15 43 15 52c0 19-24 20-39 2z"/><path d="m1027 26823c-10-9-9-43 2-43 4 0 47-36 94-81 225-210 300-495 178-680-49-73-125-131-190-145l-56-11 38-8c114-23 241 58 306 195 33 71 40 201 17 305-27 114-95 240-182 334-88 94-185 157-207 134z"/><path d="m3515 26643c-156-14-299-59-293-92 4-20 43-19 176 8 53 11 157 27 230 37 119 16 155 28 120 39-21 6-190 12-233 8z"/><path d="m1634 26619c-11-6-29-25-40-42-27-45-24-176 7-342 19-105 24-163 24-305 0-191-11-252-60-324-33-49-32-63 8-80 43-17 64-67 79-185 9-67 7-164-7-451-17-369-15-474 15-581 14-48 49-100 82-118 36-21 103-5 103 24 0 17-6 20-35 17-44-3-52 3-78 54-39 76-46 158-36 424 5 135 9 346 9 470 0 252-11 314-64 367-29 29-29 29-12 64 65 132 74 356 28 635-33 200-35 273-7 305l21 24-3-55c-3-50-1-55 18-58 17-2 24 5 33 29 18 51 13 87-14 114-26 27-39 29-71 14z"/><path d="m4265 26608c-80-30-152-100-193-189-43-94-81-304-62-340 22-39 54-18 65 43l7 38 40-35c27-22 83-50 167-81 125-47 200-60 208-37 6 18-35 41-180 100-73 30-142 61-154 69-49 32-17 74 105 139 116 62 172 127 172 202 0 62-32 95-96 99-27 2-62-2-79-8zm101-56c32-21 17-78-32-124-29-26-204-131-210-125-4 4 49 168 59 185 5 7 32 26 60 42 50 29 100 38 123 22z"/><path d="m5998 26609c-66-9-101-25-95-42 5-14 158-12 352 6 111 10 130 15 133 30 3 17-8 18-165 16-92-1-194-6-225-10z"/><path d="m6975 26566c-67-30-134-138-173-281-45-162-54-211-47-234 11-37 55-18 55 24 1 20 1 20 18 0 28-33 73-61 132-81 44-15 85-19 207-19 105 0 156 4 164 12 15 15-4 19-109 28-157 12-331 62-345 99-9 22 33 67 122 136 99 75 146 126 161 173 10 32 9 42-7 74-34 71-109 100-178 69zm108-56c14-11 29-29 32-40 9-29-22-86-68-123-110-88-202-154-205-146-7 17 40 165 70 222 54 100 114 131 171 87z"/><path d="m6231 26502c-12-23-35-152-56-317-9-71-18-140-21-152-7-37 13-26 40 20 30 50 43 104 62 257 18 148 18 196-1 204-8 3-19-2-24-12z"/><path d="m3526 26488c-18-29-43-173-52-300l-7-98h-41c-48 0-113-16-121-30-4-6-3-19 0-30 5-17 15-20 68-20 98 0 239 20 278 40 36 19 65 47 57 55-2 3-42 0-88-5s-86-8-88-5c-3 2 10 90 28 195 25 151 29 194 20 206-18 20-37 17-54-8z"/><path d="m1922 26438c-40-66-77-220-65-270 9-35 33-58 63-58 31 0 104 52 149 107 17 21 31 34 31 30s-7-48-16-99c-18-106-13-158 16-158 21 0 22 3 39 121 6 42 27 128 47 192 20 63 34 122 31 131-12 30-36 16-78-46-49-73-182-208-204-208-25 0-18 73 16 172 17 49 28 96 25 104-9 24-33 16-54-18z"/><path d="m815 26399c-63-13-77-25-73-63 3-35 14-37 105-15 29 7 56 9 60 5s-29-42-74-84c-88-83-108-112-98-143 23-71 184-75 317-8 66 33 86 55 42 45-77-17-214-28-249-20l-37 9 80 68c44 37 87 82 96 101 39 82-40 130-169 105z"/><path d="m2713 26320c-30-12-29-28 3-40 40-15 297-13 292 3-10 28-243 58-295 37z"/><path d="m5003 26304c-7-3-13-14-13-24 0-27 64-34 244-26 149 7 181 15 159 37-12 12-368 24-390 13z"/><path d="m2382 26092c-35-60-40-75-36-113 8-66 13-89 23-89 5 0 11 10 14 23 3 12 21 64 41 115 41 105 45 132 18 132-13 0-33-23-60-68z"/><path d="m2735 26154c-11-3-30-7-42-10-27-5-31-39-6-48 18-7 283 11 323 22 14 4 25 14 25 22 0 12-24 15-140 16-77 1-149 0-160-2z"/><path d="m5284 26120c-178-23-201-28-207-44-17-43 67-47 257-10 136 26 175 41 162 62-9 15-51 14-212-8z"/><path d="m4702 26123c-21-8-48-72-71-165-25-102-26-156-6-204 22-53 39-38 46 42 4 38 21 119 39 179 18 61 33 119 34 130 1 20-18 28-42 18z"/><path d="m3769 26024c-30-37-21-186 18-272 17-37 17-37 25 103 10 166-3 217-43 169z"/><path d="m6240 26010c-96-10-185-24-198-29-29-14-25-32 12-49 23-12 46-11 148 2 118 15 174 34 228 76 30 24 44 24-190 0z"/><path d="m7389 25369c-45-45-79-189-79-332 0-95 19-142 66-165 50-24 104-4 172 65l55 54-7-98c-6-96 2-140 22-118 5 6 22 66 37 135 74 332 76 346 49 357-27 10-46-10-65-65-62-183-208-329-250-250-14 25-6 218 11 290 6 26 23 64 36 84 14 20 23 43 20 50-8 21-43 17-67-7z"/><path d="m7015 25366c-159-25-235-46-249-69-33-52-78-178-72-202 7-29 22-31 91-10 28 9 60 13 71 10 46-11 35-94-21-175-32-47-102-96-160-112-50-14-53-17-35-28 49-31 143 4 213 78 57 62 87 127 87 188 0 58-14 82-56 100-31 13-51 12-106-3-16-4-16-1 1 44 11 26 21 55 24 63 3 10 31 19 88 28 104 17 283 58 310 72 56 30-41 38-186 16z"/><path d="m3795 25344c-49-53-105-248-105-365 0-168 109-211 240-93 42 38 42 39 54-37 7-39 28-65 45-55 5 3 9 36 9 74 0 86 17 185 49 290 23 76 24 85 10 99-35 36-71-12-94-123-22-113-54-166-137-225-77-57-110-30-108 86 2 87 32 209 72 288 16 33 30 66 30 74 0 22-40 15-65-13z"/><path d="m1898 25041c-62-9-108-33-108-56 0-18 2-18 88-6 37 5 117 15 177 21 214 21 221 22 200 30-31 12-293 19-357 11z"/><path d="m2010 24956c-8-11-11-71-9-216 4-230 7-220-83-220-60 0-92-18-82-45 20-50 285-15 369 49 45 34 37 48-17 31-24-6-69-15-102-19-53-6-58-5-51 11 26 61 36 388 13 411-16 16-23 15-38-2z"/><path d="m2666 24937c-28-21-14-47 26-48 80-4 199 4 273 17 44 7 83 14 88 14 4 0 7 6 7 13 0 19-368 23-394 4z"/><path d="m5327 24944c-29-9-17-46 18-56 31-9 289-3 358 8 39 7 49 27 20 39-22 8-371 16-396 9z"/><path d="m4270 24780c-69-4-245-7-391-9-264-2-319-7-326-28-10-30 43-38 277-44 129-3 226-6 214-7-31-3-108-56-134-92-29-40-53-117-39-126 6-3 17 2 24 12 19 26 19 10-4-94-11-48-22-111-26-140-6-48-5-54 11-50 12 2 22 19 30 51 7 27 14 50 16 52s53-22 114-52c122-61 189-75 189-39 0 15-29 34-123 80l-123 61 63 37c135 78 188 135 188 204 0 29-58 94-85 94-9 0-14 4-11 9 3 4 81 11 173 15s240 16 328 27c88 10 166 19 173 19 6 0 12 7 12 15 0 14-27 15-212 13-117-1-269-5-338-8zm-116-171c29-42-16-92-152-170-29-16-52-25-52-19 0 36 25 157 34 167 42 45 144 58 170 22z"/><path d="m5620 24750c-30-5-89-9-130-10-114-2-154-11-158-36-4-27 19-34 112-34 65 0 225 31 255 49 16 10 8 42-11 40-7-1-38-5-68-9z"/><path d="m2895 24743c-63-4-217-32-235-43-7-5-10-15-6-25 5-15 15-17 66-12 51 6 246 46 303 63 9 3 17 10 17 15 0 9-35 9-145 2z"/><path d="m7259 24686c-2-3-83-6-179-7-204-2-283-10-363-33-45-13-58-21-55-34s13-17 48-16c418 14 952 41 1030 52 61 9 57 26-10 34-62 7-464 10-471 4z"/><path d="m7532 24557c-46-14-92-59-92-90 0-14-11-73-25-131-32-131-32-231 0-231 16 0 21 11 32 74 6 40 24 119 38 175s25 109 25 118c0 18 36 34 95 43 46 7 95-8 95-28 0-16-48-62-123-117-95-69-105-134-28-186 85-56 316-85 316-40 0 16-14 22-85 36-100 21-193 54-211 76-11 14-8 21 26 50 163 140 174 155 161 209-3 13-20 31-36 40-33 17-137 19-188 2z"/><path d="m7217 24468c-34-19-117-222-117-286 0-40 22-58 44-37 9 9 16 25 16 35 0 25 58 188 81 228 10 18 19 39 19 47 0 18-23 25-43 13z"/><path d="m6728 24451c-41-8-71-28-62-42 3-5 52-8 109-7 135 4 148-7 71-58-84-55-73-79 45-98 21-4 42-13 49-21 9-11 6-17-17-28-41-22-123-32-132-18-12 18-61-4-61-28 0-41 76-49 183-18 114 32 115 141 2 163l-33 6 34 30c28 25 34 37 32 62-5 56-99 80-220 57z"/><path d="m4445 24415c-48-17-85-57-85-91 0-14-9-37-20-51-58-74 9-183 112-183 78 0 227 110 246 181 18 71-22 127-104 148-57 14-100 13-149-4zm184-69c33-30 27-70-17-114-75-75-171-103-213-61-19 19-21 29-15 82 7 66 17 84 61 104s158 13 184-11z"/><path d="m14400 23745c-194-18-350-26-760-40-85-3-299-13-475-21-176-9-471-19-655-23s-343-11-353-16c-25-10-17-38 13-46 53-15 283-9 1275 30 132 6 332 13 445 16 113 4 313 15 445 26 286 23 335 24 336 7 1-7 1-119 0-248-1-153 3-289 13-390 19-181 20-300 5-353-7-27-7-42 0-51 8-10 6-17-7-28-21-19-57-30-182-57-94-20-142-25-315-36-49-3-117-8-150-10-84-7-677-38-950-50-512-23-819-44-864-61-11-3-12-7-3-16 15-15 196-17 497-7 293 10 918 38 1010 44 39 3 187 12 330 20 291 18 421 30 460 45 15 6 38 10 53 10 82 0 152 46 152 100 0 19 5 30 14 30 43 0 53 172 27 465-8 92-13 255-12 382 2 233-4 271-44 287-24 9-149 5-305-9z"/><path d="m2765 23683c-202-16-898-87-925-94-51-12-87-72-96-157-14-137 9-413 60-707 13-77 27-183 31-234 8-99 30-179 66-237l21-34h-52c-55 0-90-13-90-34 0-27 51-36 213-36 156 0 242 6 742 49 127 11 317 23 423 26 107 3 198 8 203 11 17 10 9 43-13 55-33 18-354 5-744-30-181-17-400-33-486-37-154-6-158-6-158 14 0 11-11 53-25 94-17 48-29 113-35 188-6 63-12 122-15 130-8 29-54 307-64 395-16 128-14 443 2 475 12 24 16 25 158 32 80 4 290 21 465 38 430 42 615 48 816 25 87-9 169-14 183-11 32 8 54 51 36 69-8 8-16 9-29 0-14-8-52-7-148 3-114 12-429 16-539 7z"/><path d="m9190 23519c-69-5-148-14-177-19-60-13-108-52-119-96-4-16-14-38-24-49-50-58-28-79 81-76 50 2 86-2 95-10 44-36-18-134-103-163-58-20-77-20-93-1-18 22-30 18-30-8 0-79 144-75 228 6 46 44 62 78 62 131 0 38-5 48-32 71-31 26-36 27-112 22-43-4-76-3-72 1s15 7 24 7 26 17 37 37c25 47 44 55 174 73 115 16 242 54 249 73 4 13 0 13-188 1z"/><path d="m6495 23513c-22-1-74-8-115-14s-91-11-111-11c-35 1-36-1-84-93-62-122-60-129 45-119 65 5 84 4 105-10 44-29 32-77-29-108-47-24-186-39-186-19 0 6-7 11-15 11-16 0-20-27-7-46 37-56 205-38 278 29 90 82 30 207-99 207-27 0-47 3-45 8 3 4 10 21 17 38 11 29 16 32 78 37 69 7 240 52 258 69 12 11-12 29-35 26-8-1-33-3-55-5z"/><path d="m6800 23498c-20-50-53-227-54-289-1-79 18-109 69-109 34 0 108 49 138 92 16 23 16 23 17-12 1-39 15-108 24-117 12-12 20 9 42 118 13 61 33 140 44 175 24 70 21 94-8 94-28 0-48-28-67-94-20-68-84-145-147-177-36-18-39-19-45-2-4 9 4 79 16 155 13 76 20 149 17 163-8 31-33 33-46 3z"/><path d="m9905 23503c-29-8-46-24-43-42 2-12 15-14 56-12 75 4 81-26 21-101-27-33-18-48 53-84 66-34 76-55 38-87s-129-53-170-39c-41 15-58-6-31-39 16-21 28-24 78-23 62 0 141 29 180 66 52 49 34 119-42 164l-45 26 20 25c28 36 27 93-4 122-24 22-75 34-111 24z"/><path d="m10410 23423c-103-105-120-274-35-363l24-25h-247c-235 0-607-10-737-20-33-2-175-7-315-10-142-3-259-10-264-15-7-7-6-14 2-22 15-15 414-18 737-5 999 39 976 37 1013 55 58 26 81 110 45 162-45 64-106 93-185 88-37-3-58 0-58 6 1 23 39 94 70 129s35 67 9 67c-7 0-33-21-59-47zm114-227c34-14 76-59 76-82 0-8-9-23-20-34-40-40-136-16-175 44-17 26-13 64 9 78 18 12 74 9 110-6z"/><path d="m13829 23377c-94-49-146-182-174-447-6-57-4-69 13-90 17-20 22-22 35-11 33 27 63 244 35 253-9 3-6 24 11 74 42 127 88 174 167 174 48 0 64-14 64-54 0-26-14-45-85-111-56-53-85-88-85-102 0-34 41-58 131-77 182-38 319-85 348-120 11-13 7-16-26-25-72-18-118-22-283-23-93 0-170-5-177-10-17-14-16-43 1-57 32-27 355-17 462 14 140 40 141 125 2 193-56 27-320 102-362 102-9 0-16 2-16 4s29 32 64 66c68 65 96 110 96 155 0 96-118 146-221 92z"/><path d="m9515 23340c-18-19-18-22-2-38 13-13 21-14 35-6 22 14 28 44 10 55-19 12-23 11-43-11z"/><path d="m4473 23324c-112-54-189-197-227-423-20-118-20-146 0-166 26-26 42-1 49 81 4 41 11 74 15 74s15-11 24-24c36-55 243-128 314-110 62 15 45 34-53 59-141 37-235 85-235 120 0 7 35 38 78 68 95 68 166 138 192 192 61 125-23 194-157 129zm131-41c10-25-37-112-86-160-24-23-77-64-118-92-87-59-93-54-60 43 46 138 131 223 226 225 21 1 34-5 38-16z"/><path d="m12510 23330c-93-3-163-10-176-17-32-19-48-66-41-128 12-117 59-162 158-151 55 7 59 6 59-14 0-30-23-70-62-106-56-53-75-53-112 0-19 28-46 14-46-24 0-81 102-108 182-47 54 42 99 114 105 171 5 39 2 48-22 72-25 25-30 26-89 20-78-8-88 2-94 85l-4 59h123c216 1 295 22 268 71-7 15-20 19-52 17-23-1-112-4-197-8z"/><path d="m11284 23264c-41-20-58-54-51-100 7-44 29-69 52-60 12 4 14 14 10 38-14 78 50 93 134 33 65-47 131-57 208-31 45 15 110 62 99 73-2 3-36-3-75-12-93-23-141-15-215 35-65 44-108 51-162 24z"/><path d="m13252 23269c-114-22-156-107-86-177 31-31 34-38 25-59-15-34-14-99 3-132 27-52 90-77 152-59 89 24 88 153-1 211-19 12-35 25-35 29 0 3 25 22 55 43 57 37 66 54 40 75-8 7-15 19-15 26 0 33-72 56-138 43zm86-68c10-6 6-12-15-26-15-10-39-28-53-41-24-22-27-23-48-8-33 23-28 52 11 69 36 16 85 19 105 6zm-14-222c29-34 30-56 5-72-48-30-103 35-79 93 14 35 31 30 74-21z"/><path d="m3775 23253c-66-8-204-46-234-64s-40-42-22-54c6-3 51 4 102 15 140 30 133 33 126-52-3-40-11-133-18-205l-12-133h-52c-68 0-92-22-59-54 33-33 217-10 298 38 72 42 79 83 9 53-21-9-60-19-87-23-48-7-48-7-42 22 8 38 25 195 33 306l6 86 106 14c81 10 106 17 106 28 0 10-15 17-50 22-53 7-160 7-210 1z"/><path d="m1992 23227c-32-34-51-89-67-195-27-175-18-248 32-271 20-9 32-8 66 8 45 21 68 41 136 115 33 37 42 43 37 25-4-13-10-60-13-104-5-68-3-83 11-94 25-21 36-3 47 75 11 79 60 271 89 347 24 63 25 86 5 94-26 9-53-25-76-96-30-92-61-141-139-221-61-64-124-105-142-94-13 8-9 123 7 222 16 95 37 161 57 173 14 9 3 39-15 39-7 0-23-10-35-23z"/><path d="m4946 23134c-9-25 18-50 70-64 51-15 240-9 270 8 24 14 24 14-146 42-74 12-147 24-161 27-19 3-28 0-33-13z"/><path d="m7745 23137c-17-13-18-18-7-29 16-16 340-14 356 2 24 24-16 33-171 37-132 4-161 2-178-10z"/><path d="m2863 23060c-25-10-30-29-11-48 13-13 195-16 263-4 49 9 60 37 18 46-51 11-248 15-270 6z"/><path d="m6715 22983c-169-14-523-51-572-60-45-7-42-29 5-36 45-8 108-3 617 47 22 2 112 10 200 16 189 14 192 15 174 36-10 13-35 15-143 12-72-1-198-8-281-15z"/><path d="m7758 22973c-14-2-32-11-39-20-11-13-10-18 6-30 39-30 400 4 400 37 0 13-26 15-170 16-93 1-182-1-197-3z"/><path d="m5099 22960c-126-10-169-24-169-55 0-17 7-25 28-29 53-12 341 56 350 82 4 14-48 14-209 2z"/><path d="m12760 22938c-40-66-63-263-30-263 17 0 106 256 96 280-10 26-45 17-66-17z"/><path d="m11344 22926c-59-19-99-45-119-78-15-27-16-32-2-45 14-14 19-12 54 16 75 60 144 66 241 19 89-44 181-46 258-6 27 15 56 34 64 43 22 26-4 35-53 18-23-8-76-16-117-16-65-2-84 2-147 31-76 34-114 38-179 18z"/><path d="m2414 22854c-10-38 2-234 16-271 7-20 19-33 29-33 15 0 17 15 14 155-1 85-5 160-8 165-13 20-45 10-51-16z"/><path d="m2863 22849c-41-12-45-45-7-59 31-12 305 29 305 45-1 21-235 32-298 14z"/><path d="m6388 22816c-61-16-80-33-76-65 4-30 31-39 53-18 35 35 153 32 200-5 39-31 31-67-22-96-67-37-56-71 28-86 42-7 78-31 66-43-5-4-48-8-95-9-86 0-87 0-90-26-5-39 27-52 104-45 116 11 163 47 142 109-5 15-25 37-44 49-33 20-34 22-19 39 26 29 29 90 7 126-39 62-161 96-254 70z"/><path d="m6877 22797c-33-50-77-220-80-302-2-88 54-157 61-75 3 45 38 214 64 307 10 40 16 77 13 83-11 18-42 11-58-13z"/><path d="m9816 22802c-14-24-77-350-72-376 7-33 23-56 40-56 15 0 77 256 84 342 3 46 1 73-8 83-14 16-36 20-44 7z"/><path d="m9340 22744c-96-17-160-39-157-54 3-17 2-17 144 0 129 15 155 5 85-33-81-44-78-81 6-92 75-10 142-26 142-35 0-10-47-25-102-35-30-5-38-3-38 10 0 20-26 19-34-1-18-48 21-71 104-61 94 11 156 62 137 111-7 18-108 56-150 56h-31l32 29c58 54 32 100-59 106-30 2-65 1-79-1z"/><path d="m10034 22155c-53-24-101-88-123-162-70-240-75-264-58-281 15-14 18-14 36 2 11 10 23 32 27 50 3 17 11 42 15 55 9 23 9 23 32-10 32-48 120-82 213-83 73-1 108 13 98 38-3 8-44 21-92 31-48 9-106 25-129 35-68 30-57 55 53 119 119 68 151 128 101 187-20 23-33 28-83 30-36 2-71-2-90-11zm104-51c26-7 29-35 5-56-10-8-53-35-95-60l-77-46 6 32c12 62 44 105 93 125 30 12 39 12 68 5z"/><path d="m3783 22123c-33-60-53-149-60-270l-6-112 31-30c20-20 40-31 59-31 34 0 116 37 158 71 71 57 65 58 62-12-3-83 18-87 43-9 10 30 36 100 59 155 62 146 67 163 52 178-20 20-44-4-88-93-29-60-55-98-90-128-58-51-144-94-181-90-25 3-27 7-30 56-3 57 19 198 44 275 9 26 13 54 10 62-10 27-42 16-63-22z"/><path d="m12444 22125c-10-25 4-32 78-39 166-15 180-17 173-34-13-35-45-286-43-334 3-52 3-52-35-60-49-10-87-36-87-59 0-25 14-31 45-19 15 6 118 22 229 36 110 14 205 30 210 34 5 5 6 16 3 24-7 18-93 21-224 8l-72-8 5 51c3 27 12 96 20 153 8 56 14 122 14 145v42h142c120 0 143 2 143 15 0 12-37 19-190 37-232 26-403 30-411 8z"/><path d="m1829 22113c-11-13-14-76-12-322 1-168 2-471 2-672 1-340 2-368 19-390 18-22 23-22 258-24 131-2 274-6 317-10 153-14 488 28 593 74 51 23 63 57 17 48-16-3-77-14-138-25-182-35-331-45-520-35-93 4-243 7-331 5l-161-3-6 35c-3 19-1 103 3 188 14 241 13 1121-2 1136-16 16-23 15-39-5z"/><path d="m14535 22099c-101-54-205-185-244-306-19-57-10-142 18-182 81-113 361-103 361 14 0 25-8 40-30 59-34 28-116 56-164 56-45 0-99-31-107-60-5-24-6-24-13 7-20 86 87 277 193 344 59 38 118 40 151 4 43-45 75-25 40 25-44 62-131 78-205 39zm48-450c61-28 9-65-79-56-44 5-134 39-134 52 0 2 16 1 35-2 29-5 35-3 35 12 0 16 7 17 58 12 31-2 69-11 85-18z"/><path d="m8824 22093c-30-6-58-39-50-59 6-15 19-16 106-11 55 3 100 3 100-1s-7-29-15-55c-13-42-21-84-40-203-5-27-11-33-42-39-72-13-125-57-87-72 8-3 75-1 147 6 73 6 159 11 191 11 49 0 65 5 95 27l36 28-40 7c-22 4-83 7-136 7l-95 1 6 48c4 26 16 91 26 145l18 97h55c85 0 281 22 281 31 0 5-1 9-2 9-2 0-52 7-113 15-100 13-387 19-441 8z"/><path d="m15076 22084c-59-21-103-59-136-117-30-53-74-216-86-318-6-51-4-58 14-68 27-14 44 2 68 64 9 25 20 44 23 42 59-33 95-41 191-44 108-4 137 3 127 31-5 11-19 16-51 16-51 0-178 25-207 40-32 17-22 36 44 86 122 93 167 145 167 198 0 38-10 55-41 71-34 18-62 18-113-1zm102-66c4-21-46-77-108-122l-49-35 2 27c3 37-26 40-43 5-7-15-15-23-17-16-10 29 57 121 112 152 30 17 99 10 103-11z"/><path d="m17084 22070c-33-13-37-27-12-44 17-12 49-16 141-16h118l-20-29c-37-52-81-176-81-229v-49l-46-7c-70-9-134-41-134-65 0-18 6-21 38-21 20 0 53 4 72 10 19 5 82 17 140 25 108 16 150 34 150 61 0 14-13 16-86 13l-86-4 6 36c3 19 19 69 36 109s33 91 36 112c7 41 2 39 127 55 32 5 58 13 58 18 0 25-403 47-457 25z"/><path d="m16745 22039c-43-11-55-22-55-57 0-30 23-38 68-23 20 7 57 11 82 9l45-3-60-44c-70-52-84-68-85-97 0-27 18-42 89-75l56-26-45-13c-27-7-73-10-117-7-59 4-73 3-77-10-28-72 205-80 282-10 12 11 22 29 22 40 0 25-52 73-95 87-19 6-35 15-35 18 1 4 24 23 52 42 86 58 108 120 54 155-29 19-130 27-181 14z"/><path d="m6182 22025c-26-19-57-116-72-228-12-96-5-149 26-182 50-54 129-21 219 94 27 34 50 59 52 57 3-2-1-29-7-58-11-48-10-58 6-89 15-29 19-31 22-14 2 11 8 25 12 30 14 17 90 282 90 313 0 16-7 36-16 43-20 16-26 9-113-126-60-94-128-170-175-195-24-12-29-12-37 0-17 24-2 164 28 261 22 77 24 92 12 100-19 12-21 11-47-6z"/><path d="m1012 21941c-22-13-10-44 20-52 41-11 152-103 208-172 114-141 149-286 97-401-37-79-109-146-220-201-83-42-97-46-139-41-27 4-48 3-48-3 0-16 78-41 127-41 98 0 269 112 334 219 56 93 61 228 12 342-84 196-312 400-391 350z"/><path d="m10658 21929c-35-20-21-55 20-50 8 1 12-14 12-48 0-59 17-76 109-110 33-12 63-26 66-31 4-6-37-10-107-10-120 0-142-6-136-36 4-25 68-36 179-31 103 4 139 21 139 67 0 37-47 77-128 108-60 23-60 23-55 62 5 33 1 42-22 64-30 28-49 32-77 15z"/><path d="m9547 21923c-12-12-7-50 8-63 30-25 61 30 33 58-13 13-31 16-41 5z"/><path d="m6915 21866c-28-20-12-40 44-55 28-7 51-16 51-19 0-4-9-18-20-32-38-48-20-75 72-106 27-8 46-19 43-24s-40-16-83-26c-88-19-113-34-92-59 10-12 24-14 59-9 73 10 150 31 177 48 52 35 20 92-68 124-48 17-57 25-38 37 6 3 10 21 10 39 0 35-29 69-65 79-58 15-73 16-90 3z"/><path d="m10345 21850c-25-27-5-51 36-43 33 6 39-10 14-43-8-10-15-33-15-51 0-77 111-85 212-14 58 40 49 50-29 35-38-7-78-13-91-14-22 0-22 1-7 30 22 43 19 76-11 99-34 27-85 27-109 1z"/><path d="m4197 21829c-44-23-48-56-7-51 14 2 44 6 68 9 50 6 55-7 15-40-83-69-103-91-103-112 0-39 33-58 103-59 69-1 217 23 217 34 0 9-53 18-155 27-41 3-75 7-75 8s23 25 50 52c49 49 63 88 42 119-25 37-97 44-155 13z"/><path d="m6583 21793c-18-7-16-30 3-37 9-3 30-6 48-6s36-3 39-7c4-3-18-32-48-64-60-63-67-87-32-120 19-19 30-20 90-16 79 7 177 47 177 73 0 14-7 16-42 10-96-15-158-18-158-9 0 5 12 20 26 34 27 25 54 70 54 89 0 6-11 22-25 35-19 20-34 25-72 24-26 0-54-3-60-6z"/><path d="m2050 21749c-93-10-162-61-128-95 11-12 20-11 53 6 22 10 73 22 113 26l74 7-30-54c-49-88-74-182-74-280v-86l-46 8c-47 9-72 0-72-27 0-52 191-69 285-24l50 24-50 7c-27 4-71 8-98 8l-48 1 15 28c8 15 22 54 31 87 10 33 35 109 58 169 32 87 38 112 29 127-10 16-7 18 36 21 55 3 65 27 17 39-44 11-152 15-215 8z"/><path d="m7788 21639c-24-14-22-36 4-50 16-9 71-10 198-6 181 7 241 15 241 32-1 25-404 47-443 24z"/><path d="m11415 21630c-48-7-65-16-65-35 0-29 40-35 249-35 204 0 240 5 214 31-19 19-325 49-398 39z"/><path d="m844 21621c-12-5-23-18-26-28-10-37 0-42 70-36 68 6 182-11 182-27 0-5-27-25-59-45-33-20-63-45-66-56-8-25 16-55 53-64 15-3 37-13 50-21 20-13 21-18 10-31-35-43-139-58-158-23-21 39-48 13-36-35 12-47 86-67 157-44 120 40 149 148 54 197l-37 18 40 26c21 14 45 40 52 57 11 26 10 35-5 57-9 14-33 32-52 41-43 17-199 27-229 14z"/><path d="m5258 21611c-61-7-84-20-75-44 8-22 89-29 197-18 52 6 124 14 160 17 81 8 106 20 89 40-9 11-42 14-163 13-83-1-177-5-208-8z"/><path d="m17986 21599c-55-13-106-39-106-55 0-23 16-24 71-5 30 10 96 26 147 36 60 11 89 21 80 26-17 11-142 10-192-2z"/><path d="m15728 21593c-40-6-56-30-34-51 14-14 35-17 124-15 115 2 269 17 279 27 4 3 4 9 0 12-12 12-319 35-369 27z"/><path d="m2857 21571c-44-9-51-15-44-36 8-20 150-20 301 0 109 14 126 19 112 33-10 10-321 12-369 3z"/><path d="m12870 21565c-85-8-200-16-255-20-136-8-173-14-179-30-6-17 11-31 50-39 49-11 348 14 737 60 46 6 57 10 57 25 0 18-9 19-127 18-71-1-198-7-283-14z"/><path d="m13764 21555c-10-25 4-45 31-45 52 0 88 39 49 54-29 11-75 6-80-9z"/><path d="m9965 21539c-206-7-765-32-1045-45-125-6-154-14-133-35 16-16 299-18 673-3 674 25 823 29 1135 28 176-1 331-3 345-5 40-6 30 23-15 46-38 19-61 20-390 21-192 1-449-2-570-7z"/><path d="m17068 21545c-2-1-43-5-93-9-138-9-339-34-370-46-14-5-25-15-23-22 9-26 62-32 198-19 74 7 189 16 255 21s145 12 175 14c30 3 111 8 178 12 94 5 125 10 129 21 3 8 0 19-8 24-12 8-433 11-441 4z"/><path d="m4085 21527c-71-4-218-6-325-4s-201 2-207 0c-20-7-15-29 10-41 37-18 56-21 197-28 140-6 375 5 635 31 229 23 235 24 235 41 0 13-28 15-207 12-115-1-266-6-338-11z"/><path d="m6450 21509c-179-10-235-19-235-39 0-25 71-30 303-21 125 5 335 10 467 11 277 2 397 10 402 26 2 7-11 15-29 18-52 11-737 15-908 5z"/><path d="m5234 21461c-33-15-37-28-12-45 17-12 47-16 133-15 167 2 239 11 243 30 2 9-4 19-13 22-28 11-329 18-351 8z"/><path d="m11382 21458c-17-17-15-45 4-52 25-10 214-7 264 4 114 25 114 24 4 45-96 18-255 20-272 3z"/><path d="m14467 21458c-128-9-167-19-167-43 0-31 45-35 313-25 412 16 607 36 521 54-131 26-410 32-667 14z"/><path d="m7828 21440c-27-17-22-36 13-50 45-19 357-7 378 15 31 30-1 38-191 42-122 3-189 0-200-7z"/><path d="m15703 21438c-48-10-71-39-49-57 11-9 61-9 208 0 106 6 197 15 202 19 20 19-4 37-56 43-76 10-255 7-305-5z"/><path d="m2960 21419c-30-5-62-16-70-25-24-24 9-43 68-37 98 9 252 45 252 59 0 11-21 14-97 13-54-1-123-5-153-10z"/><path d="m17830 21401-25-21 25-21c24-21 32-21 170-16 183 8 220 14 220 37s-30 29-215 36c-143 6-151 6-175-15z"/><path d="m12552 21399c-63-11-95-26-89-42 3-8 44-12 140-12 134 0 169-8 153-34-13-20-96-72-213-131-134-69-163-92-163-131 0-42 23-54 109-52 144 2 362 75 328 110-3 3-46-2-94-10-48-9-122-19-163-22l-75-7 50 29c28 16 81 47 119 68 78 42 154 108 167 142 11 31-6 67-40 83s-161 21-229 9z"/><path d="m17190 21399c-114-13-198-31-227-49s-120-144-124-172c-5-43 27-50 113-23 80 24 162 30 176 12 10-12 8-20-14-46-40-48-98-73-180-79-82-5-119 8-109 39 7 22-14 26-33 7-20-20-14-63 13-88 55-51 224-35 313 30 79 57 102 125 59 175-29 34-82 41-172 22-38-8-71-14-73-12-1 1 5 18 15 36 10 19 19 35 19 37 1 2 64 13 140 26 192 33 224 42 224 66 0 20-28 32-65 28-11-2-45-5-75-9z"/><path d="m6874 21355c-66-33-99-86-116-181l-12-74h-74c-41 0-137-9-214-21-77-11-142-18-145-16-2 3 33 25 79 48 100 53 181 126 176 159-2 13-16 32-31 44-55 41-263 18-281-31-9-23-4-25 45-14 54 13 179 14 198 2s-32-48-159-111c-138-69-170-93-170-130s23-50 90-50c57 0 342 54 392 74 18 7 45 16 59 20 26 6 27 5 25-47-1-49 0-52 24-52 21 0 26 8 40 55s18 52 24 32c15-44 131-83 287-97 42-4 91-4 108 0 36 8 41 33 9 39-256 49-341 71-336 89 3 7 29 26 59 42 111 60 130 75 145 110 18 45 5 79-45 112-46 31-112 31-177-2zm147-54c34-28 19-47-73-96-41-22-84-47-94-55-16-14-17-13-10 5 18 44 19 65 2 65-32 0 11 59 57 81 54 24 89 24 118 0z"/><path d="m2392 21343c-18-9-35-26-38-39-11-44 35-73 60-38 19 25 87 29 115 7l24-19-29-32c-16-18-74-62-129-100-55-37-106-79-114-93-36-65 25-116 129-106 103 9 211 82 113 76-21-1-69-1-108 0l-70 1 25 20c14 11 62 45 107 76 127 85 161 145 119 209-34 52-137 71-204 38z"/><path d="m13045 21345c-80-18-105-28-143-60-45-38-63-76-63-138-1-77 11-164 27-184 22-30 48-5 52 51 2 25 4 46 5 46s36-14 77-31c88-37 210-52 210-27 0 10-30 27-82 47-121 47-158 63-158 71 0 4 37 24 83 44 108 49 156 81 167 112 13 34-1 59-41 73-39 14-58 13-134-4zm110-64c-18-18-175-91-196-91-5 0-4 12 1 26 6 14 8 29 5 34-10 16 94 47 165 49 44 1 44 1 25-18z"/><path d="m4145 21324c-68-24-94-76-59-115 15-17 15-20-4-46-23-33-92-213-92-241 0-24 25-46 44-39 7 3 23 37 35 76 22 72 35 87 46 51 9-29 98-105 157-134 76-38 170-33 155 8-4 9-14 16-23 16-52 0-234 122-234 157 0 6 21 16 47 23 126 31 207 92 207 155 0 40-25 72-71 91-42 18-157 17-208-2zm184-55c69-24 18-82-103-118-43-13-80-20-84-16-4 3 1 20 11 37 20 36 14 52-19 44-13-4-24-3-24 1 1 48 138 80 219 52z"/><path d="m9980 21321c-75-23-129-72-150-137-15-45-9-229 9-262 8-16 20-22 34-20 25 3 34 32 36 118 1 42 4 51 12 38 37-65 291-134 373-102 22 9 20 24-4 24-11 0-37 6-57 14-21 8-77 27-126 41-103 32-144 59-125 82 6 8 50 34 97 58 106 53 129 75 113 110-7 14-23 30-38 35-29 12-137 12-174 1zm63-99c-50-27-99-54-108-62-15-13-16-10-10 26 4 21 12 45 18 52 14 18 65 30 132 31h60z"/><path d="m3685 21303c-71-15-109-57-79-87 12-13 19-13 49 0 37 15 162 19 183 5 23-14-40-74-164-157-99-66-114-79-114-103 0-39 17-51 76-51 137 0 371 76 324 105-6 4-60 1-121-5-61-7-113-10-115-7-3 2 17 19 43 36 135 88 185 173 133 229-33 35-138 52-215 35z"/><path d="m14805 21304c-76-11-167-38-190-56-26-20-35-68-13-68 7 0-5-17-25-38-38-38-48-78-23-88 7-3 41 2 74 10 112 30 172 18 172-33 0-86-226-148-282-78l-18 22v-23c0-35 52-82 92-83 125-4 219 36 253 107 24 51 19 82-20 121-36 36-36 36-121 30-82-5-85-4-68 14 9 10 14 25 11 32-8 21 83 47 232 66 124 16 152 29 113 50-23 12-142 21-187 15z"/><path d="m9307 21245c-57-16-97-40-97-60 0-22 15-26 47-10 41 20 163 40 197 31l29-7-22-23c-12-13-46-35-76-50-30-14-80-38-111-53-70-34-89-67-55-94 28-23 36-23 171-4 95 14 145 24 263 56 35 9 49 31 27 44-8 5-109-3-255-21l-50-6 50 32c109 70 132 117 79 159-32 25-119 27-197 6z"/><path d="m5245 20350c-7-11 66-147 141-262 24-37 44-72 44-78s-11-33-25-60c-31-62-31-78-1-92 19-8 34-7 66 6 22 9 42 16 45 16 4 0 87-121 108-156 15-26-157-81-217-70-29 6-33 10-28 31 5 28-9 32-32 9-24-23-19-60 10-83 46-37 152-26 258 25 27 13 52 21 56 19 5-3 36-44 70-91 47-66 58-89 48-95-7-5-58-9-113-10-194-2-238-9-233-37 6-32 67-36 326-21 229 13 574 18 632 8 17-3 25 1 28 13 2 11-11 24-40 40-39 21-56 23-173 23-71 0-186-3-255-7l-126-8-66 110-66 111 20 37c47 91-27 206-137 214-31 2-42 9-63 40-14 21-23 39-21 41 53 30 114 47 259 72 136 22 183 40 153 58-18 10-250-14-320-33-41-11-84-18-93-15-12 4-22-1-28-12-8-14-23 3-87 103-101 155-124 180-140 154zm407-511c12-15 18-37 16-54-3-28-4-27-35 24-18 29-33 55-33 57 0 14 35-4 52-27z"/><path d="m6083 20095c-45-31-96-198-97-317-1-57 2-70 23-92 47-50 122-27 209 64 45 46 53 51 48 30-13-62-14-118-3-159s39-73 52-59c3 3 8 48 9 99 2 52 13 138 25 191 17 76 19 102 11 118-19 36-50 21-86-40-42-70-127-166-166-186-42-22-58-12-58 33 1 79 49 260 77 288 17 17 11 45-9 45-8 0-23-7-35-15z"/><path d="m8716 20090c-36-11-66-38-66-61 0-28 14-30 56-9 21 11 58 20 83 20h45l-52-53c-84-85-67-117 62-117 37 0 70-6 81-14 18-13 17-14-11-29-34-18-131-37-186-37-42 0-59-20-38-45 26-31 195-8 268 37 34 21 48 53 37 88-9 29-79 60-137 60h-48l40 40c41 41 44 49 34 86-11 40-93 56-168 34z"/><path d="m10383 20092c-52-35-91-352-50-415 9-15 29-34 43-43 49-33 132 15 217 126l27 35-6-65c-8-80 11-135 52-151 45-17 108 19 116 66 3 21 1 21-64 8-20-4-30-1-34 11-9 23 13 152 42 249 28 94 30 132 8 141-21 8-33-1-45-32-24-64-125-218-178-272-63-65-101-77-121-41-16 31-12 147 10 251 11 52 20 102 20 111 0 19-21 31-37 21z"/><path d="m17208 20085c-2-2-116-5-253-6-138-2-349-6-470-10s-398-13-614-19c-217-6-405-13-418-16-35-9-27-31 15-39 38-8 838-8 850-1 4 2 183 7 397 11 215 4 393 9 396 11 4 2 859 6 949 4 13 0 15-74 14-608-1-449-5-633-15-707l-14-100-60-12c-207-41-570-53-1635-56-498-1-913-6-922-11-31-15-20-33 25-40 67-10 1813-15 2012-6 215 11 410 27 485 41 92 17 193 40 223 51 37 14 31 40-12 53-32 9-33 11-25 50 4 22 8 338 9 703 2 642 1 664-18 688l-19 25-448-1c-247-1-450-3-452-5z"/><path d="m3933 20040c-32-13-44-41-30-71 16-31 43-36 50-9 4 18 13 20 70 20 38 0 69-5 73-11s-12-28-35-49c-43-40-47-50-31-79 8-16 37-30 145-72l30-11-30-14c-16-7-59-13-95-14-68 0-90-10-90-42 0-46 142-43 240 5 37 18 46 27 48 53 4 38-33 73-105 100-62 23-60 20-36 47 55 60 49 117-13 143-37 15-157 18-191 4z"/><path d="m12725 19983c-26-6-45-31-38-49 3-8 19-14 37-14s36-3 39-6c11-11-12-42-48-64-74-46-67-90 19-115 29-9 61-22 71-29 17-13 17-14-10-32-15-10-58-25-94-34-59-15-66-19-66-41 0-23 3-24 55-23 95 2 190 63 190 122 0 30-50 78-90 87-17 4-30 8-30 9 0 2 16 20 35 40 25 27 35 47 35 70 0 50-54 91-105 79z"/><path d="m14434 19918c-26-24-66-70-89-103-101-141-101-240-1-296 49-27 191-39 249-20 109 36 77 117-57 142-64 11-118 1-159-31-30-24-41-14-39 36 2 46 32 101 94 174 73 86 98 122 92 132-12 19-47 5-90-34zm124-339c18-6 29-15 26-20-6-11-94-11-149 0-39 8-39 8-15 19 33 14 99 15 138 1z"/><path d="m13911 19924c-55-23-78-73-49-102 18-18 27-15 38 12 6 18 21 28 50 36 88 24 115-7 55-62-69-62-67-83 9-117l41-18-30-12c-75-28-105-45-105-58 0-9 13-13 43-13 137 0 204 81 115 139l-37 24 28 33c16 18 32 42 36 54 9 30-12 75-41 89-34 15-112 13-153-5z"/><path d="m16675 19784c-136-34-245-101-289-177-51-87-29-120 93-141 94-17 111-27 90-52-47-56-191-56-212 1-8 20-36 19-44-1-9-24 13-62 49-84 95-58 285 19 276 111-4 45-49 74-138 89-39 7-70 14-70 17s10 19 22 35c46 65 174 121 309 136 55 6 64 10 67 28 2 13-4 24-13 28-24 9-117 16-140 10z"/><path d="m17404 19692c-42-31-96-87-243-255-52-59-101-107-108-107-21 0-11-44 10-48 11-2 31 8 47 23 15 14 34 25 41 24 19-4 270 11 290 17 13 3 18-5 23-36 8-50 55-106 81-97 15 7 16 10 3 30-8 12-18 41-21 64-7 41-7 42 25 47 18 3 51 7 73 8 32 3 40 7 40 23 0 17-10 21-70 29l-70 9 3 117c3 94 0 124-12 149-21 40-59 41-112 3zm62-122c-2-25-5-68-5-97l-1-52-42-5c-83-10-208-14-208-7 0 4 54 64 121 132 116 120 120 123 130 99 5-13 8-45 5-70z"/><path d="m15830 19683c-30-11-50-37-50-65 0-31 20-38 40-13 7 8 29 15 48 15h36l-31-32c-58-62-49-102 25-113 56-8 115-29 119-41s-22-24-95-43c-49-14-64-37-37-57 19-14 53-10 120 13 124 43 111 142-23 179l-59 16 24 26c23 24 30 66 15 88-19 29-89 43-132 27z"/><path d="m14913 19654c-30-7-71-47-79-79-8-34 11-77 33-73 9 2 21 18 25 36 15 55 46 59 160 21 79-26 107-31 151-26 68 7 119 32 115 55-3 15-18 17-103 18-80 1-110 6-149 23-51 23-115 33-153 25z"/><path d="m2925 19545c-66-7-128-13-137-14-26-1-22-30 5-36 12-3 99-5 192-3 94 2 183-1 198-6 25-7 29-6 25 10-5 26-59 54-115 58-26 2-102-2-168-9z"/><path d="m7338 19539c-84-6-118-18-118-44 0-13 47-38 58-31 4 2 45 6 92 10 47 3 121 9 165 12 82 7 120 18 110 34-11 18-179 28-307 19z"/><path d="m4045 19528c-134-10-165-16-165-33 0-22 60-28 204-22 72 4 184 7 249 7 95 0 117 3 117 14 0 18-15 23-110 36-76 11-118 11-295-2z"/><path d="m10870 19533c-91-7-566-74-597-84-41-13-49-25-26-37 18-10 42-7 498 47 94 11 208 23 255 26 90 7 106 14 97 39-5 13-23 16-94 14-48-1-108-3-133-5z"/><path d="m9180 19503c-19-1-136-10-260-19-284-19-473-40-500-54-20-11-27-35-12-44 5-3 49-1 98 4s161 14 249 20 216 15 285 20 209 12 311 16c103 3 213 9 245 13 58 6 79 22 47 36-18 8-398 15-463 8z"/><path d="m11647 19495c-91-13-115-24-102-45 14-23 443 21 438 45-4 15-234 15-336 0z"/><path d="m4926 19481c-35-38-6-71 50-57 17 5 24 13 24 29 0 46-43 62-74 28z"/><path d="m14440 19468c-69-4-216-6-327-5-151 1-205-1-215-11-60-60 281-71 652-21 83 12 111 22 97 36-10 9-59 9-207 1z"/><path d="m9937 19463c-4-3-7-17-7-31 0-20 4-23 23-18 12 3 28 6 35 6 18 0 15 37-4 44-20 8-39 8-47-1z"/><path d="m4110 19443c1-10 9-33 19-52 18-34 18-35 0-50-12-11-19-33-21-66l-3-50 59-1c59-1 59-1 92-55 19-29 34-56 34-59s-14-14-31-24c-43-26-118-24-141 4-20 25-38 26-38 2 0-43 65-92 122-92 13 0 48 12 78 26l55 25 25-32c29-38 178-218 196-236 13-14 34-17 34-7 0 4-22 36-49 73-27 36-76 108-109 159-58 89-61 96-55 141 9 80-20 116-109 135-50 11-29 23 70 41 124 21 147 28 147 46 0 11-20 14-100 14-55 0-119-3-142-7-41-8-42-7-70 37-28 45-63 61-63 28z"/><path d="m12658 19453c-52-3-80-9-89-19-35-42 60-47 416-24 208 13 228 16 222 33-3 9-64 12-238 13-129 0-268-1-311-3z"/><path d="m16128 19433c-26-32-47-71-68-125-22-58-25-82-11-76 12 4 109 135 123 165 21 44-13 71-44 36z"/><path d="m11797 19409c-116-17-184-46-161-69 12-13 110-1 254 31 136 29 149 38 63 38-39 1-77 3-85 5-7 2-39 0-71-5z"/><path d="m13560 19405c0-11 7-15 23-13 12 2 22 8 22 13 0 6-10 11-22 13-16 2-23-2-23-13z"/><path d="m2955 19395c-112-15-159-29-153-47 9-26 75-30 205-13 70 9 159 21 196 25 70 8 95 20 83 39-10 15-204 12-331-4z"/><path d="m7405 19386c-85-16-143-40-151-61-12-30 10-37 72-25 119 22 263 38 306 33 36-4 46-2 51 11 16 41-153 66-278 42z"/><path d="m10630 19376c-62-18-135-53-156-77-13-15-20-16-31-7-20 16-28 5-63-92-53-145-58-163-49-188 15-41 40-22 63 48 28 81 40 104 83 157 50 62 139 103 239 109 79 5 79 5 56-15-12-11-60-35-105-53s-104-44-132-58c-45-24-50-29-50-60 0-46 19-54 182-79 72-11 147-28 167-37 40-20 51-15 41 16-13 43-74 69-201 88l-119 18 80 33c107 44 175 79 203 104 29 27 29 71 0 91-27 20-142 20-208 2z"/><path d="m14903 19380c-52-17-81-78-51-108 19-19 48-15 48 8 0 33 40 40 233 41 100 0 200 3 222 7 52 9 60 37 13 46-60 11-432 16-465 6z"/><path d="m6690 19353c-36-13-156-76-172-90-11-9-18-11-23-4-13 21-26 10-54-46-15-32-40-78-54-103-32-55-34-84-5-104 32-23 50-6 81 78 22 58 38 84 70 112 43 38 139 88 192 100l30 7-22-24c-12-13-48-40-80-58-133-79-135-112-8-145 33-8 100-29 149-46 86-29 166-39 166-22 0 27-236 132-297 132-9 0 15 22 54 49 94 66 120 122 75 159-16 12-74 15-102 5z"/><path d="m12715 19323c-38-8-65-26-65-44 0-22 18-28 55-17 39 11 122 10 129-1 3-5-12-20-34-35-22-14-40-31-40-36 0-16 37-30 80-30 45 0 110-23 110-39 0-34-182-81-234-61-32 12-50 2-41-22 22-57 193-40 282 28 28 21 34 32 31 57-4 37-55 77-99 77-34 0-34 2-13 36 41 61-51 111-161 87z"/><path d="m13148 19293c-18-21-83-183-93-231-5-25-2-38 11-53 17-19 50-27 39-10-3 6 20 71 50 146 45 108 54 140 44 151-15 19-33 18-51-3z"/><path d="m8650 19294c-8-3-34-12-57-20-57-21-61-50-5-38 58 13 165 11 169-3 3-7-16-25-41-40-44-26-56-46-38-57 5-3 45-7 89-9 86-5 103-10 103-31 0-33-173-76-225-56s-64-20-13-46c67-35 243 9 283 70 37 56-11 106-100 106-46 0-46 0-31 22 21 30 20 61-3 82-19 17-104 30-131 20z"/><path d="m14177 19283c-3-10-13-75-23-144-20-145-16-176 24-150 16 10 54 217 50 269-2 29-8 38-25 40-14 2-23-3-26-15z"/><path d="m6102 19267c-27-29-46-83-61-174-12-66-11-75 8-118 15-33 25-46 38-43 15 3 18 16 18 83 1 81 24 181 51 223 12 18 13 26 3 38-16 20-32 18-57-9z"/><path d="m9115 19267c-25-39-75-189-75-227 0-39 23-80 46-80 10 0 14 12 14 41 0 23 14 82 31 131 30 88 35 148 12 155-6 2-19-7-28-20z"/><path d="m5694 19239c-23-5-54-21-68-34-45-42-28-59 31-30 43 21 116 30 141 16 17-9 20-17 15-41-7-39 11-60 51-60 17 0 38-5 46-10 19-13 7-22-68-50-62-24-148-28-119-6 19 15 23 36 7 36-6 0-24-7-40-15-38-20-40-58-5-81 68-44 295 36 295 104 0 34-32 63-75 69-37 5-40 7-40 35 0 58-79 89-171 67z"/></g><g fill="#44b" transform="matrix(.054411653 0 0 -.054411653 1810.79927553537 1648.81894791264)"><path d="m750 2973c-57-10-88-25-119-57-40-41-55-100-46-179 6-45 12-61 32-77 32-25 35-25 64-1 22 17 24 26 21 89-4 105 24 120 164 87 33-7 119-19 190-25 88-8 134-16 144-26 32-32 8-420-28-456-18-18-126-28-289-28-185 0-206-4-250-52-55-58-58-82-55-363 1-145 7-274 13-293 11-34 51-62 89-62 12 0 35 14 52 31l31 30-6 238c-3 130-3 249 0 264l5 27h112c234 1 363 26 423 82 58 54 98 260 91 463-4 122-7 138-34 191-40 81-79 100-217 108-174 10-361 14-387 9z"/><path d="m3660 2971c-42-9-83-34-103-65-39-59-50-127-54-343-5-206-5-212 18-252 28-50 78-86 143-102 48-12 257-8 370 7l49 7-7-104c-4-57-11-189-16-294-9-177-9-192 8-214 35-47 100-46 136 2 22 29 27 86 42 452 7 191 0 235-44 283-45 48-92 56-241 38-146-18-229-20-265-6l-26 10v162c0 156 8 230 27 249 5 5 99 6 210 2l201-6 5-50c3-39 11-56 31-74 34-29 48-29 80 0 24 20 26 30 28 113 4 147-23 169-218 179-242 11-340 13-374 6z"/><path d="m1565 2945c-14-13-25-32-25-42s-1-297-3-638c-2-677-3-662 55-694 33-19 73-7 101 31 18 24 20 51 29 300 5 150 10 278 12 283 2 6 37 8 97 3 52-3 135-7 186-7 154-2 161-10 143-176-21-189-27-310-18-343 12-45 45-72 86-72 71 0 102 46 102 151 0 33 7 118 16 187 24 190 9 280-58 349-50 52-112 67-263 65-71-1-164-6-205-11-41-4-78-7-81-5-4 2-10 108-13 236-9 286-17 352-47 384-31 33-82 32-114-1z"/><path d="m2542 2944c-55-38-64-109-53-419 6-186 9-215 28-250 50-95 116-125 302-135 75-4 171-5 215-1l78 7-4-178c-2-97-7-181-11-184-4-4-42 1-85 11-104 26-285 27-363 3-106-33-149-107-99-170 26-34 68-41 132-21 74 23 202 20 308-7 182-47 274 5 301 168 12 77 27 831 19 994-7 152-20 181-86 186-88 7-103-51-104-401v-219l-201 4c-197 3-201 3-220 27-18 21-19 42-19 283v260l-29 29c-33 33-74 38-109 13z"/><path d="m2374 1391c-55-34-79-78-79-147 0-51 4-66 27-96 35-45 102-73 153-64 78 15 146 111 131 188-20 108-145 172-232 119z"/><path d="m1853 999c-39-11-66-56-61-101 6-59 69-64 76-6 4 30 34 38 145 38h67v-110c0-135-1-136-132-126-85 6-89 6-113-18-24-25-25-28-25-179 0-162 4-177 47-177 35 0 43 29 43 159v121h73c85 0 141 14 168 41 17 17 19 34 19 169 0 147-1 152-25 175-23 24-30 25-137 24-62 0-128-5-145-10z"/><path d="m2985 1000c-91-16-93-18-104-58-15-51-14-537 0-564 19-36 69-48 204-48 121 0 127 1 151 25l24 24-2 292-3 292-26 19c-31 23-161 33-244 18zm169-86c14-5 16-37 16-250v-245l-102 3-103 3v240 240l40 6c57 9 131 10 149 3z"/><path d="m2351 971c-24-24-29-73-37-372-6-232-6-237 15-258 23-23 29-25 51-11 12 7 16 40 20 150l5 141 35-23c19-13 59-55 88-93 30-39 78-96 108-128 47-51 56-57 74-47 29 16 25 42-15 92-19 24-62 78-95 121-61 77-61 77-33 77 15 0 46 9 69 19 56 26 67 57 62 179-6 156-27 172-220 172-93 0-111-3-127-19zm257-74c16-13 17-168 0-185-7-7-41-12-84-12-40 0-84-4-98-10l-26-10v120 119l98-6c53-3 103-10 110-16z"/></g></svg>