<?xml version="1.0" standalone="no"?>
<!DOCTYPE svg PUBLIC "-//W3C//DTD SVG 20010904//EN"
 "http://www.w3.org/TR/2001/REC-SVG-20010904/DTD/svg10.dtd">
<svg version="1.0" xmlns="http://www.w3.org/2000/svg"
 width="1794.855679pt" height="2782.508132pt" viewBox="0 0 1794.855679 2782.508132"
 preserveAspectRatio="xMidYMid meet">
<metadata>
Created by potrace 1.16, written by Peter Selinger 2001-2019
</metadata>
<g transform="translate(-7.920112,2832.878014) scale(0.100000,-0.100000)"
fill="#000000" stroke="none">
<path d="M874 28313 c-22 -71 -78 -205 -88 -208 -6 -2 -48 -6 -94 -9 l-82 -6
25 67 c15 38 30 72 35 77 13 13 13 43 1 50 -27 17 -44 -8 -91 -124 l-25 -65
-105 -5 c-84 -4 -105 -8 -105 -20 0 -12 18 -16 93 -18 50 -1 92 -5 92 -8 0 -3
-13 -36 -30 -74 -35 -81 -39 -120 -11 -120 12 0 23 11 29 29 8 23 20 32 49 40
64 16 163 34 168 29 2 -2 -5 -30 -17 -61 -16 -43 -18 -61 -10 -69 17 -17 37 5
67 77 l28 65 58 11 c69 14 93 33 54 43 -15 4 -42 4 -61 0 -21 -4 -34 -2 -34 4
0 24 14 44 44 59 29 16 30 17 9 22 -22 6 -21 6 13 90 19 46 34 95 32 110 -4
31 -35 41 -44 14z m-107 -282 c-10 -27 -17 -30 -98 -45 -48 -9 -95 -19 -104
-22 -13 -5 -12 2 6 39 l23 46 65 4 c36 2 78 4 93 5 25 2 26 1 15 -27z"/>
<path d="M1271 28153 c-34 -69 -74 -233 -69 -288 2 -32 7 -40 23 -40 16 0 21
9 27 55 13 92 40 192 64 242 30 59 31 88 4 88 -14 0 -28 -17 -49 -57z"/>
<path d="M1948 28196 c-26 -7 -54 -18 -62 -26 -19 -15 -21 -51 -4 -68 20 -20
38 -14 38 12 0 31 6 35 77 46 75 13 93 7 93 -31 0 -42 -11 -60 -107 -172 -89
-105 -100 -135 -60 -161 12 -8 45 -18 73 -22 57 -7 223 12 239 27 20 20 -19
30 -90 24 -88 -8 -165 -6 -183 4 -10 6 6 31 66 102 108 129 125 165 106 235
-11 43 -91 56 -186 30z"/>
<path d="M1625 28161 c-32 -13 -115 -108 -135 -154 -27 -61 -35 -131 -20 -168
17 -40 54 -57 138 -65 93 -9 134 10 158 72 17 43 16 46 -3 72 -44 61 -154 83
-207 41 -14 -11 -26 -27 -26 -34 0 -25 21 -27 45 -5 20 19 32 22 70 18 78 -9
110 -63 64 -109 -19 -19 -28 -20 -88 -14 -36 4 -74 11 -83 16 -48 25 -28 132
41 222 56 73 95 91 121 57 20 -27 40 -19 40 15 0 39 -61 58 -115 36z"/>
<path d="M5094 27760 c-35 -14 -72 -67 -79 -113 -3 -23 0 -114 7 -202 13 -160
13 -160 38 -160 25 0 25 1 28 93 l3 92 33 0 c60 0 97 12 128 43 28 29 30 34
26 93 -7 118 -94 191 -184 154z m93 -62 c31 -34 43 -63 43 -101 0 -45 -32 -73
-93 -81 l-48 -6 6 55 c6 47 5 55 -9 55 -23 0 -20 42 5 74 26 33 68 35 96 4z"/>
<path d="M12430 27738 c-55 -16 -91 -47 -117 -104 -36 -80 -42 -141 -31 -324
10 -171 20 -207 51 -182 13 11 17 39 34 237 6 77 15 95 47 95 31 1 97 34 134
68 28 27 32 37 32 84 0 62 -26 113 -66 128 -30 12 -38 11 -84 -2z m80 -53 c7
-8 15 -35 18 -60 4 -38 1 -48 -19 -65 -28 -24 -65 -45 -96 -54 -19 -6 -22 -3
-25 26 -2 27 -7 33 -25 32 -28 -1 -28 -1 0 56 32 66 116 103 147 65z m-173
-177 c-3 -8 -6 -5 -6 6 -1 11 2 17 5 13 3 -3 4 -12 1 -19z"/>
<path d="M12874 27691 c-8 -20 -23 -52 -34 -71 -11 -19 -36 -68 -56 -108 -32
-64 -34 -76 -22 -88 16 -16 48 -9 48 10 0 11 101 190 104 184 0 -2 0 -278 -2
-615 l-3 -612 -32 -3 c-44 -4 -43 -32 1 -36 l32 -3 0 -620 0 -619 -59 0 c-69
0 -96 -19 -68 -48 13 -13 19 -13 29 -4 7 7 31 12 54 12 37 0 43 -3 49 -27 5
-16 10 -292 12 -614 l4 -586 -24 4 c-16 3 -26 -1 -30 -11 -7 -17 17 -46 38
-46 8 0 17 -9 20 -20 8 -26 45 -26 52 0 3 11 9 17 14 14 5 -3 9 2 9 10 0 14
33 16 279 16 l278 0 6 -45 c8 -54 26 -85 49 -85 15 0 18 10 18 65 l0 65 613 0
613 0 11 -30 c14 -38 32 -38 46 -1 l10 28 356 9 c377 10 490 9 1454 -1 506 -6
607 -9 607 -21 0 -18 -25 -30 -80 -38 -51 -8 -70 -21 -70 -47 0 -27 18 -33 45
-15 13 9 36 16 50 16 37 0 102 36 110 60 9 27 -4 80 -18 80 -7 0 -39 14 -72
30 -33 16 -68 30 -77 30 -21 0 -24 -30 -5 -49 10 -11 -77 -12 -508 -5 -685 10
-1286 10 -1571 0 l-230 -9 4 66 c5 84 -2 117 -28 117 -26 0 -33 -32 -28 -115
l4 -65 -621 0 -620 0 -2 36 c-2 50 -9 64 -32 64 -22 0 -31 -19 -31 -66 l0 -34
-289 0 -289 0 -6 563 c-3 309 -9 583 -12 610 l-6 47 46 0 c39 0 46 3 46 20 0
17 -7 20 -45 20 l-45 0 0 619 0 620 42 3 c31 2 44 8 46 21 3 14 -4 17 -42 17
l-46 0 0 587 0 586 36 -69 c39 -73 80 -124 100 -124 26 0 24 22 -6 68 -37 55
-106 199 -116 239 -10 42 -22 52 -61 51 -31 -1 -37 -6 -49 -37z"/>
<path d="M5792 27686 c-33 -29 -92 -134 -92 -165 0 -39 28 -34 96 14 36 26 68
45 71 42 3 -3 0 -97 -7 -209 -24 -414 -28 -528 -29 -750 l-1 -228 -75 0 c-68
0 -75 -2 -75 -20 0 -18 7 -20 75 -20 l75 0 0 -630 0 -630 -95 0 c-88 0 -95 -1
-95 -20 0 -19 7 -20 95 -20 l94 0 5 -442 c3 -244 8 -509 11 -590 5 -130 4
-148 -9 -148 -20 0 -21 -34 -1 -50 11 -9 22 -9 46 -1 21 7 138 11 330 11 l299
0 0 -24 c0 -14 5 -37 10 -51 9 -23 13 -25 25 -15 9 7 15 29 15 51 l0 39 53 1
c28 0 160 4 291 8 238 9 240 9 258 -13 18 -21 18 -21 39 4 23 28 -16 25 427
32 l142 3 0 -63 c0 -67 12 -102 34 -102 18 0 26 32 26 109 l0 64 343 -8 c461
-10 791 -10 1502 2 330 6 604 7 608 3 5 -4 -13 -24 -40 -45 -52 -40 -68 -60
-58 -75 12 -19 36 -9 103 42 77 60 82 66 75 85 -3 8 2 13 16 13 14 0 21 6 21
20 0 15 -7 20 -29 20 -17 0 -56 19 -102 50 -81 54 -90 57 -109 35 -11 -13 -10
-22 3 -50 15 -31 15 -34 -1 -41 -9 -5 -271 -12 -582 -17 -311 -4 -614 -9 -675
-10 -60 -1 -325 3 -589 8 l-478 8 -10 29 c-14 39 -46 38 -55 -2 l-5 -30 -188
0 c-103 0 -228 -3 -278 -6 l-92 -7 0 45 c0 28 -6 50 -15 58 -24 20 -45 -5 -45
-56 0 -43 0 -43 -42 -48 -24 -3 -135 -8 -248 -11 -113 -3 -228 -8 -257 -12
-48 -5 -51 -4 -55 18 -4 34 -53 35 -52 2 1 -23 1 -23 -283 -23 -156 0 -283 2
-283 5 0 3 11 28 25 55 40 78 28 111 -17 49 l-23 -31 -8 74 c-4 40 -10 286
-13 546 -4 367 -3 476 7 488 9 11 9 18 1 26 -9 9 -12 178 -12 640 l0 628 34 0
c19 0 42 3 50 6 29 11 -3 34 -45 34 l-39 0 0 323 c0 303 5 421 32 729 l11 128
32 -20 c76 -47 87 -11 16 49 -27 23 -52 52 -55 66 -4 16 -13 25 -26 25 -10 0
-22 5 -25 10 -11 18 -53 11 -83 -14z m65 -42 c3 -9 -15 -21 -61 -43 -5 -2 1
11 13 28 22 31 41 36 48 15z"/>
<path d="M170 27661 c-12 -9 -12 -13 -2 -19 30 -19 482 -27 1677 -27 1113 0
1260 2 1260 15 0 13 -147 16 -1235 21 -679 3 -1336 9 -1460 13 -155 5 -230 4
-240 -3z"/>
<path d="M3676 27578 c-3 -24 -8 -522 -11 -1108 -9 -1836 -23 -3533 -36 -4115
-16 -811 -17 -1237 0 -1375 7 -63 16 -168 20 -233 4 -88 10 -120 21 -127 25
-16 45 -7 43 20 -3 42 -22 248 -34 370 -11 120 -8 577 11 1720 9 549 21 1876
36 3964 3 461 3 859 -1 882 -5 34 -11 44 -25 44 -15 0 -20 -9 -24 -42z"/>
<path d="M650 27135 c-10 -12 -7 -21 14 -46 22 -26 26 -40 26 -93 0 -34 -6
-85 -14 -114 -14 -55 -94 -184 -108 -176 -4 3 -8 25 -8 49 0 67 -34 160 -79
219 -41 53 -90 84 -110 71 -19 -11 -12 -24 43 -79 65 -66 87 -123 95 -250 9
-140 40 -138 147 10 60 84 75 125 84 229 9 106 -5 157 -50 180 -24 13 -30 13
-40 0z"/>
<path d="M1469 27003 c-9 -2 -33 -30 -53 -62 -32 -53 -90 -106 -168 -156 -16
-9 -28 -24 -28 -31 0 -28 29 -25 75 6 50 35 64 33 47 -4 -6 -13 -13 -44 -17
-68 -5 -35 -3 -48 10 -62 26 -26 40 -14 43 35 4 74 48 191 87 229 44 43 62 84
45 105 -7 8 -15 14 -19 14 -3 -1 -13 -3 -22 -6z"/>
<path d="M14820 26970 c0 -19 7 -20 89 -20 50 0 92 -4 96 -10 10 -16 -16 -46
-61 -71 -48 -26 -60 -59 -21 -59 29 -1 88 -31 101 -52 17 -28 -2 -37 -94 -45
-66 -6 -85 -11 -85 -23 0 -12 17 -16 84 -18 93 -3 133 8 148 41 16 36 -3 85
-41 108 l-34 20 29 30 c31 33 39 85 17 107 -8 8 -49 12 -120 12 -101 0 -108
-1 -108 -20z"/>
<path d="M13349 26947 c-24 -13 -44 -30 -44 -38 0 -20 39 -23 67 -5 13 8 39
16 58 18 33 3 35 1 38 -31 3 -27 -6 -48 -44 -102 -67 -98 -65 -100 103 -97
121 3 138 5 141 20 3 15 -9 18 -107 20 l-110 3 41 60 c36 54 39 64 34 104 -3
24 -11 50 -17 57 -19 23 -109 17 -160 -9z"/>
<path d="M8107 26903 c-20 -19 -4 -32 46 -35 44 -3 52 -6 55 -24 2 -14 -8 -29
-33 -48 -42 -32 -47 -66 -10 -66 59 0 89 -84 41 -115 -15 -10 -47 -16 -86 -16
-57 -1 -61 -2 -58 -22 3 -20 9 -22 74 -21 76 0 111 15 138 57 21 32 6 105 -27
133 -25 22 -26 22 -6 40 25 23 26 85 1 107 -19 17 -121 25 -135 10z"/>
<path d="M3024 26882 c-5 -4 -16 -21 -22 -37 -17 -40 -156 -183 -187 -191 -36
-9 -45 2 -46 59 -1 74 -11 101 -37 105 -17 3 -29 -8 -52 -45 -46 -73 -71 -129
-77 -174 -6 -40 -5 -41 23 -37 19 2 38 16 60 45 l32 42 23 -25 c46 -49 112
-25 209 77 l56 58 12 -46 c7 -25 21 -58 31 -72 10 -14 21 -36 25 -48 5 -16 15
-21 39 -21 18 0 62 -3 98 -7 50 -6 72 -4 95 8 45 23 67 53 60 80 -8 33 -54 50
-136 51 -56 1 -74 -3 -99 -21 l-30 -23 -15 22 c-11 16 -16 46 -16 103 0 90
-14 119 -46 97z m282 -235 c11 -11 -15 -34 -44 -40 -29 -6 -98 6 -110 18 -4 4
2 13 13 22 20 15 126 15 141 0z"/>
<path d="M1954 26863 c-29 -86 -99 -180 -155 -209 -39 -20 -49 -18 -49 10 0
13 -7 29 -15 36 -20 17 -45 -3 -45 -37 0 -28 41 -73 67 -73 37 1 99 39 146 88
l47 51 0 -64 c0 -57 3 -66 24 -80 31 -20 51 -11 100 46 31 37 36 40 42 23 25
-70 86 -79 186 -26 4 2 14 -12 22 -32 17 -42 42 -56 96 -56 82 0 128 45 137
134 5 51 4 54 -28 78 -41 31 -97 42 -135 28 -16 -6 -57 -41 -92 -76 -55 -57
-67 -65 -95 -62 l-32 3 -3 82 c-2 56 -7 85 -17 93 -20 16 -41 -1 -50 -40 -3
-16 -25 -55 -48 -87 l-42 -58 -5 120 c-5 115 -6 120 -28 123 -14 2 -24 -3 -28
-15z m534 -139 c53 -37 4 -144 -67 -144 -37 0 -51 22 -51 84 0 50 24 76 70 76
14 0 36 -7 48 -16z"/>
<path d="M885 26865 c-5 -2 -22 -6 -37 -9 -20 -5 -28 -13 -28 -27 0 -20 4 -21
48 -14 26 4 80 8 119 9 81 3 98 11 69 32 -18 13 -141 19 -171 9z"/>
<path d="M6905 26800 c-11 -18 6 -30 45 -30 29 0 42 -5 50 -20 12 -23 1 -44
-72 -133 -51 -62 -58 -86 -32 -111 22 -22 196 -23 214 -1 14 17 0 21 -98 29
-35 2 -66 7 -69 10 -3 3 14 27 37 53 47 53 80 112 80 141 0 11 -9 31 -21 46
-18 22 -28 26 -74 26 -30 0 -57 -4 -60 -10z"/>
<path d="M800 26730 c0 -21 3 -22 89 -18 87 3 112 10 97 26 -4 4 -48 9 -97 10
-86 4 -89 3 -89 -18z"/>
<path d="M4955 26583 c-11 -3 -46 -16 -77 -30 -44 -20 -65 -37 -88 -71 -30
-46 -39 -95 -19 -108 14 -8 6 -52 -27 -149 -25 -75 -25 -95 1 -95 20 0 49 60
71 146 l18 72 60 6 c74 8 136 36 176 82 74 84 3 175 -115 147z m89 -65 c23
-38 -56 -103 -142 -117 l-50 -8 -5 36 c-5 45 5 58 68 88 57 26 112 27 129 1z"/>
<path d="M12007 26559 c-21 -5 -51 -16 -68 -25 -17 -8 -38 -13 -46 -10 -20 8
-43 -11 -43 -35 0 -10 -11 -39 -25 -65 -25 -47 -33 -109 -16 -116 6 -2 2 -37
-9 -83 -13 -56 -15 -83 -8 -92 28 -35 45 2 83 182 15 72 34 137 42 147 8 9 37
26 65 38 64 27 128 21 165 -16 24 -24 24 -26 7 -45 -18 -20 -125 -56 -184 -61
-27 -2 -35 -7 -35 -23 0 -17 6 -20 47 -18 63 2 182 41 213 69 80 74 -56 185
-188 153z"/>
<path d="M14156 26475 c-6 -16 29 -54 53 -57 9 -1 -92 -5 -224 -9 -132 -3
-259 -10 -282 -14 -34 -6 -43 -5 -43 6 0 30 -19 43 -67 45 -51 2 -93 -16 -93
-41 0 -7 -10 -15 -22 -17 -28 -4 -35 -26 -11 -34 10 -3 26 -10 35 -15 10 -5
24 -9 32 -9 17 0 23 -66 32 -323 l6 -177 -46 -50 c-67 -71 -59 -113 14 -75
l28 14 4 -47 c2 -26 5 -149 7 -274 2 -201 1 -228 -13 -228 -8 0 -22 -13 -31
-29 -8 -17 -25 -31 -37 -33 -30 -4 -30 -32 -1 -36 13 -2 35 -16 50 -32 24 -26
27 -36 27 -112 1 -82 1 -83 26 -83 25 0 25 0 25 97 0 100 4 111 47 132 50 25
29 96 -29 96 l-23 0 0 279 c0 154 3 286 6 295 5 13 11 12 38 -9 35 -27 76 -33
76 -12 0 7 -15 27 -32 44 -88 83 -88 82 -89 222 0 69 -4 177 -7 239 -4 68 -3
116 2 120 11 6 37 8 411 17 280 8 280 8 261 -13 -20 -23 -16 -52 7 -52 8 0 20
7 28 16 7 8 34 27 61 40 43 22 65 25 217 31 166 6 169 6 180 -15 7 -12 17 -22
24 -22 30 0 43 -35 39 -103 -4 -62 -3 -67 16 -67 23 0 32 18 32 65 0 18 7 68
15 111 13 71 13 79 -2 96 -23 25 -100 25 -127 -1 -19 -17 -40 -19 -211 -22
-155 -2 -204 1 -265 15 -41 10 -79 25 -83 32 -11 19 -53 18 -61 -1z"/>
<path d="M7780 26420 l-32 -30 -278 0 c-262 0 -279 1 -303 20 -31 25 -39 25
-62 0 -12 -13 -33 -20 -69 -22 -37 -2 -51 -7 -51 -18 0 -11 13 -16 46 -18 44
-3 47 -5 51 -34 3 -17 -3 -52 -13 -77 -21 -57 -143 -304 -190 -386 -19 -33
-40 -74 -47 -91 -10 -23 -26 -36 -67 -53 -56 -23 -149 -105 -142 -125 8 -25
46 -15 93 24 45 37 64 47 64 35 0 -3 -20 -47 -44 -98 -24 -50 -75 -159 -114
-242 -70 -150 -71 -150 -108 -155 -50 -7 -62 -28 -45 -82 7 -24 16 -79 20
-123 6 -77 7 -80 31 -80 24 0 25 3 30 80 4 54 12 94 27 124 13 24 20 47 18 51
-3 4 39 99 93 211 54 112 111 234 127 271 17 37 32 68 35 68 3 0 14 -17 25
-37 23 -41 42 -52 51 -29 9 24 -3 61 -32 95 l-26 31 48 88 c59 106 181 354
199 402 l14 35 0 -41 c1 -49 22 -74 46 -54 11 9 15 33 15 85 0 41 3 80 6 89 5
14 40 16 289 16 179 0 286 -4 290 -10 9 -15 81 -12 94 3 21 26 24 73 6 90 -25
25 -59 21 -95 -13z"/>
<path d="M6125 26380 c-14 -23 13 -31 91 -28 62 2 79 6 79 18 0 12 -17 16 -82
18 -52 2 -84 -1 -88 -8z"/>
<path d="M6395 26380 c-13 -22 9 -30 81 -30 67 0 74 2 74 20 0 18 -7 20 -74
20 -41 0 -78 -4 -81 -10z"/>
<path d="M6685 26379 c-14 -22 14 -30 106 -27 76 2 94 6 94 18 0 12 -19 16
-97 18 -63 2 -99 -1 -103 -9z"/>
<path d="M13185 26380 c-14 -23 13 -31 91 -28 62 2 79 6 79 18 0 12 -17 16
-82 18 -52 2 -84 -1 -88 -8z"/>
<path d="M7820 26271 c-16 -31 -13 -126 5 -141 12 -10 18 -10 30 0 28 23 15
160 -15 160 -5 0 -14 -9 -20 -19z"/>
<path d="M12340 26252 c-44 -36 6 -52 76 -25 10 4 14 -3 14 -24 0 -34 -22 -58
-62 -68 -18 -5 -28 -14 -28 -26 0 -15 7 -19 34 -19 34 0 104 -45 91 -59 -4 -3
-41 -10 -83 -16 -57 -7 -77 -14 -77 -25 0 -12 16 -16 70 -18 132 -5 185 53
110 121 -32 30 -35 35 -21 46 19 16 22 101 4 119 -19 19 -102 15 -128 -6z"/>
<path d="M12003 26223 c-28 -5 -49 -31 -36 -44 6 -6 28 -6 61 1 103 19 108
-11 15 -96 -85 -77 -83 -94 12 -94 71 0 141 22 129 41 -4 8 -26 10 -66 5 l-60
-6 51 46 c42 38 51 52 51 80 0 64 -54 87 -157 67z"/>
<path d="M4926 26195 c-50 -17 -74 -41 -59 -56 8 -8 19 -6 41 5 41 21 62 20
62 -2 0 -22 -52 -98 -87 -127 -16 -13 -24 -29 -22 -40 9 -44 156 -24 174 22 4
13 -2 14 -42 8 -47 -7 -47 -7 -30 17 53 74 72 149 45 176 -15 15 -33 15 -82
-3z"/>
<path d="M5145 26200 c-12 -20 7 -30 56 -30 27 0 49 -4 49 -10 0 -5 -20 -26
-45 -47 -49 -40 -57 -75 -20 -81 56 -8 69 -13 55 -22 -8 -5 -36 -12 -62 -15
-38 -6 -48 -11 -48 -26 0 -15 7 -19 38 -19 46 0 129 27 135 43 8 21 -12 57
-38 69 l-26 11 31 32 c25 26 31 40 28 66 l-3 34 -72 3 c-42 2 -74 -1 -78 -8z"/>
<path d="M14836 26054 c-3 -9 -6 -35 -6 -59 0 -56 8 -75 30 -75 22 0 30 19 30
75 0 56 -8 75 -30 75 -10 0 -21 -7 -24 -16z"/>
<path d="M7136 26034 c-6 -15 -3 -51 10 -112 3 -17 10 -22 27 -20 20 3 22 8
20 52 -2 71 -11 96 -32 96 -10 0 -22 -7 -25 -16z"/>
<path d="M7815 25997 c-4 -13 -5 -46 -3 -73 3 -45 5 -49 28 -49 23 0 25 4 28
49 4 68 -4 96 -28 96 -12 0 -22 -9 -25 -23z"/>
<path d="M14826 25781 c-11 -17 -19 -137 -12 -166 5 -20 12 -26 29 -23 21 3
22 8 22 98 0 80 -3 95 -17 98 -9 2 -19 -1 -22 -7z"/>
<path d="M7154 25757 c-3 -8 -4 -52 -2 -98 3 -82 4 -84 28 -84 24 0 25 2 28
83 3 85 -6 112 -35 112 -7 0 -16 -6 -19 -13z"/>
<path d="M543 25729 c-81 -27 -148 -88 -159 -144 -4 -22 -3 -67 3 -100 8 -48
6 -83 -9 -174 -21 -127 -21 -196 1 -196 21 0 28 21 46 140 8 61 21 133 27 161
10 47 13 52 43 57 54 9 162 63 181 92 9 14 19 48 22 74 3 39 0 52 -19 74 -33
36 -63 40 -136 16z m98 -50 c15 -29 -3 -92 -34 -111 -34 -22 -117 -52 -124
-44 -3 3 -1 27 6 54 7 26 13 56 15 67 2 13 17 25 47 36 60 23 76 23 90 -2z"/>
<path d="M7815 25717 c-3 -7 -5 -49 -3 -93 3 -77 4 -79 28 -79 25 0 25 1 25
90 0 86 -1 90 -23 93 -12 2 -24 -3 -27 -11z"/>
<path d="M2087 25595 c-42 -29 -86 -108 -112 -201 -9 -32 -20 -67 -26 -77 -5
-10 -8 -21 -5 -25 2 -4 -8 -80 -23 -170 -15 -89 -24 -167 -20 -173 3 -6 15 -9
25 -7 16 3 25 31 53 165 l35 161 56 6 c68 8 173 55 194 88 51 78 45 163 -15
220 -50 48 -104 52 -162 13z m122 -46 c29 -29 37 -54 31 -104 -6 -60 -79 -111
-172 -122 -55 -7 -55 -6 -34 72 21 78 53 138 89 163 41 29 49 28 86 -9z"/>
<path d="M1618 25579 c-10 -5 -18 -19 -18 -30 0 -23 27 -36 43 -20 32 32 107
-13 107 -64 0 -34 -48 -85 -135 -143 -73 -50 -103 -87 -91 -117 6 -16 17 -17
99 -13 91 5 175 30 192 58 14 23 -7 23 -98 1 -52 -13 -104 -21 -118 -19 -21 3
-17 8 36 43 98 65 125 88 146 121 21 35 25 90 8 127 -23 50 -125 84 -171 56z"/>
<path d="M6281 25537 c-50 -55 -103 -138 -97 -153 8 -22 33 -16 57 14 l22 27
-7 -32 c-3 -18 -9 -46 -12 -63 -5 -23 -2 -31 11 -36 24 -10 43 18 50 75 3 25
12 72 20 103 19 72 19 84 0 92 -9 3 -26 -7 -44 -27z"/>
<path d="M1227 25504 c-27 -27 21 -50 117 -56 61 -4 71 14 19 34 -46 19 -126
31 -136 22z"/>
<path d="M14815 25467 c-4 -13 -5 -46 -3 -73 3 -45 5 -49 28 -49 23 0 25 4 28
49 4 68 -4 96 -28 96 -12 0 -22 -9 -25 -23z"/>
<path d="M7156 25454 c-12 -32 -6 -121 9 -134 26 -22 45 5 45 65 0 66 -7 85
-30 85 -10 0 -21 -7 -24 -16z"/>
<path d="M7820 25421 c-16 -30 -13 -116 5 -131 12 -10 18 -10 30 0 28 23 15
150 -15 150 -5 0 -14 -9 -20 -19z"/>
<path d="M1204 25376 c-4 -9 -4 -19 -1 -22 9 -9 80 -24 117 -24 45 0 112 19
105 29 -2 5 -37 11 -77 15 -40 4 -88 9 -105 13 -25 4 -34 1 -39 -11z"/>
<path d="M554 25336 c-33 -15 -74 -60 -74 -83 0 -31 32 -25 61 11 46 55 89 44
89 -21 0 -30 -31 -101 -77 -174 -28 -44 -13 -59 60 -59 73 0 123 14 131 37 6
14 -3 15 -69 9 l-75 -7 30 49 c36 59 60 124 55 149 -2 10 -6 30 -10 45 -3 17
-17 34 -35 43 -35 18 -46 18 -86 1z"/>
<path d="M807 25323 c-4 -3 -7 -12 -7 -20 0 -9 15 -13 49 -13 28 0 52 -4 55
-8 3 -5 -10 -24 -29 -42 -42 -41 -45 -65 -7 -75 32 -8 82 -52 82 -73 0 -14 -6
-14 -84 0 -28 5 -31 -17 -5 -43 17 -17 29 -20 65 -16 53 6 74 21 74 55 0 31
-36 87 -67 103 -21 11 -21 12 -2 33 29 31 34 63 14 86 -14 15 -31 20 -75 20
-31 0 -60 -3 -63 -7z"/>
<path d="M2375 25259 c-33 -16 -68 -29 -77 -29 -12 0 -18 -8 -18 -21 0 -20 4
-21 45 -17 49 6 50 6 35 -22 -13 -25 -31 -165 -24 -185 4 -8 15 -15 25 -15 20
0 24 12 34 103 6 61 33 126 67 164 23 25 18 53 -9 52 -10 0 -45 -14 -78 -30z"/>
<path d="M5029 25236 c-58 -20 -109 -56 -130 -90 -23 -38 -25 -76 -4 -76 19 0
19 -15 -1 -45 -13 -20 -14 -28 -4 -40 12 -15 3 -102 -22 -202 -12 -48 -6 -73
17 -73 21 0 33 35 52 157 16 97 19 104 43 109 68 15 128 42 162 75 34 32 38
41 38 87 0 65 -6 79 -41 97 -34 18 -62 18 -110 1z m91 -55 c30 -58 -9 -115
-101 -144 -28 -10 -53 -16 -54 -15 -1 2 1 32 4 68 6 63 7 65 46 87 50 28 91
30 105 4z"/>
<path d="M12180 25226 c-116 -38 -200 -108 -200 -167 0 -26 3 -30 23 -27 14 2
23 11 25 25 4 27 32 53 32 29 0 -8 -6 -33 -14 -53 -26 -68 -70 -233 -64 -239
4 -3 16 -3 27 1 16 5 28 30 53 111 31 103 32 104 62 104 139 0 260 132 200
218 -19 28 -56 27 -144 -2z m110 -43 c0 -25 -35 -79 -62 -97 -23 -15 -109 -38
-116 -31 -2 2 1 27 8 55 9 37 19 54 34 60 93 35 136 39 136 13z"/>
<path d="M14831 25133 c1 -90 10 -117 37 -121 25 -4 26 6 15 121 -5 62 -8 67
-29 67 -23 0 -24 -3 -23 -67z"/>
<path d="M7157 25174 c-4 -4 -7 -44 -7 -89 0 -61 4 -86 15 -95 12 -10 18 -10
30 0 12 10 15 31 13 99 -3 78 -5 86 -23 89 -12 2 -24 0 -28 -4z"/>
<path d="M7816 25134 c-3 -9 -6 -48 -6 -89 0 -52 4 -76 15 -85 29 -24 45 5 45
85 0 86 -6 105 -30 105 -10 0 -21 -7 -24 -16z"/>
<path d="M5996 25095 c-14 -37 3 -46 83 -43 60 2 76 6 76 18 0 11 -14 16 -57
18 -32 2 -58 7 -58 12 0 16 -37 11 -44 -5z"/>
<path d="M6302 25100 c-43 -10 -60 -26 -45 -41 7 -7 33 -8 79 -2 60 7 69 11
69 28 0 16 -7 20 -35 22 -19 1 -50 -2 -68 -7z"/>
<path d="M13205 25100 c-14 -23 13 -31 91 -28 62 2 79 6 79 18 0 12 -17 16
-82 18 -52 2 -84 -1 -88 -8z"/>
<path d="M13342 24958 c-7 -7 -12 -16 -12 -20 0 -23 -141 -188 -161 -188 -5 0
-9 -9 -9 -20 0 -34 45 -25 92 20 23 21 44 37 46 35 2 -2 -1 -26 -7 -52 -6 -26
-12 -75 -14 -108 -2 -58 -1 -60 23 -60 24 0 25 4 32 70 7 76 31 208 50 267 8
29 8 41 -2 53 -15 18 -22 19 -38 3z"/>
<path d="M14861 24901 c-8 -5 -11 -31 -9 -77 2 -55 6 -69 20 -72 25 -5 36 27
31 90 -5 56 -18 74 -42 59z"/>
<path d="M7156 24864 c-3 -9 -6 -35 -6 -59 0 -56 8 -75 30 -75 22 0 30 19 30
75 0 56 -8 75 -30 75 -10 0 -21 -7 -24 -16z"/>
<path d="M12245 24856 c-39 -17 -69 -51 -62 -71 9 -21 23 -19 47 7 33 36 33
14 -1 -55 -32 -64 -34 -97 -5 -97 17 0 96 160 96 195 0 13 -7 26 -16 29 -21 8
-24 7 -59 -8z"/>
<path d="M7820 24831 c-11 -22 -14 -90 -4 -115 3 -9 14 -16 24 -16 22 0 30 19
30 71 0 42 -14 79 -30 79 -5 0 -14 -9 -20 -19z"/>
<path d="M5189 24807 c-37 -22 -109 -101 -109 -118 0 -20 36 -7 69 24 18 17
32 25 29 17 -45 -134 -48 -165 -14 -165 15 0 23 11 31 45 7 25 24 78 39 119
20 56 24 77 15 87 -15 18 -18 18 -60 -9z"/>
<path d="M6362 24783 c-61 -80 -107 -192 -57 -142 37 36 110 179 92 179 -3 0
-18 -17 -35 -37z"/>
<path d="M6475 24697 c-9 -70 0 -99 28 -95 20 3 22 9 22 73 0 64 -2 70 -22 73
-19 3 -22 -3 -28 -51z"/>
<path d="M13576 24708 c-8 -30 -8 -92 0 -112 3 -9 14 -16 24 -16 22 0 30 19
30 68 0 55 -10 82 -30 82 -10 0 -20 -10 -24 -22z"/>
<path d="M14877 24613 c-4 -3 -7 -43 -7 -88 0 -64 4 -86 16 -96 29 -24 43 12
38 95 -3 39 -7 77 -10 84 -4 13 -26 16 -37 5z"/>
<path d="M7162 24588 c-12 -12 -17 -143 -6 -172 3 -9 14 -16 24 -16 24 0 30
19 30 104 0 65 -10 96 -30 96 -3 0 -11 -5 -18 -12z"/>
<path d="M7816 24544 c-3 -9 -6 -44 -6 -79 0 -76 6 -95 30 -95 24 0 30 19 30
95 0 76 -6 95 -30 95 -10 0 -21 -7 -24 -16z"/>
<path d="M500 24500 c-25 -5 -68 -9 -96 -9 -60 -1 -82 -18 -64 -50 13 -25 23
-26 40 -6 8 10 31 15 65 15 l53 0 -9 -37 c-5 -21 -9 -65 -9 -98 0 -60 -18
-153 -45 -233 -22 -63 -20 -102 5 -102 11 0 22 6 24 13 38 120 50 172 68 278
22 133 20 175 -10 181 -9 3 65 8 166 12 161 7 183 10 180 25 -3 14 -24 16
-163 17 -88 1 -180 -2 -205 -6z"/>
<path d="M6174 24458 c-39 -43 -57 -72 -87 -144 -41 -99 -42 -106 -16 -102 17
2 29 19 51 70 15 36 44 93 63 126 51 87 45 110 -11 50z"/>
<path d="M1648 24464 c-21 -21 -6 -34 37 -34 48 0 85 -25 85 -57 0 -9 -25 -40
-55 -69 -79 -77 -72 -118 25 -144 19 -5 51 -19 70 -31 35 -22 35 -22 10 -31
-14 -6 -56 -14 -94 -19 -73 -9 -93 -19 -81 -39 10 -17 148 -7 196 14 100 42
64 95 -109 162 -22 9 -21 11 34 67 54 55 56 59 51 98 -8 60 -34 82 -104 87
-32 2 -61 0 -65 -4z"/>
<path d="M6476 24452 c-3 -9 -1 -33 4 -52 6 -19 10 -51 10 -71 0 -45 22 -68
46 -48 16 13 14 70 -7 152 -11 40 -43 52 -53 19z"/>
<path d="M13577 24434 c-9 -9 -9 -146 -1 -168 9 -24 43 -20 49 7 3 12 5 54 3
92 -3 62 -5 70 -23 73 -12 2 -24 0 -28 -4z"/>
<path d="M2741 24417 c-8 -10 -11 -67 -9 -193 3 -176 3 -179 25 -182 16 -2 29
7 49 38 28 41 28 41 40 18 41 -79 201 -137 260 -94 26 20 17 25 -55 32 -44 5
-75 15 -106 36 -81 54 -72 83 56 188 60 49 94 83 94 96 0 58 -115 -6 -232
-129 l-72 -76 -3 137 c-3 116 -5 137 -19 140 -9 1 -21 -4 -28 -11z"/>
<path d="M1994 24324 c-54 -26 -64 -86 -21 -122 13 -11 13 -17 0 -52 -21 -53
-11 -88 32 -106 71 -29 168 -6 215 52 17 22 24 25 28 15 11 -32 51 -59 101
-70 71 -15 175 -14 214 3 40 16 87 70 87 99 0 74 -103 138 -222 140 -90 2
-136 -15 -154 -57 -9 -21 -13 -25 -14 -12 0 34 -40 84 -84 105 -51 25 -137 27
-182 5z m189 -75 c29 -32 30 -43 7 -104 -13 -35 -67 -65 -115 -65 -58 0 -67
13 -47 66 16 42 16 44 -6 64 -40 37 -25 75 33 82 52 6 99 -9 128 -43z m311
-20 c47 -12 106 -58 106 -84 0 -22 -48 -65 -74 -66 -51 -4 -154 3 -184 12 -42
14 -53 51 -23 83 11 12 21 30 21 38 0 28 79 36 154 17z"/>
<path d="M14876 24304 c-3 -9 -6 -35 -6 -59 0 -56 8 -75 30 -75 10 0 21 7 24
16 8 20 8 82 0 112 -7 25 -39 30 -48 6z"/>
<path d="M7156 24274 c-12 -31 -6 -111 9 -124 25 -21 45 5 45 60 0 61 -7 80
-30 80 -10 0 -21 -7 -24 -16z"/>
<path d="M1074 24255 c-8 -20 4 -35 26 -35 11 0 42 -9 71 -20 88 -35 206 -36
185 -2 -4 6 -28 14 -54 17 -26 4 -75 17 -110 31 -71 27 -110 31 -118 9z"/>
<path d="M7816 24244 c-3 -9 -6 -33 -6 -54 0 -51 8 -70 30 -70 22 0 30 19 30
70 0 51 -8 70 -30 70 -10 0 -21 -7 -24 -16z"/>
<path d="M6517 24163 c-13 -13 -7 -90 8 -103 32 -27 60 40 39 94 -6 16 -35 22
-47 9z"/>
<path d="M13576 24124 c-3 -9 -6 -33 -6 -54 0 -51 8 -70 30 -70 22 0 30 19 30
70 0 51 -8 70 -30 70 -10 0 -21 -7 -24 -16z"/>
<path d="M1116 24107 c-37 -27 -9 -37 107 -37 114 0 157 10 127 30 -8 5 -51
10 -95 10 -44 0 -89 3 -100 6 -11 3 -29 -1 -39 -9z"/>
<path d="M828 24009 c-72 -77 -87 -109 -52 -109 8 0 26 7 39 16 30 20 30 19 4
-73 -23 -85 -22 -118 4 -118 16 0 27 28 64 155 25 85 46 166 47 180 2 47 -29
32 -106 -51z"/>
<path d="M9687 23663 c-4 -3 -7 -12 -7 -20 0 -10 32 -13 151 -13 l150 0 -19
-27 c-26 -38 -60 -142 -76 -233 -15 -86 -12 -102 18 -98 16 2 22 13 29 53 14
91 39 179 63 229 14 27 23 55 20 62 -4 11 22 14 117 16 101 3 122 6 122 18 0
13 -39 15 -281 18 -154 1 -283 -1 -287 -5z"/>
<path d="M6005 23640 c-14 -23 11 -30 106 -30 l99 0 0 -179 c0 -146 3 -181 15
-191 12 -10 18 -10 30 0 12 10 15 44 15 191 l0 178 118 3 c96 2 117 6 117 18
0 13 -35 15 -247 18 -159 1 -249 -1 -253 -8z"/>
<path d="M6985 23620 c-12 -20 7 -30 56 -30 l49 0 0 -199 c0 -164 3 -201 15
-211 12 -10 18 -10 30 0 12 10 15 47 15 211 l0 198 103 3 c83 2 102 6 102 18
0 13 -28 15 -182 18 -116 1 -184 -1 -188 -8z"/>
<path d="M7965 23620 c-22 -5 -73 -9 -112 -9 -64 -1 -73 -3 -73 -19 0 -23 48
-48 64 -32 5 5 32 10 59 10 47 0 49 -1 42 -22 -10 -31 -19 -361 -11 -393 4
-16 13 -25 26 -25 11 0 21 1 22 3 1 1 5 94 9 207 4 113 9 212 10 221 4 22 129
35 159 17 27 -17 50 4 34 30 -9 14 -28 17 -100 19 -49 0 -107 -3 -129 -7z"/>
<path d="M14767 23604 c-24 -25 7 -88 100 -204 95 -118 100 -118 197 2 41 51
93 112 116 135 46 47 50 63 17 63 -32 0 -61 -23 -108 -86 -22 -30 -60 -77 -84
-104 l-44 -49 -58 76 c-32 43 -69 97 -83 122 -25 45 -40 57 -53 45z"/>
<path d="M17586 23527 c-38 -39 -95 -144 -157 -285 -13 -29 -27 -56 -31 -58
-8 -5 -88 156 -124 251 -16 40 -24 50 -43 50 -36 0 -50 -30 -25 -53 11 -11 30
-46 42 -78 33 -87 104 -215 128 -231 18 -12 24 -11 45 6 27 21 58 78 89 162
27 74 110 211 135 224 43 22 47 26 34 41 -20 25 -51 15 -93 -29z"/>
<path d="M13706 23490 c-26 -32 -98 -169 -109 -209 -8 -31 -19 -22 -60 52 -40
69 -131 177 -152 177 -22 0 -38 -28 -31 -55 4 -17 13 -25 29 -25 24 0 78 -63
112 -130 25 -49 74 -110 89 -110 21 0 53 42 74 97 11 29 36 81 56 117 28 50
40 63 55 59 23 -6 34 10 26 37 -10 32 -58 26 -89 -10z"/>
<path d="M8133 23306 c-27 -23 -27 -26 -11 -42 16 -17 19 -17 36 -1 21 19 52
23 52 7 0 -6 -16 -27 -35 -47 -19 -20 -35 -42 -35 -50 0 -8 25 -25 55 -38 38
-17 55 -30 55 -43 0 -21 -44 -46 -105 -59 -25 -5 -40 -14 -40 -23 0 -25 105
-18 149 9 70 44 70 96 0 141 -39 24 -42 29 -28 41 37 30 47 85 22 117 -18 21
-84 15 -115 -12z"/>
<path d="M6502 23276 c-35 -33 -36 -36 -20 -52 17 -17 19 -17 46 9 15 15 31
27 34 27 3 0 -5 -27 -19 -60 -31 -77 -28 -125 7 -125 21 0 24 5 26 35 0 19 13
63 28 98 32 76 25 102 -29 102 -26 0 -45 -9 -73 -34z"/>
<path d="M7212 23274 c-12 -8 -22 -23 -22 -33 0 -26 31 -36 46 -16 15 20 53
16 68 -7 14 -23 1 -44 -52 -83 -42 -31 -58 -57 -47 -75 3 -6 49 -10 104 -10
82 0 101 3 114 18 10 10 15 21 12 24 -3 3 -38 3 -78 1 l-72 -4 38 33 c30 27
37 40 37 70 0 50 -8 66 -41 83 -36 19 -79 19 -107 -1z"/>
<path d="M13775 23213 c-11 -27 -25 -214 -19 -240 7 -26 39 -31 48 -7 3 9 6
50 6 92 0 43 4 92 9 110 6 18 7 40 4 48 -7 20 -39 18 -48 -3z"/>
<path d="M15114 23220 c-53 -21 -36 -60 18 -43 66 20 80 -18 23 -61 -44 -34
-45 -58 -2 -74 17 -6 47 -21 66 -33 33 -20 34 -22 15 -33 -10 -6 -59 -15 -109
-21 -69 -8 -90 -14 -90 -25 0 -12 17 -15 95 -15 78 0 101 4 130 21 53 30 53
65 0 103 -23 16 -46 31 -53 34 -7 2 -3 14 11 32 59 75 -11 153 -104 115z"/>
<path d="M13905 23200 c-11 -19 6 -30 46 -30 38 0 79 -26 79 -50 0 -6 -21 -33
-46 -60 -26 -28 -44 -56 -42 -66 4 -24 61 -42 131 -43 63 -1 97 11 97 34 0 12
-16 15 -80 15 -44 0 -80 3 -80 6 0 4 16 24 35 45 45 50 47 89 6 130 -25 25
-37 29 -85 29 -30 0 -58 -4 -61 -10z"/>
<path d="M475 23089 c-7 -20 -12 -21 -69 -15 -33 4 -76 9 -93 13 -30 5 -33 3
-33 -20 0 -31 19 -37 119 -37 l73 0 -3 -172 c-4 -167 -3 -173 16 -173 28 0 43
72 44 221 l1 121 124 6 c70 4 139 13 158 21 l33 14 -30 11 c-21 9 -51 9 -115
2 -132 -17 -167 -15 -175 9 -8 26 -42 26 -50 -1z"/>
<path d="M1818 23094 c-101 -31 -165 -133 -121 -192 26 -36 73 -51 157 -51
l69 -1 -24 -26 c-13 -14 -51 -40 -83 -56 -51 -26 -67 -29 -107 -24 -53 7 -71
-10 -42 -40 38 -38 201 15 269 88 58 61 81 108 83 169 1 31 -3 68 -8 82 -19
51 -113 75 -193 51z m110 -45 c37 -13 45 -34 37 -94 -8 -53 -22 -59 -110 -57
-65 2 -111 16 -119 37 -9 25 29 79 73 102 49 26 73 28 119 12z"/>
<path d="M2904 23082 c-28 -18 -63 -124 -95 -285 -20 -105 10 -133 81 -77 37
29 39 30 49 12 17 -31 88 -54 187 -60 87 -4 134 5 134 27 0 5 -44 12 -97 16
-112 7 -183 28 -183 54 0 9 7 27 16 39 21 30 120 111 177 144 33 19 45 32 41
43 -3 8 -13 15 -22 15 -30 0 -148 -74 -207 -131 -33 -31 -75 -70 -94 -85 l-33
-28 7 35 c18 91 39 168 57 211 25 59 16 93 -18 70z"/>
<path d="M2123 22992 c-51 -32 -62 -61 -64 -157 -2 -93 10 -121 58 -134 80
-23 160 -2 213 54 l24 26 16 -32 c56 -116 291 -75 349 61 26 60 26 77 2 116
-40 66 -178 100 -237 58 -15 -11 -36 -24 -47 -31 -12 -6 -29 -22 -39 -35 -17
-23 -18 -23 -18 -2 0 12 -10 34 -22 49 -48 61 -162 75 -235 27z m152 -26 c44
-19 59 -47 50 -101 -11 -78 -68 -125 -149 -125 -35 0 -48 5 -56 19 -12 23 -14
71 -2 71 4 0 6 19 4 43 -3 35 1 47 23 69 15 15 41 29 58 31 18 2 33 5 35 5 1
1 18 -4 37 -12z m365 -33 c43 -25 52 -47 40 -94 -13 -49 -68 -92 -139 -109
-42 -10 -55 -9 -84 5 -40 19 -49 47 -34 106 8 32 13 38 28 34 14 -5 22 2 33
28 8 19 22 40 33 46 22 14 87 6 123 -16z"/>
<path d="M1240 22951 c0 -28 49 -41 149 -41 79 0 84 1 69 17 -10 10 -51 21
-105 29 -113 17 -113 17 -113 -5z"/>
<path d="M1218 22813 c-30 -7 -21 -40 13 -52 59 -21 210 -6 194 19 -2 4 -39
10 -81 14 -43 4 -85 11 -93 15 -9 4 -24 6 -33 4z"/>
<path d="M725 22680 c-11 -19 6 -30 46 -30 40 0 99 -23 99 -39 0 -4 -16 -16
-35 -27 -28 -15 -35 -24 -33 -43 2 -18 15 -28 56 -43 67 -25 68 -49 2 -60 -34
-6 -48 -4 -62 9 -16 14 -18 14 -24 0 -3 -9 -4 -24 -2 -34 5 -26 100 -30 148
-6 31 16 35 22 35 58 0 37 -3 42 -41 61 l-41 21 24 21 c58 52 -3 122 -108 122
-32 0 -61 -4 -64 -10z"/>
<path d="M5438 22004 c-97 -49 -158 -139 -182 -267 -39 -212 -71 -490 -86
-747 -6 -102 -15 -237 -20 -300 -5 -63 -14 -178 -20 -255 -6 -77 -15 -186 -21
-241 -5 -56 -14 -386 -19 -735 -5 -349 -14 -713 -19 -809 -6 -96 -15 -305 -21
-465 -20 -547 -71 -1247 -111 -1530 -27 -195 -111 -553 -158 -673 -33 -84 -34
-113 -7 -173 27 -58 47 -146 65 -274 6 -44 20 -145 31 -225 61 -444 60 -406
60 -1618 0 -1472 7 -1574 132 -1897 130 -335 204 -457 309 -511 60 -30 109
-32 109 -5 0 22 -25 45 -39 36 -18 -11 -77 28 -126 84 -72 82 -219 417 -262
596 -58 241 -56 184 -63 1580 -5 922 -10 1316 -19 1380 -6 50 -17 128 -22 175
-6 47 -14 112 -19 145 -5 33 -14 96 -20 140 -34 248 -52 338 -81 404 -25 57
-24 62 12 172 74 224 140 530 168 779 39 349 77 921 102 1545 5 138 14 349 19
470 6 121 14 486 19 810 5 325 12 599 15 610 3 11 10 83 16 160 30 393 41 555
50 712 5 95 14 201 19 235 6 35 17 119 26 188 35 278 58 351 127 417 18 17 51
39 73 47 43 18 56 32 48 53 -7 18 -30 15 -85 -13z"/>
<path d="M17554 21935 c-8 -19 3 -35 26 -35 47 0 130 -144 151 -261 21 -118
-12 -302 -74 -406 -11 -19 -17 -37 -13 -40 10 -11 75 58 96 103 46 94 63 289
35 394 -17 64 -66 165 -98 200 -49 56 -111 78 -123 45z"/>
<path d="M7711 21922 c-96 -40 -170 -136 -156 -200 4 -22 1 -29 -17 -37 -32
-14 -34 -60 -9 -144 28 -91 64 -123 160 -141 43 -8 58 -6 113 16 35 14 68 30
75 36 8 6 20 4 38 -8 31 -20 44 -11 27 17 -12 19 -8 26 33 70 113 121 124 250
28 341 -64 61 -208 85 -292 50z m218 -56 c50 -27 86 -82 86 -135 -1 -55 -21
-100 -73 -160 l-38 -44 -24 37 c-12 21 -26 52 -29 70 -5 22 -12 31 -26 31 -30
0 -26 -69 8 -122 30 -48 29 -51 -52 -83 -118 -46 -211 26 -211 164 0 31 3 37
12 28 7 -7 25 -12 41 -12 l28 0 -20 26 c-25 31 -27 83 -7 123 24 45 97 92 161
103 31 6 110 -9 144 -26z"/>
<path d="M17311 21909 c-35 -38 -99 -171 -125 -261 -35 -123 -48 -227 -35
-288 20 -93 87 -156 126 -117 15 15 15 17 -11 27 -45 17 -70 87 -63 179 10
140 79 344 129 382 14 11 21 28 22 54 1 45 -15 54 -43 24z"/>
<path d="M365 21904 c-5 -2 -41 -7 -80 -11 -56 -7 -70 -12 -73 -26 -4 -18 3
-19 140 -10 217 12 1101 9 1763 -7 325 -7 763 -14 975 -14 336 -1 385 1 385
14 0 16 -184 22 -1510 49 -497 10 -1579 14 -1600 5z"/>
<path d="M10004 21891 c-78 -20 -135 -79 -149 -152 -5 -27 -2 -40 10 -53 20
-20 35 -13 35 16 0 12 9 41 21 64 50 105 227 112 302 13 14 -19 33 -57 43 -85
15 -43 16 -58 6 -90 -16 -54 -45 -97 -80 -122 l-29 -21 -67 65 c-66 64 -96 76
-96 37 0 -9 28 -43 62 -75 61 -57 61 -57 34 -64 -45 -11 -208 1 -241 19 -87
45 -103 117 -46 209 31 49 33 68 6 68 -21 0 -73 -66 -84 -107 -22 -77 -9 -123
46 -175 39 -38 102 -57 204 -65 75 -5 98 -3 158 17 39 12 71 27 71 32 0 5 15
22 34 39 48 42 86 122 86 180 0 35 -10 66 -37 120 -32 61 -46 76 -89 100 -55
31 -144 44 -200 30z"/>
<path d="M5924 21821 c-35 -21 -106 -121 -136 -190 -10 -25 -24 -82 -28 -125
-8 -69 -7 -85 9 -122 11 -23 29 -48 41 -54 38 -20 131 -24 171 -7 35 14 37 14
61 -9 26 -27 82 -40 123 -30 33 8 25 22 -19 30 -19 4 -45 15 -59 26 l-24 19
43 46 c85 92 111 207 67 306 -46 103 -170 158 -249 110z m137 -54 c53 -35 81
-99 77 -174 -3 -54 -9 -71 -45 -120 -22 -32 -47 -59 -55 -61 -9 -2 -22 13 -33
37 -21 48 -46 59 -81 36 -32 -21 -28 -51 7 -48 19 1 28 -6 38 -29 17 -39 5
-48 -66 -48 -41 0 -57 5 -74 23 -19 20 -20 30 -16 102 5 92 30 163 51 146 16
-13 26 -4 26 23 0 40 15 50 43 31 15 -9 31 -14 37 -10 19 12 10 36 -20 53 -36
20 -37 26 -8 46 32 23 79 20 119 -7z"/>
<path d="M9062 21718 c-7 -7 -12 -43 -12 -90 l0 -78 -65 0 c-58 0 -65 -2 -65
-20 0 -17 7 -20 53 -20 28 0 57 -4 63 -8 6 -4 14 -29 17 -56 7 -47 21 -76 37
-76 5 0 11 27 15 60 l7 60 72 0 c65 0 96 10 96 31 0 4 -38 10 -85 14 l-85 7 0
82 c0 74 -9 106 -30 106 -3 0 -11 -5 -18 -12z"/>
<path d="M17464 21642 c-63 -57 -127 -140 -120 -157 10 -27 34 -16 78 36 23
28 44 46 46 41 2 -6 -4 -34 -12 -63 -18 -60 -21 -145 -6 -154 20 -12 37 15 44
68 3 28 15 81 26 117 24 80 26 136 4 144 -20 8 -12 11 -60 -32z"/>
<path d="M1734 21616 c-117 -27 -162 -66 -149 -132 12 -66 135 -174 135 -119
0 8 -16 32 -35 53 -42 47 -56 82 -44 105 12 20 127 57 178 57 92 0 166 -46
181 -113 17 -76 -30 -127 -235 -260 -90 -59 -125 -110 -125 -183 0 -69 51
-127 96 -110 13 5 11 11 -9 36 -34 40 -40 62 -28 107 13 47 54 88 146 143 156
94 224 179 211 263 -10 63 -40 103 -100 132 -66 32 -141 39 -222 21z"/>
<path d="M10357 21554 c-26 -8 -19 -50 8 -46 128 22 155 -28 66 -123 -28 -29
-51 -61 -51 -69 0 -31 46 -49 113 -44 55 5 147 38 147 54 0 3 -46 2 -102 -1
l-103 -7 41 43 c54 57 67 84 60 124 -10 49 -38 68 -104 71 -31 2 -65 0 -75 -2z"/>
<path d="M502 21531 c-29 -10 -64 -29 -78 -42 -49 -45 -69 -110 -42 -137 9 -9
9 -12 0 -12 -24 0 -96 -76 -117 -125 -77 -176 -48 -322 70 -353 77 -20 164
-10 228 26 39 22 58 27 70 20 22 -12 94 -15 104 -4 10 10 -25 36 -48 36 -32 0
-31 20 3 58 80 89 112 191 106 343 -3 76 -6 90 -32 123 -53 70 -170 100 -264
67z m172 -53 c13 -5 34 -24 47 -42 21 -27 24 -42 23 -116 -1 -129 -18 -190
-71 -261 -25 -33 -50 -56 -54 -52 -5 5 -13 37 -17 73 -11 73 -44 113 -91 108
-28 -3 -44 -38 -17 -38 30 0 56 -38 56 -80 0 -23 7 -55 16 -71 13 -25 13 -33
2 -46 -37 -45 -172 -69 -231 -42 -62 28 -77 124 -37 243 24 74 82 146 117 146
24 0 48 25 38 40 -3 5 -15 10 -26 10 -10 0 -19 5 -19 10 0 17 37 85 54 99 47
39 148 48 210 19z"/>
<path d="M6503 21535 c-3 -9 -2 -19 3 -23 5 -4 113 -5 239 -2 196 4 230 7 230
20 0 13 -34 15 -233 18 -205 2 -233 0 -239 -13z"/>
<path d="M10680 21532 c0 -12 14 -25 39 -37 64 -28 66 -72 5 -101 -57 -27 -43
-65 31 -82 22 -6 58 -17 80 -27 46 -20 37 -29 -47 -45 -60 -12 -81 -26 -58
-40 21 -13 54 -12 124 5 129 31 109 85 -52 146 -23 9 -23 9 -3 35 42 53 19
121 -50 148 -51 21 -69 20 -69 -2z"/>
<path d="M8233 21515 c-3 -9 -4 -56 -1 -104 4 -89 16 -121 44 -121 11 0 14 22
14 104 0 57 -3 111 -6 120 -8 20 -43 21 -51 1z"/>
<path d="M8425 21480 c-12 -19 6 -30 48 -30 44 0 87 -22 87 -44 0 -7 -27 -38
-60 -68 -91 -83 -81 -128 30 -128 37 0 64 7 96 26 24 14 44 28 44 29 0 2 -39
2 -87 -1 l-88 -6 46 45 c89 85 95 113 38 162 -25 20 -41 25 -89 25 -32 0 -62
-4 -65 -10z"/>
<path d="M6560 21390 c0 -19 7 -20 181 -20 117 0 188 4 202 12 21 11 21 11 2
19 -11 4 -102 8 -202 8 -177 1 -183 0 -183 -19z"/>
<path d="M1000 21132 c0 -28 46 -42 144 -42 139 0 145 32 7 44 -42 4 -93 10
-113 13 -33 5 -38 3 -38 -15z"/>
<path d="M11708 20935 c-34 -19 -58 -63 -58 -105 0 -39 16 -38 38 2 29 53 49
68 91 68 48 0 71 -26 71 -80 0 -71 -20 -113 -81 -173 -54 -53 -63 -58 -97 -55
l-37 3 2 83 c2 75 1 82 -17 82 -21 0 -36 -36 -46 -118 -9 -74 8 -92 91 -92 52
0 69 5 107 30 87 57 127 132 128 235 0 52 -4 65 -27 93 -24 28 -36 34 -83 38
-38 3 -63 0 -82 -11z"/>
<path d="M10759 20773 c-15 -17 -26 -252 -15 -298 17 -68 46 10 46 125 1 41 5
95 10 120 11 61 -11 90 -41 53z"/>
<path d="M1680 20730 c0 -19 5 -21 53 -18 38 2 52 7 52 18 0 11 -14 16 -52 18
-48 3 -53 1 -53 -18z"/>
<path d="M11173 20687 c-88 -18 -103 -24 -103 -40 0 -19 5 -19 88 -13 48 3
102 9 121 12 87 17 -11 -47 -329 -216 -91 -48 -212 -115 -270 -148 -58 -33
-106 -59 -107 -58 -2 2 1 27 7 56 11 59 13 143 4 178 -11 38 -46 28 -84 -25
-19 -27 -65 -86 -103 -133 l-69 -85 -61 -5 c-49 -4 -63 -9 -65 -22 -3 -15 4
-18 33 -18 45 0 40 -9 -36 -60 -38 -27 -59 -48 -59 -60 0 -12 7 -20 16 -20 18
0 88 46 155 102 41 35 50 38 105 38 l59 0 -93 -53 c-190 -106 -524 -317 -537
-338 -4 -6 -3 -15 2 -20 11 -11 76 23 243 128 101 64 408 243 416 243 2 0 4
-13 4 -29 0 -31 25 -64 44 -58 6 2 12 30 14 63 l3 59 57 34 c31 18 122 69 202
114 80 44 211 117 291 162 l146 82 -5 -44 c-4 -38 -2 -43 16 -43 15 0 24 10
33 38 6 20 22 58 35 84 13 26 24 63 24 83 0 35 0 35 -47 34 -27 0 -94 -10
-150 -22z m-648 -390 l-6 -75 -37 -6 c-98 -16 -98 -15 -24 78 36 47 68 83 71
81 2 -2 0 -38 -4 -78z"/>
<path d="M17367 20686 c-65 -61 -98 -187 -105 -407 -6 -209 14 -275 91 -294
33 -9 34 -1 3 36 -37 43 -50 124 -43 266 11 202 44 326 102 371 14 11 25 27
25 36 0 24 -43 20 -73 -8z"/>
<path d="M5882 20640 c-23 -17 -47 -39 -54 -50 -7 -11 -20 -20 -29 -20 -26 0
-68 -38 -91 -83 -26 -52 -36 -189 -16 -227 21 -40 77 -61 180 -67 66 -3 107 0
140 10 45 14 47 14 69 -9 12 -13 31 -24 41 -24 22 0 22 3 3 40 -15 29 -15 30
24 69 82 82 99 157 57 246 -45 96 -121 145 -224 145 -50 0 -66 -5 -100 -30z
m174 -29 c82 -37 137 -138 115 -211 -10 -34 -71 -110 -89 -110 -4 0 -30 36
-57 80 -32 54 -54 80 -64 78 -29 -6 -22 -42 23 -113 28 -44 41 -74 36 -79 -15
-15 -180 -20 -228 -7 -32 9 -46 19 -53 39 -14 35 -4 133 17 175 30 58 35 61
55 27 26 -41 39 -38 39 11 0 35 6 47 37 76 60 57 100 65 169 34z"/>
<path d="M17624 20655 c-4 -9 18 -43 54 -87 76 -93 147 -215 172 -296 60 -193
35 -401 -64 -531 -14 -19 -24 -36 -22 -39 7 -6 60 24 78 45 28 31 75 143 88
210 15 77 1 235 -29 333 -27 85 -104 216 -181 308 -60 71 -85 86 -96 57z"/>
<path d="M8423 20508 c-57 -60 -74 -100 -80 -187 -5 -67 -3 -79 17 -103 47
-60 123 -54 205 17 l55 47 0 -40 c0 -53 43 -92 100 -92 50 0 58 14 17 30 -74
30 -80 56 -48 194 21 85 19 106 -8 106 -12 0 -31 -27 -60 -85 -40 -82 -85
-131 -149 -164 -54 -28 -87 17 -76 103 8 63 26 101 71 148 23 23 33 42 30 52
-10 26 -30 19 -74 -26z"/>
<path d="M7892 20443 c-28 -36 -95 -151 -164 -283 -32 -61 -34 -105 -4 -105
13 0 22 12 31 42 7 22 27 62 44 88 18 26 47 77 66 114 18 36 40 75 49 86 14
19 15 15 16 -53 0 -114 33 -165 120 -190 28 -8 8 -10 -98 -11 -121 -1 -133 -3
-130 -18 3 -16 21 -18 189 -21 194 -3 243 5 237 35 -3 18 -12 21 -131 48 -109
26 -127 44 -128 132 0 37 -4 91 -7 118 -6 44 -10 50 -33 53 -21 2 -33 -6 -57
-35z"/>
<path d="M87 20423 c-16 -16 -5 -44 21 -54 76 -29 144 -32 912 -39 437 -4 932
-14 1100 -21 332 -15 1247 -17 1415 -2 93 7 100 10 103 31 4 27 -21 39 -51 24
-55 -26 -927 -34 -1282 -11 -88 6 -583 14 -1100 19 -564 5 -956 13 -979 19
-22 5 -43 17 -48 25 -9 16 -78 23 -91 9z"/>
<path d="M7120 20410 c0 -26 39 -45 132 -64 91 -19 98 -19 135 -5 24 9 26 12
11 20 -9 5 -53 16 -97 23 -44 8 -95 21 -112 30 -44 22 -69 21 -69 -4z"/>
<path d="M9731 20379 c-6 -18 -11 -54 -11 -80 l0 -49 -70 0 c-63 0 -70 -2 -70
-20 0 -18 7 -20 64 -20 l63 0 6 -66 c5 -70 16 -90 41 -81 12 5 16 22 16 71 l0
64 83 -5 c144 -7 149 35 5 46 l-83 6 1 40 c0 22 2 58 5 80 3 35 1 40 -17 43
-17 2 -24 -5 -33 -29z"/>
<path d="M17550 20364 c-58 -19 -90 -39 -90 -56 0 -23 30 -24 71 -2 17 8 40
14 51 12 18 -3 13 -12 -41 -71 -95 -105 -83 -137 54 -137 79 0 115 11 115 34
0 11 -19 13 -79 12 -44 0 -83 2 -87 6 -4 4 15 32 43 61 74 78 79 92 49 122
-24 24 -52 30 -86 19z"/>
<path d="M11643 20300 c-14 -6 -23 -18 -23 -31 0 -18 4 -20 38 -15 20 4 82 9
137 11 97 5 126 16 94 36 -18 11 -218 10 -246 -1z"/>
<path d="M6453 20253 c-7 -2 -13 -14 -13 -25 0 -19 4 -20 53 -15 91 11 152
-26 115 -70 -7 -9 -30 -27 -51 -40 -46 -29 -68 -69 -46 -84 8 -5 53 -8 101 -7
77 3 90 6 110 27 l23 23 -85 -6 c-70 -5 -82 -4 -66 7 29 18 75 69 82 90 11 33
-15 74 -57 91 -37 15 -139 21 -166 9z"/>
<path d="M9053 20253 c-7 -2 -13 -13 -13 -24 0 -15 7 -19 33 -19 37 0 62 -21
71 -60 9 -36 -1 -45 -79 -81 -87 -39 -99 -53 -69 -83 22 -22 161 -22 192 0 34
24 18 33 -48 27 -33 -3 -60 -3 -60 0 0 4 22 18 50 32 53 27 70 49 70 90 0 81
-80 146 -147 118z"/>
<path d="M6303 20213 c-21 -51 -30 -178 -13 -198 26 -31 40 -18 40 38 0 29 7
79 15 112 9 32 13 65 11 72 -10 25 -37 13 -53 -24z"/>
<path d="M7148 20229 c-6 -4 -8 -14 -5 -23 5 -14 27 -16 140 -16 100 0 138 4
153 14 16 12 16 15 4 20 -23 8 -280 12 -292 5z"/>
<path d="M8923 20208 c-15 -20 -43 -130 -43 -171 0 -31 4 -37 20 -37 11 0 22
6 24 13 40 158 44 182 34 194 -13 16 -23 16 -35 1z"/>
<path d="M11628 20189 c-6 -4 -8 -14 -5 -23 5 -14 28 -16 151 -16 139 0 170 6
143 28 -13 11 -273 21 -289 11z"/>
<path d="M10925 20100 c-12 -20 8 -30 61 -30 69 0 94 -13 94 -48 0 -21 -18
-44 -81 -104 -107 -100 -104 -112 19 -106 88 5 168 31 155 51 -5 9 -88 3 -143
-10 -21 -5 -16 2 29 47 51 51 81 101 81 135 0 9 -13 30 -29 46 -27 27 -35 29
-105 29 -41 0 -78 -4 -81 -10z"/>
<path d="M10755 20063 c-3 -16 -15 -60 -27 -98 -21 -74 -21 -106 -1 -112 25
-9 91 176 78 217 -10 31 -44 25 -50 -7z"/>
<path d="M9764 19563 c-9 -16 -25 -39 -34 -53 -103 -151 -188 -481 -160 -617
16 -76 62 -123 120 -123 55 0 57 15 6 40 -29 14 -50 32 -60 54 -53 113 31 458
157 646 27 41 34 57 25 67 -17 20 -36 15 -54 -14z"/>
<path d="M11677 19583 c-14 -14 -5 -29 31 -51 53 -34 110 -109 127 -167 36
-123 35 -339 0 -480 -20 -76 -90 -200 -132 -234 -40 -32 -41 -41 -5 -41 37 0
73 32 121 109 80 125 113 311 93 513 -15 142 -31 189 -85 256 -66 80 -127 119
-150 95z"/>
<path d="M7856 19515 c-8 -23 4 -45 25 -45 10 0 19 5 19 10 0 29 128 -6 138
-38 2 -8 -16 -21 -47 -34 -28 -12 -51 -28 -51 -35 0 -7 17 -22 38 -32 20 -11
48 -29 61 -40 l25 -19 -60 -7 c-75 -8 -87 -12 -81 -28 6 -20 162 -16 183 5 24
24 11 59 -31 86 -39 25 -44 38 -17 46 11 4 25 17 32 31 32 59 -47 115 -162
115 -49 0 -67 -4 -72 -15z"/>
<path d="M8733 19363 c-20 -7 -15 -44 6 -50 45 -12 54 -99 16 -172 -30 -60
-128 -151 -133 -124 -16 101 -87 233 -125 233 -24 0 -30 -31 -9 -54 41 -47 82
-146 82 -198 0 -31 18 -48 51 -48 18 0 46 18 93 61 66 61 107 124 120 186 10
44 -11 111 -44 145 -29 28 -35 31 -57 21z"/>
<path d="M11115 19363 c-26 -3 -81 -15 -137 -30 -10 -2 -18 -13 -18 -24 0 -23
15 -24 95 -4 33 8 74 14 90 15 l30 0 -6 -77 c-7 -84 -26 -194 -40 -231 -5 -13
-9 -34 -9 -47 0 -38 36 -33 53 8 21 49 60 271 55 311 l-4 35 63 7 c35 3 97 3
139 -1 62 -6 75 -4 72 7 -10 30 -52 38 -203 36 -82 0 -163 -3 -180 -5z"/>
<path d="M9155 19314 c-94 -49 -165 -195 -165 -340 0 -42 5 -65 15 -74 21 -18
45 4 45 41 0 31 15 47 23 25 7 -17 167 -76 207 -76 33 0 46 13 27 27 -6 5 -48
22 -92 38 -44 15 -86 33 -94 40 -18 17 -3 38 79 112 76 69 95 107 80 163 -16
59 -64 76 -125 44z m75 -71 c0 -34 -7 -45 -72 -105 -40 -38 -76 -68 -80 -68
-20 0 -19 35 3 83 30 65 90 127 124 127 22 0 25 -4 25 -37z"/>
<path d="M9858 19299 c-10 -5 -18 -17 -18 -26 0 -13 12 -15 78 -11 l79 5 -8
-36 c-5 -20 -27 -110 -49 -201 -22 -91 -40 -171 -40 -179 0 -7 9 -11 22 -9 17
2 27 15 39 53 29 85 73 288 74 332 l0 43 112 0 c125 0 150 5 132 26 -9 11 -53
14 -208 14 -114 0 -203 -5 -213 -11z"/>
<path d="M7860 19090 c0 -19 7 -20 163 -20 90 0 167 3 170 7 4 3 2 12 -4 20
-9 10 -50 13 -170 13 -152 0 -159 -1 -159 -20z"/>
<path d="M7121 19056 c-15 -18 -5 -41 25 -55 31 -14 213 -14 234 -1 26 17 -4
27 -107 33 -64 5 -102 12 -113 22 -20 18 -25 19 -39 1z"/>
<path d="M11508 18953 c-53 -47 -57 -53 -51 -70 6 -16 35 -17 52 0 12 10 13 8
7 -8 -15 -41 -25 -170 -14 -182 27 -32 48 -7 48 55 0 20 9 73 19 116 19 79 16
126 -9 126 -5 0 -29 -17 -52 -37z"/>
<path d="M7145 18940 c-15 -24 12 -30 129 -30 123 0 202 14 174 31 -19 12
-295 11 -303 -1z"/>
<path d="M7920 18933 c0 -17 9 -22 43 -27 45 -7 107 -39 107 -55 0 -13 -42
-42 -107 -75 -65 -32 -72 -44 -43 -68 40 -33 266 -22 245 13 -4 5 -26 9 -49 9
-24 0 -58 3 -75 6 l-32 7 33 19 c71 43 90 75 72 123 -10 24 -80 56 -140 62
-49 5 -54 4 -54 -14z"/>
<path d="M10575 18940 c-14 -23 11 -30 101 -30 93 0 141 11 129 31 -8 12 -222
12 -230 -1z"/>
<path d="M10153 18859 c-23 -7 -33 -16 -33 -30 0 -18 4 -19 66 -13 71 7 84 1
84 -42 0 -23 -46 -68 -111 -109 -43 -28 -49 -49 -20 -65 51 -27 206 3 199 39
-2 9 -12 15 -23 13 -11 -1 -37 -5 -59 -9 l-38 -6 51 48 c46 43 51 52 51 92 0
81 -63 112 -167 82z"/>
<path d="M17617 18253 c-14 -13 -6 -23 31 -42 21 -11 78 -58 126 -106 75 -74
94 -100 132 -178 117 -248 89 -485 -101 -859 -18 -37 -13 -35 36 9 54 49 122
185 154 310 56 213 40 403 -46 574 -33 66 -60 102 -130 171 -49 49 -104 97
-122 108 -32 20 -68 26 -80 13z"/>
<path d="M5894 18216 c-59 -18 -99 -45 -118 -76 -21 -36 -20 -56 2 -69 9 -6
12 -11 6 -11 -13 0 -49 -64 -64 -115 -20 -71 -30 -196 -18 -242 20 -82 113
-131 189 -100 33 13 35 12 61 -15 14 -15 33 -28 42 -28 14 0 14 5 -4 40 l-20
40 39 57 c98 145 140 356 88 448 -44 77 -109 100 -203 71z m136 -66 c36 -38
42 -74 29 -168 -16 -114 -55 -215 -107 -275 -15 -17 -16 -17 -29 5 -7 13 -12
35 -13 49 0 35 -24 56 -45 39 -21 -18 -19 -56 7 -102 19 -33 20 -40 8 -48 -26
-17 -68 -11 -97 14 -25 22 -28 31 -31 103 -4 82 17 176 56 252 13 26 14 35 5
38 -34 12 10 76 71 104 63 29 112 25 146 -11z"/>
<path d="M17310 18198 c-11 -18 -34 -76 -52 -128 -28 -87 -31 -109 -36 -261
-5 -189 2 -226 52 -264 31 -24 66 -32 79 -19 3 3 -10 19 -29 36 -48 43 -58 87
-51 248 7 142 21 214 63 314 32 75 34 99 12 104 -11 2 -25 -9 -38 -30z"/>
<path d="M10601 18156 c-15 -18 -25 -246 -12 -266 7 -11 13 -12 21 -4 13 13
36 245 27 268 -8 20 -21 20 -36 2z"/>
<path d="M10294 18022 c-11 -7 -141 -211 -150 -237 -4 -8 -17 -15 -29 -15 -30
0 -43 -20 -23 -34 14 -10 12 -18 -12 -66 -22 -43 -30 -51 -35 -37 -10 24 -45
22 -45 -2 0 -40 19 -71 43 -71 30 0 45 18 92 103 l37 67 70 0 70 0 -7 -94 c-7
-95 0 -121 28 -97 24 19 40 183 33 326 -3 74 -9 141 -12 150 -6 16 -41 20 -60
7z m16 -162 l0 -90 -55 0 c-30 0 -55 3 -55 6 0 12 100 173 108 174 1 0 2 -40
2 -90z"/>
<path d="M8089 17929 c-7 -14 -12 -81 -13 -173 -1 -142 0 -153 22 -188 32 -51
60 -50 117 3 33 30 53 62 77 121 l33 81 6 -95 c4 -52 13 -108 20 -123 16 -31
49 -48 69 -35 12 7 11 13 -5 30 -18 20 -21 41 -25 194 -3 94 -9 177 -13 184
-24 36 -63 -8 -91 -103 -27 -88 -79 -197 -109 -223 -25 -24 -25 -24 -36 -4 -6
12 -11 76 -11 150 0 106 3 131 15 136 18 7 20 37 3 54 -19 19 -46 14 -59 -9z"/>
<path d="M7645 17882 c-11 -7 -34 -63 -87 -214 -24 -68 -28 -91 -19 -102 9
-11 51 -14 191 -15 155 -2 181 0 186 14 4 10 -29 52 -105 131 -62 65 -114 127
-117 142 -11 45 -28 60 -49 44z m109 -199 l90 -93 -127 0 c-70 0 -127 3 -127
8 0 15 65 182 70 180 3 -2 45 -45 94 -95z"/>
<path d="M17443 17878 c-33 -7 -43 -14 -43 -30 0 -19 4 -20 63 -13 34 3 70 9
81 12 34 10 12 -21 -45 -60 -30 -21 -55 -44 -57 -52 -4 -19 32 -33 116 -45 83
-11 101 -27 76 -65 -10 -15 -33 -34 -51 -42 -37 -15 -52 -38 -35 -55 18 -18
61 1 108 47 45 46 54 77 34 115 -11 21 -95 50 -144 50 l-31 0 34 21 c132 81
64 156 -106 117z"/>
<path d="M11440 17850 c0 -34 45 -53 134 -57 133 -6 149 31 18 42 -42 4 -87
13 -99 21 -31 20 -53 17 -53 -6z"/>
<path d="M9480 17815 c-10 -12 -10 -28 -1 -72 6 -31 11 -61 11 -66 0 -9 -28
-7 -116 9 -23 4 -33 1 -37 -10 -12 -30 20 -46 93 -46 l68 0 7 -42 c9 -55 31
-98 50 -98 17 0 18 20 6 92 l-8 47 61 3 c46 2 61 7 61 18 0 12 -15 16 -67 18
l-67 3 -6 67 c-4 37 -8 73 -10 80 -6 17 -30 15 -45 -3z"/>
<path d="M6864 17756 c-4 -9 -4 -19 -2 -21 21 -21 259 -34 287 -16 28 18 -1
28 -96 35 -54 4 -117 9 -140 12 -34 5 -44 3 -49 -10z"/>
<path d="M11458 17713 c-21 -5 -23 -26 -4 -42 19 -16 295 -36 309 -22 6 6 8
13 6 16 -11 10 -154 35 -205 35 -31 0 -63 4 -72 8 -9 5 -25 7 -34 5z"/>
<path d="M8547 17658 c-18 -6 -27 -16 -25 -27 3 -12 15 -16 57 -16 43 0 56 -4
72 -24 28 -35 24 -65 -13 -96 -62 -50 -78 -67 -78 -86 0 -26 30 -39 94 -39 60
0 102 14 110 37 5 12 -2 14 -43 8 -28 -4 -59 -4 -70 0 -18 5 -15 10 25 47 38
35 44 46 44 82 0 23 -7 52 -16 64 -30 43 -108 68 -157 50z"/>
<path d="M8930 17660 c-11 -7 -12 -15 -4 -37 12 -35 43 -43 51 -14 7 25 16 26
54 4 48 -29 32 -74 -37 -104 -67 -30 -60 -53 24 -78 37 -11 76 -27 86 -34 17
-13 17 -14 -11 -26 -17 -7 -52 -11 -79 -9 -51 3 -56 10 -39 51 11 26 -21 22
-50 -8 -32 -31 -31 -40 3 -72 25 -24 32 -25 100 -20 74 6 125 26 146 59 15 24
-25 64 -85 85 l-46 17 28 24 c30 25 49 74 41 105 -8 32 -72 67 -122 67 -25 0
-52 -4 -60 -10z"/>
<path d="M10961 17636 c-21 -25 -6 -49 27 -42 17 4 35 1 47 -8 18 -13 17 -15
-28 -47 -26 -18 -47 -39 -47 -46 0 -16 36 -31 101 -43 25 -5 63 -17 84 -27 35
-17 36 -18 14 -24 -13 -4 -39 -7 -56 -8 -27 -1 -33 3 -33 19 0 24 -13 26 -34
4 -19 -19 -20 -36 -4 -52 15 -15 146 -16 182 -2 31 11 35 49 8 73 -24 21 -98
54 -143 62 l-36 7 29 29 c18 18 28 37 26 50 -7 47 -110 88 -137 55z"/>
<path d="M10620 17630 c0 -5 18 -19 40 -30 54 -28 60 -46 24 -76 -16 -13 -34
-23 -40 -24 -16 0 -44 -34 -44 -53 0 -28 38 -39 116 -35 60 3 78 8 96 26 l23
23 -85 -6 -85 -6 43 38 c60 54 55 96 -18 133 -43 22 -70 26 -70 10z"/>
<path d="M6436 17607 c-30 -22 -10 -37 48 -37 31 0 60 -6 72 -15 19 -15 19
-15 -5 -35 -13 -12 -31 -25 -39 -29 -26 -15 -6 -36 50 -54 30 -9 63 -25 72
-36 16 -17 15 -19 -16 -34 -18 -8 -45 -19 -61 -22 -26 -7 -27 -6 -17 19 10 27
10 27 -19 10 -33 -20 -57 -57 -47 -73 10 -16 54 -14 117 5 69 21 109 49 109
78 0 26 -43 70 -83 85 -26 10 -27 12 -12 27 23 24 15 73 -15 95 -35 25 -129
35 -154 16z"/>
<path d="M6884 17605 c-10 -25 4 -33 76 -44 111 -18 250 -12 250 10 0 12 -29
17 -155 29 -60 5 -122 13 -137 16 -21 5 -29 2 -34 -11z"/>
<path d="M6180 17581 c-45 -9 -60 -18 -60 -38 0 -12 9 -14 53 -8 28 3 61 9 72
11 11 3 -10 -23 -49 -59 -70 -64 -70 -64 -70 -117 -1 -48 2 -56 24 -67 14 -7
51 -13 82 -13 50 0 62 4 90 30 l33 29 -40 -6 c-43 -7 -50 -7 -107 -5 -34 2
-38 5 -38 29 0 20 18 43 75 96 41 39 75 76 75 83 0 20 -41 44 -75 43 -16 -1
-46 -4 -65 -8z"/>
<path d="M7733 16955 c-33 -14 -41 -29 -23 -40 5 -3 39 -1 75 6 51 9 69 8 80
-1 14 -11 13 -15 -2 -33 -10 -11 -42 -35 -70 -54 -29 -18 -53 -40 -53 -48 0
-14 48 -45 71 -45 6 0 38 -12 71 -27 54 -24 58 -28 42 -40 -10 -7 -32 -13 -48
-13 -41 0 -80 -21 -84 -44 -4 -17 1 -18 45 -12 75 11 119 25 144 45 21 17 22
22 11 45 -12 28 -118 86 -155 86 -14 0 -3 15 37 53 63 59 69 85 30 116 -32 25
-121 28 -171 6z"/>
<path d="M14924 16956 c-4 -9 30 -54 86 -118 125 -139 155 -204 171 -358 6
-63 8 -137 5 -165 -11 -83 -54 -179 -108 -240 -48 -53 -49 -55 -24 -55 45 0
110 70 147 158 38 90 48 206 31 339 -21 150 -59 222 -194 366 -83 87 -104 100
-114 73z"/>
<path d="M13157 16943 c-2 -5 -10 -30 -17 -58 -7 -27 -32 -115 -55 -195 -102
-347 -98 -522 13 -622 22 -20 58 -41 79 -47 78 -22 100 -6 34 24 -49 21 -105
79 -125 125 -40 96 -23 259 52 512 67 226 73 268 38 268 -8 0 -17 -3 -19 -7z"/>
<path d="M10923 16895 c-4 -11 15 -34 58 -73 91 -81 102 -95 137 -160 46 -85
65 -179 59 -278 -7 -97 -24 -142 -78 -206 -21 -26 -39 -49 -39 -52 0 -3 10 -6
23 -6 30 0 91 63 117 122 26 60 40 167 30 240 -21 153 -78 258 -194 359 -81
71 -102 81 -113 54z"/>
<path d="M9278 16773 c-88 -100 -163 -467 -115 -560 23 -43 64 -73 101 -73
l31 1 -27 24 c-73 63 -83 128 -48 302 24 122 30 142 70 226 29 62 34 97 12 97
-5 0 -16 -8 -24 -17z"/>
<path d="M14304 16756 c-4 -9 -3 -31 1 -49 23 -108 45 -249 45 -288 0 -51 17
-74 47 -65 10 3 65 57 122 120 56 62 121 124 142 137 66 40 72 46 65 57 -11
18 -47 14 -86 -9 -19 -11 -81 -69 -137 -127 -94 -98 -102 -105 -103 -79 0 46
-40 259 -53 286 -15 30 -35 38 -43 17z"/>
<path d="M8763 16739 c-67 -19 -97 -94 -122 -300 -15 -114 -14 -144 4 -159 21
-17 45 4 45 40 0 21 16 84 24 97 1 1 33 -7 71 -18 73 -20 200 -26 210 -9 6 10
-30 20 -137 41 l-66 12 53 48 c63 58 79 93 72 156 -4 37 -12 54 -36 75 -33 29
-61 33 -118 17z m91 -61 c34 -49 2 -129 -71 -176 -49 -33 -56 -29 -48 24 4 32
3 49 -5 54 -18 11 6 86 33 105 32 22 73 19 91 -7z"/>
<path d="M8328 16719 c-10 -5 -18 -19 -18 -30 0 -24 29 -37 40 -19 7 11 11 11
24 1 19 -16 19 -24 5 -89 -8 -40 -22 -62 -74 -116 -35 -36 -70 -66 -78 -66
-11 0 -16 20 -21 83 -10 115 -13 129 -42 160 -30 33 -67 43 -101 28 -30 -14
-25 -35 8 -38 13 0 29 -1 35 -2 24 -2 44 -68 44 -143 0 -116 42 -164 113 -127
32 17 135 125 153 162 9 17 19 58 21 92 5 53 3 62 -18 82 -30 27 -68 36 -91
22z"/>
<path d="M12117 16719 c-59 -14 -126 -65 -148 -113 -26 -58 -25 -130 2 -150
21 -14 21 -14 0 -99 -22 -91 -27 -162 -12 -172 16 -9 24 14 56 146 25 104 33
124 43 113 15 -17 114 -19 193 -4 71 13 114 56 106 106 -9 53 -36 100 -83 144
-47 43 -75 48 -157 29z m137 -81 c48 -56 62 -106 37 -131 -21 -21 -168 -41
-188 -25 -7 5 -21 7 -33 3 -20 -6 -21 -4 -14 43 7 53 -5 73 -31 52 -27 -23
-16 8 14 38 40 40 88 62 138 62 36 0 46 -5 77 -42z"/>
<path d="M13277 16666 c-3 -8 3 -24 14 -37 10 -12 19 -36 19 -54 0 -37 34
-206 53 -261 13 -41 36 -60 60 -51 8 3 28 47 46 101 51 159 109 254 167 276
32 13 31 40 -1 40 -37 0 -76 -23 -108 -65 -34 -42 -90 -160 -107 -225 l-13
-45 -23 105 c-13 58 -23 123 -24 145 0 22 -7 51 -16 63 -17 25 -59 30 -67 8z"/>
<path d="M9485 16645 c-5 -2 -27 -6 -47 -10 -30 -5 -38 -10 -38 -27 0 -19 4
-20 48 -15 26 4 110 9 187 13 147 7 201 18 175 34 -14 9 -302 13 -325 5z"/>
<path d="M10347 16623 c-4 -3 -7 -12 -7 -20 0 -10 37 -13 183 -12 100 0 191 4
202 8 19 8 19 8 -2 19 -23 13 -364 17 -376 5z"/>
<path d="M7013 16573 c-87 -4 -93 -5 -93 -25 0 -20 3 -21 138 -15 150 6 182
12 182 33 0 15 -1 15 -227 7z"/>
<path d="M9570 16534 c-21 -53 -51 -195 -48 -221 3 -30 26 -38 38 -13 9 18 60
230 60 248 0 23 -40 13 -50 -14z"/>
<path d="M10521 16496 c-31 -85 -62 -215 -59 -250 4 -38 35 -49 42 -14 17 81
60 248 71 275 14 34 11 43 -16 43 -12 0 -24 -17 -38 -54z"/>
<path d="M11447 16543 c-4 -3 -4 -35 -1 -70 l7 -63 -77 0 c-69 0 -76 -2 -76
-20 0 -18 7 -20 74 -20 l74 0 7 -47 c9 -65 32 -116 46 -107 8 4 10 31 7 81
l-5 75 70 -4 c50 -2 71 1 74 9 6 18 -39 33 -98 33 l-49 0 0 43 c0 60 -31 113
-53 90z"/>
<path d="M7090 16476 c-64 -8 -85 -15 -85 -26 0 -20 41 -24 134 -11 72 9 139
27 130 35 -12 10 -106 11 -179 2z"/>
<path d="M7705 16480 c-15 -24 12 -30 121 -30 118 0 182 14 139 31 -30 11
-253 11 -260 -1z"/>
<path d="M15540 16472 c0 -18 10 -20 158 -24 167 -5 195 -1 166 23 -13 10 -56
15 -171 17 -146 3 -153 3 -153 -16z"/>
<path d="M13983 16473 c-115 -3 -123 -5 -123 -23 0 -19 7 -20 120 -20 83 0
132 5 155 14 44 19 45 37 3 34 -18 -1 -88 -4 -155 -5z"/>
<path d="M10145 16420 c-13 -22 10 -30 85 -30 77 0 135 15 124 31 -7 13 -201
11 -209 -1z"/>
<path d="M12555 16387 c-29 -22 -10 -38 35 -31 33 5 41 3 47 -12 5 -13 -4 -27
-37 -55 -48 -42 -46 -59 8 -59 39 0 142 -43 142 -58 0 -24 -122 -62 -134 -43
-11 16 -46 13 -46 -4 0 -8 9 -24 21 -36 17 -17 28 -20 57 -14 54 9 141 51 149
71 13 36 -10 68 -73 99 -58 28 -61 32 -48 50 21 29 17 71 -8 89 -28 20 -88 21
-113 3z"/>
<path d="M12262 16379 c-34 -13 -25 -45 12 -42 38 3 86 -23 86 -46 0 -22 -28
-48 -88 -81 -37 -20 -47 -31 -47 -50 0 -24 3 -25 65 -28 83 -4 123 4 152 29
23 20 23 20 -56 15 l-79 -6 41 30 c82 59 90 112 23 155 -45 28 -79 36 -109 24z"/>
<path d="M13578 16379 c-19 -11 -24 -44 -8 -54 5 -3 20 1 32 9 16 11 25 13 35
4 18 -15 16 -55 -4 -66 -26 -15 -9 -36 46 -56 28 -10 54 -22 57 -27 3 -5 -10
-18 -28 -29 -25 -16 -43 -20 -75 -16 -47 6 -59 -4 -42 -35 9 -19 18 -21 60
-17 55 6 142 53 147 82 5 22 -30 60 -69 76 -26 11 -29 17 -29 56 0 31 -6 50
-20 64 -22 22 -73 26 -102 9z"/>
<path d="M15725 16358 c-75 -10 -96 -21 -78 -39 13 -13 302 7 318 22 28 28
-94 37 -240 17z"/>
<path d="M10711 16350 c-21 -13 -5 -40 24 -40 36 0 85 -27 85 -47 0 -10 -27
-43 -61 -74 -66 -61 -72 -84 -29 -106 35 -18 135 -16 170 2 43 22 38 39 -9 31
-21 -3 -60 -3 -85 0 l-46 7 45 39 c25 22 52 53 61 69 13 26 13 32 -1 60 -22
41 -121 80 -154 59z"/>
<path d="M7790 16331 c0 -16 9 -19 60 -23 100 -7 103 -31 10 -95 -35 -25 -55
-46 -55 -58 0 -18 7 -20 82 -19 60 1 89 6 108 18 15 10 24 20 21 24 -8 7 -82
4 -111 -4 -12 -4 -4 7 21 30 90 77 46 146 -93 146 -35 0 -43 -3 -43 -19z"/>
<path d="M9702 16335 c-26 -11 -33 -20 -30 -37 4 -28 54 -39 64 -14 8 21 72
22 80 2 3 -8 -4 -24 -16 -36 -29 -29 -22 -53 19 -61 46 -10 69 -33 51 -53 -7
-9 -25 -16 -41 -16 -22 0 -29 5 -29 20 0 23 -4 24 -31 10 -21 -12 -25 -50 -7
-68 32 -32 170 10 176 54 3 24 -42 84 -64 84 -17 0 -17 5 -3 31 35 67 -78 123
-169 84z"/>
<path d="M14616 16338 c-16 -48 -37 -173 -34 -200 2 -25 8 -33 22 -33 17 0 22
13 34 80 22 114 21 159 -1 163 -9 2 -19 -2 -21 -10z"/>
<path d="M14724 16318 c-4 -7 0 -16 10 -22 10 -6 28 -18 39 -27 21 -16 21 -17
-26 -59 -53 -49 -59 -76 -21 -90 55 -21 134 -10 178 25 30 23 12 29 -53 15
-78 -16 -90 -7 -46 34 48 45 47 77 -2 111 -41 27 -68 32 -79 13z"/>
<path d="M11117 15573 c-12 -11 -8 -20 38 -80 70 -94 93 -148 106 -253 9 -81
9 -102 -6 -156 -22 -82 -89 -195 -160 -269 -59 -61 -60 -82 -3 -46 82 50 178
182 209 285 47 152 6 330 -107 469 -45 54 -62 65 -77 50z"/>
<path d="M7760 15550 c0 -16 7 -20 38 -20 87 0 103 -22 39 -53 -56 -26 -49
-50 21 -76 65 -23 102 -54 81 -67 -7 -4 -42 -17 -78 -29 -79 -27 -89 -51 -20
-49 49 2 146 45 156 69 12 33 -8 65 -57 93 l-49 28 25 26 c50 50 1 98 -101 98
-48 0 -55 -2 -55 -20z"/>
<path d="M13302 15483 c-25 -25 -60 -79 -78 -118 -37 -80 -74 -230 -74 -299 0
-62 18 -142 38 -166 20 -24 87 -49 113 -43 29 8 23 20 -15 33 -48 15 -63 36
-76 108 -11 54 -10 76 5 155 30 157 62 230 133 309 33 36 38 68 11 68 -7 0
-33 -21 -57 -47z"/>
<path d="M15153 15523 c-27 -10 -9 -35 106 -137 129 -114 153 -145 171 -218
20 -80 -23 -187 -123 -306 -71 -84 -11 -78 64 7 54 61 91 129 111 203 16 63 0
142 -42 203 -25 36 -262 257 -273 254 -1 0 -8 -3 -14 -6z"/>
<path d="M9450 15487 c-35 -37 -118 -218 -141 -307 -24 -92 -27 -186 -8 -222
18 -36 61 -78 79 -78 30 0 30 12 -2 53 -63 79 -43 218 62 434 33 68 60 124 60
127 0 16 -33 11 -50 -7z"/>
<path d="M14527 15403 c-4 -3 -7 -12 -7 -20 0 -10 36 -13 178 -12 97 1 191 5
207 8 l30 7 -40 12 c-42 13 -357 17 -368 5z"/>
<path d="M8859 15377 c-39 -26 -78 -80 -86 -119 -3 -14 -14 -28 -24 -31 -17
-5 -19 -16 -19 -140 0 -107 3 -137 15 -147 12 -10 18 -10 30 0 11 9 15 33 15
90 0 42 3 79 6 83 4 3 18 -3 33 -13 28 -20 170 -68 211 -71 14 0 36 -1 50 0
45 2 2 27 -104 61 -55 17 -106 34 -113 38 -8 5 11 21 55 47 81 49 116 95 108
145 -12 76 -105 106 -177 57z m103 -29 c46 -37 20 -83 -78 -142 l-77 -46 7 41
c17 107 97 187 148 147z"/>
<path d="M10477 15376 c-3 -8 -3 -17 0 -20 4 -3 85 -6 180 -6 163 0 256 11
269 31 3 5 -93 9 -219 9 -184 0 -226 -3 -230 -14z"/>
<path d="M12699 15348 c-41 -35 -54 -73 -94 -278 -31 -156 -31 -152 2 -148 29
3 37 18 48 90 l6 36 57 -22 c31 -12 82 -28 112 -35 99 -23 161 1 70 27 -127
37 -180 55 -180 61 0 3 20 19 45 34 112 71 128 161 38 221 -41 28 -81 33 -104
14z m74 -48 c30 -14 43 -46 33 -82 -7 -29 -129 -112 -134 -91 -9 38 47 200 66
191 4 -2 19 -10 35 -18z"/>
<path d="M14743 15338 c-4 -7 -22 -56 -39 -108 -18 -52 -44 -126 -58 -165 -27
-71 -28 -95 -2 -95 18 0 27 16 61 106 60 161 85 247 73 261 -13 16 -25 17 -35
1z"/>
<path d="M13364 15316 c-10 -27 6 -38 45 -31 21 3 70 -1 112 -9 102 -22 249
-20 249 3 0 8 -237 44 -328 49 -58 3 -73 1 -78 -12z"/>
<path d="M7135 15310 c-70 -10 -115 -25 -115 -40 0 -20 31 -22 117 -6 89 17
110 26 99 45 -8 12 -14 12 -101 1z"/>
<path d="M12410 15301 c0 -11 5 -21 12 -23 27 -9 -17 -103 -94 -199 l-28 -34
0 45 c-1 64 -33 181 -53 194 -31 20 -36 -10 -15 -93 16 -59 19 -93 14 -153
-10 -116 13 -115 117 6 121 142 155 276 71 276 -17 0 -24 -6 -24 -19z"/>
<path d="M8502 15298 c-10 -10 -8 -16 7 -28 20 -15 20 -15 1 -59 -11 -24 -48
-70 -83 -103 l-62 -61 -7 53 c-7 57 -30 97 -71 120 -20 11 -29 12 -38 3 -9 -9
-5 -20 19 -47 31 -36 40 -64 44 -146 4 -69 29 -66 121 15 117 103 173 207 132
248 -19 20 -46 22 -63 5z"/>
<path d="M9764 15304 c-6 -3 -76 -8 -155 -12 -135 -7 -144 -8 -144 -27 0 -19
5 -20 99 -16 93 3 98 2 91 -15 -10 -24 -30 -110 -45 -197 -13 -71 -6 -95 23
-84 13 5 20 31 46 177 5 30 17 71 25 91 15 36 16 37 84 41 75 4 121 25 85 39
-20 8 -92 10 -109 3z"/>
<path d="M10606 15268 c-18 -27 -66 -211 -66 -251 0 -24 4 -28 22 -25 19 3 25
17 49 114 15 61 32 121 39 133 24 46 -16 71 -44 29z"/>
<path d="M11685 15240 c-4 -6 -9 -38 -12 -70 l-6 -59 -121 -3 c-100 -3 -121
-6 -121 -18 0 -12 21 -15 121 -18 l121 -3 6 -73 c7 -77 14 -106 27 -106 13 0
20 29 27 105 l6 72 53 6 c97 10 91 35 -8 36 l-47 1 -3 67 c-2 54 -6 68 -20 71
-9 2 -19 -2 -23 -8z"/>
<path d="M7025 15220 c-15 -24 14 -32 98 -29 83 4 108 11 93 27 -13 13 -183
15 -191 2z"/>
<path d="M13548 15208 c-34 -52 -57 -108 -77 -187 -26 -104 -26 -111 -1 -111
24 0 33 18 59 123 11 43 32 100 47 127 14 26 23 53 20 59 -11 18 -33 13 -48
-11z"/>
<path d="M14205 15211 c-89 -5 -110 -9 -110 -21 0 -22 219 -27 270 -6 48 20
44 36 -7 34 -24 -1 -92 -4 -153 -7z"/>
<path d="M7620 15171 c0 -18 13 -19 228 -25 125 -3 240 -7 257 -8 21 -2 30 2
33 14 5 27 -81 38 -308 38 -199 0 -210 -1 -210 -19z"/>
<path d="M10285 15163 c-11 -2 -30 -6 -42 -9 -15 -3 -23 -12 -23 -25 0 -23 -8
-23 161 -2 99 12 87 43 -16 42 -33 -1 -69 -3 -80 -6z"/>
<path d="M15640 15130 c0 -20 5 -21 98 -18 78 2 97 6 97 18 0 12 -19 16 -97
18 -93 3 -98 2 -98 -18z"/>
<path d="M10790 15117 c-27 -14 -38 -43 -21 -60 7 -7 16 -6 28 5 25 22 70 31
79 16 18 -28 2 -74 -47 -137 -30 -40 -49 -73 -47 -85 3 -20 9 -21 93 -20 93 1
184 22 218 52 41 36 12 41 -78 13 -33 -10 -86 -22 -118 -26 l-59 -7 41 52 c37
47 61 102 61 141 0 9 -9 28 -21 43 -16 21 -29 26 -62 26 -23 0 -53 -6 -67 -13z"/>
<path d="M14907 15083 c-4 -3 -7 -13 -7 -21 0 -11 8 -13 35 -8 31 6 36 4 46
-17 14 -30 4 -51 -58 -124 -30 -35 -43 -59 -41 -75 3 -22 7 -23 117 -26 108
-3 141 4 141 29 0 5 -45 9 -101 9 l-100 0 23 30 c60 79 68 94 68 130 0 48 -33
80 -81 80 -20 0 -39 -3 -42 -7z"/>
<path d="M13728 15062 c-30 -18 -38 -52 -13 -52 9 0 29 7 46 15 58 31 66 -6
13 -65 -52 -57 -45 -79 33 -106 97 -33 113 -53 63 -79 -39 -20 -96 -20 -104 1
-5 13 -9 14 -21 4 -21 -18 -19 -36 7 -54 41 -29 129 -13 180 33 25 22 30 33
24 54 -7 29 -72 73 -124 83 -18 4 -32 9 -32 12 0 3 12 18 26 33 33 34 43 98
19 122 -21 22 -82 22 -117 -1z"/>
<path d="M7765 15020 c-12 -20 7 -30 54 -30 32 0 56 -6 71 -18 l23 -18 -44
-42 c-24 -22 -59 -51 -78 -64 -86 -58 -63 -90 68 -96 107 -5 147 1 181 29 l25
20 -57 -6 c-31 -3 -89 -3 -128 1 -70 7 -71 7 -48 23 58 39 117 96 123 118 8
33 -11 62 -50 79 -39 16 -131 19 -140 4z"/>
<path d="M9905 15021 c-65 -16 -114 -63 -101 -97 7 -18 50 -15 52 4 1 6 2 16
3 20 4 26 113 44 126 21 4 -5 -5 -28 -20 -49 -32 -47 -28 -65 16 -74 38 -7 69
-32 69 -55 0 -21 -50 -51 -83 -51 -31 0 -51 -22 -35 -38 15 -15 32 -15 79 -2
51 14 89 52 89 89 0 45 -9 60 -51 82 -39 19 -39 20 -24 49 8 16 15 38 15 48 0
43 -69 70 -135 53z"/>
<path d="M15585 15000 c-13 -21 8 -27 117 -34 109 -7 141 1 96 25 -32 17 -203
25 -213 9z"/>
<path d="M7969 14257 c-9 -7 -23 -27 -33 -44 -9 -18 -21 -33 -26 -33 -5 0 -13
-15 -19 -32 -5 -18 -15 -48 -22 -65 -10 -25 -11 -35 -1 -45 9 -9 16 -8 30 5
10 9 32 20 49 23 26 5 34 2 48 -20 23 -34 13 -72 -25 -91 -33 -17 -90 -20 -90
-5 0 16 -27 11 -34 -6 -12 -31 12 -54 57 -54 126 1 203 115 128 191 -16 16
-37 29 -47 29 -14 0 -16 7 -11 41 8 64 24 74 81 55 60 -20 179 -21 195 -2 15
18 3 22 -94 31 -38 4 -80 13 -92 21 -27 17 -72 18 -94 1z"/>
<path d="M9659 14221 c-58 -36 -141 -137 -179 -217 -27 -57 -60 -201 -60 -266
0 -41 34 -102 65 -116 29 -14 95 -16 95 -4 0 5 -16 16 -35 25 -52 25 -75 69
-68 131 8 81 31 173 54 219 32 63 122 169 168 197 40 25 50 52 21 58 -8 1 -36
-11 -61 -27z"/>
<path d="M11250 14219 c0 -6 16 -36 36 -65 55 -84 75 -154 77 -269 2 -83 -2
-109 -20 -155 -36 -89 -118 -210 -195 -287 -40 -40 -67 -73 -61 -73 86 0 246
183 308 354 26 70 27 85 22 177 -6 119 -34 206 -87 276 -34 45 -80 70 -80 42z"/>
<path d="M9023 14115 c-58 -25 -89 -115 -160 -467 -4 -24 -2 -28 16 -28 16 0
27 12 41 43 11 23 20 50 20 60 0 21 13 22 30 3 14 -18 81 -41 175 -61 69 -14
115 -12 115 6 0 13 -28 23 -135 48 -96 23 -137 43 -129 64 2 7 31 27 64 46
141 77 178 177 94 251 -33 28 -74 51 -92 50 -4 -1 -21 -7 -39 -15z m78 -52
c32 -19 54 -63 45 -90 -17 -49 -130 -130 -165 -118 -21 6 -21 9 10 115 31 108
53 127 110 93z"/>
<path d="M10683 14098 c-32 -7 -43 -14 -43 -28 0 -18 7 -18 105 -13 58 3 105
3 105 0 0 -4 -9 -26 -20 -49 -27 -60 -72 -231 -68 -259 3 -26 36 -39 42 -17 2
7 16 58 30 113 15 55 36 123 48 152 11 29 17 57 13 62 -4 8 31 11 109 11 115
0 152 11 101 30 -33 13 -365 11 -422 -2z"/>
<path d="M8681 14061 c-18 -12 -7 -41 17 -41 42 0 56 -55 25 -100 -27 -42 -76
-90 -120 -121 l-43 -30 0 38 c0 67 -20 116 -63 155 -46 43 -74 55 -91 38 -8
-8 0 -21 36 -53 57 -52 73 -96 65 -184 -5 -50 -3 -65 8 -69 18 -7 148 81 202
138 23 23 51 64 63 90 18 42 19 51 7 80 -8 18 -20 38 -28 45 -21 17 -62 25
-78 14z"/>
<path d="M9805 14046 c-5 -3 -27 -7 -47 -11 -30 -5 -38 -10 -38 -27 0 -19 4
-20 53 -15 28 4 97 9 152 12 144 9 179 15 165 29 -10 10 -261 21 -285 12z"/>
<path d="M9889 13928 c-32 -34 -79 -139 -88 -199 -10 -61 -8 -69 19 -69 19 0
30 19 30 51 0 31 37 129 66 172 38 58 18 91 -27 45z"/>
<path d="M8055 13828 c-44 -4 -123 -12 -175 -16 -75 -5 -95 -10 -95 -22 0 -13
22 -15 143 -13 125 2 341 26 366 40 4 3 2 9 -5 14 -17 11 -127 9 -234 -3z"/>
<path d="M10388 13813 c-40 -3 -48 -8 -48 -24 0 -17 7 -19 63 -18 73 1 167 20
170 34 2 10 -101 15 -185 8z"/>
<path d="M7178 13793 c-112 -3 -118 -5 -118 -25 0 -20 2 -20 168 -15 166 5
219 13 224 32 3 11 -81 13 -274 8z"/>
<path d="M11013 13703 c-34 -17 -43 -40 -19 -49 8 -3 28 2 45 10 76 40 68 -5
-15 -83 -48 -46 -64 -68 -62 -84 3 -21 7 -22 96 -21 67 1 99 6 117 18 56 37
10 45 -115 20 l-35 -6 58 57 c48 49 57 63 57 95 0 20 -5 41 -12 48 -17 17 -77
14 -115 -5z"/>
<path d="M7340 13703 c-62 -4 -210 -23 -237 -30 -24 -5 -31 -27 -13 -38 12 -7
252 22 297 36 17 6 37 17 43 25 13 15 15 15 -90 7z"/>
<path d="M10025 13695 c-22 -8 -45 -22 -52 -32 -33 -44 4 -70 42 -29 24 26 75
36 75 15 0 -6 -11 -24 -25 -41 -33 -39 -32 -66 1 -78 35 -14 84 -49 84 -61 0
-5 -9 -18 -20 -29 -22 -22 -96 -28 -102 -8 -3 7 -12 9 -22 5 -12 -5 -16 -15
-14 -34 3 -28 4 -28 71 -26 74 1 111 18 129 58 17 38 1 73 -47 107 -45 32 -45
32 -25 53 39 41 15 116 -36 115 -10 -1 -37 -7 -59 -15z"/>
<path d="M7937 13640 c-44 -8 -66 -25 -51 -40 6 -6 38 -6 89 -1 44 5 82 8 84
6 12 -12 -16 -38 -68 -64 -65 -33 -84 -62 -57 -90 26 -25 245 -29 298 -5 21 9
36 20 33 23 -3 3 -38 4 -76 2 -39 -1 -100 1 -137 5 l-66 7 46 23 c47 24 88 66
88 90 0 8 -9 23 -20 34 -21 21 -85 25 -163 10z"/>
<path d="M6143 12939 c-63 -18 -67 -35 -75 -307 -4 -135 -10 -262 -13 -282 -5
-27 -2 -40 10 -50 30 -25 45 7 51 115 3 55 15 135 25 179 10 43 19 80 19 81 0
2 45 8 100 15 140 17 189 52 176 123 -8 45 -47 92 -97 117 -42 22 -138 26
-196 9z m172 -52 c25 -14 47 -37 59 -61 18 -37 18 -38 -2 -58 -16 -16 -41 -22
-119 -30 -54 -5 -99 -13 -101 -18 -2 -6 -8 -10 -13 -10 -12 0 -11 151 1 170 5
8 32 17 62 21 29 3 58 7 63 7 6 1 28 -8 50 -21z"/>
<path d="M8090 12801 c-66 -20 -141 -86 -177 -155 -22 -42 -19 -158 7 -254 11
-40 20 -81 20 -91 0 -10 8 -29 19 -42 16 -20 21 -21 35 -10 13 11 16 35 16
136 l0 122 74 6 c163 12 252 113 199 224 -30 63 -109 89 -193 64z m128 -63
c33 -37 37 -72 11 -109 -29 -41 -91 -69 -157 -69 -46 0 -54 3 -64 25 -6 14
-19 25 -30 25 -24 0 -23 8 8 53 59 87 183 127 232 75z"/>
<path d="M17763 12574 c-5 -15 25 -82 53 -114 28 -34 75 -151 90 -226 8 -43
15 -135 16 -204 1 -110 -2 -133 -24 -192 -51 -137 -136 -246 -224 -288 -27
-12 -42 -25 -38 -31 11 -19 84 -2 128 29 55 39 136 153 177 249 34 78 34 78
33 238 -2 226 -25 312 -130 481 -45 73 -69 90 -81 58z"/>
<path d="M6436 12478 c-31 -34 -55 -67 -52 -75 7 -16 38 -17 55 0 10 10 11 7
7 -13 -3 -14 -7 -54 -8 -89 -5 -118 42 -75 56 51 3 32 15 82 27 113 36 97 -2
103 -85 13z"/>
<path d="M8507 12423 c-17 -16 -5 -33 22 -33 42 0 49 -19 18 -45 -32 -25 -36
-55 -6 -55 11 0 41 -9 66 -21 53 -24 48 -38 -20 -54 -26 -6 -42 -16 -42 -25 0
-23 58 -24 110 -1 38 17 45 24 45 49 0 32 -19 52 -67 73 -25 11 -30 17 -22 30
14 26 11 56 -7 73 -15 16 -84 22 -97 9z"/>
<path d="M8167 12398 c-18 -6 -27 -16 -25 -27 3 -12 13 -15 46 -13 54 4 56
-14 7 -74 -38 -46 -47 -97 -19 -108 28 -11 104 -6 132 8 15 8 36 23 46 35 19
21 19 21 -1 21 -11 0 -40 -7 -63 -15 -24 -8 -51 -13 -61 -10 -16 5 -14 11 16
51 37 48 47 108 23 132 -14 14 -62 14 -101 0z"/>
<path d="M17327 12387 c-21 -32 -64 -173 -77 -249 -5 -35 -10 -109 -10 -166 0
-119 13 -156 64 -177 33 -14 76 -10 76 6 0 5 0 12 0 16 0 5 -12 9 -26 10 -43
3 -58 26 -62 95 -8 134 35 366 69 375 17 5 31 72 21 101 -7 20 -39 14 -55 -11z"/>
<path d="M17557 12263 c-4 -3 -7 -16 -7 -28 0 -29 -48 -224 -62 -252 -18 -36
-4 -53 44 -53 24 0 61 5 83 11 101 27 95 29 95 -43 0 -70 16 -105 44 -95 13 5
16 23 17 94 1 48 2 116 4 151 2 53 0 62 -15 62 -23 0 -36 -18 -44 -61 -6 -35
-7 -36 -82 -53 -41 -10 -77 -16 -80 -13 -4 4 18 103 47 210 5 21 7 47 4 57 -6
19 -35 27 -48 13z"/>
<path d="M5920 12132 c0 -18 8 -21 68 -26 137 -12 687 -17 702 -6 31 21 -16
27 -278 33 -147 4 -318 10 -379 13 -110 7 -113 6 -113 -14z"/>
<path d="M7060 12130 c0 -20 4 -20 173 -18 145 3 172 5 172 18 0 13 -27 15
-172 18 -169 2 -173 2 -173 -18z"/>
<path d="M7983 12135 c-8 -21 -1 -26 49 -36 93 -18 819 -4 871 16 14 6 15 10
5 23 -11 13 -36 14 -188 6 -206 -11 -555 -11 -658 -1 -61 6 -74 5 -79 -8z"/>
<path d="M6170 12043 c-23 -3 -87 -18 -132 -30 -21 -5 -24 -31 -4 -39 7 -3 43
2 80 10 73 17 146 21 146 8 0 -5 -8 -42 -19 -83 -28 -113 -36 -213 -16 -229
28 -23 45 5 45 74 0 33 9 92 20 130 11 38 17 79 14 92 -5 19 -1 23 36 29 23 4
77 4 121 0 67 -6 79 -5 79 8 0 27 -59 37 -204 36 -78 -1 -152 -3 -166 -6z"/>
<path d="M7120 12032 c0 -17 10 -23 58 -33 82 -17 217 -7 267 19 l40 21 -136
1 c-75 0 -157 3 -183 6 -42 6 -46 5 -46 -14z"/>
<path d="M8580 12023 c-19 -2 -102 -15 -185 -28 -82 -14 -169 -25 -192 -25
-37 0 -43 -3 -43 -21 0 -21 3 -22 98 -17 l97 5 -6 -126 c-3 -69 -11 -136 -17
-147 -16 -30 9 -64 35 -48 34 21 62 301 31 320 -20 12 101 32 261 43 141 10
183 21 151 41 -14 9 -156 11 -230 3z"/>
<path d="M6581 11766 c-43 -44 -62 -69 -58 -80 8 -19 28 -21 46 -3 11 10 12 4
7 -33 -22 -156 -19 -180 26 -180 22 0 36 29 19 39 -16 10 13 186 41 253 20 46
18 68 -5 68 -7 0 -41 -29 -76 -64z"/>
<path d="M8668 11818 c-18 -6 -28 -17 -28 -30 0 -18 4 -20 48 -14 26 4 59 9
75 12 43 9 35 -28 -18 -77 -64 -60 -60 -99 12 -99 37 0 185 39 211 56 57 37 5
44 -103 14 -96 -27 -102 -25 -61 14 29 27 36 41 36 73 0 21 -5 44 -12 51 -14
14 -121 15 -160 0z"/>
<path d="M7530 10674 c-58 -25 -101 -64 -121 -112 -21 -49 -19 -72 7 -72 11 0
14 -5 9 -17 -28 -75 -83 -289 -76 -296 25 -25 59 36 90 158 l11 40 62 0 c35 0
75 3 90 8 40 11 86 65 96 114 13 57 -2 140 -29 169 -27 28 -85 32 -139 8z
m111 -55 c6 -13 9 -47 7 -81 -3 -46 -10 -64 -30 -85 -28 -27 -95 -45 -133 -34
l-24 6 27 61 c15 34 34 69 42 79 10 13 11 21 3 35 -10 14 -8 19 10 28 39 19
85 14 98 -9z"/>
<path d="M7807 10323 c-15 -15 -6 -33 17 -33 61 0 102 -40 56 -55 -39 -12 -23
-43 38 -74 55 -28 94 -72 78 -88 -4 -5 -33 -12 -64 -18 -40 -7 -57 -15 -57
-25 0 -12 14 -15 67 -14 71 1 101 15 114 56 9 28 -41 94 -87 115 -38 16 -38
16 -21 45 20 35 11 55 -39 80 -34 18 -90 24 -102 11z"/>
<path d="M5480 10298 c-37 -10 -54 -28 -42 -40 5 -5 62 -4 128 2 65 5 187 10
269 10 149 0 197 9 165 30 -20 13 -474 11 -520 -2z"/>
<path d="M11045 10283 c-11 -2 -30 -6 -42 -9 -15 -3 -23 -12 -23 -25 0 -20 4
-21 53 -15 28 3 106 8 172 11 66 3 136 8 155 11 33 5 34 7 15 20 -14 11 -53
14 -164 13 -80 -1 -155 -3 -166 -6z"/>
<path d="M7500 10250 c0 -18 7 -20 60 -20 33 0 60 -3 60 -7 0 -5 -23 -32 -50
-60 -52 -54 -65 -95 -34 -107 29 -11 179 -7 192 6 23 23 12 28 -61 28 -41 0
-76 2 -79 5 -3 3 14 27 38 53 54 58 61 78 38 103 -14 15 -31 19 -91 19 -66 0
-73 -2 -73 -20z"/>
<path d="M10498 10254 c-10 -3 -18 -14 -18 -23 0 -16 10 -18 93 -18 69 0 101
-4 127 -17 43 -22 80 -55 80 -72 0 -29 -66 -77 -199 -143 -109 -55 -142 -76
-139 -89 3 -15 18 -17 123 -17 143 1 244 18 303 52 24 14 41 27 39 29 -3 3
-79 -6 -169 -20 -90 -14 -169 -26 -174 -26 -5 1 38 25 96 55 108 56 155 95
166 141 11 42 -20 88 -80 120 -44 24 -64 28 -141 30 -49 2 -98 0 -107 -2z"/>
<path d="M8610 10185 c-58 -8 -142 -14 -187 -14 -76 -1 -83 -3 -83 -21 0 -11
6 -20 13 -21 36 -3 197 3 226 8 32 5 34 5 27 -18 -4 -13 -16 -60 -26 -104 -9
-44 -27 -114 -39 -156 -28 -99 -28 -121 1 -117 19 2 26 17 45 83 21 70 53 205
70 287 6 30 1 28 137 48 76 12 89 17 81 31 -8 12 -139 9 -265 -6z"/>
<path d="M5705 10156 c-8 -19 -22 -69 -30 -112 -9 -44 -23 -99 -31 -123 -13
-40 -13 -46 1 -60 25 -25 43 3 66 105 11 49 28 114 38 145 19 65 17 79 -10 79
-13 0 -25 -12 -34 -34z"/>
<path d="M11181 10176 c-18 -22 -81 -227 -81 -264 0 -29 3 -33 22 -30 17 2 24
14 34 53 6 28 24 89 39 137 26 81 28 118 7 118 -5 0 -15 -6 -21 -14z"/>
<path d="M6447 10144 c-16 -17 -5 -34 31 -43 45 -13 329 -15 336 -2 13 20 -27
29 -163 35 -79 4 -155 9 -170 12 -14 3 -29 2 -34 -2z"/>
<path d="M9620 10050 c0 -19 7 -20 136 -20 83 0 144 4 157 12 21 11 21 11 2
19 -11 4 -82 8 -157 8 -132 1 -138 0 -138 -19z"/>
<path d="M6489 9969 c-7 -4 -9 -14 -6 -23 5 -14 27 -16 140 -16 100 0 138 4
153 14 16 12 16 15 4 20 -26 8 -278 13 -291 5z"/>
<path d="M11466 9945 c-67 -45 -106 -80 -106 -93 0 -23 29 -24 61 -1 l32 23
-7 -25 c-10 -34 -38 -161 -40 -179 0 -8 8 -16 20 -18 24 -3 36 21 54 107 6 30
22 81 36 112 41 92 21 122 -50 74z"/>
<path d="M7320 9930 c0 -20 7 -20 391 -20 276 0 397 3 412 12 21 11 21 11 2
19 -11 4 -197 8 -412 8 -387 1 -393 1 -393 -19z"/>
<path d="M9725 9937 c-41 -8 -60 -17 -60 -27 0 -17 48 -19 175 -6 76 7 111 19
97 32 -12 13 -151 13 -212 1z"/>
<path d="M9010 9882 c-90 -60 -130 -93 -130 -109 0 -31 32 -23 91 21 34 26 64
45 66 42 2 -2 -7 -32 -21 -66 -14 -35 -29 -85 -32 -112 -7 -48 -6 -50 17 -46
19 2 26 12 35 48 6 25 28 87 48 139 20 52 34 101 32 108 -9 23 -49 14 -106
-25z"/>
<path d="M5917 9876 c-7 -18 1 -26 29 -26 34 0 73 -20 79 -41 9 -28 -10 -55
-71 -100 -83 -61 -74 -74 51 -73 83 0 107 4 144 23 64 33 40 43 -59 26 -109
-19 -111 -19 -73 8 79 55 85 145 13 182 -37 19 -106 20 -113 1z"/>
<path d="M7690 9841 c-41 -13 -108 -59 -126 -87 -22 -33 -32 -167 -14 -189 10
-12 10 -32 1 -97 -7 -46 -17 -102 -23 -126 -13 -50 0 -75 27 -52 19 16 33 67
48 183 l13 92 63 8 c160 20 252 108 205 196 -34 63 -119 95 -194 72z m110 -56
c34 -18 47 -56 31 -91 -15 -33 -103 -74 -161 -74 l-45 0 1 66 c2 65 2 66 40
90 45 27 93 30 134 9z"/>
<path d="M7888 9481 c-62 -55 -89 -141 -40 -129 17 5 18 -2 18 -61 -1 -59 1
-66 18 -66 16 0 22 12 32 70 6 39 21 95 32 126 31 87 3 115 -60 60z"/>
<path d="M8664 8662 c-16 -10 -130 -219 -150 -273 -32 -90 -64 -258 -64 -336
1 -123 40 -190 119 -200 31 -4 46 -1 61 12 31 28 24 37 -20 30 -36 -6 -43 -4
-70 25 -50 53 -52 135 -9 331 19 83 38 132 97 248 65 128 79 171 55 171 -4 0
-13 -4 -19 -8z"/>
<path d="M4087 8618 c-95 -126 -179 -425 -179 -635 0 -154 34 -233 101 -233
31 0 34 17 7 35 -41 27 -51 69 -51 205 0 189 56 410 141 566 48 86 33 132 -19
62z"/>
<path d="M2479 8571 c-37 -30 -14 -46 47 -33 27 6 52 8 56 6 19 -12 5 -42 -27
-60 -47 -25 -47 -55 0 -83 19 -11 40 -32 47 -46 10 -22 9 -29 -9 -47 -11 -11
-42 -24 -69 -29 -52 -10 -70 -21 -60 -38 9 -14 60 -14 107 -1 92 26 116 100
55 167 l-34 38 24 18 c26 20 33 72 14 108 -15 27 -118 27 -151 0z"/>
<path d="M6886 8504 c-16 -78 -16 -88 -2 -102 14 -14 17 -14 37 4 21 18 21 18
36 -1 17 -24 12 -91 -10 -112 -8 -8 -28 -15 -45 -15 -24 -1 -32 -6 -32 -19 0
-39 81 -35 121 7 17 18 24 39 27 82 4 52 1 61 -23 90 -15 18 -35 32 -44 32
-16 0 -17 4 -8 40 l11 40 111 0 c60 0 117 5 125 10 31 21 -15 30 -151 30
l-136 0 -17 -86z"/>
<path d="M1107 8554 c-60 -19 -137 -89 -137 -127 0 -14 4 -28 9 -31 5 -4 3
-26 -5 -53 -8 -25 -15 -85 -16 -132 -1 -100 21 -160 77 -210 43 -37 124 -56
184 -42 42 9 43 8 62 -24 20 -34 65 -59 95 -53 28 5 26 22 -5 40 -16 9 -37 28
-46 42 -17 26 -17 26 33 73 60 58 89 112 108 206 29 140 -21 258 -131 308 -49
23 -159 24 -228 3z m198 -43 c50 -23 79 -54 101 -109 22 -56 15 -159 -15 -227
-23 -52 -98 -138 -113 -129 -5 3 -20 29 -34 57 -33 65 -52 87 -76 87 -25 0
-36 -30 -15 -41 20 -12 79 -127 72 -140 -8 -12 -61 -11 -106 1 -37 10 -73 49
-97 103 -17 38 -15 154 3 213 19 63 19 82 -1 86 -14 3 -13 7 5 30 59 75 192
108 276 69z"/>
<path d="M5464 8549 c-4 -7 34 -51 94 -108 87 -83 106 -108 135 -172 19 -40
40 -103 46 -139 7 -36 14 -73 16 -82 1 -9 -1 -52 -6 -95 -11 -105 -69 -223
-134 -273 -50 -39 -57 -60 -21 -60 47 0 112 64 156 153 54 110 68 197 52 312
-26 177 -74 268 -205 389 -91 83 -118 98 -133 75z"/>
<path d="M10254 8508 c-4 -6 5 -21 22 -35 85 -69 157 -152 192 -222 37 -75 37
-75 37 -215 -1 -134 -2 -145 -33 -225 -17 -46 -47 -103 -67 -126 -38 -47 -44
-65 -19 -65 70 0 151 157 176 340 22 166 -17 303 -121 427 -55 66 -138 133
-164 133 -9 0 -19 -5 -23 -12z"/>
<path d="M8066 8455 c-71 -25 -116 -100 -116 -193 0 -26 -5 -105 -11 -175 -11
-116 -10 -130 4 -145 43 -42 65 47 66 269 1 160 32 209 130 209 35 0 40 -3 45
-27 10 -45 -9 -89 -73 -169 -112 -139 -99 -159 145 -219 39 -10 80 -15 90 -11
18 7 18 8 -3 25 -12 10 -60 28 -106 39 -111 28 -137 39 -137 55 0 8 29 51 65
96 39 50 67 96 71 117 9 51 -2 106 -27 127 -26 21 -88 22 -143 2z"/>
<path d="M3505 8439 c-69 -20 -115 -113 -115 -234 0 -33 -5 -66 -11 -72 -6 -6
-15 -57 -19 -113 -8 -84 -7 -107 6 -131 32 -62 74 -20 74 74 0 29 3 62 6 74 6
21 8 21 33 9 23 -12 167 -56 184 -56 4 0 7 11 7 24 0 21 -8 26 -77 45 -42 11
-83 27 -91 35 -13 13 -9 19 26 53 64 60 112 138 112 183 0 55 -15 87 -49 105
-33 17 -42 17 -86 4z m59 -45 c8 -3 18 -21 22 -40 8 -41 -23 -97 -88 -163
l-43 -43 -3 63 c-6 128 44 209 112 183z"/>
<path d="M8722 8400 c-40 -9 -60 -26 -46 -39 9 -9 362 5 394 16 12 4 12 7 -4
19 -15 11 -54 14 -165 13 -80 -1 -161 -5 -179 -9z"/>
<path d="M3182 8378 c-23 -23 -7 -68 25 -68 7 0 13 7 13 16 0 9 6 14 13 11 19
-6 10 -66 -17 -112 -26 -43 -103 -135 -114 -135 -4 0 -15 25 -25 56 -10 31
-31 76 -47 99 -17 24 -30 52 -30 63 0 21 -51 49 -69 37 -20 -12 -11 -40 30
-95 67 -89 104 -206 76 -238 -8 -9 -17 -24 -19 -32 -7 -19 9 -50 26 -50 17 0
56 42 56 61 0 8 32 51 71 94 91 103 119 151 126 219 5 53 5 55 -25 70 -37 19
-73 21 -90 4z"/>
<path d="M7684 8375 c-4 -9 5 -26 21 -41 26 -24 27 -30 23 -88 -3 -34 -12 -75
-21 -92 -21 -42 -94 -120 -102 -112 -4 4 -12 72 -16 150 -5 78 -13 146 -18
151 -5 5 -17 7 -27 5 -17 -3 -19 -13 -16 -113 3 -112 18 -210 35 -232 5 -7 23
-13 40 -13 24 0 42 12 83 54 29 30 60 69 70 87 18 37 31 151 20 193 -13 53
-78 88 -92 51z"/>
<path d="M9765 8380 c-67 -10 -105 -29 -105 -52 0 -27 24 -32 54 -13 19 13 64
19 173 26 159 9 193 14 193 28 0 5 -10 11 -22 15 -31 8 -231 5 -293 -4z"/>
<path d="M4967 8363 c-4 -3 -7 -12 -7 -20 0 -10 22 -13 94 -13 l93 0 -12 -47
c-16 -63 -28 -274 -17 -291 5 -8 18 -12 28 -10 17 3 20 17 25 138 4 89 12 148
22 173 16 37 16 37 75 37 33 0 74 3 92 6 32 7 32 7 9 20 -17 10 -76 13 -210
14 -102 0 -189 -3 -192 -7z"/>
<path d="M6340 8335 c-7 -8 -15 -44 -18 -81 -5 -73 -6 -73 -85 -83 -37 -4 -52
-10 -52 -21 0 -11 15 -16 63 -18 l62 -3 0 -38 c0 -59 11 -101 26 -101 20 0 34
42 34 100 l0 49 53 5 c28 3 68 7 87 9 27 1 35 6 35 21 0 17 -7 19 -87 17 l-88
-2 0 28 c1 15 4 46 9 68 4 22 6 46 3 53 -5 17 -27 15 -42 -3z"/>
<path d="M4087 8324 c-4 -4 -7 -13 -7 -21 0 -10 19 -13 75 -13 l75 0 -1 -82
c0 -46 -5 -105 -10 -133 -5 -27 -12 -74 -16 -103 -5 -52 -5 -54 18 -50 22 3
26 12 47 123 14 75 21 143 18 182 l-4 62 77 3 c60 2 76 6 76 18 0 13 -27 15
-171 18 -93 1 -173 -1 -177 -4z"/>
<path d="M8817 8324 c-4 -4 -7 -24 -7 -45 0 -21 -9 -77 -21 -125 -22 -92 -17
-120 18 -98 24 15 71 228 56 252 -11 19 -35 27 -46 16z"/>
<path d="M9800 8243 c-12 -27 -26 -70 -31 -98 -37 -208 -38 -260 -4 -260 16 0
21 9 27 50 19 153 39 256 54 288 9 19 14 42 11 51 -12 30 -36 16 -57 -31z"/>
<path d="M1644 8256 c-9 -22 -6 -24 56 -36 68 -13 122 -13 157 1 37 14 18 24
-62 33 -33 4 -79 9 -102 13 -34 4 -44 2 -49 -11z"/>
<path d="M6860 8171 c0 -30 34 -36 205 -36 127 0 150 2 150 15 0 12 -21 16
-105 22 -58 3 -138 9 -177 13 -69 5 -73 5 -73 -14z"/>
<path d="M10800 8170 c0 -19 7 -20 160 -20 130 0 160 3 160 14 0 22 -24 26
-176 26 -137 0 -144 -1 -144 -20z"/>
<path d="M2480 8110 c0 -19 7 -20 111 -20 113 0 176 14 134 31 -11 4 -71 8
-132 8 -107 1 -113 0 -113 -19z"/>
<path d="M5433 8073 c-51 -48 -66 -76 -51 -91 17 -17 35 -15 48 6 9 14 10 10
5 -18 -3 -19 -8 -61 -12 -92 -5 -57 -5 -58 21 -58 22 0 26 4 26 28 0 15 10 67
21 116 22 89 20 134 -7 143 -6 2 -29 -13 -51 -34z"/>
<path d="M9390 8091 c-31 -4 -45 -11 -45 -21 0 -12 15 -15 80 -14 87 1 169 19
160 34 -7 11 -120 11 -195 1z"/>
<path d="M1644 8065 c-3 -8 -3 -18 0 -23 11 -18 287 -35 303 -19 17 18 -24 29
-148 42 -74 8 -138 15 -142 15 -4 0 -10 -7 -13 -15z"/>
<path d="M4760 8050 c0 -20 5 -21 93 -18 74 2 92 6 92 18 0 12 -18 16 -92 18
-88 3 -93 2 -93 -18z"/>
<path d="M9018 8059 c-38 -21 -10 -61 29 -41 47 24 59 -30 18 -84 -14 -18 -25
-37 -25 -42 0 -5 23 -23 50 -41 60 -39 65 -66 19 -105 -37 -31 -59 -33 -59 -6
0 26 -26 26 -40 -1 -9 -16 -8 -26 5 -46 15 -22 21 -24 53 -18 46 8 95 41 117
77 24 41 12 82 -36 120 -38 31 -39 32 -22 57 20 31 19 98 -4 123 -18 20 -77
24 -105 7z"/>
<path d="M4367 8053 c-17 -17 -6 -44 21 -49 36 -7 70 -36 77 -66 5 -21 -5 -37
-60 -97 -88 -96 -85 -105 30 -109 76 -2 95 1 123 18 17 11 32 25 32 31 0 7
-12 9 -32 5 -18 -3 -57 -9 -86 -12 -46 -6 -52 -5 -46 10 3 9 10 16 14 16 5 0
24 22 44 49 58 79 46 135 -39 182 -53 29 -67 33 -78 22z"/>
<path d="M10863 8023 c-11 -27 20 -33 182 -33 124 1 164 4 179 15 28 21 15 23
-182 28 -148 4 -174 3 -179 -10z"/>
<path d="M2460 7973 c0 -18 8 -21 74 -25 82 -5 126 -26 126 -58 0 -25 -62 -86
-128 -125 -57 -34 -76 -58 -67 -85 8 -25 52 -33 164 -29 69 3 94 8 108 22 16
16 14 17 -42 17 -33 0 -84 3 -113 7 l-53 6 53 35 c73 48 97 71 119 115 17 32
18 41 7 64 -25 51 -60 66 -158 71 -85 4 -90 3 -90 -15z"/>
<path d="M6942 7973 c2 -10 17 -20 36 -24 71 -14 67 -43 -19 -127 -65 -64 -74
-95 -38 -128 27 -24 114 -25 190 -1 57 17 109 50 98 62 -4 3 -48 -3 -100 -15
-166 -36 -189 -25 -106 53 30 29 60 62 66 74 32 63 -8 123 -84 123 -38 0 -46
-3 -43 -17z"/>
<path d="M9980 7970 c0 -18 7 -20 59 -20 93 0 103 -36 30 -120 -21 -25 -29
-43 -27 -65 3 -29 5 -30 61 -33 91 -5 187 38 200 89 6 22 -10 24 -37 4 -27
-20 -143 -58 -156 -50 -6 4 -1 19 14 38 27 36 56 91 56 106 0 5 -12 23 -26 40
-25 29 -29 31 -100 31 -67 0 -74 -2 -74 -20z"/>
<path d="M3964 6802 c-27 -19 -101 -169 -148 -298 -51 -143 -76 -268 -83 -416
-5 -118 -4 -132 20 -210 45 -144 122 -215 223 -206 31 3 35 5 19 12 -106 43
-154 95 -190 207 -25 76 -26 93 -21 187 12 202 71 417 167 606 53 103 58 149
13 118z"/>
<path d="M3113 6719 c-17 -5 -43 -23 -57 -40 -26 -30 -26 -32 -26 -204 0 -144
3 -176 16 -189 12 -12 20 -13 35 -6 15 8 19 22 19 59 l0 49 113 -35 c173 -54
183 -57 202 -50 40 16 -41 55 -214 105 l-65 18 57 40 c66 47 107 97 107 132 0
84 -96 146 -187 121z m115 -74 c27 -32 28 -45 1 -79 -20 -25 -122 -106 -134
-106 -3 0 -5 42 -5 94 0 87 2 96 23 111 31 22 86 13 115 -20z"/>
<path d="M2703 6634 c-4 -11 3 -23 20 -36 30 -22 34 -56 16 -121 -17 -61 -133
-157 -159 -131 -5 5 -12 50 -15 99 -9 112 -20 161 -42 169 -27 11 -36 -8 -24
-50 6 -22 11 -73 11 -115 0 -140 40 -182 134 -140 60 26 132 99 145 147 14 52
13 135 -2 155 -13 18 -50 39 -67 39 -6 0 -13 -7 -17 -16z"/>
<path d="M9927 6603 c-16 -15 -6 -33 18 -33 34 0 94 -31 126 -67 61 -65 96
-188 83 -291 -15 -127 -85 -299 -171 -419 -24 -35 -41 -63 -38 -63 20 0 68 36
99 73 45 55 108 181 135 272 69 224 11 438 -141 516 -36 19 -98 26 -111 12z"/>
<path d="M5129 6486 c-2 -3 -76 -12 -164 -21 -296 -29 -325 -34 -325 -57 0
-19 5 -20 98 -14 53 4 111 9 128 12 l31 4 -58 -176 c-33 -98 -59 -181 -59
-186 0 -17 40 -7 54 15 21 32 108 312 104 333 -3 17 7 20 72 26 101 10 189 23
196 31 16 15 -7 37 -39 37 -19 0 -36 -2 -38 -4z"/>
<path d="M7234 6455 c-137 -16 -154 -21 -154 -46 0 -21 11 -22 98 -10 28 4 52
6 52 4 0 -4 -16 -53 -81 -247 -20 -61 -16 -81 16 -74 18 3 33 40 74 178 13 41
31 93 42 116 l19 41 137 6 c133 6 175 17 143 37 -21 13 -212 10 -346 -5z"/>
<path d="M6684 6445 c-39 -7 -91 -23 -115 -36 -24 -12 -55 -22 -68 -23 -20 -1
-27 -11 -46 -69 -12 -37 -30 -73 -40 -81 -12 -8 -16 -19 -12 -31 7 -17 19 -17
102 1 26 5 52 -15 60 -48 5 -20 0 -33 -23 -59 -28 -31 -35 -34 -93 -36 -65 -1
-81 -12 -59 -38 15 -18 51 -19 120 -4 43 9 56 18 82 52 25 36 29 48 25 87 -6
51 -41 87 -92 92 l-31 3 13 45 c12 42 17 46 65 64 29 10 76 23 103 28 129 26
197 44 198 53 3 15 -108 15 -189 0z"/>
<path d="M9325 6445 c-5 -2 -27 -6 -47 -10 -30 -4 -38 -11 -38 -26 0 -20 4
-20 73 -14 135 12 300 10 355 -4 37 -9 57 -10 64 -3 13 13 -28 41 -79 53 -36
8 -306 11 -328 4z"/>
<path d="M4313 6423 c-24 -5 -73 -57 -73 -78 0 -19 27 -38 45 -31 8 3 15 14
15 24 0 28 18 39 75 44 57 6 75 2 75 -17 0 -13 -61 -71 -95 -91 -29 -16 -12
-44 27 -44 43 -1 111 -32 132 -61 22 -32 21 -36 -14 -54 -39 -20 -100 -20
-100 0 0 9 -9 15 -24 15 -52 0 -44 -53 11 -70 42 -15 101 -7 154 20 33 17 39
25 39 53 0 59 -35 99 -114 127 l-29 11 31 32 c37 38 42 77 12 107 -16 16 -32
20 -82 19 -35 -1 -73 -4 -85 -6z"/>
<path d="M1777 6316 c-3 -9 1 -22 9 -31 23 -22 279 -18 279 5 0 12 -21 16
-100 21 -55 4 -119 9 -141 13 -33 6 -43 4 -47 -8z"/>
<path d="M9426 6303 c-19 -39 -72 -170 -86 -217 -10 -31 -10 -40 1 -46 20 -13
47 7 54 39 3 17 22 67 42 113 47 110 52 138 24 138 -12 0 -26 -11 -35 -27z"/>
<path d="M5922 6298 c-7 -7 -12 -29 -12 -50 l0 -38 -95 0 c-88 0 -95 -1 -95
-20 0 -19 7 -20 95 -20 l94 0 -6 -49 c-3 -28 -3 -57 1 -67 12 -30 45 12 52 67
l6 48 62 3 c46 2 61 7 61 18 0 11 -14 16 -57 18 l-58 3 0 37 c0 34 -14 62 -30
62 -3 0 -11 -5 -18 -12z"/>
<path d="M8699 6264 c-49 -43 -54 -45 -94 -40 -33 5 -44 3 -48 -9 -11 -28 4
-45 39 -45 19 0 34 -2 34 -4 0 -3 -16 -32 -36 -65 -37 -63 -42 -103 -11 -109
12 -3 22 7 32 32 30 72 98 172 143 212 32 29 44 45 39 57 -11 29 -44 19 -98
-29z"/>
<path d="M8978 6275 c-29 -16 -48 -44 -48 -69 0 -23 14 -20 48 9 31 26 92 34
121 16 17 -11 7 -47 -23 -80 -28 -32 -113 -71 -153 -71 -38 0 -38 -1 -17 44
33 68 -12 93 -46 26 -26 -51 -26 -85 2 -104 67 -47 246 29 284 121 21 49 17
80 -10 98 -36 24 -125 29 -158 10z"/>
<path d="M1975 6250 c-107 -4 -130 -8 -130 -20 0 -13 22 -15 140 -15 87 1 151
6 169 13 16 7 27 14 25 16 -10 8 -85 11 -204 6z"/>
<path d="M10540 6233 c0 -19 9 -21 143 -28 226 -11 240 -11 244 2 8 24 -53 35
-219 41 -163 5 -168 4 -168 -15z"/>
<path d="M9788 6169 c-66 -40 -83 -64 -54 -75 8 -3 24 -1 35 6 25 13 25 14 6
-40 -8 -23 -15 -60 -15 -82 0 -35 2 -39 23 -36 15 2 23 11 25 28 7 57 37 137
64 173 31 40 31 67 1 67 -10 0 -48 -19 -85 -41z"/>
<path d="M2484 6176 c-4 -9 -4 -19 -1 -22 18 -18 125 -24 482 -24 383 0 453 5
417 29 -8 4 -197 11 -420 15 -224 3 -422 9 -439 12 -25 5 -34 2 -39 -10z"/>
<path d="M7940 6155 c-16 -20 6 -49 29 -39 9 4 86 10 171 13 137 5 155 8 158
24 3 16 -10 17 -171 17 -143 0 -177 -3 -187 -15z"/>
<path d="M5211 6119 c-42 -17 -111 -79 -111 -100 0 -36 28 -32 71 10 24 22 45
39 47 36 3 -2 -2 -24 -11 -47 -28 -77 -52 -211 -48 -266 1 -8 10 -12 23 -10
19 2 24 11 30 53 10 74 28 153 50 218 33 97 15 133 -51 106z"/>
<path d="M10568 6089 c-6 -4 -8 -14 -5 -23 9 -23 283 -24 327 -1 17 9 30 19
30 24 0 9 -337 9 -352 0z"/>
<path d="M7412 6041 c-8 -5 -12 -17 -10 -27 4 -22 43 -31 62 -14 11 8 18 7 30
-5 24 -25 20 -44 -20 -82 -42 -39 -39 -58 10 -67 40 -8 86 -56 86 -91 0 -39
-53 -75 -111 -75 -27 0 -49 5 -49 10 0 17 -40 11 -47 -7 -11 -27 32 -53 88
-53 99 0 169 51 169 122 0 50 -40 115 -76 124 -24 6 -24 6 -4 31 49 62 8 143
-72 143 -24 0 -49 -4 -56 -9z"/>
<path d="M2821 5975 c3 -13 19 -22 56 -30 64 -15 103 -39 103 -66 0 -19 -8
-29 -83 -97 -20 -19 -37 -37 -37 -42 0 -55 300 -25 350 35 11 13 7 15 -20 15
-18 0 -58 -6 -89 -14 -66 -16 -151 -28 -151 -21 0 3 15 19 34 35 100 89 49
183 -107 198 -53 4 -59 3 -56 -13z"/>
<path d="M4438 5270 c-14 -11 -40 -42 -57 -69 -99 -153 -177 -520 -153 -711
22 -168 110 -307 189 -298 27 3 27 3 -18 48 -52 51 -80 100 -104 185 -15 49
-17 85 -12 200 9 235 92 509 181 598 40 40 44 52 20 61 -19 7 -14 9 -46 -14z"/>
<path d="M3383 5262 c-38 -12 -60 -37 -81 -93 -27 -74 -54 -258 -50 -349 3
-72 4 -75 28 -75 23 0 25 4 28 47 l3 47 82 -35 c45 -19 117 -53 161 -75 72
-36 116 -44 116 -20 0 18 -120 83 -262 141 -32 13 -58 27 -58 32 0 4 22 19 49
32 72 37 107 71 137 133 27 55 27 55 9 109 -29 86 -93 128 -162 106z m79 -59
c20 -25 38 -70 38 -97 0 -45 -53 -109 -123 -148 l-66 -36 4 26 c2 15 6 52 9
83 6 60 28 130 52 166 18 28 64 31 86 6z"/>
<path d="M7857 5196 c-3 -8 19 -34 54 -65 98 -87 165 -197 198 -329 48 -187
11 -387 -95 -519 -38 -47 -40 -53 -19 -53 24 0 99 75 127 127 65 121 82 322
39 468 -40 138 -119 265 -212 341 -55 45 -83 54 -92 30z"/>
<path d="M2942 5088 c-24 -24 -14 -41 19 -34 26 5 30 3 25 -10 -3 -9 -6 -21
-6 -29 0 -14 -72 -123 -131 -198 l-37 -47 -7 72 c-8 94 -20 123 -60 148 -64
39 -84 11 -30 -43 35 -35 35 -35 35 -129 0 -79 3 -98 18 -111 28 -25 48 -21
73 16 13 17 40 52 60 77 112 138 161 246 129 285 -15 18 -71 20 -88 3z"/>
<path d="M5220 5030 c0 -20 7 -20 269 -20 148 0 277 3 285 6 13 5 14 9 5 20
-9 11 -64 14 -285 14 -267 0 -274 0 -274 -20z"/>
<path d="M4756 5002 c-3 -5 -21 -51 -39 -103 -19 -52 -42 -110 -51 -131 -13
-31 -14 -38 -1 -48 15 -12 26 -10 56 12 23 16 44 5 75 -41 57 -87 36 -171 -51
-210 -52 -23 -71 -19 -99 24 -20 31 -36 24 -36 -15 0 -38 41 -70 89 -70 48 1
130 46 158 89 35 51 32 133 -6 192 -30 48 -75 89 -97 89 -18 0 -18 2 11 85
l24 70 165 5 c90 3 168 9 172 13 19 19 -30 27 -173 27 -90 0 -154 4 -158 10
-7 12 -32 13 -39 2z"/>
<path d="M5436 4973 c-3 -10 -8 -40 -11 -68 -4 -27 -23 -106 -42 -175 -20 -69
-38 -140 -40 -158 -5 -30 -3 -33 17 -30 26 3 37 28 76 173 42 154 57 245 43
261 -16 19 -37 18 -43 -3z"/>
<path d="M7576 4963 c-4 -4 -91 -10 -194 -14 -103 -4 -195 -10 -204 -14 -10
-4 -18 -16 -18 -27 0 -21 -19 -21 210 -2 l71 5 -29 -58 c-30 -60 -92 -243 -92
-272 0 -10 -5 -22 -12 -29 -10 -9 -9 -16 4 -28 22 -22 58 -3 58 31 0 31 75
258 96 290 9 14 14 34 11 45 -5 18 0 20 40 20 49 0 133 18 148 32 14 13 -13
28 -51 28 -17 0 -34 -3 -38 -7z"/>
<path d="M6725 4940 c-14 -22 11 -30 96 -30 107 0 107 -1 53 -117 -20 -43 -43
-93 -51 -110 -15 -33 -15 -33 -99 -33 -77 0 -84 -2 -84 -20 0 -18 7 -20 70
-20 39 0 70 -2 70 -4 0 -13 -60 -127 -74 -141 -19 -20 -17 -34 6 -49 25 -15
44 7 90 105 l41 89 91 0 c92 0 124 9 112 29 -4 7 -40 11 -92 11 -46 0 -84 2
-84 4 0 3 20 48 45 100 46 98 57 160 33 184 -15 15 -214 17 -223 2z"/>
<path d="M1845 4740 c-15 -25 13 -30 172 -30 165 0 166 0 148 20 -17 18 -31
20 -166 20 -88 0 -150 -4 -154 -10z"/>
<path d="M8500 4692 c0 -14 13 -21 51 -30 93 -22 213 -11 184 16 -9 8 -172 32
-219 32 -9 0 -16 -8 -16 -18z"/>
<path d="M5535 4636 c-26 -18 -13 -50 18 -43 12 3 45 9 74 13 50 6 52 5 59
-20 8 -32 -43 -100 -81 -110 -33 -8 -35 -46 -2 -46 39 0 105 -57 107 -92 1
-20 -36 -38 -79 -38 -52 0 -76 16 -65 44 10 26 -25 32 -49 8 -28 -28 -13 -62
39 -87 44 -21 131 -16 170 9 48 32 43 99 -12 154 l-34 34 30 34 c34 40 40 95
14 132 -13 19 -24 22 -93 22 -49 0 -84 -5 -96 -14z"/>
<path d="M7632 4598 c-28 -18 -52 -38 -52 -46 0 -19 25 -25 50 -12 12 6 24 9
27 6 3 -3 -4 -33 -16 -67 -28 -83 -27 -101 2 -97 18 2 28 20 60 113 21 60 35
115 33 122 -9 22 -49 14 -104 -19z"/>
<path d="M6250 4613 c-30 -1 -94 -8 -142 -15 -74 -10 -88 -15 -88 -30 0 -14 8
-18 33 -18 53 0 254 19 271 26 22 9 21 45 -1 42 -10 -1 -43 -3 -73 -5z"/>
<path d="M1900 4590 c0 -19 7 -20 170 -20 161 0 228 10 214 31 -3 5 -90 9
-195 9 -182 0 -189 -1 -189 -20z"/>
<path d="M2662 4600 c-40 -9 -46 -15 -39 -33 4 -12 82 -13 489 -10 605 4 573
3 573 28 0 22 -13 23 -455 14 -107 -2 -271 -1 -365 3 -93 3 -185 3 -203 -2z"/>
<path d="M8524 4525 c-12 -30 8 -35 125 -35 92 0 121 3 131 15 15 19 -2 22
-143 29 -87 4 -109 2 -113 -9z"/>
<path d="M3045 4380 c-22 -5 -64 -9 -92 -9 -47 -1 -53 -3 -53 -22 0 -20 3 -21
158 -17 l157 3 0 -24 c0 -19 -15 -35 -66 -70 -117 -80 -133 -96 -125 -116 6
-16 16 -17 112 -12 102 7 156 21 158 42 1 14 -86 18 -131 6 -20 -6 -39 -9 -41
-6 -2 2 18 19 44 37 109 74 135 121 91 165 -22 22 -36 26 -99 29 -40 2 -91 -1
-113 -6z"/>
<path d="M5899 3375 c-133 -167 -324 -572 -376 -799 -41 -182 35 -312 169
-287 43 8 43 8 15 19 -16 7 -36 12 -46 12 -10 0 -34 17 -54 39 -51 56 -56 111
-22 237 58 219 236 595 354 747 42 55 49 87 18 87 -8 0 -34 -25 -58 -55z"/>
<path d="M10504 3336 c-7 -17 11 -53 75 -150 59 -91 120 -231 138 -316 7 -36
16 -141 20 -235 5 -154 4 -178 -16 -255 -25 -95 -85 -228 -107 -237 -18 -7
-18 -32 0 -39 41 -16 90 53 137 192 54 158 60 316 23 552 -17 109 -81 262
-162 385 -28 43 -54 87 -57 97 -7 23 -43 27 -51 6z"/>
<path d="M3241 3203 c-71 -72 -124 -102 -169 -96 -29 4 -41 0 -55 -15 -43 -47
16 -81 82 -48 16 9 32 16 34 16 3 0 -8 -33 -24 -72 -15 -40 -28 -90 -29 -110
0 -33 3 -38 24 -38 21 0 25 6 31 45 11 76 89 218 153 279 48 47 54 57 43 70
-21 26 -41 19 -90 -31z"/>
<path d="M4545 3240 c-32 -12 -47 -36 -43 -67 4 -36 29 -36 46 0 10 21 20 27
47 27 39 0 67 -24 63 -53 -2 -12 -25 -38 -53 -59 -66 -50 -67 -76 -5 -99 59
-22 100 -62 100 -99 0 -24 -8 -34 -45 -56 -55 -32 -129 -45 -119 -21 14 38
-37 43 -56 6 -14 -25 -3 -46 28 -58 25 -9 23 -9 -18 -10 -25 -1 -95 2 -156 5
l-111 7 34 65 c30 58 32 67 19 80 -18 18 -41 4 -52 -31 -4 -12 -20 -41 -36
-65 l-30 -43 -596 4 c-518 3 -604 6 -652 21 -71 21 -90 21 -90 -3 0 -15 13
-24 53 -37 46 -15 119 -18 652 -24 330 -4 601 -7 602 -8 1 -1 -4 -19 -11 -39
-15 -44 -11 -63 12 -63 11 0 26 19 41 51 l23 51 61 -6 c34 -3 157 -11 272 -17
116 -5 296 -19 400 -30 363 -37 464 -44 478 -30 20 20 -19 41 -77 41 -28 0
-91 5 -141 11 -209 24 -496 49 -570 50 l-80 1 52 13 c64 16 138 57 159 90 33
51 -11 136 -90 174 l-40 19 27 13 c29 16 77 75 77 96 0 8 -7 28 -16 44 -24 48
-103 72 -159 49z"/>
<path d="M4005 3216 c-44 -19 -85 -71 -85 -108 0 -18 11 -46 27 -66 18 -24 23
-37 15 -40 -7 -2 -28 -24 -47 -49 -37 -48 -46 -103 -25 -144 21 -39 118 -16
150 36 22 35 27 104 10 135 -8 16 -3 25 35 57 32 27 45 44 41 56 -2 11 4 32
14 49 10 16 15 39 12 50 -9 37 -88 50 -147 24z m95 -42 c0 -13 -41 -56 -74
-79 -29 -20 -37 -21 -46 -10 -28 33 29 95 86 95 19 0 34 -3 34 -6z m-90 -256
c0 -36 -34 -78 -62 -78 -29 0 -22 45 13 85 35 40 49 38 49 -7z"/>
<path d="M5121 3121 c-17 -16 -31 -36 -31 -44 0 -23 -75 -83 -136 -107 -53
-22 -69 -45 -39 -56 8 -4 34 1 56 10 23 9 44 15 46 12 2 -2 -3 -18 -12 -35 -8
-17 -17 -55 -18 -84 -2 -45 0 -52 17 -52 15 0 23 14 35 60 24 86 66 172 105
215 43 48 59 77 52 96 -9 23 -42 16 -75 -15z"/>
<path d="M3580 3010 c0 -18 5 -21 38 -18 25 2 37 8 37 18 0 10 -12 16 -37 18
-33 3 -38 0 -38 -18z"/>
<path d="M6181 2949 c-89 -17 -115 -31 -107 -54 4 -11 16 -11 106 5 36 6 95
15 131 20 36 5 79 15 94 22 l29 13 -30 6 c-51 11 -126 7 -223 -12z"/>
<path d="M8725 2935 c-27 -8 -97 -25 -154 -39 -57 -14 -106 -28 -109 -30 -10
-10 8 -36 25 -36 10 0 78 15 151 34 72 18 132 32 132 30 0 -1 -15 -24 -33 -50
-17 -27 -43 -72 -56 -101 -23 -48 -28 -52 -69 -58 -62 -9 -72 -14 -72 -37 0
-19 4 -20 49 -14 l48 6 -29 -85 c-31 -90 -31 -115 0 -115 16 0 26 19 51 98
l32 99 106 15 c71 11 111 22 122 33 15 16 10 17 -91 12 -70 -4 -108 -2 -108 4
0 13 44 91 83 145 36 52 35 98 -3 101 -14 1 -47 -4 -75 -12z"/>
<path d="M9927 2910 c-34 -27 -49 -53 -58 -105 -4 -22 -18 -67 -30 -101 -20
-54 -22 -66 -11 -101 19 -63 45 -89 103 -103 43 -11 57 -10 94 5 82 31 135
124 135 237 0 96 -69 177 -158 185 -38 4 -53 1 -75 -17z m124 -51 c14 -10 34
-36 43 -58 16 -34 17 -48 8 -101 -14 -78 -38 -120 -83 -144 -73 -40 -139 2
-139 88 0 40 19 88 31 80 5 -3 9 5 9 16 0 12 10 36 22 52 17 25 19 34 10 49
-10 15 -8 21 10 34 25 17 49 12 89 -16z"/>
<path d="M6805 2863 c-41 -21 -74 -52 -92 -86 -13 -25 -13 -31 2 -53 19 -29
41 -39 112 -49 l52 -7 -22 -31 c-12 -18 -39 -51 -61 -74 -32 -34 -47 -43 -73
-43 -32 0 -33 2 -33 39 0 52 -8 71 -30 71 -22 0 -30 -19 -30 -71 0 -78 74
-112 156 -73 32 15 73 61 137 153 17 24 36 41 48 41 25 0 25 17 0 25 -17 5
-18 13 -14 63 5 56 4 59 -27 85 -36 31 -79 35 -125 10z m94 -47 c7 -9 9 -29 5
-56 l-7 -43 -60 6 c-92 8 -101 34 -27 85 38 25 72 28 89 8z"/>
<path d="M5999 2828 c-12 -24 -30 -54 -40 -67 -23 -29 -24 -60 -3 -68 10 -4
24 4 38 22 15 19 29 26 46 23 23 -3 25 -7 24 -56 -2 -44 -7 -59 -30 -84 -16
-16 -41 -36 -56 -44 -25 -13 -31 -13 -52 1 -27 18 -41 7 -31 -25 15 -47 73
-45 148 7 49 34 76 91 77 160 0 56 -25 93 -62 93 -17 0 -18 2 -3 30 18 34 13
50 -15 50 -13 0 -27 -15 -41 -42z"/>
<path d="M9430 2858 c-16 -9 -25 -22 -25 -37 0 -29 17 -37 37 -18 27 27 118
27 118 -1 0 -9 -105 -62 -124 -62 -7 0 -20 -7 -27 -16 -11 -14 -10 -19 8 -34
12 -10 39 -21 58 -24 56 -11 132 -62 144 -97 9 -25 7 -33 -10 -50 -35 -35
-107 -53 -95 -24 6 18 -11 19 -51 4 -79 -30 -77 -69 4 -69 80 0 140 18 179 55
38 36 43 68 19 116 -16 31 -112 99 -140 99 -28 0 -16 16 30 38 25 12 51 33 57
47 10 23 8 29 -15 52 -21 21 -38 27 -84 30 -36 2 -68 -1 -83 -9z"/>
<path d="M7557 2851 c-35 -12 -127 -94 -149 -135 l-18 -31 6 41 c5 36 3 43
-25 66 -45 38 -136 47 -193 19 -84 -40 -138 -115 -138 -192 0 -37 27 -67 70
-79 78 -21 157 7 234 85 l36 36 0 -60 c0 -68 11 -85 68 -100 46 -13 96 -1 148
38 93 68 145 137 159 213 6 31 3 40 -23 69 -26 29 -36 33 -88 35 -32 2 -71 -1
-87 -5z m131 -54 c34 -27 2 -105 -73 -176 -69 -65 -116 -88 -153 -75 -24 9
-27 15 -26 54 1 72 11 102 33 95 15 -4 22 2 30 28 7 19 22 43 34 55 40 37 119
47 155 19z m-360 -34 c20 -17 20 -21 7 -57 -31 -89 -169 -157 -230 -113 -23
18 -14 62 15 70 13 3 20 13 20 29 0 49 54 88 121 88 30 0 54 -6 67 -17z m59
-95 c-3 -8 -6 -5 -6 6 -1 11 2 17 5 13 3 -3 4 -12 1 -19z"/>
<path d="M1876 2814 c-4 -9 -1 -22 5 -30 23 -28 81 -37 219 -32 128 5 188 18
175 37 -3 5 -77 9 -165 8 -135 0 -163 3 -178 16 -24 22 -48 22 -56 1z"/>
<path d="M11221 2819 c-51 -10 -70 -24 -55 -39 7 -7 59 -7 160 1 82 5 173 7
202 4 40 -5 52 -3 52 7 0 33 -23 38 -169 37 -81 -1 -166 -5 -190 -10z"/>
<path d="M10329 2805 c-58 -19 -74 -37 -104 -120 -48 -130 -26 -196 68 -210
137 -21 276 169 207 282 -33 54 -95 72 -171 48z m112 -54 c49 -39 17 -151 -57
-201 -77 -54 -142 -32 -130 43 8 51 41 114 66 127 11 6 20 17 20 25 0 29 67
33 101 6z"/>
<path d="M6380 2720 c0 -5 -9 -18 -21 -29 -12 -11 -18 -24 -14 -30 9 -16 61
-13 75 4 18 21 4 65 -20 65 -11 0 -20 -4 -20 -10z"/>
<path d="M7900 2711 c0 -16 11 -19 78 -24 42 -4 100 -9 127 -13 36 -4 55 -2
70 9 11 9 17 18 14 21 -10 10 -142 26 -216 26 -65 0 -73 -2 -73 -19z"/>
<path d="M9167 2703 c-10 -22 -5 -64 9 -70 41 -15 82 35 52 65 -13 13 -55 16
-61 5z"/>
<path d="M11162 2673 c3 -16 21 -18 183 -20 107 -2 186 1 195 7 33 22 -18 30
-198 30 -169 0 -183 -1 -180 -17z"/>
<path d="M1980 2632 c0 -28 20 -33 145 -39 86 -4 124 -2 167 11 94 27 79 35
-64 34 -73 0 -159 3 -190 7 -54 7 -58 6 -58 -13z"/>
<path d="M3778 2519 c-33 -19 -15 -69 24 -69 10 0 18 7 18 15 0 12 14 15 63
15 80 0 111 -16 115 -57 4 -39 -26 -69 -126 -124 -78 -44 -101 -71 -81 -95 18
-22 374 -16 374 6 0 12 -23 15 -135 18 -74 1 -138 6 -143 11 -4 4 9 16 30 27
164 83 189 215 48 253 -50 14 -164 14 -187 0z"/>
<path d="M2884 1048 c-34 -16 -75 -102 -81 -169 -7 -74 17 -143 57 -168 l28
-16 -23 -26 c-25 -30 -75 -65 -75 -54 0 4 8 14 18 21 13 9 14 16 6 24 -20 20
-58 7 -73 -24 -18 -39 -4 -60 43 -64 47 -4 95 25 142 87 20 25 54 55 77 66 49
23 56 50 14 50 -23 -1 -26 2 -20 20 37 115 30 217 -16 252 -19 15 -68 15 -97
1z m77 -59 c21 -40 -15 -224 -47 -236 -40 -15 -70 67 -54 144 21 96 73 144
101 92z"/>
<path d="M3674 1030 c-76 -25 -128 -59 -132 -88 -5 -33 24 -39 52 -10 36 40
186 88 186 61 0 -5 -16 -61 -37 -125 l-37 -118 -53 0 c-46 0 -53 -3 -53 -20 0
-17 7 -20 45 -20 53 0 55 -7 25 -94 -21 -63 -18 -89 13 -84 16 2 25 21 46 92
l27 89 49 14 c28 8 61 25 75 39 l25 24 -31 0 c-17 0 -45 -5 -63 -11 -18 -6
-34 -9 -37 -7 -2 3 12 52 31 111 38 115 41 137 23 155 -17 17 -84 14 -154 -8z"/>
<path d="M4065 1035 c-43 -15 -65 -38 -65 -67 0 -25 27 -22 62 7 21 18 41 25
73 25 50 0 65 -14 72 -68 7 -51 -17 -97 -101 -196 -101 -118 -90 -146 57 -146
69 0 87 3 100 18 10 10 17 21 17 23 0 3 -38 5 -84 4 -46 0 -87 3 -91 7 -4 4
17 34 47 67 30 34 67 84 82 112 24 44 28 59 24 110 -3 48 -10 65 -30 86 -32
32 -104 40 -163 18z"/>
<path d="M3229 1017 c-41 -28 -75 -86 -84 -144 -11 -74 43 -133 121 -133 38 0
36 -16 -5 -53 -72 -65 -151 -90 -151 -48 0 32 -11 51 -30 51 -32 0 -43 -76
-14 -104 24 -24 97 -20 152 8 49 26 219 192 201 198 -6 2 -4 26 6 67 21 80 14
122 -26 155 -41 35 -121 36 -170 3z m139 -40 c18 -15 11 -108 -11 -161 -17
-38 -18 -39 -62 -34 -94 11 -117 56 -74 146 32 65 101 88 147 49z"/>
<path d="M5020 981 c0 -4 -25 -11 -55 -15 -121 -14 -205 -68 -205 -130 0 -30
55 -72 108 -82 37 -7 39 -11 15 -31 -59 -46 -57 -46 -132 -29 -127 29 -212 16
-219 -33 -4 -28 22 -59 66 -78 37 -16 119 -6 189 22 40 16 48 16 114 1 39 -9
108 -16 153 -16 99 0 162 26 225 95 48 52 58 83 42 135 -24 80 -117 140 -218
140 -21 0 -36 6 -39 15 -6 16 -44 21 -44 6z m-25 -88 c-9 -37 -36 -83 -56 -96
-20 -13 -98 11 -113 35 -21 34 65 85 148 87 26 1 28 -1 21 -26z m150 12 c70
-18 125 -67 125 -111 0 -27 0 -27 -61 -20 -34 3 -95 6 -135 6 l-73 0 18 33
c10 17 24 49 31 70 13 42 14 42 95 22z m-11 -175 c119 0 119 0 100 -21 -10
-12 -39 -33 -64 -48 -40 -23 -54 -26 -129 -24 -46 1 -99 7 -118 14 l-34 11 43
39 c29 26 49 37 63 34 11 -3 74 -5 139 -5z m-404 -79 c21 -6 22 -8 8 -14 -10
-3 -39 -9 -66 -13 -39 -5 -52 -2 -72 15 l-25 20 65 0 c36 -1 76 -4 90 -8z"/>
<path d="M5751 893 c-5 -21 -14 -63 -19 -93 -6 -30 -15 -68 -21 -83 -11 -28
-13 -29 -64 -22 -28 4 -56 9 -60 12 -10 6 -2 32 31 100 25 53 24 83 -2 83 -18
0 -37 -31 -71 -117 -15 -40 -36 -80 -47 -89 -23 -21 -24 -62 -1 -71 10 -4 23
2 37 19 20 23 26 25 89 20 37 -2 67 -6 67 -9 0 -2 -5 -24 -11 -48 -6 -25 -8
-56 -5 -71 7 -25 8 -26 26 -9 10 9 24 41 31 70 6 30 15 58 18 63 5 8 115 62
126 62 3 0 -17 -74 -32 -122 -7 -23 22 -35 42 -18 8 7 20 31 25 54 19 74 33
100 83 153 51 55 58 86 20 91 -15 2 -29 -8 -49 -33 -18 -24 -56 -51 -107 -76
-43 -22 -80 -39 -82 -37 -1 2 5 43 15 92 20 97 18 116 -11 116 -13 0 -21 -11
-28 -37z"/>
<path d="M1900 853 c0 -14 11 -22 45 -31 52 -14 281 -16 289 -3 12 19 -23 29
-124 35 -58 3 -129 9 -157 13 -48 5 -53 4 -53 -14z"/>
<path d="M1900 692 c0 -16 10 -23 50 -31 77 -17 244 -14 288 4 54 23 27 33
-92 33 -56 0 -134 3 -174 7 -68 7 -72 6 -72 -13z"/>
</g>
</svg>
