<svg width="1928pt" height="1400pt" version="1.1" viewBox="0 0 1928 1400" xmlns="http://www.w3.org/2000/svg"><g stroke-width=".1"><path d="m33.7 10.7c-5.1 12.2-4.5 11.8-18 12.9-5.6 0.4-8 1-8.4 2.1-1 2.5 1.9 3.4 10.5 3.1 4.5-0.2 8.2 0 8.2 0.3s-1.1 2.9-2.5 5.7c-2.3 4.8-2.8 5.2-5.9 5.2-4.3 0-6.6 0.9-6.6 2.5 0 1.5 2.2 2.5 5.6 2.5 1.9 0 2.4 0.5 2.4 2.5 0 1.3 0.8 2.8 1.8 3.3 2.3 1.3 6.3-0.3 6.9-2.8 0.4-1.3 1.4-2 3.2-2.1 1.4 0 4.7-0.2 7.3-0.5l4.7-0.4 0.3 3.7c0.4 4.5 1.9 4.7 3.3 0.4 0.6-1.6 1.3-3.2 1.6-3.5 0.2-0.3 4.6-1.1 9.8-2 10-1.6 10.7-1.8 9.6-3.6-0.5-0.9-3-1-8.6-0.6-4.4 0.4-7.9 0.3-7.9-0.1s1-3.6 2.2-7l2.2-6.1 7.3-1.1c4.1-0.6 8.7-1.1 10.3-1.1 1.7 0 3-0.4 3-0.9 0-1.2-5.1-2.1-11.5-2.1-2.8 0-5.4-0.2-5.7-0.5s0.3-3.5 1.4-7.1c2.2-6.9 1.6-9.4-2.2-9.4-2.4 0-6.5 5.1-4.9 6 1.3 0.9-0.7 8.4-2.7 10.1-0.7 0.5-3.9 0.9-7.2 0.7l-6-0.3 3.5-8.3c3.7-9 3.7-12.2-0.2-12.2-2 0-2.9 1.4-6.8 10.7zm0.9 19.5c-1.1 1.5-1.6 1.8-1.6 0.7 0-1.6 2.1-4.2 2.8-3.4 0.2 0.2-0.3 1.4-1.2 2.7zm12.9-1.5c-0.4 1-1.4 3.7-2.2 6-0.8 2.4-2 4.4-2.6 4.4-4.1 0.5-9.7 0.4-9.7-0.1 0-0.4 1.4-3.2 3.1-6.3 3-5.6 3.1-5.7 7.6-5.7 3.9 0 4.4 0.2 3.8 1.7z"/><path d="m252.5 8.6c-7.2 1.2-12.5 3.6-16.1 7.6-3.3 3.7-3.6 4.5-3.1 8.2 0.7 5.3 4 8.1 11.1 9.6 3.1 0.6 5.8 1.5 6.1 2 1.8 2.9-5.6 7.6-10.4 6.5-1.6-0.3-3.8-1.7-5-3-3.7-4.4-7.3-2.7-4.7 2.2 2.6 5.1 5.3 6.8 11 6.8 8.3-0.1 15.6-5.9 15.6-12.5 0-3.2-4.2-6.7-9.1-7.5-6-1-7.9-2.2-7.9-4.9 0-2.6 2.2-4.9 6.5-6.7 1.7-0.6 10.4-1.5 19.5-1.9 16.5-0.8 22-1.5 22-3 0-2.2-26.8-4.7-35.5-3.4z"/><path d="m144.8 11.7c-7.3 5.7-13.7 17.3-14.5 26.2-0.6 6.8 1.2 11.3 5.7 13.6 10.7 5.5 29.8-4.7 26.5-14.2-2.1-5.9-13.4-8.2-20.9-4.2l-3.9 2 0.7-2.7c1.6-6.3 11.4-18.3 13.7-16.8 0.5 0.3 1.2 1.9 1.7 3.7 1.1 4.3 3.4 4.1 4.5-0.5 1.4-5.7-0.8-9.2-5.8-9.6-3.2-0.2-4.8 0.3-7.7 2.5zm9 25.9c1.6 0.5 2.2 1.3 2 2.7-0.7 5.1-14.4 8.3-17.4 4.2-1.8-2.4-1.9-5.4-0.2-3.7 1.5 1.5 2.9 1.6 2.6 0.1-0.3-1.2 5.4-3.7 8.7-3.8 1.1 0 3 0.2 4.3 0.5z"/><path d="m188 10.8c-3.8 1.8-5.2 6-2.9 8.8 1.8 2.1 4.9 1.8 4.9-0.6 0-1.3 1-2.4 2.6-3 3.2-1.3 12.1-1.3 12.9-0.1 0.8 1.5-4.8 7.4-12.8 13.4-8.5 6.4-10.6 9.5-8.9 13.2 0.7 1.4 2.3 3 3.8 3.5 4.8 1.9 27.3 0.5 29.6-1.8 0.5-0.5 0.6-1.6 0.2-2.5-0.5-1.5-2.3-1.7-12.3-1.7-6.5 0-12-0.3-12.4-0.6-0.3-0.4 2.9-3.5 7.2-7 11.9-9.5 15.5-17.2 10.2-21.6-3.2-2.5-17.1-2.6-22.1 0z"/><path d="m110.2 18.9c-8.9 7.9-13.2 12.6-13.2 14.7 0 2.6 3.1 1.4 8-3.2 2.8-2.6 5-4.4 5-4.1 0 0.4-1.7 3.5-3.9 7-5.1 8.4-6.9 13.3-5.5 15.5 1.5 2.4 4.4 2.8 4.4 0.6 0-1.9 5.2-11.7 12.4-23.4 5.1-8.3 6.2-14 2.6-14-1.1 0-5.5 3.1-9.8 6.9z"/><path d="m561.4 46.5c-1.2 3 0.4 4.2 6.7 4.8 18.3 2 34.8 11.8 40.5 24.2 2.9 6.1 3 11.8 0.5 18.5-3.6 9.3-16.6 22.7-27.5 28.2-6.4 3.2-7.5 4.6-5.2 6.4 5.1 3.7 23.5-8 33.4-21.2 5.8-7.7 8.3-14.6 8.4-23.1 0.1-7.9-4.4-17.3-11.6-24.1-5.7-5.4-17.1-11.4-26.1-13.7-7.9-2-18.4-2-19.1 0z"/><path d="m411.6 54.7c-1.6 8.3-1.9 52.7-2.1 285.3-0.2 298.2 0.9 263.3-12 375.6-2.5 21.6-3.3 39.2-2.1 43.2 0.6 1.6 1.4 2.2 2.9 2 1.9-0.3 2.2-1 2.4-5.8 0.6-12.8 2.5-33.2 5.3-56.5 9.9-82.5 11.5-121.7 10.6-266-0.3-56.1-0.7-154.2-0.8-218-0.1-117.9-0.8-159.9-2.6-161.7-0.7-0.7-1.2 0-1.6 1.9z"/><path d="m937.2 54.2-1.2 2.8-24.2 0.1c-13.4 0-26.8 0.3-29.8 0.6-8.7 0.9-171.9 0.9-199.5 0-24.6-0.8-33.5-0.3-34.2 1.9-0.7 2.1 3.1 2.5 25.7 3.1 12.4 0.3 22.9 0.9 23.5 1.4 0.9 0.9 0.9 52.4-0.1 54-1.4 2.3-0.4 110.1 1.1 117.4 0.3 1.4-1.8 4.7-6.5 10.5-3.9 4.7-7 9-7 9.6s0.7 1.7 1.5 2.4c2.1 1.8 5.4-0.1 9.1-5.1 1.6-2.1 3.2-3.9 3.7-3.9 0.4 0 0.7 2.4 0.7 5.2 0 2.9 0.5 9.6 1.1 14.8 1.3 12.7 1.4 41.8 0 50.5-0.6 3.8-1.1 7.4-1.1 7.9s-9 0.7-20.7 0.5l-20.8-0.4v16.5c0 14.3 0.2 17 1.8 19.3 3.2 4.9-6.5 4.5 120.7 5l37.5 0.2 0.2 22c0.2 31.5 2.2 119.5 3 129.5l0.6 8.5-3.6-3.2c-4.4-3.8-7.3-4.9-9.2-3.3-2.7 2.2-1.6 4.8 5.1 12.5 8 9.1 9.8 10.3 12.5 7.9 1-0.9 1.9-2.3 1.9-2.9 0-0.7 0.6-1.5 1.4-1.8 2-0.8 11.8-21.4 11.4-24-0.6-4.3-4-2.5-8.8 4.7l-4.5 6.8-0.6-12.3c-0.8-14.3-1.6-48.7-2.6-105.3-0.6-38.9-0.6-39.8 1.3-39.3 4.4 1.3 74 1.8 84.9 0.7 6.1-0.7 29.2-1.6 51.5-2 24.8-0.5 42.2-1.2 44.9-1.9 12.7-3.4 14.6-7.8 13.3-30-0.6-9.5-1-11.6-2.5-12.5s-2.2-0.7-3.6 1c-1.3 1.7-2.2 1.9-4.1 1.2-1.4-0.5-8.8-0.7-16.5-0.4-32.2 1.3-48.5 1.8-48.5 1.4 0-0.1-0.7-5.3-1.5-11.3-1-7.6-1.5-20.3-1.5-40.9v-29.9l2.9 3.9c1.5 2.1 3.7 4.7 4.7 5.6 2.6 2.2 8.6 4.7 10.2 4.1 2.1-0.8 1.3-3.2-1.5-4.7-2.8-1.4-5.6-4.7-10.4-12.1-1.4-2.2-3.3-4.6-4.2-5.3-1.4-1.2-1.6-6.4-1.7-48-0.1-25.7-0.4-57.7-0.8-71.2s-0.7-31-0.7-39v-14.5l21-0.2c22.8-0.3 25.5-0.6 25.5-2.8 0-1.1-1.3-1.5-5.2-1.6-2.9-0.1-5.7-0.2-6.3-0.4-0.5-0.1-8.9-0.3-18.6-0.3l-17.5-0.2-1.1-2.8-1-2.7zm-1.7 30.3c0.1 12.1 0.5 50.8 1 86l0.8 64-6.8 6.5c-3.8 3.6-8.6 8.2-10.8 10.2-2.7 2.6-3.8 4.4-3.5 6 0.6 4.6 3.8 3.3 12.4-5.3 6.4-6.4 8.4-7.9 8.5-6.4 0 1.1 0.2 15 0.4 31 0.3 25.9 0.9 35.5 3.1 46.2l0.7 3.3h-45.4c-25 0-57.2 0.3-71.6 0.7l-26.3 0.6v-51.4l3.5 2.6c3.5 2.8 6.1 2.6 5-0.4-0.4-0.9-2-5.2-3.6-9.5-2.9-8.2-4-9.6-7.5-9.6-3.8 0-10.7 9.4-10.2 13.8 0.2 2.2 0.8 2.7 3.1 2.7l2.7-0.1v51.3l-3.7 0.6c-2.1 0.3-21.3 0.6-42.7 0.7l-38.9 0.1 0.7-4.8c2-15.8 1.5-51.1-1-72.8l-0.6-5 4.9 4.6c7.2 6.8 14.3 10.7 14.3 7.8 0-1.1-10.8-13.6-17-19.8l-3.5-3.4v-55.6c0-30.6 0.2-69 0.4-85.3l0.4-29.7 68.6-0.1c37.7 0 84.1-0.4 103.1-0.8s40.1-0.7 46.9-0.7h12.5zm78.5 257.2c0 6.5-0.4 12.4-0.9 13.2-2.2 3.5-10.7 4.4-50.6 5.2-21.4 0.4-43 1.2-48 1.8-9.9 1.1-50.1 1.2-74.5 0.2-14.5-0.6-15.5-0.7-15.8-2.6-0.7-5-1.3-6.5-2.7-6.5-0.9 0-1.6 1.6-2.1 4.7l-0.7 4.6-75.5-0.6c-51.7-0.4-75.9-1-76.6-1.7-0.6-0.6-1.2-6.4-1.4-13.5l-0.4-12.5h125.9l0.6 4.1c1.2 8.8 6.9 9.2 7.5 0.5 0.3-4.6 0.3-4.6 4-4.7 2-0.1 6-0.3 8.7-0.4 7.4-0.4 87.9-1.4 134.5-1.7 34.5-0.2 64.5-0.9 67.3-1.6 0.4-0.1 0.7 5.1 0.7 11.5z"/><path d="m848.3 116.2c-4.2 2-5.4 6.9-6 23.1-0.5 13.3-0.4 15.4 1.1 16.6 1.3 1.1 1.9 1.1 3.1 0.1s1.5-3.8 1.5-13.4c0-12.2 1-19 2.9-20.9 1.3-1.3 9.7 1.8 10.5 4 0.4 0.9-0.5 3.8-1.9 6.4-4.3 8.4-3.2 11.3 5.9 15.5 3.2 1.4 5.4 3 4.9 3.5-0.4 0.4-4.8 1.3-9.7 1.9-10.2 1.2-10.6 1.4-10.6 4 0 2.9 3 3.2 13.7 1.5 11.8-1.9 14.5-3.4 14.1-7.7-0.3-2.8-1.2-3.6-7.3-6.9-3.8-2.1-7.1-4.2-7.3-4.8-0.2-0.5 0.6-2.8 1.7-5 4.3-8.2 1.8-14.6-6.6-17.5-5.3-1.8-6.9-1.9-10-0.4z"/><path d="m798.5 122.2c-2.9 1.6-7.5 6-7.5 7.2 0 0.6-1.4 3.8-3 7.1-5.3 10.6-3.3 20.6 5.2 26.2 8.3 5.5 22.5 2.6 30.7-6.2 6.6-7.2 6.7-15.2 0.2-25.3-4.7-7.3-10-10.2-18.2-10.2-3 0-6.3 0.6-7.4 1.2zm15.1 7.3c3.9 2.5 7.7 9.1 8.2 14.3 0.3 4.1 0 5.2-2.2 7.9-5.5 6.5-17.4 9.6-23 5.9-6.5-4.2-7.4-14.6-2-22.7 5-7.5 12.5-9.7 19-5.4z"/><path d="m802.4 144.5c-0.7 1.8 1.2 4.5 3.2 4.5 1.7 0 1.8-3.2 0.2-4.8s-2.7-1.5-3.4 0.3z"/><path d="m816.7 206.4c-9 3.2-11.6 5-13.4 9.4-1.4 3.4-1.4 5.1 0.1 18.6 0.9 8.2 2.1 15.5 2.8 16.3 0.6 0.8 2.1 1.3 3.2 1.1 1.8-0.3 2.1-1.1 2.4-5.6 0.3-5.4 0.3-5.4 5.9-7.8 3-1.4 8.5-3.3 12.1-4.3s6.8-2.3 7-2.9c0.6-1.9-13.4-1.4-19.4 0.6l-5.1 1.8-1.7-7.4c-2.3-10-3.1-9.3 15.4-15.8 11.2-3.9 12.3-5.8 3.5-6.2-4.3-0.1-7.9 0.5-12.8 2.2z"/><path d="m844.8 233.3c-1.4 1.3-3.5 5.4-4.8 9.3-1.2 3.8-3 7.6-4 8.4-1.5 1.4-1.9 5.3-1.1 13.3 0.1 0.5 1.1 0.7 2.4 0.5 1.5-0.2 2.8-1.7 4.2-4.5 1.7-3.8 2.4-4.3 6.3-4.9 2.3-0.3 4.5-0.4 4.8-0.1s1.1 2.9 1.8 5.9c0.9 4.2 1.6 5.3 3.1 5.3 1.8 0 2-0.6 1.8-6.1-0.3-6.1-0.3-6.2 2.8-6.8 1.8-0.3 4.6-0.6 6.4-0.6 3.4 0 6.4-2.3 4.6-3.5-0.6-0.3-4.2-0.9-8.1-1.2l-6.9-0.6-1.1-5.1c-2.2-10.7-6.8-14.2-12.2-9.3zm6 10.9c0.9 3.3 0.8 3.7-1.2 4.2-4.3 1.2-4.5 0.8-2.8-4.4 1.7-5.5 2.5-5.4 4 0.2z"/><path d="m893.3 341.3c-3.9 2.3-8.5 5-10.2 5.9-4.2 2.3-4.8 4.4-2.2 7.2 3.2 3.4 22.1 8.5 22.1 5.9 0-0.4-2.4-2.3-5.2-4.1l-5.3-3.2h7c3.9 0 9.9-0.3 13.5-0.5 3.6-0.3 13.7-0.9 22.5-1.5 22.5-1.3 30.5-3.2 30.5-6.9 0-2.5-2-3.1-6.6-2-3.9 0.9-46.5 3.9-55.7 3.9h-4.8l2.8-2.4c2.3-2 2.6-2.8 1.7-4.2-1.7-2.8-2.5-2.6-10.1 1.9z"/><path d="m1369 55.4c-1.3 3.3 0.3 4.3 7.5 5 22.8 2.3 41 12.6 48.3 27.4 3 6 3.3 7.5 3.3 15.7 0 7.6-0.4 9.9-2.6 14.5-5.3 11.4-19.1 23-27.2 23-4.1 0-7 2-6.5 4.6 0.3 1.6 1.3 2 6.3 2.2 7.6 0.4 13-1.7 20-7.6 10.7-9.2 16.7-19.3 18.3-31 1.9-13.5-2.2-26-11.8-36-11.6-12.1-25-17.8-44.7-18.9-8.9-0.5-10.3-0.4-10.9 1.1z"/><path d="m1832 59.2-1.1 2.8-24.2 0.1c-13.4 0-26.8 0.3-29.8 0.6-9 0.9-172.5 0.9-197.5 0-24.8-0.9-36.5-0.3-36.5 1.8 0 2.2 2.8 2.6 25.4 3.1 12.2 0.3 22.7 0.7 23.5 1 1.2 0.4 1.3 7 0.5 43.7-1 48.6-0.8 107.5 0.4 121.4l0.8 9.3-6.8 8.1c-3.7 4.5-6.8 8.7-6.8 9.4s0.7 1.8 1.5 2.5c2.1 1.8 5.1 0.1 8.9-5.1 1.7-2.1 3.3-3.6 3.7-3.2 1 1.1 3 35.7 2.9 50.4 0 6.8-0.5 15.3-1 18.9s-1 7.1-1 7.9c0 1.1-3.5 1.3-20.7 1l-20.8-0.4v16.5c0 14.3 0.2 17 1.8 19.3 1 1.6 2.8 3.2 4 3.6 1.3 0.5 19.4 1 40.2 1.1 20.9 0.1 47.7 0.3 59.5 0.3l21.5 0.2v6c-0.1 11.1-1.5 36.7-2.1 37.7-0.4 0.5-1.6-0.7-2.8-2.8-1.8-3.2-2.7-3.9-5.1-3.9-2.3 0-3.1 0.5-3.3 2-0.3 2.3 6 17 8.5 19.7 1.7 2 5.8 2.4 6.8 0.8 0.3-0.6 1.6-1 2.8-1 2.9 0 6.5-3.2 11.7-10.2 4.6-6.2 4.9-9.1 1-9.7-2-0.2-3.6 0.9-7.8 5.5l-5.4 5.9 0.6-4.2c0.3-2.3 0.9-9.5 1.2-16s0.7-13.6 0.9-15.8 0.3-6.3 0.4-9.1l0.1-5.2 12.8 0.2 12.7 0.1 0.1 20c0.1 36.7 2 118 3 132l0.6 8-2.8-2.6c-6-5.5-11.4-6.2-11.4-1.4 0 3.9 13.6 19.3 17.2 19.5 2.4 0.1 17.1-26.8 16.6-30.3-0.6-4.4-4.1-2.5-8.8 4.6l-4.5 6.8-0.6-10.8c-0.4-5.9-1-27.7-1.4-48.3s-0.9-37.8-1.1-38.1c-0.1-0.3-0.4-13.7-0.5-29.9l-0.2-29.3 16.4 0.4c32.4 0.7 73.5 0.3 81.9-0.9 5.1-0.7 21.2-1.2 40.5-1.2 41.8 0 52.2-1.7 56-9 1.8-3.5 2.2-30.9 0.5-34.1-1.4-2.4-3.6-2.4-5.2 0-0.9 1.6-1.6 1.7-3.7 0.9-1.5-0.5-8.8-0.7-17.6-0.4-8.2 0.3-22.3 0.8-31.2 1.2l-16.2 0.6-0.6-3.4c-2-11.7-2.5-20.7-2.5-48.2v-30.9l2.9 3.9c3.7 5.1 5.9 7 10.3 8.8 3.1 1.3 3.8 1.3 4.7 0.2 1-1.1 0.5-2-2.3-4.1-1.9-1.4-5.1-5.2-7.2-8.3s-4.8-6.8-6-8.2c-2.1-2.5-2.2-2.8-2.9-68.5-0.4-36.3-0.8-74.8-0.8-85.5l-0.2-19.5 21-0.2c22.9-0.3 25.5-0.6 25.5-2.8 0-1.1-1.3-1.5-5.2-1.6-2.9-0.1-5.7-0.2-6.3-0.4-0.5-0.1-8.9-0.3-18.7-0.3l-17.6-0.2-1-2.8-1-2.7zm-1.7 36.3c0.2 15.4 0.7 54.1 1.1 86l0.7 58-10.6 9.9c-9 8.3-10.7 10.3-10.4 12.5 0.6 5 3.8 3.8 12.2-4.9 4.3-4.4 8-8 8.2-8s0.4 12.5 0.4 27.8c0 25.5 1.1 42 3.6 51.7l0.5 2.2-68.3 0.7c-37.6 0.3-90.5 0.9-117.7 1.2l-49.4 0.7 0.7-5.9c2-17.8 1.6-47.6-1-71.4l-0.7-5.5 3.9 3.9c4.3 4.3 12.1 9.6 14.1 9.6 3.3 0 2.3-1.4-14.6-19.4l-4.6-5v-56.5c0-31.1 0.1-69.1 0.3-84.3 0.2-15.3 0.1-28.2-0.3-28.8-0.4-0.7 15.4-1 51.2-0.9 44.8 0.2 154.3-0.9 155-1.5 0.2-0.2 5.9-0.2 12.8-0.2l12.5 0.1zm78.6 251.3c0 10.3-0.2 12.1-1.9 13.6-3.8 3.5-15.6 4.6-48.4 4.6-17.2 0.1-34.3 0.5-38.2 1-12 1.7-42.8 2.3-72.7 1.5-28.5-0.7-28.8-0.8-28.8-2.9-0.1-7.4-3.5-9-4.6-2.1l-0.6 4.5h-26.1l0.7-4.9c0.5-3.9 0.3-5-0.9-5.5-3.6-1.3-6.5 2-6.5 7.5v3.2l-59.2-0.7c-53.5-0.6-59.4-0.8-60.5-2.3-0.9-1.1-1.3-5.6-1.3-13.5v-11.8l70.3-0.2c38.6 0 72.2-0.2 74.7-0.3 8.3-0.4 91-1.5 134-1.7 36.2-0.2 66.4-0.9 69.3-1.6 0.4-0.1 0.7 5.1 0.7 11.6z"/><path d="m1743 121.5c-4 2.2-5.1 6.5-5.6 23-0.5 13.1-0.3 15.2 1.1 16.4 1.2 1 1.9 1.1 3 0.2 1-0.9 1.5-5 1.7-16.6 0.3-12.8 0.7-15.7 2.1-17.1 1.5-1.5 2.1-1.6 5.4-0.3 5 1.9 6.2 4 4.6 7.9-0.6 1.6-1.7 4.3-2.4 6-2 5-0.2 7.9 7.2 11.6s7.2 3.8-5 5.4c-10.5 1.4-13.7 3.5-9 6 2.5 1.4 21.3-1.3 24.7-3.6 1.9-1.2 2.3-2.3 2.1-4.7-0.3-2.8-1.1-3.6-7.2-6.7-3.9-2-7.1-4.1-7.4-4.8-0.2-0.6 0.6-2.9 1.7-5.1 3.1-5.9 2.8-10.7-0.8-14-2.7-2.5-9-5.2-12.2-5.1-0.8 0.1-2.6 0.7-4 1.5z"/><path d="m1694 127c-3.4 1.4-7.1 6.2-10.5 13.7-2.8 6.2-3.2 8-2.8 13.2 0.5 7.3 4 12.4 10.6 15.3 11.4 5.1 29.2-3.4 32.3-15.4 1.1-4 1-5.5-0.4-10.1-2-6.3-8.5-14.3-13.4-16.3-3.5-1.5-12.6-1.8-15.8-0.4zm15.5 7.8c3.6 2.6 7.9 11 8 15.3 0 6.1-6.1 11.8-14.8 13.8-5.7 1.2-10.4-0.2-13.6-4-2.1-2.5-2.6-4.1-2.6-8.5 0-14.4 13.1-23.8 23-16.6z"/><path d="m1698 148.7c-1.3 1.2-0.7 4.1 0.9 4.7 2.6 1 3.4 0.7 3.4-1.2 0-2.8-2.8-5.1-4.3-3.5z"/><path d="m1770 345.5c-2.1 2.5 0.5 4.2 8.3 5.5 16.4 2.8 11.2 3.4-28.2 3.5-13.4 0-18.5 0.3-18.8 1.2-0.7 2.1 6.7 2.8 31.4 2.8h24.1l-3.6 2c-4.8 2.7-5.7 6.5-1.5 6.5 3.6 0 12.8-5.3 14.9-8.5 2.2-3.3 1.1-7.1-2.6-9-3-1.5-18.1-5.5-21.1-5.5-0.9 0-2.2 0.7-2.9 1.5z"/><path d="m238.5 61.7c-4.9 0.1-23.4 0.7-41 1.3-17.6 0.5-53.6 1.2-80 1.5-90.7 1-117.5 2.1-117.5 5 0 2.2 8.1 2.7 33.9 2.1 13.5-0.3 45.5-0.8 71.1-1.1 49-0.5 90.8-1.3 102.5-2 19.6-1.1 75.5-1.6 79.9-0.7 5.9 1.2 7.8 0.6 7.4-2.2-0.5-3.7-5.5-4.5-27.3-4.3-11 0-24 0.2-29 0.4z"/><path d="m558.7 76.2c-3.9 4.2-6.7 8.8-6.7 11.1 0 3.1 2.9 3.1 6.2 0.1l3.1-2.9-0.7 8.5c-0.5 7-0.3 9.1 1.1 12 1 1.9 2.5 3.5 3.3 3.5 2.1 0 5-31.6 3-34-2.1-2.5-5.9-1.8-9.3 1.7z"/><path d="m1354 77.8c-2.2 1-3.6 2.6-3.8 3.9-0.4 2.7-0.7 2.6 7.8 1.2 7.5-1.2 15-0.4 15 1.6 0 1.9-5.9 6.8-13.9 11.5-7.5 4.3-9.6 6.8-8.7 10.4 0.8 3.2 4.7 4.6 13.1 4.6 12.1 0 29.5-4.5 29.5-7.6 0-1.7-1.9-1.7-10.9-0.4-3.7 0.6-10 1-14.1 0.8l-7.4-0.3 6.1-3.7c12.8-7.9 16.6-15.8 10.2-21.2-2.7-2.3-3.9-2.6-11.2-2.6-5.8 0-9.2 0.5-11.7 1.8z"/><path d="m37.5 112.9c-8.1 3.6-12.3 10.6-20.9 34.4-4.8 13.2-5.5 17.1-3.2 18 3.1 1.2 4.8-1.9 16.4-29.8 1.3-3.1 1.7-5.5 1.2-6.5-1.2-2.2 2.2-7.4 6.4-10 5.4-3.3 10.6-2.5 10.6 1.7 0 2.5-2 4.7-10.9 12.5-3.7 3.1-4.1 3.9-3.2 5.6 1.1 2.1 5.4 3.9 15.2 6.6 5.6 1.6 11.9 5.2 12.6 7.2 0.8 2.3-12.3 6.3-20.6 6.4-4.3 0-4.4 0-2.6-2 2.2-2.4 0.8-2.6-4-0.6-4.1 1.8-4.6 4.7-1.3 7 6.5 4.6 31.6-1.3 34.7-8 2.7-5.9-3.8-11.6-18.4-16-3.3-1-6.4-2.1-6.8-2.5-0.5-0.3 0.6-1.7 2.3-2.9 4.3-3 9-9.7 9-12.7 0-3.9-2.7-8-6.1-9.2-4.3-1.5-5.7-1.4-10.4 0.8z"/><path d="m242 113.8c-3.3 2.7-1.8 4.5 3.1 3.7 4.5-0.8 7.9 0.1 7.9 2 0 0.8-3.5 4.4-7.9 8-8.1 6.7-9.4 8.6-8 12.2 1.3 3.7 4.7 4.8 14.6 4.7 7.5 0 9.6-0.3 11-1.7 2.5-2.5 0.8-3.3-8.9-4-4.4-0.3-8.2-0.8-8.6-1.2-0.3-0.3 2.6-3.7 6.6-7.4 8.2-7.9 9.2-11.2 4.7-15.6-3.1-3.2-11-3.5-14.5-0.7z"/><path d="m325 121.2c-12.2 1-19.5 2.5-21.1 4.4-2.2 2.7 0.4 3.2 13.1 2.3 6.9-0.4 16.3-1.1 21-1.4 8-0.5 10-0.7 18.5-2.1 5.6-0.8 3.3-2-6.2-3.2s-10.9-1.2-25.3 0z"/><path d="m200.8 122.6c-2.8 0.8-2.2 4.3 0.8 5 1.4 0.4 7.9 0.5 14.5 0.2 11.8-0.4 15.6-1.5 13.3-3.8-1.1-1.1-25.7-2.3-28.6-1.4z"/><path d="m324.2 131.7c-2 3.8-10.3 30.4-10 32.1 0.2 1.1 1.2 1.7 2.8 1.7 2.3 0 2.8-1 7.3-14 4.9-14.6 5.7-20.7 2.5-21.3-0.9-0.2-2.1 0.5-2.6 1.5z"/><path d="m90 136.9c-1.6 0.4-2.5 1.4-2.5 2.6s0.9 2.2 2.5 2.6c3.3 0.9 21.2 0.9 27.5 0l5-0.7-3-1.3c-7.1-3.1-23.6-4.8-29.5-3.2z"/><path d="m158.3 137.8c-3.4 2.6-11.4 17.3-11.1 20.2 0.4 3.8 4.5 4 5.9 0.3 0.5-1.5 3-6.2 5.5-10.4 5.9-10.1 5.8-14.9-0.3-10.1z"/><path d="m176 138c-0.8 0.5-2.3 0.7-3.3 0.4-4.3-1.3-8.6 18-5.4 24.3 6.2 11.9 27-0.2 27-15.6 0-3.7-0.5-4.9-3.1-7.3-2.7-2.3-4.1-2.8-8.5-2.8-2.8 0-5.9 0.5-6.7 1zm10.8 5.6c4.4 3.1 1.5 11.3-5.7 16.1-6.5 4.4-9.6 2.7-9.4-5.1 0.2-6.7 1.3-8.8 5.5-10.9s6.8-2.1 9.6-0.1z"/><path d="m363 145.4c-1.9 1.8-5.4 7-7.8 11.4-3.6 6.8-4 8.1-2.7 9.2 2 1.7 3 0.8 6.5-5.9 1.7-3.2 4.4-7.4 6-9.2l2.8-3.4 1.4 3.5c2.1 5 6.4 9.8 10.9 12 8.1 4.2 10 1.5 3.2-4.5-2.7-2.3-6.2-6.7-7.7-9.6-1.6-3-3.4-5.7-4-6.1-2.3-1.6-5.3-0.7-8.6 2.6z"/><path d="m90.3 151.6c-2 0.9-1.5 3.2 0.9 4.5 3.2 1.7 31.8-0.2 31.8-2.1 0-0.4-1.2-1-2.7-1.4-3.9-0.9-28.5-1.7-30-1z"/><path d="m627.5 217.1c-9.6 0.7-14.8 3-14.3 6.2 0.3 2.4 0.2 2.4 9 0.5 3.2-0.6 6-0.9 6.2-0.7s-0.5 5.3-1.6 11.4c-1.9 11.1-2 19.7 0 21.7 2.2 2.2 4.1-3.8 5.9-18.4 1.4-11.4 2.1-14.8 3.3-15.1 0.9-0.2 7.8-0.5 15.5-0.6 13-0.2 17.3-1.1 16-3.1-1.2-1.9-25.4-3-40-1.9z"/><path d="m1524 222.1c-11.6 0.6-16.8 2.6-16.3 6.2 0.3 2.4 0.2 2.4 9 0.5 3.2-0.6 6-0.9 6.2-0.7s-0.2 3.3-1 6.9c-2.2 10.4-2.9 22.3-1.4 25 1.3 2.4 1.3 2.4 3 0.3 1.1-1.5 2.2-6.7 3.5-17.1 1.5-11.9 2.2-15.1 3.5-15.5 0.8-0.2 7.8-0.5 15.5-0.6 7.6-0.1 14.3-0.5 14.7-0.7 0.4-0.3 0.8-1.1 0.8-1.9 0-2.3-18.9-3.5-37.5-2.4z"/><path d="m991.4 228.2c-15.5 1.4-25.8 3.9-26.9 6.6-0.8 2.1 2.1 4.3 4.9 3.7 5.3-1.2 21.9-3.5 22.3-3.1 0.3 0.2 0 1.3-0.6 2.4-1.2 2.2-4.5 16-5.5 23-0.4 2.4-0.2 5.1 0.4 6.2 1.2 2.2 4.9 2.7 5.4 0.7 1.2-4.3 5.5-29.6 5.3-31.2-0.2-1.8 0.7-2.1 9.8-3.2 5.5-0.6 10.6-1.2 11.3-1.2 2.1-0.2 1.3-3-1-3.6-4-0.8-17.3-1-25.4-0.3z"/><path d="m1886 233.2c-15.5 1.4-25.8 3.9-26.9 6.6-0.8 2.1 2.1 4.3 4.9 3.7 4.8-1.1 21.9-3.5 22.3-3.2 0.2 0.2-0.3 2-1.2 3.9-2.2 5.4-5.8 24.5-5.1 27.3 0.9 3.4 5.3 3.5 6 0.2 4.5-21.4 5.5-28.1 4.6-29.7-1.2-2.2-0.3-2.6 9-3.5 11.5-1.1 14-1.6 14-3.1 0-0.7-1-1.6-2.2-1.9-4-0.8-17.3-1-25.4-0.3z"/><path d="m24 244.7c-1.1 1.4-3 4.7-4.1 7.2s-3.8 7.4-6.1 10.9c-3.3 5.1-3.8 6.5-2.8 7.7 0.7 0.8 1.6 1.5 2.1 1.5s4.6-3.7 9.2-8.3c13.5-13.6 22.2-16.5 18.3-6.2-3.3 8.6 0.3 10 8.3 3.2 5.8-5 13.4-9.4 17.1-9.9 2.4-0.3 2.5 0 2.4 4.3 0 5.2-6.8 20.5-10.3 23.6-2.7 2.2-2.7 3.3 0.1 3.3 3.1 0 8.5-4.5 10.9-9.3 6.3-12.2 7.6-22.1 3.4-26.2-1.3-1.4-3-2.5-3.8-2.5-2.6 0-9.9 3-14.9 6-5.5 3.4-5.8 3.5-5.8 1.6 0-0.7-0.9-2.5-2.1-4-2.9-3.7-7.1-3.4-14.3 0.9-4.2 2.5-5.6 3-5.1 1.7 1.4-3 1.8-8.2 0.7-8.2-0.6 0-2 1.2-3.2 2.7z"/><path d="m635.8 256.5c-6.1 4.2-7.6 8.5-3 8.5h2.9l-1.8 5.2c-2.3 6.6-2.5 12.8-0.5 12.8 0.8 0 1.8-1 2.1-2.3 0.4-1.2 3-6.8 5.7-12.4s4.8-11 4.6-12c-0.5-2.9-5.7-2.8-10 0.2z"/><path d="m358.8 257c-7.4 1.2-13.4 4.3-15.3 7.9-2.1 4.1-3 13.3-1.6 15.9 1.3 2.4 4 2.9 5.9 1 0.6-0.6 1.9-4.4 2.8-8.5 1.2-4.7 2.4-7.8 3.5-8.4 1-0.5 6.8-1.6 13-2.4 12.4-1.6 14.9-2.7 9.7-4.3-5.2-1.7-11.8-2.1-18-1.2z"/><path d="m309.2 260.9c-2.2 3.6-6.6 21.6-5.8 23.6 0.7 2 5 1.9 6.6 0 1.1-1.4 1.5-1.4 3.3 0.2 2.8 2.6 12 2.3 17.4-0.5 6.6-3.5 7.4-6.4 1-3.7-2 0.8-6.1 1.5-9.2 1.5-7.9 0-8.2-1.8-1.4-8.6 5.1-5.1 5.2-5.5 3.6-7.1s-2-1.6-4.5-0.3c-1.5 0.9-4.3 3.7-6.2 6.2-1.9 2.6-3.6 4.6-3.8 4.4-0.1-0.2 0.6-4 1.7-8.4 1.2-4.4 2.1-8.5 2.1-9.1 0-2.2-3.1-1-4.8 1.8z"/><path d="m1011 261.2c-3 2.6-3.5 3.7-3.1 6.2 0.3 1.7-0.4 5.7-1.5 9-2 6.3-2.1 11.7-0.1 12.4 0.7 0.2 1.8-0.9 2.4-2.5 0.6-1.5 3.6-7.8 6.6-13.9 3.3-6.6 5.3-11.9 5-12.8-1-2.6-5.3-1.8-9.3 1.6z"/><path d="m877.8 254.3c-3 2.6-3.5 3.7-3.1 6.2 0.3 1.7-0.4 5.7-1.5 9-2 6.3-2.1 11.7-0.1 12.4 0.7 0.2 1.8-0.9 2.4-2.5 0.6-1.5 3.6-7.8 6.6-13.9 3.3-6.6 5.3-11.9 5-12.8-1-2.6-5.3-1.8-9.3 1.6z"/><path d="m1535 266.4c-1 0.7-1.8 2.1-1.8 3.1 0 1.6 0.7 1.7 5.4 1.1 3-0.3 5.7-0.2 6 0.3 0.3 0.4-1.5 2.7-3.9 4.9-4.4 4-5.5 7-3.7 9.9 1.9 3.1 16.2 6.3 21.7 4.9 4-1 3-3.3-1.7-4-2.4-0.4-6.7-1.4-9.6-2.3l-5.2-1.7 4.1-4.2c4.8-4.9 5.7-9.6 2.4-12-2.4-1.8-11.5-1.8-13.7 0z"/><path d="m1651 489.2c-1 0.7-1.8 2.1-1.8 3.1 0 1.6 0.7 1.7 5.4 1.1 3-0.3 5.7-0.2 6 0.3 0.3 0.4-1.5 2.7-3.9 4.9-4.4 4-5.5 7-3.7 9.9 1.9 3.1 16.2 6.3 21.7 4.9 4-1 3-3.3-1.7-4-2.4-0.4-6.7-1.4-9.6-2.3l-5.2-1.7 4.1-4.2c4.8-4.9 5.7-9.6 2.4-12-2.4-1.8-11.5-1.8-13.7 0z"/><path d="m1902 269.2c-2.1 0.7-2.7 1.6-2.5 3.2 0.3 1.9 0.8 2.1 7.1 1.7 8.4-0.4 8.3 0.6-0.8 7.3-6.6 4.9-8.7 8.4-6.8 11.5 1.8 3.1 8.5 5.4 16.4 5.9 9.5 0.5 12.9-0.2 12.9-2.7 0-2.3-1.5-3-5.6-2.4-3.1 0.5-15.2-2.1-16.7-3.6-0.4-0.4 1.1-2 3.3-3.6 5.4-3.7 10-9.1 10-11.6 0-1.1-1.1-3.1-2.5-4.4-1.9-2-3.4-2.5-7.2-2.4-2.6 0-6.1 0.5-7.6 1.1z"/><path d="m179.5 270.1c-6.8 1.9-10.5 7.6-11.8 18.2-1.6 14-1.4 15.7 1.7 18.3 5.1 4.4 14 2.9 19.7-3.3 5-5.3 6.4-9.2 6.4-18 0-7.3-0.3-8.4-2.5-10.8-4.1-4.4-8.5-5.8-13.5-4.4zm7 5.5c2.3 0.9 4.5 5.8 4.5 10.1-0.1 10.6-11.3 21.5-17.4 17-1.5-1.1-1.9-2.4-1.6-5.8 0.2-2.4 0.2-6.2 0.2-8.3-0.3-8.5 7.5-15.6 14.3-13z"/><path d="m267.3 273.4c-0.4 0.8-3.3 4.1-6.3 7.3-9.9 10.3-13.1 14.6-12 15.7 0.7 0.7 3.1-1 7.7-5.4 3.6-3.6 6.3-5.7 6-4.7-5.2 14.9-5.6 21.2-1.5 24.1 2.9 2.1 3.9 1.1 3.2-3.2-0.4-2.8 0.5-6.9 3.6-16.5 2.3-7 4-14 3.8-15.5-0.3-3-3.2-4.2-4.5-1.8z"/><path d="m220.1 279.2c-4.1 4.2-5.7 9.5-4.2 13.9 0.6 1.7 1.1 5.1 1.1 7.3 0 2.3 0.7 5.2 1.6 6.4 7.4 10.7 23.7-3.3 22.2-19-0.5-4.4-1.1-5.7-4.2-8.5-3-2.8-4.3-3.3-8.5-3.3s-5.3 0.5-8 3.2zm13.1 3.8c3.3 2.5 3.9 6.1 2.3 12.3-2 7.7-8.4 12.6-11.9 9.2-1.2-1.2-1.6-3.6-1.6-9.7 0-6.7-0.2-7.9-1.5-7.4-2.6 1-1.6-1.2 1.8-3.8 3.9-3.1 7.5-3.3 10.9-0.6z"/><path d="m110.3 282.7c-1.9 0.7-1.6 3.1 0.6 4.3 2.5 1.3 12.3 1.3 23.1 0 11.8-1.5 12.6-2.1 4.5-3.6-6.8-1.2-25.8-1.7-28.2-0.7z"/><path d="m21.5 287.1c-9.5 1-10.5 1.3-10.5 3.5 0 1.6 2.1 1.6 26.3 1 37.8-0.9 46.3-1.9 39.5-4.5-3-1.1-44.9-1.1-55.3 0z"/><path d="m123 296.6c-8.7 1.4-21 3.8-22.1 4.4-2.4 1.6-0.1 4 3.8 4 3.6 0 38.3-5.5 41.1-6.5 5.3-1.9-12.6-3.4-22.8-1.9z"/><path d="m328.5 298.6c-7.7 0.8-14.6 1.6-15.2 1.9-2.2 0.8-1.5 4.4 1 5 1.2 0.3 14.1-0.5 28.6-1.9 14.4-1.5 26.7-2.6 27.2-2.6 1.5 0 1-2.8-0.7-3.4-2.7-1-26.1-0.4-40.9 1z"/><path d="m195.7 300.9c-3.2 3.8-8.4 19.8-6.9 21.3 1.7 1.7 3 0.1 8.2-10.3 5.4-10.7 5.8-12.4 3.4-13.3-2.2-0.8-1.9-0.9-4.7 2.3z"/><path d="m44.7 307.4c-3.3 3-6.1 8.6-8.2 16.1-0.9 3.3-2 6.8-2.5 7.7-1 1.8 0.2 11.5 1.9 14.7 2.2 4 12.2 5.1 15.1 1.6 1.8-2.2 0.3-3.5-4-3.5-3.1 0-4.3-0.5-5.6-2.5-2.8-4.2-1.3-8.9 4.9-15.4 5.4-5.6 9.7-12.6 9.7-15.6 0-2.3-3.7-5.5-6.4-5.5-1.2 0-3.5 1.1-4.9 2.4zm2.8 9.7c-1.4 2.3-2.9 3.9-3.2 3.6-0.8-0.9 0.6-4.3 2.9-7.3 3.2-4.1 3.5-1 0.3 3.7z"/><path d="m344.4 318.7c-8 12.6-19.9 23.5-23.9 21.9-0.9-0.3-1.5-1.8-1.5-3.6 0-2.4-0.4-3.1-1.7-2.8-2.1 0.4-3.7 5.1-2.9 8.4 1 3.9 4.7 5 9.9 3 4.2-1.6 14.2-10.2 18.4-15.8 2-2.7 2.1-2.7 3.8-0.8 2.4 2.6 7.4 2.6 12.5 0l4-2v4.4c0 5 2.1 8.2 6.2 9.2 3.6 0.8 5-2 2.1-4.1-1.7-1.2-1.9-2.1-1.3-5.7 0.4-2.4 1.5-6.3 2.4-8.7 3.2-8.7-0.5-10.6-8.2-4.2-4.2 3.5-10.2 7.1-11.7 7.1-0.3 0-0.4-2.6-0.3-5.8 0.3-5.2 0.1-5.7-1.9-6-1.7-0.3-3 0.9-5.9 5.5z"/><path d="m927.7 382.4c-6.5 1.4-9.1 3.4-8.1 6 0.6 1.6 1.5 1.7 7.5 1.1l6.7-0.7-2.4 11.4c-3.7 17.6-4.6 20.1-7.7 21.6-3.2 1.6-3.5 4.7-0.6 6.2 1.5 0.8 4.4 0.7 11.3-0.4 11.5-1.8 16.9-3.9 16.4-6.3-0.4-2-1.5-2.1-12.1-1-6.3 0.6-6.7 0.5-5.8-1.2 1.5-2.7 6.1-23.5 6.1-27.5 0-3.9 0.2-4 9.9-5.5 7.1-1.2 8-1.6 6.3-3.3-1.8-1.8-20.4-2-27.5-0.4z"/><path d="m1803 389c-11.9 2.3-15.6 3.7-15.6 6 0 2.5 3.6 3.1 10.7 1.8 3.5-0.6 6.5-0.9 6.7-0.7 0.3 0.3-0.8 8.8-2.4 18.9-1.7 10.2-3 20.2-3 22.2 0 3-0.4 3.8-1.8 3.8-2.5 0-5.5 3.4-5 5.7 0.5 2.4 6.8 2.4 20.3-0.1 10.4-1.8 13-3.1 11.9-5.9-0.7-1.9-8.1-2.3-14.6-0.8-3.8 0.9-3.8 0.9-3.8-2.8 0-2 1.2-10.8 2.5-19.6 1.4-8.8 2.5-17.6 2.5-19.7 0-3.6 0-3.6 5.8-4.3 6.9-0.8 8.5-1.6 8-4.1-0.5-2.7-9.4-2.8-22.2-0.4z"/><path d="m270 415c-1.5 1.7-4.4 5.4-6.4 8.3-11.9 17.6-11.4 17.1-16.4 18.2-3.7 0.8-4.7 1.4-4.7 3 0 1.3 0.8 2.1 2.3 2.3 1.2 0.2 2.2 0.5 2.2 0.7s-1.1 2.5-2.5 5.2c-2.6 4.8-3 9.3-0.8 10 0.6 0.2 3-3.2 5.3-7.5 4.8-8.9 5.2-9.2 17.7-9.2 6.1 0 6.1 0 6.8 3.2 1.1 5.9 2.7 8.8 4.6 8.8 2.1 0 2.1-0.1 2.3-8l0.1-5.4 7.5-1.6 7.5-1.5-15-1v-12.1c0-10.6-0.3-12.5-1.9-14.3-2.6-2.9-5.3-2.6-8.6 0.9zm4 14v11h-8c-4.4 0-8-0.3-8-0.8 0-2.2 14.1-21.2 15.7-21.2 0.2 0 0.3 4.9 0.3 11z"/><path d="m31.5 413.7c-5.5 0.7-11.4 3.4-12.1 5.5-0.9 2.9 1.1 4.6 3.7 3 2.5-1.6 13.7-3.1 29.9-4 10.1-0.6 12.5-1 12.5-2.2 0-1.1-1.6-1.7-5.5-2.2-5.9-0.6-23.5-0.8-28.5-0.1z"/><path d="m201.5 416.3c-2.7 0.7-7.2 2.5-10 3.9-2.7 1.5-5.7 2.9-6.5 3.1-0.8 0.3-3.4 4.1-5.8 8.5-3.5 6.6-4.1 8.5-3.3 10.1 1.6 2.9 2.8 2.9 11.3 0.8 8.7-2.2 12.1-1.8 14.4 1.7 3.7 5.8-4.7 12.5-16.8 13.4-8 0.6-12.4-1.4-11.3-4.9 0.6-1.8 0.5-1.9-1.4-1-1.2 0.7-2.1 2.1-2.1 3.2 0 13.5 30.7 11.5 37.4-2.4 2-4.4 2-7 0-11.2-2.8-6.1-11.7-8-22.3-4.9l-2.4 0.7 2.2-3.9c1.8-3.1 3.6-4.5 9.4-7.1 4-1.7 8.2-3.4 9.3-3.8 4.2-1.1 20-3.5 23.7-3.5 3.9 0 4.9-1.3 2-2.5-3.3-1.4-22.6-1.5-27.8-0.2z"/><path d="m35.2 426.7c-4.5 1.8-12.5 35.6-8 34.1 1.9-0.7 5.4-8.6 9.2-20.8 2-6.3 3.6-12.1 3.6-12.8 0-1.2-2.4-1.5-4.8-0.5z"/><path d="m1587 429.4c-4.7 2.1-5.2 5.6-1.9 12.2 2.7 5.2 5.1 16.3 4.3 19.5-0.8 2.9 1.1 18.9 2.3 20.5 0.7 0.7 2.3 1.4 3.6 1.4 2.4 0 2.4 0 1.8-8.4l-0.7-8.3 3.9-0.7c8-1.4 11.4-2.7 11.4-4.1 0-1.2-1.6-1.5-7.9-1.5h-7.8l-0.6-7c-0.4-4.3-1.6-9.2-3-12.4l-2.5-5.4 4.2-0.6c2.3-0.4 7.5-0.1 11.6 0.5s8.4 1.2 9.5 1.3c3 0.2 2.5-3.3-0.8-5.8-2.4-1.7-4.5-2.1-13.5-2.4-7.7-0.2-11.6 0.2-13.9 1.2z"/><path d="m90.5 434.8c-2.1 0.5-3 1.3-3 2.7 0 2.9 5.1 3.6 20 3 14.7-0.7 17.5-1.2 17.5-3 0-0.7-1-1.5-2.2-1.8-3.9-1-29.1-1.6-32.3-0.9z"/><path d="m100.6 445.1c-5.7 0.8-10.6 3-10.6 4.8 0 0.5 0.7 1.4 1.5 2.1 1.2 1 3.1 1 9.3 0.1 20.1-3 38.8-6.4 39.7-7.2 1.2-1.1-32-1-39.9 0.2z"/><path d="m44.3 458.6c-4.9 2.1-20.3 4.5-24.5 3.8-4.3-0.7-5.7 1-3.8 4.5 0.9 1.7 2 2.1 6.4 2.1 14.1 0 29.9-6.5 27-11.1-0.7-1.1-1.1-1.1-5.1 0.7z"/><path d="m1630 463c-1 1.1-2.2 1.7-2.7 1.4s-1.5 0-2.3 0.6c-1.1 0.9-1.5 3.5-1.5 8.9-0.1 7.6-0.1 7.6-4.1 10.4-5.6 3.9-4.7 7.7 1.3 5.2 1.5-0.6 1.7-0.1 1.5 4.4-0.1 3.6 0.2 5.4 1.2 6.1 3.5 2.1 6.1-2.7 6.1-11.2 0-2 0.7-2.8 3.1-3.7 1.8-0.6 3.3-1.1 3.5-1.1 0.1 0 0.6 1.5 0.9 3.2 1.2 5.4 3.4 8.8 5.6 8.8 1.9 0 2-0.4 1.5-3.3-0.3-1.7-0.9-4.8-1.2-6.8l-0.6-3.6 9.3-2.5c6.3-1.6 9.4-2.9 9.4-3.9 0-1.7-9.8-2.4-16-1.1l-4.2 0.9-1.1-5.7c-1.8-8.3-5.8-11.3-9.7-7zm4.4 9.4c0.8 4.5 0.7 4.8-1.7 5.7-1.3 0.5-2.7 0.7-3 0.4s0.2-3 1.2-6.1 1.9-5.4 2.2-5.2c0.2 0.3 0.8 2.6 1.3 5.2z"/><path d="m21.7 520.7c-0.3 0.5-0.3 1.4 0.1 1.9 0.7 1 14.3 2.7 31.7 3.9 4.4 0.3 10.5 0.8 13.5 1 3 0.3 47.8 0.7 99.5 0.9 51.7 0.3 102.3 0.8 112.5 1.1s39 1 64 1.5c25 0.6 47.9 1.3 50.7 1.6 4.4 0.5 5.4 0.3 5.9-1 0.4-0.9 0.4-1.9 0.1-2.3-1.1-1-17.2-2.1-41.7-2.7-13.5-0.4-28.5-0.9-33.5-1.1-27.9-1.6-81.6-2.5-156-2.7-81.1-0.2-114.7-0.7-136.1-2.3-6-0.4-10.4-0.4-10.7 0.2z"/><path d="m918.1 528.6c-3.8 4.9-3.9 15.4-0.2 18.9 1.1 0.9 1.7 2.4 1.4 3.4-0.6 2.4 1.3 3.6 3.2 2.1 1.1-0.9 1.7-0.5 3 2.1l1.7 3.2-6.2 6.1c-9.9 9.7-13 18.5-9.4 26.2 4.2 8.9 17.7 8.1 23.6-1.4 2.8-4.5 3.5-15.7 1.5-23l-1.5-5.4 3.3-2.9c1.8-1.7 4.1-3.6 5-4.3 1-0.7 1.5-1.8 1.1-2.4-0.5-0.8-2.3-0.4-6 1.2l-5.4 2.4-2.5-4.9c-2.1-4-2.4-5.4-1.6-8.1 1.4-4.9 1.1-11.1-0.7-13.6-2.2-3.2-7.6-3-10.3 0.4zm6.1 9.9c-0.2 1.9-0.8 3.5-1.3 3.5-1 0-1.2-5-0.3-7.5 1-2.6 2.1 0 1.6 4zm6.7 37.3c0.1 7.3-1.6 11.3-5.4 13-5.6 2.6-9.2-1.5-7.4-8.2 0.5-1.9 3.3-6.1 6.1-9.2 6-6.5 6.6-6.1 6.7 4.4z"/><path d="m874.7 529.1c-0.9 0.5-2.6 2.7-3.6 4.7l-2 3.7-1.1-3.3c-0.7-1.7-1.6-3.2-2.1-3.2s-1.2-0.1-1.6-0.3c-1-0.3-0.3 27.7 0.8 28.8 2 2.1 4.4-1.4 6.9-10.2 4.6-15.9 8.2-18.3 7.9-5.2-0.1 3.6 0.1 7.1 0.5 7.8 1.7 2.7 4.5 0.9 8.4-5.3 4.2-6.7 7.9-9.8 8.6-7.4 0.3 0.7 0.6 4.8 0.9 9.1 0.4 6.8 0.8 8.2 3 10.4 1.3 1.4 2.9 2.3 3.5 1.9 0.9-0.5 0.8-7.6-0.4-19.2-1-9.5-7.4-12.3-14.6-6.4l-3.6 2.9-0.6-3.1c-1.2-6-6.1-8.5-10.9-5.7z"/><path d="m1814 532.8c-4.9 5.4-4.9 17.6 0 20.5 1 0.6 1.1 1.2 0.4 2.1-1.7 2 0.3 4 2.7 2.7 1.9-1 2.3-0.7 3.8 2l1.6 3.2-6.2 6.1c-7.2 7.1-11 13.8-11 19.6 0 12.8 13.6 17.5 22.7 7.8 5.2-5.6 6.5-14.1 3.8-25.3-1.6-6.7-2-5.8 6-12.1 4.7-3.7 2.1-4.9-4.2-1.9l-5.3 2.4-2.5-5.1c-2.2-4.3-2.4-5.5-1.5-8.7 1.4-5.2 1.2-10.3-0.6-12.9-1.9-2.7-7.4-3-9.7-0.4zm4.4 13.9c-0.9 1.5-1 1.1-1.1-1.9 0-5.4 1.4-8.3 1.8-3.6 0.2 2.1-0.1 4.6-0.7 5.5zm7.8 34.6c0.1 6.7-1.6 10.8-5.4 12.5-3.8 1.8-5.3 1.5-7.1-1.3-2.5-3.8-0.5-9.1 5.9-16.1 4.9-5.4 5.2-5.6 5.8-3.3 0.4 1.3 0.7 5 0.8 8.2z"/><path d="m1767 537.6c-2.6 3.7-3.3 4.2-3.5 2.6-0.3-2.1-4.1-6.2-4.3-4.6-0.5 4.7 0.5 28.1 1.2 28.9 1.9 2 4.3-1.2 6.1-8.1 1.8-7.4 5.6-16.4 6.9-16.4s2.2 6.8 1.6 11.4c-0.7 4.5 0.4 6.6 3.4 6.6 1 0 3.3-2.7 5.7-6.4 4.2-6.7 7.9-9.8 8.7-7.4 0.2 0.7 0.5 4.8 0.7 9 0.3 6.9 0.6 8.1 3.1 10.5 1.7 1.7 3 2.4 3.6 1.8 1.2-1.3-0.5-21.9-2-24.8-1.6-3-2.8-3.7-6.6-3.7-2.2 0-4.4 1-6.7 3l-3.4 3-0.7-2.7c-1.2-5.2-3.3-7.3-7-7.3-3.1 0-4 0.6-6.8 4.6z"/><path d="m72 581.3c-2.4 0.8-3.5 1.8-3.5 3.2 0 1.9 0.5 2 13.9 1.6l13.9-0.3-2.1 2.3c-2.4 2.5-3.8 6.9-8.1 25.8-1.7 7.3-3.7 14.7-4.6 16.4-1.8 3.7-1.3 4.4 2.1 2.9 3.5-1.7 5.7-7.2 9.4-24.7 1.7-8.3 3.8-16 4.7-17.3 0.8-1.3 1.2-3 0.9-3.8-0.4-1.1 0.5-1.4 3.9-1.4 5.9 0 19.5-1.9 21.7-3.1 1-0.5 1.8-1.4 1.8-1.9 0-1.5-49.6-1.2-54 0.3z"/><path d="m252.7 604.5c-8.4 2.9-11.3 9-8.2 17 2.5 6.6 4.5 5.9 4.5-1.5 0-7.3 1.8-9.5 8.5-10.6 10.5-1.5 20.8 1 24.1 6.1 2.4 3.7 0.4 6.6-11 16.2-11 9.3-15 13.8-17.8 20-4.9 10.9-0.2 23.3 8.8 23.3h2.7l-2.1-2.3c-4.6-4.9-5.5-13.2-2.2-19.7 2.3-4.5 6.9-9.4 17.9-18.9 9.1-8 11.9-13.3 10.2-19.2-1.4-4.6-6.1-8.5-12.7-10.5-5.9-1.8-17.7-1.7-22.7 0.1z"/><path d="m116.8 615.1c-5.7 2.1-4.1 7.2 2.1 6.7 5.6-0.5 5.3 2.6-0.9 8.7-6 5.9-6.4 8.7-1.9 11.1 2.3 1.1 4.5 1.4 7.8 0.9 5.5-0.7 16.9-4.3 17.6-5.5 0.3-0.4-3.3-1.1-8-1.5-8.5-0.7-8.6-0.8-7-2.9 3.6-4.9 4.7-8.6 3.5-12.2-1.8-5.3-7.1-7.5-13.2-5.3z"/><path d="m515.5 630c-2.8 1.1-7 5.8-9.4 10.6-3.9 7.6-5.2 17.2-5.6 43.6-0.5 28.3-1.5 34.2-7.1 42.7-2.7 4-1.8 7.1 2.1 7.1 1.3 0 3.1 0.3 4 0.6 2.6 1 5.5 8 6.2 14.9 1.1 11.6-1.7 22.9-13.6 56.5-9.4 26.3-8.5 42.4 2.5 44.6 1.8 0.3 3.6 0 4.9-1 2-1.5 2-1.5-0.5-1.6-3.6-0.1-4.9-1.2-6-5.1-2.5-8.7-0.4-20.3 8.4-44.9 8.1-22.8 9.7-29.2 10.3-41 0.7-12.9-1.5-20.5-7.3-25.9l-3.6-3.3 2.1-5.5c2.9-7.5 4-19.2 4-42.3-0.1-25.8 2.2-37 8.7-43.1 2.1-2 2.7-2.1 3.5-0.9 0.5 0.9 0.7 4 0.4 7.2-0.5 4.8-0.3 5.8 0.9 5.8 1.8 0 3.6-5.8 3.6-11.8 0-2.9-0.6-4.8-2-6.2-2.1-2.1-3.4-2.3-6.5-1z"/><path d="m1192 643.6c-3.6 1.9-6.3 7.4-8.7 17.1-1.1 4.3-3.8 12.1-6 17.5-2.3 5.3-4.1 10.3-4.1 11.2 0 2.1 1.7 2.9 4.4 2.2 3-0.7 5.5-6.1 9-19.1 4.5-17 5.9-20.7 8.7-22.8 2.6-1.8 2.8-1.8 6.3-0.2 7.4 3.5 7.2 8.6-0.4 14.1-5.3 3.8-6.9 7.1-5.3 10.6 0.5 1.2 5.6 5.3 11.3 9.2s10.6 7.7 10.8 8.4c0.3 1.1-2.5 1.3-14.4 1.1-12.7-0.2-14.9 0-15.2 1.3-0.2 0.9 0.9 2.5 2.4 3.7 2.4 1.9 4 2.1 13.8 2.1 13.4 0 18.3-1.2 19.9-4.7 1.9-4.2-1.5-8.7-12.2-16.2-5.2-3.6-9.6-7.1-9.7-7.6-0.2-0.6 1.2-2.1 3.1-3.5 7.7-5.5 9.8-13.3 5.2-19.4-4.7-6-13-8.3-18.9-5z"/><path d="m1147 646.1c-8 2.2-24.4 29.5-26 43.4-0.8 6.9 1.9 10.4 8.8 11.2 8.5 1 25.8-3.2 25.8-6.2 0-2.3-1.3-2.5-11.4-1.4-18.9 2.1-21.2-0.6-9.8-11.9 18.1-17.9 25.6-38.6 12.6-35.1zm-1.9 13.8c-2.8 5.2-12 15.8-11.1 12.9 0.3-1 2.2-4.4 4.2-7.5 7.3-11.5 12.3-15.4 6.9-5.4z"/><path d="m609.3 646.6c-2.6 0.6-3.6 2.9-2 4.2 2.2 1.8 9.1 3.2 19.5 3.8 8.9 0.6 10.2 0.9 9.6 2.3-0.4 0.9-2 5.2-3.6 9.6-6.5 18.2-10.1 26.5-11.5 26.5-0.8 0-1.3 0.7-1.1 1.7 0.2 1.3 1.3 1.8 3.8 1.8 3.1 0 3.8-0.5 6-4.7 1.4-2.5 5-11.8 8-20.7l5.5-16.1h6.1c6.4 0 20.5-2.5 23.7-4.2 1-0.5 1.5-1.3 1.3-1.7-0.3-0.4-11.7-1.1-25.3-1.5s-27.7-0.8-31.3-1.1c-3.6-0.2-7.5-0.1-8.7 0.1z"/><path d="m566.7 649.5c-8 3-14.1 9.4-13.9 14.8 0.1 5 1.7 5.3 4.3 0.8 2.7-4.9 8.3-9 13.3-9.8l3.6-0.6v5.3c0 6.9-4.1 15.2-12.3 25l-6.3 7.5-7.5 0.5c-5.4 0.4-8.5 1.2-11.3 2.9-6.5 4.1-9.5 11.1-6 14.5 2.8 2.9 7.6 1.9 16.1-3.2l8-4.8 3.4 2.4c9.6 6.6 16.5 8.2 24.3 5.4 6.6-2.3 7.2-4.2 1.4-4.2-5.9 0-13.3-2.3-19-5.9l-4.7-3 3.1-3.3c11.4-12.2 16.9-22.5 17.6-32.5 0.4-7 0.4-7.3-2.6-10.2-3.3-3.4-5.7-3.7-11.5-1.6z"/><path d="m187.5 649.7c-5.6 1-6.5 1.4-6.5 3.2 0 1 0.7 2.2 1.6 2.5 2.5 1 16.5 0.7 23-0.5 8.6-1.5 9.4-1.8 9.4-4 0-1.8-0.8-1.9-12.7-1.7-7.1 0.1-13.7 0.4-14.8 0.5z"/><path d="m77.7 653c-15.7 0.6-18.6 1.3-17.4 4.3 0.8 2.2 9 3 22.5 2.3 6.4-0.4 16.4-0.9 22.2-1.1 13.6-0.7 35.1-2.5 37-3.2 6.6-2.3-31.9-3.7-64.3-2.3z"/><path d="m1076 654c-3.9 3.9-2 4.6 13.3 4.3 14.7-0.3 17.7-0.7 16.1-2.2s-15.1-4.1-21.3-4.1c-4.7 0-6.5 0.4-8.1 2z"/><path d="m1086 663.7c-0.2 0.5-2.5 7.4-5.1 15.4s-5.1 15.1-5.6 15.8c-0.4 0.7-3.1 1.6-6 1.9-6.7 0.9-8.7 3.3-5.1 6.3 5.1 4.1 30.4 1.2 28.8-3.3-0.4-1.3-1.6-1.5-9.1-1.7-3-0.1-3.6-0.4-2.8-1.4 1.6-1.8 7.7-18.2 9.1-24.4 0.9-3.8 1-5.7 0.1-7.2-1.1-2.1-3.5-2.8-4.3-1.4z"/><path d="m868.1 669.2c-0.5 1.3-2.5 6-4.6 10.6-6.9 15.8-3.2 18.4 9.6 6.8 4.6-4.1 10.1-8.5 12.1-9.6 3.5-2 3.8-2 3.8-0.3 0 1-1 4.2-2.2 7.1-2.3 5.5-1.9 8.3 1.4 9 0.8 0.2 5.6-2.4 10.6-5.7 9.6-6.3 15-9.3 19.1-10.6 2.3-0.7 2.4-0.6 1.8 3.6-0.3 2.4-1.5 7.1-2.6 10.5s-2.2 7.6-2.3 9.5c-0.3 3 0 3.4 2.1 3.4s2.8-0.9 4.7-5.8c3.5-8.9 5.8-19 5.1-21.9-2.1-8.4-9-7.6-25.2 2.7-3 1.9-5.6 3.5-5.8 3.5s-0.2-2.2 0.1-4.8c0.4-4.4 0.1-5.1-2.3-7-4.1-3.2-7.2-2-20.3 7.4-2.3 1.7-2.3 1.7-1.5-1.2 1.3-5.1 1-8.8-0.9-9.2-1.1-0.2-2.1 0.5-2.7 2z"/><path d="m959.7 670.1c-6.7 1.9-15.7 12.2-15.7 18.1 0 3.4 3.2 6.8 6.3 6.8 1.2-0.1 4-0.7 6.2-1.5s4.1-1.5 4.2-1.5c0.2 0-0.6 6.5-1.2 9.5-0.3 1.5-2 2.5-6.2 3.8-9.6 3-21.8 9.3-25.2 13.2-3.5 4.1-4.1 8.6-1.5 12.4 5.8 8.2 29 8.2 34.8 0 2.2-3.1 3.3-7.7 4.1-16.9 0.3-4.1 0.7-7.5 0.8-7.6s2.9-1.6 6.2-3.3c6-3.2 6-3.2 2-2.6-2.2 0.4-4.9 0.9-6.1 1.1-2 0.5-2 0.3-1.1-6.7 0.7-4.8 0.7-7.7 0-8.8s-0.7-3.3 0-6.8c0.8-4.1 0.8-5.5-0.3-6.8-2.1-2.6-4.3-3.3-7.3-2.4zm2.3 10.4c0 4.2-0.2 4.6-4 6.5-8.3 4.3-9.5 1.2-2.1-6.1 2.6-2.7 5.1-4.9 5.5-4.9 0.3 0 0.6 2 0.6 4.5zm-3.3 36.2c-0.7 8.4-1.2 9.7-4.4 11.8-6.1 4-22.3 2.2-22.3-2.5 0-2.6 5.4-6.8 13.5-10.5 3.9-1.7 8.1-3.6 9.5-4.2 4.1-1.9 4.3-1.6 3.7 5.4z"/><path d="m1008 672c-0.4 0.6-1.5 3.5-2.5 6.3-1.5 4.2-2.3 5.3-4.3 5.5-3.5 0.4-5.3 2.7-3.7 4.7 0.7 0.8 2.1 1.5 3.1 1.5 1.7 0 1.9 0.8 1.9 6.9 0 8.2 1 16.1 2 16.1 0.4 0 1-2.4 1.4-5.3 0.4-2.8 1.1-8 1.7-11.3l1.1-6.1 9.1-0.7c5-0.4 9.3-0.9 9.5-1.1 0.3-0.2 0.2-1.1-0.1-1.8-0.4-1-3.1-1.7-8.7-2.2l-8.1-0.7 0.7-3.2c1.4-5.4 1-9-0.8-9.4-0.9-0.2-1.9 0.2-2.3 0.8z"/><path d="m756.2 673.7c-1.6 1.2-2.1 2.4-1.7 3.6 0.6 1.5 2.4 1.7 15.8 1.7 13.7 0 33.4-1.6 32.3-2.7-0.9-0.9-19.7-3.2-31.6-3.8-11.3-0.6-12.8-0.5-14.8 1.2z"/><path d="m71 678.6c-4.6 0.9-7 2.6-7 5.2 0 2.4 0 2.4 9.6 1.7l9.7-0.7-0.8 6.8c-0.3 3.8-1.8 13-3.2 20.4s-2.8 14.7-3 16.2c-0.4 2 0 3 1.2 3.4 4.5 1.8 5.9-1.9 9.5-25.1 1.1-7.2 2.4-14.8 2.8-17l0.7-4 13.8-0.3c11.1-0.2 13.7-0.5 13.7-1.7 0-0.8-1.5-2.2-3.2-3.2-2.8-1.5-6.2-1.8-22.3-2-10.4 0-20.1 0.1-21.5 0.3z"/><path d="m775 682.7c-7.8 0.7-16.6 2.5-18.4 3.8-1.1 0.9-1.6 2-1.2 3.1 0.5 1.4 1.5 1.6 5.9 1 11.1-1.4 34.4-3.6 39-3.6 3.4 0 4.7-0.4 4.7-1.4s-1.6-1.6-5.2-2c-7.5-0.8-20.7-1.3-24.8-0.9z"/><path d="m265.6 684.6c-1 0.9-1.5 2.3-1.2 3.1s0.6 1.7 0.6 1.9c0 1.1 4.9 0.2 6.1-1.2 2.8-3.3-2.4-6.9-5.5-3.8z"/><path d="m673.3 688c-1.3 0.6-2.3 1.8-2.3 3 0 1.7 0.6 2 4.5 2 2.5 0 4.5 0.4 4.5 0.9 0 0.4-1.6 2.8-3.5 5.2-5.9 7.4-4.2 11.5 5.5 13.3 4.1 0.7 12.6-0.6 14.2-2.2 0.8-0.8 0.7-1.6-0.2-2.7s-3.1-1.5-8-1.5c-3.6 0-6.9-0.3-7.3-0.6-0.3-0.4 0.5-2.1 1.9-3.9 3.6-4.7 4.2-9.7 1.5-12.4-2.2-2.2-6.8-2.7-10.8-1.1z"/><path d="m113.7 722.1c-6.6 5.7-5.7 10.5 1.4 7.5 1.4-0.6 1.4 0 0 6.7-1.4 6.9-1.4 7.8 0.3 12.1 2 5.3 4 5.6 4.4 0.5 0.2-1.9 1.4-8.2 2.8-14.1 3.2-13.4 3-16.2-1.1-16.6-2.3-0.2-4.1 0.7-7.8 3.9z"/><path d="m633.7 763.5c-10 1.5-17.7 4-17.7 6 0 2.3 2.8 2.5 13.3 1 13.3-1.9 13.2-1.9 10.8 0.6-1.9 2.1-4.9 11.6-7.6 24.7-1.8 8.1-1.8 9.3-0.5 12.7 2.2 5.8 4.9-0.6 10-23.4 2.1-9.6 2.6-13.9 1.9-14.8-1.4-1.6 0.5-2 25-4.6 3.1-0.4 2-2.5-1.6-3.1-6-0.9-24-0.5-33.6 0.9z"/><path d="m1181 766.3c-4.4 2.8-7.8 9.8-9.1 18.4-0.5 3.7-1.6 10.2-2.4 14.3-1.2 6.5-1.2 7.7 0.1 8.9 2.3 2.3 4.3-0.4 6.1-8 0.8-3.5 2.4-9 3.5-12.2 1.7-4.5 1.9-6 1-7.1-2.3-2.8 3.6-10.6 8-10.6 0.9 0 2.2 0.7 2.9 1.6 1.1 1.3 0.7 2.7-2.4 8.8-3.7 7.1-3.7 7.4-2.3 10.9 1.1 2.4 3.7 5.1 8.1 8.3 3.6 2.6 6.6 5.1 6.6 5.5 0 0.5-4.3 1-9.6 1.1-7.7 0.2-9.9 0.6-10.7 2-0.8 1.2-0.7 2.1 0.2 3.2 1.8 2.1 18.6 2.3 23.5 0.2 6.4-2.7 4.8-9.6-3.6-15.4-2.4-1.6-5.4-4.2-6.7-5.6-2.5-2.6-2.5-2.7-0.7-5.7 3.8-6.4 4.6-8.5 4.6-12 0-8-9.5-11.7-17.1-6.6z"/><path d="m98.9 765.4c-0.2 0.2-13.2 0.6-28.9 1-15.7 0.3-29.8 0.8-31.5 1-1.6 0.2-9.5 0.9-17.5 1.6-15.9 1.3-18.2 1.7-16.2 2.9 1.4 0.9 9.3 0.8 42.2-0.5 33-1.3 140.6-1 166.5 0.5 39.2 2.2 81.4 4.9 87.5 5.6 11.6 1.3 52.7 2.7 65 2.2 23.9-1 31.1-3.1 31.8-9 0.4-3.2-0.1-3.3-3.6-0.7-2.2 1.6-5.5 2.2-17.2 3.1-16.4 1.2-34.9 0.7-83.5-2.2-72.6-4.3-91.1-5-141.6-5.5-28.9-0.2-52.8-0.2-53 0z"/><path d="m560 769.6c-5.8 1.6-11 5.6-11 8.5 0 2.6 1.9 3.3 3.8 1.5 6.6-5.9 27.2-7.4 27.2-1.9 0 4.8-6.5 11.4-20.3 20.5-14.6 9.5-15.7 10.9-11.2 15.3 2.9 3 5.5 3.1 20.3 0.9 16.4-2.4 23.7-4.5 23.7-6.9 0-1.8-0.8-2-6.5-2.3-3.6-0.2-10.7 0.2-15.8 0.8-5.2 0.6-9.5 1-9.8 0.8-0.2-0.2 3-2.8 7.1-5.8 8.4-5.9 16-13.6 17.5-17.5 2.5-6.7 0.4-12.3-5.6-14.5-3.6-1.4-13-1.1-19.4 0.6z"/><path d="m1060 768.9c-4.3 0.9-7.3 3.3-6.3 5 0.4 0.7 4 1.1 8.9 1.1h8.2l-0.3 13.7c-0.4 15.6-0.9 16.7-8.5 17.9-5 0.9-7.1 2.9-5.7 5.5 0.6 1 2.2 2.2 3.6 2.5 3.4 0.9 17.1-1.1 25.3-3.5 7-2.2 10.1-4.4 10.1-7.4 0-2.2 0.3-2.2-14 1.2-4.7 1.1-9.6 2.1-11 2.1-2.4 0-2.4-0.1 1.2-3.3 5.1-4.4 6-7.5 5.6-19.2l-0.3-10 13.5-0.6c7.4-0.4 13.6-0.7 13.8-0.8 0.8-0.4-0.1-3-1.3-3.4-2.5-1-38.8-1.7-42.8-0.8z"/><path d="m1136 769.1c-7.2 2.9-13.1 13.5-15 27-1.1 7.6-0.3 10.5 3.8 14.2 4.6 4.2 17.2 4 27-0.3 6.8-3 4.4-4-8.8-3.7-9.8 0.2-12.2-0.1-13.5-1.4-1.5-1.5-1.2-2.1 4-7.3 5.8-6 10.9-14.7 12-20.9 0.6-3 0.3-4-1.9-6.1-2.7-2.8-3.8-3-7.6-1.5zm5 6.7c0 3.3-4.9 11.7-9.1 15.7l-4.1 4 0.7-4c0.3-2.1 1.6-5.7 2.7-8 3.7-7.4 9.8-12.2 9.8-7.7z"/><path d="m872 776.6c-1.9 0.8-6.1 4.1-9.4 7.2l-5.8 5.7 0.5-4.4c0.6-5.1-0.6-9.1-2.7-9.1-2 0-3.6 3.1-3.6 7.2 0 1.8-0.9 6.9-1.9 11.2-1.1 4.4-1.7 8.5-1.4 9.3 0.3 0.7 1.7 1.3 3.2 1.3 2.2 0 3.9-1.5 9.1-8 6.6-8.5 12.7-14 15.4-14 1.8 0 2 1.8 0.6 7.5-0.5 2.2-0.7 4.7-0.4 5.7 1.1 3.7 3.6 2.8 10.7-4.1 13.6-13 16.3-12.6 18.7 3.3 1.3 8.4 2.9 12.4 6.3 15.5 3.7 3.3 9.4 3.2 14.8-0.3 2.2-1.5 4.3-2.6 4.5-2.4 0.2 0.3 0.6 1.8 0.9 3.4 0.6 2.6 0.1 3.2-3.8 5.7-5.9 3.6-13.3 11.7-15.7 17-5.3 11.5 0.2 23.7 10.5 23.7 11.7 0 20.8-16.1 19.1-34.1-0.6-6.4-0.5-6.9 2-8.8 1.4-1.1 3.4-2.3 4.5-2.6 1-0.4 1.9-1.1 1.9-1.7 0-0.7-1.9-0.9-5.4-0.5l-5.5 0.5-1.6-4.9c-1.6-4.7-1.6-5.2 0.1-8.7 4.3-8.7 1-17.2-6.6-17.2-2 0-4.3 0.6-5.2 1.2-5.4 4.4-6.5 12.7-2.3 17.6l2.5 3-2.6 2.1c-3.5 2.7-7 2.7-8.8-0.2-0.8-1.2-2.2-6.2-3.1-11.1-2.5-13.8-4.6-16.6-12.3-16.6-2.9 0-5.3 1-9.5 4-5.7 3.9-5.7 3.9-6.3 1.4s-4.8-6.4-6.8-6.4c-0.6 0.1-2.7 0.8-4.6 1.6zm60.6 11.7c0.6 1.7-1.2 6.7-2.5 6.7-1.6 0-2.3-3.8-1.1-6 1.2-2.3 2.8-2.6 3.6-0.7zm1.8 41.4c0 8.5-2.4 15.3-6.5 18.8-8 6.6-14.2-2.1-8.9-12.4 2.1-4.2 12.8-14.3 14.5-13.8 0.6 0.2 1 3.4 0.9 7.4z"/><path d="m774 780.1c-12.8 1-25.8 2.7-27.1 3.4-1.5 1-1 4.5 0.7 5.2 2 0.7 28.2-2.2 37.9-4.3 8.7-1.9 11.8-3.1 11-4.4-0.7-1.1-7.2-1.1-22.5 0.1z"/><path d="m757.1 791.4c-2.5 2.9 0.7 4.7 10.4 5.9 6.4 0.8 11.8 0.7 20.4-0.2 12.9-1.3 15.9-2.6 8.5-3.6-2.7-0.3-6.9-1-9.4-1.5s-9.9-1.2-16.5-1.6c-10.6-0.6-12.2-0.5-13.4 1z"/><path d="m993.5 794c-3.1 0.4-4.1 1-4.3 2.6-0.2 1.5 0.4 2.3 2 2.8 3.7 1 28.6 0.7 29.3-0.3 1.7-2.9-16.9-6.4-27-5.1z"/><path d="m683.5 804.1c-2.5 0.9-12.1 10.1-15.9 15.1-2.9 3.9-2.9 6.8 0 6.8 0.9 0 4.3-2.8 7.6-6.3 3.4-3.4 5.8-5.4 5.5-4.4-3.8 10.7-4.7 21.1-1.9 23.9 1.7 1.7 3.2-0.1 3.2-3.7 0-1.9 1.8-9 4-15.9s3.7-13.2 3.4-14c-0.7-1.8-3.4-2.5-5.9-1.5z"/><path d="m1222 920.5c-6.4 13.4-7.1 17-2.9 17 1.9 0 3.6-1.5 7.2-6.5 6.1-8.4 12.7-16 13.9-16 1.7 0 0.9 6.2-1.7 12.6-4.6 11.5-0.8 12.7 8.7 2.8 5.8-6.1 14-12.4 16.1-12.4 2.5 0 0.1 5.8-9.6 22.5-5.1 8.9-5.5 10.5-2.7 10.5 4.2 0 19.1-25.1 19.1-32.1 0-8.3-7.6-8.4-17.5-0.3-3 2.4-5.6 4.4-5.8 4.4s-0.1-1.6 0.1-3.5c1.2-10.4-5.2-13.5-13.2-6.5l-3.4 3 0.5-4c0.5-3.3 0.3-4-1.1-4-1.2 0-3.5 3.8-7.7 12.5z"/><path d="m1367 927.7c-0.4 1-0.7 7.3-0.7 14.1v12.2h-3.3c-3.6 0-10.2 2.4-10.2 3.7 0 2.2 2.8 3.3 8.1 3.3 6.5 0 6.3-0.2 7.4 9.5 0.9 8.5 1.5 10.5 3.1 10.5 1.1 0 1.4-2.2 1.4-10.5v-10.4l3.3-0.6c1.7-0.3 6.1-0.9 9.6-1.5 7.1-1 8.7-2 7.7-4.6-0.6-1.5-1.9-1.6-10.6-1.2l-10 0.5v-10.2c0-13.1-0.7-16.5-3.2-16.5-1 0-2.2 0.8-2.6 1.7z"/><path d="m1416 929.5c-4.2 1.5-7.5 4.7-7.5 7.2 0 1.1 0.5 1.3 1.8 0.8 1.8-0.9 13-3.4 14.8-3.5 0.7 0 0 4.8-1.9 13.2-1.6 7.3-3.2 16.7-3.5 20.7l-0.7 7.5-5 1.1c-4.4 0.9-5 1.3-5 3.5 0 2.5 0 2.5 12 2.8 14 0.3 16.5-0.1 16.5-2.8 0-2.5-0.8-2.9-8-3.7-5.1-0.5-6-0.9-5.4-2.2 1.4-3.5 6.3-28.9 6.4-33.3 0-2.7-0.5-5-1.2-5.5-0.8-0.4 2.7-1.2 8.2-1.8 7.3-0.8 9.5-1.3 9.5-2.5 0-2-5.6-2.9-17.5-2.9-5.7 0-11.1 0.6-13.5 1.4z"/><path d="m1475 930c-3.5 1.1-8.5 5.6-9.8 9-0.5 1.4-1.6 5.2-2.4 8.5s-2.4 9.4-3.6 13.6c-2.3 8.2-2 10.9 1 10.9s4.2-2.2 5.8-11.1c0.9-4.6 2.2-9.4 3-10.6 0.8-1.3 1.1-3.4 0.8-5.1-1.5-7.4 11.2-13.6 14.6-7.1 0.9 1.6 0.4 2.6-3 5.9-2.3 2.3-4 4.9-4 6.2 0 1.6 2.8 4.9 9.1 10.9 7 6.5 8.8 8.8 7.8 9.5-0.8 0.5-7.9 0.9-15.9 0.9-14.2 0-14.5 0.1-14.8 2.3-0.5 3.5 3.6 4.4 17.8 4 13.8-0.5 18.5-2 19.6-6.2 0.9-3.7-1.9-7.8-9.5-14-3.9-3.1-7.1-6.2-7.1-6.8s1.4-2.6 3-4.5c5.4-6.1 3.6-13.3-4.3-16.2-3.2-1.3-4.1-1.3-8.1-0.1z"/><path d="m995 941.2c-5 2.6-7.7 6.6-11.1 16.6-2.5 7.5-5.6 11.3-14.7 18-7.9 5.9-15.2 9.7-21.6 11.3-3.9 1-5 0.9-7.1-0.5-2-1.3-2.5-2.5-2.5-5.6 0-3.4 0.4-4.2 2.9-5.5 7-3.6 19-22.7 17.7-28.1-0.4-1.4-1.8-2.9-3.2-3.4-7.8-3-20.6 13.8-23.2 30.5-1.9 11.6 1.7 18.3 10.2 19.2 6.2 0.7 14.9-3.5 23.6-11.7 9.3-8.7 14-12.3 14-11 0 0.6-0.8 4-1.7 7.4-0.9 3.5-1.3 7-1 7.9 0.8 2.2 4.4 2.2 5.6-0.1 2.8-5.2 8.1-21.5 8.1-24.8 0-4.3 2.8-11.2 5.3-13.2 0.9-0.7 3.2-1.2 5.4-1 3.1 0.2 3.9 0.8 4.7 3 0.8 2.3 0.5 3.4-2.2 7.2-7 9.7-6.6 12.3 3.6 22.8 4.2 4.3 7.2 8.1 6.8 8.5s-6.2 1-12.9 1.3c-10.4 0.4-12.2 0.7-12.5 2.2-0.5 2.4 5.4 3.8 16.4 3.8 10 0 14.9-1.2 16.4-4 2.2-4.1 1.1-6.3-7-14.2-8.6-8.5-9.5-10.7-6.1-14.9 5.1-6.6 6.2-11.8 3.7-16.8-3.3-6.3-10.8-8.4-17.6-4.9zm-42 9.3c0 2.7-11.6 19.2-12.7 18.1-0.9-0.9 4.3-11.1 7.7-14.9 2.9-3.3 5-4.7 5-3.2z"/><path d="m880.4 944.6c-1.2 0.3-3 1.4-4 2.5-2.8 3.2-0.6 4.2 8.5 4 5-0.1 8.1 0.2 8.1 0.8 0 1.9-4.1 22.6-5.1 25.9-1.3 3.9-3.5 5.2-8.9 5.2-5.1 0-8 1.5-8 4 0 3.6 3.8 5 13.5 5 16.1 0 27-2.9 27-7.1 0-0.9-0.9-1.3-2.5-1.2-1.4 0.1-6.5 0.5-11.5 0.9l-9 0.7 3.2-3.6c3.2-3.7 4.9-9.2 7.4-24.4l1.2-7.2 5.6-0.6c3.1-0.3 6.2-0.7 7-0.8 3.1-0.4 2-2.5-1.6-3.1-5-0.9-28.2-1.6-30.9-1z"/><path d="m1304 945.1c-3.9 1.6-7.9 6-8.6 9.5-0.7 4.1 1.8 9.1 5.3 10.5 2.5 0.9 3.9 0.7 9.6-1.6 1.7-0.7 1.8-0.3 1.3 4.6-0.3 3-0.5 7-0.6 8.9 0 3.4-0.3 3.7-6.8 6.7-8.3 3.9-14.7 9.9-18 17.2-2 4.5-2.4 6.3-1.9 11.4l0.5 6-43.5-0.4c-34.2-0.3-43.7-0.1-44 0.8-1.5 4.4 17.2 5.3 95.2 4.6 125.2-1.2 222.1-1 242.3 0.6 7.7 0.7 10.5 0 8.6-1.9-4.7-4.7-80.1-6.4-192.8-4.6l-47 0.8 2.7-3.2c4.5-5.3 8.3-15.7 10.2-28.1 0.4-3 1.2-3.9 3.8-4.9 7-2.6 7.4-3 2.2-2.7l-5 0.4 0.3-13.1c0.3-14.1-0.3-16.5-4.8-19.7-3.4-2.4-6.1-2.9-9-1.8zm7.4 7.5c2.3 2.2 2.1 2.7-2.8 5.3-4.7 2.6-6.6 2.2-6.6-1.4 0-3 2.5-5.5 5.5-5.5 1.3 0 3.1 0.7 3.9 1.6zm-2.8 41.5c-3 12.8-8.2 20.9-13.6 20.9-11 0-3.1-18.7 11-26 1.9-1 3.6-1.7 3.8-1.5 0.2 0.1-0.4 3.1-1.2 6.6z"/><path d="m440.5 948.7c-19.4 2.3-24.5 3.8-24.5 7.3 0 1 0.4 2.1 0.8 2.4s5.4-0.3 11-1.2 10.4-1.3 10.7-1c0.4 0.3-0.8 8.2-2.4 17.4-3.5 19.1-3.8 24.6-1.5 26.4 2.6 2.2 4.3-0.8 6-10.6 0.8-4.9 2.4-13.2 3.5-18.6 1-5.3 1.9-10.9 1.9-12.5v-3l14.9-1.2c8.3-0.6 16.1-0.9 17.4-0.6 3.5 0.9 4.2-1 0.9-2.3-6.4-2.5-11.4-3.2-23.2-3-6.9 0-13.8 0.3-15.5 0.5z"/><path d="m1218 956c-6.5 0.7-10.8 2.5-10.2 4.3 0.2 0.7 7.9 1 26.3 0.9 36.5-0.3 48.6-1.3 46.2-3.7-2.2-2.2-46.2-3.3-62.3-1.5z"/><path d="m680.3 958.1c-0.7 0.7-0.9 2.4-0.6 3.9s-0.5 6.6-1.7 11.4c-3.9 15.9-1.7 17.2 10.3 5.9 7.3-6.9 15.5-12.3 18.7-12.3 1.8 0 1.1 4.1-1.6 9.1-1.5 2.6-2.4 5.5-2.1 6.3 1 2.4 5.1 1.9 7.8-1 3.9-4.1 13.9-10.4 16.7-10.4h2.5l-0.7 11c-0.7 11.1 0 15 2.8 15 1.2 0 2.8-6.4 4.1-17.5 0.9-6.8-1.1-12.6-4.8-13.9-3.2-1.2-8.1 0.3-13.9 4l-3.8 2.4v-3.8c0-9.9-10.8-9.6-23.7 0.7l-5.3 4.1 0.7-6c0.5-5 0.3-6.4-1.2-8-2.1-2.3-2.7-2.4-4.2-0.9z"/><path d="m825.5 961c-0.4 0.6-0.6 3.2-0.5 5.8s0.1 5.2 0.1 5.8c-0.1 0.6-2.5 1.4-5.5 1.8-6.8 0.8-8.6 1.4-8.6 3.2 0 2.1 3.4 3.4 9.4 3.4 5.6 0 5.6 0 5.8 3.2 0.1 1.8 0.2 4 0.4 4.8 0.1 0.8 0.2 4.8 0.3 8.7 0.1 6.5 0.3 7.3 2 7.3 2.7 0 3.1-1.8 3.1-13.5v-10.4l4.8-0.6c6.1-0.8 7.2-1.2 7.2-2.5 0-1.4-4.4-3-8.4-3-3.3 0-3.3-0.1-4-5.6-0.3-3.1-1.1-6.5-1.7-7.5-1.1-2.1-3.4-2.5-4.4-0.9z"/><path d="m754.5 967.2c-4.4 2.4-6.5 5.2-6.5 8.5 0 3.6 2.2 5.6 7.5 6.9 5.2 1.2 5.5 1.8 5.5 13.3v10.6l-5.2 1.9c-2.9 1-7.9 3.1-11.1 4.7l-5.8 2.9h-32.3c-33.6 0-38.1 0.3-39 2.6-1.1 2.9 3.5 3.4 33.6 3.4l30.5 0.1-0.4 5.2c-0.3 3.9 0.1 6 1.5 8.3 2.6 4.1 9.5 7.4 15.6 7.4 9.4 0 15.4-5.3 17.7-15.7l1.2-5.2h52.6c55.6 0 73.7-0.4 149.1-2.7 30.6-0.9 40.8-3 35.7-7.2-0.8-0.7-4.2-0.8-10.2-0.3-5 0.5-13.5 0.9-19 1s-22.4 0.6-37.5 1.2c-15.1 0.5-59.7 1.2-99.1 1.6l-71.5 0.6 0.4-3.7c0.4-3.2 1.2-4.2 5.1-6.7 4.1-2.6 4.3-2.9 1.6-2.3-1.6 0.3-3.8 0.8-4.7 1-1 0.3-1.8-0.2-2-1.2-0.4-2.3 0.9-25.2 1.7-29.1 1-4.7-2.8-8.3-8.7-8.3-2.4 0-5.2 0.6-6.3 1.2zm9.3 7c0.3 1.5-0.4 1.8-4.2 1.8-5 0-5.9-1.1-2.3-2.8 3.1-1.5 6.1-1 6.5 1zm-2.8 40.3c0 1.1-1.1 1.5-3.7 1.5l-3.8-0.1 3-1.4c4-1.8 4.5-1.8 4.5 0zm-1 8.7c0 3.6-2.4 8.9-4.7 10.8-5.5 4.3-17.3 1.1-17.3-4.7 0-1.5 1-3.7 2.2-5 1.9-2.1 3-2.3 11-2.3 6.4 0 8.8 0.3 8.8 1.2z"/><path d="m1240 973.9c-5.5 3.4-16.8 19.9-19.9 29.3-2 6.1-1.2 9.3 2.7 11.3 2.6 1.4 3.9 1.4 8.7 0.4 5.6-1.1 20.2-6.8 20.2-7.9 0-0.6-15.4 0.4-22.4 1.5-4.8 0.8-4.8 0.8-4.1-1.6 0.3-1.3 1.9-3.3 3.3-4.4 8.8-6.5 20.2-21 20.2-25.7 0-1.9-2.6-4.8-4.3-4.8-0.7 0-2.6 0.9-4.4 1.9zm0.7 8.6c-0.7 0.9-1.5 1.3-1.8 1-0.3-0.2 0.1-1.1 0.8-2s1.5-1.3 1.8-1c0.3 0.2-0.1 1.1-0.8 2zm-3.5 4.5c-1 1.1-2 1.8-2.3 1.5s0.3-1.4 1.3-2.5 2-1.8 2.3-1.5-0.3 1.4-1.3 2.5z"/><path d="m477.8 982.1c-1 0.5-1.8 1.9-1.8 3 0 1.7 0.5 1.9 3.3 1.4 1.8-0.4 4.5-0.1 6.1 0.5 2.9 1.1 2.9 1.1 1 3-1.1 1.1-4.9 3.9-8.4 6.2-5.9 3.9-6.5 4.6-6.5 7.8 0 5.3 4.2 6.4 21.5 5.6 14.7-0.6 18-1.2 18-3.1 0-0.8-3.1-1.5-10.2-2-5.7-0.4-12.5-1-15.3-1.4l-5-0.6 5.3-3.9c8.6-6.3 10.3-12.9 4.1-16.1-3.2-1.7-9.6-1.9-12.1-0.4z"/><path d="m1075 1004c-0.8 0.2-3.2 0.6-5.2 1-2.9 0.4-3.8 1.1-3.8 2.6 0 3.7 4 4.1 22.9 2.4 9.7-0.8 18.9-1.5 20.5-1.5 4.4 0 2.1-1.6-4.9-3.4-5.3-1.4-24.6-2.1-29.5-1.1z"/><path d="m546.8 1013c-1.1 0.3-1.8 1.4-1.8 2.8 0 1.2 0.8 2.6 1.8 3 2.5 1 31.1 1.9 36.5 1.1 5.1-0.8 6.5-3.2 2.5-4.1-10.3-2.3-34.2-4.1-39-2.8z"/><path d="m1577 1014c-0.9 2.3 0.3 3.3 5.9 4.5 6.8 1.6 29.1 1 30.8-0.7 0.7-0.7 1-1.5 0.8-1.8-0.8-0.7-25.6-3.5-31.7-3.5-3.7 0-5.4 0.4-5.8 1.5z"/><path d="m418.3 1018c-1.1 1.8 2.6 3.8 8.8 4.7 13.2 1.9 75.5 0.7 77.7-1.5 1.3-1.3-1.6-1.9-12.6-2.7-16.4-1.1-73.3-1.5-73.9-0.5z"/><path d="m1079 1018c-4.1 0.4-6 2.6-4.3 4.7 1 1.2 3.8 1.5 13.2 1.5 13 0 30.8-1.8 30.8-3.2 0-0.4-0.6-0.8-1.3-0.8s-4.8-0.4-9.2-0.9c-9.5-1.2-24.7-1.8-29.2-1.3z"/><path d="m546.5 1027c-2.3 0.6-3 1.3-3 3.2 0 2.2 0.6 2.6 5 3.3 8 1.2 35.5-1.3 35.5-3.3 0-2.2-30.8-4.8-37.5-3.2z"/><path d="m1578 1033c0 4.2 12.1 7.6 27.2 7.7 7.4 0 10.2-1 8.1-3.1-1.1-1.1-27.3-5.9-32-5.9-2.1 0-3.3 0.5-3.3 1.3z"/><path d="m423.4 1039c-1.7 4.5 3.5 6.6 16.5 6.6 8.1 0 8.3 0.1 7.8 2.2-0.2 1.3-2.1 9.7-4.1 18.8-2.9 12.7-3.5 17-2.7 18.7 2.2 4.8 5.3 1.7 7.1-6.9 0.7-3.5 2.1-9.9 3.2-14.3 1.1-4.5 1.8-10.2 1.6-13.2l-0.3-5.3h12c12.8-0.1 18.6-1.7 19.3-5.3 0.3-1.6-1.4-1.7-24.5-1.7-13.6 0-27.2-0.3-30-0.6-4.3-0.6-5.4-0.4-5.9 1z"/><path d="m987.6 1050c-3.7 1.1-7.3 4.5-9.6 9.1-2.5 4.7-5.2 18.5-4.8 24 0.2 3.7 0.7 4.5 2.5 4.7 1.8 0.3 2.4-0.4 3.3-4 0.6-2.4 1.5-5.9 2.1-7.8 0.5-1.9 0.9-5.9 0.9-8.9 0-4.7 0.4-5.7 3.4-8.7 2.1-2.1 4.4-3.4 6-3.4 2.6 0 6.6 3.1 6.6 5 0 0.6-2.5 3.7-5.5 7s-5.5 6.7-5.5 7.6c0 2.3 5.7 7.4 11.8 10.6 2.9 1.6 5.2 3.2 5.2 3.7 0 1.8-17.5 4.8-18.5 3.2-0.9-1.5-6.8-1.4-8.9 0.2-2.5 1.8-1.6 4.9 1.9 6.6 2.4 1.2 4.6 1.2 12.7 0.3 10.7-1.3 17.3-3.5 18.8-6.3 2.8-5.1-0.3-9.5-10.9-15.2l-5.1-2.7 4.5-5.5c3.6-4.5 4.5-6.4 4.5-9.4 0-4.9-3-8.7-7.8-10.1-4.2-1.1-3.7-1.1-7.6 0z"/><path d="m944.6 1052c-9.5 2.6-16.6 19.1-16.6 38.6 0 9.1 0.1 9.6 2.9 12.4 2.6 2.5 3.7 2.9 8.8 2.9 4.1 0 6.9-0.7 9.7-2.3 6.3-3.6 5.8-4.7-2.1-4-8.6 0.6-11.9-0.6-12.8-4.7-0.6-2.8-0.1-3.7 5.4-9.5 10.1-10.9 16.8-27.8 12.5-31.6-2.7-2.3-4.5-2.7-7.8-1.8zm3.4 8.8c0 3.6-5 13.4-9.6 18.6l-3.5 4 0.7-4.5c1-6.8 4.2-14.5 7.4-18 3.5-3.8 5-3.8 5-0.1z"/><path d="m871 1060c-1.6 0.9-2.5 2.2-2.5 3.8 0 2.5 0 2.5 8.8 2.1l8.7-0.3-0.1 7.3c0 4.1-0.6 11.2-1.2 15.9l-1.2 8.5-6 0.6c-9.5 0.9-13.4 3.9-7.8 6 4 1.5 30.6-0.8 36.1-3.2 2.4-1 4.1-2.3 3.7-2.9-0.3-0.6-4.7-1-10.2-1-9.4 0-9.5 0-9-2.3 1.6-6.5 2.9-19.6 2.4-24.2l-0.5-5.2 9.9-0.5c10-0.5 13.4-1.7 11.2-3.9-1.8-1.8-39.1-2.4-42.3-0.7z"/><path d="m688 1066c-0.7 2.9-2.3 8.2-3.6 11.7-2.8 7.4-3 10.6-0.8 11.5s3.4-0.1 9.2-7c2.8-3.4 6.3-7.1 7.9-8.4 2.8-2.2 2.8-2.2 3.1-0.2 0.2 1.2-0.1 3.7-0.7 5.7-1.2 4.5-0.6 6.3 2.5 7.1 1.7 0.4 3.5-0.1 5.8-1.7 18.4-13.1 22.5-14.9 24.6-10.9 1.3 2.5 1 10.2-1 20.7-1.1 5.9-1.2 7.5-0.1 8.5 1.7 1.8 3.4-0.7 6.3-9.1 2.8-8.5 3.1-19.5 0.5-23.4-4.2-6.4-11.2-5.8-22.7 1.9-4.5 3-8.3 5.4-8.6 5.4-0.2 0-0.4-2.2-0.4-5 0-4.1-0.4-5.2-2.4-6.5-2.8-1.8-6.1-0.9-11.4 3.2l-3.4 2.5 0.2-2.8c0.5-6.6 0-8.4-1.9-8.4-1.5 0-2.2 1.2-3.1 5.2z"/><path d="m1224 1065c-3.6 9.6-6.3 20.4-5.3 21.5 1.7 2.1 4 0.8 12-7.2 7.9-8 10.8-9.3 10.8-4.9 0 7.8 5.1 8.5 13.6 1.8 6.8-5.2 7.3-4.7 5 4.2-0.8 3.3-1.8 8-2.1 10.6-0.7 4.4-0.5 4.8 1.3 4.8 1.7 0 2.6-1.7 5.3-9.7 1.8-5.4 3.3-11.6 3.3-13.9 0.2-8.7-5.3-9.8-13.8-2.9-3.1 2.5-5.8 4.5-6.1 4.5s-0.5-0.8-0.5-1.8c0-3.2-2.9-6.2-6.1-6.2-3.5 0-5.9 1.1-11 5.1l-3.5 2.8v-4.6c0.1-4.5-1.8-7.1-2.9-4.1z"/><path d="m1486 1072c-2 2.1-3.9 6.4-6.8 15.3-2.2 6.8-4.9 14.8-6.1 17.7-2.5 6.3-2.7 9.1-0.5 9.9 2.8 1.1 4.6-2.3 10.5-19.8 3.2-9.5 6.5-18 7.4-18.8 1.3-1.3 2-1.3 6.2 0.5 7.3 3 7 5.3-1.2 10.1-11.1 6.4-10.2 10.4 4.3 19.1 5 3.1 9.2 6 9.2 6.4 0 0.5-4.9 0.8-10.9 0.8-13.5 0-17.1 0.6-17.1 3.1 0 1 0.4 2.1 1 2.4 3 1.9 28.2 0.6 31.8-1.6 2.2-1.4 2.7-3.4 1.6-6.3-0.3-0.9-5.3-4.5-11-8.2-5.7-3.6-10.4-7.2-10.4-7.8 0-0.7 2.2-2.5 5-4 5.6-3.1 9-6.8 9-10.1 0-5.2-8.7-11.4-15.8-11.5-2.4 0-4.2 0.8-6.2 2.8z"/><path d="m767.3 1071c-9.1 1.9-13.8 13.4-7.8 19.3 2.6 2.7 8.2 3.3 13.1 1.5 1.5-0.6 2.8-0.9 2.9-0.8 0.2 0.2 0.6 3.9 1 8.3l0.6 8-6.6 2.9c-8.3 3.6-17.1 11.4-18.5 16.4-1.2 4.4 1.1 10 5 11.9 3.7 1.9 10.6 1.6 14.8-0.6 7.6-3.9 10.6-9.4 11.7-21.1 0.4-4.1 1.2-8 1.7-8.7 0.7-0.9 0.5-1.8-0.6-2.8-1.3-1.3-1.6-3.8-1.6-12.1 0-6.3 0.4-10.4 1-10.4 1.5 0 1.2-4.3-0.6-6.8-3-4.3-9.5-6.3-16.1-5zm11.2 6.8c2.1 1.4 2.5 2 1.3 2-1 0-2.4 1.3-3.3 3-1 1.9-2.7 3.2-5.1 3.9-7.9 2.2-11.4-3.2-5.3-8.3 3.7-3.2 8.2-3.4 12.4-0.6zm-1.8 40.4c-1 10-5.8 15.1-13.5 14.4-3.1-0.3-3.7-0.7-3.9-2.8-0.2-1.4 0.5-3.5 1.6-4.7 1.8-2.1 14.9-12.3 15.9-12.3 0.3 0 0.2 2.4-0.1 5.4z"/><path d="m474.9 1078c-3.5 2.5-6.5 5-6.7 5.5-0.7 1.9 2.7 2.2 5.9 0.6 1.8-0.9 3.4-1.4 3.6-1.2s-0.3 2.9-1.2 6.2c-2 7.7-1.9 10 0.5 12.4 2.7 2.7 3.7 2.5 3.8-0.8 0.1-1.5 1.2-7.1 2.6-12.5 2.5-10.1 2.3-14.7-0.7-14.7-0.7 0-4.2 2-7.8 4.5z"/><path d="m1437 1075c-0.8 0.5-1.1 1.6-0.8 2.5 0.5 1.2 2 1.6 5.6 1.6h4.9l-1.4 3.7c-0.8 2.1-3.2 11.2-5.2 20.3l-3.8 16.5-4.7 0.5c-6 0.7-7.8 2.3-5.4 4.8 1.5 1.4 3.5 1.7 12.9 1.5 8.2-0.1 11.5-0.6 12.6-1.6 2.2-2.2 0.8-3.4-4.9-4.1-4.3-0.6-5-1-4.4-2.4 0.4-0.9 2.5-8.9 4.7-17.7 4.6-18.5 6.6-22.5 11.6-22.5 5.2 0 3.4-2.4-2.4-3.2-7.2-0.9-17.7-0.9-19.3 0.1z"/><path d="m1301 1083c-8.7 4.3-13.2 20.1-7.4 25.9 2.1 2.1 3.2 2.5 6.5 2l3.9-0.5-0.4 3.6c-0.3 2.1-0.5 5.7-0.5 8.2-0.1 4.4-0.2 4.5-5.7 7.4-5.7 3-11.5 9-13.4 14.1-4.2 11 2.4 24.5 12 24.5 4.9 0 10.5-4.5 12-9.8 0.6-2 1.4-9.2 1.7-16 0.7-14.1-0.3-12.8 11.7-16.2 9-2.5 8.7-4.5-0.5-3.7-4.1 0.3-8.2 0.8-9.1 1.2-1.6 0.6-1.8 0.1-1.8-4.1 0-2.7 0.5-7.8 1.1-11.4 2.8-17.7 1.9-23.9-3.7-26-3.1-1.2-2.3-1.3-6.4 0.8zm5.6 7.6c0.7 2.9-1.1 10-3.2 12.1-1.9 1.9-5.3 2-6 0.1-0.8-2.1 1.3-9 3.7-12 2.5-3.2 4.7-3.3 5.5-0.2zm-3.6 53.1c0 10.4-1.5 15.6-4.9 17.5-2.7 1.4-5.6-0.1-7.6-4-2.1-4-1.9-7.6 0.6-12.7 1.8-3.7 8.7-10.1 11.2-10.3 0.4 0 0.7 4.3 0.7 9.5z"/><path d="m809.2 1087c-1.3 0.3-2.6 1.1-2.9 1.9-1.3 3.4 1.1 3.7 19.6 2.3 10-0.7 17.8-1.6 17.4-2-2-2-27-3.5-34.1-2.2z"/><path d="m1372 1100c-8.9 0.8-14.5 3.9-12.6 7.1 0.6 0.9 1.8 1 5.2 0.2 2.4-0.6 9.5-1.8 15.8-2.6 6.3-0.9 11.7-1.8 12-2.1 1.1-1.1-2.6-2.4-7.4-2.5-2.7-0.1-6.1-0.2-7.5-0.3-1.4 0-3.8 0-5.5 0.2z"/><path d="m1235 1105c-8 0.7-15.1 1.6-15.8 1.9s-1.2 1.5-1 2.7c0.2 1.9 1 2.4 4.8 2.6 6 0.5 27.4-1.5 43.2-3.9 7-1 13-1.9 13.4-1.9 0.5 0 0.4-0.4-0.2-1-1.7-1.7-29-2-44.4-0.4z"/><path d="m1248 1120c-0.9 0.6-2.5 2.5-3.6 4.3-3.8 6.2-5.1 12.2-5.7 26.6-0.6 14.1-0.6 14.1 2 16.7 2.3 2.3 3.3 2.6 6.7 2.1 4.3-0.6 8.5-3.8 7.4-5.6-0.5-0.7-2.2-0.9-4.5-0.5-4.9 0.8-5.4-0.1-5.2-8.9 0.2-6.9 0.3-7.2 4.1-10.4 4.5-3.9 10-14.2 10-18.8 0-1.8-0.8-3.9-1.8-4.8-2-1.9-6.8-2.2-9.4-0.7zm4.7 10.6c-1 2.6-3.1 6.1-4.7 7.8l-2.9 3.1 0.6-4c1.1-6.8 5.9-14.5 7.8-12.6 0.7 0.7 0.4 2.6-0.8 5.7z"/><path d="m1119 1226c-1.9 0.7-1.6 3.1 0.5 3.6 0.9 0.3 3.7 1 6.2 1.7 5.8 1.5 9.5 4.2 8.7 6.4-0.4 0.9-3.1 2.7-6 4-9.6 4.2-10.7 9.4-2.5 11.7 4.5 1.2 28.8-0.4 33.5-2.2 5.7-2.1 0.5-4.9-9.1-4.9-3.5 0-7.7-0.3-9.5-0.6l-3.1-0.6 2-2.8c2.9-4.1 2.5-6.8-1.8-10.9-5.1-4.9-14-7.4-18.9-5.4z"/><path d="m1086 1238c-0.7 0.2-1.3 1.3-1.3 2.3 0 2.6 5.5 4 15.5 4 14.6 0 16.6-2.4 4.4-5.2-7.2-1.6-16.2-2.1-18.6-1.1z"/><path d="m700.4 1241c-3.2 1.3-5.8 5.6-8.9 14.8-4.9 14.9-4.3 23.1 1.9 26 10.6 5.1 23.8-16.1 19.7-31.5-2-7.5-7.5-11.5-12.7-9.3zm6.3 9.7c2.7 6.5 0.3 16.3-5.5 22.5-3.1 3.4-5.8 3.6-6.6 0.5-0.7-3 1.8-14.7 4.1-18.9 1-1.8 1.8-3.8 1.8-4.3 0.1-1.8 1.6-3.5 3.1-3.5 0.8 0 2.2 1.7 3.1 3.7z"/><path d="m984.5 1242c-5.5 0.2-10.4 0.8-10.9 1.3-0.6 0.6-1.7 1-2.6 1-1.1 0-3.3 3.1-6.1 8.5-4.2 8.1-4.3 8.7-2.6 10 1.6 1.1 2.4 1.1 6-0.6 6-2.7 9.3-2.4 12.8 1 2.4 2.5 2.9 3.7 2.9 8.1 0 2.8-0.5 6-1 7-1.4 2.6-7 4-16.2 4-7.6 0-7.8 0.1-7.8 2.5 0 3.7 3.1 4.7 12.4 4.3 13.9-0.6 19.6-5.5 19.6-16.8-0.1-10.5-5.4-17.4-14.4-18.6-2.5-0.4-4.6-1-4.6-1.5 0-3 1.2-3.4 8.3-3.1 9.8 0.5 36.8-2.3 37.8-3.9 2.4-4-0.2-4.3-33.6-3.2z"/><path d="m847.7 1249c-1.4 1.8-3.3 4.9-4.2 6.8-1 1.9-3.2 5.4-4.9 7.8-1.6 2.4-3.1 5.8-3.3 7.5-0.1 1.8-0.5 5.3-0.9 7.9-0.4 3.3-0.3 5.3 0.6 6.3 1.6 1.9 4.4 1.9 6.1-0.1 1-1.3 1-1.7-0.1-2.4-1.7-1.1 1.2-9.3 8.5-24 2.9-5.8 5-11.1 4.8-11.8-0.8-2.2-4.2-1.2-6.6 2z"/><path d="m743.5 1249c-7.1 4.4-8.7 8.4-7.8 19.8 0.5 7.4 1 9.1 3.2 11.6 5 5.5 14.3 4.7 20.5-2 4.8-5.1 5.8-17.2 2.1-24.4-3.3-6.3-12-8.8-18-5zm12.8 6c6 7.2 3.8 20.5-4 23.8-3.9 1.6-7.3 1.2-9.7-1.3-1.8-1.7-2.2-9.9-0.7-15.1 0.6-1.9 0.5-3.5-0.1-4.1s0.2-1.9 2.2-3.6c4.4-3.6 9-3.5 12.3 0.3z"/><path d="m1068 1250c-2.5 1.4-3.7 3.5-4.4 8-0.2 1.1-1 4.7-1.9 8-2.3 9.4-2 16.1 1 19 4.8 4.9 12.6 2.4 19.2-6.3 8-10.5 6.9-25-2.2-28.8-4.3-1.8-8.2-1.7-11.7 0.1zm10.6 6.6c2.1 1.7 2.6 2.9 2.6 6.7 0 8.2-6 17.2-11.6 17.2-3.2 0-3.7-2.7-1.9-11.1 0.8-4.1 1.5-8.5 1.5-10 0-5 4.7-6.5 9.4-2.8z"/><path d="m778.5 1256c-6.1 6.7-8.5 10.2-8.5 12.5 0 2.8 2.2 2.1 5.3-1.4 1.9-2.1 2.7-2.6 2.3-1.4-0.4 1.1-1.6 5.6-2.8 10.1-2.1 7.9-2.1 8.3-0.5 10.9 2.3 3.5 4.4 3.3 4.5-0.4 0-1.7 2.3-9.7 5.1-18 2.8-8.2 4.8-15.6 4.5-16.4-1.1-3-4.9-1.4-9.9 4.1z"/><path d="m869.6 1253c-7 3.9-8.1 6.5-7.8 17 0.4 12.2 1.5 15.5 5.8 17.3 7.9 3.3 19.1-4 24-15.6 1.8-4.2 2-12 0.4-14.9-3.2-6.2-14.9-8.1-22.4-3.8zm15.7 6.5c2.2 1.9 2.1 5.6-0.2 10.7-3.1 7-12.5 13.5-15.3 10.7-0.6-0.6-1.3-5-1.5-9.9-0.6-9.9-0.3-10.5 6.4-12.8 4.2-1.5 7.9-1 10.6 1.3z"/><path d="m1046 1265c-6.5 14.8-7.7 19.5-5.2 19.5 1.6 0 14-27.5 14-31.3 0-5.3-3-1.3-8.8 11.8z"/><path d="m924.4 1253c-0.3 0.6-0.3 4.4 0.1 8.5l0.7 7.4h-6.5c-7.8 0-9.7 0.6-9.7 3.1 0 2.7 3.1 3.9 10.3 3.9h6.4l0.6 6.6c1 10.3 2.4 10.4 3.4 0.1 0.7-7.4-0.6-6.6 12.7-8.8 8.2-1.4 7.3-2.3-4.1-4l-8.3-1.2v-6.1c0-7.6-3.3-13.2-5.6-9.5z"/><path d="m803.7 1267c-1.6 1.6-0.6 4.3 1.9 4.9 3 0.8 6-1.6 5.1-4-0.6-1.6-5.7-2.3-7-0.9z"/><path d="m1017 1269c-0.9 2.4-0.8 3.1 1 4.8 1.8 1.9 5.5 2.1 7.2 0.4 1.2-1.2 0-4.6-2.2-6-1.9-1.3-5.4-0.9-6 0.8z"/><path d="m713.2 1281c-8.9 11.3-9.9 13.1-8.5 14.5 0.8 0.8 2.3 0 5.7-3.1 5.5-5.1 14.1-17.4 13.2-18.9-1.5-2.4-3.9-0.7-10.4 7.5z"/><path d="m1338 1278c-4.9 2.8-3.6 5.4 2.4 4.9 4.9-0.3 7.6 1.1 9.6 4.9 3.3 6.4 0.7 13.5-6.6 18.3-2.6 1.8-5 4-5.3 5-0.5 2.1 2.6 5.7 4.9 5.7 4.8 0 15.5 8.9 15.5 12.9 0 2.2-3.9 4.1-8.5 4.1-5.1 0-13.6-2.2-14.2-3.7-0.8-2-7.9-1.7-8.7 0.4-1.2 3.1 3.4 6.2 12.8 8.5 7.7 1.9 9.5 2 14.4 1 6.5-1.3 11.2-5.5 11.2-9.8 0-5.3-5.4-12.6-12.5-17-1.6-1-3.2-1.9-3.4-2.1-0.2-0.1 0.9-1.7 2.4-3.5 3.8-4.5 5.5-8.9 5.5-14.3 0-9.4-5.7-16.5-13.3-16.5-2.3 0-5.1 0.6-6.2 1.2z"/><path d="m561.1 1290c-1.7 2 0.2 5.4 3.5 6.2 7.4 1.9 41.4-2 41.4-4.7 0-0.5-6.3-1-14.2-1-14.2-0.1-16.1-0.2-24.9-1.3-3.4-0.5-5-0.2-5.8 0.8z"/><path d="m1227 1293c-2.5 1-3.5 3.2-2.3 5.1 1.7 2.9 51.9 0.4 51.9-2.6 0-2.7-43.6-4.9-49.6-2.5z"/><path d="m658 1301c-4.6 1.3-3 3.5 3 4.3 3 0.3 58.2 0.7 122.5 0.7 64.4 0.1 122 0.5 128 1.1 6.1 0.5 15.3 1.2 20.5 1.6s58.3 0.9 118 1c59.7 0.2 110.6 0.4 113.2 0.6 3.4 0.2 5.1-0.2 6.7-1.6 1.2-1.1 1.9-2.1 1.7-2.4-0.3-0.2-4-0.5-8.3-0.7-4.3-0.1-15.4-0.5-24.8-0.9-9.3-0.4-58.8-0.9-110-1.2-56.9-0.3-96.3-0.8-101.5-1.5-9.8-1.2-265-2.2-269-1z"/><path d="m559.8 1308c-1.6 1.7-0.7 4.6 1.6 5.5 5.6 2.1 43.8 1.2 45.2-1.1 0.3-0.5-0.1-0.9-0.8-0.9s-5.7-0.7-11.1-1.5c-12.1-1.8-33.9-3-34.9-2z"/><path d="m1232 1318c-3.5 0.6-5.6 2.9-3.9 4.6 0.9 0.9 7.3 1.2 23.4 1.1 24.1-0.1 37.2-1.7 37.2-4.4 0-1.3-3.7-1.5-27-1.6-14.8-0.1-28.2 0.1-29.7 0.3z"/><path d="m713.2 1341c-3.1 1.9-7.1 8.6-7.2 11.9 0 0.8-0.8 1.9-1.7 2.6-2 1.5-5.2 14.1-5.3 20.5 0 5.4 2 8.7 6.6 10.6 7.2 3 18.8 0.7 24.1-4.8 11.3-11.7 8.9-34.4-4.3-40.8-5.1-2.5-8-2.5-12.2 0zm10.8 5.5c9 4.6 9.3 25.3 0.6 31.1-3.4 2.2-10.6 3.5-14.1 2.5-4.2-1.1-4.9-2.9-3.5-9.4 0.9-4.5 1.5-5.7 2.8-5.5 1.4 0.3 1.7-0.5 1.4-4.7-0.1-2.8 0.4-6.8 1.4-9.2 2.3-6.3 5.7-7.7 11.4-4.8z"/><path d="m1146 1343c-0.7 0.7-1.2 2-1.2 3 0 1.4 0.8 1.8 3.8 1.8 4.3 0 6.6 1.2 6 3.1-0.3 0.8-3.1 3.2-6.4 5.4-5.2 3.6-5.9 4.5-6.2 7.7-0.3 3.3 0 3.9 2.9 5.4 5.1 2.6 18.8 1.6 25.7-2 5.4-2.7 6.5-5.2 2.1-5-1.3 0.1-5.2 0.5-8.6 0.9-3.3 0.4-7.3 0.5-8.8 0.1l-2.8-0.7 3.6-3.3c4.5-4.1 6-7.7 4.7-11.1-1.9-4.9-11.7-8.4-14.8-5.3z"/><path d="m771 1347c-6.7 2.7-9.7 8.9-6.8 14.2 0.7 1.2 1.3 4.6 1.3 7.6 0.1 4.6 0.6 5.8 2.9 7.7 5.7 5 16.4 1.2 22.3-7.7 3.8-5.8 4-14.5 0.4-18.3-3.9-4.2-14-5.9-20.1-3.5zm16 7.4c5.9 5.4-2.7 19.1-11.5 18.3-2.7-0.3-3-0.7-3.3-4.3-0.2-2.1 0.2-5.8 0.9-8.2 0.9-3.3 0.9-4.6 0-5.7-1-1.1-0.8-1.5 0.6-2 3.6-1 11.3 0.1 13.3 1.9z"/><path d="m799.7 1360c-0.4 7.1-1.3 16.2-2.1 20.3-1.4 7.6-0.8 10.4 1.8 9.4 3.3-1.3 8.3-28.1 6.7-36-1-5.1-1.8-6.4-4-6.4-1.6 0-1.9 1.4-2.4 12.7z"/><path d="m1109 1352c-2.9 0.5-3.5 1-3.5 3.1 0 2.4 0.2 2.5 7.5 2.8 10.9 0.5 16-0.5 16-2.8 0-1.2-0.9-2.1-2.2-2.4-4.4-0.9-14.4-1.3-17.8-0.7z"/><path d="m883.4 1355c-2.3 0.8-5.1 2.5-6.2 3.7-3.1 3.3-5.7 16.8-5.3 28 0.1 3.9 4.2 7.7 8.2 7.7 7.7 0 18.7-9 23.4-19.3 2.9-6 3.1-9.6 1-14.1-3-6.2-12.9-9.1-21.1-6zm15.4 8c2.7 3 2.8 5.6 0.3 10.9-3.7 8.2-15.9 16.6-19.6 13.5-0.8-0.7-1.5-2.7-1.5-4.4 0-4.3 2.8-19.8 3.7-20.7 1.6-1.5 7.9-2.8 11.3-2.3 2 0.3 4.5 1.6 5.8 3z"/><path d="m865.2 1357c-1.7 2.1-8.3 25-8 27.8 0.2 1.7 0.9 2.5 2.3 2.5 1.5 0 2.3-1 3.1-4 0.6-2.2 2.2-7.6 3.5-12 1.2-4.4 2.3-9.5 2.3-11.4 0.1-3.6-1.4-5-3.2-2.9z"/><path d="m1008 1357c-5.2 0.4-11 1-12.8 1.4-3.3 0.8-6 4-4.2 5.1 0.6 0.3 0 2.1-1.4 4.3-3.3 5.2-3.9 7.7-2.2 9.1 1 0.8 2.1 0.9 4 0.1 4.3-1.6 7.4-1.2 9 1.2 3.5 5 0.9 12.9-4.9 14.8-3.8 1.2-11.6 1-15-0.5-3.8-1.7 0.8 3.8 4.9 5.9 5.4 2.6 12.9 1 17.6-3.9 2.9-3 3.4-4.3 3.8-9.3 0.3-4.2-0.1-6.8-1.2-9-1.6-3.1-6.1-6.2-9.1-6.2-0.8 0-1.5-0.4-1.5-0.9 0-2.3 3.3-3.9 9.2-4.5 3.5-0.4 8.8-1.3 11.8-2.1 3-0.7 6.7-1.6 8.3-1.9 3.3-0.8 3.6-3.1 0.5-4-2.5-0.6-2.8-0.6-16.8 0.4z"/><path d="m831.6 1361c-1 2.5 2 6.4 4.9 6.4 3.2 0 4.3-3.5 1.9-6.1-2.1-2.3-6-2.5-6.8-0.3z"/><path d="m1064 1360c-3.8 4.8-9.9 22.6-10.4 30.4-0.3 4.1 0 4.9 1.5 4.9 1.4 0 2.9-3.4 7.2-16.4 3-9 5.5-17.2 5.5-18.3 0-2.1-2.3-2.4-3.8-0.6z"/><path d="m1084 1363c-3.5 1.4-7 4.9-7 7.1 0 1.6-0.3 1.7-2.1 0.6-6.8-4.2-6.5 17.4 0.3 24.2 6 6.1 15.4 4.5 23.9-4 5.3-5.3 7.5-11.1 6.4-16.8-1.6-8.3-13.3-14.3-21.5-11.1zm11.3 7c8.8 4.5 6.9 15.6-3.6 20.8-3.9 1.9-5.4 2.2-8 1.5-3.9-1.1-6.7-6.1-6.7-12 0-3.3 0.4-4.3 2-4.7 1.2-0.3 2-1.4 2-2.5 0-3.5 9.5-5.5 14.3-3.1z"/><path d="m744.2 1368c-0.5 1-1.2 4.7-1.5 8.3-0.3 3.7-1.7 9.7-3.1 13.5-2.5 7-2.6 8.5-0.1 8.5 5.6 0 13.6-26.5 9.3-30.8-1.7-1.7-3.6-1.5-4.6 0.5z"/><path d="m923.9 1374c-1.5 1.3-2 2.5-1.6 3.6 0.6 1.5 1.7 1.6 9.4 1 10.5-0.8 21.5-3.4 22.1-5.2 0.3-0.9-2.9-1.2-13.6-1.2-12.1 0-14.3 0.2-16.3 1.8z"/><path d="m1030 1381c-1.9 1.9-1.4 4.6 0.8 5.3 2.7 0.8 5.2-1.2 4.8-3.9-0.3-2.4-3.7-3.3-5.6-1.4z"/></g><g transform="matrix(.05441 0 0 -.05441 1697 1417)" fill="#44b"><path d="m750 2973c-57-10-88-25-119-57-40-41-55-100-46-179 6-45 12-61 32-77 32-25 35-25 64-1 22 17 24 26 21 89-4 105 24 120 164 87 33-7 119-19 190-25 88-8 134-16 144-26 32-32 8-420-28-456-18-18-126-28-289-28-185 0-206-4-250-52-55-58-58-82-55-363 1-145 7-274 13-293 11-34 51-62 89-62 12 0 35 14 52 31l31 30-6 238c-3 130-3 249 0 264l5 27h112c234 1 363 26 423 82 58 54 98 260 91 463-4 122-7 138-34 191-40 81-79 100-217 108-174 10-361 14-387 9z"/><path d="m3660 2971c-42-9-83-34-103-65-39-59-50-127-54-343-5-206-5-212 18-252 28-50 78-86 143-102 48-12 257-8 370 7l49 7-7-104c-4-57-11-189-16-294-9-177-9-192 8-214 35-47 100-46 136 2 22 29 27 86 42 452 7 191 0 235-44 283-45 48-92 56-241 38-146-18-229-20-265-6l-26 10v162c0 156 8 230 27 249 5 5 99 6 210 2l201-6 5-50c3-39 11-56 31-74 34-29 48-29 80 0 24 20 26 30 28 113 4 147-23 169-218 179-242 11-340 13-374 6z"/><path d="m1565 2945c-14-13-25-32-25-42s-1-297-3-638c-2-677-3-662 55-694 33-19 73-7 101 31 18 24 20 51 29 300 5 150 10 278 12 283 2 6 37 8 97 3 52-3 135-7 186-7 154-2 161-10 143-176-21-189-27-310-18-343 12-45 45-72 86-72 71 0 102 46 102 151 0 33 7 118 16 187 24 190 9 280-58 349-50 52-112 67-263 65-71-1-164-6-205-11-41-4-78-7-81-5-4 2-10 108-13 236-9 286-17 352-47 384-31 33-82 32-114-1z"/><path d="m2542 2944c-55-38-64-109-53-419 6-186 9-215 28-250 50-95 116-125 302-135 75-4 171-5 215-1l78 7-4-178c-2-97-7-181-11-184-4-4-42 1-85 11-104 26-285 27-363 3-106-33-149-107-99-170 26-34 68-41 132-21 74 23 202 20 308-7 182-47 274 5 301 168 12 77 27 831 19 994-7 152-20 181-86 186-88 7-103-51-104-401v-219l-201 4c-197 3-201 3-220 27-18 21-19 42-19 283v260l-29 29c-33 33-74 38-109 13z"/><path d="m2374 1391c-55-34-79-78-79-147 0-51 4-66 27-96 35-45 102-73 153-64 78 15 146 111 131 188-20 108-145 172-232 119z"/><path d="m1853 999c-39-11-66-56-61-101 6-59 69-64 76-6 4 30 34 38 145 38h67v-110c0-135-1-136-132-126-85 6-89 6-113-18-24-25-25-28-25-179 0-162 4-177 47-177 35 0 43 29 43 159v121h73c85 0 141 14 168 41 17 17 19 34 19 169 0 147-1 152-25 175-23 24-30 25-137 24-62 0-128-5-145-10z"/><path d="m2985 1e3c-91-16-93-18-104-58-15-51-14-537 0-564 19-36 69-48 204-48 121 0 127 1 151 25l24 24-2 292-3 292-26 19c-31 23-161 33-244 18zm169-86c14-5 16-37 16-250v-245l-102 3-103 3v480l40 6c57 9 131 10 149 3z"/><path d="m2351 971c-24-24-29-73-37-372-6-232-6-237 15-258 23-23 29-25 51-11 12 7 16 40 20 150l5 141 35-23c19-13 59-55 88-93 30-39 78-96 108-128 47-51 56-57 74-47 29 16 25 42-15 92-19 24-62 78-95 121-61 77-61 77-33 77 15 0 46 9 69 19 56 26 67 57 62 179-6 156-27 172-220 172-93 0-111-3-127-19zm257-74c16-13 17-168 0-185-7-7-41-12-84-12-40 0-84-4-98-10l-26-10v239l98-6c53-3 103-10 110-16z"/></g></svg>
