<?xml version="1.0" encoding="UTF-8" standalone="no"?>
<svg
   width="309.47482pt"
   height="307.87762pt"
   viewBox="0 0 309.47482 307.87762"
   version="1.1"
   id="svg17"
   sodipodi:docname="162t.svg"
   xmlns:inkscape="http://www.inkscape.org/namespaces/inkscape"
   xmlns:sodipodi="http://sodipodi.sourceforge.net/DTD/sodipodi-0.dtd"
   xmlns:xlink="http://www.w3.org/1999/xlink"
   xmlns="http://www.w3.org/2000/svg"
   xmlns:svg="http://www.w3.org/2000/svg"
   xmlns:rdf="http://www.w3.org/1999/02/22-rdf-syntax-ns#"
   xmlns:cc="http://creativecommons.org/ns#"
   xmlns:dc="http://purl.org/dc/elements/1.1/">
  <sodipodi:namedview
     id="namedview17"
     pagecolor="#ffffff"
     bordercolor="#000000"
     borderopacity="0.25"
     inkscape:showpageshadow="2"
     inkscape:pageopacity="0.0"
     inkscape:pagecheckerboard="0"
     inkscape:deskcolor="#d1d1d1"
     inkscape:document-units="pt" />
  <metadata
     id="metadata1">
    <rdf:RDF>
      <cc:Work>
        <dc:type
           rdf:resource="http://purl.org/dc/dcmitype/StillImage" />
        <dc:date>2024-01-29T22:54:02.906485</dc:date>
        <dc:format>image/svg+xml</dc:format>
        <dc:creator>
          <cc:Agent>
            <dc:title>Matplotlib v3.7.1, https://matplotlib.org/</dc:title>
          </cc:Agent>
        </dc:creator>
      </cc:Work>
    </rdf:RDF>
  </metadata>
  <defs
     id="defs1">
    <style
       type="text/css"
       id="style1">*{stroke-linejoin: round; stroke-linecap: butt}</style>
  </defs>
  <g
     id="figure_1"
     transform="translate(-7.39,-15.785625)">
    <g
       id="axes_1">
      <g
         id="matplotlib.axis_1">
        <g
           id="xtick_1">
          <g
             id="line2d_1" />
          <g
             id="text_1">
            <!-- $T$ -->
            <g
               transform="matrix(0.38,0,0,-0.38,291.862,323.55044)"
               id="g2">
              <defs
                 id="defs2">
                <path
                   id="STIXTwoText-Italic-54"
                   d="m 2547,0 39,192 c -544,0 -621,64 -500,646 l 634,3117 h 365 c 710,0 736,-160 736,-857 h 198 l 192,1107 H 774 L 512,3098 h 205 c 281,697 352,857 1062,857 h 365 L 1510,838 C 1389,256 1299,192 762,192 L 723,0 Z"
                   transform="scale(0.015625)" />
              </defs>
              <use
                 xlink:href="#STIXTwoText-Italic-54"
                 transform="translate(0,0.296875)"
                 id="use2" />
            </g>
          </g>
        </g>
        <g
           id="xtick_2">
          <g
             id="line2d_2" />
          <g
             id="text_2">
            <!-- $0$ -->
            <g
               transform="matrix(0.38,0,0,-0.38,15.40486,323.55044)"
               id="g3">
              <defs
                 id="defs3">
                <path
                   id="STIXTwoText-Regular-30"
                   d="m 1581,-70 c 1005,0 1414,1004 1414,2099 0,1318 -576,2080 -1401,2080 C 666,4109 173,3264 173,2048 173,915 550,-70 1581,-70 Z m 0,230 c -512,0 -794,614 -794,1856 0,1267 282,1875 787,1875 525,0 800,-601 800,-1901 C 2374,762 2086,160 1581,160 Z"
                   transform="scale(0.015625)" />
              </defs>
              <use
                 xlink:href="#STIXTwoText-Regular-30"
                 transform="translate(0,0.796875)"
                 id="use3" />
            </g>
          </g>
        </g>
      </g>
      <g
         id="matplotlib.axis_2">
        <g
           id="ytick_1">
          <g
             id="line2d_3" />
          <g
             id="text_3">
            <!-- $p$ -->
            <g
               transform="matrix(0.38,0,0,-0.38,7.2,34.025625)"
               id="g4">
              <defs
                 id="defs4">
                <path
                   id="STIXTwoText-Italic-70"
                   d="m 1440,-70 c 966,0 1683,832 1683,2035 0,742 -384,1101 -864,1101 -320,0 -589,-186 -883,-532 v 7 h -26 l 90,493 h -122 l -915,-96 v -160 c 0,0 109,12 205,12 166,0 237,-57 237,-185 0,-45 -7,-83 -13,-122 L 32,-1408 h 1254 l 45,173 c -512,0 -646,173 -646,320 0,89 13,205 25,269 L 864,96 C 992,19 1242,-70 1440,-70 Z m -506,486 320,1549 c 173,390 423,742 820,742 179,0 486,-134 486,-742 C 2560,838 2138,205 1485,205 1222,205 1043,320 934,416 Z"
                   transform="scale(0.015625)" />
              </defs>
              <use
                 xlink:href="#STIXTwoText-Italic-70"
                 transform="translate(0,0.09375)"
                 id="use4" />
            </g>
          </g>
        </g>
      </g>
      <g
         id="line2d_4">
        <path
           d="m 111.95084,212.11397 0.75365,-0.75364 0.75364,-0.75365 0.75365,-0.75364 0.75364,-0.75365 0.75365,-0.75364 0.75364,-0.75365 0.75364,-0.75364 0.75365,-0.75365 0.75364,-0.75364 0.75365,-0.75365 0.75364,-0.75364 0.75365,-0.75365 0.75364,-0.75364 0.75365,-0.75365 0.75364,-0.75364 0.75365,-0.75365 0.75364,-0.75364 0.75365,-0.75365 0.75364,-0.75364 0.75365,-0.75365 0.75364,-0.75364 0.75365,-0.75365 0.75364,-0.75364 0.75365,-0.75365 0.75364,-0.75364 0.75365,-0.75365 0.75364,-0.75364 0.75365,-0.75365 0.75364,-0.75364 0.75365,-0.75364 0.75364,-0.75365 0.75365,-0.75364 0.75364,-0.75365 0.75365,-0.75364 0.75364,-0.75365 0.75365,-0.75364 0.75364,-0.75365 0.75365,-0.75364 0.75364,-0.75365 0.75365,-0.75364 0.75364,-0.75365 0.75364,-0.75364 0.75365,-0.75365 0.75364,-0.75364 0.75365,-0.75365 0.75364,-0.75364 0.75365,-0.75365 0.75364,-0.75364 0.75365,-0.75365 0.75364,-0.75364 0.75365,-0.75365 0.75364,-0.75364 0.75365,-0.75365 0.75364,-0.75364 0.75365,-0.75365 0.75364,-0.75364 0.75365,-0.75365 0.75364,-0.75364 0.75365,-0.75365 0.75364,-0.75364 0.75365,-0.75365 0.75364,-0.75364 0.75365,-0.75365 0.75364,-0.75364 0.75365,-0.75364 0.75364,-0.75365 0.75365,-0.75364 0.75364,-0.75365 0.75365,-0.75364 0.75364,-0.75365 0.75365,-0.75364 0.75364,-0.75365 0.75365,-0.75364 0.75364,-0.75365 0.75365,-0.75364 0.75364,-0.75365 0.75364,-0.75364 0.75365,-0.75365 0.75364,-0.75364 0.75365,-0.75365 0.75364,-0.75364 0.75365,-0.75365 0.75364,-0.75364 0.75365,-0.75365 0.75364,-0.75364 0.75365,-0.75365 0.75364,-0.75364 0.75365,-0.75365 0.75364,-0.75364 0.75365,-0.75365 0.75364,-0.75364 0.75365,-0.75365 0.75364,-0.75364 0.75365,-0.75365 0.75364,-0.75364 0.75365,-0.75365 0.75364,-0.75364 0.75365,-0.75365 0.75364,-0.75364"
           clip-path="url(#p3c2e8d880a)"
           style="fill:none;stroke:#000000;stroke-width:2;stroke-linecap:square"
           id="path4" />
      </g>
      <g
         id="line2d_5">
        <path
           d="M 111.95084,212.11397"
           clip-path="url(#p3c2e8d880a)"
           style="fill:none;stroke:#000000;stroke-width:1.5;stroke-linecap:square"
           id="path5" />
        <defs
           id="defs5">
          <path
             id="m6e1bdc8cb2"
             d="M 0,4.5 C 1.193414,4.5 2.338109,4.025852 3.181981,3.181981 4.025852,2.338109 4.5,1.193414 4.5,0 4.5,-1.193414 4.025852,-2.338109 3.181981,-3.181981 2.338109,-4.025852 1.193414,-4.5 0,-4.5 c -1.193414,0 -2.338109,0.474148 -3.181981,1.318019 C -4.025852,-2.338109 -4.5,-1.193414 -4.5,0 c 0,1.193414 0.474148,2.338109 1.318019,3.181981 C -2.338109,4.025852 -1.193414,4.5 0,4.5 Z"
             style="stroke:#000000" />
        </defs>
        <g
           clip-path="url(#p3c2e8d880a)"
           id="g5">
          <use
             xlink:href="#m6e1bdc8cb2"
             x="111.95084"
             y="212.11397"
             style="stroke:#000000"
             id="use5" />
        </g>
      </g>
      <g
         id="line2d_6">
        <path
           d="M 186.56168,137.50313"
           clip-path="url(#p3c2e8d880a)"
           style="fill:none;stroke:#000000;stroke-width:1.5;stroke-linecap:square"
           id="path6" />
        <g
           clip-path="url(#p3c2e8d880a)"
           id="g6">
          <use
             xlink:href="#m6e1bdc8cb2"
             x="186.56168"
             y="137.50313"
             style="stroke:#000000"
             id="use6" />
        </g>
      </g>
      <g
         id="line2d_7">
        <path
           d="m 37.34,286.72481 74.61084,-74.61084"
           clip-path="url(#p3c2e8d880a)"
           style="fill:none;stroke:#000000;stroke-width:1.6;stroke-dasharray:5.92, 2.56;stroke-dashoffset:0"
           id="path7" />
      </g>
      <g
         id="line2d_8">
        <path
           d="m 186.56168,137.50313 h 0.75365 0.75364 0.75365 0.75364 0.75365 0.75364 0.75365 0.75364 0.75365 0.75364 0.75365 0.75364 0.75364 0.75365 0.75364 0.75365 0.75364 0.75365 0.75364 0.75365 0.75364 0.75365 0.75364 0.75365 0.75364 0.75365 0.75364 0.75365 0.75364 0.75365 0.75364 0.75365 0.75364 0.75365 0.75364 0.75365 0.75364 0.75365 0.75364 0.75365 0.75364 0.75365 0.75364 0.75365 0.75364 0.75365 0.75364 0.75365 0.75364 0.75364 0.75365 0.75364 0.75365 0.75365 0.75364 0.75364 0.75365 0.75364 0.75365 0.75364 0.75365 0.75364 0.75365 0.75364 0.75365 0.75364 0.75365 0.75364 0.75365 0.75364 0.75365 0.75364 0.75365 0.75364 0.75365 0.75364 0.75365 0.75364 0.75365 0.75364 0.75365 0.75364 0.75365 0.75364 0.75364 0.75365 0.75364 0.75365 0.75364 0.75365 0.75364 0.75365 0.75364 0.75365 0.75364 0.75365 0.75364 0.75365 0.75364"
           clip-path="url(#p3c2e8d880a)"
           style="fill:none;stroke:#000000;stroke-width:2;stroke-linecap:square"
           id="path8" />
      </g>
      <g
         id="line2d_9">
        <path
           d="M 261.17252,137.50313"
           clip-path="url(#p3c2e8d880a)"
           style="fill:none;stroke:#000000;stroke-width:1.5;stroke-linecap:square"
           id="path9" />
        <g
           clip-path="url(#p3c2e8d880a)"
           id="g9">
          <use
             xlink:href="#m6e1bdc8cb2"
             x="261.17252"
             y="137.50313"
             style="stroke:#000000"
             id="use9" />
        </g>
      </g>
      <g
         id="patch_3">
        <path
           d="m 160.18411,163.8807 q 0.37682,-0.37682 -0.36439,0.36439"
           clip-path="url(#p3c2e8d880a)"
           style="fill:none;stroke:#000000;stroke-linecap:round"
           id="path10" />
        <path
           d="m 144.54622,171.88184 15.2735,-7.63675 -7.63675,15.27351 z"
           clip-path="url(#p3c2e8d880a)"
           style="stroke:#000000;stroke-linecap:round"
           id="path11" />
      </g>
      <g
         id="text_4">
        <!-- 1 -->
        <g
           transform="matrix(0.38,0,0,-0.38,87.623673,206.42462)"
           id="g11">
          <defs
             id="defs11">
            <path
               id="STIXTwoText-Regular-31"
               d="m 2726,0 v 179 c -588,0 -825,115 -825,429 V 4090 H 1715 L 474,3738 v -212 c 198,64 524,103 652,103 160,0 212,-90 212,-314 V 608 C 1338,288 1114,179 512,179 V 0 Z"
               transform="scale(0.015625)" />
          </defs>
          <use
             xlink:href="#STIXTwoText-Regular-31"
             id="use11" />
        </g>
      </g>
      <g
         id="text_5">
        <!-- 2 -->
        <g
           transform="matrix(0.38,0,0,-0.38,162.23451,131.81377)"
           id="g12">
          <defs
             id="defs12">
            <path
               id="STIXTwoText-Regular-32"
               d="m 2765,0 205,1024 H 2784 C 2637,640 2554,506 2214,506 H 1325 L 877,486 v 32 l 845,800 c 678,685 1043,1127 1043,1696 0,672 -506,1108 -1229,1108 -621,0 -1056,-359 -1254,-980 l 153,-64 c 237,480 519,628 935,628 492,0 800,-308 800,-788 0,-672 -320,-1075 -954,-1728 L 243,218 V 0 Z"
               transform="scale(0.015625)" />
          </defs>
          <use
             xlink:href="#STIXTwoText-Regular-32"
             id="use12" />
        </g>
      </g>
      <g
         id="patch_4">
        <path
           d="m 235.5486,137.50313 q 0.37682,0 -0.8275,0"
           clip-path="url(#p3c2e8d880a)"
           style="fill:none;stroke:#000000;stroke-linecap:round"
           id="path12" />
        <path
           d="m 218.5211,132.10313 16.2,5.4 -16.2,5.4 z"
           clip-path="url(#p3c2e8d880a)"
           style="stroke:#000000;stroke-linecap:round"
           id="path13" />
      </g>
      <g
         id="text_6">
        <!-- 3 -->
        <g
           transform="matrix(0.38,0,0,-0.38,266.68969,131.81377)"
           id="g13">
          <defs
             id="defs13">
            <path
               id="STIXTwoText-Regular-33"
               d="m 1094,-83 c 935,0 1748,448 1748,1325 0,569 -429,908 -941,1068 v 20 c 403,256 691,492 691,934 0,486 -378,858 -1030,858 -525,0 -922,-295 -1159,-852 l 147,-83 c 218,339 455,519 839,519 397,0 653,-218 653,-596 0,-518 -455,-870 -890,-870 h -122 v -243 h 128 c 615,0 1159,-378 1159,-947 C 2317,422 1926,237 1523,237 1197,237 883,550 627,550 461,550 378,403 378,269 378,102 518,-83 1094,-83 Z"
               transform="scale(0.015625)" />
          </defs>
          <use
             xlink:href="#STIXTwoText-Regular-33"
             id="use13" />
        </g>
      </g>
      <g
         id="patch_5">
        <path
           d="m 37.34,286.72481 q 133.056,0 261.83155,0"
           style="fill:none;stroke:#000000;stroke-width:2.4;stroke-linecap:round"
           id="path14" />
        <path
           d="m 283.17155,282.05191 16,4.6729 -16,4.6729 z"
           style="stroke:#000000;stroke-width:2.4;stroke-linecap:round"
           id="path15" />
      </g>
      <g
         id="patch_6">
        <path
           d="m 37.34,286.72481 q 0,-133.056 0,-261.831549"
           style="fill:none;stroke:#000000;stroke-width:2.4;stroke-linecap:round"
           id="path16" />
        <path
           d="m 32.667103,40.893261 4.672897,-16 4.672897,16 z"
           style="stroke:#000000;stroke-width:2.4;stroke-linecap:round"
           id="path17" />
      </g>
    </g>
  </g>
  <defs
     id="defs17">
    <clipPath
       id="p3c2e8d880a">
      <rect
         x="24.90486"
         y="20.612812"
         width="278.54715"
         height="266.112"
         id="rect17" />
    </clipPath>
  </defs>
</svg>
