<?xml version="1.0" encoding="UTF-8" standalone="no"?>
<svg
   width="328.21915pt"
   height="304.45206pt"
   viewBox="80 50 271.23666 260.40517"
   version="1.1"
   id="svg17"
   sodipodi:docname="162t.svg"
   inkscape:version="1.3 (0e150ed, 2023-07-21)"
   xmlns:inkscape="http://www.inkscape.org/namespaces/inkscape"
   xmlns:sodipodi="http://sodipodi.sourceforge.net/DTD/sodipodi-0.dtd"
   xmlns:xlink="http://www.w3.org/1999/xlink"
   xmlns="http://www.w3.org/2000/svg"
   xmlns:svg="http://www.w3.org/2000/svg"
   xmlns:rdf="http://www.w3.org/1999/02/22-rdf-syntax-ns#"
   xmlns:cc="http://creativecommons.org/ns#"
   xmlns:dc="http://purl.org/dc/elements/1.1/">
  <sodipodi:namedview
     id="namedview17"
     pagecolor="#ffffff"
     bordercolor="#000000"
     borderopacity="0.25"
     inkscape:showpageshadow="2"
     inkscape:pageopacity="0.0"
     inkscape:pagecheckerboard="0"
     inkscape:deskcolor="#d1d1d1"
     inkscape:document-units="pt"
     inkscape:zoom="0.73116837"
     inkscape:cx="49.920102"
     inkscape:cy="295.41759"
     inkscape:window-width="1440"
     inkscape:window-height="847"
     inkscape:window-x="0"
     inkscape:window-y="25"
     inkscape:window-maximized="0"
     inkscape:current-layer="svg17" />
  <metadata
     id="metadata1">
    <rdf:RDF>
      <cc:Work>
        <dc:type
           rdf:resource="http://purl.org/dc/dcmitype/StillImage" />
        <dc:date>2023-05-07T10:56:52.796288</dc:date>
        <dc:format>image/svg+xml</dc:format>
        <dc:creator>
          <cc:Agent>
            <dc:title>Matplotlib v3.7.1, https://matplotlib.org/</dc:title>
          </cc:Agent>
        </dc:creator>
      </cc:Work>
    </rdf:RDF>
  </metadata>
  <defs
     id="defs1">
    <style
       type="text/css"
       id="style1">*{stroke-linejoin: round; stroke-linecap: butt}</style>
    <defs
       id="defs8">
      <path
         id="ma8260afbb3"
         d="M 0,3.75 C 0.994512,3.75 1.948425,3.354876 2.65165,2.65165 3.354876,1.948425 3.75,0.994512 3.75,0 3.75,-0.994512 3.354876,-1.948425 2.65165,-2.65165 1.948425,-3.354876 0.994512,-3.75 0,-3.75 c -0.994512,0 -1.948425,0.395124 -2.65165,1.09835 C -3.354876,-1.948425 -3.75,-0.994512 -3.75,0 c 0,0.994512 0.395124,1.948425 1.09835,2.65165 C -1.948425,3.354876 -0.994512,3.75 0,3.75 Z"
         style="stroke:#000000" />
    </defs>
  </defs>
  <path
     d="m 105.92719,50.26679 2.9179,11.671579 h -2.90728 V 272.02679 h -0.0212 V 61.938369 h -2.90728 z"
     style="stroke:#000000;stroke-width:2.2;stroke-linejoin:miter"
     id="path2" />
  <path
     d="m 351.03035,272.02679 -11.67158,2.9179 V 272.0374 H 105.92719 v -0.0212 h 233.43158 v -2.90728 z"
     style="stroke:#000000;stroke-width:2.2;stroke-linejoin:miter"
     id="path3" />
  <path
     d="m 216.4129,171.92225 -2.68224,8.04673 -2.67474,-2.67474 -31.83158,31.83158 -0.015,-0.015 31.83158,-31.83158 -2.67474,-2.67474 z"
     clip-path="url(#p8e088a6501)"
     style="stroke:#000000;stroke-width:2.86;stroke-linejoin:miter"
     id="path4"
     transform="translate(-9.6264843,-0.7546847)" />
  <path
     d="m 282.29811,145.45516 -7.58653,3.79326 v -3.78265 H 242.88 v -0.0212 h 31.83158 v -3.78266 z"
     clip-path="url(#p8e088a6501)"
     style="stroke:#000000;stroke-width:2.86;stroke-linejoin:miter"
     id="path5"
     transform="translate(-9.6264843,-0.7546847)" />
  <path
     d="M 179.21684,209.11832 242.88,145.45516"
     clip-path="url(#p8e088a6501)"
     style="fill:none;stroke:#000000;stroke-width:2.86;stroke-linecap:square"
     id="path6"
     transform="translate(-9.6264843,-0.7546847)" />
  <path
     d="m 242.88,145.45516 h 63.66316"
     clip-path="url(#p8e088a6501)"
     style="fill:none;stroke:#000000;stroke-width:2.86;stroke-linecap:square"
     id="path7"
     transform="translate(-9.6264843,-0.7546847)" />
  <path
     d="m 115.55368,272.78147 63.66316,-63.66315"
     clip-path="url(#p8e088a6501)"
     style="fill:none;stroke:#000000;stroke-width:1.76;stroke-dasharray:6.512, 2.816;stroke-dashoffset:0"
     id="path8"
     transform="translate(-9.6264843,-0.7546847)" />
  <g
     clip-path="url(#p8e088a6501)"
     id="g8"
     transform="translate(-9.6264843,-0.7546847)">
    <use
       xlink:href="#ma8260afbb3"
       x="179.21684"
       y="209.11832"
       style="stroke:#000000"
       id="use8" />
  </g>
  <g
     clip-path="url(#p8e088a6501)"
     id="g9"
     transform="translate(-9.6264843,-0.7546847)">
    <use
       xlink:href="#ma8260afbb3"
       x="242.88"
       y="145.45515"
       style="stroke:#000000"
       id="use9" />
  </g>
  <g
     clip-path="url(#p8e088a6501)"
     id="g10"
     transform="translate(-9.6264843,-0.7546847)">
    <use
       xlink:href="#ma8260afbb3"
       x="306.54315"
       y="145.45515"
       style="stroke:#000000"
       id="use10" />
  </g>
  <path
     style="fill:none;stroke:#000000;stroke-width:2.2;stroke-linecap:square"
     id="path10"
     d="" />
  <g
     transform="matrix(0.37388731,0,0,-0.37446911,330.20905,310.40517)"
     id="g11">
    <defs
       id="defs11">
      <path
         id="CMMI12-54"
         d="m 2669,3910 c 38,154 51,211 147,237 51,13 262,13 397,13 640,0 941,-26 941,-526 0,-97 -26,-339 -64,-577 l -7,-77 c 0,-26 26,-64 64,-64 64,0 64,32 83,134 l 186,1134 c 13,59 13,72 13,91 0,70 -39,70 -167,70 H 762 c -148,0 -154,-6 -192,-121 L 179,3070 c -6,-14 -25,-84 -25,-90 0,-32 25,-64 64,-64 51,0 64,25 89,108 269,777 403,1136 1255,1136 h 428 c 154,0 218,0 218,-71 0,-20 0,-32 -32,-148 L 1318,499 C 1254,249 1242,185 563,185 403,185 358,185 358,64 358,0 429,0 461,0 621,0 787,0 947,0 h 999 c 160,0 332,0 492,0 71,0 135,0 135,121 0,64 -45,64 -211,64 -576,0 -576,58 -576,154 0,7 0,52 25,155 z"
         transform="scale(0.015625)" />
    </defs>
    <use
       xlink:href="#CMMI12-54"
       transform="scale(0.996264)"
       id="use11" />
  </g>
  <g
     transform="matrix(0.41,0,0,-0.41,76.516546,72.144997)"
     id="g12">
    <defs
       id="defs12">
      <path
         id="CMMI12-70"
         d="m 275,-789 c -45,-191 -70,-242 -333,-242 -76,0 -140,0 -140,-121 0,-13 6,-64 76,-64 84,0 173,0 256,0 h 276 c 134,0 460,0 595,0 38,0 115,0 115,115 0,70 -45,70 -154,70 -294,0 -313,44 -313,94 0,76 288,1156 326,1301 71,-179 243,-428 576,-428 723,0 1504,939 1504,1878 0,587 -333,1002 -813,1002 -409,0 -755,-396 -825,-485 -51,319 -301,485 -557,485 -186,0 -333,-89 -454,-332 -116,-230 -205,-619 -205,-645 0,-25 25,-57 70,-57 51,0 58,6 96,153 96,377 218,754 474,754 147,0 198,-102 198,-292 0,-152 -19,-216 -45,-330 z m 1107,2782 c 45,178 224,364 327,453 70,64 281,243 525,243 281,0 409,-281 409,-613 C 2643,1769 2464,1047 2304,715 2144,370 1850,64 1555,64 c -435,0 -505,549 -505,575 0,19 12,70 19,102 z"
         transform="scale(0.015625)" />
    </defs>
    <use
       xlink:href="#CMMI12-70"
       transform="scale(0.996264)"
       id="use12" />
  </g>
  <g
     transform="matrix(0.41,0,0,-0.41,137.10861,206.89869)"
     id="g13">
    <defs
       id="defs13">
      <path
         id="SFRM3583-31"
         d="m 608,3635 c 90,13 186,13 275,26 173,32 327,90 474,180 V 416 c 0,-243 -218,-281 -442,-281 -96,0 -192,0 -275,0 V 0 h 1709 v 135 c -90,0 -186,0 -282,0 -230,0 -435,38 -435,281 v 3724 c 0,19 -6,52 -26,52 -51,0 -160,-136 -230,-188 -192,-138 -442,-222 -666,-222 h -38 c -38,0 -64,-6 -64,-51 z"
         transform="scale(0.015625)" />
    </defs>
    <use
       xlink:href="#SFRM3583-31"
       transform="scale(0.996264)"
       id="use13" />
  </g>
  <g
     transform="matrix(0.41,0,0,-0.41,212.44335,131.56395)"
     id="g14">
    <defs
       id="defs14">
      <path
         id="SFRM3583-32"
         d="m 390,3156 c 52,471 384,927 896,927 557,0 948,-477 948,-1017 v -52 C 2195,2357 1754,1835 1344,1365 L 352,213 C 320,168 288,142 288,64 V 0 h 2150 l 135,907 h -83 c -52,-297 -26,-612 -295,-612 -166,0 -333,-19 -499,-19 -96,0 -186,0 -275,0 H 512 c 326,361 653,736 1005,1077 473,471 1056,981 1056,1710 0,735 -583,1161 -1223,1161 -544,0 -921,-445 -1024,-921 l -19,-96 c -6,-59 -19,-129 -19,-193 0,-123 45,-246 230,-246 109,20 180,104 180,200 0,103 -77,207 -192,207 -39,0 -77,-4 -116,-19 z"
         transform="scale(0.015625)" />
    </defs>
    <use
       xlink:href="#SFRM3583-32"
       transform="scale(0.996264)"
       id="use14" />
  </g>
  <g
     transform="matrix(0.41,0,0,-0.41,299.44967,131.56395)"
     id="g15">
    <defs
       id="defs15">
      <path
         id="SFRM3583-33"
         d="m 506,3501 c 153,365 512,589 928,589 396,0 691,-292 691,-727 0,-402 -192,-870 -576,-1025 -83,-32 -167,-40 -256,-52 l -269,-20 c -26,-6 -64,-12 -64,-45 v -13 c 0,-19 26,-19 45,-19 h 339 c 666,0 922,-509 922,-1038 v -88 C 2234,644 2048,76 1434,76 979,76 429,387 352,851 c 32,-12 64,-19 96,-19 128,0 218,90 218,211 0,116 -90,212 -212,212 -121,0 -217,-77 -217,-225 0,-651 627,-1094 1216,-1094 653,0 1171,563 1171,1203 0,589 -486,1088 -1120,1088 506,150 960,501 960,1145 0,534 -538,852 -998,852 -487,0 -1069,-320 -1069,-870 0,-141 70,-237 198,-237 128,0 205,96 205,205 0,115 -96,198 -198,198 -32,0 -64,-6 -96,-19 z"
         transform="scale(0.015625)" />
    </defs>
    <use
       xlink:href="#SFRM3583-33"
       transform="scale(0.996264)"
       id="use15" />
  </g>
  <g
     transform="matrix(0.41,0,0,-0.41,78.952546,298.29349)"
     id="g16">
    <defs
       id="defs16">
      <path
         id="SFRM3583-30"
         d="M 1357,4221 C 454,4117 301,2985 301,2051 301,1485 333,809 653,352 832,101 1114,-79 1421,-79 c 512,0 838,405 985,862 135,418 154,856 154,1287 0,580 -26,1301 -378,1758 -179,232 -454,399 -748,399 -26,0 -52,-6 -77,-6 z M 627,1704 v 593 c 0,759 39,1848 807,1848 531,0 716,-612 768,-1063 25,-289 32,-573 32,-863 V 1762 C 2234,1279 2208,770 2003,390 1888,184 1677,4 1434,4 h -39 C 659,94 698,1054 627,1704 Z"
         transform="scale(0.015625)" />
    </defs>
    <use
       xlink:href="#SFRM3583-30"
       transform="scale(0.996264)"
       id="use16" />
  </g>
  <defs
     id="defs17">
    <clipPath
       id="p8e088a6501">
      <rect
         x="99.21347"
         y="41.472"
         width="273.89307"
         height="266.112"
         id="rect16" />
    </clipPath>
  </defs>
</svg>
