<svg height="1367.963126pt" preserveAspectRatio="xMidYMid meet" viewBox="0 0 2074.77905 1367.963126" width="2074.77905pt" xmlns="http://www.w3.org/2000/svg"><g transform="matrix(.1 0 0 -.1 -21.136471 3460.953032)"><path d="m7661 34596c-25-30 8-55 74-56 34 0 93-15 115-30 25-15-15-75-93-139-79-65-107-105-107-153 0-67 64-91 235-86 110 3 110 3 113 30 4 31 5 31-128 48-134 17-132 10-37 110 63 65 87 99 96 131 20 70-8 117-86 145-51 18-167 18-182 0z"/><path d="m908 34550c-13-10-37-48-52-84l-28-66h-127c-69 0-136-3-148-6-25-7-38-33-24-47 7-7 5-14-6-22-16-12-16-14 0-38 18-27 56-41 155-57 30-5 57-12 60-14 2-3-2-22-9-43-17-46-14-133 5-133 7 0 19 13 27 29 68 136 72 141 105 141h32l-29-75c-16-41-36-89-45-106-14-28-14-33-1-47 9-8 22-12 31-9 8 3 41 58 72 122l56 115h105c83 0 105 3 109 15 12 30-15 45-85 45-87 0-110 7-104 30 4 15 18 20 71 25 161 15 196 21 200 32 5 18-40 33-97 33-27 0-69 3-94 6l-46 7 6 43c4 35 2 45-11 50-23 9-44-12-58-57-9-31-16-39-34-39h-23l28 63c30 66 30 82 1 97-13 7-24 5-42-10zm-125-241c-8-8-33-9-90-2l-78 10 89 2c67 1 87-2 79-10zm145-6c-2-10-7-17-11-15-4 1-16 2-27 2-13 0-18 5-14 15 9 22 56 20 52-2z"/><path d="m6206 34550c-48-15-95-69-114-130-18-61-20-161-13-835 3-374-2-474-40-705-28-173-27-226 10-336 48-144 55-255 47-744-4-234-11-510-14-615-9-255 1-479 27-577 24-94 66-178 87-178 19 0 16 20-11 110-24 78-31 445-16 845 18 486 18 524 10 750-9 238-17 292-61 423-35 104-36 89 11 312 46 221 55 524 37 1175-9 313-8 322 12 368 28 63 58 75 117 46 24-12 51-19 59-16 41 16-2 90-62 107-42 11-47 11-86 0z"/><path d="m14843 34550c-13-5-23-18-23-29 0-15 15-24 68-41 76-25 132-62 132-89 0-22-44-61-130-115-60-37-100-84-100-118 0-28 47-74 88-86 48-14 201-16 236-2 14 5 26 16 26 25 0 15-16 21-85 28-63 7-156 37-149 49 3 5 32 26 63 45 121 76 156 135 125 212-19 48-67 86-139 112-60 21-79 22-112 9z"/><path d="m11371 34457c-34-17-48-42-33-60 9-11 29-13 82-9 112 8 113 3 22-86-61-58-82-86-87-112-8-45 7-84 40-106 34-22 153-29 225-12 48 12 55 16 55 38 0 24-3 25-80 31-105 8-145 17-145 34 0 8 36 49 80 93 65 63 80 84 80 108 0 37-33 70-81 84-47 14-129 12-158-3z"/><path d="m2288 34420c-14-10-31-34-39-52-7-18-32-65-55-104-54-90-60-112-35-144 19-24 25-25 110-23l90 2-20-56c-20-60-14-93 20-93 25 0 32 11 70 107 18 45 39 88 47 94 25 21 38 51 25 59-8 4-3 19 14 44 34 51 30 71-15 71-33 0-37-3-70-72l-35-72h-72c-40-1-73 1-73 3s22 46 50 97c51 97 59 126 38 147-16 16-21 15-50-8z"/><path d="m1883 34370c-91-41-178-156-202-268-17-81-15-99 17-116 111-62 128-65 211-40 94 28 143 96 116 162-20 46-66 66-152 67-40 0-73 3-73 8 0 14 83 98 111 113 36 18 58 18 81-2 14-14 20-14 33-4 22 18 18 48-10 75-30 31-73 32-132 5zm46-281c35-12 38-21 14-44-42-43-122-47-160-9-29 29-24 38 27 52 48 14 81 14 119 1z"/><path d="m1544 34331c-93-65-134-105-134-130 0-38 27-35 81 8 29 23 54 39 57 37 2-3-26-53-63-112-80-127-107-186-103-221 6-54 70-56 73-2 0 13 48 101 106 194 120 192 140 235 120 259-24 28-65 18-137-33z"/><path d="m2776 34350c-77-20-195-131-221-211-45-135 17-224 155-223 82 1 155 33 228 99 98 88 129 173 93 248-37 76-147 113-255 87zm180-103c29-34 30-56 5-105-46-88-153-156-249-156-70 0-98 25-95 89 1 45 41 131 73 160 30 27 102 44 174 42 61-3 71-6 92-30z"/><path d="m7334 34329c-87-26-184-163-192-270-4-51-2-60 21-83 35-35 96-35 163-1 27 14 49 25 50 25 0 0-23-73-52-162-29-90-60-188-69-219l-15-56-164-11c-229-17-316-35-316-67 0-30 48-37 190-26 75 6 166 11 203 11 64 0 67-1 67-24 0-30 22-49 52-44 17 2 25 12 32 41 8 33 13 37 40 37 59 0 701 30 766 35 100 9 264 36 275 46 40 38-111 43-602 23-238-10-435-15-438-12-8 7 144 464 184 556 19 43 30 81 26 92-6 19-42 37-53 26-3-4-11 7-18 23-22 53-88 79-150 60zm78-96c8-10 18-30 22-45 5-22-2-33-48-75-82-75-166-108-166-65 0 35 61 141 98 172 41 34 72 38 94 13z"/><path d="m10169 34306c-170-49-323-207-337-347-10-102 51-168 180-195 114-24 262-3 320 46 23 21 23 21-32 15-60-6-267 17-315 35-49 19-65 39-65 84 0 110 154 259 295 285 60 11 91 4 123-30 33-36 60-37 68-5 7 31-13 73-47 98-33 25-128 32-190 14z"/><path d="m14391 34303c-31-21-104-177-130-278-26-99-29-210-7-257 35-73 124-89 212-39 27 16 61 41 75 55 13 14 28 26 32 26s7-21 6-47c-3-66 6-89 42-103 26-11 33-11 46 3 14 13 14 19 3 32-18 21-8 80 35 213 36 113 43 170 23 190-21 21-48 13-66-19-37-68-92-149-129-190-71-79-159-119-191-87-36 36 8 250 82 403 32 65 41 94 34 103-14 17-39 15-67-5z"/><path d="m13379 34265c-58-30-154-126-197-197-141-234-64-423 171-421 78 1 142 23 202 68 39 30 50 52 34 71-9 11-19 9-57-10-95-48-246-43-298 9-59 60-1 230 118 346 45 44 120 84 142 76 8-3 15-31 18-72 7-76 26-107 56-89 42 27 39 162-4 214-23 27-31 30-82 30-40-1-71-8-103-25z"/><path d="m10918 34253c-51-58-129-294-136-410-4-78-3-83 23-108 23-24 32-27 75-23 59 6 167 74 236 151 26 29 44 43 40 32s-10-48-13-82c-4-48-2-68 10-87 24-37 54-42 83-15 27 26 32 59 8 59-22 0-13 58 31 205 45 152 46 159 32 179-27 37-57 16-124-84-35-52-92-123-125-157-63-63-169-130-189-117-22 13 22 192 87 357 28 70 33 91 24 103-17 19-44 18-62-3z"/><path d="m17302 34068c-23-23-12-51 39-105 118-125 148-308 86-533-31-110-68-185-124-249-46-52-51-81-14-81 29 0 127 113 166 191 147 292 115 607-78 756-46 36-57 39-75 21z"/><path d="m16703 34006c-62-52-167-304-208-501-24-114-22-243 4-299 30-60 79-80 136-54 39 18 28 44-17 40-49-4-58 15-58 120 0 166 99 496 194 646 42 66 8 98-51 48z"/><path d="m10529 33928c-18-33-24-65-27-139-5-108 6-142 41-137 19 3 23 15 40 123 11 66 20 136 21 155 1 31-2 35-26 38-23 3-30-3-49-40z"/><path d="m13730 33870c-37-9-73-44-68-68 5-26 35-38 58-24s70 16 70 2c0-5-17-22-37-37-69-52-123-110-123-132 0-12 11-33 25-46 19-20 34-25 73-25 79 0 252 59 252 86 0 10-22 12-107 7l-108-6 52 49c28 27 55 62 59 78 19 77-57 137-146 116z"/><path d="m2380 33844c-500-15-1389-17-1666-3-217 11-260 6-248-25 5-14 69-24 289-47 201-20 900-23 1597-4 470 12 708 14 788 8 125-11 153-5 148 30-5 36-70 47-303 51-115 1-388-3-605-10z"/><path d="m5314 33799c-14-23-22-396-31-1379-9-1123-8-5393 2-5538l6-94-38 6c-40 7-457 18-1290 37-418 9-630 8-1260-6-528-12-891-15-1198-10-651 10-1181 8-1205-5-27-14-25-38 3-49 12-4 218-11 457-15 239-3 597-9 795-12 230-4 639 0 1130 11 681 15 833 15 1315 3 710-17 1356-17 1388 1 34 18 22 36-27 39-43 3-43 3-37 40 19 115 25 664 33 2872 11 3377 11 4048-4 4083-13 29-27 34-39 16z"/><path d="m8890 33735c-55-66 133-105 341-71 122 20 151 31 147 54-3 15-20 18-118 23-228 12-356 10-370-6z"/><path d="m17028 33678c-82-89-107-131-92-156 19-29 44-26 75 10s34 32 19-22c-13-43 4-126 29-139 24-12 41-2 41 25 0 13 16 81 35 151s35 134 35 141c0 17-45 62-62 62-7 0-43-33-80-72z"/><path d="m12426 33713c-2-10-7-48-11-85l-7-68h-98c-78 0-102-3-120-18-23-19-20-46 8-57 9-4 59-10 110-12l92-6v-104c0-84 3-105 15-110 9-3 18-3 20-1 6 5 39 137 49 189l7 37 82 7c93 8 130 20 125 37-5 13-35 20-140 33l-58 6v73c0 43-5 77-12 84-18 18-56 15-62-5z"/><path d="m8861 33526c-19-23-9-48 27-69 61-36 365-36 379-1 10 26 17 25-262 64-44 6-92 13-106 16-16 3-31-1-38-10z"/><path d="m9795 33531c-41-5-51-10-53-27-2-13 4-25 15-30 10-5 428-10 928-12 978-3 942-5 947 48l3 25-895 1c-492 0-917-2-945-5z"/><path d="m14630 33503c-207-10-398-12-770-7-780 11-725 12-725-11 0-35 49-48 220-58 95-5 165-14 172-20 12-12 283-456 283-464 0-3-13-18-30-33-34-32-38-58-12-89 13-16 32-23 82-27l66-6 77-132c43-72 81-137 86-145 5-7 13-11 19-7 11 7 1 33-78 201-22 49-39 89-38 90 2 1 55 9 118 19 63 9 118 22 122 29 15 25-20 36-149 49l-133 12 65 59c79 71 109 124 102 179-3 21-11 46-19 55-27 33-90 53-168 53-93 0-125-14-125-55v-30h90c94 0 135-13 135-41 0-16-115-134-130-134-4 0-40 55-81 123-40 67-100 163-134 212l-61 90 331-3c293-3 672 7 958 25 118 7 151 28 111 67-18 18-5 18-384-1z"/><path d="m934 33440c-83-18-206-114-274-214-92-136-94-278-4-321 85-40 272 13 361 101 43 43 4 70-57 39-45-23-221-66-244-59-45 14-47 47-6 132 52 110 195 232 272 232 33 0 74-33 98-80 22-43 43-55 71-40 29 16 25 75-8 123-46 66-135 103-209 87z"/><path d="m10356 33394c-15-14-13-22 19-82 19-37 66-116 104-177l69-110-29-33c-37-42-39-89-5-121 17-16 43-25 91-31 37-5 71-12 76-17s35-47 66-93c59-87 85-103 106-68 9 13 0 32-41 95l-52 78 75 6c78 7 105 19 105 49 0 31-25 39-134 42-105 3-108 4-124 30-16 27-16 27 36 82 60 63 76 97 67 143-13 73-112 119-239 111-72-5-74-4-90 23-23 39-66 89-76 89-5 0-16-7-24-16zm299-189c54-22 54-40 4-91l-44-44-47 75-47 75h50c27 0 65-7 84-15z"/><path d="m6753 33383c-22-8-15-28 37-104 54-80 57-89 36-89s-57-50-54-74c4-27 40-33 70-12 12 9 28 16 35 16 8 0 34-32 60-71l46-72-87-81c-72-68-86-86-86-112 0-54 29-69 124-66 44 1 108 7 141 12 71 12 50 31 210-189 61-82 115-152 122-155 6-3 16 1 22 7 7 9-21 59-99 177-60 91-109 168-110 173 0 4 7 7 15 7 17 0 34 29 28 48-3 6-19 12-37 12-42 0-57 12-104 90l-39 65 21 40c55 106-3 199-129 207-46 3-50 5-87 58-38 55-101 121-115 119-5 0-14-3-20-6zm275-275c13-13 16-48 4-48-4 0-16 14-25 30-14 23-15 30-5 30 8 0 19-5 26-12zm38-260c14-28 14-28-18-28-18 0-51-3-73-6l-40-7 44 46c49 51 59 50 87-5z"/><path d="m2900 33359c-166-43-205-121-99-200 109-82 136-127 108-182-16-32-61-77-75-77-7 0-23 19-36 43-25 45-70 63-81 33-8-20 37-111 65-130 49-35 123-8 171 61 75 109 59 192-53 280-33 25-60 49-60 53 0 12 54 32 140 50 142 31 210 52 210 65 0 31-179 33-290 4z"/><path d="m7749 33365c-177-65-347-327-325-498 8-55 34-113 63-139 33-31 107-58 157-58 68 0 120 18 166 57 64 55 48 104-21 65-41-24-117-36-169-27-78 13-117 83-99 179 22 121 130 270 231 320 53 26 112 34 123 16s45-11 54 13c10 26-9 71-34 81-27 10-108 5-146-9z"/><path d="m4575 33343c-212-18-295-59-295-145 0-58 73-125 173-159l52-18v-68c1-83 24-136 58-131 19 3 22 9 21 43-1 22 3 63 8 91l9 51 73 6c173 15 255 85 224 190-16 54-76 110-139 130-48 16-91 18-184 10zm201-98c65-43 68-103 6-128-40-16-152-33-152-23 0 3 14 39 30 81 17 42 30 82 30 90 0 16 47 6 86-20zm-236 5c0-14 38-12 43 3 2 6 7 10 10 7 4-4-44-133-58-157-1-2-25 4-54 13-30 8-69 30-89 49-33 30-35 36-22 49 27 28 170 58 170 36z"/><path d="m2420 33303c-34-123-62-257-67-315-6-63-5-68 14-68 25 0 71 104 108 243 37 137 32 177-22 177-17 0-24-8-33-37z"/><path d="m1641 33166c-17-21-6-50 26-67 19-10 58-13 137-12 130 2 171 11 171 39 0 17-12 20-120 30-66 6-138 14-161 18-31 5-44 3-53-8z"/><path d="m3462 33149c-63-116-180-253-211-247-8 2-19 18-25 36-9 31-37 44-51 22-15-25-7-81 15-105 47-51 126-24 208 69 18 21 34 37 36 35 1-2 7-16 14-31 14-34 63-61 97-52 14 3 39 20 55 36 17 16 30 24 30 18 0-28 35-82 61-95 15-8 43-15 61-15 37 0 98 33 98 52 0 8 5 5 11-4 15-27 73-24 96 6 17 21 21 22 38 10 22-17 104-18 160-3 61 16 153 60 159 74 10 26-18 35-65 21-64-19-199-31-199-18 0 6 27 35 60 64 60 52 71 73 48 96-21 21-42 13-118-47-41-33-76-59-77-58-1 2 2 21 8 44 6 27 5 51-1 68-21 55-62 3-91-117-14-57-25-85-33-82-7 3-21-4-31-16-50-55-115 3-115 102 0 15-10 39-23 54-29 33-59 27-78-18-14-35-56-88-70-88-13 0-11 79 3 139 9 40 9 53-2 66-20 25-49 18-68-16z"/><path d="m1838 33059c-54-4-113-10-131-13-40-7-70-36-61-59 9-26 57-29 156-12 142 24 168 33 168 55 0 30-28 36-132 29z"/><path d="m2470 32971c-9-17-29-170-30-223 0-10 7-18 16-18 36 0 92 211 64 244-17 22-37 20-50-3z"/><path d="m1200 32840c-26-51-53-176-45-207 8-35 53-32 60 5 3 15 17 66 31 114 29 98 28 122-3 126-17 3-27-6-43-38z"/><path d="m8060 32845c-36-95-68-299-49-321 12-15 55-19 62-6 3 4 19 76 36 160 34 166 32 192-15 192-17 0-27-8-34-25z"/><path d="m11500 32265c-15-18-7-44 17-51 49-15 83-35 83-49 0-29-30-75-96-146-68-75-78-104-49-146s131-53 265-29c57 10 65 14 68 35 5 33-12 41-88 41-36 0-82 3-102 6l-37 7 43 56c77 99 96 157 72 215-8 19-30 45-48 56-39 24-110 27-128 5z"/><path d="m8500 32220c-45-8-59-17-70-44-15-42 23-74 50-41 14 17 66 20 75 5 8-13-29-63-112-152-87-92-96-149-30-185 65-36 317-15 317 26 0 15-19 20-120 33-67 8-123 18-126 21s22 39 56 79c75 88 92 121 94 170 1 63-57 102-134 88z"/><path d="m4813 32210c-61-13-80-26-93-64-9-27-18-36-43-42-49-10-87-33-98-58-25-54 51-135 163-172 49-16 50-17 43-48-3-17-9-54-12-83-5-46-3-54 20-77 14-14 37-26 50-26 28 0 43 26 27 45-7 8-7 29 0 66 17 91 11 86 104 91 289 15 340 265 72 347-76 23-177 32-233 21zm45-87c-10-2-26-2-35 0-10 3-2 5 17 5s27-2 18-5zm220-39c56-33 72-66 46-95-31-34-71-50-144-56l-69-6 24 92c14 51 25 95 25 98 0 12 78-10 118-33zm-232-31c-20-83-28-103-40-103-20 0-138 61-131 69 6 6 150 57 169 60 4 0 5-11 2-26z"/><path d="m690 32108c-66-32-170-141-207-218-78-161-50-313 65-351 58-19 165-5 266 35 99 39 116 50 99 67-7 7-33 6-89-6-43-9-119-17-167-18-87-2-89-1-114 27-22 26-25 37-21 87 10 141 158 320 268 323 53 1 65-14 65-82 0-51 2-57 22-60 32-5 57 48 50 107-4 36-13 52-41 78-32 30-42 33-93 33-38-1-74-9-103-22z"/><path d="m3020 32104c-35-7-85-24-110-37-36-19-47-30-54-60-14-55 5-77 126-152 56-34 45-85-24-121-41-21-60-17-89 17-22 28-28 30-47 20-22-12-29-51-16-86 10-24 58-45 107-45 87 0 183 78 194 157 8 59-17 97-93 146-60 38-63 42-42 50 43 16 152 39 238 51 68 9 86 15 88 29 8 38-15 47-117 46-53 0-125-7-161-15z"/><path d="m7103 32095c-139-43-311-208-353-338-30-93-3-213 58-256 97-69 298-68 429 1 32 17 43 28 41 43-3 22-22 23-234 10-95-6-116-5-148 10-103 49-80 183 53 315 109 109 243 163 271 110 8-15 8-36-1-78-20-98-18-107 16-107 26 0 33 7 54 49 30 60 33 145 7 194-30 57-104 75-193 47z"/><path d="m10880 32092c-45-37 8-82 97-82 17 0 45-3 62-6 38-8 38 1-16-199-33-122-127-373-159-422-9-15-24-23-42-23-57 0-73-59-22-85 60-31 276-11 319 30 8 7 10 21 6 33-6 20-13 21-91 18-46-1-84 1-84 4 0 4 9 19 20 33 60 77 180 448 182 568l1 49h47c49 0 70 13 70 42 0 21-9 23-163 43-156 20-200 19-227-3z"/><path d="m2365 32064c-67-17-91-37-79-69 5-12 19-14 78-9l71 6-107-104c-102-98-108-106-108-144 0-80 68-107 206-84 77 13 107 30 98 54-7 17-49 26-123 26-91 0-92 8-2 89 44 40 89 87 101 105 26 42 26 88 0 111-20 18-95 29-135 19z"/><path d="m10285 32044c-22-22-41-61-74-151-16-43-70-174-120-290-50-117-93-224-97-238-10-40 4-73 37-90 28-15 37-15 98-1 37 9 124 20 193 25 165 13 224 38 216 93-3 26 16 25-223 9-82-6-165-15-182-20-18-5-33-8-33-6s28 68 61 147c135 316 181 451 172 500-6 33-27 42-48 22z"/><path d="m7886 32017c-19-27-68-186-102-322-40-165-28-259 37-286 54-22 103 2 194 95l81 81-1-61c0-47 5-67 19-83 22-24 77-28 95-7 14 17 4 46-16 46s-10 63 35 215c19 66 37 130 40 142 6 29-23 73-47 73-23 0-37-17-101-123-93-156-231-310-261-291-18 11-8 97 27 231 63 242 67 259 60 286-8 34-40 36-60 4z"/><path d="m3633 31928c-34-70-110-164-160-197-71-47-86-39-76 38 5 33 2 42-12 47-53 21-78-114-30-161 48-49 122-25 218 70 54 54 57 55 57 30 0-34 25-82 49-95 40-21 72-12 118 34 36 36 45 41 50 28 18-57 30-76 57-93 60-37 87-14 46 38-16 21-20 41-20 107 0 99-14 153-41 161-28 9-46-9-79-82-31-69-66-123-80-123-16 0-20 50-10 119 12 89 2 121-38 121-23 0-32-7-49-42z"/><path d="m1482 31948c-7-7-12-19-12-28s5-21 12-28c15-15 156-16 266 0 66 9 82 14 82 28s-16 19-82 28c-110 16-251 15-266 0z"/><path d="m4154 31925c-22-34-65-223-57-253 14-58 70-46 114 24l23 38 8-30c16-64 87-92 170-68 54 16 106 60 90 76-8 8-22 8-52-1-29-9-50-9-80-1-47 13-50 26-20 95 26 61 26 101-1 115-28 16-62 6-103-31l-35-30-3 43c-4 52-28 62-54 23z"/><path d="m1541 31810c-41-6-61-31-42-54 17-21 90-20 196 2 68 14 80 20 80 37 0 19-7 20-100 20-55 0-115-2-134-5z"/><path d="m14202 31798c-57-62-160-335-202-538-30-145-38-347-16-422 21-73 73-143 106-143 34 0 37 27 7 67-49 66-58 152-37 328 23 185 106 483 178 643 16 34 27 68 24 75-6 19-37 14-60-10z"/><path d="m2607 31763c-22-42-30-122-22-218 9-101 22-109 55-32 19 43 23 71 24 162 1 106 0 110-21 113-16 2-26-5-36-25z"/><path d="m14836 31754c-4-10 10-34 38-67 104-124 149-234 149-372 0-101-18-175-65-269-65-129-140-218-241-285-86-58-39-95 55-44 118 64 238 210 296 360 90 233 48 469-113 630-65 65-106 81-119 47z"/><path d="m1043 31712c-34-10-63-39-63-62 0-28 21-34 56-15 76 39 73-8-5-83-69-67-84-92-75-127 10-39 57-59 122-52 71 8 167 55 167 82 0 22 4 22-130 9l-70-6 46 48c57 60 71 86 71 131 0 58-58 94-119 75z"/><path d="m7487 31682c-44-48-107-239-107-322 0-63 8-75 44-66 19 5 25 15 31 52 3 25 28 109 55 187 49 145 50 167 10 167-9 0-24-8-33-18z"/><path d="m14535 31516c-16-16-25-35-23-49 3-19 8-22 45-19 79 5 72-14-61-148-96-96-97-99-94-141 4-60 41-81 143-81 89 0 218 43 213 70-3 14-21 17-113 19-60 1-115 5-122 8-9 3 16 34 69 87s88 97 97 121c26 77-11 144-87 154-34 5-44 1-67-21z"/><path d="m11425 31438c-11-6-30-19-41-30-21-19-21-19-27 1-7 27-48 28-71 2-23-25-66-143-66-180v-28l-117-6c-146-8-768-26-1000-30-149-2-175-4-190-19-16-17-16-19 0-35 17-17 49-18 425-16 330 2 993 23 1101 35 60 7 8 59-67 68l-43 5 46 63c26 34 49 62 50 62 2 0 3-18 2-39 0-21 5-46 12-55 25-30 58-18 127 44 36 33 70 60 75 60 10 0-11-60-47-133-28-59-27-79 4-96 30-16 63 16 102 101 43 94 48 169 11 199-33 27-70 24-124-11-56-35-57-36-57-11 0 22-44 61-69 61-9 0-25-6-36-12z"/><path d="m8417 31313c-4-3-7-14-7-23 0-11-11-20-30-24-17-3-284-6-593-6s-656-5-772-10c-258-13-305-20-305-46 0-22 42-33 138-35 212-5 1571 14 1603 22 46 11 73 41 66 71-9 35-80 72-100 51z"/><path d="m9061 31293c-21-15-6-42 35-63 24-12 69-15 243-13 197 2 249 9 228 29-33 34-470 74-506 47z"/><path d="m797 31148c-16-13-268-634-281-694-10-47 3-83 37-100 26-14 47-15 166-5 219 19 217 19 246 52 29 36 32 71 7 119-24 49-55 48-63-3-3-20-9-40-12-44-4-3-60-10-125-15-64-4-125-10-134-12-10-2-18 0-18 4 0 5 52 140 115 301 134 337 144 371 126 393-16 19-41 21-64 4z"/><path d="m7253 31143c-7-2-13-15-13-28 0-18 18-39 69-79 93-75 153-127 238-207l72-68-52-37c-113-81-127-105-82-149 22-23 32-25 110-25 47 0 118 5 156 12l70 11 107-106c101-100 132-123 132-96 0 13-68 97-133 166-27 28-38 47-33 59 8 22-11 44-38 44-12 0-37 16-57 38-63 67-62 64-34 120 33 65 34 136 3 182-40 58-71 74-151 78-81 3-120-11-125-45-3-19-14-13-109 58-57 43-108 79-111 78-4 0-13-3-19-6zm396-174c17-6 36-19 41-29 15-29 12-76-7-98-18-21-19-20-95 53-83 78-83 81-7 84 20 0 50-4 68-10zm71-294 23-25h-53-53l23 25c13 14 26 25 30 25s17-11 30-25z"/><path d="m4132 31090c-66-14-114-41-139-79-19-28-23-48-23-113 0-118-18-260-46-354-36-127-31-174 21-174 25 0 60 34 51 49-4 6 4 52 18 103 32 118 46 225 46 343 0 70 4 97 15 109 21 21 100 35 243 45 136 9 164 20 138 56-13 18-28 20-148 22-73 1-153-2-176-7z"/><path d="m9060 31091c-29-5-35-10-35-31 0-32 23-38 156-39 108-1 273 21 295 40 7 6 10 17 7 25-4 11-39 14-197 13-105-1-207-4-226-8z"/><path d="m10561 30969c-18-11-36-29-38-40-5-19-9-17-43 16-40 39-72 44-78 11-3-13 25-47 87-110l92-92-26-24c-17-16-25-34-25-56 0-45 37-64 127-64l68-1 102-93c185-169 332-289 348-282 8 3 15 9 15 14s-42 47-92 94c-51 48-136 128-188 179l-95 92 45 12c41 10 45 14 45 40 0 30 0 30-88 37-49 3-91 8-93 10-2 3 17 19 41 36 55 39 85 86 85 132-1 41-13 60-60 89-49 30-180 30-229 0zm189-84c16-19 4-35-60-74l-47-29-47 47-47 48 33 10c52 17 153 16 168-2z"/><path d="m3422 30887c-6-7-24-49-41-92-16-44-39-102-50-129-32-72-31-114 3-143 23-20 38-23 102-23 45 0 74-4 74-10s-7-40-16-75c-18-72-10-99 30-93 30 4 53 60 98 238 43 172 45 223 12 228-31 4-60-42-81-127l-17-71h-69c-62 0-68 2-62 18 64 158 88 247 74 273-11 22-42 25-57 6z"/><path d="m2312 30876c-61-20-106-58-134-114-13-26-29-47-36-44-18 6-61-46-72-87-21-75-6-125 47-161 32-22 47-25 127-25 101 0 154 18 227 76 84 66 118 204 70 283-44 70-140 101-229 72zm143-101c31-30 34-95 6-141-23-38-74-77-120-93-42-14-131-14-165-1-22 8-26 16-26 52 0 37 2 40 13 24 7-10 22-17 33-14 15 2 20 14 24 55 4 36 13 60 30 78 62 66 160 85 205 40z"/><path d="m3022 30789c-23-12-50-31-60-43-9-12-25-20-34-18-35 7-95-159-84-236 8-59 29-90 74-109 72-30 188 10 274 95 115 112 118 255 8 313-47 26-124 25-178-2zm157-93c32-34 22-81-31-140-71-82-192-124-218-77-18 34-12 58 13 57 19-1 23 5 27 49 6 61 11 68 62 106 54 38 114 40 147 5z"/><path d="m4338 30783c-24-28-44-71-72-162-23-71-25-89-16-117 7-19 17-34 23-34 11 0 57 47 57 59 0 3 33 6 74 6h73l-24-64c-19-50-21-66-12-78 20-23 51-11 81 32 25 38 80 193 92 261 6 40-12 67-44 62-19-2-27-15-45-68l-22-65-76-3c-42-2-77-1-77 1 0 9 30 89 46 122 9 19 14 42 10 50-7 20-49 19-68-2z"/><path d="m1442 30698c-7-7-12-21-12-33s5-26 12-33c13-13 120-16 242-5 95 8 99 26 11 60-46 18-79 23-150 23-57 0-95-4-103-12z"/><path d="m1408 30574c-23-7-33-41-18-59 13-16 154-19 295-6 61 5 70 9 73 27s-4 22-45 28c-66 9-284 16-305 10z"/><path d="m2543 30508c-6-7-18-39-28-71-10-31-33-88-52-124-27-56-31-69-20-80 33-33 136 89 155 181 11 57 1 100-24 104-12 2-25-3-31-10z"/><path d="m9703 30046c-44-20-66-57-58-96 9-39 46-42 63-5 10 21 19 25 52 25 73 0 67-37-25-139-89-99-105-156-60-209 30-36 89-52 182-51 97 2 128 10 128 34 0 14-8 21-25 23-39 5-193 43-208 51-14 8-7 18 80 131 61 79 75 123 55 172-9 20-27 44-41 53-35 24-104 29-143 11z"/><path d="m3876 29798c-20-71-96-488-96-527 0-24 6-34 23-40 32-12 54 3 67 46 22 73 20 70 31 51 5-10 30-29 54-43 63-38 174-37 189 0 10 27-5 45-38 45-38 0-105 30-130 58-10 12-22 40-26 62-8 46 13 95 70 163s151 94 163 46c8-30 35-23 42 11 13 60-56 117-127 104-46-9-111-47-143-85l-27-32 8 74c3 41 8 76 10 78 9 10-19 41-36 41-15 0-23-12-34-52z"/><path d="m2260 29811c-117-36-225-150-279-294-25-68-28-165-6-207 36-69 116-100 198-76 131 38 176 180 80 253-28 21-49 28-99 31-35 3-64 7-64 11s13 27 28 52c32 50 96 110 141 133 39 21 100 20 122 0 27-25 49-11 49 31 0 29-6 39-32 55-34 20-92 25-138 11zm-60-401c17-17 19-24 9-43-19-34-40-46-83-47-22 0-36 3-33 6 4 4-1 20-11 36-17 29-16 30 7 49 31 25 85 25 111-1z"/><path d="m9259 29730c-52-28-157-145-206-231-47-83-75-176-66-220 12-63 84-87 156-50 20 10 37 16 37 12 0-3-9-35-20-69-24-76-25-111-6-157 24-58 82-40 70 21-9 49 107 347 211 539 34 62 41 84 34 98-6 9-18 17-28 17-9 0-27 14-39 30-19 25-29 30-65 30-23-1-58-9-78-20zm91-76c0-33-84-220-114-256-40-45-116-98-143-98-22 0-24 3-19 28 21 91 130 259 207 320 51 39 69 41 69 6z"/><path d="m719 29698c-106-82-204-348-155-423 12-19 25-25 50-25 34 0 45 8 106 80 12 14 20 18 17 10-2-8-32-97-67-198-67-197-76-258-45-292 27-30 57-21 80 23 15 29 17 39 8 45-10 6 3 53 49 188 78 230 108 338 108 394 0 25 4 61 9 81 29 124-63 191-160 117zm81-89c0-10-15-36-34-56-18-21-53-67-76-103-33-50-41-58-36-35 12 51 62 149 96 188 33 38 50 40 50 6z"/><path d="m3301 29587c-6-8-28-80-48-160-30-121-34-149-23-162 19-22 53-18 80 10 21 22 25 23 40 10 25-23 86-45 124-45 50 0 160 37 181 60 27 30 8 45-41 31-43-12-135-13-174-2-48 13-37 44 33 90 87 56 102 73 87 100-22 42-113 16-174-48-17-17-33-31-37-31s-7 35-6 77c2 64-1 78-14 81-9 1-21-4-28-11z"/><path d="m1253 29584c-18-8-16-49 2-64 12-10 46-11 138-7 99 5 124 9 134 24 26 34-4 45-138 49-68 2-130 1-136-2z"/><path d="m4528 29573c-8-10-30-40-49-68-48-72-118-144-161-166-37-19-38-19-50 1-7 11-23 20-35 20-20 0-23-5-23-39 0-96 104-104 207-16 43 36 53 33 53-16 0-28 44-69 73-69 57 0 85 60 35 73-19 5-20 11-14 59 3 29 15 82 26 116 24 77 24 86 4 106-20 21-47 20-66-1z"/><path d="m2829 29530c-9-5-22-24-29-42-40-101-136-182-207-176-37 3-38 4-38 45 0 23-6 48-13 55-18 18-61-28-69-75-5-32-1-41 30-72s41-35 86-35c57 0 108 18 158 56 22 17 33 21 33 11 0-7 11-24 25-37 42-39 129-25 191 31 20 19 20 19 37-16 23-48 73-72 124-59 28 7 38 14 38 29 0 16-6 19-27 17-19-2-32 5-48 25-20 25-22 36-16 100 7 89 2 103-35 103-24 0-31-6-44-37-32-77-93-133-145-133-25 0-26 21-3 119 17 71 17 74-2 87-22 16-25 17-46 4z"/><path d="m7492 29515c-26-11-33-20-30-37 3-22 7-23 73-20 48 2 76-1 88-10 18-14 18-15-8-46-15-17-64-59-110-92-103-74-125-101-125-150 0-43 20-65 77-86 40-14 131-17 173-5 54 15 28 71-33 71-37 0-107 20-107 31 0 5 30 33 68 62 129 105 152 133 152 191 0 46-24 80-67 97-36 13-113 10-151-6z"/><path d="m1253 29469c-18-18-16-43 5-62 15-14 40-17 121-17 104 0 141 9 141 35 0 23-29 32-125 39-49 3-99 8-110 11-11 4-26 0-32-6z"/><path d="m6854 29340c-89-36-235-430-210-564 4-22 20-51 36-68 64-64 156-19 281 139 28 35 53 62 55 61 2-2-8-39-21-81-22-68-23-83-14-128 6-28 17-53 25-56 20-7 44 15 44 41s58 201 124 372c48 126 54 162 34 182-27 27-48 11-109-80-120-179-230-314-293-360s-70-41-63 50c8 121 88 344 153 429 41 53 17 88-42 63z"/><path d="m9170 28966c-256-6-471-15-477-19-22-14-14-37 15-49 18-8 142-12 393-12 286-1 361-3 339-12-112-48-240-311-299-617-44-230-14-369 86-396 49-14 53-6 14 27-32 27-32 29-38 132-4 84-1 127 16 220 50 260 153 503 254 600 19 18 23 28 15 37-13 16-93 14 1121 22 865 6 925 7 935 24 8 12 8 22 0 35-11 16-68 17-960 18-522 0-1158-4-1414-10z"/><path d="m7775 28961c-42-5-51-10-53-29-6-43 13-52 107-52 102 0 380 35 395 50 7 7 6 14-2 23-14 13-356 20-447 8z"/><path d="m8055 28828c-49-4-126-12-170-16-76-7-80-8-80-32 0-20 7-26 35-32 49-11 195 4 323 33 40 9 47 15 47 35 0 27 0 27-155 12z"/><path d="m11363 28754c-3-9-1-24 6-33 69-96 86-153 85-301 0-206-63-369-192-499-73-73-85-101-42-101 65 0 161 103 230 245 102 210 114 442 31 609-38 78-102 121-118 80z"/><path d="m8625 28733c-63-32-179-149-227-228-42-69-78-170-78-217 0-161 238-194 411-57 39 30 48 52 29 64-6 3-40-6-77-21-46-18-94-28-149-32-74-4-83-3-103 17-28 28-23 60 26 158 65 132 196 253 274 253 43 0 47-4 62-68 10-40 16-47 37-47 49 0 63 90 23 151-39 60-142 72-228 27z"/><path d="m10779 28692c-109-69-248-274-264-389-12-89 27-173 96-208 37-19 120-19 167 1 50 20 92 62 92 91 0 33-24 39-60 13-39-28-89-35-135-20-76 25-79 108-9 240 51 97 181 236 201 216 4-4 9-25 12-48 7-47 31-69 55-49 25 21 22 121-5 155-29 37-89 36-150-2z"/><path d="m9550 28653c-127-63-259-315-248-475 6-82 56-128 141-128 84 0 202 75 195 124-4 26-38 33-70 12-31-20-117-39-145-31-20 5-23 12-23 53 0 104 70 262 151 337 54 51 94 59 124 25 21-24 60-26 69-5 8 23-9 60-40 84-33 26-104 28-154 4z"/><path d="m237 28644c-22-4-28-10-25-27 3-20 11-23 78-29 172-15 1466-47 2000-49 212 0 372-4 355-8-98-24-165-104-169-200-1-36 3-46 17-49 13-3 23 9 37 41 39 87 87 127 155 127 51 0 74-15 96-63 45-100 11-172-146-303-126-104-175-159-200-222-24-59-16-130 18-176 27-35 86-62 112-52 24 9 17 48-11 71-17 14-27 33-31 62-8 63 28 116 152 222 57 49 117 104 134 124 80 91 99 219 46 315-32 58-62 84-115 101-45 14 1196 6 1415-9 497-33 582-33 549 0-17 17-209 50-379 66-276 24-718 34-1725 36-536 1-1085 5-1220 9-361 10-1111 18-1143 13z"/><path d="m10237 28567c-10-6-25-45-34-84l-17-73h-56c-118 0-167-23-137-64 10-13 33-19 92-23l80-6v-96c0-76 3-96 14-96 15 0 70 142 71 181 0 19 10 24 76 39 67 15 75 19 72 38-3 20-10 22-65 25l-63 3 6 72c5 57 3 75-8 85-11 9-18 9-31-1z"/><path d="m745 28410c-33-13-50-39-38-58 7-12 26-17 69-18 379-8 461-4 471 23 11 28-16 35-174 49-178 15-298 17-328 4z"/><path d="m961 28293c-13-11-48-92-91-211-72-198-110-331-110-391 0-32-1-33-32-27-79 16-97 17-117 7-26-15-28-54-2-80 36-36 216-36 318 0 34 11 46 30 36 55-5 13-19 14-85 10l-80-6 25 30c14 16 35 62 47 102 13 40 53 156 90 258 89 244 85 225 61 249-26 26-33 26-60 4z"/><path d="m8947 28280c-31-24-56-94-64-176-7-72 0-109 23-118 30-11 51 11 58 61 4 26 17 87 28 135 17 71 19 90 8 103-16 20-22 19-53-5z"/><path d="m9805 28272c-38-27-96-194-98-284-2-58 0-63 20-66 27-4 56 50 96 173 36 114 41 150 22 169-18 18-25 19-40 8z"/><path d="m10928 28114c-21-11-28-22-28-43 0-42 23-58 55-37 13 9 34 16 45 16 18 0 19-3 9-22-6-13-36-49-65-80-56-59-65-86-38-112 24-25 60-30 121-17 78 15 128 41 128 66 0 18-6 20-62 17-64-4-76 4-47 29 8 7 24 30 35 50 43 85 9 149-78 149-26-1-60-8-75-16z"/><path d="m1850 27793c-114-12-170-36-170-73 0-38 21-41 156-25 71 9 169 25 217 36 79 19 88 23 85 42-3 21-8 22-128 23-69 1-141-1-160-3z"/><path d="m1105 27598c-2-7-8-35-13-63-5-27-15-71-22-96-16-56-9-79 24-79 18 0 36 15 70 58 25 33 56 67 71 76 23 15 26 15 31 1 4-8 3-30 0-48-19-89-19-95 1-106 30-16 58-3 76 34 34 71 138 158 167 140 15-9 12-76-5-108-8-15-12-34-8-42 7-21 56-19 84 4 33 27 39 141 10 188-36 57-122 60-199 8l-35-24-34 29c-39 35-65 37-115 12-36-19-36-19-47 5-11 25-49 32-56 11z"/><path d="m11835 27531c-31-5-40-10-40-26s10-22 58-31c60-12 87-28 87-50 0-8-33-41-73-74-73-60-117-119-117-158 0-12 10-32 23-47 29-33 91-41 185-25 78 13 106 28 97 51-5 13-27 17-101 22-53 3-99 8-102 11-3 4 33 43 81 89 82 77 87 85 87 122 0 84-76 131-185 116z"/><path d="m2512 27441c-8-4-12-19-10-32 2-19 10-25 35-27 63-6 99 38 47 58-31 12-55 12-72 1z"/><path d="m11424 27282c-78-44-143-121-184-218-87-211 15-315 181-183 21 17 39 29 39 27s-31-76-70-164l-69-159-193-8c-106-4-203-10-214-12-27-6-36-28-21-49 11-15 38-17 205-17h192l-6-27c-3-15-7-32-9-39-7-21 16-73 37-84 14-8 25-7 43 5 27 18 60 105 45 120-27 27-7 33 138 40 81 3 255 13 387 21 1377 84 1735 98 1836 70 19-5 28-3 32 9 9 22-16 43-76 63-112 36-606 21-1821-57-253-17-462-28-464-25-3 2 21 64 53 137 113 258 185 442 185 468 0 32-23 55-46 46-10-4-29 5-50 24-41 35-100 40-150 12zm94-74c18-18 14-63-9-105-38-69-171-193-207-193-11 0-13 9-8 41 14 88 91 208 160 250 36 22 48 23 64 7z"/><path d="m8034 27186c-34-15-47-36-34-56 6-9 30-12 84-11 88 2 116-9 116-46 0-29-46-78-150-158-66-51-76-68-66-111 11-44 58-59 186-58 141 1 195 12 195 39 0 11-7 21-15 22s-68 9-132 18l-117 17 32 26c107 86 147 143 147 209 0 21-7 49-16 62-37 53-159 77-230 47z"/><path d="m9300 27085c-10-12 39-64 205-218 38-35 48-49 40-60-113-155-165-278-165-393 0-78 18-117 73-158 42-31 165-29 227 3 74 39 110 71 110 97 0 30-21 31-76 5-53-25-156-45-185-36-47 14-59 34-59 96 0 68 31 162 81 245 65 106 44 115 265-108l195-196-36-54c-31-45-36-58-31-89 4-25 0-51-13-80-32-75-35-105-12-128 31-31 61-15 76 40 7 24 30 88 52 142l39 97 39-41c104-107 216-202 227-191s-232 278-547 600c-133 137-139 144-120 158 61 45 112 14 101-62-6-48 10-78 39-72 26 5 45 44 45 96 0 121-109 180-219 117-54-31-62-31-92 1-51 56-209 192-228 197-11 3-25-1-31-8z"/><path d="m7475 26994c-62-9-72-14-84-41-11-25-10-29 9-45 19-15 34-17 92-11 68 6 70 5 60-14-17-32-80-283-103-411-11-64-25-125-30-134-12-23-36-35-95-48-26-6-54-16-61-22-19-15-16-42 7-63 18-16 32-17 127-12 150 9 222 24 256 55 49 47 38 55-67 50-89-4-94-3-85 14 6 11 25 87 44 171s46 201 60 261c20 82 24 115 17 131-10 23-10 23 102 30 62 4 118 10 125 15 23 14 8 53-24 62-34 9-305 19-350 12z"/><path d="m6747 26928c-9-7-37-71-62-142-26-72-73-198-105-282-33-84-60-167-60-184 0-37 38-80 72-80 18 0 297 64 376 86 15 4 16 50 2 59-33 20-120 15-230-13-63-17-116-29-118-27-2 1 21 65 51 141 88 227 151 418 144 437-7 20-46 23-70 5z"/><path d="m10478 26619c-44-25-42-89 3-89 29 0 79 38 79 59 0 36-44 53-82 30z"/><path d="m8735 26601c-83-6-90-8-93-28-5-34 42-53 136-53 71 0 211 13 270 26 24 5 31 38 9 47-24 9-230 14-322 8z"/><path d="m8705 26421c-34-5-40-10-40-31 0-25 0-25 105-28 58-1 148 3 200 10 86 12 95 15 98 36 3 22 3 22-160 21-90-1-181-5-203-8z"/><path d="m11949 26406c-40-27-72-72-122-172-94-189-155-392-165-551l-7-103-106 79-106 79 1 58c1 50-2 59-19 62-12 3-27-6-40-22l-22-27-122 117-123 118 36 33c33 31 76 44 76 24 0-4-12-21-26-36-34-37-25-57 23-53 68 6 106 96 63 150-37 48-103 42-187-16l-49-33-64 74c-36 41-83 101-105 133-29 42-46 59-62 60-54 1-8-91 122-243l67-77-29-48c-85-140-118-295-78-372 43-84 178-79 268 8 89 85 87 149-2 84-21-15-64-36-95-47-79-27-91-18-90 68 0 55 7 78 42 151 22 47 44 86 47 86 4 0 46-37 93-83 48-45 109-100 135-122 46-37 49-41 43-76-8-50 4-155 20-177 11-15 14-15 27-2 7 8 19 44 26 80s14 66 16 68c1 2 40-22 86-53 46-30 96-61 110-67 21-9 30-25 43-72 26-91 123-181 143-130 3 9-5 26-19 42-38 40-46 61-57 148-20 164 30 384 147 636 50 107 93 172 132 195 17 9 30 25 30 35 0 27-58 23-101-6z"/><path d="m13748 26368c-3-7 3-37 13-68 49-159 74-502 50-696-16-128-63-272-98-300-49-41 10-63 62-22 38 30 70 108 96 230 49 238 17 702-58 830-20 34-58 49-65 26z"/><path d="m13235 26308c-38-13-99-71-129-123-106-184-66-437 76-476 54-14 100-3 156 40 52 38 108 98 100 107-3 2-29-7-59-20-30-14-80-28-111-31-52-7-59-5-81 17-37 37-53 123-39 199 21 111 84 209 136 209 28 0 29-5 26-87-1-42 13-83 30-83 14 0 29 34 40 91 14 72-1 124-43 149-35 22-57 24-102 8z"/><path d="m12181 26218c-57-28-139-109-189-187-103-158-102-317 1-380 79-47 179-44 216 7 26 37 33 94 9 74-7-5-35-13-63-16-59-8-112 14-133 54-26 51 13 168 90 267 40 52 111 113 132 113 6 0 11-17 11-37 0-31 4-39 21-41 16-2 28 7 43 31 28 45 27 82-4 112-31 31-75 32-134 3z"/><path d="m7684 26158c-13-21-76-242-77-273-2-24 2-31 22-33 19-3 40 14 103 83 44 47 82 84 85 82 2-3-2-16-8-31-10-22-9-29 6-46 10-11 24-20 30-20 7 0 39 25 71 55 33 30 62 55 66 55 3 0 10-28 15-62 7-53 11-63 28-63 15 0 23 13 37 57 21 71 14 121-20 148-32 26-39 25-97-5-43-23-49-24-65-10-29 26-95 12-129-29-22-27-29-18-23 29 6 57-23 98-44 63z"/><path d="m12732 26111c-16-10-31-71-32-123 0-20-4-39-9-42-4-3-35-8-67-11-129-13-147-22-124-66 9-16 22-19 95-19h84l3-112c3-107 4-113 25-116 30-4 38 16 53 136 11 95 14 103 36 107 78 16 75 15 72 43-3 24-8 27-45 30l-43 3 3 73c2 88-15 120-51 97z"/><path d="m13496 25739c-32-25-35-65-6-74 12-4 27-1 35 5 12 10 16 9 21-3 7-19-18-69-68-131-59-75-63-114-16-149 42-31 114-33 168-4 50 26 59 52 20 53-14 0-48 4-77 8l-51 8 33 47c18 25 38 57 45 71 38 72 29 150-20 175-38 20-52 19-84-6z"/><path d="m12294 25705c-13-20-14-31-7-48 7-15 7-43 1-82-5-32-8-82-6-110 3-48 4-50 33-50h30l19 132c15 104 17 138 8 158-16 34-56 34-78 0z"/><path d="m16355 25363c-98-25-258-238-284-378-12-64-5-101 27-144 35-46 83-64 158-58 141 11 217 137 129 215-47 40-167 24-195-27-31-58 13-91 60-46 31 30 76 31 94 3 8-14 6-22-10-39-47-46-156-29-170 27-15 59 62 217 149 305 26 27 52 49 57 49s10-24 12-52c3-48 5-53 27-53 29 0 49 45 50 113 1 40-23 82-48 82-5 0-15 2-23 4-7 2-22 1-33-1z"/><path d="m9221 25318c-123-35-293-224-337-376-18-62-13-94 21-128 50-50 176-15 268 74 20 20 37 32 37 26 0-5-22-72-50-149-63-177-76-223-89-313-11-83-8-98 20-107 26-9 45 8 53 47 3 17 54 169 111 336 58 167 117 347 130 400 27 103 27 106-25 160-38 41-76 49-139 30zm82-74c11-11-69-156-121-220-50-62-138-129-184-140-24-5-28-3-28 16 0 38 70 157 133 225 78 86 175 143 200 119z"/><path d="m15636 25119c-46-7-60-21-51-48 9-29 40-34 158-28 167 8 243 35 207 71-12 12-249 15-314 5z"/><path d="m14305 25033c-119-48-247-189-295-327-57-159 9-286 149-286 42 0 56 5 86 31 118 104 13 275-125 204-40-21-39-7 5 82 62 125 192 233 280 233 38 0 58-22 70-77 13-62 65-42 65 25 0 49-18 81-59 109s-116 30-176 6zm-105-476c0-30-18-47-50-47-40 0-43 11-13 42 33 35 63 37 63 5z"/><path d="m15102 25016c-50-57-234-373-247-424-20-79 6-126 61-107 38 14 54 43 32 56-22 12-18 23 82 194 110 188 140 247 143 281 3 44-32 44-71 0z"/><path d="m15360 24909c-37-15-80-59-101-104-10-22-29-52-41-67-15-19-23-45-26-86-4-52-1-61 23-90 87-103 278-41 330 109 54 152-54 290-185 238zm100-98c17-32 12-103-10-139-36-59-125-93-158-60-31 31 1 135 56 186 42 38 95 44 112 13z"/><path d="m14676 24764c-22-21-20-31 9-59 27-28 66-33 85-10 18 21 8 46-25 66-38 22-50 23-69 3z"/><path d="m6206 24685c-14-11-47-15-113-15-119 0-166-17-161-57l3-28 108 4c59 2 107-1 107-6 0-4-39-127-88-271-73-220-91-265-111-275-35-18-49-43-35-64 31-48 326 14 407 85 29 25 5 34-59 23-91-17-187-31-190-28-1 1 31 101 71 222 41 121 80 244 86 273l12 52h66c74 0 95 9 89 36-3 15-15 20-65 24-38 3-68 11-80 23-23 20-23 20-47 2z"/><path d="m20550 24381c-84-11-120-25-120-50 0-40 16-42 256-31 126 6 239 16 252 21 29 11 28 37-2 49-34 13-307 20-386 11z"/><path d="m12252 24301c-79-8-108-25-98-59 12-36 94-42 278-17 178 24 178 24 178 45 0 10-4 21-8 24-15 9-277 14-350 7z"/><path d="m7164 24270c-47-7-64-16-64-36 0-26 49-34 208-33 196 0 236 6 240 37 2 12 2 23 0 24-9 5-351 12-384 8z"/><path d="m18706 24273c-3-3-886-9-1963-14-1077-4-2075-13-2218-19s-451-14-685-18c-234-5-431-12-438-16-24-15-13-43 19-50 48-9 747-6 984 5 116 5 1052 14 2080 19 2998 14 3594 20 3611 37 10 10 11 20 4 32-8 16-30 19-169 25-177 8-1217 7-1225-1z"/><path d="m9110 24229c-151-4-450-13-665-19-214-6-469-8-566-4-185 7-229 3-229-21 0-23 34-32 166-46 125-13 669-8 1274 11 162 5 807 9 1432 10 713 0 1146 4 1162 10 31 11 35 45 6 60-22 12-2132 11-2580-1z"/><path d="m20715 24205c-5-2-58-9-116-14-127-12-141-17-137-44 2-14 14-24 38-30 52-14 213-2 313 23 78 20 88 25 85 44s-10 21-88 23c-47 1-89 0-95-2z"/><path d="m7163 24115c-26-19-11-48 32-61 54-17 149-15 280 5 89 13 110 19 113 34s-9 17-145 18c-81 0-174 4-206 8-39 5-64 3-74-4z"/><path d="m12156 24091c-49-8-70-36-42-57 26-19 189-19 315 0 97 15 118 24 108 50-6 14-30 16-174 15-92-1-186-5-207-8z"/><path d="m17820 23990c-1571-5-2384-10-2530-18-118-7-424-24-680-38s-510-24-564-22l-100 3-39-40c-54-56-140-169-234-310-75-112-121-187-343-562-46-78-86-140-88-138-3 2 4 75 14 162 23 203 25 397 4 437-40 78-114 85-183 16-40-40-46-72-15-78 10-2 28 6 40 18 30 28 68 37 79 19 15-24 10-195-11-383-24-219-25-294-4-324 24-34 61-28 103 17 36 39 61 79 315 506 134 225 261 413 361 534l50 61h171c95 0 342 9 550 20 735 38 871 40 3157 40h2258l-7-47c-14-86-12-98 18-101 24-3 28 2 58 79 36 93 34 134-7 150-13 5-32 8-41 7s-1059-5-2332-8z"/><path d="m6823 23954c-18-9-51-36-73-60s-40-38-40-30c0 7-9 25-21 40-32 40-81 36-146-14l-53-40v38c-1 44-19 72-48 72-24 0-31-14-25-55 2-16-7-69-21-118-31-105-32-113-7-127 28-15 46-4 86 51 37 50 130 139 146 139 5 0 9-24 9-54 0-74 6-86 44-86 28 0 37 7 74 63 47 71 98 124 109 113 12-12 3-125-13-169-21-58-21-68-3-80 50-32 93 56 94 191 0 90-1 94-28 118-33 28-41 29-84 8z"/><path d="m9630 23930c-384-12-810-46-913-74-26-6-53-21-61-32-7-10-88-154-181-319-179-322-316-557-321-552-2 2 10 70 26 153 46 232 38 310-34 334-90 29-250-61-192-109 10-9 25-7 61 9 26 11 61 21 79 23 29 2 31 0 34-33 2-20-15-126-38-236-22-111-40-218-40-238 0-45 31-80 63-70 66 20 142 137 467 724 84 151 154 277 156 279 2 3 89 12 192 22 427 39 588 44 1465 44 930 0 884 3 870-53-5-22 11-52 29-52 5 0 20 11 33 25 42 41 28 121-24 145-32 15-1281 22-1671 10z"/><path d="m9457 23667c-128-127-307-538-307-704 0-93 55-159 125-151 40 4 49 44 11 54-49 12-57 32-46 118 5 42 23 118 40 169 40 119 142 330 209 431 29 46 51 89 49 100-5 36-35 29-81-17z"/><path d="m15308 23613c-143-260-242-546-268-780-17-146 3-226 73-292 28-25 60-25 65 1 2 10-9 34-25 55-27 35-28 41-27 137 3 174 49 352 171 661 98 246 103 263 97 280-4 8-15 15-25 15-13 0-32-24-61-77z"/><path d="m11115 23650c-12-19 3-56 62-157 126-218 157-314 156-478-2-123-16-178-63-237-56-69-27-94 36-31 54 53 94 147 103 239 16 166-23 300-152 526-70 122-86 143-109 146-14 2-29-2-33-8z"/><path d="m19786 23635c-50-18-89-55-141-135s-92-174-106-255c-11-54-10-66 9-107 11-26 32-54 46-63 62-41 162-27 226 31 76 69 62 155-33 199-28 14-69 25-90 25h-38l38 73c50 95 119 167 159 167 55 0 76 52 28 70-33 13-51 12-98-5zm-55-395c71-20 85-66 28-95-66-34-129-6-129 58 0 19 3 37 7 40 9 10 52 8 94-3z"/><path d="m8838 23623c-24-27-28-38-141-333-126-327-128-339-93-374 17-18 36-26 60-26 43 0 156 23 248 51 55 17 68 25 68 41 0 20-4 21-150 16-82-3-150-4-150-2s47 130 105 284c111 295 125 353 89 358-11 2-27-5-36-15z"/><path d="m18064 23616c-4-17 11-75 45-173 62-184 75-257 68-392-6-123-33-212-92-296-47-69-68-87-105-90-44-3-46-11-7-24 61-20 142 17 191 87 126 183 141 466 38 722-64 158-82 190-108 190-17 0-25-7-30-24z"/><path d="m10704 23500c-40-16-122-119-167-212-57-116-77-177-84-250-7-68 7-108 50-144 29-24 37-26 102-22 55 4 85 12 132 37 75 40 122 86 105 103-8 8-23 6-59-9-70-29-186-47-212-33-29 15-27 63 5 158 55 165 146 306 199 307 39 0 55 28 31 54-20 22-64 27-102 11z"/><path d="m9620 23453c-104-37-232-250-234-388-1-107 49-159 151-158 37 0 64 8 97 27 77 45 88 102 13 71-47-19-116-19-145 1-17 12-22 25-22 60 0 91 95 279 156 306 20 10 31 8 54-5 28-17 29-17 38 0 27 50-46 108-108 86z"/><path d="m13895 23413c-35-9-72-41-102-88-15-25-36-45-45-45-23 0-52-52-78-140-54-184-27-281 78-282 142-1 282 194 282 393 0 90-19 135-64 154-37 16-39 16-71 8zm51-118c17-91-28-218-102-292-55-56-103-72-105-35-2 32 3 67 11 72 4 3 15 34 24 70 25 96 108 220 147 220 13 0 20-11 25-35z"/><path d="m17781 23380c-79-19-113-71-92-142 10-33 38-67 122-152 60-60 109-117 109-127 0-27-44-35-75-15-23 15-44 50-59 99-3 9-12 20-21 23-46 18-62-78-22-136 37-55 70-74 131-74 90-1 137 49 122 129-6 31-27 58-115 144-59 59-110 117-113 129-9 34 23 42 157 42 114 0 138 7 116 34-25 30-199 61-260 46z"/><path d="m14680 23365c-23-28-101-230-107-278-5-41-3-51 17-72 28-30 75-33 140-10 35 12 41 13 37 1-13-34-28-134-25-166 3-31 6-35 33-35 25 0 30 5 38 35 5 19 29 103 53 185 47 161 54 209 28 219-22 8-60-34-75-83-10-35-18-43-49-51-76-21-100-23-100-10 0 7 17 61 37 120 33 93 36 111 25 134-13 29-33 34-52 11z"/><path d="m10250 23333c-12-15-26-47-33-71l-12-44-90 3-90 4v-30c0-25 5-32 35-42 19-7 56-12 83-12l47-1v-74c0-41 3-81 6-90 9-24 33-19 38 7 3 12 10 51 17 85 13 70 12 69 104 92 48 12 60 19 60 35 0 18-5 20-69 16-62-3-68-2-63 15 3 11 11 38 18 61 20 71-10 98-51 46z"/><path d="m19335 23341c-55-3-110-12-122-19-28-15-31-57-5-71 28-15 263 36 278 60 8 14-15 39-35 37-9-1-61-4-116-7z"/><path d="m15626 23318c-20-33-134-325-156-401-21-74-12-102 29-95 18 2 34 30 87 153 83 191 115 284 107 316-13 52-43 64-67 27z"/><path d="m14402 23313c-18-9-41-26-51-39-10-12-26-22-36-21-55 5-124-286-84-351 20-32 71-46 114-32 50 16 119 90 156 166 59 118 50 259-17 284-34 13-43 12-82-7zm56-138c-6-73-44-151-95-196-46-40-63-38-63 9 0 67 11 110 30 115 10 2 20 18 24 37 7 37 81 115 98 104 6-4 9-31 6-69z"/><path d="m17165 23324c-5-1-23-5-38-9-42-9-77-51-77-91 0-42 24-45 59-9 48 51 130 20 100-37-6-13-47-60-90-104-88-91-97-117-54-159 31-32 97-33 181-5 96 34 95 37-24 60l-62 13 55 58c60 62 85 110 85 159 0 34-20 79-44 99-16 14-74 29-91 25z"/><path d="m16340 23304c-81-15-95-17-124-12-14 2-30-20-74-104-48-93-53-109-41-124 10-13 24-15 65-10 36 4 55 2 62-7 35-43 18-127-31-157-41-26-67-25-74 0-9 32-37 20-41-16-6-66 92-98 164-53 50 30 88 116 81 179-9 71-32 110-78 128-21 8-39 19-39 24 0 26 23 46 60 52 23 4 91 18 152 33 104 25 134 41 112 63-18 16-120 19-194 4z"/><path d="m18745 23266c-35-37-134-250-142-306-4-27 0-39 15-53 19-17 20-17 41 5 12 13 46 81 76 151s64 145 76 167c40 71-8 98-66 36z"/><path d="m16782 23208c-6-8-20-34-30-59l-20-46-76-6c-91-8-118-20-114-50 4-26 53-40 117-31 42 5 44 5 38-18-4-13-10-58-13-100-6-65-4-78 8-78 13 0 72 119 93 188 4 13 26 32 56 47 57 30 63 45 15 45h-33l1 57c1 45-2 58-15 61-9 1-21-3-27-10z"/><path d="m19017 23185c-49-12-102-54-112-87-4-9-9-17-13-17-22 4-32-6-51-50-25-59-27-118-5-149 66-94 267-50 340 74 36 61 40 102 16 157-30 68-92 93-175 72zm100-86c7-6 13-29 13-51 0-75-105-148-189-132-17 4-34 11-37 16-10 16 7 67 25 73 9 3 21 20 26 37 18 61 116 95 162 57z"/><path d="m10898 23079c-27-15-22-39 14-69 40-34 34-61-27-130-46-52-55-83-35-121 18-33 103-26 188 16 38 20 73 43 76 52 12 29-10 36-57 18-24-9-56-15-71-13l-26 3 26 39c31 45 41 110 22 146-12 22-72 70-87 70-3 0-14-5-23-11z"/><path d="m18420 23069c-9-16-8-26 4-44 30-46 86-40 86 10 0 48-69 74-90 34z"/><path d="m9754 23016c-48-105-39-256 15-256 18 0 21 6 21 48 0 26 11 89 25 141 27 99 24 121-17 121-13 0-26-16-44-54z"/><path d="m13976 22998c-8-13-38-87-66-166-49-134-52-144-36-160 12-13 20-14 34-6 22 14 107 202 123 273 12 49 11 55-6 67-26 19-32 18-49-8z"/><path d="m15751 22918c-92-204-100-243-46-243 28 0 33 7 77 95 84 171 92 230 32 230-22 0-30-11-63-82z"/><path d="m17457 22948c-8-13-22-57-32-98s-21-88-26-104c-20-64 1-104 36-69 38 37 95 181 95 240 0 24-24 53-45 53-8 0-21-10-28-22z"/><path d="m10401 21855c-50-16-64-31-50-57 8-15 18-17 68-12 38 4 61 3 65-5 4-6-5-31-20-56-34-59-27-88 27-115 84-44 69-114-26-115-61-1-76-17-46-49s74-39 119-20c51 21 81 51 88 90 11 61-9 107-66 147-21 15-21 15-4 65 17 48 17 53 2 86-13 26-26 37-55 45-46 13-47 13-102-4z"/><path d="m11275 21638c-38-33-129-166-230-336-40-67-67-102-80-104-15-2-21-12-23-37-2-19-21-60-44-93-32-48-42-57-54-47-38 31-63-41-26-74 44-40 96-10 167 98 51 77 59 85 88 85 18 0 62 3 98 6l66 7-5-57c-5-60 7-86 39-86 31 0 46 27 54 94 7 65 7 65 43 71 54 9 64 14 57 25-3 5-24 10-46 10-34 0-39 3-35 18 14 45 56 312 56 357 0 96-56 124-125 63zm11-240c-15-79-29-154-31-168-5-24-9-25-90-27l-84-2 71 117c81 134 149 234 155 228 3-2-7-69-21-148z"/><path d="m9837 21604c-14-14-7-43 15-58 30-21 134-20 212 2 93 27 82 38-46 46-62 4-127 9-143 12-17 3-34 2-38-2z"/><path d="m8266 21530c-49-15-76-48-76-95 0-53 17-76 97-130l66-44-58-36c-79-51-138-76-149-65-17 17-55 11-66-10-15-27 7-72 40-83 38-14 96 6 196 66 141 85 159 145 64 214-92 66-112 86-98 94 7 5 74 9 148 10 172 2 195 6 195 39 0 23-6 26-65 37-74 14-251 15-294 3z"/><path d="m8033 21468c-63-69-213-359-213-412 0-42 9-66 24-66 6 1 43 67 81 147 39 80 91 182 118 226 50 85 57 111 31 121-21 8-18 9-41-16z"/><path d="m9537 21416c-20-8-44-20-53-27-21-17-44-64-44-89 0-12-4-19-8-16-4 2-14 1-22-4-11-7-16-35-18-109-4-96-3-101 22-126 50-49 133-21 223 77 109 120 122 243 29 287-49 24-76 25-129 7zm97-72c39-15 2-109-70-180-43-42-80-62-91-50-3 3-9 38-13 78-5 62-4 74 12 90 10 10 18 22 18 26 0 25 104 51 144 36z"/><path d="m9234 21353c-106-231-117-269-94-314 6-10 19-19 30-19 25 0 63 49 51 64-6 8-1 32 15 71 76 180 88 247 47 253-18 3-27-7-49-55z"/><path d="m7175 21328c-126-8-245-24-245-33 0-2-3-11-6-19-5-12 4-20 32-32 41-17 56-17 394 12 255 21 277 24 289 38 6 8 9 21 5 30-5 14-27 16-168 14-88-1-224-5-301-10z"/><path d="m8769 21204c-21-25 1-49 46-49 24 0 42 6 48 17 16 24-8 48-48 48-18 0-38-7-46-16z"/><path d="m7073 21139c-96-10-133-23-133-44 0-32 46-36 317-23 225 10 266 14 273 28 21 40 0 45-192 47-101 1-220-3-265-8z"/></g><g fill="#44b" transform="matrix(.054411653 0 0 -.054411653 1843.37984853537 1385.37485391264)"><path d="m750 2973c-57-10-88-25-119-57-40-41-55-100-46-179 6-45 12-61 32-77 32-25 35-25 64-1 22 17 24 26 21 89-4 105 24 120 164 87 33-7 119-19 190-25 88-8 134-16 144-26 32-32 8-420-28-456-18-18-126-28-289-28-185 0-206-4-250-52-55-58-58-82-55-363 1-145 7-274 13-293 11-34 51-62 89-62 12 0 35 14 52 31l31 30-6 238c-3 130-3 249 0 264l5 27h112c234 1 363 26 423 82 58 54 98 260 91 463-4 122-7 138-34 191-40 81-79 100-217 108-174 10-361 14-387 9z"/><path d="m3660 2971c-42-9-83-34-103-65-39-59-50-127-54-343-5-206-5-212 18-252 28-50 78-86 143-102 48-12 257-8 370 7l49 7-7-104c-4-57-11-189-16-294-9-177-9-192 8-214 35-47 100-46 136 2 22 29 27 86 42 452 7 191 0 235-44 283-45 48-92 56-241 38-146-18-229-20-265-6l-26 10v162c0 156 8 230 27 249 5 5 99 6 210 2l201-6 5-50c3-39 11-56 31-74 34-29 48-29 80 0 24 20 26 30 28 113 4 147-23 169-218 179-242 11-340 13-374 6z"/><path d="m1565 2945c-14-13-25-32-25-42s-1-297-3-638c-2-677-3-662 55-694 33-19 73-7 101 31 18 24 20 51 29 300 5 150 10 278 12 283 2 6 37 8 97 3 52-3 135-7 186-7 154-2 161-10 143-176-21-189-27-310-18-343 12-45 45-72 86-72 71 0 102 46 102 151 0 33 7 118 16 187 24 190 9 280-58 349-50 52-112 67-263 65-71-1-164-6-205-11-41-4-78-7-81-5-4 2-10 108-13 236-9 286-17 352-47 384-31 33-82 32-114-1z"/><path d="m2542 2944c-55-38-64-109-53-419 6-186 9-215 28-250 50-95 116-125 302-135 75-4 171-5 215-1l78 7-4-178c-2-97-7-181-11-184-4-4-42 1-85 11-104 26-285 27-363 3-106-33-149-107-99-170 26-34 68-41 132-21 74 23 202 20 308-7 182-47 274 5 301 168 12 77 27 831 19 994-7 152-20 181-86 186-88 7-103-51-104-401v-219l-201 4c-197 3-201 3-220 27-18 21-19 42-19 283v260l-29 29c-33 33-74 38-109 13z"/><path d="m2374 1391c-55-34-79-78-79-147 0-51 4-66 27-96 35-45 102-73 153-64 78 15 146 111 131 188-20 108-145 172-232 119z"/><path d="m1853 999c-39-11-66-56-61-101 6-59 69-64 76-6 4 30 34 38 145 38h67v-110c0-135-1-136-132-126-85 6-89 6-113-18-24-25-25-28-25-179 0-162 4-177 47-177 35 0 43 29 43 159v121h73c85 0 141 14 168 41 17 17 19 34 19 169 0 147-1 152-25 175-23 24-30 25-137 24-62 0-128-5-145-10z"/><path d="m2985 1000c-91-16-93-18-104-58-15-51-14-537 0-564 19-36 69-48 204-48 121 0 127 1 151 25l24 24-2 292-3 292-26 19c-31 23-161 33-244 18zm169-86c14-5 16-37 16-250v-245l-102 3-103 3v240 240l40 6c57 9 131 10 149 3z"/><path d="m2351 971c-24-24-29-73-37-372-6-232-6-237 15-258 23-23 29-25 51-11 12 7 16 40 20 150l5 141 35-23c19-13 59-55 88-93 30-39 78-96 108-128 47-51 56-57 74-47 29 16 25 42-15 92-19 24-62 78-95 121-61 77-61 77-33 77 15 0 46 9 69 19 56 26 67 57 62 179-6 156-27 172-220 172-93 0-111-3-127-19zm257-74c16-13 17-168 0-185-7-7-41-12-84-12-40 0-84-4-98-10l-26-10v120 119l98-6c53-3 103-10 110-16z"/></g></svg>