<?xml version="1.0" encoding="UTF-8" standalone="no"?>
<svg
   width="932.30139pt"
   height="693.93512pt"
   viewBox="0 0 932.30137 693.93515"
   version="1.1"
   id="svg161"
   sodipodi:docname="1640bc.svg"
   inkscape:version="1.4.2 (ebf0e940, 2025-05-08)"
   xmlns:inkscape="http://www.inkscape.org/namespaces/inkscape"
   xmlns:sodipodi="http://sodipodi.sourceforge.net/DTD/sodipodi-0.dtd"
   xmlns:xlink="http://www.w3.org/1999/xlink"
   xmlns="http://www.w3.org/2000/svg"
   xmlns:svg="http://www.w3.org/2000/svg"
   xmlns:rdf="http://www.w3.org/1999/02/22-rdf-syntax-ns#"
   xmlns:cc="http://creativecommons.org/ns#"
   xmlns:dc="http://purl.org/dc/elements/1.1/">
  <sodipodi:namedview
     id="namedview161"
     pagecolor="#ffffff"
     bordercolor="#000000"
     borderopacity="0.25"
     inkscape:showpageshadow="2"
     inkscape:pageopacity="0.0"
     inkscape:pagecheckerboard="0"
     inkscape:deskcolor="#d1d1d1"
     inkscape:document-units="pt"
     inkscape:zoom="0.66709655"
     inkscape:cx="508.92183"
     inkscape:cy="403.9895"
     inkscape:current-layer="svg161" />
  <metadata
     id="metadata1">
    <rdf:RDF>
      <cc:Work>
        <dc:type
           rdf:resource="http://purl.org/dc/dcmitype/StillImage" />
        <dc:date>2026-01-08T03:07:30.163768</dc:date>
        <dc:format>image/svg+xml</dc:format>
        <dc:creator>
          <cc:Agent>
            <dc:title>Matplotlib v3.8.2, https://matplotlib.org/</dc:title>
          </cc:Agent>
        </dc:creator>
      </cc:Work>
    </rdf:RDF>
  </metadata>
  <defs
     id="defs1">
    <style
       type="text/css"
       id="style1">*{stroke-linejoin: round; stroke-linecap: butt}</style>
  </defs>
  <g
     id="patch_2"
     transform="matrix(1.2512314,0,0,1.2512314,-9.7732909,56.961543)">
    <path
       d="M 54.595938,468.16 H 705.93094 V 7.2 H 54.595938 Z"
       style="fill:#ffffff"
       id="path2" />
  </g>
  <g
     id="xtick_1"
     transform="matrix(1.2512314,0,0,1.2512314,-9.7732909,56.961543)">
    <g
       id="line2d_1">
      <path
         d="M 54.595938,468.16 V 7.2"
         clip-path="url(#p41f384effb)"
         style="fill:none;stroke:#b0b0b0;stroke-width:0.8;stroke-linecap:square;stroke-opacity:0.55"
         id="path3" />
    </g>
    <g
       id="line2d_2">
      <defs
         id="defs3">
        <path
           id="mda060a665a"
           d="M 0,0 V 3.5"
           style="stroke:#000000;stroke-width:0.8" />
      </defs>
      <g
         id="g3">
        <use
           xlink:href="#mda060a665a"
           x="54.59594"
           y="468.16"
           style="stroke:#000000;stroke-width:0.8"
           id="use3" />
      </g>
    </g>
    <g
       id="text_1">
      <!-- 0 -->
      <g
         transform="matrix(0.17,0,0,-0.17,50.388438,487.16094)"
         id="g4">
        <defs
           id="defs4">
          <path
             id="STIXTwoMath-Regular-30"
             d="M 2995,2029 C 2995,3347 2419,4109 1594,4109 666,4109 173,3264 173,2048 173,915 550,-70 1581,-70 2586,-70 2995,934 2995,2029 Z m -621,-39 C 2374,762 2086,160 1581,160 c -512,0 -794,614 -794,1856 0,1267 282,1875 787,1875 525,0 800,-601 800,-1901 z"
             transform="scale(0.015625)" />
        </defs>
        <use
           xlink:href="#STIXTwoMath-Regular-30"
           id="use4" />
      </g>
    </g>
  </g>
  <g
     id="xtick_2"
     transform="matrix(1.2512314,0,0,1.2512314,-9.7732909,56.961543)">
    <g
       id="line2d_3">
      <path
         d="M 166.89507,468.16 V 7.2"
         clip-path="url(#p41f384effb)"
         style="fill:none;stroke:#b0b0b0;stroke-width:0.8;stroke-linecap:square;stroke-opacity:0.55"
         id="path4" />
    </g>
    <g
       id="line2d_4">
      <g
         id="g5">
        <use
           xlink:href="#mda060a665a"
           x="166.89508"
           y="468.16"
           style="stroke:#000000;stroke-width:0.8"
           id="use5" />
      </g>
    </g>
    <g
       id="text_2">
      <!-- 0,5 -->
      <g
         transform="matrix(0.17,0,0,-0.17,156.39757,487.16094)"
         id="g8">
        <defs
           id="defs5">
          <path
             id="STIXTwoMath-Regular-2c"
             d="m 448,-845 c 256,115 794,333 794,1056 0,352 -173,563 -493,563 C 493,774 352,602 352,397 352,211 454,51 704,51 c 70,0 128,13 198,39 0,-519 -294,-672 -531,-775 z"
             transform="scale(0.015625)" />
          <path
             id="STIXTwoMath-Regular-35"
             d="m 2669,3514 102,518 H 1018 l -397,-1670 77,-96 c 89,0 121,0 288,-13 883,-45 1382,-307 1382,-1107 0,-666 -403,-909 -858,-909 -409,0 -620,313 -876,313 -160,0 -256,-128 -256,-275 0,-237 243,-358 736,-358 1017,0 1721,499 1721,1485 0,1004 -787,1305 -1542,1363 l -301,19 173,730 z"
             transform="scale(0.015625)" />
        </defs>
        <use
           xlink:href="#STIXTwoMath-Regular-30"
           id="use6" />
        <use
           xlink:href="#STIXTwoMath-Regular-2c"
           x="49.499985"
           id="use7" />
        <use
           xlink:href="#STIXTwoMath-Regular-35"
           x="73.999969"
           id="use8" />
      </g>
    </g>
  </g>
  <g
     id="xtick_3"
     transform="matrix(1.2512314,0,0,1.2512314,-9.7732909,56.961543)">
    <g
       id="line2d_5">
      <path
         d="M 279.19421,468.16 V 7.2"
         clip-path="url(#p41f384effb)"
         style="fill:none;stroke:#b0b0b0;stroke-width:0.8;stroke-linecap:square;stroke-opacity:0.55"
         id="path8" />
    </g>
    <g
       id="line2d_6">
      <g
         id="g9">
        <use
           xlink:href="#mda060a665a"
           x="279.19421"
           y="468.16"
           style="stroke:#000000;stroke-width:0.8"
           id="use9" />
      </g>
    </g>
    <g
       id="text_3">
      <!-- 1 -->
      <g
         transform="matrix(0.17,0,0,-0.17,274.98671,487.16094)"
         id="g10">
        <defs
           id="defs9">
          <path
             id="STIXTwoMath-Regular-31"
             d="m 2726,0 v 179 c -588,0 -825,115 -825,429 V 4090 H 1715 L 474,3738 v -212 c 198,64 524,103 652,103 160,0 212,-90 212,-314 V 608 C 1338,288 1114,179 512,179 V 0 Z"
             transform="scale(0.015625)" />
        </defs>
        <use
           xlink:href="#STIXTwoMath-Regular-31"
           id="use10" />
      </g>
    </g>
  </g>
  <g
     id="xtick_4"
     transform="matrix(1.2512314,0,0,1.2512314,-9.7732909,56.961543)">
    <g
       id="line2d_7">
      <path
         d="M 391.49335,468.16 V 7.2"
         clip-path="url(#p41f384effb)"
         style="fill:none;stroke:#b0b0b0;stroke-width:0.8;stroke-linecap:square;stroke-opacity:0.55"
         id="path10" />
    </g>
    <g
       id="line2d_8">
      <g
         id="g11">
        <use
           xlink:href="#mda060a665a"
           x="391.49335"
           y="468.16"
           style="stroke:#000000;stroke-width:0.8"
           id="use11" />
      </g>
    </g>
    <g
       id="text_4">
      <!-- 1,5 -->
      <g
         transform="matrix(0.17,0,0,-0.17,380.99585,487.16094)"
         id="g14">
        <use
           xlink:href="#STIXTwoMath-Regular-31"
           id="use12" />
        <use
           xlink:href="#STIXTwoMath-Regular-2c"
           x="49.499985"
           id="use13" />
        <use
           xlink:href="#STIXTwoMath-Regular-35"
           x="73.999969"
           id="use14" />
      </g>
    </g>
  </g>
  <g
     id="xtick_5"
     transform="matrix(1.2512314,0,0,1.2512314,-9.7732909,56.961543)">
    <g
       id="line2d_9">
      <path
         d="M 503.79249,468.16 V 7.2"
         clip-path="url(#p41f384effb)"
         style="fill:none;stroke:#b0b0b0;stroke-width:0.8;stroke-linecap:square;stroke-opacity:0.55"
         id="path14" />
    </g>
    <g
       id="line2d_10">
      <g
         id="g15">
        <use
           xlink:href="#mda060a665a"
           x="503.79248"
           y="468.16"
           style="stroke:#000000;stroke-width:0.8"
           id="use15" />
      </g>
    </g>
    <g
       id="text_5">
      <!-- 2 -->
      <g
         transform="matrix(0.17,0,0,-0.17,499.58499,487.16094)"
         id="g16">
        <defs
           id="defs15">
          <path
             id="STIXTwoMath-Regular-32"
             d="M 2970,1024 H 2784 C 2637,640 2554,506 2214,506 H 1325 L 877,486 v 32 l 845,800 c 678,685 1043,1127 1043,1696 0,672 -506,1108 -1229,1108 -621,0 -1056,-359 -1254,-980 l 153,-64 c 237,480 519,628 935,628 492,0 800,-308 800,-788 0,-672 -320,-1075 -954,-1728 L 243,218 V 0 h 2522 z"
             transform="scale(0.015625)" />
        </defs>
        <use
           xlink:href="#STIXTwoMath-Regular-32"
           id="use16" />
      </g>
    </g>
  </g>
  <g
     id="xtick_6"
     transform="matrix(1.2512314,0,0,1.2512314,-9.7732909,56.961543)">
    <g
       id="line2d_11">
      <path
         d="M 616.09163,468.16 V 7.2"
         clip-path="url(#p41f384effb)"
         style="fill:none;stroke:#b0b0b0;stroke-width:0.8;stroke-linecap:square;stroke-opacity:0.55"
         id="path16" />
    </g>
    <g
       id="line2d_12">
      <g
         id="g17">
        <use
           xlink:href="#mda060a665a"
           x="616.09161"
           y="468.16"
           style="stroke:#000000;stroke-width:0.8"
           id="use17" />
      </g>
    </g>
    <g
       id="text_6">
      <!-- 2,5 -->
      <g
         transform="matrix(0.17,0,0,-0.17,605.59413,487.16094)"
         id="g20">
        <use
           xlink:href="#STIXTwoMath-Regular-32"
           id="use18" />
        <use
           xlink:href="#STIXTwoMath-Regular-2c"
           x="49.499985"
           id="use19" />
        <use
           xlink:href="#STIXTwoMath-Regular-35"
           x="73.999969"
           id="use20" />
      </g>
    </g>
  </g>
  <g
     id="text_7"
     transform="matrix(1.2512314,0,0,1.2512314,-59.273291,56.961543)">
    <!-- $t$, мс -->
    <g
       transform="matrix(0.17,0,0,-0.17,364.02844,506.90188)"
       id="g25">
      <defs
         id="defs20">
        <path
           id="STIXGeneral-Italic-74"
           d="m 1894,2739 -32,-205 H 1325 L 768,435 q -13,-51 -13,-89 0,-103 96,-103 77,0 179,99 103,100 340,407 l 83,-45 Q 1158,256 969,93 781,-70 538,-70 q -295,0 -295,236 0,64 103,474 L 845,2534 H 365 l -7,39 q 0,115 212,160 160,38 422,246 262,208 429,458 38,57 89,57 58,0 58,-51 0,-32 -6,-45 l -180,-659 z"
           transform="scale(0.015625)" />
        <path
           id="STIXTwoMath-Regular-20"
           transform="scale(0.015625)"
           d="" />
        <path
           id="STIXTwoMath-Regular-43c"
           d="m 4262,0 v 179 c -390,0 -454,83 -454,397 v 1850 c 0,358 96,416 454,416 v 185 H 3206 L 2234,832 h -20 L 1235,3027 H 128 v -185 c 397,0 461,-58 461,-410 V 691 C 589,224 525,179 115,179 V 0 h 1216 v 179 c -371,0 -454,45 -454,512 v 1754 h 25 L 2029,0 h 128 l 1094,2490 h 19 V 576 c 0,-320 -19,-397 -422,-397 V 0 Z"
           transform="scale(0.015625)" />
        <path
           id="STIXTwoMath-Regular-441"
           d="M 2611,947 C 2323,576 2106,416 1690,416 c -660,0 -973,550 -973,1331 0,736 313,1120 832,1120 550,0 339,-729 813,-729 179,0 268,102 268,288 0,371 -371,678 -972,678 C 736,3104 211,2451 211,1446 211,557 691,-64 1491,-64 c 685,0 999,403 1242,922 z"
           transform="scale(0.015625)" />
      </defs>
      <use
         xlink:href="#STIXGeneral-Italic-74"
         transform="translate(0,0.40625)"
         id="use21" />
      <use
         xlink:href="#STIXTwoMath-Regular-2c"
         transform="translate(27.799988,0.40625)"
         id="use22" />
      <use
         xlink:href="#STIXTwoMath-Regular-20"
         transform="translate(52.299973,0.40625)"
         id="use23" />
      <use
         xlink:href="#STIXTwoMath-Regular-43c"
         transform="translate(75.799957,0.40625)"
         id="use24" />
      <use
         xlink:href="#STIXTwoMath-Regular-441"
         transform="translate(145.49994,0.40625)"
         id="use25" />
    </g>
  </g>
  <g
     id="matplotlib.axis_2"
     transform="matrix(1.2512314,0,0,1.2512314,-9.7732909,56.961543)">
    <g
       id="ytick_1">
      <g
         id="line2d_13">
        <path
           d="M 54.595938,435.23429 H 705.93094"
           clip-path="url(#p41f384effb)"
           style="fill:none;stroke:#b0b0b0;stroke-width:0.8;stroke-linecap:square;stroke-opacity:0.55"
           id="path25" />
      </g>
      <g
         id="line2d_14">
        <defs
           id="defs25">
          <path
             id="m7bf864372b"
             d="M 0,0 H -3.5"
             style="stroke:#000000;stroke-width:0.8" />
        </defs>
        <g
           id="g26">
          <use
             xlink:href="#m7bf864372b"
             x="54.59594"
             y="435.23428"
             style="stroke:#000000;stroke-width:0.8"
             id="use26" />
        </g>
      </g>
      <g
         id="text_8">
        <!-- −6 -->
        <g
           transform="matrix(0.17,0,0,-0.17,26.940938,441.23475)"
           id="g28">
          <defs
             id="defs26">
            <path
               id="STIXTwoMath-Regular-2212"
               d="m 4211,1440 v 435 H 397 v -435 z"
               transform="scale(0.015625)" />
            <path
               id="STIXTwoMath-Regular-36"
               d="M 2656,4134 C 1280,4077 288,3187 288,1645 288,704 704,-77 1658,-77 c 806,0 1267,506 1267,1376 0,839 -455,1344 -1152,1344 -333,0 -570,-141 -832,-397 l -45,7 c 160,934 877,1561 1773,1696 z M 2368,1248 c 0,-813 -256,-1101 -685,-1101 -557,0 -819,570 -819,1363 0,557 346,762 717,762 531,0 787,-448 787,-1024 z"
               transform="scale(0.015625)" />
          </defs>
          <use
             xlink:href="#STIXTwoMath-Regular-2212"
             id="use27" />
          <use
             xlink:href="#STIXTwoMath-Regular-36"
             x="71.999985"
             id="use28" />
        </g>
      </g>
    </g>
    <g
       id="ytick_2">
      <g
         id="line2d_15">
        <path
           d="M 54.595938,369.38286 H 705.93094"
           clip-path="url(#p41f384effb)"
           style="fill:none;stroke:#b0b0b0;stroke-width:0.8;stroke-linecap:square;stroke-opacity:0.55"
           id="path28" />
      </g>
      <g
         id="line2d_16">
        <g
           id="g29">
          <use
             xlink:href="#m7bf864372b"
             x="54.59594"
             y="369.38284"
             style="stroke:#000000;stroke-width:0.8"
             id="use29" />
        </g>
      </g>
      <g
         id="text_9">
        <!-- −4 -->
        <g
           transform="matrix(0.17,0,0,-0.17,26.940938,375.38333)"
           id="g31">
          <defs
             id="defs29">
            <path
               id="STIXTwoMath-Regular-34"
               d="m 3078,1011 v 442 H 2426 V 4128 H 2035 L 83,1414 V 1011 H 1856 V 0 h 570 V 1011 Z M 1856,1453 H 435 v 25 l 1395,1952 h 26 z"
               transform="scale(0.015625)" />
          </defs>
          <use
             xlink:href="#STIXTwoMath-Regular-2212"
             id="use30" />
          <use
             xlink:href="#STIXTwoMath-Regular-34"
             x="71.999985"
             id="use31" />
        </g>
      </g>
    </g>
    <g
       id="ytick_3">
      <g
         id="line2d_17">
        <path
           d="M 54.595938,303.53143 H 705.93094"
           clip-path="url(#p41f384effb)"
           style="fill:none;stroke:#b0b0b0;stroke-width:0.8;stroke-linecap:square;stroke-opacity:0.55"
           id="path31" />
      </g>
      <g
         id="line2d_18">
        <g
           id="g32">
          <use
             xlink:href="#m7bf864372b"
             x="54.59594"
             y="303.53143"
             style="stroke:#000000;stroke-width:0.8"
             id="use32" />
        </g>
      </g>
      <g
         id="text_10">
        <!-- −2 -->
        <g
           transform="matrix(0.17,0,0,-0.17,26.940938,309.5319)"
           id="g34">
          <use
             xlink:href="#STIXTwoMath-Regular-2212"
             id="use33" />
          <use
             xlink:href="#STIXTwoMath-Regular-32"
             x="71.999985"
             id="use34" />
        </g>
      </g>
    </g>
    <g
       id="ytick_4">
      <g
         id="line2d_19">
        <path
           d="M 54.595938,237.68 H 705.93094"
           clip-path="url(#p41f384effb)"
           style="fill:none;stroke:#b0b0b0;stroke-width:0.8;stroke-linecap:square;stroke-opacity:0.55"
           id="path34" />
      </g>
      <g
         id="line2d_20">
        <g
           id="g35">
          <use
             xlink:href="#m7bf864372b"
             x="54.59594"
             y="237.67999"
             style="stroke:#000000;stroke-width:0.8"
             id="use35" />
        </g>
      </g>
      <g
         id="text_11">
        <!-- 0 -->
        <g
           transform="matrix(0.17,0,0,-0.17,39.180938,243.68047)"
           id="g36">
          <use
             xlink:href="#STIXTwoMath-Regular-30"
             id="use36" />
        </g>
      </g>
    </g>
    <g
       id="ytick_5">
      <g
         id="line2d_21">
        <path
           d="M 54.595938,171.82857 H 705.93094"
           clip-path="url(#p41f384effb)"
           style="fill:none;stroke:#b0b0b0;stroke-width:0.8;stroke-linecap:square;stroke-opacity:0.55"
           id="path36" />
      </g>
      <g
         id="line2d_22">
        <g
           id="g37">
          <use
             xlink:href="#m7bf864372b"
             x="54.59594"
             y="171.82857"
             style="stroke:#000000;stroke-width:0.8"
             id="use37" />
        </g>
      </g>
      <g
         id="text_12">
        <!-- 2 -->
        <g
           transform="matrix(0.17,0,0,-0.17,39.180938,177.82904)"
           id="g38">
          <use
             xlink:href="#STIXTwoMath-Regular-32"
             id="use38" />
        </g>
      </g>
    </g>
    <g
       id="ytick_6">
      <g
         id="line2d_23">
        <path
           d="M 54.595938,105.97714 H 705.93094"
           clip-path="url(#p41f384effb)"
           style="fill:none;stroke:#b0b0b0;stroke-width:0.8;stroke-linecap:square;stroke-opacity:0.55"
           id="path38" />
      </g>
      <g
         id="line2d_24">
        <g
           id="g39">
          <use
             xlink:href="#m7bf864372b"
             x="54.59594"
             y="105.97714"
             style="stroke:#000000;stroke-width:0.8"
             id="use39" />
        </g>
      </g>
      <g
         id="text_13">
        <!-- 4 -->
        <g
           transform="matrix(0.17,0,0,-0.17,39.180938,111.97761)"
           id="g40">
          <use
             xlink:href="#STIXTwoMath-Regular-34"
             id="use40" />
        </g>
      </g>
    </g>
    <g
       id="ytick_7">
      <g
         id="line2d_25">
        <path
           d="M 54.595938,40.125714 H 705.93094"
           clip-path="url(#p41f384effb)"
           style="fill:none;stroke:#b0b0b0;stroke-width:0.8;stroke-linecap:square;stroke-opacity:0.55"
           id="path40" />
      </g>
      <g
         id="line2d_26">
        <g
           id="g41">
          <use
             xlink:href="#m7bf864372b"
             x="54.59594"
             y="40.125713"
             style="stroke:#000000;stroke-width:0.8"
             id="use41" />
        </g>
      </g>
      <g
         id="text_14">
        <!-- 6 -->
        <g
           transform="matrix(0.17,0,0,-0.17,39.180938,46.126183)"
           id="g42">
          <use
             xlink:href="#STIXTwoMath-Regular-36"
             id="use42" />
        </g>
      </g>
    </g>
    <g
       id="text_15">
      <!-- $q$, мкКл -->
      <g
         transform="matrix(0,-0.17,-0.17,0,19.200938,266.665)"
         id="g49">
        <defs
           id="defs42">
          <path
             id="STIXGeneral-Italic-71"
             d="M 3098,2739 2042,-966 q -13,-52 -13,-71 0,-198 365,-198 h 96 v -103 H 973 v 103 q 294,19 409,96 116,77 173,262 L 2131,979 Q 1754,378 1466,154 1178,-70 800,-70 499,-70 329,128 160,326 160,672 q 0,493 285,998 285,506 723,829 438,323 867,323 403,0 493,-396 l 102,313 z m -666,-441 q 0,160 -109,272 -109,112 -269,112 -262,0 -595,-314 -326,-314 -538,-762 -211,-448 -211,-844 0,-493 340,-493 262,0 524,230 327,282 592,842 266,560 266,957 z"
             transform="scale(0.015625)" />
          <path
             id="STIXTwoMath-Regular-43a"
             d="m 1632,179 c -390,0 -442,51 -442,442 v 813 h 186 c 141,0 230,-13 307,-148 C 1933,870 2240,346 2432,0 h 954 v 173 c -397,13 -423,38 -570,256 -499,755 -614,973 -806,1165 v 12 c 172,192 230,333 300,602 71,294 173,384 282,384 141,0 198,-147 378,-147 185,0 288,128 288,288 0,230 -199,352 -436,352 -480,0 -646,-442 -748,-807 -135,-473 -256,-627 -576,-627 h -308 v 762 c 0,333 45,429 442,429 v 185 H 198 v -185 c 423,0 455,-96 455,-429 V 621 C 653,230 602,179 192,179 V 0 h 1440 z"
             transform="scale(0.015625)" />
          <path
             id="STIXTwoMath-Regular-41a"
             d="m 4307,192 c -473,6 -544,51 -723,352 -563,941 -781,1376 -1062,1613 v 32 c 307,262 377,550 480,947 121,461 249,589 403,589 166,0 243,-173 441,-173 212,0 314,160 314,326 0,276 -224,391 -486,391 -634,0 -826,-634 -960,-1133 -154,-595 -301,-890 -685,-890 h -583 v 1114 c 0,499 20,653 589,653 v 192 H 282 v -192 c 556,0 569,-128 569,-653 V 838 C 851,314 826,192 282,192 V 0 h 1772 v 192 c -556,0 -608,77 -608,646 v 1172 h 308 c 268,0 339,-45 460,-244 308,-518 532,-915 986,-1766 h 1107 z"
             transform="scale(0.015625)" />
          <path
             id="STIXTwoMath-Regular-43b"
             d="M 3334,3027 H 736 v -185 c 403,0 518,-20 518,-340 C 1254,2131 1114,1190 902,717 813,512 717,474 602,474 467,474 384,602 186,602 58,602 -70,499 -70,314 -70,102 102,-58 397,-58 c 352,0 563,212 729,589 263,583 391,1485 436,2253 h 787 V 506 c 0,-269 -83,-327 -448,-327 V 0 h 1427 v 179 c -365,0 -442,64 -442,333 v 2003 c 0,275 96,327 448,327 z"
             transform="scale(0.015625)" />
        </defs>
        <use
           xlink:href="#STIXGeneral-Italic-71"
           transform="translate(0,0.296875)"
           id="use43" />
        <use
           xlink:href="#STIXTwoMath-Regular-2c"
           transform="translate(49.999985,0.296875)"
           id="use44" />
        <use
           xlink:href="#STIXTwoMath-Regular-20"
           transform="translate(74.499969,0.296875)"
           id="use45" />
        <use
           xlink:href="#STIXTwoMath-Regular-43c"
           transform="translate(97.999954,0.296875)"
           id="use46" />
        <use
           xlink:href="#STIXTwoMath-Regular-43a"
           transform="translate(167.69994,0.296875)"
           id="use47" />
        <use
           xlink:href="#STIXTwoMath-Regular-41a"
           transform="translate(219.79993,0.296875)"
           id="use48" />
        <use
           xlink:href="#STIXTwoMath-Regular-43b"
           transform="translate(285.59991,0.296875)"
           id="use49" />
      </g>
    </g>
  </g>
  <g
     id="line2d_27"
     transform="matrix(1.2512314,0,0,1.2512314,-9.7732909,56.961543)">
    <path
       d="m 54.595938,40.125714 1.834629,0.109837 1.834629,0.329389 1.834629,0.548575 1.949294,0.822336 1.949293,1.068053 2.063958,1.397206 2.063958,1.669208 2.178623,2.054427 2.293286,2.483585 2.407951,2.957472 2.407951,3.310126 2.522615,3.839078 2.63728,4.411194 2.866608,5.244081 2.981272,5.935388 3.095937,6.664875 3.325266,7.703525 3.43993,8.533794 3.669253,9.698377 3.89859,10.9309 4.24258,12.5656 4.58658,14.28601 5.15989,16.82216 5.84788,19.84506 7.22385,25.33622 8.3705,29.34962 18.57562,24.8281 9.9758,12.95676 8.37049,10.51568 7.45318,9.01073 6.7652,7.8371 6.30654,6.97225 5.96254,6.26414 5.61856,5.58591 5.38922,5.04835 5.15989,4.53246 4.93057,4.04184 4.8159,3.66316 4.70124,3.29443 4.47191,2.86731 4.35724,2.53702 4.24258,2.22102 4.24258,1.97008 4.12792,1.67182 4.01325,1.39029 4.01325,1.15571 3.89859,0.89589 3.89859,0.67065 3.89858,0.44417 3.89859,0.21683 3.32527,-0.0255 2.40795,-0.26613 2.40795,-0.49725 2.40795,-0.72742 2.40795,-0.95619 2.52262,-1.24508 2.52261,-1.49154 2.63728,-1.81943 2.75194,-2.17752 2.86661,-2.56544 2.98127,-2.98233 3.09594,-3.42691 3.2106,-3.89735 3.32527,-4.39126 3.55459,-5.07528 3.66926,-5.6301 3.89859,-6.38957 4.24258,-7.39362 4.58657,-8.45973 4.93057,-9.56926 5.61855,-11.40847 6.53587,-13.7945 8.82915,-19.19675 17.42898,-37.99074 6.65053,-13.89786 5.61855,-11.24511 5.04523,-9.60747 4.58657,-8.26081 4.24259,-7.1883 3.89858,-6.18392 3.66926,-5.42264 3.55459,-4.86233 3.32527,-4.18218 3.2106,-3.68716 3.09594,-3.21715 2.98127,-2.77442 2.86661,-2.3606 2.75194,-1.97689 2.63728,-1.62393 2.52262,-1.30202 2.52261,-1.0535 2.40795,-0.77177 2.40795,-0.54183 2.40796,-0.31086 2.40795,-0.0793 2.40795,0.15241 2.40795,0.38383 2.40795,0.61453 2.40795,0.84403 2.52261,1.12863 2.52262,1.37636 2.63728,1.70066 2.63728,1.96436 2.75194,2.32602 2.86661,2.71675 2.98127,3.13561 3.09594,3.58121 3.2106,4.0516 3.43993,4.70709 3.5546,5.24271 3.78392,5.97958 4.01325,6.76023 4.35724,7.78599 4.70124,8.86692 5.1599,10.21381 5.96254,12.316 7.22385,15.45947 12.38375,27.13911 10.31979,22.38593 6.7652,14.15447 5.61855,11.25904 5.04523,9.6226 4.58657,8.2766 4.24258,7.20455 4.01325,6.37607 3.66926,5.42654 3.5546,4.86632 3.32526,4.1861 3.21061,3.69109 3.09593,3.22108 2.98127,2.77829 2.86661,2.36443 2.75195,1.98062 2.63728,1.62756 2.52261,1.30554 2.52262,1.05707 2.40795,0.77518 2.40795,0.54528 2.40795,0.31431 2.06396,0.0851 v 0"
       clip-path="url(#p41f384effb)"
       style="fill:none;stroke:#1f77b4;stroke-width:1.5;stroke-linecap:square"
       id="path49" />
  </g>
  <g
     id="line2d_28"
     transform="matrix(1.2512314,0,0,1.2512314,-9.7732909,56.961543)">
    <path
       d="m 54.595938,237.68 86.456902,0.0883 18.0023,40.13127 9.51714,20.66564 8.0265,16.90742 7.10919,14.46111 6.4212,12.56782 5.96255,11.19216 5.61855,10.07983 5.27456,9.01472 5.04523,8.18753 4.8159,7.39426 4.58658,6.63996 4.35724,5.92848 4.24258,5.40365 4.12792,4.89674 3.89858,4.28847 3.78393,3.84219 3.66925,3.41805 3.5546,3.01688 3.43993,2.63923 3.43993,2.35958 3.32526,2.01186 3.21061,1.68887 3.2106,1.43752 3.09593,1.14643 3.09594,0.90964 2.98127,0.65115 2.98128,0.42986 2.98127,0.2081 4.24258,0.0212 h 342.73168 v 0"
       clip-path="url(#p41f384effb)"
       style="fill:none;stroke:#1f77b4;stroke-width:1.5;stroke-dasharray:6, 3.075;stroke-dashoffset:0"
       id="path50" />
  </g>
  <g
     id="line2d_29"
     transform="matrix(1.2512314,0,0,1.2512314,-9.7732909,56.961543)">
    <path
       d="M 141.01348,468.16 V 7.2"
       clip-path="url(#p41f384effb)"
       style="fill:none;stroke:#808080;stroke-width:1.5;stroke-dasharray:1.5, 1.65;stroke-dashoffset:0"
       id="path51" />
  </g>
  <g
     id="patch_3"
     transform="matrix(1.2512314,0,0,1.2512314,-9.7732909,56.961543)">
    <path
       d="M 54.595938,468.16 V 7.2"
       style="fill:none;stroke:#000000;stroke-width:0.8;stroke-linecap:square;stroke-linejoin:miter"
       id="path52" />
  </g>
  <g
     id="patch_4"
     transform="matrix(1.2512314,0,0,1.2512314,-9.7732909,56.961543)">
    <path
       d="M 705.93094,468.16 V 7.2"
       style="fill:none;stroke:#000000;stroke-width:0.8;stroke-linecap:square;stroke-linejoin:miter"
       id="path53" />
  </g>
  <g
     id="patch_5"
     transform="matrix(1.2512314,0,0,1.2512314,-9.7732909,56.961543)">
    <path
       d="M 54.595938,468.16 H 705.93094"
       style="fill:none;stroke:#000000;stroke-width:0.8;stroke-linecap:square;stroke-linejoin:miter"
       id="path54" />
  </g>
  <g
     id="patch_6"
     transform="matrix(1.2512314,0,0,1.2512314,-9.7732909,56.961543)">
    <path
       d="M 54.595938,7.2 H 705.93094"
       style="fill:none;stroke:#000000;stroke-width:0.8;stroke-linecap:square;stroke-linejoin:miter"
       id="path55" />
  </g>
  <g
     id="legend_1"
     transform="matrix(1.2512314,0,0,1.2512314,-9.7732909,56.961543)">
    <g
       id="patch_7">
      <path
         d="m 432.74094,143.16281 h 261.29 q 3.4,0 3.4,-3.4 V 19.1 q 0,-3.4 -3.4,-3.4 h -261.29 q -3.4,0 -3.4,3.4 v 120.66281 q 0,3.4 3.4,3.4 z"
         style="opacity:0.8;fill:#ffffff;stroke:#cccccc;stroke-linejoin:miter"
         id="path56" />
    </g>
    <g
       id="line2d_30">
      <path
         d="m 436.14094,29.13 h 17 17"
         style="fill:none;stroke:#1f77b4;stroke-width:1.5;stroke-linecap:square"
         id="path57" />
    </g>
    <g
       id="text_16">
      <!-- $q_1(t)$ (верхняя пластина $C_1$) -->
      <g
         transform="matrix(0.17,0,0,-0.17,483.74094,35.08)"
         id="g83">
        <defs
           id="defs57">
          <path
             id="STIXGeneral-Regular-31"
             d="M 2522,0 H 755 v 96 q 352,19 480,131 128,112 128,381 v 2874 q 0,313 -192,313 -89,0 -288,-77 l -173,-64 v 90 l 1146,582 58,-19 V 486 q 0,-211 128,-301 128,-89 480,-89 z"
             transform="scale(0.015625)" />
          <path
             id="STIXGeneral-Regular-28"
             d="m 1946,-1030 -77,-103 Q 1126,-710 716,32 307,774 307,1613 q 0,1773 1581,2713 l 58,-102 Q 1293,3667 1075,3126 858,2586 858,1632 858,685 1082,96 q 224,-589 864,-1126 z"
             transform="scale(0.015625)" />
          <path
             id="STIXGeneral-Regular-29"
             d="m 186,4224 76,102 q 730,-435 1146,-1178 416,-742 416,-1567 0,-1747 -1581,-2714 l -57,103 q 659,544 873,1084 215,541 215,1508 0,972 -215,1558 -214,586 -873,1104 z"
             transform="scale(0.015625)" />
          <path
             id="STIXTwoMath-Regular-28"
             d="M 288,1728 C 288,301 960,-717 1990,-1254 l 103,166 C 1158,-454 813,422 813,1728 c 0,1306 345,2182 1280,2816 l -103,166 C 960,4173 288,3155 288,1728 Z"
             transform="scale(0.015625)" />
          <path
             id="STIXTwoMath-Regular-432"
             d="m 3002,800 c 0,531 -468,704 -794,774 v 26 c 410,90 691,307 691,717 0,461 -390,710 -1235,710 H 211 v -185 c 391,0 442,-39 442,-410 V 582 C 653,237 582,179 211,179 V 0 h 1607 c 742,0 1184,256 1184,800 z m -1805,627 h 384 c 422,0 825,-89 825,-627 0,-544 -435,-570 -819,-570 -147,0 -262,0 -390,13 z m 0,243 v 1108 c 102,12 217,12 294,12 621,0 845,-147 845,-524 0,-404 -186,-596 -787,-596 z"
             transform="scale(0.015625)" />
          <path
             id="STIXTwoMath-Regular-435"
             d="M 2656,915 C 2451,646 2253,416 1734,416 1222,416 736,819 736,1702 H 2758 C 2726,2598 2266,3104 1568,3104 819,3104 218,2592 218,1523 218,493 813,-64 1581,-64 c 659,0 966,403 1197,890 z M 730,1939 c 51,595 307,909 742,909 454,0 666,-435 685,-909 z"
             transform="scale(0.015625)" />
          <path
             id="STIXTwoMath-Regular-440"
             d="M 1126,3085 H 966 L 160,2906 v -186 c 0,0 122,13 205,13 211,0 243,-83 243,-327 V -762 c 0,-358 -64,-467 -467,-467 v -179 h 1619 v 186 c -499,0 -621,83 -621,499 v 838 h 26 c 185,-128 403,-179 646,-179 768,0 1402,646 1402,1734 0,839 -442,1434 -1075,1434 -378,0 -685,-198 -992,-557 h -20 z m 13,-807 c 122,160 397,391 736,391 474,0 755,-371 755,-1178 0,-889 -339,-1305 -787,-1305 -358,0 -582,288 -704,422 z"
             transform="scale(0.015625)" />
          <path
             id="STIXTwoMath-Regular-445"
             d="m 3085,0 v 186 c -237,0 -333,115 -512,371 l -787,1113 678,871 c 147,185 294,301 512,301 v 185 H 1920 v -179 c 205,0 262,-58 262,-154 0,-102 -57,-198 -230,-435 l -301,-435 h -25 l -154,282 c -218,358 -333,492 -333,595 0,96 103,147 307,147 v 179 H 70 v -185 c 263,0 340,-64 564,-384 L 1299,1504 531,506 C 320,256 205,186 -13,186 V 0 h 1069 v 186 c -211,0 -288,25 -288,96 0,51 90,166 154,268 l 524,756 h 26 l 128,-224 403,-621 c 32,-51 45,-90 45,-135 0,-108 -77,-140 -301,-140 V 0 Z"
             transform="scale(0.015625)" />
          <path
             id="STIXTwoMath-Regular-43d"
             d="m 1190,2374 c 0,365 26,468 436,468 v 185 H 192 v -185 c 429,0 461,-77 461,-468 V 621 C 653,237 595,179 192,179 V 0 h 1434 v 179 c -410,0 -436,58 -436,461 v 813 H 2675 V 640 c 0,-403 -13,-461 -429,-461 V 0 h 1434 v 179 c -416,0 -461,64 -461,461 v 1734 c 0,365 7,468 461,468 v 185 H 2246 v -185 c 416,0 429,-103 429,-468 V 1683 H 1190 Z"
             transform="scale(0.015625)" />
          <path
             id="STIXTwoMath-Regular-44f"
             d="m 390,2259 c 0,-531 436,-717 839,-787 v -19 C 1043,1331 922,1126 691,691 442,224 384,179 -32,173 V 0 h 998 c 276,595 570,1146 653,1261 83,115 173,141 378,141 h 128 V 602 c 0,-378 -39,-423 -461,-423 V 0 h 1472 v 179 c -384,0 -474,39 -474,423 v 1907 c 0,288 77,333 455,333 v 198 H 1670 C 1005,3040 390,2886 390,2259 Z m 1735,-640 h -218 c -525,0 -947,186 -947,640 0,339 250,551 832,551 115,0 256,0 333,-13 z"
             transform="scale(0.015625)" />
          <path
             id="STIXTwoMath-Regular-43f"
             d="m 192,2842 c 429,0 461,-77 461,-468 V 621 C 653,237 595,179 192,179 V 0 h 1434 v 179 c -410,0 -436,58 -436,461 V 2784 H 2592 V 640 c 0,-403 -19,-461 -429,-461 V 0 h 1427 v 179 c -416,0 -460,64 -460,461 v 1734 c 0,365 6,468 460,468 v 185 H 192 Z"
             transform="scale(0.015625)" />
          <path
             id="STIXTwoMath-Regular-430"
             d="m 1971,397 c 39,-282 103,-429 384,-429 327,0 480,134 691,442 l -96,102 c -89,-96 -179,-160 -300,-160 -135,0 -192,51 -192,314 v 1452 c 0,666 -263,986 -960,986 -698,0 -1127,-346 -1127,-704 0,-211 141,-307 269,-307 179,0 282,96 282,294 0,384 64,519 428,519 384,0 576,-212 576,-768 V 1856 C 1376,1683 243,1517 243,672 c 0,-410 269,-717 762,-717 409,0 640,179 941,442 z m -45,192 C 1709,410 1478,307 1267,307 992,307 806,506 806,826 c 0,499 538,672 1120,819 z"
             transform="scale(0.015625)" />
          <path
             id="STIXTwoMath-Regular-442"
             d="m 2867,1965 -38,1062 H 96 L 58,1965 h 172 c 122,608 218,825 724,825 h 236 V 640 C 1190,230 1107,179 691,179 V 0 h 1536 v 179 c -416,0 -499,51 -499,461 v 2150 h 250 c 499,0 595,-211 716,-825 z"
             transform="scale(0.015625)" />
          <path
             id="STIXTwoMath-Regular-438"
             d="M 3680,3027 H 2285 v -185 c 345,0 416,-45 416,-352 L 1203,864 h -13 v 1562 c 0,364 45,416 423,416 v 185 H 211 v -185 c 397,0 442,-58 442,-404 V 582 C 653,243 563,179 205,179 V 0 h 1408 v 179 c -346,0 -423,83 -423,339 l 1498,1613 h 13 V 582 c 0,-339 -77,-403 -416,-403 V 0 h 1389 v 179 c -327,0 -429,64 -429,403 v 1812 c 0,396 70,448 435,448 z"
             transform="scale(0.015625)" />
          <path
             id="STIXGeneral-Italic-43"
             d="m 4410,4250 -237,-1280 -115,19 q -116,1043 -954,1043 -698,0 -1274,-621 -339,-358 -515,-870 -176,-512 -176,-1056 0,-1312 1120,-1312 397,0 726,166 330,167 740,595 l 115,-96 Q 3411,333 2998,109 2586,-115 2093,-115 1344,-115 883,329 422,774 422,1555 q 0,659 326,1257 327,599 871,983 653,467 1402,467 441,0 749,-108 128,-45 262,-45 173,0 243,141 z"
             transform="scale(0.015625)" />
          <path
             id="STIXTwoMath-Regular-29"
             d="m 1997,1728 c 0,1427 -672,2445 -1703,2982 L 192,4544 C 1126,3910 1472,3034 1472,1728 1472,422 1126,-454 192,-1088 l 102,-166 c 1031,537 1703,1555 1703,2982 z"
             transform="scale(0.015625)" />
        </defs>
        <use
           xlink:href="#STIXGeneral-Italic-71"
           transform="translate(0,0.40625)"
           id="use57" />
        <use
           xlink:href="#STIXGeneral-Regular-31"
           transform="matrix(0.7,0,0,0.7,49.999985,-12.821875)"
           id="use58" />
        <use
           xlink:href="#STIXGeneral-Regular-28"
           transform="translate(89.409349,0.40625)"
           id="use59" />
        <use
           xlink:href="#STIXGeneral-Italic-74"
           transform="translate(122.70934,0.40625)"
           id="use60" />
        <use
           xlink:href="#STIXGeneral-Regular-29"
           transform="translate(150.50932,0.40625)"
           id="use61" />
        <use
           xlink:href="#STIXTwoMath-Regular-20"
           transform="translate(183.80931,0.40625)"
           id="use62" />
        <use
           xlink:href="#STIXTwoMath-Regular-28"
           transform="translate(207.3093,0.40625)"
           id="use63" />
        <use
           xlink:href="#STIXTwoMath-Regular-432"
           transform="translate(243.00929,0.40625)"
           id="use64" />
        <use
           xlink:href="#STIXTwoMath-Regular-435"
           transform="translate(293.50928,0.40625)"
           id="use65" />
        <use
           xlink:href="#STIXTwoMath-Regular-440"
           transform="translate(339.90927,0.40625)"
           id="use66" />
        <use
           xlink:href="#STIXTwoMath-Regular-445"
           transform="translate(393.60927,0.40625)"
           id="use67" />
        <use
           xlink:href="#STIXTwoMath-Regular-43d"
           transform="translate(441.50926,0.40625)"
           id="use68" />
        <use
           xlink:href="#STIXTwoMath-Regular-44f"
           transform="translate(502.00925,0.40625)"
           id="use69" />
        <use
           xlink:href="#STIXTwoMath-Regular-44f"
           transform="translate(553.80924,0.40625)"
           id="use70" />
        <use
           xlink:href="#STIXTwoMath-Regular-20"
           transform="translate(605.60922,0.40625)"
           id="use71" />
        <use
           xlink:href="#STIXTwoMath-Regular-43f"
           transform="translate(629.10921,0.40625)"
           id="use72" />
        <use
           xlink:href="#STIXTwoMath-Regular-43b"
           transform="translate(688.2092,0.40625)"
           id="use73" />
        <use
           xlink:href="#STIXTwoMath-Regular-430"
           transform="translate(743.50919,0.40625)"
           id="use74" />
        <use
           xlink:href="#STIXTwoMath-Regular-441"
           transform="translate(791.50917,0.40625)"
           id="use75" />
        <use
           xlink:href="#STIXTwoMath-Regular-442"
           transform="translate(836.10916,0.40625)"
           id="use76" />
        <use
           xlink:href="#STIXTwoMath-Regular-438"
           transform="translate(881.70915,0.40625)"
           id="use77" />
        <use
           xlink:href="#STIXTwoMath-Regular-43d"
           transform="translate(942.60915,0.40625)"
           id="use78" />
        <use
           xlink:href="#STIXTwoMath-Regular-430"
           transform="translate(1003.1091,0.40625)"
           id="use79" />
        <use
           xlink:href="#STIXTwoMath-Regular-20"
           transform="translate(1051.1091,0.40625)"
           id="use80" />
        <use
           xlink:href="#STIXGeneral-Italic-43"
           transform="translate(1074.6091,0.40625)"
           id="use81" />
        <use
           xlink:href="#STIXGeneral-Regular-31"
           transform="matrix(0.7,0,0,0.7,1141.3091,-12.821875)"
           id="use82" />
        <use
           xlink:href="#STIXTwoMath-Regular-29"
           transform="translate(1180.7185,0.40625)"
           id="use83" />
      </g>
    </g>
    <g
       id="line2d_31">
      <path
         d="m 436.14094,53.95 h 17 17"
         style="fill:none;stroke:#1f77b4;stroke-width:1.5;stroke-dasharray:6, 3.075;stroke-dashoffset:0"
         id="path83" />
    </g>
    <g
       id="text_17">
      <!-- $q_2(t)$ (верхняя пластина $C_2$) -->
      <g
         transform="matrix(0.17,0,0,-0.17,483.74094,59.9)"
         id="g110">
        <defs
           id="defs83">
          <path
             id="STIXGeneral-Regular-32"
             d="M 3034,877 2688,0 H 186 v 77 l 1139,1209 q 448,468 640,858 192,390 192,806 0,429 -237,666 -237,237 -653,237 -345,0 -547,-180 -202,-179 -394,-652 l -134,32 q 109,595 438,934 330,339 893,339 531,0 857,-320 327,-320 327,-806 0,-723 -819,-1587 L 832,486 h 1498 q 211,0 335,83 125,84 279,346 z"
             transform="scale(0.015625)" />
        </defs>
        <use
           xlink:href="#STIXGeneral-Italic-71"
           transform="translate(0,0.40625)"
           id="use84" />
        <use
           xlink:href="#STIXGeneral-Regular-32"
           transform="matrix(0.7,0,0,0.7,49.999985,-12.821875)"
           id="use85" />
        <use
           xlink:href="#STIXGeneral-Regular-28"
           transform="translate(89.409349,0.40625)"
           id="use86" />
        <use
           xlink:href="#STIXGeneral-Italic-74"
           transform="translate(122.70934,0.40625)"
           id="use87" />
        <use
           xlink:href="#STIXGeneral-Regular-29"
           transform="translate(150.50932,0.40625)"
           id="use88" />
        <use
           xlink:href="#STIXTwoMath-Regular-20"
           transform="translate(183.80931,0.40625)"
           id="use89" />
        <use
           xlink:href="#STIXTwoMath-Regular-28"
           transform="translate(207.3093,0.40625)"
           id="use90" />
        <use
           xlink:href="#STIXTwoMath-Regular-432"
           transform="translate(243.00929,0.40625)"
           id="use91" />
        <use
           xlink:href="#STIXTwoMath-Regular-435"
           transform="translate(293.50928,0.40625)"
           id="use92" />
        <use
           xlink:href="#STIXTwoMath-Regular-440"
           transform="translate(339.90927,0.40625)"
           id="use93" />
        <use
           xlink:href="#STIXTwoMath-Regular-445"
           transform="translate(393.60927,0.40625)"
           id="use94" />
        <use
           xlink:href="#STIXTwoMath-Regular-43d"
           transform="translate(441.50926,0.40625)"
           id="use95" />
        <use
           xlink:href="#STIXTwoMath-Regular-44f"
           transform="translate(502.00925,0.40625)"
           id="use96" />
        <use
           xlink:href="#STIXTwoMath-Regular-44f"
           transform="translate(553.80924,0.40625)"
           id="use97" />
        <use
           xlink:href="#STIXTwoMath-Regular-20"
           transform="translate(605.60922,0.40625)"
           id="use98" />
        <use
           xlink:href="#STIXTwoMath-Regular-43f"
           transform="translate(629.10921,0.40625)"
           id="use99" />
        <use
           xlink:href="#STIXTwoMath-Regular-43b"
           transform="translate(688.2092,0.40625)"
           id="use100" />
        <use
           xlink:href="#STIXTwoMath-Regular-430"
           transform="translate(743.50919,0.40625)"
           id="use101" />
        <use
           xlink:href="#STIXTwoMath-Regular-441"
           transform="translate(791.50917,0.40625)"
           id="use102" />
        <use
           xlink:href="#STIXTwoMath-Regular-442"
           transform="translate(836.10916,0.40625)"
           id="use103" />
        <use
           xlink:href="#STIXTwoMath-Regular-438"
           transform="translate(881.70915,0.40625)"
           id="use104" />
        <use
           xlink:href="#STIXTwoMath-Regular-43d"
           transform="translate(942.60915,0.40625)"
           id="use105" />
        <use
           xlink:href="#STIXTwoMath-Regular-430"
           transform="translate(1003.1091,0.40625)"
           id="use106" />
        <use
           xlink:href="#STIXTwoMath-Regular-20"
           transform="translate(1051.1091,0.40625)"
           id="use107" />
        <use
           xlink:href="#STIXGeneral-Italic-43"
           transform="translate(1074.6091,0.40625)"
           id="use108" />
        <use
           xlink:href="#STIXGeneral-Regular-32"
           transform="matrix(0.7,0,0,0.7,1141.3091,-12.821875)"
           id="use109" />
        <use
           xlink:href="#STIXTwoMath-Regular-29"
           transform="translate(1180.7185,0.40625)"
           id="use110" />
      </g>
    </g>
    <g
       id="line2d_32">
      <path
         d="m 436.14094,78.190937 h 17 17"
         style="fill:none;stroke:#808080;stroke-width:1.5;stroke-dasharray:1.5, 1.65;stroke-dashoffset:0"
         id="path110" />
    </g>
    <g
       id="text_18">
      <!-- диод открылся -->
      <g
         transform="matrix(0.17,0,0,-0.17,483.74094,84.140937)"
         id="g123">
        <defs
           id="defs110">
          <path
             id="STIXTwoMath-Regular-434"
             d="m 2330,0 c 441,0 486,-205 659,-1126 h 211 l 32,1344 -256,6 c -186,6 -269,64 -269,378 v 1728 c 0,19 0,38 0,64 0,358 0,448 448,448 v 185 H 557 v -185 c 441,0 499,-84 499,-372 C 1056,1683 736,346 141,237 83,224 45,224 0,218 L 19,-1126 H 230 C 403,-211 442,0 890,0 Z M 2170,243 H 710 v 26 c 487,704 608,1625 621,2515 h 839 z"
             transform="scale(0.015625)" />
          <path
             id="STIXTwoMath-Regular-43e"
             d="M 1651,3104 C 787,3104 218,2477 218,1549 218,512 755,-64 1651,-64 c 832,0 1421,563 1421,1638 0,948 -544,1530 -1421,1530 z m -25,-243 c 569,0 857,-531 857,-1319 0,-1043 -281,-1350 -806,-1350 -551,-6 -864,422 -864,1440 0,819 326,1229 813,1229 z"
             transform="scale(0.015625)" />
          <path
             id="STIXTwoMath-Regular-44b"
             d="m 211,2842 c 403,0 442,-52 442,-436 V 614 C 653,269 595,179 205,179 V 0 h 1395 c 864,0 1286,358 1286,902 0,519 -371,852 -1171,852 -185,0 -377,-20 -525,-26 v 678 c 0,378 39,436 461,436 v 185 H 211 Z m 3795,-468 c 0,365 39,468 442,468 v 185 H 3040 v -185 c 429,0 435,-77 435,-468 V 621 c 0,-384 -32,-442 -435,-442 V 0 h 1408 v 179 c -410,0 -442,58 -442,461 z M 1190,1498 c 90,6 205,19 333,19 474,0 781,-186 781,-653 0,-525 -416,-634 -774,-634 -122,0 -218,0 -340,13 z"
             transform="scale(0.015625)" />
        </defs>
        <use
           xlink:href="#STIXTwoMath-Regular-434"
           id="use111" />
        <use
           xlink:href="#STIXTwoMath-Regular-438"
           x="52.999985"
           id="use112" />
        <use
           xlink:href="#STIXTwoMath-Regular-43e"
           x="113.89998"
           id="use113" />
        <use
           xlink:href="#STIXTwoMath-Regular-434"
           x="165.29997"
           id="use114" />
        <use
           xlink:href="#STIXTwoMath-Regular-20"
           x="218.29996"
           id="use115" />
        <use
           xlink:href="#STIXTwoMath-Regular-43e"
           x="241.79994"
           id="use116" />
        <use
           xlink:href="#STIXTwoMath-Regular-442"
           x="293.19995"
           id="use117" />
        <use
           xlink:href="#STIXTwoMath-Regular-43a"
           x="338.79993"
           id="use118" />
        <use
           xlink:href="#STIXTwoMath-Regular-440"
           x="390.89993"
           id="use119" />
        <use
           xlink:href="#STIXTwoMath-Regular-44b"
           x="444.59991"
           id="use120" />
        <use
           xlink:href="#STIXTwoMath-Regular-43b"
           x="517.3999"
           id="use121" />
        <use
           xlink:href="#STIXTwoMath-Regular-441"
           x="572.69989"
           id="use122" />
        <use
           xlink:href="#STIXTwoMath-Regular-44f"
           x="617.29987"
           id="use123" />
      </g>
    </g>
    <g
       id="line2d_33">
      <path
         d="m 436.14094,102.43188 h 17 17"
         style="fill:none;stroke:#808080;stroke-width:1.5;stroke-dasharray:1.5, 0.9, 1.5, 6;stroke-dashoffset:0"
         id="path123" />
    </g>
    <g
       id="text_19">
      <!-- первое $I=0$ -->
      <g
         transform="matrix(0.17,0,0,-0.17,483.74094,108.38187)"
         id="g133">
        <defs
           id="defs123">
          <path
             id="STIXGeneral-Italic-49"
             d="m 2458,4179 v -102 q -269,-32 -356,-116 -86,-83 -169,-377 L 1165,838 q -96,-339 -96,-486 0,-128 80,-173 80,-45 361,-77 V 0 H -51 v 102 q 269,52 368,135 99,83 169,345 l 768,2823 q 84,294 84,397 0,128 -103,195 -102,67 -358,80 v 102 z"
             transform="scale(0.015625)" />
          <path
             id="STIXGeneral-Regular-3d"
             d="M 4077,2048 H 307 v 422 h 3770 z m 0,-1280 H 307 v 422 h 3770 z"
             transform="scale(0.015625)" />
          <path
             id="STIXGeneral-Regular-30"
             d="m 3046,2112 q 0,-429 -83,-810 Q 2880,922 2717,602 2554,282 2266,96 1978,-90 1600,-90 1210,-90 915,108 621,307 461,640 301,973 227,1350 q -73,378 -73,800 0,596 147,1072 147,477 489,790 343,314 836,314 627,0 1023,-614 397,-614 397,-1600 z m -614,-32 q 0,1011 -215,1545 -214,535 -630,535 -397,0 -608,-538 Q 768,3085 768,2106 768,1120 979,598 1190,77 1600,77 q 403,0 617,521 215,522 215,1482 z"
             transform="scale(0.015625)" />
        </defs>
        <use
           xlink:href="#STIXTwoMath-Regular-43f"
           transform="translate(0,0.40625)"
           id="use124" />
        <use
           xlink:href="#STIXTwoMath-Regular-435"
           transform="translate(59.099991,0.40625)"
           id="use125" />
        <use
           xlink:href="#STIXTwoMath-Regular-440"
           transform="translate(105.49998,0.40625)"
           id="use126" />
        <use
           xlink:href="#STIXTwoMath-Regular-432"
           transform="translate(159.19998,0.40625)"
           id="use127" />
        <use
           xlink:href="#STIXTwoMath-Regular-43e"
           transform="translate(209.69997,0.40625)"
           id="use128" />
        <use
           xlink:href="#STIXTwoMath-Regular-435"
           transform="translate(261.09996,0.40625)"
           id="use129" />
        <use
           xlink:href="#STIXTwoMath-Regular-20"
           transform="translate(307.49995,0.40625)"
           id="use130" />
        <use
           xlink:href="#STIXGeneral-Italic-49"
           transform="translate(330.99994,0.40625)"
           id="use131" />
        <use
           xlink:href="#STIXGeneral-Regular-3d"
           transform="translate(378.73992,0.40625)"
           id="use132" />
        <use
           xlink:href="#STIXGeneral-Regular-30"
           transform="translate(461.6799,0.40625)"
           id="use133" />
      </g>
    </g>
    <g
       id="line2d_34">
      <path
         d="m 436.14094,126.67281 h 17 17"
         style="fill:none;stroke:#ff69b4;stroke-width:2.8;stroke-linecap:square"
         id="path133" />
    </g>
    <g
       id="text_20">
      <!-- $I(t)$ -->
      <g
         transform="matrix(0.17,0,0,-0.17,483.74094,132.62281)"
         id="g137">
        <use
           xlink:href="#STIXGeneral-Italic-49"
           transform="translate(0,0.40625)"
           id="use134" />
        <use
           xlink:href="#STIXGeneral-Regular-28"
           transform="translate(33.299988,0.40625)"
           id="use135" />
        <use
           xlink:href="#STIXGeneral-Italic-74"
           transform="translate(66.599976,0.40625)"
           id="use136" />
        <use
           xlink:href="#STIXGeneral-Regular-29"
           transform="translate(94.399963,0.40625)"
           id="use137" />
      </g>
    </g>
  </g>
  <g
     id="line2d_36"
     transform="matrix(1.2512314,0,0,1.2512314,-9.7732909,56.961543)">
    <path
       d="m 54.595938,237.68 12.72774,51.77941 6.765195,26.57053 5.618553,21.18434 4.930566,17.74301 4.471908,15.2821 4.127916,13.3318 3.783923,11.50137 3.554591,10.1273 3.43993,9.13539 3.2106,7.90412 2.98128,6.77743 2.8666,5.98724 2.75195,5.24403 2.63728,4.55017 2.52261,3.90719 2.40796,3.31587 2.29328,2.77638 2.17862,2.28822 2.06396,1.85051 1.94929,1.46183 1.9493,1.18225 1.83463,0.85598 1.83463,0.60606 1.71996,0.3406 1.71997,0.12002 2.75194,-0.10001 2.86661,-0.32951 2.86661,-0.55898 2.86661,-0.78786 2.8666,-1.01595 2.98128,-1.29744 2.98127,-1.54159 3.09594,-1.85747 3.09593,-2.11674 3.2106,-2.46627 3.32527,-2.84208 3.43993,-3.24406 3.43993,-3.54848 3.55459,-3.98104 3.66926,-4.43798 3.89859,-5.07281 4.01325,-5.59682 4.12792,-6.14174 4.35724,-6.89233 4.47191,-7.49417 4.70124,-8.3175 4.93056,-9.1822 5.1599,-10.08283 5.50389,-11.25187 5.84788,-12.47073 6.30653,-13.98457 6.87986,-15.81078 7.68251,-18.22873 8.94382,-21.81212 11.92509,-29.71274 19.37827,-48.32736 6.65053,-15.89027 5.61856,-12.8584 4.93056,-10.74369 4.47191,-9.23163 4.12792,-8.03397 3.89859,-7.11591 3.66925,-6.24602 3.43993,-5.43291 3.32527,-4.84249 3.09594,-4.13106 2.98127,-3.6215 2.86661,-3.14225 2.75194,-2.69498 2.63728,-2.28072 2.52261,-1.9001 2.52262,-1.62084 2.40795,-1.28352 2.29329,-0.98068 2.29328,-0.74313 2.29329,-0.504289 2.17862,-0.25704 2.17863,-0.04029 2.17862,0.176532 2.17862,0.393072 2.29329,0.647015 2.29328,0.88514 2.29329,1.12173 2.40795,1.43029 2.40795,1.68624 2.52262,2.03753 2.63728,2.42204 2.75194,2.83951 2.86661,3.28927 2.98127,3.77012 3.09594,4.28032 3.2106,4.81754 3.43993,5.57106 3.66926,6.38523 3.78392,7.03397 4.12792,8.15486 4.4719,9.34943 4.81591,10.59839 5.38922,12.41355 6.30654,15.11392 8.14117,20.13874 21.09823,52.48425 6.30654,14.92914 5.38922,12.20647 4.81591,10.37669 4.4719,9.1141 4.12792,7.91385 3.89859,6.99282 3.66926,6.12219 3.43993,5.31026 3.2106,4.56267 3.09593,4.0249 2.98128,3.51595 2.8666,3.03799 2.75195,2.59258 2.63728,2.18072 2.52261,1.80296 2.40795,1.45937 2.40796,1.20096 2.29328,0.90144 2.29329,0.6634 2.29329,0.42422 2.17862,0.18078 2.17862,-0.036 2.17862,-0.25279 2.17862,-0.46915 2.29329,-0.72677 2.29329,-0.96443 2.29328,-1.2004 2.40796,-1.51211 2.52261,-1.85753 2.52261,-2.13345 2.63729,-2.52057 2.75194,-2.94019 2.86661,-3.39153 2.98127,-3.87337 3.09594,-4.38388 3.32526,-5.1032 3.43993,-5.68983 3.66926,-6.50462 3.89859,-7.37195 4.12791,-8.28264 4.47191,-9.47338 4.93057,-10.97509 5.50389,-12.8028 6.53586,-15.78764 8.94382,-22.24462 3.09594,-7.77795 v 0"
       clip-path="url(#p41f384effb)"
       style="fill:none;stroke:#ff69b4;stroke-width:2.8;stroke-linecap:square"
       id="path138" />
  </g>
  <g
     id="line2d_35"
     transform="matrix(1.2512314,0,0,1.2512314,-9.7732909,56.961543)">
    <path
       d="M 282.13274,468.16 V 7.2"
       clip-path="url(#p41f384effb)"
       style="fill:none;stroke:#808080;stroke-width:1.5;stroke-dasharray:1.5, 0.9, 1.5, 6;stroke-dashoffset:0"
       id="path137" />
  </g>
  <g
     id="ytick_8"
     transform="matrix(1.2512314,0,0,1.2512314,-9.7732909,56.961543)">
    <g
       id="line2d_37">
      <defs
         id="defs138">
        <path
           id="m2889d73c1f"
           d="M 0,0 H 3.5"
           style="stroke:#000000;stroke-width:0.8" />
      </defs>
      <g
         id="g138">
        <use
           xlink:href="#m2889d73c1f"
           x="705.93091"
           y="422.064"
           style="stroke:#000000;stroke-width:0.8"
           id="use138" />
      </g>
    </g>
    <g
       id="text_21">
      <!-- −20 -->
      <g
         transform="matrix(0.17,0,0,-0.17,712.93094,428.06447)"
         id="g141">
        <use
           xlink:href="#STIXTwoMath-Regular-2212"
           id="use139" />
        <use
           xlink:href="#STIXTwoMath-Regular-32"
           x="71.999985"
           id="use140" />
        <use
           xlink:href="#STIXTwoMath-Regular-30"
           x="121.49997"
           id="use141" />
      </g>
    </g>
  </g>
  <g
     id="ytick_9"
     transform="matrix(1.2512314,0,0,1.2512314,-9.7732909,56.961543)">
    <g
       id="line2d_38">
      <g
         id="g142">
        <use
           xlink:href="#m2889d73c1f"
           x="705.93091"
           y="329.87201"
           style="stroke:#000000;stroke-width:0.8"
           id="use142" />
      </g>
    </g>
    <g
       id="text_22">
      <!-- −10 -->
      <g
         transform="matrix(0.17,0,0,-0.17,712.93094,335.87247)"
         id="g145">
        <use
           xlink:href="#STIXTwoMath-Regular-2212"
           id="use143" />
        <use
           xlink:href="#STIXTwoMath-Regular-31"
           x="71.999985"
           id="use144" />
        <use
           xlink:href="#STIXTwoMath-Regular-30"
           x="121.49997"
           id="use145" />
      </g>
    </g>
  </g>
  <g
     id="ytick_10"
     transform="matrix(1.2512314,0,0,1.2512314,-9.7732909,56.961543)">
    <g
       id="line2d_39">
      <g
         id="g146">
        <use
           xlink:href="#m2889d73c1f"
           x="705.93091"
           y="237.67999"
           style="stroke:#000000;stroke-width:0.8"
           id="use146" />
      </g>
    </g>
    <g
       id="text_23">
      <!-- 0 -->
      <g
         transform="matrix(0.17,0,0,-0.17,712.93094,243.68047)"
         id="g147">
        <use
           xlink:href="#STIXTwoMath-Regular-30"
           id="use147" />
      </g>
    </g>
  </g>
  <g
     id="ytick_11"
     transform="matrix(1.2512314,0,0,1.2512314,-9.7732909,56.961543)">
    <g
       id="line2d_40">
      <g
         id="g148">
        <use
           xlink:href="#m2889d73c1f"
           x="705.93091"
           y="145.48801"
           style="stroke:#000000;stroke-width:0.8"
           id="use148" />
      </g>
    </g>
    <g
       id="text_24">
      <!-- 10 -->
      <g
         transform="matrix(0.17,0,0,-0.17,712.93094,151.48847)"
         id="g150">
        <use
           xlink:href="#STIXTwoMath-Regular-31"
           id="use149" />
        <use
           xlink:href="#STIXTwoMath-Regular-30"
           x="49.499985"
           id="use150" />
      </g>
    </g>
  </g>
  <g
     id="ytick_12"
     transform="matrix(1.2512314,0,0,1.2512314,-9.7732909,56.961543)">
    <g
       id="line2d_41">
      <g
         id="g151">
        <use
           xlink:href="#m2889d73c1f"
           x="705.93091"
           y="53.296001"
           style="stroke:#000000;stroke-width:0.8"
           id="use151" />
      </g>
    </g>
    <g
       id="text_25">
      <!-- 20 -->
      <g
         transform="matrix(0.17,0,0,-0.17,712.93094,59.296469)"
         id="g153">
        <use
           xlink:href="#STIXTwoMath-Regular-32"
           id="use152" />
        <use
           xlink:href="#STIXTwoMath-Regular-30"
           x="49.499985"
           id="use153" />
      </g>
    </g>
  </g>
  <g
     id="text_26"
     transform="matrix(1.2512314,0,0,1.2512314,-18.773291,56.961543)">
    <!-- $I$, мА -->
    <g
       transform="matrix(0,-0.17,-0.17,0,758.00188,256.635)"
       id="g158">
      <defs
         id="defs153">
        <path
           id="STIXTwoMath-Regular-410"
           d="m 4570,0 v 192 c -346,0 -474,147 -660,570 L 2394,4237 H 2131 L 774,1024 C 467,294 378,192 19,192 V 0 h 1344 v 192 c -301,0 -429,38 -429,218 0,115 32,211 71,313 l 288,679 h 1638 l 250,-576 c 83,-192 109,-308 109,-397 0,-224 -250,-237 -442,-237 V 0 Z M 2835,1658 H 1389 l 723,1792 h 19 z"
           transform="scale(0.015625)" />
      </defs>
      <use
         xlink:href="#STIXGeneral-Italic-49"
         transform="translate(0,0.796875)"
         id="use154" />
      <use
         xlink:href="#STIXTwoMath-Regular-2c"
         transform="translate(33.299988,0.796875)"
         id="use155" />
      <use
         xlink:href="#STIXTwoMath-Regular-20"
         transform="translate(57.799973,0.796875)"
         id="use156" />
      <use
         xlink:href="#STIXTwoMath-Regular-43c"
         transform="translate(81.299957,0.796875)"
         id="use157" />
      <use
         xlink:href="#STIXTwoMath-Regular-410"
         transform="translate(150.99994,0.796875)"
         id="use158" />
    </g>
  </g>
  <g
     id="patch_8"
     transform="matrix(1.2512314,0,0,1.2512314,-9.7732909,56.961543)">
    <path
       d="M 54.595938,468.16 V 7.2"
       style="fill:none;stroke:#000000;stroke-width:0.8;stroke-linecap:square;stroke-linejoin:miter"
       id="path158" />
  </g>
  <g
     id="patch_9"
     transform="matrix(1.2512314,0,0,1.2512314,-9.7732909,56.961543)">
    <path
       d="M 705.93094,468.16 V 7.2"
       style="fill:none;stroke:#000000;stroke-width:0.8;stroke-linecap:square;stroke-linejoin:miter"
       id="path159" />
  </g>
  <g
     id="patch_10"
     transform="matrix(1.2512314,0,0,1.2512314,-9.7732909,56.961543)">
    <path
       d="M 54.595938,468.16 H 705.93094"
       style="fill:none;stroke:#000000;stroke-width:0.8;stroke-linecap:square;stroke-linejoin:miter"
       id="path160" />
  </g>
  <defs
     id="defs161">
    <clipPath
       id="p41f384effb">
      <rect
         x="54.59594"
         y="7.1999998"
         width="651.33502"
         height="460.95999"
         id="rect161" />
    </clipPath>
  </defs>
  <text
     xml:space="preserve"
     style="font-style:normal;font-variant:normal;font-weight:normal;font-stretch:normal;font-size:22px;line-height:normal;font-family:'STIX Two Text';-inkscape-font-specification:'STIX Two Text, Normal';font-variant-ligatures:none;font-variant-caps:normal;font-variant-numeric:normal;font-variant-east-asian:normal;text-decoration-color:#000000;fill:#000000;stroke-width:1.275;stroke-linecap:butt;stroke-linejoin:round;-inkscape-stroke:none;stop-color:#000000"
     x="87.051666"
     y="14.453991"
     id="text182"><tspan
       sodipodi:role="line"
       id="tspan182"
       style="font-style:normal;font-variant:normal;font-weight:normal;font-stretch:normal;font-size:22px;font-family:'STIX Two Text';-inkscape-font-specification:'STIX Two Text, Normal';font-variant-ligatures:none;font-variant-caps:normal;font-variant-numeric:normal;font-variant-east-asian:normal;stroke-width:1.275"
       x="87.051666"
       y="14.453991">Диод</tspan><tspan
       sodipodi:role="line"
       style="font-style:normal;font-variant:normal;font-weight:normal;font-stretch:normal;font-size:22px;font-family:'STIX Two Text';-inkscape-font-specification:'STIX Two Text, Normal';font-variant-ligatures:none;font-variant-caps:normal;font-variant-numeric:normal;font-variant-east-asian:normal;stroke-width:1.275"
       x="87.051666"
       y="41.953991"
       id="tspan183" /></text>
  <text
     xml:space="preserve"
     style="font-style:normal;font-variant:normal;font-weight:normal;font-stretch:normal;font-size:22px;line-height:normal;font-family:'STIX Two Text';-inkscape-font-specification:'STIX Two Text, Normal';font-variant-ligatures:none;font-variant-caps:normal;font-variant-numeric:normal;font-variant-east-asian:normal;text-decoration-color:#000000;fill:#000000;stroke-width:1.275;stroke-linecap:butt;stroke-linejoin:round;-inkscape-stroke:none;stop-color:#000000"
     x="77.118652"
     y="35.891121"
     id="text184"><tspan
       sodipodi:role="line"
       id="tspan184"
       style="font-style:normal;font-variant:normal;font-weight:normal;font-stretch:normal;font-size:22px;font-family:'STIX Two Text';-inkscape-font-specification:'STIX Two Text, Normal';font-variant-ligatures:none;font-variant-caps:normal;font-variant-numeric:normal;font-variant-east-asian:normal;stroke-width:1.275"
       x="77.118652"
       y="35.891121">закрыт</tspan></text>
  <text
     xml:space="preserve"
     style="font-style:normal;font-variant:normal;font-weight:normal;font-stretch:normal;font-size:22px;line-height:normal;font-family:'STIX Two Text';-inkscape-font-specification:'STIX Two Text, Normal';font-variant-ligatures:none;font-variant-caps:normal;font-variant-numeric:normal;font-variant-east-asian:normal;text-decoration-color:#000000;fill:#000000;stroke-width:1.275;stroke-linecap:butt;stroke-linejoin:round;-inkscape-stroke:none;stop-color:#000000"
     x="534.03687"
     y="14.453991"
     id="text182-6"><tspan
       sodipodi:role="line"
       id="tspan182-2"
       style="font-style:normal;font-variant:normal;font-weight:normal;font-stretch:normal;font-size:22px;font-family:'STIX Two Text';-inkscape-font-specification:'STIX Two Text, Normal';font-variant-ligatures:none;font-variant-caps:normal;font-variant-numeric:normal;font-variant-east-asian:normal;stroke-width:1.275"
       x="534.03687"
       y="14.453991">Диод</tspan><tspan
       sodipodi:role="line"
       style="font-style:normal;font-variant:normal;font-weight:normal;font-stretch:normal;font-size:22px;font-family:'STIX Two Text';-inkscape-font-specification:'STIX Two Text, Normal';font-variant-ligatures:none;font-variant-caps:normal;font-variant-numeric:normal;font-variant-east-asian:normal;stroke-width:1.275"
       x="534.03687"
       y="41.953991"
       id="tspan183-5" /></text>
  <text
     xml:space="preserve"
     style="font-style:normal;font-variant:normal;font-weight:normal;font-stretch:normal;font-size:22px;line-height:normal;font-family:'STIX Two Text';-inkscape-font-specification:'STIX Two Text, Normal';font-variant-ligatures:none;font-variant-caps:normal;font-variant-numeric:normal;font-variant-east-asian:normal;text-decoration-color:#000000;fill:#000000;stroke-width:1.275;stroke-linecap:butt;stroke-linejoin:round;-inkscape-stroke:none;stop-color:#000000"
     x="524.10388"
     y="35.891121"
     id="text184-1"><tspan
       sodipodi:role="line"
       id="tspan184-3"
       style="font-style:normal;font-variant:normal;font-weight:normal;font-stretch:normal;font-size:22px;font-family:'STIX Two Text';-inkscape-font-specification:'STIX Two Text, Normal';font-variant-ligatures:none;font-variant-caps:normal;font-variant-numeric:normal;font-variant-east-asian:normal;stroke-width:1.275"
       x="524.10388"
       y="35.891121">закрыт</tspan></text>
  <path
     d="m 58.9692,65.722227 c 0,-2.59809 0.616321,-5.03379 1.84893,-7.30711 1.155595,-2.2192 3.043053,-4.03245 5.662383,-5.43974 2.61933,-1.35317 5.970532,-2.02976 10.053608,-2.02976 2.542306,0 5.354223,0.16238 8.435793,0.48715 3.158604,0.37888 6.240164,0.73071 9.244689,1.05547 3.004525,0.37888 5.546831,0.56833 7.626887,0.56833 2.00302,0 3.46676,-0.2977 4.39124,-0.89309 1.4473,-0.86042 4.20266,-5.23302 4.20266,-5.7645 h 2.11052 c 0.0269,0.43394 2.75345,4.7731 4.54933,5.7645 1.07855,0.59539 2.61935,0.89309 4.62235,0.89309 2.23415,0 4.85347,-0.18945 7.85799,-0.56833 3.08157,-0.32476 6.16313,-0.67659 9.2447,-1.05547 3.15861,-0.32477 5.97054,-0.48715 8.4358,-0.48715 4.23714,0 7.62687,0.67659 10.16916,2.02976 2.61932,1.40729 4.54531,3.22054 5.77795,5.43974 1.23261,2.27332 1.84893,4.70902 1.84893,7.30711"
     id="text185"
     style="font-size:119.994px;font-family:'STIX Two Text';-inkscape-font-specification:'STIX Two Text, Normal';font-variant-ligatures:none;fill:none;fill-opacity:1;stroke:#000000;stroke-width:3;stroke-linecap:butt;stroke-linejoin:round;stroke-dasharray:none;stroke-opacity:1"
     aria-label="{"
     sodipodi:nodetypes="cccsccscccssccsccc" />
  <g
     id="patch_11"
     transform="matrix(1.2512314,0,0,1.2512314,-9.7732909,56.961543)">
    <path
       d="M 54.595938,7.2 H 705.93094"
       style="fill:none;stroke:#000000;stroke-width:0.8;stroke-linecap:square;stroke-linejoin:miter"
       id="path161" />
  </g>
  <path
     d="m 168.59972,65.722227 c 0,-2.52244 1.00255,-4.88722 3.00761,-7.09435 1.87977,-2.15458 4.95005,-3.91503 9.21085,-5.28135 4.2608,-1.31376 9.71211,-1.97065 16.35396,-1.97065 4.13549,0 8.70957,0.15766 13.72228,0.47296 5.13802,0.36786 10.15072,0.70943 15.03811,1.02474 4.88738,0.36785 9.02289,0.55178 12.40645,0.55178 3.25827,0 5.63931,-0.28903 7.14312,-0.86709 2.35429,-0.83536 6.83637,-5.08064 6.83637,-5.59665 h 3.43313 c 0.0437,0.42131 4.47896,4.63413 7.40028,5.59665 1.75445,0.57806 4.26083,0.86709 7.51906,0.86709 3.63423,0 7.89502,-0.18393 12.78239,-0.55178 5.01272,-0.31531 10.02541,-0.65688 15.03812,-1.02474 5.13804,-0.3153 9.71213,-0.47296 13.72231,-0.47296 6.89245,0 12.40644,0.65689 16.54192,1.97065 4.26078,1.36632 7.39374,3.12677 9.39884,5.28135 2.00506,2.20713 3.00761,4.57191 3.00761,7.09435"
     id="text185-1"
     style="font-size:119.994px;font-family:'STIX Two Text';-inkscape-font-specification:'STIX Two Text, Normal';font-variant-ligatures:none;fill:none;fill-opacity:1;stroke:#000000;stroke-width:3;stroke-linecap:butt;stroke-linejoin:round;stroke-dasharray:none;stroke-opacity:1"
     aria-label="{"
     sodipodi:nodetypes="cccsccscccssccsccc" />
  <text
     xml:space="preserve"
     style="font-style:normal;font-variant:normal;font-weight:normal;font-stretch:normal;font-size:22px;line-height:normal;font-family:'STIX Two Text';-inkscape-font-specification:'STIX Two Text, Normal';font-variant-ligatures:none;font-variant-caps:normal;font-variant-numeric:normal;font-variant-east-asian:normal;text-decoration-color:#000000;fill:#000000;stroke-width:1.275;stroke-linecap:butt;stroke-linejoin:round;-inkscape-stroke:none;stop-color:#000000"
     x="229.92194"
     y="14.453991"
     id="text189"><tspan
       sodipodi:role="line"
       id="tspan188"
       style="font-style:normal;font-variant:normal;font-weight:normal;font-stretch:normal;font-size:22px;font-family:'STIX Two Text';-inkscape-font-specification:'STIX Two Text, Normal';font-variant-ligatures:none;font-variant-caps:normal;font-variant-numeric:normal;font-variant-east-asian:normal;stroke-width:1.275"
       x="229.92194"
       y="14.453991">Диод</tspan><tspan
       sodipodi:role="line"
       style="font-style:normal;font-variant:normal;font-weight:normal;font-stretch:normal;font-size:22px;font-family:'STIX Two Text';-inkscape-font-specification:'STIX Two Text, Normal';font-variant-ligatures:none;font-variant-caps:normal;font-variant-numeric:normal;font-variant-east-asian:normal;stroke-width:1.275"
       x="229.92194"
       y="41.953991"
       id="tspan189" /></text>
  <text
     xml:space="preserve"
     style="font-style:normal;font-variant:normal;font-weight:normal;font-stretch:normal;font-size:22px;line-height:normal;font-family:'STIX Two Text';-inkscape-font-specification:'STIX Two Text, Normal';font-variant-ligatures:none;font-variant-caps:normal;font-variant-numeric:normal;font-variant-east-asian:normal;text-decoration-color:#000000;fill:#000000;stroke-width:1.275;stroke-linecap:butt;stroke-linejoin:round;-inkscape-stroke:none;stop-color:#000000"
     x="219.26291"
     y="35.891121"
     id="text190"><tspan
       sodipodi:role="line"
       id="tspan190"
       style="font-style:normal;font-variant:normal;font-weight:normal;font-stretch:normal;font-size:22px;font-family:'STIX Two Text';-inkscape-font-specification:'STIX Two Text, Normal';font-variant-ligatures:none;font-variant-caps:normal;font-variant-numeric:normal;font-variant-east-asian:normal;stroke-width:1.275"
       x="219.26291"
       y="35.891121">открыт</tspan></text>
  <path
     d="m 344.88848,65.729817 c 0,-2.36623 2.48784,-4.58458 7.46341,-6.65504 4.66466,-2.02116 12.28359,-3.67259 22.85679,-4.9543 10.5732,-1.23242 24.10067,-1.84862 40.58246,-1.84862 10.26225,0 21.61285,0.14789 34.05193,0.44367 12.75003,0.34507 25.18907,0.6655 37.31717,0.96128 12.12807,0.34507 22.39036,0.51761 30.78669,0.51761 8.08541,0 13.99398,-0.27113 17.7257,-0.81339 5.84219,-0.78364 18.44428,-4.76603 18.44428,-5.25009 h 5.55976 c 0.10844,0.39522 12.59436,4.34717 19.84363,5.25009 4.35368,0.54226 10.57328,0.81339 18.6586,0.81339 9.01836,0 19.59155,-0.17254 31.71959,-0.51761 12.43909,-0.29578 24.87812,-0.61621 37.31719,-0.96128 12.75008,-0.29578 24.10072,-0.44367 34.052,-0.44367 17.10366,0 30.78667,0.6162 41.04889,1.84862 10.57316,1.28171 18.34761,2.93314 23.32328,4.9543 4.97557,2.07046 7.4634,4.28881 7.4634,6.65504"
     id="path193"
     style="font-size:119.994px;font-family:'STIX Two Text';-inkscape-font-specification:'STIX Two Text, Normal';font-variant-ligatures:none;fill:none;fill-opacity:1;stroke:#000000;stroke-width:2.98091;stroke-linecap:butt;stroke-linejoin:round;stroke-dasharray:none;stroke-opacity:1"
     aria-label="{"
     sodipodi:nodetypes="cccsccscccssccsccc" />
  <g
     id="g194"
     transform="matrix(1.011229,0,0,1.011229,149.7392,-38.359458)"
     style="stroke-linecap:butt;stroke-linejoin:round">
    <path
       d="m -79.194,132.882 h 0.558 l 0.54,-3.114 h -9.666 l -0.738,3.114 h 0.576 c 0.204,-0.492 0.378,-0.894 0.522,-1.206 0.144,-0.312 0.315,-0.558 0.513,-0.738 0.198,-0.18 0.447,-0.303 0.747,-0.369 0.3,-0.066 0.702,-0.099 1.206,-0.099 h 1.026 l -1.782,8.766 c -0.084,0.408 -0.171,0.732 -0.261,0.972 -0.09,0.24 -0.207,0.423 -0.351,0.549 -0.144,0.126 -0.333,0.207 -0.567,0.243 -0.234,0.036 -0.543,0.054 -0.927,0.054 l -0.108,0.54 h 5.13 l 0.108,-0.54 c -0.384,0 -0.69,-0.018 -0.918,-0.054 -0.228,-0.036 -0.39,-0.117 -0.486,-0.243 -0.096,-0.126 -0.141,-0.309 -0.135,-0.549 0.006,-0.24 0.051,-0.564 0.135,-0.972 l 1.782,-8.766 h 1.026 c 0.504,0 0.894,0.033 1.17,0.099 0.276,0.066 0.48,0.189 0.612,0.369 0.132,0.18 0.213,0.426 0.243,0.738 0.03,0.312 0.045,0.714 0.045,1.206 z"
       fill="#000000"
       id="path1"
       style="stroke-width:0.75;stroke-linecap:butt;stroke-linejoin:round" />
    <path
       d="m -70.31475,135.708 h 10.728 v -1.224 h -10.728 z m 0,3.672 h 10.728 v -1.206 h -10.728 z"
       fill="#000000"
       id="path2-5"
       style="stroke-width:0.75;stroke-linecap:butt;stroke-linejoin:round" />
    <path
       d="m -44.03025,141.594 0.576,-2.88 h -0.522 c -0.108,0.264 -0.207,0.489 -0.297,0.675 -0.09,0.186 -0.192,0.339 -0.306,0.459 -0.114,0.12 -0.249,0.204 -0.405,0.252 -0.156,0.048 -0.354,0.072 -0.594,0.072 h -2.502 l -1.26,0.054 v -0.09 l 2.376,-2.25 c 0.48,-0.48 0.903,-0.924 1.269,-1.332 0.366,-0.408 0.672,-0.801 0.918,-1.179 0.246,-0.378 0.432,-0.75 0.558,-1.116 0.126,-0.366 0.189,-0.747 0.189,-1.143 0,-0.468 -0.084,-0.894 -0.252,-1.278 -0.168,-0.384 -0.405,-0.711 -0.711,-0.981 -0.306,-0.27 -0.672,-0.48 -1.098,-0.63 -0.426,-0.15 -0.891,-0.225 -1.395,-0.225 -0.876,0 -1.614,0.24 -2.214,0.72 -0.6,0.48 -1.038,1.158 -1.314,2.034 l 0.432,0.18 c 0.336,-0.672 0.711,-1.134 1.125,-1.386 0.414,-0.252 0.915,-0.378 1.503,-0.378 0.696,0 1.245,0.198 1.647,0.594 0.402,0.396 0.603,0.936 0.603,1.62 0,0.468 -0.057,0.9 -0.171,1.296 -0.114,0.396 -0.282,0.78 -0.504,1.152 -0.222,0.372 -0.501,0.753 -0.837,1.143 -0.336,0.39 -0.726,0.813 -1.17,1.269 l -2.736,2.736 v 0.612 z"
       fill="#000000"
       id="path3-7"
       style="stroke-width:0.75;stroke-linecap:butt;stroke-linejoin:round" />
    <path
       d="m -31.61025,133.296 -0.036,-0.216 c -0.972,0.072 -2.016,0.108 -3.132,0.108 -0.636,-0.012 -1.23,-0.03 -1.782,-0.054 -0.552,-0.024 -1.152,-0.036 -1.8,-0.036 -0.864,0 -1.596,0.156 -2.196,0.468 -0.6,0.312 -1.092,0.864 -1.476,1.656 l 0.396,0.27 c 0.192,-0.24 0.372,-0.423 0.54,-0.549 0.168,-0.126 0.36,-0.219 0.576,-0.279 0.216,-0.06 0.48,-0.096 0.792,-0.108 0.312,-0.012 0.708,-0.018 1.188,-0.018 -0.108,0.384 -0.222,0.741 -0.342,1.071 -0.12,0.33 -0.258,0.654 -0.414,0.972 -0.156,0.318 -0.324,0.636 -0.504,0.954 -0.18,0.318 -0.39,0.657 -0.63,1.017 -0.216,0.336 -0.399,0.618 -0.549,0.846 -0.15,0.228 -0.294,0.438 -0.432,0.63 -0.138,0.192 -0.276,0.387 -0.414,0.585 -0.138,0.198 -0.309,0.441 -0.513,0.729 v 0.252 h 1.71 c 0.12,-0.204 0.264,-0.474 0.432,-0.81 0.168,-0.336 0.345,-0.714 0.531,-1.134 0.186,-0.42 0.372,-0.861 0.558,-1.323 0.186,-0.462 0.363,-0.918 0.531,-1.368 0.168,-0.45 0.315,-0.885 0.441,-1.305 0.126,-0.42 0.225,-0.786 0.297,-1.098 0.444,0 0.873,0.006 1.287,0.018 0.414,0.012 0.843,0.024 1.287,0.036 -0.18,0.504 -0.375,1.014 -0.585,1.53 -0.21,0.516 -0.402,1.023 -0.576,1.521 -0.174,0.498 -0.318,0.978 -0.432,1.44 -0.114,0.462 -0.171,0.885 -0.171,1.269 0,0.384 0.087,0.711 0.261,0.981 0.174,0.27 0.477,0.405 0.909,0.405 0.552,0 1.023,-0.123 1.413,-0.369 0.39,-0.246 0.735,-0.591 1.035,-1.035 l -0.234,-0.306 c -0.156,0.12 -0.327,0.225 -0.513,0.315 -0.186,0.09 -0.435,0.135 -0.747,0.135 -0.144,0 -0.261,-0.033 -0.351,-0.099 -0.09,-0.066 -0.162,-0.153 -0.216,-0.261 -0.054,-0.108 -0.09,-0.225 -0.108,-0.351 -0.018,-0.126 -0.027,-0.249 -0.027,-0.369 0,-0.348 0.045,-0.75 0.135,-1.206 0.09,-0.456 0.198,-0.915 0.324,-1.377 0.126,-0.462 0.252,-0.891 0.378,-1.287 0.126,-0.396 0.225,-0.702 0.297,-0.918 0.228,0.012 0.414,0.018 0.558,0.018 h 0.414 c 0.3,0 0.564,-0.048 0.792,-0.144 0.228,-0.096 0.42,-0.216 0.576,-0.36 0.156,-0.144 0.276,-0.294 0.36,-0.45 0.084,-0.156 0.138,-0.288 0.162,-0.396 z"
       fill="#000000"
       id="path4-5"
       style="stroke-width:0.75;stroke-linecap:butt;stroke-linejoin:round" />
    <path
       d="m -16.56225,125.25 h -2.916 l -4.824,18.27 h -0.072 l -3.564,-9.18 h -0.36 l -2.862,1.98 0.288,0.504 1.872,-0.72 4.194,10.512 h 0.756 l 5.4,-20.142 h 2.088 z"
       fill="#000000"
       id="path5"
       style="stroke-width:0.75;stroke-linecap:butt;stroke-linejoin:round" />
    <path
       d="m -8.30025,141.594 1.08,-3.51 h -0.576 c -0.276,0.516 -0.522,0.954 -0.738,1.314 -0.216,0.36 -0.453,0.654 -0.711,0.882 -0.258,0.228 -0.567,0.39 -0.927,0.486 -0.36,0.096 -0.828,0.144 -1.404,0.144 h -0.846 c -0.528,0 -0.876,-0.063 -1.044,-0.189 -0.168,-0.126 -0.21,-0.387 -0.126,-0.783 l 1.638,-8.064 c 0.072,-0.324 0.162,-0.588 0.27,-0.792 0.108,-0.204 0.246,-0.363 0.414,-0.477 0.168,-0.114 0.372,-0.192 0.612,-0.234 0.24,-0.042 0.522,-0.063 0.846,-0.063 l 0.09,-0.54 h -5.112 l -0.108,0.54 c 0.384,0 0.684,0.024 0.9,0.072 0.216,0.048 0.372,0.132 0.468,0.252 0.096,0.12 0.138,0.279 0.126,0.477 -0.012,0.198 -0.048,0.447 -0.108,0.747 l -1.548,7.506 c -0.072,0.36 -0.153,0.651 -0.243,0.873 -0.09,0.222 -0.204,0.393 -0.342,0.513 -0.138,0.12 -0.318,0.201 -0.54,0.243 -0.222,0.042 -0.507,0.063 -0.855,0.063 l -0.108,0.54 z"
       fill="#000000"
       id="path6"
       style="stroke-width:0.75;stroke-linecap:butt;stroke-linejoin:round" />
    <path
       d="m 3.81375,139.326 -0.324,-0.342 c -1.2,1.092 -2.49,1.638 -3.87,1.638 -1.2,0 -2.082,-0.312 -2.646,-0.936 -0.564,-0.624 -0.846,-1.542 -0.846,-2.754 0,-0.996 0.135,-1.899 0.405,-2.709 0.27,-0.81 0.639,-1.506 1.107,-2.088 0.468,-0.582 1.011,-1.032 1.629,-1.35 0.618,-0.318 1.275,-0.477 1.971,-0.477 0.888,0 1.578,0.261 2.07,0.783 0.492,0.522 0.714,1.383 0.666,2.583 h 0.594 l 0.846,-4.122 h -0.522 c -0.144,0.204 -0.27,0.363 -0.378,0.477 -0.108,0.114 -0.234,0.171 -0.378,0.171 -0.108,0 -0.228,-0.036 -0.36,-0.108 -0.132,-0.072 -0.297,-0.147 -0.495,-0.225 -0.198,-0.078 -0.447,-0.153 -0.747,-0.225 -0.3,-0.072 -0.678,-0.108 -1.134,-0.108 -0.912,0 -1.791,0.171 -2.637,0.513 -0.846,0.342 -1.596,0.846 -2.25,1.512 -0.654,0.666 -1.176,1.488 -1.566,2.466 -0.39,0.978 -0.585,2.097 -0.585,3.357 0,0.588 0.078,1.149 0.234,1.683 0.156,0.534 0.408,1.005 0.756,1.413 0.348,0.408 0.801,0.729 1.359,0.963 0.558,0.234 1.245,0.351 2.061,0.351 0.564,0 1.086,-0.06 1.566,-0.18 0.48,-0.12 0.927,-0.291 1.341,-0.513 0.414,-0.222 0.798,-0.483 1.152,-0.783 0.354,-0.3 0.681,-0.63 0.981,-0.99 z"
       fill="#000000"
       id="path7"
       style="stroke-width:0.75;stroke-linecap:butt;stroke-linejoin:round" />
    <path
       d="m 6.012,145.374 h 4.27125 v -0.45375 c -0.57975,0 -0.9765,-0.0608 -1.191,-0.18225 -0.21375,-0.12225 -0.321,-0.34275 -0.321,-0.6615 v -7.107 h -0.5415 l -2.331,0.64275 v 0.504 c 0.168,-0.042 0.3675,-0.0817 0.5985,-0.11925 0.231,-0.0383 0.41325,-0.057 0.5475,-0.057 0.177,0 0.2985,0.0503 0.366,0.1515 0.06675,0.1005 0.1005,0.264 0.1005,0.49125 v 5.49375 c 0,0.159 -0.021,0.294 -0.063,0.40275 -0.042,0.1095 -0.12,0.19575 -0.23325,0.25875 -0.11325,0.063 -0.26625,0.10875 -0.45975,0.138 -0.1935,0.03 -0.441,0.0443 -0.74325,0.0443 z"
       fill="#000000"
       id="path8-0"
       style="stroke-width:0.75;stroke-linecap:butt;stroke-linejoin:round" />
    <rect
       x="-17.192249"
       y="125.25"
       width="28.445248"
       height="1.224"
       fill="#000000"
       id="rect8"
       style="stroke-width:0.75;stroke-linecap:butt;stroke-linejoin:round" />
  </g>
  <g
     id="g201"
     transform="matrix(1.011229,0,0,1.011229,459.1922,-38.359459)"
     style="stroke-linecap:butt;stroke-linejoin:round">
    <path
       d="m -79.194,132.882 h 0.558 l 0.54,-3.114 h -9.666 l -0.738,3.114 h 0.576 c 0.204,-0.492 0.378,-0.894 0.522,-1.206 0.144,-0.312 0.315,-0.558 0.513,-0.738 0.198,-0.18 0.447,-0.303 0.747,-0.369 0.3,-0.066 0.702,-0.099 1.206,-0.099 h 1.026 l -1.782,8.766 c -0.084,0.408 -0.171,0.732 -0.261,0.972 -0.09,0.24 -0.207,0.423 -0.351,0.549 -0.144,0.126 -0.333,0.207 -0.567,0.243 -0.234,0.036 -0.543,0.054 -0.927,0.054 l -0.108,0.54 h 5.13 l 0.108,-0.54 c -0.384,0 -0.69,-0.018 -0.918,-0.054 -0.228,-0.036 -0.39,-0.117 -0.486,-0.243 -0.096,-0.126 -0.141,-0.309 -0.135,-0.549 0.006,-0.24 0.051,-0.564 0.135,-0.972 l 1.782,-8.766 h 1.026 c 0.504,0 0.894,0.033 1.17,0.099 0.276,0.066 0.48,0.189 0.612,0.369 0.132,0.18 0.213,0.426 0.243,0.738 0.03,0.312 0.045,0.714 0.045,1.206 z"
       fill="#000000"
       id="path194"
       style="stroke-width:0.75;stroke-linecap:butt;stroke-linejoin:round" />
    <path
       d="m -70.31475,135.708 h 10.728 v -1.224 h -10.728 z m 0,3.672 h 10.728 v -1.206 h -10.728 z"
       fill="#000000"
       id="path195"
       style="stroke-width:0.75;stroke-linecap:butt;stroke-linejoin:round" />
    <path
       d="m -44.03025,141.594 0.576,-2.88 h -0.522 c -0.108,0.264 -0.207,0.489 -0.297,0.675 -0.09,0.186 -0.192,0.339 -0.306,0.459 -0.114,0.12 -0.249,0.204 -0.405,0.252 -0.156,0.048 -0.354,0.072 -0.594,0.072 h -2.502 l -1.26,0.054 v -0.09 l 2.376,-2.25 c 0.48,-0.48 0.903,-0.924 1.269,-1.332 0.366,-0.408 0.672,-0.801 0.918,-1.179 0.246,-0.378 0.432,-0.75 0.558,-1.116 0.126,-0.366 0.189,-0.747 0.189,-1.143 0,-0.468 -0.084,-0.894 -0.252,-1.278 -0.168,-0.384 -0.405,-0.711 -0.711,-0.981 -0.306,-0.27 -0.672,-0.48 -1.098,-0.63 -0.426,-0.15 -0.891,-0.225 -1.395,-0.225 -0.876,0 -1.614,0.24 -2.214,0.72 -0.6,0.48 -1.038,1.158 -1.314,2.034 l 0.432,0.18 c 0.336,-0.672 0.711,-1.134 1.125,-1.386 0.414,-0.252 0.915,-0.378 1.503,-0.378 0.696,0 1.245,0.198 1.647,0.594 0.402,0.396 0.603,0.936 0.603,1.62 0,0.468 -0.057,0.9 -0.171,1.296 -0.114,0.396 -0.282,0.78 -0.504,1.152 -0.222,0.372 -0.501,0.753 -0.837,1.143 -0.336,0.39 -0.726,0.813 -1.17,1.269 l -2.736,2.736 v 0.612 z"
       fill="#000000"
       id="path196"
       style="stroke-width:0.75;stroke-linecap:butt;stroke-linejoin:round" />
    <path
       d="m -31.61025,133.296 -0.036,-0.216 c -0.972,0.072 -2.016,0.108 -3.132,0.108 -0.636,-0.012 -1.23,-0.03 -1.782,-0.054 -0.552,-0.024 -1.152,-0.036 -1.8,-0.036 -0.864,0 -1.596,0.156 -2.196,0.468 -0.6,0.312 -1.092,0.864 -1.476,1.656 l 0.396,0.27 c 0.192,-0.24 0.372,-0.423 0.54,-0.549 0.168,-0.126 0.36,-0.219 0.576,-0.279 0.216,-0.06 0.48,-0.096 0.792,-0.108 0.312,-0.012 0.708,-0.018 1.188,-0.018 -0.108,0.384 -0.222,0.741 -0.342,1.071 -0.12,0.33 -0.258,0.654 -0.414,0.972 -0.156,0.318 -0.324,0.636 -0.504,0.954 -0.18,0.318 -0.39,0.657 -0.63,1.017 -0.216,0.336 -0.399,0.618 -0.549,0.846 -0.15,0.228 -0.294,0.438 -0.432,0.63 -0.138,0.192 -0.276,0.387 -0.414,0.585 -0.138,0.198 -0.309,0.441 -0.513,0.729 v 0.252 h 1.71 c 0.12,-0.204 0.264,-0.474 0.432,-0.81 0.168,-0.336 0.345,-0.714 0.531,-1.134 0.186,-0.42 0.372,-0.861 0.558,-1.323 0.186,-0.462 0.363,-0.918 0.531,-1.368 0.168,-0.45 0.315,-0.885 0.441,-1.305 0.126,-0.42 0.225,-0.786 0.297,-1.098 0.444,0 0.873,0.006 1.287,0.018 0.414,0.012 0.843,0.024 1.287,0.036 -0.18,0.504 -0.375,1.014 -0.585,1.53 -0.21,0.516 -0.402,1.023 -0.576,1.521 -0.174,0.498 -0.318,0.978 -0.432,1.44 -0.114,0.462 -0.171,0.885 -0.171,1.269 0,0.384 0.087,0.711 0.261,0.981 0.174,0.27 0.477,0.405 0.909,0.405 0.552,0 1.023,-0.123 1.413,-0.369 0.39,-0.246 0.735,-0.591 1.035,-1.035 l -0.234,-0.306 c -0.156,0.12 -0.327,0.225 -0.513,0.315 -0.186,0.09 -0.435,0.135 -0.747,0.135 -0.144,0 -0.261,-0.033 -0.351,-0.099 -0.09,-0.066 -0.162,-0.153 -0.216,-0.261 -0.054,-0.108 -0.09,-0.225 -0.108,-0.351 -0.018,-0.126 -0.027,-0.249 -0.027,-0.369 0,-0.348 0.045,-0.75 0.135,-1.206 0.09,-0.456 0.198,-0.915 0.324,-1.377 0.126,-0.462 0.252,-0.891 0.378,-1.287 0.126,-0.396 0.225,-0.702 0.297,-0.918 0.228,0.012 0.414,0.018 0.558,0.018 h 0.414 c 0.3,0 0.564,-0.048 0.792,-0.144 0.228,-0.096 0.42,-0.216 0.576,-0.36 0.156,-0.144 0.276,-0.294 0.36,-0.45 0.084,-0.156 0.138,-0.288 0.162,-0.396 z"
       fill="#000000"
       id="path197"
       style="stroke-width:0.75;stroke-linecap:butt;stroke-linejoin:round" />
    <path
       d="m -16.56225,125.25 h -2.916 l -4.824,18.27 h -0.072 l -3.564,-9.18 h -0.36 l -2.862,1.98 0.288,0.504 1.872,-0.72 4.194,10.512 h 0.756 l 5.4,-20.142 h 2.088 z"
       fill="#000000"
       id="path198"
       style="stroke-width:0.75;stroke-linecap:butt;stroke-linejoin:round" />
    <path
       d="m -8.30025,141.594 1.08,-3.51 h -0.576 c -0.276,0.516 -0.522,0.954 -0.738,1.314 -0.216,0.36 -0.453,0.654 -0.711,0.882 -0.258,0.228 -0.567,0.39 -0.927,0.486 -0.36,0.096 -0.828,0.144 -1.404,0.144 h -0.846 c -0.528,0 -0.876,-0.063 -1.044,-0.189 -0.168,-0.126 -0.21,-0.387 -0.126,-0.783 l 1.638,-8.064 c 0.072,-0.324 0.162,-0.588 0.27,-0.792 0.108,-0.204 0.246,-0.363 0.414,-0.477 0.168,-0.114 0.372,-0.192 0.612,-0.234 0.24,-0.042 0.522,-0.063 0.846,-0.063 l 0.09,-0.54 h -5.112 l -0.108,0.54 c 0.384,0 0.684,0.024 0.9,0.072 0.216,0.048 0.372,0.132 0.468,0.252 0.096,0.12 0.138,0.279 0.126,0.477 -0.012,0.198 -0.048,0.447 -0.108,0.747 l -1.548,7.506 c -0.072,0.36 -0.153,0.651 -0.243,0.873 -0.09,0.222 -0.204,0.393 -0.342,0.513 -0.138,0.12 -0.318,0.201 -0.54,0.243 -0.222,0.042 -0.507,0.063 -0.855,0.063 l -0.108,0.54 z"
       fill="#000000"
       id="path199"
       style="stroke-width:0.75;stroke-linecap:butt;stroke-linejoin:round" />
    <path
       d="m 3.81375,139.326 -0.324,-0.342 c -1.2,1.092 -2.49,1.638 -3.87,1.638 -1.2,0 -2.082,-0.312 -2.646,-0.936 -0.564,-0.624 -0.846,-1.542 -0.846,-2.754 0,-0.996 0.135,-1.899 0.405,-2.709 0.27,-0.81 0.639,-1.506 1.107,-2.088 0.468,-0.582 1.011,-1.032 1.629,-1.35 0.618,-0.318 1.275,-0.477 1.971,-0.477 0.888,0 1.578,0.261 2.07,0.783 0.492,0.522 0.714,1.383 0.666,2.583 h 0.594 l 0.846,-4.122 h -0.522 c -0.144,0.204 -0.27,0.363 -0.378,0.477 -0.108,0.114 -0.234,0.171 -0.378,0.171 -0.108,0 -0.228,-0.036 -0.36,-0.108 -0.132,-0.072 -0.297,-0.147 -0.495,-0.225 -0.198,-0.078 -0.447,-0.153 -0.747,-0.225 -0.3,-0.072 -0.678,-0.108 -1.134,-0.108 -0.912,0 -1.791,0.171 -2.637,0.513 -0.846,0.342 -1.596,0.846 -2.25,1.512 -0.654,0.666 -1.176,1.488 -1.566,2.466 -0.39,0.978 -0.585,2.097 -0.585,3.357 0,0.588 0.078,1.149 0.234,1.683 0.156,0.534 0.408,1.005 0.756,1.413 0.348,0.408 0.801,0.729 1.359,0.963 0.558,0.234 1.245,0.351 2.061,0.351 0.564,0 1.086,-0.06 1.566,-0.18 0.48,-0.12 0.927,-0.291 1.341,-0.513 0.414,-0.222 0.798,-0.483 1.152,-0.783 0.354,-0.3 0.681,-0.63 0.981,-0.99 z"
       fill="#000000"
       id="path200"
       style="stroke-width:0.75;stroke-linecap:butt;stroke-linejoin:round" />
    <path
       d="m 6.012,145.374 h 4.27125 v -0.45375 c -0.57975,0 -0.9765,-0.0608 -1.191,-0.18225 -0.21375,-0.12225 -0.321,-0.34275 -0.321,-0.6615 v -7.107 h -0.5415 l -2.331,0.64275 v 0.504 c 0.168,-0.042 0.3675,-0.0817 0.5985,-0.11925 0.231,-0.0383 0.41325,-0.057 0.5475,-0.057 0.177,0 0.2985,0.0503 0.366,0.1515 0.06675,0.1005 0.1005,0.264 0.1005,0.49125 v 5.49375 c 0,0.159 -0.021,0.294 -0.063,0.40275 -0.042,0.1095 -0.12,0.19575 -0.23325,0.25875 -0.11325,0.063 -0.26625,0.10875 -0.45975,0.138 -0.1935,0.03 -0.441,0.0443 -0.74325,0.0443 z"
       fill="#000000"
       id="path201"
       style="stroke-width:0.75;stroke-linecap:butt;stroke-linejoin:round" />
    <rect
       x="-17.192249"
       y="125.25"
       width="28.445248"
       height="1.224"
       fill="#000000"
       id="rect201"
       style="stroke-width:0.75;stroke-linecap:butt;stroke-linejoin:round" />
  </g>
  <g
     id="g14-8"
     transform="matrix(0.76284467,0,0,0.76284467,172.76362,104.84562)"
     style="stroke-linecap:butt;stroke-linejoin:round">
    <path
       d="m 15.328,-11.616 h 0.744 l 0.72,-4.152 H 3.904 l -0.984,4.152 h 0.768 c 0.272,-0.656 0.504,-1.192 0.696,-1.608 0.192,-0.416 0.42,-0.744 0.684,-0.984 0.264,-0.24 0.596,-0.404 0.996,-0.492 0.4,-0.088 0.936,-0.132 1.608,-0.132 H 9.04 L 6.664,-3.144 C 6.552,-2.6 6.436,-2.168 6.316,-1.848 6.196,-1.528 6.04,-1.284 5.848,-1.116 5.656,-0.948 5.404,-0.84 5.092,-0.792 4.78,-0.744 4.368,-0.72 3.856,-0.72 L 3.712,0 h 6.84 l 0.144,-0.72 c -0.512,0 -0.92,-0.024 -1.224,-0.072 C 9.168,-0.84 8.952,-0.948 8.824,-1.116 8.696,-1.284 8.636,-1.528 8.644,-1.848 8.652,-2.168 8.712,-2.6 8.824,-3.144 L 11.2,-14.832 h 1.368 c 0.672,0 1.192,0.044 1.56,0.132 0.368,0.088 0.64,0.252 0.816,0.492 0.176,0.24 0.284,0.568 0.324,0.984 0.04,0.416 0.06,0.952 0.06,1.608 z"
       fill="#000000"
       id="path1-9"
       style="stroke-linecap:butt;stroke-linejoin:round" />
    <path
       d="m 20.298,-10.303 0.588,0.235 c 0.146,-0.258 0.311,-0.563 0.496,-0.916 0.185,-0.352 0.372,-0.722 0.563,-1.108 0.19,-0.387 0.383,-0.776 0.579,-1.168 0.196,-0.392 0.378,-0.762 0.546,-1.109 0.168,-0.347 0.314,-0.652 0.437,-0.915 0.123,-0.264 0.207,-0.462 0.252,-0.597 0.034,-0.089 0.065,-0.199 0.093,-0.327 0.028,-0.129 0.042,-0.238 0.042,-0.328 0,-0.336 -0.098,-0.58 -0.294,-0.731 -0.196,-0.151 -0.423,-0.227 -0.681,-0.227 -0.224,0 -0.431,0.051 -0.621,0.152 -0.191,0.1 -0.348,0.33 -0.471,0.688 -0.045,0.135 -0.103,0.345 -0.176,0.63 -0.073,0.286 -0.157,0.619 -0.252,1 -0.095,0.381 -0.193,0.787 -0.294,1.218 -0.101,0.431 -0.202,0.86 -0.303,1.285 -0.1,0.426 -0.193,0.832 -0.277,1.218 -0.084,0.387 -0.159,0.72 -0.227,1 z"
       fill="#000000"
       id="path2-9"
       style="stroke-linecap:butt;stroke-linejoin:round" />
    <path
       d="M 35.427,-7.848 H 49.731 V -9.48 H 35.427 Z m 0,4.896 H 49.731 V -4.56 H 35.427 Z"
       fill="#000000"
       id="path3-9"
       style="stroke-linecap:butt;stroke-linejoin:round" />
    <path
       d="m 70.474,0 0.768,-3.84 h -0.696 c -0.144,0.352 -0.276,0.652 -0.396,0.9 -0.12,0.248 -0.256,0.452 -0.408,0.612 -0.152,0.16 -0.332,0.272 -0.54,0.336 -0.208,0.064 -0.472,0.096 -0.792,0.096 h -3.336 l -1.68,0.072 v -0.12 l 3.168,-3 c 0.64,-0.64 1.204,-1.232 1.692,-1.776 0.488,-0.544 0.896,-1.068 1.224,-1.572 0.328,-0.504 0.576,-1 0.744,-1.488 0.168,-0.488 0.252,-0.996 0.252,-1.524 0,-0.624 -0.112,-1.192 -0.336,-1.704 -0.224,-0.512 -0.54,-0.948 -0.948,-1.308 -0.408,-0.36 -0.896,-0.64 -1.464,-0.84 -0.568,-0.2 -1.188,-0.3 -1.86,-0.3 -1.168,0 -2.152,0.32 -2.952,0.96 -0.8,0.64 -1.384,1.544 -1.752,2.712 l 0.576,0.24 c 0.448,-0.896 0.948,-1.512 1.5,-1.848 0.552,-0.336 1.22,-0.504 2.004,-0.504 0.928,0 1.66,0.264 2.196,0.792 0.536,0.528 0.804,1.248 0.804,2.16 0,0.624 -0.076,1.2 -0.228,1.728 -0.152,0.528 -0.376,1.04 -0.672,1.536 -0.296,0.496 -0.668,1.004 -1.116,1.524 -0.448,0.52 -0.968,1.084 -1.56,1.692 l -3.648,3.648 V 0 Z"
       fill="#000000"
       id="path4-3"
       style="stroke-linecap:butt;stroke-linejoin:round" />
    <path
       d="m 87.034,-11.064 -0.048,-0.288 c -1.296,0.096 -2.688,0.144 -4.176,0.144 -0.848,-0.016 -1.64,-0.04 -2.376,-0.072 -0.736,-0.032 -1.536,-0.048 -2.4,-0.048 -1.152,0 -2.128,0.208 -2.928,0.624 -0.8,0.416 -1.456,1.152 -1.968,2.208 l 0.528,0.36 c 0.256,-0.32 0.496,-0.564 0.72,-0.732 0.224,-0.168 0.48,-0.292 0.768,-0.372 0.288,-0.08 0.64,-0.128 1.056,-0.144 0.416,-0.016 0.944,-0.024 1.584,-0.024 -0.144,0.512 -0.296,0.988 -0.456,1.428 -0.16,0.44 -0.344,0.872 -0.552,1.296 -0.208,0.424 -0.432,0.848 -0.672,1.272 -0.24,0.424 -0.52,0.876 -0.84,1.356 -0.288,0.448 -0.532,0.824 -0.732,1.128 -0.2,0.304 -0.392,0.584 -0.576,0.84 -0.184,0.256 -0.368,0.516 -0.552,0.78 -0.184,0.264 -0.412,0.588 -0.684,0.972 V 0 h 2.28 c 0.16,-0.272 0.352,-0.632 0.576,-1.08 0.224,-0.448 0.46,-0.952 0.708,-1.512 0.248,-0.56 0.496,-1.148 0.744,-1.764 0.248,-0.616 0.484,-1.224 0.708,-1.824 0.224,-0.6 0.42,-1.18 0.588,-1.74 0.168,-0.56 0.3,-1.048 0.396,-1.464 0.592,0 1.164,0.008 1.716,0.024 0.552,0.016 1.124,0.032 1.716,0.048 -0.24,0.672 -0.5,1.352 -0.78,2.04 -0.28,0.688 -0.536,1.364 -0.768,2.028 -0.232,0.664 -0.424,1.304 -0.576,1.92 -0.152,0.616 -0.228,1.18 -0.228,1.692 0,0.512 0.116,0.948 0.348,1.308 0.232,0.36 0.636,0.54 1.212,0.54 0.736,0 1.364,-0.164 1.884,-0.492 0.52,-0.328 0.98,-0.788 1.38,-1.38 l -0.312,-0.408 c -0.208,0.16 -0.436,0.3 -0.684,0.42 -0.248,0.12 -0.58,0.18 -0.996,0.18 -0.192,0 -0.348,-0.044 -0.468,-0.132 -0.12,-0.088 -0.216,-0.204 -0.288,-0.348 -0.072,-0.144 -0.12,-0.3 -0.144,-0.468 -0.024,-0.168 -0.036,-0.332 -0.036,-0.492 0,-0.464 0.06,-1 0.18,-1.608 0.12,-0.608 0.264,-1.22 0.432,-1.836 0.168,-0.616 0.336,-1.188 0.504,-1.716 0.168,-0.528 0.3,-0.936 0.396,-1.224 0.304,0.016 0.552,0.024 0.744,0.024 h 0.552 c 0.4,0 0.752,-0.064 1.056,-0.192 0.304,-0.128 0.56,-0.288 0.768,-0.48 0.208,-0.192 0.368,-0.392 0.48,-0.6 0.112,-0.208 0.184,-0.384 0.216,-0.528 z"
       fill="#000000"
       id="path5-3"
       style="stroke-linecap:butt;stroke-linejoin:round" />
    <path
       d="m 107.098,-26.424 h -3.888 l -6.432,24.36 h -0.096 l -4.752,-12.24 h -0.48 l -3.816,2.64 0.384,0.672 2.496,-0.96 5.592,14.016 h 1.008 l 7.2,-26.856 h 2.784 z"
       fill="#000000"
       id="path6-7"
       style="stroke-linecap:butt;stroke-linejoin:round" />
    <path
       d="m 118.114,0 1.44,-4.68 h -0.768 c -0.368,0.688 -0.696,1.272 -0.984,1.752 -0.288,0.48 -0.604,0.872 -0.948,1.176 -0.344,0.304 -0.756,0.52 -1.236,0.648 -0.48,0.128 -1.104,0.192 -1.872,0.192 h -1.128 c -0.704,0 -1.168,-0.084 -1.392,-0.252 -0.224,-0.168 -0.28,-0.516 -0.168,-1.044 l 2.184,-10.752 c 0.096,-0.432 0.216,-0.784 0.36,-1.056 0.144,-0.272 0.328,-0.484 0.552,-0.636 0.224,-0.152 0.496,-0.256 0.816,-0.312 0.32,-0.056 0.696,-0.084 1.128,-0.084 l 0.12,-0.72 h -6.816 l -0.144,0.72 c 0.512,0 0.912,0.032 1.2,0.096 0.288,0.064 0.496,0.176 0.624,0.336 0.128,0.16 0.184,0.372 0.168,0.636 -0.016,0.264 -0.064,0.596 -0.144,0.996 l -2.064,10.008 c -0.096,0.48 -0.204,0.868 -0.324,1.164 -0.12,0.296 -0.272,0.524 -0.456,0.684 -0.184,0.16 -0.424,0.268 -0.72,0.324 -0.296,0.056 -0.676,0.084 -1.14,0.084 L 106.258,0 Z"
       fill="#000000"
       id="path7-7"
       style="stroke-linecap:butt;stroke-linejoin:round" />
    <path
       d="m 124.981,-6.48 c 0,1.664 0.164,3.22 0.492,4.668 0.328,1.448 0.792,2.772 1.392,3.972 0.6,1.2 1.316,2.272 2.148,3.216 0.832,0.944 1.752,1.736 2.76,2.376 l 0.432,-0.6 c -1.84,-1.536 -3.164,-3.44 -3.972,-5.712 -0.808,-2.272 -1.212,-4.912 -1.212,-7.92 0,-3.008 0.404,-5.648 1.212,-7.92 0.808,-2.272 2.132,-4.176 3.972,-5.712 l -0.432,-0.6 c -1.008,0.64 -1.928,1.432 -2.76,2.376 -0.832,0.944 -1.548,2.016 -2.148,3.216 -0.6,1.2 -1.064,2.524 -1.392,3.972 -0.328,1.448 -0.492,3.004 -0.492,4.668 z"
       fill="#000000"
       id="path8-3"
       style="stroke-linecap:butt;stroke-linejoin:round" />
    <path
       d="m 146.965,-3.024 -0.432,-0.456 c -1.6,1.456 -3.32,2.184 -5.16,2.184 -1.6,0 -2.776,-0.416 -3.528,-1.248 -0.752,-0.832 -1.128,-2.056 -1.128,-3.672 0,-1.328 0.18,-2.532 0.54,-3.612 0.36,-1.08 0.852,-2.008 1.476,-2.784 0.624,-0.776 1.348,-1.376 2.172,-1.8 0.824,-0.424 1.7,-0.636 2.628,-0.636 1.184,0 2.104,0.348 2.76,1.044 0.656,0.696 0.952,1.844 0.888,3.444 h 0.792 l 1.128,-5.496 h -0.696 c -0.192,0.272 -0.36,0.484 -0.504,0.636 -0.144,0.152 -0.312,0.228 -0.504,0.228 -0.144,0 -0.304,-0.048 -0.48,-0.144 -0.176,-0.096 -0.396,-0.196 -0.66,-0.3 -0.264,-0.104 -0.596,-0.204 -0.996,-0.3 -0.4,-0.096 -0.904,-0.144 -1.512,-0.144 -1.216,0 -2.388,0.228 -3.516,0.684 -1.128,0.456 -2.128,1.128 -3,2.016 -0.872,0.888 -1.568,1.984 -2.088,3.288 -0.52,1.304 -0.78,2.796 -0.78,4.476 0,0.784 0.104,1.532 0.312,2.244 0.208,0.712 0.544,1.34 1.008,1.884 0.464,0.544 1.068,0.972 1.812,1.284 0.744,0.312 1.66,0.468 2.748,0.468 0.752,0 1.448,-0.08 2.088,-0.24 0.64,-0.16 1.236,-0.388 1.788,-0.684 0.552,-0.296 1.064,-0.644 1.536,-1.044 0.472,-0.4 0.908,-0.84 1.308,-1.32 z"
       fill="#000000"
       id="path9"
       style="stroke-linecap:butt;stroke-linejoin:round" />
    <path
       d="m 149.895,5.04 h 5.695 V 4.435 c -0.772,0 -1.302,-0.081 -1.587,-0.243 -0.286,-0.163 -0.429,-0.457 -0.429,-0.882 v -9.476 h -0.722 l -3.108,0.857 v 0.672 c 0.224,-0.056 0.49,-0.109 0.798,-0.159 0.308,-0.051 0.552,-0.076 0.731,-0.076 0.235,0 0.397,0.067 0.487,0.202 0.09,0.134 0.134,0.352 0.134,0.655 V 3.31 c 0,0.212 -0.028,0.392 -0.084,0.537 -0.056,0.146 -0.159,0.261 -0.31,0.345 -0.152,0.084 -0.356,0.145 -0.614,0.184 -0.257,0.04 -0.588,0.059 -0.991,0.059 z"
       fill="#000000"
       id="path10-2"
       style="stroke-linecap:butt;stroke-linejoin:round" />
    <path
       d="m 173.497,-5.4 h 6.288 v -1.632 h -6.288 v -6.36 h -1.728 v 6.36 h -6.288 V -5.4 h 6.288 v 6.36 h 1.728 z"
       fill="#000000"
       id="path11"
       style="stroke-linecap:butt;stroke-linejoin:round" />
    <path
       d="m 202.423,-3.024 -0.432,-0.456 c -1.6,1.456 -3.32,2.184 -5.16,2.184 -1.6,0 -2.776,-0.416 -3.528,-1.248 -0.752,-0.832 -1.128,-2.056 -1.128,-3.672 0,-1.328 0.18,-2.532 0.54,-3.612 0.36,-1.08 0.852,-2.008 1.476,-2.784 0.624,-0.776 1.348,-1.376 2.172,-1.8 0.824,-0.424 1.7,-0.636 2.628,-0.636 1.184,0 2.104,0.348 2.76,1.044 0.656,0.696 0.952,1.844 0.888,3.444 h 0.792 l 1.128,-5.496 h -0.696 c -0.192,0.272 -0.36,0.484 -0.504,0.636 -0.144,0.152 -0.312,0.228 -0.504,0.228 -0.144,0 -0.304,-0.048 -0.48,-0.144 -0.176,-0.096 -0.396,-0.196 -0.66,-0.3 -0.264,-0.104 -0.596,-0.204 -0.996,-0.3 -0.4,-0.096 -0.904,-0.144 -1.512,-0.144 -1.216,0 -2.388,0.228 -3.516,0.684 -1.128,0.456 -2.128,1.128 -3,2.016 -0.872,0.888 -1.568,1.984 -2.088,3.288 -0.52,1.304 -0.78,2.796 -0.78,4.476 0,0.784 0.104,1.532 0.312,2.244 0.208,0.712 0.544,1.34 1.008,1.884 0.464,0.544 1.068,0.972 1.812,1.284 0.744,0.312 1.66,0.468 2.748,0.468 0.752,0 1.448,-0.08 2.088,-0.24 0.64,-0.16 1.236,-0.388 1.788,-0.684 0.552,-0.296 1.064,-0.644 1.536,-1.044 0.472,-0.4 0.908,-0.84 1.308,-1.32 z"
       fill="#000000"
       id="path12"
       style="stroke-linecap:butt;stroke-linejoin:round" />
    <path
       d="m 211.435,5.04 0.571,-2.923 h -0.588 c -0.112,0.269 -0.213,0.498 -0.302,0.689 -0.09,0.19 -0.191,0.341 -0.303,0.453 -0.112,0.112 -0.246,0.193 -0.403,0.244 -0.157,0.05 -0.353,0.075 -0.588,0.075 h -2.184 l -1.31,0.068 V 3.528 l 2.1,-2.033 c 0.47,-0.459 0.893,-0.885 1.268,-1.277 0.375,-0.392 0.694,-0.772 0.958,-1.142 0.263,-0.37 0.464,-0.739 0.604,-1.109 0.14,-0.369 0.21,-0.761 0.21,-1.176 0,-0.47 -0.084,-0.893 -0.252,-1.268 -0.168,-0.375 -0.403,-0.695 -0.705,-0.958 -0.303,-0.263 -0.664,-0.462 -1.084,-0.596 -0.42,-0.135 -0.882,-0.202 -1.386,-0.202 -0.873,0 -1.601,0.224 -2.184,0.672 -0.582,0.448 -1.013,1.064 -1.293,1.848 l 0.453,0.219 c 0.314,-0.549 0.675,-0.944 1.084,-1.185 0.409,-0.241 0.915,-0.361 1.52,-0.361 0.661,0 1.173,0.19 1.537,0.571 0.364,0.381 0.546,0.874 0.546,1.479 0,0.47 -0.056,0.898 -0.168,1.285 -0.112,0.386 -0.282,0.759 -0.512,1.117 -0.23,0.358 -0.518,0.728 -0.865,1.109 -0.347,0.381 -0.756,0.806 -1.227,1.277 l -2.385,2.419 V 5.04 Z"
       fill="#000000"
       id="path13"
       style="stroke-linecap:butt;stroke-linejoin:round" />
    <path
       d="m 220.538,-6.48 c 0,-1.664 -0.164,-3.22 -0.492,-4.668 -0.328,-1.448 -0.792,-2.772 -1.392,-3.972 -0.6,-1.2 -1.316,-2.272 -2.148,-3.216 -0.832,-0.944 -1.752,-1.736 -2.76,-2.376 l -0.432,0.6 c 1.856,1.536 3.184,3.44 3.984,5.712 0.8,2.272 1.2,4.912 1.2,7.92 0,3.008 -0.4,5.648 -1.2,7.92 -0.8,2.272 -2.128,4.176 -3.984,5.712 l 0.432,0.6 c 1.008,-0.64 1.928,-1.432 2.76,-2.376 0.832,-0.944 1.548,-2.016 2.148,-3.216 0.6,-1.2 1.064,-2.524 1.392,-3.972 0.328,-1.448 0.492,-3.004 0.492,-4.668 z"
       fill="#000000"
       id="path14-5"
       style="stroke-linecap:butt;stroke-linejoin:round" />
    <rect
       x="106.258"
       y="-26.424"
       width="115.48"
       height="1.632"
       fill="#000000"
       id="rect14"
       style="stroke-linecap:butt;stroke-linejoin:round" />
  </g>
</svg>
