<?xml version="1.0" encoding="UTF-8" standalone="no"?>
<!-- Created with Inkscape (http://www.inkscape.org/) -->

<svg
   width="120.83168mm"
   height="33.335098mm"
   viewBox="0 0 120.83168 33.335098"
   version="1.1"
   id="svg1"
   inkscape:version="1.4.2 (ebf0e940, 2025-05-08)"
   sodipodi:docname="1647t.svg"
   xml:space="preserve"
   xmlns:inkscape="http://www.inkscape.org/namespaces/inkscape"
   xmlns:sodipodi="http://sodipodi.sourceforge.net/DTD/sodipodi-0.dtd"
   xmlns="http://www.w3.org/2000/svg"
   xmlns:svg="http://www.w3.org/2000/svg"><sodipodi:namedview
     id="namedview1"
     pagecolor="#ffffff"
     bordercolor="#000000"
     borderopacity="0.25"
     inkscape:showpageshadow="2"
     inkscape:pageopacity="0.0"
     inkscape:pagecheckerboard="0"
     inkscape:deskcolor="#d1d1d1"
     inkscape:document-units="mm"
     inkscape:zoom="0.93785186"
     inkscape:cx="236.17803"
     inkscape:cy="109.29231"
     inkscape:current-layer="layer1"
     showgrid="false" /><defs
     id="defs1" /><g
     inkscape:label="Layer 1"
     inkscape:groupmode="layer"
     id="layer1"
     transform="translate(6.2796619,-21.784638)"><path
       style="opacity:1;fill:#ffffff;fill-rule:evenodd;stroke:#000000;stroke-width:1.5;stroke-linejoin:round;stroke-dasharray:none;stroke-dashoffset:2.64566;paint-order:stroke fill markers"
       d="M -6.2796619,33.790944 H 114.55202"
       id="path1" /><circle
       id="path2"
       style="fill:#000000;stroke:none;stroke-width:0.23347"
       cx="33.848118"
       cy="33.790943"
       r="1.9854167" /><circle
       id="path3"
       style="fill:#000000;stroke:none;stroke-width:0.23347"
       cx="4.8545966"
       cy="33.790943"
       r="1.9854167" /><path
       style="opacity:1;fill:#ffffff;fill-rule:evenodd;stroke:#000000;stroke-width:0.834331;stroke-linejoin:round;stroke-dasharray:2.50299, 0.834331;stroke-dashoffset:1.16806;paint-order:stroke fill markers"
       d="M 4.8545963,33.790943 V 55.119735"
       id="path4" /><path
       style="opacity:1;fill:#ffffff;fill-rule:evenodd;stroke:#000000;stroke-width:0.834331;stroke-linejoin:round;stroke-dasharray:2.50299, 0.834331;stroke-dashoffset:1.16806;paint-order:stroke fill markers"
       d="M 33.848118,33.790943 V 55.119735"
       id="path5" /><circle
       id="circle5"
       style="fill:#000000;stroke:none;stroke-width:0.23347"
       cx="104.75645"
       cy="33.790943"
       r="1.9854167" /><path
       style="opacity:1;fill:#ffffff;fill-rule:evenodd;stroke:#000000;stroke-width:0.834331;stroke-linejoin:round;stroke-dasharray:2.50299, 0.834331;stroke-dashoffset:1.16806;paint-order:stroke fill markers"
       d="M 104.75646,33.790943 V 55.119735"
       id="path6" /><g
       id="path7"
       style="opacity:1"><path
         style="baseline-shift:baseline;display:inline;overflow:visible;vector-effect:none;fill-rule:evenodd;stroke-linejoin:round;stroke-dashoffset:1.16806;paint-order:stroke fill markers;enable-background:accumulate;stop-color:#000000;stop-opacity:1"
         d="m 6.0546875,46.011719 v 0.603515 H 32.650391 v -0.603515 z"
         id="path19" /><path
         style="baseline-shift:baseline;display:inline;overflow:visible;vector-effect:none;fill:#ffffff;fill-rule:evenodd;stroke-linejoin:round;stroke-dashoffset:1.16806;paint-order:stroke fill markers;enable-background:accumulate;stop-color:#000000;stop-opacity:1"
         d="M 6.054149,46.313477 H 32.649586"
         id="path20" /><g
         id="g17"><path
           style="baseline-shift:baseline;display:inline;overflow:visible;vector-effect:none;fill-rule:evenodd;enable-background:accumulate;stop-color:#000000;stop-opacity:1"
           d="m 5.452095,46.313477 1.806162,-1.806162 h 1.204108 l -1.806162,1.806162 1.806162,1.806162 H 7.258257 Z"
           id="path17" /><path
           style="baseline-shift:baseline;display:inline;overflow:visible;vector-effect:none;fill-rule:evenodd;enable-background:accumulate;stop-color:#000000;stop-opacity:1"
           d="m 33.25164,46.313477 -1.806162,1.806162 H 30.24137 l 1.806162,-1.806162 -1.806162,-1.806162 h 1.204108 z"
           id="path18" /></g></g><g
       id="path10"
       style="opacity:1"><path
         style="baseline-shift:baseline;display:inline;overflow:visible;vector-effect:none;fill-rule:evenodd;stroke-linejoin:round;stroke-dashoffset:1.16806;paint-order:stroke fill markers;enable-background:accumulate;stop-color:#000000;stop-opacity:1"
         d="m 6.0605469,50.771484 v 0.607422 H 103.54883 v -0.607422 z"
         id="path23" /><path
         style="baseline-shift:baseline;display:inline;overflow:visible;vector-effect:none;fill:#ffffff;fill-rule:evenodd;stroke-linejoin:round;stroke-dashoffset:1.16806;paint-order:stroke fill markers;enable-background:accumulate;stop-color:#000000;stop-opacity:1"
         d="M 6.0606546,51.07598 H 103.54888"
         id="path24" /><g
         id="g21"><path
           style="baseline-shift:baseline;display:inline;overflow:visible;vector-effect:none;fill-rule:evenodd;enable-background:accumulate;stop-color:#000000;stop-opacity:1"
           d="m 5.4529576,51.07598 1.823091,-1.823091 h 1.215394 l -1.823091,1.823091 1.823091,1.823091 h -1.215394 z"
           id="path21" /><path
           style="baseline-shift:baseline;display:inline;overflow:visible;vector-effect:none;fill-rule:evenodd;enable-background:accumulate;stop-color:#000000;stop-opacity:1"
           d="m 104.15658,51.07598 -1.82309,1.823091 h -1.2154 l 1.82309,-1.823091 -1.82309,-1.823091 h 1.2154 z"
           id="path22" /></g></g><path
       d="m 34.772201,29.530163 h -3.04704 l 0.06348,-0.3174 q 0.3703,0 0.5819,-0.06348 0.22218,-0.06348 0.34914,-0.25392 0.13754,-0.20102 0.2116,-0.59248 l 0.94162,-4.52824 q 0.07406,-0.3703 0.04232,-0.55016 -0.03174,-0.19044 -0.23276,-0.25392 -0.20102,-0.07406 -0.6348,-0.07406 l 0.06348,-0.3174 h 5.45928 l -0.28566,1.72454 h -0.3174 q 0.01058,-0.50784 -0.06348,-0.7935 -0.06348,-0.28566 -0.35972,-0.40204 -0.29624,-0.11638 -0.98394,-0.11638 h -1.587 l -1.10032,5.41696 q -0.02116,0.1058 -0.03174,0.20102 -0.01058,0.08464 -0.01058,0.1587 0,0.27508 0.25392,0.35972 0.25392,0.08464 0.7406,0.08464 z m 1.9573,-2.36992 h -0.34914 q 0.08464,-0.45494 0.04232,-0.66654 -0.04232,-0.2116 -0.27508,-0.27508 -0.22218,-0.07406 -0.67712,-0.07406 h -1.24844 l 0.07406,-0.40204 h 1.28018 q 0.45494,0 0.69828,-0.08464 0.25392,-0.08464 0.38088,-0.30682 0.13754,-0.23276 0.22218,-0.65596 h 0.33856 z"
       id="text11"
       style="font-style:italic;font-size:10.58px;font-family:'STIX Two Text';-inkscape-font-specification:'STIX Two Text, Italic';font-variant-ligatures:none;stroke-width:0.449792"
       aria-label="F" /><path
       d="m 2.7670311,29.688863 h -0.3174 l 0.44436,-2.28528 h 0.29624 q 0.0529,0.73002 0.20102,1.12148 0.1587,0.39146 0.4761,0.53958 0.3174,0.14812 0.8464,0.14812 0.44436,0 0.78292,-0.12696 0.34914,-0.13754 0.55016,-0.40204 0.20102,-0.27508 0.20102,-0.67712 0.01058,-0.45494 -0.20102,-0.77234 -0.20102,-0.3174 -0.529,-0.56074 -0.32798,-0.25392 -0.70886,-0.48668 -0.34914,-0.22218 -0.64538,-0.45494 -0.28566,-0.23276 -0.46552,-0.55016 -0.16928,-0.32798 -0.16928,-0.81466 0,-0.61364 0.32798,-1.03684 0.32798,-0.4232 0.85698,-0.6348 0.529,-0.22218 1.12148,-0.22218 0.46552,0 0.71944,0.07406 0.2645,0.07406 0.41262,0.1587 0.14812,0.07406 0.2645,0.07406 0.13754,0 0.23276,-0.06348 0.1058,-0.07406 0.17986,-0.24334 h 0.25392 l -0.35972,2.05252 h -0.30682 q -0.03174,-0.87814 -0.3174,-1.2696 -0.28566,-0.40204 -1.08974,-0.40204 -0.65596,0 -1.02626,0.3174 -0.3703,0.3174 -0.3703,0.88872 0,0.3174 0.16928,0.5819 0.17986,0.2645 0.4761,0.48668 0.29624,0.22218 0.6348,0.43378 0.39146,0.25392 0.73002,0.50784 0.34914,0.25392 0.57132,0.59248 0.22218,0.33856 0.22218,0.8464 0,0.67712 -0.33856,1.15322 -0.33856,0.4761 -0.8993,0.7406 -0.56074,0.25392 -1.2167,0.25392 -0.55016,0 -0.86756,-0.08464 -0.3174,-0.07406 -0.49726,-0.14812 -0.16928,-0.08464 -0.29624,-0.08464 -0.1058,0 -0.2116,0.09522 -0.1058,0.09522 -0.13754,0.25392 z"
       id="text10"
       style="font-style:italic;font-size:10.58px;font-family:'STIX Two Text';-inkscape-font-specification:'STIX Two Text, Italic';font-variant-ligatures:none;stroke-width:0.449792"
       aria-label="S" /><path
       d="m 59.36458,49.48848 h -5.22652 l 0.06348,-0.3174 q 0.41262,0 0.62422,-0.07406 0.22218,-0.07406 0.33856,-0.28566 0.11638,-0.2116 0.20102,-0.6348 l 0.90988,-4.41186 q 0.07406,-0.34914 0.0529,-0.55016 -0.02116,-0.20102 -0.22218,-0.27508 -0.19044,-0.08464 -0.64538,-0.08464 l 0.06348,-0.3174 h 3.00472 l -0.0529,0.3174 q -0.38088,0 -0.6348,0.07406 -0.24334,0.06348 -0.39146,0.2645 -0.14812,0.20102 -0.23276,0.5819 l -0.96278,4.73984 q -0.07406,0.34914 0.07406,0.46552 0.14812,0.1058 0.61364,0.1058 h 0.49726 q 0.50784,0 0.82524,-0.08464 0.3174,-0.09522 0.53958,-0.28566 0.22218,-0.19044 0.41262,-0.50784 0.20102,-0.32798 0.44436,-0.78292 h 0.33856 z"
       id="text12"
       style="font-style:italic;font-size:10.58px;font-family:'STIX Two Text';-inkscape-font-specification:'STIX Two Text, Italic';font-variant-ligatures:none;stroke-width:0.449792"
       aria-label="L" /><path
       style="font-size:10.58px;font-family:'STIX Two Text';-inkscape-font-specification:'STIX Two Text, Italic';font-variant-ligatures:none;stroke-width:0.449792"
       d="m 17.784726,44.582183 c 0.7406,0 1.75628,-1.01568 2.1689,-1.7457 l -0.28566,-0.22218 c -0.4232,0.65596 -0.92046,1.2167 -1.30134,1.2167 -0.17986,0 -0.20102,-0.11638 -0.20102,-0.22218 0,-0.16928 0.06348,-0.40204 0.23276,-1.08974 l 0.4232,-1.70338 c 1.34366,-0.66654 2.4334,-1.67164 2.4334,-2.84602 0,-0.60306 -0.28566,-1.02626 -0.86756,-1.02626 -1.02626,0 -1.7986,1.35424 -2.23238,3.1211 l -0.16928,0.67712 c -0.49726,0.22218 -1.02626,0.39146 -1.52352,0.48668 l 0.0529,0.3703 c 0.43378,-0.08464 0.8993,-0.2116 1.35424,-0.3703 l -0.48668,1.98904 c -0.09522,0.39146 -0.11638,0.6348 -0.11638,0.77234 0,0.38088 0.17986,0.59248 0.51842,0.59248 z m 1.18496,-4.35896 0.1587,-0.6348 c 0.3703,-1.4812 0.67712,-2.21122 1.10032,-2.21122 0.27508,0 0.34914,0.3174 0.34914,0.60306 0,0.86756 -0.6877,1.65048 -1.60816,2.24296 z"
       id="text14"
       aria-label="𝓁" /><g
       id="g15"
       transform="translate(-1.0007741,5.3411124)"><path
         d="m 103.18564,23.659083 h -0.3174 l 0.44436,-2.28528 h 0.29624 q 0.0529,0.73002 0.20102,1.12148 0.1587,0.39146 0.4761,0.53958 0.3174,0.14812 0.8464,0.14812 0.44436,0 0.78292,-0.12696 0.34914,-0.13754 0.55016,-0.40204 0.20102,-0.27508 0.20102,-0.67712 0.0106,-0.45494 -0.20102,-0.77234 -0.20102,-0.3174 -0.529,-0.56074 -0.32798,-0.25392 -0.70886,-0.48668 -0.34914,-0.22218 -0.64538,-0.45494 -0.28566,-0.23276 -0.46552,-0.55016 -0.16928,-0.32798 -0.16928,-0.81466 0,-0.61364 0.32798,-1.03684 0.32798,-0.4232 0.85698,-0.6348 0.529,-0.22218 1.12148,-0.22218 0.46552,0 0.71944,0.07406 0.2645,0.07406 0.41262,0.1587 0.14812,0.07406 0.2645,0.07406 0.13754,0 0.23276,-0.06348 0.1058,-0.07406 0.17986,-0.24334 h 0.25392 l -0.35972,2.05252 h -0.30682 q -0.0317,-0.87814 -0.3174,-1.2696 -0.28566,-0.40204 -1.08974,-0.40204 -0.65596,0 -1.02626,0.3174 -0.3703,0.3174 -0.3703,0.88872 0,0.3174 0.16928,0.5819 0.17986,0.2645 0.4761,0.48668 0.29624,0.22218 0.6348,0.43378 0.39146,0.25392 0.73002,0.50784 0.34914,0.25392 0.57132,0.59248 0.22218,0.33856 0.22218,0.8464 0,0.67712 -0.33856,1.15322 -0.33856,0.4761 -0.8993,0.7406 -0.56074,0.25392 -1.2167,0.25392 -0.55016,0 -0.86756,-0.08464 -0.3174,-0.07406 -0.49726,-0.14812 -0.16928,-0.08464 -0.29624,-0.08464 -0.1058,0 -0.2116,0.09522 -0.1058,0.09522 -0.13754,0.25392 z"
         id="text13"
         style="font-style:italic;font-size:10.58px;font-family:'STIX Two Text';-inkscape-font-specification:'STIX Two Text, Italic';font-variant-ligatures:none;stroke-width:0.449792"
         aria-label="S" /><path
         d="m 111.04887,25.935247 h -2.68534 v -0.217311 q 0.55104,0 0.77611,-0.116416 0.22507,-0.116417 0.22507,-0.403578 v -3.282949 q 0,-0.201789 -0.0543,-0.287162 -0.0543,-0.09313 -0.20179,-0.09313 -0.0776,0 -0.21731,0.01552 -0.1397,0.01552 -0.29492,0.04657 -0.15522,0.02328 -0.2794,0.06209 v -0.256117 l 1.50566,-0.426861 h 0.22507 v 4.222044 q 0,0.287161 0.23283,0.403578 0.23283,0.116416 0.76835,0.116416 z"
         id="text15"
         style="font-size:7.76111px;font-family:'STIX Two Text';-inkscape-font-specification:'STIX Two Text, Normal';font-variant-ligatures:none;stroke-width:0.449792"
         aria-label="1" /></g></g></svg>
