<?xml version="1.0" standalone="no"?>
<!DOCTYPE svg PUBLIC "-//W3C//DTD SVG 20010904//EN"
 "http://www.w3.org/TR/2001/REC-SVG-20010904/DTD/svg10.dtd">
<svg version="1.0" xmlns="http://www.w3.org/2000/svg"
 width="1346.861776pt" height="1240.916387pt" viewBox="0 0 1346.861776 1240.916387"
 preserveAspectRatio="xMidYMid meet">
<metadata>
Created by potrace 1.16, written by Peter Selinger 2001-2019
</metadata>
<g transform="translate(-53.071633,1332.916387) scale(0.100000,-0.100000)"
fill="#000000" stroke="none">
<path d="M883 13322 c-7 -4 -23 -53 -36 -107 l-23 -100 -62 -15 c-68 -17 -93
-33 -75 -51 7 -7 26 -6 63 5 30 9 56 14 59 11 2 -3 0 -18 -5 -33 -8 -24 -15
-27 -62 -30 -44 -3 -53 -6 -50 -20 3 -13 14 -17 51 -15 l47 1 -2 -41 c-3 -36
0 -42 17 -42 17 0 21 8 23 45 3 45 14 60 43 60 15 0 16 -5 7 -40 -6 -23 -8
-43 -5 -47 15 -14 34 9 46 55 13 51 13 51 77 72 35 12 64 26 64 31 0 12 -40
11 -79 -2 -18 -6 -33 -10 -35 -8 -2 2 1 18 6 36 8 31 12 33 88 49 118 25 93
52 -27 30 l-42 -8 19 56 c16 46 16 57 5 66 -21 18 -31 6 -50 -62 -20 -73 -30
-88 -57 -88 -15 0 -18 5 -13 23 4 12 9 31 12 42 3 11 14 39 26 62 17 35 18 45
7 58 -14 17 -20 18 -37 7z m22 -260 c-4 -21 -14 -32 -32 -37 -32 -8 -32 -7
-21 32 6 22 15 33 31 35 29 5 30 4 22 -30z"/>
<path d="M1216 13228 c-16 -74 -66 -296 -72 -315 -5 -19 -2 -23 14 -23 16 0
24 9 31 38 5 20 24 91 41 157 40 150 41 159 13 163 -17 2 -24 -3 -27 -20z"/>
<path d="M1402 13219 c-42 -16 -111 -71 -137 -108 -41 -60 -29 -176 20 -195
46 -17 108 4 144 50 25 32 28 90 5 123 -15 21 -23 23 -72 19 l-56 -5 43 39
c50 43 86 56 112 39 25 -15 39 -14 39 3 0 38 -49 55 -98 35z m8 -190 c0 -24
-38 -69 -69 -80 -21 -9 -29 -7 -43 11 -22 27 -23 40 -3 40 8 0 15 8 15 18 0
22 27 48 55 54 22 5 45 -17 45 -43z"/>
<path d="M1568 13185 c-56 -31 -63 -82 -17 -127 30 -30 32 -31 100 -24 38 3
69 2 69 -3 0 -12 -50 -84 -69 -98 -24 -18 -45 -16 -66 7 -22 24 -58 23 -63 -2
-4 -23 53 -58 93 -58 57 0 128 70 141 137 10 53 -8 66 -82 58 -73 -8 -104 4
-104 40 0 40 32 50 165 50 100 0 120 3 120 15 0 22 -248 26 -287 5z"/>
<path d="M10117 13183 c-10 -9 -8 -220 3 -351 11 -137 24 -182 51 -182 24 0
39 36 39 96 0 29 4 44 13 44 6 0 43 -14 82 -30 77 -33 95 -36 95 -16 0 12 -97
62 -157 80 -39 12 -26 35 47 81 76 50 87 62 72 77 -23 23 -151 -52 -177 -102
-8 -16 -16 -51 -16 -77 -4 -107 -18 93 -17 228 0 75 -2 141 -6 148 -8 12 -19
14 -29 4z"/>
<path d="M9559 13118 c-5 -129 5 -482 16 -565 18 -135 20 -370 3 -375 -7 -3
-9 -12 -5 -22 7 -17 15 -18 95 -10 99 10 738 10 1127 0 432 -11 821 -16 1660
-21 440 -3 844 -8 897 -11 86 -6 98 -5 104 10 4 9 3 20 -1 24 -3 4 -475 10
-1048 14 -573 3 -1260 11 -1527 17 -585 13 -1118 16 -1181 6 -46 -7 -46 -7
-53 25 -3 18 -6 67 -6 110 0 75 1 78 25 84 14 4 55 27 91 51 83 57 108 58 169
5 82 -71 149 -73 277 -9 l59 30 28 -30 c59 -63 141 -69 246 -17 39 19 84 44
100 55 43 30 61 26 87 -20 44 -78 116 -89 247 -37 l81 31 49 -46 c29 -28 62
-48 83 -52 41 -8 109 14 197 63 l64 35 16 -21 c9 -12 24 -32 34 -46 35 -51
109 -45 209 16 l47 29 40 -42 c40 -41 41 -41 98 -37 45 4 74 14 131 48 l73 42
38 -41 c53 -57 81 -55 167 16 47 38 69 41 84 13 10 -19 50 -29 50 -12 0 4 -9
22 -20 40 -27 43 -63 43 -126 -3 -90 -64 -92 -65 -129 -21 -43 52 -71 51 -164
-4 -98 -58 -129 -58 -180 -2 -21 23 -46 42 -55 42 -10 0 -47 -18 -83 -40 -93
-56 -121 -54 -167 10 -21 30 -44 50 -55 50 -10 0 -62 -22 -115 -50 -122 -64
-150 -65 -203 -9 -54 58 -73 63 -141 38 -172 -63 -187 -62 -237 16 -45 70 -60
71 -176 4 -48 -28 -104 -54 -123 -59 -54 -12 -107 4 -138 41 -35 42 -63 41
-151 -5 -98 -51 -138 -50 -209 9 -30 25 -68 48 -85 51 -33 7 -85 -12 -154 -56
-54 -35 -59 -36 -52 -10 4 14 -1 22 -20 29 -23 9 -26 16 -31 93 -4 46 -8 184
-9 308 -3 224 -3 225 -25 228 -13 2 -22 -2 -23 -10z"/>
<path d="M13351 13071 c-6 -11 -18 -66 -26 -123 -24 -154 -23 -152 -42 -136
-23 19 -54 92 -62 147 -5 37 -10 46 -26 46 -51 0 1 -173 71 -234 39 -35 47
-37 67 -16 15 14 21 45 33 168 5 51 12 74 27 88 17 16 19 24 11 46 -12 34 -39
41 -53 14z"/>
<path d="M5695 12931 c-3 -5 6 -26 20 -47 43 -63 66 -157 72 -286 6 -129 -6
-216 -39 -286 -11 -24 -17 -46 -14 -50 16 -15 43 19 64 84 56 165 31 451 -50
567 -19 27 -42 35 -53 18z"/>
<path d="M4653 12868 c-78 -109 -123 -238 -123 -352 0 -109 34 -163 109 -173
33 -5 41 -3 41 11 0 10 -9 16 -25 16 -35 0 -71 39 -85 89 -24 92 38 291 120
384 16 19 30 42 30 51 0 30 -37 16 -67 -26z"/>
<path d="M1850 12855 c-162 -7 -464 -13 -670 -14 -363 -1 -477 -7 -588 -31
-54 -12 -74 -32 -53 -53 9 -9 16 -8 31 1 59 36 147 43 660 52 756 12 955 22
964 46 4 10 -2 14 -22 12 -15 0 -160 -7 -322 -13z"/>
<path d="M13408 12848 c-41 -21 -47 -40 -27 -97 28 -81 133 -48 146 46 9 70
-41 92 -119 51z m72 -46 c0 -36 -31 -67 -48 -50 -16 16 -15 29 4 56 22 31 44
28 44 -6z"/>
<path d="M3834 12825 c-8 -20 -21 -82 -28 -138 -14 -105 -23 -137 -36 -137
-29 0 -70 102 -70 175 0 47 -22 77 -42 57 -9 -9 -9 -31 0 -87 19 -125 69 -195
128 -181 33 9 51 53 59 142 4 38 11 90 16 115 9 39 14 46 30 42 14 -4 19 0 19
15 0 20 -18 32 -46 32 -8 0 -22 -16 -30 -35z"/>
<path d="M13880 12813 c-29 -24 -33 -25 -42 -10 -12 22 -66 22 -90 1 -13 -13
-21 -14 -32 -5 -27 23 -43 3 -44 -57 -1 -31 -3 -68 -4 -82 -2 -19 2 -26 17
-28 17 -2 27 11 55 70 39 81 62 94 70 38 7 -51 32 -50 69 3 26 39 48 57 68 57
3 0 3 -26 1 -57 -2 -47 0 -58 13 -61 31 -6 51 96 29 139 -16 29 -71 25 -110
-8z"/>
<path d="M5990 12671 c0 -88 4 -171 9 -184 22 -56 79 -40 128 35 l28 41 6 -32
c10 -48 36 -71 81 -71 40 0 125 37 147 64 20 24 3 40 -25 22 -13 -9 -45 -25
-73 -35 -41 -17 -52 -18 -67 -6 -22 16 -22 88 1 178 8 33 13 63 9 68 -13 22
-33 6 -48 -38 -20 -59 -86 -171 -119 -201 l-25 -24 -7 23 c-4 12 -6 88 -4 168
4 145 4 146 -18 149 l-23 3 0 -160z"/>
<path d="M2903 12778 c-17 -31 -18 -73 -15 -623 3 -597 0 -687 -35 -839 -8
-37 -24 -77 -34 -87 -23 -23 -23 -28 -4 -49 36 -40 77 -277 95 -550 24 -371
31 -452 45 -517 22 -104 50 -178 68 -181 22 -4 21 2 -3 74 -34 99 -50 215 -66
503 -17 317 -34 464 -69 607 -21 82 -23 107 -15 130 19 49 38 155 50 274 7 73
10 311 8 650 -2 388 0 542 9 561 9 22 16 25 47 21 30 -3 36 -1 36 14 0 21 -41
44 -77 44 -15 0 -28 -11 -40 -32z"/>
<path d="M5447 12758 c-9 -29 -18 -99 -21 -156 -4 -86 -3 -104 10 -109 30 -11
39 17 44 135 l5 117 19 -58 c34 -100 88 -129 123 -64 17 32 17 32 21 7 7 -58
33 -128 49 -134 23 -9 39 9 24 28 -9 10 -47 201 -51 254 0 1 -11 2 -24 2 -20
0 -25 -7 -36 -60 -7 -33 -18 -67 -25 -76 -13 -19 -17 -10 -52 101 -15 52 -22
60 -44 63 -24 3 -28 -2 -42 -50z"/>
<path d="M2213 12768 c-7 -8 -13 -165 -16 -423 -4 -225 -13 -513 -21 -640 -18
-262 -20 -554 -6 -765 5 -80 12 -268 15 -418 6 -233 5 -276 -8 -290 -8 -9 -17
-29 -21 -44 -12 -54 -5 -53 -631 -53 -319 0 -626 2 -682 5 -108 5 -144 -8 -63
-23 25 -5 336 -11 691 -14 730 -5 694 -9 730 70 16 37 19 67 19 247 0 113 -7
345 -16 515 -18 319 -15 467 16 981 6 88 15 307 20 485 6 178 11 335 13 349 2
27 -23 39 -40 18z"/>
<path d="M3258 12699 c-6 -19 18 -159 30 -171 18 -18 37 -2 49 44 6 24 24 57
39 73 26 28 28 28 35 10 4 -11 8 -33 8 -48 1 -36 18 -67 36 -67 7 0 31 25 53
56 l40 57 11 -39 c5 -21 13 -51 16 -66 8 -34 32 -55 46 -41 13 13 -26 164 -47
180 -21 16 -49 3 -86 -41 l-27 -31 -1 26 c0 15 -8 37 -18 49 -24 29 -63 21
-103 -21 l-28 -30 -3 33 c-2 25 -8 34 -24 36 -12 2 -24 -2 -26 -9z"/>
<path d="M5197 12703 c-4 -3 -7 -17 -7 -29 0 -16 -7 -24 -22 -26 -15 -2 -23
-10 -23 -23 0 -13 8 -21 23 -23 20 -3 22 -9 22 -63 0 -52 2 -59 20 -59 17 0
20 7 20 43 0 72 8 87 46 87 36 0 55 17 33 31 -8 5 -26 9 -41 9 -24 0 -28 4
-28 30 0 22 -5 30 -18 30 -10 0 -22 -3 -25 -7z"/>
<path d="M4720 12686 c0 -7 7 -27 15 -42 8 -16 15 -36 15 -45 0 -30 21 -77 37
-83 22 -9 50 19 64 62 9 29 13 32 21 19 5 -9 18 -21 28 -27 16 -9 27 -4 60 26
27 25 41 32 44 23 18 -68 22 -74 49 -77 30 -4 35 11 12 34 -8 9 -15 27 -15 40
0 36 -18 64 -40 64 -11 0 -35 -14 -55 -31 l-35 -31 -10 26 c-6 16 -17 26 -29
26 -22 0 -57 -33 -67 -62 -8 -26 -24 -22 -24 6 0 47 -21 86 -46 86 -14 0 -24
-6 -24 -14z"/>
<path d="M12601 12673 c-80 -2 -150 -8 -157 -14 -13 -10 -13 -12 1 -274 8
-140 10 -151 33 -174 l24 -24 216 7 c119 3 217 8 219 10 2 2 5 48 7 102 2 54
9 150 15 213 7 63 10 125 7 137 -7 27 32 25 -365 17z m315 -58 c4 -14 1 -74
-6 -133 -6 -59 -14 -137 -17 -173 l-6 -67 -45 -6 c-24 -3 -110 -6 -189 -6
-124 0 -144 2 -139 15 3 8 -1 47 -8 87 -8 40 -17 123 -21 185 l-7 112 94 4
c51 1 148 4 215 5 l123 2 6 -25z"/>
<path d="M12584 12537 c-2 -7 -3 -65 -2 -127 3 -100 5 -115 21 -118 14 -3 17
5 18 50 0 29 3 71 7 93 l8 40 23 -42 c13 -23 31 -45 39 -48 20 -7 52 4 52 18
0 22 20 -17 20 -40 0 -34 21 -73 40 -73 25 0 31 10 17 34 -6 11 -14 66 -17
121 -4 85 -8 100 -22 103 -14 3 -25 -12 -44 -58 l-27 -61 -38 61 c-31 48 -44
60 -64 60 -14 0 -28 -6 -31 -13z"/>
<path d="M4153 12635 c-3 -10 -1 -20 5 -24 20 -12 225 -7 229 6 5 14 -25 19
-145 28 -71 6 -83 4 -89 -10z"/>
<path d="M4195 12570 c-12 -20 7 -30 53 -29 68 0 125 12 130 27 5 15 -173 17
-183 2z"/>
<path d="M3964 12551 c-40 -24 -61 -73 -46 -106 7 -14 19 -25 28 -25 12 0 14
6 9 30 -5 25 -1 35 23 60 36 35 60 38 96 9 66 -52 -8 -171 -79 -125 -32 21
-45 20 -45 -2 0 -17 21 -32 63 -46 29 -9 85 20 107 56 22 36 26 88 10 119 -26
47 -112 63 -166 30z"/>
<path d="M13696 12547 c-12 -12 -27 -31 -33 -42 -10 -17 -25 -19 -188 -20
l-177 -2 31 29 c17 16 29 34 26 39 -12 18 -42 9 -103 -30 -58 -38 -81 -69 -67
-92 8 -12 90 -49 111 -49 20 0 18 26 -3 34 -41 16 13 29 140 34 151 5 187 0
187 -27 0 -49 106 -79 168 -47 36 19 72 66 72 96 0 29 -26 77 -49 90 -35 18
-90 12 -115 -13z m96 -34 c27 -25 22 -58 -14 -88 -26 -22 -39 -26 -66 -21 -46
7 -48 10 -26 52 39 73 70 90 106 57z"/>
<path d="M1394 12443 c-3 -10 -10 -29 -15 -43 -9 -29 -36 -160 -41 -205 -2
-24 1 -30 16 -30 17 0 22 12 34 75 13 75 32 116 32 71 0 -25 17 -62 34 -73 27
-18 56 -6 95 38 l41 47 0 -72 c0 -55 3 -71 14 -71 8 0 17 3 19 8 3 4 8 64 11
135 7 123 7 127 -13 127 -14 0 -26 -13 -40 -45 -28 -63 -79 -135 -96 -135 -8
0 -15 1 -15 3 0 15 -31 170 -35 177 -10 16 -35 11 -41 -7z"/>
<path d="M682 12411 c-6 -4 -11 -39 -11 -86 0 -44 -1 -91 -3 -105 -2 -19 2
-26 19 -28 16 -2 23 3 28 26 3 16 26 49 51 73 l46 44 -4 -55 c-4 -75 16 -78
72 -8 68 86 74 85 67 -11 -5 -73 -3 -81 13 -81 19 0 25 16 35 95 13 100 -30
134 -102 79 -33 -25 -34 -25 -40 -6 -10 42 -50 35 -105 -16 l-28 -26 0 51 c0
51 -13 70 -38 54z"/>
<path d="M1057 12223 c-2 -5 -5 -45 -6 -91 -2 -75 0 -83 16 -80 13 2 20 21 30
78 7 41 11 81 8 88 -5 13 -41 17 -48 5z"/>
<path d="M4110 12141 c-14 -4 -25 -13 -25 -21 0 -10 9 -14 25 -13 38 3 67 -5
73 -21 3 -7 -12 -38 -33 -67 -42 -57 -50 -98 -25 -119 19 -16 145 -25 164 -12
25 18 0 32 -57 32 -89 0 -94 9 -44 79 23 33 42 69 42 80 0 22 -36 61 -56 61
-7 0 -18 2 -26 4 -7 2 -24 1 -38 -3z"/>
<path d="M3914 12074 c-8 -20 -27 -86 -41 -147 l-26 -112 -18 41 c-10 22 -29
83 -43 135 -17 69 -29 95 -41 97 -34 7 -32 -21 5 -132 49 -147 65 -176 94
-176 35 0 44 17 67 121 26 122 40 169 51 169 4 0 8 9 8 20 0 36 -39 25 -56
-16z"/>
<path d="M4806 11993 c-51 -77 -58 -196 -19 -295 42 -106 158 -269 181 -254 9
5 7 15 -8 36 l-21 29 33 5 c18 3 56 8 84 11 69 7 801 8 813 0 18 -11 524 -10
528 1 4 13 -152 24 -328 24 l-118 0 22 48 c28 61 31 215 4 275 -22 51 -75 117
-93 117 -30 0 -27 -31 8 -68 49 -52 63 -94 63 -192 0 -65 -5 -94 -20 -125
l-20 -40 -430 -2 c-236 -1 -463 -5 -503 -10 -82 -10 -75 -15 -127 87 -68 135
-72 243 -10 335 14 20 23 41 20 46 -12 19 -36 8 -59 -28z"/>
<path d="M6353 12020 c-13 -6 -23 -18 -23 -30 0 -21 24 -28 35 -10 9 14 68 13
83 -2 19 -19 14 -46 -19 -94 -39 -58 -42 -93 -9 -112 32 -17 273 -10 296 9 26
21 1 28 -71 19 -78 -10 -205 -2 -205 12 0 6 16 36 36 69 34 54 36 61 24 89
-21 51 -88 73 -147 50z"/>
<path d="M3529 11979 c-16 -17 -29 -36 -29 -42 0 -6 -7 -1 -16 11 -24 35 -75
30 -111 -12 l-30 -33 -9 41 c-6 28 -15 42 -28 44 -26 5 -42 -13 -27 -31 6 -8
14 -51 18 -96 5 -70 8 -81 25 -81 13 0 26 17 44 57 26 60 61 106 75 98 4 -3
10 -28 14 -55 10 -74 34 -68 75 18 37 76 33 79 62 -48 11 -45 17 -56 36 -58
27 -4 27 -8 0 103 -30 128 -46 141 -99 84z"/>
<path d="M5833 11918 c-6 -7 -20 -44 -33 -81 -26 -79 -33 -78 -66 11 -12 31
-28 61 -36 66 -39 24 -61 -19 -74 -147 -7 -68 -7 -69 17 -65 26 3 36 30 38
108 l1 45 24 -52 c37 -79 83 -95 116 -41 l19 32 3 -70 c2 -56 6 -69 21 -72 15
-3 17 8 17 125 0 87 -4 133 -12 141 -15 15 -23 15 -35 0z"/>
<path d="M6153 11898 c-20 -25 -54 -131 -59 -187 -5 -46 -3 -59 10 -70 26 -22
71 -17 115 12 l41 27 0 -33 c0 -37 15 -57 41 -57 24 0 33 18 18 36 -8 10 -10
36 -6 83 5 59 3 70 -11 76 -11 4 -21 0 -27 -12 -17 -31 -104 -113 -120 -113
-9 0 -18 7 -21 15 -9 22 12 100 43 164 21 44 23 55 12 62 -19 12 -25 11 -36
-3z"/>
<path d="M727 11884 c-4 -4 -7 -35 -7 -68 0 -34 -7 -99 -15 -146 -21 -118 -20
-150 4 -150 19 0 37 42 26 60 -6 10 21 70 31 70 4 0 4 -11 0 -23 -10 -40 13
-57 93 -68 48 -7 77 -7 83 -1 17 17 -1 32 -36 32 -61 0 -96 11 -96 31 0 21 54
79 99 105 17 10 31 24 31 31 0 22 -39 14 -111 -22 -39 -19 -71 -35 -73 -35 -2
0 1 23 6 51 13 70 7 133 -12 137 -9 1 -19 0 -23 -4z"/>
<path d="M4001 11847 c-16 -20 -2 -28 35 -21 38 7 74 -22 74 -60 0 -51 -50
-59 -72 -11 -15 32 -48 34 -48 2 0 -35 42 -69 85 -70 48 -1 75 29 75 83 0 30
-6 44 -31 64 -34 29 -98 36 -118 13z"/>
<path d="M5407 11854 c-4 -4 -7 -27 -7 -52 l0 -44 -56 7 c-54 6 -56 6 -52 -17
3 -21 8 -23 53 -23 49 0 50 0 55 -35 3 -23 11 -36 23 -38 14 -3 17 4 17 37 l0
41 40 0 c29 0 40 4 40 15 0 11 -11 15 -41 15 l-41 0 7 38 c4 20 7 41 8 47 2
11 -36 19 -46 9z"/>
<path d="M4894 11827 c-3 -8 -4 -45 -2 -83 3 -62 5 -69 24 -72 16 -2 23 4 28
21 6 26 49 77 66 77 5 0 10 -20 10 -45 0 -37 3 -45 18 -45 10 0 28 13 40 30
26 35 78 65 87 50 4 -6 5 -34 4 -63 -3 -42 0 -53 14 -55 31 -6 50 85 27 128
-20 37 -46 43 -97 20 l-46 -20 -14 20 c-17 24 -60 26 -91 4 -21 -15 -22 -14
-22 15 0 24 -4 31 -20 31 -11 0 -23 -6 -26 -13z"/>
<path d="M1408 11811 c-14 -11 -51 -58 -83 -106 -75 -111 -82 -116 -90 -72 -4
20 -5 66 -3 104 3 67 2 68 -22 68 -24 0 -24 0 -22 -90 6 -202 49 -213 164 -44
32 46 71 96 88 110 23 19 27 28 18 37 -16 16 -21 15 -50 -7z"/>
<path d="M7245 11693 c-11 -2 -45 -16 -76 -30 -72 -31 -99 -75 -99 -158 0 -31
5 -65 11 -77 23 -44 140 -64 198 -33 26 13 30 13 47 -6 30 -33 74 -53 88 -39
8 8 6 14 -9 22 -10 6 -30 22 -42 34 l-23 23 34 45 c58 76 56 170 -4 201 -32
17 -96 26 -125 18z m111 -59 c22 -21 25 -31 19 -62 -7 -40 -41 -102 -56 -102
-4 0 -12 15 -17 33 -6 22 -15 33 -30 35 -32 5 -37 -22 -13 -63 12 -20 21 -38
21 -40 0 -11 -74 -25 -104 -20 -54 11 -69 34 -64 100 5 64 30 97 93 126 60 28
120 25 151 -7z"/>
<path d="M11852 11673 c-19 -35 -32 -126 -32 -213 0 -77 3 -93 20 -110 11 -11
26 -20 34 -20 24 0 62 37 81 80 l19 41 24 -30 c21 -28 29 -31 75 -31 61 1 125
14 141 30 21 21 -13 27 -77 14 -109 -23 -124 -7 -106 110 11 67 4 96 -19 82
-5 -3 -31 -55 -57 -115 -26 -60 -55 -117 -66 -127 -17 -16 -19 -16 -25 1 -11
29 3 199 20 240 9 21 14 45 12 52 -8 19 -34 16 -44 -4z"/>
<path d="M1470 11659 c-37 -15 -70 -50 -70 -74 0 -11 -5 -26 -11 -32 -14 -14
-3 -67 17 -84 24 -20 72 -15 100 12 53 49 82 142 51 167 -20 17 -60 22 -87 11z
m57 -45 c8 -21 -26 -93 -54 -111 -30 -20 -43 -9 -43 38 0 29 7 47 25 64 27 28
63 33 72 9z"/>
<path d="M13407 11624 c-9 -9 -9 -276 -1 -298 3 -9 15 -16 25 -16 15 0 17 5
13 30 -4 16 -3 68 1 116 7 82 8 85 23 62 63 -95 132 -108 132 -25 0 12 4 28 8
35 6 8 17 -20 30 -75 23 -92 40 -120 67 -110 12 5 14 11 5 26 -5 11 -19 59
-31 108 -28 118 -43 145 -77 141 -24 -3 -28 -9 -36 -53 -13 -80 -15 -83 -34
-57 -10 13 -29 45 -43 70 -18 33 -33 48 -50 50 -14 2 -28 0 -32 -4z"/>
<path d="M3304 11611 c-2 -2 -4 -10 -4 -17 0 -10 94 -12 465 -11 256 1 465 5
465 8 0 4 -8 11 -17 15 -18 8 -901 13 -909 5z"/>
<path d="M6767 11604 c-4 -4 -7 -22 -7 -40 0 -32 -2 -33 -47 -39 -67 -9 -75
-13 -71 -32 4 -19 28 -21 86 -8 l32 8 0 -42 c0 -34 3 -41 20 -41 17 0 20 7 20
40 l0 40 65 0 c48 0 65 4 65 14 0 13 -48 26 -103 26 -26 0 -28 2 -25 37 2 27
-1 38 -12 40 -9 2 -19 1 -23 -3z"/>
<path d="M4380 11581 c0 -20 5 -21 124 -21 78 0 127 4 131 11 4 6 5 12 4 13
-2 2 -61 7 -131 10 -125 7 -128 7 -128 -13z"/>
<path d="M1025 11578 c-3 -7 -6 -49 -7 -93 -3 -66 0 -80 12 -80 11 0 19 21 29
78 7 42 11 84 7 92 -7 18 -35 20 -41 3z"/>
<path d="M13160 11556 c0 -7 7 -30 15 -49 19 -46 19 -47 -4 -47 -33 0 -51 -11
-51 -32 0 -18 5 -20 34 -15 37 6 46 -6 46 -65 0 -37 10 -58 27 -58 12 0 14 13
11 70 l-3 69 40 3 c28 2 40 8 40 18 0 11 -11 15 -42 15 -40 0 -41 1 -48 40 -3
21 -11 45 -17 52 -14 17 -48 17 -48 -1z"/>
<path d="M9588 11053 c2 -274 5 -503 7 -509 2 -8 129 -13 427 -18 233 -3 500
-9 593 -12 123 -4 212 -2 323 10 126 13 288 16 961 16 762 0 815 -1 922 -20
94 -16 160 -20 372 -20 241 0 258 1 255 18 -3 16 -28 18 -298 23 -162 3 -313
11 -335 17 -22 5 -76 14 -120 18 -80 8 -80 8 -35 16 25 4 113 10 195 12 132 3
156 6 195 26 25 12 53 29 63 38 21 18 22 71 2 98 -20 26 -19 58 5 104 23 46
26 93 6 109 -8 7 -31 15 -51 18 -37 6 -37 7 -31 44 10 64 4 69 -88 69 -44 -1
-115 -5 -156 -11 -41 -5 -119 -12 -173 -16 -127 -8 -137 -16 -137 -111 0 -64
-2 -70 -22 -76 -43 -11 -57 -6 -73 24 -30 58 -52 59 -166 4 -85 -41 -112 -49
-158 -49 -48 0 -63 5 -101 33 -24 17 -52 32 -62 32 -10 0 -44 -13 -76 -29
-124 -63 -187 -63 -282 0 -54 36 -74 34 -188 -16 -132 -57 -197 -55 -274 10
-40 34 -76 32 -178 -11 -85 -35 -176 -52 -222 -41 -14 4 -42 20 -63 37 -21 16
-47 30 -59 30 -11 0 -68 -17 -126 -37 -88 -31 -118 -38 -186 -38 -79 0 -83 1
-140 40 -73 51 -102 50 -246 -4 -73 -28 -123 -41 -157 -41 -88 0 -81 -32 -81
361 l0 349 -22 0 -23 0 3 -497z m3398 -115 c-4 -73 -12 -168 -18 -210 l-11
-76 -96 -6 c-53 -4 -137 -11 -188 -16 -50 -6 -101 -10 -112 -10 -21 0 -21 4
-21 205 0 204 0 205 23 209 78 16 247 34 331 35 l99 1 -7 -132z m110 8 c3 -8
-6 -37 -20 -65 -30 -59 -32 -92 -10 -131 21 -35 14 -54 -27 -76 l-32 -16 7 53
c3 30 9 98 13 152 l6 97 29 0 c16 0 31 -6 34 -14z m-742 -51 c17 -39 62 -57
109 -44 l28 8 -2 -116 c-1 -97 1 -118 15 -128 28 -21 18 -35 -26 -35 -24 0
-302 0 -618 0 -561 0 -791 -7 -1015 -30 -82 -9 -179 -9 -385 0 -151 6 -396 15
-545 18 l-270 7 -5 111 -5 112 75 4 c57 4 99 15 178 47 56 22 114 41 127 41
14 0 48 -17 77 -37 l52 -38 106 0 c93 0 115 4 195 33 49 17 97 32 107 32 10 0
37 -14 60 -30 77 -55 168 -51 310 11 36 16 78 29 92 29 15 0 49 -16 77 -35 46
-31 58 -35 118 -35 53 0 83 7 151 36 122 51 122 51 182 13 49 -32 58 -34 138
-34 76 0 92 4 151 33 37 17 70 32 74 32 4 0 20 -11 36 -24 16 -14 52 -29 81
-35 67 -14 146 5 233 54 33 19 66 34 72 35 7 0 19 -16 27 -35z"/>
<path d="M4545 11524 c-117 -11 -145 -16 -145 -29 0 -20 19 -23 105 -13 100
12 136 20 138 33 2 11 -35 14 -98 9z"/>
<path d="M12980 11471 l-37 -38 -9 31 c-13 44 -52 48 -87 7 l-25 -30 -6 25
c-8 32 -53 31 -48 -1 17 -134 27 -175 43 -175 18 0 22 9 34 70 4 19 14 51 23
70 l16 34 11 -44 c9 -38 15 -46 37 -48 22 -3 32 5 59 44 28 42 33 45 40 28 4
-10 8 -31 8 -46 1 -41 11 -58 33 -58 16 0 19 5 14 23 -3 12 -6 43 -6 69 0 84
-42 100 -100 39z"/>
<path d="M3673 11413 c-30 -6 -49 -31 -35 -45 7 -7 25 -7 60 2 99 26 107 -4
21 -84 -44 -42 -59 -63 -57 -79 3 -21 7 -22 122 -22 79 0 121 4 123 11 3 8
-30 14 -97 18 l-100 8 55 49 c56 52 70 77 60 107 -10 35 -76 50 -152 35z"/>
<path d="M5463 11403 c-15 -3 -23 -12 -23 -24 0 -18 5 -19 59 -13 86 9 91 0
35 -57 -40 -41 -47 -52 -38 -67 20 -31 291 -27 274 4 -3 5 -30 9 -60 9 -30 1
-79 2 -109 3 l-54 2 37 36 c78 76 13 133 -121 107z"/>
<path d="M1830 11170 c-52 -4 -352 -8 -667 -9 -553 -1 -608 -4 -577 -30 11 -9
1382 4 1447 14 30 5 47 12 47 21 0 16 -78 17 -250 4z"/>
<path d="M11771 11119 c-99 -31 -121 -43 -121 -65 0 -19 25 -29 107 -43 78
-14 109 -7 78 16 -16 11 29 13 293 13 271 0 312 2 312 15 0 13 -35 15 -259 15
-142 0 -287 3 -322 7 l-64 7 55 16 c35 10 56 22 58 33 5 24 -26 21 -137 -14z
m42 -76 c-7 -2 -21 -2 -30 0 -10 3 -4 5 12 5 17 0 24 -2 18 -5z"/>
<path d="M4315 11050 c-8 -13 12 -40 31 -40 16 0 70 -108 90 -180 8 -30 17
-103 21 -162 5 -97 4 -110 -16 -148 -23 -44 -22 -56 3 -47 89 34 64 383 -39
536 -30 46 -74 66 -90 41z"/>
<path d="M3335 10993 c-39 -40 -70 -97 -101 -188 -22 -65 -28 -99 -28 -180 -1
-88 2 -107 25 -155 32 -67 62 -105 76 -97 7 5 -2 32 -25 78 -30 58 -37 84 -40
143 -7 128 50 297 124 371 19 19 34 39 34 45 0 20 -38 10 -65 -17z"/>
<path d="M4820 10995 c-20 -24 -2 -35 44 -29 47 7 136 -24 136 -47 0 -7 -20
-33 -45 -60 -85 -91 -69 -135 56 -150 110 -12 139 -11 139 5 0 10 -17 16 -57
21 -160 18 -170 29 -99 105 52 56 58 85 22 119 -45 43 -171 66 -196 36z"/>
<path d="M6258 10949 c-10 -5 -18 -16 -18 -23 0 -18 23 -26 41 -15 34 22 79
-3 79 -43 0 -12 -15 -44 -34 -72 -43 -64 -50 -87 -33 -110 22 -30 181 -26 162
4 -3 5 -30 10 -60 10 -30 0 -57 5 -60 11 -4 5 8 34 27 62 46 70 50 84 37 124
-17 52 -93 80 -141 52z"/>
<path d="M1330 10892 c-22 -10 -36 -26 -38 -39 -4 -30 19 -30 58 -2 17 13 50
24 79 27 65 6 75 -13 35 -64 -99 -123 -118 -160 -94 -189 20 -24 43 -19 36 8
-6 26 20 71 85 149 49 58 55 82 30 107 -28 28 -139 29 -191 3z"/>
<path d="M5729 10878 c0 -13 -7 -79 -15 -148 -9 -69 -15 -142 -15 -162 0 -33
-3 -37 -27 -40 -19 -2 -27 -9 -27 -23 0 -20 8 -20 369 -23 363 -3 423 -1 411
18 -4 6 -113 10 -273 11 -147 1 -298 4 -337 8 -68 6 -70 7 -73 34 -2 16 2 35
9 43 10 13 14 13 29 -1 17 -15 101 -35 152 -35 53 0 24 24 -48 40 -38 9 -69
20 -68 25 0 10 23 26 109 77 45 27 52 48 17 48 -9 0 -55 -22 -101 -50 -47 -27
-86 -48 -88 -46 -2 1 2 36 7 77 26 188 26 169 -4 169 -20 0 -26 -5 -27 -22z"/>
<path d="M4075 10868 c-6 -20 -34 -209 -37 -253 -2 -30 1 -40 14 -43 24 -5 37
26 44 107 l7 71 18 -30 c27 -43 61 -57 92 -37 23 15 23 14 40 -34 19 -52 56
-85 83 -75 15 6 15 9 -3 29 -35 38 -45 68 -52 146 -5 66 -9 76 -25 76 -14 0
-22 -12 -31 -43 -31 -105 -57 -90 -95 56 -8 32 -16 42 -31 42 -11 0 -21 -6
-24 -12z"/>
<path d="M4663 10832 c-15 -10 -54 -151 -56 -206 -3 -83 59 -104 119 -40 20
21 34 29 34 21 0 -41 73 -53 102 -17 37 45 14 68 -29 29 -27 -27 -31 -19 -35
66 -2 47 -7 61 -20 63 -12 2 -20 -7 -27 -36 -13 -47 -66 -122 -86 -122 -10 0
-15 10 -15 28 0 43 29 144 48 165 24 27 -5 68 -35 49z"/>
<path d="M6176 10768 l-17 -43 -19 24 c-11 13 -20 29 -20 37 0 8 -10 14 -25
14 -36 0 -33 -34 9 -81 l35 -38 -20 -51 c-11 -28 -17 -55 -14 -61 12 -19 27
-8 46 36 l20 46 26 -21 c53 -42 75 -13 22 31 l-31 25 26 52 c32 63 32 72 3 72
-19 0 -28 -9 -41 -42z"/>
<path d="M3357 10793 c-9 -14 2 -246 12 -256 14 -14 29 0 36 36 10 45 55 126
78 138 17 10 18 6 16 -53 -3 -58 -1 -63 19 -66 16 -3 26 6 41 37 28 54 96 125
112 116 9 -6 10 -35 6 -106 -6 -93 -5 -99 13 -99 23 0 34 45 33 143 0 116 -50
138 -132 59 l-39 -37 -10 28 c-15 40 -59 37 -103 -8 l-34 -35 -5 53 c-4 38 -9
53 -22 55 -9 2 -18 -1 -21 -5z"/>
<path d="M647 10773 c-11 -11 -8 -18 24 -54 17 -19 47 -53 66 -76 l34 -41 -25
-51 c-14 -28 -26 -55 -26 -61 0 -22 32 -8 48 21 35 64 35 63 73 40 39 -24 99
-28 99 -7 0 7 -14 16 -31 20 -17 3 -44 15 -60 27 l-29 20 26 52 c15 29 31 55
37 58 16 11 -1 41 -20 37 -10 -2 -29 -24 -43 -50 -14 -26 -28 -50 -32 -53 -3
-3 -27 23 -54 59 -44 60 -69 77 -87 59z"/>
<path d="M3881 10767 c-6 -6 -11 -33 -11 -59 0 -53 -2 -54 -62 -36 -29 8 -42
8 -50 0 -19 -19 8 -40 63 -47 l49 -7 0 -49 c0 -42 3 -49 20 -49 17 0 20 7 20
50 0 49 1 50 29 50 40 0 84 18 76 30 -3 5 -28 10 -54 10 l-48 0 5 54 c3 41 1
54 -11 59 -8 3 -20 0 -26 -6z"/>
<path d="M7138 10757 c-14 -13 -33 -36 -43 -50 -9 -15 -23 -27 -30 -27 -29 0
-80 -122 -91 -217 -6 -54 -4 -63 15 -82 29 -29 78 -27 131 7 l44 27 22 -22
c25 -25 54 -30 54 -10 0 8 -11 24 -24 36 l-24 22 33 55 c58 95 71 218 30 264
-26 28 -85 27 -117 -3z m93 -29 c17 -33 5 -127 -25 -185 -30 -60 -42 -70 -49
-43 -6 24 -45 27 -54 4 -3 -8 4 -25 16 -37 l21 -23 -42 -27 c-48 -31 -61 -33
-78 -12 -10 12 -10 28 -1 76 16 80 29 107 53 111 14 2 26 19 39 52 21 56 64
106 91 106 9 0 23 -10 29 -22z"/>
<path d="M1140 10681 c-80 -5 -95 -9 -98 -23 -3 -16 5 -18 61 -18 85 0 177 19
177 36 0 8 -9 13 -22 12 -13 -1 -66 -4 -118 -7z"/>
<path d="M6617 10623 c-4 -3 -7 -28 -7 -55 l0 -48 -46 0 c-41 0 -45 -2 -42
-22 3 -20 8 -23 44 -20 47 2 54 -8 54 -81 0 -31 3 -38 18 -35 14 3 18 16 20
66 2 44 7 62 16 62 8 0 17 7 20 16 9 24 8 26 -15 19 -19 -6 -20 -3 -19 37 1
23 1 49 1 56 -1 13 -33 17 -44 5z"/>
<path d="M12490 10500 c0 -23 4 -30 20 -30 16 0 20 7 20 30 0 23 -4 30 -20 30
-16 0 -20 -7 -20 -30z"/>
<path d="M1455 10500 c-12 -19 16 -40 51 -40 41 0 46 21 9 38 -32 15 -52 15
-60 2z"/>
<path d="M5203 10494 c-3 -8 -2 -19 3 -23 16 -14 284 0 284 14 0 15 -74 25
-193 25 -70 0 -89 -3 -94 -16z"/>
<path d="M3300 10476 c0 -18 -3 -18 105 -20 44 -2 262 -8 485 -14 509 -15
1080 -6 1080 16 0 13 -43 14 -342 8 -304 -6 -733 2 -1180 21 -133 5 -148 4
-148 -11z"/>
<path d="M12480 10396 c0 -61 12 -89 30 -70 4 5 10 36 12 69 3 56 1 60 -19 63
-22 3 -23 0 -23 -62z"/>
<path d="M5321 10409 c-56 -4 -105 -10 -108 -13 -3 -3 -3 -12 1 -21 4 -12 14
-14 38 -10 18 3 75 9 126 14 51 5 95 11 98 14 11 11 -7 27 -29 26 -12 -1 -69
-5 -126 -10z"/>
<path d="M5953 10409 c-24 -7 -33 -16 -33 -30 0 -18 4 -20 28 -15 65 17 83 18
97 6 26 -22 17 -40 -62 -115 -67 -63 -76 -77 -67 -92 16 -25 95 -28 168 -6 70
22 91 49 30 39 -22 -3 -64 -9 -94 -12 l-55 -5 50 47 c62 58 85 91 85 125 0 52
-73 81 -147 58z"/>
<path d="M3883 10283 c-7 -2 -13 -14 -13 -25 0 -18 5 -19 54 -13 57 7 96 -5
96 -30 0 -8 -22 -31 -50 -52 -52 -38 -66 -75 -34 -87 46 -17 244 7 251 31 3 9
-22 11 -104 6 l-108 -6 48 45 c50 47 54 57 36 90 -20 36 -126 62 -176 41z"/>
<path d="M12477 10244 c-11 -12 -8 -82 5 -90 17 -11 39 27 36 61 -3 28 -25 44
-41 29z"/>
<path d="M11640 10168 c-11 -18 -21 -37 -23 -42 -3 -9 -56 23 -85 51 -17 16
-25 16 -40 1 -19 -19 -15 -25 48 -64 l59 -36 -14 -35 c-19 -44 -19 -53 -1 -53
8 0 24 16 36 35 21 34 22 34 50 20 33 -17 80 -20 80 -5 0 5 -20 18 -45 29 -52
23 -55 37 -19 80 14 17 23 35 19 41 -13 21 -46 9 -65 -22z"/>
<path d="M10894 10157 c-3 -9 -4 -28 -2 -44 2 -20 9 -29 26 -31 22 -3 23 0 20
40 -2 31 -8 44 -21 46 -9 2 -20 -3 -23 -11z"/>
<path d="M12477 10074 c-4 -4 -7 -27 -7 -50 0 -76 43 -69 44 8 1 31 -3 43 -14
46 -9 1 -19 0 -23 -4z"/>
<path d="M10893 10044 c-9 -23 10 -69 27 -69 10 0 16 13 18 43 3 37 1 42 -18
42 -11 0 -23 -7 -27 -16z"/>
<path d="M10998 9936 c-26 -17 -50 -38 -53 -47 -4 -11 -13 -15 -25 -12 -25 7
-34 -16 -26 -62 8 -38 34 -48 43 -16 4 18 8 17 61 -10 32 -16 65 -29 75 -29
33 0 17 26 -30 49 l-48 24 30 8 c17 5 325 9 686 8 361 0 669 3 685 7 l28 7
-32 -40 c-37 -48 -39 -53 -12 -53 22 0 90 63 90 84 0 8 9 16 20 19 12 3 20 14
20 26 0 14 -6 21 -20 21 -11 0 -20 -5 -20 -11 0 -6 -18 5 -40 25 -38 34 -82
47 -94 27 -10 -15 4 -40 26 -47 15 -4 17 -9 9 -17 -9 -9 -190 -12 -682 -12
-368 0 -669 2 -669 5 0 3 16 15 35 28 19 12 35 29 35 37 0 24 -41 16 -92 -19z"/>
<path d="M9593 9943 c-10 -4 -13 -78 -12 -326 1 -391 17 -683 39 -698 10 -6
251 -8 660 -5 674 5 1153 18 1280 35 41 6 163 10 270 11 107 0 315 5 463 11
197 7 291 7 360 -1 50 -7 254 -16 452 -20 198 -5 375 -12 393 -16 30 -6 33 -4
30 12 -2 13 -16 21 -43 26 -47 9 -725 31 -995 32 -274 1 -881 -13 -990 -24
-93 -9 -549 -21 -480 -13 19 2 108 10 197 17 147 12 166 15 202 39 43 29 76
80 67 103 -3 8 -19 20 -36 25 -35 13 -37 23 -10 64 11 17 20 39 20 51 0 27
-38 62 -77 70 -30 6 -32 10 -35 53 l-3 46 -219 -2 c-175 -2 -223 -5 -234 -17
-10 -10 -14 -37 -13 -98 l1 -85 -47 -52 c-25 -28 -49 -51 -52 -51 -4 0 -3 33
3 74 16 126 -9 140 -73 41 -23 -35 -46 -67 -51 -70 -6 -4 -10 22 -10 63 0 49
-4 73 -15 82 -20 16 -29 8 -81 -68 l-45 -67 6 47 c17 116 -24 118 -120 5 l-70
-82 -3 35 c-5 65 -11 80 -35 80 -16 0 -38 -20 -77 -72 l-55 -72 -5 84 c-5 78
-7 85 -27 88 -14 2 -27 -5 -36 -20 -8 -13 -27 -43 -42 -67 -31 -50 -45 -43
-45 25 0 22 -6 49 -14 60 -21 28 -42 11 -94 -77 -75 -128 -87 -129 -87 -6 0
76 -2 82 -21 85 -15 2 -38 -15 -81 -63 l-61 -65 -6 62 c-11 123 -17 564 -8
626 7 51 6 67 -5 78 -8 8 -15 14 -16 13 -1 0 -8 -3 -14 -6z m1696 -542 c12 -8
13 -38 8 -174 -4 -91 -9 -172 -13 -180 -8 -21 -32 -26 -180 -33 -124 -7 -132
-6 -152 14 -25 25 -33 121 -13 146 11 13 11 17 -3 22 -13 5 -15 21 -12 103 l4
96 109 6 c185 9 238 9 252 0z m102 -111 c24 -13 24 -23 -3 -78 -23 -49 -18
-69 20 -87 12 -5 22 -15 22 -21 0 -14 -66 -74 -80 -74 -11 0 -13 102 -3 203 6
69 10 74 44 57z m-923 -87 c-6 -72 -3 -83 27 -83 18 0 35 15 64 57 l41 56 0
-37 c0 -82 46 -101 99 -41 l31 36 0 -45 c0 -46 18 -76 47 -76 9 0 36 21 60 47
l43 48 0 -68 c0 -38 4 -67 10 -67 6 0 10 -7 10 -15 0 -8 9 -24 20 -35 14 -14
16 -21 8 -26 -19 -12 -633 -17 -971 -9 l-307 7 0 73 c0 70 1 75 44 133 59 80
66 83 66 28 0 -62 14 -94 46 -102 36 -9 70 19 110 91 34 61 38 61 48 -9 5 -41
18 -56 48 -56 16 0 32 19 86 96 11 16 12 12 8 -30 -10 -114 39 -129 114 -34
l45 57 10 -40 c11 -46 35 -65 63 -50 10 5 42 41 72 80 30 39 57 70 59 71 2 0
2 -26 -1 -57z"/>
<path d="M12463 9763 c-4 -10 -7 -38 -8 -63 0 -34 4 -45 17 -48 16 -3 19 3 34
91 6 33 4 37 -15 37 -12 0 -25 -8 -28 -17z"/>
<path d="M10900 9685 c0 -18 5 -25 20 -25 15 0 20 7 20 25 0 18 -5 25 -20 25
-15 0 -20 -7 -20 -25z"/>
<path d="M10913 9613 c-7 -3 -13 -20 -13 -40 0 -30 3 -34 23 -31 17 2 23 11
25 34 3 32 -10 45 -35 37z"/>
<path d="M8374 9506 c-3 -9 11 -30 36 -52 111 -100 167 -348 125 -549 -17 -79
-70 -196 -120 -267 -39 -54 -41 -58 -21 -58 39 0 125 145 167 280 34 108 34
293 1 400 -34 106 -74 181 -121 223 -44 40 -59 45 -67 23z"/>
<path d="M4103 9473 c-20 -7 -15 -24 13 -54 55 -57 104 -294 86 -414 l-7 -50
-43 -3 c-23 -2 -42 -2 -42 0 -1 2 -7 70 -14 151 -7 81 -18 153 -24 159 -22 22
-39 0 -47 -57 -3 -31 -12 -75 -19 -98 l-13 -42 -21 45 c-18 40 -28 73 -47 163
-5 26 -37 39 -49 19 -3 -5 -7 -53 -10 -108 -2 -54 -10 -129 -17 -166 l-12 -68
-389 0 -388 0 -13 28 c-7 17 -12 85 -12 187 0 136 3 165 18 193 10 18 25 36
33 39 21 8 18 43 -4 43 -28 0 -61 -42 -78 -95 -18 -63 -19 -263 0 -335 8 -30
13 -66 12 -80 -1 -23 2 -25 39 -22 22 2 282 5 579 8 491 5 538 4 532 -11 -9
-25 23 -31 40 -6 15 20 22 21 250 21 129 0 234 4 234 9 0 15 -71 21 -265 21
l-190 0 0 148 c0 126 -3 158 -23 222 -35 112 -74 166 -109 153z m-146 -425
c24 -27 60 -23 77 9 l14 28 6 -40 c4 -22 9 -52 11 -67 l5 -28 -94 0 -93 0 9
68 c5 37 11 78 14 92 6 24 6 24 20 -10 8 -19 22 -42 31 -52z"/>
<path d="M4715 9447 c-26 -20 -10 -40 26 -32 38 9 38 -10 1 -90 -41 -87 -45
-109 -24 -135 15 -18 31 -23 88 -27 63 -4 108 7 92 22 -3 4 -33 9 -65 11 -99
8 -100 9 -48 124 28 62 33 83 26 103 -14 35 -63 47 -96 24z"/>
<path d="M5352 9435 c-45 -57 -74 -259 -76 -525 -1 -170 1 -189 21 -232 23
-50 53 -73 83 -63 28 9 26 35 -2 32 -18 -1 -28 7 -43 38 -18 36 -20 59 -19
220 1 256 28 435 74 498 38 50 1 81 -38 32z"/>
<path d="M7914 9436 c-3 -7 6 -30 20 -50 47 -70 61 -298 22 -374 -20 -39 -20
-42 3 -42 14 0 25 14 38 48 25 64 24 285 -1 352 -26 69 -68 103 -82 66z"/>
<path d="M6022 9428 c-16 -16 -15 -33 4 -49 14 -11 18 -11 29 4 15 21 48 22
65 2 15 -18 6 -40 -51 -127 -55 -83 -30 -110 112 -124 58 -6 71 -4 67 7 -2 7
-22 17 -44 22 -95 21 -114 28 -114 43 0 9 18 41 40 71 49 69 53 111 14 142
-30 24 -102 29 -122 9z"/>
<path d="M8278 9428 c-17 -6 -28 -17 -28 -28 0 -28 16 -33 44 -15 14 9 37 15
53 13 40 -4 42 -44 5 -116 -61 -117 -45 -147 85 -159 53 -5 63 -3 63 10 0 15
-10 19 -93 33 -21 4 -41 12 -43 19 -3 7 11 45 31 84 41 81 42 128 2 156 -24
17 -78 19 -119 3z"/>
<path d="M6866 9348 c-44 -70 -74 -332 -44 -388 16 -30 56 -43 43 -14 -5 11
-10 56 -13 101 -5 92 16 205 48 269 11 21 20 42 20 46 0 18 -40 7 -54 -14z"/>
<path d="M1550 9288 c-5 -13 -14 -48 -20 -78 -6 -30 -20 -85 -32 -122 l-21
-68 -53 0 c-49 0 -54 -2 -54 -22 l0 -21 257 7 c142 4 259 9 261 11 2 2 1 8 -3
14 -4 7 -68 11 -181 11 -96 0 -174 3 -174 6 0 3 5 14 10 25 9 16 13 17 25 6
16 -16 165 -30 179 -17 13 13 -23 27 -89 35 l-59 7 69 62 c50 45 67 67 62 79
-3 9 -14 17 -24 17 -21 0 -77 -32 -112 -64 l-23 -21 7 35 c4 19 13 50 21 69 8
18 11 37 8 42 -10 17 -45 9 -54 -13z"/>
<path d="M5866 9301 c-3 -5 -13 -44 -21 -87 -8 -43 -20 -94 -26 -113 -10 -29
-13 -32 -21 -16 -6 9 -13 58 -17 109 -5 82 -8 91 -26 91 -19 0 -20 -6 -18 -85
3 -96 24 -166 54 -175 42 -14 71 35 93 155 9 46 21 87 28 91 17 10 1 39 -21
39 -11 0 -22 -4 -25 -9z"/>
<path d="M4454 9292 c-15 -9 -54 -178 -54 -231 0 -35 4 -43 25 -51 32 -12 67
1 122 46 l43 35 0 -45 c0 -38 3 -46 18 -46 16 0 21 15 33 98 17 123 18 116 -7
120 -16 2 -23 -4 -28 -23 -12 -46 -126 -155 -162 -155 -10 0 3 74 28 157 24
85 18 119 -18 95z"/>
<path d="M7672 9268 c-15 -15 -17 -254 -2 -263 6 -4 18 -1 27 6 12 10 14 26
10 70 -6 69 5 93 23 49 16 -38 50 -63 81 -58 19 2 24 -3 29 -28 9 -42 18 -54
40 -54 27 0 35 18 16 39 -11 12 -16 44 -18 121 -3 97 -5 105 -23 105 -16 0
-23 -12 -36 -63 -9 -34 -19 -65 -22 -69 -4 -3 -23 30 -44 73 -38 78 -57 96
-81 72z"/>
<path d="M8085 9146 c-5 -74 -4 -126 3 -145 10 -30 10 -31 -26 -38 -20 -4
-221 -7 -447 -5 -498 3 -637 -3 -633 -26 3 -14 22 -15 153 -12 83 2 299 4 480
5 315 1 644 11 693 21 46 9 20 24 -43 24 l-65 0 22 35 c21 32 24 33 32 15 10
-22 50 -27 62 -8 4 6 -1 17 -11 24 -14 11 -17 25 -14 91 4 72 2 78 -16 81 -18
2 -22 -6 -33 -54 -20 -96 -91 -193 -109 -148 -3 9 -3 70 0 135 l7 119 -24 0
c-24 0 -24 -2 -31 -114z"/>
<path d="M2182 9238 c-22 -22 -14 -41 13 -34 37 9 33 -22 -11 -79 -56 -75 -63
-94 -36 -115 23 -19 157 -38 187 -26 34 12 11 25 -70 37 -47 7 -85 15 -85 19
0 4 16 28 36 54 46 60 58 95 45 129 -8 21 -17 27 -39 27 -15 0 -33 -5 -40 -12z"/>
<path d="M7208 9211 c-32 -29 -32 -29 -43 -7 -18 36 -51 32 -95 -12 l-39 -39
-3 36 c-2 28 -7 36 -23 36 -18 0 -20 -8 -25 -93 -6 -107 -5 -112 20 -112 13 0
26 15 40 47 11 26 32 62 47 81 22 30 27 32 35 18 5 -9 9 -27 8 -39 -4 -39 0
-47 19 -47 12 0 29 16 44 43 14 24 33 49 41 57 14 11 16 9 18 -16 1 -16 1 -47
0 -69 -3 -47 10 -70 32 -62 13 5 16 23 16 95 0 91 -8 112 -42 112 -10 0 -32
-13 -50 -29z"/>
<path d="M3067 9223 c-3 -4 -7 -53 -8 -108 -4 -96 -3 -100 17 -103 16 -2 23 4
28 22 7 28 62 96 78 96 7 0 8 -15 4 -39 -5 -30 -2 -40 10 -45 23 -9 21 -10 73
39 51 47 99 77 113 69 4 -3 8 -34 8 -70 0 -56 2 -64 19 -64 32 0 38 119 8 158
-21 27 -121 0 -157 -43 -12 -14 -14 -13 -24 7 -16 31 -61 35 -97 9 l-28 -21
-3 48 c-2 34 -7 48 -20 50 -9 2 -18 -1 -21 -5z"/>
<path d="M3600 9189 l0 -42 -53 6 c-59 6 -83 -3 -74 -27 5 -12 21 -16 66 -16
67 0 67 -1 73 -80 2 -23 8 -35 18 -35 11 0 16 14 18 52 3 50 4 52 34 55 45 4
47 25 4 34 -35 6 -36 7 -34 48 3 38 1 41 -24 44 -27 3 -28 1 -28 -39z"/>
<path d="M7446 9195 c-3 -9 -6 -28 -6 -42 0 -23 -3 -25 -29 -20 -19 4 -33 1
-41 -8 -16 -20 -6 -32 34 -39 30 -6 34 -10 39 -47 6 -47 11 -54 32 -46 10 5
15 20 15 51 0 43 1 45 35 52 39 7 63 28 45 39 -6 4 -27 4 -47 0 l-35 -6 4 38
c3 32 0 38 -18 41 -13 2 -24 -4 -28 -13z"/>
<path d="M5435 9179 c-11 -17 -5 -182 7 -196 16 -20 42 1 68 56 26 58 40 65
40 22 0 -55 47 -45 79 17 19 36 20 36 21 10 0 -44 18 -78 39 -78 23 0 36 16
21 25 -5 3 -10 28 -10 55 0 103 -40 133 -81 60 -22 -38 -23 -39 -33 -17 -17
33 -43 32 -76 -3 l-29 -31 -3 43 c-3 43 -27 64 -43 37z"/>
<path d="M2039 9063 l-21 -48 -30 38 c-16 20 -39 37 -49 37 -37 0 -31 -27 15
-74 l46 -45 -20 -46 c-25 -58 -25 -65 -1 -65 11 0 23 12 31 30 7 17 15 30 17
30 3 0 18 -11 35 -25 28 -23 68 -34 68 -18 0 4 -19 26 -42 50 l-42 43 28 59
c16 32 25 64 22 70 -15 24 -38 9 -57 -36z"/>
<path d="M5969 9089 c-47 -18 -41 -90 9 -115 22 -11 21 -12 -15 -18 -21 -3
-132 -6 -248 -6 -231 -1 -290 -7 -290 -30 0 -13 18 -14 115 -11 63 2 212 6
330 10 181 5 215 8 215 21 0 8 -13 18 -30 21 -16 4 -25 7 -18 8 22 2 53 44 53
72 0 49 -57 71 -121 48z m71 -48 c0 -10 -7 -24 -16 -31 -12 -11 -18 -10 -31 3
-21 21 -9 47 22 47 18 0 25 -5 25 -19z"/>
<path d="M2557 9013 c-4 -3 -7 -15 -7 -26 0 -18 5 -19 53 -13 28 3 78 6 110 6
42 0 57 4 57 14 0 8 -7 17 -16 20 -21 8 -189 8 -197 -1z"/>
<path d="M6313 8983 c-12 -31 9 -36 126 -30 110 5 182 20 167 34 -3 4 -70 7
-147 7 -102 1 -143 -2 -146 -11z"/>
<path d="M5055 8973 c-22 -1 -77 -5 -122 -9 -72 -5 -83 -8 -83 -24 0 -10 5
-20 11 -22 16 -5 252 26 267 35 16 11 6 27 -16 25 -9 -1 -35 -3 -57 -5z"/>
<path d="M2578 8931 c-52 -8 -63 -14 -53 -31 5 -7 34 -9 93 -5 100 8 119 12
106 25 -14 13 -93 19 -146 11z"/>
<path d="M1493 8904 c-7 -3 -13 -12 -13 -20 0 -10 14 -14 53 -14 51 0 77 -12
77 -35 0 -6 -23 -38 -50 -70 -64 -75 -64 -99 0 -103 58 -4 202 29 208 47 4 11
-6 13 -49 7 -30 -4 -79 -9 -109 -13 l-55 -6 31 34 c68 75 81 120 44 154 -20
18 -111 31 -137 19z"/>
<path d="M5657 8844 c-12 -13 6 -34 30 -34 35 0 63 -18 63 -40 0 -11 -13 -35
-30 -53 -37 -43 -38 -55 -3 -68 46 -17 242 14 251 40 4 13 -45 11 -177 -5
l-43 -6 26 35 c39 52 31 93 -24 122 -29 15 -81 20 -93 9z"/>
<path d="M7588 8824 c-5 -4 -8 -15 -8 -25 0 -15 10 -17 79 -16 109 3 118 -8
52 -69 -52 -48 -64 -77 -35 -88 26 -10 179 -7 234 5 28 6 50 16 50 23 0 10
-28 12 -122 9 l-123 -4 43 36 c51 45 57 85 16 111 -27 18 -173 32 -186 18z"/>
<path d="M3760 8791 c-16 -4 -25 -14 -25 -26 0 -23 16 -23 83 -4 23 6 46 9 49
5 3 -3 -20 -30 -52 -59 -84 -76 -76 -87 60 -87 87 0 105 3 105 15 0 12 -15 15
-75 15 -41 0 -75 4 -75 8 0 5 21 27 46 50 34 30 45 47 42 64 -3 21 -8 23 -68
25 -36 1 -76 -2 -90 -6z"/>
<path d="M6642 8448 c2 -15 10 -23 24 -24 30 -2 84 -44 90 -71 5 -18 -3 -34
-35 -68 -46 -50 -53 -88 -19 -106 27 -14 230 -29 243 -17 17 15 -14 26 -98 33
-43 4 -90 10 -105 14 l-25 7 46 52 c26 29 47 60 47 70 0 45 -94 131 -143 132
-24 0 -28 -4 -25 -22z"/>
<path d="M1554 8353 c-4 -16 -17 -68 -29 -118 -13 -49 -24 -94 -25 -100 -10
-43 35 -50 51 -9 l10 27 22 -21 c23 -22 120 -62 150 -62 38 0 14 28 -45 52
-35 14 -64 32 -65 39 -2 8 26 33 62 57 69 45 87 68 64 82 -15 10 -62 -8 -131
-50 l-48 -30 6 27 c4 16 13 47 21 71 15 47 11 62 -17 62 -13 0 -22 -9 -26 -27z"/>
<path d="M4445 8340 c-4 -6 3 -30 15 -54 58 -121 52 -353 -14 -518 -30 -75
-31 -78 -11 -78 19 0 50 61 77 157 20 66 23 101 23 228 -1 136 -3 156 -25 210
-24 57 -50 79 -65 55z"/>
<path d="M6527 8313 c-8 -21 -22 -63 -30 -94 -9 -30 -24 -73 -33 -95 l-17 -39
-18 40 c-13 28 -19 64 -19 118 0 79 -9 97 -43 84 -19 -7 -5 -162 21 -220 24
-54 60 -71 92 -42 16 15 100 245 100 275 0 6 -9 10 -19 10 -12 0 -24 -13 -34
-37z"/>
<path d="M2226 8301 c-14 -15 -14 -20 -3 -30 11 -8 21 -7 44 4 23 12 37 13 57
5 47 -17 44 -38 -13 -89 -45 -39 -52 -50 -49 -76 3 -26 8 -31 48 -41 25 -6 69
-14 98 -18 42 -5 52 -4 52 8 0 10 -23 20 -75 31 -41 10 -77 21 -80 25 -3 5 13
24 36 42 74 59 82 104 27 142 -33 23 -120 21 -142 -3z"/>
<path d="M3357 8281 c-39 -35 -69 -99 -98 -209 -24 -90 -30 -236 -11 -269 15
-27 48 -32 38 -6 -25 64 -14 185 29 321 18 56 37 92 65 124 33 38 37 48 26 57
-11 10 -21 6 -49 -18z"/>
<path d="M4921 8301 c-8 -5 -11 -16 -8 -24 4 -12 15 -14 41 -10 50 8 54 -13
16 -80 -32 -57 -41 -110 -23 -128 28 -28 153 -30 153 -3 0 10 -13 14 -43 14
-24 0 -52 7 -63 15 -18 14 -18 16 20 88 33 62 37 76 27 95 -20 38 -84 56 -120
33z"/>
<path d="M5914 8268 c-5 -7 -8 -64 -6 -126 3 -110 4 -113 25 -110 14 2 29 17
41 43 10 22 26 51 35 65 l16 25 5 -45 c7 -66 28 -63 83 12 26 35 55 68 65 75
18 11 20 7 26 -63 8 -91 13 -104 37 -104 16 0 18 7 13 68 -8 102 -13 129 -29
142 -23 19 -58 4 -108 -47 -41 -42 -47 -45 -47 -25 0 47 -66 40 -100 -10 l-22
-33 6 59 c8 70 -15 110 -40 74z"/>
<path d="M4201 8172 c-11 -21 -71 -253 -71 -276 0 -29 39 -19 45 12 3 15 16
65 27 111 l22 84 13 -58 c22 -97 60 -120 106 -65 l26 30 -2 -77 c-2 -63 1 -78
13 -81 13 -2 19 22 33 137 9 77 14 147 11 156 -9 23 -37 14 -49 -15 -24 -59
-61 -124 -72 -128 -7 -2 -16 24 -24 70 -7 40 -16 83 -20 96 -10 27 -44 29 -58
4z"/>
<path d="M2101 8063 l-29 -58 -15 35 c-9 19 -18 43 -21 53 -7 22 -49 20 -54
-3 -1 -8 14 -42 34 -75 l36 -60 -26 -53 c-39 -79 -16 -103 30 -31 l26 41 34
-33 c24 -24 37 -30 45 -22 8 8 2 23 -20 53 -17 24 -31 50 -31 58 0 8 14 40 31
72 17 32 28 63 24 69 -14 24 -36 8 -64 -46z"/>
<path d="M4665 8098 c-9 -26 -25 -144 -25 -188 0 -26 5 -51 12 -58 23 -23 68
-14 103 21 l32 32 9 -30 c8 -25 15 -30 46 -33 27 -2 41 2 57 19 12 13 21 29
21 36 0 20 -34 15 -48 -7 -36 -58 -44 30 -12 134 12 37 18 71 15 77 -15 23
-38 0 -66 -67 -46 -110 -130 -196 -129 -131 1 12 8 54 16 92 22 104 22 110 -4
113 -12 2 -24 -3 -27 -10z"/>
<path d="M3456 8088 c-51 -198 -42 -220 52 -120 54 57 76 59 49 5 -15 -30 -13
-53 6 -53 7 0 31 23 55 50 24 28 48 50 54 50 7 0 8 -20 4 -60 -6 -55 -5 -60
13 -60 20 0 25 10 37 72 13 78 -18 113 -74 84 -28 -14 -30 -14 -35 4 -7 27
-27 25 -78 -9 -24 -17 -45 -28 -47 -27 -1 2 2 15 8 30 5 15 8 32 4 37 -8 13
-44 11 -48 -3z"/>
<path d="M3947 8085 c-9 -8 -18 -28 -22 -44 -6 -28 -10 -30 -58 -33 -38 -2
-52 -7 -52 -18 0 -11 13 -16 46 -18 44 -3 45 -4 41 -32 -6 -41 25 -41 39 0 7
19 18 30 29 30 29 0 50 11 50 26 0 8 -10 14 -25 14 -27 0 -31 11 -13 39 12 19
5 51 -11 51 -5 0 -16 -7 -24 -15z"/>
<path d="M6588 8048 c-26 -9 -28 -13 -22 -51 9 -55 29 -77 71 -77 46 0 68 13
82 49 28 66 -46 111 -131 79z m91 -52 c4 -23 -24 -47 -45 -39 -8 3 -14 18 -14
35 0 26 3 29 27 26 18 -2 29 -10 32 -22z"/>
<path d="M5333 8034 c-7 -3 -13 -14 -13 -25 0 -18 8 -19 109 -19 137 0 201 8
201 26 0 11 -26 14 -122 14 -68 0 -132 2 -143 5 -11 2 -26 2 -32 -1z"/>
<path d="M2620 8010 c0 -19 7 -20 186 -20 144 0 185 3 182 13 -5 14 -116 24
-270 26 -92 1 -98 0 -98 -19z"/>
<path d="M1428 8014 c-5 -4 -8 -13 -8 -21 0 -10 38 -13 185 -13 158 0 185 2
185 15 0 12 -18 15 -97 15 -54 0 -134 3 -178 6 -44 4 -83 3 -87 -2z"/>
<path d="M2753 7943 c-37 -3 -53 -8 -53 -18 0 -8 4 -16 9 -20 10 -6 274 12
304 21 68 20 -76 30 -260 17z"/>
<path d="M6012 7913 c-91 -3 -103 -6 -100 -21 3 -14 13 -17 53 -16 28 1 216 3
418 4 269 2 367 5 364 14 -6 20 -387 30 -735 19z"/>
<path d="M1475 7880 c-12 -20 7 -30 61 -30 69 0 70 -15 4 -72 -91 -79 -60 -98
120 -73 120 17 130 20 130 36 0 10 -153 5 -209 -7 -22 -5 -20 -1 18 41 48 52
51 82 11 102 -30 15 -126 17 -135 3z"/>
<path d="M6227 7843 c-4 -3 -7 -15 -7 -26 0 -17 5 -19 38 -13 26 4 45 1 58 -9
18 -13 18 -15 1 -32 -9 -9 -48 -36 -85 -59 -53 -32 -67 -46 -67 -65 0 -23 3
-24 85 -27 99 -4 153 4 147 21 -2 7 -35 14 -88 17 -57 3 -77 8 -63 13 34 12
102 64 119 91 22 34 11 65 -31 82 -35 15 -96 19 -107 7z"/>
<path d="M6980 7255 c-16 -20 -2 -38 24 -31 24 6 66 -18 66 -37 0 -7 -13 -28
-28 -47 -49 -60 -56 -79 -37 -100 16 -18 30 -21 138 -36 38 -5 47 -3 47 9 0
11 -17 19 -57 27 -101 21 -99 18 -53 79 22 29 40 58 40 65 0 22 -33 58 -66 72
-42 18 -59 18 -74 -1z"/>
<path d="M5110 7236 c0 -8 16 -23 35 -35 19 -11 40 -32 47 -46 10 -22 7 -29
-35 -74 -26 -28 -47 -59 -47 -70 0 -29 46 -50 129 -57 59 -6 71 -4 71 8 0 10
-20 18 -70 27 -38 7 -73 17 -76 22 -3 6 15 32 40 59 25 27 46 52 46 55 0 23
-34 77 -62 99 -38 28 -78 35 -78 12z"/>
<path d="M2910 7177 c0 -9 27 -18 76 -26 64 -11 74 -15 68 -29 -19 -44 -45
-165 -50 -237 -5 -61 -2 -95 10 -139 14 -46 15 -61 5 -66 -19 -12 -2 -40 24
-40 13 0 32 -9 43 -21 20 -22 66 -49 84 -49 21 0 9 20 -26 44 l-37 25 434 3
c268 2 437 -1 441 -7 4 -5 15 -5 30 2 16 8 181 14 527 18 278 3 508 8 513 11
4 3 8 8 8 12 0 4 -228 6 -506 4 l-506 -4 13 23 c6 13 20 46 30 74 17 48 19 50
51 47 35 -4 30 13 -6 20 -17 3 -18 12 -17 108 3 141 -29 230 -81 230 -23 0
-23 -3 9 -58 25 -42 28 -59 32 -154 3 -100 2 -108 -15 -108 -35 0 -44 16 -51
85 -7 60 -11 70 -27 70 -15 0 -23 -11 -32 -48 -19 -76 -21 -78 -46 -68 -15 5
-30 26 -43 62 -16 40 -27 55 -43 57 -15 2 -22 -2 -22 -12 0 -9 -4 -16 -10 -16
-5 0 -10 -6 -10 -12 -1 -38 -16 -38 -121 -3 -57 20 -203 67 -324 106 -120 38
-222 75 -226 81 -4 6 -13 8 -21 5 -8 -3 -44 1 -79 9 -81 17 -99 17 -99 1z
m314 -88 c134 -41 530 -170 534 -174 2 -2 -4 -37 -13 -79 -9 -41 -14 -80 -10
-86 17 -27 32 -5 49 70 21 92 35 100 66 40 12 -23 27 -43 35 -47 25 -9 63 6
70 27 9 28 18 25 35 -13 10 -21 24 -34 42 -37 l27 -5 -25 -51 c-21 -45 -29
-52 -62 -58 -49 -8 -752 -8 -831 0 -56 6 -63 10 -78 38 -24 47 -28 150 -9 246
19 94 43 160 58 160 6 0 56 -14 112 -31z m691 -218 c3 -5 1 -12 -4 -15 -5 -3
-11 1 -15 9 -6 16 9 21 19 6z m155 -39 c0 -14 -11 -21 -26 -15 -21 8 -17 23 6
23 11 0 20 -4 20 -8z"/>
<path d="M3125 6932 c-6 -4 -16 -36 -23 -72 -6 -36 -14 -77 -18 -92 -5 -24 -3
-28 14 -28 15 0 30 17 53 61 30 55 72 99 84 87 3 -2 0 -20 -5 -39 -14 -48 -13
-59 8 -59 11 0 38 23 61 50 23 28 47 50 53 50 10 0 8 -36 -7 -107 -7 -29 -5
-33 13 -33 16 0 24 11 36 54 20 69 20 100 0 121 -18 18 -46 13 -84 -17 -24
-19 -24 -19 -32 2 -11 31 -34 34 -73 11 -34 -20 -35 -20 -45 -1 -11 21 -19 24
-35 12z"/>
<path d="M3573 6929 c-7 -7 -9 -25 -6 -40 5 -28 5 -28 -53 -31 -47 -2 -59 -7
-62 -20 -3 -16 5 -18 59 -18 l62 0 -6 -28 c-3 -16 -7 -35 -9 -43 -2 -8 5 -14
17 -14 15 0 22 10 29 43 7 29 15 42 27 42 28 0 49 11 49 26 0 9 -11 14 -30 14
-26 0 -30 4 -30 28 0 26 -15 52 -30 52 -3 0 -11 -5 -17 -11z"/>
<path d="M1670 7145 c-5 -14 -13 -38 -16 -53 -16 -71 -58 -209 -74 -245 -20
-44 -17 -67 10 -67 11 0 23 15 33 40 l16 40 26 -24 c34 -32 104 -59 140 -54
43 5 41 25 -2 33 -21 4 -55 16 -75 27 -65 37 -61 60 18 113 31 20 54 41 51 48
-7 22 -46 19 -84 -7 -20 -14 -38 -24 -40 -23 -6 7 37 141 50 156 19 22 10 41
-19 41 -17 0 -27 -8 -34 -25z"/>
<path d="M5011 7117 c-6 -8 -34 -61 -61 -118 l-50 -104 2 90 c3 81 1 90 -16
93 -30 6 -36 -16 -36 -144 0 -89 4 -125 14 -140 25 -33 47 -6 101 127 44 109
53 124 72 121 18 -3 23 3 28 32 4 19 4 39 0 45 -9 15 -40 14 -54 -2z"/>
<path d="M6842 7086 c-16 -25 -43 -83 -62 -130 -18 -47 -36 -86 -41 -86 -8 0
-16 44 -27 160 -6 68 -9 75 -29 78 -30 4 -30 5 -13 -118 19 -146 41 -190 85
-174 18 7 46 58 65 119 20 62 57 132 75 138 8 4 15 18 15 32 0 42 -36 32 -68
-19z"/>
<path d="M4617 7093 c-4 -3 -7 -13 -7 -21 0 -11 8 -13 37 -9 69 12 83 -27 29
-83 -44 -45 -54 -80 -28 -103 22 -20 110 -33 131 -19 21 15 3 32 -34 32 -38 0
-65 8 -65 20 0 5 18 30 41 56 43 50 46 78 12 117 -16 17 -102 25 -116 10z"/>
<path d="M2258 6999 c-10 -5 -18 -17 -18 -26 0 -12 7 -14 33 -9 21 4 40 1 52
-8 18 -13 17 -16 -23 -61 -70 -79 -52 -115 67 -136 46 -8 66 -8 74 0 16 16 6
21 -67 38 -78 17 -84 32 -31 83 59 57 42 108 -40 124 -16 3 -38 1 -47 -5z"/>
<path d="M6406 6969 c-44 -39 -46 -40 -46 -17 0 48 -40 62 -83 28 -21 -17 -26
-18 -31 -5 -3 8 -15 15 -26 15 -16 0 -20 -6 -20 -34 0 -18 -5 -57 -10 -86 -8
-40 -7 -56 2 -61 20 -12 32 0 62 61 49 100 63 101 68 6 2 -27 8 -51 15 -53 6
-2 27 20 46 49 38 59 83 105 94 95 3 -4 0 -45 -7 -91 -13 -86 -9 -121 12 -114
23 8 48 191 32 232 -11 29 -58 19 -108 -25z"/>
<path d="M4306 6948 c-10 -33 -46 -184 -46 -190 0 -17 40 -7 50 12 17 32 110
140 120 140 14 0 12 -34 -4 -65 -8 -15 -12 -34 -9 -41 9 -24 33 -15 51 18 9
17 32 48 49 67 l32 36 0 -30 c0 -16 -6 -48 -14 -69 -15 -43 -12 -56 11 -56 30
0 65 132 44 169 -13 25 -47 27 -80 4 -17 -12 -25 -13 -28 -5 -7 21 -64 13 -98
-13 l-33 -25 2 27 c2 22 -3 29 -21 31 -12 2 -24 -3 -26 -10z"/>
<path d="M5007 6865 c-26 -26 -38 -84 -24 -114 10 -21 20 -27 52 -28 56 -4
105 42 105 96 0 42 -102 77 -133 46z m77 -38 c16 -12 16 -14 -4 -40 -12 -15
-30 -27 -41 -27 -22 0 -23 6 -8 49 12 34 25 38 53 18z"/>
<path d="M2165 6847 c-8 -13 -20 -38 -26 -57 l-12 -33 -19 22 c-10 13 -18 29
-18 36 0 19 -25 36 -44 29 -26 -10 -19 -38 23 -90 l39 -49 -20 -49 c-12 -31
-15 -53 -9 -59 14 -14 30 0 47 44 l16 39 33 -26 c34 -26 85 -37 91 -19 2 6
-11 19 -30 29 -19 10 -44 29 -56 41 l-21 22 21 49 c12 27 26 52 32 55 15 9 2
39 -16 39 -9 0 -22 -10 -31 -23z"/>
<path d="M6866 6829 c-14 -11 -26 -29 -26 -39 0 -29 33 -60 71 -66 64 -11 121
64 80 105 -28 28 -90 28 -125 0z m84 -19 c21 -14 0 -45 -31 -45 -17 0 -25 6
-27 22 -3 19 4 25 38 32 3 0 12 -4 20 -9z"/>
<path d="M1486 6752 c-11 -17 13 -32 66 -42 68 -13 247 -9 251 5 1 6 -43 13
-106 17 -60 4 -125 12 -145 18 -45 12 -59 13 -66 2z"/>
<path d="M2604 6735 c-11 -27 15 -37 86 -31 36 3 77 6 93 6 17 0 27 5 27 15 0
11 -12 15 -47 15 -27 0 -72 3 -100 6 -44 6 -54 4 -59 -11z"/>
<path d="M5475 6690 c-4 -6 -3 -16 2 -21 27 -27 253 -21 253 7 0 11 -17 14
-79 14 -43 0 -98 3 -123 6 -31 4 -48 2 -53 -6z"/>
<path d="M2673 6673 c-55 -3 -63 -7 -63 -24 0 -18 5 -19 98 -13 104 7 147 18
137 34 -6 10 -39 10 -172 3z"/>
<path d="M6595 6660 c-355 -4 -410 -7 -410 -20 0 -13 39 -15 300 -13 455 3
665 12 665 29 0 11 -16 13 -72 12 -40 -2 -257 -5 -483 -8z"/>
<path d="M1528 6634 c-19 -19 17 -34 81 -34 73 -1 73 -1 -9 -53 -38 -24 -50
-54 -28 -68 15 -10 158 -10 202 0 16 3 31 12 34 19 3 9 -20 12 -95 12 l-98 0
53 30 c54 32 66 56 36 80 -17 15 -165 26 -176 14z"/>
<path d="M4514 6605 c-6 -15 11 -37 86 -107 l94 -88 -17 -29 c-9 -16 -17 -36
-17 -44 0 -29 41 -47 105 -47 59 0 63 -1 125 -55 57 -48 90 -66 90 -50 0 3
-17 20 -37 38 -21 17 -73 65 -115 106 l-77 74 19 25 c42 53 9 116 -58 110 -27
-2 -40 -9 -47 -25 -9 -22 -12 -20 -77 44 -58 58 -68 64 -74 48z m226 -122 c0
-10 -4 -24 -9 -32 -8 -12 -13 -12 -36 3 -25 17 -26 18 -8 31 26 20 53 19 53
-2z m20 -128 l23 -25 -36 0 c-38 0 -48 15 -25 38 15 15 10 16 38 -13z"/>
<path d="M3437 6505 c-49 -67 -87 -263 -65 -330 13 -38 41 -65 54 -52 4 4 3
17 -3 30 -21 43 -23 59 -13 125 13 91 38 167 67 198 12 14 23 32 23 40 0 23
-43 16 -63 -11z"/>
<path d="M6480 6521 c-14 -4 -25 -13 -25 -21 0 -12 15 -14 78 -11 42 2 77 1
77 -1 0 -3 -27 -26 -60 -51 -64 -50 -77 -82 -37 -92 42 -11 210 -1 215 13 3 9
-17 12 -75 12 -108 0 -115 8 -52 56 65 49 77 67 60 88 -10 12 -31 16 -85 15
-39 -1 -82 -4 -96 -8z"/>
<path d="M4530 6494 c0 -4 10 -28 23 -53 19 -40 22 -62 22 -161 0 -100 -4
-125 -28 -190 -35 -98 -34 -93 -16 -97 19 -5 50 62 75 158 35 138 4 339 -53
347 -13 2 -23 0 -23 -4z"/>
<path d="M4276 6418 c-7 -24 -39 -193 -44 -225 -3 -26 -1 -33 12 -33 21 0 41
48 51 117 8 61 21 76 30 35 18 -85 72 -116 120 -67 l25 24 0 -58 c0 -40 5 -63
15 -71 28 -23 28 -19 34 170 4 95 3 100 -16 100 -12 -1 -30 -25 -53 -72 -19
-40 -40 -73 -46 -75 -7 -2 -24 33 -40 79 -26 75 -32 83 -57 86 -16 2 -29 -2
-31 -10z"/>
<path d="M3565 6368 c-10 -27 -33 -183 -29 -190 12 -20 36 -4 68 45 20 30 45
62 57 73 l21 19 -3 -50 c-4 -44 -2 -50 16 -53 13 -2 26 7 37 27 18 32 65 68
75 57 4 -4 1 -28 -6 -54 -19 -67 -18 -77 3 -77 31 0 64 128 42 164 -11 17 -58
13 -93 -9 l-32 -19 -3 22 c-5 35 -48 34 -86 -1 l-30 -29 1 41 c2 31 -2 41 -16
44 -9 2 -19 -2 -22 -10z"/>
<path d="M4043 6363 c-7 -3 -15 -20 -19 -38 -5 -30 -10 -34 -43 -37 -28 -2
-36 -7 -36 -23 0 -17 6 -20 33 -17 l33 2 -7 -56 c-6 -51 -5 -56 12 -52 12 2
22 18 29 48 11 44 12 45 55 50 59 7 63 34 6 38 l-38 3 6 39 c6 38 -4 52 -31
43z"/>
<path d="M8469 5625 c-15 -8 -35 -31 -45 -52 -16 -34 -19 -76 -25 -378 -4
-187 -9 -351 -13 -365 -3 -14 -10 -86 -15 -160 -12 -162 -11 -165 68 -155 115
14 139 45 36 45 l-65 0 0 50 c0 27 6 125 14 217 8 92 17 287 21 432 7 334 10
343 125 345 24 1 35 6 35 16 0 21 -101 25 -136 5z"/>
<path d="M4114 5616 c-22 -15 -22 -18 -16 -315 3 -196 0 -366 -8 -487 -15
-228 -23 -216 124 -211 62 2 101 8 104 15 4 14 -20 19 -117 26 -40 3 -76 7
-78 10 -3 2 0 78 7 168 6 90 10 297 9 463 l-3 300 77 3 c68 2 78 5 75 20 -5
24 -143 30 -174 8z"/>
<path d="M6932 5578 c3 -22 8 -23 88 -28 l85 -5 -3 -195 c-1 -107 -7 -271 -13
-365 -5 -93 -14 -230 -18 -303 -4 -73 -10 -133 -12 -135 -2 -1 -34 -17 -71
-35 -40 -18 -68 -38 -68 -47 0 -21 23 -19 70 5 22 11 57 24 77 28 l38 8 6 144
c3 80 11 228 17 330 7 102 17 268 22 369 14 241 21 230 -153 246 -68 7 -69 6
-65 -17z"/>
<path d="M10767 5585 c-8 -19 11 -30 46 -26 35 3 87 -17 87 -34 0 -8 -25 -35
-55 -60 -86 -74 -70 -105 52 -105 120 0 129 37 10 42 l-68 3 50 38 c76 58 80
102 11 137 -47 24 -125 27 -133 5z"/>
<path d="M5243 5570 c-13 -5 -23 -17 -23 -25 0 -14 8 -15 45 -9 51 7 95 -1 95
-18 0 -6 -18 -30 -40 -54 -42 -46 -48 -65 -27 -82 21 -17 96 -24 174 -17 96 9
94 29 -3 32 -38 2 -84 5 -103 9 l-34 5 42 43 c47 48 52 78 15 102 -30 20 -109
28 -141 14z"/>
<path d="M12287 5573 c-4 -3 -7 -14 -7 -23 0 -13 12 -18 57 -23 94 -10 88 23
91 -475 2 -240 0 -456 -3 -479 -6 -42 -7 -43 -44 -43 -57 0 -141 -28 -141 -47
0 -13 8 -14 48 -7 26 4 74 8 106 8 55 1 61 3 67 26 4 14 7 242 8 506 1 559 9
520 -103 548 -75 19 -71 18 -79 9z"/>
<path d="M9605 5527 c-30 -22 -10 -37 40 -30 55 7 57 -2 15 -72 -33 -56 -38
-90 -14 -99 25 -9 110 -7 139 4 41 16 19 30 -46 30 -32 0 -59 2 -59 5 0 2 14
26 30 52 33 52 38 84 14 107 -19 20 -93 21 -119 3z"/>
<path d="M1820 5508 c-16 -40 -100 -332 -100 -350 0 -22 19 -33 33 -19 7 7 17
31 24 54 9 33 11 36 12 16 1 -37 16 -46 101 -63 92 -20 100 -20 100 -1 0 14
-35 27 -113 41 -20 3 -40 11 -43 16 -12 19 20 58 87 105 68 47 89 83 50 83
-10 0 -49 -15 -87 -34 -38 -19 -70 -33 -72 -31 -2 2 8 42 23 90 14 48 24 93
21 101 -8 21 -25 17 -36 -8z"/>
<path d="M1911 5514 c0 -11 3 -14 6 -6 3 7 2 16 -1 19 -3 4 -6 -2 -5 -13z"/>
<path d="M8070 5510 c0 -17 7 -20 45 -20 25 0 45 -4 45 -10 0 -5 -25 -37 -55
-71 -30 -34 -55 -70 -55 -80 0 -36 41 -50 131 -47 103 4 107 20 7 31 -40 5
-77 12 -81 17 -5 4 16 35 47 69 83 91 75 131 -26 131 -51 0 -58 -2 -58 -20z"/>
<path d="M11965 5431 c-26 -45 -50 -79 -55 -76 -4 2 -10 31 -14 64 -11 99 -57
107 -71 13 -4 -26 -20 -88 -36 -138 -34 -107 -35 -114 -10 -114 15 0 25 18 47
85 28 84 28 85 39 52 8 -25 16 -32 35 -32 19 0 33 12 60 53 l35 54 5 -99 c5
-93 6 -98 28 -101 l23 -3 -3 158 c-3 139 -5 158 -20 161 -12 2 -30 -20 -63
-77z"/>
<path d="M2482 5452 c-26 -4 -40 -28 -24 -44 7 -7 17 -6 32 2 17 9 29 9 51 0
39 -17 38 -48 -5 -105 -50 -65 -54 -84 -22 -112 33 -28 126 -34 126 -8 0 9 -9
15 -25 15 -27 0 -75 19 -75 31 0 4 18 31 40 60 22 30 40 61 40 71 0 26 -21 66
-39 74 -30 12 -76 20 -99 16z"/>
<path d="M3654 5425 c-10 -24 6 -37 37 -30 37 8 85 -2 105 -23 15 -14 11 -20
-41 -68 -47 -43 -56 -57 -53 -81 4 -37 42 -55 130 -61 56 -4 68 -2 68 11 0 10
-15 17 -52 22 -29 3 -66 12 -83 19 l-30 13 58 54 c63 59 70 84 35 116 -42 38
-163 58 -174 28z"/>
<path d="M4867 5413 c-4 -3 -7 -51 -7 -105 0 -98 0 -98 25 -98 14 0 25 6 25
13 0 22 59 107 74 107 10 0 16 -13 18 -42 2 -23 9 -43 15 -46 7 -2 29 15 49
37 21 22 48 48 61 56 l23 16 -6 -56 c-6 -51 -5 -55 13 -55 23 0 33 24 33 86 0
40 -13 64 -36 64 -6 0 -35 -16 -63 -35 -46 -32 -51 -33 -51 -16 0 19 -26 41
-48 41 -5 0 -26 -11 -46 -25 l-38 -25 3 32 c2 18 0 39 -5 46 -8 13 -29 16 -39
5z"/>
<path d="M6369 5393 c0 -7 0 -188 1 -206 0 -5 9 -7 21 -5 14 2 25 16 35 43 14
43 68 100 85 89 6 -3 9 -26 8 -50 -3 -51 12 -74 36 -54 8 7 15 18 15 25 0 20
59 95 74 95 22 0 29 -35 21 -106 -6 -54 -4 -64 9 -64 25 0 39 39 39 107 0 47
-5 69 -18 83 -24 27 -68 25 -101 -3 -26 -23 -28 -23 -46 -5 -24 24 -48 23 -91
-6 l-36 -25 -3 42 c-2 35 -7 43 -25 45 -13 2 -23 0 -24 -5z"/>
<path d="M8951 5389 c-37 -14 -50 -29 -44 -45 7 -18 28 -18 58 2 27 18 66 16
73 -4 2 -7 -28 -43 -67 -79 -74 -68 -81 -82 -56 -103 12 -10 33 -10 109 3 51
9 103 13 114 11 24 -7 40 14 21 28 -8 5 -53 7 -104 4 l-90 -6 63 58 c74 70 80
101 25 131 -26 13 -69 13 -102 0z"/>
<path d="M10366 5328 c-3 -40 -7 -84 -9 -98 -4 -42 29 -37 52 8 20 38 83 102
101 102 14 0 12 -41 -4 -69 -8 -14 -12 -31 -9 -38 6 -15 43 -18 43 -3 0 16 91
110 106 110 11 0 10 -9 -1 -47 -19 -63 -19 -73 4 -73 23 0 54 82 49 127 -3 24
-8 28 -37 31 -23 2 -43 -3 -62 -17 -28 -21 -28 -21 -39 -1 -15 28 -59 26 -103
-4 l-36 -25 -3 32 c-2 24 -9 33 -24 35 -19 3 -22 -3 -28 -70z"/>
<path d="M9275 5378 c-54 -143 -65 -208 -33 -208 4 0 27 31 52 69 25 38 54 75
65 81 19 10 21 8 20 -17 0 -15 -4 -37 -8 -48 -10 -24 -3 -45 13 -45 7 0 37 25
67 57 62 64 71 56 35 -32 -16 -41 -21 -64 -14 -72 17 -22 33 -3 60 70 38 103
40 111 24 132 -12 16 -17 17 -44 6 -17 -7 -38 -21 -48 -32 -22 -24 -34 -24
-34 1 0 31 -35 44 -72 26 -38 -20 -36 -20 -34 1 1 22 -42 31 -49 11z"/>
<path d="M11386 5377 c-16 -11 -16 -15 0 -46 15 -29 15 -41 5 -78 -13 -50 -9
-63 20 -63 20 0 23 4 33 52 3 15 18 40 31 55 l26 28 -3 -50 c-4 -70 19 -72 79
-5 25 28 47 49 49 48 1 -2 -2 -23 -7 -47 -7 -31 -6 -47 2 -57 18 -22 35 0 48
63 15 76 14 81 -10 94 -18 9 -28 6 -63 -19 -42 -30 -42 -30 -51 -9 -13 28 -47
33 -79 12 -23 -15 -25 -15 -31 3 -8 26 -29 34 -49 19z"/>
<path d="M7682 5338 c-7 -9 -4 -52 9 -138 30 -195 57 -270 99 -270 26 0 38 25
71 152 16 60 40 137 54 171 40 94 41 100 19 95 -29 -5 -69 -89 -111 -232 -37
-127 -37 -129 -50 -98 -17 42 -43 204 -43 268 0 38 -4 53 -16 58 -21 8 -20 8
-32 -6z"/>
<path d="M3265 5320 c-3 -5 2 -24 10 -41 9 -17 28 -84 41 -148 30 -141 41
-171 65 -171 25 0 48 37 113 179 31 68 63 129 73 136 21 16 10 45 -17 45 -17
0 -34 -28 -94 -152 l-73 -153 -8 40 c-21 116 -44 223 -54 248 -10 27 -43 37
-56 17z"/>
<path d="M9953 5294 c-2 -7 -2 -18 2 -24 8 -13 274 -13 295 0 31 19 -8 28
-148 33 -113 3 -145 2 -149 -9z"/>
<path d="M2406 5278 c-7 -13 -20 -40 -27 -60 -7 -21 -16 -38 -21 -38 -4 0 -19
20 -34 45 -17 30 -32 45 -43 43 -30 -6 -23 -38 19 -89 l43 -50 -32 -50 c-35
-56 -38 -69 -17 -69 12 0 34 24 73 79 2 3 21 -5 42 -17 41 -23 86 -29 96 -12
3 5 -17 19 -44 31 -77 32 -78 38 -37 116 20 37 36 73 36 80 0 22 -39 15 -54
-9z"/>
<path d="M11018 5269 c-6 -4 -8 -15 -4 -24 6 -16 19 -17 149 -10 130 6 183 17
146 29 -24 8 -279 12 -291 5z"/>
<path d="M2804 5185 c-13 -32 16 -40 139 -37 91 3 117 6 117 17 0 15 -29 20
-168 30 -71 6 -83 4 -88 -10z"/>
<path d="M5773 5154 c-2 -7 -2 -18 2 -24 9 -14 222 -14 231 1 12 20 -11 27
-119 32 -85 4 -110 2 -114 -9z"/>
<path d="M7293 5155 c-3 -9 -3 -19 1 -22 4 -4 62 -6 129 -6 94 1 122 5 122 15
0 16 -62 26 -168 27 -61 1 -79 -2 -84 -14z"/>
<path d="M4482 5142 c-2 -7 -2 -15 1 -19 3 -3 174 -5 379 -4 205 1 438 -3 517
-9 96 -7 148 -7 155 0 5 5 7 12 4 15 -12 12 -330 25 -682 27 -294 2 -370 0
-374 -10z"/>
<path d="M6312 5129 c-13 -5 -22 -15 -20 -21 4 -10 53 -12 214 -9 322 6 457
14 462 29 3 9 -64 12 -315 11 -175 0 -329 -4 -341 -10z"/>
<path d="M7570 5103 c-25 -8 -74 -15 -110 -17 -36 -1 -71 -6 -78 -10 -21 -13
6 -36 42 -36 43 0 185 35 199 49 21 21 -7 28 -53 14z"/>
<path d="M1638 5083 c-37 -3 -48 -8 -48 -21 0 -15 21 -17 233 -17 146 0 233 4
235 10 4 16 -320 38 -420 28z"/>
<path d="M12030 5080 c-63 -4 -220 -8 -348 -9 -128 0 -297 -5 -375 -11 -92 -6
-563 -7 -1327 -2 -1206 8 -1227 7 -1206 -27 9 -14 2418 -9 3011 7 383 10 465
17 450 42 -7 11 -23 11 -205 0z"/>
<path d="M2825 5070 c-17 -27 10 -33 136 -27 129 6 154 10 144 28 -8 12 -272
12 -280 -1z"/>
<path d="M3537 5028 c-28 -10 -28 -11 -21 -67 8 -68 17 -81 58 -81 33 0 62 23
85 67 36 71 -30 115 -122 81z m83 -51 c0 -26 -35 -65 -48 -53 -4 4 -7 23 -7
42 0 30 3 34 28 34 22 0 27 -5 27 -23z"/>
<path d="M6520 4961 c0 -22 19 -31 66 -31 19 0 34 -4 34 -8 0 -4 -29 -22 -64
-39 -99 -49 -107 -93 -19 -109 35 -7 193 9 228 22 21 9 13 30 -11 26 -79 -10
-194 -13 -208 -5 -15 8 -7 15 48 38 115 49 121 81 23 110 -70 21 -97 20 -97
-4z"/>
<path d="M1695 4960 c-13 -21 8 -30 70 -30 115 0 123 -18 35 -87 -102 -79 -77
-104 80 -78 52 8 98 15 103 15 4 0 7 7 7 16 0 14 -11 15 -87 9 l-88 -7 38 32
c68 58 72 101 11 126 -38 16 -160 19 -169 4z"/>
<path d="M11330 4963 c-2 -164 -8 -213 -38 -302 -18 -51 -48 -125 -68 -164
-19 -38 -32 -72 -29 -75 24 -24 106 124 151 273 20 67 27 113 28 180 1 86 0
90 -21 93 -13 2 -23 0 -23 -5z"/>
<path d="M7912 4929 c-42 -31 -43 -32 -36 -78 9 -61 18 -71 70 -71 56 0 110
44 120 98 6 31 3 39 -20 59 -38 33 -83 30 -134 -8z m115 -36 c7 -19 -48 -73
-73 -73 -21 0 -24 5 -24 38 0 30 5 41 28 54 22 14 30 15 46 4 11 -7 21 -17 23
-23z"/>
<path d="M9955 4899 c-42 -37 -87 -121 -111 -207 l-17 -59 -51 -13 c-28 -6
-76 -10 -106 -8 l-55 3 63 48 c34 27 70 60 78 73 15 22 15 26 1 48 -22 32
-113 54 -135 32 -21 -20 -6 -36 33 -36 81 0 78 -25 -11 -91 -30 -23 -60 -51
-66 -62 -27 -51 89 -75 198 -42 27 8 49 15 49 15 1 0 2 -16 3 -36 4 -51 28
-93 58 -100 37 -9 41 2 9 32 -27 25 -28 28 -22 102 8 117 74 257 133 284 27
13 28 41 2 46 -9 2 -33 -11 -53 -29z"/>
<path d="M4557 4883 c-2 -5 -1 -63 1 -131 4 -117 5 -123 24 -120 14 2 27 19
40 52 21 55 54 106 69 106 5 0 9 -22 9 -50 0 -72 26 -68 74 9 55 90 66 88 66
-15 0 -76 2 -85 18 -82 13 2 19 18 25 70 4 36 4 81 -1 100 -7 27 -13 34 -39
36 -23 2 -39 -5 -66 -31 -33 -31 -36 -32 -39 -13 -2 16 -12 22 -35 24 -27 3
-39 -3 -63 -30 l-30 -32 0 45 c0 25 -5 50 -12 57 -13 13 -35 16 -41 5z"/>
<path d="M5299 4863 c-23 -61 -45 -198 -40 -260 2 -20 29 -15 41 6 5 11 16 55
24 98 8 43 15 71 15 63 3 -37 23 -89 37 -94 24 -9 43 6 80 65 l34 54 0 -80 c0
-56 5 -87 16 -103 32 -47 39 -28 36 100 -3 156 -7 170 -34 166 -14 -2 -35 -26
-62 -70 -23 -37 -44 -68 -47 -68 -3 0 -11 24 -18 53 -20 92 -60 125 -82 70z"/>
<path d="M5081 4821 c-6 -11 -11 -27 -11 -35 0 -13 -12 -16 -55 -16 -48 0 -55
-2 -55 -20 0 -17 7 -20 50 -20 l50 0 0 -51 c0 -43 3 -50 18 -47 12 2 18 16 22
48 5 42 7 45 40 50 68 11 78 40 14 40 -32 0 -34 2 -32 32 3 38 -24 51 -41 19z"/>
<path d="M10972 4813 c-29 -41 -93 -216 -82 -227 19 -19 39 6 70 89 35 91 50
112 50 70 0 -14 7 -41 14 -60 13 -30 20 -35 47 -35 18 0 41 7 51 17 17 15 18
14 18 -40 0 -49 3 -57 19 -57 15 0 20 10 25 54 4 29 13 77 21 106 8 30 12 57
9 62 -13 20 -43 5 -73 -37 -26 -37 -71 -76 -71 -62 0 23 -24 125 -32 135 -17
20 -45 14 -66 -15z"/>
<path d="M10695 4768 c-2 -7 -9 -30 -15 -50 -11 -35 -14 -37 -48 -35 -31 2
-37 -1 -37 -18 0 -15 8 -21 32 -23 l31 -3 -15 -46 c-13 -37 -13 -47 -2 -53 19
-12 26 -5 44 49 14 44 19 50 53 56 20 4 43 11 49 17 21 17 3 29 -33 22 -39 -7
-39 -8 -19 38 10 26 11 38 3 46 -16 16 -38 15 -43 0z"/>
<path d="M10357 4740 c-30 -26 -36 -28 -47 -15 -18 22 -52 18 -92 -9 l-36 -24
-9 32 c-9 32 -37 46 -56 27 -8 -8 -7 -18 3 -36 10 -19 11 -38 3 -80 -7 -43 -7
-58 3 -66 18 -15 28 -7 68 54 19 29 44 58 55 65 20 12 21 10 21 -33 0 -40 2
-45 23 -45 15 0 28 11 41 34 10 19 31 47 47 62 l29 28 0 -62 c0 -54 2 -62 19
-62 23 0 31 19 31 76 0 88 -41 109 -103 54z"/>
<path d="M1839 4068 c-1 -2 -10 -59 -19 -128 -10 -69 -26 -176 -35 -239 -11
-75 -13 -117 -7 -123 18 -18 30 1 37 62 4 33 10 58 15 55 20 -12 214 -35 223
-26 14 14 -21 26 -124 46 -45 8 -85 18 -88 20 -8 9 66 78 128 120 33 22 63 46
65 53 13 30 -29 21 -99 -23 -42 -26 -77 -46 -79 -44 -3 4 13 113 29 192 7 35
6 37 -19 37 -14 0 -27 -1 -27 -2z"/>
<path d="M6800 3987 c0 -8 7 -20 15 -27 45 -38 65 -270 32 -381 -9 -31 -33
-79 -52 -107 -46 -67 -27 -83 27 -22 59 67 83 156 82 305 -1 102 -4 129 -25
180 -20 51 -28 60 -51 63 -19 2 -28 -1 -28 -11z"/>
<path d="M5427 3940 c-65 -77 -116 -387 -73 -446 23 -30 29 -11 27 83 -2 113
20 220 64 307 32 64 36 86 15 86 -4 0 -19 -13 -33 -30z"/>
<path d="M4407 3934 c-4 -4 -7 -138 -7 -298 0 -159 -5 -352 -11 -429 -7 -89
-7 -143 -1 -149 6 -6 37 -4 87 7 86 17 95 21 95 37 0 6 -25 9 -71 6 l-72 -4 7
136 c3 74 9 253 13 397 l6 262 27 -6 c28 -5 49 12 34 27 -13 12 -98 23 -107
14z"/>
<path d="M4023 3900 c-28 -11 -31 -50 -5 -50 10 0 23 5 30 12 9 9 12 9 12 -1
0 -7 -20 -36 -45 -63 -69 -77 -61 -93 55 -113 56 -10 88 -11 94 -5 17 17 -6
30 -72 42 -34 6 -62 16 -62 21 0 5 18 29 40 53 45 49 50 76 18 98 -25 18 -33
19 -65 6z"/>
<path d="M7074 3875 c-10 -26 5 -34 54 -28 38 4 52 2 66 -13 16 -16 18 -29 12
-113 -4 -53 -13 -242 -20 -419 -8 -178 -18 -328 -23 -333 -5 -5 -27 -12 -49
-15 -94 -12 -104 -15 -104 -30 0 -12 15 -14 85 -10 47 2 92 9 99 15 19 16 25
79 36 392 5 146 14 310 20 364 12 120 3 168 -40 190 -38 20 -129 20 -136 0z"/>
<path d="M6560 3851 c0 -12 -4 -21 -9 -21 -11 0 -60 -172 -68 -238 -3 -33 -2
-52 6 -57 20 -12 41 16 41 54 0 40 39 181 50 181 4 0 15 -18 25 -41 33 -73 71
-69 117 13 l23 41 5 -89 c4 -79 7 -89 25 -92 19 -3 20 4 23 123 2 107 0 126
-13 132 -18 6 -62 -31 -97 -84 -13 -18 -26 -33 -30 -33 -3 0 -17 28 -30 63
-18 47 -29 63 -46 65 -17 3 -22 -2 -22 -17z"/>
<path d="M2640 3825 c-18 -22 -6 -30 51 -31 33 0 56 -7 67 -18 16 -15 13 -20
-46 -76 -49 -48 -62 -66 -62 -90 0 -41 30 -52 133 -48 109 4 113 23 6 31 -45
3 -85 9 -90 14 -5 5 18 35 56 71 36 35 65 71 65 82 0 54 -146 106 -180 65z"/>
<path d="M3636 3739 c-8 -80 -6 -366 3 -399 9 -31 36 -38 50 -11 6 11 31 77
56 148 25 70 64 166 86 212 31 63 38 86 29 95 -22 21 -65 -58 -155 -289 l-35
-90 6 170 c3 94 7 181 8 195 1 18 -5 26 -20 28 -19 3 -22 -3 -28 -59z"/>
<path d="M4800 3775 c-7 -9 -11 -18 -8 -21 3 -2 -5 -53 -18 -111 -12 -59 -21
-111 -18 -115 3 -4 13 -8 23 -8 12 0 25 17 39 53 23 54 76 127 93 127 7 0 8
-20 4 -55 -7 -51 -6 -55 14 -55 12 0 26 11 35 28 14 27 89 102 102 102 3 0 3
-35 -1 -79 -5 -56 -4 -81 5 -86 20 -12 28 6 41 84 8 53 8 80 0 97 -17 39 -66
29 -123 -24 -26 -24 -28 -24 -28 -6 0 24 -18 44 -39 44 -8 0 -30 -12 -49 -27
l-35 -26 7 38 c5 27 4 40 -6 46 -18 12 -24 11 -38 -6z"/>
<path d="M5606 3778 c-24 -69 -53 -205 -46 -212 14 -14 38 1 56 36 19 38 63
88 77 88 6 0 7 -22 3 -55 -5 -47 -4 -57 11 -62 11 -4 20 0 27 13 17 30 92 104
106 104 9 0 11 -11 5 -42 -12 -74 -11 -93 5 -93 32 0 65 130 40 160 -19 22
-62 18 -104 -10 -44 -30 -46 -30 -46 -6 0 10 -7 24 -15 31 -13 11 -22 10 -49
-3 l-33 -15 1 36 c1 27 -3 37 -17 40 -9 2 -19 -2 -21 -10z"/>
<path d="M2404 3666 c-3 -7 15 -43 40 -79 25 -35 46 -71 46 -78 0 -8 -15 -45
-34 -82 -27 -56 -30 -70 -18 -74 17 -7 43 23 68 79 l16 36 30 -34 c37 -42 67
-59 79 -47 6 6 -7 26 -31 51 -54 57 -58 81 -26 138 32 58 33 74 2 74 -19 0
-27 -9 -41 -46 l-18 -47 -34 62 c-35 60 -66 80 -79 47z"/>
<path d="M6060 3660 c0 -20 5 -21 123 -18 100 3 122 6 122 18 0 12 -22 15
-122 18 -118 3 -123 2 -123 -18z"/>
<path d="M3118 3584 c-13 -12 -9 -44 5 -45 48 -2 301 2 305 5 14 15 -21 24
-120 30 -62 4 -129 9 -148 12 -19 3 -38 2 -42 -2z"/>
<path d="M1760 3563 c-50 -3 -80 -20 -80 -43 0 -4 52 -53 115 -110 l116 -103
-26 -27 c-24 -25 -25 -29 -10 -44 11 -11 34 -16 72 -16 52 0 58 -3 116 -53 98
-84 186 -149 199 -145 6 2 -33 40 -88 85 -54 44 -107 89 -117 100 -18 20 -17
21 15 26 18 3 60 9 93 12 74 8 95 14 95 26 0 11 -84 11 -188 0 -55 -5 -78 -4
-90 6 -16 12 -16 14 0 23 54 33 79 63 76 94 -4 44 -37 58 -121 53 -51 -3 -71
-9 -81 -23 -13 -17 -17 -14 -67 33 -30 29 -50 55 -46 60 5 4 133 9 284 10 152
2 278 5 280 7 3 2 -6 10 -19 18 -17 10 -81 13 -248 14 -124 1 -250 -1 -280 -3z
m253 -159 c11 -11 -6 -35 -41 -59 l-36 -25 -39 38 c-37 36 -37 37 -15 44 30 8
123 10 131 2z"/>
<path d="M3830 3463 c-30 -31 -38 -48 -44 -91 -11 -81 22 -132 77 -118 58 14
108 198 63 232 -31 23 -56 17 -96 -23z m70 -40 c0 -39 -30 -115 -48 -127 -13
-8 -24 25 -24 71 0 24 8 43 28 64 36 38 44 37 44 -8z"/>
<path d="M3102 3450 c5 -23 66 -30 193 -19 130 11 155 15 155 30 0 5 -71 8
-175 7 -148 -3 -175 -5 -173 -18z"/>
<path d="M5356 3449 c-335 -5 -612 -11 -615 -14 -25 -26 49 -27 841 -15 706
11 1063 10 1142 -2 25 -4 32 17 9 28 -27 11 -684 13 -1377 3z"/>
<path d="M5361 3343 c-49 -60 -91 -189 -91 -282 0 -49 31 -103 67 -117 40 -17
68 -1 30 17 -40 18 -61 71 -53 138 11 95 44 179 88 223 21 21 36 43 33 48 -13
21 -45 9 -74 -27z"/>
<path d="M4740 3346 c0 -8 33 -44 72 -80 l72 -65 -24 -26 c-24 -26 -25 -27 -6
-41 11 -8 39 -14 63 -14 38 0 47 -5 88 -49 26 -27 58 -65 73 -85 25 -32 52
-47 52 -28 0 4 -29 42 -65 84 l-64 77 37 3 c25 2 37 8 37 18 0 11 -14 16 -55
18 -82 5 -90 18 -34 56 91 60 83 93 -23 98 -69 3 -95 -10 -73 -37 9 -11 23
-13 54 -9 l41 5 -30 -25 c-16 -14 -35 -26 -40 -26 -6 0 -42 32 -80 70 -68 68
-95 84 -95 56z"/>
<path d="M6747 3354 c-4 -4 3 -22 14 -41 41 -66 11 -240 -61 -356 -34 -55 -37
-70 -13 -65 21 4 75 91 104 168 52 135 46 291 -12 298 -13 2 -28 0 -32 -4z"/>
<path d="M6082 3288 c-6 -6 -12 -25 -12 -40 0 -26 -3 -28 -40 -28 -28 0 -43
-5 -47 -16 -8 -22 15 -35 53 -31 l32 3 -6 -58 c-4 -53 -3 -58 15 -58 17 0 21
9 27 60 l7 60 39 0 c29 0 40 4 40 15 0 10 -11 15 -35 15 -35 0 -35 0 -33 42 3
45 -15 61 -40 36z"/>
<path d="M6330 3287 c-19 -10 -24 -20 -22 -42 1 -17 -6 -65 -16 -107 -11 -43
-17 -80 -14 -83 3 -3 14 -5 24 -5 14 0 23 17 40 75 l22 75 17 -27 c37 -56 95
-68 135 -28 16 16 26 20 28 12 2 -6 9 -34 15 -62 7 -27 19 -58 28 -67 20 -22
53 -24 53 -3 0 8 -4 15 -9 15 -15 0 -32 64 -39 152 -6 76 -9 83 -29 86 -17 3
-26 -5 -38 -35 -21 -49 -53 -83 -72 -76 -9 4 -29 35 -44 70 -31 66 -38 71 -79
50z"/>
<path d="M5514 3268 c-4 -6 -8 -34 -9 -62 -1 -28 -5 -70 -10 -93 -7 -39 -6
-43 13 -43 13 0 31 17 52 50 31 48 64 80 84 80 5 0 6 -22 2 -50 -7 -49 -6 -50
19 -50 14 0 25 4 25 10 0 13 70 90 81 90 5 0 9 -29 9 -65 0 -57 2 -65 19 -65
16 0 20 10 26 65 9 81 1 115 -26 115 -25 0 -71 -23 -89 -45 -12 -14 -14 -13
-24 7 -15 31 -49 34 -91 9 l-35 -20 0 33 c0 22 -6 36 -16 40 -21 8 -22 8 -30
-6z"/>
<path d="M6875 2718 c-244 -9 -765 -13 -1870 -11 -434 0 -927 0 -1095 -1 -168
0 -554 3 -858 8 l-553 8 -6 -21 c-3 -12 -11 -21 -18 -21 -29 0 -44 -283 -55
-1010 -4 -338 -11 -625 -15 -637 -4 -12 -16 -25 -26 -28 -25 -8 -25 -45 1 -52
11 -3 20 -12 20 -19 0 -8 9 -14 20 -14 11 0 20 6 20 13 0 23 1992 31 2300 9
115 -8 617 -12 1646 -12 l1481 0 -1 886 -1 886 -34 14 c-27 11 -103 14 -390
12 -196 0 -450 -5 -566 -10z m827 -24 l104 -7 13 -226 c7 -138 11 -459 10
-821 -1 -327 2 -612 5 -633 l7 -37 -503 -1 c-1365 -3 -2513 3 -2708 13 -150 7
-446 8 -975 2 -823 -10 -1095 -9 -1165 4 -44 8 -45 9 -43 42 2 19 7 305 12
635 9 564 20 816 40 945 5 30 7 58 5 61 -9 16 169 17 778 7 476 -7 787 -7
1130 1 352 8 649 8 1163 0 582 -10 759 -10 1135 3 506 17 839 21 992 12z"/>
<path d="M5345 2559 c-200 -6 -422 -17 -645 -31 -8 0 -21 -6 -29 -12 -26 -20
-217 -426 -296 -626 -42 -107 -92 -233 -111 -280 l-34 -85 7 115 c5 63 8 173
8 244 0 159 0 159 -111 131 -75 -18 -97 -36 -76 -57 8 -8 28 -4 72 12 33 12
64 19 68 15 11 -11 5 -238 -12 -440 -8 -102 -11 -184 -6 -189 5 -5 15 -6 23
-3 7 3 60 130 117 283 125 337 196 507 296 705 65 131 77 149 95 144 10 -4 34
-2 52 4 44 14 527 39 917 46 240 5 401 3 615 -9 160 -9 399 -16 532 -16 276 0
258 7 251 -92 -2 -33 1 -53 9 -55 19 -7 34 33 40 108 5 55 3 69 -8 69 -8 1
-126 1 -264 0 -137 0 -378 6 -535 15 -302 16 -566 17 -975 4z"/>
<path d="M6880 2451 c0 -10 6 -21 14 -24 26 -10 66 -111 78 -197 10 -76 9 -94
-10 -165 -11 -45 -27 -98 -36 -119 l-16 -38 -673 3 c-553 3 -677 6 -690 18
-37 30 -10 237 43 342 12 23 33 53 47 66 27 28 24 53 -6 53 -12 0 -31 -18 -50
-46 -62 -94 -96 -225 -89 -349 l4 -77 -276 6 c-151 4 -301 9 -332 12 -48 5
-59 3 -64 -10 -4 -9 -4 -19 -2 -22 11 -10 869 -23 1551 -24 509 0 518 0 507
-19 -13 -26 -13 -31 4 -31 7 0 21 11 29 23 15 23 20 24 197 30 100 3 184 8
187 10 3 3 2 11 -2 16 -4 8 -59 9 -175 5 l-168 -7 30 89 c26 75 31 104 31 184
0 108 -24 198 -68 255 -29 38 -65 47 -65 16z"/>
<path d="M6634 2295 c-17 -26 -73 -234 -74 -273 0 -37 32 -23 42 18 19 76 51
170 58 170 4 0 11 -17 15 -37 3 -21 15 -57 26 -81 17 -40 21 -43 51 -40 29 3
37 10 60 56 l27 54 3 -79 c3 -69 5 -78 23 -81 19 -3 20 3 20 125 0 70 -4 134
-8 141 -19 29 -39 9 -79 -78 -22 -49 -44 -90 -48 -90 -8 0 -24 54 -40 135 -16
82 -46 106 -76 60z"/>
<path d="M5075 2281 c-6 -6 -9 -61 -7 -125 3 -108 5 -116 23 -116 15 0 27 17
50 67 23 51 32 64 39 53 6 -8 10 -28 10 -43 0 -51 27 -44 90 22 32 33 63 61
69 61 7 0 11 -24 11 -58 0 -55 11 -82 35 -82 7 0 12 32 13 84 2 64 -1 86 -13
96 -20 17 -66 0 -121 -46 -28 -22 -44 -30 -44 -21 0 8 -8 21 -19 31 -21 19
-63 9 -80 -21 -8 -14 -10 -6 -11 38 0 42 -4 58 -16 63 -20 8 -18 8 -29 -3z"/>
<path d="M5730 2238 c-1 -2 -2 -46 -4 -98 -2 -52 -5 -104 -7 -115 -3 -14 2
-21 16 -23 16 -2 27 12 53 69 35 73 57 86 57 31 0 -17 6 -37 13 -44 11 -11 23
-2 67 47 63 69 75 65 75 -22 0 -46 3 -53 20 -53 18 0 20 7 20 74 0 65 -3 77
-21 90 -26 18 -61 7 -100 -30 l-26 -25 -7 25 c-8 33 -50 35 -83 4 l-23 -21 0
46 c0 43 -2 47 -25 47 -14 0 -25 -1 -25 -2z"/>
<path d="M6188 2153 c-22 -5 -23 -29 -2 -37 9 -3 58 -6 111 -6 71 0 94 3 91
13 -3 6 -31 15 -64 19 -32 4 -72 9 -89 11 -16 2 -38 2 -47 0z"/>
<path d="M3531 2141 c-12 -8 -13 -36 -7 -165 7 -159 17 -210 42 -220 41 -16
67 25 129 204 26 74 53 142 61 151 20 22 17 39 -6 39 -27 0 -46 -33 -91 -160
-21 -61 -47 -127 -58 -148 -19 -36 -19 -36 -25 -12 -3 14 -7 90 -9 169 -2 143
-7 160 -36 142z"/>
<path d="M2717 2053 c-14 -14 -5 -40 37 -107 l44 -69 -15 -51 c-8 -28 -23 -71
-34 -95 -24 -54 -24 -73 -2 -69 15 3 38 49 72 140 l9 26 42 -39 c37 -35 80
-52 80 -31 0 4 -25 34 -55 65 l-55 56 24 67 c14 37 30 70 37 74 17 11 3 40
-20 40 -19 0 -43 -39 -57 -94 -7 -28 -8 -28 -22 -10 -8 10 -23 38 -34 62 -18
39 -35 51 -51 35z"/>
<path d="M3114 1965 c-11 -28 15 -35 139 -35 92 0 117 3 117 14 0 9 -24 15
-87 20 -48 3 -104 9 -125 12 -30 5 -39 3 -44 -11z"/>
<path d="M3794 1870 c-56 -23 -94 -132 -59 -170 23 -26 91 -27 121 -2 58 47
75 131 34 164 -24 19 -61 22 -96 8z m74 -68 c3 -25 -3 -39 -27 -62 -33 -34
-40 -35 -65 -17 -39 29 11 121 62 115 22 -2 28 -9 30 -36z"/>
<path d="M3091 1833 c-12 -9 -13 -15 -4 -23 8 -9 38 -10 106 -5 86 7 129 17
117 28 -12 12 -204 11 -219 0z"/>
<path d="M5386 1809 c-67 -52 -122 -233 -112 -364 8 -101 41 -184 74 -185 17
0 15 13 -8 58 -59 113 -19 364 71 452 22 21 39 43 39 49 0 18 -35 13 -64 -10z"/>
<path d="M6545 1800 c-4 -6 11 -39 34 -73 44 -67 71 -155 71 -227 0 -51 -23
-140 -48 -182 -9 -15 -13 -30 -9 -34 13 -14 35 6 56 50 65 139 51 286 -42 434
-27 41 -49 53 -62 32z"/>
<path d="M4986 1679 c-37 -156 -51 -258 -38 -271 17 -17 29 -2 35 43 3 22 7
42 9 44 2 2 22 -2 43 -10 55 -19 145 -20 145 0 0 10 -17 16 -60 21 -33 4 -63
11 -66 16 -4 6 17 33 45 62 28 28 51 57 51 63 0 25 -21 22 -76 -8 l-57 -33 7
39 c4 22 14 59 22 82 16 48 12 63 -16 63 -15 0 -23 -19 -44 -111z"/>
<path d="M6303 1658 c-16 -21 -23 -46 -38 -149 -19 -125 -19 -129 4 -129 21 0
30 20 36 78 2 21 7 55 11 77 l7 39 13 -42 c16 -56 31 -72 64 -72 20 0 36 10
53 31 l25 32 11 -69 c7 -38 16 -76 21 -83 12 -20 44 -5 36 16 -4 9 -11 64 -17
122 -11 125 -13 131 -37 131 -13 0 -23 -12 -32 -41 -15 -44 -45 -89 -60 -89
-8 0 -17 26 -34 102 -6 27 -30 58 -45 58 -5 0 -13 -6 -18 -12z"/>
<path d="M5417 1623 c-2 -5 -1 -55 2 -113 5 -89 9 -105 23 -108 13 -2 24 11
42 50 25 57 88 124 105 114 6 -4 11 -32 11 -62 0 -51 2 -55 22 -52 14 2 24 13
29 30 10 37 47 88 65 88 8 0 14 -3 14 -7 3 -44 19 -155 23 -160 4 -3 13 -3 22
0 32 13 10 175 -27 201 -24 17 -50 11 -82 -19 -24 -22 -25 -22 -31 -4 -8 25
-47 34 -77 19 -12 -7 -38 -26 -55 -43 l-33 -31 0 36 c0 20 -3 43 -6 52 -6 16
-39 22 -47 9z"/>
<path d="M5988 1573 l-3 -48 -48 -1 c-85 -2 -92 -44 -7 -44 l48 0 -5 -60 c-5
-50 -3 -60 10 -60 17 0 23 14 32 81 6 44 8 46 48 55 48 10 48 29 -1 29 l-33 0
6 48 c7 45 6 47 -19 47 -23 0 -25 -4 -28 -47z"/>
</g>
</svg>
