<svg height="1072.091882pt" preserveAspectRatio="xMidYMid meet" viewBox="0 0 1784.229297 1072.091882" width="1784.229297pt" xmlns="http://www.w3.org/2000/svg"><g transform="matrix(.1 0 0 -.1 -100.873443 3478.869047)"><path d="m13159 34770c-73-39-132-135-133-217-1-69 31-106 92-106 43 0 112 34 146 72 20 22 20 22 36-21 9-26 26-48 45-59 44-26 145-40 212-29 62 10 79 21 70 44-5 13-22 16-77 16-90 0-156 17-175 43-10 14-15 46-15 92-1 90-24 145-73 168-45 22-83 21-128-3zm133-57c27-31 31-61 10-67-10-4-33-26-50-50-39-54-92-88-129-84-24 2-29 8-31 36-4 43 30 113 74 152 41 35 101 42 126 13z"/><path d="m3420 34573c-11-14-25-44-31-67-5-22-22-81-36-131-31-113-33-153-8-172 26-19 93-12 159 16l48 21-6-22c-3-13-9-56-13-95-6-72-6-73 18-73 22 0 28 11 67 136 24 75 55 160 69 190 21 44 23 57 13 69-7 8-18 15-25 15-19 0-60-52-81-104-17-40-24-48-59-57-22-5-60-17-84-24-25-8-46-13-49-10-2 2 12 67 32 143s36 148 36 159c0 32-27 35-50 6z"/><path d="m2273 34476c-49-55-143-238-150-291-10-81 38-134 51-55 8 48 89 207 151 297 53 76 56 93 16 93-22 0-39-11-68-44z"/><path d="m1817 34493c-2-5-10-26-16-48-29-95-29-95-82-95h-48l11 31c13 38-3 79-31 79-23 0-35-15-50-62-14-42-29-46-72-21-35 21-55 7-45-31 4-17 17-29 41-37 19-7 35-16 35-19s-10-33-21-65c-12-33-22-82-23-110-1-46 1-50 22-50 20 0 28 12 55 85l32 85 45-3c25-2 46-5 48-6 1-2-5-23-13-47-18-51-32-168-19-156 5 5 27 50 50 100 40 91 41 92 85 103 53 13 60 38 11 42-20 2-32 8-29 15 4 14 19 19 131 44 115 26 114 46-2 37l-90-7 6 72c4 60 2 71-11 71-9 0-18-3-20-7zm-82-203c3-6-4-10-17-10-18 0-20 2-8 10 19 12 18 12 25 0z"/><path d="m3026 34464c-155-34-228-82-207-137 8-21 30-37 93-66 98-45 128-72 107-97-14-17-69-44-88-44-5 0-11 10-13 22-6 46-68 29-68-18 0-58 82-83 153-48 58 29 87 64 87 105 0 51-27 80-115 124-41 20-73 41-70 46 15 23 248 74 310 67 45-5 41 20-7 42-51 23-88 24-182 4z"/><path d="m2542 34413c-93-93-133-236-85-301 63-84 177-96 233-24 56 70-18 162-130 162-22 0-40 5-40 10 0 25 69 113 103 132 14 7 23 5 36-6 17-15 19-15 32 0 11 13 11 20-2 42-12 22-23 28-57 30-38 3-46-1-90-45zm68-241c42-21 45-41 7-62-25-14-30-13-64 5-86 46-30 101 57 57z"/><path d="m12695 34420c-77-21-157-39-177-39-21-1-38-6-38-11 0-6-16-18-35-27-39-19-51-43-35-72 12-23 34-30 205-67 66-14 146-34 177-45 71-24 78-24 78 1 0 26-62 67-132 86-32 9-58 19-58 23 0 3 60 3 132-2 139-7 1789-16 1916-9 75 4 99 19 73 45-9 9-265 12-1049 13-621 0-1051 5-1072 10l-35 10 60 13c33 7 88 22 123 33 59 18 63 21 60 46-4 38-28 37-193-8z"/><path d="m1345 33920c-107-5-135-11-135-31s51-27 250-33c195-6 520-21 715-31 50-3 308-12 575-20 267-9 546-20 620-25 74-6 144-10 155-10 20 0 20-7 20-407 0-225 4-484 8-578 14-334 37-1078 48-1570 8-410 6-1110-6-1315-1-25-6-237-10-472-7-438-5-466 30-399 11 22 17 97 25 323 6 161 15 421 20 578 13 362 13 1187 0 1660-11 403-28 942-35 1120-2 63-9 300-15 525-5 226-12 438-14 473l-5 62 37-5c20-2 76-10 125-16 92-12 117-9 117 14 0 44-87 63-355 82-121 8-359 19-530 25-650 22-912 31-954 35-25 2-160 7-300 10-141 4-260 7-266 8-5 1-59 0-120-3z"/><path d="m17226 33789c-41-32-53-64-107-285s-57-257-22-262c19-3 24 5 42 66 12 38 21 74 21 79 0 12 80 23 177 23 64 0 71-2 66-19-5-21 28-31 108-31h49l-20-50c-11-27-29-73-40-101-12-28-19-54-16-57 3-2 17 3 31 12 31 20 70 96 80 154 5 33 11 42 22 38 8-3 44-6 80-6 65 0 65 0 58-27-3-15-33-96-66-180s-58-157-54-163c13-20 44-9 63 23 11 17 32 64 47 104 26 68 29 71 52 62 36-14 139-11 177 5 51 21 76 60 76 118 0 127-93 188-190 124-22-15-40-31-40-36 0-15-41-12-90 5-24 8-84 20-134 25-49 6-97 17-106 24-36 31-173 45-267 27-24-5-43-7-43-5 0 30 53 243 65 261 17 25 17 25 196 22 107-2 180 1 181 6 6 20-71 45-163 55-150 16-202 13-233-11zm748-431c9-12 16-39 16-60 0-45-26-73-74-81-42-7-116 3-116 15 0 18 32 70 67 109 42 46 82 52 107 17z"/><path d="m12528 33793c-43-5-65-25-45-41 8-7 53-15 101-18 65-5 86-10 82-20-3-7-10-32-16-56s-27-91-47-150c-30-89-34-110-23-123 19-23 38-18 60 18 25 40 68 171 84 257l12 65 120 6c65 4 144 7 173 8 78 2 55 18-60 41-72 15-130 19-249 18-85-1-172-3-192-5z"/><path d="m14905 33659c-55-4-248-10-430-14-181-4-334-11-339-15-4-5 3-15 16-24 34-22 184-36 338-31 152 5 366 16 400 21 54 8 628 17 663 10 20-4 41-15 46-24s10-77 12-151l4-135-33-8c-43-11-40-38 6-50l32-9v-104c0-96-2-105-19-105-23 0-42-22-33-36 4-6 15-14 26-17 29-11 17-94-18-123-36-31-69-33-721-39-313-3-594-8-624-11l-54-6 8 268c15 468 13 524-20 524-21 0-35-64-35-166v-91l-61-7c-34-3-220-6-414-6-193 0-388-5-431-11-44-6-100-9-124-7l-45 3 55 30c44 24 55 35 55 55 0 15-6 26-17 28-9 2-71-24-136-57l-119-61h-784c-431 0-856 4-944 9-327 20-383 22-510 22-80 0-155 6-195 16-51 11-95 13-205 7-77-4-219-8-315-9-186-3-246-12-385-63-93-34-191-128-223-214-31-82-45-214-40-363 5-142 14-170 84-266 50-68 255-253 310-278 73-35 162-50 369-64 198-12 772-16 909-5 78 6 80 5 103-22 16-20 48-37 101-54 115-38 231-65 237-56 8 13-112 88-180 113l-60 22 105 7c58 4 152 12 210 17 58 6 136 12 174 13 65 1 70 0 71-20 2-30 25-45 105-71 37-12 79-33 94-46 35-32 46-32 46 3 0 51-53 97-134 116-15 4-26 9-24 11 3 3 119 7 259 9s317 7 395 11l141 7 6-77c4-43 7-162 7-264 0-210 7-239 69-275 29-17 57-20 185-23 83-2 214-10 291-19 118-13 157-14 247-4 82 10 138 10 235 1 290-25 464-33 568-27 112 7 773 19 1875 35 338 5 642 13 675 19 33 5 76 13 95 17 34 6 37 4 53-30 12-25 23-35 35-33 19 4 19 0 7 269-4 86-4 191 0 233l7 76h530 529l-35-33c-52-50-62-117-17-117 11 0 25 9 31 20s42 40 79 65c106 70 117 124 38 188-80 65-175 119-203 115-68-8-49-67 38-121l51-32-514-5-514-5-4 55c-1 30 3 138 9 240 16 240 12 322-18 353-23 22-23 22-677 27l-654 5 29 54c30 54 30 55 30 218v163h468 467l-54-48c-59-52-66-85-21-90 18-2 45 14 99 60 94 79 118 117 101 158-13 32-38 46-157 85-92 30-123 27-123-11 0-20 11-29 63-53l62-29-452-1-453-1-1 88c0 48-4 120-8 161-6 63-11 77-35 97-27 24-27 24-334 22-169-1-352-5-407-9zm-3815-409c74-5 171-12 215-14 44-3 414-6 821-6h742l6-26c9-35 63-57 208-85 90-18 121-20 130-11 21 21-10 40-133 79l-120 38 123 7c68 4 317 12 553 17 237 5 445 12 464 16 29 7 33 5 28-8-3-8-9-120-12-249-4-128-8-238-10-245-3-9-169-13-697-15-381-2-699-7-706-12-44-28 17-31 705-34 680-3 697-3 710-22 18-26 53-26 60-1 8 30 67 33 704 37 316 1 897 6 1292 9 548 5 722 3 733-6 17-14 18-122 4-274-22-226-35-462-35-656v-207l-95-11c-61-8-484-15-1180-21-647-6-1142-15-1226-21-161-14-513-7-725 12-110 10-158 10-245 0-94-11-127-10-234 3-69 9-196 19-283 23-124 5-163 10-177 22-17 15-19 40-23 283-3 218-2 268 9 272 20 8 17 43-4 48-17 5-19 22-25 184-9 252-29 364-63 364-24 0-26-22-14-153 6-73 12-190 13-260l2-129-70-3c-258-11-638-15-625-6 8 6 49 29 90 53 62 35 75 47 75 68 0 18-6 26-22 28-23 3-140-56-234-119-56-38-57-38-205-49-82-5-165-12-184-15-82-11-224-16-217-9 5 5 48 29 95 54 74 38 87 49 87 70 0 16-6 26-18 28-17 3-257-116-288-144-9-8-36-17-60-19-83-10-759-17-758-8 0 4 28 21 61 37 152 72 401 386 438 552 6 27 11 105 11 175-1 103-5 138-21 182-20 54-107 179-132 191-16 8 284-1 462-14zm-1165-26c-24-21-32-33-20-29 131 45 410 75 515 55 115-22 197-87 247-196 23-52 25-63 21-197-3-132-5-146-31-196-93-182-257-369-368-421-108-50-179-63-304-57-201 10-255 30-379 141-109 97-151 141-189 200-32 50-32 50-35 212-5 237 18 325 101 401 78 70 245 122 392 122h90z"/><path d="m15173 32508c-41-46-158-215-191-278-19-36-38-69-43-74-7-8-52 123-65 194-10 49-31 87-56 101-18 10-24 8-40-11-10-12-18-32-18-45s-7-25-15-28c-8-4-25-43-39-89-124-423-121-408-103-425 15-15 18-15 37 2 29 26 139 388 141 464 0 14 15-26 33-89 44-159 68-200 116-200 37 0 51 19 104 140 52 118 119 224 124 197 2-10-3-75-12-145-34-284-32-345 11-365 42-19 52 4 58 133 2 63 14 187 25 275 23 185 25 236 8 253-19 19-53 14-75-10z"/><path d="m9946 32874c-12-31-6-53 20-73 20-15 31-18 44-11 47 25 25 100-29 100-17 0-31-6-35-16z"/><path d="m2707 33348c-36-39-130-224-189-372-45-113-48-161-9-161 20 0 30 14 70 105 25 58 67 148 93 200l47 95-6-97c-7-110 0-128 50-128 32 0 90 53 186 169 25 30 47 49 49 43s-14-78-36-159c-55-203-54-199-36-214 37-30 60 17 124 250 22 79 40 157 40 173 0 45-17 68-50 68-23 0-41-13-82-57-144-155-180-189-175-163 3 14 11 69 18 123 11 93 11 100-8 125-29 39-50 38-86 0z"/><path d="m1437 33313c-3-4-10-28-17-53-6-25-29-82-52-128-40-82-43-112-12-112 9 0 53 37 98 83 74 75 179 147 193 133 8-8-22-73-58-127-32-49-37-84-13-93 18-7 15-9 113 62 74 53 183 112 209 112 21 0 13-45-29-154-38-99-44-136-19-136 27 0 118 185 127 258 5 45 3 53-21 77-23 23-32 26-64 20-40-7-159-61-168-76-13-22-21-6-12 25 33 107-53 131-179 50l-52-33-3 47c-2 34-7 48-20 50-9 2-18-1-21-5z"/><path d="m15037 33270c-30-27-58-50-61-50s-6 13-6 28c0 16-8 36-18 45-41 37-102 12-158-65l-39-53-5 48c-6 49-36 92-56 79-6-4-14-60-17-134-6-121-5-128 13-138 29-15 53 4 107 87 52 77 93 124 103 118 4-3 4-24-1-47-4-24-8-48-9-55 0-14 27-43 42-43 5 0 47 39 94 87 46 48 86 84 89 81 4-4-9-72-29-152-39-158-41-172-26-181 12-8 70 114 99 210 54 175-6 241-122 135z"/><path d="m2081 32976c-20-24-101-284-101-325 0-54 84 95 135 240 19 54 19 85-1 93-21 8-20 8-33-8z"/><path d="m18445 32295c-86-31-103-82-112-345-4-127-3-182 6-198 13-25 33-28 49-9 18 21 75 446 62 462-18 21 41 35 154 36 114 0 247 19 247 34 1 32-326 48-406 20z"/><path d="m1549 32200c-88-46-209-265-209-376 0-34 6-51 25-69 42-43 74-31 172 66 58 58 64 61 56 34-12-43-9-173 4-186 24-24 43-2 43 48s21 137 61 261c19 60 21 76 11 92-7 11-12 34-12 51 0 86-69 122-151 79zm81-99c0-82-15-108-132-228-93-96-111-79-59 53 35 89 93 177 134 203 49 32 57 28 57-28z"/><path d="m18543 32015c-107-23-137-57-57-63 61-5 324 38 324 53 0 7-10 15-22 19-39 10-180 5-245-9z"/><path d="m2522 31980c-10-11-31-57-47-103-108-315-442-711-575-682-29 6-31 5-28-17 5-34 63-47 120-25 93 36 246 192 374 383 62 94 62 94 78 69 30-45 90-32 159 34l39 36-6-35c-21-139-18-202 10-179 8 6 14 18 14 27s30 103 66 209c53 156 63 197 54 208-25 31-49 16-96-57-71-110-184-222-184-180 0 23 42 174 58 212 32 73 34 86 17 104-21 21-30 20-53-4z"/><path d="m10746 31770c-24-4-49-18-62-34-36-41-124-336-124-414 0-23 30-52 53-52 21 0 42 40 65 127l19 68 79 7c96 8 244 38 244 48 0 11-220 24-258 15-17-3-35-4-40-1-8 5 9 134 21 153 4 5 53 13 109 17 57 3 131 11 166 17 56 10 63 14 60 33-3 20-8 21-148 22-80 1-163-2-184-6z"/><path d="m11912 31745c-69-30-13-65 106-65h82l-6-27c-15-59-82-309-89-330-5-16-2-24 13-32 45-24 81 54 132 285l23 101 86 6c48 3 116 15 156 28l70 23-95 12c-139 18-436 17-478-1z"/><path d="m1882 31623c-5-10-12-42-16-71-7-58-57-196-106-292-21-41-28-66-22-72 14-14 94 97 144 201 34 69 42 98 46 159 4 56 1 76-9 83-20 13-27 11-37-8z"/><path d="m11500 31479c-41-17-71-50-100-112-22-45-29-53-33-37-7 28-36 25-47-5-14-37-55-226-100-460-33-172-37-212-27-223 8-7 21-10 30-6 21 8 41 71 148 467 19 71 27 86 39 80 8-5 53-8 100-8 140 1 230 55 230 140 0 104-146 204-240 164zm106-68c75-34 98-101 48-140-38-30-94-42-172-39-65 3-67 4-63 28 6 45 60 139 88 154 36 20 50 19 99-3z"/><path d="m11007 31410c-103-7-130-18-107-45 9-11 32-15 91-15 78 0 79 0 59-20-24-24-55-84-86-167-30-79-31-113-5-113 14 0 26 17 45 68 49 123 110 242 126 242 37 0 240 43 240 51 0 10-212 10-363-1z"/><path d="m17471 31202c-14-27-2-39 74-70 39-16 93-41 120-55l50-26-800-2c-717-2-944-4-1375-8-122-1-166-10-145-29 19-18 206-21 1255-22h1055l-55-31c-66-36-110-76-110-101 0-24 25-23 61 3 45 32 146 75 241 102 110 32 128 42 128 72 0 36-38 59-178 105-255 84-304 94-321 62zm339-132c13-9 13-10 0-10-8 0-22 5-30 10-13 9-13 10 0 10 8 0 22-5 30-10z"/><path d="m1210 30899c-107-3-196-6-197-7-10-7 0-32 15-36 9-3 307-8 662-11s749-9 875-15c409-17 603-21 609-12 3 5 0 17-8 27-11 15-44 19-257 31-443 24-1287 35-1699 23z"/><path d="m18060 30834c-83-36-153-141-154-232-1-47 3-57 27-78 15-13 40-24 54-24 35 0 106 42 137 82 25 33 26 33 40 12 9-12 29-27 46-34 43-18 149-9 188 16l32 20-59-4c-69-5-126 11-146 41-16 25-21 84-10 110 12 29-4 67-38 87-38 24-69 25-117 4zm117-66c19-15 16-28-6-28-13 0-29-18-49-53-51-90-132-145-149-101-16 43 54 165 110 190 33 14 72 11 94-8z"/><path d="m4849 30539c-58-62-76-184-78-519-2-304-20-437-82-593-36-91-33-110 13-105 30 3 34 0 46-37 14-38 16-175 8-510-2-105 12-230 35-304 18-56 80-127 120-136 44-10 47 1 11 38-17 17-40 53-50 78-42 97-47 149-44 462 3 336-4 400-49 452-28 31-28 32-13 76 51 146 71 332 73 669 2 214 12 313 37 362 19 37 40 45 64 23s56-16 52 10c-5 30-49 65-84 65-21 0-39-9-59-31z"/><path d="m2735 30472c-40-19-65-54-65-92 0-35 22-33 54 4 22 26 42 38 67 42 78 13 221-56 235-112 9-35-27-70-148-144-115-71-154-103-173-141-17-33-19-82-5-110 22-40 112-64 150-39 13 8 13 10-2 10-22 0-88 58-88 76 0 33 40 70 162 150 80 53 136 97 148 117 24 38 26 87 5 127-48 93-243 158-340 112z"/><path d="m1755 30439c-21-5-50-20-64-32-47-44-131-259-186-481-22-87-25-113-16-133 8-17 18-23 34-21 25 3 69 84 106 196l23 67h71c128 1 247 15 247 30 0 8-15 17-34 20-45 9-235 1-260-10-17-7-18-6-12 11 4 10 18 70 32 133 13 63 30 121 39 130 17 18 113 30 243 30 103 1 115 12 48 44-45 21-211 32-271 16z"/><path d="m9862 30327c-7-7-19-33-27-58-36-100-139-286-244-439-119-173-209-277-218-252-7 19-30 14-36-8-14-54 31-87 78-56 45 30 113 111 206 246 47 68 130 204 140 230 3 9 9-1 13-25 16-84 74-100 135-37 20 20 44 48 54 62 17 24 17 22 15-75-3-100-3-100 22-100 22 0 26 6 32 45 3 25 13 85 22 134 20 112 20 160 0 180-24 24-45 6-96-81-25-43-60-91-78-108l-33-30 6 70c3 39 18 111 33 160 35 114 36 149 8 153-11 2-26-3-32-11z"/><path d="m7920 30245c-29-35 21-55 136-55 24 0 44-2 44-4s-19-50-41-107c-43-105-60-201-41-213 17-10 39 31 76 140 60 176 64 184 100 185 92 2 337 32 357 44 33 21-17 25-305 25-265 0-315-2-326-15z"/><path d="m5569 30226c-20-14-61-53-92-88l-56-63-1 66c0 70-16 106-43 96-9-3-18-21-21-39-34-231-36-267-13-282 25-16 42-2 108 85 32 41 80 97 109 124l52 50-6-35c-17-100-18-140-6-155 26-31 54-16 153 81 54 53 101 94 104 91 3-4 0-41-7-84-6-43-10-103-8-133 3-51 5-55 28-55 21 0 25 5 28 35 1 19 9 71 17 116 27 145 16 194-40 194-25 0-63-28-150-112l-51-48 4 70c4 58 1 75-13 90-24 27-53 25-96-4z"/><path d="m6261 30233c-44-22-105-100-147-188-51-105-45-166 19-189 29-10 97 26 149 78l47 47 16-35c29-61 116-71 214-23 59 29 67 50 14 35-43-12-128-4-149 13-10 8-13 29-12 69 2 32 6 56 10 54 14-9 17 14 7 51-6 22-26 54-44 72-38 38-71 42-124 16zm115-80c31-34 50-73 22-45-21 21-45 13-73-25-59-80-140-153-170-153-18 0 52 146 96 199 27 33 64 60 83 61 4 0 24-17 42-37z"/><path d="m6874 30173c-13-13-13-18-1-37 21-30 78-44 188-45 123-1 279 26 279 48 0 5-78 11-172 14-98 3-196 12-226 20-47 13-55 13-68 0z"/><path d="m11075 30178c-68-37-145-147-145-207 0-42 36-66 76-51 16 6 37 19 46 27 17 15 18 12 18-60v-76l-50-25c-149-75-239-171-258-276-16-87 17-157 100-212 76-52 189-66 237-30 54 39 56 56 52 347-1 88-2 165-1 171 0 6 26 22 58 36 120 52 111 47 76 47-17 1-53-6-80-14s-50-15-51-15c-2 0-3 36-3 79 0 61 4 83 17 96 10 10 18 39 21 69 3 41 0 56-18 79-23 29-59 35-95 15zm63-75c2-8-5-13-16-13-10 0-37-22-61-50-44-52-71-67-50-29 6 12 29 42 52 66 39 42 66 52 75 26zm-54-485c17-276 10-308-66-308-49 0-95 19-141 59-74 66-70 146 11 234 48 51 170 139 182 132 4-3 10-55 14-117z"/><path d="m10475 30142c-29-18-67-57-113-117l-23-30 6 52c9 72-19 121-44 76-5-10-16-67-25-127-14-96-15-112-2-124 27-28 59-6 111 79 28 44 66 95 85 112 34 30 35 30 38 9 2-12-4-47-13-78-12-43-13-59-4-70 26-32 55-16 128 71 40 47 81 89 91 95 19 10 20 7 21-42 1-68 20-133 39-133 11 0 17 18 23 65 11 93 1 147-29 167-32 21-52 12-127-57l-57-52v39c0 28-7 46-23 61-28 27-43 27-82 4z"/><path d="m2293 30110c-31-13-29-38 3-50 52-20 304 1 304 25 0 22-265 44-307 25z"/><path d="m8904 30106c-27-21-8-48 42-59 57-13 228-2 314 19l75 19-100 6c-55 4-134 12-175 18-102 14-133 14-156-3z"/><path d="m6968 30019c-24-14-22-36 4-50 40-21 335 12 353 40 2 4-53 11-123 14-170 9-214 8-234-4z"/><path d="m2733 29753c-7-2-13-15-13-29 0-17 7-25 24-30 31-7 46 1 46 26 0 16-29 42-42 39-2 0-9-3-15-6z"/><path d="m11417 29316c-9-13-33-64-53-112-72-175-256-446-404-594-104-105-179-152-206-129-10 8-18 9-25 2-17-17-6-46 22-62 25-14 31-13 91 17 109 54 277 238 413 455l49 77 12-36c29-83 103-81 192 7 22 21 42 39 44 39s2-31 0-69c-5-109 27-196 41-109 3 18 19 87 36 153 33 130 38 174 19 193-21 21-55 14-73-15-58-91-147-183-178-183-12 0-8 59 8 124 18 69 28 99 62 175 29 64 27 85-8 89-19 2-31-4-42-22z"/><path d="m5632 29258c-5-7-13-24-17-38s-15-34-25-45c-27-30-45-71-83-185-105-314-122-395-82-395 26 0 35 21 95 210 61 191 101 307 107 302 2-2 8-44 14-93 14-111 30-151 64-160 40-10 81 14 142 82 31 35 58 62 60 60 2-1-8-54-22-116-31-137-34-194-10-220 22-24 56-11 48 19-7 29 33 211 77 351 45 141 48 165 21 179-25 14-37 3-100-91-52-76-163-198-180-198-11 0-17 36-35 199-11 98-18 127-32 138-22 16-29 16-42 1z"/><path d="m12685 29201c-78-36-165-154-165-222 0-96 90-136 191-83l29 15v-130c0-71 3-136 6-144 4-11-4-17-28-22-127-27-271-102-319-166-49-65-57-134-23-200 74-145 307-175 389-51 32 49 51 148 54 292 1 58 5 107 7 110 3 3 33 15 67 28l62 22-67-4-67-5-7 37c-4 20-2 103 5 184s10 152 6 158c-3 5-13 10-21 10-17 0-17 8 1 40 21 36 19 103-3 123-29 26-73 29-117 8zm69-70c3-5-3-42-13-82-16-66-22-76-52-92-48-25-83-19-87 14-4 32 51 116 97 146 37 25 47 28 55 14zm1-637c14-148-15-268-74-298-117-61-294 57-248 166 23 54 73 94 191 152 61 30 114 55 118 55 3 1 9-33 13-75z"/><path d="m7834 29156c-37-17-48-41-74-172-11-56-33-145-50-198-16-53-27-103-24-111 4-8 17-15 30-15 26 0 43 27 64 102 12 47 12 47 79 62 57 12 111 23 209 42 41 8 26 34-20 36-77 2-152-4-196-17-50-15-49-20-5 94 20 49 23 68 15 82-6 9-8 20-5 23 4 3 52 6 107 7 132 1 230 18 234 41 5 24-17 28-184 33-111 3-157 1-180-9z"/><path d="m9287 29161c-44-9-51-15-44-34s53-27 148-27c44 0 79-2 79-4 0-3-16-60-35-128-40-137-41-171-8-176 28-4 33 6 78 171l38 137h129c104 0 128 3 128 14 0 16-10 20-95 36-75 14-367 22-418 11z"/><path d="m12312 29097c-17-13-49-43-71-67l-39-43-7 37c-9 44-43 71-78 62-23-5-77-59-124-122l-22-29v51c-1 27-7 59-15 70-26 34-45-2-67-122-21-118-19-148 10-164 32-17 49-2 120 104 38 56 76 108 86 116 16 14 17 11 10-38-8-60 3-82 41-82 18 0 47 24 103 82l78 81-5-85c-5-95 10-140 54-160 32-15 39-6 21 29-11 21-12 44-6 98 15 129 12 172-13 189-30 21-38 20-76-7z"/><path d="m1188 29043c-34-9-19-31 25-37 130-17 782-23 1407-12 315 5 527-5 638-30 63-15 75-15 82-3 14 21-16 46-68 58-105 24-359 32-777 24-486-9-649-9-1020-1-148 3-278 4-287 1z"/><path d="m6235 28992c-48-30-100-93-136-168-29-58-34-79-34-138 0-62 2-70 26-88 39-30 85-11 152 62l55 59 6-31c8-41 33-68 63-68 24 0 32 15 11 23-13 4-15 138-3 177 7 21-19 50-45 50-13 0-30-21-56-70-34-64-110-150-134-150-22 0-9 77 23 145 39 81 77 129 118 151 28 14 31 13 54-10l25-25v34c0 60-64 84-125 47z"/><path d="m6775 28963c-11-29 36-60 102-69 62-7 247 1 303 15l35 8-35 6c-19 4-91 14-160 23-69 8-143 19-165 24-58 14-72 12-80-7z"/><path d="m10266 28938c-113-8-181-30-181-58 0-30 50-35 188-17 244 32 307 43 307 56 0 8-43 14-170 24-19 2-84-1-144-5z"/><path d="m8523 28923c-21-8-15-41 10-55 25-13 203-19 312-9 56 5 70 10 73 24 2 9-2 17-10 17-7 0-80 7-163 15-155 15-201 17-222 8z"/><path d="m6822 28807c-34-41 54-55 248-40 84 6 105 11 108 24 4 21-53 29-218 29-92 0-131-4-138-13z"/><path d="m3724 27841c-96-59-238-344-291-586-8-38-17-133-20-210-5-122-3-152 16-225 24-95 74-210 92-210 7 0 8 7 4 18-50 117-59 168-59 307 0 240 49 438 171 684 45 93 80 148 110 178 58 58 44 85-23 44z"/><path d="m5814 27707c-3-8 3-44 14-79 34-109 46-208 46-363-1-275-75-513-206-660-35-39-48-59-40-67 20-20 113 70 180 176 33 52 82 171 106 256 40 147 45 390 12 557-25 125-92 232-112 180z"/><path d="m8034 27546c-40-18-61-48-80-116-9-30-48-135-87-233-61-154-69-181-59-202 14-31 55-34 75-5 7 11 33 65 57 120 34 79 47 99 59 94 49-20 307-21 327-2 13 14-9 28-44 28-40 0-236 27-264 36-12 4-18 16-18 38 0 46 39 155 60 166 9 5 108 11 219 14 110 3 206 8 211 11 17 10 11 34-11 46-13 6-99 13-218 15-156 4-202 2-227-10z"/><path d="m5376 27451c-3-4-19-45-36-90-16-46-41-101-54-124s-31-67-40-97-32-95-53-144c-38-91-38-117 0-124 24-5 48 42 98 186l44 127 5-82c5-85 10-96 48-108 32-10 66 28 151 173 40 68 74 122 76 120s-11-75-30-162c-41-185-44-231-15-246 14-8 26-8 40 0 22 12 27 36 9 42-7 2 2 55 25 156 20 83 39 180 43 214 5 55 3 65-15 82-12 10-28 16-36 13-7-3-43-54-79-114-71-117-133-203-147-203-9 0-8 15 16 211 12 104 13 141 5 158-12 21-45 29-55 12z"/><path d="m10688 27349c-9-5-31-44-48-86-18-43-53-109-78-148-224-345-442-575-547-575-28 0-35-24-9-34 51-20 123 15 217 103 83 78 219 242 302 364l59 88 14-28c19-37 30-43 73-43 36 0 94 34 148 87 13 13 26 22 28 19 2-2-6-32-17-67-31-90-37-157-16-165 22-9 43 11 52 49 3 18 29 92 56 166 42 112 48 137 39 157-6 13-18 24-27 24s-47-33-85-74c-68-73-150-136-176-136-29 0-8 114 41 221 14 28 22 57 19 64-7 19-26 25-45 14z"/><path d="m12057 27306c-108-39-203-159-169-213 22-34 113-29 159 9 15 12 16 10 10-21-4-18-7-59-7-90v-57l-108-47c-117-51-198-112-226-171-67-141 84-308 281-310 62-1 75 2 97 23 37 35 49 91 42 196-3 50-9 132-12 183l-6 92 96 45c53 25 96 50 96 55 0 15-17 12-104-15-44-14-82-22-85-20-2 3 3 50 12 106 24 148 5 170-93 104-63-43-88-47-65-11 20 30 81 73 117 81 21 5 29 2 38-14 21-41 56-15 44 33-5 21-51 57-71 56-4-1-25-7-46-14zm-3-468c7-32 26-258 26-302 0-23-7-43-21-57-18-18-29-21-76-16-66 7-128 42-177 99-56 64-45 126 31 184 36 28 190 113 205 114 4 0 10-10 12-22z"/><path d="m3765 27283c-15-71-29-113-62-180-30-60-34-75-23-88 7-8 18-15 24-15s55 44 108 98c53 53 110 105 127 115 30 17 31 17 31 0 0-10-14-49-30-88-17-38-30-77-30-85 0-19 19-40 36-40 7 0 56 42 108 93 102 99 195 163 222 153 36-14 3-116-83-259-34-57-38-87-9-87 21 0 71 72 116 165 47 98 55 143 36 188-19 46-55 55-108 27-45-23-182-123-193-139-15-26-22-8-9 27 19 54 17 96-6 117-29 26-74 13-144-41l-59-46 7 40c4 30 2 45-10 56-23 24-43 19-49-11z"/><path d="m9662 27293c-17-3-22-10-20-26 3-19 12-23 63-30 116-17 209-55 199-81-8-20-90-62-169-85-106-32-135-53-135-96 0-32 4-38 35-51 46-19 183-17 264 4 97 26 91 42-16 43-99 1-183 11-168 21 6 3 33 13 60 21 117 34 205 98 205 149 0 34-69 94-130 112-60 18-151 27-188 19z"/><path d="m6180 27263c-49-34-97-97-145-191-63-125-58-222 14-222 29 0 97 44 113 73 9 18 11 17 30-14 29-47 48-59 87-56 33 2 58 27 28 27-9 0-26 17-39 38-19 31-23 50-23 122 0 84 0 85-25 85-21 0-28-8-41-50-16-48-90-145-111-145-16 0-2 47 38 125 37 75 100 158 89 118-9-31 13-38 40-13 32 30 40 67 20 96-18 28-41 30-75 7z"/><path d="m11424 27238c-16-12-48-40-72-62-43-41-43-41-36-11 12 45 10 78-3 82-33 12-129-210-106-245 21-33 56-14 143 77 47 48 94 95 104 102 18 13 19 12 12-39-14-109 35-123 141-38 37 30 69 54 70 52 1-1-4-24-12-51-19-61-19-77 1-123l16-37 33 105c40 123 42 151 15 175s-54 15-127-45l-63-51v46c0 26-5 55-10 66-15 26-69 25-106-3z"/><path d="m4709 27240c-9-5-28-36-42-68l-27-59-67-6c-38-4-86-7-109-7-22 0-49-6-59-14-17-12-18-16-5-31 13-16 27-17 118-11 95 5 103 5 98-12-15-46-46-169-46-182 0-12 2-12 14 0 17 18 78 134 93 176 11 30 14 32 80 38 127 13 140 30 31 40-39 3-73 8-75 10-2 1 4 22 12 46 24 68 18 99-16 80z"/><path d="m6752 27171c-48-8-72-25-56-41 18-18 119-30 209-25 106 7 337 34 343 40 3 2 2 11-1 20-6 13-37 15-229 14-123-1-242-5-266-8z"/><path d="m8821 27141c-25-16-3-39 49-50 76-16 305-15 319 3 19 23-7 32-130 44-138 14-219 15-238 3z"/><path d="m6804 27066c-9-24 3-45 33-58 36-14 297-23 341-11 50 13 43 27-18 35-208 26-308 40-327 45-15 3-25 0-29-11z"/><path d="m7355 26240c-93-4-466-8-829-9-362 0-661-3-665-5-3-2-166-6-361-10s-411-9-480-11c-158-7-668-24-735-26-50-1-50-1-15-10 35-10 982-12 1135-4 44 3 393 7 775 10s817 7 965 10c872 16 894 16 1215-3 175-11 459-20 640-21 178-1 340-3 360-6 19-2 112-7 205-10 247-8 434-16 485-20 25-3 155-7 290-10s286-8 335-10c50-3 218-8 375-11s353-9 435-14c224-11 996-11 1185 0 91 5 584 10 1095 11 653 2 982 6 1105 15 223 17 862 29 915 17 72-16 69 22 75-940 4-663 8-855 18-865 38-38 42 43 43 967 0 730-1 762-32 838-23 56-37 58-401 56-183-1-412-8-508-16-127-10-467-15-1235-20-1946-11-2418-9-2975 12-69 2-231 7-360 10s-248 8-265 9c-16 2-113 7-215 11-102 3-210 8-240 10-126 9-445 18-740 21-173 1-434 10-580 18-269 16-696 18-1015 6z"/><path d="m4020 26213c0-5-5-37-10-73-11-76-50-464-80-800-12-129-23-248-25-265-3-16-19-165-36-330s-33-321-36-347c-3-29-2-48 4-48s13-18 16-41c3-22 14-50 24-61 35-40 72-47 254-49 96-1 302-8 459-15s557-14 890-15c550-1 911-7 1377-23 93-3 276-8 408-12 132-3 323-10 425-15 469-24 2055-41 2420-27 547 22 714 24 1010 14 124-4 461-9 750-11s566-6 615-9c308-20 837-23 2190-12 891 8 894 8 1080 68 57 19 71 27 73 46 5 34-16 35-114 7-180-52-202-54-1074-61-1182-9-1400-10-1640-2-118 4-460 10-760 13s-680 8-845 12c-584 13-944 9-1464-19-144-7-365-9-675-3-253 4-571 8-706 10-475 5-626 8-750 15-149 9-386 18-680 25-118 3-240 7-270 10-30 2-170 7-310 10-140 4-261 8-267 10-7 3-300 5-650 6-351 2-728 6-838 11-110 4-337 12-505 16-321 9-356 15-365 56-15 79-11 164 20 421 56 454 125 1241 125 1414 0 74-2 81-20 81-11 0-20-3-20-7z"/><path d="m6945 25957c-178-183-366-617-365-842 1-96 32-173 81-199 35-19 36-19 74 0 58 29 57 44-3 37l-49-5-17 48c-30 89-17 213 41 383 66 198 190 431 300 568 19 24 31 47 28 53-13 21-41 8-90-43z"/><path d="m9390 25996c0-9 9-47 19-86 63-226 50-563-29-801-35-104-112-249-140-265-25-13-25-13 13-14 50 0 92 45 146 155 53 109 70 162 102 315 22 101 19 432-4 540-22 102-53 164-85 168-15 2-22-2-22-12z"/><path d="m10085 25924c-44-22-76-55-91-91-23-53-17-82 21-120 34-34 37-35 103-31 37 2 82 11 101 21 19 9 36 17 38 17 1 0 3-17 3-39v-39l-82-25c-184-58-247-144-170-231 25-28 112-66 150-66 84 0 144 71 157 185 11 108 6 101 108 135l92 30-92-5-92-6-3 83c-3 78-4 83-26 86-14 2-27 15-36 36-29 70-111 97-181 60zm115-64c12-12 20-33 20-55 0-28-5-37-30-50-33-17-93-20-121-5-37 20-19 78 34 110 41 25 72 25 97 0zm55-322c-10-63-25-111-44-132-25-29-104-17-142 21-35 34-32 51 14 79 33 19 155 73 170 73 5 1 6-18 2-41z"/><path d="m4603 25850c-43-26-56-55-92-201-17-68-37-146-45-174-36-126-69-283-63-298 9-24 44-21 61 6 7 12 24 65 36 117s26 98 30 103c9 10 210 37 282 37 68 0 83 15 34 35-52 22-132 28-216 16-41-5-76-8-78-6-3 2 3 35 11 72 9 37 19 86 22 107 10 62 43 123 69 128 41 8 296-22 328-38 39-20 57-6 40 30-17 38-62 56-180 71-148 20-200 19-239-5z"/><path d="m8783 25728c-6-7-19-40-28-73s-46-151-81-263c-51-161-63-207-53-218 18-22 37-17 52 14 8 15 36 100 63 190 47 157 61 179 63 96 3-97 62-194 119-194 48 0 79 35 143 163l61 122-6-100c-18-292-18-329 1-352 34-41 43-33 48 42 2 39 11 138 19 220 16 169 15 278-4 301-8 8-25 14-39 12-27-3-41-26-114-184-38-85-84-154-101-154-29 0-65 145-66 265 0 82-47 150-77 113z"/><path d="m11592 25603c-5-10-15-40-21-68-7-27-17-67-22-88l-10-38-77 6c-162 11-164 11-176-8-9-15-7-22 13-38 19-16 39-19 123-19h101l-7-32c-4-18-13-76-21-128-30-194-14-212 39-42 21 64 43 135 50 157 12 39 13 39 92 55 115 24 134 29 134 40 0 6-42 10-101 10-91 0-100 2-95 18 31 105 33 185 4 190-9 2-21-5-26-15z"/><path d="m12260 25582c-35-29-17-41 58-39 96 3 143-29 128-87-10-40-100-130-196-195-83-57-90-65-90-95 0-22 6-36 16-40 39-15 330 7 350 27 4 3 4 13 1 22-5 12-28 15-124 16h-118l45 37c70 59 140 134 161 174 39 77 15 154-57 184-50 21-147 18-174-4z"/><path d="m13387 25553c-24-37-39-68-86-178-60-137-253-370-395-474-73-54-163-101-195-101-20 0-22 4-17 28 3 15 31 76 62 136 78 153 57 155-47 3-47-67-78-133-79-163 0-39 37-74 78-74 46 0 142 45 219 101 74 55 215 196 277 278l48 64 13-30c33-78 103-54 249 87 54 52 96 86 93 75s-15-65-27-119c-21-102-19-121 16-114 14 2 27 30 51 106 18 57 38 130 44 163 11 56 10 62-8 81-13 13-28 18-40 14-10-3-60-50-110-105-81-87-171-161-195-161-29 0 17 153 84 277 55 103 59 136 16 141-22 3-31-4-51-35z"/><path d="m8085 25557c-8-12-21-49-28-82l-13-59-62 3c-50 2-63-1-68-14-10-25 19-47 70-52l46-6v-50c0-27 6-68 12-91l13-41 21 90 21 90 70 6c86 8 133 18 133 29 0 13-26 19-110 26-44 4-80 7-80 8s6 35 14 76 12 78 10 82c-10 15-34 8-49-15z"/><path d="m14828 25551c-121-77-196-254-133-316 28-29 97-34 132-10 20 14 21 13 26-38 2-29 3-55 1-59-2-3-39-25-82-49-99-54-136-81-196-143-63-66-80-100-80-161 0-85 49-135 152-154 70-14 143 4 192 46 74 63 100 149 100 325 0 98 0 98 33 118 17 11 76 39 130 62 161 68 115 77-75 14l-98-32v101c0 56-4 105-10 111s-2 24 11 52c32 64 36 115 10 141-29 29-59 26-113-8zm62-68c0-10-14-47-30-81-17-35-30-69-30-76 0-21-37-48-62-44-46 6-18 87 59 170 49 51 63 58 63 31zm-22-550c-7-169-51-234-161-241-73-4-122 20-133 64-8 32 22 97 64 137 38 36 204 147 221 147 11 0 13-21 9-107z"/><path d="m7069 25548c0-2-2-32-3-68-2-36-11-89-20-117-23-69-19-97 15-101 21-2 42 11 95 58 38 34 82 71 98 83l29 21-5-55c-7-60 3-86 35-98 33-13 68 10 164 107 47 48 83 78 79 68-4-11-9-45-13-77-5-52-3-59 20-83 14-14 33-26 42-26 18 0 19 4 4 28-9 14-7 37 5 96 22 105 21 143-3 156-37 19-54 10-150-85-54-52-99-95-102-95-2 0-3 19-1 43 3 31-2 49-16 66-35 44-95 26-180-53l-33-31 7 57c8 65-11 108-46 108-11 0-20-1-21-2z"/><path d="m5193 25463c-25-5-35-24-22-44 12-20 237-17 399 5 151 21 168 26 115 37-41 8-452 10-492 2z"/><path d="m13927 25433c-8-15-25-80-38-144-19-98-21-120-10-133 29-35 58-19 178 94 63 61 118 109 120 106 3-2-6-36-18-75l-23-71 22-22c21-21 23-21 54-6 18 9 73 50 122 92s92 74 94 71c3-2-1-32-8-65-13-61-9-145 7-161 11-11 68 152 78 223 6 39 4 49-14 67-12 12-30 21-40 21-18 0-89-50-173-120l-37-31 6 64c5 62 4 66-20 82-24 15-28 15-67-5-23-12-80-58-127-103l-86-82 9 45c4 25 8 74 9 109 0 72-15 90-38 44z"/><path d="m5188 25333c-26-7-22-40 5-47 29-8 342-8 401 0 35 5 46 11 46 24 0 14-10 19-42 22-62 6-390 7-410 1z"/><path d="m9951 25298c-14-7-26-19-29-25-9-30 51-35 333-29 308 6 388 13 382 30-5 16-96 23-397 31-210 5-270 4-289-7z"/><path d="m10132 25105c-22-10-32-20-30-31 3-15 20-17 130-18 69-1 130-5 135-9 13-13-33-44-163-107-67-33-129-69-139-80-25-28-13-68 28-85 51-21 192-28 301-15 117 14 146 23 146 47 0 17-14 18-168 19-93 0-174 4-181 8-8 6 18 26 78 60 50 29 107 67 127 85 29 28 35 39 32 70-2 30-9 39-38 53-45 23-208 24-258 3z"/></g><g fill="#44b" transform="matrix(.054411653 0 0 -.054411653 1552.83009553537 1089.50360991264)"><path d="m750 2973c-57-10-88-25-119-57-40-41-55-100-46-179 6-45 12-61 32-77 32-25 35-25 64-1 22 17 24 26 21 89-4 105 24 120 164 87 33-7 119-19 190-25 88-8 134-16 144-26 32-32 8-420-28-456-18-18-126-28-289-28-185 0-206-4-250-52-55-58-58-82-55-363 1-145 7-274 13-293 11-34 51-62 89-62 12 0 35 14 52 31l31 30-6 238c-3 130-3 249 0 264l5 27h112c234 1 363 26 423 82 58 54 98 260 91 463-4 122-7 138-34 191-40 81-79 100-217 108-174 10-361 14-387 9z"/><path d="m3660 2971c-42-9-83-34-103-65-39-59-50-127-54-343-5-206-5-212 18-252 28-50 78-86 143-102 48-12 257-8 370 7l49 7-7-104c-4-57-11-189-16-294-9-177-9-192 8-214 35-47 100-46 136 2 22 29 27 86 42 452 7 191 0 235-44 283-45 48-92 56-241 38-146-18-229-20-265-6l-26 10v162c0 156 8 230 27 249 5 5 99 6 210 2l201-6 5-50c3-39 11-56 31-74 34-29 48-29 80 0 24 20 26 30 28 113 4 147-23 169-218 179-242 11-340 13-374 6z"/><path d="m1565 2945c-14-13-25-32-25-42s-1-297-3-638c-2-677-3-662 55-694 33-19 73-7 101 31 18 24 20 51 29 300 5 150 10 278 12 283 2 6 37 8 97 3 52-3 135-7 186-7 154-2 161-10 143-176-21-189-27-310-18-343 12-45 45-72 86-72 71 0 102 46 102 151 0 33 7 118 16 187 24 190 9 280-58 349-50 52-112 67-263 65-71-1-164-6-205-11-41-4-78-7-81-5-4 2-10 108-13 236-9 286-17 352-47 384-31 33-82 32-114-1z"/><path d="m2542 2944c-55-38-64-109-53-419 6-186 9-215 28-250 50-95 116-125 302-135 75-4 171-5 215-1l78 7-4-178c-2-97-7-181-11-184-4-4-42 1-85 11-104 26-285 27-363 3-106-33-149-107-99-170 26-34 68-41 132-21 74 23 202 20 308-7 182-47 274 5 301 168 12 77 27 831 19 994-7 152-20 181-86 186-88 7-103-51-104-401v-219l-201 4c-197 3-201 3-220 27-18 21-19 42-19 283v260l-29 29c-33 33-74 38-109 13z"/><path d="m2374 1391c-55-34-79-78-79-147 0-51 4-66 27-96 35-45 102-73 153-64 78 15 146 111 131 188-20 108-145 172-232 119z"/><path d="m1853 999c-39-11-66-56-61-101 6-59 69-64 76-6 4 30 34 38 145 38h67v-110c0-135-1-136-132-126-85 6-89 6-113-18-24-25-25-28-25-179 0-162 4-177 47-177 35 0 43 29 43 159v121h73c85 0 141 14 168 41 17 17 19 34 19 169 0 147-1 152-25 175-23 24-30 25-137 24-62 0-128-5-145-10z"/><path d="m2985 1000c-91-16-93-18-104-58-15-51-14-537 0-564 19-36 69-48 204-48 121 0 127 1 151 25l24 24-2 292-3 292-26 19c-31 23-161 33-244 18zm169-86c14-5 16-37 16-250v-245l-102 3-103 3v240 240l40 6c57 9 131 10 149 3z"/><path d="m2351 971c-24-24-29-73-37-372-6-232-6-237 15-258 23-23 29-25 51-11 12 7 16 40 20 150l5 141 35-23c19-13 59-55 88-93 30-39 78-96 108-128 47-51 56-57 74-47 29 16 25 42-15 92-19 24-62 78-95 121-61 77-61 77-33 77 15 0 46 9 69 19 56 26 67 57 62 179-6 156-27 172-220 172-93 0-111-3-127-19zm257-74c16-13 17-168 0-185-7-7-41-12-84-12-40 0-84-4-98-10l-26-10v120 119l98-6c53-3 103-10 110-16z"/></g></svg>