<svg width="121.9mm" height="69.8mm" version="1.1" viewBox="0 0 121.9 69.8" xml:space="preserve" xmlns="http://www.w3.org/2000/svg"><g transform="translate(-5.281 -20.07)"><path d="m5.281 54.97h121.9" fill="#fff" fill-rule="evenodd" stroke="#000" stroke-dashoffset="4.415" stroke-linejoin="round" stroke-width=".6" style="paint-order:stroke fill markers"/><g><path d="m65.96 20.64v68.66h0.5996v-68.66z" fill-rule="evenodd" stop-color="#000000" stroke-dashoffset="4.415" stroke-linejoin="round" style="paint-order:stroke fill markers"/><path d="m66.25 20.64v68.66" fill="#fff" fill-rule="evenodd" stop-color="#000000" stroke-dashoffset="4.415" stroke-linejoin="round" style="paint-order:stroke fill markers"/><g stroke-linecap="round"><path d="m66.26 20.07-2.014 2.012a0.3 0.3 0 0 0 0 0.4238 0.3 0.3 0 0 0 0.4258 0l1.588-1.588 1.588 1.588a0.3 0.3 0 0 0 0.4238 0 0.3 0.3 0 0 0 0-0.4238z" stop-color="#000000"/><path d="m64.24 87.44a0.3 0.3 0 0 0 0 0.4238l2.014 2.014 2.012-2.014a0.3 0.3 0 0 0 0-0.4238 0.3 0.3 0 0 0-0.4238 0l-1.588 1.588-1.588-1.588a0.3 0.3 0 0 0-0.4258 0z" stop-color="#000000"/></g><path d="m49.35 25.09-0.5195 0.3008 0.8984 1.559 0.5195-0.3008zm1.199 2.078-0.5195 0.3008 0.9004 1.559 0.5195-0.3008zm1.199 2.078-0.5195 0.3008 0.9004 1.559 0.5195-0.3008zm1.201 2.078-0.5195 0.3008 0.9004 1.559 0.5195-0.2988zm1.199 2.08-0.5195 0.2988 0.9004 1.559 0.5195-0.2988zm1.201 2.078-0.5195 0.2988 0.8984 1.561 0.5195-0.3008zm1.199 2.078-0.5195 0.3008 0.9004 1.559 0.5195-0.3008zm1.199 2.078-0.5195 0.3008 0.9004 1.559 0.5195-0.3008zm1.201 2.078-0.5195 0.3008 0.9004 1.559 0.5195-0.3008zm1.199 2.08-0.5195 0.2988 0.9004 1.559 0.5195-0.2988zm1.201 2.078-0.5195 0.2988 0.8984 1.559 0.5195-0.2988zm1.199 2.078-0.5195 0.2988 0.9004 1.561 0.5195-0.3008zm1.199 2.078-0.5195 0.3008 0.9004 1.559 0.5195-0.3008zm1.201 2.078-0.5195 0.3008 0.9004 1.559 0.5195-0.3008zm1.199 2.078-0.5195 0.3008 0.9004 1.559 0.5195-0.2988zm1.201 2.08-0.5195 0.2988 0.8984 1.559 0.5195-0.2988zm1.199 2.078-0.5195 0.2988 0.9004 1.559 0.5195-0.2988zm1.199 2.078-0.5195 0.3008 0.9004 1.559 0.5195-0.3008zm1.201 2.078-0.5195 0.3008 0.9004 1.559 0.5195-0.3008zm1.199 2.078-0.5195 0.3008 0.9004 1.559 0.5195-0.3008zm1.201 2.078-0.5195 0.3008 0.8984 1.559 0.5195-0.2988zm1.199 2.08-0.5195 0.2988 0.9004 1.559 0.5195-0.2988zm1.199 2.078-0.5195 0.2988 0.9004 1.561 0.5195-0.3008zm1.201 2.078-0.5195 0.3008 0.9004 1.559 0.5195-0.3008zm1.199 2.078-0.5195 0.3008 0.9004 1.559 0.5195-0.3008zm1.201 2.078-0.5195 0.3008 0.8984 1.559 0.5195-0.3008zm1.199 2.078-0.5195 0.3008 0.9004 1.559 0.5195-0.2988zm1.199 2.08-0.5195 0.2988 0.9004 1.559 0.5195-0.2988zm1.201 2.078-0.5195 0.2988 0.7266 1.262 0.5195-0.3008z" fill-rule="evenodd" stop-color="#000000" stroke-dasharray="1.8, 0.600001" stroke-linejoin="round" style="paint-order:stroke fill markers"/><path d="m49.09 25.24 34.33 59.46" fill="#fff" fill-rule="evenodd" stop-color="#000000" stroke-dasharray="1.8, 0.600001" stroke-linejoin="round" style="paint-order:stroke fill markers"/><g stroke-linecap="round"><path d="m48.8 24.75-0.7363 2.748a0.3 0.3 0 0 0 0.2109 0.3691 0.3 0.3 0 0 0 0.3672-0.2129l0.582-2.168 2.168 0.5801a0.3 0.3 0 0 0 0.3691-0.2129 0.3 0.3 0 0 0-0.2129-0.3672z" stop-color="#000000"/><path d="m84.23 82.08a0.3 0.3 0 0 0-0.3672 0.2129l-0.582 2.168-2.168-0.5801a0.3 0.3 0 0 0-0.3672 0.2109 0.3 0.3 0 0 0 0.2109 0.3691l2.748 0.7363 0.7383-2.75a0.3 0.3 0 0 0-0.2129-0.3672z" stop-color="#000000"/></g></g><path d="m59.05 42.46a14.44 14.44 0 0 1 7.071-1.926" fill="none" stop-color="#000000" stroke="#000" stroke-width=".6615" style="-inkscape-stroke:none;font-variation-settings:normal"/><circle cx="50.38" cy="54.97" r=".9"/><circle cx="82.13" cy="54.97" r=".9"/><g stroke-width=".4498"><path d="m12.96 63.71h-1.843l0.06174-0.2646q0.2469 0 0.4145-0.07937 0.1676-0.07937 0.3704-0.3175 0.2028-0.2469 0.5292-0.7497l3.052-4.419h0.3704l0.6967 4.78q0.08819 0.4322 0.2293 0.6085 0.1411 0.1764 0.538 0.1764l-0.05292 0.2646h-2.355l0.05292-0.2646q0.2205 0 0.3704-0.03528 0.1588-0.03528 0.2469-0.1411 0.08819-0.1058 0.08819-0.3263 0-0.1058-0.0088-0.194 0-0.09701-0.0088-0.1764l-0.09701-0.8819-0.01764-0.1764-0.2999-2.637h-0.02646l-1.764 2.637-0.1058 0.1764-0.6703 1.023q-0.0882 0.1235-0.1588 0.2469-0.06174 0.1235-0.06174 0.2469 0 0.1411 0.1058 0.194 0.1147 0.0441 0.4057 0.0441zm2.752-1.931h-2.469l0.2117-0.3528h2.222z" style="font-variant-ligatures:none" aria-label="A"/><path d="m50.43 63.71h-2.54l0.05292-0.2646q0.3087 0 0.4851-0.05292 0.1852-0.05292 0.291-0.2117 0.1147-0.1676 0.1764-0.4939l0.7849-3.775q0.06174-0.3087 0.03528-0.4586-0.02646-0.1588-0.194-0.2117-0.1676-0.06174-0.5292-0.06174l0.05292-0.2646h4.551l-0.2381 1.438h-0.2646q0.0088-0.4233-0.05292-0.6615-0.05292-0.2381-0.2999-0.3351-0.2469-0.09701-0.8202-0.09701h-1.323l-0.9172 4.516q-0.01764 0.08819-0.02646 0.1676-0.0088 0.07055-0.0088 0.1323 0 0.2293 0.2117 0.2999 0.2117 0.07056 0.6174 0.07056zm1.632-1.976h-0.291q0.07056-0.3792 0.03528-0.5556-0.03528-0.1764-0.2293-0.2293-0.1852-0.06174-0.5644-0.06174h-1.041l0.06174-0.3351h1.067q0.3792 0 0.5821-0.07055 0.2117-0.07056 0.3175-0.2558 0.1147-0.194 0.1852-0.5468h0.2822z" style="font-variant-ligatures:none" aria-label="F"/><path d="m32.21 50.94h-0.2646l0.3704-1.905h0.2469q0.0441 0.6085 0.1676 0.9349 0.1323 0.3263 0.3969 0.4498 0.2646 0.1235 0.7056 0.1235 0.3704 0 0.6526-0.1058 0.291-0.1147 0.4586-0.3351 0.1676-0.2293 0.1676-0.5644 0.0088-0.3792-0.1676-0.6438-0.1676-0.2646-0.441-0.4674-0.2734-0.2117-0.5909-0.4057-0.291-0.1852-0.538-0.3792-0.2381-0.194-0.3881-0.4586-0.1411-0.2734-0.1411-0.6791 0-0.5115 0.2734-0.8643 0.2734-0.3528 0.7144-0.5292 0.441-0.1852 0.9349-0.1852 0.3881 0 0.5997 0.06174 0.2205 0.06174 0.344 0.1323 0.1235 0.06174 0.2205 0.06174 0.1147 0 0.194-0.05292 0.08819-0.06174 0.1499-0.2028h0.2117l-0.2999 1.711h-0.2558q-0.02646-0.732-0.2646-1.058-0.2381-0.3351-0.9084-0.3351-0.5468 0-0.8555 0.2646-0.3087 0.2646-0.3087 0.7408 0 0.2646 0.1411 0.4851 0.1499 0.2205 0.3969 0.4057 0.2469 0.1852 0.5292 0.3616 0.3263 0.2117 0.6085 0.4233 0.291 0.2117 0.4762 0.4939t0.1852 0.7056q0 0.5644-0.2822 0.9613t-0.7497 0.6174q-0.4674 0.2117-1.014 0.2117-0.4586 0-0.7232-0.07055-0.2646-0.06174-0.4145-0.1235-0.1411-0.07056-0.2469-0.07056-0.08819 0-0.1764 0.07937-0.08819 0.07937-0.1147 0.2117z" style="font-variant-ligatures:none" aria-label="S"/><path d="m82.18 63.71h-2.54l0.05292-0.2646q0.3087 0 0.4851-0.05292 0.1852-0.05292 0.291-0.2117 0.1147-0.1676 0.1764-0.4939l0.7849-3.775q0.06174-0.3087 0.03528-0.4586-0.02646-0.1588-0.194-0.2117-0.1676-0.06174-0.5292-0.06174l0.05292-0.2646h4.551l-0.2381 1.438h-0.2646q0.0088-0.4233-0.05292-0.6615-0.05292-0.2381-0.2999-0.3351-0.2469-0.09701-0.8202-0.09701h-1.323l-0.9172 4.516q-0.01764 0.08819-0.02646 0.1676-0.0088 0.07055-0.0088 0.1323 0 0.2293 0.2117 0.2999 0.2117 0.07056 0.6174 0.07056zm1.632-1.976h-0.291q0.07056-0.3792 0.03528-0.5556-0.03528-0.1764-0.2293-0.2293-0.1852-0.06174-0.5644-0.06174h-1.041l0.06174-0.3351h1.067q0.3792 0 0.5821-0.07055 0.2117-0.07056 0.3175-0.2558 0.1147-0.194 0.1852-0.5468h0.2822z" style="font-variant-ligatures:none" aria-label="F"/><path d="m120.2 63.71h-2.54l0.0529-0.2646q0.3351 0 0.5204-0.05292 0.1852-0.06174 0.2822-0.2381 0.097-0.1852 0.1676-0.5468l0.7496-3.625q0.0794-0.3528 0.0353-0.5203-0.0353-0.1764-0.2117-0.2293-0.1676-0.05292-0.4939-0.05292l0.0529-0.2646h2.231q0.7496 0 1.164 0.1499 0.4145 0.1499 0.5821 0.4145 0.1676 0.2558 0.1676 0.5733 0 0.4762-0.2117 0.7937-0.2117 0.3087-0.5644 0.5027-0.344 0.1852-0.7673 0.2822v0.0441q0.344 0.0441 0.6262 0.194 0.291 0.1411 0.4586 0.3969 0.1764 0.2469 0.1764 0.6174 0 0.5909-0.3351 0.9966-0.3263 0.4057-0.8908 0.6174-0.5556 0.2117-1.252 0.2117zm-0.3351-0.3175q0.2999 0 0.6262-0.0441 0.3351-0.05292 0.6262-0.2028 0.291-0.1588 0.4674-0.4498 0.1852-0.2999 0.1852-0.7849 0-0.4057-0.2028-0.6262-0.194-0.2293-0.5204-0.3175-0.3263-0.09701-0.6967-0.09701h-0.6085l0.0706-0.3528h0.5997q0.9172 0 1.296-0.3704 0.3792-0.3792 0.3792-1.032 0-0.2381-0.1146-0.4322-0.1146-0.2028-0.3969-0.3175-0.2822-0.1147-0.7761-0.1147-0.1323 0-0.2205 0.0088-0.0794 0-0.2205 0.01764l-1.032 5.089q0.1499 0.0088 0.2558 0.01764 0.1147 0.0088 0.2822 0.0088z" style="font-variant-ligatures:none" aria-label="B"/><path d="m60.48 38.63q-0.538 0-0.7761-0.4322-0.2381-0.441-0.2381-1.199 0-0.8114 0.2646-1.42 0.2646-0.6174 0.732-0.9525 0.4762-0.344 1.085-0.344 0.3175 0 0.5203 0.1323 0.2028 0.1323 0.3175 0.3351 0.1235 0.194 0.1764 0.4233 0.06174 0.2205 0.08819 0.4057h0.194l-0.07055 0.7761q0 0.2381 0 0.5203 0.0088 0.2734 0.0441 0.5203 0.0441 0.2381 0.1411 0.3969 0.09701 0.1499 0.2822 0.1499 0.2028 0 0.3351-0.09701 0.1411-0.1058 0.2646-0.2469l0.1411 0.1411q-0.05292 0.07937-0.1411 0.2293-0.08819 0.1411-0.2293 0.291-0.1411 0.1411-0.344 0.2469-0.2028 0.09701-0.4674 0.09701-0.3087 0-0.441-0.2117-0.1235-0.2117-0.1235-0.538 0-0.1588 0.02646-0.344 0.02646-0.1852 0.0441-0.4057h-0.07056q-0.2558 0.4145-0.5468 0.7673-0.2822 0.344-0.5821 0.5556-0.2999 0.2028-0.6262 0.2028zm0.194-0.7761q0.3175 0 0.6174-0.1764 0.2999-0.1852 0.538-0.4851 0.2469-0.2999 0.3881-0.6615t0.1411-0.7232q0-0.4145-0.2205-0.5997-0.2117-0.194-0.635-0.194-0.7144 0-1.173 0.4498-0.4586 0.441-0.4586 1.332 0 0.5733 0.2469 0.8202 0.2558 0.2381 0.5556 0.2381zm2.002-1.358-0.03528-0.7673q0.1588-0.4057 0.3792-0.7849 0.2293-0.3881 0.3704-0.5821l0.732-0.01764 0.0088 0.1323q-0.07056 0.0882-0.2293 0.2999-0.1588 0.2028-0.3528 0.4674-0.194 0.2558-0.3792 0.5203-0.1852 0.2646-0.3175 0.4674-0.1323 0.194-0.1764 0.2646z" style="font-variant-ligatures:none" aria-label="α"/><text x="91.676498" y="42.468945" fill="#000000" font-family="'STIX Two Text'" font-size="8.819px" font-style="italic" stop-color="#000000" style="-inkscape-stroke:none;font-variant-ligatures:none;line-height:normal;text-decoration-color:#000000" xml:space="preserve"><tspan x="91.676498" y="42.468945" stroke-width=".4498"/></text><text x="80.863373" y="-8.9325819" fill="#000000" font-family="'STIX Two Text'" font-size="8.819px" font-style="italic" stop-color="#000000" style="-inkscape-stroke:none;font-variant-ligatures:none;line-height:normal;text-decoration-color:#000000" xml:space="preserve"><tspan x="80.863373" y="-8.9325819" stroke-width=".4498"/></text></g><path transform="matrix(.1258 -.1258 .1258 .1258 30.41 57.44)" d="m33.38 10.34-6.565-2.09-3.511 5.928-0.04117-6.889-6.722-1.507 6.539-2.168-0.644-6.859 4.083 5.549 6.324-2.732-4.016 5.598z" fill-rule="evenodd" stroke="#000" stroke-linejoin="round" stroke-width=".6" style="paint-order:stroke fill markers"/></g></svg>
