<svg height="2761.974799pt" preserveAspectRatio="xMidYMid meet" viewBox="0 0 2200.328036 2761.974799" width="2200.328036pt" xmlns="http://www.w3.org/2000/svg"><g transform="matrix(.1 0 0 -.1 -45.171964 2799.974687)"><path d="m1440 27958c-10-24-36-89-56-145-42-111-44-113-135-113-26 0-39-4-39-14 0-14 42-26 92-26 59 0 17-17-56-23-79-6-116-19-116-42 0-21 9-23 85-15 39 5 72 6 74 4s-3-28-11-57c-10-35-12-59-6-70 18-34 47-18 104 58 53 71 59 75 95 75 22 0 39-3 39-6s-11-28-25-55c-16-33-20-49-11-49 16 0 60 47 80 86 12 24 24 33 53 38 78 14 93 18 93 27 0 5-25 9-55 9-53 0-55 1-44 21 10 19 18 21 105 17 65-2 94 0 94 8 0 14-75 34-129 34-23 0-41 2-41 4s14 36 31 76c32 76 35 115 8 115-9 0-48-40-86-90-87-113-93-117-141-113l-40 3 44 115c24 63 44 127 44 143 0 42-27 33-50-15zm152-196c-13-33-22-42-41-42-24 0-24 0-5 23 66 79 73 82 46 19zm-148-107c-6-16-64-22-64-7s13 22 41 22c21 0 27-4 23-15zm97-3c-7-14-18-18-41-14-25 3-28 7-19 18 6 8 25 14 41 14 25 0 27-3 19-18zm-171-81c-14-27-36-40-27-17 4 10 7 22 7 27s7 9 15 9c12 0 14-4 5-19z"/><path d="m2062 27884c-63-65-169-185-190-215-14-21-9-39 13-39 7 0 27 12 44 26s31 24 31 21c0-2-18-42-39-88-49-104-55-128-42-162 21-55 73-23 101 63 11 35 12 43 0 50-14 9 3 49 77 180 59 104 93 172 93 185 0 7-7 18-15 25-13 11-24 4-73-46z"/><path d="m2413 27856c-65-31-159-95-196-133-92-98-44-303 71-303 95 0 180 128 141 213-22 48-78 58-146 27-112-50 21 73 146 135 61 31 91 33 91 4 0-30 32-20 45 15 8 24 6 31-14 47-31 26-75 24-138-5zm-35-266c4-33-36-92-71-104-21-8-31-6-47 9-11 10-20 25-20 34 0 26 30 62 64 77 45 20 70 14 74-16z"/><path d="m2753 27865c-101-44-48-191 97-265 44-22 44-37 1-63-42-25-66-21-96 16-24 30-26 31-39 14-20-27-2-74 37-93 41-22 98-13 143 21 72 55 70 110-6 152-56 30-130 105-130 132 0 31 16 36 140 41 102 4 115 7 118 24 2 10-2 22-10 27-22 14-219 10-255-6z"/><path d="m3324 27841c-50-23-110-75-130-112-22-43-18-94 10-126 23-27 28-28 105-26 53 1 81-2 81-9 0-6-20-30-44-54-32-33-51-44-74-44-29 0-62 21-62 41 0 5-7 9-15 9-22 0-19-56 5-80 55-55 148-23 218 77 26 37 29 85 5 108-14 15-29 16-88 11-82-7-102 4-91 50 16 62 107 114 199 114 68 0 93 13 81 44-9 24-145 22-200-3z"/><path d="m5937 27484c-17-17-3-31 68-73 97-57 176-135 211-208 72-146 9-347-166-524-57-58-92-84-148-110-58-27-72-38-70-54 5-31 34-29 111 7 133 64 250 188 327 347 60 125 65 257 14 366-34 74-139 180-215 217-59 29-120 44-132 32z"/><path d="m6632 27475c-64-28-71-84-37-312 24-157 27-197 22-338-6-176-18-254-71-464-20-77-36-149-36-160 0-38 22-69 62-87 51-23 64-44 79-127 19-115-6-286-101-687-44-186-54-264-39-328 18-80 97-142 182-142 82 0 91 53 12 65-33 4-58 16-83 40-37 34-37 34-36 122 1 78 30 235 84 458 22 90 41 227 47 335 9 182-19 272-100 315-26 14-37 27-37 42 0 13 17 94 38 180 22 87 45 196 53 243 21 128 17 376-10 539-11 74-21 157-21 186 0 79 34 96 54 28 13-42 46-22 46 26 0 24-35 67-58 73-11 3-33 0-50-7z"/><path d="m7286 27458c-14-23-104-291-146-438-12-41-26-78-31-81s-33-7-61-8c-59-3-80-15-76-45 3-18 11-21 68-25 107-5 521 47 528 67 6 19-62 25-233 20-162-4-163-4-155 16 4 12 24 58 45 104 36 83 116 303 129 354 12 50-41 78-68 36z"/><path d="m9422 27397c-16-19-90-300-103-391l-11-76-72-1c-86-1-120-10-124-31-7-36 32-41 257-34 245 8 551 45 551 66 0 4-124 7-275 5-317-2-290-14-251 112 75 238 92 345 60 357-21 8-20 8-32-7z"/><path d="m11230 27374c-6-14-31-110-55-212-47-194-47-217-2-210 17 3 26 26 58 148 49 185 60 247 53 276-8 33-42 31-54-2z"/><path d="m484 27276c-9-25 16-57 60-76 60-27 253-39 841-51 1071-22 2126-20 2425 6 36 3 236 9 444 15 209 5 388 12 398 16 11 3 18 15 18 29 0 31-30 39-113 31-34-3-208-10-387-15s-417-15-530-22c-406-24-2306-10-2854 22-178 10-235 20-260 44-18 19-35 19-42 1z"/><path d="m5855 27204c-27-20-69-45-93-56-34-15-43-24-40-41 5-34 73-29 121 7 21 16 37 26 37 22 0-3-19-52-42-108-50-123-57-191-20-196 14-2 24 3 28 15 4 10 33 86 66 169 69 175 73 217 23 222-22 2-44-8-80-34z"/><path d="m10504 27105c-7-19-14-48-14-64 0-47-19-58-107-60-80-2-111-15-100-44 7-19 85-30 147-22l47 6 7-87c10-129 21-130 42-3 7 45 17 86 21 90 5 5 43 14 86 20 102 15 103 34 0 43-42 3-78 7-79 9-2 2 1 30 6 62 7 41 6 63-1 72-19 22-39 14-55-22z"/><path d="m15380 27034c-361-32-663-109-960-246-240-110-510-276-510-314 0-31 31-23 116 32 130 84 459 246 609 299 486 174 995 211 1514 110 668-131 1168-497 1281-940 64-249-26-524-231-710-216-195-632-350-1169-434-110-17-182-25-395-46-108-11-438-13-585-4-791 47-1196 256-1312 675-18 67-22 105-22 259 0 153 4 196 23 285 35 155 36 160 18 160-10 0-22-26-37-82-71-263-69-530 7-722 95-243 296-409 618-512 122-39 303-77 440-94 50-6 108-13 130-16 77-12 471-19 625-12 443 20 901 106 1241 233 445 166 687 423 729 772 40 330-161 685-526 929-287 191-639 312-1064 364-89 11-463 21-540 14z"/><path d="m8362 26973c-100-3-124-7-129-19-11-30 22-47 91-46 77 1 250 28 277 43 34 17 10 29-54 27-34-1-117-4-185-5z"/><path d="m11458 26958c-184-6-422-35-480-57-30-11-37-38-13-48 9-3 93 4 188 16 234 29 547 60 631 63 43 2 71 8 73 15 6 16-148 20-399 11z"/><path d="m1211 26929c-25-27-31-60-67-357-4-29-11-55-15-58-5-3-9-1-9 5 0 19-62 81-99 99-23 11-60 17-101 17-54 0-74-5-120-31-120-68-186-219-120-279 44-40 181-23 332 40l78 33v-29c0-28 30-69 50-69 30 0 61 132 105 455 9 68 23 127 31 136 18 20 18 24-2 43-21 22-39 20-63-5zm-228-373c36-15 68-48 85-88 11-26 10-27-41-41-110-31-263-58-284-50s-15 47 16 95c52 82 147 117 224 84z"/><path d="m2321 26844c-12-15-21-31-21-36 0-6-29-72-65-148s-65-147-65-159c0-11 12-28 26-38 26-16 30-16 108 4 44 12 90 25 100 29 16 6 18 4 12-12-26-66-23-177 6-182 12-2 18 7 23 40 3 24 24 97 45 163 47 149 52 172 45 196-15 47-50 9-76-81-15-54-32-70-76-70-19 0-54-5-79-11s-47-9-51-6c-3 3 17 55 45 114 70 148 85 192 71 209-16 20-25 18-48-12z"/><path d="m8405 26840c-126-14-195-41-195-77 0-24 24-24 141-3 63 12 152 27 198 34 86 12 112 29 70 45-29 10-124 11-214 1z"/><path d="m9510 26808c-5-13-19-63-31-113-25-105-57-195-69-195-4 0-31 16-59 35-29 19-68 37-87 41-176 33-379-121-275-209 53-44 128-43 414 7 43 7 83 18 89 24 15 15 1 32-27 32h-24l25 37c26 38 79 197 90 270 8 52-1 93-21 93-9 0-20-10-25-22zm-174-329 57-44-39-7c-76-13-299-19-314-9-22 15 31 66 94 91 79 31 132 23 202-31z"/><path d="m4589 26783c-12-31-9-136 15-458 39-524 56-1012 62-1785 3-377 9-806 14-955 10-345 5-1021-10-1145-18-159-31-354-36-580-5-183-3-218 10-235 12-16 18-18 33-9 16 10 19 33 24 215 6 194 11 270 43 679 15 189 18 848 5 1170-4 102-8 451-10 775-3 547-7 738-23 1145-14 333-35 691-51 885-3 33-9 115-14 182-5 66-12 126-15 132-13 20-36 12-47-16z"/><path d="m11210 26771c-39-41-77-140-101-259-13-68-20-76-85-87-40-6-84-35-84-56 0-17 28-21 77-11 26 6 49 9 51 7 14-14-92-160-108-150-17 10-20-14-4-29 22-23 48-20 83 9 29 25 91 135 91 162 0 16 29 28 106 42 105 20 97 51-13 51-35 0-63 3-63 8 0 4 11 49 25 100 28 105 57 167 84 181 24 13 35 1 51-57 14-54 40-54 53 0 16 68-31 128-100 128-17 0-39-13-63-39z"/><path d="m7333 26740c-172-39-200-68-274-289-53-158-57-191-21-191 29 0 35 12 87 170 26 80 56 157 66 171 31 44 135 76 322 99 101 13 117 21 97 45-18 21-174 18-277-5z"/><path d="m2720 26723c-19-8-47-24-63-35-51-37-90-148-51-148 11 0 13-6 9-20-10-30-8-132 4-161 12-32 57-69 83-69 87 0 186 145 195 285 5 83-16 127-72 151-42 17-60 17-105-3zm105-76c42-61-25-244-101-279-22-10-28-9-40 7-18 25-18 118 0 179 15 49 12 76-8 76-15 1 21 21 63 36 41 14 67 8 86-19z"/><path d="m3335 26718c-68-37-138-141-156-231-10-46-9-60 6-90 29-61 93-71 157-26 27 20 27 20 58-3 55-41 144-19 234 58 39 33 39 33 64 13 18-14 34-18 51-14 28 7 82 43 94 62 17 27 23 11 19-51-5-72 17-132 52-146 45-16 64 15 40 63-14 27-15 40-5 95 6 35 23 99 37 143 31 99 29 133-7 137-23 3-31-5-57-50-16-30-61-82-98-118-60-56-69-61-72-43-2 12 7 44 19 72 24 58 20 81-15 81-33 0-51-20-71-79-9-28-33-66-57-90-73-75-190-118-179-66 3 11 5 34 5 50 1 43-31 40-62-5-31-47-73-72-114-68-33 3-33 4-32 53 0 30 9 69 23 97 24 50 91 128 109 128 7 0 15-18 18-40 6-37 22-55 25-27 4 36-2 81-12 93-14 17-46 18-74 2z"/><path d="m1524 26623c-50-5-94-44-75-66 12-15 47-15 321 4 149 10 191 20 162 38-26 16-312 32-408 24z"/><path d="m1869 26536c-3-3-59-10-124-16-66-6-143-16-172-21-54-11-74-32-50-56 17-17 137-4 293 30 85 19 99 25 99 42 0 19-33 34-46 21z"/><path d="m7395 26523c-148-18-245-48-245-77 0-9 6-16 13-17 6 0 19-2 27-3 8-2 60 5 115 15s135 21 177 25c79 7 101 21 77 50-11 13-87 17-164 7z"/><path d="m9633 26395c-39-25-74-53-77-62-8-20 11-43 35-43 18 0 19-2 4-30-18-35-20-81-3-98 14-14 38-16 38-4 0 5 24 54 54 109 67 126 71 137 51 157-9 9-20 16-24 16s-39-20-78-45z"/><path d="m11436 26378c-39-64-75-140-107-230-24-68-21-91 9-72 22 14 185 331 177 344-15 25-47 8-79-42z"/><path d="m14462 26293c-38-15-62-116-82-338-6-66-13-128-16-137-4-12-22-18-72-23-116-11-161-35-133-69 9-10 33-12 101-8 50 2 90 2 90-1 0-17-35-184-51-246-21-77-20-87 5-78 42 16 79 114 110 298l6 36 96 7c95 6 144 20 128 36-11 10-129 30-178 30h-38l6 43c3 23 11 89 16 147 11 111 27 210 35 218 2 3 7-3 11-12 8-20 37-21 54-1 14 17 6 62-17 88-16 16-44 21-71 10z"/><path d="m1319 26188c-55-64-72-95-65-115 4-10 14-13 31-9 29 8 29 11 10-83-18-84-15-104 17-99 19 3 29 24 70 153 52 162 54 175 36 193-24 24-54 12-99-40z"/><path d="m16400 26197c-80-27-102-60-128-187-11-52-32-140-46-194-33-124-25-156 31-135 16 6 27 24 38 64l17 56 56-1c32-1 126-1 210-1 141 1 153 2 150 19-5 26-138 50-285 51-69 1-123 5-123 10s5 22 11 38c6 15 13 46 14 69 2 22 10 57 19 78 24 57 61 68 225 65 114-3 136-1 136 11 0 8-22 26-50 40-41 20-67 25-145 27-56 2-110-2-130-10z"/><path d="m13100 26139c-18-32-4-66 37-94 21-14 34-25 30-25s-49 7-100 15c-50 8-148 16-217 17-125 3-125 3-125-22 0-20 8-28 35-37 44-15 423-17 448-3 13 8 46 0 135-33 65-24 119-47 119-52s-46-34-103-65c-107-57-126-79-86-104 14-9 36-2 115 39 217 112 216 153-8 239-69 27-144 59-166 72-35 20-41 27-37 49 5 23 2 25-30 25-27 0-39-6-47-21z"/><path d="m15723 26104c-30-13-11-33 44-44 104-22 168-61 187-114 12-33-58-86-191-144-67-30-129-62-138-72-25-28-15-62 25-83 90-47 520 16 487 70-5 7-19 8-44 2-49-13-326-24-350-15-14 6 6 20 86 61 125 64 171 106 177 161 3 22-1 50-8 64-18 34-92 88-136 99-52 14-125 21-139 15z"/><path d="m12884 25931c-135-7-176-30-121-65 18-12 41-13 132-5 124 10 335 47 350 60 5 5-20 9-62 9-38 0-97 2-129 4s-109 1-170-3z"/><path d="m15031 25929c-69-9-96-25-85-52 8-21 59-22 311-5 144 9 183 15 188 27 3 8 1 19-5 25-13 13-316 17-409 5z"/><path d="m15335 25780c-33-5-112-11-175-15-129-8-163-17-158-42 7-37 130-40 343-7 102 16 132 30 122 58-7 17-32 19-132 6z"/><path d="m970 25770c-118-8-149-19-174-61-10-16-37-129-61-250-45-226-47-261-10-275 27-11 52 24 75 107 20 69 40 110 40 81 0-19 51-22 168-12 174 16 182 18 182 40 0 10-4 22-10 25-17 11-290 6-311-6-11-6-22-9-25-7-2 2 8 42 22 87 27 89 26 111-6 111-19 0-19 2-7 33 13 32 14 32 98 38 325 23 328 24 309 60-20 37-77 43-290 29z"/><path d="m7361 25707c-9-11-39-132-110-442l-7-29-29 41c-43 59-87 86-150 91-99 8-185-57-185-139 0-44 20-72 65-93 63-30 278-17 336 19 15 10 69 191 115 390 28 119 29 139 8 159-19 19-28 20-43 3zm-257-411c19-8 46-31 60-53l26-38-62-8c-72-9-137-2-164 17-16 12-17 18-6 40 12 27 60 55 95 56 10 0 33-6 51-14z"/><path d="m9490 25703c-119-8-251-56-302-110s-62-94-66-265c-4-143-2-158 13-165 35-13 49 11 65 112 13 86 17 96 29 82 7-10 28-17 46-17 41 0 355 56 363 65 12 12-361-1-390-13-16-6-28-9-28-6 0 2 10 43 22 91 21 85 21 86 66 105 38 17 227 61 302 70 33 4 39 36 8 42-44 9-83 12-128 9z"/><path d="m8528 25613c-17-4-20-8-22-34-1-7 23-18 53-26 85-21 135-53 139-87 5-41-49-86-198-167-79-42-130-76-140-93-14-24-13-27 13-53 27-27 30-28 145-28 119 1 278 30 318 60 22 16 11 49-14 41-37-12-171-25-257-26h-90l95 56c137 81 200 148 200 215 0 70-162 165-242 142z"/><path d="m14672 25593c-24-9-64-124-81-232-11-71 0-151 25-172s37 5 40 83c2 42 15 119 32 182 17 60 28 114 25 121-6 16-23 24-41 18z"/><path d="m2441 25537c-49-13-73-39-54-58 9-9 20-9 44 0 75 26 157 5 142-37-10-29-75-92-155-150-43-30-80-64-84-74-3-11 2-31 11-45 17-25 19-26 104-20 73 5 178 30 254 62 14 6 17 2 17-20 0-40 59-95 102-95 71 1 156 58 184 125 52 125-19 247-133 230-65-9-105-50-133-132-12-38-23-69-24-70-4-5-268-34-278-31-5 2 9 17 31 33 67 46 149 141 157 180 7 38-11 77-43 93-32 17-97 21-142 9zm506-151c73-63-7-216-114-216-47 0-57 30-39 118 7 37 12 72 9 78-5 13 60 43 94 43 12 1 35-10 50-23z"/><path d="m3293 25492c-40-39-90-132-119-217-21-64-15-139 15-168 31-31 103-29 156 5 41 26 41 26 65 6 51-41 155-8 252 81 55 50 55 50 66 25 23-48 94-55 152-14 36 25 40 25 40-2 1-57 64-146 95-135 20 8 19 31-1 63-14 20-16 42-12 118 5 91-2 126-23 126-6 0-34-24-62-54-48-50-99-78-114-62-4 4-6 22-5 40 5 72-62 100-88 36-17-42-106-129-154-151-22-10-55-19-72-19-27 0-32 5-40 32-13 45-36 46-74 4-36-39-77-59-112-54-18 2-24 10-26 35-4 42 22 127 59 192 26 45 33 51 41 38 23-42 78-1 78 58 0 67-60 75-117 17z"/><path d="m7735 25411c-42-9-44-36-3-57 54-28 367-10 337 20-3 4-77 14-279 40-14 1-38 0-55-3z"/><path d="m1612 25387c-16-19-6-44 21-51 12-3 83-3 157 0 138 5 168 14 150 44-13 22-310 29-328 7z"/><path d="m7865 25259c-71-3-131-7-132-8-11-5 0-50 13-55 24-9 119-7 214 4 134 16 142 19 138 43-3 25-16 26-233 16z"/><path d="m1654 25245c-32-23-7-49 52-53 85-6 244 28 244 52 0 19-270 21-296 1z"/><path d="m7460 25178c-71-49-89-106-30-94l28 5-29-97c-35-114-34-137 1-137 23 0 28 9 58 95 18 52 40 122 49 155 15 58 15 59-7 77-28 23-30 23-70-4z"/><path d="m1452 24454c-45-31-66-97-98-311-4-27-9-33-29-33-50 0-127-23-153-45-41-36-20-47 53-30 33 8 73 14 89 15 28 0 28-1 22-37-3-21-9-66-13-100-6-63-6-63 20-63 31 0 36 12 51 130l12 85 54 8c123 19 125 22 26 36-38 5-70 11-72 13-2 3 3 51 12 108 25 171 72 233 66 88-3-71-1-78 16-78 23 0 42 56 42 124 0 90-43 129-98 90z"/><path d="m863 24383c-3-10-24-62-45-116-42-106-46-142-13-142 21 0 29 19 58 130l13 50 26-56c14-31 46-77 70-103l45-46h-114c-94 0-115-3-120-16-12-32 15-39 155-42 75-1 142 1 148 5s15 18 18 31c6 19-2 31-49 75-64 58-98 110-115 177-7 25-17 51-22 58-15 18-48 15-55-5z"/><path d="m3541 24263c-71-73-136-196-136-260 0-85 72-92 187-17 27 18 27 18 52-9 17-19 35-27 58-27 28 0 44 11 100 70 65 67 68 69 68 43 0-42 26-73 61-73 23 0 44 13 86 52l55 53-8-60c-12-92-11-100 9-100 13 0 27 27 58 118 45 132 48 180 12 185-17 3-27-6-42-35-20-39-100-121-139-142-22-12-22-12-20 71 3 82 3 83-22 83-20 0-26-7-36-42-16-55-49-98-103-134-59-39-90-39-97 1-12 55-47 62-79 14-30-47-135-84-135-48 0 24 65 154 94 189 24 29 25 29 26 8 0-31 25-29 48 5 29 41 34 73 15 94-27 30-52 21-112-39z"/><path d="m2867 24278c-32-44-138-305-130-323 3-8 15-15 28-15 20 0 31 21 94 173 39 94 71 178 71 185 0 24-39 11-63-20z"/><path d="m3046 24208c-57-55-67-71-81-123-36-140-3-204 98-193 85 10 161 86 192 192 20 69 14 114-21 156-22 26-33 30-74 30-46 0-52-3-114-62zm155-9c18-18 21-29 16-71-12-99-88-183-159-176-31 3-33 5-36 47-2 25 1 54 7 65 5 12 14 37 20 56 12 39 81 100 113 100 10 0 28-10 39-21z"/><path d="m2063 24210c-13-5-23-18-23-29 0-29 29-34 198-33 176 1 194 5 190 35-2 18-12 23-48 29-66 10-291 8-317-2z"/><path d="m9476 24094c-9-8-16-18-16-22s-9-77-19-162c-34-269-36-300-18-300 28 0 85 228 102 407 7 65 6 72-13 82-16 9-24 8-36-5z"/><path d="m11851 24010c-23-27-49-50-57-50-15 0-35-39-27-52 2-5 13-8 25-8 16 0 19-4 14-22-13-45-66-280-66-293 0-8 10-19 21-26 35-18 48 7 90 175 21 87 51 187 65 223 19 48 24 71 17 82-19 29-39 22-82-29z"/><path d="m2165 24041c-74-6-95-14-95-35 0-34 25-37 177-25 150 12 179 21 167 52-5 14-20 17-93 15-47-1-117-4-156-7z"/><path d="m6631 24017c-14-7-34-28-45-47-23-39-24-78-15-610 3-178 0-265-9-317-13-69-15-73-40-73-33 0-45-8-61-37-15-29-14-75 3-98 10-14 21-17 50-12 24 4 36 2 36-6 0-7 5-41 11-77s14-315 18-620c6-373 12-567 20-592 16-50 65-92 92-77 23 12 46 56 35 66-4 4-15 2-25-4-39-24-43 29-52 602-7 536-14 655-44 749-13 42-13 54-1 90 38 114 42 252 20 761-7 159 3 231 33 242 16 6 32-9 60-53 10-18 12-18 29-2 34 33-8 104-71 122-11 3-31 0-44-7z"/><path d="m5955 23996c-42-12-61-35-51-61 5-13 12-15 34-9 141 42 282-99 282-282 0-83-37-242-75-323-26-54-53-91-100-137-71-67-72-94-3-45 101 70 174 171 214 296 66 205 42 380-68 487-70 68-155 95-233 74z"/><path d="m7274 23988c-11-13-43-55-71-93-58-79-73-119-49-128 14-6 46 24 89 83l18 25-6-25c-3-14-24-95-46-179-35-138-38-157-24-170 11-11 18-12 26-4 23 23 139 406 139 458 0 56-41 73-76 33z"/><path d="m5822 23773c-41-20-66-55-57-82 10-31 34-33 67-6 16 14 34 25 39 25 18 0 22-32 9-88-12-57-66-172-80-172-4 0-25 7-46 16-25 10-54 14-83 11-88-10-131-101-77-164 20-24 32-28 73-28 39 0 57 6 93 33l44 32 36-34c59-59 130-79 185-54 32 15 33 38 0 38-40 0-97 28-136 67l-37 35 25 37c51 75 76 143 81 223 4 72 3 78-21 102-30 30-67 33-115 9zm-103-364c17-6 31-14 31-19 0-15-53-42-84-44-27-1-31 3-34 27-3 21 2 29 20 36 30 13 30 13 67 0z"/><path d="m10756 23568c-7-18-17-54-20-80l-7-47-59 1c-68 1-92-13-88-51 3-25 6-26 76-29l72-3 1-72c1-97 20-182 39-182 12 0 16 23 21 121 4 67 9 126 12 131 4 6 47 13 97 17 103 8 140 19 140 41 0 13-19 15-115 15h-114l2 83c2 78 1 82-21 85-17 3-25-4-36-30z"/><path d="m8346 23551c-12-19 4-51 35-67 79-40 345-31 373 14 3 5-45 12-112 15-100 5-162 15-268 43-12 3-25 1-28-5z"/><path d="m9390 23528c-140-6-190-17-190-42 0-34 22-36 256-26 247 10 546 29 553 36 11 10-16 15-140 24-189 14-323 16-479 8z"/><path d="m11693 23500c-144-4-185-8-197-20-10-10-12-20-6-30 8-13 42-15 207-15 240 0 779 13 886 22 72 5 78 8 75 27-3 21-4 21-393 21-214 0-472-2-572-5z"/><path d="m7395 23479c-340-6-414-13-431-41-4-6 2-18 12-25 16-12 55-14 229-8 207 6 324 19 460 50 57 14 126 39 90 33-5-1-167-5-360-9z"/><path d="m1840 23368c-191-6-488-24-725-44-33-2-138-11-234-19-173-14-228-29-218-58 4-14 96-12 372 8 105 8 262 19 350 25 208 14 772 29 900 25 55-2 258-6 450-10 193-3 415-8 495-10s285-7 455-10c244-5 332-11 415-26 98-18 111-18 183-5 89 17 99 22 95 44-3 13-19 15-108 13-79-2-116 2-150 15-45 16-75 18-760 38-174 5-861 17-1160 20-74 0-236-2-360-6z"/><path d="m8373 23363c-24-9-14-42 13-49 69-17 366 16 365 41-1 10-355 18-378 8z"/><path d="m11900 23293c-37-38-40-46-146-325l-36-97-47-6c-84-11-114-20-125-38-16-25 7-37 72-37 28 0 52-2 52-5s-16-37-35-76c-20-38-33-74-30-79 4-6 17-10 30-10 26 0 48 28 101 130l29 55 94 15c60 10 96 20 99 29 8 24-21 32-95 25l-73-6 19 48c11 27 40 103 65 169 56 147 66 163 66 114 0-78 50-89 69-14 16 63 14 89-10 119-28 36-55 33-99-11z"/><path d="m9722 23273c-6-10-18-48-27-83-19-78-54-188-67-213-9-17-17-12-73 42-90 87-139 100-222 60-77-37-98-123-43-177 41-41 90-56 185-57 70 0 88 4 139 30 49 25 61 37 73 70 71 197 96 336 61 343-9 2-21-5-26-15zm-237-239c39-18 99-89 89-105-9-15-169-6-206 11-36 17-45 46-21 72 35 40 85 48 138 22z"/><path d="m7359 23169c-122-19-134-45-134-279 0-165 1-175 19-178 34-7 46 25 46 121 0 80 1 87 16 73 21-21 80-20 239 4 164 25 167 27 163 53-3 25-9 25-253 7-114-8-143-13-154-27-11-16-13-8-8 55 2 40 9 78 14 83s39 14 74 19c298 42 300 42 297 59-3 14-23 16-138 17-74 0-156-2-181-7z"/><path d="m9813 22915c-7-20-7-19 47-36 37-11 46-19 48-40s-12-42-66-102c-39-41-73-85-77-97-10-32 23-73 70-84 96-22 318 58 299 109-8 19-30 19-82 1-22-8-73-18-113-22l-73-7 46 59c81 104 86 166 18 212-39 26-107 30-117 7z"/><path d="m2789 22890c-84-15-138-56-123-94 8-22 29-20 64 6 23 16 47 22 107 25 92 5 126-8 131-51 5-42-37-94-161-204-121-106-163-157-173-208-11-62 33-127 108-158 82-34 88-16 18 53-81 81-78 88 93 256 179 175 213 236 172 314-27 53-131 80-236 61z"/><path d="m1432 22703c-35-60-117-182-141-210-18-21-20-21-67-7-88 26-171-8-220-91-49-85-28-165 45-165 33 0 106 45 172 107 50 46 50 46 82 31 18-8 70-44 117-78 108-81 160-104 216-97 54 6 79 24 63 43-6 8-22 14-35 14-31 0-88 32-212 118-57 39-109 73-115 75-8 2-6 11 6 28 98 137 153 239 143 265-10 25-26 15-54-33zm-219-293c14-13-139-130-170-130-18 0-16 45 3 81 27 53 130 83 167 49z"/><path d="m12050 22705c-16-19-7-31 32-39l33-7-36-32c-20-18-57-48-84-67s-53-42-58-51c-16-27 0-65 33-79 77-32 385 20 385 65 0 17-6 20-35 18-19-2-93-5-165-8l-130-5 35 27c67 54 110 104 110 128 0 48-90 86-120 50z"/><path d="m1953 22519c-19-19-16-37 12-64 36-37 125-35 249 5 152 49 145 58-46 56-90 0-172 3-183 7-13 5-25 3-32-4z"/><path d="m15995 22238c-445-13-902-75-1290-175-306-78-744-257-753-307-7-35 20-35 88-1 230 116 563 229 852 290 166 36 495 87 687 107 184 20 263 22 746 22 556 1 616-2 945-45 567-75 1167-254 1520-453 222-126 412-267 524-387 77-83 137-199 162-313 38-176-14-500-109-676-111-207-356-428-624-565-156-80-284-120-548-174-304-61-561-79-1135-80-526 0-852 18-1260 70-513 65-1034 208-1325 364-215 116-386 274-487 453-29 50-50 64-63 42-16-26 121-221 228-323 322-307 1007-528 1892-611 369-35 509-40 1050-40 594 0 712 7 1025 60 259 44 434 94 589 165 348 161 645 438 749 699 62 155 92 325 88 500-3 104-8 138-30 205-51 152-140 270-301 399-282 225-568 375-950 499-307 99-542 157-845 206-394 64-848 86-1425 69z"/><path d="m9346 22158c-8-13-38-102-66-198s-55-178-59-183c-4-4-13 4-20 17-8 13-28 32-47 42-29 16-39 17-80 6-116-31-230-165-242-282-13-142 145-117 393 62 38 28-77 0-238-57-43-15-80-25-84-21-12 12 17 81 55 131 55 73 128 117 167 101 9-3 27-30 40-60 38-87 84-84 118 7 32 85 118 407 115 429-4 31-33 34-52 6z"/><path d="m7447 22106c-8-8-17-45-21-82-6-57-23-152-41-231-5-23-5-23-60 8-103 58-230 48-290-22-32-38-34-96-5-127 77-83 215-79 385 11 77 41 106 76 58 69-28-4-27-12-4 90 11 46 25 121 31 166 10 72 9 87-5 108-18 28-28 30-48 10zm-156-357c39-19 64-45 52-52-4-3-42-10-83-17-81-13-146-3-170 25-10 11-7 19 15 39 41 38 116 40 186 5z"/><path d="m2735 22023c-4-12 2-25 21-41 32-28 68-26 72 5 6 41-78 74-93 36z"/><path d="m9980 21894c-57-49-91-150-76-230 8-42 66-109 102-118 39-10 96 10 136 49 37 36 37 36 49 13 17-33 60-78 91-94 83-43 191 23 234 143 17 50 18 145 0 187-8 18-24 41-37 50-28 20-98 21-142 2-50-21-115-98-123-146-5-33-10-39-25-35-12 4-27-6-51-36-34-42-74-69-103-69-9 0-27 11-40 25-31 31-33 100-5 163 24 53 44 61 75 32 28-27 45-19 45 21 0 66-73 90-130 43zm479-60c24-30 28-94 10-159-15-54-77-115-117-115-37 0-84 37-106 85-15 32-16 37-2 51 9 8 16 26 16 38 0 27 54 90 95 111 46 23 80 19 104-11z"/><path d="m11414 21898c-11-13-38-46-59-75l-38-52-33 29c-42 36-85 45-159 31-160-30-261-129-210-207 44-68 161-70 285-7l75 39 49-30c42-27 58-30 120-30 73 0 116 14 116 38 0 9-17 16-46 21-53 8-164 53-164 67 0 5 13 26 30 46 38 48 75 131 63 143-6 6-17 0-29-13zm-187-166c11-15 8-20-15-39-52-43-181-69-220-44-40 25 32 81 129 100 53 11 88 5 106-17z"/><path d="m10639 21850c-42-22-69-59-69-93 0-38 36-75 112-113 41-20 67-39 62-44s-45-10-89-12c-74-3-80-5-83-25-3-18 4-24 40-34 50-13 157-6 188 13 26 16 36 52 23 81-6 12-38 38-73 57-34 19-74 45-88 56-22 18-24 24-13 37 28 35 100 44 168 22 37-12 43 23 9 52-35 30-132 32-187 3z"/><path d="m8238 21834c-15-14-8-39 15-54 26-17 235-26 307-13 35 7 45 13 45 28 0 17-9 21-60 27-115 12-300 20-307 12z"/><path d="m7671 21709c-63-38-97-103-71-134 19-23 50-19 50 7 0 21 45 78 62 78 15 0 8-45-17-98-14-30-52-90-85-134-78-103-80-153-5-178 39-13 128 1 161 24 30 22 2 46-55 46-25 0-51 4-57 8-8 5 8 37 47 97 90 136 112 244 58 288-28 22-46 22-88-4z"/><path d="m8183 21660c-29-12-29-36-1-51 21-12 331-15 383-5 11 3 28 5 38 5 13 1 17 7 15 24-3 19-10 23-68 28-99 10-342 9-367-1z"/><path d="m9437 21578c-38-51-47-74-45-110 1-18-7-71-17-118-20-93-17-120 14-120 16 0 24 12 36 58 9 31 34 106 56 166 37 102 39 110 24 132-21 32-39 30-68-8z"/><path d="m600 21531c-123-5-145-8-148-22-5-25 26-26 513-28 1224-3 1821-12 2505-37 613-22 1077-19 1148 7 23 9 30 35 10 41-7 3-170 3-362 2-193-1-432 2-531 6s-283 11-410 15c-126 4-252 9-280 11-93 6-2299 11-2445 5z"/><path d="m17185 21520c-202-53-258-96-294-227-11-44-21-88-21-100 0-11-3-23-7-26-9-9-15-126-8-154 6-26 36-31 54-10 6 8 16 37 22 65l12 52h51c105 1 272 32 262 49-12 19-128 34-210 27l-85-7 6 58c11 113 42 139 242 198 69 21 130 41 134 45 12 11-42 50-67 49-11 0-52-8-91-19z"/><path d="m16396 21478c-8-13-26-75-41-138-43-189-77-310-86-310-5 0-9 5-9 12 0 29-44 99-74 118-74 45-182 6-225-83-25-52-21-84 16-119 23-22 32-23 174-24 124-1 151 2 158 14 5 8 28 22 52 31 50 19 56 35 13 39l-31 3 23 87c49 179 92 367 87 379-8 21-41 15-57-9zm-219-413c13-22 23-43 23-47 0-11-97-20-140-13-50 8-53 33-10 76 24 25 37 30 67 27 32-3 41-9 60-43z"/><path d="m18703 21484c-3-8 0-26 7-39 8-16 11-49 8-97-4-59-12-87-37-135l-33-61-41 19c-58 26-116 24-158-4-75-50-101-136-58-191 40-50 135-31 224 47l40 34 36-23c45-28 131-57 156-52 37 7 26 37-20 57-25 11-63 31-86 45l-41 26 35 68c59 114 70 251 24 301-23 25-47 27-56 5zm-124-378 24-13-34-25c-48-36-74-48-103-48-38 0-35 41 5 74 33 28 71 33 108 12z"/><path d="m18094 21306c-17-7-42-28-56-46-25-32-26-32-33-11-9 29-60 54-110 53-109-3-200-83-194-172 5-65-44-100-141-100-51 0-65 4-85 25-29 28-29 30-10 86 19 52 45 85 56 68 12-21 56-1 67 30 14 39-8 71-48 71-92 0-190-203-137-284 51-77 239-74 323 5 21 19 24 20 52 5 90-46 216 24 238 132 6 31 7 32 20 13 16-22 84-46 157-57 26-3 47-9 47-13s-26-20-58-35-76-43-98-62l-39-35 45 6c112 15 230 82 230 130 0 33-31 52-119 71-42 9-84 21-95 26-17 9-17 11-2 26 11 12 33 17 66 16 53 0 67 12 46 41-16 22-84 29-122 11zm-146-78c23-23 14-77-16-108-41-40-95-49-132-21-16 11-36 21-45 21-8 0-15 4-15 9 0 16 52 73 85 92 34 21 105 25 123 7z"/><path d="m14502 21164c-25-17-45-52-66-116-15-44-86-310-86-322 0-3-36-6-79-6-63 0-83-4-102-19-22-18-23-21-8-36 10-10 41-18 88-22 61-5 71-9 66-22-4-9-19-52-34-96-16-44-43-113-60-154-34-80-34-104 1-99 28 4 44 34 102 193 26 72 52 142 58 156 9 24 15 27 85 33 161 15 176 34 39 52-48 7-89 14-91 16s0 20 5 39c6 18 26 92 45 163 20 70 43 142 52 160 15 28 17 29 23 11 4-11 5-53 2-92-5-69-4-73 16-73 29 0 45 56 40 142-3 59-8 73-27 89-28 23-40 24-69 3z"/><path d="m16581 21028c-19-53-31-211-17-226 4-3 18 6 32 20 33 32 55 160 36 202-14 32-40 34-51 4z"/><path d="m10980 20892c-36-9-80-28-98-40-57-41-66-71-70-233-3-127-2-148 13-163 30-29 49-16 63 45l14 56 96 1c116 1 302 22 302 33 0 14-203 39-317 39h-73v46c0 25-5 54-10 65-9 16-6 24 15 43 31 28 83 43 216 59 54 6 99 15 99 19s-10 16-22 28c-18 16-35 20-92 19-39 0-100-8-136-17z"/><path d="m3417 20862c-31-21-83-51-116-67-63-29-82-55-61-80 17-21 39-18 89 10 23 14 44 25 46 25s-8-35-22-77c-17-54-26-103-27-158-2-127 18-108 79 75 28 85 63 178 78 207 32 62 33 79 9 92-15 8-31 2-75-27z"/><path d="m5476 20875c-27-41-66-208-77-333-11-110-8-136 10-116 18 19 119 381 124 439 3 41-33 47-57 10z"/><path d="m9802 20873c-5-10-13-45-16-78-8-70-36-227-42-237-3-4-21 11-41 33-50 56-105 82-170 81-94-1-153-56-153-143 0-36 6-48 39-80 87-82 277-101 372-36 49 33 50 50 3 42-31-5-35-4-22 5 10 6 22 28 28 50 20 73 50 254 50 298 0 68-28 105-48 65zm-181-285c22-12 51-44 74-79 20-32 44-60 53-62 38-10-121-6-170 4-67 14-104 33-123 63-21 32-5 73 37 91 38 17 78 11 129-17z"/><path d="m7479 20864c-7-9-16-59-20-117-4-56-12-131-19-167-14-83-10-165 9-165 49 0 123 399 82 448-17 21-35 22-52 1z"/><path d="m13760 20869c0-20 61-250 76-286 14-32 37-43 48-24 3 5-2 26-11 47-9 22-31 91-49 154-22 81-36 116-48 118-9 2-16-2-16-9z"/><path d="m13152 20821c-8-4-12-19-10-32 4-31 61-59 188-95 52-14 127-35 165-47l70-20-50-23c-245-111-289-147-271-218 7-30 36-35 36-6 0 26 50 59 224 145 122 60 141 74 144 96 2 15-5 32-15 42-10 9-90 37-178 62-221 63-252 74-259 91-6 16-24 18-44 5z"/><path d="m15042 20774c-13-10-15-17-6-31 28-45 148-54 318-24 60 11 111 22 114 26 17 17-28 25-148 26-74 0-163 4-198 8-45 5-68 4-80-5z"/><path d="m18427 20754c-2-2-104-4-228-5-123-1-386-8-584-15-477-17-1296-25-1415-14-176 17-165 17-165-5 0-54 182-65 935-58 327 3 618 7 645 9 28 3 414 7 858 11 680 5 811 8 823 20 18 19 18 28-2 48-15 15-59 16-440 14-233-1-425-4-427-5z"/><path d="m12695 20647c-16-13-17-17-6-31 11-13 48-16 250-18 189-2 225-5 181-13-54-9-55-9-20-16l35-6-40-3c-22-1-51-3-65-5s-86-6-160-7c-74-2-141-7-148-11-21-14-13-36 18-52 26-13 46-14 138-5 202 20 324 44 440 87 44 16 59 39 20 30-13-4-42-9-65-13-39-6-43-5-43 14 0 12-12 29-27 39-24 16-57 18-258 21-190 3-233 1-250-11z"/><path d="m10296 20618c-10-8-17-23-14-34 3-17 14-19 103-22 55-2 128 0 163 3 51 5 62 10 62 25 0 26-15 29-163 36-106 5-136 3-151-8z"/><path d="m15092 20619c-17-6-22-15-20-31 4-32 60-39 266-36 159 3 167 4 167 23 0 17-12 22-95 37-103 18-281 22-318 7z"/><path d="m4559 20516c-2-2-78-7-169-11-187-8-215-18-173-61 15-15 31-16 123-11 132 8 284 44 288 70 3 13-4 17-31 17-18 0-36-2-38-4z"/><path d="m9920 20497c-50-14-65-41-29-52 12-4 49-4 83-1 84 9 100-3 61-44-17-17-53-49-81-71-65-50-83-87-59-122 9-14 26-28 38-31 57-15 215 1 244 25 26 22-5 39-72 39-34 0-76 3-93 6l-30 6 74 73c65 63 74 77 74 108 0 28-6 40-26 54-33 21-124 26-184 10z"/><path d="m18934 20479c-229-14-253-35-273-241-6-56-18-135-27-174-19-79-15-104 16-104 25 0 35 22 54 118 8 41 16 76 18 78 3 2 20-1 39-6 52-15 163-12 240 7 38 9 69 19 69 23 0 24-231 45-308 28-30-7-32-6-27 15 3 12 7 42 9 67 3 50 18 85 41 93 8 4 74 11 147 18 305 25 283 22 286 46 2 16-3 24-20 27-40 9-160 11-264 5z"/><path d="m16447 20466c-8-9-27-68-42-133s-29-120-31-122c-2-3-17 8-33 23-59 57-143 45-224-33-49-46-67-80-67-129 0-78 72-99 206-62 43 12 92 23 108 24 17 0 33 9 40 21 6 11 17 24 24 28 8 6 11 19 7 36-3 16 5 67 19 123 34 133 42 210 23 226-12 10-18 10-30-2zm-158-283c11-10 24-32 27-49 6-30 5-31-48-42-29-6-72-15-95-18-38-6-43-4-43 13 0 39 79 113 121 113 9 0 26-8 38-17z"/><path d="m17913 20444c-3-8-1-26 6-40 19-42 13-124-13-180-24-51-24-51-62-45-53 9-133-4-164-27-70-52-92-141-45-187 46-47 138-22 218 58l44 44 46-44c36-34 53-43 81-43 23 0 36 5 36 13 0 7-27 41-60 74l-59 62 26 56c26 58 41 162 30 207-13 51-70 87-84 52zm-98-364c-38-40-113-76-127-62-15 15 7 67 35 80 12 6 44 11 71 11l50 1z"/><path d="m8593 20440c-13-5-23-15-23-23 0-32 23-37 175-36 152 0 253 10 225 22-74 31-333 57-377 37z"/><path d="m14574 20414c-37-18-60-60-44-79 9-11 18-9 48 11 42 29 66 28 70-4 4-23-31-62-120-137-30-25-35-35-31-58 7-38 31-48 131-54 96-6 146 6 140 34-4 19-32 29-112 38l-59 7 40 36c63 58 78 90 74 155-2 28-47 67-78 67-15 0-42-7-59-16z"/><path d="m3430 20413c-119-8-320-37-365-52-38-12-50-21-50-36 0-29 46-30 243-6 278 34 446 51 499 51 54 0 82 17 61 38-11 11-260 14-388 5z"/><path d="m5435 20368c-133-11-242-29-261-43-28-20-10-45 33-45 48 0 260 25 424 51 69 10 143 19 165 19 27 1 34 3 24 9-21 12-277 18-385 9z"/><path d="m7493 20369c-136-8-245-26-269-43-11-9-15-19-10-31 6-16 16-17 101-11 51 4 105 9 118 12 36 6 388 9 489 4 52-2 88 0 89 5 3 15-66 45-124 55-73 13-262 17-394 9z"/><path d="m16903 20372c-31-5-82-58-105-109-42-95-31-191 27-229 37-24 114-22 157 4 33 21 33 21 56-3 62-65 176-35 221 58 40 82 18 172-50 209-44 23-83 23-134-2-51-24-77-67-73-119 2-49-19-76-72-92-45-14-77 0-86 36-12 47 47 195 66 165 10-17 48-3 55 20 7 22-8 56-27 62-7 2-23 2-35 0zm289-139c47-42 2-163-60-163-41 0-55 14-56 56-1 29-6 41-23 50-19 9-20 13-10 26 38 47 114 63 149 31z"/><path d="m11378 20365c-5-4-578-25-818-29-241-5-368-20-377-44-11-28 22-33 197-27 96 3 274 7 395 10 324 8 562 23 628 42 31 9 57 19 57 23 0 6-77 29-82 25z"/><path d="m17368 20324c-33-17-48-43-48-81 0-41 24-69 86-104 30-17 54-34 54-39 0-6-66-32-167-65-35-12 5-49 50-48 49 1 164 51 182 79 25 39 10 69-56 110-63 38-89 60-89 74 0 15 56 40 90 40 20 0 30 5 30 15 0 34-82 46-132 19z"/><path d="m6277 20316c-20-20-22-37-5-54 21-21 292-16 401 9 92 20 118 31 99 43-5 3-115 9-244 12-213 6-235 6-251-10z"/><path d="m4288 20303c-32-5-50-25-42-46 10-26 86-31 276-17 159 12 201 20 185 36-13 13-365 36-419 27z"/><path d="m8663 20280c-27-11-30-32-6-51 18-15 144-17 280-4 61 6 73 10 73 25 0 22-31 27-200 35-72 3-134 1-147-5z"/><path d="m18165 20254c-21-21-4-49 36-63 35-12 172-14 234-3 31 6 40 12 40 27 0 18-11 21-90 31-187 23-204 23-220 8z"/><path d="m5410 20245c-8-2-31-6-51-9-23-4-50-21-78-47-50-48-55-71-66-281-7-126-6-138 10-144 27-11 50 9 53 47 1 19 4 52 7 75l6 40 87-4c63-3 112 2 176 16 92 21 113 32 101 52-5 8-54 9-183 4l-175-7 7 44c12 74 29 120 49 130 10 6 76 15 145 21 70 5 137 12 150 14 25 5 30 29 7 38-19 7-224 17-245 11z"/><path d="m9430 20239c-126-6-224-19-236-32-4-3-3-11 1-18 6-9 67-10 259-5 363 10 444 18 405 41-18 12-288 20-429 14z"/><path d="m3406 20222c-9-11-35-95-59-187l-42-168-75-18c-74-17-104-38-98-69 4-16 23-17 100-5l48 8-29-84c-52-152-73-198-86-193-8 3-16-11-24-40-15-61-14-86 4-93 36-13 76 62 160 302l43 120 123 10c90 7 124 14 127 24 10 29-29 41-130 41-54 0-98 2-98 4 0 5 39 164 52 211 10 37 12 38 18 15 4-16 13-25 25-25 35 0 34 115-1 149-20 21-37 20-58-2z"/><path d="m7632 20202c-12-12-25-52-36-113-27-141-19-132-76-94-68 46-141 61-210 45-90-22-170-117-170-203 0-10 14-32 30-49 30-30 33-30 108-26 107 7 262 64 262 95 0 17 2 17-165-11-156-27-181-20-155 44 18 44 72 87 120 95 63 11 121-10 171-61 49-50 81-56 104-21 13 20 64 236 68 292 3 26-27 31-51 7z"/><path d="m10603 20160c-112-16-135-39-183-185-13-38-38-106-57-149-39-91-40-121-4-121 26 0 31 6 66 87l24 56 43-10c57-13 160-2 220 24 26 11 48 24 48 27 0 10-208 30-253 24l-38-5 22 53c11 30 25 64 30 77 14 36 54 46 194 47 126 1 130 2 133 23 3 17-4 26-30 36-46 20-140 26-215 16z"/><path d="m16586 20077c-7-12-31-73-52-136-36-108-37-114-20-127 31-22 51 0 86 95 29 82 36 116 31 162-2 27-30 31-45 6z"/><path d="m9771 20043c-12-10-48-68-79-130l-58-112-27 34c-29 36-101 65-162 65-95 0-195-60-195-118 0-63 79-92 244-92 114 1 298 28 317 47 21 21-3 33-67 33h-64l46 92c25 50 57 109 71 131 35 56 19 87-26 50zm-223-223c20-12 32-28 32-41 0-21-2-22-112-16-159 7-185 21-105 57 57 26 142 26 185 0z"/><path d="m7702 19834c-12-8-22-24-22-36 0-19 4-20 55-14 34 4 55 2 55-4 0-5-25-26-55-46-79-53-86-97-23-130 49-25 197-24 263 2 69 27 67 48-5 51-30 2-83 5-118 9l-63 6 41 44c45 49 49 70 19 108-17 22-28 26-73 26-30 0-61-6-74-16z"/><path d="m9925 19790c-12-4-27-15-34-24-12-15-12-19 0-31 11-11 23-12 57-4 44 10 100 2 85-11-4-5-37-23-73-41-134-66-164-111-98-145s283 5 283 51c0 17-7 20-50 21-107 3-103 1-51 36 54 35 72 65 62 103-11 45-118 71-181 45z"/><path d="m3467 19544c-17-9-27-22-25-32 3-14 13-16 60-14 31 2 62 1 68-3 16-10-20-46-116-116-101-73-113-95-74-137 17-18 32-22 86-22 80 0 207 27 201 43-2 7-43 16-100 21-53 5-97 11-97 15 1 3 28 26 61 51 67 50 105 94 114 133 5 20 1 32-19 51-21 22-34 26-78 26-29-1-66-8-81-16z"/><path d="m4996 18769c-134-117-286-544-286-805 0-122 41-294 71-294 8 0 9 10 4 33-21 94-24 118-25 180 0 130 61 409 127 577 39 100 110 233 147 276 54 63 25 89-38 33z"/><path d="m1330 18775c-28-33 6-73 148-174 120-85 195-165 236-251 26-55 31-77 31-140 0-100-34-171-123-258-73-71-140-109-207-119-36-5-45-10-45-26 0-18 5-19 68-15 128 9 268 111 342 248 33 62 35 70 35 166s-1 103-39 180c-50 101-141 193-289 294-60 40-111 79-114 86-7 19-30 24-43 9z"/><path d="m7784 18735c-3-8 4-27 15-41 38-48 55-129 55-254-1-174-42-327-140-523-61-120-94-168-170-242-45-44-60-65-54-75 7-11 17-8 52 15 282 187 472 757 347 1045-34 76-90 116-105 75z"/><path d="m5232 18565c-18-22-109-241-160-385-20-55-20-55-73-63-59-8-91-31-87-61 3-19 9-21 61-18 54 4 58 3 49-15-5-10-17-52-27-93-13-57-14-81-6-102 6-16 14-28 19-28 15 0 42 62 67 153 13 49 26 91 29 94s72 15 153 27c134 19 148 23 148 41 0 19-7 20-138 20-75 0-137 1-137 2 0 7 122 319 127 323 3 3 2-10-2-28-8-41 8-66 35-52 41 22 56 162 22 193-26 24-57 21-80-8z"/><path d="m9666 18483c-18-38-42-87-54-110l-22-43-41 30c-23 16-56 32-74 36-37 7-97-16-133-49s-80-128-90-192c-22-137 41-202 138-144 36 22 115 99 163 159 24 30 29 33 37 18 26-44 95-122 132-148 45-33 69-37 88-16 14 18 6 35-37 71-18 14-58 62-88 105l-56 79 45 78c49 84 69 150 54 177-16 28-28 18-62-51zm-164-190c15-15 28-31 28-36 0-6-25-41-56-79-60-74-124-124-149-114-37 14-4 151 52 216 43 50 82 54 125 13z"/><path d="m1100 18519c-57-23-79-80-46-124 18-25 46-13 46 20 0 31 35 48 89 43 28-2 37-8 39-24 3-20-21-45-116-126-18-14-32-35-32-46 0-27 40-57 103-78 75-24 147-55 147-64 0-4-45-14-100-23-100-15-130-27-130-53 0-30 36-35 137-19 134 21 162 32 174 63 21 55-37 107-169 152l-69 24 58 53c87 81 98 141 33 192-20 16-40 21-83 20-31 0-67-5-81-10z"/><path d="m6830 18510c-55-55-196-310-206-372-5-25-1-38 14-52 27-24 38-15 46 34 7 45 64 163 120 250l35 55 1-41c0-50 34-166 62-211l20-33h-85c-69 0-89-4-108-19-16-13-21-23-14-29 6-6 69-13 141-17 119-6 132-5 153 13 27 21 26 24-37 117-42 64-52 100-59 210-3 50-10 96-16 103-14 18-44 15-67-8z"/><path d="m2979 18510c-27-16-66-118-99-260-18-74-34-140-35-146-2-6-39-17-82-23-83-12-121-35-109-66 5-14 16-16 73-10 38 4 76 9 86 12 15 4 18 1 14-14-3-10-11-44-18-77-7-32-19-60-26-63-19-8-16-31 7-43 44-24 71 15 93 134l13 70 68 17c74 19 93 30 81 49-5 9-25 11-65 7-31-4-60-4-63-1-15 15 77 349 93 339 6-4 10-30 10-59 0-64 20-90 47-63 25 25 22 140-4 175-21 29-58 38-84 22z"/><path d="m7417 18488c-26-20-45-76-67-199-11-62-21-113-22-114-2-1-28-7-59-14-57-12-99-40-99-67 0-23 22-26 85-9 32 8 60 14 61 12 4-3-14-93-42-214-28-122-27-146 8-141 16 2 27 14 35 39 9 29 48 202 68 304 4 17 22 23 121 42 64 12 119 24 121 27 3 3 3 12-1 21-5 13-21 14-117 9l-110-7 6 39c17 98 38 190 45 204 7 12 12 6 25-23 22-52 49-47 53 9 5 72-60 120-111 82z"/><path d="m8237 18397c-97-98-134-323-62-384 54-47 139-19 230 76l39 41 21-42c25-54 58-71 107-57 71 19 158 150 158 237 0 60-41 102-100 102-93 0-221-94-255-186-21-55-47-89-87-110-68-35-95-2-79 96 12 73 45 151 77 181l25 23 25-27c32-34 48-31 52 11s-34 82-78 82c-23 0-41-11-73-43zm421-137c3-45-47-134-88-155-27-14-30-14-39 2-5 10-7 50-5 88 3 70 3 70 41 87 21 10 49 17 63 15 21-2 25-8 28-37z"/><path d="m6207 18353c-4-3-7-37-7-73v-67l-99-7c-58-5-107-13-118-21-17-13-17-15 0-32 14-14 32-17 107-15 50 1 90-2 90-6 0-5-9-45-21-91-11-45-19-85-16-87 7-7 84 118 96 158 11 33 17 37 64 48 73 18 120 38 112 50-3 5-37 10-76 10h-69v51c0 28-5 59-10 70-10 19-40 26-53 12z"/><path d="m8865 18344c-104-54-101-133 5-173 16-6 44-16 61-22 22-9 27-14 17-21-30-19-165-56-189-51-38 7-48-16-18-40 20-16 34-18 80-14 80 7 183 57 199 97 12 28 10 33-10 55-13 13-44 31-69 40s-57 22-70 29l-24 13 28 19c15 10 39 18 53 19 33 0 51 28 33 49-17 20-57 20-96 0z"/><path d="m3843 18304c-3-8-2-19 4-25 5-5 101-12 214-15 198-7 291-1 273 16-15 13-263 40-377 40-88 0-109-3-114-16z"/><path d="m3853 18173c-17-6-16-40 1-46 7-3 102-9 209-13 179-6 197-5 203 10 9 24 2 28-84 42-75 13-304 18-329 7z"/><path d="m5604 18052c-27-18-84-175-84-232 0-32 23-83 32-70 13 18 53 110 73 171 28 81 31 109 13 127-14 14-19 14-34 4z"/><path d="m3144 17941c-40-24-49-40-35-54 9-9 16-8 31 1 23 14 110 16 110 3 0-6-23-29-52-53-134-111-156-149-103-184s244 0 253 46c2 14-11 15-95 12l-98-4 78 73c69 66 77 78 77 111 0 27-6 41-22 52-31 22-106 20-144-3z"/><path d="m3815 17346c-75-18-129-53-156-100-21-36-24-57-27-176-3-111-1-138 11-148 28-23 46-3 53 58l6 59 104-6c106-6 139 2 128 32-5 12-36 19-169 40-54 8-73 46-52 97 24 58 110 86 271 91 101 2 117 14 64 47-39 23-150 26-233 6z"/><path d="m3073 17333c-7-2-13-15-13-27 0-49-85-306-101-306-4 0-10 12-14 27-18 73-97 122-176 109-82-13-176-75-214-141-84-143 52-198 361-145 146 25 154 28 154 46 0 9-11 14-31 14-26 0-30 3-24 18 39 92 107 292 112 327 4 36 2 50-12 65-19 21-22 22-42 13zm-215-285c29-32 50-117 31-129-16-10-249-12-273-3-25 9-19 30 19 73 70 77 179 105 223 59z"/><path d="m5872 17287c-6-7-12-32-14-56-2-26-9-47-18-52-8-4-73-20-145-34-71-15-233-51-360-80-213-50-231-52-258-39-42 22-28 39 36 42 49 3 57 6 57 23 0 24-36 39-96 39-34 0-51-6-69-25-29-28-32-70-9-96 15-16 13-18-23-28-56-16-59-15-55 27 5 48-31 95-85 113-92 30-231-18-286-99-45-67-180-116-267-97-25 5-30 12-30 34 0 30 46 103 88 138 15 13 39 23 53 23 31 0 44 23 29 51-19 35-74 25-126-23-92-85-136-174-113-230 26-64 114-75 249-28 78 26 86 27 98 12 10-13 10-17 0-23-14-7-242-64-300-74-25-5-38-13-38-23 0-21 111-11 255 24 72 17 145 27 210 29 102 3 146 14 195 53 34 26 240 68 265 55 16-9 6-18-64-58-94-54-112-70-105-90 10-24 36-18 119 28 106 57 139 89 132 126-6 29-6 29 86 50 115 26 113 26 88-5-25-32-27-90-5-123 58-82 231-59 383 49 22 16 28 16 60 3 68-28 126-55 175-79 26-14 50-23 52-21 9 8-103 104-153 132-29 15-53 31-53 35 0 3 11 21 25 40 13 18 32 53 41 76 18 48 6 43 212 82 51 9 92 22 90 27-4 13-39 13-123-1-38-6-89-14-112-18l-43-6v39c0 23-7 46-16 55-19 19-19 19-32 3zm-47-184c-10-16-28-42-41-59l-23-31-78 18c-43 10-98 19-123 20l-45 1 35 9c74 19 275 67 284 68 4 1 0-11-9-26zm-990-37c38-16 54-53 38-89-8-17-27-26-89-39-44-10-96-22-117-27-33-8-41-6-62 12-41 38-41 62 0 93s126 63 168 64c15 0 43-6 62-14zm787-91c32-4 60-10 62-14 3-4-21-20-52-35-66-33-172-47-197-26-19 16-19 44 1 60 17 15 79 29 109 24 11-2 46-6 77-9z"/><path d="m10934 17156c-3-7 13-42 36-76 136-212 118-508-44-733-65-91-126-146-177-161-26-8-45-20-47-30-3-13 5-16 45-16 72 1 128 37 210 135 142 172 210 443 158 639-39 150-156 306-181 242z"/><path d="m8198 17118c-154-165-270-530-240-754 18-133 74-214 148-214 21 0 33 4 29 10-3 6-12 10-19 10-20 0-42 30-67 95-19 50-23 78-23 175 1 224 97 493 222 619 39 39 51 58 47 72-10 32-62 25-97-13z"/><path d="m12762 16968c-7-7-12-24-12-38 0-43-22-139-34-149-10-8-122-41-453-131-117-32-130-25-68 37 41 41 42 67 4 71-36 4-96-63-105-118-6-37-9-40-59-55-29-8-56-15-59-15s-3 20 0 44c13 89-20 136-93 136-51 0-92-19-149-69-107-93-238-139-271-96-39 55 28 235 88 235 10 0 21-4 24-10 3-5 15-10 26-10 25 0 26 41 1 63-49 44-131 3-177-88-25-50-30-72-30-133 0-71 1-75 34-104 31-28 39-30 91-26 37 3 77 14 110 31 28 15 57 27 63 27 7 0 17-15 23-33l10-34-181-47c-193-52-228-66-218-92 8-21 48-15 273 40 127 31 180 41 194 34 26-14 76-2 104 25 14 14 66 34 135 53 105 29 114 30 145 16 17-9 32-19 32-24 0-10-71-46-145-72-46-17-61-27-63-44-5-32 22-38 87-17 113 35 201 95 201 136 0 11-9 28-21 40-11 11-19 22-17 24 2 1 39 13 83 25 43 12 86 25 94 28 10 4 7-5-9-27-13-20-25-53-28-81-4-41-1-49 22-67 46-37 121-7 217 87 34 33 64 60 68 60 3-1 29-23 56-51 75-74 194-127 202-89 2 9-12 23-34 35-21 11-73 53-115 94-78 73-78 73-61 102 13 22 32 33 87 49 140 42 336 113 331 120-4 7-247-32-318-51-22-6-40-9-42-7s1 30 7 64c13 88-12 140-50 102zm-851-294c10-13 10-24 0-62-15-58-25-69-78-80-42-10-42-9-52 22-23 73-20 86 29 112 52 28 82 30 101 8zm702-57c-42-54-142-124-156-111-8 8 11 55 31 78 29 32 75 56 110 56 33 0 33 0 15-23z"/><path d="m8967 16920c-70-22-128-58-144-91-7-13-22-51-34-84-27-74-79-127-140-143-52-14-295-45-310-40-6 2 26 37 72 78 105 95 139 142 139 190 0 49-24 70-82 70-54 0-98-29-98-66 0-27 14-30 50-9 34 19 70 19 70-1 0-15-77-96-173-183-70-63-83-86-67-117 19-35 49-39 176-25 174 19 246 43 313 105 19 17 32 24 29 16s-11-48-19-89c-12-68-11-75 5-87 36-26 52-2 76 118l11 56 97 7c142 10 187 18 187 35 0 22-116 43-202 36l-71-6 9 33c19 68 32 86 73 106s200 61 235 61c10 0 24 7 31 15 10 12 8 16-15 25-41 16-154 11-218-10z"/><path d="m10655 16906c-29-29-41-70-62-213-16-113-16-113-45-113-43 0-95-25-103-50-11-35 7-43 65-31 29 6 54 10 56 9 1-2-4-59-12-128-18-166-18-182 2-178 36 7 53 50 64 163 16 155 13 151 107 158 97 8 168 28 168 47 0 12-23 16-124 18l-124 3 7 56c11 90 16 103 40 103 48 0 85 73 65 129-19 54-65 66-104 27zm41-92c-4-9-9-15-11-12-3 3-3 13 1 22s9 15 11 12c3-3 3-13-1-22z"/><path d="m10007 16871c-27-33-107-265-107-311 0-20 8-34 23-44 19-13 38-13 147 0 188 22 189 23 206 49 19 29 13 52-30 108-18 24-51 75-74 114-67 115-117 140-165 84zm102-118c21-38 53-86 71-108 37-47 35-48-77-59-39-3-84-11-99-16-15-6-29-8-32-5-11 11 74 255 88 255 5 0 27-30 49-67z"/><path d="m3273 16848c-32-34-53-79-53-115 0-39-8-41-140-31-52 3-167 11-255 17s-182 14-209 17c-77 9-236-6-236-22 0-8 1-14 3-14 5-1 370-19 487-25 69-3 134-8 146-10 28-6 2105-4 2954 2 415 3 680 9 687 15 6 5 9 16 6 24-5 13-84 14-612 9-991-9-2791-16-2791-11 0 2 16 32 35 67 20 34 34 69 33 78-5 25-32 24-55-1z"/><path d="m9688 16853c-8-10-20-33-28-50-11-29-17-33-49-33-62 0-112-12-118-28-10-24 27-42 85-42 54 0 54 0 47-27-28-111-44-227-34-239 20-25 34 1 74 136l39 130h48c60 0 65 23 10 48-38 17-38 17-29 61 7 33 5 46-5 52-19 12-23 11-40-8z"/><path d="m7143 16850c-27-11-30-45-5-56 25-12 442-18 442-6 0 16-131 50-238 61-121 13-169 13-199 1z"/><path d="m7083 16613c-21-8-15-41 9-49 28-8 243-6 318 4 39 5 55 11 55 22s-16 17-60 21c-72 8-305 10-322 2z"/><path d="m2860 16413c-5-21-21-87-34-148-14-60-28-120-33-133-8-21-9-21-27 12-55 103-221 98-295-10-52-76-11-146 91-159 63-8 181 7 296 37 67 17 82 25 82 41s-6 19-45 15c-25-2-45-2-45-1s13 56 29 122c50 201 52 261 11 261-14 0-22-11-30-37zm-181-267c27-14 51-53 51-81 0-12-18-15-89-15-49 0-96 3-105 6-50 19 27 101 97 103 10 1 30-5 46-13z"/><path d="m5865 16394c-83-20-106-29-129-53-40-42-46-73-46-230 0-159 8-189 47-177 16 5 22 18 27 54 15 111 7 102 100 102 97 0 244 35 225 55-3 2-71 5-151 6l-147 2 6 48c4 32 1 54-7 64-24 29 49 47 210 53 80 2 151 9 158 14 18 15 15 45-5 53-21 9-259 16-288 9z"/><path d="m4769 16313c-6-16-20-51-30-79-11-29-33-70-49-93l-30-41-52 32c-97 60-200 44-234-37-40-97 6-175 104-175 41 0 135 40 168 71 21 20 21 20 65-3 51-27 144-32 144-9 0 8-12 18-27 22-22 6-82 37-107 55-1 2 13 29 33 61 39 64 66 133 66 168 0 58-33 75-51 28zm-211-229c45-23 51-28 40-42-31-37-125-63-157-43-23 15-18 71 8 93 31 24 47 23 109-8z"/><path d="m3490 16273c-38-26-58-54-75-102-17-51-20-133-5-162 29-53 152-67 229-25 36 19 51 22 80 15 50-12 139-11 162 1 26 15 49 62 49 104 0 44-38 90-86 106-49 17-141 8-192-17l-42-20v38c0 65-66 99-120 62zm77-74c3-17 12-33 19-36 9-3 10-11 3-30-13-36-11-69 6-87 21-21 3-30-57-29s-78 15-78 62c2 106 90 206 107 120zm281-55c13-9 22-25 22-42 0-52-8-55-122-47-58 3-109 10-115 13-18 11 4 50 39 72 42 25 143 28 176 4z"/><path d="m4068 16200c-24-25-29-36-23-58 10-41 33-62 110-98 39-18 68-34 65-34-111-26-159-55-133-81 15-15 107 3 171 33 39 18 43 24 40 51-3 28-11 35-91 74-119 59-129 93-25 93 26 0 49 4 53 9 11 18-39 41-88 41-41 0-53-5-79-30z"/><path d="m5027 16163c-17-16-5-44 25-59 28-14 57-16 208-11 179 5 210 10 210 32 0 13-60 20-245 30-55 3-121 8-146 10-25 3-48 2-52-2z"/><path d="m3092 16082c-30-42-53-134-50-196 2-31 7-55 13-54 23 6 103 233 92 262-10 24-33 19-55-12z"/><path d="m14144 15296c-80-84-216-394-250-574-17-89-20-252-5-300 17-56 51-101 97-128 69-40 105-14 39 28-60 40-76 83-77 206 0 120 18 219 63 350 34 99 142 325 187 391 53 79 14 98-54 27z"/><path d="m17040 15321c0-6 25-45 56-88 218-301 216-572-6-904-56-84-90-148-90-170s39-6 71 29c110 116 222 335 248 486 26 144 3 293-65 429-39 76-120 183-158 207-36 22-56 26-56 11z"/><path d="m10070 15231c0-6 16-40 35-78 59-115 69-162 70-313 0-110-4-150-23-215-22-77-134-320-175-378-29-42-16-42 41 0 66 49 122 140 177 287 92 245 70 532-52 667-32 36-73 52-73 30z"/><path d="m6823 15161c-88-54-180-223-239-441-23-84-26-303-5-374 18-63 85-136 124-136 15 0 27 3 27 6 0 4-18 23-41 43-34 31-43 46-54 101-55 257 81 678 251 776 16 10 17 13 5 28-17 21-29 20-68-3z"/><path d="m4115 15156c-65-28-114-114-200-352-54-149-58-207-14-212 34-4 40 5 81 122l35 99 94-2c121-1 163 8 167 36 3 18-3 23-35 29-21 4-75 8-121 8l-83 1 7 30c8 37 45 112 72 145 20 25 21 25 191 25 180 0 208 6 185 43-20 32-320 54-379 28z"/><path d="m6033 15118c-6-7-18-49-28-93-15-72-90-317-102-339-3-4-17 13-32 40-48 89-134 118-226 75-47-22-113-86-121-117-22-86 22-114 181-114 102 0 253 12 318 26 39 8 28 27-22 38-33 7-41 13-35 25 49 122 114 349 114 403 0 57-24 85-47 56zm-241-387c9-9 24-33 33-53l15-38h-117c-65 0-124 4-132 9-10 7-6 17 20 45 56 61 139 78 181 37z"/><path d="m14993 15081c-24-12-48-32-57-49-22-42-98-385-94-424 3-29 6-33 33-33 29 0 31 4 57 80l27 80 83 6c91 7 158 29 158 53 0 14-17 16-110 16-60 0-110 3-110 8 0 4 10 49 22 100l23 92h52c51 0 192 16 226 26 26 8 21 43-9 54-14 6-78 10-142 10-93 0-126-4-159-19z"/><path d="m13435 15081c-117-29-166-104-187-290-10-97-10-116 3-139 30-54 70-38 88 33 13 53-4 48 271 84 31 4 46 11 48 23 5 24-48 32-180 26-108-6-110-5-104 16 3 11 11 49 18 83 10 56 15 63 42 74 19 7 94 13 187 14 86 1 161 5 168 9 22 14-9 45-61 61-54 16-236 19-293 6z"/><path d="m3216 15038c-9-12-16-28-16-34 0-7-16-59-35-115-34-100-55-141-55-107 0 9-12 26-27 38-37 29-100 22-187-20-145-69-190-174-96-223 29-16 52-18 140-14 117 6 263 34 257 51-7 20-91 27-200 16-169-17-218 2-161 62 37 39 113 77 168 84 51 7 56 2 65-70 6-48 8-51 36-54 27-3 33 2 49 35 36 75 117 317 114 342-4 34-32 38-52 9z"/><path d="m16805 15016c-41-44-70-133-92-284l-17-120-64-10c-139-23-138-98 1-82l58 6-5-35c-3-20-8-65-11-101s-11-89-16-118c-11-55-2-82 27-82 34 0 50 66 69 276l7 71 96 29c70 21 98 34 100 47 3 16-4 17-92 11-53-4-96-4-96 0 0 37 35 225 51 273 23 70 46 98 35 42-20-101-20-109 3-109 51 0 84 157 41 200-29 29-58 25-95-14z"/><path d="m14301 15001c-46-12-69-36-55-59 10-15 25-17 118-13 106 3 136-4 136-33 0-25-72-95-160-155-83-58-90-65-90-96 0-58 21-65 200-64 190 0 235 7 235 34 0 15-11 21-60 31-33 6-100 15-150 18-49 4-90 8-92 10-2 1 22 20 53 41 107 74 161 163 133 220-26 52-60 68-151 71-46 2-98-1-117-5z"/><path d="m9748 14975c-42-23-79-111-94-223-7-53-13-98-13-99-1-2-12-3-26-3-32 0-77-43-69-64 4-11 19-16 48-16h42l-7-70c-19-175-58-333-90-363-22-21-21-35 3-51 24-15 66 18 90 70 21 49 52 200 64 309 10 106 13 110 75 113 30 1 77 10 104 19 103 32 86 51-52 54l-103 3v45c1 95 40 221 70 221 5 0 12-21 15-47 10-69 15-83 31-83 31 0 44 88 23 149-18 50-59 64-111 36z"/><path d="m16063 14947c-44-50-136-262-141-324-4-43-1-54 13-59 9-4 20-2 24 4 7 11 150 29 298 36 50 2 101 9 112 16 37 19 27 59-32 126-29 33-74 90-100 126-82 115-123 133-174 75zm98-109c24-35 63-84 87-110l43-46-88-7c-48-3-116-10-151-14-59-7-62-7-56 12 16 49 108 227 118 227 2 0 23-28 47-62z"/><path d="m7651 14930c-82-19-95-37-121-168-11-53-32-137-47-185-25-82-25-89-10-105 40-39 70 21 119 233 16 72 33 134 37 138 15 15 156 29 248 24 71-3 93-1 97 9 6 16-28 41-75 54-40 12-199 11-248 0z"/><path d="m9086 14918c-8-13-33-63-54-113-22-49-57-123-77-163-24-48-35-83-33-104 4-37 27-49 35-19 5 20 7 20 18 5 10-15 20-16 76-6 53 9 192 21 261 22 24 0 48 28 48 54 0 13-29 60-64 107-35 46-82 118-103 159-31 62-43 76-65 78-19 2-31-3-42-20zm67-132c16-29 52-82 81-118l53-64-136-11c-75-6-144-14-153-18-12-5 3 34 50 129 37 75 69 136 72 136s18-24 33-54z"/><path d="m11991 14885c-17-20-40-54-52-76-15-31-24-39-37-34-9 4-37 14-61 21-102 32-190-38-191-152 0-46 34-107 64-112 47-9 90 10 143 65 62 63 43 66 145-24 53-48 112-68 152-53 34 12 33 26-2 48-16 9-65 51-110 93l-81 76 39 74c57 107 52 143-9 74zm-160-180c35-19 30-34-26-84-63-55-105-34-91 45 10 53 58 69 117 39z"/><path d="m10575 14876c-84-37-185-176-185-253 0-92 80-122 210-80 41 13 82 28 91 31 12 5 18 1 22-16 4-13 20-37 37-53 29-28 37-30 103-30 85 0 155 29 231 96 153 135 91 273-106 240-37-6-92-22-121-35-57-25-127-80-127-101 0-17-142-75-199-81-32-4-52-1-66 10-20 15-20 15 8 69 15 29 48 73 72 97 37 36 53 45 92 50 36 4 49 10 51 23 8 40-55 58-113 33zm510-139c63-47-111-197-227-197-52 0-69 10-74 41-2 13-6 33-9 45-5 16 2 26 32 47 91 62 234 95 278 64z"/><path d="m8503 14847c-6-14-14-45-18-70-7-45-7-45-59-52-108-13-128-17-133-32-10-24 17-33 105-33h82v-80c0-79 14-107 26-52 10 44 25 106 30 123 3 10 26 21 62 29 102 22 102 29 0 44l-47 7-3 67c-2 51-7 67-19 70-9 1-20-8-26-21z"/><path d="m15576 14855c-3-9-6-34-6-54 0-38-1-38-46-45-26-3-62-6-80-6-42 0-64-9-64-26 0-25 41-37 113-31l69 4-3-86c-3-51 0-87 6-90 9-3 46 96 59 161 5 23 14 28 61 39 66 15 72 29 13 29-58 0-66 8-70 65-3 42-6 50-24 53-13 2-24-4-28-13z"/><path d="m11318 14846c-75-20-105-55-88-100 10-27 58-56 128-76 23-7 42-17 42-21 0-22-188-88-210-74-14 9-12-29 2-43 19-19 92-14 154 11 55 21 134 83 134 104 0 27-46 64-111 89-77 30-76 39 5 50 30 5 51 2 60-6 33-27 50 24 19 53-26 22-81 28-135 13z"/><path d="m4780 14840c-43-4-56-9-58-24-2-10 2-22 10-27 32-21 364-3 391 21 18 16-243 39-343 30z"/><path d="m6945 14833c-25-6-65-42-65-59 0-27 27-36 60-19 41 21 139 21 179 1 17-9 31-20 31-24 0-14-47-61-107-106-69-52-93-80-93-111 0-80 213-111 345-50 94 43 118 78 35 49-53-19-281-17-300 2-9 9 6 25 57 65 82 63 123 113 123 148 0 66-75 111-180 110-36-1-74-3-85-6z"/><path d="m12450 14772c-36-11-35-53 3-63 15-4 116-9 225-10l197-3v24c0 44-40 54-230 57-93 1-181-1-195-5z"/><path d="m7620 14677c-53-27-11-67 70-66 59 0 238 23 247 32 13 14-9 21-105 33-124 17-181 17-212 1z"/><path d="m4761 14666c-11-13-11-19 0-32 12-15 32-16 158-11 139 6 177 15 155 37-6 6-75 13-155 17-126 5-146 4-158-11z"/><path d="m3417 14648c-41-32-117-250-101-291 10-28 43-21 50 11 11 53 37 118 76 191 21 41 37 80 34 88-7 16-37 17-59 1z"/><path d="m6275 14649c-15-23-45-155-45-195 0-51 18-104 35-104 7 0 15 18 18 43 3 23 17 83 30 132 15 54 22 98 17 110-8 23-44 32-55 14z"/><path d="m17737 14068c-2-7 9-34 24-59 93-151 132-386 94-571-31-149-144-326-222-347-21-6-89-8-163-4l-127 6 22 91c13 50 26 103 29 119 6 24 11 27 49 28 61 0 120 12 124 25 2 6-30 21-72 35-41 13-75 27-75 32 0 54 69 300 106 375 35 71 48 68 41-12-3-35-3-66 0-69 10-11 42 13 58 43 19 36 19 71 1 115-30 71-93 68-143-7-47-69-76-154-135-398-12-50-16-55-43-58-62-5-75-12-75-36 0-25 21-36 69-36 20 0 22-4 17-24-3-14-15-64-26-113-12-48-24-93-28-99-10-16-996-30-1954-27-756 3-756 3-791 25-55 35-62 57-61 177 2 168 61 384 153 556 57 107 65 134 45 142-44 17-138-143-209-352-40-120-59-224-59-330 0-102 10-140 53-189 16-19 11-19-224-12-262 7-410 14-467 21-78 10-297 17-332 11-45-9-47-31-3-40 57-11 524-45 772-56 612-25 1568-32 2565-18l485 7 1-28c1-16 4-36 7-46 6-15 9-15 36 4 16 12 32 32 35 46 6 25 6 25 166 25 146 0 160 2 169 19 6 10 22 22 36 25 49 12 128 100 178 196 75 147 98 352 58 525-25 104-75 216-120 264-30 32-56 40-64 19z"/><path d="m7196 13898c-114-115-190-252-236-423-26-99-28-221-5-288 9-27 14-51 12-54-3-2-97 0-209 5-370 17-707 10-715-15-5-14 104-20 462-28 421-9 492-14 544-41 54-29 121-32 127-6 5 16 44 17 677 15 2006-8 2577-11 2622-16 28-3 93-8 145-11s174-10 270-16c402-24 891-16 952 16l33 17-30 9c-16 5-118 6-225 3l-195-7 59 59c71 70 109 124 146 206 51 115 64 247 35 362-31 119-124 285-161 285-22 0-17-18 25-100 65-125 91-215 91-317-1-154-57-276-192-416l-77-79-173 7c-95 3-292 12-438 20s-330 17-410 21-845 7-1701 8c-1157 1-1560 5-1571 13-32 27-51 111-46 206 10 178 89 356 243 547 36 44 65 85 65 90 0 6-10 10-21 10-14 0-52-31-103-82z"/><path d="m7805 13868c-50-157-136-358-153-358-4 0-18 20-31 45-31 59-71 87-131 93-61 6-107-10-158-54-74-63-74-144 0-175 59-25 336-13 375 17 15 11 16 15 4 23-11 7-10 14 6 37 52 76 133 284 133 345 0 33-3 39-20 39-11 0-22-6-25-12zm-285-293c24-13 70-70 70-89 0-4-53-5-117-4-110 3-118 4-121 24-3 22 17 44 63 68 38 20 68 20 105 1z"/><path d="m6390 13801c-14-4-36-14-48-22-22-14-52-75-52-107 0-9-23-95-51-190-41-138-48-176-39-187 29-35 61-6 87 79 13 42 24 61 41 67 12 5 82 17 155 26 104 14 132 22 135 34 2 11-7 18-29 23-47 9-158 7-208-5-24-5-45-8-48-6-5 6 27 181 37 197 17 27 207 40 300 19 72-16 75-15 78 7 2 16-7 28-35 45-34 22-51 24-168 26-71 1-141-1-155-6z"/><path d="m14953 13788c-27-36-164-331-159-343 3-8 17-22 32-31 23-16 36-17 123-7 53 6 104 14 115 19 16 6 17 4 7-14-6-11-11-42-11-69l1-48 33 36c18 20 43 62 56 95 37 98 40 224 5 224-20 0-31-26-39-93-5-38-13-60-24-66-19-10-222-27-222-18 0 3 29 65 65 138 67 138 76 173 49 183-21 8-20 8-31-6z"/><path d="m15665 13785c-5-2-27-6-48-10-57-9-105-58-148-150-64-138-94-276-67-303 31-31 54-4 92 104 22 60 28 69 48 67 137-13 266-15 273-4 4 7 3 17-2 22-12 12-103 30-198 37l-80 7 3 35c4 46 30 81 78 105 32 16 62 19 174 20 126 2 135 3 135 21 0 34-59 54-160 53-49 0-94-2-100-4z"/><path d="m11148 13765c-49-27-94-125-118-263l-13-72h-37c-58 0-101-11-107-28-10-24 26-42 82-42h51l-8-67c-8-68 3-133 23-133 17 0 41 64 47 129 7 65 8 66 37 68 136 11 281 31 273 38-3 4-94 15-232 30-27 3-51 7-53 9-3 2-1 24 2 49 6 38 10 44 27 39 50-13 114 67 125 156 5 45 3 53-20 76-30 30-41 31-79 11zm42-85c0-33-25-83-55-110l-27-25 7 25c4 14 17 49 30 78 24 53 45 68 45 32z"/><path d="m9385 13756c-64-20-84-34-104-75-21-40-61-229-61-285 0-40 24-65 48-50 15 10 19 21 36 95 6 26 6 26 138 32 134 6 178 13 178 27 0 16-37 22-166 27l-132 6 10 29c6 15 7 35 4 44-9 24 12 54 48 69 18 8 100 19 182 25s153 15 158 20c17 17-2 37-41 43-64 11-256 6-298-7z"/><path d="m10555 13746c-13-13-56-87-95-165-38-78-86-159-105-180s-35-43-35-49c0-17 28-22 61-10 21 7 83 9 185 5 131-6 155-4 168 9 22 21 20 47-8 102-32 64-43 102-60 202-15 86-30 110-68 110-11 0-30-11-43-24zm84-281c12-26 21-49 21-52 0-2-49-3-109-1l-109 3 35 70c20 38 51 99 71 135l36 64 17-85c9-48 26-108 38-134z"/><path d="m13682 13759c-176-16-210-55-237-277-8-73-13-137-10-142 4-6 17-10 30-10 25 0 27 2 43 84l7 38 199-1c186-2 197-1 194 16-6 34-72 47-230 48-127 0-147 2-143 15 2 8 7 33 11 55s11 48 15 57c12 22 79 34 274 48 88 6 168 14 178 16 26 8 22 50-5 58-31 8-211 5-326-5z"/><path d="m16822 13753c-18-7-169-311-177-356-6-33-5-37 13-37 16 0 34 29 91 145 38 80 74 145 79 145 4 0 14-17 21-37 7-21 35-70 60-109l47-71-80-7c-130-11-195-52-166-106 13-25 30-26 37-1 7 27 67 41 181 41 55 0 107 3 116 6 30 11 17 54-40 128-30 41-71 112-90 157-46 110-53 118-92 102z"/><path d="m16350 13715c-5-14-10-53-10-85v-58l-105-4c-81-2-108-7-115-18-6-10-5-20 5-29 11-11 39-14 116-13l101 2-7-73c-8-87 4-82 33 13 20 65 20 65 63 73 80 14 89 17 89 31 0 18-16 23-72 20l-47-1-3 81c-3 68-6 81-20 84-12 2-21-6-28-23z"/><path d="m8400 13660v-59l-37-6c-79-12-98-20-98-40 0-17 8-20 58-23 64-3 63-1 42-87-18-75-18-85-2-85 15 0 36 43 66 130l18 55 94 15c70 11 94 19 94 30 0 12-18 16-86 18l-87 3-6 37c-11 62-17 72-37 72-17 0-19-7-19-60z"/><path d="m8867 13710c-27-5-58-17-68-26-23-20-22-61 1-55 93 26 180 24 180-4 0-25-60-83-138-135-155-100-152-97-152-130 0-26 6-33 36-46 46-19 197-30 244-17 75 20 20 52-120 69-46 6-52 9-36 18 11 6 54 37 97 69 136 101 172 177 108 231-17 14-38 26-47 26s-26 2-37 4-42 0-68-4z"/><path d="m10030 13605c-5-14-10-41-10-59 0-34 0-34-60-38-65-5-75-10-67-33 5-11 21-15 66-15h60l7-69c6-69 22-93 43-68 5 7 11 42 13 77l3 65 50 7c78 13 95 18 95 28 0 6-30 10-68 10h-69l-9 57c-10 66-36 84-54 38z"/><path d="m7881 13467c-40-94-65-187-54-198 21-21 43 0 73 66 54 120 60 175 19 175-14 0-26-14-38-43z"/><path d="m3285 13431c-73-44-150-153-191-269-53-150-17-242 96-242 47 0 99 24 187 86 34 24 64 44 67 44s6-12 6-27c0-41 40-103 80-125 27-15 50-18 100-16 83 4 146 44 190 121 57 99 53 189-11 249-37 35-44 38-99 38-103 0-208-63-226-136-4-16-13-24-29-24-12 0-51-22-86-49-114-86-189-112-219-76-22 26-4 112 41 204 41 84 115 171 143 171 9 0 19-16 26-39 19-70 60-59 60 16 0 80-67 116-135 74zm489-233c14-18 17-35 14-79-8-115-105-195-204-168-50 14-65 43-60 118 3 48 9 68 27 88 66 70 181 91 223 41z"/><path d="m4704 13316-34-75-43 19c-53 25-113 25-157 1-77-40-122-176-86-253 44-93 146-69 244 57l35 46 46-44c59-58 79-67 140-67 56 0 70 20 29 41-13 6-55 43-94 81l-72 70 24 58c13 32 26 77 30 99 6 34 4 41-10 41-12 0-29-25-52-74zm-119-140c19-8 35-19 35-25 0-5-26-37-59-71-45-48-64-61-82-58-64 9-5 164 64 168 4 0 23-7 42-14z"/><path d="m4060 13321c-48-15-87-40-119-76-70-80-23-144 146-199 29-10 55-22 58-27 7-11-144-86-191-95-41-8-44-21-6-35 57-22 190 18 247 75 55 55 22 107-98 152-130 48-143 72-62 119 43 26 89 33 100 15 10-16 25-1 25 24 0 40-50 63-100 47z"/><path d="m12446 13289c-55-9-80-27-70-52 10-27 64-30 254-17 98 7 194 10 213 6 25-5 38-2 47 9 19 23-2 42-61 54-57 13-310 13-383 0z"/><path d="m5313 13264c-12-3-27-12-34-21-11-13-10-17 6-29 37-27 445-11 445 17 0 5-1 9-2 9-2 0-30 5-63 10-69 11-319 21-352 14z"/><path d="m18231 13212c-33-10-49-38-33-54 15-15 387-18 455-5 55 11 47 40-13 49-69 11-382 18-409 10z"/><path d="m5382 13108c-104-11-138-33-90-59 16-9 53-9 152 1 180 17 219 23 223 37 8 22-160 35-285 21z"/><path d="m12410 13087c-17-8-25-21-25-37 0-24 3-25 70-26 39-1 127-5 198-8 111-6 128-5 133 9 11 26-10 37-108 56-108 21-232 24-268 6z"/><path d="m18223 13079c-22-22-15-49 15-60 59-23 183-40 307-42 127-2 130-2 133 20 4 26 12 24-188 57-216 36-253 40-267 25z"/><path d="m14911 12943c-69-59-164-295-201-503-19-107-15-284 10-362 26-84 46-102 35-32-4 27-7 107-6 178 3 216 46 395 147 605 30 62 54 117 54 122 0 14-16 10-39-8z"/><path d="m17743 12953c-19-7-16-30 12-87 53-109 69-273 40-423-33-175-113-349-193-420-40-36-45-45-36-60 18-29 38-26 85 10 83 63 163 210 212 392 26 98 31 325 8 415-29 117-83 189-128 173z"/><path d="m8173 12858c-84-91-182-262-233-408-60-173-73-345-31-413 12-19 28-38 37-41 24-9 62-7 69 4 3 6-3 10-13 10-32 0-43 24-49 103-13 175 69 415 223 649 35 53 64 104 64 113 0 26-34 17-67-17z"/><path d="m11169 12865c-3-2-1-44 3-92 14-147-5-273-69-442-50-134-146-321-204-396-48-63-55-95-21-95 24 0 96 81 142 160 161 275 243 535 226 713-11 104-49 181-77 152z"/><path d="m7496 12748c-8-13-29-57-47-98-19-41-46-100-60-130-26-53-27-54-37-30-5 14-22 36-37 50-23 21-36 25-88 24-104 0-220-74-253-159-15-42-16-46 0-70 31-48 103-56 246-31 159 29 148 21 213 154 91 188 113 248 108 300-2 20-29 14-45-10zm-215-264c7-9 16-37 19-64l6-47-116-7c-159-10-180 1-117 61 64 62 178 93 208 57z"/><path d="m9021 12740c-102-15-134-57-162-210-30-158-30-184-2-188 18-3 27 6 44 41l22 44h96c115-1 214 24 209 51-3 15-17 17-125 13-67-1-126 0-131 3-6 3-5 21 1 46 9 31 8 46-2 62-29 46 37 67 216 68 112 0 128 5 117 33-15 41-142 57-283 37z"/><path d="m10242 12707c-6-7-40-60-75-118-35-57-94-146-131-197-37-50-64-96-61-102 5-8 11-8 20 0 10 9 20 7 38-5 17-11 27-13 32-6 10 17 101 13 218-11 108-21 108-21 135-1 15 11 28 31 30 45 2 13-24 92-58 175-33 83-60 159-60 168 0 20-44 65-63 65-8 0-19-6-25-13zm47-147c12-36 37-101 56-145s32-81 30-83-46 6-99 17c-53 12-120 21-150 21h-54l91 135c50 74 94 132 98 128 3-5 16-37 28-73z"/><path d="m10831 12696c-25-27-87-166-122-273-23-73-23-73-59-73-74 0-95-53-26-66 20-3 36-8 36-10s-11-36-24-76c-85-259-127-402-122-414 3-8 13-17 22-21 35-13 56 36 168 398l36 116 83 7c104 9 127 15 127 31 0 17-17 22-107 30-40 4-73 11-73 15 0 5 19 62 42 127 40 111 63 134 39 38-15-59-14-65 10-65 28 0 50 58 57 152 5 85-4 108-42 108-13 0-33-11-45-24z"/><path d="m14385 12709c-175-24-198-50-225-264-15-115-11-184 12-199 26-16 40 4 52 79l11 67 140 2c142 2 175 8 175 30 0 14-125 36-205 36-28 1-58 7-70 15-18 14-18 18-5 72 13 49 19 58 45 65 45 13 273 24 297 15 28-10 47 7 32 30-34 55-117 71-259 52z"/><path d="m8397 12695c-84-17-130-57-114-99 4-11 17-8 54 10 70 35 141 42 172 17l24-19-34-38c-18-21-67-58-110-83-42-24-87-55-100-69-19-20-21-27-11-49 18-38 55-48 157-41 150 11 196 18 192 30-7 21-92 45-162 45l-70 1 66 44c112 75 152 141 123 198-27 51-96 71-187 53z"/><path d="m17372 12688c-34-37-42-74-52-232-5-83-10-152-10-152 0-1-18-4-39-8-60-9-64-66-4-66 13 0 26-7 29-15 8-20-28-185-67-307-17-53-29-105-25-113 8-21 35-30 54-19 24 16 93 261 107 385l7 56 80 9c59 7 84 14 92 26 17 28-4 39-86 45l-76 6 5 121c6 161 18 226 43 226 23 0 47-34 56-78 9-45 22-49 29-8 8 41-23 119-53 135-33 17-67 13-90-11z"/><path d="m15559 12645c-36-20-51-57-89-224-30-131-32-147-19-170 17-30 43-38 65-21 8 7 24 43 35 81l20 67 34-14c41-17 86-18 138-3 64 18 45 39-57 65-48 12-93 27-98 32s-8 31-6 58l3 49 100 6c110 7 173 17 180 29 3 4-7 19-22 34-25 25-30 26-142 26-81-1-124-5-142-15z"/><path d="m9653 12602c-6-11-17-38-23-61-11-41-11-41-63-42-87-2-112-11-112-39s24-38 103-39l52-1v-55c0-31 4-55 10-55s12 6 14 13c2 6 11 32 20 58 15 42 19 45 54 47 87 6 137 17 137 32 0 11-19 17-76 24l-76 9 1 61c1 46-3 61-14 63-8 2-20-5-27-15z"/><path d="m15085 12613c-56-12-98-54-77-75 8-8 30-7 72 1 60 12 100 8 100-9 0-21-69-85-154-145-50-35-100-73-111-85-18-20-18-24-4-48 15-27 15-27 169-30s176 2 164 33c-8 19-82 37-156 37-37 1-68 2-68 4 0 1 36 28 80 59 80 55 135 117 147 163 17 67-66 116-162 95z"/><path d="m13643 12584c-18-9-35-25-38-36-9-26 12-50 34-39 30 16 97 22 124 12 62-24 17-98-107-175-79-49-92-66-76-96 24-44 87-51 236-25 136 24 134 57-4 70l-76 7 41 37c86 75 114 150 76 208-33 51-143 70-210 37z"/><path d="m16798 12573c-24-28-61-109-98-213-18-52-42-106-52-119-23-30-23-44 0-63 23-21 339-35 374-17 48 25 50 60 9 133-16 28-48 96-72 151s-53 110-66 123c-27 27-74 29-95 5zm73-145c18-46 43-104 56-130l23-48h-108c-60 0-111 3-114 6-14 14 81 254 101 254 5 0 23-37 42-82z"/><path d="m16302 12547c-6-7-14-35-17-64l-7-51-89-4c-93-4-126-19-114-50 8-21 36-28 123-28 82 0 77 8 63-103-12-100 11-82 54 42l23 66 57 14c62 15 63 21 2 36l-42 11-3 59c-4 75-24 104-50 72z"/><path d="m7632 12359c-29-45-82-200-88-254-6-51-5-57 11-54 20 4 148 281 143 308-5 25-51 25-66 0z"/><path d="m8500 11543c-48-18-89-91-120-214-44-175-32-155-100-162-71-6-94-20-79-48 8-15 21-19 64-19 30 0 55-3 55-7 0-5-14-60-30-123-35-133-36-156-12-169 30-16 42 2 61 95 10 49 26 115 35 146l17 56 69 12c114 19 123 65 11 58-72-4-71-9-36 119 37 139 73 212 96 197 14-8 10-86-7-143-16-55-14-67 9-58 30 11 62 200 39 233-7 10-47 35-54 33-2 0-10-3-18-6z"/><path d="m11322 11443c-5-10-13-36-17-58-3-22-29-86-57-142-42-86-48-107-41-130 15-46 55-58 137-44 38 6 71 10 73 7 2-2-3-21-11-41-25-59-19-135 9-135 18 0 43 45 108 198 58 135 69 190 42 212-22 18-42 6-55-37-7-21-21-54-31-74-17-34-22-37-76-43-32-4-70-9-85-12l-27-5 39 83c51 109 67 169 54 205-11 34-48 43-62 16z"/><path d="m6485 11443c-118-26-154-58-185-163-11-38-25-72-30-75-6-3-10-17-10-30 0-14-12-54-26-89-31-79-29-111 6-111 21 0 32 13 70 87l45 88 95 1c131 0 175 9 175 34 0 24-44 34-160 34l-80 1 3 55c3 48 7 57 30 69 37 19 131 37 197 39 60 1 69 13 35 47-16 16-32 20-82 19-35-1-72-3-83-6z"/><path d="m5854 11406c-12-9-24-26-28-40-3-13-31-59-62-102-70-97-78-118-61-152 18-40 72-54 155-42 36 5 68 7 70 5 3-2-5-27-17-54-11-27-21-59-21-70 0-22 27-41 48-34 19 7 162 317 162 352 0 9-6 26-14 37-14 19-15 19-38-3-13-12-32-45-43-74-24-61-37-67-148-76-68-5-78-4-71 8 5 8 30 46 57 85 60 88 72 126 49 154-16 19-19 19-38 6z"/><path d="m12334 11409c-29-15-48-52-39-78 7-25 27-27 45-6 15 18 51 20 68 3 32-32-1-87-92-152-34-25-70-54-80-64-25-28-18-73 14-89 28-14 158-16 233-4 82 14 140 75 72 77-16 0-69 1-117 2l-87 2 64 63c77 75 96 122 72 179-9 20-26 44-40 53-32 21-86 27-113 14z"/><path d="m13497 11384c-3-3-11-39-18-80-9-56-16-74-28-75-142-6-181-15-181-44 0-26 31-37 105-39l76-1-3-85c-3-79-2-85 17-85 16 0 22 14 40 89l20 89 53 13c61 16 112 40 112 54 0 6-33 10-75 10h-74l6 65c4 45 2 69-7 80-13 16-32 20-43 9z"/><path d="m7835 11293c-93-141-112-183-119-249-6-52-4-63 10-68 9-3 66-3 128 0 163 9 186 30 140 130-21 45-28 80-32 149-5 103-13 125-47 125-19 0-35-18-80-87zm84-183c12-30 21-56 21-57 0-2-40-3-90-3-49 0-90 3-90 8 0 6 42 83 106 189l19 33 7-58c3-31 16-82 27-112z"/><path d="m14016 11318c-8-13-36-77-62-143-35-90-48-138-52-191-4-68-3-72 18-79 30-9 41 5 50 62 5 27 29 104 54 172 47 126 55 168 34 189-17 17-26 15-42-10z"/><path d="m12770 11309c-90-36-145-121-157-242-5-61-4-65 25-98 28-31 35-34 84-34 40 1 66 8 100 28 85 49 158 159 158 235 0 41-30 90-65 106-37 18-107 20-145 5zm138-77c34-43-18-154-92-197-87-50-145-37-132 29 4 16 9 54 13 84 4 41 11 57 30 69 66 44 153 51 181 15z"/><path d="m7167 11263c-8-16-20-44-26-64-10-31-18-38-46-43-18-4-55-1-80 5-39 10-49 9-56-2-27-43 12-79 85-79h54l-5-81c-6-74-4-81 12-78 11 3 27 28 44 74 35 94 36 95 84 95 76 1 171 24 175 41 4 19-41 29-134 29h-62l6 65c4 61 3 65-16 65-13 0-27-11-35-27z"/><path d="m14404 11267c-117-56-186-214-120-276 88-83 346 69 346 204 0 13-13 39-29 57-24 27-36 32-87 35-47 3-69-1-110-20zm124-53c55-15 2-102-90-148-53-26-92-33-102-17-3 5 1 32 10 60 15 52 32 68 109 98 36 14 43 15 73 7z"/><path d="m11902 11152c-26-13-32-21-30-42 6-50 98-28 98 24 0 18-21 40-33 35-1 0-17-8-35-17z"/><path d="m4706 11025c-19-19-11-41 17-49 35-9 475-7 481 3 3 5 0 14-7 20-44 36-459 58-491 26z"/><path d="m17529 11029c-106-16-192-75-224-153-38-91 35-166 164-166 44 0 44 0 25-22-31-35-106-78-136-78-24 0-28 4-28 30 0 38-32 41-55 6-33-50 8-106 78-106 152 0 397 304 348 432-19 50-83 71-172 57zm101-84c9-11 8-24-4-63-27-79-35-86-113-90-71-4-143 15-143 38s30 68 57 85c63 41 179 59 203 30z"/><path d="m16644 11011c-91-42-166-152-182-267-11-79 0-123 37-156 27-24 40-28 89-28 100 0 174 55 233 176 50 101 42 212-20 268-30 28-106 31-157 7zm124-78c17-23 15-90-4-148-23-65-96-141-147-150-50-10-87 14-87 55 0 40 67 199 93 222 55 48 117 56 145 21z"/><path d="m15730 10892c-20-17-23-24-14-39 15-24 65-32 214-32 117-1 314 20 328 33 23 23-113 44-339 53-156 5-165 5-189-15z"/><path d="m9918 10869c-10-5-18-16-18-24 0-37 83-48 250-33 118 10 161 19 161 33 0 26-353 48-393 24z"/><path d="m4745 10842c-33-8-48-48-23-63 15-10 187-10 293 0 54 5 71 10 73 23 2 9-5 21-15 26-22 12-287 23-328 14z"/><path d="m11287 10799c-93-6-118-17-93-38 19-16 271-28 731-36 193-3 395-8 450-10s404-7 775-11c545-5 754-3 1085 10 226 9 477 17 558 19 141 2 148 3 145 22-2 11-19 28-38 38-32 17-55 18-250 13-118-4-327-11-465-17-239-11-1878-6-2330 6-324 10-479 11-568 4z"/><path d="m5642 10770c-39-6-45-22-11-32 13-4 184-13 379-20 396-15 3374-19 3423-5 19 5 27 13 25 25-3 14-19 18-88 24-98 8-3678 16-3728 8z"/><path d="m15722 10668c-19-19-14-36 15-55 24-16 51-18 203-18 208 1 273 9 268 33-3 14-24 19-118 28-215 21-355 25-368 12z"/><path d="m9941 10646c-19-22 2-52 46-67 76-25 300-4 311 29 2 8-13 12-50 12-50 0-217 22-271 35-15 4-28 1-36-9z"/><path d="m16997 10573c-4-3-7-21-7-40 0-43-33-113-76-160-67-73-18-114 56-47 72 65 110 161 86 219-14 33-42 46-59 28z"/><path d="m11646 10434c-9-8-16-21-16-27 0-7-16-45-35-86-41-85-43-114-13-135 29-20 112-21 168-1 39 14 42 14 35-3-45-117-51-164-21-175 26-10 42 17 92 148 36 97 49 144 49 185 0 48-2 55-20 55-14 0-25-15-43-62-14-34-32-65-41-68-9-4-47-9-84-12l-69-6 25 49c33 67 39 106 21 133-18 25-27 26-48 5z"/><path d="m14605 10428c-2-7-29-84-60-170-31-87-55-165-53-174s11-22 20-28c27-17 42 6 94 144 56 149 65 233 26 238-12 2-24-3-27-10z"/><path d="m13528 10403c-9-10-24-43-33-73l-17-56-107-2c-110-3-156-18-145-46 9-24 61-36 150-36h83l-2-76c-2-64 1-78 16-88 26-16 44 12 52 83 4 31 10 63 14 69 4 7 29 15 57 18 47 6 124 40 124 55 0 4-36 10-81 14l-80 7 7 42c13 68 11 100-7 104-8 1-22-5-31-15z"/><path d="m12540 10397c-17-8-25-21-25-37 0-24 2-25 63-22 83 5 82-9-13-93-78-70-91-98-59-129 23-24 99-20 169 9 74 31 75 31 75-1s50-84 82-85c70-3 106 11 154 63 49 51 74 106 74 161 0 40-5 54-29 78-38 38-94 39-171 3-62-29-95-56-116-96-14-27-50-48-109-62-30-7-30-7 14 35 57 55 76 100 59 137-7 14-24 32-38 39-32 16-98 16-130 0zm443-145c-2-44-46-106-90-127-63-30-78-2-47 88 19 55 51 78 104 74 33-2 35-4 33-35z"/><path d="m14965 10399c-63-18-138-73-164-120-24-43-24-49-12-90 23-77 29-88 62-105 86-44 247 29 320 145 46 71 37 136-21 166-32 16-135 19-185 4zm150-72c67-49-122-207-219-183-24 6-26 10-26 61 0 49 3 56 33 78 64 49 173 71 212 44z"/><path d="m9077 10369c-34-20-62-103-87-256l-12-73h-48c-33 0-55-6-71-20l-24-20 24-20c14-13 38-20 62-20 21 0 39-1 39-3 0-1-15-79-34-172-52-256-52-259-26-285 19-19 24-20 43-7 18 12 25 34 39 131 10 64 28 167 40 228l23 112 38 9c47 11 52 42 7 52-19 4-30 13-30 23 1 36 49 255 58 264 14 14 41-30 50-83 5-30 13-45 25-47 14-3 17 5 17 48 0 105-68 177-133 139z"/><path d="m13915 10370c-29-11-48-37-41-55 4-11 22-15 73-15 37 0 75-5 83-10 18-12 17-12-70-62-103-59-127-100-75-134 22-14 45-16 154-12 126 5 171 16 171 41 0 29-25 37-114 37h-90l46 29c52 33 68 56 68 99 0 66-124 116-205 82z"/><path d="m5987 10348c-37-57-138-290-139-318-2-47 23-65 86-64l54 2-19-56c-30-88-5-161 35-99 19 28 111 289 120 340 6 30 4 39-10 44-23 9-58-34-81-97-15-43-22-51-49-56-68-13-68-8-7 121 60 128 74 196 41 203-9 2-23-7-31-20z"/><path d="m8491 10338c-11-11-41-71-67-132-25-61-57-135-70-165-27-59-31-108-11-135 15-20 112-35 233-36 66 0 73 2 89 26 20 31 20 33-29 252-20 90-44 175-53 188-20 31-65 32-92 2zm43-135c3-27 17-92 30-145l23-98h-52c-29 0-73 3-98 6l-45 6 43 102c54 130 77 176 86 176 3 0 9-21 13-47z"/><path d="m7870 10334c-51-22-80-53-80-85 0-42 18-45 54-10 29 29 93 57 104 46 9-8-8-52-35-92-40-58-78-98-166-177-84-75-92-95-47-127 33-23 299-46 311-27 24 38-49 79-148 86l-73 5 85 89c127 134 173 240 125 288-24 24-80 26-130 4z"/><path d="m6465 10301c-111-7-137-17-161-63-21-40-84-292-84-334 0-35 20-57 42-49 9 4 28 37 43 76l27 69 96 1c133 0 177 9 177 34s-31 32-154 34c-85 1-92 3-86 19 4 9 15 42 25 72l18 55 98 2c99 2 144 15 144 40 0 22-38 53-62 51-13-1-68-4-123-7z"/><path d="m14313 10266c-23-21-26-28-17-43 14-22 59-21 85 3 23 21 24 28 3 48-21 22-38 20-71-8z"/><path d="m12196 10245c-20-21-10-45 19-45 15 0 26 8 30 20 12 38-19 54-49 25z"/><path d="m7229 10213c0-4-8-44-17-88l-17-80-99-5c-58-3-101-10-103-16-8-25 37-47 107-52l70-5v-38c0-48 16-92 33-86 6 2 13 12 15 23 1 10 7 38 13 61 11 39 13 41 58 48 56 8 111 30 111 44 0 13-8 14-82 11l-57-2 10 36c6 20 9 62 7 94-3 50-6 57-25 60-13 2-23 0-24-5z"/><path d="m10200 9281c0-10 11-43 25-72 43-96 59-175 58-299 0-236-80-393-248-491-97-57-70-107 31-58 97 46 200 167 243 286 70 191 45 502-49 616-34 40-60 48-60 18z"/><path d="m8742 9263c-94-73-229-311-278-488-45-165-14-333 72-386 34-20 128-27 139-9 4 6-7 10-25 10-53 0-95 24-116 66-15 31-19 60-19 144 1 92 5 117 32 197 43 122 108 251 188 367 36 53 65 100 65 105 0 20-29 18-58-6z"/><path d="m3926 9007c-15-28-48-82-73-120l-45-67-28 20c-103 74-279 63-357-21-73-79-68-219 9-260 35-19 109-13 169 14 55 24 148 89 162 114 13 22 31 15 51-19 34-56 87-107 122-117 38-10 93 1 105 21 9 15-8 38-28 38-24 0-60 29-89 73-15 23-39 54-52 69l-24 26 25 34c58 75 107 173 107 210 0 53-19 48-54-15zm-253-211c18-8 41-21 52-30 20-16 19-17-27-60-90-83-214-123-249-80-20 25-17 89 7 121 42 58 143 81 217 49z"/><path d="m9802 9040c-95-43-172-126-172-187 0-87 64-132 188-133h74l-20-32c-42-69-138-87-205-38l-30 23-19-23c-24-29-23-36 8-65s112-49 161-40c112 21 170 92 213 261 32 123 25 190-21 233-30 28-117 28-177 1zm136-110c4-48-14-131-29-141-13-7-126 8-161 22-19 8-28 19-28 34 0 55 112 137 180 132 34-2 35-3 38-47z"/><path d="m5758 8970c-79-24-203-146-259-256-65-129-41-209 64-209 61 0 101 17 186 80 61 45 62 45 70 23 5-13 21-34 36-48 23-21 36-25 93-25 75 0 143 27 226 91l46 35-6-54c-5-42-3-57 11-70 36-36 61-16 112 93 43 93 87 139 160 171 57 24 119 34 127 21 3-6-7-32-24-59-41-66-49-129-20-166 33-42 74-58 146-58 69 0 155 23 174 46 10 13 15 11 32-10 83-106 335-94 444 20l31 33 17-38c31-71 120-85 240-38 101 39 166 101 166 160 1 20 2 21 11 5 15-25 72-52 167-77 45-12 82-26 82-31 0-9-151-59-180-59-19 0-50-25-50-40 0-5 8-16 17-25 47-48 323 59 323 126 0 36-40 68-113 89-131 38-167 51-167 61 0 16 88 51 134 53 33 2 41 6 41 21 0 23-38 45-77 45-72 0-188-70-188-114 0-18-3-16-15 8-54 104-212 135-333 65-68-39-95-80-88-135 7-52-16-76-100-105-113-40-285-12-301 49-15 61 75 150 161 159 39 5 46 3 46-11 0-12 7-16 23-14 35 5 37 61 3 84-55 35-159 15-236-46-50-39-95-128-87-173 5-30 3-32-27-37-64-9-172-3-201 11-25 12-30 20-29 47 2 43 58 128 107 163 22 16 44 29 49 29s14-13 19-30c17-48 39-32 39 29 0 63-68 79-141 33-41-26-47-28-66-15-26 18-113 20-170 4-23-6-64-27-92-45-45-31-51-32-56-16-7 21-29 32-49 24-7-3-28-28-46-55-78-121-274-220-334-170-21 17-21 77 0 116 35 68 22 163-31 213-36 33-63 38-117 22zm97-83c8-13 17-37 21-54 5-25 2-31-14-35-11-3-29-23-40-44-46-88-184-190-249-182-22 2-29 9-31 30-7 57 101 214 191 279 50 37 100 39 122 6zm1855-107c30-16 53-56 45-80-20-64-238-130-257-78-5 11 11 137 18 146 1 2 20 10 41 18 41 15 119 12 153-6z"/><path d="m9085 8958c-22-11-56-29-76-39-49-25-95-113-110-211-11-65-10-78 5-110 42-88 163-69 282 43 108 103 148 247 85 310-26 26-36 29-88 29-39-1-71-8-98-22zm129-48c81-30-34-238-158-285-87-33-108-9-83 98 10 41 24 83 32 94 19 27 86 72 132 89 47 16 46 16 77 4z"/><path d="m4631 8850c-53-13-63-51-18-67 51-17 452 9 474 31 20 20-388 52-456 36z"/><path d="m4648 8684c-25-8-32-37-11-52 14-11 54-13 203-9 102 3 193 9 203 12 29 12 19 32-20 39-50 8-353 17-375 10z"/><path d="m9332 8668c-6-7-17-40-26-73-25-95-51-157-85-197-39-46-40-68-4-68 43 0 125 91 151 170 24 69 28 130 12 161-12 22-33 25-48 7z"/><path d="m12393 7935c-39-17-153-152-153-182 0-41 42-33 93 15l37 36v-224-225l-25-1c-14-1-60-24-103-52-42-27-125-74-184-105-58-30-270-156-470-279-350-216-488-298-501-298-4 0-18 18-32 40-26 42-45 49-63 27-9-10-5-25 13-59 27-52 24-58-44-93-40-20-232-159-303-218-26-22-83-65-126-96-206-146-343-240-403-278l-67-42-60 14c-33 8-91 16-129 17-62 3-68 1-71-18-5-32 21-45 102-51 42-3 76-9 76-12-1-10-257-168-496-306-284-165-540-322-739-455-88-58-275-180-415-270-358-229-533-346-584-391-55-48-74-50-78-6-5 50-34 41-52-15-5-17-125-18-2345-18-2151 0-2339-1-2345-16-18-46-128-44 2348-44h2331l1-44c2-55 12-96 23-96 9 0 31 85 31 120 0 20 16 20 1160 20h1160v-67c0-72 13-109 29-85 4 7 14 45 20 83l13 69h659c362 0 659-2 659-4s-30-14-66-27c-88-31-194-123-121-106 81 20 244 89 262 112l21 25h457 457v-1740c0-1344-3-1740-12-1740-23 0-85 51-117 95-34 48-51 55-72 29-11-14-8-26 20-80 43-83 89-124 139-123 51 1 83 23 138 97 26 35 58 68 71 73 35 13 28 53-10 57-22 3-36-5-63-33l-34-36v1380 1380l66-50c82-62 154-99 193-99s48 16 19 33c-88 53-167 106-196 131-26 22-30 31-21 42 10 12 14 11 24-3 12-16 15-16 32-2 14 12 35 14 102 9l85-5 55-92c31-51 64-100 74-110 16-16 18-16 33-1 18 17 15 25-64 158l-21 35 1687 1c928 0 1836 4 2017 8l330 8-32-30c-18-17-33-36-33-42 0-25 32-20 72 13 24 19 69 49 101 67 48 27 57 36 57 60 0 57-25 80-108 98-80 18-82-22-4-66 48-27 52-37 20-47-62-19-917-29-2459-30-1601 0-1668 1-1687 18-18 16-23 17-44 5-16-9-42-12-82-8l-60 5 38 33c20 17 48 32 61 32 40 0 31 35-43 155-49 80-73 110-87 110-35 0-28-34 24-122 59-98 60-95-33-149-34-20-73-47-88-62l-28-26v237c0 130 2 237 5 237 2 0 12-14 20-31 12-22 22-29 38-27 32 5 32 30-2 86-17 27-31 52-31 56 0 3 506 6 1124 6h1123l6-41c3-23 14-51 25-62 20-19 20-19 27 42l7 61h1099c1099 0 1099 0 1099-21 0-35 50-75 103-82 42-6 55-3 94 19 24 15 54 40 66 55l21 29h698 698v-24c0-39 46-76 95-76 44 0 67 18 95 72l13 28 1801 2 1801 3v25 25l-1799 3-1798 2-30 25c-40 34-99 34-140 0-32-27-82-33-95-11-4 7-66 30-137 50-111 31-132 35-144 23-21-22 4-39 89-62l74-20-603-3-603-2-34 36c-33 35-34 35-97 28-35-4-75-13-90-20-26-13-35-8-380 234-194 136-413 287-486 336-75 51-127 93-121 97 6 3 9 14 7 24-2 13-26 25-79 40-92 28-92 27-304 166-93 60-210 136-260 167-49 31-281 182-515 334-374 244-725 468-880 564-43 27-48 33-35 44 26 21 17 54-31 116-58 74-75 106-89 169-10 43-15 50-36 50-23 0-24-2-23-65 1-39 12-94 26-137 14-40 24-73 23-73-2 0-108 66-236 146-503 314-638 395-850 509-116 63-292 149-326 159-23 7-23 7-23 284v276l39-81c22-44 50-88 62-97 29-20 85-21 92-2 6 16-11 36-30 36-20 0-70 75-89 133-28 86-48 100-111 72zm-26-1641c-1-1-33 6-71 16-72 20-89 19-84-8 2-11 28-23 78-37l75-20 3-257 2-257-47 21c-39 17-60 20-132 16-93-6-244-51-311-93-48-30-95-85-111-129-7-20-16-36-19-36s-27 37-54 83c-78 131-93 149-117 136-25-13-24-17 52-146 69-116 82-131 103-114 16 13 25-12 26-69 1-48 126-255 155-255 11 0 21 8 23 18 3 17-106 213-134 242-10 10-10 23 0 66 7 30 20 69 30 87 31 60 147 117 299 149 90 18 96 18 200-19l37-13v-611c0-535-2-613-15-618-8-3-15-17-15-31v-25h-465-464l-58 29c-32 16-94 46-138 66s-87 43-97 52c-25 22-50 9-46-24 3-24 16-34 98-75l95-47h-609l-609-1 7 39c4 28 2 40-8 44-24 9-56-22-56-54v-29h-1116c-733 0-1113 3-1109 10 8 13 484 327 543 359 18 10 29 6 74-23 110-71 152-137 153-240 0-77 13-93 42-50 26 41 22 118-9 179-28 54-105 133-156 159-18 9-32 18-32 20 0 3 17 15 38 27 20 13 109 70 197 128 88 57 214 140 280 183 127 82 442 273 585 353 106 60 338 201 448 272 118 77 125 76 54-3-76-83-94-115-90-156 4-43 23-46 42-6 9 18 50 71 92 118 88 98 98 114 90 144-4 17 4 27 42 50 48 30 269 184 402 280l75 54 51-100c64-124 104-168 153-168 42 0 73 18 201 115 52 40 114 85 138 100 45 30 51 42 26 52-23 8-66-15-169-92-188-141-194-143-237-97-21 21-128 205-128 218 0 2 60 47 133 102 115 86 233 162 250 162 3 0 20-25 37-55 21-37 38-55 51-55 31 0 34 28 9 72-20 36-21 40-6 35 42-16 237-60 242-54 21 20-13 36-119 56-62 11-123 21-134 21-12 0-23 6-26 14-4 10 17 28 71 57 80 43 253 149 572 347 102 63 244 145 315 182 72 37 168 92 215 122l85 55 3-520c1-286 1-521-1-523zm161 950c185-98 242-130 392-217 219-127 890-547 890-557 0-4-15-11-34-14-43-8-86-42-86-67 0-29 23-32 68-9 22 11 64 25 93 30l54 8 200-126c110-69 349-222 530-340 182-119 470-305 640-415 403-259 435-280 432-284-2-1-61 15-133 37-113 34-131 37-144 25-11-12-11-18-2-27 15-15 263-89 274-82 4 3 8 14 8 25 0 24 2 24 42-1 18-11 33-28 33-37 0-13 15-23 51-34 49-16 245-143 569-368 72-50 153-106 180-125 28-19 88-62 135-95s122-86 168-117c45-31 82-59 82-61 0-1-492-3-1094-3h-1095l-3 22c-4 33-36 35-48 4l-10-26h-1145-1145v918 919l30-5c25-4 30-1 30 16 0 13-10 24-30 31l-30 10v505c0 279 2 506 5 506s45-21 93-46z"/><path d="m11482 6473c2-14 30-24 118-45 135-31 160-33 160-14 0 21-7 24-141 51-145 30-141 30-137 8z"/><path d="m11845 6400c-4-6-3-15 1-20 13-12 264-71 275-64 21 12 7 34-28 43-184 49-238 58-248 41z"/><path d="m11187 6374c-15-15-4-42 60-151 55-91 72-113 90-113 38 0 28 37-45 155-62 101-87 127-105 109z"/><path d="m11922 6313c-5-10-22-71-38-135l-28-117-40 30c-62 45-102 36-136-31-59-115-14-248 75-226 32 8 93 70 101 103 6 21 7 21 51-13 24-19 56-37 69-40 55-14 124 19 124 58 0 21-11 22-56 6-40-14-78 0-123 46l-31 32 24 110c32 145 38 194 26 194-5 0-13-8-18-17zm-120-292 33-30-20-37c-27-50-70-83-88-65-14 14-13 94 2 134 14 35 33 34 73-2z"/><path d="m11382 6048c-7-7-12-16-12-21 0-13 127-222 143-235 10-9 18-8 32 2 18 13 17 18-29 97-63 109-98 162-111 166-6 2-16-2-23-9z"/><path d="m11957 5083c-4-3-7-12-7-19 0-19 132-235 148-241 7-3 20 1 29 10 14 13 8 27-57 136-68 114-91 137-113 114z"/><path d="m9135 5031c-3-6-23-66-46-135-38-121-51-140-76-115-18 18-93 13-122-8-68-50-96-189-46-238 13-14 34-25 47-25 38 0 87 37 120 90l31 51 31-30c55-53 147-77 197-51 30 17 24 40-11 40-49 0-137 39-163 72l-24 30 29 76c29 73 68 211 68 239 0 15-26 18-35 4zm-135-316c16-19-1-61-44-112-51-61-94-42-81 37 12 73 89 118 125 75z"/><path d="m12144 4755c-4-9 23-65 65-135 53-89 77-120 92-120 39 0 31 31-40 150-53 89-77 120-92 120-11 0-22-7-25-15z"/><path d="m12573 6214c-3-8-2-19 3-23 18-17 258-81 267-72 22 22-8 39-126 74-69 20-128 37-131 37-4 0-9-7-13-16z"/><path d="m12932 6099c2-18 23-28 113-57 131-42 160-45 160-18 0 16-22 26-120 57-141 45-158 47-153 18z"/><path d="m13610 6051c0-10 17-30 39-46 44-30 156-143 149-150-3-3-32 5-66 16-35 12-69 18-77 15-28-11-15-35 25-47 45-14 44-29-3-29-66-1-167-69-167-112 0-24 9-23 40 7 35 34 153 59 232 50 68-7 138 9 138 31 0 24-36 71-124 162-102 106-186 152-186 103z"/><path d="m13287 5997c-10-25 7-34 135-75 105-33 129-37 139-26 6 7 8 18 4 23-5 9-245 91-265 91-4 0-10-6-13-13z"/><path d="m14007 5774c-4-4-7-15-7-25 0-14 27-27 131-59 129-41 160-42 147-8-3 7-59 30-124 52-66 21-124 41-130 43-5 2-13 0-17-3z"/><path d="m14353 5644c-9-23 2-29 128-68s144-42 155-25c12 20-19 36-138 73-132 41-136 42-145 20z"/><path d="m14714 5535c-3-8-3-19 0-24 4-5 64-28 133-51 110-35 129-38 141-26 8 8 12 19 8 24-5 8-251 92-270 92-4 0-9-7-12-15z"/><path d="m15082 5432c-7-2-12-12-12-22 0-16 21-26 113-54 145-46 161-47 165-18 2 12 1 22-1 22-3 0-61 17-129 38s-129 37-136 34z"/><path d="m15683 5013c-28-6-69-47-77-79-4-13-1-44 5-67 11-42 35-70 162-186 27-24 47-51 45-60-5-27-57-43-151-49-74-4-89-2-85 9 3 8 18 16 33 19 37 6 38 22 2 34-22 8-35 6-62-8-42-23-52-49-31-81 20-30 67-40 155-31 94 9 140 24 173 56 50 50 41 73-71 180-54 52-104 105-110 117-27 55-2 93 62 93 37 0 47-6 95-56 59-61 89-67 71-15-16 45-79 105-125 119-42 12-51 13-91 5z"/><path d="m15987 4659c-13-8-17-18-12-38 3-15 1-49-5-76-9-40-8-51 4-63 26-26 43-6 60 67 20 86 20 86 0 105-18 19-23 19-47 5z"/><path d="m10512 7427c-11-13-7-351 4-369 8-12 30-10 42 5 6 6 14 72 18 145 4 72 11 132 15 132 5 0 9-9 9-20 0-10 31-70 68-132 49-81 74-113 88-113 36 0 27 40-31 135-50 82-53 92-33 86 52-15 139-28 153-22 41 15-6 51-95 72-63 15-128 44-169 75-28 22-54 24-69 6z"/><path d="m10794 7005c-9-23 132-255 155-255 40 0 32 33-39 152-53 87-76 118-91 118-11 0-22-7-25-15z"/><path d="m8927 6693c-11-11-8-115 7-235 15-117 22-183 32-303l5-70-26 37c-67 97-181 92-246-10-73-115-99-316-51-394 31-50 95-75 147-58 46 15 104 72 156 153 23 36 49 64 62 67 20 5 22 12 23 80 2 146-59 694-81 730-7 12-19 13-28 3zm-43-597c17-18 41-59 54-90l22-58-47-80c-61-101-110-148-158-148-43 0-63 27-71 96-10 85 35 233 89 292 31 33 73 29 111-12z"/><path d="m9248 6130c-56-37-79-83-54-108 16-16 18-15 42 16 22 28 71 62 89 62 13 0 2-53-32-151-34-97-36-109-24-133 12-22 21-26 56-26 34 0 58 11 131 59 84 55 114 89 114 126 0 26-17 24-51-6-45-40-178-123-186-116-3 4 11 56 31 116 42 126 43 144 16 171-29 29-78 26-132-10z"/><path d="m18885 5345c-77-27-115-95-115-206 0-152 71-221 259-249 131-20 155-59 98-163-24-44-48-61-107-77-52-14-175 3-184 26-3 8-19 14-41 14-30 0-35-3-35-24 0-13 6-29 13-35 50-41 220-57 293-26 98 41 168 173 135 257-16 41-53 60-164 80-179 34-212 66-212 205 0 95 17 129 78 152 73 28 144-7 153-74 9-71 14-85 28-85 8 0 17 15 20 35 16 82-25 153-100 174-50 14-70 13-119-4z"/><path d="m7325 5290c-132-32-215-134-186-229 15-52 65-98 164-154 89-49 120-76 136-120 16-43 0-64-55-73-56-8-150 1-169 16-8 6-29 10-47 8-25-2-34-8-36-24-5-33 20-44 122-56 117-14 195-1 226 39 39 50 18 143-43 194-12 10-59 39-105 65-105 59-142 95-142 138 0 71 91 147 179 148 55 1 72-15 69-65-4-53 18-60 38-12 38 91-38 154-151 125z"/><path d="m16146 5101c-16-25 13-40 135-75 128-37 149-38 149-11 0 20-19 28-145 64-121 34-131 35-139 22z"/><path d="m16510 4995c-20-24-3-34 122-71 136-41 161-43 156-12-3 19-21 27-133 60-71 20-131 38-131 38-1 0-7-7-14-15z"/><path d="m16866 4891c-15-24 14-40 135-74 72-21 134-35 140-32 5 4 9 14 9 24 0 14-26 25-124 54-131 39-151 43-160 28z"/><path d="m17230 4785c-20-24-5-32 121-70 138-42 162-44 157-13-3 19-20 27-133 60-71 21-131 38-131 38-1 0-7-7-14-15z"/><path d="m19280 4723c-55-38-47-57 21-48 40 6 50 4 55-9 12-31-18-77-75-114-63-42-77-75-39-92 31-13 202-50 234-50 21 0 25 4 22 22-2 19-17 27-86 48l-83 25 31 30c18 17 39 43 47 59 20 39 11 105-17 128s-78 23-110 1z"/><path d="m17584 4679c-3-6 0-17 7-24 17-17 258-87 270-79 16 9 10 42-8 48-244 71-257 73-269 55z"/><path d="m17952 4577c-6-7-8-18-4-24 9-15 259-86 272-78 5 3 10 14 10 24 0 12-16 22-57 34-32 9-90 25-129 37-84 24-79 23-92 7z"/><path d="m18910 3980c0-10 18-48 39-82 82-130 194-299 203-304 12-8-35 96-94 206-89 166-148 238-148 180z"/><path d="m17310 3981c-14-5-39-15-57-24-17-9-38-14-46-11-17 6-31-11-21-27 3-6 7-30 8-55 3-73 69-121 156-112 52 5 47 31-8 39-50 6-96 37-100 68-3 19-1 20 25 10 44-17 362-26 910-25l502 1-22-35c-11-19-29-46-39-59-23-30-23-53-1-49s112 115 120 147c14 55-31 102-107 115-72 13-80-35-10-59 58-19 13-25-203-25-271 0-1021 20-1077 29l-45 8 43 13c46 14 67 33 57 50-7 11-48 12-85 1z"/><path d="m8000 3923c-27-10-180-115-180-124 0-5-10-9-22-9-13 0-30-5-38-10-13-9-13-11 0-20 8-5 22-10 30-10s20-10 25-22c10-24 181-116 192-104 10 9-46 63-94 92-24 14-43 27-43 30 0 8 2551 0 2685-8 66-4 415-8 775-8 539 0 667 3 725 15 38 8 71 15 73 15 10 0-36-67-73-107-57-60-46-79 22-37 27 17 63 51 81 79 29 43 33 56 30 97-6 62-30 96-84 120-52 22-87 21-92-5-5-24 13-44 61-69 50-25 40-33-67-48-60-9-267-11-806-5-399 3-1308 6-2020 6h-1295l77 39c74 38 106 69 93 90-7 11-31 12-55 3z"/><path d="m18130 3683c-32-33-39-48-49-108-6-38-13-104-15-145-3-41-5-78-5-82-1-4-25-4-55-1-46 5-55 3-68-16-15-21-16-19-46 41-17 35-43 101-58 147s-36 93-46 103c-17 17-22 18-41 5-46-30-135-307-114-354 14-30 62-43 167-43 98 0 130 14 130 57 0 24 1 25 13 10 7-11 32-20 65-24l52-6v-42c0-23-9-96-21-160-24-142-23-179 8-183 14-2 23 3 27 15 10 36 46 292 46 333v41l56-3c46-2 58 0 68 15 16 26-16 47-72 47h-45l5 141c5 120 8 145 25 167 15 20 29 27 54 27 42 0 73-42 90-123 14-66 24-81 41-64 9 9 9 26-1 75-23 113-69 167-142 167-23 0-41-10-69-37zm-297-331c15-30 27-56 27-58 0-6-68-5-137 2l-60 7 18 71c10 39 30 100 45 135l28 64 26-84c14-46 38-108 53-137z"/><path d="m14653 3560c-12-5-29-19-37-32-15-24-54-162-76-275l-13-63h-53c-65 0-84-7-84-30 0-22 19-30 76-30 29 0 44-4 44-12 0-7-16-82-35-167-40-175-41-193-19-212 25-21 47 1 51 52 2 24 18 109 36 189l32 145 50 3c75 4 95 10 95 31 0 19-39 31-102 31-16 0-28 4-28 9 0 14 49 221 61 259 18 55 29 25 29-77 0-68 4-103 14-117 14-19 15-19 23 1 4 11 8 73 8 137 0 112-1 119-25 142-19 19-30 22-47 16z"/><path d="m12917 3466c-6-14 100-205 132-239 20-21 51-13 51 12 0 9-31 66-68 126-47 77-74 111-88 113-12 2-24-4-27-12z"/><path d="m19287 3404c-9-9 16-65 52-118 17-25 31-47 31-49 0-3-12-1-27 3-77 25-202 51-224 48-13-1-25-11-27-20-5-25 39-49 103-55 30-3 57-9 59-12 3-3-41-30-97-60-130-68-322-182-562-334-193-122-251-160-545-352-306-200-523-340-980-630-606-385-927-598-1367-908-29-20-77-53-105-74-29-20-96-66-148-103-162-114-253-174-318-214-34-20-69-44-78-53-8-8-17-13-20-10-8 8 36 65 129 170 79 90 91 119 49 125-26 4-122-83-212-193-91-112-98-135-50-160 27-14 52-15 196-6 174 10 225 24 232 66 4 16-1 17-34 12-22-4-84-10-139-13l-100-6 40 22c66 37 301 195 755 511 318 220 694 468 1090 719 168 106 328 207 355 225 28 18 145 93 260 167 116 74 291 188 390 253 339 222 738 477 909 580 159 95 362 205 379 205 5 0-3-15-17-33-41-54-51-93-32-122 19-28 36-33 36-10s27 73 70 130c21 28 42 63 47 79l9 28 34-38 33-39-6 35c-7 35-133 231-153 237-5 2-13 1-17-3z"/><path d="m9012 3311c-32-44-64-119-119-274l-37-108-19 36c-34 68-112 96-204 75-43-9-66-22-104-59-43-41-49-52-49-88 0-84 66-120 197-108 40 3 87 10 103 15 27 8 30 6 30-15 0-27 26-40 46-24 8 6 14 20 14 30 0 11 11 29 24 40 20 17 22 25 14 38-11 18-10 23 67 236 18 50 49 123 69 163 20 39 36 74 36 77s-9 5-20 5c-12 0-32-16-48-39zm-279-322c43-11 77-56 77-100 0-31-10-35-121-45-100-9-149 6-149 44 1 42 34 75 97 98 47 16 49 16 96 3z"/><path d="m10810 3183c-148-14-169-29-199-140-11-43-36-125-56-182-39-116-43-146-20-155 24-9 51 26 69 88 28 96 35 111 48 98 26-26 300-4 330 26 5 5 2 15-7 22-12 10-47 10-167 3-84-5-154-8-156-7s1 19 7 41c33 129 29 122 69 132 20 5 73 12 118 16 91 7 196 35 202 53 3 9-23 12-100 10-56 0-119-3-138-5z"/><path d="m13117 3153c-15-15-3-43 61-148 49-80 73-110 87-110 37 0 27 36-41 151-64 106-86 128-107 107z"/><path d="m10031 3101c-23-15-3-29 52-36 66-9 96-21 125-47 46-44 24-70-134-165-104-61-135-92-127-124 10-35 47-42 212-35 151 7 192 15 236 49 27 21 8 42-26 29-25-10-339-26-339-18 0 3 39 28 86 56 100 61 160 115 169 153 17 67-87 147-189 147-28 0-57-4-65-9z"/><path d="m9490 3031c-25-4-51-10-57-14-21-13-15-36 11-43 29-7 344 20 354 31 3 2 2 11-1 20-5 12-27 15-134 14-70-1-148-5-173-8z"/><path d="m14766 2901c-16-29-66-246-66-282 0-25 27-36 46-18 15 16 64 241 64 295 0 43-24 45-44 5z"/><path d="m9457 2893c-10-3-17-12-15-21 7-38 328-19 328 19 0 9-278 11-313 2z"/><path d="m9103 2828c-12-35-33-94-47-132-18-51-22-75-15-88 12-22 54-25 46-3-3 8 12 62 34 120 41 108 46 157 19 163-11 2-22-16-37-60z"/><path d="m13307 2833c-4-3-7-12-7-19 0-19 132-235 148-241 7-3 20 1 29 10 14 13 8 27-57 136-68 114-91 137-113 114z"/><path d="m13500 2505c-10-13 0-35 59-135 53-89 77-120 92-120 11 0 22 7 25 15 8 19-132 255-150 255-8 0-19-7-26-15z"/><path d="m13697 2194c-16-16-4-48 60-154 54-90 70-110 87-108 11 2 22 10 24 19 4 22-130 243-149 247-8 1-18 0-22-4z"/><path d="m13893 1873c-7-2-13-12-13-21 0-21 130-240 147-246 7-3 19 2 28 10 17 18 15 22-84 183-46 75-55 84-78 74z"/><path d="m14204 1655c-4-8-1-50 5-93 6-42 16-117 21-167 6-49 13-98 16-108 4-11-29 6-93 48-54 36-103 70-109 75-7 5-27 12-46 15-62 12-79-43-21-67 84-34 136-64 213-123 88-67 109-75 129-51 9 11 9 28-3 73-9 32-22 119-31 193-24 203-27 214-53 218-13 2-25-3-28-13z"/><path d="m17510 1585c-19-22-7-79 33-165 46-98 91-211 133-334 33-97 33-115 2-116-4 0-15-11-24-26-25-37-5-53 40-32l34 17 33-102c67-210 103-287 136-287 27 0 25 31-7 107-36 87-100 275-100 295 0 7 24 25 53 40 64 34 112 77 100 89-6 6-44-4-94-25l-84-33-28 81c-44 127-107 285-144 358-58 118-41 117 38-2 48-74 70-93 83-72 8 13-64 131-110 179-42 45-73 54-94 28z"/><path d="m14084 1546c-19-14-18-16 6-61 14-26 37-61 51-78 23-27 29-30 43-18 22 18 21 21-20 90-46 77-55 85-80 67z"/><path d="m14344 1126c-3-7 5-29 18-49 13-19 47-74 76-121 48-78 82-108 82-73 0 18-65 153-102 210-30 47-63 62-74 33z"/><path d="m18083 1009c-41-20-61-48-48-69 9-15 31-12 67 10 18 11 45 20 61 20 36 0 35-19-3-115-16-42-30-89-30-105 0-32 30-60 66-60 24 0 239 103 267 127 20 19 23 49 5 55-7 3-71-24-141-60-70-35-130-62-133-59s8 42 25 86c36 94 39 143 11 171-27 27-92 26-147-1z"/><path d="m14670 663c0-20 34-79 112-195 54-82 78-105 78-76 0 17-106 214-136 254-28 36-54 45-54 17z"/></g><g fill="#44b" transform="matrix(.054411653 0 0 -.054411653 1968.92883453537 2779.38652691264)"><path d="m750 2973c-57-10-88-25-119-57-40-41-55-100-46-179 6-45 12-61 32-77 32-25 35-25 64-1 22 17 24 26 21 89-4 105 24 120 164 87 33-7 119-19 190-25 88-8 134-16 144-26 32-32 8-420-28-456-18-18-126-28-289-28-185 0-206-4-250-52-55-58-58-82-55-363 1-145 7-274 13-293 11-34 51-62 89-62 12 0 35 14 52 31l31 30-6 238c-3 130-3 249 0 264l5 27h112c234 1 363 26 423 82 58 54 98 260 91 463-4 122-7 138-34 191-40 81-79 100-217 108-174 10-361 14-387 9z"/><path d="m3660 2971c-42-9-83-34-103-65-39-59-50-127-54-343-5-206-5-212 18-252 28-50 78-86 143-102 48-12 257-8 370 7l49 7-7-104c-4-57-11-189-16-294-9-177-9-192 8-214 35-47 100-46 136 2 22 29 27 86 42 452 7 191 0 235-44 283-45 48-92 56-241 38-146-18-229-20-265-6l-26 10v162c0 156 8 230 27 249 5 5 99 6 210 2l201-6 5-50c3-39 11-56 31-74 34-29 48-29 80 0 24 20 26 30 28 113 4 147-23 169-218 179-242 11-340 13-374 6z"/><path d="m1565 2945c-14-13-25-32-25-42s-1-297-3-638c-2-677-3-662 55-694 33-19 73-7 101 31 18 24 20 51 29 300 5 150 10 278 12 283 2 6 37 8 97 3 52-3 135-7 186-7 154-2 161-10 143-176-21-189-27-310-18-343 12-45 45-72 86-72 71 0 102 46 102 151 0 33 7 118 16 187 24 190 9 280-58 349-50 52-112 67-263 65-71-1-164-6-205-11-41-4-78-7-81-5-4 2-10 108-13 236-9 286-17 352-47 384-31 33-82 32-114-1z"/><path d="m2542 2944c-55-38-64-109-53-419 6-186 9-215 28-250 50-95 116-125 302-135 75-4 171-5 215-1l78 7-4-178c-2-97-7-181-11-184-4-4-42 1-85 11-104 26-285 27-363 3-106-33-149-107-99-170 26-34 68-41 132-21 74 23 202 20 308-7 182-47 274 5 301 168 12 77 27 831 19 994-7 152-20 181-86 186-88 7-103-51-104-401v-219l-201 4c-197 3-201 3-220 27-18 21-19 42-19 283v260l-29 29c-33 33-74 38-109 13z"/><path d="m2374 1391c-55-34-79-78-79-147 0-51 4-66 27-96 35-45 102-73 153-64 78 15 146 111 131 188-20 108-145 172-232 119z"/><path d="m1853 999c-39-11-66-56-61-101 6-59 69-64 76-6 4 30 34 38 145 38h67v-110c0-135-1-136-132-126-85 6-89 6-113-18-24-25-25-28-25-179 0-162 4-177 47-177 35 0 43 29 43 159v121h73c85 0 141 14 168 41 17 17 19 34 19 169 0 147-1 152-25 175-23 24-30 25-137 24-62 0-128-5-145-10z"/><path d="m2985 1000c-91-16-93-18-104-58-15-51-14-537 0-564 19-36 69-48 204-48 121 0 127 1 151 25l24 24-2 292-3 292-26 19c-31 23-161 33-244 18zm169-86c14-5 16-37 16-250v-245l-102 3-103 3v240 240l40 6c57 9 131 10 149 3z"/><path d="m2351 971c-24-24-29-73-37-372-6-232-6-237 15-258 23-23 29-25 51-11 12 7 16 40 20 150l5 141 35-23c19-13 59-55 88-93 30-39 78-96 108-128 47-51 56-57 74-47 29 16 25 42-15 92-19 24-62 78-95 121-61 77-61 77-33 77 15 0 46 9 69 19 56 26 67 57 62 179-6 156-27 172-220 172-93 0-111-3-127-19zm257-74c16-13 17-168 0-185-7-7-41-12-84-12-40 0-84-4-98-10l-26-10v120 119l98-6c53-3 103-10 110-16z"/></g></svg>