<svg height="1359.763477pt" preserveAspectRatio="xMidYMid meet" viewBox="0 0 1509.498034 1359.763477" width="1509.498034pt" xmlns="http://www.w3.org/2000/svg"><g transform="matrix(.1 0 0 -.1 -56.190155 2973.824702)"><path d="m2432 29724c-134-36-182-102-124-168 9-10 52-34 95-54 53-24 77-40 77-52 0-22-63-64-120-81-38-12-44-11-55 5-19 26-49 16-53-16-2-20 4-31 23-44 24-15 34-16 81-6 71 15 160 72 181 118 26 53 7 80-94 129-46 21-85 45-88 53-8 23 77 52 220 75 130 21 157 33 104 48-43 12-192 8-247-7z"/><path d="m1247 29693c-8-10-28-47-43-83s-31-70-36-76c-5-7-38-17-74-24-63-12-116-41-102-55 4-4 27-2 52 4 59 14 99 14 94-1-2-6-20-17-39-23-42-15-52-45-15-45 21 0 26-5 26-25 0-43 29-43 65-2 19 22 45 39 63 43l31 6-14-53c-20-73-19-101 1-97 10 2 25 31 41 79l25 77 62 11c110 21 116 22 116 31 0 5-37 10-82 12-73 3-80 5-66 18 8 9 49 24 92 34 91 21 102 40 19 31-32-4-66-9-75-11-20-6-23 8-9 34 4 9 11 29 15 45 5 23 3 27-14 27-16 0-27-14-45-54-21-48-29-56-59-61-19-4-39-5-45-4-5 2 5 39 25 83 18 44 34 83 34 88 0 14-26 9-43-9zm41-215c-4-13-88-30-98-21-3 3 4 11 14 19 25 18 89 19 84 2z"/><path d="m2895 29688c-103-38-145-132-94-214 18-29 19-39 10-66-32-90 19-183 107-195 34-5 45-1 66 20 43 43 35 75-41 164l-45 52 29 25c15 14 45 33 66 42 37 17 53 54 22 54-24 0-82-26-118-54-19-15-36-26-39-26-15 0-28 58-19 83 13 33 66 67 106 67h30l-25-20c-23-17-23-19-6-26 34-13 71 8 74 42 2 18-3 36-12 43-21 17-76 22-111 9zm55-383c11-20 11-27 0-40-19-22-38-18-71 14-22 23-29 39-29 69 0 21 3 42 7 46 8 8 75-56 93-89z"/><path d="m1824 29643c-42-66-104-207-104-237 0-13 8-32 17-42 17-16 18-15 26 22 4 21 32 90 62 153 30 62 55 122 55 132 0 33-24 21-56-28z"/><path d="m2050 29662c-65-32-120-149-120-255 0-25-5-58-10-72-11-30-2-57 11-32 8 13 13 12 46-4 50-25 100-12 142 37 36 40 39 66 11 94-24 24-58 25-105 6-35-15-35-15-35 17 0 60 72 187 106 187 20 0 28 21 13 31-19 12-19 12-59-9zm16-298c-28-25-56-29-63-8-4 13 34 33 67 33h25z"/><path d="m14089 29453c-11-13-13-51-9-182 7-232 4-773-4-806-5-21-10-25-19-16-27 27-72-6-62-47 15-60 86-132 131-132 35 0 73 38 109 109 18 37 40 73 49 80 22 19 20 58-3 64-35 9-79-19-103-67l-23-45-1 514c-1 528-2 545-39 545-7 0-19-7-26-17z"/><path d="m6070 29411c-5-11-10-36-10-56 0-64 78-195 134-225 14-7 26-18 26-25 0-25-81-176-115-214-44-48-45-84-4-89s98 68 153 195c26 60 51 115 57 123 25 39 50 103 47 122-2 11-11 26-20 32-21 13-54-14-73-62-13-30-16-31-35-20-11 7-37 37-58 67-33 48-37 60-36 112 1 58 1 59-27 59-18 0-32-7-39-19z"/><path d="m5833 29218c-59-65-85-106-81-135 4-35 31-42 55-13 10 12 26 26 36 31 16 9 17-13 17-404v-413l-37-10c-31-7-38-13-38-34s7-27 38-34l38-10-6-780c-8-1092-8-1185 2-1508 5-196 12-291 20-299 6-6 9-17 7-23-5-13 927-14 1127-2 83 5 119 4 124-4s11-8 21 1c11 9 192 10 752 4 405-5 1342-8 2082-7h1565c1717-4 3318-2 3349 4l39 7-37-38c-41-42-47-83-13-89 17-3 34 10 145 111 67 61 28 107-117 138-100 22-121 20-121-9 0-24 16-38 55-48 29-8 29-8-15-15-25-4-247-8-493-8l-448-1-30 65c-57 127-88 191-127 260-232 416-379 603-774 980-366 351-551 501-913 742-418 278-673 406-1015 509l-115 35 445-6c245-4 459-8 475-9 17-2 49-4 72-5 38-1 42-4 45-28 4-41 41-43 73-5 13 16 38 32 55 35 19 4 37 18 50 39 42 70 15 105-105 138-116 32-139 34-154 16-21-26-2-55 57-87l57-30-305 6c-168 3-494 5-725 6-456 1-706 15-763 44-39 20-82 13-89-15-3-11-13-20-22-20-46 0-295-21-361-31-519-74-916-183-1370-377-383-162-711-359-1060-635l-85-67-10 52c-5 28-15 53-22 55-15 5-33-58-33-118 0-42-4-50-42-84-108-94-332-324-446-457-70-81-128-145-130-143s16 34 40 72c40 62 136 220 198 326 14 23 93 161 175 306 150 263 150 263 155 220 4-36 9-45 27-47 33-5 44 33 48 158 5 146-8 156-117 93-151-87-205-138-183-172 12-21 46-11 106 30 33 22 62 39 64 37s-55-109-128-238c-252-446-351-609-724-1188-87-136-117-183-209-334l-59-97-8 262c-5 144-8 370-8 502 2 443 9 1740 10 1761 1 17 13 23 74 37 39 8 97 18 127 21 114 12 166 18 205 26l40 7-45 7c-25 4-125 6-223 4-97-2-177-1-178 2 0 3-2 163-3 355-3 346-3 350 15 308 17-40 32-53 42-35 7 14-21 289-32 311-19 34-70 28-108-11zm4306-1013c41-28 66-25 74 7 6 21 10 21 164 15 387-16 781-121 1138-305 272-140 677-405 935-611 280-224 725-651 901-866 146-178 330-461 526-808 6-10-2181-2-2284 8-39 4-118 2-175-4-70-8-506-11-1390-11-1148 0-1434 3-1628 15-30 2-319 4-642 4l-588 1v84c0 93-5 116-26 116-18 0-23-27-26-125l-3-80-40-1c-22 0-158-4-302-8l-262-8-5 23c-3 13-7 74-9 134-2 89-7 118-24 151-26 48-80 98-128 119-19 7-35 17-35 20 0 17 309 417 445 575 119 140 393 410 415 410 10 0 20 8 22 18 9 31 291 251 494 384 207 136 426 252 676 359 493 211 945 331 1458 389 235 26 273 25 319-5zm-3617-1737c-7-7-12-8-12-2 0 14 12 26 19 19 2-3-1-11-7-17zm-192-478c41-21 82-68 96-110 4-14 8-76 9-137v-113h-166c-91 0-195-3-230-6-40-3-59-2-51 4 7 5 12 13 10 18-5 15 262 364 278 364 8 0 32-9 54-20z"/><path d="m8100 26901c0-17 13-77 30-134 16-56 39-139 51-185 18-68 26-86 46-95 38-17 54 0 99 109 55 134 90 201 111 213 26 14 3 34-29 26-43-11-76-57-123-166-24-57-46-97-49-89-2 8-21 75-40 149-36 134-60 191-84 199-8 2-12-7-12-27z"/><path d="m7135 26770c-4-6-9-35-12-65-4-41-1-66 12-95 10-22 22-40 27-40 9 0 11 133 2 179-7 31-18 39-29 21z"/><path d="m7985 26581c6-19-2-26-67-55-110-51-245-77-435-85-173-7-209-17-168-48 17-12 44-14 160-10 272 10 508 78 559 160 14 22-3 51-33 55-19 3-22 0-16-17z"/><path d="m8727 26514c-4-4-7-29-7-56 0-41 5-54 29-79 32-31 45-34 87-19l27 11-7-89c-15-204-78-312-151-258-18 13-18 15-3 38 9 14 30 31 48 38 35 14 35 33 1 38-57 9-121-46-121-103 0-86 133-111 202-37 45 47 88 224 88 362 0 97-21 110-95 56-30-22-48-5-54 51-6 45-25 66-44 47z"/><path d="m8491 26494c-52-22-92-71-85-103 15-63 52-91 121-91 77 0 143 55 143 120 0 45-20 65-80 79-57 13-58 13-99-5zm127-57c14-14 13-18-2-42-32-49-112-65-153-32-18 14-16 28 3 20 14-5 15-1 10 24-6 24-3 32 16 41 30 15 106 8 126-11z"/><path d="m6831 26421c-11-11-29-47-41-80-22-60-22-60-51-46-80 42-162-18-184-136-21-114 97-141 187-41l34 37 42-32c23-18 59-35 79-39 30-6 39-3 54 15 25 30 16 45-45 75-90 44-91 47-51 151 19 50 34 96 35 103 0 19-38 14-59-7zm-128-195c9-7 17-18 17-23 0-13-76-83-90-83-21 0-2 70 27 102 19 21 23 21 46 4z"/><path d="m7164 26344c-7-27 2-183 11-192 14-14 20 19 20 110 0 70-4 102-12 105-7 3-15-8-19-23z"/><path d="m12223 29067c-25-29-68-117-127-261-9-22-18-37-20-35-3 2-22 74-44 159-33 128-44 155-58 155-40 0-39-45 0-197 48-183 58-206 91-214 39-10 58 15 111 140 63 149 122 266 135 266 5 0 7 5 4 10-14 22-63 10-92-23z"/><path d="m14561 28975c-70-59-95-233-41-290 25-27 58-32 92-14 11 6 21 9 23 7s7-33 11-70c7-66 7-66-33-101-73-66-118-194-115-329 3-122 45-198 111-198 37 0 79 46 96 105 22 73 38 260 30 362-6 83-5 92 12 96 16 4 16 5 1 6-20 1-23 11-38 141-6 55-17 101-26 111-13 14-13 18 2 30 12 10 15 26 12 66-8 95-73 131-137 78zm69-80c0-13 4-34 9-48 7-18 5-26-10-35-10-7-19-18-19-25s-7-23-16-36c-13-18-18-20-25-10-21 33-2 134 32 176 15 17 29 7 29-22zm28-610c-5-142-26-231-52-222-23 7-38 81-33 162 4 67 11 95 42 160 46 97 49 90 43-100z"/><path d="m1419 28856c-2-3-144-8-314-11-324-8-386-13-392-32-7-21 126-26 532-18 220 4 803 7 1295 6s926 1 963 5c69 7 97 26 66 45-14 8-2141 13-2150 5z"/><path d="m12471 28847c-13-6-38-39-54-71l-30-59-39 41c-39 42-61 51-73 31-13-21 7-63 48-100l41-38-22-46c-41-85-17-105 37-29 24 33 38 43 50 38 71-29 145-28 139 2-2 9-27 25-56 36s-56 26-58 33c-7 17 43 114 61 122 20 7 19 39-1 47-19 7-14 8-43-7z"/><path d="m2854 28570c-30-12-74-68-74-94 0-34 37-76 66-76 97 0 185 120 122 164-24 17-80 20-114 6zm86-53c0-20-43-56-70-59-21-3-25 2-28 29-3 34 5 40 66 42 20 1 32-4 32-12z"/><path d="m1333 28558c-6-7-29-49-51-93-22-45-66-114-97-155l-56-75h-92c-76 0-99-4-134-23-94-49-99-171-8-188 44-8 122 27 188 84 27 23 51 42 53 42 3 0 37-20 75-45 92-59 137-82 182-90 65-13 43 16-76 96-63 42-120 78-127 81-10 3 4 29 47 86 73 97 122 193 126 246 2 40-12 56-30 34zm-273-388c0-14-99-77-132-85-21-6-29-3-34 10-10 24 6 47 47 67 36 19 119 24 119 8z"/><path d="m2195 28511c-76-34-167-141-211-248-57-138-7-225 122-210 57 6 94 31 94 62 0 34-38 56-110 62-72 7-74 13-29 102 56 113 154 201 224 201 33 0 33 27-1 40s-42 13-89-9zm-92-398c-7-2-19-2-25 0-7 3-2 5 12 5s19-2 13-5z"/><path d="m5439 28488c-19-21-117-206-177-335-31-66-25-103 17-103 21 0 58 22 128 75 55 41 103 75 106 75s-3-19-13-42c-23-52-25-78-6-104 13-17 16-17 29-4 28 31 89 180 83 204-12 50-64 36-196-54-32-22-61-40-64-40-4 0 121 271 145 313 22 39-18 50-52 15z"/><path d="m3450 28464c-23-60-30-260-35-1094-3-481-8-1165-10-1520-3-355-8-667-13-695l-7-49-50 3c-28 1-111 6-185 11-209 12-958-7-1340-35-92-7-457-23-775-35-291-11-461-23-471-33-3-3-3-11 2-18 5-9 83-10 338-5 182 3 367 9 411 12 572 36 1200 58 1608 58 285-1 452-5 458-11 7-7 28-2 62 16 52 26 52 26 20 29-18 2-33 7-33 12s4 42 9 82 13 309 16 598c4 289 10 660 14 825 11 451 11 1864 0 1871-5 3-14-7-19-22z"/><path d="m9523 28350c-23-5-52-14-64-20-18-10-19-14-8-25 12-11 56-12 244-4 127 6 234 14 240 20 23 23-19 30-191 34-98 2-198 0-221-5z"/><path d="m1558 28333c-20-3-28-10-28-24 0-20 5-20 134-17 131 3 160 9 140 27-10 11-204 22-246 14z"/><path d="m2436 28281c-55-21-64-35-65-99-2-79 66-114 177-91 62 12 112 52 112 89 0 32-29 69-69 90-56 28-100 31-155 11zm143-60c37-26 37-50 1-68-32-16-132-17-148-1-17 17-15 49 4 77 15 20 23 23 64 19 27-3 61-15 79-27z"/><path d="m7101 28266c-11-13-11-17 5-23 24-10 247-9 338 1 122 14 61 28-141 34-165 4-190 3-202-12z"/><path d="m8318 28273c-16-2-28-8-28-13 0-17 44-22 177-22 157 0 240 9 224 25-10 10-323 19-373 10z"/><path d="m1610 28210c-51-4-66-9-68-22-5-24 34-32 132-25 99 7 156 23 156 43 0 16-53 17-220 4z"/><path d="m6445 27803c-14-21-25-41-25-46 0-19-114-237-120-230-4 5-13 44-20 88-22 147-30 175-50 175-34 0-33-71 1-268 17-92 61-117 114-64 27 26 168 304 181 356 6 24 4 26-25 26-24 0-36-8-56-37z"/><path d="m1061 27519c-5-13-14-71-20-129s-20-139-31-180c-30-108-35-147-20-165 20-24 33-19 105 41 74 60 152 104 186 104 20 0 21-3 15-62-8-79 5-104 34-70 30 36 43 97 30 138-26 79-110 73-241-16-33-22-59-36-59-31s9 49 21 98c27 115 31 255 7 279-16 16-18 16-27-7z"/><path d="m6565 27526c-16-7-39-23-49-35-11-11-25-21-32-21-25 0-44-43-44-103 0-51 4-62 29-88 34-34 54-36 97-10 60 36 114 129 114 193 0 39-7 51-37 67-27 14-40 14-78-3zm57-82c-4-37-44-98-78-121-25-16-27-16-39 1-18 24-4 71 32 109 51 53 90 58 85 11z"/><path d="m2475 27424c-125-16-186-29-227-46-84-36-98-116-30-181 35-33 67-45 147-53 36-4 65-10 65-15 0-29-137-97-212-106-46-6-48-5-48 19 0 32-8 40-31 27-23-12-25-61-3-83 10-10 33-16 63-16 130 0 320 119 295 184-10 26-42 38-120 47-81 9-121 29-130 65-10 39 2 52 58 68 43 13 284 46 336 46 19 0 14 28-5 34-29 8-125 14-158 10z"/><path d="m1728 27301c-61-9-81-26-53-47 22-17 80-14 185 8 147 30 38 62-132 39z"/><path d="m1725 27171c-33-7-46-37-20-47 18-7 193 24 200 36 2 4-23 10-57 14-68 7-80 6-123-3z"/><path d="m3039 27120c-31-21-68-44-84-50-26-10-27-9-22 17 13 66-36 74-78 12-31-44-81-87-134-114-35-18-35-18-57 10-12 15-27 24-33 21-19-12-12-46 15-73 20-20 31-24 56-19 35 7 115 55 143 86 16 17 20 18 38 5 12-8 32-15 45-15 24 0 88 30 134 61 14 11 28 19 30 19 1 0 4-25 5-55 3-57 19-104 32-89 12 14 31 111 31 154 0 29-6 43-22 54-31 22-36 21-99-24z"/><path d="m2790 26593c-36-2-218-12-405-23s-421-22-520-25-209-8-245-10c-36-3-227-7-425-10-376-6-465-10-465-26 0-20 72-24 445-23 417 1 775 13 1320 45 187 11 442 21 566 22 210 2 229 3 249 22 20 18 20 20 3 26-17 7-390 8-523 2z"/><path d="m2447 26361c-61-13-91-41-95-89-2-33 0-42 13-42 8 0 20 11 25 25 14 38 71 58 146 52 76-6 132-31 140-64 9-33-10-51-119-113-171-96-227-149-227-213 0-47 34-97 66-97 2 0 1 19-2 43-11 79 27 121 201 220 111 64 145 99 145 150 0 32-6 46-34 71-52 50-170 75-259 57z"/><path d="m1129 26192-53-150-40-5c-46-6-97-50-79-68 8-8 16-8 31 0 24 13 62 15 62 4 0-5-11-42-25-84-13-42-27-99-31-126-5-43-3-53 18-78 23-26 26-27 61-16 38 13 87 62 87 87 0 20-17 18-47-6-14-11-32-20-41-20-20 0-11 60 25 170 31 93 35 96 131 99 29 1 42 5 42 15s-19 16-60 21c-33 4-60 10-60 14s18 59 40 121c45 124 48 163 14 168-19 3-27-13-75-146z"/><path d="m1775 26021c-21-4-30-12-30-26 0-26 45-31 144-15 91 15 101 18 101 36 0 11-20 14-92 13-51-1-106-4-123-8z"/><path d="m2384 25665c-9-23 5-35 41-35 35 0 51 20 32 39-16 16-67 14-73-4z"/><path d="m15597 25428c-19-29-47-77-63-105-16-29-32-53-36-53s-21 27-38 60c-26 52-50 77-50 52 0-19 33-119 48-143 14-25 13-29-6-60-20-34-26-44-114-203-48-86-54-116-24-116 17 0 94 104 157 211l45 77 37-35c29-26 45-33 69-31 41 4 47 25 11 39-15 5-42 24-60 41l-32 31 48 96c60 119 74 166 55 181-10 9-20 1-47-42z"/><path d="m7482 25114c-43-30-6-94 38-67 25 16 70-2 70-28 0-9-22-36-50-59-42-35-50-47-50-76 0-46 26-58 120-57 89 2 133 15 128 41-3 13-15 18-63 20-91 4-94 7-49 53 31 32 39 47 39 78 0 45-24 77-72 97-43 18-83 18-111-2z"/><path d="m3836 25039c-36-28-80-118-106-215-29-107-37-417-17-664 8-96 14-251 13-345-1-162-2-173-29-238-16-37-27-75-25-84 3-16 6-18 73-51 103-49 127-226 84-629-13-121-22-274-22-393l-2-195 36-76c20-42 42-80 49-84 10-6 12-3 7 10-26 65-29 119-24 358 3 139 13 315 21 392 33 283 17 516-40 607-21 32-65 70-96 80-4 2 2 32 13 68 31 95 34 245 14 570-29 459-13 658 63 810 19 39 37 60 61 71 27 13 30 17 17 22-32 12-63 7-90-14z"/><path d="m7293 24970c-25-10-65-69-138-204-56-104-56-103-74 46-6 53-14 103-17 111-10 26-33 28-48 4-13-19-13-37 0-142 17-142 36-189 78-193 39-5 68 25 124 128 62 115 129 220 142 220 16 0 12 27-6 34-20 8-34 7-61-4z"/><path d="m5989 24897c-18-12-44-38-56-56-22-32-23-43-21-168 3-128 4-136 27-154 13-11 39-19 59-19 29 0 44 9 87 53 114 115 133 301 35 352-42 22-92 19-131-8zm128-63c21-33 13-116-17-178-28-54-81-106-110-106-38 0-52 72-29 154 8 30 8 41-2 47-19 11 35 87 73 103 39 17 65 10 85-20z"/><path d="m4537 24773c-3-4-8-24-12-43-3-19-31-128-61-241-30-114-54-218-54-232 0-32 31-52 58-38 9 5 55 49 101 96 87 89 127 122 137 112 3-3-2-53-12-112-16-95-17-109-3-133 8-15 24-28 35-30 25-4 52 24 37 39-7 7-6 37 3 92 26 159 13 217-47 217-44 0-86-25-158-94-39-37-61-53-58-41 34 109 79 310 80 354 2 50 0 56-20 59-11 2-23 0-26-5z"/><path d="m6413 24729c-29-15-29-35-1-50 23-12 226-7 261 7 30 11 18 31-23 38-85 13-215 16-237 5z"/><path d="m7330 24627c-9-7-30-34-48-60-38-57-43-114-13-141 26-24 90-31 135-16 155 51 143 231-16 230-24 0-50-6-58-13zm113-65c23-20 22-36-6-67-17-20-35-28-70-32-47-6-47-6-47 28 0 40 23 77 54 88 24 9 43 5 69-17z"/><path d="m7597 24634c-24-24 5-106 57-162l21-24-70-64c-38-36-80-67-92-70-61-16-1401-2-1582 17-134 14-150-11-26-40 80-19 241-29 485-30 124-1 257-4 295-8 39-3 229-6 422-7 280-1 353-4 353-14 0-24 30-24 59 1 27 22 41 25 168 32 76 4 246 11 378 14l240 6v25 25l-170 3c-93 2-244-2-334-8s-165-9-167-7c-2 1 24 29 57 62 53 54 99 125 99 154 0 20-24 11-56-20l-32-31-25 44c-14 23-31 56-38 72-14 30-30 42-42 30z"/><path d="m5190 24544c-107-6-130-12-130-35 0-31 44-42 145-34 82 6 207 27 245 41 49 18-118 36-260 28z"/><path d="m5143 24403c-7-2-13-13-13-23 0-14 10-21 36-26 76-14 273 16 282 44 3 9-30 12-145 11-81 0-154-3-160-6z"/><path d="m7399 24060c-47-25-89-75-89-106 0-35 34-64 75-64 20 0 61 9 92 20 32 11 58 20 60 20s-4-41-13-87c-3-15-18-26-52-37-97-33-243-150-283-228-83-161 113-219 253-74 43 45 110 174 128 247 9 34 19 50 36 58 25 11 25 31 0 31-9 0-11 16-8 59 3 36-1 67-9 82-7 13-13 35-14 48 0 13-9 29-20 37-27 20-113 17-156-6zm141-49c0-13-99-51-133-51-27 0-29 2-17 14 27 27 74 46 113 46 20 0 37-4 37-9zm-44-276c-13-52-58-138-93-176-45-49-81-69-128-69-29 0-35 4-35 20 0 32 24 71 73 118 43 43 164 130 181 131 4 1 5-10 2-24z"/><path d="m6973 24039c-35-10-68-48-55-61 5-5 21-4 36 2 34 12 163 13 171 1 8-14-18-36-89-76-86-48-113-77-100-112 11-32 36-41 121-42 124-2 308 51 308 89 0 16-1 16-84-6-66-17-271-31-271-18 0 5 34 29 76 54 109 65 130 110 71 154-31 23-131 32-184 15z"/><path d="m6451 24010c-30-7-50-24-51-42 0-16 29-22 95-19 39 1 108-5 154-13 150-29 195-15 100 30-75 36-235 60-298 44z"/><path d="m8426 22808c-9-12-37-72-62-133-26-60-55-127-66-149l-20-39-73 6c-55 4-77 2-85-8-16-20 25-44 88-52l50-5-25-62c-34-83-42-170-18-196 26-29 57-25 107 13 41 31 113 125 104 135-3 2-22-9-43-25-37-30-95-63-109-63-22 0 50 197 74 204 9 2 43 7 74 11 57 6 86 24 73 46-5 8-27 9-71 5-35-4-64-5-64-2 0 4 23 61 45 111 62 142 81 225 51 225-8 0-22-10-30-22z"/><path d="m4645 22804c-43-22-73-53-103-104-14-25-31-52-37-60-20-25-44-109-51-176-12-112 32-184 111-184 64 0 115 39 171 132 39 64 81 180 84 230 5 90 1 109-34 144-39 39-89 45-141 18zm89-67c41-30 7-186-63-295-45-71-98-103-126-76-23 23-21 144 3 175 11 13 22 39 25 56 9 44 53 108 91 133 37 23 46 24 70 7z"/><path d="m6361 22728c-103-148-224-308-232-308-5 0-9 57-10 128 0 150-12 197-49 197h-25l4-195c2-107 8-203 13-212 14-28 56-33 86-11 57 42 326 422 320 452-2 9-15 17-30 19-23 3-33-6-77-70z"/><path d="m7840 22633c-95-36-168-205-112-256 23-21 87-22 125-2 26 13 28 13 23-3-3-9-10-36-15-58-10-39-17-45-107-95-118-66-216-152-232-205-17-56 4-99 57-115 92-27 199 55 276 215 25 50 45 96 45 102 0 5 15 18 33 28 17 11 69 46 115 79 110 78 96 94-27 33-50-26-91-45-91-44 0 2 9 37 20 78 24 90 25 119 5 126-9 4-15 19-15 41 0 56-50 95-100 76zm48-97c7-60-19-96-82-112-23-5-26-3-26 21 0 32 14 61 48 98 32 34 56 31 60-7zm-109-426c-53-100-147-171-184-140-12 10-13 16-1 39 8 14 25 36 38 47 30 28 159 114 170 114 5 0-5-27-23-60z"/><path d="m5225 22538c-138-13-183-40-114-68 50-21 340 17 491 65 40 12 31 13-122 13-91-1-205-5-255-10z"/><path d="m6467 22476c-75-27-119-97-99-154 5-16 6-37 1-50-11-30 12-86 42-102 33-18 120-8 157 19 75 53 109 171 67 234-34 52-107 75-168 53zm103-76c42-42 12-133-56-165-29-13-42-15-60-6-25 11-32 35-14 46 17 11 11 37-10 42-29 8-25 30 14 69 41 41 93 47 126 14z"/><path d="m6677 22443c-15-14-5-91 17-139 13-28 40-64 60-81l37-30-51-103c-52-107-59-140-37-159 20-16 35 5 107 149 35 69 76 141 91 160 30 36 39 85 17 93-14 5-68-19-68-31 0-4-7-15-14-25-12-15-18-17-36-7-23 13-70 102-70 136 0 32-34 57-53 37z"/><path d="m5373 22404c-119-13-133-17-133-39 0-37 171-25 374 27 29 7 36 12 25 19-19 12-129 9-266-7z"/><path d="m7294 22403c-154-3-194-6-204-18s-10-18 1-31c12-14 35-16 179-11 188 5 273 20 268 45-4 20 9 19-244 15z"/><path d="m4502 21145c-5-9-3-46 5-88 7-40 13-149 13-243 0-138 3-174 15-184 29-24 64-1 138 93 74 93 250 285 274 300 38 24-18 37-71 17-30-11-124-103-214-208l-62-73v43c-2 152-24 315-47 341-20 21-39 22-51 2z"/><path d="m8350 21079c-127-10-277-18-445-24-371-13-560-27-590-42-88-46-275-225-423-405-53-65-98-116-100-113-2 2 3 45 12 96 22 125 20 161-6 194-20 26-24 27-89 23-68-5-128-30-137-57-4-12 7-13 59-7 108 13 111 12 119-9 3-11 1-58-6-105-22-151-21-206 6-220 34-18 74 11 165 120 110 133 310 337 395 401l65 50 125 4c69 2 226 7 350 11 124 3 241 8 260 9 19 2 110 7 201 11 171 7 197 2 169-31-27-33 24-49 53-17 23 26 21 56-5 85-28 30-64 35-178 26z"/><path d="m8083 20908c-6-7-16-42-23-78-13-70-58-211-96-302-32-76-32-115 1-130 29-13 43-5 146 83 39 34 72 59 75 56 3-2-3-37-12-77-12-53-13-75-5-83 20-20 43 6 67 75 33 100 38 142 19 162-35 34-64 22-174-73-40-35-62-48-57-36 61 162 89 266 90 334 1 73-9 96-31 69z"/><path d="m7290 20774c-54-17-95-47-86-62 5-8 21-6 56 8 70 27 140 35 164 17 46-34-22-117-187-225-54-35-101-71-104-78-9-25 7-62 30-70 32-11 148-7 215 6 77 16 161 42 255 79 43 17 93 31 113 31h35l-26-47c-23-43-33-51-95-76-77-31-199-108-244-153-41-41-50-71-31-100 22-34 56-39 121-18 118 37 225 147 310 319 30 60 33 75 25 98-6 15-17 30-26 33-13 5-13 8 0 27 32 46 12 100-42 113-70 18-201-29-225-81-15-33-2-74 28-87 25-12 25-12-28-30-75-25-261-60-300-56-33 3-33 3 37 53 142 101 205 173 205 236 0 73-85 100-200 63zm470-164c13-9 11-14-13-35-29-26-80-32-122-16-18 7-18 9 8 26 24 15 71 31 102 34 6 0 17-4 25-9zm-70-288c0-9-65-88-95-115-24-22-114-67-134-67-23 0 34 55 129 126 84 63 100 72 100 56z"/><path d="m5761 20753c-22-18-22-20-5-33 33-28 504-14 504 15 0 17-59 24-285 31-178 6-191 5-214-13z"/><path d="m4862 20659c-29-15-48-33-57-53-38-92-45-157-20-193 8-12 35-29 60-39 62-23 136-8 193 41 99 86 86 201-30 250-51 21-95 19-146-6zm152-70c70-55-2-159-111-159-52 0-73 23-73 81 0 40 4 51 31 73 40 34 113 36 153 5z"/><path d="m5211 20612c-15-29-14-126 3-166 16-39 51-66 83-66 23 0 23-1-13-72-20-40-61-112-91-160-61-98-66-131-20-136 19-2 29 2 34 15 4 10 26 47 49 83 82 127 207 394 198 422-9 29-45 18-70-22-32-50-61-80-78-80-26 0-47 45-56 116-9 75-22 97-39 66z"/><path d="m5893 20560c-13-5-23-16-23-24 0-7 10-16 23-20 27-7 218-6 311 3 70 6 97 24 54 34-45 11-343 17-365 7z"/><path d="m10368 19963c-45-48-233-353-258-417-5-13-71-136-146-273-75-136-151-273-167-303-188-344-303-542-337-580l-21-25 6 50c39 327 36 511-10 581-20 31-68 47-118 40-52-8-107-40-107-62 0-14 6-15 38-8 20 4 59 8 87 9 49 0 50 0 63-40 19-54 17-258-2-404-19-137-20-233-4-249 50-50 127 44 320 388 110 194 428 779 489 896 49 96 141 249 201 333 17 25 17 25 95 11 53-9 210-14 488-17 408-3 573-14 587-36 6-9 11-8 18 3 13 20 12 31-3 51-27 36-84 41-567 49-275 5-492 13-515 19-70 19-108 14-137-16z"/><path d="m11081 19803c-10-21-23-54-29-73-5-19-31-102-57-185-66-212-92-307-87-327 2-9 12-20 24-24 16-5 41 15 124 97 57 56 106 100 109 97 3-2-9-44-26-92-22-63-29-101-27-139 4-77 25-67 58 28 15 44 37 104 49 133 11 29 21 71 21 93 0 32-4 41-25 51-35 16-75-5-153-77-64-59-68-60-53-10 5 17 26 84 46 150 77 253 89 315 60 315-8 0-23-17-34-37z"/><path d="m6671 19713c-38-8-95-48-128-90-16-21-60-83-98-138-118-172-271-362-282-351-3 3 2 26 11 52 21 63 20 116-2 144-15 18-28 22-68 22-45-1-240-45-252-56-2-3-2-12 1-21 8-20 52-19 157 5 47 11 93 20 103 20 24 0 22-32-6-116-39-113-40-121-17-144 11-11 27-20 35-20 46 0 233 221 431 511 33 47 70 99 84 115l25 29 498-3c298-1 497-6 497-12 0-40-74-230-165-425-21-44-38-96-39-115-1-29 3-36 26-44 30-11 25-14 169 111 46 40 88 73 93 73s5-15 2-32c-21-96-23-129-10-146 10-13 17-15 31-6 20 13 52 134 53 202 0 36-4 44-25 54-34 15-66 0-161-77-44-34-80-62-82-60-2 1 17 48 42 103 50 112 110 277 120 336l7 39 347-7c325-6 402-10 402-24 0-3-8-29-17-58-28-91 5-87 64 8 38 61 38 89 0 111-17 9-223 12-922 13-495 1-911 0-924-3z"/><path d="m10467 19525c-46-16-87-52-87-75 0-29 11-30 44-5 66 50 175 50 198 0 6-13 7-36 4-52-11-44-104-124-194-168-85-40-98-54-82-85 12-23 51-32 109-25 280 35 330 49 280 75-16 9-54 11-128 7-100-5-105-5-81 11 56 36 136 128 146 167 30 118-80 197-209 150z"/><path d="m4742 19373c-11-16-40-78-64-138l-44-109-61-12c-65-13-105-33-100-49 4-11 21-11 89 0l47 7-31-83c-48-131-53-154-40-183 10-22 18-26 52-26 22 0 57 7 77 15 47 20 105 64 98 75-3 4-30 2-61-7-31-8-66-13-79-11-23 3-23 3 18 113 47 121 48 122 144 124 28 1 54 5 57 10 6 9-49 21-101 21-18 0-33 4-33 8 0 15 51 135 78 185 20 37 24 52 15 65-17 27-39 25-61-5z"/><path d="m6645 19343c-51-8-85-53-50-67 8-3 28 0 46 6 37 13 176 5 192-11 15-15-14-35-132-88-51-24-100-48-107-54-20-17-17-57 5-69 55-29 396 5 396 40 0 13-22 15-150 12l-150-3 88 48c51 27 95 59 104 74 22 36 10 75-27 94-31 16-162 27-215 18z"/><path d="m7170 19304c-74-32-112-98-78-132 15-15 79-15 129 0 22 6 41 9 44 7 6-6-18-83-45-147-22-52-22-52-70-52-27 0-55-3-63-6-12-4-14 0-10 15 7 27-17 27-73 2-31-14-76-21-175-25-74-4-177-9-229-11s-178-7-280-10c-236-7-315-14-303-26 13-13 355-15 664-5l236 8v-31c0-40 34-77 80-86l36-6-35-24c-60-40-108-125-108-190 0-60 69-91 118-52 7 5 14 8 16 6 3-2 7-48 11-101l7-97-34-17c-48-24-127-89-155-127-52-69-65-108-70-202-3-79-1-95 20-134 29-55 67-85 110-85 104 0 170 149 185 418l7 120 80 43c88 47 84 53-18 24l-67-18v108c0 59-4 119-9 132-16 41-46 43-87 8-19-17-39-29-45-26-19 12 37 112 81 142 23 16 25 11 9-19-8-15-8-23 1-32 8-8 19-3 41 22 49 55 33 101-38 103-22 0-19 3 18 13 50 13 89 38 133 84 33 35 51 38 311 47 162 5 371 15 435 20 19 2 68 3 108 4 57 1 74 4 79 17 14 36-9 38-367 19-282-15-494-24-498-21-2 2 11 44 28 92 21 59 30 100 26 121-2 18 0 35 5 38 17 11 9 54-13 69-28 20-102 20-148 0zm136-51c17-17 16-18-17-24-19-4-55-12-81-20-52-14-68-8-48 16 34 41 117 56 146 28zm-171-343c-22-24-95-53-125-48-32 4-48 32-31 52 10 12 33 16 94 16 79 0 80 0 62-20zm-95-687c0-66-28-229-49-283s-56-100-76-100c-23 0-55 47-66 98-21 100 26 206 125 282 28 22 54 40 59 40 4 0 7-17 7-37z"/><path d="m5153 19164c-10-27 17-34 132-34 160 0 275 10 275 25 0 17-79 25-253 25-126 0-149-2-154-16z"/><path d="m8603 19044c-30-7-38-35-16-52 14-11 48-13 159-8 77 3 148 8 158 12 29 11 12 29-35 35-67 10-241 18-266 13z"/><path d="m5174 19005c-9-23 3-32 48-38s215 9 251 22c33 12-90 31-202 31-71 0-93-3-97-15z"/><path d="m11797 18963c-17-16-6-43 20-49 32-8 360 2 386 12 34 13 10 29-54 35-88 9-344 11-352 2z"/><path d="m10879 18906c-2-2-138-7-302-10-165-4-305-10-313-13s-13-11-11-17c6-18 126-24 392-19 138 3 354 6 480 7 127 1 231 6 233 9 9 19-8 28-63 37-56 9-407 14-416 6z"/><path d="m8535 18866c-17-12-18-17-7-28 10-10 52-12 180-10 159 3 198 10 177 31-6 5-82 12-170 16-135 6-163 4-180-9z"/><path d="m11774 18757c-12-33 5-37 185-37 142 0 181 3 190 14 20 24-3 29-190 34-157 4-179 3-185-11z"/><path d="m10626 18618c-56-58-85-110-93-169-5-31-1-42 20-63 32-32 77-34 132-6 22 11 41 20 43 20s2-21 0-46c-2-29-9-50-18-55-8-4-46-23-84-41-165-79-239-206-188-321 58-130 200-90 277 78 24 53 60 181 67 235 3 21 14 29 71 49 76 27 90 47 25 37-24-4-53-9-65-13-22-5-23-3-21 53 2 65-13 104-40 104-9 0-39-14-67-30-27-16-58-30-67-30-52 0 17 151 84 186 15 8 29 14 33 14 3 0 5-22 5-50 0-59 21-69 39-19 25 74 2 119-60 119-35 0-47-7-93-52zm84-405c-1-71-62-213-111-258-51-46-73-45-98 2-36 69 8 154 117 224 43 27 80 49 85 49 4 0 7-8 7-17z"/><path d="m6981 17482c-170-2-196-5-208-20-11-15-78-120-174-275-54-86-306-510-363-609-78-136-197-330-201-326s13 104 50 308c19 102 28 182 29 272 1 114-1 129-20 155-34 45-78 51-181 22-63-17-89-29-91-42-4-22 31-23 108-2 71 19 76 19 100-5 17-17 20-33 20-97 0-81-8-136-60-438-42-247-36-299 33-281 43 10 140 150 287 411 31 55 223 379 245 415 12 19 48 78 80 130s65 106 74 120c22 36 41 68 81 138l35 62 910-1c501-1 927-3 948-6l38-5-7-59c-8-74 9-79 56-16 50 67 53 128 7 143-21 8-1376 12-1796 6z"/><path d="m8003 17201c-23-11-49-32-59-48-10-15-37-49-61-75-74-81-54-118 62-118 62 0 76-13 46-44-18-18-35-22-118-25-79-2-99 0-108 13-10 14-14 14-33 0-28-19-28-29 3-59 22-23 32-25 107-25 106 0 154 14 195 55 70 70 27 145-82 145-25 0-45 3-45 6 0 18 24 44 40 44 11 0 27 12 37 26 29 45 68 54 230 55 171 0 228 8 228 29 0 22-106 38-265 39-112 0-142-3-177-18z"/><path d="m6883 17143c-25-5-47-28-39-41 3-5 43-6 89-4 52 3 99 0 121-8 72-23 34-56-151-131-113-45-139-66-129-102 10-40 56-52 201-52 100 0 142 4 182 18 51 18 71 32 59 44-3 3-54 5-113 6-59 0-130 2-157 5l-49 4 94 49c93 48 159 104 159 134 0 25-44 62-86 74-38 11-136 13-181 4z"/><path d="m7471 17002c-7-14-6-25 5-40 19-27 60-29 74-3 13 25 13 27-6 45-21 22-61 20-73-2z"/><path d="m9984 16928c-20-18-84-67-143-109-71-50-107-82-109-97-5-36 27-27 107 28 45 31 70 44 66 33-52-121-78-206-83-275-5-82 4-108 38-108 22 0 30 19 30 70 0 63 48 208 111 338 49 99 58 126 49 137-17 21-25 19-66-17z"/><path d="m10402 16864c-63-31-105-81-133-154-21-55-27-149-13-193 37-118 208-156 307-67 44 39 28 55-33 33-62-22-133-11-172 27-24 25-28 36-28 87 0 59 25 130 58 166 44 49 151 75 144 36-4-26 21-41 43-26 27 20 22 67-9 94-37 32-97 31-164-3z"/><path d="m5175 16852c-76-4-95-10-95-32 0-15 10-20 44-25 49-8 366 22 380 35 30 29-68 36-329 22z"/><path d="m8943 16834c-25-6-35-25-22-45 16-27 508-14 536 15 4 3 2 6-3 6s-38 5-74 10c-74 11-404 21-437 14z"/><path d="m5103 16723c-20-8-15-41 8-54 30-15 311-2 336 16 10 7 14 17 10 21-17 17-320 31-354 17z"/><path d="m9070 16703c-82-13-110-56-45-69 54-10 354 31 338 47-21 19-221 34-293 22z"/><path d="m6885 16680c-68-8-115-25-115-40 0-7 253-10 775-10 695 0 776 2 782 16 14 38 4 39-700 40-375 1-709-2-742-6z"/><path d="m7113 16478c-22-29-104-232-101-252 2-14 10-21 26-21 20 0 31 16 73 105 50 107 58 147 37 168-15 15-23 15-35 0z"/><path d="m7405 16479c-37-22-65-52-65-71 0-10 4-18 9-18 6 0 1-20-10-45-23-52-17-89 17-112 70-45 276 53 298 142 8 31-11 66-50 92-32 21-170 29-199 12zm170-61c73-33-36-138-144-138-22 0-43 5-46 10-4 6 7 40 24 75l30 65h55c30 0 67-5 81-12z"/></g><g fill="#44b" transform="matrix(.054411653 0 0 -.054411653 1278.09883253537 1377.17520491264)"><path d="m750 2973c-57-10-88-25-119-57-40-41-55-100-46-179 6-45 12-61 32-77 32-25 35-25 64-1 22 17 24 26 21 89-4 105 24 120 164 87 33-7 119-19 190-25 88-8 134-16 144-26 32-32 8-420-28-456-18-18-126-28-289-28-185 0-206-4-250-52-55-58-58-82-55-363 1-145 7-274 13-293 11-34 51-62 89-62 12 0 35 14 52 31l31 30-6 238c-3 130-3 249 0 264l5 27h112c234 1 363 26 423 82 58 54 98 260 91 463-4 122-7 138-34 191-40 81-79 100-217 108-174 10-361 14-387 9z"/><path d="m3660 2971c-42-9-83-34-103-65-39-59-50-127-54-343-5-206-5-212 18-252 28-50 78-86 143-102 48-12 257-8 370 7l49 7-7-104c-4-57-11-189-16-294-9-177-9-192 8-214 35-47 100-46 136 2 22 29 27 86 42 452 7 191 0 235-44 283-45 48-92 56-241 38-146-18-229-20-265-6l-26 10v162c0 156 8 230 27 249 5 5 99 6 210 2l201-6 5-50c3-39 11-56 31-74 34-29 48-29 80 0 24 20 26 30 28 113 4 147-23 169-218 179-242 11-340 13-374 6z"/><path d="m1565 2945c-14-13-25-32-25-42s-1-297-3-638c-2-677-3-662 55-694 33-19 73-7 101 31 18 24 20 51 29 300 5 150 10 278 12 283 2 6 37 8 97 3 52-3 135-7 186-7 154-2 161-10 143-176-21-189-27-310-18-343 12-45 45-72 86-72 71 0 102 46 102 151 0 33 7 118 16 187 24 190 9 280-58 349-50 52-112 67-263 65-71-1-164-6-205-11-41-4-78-7-81-5-4 2-10 108-13 236-9 286-17 352-47 384-31 33-82 32-114-1z"/><path d="m2542 2944c-55-38-64-109-53-419 6-186 9-215 28-250 50-95 116-125 302-135 75-4 171-5 215-1l78 7-4-178c-2-97-7-181-11-184-4-4-42 1-85 11-104 26-285 27-363 3-106-33-149-107-99-170 26-34 68-41 132-21 74 23 202 20 308-7 182-47 274 5 301 168 12 77 27 831 19 994-7 152-20 181-86 186-88 7-103-51-104-401v-219l-201 4c-197 3-201 3-220 27-18 21-19 42-19 283v260l-29 29c-33 33-74 38-109 13z"/><path d="m2374 1391c-55-34-79-78-79-147 0-51 4-66 27-96 35-45 102-73 153-64 78 15 146 111 131 188-20 108-145 172-232 119z"/><path d="m1853 999c-39-11-66-56-61-101 6-59 69-64 76-6 4 30 34 38 145 38h67v-110c0-135-1-136-132-126-85 6-89 6-113-18-24-25-25-28-25-179 0-162 4-177 47-177 35 0 43 29 43 159v121h73c85 0 141 14 168 41 17 17 19 34 19 169 0 147-1 152-25 175-23 24-30 25-137 24-62 0-128-5-145-10z"/><path d="m2985 1000c-91-16-93-18-104-58-15-51-14-537 0-564 19-36 69-48 204-48 121 0 127 1 151 25l24 24-2 292-3 292-26 19c-31 23-161 33-244 18zm169-86c14-5 16-37 16-250v-245l-102 3-103 3v240 240l40 6c57 9 131 10 149 3z"/><path d="m2351 971c-24-24-29-73-37-372-6-232-6-237 15-258 23-23 29-25 51-11 12 7 16 40 20 150l5 141 35-23c19-13 59-55 88-93 30-39 78-96 108-128 47-51 56-57 74-47 29 16 25 42-15 92-19 24-62 78-95 121-61 77-61 77-33 77 15 0 46 9 69 19 56 26 67 57 62 179-6 156-27 172-220 172-93 0-111-3-127-19zm257-74c16-13 17-168 0-185-7-7-41-12-84-12-40 0-84-4-98-10l-26-10v120 119l98-6c53-3 103-10 110-16z"/></g></svg>