<?xml version="1.0" encoding="UTF-8" standalone="no"?>
<svg
   width="111.94003mm"
   height="36.130901mm"
   version="1.1"
   viewBox="0 0 111.94002 36.130902"
   xml:space="preserve"
   id="svg10"
   sodipodi:docname="1659t.svg"
   inkscape:version="1.4.2 (ebf0e940, 2025-05-08)"
   xmlns:inkscape="http://www.inkscape.org/namespaces/inkscape"
   xmlns:sodipodi="http://sodipodi.sourceforge.net/DTD/sodipodi-0.dtd"
   xmlns="http://www.w3.org/2000/svg"
   xmlns:svg="http://www.w3.org/2000/svg"><defs
     id="defs10" /><sodipodi:namedview
     id="namedview10"
     pagecolor="#ffffff"
     bordercolor="#000000"
     borderopacity="0.25"
     inkscape:showpageshadow="2"
     inkscape:pageopacity="0.0"
     inkscape:pagecheckerboard="0"
     inkscape:deskcolor="#d1d1d1"
     inkscape:document-units="mm"
     inkscape:zoom="1.3584143"
     inkscape:cx="211.64383"
     inkscape:cy="87.234066"
     inkscape:current-layer="svg10" /><path
     d="m 4.4849098,10.441633 c 0,0 1.0275472,-0.0023 2.3592563,-1.646073 0.9875258,-1.2198578 1.6118583,-3.9774943 3.1676859,-3.9774943 4.43136,0 5.453904,10.6360493 3.09865,10.6360493 -2.355254,0 -1.487792,-10.6360493 3.124664,-10.6360493 4.612456,0 5.480919,10.6360493 3.124664,10.6360493 -2.355254,0 -1.487792,-10.6360493 3.15468,-10.6360493 4.642472,0 5.510934,10.6360493 3.15468,10.6360493 -2.355255,0 -1.487793,-10.6360493 3.124663,-10.6360493 4.612456,0 5.480919,10.6360493 3.124664,10.6360493 -2.355254,0 -1.487792,-10.6360493 3.156681,-10.6360493 4.644473,0 5.511935,10.6360493 3.156681,10.6360493 -2.355254,0 -1.487792,-10.6360493 3.124664,-10.6360493 4.612456,0 5.480918,10.6360493 3.124664,10.6360493 -2.356255,0 -1.487793,-10.6360493 3.154679,-10.6360493 4.642472,0 5.510935,10.6360493 3.15468,10.6360493 -2.355254,0 -1.487792,-10.6360493 3.124664,-10.6360493 4.612456,0 5.480919,10.6360493 3.124664,10.6360493 -2.355254,0 -2.311231,-10.6360493 3.429826,-10.6360493 1.340714,0 2.36626,2.6354188 3.504866,3.8096383 1.618862,1.670053 2.937565,1.813929 2.937565,1.813929"
     stop-color="#000000"
     style="font-variation-settings:normal;fill:none;stroke:#000000;stroke-width:0.87974"
     id="path1" /><rect
     x="66.895546"
     y="0.5"
     width="36.682003"
     height="19.140003"
     rx="0.019309999"
     ry="0.019309999"
     stroke-dashoffset="1.134"
     stroke-linecap="round"
     stroke-width="0.9847"
     style="fill:none;stroke:#000000;stroke-width:1;stroke-dasharray:none;paint-order:fill markers stroke"
     id="rect1" /><path
     d="M 4.4915475,0.47833532 V 30.188335 H 111.59155"
     stroke-dashoffset="1.134"
     style="fill:none;stroke:#000000;paint-order:fill markers stroke"
     id="path7" /><path
     d="M 0.37154749,4.5783353 4.0475475,0.49633532 m 0.4507,3.45399998 -4.12600001,4.583 m 0,3.9539997 4.12600001,-4.5829997 m 0,3.9539997 -4.12600001,4.583 m 0,3.954 4.12600001,-4.583 m 0,3.954 -4.12600001,4.583 m 0,3.954 4.12600001,-4.583 m 0,3.954 -4.12600001,4.583 m 0.3742,3.539 5.03600001,-5.593 m 3.56,0 -5.036,5.593 m 3.56,0 5.0359995,-5.593 m 3.56,0 -5.036,5.593 m 3.56,0 5.036,-5.593 m 3.56,0 -5.036,5.593 m 3.56,0 5.036,-5.593 m 3.56,0 -5.036,5.593 m 3.56,0 5.036,-5.593 m 3.56,0 -5.036,5.593 m 3.56,0 5.036,-5.593 m 3.56,0 -5.036,5.593 m 3.56,0 5.036,-5.593 m 3.56,0 -5.036,5.593 m 3.56,0 5.036,-5.593 m 3.56,0 -5.036,5.593 m 3.56,0 5.036,-5.593 m 3.56,0 -5.036,5.593 m 3.56,0 5.036,-5.593 m 3.56,0 -5.036,5.593 m 3.56,0 5.036,-5.593 m 3.56,0 -5.036,5.593 m 3.56,0 5.036,-5.593 m 3.56,0 -5.036,5.593 m 3.56,0 5.036,-5.593 m 3.56,0 -5.036,5.593 m 3.56,0 5.036,-5.593 m 3.560003,0 -5.036003,5.593 m 3.560003,0 5.036,-5.593 m 3.56,0 -5.036,5.593 m 3.56,0 4.022,-4.467"
     id="path8"
     style="fill:none;stroke:#000000" /><g
     id="g11"
     transform="translate(0.17491517,0.05199331)"><circle
       style="font-variation-settings:normal;opacity:1;fill:none;fill-opacity:1;fill-rule:evenodd;stroke:#000000;stroke-width:0.948231;stroke-linecap:butt;stroke-linejoin:miter;stroke-miterlimit:4;stroke-dasharray:none;stroke-dashoffset:0;stroke-opacity:1;stop-color:#000000;stop-opacity:1"
       id="path10"
       cx="72.125183"
       cy="24.941341"
       r="4.3720999" /><circle
       id="path11"
       style="fill:#000000;stroke:none;stroke-width:0.217913"
       cx="72.125183"
       cy="24.941341"
       r="1.2354167" /></g><g
     id="g14"
     transform="translate(26.04782,0.04487717)"><circle
       style="font-variation-settings:normal;opacity:1;fill:none;fill-opacity:1;fill-rule:evenodd;stroke:#000000;stroke-width:0.948231;stroke-linecap:butt;stroke-linejoin:miter;stroke-miterlimit:4;stroke-dasharray:none;stroke-dashoffset:0;stroke-opacity:1;stop-color:#000000;stop-opacity:1"
       id="circle13"
       cx="72.125183"
       cy="24.941341"
       r="4.3720999" /><circle
       id="circle14"
       style="fill:#000000;stroke:none;stroke-width:0.217913"
       cx="72.125183"
       cy="24.941341"
       r="1.2354167" /></g></svg>
