<?xml version="1.0" encoding="UTF-8" standalone="no"?>
<!-- Created with Inkscape (http://www.inkscape.org/) -->

<svg
   width="121.94754mm"
   height="63.053257mm"
   viewBox="0 0 121.94754 63.053257"
   version="1.1"
   id="svg1"
   inkscape:version="1.4.2 (ebf0e940, 2025-05-08)"
   sodipodi:docname="1661t.svg"
   xml:space="preserve"
   xmlns:inkscape="http://www.inkscape.org/namespaces/inkscape"
   xmlns:sodipodi="http://sodipodi.sourceforge.net/DTD/sodipodi-0.dtd"
   xmlns="http://www.w3.org/2000/svg"
   xmlns:svg="http://www.w3.org/2000/svg"><sodipodi:namedview
     id="namedview1"
     pagecolor="#ffffff"
     bordercolor="#000000"
     borderopacity="0.25"
     inkscape:showpageshadow="2"
     inkscape:pageopacity="0.0"
     inkscape:pagecheckerboard="0"
     inkscape:deskcolor="#d1d1d1"
     inkscape:document-units="mm"
     inkscape:zoom="2.1083422"
     inkscape:cx="173.35896"
     inkscape:cy="115.01928"
     inkscape:current-layer="layer1" /><defs
     id="defs1" /><g
     inkscape:label="Layer 1"
     inkscape:groupmode="layer"
     id="layer1"
     transform="translate(-12.666652,-7.4432538)"><path
       style="fill:#ffffff;fill-rule:evenodd;stroke:#000000;stroke-width:0.600001;stroke-linejoin:round;stroke-dashoffset:4.41473;paint-order:stroke fill markers"
       d="M 12.666652,38.522916 H 134.61419"
       id="path5" /><g
       id="path6"
       style="opacity:1"><path
         style="baseline-shift:baseline;display:inline;overflow:visible;vector-effect:none;fill-rule:evenodd;stroke-linejoin:round;stroke-dashoffset:4.41473;paint-order:stroke fill markers;enable-background:accumulate;stop-color:#000000;stop-opacity:1"
         d="M 73.240234,8.2089844 V 68.835937 h 0.800782 V 8.2089844 Z"
         id="path17" /><path
         style="baseline-shift:baseline;display:inline;overflow:visible;vector-effect:none;fill:#ffffff;fill-rule:evenodd;stroke-linejoin:round;stroke-dashoffset:4.41473;paint-order:stroke fill markers;enable-background:accumulate;stop-color:#000000;stop-opacity:1"
         d="M 73.64042,8.2089392 V 68.836891"
         id="path18" /><g
         id="g15"><path
           style="baseline-shift:baseline;display:inline;overflow:visible;vector-effect:none;stroke-linecap:round;enable-background:accumulate;stop-color:#000000;stop-opacity:1;opacity:1"
           d="m 73.640625,7.4433594 -2.683594,2.6835936 a 0.40000001,0.40000001 0 0 0 0,0.564453 0.40000001,0.40000001 0 0 0 0.566406,0 l 2.117188,-2.1171872 2.117187,2.1171872 a 0.40000001,0.40000001 0 0 0 0.566407,0 0.40000001,0.40000001 0 0 0 0,-0.564453 z"
           id="path15" /><path
           style="baseline-shift:baseline;display:inline;overflow:visible;vector-effect:none;stroke-linecap:round;enable-background:accumulate;stop-color:#000000;stop-opacity:1;opacity:1"
           d="m 70.957031,66.353516 a 0.40000001,0.40000001 0 0 0 0,0.566406 l 2.683594,2.683594 2.683594,-2.683594 a 0.40000001,0.40000001 0 0 0 0,-0.566406 0.40000001,0.40000001 0 0 0 -0.566407,0 l -2.117187,2.117187 -2.117188,-2.117187 a 0.40000001,0.40000001 0 0 0 -0.566406,0 z"
           id="path16" /></g></g><text
       xml:space="preserve"
       style="font-style:italic;font-size:8.81944px;line-height:normal;font-family:'STIX Two Text';-inkscape-font-specification:'STIX Two Text, Italic';font-variant-ligatures:none;text-decoration-color:#000000;fill:#000000;stroke-width:0.449792;-inkscape-stroke:none;stop-color:#000000"
       x="99.061958"
       y="26.019449"
       id="text14"><tspan
         sodipodi:role="line"
         id="tspan14"
         style="stroke-width:0.449792"
         x="99.061958"
         y="26.019449" /></text><text
       xml:space="preserve"
       style="font-style:italic;font-size:8.81944px;line-height:normal;font-family:'STIX Two Text';-inkscape-font-specification:'STIX Two Text, Italic';font-variant-ligatures:none;text-decoration-color:#000000;fill:#000000;stroke-width:0.449792;-inkscape-stroke:none;stop-color:#000000"
       x="88.248833"
       y="-25.382078"
       id="text15"><tspan
         sodipodi:role="line"
         id="tspan15"
         style="stroke-width:0.449792"
         x="88.248833"
         y="-25.382078" /></text><rect
       style="opacity:1;fill:#ababab;fill-opacity:1;fill-rule:evenodd;stroke:#000000;stroke-width:2;stroke-linejoin:miter;stroke-dasharray:none;paint-order:stroke fill markers"
       id="rect1"
       width="20.164553"
       height="20.164553"
       x="33.999592"
       y="28.440639"
       rx="0.019309999"
       ry="0" /><path
       style="opacity:1;fill:#ababab;fill-opacity:1;fill-rule:evenodd;stroke:#000000;stroke-width:0.5;stroke-linejoin:miter;stroke-dasharray:none;paint-order:stroke fill markers"
       d="M 33.278759,27.440639 V 13.785621"
       id="path1" /><path
       style="opacity:1;fill:#ababab;fill-opacity:1;fill-rule:evenodd;stroke:#000000;stroke-width:0.499999;stroke-linejoin:miter;stroke-dasharray:none;paint-order:stroke fill markers"
       d="M 54.884977,27.440639 V 13.785621"
       id="path2"
       sodipodi:nodetypes="cc" /><g
       id="path4"
       style="opacity:1"><path
         style="baseline-shift:baseline;display:inline;overflow:visible;vector-effect:none;fill-rule:evenodd;stroke-linejoin:round;stroke-dashoffset:4.41473;paint-order:stroke fill markers;enable-background:accumulate;stop-color:#000000;stop-opacity:1"
         d="m 35.255859,17.367187 v 0.5 h 17.652344 v -0.5 z"
         id="path25" /><path
         style="baseline-shift:baseline;display:inline;overflow:visible;vector-effect:none;fill:#ffffff;fill-rule:evenodd;stroke-linejoin:round;stroke-dashoffset:4.41473;paint-order:stroke fill markers;enable-background:accumulate;stop-color:#000000;stop-opacity:1"
         d="M 52.908428,17.61732 H 35.255308"
         id="path26" /><g
         id="g19"><g
           id="path19"
           style="opacity:1"><path
             style="baseline-shift:baseline;display:inline;overflow:visible;vector-effect:none;fill-rule:evenodd;enable-background:accumulate;stop-color:#000000;stop-opacity:1"
             d="m 54.350928,17.61732 -2.1625,1.25 v -2.5 z"
             id="path20" /><path
             style="baseline-shift:baseline;display:inline;overflow:visible;vector-effect:none;fill-rule:evenodd;enable-background:accumulate;stop-color:#000000;stop-opacity:1"
             d="m 52.021484,16.078125 v 3.078125 l 2.66211,-1.539063 z m 0.333985,0.578125 1.662109,0.960937 -1.662109,0.960938 z"
             id="path21" /></g><g
           id="path22"
           style="opacity:1"><path
             style="baseline-shift:baseline;display:inline;overflow:visible;vector-effect:none;fill-rule:evenodd;enable-background:accumulate;stop-color:#000000;stop-opacity:1"
             d="m 33.812808,17.61732 2.1625,-1.25 v 2.5 z"
             id="path23" /><path
             style="baseline-shift:baseline;display:inline;overflow:visible;vector-effect:none;fill-rule:evenodd;enable-background:accumulate;stop-color:#000000;stop-opacity:1"
             d="m 36.142578,16.078125 -2.662109,1.539062 2.662109,1.539063 z m -0.333984,0.578125 v 1.921875 l -1.66211,-0.960938 z"
             id="path24" /></g></g></g><path
       d="m 43.067636,15.476154 q -0.299861,0 -0.546805,-0.149931 -0.238125,-0.15875 -0.388056,-0.485069 -0.141111,-0.326319 -0.141111,-0.846666 0,-0.590903 0.185209,-1.10243 0.185208,-0.520347 0.493888,-0.908403 0.3175,-0.396874 0.714375,-0.61736 0.396875,-0.220486 0.820208,-0.220486 0.335138,0 0.537986,0.132291 0.202847,0.132292 0.343958,0.335139 h 0.03528 l 0.30868,-0.405694 h 0.449791 l -0.652638,3.122081 q 0,0 -0.02646,0.114653 -0.01764,0.114653 -0.01764,0.211667 0,0.08819 0.03528,0.141111 0.03528,0.0441 0.132292,0.0441 0.141111,0 0.264583,-0.07937 0.123472,-0.08819 0.220486,-0.194028 0.105833,-0.114652 0.15875,-0.185208 l 0.176389,0.132292 q -0.167569,0.255763 -0.352778,0.476249 -0.185208,0.211667 -0.405694,0.343959 -0.220486,0.123472 -0.493889,0.123472 -0.229305,0 -0.352777,-0.09701 -0.123472,-0.105833 -0.123472,-0.3175 0,-0.09701 0.01764,-0.202847 0.02646,-0.114653 0.03528,-0.220486 h -0.05292 q -0.32632,0.423333 -0.670278,0.643819 -0.343958,0.211667 -0.705555,0.211667 z m 0.3175,-0.582083 q 0.273402,0 0.520347,-0.141111 0.246944,-0.149931 0.432152,-0.396875 0.194028,-0.255764 0.273403,-0.573264 0.0441,-0.176389 0.105833,-0.458611 0.07056,-0.291041 0.114653,-0.573263 0.05292,-0.291042 0.05292,-0.458611 0,-0.299861 -0.185209,-0.555625 -0.185208,-0.255764 -0.546805,-0.255764 -0.299861,0 -0.555625,0.202847 -0.255763,0.202848 -0.440972,0.546806 -0.185208,0.343958 -0.291041,0.77611 -0.09701,0.423334 -0.09701,0.873125 0,0.590902 0.167569,0.802569 0.176389,0.211667 0.449792,0.211667 z"
       id="text7"
       style="font-style:italic;font-size:8.81944px;font-family:'STIX Two Text';-inkscape-font-specification:'STIX Two Text, Italic';font-variant-ligatures:none;stroke-width:0.449792"
       aria-label="a" /><path
       style="opacity:1;fill:#ababab;fill-opacity:1;fill-rule:evenodd;stroke:#000000;stroke-width:0.5;stroke-linejoin:miter;stroke-dasharray:none;paint-order:stroke fill markers"
       d="M 32.999592,49.326025 H 19.344574"
       id="path8" /><path
       style="opacity:1;fill:#ababab;fill-opacity:1;fill-rule:evenodd;stroke:#000000;stroke-width:0.499999;stroke-linejoin:miter;stroke-dasharray:none;paint-order:stroke fill markers"
       d="M 32.999592,27.719807 H 19.344574"
       id="path9"
       sodipodi:nodetypes="cc" /><g
       id="path10"
       style="opacity:1"><path
         style="baseline-shift:baseline;display:inline;overflow:visible;vector-effect:none;fill-rule:evenodd;stroke-linejoin:round;stroke-dashoffset:4.41473;paint-order:stroke fill markers;enable-background:accumulate;stop-color:#000000;stop-opacity:1"
         d="m 22.925781,29.697266 v 17.652343 h 0.5 V 29.697266 Z"
         id="path33" /><path
         style="baseline-shift:baseline;display:inline;overflow:visible;vector-effect:none;fill:#ffffff;fill-rule:evenodd;stroke-linejoin:round;stroke-dashoffset:4.41473;paint-order:stroke fill markers;enable-background:accumulate;stop-color:#000000;stop-opacity:1"
         d="m 23.176273,29.696356 v 17.65312"
         id="path34" /><g
         id="g27"><g
           id="path27"
           style="opacity:1"><path
             style="baseline-shift:baseline;display:inline;overflow:visible;vector-effect:none;fill-rule:evenodd;enable-background:accumulate;stop-color:#000000;stop-opacity:1"
             d="m 23.176273,28.253856 1.25,2.1625 h -2.5 z"
             id="path28" /><path
             style="baseline-shift:baseline;display:inline;overflow:visible;vector-effect:none;fill-rule:evenodd;enable-background:accumulate;stop-color:#000000;stop-opacity:1"
             d="m 23.175781,27.919922 -1.539062,2.664062 h 3.078125 z m 0,0.667969 0.960938,1.662109 h -1.921875 z"
             id="path29" /></g><g
           id="path30"
           style="opacity:1"><path
             style="baseline-shift:baseline;display:inline;overflow:visible;vector-effect:none;fill-rule:evenodd;enable-background:accumulate;stop-color:#000000;stop-opacity:1"
             d="m 23.176273,48.791976 -1.25,-2.1625 h 2.5 z"
             id="path31" /><path
             style="baseline-shift:baseline;display:inline;overflow:visible;vector-effect:none;fill-rule:evenodd;enable-background:accumulate;stop-color:#000000;stop-opacity:1"
             d="m 21.636719,46.462891 1.539062,2.662109 1.539063,-2.662109 z m 0.578125,0.333984 h 1.921875 l -0.960938,1.662109 z"
             id="path32" /></g></g></g><path
       style="opacity:1;fill:#ababab;fill-opacity:1;fill-rule:evenodd;stroke:#000000;stroke-width:0.5;stroke-linejoin:miter;stroke-dasharray:none;paint-order:stroke fill markers"
       d="M 33.278759,63.231043 V 49.576025"
       id="path11" /><path
       d="m 18.543483,37.527971 q -0.299861,0 -0.546805,-0.14993 -0.238125,-0.15875 -0.388055,-0.485069 -0.141111,-0.326319 -0.141111,-0.846666 0,-0.590903 0.185208,-1.10243 0.185208,-0.520347 0.493888,-0.908403 0.3175,-0.396874 0.714375,-0.61736 0.396875,-0.220486 0.820208,-0.220486 0.335139,0 0.537986,0.132291 0.202847,0.132292 0.343958,0.335139 h 0.03528 l 0.30868,-0.405694 h 0.449792 l -0.652639,3.122081 q 0,0 -0.02646,0.114653 -0.01764,0.114653 -0.01764,0.211667 0,0.08819 0.03528,0.141111 0.03528,0.0441 0.132291,0.0441 0.141111,0 0.264583,-0.07937 0.123473,-0.08819 0.220486,-0.194028 0.105834,-0.114653 0.15875,-0.185208 l 0.176389,0.132292 q -0.167569,0.255763 -0.352777,0.476249 -0.185209,0.211667 -0.405695,0.343958 -0.220486,0.123473 -0.493888,0.123473 -0.229306,0 -0.352778,-0.09701 -0.123472,-0.105834 -0.123472,-0.3175 0,-0.09701 0.01764,-0.202847 0.02646,-0.114653 0.03528,-0.220486 h -0.05292 q -0.326319,0.423333 -0.670278,0.643819 -0.343958,0.211666 -0.705555,0.211666 z m 0.3175,-0.582083 q 0.273403,0 0.520347,-0.141111 0.246944,-0.14993 0.432153,-0.396874 0.194027,-0.255764 0.273402,-0.573264 0.0441,-0.176389 0.105834,-0.458611 0.07055,-0.291041 0.114652,-0.573263 0.05292,-0.291042 0.05292,-0.458611 0,-0.299861 -0.185208,-0.555625 -0.185209,-0.255764 -0.546806,-0.255764 -0.299861,0 -0.555624,0.202847 -0.255764,0.202847 -0.440972,0.546806 -0.185209,0.343958 -0.291042,0.77611 -0.09701,0.423333 -0.09701,0.873125 0,0.590902 0.16757,0.802569 0.176388,0.211666 0.449791,0.211666 z"
       id="text10"
       style="font-style:italic;font-size:8.81944px;font-family:'STIX Two Text';-inkscape-font-specification:'STIX Two Text, Italic';font-variant-ligatures:none;stroke-width:0.449792"
       aria-label="a" /><g
       id="path12"
       style="opacity:1"><path
         style="baseline-shift:baseline;display:inline;overflow:visible;vector-effect:none;fill-rule:evenodd;stroke-linejoin:round;stroke-dashoffset:4.41473;paint-order:stroke fill markers;enable-background:accumulate;stop-color:#000000;stop-opacity:1"
         d="m 35.341797,58.597656 v 0.5 h 36.148437 v -0.5 z"
         id="path41" /><path
         style="baseline-shift:baseline;display:inline;overflow:visible;vector-effect:none;fill:#ffffff;fill-rule:evenodd;stroke-linejoin:round;stroke-dashoffset:4.41473;paint-order:stroke fill markers;enable-background:accumulate;stop-color:#000000;stop-opacity:1"
         d="M 71.49112,58.84762 H 35.341494"
         id="path42" /><g
         id="g35"><g
           id="path35"
           style="opacity:1"><path
             style="baseline-shift:baseline;display:inline;overflow:visible;vector-effect:none;fill-rule:evenodd;enable-background:accumulate;stop-color:#000000;stop-opacity:1"
             d="m 72.935039,58.84762 -2.164627,1.25123 v -2.50246 z"
             id="path36" /><path
             style="baseline-shift:baseline;display:inline;overflow:visible;vector-effect:none;fill-rule:evenodd;enable-background:accumulate;stop-color:#000000;stop-opacity:1"
             d="m 70.603516,57.306641 v 3.082031 l 2.664062,-1.541016 z m 0.333984,0.578125 1.664062,0.96289 -1.664062,0.962891 z"
             id="path37" /></g><g
           id="path38"
           style="opacity:1"><path
             style="baseline-shift:baseline;display:inline;overflow:visible;vector-effect:none;fill-rule:evenodd;enable-background:accumulate;stop-color:#000000;stop-opacity:1"
             d="m 33.897575,58.84762 2.164627,-1.25123 v 2.50246 z"
             id="path39" /><path
             style="baseline-shift:baseline;display:inline;overflow:visible;vector-effect:none;fill-rule:evenodd;enable-background:accumulate;stop-color:#000000;stop-opacity:1"
             d="m 36.228516,57.306641 -2.664063,1.541015 2.664063,1.541016 z m -0.333985,0.580078 v 1.921875 l -1.664062,-0.960938 z"
             id="path40" /></g></g></g><g
       id="g13"
       transform="translate(-1.3474678,3.6494478)"><path
         d="m 53.405339,64.69377 q -0.458611,0 -0.784931,-0.352778 -0.326319,-0.352778 -0.326319,-1.155347 0,-0.564444 0.16757,-1.067152 0.176388,-0.511527 0.476249,-0.908402 0.308681,-0.396875 0.705555,-0.617361 0.405695,-0.229305 0.864306,-0.229305 0.291041,0 0.520347,0.09701 0.238124,0.08819 0.388055,0.255763 h 0.02646 l 0.282222,-1.481666 q 0,0 0.0088,-0.09701 0.01764,-0.09701 0.01764,-0.185209 0,-0.114652 -0.05292,-0.194027 -0.05292,-0.07938 -0.255764,-0.07938 -0.07937,0 -0.176389,0.0088 -0.08819,0.0088 -0.08819,0.0088 v -0.229306 l 1.208263,-0.09701 h 0.194028 l -0.978958,5.150553 q 0,0 -0.02646,0.141111 -0.01764,0.141111 -0.01764,0.229306 0,0.08819 0.03528,0.132291 0.0441,0.03528 0.132291,0.03528 0.211667,0 0.379236,-0.167569 0.176389,-0.16757 0.264583,-0.291042 l 0.176389,0.132292 q -0.14993,0.211666 -0.3175,0.432152 -0.167569,0.220486 -0.388055,0.370417 -0.211667,0.141111 -0.502708,0.141111 -0.255764,0 -0.388055,-0.123472 -0.132292,-0.132292 -0.132292,-0.335139 0,-0.07937 0.01764,-0.185208 0.01764,-0.114653 0.02646,-0.194028 h -0.07055 q -0.3175,0.396875 -0.661458,0.62618 -0.335139,0.229306 -0.723194,0.229306 z m 0.30868,-0.582083 q 0.291042,0 0.546805,-0.149931 0.255764,-0.15875 0.432153,-0.405694 0.185208,-0.246944 0.255764,-0.520347 0.123472,-0.520347 0.185208,-0.917222 0.06174,-0.396875 0.06174,-0.590902 0,-0.255764 -0.09701,-0.440972 -0.08819,-0.185208 -0.255764,-0.282222 -0.15875,-0.105834 -0.379236,-0.105834 -0.317499,0 -0.573263,0.211667 -0.255764,0.202847 -0.440972,0.546805 -0.185208,0.343958 -0.282222,0.767292 -0.09701,0.423333 -0.09701,0.855485 0,0.599722 0.176389,0.820208 0.185208,0.211667 0.46743,0.211667 z"
         id="text12"
         style="font-style:italic;font-size:8.81944px;font-family:'STIX Two Text';-inkscape-font-specification:'STIX Two Text, Italic';font-variant-ligatures:none;stroke-width:0.449792"
         aria-label="d" /><path
         d="m 59.670799,66.847061 h -2.441224 v -0.197556 q 0.500945,0 0.705556,-0.105833 0.204612,-0.105833 0.204612,-0.366889 v -2.984502 q 0,-0.183445 -0.04939,-0.261056 -0.04939,-0.08467 -0.183445,-0.08467 -0.07055,0 -0.197555,0.01411 -0.127001,0.01411 -0.268112,0.04233 -0.141111,0.02117 -0.254,0.05645 v -0.232834 l 1.368779,-0.388056 h 0.204611 v 3.838225 q 0,0.261056 0.211667,0.366889 0.211667,0.105833 0.6985,0.105833 z"
         id="text13"
         style="font-size:7.05556px;font-family:'STIX Two Text';-inkscape-font-specification:'STIX Two Text, Normal';font-variant-ligatures:none;stroke-width:0.449792"
         aria-label="1" /></g></g></svg>
