<svg height="2515.142262pt" preserveAspectRatio="xMidYMid meet" viewBox="0 0 1357.159021 2515.142262" width="1357.159021pt" xmlns="http://www.w3.org/2000/svg"><g transform="matrix(.1 0 0 -.1 -35.013895 2875.699468)"><path d="m2333 28749c-38-11-63-46-39-55 8-3 40 0 71 6s58 10 60 8c3-2-14-26-35-52-81-98-68-129 75-181 38-13 76-31 84-40 13-13 13-17-4-35s-127-58-252-90c-53-13-56-30-5-30 103 0 257 42 300 82 53 51 11 124-93 162-112 40-113 41-62 102 51 59 58 76 44 105-11 20-20 24-62 26-28 1-65-3-82-8z"/><path d="m1983 28721c-60-37-123-162-117-231 2-14-4-40-13-59-18-39-3-68 17-31 12 22 12 22 26 1 51-72 212-64 238 12 9 24 6 31-17 55-26 25-33 27-112 27-54 0-85 4-85 11 0 28 34 104 61 137 21 26 41 38 71 44 50 10 58 25 23 41-36 17-55 15-92-7zm75-277c30-8 23-27-14-37-22-6-41-4-70 8-38 17-38 18-14 25 32 10 69 11 98 4z"/><path d="m1317 28634c-85-63-127-101-125-111 5-29 24-25 92 22 36 25 68 45 71 45s-10-24-29-52c-74-117-94-182-60-195 19-7 64 16 64 33 0 7-5 14-12 16-14 5 15 58 109 199 37 55 63 105 61 115-7 39-44 23-171-72z"/><path d="m1610 28713c-35-13-71-47-106-100-33-49-38-66-39-113 0-77 19-110 75-126 25-8 58-14 73-14 41 0 93 25 112 54 16 24 16 28 1 51-26 39-109 43-190 10-17-8-19-5-13 30 9 53 55 125 96 149 28 16 39 17 62 9 36-14 46-1 25 32-16 25-57 32-96 18zm50-283c-8-5-33-10-55-10-29 0-36 3-25 10 8 5 33 10 55 10 29 0 36-3 25-10z"/><path d="m738 28683c-9-10-26-39-38-65-20-44-25-47-68-53-75-10-117-28-117-50 0-11 5-19 12-18 7 2 38 6 69 9 54 7 56 6 46-13-7-13-26-23-50-27-51-8-72-30-43-45 11-6 27-11 36-11 12 0 15-5 10-17-31-77-30-103 3-103 19 0 60 39 106 101 15 20 38 39 51 42 29 5 30 1 9-48-14-33-14-40-1-53 21-21 34-9 67 64 21 46 34 64 48 64 33 0 82 21 82 35 0 8-8 19-17 24-15 9-12 10 15 11 34 0 43 14 16 24-9 3-29 6-45 6-28 0-29 2-27 43 3 39 1 42-23 45-21 2-31-5-52-37-22-33-33-41-57-41h-30l16 38c30 67 18 116-18 75zm76-178c-6-16-24-21-24-7 0 11 11 22 21 22 5 0 6-7 3-15zm99 8c-7-2-19-2-25 0-7 3-2 5 12 5s19-2 13-5zm-173-13c0-12-28-25-36-17-9 9 6 27 22 27 8 0 14-5 14-10z"/><path d="m8699 28372c-126-80-241-316-242-497 0-79 20-130 72-179 26-25 31-27 37-13 3 10-6 31-23 53-26 35-28 44-28 123 1 151 80 335 192 451 35 35 61 70 58 77-7 19-16 16-66-15z"/><path d="m10547 28363c-15-14-5-30 31-50 125-71 165-199 103-328-60-125-221-247-349-263-52-6-57-9-57-32 0-22 5-25 38-28 90-8 221 61 335 174 146 146 166 329 48 452-53 55-130 94-149 75z"/><path d="m5103 28272c-57-2-85-7-94-18-20-25 5-38 79-42l67-4-3-132c-2-72 1-157 6-188 10-64 6-68-53-68-25 0-35-5-40-20-11-36 3-43 79-36 101 9 136 16 180 32 91 35 127 89 39 59-22-8-71-17-108-21l-68-7 7 79c7 78 36 307 39 310 1 1 49 8 107 14 122 14 137 17 124 30-10 9-228 17-361 12z"/><path d="m9983 28232c-26-4-47-27-38-42 3-5 23-10 43-10 63-1 138-44 154-90 5-13-14-15-138-15-117 0-146-3-154-15-20-32 8-40 146-40 83 0 134-4 134-10 0-5-18-28-40-50-51-51-153-103-192-98-16 3-31 1-34-3-8-14 40-39 76-39 76 0 210 93 244 169 16 34 23 40 54 43 50 4 52 25 3 33-34 6-40 10-45 39-6 32-52 84-92 104-30 15-95 28-121 24z"/><path d="m7412 28220c-106-11-178-35-198-65-36-55 14-88 191-130 140-32 169-43 155-60-18-22-105-54-164-61-74-9-74 9-1 42 58 27 64 44 14 44-54 0-119-47-119-86 0-42 27-57 94-51 114 9 236 72 236 121 0 42-40 63-193 101-178 45-187 54-72 74 89 15 359 31 533 31 14 0 16 26 2 35-17 10-389 14-478 5z"/><path d="m9513 28171c-67-43-135-121-166-190-25-57-17-115 21-147 56-49 222-57 315-16 57 25 67 58 15 48-71-14-204-18-245-7-75 20-79 63-16 158 42 63 108 120 160 138 48 17 53 49 8 53-22 2-48-8-92-37z"/><path d="m1957 28194c-1-1-254-4-562-8-308-3-636-9-730-11-236-7-384-32-282-48 17-3 95-3 172-1s678 6 1335 10c984 5 1196 8 1198 19 5 19-25 26-166 35-96 7-956 10-965 4z"/><path d="m9002 28188c-26-26-13-38 41-38 51 0 77-12 77-36 0-6-25-28-55-48-57-38-70-67-37-84 9-5 51-17 92-26 102-22 109-28 71-55-36-26-162-79-210-89-46-10-50-28-9-36 64-12 211 42 274 101 54 50 14 104-95 126l-64 12 36 28c20 15 41 37 47 47 16 30 1 70-34 91s-115 26-134 7z"/><path d="m5668 28090c-110-59-126-185-28-224 88-35 193-6 329 91l24 18-6-64c-8-71 1-91 38-91 16 0 44 23 87 71l65 71 1-38c4-94 76-120 165-60 34 23 36 24 42 6 8-24 82-60 125-60 45 0 115 35 140 70 27 38 25 72-5 109-40 47-115 63-212 47-46-8-93-52-93-87 0-21-56-61-80-56-12 2-15 19-15 82 0 80 0 80-28 83-24 3-39-8-95-68l-67-72-5 53c-4 47-8 55-31 63-22 7-36 2-89-33-108-72-139-85-207-85-47-1-67 3-80 17-17 16-17 19 0 50 30 55 104 86 134 56 14-14 33-3 33 20 0 49-76 66-142 31zm912-125c37-19 38-37 4-64-38-30-89-37-120-17-31 21-38 38-30 71 6 23 11 25 62 25 30 0 68-7 84-15z"/><path d="m3083 27877c-1-111-7-290-13-397-20-399-22-437-29-530l-6-95-60-1c-33-1-130-5-215-8s-270-8-410-12c-140-3-289-8-330-10-41-3-394-7-783-8-390-2-711-7-714-10-12-12 27-18 252-37 180-15 1306-5 1805 16 195 8 377 15 404 15h49l-7-152c-4-84-9-182-11-218-8-117-14-291-21-585-4-159-7-291-8-291 0-1-44 2-96 7-195 17-599 24-1430 23-527 0-866-4-884-10-16-6-31-15-34-22-3-9 192-12 850-12 975 0 1268-7 1539-36l56-6 6-71c6-72 23-104 50-94 11 4 13 21 9 81-5 75-4 76 19 74 32-4 40 31 9 39-12 3-25 15-29 27-15 37 2 670 29 1126 5 91 15 255 20 365 6 110 13 229 15 265 14 234 27 589 24 663-4 86-12 106-44 107-6 0-11-76-12-203z"/><path d="m6761 28057c-34-17-61-56-68-99-5-33-2-41 29-72 42-42 104-54 197-38 46 8 78 8 110 0 57-13 145 3 193 35 38 26 49 69 23 97-20 22-88 40-150 40-46 0-114-22-116-37 0-4-2-21-3-36-1-16-8-32-15-36-27-17-127-22-167-9-33 11-39 18-42 45-4 40 26 73 68 73 36 0 38 13 8 34-27 19-36 19-67 3zm416-108 28-11-29-15c-24-12-30-13-37-2-6 11-11 11-21 1-26-26-78-4-78 32 0 10 108 6 137-5z"/><path d="m2713 27902c-6-4-30-61-53-127s-67-180-97-254c-59-145-62-174-23-179 18-2 55 20 138 83 98 74 132 95 132 81 0-10-52-231-56-237-8-14 8-39 27-39 25 0 32 16 65 152 29 123 28 159-7 181-26 16-62 1-155-67-49-35-90-63-91-62s25 71 59 156c62 159 88 243 88 285 0 27-10 37-27 27z"/><path d="m11074 27892c-20-13-35-52-29-72 7-23 37-42 51-32 15 10 38 88 30 101-8 12-36 14-52 3z"/><path d="m643 27813c-4-9-1-46 5-82 7-36 19-106 28-156 37-216 90-219 183-8 22 50 53 118 70 151 26 51 28 62 16 72-36 30-71-20-150-210-11-25-25-54-32-64-16-25-16-23-47 134-27 137-40 180-56 180-6 0-14-8-17-17z"/><path d="m1928 27768c-9-7-44-58-78-113s-63-101-64-102c-2-2-27 15-56 37-63 47-96 50-139 15-65-56-80-176-26-222 47-41 89-29 171 49l42 40 68-32c95-44 244-75 244-51 0 5-24 21-52 35-29 14-60 30-68 35s-45 23-82 40c-38 16-68 32-68 35 0 8 111 188 129 209 19 23 2 43-21 25zm-228-238 45-40-47-45c-70-67-118-59-118 20 0 50 34 105 65 105 6-1 30-18 55-40z"/><path d="m7150 27749c-140-4-343-10-450-14s-527-10-932-14c-758-6-785-8-749-43 9-10 135-13 559-13 485 0 756 4 1312 20 85 2 270 7 410 10 303 7 483 14 528 21 24 4 32 10 30 22-3 15-25 17-228 18-124 0-340-3-480-7z"/><path d="m1015 27478c-38-13-80-53-95-87-13-32 5-98 31-114 28-18 86 2 134 46 40 35 48 49 52 87 4 34 1 49-10 58-22 18-77 23-112 10zm75-57c0-25-35-68-70-86-42-22-47-19-52 26-3 38-1 42 32 59 47 26 90 26 90 1z"/><path d="m2281 27387c-6-14-31-69-56-122-66-137-47-143 41-14 37 53 47 78 48 110 1 48-19 64-33 26z"/><path d="m1240 27310c-41-81-91-233-80-244 13-13 13-12 83 118 32 62 47 101 47 128 0 51-23 50-50-2z"/><path d="m6466 26871c-12-18 1-28 46-35 67-11 128-42 128-65 0-12-25-41-61-73-73-63-84-80-67-108 23-36 84-53 208-56 63-2 106-1 95 2-36 10-230 76-234 80-3 3 18 26 46 52 82 75 83 137 5 180-48 27-155 42-166 23z"/><path d="m5773 26703c-32-43-78-109-103-147l-45-68-5 51c-6 52-14 68-40 71-38 5-55-4-111-57l-59-56 6 34c3 19 7 44 10 56 6 33-13 37-30 6-8-16-28-77-46-136-24-84-28-112-19-123 18-22 45 0 94 76 51 79 124 155 137 142 5-5 4-31-3-61-6-29-8-63-5-77 5-19-10-49-75-147-237-359-359-550-354-555 3-4 9-2 13 4s66 95 137 198c72 103 135 195 140 204 54 86 170 259 180 267 6 6 47 41 89 80 128 114 121 113 112 14-13-145-13-144 9-144 28 0 47 62 49 163 1 77-1 85-23 103-26 21-53 18-84-9-35-31-25-4 34 87 33 51 58 96 55 98-2 3-31-30-63-74z"/><path d="m8124 26686c-27-35-69-96-94-135-24-39-60-82-80-95-19-13-53-41-74-62-25-25-37-32-32-19 26 70 13 137-19 104-17-18-68-207-61-225 8-21 50-17 71 6 54 59 13-17-181-342-68-113-124-209-124-212 0-26 35 17 127 157 59 89 108 163 108 164 4 10 308 34 540 43 154 6 312 13 350 15 39 2 112 4 163 4 74 1 94 4 99 16 3 9 3 18 1 21-29 28-867-4-1048-41-36-7-66-12-68-10s17 34 41 72c24 37 58 90 76 117 28 44 31 47 31 23 0-16 8-30 21-37 24-13 37-6 139 75 36 29 75 58 88 64 19 10 22 9 22-6 0-10-6-38-14-63-14-48-5-100 18-100 15 0 45 86 53 153 5 38 2 51-13 68-31 34-85 13-205-81l-27-20 3 64c3 60 8 73 75 186 40 67 75 130 77 141 10 36-15 19-63-45z"/><path d="m8913 26743c-26-10-12-33 27-43 23-6 47-21 56-35 14-21 14-27 1-52-8-15-27-39-42-53-35-32-56-74-49-95 14-34 58-45 191-45 125 0 169 9 148 29-13 12-116 31-174 31-25 0-56 3-68 6-21 6-21 8 17 58 61 80 53 153-20 191-29 15-63 18-87 8z"/><path d="m6313 26686c-17-18-62-85-102-149s-79-121-86-127c-16-13-17-6-33 159-11 104-20 130-43 116-17-11-6-270 15-319 12-29 20-36 44-36 38 0 64 30 152 170 39 63 79 122 89 130 25 22 44 59 37 76-9 24-43 15-73-20z"/><path d="m10363 26582c-21-26-72-102-113-167-54-87-98-143-159-202-47-46-86-82-87-80-1 1 9 34 22 74 25 74 23 106-5 101-17-3-110-234-111-275 0-28 34-31 68-7 12 8 22 12 22 9s-35-58-78-123c-106-159-222-347-222-361 0-6 8-11 18-10 11 0 88 108 226 315 115 173 211 313 213 310 2-2-3-18-11-35-21-40-20-68 2-80 21-11 32-5 144 80 40 30 78 59 84 62 8 5 15-14 23-56 18-105 82-133 201-88 27 11 50 15 50 10s-4-9-9-9c-12 0-94-116-108-153-16-45-16-123 2-156 8-16 28-34 45-41 51-21 105 1 171 70 120 125 141 251 53 325l-24 20 73 64c39 34 130 118 201 185 117 110 158 144 144 120-3-5-22-52-43-104s-50-122-65-155c-59-130-60-165-4-165 20 0 163 104 179 131 15 23 23 4 27-58 4-74 25-128 48-128 12 0 15 22 18 126 2 114 1 127-17 143-28 26-55 16-133-49-38-31-68-54-68-51s11 29 24 58c30 66 102 254 111 290 8 32-9 68-32 68-10 0-76-58-148-128-126-124-242-229-271-245-11-6-14 0-14 27 0 42-37 76-85 76-42 0-139-34-163-57-51-48-52-100-2-130 17-9 30-20 30-24 0-20-102-25-118-6-5 6-13 38-17 70-8 63-24 87-59 87-23 0-105-47-143-83-26-23-28-20-13 19 8 20 8 36-1 56-10 25-7 34 32 98 72 116 159 264 159 273 0 22-34 1-67-41zm387-342c0-6-15-27-34-48l-34-37-44 15c-24 8-43 20-42 25 3 32 154 76 154 45zm14-201c52-41 23-142-65-231-55-55-102-66-113-25-18 69 8 137 86 222 28 30 53 55 58 55 4 0 19-9 34-21z"/><path d="m8693 26537c-28-30-61-73-73-98-12-24-39-73-59-109l-36-65-7 45c-3 25-7 88-7 141-1 74-5 100-16 109-12 10-19 10-27 2-17-17-22-181-10-271 13-87 34-117 73-103 42 17 63 48 176 274 74 148 71 165-14 75z"/><path d="m2160 26482c-28-13-36-24-38-49-3-26 0-33 15-33 10 0 24 9 31 20 9 16 23 20 62 20 60 0 106-18 138-53 48-51 17-87-147-170-128-65-152-116-78-171 36-27 130-30 135-4 2 12-7 20-35 27-48 13-78 34-69 49 4 6 43 30 87 53 147 77 200 132 185 193-11 44-63 94-122 116-67 25-118 26-164 2z"/><path d="m1404 26421c-30-18-144-140-144-153 0-4-13-26-29-50s-45-74-66-113c-66-121-60-121-88 7-14 62-31 151-37 198-16 112-18 120-41 120-17 0-19-8-19-73 0-92 44-317 73-377 16-33 29-46 47-48 35-4 63 29 140 163 68 120 152 231 200 265 57 40 23 97-36 61z"/><path d="m6338 26396c-52-19-88-44-88-61 0-8 9-15 20-15 15 0 20-7 20-24 0-33 38-74 74-80 47-8 122 37 149 91 20 37 10 75-22 92-27 15-108 13-153-3zm132-41c17-11-13-56-52-76-48-25-62-24-75 4-25 50-24 56 10 65 41 11 105 15 117 7z"/><path d="m9551 26272c-12-9-27-35-34-57l-14-40-74-3c-95-3-119-9-119-27 0-24 35-35 108-35 61 0 70-2 67-17-2-10-6-42-9-70-7-77 14-68 44 19l26 72 98 18c123 22 136 26 136 43 0 11-20 13-105 8-114-7-119-4-90 47 8 14 14 30 15 36 0 20-28 24-49 6z"/><path d="m1590 26152c-21-17-21-19-5-35 13-14 35-17 108-17 83 0 193 12 240 26 9 3 17 14 17 25 0 18-9 19-169 19-148 0-172-2-191-18z"/><path d="m6880 26141c0-34 58-45 194-37 167 10 211 18 211 36 0 13-30 15-202 18-195 2-203 2-203-17z"/><path d="m5810 26084c-217-6-396-12-397-13-12-5 2-31 20-38 12-4 180-6 372-4 493 5 577 5 600 0 34-7 23 25-15 43-49 24-126 25-580 12z"/><path d="m7200 26059c-97-14-289-60-296-71-4-5 1-17 9-25 14-14 23-14 89 2 89 22 329 93 336 100 8 7-62 4-138-6z"/><path d="m8233 25949c-58-11-83-26-83-51 0-17 4-19 28-14 53 12 131 19 147 12 27-10 2-40-90-102-87-59-106-84-85-109 24-29 225-14 348 26 22 7 32 17 32 31 0 18-4 20-37 14-21-4-81-9-133-12-93-5-94-4-70 13 14 9 42 34 63 56 86 87 21 161-120 136z"/><path d="m5861 25907c-29-15-25-32 9-33 55-2 70-4 70-13 0-5-39-47-86-94-77-77-84-88-74-107 17-31 57-43 131-37 72 6 189 33 204 48 8 8-157 15-237 9-16-1-28 3-28 7 0 5 22 30 49 55 84 79 102 147 45 168-33 13-54 12-83-3z"/><path d="m2127 25808c-10-38 28-64 51-35 14 18-4 57-27 57-11 0-21-9-24-22z"/><path d="m7242 24925c-36-27-22-40 46-41 69-1 125-28 130-61 4-27-36-73-98-113-41-26-50-37-50-61 0-44 61-64 162-53 80 9 75 28-12 43-38 7-70 16-69 19 0 4 22 23 48 43 95 72 99 148 13 208-44 31-137 40-170 16z"/><path d="m9093 24928c-6-7-24-65-41-128-16-63-47-167-67-230-69-217-71-232-39-244 21-8 45 6 106 65 53 51 149 122 156 115 2-2-8-26-21-53-40-79-51-121-36-139 22-27 39-10 75 76 55 131 55 180 0 180-32 0-115-44-166-89-24-22-46-39-47-37-2 1 8 36 21 77 63 193 89 298 90 353 1 59-11 79-31 54z"/><path d="m5688 24910c-36-22-21-40 31-40 32 0 55-6 65-16 19-18 19-17 5-48-12-25-86-87-166-139-48-30-58-68-24-86 25-14 313-2 323 13 12 19-4 24-115 38l-108 13 54 45c97 80 120 142 74 196-18 21-34 27-73 31-27 2-57-1-66-7z"/><path d="m5538 24823c-8-10-48-94-88-188-41-93-82-183-91-199l-17-29-11 41c-6 22-20 104-31 182s-22 146-25 151c-10 16-43 10-50-10-7-24 32-299 51-353 27-78 70-100 111-55 25 27 38 53 96 188 25 59 62 141 82 183 29 62 34 80 25 92-16 19-34 18-52-3z"/><path d="m7090 24781c-52-21-92-76-169-235-36-74-56-105-61-95-4 8-11 72-14 144-7 129-15 160-37 138-8-8-10-58-8-155 5-160 17-198 64-198 33 0 60 39 135 193 35 70 75 138 89 150 15 12 30 27 34 33 9 16-14 33-33 25z"/><path d="m8655 24693c-52-28-104-74-135-119-41-58-47-93-22-124 21-26 62-31 140-17l42 7v-37c0-49-7-58-55-73-106-33-290-152-301-194-18-71 27-106 137-106 142 0 227 35 247 102 6 18 13 66 16 106 3 41 8 77 11 82 2 4 34 16 70 26 40 12 65 24 65 33 0 13-40 11-107-6-22-5-23-2-23 50 0 74-13 84-89 69-76-16-111-15-111 2 0 36 125 156 163 156 15 0 5-35-18-66-14-18-25-37-25-43 0-40 68-2 94 53 22 47 20 82-6 100-28 20-55 20-93-1zm10-470c-9-85-22-107-77-122-78-22-218-16-218 9 0 18 91 82 185 130 54 28 102 50 107 50 6 0 7-28 3-67z"/><path d="m8222 24687c-68-26-59-76 9-57 55 16 96 12 125-13 25-22 26-24 11-53-16-31-66-81-159-158-60-49-74-86-46-114 39-39 338 25 338 73 0 18 5 18-94 1-45-8-103-17-131-19l-50-5 50 41c172 142 204 223 114 289-32 24-122 32-167 15z"/><path d="m6220 24592c-41-13-30-36 20-44 71-13 290 4 290 22 0 4-10 10-22 14-38 10-261 16-288 8z"/><path d="m7828 24549c-120-18-196-55-170-81 12-12 34-8 271 41 101 21 107 24 96 41-7 12-116 11-197-1z"/><path d="m6375 24474c-122-16-187-33-192-51-7-20 31-23 112-8 95 18 215 56 215 67 0 9 5 10-135-8z"/><path d="m7080 24367c-36-18-38-60-5-93 23-23 33-26 67-21 81 11 126 76 76 111-27 19-103 21-138 3zm86-52c-22-17-62-20-70-6-8 12 11 19 54 20 33 0 34-1 16-14z"/><path d="m7980 23624c-25-2-106-8-180-14-251-19-334-24-680-36-102-3-268-10-370-14-102-5-426-6-720-3-294 2-731 6-970 7s-741 6-1115 11c-647 8-775 5-775-15 0-17 63-19 650-24 322-3 702-7 845-10 194-4 1100-14 1730-19 44 0 547 15 610 18 44 3 175 7 290 10 116 4 284 13 375 22 111 11 317 17 632 20l467 5 26-26c30-31 31-55 10-282-11-113-16-328-18-748l-4-590-34-17c-27-14-72-18-224-22-104-3-287-11-405-17-225-12-1488-18-2135-10-403 5-962-5-1395-25-338-16-557-20-1037-20-292 0-375 3-385 13-14 14-15 56-8 219 2 58-1 97-8 105-8 10-8 42-2 108 5 52 16 199 24 325 9 127 18 259 21 295 2 36 7 184 11 330 5 230 4 268-9 285-15 20-16 20-25-5-5-14-12-131-15-260-8-276-20-486-47-812-23-270-25-338-9-338 7 0 8-35 3-113-7-124 3-164 49-189 35-19 1009-14 1412 7 419 22 824 30 1340 27 1027-7 1997-7 2140 1 83 5 272 12 420 15 269 7 270 7 315 34 71 42 92 65 88 101-3 27-7 32-27 29-23-2-24-2-16 60 5 35 9 288 10 563 2 321 7 533 14 591 7 50 13 148 14 217 2 120 1 126-22 151-14 14-41 30-60 36-32 9-678 12-801 4z"/><path d="m6189 23266c-2-2-80-6-174-9-150-6-303-15-500-32-33-2-125-10-205-16-137-11-183-20-178-37 1-4-9-27-24-52-30-51-156-277-201-360-16-30-61-109-101-175l-71-120-6 100c-10 162-35 222-105 245-39 13-80 7-106-17-26-23-13-33 35-27 34 5 47 2 69-16 39-30 49-82 49-241-1-139-1-139 25-145 21-5 32 0 59 27 38 38 137 190 189 289 18 36 48 89 65 118s31 55 31 57 32 62 72 132c39 70 76 138 82 149 12 24-16 21 436 51 312 20 1264 24 1705 5 160-6 407-15 550-18 143-4 271-8 285-9s42-3 62-3l37-2-25-55c-25-53-26-85-5-85 11 0 78 87 100 128 20 38 6 70-32 76-17 3-275 10-572 16s-553 13-570 16c-35 6-969 16-976 10z"/><path d="m5755 23030c-28-31-13-49 34-43 41 6 41 6 41-30 0-29-9-47-45-87-45-51-56-85-33-108 16-16 107-15 186 2 105 23 99 35-20 47-46 4-84 8-85 8-2 1 11 22 27 48 56 88 31 183-49 183-25 0-44-7-56-20z"/><path d="m7655 22988c-2-7-13-44-23-83-11-38-48-164-82-279-66-217-68-237-24-244 14-2 45 23 100 81 76 79 130 125 139 116 2-3-5-46-17-97-21-96-19-126 6-116 18 7 68 153 70 204 2 101-72 92-193-24-38-37-61-53-57-41 3 11 26 88 52 170 45 146 75 287 66 313-2 6-11 12-18 12-8 0-17-6-19-12z"/><path d="m3868 22910c-42-35-92-133-153-297-20-57-39-103-42-103-11 0-35 79-64 216-17 82-34 159-36 172-12 51-56 34-47-18 42-256 78-396 111-432 23-25 58-22 81 7 11 14 44 85 73 157 69 174 94 225 131 258 61 56 10 93-54 40z"/><path d="m5251 22846c-10-12-27-249-25-354 1-95 50-107 121-31 21 23 46 50 56 61 9 10 17 20 17 22 0 3 24 40 54 83 101 147 138 213 122 219-40 15-46 9-193-211-51-77-104-145-114-145-4 0-4 80-1 178 4 156 3 180-11 185-9 3-20 0-26-7z"/><path d="m6722 22675c-23-10-32-20-30-32 2-10 10-17 18-15 62 14 139 13 168-2 18-9 32-22 32-28 0-21-85-93-168-141-65-37-82-52-82-70 0-50 36-58 148-31 37 8 94 22 127 30 97 22 235 68 235 78s-135 0-250-20c-118-19-121-18-64 20 118 80 138 154 54 210-31 20-141 21-188 1z"/><path d="m3927 22656c-13-34 3-44 77-51 48-5 109-2 182 9 60 9 115 16 122 16 6 0 12 4 12 8 0 5-62 12-137 16s-162 9-193 13c-47 4-58 3-63-11z"/><path d="m7160 22661c-66-20-120-64-120-98 0-7 9-22 20-33 17-17 33-20 110-20 58 0 90-4 90-11 0-6-10-44-22-85-21-72-23-75-74-105-55-31-177-122-214-159-97-97-90-180 15-180 87 0 195 82 249 187 28 56 108 315 108 351 1 43-25 57-103 54-95-2-118 10-64 35 28 12 61 17 108 16 53-1 67 1 67 13 0 33-105 54-170 35zm34-403c-33-105-86-177-155-212-91-45-124-29-77 36 22 31 217 198 231 198 5 0 5-10 1-22z"/><path d="m6263 22580c-106-4-136-8-149-22-9-9-14-23-11-32 5-13 28-15 169-10 90 3 169 8 176 10s12 14 10 26c-4 30-33 34-195 28z"/><path d="m4201 22549c-125-12-159-19-183-39-17-13-20-22-12-30s46-4 141 13c131 25 153 31 153 47 0 14-23 16-99 9z"/><path d="m5555 22484c-47-16-112-78-120-115-16-74 77-113 170-70 46 21 69 44 85 85 27 73-49 130-135 100zm83-67c5-24-24-55-67-73-41-17-52-17-75-1-15 11-16 16-4 41 15 35 60 57 108 53 25-1 36-7 38-20z"/><path d="m9107 21501c-43-52-89-161-118-281-18-73-18-291 0-352 15-53 68-121 112-143 51-27 52-16 1 33-33 31-54 61-61 87-20 69-24 187-11 280 14 103 68 279 105 343 36 64 17 86-28 33z"/><path d="m13697 21483c-13-12-7-21 43-79 99-113 130-228 95-350-13-47-27-69-71-112-59-57-68-82-30-82 33 0 111 63 142 115 34 60 55 177 42 247-24 133-173 310-221 261z"/><path d="m5635 21403c-119-9-289-33-299-43-7-7-6-15 5-25 13-13 29-13 139 1 255 31 295 38 295 54s-44 20-140 13z"/><path d="m8134 21340c-136-21-150-83-36-162 23-15 23-17 8-46-43-83-1-161 91-169 92-9 132 61 81 137-13 19-61 61-107 94-46 34-83 66-82 71 3 17 42 22 212 30 149 6 207 16 168 29-67 22-241 31-335 16zm80-250c20-22 36-47 36-55 0-40-102-20-108 21-4 25 14 74 27 74 5 0 25-18 45-40z"/><path d="m5486 21315c-19-19-43-97-57-183-25-159 41-204 147-101l41 40 1-53c0-31-4-56-11-60s-37-8-67-9c-96-1-144-12-148-33-6-31 18-37 118-31 204 13 380 52 380 85 0 10-88 8-192-5-31-4-38-2-38 12 1 32 38 189 54 228 12 28 13 41 5 51-20 25-38 15-74-42-38-59-132-164-146-164-15 0-10 62 12 156 27 111 18 151-25 109z"/><path d="m12535 21294c-42-9-118-13-189-12-153 4-158-2-103-102 21-39 35-74 32-80-10-17-165-60-216-60-53 0-61 10-32 42 14 15 14 22 3 42-7 14-10 32-7 40 9 23-11 62-40 75-37 17-64 13-122-15-68-34-114-100-109-156 3-36 2-38-25-38-16 0-37 5-49 11-27 14-19 56 23 114 54 75 9 90-68 24-63-55-195-119-245-119h-38l26 39c31 48 29 75-7 79-31 4-67-35-76-81-6-31-71-91-122-113-51-21-54-19-48 31 8 54-9 61-36 16-33-56-9-111 48-111 29 0 117 45 144 74 20 21 26 23 57 13 44-14 100 0 196 48l68 34v-28c0-39 39-72 92-78 42-5 177 16 228 35 19 7 31 5 52-11 36-27 114-20 232 21l88 30-7-49c-6-40-4-50 9-55 21-8 46 13 46 40 0 11 21 52 47 90 44 64 46 69 29 82-16 11-23 10-53-13-18-14-35-24-37-22s-12 22-22 44-20 43-22 48c-2 4 32 5 75 3s111 0 152 5c40 5 75 8 77 6 2-1-10-29-26-61-17-32-30-72-30-88 0-36 40-78 73-78 37 0 106 27 145 57 31 23 38 25 67 15 41-16 121-14 166 2l36 13-1-56c-1-51 1-56 27-69 27-13 34-12 90 16 60 30 61 30 85 11 13-10 39-21 58-25 45-8 168 20 223 51 51 30 51 30 51 9 0-9 15-31 34-50 26-26 43-34 69-34 57 0 57 37 0 54-30 9-59 86-44 114 35 65-8 124-73 102-47-15-86-56-86-91 0-15 5-31 10-34 20-12 9-24-39-40-60-20-147-23-164-6-9 9-9 14 1 20 7 4 38 28 67 52 74 59 86 109 29 109-47 0-113-51-156-120-8-14-39-38-67-53-44-25-51-26-51-11 0 23 46 102 82 140 22 23 28 38 23 53-10 32-46 26-86-15-47-50-142-94-201-94-55 0-65 10-42 45 10 15 14 34 10 49-14 58-78 31-98-42-11-38-22-51-60-75-25-16-61-30-80-30-43-2-41 14 13 107 41 73 46 95 27 114-14 14-41 14-133-4zm-576-113c17-11 2-40-40-75-70-59-120-66-100-14 12 33 47 66 86 84 36 16 36 16 54 5zm1586-41c-3-5-11-10-16-10-6 0-7 5-4 10 3 6 11 10 16 10 6 0 7-4 4-10z"/><path d="m10953 21271c-95-44-175-128-189-200-5-23-13-33-33-37-14-3-34-8-43-10-28-8-89 7-96 24-3 8 9 44 27 79 33 62 35 88 8 99-8 3-56-20-106-51-51-31-95-54-98-52-2 3 10 21 27 41 33 37 34 61 5 72-9 4-32-9-59-32-74-65-105-86-184-125-176-89-282-65-206 46 28 42 29 78 1 83-24 5-44-13-69-62-11-22-30-48-42-58-34-30-105-59-134-56-22 2-28 9-30 36-2 17 1 32 6 32 15 0 53 85 46 103-9 25-43 31-64 12-11-10-27-38-36-64-10-25-26-56-37-68-43-49-160-82-173-49-6 15 13 55 48 98 17 22 19 30 9 42-17 21-50 4-80-40-13-19-55-62-93-96l-70-61 7 34c4 19 17 75 30 124 20 79 21 92 8 105s-16 13-32-6c-22-27-74-230-69-274 6-67 58-65 135 4l49 44 27-24c39-33 83-31 160 9l64 34 33-30c29-26 38-28 74-23 40 7 70 19 113 46 19 12 24 11 48-18 16-19 40-34 60-38 47-8 138 12 223 52 51 23 72 29 68 19-8-23 4-45 26-45 11 0 38 13 61 28 39 26 153 92 160 92 1 0 1-18-1-39-5-50 11-79 53-97 36-15 112-17 155-5 21 6 32 0 66-36 36-38 45-43 85-43 41 0 84 19 101 44 14 21-10 28-40 12-45-23-67-20-97 16l-26 31 68 34c134 66 203 133 203 200 0 60-66 80-147 44zm77-70c-21-40-165-138-191-129-16 5 42 75 95 113 56 40 114 49 96 16z"/><path d="m6672 21110c-51-55-97-100-102-100s-2 23 6 50c17 56 12 85-16 100-14 7-40-2-117-39-146-71-141-71-141-16 2 89-58 112-123 47-45-46-58-85-38-121 33-59 154-47 303 29 74 39 78 40 71 18-3-13-9-46-12-75-5-48-4-53 19-64 36-16 78 9 164 97l72 73 5-41c6-48 39-86 81-94 32-5 100 18 141 49 17 13 20 13 30-6 35-70 183-58 244 19 29 37 26 68-10 98-27 23-41 29-101 40-56 11-178-43-178-79 0-20-63-55-98-55-39 0-52 22-52 89 0 49-17 81-43 81-7 0-54-45-105-100zm-412-3c0-18 5-38 12-45 9-9 2-12-35-12-42 0-47 2-47 22 0 24 36 68 57 68 8 0 13-12 13-33zm929 0c36-18 36-34-1-57-22-14-46-20-73-18-33 3-41 8-49 29-15 44-3 59 51 59 26 0 59-6 72-13z"/><path d="m7408 21182c-41-27-69-69-75-112-12-88 95-122 248-78 33 9 38 8 66-21 40-40 102-45 195-15 89 29 137 113 91 160-45 45-163 60-254 33-49-15-99-59-99-87 0-24-25-32-102-32-74 0-88 6-88 40 0 36 59 90 98 90 34 0 57 14 48 29-11 18-98 13-128-7zm460-94c12-6 22-17 22-24 0-36-112-79-173-67-26 5-28 9-23 36 3 16 1 36-5 43-8 10-2 14 28 19 21 4 43 8 48 9 17 5 79-5 103-16z"/><path d="m7400 20818c-261-4-605-12-765-17-298-9-608-8-1030 4-247 7-295 3-295-30 0-13 23-15 153-16 83 0 172-3 197-6 59-8 1011-8 1160 0 63 3 329 9 590 12 635 7 800 14 800 30 0 27-57 37-197 33-76-1-352-6-613-10z"/><path d="m2164 20245c-12-30 5-175 25-220 30-69 83-85 126-39l25 26 10-26c12-34 13-56 1-56-17 0-137-126-154-162-9-20-17-54-17-76 0-33 6-45 32-67 28-24 39-27 89-23 71 5 117 38 150 104 20 43 21 53 12 113-6 36-14 75-17 86-6 16 3 26 43 53 34 22 48 37 45 47-8 20-27 19-75-6-23-11-42-19-44-17-11 13-45 140-40 148 4 6 4 24 0 40-5 23-12 30-30 30-33 0-44-25-38-85 5-44 2-55-20-80l-25-30-16 35c-9 19-22 75-29 125-10 71-16 90-30 93-9 2-20-4-23-13zm241-436c12-89-42-154-123-147-32 3-37 7-40 31-4 35 25 82 89 142 57 54 63 52 74-26z"/><path d="m8123 20073c-5-16-8-285-8-600 0-379-3-569-10-566-5 3-20 15-32 25-24 23-66 21-71-3-3-19 82-145 106-158 10-4 32-11 49-14 46-9 65 16 93 116 12 45 28 94 36 109 18 34 18 58 1 58-19 0-41-27-77-91-16-30-30-52-31-49 0 3-4 264-9 580-4 316-11 585-15 598-10 30-23 28-32-5z"/><path d="m1951 19946c-39-46-121-193-119-210 5-37 42-31 77 11l31 38 1-1680c1-924 2-1686 3-1694 3-30 85-41 291-39 110 0 282-2 383-7 194-8 327 3 370 31 17 11 27 12 36 5 8-7 16-7 22-1 7 7 1021 9 2885 8 2874-3 2874-3 2819-23-50-18-55-23-55-50 0-24 5-31 23-33 29-4 126 33 170 65 62 46 30 109-86 168-30 14-63 25-75 23-32-4-33-36-1-69l27-29h-2856-2856l-6 44c-4 24-4 76-1 115 5 60 4 71-10 71-29 0-47-68-41-152l6-77-236-1c-228-1-236 0-220 18 60 66 65 207 11 329-22 51-79 142-96 154-17 11 366 409 495 514 20 17 56 47 79 68 144 129 639 475 884 618 123 72 386 220 429 243 415 215 999 466 1086 466 22 0 49 4 59 10 11 6 205 10 494 10l476 1v44c0 50-16 67-37 39-13-18-33-19-406-21l-392-2 130 44c240 80 547 168 632 181 31 5 41 3 41-7-2-34 3-49 17-49 11 0 15 11 15 39v39l128 30c118 29 182 42 340 73 62 12 81 22 62 34-35 21-572-89-928-191-68-20-131-37-140-39s-105-33-212-69-202-66-210-65c-14 0 347 180 389 194 11 3 108 50 215 103 190 95 194 97 189 70-4-23-2-28 13-28 11 0 27 12 37 28 9 15 27 42 39 61l22 34-25 19c-20 17-33 19-82 13-33-3-70-10-83-15-33-13-31-44 3-56 28-9 27-10-27-36-135-65-290-138-350-166-36-16-127-60-203-96-77-37-150-72-164-77-16-6-23-14-19-24 3-8 0-15-6-15s-28-16-49-35c-22-19-44-35-50-35s-35-11-65-25-58-25-63-25-28-8-52-19c-24-10-84-35-134-56-49-21-108-45-130-55s-87-40-145-65c-558-249-1229-655-1684-1022l-59-47 5 122c5 98 3 122-7 122-23 0-36-65-34-168l2-100-64-58c-134-122-334-323-416-416l-86-97-27 19c-15 11-37 23-48 27-18 7-13 21 75 203 196 403 336 681 436 858 56 101 106 192 111 202 8 13 15 0 37-64 23-68 26-94 23-163-4-91 7-107 32-48 19 46 16 140-7 232-19 77-24 141-13 185 16 69-80 31-179-70-63-64-79-103-45-110 10-2 38 10 63 27s45 27 45 23-25-52-56-107-72-129-92-165c-19-36-44-78-54-95-10-16-22-40-27-52-8-18-75-145-212-403-10-19-111-224-224-454-185-376-233-477-248-526-3-8-5 712-6 1600 0 1615 0 1615 20 1588 23-32 56-39 44-10-16 36-33 110-39 165-8 87-35 120-65 83zm395-2959 32-21-76-95c-42-53-103-131-136-174s-62-75-63-70c-2 4 32 76 75 158 42 83 86 169 96 192 11 25 23 40 30 36 6-3 25-15 42-26zm115-125c97-153 104-304 18-377-30-25-32-25-225-25h-195l15 28c32 61 323 432 340 432 6 0 27-26 47-58zm-369-264c-7-7-12-8-12-2 0 14 12 26 19 19 2-3-1-11-7-17z"/><path d="m6144 19919c-14-22-40-87-58-142-18-56-37-102-42-102s-38 47-74 105c-47 74-73 106-88 108-34 5-28-28 19-105 96-160 137-196 181-157 11 11 25 30 30 44 26 66 84 267 80 278-7 21-21 13-48-29z"/><path d="m8667 19713c-16-15-5-34 28-50 19-9 35-20 35-24 0-15-63-20-159-14-72 6-100 4-106-5-13-21 11-31 88-37 109-8 207 22 207 64 0 16-1 16 39 2 17-6 31-16 31-23 0-6-20-34-45-63-44-50-55-73-36-73 11 0 99 74 118 99 20 26 16 69-9 85-49 31-174 57-191 39z"/><path d="m6421 19432c-13-25-3-124 13-119 14 5 20 117 7 130-6 6-13 2-20-11z"/><path d="m8584 19410c-33-13-75-75-81-118-6-44 15-95 46-111 10-6 33-12 50-13 24-2 31-7 31-23 0-11 3-29 6-40 4-16-4-24-43-39-58-24-138-96-165-150-30-59-22-139 19-196 66-89 168-125 225-80 43 33 62 112 54 224-8 109-40 354-48 362-4 3 2 14 13 25 28 28 26 100-3 133-25 29-72 40-104 26zm64-62c17-17 15-67-3-75-9-3-15-15-13-27 2-15-3-22-20-24-52-8-68 47-32 106 20 33 47 41 68 20zm6-350c15-101 19-257 6-288-17-41-49-47-97-20-71 41-107 114-89 183 13 55 123 167 162 167 6 0 14-19 18-42z"/><path d="m7042 19237c-20-22-92-166-92-185 0-5-6-15-14-22-18-14-26-3-64 89-29 69-53 94-73 74-10-10-9-20 4-45 9-18 27-58 40-88 29-68 50-90 86-90 38 0 53 19 100 129 23 52 48 102 57 112 18 20 13 49-9 49-7 0-23-10-35-23z"/><path d="m2860 19068c-10-17-45-87-76-155-34-72-61-118-65-111-4 6-13 50-20 97-13 94-24 131-38 131-19 0-20-34-6-136 17-119 31-158 60-162 32-5 60 34 125 174 33 71 67 137 76 147 8 11 13 25 10 33-10 25-45 16-66-18z"/><path d="m7042 19078c-15-15-16-79-1-111 14-30 51-51 78-44 17 4 20-2 26-46 7-47 5-53-16-67-123-79-169-190-107-257 26-28 87-31 123-7 51 34 68 78 67 178-1 83 1 93 21 108 22 18 22 18-5 18s-28 2-29 58c-1 31-1 72 0 90 3 43-25 43-60 0-23-28-29-30-43-19-11 9-16 30-16 62 0 50-13 62-38 37zm124-402c-5-48-24-79-58-97-21-11-53 2-62 26-9 25 21 86 67 133l42 43 8-28c4-15 6-50 3-77z"/><path d="m2964 18876c-18-8-35-19-38-25-4-5-13-8-21-5-10 4-17-7-25-36-6-23-10-43-8-44 2 0 20-9 40-20 46-23 81-16 118 24 33 36 42 73 23 100-16 23-45 25-89 6zm46-46c0-12-37-50-47-50-5 0-14 4-22 9-11 7-7 14 20 30 38 23 49 26 49 11z"/><path d="m5624 18725c-7-17-6-20 36-170 36-127 51-155 84-155 32 0 48 21 101 135 25 54 57 114 71 132 21 28 23 34 9 39-32 13-83-44-131-142-25-53-47-94-49-92-2 1-17 53-35 113-31 110-52 155-71 155-5 0-12-7-15-15z"/><path d="m5896 18543c-15-15-3-61 29-120 33-61 34-65 20-93-8-16-15-39-15-51 0-21 1-22 20-4 11 10 22 26 25 36 6 19 7 19 32-1 14-11 32-20 39-20 21 0 17 34-6 55-27 25-25 40 15 115 19 35 35 70 35 78 0 31-36 3-68-52l-34-59-30 56c-29 53-49 73-62 60z"/><path d="m3218 17525c-2-3 1-33 8-67 8-35 21-112 29-173 23-156 31-177 63-173 23 3 30 12 46 58 10 30 34 97 53 148 19 52 36 102 38 113 2 10 7 24 10 29 3 6 0 10-8 10-29 0-68-59-102-154-31-90-34-96-39-65-22 139-40 228-52 251-13 26-33 36-46 23z"/><path d="m2989 17333c-27-32-8-176 22-158 11 8 12 175 0 175-5 0-15-7-22-17z"/><path d="m3600 17210c0-29 0-29-28-13-35 20-70 12-105-23-38-38-37-84 2-107 30-17 67-22 96-11 21 8 45 56 45 89v26l29-22c20-15 39-20 60-17 39 6 44-10 45-143 1-102-16-149-52-149-25 0-62 41-62 68 0 25-15 29-24 6-13-34-5-67 23-95 36-36 70-37 110-3 40 33 51 77 51 204 0 160-21 211-72 176-32-23-47-20-66 14-23 40-52 40-52 0zm-40-75c0-31-32-50-60-35-38 21-14 59 38 60 17 0 22-6 22-25z"/><path d="m2740 17075c-6-14-10-39-10-54 0-16-3-42-6-58-5-24-10-29-27-26-42 8-77-14-99-63-45-103 22-179 92-104 16 17 34 46 40 64l11 33 57-23c101-42 114-25 23 31l-58 36 5 88c3 60 1 90-7 95-6 4-15-3-21-19zm-40-197c0-17-50-98-60-98-17 0-11 72 7 92s53 24 53 6z"/><path d="m2981 17019c-18-51-10-199 10-199 10 0 16 37 24 143 6 73 4 87-8 87-8 0-20-14-26-31z"/><path d="m9110 16615c-16-19-3-59 35-106l32-41-20-42c-11-22-33-60-48-83-59-86-20-100 45-16 23 28 48 61 56 74 16 22 16 22 85-25 72-48 89-54 101-34 5 8-19 37-65 79l-73 67 12 38c7 22 16 43 21 49 14 15 10 45-6 51-20 8-42-11-64-54l-18-35-29 41c-34 48-48 56-64 37z"/><path d="m2412 16235c-11-13-30-50-42-82-39-101-83-193-91-193-11 0-16 20-39 140-19 102-42 156-60 145-14-9-12-35 11-159 30-160 53-199 108-181 27 8 44 37 107 183 30 70 57 132 60 139 3 6-3 16-15 22-16 9-23 7-39-14z"/><path d="m2656 15998c-24-35-20-52 29-106l45-50-35-60c-39-68-41-72-21-72 8 0 31 21 52 46l39 45 47-26c49-27 98-31 106-7 2 6-2 12-8 12-7 0-34 17-60 38l-49 39 33 49c41 60 51 90 35 100-12 7-68-47-96-92-12-18-14-17-43 16-20 23-30 44-28 60 4 33-25 38-46 8z"/><path d="m2485 15958c-52-40-72-137-40-197 20-40 51-45 104-18 82 42 119 160 66 212-32 33-91 34-130 3zm95-48c21-38-35-130-79-130-7 0-11 24-11 59 0 51 3 62 22 75 30 22 55 20 68-4z"/><path d="m6446 15737c-21-16-14-39 9-30 9 3 36 2 61-2 47-7 114-54 114-81 0-26-29-60-90-108-66-50-76-79-40-111 37-34 256-31 268 3 2 8-13 12-52 12-50 0-155 17-165 26-2 2 23 30 56 62 90 87 93 139 10 205-29 24-49 32-95 35-39 2-63-1-76-11z"/><path d="m8980 15645c-15-18-3-38 18-30 23 9 81-14 93-36 15-28-6-57-85-119-74-58-81-71-58-100 14-17 32-23 82-27 75-5 152 7 158 25 5 16-8 19-103 27l-79 7 56 52c63 57 78 81 78 124 0 63-122 122-160 77z"/><path d="m10432 15629c-40-15-24-42 26-45 47-2 82-26 82-55 0-10-16-31-36-46-68-52-114-95-114-108 0-6 8-19 18-28 15-14 41-17 135-17 71 0 118 4 122 11 11 17 0 21-95 32-49 5-90 12-90 16 1 3 20 20 44 38 24 17 51 48 61 69 16 34 16 39 1 71-11 23-30 40-59 53-47 22-61 23-95 9z"/><path d="m4945 15550c-10-16 2-27 36-34 51-10 97-36 103-58 4-16-4-29-31-52-79-67-93-84-86-103 4-10 11-21 17-25 16-11 90-10 163 3 67 12 85 29 31 29-18 0-57 3-86 7l-53 6 40 41c52 53 63 83 44 119-24 48-159 98-178 67z"/><path d="m8290 15500c-13-24 3-62 23-54 14 5 47-66 107-224 34-88 71-142 99-142 19 0 52 31 70 67 6 12 36 84 67 160s64 147 75 159c43 47 12 59-43 17-35-28-57-68-109-201-16-40-36-86-45-104-19-37-23-33-60 67-42 113-77 198-93 225-31 52-72 66-91 30z"/><path d="m10172 15483c-16-21-62-100-102-175-39-76-76-140-80-143-19-12-40 68-77 290-5 34-13 50-23 50-34 0-3-271 41-357 47-92 99-53 203 152 21 41 54 101 73 133 34 57 37 87 9 87-8 0-28-17-44-37z"/><path d="m5941 15501c-21-13-16-315 7-361 36-73 85-46 169 92 26 44 67 106 91 138 49 67 53 90 18 90-30 0-56-32-146-178-36-58-70-107-76-109-14-5-24 87-24 217 0 99-10 128-39 111z"/><path d="m4540 15476c-16-44-22-180-11-278 13-117 17-127 48-134 34-9 51 11 113 126 29 52 70 119 92 148 34 43 38 55 28 67-7 8-18 15-25 15-24 0-89-86-140-183-36-70-52-91-57-79-4 9-7 90-7 180-1 138-3 162-16 162-9 0-20-11-25-24z"/><path d="m9347 15293c-19-19-5-42 29-49 69-13 294 19 302 44 3 9-34 12-160 12-91 0-168-3-171-7z"/><path d="m3103 15247c-6-13-21-73-33-133-11-60-37-175-57-257-19-81-32-154-29-162 11-31 45-12 123 69 87 90 150 142 160 133 3-4-4-45-16-93-23-92-21-118 10-134 16-9 19-7 19 12 0 13 9 57 20 98 26 98 26 142 0 165-19 17-21 17-60 0-23-10-75-51-117-91-52-51-73-66-70-51 21 82 87 417 87 440 0 33-23 36-37 4z"/><path d="m8699 15237c-40-27-48-63-22-104s44-52 83-53c37 0 100 32 100 50 0 6 5 8 10 5 6-3 10-14 10-24s12-30 26-45c31-30 70-34 114-11 33 17 36 14 19-18-32-62-74-117-86-113-7 3-15 1-18-4-7-11 22-40 40-40 27 0 72 50 104 115 40 82 50 135 27 154-14 12-24 8-69-23-61-42-83-45-98-12-13 27-4 96 11 96 6 0 10 9 10 19 0 31-29 33-58 4-16-16-28-21-30-14-6 19-59 41-100 41-24 0-52-9-73-23zm115-30c44-32-7-72-70-55-43 11-50 34-16 52 34 19 63 20 86 3z"/><path d="m5516 15229c-39-5-65-13-79-28-33-32-12-45 54-33 30 6 107 16 172 23s120 16 123 20c10 17-169 29-270 18z"/><path d="m6457 15222c-11-12-17-36-17-65 0-59 24-87 76-87 36 0 36 0 30-37-11-60-37-136-54-155-21-24-48-23-55 3s-31 20-35-8c-4-29-15-29-767-32-587-1-665-5-642-27 12-13 1359-9 1389 4 20 8 34 8 57-1 50-19 82-1 114 65 16 31 34 89 42 130 16 94 7 113-56 113h-44v54c0 59-12 72-38 43z"/><path d="m10157 15223c-4-3-7-28-7-55 0-41 5-54 29-79 35-34 66-37 121-9 46 23 48 19 26-53-18-61-49-103-86-116-26-9-33-7-51 12-17 18-21 20-29 7-15-23-12-38 10-60 42-42 129-12 174 59 52 82 74 231 37 251-16 8-24 5-43-19-30-35-59-51-93-51-28 0-40 19-50 83-5 34-22 47-38 30z"/><path d="m4726 15182c-10-17 15-148 33-172 14-19 28-25 56-25h37l-7-55c-4-30-17-80-28-110-39-99-84-60-87 75l-2 60-16-36-16-37-131 4c-93 3-142 1-170-9-90-31-36-48 115-35 200 17 180 19 180-13 0-43 28-105 55-119 62-33 114 27 144 165 29 138 35 203 21 220-21 25-38 17-60-26-31-60-52-50-65 31-5 36-14 71-18 78-9 14-33 16-41 4z"/><path d="m6230 15183c-56-21-70-96-24-132 62-49 154-11 154 64 0 29-6 39-32 55-32 19-68 24-98 13zm89-57c20-24-4-56-40-56-46 0-82 49-46 63 25 11 75 6 86-7z"/><path d="m3743 15020c-16-6-23-18-23-36 0-24 2-25 38-20 20 3 98 11 172 17s139 14 145 17c32 20-288 42-332 22z"/><path d="m11602 14952c-18-48 113-65 280-37 56 9 105 19 107 21 17 16-37 23-198 26-146 2-185 0-189-10z"/><path d="m3778 14923c-32-5-39-39-12-50 16-6 323 23 332 31 2 3 1 9-3 15-6 11-254 13-317 4z"/><path d="m7359 14878c-10-4-19-16-19-27 0-28 47-35 168-27 131 9 162 16 162 32 0 9-12 14-32 15-18 0-84 4-146 7-62 4-122 4-133 0z"/><path d="m10969 14836c-2-2-51-6-109-10-58-3-154-12-215-18-131-14-772-16-1355-5-735 13-1250 16-1250 7 0-24 201-37 630-39 334-1 671-8 785-16 33-2 224-7 425-11 324-6 666 3 835 21 22 3 157 14 300 26 143 11 261 22 263 24s1 8-3 14c-6 10-295 17-306 7z"/><path d="m6587 14823c-28-7-14-27 24-35 70-14 309 11 309 33 0 9-298 11-333 2z"/><path d="m11750 14820c-42-4-56-9-58-22-7-34 37-42 184-32 136 9 169 20 127 42-22 12-176 19-253 12z"/><path d="m7393 14753c-22-8-14-33 15-44 26-10 223-5 265 7 30 9 18 31-20 38-45 7-242 7-260-1z"/><path d="m5543 14653c-17-2-37-11-45-20-12-15-8-16 42-10 62 7 130-7 130-28 0-20-56-63-127-98-68-34-82-52-58-76 12-12 32-15 76-13 54 2 189 25 222 38 11 4 49-43 62-77 4-11-12-27-58-57-69-45-142-118-157-157-12-32 1-69 32-89 58-38 259-28 305 16 31 29 29 51-11 158l-34 90 62 29c33 17 78 37 99 45 44 18 50 46 10 46-16-1-62-14-103-30-41-17-78-30-82-30-8 0-48 67-48 81 0 5 12 15 26 21 14 7 32 25 40 41 14 25 14 31-1 53-13 20-24 24-64 24-43 0-53-4-76-32-21-25-26-39-22-64l5-31-90-13c-49-6-92-10-94-7-3 3 11 14 30 26 79 49 108 116 64 145-26 16-87 25-135 19zm337-104c0-14-30-38-47-39-16 0-17 22-1 38 15 15 48 16 48 1zm23-328c33-85 34-99 1-111-28-11-173-14-198-4-39 15-2 72 94 143 30 23 60 41 66 41 5 0 22-31 37-69z"/><path d="m9205 14613c-11-3-26-10-33-16-26-21 9-32 106-32 103 0 146-13 135-41-6-16-110-87-179-122-22-11-46-27-52-35-15-18-6-44 17-52 19-6 121 11 296 50 173 38 189 40 203 22 7-8 15-51 19-95 5-75 5-80-15-86-43-14-141-96-166-139-62-106-9-203 99-183 86 16 145 120 145 253 0 62 0 64 30 69 16 4 35 13 41 21 19 22-2 34-38 24l-31-9-7 73c-3 40-13 82-20 92-12 16-10 21 12 45 56 59 15 168-63 168-63 0-108-97-74-160 10-19 25-15-184-51-36-6-70-9-77-7s8 19 33 37c124 89 71 182-102 180-41-1-84-4-95-6zm530-77c18-27 11-53-16-61-26-8-39 2-39 30 0 57 28 73 55 31zm-11-423c-10-105-55-173-115-173-22 0-30 6-35 25-8 31 1 64 24 90 25 30 114 105 122 105 5 0 6-21 4-47z"/><path d="m4945 14561c-17-3-30-13-30-21 0-13 22-15 144-12 137 2 179 11 165 33-6 10-233 10-279 0z"/><path d="m6590 13731c0-11 8-22 19-26 10-3 42-30 71-60 55-60 108-162 131-255 17-71 17-211 1-277-15-57-73-152-120-197l-30-28-1024-3c-1025-3-1078-5-1078-37 0-21 540-27 1330-16 451 6 634 3 625-12-10-16 33-21 81-10 30 7 78 8 124 4 41-4 446-6 900-5 704 1 863 4 1080 21 140 10 314 22 385 25 72 4 144 9 160 11 17 2 201 8 410 14 426 11 644 20 663 25 6 3 12 11 12 19 0 24-58 29-263 22-106-4-268-9-362-11-196-4-447-14-520-20-27-2-93-7-145-10-160-10-237-15-435-30-144-11-379-15-971-15-430 0-808 3-842 6l-60 7 45 55c137 169 148 391 30 630-49 100-139 192-188 192-22 0-29-5-29-19z"/><path d="m8023 13726c-75-63-153-322-153-507 0-70 27-183 54-224 23-35 75-65 111-64 27 0 28 1 11 12-60 38-74 58-91 128-46 185 23 543 122 635 47 43-4 62-54 20z"/><path d="m10150 13732c0-11 34-41 88-76 131-88 190-219 158-347-29-113-157-271-241-299-37-12-42-19-24-37 32-32 173 62 242 159 69 100 82 138 82 248 0 87-3 100-30 150-16 30-53 77-80 105-65 64-195 129-195 97z"/><path d="m4448 13687c-91-74-202-383-212-586-8-163 64-279 166-269 45 4 49 28 5 28-48 0-74 25-97 92-35 102-20 249 45 445 35 106 103 253 131 284 32 35 3 40-38 6z"/><path d="m6404 13649c-8-14 14-29 42-29 12 0 27-6 33-14 9-11 1-21-40-51-45-32-50-39-44-63 8-34 28-48 92-68 66-19 137-16 141 8 2 12-7 18-40 23-24 4-63 16-87 26l-43 19 36 40c39 43 41 51 26 80-17 31-101 52-116 29z"/><path d="m8612 13648c-24-24-13-38 29-38 47 0 79-14 79-36 0-8-27-44-60-79-64-68-68-80-46-111 11-15 26-19 73-18 99 1 143 46 52 52-59 4-66 14-31 44 67 56 81 131 31 172-33 28-105 36-127 14z"/><path d="m9964 13648c-4-7 2-18 14-26 33-22 28-63-13-112-52-62-46-95 20-110 41-9 214 6 229 20 21 20-10 30-94 30-123 0-125 1-95 58 14 26 25 59 25 73 0 52-65 102-86 67z"/><path d="m4972 13637c-16-19-10-23 60-43 65-19 98-39 98-60 0-8-25-40-55-69-55-55-68-88-43-113 21-21 223-11 246 12 14 15-27 26-100 26-42 0-79 4-82 8-3 5 13 26 34 47 48 47 60 93 35 131-31 48-168 91-193 61z"/><path d="m9664 13518c-17-18-52-64-79-103-70-102-126-175-135-175-4 0-13 55-20 123-15 148-41 201-70 147-14-26 15-281 36-322 11-22 22-28 46-28 39 0 81 43 174 177 37 54 81 113 96 131 56 66 11 113-48 50z"/><path d="m6100 13493c-17-21-62-94-100-163-73-135-93-150-119-96-8 17-17 80-22 140-4 61-8 112-8 114-1 1-7 2-15 2-35 0-33-204 3-284 24-54 58-75 96-58 33 15 76 77 136 193 27 54 61 109 75 124s24 34 22 43c-6 30-35 24-68-15z"/><path d="m8197 13503c-21-21 7-293 39-372 15-38 38-61 62-61s71 68 138 202c41 81 74 155 74 163 0 9-7 18-17 22-23 9-42-18-125-174-38-74-72-132-75-130-10 11-32 119-43 212-6 55-13 110-16 123-4 21-23 29-37 15z"/><path d="m4831 13398c-15-35-43-102-61-150-18-49-35-88-39-88-3 0-16 56-29 124-24 124-41 166-68 166-18 0-18-1 11-165 37-205 44-221 95-208 26 7 53 59 115 221 48 127 52 154 22 160-13 3-25-12-46-60z"/><path d="m5486 13299c-59-9-76-23-56-43 23-23 263 2 268 27 3 13-4 17-30 18-18 1-55 2-83 3-27 1-72-1-99-5z"/><path d="m7288 13294c-23-7-30-30-13-44 15-13 241-14 328-2 55 8 65 22 22 34-35 10-312 20-337 12z"/><path d="m6527 13259c-18-19-39-43-45-54-10-19-12-18-49 17-41 40-103 62-103 36 0-8 25-36 55-63 30-26 55-51 55-55s-18-34-40-66c-22-33-40-62-40-66 0-22 33-2 74 43l45 50 28-20c34-25 73-34 92-22 17 11 6 31-17 31-9 0-30 12-45 26l-29 24 41 64c34 55 38 66 26 76s-21 6-48-21z"/><path d="m9848 13278c-8-7-30-34-48-60l-32-47-25 30c-14 16-31 29-39 29-21 0-17-47 7-82l21-29-26-61c-36-82-20-97 30-29l38 51 34-20c41-25 122-28 122-5 0 16-5 19-50 29-14 3-36 15-50 25l-25 20 23 30c12 17 22 34 22 38 1 4 11 21 24 37 35 42 15 76-26 44z"/><path d="m6175 13230c-65-26-94-121-45-147 34-17 125-16 160 2 54 28 52 102-3 135-33 21-78 25-112 10zm93-46c27-19 29-50 3-64-25-13-128-13-136 0-16 25 45 79 90 80 11 0 31-7 43-16z"/><path d="m8930 13220c-13-9-12-13 5-26 17-14 40-15 147-10 126 6 158 11 158 26 0 19-282 28-310 10z"/><path d="m4950 13109c-64-26-90-107-47-146 33-30 54-34 90-19 45 19 68 48 74 94 9 66-46 99-117 71zm75-48c9-15-15-58-41-72-22-11-27-10-46 8-21 21-21 21 5 47s70 35 82 17z"/><path d="m3458 13083c-10-2-18-13-18-23 0-29 52-40 192-40 107 0 130 3 135 15 3 9 4 18 2 20-6 6-239 35-269 34-14-1-33-3-42-6z"/><path d="m10883 13053c-24-9-14-43 15-54 37-15 334-2 329 15-9 27-293 60-344 39z"/><path d="m3527 12934c-12-4-17-13-15-27 3-21 9-22 124-25 100-2 123 0 134 13 9 10 10 19 3 26-10 10-217 21-246 13z"/><path d="m10814 12905c-15-38 39-49 171-35 104 12 145 23 145 40 0 6-56 10-155 10-127 0-157-3-161-15z"/><path d="m7001 12699c-56-10-85-25-75-40 3-5 60-9 127-8 135 0 157-4 157-32 0-24-56-65-154-113-77-38-98-64-76-91 9-10 32-15 74-15 70 0 272 32 331 53 22 8 65 17 96 20l56 7 6-58c6-51 4-58-16-72-55-38-124-99-145-130-29-43-45-105-38-145 25-134 209-187 267-78 14 27 17 218 4 290-6 31-4 33 55 63 33 16 87 37 121 44 70 17 74 19 65 42-5 14-15 16-61 10-30-3-84-17-120-30l-65-24-1 29c-1 16-3 34-4 39-1 6-3 21-4 35-1 17-10 29-26 37-24 11-24 11-5 36 28 35 25 77-6 109-22 22-32 25-78 21-56-5-100-30-123-71-15-27-17-82-3-107 9-17 4-20-43-29-61-13-185-31-207-30-8 0 4 10 28 22 53 28 120 92 128 123 7 27-9 59-41 80-29 19-150 26-224 13zm535-73c8-20-11-51-47-77-25-18-35-20-55-10-53 24-6 101 61 101 22 0 38-6 41-14zm18-354c4-7 10-159 7-214-3-65-72-75-123-18-50 54-30 126 55 202 44 39 53 43 61 30z"/><path d="m5612 11887c-18-21 7-40 316-246l182-122-40-72c-22-40-59-111-82-159-23-49-45-88-48-88-12 0-19 56-26 203-8 151-20 189-50 152-14-17-15-40-10-160 8-194 33-275 83-275 25 0 57 46 128 183 107 209 71 202 289 57 102-67 186-125 186-127 0-4-41-86-46-92-1-1-28 15-60 38-31 23-61 41-66 41-4 0-8-12-8-26 0-21-3-25-17-19-41 17-94 24-158 22-58-3-70-6-78-24-12-27 8-69 46-97 23-17 43-21 104-21 70 0 76 2 100 29 17 21 23 36 18 53-5 22-3 22 44-13l49-37-25-41c-14-23-37-54-50-70-18-21-21-32-13-40s25 4 64 44c29 30 55 61 57 69 4 10 13 11 44 2 49-13 115-14 115-2 0 5-13 12-28 16-15 3-42 14-59 25l-32 19 22 49 22 49 120-84c113-78 215-148 242-166 6-4 14-3 17 2 6 10-34 41-236 185-75 53-139 103-142 111s-12 15-21 15c-15 0-375 247-375 257 0 3 7 11 17 18 28 21 8 34-36 23-38-10-41-8-187 88-82 54-185 123-229 154-130 92-131 92-143 77zm681-748c33-9 37-12 26-26-25-30-172-3-153 28 7 12 81 11 127-2z"/><path d="m8840 11745c-7-8-10-21-7-28 2-7 83-72 178-145 96-73 187-143 202-155l28-22-55-85c-30-47-61-85-68-85-23 0-40 56-52 169-6 61-15 117-20 125-17 26-36-18-36-83 0-141 38-260 87-272 48-13 70 4 133 99 34 50 64 94 66 96s16-7 32-20 37-28 46-34c15-8 16-15 6-39-11-31-6-62 16-86 11-13 8-25-18-79-32-67-50-150-30-137 6 4 19 24 29 44 9 20 29 56 44 79 23 38 28 41 45 29 31-22 100-39 128-32s36 26 11 26c-18 0-125 59-125 68 0 4 6 15 14 24 11 16 21 11 109-47 53-36 101-65 107-65 24 0 4 20-81 80-49 35-92 67-95 72-3 4 3 21 13 38 26 45 5 59-36 25l-31-27-73 58c-39 31-75 60-80 64-4 3 11 30 33 60 22 29 40 57 40 61 0 5-10 14-22 20-20 11-26 7-69-41l-46-53-194 150c-233 178-214 166-229 148zm615-503c0-18-20-15-23 4-3 10 1 15 10 12 7-3 13-10 13-16z"/><path d="m4920 11700c-51-6-70-15-70-34 0-10 18-12 73-9 80 5 148-6 155-25 4-13-40-59-126-130-40-33-52-50-52-71 0-16 6-33 13-39 31-26 205-22 214 5 3 7-21 15-64 23-99 16-103 22-52 61 73 55 121 117 117 152-5 54-89 81-208 67z"/><path d="m8024 11676c-8-21-11-19 72-45 40-11 82-30 95-41 24-20 24-20 4-36-11-8-53-34-92-56-58-31-73-45-73-63 0-41 22-48 122-42 94 6 115 14 105 41-5 12-21 16-64 16h-57l55 35c66 41 85 74 67 113-27 56-218 120-234 78z"/><path d="m9545 11660c-11-18 4-27 54-33 57-7 121-31 121-47 0-5-24-26-54-45-81-52-86-91-13-120 60-24 137-6 137 31 0 10-14 14-49 14-28 0-53 5-56 10-3 6-2 10 3 10s25 16 45 35c60 58 48 105-36 140-41 17-142 20-152 5z"/><path d="m6520 11648c-14-8-25-20-25-28 0-10 15-13 66-11 152 5 158-51 14-144-61-40-78-58-73-82 7-36 53-47 154-34 105 12 126 19 121 35-2 6-38 13-85 16-46 3-82 9-81 15 0 6 21 26 47 45 120 90 92 185-57 197-35 2-65-1-81-9z"/><path d="m4593 11493c-27-38-80-117-118-176-37-59-69-106-71-104-3 2-7 76-10 163-5 163-13 195-41 159-12-17-14-48-10-180 4-181 13-215 57-215 24 0 40 19 137 168 113 172 140 223 128 241-11 19-21 12-72-56z"/><path d="m7630 11460c-10-6-9-32 5-131 25-186 39-218 90-205 22 6 78 75 154 189 8 12 29 38 46 57 49 55 56 66 49 84-10 27-48 18-86-21-20-21-67-83-104-138l-69-100-13 95c-23 160-36 192-72 170z"/><path d="m8636 11429c-3-17-6-49-6-70v-39h-89c-68 0-92-4-101-15-23-28 5-39 105-43l95-4v-60c0-73 13-68 29 10l11 59 77 7c42 3 78 8 81 10 14 14-17 26-66 26-31 0-62 4-69 8s-13 36-15 72c-3 57-5 65-24 68-17 2-23-4-28-29z"/><path d="m5226 11321c-11-17 5-39 36-52 25-10 57-9 175 3 143 16 184 29 153 48-19 12-357 13-364 1z"/><path d="m7065 11273c-40-6-51-18-34-39 12-15 30-16 154-10 229 10 258 26 81 44-113 12-145 13-201 5z"/><path d="m4644 11216c-60-27-75-83-33-122 24-21 111-22 162 0 116 48 92 136-37 136-33-1-75-7-92-14zm144-48c-10-30-148-53-148-25 0 21 39 36 98 36 39 1 53-2 50-11z"/><path d="m3491 11159c-53-10-64-19-59-50 3-23 5-24 93-21 91 3 293 37 308 52 19 18-266 34-342 19z"/><path d="m10315 10985c-5-2-23-6-38-9-22-5-28-12-25-29 3-22 5-22 146-18 129 3 142 2 142-14 0-27 25-11 28 18 5 40-43 57-155 56-48 0-92-2-98-4z"/><path d="m3525 10951c-24-5-30-12-30-31 0-22 5-25 40-28 69-6 236 19 242 35 3 8 0 19-8 24-16 10-198 10-244 0z"/><path d="m4208 10929c-21-13 1-26 62-38 34-6 327-10 760-11 388 0 739-2 780-5 41-2 237-7 435-10 341-5 483-11 795-35 74-5 225-17 335-25 159-12 403-15 1200-15 1019 0 1240 7 1221 39-3 5-515 8-1138 9-1187 0-1137-1-1758 48-234 18-854 32-1695 39-341 3-702 7-802 9s-187 0-195-5z"/><path d="m10292 10801c-3-8 3-20 14-28 15-12 43-14 134-10 118 5 175 18 168 39-6 18-309 18-316-1z"/><path d="m6342 10638c-24-24-13-36 27-31 47 6 106-12 125-38 30-44-6-98-114-169-62-41-80-58-80-76 0-36 33-48 113-40 73 7 196 34 210 46 11 10-151 22-190 14s-44 7-10 29c64 43 127 122 127 160 0 34-31 77-70 97-43 22-119 27-138 8z"/><path d="m6805 10591c-95-44-130-140-67-187 20-16 84-18 131-4 33 9 33 9 27-22-3-17-6-47-6-67 0-34-5-40-80-94-91-66-128-110-137-160-11-70 43-108 154-108 72 0 106 16 131 62 12 23 9 156-4 215-5 17 4 25 54 47 33 15 64 27 69 27 4 0 19 7 31 16 18 12 20 19 12 29-9 11-20 11-63-2-29-8-64-21-79-29l-26-14 4 134c5 134 5 134-22 155-33 26-76 27-129 2zm101-83c2-44 0-48-31-62-76-36-144 1-102 55 21 28 81 60 107 57 22-3 25-8 26-50zm11-396c6-79 5-80-23-98-31-21-108-23-143-4-27 14-27 50 1 85 33 42 140 117 150 107 6-6 12-46 15-90z"/><path d="m5892 9738c3-20 13-24 81-36 92-15 160-45 155-69-2-9-42-50-91-91-100-84-114-113-75-147 40-35 235-45 254-13 13 21-20 36-94 42-110 10-113 14-45 70 69 57 113 111 113 142 0 64-115 124-238 124-60 0-63-1-60-22z"/><path d="m4706 9694c-23-23-11-34 39-34 54 0 95-17 95-41 0-10-33-45-75-79-62-51-75-66-75-90 0-36 20-48 91-55 73-8 143 5 147 28 2 12-3 17-19 17-12 0-51 5-86 11l-63 11 54 42c96 72 108 141 34 186-41 25-120 27-142 4z"/><path d="m4224 9555c-9-38 13-332 28-362 42-86 80-53 233 203 22 37 51 77 64 89 26 25 21 45-10 45-32 0-100-78-164-187-32-57-62-103-67-103-4 0-8 12-8 28-1 53-20 276-26 294-8 27-42 23-50-7z"/><path d="m5813 9518c-15-20-53-105-89-198l-32-84-11 54c-5 30-15 91-21 135-11 84-19 101-44 92-43-17 11-362 58-380 24-10 58 18 74 58 8 22 37 96 64 164 27 69 48 134 46 145-4 24-31 33-45 14z"/><path d="m5033 9254c-4-11 1-22 13-31 30-24 309-4 301 21-5 14-85 24-210 25-82 1-99-2-104-15z"/><path d="m4515 9235c-41-15-75-47-75-71 0-8-4-14-10-14-23 0-8-22 25-36 95-39 225 5 225 78 0 51-83 72-165 43zm112-51c6-17-43-34-98-34-56 0-58 13-5 36 35 16 98 15 103-2z"/><path d="m3382 9184c-24-17-7-42 38-55 31-9 61-10 133-1 106 13 200 39 195 53s-347 17-366 3z"/><path d="m6519 9154c-14-17-2-65 17-71 14-5 35 42 28 61-8 22-31 27-45 10z"/><path d="m3380 9015c-26-32 3-39 138-37 138 3 162 7 162 26 0 28-278 38-300 11z"/><path d="m4353 9009c-78-6-94-12-74-32 9-9 127-13 489-15 262-1 573-3 690-5 201-2 212-1 192 15-11 9-44 22-73 28-56 11-1094 20-1224 9z"/><path d="m4848 8900c-10-6-18-20-18-30 0-19 8-20 103-20 115 0 147-6 147-26 0-13-70-63-149-106-32-18-43-59-19-74s306 11 325 30c3 3 3 13-1 22-5 13-21 15-107 12l-101-3 28 20c64 45 85 73 82 107-5 52-51 72-173 76-59 1-107-2-117-8z"/><path d="m5379 8880c-62-19-129-92-129-142 0-43 21-52 105-44 73 7 75 6 75-16 0-13 3-32 5-43 4-17-8-26-73-58-212-103-288-238-169-298 35-18 54-21 131-17 165 8 193 41 179 220-10 124-16 112 81 148 102 39 51 52-56 15-38-13-38-13-38 15 0 78-40 115-99 90-16-6-42-10-57-8l-29 3 41 43c48 49 80 54 94 16 13-33 34-26 38 13 2 24-3 36-24 52-29 23-35 24-75 11zm79-362c20-80 25-144 12-167-17-32-70-51-142-51-70 0-131 24-136 52-6 31 37 76 136 142 53 36 102 65 108 66 7 0 16-19 22-42z"/><path d="m6644 8807c-1-62-6-94-23-131-12-27-19-51-16-54 10-10 44 31 65 79 40 95 36 189-8 189-16 0-18-11-18-83z"/><path d="m3842 7843c-5-10-14-52-21-93s-19-100-26-130c-8-30-31-124-52-207-29-119-36-157-27-170 21-33 45-19 108 61 33 43 71 86 84 94l23 15-7-95c-6-81-4-96 10-111 29-29 45-21 44 21-1 20 4 69 12 108 15 84 9 121-24 135-30 14-72-7-127-62-33-33-39-36-34-17 3 13 16 70 30 128 29 118 52 297 42 323-8 22-24 22-35 0z"/><path d="m5205 7829c-10-15 24-48 78-75 26-14 50-31 53-39 4-9-17-36-55-71-67-62-78-96-40-130 40-36 248-28 236 9-2 7-26 13-53 14-84 5-134 14-134 25 0 6 25 36 55 66 84 85 75 117-52 181-68 34-79 36-88 20z"/><path d="m6527 7823c-17-16-4-33 34-43 43-12 89-49 89-73 0-19-55-94-80-109-21-13-26-52-11-77 17-27 228-38 253-13 22 22-10 39-89 46-42 4-80 9-85 12-4 3 8 25 27 50 62 81 42 161-50 200-36 15-77 18-88 7z"/><path d="m4750 7636c-29-76-40-388-15-435 40-79 110-34 254 167 41 56 79 102 84 102 15 0 36 33 37 58 0 17-6 22-24 22-25 0-74-48-136-133-93-129-155-196-168-183-10 10-9 132 2 294 8 120 7 132-8 132-9 0-21-11-26-24z"/><path d="m6403 7558c-32-33-67-90-131-208-20-36-43-78-53-93l-16-28-5 25c-3 14-6 63-7 109-3 129-24 198-53 169-20-20-8-293 15-342 17-35 60-39 89-7 35 38 218 376 218 403 0 14-31-1-57-28z"/><path d="m2781 7567c-41-14-61-41-44-58 9-9 19-9 41 0 16 7 55 11 88 9 56-3 59-4 56-28-4-35-82-111-179-177-65-43-83-60-83-79 0-37 32-47 124-40 98 8 237 36 231 47-7 10-105 22-179 22h-60l30 21c50 35 145 130 160 158 15 29 18 66 8 93-16 41-119 58-193 32z"/><path d="m3334 7511c-50-31-74-68-74-117 0-36 5-47 26-60 25-17 67-21 103-9 13 4 20 0 24-15 4-16-5-26-46-49-86-50-160-114-202-175-36-52-40-65-43-130-3-58 0-81 16-112 62-121 187-165 284-98 93 65 115 215 68 465-6 29-6 57-2 61 5 5 31 17 57 27 27 10 51 24 53 30 5 14-12 14-75-3-50-13-53-13-53 4 0 31-22 70-39 70-9-1-27-7-41-15-32-18-69-19-76-1-11 30 40 96 74 96 5 0 26-12 47-26 64-43 72 5 9 55-33 26-70 27-110 2zm111-387c20-133 16-211-13-277-75-169-303-34-252 149 16 57 81 130 173 195 39 27 71 49 72 49s10-52 20-116z"/><path d="m4188 7443c-23-6-30-29-12-44 10-9 52-10 152-6 135 6 213 19 182 30-50 19-274 33-322 20z"/><path d="m5577 7384c-12-4-17-13-15-27 3-21 8-22 148-25 149-3 190 6 172 36-9 13-269 27-305 16z"/><path d="m4275 7306c-75-15-105-31-105-56 0-23 6-24 64-9 23 6 96 18 161 27 114 17 151 33 103 46-36 9-157 5-223-8z"/><path d="m5042 7268c-19-19-14-38 11-38 47 0 97-20 97-40 0-26-37-50-77-50-33 0-73 31-73 58 0 8-8 12-17 10-31-6-20-68 18-102 27-24 38-28 75-23 48 5 109 45 126 82 16 35 2 73-35 95-36 22-106 27-125 8z"/><path d="m6887 6354c-4-4-7-23-7-43 0-76-43-271-100-462-29-94-23-129 20-129 23 0 48 16 106 70 43 39 80 67 83 64s11-22 16-42c14-47 41-54 50-13s-2 85-26 107c-20 18-22 18-64-5-24-13-62-39-85-58-22-19-40-31-40-26s11 42 24 83c42 126 69 269 70 365 1 83-1 90-19 93-12 2-24 0-28-4z"/><path d="m3285 6306c-19-14-19-15 10-26 55-22 60-27 63-58 3-25-6-40-53-89-71-74-77-83-62-114 12-23 16-24 140-27 108-2 128 0 133 13 4 9 4 19 0 22-3 3-50 11-105 17l-99 11 40 45c76 84 84 146 26 195-33 28-65 32-93 11z"/><path d="m5076 6291c-12-19 2-28 53-34 58-7 91-22 91-41 0-7-25-41-55-75s-55-69-55-77c0-48 51-74 143-74 40 0 47 3 47 20 0 19-9 23-103 46l-28 7 24 26c43 46 77 103 77 131 0 47-41 74-119 78-43 3-71 0-75-7z"/><path d="m3021 6153c-18-32-64-121-103-197-91-179-106-204-112-185-3 8-14 70-25 139-24 148-41 204-66 208-33 7-37-12-21-96 9-45 22-127 30-182 16-105 34-153 62-164 49-19 79 22 216 296 76 152 98 206 91 217-21 33-41 23-72-36z"/><path d="m4555 6087c-4-13-5-107-3-209 3-166 5-188 22-207 11-12 26-21 34-21 29 0 116 104 225 266 101 152 122 194 96 194-29 0-87-65-179-200-56-82-111-156-121-166-19-17-19-14-19 113 0 187-8 253-31 253-11 0-21-9-24-23z"/><path d="m5884 6045c-26-18-10-42 32-50 42-7 109-39 119-55 11-17-23-48-84-77-103-49-129-94-74-130 32-21 151-23 234-3 62 15 174 64 124 54-58-11-287-16-296-7-6 6 14 22 51 43 33 19 70 44 82 57 27 28 28 76 2 104-43 47-159 87-190 64z"/><path d="m6303 5971c-62-29-82-81-44-115 23-21 103-29 168-17 39 8 43 7 37-8-3-9-9-39-11-67l-5-51-84-43c-160-81-215-183-138-255 50-47 144-44 213 5 57 42 74 80 79 181l4 87 40 15c51 20 42 41-13 32-35-6-39-5-39 14 0 11 7 42 16 68 16 46 16 48-5 64-12 10-21 25-21 34s-13 30-29 46c-25 24-38 29-78 29-26 0-67-9-90-19zm136-50c8-5 11-16 8-24-6-15-47-15-117-1l-25 6 25 13c28 16 88 19 109 6zm30-352c2-48-2-61-24-87-57-68-194-61-195 10 0 26 55 84 103 108 23 12 56 29 72 39 37 22 41 15 44-70z"/><path d="m3780 5962c-16-5-25-15-25-27 0-18 9-21 90-25 111-6 327 11 332 26 2 7-22 13-67 18-125 11-304 16-330 8z"/><path d="m5450 5902c-16-13-21-25-17-37 7-15 17-17 95-11 149 11 164 15 160 39-3 21-9 22-109 25-91 2-109 0-129-16z"/><path d="m3940 5830c-106-10-169-26-177-46-15-40 24-39 335 12 34 5 43 28 16 38-18 7-57 6-174-4z"/><path d="m4850 5777c-14-7-26-22-28-34-3-20 0-21 50-16 59 5 108-9 108-31 0-35-87-49-128-20-23 16-42 12-42-11 0-22 59-65 90-65 63 0 130 52 130 100 0 62-114 111-180 77z"/><path d="m2490 5195c-23-59-9-643 25-1060 24-304 27-370 15-396-7-16-8-33-2-50 11-28 58-41 217-58 164-19 3359-35 3595-19 58 4 173 14 255 23 83 9 215 20 295 25s204 16 275 25c105 13 200 15 495 12 201-3 384-8 408-12 50-9 48-28 26 210-11 132-14 289-13 698l3 528-26 25c-13 14-42 29-64 34-57 14-217 12-484-5-169-11-442-15-970-16-404 0-751-2-770-3-172-16-656-21-1820-21-1073 0-1370 3-1387 12-12 7-23 25-25 40-4 38-35 43-48 8zm5515-99c12-15 14-110 14-523 1-472 8-666 31-768 13-56 14-55-22-44-18 5-188 9-378 9-271 0-386-4-535-20-104-10-255-24-335-30s-228-19-330-29c-237-24-529-26-2682-17-894 4-1038 8-1145 32-22 4-23 8-23 127 0 115-5 189-30 475-6 64-14 270-17 456-6 323-5 339 12 332 61-23 345-27 1625-23 745 3 1371 8 1390 12 19 3 400 8 845 10 750 2 1223 11 1235 22 2 2 78 3 168 1 147-3 165-5 177-22z"/><path d="m6820 4933c-36-1-189-7-340-13-441-17-907-29-1162-31l-236-2-35-36c-46-49-113-145-232-331-148-233-270-412-299-439l-26-24v24c0 13 9 92 20 174 27 206 27 259-4 290-13 13-39 27-58 30-41 8-255-18-270-33-30-30 48-41 172-23 80 12 119 4 126-26 4-14-4-95-16-181-33-229-36-294-15-315 27-27 55-20 99 26 44 45 106 117 106 122 0 2 24 39 54 82 42 62 145 221 221 341 6 9 42 66 81 126 39 61 74 121 78 133 6 20 10 21 29 12 24-14 422-8 1097 16 425 16 1022 21 1040 10 6-4 83-6 171-6 186 1 204-4 194-55-5-29-3-34 14-34 50 0 69 94 27 128-22 17-51 20-288 27-301 9-455 11-548 8z"/><path d="m7426 4758c-9-12-16-27-16-33 0-5-7-23-15-38s-19-42-24-60-32-97-60-177c-68-192-68-260-2-260 29 0 71 30 169 123 40 38 75 68 77 66s-3-27-10-55c-21-80-23-128-5-131 20-4 91 156 98 219 4 39 1 48-17 57-29 16-62-2-151-82-86-77-140-117-140-104 0 7 25 85 56 173 68 192 86 258 82 292s-22 38-42 10z"/><path d="m5601 4746c-15-18-11-21 53-30 47-6 72-27 60-49-5-8-33-34-61-57-61-48-69-79-28-106 29-19 140-23 157-6 22 22 0 42-46 42-77 0-80 6-24 60 42 41 49 52 46 80-4 42-41 71-100 77-32 4-47 1-57-11z"/><path d="m2835 4740c-10-16-7-179 5-260 29-203 76-310 135-310 58 0 103 75 224 374 58 143 64 176 35 176-20 0-36-29-135-246-91-202-111-236-128-219-31 32-81 283-81 406 0 28-5 59-10 70-11 20-35 25-45 9z"/><path d="m6430 4617c-28-7-45-18-45-27 0-12 17-15 82-17 96-3 153-22 153-52 0-25-26-50-105-103-80-54-105-78-105-99 0-34 28-49 90-49 94 0 207 28 381 95 40 16 49 16 75 4 20-10 30-23 32-43 6-50-5-70-54-96-52-27-167-102-198-129-67-58-94-140-61-187 32-47 125-67 204-44 42 12 86 52 111 100 25 50 52 185 66 333 4 48-19 107-46 114-19 5-19 6 5 35 34 41 34 92-1 114-42 28-113 29-158 2-80-47-95-101-40-151l25-24-88-21c-89-22-242-46-248-40-2 2 28 28 68 58 123 95 138 162 46 208-56 28-130 35-189 19zm556-101c18-14 18-15-11-46-26-27-35-31-64-26-40 6-67 29-56 46 9 15 64 39 91 40 11 0 29-6 40-14zm-9-313c-3-5-8-34-11-65-18-153-63-212-161-212-89 0-111 44-54 109 54 61 248 205 226 168z"/><path d="m5374 4591c-50-36-57-44-147-173l-74-107-5 136c-4 98-9 138-19 144-32 20-39-10-39-172 0-146 2-161 20-179 11-11 24-20 29-20 22 0 68 52 142 161 45 66 99 138 120 160 43 45 45 51 25 68-10 8-22 4-52-18z"/><path d="m3468 4471c-61-9-81-27-54-47 25-18 78-18 285 1 159 14 198 23 169 41-17 11-337 15-400 5z"/><path d="m6003 4463c-24-9-14-42 13-49 60-15 264 17 264 42 0 11-24 14-132 13-73 0-139-3-145-6z"/><path d="m3563 4383c-30-6-49-31-36-44 8-8 54-8 150-3 128 8 138 10 138 29s-7 20-115 21c-63 1-125 0-137-3z"/><path d="m5433 4343c-25-5-38-18-47-51-9-28 21-44 36-19 17 32 128 17 128-17 0-18-30-43-63-51-21-6-37-1-66 18-21 14-42 23-45 20-13-13-5-40 18-62 69-65 206-10 206 82 0 61-76 98-167 80z"/></g><g fill="#44b" transform="matrix(.054411653 0 0 -.054411653 1125.75981953537 2532.55398991264)"><path d="m750 2973c-57-10-88-25-119-57-40-41-55-100-46-179 6-45 12-61 32-77 32-25 35-25 64-1 22 17 24 26 21 89-4 105 24 120 164 87 33-7 119-19 190-25 88-8 134-16 144-26 32-32 8-420-28-456-18-18-126-28-289-28-185 0-206-4-250-52-55-58-58-82-55-363 1-145 7-274 13-293 11-34 51-62 89-62 12 0 35 14 52 31l31 30-6 238c-3 130-3 249 0 264l5 27h112c234 1 363 26 423 82 58 54 98 260 91 463-4 122-7 138-34 191-40 81-79 100-217 108-174 10-361 14-387 9z"/><path d="m3660 2971c-42-9-83-34-103-65-39-59-50-127-54-343-5-206-5-212 18-252 28-50 78-86 143-102 48-12 257-8 370 7l49 7-7-104c-4-57-11-189-16-294-9-177-9-192 8-214 35-47 100-46 136 2 22 29 27 86 42 452 7 191 0 235-44 283-45 48-92 56-241 38-146-18-229-20-265-6l-26 10v162c0 156 8 230 27 249 5 5 99 6 210 2l201-6 5-50c3-39 11-56 31-74 34-29 48-29 80 0 24 20 26 30 28 113 4 147-23 169-218 179-242 11-340 13-374 6z"/><path d="m1565 2945c-14-13-25-32-25-42s-1-297-3-638c-2-677-3-662 55-694 33-19 73-7 101 31 18 24 20 51 29 300 5 150 10 278 12 283 2 6 37 8 97 3 52-3 135-7 186-7 154-2 161-10 143-176-21-189-27-310-18-343 12-45 45-72 86-72 71 0 102 46 102 151 0 33 7 118 16 187 24 190 9 280-58 349-50 52-112 67-263 65-71-1-164-6-205-11-41-4-78-7-81-5-4 2-10 108-13 236-9 286-17 352-47 384-31 33-82 32-114-1z"/><path d="m2542 2944c-55-38-64-109-53-419 6-186 9-215 28-250 50-95 116-125 302-135 75-4 171-5 215-1l78 7-4-178c-2-97-7-181-11-184-4-4-42 1-85 11-104 26-285 27-363 3-106-33-149-107-99-170 26-34 68-41 132-21 74 23 202 20 308-7 182-47 274 5 301 168 12 77 27 831 19 994-7 152-20 181-86 186-88 7-103-51-104-401v-219l-201 4c-197 3-201 3-220 27-18 21-19 42-19 283v260l-29 29c-33 33-74 38-109 13z"/><path d="m2374 1391c-55-34-79-78-79-147 0-51 4-66 27-96 35-45 102-73 153-64 78 15 146 111 131 188-20 108-145 172-232 119z"/><path d="m1853 999c-39-11-66-56-61-101 6-59 69-64 76-6 4 30 34 38 145 38h67v-110c0-135-1-136-132-126-85 6-89 6-113-18-24-25-25-28-25-179 0-162 4-177 47-177 35 0 43 29 43 159v121h73c85 0 141 14 168 41 17 17 19 34 19 169 0 147-1 152-25 175-23 24-30 25-137 24-62 0-128-5-145-10z"/><path d="m2985 1000c-91-16-93-18-104-58-15-51-14-537 0-564 19-36 69-48 204-48 121 0 127 1 151 25l24 24-2 292-3 292-26 19c-31 23-161 33-244 18zm169-86c14-5 16-37 16-250v-245l-102 3-103 3v240 240l40 6c57 9 131 10 149 3z"/><path d="m2351 971c-24-24-29-73-37-372-6-232-6-237 15-258 23-23 29-25 51-11 12 7 16 40 20 150l5 141 35-23c19-13 59-55 88-93 30-39 78-96 108-128 47-51 56-57 74-47 29 16 25 42-15 92-19 24-62 78-95 121-61 77-61 77-33 77 15 0 46 9 69 19 56 26 67 57 62 179-6 156-27 172-220 172-93 0-111-3-127-19zm257-74c16-13 17-168 0-185-7-7-41-12-84-12-40 0-84-4-98-10l-26-10v120 119l98-6c53-3 103-10 110-16z"/></g></svg>