<svg height="653.979488pt" preserveAspectRatio="xMidYMid meet" viewBox="0 0 1221.644946 653.979488" width="1221.644946pt" xmlns="http://www.w3.org/2000/svg"><g transform="matrix(.1 0 0 -.1 -35.393757 2531.979488)"><path d="m530 25288c-11-18-20-36-20-40 0-3-9-26-19-51l-19-45-47 10c-86 18-98-18-14-44 48-14 51-28 6-26-19 1-39-2-46-6-18-12 6-36 36-36 22 0 24-3 18-27-3-16-8-37-11-48s1-29 9-39c22-31 62-13 110 49 23 30 50 55 60 55 20 0 20 1 2-75-36-146-3-157 44-15 29 90 35 100 57 100 30 0 32 16 2 23-30 8-18 18 55 44l62 21-57 1-57 1 16 55c13 44 13 58 3 70-22 27-38 16-84-55-37-56-51-70-71-70-14 0-25 5-25 11 0 14 21 53 33 61 6 3 11 28 11 54 1 62-23 72-54 22zm23-195c-7-2-19-2-25 0-7 3-2 5 12 5s19-2 13-5zm-49-68c-4-8-8-15-10-15s-4 7-4 15 4 15 10 15c5 0 7-7 4-15z"/><path d="m2185 25306c-79-36-104-117-51-163 29-24 85-43 130-43 29 0 29 0 10-21-27-31-115-79-143-79-14 0-33 8-43 17-26 24-46 4-30-31 25-54 99-46 197 22 143 99 182 219 93 285-34 26-122 33-163 13zm154-60c32-33 1-126-43-126-33 0-123 46-135 69-9 16-7 25 12 46 37 44 126 50 166 11z"/><path d="m1420 25266c-60-41-106-116-121-199-5-29-12-65-15-81-6-24-4-28 9-23 9 3 33-1 53-9 44-19 89-6 140 38 36 32 45 73 22 96-16 16-81 15-123-2-42-18-43-11-11 53 28 54 87 111 116 111 24 0 27 25 4 34-26 10-38 7-74-18zm60-214c0-26-74-66-106-58-35 9-29 25 19 46 44 20 87 26 87 12z"/><path d="m1798 25261c-49-31-95-91-121-159-62-157 63-228 188-108 65 62 58 106-17 106-44 0-112-31-127-57-9-15-10-16-11-2 0 9 14 44 31 78 33 65 78 109 131 127 18 6 34 18 36 27 6 28-57 21-110-12zm72-210c0-15-61-59-92-66-16-4-35-4-44-1-14 5-14 9-3 22 31 37 139 72 139 45z"/><path d="m1141 25182c-38-37-94-85-125-107-55-38-72-65-40-65 9 0 32 9 50 21l33 20-6-50c-5-43-3-51 11-51 9 0 19 8 23 18 20 60 71 151 109 197 24 30 44 62 44 70 0 30-31 14-99-53z"/><path d="m7878 25099c-33-19-21-39 21-39 36 0 71-19 71-40 0-4-12-33-26-64-30-65-26-89 19-112 39-21 218-26 224-7 3 7-11 14-34 18-133 21-165 29-170 42-3 8 2 31 10 51 32 74 23 122-27 146-39 18-63 20-88 5z"/><path d="m7729 24953c-29-32-42-53-94-148-48-88-93-155-105-155-11 0-26 45-54 171-17 76-27 105-40 107-24 5-21-46 10-177 51-221 93-215 235 33 56 99 75 124 80 110 6-16 10-12 24 20 9 21 14 45 11 52-9 23-40 16-67-13z"/><path d="m5094 24919c-16-26-5-659 21-1299 3-63 8-675 11-1359 5-989 4-1245-6-1251-7-4-121-8-254-9-132-1-288-4-346-6s-220-7-360-10-376-10-525-15c-944-34-2406-54-2645-36-36 3-116 8-179 11-63 4-146 10-185 15-64 7-100 0-84-15 11-11 146-27 383-46 336-26 1557-20 2435 11 282 10 849 26 1245 35 132 3 305 8 384 11l144 7-7-314c-3-173-9-442-12-599-6-247-5-287 8-298 12-10 17-10 25 0 18 23 28 873 26 2188-2 1268-6 1610-23 2040-5 124-12 378-15 565-4 187-8 350-11 363-5 24-19 29-30 11z"/><path d="m6806 24828c-2-7-9-58-15-113-8-82-8-102 3-114 19-18 27-12 92 70 30 38 59 69 64 69 6 0 10-24 10-54 0-93 28-96 110-12 61 63 70 61 70-22 0-69 10-92 40-92 15 0 16 11 12 83-2 46-10 92-18 105-23 35-63 29-118-19l-46-41v35c0 19-8 45-18 57-26 33-62 20-109-37l-38-46-5 68c-3 42-10 70-17 73-7 2-15-2-17-10z"/><path d="m9323 24755c-17-7-37-24-44-37-17-30-99-427-92-445s43-16 153 8c103 22 105 23 95 38-8 14-76 14-134 0-24-5-46-8-48-5-3 2 0 29 7 60l11 55 67 20c37 12 82 24 100 27 26 5 30 9 21 20-15 18-76 18-129-1-23-8-45-15-47-15-6 0 4 84 18 158 13 67 37 84 122 86 34 0 72-3 85-7 28-11 29 6 2 33-16 16-33 20-87 20-38-1-82-7-100-15z"/><path d="m9000 24659c-32-13-78-56-97-93-59-113-55-256 7-256 11 0 35 14 55 31 39 35 42 31 20-32-9-24-25-79-36-123-16-64-18-84-9-107 19-45 68-51 54-6-13 39-4 85 47 240 33 102 56 157 71 168s22 31 26 67c4 48 2 54-31 87-36 36-61 42-107 24zm76-53c10-27-129-236-157-236-14 0-11 60 6 118 20 65 80 132 119 132 15 0 29-6 32-14z"/><path d="m9904 24621c-68-31-94-89-56-124 9-8 42-25 74-37 31-11 59-28 62-36 9-24-23-83-55-99-34-18-96-20-101-3-6 17-28 0-28-21 0-28 21-41 67-41 54 0 90 18 132 65 25 28 31 45 31 79 0 36-5 49-29 68-16 14-50 31-75 38-57 16-58 36-3 65l37 20 23-29c21-25 24-27 36-12 19 22 0 63-35 76-33 13-32 13-80-9z"/><path d="m3614 24603c-31-6-61-40-47-54 8-8 17-8 31 0 28 15 62 14 62-1 0-7-7-22-15-32-20-27-19-50 5-71 11-10 20-21 20-25 0-8-41-25-83-35-20-4-27-11-25-23 5-26 56-25 108 1 37 19 46 29 48 54 2 23-3 35-20 47-22 15-22 17-5 45 23 40 21 56-9 80-27 21-31 22-70 14z"/><path d="m3907 24592c-51-56-116-273-78-261 11 4 98 200 108 245 7 29-10 38-30 16z"/><path d="m7745 24593c-29-7-55-33-55-55 0-10 8-22 18-25 9-4 25-17 35-29 56-71 172-4 123 71-13 19-76 48-96 44-3-1-14-4-25-6zm79-59c21-20 12-34-23-34-28 0-67 31-54 43 12 13 62 7 77-9z"/><path d="m11248 24578c-47-27-128-160-128-210 0-108 189-118 305-16 74 65 91 117 60 178-34 66-161 92-237 48zm145-37c35-14 57-39 57-67 0-33-65-103-117-126-49-22-126-26-148-8-20 17-20 61 0 54 11-5 15 1 15 24 0 36 35 93 70 116 28 17 86 21 123 7z"/><path d="m10456 24532c-47-8-57-28-21-42 29-11 231-12 309-2 51 7 71 26 39 36-30 8-285 15-327 8z"/><path d="m1801 24478c-41-22-64-63-64-113 0-39 5-52 31-78 25-25 40-32 72-32h39l-23-40c-36-60-89-99-134-98-20 0-49 4-64 8-21 6-28 4-28-7 0-23 34-48 72-55 125-20 290 209 246 342-21 63-95 100-147 73zm76-53c28-20 37-64 22-113-9-32-15-39-28-32-9 4-28 13-42 20-50 23-59 95-16 125 27 19 37 19 64 0z"/><path d="m3338 24476c-59-7-110-15-114-18-3-4-4-15 0-24 6-14 16-16 74-11 94 9 167 29 167 46 0 19-4 20-127 7z"/><path d="m9637 24453c-14-13-6-23 18-23 16 0 25 6 25 15 0 15-31 21-43 8z"/><path d="m8490 24419c-58-4-111-7-117-8-7 0-13-11-13-23 0-21 1-21 161-14 151 6 212 17 193 36-14 12-108 16-224 9z"/><path d="m2381 24385c-48-62-91-415-50-415 5 0 9 4 9 9 0 38 56 325 70 365 26 68 11 90-29 41z"/><path d="m10632 24389c-171-17-202-25-187-50 14-22 341 15 370 42 23 22-21 24-183 8z"/><path d="m7289 24396c-3-2-230-14-311-16-5 0-8-6-8-14 0-20 54-25 220-20 80 2 274 4 433 5 230 0 287 3 287 14 0 7-10 16-22 20-23 8-591 18-599 11z"/><path d="m2832 24345c-34-42-85-185-90-249-7-83 14-71 42 24 13 41 37 110 55 153 22 52 30 82 24 88-7 7-17 2-31-16z"/><path d="m4187 24338c-25-54-79-247-72-258 13-22 46-9 73 29l29 40 22-29c45-61 170-94 179-47 3 12-3 17-22 17-13 0-37 5-53 11-32 12-93 67-93 84 0 6 26 37 57 68 42 42 54 60 46 68-19 19-49 1-109-64-32-34-55-55-52-47 19 52 38 134 34 146-9 23-23 16-39-18z"/><path d="m4553 24341c-23-11-48-30-57-43-18-27-59-196-51-209 9-13 35-11 39 4 67 226 60 217 199 225 74 4 88 7 85 21-5 26-159 27-215 2z"/><path d="m3113 24339c-45-9-82-35-94-66-16-43 5-47 44-8 28 28 42 35 75 35 48 0 55-13 32-60-31-60-107-120-152-120-37 0-48 25-41 96 6 54 5 58-10 45-9-7-22-31-28-54-31-115 58-166 165-95 53 35 112 108 121 151 13 58-37 92-112 76z"/><path d="m904 24301c-17-10-45-36-62-56l-31-38-6 29c-10 47-20 59-51 59-24 0-37-11-76-63l-47-62 2 67c2 53-1 68-13 70-12 3-19-21-34-117-14-85-16-124-9-131 18-18 38 1 91 81 27 41 59 84 71 95l23 20-3-70c-5-112 13-123 66-40 45 69 100 125 125 125s34-45 25-126c-5-53-4-64 8-64 53 0 62 174 11 225-21 20-52 19-90-4z"/><path d="m1196 24311c-14-23 7-31 82-31 73 0 114 11 100 26-13 12-175 17-182 5z"/><path d="m7328 24264c-19-10-28-23-28-39 0-29 23-33 47-9 19 19 62 15 76-7 17-27-10-77-81-151-82-86-81-102 8-106 96-4 174 9 178 31 3 15-6 17-84 17h-87l42 46c46 49 80 115 81 152 0 13-13 37-29 53-33 33-78 38-123 13z"/><path d="m2531 24220c-16-10-8-38 14-46 17-7 48 14 39 27-10 17-40 28-53 19z"/><path d="m1328 24156c-93-13-109-19-89-39 27-27 213 3 219 36 4 20-2 20-130 3z"/><path d="m2081 24093c-6-21-17-60-26-88-17-57-19-95-5-95 19 0 70 138 70 191 0 43-27 37-39-8z"/><path d="m3589 23825c-32-17-54-66-45-100 7-27 59-65 88-65 35 0 26-19-24-51-44-28-62-34-112-35-63-1-77-11-51-38 53-53 241 37 289 138 18 39 21 88 6 117-24 44-101 61-151 34zm92-45c13-8 19-21 19-45 0-32-3-35-28-35-57 0-95 55-54 79 22 13 39 13 63 1z"/><path d="m3408 23782c-25-28-46-75-68-153-22-81-26-123-10-117 11 3 95 203 105 250 8 32-7 43-27 20z"/><path d="m3976 23671c-9-16-31-84-50-152-20-68-47-157-61-198-28-85-32-121-11-121 18 0 26 12 48 70 10 27 17 37 17 24 1-11 10-29 22-40 18-16 37-19 120-19 64 0 102 4 110 12 7 7 11 15 8 17-3 3-47 8-99 12s-100 11-107 16c-7 6-10 21-6 40 4 18 1 33-6 37-29 18 85 112 162 135 48 14 57 39 15 44-28 3-93-25-145-65-18-13-33-23-33-21s11 44 25 93c26 95 31 145 15 145-5 0-16-13-24-29z"/><path d="m3025 23635c-5-2-22-6-37-9-19-4-28-13-28-27 0-18 5-19 48-15 26 3 73 8 104 11 56 6 83 21 56 29-19 7-131 15-143 11z"/><path d="m1846 23548c-8-13-28-57-44-98-59-151-81-261-52-267 11-3 20 15 33 59 10 35 39 117 63 182 25 66 43 125 40 133-8 20-24 16-40-9z"/><path d="m742 23505c-59-49-114-231-82-270 22-26 59-18 95 23 19 20 35 33 35 27 0-5-9-82-20-169-23-180-25-239-10-267 14-26 43-26 35 0-3 11-1 57 5 103s15 117 20 158 16 124 24 185c17 127 9 195-27 220-29 20-41 19-75-10zm54-62c8-30-34-118-73-155-23-21-23-21-23-2 0 54 56 184 80 184 5 0 13-12 16-27z"/><path d="m2103 23498c-57-60-99-222-79-302 20-81 116-88 182-14 36 39 45 64 34 92-13 36-65 44-124 17-45-19-46-19-46-1 0 30 46 149 66 171 9 10 26 19 36 19 13 0 18 6 16 18-5 27-59 28-85 0zm97-249c0-23-63-70-89-67-36 4-33 28 8 55 36 24 81 31 81 12z"/><path d="m2597 23462c-21-23-63-119-77-175-8-29-8-51-1-70 13-34 31-35 31-2 0 13 12 55 26 92 53 141 57 154 47 164-6 6-16 3-26-9z"/><path d="m2780 23430c-8-5-24-7-36-4-18 5-24-2-38-42-23-69-21-126 7-152 35-32 69-36 121-14 90 40 123 146 64 202-23 21-91 27-118 10zm88-36c47-33 14-122-54-144-64-21-98 21-78 97 3 11 13 24 22 27 10 4 28 13 42 21 32 19 40 19 68-1z"/><path d="m1300 23396c-100-14-117-21-98-43 15-19 77-13 177 17 128 38 94 49-79 26z"/><path d="m9605 23364c-9-9-14-21-12-28 4-11 12-11 57-1 33 7 90-27 90-55 0-11-22-44-49-74s-55-64-61-76c-28-53 28-93 132-94 103-1 95 22-15 44-34 7-61 18-64 27s10 31 34 56c51 52 63 76 63 121 0 57-51 96-125 96-18 0-41-7-50-16z"/><path d="m4285 23307c-19-35-35-72-35-81 0-33 35-12 61 37l26 48 17-45c16-41 60-85 73-72 3 3-2 21-11 40s-19 49-22 68c-10 51-22 68-49 68-19 0-31-13-60-63z"/><path d="m1350 23321c-53-8-70-17-70-37 0-29 172-1 178 29 4 19-21 20-108 8z"/><path d="m1902 23287c-29-35-62-125-62-171v-49l50 102c28 56 50 109 50 117 0 18-24 18-38 1z"/><path d="m2325 23280c-4-7-3-16 3-22 14-14 47-6 47 12s-40 26-50 10z"/><path d="m9420 23138c-17-18-57-76-88-128l-56-95-7 35c-4 19-12 64-18 98-11 67-24 92-48 92-12 0-14-7-9-32 4-18 13-79 21-135 7-56 16-107 20-113 3-5 17-10 30-10 27 0 48 26 116 140 24 41 63 94 85 117 30 30 39 44 31 52-19 19-44 12-77-21z"/><path d="m8525 22970c-15-45-24-87-21-95 10-28 48-15 104 36 55 50 97 77 107 67 3-2 0-19-5-37-20-69 14-79 91-27 91 64 109 59 109-30 0-54 16-114 30-114 12 0 23 103 17 156-9 85-62 106-144 59l-43-26v24c0 27-28 57-54 57-22 0-52-16-98-52l-38-30 6 46c6 42 5 46-14 46-17 0-25-15-47-80z"/><path d="m7034 22991c-39-4-69-13-82-24-32-29-150-403-133-420 19-19 39 3 61 67l21 65 92 20c51 11 111 23 135 28 24 4 44 13 45 18 3 17-127 17-190 1-31-8-59-13-61-11-7 7 49 174 64 189 11 11 35 16 77 16 66 0 197 17 206 26 3 3-3 12-13 20-21 15-103 17-222 5z"/><path d="m9481 22881c-25-7-59-53-60-82-1-8 8-25 19-37s20-23 20-26c0-2-57-5-127-6-71 0-150-3-178-5-27-2-140-6-250-10-222-7-455-22-463-30-16-16 30-19 221-16 117 1 235 4 262 6 124 9 594 20 837 20 222 0 265 2 254 13-24 24-89 32-284 32h-194l31 26c55 46 36 102-39 117-14 2-36 2-49-2zm69-51c12-7 12-12-4-29-22-25-58-27-76-6-27 32 39 61 80 35z"/><path d="m10360 22811c-31-21 8-29 155-35 83-3 165-8 183-12 21-4 32-3 32 4s-15 19-32 29c-26 14-63 18-178 21-85 1-151-1-160-7z"/><path d="m7552 22771c-72-9-95-23-64-40 15-8 66-8 183-1 90 6 165 12 167 15 3 2-8 10-24 16-36 15-178 20-262 10z"/><path d="m2085 22676c-8-20-18-83-22-140l-6-105 28-13c24-11 32-9 67 10l41 22-7-70c-6-59-5-70 8-70 21 0 24 7 37 91 6 41 14 81 17 89s6 31 7 50c0 19 4 50 9 68 7 28 5 32-13 32-24 0-36-23-46-92-6-41-11-47-52-67l-46-22 7 119c8 130-2 163-29 98z"/><path d="m698 22664c-56-30-77-123-37-160 11-10 48-32 82-49 36-17 63-37 65-48 5-25-77-59-152-63-34-1-62-3-64-3-1-1 2-11 9-22 10-20 17-21 80-17 84 6 159 41 173 81 15 43-6 73-76 108-102 51-114 72-70 122 20 23 35 22 27-2-3-11-1-22 5-26 16-10 50 24 50 50 0 44-41 57-92 29z"/><path d="m1613 22661c-60-28-97-87-91-145 16-141 178-183 275-73 42 47 50 95 29 152-30 76-125 106-213 66zm158-50c34-34 38-77 12-123-59-99-202-83-220 25-10 66 54 127 135 127 35 0 49-6 73-29z"/><path d="m2472 22655c-39-33-48-72-27-116 16-34 16-35-19-94-61-101-45-175 38-175 70 0 126 46 126 105 0 27-13 53-52 106-9 14-8 20 6 34 24 24 5 45-24 27-26-16-26-16-40 18-17 41 8 83 48 78 22-2 28-9 30-36 4-42 26-37 30 7 7 67-60 93-116 46zm81-267c8-30-17-63-61-78-38-13-44-13-58 2-20 20-9 59 33 122l26 40 28-35c15-19 30-41 32-51z"/><path d="m10411 22662c-26-18 20-30 145-37 89-5 124-3 129 5 4 6 3 16-1 20-13 13-256 23-273 12z"/><path d="m7523 22623c-14-3-23-12-23-23 0-25 31-30 135-20 217 20 232 49 25 48-63 0-125-3-137-5z"/><path d="m3017 22602c-21-23-37-67-37-103 0-23-12-42-50-80-78-78-123-86-125-21 0 30-22 37-38 11-12-19-3-62 19-83 34-34 95-13 164 56l36 36 21-24c39-44 133-20 186 47l24 31 6-39c8-46 47-89 73-79 15 6 15 8-2 27-13 14-20 42-24 96-4 59-9 78-23 87-20 12-21 10-65-61-28-46-79-83-115-83-39 0-46 39-18 97 25 52 27 89 5 97-21 8-19 9-37-12z"/><path d="m9376 22600c-45-14-76-49-76-86 0-43 44-80 150-123 44-18 78-36 75-41-8-13-105-47-158-54-55-8-88-1-81 19 8 19-12 28-36 15-25-13-26-42-2-63 51-47 307 11 327 72 11 35-12 58-95 91-122 49-155 84-112 116 21 17 94 18 110 2 22-22 35 6 15 31-21 25-74 35-117 21z"/><path d="m9060 22587c-30-15-66-68-80-116-29-107 11-172 78-125 12 8 22 14 22 12s-9-37-20-78-20-103-20-138c0-54 2-63 17-60 13 2 22 29 39 113 12 61 36 152 53 203 43 127 41 166-6 191-28 14-52 14-83-2zm78-59c4-20-66-117-99-137-22-13-22-13-15 35 3 27 18 66 32 87 20 31 30 38 52 35 16-2 28-10 30-20z"/><path d="m8643 22545c-92-16-163-50-163-76 0-23 10-24 58-3 41 17 169 44 210 44 15 0 34-5 42-10 22-13-17-51-112-106-80-47-94-68-63-94 11-9 41-11 117-5 114 8 128 11 128 31 0 11-19 14-87 14h-87l64 43c35 23 73 54 83 69 28 37 16 75-28 94-41 17-66 17-162-1z"/><path d="m1088 22531c-63-7-78-15-59-34 24-24 227 3 246 33 7 11-90 11-187 1z"/><path d="m6924 22520c-79-10-124-24-124-40 0-20 29-21 154-6 69 8 132 13 140 10 23-9 28 14 7 26-30 16-98 19-177 10z"/><path d="m1180 22456c-91-9-115-14-115-26s16-15 85-15c94 0 180 20 180 41 0 8-8 13-17 13-10-1-70-7-133-13z"/><path d="m1853 22433c-13-30-10-246 3-250s38 170 32 226c-3 39-24 52-35 24z"/><path d="m2013 22015c-8-23-3-25 86-39 45-7 85-16 88-20 4-3-4-28-17-55-20-44-27-50-60-56-45-8-76-28-66-43 4-6 21-8 40-5l34 5-11-41c-8-31-8-44 1-53 16-16 24-5 46 55 10 27 24 50 32 53 52 16 50 14 31 29-18 13-18 15 2 54 41 80 22 103-102 120-99 14-97 14-104-4z"/><path d="m3047 21949c-33-51-220-543-255-673-28-99 35 11 99 174 16 41 34 84 39 95 17 39 128 330 140 368 15 48 0 72-23 36z"/><path d="m645 21920c-10-16 57-353 78-395 13-27 25-34 49-28 28 8 42 42 93 223 47 168 51 207 16 176-24-22-32-42-77-196-20-69-39-129-43-133-7-7-17 33-61 247-12 55-23 103-26 108-7 11-21 10-29-2z"/><path d="m1653 21773c-11-21-33-75-49-120-23-69-25-87-16-108 14-31 32-33 32-2 0 12 21 72 45 132 56 135 54 129 30 133-15 2-27-7-42-35z"/><path d="m1808 21744c-16-8-28-19-28-24s-7-16-17-25c-9-9-18-39-21-66-6-60 13-92 63-109 72-24 160 48 172 140 5 34 1 43-25 70-25 24-39 30-74 30-24-1-55-8-70-16zm114-41c22-20 23-35 2-79-27-56-95-81-128-48-24 23-21 99 4 124s95 27 122 3z"/><path d="m1215 21731c-101-6-110-8-110-26s6-20 65-19c66 1 170 28 170 45 0 5-3 8-7 7-5-1-57-4-118-7z"/><path d="m2570 21705c-5-14-10-32-10-39 0-21-70-111-105-135-17-11-39-21-47-21-26 0-50 29-42 52 5 16 2 19-13 16-30-6-24-66 9-91 43-32 90-17 158 52 54 55 57 57 79 43 20-14 26-13 56 1 19 9 42 28 51 42s19 25 23 25c3 0 7-24 9-52 4-58 7-67 23-51 6 6 11 48 12 94 2 79 1 84-19 87-16 2-28-7-42-30-31-50-68-82-87-74-13 5-16 17-13 53 2 39 0 48-14 51-12 2-21-6-28-23z"/><path d="m3153 21691c-37-23-82-95-90-144-11-73 41-110 157-111 90-1 150 10 150 28 0 9-29 15-107 19-161 10-182 35-114 132 24 35 32 40 66 40 45 0 55 17 23 39-29 21-46 20-85-3z"/><path d="m11380 21654c0-3 20-30 46-61 55-69 72-107 80-186 12-116-34-313-96-411-42-65-19-57 29 10 72 100 110 229 111 369 0 79-4 97-29 150-31 66-94 135-123 135-10 0-18-3-18-6z"/><path d="m11663 21640c-39-16-28-38 19-42l42-3-53-50c-65-61-75-79-61-105 14-27 54-35 101-21 45 14 51 31 12 32-68 1-70 11-9 71s69 88 34 112c-25 18-52 19-85 6z"/><path d="m1153 21610c-36-15-29-40 10-40 45 0 147 21 147 30 0 19-117 26-157 10z"/><path d="m9887 21563c-47-7-24-28 37-34 76-9 86-20 56-61l-23-31 28-23 29-23-29-11c-17-6-40-9-53-7-27 5-38-9-22-28 25-31 117-8 139 34 8 14 6 25-10 45-16 21-18 29-9 47 18 33 4 68-35 85-34 14-53 15-108 7z"/><path d="m10198 21537c-62-34-78-63-30-55 15 3 36 9 46 13 16 7 18 5 12-11-14-33-20-148-8-140 17 11 73 166 70 195-4 36-23 35-90-2z"/><path d="m10738 21531c-63-50-118-211-118-352 0-74 4-93 28-139 46-92 89-99 48-9-15 32-27 80-29 117-9 126 44 294 110 352 51 45 15 73-39 31z"/><path d="m915 21513c-32-33-74-127-75-166-1-72 54-90 114-37 62 55 93 186 51 216-29 22-61 17-90-13zm65-46c0-53-68-153-89-131-3 4 0 9 7 11 6 3 12 21 12 41 0 42 32 102 55 102 9 0 15-9 15-23z"/><path d="m11204 21529c-14-23 25-41 106-50 45-4 85-10 88-13 12-13-42-56-70-56-35 0-91-27-83-40 4-6 19-10 34-10 26 0 27-2 27-47-1-37 3-48 16-51 12-2 19 5 24 25 13 54 31 73 74 73 47 0 60 16 26 31-25 12-25 12-4 39 22 31 18 64-11 79-16 9-161 31-203 31-9 0-20-5-24-11z"/><path d="m9585 21440c-5-8-1-19 11-27 14-11 38-13 99-8 101 8 121 13 106 28-17 17-206 23-216 7z"/><path d="m8315 21367c-79-45-86-111-15-147 22-11 59-20 85-20 28 0 45-4 45-12 0-6-22-33-48-58-82-79-175-89-250-25-34 29-52 32-52 9 0-43 56-85 132-99 56-11 137 17 192 66 101 89 135 244 63 294-32 22-105 19-152-8zm133-46c13-15 11-85-2-98-8-8-103 26-127 46-28 22-19 37 35 62 44 20 73 17 94-10z"/><path d="m8790 21328c-39-64-79-306-49-296 8 3 22 37 31 79 10 41 25 103 34 139 26 107 27 110 15 110-6 0-20-14-31-32z"/><path d="m10798 21298c-27-44-79-167-85-201-5-36 10-58 29-39s99 216 96 236c-4 28-23 30-40 4z"/><path d="m9296 21275c-8-8-18-25-22-38-4-12-27-57-51-100-43-77-49-107-19-107 17 0 140 235 131 250-9 14-21 12-39-5z"/><path d="m10933 21255c-41-20-54-34-67-66-22-55-20-86 9-114 45-46 147-29 194 31 29 37 28 104-1 138-33 38-73 41-135 11zm101-41c42-42-4-114-73-114-47 0-72 28-46 50 8 7 15 18 15 25 0 18 48 55 71 55 9 0 25-7 33-16z"/><path d="m9429 21237c-45-30-79-92-79-143 0-49 16-66 64-66 112 0 205 152 130 211-35 27-73 27-115-2zm90-26c52-33-39-153-106-139-42 9-7 107 48 135 28 15 39 16 58 4z"/><path d="m10394 21236c-3-8-4-25-2-38 4-33 52-33 56 0 6 40-41 73-54 38z"/><path d="m8972 21211c-20-12-10-45 14-49 25-4 49 22 40 43-6 16-33 20-54 6z"/><path d="m12337 21101c-130-6-140-7-158-30-23-28-24-64-3-85 24-24 33-19 36 22l3 37 130 6c93 4 139 11 163 23 37 19 34 37-6 34-15-1-89-4-165-7z"/><path d="m8497 21063c-3-10-11-43-17-74l-11-55-102 1c-135 1-187-4-187-20 0-7 18-15 43-18 49-7 412-12 802-11 351 1 1595 1 2030 0 372-1 511 3 625 15 111 12 141 19 134 30-4 7-79 7-222 2-120-4-356-7-527-7-170 1-647 2-1060 1-860-1-1487 2-1491 6-2 1 4 22 12 47 8 24 14 55 12 69-4 30-34 41-41 14z"/><path d="m7450 21005c-23-28 0-35 108-35 138 0 282 21 282 40 0 6-72 10-189 10-153 0-191-3-201-15z"/><path d="m7538 20939c-10-5-18-17-18-24 0-21 81-20 195 2l90 17-50 7c-76 11-198 10-217-2z"/><path d="m12171 20844c-19-16-31-35-31-50 0-31 11-30 38 1 32 37 64 40 152 16 91-25 169-27 210-6 36 19 42 50 8 42-69-18-107-17-182 2-109 29-157 28-195-5z"/><path d="m10480 20813c-41-88-64-219-37-211 14 5 77 181 77 216 0 31-24 28-40-5z"/><path d="m10613 20829c-45-13-70-52-55-84 10-22 37-34 107-47 17-3 15-6-12-21-39-21-67-22-87-2-21 22-38 18-34-7 4-32 46-52 89-44 19 3 57 24 84 47 42 35 49 46 52 83 3 31-1 46-14 59-24 21-89 29-130 16zm105-66c3-19-1-23-26-23-16 0-44 5-62 12-31 10-32 12-14 25 11 8 36 13 59 11 33-2 41-7 43-25z"/><path d="m2844 20801c-85-39-99-108-35-172 36-36 71-51 71-30 0 4-14 26-30 47-59 73-16 124 103 124 92 0 167-43 167-97 0-32-60-95-161-169-47-34-106-85-132-113-40-42-47-56-47-90 0-32 6-44 31-65 34-29 71-41 94-32 19 7 20 26 1 26-21 0-76 49-76 67 0 31 53 84 170 173 132 99 161 133 167 193 6 53-24 101-82 131-57 30-185 34-241 7z"/><path d="m9435 20704c-49-53-92-224-83-326 10-97 82-129 143-64 74 78 41 198-50 183-36-6-36-6-29 31 11 63 44 141 66 156 18 13 19 18 8 31-17 21-27 19-55-11zm43-266c7-7 12-22 12-34 0-26-36-74-55-74-24 0-36 35-24 67 19 52 42 66 67 41z"/><path d="m10197 20713c-18-17-1-23 71-23 82 0 123 12 80 23-31 9-143 9-151 0z"/><path d="m11297 20713c-8-13-37-115-37-130 0-26 39-53 78-53h37v-77c0-63 3-78 15-78 9 0 16 11 18 30 2 17 12 73 22 125s16 98 14 102c-11 18-37 6-47-22-10-27-16-31-47-28s-35 6-30 28c8 48 5 103-7 107-6 2-13 0-16-4z"/><path d="m9051 20572c-36-152-38-197-6-197 15 0 21 10 27 45 5 25 20 93 34 153 21 86 24 110 14 122-26 32-37 13-69-123z"/><path d="m8535 20693c-86-18-125-47-125-92 0-24 25-28 37-7 20 34 118 63 178 52 59-11 47-39-60-143-57-56-95-101-95-113 0-34 42-53 102-45 67 9 141 40 135 57-4 13-11 14-112 2l-60-6 82 78c109 106 126 164 59 205-29 18-90 23-141 12z"/><path d="m11565 20685c-79-28-95-81-44-139 31-36 31-36 14-81-16-41-16-47-2-69 22-32 47-39 97-26 45 12 80 41 80 67 0 9-18 34-41 55l-41 39 41 52c22 29 36 54 31 55-6 2-10 10-10 18s-16 22-35 30c-41 17-40 17-90-1zm114-44c11-7 10-10-6-15-10-3-35-21-55-40l-36-34-21 22c-27 28-26 41 1 60 24 17 94 21 117 7zm-44-175c25-20 28-26 16-40-17-21-81-22-81-1 0 18 21 65 29 65 3 0 19-11 36-24z"/><path d="m10973 20646c-30-25-68-92-79-138-8-36 12-94 39-113 34-24 80-19 110 13 67 70 87 218 33 254-23 16-75 8-103-16zm87-37c22-41-22-172-62-185-25-8-55 12-60 39-8 40 20 113 53 141 37 31 55 33 69 5z"/><path d="m9842 20628c-43-55-87-193-73-232 15-39 41-34 41 9 0 37 39 152 65 188 8 12 15 27 15 34 0 17-34 17-48 1z"/><path d="m10017 20609c-22-13-72-112-81-160-5-27-2-42 12-59 53-66 200 31 219 143 8 51-29 87-89 87-24 0-51-5-61-11zm101-41c19-19 14-51-13-88-30-41-72-70-102-70-19 0-23 6-23 30 0 35 23 96 47 122 18 20 73 24 91 6z"/><path d="m1477 20585c-80-14-112-32-127-70-4-12-22-99-40-195-25-134-30-178-21-192 6-10 11-25 11-33 0-19 24-19 120-1 41 8 114 18 163 22 59 5 87 11 87 19 0 7-7 16-16 19-29 11-179 6-249-9-38-8-70-15-71-15-2 0 26 144 29 145 1 1 67 17 147 37 112 28 146 40 149 54 3 15-3 16-60 11-35-3-100-15-143-27-44-11-80-19-81-18-6 8 24 171 32 179 5 5 68 19 139 30 158 24 150 21 130 42-21 20-85 21-199 2z"/><path d="m8866 20531c-21-23-18-54 6-59 17-3 52 53 42 69-9 15-30 10-48-10z"/><path d="m9660 20525c0-20 4-26 18-23 9 2 17 12 17 23s-8 21-17 23c-14 3-18-3-18-23z"/><path d="m9170 20453c-32-85-36-129-15-153 22-24 37-17 29 14-3 13 4 55 16 95 21 68 21 101 1 101-5 0-19-26-31-57z"/><path d="m11146 20484c-3-9-6-47-6-86 0-51 3-69 12-66 16 6 41 115 33 145-6 26-30 31-39 7z"/><path d="m10693 20473c-20-7-15-31 7-43 16-9 22-8 27 5 7 19-16 45-34 38z"/><path d="m2231 20348c-107-11-141-21-141-43 0-31 175-7 280 38l35 15h-40c-22-1-82-5-134-10z"/><path d="m2872 19998c-17-17-15-47 4-55 27-10 66 14 62 40-3 25-45 36-66 15z"/><path d="m8466 19614c-38-39-68-108-92-212-10-43-12-68-5-75 20-20 38 3 50 64 19 96 49 165 83 194 60 51 75 11 22-58-44-56-41-88 9-113 17-9 40-23 50-32 26-23 5-32-81-32-65 0-73-2-70-17s16-18 84-21c67-2 85 0 104 16 33 27 21 65-35 104-25 18-45 35-45 39s11 21 25 37c61 73 51 135-22 140-36 3-45-1-77-34z"/><path d="m6673 19391c-36-22-50-55-33-76 18-21 34-18 45 7 15 35 42 33 85-6 57-51 137-60 197-21 37 25 27 34-31 28-74-8-99 1-145 47-44 45-70 50-118 21z"/><path d="m7297 19390c-69-54-101-206-57-263 56-71 200-30 200 58 0 51-45 78-117 71-52-4-52-4-42 21 18 47 49 81 84 93 38 12 44 24 19 34-29 11-61 6-87-14zm92-194c27-33-33-75-81-57-36 14-43 29-22 52 20 23 86 26 103 5z"/><path d="m7549 19395c-38-21-59-72-59-147 0-80 23-108 87-108 105 0 193 139 137 218-34 48-112 66-165 37zm100-36c62-22 70-92 18-144-39-39-79-52-112-37-21 10-23 16-21 75 2 68 14 93 51 107 27 12 27 12 64-1z"/><path d="m7824 19345c-49-29-69-70-61-126 8-59 30-79 89-79 44 0 54 4 95 43 40 38 46 50 50 94 5 45 3 52-22 71-38 30-98 29-151-3zm135-40c33-32-24-118-86-131-37-7-73 22-73 59 0 71 109 121 159 72z"/><path d="m8365 19250c-44-4-60-9-60-20s14-16 50-18c65-5 422 16 460 27 26 6 21 9-38 15-73 7-312 5-412-4z"/><path d="m6682 19217c-80-30-126-95-87-127 16-14 39-4 32 14s3 30 43 55c46 28 88 27 141-4 50-28 124-33 174-11 30 13 29 13-38 21-45 5-88 18-123 36-57 31-90 34-142 16z"/><path d="m8467 19118c-9-7-28-44-41-83-13-38-33-94-45-123-19-47-19-53-5-59 20-7 27 4 61 97 48 135 46 133 53 60 3-36 9-71 13-77 14-22 51-14 89 17l37 31-6-101c-5-88-4-100 10-100 11 0 18 12 22 38 3 20 17 88 30 151s22 118 19 122c-11 19-35 7-58-29-25-40-90-102-106-102-6 0-10 26-10 58 0 85-26 127-63 100z"/></g><g fill="#44b" transform="matrix(.054411653 0 0 -.054411653 990.24574453537 671.39121591264)"><path d="m750 2973c-57-10-88-25-119-57-40-41-55-100-46-179 6-45 12-61 32-77 32-25 35-25 64-1 22 17 24 26 21 89-4 105 24 120 164 87 33-7 119-19 190-25 88-8 134-16 144-26 32-32 8-420-28-456-18-18-126-28-289-28-185 0-206-4-250-52-55-58-58-82-55-363 1-145 7-274 13-293 11-34 51-62 89-62 12 0 35 14 52 31l31 30-6 238c-3 130-3 249 0 264l5 27h112c234 1 363 26 423 82 58 54 98 260 91 463-4 122-7 138-34 191-40 81-79 100-217 108-174 10-361 14-387 9z"/><path d="m3660 2971c-42-9-83-34-103-65-39-59-50-127-54-343-5-206-5-212 18-252 28-50 78-86 143-102 48-12 257-8 370 7l49 7-7-104c-4-57-11-189-16-294-9-177-9-192 8-214 35-47 100-46 136 2 22 29 27 86 42 452 7 191 0 235-44 283-45 48-92 56-241 38-146-18-229-20-265-6l-26 10v162c0 156 8 230 27 249 5 5 99 6 210 2l201-6 5-50c3-39 11-56 31-74 34-29 48-29 80 0 24 20 26 30 28 113 4 147-23 169-218 179-242 11-340 13-374 6z"/><path d="m1565 2945c-14-13-25-32-25-42s-1-297-3-638c-2-677-3-662 55-694 33-19 73-7 101 31 18 24 20 51 29 300 5 150 10 278 12 283 2 6 37 8 97 3 52-3 135-7 186-7 154-2 161-10 143-176-21-189-27-310-18-343 12-45 45-72 86-72 71 0 102 46 102 151 0 33 7 118 16 187 24 190 9 280-58 349-50 52-112 67-263 65-71-1-164-6-205-11-41-4-78-7-81-5-4 2-10 108-13 236-9 286-17 352-47 384-31 33-82 32-114-1z"/><path d="m2542 2944c-55-38-64-109-53-419 6-186 9-215 28-250 50-95 116-125 302-135 75-4 171-5 215-1l78 7-4-178c-2-97-7-181-11-184-4-4-42 1-85 11-104 26-285 27-363 3-106-33-149-107-99-170 26-34 68-41 132-21 74 23 202 20 308-7 182-47 274 5 301 168 12 77 27 831 19 994-7 152-20 181-86 186-88 7-103-51-104-401v-219l-201 4c-197 3-201 3-220 27-18 21-19 42-19 283v260l-29 29c-33 33-74 38-109 13z"/><path d="m2374 1391c-55-34-79-78-79-147 0-51 4-66 27-96 35-45 102-73 153-64 78 15 146 111 131 188-20 108-145 172-232 119z"/><path d="m1853 999c-39-11-66-56-61-101 6-59 69-64 76-6 4 30 34 38 145 38h67v-110c0-135-1-136-132-126-85 6-89 6-113-18-24-25-25-28-25-179 0-162 4-177 47-177 35 0 43 29 43 159v121h73c85 0 141 14 168 41 17 17 19 34 19 169 0 147-1 152-25 175-23 24-30 25-137 24-62 0-128-5-145-10z"/><path d="m2985 1000c-91-16-93-18-104-58-15-51-14-537 0-564 19-36 69-48 204-48 121 0 127 1 151 25l24 24-2 292-3 292-26 19c-31 23-161 33-244 18zm169-86c14-5 16-37 16-250v-245l-102 3-103 3v240 240l40 6c57 9 131 10 149 3z"/><path d="m2351 971c-24-24-29-73-37-372-6-232-6-237 15-258 23-23 29-25 51-11 12 7 16 40 20 150l5 141 35-23c19-13 59-55 88-93 30-39 78-96 108-128 47-51 56-57 74-47 29 16 25 42-15 92-19 24-62 78-95 121-61 77-61 77-33 77 15 0 46 9 69 19 56 26 67 57 62 179-6 156-27 172-220 172-93 0-111-3-127-19zm257-74c16-13 17-168 0-185-7-7-41-12-84-12-40 0-84-4-98-10l-26-10v120 119l98-6c53-3 103-10 110-16z"/></g></svg>