<svg width="75.18" height="95.41" version="1.1" viewBox="0 0 75.18 95.41" xmlns="http://www.w3.org/2000/svg"><defs><clipPath id="t"><path transform="translate(-356.9 -114.6)" d="m355.4 113.1h2.856v0.6209h-2.856z"/></clipPath><clipPath id="s"><path transform="translate(-343.8 -110.9)" d="m344.6 109.4h0.5795v2.856h-0.5795z"/></clipPath><clipPath id="r"><path transform="translate(-344.2 -106)" d="m344.6 104.5h0.9934v2.856h-0.9934z"/></clipPath><clipPath id="q"><path transform="translate(-343.8 -108.8)" d="m344.6 107.4h0.5795v2.856h-0.5795z"/></clipPath><clipPath id="p"><path transform="translate(-343.4 -97.01)" d="m344.6 95.56h0.207v2.856h-0.207z"/></clipPath><clipPath id="o"><path transform="translate(-344.2 -86.83)" d="m344.6 85.34h0.9934v2.856h-0.9934z"/></clipPath><clipPath id="n"><path transform="translate(-344.2 -77.84)" d="m344.6 76.35h0.9934v2.856h-0.9934z"/></clipPath><clipPath id="m"><path transform="translate(-343.8 -94.36)" d="m344.6 92.91h0.5795v2.815h-0.5795z"/></clipPath><clipPath id="l"><path transform="translate(-347.9 -114.1)" d="m346.4 112.7h2.856v0.9934h-2.856z"/></clipPath><clipPath id="k"><path transform="translate(-371.1 -113.7)" d="m7.152 5.5h580.9v410.5h-580.9z"/></clipPath><clipPath id="j"><path transform="matrix(0 -1.333 -1.333 0 1123 793.6)" d="m370.7 113.7h-26.12v-37.92h21.86v0.042h0.083l0.124 0.124v0.041h0.083l0.083 0.083v0.041h0.082l0.125 0.125v0.041h0.082l0.083 0.083v0.041h0.083l0.124 0.124v0.042h0.083l0.124 0.124v0.041h0.083l0.083 0.083v0.041h0.082l0.125 0.125v0.041h0.082l0.125 0.124v0.042h0.082l0.083 0.082v0.042h0.083l0.124 0.124v0.041h0.083l0.124 0.125v0.041h0.083l0.083 0.083v0.041h0.082l0.125 0.124v0.042h0.082l0.125 0.124v0.041h0.082l0.083 0.083v0.041h0.083l0.124 0.125v0.041h0.083l0.124 0.124v0.042h0.083l0.083 0.082v0.042h0.082l0.125 0.124v0.041h0.082l0.083 0.083v0.042h0.083l0.166 0.165" clip-rule="evenodd"/></clipPath><clipPath id="i"><path transform="translate(-395.2 -114.1)" d="m7.152 5.5h580.9v410.5h-580.9z"/></clipPath><clipPath id="h"><path transform="matrix(0 -1.333 -1.333 0 1123 793.6)" d="m414.7 113.7h-44l0.041-34.56 0.124 0.124v0.042h0.083l0.083 0.082v0.042h0.083l0.124 0.124v0.041h0.082l0.125 0.125v0.041h0.082l0.083 0.083v0.041h0.083l0.124 0.124v0.042h0.083l0.124 0.124v0.041h0.083l0.083 0.083v0.042h0.083l0.124 0.124v0.041h0.083l0.124 0.124v0.042h0.082l0.083 0.082v0.042h0.083l0.124 0.124v0.041h0.083l0.083 0.083v0.042h0.083l0.124 0.124v0.041h0.083l0.124 0.124v0.042h0.083l0.082 0.083v0.041h0.083l0.124 0.124v0.042h0.083l0.124 0.124v0.041h0.083l0.083 0.083v0.041h0.083l0.124 0.124v0.042h0.083l0.124 0.124v0.041h0.083l0.082 0.083v0.042h0.083l0.124 0.124v0.041h0.083l0.124 0.124v0.042h0.083l0.083 0.083v0.041h0.083l0.124 0.124v0.042h0.083l0.124 0.124v0.041h0.083l0.082 0.083v0.041h0.083l0.124 0.124v0.042h0.083l0.083 0.083v0.041h0.083l0.124 0.124v0.042h0.083l0.124 0.124v0.041h0.083l0.082 0.083v0.041h0.083l0.124 0.125v0.041h0.083l0.124 0.124v0.042h0.083l0.083 0.082v0.042h0.083l0.124 0.124v0.041h0.083l0.124 0.124v0.042h0.083l0.083 0.083v0.041h0.082l0.124 0.124v0.042h0.083l0.124 0.124v0.041h0.083l0.083 0.083v0.041h0.083l0.124 0.125v0.041h0.083l0.124 0.124v0.042h0.083l0.083 0.082v0.042h0.082l0.125 0.124v0.041h0.082l0.083 0.083v0.041h0.083l0.124 0.125v0.041h0.083l0.124 0.124v0.042h0.083l0.083 0.082v0.042h0.082l0.125 0.124v0.041h0.082l0.125 0.125v0.041h0.082l0.083 0.083v0.041h0.083l0.124 0.124v0.042h0.083l0.124 0.124v0.041h0.083l0.083 0.083v0.041h0.082l0.125 0.125v0.041h0.082l0.125 0.124v0.042h0.082l0.083 0.082v0.042h0.083l0.124 0.124v0.041h0.083l0.124 0.125v0.041h0.083l0.083 0.083v0.041h0.082l0.125 0.124v0.042h0.082l0.083 0.082v0.042h0.083l0.124 0.124v0.041h0.083l0.124 0.125v0.041h0.083l0.083 0.083v0.041h0.083l0.124 0.124v0.042h0.082l0.125 0.124v0.041h0.082l0.083 0.083v0.042h0.083l0.124 0.124v0.041h0.083l0.124 0.124v0.042h0.083l0.083 0.082v0.042h0.083l0.124 0.124v0.041h0.082l0.125 0.125v0.041h0.082l0.083 0.083v0.041h0.083l0.124 0.124v0.042h0.083l0.124 0.124v0.041h0.083l0.083 0.083v0.042h0.083l0.124 0.124v0.041h0.083l0.082 0.083v0.041h0.083l0.124 0.125v0.041h0.083l0.124 0.124v0.041h0.083l0.083 0.083v0.042h0.083l0.124 0.124v0.041h0.083l0.124 0.124v0.042h0.083l0.082 0.083v0.041h0.083l0.124 0.124v0.042h0.083l0.124 0.124v0.041h0.083l0.083 0.083v0.041h0.083l0.124 0.125v0.041h0.083l0.124 0.124v0.041h0.083l0.082 0.083v0.042h0.083l0.124 0.124v0.041h0.083l0.124 0.124v0.042h0.083l0.083 0.083v0.041h0.083l0.124 0.124v0.042h0.083l0.082 0.082v0.042h0.083l0.124 0.124v0.041h0.083l0.124 0.125v0.041h0.083l0.083 0.083v0.041h0.083l0.124 0.124v0.042h0.083l0.124 0.124v0.041h0.083l0.082 0.083v0.041h0.083l0.124 0.125v0.041h0.083l0.124 0.124v0.042h0.083l0.083 0.082v0.042h0.083l0.124 0.124v0.041h0.083l0.124 0.125v0.041h0.083l0.083 0.083v0.041h0.082l0.124 0.124v0.042h0.083l0.083 0.082v0.042h0.083l0.124 0.124v0.041h0.083l0.124 0.125v0.041h0.083l0.083 0.083v0.041h0.082l0.125 0.124v0.042h0.082l0.125 0.124v0.041h0.082l0.083 0.083v0.042h0.083l0.124 0.124v0.041h0.083l0.124 0.124v0.042h0.083l0.083 0.082v0.042h0.082l0.125 0.124v0.041h0.082l0.125 0.125v0.041h0.082l0.083 0.083v0.041h0.083l0.124 0.124v0.042h0.083l0.124 0.124v0.041h0.083l0.083 0.083v0.042h0.082l0.125 0.124v0.041h0.082l0.083 0.083v0.041h0.083l0.124 0.124v0.042h0.083l0.124 0.124v0.041h0.083l0.083 0.083v0.042h0.082l0.125 0.124v0.041h0.082l0.125 0.124v0.042h0.082l0.083 0.083v0.041h0.083l0.124 0.124v0.042h0.083l0.124 0.124v0.041h0.083l0.083 0.083v0.041h0.083l0.124 0.124v0.042h0.082l0.125 0.124v0.041h0.082l0.083 0.083v0.042h0.083l0.124 0.124v0.041h0.083l0.124 0.124v0.042h0.083l0.083 0.083v0.041h0.083l0.124 0.124v0.041h0.083l0.082 0.083v0.042h0.083l0.124 0.124v0.041h0.083l0.124 0.124v0.042h0.083l0.083 0.083v0.041h0.083l0.124 0.124v0.042h0.083l0.124 0.124v0.041h0.083l0.082 0.083v0.041h0.083l0.124 0.125v0.041h0.083l0.124 0.124v0.041h0.083l0.083 0.083v0.042h0.083l0.124 0.124v0.041h0.083l0.124 0.124v0.042h0.083l0.082 0.083v0.041h0.083l0.124 0.124v0.042h0.083l0.124 0.124v0.041h0.083l0.083 0.083v0.041h0.083l0.124 0.125v0.041h0.083l0.082 0.083v0.041h0.083l0.124 0.124v0.042h0.083l0.124 0.124v0.041h0.083l0.083 0.083v0.041h0.083l0.124 0.125v0.041h0.083l0.124 0.124v0.042h0.083l0.082 0.082v0.042h0.083l0.124 0.124v0.041h0.083l0.124 0.125v0.041h0.083l0.083 0.083v0.041h0.083l0.124 0.124v0.042h0.083l0.124 0.124v0.041h0.083l0.082 0.083v0.041h0.083l0.124 0.125v0.041h0.083l0.124 0.124v0.042h0.083l0.083 0.082v0.042h0.083l0.124 0.124v0.041h0.083l0.083 0.083v0.042h0.082l0.124 0.124v0.041h0.083l0.124 0.124v0.042h0.083l0.083 0.082v0.042h0.083l0.124 0.124v0.041h0.083l0.124 0.125v0.041h0.083l0.083 0.083v0.041h0.082l0.125 0.124v0.042h0.082l0.125 0.124v0.041h0.082l0.083 0.083v0.042h0.083l0.124 0.124v0.041h0.083l0.124 0.124v0.042h0.083l0.083 0.082v0.042h0.082l0.125 0.124v0.041h0.082l0.083 0.083v0.042h0.083l0.124 0.124v0.041h0.083l0.124 0.124v0.042h0.083l0.083 0.083v0.041h0.082l0.125 0.124v0.042h0.082l0.125 0.124v0.041h0.082l0.083 0.083v0.041h0.083l0.124 0.124v0.042h0.083l0.124 0.124v0.041h0.083l0.083 0.083v0.042h0.082l0.125 0.124v0.041h0.082l0.125 0.124v0.042h0.082l0.083 0.083v0.041h0.083l0.124 0.124v0.042h0.083l0.124 0.124v0.041h0.083l0.083 0.083v0.041h0.083l0.124 0.124v0.042h0.082l0.083 0.083v0.041h0.083l0.124 0.124v0.042h0.083l0.124 0.124v0.041h0.083l0.083 0.083v0.041h0.083l0.124 0.125v0.041h0.083l0.124 0.124v0.042h0.083l0.082 0.082v0.042h0.083l0.124 0.124v0.041h0.083l0.124 0.124v0.042h0.083l0.083 0.083v0.041h0.083l0.124 0.124v0.042h0.083l0.124 0.124v0.041h0.083l0.082 0.083v0.041h0.083l0.124 0.125v0.041h0.083l0.124 0.124v0.042h0.083l0.083 0.082v0.042h0.083l0.124 0.124v0.041h0.083l0.082 0.083v0.041h0.083l0.124 0.125" clip-rule="evenodd"/></clipPath><clipPath id="g"><path transform="translate(-344.2 -72.13)" d="m7.152 5.5h580.9v410.5h-580.9z"/></clipPath><clipPath id="f"><path transform="matrix(0 -1.333 -1.333 0 1123 793.6)" d="m366.4 75.77h-21.82l0.041-17.14 0.083 0.083v0.041h0.083l0.083 0.083v0.041h0.083l0.124 0.125v0.041h0.083l0.124 0.124v0.042h0.082l0.083 0.082v0.042h0.083l0.124 0.124v0.041h0.083l0.124 0.125v0.041h0.083l0.083 0.083v0.041h0.083l0.124 0.124v0.042h0.083l0.124 0.124v0.041h0.083l0.082 0.083v0.041h0.083l0.124 0.125v0.041h0.083l0.124 0.124v0.042h0.083l0.083 0.082v0.042h0.083l0.124 0.124v0.041h0.083l0.124 0.125v0.041h0.083l0.082 0.083v0.041h0.083l0.124 0.124v0.042h0.083l0.083 0.082v0.042h0.083l0.124 0.124v0.041h0.083l0.124 0.125v0.041h0.083l0.082 0.083v0.041h0.083l0.124 0.124v0.042h0.083l0.124 0.124v0.041h0.083l0.083 0.083v0.042h0.083l0.124 0.124v0.041h0.083l0.124 0.124v0.042h0.083l0.082 0.083v0.041h0.083l0.124 0.124v0.041h0.083l0.124 0.125v0.041h0.083l0.083 0.083v0.041h0.083l0.124 0.124v0.042h0.083l0.124 0.124v0.041h0.083l0.082 0.083v0.042h0.083l0.124 0.124v0.041h0.083l0.083 0.083v0.041h0.083l0.124 0.125v0.041h0.083l0.124 0.124v0.041h0.083l0.083 0.083v0.042h0.082l0.125 0.124v0.041h0.082l0.124 0.124v0.042h0.083l0.083 0.083v0.041h0.083l0.124 0.124v0.042h0.083l0.124 0.124v0.041h0.083l0.083 0.083v0.041h0.082l0.125 0.125v0.041h0.082l0.124 0.124v0.041h0.083l0.083 0.083v0.042h0.083l0.124 0.124v0.041h0.083l0.083 0.083v0.041h0.082l0.125 0.125v0.041h0.082l0.125 0.124v0.042h0.082l0.083 0.082v0.042h0.083l0.124 0.124v0.041h0.083l0.124 0.125v0.041h0.083l0.083 0.083v0.041h0.082l0.125 0.124v0.042h0.082l0.125 0.124v0.041h0.082l0.083 0.083v0.041h0.083l0.124 0.125v0.041h0.083l0.124 0.124v0.042h0.083l0.083 0.082v0.042h0.082l0.125 0.124v0.041h0.082l0.125 0.125v0.041h0.082l0.083 0.083v0.041h0.083l0.124 0.124v0.042h0.083l0.083 0.082v0.042h0.083l0.124 0.124v0.041h0.082l0.125 0.125v0.041h0.082l0.083 0.083v0.041h0.083l0.124 0.124v0.042h0.083l0.124 0.124v0.041h0.083l0.083 0.083v0.041h0.083l0.124 0.125v0.041h0.083l0.124 0.124v0.042h0.083l0.082 0.082v0.042h0.083l0.124 0.124v0.041h0.083l0.124 0.125v0.041h0.083l0.083 0.083v0.041h0.083l0.124 0.124v0.042h0.083l0.124 0.124v0.041h0.083l0.082 0.083v0.041h0.083l0.124 0.125v0.041h0.083l0.083 0.083v0.041h0.083l0.124 0.124v0.042h0.083l0.124 0.124v0.041h0.083l0.082 0.083v0.042h0.083l0.124 0.124v0.041h0.083l0.124 0.124v0.042h0.083l0.083 0.083v0.041h0.083l0.124 0.124v0.041h0.083l0.124 0.125v0.041h0.083l0.082 0.083v0.041h0.083l0.124 0.124v0.042h0.083l0.124 0.124v0.041h0.083l0.083 0.083v0.042h0.083l0.124 0.124v0.041h0.083l0.124 0.124v0.042h0.083l0.082 0.083v0.041h0.083l0.124 0.124v0.041h0.083l0.083 0.083v0.042h0.083l0.124 0.124v0.041h0.083l0.124 0.124v0.042h0.083l0.083 0.083v0.041h0.082l0.124 0.124v0.042h0.083l0.124 0.124v0.041h0.083l0.083 0.083v0.041h0.083l0.124 0.125v0.041h0.083l0.124 0.124v0.041h0.083l0.083 0.083v0.042h0.082l0.125 0.124v0.041h0.082l0.124 0.124v0.042h0.083l0.083 0.083v0.041h0.083l0.083 0.083" clip-rule="evenodd"/></clipPath><clipPath id="e"><path transform="translate(-344.2 -72.13)" d="m7.152 5.5h580.9v410.5h-580.9z"/></clipPath><clipPath id="d"><path transform="matrix(0 -1.333 -1.333 0 1123 793.6)" d="m366.4 75.77h-21.82l0.041-17.14 0.083 0.083v0.041h0.083l0.083 0.083v0.041h0.083l0.124 0.125v0.041h0.083l0.124 0.124v0.042h0.082l0.083 0.082v0.042h0.083l0.124 0.124v0.041h0.083l0.124 0.125v0.041h0.083l0.083 0.083v0.041h0.083l0.124 0.124v0.042h0.083l0.124 0.124v0.041h0.083l0.082 0.083v0.041h0.083l0.124 0.125v0.041h0.083l0.124 0.124v0.042h0.083l0.083 0.082v0.042h0.083l0.124 0.124v0.041h0.083l0.124 0.125v0.041h0.083l0.082 0.083v0.041h0.083l0.124 0.124v0.042h0.083l0.083 0.082v0.042h0.083l0.124 0.124v0.041h0.083l0.124 0.125v0.041h0.083l0.082 0.083v0.041h0.083l0.124 0.124v0.042h0.083l0.124 0.124v0.041h0.083l0.083 0.083v0.042h0.083l0.124 0.124v0.041h0.083l0.124 0.124v0.042h0.083l0.082 0.083v0.041h0.083l0.124 0.124v0.041h0.083l0.124 0.125v0.041h0.083l0.083 0.083v0.041h0.083l0.124 0.124v0.042h0.083l0.124 0.124v0.041h0.083l0.082 0.083v0.042h0.083l0.124 0.124v0.041h0.083l0.083 0.083v0.041h0.083l0.124 0.125v0.041h0.083l0.124 0.124v0.041h0.083l0.083 0.083v0.042h0.082l0.125 0.124v0.041h0.082l0.124 0.124v0.042h0.083l0.083 0.083v0.041h0.083l0.124 0.124v0.042h0.083l0.124 0.124v0.041h0.083l0.083 0.083v0.041h0.082l0.125 0.125v0.041h0.082l0.124 0.124v0.041h0.083l0.083 0.083v0.042h0.083l0.124 0.124v0.041h0.083l0.083 0.083v0.041h0.082l0.125 0.125v0.041h0.082l0.125 0.124v0.042h0.082l0.083 0.082v0.042h0.083l0.124 0.124v0.041h0.083l0.124 0.125v0.041h0.083l0.083 0.083v0.041h0.082l0.125 0.124v0.042h0.082l0.125 0.124v0.041h0.082l0.083 0.083v0.041h0.083l0.124 0.125v0.041h0.083l0.124 0.124v0.042h0.083l0.083 0.082v0.042h0.082l0.125 0.124v0.041h0.082l0.125 0.125v0.041h0.082l0.083 0.083v0.041h0.083l0.124 0.124v0.042h0.083l0.083 0.082v0.042h0.083l0.124 0.124v0.041h0.082l0.125 0.125v0.041h0.082l0.083 0.083v0.041h0.083l0.124 0.124v0.042h0.083l0.124 0.124v0.041h0.083l0.083 0.083v0.041h0.083l0.124 0.125v0.041h0.083l0.124 0.124v0.042h0.083l0.082 0.082v0.042h0.083l0.124 0.124v0.041h0.083l0.124 0.125v0.041h0.083l0.083 0.083v0.041h0.083l0.124 0.124v0.042h0.083l0.124 0.124v0.041h0.083l0.082 0.083v0.041h0.083l0.124 0.125v0.041h0.083l0.083 0.083v0.041h0.083l0.124 0.124v0.042h0.083l0.124 0.124v0.041h0.083l0.082 0.083v0.042h0.083l0.124 0.124v0.041h0.083l0.124 0.124v0.042h0.083l0.083 0.083v0.041h0.083l0.124 0.124v0.041h0.083l0.124 0.125v0.041h0.083l0.082 0.083v0.041h0.083l0.124 0.124v0.042h0.083l0.124 0.124v0.041h0.083l0.083 0.083v0.042h0.083l0.124 0.124v0.041h0.083l0.124 0.124v0.042h0.083l0.082 0.083v0.041h0.083l0.124 0.124v0.041h0.083l0.083 0.083v0.042h0.083l0.124 0.124v0.041h0.083l0.124 0.124v0.042h0.083l0.083 0.083v0.041h0.082l0.124 0.124v0.042h0.083l0.124 0.124v0.041h0.083l0.083 0.083v0.041h0.083l0.124 0.125v0.041h0.083l0.124 0.124v0.041h0.083l0.083 0.083v0.042h0.082l0.125 0.124v0.041h0.082l0.124 0.124v0.042h0.083l0.083 0.083v0.041h0.083l0.083 0.083" clip-rule="evenodd"/></clipPath><clipPath id="c"><path transform="translate(-348.3 -76.19)" d="m7.152 5.5h580.9v410.5h-580.9z"/></clipPath><clipPath id="b"><path transform="matrix(0 -1.333 -1.333 0 1123 793.6)" d="m366.4 75.77h-21.82l0.041-17.14 0.083 0.083v0.041h0.083l0.083 0.083v0.041h0.083l0.124 0.125v0.041h0.083l0.124 0.124v0.042h0.082l0.083 0.082v0.042h0.083l0.124 0.124v0.041h0.083l0.124 0.125v0.041h0.083l0.083 0.083v0.041h0.083l0.124 0.124v0.042h0.083l0.124 0.124v0.041h0.083l0.082 0.083v0.041h0.083l0.124 0.125v0.041h0.083l0.124 0.124v0.042h0.083l0.083 0.082v0.042h0.083l0.124 0.124v0.041h0.083l0.124 0.125v0.041h0.083l0.082 0.083v0.041h0.083l0.124 0.124v0.042h0.083l0.083 0.082v0.042h0.083l0.124 0.124v0.041h0.083l0.124 0.125v0.041h0.083l0.082 0.083v0.041h0.083l0.124 0.124v0.042h0.083l0.124 0.124v0.041h0.083l0.083 0.083v0.042h0.083l0.124 0.124v0.041h0.083l0.124 0.124v0.042h0.083l0.082 0.083v0.041h0.083l0.124 0.124v0.041h0.083l0.124 0.125v0.041h0.083l0.083 0.083v0.041h0.083l0.124 0.124v0.042h0.083l0.124 0.124v0.041h0.083l0.082 0.083v0.042h0.083l0.124 0.124v0.041h0.083l0.083 0.083v0.041h0.083l0.124 0.125v0.041h0.083l0.124 0.124v0.041h0.083l0.083 0.083v0.042h0.082l0.125 0.124v0.041h0.082l0.124 0.124v0.042h0.083l0.083 0.083v0.041h0.083l0.124 0.124v0.042h0.083l0.124 0.124v0.041h0.083l0.083 0.083v0.041h0.082l0.125 0.125v0.041h0.082l0.124 0.124v0.041h0.083l0.083 0.083v0.042h0.083l0.124 0.124v0.041h0.083l0.083 0.083v0.041h0.082l0.125 0.125v0.041h0.082l0.125 0.124v0.042h0.082l0.083 0.082v0.042h0.083l0.124 0.124v0.041h0.083l0.124 0.125v0.041h0.083l0.083 0.083v0.041h0.082l0.125 0.124v0.042h0.082l0.125 0.124v0.041h0.082l0.083 0.083v0.041h0.083l0.124 0.125v0.041h0.083l0.124 0.124v0.042h0.083l0.083 0.082v0.042h0.082l0.125 0.124v0.041h0.082l0.125 0.125v0.041h0.082l0.083 0.083v0.041h0.083l0.124 0.124v0.042h0.083l0.083 0.082v0.042h0.083l0.124 0.124v0.041h0.082l0.125 0.125v0.041h0.082l0.083 0.083v0.041h0.083l0.124 0.124v0.042h0.083l0.124 0.124v0.041h0.083l0.083 0.083v0.041h0.083l0.124 0.125v0.041h0.083l0.124 0.124v0.042h0.083l0.082 0.082v0.042h0.083l0.124 0.124v0.041h0.083l0.124 0.125v0.041h0.083l0.083 0.083v0.041h0.083l0.124 0.124v0.042h0.083l0.124 0.124v0.041h0.083l0.082 0.083v0.041h0.083l0.124 0.125v0.041h0.083l0.083 0.083v0.041h0.083l0.124 0.124v0.042h0.083l0.124 0.124v0.041h0.083l0.082 0.083v0.042h0.083l0.124 0.124v0.041h0.083l0.124 0.124v0.042h0.083l0.083 0.083v0.041h0.083l0.124 0.124v0.041h0.083l0.124 0.125v0.041h0.083l0.082 0.083v0.041h0.083l0.124 0.124v0.042h0.083l0.124 0.124v0.041h0.083l0.083 0.083v0.042h0.083l0.124 0.124v0.041h0.083l0.124 0.124v0.042h0.083l0.082 0.083v0.041h0.083l0.124 0.124v0.041h0.083l0.083 0.083v0.042h0.083l0.124 0.124v0.041h0.083l0.124 0.124v0.042h0.083l0.083 0.083v0.041h0.082l0.124 0.124v0.042h0.083l0.124 0.124v0.041h0.083l0.083 0.083v0.041h0.083l0.124 0.125v0.041h0.083l0.124 0.124v0.041h0.083l0.083 0.083v0.042h0.082l0.125 0.124v0.041h0.082l0.124 0.124v0.042h0.083l0.083 0.083v0.041h0.083l0.083 0.083" clip-rule="evenodd"/></clipPath><clipPath id="a"><path transform="matrix(0 -1 -1 0 108.4 535.6)" d="m533.2 101h10.1v7.782h-10.1z"/></clipPath></defs><g transform="translate(-977.6 -70.93)"><g></g><g fill="none" stroke="#000" stroke-linecap="round" stroke-width=".612"><path transform="matrix(0 -1.333 -1.333 0 969.9 317.8)" d="m0 0" clip-path="url(#t)"/><path transform="matrix(0 -1.333 -1.333 0 974.8 335.2)" d="m0 0" clip-path="url(#s)"/><path transform="matrix(0 -1.333 -1.333 0 981.3 334.6)" d="m0 0" clip-path="url(#r)"/><path transform="matrix(0 -1.333 -1.333 0 977.5 335.2)" d="m0 0" clip-path="url(#q)"/><path transform="matrix(0 -1.333 -1.333 0 993.3 335.7)" d="m0 0" clip-path="url(#p)"/><path transform="matrix(0 -1.333 -1.333 0 1007 334.6)" d="m0 0" clip-path="url(#o)"/><path transform="matrix(0 -1.333 -1.333 0 1019 334.6)" d="m0 0" clip-path="url(#n)"/><path transform="matrix(0 -1.333 -1.333 0 996.9 335.2)" d="m0 0" clip-path="url(#m)"/><path transform="matrix(0 -1.333 -1.333 0 970.5 329.7)" d="m0 0" clip-path="url(#l)"/></g><g clip-path="url(#j)"><path transform="matrix(0 -1.333 -1.333 0 971 298.8)" d="m0 0v0" clip-path="url(#k)" fill="none" stroke="#000" stroke-linecap="round" stroke-width=".612"/></g><g clip-path="url(#h)"><path transform="matrix(0 -1.333 -1.333 0 970.5 266.6)" d="m0 0v0" clip-path="url(#i)" fill="none" stroke="#000" stroke-linecap="round" stroke-width=".612"/></g><g clip-path="url(#f)"><path transform="matrix(0 -1.333 -1.333 0 1026 334.6)" d="m0 0v0" clip-path="url(#g)" fill="none" stroke="#000" stroke-linecap="round" stroke-width=".612"/></g><g clip-path="url(#d)"><path transform="matrix(0 -1.333 -1.333 0 1026 334.6)" d="m0 0v0" clip-path="url(#e)" fill="none" stroke="#000" stroke-linecap="round" stroke-width=".612"/></g><g clip-path="url(#b)"><path transform="matrix(0 -1.333 -1.333 0 1021 329.2)" d="m0 0v0" clip-path="url(#c)" fill="none" stroke="#000" stroke-linecap="round" stroke-width=".612"/></g><g><path transform="matrix(0 -1.333 -1.333 0 987.1 79.66)" d="m0 0h-57.95v-36.26z" fill="#b3b3b3" stroke="#000" stroke-linejoin="round" stroke-miterlimit="10" stroke-width=".81"/><path d="m1025 148.1h1.078l-0.6406 2.922c-0.1367 0.5625-0.2265 0.9062-0.2656 1.031 0.1641 0.7812 0.4101 1.172 0.7344 1.172 0.375 0 0.5703-0.2656 0.5937-0.7969h0.2188c-0.012 0.4922-0.1016 0.8867-0.2657 1.188-0.1679 0.3008-0.3867 0.4531-0.6562 0.4531-0.2188 0-0.3867-0.0898-0.5-0.2656-0.1172-0.1875-0.2344-0.5547-0.3594-1.109-0.4375 0.918-1.152 1.375-2.141 1.375-0.6875 0-1.234-0.2578-1.641-0.7812-0.3985-0.5312-0.5938-1.289-0.5938-2.281 0-0.9688 0.2188-1.723 0.6563-2.266 0.4453-0.5391 0.9765-0.8125 1.594-0.8125 0.4258 0 0.7813 0.1562 1.062 0.4688 0.2813 0.3047 0.5313 0.8047 0.75 1.5zm-0.5469 2.484c-0.1992-0.6875-0.4218-1.219-0.6718-1.594-0.2422-0.3828-0.5313-0.5781-0.875-0.5781-0.7735 0-1.156 0.9023-1.156 2.703 0 1.719 0.3672 2.578 1.109 2.578 0.6328 0 1.109-0.7539 1.422-2.266z" aria-label="α"/><path transform="matrix(1.333 0 0 1.333 978.2 79.71)" d="m5.015-6.588-0.4922 5.357c-0.02344 0.252-0.03516 0.4161-0.03516 0.4923 0 0.126 0.02344 0.2227 0.07031 0.293 0.05273 0.09378 0.1318 0.1641 0.2344 0.211 0.1084 0.04103 0.2842 0.05861 0.5273 0.05861l-0.05859 0.1758h-2.531l0.04688-0.1758h0.1172c0.2021 0 0.3691-0.04103 0.5039-0.1289 0.09375-0.06154 0.1641-0.1641 0.2109-0.3048 0.0293-0.09378 0.06445-0.3224 0.1055-0.6916l0.07031-0.8205h-1.84l-0.6562 0.8909c-0.1494 0.2051-0.2432 0.3487-0.2812 0.4337-0.04102 0.08791-0.05859 0.17-0.05859 0.2462 0 0.1026 0.03809 0.1876 0.1172 0.2579 0.08496 0.07033 0.2227 0.1114 0.4102 0.1172l-0.04688 0.1758h-1.91l0.05859-0.1758c0.2344-0.005861 0.4395-0.08498 0.6211-0.2344 0.1787-0.1465 0.4453-0.463 0.7969-0.9495l3.844-5.228zm-0.9492 1.582-1.863 2.544h1.617z" clip-path="url(#a)" aria-label="A"/></g><path transform="matrix(0 -1.333 -1.333 0 1027 156.9)" d="m0 0c2.235 0 4.429-1.242 5.671-3.063" fill="none" stroke="#000" stroke-miterlimit="10" stroke-width=".608"/><path transform="matrix(1.333 0 0 1.333 978.2 166.1)" d="m1.441-6.273 0.05859-0.1758h2.309c0.3809 0 0.7207 0.06447 1.02 0.1876 0.3047 0.1172 0.5303 0.2872 0.6797 0.504 0.1553 0.211 0.2344 0.4396 0.2344 0.6799 0 0.3751-0.1377 0.7121-0.4102 1.008-0.2666 0.2989-0.7002 0.5158-1.301 0.6564 0.3896 0.1495 0.6738 0.3458 0.8555 0.5861 0.1875 0.2432 0.2812 0.5099 0.2812 0.7971 0 0.3136-0.08203 0.6183-0.2461 0.9143-0.1641 0.2901-0.375 0.5158-0.6328 0.6799-0.2578 0.1582-0.5713 0.2755-0.9375 0.3517-0.2578 0.05568-0.665 0.08205-1.219 0.08205h-2.355l0.05859-0.1758c0.249-0.005861 0.416-0.0293 0.5039-0.07033 0.123-0.05275 0.2139-0.1231 0.2695-0.211 0.07617-0.1231 0.1787-0.4015 0.3047-0.8323l1.16-3.903c0.09375-0.3282 0.1406-0.5568 0.1406-0.6916 0-0.1172-0.04394-0.2051-0.1289-0.2696-0.08789-0.07033-0.252-0.1055-0.4922-0.1055-0.05566 0-0.1055-0.00293-0.1523-0.01172zm0.9609 2.684h0.4453c0.6562 0 1.143-0.1407 1.465-0.422 0.3281-0.2872 0.4922-0.6476 0.4922-1.078 0-0.3282-0.1025-0.5802-0.3047-0.7619-0.1963-0.1788-0.5098-0.2696-0.9375-0.2696-0.1113 0-0.2549 0.01758-0.4336 0.04689zm-0.9375 3.165c0.3428 0.04689 0.6123 0.07033 0.8086 0.07033 0.4922 0 0.9287-0.1465 1.312-0.4454 0.3809-0.296 0.5742-0.6975 0.5742-1.207 0-0.3898-0.123-0.6945-0.3633-0.9143-0.2344-0.2169-0.6152-0.3282-1.137-0.3282-0.1025 0-0.2285 0.00586-0.375 0.01172zm48.35-6.166-0.4805 2.086h-0.1758l-0.01172-0.5275c-0.01758-0.1876-0.05566-0.3546-0.1172-0.504-0.05566-0.1465-0.1406-0.2755-0.2578-0.3868-0.1113-0.1084-0.2549-0.1934-0.4336-0.2579-0.1729-0.06154-0.3633-0.09378-0.5742-0.09378-0.5625 0-1.061 0.1582-1.488 0.4689-0.5391 0.3927-0.9609 0.9495-1.266 1.676-0.2578 0.5949-0.3867 1.196-0.3867 1.805 0 0.6271 0.1816 1.125 0.5508 1.5 0.3662 0.3692 0.8379 0.5509 1.418 0.5509 0.4453 0 0.8379-0.09671 1.184-0.293 0.3428-0.1934 0.6592-0.4952 0.9492-0.9026h0.2227c-0.3457 0.5568-0.7324 0.9671-1.16 1.231-0.4219 0.255-0.9316 0.3868-1.523 0.3868-0.5244 0-0.9902-0.1114-1.395-0.3282-0.4072-0.2256-0.7148-0.5392-0.9258-0.9378-0.2109-0.3985-0.3164-0.8264-0.3164-1.289 0-0.7033 0.1875-1.386 0.5625-2.051 0.375-0.6623 0.8906-1.184 1.547-1.559 0.6621-0.381 1.327-0.5744 1.992-0.5744 0.3105 0 0.6621 0.07619 1.055 0.2227 0.1699 0.06447 0.2959 0.09378 0.375 0.09378 0.07031 0 0.1318-0.01465 0.1875-0.04689 0.06152-0.0293 0.1582-0.1201 0.293-0.2696z" aria-label="BC"/><path transform="matrix(0 -1.333 -1.333 0 987.1 151)" d="m0 0v-4.471h-4.429" fill="none" stroke="#000" stroke-miterlimit="10" stroke-width=".608"/><path transform="matrix(0 -1.333 -1.333 0 1052 124.3)" d="m0 0-12.58 20.28" fill="#b3b3b3"/><path transform="matrix(0 -1.333 -1.333 0 1052 124.3)" d="m0 0-9.935 16.02" fill="none" stroke="#000" stroke-miterlimit="10" stroke-width=".81"/><path transform="matrix(0 -1.333 -1.333 0 1031 134.8)" d="M 0,0 -4.677,4.264 -2.815,-1.821 0,0"/><path transform="matrix(0 -1.333 -1.333 0 1031 137.5)" d="m0 0-4.264-2.608-2.607 4.429" fill="none" stroke="#000" stroke-miterlimit="10" stroke-width=".608"/></g></svg>
