<?xml version="1.0" encoding="UTF-8" standalone="no"?>
<svg
   width="305.37729pt"
   height="273.60236pt"
   viewBox="0 0 305.37728 273.60235"
   version="1.1"
   id="svg61"
   sodipodi:docname="1682t.svg"
   inkscape:version="1.4.2 (ebf0e940, 2025-05-08)"
   xmlns:inkscape="http://www.inkscape.org/namespaces/inkscape"
   xmlns:sodipodi="http://sodipodi.sourceforge.net/DTD/sodipodi-0.dtd"
   xmlns:xlink="http://www.w3.org/1999/xlink"
   xmlns="http://www.w3.org/2000/svg"
   xmlns:svg="http://www.w3.org/2000/svg"
   xmlns:rdf="http://www.w3.org/1999/02/22-rdf-syntax-ns#"
   xmlns:cc="http://creativecommons.org/ns#"
   xmlns:dc="http://purl.org/dc/elements/1.1/">
  <sodipodi:namedview
     id="namedview61"
     pagecolor="#ffffff"
     bordercolor="#000000"
     borderopacity="0.25"
     inkscape:showpageshadow="2"
     inkscape:pageopacity="0.0"
     inkscape:pagecheckerboard="0"
     inkscape:deskcolor="#d1d1d1"
     inkscape:document-units="pt"
     showgrid="false"
     inkscape:zoom="1.6837421"
     inkscape:cx="202.82204"
     inkscape:cy="182.33196"
     inkscape:current-layer="svg61" />
  <metadata
     id="metadata1">
    <rdf:RDF>
      <cc:Work>
        <dc:type
           rdf:resource="http://purl.org/dc/dcmitype/StillImage" />
        <dc:date>2026-04-18T20:25:10.902401</dc:date>
        <dc:format>image/svg+xml</dc:format>
        <dc:creator>
          <cc:Agent>
            <dc:title>Matplotlib v3.8.2, https://matplotlib.org/</dc:title>
          </cc:Agent>
        </dc:creator>
      </cc:Work>
    </rdf:RDF>
  </metadata>
  <defs
     id="defs1">
    <style
       type="text/css"
       id="style1">*{stroke-linejoin: round; stroke-linecap: butt}</style>
  </defs>
  <g
     id="axes_1"
     transform="translate(-8.68875,-12.6225)">
    <g
       id="patch_2">
      <path
         d="M 58.24,281.78325 H 300.74529 V 15.67125 H 58.24 Z"
         style="fill:#ffffff"
         id="path2" />
    </g>
    <g
       id="line2d_1">
      <path
         d="M 79.700645,277.49112 V 41.424024"
         style="fill:none;stroke:#777777;stroke-width:0.9;stroke-linecap:square"
         id="path3" />
    </g>
    <g
       id="line2d_2">
      <path
         d="M 101.16129,277.49112 V 41.424024"
         style="fill:none;stroke:#777777;stroke-width:0.9;stroke-linecap:square"
         id="path4" />
    </g>
    <g
       id="line2d_3">
      <path
         d="M 122.62193,277.49112 V 41.424024"
         style="fill:none;stroke:#777777;stroke-width:0.9;stroke-linecap:square"
         id="path5" />
    </g>
    <g
       id="line2d_4">
      <path
         d="M 144.08258,277.49112 V 41.424024"
         style="fill:none;stroke:#777777;stroke-width:0.9;stroke-linecap:square"
         id="path6" />
    </g>
    <g
       id="line2d_5">
      <path
         d="M 165.54323,277.49112 V 41.424024"
         style="fill:none;stroke:#777777;stroke-width:0.9;stroke-linecap:square"
         id="path7" />
    </g>
    <g
       id="line2d_6">
      <path
         d="M 187.00387,277.49112 V 41.424024"
         style="fill:none;stroke:#777777;stroke-width:0.9;stroke-linecap:square"
         id="path8" />
    </g>
    <g
       id="line2d_7">
      <path
         d="M 208.46452,277.49112 V 41.424024"
         style="fill:none;stroke:#777777;stroke-width:0.9;stroke-linecap:square"
         id="path9" />
    </g>
    <g
       id="line2d_8">
      <path
         d="M 229.92516,277.49112 V 41.424024"
         style="fill:none;stroke:#777777;stroke-width:0.9;stroke-linecap:square"
         id="path10" />
    </g>
    <g
       id="line2d_9">
      <path
         d="M 251.38581,277.49112 V 41.424024"
         style="fill:none;stroke:#777777;stroke-width:0.9;stroke-linecap:square"
         id="path11" />
    </g>
    <g
       id="line2d_10">
      <path
         d="M 272.84645,277.49112 V 41.424024"
         style="fill:none;stroke:#777777;stroke-width:0.9;stroke-linecap:square"
         id="path12" />
    </g>
    <g
       id="line2d_11">
      <path
         d="M 58.24,277.49112 H 272.84645"
         style="fill:none;stroke:#777777;stroke-width:0.9;stroke-linecap:square"
         id="path13" />
    </g>
    <g
       id="line2d_12">
      <path
         d="M 58.24,256.03048 H 272.84645"
         style="fill:none;stroke:#777777;stroke-width:0.9;stroke-linecap:square"
         id="path14" />
    </g>
    <g
       id="line2d_13">
      <path
         d="M 58.24,234.56983 H 272.84645"
         style="fill:none;stroke:#777777;stroke-width:0.9;stroke-linecap:square"
         id="path15" />
    </g>
    <g
       id="line2d_14">
      <path
         d="M 58.24,213.10918 H 272.84645"
         style="fill:none;stroke:#777777;stroke-width:0.9;stroke-linecap:square"
         id="path16" />
    </g>
    <g
       id="line2d_15">
      <path
         d="M 58.24,170.18789 H 272.84645"
         style="fill:none;stroke:#777777;stroke-width:0.9;stroke-linecap:square"
         id="path17" />
    </g>
    <g
       id="line2d_16">
      <path
         d="M 58.24,148.72725 H 272.84645"
         style="fill:none;stroke:#777777;stroke-width:0.9;stroke-linecap:square"
         id="path18" />
    </g>
    <g
       id="line2d_17">
      <path
         d="M 58.24,127.26661 H 272.84645"
         style="fill:none;stroke:#777777;stroke-width:0.9;stroke-linecap:square"
         id="path19" />
    </g>
    <g
       id="line2d_18">
      <path
         d="M 58.24,105.80596 H 272.84645"
         style="fill:none;stroke:#777777;stroke-width:0.9;stroke-linecap:square"
         id="path20" />
    </g>
    <g
       id="line2d_19">
      <path
         d="M 58.24,84.345315 H 272.84645"
         style="fill:none;stroke:#777777;stroke-width:0.9;stroke-linecap:square"
         id="path21" />
    </g>
    <g
       id="line2d_20">
      <path
         d="M 58.24,62.884669 H 272.84645"
         style="fill:none;stroke:#777777;stroke-width:0.9;stroke-linecap:square"
         id="path22" />
    </g>
    <g
       id="line2d_21">
      <path
         d="M 58.24,41.424024 H 272.84645"
         style="fill:none;stroke:#777777;stroke-width:0.9;stroke-linecap:square"
         id="path23" />
    </g>
    <g
       id="line2d_22">
      <path
         d="m 58.24,165.89577 1.734194,2.52047 1.734193,2.45135 1.734194,2.38221 1.734193,2.31307 1.734194,2.24394 1.734193,2.17481 1.734194,2.10567 1.734193,2.03654 1.734194,1.96741 1.734193,1.89827 1.734194,1.82913 1.734194,1.76001 1.734193,1.69086 1.734194,1.62174 1.734193,1.5526 1.734194,1.48346 1.734193,1.41433 1.734194,1.3452 1.734193,1.27606 1.734194,1.20693 1.734194,1.1378 1.734193,1.06866 1.734194,0.99952 1.734193,0.9304 1.734195,0.86125 1.73419,0.79213 1.7342,0.72299 1.73419,0.65385 1.73419,0.58472 1.7342,0.51559 1.73419,0.44645 1.73419,0.37732 1.7342,0.30818 1.73419,0.23905 1.73419,0.16992 1.7342,0.10078 1.73419,0.0317 1.73419,-0.0375 1.7342,-0.10662 1.73419,-0.17575 1.73419,-0.24489 1.7342,-0.31402 1.73419,-0.38316 1.7342,-0.45229 1.73419,-0.52143 1.73419,-0.59056 1.7342,-0.65969 1.73419,-0.72883 1.73419,-0.79797 1.7342,-0.86709 1.73419,-0.93623 1.7342,-1.00537 1.73419,-1.0745 1.73419,-1.14363 1.73419,-1.21277 1.7342,-1.2819 1.73419,-1.35104 1.7342,-1.42017 1.73419,-1.4893 1.73419,-1.55844 1.7342,-1.62757 1.73419,-1.69671 1.73419,-1.76584 1.7342,-1.83498 1.73419,-1.90411 1.73419,-1.97324 1.7342,-2.04238 1.73419,-2.11151 1.7342,-2.18064 1.73419,-2.24979 1.73419,-2.31891 1.73419,-2.38805 1.7342,-2.45718 1.73419,-2.52632 1.7342,-2.59545 1.73419,-2.66459 1.73419,-2.73372 1.7342,-2.80285 1.73419,-2.87199 1.73419,-2.94112 1.7342,-3.01026 1.73419,-3.07939 1.73419,-3.14852 1.7342,-3.21766 1.73419,-3.28679 1.73419,-3.35593 1.7342,-3.42506 1.73419,-3.4942 1.7342,-3.56333 1.73419,-3.63246 1.73419,-3.7016 1.7342,-3.77073 1.73419,-3.83987 1.73419,-3.909 1.7342,-3.978133 1.73419,-4.047269 1.73419,-4.116403 1.7342,-4.185538 1.73419,-4.254672"
         clip-path="url(#p4fbaec35c1)"
         style="fill:none;stroke:#000000;stroke-width:2.5;stroke-linecap:square"
         id="path24" />
    </g>
    <g
       id="matplotlib.axis_1">
      <g
         id="xtick_1">
        <g
           id="line2d_23" />
        <g
           id="text_1">
          <!-- $t,$с -->
          <g
             transform="matrix(0.24,0,0,-0.24,286.82529,218.59104)"
             id="g26">
            <defs
               id="defs24">
              <path
                 id="STIXTwoText-Italic-74"
                 d="m 736,-58 q -198,0 -294,96 -96,96 -96,244 0,83 19,201 19,119 25,163 L 826,2739 H 461 l 25,135 q 205,108 342,210 138,103 263,269 125,167 285,442 h 192 L 960,832 q 0,0 -23,-119 -22,-118 -22,-201 0,-51 22,-93 23,-41 87,-41 141,0 259,83 119,83 285,301 l 128,-96 Q 1606,544 1478,371 1350,198 1171,70 992,-58 736,-58 Z m 1248,2797 h -710 l 51,250 h 710 z"
                 transform="scale(0.015625)" />
              <path
                 id="STIXTwoText-2c"
                 d="m 448,-845 -77,160 q 122,51 243,131 122,80 205,234 83,154 83,410 Q 800,51 704,51 518,51 435,153 q -83,103 -83,244 0,153 102,265 103,112 295,112 160,0 268,-67 109,-67 167,-192 58,-125 58,-304 0,-269 -87,-454 Q 1069,-429 941,-544 813,-659 678,-729 544,-800 448,-845 Z"
                 transform="scale(0.015625)" />
              <path
                 id="STIXTwoText-441"
                 d="m 2611,947 122,-89 Q 2611,602 2454,390 2298,179 2067,57 1837,-64 1491,-64 1094,-64 806,128 518,320 364,662 q -153,343 -153,784 0,506 169,877 170,371 493,576 324,205 785,205 454,0 713,-199 259,-198 259,-479 0,-141 -67,-215 -67,-73 -201,-73 -141,0 -215,73 -73,74 -118,182 -45,109 -93,218 -48,109 -135,182 -86,74 -252,74 -391,0 -612,-285 -220,-284 -220,-835 0,-582 240,-957 240,-374 733,-374 313,0 508,128 196,128 413,403 z"
                 transform="scale(0.015625)" />
            </defs>
            <use
               xlink:href="#STIXTwoText-Italic-74"
               transform="translate(0,0.703125)"
               id="use24" />
            <use
               xlink:href="#STIXTwoText-2c"
               transform="translate(29.799988,0.703125)"
               id="use25" />
            <use
               xlink:href="#STIXTwoText-441"
               transform="translate(70.799969,0.703125)"
               id="use26" />
          </g>
        </g>
      </g>
    </g>
    <g
       id="matplotlib.axis_2">
      <g
         id="ytick_1">
        <g
           id="line2d_24">
          <defs
             id="defs26">
            <path
               id="m7e79e7fbd1"
               d="M 0,0 H -6.5"
               style="stroke:#000000;stroke-width:1.5" />
          </defs>
          <g
             id="g27">
            <use
               xlink:href="#m7e79e7fbd1"
               x="58.240002"
               y="277.49112"
               style="stroke:#000000;stroke-width:1.5"
               id="use27" />
          </g>
        </g>
        <g
           id="text_2">
          <!-- −20 -->
          <g
             transform="matrix(0.24,0,0,-0.24,7.2,285.96237)"
             id="g30">
            <defs
               id="defs27">
              <path
                 id="STIXTwoText-2212"
                 d="M 4211,1434 H 397 v 435 h 3814 z"
                 transform="scale(0.015625)" />
              <path
                 id="STIXTwoText-32"
                 d="M 2765,0 H 243 v 218 l 973,972 q 320,327 531,592 211,266 317,535 106,269 106,601 0,359 -215,573 -214,215 -585,215 -314,0 -535,-135 -221,-134 -400,-493 l -153,64 q 147,468 467,724 320,256 787,256 365,0 640,-138 275,-138 432,-384 157,-246 157,-586 0,-281 -119,-541 -118,-259 -352,-534 -233,-275 -572,-621 L 877,518 v -32 l 448,20 h 889 q 256,0 358,115 103,115 212,403 h 186 z"
                 transform="scale(0.015625)" />
              <path
                 id="STIXTwoText-30"
                 d="M 1581,-70 Q 1197,-70 928,99 659,269 492,563 326,858 249,1242 q -76,384 -76,806 0,608 163,1072 163,464 480,726 317,263 778,263 416,0 729,-247 314,-246 493,-710 179,-464 179,-1123 0,-410 -80,-788 Q 2835,864 2665,569 2496,275 2227,102 1958,-70 1581,-70 Z m 0,230 q 377,0 585,454 208,455 208,1376 0,973 -202,1437 -201,464 -598,464 -377,0 -582,-461 Q 787,2970 787,2016 787,1088 992,624 1197,160 1581,160 Z"
                 transform="scale(0.015625)" />
            </defs>
            <use
               xlink:href="#STIXTwoText-2212"
               id="use28" />
            <use
               xlink:href="#STIXTwoText-32"
               x="71.999985"
               id="use29" />
            <use
               xlink:href="#STIXTwoText-30"
               x="121.49997"
               id="use30" />
          </g>
        </g>
      </g>
      <g
         id="ytick_2">
        <g
           id="line2d_25">
          <g
             id="g31">
            <use
               xlink:href="#m7e79e7fbd1"
               x="58.240002"
               y="234.56982"
               style="stroke:#000000;stroke-width:1.5"
               id="use31" />
          </g>
        </g>
        <g
           id="text_3">
          <!-- −10 -->
          <g
             transform="matrix(0.24,0,0,-0.24,7.2,243.04108)"
             id="g34">
            <defs
               id="defs31">
              <path
                 id="STIXTwoText-31"
                 d="M 2726,0 H 512 v 179 q 454,0 640,96 186,96 186,333 v 2707 q 0,167 -45,240 -45,74 -167,74 -64,0 -179,-13 -115,-13 -243,-36 -128,-22 -230,-54 v 212 l 1241,352 h 186 V 608 q 0,-237 192,-333 192,-96 633,-96 z"
                 transform="scale(0.015625)" />
            </defs>
            <use
               xlink:href="#STIXTwoText-2212"
               id="use32" />
            <use
               xlink:href="#STIXTwoText-31"
               x="71.999985"
               id="use33" />
            <use
               xlink:href="#STIXTwoText-30"
               x="121.49997"
               id="use34" />
          </g>
        </g>
      </g>
      <g
         id="ytick_3">
        <g
           id="line2d_26">
          <g
             id="g35">
            <use
               xlink:href="#m7e79e7fbd1"
               x="58.240002"
               y="191.64854"
               style="stroke:#000000;stroke-width:1.5"
               id="use35" />
          </g>
        </g>
        <g
           id="text_4">
          <!-- 0 -->
          <g
             transform="matrix(0.24,0,0,-0.24,36.36,200.11979)"
             id="g36">
            <use
               xlink:href="#STIXTwoText-30"
               id="use36" />
          </g>
        </g>
      </g>
      <g
         id="ytick_4">
        <g
           id="line2d_27">
          <g
             id="g37">
            <use
               xlink:href="#m7e79e7fbd1"
               x="58.240002"
               y="148.72725"
               style="stroke:#000000;stroke-width:1.5"
               id="use37" />
          </g>
        </g>
        <g
           id="text_5">
          <!-- 10 -->
          <g
             transform="matrix(0.24,0,0,-0.24,24.48,157.1985)"
             id="g39">
            <use
               xlink:href="#STIXTwoText-31"
               id="use38" />
            <use
               xlink:href="#STIXTwoText-30"
               x="49.499985"
               id="use39" />
          </g>
        </g>
      </g>
      <g
         id="ytick_5">
        <g
           id="line2d_28">
          <g
             id="g40">
            <use
               xlink:href="#m7e79e7fbd1"
               x="58.240002"
               y="105.80596"
               style="stroke:#000000;stroke-width:1.5"
               id="use40" />
          </g>
        </g>
        <g
           id="text_6">
          <!-- 20 -->
          <g
             transform="matrix(0.24,0,0,-0.24,24.48,114.27721)"
             id="g42">
            <use
               xlink:href="#STIXTwoText-32"
               id="use41" />
            <use
               xlink:href="#STIXTwoText-30"
               x="49.499985"
               id="use42" />
          </g>
        </g>
      </g>
      <g
         id="ytick_6">
        <g
           id="line2d_29">
          <g
             id="g43">
            <use
               xlink:href="#m7e79e7fbd1"
               x="58.240002"
               y="62.88467"
               style="stroke:#000000;stroke-width:1.5"
               id="use43" />
          </g>
        </g>
        <g
           id="text_7">
          <!-- 30 -->
          <g
             transform="matrix(0.24,0,0,-0.24,24.48,71.355919)"
             id="g45">
            <defs
               id="defs43">
              <path
                 id="STIXTwoText-33"
                 d="m 1094,-83 q -288,0 -442,55 -153,54 -214,134 -60,80 -60,163 0,102 64,191 64,90 185,90 96,0 201,-48 106,-48 221,-109 116,-60 234,-108 119,-48 240,-48 205,0 384,73 179,74 294,250 116,176 116,490 0,288 -160,499 -160,211 -426,329 -265,119 -573,119 h -128 v 243 h 122 q 218,0 422,109 205,109 336,307 132,198 132,454 0,282 -176,439 -176,157 -477,157 -288,0 -480,-132 -192,-131 -359,-387 l -147,83 q 179,416 473,634 295,218 686,218 492,0 761,-247 269,-246 269,-611 0,-333 -195,-538 -195,-204 -496,-396 v -20 q 256,-76 470,-220 215,-144 343,-352 128,-208 128,-496 0,-436 -244,-734 Q 2355,211 1958,64 1562,-83 1094,-83 Z"
                 transform="scale(0.015625)" />
            </defs>
            <use
               xlink:href="#STIXTwoText-33"
               id="use44" />
            <use
               xlink:href="#STIXTwoText-30"
               x="49.499985"
               id="use45" />
          </g>
        </g>
      </g>
      <g
         id="ytick_7">
        <g
           id="line2d_30" />
        <g
           id="text_8">
          <!-- $x,$м -->
          <g
             transform="matrix(0.24,0,0,-0.24,10.8,24.1425)"
             id="g48">
            <defs
               id="defs45">
              <path
                 id="STIXTwoText-Italic-78"
                 d="m 2067,-64 q -237,0 -349,173 -112,173 -188,486 l -173,711 -71,108 -198,647 q -83,269 -163,422 -80,154 -199,218 -118,64 -310,64 -51,0 -99,-4 -48,-3 -112,-15 v 192 l 870,102 h 96 q 115,-134 208,-339 93,-205 157,-467 l 90,-391 64,-121 153,-500 q 135,-428 243,-627 109,-198 269,-198 128,0 233,102 106,103 222,256 L 2944,653 Q 2880,550 2790,425 2701,301 2592,189 2483,77 2352,6 2221,-64 2067,-64 Z m -1933,6 q -204,0 -287,99 -84,100 -84,209 0,108 68,191 67,84 188,84 96,0 208,-42 112,-41 189,-41 13,0 57,16 45,16 128,92 84,77 205,256 l 500,724 128,-288 h -90 L 934,576 Q 781,326 601,134 422,-58 134,-58 Z m 1965,2336 -429,-678 -121,307 h 83 l 314,538 q 83,147 195,288 112,141 265,237 154,96 352,96 167,0 240,-74 74,-74 74,-202 0,-160 -90,-234 -89,-73 -198,-73 -90,0 -176,32 -86,32 -170,32 -102,0 -179,-67 -77,-67 -160,-202 z"
                 transform="scale(0.015625)" />
              <path
                 id="STIXTwoText-43c"
                 d="M 1331,0 H 115 v 179 q 205,0 307,32 103,32 135,141 32,109 32,339 v 1741 q 0,179 -32,265 -32,87 -132,116 -99,29 -297,29 v 185 H 1235 L 2214,832 h 20 l 972,2195 h 1056 v -185 q -268,0 -361,-74 -93,-74 -93,-342 V 576 q 0,-237 80,-317 80,-80 374,-80 V 0 H 2848 v 179 q 205,0 291,32 87,32 109,118 22,87 22,247 v 1914 h -19 L 2157,0 H 2029 L 902,2445 H 877 V 691 q 0,-230 35,-339 35,-109 134,-141 100,-32 285,-32 z"
                 transform="scale(0.015625)" />
            </defs>
            <use
               xlink:href="#STIXTwoText-Italic-78"
               transform="translate(0,0.09375)"
               id="use46" />
            <use
               xlink:href="#STIXTwoText-2c"
               transform="translate(45.299988,0.09375)"
               id="use47" />
            <use
               xlink:href="#STIXTwoText-43c"
               transform="translate(86.299969,0.09375)"
               id="use48" />
          </g>
        </g>
      </g>
    </g>
    <g
       id="line2d_31">
      <path
         d="M 58.24,234.56983 208.46452,84.345315"
         clip-path="url(#p4fbaec35c1)"
         style="fill:none;stroke:#000000;stroke-width:2.5;stroke-linecap:square"
         id="path48" />
    </g>
    <g
       id="line2d_32">
      <path
         d="m 101.16129,191.64854 v 5.06471"
         style="fill:none;stroke:#000000;stroke-width:1.6;stroke-linecap:square"
         id="path49" />
    </g>
    <g
       id="line2d_33">
      <path
         d="m 144.08258,191.64854 v 5.06471"
         style="fill:none;stroke:#000000;stroke-width:1.6;stroke-linecap:square"
         id="path50" />
    </g>
    <g
       id="line2d_34">
      <path
         d="m 187.00387,191.64854 v 5.06471"
         style="fill:none;stroke:#000000;stroke-width:1.6;stroke-linecap:square"
         id="path51" />
    </g>
    <g
       id="line2d_35">
      <path
         d="m 229.92516,191.64854 v 5.06471"
         style="fill:none;stroke:#000000;stroke-width:1.6;stroke-linecap:square"
         id="path52" />
    </g>
    <g
       id="text_9">
      <g
         id="patch_3">
        <path
           d="m 95.22129,224.6521 h 11.88 q 2.4,0 2.4,-2.4 v -22.2225 q 0,-2.4 -2.4,-2.4 h -11.88 q -2.4,0 -2.4,2.4 v 22.2225 q 0,2.4 2.4,2.4 z"
           style="fill:#ffffff"
           id="path53" />
      </g>
      <!-- 2 -->
      <g
         transform="matrix(0.24,0,0,-0.24,95.22129,216.9721)"
         id="g53">
        <use
           xlink:href="#STIXTwoText-32"
           id="use53" />
      </g>
    </g>
    <g
       id="text_10">
      <g
         id="patch_4">
        <path
           d="m 138.14258,224.6521 h 11.88 q 2.4,0 2.4,-2.4 v -22.2225 q 0,-2.4 -2.4,-2.4 h -11.88 q -2.4,0 -2.4,2.4 v 22.2225 q 0,2.4 2.4,2.4 z"
           style="fill:#ffffff"
           id="path54" />
      </g>
      <!-- 4 -->
      <g
         transform="matrix(0.24,0,0,-0.24,138.14258,216.9721)"
         id="g54">
        <defs
           id="defs54">
          <path
             id="STIXTwoText-34"
             d="M 2426,0 H 1856 V 1011 H 83 v 403 l 1952,2714 h 391 V 1453 h 652 V 1011 H 2426 Z M 435,1478 v -25 h 1421 v 1977 h -26 z"
             transform="scale(0.015625)" />
        </defs>
        <use
           xlink:href="#STIXTwoText-34"
           id="use54" />
      </g>
    </g>
    <g
       id="text_11">
      <g
         id="patch_5">
        <path
           d="m 181.06387,224.6521 h 11.88 q 2.4,0 2.4,-2.4 v -22.2225 q 0,-2.4 -2.4,-2.4 h -11.88 q -2.4,0 -2.4,2.4 v 22.2225 q 0,2.4 2.4,2.4 z"
           style="fill:#ffffff"
           id="path55" />
      </g>
      <!-- 6 -->
      <g
         transform="matrix(0.24,0,0,-0.24,181.06387,216.9721)"
         id="g55">
        <defs
           id="defs55">
          <path
             id="STIXTwoText-36"
             d="m 1658,-77 q -474,0 -778,233 -304,234 -448,628 -144,394 -144,861 0,576 176,1030 176,455 493,771 317,317 749,493 432,176 950,195 l 13,-185 Q 2221,3885 1849,3661 1478,3437 1228,3078 979,2720 896,2253 l 45,-7 q 198,192 390,294 192,103 442,103 525,0 838,-359 314,-358 314,-985 0,-653 -330,-1015 -329,-361 -937,-361 z m 25,224 q 320,0 502,246 183,247 183,855 0,435 -195,729 -195,295 -592,295 -186,0 -349,-74 -163,-73 -266,-240 -102,-166 -102,-448 0,-396 89,-704 90,-307 272,-483 183,-176 458,-176 z"
             transform="scale(0.015625)" />
        </defs>
        <use
           xlink:href="#STIXTwoText-36"
           id="use55" />
      </g>
    </g>
    <g
       id="text_12">
      <g
         id="patch_6">
        <path
           d="m 223.98516,224.6521 h 11.88 q 2.4,0 2.4,-2.4 v -22.2225 q 0,-2.4 -2.4,-2.4 h -11.88 q -2.4,0 -2.4,2.4 v 22.2225 q 0,2.4 2.4,2.4 z"
           style="fill:#ffffff"
           id="path56" />
      </g>
      <!-- 8 -->
      <g
         transform="matrix(0.24,0,0,-0.24,223.98516,216.9721)"
         id="g56">
        <defs
           id="defs56">
          <path
             id="STIXTwoText-38"
             d="M 1574,-77 Q 1203,-77 915,32 627,141 460,361 294,582 294,909 q 0,256 96,432 96,176 291,329 196,154 490,352 v 77 l 250,-134 Q 1222,1805 1081,1664 941,1523 867,1356 794,1190 794,960 q 0,-429 220,-634 221,-204 586,-204 198,0 364,73 167,74 266,218 100,144 100,361 0,212 -87,384 -86,173 -314,362 -227,189 -649,458 l -32,12 q -358,244 -547,429 -189,186 -256,368 -67,183 -67,407 0,294 156,505 157,211 432,326 276,116 628,116 320,0 572,-116 253,-115 400,-313 148,-198 148,-454 0,-231 -84,-398 -83,-166 -262,-304 -179,-137 -480,-303 v -77 l -269,141 q 359,205 490,419 131,214 131,534 0,320 -176,490 -176,170 -483,170 -327,0 -516,-164 -188,-163 -188,-457 0,-295 211,-506 211,-211 678,-493 l 45,-32 q 403,-236 633,-438 231,-202 327,-407 96,-204 96,-473 0,-333 -163,-567 Q 2541,160 2249,41 1958,-77 1574,-77 Z"
             transform="scale(0.015625)" />
        </defs>
        <use
           xlink:href="#STIXTwoText-38"
           id="use56" />
      </g>
    </g>
    <g
       id="text_13">
      <!-- $A$ -->
      <g
         transform="matrix(0.24,0,0,-0.24,165.54323,101.94304)"
         id="g57">
        <defs
           id="defs57">
          <path
             id="STIXTwoText-Italic-41"
             d="M 941,0 H -397 l 45,192 q 179,0 301,57 121,58 268,234 148,176 385,541 l 2214,3206 h 269 L 3590,762 q 64,-314 166,-442 103,-128 391,-128 L 4109,0 H 2400 l 38,192 q 160,0 272,25 112,26 176,103 64,77 64,237 0,77 -3,144 -3,67 -9,125 l -71,640 -13,128 -217,1913 h -19 L 1338,1594 1261,1466 774,723 Q 710,634 662,544 614,454 614,365 614,262 694,227 774,192 986,192 Z M 2938,1402 H 1146 l 153,256 h 1613 z"
             transform="scale(0.015625)" />
        </defs>
        <use
           xlink:href="#STIXTwoText-Italic-41"
           transform="translate(0,0.90625)"
           id="use57" />
      </g>
    </g>
    <g
       id="text_14">
      <g
         id="patch_7">
        <path
           d="m 211.68361,156.40725 h 14.4 q 2.4,0 2.4,-2.4 v -22.2225 q 0,-2.4 -2.4,-2.4 h -14.4 q -2.4,0 -2.4,2.4 v 22.2225 q 0,2.4 2.4,2.4 z"
           style="fill:#ffffff"
           id="path57" />
      </g>
      <!-- $B$ -->
      <g
         transform="matrix(0.24,0,0,-0.24,211.68361,148.72725)"
         id="g58">
        <defs
           id="defs58">
          <path
             id="STIXTwoText-Italic-42"
             d="M 1760,0 H -83 l 38,192 q 243,0 377,41 135,42 205,173 71,132 122,394 l 544,2630 q 58,256 29,381 -29,125 -154,163 -124,39 -361,39 l 38,192 h 1619 q 544,0 845,-109 301,-109 422,-298 122,-188 122,-419 0,-345 -154,-573 -153,-227 -406,-365 -253,-137 -560,-207 v -32 q 250,-32 458,-138 208,-106 332,-288 125,-182 125,-451 0,-429 -240,-724 Q 3078,307 2672,153 2266,0 1760,0 Z m -243,230 q 217,0 457,35 240,36 451,148 212,112 343,326 131,215 131,567 0,294 -144,457 -144,163 -381,230 -236,68 -505,68 h -442 l 51,256 h 436 q 665,0 940,272 276,272 276,745 0,173 -84,317 -83,144 -288,227 -204,84 -563,84 -96,0 -157,-4 -60,-3 -163,-16 L 1126,250 q 109,-7 189,-14 80,-6 202,-6 z"
             transform="scale(0.015625)" />
        </defs>
        <use
           xlink:href="#STIXTwoText-Italic-42"
           transform="translate(0,0.296875)"
           id="use58" />
      </g>
    </g>
    <g
       id="patch_8">
      <path
         d="m 58.24,191.64854 q 121.25264,0 241.57234,0"
         style="fill:none;stroke:#000000;stroke-width:1.6;stroke-linecap:round"
         id="path58" />
      <path
         d="m 289.19287,188.10872 10.61947,3.53982 -10.61947,3.53982 z"
         style="stroke:#000000;stroke-width:1.6;stroke-linecap:round"
         id="path59" />
    </g>
    <g
       id="patch_9">
      <path
         d="m 58.24,281.78325 q 0,-133.056 0,-263.706673"
         style="fill:none;stroke:#000000;stroke-width:1.6;stroke-linecap:round"
         id="path60" />
      <path
         d="M 54.700177,28.696046 58.24,18.076577 61.779823,28.696046 Z"
         style="stroke:#000000;stroke-width:1.6;stroke-linecap:round"
         id="path61" />
    </g>
  </g>
  <defs
     id="defs61">
    <clipPath
       id="p4fbaec35c1">
      <rect
         x="58.240002"
         y="15.67125"
         width="242.50529"
         height="266.112"
         id="rect61" />
    </clipPath>
  </defs>
</svg>
