<?xml version="1.0" standalone="no"?>
<!DOCTYPE svg PUBLIC "-//W3C//DTD SVG 20010904//EN"
 "http://www.w3.org/TR/2001/REC-SVG-20010904/DTD/svg10.dtd">
<svg version="1.0" xmlns="http://www.w3.org/2000/svg"
 width="2008.987957pt" height="3102.673702pt" viewBox="0 0 2008.987957 3102.673702"
 preserveAspectRatio="xMidYMid meet">
<metadata>
Created by potrace 1.16, written by Peter Selinger 2001-2019
</metadata>
<g transform="translate(-24.012043,3138.670514) scale(0.100000,-0.100000)"
fill="#000000" stroke="none">
<path d="M2529 31381 c-70 -23 -142 -85 -159 -137 -15 -46 9 -97 57 -119 29
-14 57 -17 150 -13 62 2 113 3 113 1 0 -13 -51 -101 -67 -115 -33 -30 -102
-48 -184 -48 -66 0 -80 -3 -88 -18 -7 -14 -6 -25 5 -40 13 -19 25 -22 90 -22
85 0 163 23 217 64 45 34 90 123 111 215 28 130 17 194 -41 220 -34 16 -168
24 -204 12z m169 -87 c25 -17 27 -32 12 -86 -10 -35 -12 -36 -43 -27 -17 5
-54 9 -82 10 -71 0 -128 12 -133 27 -5 17 61 79 90 85 56 11 134 6 156 -9z"/>
<path d="M2973 31337 c-52 -27 -108 -79 -129 -119 -22 -43 -15 -97 17 -121 34
-25 185 -36 255 -18 25 7 49 10 52 7 8 -9 -49 -88 -92 -129 -63 -57 -134 -84
-151 -57 -9 15 -51 12 -65 -4 -18 -22 -8 -59 20 -73 101 -51 267 52 343 215
93 198 40 322 -138 321 -52 0 -81 -5 -112 -22z m206 -71 c16 -14 21 -31 21
-68 l0 -48 -127 1 c-71 1 -138 4 -151 8 l-23 6 23 35 c13 19 41 47 63 62 36
26 47 28 107 25 48 -2 72 -8 87 -21z"/>
<path d="M2021 31294 c-66 -72 -117 -179 -132 -275 -11 -69 -10 -77 10 -117
43 -84 173 -117 269 -68 58 30 92 66 126 134 30 59 28 88 -11 139 -24 33 -72
53 -128 53 -44 0 -128 -43 -159 -81 -25 -31 -27 -32 -21 -9 15 52 62 126 113
177 53 54 61 70 40 91 -25 25 -56 12 -107 -44z m205 -240 c28 -41 -49 -142
-123 -160 -37 -10 -93 5 -119 31 -27 27 -34 56 -9 35 20 -16 45 -6 45 20 0 11
12 33 28 50 51 57 148 70 178 24z"/>
<path d="M1770 31299 c-28 -39 -178 -170 -252 -221 -59 -40 -73 -69 -46 -96
21 -21 35 -13 114 63 43 41 79 73 82 71 2 -3 -12 -49 -32 -103 -20 -54 -37
-116 -39 -138 -2 -37 0 -40 25 -43 23 -3 28 1 33 25 26 117 132 364 184 427
16 20 3 46 -24 46 -15 0 -32 -11 -45 -31z"/>
<path d="M1178 31286 c-15 -8 -58 -46 -95 -85 -52 -54 -75 -71 -96 -71 -36 0
-34 9 8 50 50 49 43 90 -16 90 -22 0 -34 -10 -59 -47 -18 -26 -36 -57 -41 -70
-8 -21 -15 -23 -78 -23 -60 0 -72 -3 -81 -20 -8 -14 -8 -26 0 -40 12 -22 18
-24 73 -21 20 2 37 0 37 -4 0 -21 -24 -45 -44 -45 -13 0 -34 -8 -46 -18 -19
-16 -21 -22 -11 -40 6 -12 21 -22 31 -22 16 0 20 -7 20 -35 0 -29 5 -38 26
-47 26 -12 30 -10 78 44 50 56 93 77 159 78 18 0 17 -2 -2 -34 -28 -45 -27
-58 6 -54 25 3 50 29 82 87 5 9 38 16 94 21 102 10 147 19 147 30 0 12 -54 20
-131 20 -70 0 -78 4 -56 32 12 15 130 40 193 40 19 0 36 4 39 8 11 18 -36 30
-114 30 -45 0 -81 4 -81 9 0 5 7 25 15 44 21 50 19 84 -4 97 -24 12 -21 13
-53 -4z m-22 -110 c-13 -31 -20 -36 -48 -36 l-33 0 45 39 c25 21 46 38 48 36
2 -2 -4 -19 -12 -39z m-52 -118 c-3 -13 -8 -25 -10 -27 -7 -7 -104 -18 -104
-12 1 17 38 50 60 54 56 10 62 8 54 -15z m-156 -20 c-14 -18 -33 -34 -41 -36
-13 -3 -14 1 -4 27 10 26 20 33 61 40 5 0 -3 -14 -16 -31z"/>
<path d="M8348 31073 c-12 -14 -17 -56 -21 -180 -4 -89 -12 -203 -18 -253
l-12 -90 -40 36 c-47 43 -104 69 -170 79 -41 5 -57 2 -101 -19 -63 -31 -131
-88 -151 -127 -24 -45 -19 -104 10 -127 54 -43 234 -31 351 22 39 18 61 23 68
16 16 -16 71 -12 88 8 23 26 29 50 39 147 5 50 13 131 19 180 6 50 13 133 17
186 5 89 4 98 -16 118 -26 26 -43 27 -63 4z m-215 -507 c42 -18 86 -64 66 -69
-72 -21 -250 -42 -274 -33 -25 9 -3 40 58 81 57 38 97 44 150 21z"/>
<path d="M12822 31018 c-27 -30 -46 -109 -72 -298 -12 -85 -23 -157 -25 -161
-3 -3 -30 -9 -61 -12 -87 -9 -123 -57 -69 -93 18 -11 35 -14 65 -9 28 5 40 3
40 -5 0 -34 -36 -157 -49 -166 -13 -10 -13 -15 2 -38 18 -26 41 -33 65 -17 13
7 39 102 56 203 7 41 4 39 136 68 60 14 110 36 110 49 0 11 -76 21 -155 21
l-63 0 13 68 c7 37 18 110 25 162 12 101 26 159 42 175 7 7 8 -17 4 -72 -7
-74 -5 -83 12 -92 14 -7 25 -6 40 5 19 13 21 21 16 102 -5 76 -9 90 -31 110
-13 12 -37 22 -52 22 -16 0 -37 -10 -49 -22z"/>
<path d="M9767 30783 c-106 -163 -127 -222 -87 -243 34 -18 58 -2 95 63 l35
62 0 -591 0 -591 -390 -5 -389 -6 -34 32 c-18 17 -71 51 -116 74 -46 24 -98
53 -115 63 -38 23 -62 24 -70 3 -7 -17 9 -44 26 -44 18 0 215 -99 228 -115 11
-13 -27 -15 -362 -15 -681 0 -1278 12 -1278 25 0 7 -6 18 -14 24 -21 18 -74
-13 -91 -52 -8 -18 -34 -59 -59 -92 -51 -66 -53 -76 -30 -100 20 -20 43 -16
58 10 6 11 21 35 33 53 l21 34 6 -168 c3 -93 8 -355 12 -582 l6 -413 -623 1
c-624 2 -624 2 -624 -19 0 -22 0 -22 1894 -21 1401 0 1897 -3 1907 -11 17 -14
18 -243 7 -1495 l-6 -810 -40 43 c-43 46 -60 52 -95 27 -29 -20 -28 -45 4 -75
14 -13 41 -46 59 -74 18 -27 49 -66 69 -85 l37 -35 31 38 c44 54 158 248 158
268 0 9 7 22 15 29 17 14 20 40 5 40 -37 0 -121 -66 -162 -127 -13 -20 -15 63
-21 765 -9 1000 -9 1462 0 1462 6 0 3149 -1575 6133 -3073 800 -402 1469 -742
1487 -756 26 -20 31 -30 26 -53 -3 -16 0 -35 7 -44 12 -13 15 -9 28 28 7 24
19 48 25 53 54 48 68 75 97 190 17 66 40 133 52 149 36 50 5 97 -55 82 -23 -5
-53 -48 -67 -94 -5 -16 -9 65 -9 193 -1 121 -6 263 -12 315 -6 52 -15 165 -20
250 -9 139 -26 1478 -32 2432 l-2 368 1403 0 c1395 0 1402 0 1402 20 0 20 -7
20 -1415 20 l-1415 0 0 25 c0 18 -5 25 -20 25 -15 0 -20 -7 -20 -25 l0 -25
-2824 0 -2824 0 -4 76 c-4 83 -18 104 -68 104 -54 0 -69 -40 -44 -119 5 -17
-215 125 -881 570 -488 327 -900 603 -916 614 l-29 20 0 568 0 568 33 -17 c17
-9 40 -23 50 -32 12 -10 21 -12 27 -6 11 11 -26 106 -59 154 -10 14 -21 41
-25 60 -8 49 -32 80 -61 80 -18 0 -34 -16 -68 -67z m-783 -1366 c-3 -8 -45
-39 -93 -70 -86 -56 -123 -99 -106 -126 11 -19 35 -12 45 13 7 20 102 91 166
124 12 6 27 24 33 41 l13 29 381 -5 c210 -3 384 -8 387 -10 3 -3 6 -274 8
-604 3 -468 1 -599 -9 -599 -7 0 -245 118 -530 262 -422 214 -520 268 -535
292 -9 16 -38 52 -63 81 -25 28 -55 64 -67 80 -14 20 -25 27 -37 22 -30 -11
-18 -47 34 -103 29 -30 49 -54 45 -54 -3 0 -287 141 -631 313 l-625 312 257 5
c142 3 500 7 795 8 443 2 536 0 532 -11z m1800 -609 c479 -319 875 -584 880
-589 6 -5 -369 -9 -897 -9 l-907 0 0 523 c0 288 3 558 6 600 7 72 8 76 27 66
10 -6 411 -272 891 -591z m-2764 247 c355 -178 638 -325 630 -328 -8 -3 -31
-8 -51 -10 -44 -6 -169 -54 -188 -73 -12 -10 -12 -16 -2 -28 12 -14 18 -13 55
7 56 32 138 55 216 63 l65 6 480 -240 480 -241 -1197 0 -1198 -1 0 356 c0 195
-5 408 -11 472 -5 64 -9 160 -7 212 l3 95 23 -65 c25 -68 51 -100 83 -100 27
0 32 16 14 51 -9 17 -22 50 -30 73 -7 22 -16 49 -20 59 -4 9 -3 17 1 16 5 0
299 -146 654 -324z m3700 -914 c0 -35 31 -77 49 -67 7 5 17 19 22 33 6 18 13
22 22 16 6 -5 1239 -827 2740 -1828 1500 -1000 2726 -1820 2723 -1822 -3 -4
-4071 2029 -6456 3226 l-935 470 918 0 917 1 0 -29z m5711 -213 c0 -134 2
-286 5 -338 2 -52 8 -197 14 -323 5 -125 10 -557 11 -960 0 -402 5 -815 11
-917 5 -102 12 -327 14 -500 4 -315 4 -315 -15 -274 -19 42 -36 54 -76 54 -26
0 -45 -25 -45 -61 0 -12 16 -51 36 -86 19 -35 34 -68 32 -74 -3 -8 -5552 3681
-5582 3711 -7 7 946 10 2792 10 l2802 0 1 -242z"/>
<path d="M4014 30807 c-3 -8 -3 -72 1 -143 3 -71 8 -988 11 -2039 4 -1763 3
-1927 -13 -2125 -10 -118 -18 -296 -18 -395 l0 -180 25 0 c25 0 25 0 31 170 3
94 12 262 20 375 11 166 14 573 14 2115 -1 1097 -5 1978 -10 2070 -10 155 -11
160 -33 163 -12 2 -24 -3 -28 -11z"/>
<path d="M3350 30771 c-8 -5 -235 -12 -505 -16 -269 -3 -546 -11 -615 -17 -69
-5 -431 -12 -804 -14 -592 -3 -682 -6 -695 -19 -14 -13 -14 -17 2 -32 15 -16
57 -17 509 -15 271 2 522 5 558 7 214 17 570 28 1036 34 559 6 564 7 564 51 0
10 -7 21 -16 24 -19 7 -15 7 -34 -3z"/>
<path d="M1035 30319 c-238 -36 -282 -55 -303 -127 -7 -22 -19 -45 -27 -52 -8
-7 -15 -27 -15 -44 0 -34 -53 -197 -115 -355 -42 -109 -41 -141 4 -141 37 0
55 36 107 205 20 66 49 156 65 200 15 44 31 96 34 116 9 61 22 69 146 95 63
13 143 27 178 30 59 7 63 6 58 -12 -17 -61 -17 -81 1 -104 17 -21 21 -22 46
-9 18 9 33 28 42 54 20 58 17 90 -10 121 -20 24 -31 28 -87 30 -35 2 -91 -2
-124 -7z"/>
<path d="M17007 30302 c-26 -29 -20 -61 16 -96 l33 -31 -124 -2 c-69 -1 -161
-6 -206 -12 -53 -7 -484 -13 -1231 -17 -632 -3 -1276 -8 -1430 -13 -154 -4
-1094 -8 -2089 -8 -1641 -1 -1810 -3 -1824 -17 -15 -14 -15 -18 -1 -31 13 -13
253 -15 2059 -14 1907 1 4295 12 4738 22 105 3 192 2 192 -1 0 -2 -18 -24 -40
-48 -56 -61 -51 -104 12 -104 22 0 51 22 138 107 93 91 110 112 110 139 0 51
-41 75 -207 119 -111 30 -125 30 -146 7z"/>
<path d="M7325 30256 c-99 -66 -117 -86 -113 -123 2 -22 12 -33 49 -50 27 -13
67 -45 93 -77 48 -55 77 -69 129 -59 31 6 37 33 7 33 -20 0 -78 75 -67 86 12
13 546 17 730 6 106 -7 464 -14 797 -17 332 -3 606 -7 608 -9 2 -3 -4 -18 -12
-35 -22 -42 -20 -51 12 -51 20 0 48 20 110 80 67 64 82 85 82 109 0 50 -28 61
-157 61 -109 0 -113 -1 -129 -25 -9 -14 -14 -32 -10 -40 4 -12 -5 -15 -47 -15
-682 -7 -1081 -7 -1202 0 -123 6 -641 20 -787 20 -49 0 -48 13 1 44 22 14 42
35 46 46 8 26 -19 70 -43 70 -9 0 -53 -24 -97 -54z"/>
<path d="M10192 30271 c-62 -21 -139 -73 -205 -136 -48 -45 -56 -70 -36 -106
10 -20 87 -59 116 -59 9 0 50 -16 93 -35 66 -30 110 -37 110 -19 0 3 -18 30
-41 60 -37 50 -56 64 -122 87 -17 7 -17 8 0 31 10 14 57 43 104 65 98 45 114
67 74 107 -28 28 -26 28 -93 5z"/>
<path d="M17454 30235 c-10 -53 3 -105 26 -105 23 0 36 52 26 105 -5 25 -12
35 -26 35 -14 0 -21 -10 -26 -35z"/>
<path d="M2432 30157 c-6 -6 -29 -50 -51 -96 -22 -47 -50 -95 -62 -107 -24
-25 -21 -67 6 -77 8 -4 40 6 72 20 40 18 76 27 116 27 52 1 61 -2 83 -27 17
-20 24 -40 24 -71 0 -74 -65 -115 -182 -116 -57 0 -78 7 -71 26 7 19 -50 19
-67 -1 -10 -12 -8 -21 7 -47 26 -45 68 -57 169 -48 94 8 163 41 195 93 28 47
26 143 -3 187 -42 62 -71 75 -159 75 -43 0 -79 1 -79 3 0 2 12 23 26 48 l26
44 187 0 c175 0 189 1 206 20 17 19 17 21 0 40 -17 19 -31 20 -225 20 -154 0
-210 -3 -218 -13z"/>
<path d="M17461 30016 c-8 -9 -11 -45 -9 -98 3 -81 4 -83 28 -83 24 0 25 2 28
83 3 78 -6 112 -28 112 -4 0 -13 -6 -19 -14z"/>
<path d="M1497 29962 c-22 -24 -21 -45 1 -64 14 -13 39 -14 167 -7 83 4 173 8
201 8 28 1 59 7 70 16 18 14 18 16 1 29 -13 10 -64 16 -175 20 -86 4 -178 9
-203 11 -36 4 -49 1 -62 -13z"/>
<path d="M1565 29796 c-16 -12 -18 -18 -9 -33 10 -16 29 -18 160 -21 149 -2
233 10 241 35 4 11 -48 17 -262 29 -89 4 -114 3 -130 -10z"/>
<path d="M17456 29684 c-3 -9 -6 -37 -6 -64 0 -61 7 -80 30 -80 23 0 30 19 30
80 0 61 -7 80 -30 80 -10 0 -21 -7 -24 -16z"/>
<path d="M17457 29434 c-9 -9 -9 -156 -1 -178 9 -24 43 -20 49 7 3 12 5 56 3
97 -3 67 -5 75 -23 78 -12 2 -24 0 -28 -4z"/>
<path d="M633 29313 c-35 -7 -86 -75 -114 -150 -32 -85 -65 -192 -79 -258 -6
-27 -23 -87 -37 -132 -28 -90 -24 -113 22 -113 32 0 39 13 71 120 15 52 29 97
30 99 2 2 43 5 91 8 115 6 350 31 387 41 45 12 42 30 -5 42 -30 8 -106 10
-241 6 -109 -3 -198 -2 -198 2 0 5 7 32 16 61 8 29 13 60 10 68 -8 21 21 79
48 97 18 11 70 15 238 18 224 3 248 8 248 48 0 41 -23 45 -249 47 -119 0 -226
-1 -238 -4z"/>
<path d="M2335 29252 c-38 -24 -85 -109 -85 -155 0 -20 -9 -51 -19 -69 -11
-18 -31 -64 -45 -101 -42 -113 -37 -169 20 -193 78 -32 149 -7 241 85 70 71
101 129 113 209 12 87 3 139 -34 187 -41 54 -134 72 -191 37z m137 -71 c32
-29 33 -31 31 -105 -3 -109 -52 -190 -160 -262 -50 -33 -59 -36 -92 -28 -33 8
-36 12 -33 39 2 17 22 71 44 122 22 51 38 98 35 105 -7 19 29 107 54 134 32
34 80 32 121 -5z"/>
<path d="M1843 29193 c-31 -6 -46 -29 -39 -58 5 -20 13 -25 36 -25 16 0 32 5
35 10 10 16 65 12 71 -5 9 -22 -14 -44 -76 -74 -54 -26 -73 -52 -52 -73 5 -5
40 -13 77 -18 87 -11 119 -33 123 -86 2 -32 -2 -44 -23 -64 -23 -21 -38 -25
-106 -29 -91 -4 -111 -19 -68 -54 48 -39 206 -2 245 58 9 14 18 44 21 68 6 57
-20 104 -78 143 l-46 30 28 32 c16 18 29 43 29 56 0 22 -31 71 -55 88 -10 8
-84 8 -122 1z"/>
<path d="M12075 29159 c-125 -33 -192 -72 -225 -132 -20 -35 -21 -43 -10 -103
6 -36 17 -82 25 -102 9 -23 16 -90 18 -180 5 -153 11 -172 56 -172 45 0 51 15
51 137 0 94 2 113 15 113 9 0 32 11 53 23 20 13 58 32 84 41 63 24 91 51 78
75 -14 27 -68 33 -141 17 -137 -30 -126 -32 -140 28 -8 39 -9 58 0 73 15 28
79 58 201 93 102 29 150 52 150 70 0 6 -9 19 -20 30 -26 26 -60 24 -195 -11z"/>
<path d="M17457 29104 c-4 -4 -7 -35 -7 -69 0 -70 17 -98 45 -75 12 10 15 29
13 79 -3 58 -6 66 -23 69 -12 2 -24 0 -28 -4z"/>
<path d="M3540 29018 c-11 -18 -20 -38 -20 -44 0 -36 -170 -138 -192 -116 -8
8 -3 20 16 43 21 24 26 40 24 68 -3 32 -6 36 -32 36 -26 0 -34 -7 -61 -58 -32
-61 -76 -101 -157 -143 -62 -31 -80 -32 -69 -1 21 54 -37 77 -79 32 -42 -44
-114 -85 -152 -85 -19 0 -37 2 -40 5 -2 3 -1 30 3 61 5 40 16 67 37 93 26 32
34 36 78 36 43 0 49 3 52 22 2 16 -5 26 -27 37 -54 28 -87 21 -136 -29 -53
-55 -68 -98 -69 -190 l-1 -70 39 -19 c33 -16 45 -17 87 -8 27 7 67 24 89 38
l41 27 20 -21 c21 -23 29 -26 69 -22 33 3 74 24 137 71 60 45 60 45 85 22 30
-27 84 -18 154 26 l63 40 -1 -50 c0 -54 14 -79 44 -79 16 0 19 5 15 25 -5 31
13 122 39 194 14 39 16 56 8 69 -19 29 -42 25 -64 -10z"/>
<path d="M1228 28989 c-24 -13 -24 -65 0 -78 12 -6 77 -5 187 4 94 8 173 15
178 15 10 0 9 28 -2 35 -6 3 -61 10 -123 15 -62 5 -138 12 -168 14 -30 3 -63
0 -72 -5z"/>
<path d="M17462 28848 c-18 -18 -16 -172 3 -188 12 -10 18 -10 30 0 11 9 15
34 15 94 0 74 -9 106 -30 106 -3 0 -11 -5 -18 -12z"/>
<path d="M1206 28798 c-26 -14 -20 -47 12 -59 34 -13 189 -4 292 18 76 16 100
27 86 40 -11 11 -370 12 -390 1z"/>
<path d="M17462 28518 c-12 -12 -17 -104 -6 -132 3 -9 14 -16 24 -16 23 0 30
19 30 84 0 46 -12 76 -30 76 -3 0 -11 -5 -18 -12z"/>
<path d="M1500 28290 c-11 -7 -15 -32 -17 -100 -2 -102 -19 -255 -34 -313
l-10 -39 -37 53 c-48 69 -93 99 -147 99 -53 0 -85 -24 -115 -87 -27 -58 -53
-179 -45 -211 9 -37 50 -72 83 -72 40 0 163 38 185 58 10 9 37 16 65 16 46 1
47 2 59 41 27 94 73 402 73 496 0 60 -23 83 -60 59z m-172 -428 c25 -30 72
-116 72 -132 0 -6 -17 -3 -40 6 -39 16 -77 15 -146 -2 -21 -5 -21 -3 -14 38
10 51 27 97 42 116 16 19 58 6 86 -26z"/>
<path d="M2410 28220 c-11 -11 -20 -24 -20 -30 0 -14 38 -50 53 -50 6 0 21 7
31 15 11 8 35 15 53 15 29 0 33 -3 33 -26 0 -36 -58 -114 -85 -114 -27 0 -45
-18 -45 -46 0 -24 17 -34 61 -34 42 0 69 -32 69 -80 0 -49 -18 -60 -94 -60
-45 0 -54 3 -50 15 7 18 -8 19 -53 3 -40 -15 -54 -51 -29 -76 14 -14 35 -17
117 -15 118 3 150 16 172 70 22 55 7 137 -32 176 l-29 29 32 45 c25 37 31 54
30 95 -1 72 -23 88 -120 88 -61 0 -78 -4 -94 -20z"/>
<path d="M2931 28108 c-80 -78 -134 -228 -110 -307 16 -53 38 -72 94 -79 38
-4 53 0 93 25 44 27 50 28 80 16 47 -19 96 -3 193 63 l80 54 10 -29 c10 -27
44 -51 75 -51 25 0 77 30 118 69 l38 36 -7 -52 c-8 -61 5 -93 40 -93 25 0 40
26 29 53 -3 8 9 66 26 128 35 124 32 159 -14 159 -19 0 -29 -11 -50 -54 -42
-87 -131 -176 -176 -176 -14 0 -13 93 2 142 10 33 9 41 -5 55 -27 28 -62 4
-76 -52 -19 -75 -120 -158 -218 -180 -29 -6 -33 -4 -33 15 0 34 -19 60 -43 60
-27 0 -47 -17 -47 -41 0 -23 -66 -79 -93 -79 -52 1 -65 38 -40 120 17 60 75
149 102 158 10 3 12 -4 6 -36 -6 -35 -4 -41 15 -47 32 -10 50 12 50 60 0 92
-75 126 -139 63z"/>
<path d="M7287 28134 c-4 -4 -7 -40 -7 -81 0 -67 2 -73 20 -73 19 0 21 5 18
77 -3 70 -13 95 -31 77z"/>
<path d="M615 28045 c-30 -46 -62 -99 -71 -117 -9 -18 -31 -54 -49 -79 -56
-79 -70 -159 -32 -183 19 -13 29 -13 77 0 30 8 93 14 140 14 131 0 182 20 196
76 11 45 -116 354 -151 368 -41 15 -55 6 -110 -79z m100 -77 c15 -35 35 -86
45 -115 17 -48 17 -52 2 -58 -20 -8 -205 -24 -211 -19 -2 2 10 33 27 69 18 35
32 67 32 71 0 10 65 113 71 114 4 0 19 -28 34 -62z"/>
<path d="M1777 28002 c-22 -24 -21 -45 2 -66 17 -16 27 -16 142 -2 122 15 153
26 133 46 -8 8 -213 40 -255 40 -3 0 -13 -8 -22 -18z"/>
<path d="M1825 27867 c-63 -16 -75 -24 -75 -46 0 -39 23 -44 117 -25 147 28
227 54 212 68 -12 13 -207 15 -254 3z"/>
<path d="M7276 27838 c-8 -30 -8 -82 0 -102 3 -9 14 -16 24 -16 21 0 30 19 30
63 0 50 -11 77 -30 77 -10 0 -20 -10 -24 -22z"/>
<path d="M7277 27574 c-4 -4 -7 -44 -7 -89 0 -61 4 -86 15 -95 12 -10 18 -10
30 0 12 10 15 31 13 99 -3 78 -5 86 -23 89 -12 2 -24 0 -28 -4z"/>
<path d="M2901 27326 c-34 -41 -15 -43 522 -38 489 4 507 5 507 23 0 18 -14
19 -397 19 -219 0 -448 3 -508 6 -96 6 -112 5 -124 -10z"/>
<path d="M2220 27304 c-28 -6 -452 -14 -1088 -20 -550 -6 -634 -9 -639 -22 -4
-8 2 -21 13 -29 16 -12 95 -13 494 -8 1152 13 1231 15 1256 32 24 15 33 43 15
43 -5 0 -15 2 -23 4 -7 2 -20 2 -28 0z"/>
<path d="M7281 27276 c-7 -9 -11 -40 -9 -78 3 -60 4 -63 28 -63 24 0 25 3 28
63 3 59 -7 92 -28 92 -4 0 -13 -6 -19 -14z"/>
<path d="M2550 27211 c-52 -11 -78 -31 -101 -78 -14 -30 -19 -57 -17 -95 3
-49 5 -53 28 -53 24 0 25 4 30 63 7 84 35 112 114 112 72 0 79 -11 84 -124 4
-116 -3 -128 -146 -241 -60 -47 -114 -97 -121 -111 -14 -31 -14 -109 -1 -135
7 -13 21 -19 44 -19 38 0 41 5 52 76 6 43 16 57 95 139 121 125 142 172 137
303 -2 78 -7 102 -23 124 -35 46 -83 57 -175 39z"/>
<path d="M7275 26977 c-3 -12 -5 -56 -3 -97 3 -73 4 -75 28 -75 24 0 25 2 28
75 4 93 -2 120 -28 120 -12 0 -22 -9 -25 -23z"/>
<path d="M1281 26903 c-22 -19 -30 -48 -64 -222 l-22 -114 -49 -12 c-51 -13
-76 -35 -76 -66 0 -29 29 -38 68 -22 19 8 36 12 39 9 6 -5 -33 -210 -54 -286
-8 -30 -26 -76 -39 -102 -23 -45 -23 -47 -5 -69 32 -40 56 -14 96 106 10 31
75 340 75 358 0 2 28 7 63 10 60 6 127 25 127 37 0 10 -62 29 -117 36 -29 4
-53 12 -53 18 0 10 47 231 56 264 2 6 8 12 15 12 7 0 10 -20 8 -61 -3 -51 -1
-64 14 -73 30 -18 47 17 47 96 0 69 0 69 -35 84 -45 19 -68 18 -94 -3z"/>
<path d="M643 26868 c-5 -7 -31 -56 -58 -108 -26 -52 -60 -111 -75 -130 -51
-65 -91 -139 -88 -162 2 -15 -4 -27 -17 -33 -24 -12 -31 -50 -15 -71 16 -18
60 -18 130 1 32 9 100 15 162 15 97 0 109 2 128 22 28 30 25 55 -15 188 -20
63 -43 147 -52 185 -8 39 -20 78 -25 88 -10 20 -61 23 -75 5z m58 -258 c17
-58 34 -110 36 -116 3 -7 -29 -13 -94 -17 -54 -3 -108 -9 -121 -13 -23 -7 -23
-7 -5 37 9 24 33 69 52 99 20 31 47 80 61 109 22 48 25 51 31 29 4 -12 22 -70
40 -128z"/>
<path d="M7276 26684 c-3 -9 -6 -37 -6 -64 0 -61 7 -80 30 -80 23 0 30 19 30
80 0 61 -7 80 -30 80 -10 0 -21 -7 -24 -16z"/>
<path d="M1710 26620 c-11 -11 -20 -24 -20 -30 0 -21 40 -50 63 -45 12 2 63 9
114 15 97 11 123 17 123 30 0 13 -26 19 -123 30 -51 6 -102 13 -114 15 -14 4
-30 -2 -43 -15z"/>
<path d="M2432 26411 c-7 -4 -19 -28 -26 -52 -22 -74 4 -109 83 -109 32 0 44
5 57 25 44 67 -49 178 -114 136z"/>
<path d="M7277 26404 c-4 -4 -7 -44 -7 -89 0 -61 4 -86 15 -95 12 -10 18 -10
30 0 12 10 15 31 13 99 -3 78 -5 86 -23 89 -12 2 -24 0 -28 -4z"/>
<path d="M7281 26106 c-7 -9 -11 -40 -9 -78 3 -60 4 -63 28 -63 24 0 25 3 28
63 3 59 -7 92 -28 92 -4 0 -13 -6 -19 -14z"/>
<path d="M3958 25838 c-35 -63 -67 -74 -238 -82 -80 -3 -192 -10 -250 -15 -58
-6 -350 -10 -650 -10 -300 0 -606 -5 -680 -11 -107 -8 -991 -25 -1779 -34 -87
-1 -106 -4 -115 -18 -8 -13 -8 -23 0 -35 10 -15 24 -18 100 -15 49 2 116 8
149 13 33 5 199 9 369 9 171 0 360 4 420 10 165 15 1012 34 1666 38 316 2 656
6 755 10 204 8 242 20 290 89 28 41 31 63 13 81 -19 19 -25 15 -50 -30z"/>
<path d="M7275 25807 c-3 -12 -5 -56 -3 -97 3 -73 4 -75 28 -75 24 0 25 2 28
75 4 93 -2 120 -28 120 -12 0 -22 -9 -25 -23z"/>
<path d="M6831 25811 c-10 -7 -15 -34 -16 -98 -1 -48 -8 -120 -15 -160 l-13
-71 -39 28 c-133 97 -288 -2 -288 -182 0 -102 52 -148 168 -148 81 0 135 21
170 65 11 14 25 25 30 25 6 0 17 7 25 14 11 12 13 35 10 103 -4 63 1 119 15
198 33 181 35 201 17 219 -18 18 -43 20 -64 7z m-123 -376 c20 -16 37 -46 49
-84 l19 -58 -76 -7 c-102 -8 -139 0 -146 31 -8 32 12 99 37 124 27 27 81 25
117 -6z"/>
<path d="M6153 25592 c-7 -4 -19 -25 -28 -46 -9 -21 -45 -87 -81 -146 -68
-113 -76 -143 -44 -160 27 -14 56 2 65 37 12 49 86 196 95 187 4 -5 17 -52 28
-104 24 -109 23 -110 -55 -110 -49 0 -83 -17 -83 -40 0 -26 35 -40 98 -41 96
-2 105 0 125 24 13 15 17 32 14 57 -8 64 -58 293 -69 314 -18 34 -40 44 -65
28z"/>
<path d="M7276 25514 c-3 -9 -6 -37 -6 -64 0 -61 7 -80 30 -80 23 0 30 19 30
80 0 61 -7 80 -30 80 -10 0 -21 -7 -24 -16z"/>
<path d="M7277 25234 c-4 -4 -7 -44 -7 -89 0 -61 4 -86 15 -95 12 -10 18 -10
30 0 12 10 15 31 13 99 -3 78 -5 86 -23 89 -12 2 -24 0 -28 -4z"/>
<path d="M7076 24974 c-9 -8 -16 -22 -16 -29 0 -7 7 -21 16 -29 14 -15 2 -16
-135 -16 l-151 0 6 25 c7 29 -10 55 -37 55 -11 0 -42 -23 -69 -51 l-50 -51 0
35 c0 36 -15 56 -30 41 -15 -16 -16 -142 -1 -156 10 -11 16 -9 27 8 15 22 15
22 67 -7 58 -31 131 -47 141 -31 3 6 -6 24 -20 41 l-26 31 180 0 c170 0 180
-1 175 -19 -4 -17 20 -51 37 -51 5 0 22 17 39 37 34 41 39 81 18 123 -25 51
-136 79 -171 44z"/>
<path d="M7281 24936 c-7 -9 -11 -40 -9 -78 3 -60 4 -63 28 -63 24 0 25 3 28
63 3 59 -7 92 -28 92 -4 0 -13 -6 -19 -14z"/>
<path d="M6596 24674 c-12 -32 -6 -121 9 -134 26 -22 45 5 45 65 0 66 -7 85
-30 85 -10 0 -21 -7 -24 -16z"/>
<path d="M9789 24448 c-49 -55 -179 -252 -179 -272 0 -30 18 -46 52 -46 34 0
66 31 109 107 17 29 32 53 35 53 2 0 4 -270 4 -600 l0 -600 -520 0 -520 0 -57
30 c-64 33 -184 80 -224 87 -17 3 -28 0 -32 -9 -9 -25 8 -38 64 -53 30 -8 77
-24 104 -34 50 -20 50 -20 -937 -20 l-986 0 -6 24 c-4 14 -15 29 -26 35 -11 6
-20 19 -20 30 0 32 -11 50 -31 50 -21 0 -35 -39 -25 -66 4 -9 2 -22 -2 -28 -5
-6 -19 -42 -32 -81 -12 -38 -42 -107 -67 -153 -48 -90 -49 -116 -6 -133 34
-13 66 8 81 53 8 25 10 -84 8 -447 -2 -367 -5 -488 -15 -513 l-13 -34 -272 3
-271 3 0 -24 0 -23 290 -2 c160 -2 304 -3 320 -3 17 0 736 2 1598 4 1075 3
1574 1 1588 -6 18 -10 19 -24 19 -359 0 -191 -3 -733 -7 -1204 l-6 -857 -23
41 c-49 84 -63 99 -99 99 -24 0 -39 -7 -49 -22 -24 -34 -20 -54 20 -95 20 -21
56 -68 81 -105 25 -38 57 -75 75 -84 51 -27 73 -13 116 74 22 42 51 100 65
127 31 58 45 115 28 115 -15 0 -101 -66 -127 -98 l-22 -26 -7 1114 c-4 613 -5
1147 -3 1186 l3 72 1720 -660 c946 -363 1990 -764 2320 -890 330 -127 609
-238 620 -248 11 -10 31 -21 45 -25 14 -4 35 -13 46 -20 19 -12 23 -11 34 13
16 33 19 44 30 107 11 68 78 265 96 282 37 38 2 103 -56 103 -33 0 -50 -17
-50 -50 0 -15 -8 -51 -17 -81 l-18 -54 -5 125 c-11 232 -2 1321 10 1378 l12
52 2839 0 c2832 0 2839 0 2839 20 0 20 -7 20 -2846 20 -2022 0 -2851 3 -2866
11 -14 8 -18 17 -14 33 3 13 -1 31 -9 42 -15 19 -15 19 -30 0 -8 -11 -12 -29
-9 -42 4 -16 0 -25 -14 -33 -15 -8 -422 -11 -1371 -11 l-1351 0 0 38 c0 40
-31 82 -61 82 -20 0 -59 -42 -59 -63 0 -12 -52 17 -177 100 -98 64 -502 328
-898 586 -396 258 -728 476 -737 485 -17 14 -18 57 -18 630 l0 616 28 -26 c44
-42 126 -76 137 -57 8 11 -81 141 -137 202 -50 53 -78 59 -109 25z m-1119
-1402 c0 -2 -33 -20 -73 -41 -98 -51 -108 -58 -110 -91 -3 -37 29 -46 42 -12
6 16 46 41 133 86 l125 62 506 0 c394 0 508 -3 514 -12 4 -7 10 -282 11 -610
4 -576 3 -598 -15 -598 -10 0 -223 79 -473 176 -250 97 -503 194 -562 216 -91
35 -111 46 -131 77 -14 20 -60 73 -104 119 -58 60 -84 81 -96 76 -33 -12 -16
-44 61 -120 42 -42 68 -73 57 -69 -15 5 -1136 434 -1767 677 -58 22 -78 34
-78 48 0 18 34 19 980 19 539 1 980 -1 980 -3z m1916 -503 c379 -247 778 -507
887 -577 108 -70 197 -130 197 -132 0 -2 -407 -4 -905 -4 l-905 0 0 503 c0
535 5 671 25 663 6 -2 322 -206 701 -453z m-2974 75 c553 -211 863 -335 855
-340 -6 -5 -59 -8 -117 -6 -102 3 -105 2 -108 -19 -3 -23 -2 -23 120 -23 68 0
142 5 165 10 40 9 56 5 240 -64 301 -112 887 -337 892 -342 2 -2 -664 -4
-1481 -4 l-1486 0 -13 33 c-9 23 -14 144 -17 447 -2 228 -2 435 0 460 l3 45
20 -40 c25 -50 65 -60 90 -22 16 26 16 27 -21 124 -26 67 -28 73 -16 73 4 0
397 -149 874 -332z m4098 -860 c0 -35 24 -68 51 -68 10 0 27 11 37 25 l20 26
99 -64 c115 -75 2318 -1511 2380 -1552 24 -16 41 -30 40 -32 -2 -1 -257 94
-568 213 -481 183 -3638 1392 -3814 1460 l-60 23 908 1 907 0 0 -32z m2810
-20 c11 -53 21 -1103 13 -1357 -4 -98 -6 -111 -16 -91 -18 36 -59 48 -92 26
-24 -16 -27 -23 -23 -60 4 -33 34 -107 76 -189 2 -4 -72 42 -165 101 -175 113
-2392 1557 -2453 1598 l-35 24 1342 0 1341 0 12 -52z"/>
<path d="M6597 24394 c-4 -4 -7 -44 -7 -89 0 -61 4 -86 15 -95 12 -10 18 -10
30 0 12 10 15 31 13 99 -3 78 -5 86 -23 89 -12 2 -24 0 -28 -4z"/>
<path d="M6601 24096 c-7 -9 -11 -40 -9 -78 3 -60 4 -63 28 -63 24 0 25 3 28
63 3 59 -7 92 -28 92 -4 0 -13 -6 -19 -14z"/>
<path d="M17516 24074 c-12 -32 -6 -121 9 -134 26 -22 45 5 45 65 0 66 -7 85
-30 85 -10 0 -21 -7 -24 -16z"/>
<path d="M16273 23860 c-12 -5 -30 -21 -40 -37 -16 -24 -18 -50 -17 -231 l2
-204 -32 7 c-76 18 -116 -4 -116 -65 0 -61 40 -83 116 -65 37 8 44 -7 39 -77
-2 -24 -6 -81 -10 -128 -3 -47 -9 -93 -11 -102 -5 -17 -48 -18 -730 -18 -721
0 -725 0 -714 20 6 11 36 33 68 48 53 26 57 31 57 63 0 28 -4 35 -22 37 -26 4
-125 -46 -171 -86 -17 -15 -42 -37 -56 -48 l-25 -22 -3 72 c-3 68 -4 71 -28
71 -24 0 -25 -2 -28 -75 -4 -94 2 -120 28 -120 11 0 41 -15 67 -33 27 -19 64
-40 83 -48 19 -7 68 -30 108 -51 70 -36 132 -49 132 -28 0 6 -8 14 -17 17 -10
4 -22 12 -28 19 -5 7 -37 33 -69 58 l-59 46 699 0 700 0 -7 -52 c-21 -143 -22
-173 -4 -188 12 -10 21 -11 33 -3 17 10 20 28 38 181 l7 63 446 1 c245 0 493
3 551 5 l105 4 -32 -33 c-18 -19 -33 -39 -33 -45 0 -13 38 -28 60 -24 25 4
140 83 150 102 37 68 -27 137 -172 187 -78 27 -100 32 -117 22 -23 -12 -28
-42 -8 -58 6 -5 30 -15 52 -21 22 -6 51 -19 64 -30 23 -18 23 -18 -73 -25 -52
-3 -107 -11 -122 -16 -15 -6 -195 -10 -446 -10 l-420 0 6 23 c3 12 9 88 12
170 l7 147 76 0 c83 0 121 16 121 50 0 34 -38 50 -121 50 l-76 0 -6 83 c-10
126 -8 306 3 328 24 43 115 5 143 -60 6 -14 14 -71 17 -126 5 -99 5 -100 30
-100 25 0 25 1 28 89 4 134 -35 217 -123 257 -43 20 -77 23 -112 9z"/>
<path d="M6595 23797 c-3 -12 -5 -56 -3 -97 3 -73 4 -75 28 -75 24 0 25 2 28
75 4 93 -2 120 -28 120 -12 0 -22 -9 -25 -23z"/>
<path d="M17522 23798 c-18 -18 -16 -172 3 -188 12 -10 18 -10 30 0 11 9 15
34 15 94 0 74 -9 106 -30 106 -3 0 -11 -5 -18 -12z"/>
<path d="M15637 23697 c-14 -10 -33 -68 -67 -202 -4 -16 -24 -75 -45 -130 -53
-141 -54 -156 -15 -188 39 -33 71 -34 205 -6 170 37 181 56 106 186 -28 48
-57 107 -65 129 -8 23 -22 57 -32 75 -10 19 -20 54 -23 78 -7 52 -36 79 -64
58z m92 -356 c18 -29 31 -54 29 -56 -4 -3 -117 -27 -155 -32 -24 -4 -33 -1
-33 8 0 19 47 197 62 232 11 29 11 29 38 -35 15 -35 42 -87 59 -117z"/>
<path d="M6596 23504 c-12 -32 -6 -121 9 -134 26 -22 45 5 45 65 0 66 -7 85
-30 85 -10 0 -21 -7 -24 -16z"/>
<path d="M17521 23496 c-7 -9 -11 -40 -9 -78 3 -60 4 -63 28 -63 24 0 25 3 28
63 3 59 -7 92 -28 92 -4 0 -13 -6 -19 -14z"/>
<path d="M17516 23204 c-3 -9 -6 -46 -6 -84 0 -81 6 -100 30 -100 24 0 30 19
30 100 0 81 -6 100 -30 100 -10 0 -21 -7 -24 -16z"/>
<path d="M11910 22847 c-253 -89 -241 -69 -179 -323 16 -67 36 -167 43 -224 8
-56 20 -108 27 -116 26 -32 89 -6 89 37 0 11 -8 47 -17 80 -20 72 -18 74 70
84 96 10 167 47 167 85 0 31 -60 39 -159 20 -28 -5 -65 -7 -81 -3 -28 5 -30 8
-30 54 0 36 -5 54 -20 69 -11 11 -23 33 -26 49 -5 24 -2 29 28 41 18 7 74 31
124 52 88 36 142 49 129 29 -13 -21 18 -21 41 0 45 43 24 97 -41 105 -30 4
-71 -6 -165 -39z"/>
<path d="M14557 22764 c-4 -4 -7 -35 -7 -69 0 -70 17 -98 45 -75 12 10 15 29
13 79 -3 58 -6 66 -23 69 -12 2 -24 0 -28 -4z"/>
<path d="M14561 22506 c-8 -9 -11 -45 -9 -98 3 -81 4 -83 28 -83 24 0 25 2 28
83 3 78 -6 112 -28 112 -4 0 -13 -6 -19 -14z"/>
<path d="M14562 22178 c-12 -12 -17 -104 -6 -132 3 -9 14 -16 24 -16 23 0 30
19 30 84 0 46 -12 76 -30 76 -3 0 -11 -5 -18 -12z"/>
<path d="M6412 18759 c-9 -17 -48 -72 -87 -122 -115 -148 -124 -161 -125 -183
-1 -48 71 -58 83 -12 13 48 18 6 8 -67 -14 -101 -14 -109 7 -135 19 -23 46
-20 57 8 3 9 10 50 15 90 12 93 41 191 91 307 44 102 47 120 20 135 -33 17
-51 11 -69 -21z m-105 -291 c-3 -8 -6 -5 -6 6 -1 11 2 17 5 13 3 -3 4 -12 1
-19z"/>
<path d="M3853 18728 c-5 -7 -21 -33 -35 -58 -25 -43 -89 -104 -150 -143 -32
-20 -35 -38 -12 -61 25 -26 45 -19 92 31 44 45 45 46 39 17 -4 -16 -22 -101
-40 -189 -19 -88 -37 -168 -42 -177 -5 -13 -3 -18 10 -18 49 0 77 53 110 205
9 44 35 144 56 223 21 79 39 145 39 147 0 2 -7 11 -16 19 -19 19 -38 20 -51 4z"/>
<path d="M1542 18648 c-5 -7 -13 -24 -17 -38 -9 -32 -64 -105 -144 -193 -69
-76 -77 -110 -29 -115 20 -2 32 5 53 33 15 19 30 34 32 32 2 -2 -12 -69 -31
-148 -19 -79 -38 -164 -41 -189 -4 -25 -11 -50 -17 -57 -16 -20 11 -26 38 -8
34 22 64 93 102 240 17 66 45 161 62 210 77 221 75 213 61 229 -16 19 -55 21
-69 4z"/>
<path d="M486 18627 c-54 -54 -67 -262 -72 -1137 -8 -1378 -7 -1351 -37 -1464
-15 -54 -40 -128 -57 -164 -36 -78 -37 -89 -6 -104 37 -16 55 -73 81 -248 28
-196 37 -354 42 -745 5 -369 -5 -704 -27 -935 -5 -52 -14 -258 -21 -456 -9
-316 -9 -372 5 -443 33 -176 158 -351 251 -351 49 0 62 22 28 51 -119 104
-170 183 -199 306 -14 58 -15 119 -11 418 3 193 12 431 21 530 32 393 36 563
25 990 -13 511 -59 876 -117 933 -17 16 -17 20 5 74 12 31 32 98 45 150 22 92
22 105 28 1098 4 654 11 1050 19 1135 13 140 30 270 38 292 7 19 26 16 41 -7
18 -29 49 -25 67 9 13 27 13 31 -3 51 -15 18 -72 39 -110 40 -7 0 -23 -10 -36
-23z"/>
<path d="M5238 18193 c-29 -7 -52 -55 -57 -123 l-6 -65 -45 3 c-25 1 -67 7
-94 13 -26 6 -59 12 -72 12 -55 0 -85 -71 -46 -106 13 -12 37 -17 84 -17 36 0
86 -3 112 -6 l46 -7 0 -78 c0 -81 14 -129 37 -129 7 0 13 10 13 21 0 12 9 61
21 109 l20 88 51 6 c51 7 121 36 133 56 4 6 -14 10 -48 10 -30 0 -69 3 -87 6
-32 7 -32 7 -27 56 4 26 13 58 22 70 8 13 15 30 15 40 0 20 -47 46 -72 41z"/>
<path d="M2231 18001 c-15 -27 -14 -37 5 -55 28 -29 376 -16 408 15 16 15 -58
38 -140 43 -269 18 -262 18 -273 -3z"/>
<path d="M6104 17995 c-15 -23 -15 -27 0 -50 l16 -24 233 5 c425 9 497 14 518
35 22 22 18 38 -9 37 -9 0 -91 2 -182 6 -91 3 -254 8 -362 11 l-197 5 -17 -25z"/>
<path d="M3590 17950 l-205 -5 -3 -29 c-2 -16 2 -32 10 -37 18 -12 226 -11
313 1 39 5 239 12 445 15 206 4 385 8 398 11 26 5 30 39 6 48 -18 7 -652 4
-964 -4z"/>
<path d="M1134 17887 c-8 -4 -14 -18 -14 -31 0 -46 15 -49 238 -42 261 8 358
18 380 39 37 38 7 42 -299 42 -160 0 -297 -4 -305 -8z"/>
<path d="M2338 17844 c-13 -13 -9 -51 7 -64 11 -9 47 -11 138 -7 99 4 133 10
180 30 79 33 81 38 12 37 -33 -1 -121 1 -195 5 -74 4 -138 4 -142 -1z"/>
<path d="M6475 17836 c-74 -33 -117 -121 -129 -261 -8 -90 -16 -105 -58 -105
-67 0 -121 -61 -85 -97 17 -17 48 -20 96 -9 34 8 34 8 27 -25 -3 -18 -11 -85
-16 -148 -6 -64 -13 -134 -16 -157 -7 -51 13 -73 51 -56 27 12 27 13 45 247 7
83 14 153 16 157 2 3 32 9 66 13 97 10 191 27 211 37 50 26 -13 49 -151 56
l-113 5 7 71 c11 113 54 206 96 206 5 0 8 -23 8 -50 0 -36 4 -52 15 -56 31
-12 45 15 45 88 0 69 0 69 -35 84 -41 17 -42 17 -80 0z"/>
<path d="M3935 17776 c-8 -19 -19 -58 -24 -87 -5 -30 -18 -94 -29 -144 -11
-49 -23 -107 -26 -127 l-7 -37 -51 32 c-47 30 -58 32 -158 35 -114 4 -146 -4
-198 -52 -33 -30 -42 -49 -53 -116 -12 -73 3 -116 52 -151 49 -35 150 -33 289
5 127 34 131 36 150 70 13 24 13 28 0 36 -25 16 -105 11 -185 -11 -74 -20
-164 -27 -184 -14 -12 7 -15 94 -3 111 15 23 72 44 119 44 73 0 110 -15 164
-65 26 -25 57 -45 67 -45 31 0 52 34 63 101 12 80 36 190 53 249 46 155 49
169 36 185 -23 28 -60 19 -75 -19z"/>
<path d="M1285 17659 c-35 -5 -67 -17 -78 -28 -18 -17 -18 -25 -8 -83 15 -85
14 -145 -3 -248 -49 -292 -50 -309 -31 -330 38 -42 85 -14 86 53 1 51 21 173
31 182 4 4 43 11 88 16 90 10 154 32 148 51 -7 20 -70 36 -143 37 l-70 1 0
135 c0 130 1 136 21 141 19 5 132 1 208 -8 20 -2 32 3 42 18 13 19 12 24 -5
45 -18 22 -27 24 -123 26 -56 1 -130 -3 -163 -8z"/>
<path d="M3292 16795 c-35 -29 -43 -53 -67 -195 -9 -52 -22 -98 -28 -102 -7
-5 -39 -7 -71 -6 -51 1 -62 -2 -78 -22 -16 -20 -17 -25 -4 -44 12 -18 22 -21
78 -18 l65 4 -28 -129 c-16 -70 -29 -145 -29 -165 0 -38 0 -38 -44 -38 -25 0
-48 5 -51 10 -9 14 -58 13 -73 -2 -21 -21 -14 -66 14 -84 23 -15 55 -16 327
-11 283 6 377 15 377 37 0 19 -83 30 -279 37 l-204 6 7 61 c6 59 54 276 63
286 3 3 72 10 154 15 82 6 150 14 150 19 1 23 -87 45 -183 45 -113 1 -106 -7
-84 111 16 83 30 125 44 134 5 3 20 -6 32 -19 26 -28 52 -32 70 -10 16 20 5
47 -31 74 -48 36 -89 38 -127 6z"/>
<path d="M1360 16451 c-14 -4 -35 -14 -48 -22 -24 -15 -62 -95 -62 -131 0 -13
-9 -31 -19 -40 -22 -19 -23 -24 -46 -223 -9 -77 -24 -171 -33 -208 -18 -77
-12 -100 31 -105 33 -4 41 12 57 118 39 274 77 452 106 498 14 21 20 22 154
22 l140 0 0 -39 c0 -49 15 -91 33 -91 13 0 48 40 74 85 20 33 15 81 -11 112
-24 28 -24 28 -188 30 -89 1 -174 -2 -188 -6z"/>
<path d="M1910 16032 c-68 -22 -63 -121 6 -124 25 -1 137 13 145 18 3 2 74 10
158 19 176 17 201 22 201 41 0 32 -42 39 -259 41 -118 1 -219 4 -225 6 -6 2
-18 2 -26 -1z"/>
<path d="M2417 15870 c-15 -5 -116 -9 -222 -10 -107 0 -202 -3 -210 -6 -25
-10 -30 -52 -9 -76 18 -19 27 -20 119 -15 55 3 135 14 178 26 95 25 217 72
217 83 0 10 -36 9 -73 -2z"/>
<path d="M3282 15868 c-7 -7 -12 -26 -12 -44 0 -41 -29 -197 -39 -207 -4 -4
-33 4 -64 18 -65 30 -139 35 -184 11 -44 -22 -91 -80 -103 -128 -32 -118 96
-170 291 -118 41 11 95 25 121 31 26 6 52 17 58 25 17 19 4 61 -20 69 -27 9
-26 29 10 168 17 65 30 128 30 140 0 30 -18 47 -50 47 -14 0 -31 -5 -38 -12z
m-143 -307 c47 -25 69 -49 50 -55 -47 -16 -136 -27 -169 -21 -48 8 -52 27 -13
67 32 34 76 37 132 9z"/>
<path d="M4037 14839 c-11 -6 -30 -34 -43 -63 -18 -39 -37 -61 -81 -92 -43
-30 -59 -48 -61 -68 -4 -34 13 -56 44 -56 13 0 24 -1 24 -3 0 -1 -9 -27 -21
-57 -11 -30 -25 -75 -31 -99 -9 -38 -8 -46 10 -63 40 -41 54 -21 117 165 32
94 71 200 86 233 30 64 30 87 -2 104 -21 12 -20 12 -42 -1z"/>
<path d="M1332 14823 c-7 -3 -30 -39 -51 -81 -22 -43 -60 -101 -85 -130 -31
-36 -46 -63 -46 -81 0 -29 26 -61 50 -61 10 0 11 -14 6 -61 -8 -84 1 -139 25
-139 32 0 47 27 54 101 10 100 60 294 90 352 31 60 31 72 3 91 -24 17 -26 17
-46 9z"/>
<path d="M8500 14698 c-11 -18 -20 -37 -20 -43 0 -5 -25 -39 -55 -75 -66 -77
-73 -115 -25 -133 29 -11 30 -14 30 -73 0 -64 15 -92 44 -81 16 6 30 49 66
206 12 52 31 115 42 140 25 58 14 91 -32 91 -23 0 -35 -7 -50 -32z"/>
<path d="M1972 14334 c-30 -21 -29 -69 1 -88 19 -12 47 -12 220 4 213 20 257
27 257 40 0 13 -37 19 -211 35 -90 8 -182 17 -205 19 -27 4 -48 0 -62 -10z"/>
<path d="M6196 14311 c-11 -12 -20 -43 -23 -80 -6 -60 -6 -61 -37 -63 -17 0
-44 0 -59 1 -58 5 -90 -65 -47 -104 17 -16 26 -17 77 -6 31 6 60 11 65 11 4 0
8 -24 8 -53 0 -90 20 -136 61 -137 13 0 16 16 17 97 1 54 6 100 10 104 4 3 47
14 95 24 86 18 129 37 115 50 -14 15 -94 24 -150 18 l-58 -6 0 65 c0 50 -4 69
-18 81 -24 22 -35 21 -56 -2z"/>
<path d="M926 14171 c-24 -26 -20 -68 7 -84 18 -11 78 -12 340 -3 319 11 319
11 338 35 14 17 17 27 9 35 -7 7 -96 13 -233 18 -122 3 -272 9 -334 11 -97 5
-113 3 -127 -12z"/>
<path d="M9710 14170 c-586 -46 -749 -51 -1585 -49 -440 1 -806 1 -813 1 -22
-3 -9 -46 18 -58 31 -14 1816 -1 2020 15 313 24 440 31 710 37 157 4 289 10
293 14 5 4 7 16 5 26 -3 18 -19 19 -278 20 -151 1 -318 -2 -370 -6z"/>
<path d="M2972 14151 c-23 -14 -9 -45 30 -64 35 -17 56 -17 488 -3 507 18
1185 21 1389 6 205 -14 387 -18 405 -8 23 13 20 45 -6 59 -22 12 -1315 18
-1943 9 -154 -2 -296 -1 -315 3 -19 4 -41 3 -48 -2z"/>
<path d="M2153 14099 c-35 -4 -67 -11 -73 -14 -15 -9 -12 -55 4 -61 8 -3 70
-1 138 5 90 7 141 16 184 33 32 14 59 27 59 31 0 11 -238 15 -312 6z"/>
<path d="M9456 13878 c-13 -18 -16 -53 -16 -171 0 -137 -1 -148 -17 -143 -10
3 -42 6 -70 7 -61 2 -93 -18 -93 -60 0 -52 33 -71 107 -64 61 7 59 10 39 -85
-36 -169 -37 -179 -27 -205 13 -32 20 -33 54 -7 16 13 27 34 31 58 3 20 13 85
22 143 l16 105 70 0 c57 -1 73 2 82 17 21 33 -17 62 -106 81 l-28 6 0 135 c0
108 3 135 14 135 25 0 39 -29 33 -68 -6 -46 7 -72 33 -72 28 0 38 28 31 85 -9
62 -26 91 -67 110 -47 22 -90 19 -108 -7z"/>
<path d="M1008 13873 c-26 -28 -30 -63 -14 -134 14 -68 9 -172 -14 -304 -35
-196 -40 -294 -14 -319 35 -36 113 1 100 47 -20 73 -16 180 10 277 3 12 22 16
82 18 42 2 103 7 135 13 57 10 127 37 127 49 0 9 -138 33 -230 39 l-85 6 0
114 0 114 144 -7 c127 -6 146 -5 162 10 23 21 24 47 2 65 -12 11 -56 14 -172
15 -86 0 -170 4 -186 8 -24 6 -34 3 -47 -11z"/>
<path d="M3470 13840 c-17 -17 -20 -29 -15 -68 3 -29 -4 -99 -19 -182 -13 -74
-24 -130 -25 -123 -1 7 -18 24 -38 38 -66 44 -139 29 -216 -43 -99 -93 -136
-255 -66 -292 62 -34 270 14 336 76 23 22 33 38 26 41 -8 3 -9 10 -4 21 5 9
16 53 25 97 9 44 25 123 36 175 18 86 40 213 40 233 0 10 -38 47 -50 47 -5 0
-19 -9 -30 -20z m-124 -436 c19 -19 34 -46 34 -59 0 -13 7 -31 16 -39 14 -15
11 -16 -29 -16 -25 0 -77 -7 -117 -16 -79 -18 -97 -12 -86 29 12 50 99 135
140 137 5 0 24 -16 42 -36z"/>
<path d="M7667 13840 c-40 -32 -59 -99 -82 -292 l-6 -47 -50 6 c-58 7 -89 -13
-89 -57 0 -38 29 -60 78 -60 l41 0 -18 -62 c-10 -35 -21 -85 -25 -113 -4 -27
-14 -74 -21 -103 -15 -58 -8 -95 20 -106 30 -11 55 12 55 51 0 54 59 336 74
350 2 2 30 8 64 13 68 11 132 35 132 50 0 6 1 13 3 18 1 4 -9 8 -23 9 -14 2
-55 6 -92 9 l-66 6 5 37 c8 64 24 145 36 186 12 40 12 40 17 -40 5 -74 7 -80
28 -83 13 -2 30 2 38 8 32 28 4 208 -36 230 -28 15 -55 12 -83 -10z"/>
<path d="M8877 13802 c-10 -10 -17 -27 -17 -38 0 -11 -29 -85 -65 -164 -39
-85 -63 -151 -59 -162 7 -23 38 -40 58 -32 8 3 19 -3 26 -15 10 -20 17 -21
140 -17 134 5 164 13 175 46 8 26 -1 53 -40 120 -17 30 -51 98 -75 150 -24 52
-53 103 -64 112 -27 23 -59 23 -79 0z m86 -234 l47 -88 -37 0 c-21 0 -58 -5
-82 -11 -24 -5 -46 -7 -49 -4 -6 6 24 124 45 174 7 20 17 31 22 25 4 -5 29
-48 54 -96z"/>
<path d="M5125 13801 c-3 -5 -7 -49 -10 -98 -5 -89 -43 -273 -56 -273 -4 0
-10 9 -14 19 -30 94 -171 170 -244 131 -33 -17 -64 -108 -69 -205 -4 -86 -3
-92 21 -120 24 -29 29 -30 126 -33 78 -3 113 0 154 14 68 24 77 31 77 65 0 16
16 82 35 147 46 154 73 326 55 347 -14 16 -65 21 -75 6z m-216 -330 c29 -16
43 -33 64 -79 15 -33 27 -62 27 -66 0 -9 -143 -7 -159 3 -22 14 0 161 25 161
3 0 22 -9 43 -19z"/>
<path d="M4323 13658 c-5 -7 -18 -33 -27 -58 -10 -25 -42 -89 -72 -143 -30
-53 -54 -101 -54 -105 0 -4 -13 -13 -30 -19 -22 -8 -30 -18 -30 -36 0 -51 20
-58 148 -52 302 14 319 16 341 36 31 29 26 62 -19 114 -22 26 -47 60 -56 76
-8 16 -40 68 -70 114 -51 78 -58 85 -88 85 -19 0 -38 -6 -43 -12z m87 -199
c35 -51 58 -95 54 -99 -5 -5 -51 -12 -101 -16 -84 -6 -93 -5 -93 10 0 14 71
196 76 196 1 0 30 -41 64 -91z"/>
<path d="M3799 13589 c-6 -12 -9 -44 -7 -71 l5 -50 -83 7 c-94 8 -114 0 -114
-45 0 -45 20 -53 110 -46 l80 7 0 -76 c0 -83 11 -115 39 -115 15 0 20 15 32
98 l14 97 50 6 c58 7 119 35 109 50 -3 6 -16 9 -28 6 -11 -3 -43 -2 -71 2
l-50 6 0 56 c0 33 -6 63 -14 72 -19 24 -58 21 -72 -4z"/>
<path d="M8087 13532 c-24 -26 -22 -68 5 -86 15 -10 35 -14 67 -10 186 20 291
40 291 54 0 14 -116 36 -291 55 -46 5 -58 3 -72 -13z"/>
<path d="M1538 12313 c-10 -3 -18 -9 -18 -14 0 -24 -163 -137 -324 -224 -30
-16 -43 -42 -30 -62 17 -28 53 -28 83 0 31 29 181 128 181 119 0 -10 -143
-277 -161 -301 -25 -31 -26 -81 -1 -81 9 0 22 4 28 8 11 7 114 183 151 257 39
78 116 220 129 240 8 11 14 25 14 32 0 16 -30 31 -52 26z"/>
<path d="M18962 12298 c-20 -20 -14 -36 43 -112 63 -84 94 -164 127 -330 39
-197 21 -416 -47 -584 -47 -117 -79 -167 -153 -244 -41 -42 -63 -73 -60 -85
15 -81 178 91 256 272 54 126 92 303 92 435 0 84 -32 280 -65 395 -27 94 -92
205 -143 245 -29 23 -34 24 -50 8z"/>
<path d="M6317 12208 c-14 -18 -34 -52 -46 -75 -11 -23 -41 -59 -66 -80 -50
-41 -58 -72 -24 -95 l22 -14 -22 -59 c-31 -88 -51 -184 -40 -191 19 -11 56 25
73 73 74 208 131 342 162 384 27 36 30 59 12 77 -21 21 -46 13 -71 -20z"/>
<path d="M15310 12200 c-11 -11 -20 -24 -20 -28 0 -9 -142 -151 -194 -194 -23
-19 -27 -29 -21 -47 6 -21 12 -23 46 -18 21 3 39 1 39 -3 0 -5 -16 -45 -35
-89 -19 -43 -35 -84 -35 -90 0 -18 27 -12 54 12 28 25 226 408 226 437 0 11
-9 24 -20 30 -15 8 -24 6 -40 -10z"/>
<path d="M16676 12190 c-97 -86 -180 -268 -254 -559 -52 -204 -55 -223 -56
-346 -1 -123 1 -133 27 -192 39 -84 71 -112 135 -120 29 -3 52 -2 52 3 -1 5
-20 21 -44 37 -25 15 -51 42 -60 62 -20 41 -46 155 -46 201 0 103 100 500 162
643 23 53 69 135 101 184 49 72 57 90 47 102 -17 21 -25 19 -64 -15z"/>
<path d="M3833 12195 c-17 -7 -74 -42 -127 -77 -52 -35 -109 -72 -128 -83 -39
-24 -46 -49 -22 -76 25 -28 65 -24 99 11 16 16 30 28 32 26 2 -2 -16 -41 -41
-87 -51 -99 -62 -142 -40 -164 19 -19 50 -5 60 27 23 76 163 307 213 352 47
43 13 96 -46 71z"/>
<path d="M17575 12204 c-327 -25 -363 -33 -394 -85 -9 -15 -22 -63 -29 -106
-7 -43 -17 -100 -22 -126 -6 -27 -10 -68 -10 -91 0 -24 -5 -57 -11 -75 -13
-37 2 -64 35 -59 29 4 40 33 76 195 25 115 29 145 19 161 -7 10 -9 30 -6 44 7
27 58 48 119 48 19 0 59 4 89 9 30 5 91 12 135 15 l82 5 6 -34 c12 -64 76 -35
76 34 0 67 -23 75 -165 65z"/>
<path d="M12299 12188 c-9 -7 -34 -45 -57 -84 -25 -43 -62 -89 -92 -114 -41
-34 -50 -48 -48 -69 2 -19 10 -27 26 -29 19 -3 23 -8 18 -25 -4 -12 -9 -50
-13 -84 -5 -53 -3 -63 11 -69 28 -11 44 15 71 121 27 103 49 157 110 260 40
69 40 69 19 89 -19 19 -26 20 -45 4z"/>
<path d="M18594 12138 c-33 -35 -84 -82 -112 -106 -52 -44 -63 -67 -40 -90 20
-20 37 -14 78 31 22 23 40 39 40 34 0 -4 -9 -42 -21 -85 -25 -92 -35 -217 -18
-227 24 -15 48 33 79 155 17 69 49 164 71 211 46 97 48 132 9 137 -20 2 -39
-11 -86 -60z"/>
<path d="M13043 12174 c-3 -9 -1 -24 5 -33 91 -127 159 -427 149 -656 -8 -179
-59 -306 -179 -439 -29 -33 -45 -57 -35 -53 10 4 30 7 44 7 52 0 148 138 200
286 26 75 27 88 27 254 0 127 -5 200 -18 265 -36 183 -104 364 -141 379 -28
10 -45 7 -52 -10z"/>
<path d="M9446 12106 c-19 -30 -55 -68 -80 -85 -25 -18 -50 -40 -55 -49 -12
-23 4 -52 30 -52 18 0 18 -2 6 -27 -24 -47 -50 -141 -44 -158 8 -18 41 -20 54
-2 6 6 18 37 28 67 16 51 67 158 129 274 20 37 23 53 15 67 -18 34 -46 22 -83
-35z"/>
<path d="M10432 12128 c-70 -88 -184 -477 -208 -710 -12 -121 34 -275 99 -337
25 -23 132 -55 149 -45 14 9 0 21 -30 27 -38 8 -101 75 -126 134 -30 70 -28
251 2 393 27 124 106 358 153 452 27 56 31 69 20 82 -16 19 -45 21 -59 4z"/>
<path d="M17996 12104 c-12 -11 -16 -36 -16 -95 l0 -79 -95 0 c-93 0 -95 -1
-101 -25 -11 -46 11 -58 98 -53 l77 5 3 -51 c2 -37 7 -52 19 -54 17 -3 31 24
47 88 7 31 13 35 51 42 48 8 95 34 86 48 -3 5 -29 6 -59 3 l-53 -5 5 79 c4 65
1 82 -13 96 -20 21 -29 21 -49 1z"/>
<path d="M4951 11766 c-9 -11 -10 -25 -2 -53 19 -68 22 -66 -93 -61 -58 3
-112 1 -120 -4 -18 -10 -22 -63 -5 -74 12 -7 162 -6 194 2 19 5 20 1 16 -81
-2 -57 1 -90 9 -100 17 -20 39 -19 39 3 -1 25 19 146 28 168 9 26 23 34 58 34
35 0 115 34 115 49 0 5 -32 7 -80 4 l-80 -6 0 47 c0 26 -5 56 -10 67 -12 22
-52 25 -69 5z"/>
<path d="M10758 11718 c-24 -24 -76 -61 -116 -83 -77 -43 -103 -75 -86 -103
20 -31 63 -27 102 10 33 32 35 32 28 8 -4 -14 -9 -55 -13 -92 -7 -79 10 -118
52 -118 27 0 32 9 15 26 -24 24 17 183 72 287 37 68 38 75 22 92 -22 22 -27
20 -76 -27z"/>
<path d="M2545 11729 c-33 -5 -96 -9 -140 -10 -84 -1 -115 -14 -115 -49 0 -25
32 -50 64 -50 14 0 95 14 179 31 83 16 169 30 190 31 40 0 51 20 20 36 -28 14
-132 20 -198 11z"/>
<path d="M11312 11708 c-7 -7 -12 -22 -12 -34 0 -12 -3 -36 -7 -54 l-6 -33
-117 6 c-127 7 -140 3 -140 -44 0 -44 17 -50 133 -43 l106 7 -6 -71 c-10 -119
38 -189 52 -76 4 31 13 77 21 104 l14 47 62 9 c45 6 64 14 66 25 2 13 -9 17
-49 22 -28 4 -54 8 -56 10 -2 3 1 26 8 51 10 41 9 49 -6 66 -20 23 -45 26 -63
8z"/>
<path d="M7996 11674 c-9 -8 -16 -21 -16 -28 0 -32 28 -38 162 -35 124 3 290
-6 331 -17 10 -3 17 0 17 9 0 17 -132 61 -230 77 -104 16 -246 13 -264 -6z"/>
<path d="M907 11648 c-27 -20 -19 -69 13 -86 20 -11 71 -12 250 -7 124 4 340
10 480 13 250 7 300 14 300 43 0 5 -15 17 -32 24 -27 13 -84 14 -333 10 -165
-3 -322 -7 -350 -10 -50 -5 -238 8 -285 20 -15 4 -32 1 -43 -7z"/>
<path d="M4045 11635 c-88 -8 -257 -14 -375 -15 -277 -2 -388 -10 -400 -30
-13 -21 -12 -26 7 -45 13 -13 29 -16 82 -12 36 3 215 12 396 21 408 19 459 23
515 40 33 9 45 18 45 32 0 16 -8 19 -55 20 -30 1 -127 -4 -215 -11z"/>
<path d="M11790 11590 c-9 -17 -8 -26 4 -45 20 -31 107 -40 276 -30 344 20
715 27 774 14 10 -2 23 4 29 13 9 14 8 21 -6 35 -17 17 -52 18 -490 18 -260 0
-495 4 -524 9 -47 8 -52 7 -63 -14z"/>
<path d="M5722 11585 c-28 -21 -28 -51 1 -68 17 -9 59 -11 177 -7 85 4 391 7
679 8 288 1 527 5 532 8 13 8 11 44 -3 49 -7 2 -310 6 -673 8 -363 3 -667 8
-675 11 -8 3 -25 -1 -38 -9z"/>
<path d="M9039 11582 c-11 -7 -19 -21 -19 -31 0 -30 27 -44 83 -43 718 23 839
30 860 51 16 16 -2 31 -48 38 -21 3 -135 0 -254 -6 -148 -9 -277 -10 -410 -4
-154 6 -198 5 -212 -5z"/>
<path d="M13670 11580 c-26 -26 -25 -45 1 -71 21 -21 28 -21 153 -16 135 5
276 24 276 37 0 10 -195 40 -262 40 -29 1 -71 7 -93 15 -51 19 -51 19 -75 -5z"/>
<path d="M18520 11558 c-18 -8 -197 -13 -600 -15 -579 -3 -738 -11 -762 -41
-9 -10 -7 -17 4 -29 14 -14 31 -14 142 -4 70 6 321 11 559 11 429 1 706 15
728 37 6 6 9 19 7 29 -4 23 -42 28 -78 12z"/>
<path d="M14667 11522 c-22 -24 -21 -45 1 -65 17 -15 56 -17 356 -17 l338 0
-5 -22 c-3 -13 -13 -66 -22 -118 -14 -79 -38 -178 -62 -250 -3 -11 -8 -8 -19
12 -21 40 -63 58 -134 58 -74 0 -117 -17 -178 -71 -78 -68 -101 -133 -63 -180
15 -19 30 -24 86 -27 96 -6 163 11 215 55 37 32 43 34 52 20 15 -28 57 -21 69
11 18 45 79 261 100 352 11 47 27 104 36 126 l17 42 78 7 c43 3 178 5 299 4
182 -2 222 0 230 12 11 17 11 21 0 38 -8 12 -54 14 -263 12 -139 -1 -320 -6
-403 -13 -194 -14 -588 -4 -648 17 -54 19 -61 19 -80 -3z m507 -478 c16 -6 42
-71 32 -81 -12 -12 -228 -25 -239 -14 -14 14 35 68 78 87 31 14 102 18 129 8z"/>
<path d="M2520 11513 c-97 -10 -180 -44 -180 -74 0 -29 20 -32 89 -14 34 9
110 20 169 25 106 9 232 36 232 50 0 13 -217 23 -310 13z"/>
<path d="M8164 11510 c-24 -10 -36 -33 -28 -55 7 -18 0 -18 209 0 178 16 275
31 275 44 0 17 -416 27 -456 11z"/>
<path d="M1475 11448 c-38 -5 -101 -17 -140 -26 -65 -16 -72 -20 -102 -64 -34
-52 -64 -143 -83 -258 -24 -143 -24 -147 0 -155 32 -10 47 10 68 90 l18 70 69
6 c222 20 365 43 365 59 0 20 -129 32 -269 25 l-145 -8 17 26 c19 29 22 58 8
73 -17 16 22 55 64 65 22 5 74 14 115 19 244 32 240 31 214 68 -13 19 -24 22
-72 20 -31 0 -88 -5 -127 -10z"/>
<path d="M6816 11445 c-9 -9 -20 -35 -26 -58 -6 -23 -24 -76 -39 -117 -16 -41
-39 -103 -51 -137 l-22 -62 -32 16 c-42 22 -163 29 -247 14 -115 -21 -189 -93
-192 -188 -2 -43 1 -48 38 -75 37 -26 46 -28 110 -25 58 3 89 13 185 56 63 29
128 55 143 57 41 6 46 11 53 54 4 22 9 38 13 36 3 -2 6 10 7 27 1 30 16 72 98
267 20 46 36 94 36 105 0 42 -44 59 -74 30z m-250 -431 c30 -4 73 -39 62 -49
-3 -3 -30 -10 -61 -15 -30 -5 -85 -18 -122 -29 -68 -21 -140 -27 -149 -13 -8
14 22 70 47 87 44 29 118 35 223 19z"/>
<path d="M3824 11442 c-17 -11 -34 -48 -34 -74 0 -21 -26 -105 -60 -195 -12
-34 -24 -41 -36 -22 -3 6 -27 20 -53 32 -87 39 -261 16 -351 -45 -68 -47 -89
-132 -40 -158 20 -11 95 -4 239 21 30 5 97 9 150 9 73 0 106 5 139 20 49 22
55 40 13 40 l-30 0 26 63 c55 136 65 162 73 201 5 23 11 50 15 62 4 13 1 27
-10 38 -18 18 -25 19 -41 8z m-212 -338 c16 -9 28 -17 26 -19 -1 -1 -65 -8
-142 -15 -151 -13 -191 -5 -114 24 102 38 170 41 230 10z"/>
<path d="M12198 11435 c-78 -12 -108 -26 -108 -51 0 -8 -11 -24 -25 -36 -14
-12 -25 -30 -25 -41 0 -11 -18 -60 -41 -111 -41 -91 -91 -227 -103 -277 -4
-19 0 -34 13 -50 16 -20 22 -22 43 -12 19 8 26 24 37 74 12 58 74 231 92 254
4 6 17 35 28 66 12 31 29 63 39 72 36 33 234 62 268 39 6 -4 14 -17 18 -30 18
-56 80 -47 92 14 17 90 -107 123 -328 89z"/>
<path d="M17867 11425 c-54 -12 -127 -55 -127 -75 0 -6 -15 -16 -34 -24 -30
-13 -37 -23 -54 -78 -11 -35 -23 -78 -27 -97 -4 -19 -23 -72 -41 -118 -40 -99
-43 -139 -13 -148 30 -10 43 8 74 105 32 95 120 268 162 317 23 27 41 35 103
48 99 20 105 19 118 -10 14 -31 25 -31 52 -3 26 29 26 63 -2 82 -27 19 -125
19 -211 1z"/>
<path d="M6110 11420 c-25 -5 -77 -9 -117 -9 -71 -1 -71 -1 -111 -46 -48 -55
-82 -144 -116 -302 l-24 -112 37 -3 36 -3 43 130 c24 72 45 150 47 175 2 30 9
49 22 56 10 7 91 20 180 30 173 18 193 15 193 -27 0 -25 30 -24 64 2 32 25 35
68 5 95 -17 16 -38 19 -118 21 -53 1 -116 -2 -141 -7z"/>
<path d="M9553 11408 c-6 -7 -13 -32 -17 -54 -3 -23 -20 -80 -37 -127 l-31
-86 -38 32 c-49 42 -119 66 -208 74 -118 10 -196 -34 -222 -125 -23 -84 -3
-125 81 -167 70 -36 146 -41 249 -17 185 44 190 47 190 111 0 19 23 94 50 167
52 137 59 171 38 192 -16 16 -43 15 -55 0z m-272 -248 c73 -21 133 -78 122
-118 -3 -15 -21 -17 -128 -17 -110 0 -127 2 -152 21 -40 30 -43 75 -7 103 30
23 102 28 165 11z"/>
<path d="M13768 11404 c-12 -12 -9 -49 4 -62 15 -15 167 -16 258 -2 83 13 170
38 170 49 0 4 -33 8 -72 8 -40 0 -136 3 -213 8 -77 4 -143 4 -147 -1z"/>
<path d="M4016 10489 c-82 -97 -182 -416 -212 -676 -23 -200 -4 -305 61 -335
20 -9 29 -8 45 7 26 23 25 35 -2 35 -12 0 -18 3 -14 8 4 4 470 9 1034 12
l1027 5 0 25 c0 25 0 25 -112 28 l-112 3 41 60 c22 33 59 106 83 162 111 257
91 512 -45 582 -28 14 -70 4 -70 -17 1 -7 15 -22 32 -33 80 -50 102 -175 66
-365 -14 -75 -81 -241 -130 -322 l-40 -67 -881 -3 c-485 -2 -889 -7 -898 -11
-45 -22 -23 271 36 483 33 120 90 282 115 332 7 12 24 35 37 50 31 32 27 62
-8 66 -19 2 -33 -5 -53 -29z"/>
<path d="M4310 10210 c-83 -20 -112 -44 -130 -108 -63 -230 -100 -376 -100
-395 0 -14 7 -30 15 -37 19 -16 62 -5 68 18 3 9 17 62 32 117 14 55 35 129 47
164 11 35 18 73 16 86 -11 56 70 87 235 90 72 1 102 6 113 17 13 13 11 18 -24
41 -34 24 -47 27 -118 26 -43 0 -113 -9 -154 -19z"/>
<path d="M9513 10220 c-18 -4 -57 -20 -88 -34 -76 -38 -77 -44 -28 -209 6 -21
60 -47 97 -47 34 0 24 -30 -30 -85 -58 -61 -87 -67 -124 -26 -33 35 -42 37
-64 15 -24 -23 -20 -42 16 -75 35 -31 83 -45 119 -34 59 19 169 154 169 207 0
39 -32 68 -74 68 -40 0 -43 3 -52 57 -6 39 -5 40 38 60 24 12 83 26 131 32
101 12 113 17 96 38 -33 39 -121 54 -206 33z"/>
<path d="M10587 10188 c-8 -13 -25 -49 -38 -81 -17 -43 -34 -66 -66 -90 -24
-18 -53 -39 -65 -48 -49 -36 19 -69 70 -33 22 15 22 15 22 -55 0 -50 4 -71 13
-71 34 1 52 34 62 114 6 54 33 145 66 223 10 26 10 34 0 47 -19 23 -48 20 -64
-6z"/>
<path d="M5564 10148 c-21 -29 -70 -79 -109 -111 -71 -59 -86 -86 -65 -113 19
-22 36 -17 69 19 34 36 38 29 17 -31 -22 -60 -30 -146 -17 -171 13 -23 45 -28
58 -8 4 6 8 37 9 67 2 60 45 187 94 281 32 61 37 88 18 107 -21 21 -34 14 -74
-40z"/>
<path d="M4915 10090 c-10 -11 -20 -42 -23 -71 l-5 -52 -79 6 c-84 6 -108 -4
-108 -43 0 -35 34 -47 114 -42 l74 4 4 -66 c4 -67 22 -100 58 -108 12 -2 14
12 11 90 l-3 92 44 0 c24 0 53 7 64 15 19 15 19 15 0 30 -11 8 -40 15 -64 15
-41 0 -44 2 -39 23 17 68 19 98 7 112 -17 20 -33 19 -55 -5z"/>
<path d="M10042 10094 c-20 -14 -22 -21 -16 -83 l7 -68 -98 -9 c-76 -7 -100
-13 -109 -26 -8 -13 -8 -23 0 -35 13 -20 62 -22 147 -8 l48 8 -7 -55 c-6 -52
5 -98 24 -98 9 0 42 111 42 140 0 16 6 20 35 20 42 0 98 26 92 43 -2 7 -28 13
-62 15 l-58 3 7 69 c5 55 3 72 -10 84 -19 19 -15 19 -42 0z"/>
<path d="M1352 10038 c-7 -7 -12 -33 -12 -58 0 -86 -71 -410 -90 -410 -3 0
-14 14 -25 31 -52 78 -162 95 -290 44 -126 -50 -188 -103 -201 -170 -19 -104
116 -132 341 -71 187 51 189 52 208 82 36 59 137 437 137 512 0 31 -16 52 -40
52 -9 0 -21 -5 -28 -12z m-207 -448 c17 -14 58 -101 51 -108 -15 -15 -366 -37
-385 -24 -34 24 42 91 146 128 71 26 159 28 188 4z"/>
<path d="M2974 9996 c-78 -13 -142 -48 -149 -81 -18 -95 -48 -275 -56 -340 -5
-44 -23 -144 -40 -222 -34 -154 -32 -173 17 -173 30 0 38 18 59 130 8 47 20
111 27 143 l11 57 86 0 c90 0 177 27 169 52 -5 13 -26 16 -150 24 -97 7 -97 7
-78 74 6 19 13 73 16 120 3 55 10 90 19 99 18 18 114 32 252 36 57 2 107 6
112 9 16 11 19 45 4 65 -13 19 -24 21 -121 20 -59 -1 -139 -6 -178 -13z"/>
<path d="M12943 9860 c-56 -42 -87 -113 -88 -206 0 -62 4 -76 28 -112 33 -47
72 -68 144 -77 101 -14 173 37 173 121 0 58 -13 82 -55 100 -55 23 -126 18
-169 -11 -45 -31 -46 -31 -46 0 0 34 34 100 62 119 25 18 58 21 58 6 0 -14 43
-13 58 2 18 18 15 53 -6 71 -12 11 -36 17 -68 17 -40 0 -58 -6 -91 -30z m164
-236 c26 -7 35 -47 16 -74 -10 -15 -25 -20 -56 -20 -57 0 -89 10 -83 25 2 7 0
17 -6 23 -8 8 -1 17 23 31 34 21 66 26 106 15z"/>
<path d="M13805 9866 c-71 -32 -128 -133 -129 -228 -1 -49 3 -61 28 -87 32
-34 108 -56 161 -48 18 3 52 18 76 33 38 24 55 28 124 28 95 2 140 21 201 88
l40 44 30 -19 c42 -26 111 -18 175 22 28 17 52 31 55 31 2 0 7 -18 10 -39 8
-48 38 -101 58 -101 13 0 14 19 9 123 -3 67 -10 128 -16 135 -21 26 -54 13
-90 -36 -34 -48 -86 -82 -125 -82 -28 0 -32 10 -22 55 9 41 1 69 -25 79 -26
10 -41 -3 -66 -56 -35 -75 -114 -154 -167 -168 -61 -16 -86 -10 -90 20 -5 32
-20 50 -43 50 -24 0 -52 -29 -45 -47 22 -58 -109 -118 -177 -82 -40 21 -45 44
-26 112 18 65 109 147 109 98 0 -40 51 -56 70 -22 16 31 12 51 -19 82 -32 32
-60 36 -106 15z"/>
<path d="M12222 9838 c-7 -7 -12 -20 -12 -29 0 -34 24 -40 127 -33 72 5 106 3
123 -6 l23 -12 -24 -14 c-13 -8 -55 -23 -94 -35 -83 -26 -95 -34 -95 -64 0
-35 17 -42 115 -48 89 -5 147 -19 129 -29 -26 -15 -92 -30 -165 -37 -123 -13
-151 -58 -42 -68 95 -9 266 40 285 82 20 45 -30 86 -137 110 -30 7 -30 7 -5
17 45 17 90 58 90 82 0 12 -13 35 -29 50 -26 25 -40 29 -127 36 -132 12 -148
12 -162 -2z"/>
<path d="M11313 9764 c-20 -9 -16 -62 5 -68 24 -7 411 0 419 8 13 12 -8 19
-119 37 -122 20 -285 32 -305 23z"/>
<path d="M1855 9727 c-20 -11 -19 -51 1 -68 17 -14 68 -14 154 1 30 5 102 17
160 26 138 21 140 22 115 40 -16 12 -57 14 -218 12 -109 -2 -205 -7 -212 -11z"/>
<path d="M10525 9703 c-69 -9 -272 -15 -652 -19 -451 -5 -555 -9 -564 -20 -9
-11 -8 -18 1 -29 26 -32 1018 -14 1316 23 46 5 60 11 62 26 5 21 -14 36 -43
34 -11 0 -65 -7 -120 -15z"/>
<path d="M6598 9669 c-25 -14 -24 -65 1 -79 11 -6 89 -10 180 -10 154 0 261
12 261 30 0 12 -90 30 -205 40 -55 5 -116 14 -135 20 -44 13 -80 12 -102 -1z"/>
<path d="M7586 9614 c-37 -37 -5 -69 65 -66 27 1 49 0 49 -2 0 -2 -26 -19 -57
-36 -32 -18 -66 -39 -75 -48 -25 -21 -24 -78 1 -92 11 -5 75 -10 143 -10 l123
0 -32 -21 c-36 -23 -135 -59 -178 -65 -87 -12 -106 -18 -115 -35 -8 -14 -6
-23 10 -39 25 -25 30 -25 136 6 114 32 181 63 227 104 67 59 39 109 -63 111
-30 1 -80 4 -110 8 l-55 6 91 48 c103 54 129 76 120 105 -10 31 -51 42 -161
42 -81 0 -107 -3 -119 -16z"/>
<path d="M8257 9620 c-43 -13 -97 -59 -97 -81 0 -10 -14 -32 -32 -48 -25 -22
-33 -39 -38 -82 -16 -119 38 -169 181 -169 102 0 170 33 213 104 42 67 47 147
14 196 -13 19 -42 45 -64 57 -45 25 -135 37 -177 23z m141 -79 c50 -25 66 -60
52 -111 -14 -52 -53 -96 -96 -110 -44 -15 -156 -9 -178 9 -19 16 -22 91 -5
108 6 6 14 26 18 44 14 68 129 101 209 60z"/>
<path d="M11386 9595 c-38 -38 10 -64 132 -72 84 -5 227 10 237 26 5 9 -93 27
-220 41 -49 5 -99 12 -111 16 -13 3 -27 -1 -38 -11z"/>
<path d="M1882 9558 c-16 -16 -15 -33 2 -51 12 -11 36 -14 108 -10 130 5 288
24 288 33 0 9 -148 26 -290 35 -68 4 -99 2 -108 -7z"/>
<path d="M8652 9484 c-24 -16 -28 -44 -12 -75 12 -22 68 -27 88 -7 20 20 15
76 -7 88 -27 14 -43 13 -69 -6z"/>
<path d="M6663 9484 c-7 -3 -13 -17 -13 -30 0 -38 37 -47 170 -39 109 6 270
39 270 56 0 4 -33 6 -72 6 -40 -1 -134 1 -208 5 -74 4 -141 5 -147 2z"/>
<path d="M9766 9421 c-49 -10 -78 -43 -70 -80 23 -102 54 -136 117 -126 21 4
59 4 84 0 45 -7 45 -7 40 -43 -9 -53 -104 -142 -152 -142 -36 0 -43 11 -50 74
-1 11 -3 24 -4 28 -2 14 -42 19 -56 8 -21 -18 -18 -59 8 -110 42 -85 125 -84
220 1 61 55 97 117 97 171 0 51 -27 71 -103 75 -84 5 -107 11 -107 27 0 19 19
25 125 42 108 16 165 32 165 44 0 27 -226 49 -314 31z"/>
<path d="M4732 9358 c-12 -6 -36 -39 -53 -72 -17 -34 -39 -70 -49 -81 -25 -28
-171 -362 -177 -405 -4 -25 0 -40 10 -49 37 -30 53 -6 127 180 64 162 153 332
184 351 6 4 50 8 97 8 83 0 86 -1 107 -30 12 -16 22 -34 22 -40 0 -22 29 -8
49 24 30 47 27 80 -8 105 -26 19 -43 21 -158 20 -70 0 -138 -5 -151 -11z"/>
<path d="M1244 8280 c-52 -21 -85 -98 -104 -243 -6 -45 -18 -123 -27 -173
l-17 -92 -58 -6 c-74 -7 -100 -21 -96 -49 3 -20 10 -22 67 -25 36 -1 67 -4 69
-7 2 -2 -10 -64 -28 -137 -38 -158 -42 -215 -18 -231 13 -9 20 -9 29 0 6 6 30
92 53 192 24 99 45 183 47 186 3 2 39 11 80 19 79 15 159 43 159 56 0 4 -52 6
-115 5 -63 -1 -115 2 -115 6 0 4 6 38 14 76 8 37 17 95 20 128 11 99 37 204
56 228 30 36 44 9 49 -88 3 -81 4 -85 26 -85 29 0 35 17 35 88 0 72 -29 138
-65 152 -30 12 -33 12 -61 0z"/>
<path d="M3813 8248 c-5 -7 -15 -53 -22 -103 -7 -49 -27 -142 -45 -205 -19
-63 -37 -130 -41 -148 l-7 -33 -43 40 c-51 47 -95 61 -190 61 -86 0 -154 -29
-205 -86 -78 -87 -104 -158 -76 -212 37 -71 109 -80 258 -33 139 44 178 54
228 55 l45 1 27 85 c116 371 154 533 132 568 -14 21 -48 27 -61 10z m-292
-468 c43 -8 61 -17 87 -47 21 -24 32 -47 32 -67 0 -31 0 -31 -68 -32 -37 -1
-99 -11 -138 -23 -107 -32 -157 -37 -174 -17 -39 47 102 195 186 196 12 0 46
-4 75 -10z"/>
<path d="M10734 8230 c-54 -21 -133 -153 -154 -256 -21 -101 28 -184 108 -184
42 0 111 29 161 67 27 21 37 24 50 15 65 -47 116 -36 253 53 78 52 100 62 105
50 3 -9 18 -22 34 -30 55 -29 123 -13 204 49 l50 39 6 -67 c6 -67 26 -105 48
-92 6 4 11 17 11 30 0 12 7 64 16 116 12 69 13 99 5 116 -14 32 -46 30 -68 -3
-23 -36 -45 -56 -118 -104 -74 -50 -118 -51 -123 -5 -2 17 7 52 19 79 18 37
20 52 12 65 -25 41 -73 17 -94 -47 -14 -43 -46 -80 -117 -133 -61 -45 -127
-77 -159 -78 -21 0 -22 4 -20 53 2 50 1 52 -25 55 -22 3 -29 -3 -43 -32 -30
-62 -162 -144 -211 -132 -69 18 -50 154 38 279 25 35 53 37 44 3 -7 -28 18
-60 41 -52 8 3 17 6 19 6 2 0 4 26 4 58 0 81 -32 108 -96 82z"/>
<path d="M9224 8206 c-65 -29 -84 -105 -41 -159 l22 -28 -87 -89 c-94 -95
-105 -121 -72 -169 15 -22 22 -23 75 -18 113 12 199 65 220 137 10 34 5 61
-25 130 -4 10 10 32 39 62 55 58 66 95 35 123 -27 24 -122 31 -166 11z m116
-54 c0 -4 -18 -26 -41 -47 l-40 -40 -20 24 c-23 29 -21 42 12 58 27 14 89 17
89 5z m-60 -235 c0 -34 -37 -72 -89 -91 -92 -33 -94 -19 -11 67 67 71 76 76
87 61 7 -10 13 -26 13 -37z"/>
<path d="M3095 8188 c-174 -21 -271 -40 -307 -60 -60 -34 -85 -107 -118 -333
-7 -44 -18 -116 -26 -161 -18 -102 -18 -129 1 -144 23 -19 52 -2 70 42 27 69
85 319 85 369 0 30 -6 53 -16 63 -13 14 -14 22 -4 52 16 46 63 68 185 83 50 7
120 16 157 21 37 6 81 10 98 10 27 0 30 -3 25 -20 -10 -30 17 -34 59 -10 28
17 36 28 36 51 0 22 -6 32 -26 39 -29 12 -118 11 -219 -2z"/>
<path d="M8707 8130 c-49 -27 -97 -52 -108 -55 -24 -8 -35 -50 -19 -70 21 -25
56 -17 109 25 28 22 51 36 51 31 0 -11 -59 -152 -70 -166 -4 -5 -19 -45 -33
-87 -22 -66 -23 -79 -12 -95 22 -29 47 -5 76 73 15 38 54 129 88 203 64 140
69 159 49 179 -20 20 -39 14 -131 -38z"/>
<path d="M9655 8126 c-16 -8 -38 -22 -47 -32 -9 -11 -23 -24 -31 -31 -43 -35
-80 -215 -55 -262 31 -58 154 -85 252 -57 68 20 149 88 177 151 22 48 24 133
5 179 -21 49 -65 66 -178 66 -56 -1 -105 -6 -123 -14z m199 -65 c59 -12 55
-120 -5 -181 -46 -46 -88 -64 -149 -64 -76 -1 -109 10 -116 38 -9 37 25 137
57 167 16 15 29 32 29 38 0 12 132 14 184 2z"/>
<path d="M6862 8095 c-65 -54 -128 -192 -147 -316 -10 -70 20 -133 77 -159 54
-25 101 -25 155 -1 48 22 74 64 75 122 1 90 -97 153 -186 119 -20 -7 -26 -6
-26 4 0 30 67 143 108 182 38 37 43 46 32 59 -18 22 -55 18 -88 -10z m76 -311
c29 -20 28 -59 -3 -89 -40 -40 -116 -31 -141 17 -17 33 -13 43 30 69 38 23 84
24 114 3z"/>
<path d="M6281 8071 c-24 -24 -25 -34 -11 -62 11 -20 45 -26 55 -9 8 13 102
13 110 0 9 -14 -56 -75 -105 -100 -69 -35 -61 -59 37 -110 37 -19 68 -39 67
-45 -3 -29 -174 -75 -174 -46 0 16 -15 14 -41 -8 -23 -18 -23 -19 -5 -46 18
-27 21 -27 82 -22 80 8 171 44 197 78 28 39 9 91 -46 127 -23 14 -44 27 -46
29 -2 1 17 22 43 45 103 95 71 175 -73 186 -60 4 -71 2 -90 -17z"/>
<path d="M5485 8070 c-16 -4 -51 -8 -77 -9 -34 -1 -54 -7 -68 -21 -11 -11 -25
-20 -30 -20 -12 0 -22 -24 -39 -86 -6 -23 -25 -58 -41 -79 -27 -35 -29 -40
-16 -59 14 -22 34 -24 111 -11 31 5 47 1 73 -15 29 -18 33 -25 30 -57 -4 -52
-41 -76 -122 -81 -58 -4 -65 -2 -76 18 -11 21 -12 21 -31 4 -23 -21 -24 -37
-3 -69 21 -32 55 -38 143 -25 81 11 118 32 150 84 54 87 -3 190 -123 220 l-42
11 18 43 c14 30 25 42 40 42 11 0 51 9 87 19 36 11 111 25 166 31 107 11 126
20 109 48 -9 14 -29 17 -120 18 -60 1 -122 -2 -139 -6z"/>
<path d="M7631 8012 c-13 -25 -5 -49 20 -62 24 -13 186 -13 329 1 178 17 171
21 -75 48 -104 11 -206 24 -227 27 -30 5 -38 2 -47 -14z"/>
<path d="M5860 7840 c-11 -11 -20 -24 -20 -30 0 -13 37 -50 51 -50 29 0 49 22
49 54 0 49 -43 63 -80 26z"/>
<path d="M4256 7825 c-18 -18 -20 -42 -6 -65 11 -17 87 -27 294 -36 219 -10
173 19 -134 85 -52 12 -104 23 -116 27 -13 3 -27 -1 -38 -11z"/>
<path d="M7654 7820 c-41 -7 -47 -46 -8 -56 29 -7 349 2 402 12 46 9 40 21
-15 29 -65 10 -343 21 -379 15z"/>
<path d="M1793 7779 c-17 -17 -17 -54 0 -67 24 -21 94 -24 223 -12 127 12 174
22 174 37 0 5 -73 16 -162 26 -90 9 -176 19 -193 23 -18 3 -35 0 -42 -7z"/>
<path d="M4263 7684 c-7 -3 -13 -16 -13 -29 0 -34 17 -43 107 -50 87 -8 283
10 283 26 0 5 -3 9 -7 9 -5 0 -66 9 -138 20 -165 26 -217 31 -232 24z"/>
<path d="M1848 7593 c-61 -7 -77 -52 -26 -72 21 -8 211 15 307 37 49 11 51 30
4 30 -21 0 -85 2 -143 5 -58 3 -122 3 -142 0z"/>
<path d="M1474 6508 c-12 -5 -30 -28 -40 -50 -14 -31 -32 -47 -88 -79 -45 -25
-84 -39 -107 -39 -37 0 -69 -24 -69 -52 0 -19 32 -48 54 -48 20 0 94 36 119
58 9 8 17 13 17 11 0 -3 -22 -63 -50 -134 -54 -139 -61 -179 -33 -173 26 5 64
70 128 222 51 119 85 183 130 243 7 9 6 19 -1 31 -14 21 -32 24 -60 10z"/>
<path d="M5241 6478 c-11 -11 -30 -49 -41 -84 -20 -59 -72 -124 -100 -124 -5
0 -14 -9 -20 -20 -15 -28 4 -60 35 -60 29 0 31 -11 14 -109 -7 -36 -23 -83
-35 -103 -13 -21 -24 -40 -24 -43 0 -4 14 -5 32 -3 42 4 70 45 92 135 40 163
78 288 95 312 29 42 35 80 15 102 -22 25 -39 24 -63 -3z"/>
<path d="M7829 6458 c-30 -62 -124 -182 -153 -198 -28 -14 -38 -33 -30 -55 8
-20 42 -29 59 -15 19 16 19 19 -10 -74 -27 -84 -25 -116 4 -116 27 0 35 15 71
130 17 58 57 156 87 218 30 62 53 120 51 130 -2 10 -14 18 -30 20 -23 3 -30
-3 -49 -40z"/>
<path d="M13402 6468 c-34 -45 -114 -117 -168 -153 -62 -41 -70 -54 -54 -84
17 -33 61 -28 89 10 34 46 35 30 2 -43 -56 -126 -61 -228 -12 -228 26 0 37 22
46 90 5 39 32 102 92 223 82 162 85 169 68 188 -24 25 -41 24 -63 -3z"/>
<path d="M10925 6423 c-27 -32 -80 -85 -117 -118 -76 -66 -86 -97 -34 -103 22
-3 35 4 58 30 19 22 27 26 22 13 -36 -99 -45 -132 -42 -159 2 -25 7 -31 27
-31 22 0 26 7 41 65 9 36 45 124 81 197 47 94 63 136 57 147 -16 29 -42 17
-93 -41z"/>
<path d="M9645 5980 c-15 -17 -16 -24 -7 -45 11 -23 16 -25 84 -25 97 1 365
18 406 26 17 4 32 10 32 14 0 13 -48 19 -230 30 -96 5 -196 12 -221 15 -37 4
-49 2 -64 -15z"/>
<path d="M3677 5962 c-20 -22 -22 -57 -4 -69 6 -4 86 -8 177 -8 91 0 177 -4
193 -9 24 -7 27 -6 27 13 0 42 -109 75 -281 85 -85 6 -98 4 -112 -12z"/>
<path d="M11285 5960 c-44 -5 -210 -13 -370 -19 -318 -13 -330 -15 -307 -67
11 -23 17 -25 50 -21 74 9 260 26 412 37 247 19 390 43 369 64 -10 11 -81 13
-154 6z"/>
<path d="M11938 5959 c-27 -15 -23 -65 6 -84 19 -13 29 -13 52 -4 16 6 102 14
191 17 142 4 165 7 179 23 16 18 16 20 -1 39 -17 19 -31 20 -214 20 -114 0
-203 -5 -213 -11z"/>
<path d="M6237 5923 c-22 -25 -22 -46 1 -65 14 -12 39 -13 152 -7 74 4 201 8
282 8 84 1 149 5 153 11 3 5 -8 18 -25 28 -26 16 -62 20 -261 26 -128 4 -243
9 -258 12 -18 4 -32 0 -44 -13z"/>
<path d="M8860 5929 c-293 -13 -1037 -29 -1356 -29 -256 0 -303 -2 -314 -15
-10 -12 -10 -18 1 -31 12 -14 56 -15 428 -10 465 6 1184 23 1421 34 155 7 155
7 155 32 0 24 -2 25 -80 26 -44 1 -159 -2 -255 -7z"/>
<path d="M4903 5902 c-18 -19 -16 -46 5 -64 15 -13 50 -14 272 -7 380 12 642
31 670 49 13 9 13 11 0 20 -21 14 -33 14 -509 14 -339 1 -427 -2 -438 -12z"/>
<path d="M894 5901 c-9 -9 -3 -50 9 -58 6 -4 437 -6 957 -5 645 2 962 0 1000
-8 58 -11 87 1 75 31 -13 34 -127 39 -1093 42 -519 1 -945 1 -948 -2z"/>
<path d="M13466 5893 c-4 -4 -141 -8 -304 -8 -297 0 -297 0 -300 -23 -7 -46
11 -52 147 -51 69 0 241 6 381 13 140 7 383 13 540 14 228 2 288 6 299 17 12
11 12 17 1 29 -11 14 -61 16 -385 16 -204 0 -375 -3 -379 -7z"/>
<path d="M9775 5861 c-88 -6 -90 -7 -90 -31 0 -24 2 -25 85 -28 91 -3 303 35
298 52 -4 12 -167 15 -293 7z"/>
<path d="M5244 5780 c-112 -16 -164 -52 -164 -111 0 -16 -4 -48 -9 -71 -23
-100 -52 -321 -47 -343 7 -27 41 -42 60 -26 13 11 21 35 47 147 l12 52 91 11
c50 5 121 13 157 16 72 6 159 31 159 46 0 5 -12 9 -27 8 -16 0 -55 4 -88 10
-33 7 -109 11 -168 10 -136 -3 -146 3 -128 85 12 53 13 55 59 70 69 21 111 27
217 27 52 1 95 4 95 8 0 3 -7 16 -15 28 -28 40 -122 52 -251 33z"/>
<path d="M3763 5753 c-77 -4 -99 -18 -88 -52 10 -32 39 -34 195 -12 80 12 164
23 188 27 23 3 42 9 42 14 0 14 -223 29 -337 23z"/>
<path d="M2526 5711 c-13 -24 -36 -196 -36 -263 0 -14 -8 -18 -34 -18 -47 0
-83 -15 -96 -40 -26 -48 20 -82 81 -61 18 6 34 9 36 8 2 -2 -6 -67 -18 -143
-22 -150 -40 -287 -43 -319 -1 -13 6 -21 20 -23 31 -4 64 41 64 88 0 20 7 77
15 126 8 49 21 132 28 184 l13 95 99 6 c107 6 175 23 175 43 0 16 -107 36
-195 36 l-67 0 7 74 c4 41 11 89 15 108 7 29 8 26 9 -24 1 -46 5 -59 21 -68
52 -28 75 32 48 122 -27 90 -111 131 -142 69z"/>
<path d="M13031 5720 c-18 -4 -42 -17 -53 -28 -18 -18 -19 -24 -8 -56 9 -28
17 -36 36 -36 13 0 24 6 24 13 0 8 11 19 25 25 29 13 125 16 125 5 0 -22 -51
-86 -98 -124 -95 -77 -77 -129 44 -129 77 0 94 -19 51 -56 -35 -30 -87 -44
-165 -44 -74 0 -92 -19 -51 -53 21 -17 35 -19 100 -14 129 9 214 65 211 141
-2 54 -26 83 -82 97 l-49 13 34 33 c70 68 93 149 56 194 -16 20 -29 24 -92 26
-41 1 -89 -2 -108 -7z"/>
<path d="M1072 5699 c-42 -28 -70 -83 -122 -246 -42 -133 -42 -133 -75 -133
-83 0 -129 -45 -88 -85 12 -13 26 -15 55 -11 45 7 45 11 19 -115 -11 -52 -21
-128 -23 -169 -3 -66 -1 -75 16 -78 10 -2 22 0 26 5 5 4 14 53 20 108 6 55 20
139 31 186 l20 86 109 6 c104 6 180 25 180 45 0 9 -161 32 -224 32 -20 0 -36
4 -36 9 0 5 20 67 44 136 40 114 74 175 98 175 16 0 8 -47 -12 -73 -29 -37
-26 -57 10 -57 50 0 70 30 70 104 0 56 -3 67 -22 80 -30 21 -57 20 -96 -5z"/>
<path d="M7471 5698 c-9 -26 -51 -189 -58 -230 -7 -35 -14 -35 -41 2 -25 34
-88 55 -134 44 -40 -8 -123 -91 -148 -147 -25 -55 -25 -92 1 -118 19 -19 29
-21 88 -16 93 9 225 33 250 46 16 9 19 18 15 39 -6 28 15 127 42 195 31 82 52
173 42 190 -13 24 -47 21 -57 -5z m-142 -277 c10 -14 21 -43 25 -63 l7 -38
-64 0 c-35 0 -85 -3 -111 -6 -41 -6 -46 -5 -46 13 0 24 74 112 103 122 32 12
66 1 86 -28z"/>
<path d="M10660 5709 c-49 -9 -93 -49 -84 -74 8 -19 41 -19 60 -1 15 15 119
30 169 24 41 -4 45 -33 6 -52 -16 -9 -41 -16 -54 -16 -29 0 -50 -22 -45 -47 3
-15 18 -19 83 -25 82 -8 155 -29 174 -52 8 -9 5 -18 -12 -34 -25 -23 -136 -62
-180 -62 -43 0 -98 -26 -91 -43 11 -30 87 -28 202 6 103 31 142 65 142 124 0
27 -7 38 -42 63 -23 17 -58 35 -78 41 -37 11 -38 12 -22 38 21 37 9 77 -31
101 -35 22 -114 25 -197 9z"/>
<path d="M13553 5698 c-33 -36 -121 -214 -132 -269 -20 -91 -15 -143 17 -177
51 -55 138 -66 198 -26 53 36 64 53 61 93 -4 55 -41 76 -137 76 -79 0 -79 0
-73 25 8 33 51 120 96 195 42 69 42 68 21 89 -20 21 -27 20 -51 -6z m82 -379
c18 -18 -30 -52 -71 -51 -41 2 -88 27 -78 43 17 28 122 33 149 8z"/>
<path d="M8934 5688 c-18 -8 -22 -19 -22 -57 0 -41 -25 -139 -54 -213 l-10
-27 -32 42 c-60 78 -133 109 -169 69 -27 -29 -37 -69 -39 -154 -2 -79 -1 -81
30 -109 46 -42 105 -55 156 -35 23 9 49 16 58 16 10 0 23 10 29 23 7 12 19 28
28 34 14 11 14 14 1 22 -13 9 -8 30 33 153 59 175 65 209 42 231 -19 19 -22
20 -51 5z m-198 -263 c27 -27 63 -99 64 -127 0 -23 -53 -33 -91 -18 -28 12
-29 15 -29 75 0 100 12 114 56 70z"/>
<path d="M14393 5661 c-45 -21 -66 -50 -61 -84 5 -34 43 -35 60 -1 22 46 88
49 88 5 0 -21 -29 -49 -87 -85 -41 -25 -56 -57 -34 -70 5 -4 46 -13 92 -21 90
-15 121 -34 103 -63 -14 -22 -175 -56 -186 -39 -5 8 -14 8 -32 -1 -32 -15 -35
-56 -5 -72 24 -13 194 12 245 36 89 42 59 156 -50 190 l-54 17 34 34 c27 27
34 42 34 73 0 79 -69 117 -147 81z"/>
<path d="M1988 5648 c-9 -7 -29 -44 -44 -83 -15 -38 -45 -106 -67 -150 -22
-44 -46 -97 -53 -119 -8 -22 -23 -46 -34 -53 -23 -16 -26 -46 -7 -60 6 -6 66
-13 132 -16 67 -3 139 -11 162 -17 36 -11 46 -11 68 4 30 20 31 39 4 108 -41
102 -70 214 -76 287 -8 96 -40 134 -85 99z m68 -380 c5 -16 -2 -18 -72 -18
l-77 0 5 38 c3 20 20 73 39 117 l33 79 33 -99 c18 -54 35 -107 39 -117z"/>
<path d="M13988 5629 c-9 -5 -19 -28 -23 -52 -15 -104 -11 -98 -64 -91 -55 7
-91 -7 -91 -36 0 -27 36 -43 82 -37 l39 5 -6 -43 c-4 -25 -2 -51 4 -64 13 -23
41 -29 41 -8 0 7 7 36 15 63 l15 50 90 11 c134 15 137 29 10 45 l-82 11 7 31
c18 84 18 104 -2 114 -11 6 -25 7 -35 1z"/>
<path d="M11160 5592 c-49 -24 -47 -48 5 -44 97 8 243 4 263 -7 34 -18 37 -48
7 -92 -34 -53 -82 -73 -150 -64 -68 9 -113 44 -117 92 -3 42 -32 68 -48 43 -5
-8 -10 -32 -10 -53 0 -81 78 -137 190 -137 86 0 139 26 179 89 55 86 34 158
-53 180 -72 18 -225 14 -266 -7z"/>
<path d="M8293 5582 c-6 -4 -17 -19 -23 -32 -6 -14 -29 -56 -50 -95 -63 -111
-100 -189 -100 -207 0 -15 12 -16 113 -12 233 11 286 29 272 93 -4 17 -26 55
-51 85 -24 30 -55 75 -69 102 -40 74 -58 88 -92 66z m76 -174 l61 -77 -38 -10
c-65 -16 -172 -24 -172 -12 0 13 81 183 85 179 2 -2 30 -38 64 -80z"/>
<path d="M7852 5557 c-6 -7 -12 -33 -14 -57 l-3 -45 -69 -5 c-76 -6 -101 -24
-80 -57 9 -14 24 -18 70 -16 l59 1 0 -61 c0 -47 4 -62 15 -64 11 -3 20 14 33
56 9 33 17 67 17 76 0 10 10 15 34 15 45 0 89 17 84 33 -3 6 -25 17 -49 22
-44 10 -44 10 -35 47 7 27 6 41 -4 52 -15 19 -44 21 -58 3z"/>
<path d="M1463 5374 c-14 -22 -14 -26 1 -49 9 -14 23 -25 31 -25 33 0 255 61
255 70 0 14 -100 30 -183 29 -81 -2 -90 -4 -104 -25z"/>
<path d="M6039 4244 c-44 -46 -121 -104 -173 -129 -32 -15 -41 -26 -41 -45 0
-52 72 -32 153 42 24 22 45 38 47 36 2 -2 -14 -57 -36 -123 -39 -116 -61 -226
-51 -253 2 -7 14 -12 26 -10 15 2 24 15 34 48 12 41 37 116 108 324 27 76 30
116 12 134 -20 20 -43 14 -79 -24z"/>
<path d="M10452 4059 c-152 -25 -284 -144 -238 -214 32 -48 106 -24 106 33 0
42 82 94 152 96 l53 1 -3 -35 c-5 -63 -69 -142 -172 -212 -72 -49 -84 -72 -54
-102 10 -11 34 -16 67 -16 69 0 124 -16 137 -40 9 -16 5 -22 -21 -35 -38 -20
-151 -24 -173 -6 -20 17 -53 5 -62 -21 -4 -14 1 -28 20 -46 24 -25 32 -26 119
-26 103 1 152 17 186 60 23 30 27 77 8 111 -17 30 -73 70 -109 78 l-30 7 59
58 c73 73 107 137 107 207 1 43 -3 57 -24 77 -31 30 -61 35 -128 25z"/>
<path d="M11120 4021 c-73 -23 -173 -113 -185 -168 -4 -15 -16 -50 -28 -78
-28 -67 -30 -198 -4 -238 28 -43 62 -59 135 -64 101 -8 147 9 209 73 86 91
130 212 112 309 -22 121 -133 198 -239 166z m119 -97 c36 -30 56 -91 46 -143
-18 -98 -101 -212 -165 -225 -44 -8 -127 3 -141 20 -28 34 -9 139 36 199 35
45 44 78 25 90 -15 9 -3 24 48 56 59 37 109 39 151 3z"/>
<path d="M9884 3960 c-51 -39 -170 -122 -197 -137 -12 -7 -34 -13 -48 -13 -49
0 -80 -70 -44 -100 36 -30 86 -12 178 63 26 21 47 34 47 28 0 -6 -15 -42 -34
-79 -38 -77 -96 -240 -96 -272 0 -40 18 -60 55 -60 45 0 66 32 39 61 -16 18
-15 23 11 96 15 43 63 145 106 226 44 82 79 157 79 167 0 17 -34 50 -51 50 -3
0 -24 -13 -45 -30z"/>
<path d="M3490 3879 c-35 -14 -69 -48 -90 -89 -26 -50 -67 -193 -81 -282 -9
-53 -17 -78 -26 -78 -8 0 -27 -7 -43 -15 -24 -13 -30 -22 -30 -50 0 -36 21
-51 55 -39 15 6 17 2 12 -32 -3 -21 -11 -103 -18 -182 -12 -141 -12 -143 9
-164 20 -21 22 -21 40 -5 15 14 20 37 25 120 4 56 12 143 19 193 l12 91 104 7
c92 6 137 12 230 32 38 8 24 25 -20 23 -41 -1 -290 21 -296 26 -7 7 29 166 53
235 42 117 113 178 102 88 -3 -24 -7 -54 -9 -68 -4 -34 34 -40 56 -8 24 34 22
159 -2 181 -24 22 -71 29 -102 16z"/>
<path d="M11869 3862 c-140 -90 -235 -304 -171 -391 25 -35 98 -71 142 -71 50
0 130 25 173 54 34 23 39 24 64 11 16 -8 44 -15 63 -15 43 0 148 48 217 100
51 39 51 39 57 14 21 -81 101 -84 204 -7 l32 24 0 -29 c0 -57 64 -69 76 -14 3
15 17 64 31 109 26 80 26 83 8 103 -10 11 -24 20 -31 20 -7 0 -46 -33 -86 -74
-40 -40 -92 -83 -115 -95 -42 -21 -43 -21 -43 -2 0 11 14 58 30 104 34 97 36
110 15 127 -25 21 -54 1 -84 -59 -37 -72 -134 -164 -216 -202 -75 -36 -105
-38 -105 -6 0 37 -28 69 -58 65 -20 -2 -32 -13 -44 -40 -24 -50 -75 -86 -141
-100 -48 -10 -61 -10 -91 5 -46 21 -52 50 -27 116 25 66 62 120 101 150 29 21
30 21 30 2 0 -27 43 -55 70 -46 29 9 53 69 45 111 -12 67 -73 82 -146 36z"/>
<path d="M1317 3853 c-42 -45 -73 -128 -108 -296 l-33 -157 -95 1 c-87 1 -97
-1 -113 -21 -22 -28 -23 -54 -2 -75 14 -14 30 -15 99 -10 l82 7 -42 -158 c-23
-88 -59 -212 -80 -276 -42 -130 -42 -168 0 -168 13 0 27 6 32 13 11 17 82 257
159 535 l15 52 57 0 c31 0 107 7 167 15 61 8 112 15 113 15 2 0 2 5 0 12 -7
20 -176 57 -266 58 -36 0 -43 3 -39 18 3 9 20 78 38 152 17 74 43 157 56 183
25 50 50 59 45 16 -13 -132 -14 -157 -2 -164 24 -15 46 30 59 118 17 121 -2
157 -81 157 -24 0 -42 -8 -61 -27z"/>
<path d="M8589 3853 l-24 -28 28 24 c15 14 27 26 27 28 0 8 -8 1 -31 -24z"/>
<path d="M2748 3819 c-11 -6 -18 -22 -18 -38 0 -16 -34 -98 -75 -183 -85 -175
-96 -224 -55 -245 14 -7 50 -13 81 -13 31 0 81 -5 110 -10 60 -12 102 -6 124
17 21 20 19 79 -5 127 -41 87 -71 182 -77 245 -8 98 -35 129 -85 100z m28
-262 c9 -28 25 -69 36 -90 11 -22 18 -40 16 -41 -8 -6 -158 7 -158 14 0 20 73
179 80 175 5 -3 16 -29 26 -58z"/>
<path d="M8680 3736 c-48 -47 63 -71 215 -46 33 5 104 10 158 11 96 2 120 10
98 32 -15 15 -457 17 -471 3z"/>
<path d="M7705 3650 c-279 -20 -824 -38 -1525 -52 -1258 -24 -1155 -20 -1158
-45 -3 -17 3 -24 24 -29 26 -7 1049 3 1096 11 13 2 212 6 443 10 231 3 483 10
560 15 77 6 190 10 250 10 61 0 182 5 270 10 88 6 197 13 242 16 88 6 127 23
105 45 -15 16 -154 20 -307 9z"/>
<path d="M8855 3603 c-73 -5 -95 -11 -95 -28 0 -29 44 -39 117 -27 38 6 111
14 164 17 102 7 135 17 109 35 -14 9 -179 11 -295 3z"/>
<path d="M4183 3579 c-19 -19 -16 -43 8 -65 19 -17 35 -19 177 -16 103 2 165
-1 184 -9 34 -14 46 -6 27 17 -23 28 -76 45 -193 60 -61 8 -129 17 -151 20
-26 4 -44 1 -52 -7z"/>
<path d="M1940 3547 c-46 -10 -56 -16 -64 -40 -8 -23 -6 -31 12 -49 l21 -22
64 23 c41 14 105 25 179 31 124 9 238 28 238 40 0 27 -340 40 -450 17z"/>
<path d="M7558 3442 c-12 -16 -119 -92 -190 -136 -30 -17 -36 -44 -16 -64 17
-17 31 -15 73 13 20 15 39 24 42 22 2 -3 -21 -51 -51 -108 -30 -57 -56 -117
-58 -134 -3 -26 1 -30 24 -33 23 -3 30 3 49 40 24 48 76 139 155 274 30 50 54
97 54 105 0 38 -59 53 -82 21z"/>
<path d="M4657 3433 c-4 -3 -90 -10 -192 -13 -190 -7 -215 -13 -215 -51 0 -32
33 -41 107 -29 190 31 321 65 323 85 2 12 -14 18 -23 8z"/>
<path d="M5385 3359 c-131 -67 -155 -84 -155 -109 0 -40 56 -54 87 -21 29 29
115 92 120 87 3 -3 -7 -21 -23 -41 -34 -45 -104 -217 -104 -257 0 -60 33 -28
92 90 31 63 65 124 77 135 11 12 32 48 46 80 26 56 26 59 9 78 -9 10 -20 19
-23 19 -3 0 -60 -28 -126 -61z"/>
<path d="M5585 2953 c-27 -2 -151 -7 -274 -11 -195 -6 -225 -9 -235 -24 -7
-11 -7 -26 0 -45 8 -25 15 -28 64 -31 30 -2 111 1 180 7 547 48 530 46 530 66
0 41 -72 51 -265 38z"/>
<path d="M6264 2935 c-15 -23 -15 -27 1 -51 16 -25 16 -25 158 -19 242 10 270
18 195 56 -31 16 -72 24 -148 30 -175 13 -187 12 -206 -16z"/>
<path d="M7096 2870 c-57 -10 -61 -63 -7 -77 17 -4 100 -5 183 0 84 4 284 13
445 20 160 7 295 15 298 19 4 3 -6 15 -21 25 -26 17 -58 18 -449 18 -231 0
-434 -2 -449 -5z"/>
<path d="M5142 2778 c-16 -16 -15 -43 2 -57 8 -7 44 -11 85 -10 40 1 74 -1 77
-4 14 -14 -12 -51 -62 -88 -82 -62 -73 -109 21 -109 59 0 101 -22 75 -40 -20
-13 -134 -47 -188 -56 -42 -7 -62 -25 -62 -57 0 -27 32 -27 141 -1 114 27 164
52 188 96 14 24 14 30 -1 61 -11 22 -31 41 -56 53 l-38 19 28 44 c34 54 36 90
6 119 -39 36 -189 57 -216 30z"/>
<path d="M5541 2703 c-19 -10 -44 -30 -55 -46 -19 -26 -19 -28 -3 -44 16 -16
19 -15 49 8 28 20 44 24 106 23 77 0 123 -21 130 -59 13 -62 -53 -157 -139
-200 -54 -28 -79 -31 -97 -13 -15 15 -16 73 -1 100 9 16 8 24 -5 36 -24 24
-62 2 -75 -45 -19 -67 -14 -110 17 -144 24 -27 37 -33 83 -36 48 -4 60 0 118
34 67 40 137 118 158 176 19 54 16 117 -9 154 -29 41 -80 62 -171 69 -58 4
-79 2 -106 -13z"/>
<path d="M7655 2696 c-86 -39 -131 -112 -104 -163 19 -36 66 -53 146 -53 l68
0 -30 -29 c-44 -44 -78 -49 -106 -17 -29 33 -64 33 -85 1 -15 -23 -15 -27 -1
-49 20 -30 76 -56 120 -56 54 0 125 53 161 122 22 40 38 58 56 62 33 7 90 43
90 56 0 8 -15 9 -46 4 l-45 -6 6 36 c19 97 -110 148 -230 92z m157 -64 c7 -7
7 -20 1 -38 -8 -23 -18 -30 -53 -37 -48 -10 -126 -1 -136 14 -8 14 13 37 55
60 38 20 113 21 133 1z"/>
<path d="M7182 2678 c-16 -16 -15 -43 3 -61 11 -12 32 -14 95 -10 90 7 107 -7
38 -29 -36 -11 -44 -18 -46 -42 -4 -33 10 -46 50 -46 33 0 58 -9 58 -21 0 -12
-114 -69 -138 -69 -10 0 -22 4 -27 9 -6 4 -24 4 -42 -1 -26 -7 -33 -14 -33
-33 0 -28 34 -55 70 -55 71 0 206 62 243 112 22 30 18 68 -11 96 -17 16 -17
20 -3 50 14 30 13 34 -6 60 -11 15 -31 33 -44 39 -32 17 -191 17 -207 1z"/>
<path d="M4042 1415 c-16 -14 -37 -43 -46 -65 -17 -43 -41 -199 -51 -340 -10
-129 -5 -122 -86 -114 -79 8 -119 -9 -119 -50 0 -40 23 -50 105 -43 70 6 75 5
75 -13 0 -58 -35 -255 -57 -322 -21 -63 -23 -81 -13 -93 19 -23 59 -19 69 8
17 42 50 212 63 320 l12 107 114 0 c120 0 152 9 152 40 0 31 -32 40 -144 40
l-106 0 0 28 c0 29 22 196 40 306 13 83 35 128 58 124 13 -2 18 -17 22 -56 7
-67 33 -87 81 -62 15 8 19 22 19 61 0 56 -10 80 -48 122 -35 37 -97 38 -140 2z"/>
<path d="M2047 1409 c-33 -19 -66 -105 -87 -226 -28 -160 -23 -150 -77 -156
-76 -8 -110 -69 -58 -103 23 -15 27 -15 50 0 44 29 48 23 41 -71 -3 -49 -7
-162 -8 -252 -3 -147 -1 -165 15 -175 12 -8 22 -8 35 0 15 10 18 38 23 257 4
135 10 250 13 256 5 7 47 11 112 11 112 0 144 9 144 40 0 31 -32 40 -140 40
-101 0 -102 0 -97 23 3 12 11 50 18 85 11 58 13 61 29 47 20 -18 50 -19 73 -2
25 18 42 123 27 175 -15 57 -64 79 -113 51z"/>
<path d="M11207 1350 c-15 -17 -34 -44 -44 -60 -9 -17 -25 -30 -34 -30 -9 0
-58 -32 -108 -71 -95 -75 -113 -107 -72 -129 31 -16 53 -12 84 18 l29 27 -7
-25 c-4 -14 -18 -45 -30 -70 -29 -57 -52 -139 -47 -167 8 -51 65 -22 77 41 10
47 150 324 193 380 20 27 41 55 47 62 14 20 -6 48 -37 52 -18 2 -33 -6 -51
-28z"/>
<path d="M13596 1355 c-39 -21 -55 -44 -56 -80 0 -56 20 -101 67 -153 43 -48
53 -54 100 -59 33 -3 54 -11 58 -21 7 -18 -34 -107 -67 -147 -14 -16 -39 -38
-56 -47 l-29 -18 1 39 c1 45 -17 71 -49 71 -36 0 -58 -34 -57 -88 3 -80 33
-122 88 -122 57 0 167 99 214 194 43 84 42 146 -2 190 -24 24 -46 35 -79 40
-39 6 -51 13 -73 44 -14 21 -26 47 -26 59 0 18 8 21 68 26 37 4 127 7 200 7
139 0 172 8 172 40 0 35 -32 40 -242 40 -162 0 -209 -3 -232 -15z"/>
<path d="M14296 1320 c-59 -53 -73 -140 -21 -140 16 0 27 10 39 35 23 49 57
69 101 61 48 -9 95 -51 95 -84 0 -39 -24 -120 -48 -168 -31 -60 -143 -161
-194 -175 -55 -15 -91 3 -96 46 -5 42 26 148 54 186 29 39 30 60 6 82 -58 53
-102 -8 -138 -190 -19 -101 -10 -140 44 -181 50 -38 137 -38 202 0 56 33 161
140 188 193 55 109 67 229 29 286 -32 48 -98 79 -169 79 -50 0 -62 -4 -92 -30z"/>
<path d="M11480 1307 c-17 -8 -26 -22 -28 -43 -5 -49 15 -58 100 -46 46 7 76
8 82 2 18 -18 -27 -61 -107 -103 -85 -44 -104 -72 -72 -107 15 -16 31 -20 92
-20 43 0 89 -6 110 -15 36 -15 36 -15 17 -36 -21 -23 -108 -69 -167 -89 -30
-9 -44 -9 -68 0 -23 10 -32 10 -44 0 -23 -19 -18 -57 10 -76 33 -22 90 -14
191 25 146 57 199 115 170 186 -16 39 -61 70 -113 80 l-34 6 33 22 c75 51 99
132 55 183 -18 20 -37 29 -78 35 -80 11 -121 10 -149 -4z"/>
<path d="M5722 1238 c-116 -121 -142 -157 -142 -202 0 -24 19 -51 41 -58 8 -3
4 -25 -15 -70 -32 -82 -34 -133 -5 -148 28 -16 57 11 57 53 0 28 159 385 183
412 13 13 11 59 -3 73 -23 23 -46 11 -116 -60z"/>
<path d="M8646 1265 c-50 -37 -111 -72 -206 -115 -23 -11 -23 -47 0 -70 27
-27 55 -21 116 21 23 16 45 29 48 29 3 0 -16 -44 -43 -97 -59 -118 -73 -166
-60 -200 7 -19 15 -24 36 -21 24 3 29 9 35 45 7 43 92 219 160 332 40 67 46
89 26 109 -21 21 -51 12 -112 -33z"/>
<path d="M9096 1295 c-61 -23 -106 -64 -128 -113 -25 -55 -15 -102 31 -146
l30 -29 -72 -59 c-40 -33 -76 -68 -81 -78 -23 -49 28 -103 110 -116 94 -14
189 29 209 94 8 27 -19 125 -40 142 -14 12 -13 16 6 37 13 12 30 23 39 23 18
0 50 30 50 47 0 6 7 13 15 17 17 6 20 51 5 61 -5 3 -10 25 -10 49 0 30 -6 48
-20 61 -26 23 -96 28 -144 10z m74 -81 c0 -36 -29 -102 -54 -125 l-31 -28 -22
27 c-23 27 -29 58 -15 78 20 31 122 71 122 48z m-60 -325 c0 -14 -6 -31 -12
-36 -18 -14 -79 -22 -101 -14 -16 6 -11 14 35 59 48 47 54 50 66 35 6 -9 12
-29 12 -44z"/>
<path d="M1247 1272 c-10 -10 -17 -26 -17 -35 0 -26 -74 -233 -109 -307 -49
-102 -35 -169 31 -156 15 3 28 2 28 -3 0 -17 30 -20 90 -9 45 7 86 7 152 -1
101 -13 118 -8 118 39 0 16 -10 41 -23 57 -101 125 -162 245 -182 365 -5 36
-35 68 -61 68 -6 0 -18 -8 -27 -18z m137 -367 l36 -50 -93 -6 c-51 -4 -103
-10 -115 -13 -12 -4 -22 -4 -22 1 -1 4 18 67 42 138 l42 130 37 -75 c21 -41
54 -97 73 -125z"/>
<path d="M9633 1270 c-18 -10 -44 -37 -57 -59 -14 -22 -30 -42 -36 -46 -28
-17 -63 -124 -73 -225 -11 -109 31 -163 127 -163 165 0 309 175 293 356 -6 69
-26 102 -83 134 -51 29 -126 31 -171 3z m147 -79 c23 -17 25 -25 25 -93 0 -66
-4 -81 -30 -124 -41 -65 -100 -105 -163 -112 -64 -6 -74 9 -60 93 9 58 22 90
76 190 41 76 91 91 152 46z"/>
<path d="M15228 1260 c-58 -48 -158 -273 -158 -356 0 -30 46 -84 87 -100 69
-30 164 -8 248 55 l54 41 18 -26 c24 -33 76 -44 147 -32 43 8 78 25 150 72
l93 63 11 -29 c15 -41 89 -72 151 -63 61 9 119 37 174 85 l45 40 4 -51 c4 -37
12 -57 34 -80 54 -56 111 -20 65 42 -27 36 -27 97 -1 181 24 76 25 92 5 108
-26 21 -59 3 -100 -56 -88 -126 -150 -176 -232 -188 -35 -5 -47 -2 -64 15 -18
18 -20 28 -14 72 4 29 14 73 23 100 19 55 10 80 -31 85 -29 4 -40 -12 -62 -83
-21 -72 -75 -135 -156 -184 -59 -35 -84 -44 -124 -45 l-50 -1 -5 53 c-9 82
-53 98 -94 33 -29 -46 -99 -108 -143 -127 -43 -19 -103 -18 -132 2 -20 14 -22
22 -17 56 7 41 71 179 108 230 l20 29 12 -23 c17 -35 70 -37 92 -3 40 62 6
115 -75 115 -37 0 -54 -6 -83 -30z"/>
<path d="M6033 1270 c-32 -13 -39 -47 -16 -79 23 -30 56 -38 88 -21 26 14 57
10 62 -7 2 -6 -21 -38 -51 -70 -81 -83 -72 -123 32 -143 56 -10 92 -26 92 -39
0 -33 -128 -70 -192 -56 -56 13 -92 -50 -45 -79 30 -18 184 -2 244 26 116 55
105 180 -19 219 -21 7 -38 14 -38 16 0 2 14 22 32 44 51 63 38 138 -30 173
-35 18 -130 28 -159 16z"/>
<path d="M12902 1241 c-67 -4 -95 -10 -102 -21 -15 -24 -12 -45 10 -65 21 -19
29 -19 180 5 36 5 95 10 132 10 36 0 73 3 82 6 19 7 21 45 4 62 -13 13 -129
14 -306 3z"/>
<path d="M3035 1220 c-33 -4 -92 -5 -131 -2 -57 3 -73 1 -87 -13 -22 -21 -22
-49 0 -71 14 -14 30 -16 97 -10 87 6 231 24 258 32 27 8 32 37 8 56 -23 19
-44 20 -145 8z"/>
<path d="M12054 1205 c-52 -27 -79 -56 -90 -99 -6 -24 -4 -26 26 -26 l32 0
-29 -28 c-48 -49 -85 -198 -63 -252 29 -70 114 -75 215 -15 94 57 150 110 173
163 56 129 33 208 -73 258 -66 31 -127 31 -191 -1z m173 -75 c51 -31 56 -97
13 -167 -25 -41 -145 -122 -193 -130 -36 -5 -37 -5 -37 24 0 45 27 115 55 141
40 37 28 82 -23 82 -22 0 -23 2 -11 17 45 54 137 69 196 33z"/>
<path d="M7458 1209 c-22 -12 -23 -47 -2 -70 14 -15 32 -17 172 -12 86 3 163
10 170 16 6 5 12 17 12 27 0 10 -6 22 -12 27 -18 14 -318 24 -340 12z"/>
<path d="M6683 1170 c-48 -11 -96 -43 -120 -80 -27 -39 -28 -44 -8 -63 13 -13
13 -17 -1 -28 -24 -20 -54 -85 -54 -117 0 -59 69 -112 144 -112 108 0 258 113
289 217 19 65 9 119 -29 150 -48 38 -142 52 -221 33z m145 -81 c41 -14 47 -39
24 -91 -33 -75 -122 -138 -196 -138 -74 0 -86 27 -36 83 35 40 38 61 10 80
-20 14 -20 14 3 35 12 11 33 25 47 31 34 13 110 13 148 0z"/>
<path d="M5105 1119 c-33 -5 -94 -11 -135 -14 -97 -7 -127 -38 -80 -85 25 -25
57 -25 142 -1 36 10 106 22 155 26 134 10 173 33 121 69 -24 17 -99 19 -203 5z"/>
<path d="M13020 1084 c-68 -11 -157 -21 -212 -24 -4 0 -12 -9 -18 -20 -12 -23
0 -54 24 -63 22 -9 326 47 363 66 44 23 49 35 18 47 -33 13 -68 11 -175 -6z"/>
<path d="M10245 1080 c-27 -4 -58 -10 -67 -14 -42 -19 -27 -86 18 -86 14 0 44
5 67 10 23 6 82 14 131 18 68 5 91 11 100 25 8 12 8 22 0 35 -9 14 -27 17
-105 18 -52 1 -116 -2 -144 -6z"/>
<path d="M7665 1025 c-49 -7 -103 -11 -120 -8 -42 6 -95 -29 -95 -62 0 -41 36
-51 112 -32 35 8 101 20 148 27 109 16 131 22 144 43 8 13 6 20 -9 31 -23 18
-56 18 -180 1z"/>
<path d="M3100 1024 c-230 -22 -290 -39 -290 -84 0 -38 25 -44 103 -26 40 10
117 23 172 30 55 6 106 15 113 19 32 21 -1 69 -45 65 -10 0 -34 -3 -53 -4z"/>
<path d="M16664 696 c-12 -31 0 -51 31 -51 27 0 30 3 30 30 0 25 -4 30 -28 33
-17 2 -29 -2 -33 -12z"/>
</g>
</svg>
