<?xml version="1.0" standalone="no"?>
<!DOCTYPE svg PUBLIC "-//W3C//DTD SVG 20010904//EN"
 "http://www.w3.org/TR/2001/REC-SVG-20010904/DTD/svg10.dtd">
<svg version="1.0" xmlns="http://www.w3.org/2000/svg"
 width="1080.942980pt" height="626.375175pt" viewBox="0 0 1080.942980 626.375175"
 preserveAspectRatio="xMidYMid meet">
<metadata>
Created by potrace 1.16, written by Peter Selinger 2001-2019
</metadata>
<g transform="translate(-0.005857,666.771326) scale(0.100000,-0.100000)"
fill="#000000" stroke="none">
<path d="M721 6647 c-5 -13 -12 -45 -16 -71 -6 -38 -13 -49 -32 -57 -13 -5
-26 -9 -29 -9 -8 0 -4 36 6 46 6 6 7 30 4 58 -5 36 -11 46 -23 44 -12 -2 -18
-23 -25 -86 l-9 -84 -73 -35 c-69 -32 -88 -53 -64 -68 6 -3 22 2 38 13 15 11
42 27 60 36 l32 17 0 -26 c0 -22 -9 -30 -67 -55 -87 -38 -95 -43 -93 -55 1
-16 30 -10 94 19 l58 27 -5 -23 c-3 -13 -9 -51 -13 -85 -6 -55 -4 -63 10 -63
22 0 38 44 37 102 -1 61 12 94 39 101 21 5 22 3 16 -41 -4 -26 -10 -62 -13
-80 -5 -29 -3 -33 13 -30 15 3 21 19 33 89 l13 87 59 17 c67 21 80 41 20 31
-22 -3 -46 -9 -55 -12 -18 -7 -20 4 -7 39 8 19 22 27 70 38 34 7 61 16 61 20
0 14 -27 16 -73 4 l-49 -12 8 36 c11 55 10 84 -3 88 -7 3 -17 -6 -22 -20z
m-36 -184 c-8 -33 -4 -29 -32 -37 -20 -6 -23 -4 -23 19 0 17 7 29 23 35 35 14
40 12 32 -17z"/>
<path d="M1182 6635 c-67 -19 -94 -33 -89 -48 5 -14 19 -13 72 6 64 24 115 31
115 17 0 -7 -10 -39 -22 -71 -23 -58 -23 -58 -68 -61 -35 -2 -46 -7 -48 -22
-4 -17 1 -18 37 -13 23 3 41 4 41 3 0 -1 -7 -24 -16 -49 -16 -48 -13 -82 7
-75 6 2 20 32 32 67 l22 64 77 22 76 21 -5 -70 c-9 -116 27 -171 101 -152 30
7 122 90 141 127 24 46 19 106 -11 134 -45 42 -149 46 -197 8 -24 -19 -156
-58 -164 -49 -2 2 6 25 17 52 12 26 20 59 18 73 -3 23 -8 26 -43 28 -22 1 -64
-4 -93 -12z m417 -110 c33 -17 43 -44 30 -87 -10 -36 -70 -102 -113 -125 -28
-15 -31 -14 -48 7 -22 28 -24 116 -3 165 21 52 79 69 134 40z"/>
<path d="M1030 6637 c0 -2 -11 -61 -25 -132 -27 -140 -30 -181 -16 -190 17
-10 43 27 38 54 -5 26 23 184 42 232 5 15 7 30 4 33 -6 6 -43 9 -43 3z"/>
<path d="M1715 6149 c-123 -34 -366 -43 -793 -28 -500 17 -587 14 -587 -22 0
-15 9 -15 100 -1 39 7 133 7 270 0 116 -5 372 -8 570 -5 339 4 365 6 454 28
52 13 96 30 99 37 5 17 -29 14 -113 -9z"/>
<path d="M2173 6112 c-6 -4 -9 -45 -7 -97 1 -49 7 -286 13 -525 7 -303 15
-479 28 -580 16 -128 18 -231 18 -865 0 -887 2 -870 -112 -1099 -68 -137 -108
-187 -178 -222 l-55 -26 -725 -6 c-522 -3 -725 -8 -722 -16 3 -8 211 -11 733
-11 l729 0 57 28 c33 16 75 48 99 75 49 56 164 290 185 376 40 170 43 1337 4
1751 -18 194 -35 719 -34 1052 0 160 -4 183 -33 165z"/>
<path d="M8981 6091 c-10 -7 -9 -11 5 -22 105 -83 129 -138 129 -294 -1 -139
-42 -260 -139 -403 -20 -30 -33 -58 -30 -63 24 -40 159 198 194 341 19 76 17
212 -4 283 -25 85 -118 180 -155 158z"/>
<path d="M7491 5982 c-11 -17 -36 -76 -55 -133 -86 -259 -87 -483 -1 -529 34
-18 43 -5 16 24 -59 62 -62 188 -10 394 33 131 74 223 107 237 28 12 23 29
-10 33 -19 2 -31 -5 -47 -26z"/>
<path d="M3515 5920 c-33 -37 -35 -103 -8 -240 21 -108 24 -143 20 -260 -4
-101 -11 -153 -27 -205 -12 -38 -23 -72 -24 -75 0 -3 12 -7 28 -10 22 -4 32
-13 38 -35 5 -16 6 -131 3 -255 -6 -234 0 -303 33 -369 18 -36 46 -60 58 -49
3 4 -7 33 -22 65 l-29 58 0 270 c0 149 -2 280 -3 293 -1 13 -13 34 -27 48
l-26 26 18 76 c25 106 23 313 -4 442 -24 111 -21 180 7 180 22 0 30 19 18 43
-12 23 -31 22 -53 -3z"/>
<path d="M8676 5903 c-2 -10 -7 -34 -11 -53 -4 -19 -14 -61 -22 -92 l-16 -58
-48 0 c-37 0 -49 -4 -49 -15 0 -11 12 -15 46 -15 38 0 45 -3 40 -17 -16 -59
-17 -101 -1 -117 20 -20 67 -21 104 -1 39 20 57 65 26 65 -8 0 -15 -5 -15 -11
0 -15 -71 -42 -82 -31 -5 5 -6 30 -1 58 l8 49 68 9 c37 5 67 13 67 18 0 4 -27
8 -60 8 -33 0 -60 2 -60 6 0 3 11 45 25 94 14 49 25 96 25 104 0 22 -37 20
-44 -1z"/>
<path d="M620 5825 c-11 -25 -31 -83 -45 -129 l-26 -84 -39 -7 c-31 -5 -40
-11 -40 -26 0 -17 5 -19 34 -13 l35 6 -6 -54 c-6 -64 9 -84 56 -73 35 7 109
69 98 81 -4 5 -31 -4 -58 -20 -28 -15 -53 -26 -56 -23 -3 3 -2 28 2 55 l7 50
51 13 c58 16 61 36 5 31 -21 -2 -38 0 -38 5 0 19 51 157 66 181 18 27 12 52
-11 52 -9 0 -24 -19 -35 -45z"/>
<path d="M5015 5860 c-7 -12 36 -98 70 -139 20 -24 23 -31 11 -31 -8 0 -23
-12 -32 -27 -9 -16 -30 -47 -45 -70 -32 -46 -36 -63 -15 -63 14 0 58 45 87 89
l15 24 57 -42 c35 -26 63 -41 72 -37 21 8 13 21 -70 119 -65 78 -105 143 -105
172 0 16 -35 21 -45 5z"/>
<path d="M7722 5843 c-5 -10 -22 -55 -36 -100 -26 -79 -29 -83 -57 -83 -19 0
-29 -5 -29 -15 0 -14 11 -19 37 -16 10 1 11 -13 7 -57 -7 -61 8 -92 43 -92 22
0 81 38 93 60 25 48 2 53 -42 10 -51 -51 -68 -35 -52 48 6 29 9 31 58 34 64 4
67 22 4 26 l-47 3 30 82 c45 123 44 117 21 117 -12 0 -25 -8 -30 -17z"/>
<path d="M3779 5819 c-38 -14 -62 -75 -63 -158 -1 -55 3 -73 19 -91 32 -36 75
-52 139 -55 34 -1 71 -7 83 -13 26 -14 83 -16 83 -3 0 5 -13 12 -29 16 -36 8
-58 30 -38 38 20 7 47 69 47 107 0 53 -42 120 -90 145 -35 17 -120 25 -151 14z
m139 -49 c64 -39 81 -129 34 -181 l-29 -32 -22 37 c-12 20 -27 36 -32 36 -18
0 -21 -30 -5 -55 16 -24 16 -25 -10 -25 -36 0 -90 35 -98 63 -10 38 -7 57 10
57 13 0 15 7 10 34 -4 18 -2 45 4 60 8 23 15 26 57 26 30 0 60 -7 81 -20z"/>
<path d="M5675 5738 c-16 -6 -42 -19 -57 -29 -29 -21 -48 -24 -48 -9 0 6 -12
15 -27 21 -21 8 -36 5 -75 -14 l-48 -24 0 24 c0 16 -6 23 -19 23 -15 0 -20
-10 -25 -47 -4 -27 -9 -65 -12 -85 -5 -34 -3 -38 15 -38 14 0 27 13 40 39 24
46 77 93 100 89 17 -4 19 -33 5 -95 -5 -26 -3 -34 11 -39 22 -9 41 12 52 56
12 44 84 102 122 98 21 -2 27 -9 29 -37 2 -18 -2 -46 -8 -62 -14 -34 -7 -61
14 -53 32 12 49 133 24 167 -17 22 -57 28 -93 15z"/>
<path d="M6715 5734 c-83 -43 -142 -153 -103 -192 29 -29 139 -1 233 59 71 45
39 48 -53 6 -43 -20 -95 -39 -116 -43 l-39 -7 6 32 c9 45 39 83 81 106 33 18
36 18 54 2 23 -21 38 -22 45 -2 7 16 -37 55 -62 55 -9 0 -29 -7 -46 -16z"/>
<path d="M6239 5710 c-1 -5 -3 -14 -4 -20 -1 -5 -3 -17 -4 -25 -1 -11 -14 -15
-54 -15 -58 0 -68 -4 -60 -26 3 -10 22 -14 58 -14 l54 0 3 -37 c2 -27 8 -39
21 -41 14 -3 17 4 17 37 0 36 3 41 23 41 38 0 67 12 67 26 0 11 -9 13 -40 8
l-40 -7 0 42 c0 34 -3 41 -20 41 -11 0 -21 -4 -21 -10z"/>
<path d="M7107 5680 c-33 -28 -35 -29 -40 -10 -6 24 -49 27 -68 4 -11 -14 -13
-14 -21 0 -5 9 -18 16 -28 16 -16 0 -20 -7 -20 -34 0 -18 -3 -48 -6 -65 -10
-46 22 -41 68 11 l37 43 1 -42 c0 -60 27 -58 68 6 51 78 89 80 77 4 -6 -42 -5
-44 17 -41 20 3 23 9 26 54 5 86 -47 111 -111 54z"/>
<path d="M4420 5668 c-25 -5 -66 -6 -92 -3 -39 5 -48 3 -48 -9 0 -34 36 -37
162 -16 68 11 126 20 131 20 4 0 7 5 7 10 0 12 -98 11 -160 -2z"/>
<path d="M8906 5629 c-11 -10 -25 -19 -33 -19 -20 0 -16 -31 6 -37 15 -4 17
-11 12 -36 -6 -27 -12 -33 -41 -37 -22 -3 -35 -11 -35 -20 0 -12 16 -16 75
-18 79 -2 118 9 90 28 -8 5 -25 10 -37 10 -21 0 -21 1 -6 53 27 95 27 97 7 96
-11 0 -28 -9 -38 -20z"/>
<path d="M8215 5621 c-62 -5 -80 -9 -80 -21 0 -32 171 -16 183 18 2 6 -2 11
-10 10 -7 -1 -49 -4 -93 -7z"/>
<path d="M4519 5575 c-3 -2 -48 -6 -100 -8 -73 -3 -94 -7 -94 -18 0 -11 16
-14 75 -13 84 0 210 22 210 35 0 9 -83 13 -91 4z"/>
<path d="M7835 5570 c-10 -16 4 -30 30 -30 13 0 31 -7 40 -16 20 -21 9 -35
-62 -81 -29 -18 -53 -41 -53 -50 0 -32 207 3 218 36 3 10 -6 12 -39 6 -24 -3
-53 -9 -64 -12 -13 -4 -7 5 18 29 40 38 43 48 26 80 -18 33 -100 61 -114 38z"/>
<path d="M793 5471 c-58 -52 -68 -76 -29 -69 25 5 25 4 23 -66 -2 -65 0 -71
18 -71 15 0 19 6 17 23 -5 33 17 131 39 174 11 21 19 42 19 48 0 23 -38 6 -87
-39z"/>
<path d="M585 5231 c-3 -5 -12 -56 -20 -113 -8 -56 -18 -104 -22 -106 -69 -25
-117 -49 -121 -59 -7 -24 29 -26 68 -4 21 11 41 21 45 21 4 0 5 -33 2 -73 -6
-83 3 -107 39 -107 31 0 84 50 84 79 0 29 -17 26 -47 -9 -13 -16 -28 -30 -32
-30 -8 0 -4 94 5 137 3 16 14 24 39 29 50 9 54 24 6 24 -46 0 -44 -13 -15 134
7 38 11 73 8 77 -7 12 -31 11 -39 0z"/>
<path d="M3938 5181 c-78 -16 -103 -79 -53 -134 43 -45 64 -29 25 20 -26 33
-25 48 2 67 26 19 115 21 152 5 49 -23 54 -90 10 -156 l-16 -25 -34 33 c-31
30 -36 32 -50 18 -14 -15 -12 -19 17 -43 40 -34 28 -46 -44 -46 -68 0 -117 22
-117 54 0 14 5 28 10 31 16 10 12 45 -5 45 -23 0 -47 -45 -43 -81 4 -42 38
-66 111 -80 48 -8 68 -7 111 6 51 16 54 16 87 -4 33 -21 79 -28 79 -13 0 4
-12 13 -27 20 -16 7 -36 19 -46 26 -18 14 -18 16 3 44 51 69 43 165 -17 195
-37 19 -108 27 -155 18z"/>
<path d="M5396 5098 c-9 -14 -21 -83 -30 -168 -9 -80 -19 -164 -22 -187 -6
-39 -5 -43 14 -43 15 0 21 9 26 35 8 40 5 40 70 20 73 -22 196 -18 196 6 0 5
-25 9 -55 9 -74 0 -155 18 -155 35 0 8 36 35 80 62 52 31 80 54 80 65 0 10 -5
18 -10 18 -19 0 -106 -48 -153 -84 l-46 -35 4 27 c2 15 9 67 15 117 6 49 16
95 22 102 12 14 4 43 -11 43 -6 0 -17 -10 -25 -22z"/>
<path d="M5115 5050 c-3 -6 5 -38 18 -73 14 -34 28 -77 32 -94 6 -29 4 -33
-14 -33 -14 0 -25 -9 -32 -27 -12 -33 -89 -141 -118 -167 -26 -24 -27 -36 -2
-36 21 0 84 65 127 130 l28 43 26 -34 c52 -68 64 -79 79 -70 11 7 10 16 -7 52
-12 24 -34 94 -50 156 -35 136 -65 188 -87 153z"/>
<path d="M5790 4968 c-1 -2 -3 -62 -5 -135 -6 -178 12 -187 85 -44 43 84 40
86 44 -29 1 -28 5 -36 23 -38 17 -3 27 6 42 35 10 21 35 56 55 78 47 54 53 46
71 -97 4 -32 11 -48 20 -48 22 0 28 43 16 111 -21 121 -64 141 -137 64 l-41
-45 -5 51 c-9 91 -39 91 -95 -1 l-32 -54 -3 75 c-2 61 -6 74 -20 77 -10 2 -18
2 -18 0z"/>
<path d="M4580 4930 c0 -26 26 -36 118 -45 51 -5 72 -4 72 4 0 14 -31 26 -92
35 -26 4 -50 11 -53 17 -12 18 -45 10 -45 -11z"/>
<path d="M784 4846 c-15 -12 -16 -17 -7 -27 10 -9 21 -10 47 -2 27 8 38 8 45
-1 8 -9 -4 -26 -40 -62 -28 -27 -55 -57 -60 -67 -15 -27 7 -47 50 -46 54 1
164 32 169 48 4 11 -2 13 -24 8 -16 -3 -58 -9 -94 -12 l-65 -7 58 54 c31 30
57 62 57 71 0 48 -90 76 -136 43z"/>
<path d="M3985 4820 c-66 -4 -139 -8 -162 -9 -32 -1 -43 -5 -43 -17 0 -15 13
-16 118 -9 64 4 186 10 270 14 180 7 212 26 47 27 -60 0 -164 -2 -230 -6z"/>
<path d="M4564 4791 c-2 -2 -4 -11 -4 -19 0 -12 13 -14 83 -8 96 8 127 15 127
27 0 9 -197 9 -206 0z"/>
<path d="M3983 4710 c-46 -19 -23 -44 26 -30 37 10 81 -2 81 -23 0 -8 -30 -31
-66 -52 -70 -41 -86 -61 -63 -76 28 -19 208 15 225 42 10 18 -3 21 -38 11 -18
-6 -53 -13 -78 -17 l-45 -6 47 30 c56 36 70 57 56 87 -17 38 -93 55 -145 34z"/>
<path d="M1412 4488 c-7 -7 -12 -22 -12 -35 0 -16 -6 -23 -20 -23 -25 0 -37
-24 -45 -86 -13 -98 37 -149 137 -140 32 3 69 1 84 -4 40 -15 52 0 20 25 -24
19 -26 26 -17 43 32 59 -3 165 -68 209 -38 26 -61 29 -79 11z m96 -78 c22 -33
30 -98 16 -135 -6 -14 -8 -14 -25 1 -11 9 -19 25 -19 34 0 10 -6 20 -12 22
-43 16 -52 -40 -11 -71 32 -26 25 -35 -22 -27 -48 9 -69 43 -62 99 7 48 33
105 39 86 2 -7 9 -9 17 -5 7 5 10 15 7 23 -19 49 33 29 72 -27z"/>
<path d="M1657 4483 c-16 -16 -7 -35 14 -30 32 8 74 -41 90 -105 9 -34 14
-111 14 -209 l0 -157 -47 -94 c-51 -99 -56 -118 -34 -118 20 0 93 138 112 212
13 49 15 93 11 203 -6 169 -23 230 -72 274 -33 29 -73 40 -88 24z"/>
<path d="M260 4448 c-23 -25 -54 -103 -82 -208 -14 -54 -20 -112 -21 -207 -2
-120 0 -134 19 -160 16 -21 30 -28 54 -28 19 0 35 6 38 13 3 9 -3 13 -14 12
-58 -6 -69 26 -61 183 8 164 58 339 109 378 22 17 17 39 -7 39 -8 0 -23 -10
-35 -22z"/>
<path d="M389 4231 c-20 -16 -23 -28 -24 -102 -3 -123 22 -174 93 -192 30 -7
79 10 86 30 6 14 8 14 24 0 27 -25 70 -38 78 -25 4 7 2 14 -5 16 -6 2 -25 15
-40 28 -28 23 -29 27 -24 84 7 69 -15 141 -50 165 -31 21 -109 19 -138 -4z
m106 -17 c23 -9 45 -57 45 -100 0 -32 -2 -35 -15 -24 -12 10 -19 10 -28 1 -9
-9 -7 -20 8 -47 14 -27 16 -40 8 -52 -17 -28 -56 -26 -83 3 -21 23 -25 35 -23
83 1 31 -2 61 -8 68 -12 14 4 59 23 67 19 8 54 8 73 1z"/>
<path d="M920 4235 c0 -9 10 -19 23 -24 13 -5 28 -15 35 -23 10 -12 0 -16 -66
-26 -42 -7 -96 -12 -119 -12 -44 0 -63 -14 -44 -33 9 -9 42 -6 131 9 125 21
137 19 99 -22 -23 -24 -20 -54 5 -54 18 0 56 60 56 89 0 51 -54 111 -100 111
-11 0 -20 -7 -20 -15z"/>
<path d="M7365 4170 c3 -5 -77 -95 -177 -199 -179 -185 -183 -189 -191 -161
-12 45 -37 47 -74 4 l-33 -37 0 51 c0 45 -3 52 -19 52 -18 0 -20 -9 -23 -107
-2 -74 1 -111 9 -119 9 -8 -3 -28 -48 -79 -32 -38 -59 -72 -59 -77 0 -5 8 -12
17 -15 12 -5 24 4 42 28 14 18 53 63 86 99 49 53 65 64 87 62 23 -3 32 6 77
75 53 82 55 82 66 0 8 -58 46 -109 67 -89 10 10 10 15 1 20 -7 4 -19 44 -26
89 -8 44 -17 86 -21 92 -5 7 43 64 116 142 68 72 127 137 131 145 10 18 1 34
-19 34 -8 0 -13 -4 -9 -10z m-431 -461 c-15 -16 -29 -27 -31 -25 -3 2 8 28 24
58 26 50 28 52 31 24 3 -20 -4 -36 -24 -57z"/>
<path d="M10695 4170 c-3 -5 3 -18 14 -29 11 -11 30 -52 42 -92 54 -178 -17
-573 -117 -652 -13 -10 -24 -23 -24 -28 0 -20 24 -7 65 34 74 74 124 243 132
448 5 120 3 145 -15 206 -29 96 -75 149 -97 113z"/>
<path d="M1360 4126 c0 -21 15 -23 143 -18 81 3 117 8 114 16 -2 7 -48 12
-130 14 -105 2 -127 0 -127 -12z"/>
<path d="M8956 4079 c-98 -86 -192 -407 -157 -537 17 -61 57 -102 109 -112 23
-4 45 -3 48 1 5 10 -2 13 -49 23 -60 14 -88 110 -69 242 28 190 126 384 194
384 29 0 16 24 -14 28 -18 2 -38 -7 -62 -29z"/>
<path d="M10341 4058 c-22 -22 -53 -69 -68 -104 -16 -37 -34 -65 -45 -67 -21
-6 -24 -25 -5 -33 10 -3 12 -20 9 -58 -8 -101 51 -167 136 -151 34 6 92 53 92
74 0 19 -22 12 -46 -14 -17 -18 -33 -25 -62 -25 -56 0 -77 26 -77 98 l0 56 57
-3 c68 -3 148 8 148 20 0 5 -29 9 -64 9 -79 0 -126 9 -126 24 0 26 52 118 89
159 22 24 38 47 34 50 -14 15 -34 5 -72 -35z"/>
<path d="M5468 4055 c-35 -41 -244 -225 -256 -225 -5 0 -12 7 -16 15 -10 28
-63 18 -100 -20 l-35 -35 -3 43 c-2 33 -7 42 -22 42 -17 0 -19 -10 -22 -105
-3 -101 -4 -105 -31 -125 -121 -88 -259 -238 -246 -270 9 -25 32 -17 49 18 9
17 32 52 52 76 44 54 166 155 170 141 2 -5 12 -10 23 -10 14 0 19 7 19 25 0
26 17 45 85 94 49 35 52 33 31 -27 -8 -22 -12 -43 -9 -46 11 -11 43 -6 43 6 0
6 21 45 47 87 l48 76 7 -55 c14 -99 36 -130 93 -130 33 0 93 31 124 64 34 36
19 44 -26 13 -54 -37 -90 -49 -113 -37 -23 12 -27 25 -36 113 -4 44 -11 70
-20 74 -10 3 16 34 75 90 82 76 111 116 98 130 -3 3 -16 -7 -29 -22z m-298
-253 c-1 -16 -80 -85 -88 -77 -6 6 19 49 46 77 26 29 42 28 42 0z"/>
<path d="M4709 4033 c-6 -16 -15 -80 -19 -143 -5 -63 -14 -133 -20 -155 -16
-59 -9 -139 12 -143 13 -3 18 8 23 55 3 32 8 68 11 81 5 24 24 31 24 8 0 -25
41 -66 79 -77 29 -9 47 -9 75 1 51 17 45 30 -15 30 -65 0 -83 10 -103 61 l-17
42 33 34 c18 18 54 48 80 66 46 31 62 57 35 57 -18 0 -92 -53 -144 -103 -25
-24 -43 -35 -43 -27 1 57 21 194 30 205 7 8 9 19 5 25 -12 19 -35 10 -46 -17z"/>
<path d="M6516 4052 c-3 -6 11 -66 33 -133 35 -115 37 -125 21 -134 -10 -5
-38 -35 -63 -65 -24 -30 -59 -68 -76 -83 -30 -26 -34 -47 -8 -47 6 0 46 34 88
76 l77 77 23 -42 c36 -61 71 -53 45 11 -8 18 -34 103 -59 188 -30 105 -50 156
-60 158 -8 2 -18 -1 -21 -6z"/>
<path d="M1445 4043 c-29 -7 -47 -25 -37 -35 5 -5 28 -4 55 4 26 6 50 8 54 4
4 -4 -23 -35 -60 -69 -37 -34 -67 -68 -67 -74 0 -17 43 -27 83 -20 47 8 143
45 169 67 30 24 15 38 -20 18 -26 -15 -136 -48 -162 -48 -6 0 14 23 45 51 45
41 55 57 53 78 -3 23 -7 26 -48 28 -25 0 -54 -1 -65 -4z"/>
<path d="M8659 3935 c-56 -64 -109 -125 -118 -137 -15 -21 -15 -21 -26 13 -17
49 -51 52 -88 8 -22 -26 -28 -29 -25 -14 2 14 -3 21 -19 23 -19 3 -23 -4 -32
-50 -19 -100 -19 -113 6 -113 18 0 32 15 60 64 46 78 63 88 63 34 0 -34 -10
-50 -91 -143 -110 -127 -149 -182 -149 -209 0 -36 33 -25 51 17 9 20 53 81 98
135 70 82 86 96 105 91 19 -4 28 2 49 38 14 24 41 58 61 77 40 39 42 37 49
-47 4 -56 17 -79 37 -67 9 6 10 28 5 79 -8 84 -17 104 -50 108 -23 3 -18 10
65 99 49 53 86 99 83 103 -16 16 -39 -2 -134 -109z"/>
<path d="M9301 4028 c-25 -26 -63 -104 -81 -165 -10 -33 -18 -42 -42 -47 -34
-7 -33 -31 1 -30 19 1 21 -4 21 -65 0 -48 5 -75 20 -98 33 -55 109 -56 139 -1
22 38 5 47 -25 15 -31 -34 -47 -34 -74 0 -17 22 -20 38 -18 92 l3 66 105 28
c58 16 107 31 109 33 15 15 -21 14 -99 -1 -50 -10 -94 -15 -97 -11 -4 3 7 37
23 74 21 46 40 73 61 87 37 23 37 39 1 43 -17 2 -34 -5 -47 -20z"/>
<path d="M4303 3989 c-9 -9 -4 -28 21 -78 64 -129 63 -122 18 -183 -22 -29
-49 -62 -61 -72 -26 -24 -27 -46 -1 -46 11 0 36 22 62 54 24 30 46 55 50 55 4
1 9 -7 12 -17 4 -10 22 -33 41 -52 28 -27 37 -31 49 -21 13 11 10 20 -21 69
-20 31 -54 97 -76 147 -21 49 -45 105 -53 123 -15 34 -23 39 -41 21z"/>
<path d="M3863 3893 c-25 -5 -63 -47 -63 -69 0 -24 36 -15 48 11 17 36 62 35
62 -1 0 -36 -15 -62 -73 -121 -44 -45 -49 -54 -37 -68 12 -14 32 -16 132 -13
99 2 120 6 135 22 17 18 17 18 -14 13 -17 -4 -70 -3 -118 0 l-86 6 25 21 c60
51 94 142 68 183 -9 14 -49 22 -79 16z"/>
<path d="M7974 3870 c-49 -19 -86 -100 -64 -139 27 -52 144 -74 250 -47 89 23
103 41 25 31 -83 -10 -174 -7 -204 8 -35 17 -40 61 -10 93 29 31 81 32 108 3
22 -23 51 -20 51 6 0 38 -101 68 -156 45z"/>
<path d="M7567 3843 c-4 -3 -7 -30 -7 -59 0 -58 -7 -64 -88 -64 -36 0 -43 -3
-40 -17 3 -15 13 -18 65 -15 l61 3 6 -35 c10 -51 36 -48 36 3 0 39 11 51 49
51 9 0 26 7 37 15 18 15 15 16 -35 13 l-53 -3 4 58 c4 48 2 57 -12 57 -9 0
-20 -3 -23 -7z"/>
<path d="M5765 3829 c-10 -15 22 -47 55 -54 15 -3 83 3 151 15 149 25 156 27
141 42 -8 8 -45 6 -141 -7 -121 -16 -132 -17 -155 -1 -29 19 -42 20 -51 5z"/>
<path d="M9802 3753 c3 -15 14 -18 68 -16 158 7 181 33 29 33 -90 0 -100 -2
-97 -17z"/>
<path d="M5988 3722 c-65 -16 -98 -29 -98 -38 0 -18 13 -18 96 2 69 16 118 36
129 54 9 14 -16 11 -127 -18z"/>
<path d="M10568 3658 c-27 -9 -36 -27 -20 -42 4 -4 7 -40 7 -79 0 -56 3 -72
14 -72 10 0 18 20 26 65 6 36 17 75 24 88 14 26 8 52 -11 51 -7 0 -25 -5 -40
-11z"/>
<path d="M9452 3583 c2 -10 12 -17 22 -16 29 2 68 -16 60 -28 -3 -6 -22 -18
-41 -25 -23 -10 -33 -20 -31 -32 8 -40 160 -19 202 27 23 25 4 37 -26 18 -13
-8 -36 -18 -52 -21 -26 -6 -28 -5 -17 8 33 39 -14 86 -85 86 -28 0 -35 -3 -32
-17z"/>
<path d="M1965 3569 c-93 -5 -323 -13 -510 -19 -187 -5 -488 -19 -670 -31
-259 -16 -379 -19 -557 -13 -218 6 -228 6 -228 -12 0 -34 338 -30 1000 12 200
12 940 37 1138 38 34 0 62 4 62 8 0 9 -46 29 -58 26 -4 -1 -83 -5 -177 -9z"/>
<path d="M1213 3321 c-42 -19 -69 -53 -58 -71 10 -17 30 -11 40 12 12 27 75
53 108 44 32 -8 51 -55 45 -109 -3 -23 -24 -85 -47 -138 -44 -99 -49 -141 -18
-147 13 -3 17 3 17 26 0 16 18 70 40 121 49 110 59 173 36 223 -28 59 -87 73
-163 39z"/>
<path d="M542 3307 c-7 -7 -13 -80 -15 -172 -2 -88 -8 -175 -12 -192 -5 -22
-4 -33 4 -33 6 0 11 -14 11 -31 0 -39 24 -34 28 5 4 31 -13 30 152 10 32 -4
50 -3 50 4 0 14 -52 31 -117 39 -29 3 -53 11 -53 16 0 6 25 35 55 64 30 29 55
60 55 68 0 25 -36 17 -84 -20 -26 -19 -47 -35 -49 -35 -1 0 1 62 5 137 4 75 4
141 2 145 -7 12 -20 10 -32 -5z"/>
<path d="M9705 3030 c-3 -5 12 -18 34 -29 51 -27 106 -92 130 -155 66 -178 1
-426 -153 -589 -42 -44 -43 -47 -17 -47 27 0 113 100 155 179 88 168 105 353
45 490 -44 100 -166 196 -194 151z"/>
<path d="M907 3003 c-32 -31 39 -57 117 -42 69 13 86 19 86 30 0 6 -31 7 -79
3 -54 -5 -80 -3 -85 5 -8 12 -29 15 -39 4z"/>
<path d="M7171 2954 c-84 -96 -94 -245 -18 -285 28 -16 119 -15 175 0 72 20
49 31 -51 24 -93 -6 -93 -6 -115 22 -12 16 -22 42 -22 60 0 64 48 163 91 185
21 12 31 -3 44 -63 4 -22 11 -28 28 -25 26 4 26 33 -1 88 -14 29 -23 36 -53
38 -32 3 -41 -2 -78 -44z"/>
<path d="M7966 2921 c-89 -141 -160 -429 -127 -514 14 -35 54 -55 76 -37 23
19 18 33 -9 26 -20 -5 -26 -1 -35 26 -6 17 -11 42 -11 55 0 86 82 340 136 419
24 35 26 64 4 64 -5 0 -21 -17 -34 -39z"/>
<path d="M9432 2951 c-6 -3 -28 -56 -50 -116 l-39 -110 -65 3 c-41 3 -68 0
-72 -7 -9 -15 35 -31 84 -31 l39 0 -6 -64 c-5 -55 -3 -66 15 -84 39 -39 131
-39 156 1 14 22 -1 34 -24 19 -27 -17 -76 -15 -94 4 -17 16 -18 37 -7 89 6 27
10 30 55 35 66 7 74 30 11 30 -54 0 -54 -8 1 129 19 47 34 88 34 92 0 11 -26
18 -38 10z"/>
<path d="M8281 2901 c-26 -36 -91 -171 -91 -188 0 -9 -16 -13 -51 -13 -59 0
-65 -22 -8 -30 l34 -5 -3 -56 c-5 -86 37 -115 95 -65 34 30 23 46 -16 23 -34
-20 -41 -14 -41 29 0 57 7 64 67 64 68 0 69 23 1 30 l-46 5 24 59 c27 63 67
130 84 141 5 3 10 13 10 21 0 24 -38 15 -59 -15z"/>
<path d="M5537 2832 c-37 -37 -67 -73 -67 -80 0 -17 30 -15 52 5 22 20 23 10
2 -51 -13 -37 -14 -50 -5 -59 10 -9 16 -7 27 7 8 11 14 26 14 33 0 7 16 53 35
102 19 48 35 93 35 100 0 25 -29 7 -93 -57z"/>
<path d="M4297 2783 c-3 -21 -9 -72 -12 -113 -3 -41 -13 -99 -23 -128 -14 -45
-14 -54 -3 -62 10 -6 12 -20 8 -55 -6 -41 -5 -46 11 -43 13 2 18 16 22 53 6
58 11 59 80 15 55 -34 84 -43 110 -35 27 8 26 25 -1 25 -28 0 -179 89 -179
105 0 24 41 66 60 60 21 -7 84 48 77 67 -7 22 -58 10 -99 -22 -37 -30 -39 -31
-34 -8 5 22 19 157 18 168 -1 3 -7 6 -15 8 -10 2 -16 -9 -20 -35z"/>
<path d="M1300 2749 c0 -15 5 -20 22 -17 34 5 37 38 4 38 -20 0 -26 -5 -26
-21z"/>
<path d="M6352 2758 c-7 -7 -17 -38 -24 -70 l-12 -58 -68 0 c-63 0 -68 -2 -68
-21 0 -20 4 -21 65 -17 61 4 64 3 60 -17 -2 -11 -6 -45 -7 -75 -2 -43 0 -55
12 -55 9 0 17 15 22 45 19 117 15 109 53 103 39 -6 88 3 81 16 -3 5 -28 11
-56 15 -56 7 -58 12 -35 76 8 23 15 49 15 56 0 17 -22 18 -38 2z"/>
<path d="M10219 2674 c-18 -21 26 -42 79 -37 120 10 152 15 152 23 0 20 -215
33 -231 14z"/>
<path d="M4767 2663 c-4 -3 -7 -13 -7 -21 0 -12 16 -13 99 -8 65 5 106 4 120
-3 27 -15 41 7 16 26 -20 14 -215 19 -228 6z"/>
<path d="M8412 2629 c-33 -13 -27 -54 8 -54 15 0 24 5 23 13 -4 15 19 16 35 0
23 -23 11 -47 -47 -93 -67 -51 -83 -81 -55 -102 21 -15 68 -15 144 0 80 17 64
33 -30 28 -44 -2 -80 -1 -80 3 0 3 25 24 55 47 30 23 58 52 61 65 10 38 -4 72
-36 89 -33 17 -45 18 -78 4z"/>
<path d="M6978 2625 c-5 -5 -8 -14 -8 -22 0 -10 38 -13 187 -13 112 0 236 -6
309 -16 127 -16 189 -16 189 1 0 6 -18 11 -40 13 -22 1 -89 10 -150 18 -126
17 -476 31 -487 19z"/>
<path d="M5655 2610 c-27 -5 -101 -9 -163 -9 -102 -1 -113 -3 -110 -18 5 -26
74 -28 248 -8 163 18 183 23 175 36 -7 10 -77 10 -150 -1z"/>
<path d="M8797 2613 c-4 -3 -7 -13 -7 -21 0 -11 16 -13 88 -7 135 9 182 16
182 26 0 10 -253 13 -263 2z"/>
<path d="M9607 2572 c-38 -38 -49 -82 -22 -82 11 0 14 -12 12 -52 -2 -47 0
-53 18 -53 17 0 21 9 26 51 4 29 14 73 24 98 31 81 2 100 -58 38z"/>
<path d="M4831 2577 c-19 -7 -37 -18 -39 -26 -4 -11 3 -13 34 -7 22 5 72 11
113 14 46 4 76 12 79 20 5 16 -139 16 -187 -1z"/>
<path d="M10196 2541 c-14 -22 37 -34 131 -29 84 5 114 11 102 22 -11 10 -227
17 -233 7z"/>
<path d="M5453 2513 c-7 -2 -13 -11 -13 -20 0 -13 11 -14 68 -9 127 12 116
-24 -34 -115 -45 -27 -84 -55 -87 -63 -15 -39 56 -46 208 -21 50 8 93 15 98
15 4 0 7 7 7 15 0 18 -19 19 -128 4 -120 -16 -125 -11 -39 44 104 66 130 110
85 141 -22 15 -135 22 -165 9z"/>
<path d="M7160 2507 c0 -7 18 -43 39 -80 22 -36 35 -69 31 -72 -5 -3 -18 -25
-28 -48 -11 -24 -33 -59 -51 -79 -33 -38 -39 -58 -17 -58 19 0 89 78 105 118
7 17 17 32 22 32 4 0 20 -18 36 -40 19 -27 34 -39 48 -38 29 4 20 36 -24 83
-37 39 -85 113 -109 168 -12 28 -52 39 -52 14z"/>
<path d="M8075 1481 c-3 -5 17 -39 45 -76 66 -87 88 -133 106 -214 37 -175 -5
-354 -112 -480 -37 -42 -43 -61 -19 -61 16 0 95 102 125 160 59 118 73 307 31
434 -23 73 -67 148 -121 209 -33 38 -45 44 -55 28z"/>
<path d="M6471 1437 c-37 -46 -126 -317 -156 -477 -24 -130 -25 -312 -2 -365
20 -45 46 -77 57 -70 5 3 -2 24 -13 48 -19 37 -22 58 -22 177 1 155 16 241 77
430 60 185 81 230 107 223 16 -4 21 -1 21 15 0 31 -48 44 -69 19z"/>
<path d="M2905 1348 c-23 -51 -28 -78 -29 -143 -1 -65 2 -80 14 -80 12 0 16
18 21 77 5 54 15 95 33 131 31 64 32 77 7 77 -13 0 -26 -18 -46 -62z"/>
<path d="M4318 1393 c-26 -29 -85 -146 -91 -179 -9 -47 19 -68 82 -62 l49 5
-15 -44 c-15 -43 -12 -73 6 -73 5 0 17 24 27 53 24 73 61 144 80 155 20 11 12
42 -11 42 -8 0 -27 -19 -42 -42 -36 -55 -40 -58 -90 -58 -37 0 -43 3 -43 20 0
26 23 71 67 133 18 26 31 52 28 57 -9 15 -30 12 -47 -7z"/>
<path d="M4643 1380 c-25 -10 -43 -39 -43 -70 0 -30 32 -22 40 10 4 16 14 26
28 28 19 3 22 -1 22 -33 0 -32 -9 -46 -65 -104 -95 -98 -92 -102 61 -100 119
1 127 0 150 -22 20 -19 36 -24 82 -24 67 0 116 24 149 75 31 44 29 84 -3 117
-23 23 -31 25 -86 21 -54 -4 -65 -8 -88 -36 -15 -18 -32 -32 -39 -32 -6 0 -19
-16 -27 -35 l-14 -35 -102 0 c-97 0 -101 1 -80 16 13 9 41 38 62 66 33 41 40
58 40 93 0 34 -5 47 -22 59 -25 18 -33 19 -65 6z m388 -140 c40 -22 16 -95
-41 -125 -37 -19 -104 -19 -123 0 -21 20 -10 55 16 52 15 -1 20 4 22 22 4 49
76 77 126 51z"/>
<path d="M5310 1301 c-8 -5 -35 -27 -58 -49 -34 -31 -45 -50 -49 -81 -5 -34
-2 -43 22 -65 57 -53 169 -44 224 19 26 30 31 44 31 84 0 43 -4 53 -31 75 -23
20 -41 26 -77 26 -26 0 -54 -5 -62 -9z m120 -48 c28 -36 20 -77 -20 -118 -26
-26 -38 -30 -80 -29 -98 1 -117 64 -40 137 52 48 107 52 140 10z"/>
<path d="M9888 1193 c-34 -37 -62 -95 -83 -168 -9 -33 -20 -67 -24 -75 -14
-25 4 -121 24 -136 24 -18 29 -17 65 1 31 16 63 56 74 92 10 31 -32 73 -74 73
-36 0 -37 9 -9 83 21 54 81 136 78 107 -3 -31 2 -40 21 -40 15 0 20 7 20 29 0
16 -3 36 -6 45 -10 26 -57 19 -86 -11z m2 -253 c24 -13 16 -40 -20 -75 -35
-33 -52 -25 -47 24 5 60 24 74 67 51z"/>
<path d="M9363 1171 c-17 -11 -34 -28 -37 -39 -4 -10 -18 -24 -32 -31 -45 -20
-89 -155 -65 -199 14 -27 80 -45 127 -36 41 8 98 53 120 95 8 16 19 52 24 80
21 107 -56 180 -137 130z m81 -37 c22 -22 20 -99 -4 -151 -21 -47 -70 -83
-112 -83 -47 0 -58 9 -58 51 0 47 18 89 36 82 8 -3 19 10 29 33 31 75 75 102
109 68z"/>
<path d="M10167 1163 c-4 -3 -7 -15 -7 -26 0 -16 5 -18 33 -13 49 9 52 -3 11
-45 -42 -43 -40 -63 6 -72 38 -8 90 -57 90 -86 0 -42 -103 -91 -122 -57 -8 14
-13 15 -24 5 -8 -6 -14 -20 -14 -30 0 -46 117 -31 178 24 48 44 16 136 -58
167 l-30 13 25 25 c30 29 32 62 7 85 -18 17 -82 23 -95 10z"/>
<path d="M3614 1129 c-4 -7 -12 -30 -19 -53 -11 -37 -15 -41 -48 -44 -40 -3
-67 -26 -50 -43 7 -7 22 -7 45 -1 l35 10 -5 -45 c-4 -40 -3 -45 14 -41 14 2
20 13 22 38 4 45 25 60 84 60 36 0 48 4 48 15 0 12 -13 15 -55 15 -62 0 -68
10 -34 54 11 14 17 30 14 36 -8 14 -42 13 -51 -1z"/>
<path d="M8489 1117 c-28 -19 -34 -29 -34 -57 0 -28 4 -35 20 -35 14 0 20 7
20 22 0 13 7 30 16 38 13 13 19 13 54 -5 49 -25 91 -25 149 0 79 33 51 55 -33
25 -37 -13 -47 -13 -76 -1 -18 8 -36 19 -39 25 -11 17 -40 13 -77 -12z"/>
<path d="M6620 1111 c-30 -8 -33 -39 -7 -55 14 -9 21 -7 31 7 14 18 96 25 96
9 0 -14 -46 -53 -113 -96 -91 -60 -85 -72 38 -69 55 2 115 5 133 8 61 11 32
24 -59 27 l-91 3 61 43 c59 41 80 74 68 106 -9 23 -100 33 -157 17z"/>
<path d="M6968 1089 c-21 -11 -39 -25 -40 -32 -1 -6 -3 -28 -4 -47 -1 -19 -5
-47 -9 -62 -6 -21 -2 -32 18 -52 38 -38 91 -44 144 -16 102 54 112 176 18 216
-46 19 -83 17 -127 -7z m133 -35 c49 -44 -9 -157 -80 -157 -44 0 -77 33 -62
62 7 11 18 21 26 21 23 0 17 19 -9 31 -29 14 -24 34 13 54 31 18 86 13 112
-11z"/>
<path d="M2228 1079 c-28 -16 -23 -49 7 -49 14 0 25 5 25 10 0 6 37 10 91 10
67 0 90 3 87 12 -3 7 -15 15 -29 19 -38 11 -162 9 -181 -2z"/>
<path d="M7861 1043 c-61 -76 -23 -147 86 -160 118 -14 219 72 154 131 -21 19
-108 36 -148 28 -17 -3 -29 0 -35 12 -13 23 -34 20 -57 -11z m109 -35 c97 6
144 -33 88 -72 -78 -55 -215 -6 -179 63 8 13 17 19 24 14 7 -4 37 -6 67 -5z"/>
<path d="M7406 1021 c-15 -24 9 -31 102 -31 89 0 137 10 116 23 -20 11 -212
19 -218 8z"/>
<path d="M8521 1007 c-37 -19 -47 -41 -33 -72 17 -36 48 -30 44 8 -4 38 18 43
63 13 45 -31 131 -35 195 -10 69 28 46 54 -25 29 -69 -23 -107 -19 -150 15
-41 33 -58 36 -94 17z"/>
<path d="M4273 1002 c-28 -2 -43 -8 -43 -16 0 -11 36 -13 188 -10 394 8 1400
11 1462 4 65 -7 94 0 68 16 -12 8 -1573 13 -1675 6z"/>
<path d="M2836 979 c-33 -5 -64 -13 -70 -19 -17 -17 22 -22 87 -11 35 6 93 11
130 11 70 0 100 7 91 21 -6 11 -158 10 -238 -2z"/>
<path d="M2173 945 c-15 -11 -15 -13 5 -24 22 -12 181 -15 220 -5 44 12 20 24
-50 24 -40 1 -92 5 -115 9 -30 6 -48 5 -60 -4z"/>
<path d="M2800 875 c-20 -24 -2 -37 42 -30 43 8 98 -9 98 -30 0 -16 -24 -36
-82 -70 -31 -17 -48 -34 -48 -46 0 -17 8 -19 100 -19 97 0 184 20 166 37 -4 4
-46 6 -94 4 l-87 -3 43 32 c50 36 58 51 42 80 -25 46 -152 78 -180 45z"/>
<path d="M9525 860 c-3 -5 -4 -18 -1 -28 8 -25 -26 -76 -78 -114 -41 -30 -59
-58 -37 -58 16 0 130 89 146 114 21 31 16 90 -7 94 -9 2 -19 -2 -23 -8z"/>
<path d="M5603 815 c-32 -35 -51 -80 -39 -92 3 -3 23 -1 45 5 58 18 71 16 71
-13 0 -31 -38 -57 -77 -53 -20 2 -28 -1 -28 -12 0 -26 76 -25 109 1 63 50 51
115 -23 121 -36 3 -38 4 -26 21 10 14 33 20 102 25 50 4 87 11 86 17 -2 6 -44
11 -95 13 l-93 3 -32 -36z"/>
<path d="M4751 777 c-35 -18 -48 -43 -35 -64 16 -25 39 -22 38 4 0 17 8 25 33
34 63 20 83 -28 41 -100 -24 -42 -19 -71 11 -71 30 0 34 -16 10 -39 -17 -16
-26 -18 -36 -10 -16 14 -63 -13 -63 -37 0 -36 76 -23 130 23 37 31 39 65 4 90
-24 18 -25 20 -10 48 25 47 16 104 -18 127 -17 12 -79 9 -105 -5z"/>
<path d="M4405 760 c-11 -19 7 -32 36 -26 40 8 45 -9 15 -53 -38 -54 -34 -67
19 -75 87 -13 75 -65 -20 -90 -55 -13 -63 -30 -18 -34 45 -4 120 31 135 63 10
22 8 30 -8 52 -11 15 -34 31 -52 37 l-32 11 20 30 c23 34 26 65 8 83 -14 14
-94 16 -103 2z"/>
<path d="M5224 695 c-23 -35 -64 -151 -64 -180 0 -18 5 -25 19 -25 26 0 36 17
37 61 0 20 13 61 28 92 26 53 27 77 6 77 -5 0 -17 -11 -26 -25z"/>
<path d="M5390 692 c-20 -6 -78 -69 -96 -104 -25 -48 -18 -75 20 -88 68 -22
156 45 156 119 0 49 -40 86 -80 73z m39 -50 c12 -23 -9 -74 -40 -96 -26 -18
-69 -22 -69 -6 0 17 30 73 53 98 25 27 43 28 56 4z"/>
<path d="M5038 619 c-24 -14 -23 -49 1 -49 24 0 45 25 37 45 -6 17 -14 18 -38
4z"/>
<path d="M4640 456 c-40 -59 -21 -71 31 -20 43 42 50 64 19 64 -11 0 -31 -17
-50 -44z"/>
</g>
</svg>
