<svg height="2969.916534pt" preserveAspectRatio="xMidYMid meet" viewBox="0 0 1825.726628 2969.916534" width="1825.726628pt" xmlns="http://www.w3.org/2000/svg"><g transform="matrix(.1 0 0 -.1 -11 2999)"><path d="m1632 29953c-11-21-27-61-36-89l-17-51-88-6c-98-7-138-19-148-43-10-27 10-35 68-25 29 5 76 12 102 16 48 6 49 6 42-17-4-13-17-46-30-74-23-51-23-51-79-56-41-3-63-11-79-26-33-34-12-47 58-35l56 10-3-40c-2-29 2-42 15-51 15-9 23-5 50 24 18 19 39 45 47 56 11 16 29 23 71 27l57 5-16-49c-15-46-15-51 1-66 15-15 19-15 31-3 7 8 21 38 30 66 19 58 12 55 173 70 40 4 71 10 68 14-2 4-48 10-101 13-53 4-99 8-101 10-2 3 8 36 22 74l26 70 111 11c61 7 113 14 116 17 11 11-9 16-99 22l-95 6 23 47c33 70 34 95 3 95-21 0-30-11-59-72-34-71-36-73-71-73-21 0-58-3-84-6-57-8-58-1-15 84 33 66 32 82-6 82-18 0-29-10-43-37zm131-248-25-75h-45-44l19 28c11 15 29 36 41 46 20 18 29 46 15 46-4 0-36-30-71-67-36-38-67-63-70-57-4 11 31 121 42 132 3 3 35 9 73 12 37 4 72 8 79 9 8 1 3-25-14-74z"/><path d="m2625 29954c-11-2-45-9-75-15-62-12-100-41-100-75 0-33 36-41 63-15 22 20 121 51 163 51 19 0 17-9-37-119-60-123-67-131-132-131-38 0-67-17-67-39 0-30 26-44 71-38 35 5 40 3 33-11-4-10-8-30-8-47-1-23 3-30 19-30 19 0 27 12 58 86 13 30 23 38 64 49 26 8 81 26 121 42 40 15 75 28 77 28s1-26-2-58c-5-51-3-61 18-86 51-59 149-52 255 18 124 83 153 258 50 301-120 50-236 16-281-84-15-35-25-43-59-51-23-6-63-16-91-24-75-21-105-27-105-21 0 11 63 131 81 154 23 29 25 84 4 101-16 13-87 22-120 14zm556-150c39-35 11-141-48-182-68-46-168-67-192-38-12 15-4 106 10 106 5 0 9 11 9 24 0 15 17 43 43 71 42 47 42 47 100 42 36-3 66-12 78-23z"/><path d="m2345 29898c-49-62-70-81-142-135-56-41-73-59-73-78 0-35 35-32 79 5 19 16 36 28 38 26s-14-48-35-102c-49-123-58-160-42-179 22-27 47-17 74 29 30 52 31 56 11 56-8 0-15 4-15 8 0 12 94 231 119 277 11 22 31 52 42 67 12 15 19 33 16 42-10 26-43 18-72-16z"/><path d="m3412 29836c-52-17-82-42-82-68 0-10-7-33-16-49-8-17-18-52-21-79-5-45-3-51 26-81 31-31 34-31 97-26 156 12 308 150 266 241-25 56-181 91-270 62zm184-62c62-29 37-88-61-144-59-34-146-50-168-31-17 13-9 69 16 118 9 18 17 39 17 47 0 28 142 35 196 10z"/><path d="m6409 29346c-9-19-7-38 11-92 59-180 149-298 210-279 25 8 25 13-5-125-33-156-41-182-70-223-42-63-47-75-35-97 38-71 110 58 164 295 37 162 70 396 61 425-8 24-32 32-56 20-16-9-19-22-19-86 0-80-19-144-43-144-21 0-72 61-95 112-10 24-27 77-37 118s-22 81-28 88c-16 20-47 14-58-12z"/><path d="m5952 29308c-17-22-142-261-142-273 0-17 22-35 41-35 17 0 93 103 120 163 7 15 15 27 19 27 16 0 20-171 20-859v-724l-60 6c-65 6-90-6-90-43 0-36 25-49 88-43l59 6 7-154c22-458 29-873 37-2129 5-762 10-1446 12-1521 2-132 1-137-21-156-20-15-22-22-13-45 5-14 18-29 28-31 10-3 356-4 768-3 666 3 761 5 852 21 74 13 123 16 177 10 76-7 76-7 76-37 0-27 3-30 23-24 12 3 25 6 30 6 4 0 7 11 7 24s6 28 13 34c20 17 240 21 1597 32 1640 14 1932 14 2440 0 399-10 2156-28 3325-33 505-2 586 1 925 34 58 5 213 14 345 20 132 5 281 12 330 15l90 6-35-24c-19-13-41-36-49-52-12-25-11-30 6-48 19-19 21-18 110 18 102 40 133 63 133 99 0 44-44 81-138 115-48 17-103 40-122 50-19 11-45 24-57 31-19 10-26 9-43-6-22-20-27-67-7-83 6-5 32-16 57-23l45-13-60-8c-33-4-161-12-285-18-124-5-274-14-335-19-464-41-346-40-2590-22-654 5-1386 15-1625 21-239 7-613 12-830 11-672-1-2814-20-3028-26-195-7-204-6-239 15-34 20-44 21-222 15-102-3-229-10-281-15s-275-12-495-15c-348-5-397-4-381 8 25 19 33 118 17 213-12 65-27 99-63 140-19 21-18 22 231 285 137 145 327 336 422 424 417 387 492 459 644 610 89 88 210 203 270 255s156 138 214 191c205 185 418 366 576 489 178 138 519 366 725 485 74 43 162 94 195 115 272 168 982 532 1317 675l78 33 32-30c18-17 60-44 93-59 50-24 73-29 140-29 76 0 84 2 135 36 68 45 117 91 135 125 13 23 23 27 102 37 123 16 1228 28 1237 14 3-6 2-13-4-17-16-10-12-52 6-59 9-3 45 12 87 38 40 24 82 46 94 50 30 10 46 32 38 55-8 25-67 52-178 80-96 25-117 21-117-25 0-18 9-29 35-41 19-9 35-20 35-25 0-4-263-8-583-8-321 0-618-3-659-6l-75-7-6 33c-10 48-40 83-110 129-130 84-233 93-295 26-18-19-39-35-47-35-33 0-87-100-99-181l-7-46-172-78c-347-157-957-476-1287-672-47-27-140-82-207-121-389-228-800-538-1208-912-39-36-139-125-223-197l-151-133-3 63c-3 59-4 62-28 62-25 0-25-1-28-92l-3-93-122-123c-67-68-212-206-322-307-285-264-371-346-537-510-82-79-148-142-148-138 0 8 126 185 280 393 87 118 447 650 666 985 83 126 89 133 92 103 3-32 21-47 46-37 8 3 19 26 25 52 25 100 45 154 63 163 10 5 18 19 18 30s9 33 21 48c26 36 22 63-14 75-23 9-31 6-60-21-17-17-66-53-107-80-91-61-102-74-98-110 3-25 6-28 41-27 37 1 37 1 23-20-9-11-53-79-98-151-159-251-540-817-652-968-62-84-153-208-203-277-116-159-269-353-404-511-59-68-143-172-187-231l-81-108-5 118c-4 64-10 727-15 1472-5 778-13 1412-19 1490-6 74-14 291-17 483-6 331-6 347 12 348 10 1 53 0 96-1 72-2 77 0 77 19 0 20-5 21-95 21h-95v683c-1 375-3 718-7 762-6 77-5 79 13 65 11-8 21-18 24-21s25-18 49-33c68-43 72-19 9 55-98 117-111 138-105 168 3 16 1 33-6 40-15 15-82 14-95-1zm5597-1534c154-77 161-164 20-250-58-35-64-36-121-30-88 9-150 49-162 104-10 49-1 91 22 99 9 4 41 28 70 55 64 57 92 61 171 22zm-4799-3469c-7-9-15-13-18-10-3 2 1 11 8 20s15 13 18 10c3-2-1-11-8-20zm-235-419c35-59 47-201 21-241-9-14-14-30-11-35 4-6-48-10-139-10-141 0-146 1-146 21 0 21 79 131 115 160 11 9 42 47 70 83 27 36 53 66 57 66s19-20 33-44z"/><path d="m2590 29298c-118-4-408-9-645-12-504-7-581-17-541-71 12-16 18-17 57-7 45 11 629 20 1638 25 477 2 515 3 525 20 8 12 8 22 0 35-10 16-41 17-415 17-222 0-501-3-619-7z"/><path d="m4104 29188c-4-6-11-160-15-341-4-182-13-416-20-521-15-216-17-1986-4-3598 7-993 5-959 51-941 14 5 15 91 9 937-13 1600-11 3423 4 3571 13 137 25 817 15 873-6 32-26 42-40 20z"/><path d="m1609 28714c-10-12-10-25-2-57 16-62 31-175 43-323 5-73 15-144 21-158 16-33 52-43 83-22 24 15 167 224 189 275 17 41 100 171 108 171 5 0 13 9 19 19 12 23-10 51-41 51-20 0-83-89-134-191-15-29-59-99-98-157l-72-105-7 39c-4 21-7 80-7 131-1 127-20 293-37 321-17 26-46 29-65 6z"/><path d="m3208 28683c-8-10-21-36-28-58s-30-73-52-113c-35-64-43-72-61-66-12 4-36 10-52 14-108 25-256-126-242-247 10-90 71-127 141-84 33 21 113 101 154 156l23 30 17-25c60-87 131-132 172-110 39 21 39 66 1 75-29 6-51 27-110 103l-33 43 40 67c23 37 48 87 58 112 9 25 24 53 33 63 11 14 12 22 5 35-15 24-47 26-66 5zm-187-313c19-11 18-12-10-54-36-52-130-138-145-133-16 5-19 56-6 100 7 25 24 47 52 67 43 31 76 37 109 20z"/><path d="m11402 28647c-6-7-18-49-26-92-9-44-21-105-28-135l-11-55-24 75c-12 41-30 80-39 87-40 29-69-18-94-153-10-59-21-108-23-110s-13 44-25 102c-21 110-38 142-67 130-25-9-14-87 37-268 18-63 37-88 67-88 24 0 45 58 62 168 9 64 18 112 18 105 2-25 43-124 57-138 41-41 79-2 95 96 5 34 13 67 16 72s15-22 28-59c22-65 52-104 81-104 25 0 25 21 0 73-17 34-32 91-42 162-15 106-31 145-59 145-7 0-17-6-23-13z"/><path d="m15656 28648c-2-7-7-128-10-268-4-140-11-295-16-345-5-49-12-256-15-460-3-203-10-486-17-628l-11-259-36 69c-38 72-64 88-95 58-29-29-20-76 28-144 24-34 47-73 50-86 6-25 94-95 119-95 31 0 66 48 136 184 79 155 81 183 9 126-54-43-75-68-116-139l-33-56 5 200c3 110 10 414 15 675s14 520 21 575 13 213 14 350c1 250 1 250-22 253-12 2-24-3-26-10z"/><path d="m11631 28467c-31-16-46-40-37-62 4-12 13-16 29-12 78 20 77 20 77-2 0-12-11-48-25-81-32-77-34-143-3-164 31-22 43-21 159 19 109 37 149 58 149 78 0 17-111 11-194-9-32-9-60-13-63-10-3 2 7 34 21 70 30 74 34 147 10 170-19 19-89 21-123 3z"/><path d="m10833 28444c-3-9-1-39 6-66 6-27 9-54 6-59-3-4-22-11-43-15-55-10-74-22-70-47 3-19 9-22 43-22 22 1 54 4 71 8 31 8 32 8 38-37 7-48 47-106 72-106 18 0 18 17 1 66-8 22-17 57-20 79-6 39-5 40 43 70 74 43 66 77-12 50-24-8-46-15-49-15-4 0-9 19-13 42s-12 48-18 55c-15 18-47 16-55-3z"/><path d="m10332 28364c-23-16-46-53-73-119l-16-39-21 47c-23 51-55 68-98 49-18-9-28-27-40-71l-17-60-16 32c-13 27-22 32-51 32s-36-5-44-27c-8-23-6-32 12-50 25-27 52-124 52-185 0-64 23-113 53-113 14 0 29 6 35 13 5 6 14 78 20 159 12 170 23 206 41 132 25-103 40-121 85-104 16 6 29 24 41 57 45 129 61 167 72 170 13 5 26-32 53-147 29-119 44-150 74-150 14 0 27 4 30 9 5 8-24 141-61 278-26 94-74 127-131 87z"/><path d="m13047 28332c-23-25-22-26 18-71 19-21 59-85 88-142 71-138 77-147 108-160 37-15 68-3 75 29 19 89 62 201 101 263 24 40 42 78 39 86-7 17-57 17-77 1-26-21-76-109-105-183-15-38-30-74-34-78s-22 25-40 65c-57 128-72 155-97 182-28 31-53 33-76 8z"/><path d="m2098 28261c-24-12-40-15-47-8-20 20-58-2-75-43-34-85-13-184 46-220 61-37 127-17 182 55 61 79 71 161 27 206-35 35-79 38-133 10zm86-37c38-15 10-111-48-162-45-39-68-40-95-6-25 31-27 64-6 64 8 0 15 6 15 13 0 17 46 61 85 81 35 19 30 17 49 10z"/><path d="m10587 28253c-13-13-7-53 22-130 44-119 63-153 87-159 39-10 45 3 25 54-10 26-26 79-36 117-23 94-40 125-69 125-12 0-26-3-29-7z"/><path d="m13707 28083c-8-10-23-37-32-60l-17-43-50 45c-54 48-69 53-88 30-18-21-4-46 50-90 48-39 48-39 33-69-22-42-33-85-26-102 11-28 42-14 69 31l26 45 30-25c35-29 85-34 95-8 4 10 1 19-6 21s-28 18-47 34l-33 30 19 29c11 16 29 42 40 59 11 16 20 37 20 48 0 41-53 57-83 25z"/><path d="m2437 28063c-2-4-8-26-11-48-8-43-41-106-76-143-11-12-18-27-15-32 8-13 55-2 79 19 31 27 68 112 70 160 1 40-2 46-21 49-11 2-23 0-26-5z"/><path d="m5549 28013c-6-16-17-73-24-128-8-55-23-147-34-205-12-58-28-143-37-190s-20-107-26-133c-12-58 3-84 45-73 18 4 32 23 57 78 35 79 112 209 136 228 12 11 14 4 14-42 0-29-5-91-10-137-6-45-8-91-5-101 8-25 44-36 60-19 29 30 47 331 22 379-29 57-89 32-162-68-30-41-55-71-55-66 0 4 16 89 35 188 50 256 52 272 43 295-11 31-46 27-59-6z"/><path d="m16395 27662c-93-57-151-264-99-352 25-44 63-59 101-40 15 8 32 16 36 18s6-37 5-88l-3-92-51-18c-69-24-111-56-141-108-22-37-25-52-20-101 11-129 93-210 182-181 73 24 105 106 105 269 0 71 11 111 30 111 14 0 110 63 110 73 0 13-30 7-70-13-22-11-44-20-50-20s-10 53-10 152c0 127 3 154 17 170 14 15 14 24 5 56-6 20-14 55-17 76-7 41-60 106-86 106-8 0-27-8-44-18zm65-88c7-19 6-38-5-70-8-25-15-57-15-73 0-17-13-42-35-67-34-38-35-38-50-20-19 25-19 47 0 121 17 65 59 135 82 135 7 0 18-12 23-26zm-10-581c-1-158-39-250-94-225-35 16-56 52-63 109-5 46-3 52 28 88 28 32 93 72 122 74 4 1 7-20 7-46z"/><path d="m10783 27655c-33-14-41-29-24-40 5-3 51 0 101 7 72 10 90 16 88 28-4 21-121 25-165 5z"/><path d="m11050 27650c0-18 7-20 75-20s75 2 75 20-7 20-75 20-75-2-75-20z"/><path d="m8150 27641c-14-4-25-13-25-21 0-11 16-16 65-18 71-2 96 7 87 32-7 17-77 21-127 7z"/><path d="m8417 27644c-4-4-7-13-7-21 0-10 23-13 101-13 90 0 100 2 97 18-3 14-17 17-94 20-49 1-93 0-97-4z"/><path d="m8715 27640c-14-22 12-31 81-28 53 2 69 6 69 18s-16 16-72 18c-45 2-74-1-78-8z"/><path d="m9000 27630c0-20 5-21 98-18 78 2 97 6 97 18s-19 16-97 18c-93 3-98 2-98-18z"/><path d="m9300 27630c0-18 7-20 75-20s75 2 75 20-7 20-75 20-75-2-75-20z"/><path d="m9585 27640c-14-23 11-30 101-30 87 0 94 1 94 20s-7 20-94 20c-53 0-98-4-101-10z"/><path d="m9885 27640c-14-22 12-31 81-28 53 2 69 6 69 18s-16 16-72 18c-45 2-74-1-78-8z"/><path d="m10170 27630c0-20 5-21 98-18 78 2 97 6 97 18s-19 16-97 18c-93 3-98 2-98-18z"/><path d="m10470 27630c0-18 7-20 75-20s75 2 75 20-7 20-75 20-75-2-75-20z"/><path d="m7308 27621c-63-7-73-13-64-37 5-14 15-16 53-10 25 3 66 6 90 6 31 0 45 5 50 16 12 32-15 37-129 25z"/><path d="m7547 27624c-4-4-7-14-7-21 0-11 17-13 78-11 60 2 77 6 77 18s-16 16-70 18c-39 1-74 0-78-4z"/><path d="m7826 27615c-8-23 9-26 110-23 71 2 89 6 89 18 0 23-190 28-199 5z"/><path d="m6663 27594c-11-29 11-35 101-28 75 6 86 9 86 25 0 17-9 19-90 19-73 0-92-3-97-16z"/><path d="m6960 27590c0-20 5-21 73-18 56 2 72 6 72 18s-16 16-72 18c-68 3-73 2-73-18z"/><path d="m6380 27570c0-19 5-21 68-18 52 2 67 6 67 18s-15 16-67 18c-63 3-68 1-68-18z"/><path d="m3244 27448c-17-18-47-62-69-98-39-66-161-243-200-292l-22-26-7 71c-21 225-32 298-49 314-14 14-21 15-35 7-21-14-22-63-3-179 7-44 16-121 21-171 12-133 43-179 102-150 13 6 73 87 135 181 61 94 127 191 147 216 19 25 42 62 52 82 17 35 17 37-1 57-25 27-36 25-71-12z"/><path d="m2029 27282-79-79v39c0 56-15 78-51 78-42 0-65-14-130-77l-57-55 2 72c1 59-2 74-16 84-13 8-23 8-35 0-15-9-18-28-19-121-1-80-6-119-18-143-20-41-20-54-1-70 24-20 48-3 90 65 21 36 68 93 102 127l63 62v-39c0-22-7-67-15-100-19-79-19-82 6-95 27-15 45 1 109 95 46 67 119 149 126 142 2-2-3-46-10-98-32-219-30-259 13-259 26 0 46 26 33 43-11 13-5 76 18 212 13 77 13 151 0 176-20 36-50 22-131-59z"/><path d="m2355 27097c-72-42-124-104-110-127 11-17 48-11 73 13l24 22-6-25c-2-14-10-48-16-77-14-60-6-93 20-93 24 0 33 18 50 95 7 33 19 79 26 103 19 58 18 79-5 92-24 13-31 12-56-3z"/><path d="m3213 26983c-54-35-73-53-73-69 0-28 24-48 50-41 19 5 20 2 13-31-4-21-8-73-8-117 0-70 2-80 19-83 29-6 37 10 47 89 5 41 23 116 41 167 25 72 30 96 22 110-18 28-36 25-111-25z"/><path d="m2498 26903c-20-5-23-18-8-28 14-9 12-73-5-157-17-78-13-118 10-118 19 0 38 39 64 131 25 90 26 127 5 157-15 21-30 25-66 15z"/><path d="m6634 26245c-3-8 6-38 19-67 14-29 35-93 46-143 10-49 30-137 43-195 22-102 42-140 73-140 23 0 43 40 60 123 18 85 93 314 123 373 32 64 7 87-40 37-25-27-81-172-133-343l-23-75-10 55c-6 30-14 75-17 100-19 138-80 290-115 290-12 0-23-7-26-15z"/><path d="m2174 26064c-24-8-62-37-97-74-33-33-61-60-63-60s-4 15-4 34c0 39-33 86-61 86-35 0-75-28-133-92l-57-63 2 57c3 60-10 88-41 88-33 0-43-27-41-113s-17-180-45-222c-20-31-4-65 31-65 26 0 62 44 105 129 30 60 114 173 139 188 30 18 33 4 21-89-10-78-9-84 10-100 28-23 45-14 85 46 42 63 153 186 167 186 13 0 4-167-13-234-6-25-9-52-5-61 8-22 53-19 66 5 17 31 40 177 40 250 0 100-30 130-106 104z"/><path d="m7895 25867c-4-13-5-46-3-73 3-45 5-49 28-49s25 4 28 49c4 68-4 96-28 96-12 0-22-9-25-23z"/><path d="m7037 25787c-50-34-87-93-87-141 0-18 12-40 34-62 28-28 41-34 78-34 25 0 52 7 65 18 32 25 63 92 70 150 5 45 3 53-20 76-36 36-79 33-140-7zm106-65c-2-46-33-106-60-116-27-11-54 4-68 37-11 27-11 36 2 57 18 31 81 70 108 67 17-2 20-9 18-45z"/><path d="m2342 25748c-22-22-11-78 15-78 8 0 21 7 29 15 20 20 54 19 54 0 0-25-28-72-76-132-50-61-56-95-21-118 20-13 41-14 126-6 101 8 120 16 121 49 0 19-44 32-106 32-50 0-68 10-45 25 6 3 24 30 40 59 36 63 41 124 13 149-22 20-131 24-150 5z"/><path d="m7902 25298c-14-14-16-87-2-122 6-16 17-26 30-26 18 0 20 6 20 68 0 61-10 92-30 92-3 0-11-5-18-12z"/><path d="m1335 25248c-74-10-110-23-110-38 0-19 44-28 80-17 17 5 360 12 764 15 562 5 735 10 738 19 3 7-6 15-19 17-36 8-1397 12-1453 4z"/><path d="m3309 25210c-125-22-174-93-196-282-6-55 15-98 48-98 17 0 19 4 14 34-9 48 12 173 36 216 25 44 66 66 142 75 85 11 139-1 183-39 36-31 38-36 42-102l4-69-59-55c-33-30-94-86-136-123-43-38-96-96-119-130-37-54-42-68-46-133-4-68-3-74 21-98 30-30 53-33 85-10 27 19 28 35 2 52-15 9-20 23-20 55 0 63 58 145 177 248 151 132 178 185 154 298-22 104-95 160-214 166-40 2-93 0-118-5z"/><path d="m7915 24997c-3-12-5-56-3-97 3-73 4-75 28-75s25 2 28 83c3 84-6 112-34 112-8 0-16-10-19-23z"/><path d="m2029 24830c-74-22-119-89-119-178 0-58 24-100 80-138 24-16 61-46 84-66l41-37-37-15c-22-9-66-16-107-16-50 0-74-4-85-16-21-20-20-48 1-70 15-14 30-16 105-10 127 9 190 39 203 96 9 41-16 82-81 132-114 87-134 108-134 144 0 50 16 81 50 99 38 20 50 13 50-30 0-41 28-62 60-45 14 7 20 21 20 45 0 49-18 82-55 100-36 17-39 17-76 5z"/><path d="m7916 24704c-12-32-6-121 9-134 26-22 45 5 45 65 0 66-7 85-30 85-10 0-21-7-24-16z"/><path d="m2720 24543c-19-2-41-10-48-15-18-15-11-68 10-82 34-21 267 42 299 80 9 12 4 14-33 14-25 0-78 2-119 4s-90 2-109-1z"/><path d="m7916 24414c-3-9-6-48-6-89 0-80 16-109 45-85 11 9 15 33 15 85 0 86-6 105-30 105-10 0-21-7-24-16z"/><path d="m2307 24338c-40-24-57-60-40-87s44-24 75 8c74 76 110 6 43-83-20-25-39-46-43-46-15-1-112-99-112-114 0-9 9-25 20-36 38-38 216-20 233 24 7 19-7 30-60 48l-43 14 31 30c36 34 76 100 79 129 6 56-1 96-20 115-28 28-112 27-163-2z"/><path d="m3270 24240c-27-27-25-62 3-88 61-57 137 13 97 89-15 26-73 26-100-1z"/><path d="m17708 24203c-9-10-50-71-92-137l-77-119-29 28c-16 16-35 47-43 69-11 33-19 42-41 44-87 10-66-119 31-191l31-23-34-54c-33-53-40-82-28-128 9-31 24-24 38 19 13 37 76 128 89 129 4 0 38-15 75-34 111-56 232-87 232-59 0 10-50 45-148 104-57 34-102 64-100 68s36 54 76 113c58 85 78 107 102 112 21 4 30 11 30 24 0 46-81 70-112 35z"/><path d="m6902 24138c-15-15-16-45-2-53 11-7 13-45 4-68-4-12-11-11-42 5-70 35-148-6-177-93-31-93-4-159 67-159 50 0 88 20 124 65l29 35 52-17c43-13 55-14 67-3 9 7 16 18 16 25 0 13-59 70-80 77-10 3-10 12 0 42 28 84-14 188-58 144zm-66-214 24-16-26-33c-26-35-43-45-75-45-15 0-19 7-19 34 0 19 5 47 10 61 9 23 14 26 36 21 14-4 37-14 50-22z"/><path d="m7915 24107c-4-13-5-46-3-73 3-45 5-49 28-49s25 4 28 49c4 68-4 96-28 96-12 0-22-9-25-23z"/><path d="m7937 23843c-4-3-7-43-7-88 0-61 4-86 15-95 29-24 45 5 45 85 0 41-3 80-6 89-6 16-35 22-47 9z"/><path d="m5448 23715c-32-30-58-63-58-73s-7-42-15-72c-40-142-65-248-65-283 0-110 90-162 179-104 135 89 203 262 171 434-11 59-19 74-55 111-59 59-84 57-157-13zm123-51c16-26 24-57 27-109 8-127-39-231-136-299-51-36-75-28-80 26-8 95 115 418 159 418 4 0 17-16 30-36z"/><path d="m3968 23673c-18-18-44-29-80-35-129-22-734-52-1353-67-203-5-478-14-610-21-132-6-362-12-512-13-202-2-275-5-285-14-9-10-9-16 1-25 16-17 400-21 631-8 333 19 581 30 835 35 143 3 386 11 540 16 154 6 377 14 495 19 219 8 298 17 337 38 28 15 84 83 77 94-11 17-50 7-76-19z"/><path d="m7650 23328c-12-13-65-110-118-216-97-192-97-192-115-170-25 32-69 120-102 203-52 133-78 184-96 190-26 9-59-12-59-37 0-18 60-151 148-326 15-30 45-74 68-98 35-38 46-44 81-44 48 0 53 6 107 130 73 166 127 273 152 303 36 42 30 81-13 85-22 2-37-3-53-20z"/><path d="m7680 23011c-15-30-13-36 35-109l46-69-26-54c-13-30-25-67-25-82 0-56 53-40 87 28l16 30 16-25c35-53 56-71 74-65 26 11 21 50-15 115l-31 58 41 66c45 70 51 96 27 116-22 18-61-1-83-41-36-64-36-64-62-12-13 26-28 51-34 55-21 14-55 8-66-11z"/><path d="m13993 22821c-38-27-129-156-202-284-18-32-37-55-42-50-4 4-15 49-24 98-32 173-46 216-71 227-19 9-28 8-44-7-25-22-25-35-1-77 10-18 22-51 25-73 4-22 21-89 37-150 31-111 52-145 89-145 24 0 64 49 102 124 42 85 115 203 157 256 68 85 65 79 51 95-18 21-32 19-77-14z"/><path d="m6048 22760c-7-11-20-20-29-20-16 0-23-12-91-155-41-84-46-110-23-119 23-8 41 2 56 32 7 15 21 37 30 49 16 21 17 18 23-75 3-53 9-190 12-304l7-208-29-2c-16-1-45 0-65 1-60 4-90-46-52-84 16-17 28-17 111 1 32 6 32 6 33-32 0-22 2-52 5-69 2-16 6-266 9-555s10-655 16-815c10-282 7-398-20-965-4-80-9-327-10-550s-6-434-11-470-10-176-10-312c0-248 0-248-22-248-57-1-63-46-7-57 31-6 31-6 24-61-4-30-9-61-12-69-4-9 5-13 30-13 32 0 35 3 41 38 3 20 6 52 6 70v32h634 633l-5-25c-7-41 6-72 42-94 79-49 197-5 226 85l11 33 1032 6c568 3 1393 7 1835 10 721 5 802 4 802-10 0-26 31-30 49-8 16 21 16 21 2877 26l2861 6-45-47c-63-66-83-101-71-124 5-10 15-18 22-18 7 1 52 41 102 90 53 53 101 92 117 95 21 5 33 18 48 52 37 84 28 96-110 146-52 19-126 49-164 67-81 37-110 37-114-2-3-25 4-30 100-76 107-51 185-112 172-133-6-10-276-11-1203-6-658 4-1955 7-2882 7h-1686l-6 30c-9 42-45 42-53 0l-6-29-777-6c-427-3-1250-7-1829-10l-1052-6-34 27-33 27 17 56c18 56 94 269 192 536 53 146 127 297 205 419 56 87 90 161 132 287 31 93 58 140 214 365 47 68 167 204 241 273 64 61 222 248 287 340 122 175 372 462 499 573 200 176 454 372 635 492 72 47 157 105 190 129 185 135 468 293 646 360 35 14 110 44 166 67l101 42 67-71c37-39 75-71 84-71 13 0 16-13 16-77 0-77 0-78 25-78 24 0 25 3 28 73 3 78 7 81 58 62 23-9 31-7 48 9 20 20 20 21 0 42-19 21-19 21 16 48 65 49 122 106 132 130 15 42-8 69-99 113-46 22-83 46-83 54 0 7 18 25 40 39 45 28 51 54 20 85-17 17-33 20-102 20-138-1-210-54-237-176-11-49-14-52-49-58-20-4-341-9-712-12l-675-5 29 23c17 13 53 34 80 48 44 22 51 29 51 55 0 44-23 43-125-9-113-57-166-99-180-142-18-55 2-83 80-109 36-12 90-36 120-53 56-32 140-53 140-35 0 16-136 123-173 136-47 17 81 23 631 29 345 4 658 10 696 14 51 5 68 4 65-5-4-10-157-82-284-133-159-63-459-228-595-327-36-27-112-79-170-118-260-173-349-238-545-403-240-201-450-421-616-644-161-217-188-249-367-440-178-190-211-231-345-431-58-86-83-136-115-227-47-134-67-175-129-272-93-144-123-213-252-576-27-75-67-185-89-245-22-61-46-129-53-152-11-38-17-44-58-58-25-9-59-23-74-31-24-12-133-14-674-14h-644l5 268c3 147 10 526 15 842 4 316 14 685 22 820 7 135 13 322 12 415-1 341-23 1562-29 1622-6 59-5 61 17 65 35 5 37 41 4 56l-26 12 1 173c1 94-3 199-9 232-12 69-13 190-2 220 7 18 9 18 23-10 22-42 97-125 113-125 25 0 28 41 5 72-57 78-80 119-91 164-18 77-27 94-49 94-11 0-25-9-32-20zm5277-627c-34-78-9-118 96-159 38-14 69-29 69-34s-23-28-51-52c-29-24-67-58-85-76s-35-28-39-22c-3 5-13 10-21 10-18 0-93 51-94 63 0 4 9 7 20 7 23 0 42 32 33 56-6 15-1 17 46 11 59-7 77 9 46 43-15 16-31 20-92 20h-73v30c0 68 49 120 113 120 34 0 38-3 32-17z"/><path d="m10368 22743c-9-10-18-43-22-73-14-131-25-193-35-203-18-18-13-45 11-61 31-22 54-5 86 67 27 58 102 147 124 147 13 0 1-99-18-157-15-44-11-68 12-77 25-10 43 5 83 67 21 34 59 81 84 105l44 43 6-29c4-17-2-59-12-96-15-55-16-69-5-83 34-46 85 60 87 180 1 56-3 71-20 88-27 28-48 20-123-42l-60-50v34c0 46-33 87-69 87-17 0-46-14-72-35-50-39-59-31-34 26 17 37 17 40 0 59-22 25-47 26-67 3z"/><path d="m6321 22712c-14-26 5-167 28-216 34-68 105-94 142-50 18 22 27 17 38-23 20-70 18-73-51-73-75 0-133-24-171-69-30-37-34-66-13-116 57-136 261-67 306 105 13 46 6 153-12 200-5 14-15 54-22 89-13 70-33 94-63 75-11-7-19-26-21-50-3-47-20-84-39-84-25 0-46 70-40 136 2 34 0 68-5 78-12 22-65 21-77-2zm219-422c0-27-43-90-73-109-41-25-74-27-99-4-39 36-12 74 74 104 60 21 98 24 98 9z"/><path d="m12273 22659c-18-11-42-37-54-56-21-33-23-34-30-15-11 30-54 55-82 48-35-8-71-40-106-92l-30-46-3 59c-3 54-5 58-28 58-25 0-25 0-25-112 0-91 3-115 16-129 28-27 52-8 94 72 22 42 51 88 65 103l25 26 8-73c8-64 11-73 33-78 40-10 54 2 87 78l32 73 10-95c10-92 11-95 35-95 23 0 26 5 32 55 16 141 4 231-32 237-8 2-29-6-47-18z"/><path d="m12431 22596c-14-17-11-266 4-266 6 0 20 7 32 15 18 13 22 29 28 118 8 112-1 147-34 147-10 0-24-6-30-14z"/><path d="m10892 22565c-29-13-33-19-30-47 2-28 7-34 31-36 16-2 40 4 53 13 14 9 35 15 47 13 17-2 23-11 25-40 3-31-2-40-31-62-19-14-37-26-40-26-16 0-102-62-108-78-9-23 6-58 28-70 10-6 54-13 98-17 71-5 83-4 105 15l25 20-22 19c-12 10-43 22-68 26l-47 6 44 28c54 35 87 71 89 96 11 114-18 155-108 155-32-1-73-7-91-15z"/><path d="m14025 22557c-15-12-18-32-22-138-5-137 4-179 37-179 26 0 35 25 43 116 4 39 14 90 22 114 19 54 19 56-5 80-23 23-49 26-75 7z"/><path d="m8917 22348c-8-18-26-60-39-93-51-125-112-245-122-242-6 2-29 39-51 83-22 43-62 116-89 162-46 78-51 83-80 80-48-5-44-31 21-127 33-47 71-111 86-141 39-80 93-149 122-156 32-8 50 7 80 65 47 95 135 331 135 365 0 31-3 36-24 36-17 0-28-9-39-32z"/><path d="m5512 22258c-7-7-12-25-12-41s-20-91-44-166c-106-324-112-364-62-377 38-9 61 3 123 65 136 138 186 162 199 96 3-20-1-66-11-110-18-83-13-130 15-145 32-17 40-11 40 33 1 23 7 69 15 102 20 82 19 143-4 185-21 40-35 45-97 35-36-5-62-21-141-87-53-44-94-74-91-66s16 50 28 93c12 44 40 124 62 178 44 111 59 194 37 208-20 12-43 11-57-3z"/><path d="m11855 22239c-22-4-52-6-66-3-21 4-33-3-63-36-43-48-56-77-56-129 0-45 8-50 123-75 20-5 27-12 27-29 0-21-33-54-149-149-45-37-16-82 40-61 21 8 30 7 43-5 11-11 42-17 105-20 119-6 206 21 269 84 24 24 58 47 75 53 18 5 129 12 247 15 118 2 328 11 465 20 163 10 414 16 724 16h475l-27-28c-32-33-34-57-7-72 16-9 26-7 49 9 16 12 60 35 97 52 115 51 129 77 69 126-71 59-302 107-334 70-22-27-10-60 24-67 108-22 45-27-442-33-279-4-566-11-638-17-71-6-260-14-420-19-159-4-297-11-306-15-14-6-17 1-21 41-5 48-72 197-106 237-37 42-106 54-197 35zm137-86c9-10 32-52 52-94 31-64 37-85 34-130l-3-54-60-29c-47-23-74-30-127-30-36-1-69 2-73 6s9 22 28 41c48 45 60 78 47 128-11 40-48 67-113 83-36 9-43 28-21 61 13 20 23 25 43 20 14-3 33-1 41 5 8 5 42 10 76 10 46 0 65-4 76-17z"/><path d="m15619 22088c-9-16-10-114-4-392 11-511 12-952 1-1200-9-205-9-208-27-185-10 13-19 28-19 32 0 23-33 76-50 80-22 6-60-18-60-38 0-23 61-138 97-183 86-105 133-93 186 48 26 71 55 220 44 227-5 3-13-1-17-8-4-8-28-44-52-82l-43-67-3 112c-2 62 2 181 8 263 8 109 8 246 1 505-6 195-11 473-11 617s-3 268-6 277c-9 23-31 20-45-6z"/><path d="m7422 21978c-13-6-21-19-20-27 6-28 153-9 153 20 0 18-100 23-133 7z"/><path d="m7685 21979c-14-22 14-30 106-27 76 2 94 6 94 18s-19 16-97 18c-63 2-99-1-103-9z"/><path d="m7985 21979c-5-7 1-19 15-31 30-24 135-23 135 2 0 10-14 18-40 22-22 4-54 10-71 14-21 4-34 2-39-7z"/><path d="m9205 21980c-14-23 13-31 91-28 62 2 79 6 79 18s-17 16-82 18c-52 2-84-1-88-8z"/><path d="m9040 21962c-41-20-55-62-21-62 11 0 32 5 46 12 22 10 28 9 36-3 16-26 9-46-46-130-72-109-74-117-39-147 27-24 31-24 149-19 121 6 216 24 222 44 4 10-64 20-219 32l-86 6 39 65c46 77 55 116 39 165-18 54-60 67-120 37z"/><path d="m6520 21950c0-19 7-20 100-20s100 1 100 20-7 20-100 20-100-1-100-20z"/><path d="m6815 21960c-14-22 13-31 86-28 58 2 74 6 74 18s-16 16-77 18c-49 2-79-1-83-8z"/><path d="m7105 21959c-14-22 14-30 106-27 76 2 94 6 94 18s-19 16-97 18c-63 2-99-1-103-9z"/><path d="m8265 21959c-14-22 14-30 106-27 76 2 94 6 94 18s-19 16-97 18c-63 2-99-1-103-9z"/><path d="m6290 21953c-87-8-77-46 11-44 69 1 89 8 89 32 0 20-1 20-100 12z"/><path d="m11262 21438c-12-12-17-104-6-132 3-9 14-16 24-16 23 0 30 19 30 84 0 46-12 76-30 76-3 0-11-5-18-12z"/><path d="m16215 21169c-42-37-65-106-65-196 0-74 19-119 56-133 44-17 78-11 115 20l36 29 7-37c13-84 9-98-37-125-108-64-195-201-204-321-18-267 238-176 301 106 8 35 17 101 21 148 5 66 11 90 28 107 21 24 17 38-11 38-29 0-40 160-17 245 5 21-1 34-35 73-75 85-134 99-195 46zm105-69c41-41 16-153-42-189-43-27-63 15-48 102 12 76 28 103 63 106 4 1 16-8 27-19zm50-472c0-53-25-158-46-199-21-42-83-109-100-109-42 0-40 110 3 194 24 48 117 156 134 156 5 0 9-19 9-42z"/><path d="m11270 21067c0-80 3-96 17-101 9-4 23 0 31 8 12 12 13 29 6 98-8 75-11 83-31 86-22 3-23 1-23-91z"/><path d="m11292 20850c-4-11-5-46-2-77 4-51 8-58 28-61 21-3 22 0 22 65 0 64-10 93-32 93-5 0-12-9-16-20z"/><path d="m11294 20567c-3-8-4-52-2-98 3-82 4-84 28-84s25 2 28 83c3 85-6 112-35 112-7 0-16-6-19-13z"/><path d="m11296 20264c-3-9-6-37-6-64 0-61 7-80 30-80s30 19 30 80-7 80-30 80c-10 0-21-7-24-16z"/><path d="m11297 19984c-4-4-7-44-7-89 0-61 4-86 15-95 12-10 18-10 30 0s15 31 13 99c-3 78-5 86-23 89-12 2-24 0-28-4z"/><path d="m11302 19688c-13-13-16-87-6-126 5-16 13-22 28-20 18 3 21 11 24 66 4 78-15 111-46 80z"/><path d="m11315 19397c-3-7-5-52-3-98 3-78 5-84 25-87 30-4 38 30 27 121-7 56-13 73-27 75-9 2-19-3-22-11z"/><path d="m11316 19094c-12-32-6-121 9-134 26-22 45 5 45 65 0 66-7 85-30 85-10 0-21-7-24-16z"/><path d="m11317 18814c-4-4-7-44-7-89 0-61 4-86 15-95 12-10 18-10 30 0s15 31 13 99c-3 78-5 86-23 89-12 2-24 0-28-4z"/><path d="m17619 18610c-9-5-28-36-43-70-15-33-30-60-34-60s-37 29-72 65c-51 51-71 65-90 63-18-2-26-10-28-28-2-20 13-38 83-99 64-54 84-78 79-90-9-22-48-141-75-229-40-131 8-100 81 53 26 55 50 108 54 119 5 16 16 9 72-48 55-56 70-66 99-66 19 0 35 3 35 6 0 4-24 32-54 63-29 31-67 72-84 91l-30 35 25 60c14 33 31 67 38 75 14 17 9 40-13 58-19 14-22 14-43 2z"/><path d="m11321 18516c-7-9-11-40-9-78 3-60 4-63 28-63s25 3 28 63c3 59-7 92-28 92-4 0-13-6-19-14z"/><path d="m11316 18224c-3-9-9-54-13-101-6-85-6-85 17-81 21 3 26 12 38 77 7 41 11 85 7 98-6 27-40 31-49 7z"/><path d="m5500 17894c-70-59-113-198-112-361 1-108 15-158 54-200 54-57 144 4 199 135 28 66 33 92 37 183 6 130-12 204-59 243-39 33-79 33-119 0zm77-42c24-15 43-82 43-149 0-118-42-242-98-297l-30-28-19 28c-15 23-18 47-17 129 1 99 7 120 47 178 10 15 9 20-4 30-15 11-15 15-2 42 16 32 52 75 62 75 3 0 11-4 18-8z"/><path d="m11282 17647c-16-19-34-109-30-149 2-28 7-33 28-33 23 0 25 4 31 65 4 36 10 73 14 83s2 24-5 32c-15 18-24 19-38 2z"/><path d="m7655 17362c-99-35-116-44-183-95-64-49-86-87-78-132 8-41 61-89 113-105 56-17 209-25 217-12 9 15-19 28-120 58-95 27-129 42-119 52 4 4 124 10 268 14 144 3 384 12 532 19 188 9 646 13 1500 14 1063 0 1238-2 1291-15l62-15-39-44c-44-49-48-67-18-76 15-5 32 1 59 21 199 150 208 161 179 212-12 22-29 28-129 48-63 13-136 24-163 24-41 0-49-3-59-25-9-21-8-28 7-45 18-20 18-20-1101-21-615 0-1146-2-1179-5-105-8-622-26-880-30l-250-4 110 55c127 64 155 87 139 113-17 27-71 25-159-6z"/><path d="m8989 17001c-72-23-114-55-139-106-48-100-16-141 133-169 109-20 153-44 179-95 20-41 12-63-35-91-36-22-146-28-193-10-55 21-100-44-56-82 28-26 56-29 140-19 111 14 156 35 198 90 30 39 35 52 31 83-3 21-15 53-27 73-37 60-79 84-197 112-59 14-112 29-117 34-15 13 4 60 36 89 51 47 183 67 232 35 31-21 58-10 54 23-6 50-132 67-239 33z"/><path d="m9341 16547c-47-18-61-41-39-64 15-15 22-15 59-3 22 8 62 14 88 14 39 1 46-2 49-20 3-23-77-108-126-133-40-20-82-62-82-82 0-10 7-25 16-33 33-34 264-13 264 24 0 15-68 40-107 40h-34l53 47c29 25 61 58 70 72 25 37 23 85-6 118-22 25-31 28-97 30-42 1-89-3-108-10z"/><path d="m18072 15598c-20-20-14-55 16-80 78-65 160-201 189-311 23-90 23-275-1-352-39-131-111-261-175-319-29-26-26-34 14-42 44-8 54 0 116 94 122 186 164 412 118 634-27 127-183 379-239 386-14 2-31-3-38-10z"/><path d="m1373 15586c-63-20-107-51-170-121-125-136-192-297-223-530-14-105 3-259 35-332 23-51 101-145 137-164 58-31 178-77 183-69 3 4-33 29-79 54-90 49-126 86-174 178-24 46-30 71-36 159-15 227 56 470 184 630 62 77 116 122 176 145 45 17 59 46 28 58-9 3-16 6-17 5-1 0-21-6-44-13z"/><path d="m3807 15533c-16-15-4-35 53-89 81-77 115-131 149-238 39-121 55-262 48-400-11-185-55-312-136-391-70-68-44-79 32-13 60 51 92 101 124 192 39 116 49 246 30 412-28 241-77 358-201 477-55 53-83 67-99 50z"/><path d="m15532 15492c-92-98-192-335-226-532-27-151-32-324-13-391 31-105 101-173 173-167 40 3 47 21 10 26-28 4-80 52-104 97-34 66-20 324 29 510 44 168 137 354 209 418 29 26 30 30 17 50-24 37-54 33-95-11z"/><path d="m502 15455c-39-33-58-81-79-207-15-89-17-149-13-443 8-653 5-1315-8-1445-37-364-111-778-163-914-40-105-50-124-93-175-20-24-36-54-36-67 0-31 51-133 79-158 31-28 75-111 99-186 57-181 73-392 63-870-13-668 0-890 74-1283 28-147 131-466 175-544 40-70 69-89 107-71 29 14 62 62 50 74-4 4-18-2-30-15l-24-22-40 88c-179 389-257 902-236 1558 13 415 8 821-11 940-29 180-81 329-136 390-21 23-60 99-60 116 0 6 9 22 20 36 40 51 101 235 135 407 41 208 90 550 106 746 13 162 16 572 9 1275-4 407-2 482 12 562 18 98 42 157 61 150 7-2 11-17 9-36-4-40 12-61 48-61 39 0 54 22 46 71-16 98-98 140-164 84z"/><path d="m15918 15399c-49-22-62-40-53-70 10-31 48-33 90-5 50 34 115 37 115 4 0-53-102-168-150-168-24 0-40-20-40-51 0-35 41-53 103-44 78 12 140-37 151-119 8-63-6-112-45-159-43-52-94-75-189-86-87-10-139-2-160 24-11 13-8 17 19 28 37 14 41 27 7 27-14 0-28 5-31 10-9 14-58 12-77-2-59-47 10-144 120-169 21-4 76-4 126 1 146 15 232 68 292 180 14 27 18 56 18 120 0 116-24 157-122 213-42 24-42 24-21 43 69 62 97 187 50 225-33 27-139 26-203-2z"/><path d="m16640 15399c-121-50-200-198-231-438-26-192 46-330 184-355 43-8 136 8 182 31 33 17 75 52 75 64 0 15-89 21-160 10-119-19-164 9-190 118-34 141 42 408 135 473 68 48 117 21 67-35-16-18-15-20 3-33 29-21 43-17 65 19 43 69 12 142-65 152-22 2-51 0-65-6z"/><path d="m17232 15358c-7-7-12-30-12-52 0-23-9-99-21-171-25-158-39-379-26-418 19-57 90-62 205-16 125 49 206 146 271 324 8 23 9 1 5-100-10-210-9-231 9-258 22-34 72-45 98-21 26 23 24 39-7 61-16 12-26 29-26 44 0 78 24 325 37 389 25 115 18 160-26 160-31 0-66-61-104-185-46-148-74-202-139-264-68-64-207-116-246-91-29 18-16 205 31 440 28 136 23 170-21 170-9 0-21-5-28-12zm435-300c-3-8-6-5-6 6-1 11 2 17 5 13 3-3 4-12 1-19z"/><path d="m4720 15302c-55-57-126-192-171-326-38-113-39-113-64 59-16 104-51 257-67 288-5 10-20 17-38 17-23 0-31-5-36-25-3-14-1-38 4-53 23-57 52-170 62-242 21-139 70-270 105-284 21-8 51 9 65 34 6 11 20 61 30 111 33 155 121 340 195 409 36 34 33 60-7 60-25 0-42-10-78-48z"/><path d="m12528 15313c-33-8-31-47 6-120 37-75 61-158 97-343 20-101 26-119 55-147 63-64 79-48 198 207 53 113 117 240 141 282 50 87 54 103 25 118-43 23-77-22-206-272-57-111-108-206-113-211s-14 21-21 60c-26 148-63 281-94 342-33 67-59 91-88 84z"/><path d="m9692 15298c-16-16-15-32 8-105 11-35 31-130 44-213 26-154 39-187 81-210 43-23 68 5 150 176 74 154 122 236 164 283 26 30 26 37 0 52-46 24-106-52-219-278-39-79-75-143-79-143-5 0-16 53-25 118-26 174-44 270-57 295-20 37-45 47-67 25z"/><path d="m1472 15254c-32-22-38-38-62-169-11-65-32-152-46-193-18-55-22-78-14-92 15-28 58-26 70 3 68 168 106 241 151 287 26 27 53 50 60 50 12 0 8-160-5-192-5-11 0-24 13-37 30-30 49-17 97 65 39 67 143 174 170 174 10 0 13-7 9-22-13-63-45-270-45-296 0-32 25-65 43-59 7 2 15 21 19 43 3 21 19 107 34 190 24 134 25 154 13 180-11 23-21 30-53 32-44 4-82-18-163-95l-53-49v46c0 58-21 90-61 90s-65-14-118-64c-26-24-41-33-37-23 3 10 6 27 6 38 0 12 10 23 25 29 31 12 34 54 6 70-26 13-33 13-59-6z"/><path d="m6858 15219c-10-5-18-20-18-33 0-12-19-62-42-109l-43-87-38 26c-54 39-107 37-188-7-45-25-69-45-81-70-34-65-17-169 31-193 80-40 141-27 222 50 33 32 60 51 64 45 3-6 37-29 76-52 60-36 75-41 110-36 85 11 75 30-64 122-37 25-70 51-73 59-3 7 20 61 50 120 57 107 66 142 44 164-14 14-27 15-50 1zm-187-290c16-17 29-35 29-39s-20-26-44-48c-68-63-137-66-152-5-11 43 7 76 56 101 59 29 76 28 111-9z"/><path d="m3105 15168c-28-29-61-66-73-83l-22-30 7 30c12 51 9 69-11 73-10 2-22 0-28-6-5-5-22-68-38-140s-34-140-40-152c-9-16-8-25 1-36 24-30 48-16 80 49 55 108 106 190 149 240 23 26 45 47 49 47 10 0 5-34-21-143-25-102-19-142 22-142 21 0 38 20 101 113 78 117 124 171 135 160 13-14 5-149-15-232-25-105-26-125-5-133 25-9 37 11 61 109 33 136 39 234 16 278-38 74-112 44-194-80-29-43-54-78-55-77s5 35 13 75c20 97 8 132-45 132-29 0-44-9-87-52z"/><path d="m2561 15201c-15-10-30-76-31-137 0-49-10-54-107-54-42 0-66-5-77-16-19-19-20-25-2-49 11-16 22-17 93-12l80 6-5-69c-4-58-2-70 10-70 16 0 43 60 54 123 4 27 12 38 28 41 11 2 44 9 71 16 28 6 62 14 78 17 15 3 27 11 27 18 0 18-38 23-121 17-70-5-70-5-65 19 3 13 8 41 11 62s8 44 11 51c3 8-2 21-11 30-19 18-24 19-44 7z"/><path d="m5230 15142c-68-68-111-260-73-332 40-76 147-97 254-48l54 24 54-28c93-49 191-31 259 46 87 99-5 213-180 224-72 4-78 3-102-21-14-15-26-38-26-52 0-15-6-25-14-25-17 0-26-22-26-66 0-48-35-69-116-69-71 0-100 18-109 69-7 37 24 160 52 208 23 40 59 49 80 19 17-24 45-27 63-6 29 35-33 95-99 95-25 0-42-9-71-38zm394-172c73-12 126-49 126-89 0-44-62-91-120-91-29 0-103 31-113 47-10 15 5 63 19 63 18 0 18 9-1 31-14 15-14 18 0 33 19 19 14 18 89 6z"/><path d="m9041 15147c-19-6-65-40-103-75-57-54-68-61-68-43 0 12-11 33-26 47-21 22-31 25-62 19-50-9-119-48-178-100l-49-43v57 56h-35c-33 0-35-2-38-35-4-54-43-201-63-239-22-41-11-71 26-71 18 0 37 19 83 83 33 45 85 106 116 135 54 51 132 96 148 86 14-9 9-119-7-140-19-25-19-73 0-80 36-14 60 6 104 86 68 122 178 217 213 182 19-19 22-161 5-223-16-61-9-89 22-89 10 0 23 6 28 13 38 48 48 257 17 323-16 34-59 65-86 63-7-1-28-6-47-12z"/><path d="m11805 15068c-28-29-65-71-83-93l-32-40v55c0 67-19 100-59 100-34 0-111-48-175-108l-48-47 5 69c7 75-3 106-33 106-28 0-35-17-36-90-1-78-20-191-42-243-19-46-8-72 29-72 19 0 30 13 59 68 46 90 108 168 167 211 26 20 52 36 57 36 4 0 5-37 2-82-12-154-12-160 5-171 27-17 47-1 97 76 66 101 139 195 162 207 16 9 22 6 37-17 23-35 29-149 13-220-15-60-6-80 29-68 36 11 53 69 52 172-2 104-10 135-49 176-20 20-35 27-65 27-35 0-47-7-92-52z"/><path d="m6050 15103c-40-6-114-34-132-51-23-19-23-60-1-84 9-10 42-26 72-35 31-8 74-25 96-36 97-48 63-87-100-110-71-11-80-15-83-34-3-17 3-24 23-29 45-11 150 6 213 36 68 32 80 59 55 122-17 43-60 72-158 109l-60 23 44 13c38 11 49 10 74-2 37-18 57-6 57 35 0 19-7 30-25 38-26 12-30 12-75 5z"/><path d="m7572 15079c-26-10-38-49-23-78 15-28 61-34 194-28 101 4 165 17 315 63 7 2 10 8 7 14-4 6-77 10-188 10-120 0-199 5-232 14-30 8-60 10-73 5z"/><path d="m10545 14946c-33-50 9-75 156-92 78-8 249 36 249 65 0 4-62 11-137 14-89 3-154 11-182 21-58 21-68 20-86-8z"/><path d="m2119 14903c-6-16-22-78-36-139-31-130-27-167 15-162 22 2 27 8 28 33 2 28 44 160 74 232 17 39 2 63-41 63-23 0-32-6-40-27z"/><path d="m9412 14898c-14-18-42-180-42-248 0-51 12-80 31-80 20 0 39 35 39 71 0 22 10 83 22 136 16 69 19 99 11 111-13 22-47 27-61 10z"/><path d="m7619 14862c-22-15-25-42-7-60 17-17 239-15 356 2 139 21 139 31 0 51-134 20-326 23-349 7z"/><path d="m12976 14841c-21-23-18-49 6-64 12-8 25-6 50 7 19 10 48 16 68 14 31-3 35-6 38-35 6-57-34-127-115-202-66-62-74-73-71-102 5-54 42-72 152-77 109-5 136 4 136 48 0 39-23 50-109 50-39 0-71 3-71 6 0 4 24 32 53 64 75 81 116 199 91 265-11 29-60 45-137 45-60 0-77-4-91-19z"/><path d="m3574 14841c-29-13-38-40-19-61 12-13 26-16 60-12 45 5 45 5 45-31 0-44-34-87-89-112-48-21-60-48-35-76 14-16 30-19 98-19 108 1 211 20 211 40 0 11-23 19-81 30l-81 15 20 28c15 19 22 47 25 90 5 83-13 108-84 113-27 2-58 0-70-5z"/><path d="m10173 14838c-13-15-36-194-37-288-1-60 1-65 21-68 28-4 37 16 52 123 6 44 17 108 23 143 8 45 9 68 1 80-13 22-47 27-60 10z"/><path d="m12145 14815c-25-24-32-59-16-83 12-20 55-10 66 15 8 20 48 37 60 25 3-3 5-18 5-34 0-48-49-128-116-192-53-50-64-66-64-92 0-33 16-56 52-75 27-15 145-3 175 17 45 29 16 84-45 84-42 1-45 16-10 61 18 24 46 72 61 107 32 71 31 122-5 167-17 22-27 25-79 25-50 0-64-4-84-25z"/><path d="m4741 14761c-18-12-31-71-31-147 0-57 4-77 20-97 26-32 73-42 129-27s101 82 101 150c0 53-18 83-63 107-33 17-136 26-156 14zm157-119c4-43-45-95-85-90-24 3-29 8-31 37-9 93 25 135 83 102 22-12 31-26 33-49z"/><path d="m3484 14066c-37-16-49-40-28-57 11-9 21-9 40 0 32 14 101 14 110 0 3-6-20-38-54-73-34-33-66-74-71-89-9-24-8-31 14-53 20-20 34-24 85-24 63 0 130 21 130 40 0 15-62 40-100 40-16 0-30 3-30 6 0 4 18 26 40 50s45 55 51 68c16 35 3 73-31 91-36 18-114 19-156 1z"/><path d="m4792 14068c-30-30 8-64 58-53 36 8 70-2 70-19 0-8-29-45-64-82-77-84-109-139-95-165 22-43 96-51 189-21 88 27 93 36 30 44-30 5-74 11-98 15l-43 8 70 82c38 46 72 91 76 102 7 24-18 77-44 91-27 14-134 13-149-2z"/><path d="m2910 14035c-8-9-10-27-6-47 4-18 11-125 16-238 13-293 12-290 59-290 35 0 54 21 126 138 66 109 169 240 193 249 47 17 66 59 37 83-40 33-132-44-250-209l-80-112-6 183c-4 101-12 196-18 213-19 45-48 58-71 30z"/><path d="m5388 13963c-9-10-34-55-57-101l-41-82-40 20c-50 25-74 25-116-1-44-27-73-76-95-162-29-110-20-199 21-212 48-15 109 37 195 168 21 31 41 57 45 57 5 0 38-27 74-60 72-65 105-75 146-42 19 16 21 22 11 40-6 12-22 27-35 34s-51 38-84 69l-61 55 51 101c30 60 49 107 45 117-8 21-40 21-59-1zm-181-261 31-17-43-65c-24-36-55-78-69-95l-25-30-1 43c0 80 35 183 64 182 6-1 25-9 43-18z"/><path d="m4272 13948c-27-27-6-68 35-68 28 0 46 36 31 63-10 20-48 23-66 5z"/><path d="m1547 13923c-4-3-7-36-7-72 0-66-11-135-50-326-24-117-86-350-102-382-13-27-6-48 22-63 18-10 25-6 53 23 18 19 47 59 66 89 57 93 175 198 197 175 4-4-1-68-11-144-16-119-17-139-4-161 22-39 45-50 65-30 13 13 18 38 19 105 1 48 6 123 10 165 9 91-3 130-46 148-20 9-37 9-58 2-43-15-145-86-171-119-16-20-20-22-15-8 9 29 73 306 91 393 17 90 18 184 2 200-13 13-50 16-61 5z"/><path d="m4492 13858c-7-7-12-35-12-64s-7-88-15-131c-20-102-19-136 3-156 28-26 40-21 93 36l49 52v-57c0-48 4-59 21-68 30-17 45 2 53 63 19 163 19 171-2 191-29 25-43 17-93-51-52-72-48-67-53-62-3 2 2 31 10 64 16 71 18 149 4 176-12 21-40 25-58 7z"/><path d="m3984 13830c-106-53-168-130-133-165 16-16 107-40 188-51 47-5 52-8 38-19-31-22-198-77-218-72-23 6-80-15-97-36-17-19-5-46 23-53 40-10 332 91 372 128 28 26 30 59 4 82-17 16-131 46-173 46-9 0-29 5-43 10-23 9-25 13-14 26 19 23 98 60 143 67s59 23 45 49c-15 27-67 22-135-12z"/><path d="m4329 13794c-27-32-115-305-106-328 16-42 68 1 92 76 10 29 33 88 51 131 39 88 40 99 18 121-20 20-38 20-55 0z"/><path d="m3315 13513c-54-9-95-28-115-56-27-36-37-103-22-146l11-31-166 1c-94 0-170-4-175-9-6-6-8-18-6-28 2-14 15-20 48-24 69-8 1175 7 1435 19 127 6 445 14 707 17 377 5 484 4 508-6 27-11 34-11 47 3 24 23 9 45-39 58-49 13-786 5-1033-11-77-6-376-13-665-17l-525-6 39 43c21 23 47 63 58 88 20 44 20 45 0 71-19 26-65 40-107 34zm55-68c0-17-33-66-60-89-55-46-84-31-73 38 4 26 12 38 32 45 28 10 101 14 101 6z"/><path d="m2117 13469c-18-11-22-45-8-68 11-17 75-17 234 0 73 8 107 16 107 24 0 18-19 23-118 34-158 18-198 19-215 10z"/><path d="m2204 13283c-34-6-60-41-47-61 9-14 25-17 109-14 116 4 204 25 234 57l21 22h-148c-81 0-158-2-169-4z"/><path d="m3751 13109c-93-18-141-40-157-70-16-33-12-64 11-73 22-8 41 2 53 29s77 51 165 61c53 6 57 5 57-14 0-34-85-137-180-218-106-91-138-140-120-185 17-41 55-48 225-42 145 6 146 6 165 34 11 15 20 31 20 36 0 19-59 33-146 33-50 0-105 3-122 6-31 6-31 6 77 113 148 145 183 220 126 276-20 21-33 25-77 24-29-1-73-5-97-10z"/><path d="m4362 13082c-142-51-206-210-96-238 43-11 127 6 182 37l54 30-6-28c-3-15-8-55-11-89l-7-60-81-41c-103-51-238-159-272-218-50-85-29-166 51-193 48-17 171-4 228 23 71 34 115 129 116 246 0 90 7 105 58 120 33 10 51 22 62 42 14 26 14 29-5 43-12 9-32 14-51 11l-30-5 7 51c9 68 28 146 41 174 12 24 6 59-16 88-21 29-150 33-224 7zm171-54c16-12 12-17-37-55-67-53-93-63-162-63-60 0-65 7-33 51 43 61 185 101 232 67zm-83-494c-12-126-42-168-132-180-69-10-118 2-118 28 0 32 34 80 90 127 46 39 161 114 165 108 1-1-1-38-5-83z"/><path d="m5082 12198c-7-7-12-23-12-35 0-13-26-73-57-133l-58-110h-66c-106 0-153-25-129-69 9-19 50-31 100-31h27l-13-52c-8-29-14-77-14-106 0-47 4-57 31-83 23-21 41-29 69-29 70 0 230 88 230 126 0 20-35 18-138-10-49-13-95-21-101-17-16 10 1 120 25 155 18 29 28 32 129 41 39 4 89 15 113 25 45 20 57 49 20 51-13 1-27 2-33 4-5 1-42 3-82 3l-71 2 45 83c55 102 72 159 54 181-16 19-52 21-69 4z"/><path d="m4097 12108c-13-18-57-91-97-163-81-145-137-228-150-220-5 3-27 63-50 134-23 70-52 146-64 167-37 67-106 70-106 4 0-15 15-59 34-96 18-38 43-100 56-139 30-92 75-181 95-189 28-10 70-7 91 8 23 16 105 151 184 301 28 55 63 114 76 132 26 35 30 63 12 81-22 22-56 13-81-20z"/><path d="m1623 12060c-41-25-52-46-60-120l-6-61 55-52c39-38 74-60 129-81 134-52 144-68 82-137-39-43-79-68-130-79-26-6-32-4-36 11-11 42-74 41-97-1-14-26 16-90 50-108 69-36 225 26 298 119 55 72 64 121 32 174-13 21-37 43-54 50-157 65-191 81-217 102-22 19-29 33-29 62 0 58 18 75 80 72 56-2 79-10 124-48 26-21 31-22 50-10 31 21 31 43 1 71-59 55-209 75-272 36z"/><path d="m2666 11841c-16-18-17-25-8-46 7-14 19-28 27-31 25-10 498 15 509 26 8 8 4 17-14 30-28 21-77 27-325 36-164 6-171 5-189-15z"/><path d="m4482 11808c-7-7-12-24-12-38 0-33 17-50 50-50 32 0 50 17 50 46 0 44-58 72-88 42z"/><path d="m2722 11658c-16-16-15-33 4-52 26-26 313-21 423 7 163 42 108 57-208 57-148 0-210-3-219-12z"/><path d="m4063 11651c-37-23-47-49-34-84 15-39 32-43 56-14 26 33 60 36 68 5 3-12-3-43-14-69-18-41-34-57-105-104-71-48-84-61-84-84 0-49 30-65 107-58 114 10 189 24 237 46 49 21 60 41 24 41-13 0-41 7-63 15s-55 14-74 15h-34l21 23c11 12 33 48 48 80 21 46 25 67 20 99-9 57-23 78-61 94-46 19-74 18-112-5z"/><path d="m2140 11610c-86-12-134-35-153-76-21-43-21-68-2-84 20-16 35-3 49 42 9 25 21 36 56 50 53 20 131 23 148 6s15-73-3-108c-23-44-130-126-198-151-49-19-65-30-88-68-68-106-25-151 148-159 114-5 133 2 133 48 0 38-14 46-94 55-73 7-119 22-110 36 2 5 33 22 67 38 76 37 171 120 197 172 22 43 25 86 9 142-8 30-18 42-44 53-19 8-40 13-47 13-7-1-38-5-68-9z"/><path d="m5783 11111c-23-17-47-40-53-51-32-59 39-85 75-27 27 43 62 48 71 10 6-21-1-43-27-93-28-51-49-76-104-117-79-59-94-81-77-118 17-38 55-48 152-40 94 7 110 15 110 54 0 34-17 51-51 51-58 0-62 9-23 52 46 51 94 153 94 199 0 21-10 50-23 70-32 48-86 52-144 10z"/><path d="m5437 10958c-8-13-44-81-81-153-37-71-71-133-75-138-4-4-36-10-71-12-35-3-70-11-77-17-38-31 10-83 65-72 18 4 32 4 32 2 0-3-14-38-30-78-43-105-48-142-20-170 21-21 29-22 114-18 100 5 176 31 195 66 14 26 14 79 0 87-5 4-18 0-28-9-22-20-178-53-191-40-8 8 28 110 57 160 8 13 27 24 49 29 57 10 115 36 111 49-2 6-27 12-55 14l-52 3 32 57c18 31 51 88 75 127 44 71 52 102 31 123-20 20-66 14-81-10z"/><path d="m4652 10624c-96-48-172-172-156-253 14-70 92-89 188-47 33 15 62 24 65 21 9-10 0-149-11-162-6-7-16-13-22-13-21 0-163-76-206-110-23-19-49-49-56-67-19-45-2-86 60-140 58-51 108-63 162-37 39 19 88 85 99 135 7 29 7 29 63 21 73-9 260-8 487 2 166 8 183 11 215 33l35 24-345-7c-387-7-434-3-425 41 3 14 7 36 10 48 3 15 28 40 67 67 35 24 65 45 67 46 1 1 0 7-3 12-4 6-26 2-56-11-27-11-52-18-56-15-3 4-1 38 5 77 15 95 14 148-3 163-12 11-12 15 1 30 20 22 8 120-17 143-9 8-39 18-66 21-40 4-59 1-102-22zm100-95c-2-21 1-40 7-44 17-10 13-21-19-53-34-34-119-67-150-57-71 22 64 202 145 192 17-2 19-8 17-38zm-32-472c0-29-31-116-51-141-28-35-67-34-103 3-16 16-25 34-22 40 8 13 157 111 168 111 4 0 8-6 8-13z"/><path d="m3097 10478c-17-13-30-67-67-283-24-135-58-256-102-362-24-58-27-76-18-92 19-37 54-26 94 28 19 27 61 69 92 92 70 52 182 111 195 103 5-3 9-50 9-104 0-89 2-100 20-110 14-8 26-8 40 0 18 10 20 21 20 111 0 160-27 196-126 169-25-7-84-37-131-67-47-29-83-46-79-38 19 52 62 233 101 437 18 95 18 93-1 112s-25 20-47 4z"/><path d="m1725 10275c-104-52-211-259-217-423-3-59-1-66 25-88 36-31 96-32 143-4 73 46 167 196 193 311 16 70 13 151-7 175-36 45-85 55-137 29zm86-82c14-37-2-119-41-202-46-98-117-171-167-171-19 0-23 5-23 33 0 51 34 171 63 219 14 24 39 56 56 72 17 17 31 35 31 42s8 18 18 23c30 18 52 12 63-16z"/><path d="m3733 10160c-43-17-41-84 4-101 13-5 28-7 32-5 4 3 70 7 147 10 122 4 206 17 192 31-12 12-187 56-242 61-33 3-72 7-86 8-14 2-35 0-47-4z"/><path d="m2005 9997c-17-27-12-53 14-67 10-5 86-5 185 1 93 5 180 6 192 3 30-8 33 17 5 45-20 20-36 22-283 37-94 5-97 5-113-19z"/><path d="m5010 9893c-8-3-43-24-78-46-65-43-84-75-62-102 22-26 49-16 100 34 79 79 150 72 150-14 0-35-21-58-115-125-111-79-153-127-176-202-23-73-22-89 13-112 19-12 53-14 199-9 165 6 177 7 205 29l29 24-30 25c-28 22-38 24-141 25-61 0-132 3-156 6-38 5-45 9-41 25 6 23 102 113 164 153 24 17 61 46 82 65 34 32 37 40 37 89 0 58-25 113-60 132-19 10-94 12-120 3z"/><path d="m2132 9840c-80-7-108-24-98-58 4-11 12-22 19-25 39-13 445 63 433 82-6 9-251 10-354 1z"/><path d="m8927 8614c-3-4-288-9-632-13-607-6-627-7-641-26-26-35 7-68 48-47 16 8 157 13 478 17 250 3 618 7 818 11l362 5-25-25c-14-14-22-31-19-40 8-20 55-50 77-49 9 1 17-4 17-11 0-12-11-24-102-109-28-26-38-43-38-66 0-56 38-78 125-72 46 3 165 33 165 41 0 4-41 18-90 30l-91 22 40 34c21 19 49 54 61 79 21 44 21 45 3 82-12 25-33 45-63 61l-45 23 475-6c261-3 639-10 840-15s487-12 635-15c299-6 295-5 295-73 0-48 27-39 63 20 37 59 32 96-13 105-16 3-146 7-287 8-142 2-449 8-683 15-504 13-1763 24-1773 14z"/><path d="m5280 8475c-23-12-414-20-1273-24-92 0-137-15-137-46 0-39 55-42 370-16 63 6 325 10 582 10l467 1 3-77c2-45 8-78 14-80 18-6 84 133 84 176 0 63-51 89-110 56z"/><path d="m7514 8443c-57-99-153-262-221-373-112-183-252-452-326-625l-68-160 5 95c3 52 11 133 16 180 22 182 29 280 23 296-14 37-49 35-178-8-94-32-125-46-125-59 0-26 32-28 91-7 117 42 141 49 145 45 3-3-2-81-11-173-40-432-44-609-12-628 28-17 50 18 92 143 96 288 255 622 433 910 199 320 223 363 220 384-2 15-11 23-30 25-22 3-31-4-54-45z"/><path d="m10601 8467c-63-24-90-85-49-111 13-8 22-6 40 11 13 11 34 24 47 28 31 9 27 0-45-121-77-129-94-203-56-237 30-27 129-23 167 7 30 24 30 24 11 45-11 12-39 27-63 33-53 13-52 18 17 133 85 143 97 179 65 205-22 18-94 22-134 7z"/><path d="m8743 8420c-27-11-29-26-7-69 21-41 30-248 17-376-12-113-6-147 29-159 19-7 31-6 42 3 9 7 55 88 103 180 47 91 109 199 137 240 80 115 95 145 85 157-7 9-21 9-50 1-35-8-48-21-94-86-30-42-78-118-107-170l-53-93-6 153c-6 157-11 181-37 212-17 19-26 20-59 7z"/><path d="m3798 8353c-15-16-72-116-128-223s-151-280-210-385c-60-104-152-266-204-360-85-151-96-166-96-134 0 20 23 128 51 240 71 284 69 370-9 400-44 17-233 7-265-14-33-21-34-32-4-51 19-13 29-13 77 0 60 16 157 18 179 5 27-17 16-126-33-316-52-201-76-371-58-411 16-34 57-32 92 6 27 28 56 79 168 290 25 47 88 162 140 255 52 94 136 247 185 340 49 94 112 207 138 253 52 87 56 101 37 120-18 18-32 15-60-15z"/><path d="m4693 8365c-14-10-26-34-33-68-9-47-75-256-126-402-10-27-28-63-41-78-27-33-29-50-7-71 29-30 55-18 130 59 76 77 129 111 180 117 39 4 42-21 13-117-21-73-21-76-4-95 21-23 57-26 74-6 20 24 51 128 51 173 0 125-92 158-234 84-42-22-76-36-76-32 0 7 104 301 129 364 15 38 14 53-5 71-19 20-24 20-51 1z"/><path d="m13423 8323c-19-7-16-47 6-85 10-18 31-71 46-118 84-264 145-380 201-380 49 0 81 46 198 283 62 128 116 244 120 260 8 34-12 44-53 27-24-10-44-41-111-173-88-175-141-272-159-290-15-15-70 108-109 243-63 217-86 255-139 233z"/><path d="m11256 8254c-9-8-16-21-16-27 0-13-56-166-64-174-2-3-26 5-51 16-94 42-205 18-254-54-20-29-23-46-22-102 1-37 6-84 11-105 12-42 69-108 94-108 29 0 80 26 110 56 32 32 112 137 118 156 5 13 45-12 106-64 18-15 43-28 57-28 24 0 55 23 55 41 0 17-71 88-120 119-47 30-49 33-35 53 22 35 76 189 71 203-3 7-14 17-25 23-15 8-23 7-35-5zm-182-274c25-10 46-23 46-29 0-14-76-124-102-147-42-38-55-37-77 10-27 54-28 137-3 158 37 33 74 35 136 8z"/><path d="m10032 8248c-19-19-14-39 14-64 29-28 40-30 48-8 10 27 7 52-10 68-19 19-36 20-52 4z"/><path d="m15813 8248c-4-6-35-64-69-127-42-80-65-115-75-111-8 2-44 4-80 5-55 0-72-4-108-28-50-34-101-109-101-151 0-17 9-46 20-63 18-29 25-33 65-33 66 0 114 23 166 82l47 51 58-45c33-25 73-52 91-62 63-32 110 17 65 69-9 12-43 40-74 64-85 64-85 63-50 118 56 89 110 204 105 224-6 21-47 27-60 7zm-206-336c22-14-65-91-106-94-48-4-50 16-3 62 39 40 79 51 109 32z"/><path d="m7881 8222c-54-21-90-65-75-90 17-26 42-26 74 2 38 31 98 45 112 25 17-26 2-94-34-150-34-53-116-135-192-192-31-24-37-34-34-60 2-26 11-36 43-52 76-38 332-23 349 20 2 7-1 18-7 23-20 16-114 32-187 32-39 0-70 3-70 6s33 42 74 85c84 89 136 181 136 241 0 49-22 103-48 117-29 16-90 13-141-7z"/><path d="m9694 8191c-90-64-119-134-71-165 12-9 51-24 87-35 77-24 111-46 104-66-9-22-109-68-133-60-27 8-101-30-101-53 0-48 40-53 142-16 137 50 185 99 158 164-18 42-48 64-136 96l-77 28 32 28c17 15 40 28 50 28 34 0 51 12 51 34 0 52-48 60-106 17z"/><path d="m14772 8208c-18-18-15-48 6-54 9-3 25-10 34-15 28-15 38-11 38 17 0 54-45 85-78 52z"/><path d="m10232 8158c-7-7-12-39-12-72 0-34-7-86-15-116-19-71-19-110 1-138 22-31 56-28 89 10l29 32 9-34c17-67 67-82 67-21 0 17 11 61 25 98 32 84 30 117-6 121-21 2-37-10-89-68-34-39-64-69-67-67-2 3 5 38 17 78 25 93 26 150 2 172-22 20-34 21-50 5z"/><path d="m4033 8130c-45-20-77-58-71-86 5-27 25-28 50-2 69 71 168 60 168-19 0-57-35-100-129-160-47-31-98-67-113-81-93-86 62-124 263-64 178 54 181 73 9 60-63-5-128-7-144-6-28 3-26 5 38 47 149 96 189 237 88 306-44 30-98 32-159 5z"/><path d="m15012 8122c-8-6-13-50-16-146-3-126-2-140 16-158 29-29 54-16 146 80l82 87-4-66c-8-119 39-137 68-25 29 118 18 186-30 186-19 0-50-25-121-97-52-54-92-89-89-78 4 10 10 54 13 97 5 62 3 82-11 103-17 26-32 31-54 17z"/><path d="m14456 8100c-92-36-121-88-72-133 13-12 56-33 95-46 76-26 112-54 94-72-6-6-56-22-110-35-117-28-143-39-143-58 0-33 34-35 146-10 136 30 149 36 169 75 32 61-15 118-135 164-38 15-68 31-65 36 8 12 115 42 123 34 4-3 7-14 7-23 0-12 9-17 30-17 25 0 30 4 33 27 2 19-5 36-22 53-31 31-80 32-150 5z"/><path d="m10020 8024c-6-14-10-28-10-32 0-3-16-43-36-89-19-46-32-87-29-93 9-15 51-12 64 3 22 27 91 172 91 193 0 48-63 62-80 18z"/><path d="m8357 8022c-22-24-21-55 1-75 37-34 82-15 82 34 0 52-51 77-83 41z"/><path d="m1712 8013c-21-19-97-165-127-245-17-47-33-58-86-58-52 0-79-69-41-103 10-10 31-17 46-17 17 0 25-4 21-11-15-23-55-207-55-250 0-83 55-108 155-70 27 11 69 24 93 31 34 9 46 18 59 46 13 26 14 37 5 46-8 8-15 8-24 1-7-6-35-14-63-17-27-4-71-14-97-23s-51-14-54-10c-7 7 16 127 43 228l15 56 62 11c101 17 131 27 131 42 0 14-38 27-108 37-20 3-39 9-42 13-9 15 69 181 118 253 9 12 9 22 1 34-15 24-28 26-52 6z"/><path d="m14817 7999c-9-6-17-15-17-22s-23-45-51-86c-53-79-60-114-22-119 29-4 143 146 143 189 0 33-27 52-53 38z"/><path d="m9075 7918c-34-20-42-31-52-73-19-84-16-132 9-149 80-56 216 68 193 174-14 63-84 86-150 48zm85-79c0-20-10-40-29-60-36-35-56-38-46-6 4 12 9 36 12 52 6 33 18 45 46 45 12 0 17-8 17-31z"/><path d="m13970 7912c-44-23-89-108-89-169-1-34 4-46 23-58 31-21 86-29 131-21 41 8 108 64 132 109 51 100-86 197-197 139zm130-62c28-28 25-45-14-88-31-33-40-37-84-37-28 0-54 4-58 8-11 11 26 116 45 127 29 17 90 11 111-10z"/><path d="m11956 7737c-52-52-18-125 53-114 20 4 79 13 131 21 52 9 127 16 166 16s126 3 192 7c111 5 122 8 122 25 0 13-14 25-45 39-40 18-66 19-287 19-134-1-257 2-275 6-26 5-36 1-57-19z"/><path d="m5472 7728c-18-18-15-66 6-77 10-6 94-6 217-1 110 5 228 9 263 10 47 0 62 3 62 14 0 24-87 45-207 51-62 3-161 7-221 10-78 4-111 2-120-7z"/><path d="m2144 7699c-20-22-12-67 13-76 9-4 63 1 119 11s144 19 196 21c51 2 94 6 96 9 7 18-2 29-33 42-28 11-75 14-205 13-149-2-172-4-186-20z"/><path d="m15708 7594c-3-3-307-10-674-15-368-5-774-12-903-16-142-3-302-1-409 7-154 10-176 10-190-4-26-26 1-42 98-56 69-10 189-11 498-7 224 4 583 9 797 12 215 3 487 10 606 15 119 6 296 10 392 10 161 0 177 2 186 18 20 37-3 42-204 42-106 0-194-3-197-6z"/><path d="m3853 7579c-7-7-13-21-13-30 0-37 26-43 198-43 237-1 855 24 867 35 6 6 6 12 0 18-13 12-466 19-650 11-126-7-213-3-345 16-31 4-49 2-57-7z"/><path d="m2237 7548c-10-5-17-21-17-38 0-24 5-31 26-36 40-10 264 3 308 18 71 23 55 35-66 47-180 17-233 19-251 9z"/><path d="m10880 7549c-58-4-586-10-1175-13-1204-7-1889-14-1922-21-32-7-30-43 1-51 13-3 197-3 408 0 210 4 910 11 1553 16 1418 12 1609 16 1626 36 9 11 9 17-1 29s-44 15-199 14c-102-1-233-5-291-10z"/><path d="m5660 7498c-93-7-128-13-137-25-17-21-1-49 32-55 33-7 183 9 326 33 116 21 150 32 136 45-12 12-219 13-357 2z"/><path d="m12152 7490c-18-7-23-16-20-37 5-45 46-53 243-47 180 5 305 20 305 35 0 5-17 9-38 9s-78 9-128 20c-102 23-326 36-362 20z"/><path d="m9457 7423c-57-17-84-51-67-82 12-24 36-27 59-7 17 14 75 36 97 36 31 0 10-32-54-84-88-69-120-108-128-153-13-71 23-93 159-93 108 0 157 16 157 50 0 29-50 48-142 55-43 4-78 11-78 15 0 5 21 26 47 47 102 82 123 108 123 150 0 60-22 83-78 82-26-1-68-8-95-16z"/><path d="m8431 7389c-44-13-104-52-129-84-11-14-25-49-31-77-10-42-9-55 4-74 17-26 27-29 55-14 15 8 17 16 10 45-6 25-3 44 9 67 18 37 83 78 124 78 24 0 27-3 27-36 0-63-46-120-272-336-49-47-58-60-58-90 0-20 8-46 19-59 18-23 26-24 154-27 136-4 136-4 152 22 16 24 16 28 1 51s-21 24-129 27l-112 3 112 108c121 117 201 224 205 272 8 119-33 155-141 124z"/><path d="m14509 7377c-57-16-130-69-165-118-37-53-58-150-44-195 22-65 115-93 197-59 20 9 56 31 80 51l43 35-5-28c-2-15-9-66-15-113-19-141-14-133-76-126-50 6-59 3-154-45-113-58-173-115-191-181-21-79 35-169 133-213 86-39 145-43 202-16 74 37 83 58 121 319 14 95 32 205 41 245 22 105 30 233 15 251-10 12-9 20 2 38 12 17 13 35 7 72-8 56-36 86-79 86-14 0-35 2-46 5-11 2-40-2-66-8zm95-73c13-5 15-14 10-39-4-22-1-37 9-46 12-12 8-21-37-67-77-81-145-109-197-82-40 22-16 122 42 175 62 56 125 77 173 59zm-45-635c-29-197-41-218-119-218-82-1-170 58-170 113 0 39 54 90 151 140 52 27 105 58 118 68s27 18 31 18c3 0-2-54-11-121z"/><path d="m4167 7315c-102-32-178-144-201-296-6-38-3-50 15-73 63-80 159-66 268 38l54 51-7-40c-3-22-9-70-12-107-4-38-10-68-13-69-3 0-26-2-51-3s-67-12-95-26c-103-50-288-261-302-344-4-28 0-37 23-56 27-21 35-22 139-17 135 6 208 31 270 91 54 52 75 123 106 361 6 50 22 147 35 217s21 135 18 143c-4 8-18 18-32 22-22 5-31-1-66-43-82-101-162-172-200-179-20-4-43-4-52-1-45 17 30 212 96 250 46 27 160 28 189 2 37-33 80-3 67 47-4 17-15 29-29 31-46 10-189 11-220 1zm86-649c-19-104-42-141-105-174-39-20-203-51-214-40-6 7 68 105 125 163 41 42 87 76 128 97 35 17 66 35 69 40 13 21 12-3-3-86z"/><path d="m9025 7259c-107-53-192-197-164-278 13-37 35-51 79-51 45 0 80 22 140 87l53 58-8-69c-4-38-9-74-11-80-3-7-26-22-52-34-103-50-201-130-267-220-90-122-115-174-115-246 0-81 22-124 77-148 33-15 55-18 86-13 151 25 229 152 306 490 11 49 24 91 28 93 61 21 82 58 36 64-15 2-27 8-26 13 9 59 25 204 25 218-1 9-2 23-2 30-1 6 2 22 5 34 5 16 0 29-19 47-21 22-34 26-78 26-32-1-69-9-93-21zm123-70c2-10-31-53-79-103-67-71-86-86-111-86-29 0-30 2-25 34 8 52 53 114 105 147s104 36 110 8zm-82-502c-40-186-103-303-180-338-89-40-136-15-136 75 0 49 5 62 51 130 28 42 72 98 98 125 51 53 184 143 189 130 2-5-8-60-22-122z"/><path d="m6410 5854c-102-111-180-372-180-607 0-96 42-167 100-167 36 0 38 11 5 46-32 35-39 77-32 189 12 176 61 348 129 449 72 107 71 105 58 121-20 24-35 18-80-31z"/><path d="m8941 5827c-20-20-12-33 62-109 125-128 162-211 173-388 8-112-6-190-46-270-55-108-32-103-386-95-491 11-868 10-1014-2-213-17-1403-15-1735 2-154 8-487 19-739 25s-462 13-466 15-218 5-476 6c-496 3-642 8-712 29-47 14-62 8-46-18 29-46 36-47 654-54 878-11 1804-37 1828-52 4-2 401-4 882-4 1579 2 2045-4 2064-23 12-11 63-12 70 0 15 24 382 27 2021 20 634-3 1219 11 1237 29 9 9 9 15-1 25-9 9-85 11-334 8-177-3-576-4-887-2-1456 6-1772 5-1858-3l-93-9 35 64c46 84 66 168 66 270-1 186-47 315-157 441-78 90-119 118-142 95z"/><path d="m9509 5768c-9-16-9-46 0-122 6-56 13-144 16-196 11-210 41-290 109-290 19 0 38 6 44 13 5 6 44 77 85 157s96 183 122 230 54 96 61 110c35 64 2 101-47 54-27-26-141-214-236-391-19-34-38-65-43-68-12-8-28 142-34 322-3 89-10 171-16 183-14 26-46 26-61-2z"/><path d="m4870 5705c-8-9-10-29-6-52 5-36 13-107 34-316 13-123 50-170 105-134 12 8 53 72 91 142 86 161 141 253 173 287 31 33 25 58-15 58-49 0-85-46-220-278l-60-104-10 99c-6 54-14 140-17 192s-10 100-16 107c-15 18-43 18-59-1z"/><path d="m13626 5674c-19-19-19-14-2-66 18-58 43-193 56-303 16-144 30-193 62-221 16-13 41-27 55-31 40-9 73 35 118 158 46 126 85 205 160 324 59 92 74 146 44 153-8 1-27-7-42-18-41-33-166-243-225-380-30-69-58-129-62-134-11-11-28 78-40 204-13 137-36 263-55 300-17 33-45 39-69 14z"/><path d="m15439 5598c-10-19-8-25 15-44 32-28 56-21 56 15 0 50-49 70-71 29z"/><path d="m16552 5578c-5-7-15-33-22-58-7-24-23-66-37-93-24-47-25-48-46-33-74 55-141 56-220 6-59-37-81-78-75-142 6-58 35-93 89-109 49-15 98 1 170 56 55 42 57 43 75 25 31-31 136-90 159-90 22 0 55 28 55 47 0 13-39 47-75 66-16 9-45 29-64 44l-34 29 46 93c48 94 57 137 35 159-16 16-43 15-56 0zm-186-259c19-11 34-24 34-27 0-15-97-72-121-72-67 0-66 88 1 113 29 11 53 7 86-14z"/><path d="m11946 5564c-9-8-16-30-16-48 0-19-11-59-25-89-24-56-24-56-57-46-18 5-80 13-138 16-124 7-168-6-200-59-36-60 1-163 72-199 88-45 193-17 272 73l45 51 85-37c46-20 91-36 98-36 8 0 42 9 76 21 63 21 80 39 40 39-13 1-74 22-136 49l-113 47 30 55c16 30 35 74 42 97 11 37 10 44-6 62-22 24-48 26-69 4zm-166-273 45-7-43-41c-62-59-141-68-181-20-20 24-10 60 19 68 33 9 104 9 160 0z"/><path d="m4255 5539c-26-10-70-36-99-58-29-23-56-41-59-41-4 0-7 14-7 30 0 31-30 70-52 70-28-1-99-41-142-80l-45-41-3 48c-3 43-5 48-27 48-21 0-25-8-41-70-25-95-36-121-76-183-43-64-43-97 0-97 25 0 36 9 70 59 49 72 210 236 231 236 24 0 21-105-5-137-34-43-21-83 27-83 17 0 34 17 69 70 61 93 130 152 203 175 24 7 24 7 17-56-4-34-16-80-27-102-28-53-22-91 14-95 24-3 29 2 48 45 11 26 27 75 34 108 29 140-19 196-130 154z"/><path d="m8546 5545c-16-9-54-36-83-61l-53-46v36c0 40-32 81-57 72-8-3-21-6-28-6s-39-23-69-51l-56-51v35c0 39-20 61-48 53-23-8-32-44-32-131 0-35-8-86-20-119-21-62-19-82 11-91 26-9 46 9 55 48 11 55 64 147 111 198 25 27 50 49 54 49 16 0 9-69-11-122-25-67-25-85 1-98 29-16 59 6 109 80 22 33 60 78 83 99 36 35 42 37 45 21 2-11-4-56-13-99-17-83-11-121 19-121 23 0 33 21 56 120 37 162 11 229-74 185z"/><path d="m6853 5512c-18-9-50-32-72-50l-40-33 2 43c2 41 1 43-27 43-27 0-30-4-55-90-15-49-36-107-46-129-22-46-12-71 30-71 24 0 36 11 77 72 68 102 171 189 190 160 8-13 0-68-20-136-15-53-15-54 7-72 29-24 45-16 83 40 57 85 117 138 176 156 19 5 22 3 22-21 0-16-14-72-32-125-27-83-30-100-18-114 7-9 23-15 34-13 17 2 27 23 54 103 37 113 43 182 17 221-15 24-21 26-61 20-48-6-101-32-151-72l-33-27v30c0 72-67 104-137 65z"/><path d="m14803 5504c-88-32-125-95-85-143 19-23 150-62 275-82 42-6 85-17 94-24 16-12 14-15-16-33-51-31-174-55-240-48-113 12-115 12-119-6-5-27 42-50 116-55 124-9 314 56 328 112 13 53-34 85-176 115-100 22-203 55-207 66-4 13 66 44 98 44 12 0 33-7 49-16 49-29 102 2 84 49-8 21-28 27-99 32-39 3-75-1-102-11z"/><path d="m7735 5494c-13-14-16-28-11-64l6-47-52-7c-29-3-76-6-105-6-28 0-58-3-67-6-24-9-20-51 6-65 21-11 37-10 176 10l52 7v-30c-1-17-4-49-9-71-9-50-5-65 19-65 19 0 40 50 56 135 6 32 10 35 60 45 30 6 54 15 54 20s-22 12-50 16c-59 8-68 16-72 73-4 55-35 82-63 55z"/><path d="m10473 5467c-62-23-123-76-145-124-27-62-21-138 13-164 62-48 158-47 246 2 60 33 63 34 63 16 0-23 37-48 78-54 100-13 232 67 248 151 16 86-25 119-146 120-95 1-169-32-184-80-14-48-21-58-65-89-37-26-52-30-106-30-80 0-99 14-92 70 11 79 144 159 204 120 32-21 63-11 63 20 0 47-99 70-177 42zm425-123c53-11 4-104-66-125-20-6-53-9-72-7-33 3-35 5-38 43-2 22-8 45-13 51-13 16 8 31 57 43 36 8 75 7 132-5z"/><path d="m15707 5473c-4-3-7-26-7-49 0-24-7-73-16-111-23-101-9-173 36-173 24 0 114 62 172 118l47 45 3-84c3-76 5-84 23-84 33 0 50 50 50 144 0 127-30 134-150 33-89-73-125-97-125-80 0 7 9 46 20 87 23 84 25 114 10 142-10 18-50 26-63 12z"/><path d="m11122 5446c-66-23-109-88-81-122 17-21 48-32 138-49 87-17 128-39 111-60-31-38-217-67-245-39-18 18-39 18-55-1-11-13-10-21 7-43 20-27 22-27 129-26 93 0 116 4 154 23 57 29 79 57 80 98 0 44-41 73-155 111-87 28-89 30-62 41 50 20 107 25 132 11 13-7 31-10 39-7 19 7 21 48 4 65-16 16-152 14-196-2z"/><path d="m1617 5422c-101-36-153-104-137-178 6-30 22-51 66-89 138-121 214-199 225-233s10-37-19-63c-47-42-196-65-241-37-29 18-51 3-51-35 0-53 28-62 143-49 202 23 282 98 232 218-18 43-114 145-212 226-84 68-94 99-46 144 68 63 154 53 163-20 6-45 31-67 58-50 42 26 17 117-42 153-47 29-86 32-139 13z"/><path d="m15457 5412c-27-30-108-212-105-236 2-13 11-22 25-24 20-3 30 13 83 124 34 69 59 133 56 140-8 20-40 17-59-4z"/><path d="m5429 5359c-11-11-19-23-19-29 0-5 8-18 19-29 16-16 32-18 147-14 176 5 325 20 337 32 8 8 8 14 0 22-12 12-161 27-337 32-115 4-131 2-147-14z"/><path d="m4491 5346c-6-7-16-47-21-87-6-41-13-95-16-121-5-36-3-54 10-73 32-49 47-29 72 95 28 139 29 164 8 184-19 20-38 20-53 2z"/><path d="m7386 5338c-7-13-17-45-21-73-3-27-11-66-17-87-6-20-7-53-4-73 15-78 54-19 95 145 17 68 18 77 4 93-22 23-40 22-57-5z"/><path d="m8691 5321c-29-29-15-64 28-71 17-3 33-9 34-14 1-4-21-31-50-60-62-60-73-92-44-127 18-22 26-24 98-23 82 1 183 33 183 59 0 13-43 25-94 25-17 0-41 3-54 6-22 6-22 6 8 40 35 41 45 73 33 110-19 57-106 91-142 55z"/><path d="m5197 5298c-16-27-42-228-32-256 7-25 31-35 54-22 13 7 20 26 25 72 3 35 9 89 12 120 5 45 3 64-10 83-20 31-32 31-49 3z"/><path d="m9948 5254c-35-18-57-62-65-123-5-41-2-52 16-70 28-28 75-27 139 5 80 40 135 115 118 159-15 41-153 60-208 29zm111-40c40-8 41-34 1-67-26-23-86-45-95-35-2 1-6 20-10 40-6 33-4 38 22 52 32 17 39 18 82 10z"/><path d="m14208 5250c-21-13-68-97-68-122 0-74 175-103 262-44 74 50 81 118 16 152-39 20-184 30-210 14zm159-71 28-11-24-19c-16-13-39-19-71-19-66 0-78 6-72 36 4 22 9 24 58 24 29 0 65-5 81-11z"/><path d="m17102 5168c-16-16-15-63 2-77 23-19 134-24 256-12 63 6 125 14 138 17 61 17-9 36-197 54-63 6-122 15-132 20-24 13-53 12-67-2z"/><path d="m2549 5099c-10-10-19-23-19-29 0-5 9-19 19-29 18-18 30-19 113-15 124 7 282 22 302 30 21 8 21 20 0 28-20 8-178 23-302 30-83 4-95 3-113-15z"/><path d="m12845 5035c-31-30-32-65-2-93 35-33 75-37 127-10 36 18 46 29 48 52 8 68-119 106-173 51z"/><path d="m16669 5026c-9-7-749-17-1779-22-591-3-1081-7-1088-9-23-8-9-48 18-54 14-3 369-3 790 1 2206 22 2120 19 2120 68 0 15-7 20-28 20-16 0-31-2-33-4z"/><path d="m1959 4946c-56-14-79-31-79-62 0-22 23-54 39-54 5 0 22 14 39 30 50 47 108 34 100-22-3-23-161-158-185-158-23 0-73-52-73-75 0-35 40-75 85-85 22-6 71-7 108-4 57 6 71 11 84 30 14 22 14 26-1 49-10 15-27 26-41 26-14 1-29 3-35 4-5 1-19 3-31 4-28 1-19 12 62 76 38 31 76 69 84 85 31 59 10 126-49 154-38 18-43 18-107 2z"/><path d="m17177 4949c-24-14-22-56 5-70 12-7 40-9 67-6 177 23 222 30 278 46 35 9 63 21 61 26-4 13-388 16-411 4z"/><path d="m2610 4938c-35-13-53-49-33-69s433 19 433 40c0 28-337 52-400 29z"/><path d="m14840 4735c-134-64-168-169-70-217 38-20 125-24 177-9 32 9 32 9 52-59 29-94 28-107-13-124-58-24-193-115-226-152-51-58-38-124 32-169 20-12 47-17 98-16 92 1 142 15 185 52 45 40 59 85 53 178l-6 76 62 30c48 24 66 39 84 73 13 24 22 46 19 48-3 3-38-6-79-21-40-14-80-28-89-31-13-4-20 8-33 60-9 36-16 83-16 104 0 66-67 101-92 47-16-34-56-46-125-35-32 6-59 10-61 10s-2 10 0 22c5 35 82 81 145 86 52 4 56 3 93-33 39-38 72-44 78-14 2 9-17 38-41 64-42 47-46 49-108 52-53 3-73-1-119-22zm210-531c0-55-12-79-48-98-59-31-172-32-172-2 0 18 185 145 213 146 4 0 7-21 7-46z"/><path d="m7016 4644c-11-11-16-35-16-79 0-79-23-193-50-246-12-22-20-53-18-67 2-22 8-27 32-27 27 0 33 8 75 91 55 109 63 119 120 156 57 36 98 37 111 3 11-28 6-45-28-97-26-41-23-73 9-83 34-11 56 5 82 58 15 32 48 74 82 105 63 57 93 76 142 86 31 7 32 6 39-30 6-34-7-100-48-242-11-37-10-45 2-52 45-29 65-3 105 135 27 93 31 149 15 204-12 44-36 60-88 61-53 0-96-18-171-70l-58-41-30 30c-49 48-92 50-174 8l-69-35v58c0 56-15 90-40 90-5 0-16-7-24-16z"/><path d="m7795 4362c-43-15-57-29-53-53 3-23 5-24 84-20 64 2 82 0 87-12 9-24-28-73-93-123-64-50-77-85-44-118 19-20 32-20 169 0 117 16 205 40 205 54 0 13-159 49-214 50-5 0 0 10 12 23 51 54 57 142 12 182-22 20-126 31-165 17z"/><path d="m16158 3508c-50-13-117-75-153-139-16-30-48-101-71-159-39-96-45-105-67-102-41 5-56-20-51-85 8-92 12-102 41-109 14-4 33-2 42 3 17 10 19 18 92 242 46 143 95 233 145 266 24 15 57 20 179 27 83 4 202 7 265 7h133c20 1 23 31 5 49-15 15-504 15-560 0z"/><path d="m7540 3354c-145-122-251-510-201-736 21-97 71-151 149-163 51-8 55 5 7 28-53 25-83 79-96 172-12 91-7 145 26 296 39 176 110 320 176 357 30 18 37 40 17 60-19 19-44 14-78-14z"/><path d="m16260 3323c-24-17-26-46-5-66 11-12 30-14 77-10l63 6-22-24c-12-13-47-38-78-54-58-31-78-63-55-90 9-11 34-15 89-15 88 0 117-6 125-26 11-28-43-49-143-54-82-4-96-8-99-23-7-37 16-47 107-47 70 0 96 5 138 24 28 14 56 33 62 45 30 54-1 121-67 142-54 17-55 19-29 39 53 42 56 111 5 143-33 21-144 27-168 10z"/><path d="m9301 3262c-12-23-6-32 50-64 25-15 74-57 110-95 152-162 203-371 140-580-18-61-67-149-105-190-8-10-109-13-411-14-220-1-449-5-510-10-272-20-2335-36-2680-20-132 6-667 11-1190 12-994 0-1002 0-920-41 57-28 3463-45 4355-21 658 17 2071 33 3085 35 451 0 826 5 833 9 18 12 15 45-5 56-25 13-1655 4-1808-10-66-6-244-9-398-7l-278 3 34 40c48 56 64 92 88 192 50 208-20 447-178 607-101 103-188 143-212 98z"/><path d="m12110 3225c-33-30-66-55-73-55-20 0-47-33-47-57 0-29 34-56 65-51 28 6 33-11 14-58-7-21-7-34 2-51 22-40 41-23 69 62 15 44 41 115 60 157 27 64 30 80 20 93-22 26-48 17-110-40z"/><path d="m8460 3084c-131-35-195-93-170-154 20-47 65-80 111-80 21 0 39-5 39-10 0-70-137-186-165-140-13 20-55 11-67-15-14-32 10-62 58-71 51-9 81 2 134 52 82 77 124 189 85 228-15 15-25 19-78 30-20 5-27 12-25 24 4 22 34 35 152 67 106 28 136 40 136 56 0 30-118 37-210 13z"/><path d="m10183 3060c-41-17-56-75-27-104 21-22 31-20 58 9 28 30 55 32 90 4 58-45 17-141-89-208-75-48-85-63-59-93 17-18 27-20 94-15 41 4 120 20 175 36 73 22 101 27 104 18 10-29 72-75 111-82 121-20 282 114 297 249 13 114-93 182-218 141-61-21-145-97-154-142-4-15-15-44-25-63-20-37-43-46-174-63-48-7-48-7-32 16 81 110 90 168 41 244-32 48-134 76-192 53zm660-111c29-16 37-28 37-61 0-50-30-105-78-142-104-82-217-64-183 29 10 28 10 39 1 51-10 11-8 21 11 49 46 67 154 104 212 74z"/><path d="m13951 3049c-38-11-107-63-116-87-16-42 33-73 55-33 14 27 72 61 104 61 24 0 26-3 26-40 0-54-48-129-136-212-37-35-80-75-96-90-31-30-36-59-12-82 19-20 54-20 147-2 40 8 106 20 147 26 97 15 110 19 110 34 0 30-47 39-170 33l-120-5 61 59c33 33 78 87 99 121 34 52 40 69 40 114 0 87-55 128-139 103z"/><path d="m7780 2948c-92-95-114-133-89-149 22-14 27-12 76 34 31 28 44 35 39 22-17-44-35-133-38-180s-2-50 21-50c19 0 27 8 37 40 7 22 33 104 59 182 52 160 54 186 12 191-23 3-41-11-117-90z"/><path d="m9287 2998c-14-24-53-71-87-106-45-45-61-68-58-84 5-36 33-33 56 7 12 19 25 35 30 35 4 0 6-40 4-89-4-85-3-91 21-115 42-41 53-27 53 67 0 65 7 104 34 189 27 89 31 110 20 123-22 26-47 17-73-27z"/><path d="m5373 3001c-45-6-60-13-98-51-46-46-56-78-31-100 22-17 60-8 64 15 7 39 42 65 89 65 42 0 43-1 43-32 0-28-15-47-110-140-66-65-110-116-110-128 0-11 11-27 26-36 21-14 41-16 127-11 113 8 169 20 187 42 16 19-15 32-113 45-39 6-73 13-76 15-2 3 24 34 58 69 86 91 98 123 74 209-4 15-64 51-75 46-2-1-27-5-55-8z"/><path d="m8850 2980c-6-12-9-28-6-38 2-9 7-26 10-38 6-20 2-21-71-28-84-7-109-21-98-55 9-28 44-36 105-21 72 17 80 12 80-58 0-41 5-64 15-72 12-10 16-10 19 1 2 8 9 29 15 48s11 51 11 72c0 37 2 38 47 51 25 7 48 18 50 24 4 13-28 24-68 24-28 0-39 16-39 55 0 13-3 30-6 39-9 23-51 20-64-4z"/><path d="m14751 2978c-46-16-93-66-130-142-17-35-38-69-46-76-13-11-15-7-15 26 0 80-73 144-165 144-56 0-96-19-129-62-24-32-35-95-23-128 3-8 7-36 10-62 8-79 75-148 144-148 40 0 88 32 119 80l27 41 22-43c18-36 28-45 66-55 24-6 57-9 73-6 74 14 190 104 228 177 42 82 30 198-25 239-31 24-108 31-156 15zm129-78c62-62-20-228-138-278-95-40-148-5-124 84 19 71 107 190 152 207 36 13 90 7 110-13zm-423-36c47-30 57-59 45-127-12-65-31-98-75-131-22-16-31-18-52-8-48 22-66 67-63 160 2 68 6 86 23 101 37 34 75 36 122 5z"/><path d="m3965 2915c-49-36-114-76-143-90-55-25-72-47-55-74 22-36 72-16 196 80 15 11 27 18 27 15s-27-58-60-123c-66-128-74-163-37-163 19 0 38 28 120 180 71 129 97 187 95 207-5 49-42 41-143-32z"/><path d="m5815 2961c-23-10-52-35-69-59-16-23-32-42-36-42-14 0-40-73-40-113 0-52 31-120 63-142 13-8 47-18 75-22 46-5 56-2 101 26 81 52 117 108 130 203 10 72 0 100-49 142-39 32-114 35-175 7zm135-51c31-17 39-41 29-98-19-125-159-211-218-136-22 28-29 74-11 74 6 0 10 11 10 24 0 53 41 118 85 136 28 12 83 12 105 0z"/><path d="m11105 2968c-22-5-61-24-87-43l-48-35v-86c0-75 3-88 23-108 42-41 177-42 256-1 43 22 108 99 120 141 14 51 15 48-14 82-17 21-40 33-73 40-75 17-134 20-177 10zm167-68c47-14 52-22 35-62-33-77-117-123-203-112-29 3-58 11-63 18-16 20 4 99 35 133 27 30 34 32 94 33 36 0 82-5 102-10z"/><path d="m6195 2949c-47-23-74-55-75-86 0-12-6-26-14-30-19-12-44-65-52-111-5-34-2-44 22-71 29-32 78-50 136-51 52 0 139 41 188 89 43 41 49 52 55 104 7 52 5 61-19 98-49 74-157 100-241 58zm124-49c115-33 105-148-19-213-47-25-62-28-105-22-67 8-88 29-75 75 24 80 54 124 100 148 51 25 53 25 99 12z"/><path d="m4533 2939c-35-7-63-20-84-40-28-26-31-34-26-70 8-64 21-72 95-65l64 7-18-28c-9-15-39-48-67-72-47-40-51-42-58-24-17 47-79 34-79-16 0-59 62-92 117-63 23 13 134 136 152 169 34 66-2 110-83 101-25-3-46-4-46-2 0 17 64 29 172 34 103 4 131 8 145 23 16 16 16 18 0 35-14 14-38 17-125 19-59 1-130-3-159-8z"/><path d="m12295 2874c-229-30-262-34-302-34-54 0-87-28-74-62 10-27 35-34 65-20 11 5 57 15 101 21 288 41 335 53 335 86 0 20-28 22-125 9z"/><path d="m15172 2867c-30-32-28-71 4-96 15-12 37-21 49-21 29 0 65 40 65 73 0 61-76 89-118 44z"/><path d="m6645 2850c-59-11-58-70 0-80 16-3 89-2 164 2 107 5 146 11 184 28 26 11 47 25 47 30 0 6-26 10-57 11-32 1-115 4-184 7-69 4-139 5-154 2z"/><path d="m11571 2836c-16-19-11-46 12-60 25-16 52 4 52 40 0 24-5 30-26 32-14 2-31-4-38-12z"/><path d="m9857 2812c-35-39-9-102 41-102 28 0 62 34 62 60 0 27-35 60-63 60-13 0-31-8-40-18z"/><path d="m15830 2810c-8-14-8-26 0-40 10-19 19-19 373-13 287 4 365 8 377 19 13 12 13 16 0 28-12 11-90 15-377 19-354 6-363 6-373-13z"/><path d="m4976 2769c-24-35 0-79 45-79 54 0 79 55 37 84-31 22-64 20-82-5z"/><path d="m16160 2719c-25-5-56-17-70-27-33-25-38-67-10-82 21-11 60-5 60 10 0 10 56 30 86 30 13 0 24-5 24-11 0-13-55-67-108-106-101-73-125-119-85-159 15-15 34-16 177-9 89 4 164 9 168 11 12 8 9 49-4 62-7 7-39 12-72 13-34 0-81 4-104 7l-44 7 67 54c73 58 100 104 90 152-12 55-65 70-175 48z"/><path d="m12127 2705c-27-7-57-21-68-31-43-38-8-110 41-84 11 6 20 15 20 21 0 13 62 39 91 39 19 0 8-15-57-82-44-46-88-103-99-127-17-39-18-46-4-70 19-33 66-38 180-16 115 21 135 43 82 85-25 20-36 22-103 16l-75-6 88 81c98 91 108 119 62 164-28 29-79 32-158 10z"/><path d="m8003 2680c-34-14-30-49 7-61 22-8 30-17 30-34 0-36-18-77-48-108-19-20-23-30-15-38 21-21 66 5 101 55 26 39 32 58 32 100 0 57-5 68-37 85-25 13-40 13-70 1z"/><path d="m4122 2632c-19-13-101-183-95-198 3-8 15-14 27-14 15 1 32 20 64 72 49 83 59 113 42 133-14 17-20 18-38 7z"/><path d="m2765 2586c-31-31-31-41 1-72 18-19 31-24 47-19 59 18 207 44 250 45 27 0 58-5 69-11 35-19 43 6 9 30-39 28-123 43-224 39-45-2-92 1-104 5-18 6-28 3-48-17z"/><path d="m17033 2563c-45-25-133-109-133-128 0-21 36-55 59-55 21 0 45 25 37 38-3 5 13 26 35 48l40 39 21-28c26-36 61-53 123-61 125-16 313 81 238 122-11 7-31 2-67-17-42-21-65-26-130-26-73 0-80 2-95 25-42 64-72 74-128 43z"/><path d="m13124 2446c-51-22-59-72-18-112 21-22 31-25 62-19 54 10 92 41 92 75 0 31-8 39-60 57-42 15-38 15-76-1z"/><path d="m15400 2359c-102-5-428-13-725-19-713-13-745-15-745-50 0-27 33-33 132-26 46 4 326 11 623 16s610 12 696 16c109 4 177 2 225-7 38-7 121-14 186-16 110-4 117-3 137 18 18 19 28 46 19 50-2 1-68 5-148 10-80 4-161 10-180 12s-118 0-220-4z"/><path d="m2850 2337c-27-14-38-43-21-60 15-15 123-9 248 13 133 24 166 33 171 48 5 17-363 17-398-1z"/><path d="m16992 2160c-36-22-58-60-49-84s37-19 59 9c24 30 68 33 92 6 18-20 86-41 133-41 15 0 44 9 63 19 19 11 50 26 68 35 35 16 42 45 17 66-19 16-69 6-102-20-37-29-103-27-141 5-37 31-94 33-140 5z"/><path d="m7676 2093c-7-16-20-47-27-71-14-49-77-119-151-169-53-36-62-67-30-96 26-24 37-22 84 21 30 26 39 31 34 17-18-48-36-132-42-199-8-87 3-116 45-116 28 0 28 0 35 88 4 48 11 103 15 122 17 70 83 276 102 319 10 24 19 53 19 65 0 51-60 64-84 19z"/><path d="m14886 2061c-28-44-94-95-187-144-50-27-65-40-67-60-4-29 30-59 57-50 9 4 45 29 80 57 73 57 73 62 11-96-47-118-48-153-5-164 32-8 55 11 55 46 0 15 16 67 36 116 54 132 104 276 104 300 0 21-17 34-46 34-7 0-25-17-38-39z"/><path d="m15218 2051c-82-26-138-97-138-173 0-19-7-50-16-67-20-40-15-125 9-148 9-9 40-20 69-24 47-7 60-4 115 22 103 49 183 161 183 256 0 52-28 103-65 119-43 18-124 25-157 15zm137-83c24-19 27-26 22-66-10-92-118-192-207-192-34 0-50 4-54 16-11 28-6 62 11 80 11 11 16 29 14 53-3 42 30 98 69 118 41 21 113 16 145-9z"/><path d="m4085 861c-79-37-145-108-145-155 0-38 32-73 91-96 19-7 36-15 38-17 3-2-21-30-53-62-44-45-60-69-66-99-8-45 6-87 38-116 45-40 204 8 255 76 11 14 22 46 24 71 4 37 0 55-21 92l-25 47 34 51c41 61 45 98 12 124-17 13-22 24-17 38 10 27-8 62-34 69-41 11-72 6-131-23zm116-63 26-12-25-47c-13-26-34-57-46-68-23-21-23-21-79 4-32 13-57 31-57 38 0 30 94 94 141 96 8 1 26-4 40-11zm-22-272c14-16 18-67 7-85-4-6-29-22-54-35-115-58-135-25-41 70 35 35 66 64 70 64s12-6 18-14z"/><path d="m5149 838c-122-89-210-226-217-343-7-108 30-151 140-162 83-7 129 13 163 71 48 82 45 144-8 176-43 27-94 25-152-5-27-13-51-23-53-21-7 7 40 91 76 135 44 54 108 101 138 101 31 0 41 35 18 61-25 27-55 24-105-13zm35-321c14-10 15-18 7-39-18-47-47-68-93-67-24 0-51 4-60 7-17 7-17 9 1 38 10 17 38 40 62 52 52 25 60 26 83 9z"/><path d="m4660 827c-57-28-132-101-160-157-12-23-27-74-35-113-7-40-16-81-20-92-3-12 1-28 10-40 8-11 25-36 38-55 44-68 146-77 226-20 49 36 70 94 51 141-19 44-87 72-161 67-52-4-59-2-59 14 0 23 24 72 57 116 27 36 109 82 147 82 32 0 51 32 36 60-15 27-72 26-130-3zm18-359c34-34 1-68-67-68-30 0-44 6-55 22-31 44-19 55 65 57 25 0 50-4 57-11z"/><path d="m6112 758c-23-46-67-119-100-163-57-77-162-185-179-185-5 0-14 14-20 31-10 25-16 30-40 27s-28-8-31-39c-6-73 75-114 140-71 41 27 127 126 191 220l56 82-1-63c-2-122 66-187 150-143 33 17 100 87 134 139l25 38 6-42c7-51 31-77 83-89 83-20 167-7 231 36 28 18 28 18-97 34l-125 15-3 35c-2 19 4 63 13 98 16 58 16 64 1 87-19 28-47 32-70 9-9-8-37-48-62-87-72-111-116-167-152-189-57-35-62-20-47 169 9 112 2 133-40 133-19 0-31-15-63-82z"/><path d="m2930 703c-93-16-160-59-160-103 0-40 32-58 63-35 12 8 37 27 56 40 46 34 72 31 132-10 45-31 59-35 113-35 88 1 206 58 206 101 0 33-29 33-94 0-85-43-125-42-200 9-58 39-66 42-116 33z"/><path d="m3195 444c-67-28-124-27-156 2-38 34-152 2-242-69-30-23-37-35-35-56 5-41 43-40 87 2 41 40 90 67 121 67 11 0 37-11 58-25 60-40 110-42 200-10 91 33 102 40 102 69 0 52-44 58-135 20z"/></g><g fill="#44b" transform="matrix(.054411653 0 0 -.054411653 1594.32742653537 2987.32826191264)"><path d="m750 2973c-57-10-88-25-119-57-40-41-55-100-46-179 6-45 12-61 32-77 32-25 35-25 64-1 22 17 24 26 21 89-4 105 24 120 164 87 33-7 119-19 190-25 88-8 134-16 144-26 32-32 8-420-28-456-18-18-126-28-289-28-185 0-206-4-250-52-55-58-58-82-55-363 1-145 7-274 13-293 11-34 51-62 89-62 12 0 35 14 52 31l31 30-6 238c-3 130-3 249 0 264l5 27h112c234 1 363 26 423 82 58 54 98 260 91 463-4 122-7 138-34 191-40 81-79 100-217 108-174 10-361 14-387 9z"/><path d="m3660 2971c-42-9-83-34-103-65-39-59-50-127-54-343-5-206-5-212 18-252 28-50 78-86 143-102 48-12 257-8 370 7l49 7-7-104c-4-57-11-189-16-294-9-177-9-192 8-214 35-47 100-46 136 2 22 29 27 86 42 452 7 191 0 235-44 283-45 48-92 56-241 38-146-18-229-20-265-6l-26 10v162c0 156 8 230 27 249 5 5 99 6 210 2l201-6 5-50c3-39 11-56 31-74 34-29 48-29 80 0 24 20 26 30 28 113 4 147-23 169-218 179-242 11-340 13-374 6z"/><path d="m1565 2945c-14-13-25-32-25-42s-1-297-3-638c-2-677-3-662 55-694 33-19 73-7 101 31 18 24 20 51 29 300 5 150 10 278 12 283 2 6 37 8 97 3 52-3 135-7 186-7 154-2 161-10 143-176-21-189-27-310-18-343 12-45 45-72 86-72 71 0 102 46 102 151 0 33 7 118 16 187 24 190 9 280-58 349-50 52-112 67-263 65-71-1-164-6-205-11-41-4-78-7-81-5-4 2-10 108-13 236-9 286-17 352-47 384-31 33-82 32-114-1z"/><path d="m2542 2944c-55-38-64-109-53-419 6-186 9-215 28-250 50-95 116-125 302-135 75-4 171-5 215-1l78 7-4-178c-2-97-7-181-11-184-4-4-42 1-85 11-104 26-285 27-363 3-106-33-149-107-99-170 26-34 68-41 132-21 74 23 202 20 308-7 182-47 274 5 301 168 12 77 27 831 19 994-7 152-20 181-86 186-88 7-103-51-104-401v-219l-201 4c-197 3-201 3-220 27-18 21-19 42-19 283v260l-29 29c-33 33-74 38-109 13z"/><path d="m2374 1391c-55-34-79-78-79-147 0-51 4-66 27-96 35-45 102-73 153-64 78 15 146 111 131 188-20 108-145 172-232 119z"/><path d="m1853 999c-39-11-66-56-61-101 6-59 69-64 76-6 4 30 34 38 145 38h67v-110c0-135-1-136-132-126-85 6-89 6-113-18-24-25-25-28-25-179 0-162 4-177 47-177 35 0 43 29 43 159v121h73c85 0 141 14 168 41 17 17 19 34 19 169 0 147-1 152-25 175-23 24-30 25-137 24-62 0-128-5-145-10z"/><path d="m2985 1000c-91-16-93-18-104-58-15-51-14-537 0-564 19-36 69-48 204-48 121 0 127 1 151 25l24 24-2 292-3 292-26 19c-31 23-161 33-244 18zm169-86c14-5 16-37 16-250v-245l-102 3-103 3v240 240l40 6c57 9 131 10 149 3z"/><path d="m2351 971c-24-24-29-73-37-372-6-232-6-237 15-258 23-23 29-25 51-11 12 7 16 40 20 150l5 141 35-23c19-13 59-55 88-93 30-39 78-96 108-128 47-51 56-57 74-47 29 16 25 42-15 92-19 24-62 78-95 121-61 77-61 77-33 77 15 0 46 9 69 19 56 26 67 57 62 179-6 156-27 172-220 172-93 0-111-3-127-19zm257-74c16-13 17-168 0-185-7-7-41-12-84-12-40 0-84-4-98-10l-26-10v120 119l98-6c53-3 103-10 110-16z"/></g></svg>