<?xml version="1.0" standalone="no"?>
<!DOCTYPE svg PUBLIC "-//W3C//DTD SVG 20010904//EN"
 "http://www.w3.org/TR/2001/REC-SVG-20010904/DTD/svg10.dtd">
<svg version="1.0" xmlns="http://www.w3.org/2000/svg"
 width="799.090962pt" height="430.988296pt" viewBox="0 0 799.090962 430.988296"
 preserveAspectRatio="xMidYMid meet">
<metadata>
Created by potrace 1.16, written by Peter Selinger 2001-2019
</metadata>
<g transform="translate(-34.424578,438.988296) scale(0.100000,-0.100000)"
fill="#000000" stroke="none">
<path d="M6547 4383 c-3 -5 -5 -31 -4 -59 0 -28 -5 -64 -12 -81 -7 -17 -11
-50 -9 -74 3 -37 8 -47 37 -66 20 -14 49 -23 71 -23 63 0 103 56 131 184 9 41
18 60 31 64 24 6 23 39 -1 52 -27 14 -54 13 -76 -4 -18 -13 -18 -14 7 -39 18
-18 22 -29 15 -36 -6 -6 -18 -39 -27 -73 -19 -75 -50 -104 -100 -93 -32 7 -32
8 -26 54 16 121 20 136 43 139 23 3 39 34 28 52 -7 12 -102 14 -108 3z"/>
<path d="M1721 4351 c-8 -14 -7 -22 4 -31 17 -14 20 -46 6 -54 -13 -8 -32
-130 -25 -152 12 -33 40 -52 87 -59 38 -6 48 -4 64 14 10 12 29 33 42 46 22
23 34 59 48 143 3 18 14 39 25 46 32 22 19 50 -24 54 -28 2 -39 -1 -47 -16 -8
-15 -7 -23 4 -32 17 -14 19 -33 5 -58 -5 -9 -17 -43 -26 -74 -12 -47 -20 -58
-37 -60 -36 -2 -71 3 -81 12 -15 15 24 151 51 176 33 31 21 55 -26 52 -20 -1
-42 2 -48 5 -7 4 -16 -1 -22 -12z"/>
<path d="M6923 4030 c-32 -19 -33 -22 -33 -89 0 -77 4 -81 71 -81 27 0 45 6
57 20 17 21 24 21 442 18 234 -1 459 -4 501 -6 l76 -3 1 -525 1 -525 -35 -31
c-29 -26 -34 -38 -34 -74 0 -36 5 -46 29 -63 16 -12 34 -21 40 -21 11 0 9 -18
-5 -71 -3 -9 -18 -22 -33 -29 -34 -14 -62 -42 -88 -89 -28 -51 -48 -60 -73
-33 -11 12 -27 22 -36 22 -20 0 -30 -29 -16 -50 6 -9 18 -54 28 -99 16 -72 20
-82 38 -79 12 2 26 14 33 28 6 14 32 49 57 78 25 30 46 58 46 63 0 5 -11 11
-25 15 -34 8 -32 19 13 59 51 48 62 45 64 -15 0 -27 1 -55 2 -62 1 -7 -10 -18
-24 -25 -36 -18 -50 -42 -50 -84 0 -50 8 -69 36 -79 l23 -9 0 -545 c0 -502 -2
-545 -17 -550 -9 -3 -89 -3 -177 -1 -88 2 -295 5 -460 6 -165 1 -349 4 -409 8
l-110 6 3 155 c1 85 -1 163 -4 173 -8 18 -50 24 -60 7 -4 -7 -7 -380 -5 -761
0 -57 3 -67 19 -72 39 -10 42 3 45 209 2 109 4 200 5 201 0 1 269 0 595 -2
l595 -5 25 25 25 25 -1 558 -2 557 23 43 c29 57 25 91 -17 118 -18 13 -28 25
-23 28 5 4 9 40 9 81 -1 89 15 115 68 115 18 0 34 5 36 11 2 6 22 14 43 18 28
4 41 12 43 25 7 36 -44 47 -94 21 -16 -8 -36 -15 -44 -15 -9 0 -20 -4 -25 -9
-6 -5 -20 -5 -34 0 l-25 10 37 30 c33 27 37 36 37 75 0 25 -5 54 -10 65 -7 13
-11 205 -11 569 0 500 -2 551 -17 570 -19 22 -32 23 -742 36 l-315 5 -31 35
c-37 40 -39 40 -81 14z m55 -62 c17 -17 15 -48 -2 -48 -52 0 -66 52 -15 59 3
1 10 -4 17 -11z"/>
<path d="M6242 4006 l-43 -35 -443 1 c-474 0 -531 -4 -546 -33 -7 -12 -12
-525 -14 -1438 -3 -1347 -2 -1422 14 -1449 l18 -30 554 4 c304 2 563 1 576 -2
22 -6 22 -7 22 -206 l0 -199 28 3 27 3 6 195 c4 107 7 290 8 406 1 200 0 212
-19 229 -19 17 -22 17 -37 2 -14 -14 -16 -40 -14 -187 l3 -170 -542 0 c-297 0
-545 -2 -549 -5 -29 -17 -31 32 -27 586 3 310 5 567 5 572 1 4 215 7 476 7
l475 -1 15 -36 c8 -19 15 -42 15 -50 0 -33 135 -183 164 -183 4 0 25 -12 47
-26 34 -21 56 -26 143 -31 112 -6 186 9 256 53 90 57 190 191 190 257 0 20 4
20 235 15 198 -5 239 -8 254 -22 10 -9 35 -16 61 -16 36 0 48 6 78 38 40 41
42 66 8 94 -11 10 -26 22 -33 28 -7 5 -30 10 -52 10 -31 0 -44 -6 -60 -26
l-20 -26 -231 -3 c-126 -2 -230 0 -231 3 -1 4 -2 21 -4 37 -4 45 -43 123 -89
180 -71 87 -120 118 -220 136 -34 6 -72 13 -86 16 -33 6 -148 -15 -183 -34
-15 -8 -38 -20 -50 -26 -57 -30 -117 -79 -117 -96 0 -6 -4 -11 -9 -11 -5 0
-19 -21 -31 -47 -13 -27 -26 -56 -31 -65 -5 -10 -9 -34 -9 -53 l0 -35 -82 0
c-46 0 -261 -3 -479 -7 l-396 -6 -5 254 c-3 140 -3 491 0 780 l5 526 276 6
c152 4 366 7 477 7 184 0 202 -2 218 -19 22 -24 87 -35 120 -19 29 13 29 13
27 88 -2 42 -7 59 -23 73 -32 27 -77 21 -126 -17z m96 -32 c28 -8 29 -40 1
-54 -47 -26 -97 22 -51 49 20 12 21 12 50 5z m432 -1371 c63 -21 110 -46 110
-57 0 -18 -185 -186 -204 -186 -17 0 -226 195 -226 211 0 14 78 44 130 50 68
8 131 2 190 -18z m-264 -193 c60 -61 110 -115 112 -120 2 -5 -9 -19 -24 -32
-15 -13 -61 -56 -101 -95 -40 -40 -78 -73 -84 -73 -17 0 -65 59 -94 113 -35
67 -34 148 1 225 28 62 51 92 69 92 6 0 61 -50 121 -110z m437 63 c4 -10 13
-36 21 -58 37 -97 29 -162 -31 -258 -23 -36 -25 -38 -46 -24 -12 8 -55 47 -96
85 l-73 70 53 49 c29 26 76 71 104 100 27 29 53 52 56 53 4 0 9 -8 12 -17z
m-215 -291 c26 -26 64 -60 85 -76 20 -16 37 -32 37 -37 0 -12 -57 -36 -130
-54 -51 -12 -78 -13 -125 -6 -98 17 -125 23 -125 30 1 14 192 191 206 191 3 0
26 -21 52 -48z"/>
<path d="M1425 4001 c-19 -19 -41 -20 -475 -23 -563 -3 -567 -3 -587 -34 -13
-21 -15 -183 -17 -1449 l-2 -1426 22 -20 c22 -21 30 -21 502 -21 l479 -1 -5
-181 c-3 -120 0 -191 7 -210 11 -27 13 -27 34 -13 27 18 27 26 18 512 l-6 330
-25 -3 c-14 -2 -27 -6 -29 -8 -2 -2 -3 -80 -2 -174 l1 -170 -282 0 c-156 0
-363 -1 -461 -2 -146 -2 -180 1 -188 13 -5 8 -7 20 -4 27 8 21 7 1056 -1 1076
-13 34 19 41 179 40 83 -1 302 -2 485 -3 l332 -1 0 -34 c0 -33 17 -82 43 -120
21 -32 91 -102 120 -120 108 -66 116 -69 237 -70 76 -1 130 4 160 14 120 38
270 198 270 287 0 20 6 36 18 42 20 10 429 8 454 -3 9 -4 18 -16 21 -27 4 -14
14 -19 39 -19 29 0 39 7 66 44 18 24 32 53 32 63 -1 43 -119 82 -152 50 -13
-13 -55 -17 -233 -21 -153 -4 -222 -2 -232 5 -7 6 -13 25 -13 41 0 16 -9 46
-20 68 -24 47 -127 160 -145 160 -8 0 -15 3 -17 8 -7 15 -67 42 -95 42 -16 0
-34 5 -40 11 -5 5 -46 10 -90 11 -90 0 -173 -24 -254 -74 -77 -47 -158 -158
-168 -233 l-6 -40 -145 -8 c-131 -7 -829 -1 -838 7 -4 5 -2 584 4 1116 l5 435
257 2 c141 1 363 3 493 5 l236 3 13 -28 c23 -53 81 -60 128 -17 30 28 31 111
2 140 -27 27 -98 27 -125 1z m89 -47 c21 -8 20 -27 -3 -48 -18 -17 -20 -17
-40 3 -22 22 -26 33 -14 44 8 9 36 9 57 1z m452 -1365 c21 -7 46 -19 55 -26 8
-7 21 -13 27 -13 24 0 10 -22 -50 -80 -89 -84 -118 -114 -118 -122 0 -5 -9 -8
-20 -8 -20 0 -51 26 -183 152 -59 58 -70 88 -29 88 10 0 23 5 28 10 28 28 207
27 290 -1z m-321 -162 c44 -45 97 -98 119 -116 l39 -34 -109 -103 c-60 -57
-113 -104 -118 -104 -26 0 -84 83 -106 150 -21 64 -22 76 -11 126 7 30 18 65
24 77 23 42 58 87 70 87 6 0 48 -37 92 -83z m497 7 c28 -48 39 -126 27 -187
-6 -29 -15 -56 -20 -62 -5 -5 -9 -16 -9 -24 0 -22 -31 -51 -54 -51 -13 0 -49
29 -94 75 -40 41 -78 75 -83 75 -24 0 -1 30 89 116 53 51 104 93 111 91 8 -1
23 -16 33 -33z m-228 -271 c33 -32 73 -72 89 -90 l28 -32 -33 -14 c-94 -41
-229 -54 -297 -29 -14 6 -35 13 -46 17 -17 6 -5 20 85 106 58 54 107 99 109
99 2 0 31 -26 65 -57z"/>
<path d="M2095 4009 c-4 -5 -18 -14 -31 -20 -23 -8 -25 -14 -22 -61 2 -44 7
-53 23 -57 11 -2 23 -9 28 -16 12 -22 78 -6 107 26 l25 27 475 -1 475 -2 -3
-535 -3 -535 -30 -30 c-39 -42 -39 -80 3 -117 38 -33 69 -36 109 -7 24 17 29
27 29 62 0 24 -8 53 -17 67 -17 23 -18 68 -19 575 0 303 -1 555 -2 562 -5 36
-36 38 -542 34 -493 -3 -495 -3 -514 18 -20 22 -80 29 -91 10z m65 -54 c10
-12 10 -18 0 -30 -15 -19 -29 -19 -54 0 -16 12 -17 17 -6 30 16 19 44 19 60 0z"/>
<path d="M8194 3199 c-18 -20 -18 -21 1 -35 10 -8 22 -14 27 -14 4 0 8 -34 8
-76 0 -61 -4 -81 -20 -101 -11 -14 -17 -29 -14 -34 3 -5 32 -9 64 -9 49 0 61
3 70 20 9 17 7 22 -15 30 -25 9 -25 11 -25 125 l0 115 -38 0 c-27 0 -45 -7
-58 -21z"/>
<path d="M3395 3185 c-5 -2 -22 -6 -37 -9 -33 -7 -36 -26 -8 -51 17 -15 20
-31 20 -96 l0 -77 -30 -7 c-34 -7 -37 -16 -14 -35 17 -15 110 -20 137 -7 25
11 21 34 -8 41 -24 6 -24 8 -27 123 -3 110 -7 126 -33 118z"/>
<path d="M6106 3121 c-4 -6 0 -21 8 -33 13 -20 13 -29 -1 -78 -8 -30 -18 -70
-23 -88 -5 -19 -16 -39 -26 -46 -10 -8 -15 -20 -11 -30 9 -22 109 -23 127 0
11 13 10 16 -8 21 -33 8 -31 65 2 83 40 21 57 7 50 -38 -8 -52 8 -82 44 -82
16 0 33 5 40 12 18 18 14 49 -7 55 -13 3 -20 16 -24 41 -4 32 0 40 24 60 37
30 40 78 7 107 -18 16 -41 21 -109 23 -54 3 -89 0 -93 -7z m157 -53 c10 -33
-25 -68 -68 -68 -20 0 -19 39 2 62 18 21 59 24 66 6z"/>
<path d="M1278 3053 c-39 -3 -48 -8 -48 -23 0 -10 7 -23 16 -28 16 -9 16 -13
0 -57 -9 -27 -16 -56 -16 -65 0 -23 -29 -80 -41 -80 -5 0 -9 -11 -9 -24 0 -20
6 -25 38 -28 20 -3 45 -3 54 0 24 6 32 34 13 48 -10 8 -15 23 -13 41 3 25 7
28 47 31 l43 3 -4 -33 c-10 -64 27 -102 70 -72 24 16 19 50 -7 57 -29 7 -26
73 3 92 29 19 39 55 27 88 -10 25 -76 59 -109 55 -9 -1 -38 -3 -64 -5z m110
-85 c-3 -31 -6 -33 -45 -36 -35 -3 -43 0 -43 14 0 28 31 54 62 54 27 0 29 -3
26 -32z"/>
<path d="M2730 2921 c0 -33 -4 -62 -9 -65 -4 -3 -11 -19 -14 -36 -4 -16 -16
-49 -27 -72 -11 -23 -20 -45 -20 -49 0 -13 58 -21 79 -10 17 9 18 15 8 40 -9
24 -7 34 7 57 l19 27 18 -24 c10 -13 19 -33 19 -44 1 -38 43 -71 75 -59 21 9
19 16 -20 74 l-35 53 20 34 c11 19 20 43 20 54 0 17 5 20 28 15 35 -8 55 5 50
35 -2 17 -10 25 -29 27 -20 2 -31 -5 -52 -37 -15 -22 -27 -44 -27 -49 0 -16
-50 -36 -61 -25 -12 12 23 78 47 87 29 11 2 26 -47 26 l-49 0 0 -59z"/>
<path d="M7588 2943 c-14 -4 -16 -12 -11 -49 3 -24 1 -49 -4 -56 -6 -7 -18
-40 -28 -73 -10 -33 -22 -64 -27 -70 -15 -17 -8 -33 22 -45 26 -11 33 -10 50
5 14 13 17 22 10 29 -19 19 -9 86 14 86 13 0 33 -28 58 -82 13 -30 23 -38 43
-38 38 0 40 23 6 61 -38 41 -43 97 -11 117 11 7 20 21 20 31 0 15 8 21 33 23
36 3 45 33 15 52 -22 13 -51 -2 -57 -30 -2 -10 -9 -23 -17 -27 -8 -4 -14 -19
-14 -33 0 -22 -4 -25 -32 -22 -43 4 -46 26 -8 68 16 18 30 37 30 41 0 16 -51
23 -92 12z"/>
<path d="M3195 2640 c-1 -3 -5 -17 -9 -32 -4 -17 -23 -37 -56 -57 -27 -17 -50
-38 -50 -46 0 -8 -4 -15 -10 -15 -5 0 -10 -8 -10 -18 0 -11 -9 -27 -19 -36
-18 -16 -21 -16 -45 -1 -13 9 -35 15 -48 13 -27 -4 -28 -33 -1 -88 10 -19 22
-53 28 -75 13 -53 39 -57 75 -13 15 18 46 52 69 76 23 24 40 49 38 55 -2 7
-20 13 -40 15 -20 2 -37 6 -37 9 0 11 85 83 97 83 16 0 15 -137 -1 -148 -20
-12 -66 -73 -66 -87 0 -7 14 -26 31 -43 l30 -30 2 -540 2 -541 -47 -11 c-26
-7 -52 -9 -57 -5 -6 3 -195 6 -420 5 l-411 0 -2 177 c-3 174 -3 178 -25 181
-14 2 -26 -4 -32 -17 -7 -12 -11 -156 -11 -414 1 -423 1 -427 50 -412 20 6 21
12 19 199 -1 106 2 199 6 206 6 10 106 12 481 9 432 -4 475 -3 490 13 15 15
17 71 21 590 4 477 7 576 19 589 20 22 17 82 -6 122 -17 28 -20 50 -19 121 1
50 7 90 13 96 7 5 48 10 91 12 78 3 80 4 83 30 l3 27 -111 3 c-62 2 -113 1
-115 -2z"/>
<path d="M2741 2121 c-33 -33 -40 -71 -17 -90 11 -9 20 -10 36 -1 17 9 20 17
15 41 -6 26 -4 29 18 29 24 0 37 -16 37 -47 0 -9 -23 -38 -51 -66 -59 -58 -89
-115 -67 -128 7 -5 48 -9 90 -9 75 0 78 1 84 26 9 35 -15 60 -44 45 -24 -13
-72 -15 -72 -3 0 4 14 16 30 26 59 34 82 63 87 108 6 55 -19 88 -75 95 -34 5
-43 1 -71 -26z"/>
<path d="M7553 2133 c-7 -2 -22 -24 -35 -49 -20 -41 -21 -46 -5 -61 25 -25 69
-3 65 33 -4 32 11 40 36 21 22 -16 16 -58 -10 -79 -33 -27 -87 -83 -102 -106
-25 -39 -1 -53 93 -54 82 -1 95 6 95 49 0 31 -10 34 -64 16 -41 -14 -49 -14
-57 -2 -6 10 -3 15 10 17 11 2 40 22 65 45 63 57 72 103 28 147 -24 23 -39 30
-69 29 -21 0 -43 -3 -50 -6z"/>
<path d="M847 1843 c-56 -42 -107 -159 -77 -178 6 -3 10 -14 10 -24 0 -43 91
-89 138 -69 35 15 72 48 72 65 0 19 -17 16 -49 -8 -41 -30 -87 -19 -108 26
-15 31 -14 36 3 80 21 52 84 108 110 98 8 -3 18 -18 21 -34 7 -38 31 -58 44
-38 12 20 11 86 -2 94 -6 4 -36 9 -67 11 -50 4 -61 1 -95 -23z"/>
<path d="M5992 1710 c-42 -10 -72 -38 -107 -101 -25 -47 -26 -54 -15 -95 17
-58 49 -92 97 -99 32 -5 45 -2 81 25 41 31 55 60 28 60 -7 0 -19 -6 -25 -14
-7 -8 -25 -19 -41 -24 -24 -9 -33 -7 -54 13 -41 38 -36 88 18 168 34 51 96 29
96 -33 0 -37 24 -16 33 30 6 32 5 46 -5 55 -18 17 -66 24 -106 15z"/>
<path d="M1133 1629 c-8 -8 -7 -18 3 -37 8 -15 14 -35 14 -45 0 -12 6 -17 18
-15 13 3 17 14 17 53 0 42 -3 50 -20 53 -11 1 -25 -2 -32 -9z"/>
<path d="M1129 1489 c-9 -17 -8 -23 2 -30 23 -14 69 -10 75 6 16 40 -56 62
-77 24z"/>
<path d="M6170 1451 c0 -10 -7 -24 -15 -31 -18 -15 -11 -30 16 -30 12 0 19 7
19 20 0 11 5 20 10 20 17 0 23 -29 10 -45 -10 -12 -9 -16 5 -22 34 -12 57 46
35 88 -15 27 -80 27 -80 0z"/>
<path d="M6155 1320 c-15 -16 -15 -22 -5 -35 16 -19 79 -19 104 0 16 12 17 17
6 30 -9 10 -22 14 -36 11 -13 -4 -26 -2 -29 4 -9 15 -20 12 -40 -10z"/>
<path d="M7113 408 c-27 -6 -47 -18 -58 -34 -20 -31 -12 -44 28 -45 25 -1 27
-2 12 -7 -11 -4 -31 -15 -44 -24 -21 -15 -24 -25 -23 -73 2 -78 23 -104 84
-105 38 0 50 5 67 26 43 55 35 146 -16 165 -31 12 -29 22 8 36 23 9 30 17 27
34 -4 28 -33 38 -85 27z m20 -149 c7 -25 -3 -88 -14 -95 -16 -9 -29 35 -23 76
7 43 28 54 37 19z"/>
<path d="M6051 401 c-12 -8 -12 -13 1 -33 12 -19 15 -47 13 -136 l-4 -112 44
0 c49 0 66 14 37 29 -23 12 -35 60 -20 79 6 6 25 12 43 12 44 0 65 26 65 80 0
63 -33 90 -109 90 -31 0 -62 -4 -70 -9z m123 -63 c14 -20 14 -24 -1 -40 -32
-36 -62 -13 -49 37 8 31 30 32 50 3z"/>
<path d="M1246 371 c-4 -5 -2 -40 3 -78 11 -78 8 -150 -7 -165 -15 -15 3 -48
26 -48 10 0 28 7 40 15 20 15 21 17 6 40 -26 40 -15 69 28 76 45 7 63 21 76
58 13 36 -9 84 -44 100 -30 13 -120 15 -128 2z m113 -65 c16 -30 8 -46 -24
-46 -29 0 -39 14 -31 46 8 31 39 31 55 0z"/>
<path d="M6338 319 c-24 -14 -20 -187 5 -201 21 -11 37 -3 37 20 0 9 7 30 15
46 14 26 14 31 -2 48 -14 16 -15 24 -5 50 6 18 11 33 9 34 -11 9 -45 11 -59 3z"/>
<path d="M2280 310 c-8 -5 -22 -11 -30 -13 -9 -3 -22 -17 -30 -32 -13 -24 -13
-28 4 -40 23 -18 45 -9 52 22 4 13 11 22 18 20 13 -5 10 -51 -5 -56 -5 -1 -2
-9 7 -15 10 -8 14 -18 9 -25 -5 -9 -12 -7 -26 8 -11 12 -23 21 -28 21 -15 0
-41 -37 -41 -58 0 -32 29 -42 101 -34 l64 7 -4 80 c-2 64 -7 85 -24 103 -21
23 -42 27 -67 12z"/>
<path d="M6435 309 c-4 -6 -4 -13 -1 -16 3 -3 1 -13 -4 -23 -6 -11 -5 -30 2
-53 9 -28 8 -43 -1 -63 -14 -31 -1 -46 34 -42 18 3 19 11 20 106 1 99 0 102
-22 102 -12 0 -25 -5 -28 -11z"/>
<path d="M6593 308 c-5 -7 -18 -30 -28 -50 -17 -33 -18 -41 -6 -75 27 -73 91
-96 130 -47 30 38 26 47 -17 39 -44 -7 -56 2 -65 52 -5 23 -2 37 10 48 14 15
17 14 35 -5 11 -12 27 -20 36 -18 21 4 27 34 12 53 -15 18 -94 20 -107 3z"/>
<path d="M1503 284 c-3 -9 -1 -25 5 -35 14 -23 15 -79 3 -113 -13 -32 8 -51
45 -42 19 5 25 12 21 25 -2 10 2 29 9 42 19 35 17 49 -7 49 -18 0 -20 4 -14
23 16 50 12 62 -23 65 -23 2 -34 -2 -39 -14z"/>
<path d="M1620 259 c-8 -27 -8 -50 -2 -69 7 -20 7 -35 -3 -53 -11 -22 -11 -28
1 -38 22 -18 64 -3 64 24 0 13 -4 27 -9 33 -6 5 -6 30 0 63 12 62 7 81 -20 81
-15 0 -23 -10 -31 -41z"/>
<path d="M1788 281 c-25 -25 -49 -87 -41 -108 13 -39 54 -83 77 -83 30 0 73
44 54 56 -7 5 -24 7 -38 6 -20 -2 -29 5 -44 33 -20 36 -20 36 2 57 20 20 22
20 46 5 14 -10 30 -17 36 -17 14 0 13 43 -2 58 -17 17 -70 14 -90 -7z"/>
<path d="M6774 166 c-7 -29 9 -55 32 -52 23 4 36 22 32 47 -2 18 -10 25 -30
27 -22 3 -29 -2 -34 -22z"/>
<path d="M1968 159 c-24 -13 -23 -32 3 -55 20 -18 21 -18 39 6 17 23 17 26 3
42 -18 21 -22 21 -45 7z"/>
</g>
</svg>
