<?xml version="1.0" encoding="utf-8" standalone="no"?>
<!DOCTYPE svg PUBLIC "-//W3C//DTD SVG 1.1//EN"
  "http://www.w3.org/Graphics/SVG/1.1/DTD/svg11.dtd">
<svg xmlns:xlink="http://www.w3.org/1999/xlink" width="283.891pt" height="136.419981pt" viewBox="110 15 262.891 136.419981" xmlns="http://www.w3.org/2000/svg" version="1.1">
 <metadata>
  <rdf:RDF xmlns:dc="http://purl.org/dc/elements/1.1/" xmlns:cc="http://creativecommons.org/ns#" xmlns:rdf="http://www.w3.org/1999/02/22-rdf-syntax-ns#">
   <cc:Work>
    <dc:type rdf:resource="http://purl.org/dc/dcmitype/StillImage"/>
    <dc:date>2023-03-19T00:52:03.012053</dc:date>
    <dc:format>image/svg+xml</dc:format>
    <dc:creator>
     <cc:Agent>
      <dc:title>Matplotlib v3.7.1, https://matplotlib.org/</dc:title>
     </cc:Agent>
    </dc:creator>
   </cc:Work>
  </rdf:RDF>
 </metadata>
 <defs>
  <style type="text/css">*{stroke-linejoin: round; stroke-linecap: butt}</style>
 </defs>
 <g id="figure_1">
  <g id="patch_1">
   <path d="M 0 151.419981 
L 393.891 151.419981 
L 393.891 0 
L 0 0 
L 0 151.419981 
z
" style="fill: none"/>
  </g>
  <g id="axes_1">
   <g id="patch_2">
    <path d="M 190.5348 47.064981 
C 190.5348 46.050917 190.131535 45.077349 189.414483 44.360298 
C 188.697432 43.643246 187.723864 43.239981 186.7098 43.239981 
C 185.695736 43.239981 184.722168 43.643246 184.005117 44.360298 
C 183.288065 45.077349 182.8848 46.050917 182.8848 47.064981 
" clip-path="url(#p249bc31819)" style="fill: none; stroke: #000000; stroke-width: 2; stroke-linejoin: miter"/>
   </g>
   <g id="patch_3">
    <path d="M 198.1848 47.064981 
C 198.1848 46.050917 197.781535 45.077349 197.064483 44.360298 
C 196.347432 43.643246 195.373864 43.239981 194.3598 43.239981 
C 193.345736 43.239981 192.372168 43.643246 191.655117 44.360298 
C 190.938065 45.077349 190.5348 46.050917 190.5348 47.064981 
" clip-path="url(#p249bc31819)" style="fill: none; stroke: #000000; stroke-width: 2; stroke-linejoin: miter"/>
   </g>
   <g id="patch_4">
    <path d="M 205.8348 47.064981 
C 205.8348 46.050917 205.431535 45.077349 204.714483 44.360298 
C 203.997432 43.643246 203.023864 43.239981 202.0098 43.239981 
C 200.995736 43.239981 200.022168 43.643246 199.305117 44.360298 
C 198.588065 45.077349 198.1848 46.050917 198.1848 47.064981 
" clip-path="url(#p249bc31819)" style="fill: none; stroke: #000000; stroke-width: 2; stroke-linejoin: miter"/>
   </g>
   <g id="patch_5">
    <path d="M 213.4848 47.064981 
C 213.4848 46.050917 213.081535 45.077349 212.364483 44.360298 
C 211.647432 43.643246 210.673864 43.239981 209.6598 43.239981 
C 208.645736 43.239981 207.672168 43.643246 206.955117 44.360298 
C 206.238065 45.077349 205.8348 46.050917 205.8348 47.064981 
" clip-path="url(#p249bc31819)" style="fill: none; stroke: #000000; stroke-width: 2; stroke-linejoin: miter"/>
   </g>
   <g id="patch_6">
    <path d="M 294.522486 40.754658 
C 294.700625 38.481541 294.421366 36.179634 293.720792 34.146372 
C 293.020218 32.11311 291.929862 30.440008 290.59061 29.34325 
" clip-path="url(#p249bc31819)" style="fill: none; stroke: #000000; stroke-width: 2; stroke-linejoin: miter"/>
   </g>
   <g id="patch_7">
    <path d="M 293.593644 48.656252 
L 292.207456 40.79063 
L 294.471566 41.056779 
L 294.507291 40.752872 
L 294.537682 40.756444 
L 294.501957 41.060352 
L 296.766068 41.326501 
z
" clip-path="url(#p249bc31819)" style="stroke: #000000; stroke-linejoin: miter"/>
   </g>
   <g id="line2d_1">
    <path d="M 152.2848 138.864981 
L 152.2848 95.833731 
M 152.2848 90.096231 
L 152.2848 47.064981 
" clip-path="url(#p249bc31819)" style="fill: none; stroke: #000000; stroke-width: 2; stroke-linecap: round"/>
   </g>
   <g id="line2d_2">
    <path d="M 163.7598 90.096231 
L 140.8098 90.096231 
" clip-path="url(#p249bc31819)" style="fill: none; stroke: #000000; stroke-width: 2; stroke-linecap: round"/>
   </g>
   <g id="line2d_3">
    <path d="M 158.0223 95.833731 
L 146.5473 95.833731 
" clip-path="url(#p249bc31819)" style="fill: none; stroke: #000000; stroke-width: 2; stroke-linecap: round"/>
   </g>
   <g id="line2d_4">
    <path d="M 152.2848 47.064981 
L 182.8848 47.064981 
M 213.4848 47.064981 
L 244.0848 47.064981 
" clip-path="url(#p249bc31819)" style="fill: none; stroke: #000000; stroke-width: 2; stroke-linecap: round"/>
   </g>
   <g id="line2d_5">
    <path d="M 244.0848 47.064981 
L 244.0848 77.664981 
L 251.7348 77.664981 
L 251.7348 108.264981 
L 236.4348 108.264981 
L 236.4348 77.664981 
L 244.0848 77.664981 
M 244.0848 108.264981 
L 244.0848 138.864981 
" clip-path="url(#p249bc31819)" style="fill: none; stroke: #000000; stroke-width: 2; stroke-linecap: round"/>
   </g>
   <g id="line2d_6">
    <path d="M 244.0848 47.064981 
L 274.6848 47.064981 
M 282.0288 44.004981 
L 299.1648 33.294981 
M 305.2848 47.064981 
L 335.8848 47.064981 
" clip-path="url(#p249bc31819)" style="fill: none; stroke: #000000; stroke-width: 2; stroke-linecap: round"/>
   </g>
   <g id="line2d_7">
    <path d="M 335.8848 47.064981 
L 335.8848 77.664981 
L 343.5348 77.664981 
L 343.5348 108.264981 
L 328.2348 108.264981 
L 328.2348 77.664981 
L 335.8848 77.664981 
M 335.8848 108.264981 
L 335.8848 138.864981 
" clip-path="url(#p249bc31819)" style="fill: none; stroke: #000000; stroke-width: 2; stroke-linecap: round"/>
   </g>
   <g id="line2d_8">
    <path d="M 335.8848 138.864981 
L 244.0848 138.864981 
L 152.2848 138.864981 
" clip-path="url(#p249bc31819)" style="fill: none; stroke: #000000; stroke-width: 2; stroke-linecap: round"/>
   </g>
   <g id="text_1">
    <!-- \calligra{E} -->
    <g transform="translate(100.098637 100.764727) scale(0.245 -0.245)">
     <defs>
      <path id="CALLIG15-45" d="M 4256 2479 
C 4256 2460 4224 2466 4205 2466 
C 3955 2466 3302 2263 2874 1979 
C 2387 1651 2157 1171 2157 882 
C 2157 245 2445 -64 3155 -64 
C 3827 -64 5024 554 5024 1304 
C 5024 1576 4826 1729 4480 1729 
C 3782 1729 2662 653 2662 441 
C 2662 428 2662 415 2675 415 
C 2726 415 2739 447 2758 480 
C 2797 554 3078 900 3507 1225 
C 3878 1511 4294 1651 4480 1651 
C 4762 1651 4941 1571 4941 1285 
C 4941 687 3866 15 3066 15 
C 2618 15 2362 252 2362 488 
C 2362 1220 3264 2226 4115 2391 
C 4173 2405 4275 2424 4314 2424 
C 4346 2424 4358 2394 4384 2371 
C 4467 2283 4627 2224 4774 2224 
C 4832 2224 4890 2258 4890 2310 
C 4890 2452 4710 2497 4403 2497 
L 4371 2497 
C 4333 2497 4275 2517 4275 2668 
C 4275 2681 4595 2755 5184 2982 
C 6035 3316 6573 3844 6573 4245 
C 6573 4438 6406 4545 6106 4545 
C 5677 4545 4762 4118 4358 3591 
C 4205 3377 4109 3109 4109 2963 
C 4109 2889 4134 2782 4134 2735 
C 4134 2716 3821 2622 3251 2622 
C 2861 2622 2458 2874 2458 3273 
C 2458 3692 2874 4164 3533 4390 
C 3878 4509 4147 4509 4320 4522 
C 4346 4522 4384 4529 4384 4568 
C 4384 4601 4314 4608 4288 4608 
C 3738 4608 3091 4396 2707 4083 
C 2400 3824 2323 3592 2323 3267 
C 2323 2928 2720 2550 3232 2550 
C 3821 2550 4083 2648 4160 2648 
C 4166 2648 4256 2499 4256 2479 
z
M 4294 2799 
C 4294 3259 5376 4467 6176 4467 
C 6355 4467 6490 4375 6490 4230 
C 6490 4020 6291 3764 5933 3508 
C 5331 3075 4755 2950 4365 2812 
C 4333 2799 4294 2766 4294 2799 
z
M 4410 2430 
C 4435 2435 4454 2435 4480 2435 
C 4627 2435 4813 2396 4813 2341 
C 4813 2320 4781 2308 4736 2308 
C 4640 2308 4486 2353 4410 2430 
z
" transform="scale(0.015625)"/>
     </defs>
     <use xlink:href="#CALLIG15-45" transform="scale(1.434623)"/>
    </g>
   </g>
   <g id="patch_8">
    <path d="M 244.0848 49.359981 
C 244.693441 49.359981 245.277236 49.118165 245.70761 48.687791 
C 246.137984 48.257417 246.3798 47.673622 246.3798 47.064981 
C 246.3798 46.45634 246.137984 45.872545 245.70761 45.442171 
C 245.277236 45.011797 244.693441 44.769981 244.0848 44.769981 
C 243.476159 44.769981 242.892364 45.011797 242.46199 45.442171 
C 242.031616 45.872545 241.7898 46.45634 241.7898 47.064981 
C 241.7898 47.673622 242.031616 48.257417 242.46199 48.687791 
C 242.892364 49.118165 243.476159 49.359981 244.0848 49.359981 
z
" clip-path="url(#p249bc31819)" style="stroke: #000000; stroke-width: 2; stroke-linejoin: miter"/>
   </g>
   <g id="text_2">
    <!-- $L$ -->
    <g transform="translate(191.20187 35.432347) scale(0.245 -0.245)">
     <defs>
      <path id="CMMI12-4c" d="M 2349 3861 
C 2406 4103 2426 4167 2989 4167 
C 3162 4167 3206 4167 3206 4288 
C 3206 4352 3136 4352 3110 4352 
C 2982 4352 2835 4352 2707 4352 
L 1850 4352 
C 1728 4352 1587 4352 1466 4352 
C 1414 4352 1344 4352 1344 4231 
C 1344 4167 1402 4167 1498 4167 
C 1888 4167 1888 4116 1888 4046 
C 1888 4034 1888 3995 1862 3899 
L 998 472 
C 941 249 928 185 480 185 
C 358 185 294 185 294 70 
C 294 0 333 0 461 0 
L 3328 0 
C 3469 0 3475 6 3520 121 
L 4013 1478 
C 4026 1510 4038 1548 4038 1567 
C 4038 1605 4006 1631 3974 1631 
C 3968 1631 3936 1631 3923 1605 
C 3910 1599 3910 1586 3859 1465 
C 3654 905 3366 185 2285 185 
L 1670 185 
C 1581 185 1568 185 1530 192 
C 1459 198 1453 211 1453 262 
C 1453 307 1466 345 1478 401 
L 2349 3861 
z
" transform="scale(0.015625)"/>
     </defs>
     <use xlink:href="#CMMI12-4c" transform="scale(0.996264)"/>
    </g>
   </g>
   <g id="patch_9">
    <path d="M 244.0848 141.159981 
C 244.693441 141.159981 245.277236 140.918165 245.70761 140.487791 
C 246.137984 140.057417 246.3798 139.473622 246.3798 138.864981 
C 246.3798 138.25634 246.137984 137.672545 245.70761 137.242171 
C 245.277236 136.811797 244.693441 136.569981 244.0848 136.569981 
C 243.476159 136.569981 242.892364 136.811797 242.46199 137.242171 
C 242.031616 137.672545 241.7898 138.25634 241.7898 138.864981 
C 241.7898 139.473622 242.031616 140.057417 242.46199 140.487791 
C 242.892364 140.918165 243.476159 141.159981 244.0848 141.159981 
z
" clip-path="url(#p249bc31819)" style="stroke: #000000; stroke-width: 2; stroke-linejoin: miter"/>
   </g>
   <g id="text_3">
    <!-- $R_1$ -->
    <g transform="translate(254.7948 100.213815) scale(0.245 -0.245)">
     <defs>
      <path id="CMMI12-52" d="M 2355 3924 
C 2413 4160 2438 4160 2688 4160 
L 3149 4160 
C 3699 4160 4109 3995 4109 3499 
C 4109 3175 3942 2240 2656 2240 
L 1933 2240 
L 2355 3924 
z
M 3245 2169 
C 4038 2341 4659 2851 4659 3398 
C 4659 3894 4154 4352 3264 4352 
L 1530 4352 
C 1402 4352 1344 4352 1344 4226 
C 1344 4160 1389 4160 1510 4160 
C 1894 4160 1894 4112 1894 4045 
C 1894 4033 1894 3994 1869 3899 
L 1005 479 
C 947 256 934 192 493 192 
C 346 192 301 192 301 71 
C 301 7 371 7 390 7 
C 506 7 640 7 762 7 
L 1517 7 
C 1632 7 1766 7 1882 7 
C 1933 7 2003 7 2003 128 
C 2003 192 1946 192 1850 192 
C 1459 192 1459 243 1459 306 
C 1459 313 1459 357 1472 407 
L 1901 2112 
L 2669 2112 
C 3277 2112 3392 1731 3392 1522 
C 3392 1427 3328 1179 3283 1014 
C 3213 723 3194 652 3194 532 
C 3194 82 3565 -128 3994 -128 
C 4512 -128 4736 501 4736 591 
C 4736 635 4704 654 4666 654 
C 4614 654 4602 616 4589 565 
C 4435 114 4173 0 4013 0 
C 3853 0 3750 70 3750 356 
C 3750 509 3827 1088 3834 1120 
C 3866 1355 3866 1380 3866 1432 
C 3866 1896 3488 2093 3245 2169 
z
" transform="scale(0.015625)"/>
      <path id="CMR17-31" d="M 1702 4058 
C 1702 4192 1696 4192 1606 4192 
C 1357 3916 979 3827 621 3827 
C 602 3827 570 3827 563 3808 
C 557 3795 557 3782 557 3648 
C 755 3648 1088 3686 1344 3839 
L 1344 461 
C 1344 236 1331 160 781 160 
L 589 160 
L 589 0 
C 896 0 1216 0 1523 0 
C 1830 0 2150 0 2458 0 
L 2458 160 
L 2266 160 
C 1715 160 1702 230 1702 458 
L 1702 4058 
z
" transform="scale(0.015625)"/>
     </defs>
     <use xlink:href="#CMMI12-52" transform="scale(0.996264)"/>
     <use xlink:href="#CMR17-31" transform="translate(74.250826 -14.943915) scale(0.697382)"/>
    </g>
   </g>
   <g id="patch_10">
    <path d="M 278.3568 50.736981 
C 279.330626 50.736981 280.264697 50.350076 280.953296 49.661477 
C 281.641895 48.972878 282.0288 48.038807 282.0288 47.064981 
C 282.0288 46.091155 281.641895 45.157084 280.953296 44.468485 
C 280.264697 43.779886 279.330626 43.392981 278.3568 43.392981 
C 277.382974 43.392981 276.448903 43.779886 275.760304 44.468485 
C 275.071705 45.157084 274.6848 46.091155 274.6848 47.064981 
C 274.6848 48.038807 275.071705 48.972878 275.760304 49.661477 
C 276.448903 50.350076 277.382974 50.736981 278.3568 50.736981 
z
" clip-path="url(#p249bc31819)" style="fill: #ffffff; stroke: #000000; stroke-width: 2; stroke-linejoin: miter"/>
   </g>
   <g id="patch_11">
    <path d="M 301.6128 50.736981 
C 302.586626 50.736981 303.520697 50.350076 304.209296 49.661477 
C 304.897895 48.972878 305.2848 48.038807 305.2848 47.064981 
C 305.2848 46.091155 304.897895 45.157084 304.209296 44.468485 
C 303.520697 43.779886 302.586626 43.392981 301.6128 43.392981 
C 300.638974 43.392981 299.704903 43.779886 299.016304 44.468485 
C 298.327705 45.157084 297.9408 46.091155 297.9408 47.064981 
C 297.9408 48.038807 298.327705 48.972878 299.016304 49.661477 
C 299.704903 50.350076 300.638974 50.736981 301.6128 50.736981 
z
" clip-path="url(#p249bc31819)" style="fill: #ffffff; stroke: #000000; stroke-width: 2; stroke-linejoin: miter"/>
   </g>
   <g id="text_4">
    <!-- $K$ -->
    <g transform="translate(304.298205 36.835597) scale(0.245 -0.245)">
     <defs>
      <path id="CMMI12-4b" d="M 3200 2571 
C 3194 2590 3168 2641 3168 2661 
C 3168 2667 3174 2673 3283 2756 
L 3904 3242 
C 4762 3905 5043 4128 5485 4167 
C 5530 4167 5594 4167 5594 4282 
C 5594 4320 5574 4352 5523 4352 
C 5453 4352 5376 4352 5306 4352 
L 5062 4352 
C 4864 4352 4653 4352 4461 4352 
C 4416 4352 4339 4352 4339 4237 
C 4339 4173 4384 4167 4422 4167 
C 4493 4160 4576 4135 4576 4046 
C 4576 3919 4384 3765 4333 3727 
L 1824 1784 
L 2355 3887 
C 2413 4103 2426 4167 2880 4167 
C 3002 4167 3059 4167 3059 4288 
C 3059 4352 2995 4352 2963 4352 
C 2848 4352 2714 4352 2592 4352 
L 1837 4352 
C 1722 4352 1581 4352 1466 4352 
C 1414 4352 1344 4352 1344 4231 
C 1344 4167 1402 4167 1498 4167 
C 1888 4167 1888 4116 1888 4046 
C 1888 4034 1888 3995 1862 3899 
L 998 472 
C 941 249 928 185 480 185 
C 358 185 294 185 294 70 
C 294 0 352 0 390 0 
C 512 0 640 0 762 0 
L 1510 0 
C 1632 0 1766 0 1888 0 
C 1939 0 2010 0 2010 121 
C 2010 185 1952 185 1856 185 
C 1466 185 1466 236 1466 300 
C 1466 345 1504 504 1530 606 
L 1779 1593 
L 2752 2351 
C 2938 1943 3277 1128 3539 505 
C 3558 466 3571 428 3571 383 
C 3571 185 3315 185 3258 185 
C 3200 185 3136 185 3136 64 
C 3136 0 3206 0 3226 0 
C 3450 0 3686 0 3910 0 
L 4218 0 
C 4314 0 4422 0 4518 0 
C 4557 0 4627 0 4627 121 
C 4627 185 4570 185 4506 185 
C 4269 185 4186 236 4090 466 
L 3200 2571 
z
" transform="scale(0.015625)"/>
     </defs>
     <use xlink:href="#CMMI12-4b" transform="scale(0.996264)"/>
    </g>
   </g>
   <g id="text_5">
    <!-- $R_2$ -->
    <g transform="translate(346.5948 99.066315) scale(0.245 -0.245)">
     <defs>
      <path id="CMR17-32" d="M 2669 989 
L 2554 989 
C 2490 536 2438 459 2413 420 
C 2381 369 1920 369 1830 369 
L 602 369 
C 832 619 1280 1072 1824 1597 
C 2214 1967 2669 2402 2669 3035 
C 2669 3790 2067 4224 1395 4224 
C 691 4224 262 3604 262 3030 
C 262 2780 448 2748 525 2748 
C 589 2748 781 2787 781 3010 
C 781 3207 614 3264 525 3264 
C 486 3264 448 3258 422 3245 
C 544 3790 915 4058 1306 4058 
C 1862 4058 2227 3617 2227 3035 
C 2227 2479 1901 2000 1536 1584 
L 262 146 
L 262 0 
L 2515 0 
L 2669 989 
z
" transform="scale(0.015625)"/>
     </defs>
     <use xlink:href="#CMMI12-52" transform="scale(0.996264)"/>
     <use xlink:href="#CMR17-32" transform="translate(74.250826 -14.943915) scale(0.697382)"/>
    </g>
   </g>
  </g>
 </g>
 <defs>
  <clipPath id="p249bc31819">
   <rect x="7.2" y="7.2" width="379.491" height="137.019981"/>
  </clipPath>
 </defs>
</svg>
