<svg xmlns="http://www.w3.org/2000/svg" xml:lang="en" height="197.74996878604082pt" width="277.6940000000001pt" viewBox="-17.199999999999992 -194.04996878604084 277.6940000000001 197.74996878604082"><path d="M 28.8 -162.0 a 6.3 6.3 0 1 1 12.599999999999998 0.0" style="stroke:black;fill:none;stroke-width:2;stroke-dasharray:-;" /><path d="M 41.4 -162.0 a 6.3 6.3 0 1 1 12.600000000000001 0.0" style="stroke:black;fill:none;stroke-width:2;stroke-dasharray:-;" /><path d="M 54.0 -162.0 a 6.3 6.3 0 1 1 12.599999999999994 0.0" style="stroke:black;fill:none;stroke-width:2;stroke-dasharray:-;" /><path d="M 66.6 -162.0 a 6.3 6.3 0 1 1 12.600000000000009 0.0" style="stroke:black;fill:none;stroke-width:2;stroke-dasharray:-;" /><path d="M 162.71 -182.85 a 9.0 13.5 0 0 1 4.6299999999999955 13.430000000000007" style="stroke:black;fill:none;stroke-width:2;stroke-dasharray:-;" /><path d="M 166.52122247122134 -162.47177783584408 L 164.65691829100678 -169.73912741623684 L 170.01999111186967 -169.10869112435523 Z" style="stroke:black;fill:black;stroke-linecap:butt;stroke-linejoin:miter;" /><path d="M 0.0,-0.0 L 4.711828559719442e-15,-76.95 M 5.20781051337412e-15,-85.05000000000001 L 9.919639073093561e-15,-162.0" style="stroke:black;fill:none;stroke-width:2;stroke-dasharray:-;stroke-linecap:round;stroke-linejoin:round;" /><path d="M 16.200000000000003,-85.05000000000001 L -16.199999999999992,-85.05000000000001" style="stroke:black;fill:none;stroke-width:2;stroke-dasharray:-;stroke-linecap:round;stroke-linejoin:round;" /><path d="M 8.100000000000005,-76.95 L -8.099999999999994,-76.95" style="stroke:black;fill:none;stroke-width:2;stroke-dasharray:-;stroke-linecap:round;stroke-linejoin:round;" /><path d="M 9.919639073093561e-15,-162.0 L 28.80000000000001,-162.0 M 79.20000000000002,-162.0 L 108.00000000000003,-162.0" style="stroke:black;fill:none;stroke-width:2;stroke-dasharray:-;stroke-linecap:round;stroke-linejoin:round;" /><path d="M 108.00000000000003,-162.0 L 108.00000000000003,-99.0 L 117.00000000000003,-99.0 L 117.00000000000003,-63.0 L 99.00000000000003,-63.0 L 99.00000000000003,-99.0 L 108.00000000000003,-99.0 M 108.00000000000003,-63.0 L 108.00000000000004,-0.0" style="stroke:black;fill:none;stroke-width:2;stroke-dasharray:-;stroke-linecap:round;stroke-linejoin:round;" /><path d="M 108.00000000000003,-162.0 L 144.00000000000003,-162.0 M 152.64000000000004,-165.6 L 172.8,-178.20000000000002 M 180.00000000000003,-162.0 L 216.00000000000003,-162.0" style="stroke:black;fill:none;stroke-width:2;stroke-dasharray:-;stroke-linecap:round;stroke-linejoin:round;" /><path d="M 216.00000000000003,-162.0 L 216.00000000000003,-99.0 L 225.00000000000003,-99.0 L 225.00000000000003,-63.0 L 207.00000000000003,-63.0 L 207.00000000000003,-99.0 L 216.00000000000003,-99.0 M 216.00000000000003,-63.0 L 216.00000000000003,-0.0" style="stroke:black;fill:none;stroke-width:2;stroke-dasharray:-;stroke-linecap:round;stroke-linejoin:round;" /><path d="M 216.00000000000003,-0.0 L 108.00000000000001,-1.3226185430791418e-14 L 0.0,-2.6452370861582836e-14" style="stroke:black;fill:none;stroke-width:2;stroke-dasharray:-;stroke-linecap:round;stroke-linejoin:round;" /><g><g><g><path d="M 33.15 -90.66 C 32.01 -91.24 30.69 -91.53 29.19 -91.53 C 27.51 -91.53 26.145 -91.125 25.095 -90.315 C 24.045 -89.505 23.52 -88.53 23.52 -87.39 C 23.52 -86.05 24.165 -84.985 25.455 -84.195 C 26.745 -83.405 28.46 -82.99 30.6 -82.95 C 30.64 -82.95 30.675 -82.91 30.705 -82.83 C 30.735 -82.75 30.77 -82.66 30.81 -82.56 C 30.85 -82.46 30.89 -82.39 30.93 -82.35 L 30.93 -82.29 C 28.71 -81.83 26.97 -80.985 25.71 -79.755 C 24.45 -78.525 23.82 -77.12 23.82 -75.54 C 23.82 -73.94 24.445 -72.695 25.695 -71.805 C 26.945 -70.915 28.48 -70.47 30.3 -70.47 C 32.34 -70.47 34.14 -71.01 35.7 -72.09 C 37.26 -73.17 38.04 -74.39 38.04 -75.75 C 38.04 -76.79 37.7 -77.625 37.02 -78.255 C 36.34 -78.885 35.34 -79.2 34.02 -79.2 C 32.56 -79.2 31.285 -78.72 30.195 -77.76 C 29.105 -76.8 28.36 -75.5 27.96 -73.86 L 28.59 -73.68 C 28.95 -74.94 29.595 -75.965 30.525 -76.755 C 31.455 -77.545 32.45 -77.94 33.51 -77.94 C 34.29 -77.94 34.92 -77.74 35.4 -77.34 C 35.88 -76.94 36.12 -76.4 36.12 -75.72 C 36.12 -74.78 35.77 -73.93 35.07 -73.17 C 33.97 -71.97 32.48 -71.37 30.6 -71.37 C 29.28 -71.37 28.23 -71.72 27.45 -72.42 C 26.67 -73.12 26.28 -73.96 26.28 -74.94 C 26.28 -76.26 26.815 -77.52 27.885 -78.72 C 28.955 -79.92 30.37 -80.75 32.13 -81.21 C 32.63 -80.93 33.16 -80.79 33.72 -80.79 C 34.56 -80.79 34.98 -81.07 34.98 -81.63 C 34.98 -82.19 34.23 -82.5 32.73 -82.56 C 32.67 -82.68 32.63 -82.8 32.61 -82.92 C 35.33 -83.12 37.665 -83.785 39.615 -84.915 C 41.565 -86.045 42.54 -87.23 42.54 -88.47 C 42.54 -89.93 41.54 -90.66 39.54 -90.66 C 38.28 -90.66 36.985 -90.385 35.655 -89.835 C 34.325 -89.285 33.16 -88.48 32.16 -87.42 C 31.16 -86.36 30.6 -85.18 30.48 -83.88 C 28.86 -83.88 27.5 -84.185 26.4 -84.795 C 25.3 -85.405 24.75 -86.24 24.75 -87.3 C 24.75 -88.28 25.19 -89.08 26.07 -89.7 C 26.95 -90.32 28.11 -90.63 29.55 -90.63 C 30.87 -90.63 31.97 -90.46 32.85 -90.12 Z M 41.31 -88.56 C 41.31 -87.56 40.45 -86.555 38.73 -85.545 C 37.01 -84.535 34.97 -83.96 32.61 -83.82 C 32.81 -85.16 33.69 -86.45 35.25 -87.69 C 36.81 -88.93 38.31 -89.55 39.75 -89.55 C 40.19 -89.55 40.56 -89.46 40.86 -89.28 C 41.16 -89.1 41.31 -88.86 41.31 -88.56 Z " fill="black" /></g></g></g><g><g><g><path d="M 59.895 -173.34 L 61.695 -179.19 L 60.735 -179.19 C 60.275 -178.33 59.865 -177.6 59.505 -177 C 59.145 -176.4 58.75 -175.91 58.32 -175.53 C 57.89 -175.15 57.375 -174.88 56.775 -174.72 C 56.175 -174.56 55.395 -174.48 54.435 -174.48 L 53.025 -174.48 C 52.145 -174.48 51.565 -174.585 51.285 -174.795 C 51.005 -175.005 50.935 -175.44 51.075 -176.1 L 53.805 -189.54 C 53.925 -190.08 54.075 -190.52 54.255 -190.86 C 54.435 -191.2 54.665 -191.465 54.945 -191.655 C 55.225 -191.845 55.565 -191.975 55.965 -192.045 C 56.365 -192.115 56.835 -192.15 57.375 -192.15 L 57.525 -193.05 L 49.005 -193.05 L 48.825 -192.15 C 49.465 -192.15 49.965 -192.11 50.325 -192.03 C 50.685 -191.95 50.945 -191.81 51.105 -191.61 C 51.265 -191.41 51.335 -191.145 51.315 -190.815 C 51.295 -190.485 51.235 -190.07 51.135 -189.57 L 48.555 -177.06 C 48.435 -176.46 48.3 -175.975 48.15 -175.605 C 48 -175.235 47.81 -174.95 47.58 -174.75 C 47.35 -174.55 47.05 -174.415 46.68 -174.345 C 46.31 -174.275 45.835 -174.24 45.255 -174.24 L 45.075 -173.34 Z " fill="black" /></g></g></g><circle cx="108.00000000000004" cy="-0.0" r="2.6999999999999997" style="stroke:black;fill:black;stroke-width:2;stroke-dasharray:-;" /><g><g><g><path d="M 138.24 -88.515 C 138.24 -89.975 137.66 -91.03 136.5 -91.68 C 135.34 -92.33 133.7 -92.655 131.58 -92.655 L 124.53 -92.655 L 124.35 -91.755 C 124.95 -91.755 125.42 -91.715 125.76 -91.635 C 126.1 -91.555 126.345 -91.43 126.495 -91.26 C 126.645 -91.09 126.72 -90.865 126.72 -90.585 C 126.72 -90.305 126.68 -89.955 126.6 -89.535 L 123.96 -76.665 C 123.84 -76.045 123.71 -75.545 123.57 -75.165 C 123.43 -74.785 123.245 -74.5 123.015 -74.31 C 122.785 -74.12 122.495 -73.995 122.145 -73.935 C 121.795 -73.875 121.34 -73.845 120.78 -73.845 L 120.6 -72.945 L 128.88 -72.945 L 129.03 -73.845 C 128.39 -73.845 127.88 -73.875 127.5 -73.935 C 127.12 -73.995 126.845 -74.125 126.675 -74.325 C 126.505 -74.525 126.425 -74.81 126.435 -75.18 C 126.445 -75.55 126.51 -76.045 126.63 -76.665 L 127.74 -82.005 L 128.37 -82.005 C 128.91 -82.005 129.31 -81.94 129.57 -81.81 C 129.83 -81.68 130.07 -81.405 130.29 -80.985 C 130.53 -80.525 130.755 -80.08 130.965 -79.65 C 131.175 -79.22 131.42 -78.715 131.7 -78.135 C 131.98 -77.555 132.31 -76.855 132.69 -76.035 C 133.07 -75.215 133.54 -74.185 134.1 -72.945 L 138.66 -72.945 L 138.84 -73.845 C 138.14 -73.845 137.59 -73.95 137.19 -74.16 C 136.79 -74.37 136.42 -74.775 136.08 -75.375 C 135.46 -76.535 134.95 -77.515 134.55 -78.315 C 134.15 -79.115 133.8 -79.78 133.5 -80.31 C 133.2 -80.84 132.935 -81.26 132.705 -81.57 C 132.475 -81.88 132.22 -82.125 131.94 -82.305 L 131.94 -82.455 C 132.6 -82.575 133.295 -82.76 134.025 -83.01 C 134.755 -83.26 135.435 -83.615 136.065 -84.075 C 136.695 -84.535 137.215 -85.125 137.625 -85.845 C 138.035 -86.565 138.24 -87.455 138.24 -88.515 Z M 127.95 -83.115 L 129.63 -91.395 C 129.97 -91.435 130.25 -91.46 130.47 -91.47 C 130.69 -91.48 131 -91.485 131.4 -91.485 C 132.14 -91.485 132.76 -91.4 133.26 -91.23 C 133.76 -91.06 134.16 -90.835 134.46 -90.555 C 134.76 -90.275 134.97 -89.945 135.09 -89.565 C 135.21 -89.185 135.27 -88.795 135.27 -88.395 C 135.27 -87.435 135.105 -86.625 134.775 -85.965 C 134.445 -85.305 133.995 -84.765 133.425 -84.345 C 132.855 -83.925 132.18 -83.62 131.4 -83.43 C 130.62 -83.24 129.78 -83.125 128.88 -83.085 Z " fill="black" /><path d="M 142.173 -66.645 L 149.292 -66.645 L 149.292 -67.401 C 148.326 -67.401 147.665 -67.502 147.308 -67.706 C 146.951 -67.909 146.772 -68.276 146.772 -68.808 L 146.772 -80.652 L 145.869 -80.652 L 141.984 -79.581 L 141.984 -78.741 C 142.264 -78.811 142.597 -78.877 142.982 -78.941 C 143.366 -79.004 143.671 -79.035 143.895 -79.035 C 144.189 -79.035 144.392 -78.951 144.504 -78.783 C 144.616 -78.615 144.672 -78.342 144.672 -77.964 L 144.672 -68.808 C 144.672 -68.542 144.637 -68.318 144.567 -68.136 C 144.497 -67.954 144.368 -67.81 144.179 -67.706 C 143.99 -67.6 143.734 -67.523 143.412 -67.474 C 143.09 -67.426 142.677 -67.401 142.173 -67.401 Z " fill="black" /></g></g></g><circle cx="148.32000000000005" cy="-162.0" r="4.32" style="stroke:black;fill:white;stroke-width:2;stroke-dasharray:-;" /><circle cx="175.68000000000004" cy="-162.0" r="4.32" style="stroke:black;fill:white;stroke-width:2;stroke-dasharray:-;" /><g><g><g><path d="M 201.78 -168.449 L 201.78 -169.349 C 201.22 -169.349 200.77 -169.369 200.43 -169.409 C 200.09 -169.449 199.805 -169.529 199.575 -169.649 C 199.345 -169.769 199.145 -169.934 198.975 -170.144 C 198.805 -170.354 198.61 -170.639 198.39 -170.999 C 197.73 -172.099 197.16 -173.059 196.68 -173.879 C 196.2 -174.699 195.775 -175.409 195.405 -176.009 C 195.035 -176.609 194.695 -177.114 194.385 -177.524 C 194.075 -177.934 193.75 -178.279 193.41 -178.559 L 193.41 -178.709 C 193.77 -179.009 194.065 -179.324 194.295 -179.654 C 194.525 -179.984 194.725 -180.329 194.895 -180.689 C 195.065 -181.049 195.205 -181.434 195.315 -181.844 C 195.425 -182.254 195.54 -182.689 195.66 -183.149 C 195.94 -184.229 196.235 -184.959 196.545 -185.339 C 196.855 -185.719 197.19 -185.909 197.55 -185.909 C 197.75 -185.909 197.925 -185.869 198.075 -185.789 C 198.225 -185.709 198.375 -185.614 198.525 -185.504 C 198.675 -185.394 198.835 -185.299 199.005 -185.219 C 199.175 -185.139 199.38 -185.099 199.62 -185.099 C 200.12 -185.099 200.49 -185.254 200.73 -185.564 C 200.97 -185.874 201.09 -186.229 201.09 -186.629 C 201.09 -187.269 200.865 -187.734 200.415 -188.024 C 199.965 -188.314 199.43 -188.459 198.81 -188.459 C 198.07 -188.459 197.45 -188.294 196.95 -187.964 C 196.45 -187.634 196.03 -187.209 195.69 -186.689 C 195.35 -186.169 195.075 -185.594 194.865 -184.964 C 194.655 -184.334 194.47 -183.729 194.31 -183.149 C 193.95 -181.749 193.55 -180.704 193.11 -180.014 C 192.67 -179.324 192 -178.979 191.1 -178.979 L 188.37 -178.979 L 188.37 -184.199 C 188.37 -184.779 188.39 -185.264 188.43 -185.654 C 188.47 -186.044 188.58 -186.359 188.76 -186.599 C 188.94 -186.839 189.215 -187.009 189.585 -187.109 C 189.955 -187.209 190.47 -187.259 191.13 -187.259 L 191.13 -188.159 L 182.91 -188.159 L 182.91 -187.259 C 183.57 -187.259 184.08 -187.214 184.44 -187.124 C 184.8 -187.034 185.065 -186.874 185.235 -186.644 C 185.405 -186.414 185.505 -186.104 185.535 -185.714 C 185.565 -185.324 185.58 -184.819 185.58 -184.199 L 185.58 -172.379 C 185.58 -171.759 185.56 -171.254 185.52 -170.864 C 185.48 -170.474 185.375 -170.169 185.205 -169.949 C 185.035 -169.729 184.77 -169.574 184.41 -169.484 C 184.05 -169.394 183.55 -169.349 182.91 -169.349 L 182.91 -168.449 L 191.22 -168.449 L 191.22 -169.349 C 190.56 -169.349 190.045 -169.384 189.675 -169.454 C 189.305 -169.524 189.02 -169.664 188.82 -169.874 C 188.62 -170.084 188.495 -170.389 188.445 -170.789 C 188.395 -171.189 188.37 -171.719 188.37 -172.379 L 188.37 -177.869 L 189.81 -177.869 C 190.13 -177.869 190.395 -177.854 190.605 -177.824 C 190.815 -177.794 190.995 -177.734 191.145 -177.644 C 191.295 -177.554 191.435 -177.439 191.565 -177.299 C 191.695 -177.159 191.83 -176.969 191.97 -176.729 C 192.33 -176.129 192.675 -175.544 193.005 -174.974 C 193.335 -174.404 193.675 -173.804 194.025 -173.174 C 194.375 -172.544 194.755 -171.849 195.165 -171.089 C 195.575 -170.329 196.05 -169.449 196.59 -168.449 Z " fill="black" /></g></g></g><g><g><g><path d="M 246.24 -89.865 C 246.24 -91.325 245.66 -92.38 244.5 -93.03 C 243.34 -93.68 241.7 -94.005 239.58 -94.005 L 232.53 -94.005 L 232.35 -93.105 C 232.95 -93.105 233.42 -93.065 233.76 -92.985 C 234.1 -92.905 234.345 -92.78 234.495 -92.61 C 234.645 -92.44 234.72 -92.215 234.72 -91.935 C 234.72 -91.655 234.68 -91.305 234.6 -90.885 L 231.96 -78.015 C 231.84 -77.395 231.71 -76.895 231.57 -76.515 C 231.43 -76.135 231.245 -75.85 231.015 -75.66 C 230.785 -75.47 230.495 -75.345 230.145 -75.285 C 229.795 -75.225 229.34 -75.195 228.78 -75.195 L 228.6 -74.295 L 236.88 -74.295 L 237.03 -75.195 C 236.39 -75.195 235.88 -75.225 235.5 -75.285 C 235.12 -75.345 234.845 -75.475 234.675 -75.675 C 234.505 -75.875 234.425 -76.16 234.435 -76.53 C 234.445 -76.9 234.51 -77.395 234.63 -78.015 L 235.74 -83.355 L 236.37 -83.355 C 236.91 -83.355 237.31 -83.29 237.57 -83.16 C 237.83 -83.03 238.07 -82.755 238.29 -82.335 C 238.53 -81.875 238.755 -81.43 238.965 -81 C 239.175 -80.57 239.42 -80.065 239.7 -79.485 C 239.98 -78.905 240.31 -78.205 240.69 -77.385 C 241.07 -76.565 241.54 -75.535 242.1 -74.295 L 246.66 -74.295 L 246.84 -75.195 C 246.14 -75.195 245.59 -75.3 245.19 -75.51 C 244.79 -75.72 244.42 -76.125 244.08 -76.725 C 243.46 -77.885 242.95 -78.865 242.55 -79.665 C 242.15 -80.465 241.8 -81.13 241.5 -81.66 C 241.2 -82.19 240.935 -82.61 240.705 -82.92 C 240.475 -83.23 240.22 -83.475 239.94 -83.655 L 239.94 -83.805 C 240.6 -83.925 241.295 -84.11 242.025 -84.36 C 242.755 -84.61 243.435 -84.965 244.065 -85.425 C 244.695 -85.885 245.215 -86.475 245.625 -87.195 C 246.035 -87.915 246.24 -88.805 246.24 -89.865 Z M 235.95 -84.465 L 237.63 -92.745 C 237.97 -92.785 238.25 -92.81 238.47 -92.82 C 238.69 -92.83 239 -92.835 239.4 -92.835 C 240.14 -92.835 240.76 -92.75 241.26 -92.58 C 241.76 -92.41 242.16 -92.185 242.46 -91.905 C 242.76 -91.625 242.97 -91.295 243.09 -90.915 C 243.21 -90.535 243.27 -90.145 243.27 -89.745 C 243.27 -88.785 243.105 -87.975 242.775 -87.315 C 242.445 -86.655 241.995 -86.115 241.425 -85.695 C 240.855 -85.275 240.18 -84.97 239.4 -84.78 C 238.62 -84.59 237.78 -84.475 236.88 -84.435 Z " fill="black" /><path d="M 257.775 -67.995 L 258.489 -71.649 L 257.754 -71.649 C 257.614 -71.313 257.488 -71.026 257.376 -70.788 C 257.264 -70.55 257.138 -70.361 256.998 -70.221 C 256.858 -70.081 256.69 -69.98 256.494 -69.916 C 256.298 -69.854 256.053 -69.822 255.759 -69.822 L 253.029 -69.822 L 251.391 -69.738 L 251.391 -69.885 L 254.016 -72.426 C 254.604 -73 255.133 -73.532 255.602 -74.022 C 256.07 -74.512 256.469 -74.988 256.799 -75.45 C 257.128 -75.912 257.38 -76.374 257.555 -76.836 C 257.729 -77.298 257.817 -77.788 257.817 -78.306 C 257.817 -78.894 257.712 -79.423 257.502 -79.892 C 257.292 -80.36 256.998 -80.759 256.62 -81.089 C 256.242 -81.418 255.791 -81.666 255.266 -81.834 C 254.741 -82.002 254.163 -82.086 253.533 -82.086 C 252.441 -82.086 251.531 -81.806 250.803 -81.246 C 250.075 -80.686 249.536 -79.916 249.186 -78.936 L 249.753 -78.663 C 250.145 -79.349 250.597 -79.843 251.108 -80.144 C 251.618 -80.444 252.252 -80.595 253.008 -80.595 C 253.834 -80.595 254.474 -80.357 254.93 -79.881 C 255.385 -79.405 255.612 -78.789 255.612 -78.033 C 255.612 -77.445 255.542 -76.91 255.402 -76.427 C 255.262 -75.944 255.049 -75.478 254.762 -75.03 C 254.474 -74.582 254.114 -74.12 253.68 -73.644 C 253.246 -73.168 252.735 -72.636 252.147 -72.048 L 249.165 -69.024 L 249.165 -67.995 Z " fill="black" /></g></g></g><circle cx="108.00000000000003" cy="-162.0" r="2.6999999999999997" style="stroke:black;fill:black;stroke-width:2;stroke-dasharray:-;" /></svg>