<?xml version="1.0" standalone="no"?>
<!DOCTYPE svg PUBLIC "-//W3C//DTD SVG 20010904//EN"
 "http://www.w3.org/TR/2001/REC-SVG-20010904/DTD/svg10.dtd">
<svg version="1.0" xmlns="http://www.w3.org/2000/svg"
 width="785.782252pt" height="271.854604pt" viewBox="0 0 785.782252 271.854604"
 preserveAspectRatio="xMidYMid meet">
<metadata>
Created by potrace 1.16, written by Peter Selinger 2001-2019
</metadata>
<g transform="translate(-6.736096,280.854604) scale(0.100000,-0.100000)"
fill="#000000" stroke="none">
<path d="M477 2804 c-14 -14 -7 -25 13 -19 11 4 20 2 20 -4 0 -6 -4 -11 -10
-11 -5 0 -10 -7 -10 -15 0 -8 8 -15 19 -15 24 0 45 -25 37 -46 -4 -12 -15 -15
-36 -12 -19 3 -29 1 -27 -6 5 -16 56 -20 73 -5 20 16 18 55 -5 71 -10 7 -18
24 -17 38 1 20 -4 26 -24 28 -14 2 -29 0 -33 -4z"/>
<path d="M667 2772 c-35 -36 -47 -62 -28 -62 5 0 14 7 21 15 22 27 32 17 25
-26 -6 -33 -4 -40 6 -37 17 6 36 125 22 139 -5 5 -23 -5 -46 -29z"/>
<path d="M328 2758 l-38 -41 0 36 c0 21 -3 37 -7 37 -15 -1 -145 -129 -142
-139 2 -6 29 12 59 39 62 56 73 60 64 26 -11 -46 17 -38 75 23 35 36 53 61 43
61 -8 0 -32 -19 -54 -42z"/>
<path d="M2390 2765 c0 -8 6 -15 14 -15 26 0 26 -17 0 -56 -25 -36 -25 -39 -8
-51 21 -15 114 -18 114 -3 0 6 -19 10 -43 10 -24 0 -46 3 -50 6 -3 3 3 20 14
37 23 39 24 51 3 71 -20 20 -44 21 -44 1z"/>
<path d="M2281 2652 c-17 -34 -36 -60 -41 -57 -5 3 -14 21 -20 40 -11 34 -31
48 -29 23 1 -22 43 -101 54 -101 13 -1 78 130 72 146 -2 7 -18 -16 -36 -51z"/>
<path d="M760 2630 c-47 -4 -215 -9 -375 -9 -249 -1 -335 -8 -315 -24 7 -5
740 10 830 17 112 9 501 -14 507 -30 8 -21 -37 -326 -53 -356 -8 -15 -24 -30
-37 -32 -81 -18 -418 -28 -587 -18 -230 14 -593 4 -612 -17 -11 -11 6 -12 107
-5 66 5 210 7 320 5 343 -7 495 -6 638 3 95 6 137 5 137 -2 0 -6 -25 -39 -55
-75 -57 -67 -134 -122 -245 -177 -64 -31 -69 -32 -260 -41 -107 -5 -284 -9
-393 -10 -120 -1 -200 -6 -204 -12 -4 -7 93 -7 293 -1 164 5 339 8 388 6 87
-3 90 -2 182 42 131 63 204 115 264 189 66 80 98 157 116 282 24 168 28 223
15 239 -7 9 -41 16 -89 20 -140 10 -485 14 -572 6z"/>
<path d="M1620 2611 c-9 -22 -9 -47 0 -104 21 -141 10 -278 -26 -308 -20 -17
-17 -39 6 -39 32 0 43 -37 50 -185 5 -93 13 -153 24 -179 18 -44 33 -44 15 0
-6 16 -13 88 -16 159 -5 134 -15 188 -40 217 -11 13 -12 24 -4 56 29 106 31
136 14 249 -14 95 -14 115 -3 128 13 16 15 15 27 -1 17 -23 28 -11 13 15 -16
30 -45 26 -60 -8z"/>
<path d="M7320 2619 c-151 -4 -385 -12 -520 -17 -154 -6 -289 -6 -365 0 -167
14 -626 -5 -606 -25 6 -6 92 -4 238 4 154 8 255 9 308 3 l80 -9 5 -39 c3 -22
10 -41 16 -43 7 -2 10 6 6 24 l-5 28 35 -30 c19 -17 49 -48 66 -70 17 -22 51
-61 74 -86 61 -66 126 -149 200 -259 36 -52 104 -152 151 -223 80 -117 87
-131 87 -176 0 -55 7 -81 22 -81 6 0 8 18 6 40 -2 22 -1 40 2 40 4 0 17 -19
30 -42 13 -23 29 -49 36 -57 7 -9 32 -45 56 -81 53 -78 171 -250 210 -304 15
-21 28 -45 28 -51 0 -24 -57 -34 -240 -40 -161 -5 -183 -4 -167 9 24 19 6 29
-30 15 -37 -14 -73 -48 -73 -70 0 -20 20 -29 58 -28 l27 1 -27 11 c-16 6 -28
14 -28 17 0 11 123 20 273 20 l137 0 0 -24 c0 -27 51 -76 80 -76 16 0 19 -12
25 -84 7 -83 1 -343 -11 -444 -5 -44 -8 -51 -20 -41 -23 19 -27 3 -8 -30 24
-40 47 -39 80 4 29 39 26 59 -5 31 -18 -17 -19 -17 -23 1 -2 10 0 41 4 68 3
28 7 150 7 272 l1 221 38 19 c95 50 69 152 -40 153 -28 1 -37 7 -59 43 -15 23
-42 65 -62 92 -132 190 -257 374 -257 380 0 4 7 2 15 -5 8 -6 19 -10 26 -8 6
2 -18 31 -54 65 -36 33 -87 94 -114 134 -181 273 -292 426 -382 524 -25 28
-70 77 -100 110 l-53 60 108 6 c60 4 255 10 434 13 179 4 386 11 460 17 74 5
176 10 227 11 51 0 90 5 87 9 -6 10 -86 9 -494 -2z m280 -1487 c30 -24 21 -61
-20 -85 -33 -20 -50 -16 -50 14 0 10 -4 19 -10 19 -5 0 -10 -10 -10 -23 0 -34
-9 -38 -40 -22 -49 25 -50 65 -2 65 32 0 46 9 55 33 8 22 49 22 77 -1z"/>
<path d="M829 2569 c-11 -11 -28 -37 -36 -57 -8 -21 -20 -40 -26 -44 -19 -11
23 -48 55 -48 15 0 28 5 28 10 0 6 -11 10 -25 10 -33 0 -32 13 10 67 19 25 35
52 35 59 0 23 -19 25 -41 3z"/>
<path d="M3458 2515 c-18 -36 -36 -65 -40 -65 -5 0 -8 25 -8 55 0 41 -4 55
-14 55 -11 0 -14 -15 -15 -57 0 -76 15 -116 39 -103 15 8 49 79 54 115 1 8 10
22 19 33 19 21 22 32 8 32 -5 0 -24 -29 -43 -65z"/>
<path d="M4045 2570 c-9 -15 21 -23 60 -17 40 7 41 6 20 -78 -17 -72 -19 -93
-5 -79 5 5 17 38 26 74 9 36 21 71 26 78 6 6 29 12 52 12 22 0 48 5 56 10 10
7 -25 10 -107 10 -71 0 -124 -4 -128 -10z"/>
<path d="M1290 2524 c-11 -26 -20 -51 -20 -56 0 -5 -4 -6 -10 -3 -5 3 -10 17
-10 31 0 13 -4 24 -10 24 -15 0 -12 -74 4 -96 18 -24 25 -17 52 54 12 31 25
65 29 75 4 10 3 17 -3 17 -6 0 -20 -21 -32 -46z"/>
<path d="M3571 2552 c-16 -30 -41 -105 -41 -124 0 -10 5 -18 10 -18 6 0 10 11
10 25 0 30 36 105 50 105 16 0 12 -27 -5 -34 -18 -7 -20 -36 -2 -36 6 -1 23
-10 36 -21 21 -17 22 -22 10 -30 -7 -5 -23 -7 -33 -5 -18 5 -18 4 -3 -11 21
-21 67 -10 67 17 0 10 -12 30 -26 44 -24 21 -25 27 -16 54 7 21 7 33 -1 41
-17 17 -45 13 -56 -7z"/>
<path d="M4786 2537 c-9 -48 -33 -77 -64 -77 -36 0 -56 -14 -49 -34 7 -19 30
-21 59 -5 16 8 29 7 58 -6 21 -9 46 -15 56 -13 14 3 6 10 -29 26 l-47 21 20
33 c20 34 27 88 11 88 -5 0 -12 -15 -15 -33z"/>
<path d="M1055 2508 c-13 -28 -26 -42 -36 -40 -20 3 -43 -23 -34 -39 4 -6 19
-9 36 -5 15 3 31 1 34 -4 3 -6 13 -10 22 -10 14 0 14 3 -2 20 -18 19 -18 22
-2 56 9 19 17 41 17 49 0 27 -15 15 -35 -27z"/>
<path d="M1734 2519 c3 -17 6 -40 6 -50 0 -29 14 -23 27 12 13 34 36 35 41 1
5 -32 24 -27 50 13 31 48 58 47 72 -5 14 -53 33 -64 24 -13 -4 21 -11 46 -16
56 -12 23 -47 21 -75 -5 -22 -21 -23 -21 -43 -3 -18 16 -24 17 -41 7 -16 -10
-20 -10 -25 3 -11 28 -27 16 -20 -16z"/>
<path d="M3007 2521 c-56 -9 -41 -27 19 -23 29 2 62 -1 73 -7 17 -10 21 -9 21
3 0 8 -3 17 -7 19 -17 10 -70 14 -106 8z"/>
<path d="M3889 2523 c-1 -5 -2 -17 -3 -28 -1 -15 -9 -21 -33 -23 -42 -4 -43
-22 -2 -22 22 0 32 -5 36 -20 7 -27 23 -25 23 3 0 19 8 26 38 34 l37 10 -37 2
c-33 1 -38 4 -38 26 0 22 -18 37 -21 18z"/>
<path d="M4390 2526 c0 -2 7 -9 15 -16 12 -10 15 -10 15 4 0 9 -7 16 -15 16
-8 0 -15 -2 -15 -4z"/>
<path d="M3263 2502 c-29 -26 -53 -64 -53 -85 0 -25 27 -33 49 -13 20 18 31
12 31 -16 0 -33 17 -10 24 32 12 75 -13 116 -51 82z m34 -28 c5 -15 -35 -64
-53 -64 -11 0 -13 7 -8 28 4 15 11 33 17 40 12 15 39 12 44 -4z"/>
<path d="M4286 2499 c-21 -17 -24 -24 -15 -35 6 -8 20 -14 30 -14 29 0 32 -19
5 -30 -14 -5 -26 -14 -26 -20 0 -13 4 -13 46 5 45 18 42 44 -5 60 -39 13 -26
31 15 21 28 -7 30 -3 8 18 -20 21 -26 20 -58 -5z"/>
<path d="M226 2491 c-25 -27 -18 -67 12 -64 27 3 27 -3 3 -67 -29 -76 -8 -69
23 8 32 80 33 135 0 140 -11 2 -28 -6 -38 -17z m30 -29 c-8 -9 -19 -13 -22 -9
-10 9 16 38 28 31 6 -4 4 -13 -6 -22z"/>
<path d="M2806 2503 c-4 -4 -167 -8 -363 -9 -317 -2 -400 -8 -366 -26 4 -3 69
-1 143 2 74 4 249 6 388 4 138 -2 252 0 252 4 0 23 -39 40 -54 25z"/>
<path d="M5987 2373 c-4 -75 -7 -169 -7 -210 0 -40 -3 -73 -8 -73 -4 0 -20 21
-35 46 -41 69 -44 46 -3 -34 l35 -70 -6 -156 c-4 -115 -3 -156 5 -156 7 0 12
17 12 43 0 23 3 87 6 142 6 106 14 126 94 253 18 29 31 55 27 58 -3 3 -13 -7
-23 -23 -10 -15 -34 -48 -52 -73 l-35 -45 7 218 c4 126 3 217 -2 217 -5 0 -12
-61 -15 -137z"/>
<path d="M537 2494 c-3 -4 -27 -8 -53 -10 -25 -1 -47 -4 -49 -6 -1 -2 -6 -18
-10 -35 -7 -35 4 -43 25 -18 10 12 16 13 27 3 13 -10 19 -7 39 15 29 34 34 34
34 -4 0 -17 4 -28 10 -24 16 10 13 85 -3 85 -8 0 -16 -3 -20 -6z"/>
<path d="M4516 2484 c-9 -24 -7 -62 4 -69 5 -3 15 3 22 15 16 26 28 26 28 0 0
-11 5 -20 10 -20 11 0 14 63 3 73 -3 4 -15 0 -25 -10 -17 -15 -18 -15 -18 5 0
26 -15 29 -24 6z"/>
<path d="M5753 2456 c6 -16 -13 -26 -49 -26 -13 0 -24 -5 -24 -11 0 -11 34 -9
103 7 21 5 27 3 27 -11 0 -21 24 -14 28 8 2 11 -9 21 -34 32 -45 19 -58 19
-51 1z"/>
<path d="M3000 2452 c0 -12 87 -28 97 -18 10 10 1 14 -49 21 -32 5 -48 4 -48
-3z"/>
<path d="M4402 2435 c-17 -36 4 -41 23 -5 13 24 13 30 2 30 -8 0 -19 -11 -25
-25z"/>
<path d="M905 2420 c-13 -21 -23 -70 -16 -75 9 -5 37 72 29 81 -3 3 -9 0 -13
-6z"/>
<path d="M600 2379 c-15 -53 -8 -86 9 -44 19 47 25 85 13 85 -6 0 -16 -18 -22
-41z"/>
<path d="M1142 2392 c-7 -13 -12 -35 -10 -50 l4 -27 13 29 c6 16 10 39 9 50
-3 20 -4 20 -16 -2z"/>
<path d="M7039 2388 c-6 -12 -14 -51 -17 -87 -2 -36 -8 -71 -13 -77 -5 -6 -1
-26 10 -48 38 -73 53 -80 110 -45 43 26 34 35 -14 12 -37 -18 -37 -17 -56 6
-25 31 -24 58 6 123 27 57 32 107 13 126 -17 17 -26 15 -39 -10z m31 -40 c-1
-18 -7 -46 -15 -63 l-13 -30 -1 40 c-1 48 8 85 20 85 5 0 9 -15 9 -32z"/>
<path d="M6488 2394 c-5 -4 -8 -27 -8 -50 0 -41 2 -43 34 -49 50 -10 126 19
126 47 0 6 -8 3 -19 -6 -12 -11 -38 -18 -68 -19 l-48 -2 -5 43 c-3 24 -8 40
-12 36z"/>
<path d="M2116 2357 c-14 -14 -26 -33 -26 -42 0 -8 -12 -20 -26 -25 -14 -6
-23 -14 -19 -20 3 -5 12 -7 19 -4 8 3 17 -3 20 -14 4 -11 13 -26 21 -32 17
-14 65 -5 65 11 0 6 -9 8 -20 4 -47 -15 -67 41 -26 69 28 18 43 53 28 68 -7 7
-19 2 -36 -15z"/>
<path d="M2457 2373 c-7 -11 10 -40 18 -31 4 4 3 14 -3 24 -5 9 -12 12 -15 7z"/>
<path d="M2750 2343 c0 -47 -8 -60 -40 -64 -17 -3 -26 -11 -28 -27 -4 -27 23
-40 49 -23 12 7 35 9 59 5 49 -8 52 1 6 20 l-35 14 6 56 c4 39 2 56 -6 56 -6
0 -11 -16 -11 -37z m-30 -93 c0 -5 -5 -10 -11 -10 -5 0 -7 5 -4 10 3 6 8 10
11 10 2 0 4 -4 4 -10z"/>
<path d="M5752 2367 c-6 -7 -14 -42 -18 -79 -6 -64 -6 -65 19 -70 14 -3 39 1
56 8 37 16 42 55 11 77 -16 11 -19 21 -14 45 6 29 4 32 -19 32 -13 0 -29 -6
-35 -13z m38 -11 c0 -3 -4 -8 -10 -11 -5 -3 -10 -1 -10 4 0 6 5 11 10 11 6 0
10 -2 10 -4z m25 -80 c8 -13 6 -20 -10 -32 -28 -21 -40 -13 -43 29 -3 34 -2
36 19 28 13 -4 28 -16 34 -25z"/>
<path d="M319 2343 c-16 -44 -22 -83 -12 -83 5 0 14 19 21 43 7 23 15 48 18
55 3 6 1 12 -5 12 -7 0 -16 -12 -22 -27z"/>
<path d="M2352 2344 c-31 -22 -29 -52 6 -60 47 -10 52 -13 52 -29 0 -8 -11
-20 -25 -25 -34 -13 -32 -32 3 -24 40 10 42 12 42 45 0 24 -7 32 -35 46 -39
19 -45 33 -14 33 11 0 19 5 17 12 -7 19 -22 19 -46 2z"/>
<path d="M3278 2320 c-12 -39 -10 -76 3 -63 6 6 9 28 7 49 -3 35 -4 36 -10 14z"/>
<path d="M2558 2318 c-2 -6 -2 -24 0 -40 4 -27 5 -28 23 -12 17 16 19 15 28
-10 14 -36 19 -33 15 10 -3 44 -9 51 -29 34 -12 -10 -15 -10 -15 3 0 20 -17
31 -22 15z"/>
<path d="M2477 2290 c-13 -37 -16 -69 -8 -75 11 -6 26 57 18 77 -4 10 -6 9
-10 -2z"/>
<path d="M2255 2280 c3 -5 10 -10 16 -10 5 0 9 5 9 10 0 6 -7 10 -16 10 -8 0
-12 -4 -9 -10z"/>
<path d="M6609 2243 c-15 -48 -27 -63 -49 -63 -20 0 -35 -15 -44 -47 -9 -28
18 -32 46 -6 15 13 23 14 43 5 28 -13 32 -6 10 18 -13 15 -13 21 -1 51 23 57
28 79 17 79 -5 0 -15 -17 -22 -37z m-49 -87 c0 -3 -4 -8 -10 -11 -5 -3 -10 -1
-10 4 0 6 5 11 10 11 6 0 10 -2 10 -4z"/>
<path d="M6478 2214 c-5 -4 -8 -25 -8 -48 0 -28 3 -37 11 -29 6 6 9 27 7 48
-2 20 -6 33 -10 29z"/>
<path d="M737 2093 c-15 -15 -5 -22 23 -16 29 5 42 -8 20 -22 -5 -3 -10 -19
-10 -35 0 -16 5 -32 10 -35 6 -4 10 7 10 24 0 20 7 35 20 43 38 24 19 48 -39
48 -15 0 -31 -3 -34 -7z"/>
<path d="M6470 2044 c0 -21 4 -33 10 -29 6 3 10 19 10 36 0 16 -4 29 -10 29
-5 0 -10 -16 -10 -36z"/>
<path d="M397 2059 c-20 -12 -42 -52 -52 -96 -5 -26 -3 -33 9 -33 10 0 20 16
27 46 7 25 15 41 18 36 3 -5 23 -17 44 -26 50 -20 44 -41 -12 -40 -49 1 -52
-19 -3 -24 69 -7 97 43 42 76 -22 14 -27 21 -18 30 28 28 -16 54 -55 31z m33
-18 c0 -12 -20 -25 -27 -18 -7 7 6 27 18 27 5 0 9 -4 9 -9z"/>
<path d="M591 1999 c-36 -14 -21 -19 38 -12 34 4 48 9 39 14 -17 11 -47 10
-77 -2z"/>
<path d="M2807 1970 c-56 -7 -88 -23 -74 -36 3 -4 20 -1 36 6 20 8 69 11 145
9 63 -2 117 -1 121 2 9 10 -79 29 -127 28 -24 -1 -69 -5 -101 -9z"/>
<path d="M5430 1950 c0 -10 8 -24 18 -29 14 -9 15 -12 3 -20 -19 -12 -42 -4
-68 27 -22 26 -22 26 -43 7 -19 -18 -23 -18 -31 -4 -5 11 -17 15 -34 11 -21
-4 -25 -10 -25 -38 0 -36 10 -43 30 -20 6 8 17 13 24 10 7 -3 19 2 26 11 16
19 39 19 46 0 3 -8 14 -17 25 -20 11 -4 19 -16 19 -30 0 -27 -21 -35 -100 -35
-30 0 -62 -4 -70 -10 -9 -5 78 -9 230 -9 135 1 257 -2 273 -6 16 -4 27 -3 27
3 0 10 -37 16 -179 27 -41 3 -77 8 -79 10 -5 4 -7 21 -10 87 -1 18 -6 26 -15
22 -8 -3 -20 2 -27 11 -18 21 -40 19 -40 -5z m68 -102 c3 -14 -3 -18 -26 -18
-35 0 -45 9 -30 27 15 19 52 12 56 -9z"/>
<path d="M6460 1908 c0 -25 3 -29 10 -18 13 20 13 50 0 50 -5 0 -10 -15 -10
-32z"/>
<path d="M7345 1920 c-27 -10 -60 -19 -72 -19 -14 -1 -23 -7 -23 -16 0 -15 19
-14 67 0 14 4 30 -45 36 -110 2 -21 9 -41 16 -43 14 -5 14 6 -3 91 -12 65 -12
69 8 82 11 8 26 15 33 15 6 0 15 5 18 10 9 15 -24 11 -80 -10z"/>
<path d="M1828 1924 c-14 -21 -20 -91 -10 -98 6 -4 23 10 37 31 24 36 26 37
31 16 8 -28 16 -29 39 -3 25 28 30 26 48 -20 18 -47 50 -59 95 -36 41 21 42
21 42 -17 0 -26 -6 -36 -24 -45 -41 -19 -61 -57 -50 -100 11 -43 39 -53 73
-25 20 16 21 27 21 118 -1 55 -1 110 -1 122 0 12 -9 29 -21 37 -31 22 -52 3
-43 -41 5 -29 3 -33 -19 -39 -33 -8 -44 0 -63 47 -15 38 -44 52 -58 28 -5 -7
-14 -4 -27 8 -19 17 -20 17 -33 0 -16 -23 -23 -22 -27 6 -2 13 -6 17 -10 11z
m272 -48 c0 -3 -4 -8 -10 -11 -5 -3 -10 -1 -10 4 0 6 5 11 10 11 6 0 10 -2 10
-4z m8 -188 c-2 -44 -6 -53 -22 -53 -10 0 -25 9 -32 20 -12 18 -11 25 6 53 11
17 27 32 35 32 13 0 15 -10 13 -52z"/>
<path d="M4805 1920 c-3 -5 6 -15 21 -22 24 -11 26 -16 20 -55 -7 -51 9 -67
17 -17 7 43 23 64 48 64 11 0 19 5 19 10 0 6 -18 10 -41 10 -22 0 -49 5 -59
10 -13 7 -21 7 -25 0z"/>
<path d="M2861 1902 c-16 -29 -24 -92 -13 -92 12 0 17 15 28 73 7 40 1 48 -15
19z"/>
<path d="M3639 1873 c-14 -47 -15 -48 -50 -45 -45 4 -71 -20 -47 -45 13 -13
22 -13 51 -4 29 10 41 9 66 -3 44 -23 50 -19 14 9 -31 25 -32 26 -17 60 16 38
19 75 6 75 -5 0 -15 -21 -23 -47z"/>
<path d="M4560 1911 c0 -5 16 -23 35 -39 l36 -29 -26 -17 c-29 -19 -36 -42 -7
-27 9 5 26 16 37 25 20 14 19 16 -20 55 -39 41 -55 50 -55 32z"/>
<path d="M4397 1880 c-35 -28 -43 -57 -21 -81 9 -10 24 -19 32 -19 12 0 9 6
-8 25 -22 23 -23 27 -8 41 15 15 18 15 39 -5 23 -21 70 -27 117 -15 41 11 -6
33 -73 34 -46 0 -56 3 -42 11 9 6 15 14 12 20 -9 14 -20 11 -48 -11z"/>
<path d="M3117 1872 c-13 -15 -14 -22 -4 -42 10 -20 22 -26 62 -31 28 -3 57
-9 66 -13 9 -4 33 0 53 8 45 19 50 56 11 74 -39 18 -52 15 -87 -18 -17 -16
-39 -30 -49 -30 -28 0 -49 11 -49 26 0 17 27 19 32 2 2 -6 10 -8 16 -4 9 5 9
13 2 27 -13 24 -32 24 -53 1z m177 -8 c20 -8 21 -43 1 -51 -9 -3 -25 3 -36 13
-19 17 -19 19 -3 31 21 15 18 15 38 7z"/>
<path d="M3374 1876 c-9 -23 13 -44 57 -56 52 -14 49 -27 -7 -36 -28 -4 -42
-10 -36 -16 6 -6 30 -4 63 4 70 17 71 37 4 59 -49 17 -80 48 -36 36 14 -3 21
-1 18 6 -6 19 -56 21 -63 3z"/>
<path d="M2274 1859 c-6 -11 54 -21 97 -17 29 2 24 5 -29 14 -35 6 -65 7 -68
3z"/>
<path d="M4960 1840 c0 -5 5 -10 10 -10 6 0 10 -7 10 -15 0 -11 12 -15 51 -15
31 0 48 4 44 10 -3 6 -12 10 -20 10 -7 0 -15 4 -17 9 -5 13 -78 24 -78 11z"/>
<path d="M2310 1820 c0 -6 29 -10 66 -10 41 0 63 4 59 10 -3 6 -33 10 -66 10
-33 0 -59 -4 -59 -10z"/>
<path d="M6458 1808 c-3 -7 -1 -24 3 -38 6 -22 7 -20 8 13 1 38 -3 47 -11 25z"/>
<path d="M5238 1686 c-6 -14 -8 -31 -5 -39 9 -23 158 -39 165 -18 6 17 19 13
24 -7 4 -15 19 -20 67 -25 37 -4 70 -3 82 3 13 8 25 7 40 0 11 -6 25 -9 32 -7
7 2 -1 10 -16 18 -21 10 -27 18 -23 33 3 12 9 31 12 44 9 33 -12 27 -25 -8 -8
-24 -16 -30 -39 -30 -16 0 -35 -6 -41 -14 -16 -19 -83 0 -79 23 2 10 12 15 23
13 19 -3 19 -3 3 14 -16 16 -19 16 -35 2 -16 -14 -21 -15 -37 -3 -16 12 -23
12 -47 -2 -16 -10 -29 -21 -29 -25 0 -4 -14 -8 -31 -8 -20 0 -29 4 -26 13 2 6
11 11 21 9 10 -2 16 4 16 18 0 29 -38 26 -52 -4z m138 -44 c-17 -17 -46 -9
-46 12 0 10 6 13 15 10 8 -4 15 -1 15 6 0 10 4 10 16 0 13 -12 13 -15 0 -28z
m174 -22 c0 -5 -7 -10 -16 -10 -8 0 -12 5 -9 10 3 6 10 10 16 10 5 0 9 -4 9
-10z"/>
<path d="M6460 1655 c0 -14 2 -25 4 -25 2 0 6 11 8 25 3 14 1 25 -3 25 -5 0
-9 -11 -9 -25z"/>
<path d="M1677 1603 c-12 -12 -7 -23 10 -23 14 0 14 -2 -2 -20 -17 -18 -17
-22 -4 -36 9 -8 33 -17 55 -19 l39 -5 -38 17 c-36 17 -37 19 -21 35 17 16 17
18 -1 38 -19 21 -28 24 -38 13z"/>
<path d="M6460 1525 c0 -19 4 -35 9 -35 5 0 9 16 8 35 -1 19 -5 35 -9 35 -4 0
-8 -16 -8 -35z"/>
<path d="M1568 1490 c-23 -40 -38 -51 -38 -27 0 18 -27 54 -34 46 -10 -10 36
-109 50 -109 8 0 14 8 14 18 0 9 11 37 25 61 28 48 29 51 15 51 -5 0 -20 -18
-32 -40z"/>
<path d="M416 1455 c-10 -22 -26 -62 -37 -90 -38 -99 -45 -96 -55 23 -4 45
-11 82 -15 82 -20 0 0 -183 21 -204 15 -15 44 21 65 82 9 26 24 63 32 84 8 20
13 42 11 50 -3 7 -13 -5 -22 -27z"/>
<path d="M506 1443 c-19 -38 -31 -133 -17 -133 11 0 15 13 26 81 8 55 45 77
45 27 0 -10 -9 -23 -20 -30 -29 -18 -25 -24 25 -44 25 -9 45 -20 45 -25 0 -4
-16 -11 -35 -15 -51 -9 -44 -27 8 -19 46 8 70 22 61 36 -3 5 -24 19 -46 30
-30 15 -37 24 -29 32 6 6 11 23 11 37 0 53 -50 68 -74 23z"/>
<path d="M2714 1439 c3 -17 6 -40 6 -50 0 -27 14 -24 30 6 16 30 30 32 30 5 0
-27 36 -27 43 0 8 32 33 34 61 7 14 -14 29 -27 34 -28 5 -2 7 -19 5 -36 l-5
-33 -112 0 c-97 0 -156 -10 -130 -21 5 -2 155 -2 334 1 205 3 310 8 284 13
-22 4 -82 6 -133 2 -116 -7 -161 0 -161 26 0 11 9 28 19 38 16 16 17 20 5 25
-8 3 -14 17 -14 31 0 16 -4 24 -11 20 -5 -4 -19 1 -29 10 -22 20 -35 5 -26
-29 4 -18 1 -25 -15 -29 -16 -4 -25 3 -41 29 -16 28 -23 32 -38 24 -11 -6 -22
-15 -25 -20 -11 -17 -25 -11 -25 11 0 18 -4 20 -29 14 -17 -3 -32 -2 -36 4
-14 23 -27 10 -21 -20z m271 -48 c-3 -6 -11 -11 -17 -11 -6 0 -6 6 2 15 14 17
26 13 15 -4z m-1 -54 c-8 -21 -44 -23 -44 -2 0 17 32 37 43 26 4 -4 5 -15 1
-24z"/>
<path d="M4168 1434 c-5 -4 -8 -17 -8 -28 0 -12 -9 -40 -20 -64 -16 -34 -24
-42 -38 -38 -23 8 -45 -15 -36 -38 7 -18 39 -22 49 -5 5 7 27 8 59 5 l51 -6
-35 16 c-47 21 -46 19 -26 62 17 37 19 112 4 96z"/>
<path d="M3780 1399 c7 -11 14 -18 17 -15 8 8 -5 36 -17 36 -7 0 -7 -6 0 -21z"/>
<path d="M6446 1393 c-4 -9 -2 -21 4 -27 7 -7 10 -7 10 1 0 6 3 18 6 27 3 9 2
16 -4 16 -5 0 -13 -8 -16 -17z"/>
<path d="M742 1389 c6 -17 148 -26 148 -9 0 5 -23 10 -52 10 -29 0 -64 3 -77
7 -18 4 -22 2 -19 -8z"/>
<path d="M3631 1386 c-21 -25 -6 -42 43 -55 54 -13 62 -38 16 -47 -31 -7 -42
-24 -15 -24 28 0 65 24 65 42 0 13 -16 26 -52 42 -52 23 -53 44 -1 32 18 -5
24 -3 21 6 -7 19 -62 22 -77 4z"/>
<path d="M160 1361 c-17 -41 2 -75 36 -67 29 8 31 -10 9 -74 -18 -51 -19 -63
-3 -58 6 2 22 47 34 99 29 117 29 122 5 114 -11 -3 -22 -1 -26 5 -12 20 -43
10 -55 -19z m44 -42 c-8 -14 -24 -11 -30 6 -4 8 0 22 7 31 12 14 14 13 21 -6
4 -12 6 -26 2 -31z"/>
<path d="M1066 1380 c-2 -3 -7 -20 -11 -37 -8 -39 14 -47 30 -11 14 30 31 33
38 6 6 -22 6 -22 32 6 30 32 49 30 53 -7 4 -32 22 -37 22 -6 0 48 -39 76 -67
48 -7 -7 -19 -8 -30 -4 -22 10 -63 13 -67 5z"/>
<path d="M2355 1359 c-4 -6 -4 -13 0 -17 12 -12 166 -15 178 -3 8 8 -8 11 -62
11 -40 0 -81 5 -91 10 -13 7 -21 7 -25 -1z"/>
<path d="M744 1349 c-5 -9 17 -15 93 -24 31 -3 54 -1 58 5 3 6 -4 10 -17 11
-13 0 -47 4 -76 8 -29 4 -55 4 -58 0z"/>
<path d="M1817 1354 c-3 -4 -113 -6 -244 -6 -138 1 -244 -3 -253 -8 -8 -5 -10
-10 -5 -10 6 0 198 -1 428 -3 229 -2 417 0 417 3 0 4 -23 8 -51 9 -28 1 -59 5
-68 10 -9 5 -44 5 -81 -1 -63 -9 -89 -7 -121 6 -8 4 -18 4 -22 0z"/>
<path d="M3800 1334 c-13 -32 -13 -44 0 -44 6 0 10 1 10 3 0 1 4 17 9 35 12
39 -5 44 -19 6z"/>
<path d="M3900 1326 c0 -45 15 -54 45 -26 l24 23 11 -27 c13 -34 29 -26 23 11
-9 56 -12 58 -41 30 -34 -33 -44 -34 -40 -5 2 11 -3 23 -9 25 -9 3 -13 -7 -13
-31z"/>
<path d="M3540 1330 c0 -5 5 -10 10 -10 6 0 10 5 10 10 0 6 -4 10 -10 10 -5 0
-10 -4 -10 -10z"/>
<path d="M2036 1303 c-3 -3 -6 -21 -6 -40 0 -29 -3 -33 -25 -33 -28 0 -31 -8
-11 -35 8 -11 20 -16 29 -12 9 3 30 1 47 -4 45 -16 60 -5 19 15 -35 16 -36 19
-32 60 5 40 -5 64 -21 49z"/>
<path d="M1755 1280 c3 -5 10 -10 16 -10 5 0 9 5 9 10 0 6 -7 10 -16 10 -8 0
-12 -4 -9 -10z"/>
<path d="M1398 1264 c-7 -8 -21 -24 -31 -36 -10 -11 -17 -20 -15 -21 2 -1 17
-10 33 -19 19 -10 36 -13 44 -9 11 7 9 11 -5 19 -18 10 -18 11 -1 30 10 11 15
26 11 36 -8 20 -20 20 -36 0z"/>
<path d="M6447 1266 c-3 -8 0 -34 7 -58 l14 -43 -5 55 c-6 62 -8 67 -16 46z"/>
<path d="M1640 1245 c0 -14 5 -25 11 -25 5 0 9 -10 7 -22 -2 -15 3 -24 15 -26
22 -4 24 46 2 54 -22 9 -18 24 6 24 11 0 17 5 14 10 -3 6 -17 10 -31 10 -19 0
-24 -5 -24 -25z"/>
<path d="M1840 1260 c-11 -7 -12 -15 -4 -37 8 -22 16 -28 37 -26 15 1 27 -2
27 -8 0 -5 7 -9 15 -9 18 0 18 2 3 35 -8 18 -17 24 -30 19 -12 -4 -20 1 -26
15 -5 15 -11 18 -22 11z"/>
<path d="M1760 1227 c-10 -20 -11 -30 -2 -39 8 -8 13 -4 17 15 10 40 0 56 -15
24z"/>
<path d="M3171 1198 c-6 -18 -16 -23 -41 -23 -38 0 -62 -27 -42 -47 9 -9 19
-9 46 0 24 9 41 10 61 2 15 -6 31 -8 34 -4 3 4 1 9 -5 11 -6 2 -19 10 -29 17
-14 10 -15 17 -6 34 7 14 8 23 1 27 -6 3 -14 -4 -19 -17z m-46 -48 c-3 -5 -10
-10 -16 -10 -5 0 -9 5 -9 10 0 6 7 10 16 10 8 0 12 -4 9 -10z"/>
<path d="M2731 1196 c-7 -8 -11 -23 -9 -33 3 -14 13 -18 50 -18 26 0 50 -4 54
-8 13 -13 51 -7 74 11 19 16 21 22 11 40 -16 30 -56 28 -83 -3 -15 -18 -32
-25 -56 -25 -30 0 -33 2 -22 15 9 11 10 19 3 26 -7 7 -14 5 -22 -5z m167 -23
c-4 -22 -38 -30 -49 -12 -11 19 -2 29 27 29 19 0 25 -5 22 -17z"/>
<path d="M2962 1197 c-13 -16 -5 -30 28 -47 l24 -13 -23 -8 c-34 -13 -16 -30
19 -17 38 13 38 37 0 51 -34 13 -40 27 -10 27 11 0 20 5 20 10 0 15 -46 12
-58 -3z"/>
<path d="M6464 1056 c-3 -19 -2 -48 4 -63 8 -25 10 -22 13 30 4 66 -6 87 -17
33z"/>
<path d="M7029 989 c-21 -8 -28 -18 -32 -52 -3 -24 -9 -51 -13 -60 -4 -11 -1
-17 9 -17 8 0 17 7 21 15 3 9 19 15 41 15 22 0 34 4 30 10 -3 6 -20 10 -36 10
-27 0 -30 3 -23 23 10 35 24 47 55 47 16 0 29 5 29 10 0 12 -46 12 -81 -1z"/>
<path d="M1940 953 c0 -9 6 -13 15 -9 22 8 18 -11 -6 -35 -11 -11 -18 -26 -16
-32 5 -15 106 -22 120 -8 8 8 -4 11 -41 11 -56 0 -65 9 -30 32 19 13 21 18 10
31 -18 22 -52 29 -52 10z"/>
<path d="M1540 920 c-6 -11 -15 -39 -20 -62 -5 -24 -14 -61 -21 -83 -21 -72
-22 -134 -4 -194 31 -99 35 -105 47 -93 9 9 7 15 -7 26 -40 29 -29 268 16 373
22 52 22 53 9 53 -5 0 -14 -9 -20 -20z"/>
<path d="M3840 923 c0 -3 18 -21 39 -40 68 -57 101 -185 66 -252 -8 -16 -31
-42 -52 -59 -26 -21 -33 -31 -21 -32 25 0 73 45 93 87 35 73 -4 217 -75 277
-31 25 -50 33 -50 19z"/>
<path d="M7128 835 c-22 -59 2 -78 26 -20 2 6 11 0 21 -12 9 -13 22 -23 30
-23 11 0 8 10 -10 36 -14 20 -25 43 -25 50 0 31 -27 11 -42 -31z"/>
<path d="M1730 837 c0 -13 4 -27 9 -32 4 -6 16 -34 27 -62 25 -74 37 -71 48
12 5 36 4 37 -5 13 -6 -16 -14 -28 -19 -28 -4 0 -13 27 -21 60 -13 59 -39 84
-39 37z"/>
<path d="M1830 841 c-16 -30 -12 -36 10 -16 21 19 26 35 10 35 -5 0 -14 -9
-20 -19z"/>
<path d="M3485 845 c-5 -11 -18 -45 -30 -75 -16 -43 -26 -55 -43 -55 -29 -1
-40 -15 -16 -21 11 -3 25 -19 32 -36 10 -27 15 -30 39 -24 15 4 33 14 39 22 6
7 19 14 28 14 30 0 16 -28 -24 -51 -47 -27 -63 -65 -36 -85 26 -18 40 -9 70
45 29 55 37 135 12 125 -11 -4 -13 0 -9 14 7 30 -18 40 -35 14 -8 -12 -23 -22
-33 -22 -23 0 -23 -2 1 61 12 29 19 62 17 73 -3 21 -4 21 -12 1z m25 -163 c0
-12 -46 -32 -54 -25 -16 16 -4 33 24 33 17 0 30 -4 30 -8z m10 -111 c-12 -24
-40 -28 -40 -7 0 18 44 50 48 37 2 -6 -2 -19 -8 -30z"/>
<path d="M1066 818 c-21 -67 -6 -130 15 -69 11 32 29 42 29 16 0 -21 8 -19 34
12 27 31 40 26 62 -25 9 -20 18 -31 21 -25 7 20 -30 88 -47 86 -8 -1 -27 -5
-41 -9 -17 -4 -31 0 -42 10 -19 19 -26 20 -31 4z"/>
<path d="M2855 770 c-14 -21 -39 -49 -55 -62 -22 -16 -30 -28 -26 -42 3 -11 1
-27 -5 -37 -11 -22 5 -69 25 -69 9 0 12 -7 9 -21 -5 -18 -3 -20 16 -14 12 4
21 2 21 -4 0 -25 30 -7 101 57 67 62 76 67 100 58 21 -7 35 -5 63 12 l36 21 0
-33 c0 -67 -11 -97 -34 -94 -32 5 -32 42 0 67 15 11 22 21 16 21 -6 0 -23 -10
-38 -23 -22 -19 -26 -29 -20 -51 8 -33 53 -54 73 -34 11 12 35 197 26 207 -2
3 -8 0 -15 -7 -8 -8 -17 -8 -31 -1 -30 17 -45 -5 -22 -31 23 -26 9 -43 -31
-38 -25 2 -29 8 -32 35 -2 20 -11 37 -22 43 -13 7 -17 16 -13 28 6 15 5 15
-10 4 -22 -19 -38 -6 -31 24 6 22 4 24 -35 24 -37 0 -43 -4 -66 -40z m-29
-175 c-11 -8 -22 -12 -25 -9 -6 6 19 24 34 24 6 -1 1 -7 -9 -15z"/>
<path d="M3790 774 c0 -31 -32 -84 -51 -84 -20 0 -59 -33 -59 -50 0 -21 32
-22 59 -2 19 13 32 17 42 11 8 -5 23 -9 34 -9 16 0 13 4 -12 20 l-33 20 20 32
c21 35 27 78 10 78 -5 0 -10 -7 -10 -16z m-60 -114 c0 -5 -5 -10 -11 -10 -5 0
-7 5 -4 10 3 6 8 10 11 10 2 0 4 -4 4 -10z"/>
<path d="M396 708 c-18 -26 -23 -153 -6 -163 6 -4 10 21 10 67 0 84 8 103 39
93 28 -9 29 -51 1 -60 -26 -8 -26 -25 0 -25 25 0 80 -27 80 -39 0 -12 -48 -23
-71 -16 -11 4 -19 2 -19 -4 0 -14 89 -14 110 -1 20 12 4 40 -33 58 -21 10 -27
20 -27 47 0 24 -7 39 -22 49 -30 22 -44 20 -62 -6z"/>
<path d="M645 681 c-3 -6 -5 -11 -3 -12 29 -7 60 -7 79 0 23 9 23 10 -8 10
-17 1 -38 4 -46 7 -8 3 -18 1 -22 -5z"/>
<path d="M2623 683 c-35 -2 -63 -8 -63 -13 0 -12 111 -11 155 0 17 4 22 8 13
9 -9 0 -22 2 -30 4 -7 2 -41 1 -75 0z"/>
<path d="M960 670 c0 -6 58 -10 155 -10 97 0 155 4 155 10 0 6 -58 10 -155 10
-97 0 -155 -4 -155 -10z"/>
<path d="M1290 670 c0 -5 7 -10 15 -10 8 0 15 5 15 10 0 6 -7 10 -15 10 -8 0
-15 -4 -15 -10z"/>
<path d="M1340 670 c0 -5 12 -10 28 -10 21 0 24 2 12 10 -20 13 -40 13 -40 0z"/>
<path d="M1780 671 c-19 -5 -28 -9 -20 -10 48 -6 600 -5 600 2 0 4 -62 7 -138
7 -77 0 -199 2 -273 4 -74 3 -150 1 -169 -3z"/>
<path d="M1610 660 c0 -6 27 -10 63 -9 44 0 56 3 42 9 -28 12 -105 12 -105 0z"/>
<path d="M625 621 c-9 -15 7 -18 65 -12 52 6 53 7 21 14 -46 10 -79 9 -86 -2z"/>
<path d="M1256 578 c-37 -54 -49 -91 -22 -69 16 14 68 112 62 118 -2 3 -20
-19 -40 -49z"/>
<path d="M1726 598 c-9 -12 -16 -28 -16 -35 0 -6 -10 -19 -22 -28 -22 -15 -22
-17 -5 -29 9 -7 17 -21 17 -30 0 -21 23 -30 56 -22 34 9 25 32 -11 28 -26 -4
-27 -2 -21 24 4 15 18 41 32 57 14 16 23 35 21 41 -7 20 -35 17 -51 -6z"/>
<path d="M1949 589 c-26 -26 -21 -40 19 -58 36 -16 37 -34 4 -39 -30 -5 -28
-22 2 -22 29 0 57 25 50 44 -3 8 -19 20 -35 26 -36 15 -38 37 -4 46 14 3 25
10 25 15 0 17 -40 9 -61 -12z"/>
<path d="M1167 593 c-4 -4 -5 -23 -2 -42 3 -20 8 -51 11 -68 5 -36 29 -44 37
-14 3 14 1 18 -9 14 -11 -4 -14 8 -14 56 0 56 -6 71 -23 54z"/>
<path d="M2065 590 c3 -5 8 -10 11 -10 2 0 4 5 4 10 0 6 -5 10 -11 10 -5 0 -7
-4 -4 -10z"/>
<path d="M2344 570 c-4 -19 -13 -30 -23 -30 -22 0 -41 -19 -41 -42 0 -27 27
-33 50 -13 18 17 21 17 46 1 35 -24 42 -13 9 16 -23 20 -26 28 -21 61 7 45
-12 52 -20 7z"/>
<path d="M1026 568 c-19 -27 -20 -42 -3 -56 10 -9 19 -8 34 3 21 15 22 15 16
-42 -3 -32 -10 -66 -14 -75 -13 -24 -11 -38 4 -38 12 0 48 130 47 173 0 55
-55 77 -84 35z m54 -6 c0 -13 -23 -32 -37 -32 -11 0 -11 5 -3 20 10 19 40 28
40 12z"/>
<path d="M2150 546 c0 -40 12 -52 30 -31 15 19 30 10 31 -18 1 -20 2 -20 8 3
13 45 -5 90 -24 60 -9 -15 -25 -12 -25 5 0 8 -4 15 -10 15 -5 0 -10 -15 -10
-34z"/>
<path d="M2070 535 c-12 -33 -13 -45 -1 -45 5 0 14 13 19 30 14 37 -4 52 -18
15z"/>
<path d="M4320 510 c0 -5 4 -10 9 -10 6 0 13 5 16 10 3 6 -1 10 -9 10 -9 0
-16 -4 -16 -10z"/>
<path d="M4204 376 l6 -34 -62 -6 c-35 -4 -425 -6 -868 -5 -753 2 -994 -2
-1315 -17 -116 -6 -213 -9 -492 -13 -56 -1 -83 -5 -83 -13 0 -8 59 -9 233 -4
737 21 1052 26 1789 26 449 0 819 3 822 8 7 11 -17 92 -27 92 -5 0 -6 -15 -3
-34z"/>
<path d="M7660 328 c0 -32 2 -58 5 -58 2 0 12 14 20 31 16 29 17 30 35 14 17
-15 19 -15 29 2 9 17 11 17 23 1 7 -9 25 -22 40 -27 21 -8 29 -6 44 10 18 20
18 20 26 -1 6 -16 0 -29 -27 -56 -34 -34 -39 -48 -35 -89 3 -29 40 -65 67 -65
43 0 48 35 24 156 -12 60 -23 109 -24 109 -1 0 -13 6 -26 13 -32 18 -49 2 -33
-32 6 -13 8 -27 5 -30 -9 -9 -43 14 -43 29 0 20 -20 29 -33 16 -15 -15 -27
-14 -27 4 0 17 -26 20 -35 4 -5 -6 -12 -4 -21 8 -12 16 -13 11 -14 -39z m242
-153 c3 -55 1 -60 -19 -63 -23 -3 -53 30 -53 59 0 23 51 82 61 72 5 -5 10 -35
11 -68z"/>
<path d="M259 363 c-3 -21 4 -70 12 -85 9 -17 40 -18 482 -14 473 4 627 11
627 28 0 6 -63 6 -157 1 -87 -4 -333 -8 -548 -8 l-390 0 -3 43 c-2 23 -7 42
-13 42 -5 0 -9 -3 -10 -7z"/>
</g>
</svg>
