<?xml version="1.0" encoding="UTF-8" standalone="no"?>
<svg
   height="612.306275pt"
   preserveAspectRatio="xMidYMid meet"
   viewBox="0 0 1191.018401 612.306275"
   width="1191.018401pt"
   version="1.1"
   id="svg145"
   sodipodi:docname="19.svg"
   inkscape:version="1.4.2 (ebf0e940, 2025-05-08)"
   xmlns:inkscape="http://www.inkscape.org/namespaces/inkscape"
   xmlns:sodipodi="http://sodipodi.sourceforge.net/DTD/sodipodi-0.dtd"
   xmlns="http://www.w3.org/2000/svg"
   xmlns:svg="http://www.w3.org/2000/svg">
  <defs
     id="defs145" />
  <sodipodi:namedview
     id="namedview145"
     pagecolor="#ffffff"
     bordercolor="#000000"
     borderopacity="0.25"
     inkscape:showpageshadow="2"
     inkscape:pageopacity="0.0"
     inkscape:pagecheckerboard="0"
     inkscape:deskcolor="#d1d1d1"
     inkscape:document-units="pt"
     showgrid="false"
     inkscape:zoom="0.47417402"
     inkscape:cx="794.01229"
     inkscape:cy="409.13249"
     inkscape:current-layer="svg145" />
  <g
     transform="matrix(.1 0 0 -.1 -7 683.522791)"
     id="g137">
    <path
       d="m933 6833c-6-2-22-34-34-71-24-75-35-92-56-92-12 0-14 8-8 38 3 20 11 41 16 47 14 14 11 45-7 52-24 9-38-13-54-89l-15-71-107-41c-101-38-128-59-94-72 8-3 32 4 55 15 22 12 63 30 91 41l52 20-7-32c-9-44-15-49-77-63-34-7-53-17-53-26 0-15 30-17 80-6l30 8-9-76-10-75h-119c-107 0-118-2-115-17 3-17 49-18 783-19 429 0 805-4 835-8 145-20 244-76 287-163 28-58 28-58 27-248-1-104-9-284-18-400-9-115-20-358-26-539-5-181-11-330-12-331-7-6-453-26-689-31-239-6-456-1-1079 25-174 8-219 4-189-15 7-4 103-11 214-15 711-27 851-31 1040-25 222 7 595 24 656 30l36 4 8-182c5-99 9-234 9-298 1-103-1-120-20-145-46-62-134-98-424-172-209-54-351-78-533-91-241-17-388-2-772 81-273 59-423 77-502 59-35-7-53-17-53-26 0-12 8-13 37-7 50 10 197 7 276-7 34-6 154-31 267-55 308-66 399-78 605-77 271 0 466 29 807 123 338 92 369 124 354 363-3 55-9 176-12 269-6 151-5 167 10 167 9 0 16 5 16 10 0 6-7 10-16 10-10 0-14 5-10 15 3 9 8 138 12 288 3 150 14 404 25 566 24 365 25 558 3 630-29 100-125 173-271 207-76 18-332 35-378 26-44-9-813-14-931-7l-101 7 13 80c12 77 23 97 52 98 9 0 11-14 6-56-6-51-5-56 12-52 15 2 21 16 27 65l9 62 61 21c72 24 94 36 84 46-4 4-31 0-61-9-74-24-79-23-71 16 4 17 10 35 14 39s41 13 84 20c42 6 77 15 77 19 0 14-29 17-86 9-33-4-61-6-63-4s7 31 19 64c22 59 20 83-7 73zm-78-230c-4-21-8-39-8-39-1-1-12-5-24-8-21-7-22-5-17 26 6 32 27 58 47 58 5 0 6-16 2-37z"
       id="path1" />
    <path
       d="m1296 6812c-5-9-96-414-96-430 0-19 28-14 34 6 3 9 19 78 36 152s40 163 51 197c11 35 18 67 14 73-7 12-32 13-39 2z"
       id="path2" />
    <path
       d="m1416 6740c-42-37-62-90-47-119 11-20 21-24 79-36 17-4 32-10 32-14s-13-28-29-52c-62-94-107-112-113-47-2 25-8 34-25 36-20 3-23-1-23-33 0-44 36-85 76-85 34 0 100 67 140 144 24 46 33 54 71 64 55 15 58 37 4 28l-40-6 6 54c5 46 2 57-16 75-30 30-73 27-115-9zm94-50c0-21-3-45-6-54-8-20-63-21-89-2-18 13-18 14 1 47 22 37 59 60 80 52 9-3 14-20 14-43z"
       id="path3" />
    <path
       d="m7990 6512c-74-42-183-107-242-145-59-37-110-67-112-67s-3 30-3 68c2 61 0 67-18 67-15 0-19-6-18-25 1-14-3-53-8-87-12-68-5-60-129-131-19-10-52-29-72-41-21-13-41-20-46-17-6 3-22 35-37 71-32 74-59 87-77 35-5-17-28-66-49-111-21-44-38-89-36-101 1-17-5-23-29-28-63-14-167-91-157-116 9-25 36-15 138 51l100 65h86c104 0 122 11 97 64-16 32-16 32 27 58 34 21 51 25 89 21 46-6 46-6 46-48 0-80 67-122 128-79 25 17 30 54 7 54-8 0-15-5-15-10 0-17-43-29-63-18-14 7-17 19-15 50 3 40 5 42 47 52 63 15 69 40 8 31l-45-7 9 39c10 36 21 45 177 144 92 58 211 132 265 164 85 50 115 75 90 75-5 0-69-35-143-78zm-432-319c-2-12-14-19-33-21l-30-3 25 20c31 25 42 26 38 4zm-269-52 19-37-48-27c-27-15-51-23-54-18-8 13 44 132 55 125 5-3 18-22 28-43zm49-89c2-8-9-12-35-12-38 1-38 1-13 15 28 16 42 15 48-3z"
       id="path4" />
    <path
       d="m6800 6555c0-8 18-24 40-35 98-50 154-261 116-440-22-105-78-211-140-265-59-52-54-72 7-28 52 38 119 136 147 217 50 141 34 373-33 473-48 71-137 122-137 78z"
       id="path5" />
    <path
       d="m3846 6514c-25-24-83-153-101-222-59-230-30-412 86-537 45-49 154-112 164-95 3 5-16 20-43 34-89 45-165 149-192 265-31 130 14 374 90 494 30 48 38 77 21 77-5 0-17-7-25-16z"
       id="path6" />
    <path
       d="m6490 6408c0-18-9-89-20-157-11-69-23-157-27-198-6-68-5-73 14-73 18 0 22 14 41 138 12 75 22 145 22 155 0 9 5 17 10 17 6 0 10-5 10-11s10-33 21-60c19-43 25-50 47-47 20 2 29 14 46 58l21 55 6-107c4-75 11-115 23-133 18-27 24-29 46-15 12 7 11 12-5 31-18 19-20 35-18 180 2 158 2 159-20 159-18 0-29-16-61-85-22-47-41-83-44-80-3 2-19 48-37 102-27 79-37 99-54 101-18 3-21-2-21-30z"
       id="path7" />
    <path
       d="m11831 6399c-37-23-439-199-454-199-5 0-6 7-3 16s9 34 12 56c6 38 6 40-17 36-21-3-25-10-32-63-5-33-12-64-17-68-9-10-348-167-360-167-4 0-11 16-14 35-5 26-12 35-26 35-28 0-49-25-90-104-28-53-47-76-92-108-57-40-74-68-42-68 9 0 35 16 59 35 41 34 47 36 141 41 55 3 103 10 109 15 6 6 3 20-8 38-9 16-17 34-17 41 0 6 48 34 107 61 91 43 108 48 115 35 6-10 23-16 48-16 39 0 39 0 29-32-15-54-11-135 7-142 32-12 55-5 94 30 45 40 57 68 40 89-20 24-41 19-34-9 4-18-2-29-26-50-42-35-63-35-56 2 3 15 8 44 12 65 7 44 30 57 97 57 64 0 117 11 117 24 0 9-27 11-95 8-52-3-95-2-95 0 0 25 26 68 48 78 15 7 92 42 172 77 195 87 330 154 330 164 0 15-23 10-59-12zm-528-289c-4-16-13-20-47-19h-41l40 19c52 24 54 24 48 0zm-400-137c-22-17-27-10-12 16 10 14 15 17 21 8 4-7 1-17-9-24zm42-44c0-9-14-15-40-17l-40-3 30 21c33 22 50 21 50-1z"
       id="path8" />
    <path
       d="m5056 6358c-8-13-30-74-49-135-18-62-36-115-39-118s-32 47-65 112c-57 113-85 145-99 110-8-21 149-301 170-305 28-6 35 7 65 124 16 60 38 133 50 163 11 30 18 58 15 63-10 15-33 8-48-14z"
       id="path9" />
    <path
       d="m4587 6292c-16-17-33-52-43-92-19-74-15-137 15-295 20-102 17-163-9-189-16-16-41 21-39 59 2 49 0 55-20 55-25 0-31-18-21-66 11-57 18-70 46-82 74-34 118 64 89 199-9 41-19 93-22 117-6 42-6 42 27 42 41 0 95 26 120 58 38 48 13 183-38 211-36 19-76 13-105-17zm96-33c10-15 22-48 24-73 5-39 2-51-18-72-23-25-92-50-109-39-25 16 1 158 36 196 22 25 42 21 67-12z"
       id="path10" />
    <path
       d="m5850 6270c-50-26-106-88-120-133-16-51 4-82 62-98 52-14 152-6 204 16 48 20 35 40-16 25-38-11-152-13-187-4-35 10-31 64 7 108 46 52 130 86 130 52 0-16 27-29 41-20 13 8 11 48-3 62-18 18-78 14-118-8z"
       id="path11" />
    <path
       d="m5354 6259c-3-6-9-34-13-63l-6-51-70-5c-64-5-70-7-73-29-4-23-3-23 67-16 71 7 71 7 71-18 0-94 37-121 42-30l3 57 60 11c33 6 66 14 73 19 19 11 4 27-21 22-12-3-41-7-64-10-43-6-43-6-43 27 0 18 7 42 15 53 8 10 15 25 15 32 0 15-46 16-56 1z"
       id="path12" />
    <path
       d="m3983 6225c-84-51-109-145-50-189 41-30 145-29 205 2 23 12 42 27 42 32 0 14-12 13-53-5-65-27-170-15-184 21-17 46 64 127 122 122 27-3 30-6 30-38 0-29 4-36 23-38 20-3 22 1 22 41 0 30-6 49-18 60-27 25-90 21-139-8z"
       id="path13" />
    <path
       d="m10251 6168c-30-93-99-243-108-234-4 3-27 68-53 143-45 134-67 170-91 146-8-8-5-21 9-50 11-21 36-84 56-140 48-140 62-165 89-161 25 3 58 65 118 225 44 114 48 143 21 143-14 0-24-18-41-72z"
       id="path14" />
    <path
       d="m9305 6136c-59-26-115-113-115-178 0-67 49-98 157-98s112 25 6 34c-43 4-88 14-100 22-39 25-28 85 27 148 37 41 61 47 57 14-2-18 3-23 23-23 22 0 25 5 28 38 3 32 0 38-23 47-14 6-27 10-28 10-1-1-16-7-32-14z"
       id="path15" />
    <path
       d="m4270 6081c-27-27-55-69-65-97-24-63-31-72-63-76-20-2-28-9-30-27-4-22-1-24 32-18 32 5 38 3 51-22 17-34 65-56 101-47 39 10 94 69 94 100 0 36-40 60-86 53l-36-6 42 45c45 48 75 108 66 130-12 30-59 15-106-35zm60-12c-16-29-82-101-87-95-10 10 72 116 89 116 5 0 4-9-2-21zm4-155c42-16-7-84-60-84-18 0-36 5-39 10-3 6 1 10 9 10 9 0 16 5 16 10 0 11 45 60 54 60 2 0 11-3 20-6zm-107-46c-3-7-5-2-5 12s2 19 5 13c2-7 2-19 0-25z"
       id="path16" />
    <path
       d="m9814 6096c-47-21-58-64-45-173 13-101 13-229 2-258-7-17-9-16-15 12-4 18-6 47-4 65 3 28 0 33-21 36-24 4-24 3-18-60 4-34 8-72 9-83 3-19-4-20-207-25-135-3-208-9-205-15s81-10 203-10c129 0 197-4 197-10s13-18 28-27c16-10 54-38 86-64 52-43 55-48 41-64-20-22-20-60 0-60 9 0 20 11 25 25s12 25 16 25c3 0 31-21 62-47 32-26 59-49 61-50 3-2-3-27-11-56-28-91-29-104-12-121 8-9 27-16 42-16 38 0 92 35 92 60s-4 25-39-1c-16-11-37-19-48-17-20 3-20 5-6 57 7 30 15 57 17 58 2 2 44-24 92-59 132-94 278-188 293-188 23 0-1 21-107 92-59 39-142 98-184 130-85 64-83 60-43 138l15 29 93-5c97-6 185 5 177 21-3 6-52 10-110 11-67 0-125 7-159 17-65 20-132 21-182 3-37-13-38-12-92 34-30 26-67 56-82 67l-28 20 98 6c54 4 364 11 689 17 841 14 1243 36 1254 68 5 15-36 16-128 2-133-19-400-30-955-40-313-5-646-12-739-16l-168-6 8 23c5 13 9 72 9 131v108l52 10c58 12 108 51 118 92s-19 96-59 113c-43 18-71 18-112 1zm108-43c31-36 31-61 0-93-33-32-84-50-90-32-2 7-10 12-18 12-20 0-19 79 2 108 19 28 83 31 106 5zm158-618c0-8-7-33-16-55l-16-40-27 20c-14 11-39 31-55 44l-29 25 34 9c54 16 109 14 109-3z"
       id="path17" />
    <path
       d="m735 6080c-8-13 3-50 15-50 5 0 25-42 44-92 49-125 70-158 101-158 21 0 26 7 40 58 31 116 56 192 65 197 18 11 10 35-10 35-29 0-55-49-81-153-21-84-23-88-35-66-7 13-25 58-39 99-39 117-78 166-100 130z"
       id="path18" />
    <path
       d="m1961 5958c-63-100-103-155-124-168-17-10-19-10-14 3 7 20-16 39-37 31-38-15-7-84 38-84 26 0 93 67 122 121l18 34 7-55c5-38 14-60 29-72 29-24 82-23 111 2 26 21 25 22-41 24l-45 1v109c0 77-4 110-12 113-7 3-30-24-52-59z"
       id="path19" />
    <path
       d="m1612 5999c-35-10-51-34-34-51 6-6 20-5 40 6 34 17 92 22 92 7 0-5-40-47-90-93-49-47-90-90-90-96 0-16 29-21 129-24 111-4 119 14 15 32l-76 13 76 71c58 55 76 78 76 98 0 45-57 60-138 37z"
       id="path20" />
    <path
       d="m5968 5985c-35-24-78-94-78-128 0-15 28-37 48-37 5 0 25 11 45 24 24 17 38 21 45 14 16-16 88-13 116 6 33 21 34 21 28-10-4-22-2-25 19-22 17 2 26 13 34 40l10 37 33-40c22-26 41-39 58-39 26 0 33 15 9 23-8 4-31 31-51 62-43 64-62 68-101 24-44-49-112-76-128-49-11 18 7 60 26 60 26 0 24 25-3 44-32 23-68 20-110-9zm65-25c-13-5-23-15-23-23 0-14-57-77-71-77-4 0-3 13 2 30 13 37 63 80 92 79 22 0 22 0 0-9z"
       id="path21" />
    <path
       d="m10455 5954c-22-34-8-49 39-40 57 11 63 66 7 66-20 0-34-8-46-26z"
       id="path22" />
    <path
       d="m1252 5929c-36-14-21-34 24-32 21 1 65 3 97 4 59 2 66 6 45 27-14 14-132 15-166 1z"
       id="path23" />
    <path
       d="m9481 5895c-16-14-35-41-41-59-6-19-19-36-30-39-25-7-26-34-1-42 10-3 21-18 24-33 5-27 48-52 89-52 23 0 51 36 44 58-7 20-45 42-74 42-11 0-4 10 21 31 49 40 73 85 56 105-18 21-54 17-88-11zm49-23c0-12-39-46-45-41-6 7 24 49 36 49 5 0 9-4 9-8zm-5-151c10-17-11-21-31-6-18 14-18 14 3 15 12 0 24-4 28-9z"
       id="path24" />
    <path
       d="m1313 5843c-32-4-44-25-23-38 8-5 65 2 158 21 12 2 22 9 22 14 0 10-90 11-157 3z"
       id="path25" />
    <path
       d="m8370 5691c-49-5-66-10-68-22-2-9 3-19 10-21 23-9 279 25 275 37-4 11-120 15-217 6z"
       id="path26" />
    <path
       d="m5240 5670c-96-5-430-13-741-19s-574-13-583-17c-30-11-11-29 30-28 21 1 257 6 524 13 267 6 616 16 775 22 298 12 2587 6 2708-8 47-5 57-3 57 9 0 11-14 17-47 21-79 10-2534 16-2723 7z"
       id="path27" />
    <path
       d="m5086 5603c-13-13-4-24 52-61 106-73 150-119 154-159 4-43 28-59 28-18 0 25 3 24 75-36 51-42 74-67 70-77-3-9-8-41-12-72-5-53-4-58 22-78 15-12 37-22 49-22 27 0 66 27 66 46 0 17-21 19-37 3-6-6-21-9-34-7-27 3-35 36-22 86l8 29 95-68c90-65 260-159 288-159 27 0 9 16-47 42-65 30-248 150-298 194l-32 29 28 60 27 60 110 1c108 2 202 21 196 39-2 6-13 9-25 7-64-9-239-13-254-7-10 5-31 9-48 10-16 1-60 6-96 10-43 5-78 4-99-3-31-11-35-9-128 67-97 78-125 95-136 84zm397-188c31-5 37-10 32-23-4-9-12-30-17-47-6-16-14-33-18-38-6-7-121 86-128 104-3 8 52 17 78 13 8-1 32-5 53-9z"
       id="path28" />
    <path
       d="m8355 5592c-3-3-5-11-5-19 0-10 20-13 83-13 119 0 187 10 187 27 0 11-24 14-130 12-71-1-132-4-135-7z"
       id="path29" />
    <path
       d="m10584 5545c-95-101-164-367-119-455 15-29 48-45 80-38 23 4 19 23-5 23-79 1-71 169 16 352 18 39 47 82 64 96 16 14 30 33 30 41 0 27-31 18-66-19z"
       id="path30" />
    <path
       d="m11430 5560c0-6 8-13 18-17 77-28 116-96 116-208 1-67-3-89-27-140-33-70-93-136-148-161-25-11-36-21-30-27 14-14 93 26 135 69 105 108 137 244 89 379-16 45-46 80-85 101-32 16-68 18-68 4z"
       id="path31" />
    <path
       d="m11376 5478c-2-7-9-31-15-54-6-22-25-60-41-83-29-39-33-42-63-34-51 12-99 6-120-16-17-17-22-18-31-6-8 10-42 14-126 16-141 2-140 2-140-15 0-22 16-24 148-18l122 5v-26c0-41 38-61 88-48 22 6 51 21 66 32 27 21 27 21 85-1 60-22 122-24 128-4 2 7-14 13-39 17-24 3-60 12-80 21l-38 16 34 44c47 62 73 131 56 151-15 18-29 19-34 3zm-131-208c7-11-46-40-75-40-25 0-26 25-2 39 22 13 69 14 77 1z"
       id="path32" />
    <path
       d="m831 5393c-11-67-54-223-67-245-3-4-19 2-37 12-68 42-117 13-117-70 0-61 16-99 46-106 35-9 60 3 85 41 26 38 40 43 59 21 16-21 96-50 115-43 25 10 17 21-28 40-23 10-54 28-70 40l-28 23 25 66c26 69 76 255 76 282 0 10-9 16-23 16-21 0-24-7-36-77zm-114-277 27-24-28-36c-15-21-33-35-39-33-15 5-30 65-23 94 8 29 28 29 63-1z"
       id="path33" />
    <path
       d="m10794 5419c-22-17-58-42-81-56-27-15-43-32-43-44 0-25 38-26 56-2 20 29 25 9 9-37-19-54-20-100-1-100 8 0 18 19 25 46 13 49 51 131 83 176 18 26 17 48-1 48-5 0-26-14-47-31z"
       id="path34" />
    <path
       d="m1480 5347c-77-39-135-232-86-286 30-33 63-26 111 22 44 43 75 118 75 179 0 32-25 88-39 88-5 0-15 2-23 5-7 3-24-1-38-8zm50-42c16-19 7-102-15-146-20-38-62-79-81-79-16 0-20 79-6 96 5 5 15 29 22 54 25 84 52 109 80 75z"
       id="path35" />
    <path
       d="m2047 5331c-77-68-126-262-78-310 45-45 128-15 157 56 25 59-25 106-89 83-17-5-32-8-35-5-10 9 31 98 60 130 21 24 36 33 56 32 21-2 27 2 27 18 0 35-56 32-98-4zm41-222c5-24-36-69-64-69-33 0-32 33 1 66 27 27 58 29 63 3z"
       id="path36" />
    <path
       d="m1782 5324c-34-24-59-81-72-168-11-73-10-81 8-105 39-53 99-32 134 46 28 64 36 184 14 218-19 29-51 32-84 9zm55-101c-6-77-29-139-60-157-37-23-43 41-11 131 9 24 13 47 10 52-8 13 42 63 55 55 8-5 10-31 6-81z"
       id="path37" />
    <path
       d="m980 5162c0-30 29-35 146-27 79 5 104 10 104 21s-19 14-87 14c-49 0-105 3-125 6-34 6-38 4-38-14z"
       id="path38" />
    <path
       d="m995 5111c-14-24 10-31 98-30 98 1 137 8 140 24 3 14-229 19-238 6z"
       id="path39" />
    <path
       d="m1574 5073c-3-10-14-40-25-68-32-77-33-85-16-85 23 0 70 85 71 127 1 38-20 57-30 26z"
       id="path40" />
    <path
       d="m4857 4903c-15-8-48-42-73-75-129-176-190-423-131-538 23-46 76-90 108-90 29 0 22 13-18 35-75 41-96 147-59 297 32 126 136 306 198 343 48 28 24 54-25 28z"
       id="path41" />
    <path
       d="m7830 4828c-86-132-159-367-144-464 9-62 38-104 71-104h26l-21 23c-45 48-54 123-26 236 20 82 114 281 148 316 15 15 24 31 21 36-14 22-43 6-75-43z"
       id="path42" />
    <path
       d="m5796 4853c-12-12-6-33 9-33 8 0 30-15 48-34 37-36 57-96 57-166 0-90-74-240-146-298-36-29-42-42-20-42 31 0 116 92 151 163 59 120 67 217 25 313-22 52-105 116-124 97z"
       id="path43" />
    <path
       d="m8636 4841c-3-5 8-26 25-47 99-122 103-283 13-455-40-75-134-172-191-195-18-8-33-19-33-24 0-34 111 32 179 106 98 108 146 235 139 373-5 97-26 155-78 214-33 38-45 44-54 28z"
       id="path44" />
    <path
       d="m7330 4762c-5-22-14-63-20-92-5-29-18-80-29-114-10-33-22-85-26-113-6-47-5-53 12-53 15 0 24 25 57 163l39 162 14-50c28-98 39-120 65-123 18-2 34 7 58 34l33 38-6-45c-11-79-11-159 0-170 19-19 33 1 33 49 0 25 10 106 22 179 16 97 19 136 11 144-16 16-30 4-52-46-27-61-82-139-91-128-4 4-15 39-24 77-22 88-41 126-66 126-14 0-22-11-30-38z"
       id="path45" />
    <path
       d="m4282 4738c-10-29-37-104-58-165-21-62-42-113-45-113-8 0-35 100-44 160-3 25-13 69-21 98-13 46-18 53-37 50-15-2-21-9-20-23 4-31 53-225 70-273 19-54 55-97 75-90 13 6 138 362 138 396 0 6-9 12-19 12-14 0-25-14-39-52z"
       id="path46" />
    <path
       d="m6703 4709c-72-36-142-135-143-200 0-39 33-75 85-89 44-12 121-10 160 5 15 6 13 2-8-18-50-48-66-116-33-139 18-12 61-9 81 6 16 11 22 11 46-3 23-13 34-14 58-4 19 7 31 8 31 1 0-5 10-8 23-6 15 2 29 18 46 53l24 50 13-39c18-51 32-66 60-66 29 0 30 4 5 29-11 11-25 44-32 75-17 79-31 87-74 45-19-19-35-39-35-46 0-19-60-63-86-63-29 0-31 19-4 53 11 14 20 37 20 51 0 30-31 42-85 33-23-4-35-1-39 9-4 11-11 12-33 3-15-6-48-8-73-4-104 14-126 42-92 117 18 40 91 118 111 118 5 0 17 3 27 7 15 5 16 2 11-24-7-35 12-59 38-49 19 7 21 79 2 94-26 22-62 22-104 1zm176-319c-9-5-20-22-24-37-9-37-23-53-46-53-29 0-23 37 10 71 16 16 40 29 53 29 19-1 20-2 7-10z"
       id="path47" />
    <path
       d="m8570 4711c0-42-66-177-117-240-1-2-14 1-28 7-36 16-73-1-90-41-17-41-10-74 17-82 20-7 64 16 84 44 10 13 17 12 62-7 56-24 116-30 110-10-3 7-18 15-34 19-30 6-94 36-94 44 0 3 16 27 35 53 47 65 97 176 93 204-4 30-38 38-38 9zm-155-272c8-12-23-49-42-49-16 0-17 14-3 41 12 21 35 25 45 8z"
       id="path48" />
    <path
       d="m10586 4605c-38-69-73-125-77-125s-10 30-14 68c-15 152-19 167-40 167-14 0-20-6-19-20 2-34 25-209 31-233 7-29 37-46 61-33 15 8 162 263 166 288 0 4-8 9-19 11-16 2-33-21-89-123z"
       id="path49" />
    <path
       d="m5637 4713c-4-3-7-16-7-27 0-12-13-43-28-71-27-48-29-50-67-47-82 6-135-17-135-58 0-27 27-50 58-50 15 0 50 12 79 26 51 26 53 27 96 10 47-17 107-22 107-7 0 5-24 17-52 25-80 24-85 29-61 62 27 39 57 120 48 133-7 12-28 15-38 4zm-107-189c0-3-16-12-36-20-37-16-63-7-50 15 7 11 86 16 86 5z"
       id="path50" />
    <path
       d="m10215 4660c-39-16-67-57-73-107-2-26-11-52-18-56-22-12-17-48 7-54 20-5 20-11 17-127-2-102-6-127-23-151l-20-30-3 38c-4 53-32 51-32-2 0-22 3-46 6-55 10-26 50-19 72 12 33 46 44 101 40 209l-3 103 45 15c104 36 143 124 81 186-30 29-58 35-96 19zm77-55c16-36 1-74-41-102-55-37-71-32-71 26 0 61 28 101 71 101 22 0 32-7 41-25z"
       id="path51" />
    <path
       d="m3352 4640c-67-41-117-160-93-222 19-51 105-73 180-47 33 12 38 38 5 29-10-3-40-5-66-5-82 0-107 47-69 130 19 42 72 95 96 95 28 0 46-14 60-46 14-35 41-45 51-19 8 20-30 79-61 93-37 17-65 15-103-8z"
       id="path52" />
    <path
       d="m3860 4643c-38-27-68-65-81-102-11-32-9-92 7-267 6-71-4-114-28-114-7 0-9 19-5 60 6 54 5 60-12 60-29 0-44-97-21-141 16-29 64-25 90 9 20 25 22 35 16 117-3 50-9 105-12 123-7 34-7 34 22 19 85-44 154-14 154 66 0 49-25 154-42 174-15 18-59 16-88-4zm79-95c27-124 3-151-90-106-43 21-47 25-42 53 9 45 29 80 65 110 29 25 33 26 44 10 7-10 18-39 23-67z"
       id="path53" />
    <path
       d="m4990 4610c-36-22-81-45-100-51-48-16-57-26-38-45 14-14 18-14 48 1 40 21 46 15 25-25-16-31-14-60 4-60 5 0 22 24 39 53 16 28 48 71 72 94 26 27 40 49 36 58-8 21-13 19-86-25z"
       id="path54" />
    <path
       d="m9590 4614c-121-69-154-156-73-190 59-25 294-17 286 10-2 4-61 8-133 9-104 2-132 5-146 18-15 15-15 19 0 48 18 34 71 73 124 92 26 9 37 8 57-5 33-22 55-20 55 4 0 45-101 53-170 14z"
       id="path55" />
    <path
       d="m7923 4557c-39-34-72-68-72-75-2-26 31-24 61 4 24 22 29 25 24 10-18-52-26-110-16-120 15-15 25 1 45 69 9 32 28 81 41 107 24 48 24 69 1 67-7 0-44-28-84-62z"
       id="path56" />
    <path
       d="m6217 4584c-4-4-7-22-7-41v-33l-82 2c-77 3-83 2-83-17 0-18 8-20 83-23l82-3-5-37c-6-40 6-69 24-58 6 4 11 20 11 36 0 54 7 60 72 60 43 0 59 3 56 13-3 6-15 13-29 15-88 10-90 10-87 50 2 26-1 37-12 39-9 2-19 1-23-3z"
       id="path57" />
    <path
       d="m4472 4558c-17-21 2-40 34-36 21 2 29 8 29 23 0 24-46 33-63 13z"
       id="path58" />
    <path
       d="m8998 4522c-24-28 7-32 160-20 199 16 198 33-2 33-108 0-150-3-158-13z"
       id="path59" />
    <path
       d="m5046 4521c-4-6-4-15-1-21 8-13 222-13 230-1 9 16-8 20-117 27-74 5-107 3-112-5z"
       id="path60" />
    <path
       d="m8032 4483c4-23 33-27 135-18 62 5 83 10 83 21s-22 14-111 14c-100 0-110-2-107-17z"
       id="path61" />
    <path
       d="m9918 4474c-28-15-80-83-92-121-4-12-20-28-36-35-35-15-41-48-9-48 19 0 20-4 14-39-21-126 126-188 151-63 5 26 1 36-24 62-18 18-41 30-56 30-43 0-31 26 49 110 78 82 95 120 53 120-13-1-35-7-50-16zm-13-284c6-20-9-60-23-60s-41 25-43 40c-2 8 2 25 9 38 10 18 17 20 32 12 10-5 21-19 25-30z"
       id="path62" />
    <path
       d="m1700 4469c-62-25-93-97-55-129 21-17 37-2 31 28-3 15-3 32 2 38 21 31 94 44 132 24 25-13 41-65 30-95-5-13-37-47-72-76-35-28-67-58-71-66-14-24 2-62 33-78 54-28 83-13 35 19-14 9-25 23-25 31 0 7 27 37 61 67 91 79 107 123 69 185-33 56-106 77-170 52z"
       id="path63" />
    <path
       d="m9034 4471c-2-2-4-10-4-18 0-17 255-19 265-2 4 6 5 12 4 14-6 5-260 11-265 6z"
       id="path64" />
    <path
       d="m3556 4417c-24-25-47-61-55-87-7-24-21-50-30-57-13-10-14-15-3-32 6-12 12-30 12-41 0-29 27-77 49-90 36-18 70-12 83 15 19 41 0 78-47 93-21 7-41 15-44 17-2 3 28 38 67 80 94 98 107 145 40 145-24 0-41-10-72-43zm74 4c0-11-81-103-87-97-8 8 26 64 53 85 30 23 34 25 34 12zm-62-243c17-17 15-48-2-48-14 0-46 36-46 52 0 12 35 9 48-4z"
       id="path65" />
    <path
       d="m864 4392c-8-4-13-62-15-162-4-150-3-155 16-155 18 0 21 10 31 95 6 52 12 90 13 83 0-7 15-28 32-48 52-58 106-45 143 36l23 49 6-88c3-48 9-95 13-105 8-22 51-19 45 3-3 8-8 78-12 155-3 77-7 141-8 143 0 2-12 2-26 0-22-2-31-16-60-82-19-44-42-87-50-95-15-15-18-14-35 7-10 12-26 46-34 75-24 81-50 110-82 89z"
       id="path66" />
    <path
       d="m1510 4260c-19-5-76-10-127-13-97-6-113-10-113-32 0-24 16-26 117-10 138 22 183 35 183 51 0 15-8 16-60 4z"
       id="path67" />
    <path
       d="m1796 4065c-8-22 21-38 56-31 32 6 58 22 58 36s-108 9-114-5z"
       id="path68" />
    <path
       d="m4890 3878c-17-29-41-88-55-131-70-219-54-392 41-443 45-24 56-9 16 22-39 31-50 50-61 109-19 104 35 340 99 433 35 50 37 62 10 62-13 0-29-17-50-52z"
       id="path69" />
    <path
       d="m8251 3854c-73-83-127-256-138-439-6-121 8-198 47-247 26-34 86-61 116-54 33 9 30 26-5 26-40 0-86 41-107 95-23 62-15 269 15 373 31 107 74 196 115 237 35 35 39 55 11 55-7 0-32-21-54-46z"
       id="path70" />
    <path
       d="m5792 3870c2-5 23-20 48-32 66-34 93-91 87-185-5-88-40-165-102-225-47-45-54-58-31-58 28 0 107 90 139 158 60 127 38 269-52 329-34 23-96 32-89 13z"
       id="path71" />
    <path
       d="m7890 3877c0-20-85-288-101-320-20-38-22-40-35-23-7 11-20 53-29 95-39 182-50 224-63 228-28 11-35-13-19-64 9-26 25-93 37-148 26-124 45-159 87-163 28-3 34 2 57 40 22 39 106 309 106 344 0 7-9 14-20 14s-20-2-20-3z"
       id="path72" />
    <path
       d="m10265 3839c-4-5 9-25 28-44 52-50 71-109 65-200-7-100-49-187-135-274-35-36-63-67-63-68 0-2 7-3 15-3 23 0 109 84 151 148 53 79 77 161 71 247-4 77-23 123-70 173-32 33-51 40-62 21z"
       id="path73" />
    <path
       d="m4352 3783c-23-78-42-327-26-343 21-21 31 12 45 145l15 140 33-65c39-77 58-100 81-100 22 0 55 36 77 85l18 40 5-122c4-98 8-126 22-140 25-24 42-6 28 31-5 15-10 83-10 151 0 140-3 155-34 155-17 0-30-16-59-75-20-41-41-75-47-75-12 0-27 28-65 125-23 59-37 81-51 83-16 2-23-6-32-35z"
       id="path74" />
    <path
       d="m6937 3775c-61-47-112-114-133-177-27-83 3-118 105-118 65 0 151 26 151 46 0 11-5 14-17 9-37-14-128-24-165-19-50 8-56 31-25 97 49 106 187 208 187 138 0-9-7-27-16-40-11-15-13-26-6-33 18-18 46-3 60 34 12 30 12 41 0 65-11 23-20 29-54 31-33 2-48-3-87-33z"
       id="path75" />
    <path
       d="m7412 3789c-33-13-50-63-58-170-4-52-11-100-17-107-7-9-7-16 1-24 18-18 15-221-4-293-22-87-38-95-31-18 5 65-3 84-28 63-19-16-20-129-2-154 33-45 87 21 106 129 6 34 11 109 11 167v105l41 7c113 18 194 105 169 181-23 71-131 137-188 114zm89-58c92-58 84-130-20-183-91-47-95-44-89 65 9 153 26 171 109 118z"
       id="path76" />
    <path
       d="m5727 3773c-4-3-7-17-7-30 0-34-35-119-65-159-22-28-29-32-45-24-26 14-93 13-108-2-7-7-12-21-12-33s5-26 12-33c17-17 73-15 109 4 28 14 32 14 62-5 39-23 97-35 116-22s4 31-26 31c-24 0-93 27-93 37 0 2 11 19 24 36 52 69 85 169 64 194-12 14-21 16-31 6zm-148-242c12-8 9-11-12-17-30-7-43-1-32 15 8 13 25 14 44 2z"
       id="path77" />
    <path
       d="m8565 3690c-14-27-110-116-179-166-30-21-29-44 1-44 9 0 41 24 71 52 31 29 57 48 59 42 2-5-6-36-17-68s-17-62-14-67c10-17 44-10 44 9 0 24 41 145 69 201 26 55 27 71 1 71-11 0-26-12-35-30z"
       id="path78" />
    <path
       d="m5069 3654c-30-26-62-55-72-65-20-21-20-50 0-56 12-4 18 2 54 50 12 15 23 27 25 25s-8-34-22-72c-24-67-24-86-1-86 15 1 101 216 93 235-8 23-18 19-77-31z"
       id="path79" />
    <path
       d="m9322 3641c-24-32-61-73-83-90-41-34-50-58-23-68 10-4 26 6 44 28 36 42 37 33 4-49-17-43-22-68-15-75 14-14 41-1 41 22 0 10 25 76 55 146s52 131 49 136c-12 20-32 6-72-50z"
       id="path80" />
    <path
       d="m3582 3663c-46-23-127-115-148-168-13-36-15-51-6-70 21-46 57-59 168-63l103-4-14-29c-24-45-19-96 10-115 31-20 64-13 107 24 30 26 35 27 58 15 33-17 93-16 137 2 42 18 49 15 33-14-13-25-6-41 19-41 12 0 25 15 38 45l19 45 23-31c30-40 79-69 119-69 38 0 42 15 6 24-47 12-77 39-100 93-28 62-42 65-90 23-43-37-131-64-166-51-29 11-44 39-28 55 15 15 12 48-6 74-20 29-67 29-114 1-31-19-45-21-130-17-97 5-145 19-154 45-15 39 88 180 145 198 37 12 44-11 14-39-23-21-26-28-15-41 18-22 36-19 59 11 27 35 28 90 2 104-27 14-50 12-89-7zm248-291c0-29-38-99-62-116-52-37-77-1-43 64 29 56 105 94 105 52z"
       id="path81" />
    <path
       d="m9603 3658c-4-7-12-38-18-68l-11-55-80-5c-61-4-79-8-79-20s17-16 75-20c72-5 75-6 75-30 0-36 29-32 35 5 4 23 11 31 30 33 66 7 91 14 87 25-2 7-21 10-50 8-43-2-47-1-47 21 1 13 7 41 15 62 8 22 12 43 9 48-8 12-32 10-41-4z"
       id="path82" />
    <path
       d="m10053 3592-51-69-70 1c-78 1-112-17-112-60 0-49 68-57 147-18l51 26 64-21c34-12 91-25 126-28 53-5 62-4 62 11 0 12-9 16-34 16-34 0-196 46-196 55 0 3 20 33 45 67 25 33 44 66 42 71-8 26-28 13-74-51zm-98-111c-10-17-76-34-87-23-18 18 2 32 48 32 25 0 43-4 39-9z"
       id="path83" />
    <path
       d="m6212 3599c3-23 7-24 88-27 119-5 210 6 210 24 0 11-22 14-112 14-62 0-130 3-151 7-37 6-39 5-35-18z"
       id="path84" />
    <path
       d="m5158 3563c-7-9-3-16 18-24 49-19 243 5 221 28-3 2-56 5-117 6-78 2-115-2-122-10z"
       id="path85" />
    <path
       d="m6430 3548c-41-4-108-6-148-3-67 5-73 4-70-12s16-18 103-20c107-3 216 14 223 35 4 13 1 13-108 0z"
       id="path86" />
    <path
       d="m8792 3544c3-18 15-19 156-22 131-2 152 0 152 13 0 12-13 15-63 15-35 0-106 3-156 7-88 6-93 5-89-13z"
       id="path87" />
    <path
       d="m7124 3490c-37-24-80-83-89-122-4-16-13-28-20-28-17 0-24-20-14-40 4-8 11-33 16-54 17-82 95-95 129-22 23 46 12 84-27 98l-30 10 40 43c92 100 88 175-5 115zm-14-85c-7-9-15-13-18-10-3 2 1 11 8 20s15 13 18 10c3-2-1-11-8-20zm-6-111c20-8 21-44 2-69-17-24-43-14-52 21-5 20-2 31 11 41 22 15 19 15 39 7z"
       id="path88" />
    <path
       d="m6729 2833c-45-41-83-109-98-173-20-88 25-132 133-133 56-1 115 17 102 30-3 3-42 6-87 7-72 1-83 4-100 24-13 17-17 32-12 55 16 82 89 187 132 187 24 0 26-12 10-76-9-34-9-48 0-57 21-21 42 16 48 83 5 54 3 65-12 77-33 23-72 16-116-24z"
       id="path89" />
    <path
       d="m5897 2673c-12-12-7-43 7-43 25 0 36-26 62-141 34-155 40-169 74-169 35 0 56 31 104 157 19 50 44 109 55 132 27 51 26 63-1 59-26-3-36-22-98-173-45-110-56-132-65-124-3 3-14 51-24 105-11 54-27 118-36 142-20 50-58 76-78 55z"
       id="path90" />
    <path
       d="m6984 2645c-40-16-98-85-112-132-7-23-20-42-34-48-32-14-30-40 4-40 15-1 35-8 45-17 10-8 25-18 33-20 25-8-121-19-220-17-93 2-130-10-94-29 20-10 233-2 503 21 101 8 146 16 149 25 3 11-21 12-124 7-97-5-125-3-111 5 41 26 4 90-52 90-25 0-25 0 10 38 43 45 69 82 69 99 0 23-33 32-66 18zm7-52c-14-27-71-78-71-65 0 6 14 27 31 47 33 37 57 48 40 18zm-13-139c12-4 22-12 22-19 0-18-37-25-69-14-25 10-25 11-7 25 22 16 23 16 54 8z"
       id="path91" />
    <path
       d="m3958 2623c-13-3-18-14-18-37 0-18-9-78-19-132-29-149-30-159-21-173 19-32 36 0 53 100 30 167 25 159 64 90 19-34 45-69 59-77 22-15 26-15 50 1 14 9 36 40 50 68l24 52v-105c0-111 7-134 35-128 16 3 17 16 16 128-2 145-8 187-27 194-20 8-39-16-79-99-20-41-40-75-45-75s-31 44-57 97c-49 98-54 104-85 96z"
       id="path92" />
    <path
       d="m5352 2598c-7-7-12-21-12-33 0-23-63-159-78-169-5-3-26 1-46 9-53 22-93 19-121-10-31-30-31-54-3-90 19-24 26-27 66-22 24 3 57 14 72 26l28 20 67-34c68-36 142-46 175-25 22 14 7 21-47 24-46 3-144 44-158 66-4 6-1 19 7 28 47 56 103 193 85 211-14 14-20 14-35-1zm-151-228c10-6 19-15 19-19 0-14-67-42-84-35-16 6-22 45-9 57 10 10 52 8 74-3z"
       id="path93" />
    <path
       d="m5642 2572c-44-44-50-116-28-294 15-116 11-188-11-195-19-7-35 45-31 97 3 39 1 45-17 45s-20-7-20-62c0-71 25-116 68-121 54-7 74 80 53 239l-8 66 60 7c32 4 79 17 103 29 36 18 45 27 47 54 5 46-12 69-74 109-71 46-115 53-142 26zm96-41c50-26 82-58 82-81 0-37-78-67-144-54-34 6-36 8-36 45 0 50 24 109 45 109 9 0 32-9 53-19z"
       id="path94" />
    <path
       d="m4502 2478c-19-19-14-36 14-54 21-15 43-16 151-11 69 3 127 8 130 11 18 18-20 26-121 26-100 0-115 2-131 20-21 23-27 24-43 8z"
       id="path95" />
    <path
       d="m7830 2452c-5-2-10-13-10-24 0-19 4-20 103-13 186 13 230 19 235 33 3 11-27 13-157 10-88-2-165-4-171-6z"
       id="path96" />
    <path
       d="m6340 2400c0-35 65-55 77-24 8 21-21 44-54 44-16 0-23-6-23-20z"
       id="path97" />
    <path
       d="m7855 2380c-4-7-3-16 3-22 25-25 292-20 292 6 0 8-32 12-107 13-60 1-124 5-144 8-23 4-40 2-44-5z"
       id="path98" />
    <path
       d="m4504 2349c-3-6-1-16 4-21 14-14 312-17 312-3 0 6-28 11-62 13-35 1-96 7-136 12-93 13-109 13-118-1z"
       id="path99" />
    <path
       d="m6708 2267c-54-33-80-72-86-127-4-47-3-50 29-70 29-18 46-21 122-18 76 4 87 2 87-12 0-40 79-66 119-41 8 5 27 3 48-6 26-10 43-12 63-4 22 7 30 6 34-5 11-29 37-13 63 40l26 54 37-39c30-32 44-39 74-39 46 0 44 20-2 32-25 7-38 20-57 58-15 29-32 50-41 50-16 0-84-64-84-79 0-9-55-41-72-41-33 1-40 16-25 51 10 24 11 42 5 59-11 30-25 40-61 40-35 0-63-14-102-51-60-56-225-47-225 13 0 52 66 118 117 118 10 0 26-9 36-20 21-24 36-25 44-3 9 24-40 63-80 63-18 0-49-10-69-23zm292-151c0-28-30-85-48-90-53-17-69 30-25 76 28 29 73 38 73 14z"
       id="path100" />
    <path
       d="m8403 1437c-52-101-64-133-57-152 8-20 64-29 108-17 35 10 37 10 30-11-13-37-10-72 5-72 16 0 85 181 77 202-7 18-43 16-50-3-3-9-6-26-6-39 0-25-8-29-77-40-29-5-43-3-43 4 0 6 20 52 45 101 50 100 53 110 28 110-12 0-32-27-60-83z"
       id="path101" />
    <path
       d="m6216 1494c-4-10 3-18 24-26 35-12 38-23 10-38-30-16-24-43 12-65l33-19-35-9c-80-20-62-54 19-35 70 16 82 39 41 77-27 24-29 29-15 41 21 18 19 37-10 65-27 28-70 33-79 9z"
       id="path102" />
    <path
       d="m7715 1486c-25-18-9-39 24-33 45 9 58-8 22-29-45-27-40-48 19-73 59-26 64-41 13-41-44 0-69-13-59-29 9-14 69-14 119 0 60 16 47 54-31 93l-33 17 25 20c14 11 26 27 26 34 0 33-94 64-125 41z"
       id="path103" />
    <path
       d="m8680 1445c-19-22-2-36 35-29 26 4 35 2 43-12 15-26-1-50-51-75-23-12-50-28-59-37-22-19-23-48-2-56 43-16 189 6 185 29-1 6-31 9-74 7l-72-2 47 25c82 44 97 87 49 136-32 32-80 39-101 14z"
       id="path104" />
    <path
       d="m9199 1435c-33-18-39-34-46-110-7-82 12-100 106-100 132 1 219 86 166 162-19 27-113 63-163 63-20-1-49-7-63-15zm155-43c40-23 54-47 40-69-22-35-63-56-119-61-82-7-108 26-65 81 23 28 26 57 8 58-7 0-4 4 7 9 27 13 93 3 129-18z"
       id="path105" />
    <path
       d="m8910 1400c-44-47-69-140-44-164 31-32 126-7 193 50 58 50 52 102-14 130-58 24-103 18-135-16zm135-31c27-26 13-47-55-81-84-44-107-36-75 26 8 15 15 37 15 47 0 41 75 47 115 8z"
       id="path106" />
    <path
       d="m7424 1369c-13-22 27-39 95-39 36 0 76 3 89 6 40 11 18 27-40 29-31 2-74 6-96 10-27 4-42 2-48-6z"
       id="path107" />
    <path
       d="m10401 1332c-68-67-110-307-63-354 15-15 59-13 78 2 69 58 121 296 78 358-21 30-59 28-93-6zm73-92c-14-116-75-253-105-234-12 7-11 114 1 114 6 0 10 20 10 44 0 28 7 52 19 68 12 15 18 33 15 45-4 14 2 26 18 37 21 15 24 15 36-1 9-13 11-35 6-73z"
       id="path108" />
    <path
       d="m10695 1270c-29-58-31-77-9-108 25-35 59-44 101-27 43 18 43 18 43 1 0-15-87-116-100-116-4 0-11 11-14 25-7 26-39 35-51 15s7-71 30-82c31-14 73 9 119 65 50 61 69 109 52 132-13 18-13 18-105-1-23-5-30-2-36 15-3 11 1 33 9 49 13 25 23 30 68 35 29 4 77 7 106 7 38 0 52 4 52 14 0 22-23 26-136 26h-104z"
       id="path109" />
    <path
       d="m4025 1288c-27-15-31-23-55-100-26-85-25-113 2-132 32-23 65-20 116 10 49 29 81 85 82 142 0 68-84 115-145 80zm83-34c47-33 18-131-50-168-69-37-85 1-48 109 27 78 51 92 98 59z"
       id="path110" />
    <path
       d="m5932 1287c-12-14-62-205-62-236 0-14 6-21 20-21 24 0 42 32 35 62-3 13 8 61 24 108s27 88 24 93c-7 11-29 8-41-6z"
       id="path111" />
    <path
       d="m11090 1283c-67-35-115-189-76-248 36-54 136-17 136 50 0 41-27 60-71 50-34-8-37 4-14 58 31 75 105 89 164 30 17-17 37-2 28 21-18 46-111 68-167 39zm8-219c-8-9-23-14-32-12-15 3-15 6 5 26 15 17 24 21 32 13s7-16-5-27z"
       id="path112" />
    <path
       d="m6039 1266c-33-23-37-30-43-87-13-131-3-159 56-159 65 0 150 102 152 182s-89 115-165 64zm110-22c19-14 22-23 17-52-11-71-100-162-129-133-15 15 8 159 30 183 20 22 51 23 82 2z"
       id="path113" />
    <path
       d="m4324 1270c-30-12-39-28-41-80-1-25-5-71-9-102-8-68 3-88 48-88 64 0 127 66 135 142 6 57-9 94-49 118-36 22-51 23-84 10zm78-47c24-29 29-53 17-96-12-46-58-97-87-97-36 0-38 44-4 123 13 32 13 40 2 47-7 4-10 15-7 24 9 22 60 21 79-1z"
       id="path114" />
    <path
       d="m5015 1273c-26-6-55-32-55-49 0-8-9-28-20-46-29-47-27-119 4-154 28-33 79-38 120-11 62 41 104 154 77 206-21 38-81 64-126 54zm73-49c43-30 20-133-39-175-58-41-100-4-85 75 6 32 10 35 31 30 25-6 35 9 15 21-11 7-14 48-3 58 12 12 58 7 81-9z"
       id="path115" />
    <path
       d="m5349 1261c-23-19-23-21-7-37 17-17 19-17 38 4 24 26 43 28 60 7 16-19-10-62-79-130-58-56-66-90-25-105 34-13 78-13 125 2 64 19 49 37-25 31-38-3-66-1-70 5-3 5 21 40 54 76 68 75 80 105 56 141-13 20-25 25-60 25-29 0-52-7-67-19z"
       id="path116" />
    <path
       d="m4565 1246c-37-37-67-105-72-165-5-49-2-59 17-76 34-31 102-27 136 7 54 54 26 124-54 135-48 6-46 17 10 72 27 26 30 34 18 41-22 14-28 12-55-14zm59-152c20-19 20-24 0-52-12-17-24-22-46-20-43 4-56 29-35 62 20 30 57 34 81 10z"
       id="path117" />
    <path
       d="m7221 1237c-15-40-49-161-56-198-4-23-3-39 5-44 13-8 42 13 34 26-3 5 11 56 31 115 19 58 33 110 29 115-10 17-34 9-43-14z"
       id="path118" />
    <path
       d="m3603 1243c-35-3-43-8-43-24 0-15 7-19 38-19 54 0 225 19 231 26 21 20-92 29-226 17z"
       id="path119" />
    <path
       d="m6723 1243c-24-5-38-32-24-46 5-5 22-4 44 4 31 11 39 10 61-5 23-14 25-20 15-38-16-30-61-67-133-109-70-40-81-64-39-80 31-12 154-6 197 11 50 19 29 30-43 24-102-10-117 0-55 36 61 35 124 102 124 133 0 48-78 85-147 70z"
       id="path120" />
    <path
       d="m7359 1223c-23-3-27-10-33-50-22-162 10-217 94-160 67 44 101 155 61 191-20 18-77 27-122 19zm99-56c6-31-7-65-39-102-50-57-63-48-54 37 3 40 9 76 12 81 3 4 21 7 41 5 26-2 38-8 40-21z"
       id="path121" />
    <path
       d="m9824 1216c-11-29 4-46 39-46 89 0 187 13 187 26 0 9-24 14-77 17-43 3-93 8-110 12-25 6-34 4-39-9z"
       id="path122" />
    <path
       d="m11447 1193c-4-4-5-21-1-38 3-17-2-61-10-99-9-37-14-72-10-77 11-18 35-8 53 22 11 18 22 26 25 20 13-20 70-11 125 19 30 17 56 30 58 30s3-15 1-32c-3-29 0-33 22-33 21 0 25 5 28 30 1 17 7 47 14 68 9 31 9 40-2 47-12 8 60 17 183 23 26 1 47 7 47 12 0 14-245 19-270 5-13-7-20-21-20-40 0-20-8-35-29-50-33-23-101-53-107-47-2 2 12 22 31 44 19 23 35 46 35 52 0 23-48 9-90-26l-43-37 7 43c4 28 2 48-5 57-12 15-31 18-42 7z"
       id="path123" />
    <path
       d="m3620 1162c0-15 9-21 40-26 47-7 180 3 180 15 0 14-13 16-117 24-98 6-103 6-103-13z"
       id="path124" />
    <path
       d="m4800 1165c-19-22-8-50 21-53s44 18 34 49c-7 23-38 25-55 4z"
       id="path125" />
    <path
       d="m5676 1164c-4-10-1-24 7-31 19-19 49-5 45 21-4 27-43 34-52 10z"
       id="path126" />
    <path
       d="m6467 1165c-20-20-12-42 16-47 42-7 58 2 55 30-2 21-9 28-29 30-15 2-34-4-42-13z"
       id="path127" />
    <path
       d="m8034 1135c-4-9-2-21 4-27 16-16 47-5 47 17 0 26-42 34-51 10z"
       id="path128" />
    <path
       d="m9080 1140c-184-4-438-8-563-9-195-1-228-3-234-16-3-9-3-19 0-22 4-3 156-1 339 5 183 7 465 15 626 18 208 5 292 10 289 18-5 14-41 14-457 6z"
       id="path129" />
    <path
       d="m7004 1115c-9-24 10-39 41-31 18 5 25 12 23 24-4 23-56 29-64 7z"
       id="path130" />
    <path
       d="m9796 1091c-11-17 5-39 37-53 40-16 150-16 200 1 62 21 43 31-50 25-77-5-93-3-128 15-44 23-51 25-59 12z"
       id="path131" />
    <path
       d="m5155 1078c-2-7-9-43-16-79-12-64-9-99 8-99 9 0 53 145 53 173 0 20-39 24-45 5z"
       id="path132" />
    <path
       d="m4133 1058c-12-15-33-75-33-94 0-25 29-14 55 20 29 38 31 79 4 84-9 1-20-3-26-10z"
       id="path133" />
    <path
       d="m8553 1030c-25-15-33-27-33-49 0-37 38-63 102-69 26-2 48-9 48-13 0-5-24-35-54-66-51-52-56-54-71-39-22 22-30 20-54-10-25-32-26-47-6-64 21-18 55-6 112 40 110 87 165 219 112 269-31 28-111 29-156 1zm118-20c12-7 19-21 19-40 0-26-4-30-27-30-32 0-96 30-96 45 0 13 42 35 66 35 10 0 27-5 38-10z"
       id="path134" />
    <path
       d="m8932 1035c-17-8-39-22-50-32-10-10-27-23-38-29-52-30-105-195-71-221 75-59 198 44 237 200 19 74-14 108-78 82zm40-64c-5-64-73-171-122-191-33-14-50-7-50 20 0 23 20 70 31 70 4 0 19 20 33 44 29 49 82 99 100 93 6-2 10-19 8-36z"
       id="path135" />
    <path
       d="m9180 1029c-14-6-36-20-49-32-28-26-91-152-91-184s26-53 66-53c139 0 285 191 198 259-29 23-82 27-124 10zm98-41c33-33-5-104-83-156-61-41-112-42-107-2 2 14 8 27 13 28 5 2 9 10 9 18s16 31 35 53c19 21 35 43 35 49 0 22 78 30 98 10z"
       id="path136" />
    <path
       d="m10477 974c-3-4 0-16 8-27 19-27 4-61-52-119-26-26-44-50-41-54 23-23 134 77 144 130 3 19 1 43-5 55-11 20-41 28-54 15z"
       id="path137" />
  </g>
  <g
     fill="#4444bb"
     transform="matrix(0.04461606,0,0,-0.04461606,-25.752777,626.58341)"
     id="g145">
    <path
       d="m 750,2973 c -57,-10 -88,-25 -119,-57 -40,-41 -55,-100 -46,-179 6,-45 12,-61 32,-77 32,-25 35,-25 64,-1 22,17 24,26 21,89 -4,105 24,120 164,87 33,-7 119,-19 190,-25 88,-8 134,-16 144,-26 32,-32 8,-420 -28,-456 -18,-18 -126,-28 -289,-28 -185,0 -206,-4 -250,-52 -55,-58 -58,-82 -55,-363 1,-145 7,-274 13,-293 11,-34 51,-62 89,-62 12,0 35,14 52,31 l 31,30 -6,238 c -3,130 -3,249 0,264 l 5,27 h 112 c 234,1 363,26 423,82 58,54 98,260 91,463 -4,122 -7,138 -34,191 -40,81 -79,100 -217,108 -174,10 -361,14 -387,9 z"
       id="path138" />
    <path
       d="m 3660,2971 c -42,-9 -83,-34 -103,-65 -39,-59 -50,-127 -54,-343 -5,-206 -5,-212 18,-252 28,-50 78,-86 143,-102 48,-12 257,-8 370,7 l 49,7 -7,-104 c -4,-57 -11,-189 -16,-294 -9,-177 -9,-192 8,-214 35,-47 100,-46 136,2 22,29 27,86 42,452 7,191 0,235 -44,283 -45,48 -92,56 -241,38 -146,-18 -229,-20 -265,-6 l -26,10 v 162 c 0,156 8,230 27,249 5,5 99,6 210,2 l 201,-6 5,-50 c 3,-39 11,-56 31,-74 34,-29 48,-29 80,0 24,20 26,30 28,113 4,147 -23,169 -218,179 -242,11 -340,13 -374,6 z"
       id="path139" />
    <path
       d="m 1565,2945 c -14,-13 -25,-32 -25,-42 0,-10 -1,-297 -3,-638 -2,-677 -3,-662 55,-694 33,-19 73,-7 101,31 18,24 20,51 29,300 5,150 10,278 12,283 2,6 37,8 97,3 52,-3 135,-7 186,-7 154,-2 161,-10 143,-176 -21,-189 -27,-310 -18,-343 12,-45 45,-72 86,-72 71,0 102,46 102,151 0,33 7,118 16,187 24,190 9,280 -58,349 -50,52 -112,67 -263,65 -71,-1 -164,-6 -205,-11 -41,-4 -78,-7 -81,-5 -4,2 -10,108 -13,236 -9,286 -17,352 -47,384 -31,33 -82,32 -114,-1 z"
       id="path140" />
    <path
       d="m 2542,2944 c -55,-38 -64,-109 -53,-419 6,-186 9,-215 28,-250 50,-95 116,-125 302,-135 75,-4 171,-5 215,-1 l 78,7 -4,-178 c -2,-97 -7,-181 -11,-184 -4,-4 -42,1 -85,11 -104,26 -285,27 -363,3 -106,-33 -149,-107 -99,-170 26,-34 68,-41 132,-21 74,23 202,20 308,-7 182,-47 274,5 301,168 12,77 27,831 19,994 -7,152 -20,181 -86,186 -88,7 -103,-51 -104,-401 v -219 l -201,4 c -197,3 -201,3 -220,27 -18,21 -19,42 -19,283 v 260 l -29,29 c -33,33 -74,38 -109,13 z"
       id="path141" />
    <path
       d="m 2374,1391 c -55,-34 -79,-78 -79,-147 0,-51 4,-66 27,-96 35,-45 102,-73 153,-64 78,15 146,111 131,188 -20,108 -145,172 -232,119 z"
       id="path142" />
    <path
       d="m 1853,999 c -39,-11 -66,-56 -61,-101 6,-59 69,-64 76,-6 4,30 34,38 145,38 h 67 V 820 c 0,-135 -1,-136 -132,-126 -85,6 -89,6 -113,-18 -24,-25 -25,-28 -25,-179 0,-162 4,-177 47,-177 35,0 43,29 43,159 v 121 h 73 c 85,0 141,14 168,41 17,17 19,34 19,169 0,147 -1,152 -25,175 -23,24 -30,25 -137,24 -62,0 -128,-5 -145,-10 z"
       id="path143" />
    <path
       d="m 2985,1000 c -91,-16 -93,-18 -104,-58 -15,-51 -14,-537 0,-564 19,-36 69,-48 204,-48 121,0 127,1 151,25 l 24,24 -2,292 -3,292 -26,19 c -31,23 -161,33 -244,18 z m 169,-86 c 14,-5 16,-37 16,-250 V 419 l -102,3 -103,3 v 240 240 l 40,6 c 57,9 131,10 149,3 z"
       id="path144" />
    <path
       d="m 2351,971 c -24,-24 -29,-73 -37,-372 -6,-232 -6,-237 15,-258 23,-23 29,-25 51,-11 12,7 16,40 20,150 l 5,141 35,-23 c 19,-13 59,-55 88,-93 30,-39 78,-96 108,-128 47,-51 56,-57 74,-47 29,16 25,42 -15,92 -19,24 -62,78 -95,121 -61,77 -61,77 -33,77 15,0 46,9 69,19 56,26 67,57 62,179 -6,156 -27,172 -220,172 -93,0 -111,-3 -127,-19 z m 257,-74 c 16,-13 17,-168 0,-185 -7,-7 -41,-12 -84,-12 -40,0 -84,-4 -98,-10 l -26,-10 v 120 119 l 98,-6 c 53,-3 103,-10 110,-16 z"
       id="path145" />
  </g>
</svg>
