<?xml version="1.0" encoding="UTF-8" standalone="no"?>
<svg
   width="374.40637pt"
   height="304.85107pt"
   viewBox="0 0 374.40636 304.85108"
   version="1.1"
   id="svg52"
   sodipodi:docname="190t.svg"
   xmlns:inkscape="http://www.inkscape.org/namespaces/inkscape"
   xmlns:sodipodi="http://sodipodi.sourceforge.net/DTD/sodipodi-0.dtd"
   xmlns:xlink="http://www.w3.org/1999/xlink"
   xmlns="http://www.w3.org/2000/svg"
   xmlns:svg="http://www.w3.org/2000/svg"
   xmlns:rdf="http://www.w3.org/1999/02/22-rdf-syntax-ns#"
   xmlns:cc="http://creativecommons.org/ns#"
   xmlns:dc="http://purl.org/dc/elements/1.1/">
  <sodipodi:namedview
     id="namedview52"
     pagecolor="#ffffff"
     bordercolor="#000000"
     borderopacity="0.25"
     inkscape:showpageshadow="2"
     inkscape:pageopacity="0.0"
     inkscape:pagecheckerboard="0"
     inkscape:deskcolor="#d1d1d1"
     inkscape:document-units="pt" />
  <metadata
     id="metadata1">
    <rdf:RDF>
      <cc:Work>
        <dc:type
           rdf:resource="http://purl.org/dc/dcmitype/StillImage" />
        <dc:date>2024-01-25T14:20:04.109934</dc:date>
        <dc:format>image/svg+xml</dc:format>
        <dc:creator>
          <cc:Agent>
            <dc:title>Matplotlib v3.7.1, https://matplotlib.org/</dc:title>
          </cc:Agent>
        </dc:creator>
      </cc:Work>
    </rdf:RDF>
  </metadata>
  <defs
     id="defs1">
    <style
       type="text/css"
       id="style1">*{stroke-linejoin: round; stroke-linecap: butt}</style>
  </defs>
  <g
     id="figure_1"
     transform="translate(-6.0890625,-13.978125)">
    <g
       id="axes_1">
      <g
         id="line2d_1">
        <path
           d="M 101.48056,283.90106 V 59.017682"
           style="fill:none;stroke:#777777;stroke-width:0.9;stroke-linecap:square"
           id="path3" />
      </g>
      <g
         id="line2d_2">
        <path
           d="M 138.96113,283.90106 V 59.017682"
           style="fill:none;stroke:#777777;stroke-width:0.9;stroke-linecap:square"
           id="path4" />
      </g>
      <g
         id="line2d_3">
        <path
           d="M 176.44169,283.90106 V 59.017682"
           style="fill:none;stroke:#777777;stroke-width:0.9;stroke-linecap:square"
           id="path5" />
      </g>
      <g
         id="line2d_4">
        <path
           d="M 213.92225,283.90106 V 59.017682"
           style="fill:none;stroke:#777777;stroke-width:0.9;stroke-linecap:square"
           id="path6" />
      </g>
      <g
         id="line2d_5">
        <path
           d="M 251.40282,283.90106 V 59.017682"
           style="fill:none;stroke:#777777;stroke-width:0.9;stroke-linecap:square"
           id="path7" />
      </g>
      <g
         id="line2d_6">
        <path
           d="M 288.88338,283.90106 V 59.017682"
           style="fill:none;stroke:#777777;stroke-width:0.9;stroke-linecap:square"
           id="path8" />
      </g>
      <g
         id="line2d_7">
        <path
           d="M 64,246.4205 H 288.88338"
           style="fill:none;stroke:#777777;stroke-width:0.9;stroke-linecap:square"
           id="path9" />
      </g>
      <g
         id="line2d_8">
        <path
           d="M 64,208.93994 H 288.88338"
           style="fill:none;stroke:#777777;stroke-width:0.9;stroke-linecap:square"
           id="path10" />
      </g>
      <g
         id="line2d_9">
        <path
           d="M 64,171.45937 H 288.88338"
           style="fill:none;stroke:#777777;stroke-width:0.9;stroke-linecap:square"
           id="path11" />
      </g>
      <g
         id="line2d_10">
        <path
           d="M 64,133.97881 H 288.88338"
           style="fill:none;stroke:#777777;stroke-width:0.9;stroke-linecap:square"
           id="path12" />
      </g>
      <g
         id="line2d_11">
        <path
           d="M 64,96.498246 H 288.88338"
           style="fill:none;stroke:#777777;stroke-width:0.9;stroke-linecap:square"
           id="path13" />
      </g>
      <g
         id="line2d_12">
        <path
           d="M 64,59.017682 H 288.88338"
           style="fill:none;stroke:#777777;stroke-width:0.9;stroke-linecap:square"
           id="path14" />
      </g>
      <g
         id="matplotlib.axis_1">
        <g
           id="xtick_1">
          <g
             id="line2d_13">
            <defs
               id="defs14">
              <path
                 id="mfb9f2494b9"
                 d="M 0,0 V 6.5"
                 style="stroke:#000000;stroke-width:2" />
            </defs>
            <g
               id="g14">
              <use
                 xlink:href="#mfb9f2494b9"
                 x="138.96112"
                 y="283.90106"
                 style="stroke:#000000;stroke-width:2"
                 id="use14" />
            </g>
          </g>
          <g
             id="text_1">
            <!-- 1 -->
            <g
               transform="matrix(0.3,0,0,-0.3,131.53613,315.07919)"
               id="g15">
              <defs
                 id="defs15">
                <path
                   id="STIXTwoText-Regular-31"
                   d="m 2726,0 v 179 c -588,0 -825,115 -825,429 V 4090 H 1715 L 474,3738 v -212 c 198,64 524,103 652,103 160,0 212,-90 212,-314 V 608 C 1338,288 1114,179 512,179 V 0 Z"
                   transform="scale(0.015625)" />
              </defs>
              <use
                 xlink:href="#STIXTwoText-Regular-31"
                 id="use15" />
            </g>
          </g>
        </g>
        <g
           id="xtick_2">
          <g
             id="line2d_14">
            <g
               id="g16">
              <use
                 xlink:href="#mfb9f2494b9"
                 x="213.92226"
                 y="283.90106"
                 style="stroke:#000000;stroke-width:2"
                 id="use16" />
            </g>
          </g>
          <g
             id="text_2">
            <!-- 2 -->
            <g
               transform="matrix(0.3,0,0,-0.3,206.49725,315.07919)"
               id="g17">
              <defs
                 id="defs16">
                <path
                   id="STIXTwoText-Regular-32"
                   d="m 2765,0 205,1024 H 2784 C 2637,640 2554,506 2214,506 H 1325 L 877,486 v 32 l 845,800 c 678,685 1043,1127 1043,1696 0,672 -506,1108 -1229,1108 -621,0 -1056,-359 -1254,-980 l 153,-64 c 237,480 519,628 935,628 492,0 800,-308 800,-788 0,-672 -320,-1075 -954,-1728 L 243,218 V 0 Z"
                   transform="scale(0.015625)" />
              </defs>
              <use
                 xlink:href="#STIXTwoText-Regular-32"
                 id="use17" />
            </g>
          </g>
        </g>
        <g
           id="xtick_3">
          <g
             id="line2d_15">
            <g
               id="g18">
              <use
                 xlink:href="#mfb9f2494b9"
                 x="288.88339"
                 y="283.90106"
                 style="stroke:#000000;stroke-width:2"
                 id="use18" />
            </g>
          </g>
          <g
             id="text_3">
            <!-- 3 -->
            <g
               transform="matrix(0.3,0,0,-0.3,281.45838,315.07919)"
               id="g19">
              <defs
                 id="defs18">
                <path
                   id="STIXTwoText-Regular-33"
                   d="m 1094,-83 c 935,0 1748,448 1748,1325 0,569 -429,908 -941,1068 v 20 c 403,256 691,492 691,934 0,486 -378,858 -1030,858 -525,0 -922,-295 -1159,-852 l 147,-83 c 218,339 455,519 839,519 397,0 653,-218 653,-596 0,-518 -455,-870 -890,-870 h -122 v -243 h 128 c 615,0 1159,-378 1159,-947 C 2317,422 1926,237 1523,237 1197,237 883,550 627,550 461,550 378,403 378,269 378,102 518,-83 1094,-83 Z"
                   transform="scale(0.015625)" />
              </defs>
              <use
                 xlink:href="#STIXTwoText-Regular-33"
                 id="use19" />
            </g>
          </g>
        </g>
        <g
           id="xtick_4">
          <g
             id="line2d_16" />
          <g
             id="text_4">
            <!-- $t,\rm{с}$ -->
            <g
               transform="matrix(0.3,0,0,-0.3,346.44451,315.07919)"
               id="g22">
              <defs
                 id="defs19">
                <path
                   id="STIXTwoText-Italic-74"
                   d="m 736,-58 c 506,0 774,474 960,724 l -128,96 C 1344,474 1210,378 1024,378 c -90,0 -109,64 -109,134 0,109 45,320 45,320 l 390,1907 h 634 l 51,250 h -633 l 166,806 H 1376 C 1056,3238 896,3085 486,2874 L 461,2739 H 826 L 390,646 C 378,582 346,390 346,282 346,83 467,-58 736,-58 Z"
                   transform="scale(0.015625)" />
                <path
                   id="STIXTwoText-Regular-2c"
                   d="m 448,-845 c 256,115 794,333 794,1056 0,352 -173,563 -493,563 C 493,774 352,602 352,397 352,211 454,51 704,51 c 70,0 128,13 198,39 0,-519 -294,-672 -531,-775 z"
                   transform="scale(0.015625)" />
                <path
                   id="STIXTwoText-Regular-441"
                   d="M 2611,947 C 2323,576 2106,416 1690,416 c -660,0 -973,550 -973,1331 0,736 313,1120 832,1120 550,0 339,-729 813,-729 179,0 268,102 268,288 0,371 -371,678 -972,678 C 736,3104 211,2451 211,1446 211,557 691,-64 1491,-64 c 685,0 999,403 1242,922 z"
                   transform="scale(0.015625)" />
              </defs>
              <use
                 xlink:href="#STIXTwoText-Italic-74"
                 transform="translate(0,0.703125)"
                 id="use20" />
              <use
                 xlink:href="#STIXTwoText-Regular-2c"
                 transform="translate(29.799988,0.703125)"
                 id="use21" />
              <use
                 xlink:href="#STIXTwoText-Regular-441"
                 transform="translate(70.799969,0.703125)"
                 id="use22" />
            </g>
          </g>
        </g>
        <g
           id="xtick_5">
          <g
             id="line2d_17" />
          <g
             id="text_5">
            <!-- $0$ -->
            <g
               transform="matrix(0.3,0,0,-0.3,41.507775,315.07919)"
               id="g23">
              <defs
                 id="defs22">
                <path
                   id="STIXTwoText-Regular-30"
                   d="m 1581,-70 c 1005,0 1414,1004 1414,2099 0,1318 -576,2080 -1401,2080 C 666,4109 173,3264 173,2048 173,915 550,-70 1581,-70 Z m 0,230 c -512,0 -794,614 -794,1856 0,1267 282,1875 787,1875 525,0 800,-601 800,-1901 C 2374,762 2086,160 1581,160 Z"
                   transform="scale(0.015625)" />
              </defs>
              <use
                 xlink:href="#STIXTwoText-Regular-30"
                 transform="translate(0,0.796875)"
                 id="use23" />
            </g>
          </g>
        </g>
      </g>
      <g
         id="matplotlib.axis_2">
        <g
           id="ytick_1">
          <g
             id="line2d_18">
            <defs
               id="defs23">
              <path
                 id="m3a616485e4"
                 d="M 0,0 H -6.5"
                 style="stroke:#000000;stroke-width:2" />
            </defs>
            <g
               id="g24">
              <use
                 xlink:href="#m3a616485e4"
                 x="64"
                 y="208.93994"
                 style="stroke:#000000;stroke-width:2"
                 id="use24" />
            </g>
          </g>
          <g
             id="text_6">
            <!-- 200 -->
            <g
               transform="matrix(0.3,0,0,-0.3,9.45,219.529)"
               id="g27">
              <use
                 xlink:href="#STIXTwoText-Regular-32"
                 id="use25" />
              <use
                 xlink:href="#STIXTwoText-Regular-30"
                 x="49.499985"
                 id="use26" />
              <use
                 xlink:href="#STIXTwoText-Regular-30"
                 x="98.999969"
                 id="use27" />
            </g>
          </g>
        </g>
        <g
           id="ytick_2">
          <g
             id="line2d_19">
            <g
               id="g28">
              <use
                 xlink:href="#m3a616485e4"
                 x="64"
                 y="133.97881"
                 style="stroke:#000000;stroke-width:2"
                 id="use28" />
            </g>
          </g>
          <g
             id="text_7">
            <!-- 400 -->
            <g
               transform="matrix(0.3,0,0,-0.3,9.45,144.56787)"
               id="g31">
              <defs
                 id="defs28">
                <path
                   id="STIXTwoText-Regular-34"
                   d="m 2426,0 v 1011 h 652 v 442 H 2426 V 4128 H 2035 L 83,1414 V 1011 H 1856 V 0 Z M 435,1478 1830,3430 h 26 V 1453 H 435 Z"
                   transform="scale(0.015625)" />
              </defs>
              <use
                 xlink:href="#STIXTwoText-Regular-34"
                 id="use29" />
              <use
                 xlink:href="#STIXTwoText-Regular-30"
                 x="49.499985"
                 id="use30" />
              <use
                 xlink:href="#STIXTwoText-Regular-30"
                 x="98.999969"
                 id="use31" />
            </g>
          </g>
        </g>
        <g
           id="ytick_3">
          <g
             id="line2d_20">
            <g
               id="g32">
              <use
                 xlink:href="#m3a616485e4"
                 x="64"
                 y="59.017681"
                 style="stroke:#000000;stroke-width:2"
                 id="use32" />
            </g>
          </g>
          <g
             id="text_8">
            <!-- 600 -->
            <g
               transform="matrix(0.3,0,0,-0.3,9.45,69.606745)"
               id="g35">
              <defs
                 id="defs32">
                <path
                   id="STIXTwoText-Regular-36"
                   d="m 1658,-77 c 806,0 1267,506 1267,1376 0,839 -455,1344 -1152,1344 -333,0 -570,-141 -832,-397 l -45,7 c 160,934 877,1561 1773,1696 l -13,185 C 1280,4077 288,3187 288,1645 288,704 704,-77 1658,-77 Z m 25,224 c -557,0 -819,570 -819,1363 0,557 346,762 717,762 531,0 787,-448 787,-1024 0,-813 -256,-1101 -685,-1101 z"
                   transform="scale(0.015625)" />
              </defs>
              <use
                 xlink:href="#STIXTwoText-Regular-36"
                 id="use33" />
              <use
                 xlink:href="#STIXTwoText-Regular-30"
                 x="49.499985"
                 id="use34" />
              <use
                 xlink:href="#STIXTwoText-Regular-30"
                 x="98.999969"
                 id="use35" />
            </g>
          </g>
        </g>
        <g
           id="ytick_4">
          <g
             id="line2d_21" />
          <g
             id="text_9">
            <!-- $x,\rm{м}$ -->
            <g
               transform="matrix(0.3,0,0,-0.3,7.2,28.378125)"
               id="g38">
              <defs
                 id="defs35">
                <path
                   id="STIXTwoText-Italic-78"
                   d="m 2067,-64 c 416,0 698,442 877,717 L 2810,755 C 2656,550 2522,397 2355,397 c -217,0 -333,249 -512,825 l -134,436 390,620 c 109,180 205,269 339,269 109,0 224,-64 346,-64 147,0 288,90 288,307 0,173 -90,276 -314,276 -403,0 -646,-333 -812,-621 l -314,-538 h -19 l -77,327 c -83,345 -211,627 -365,806 h -96 L 205,2938 v -192 c 83,12 141,19 211,19 384,0 506,-173 672,-704 L 1267,1472 806,806 C 557,448 442,442 416,442 c -102,0 -269,83 -397,83 -160,0 -256,-135 -256,-275 0,-148 96,-308 371,-308 384,0 596,301 800,634 l 410,666 h 26 l 160,-647 c 102,-416 224,-659 537,-659 z"
                   transform="scale(0.015625)" />
                <path
                   id="STIXTwoText-Regular-43c"
                   d="m 1331,0 v 179 c -371,0 -454,45 -454,512 v 1754 h 25 L 2029,0 h 128 l 1094,2490 h 19 V 576 c 0,-320 -19,-397 -422,-397 V 0 h 1414 v 179 c -390,0 -454,83 -454,397 v 1850 c 0,358 96,416 454,416 v 185 H 3206 L 2234,832 h -20 L 1235,3027 H 128 v -185 c 397,0 461,-58 461,-410 V 691 C 589,224 525,179 115,179 V 0 Z"
                   transform="scale(0.015625)" />
              </defs>
              <use
                 xlink:href="#STIXTwoText-Italic-78"
                 transform="translate(0,0.09375)"
                 id="use36" />
              <use
                 xlink:href="#STIXTwoText-Regular-2c"
                 transform="translate(45.299988,0.09375)"
                 id="use37" />
              <use
                 xlink:href="#STIXTwoText-Regular-43c"
                 transform="translate(86.299969,0.09375)"
                 id="use38" />
            </g>
          </g>
        </g>
      </g>
      <g
         id="line2d_22">
        <path
           d="m 64,208.93994 0.378592,0.37859 0.378591,0.37859 0.378592,0.37859 0.378591,0.37859 0.378592,0.37859 0.378591,0.37859 0.378592,0.3786 0.378591,0.37859 0.378592,0.37859 0.378591,0.37859 0.378592,0.37859 0.378592,0.37859 0.378591,0.3786 0.378592,0.37859 0.378591,0.37859 0.378592,0.37859 0.378591,0.37859 0.378592,0.37859 0.378591,0.37859 0.378592,0.3786 0.378592,0.37859 0.378591,0.37859 0.378592,0.37859 0.378591,0.37859 0.378592,0.37859 0.378591,0.3786 0.378592,0.37859 0.378591,0.37859 0.378592,0.37859 0.378591,0.37859 0.378592,0.37859 0.378592,0.37859 0.378591,0.3786 0.378592,0.37859 0.378591,0.37859 0.378592,0.37859 0.378591,0.37859 0.378592,0.37859 0.378591,0.3786 0.378592,0.37859 0.378592,0.37859 0.378591,0.37859 0.378592,0.37859 0.378591,0.37859 0.378592,0.37859 0.378591,0.3786 0.378592,0.37859 0.378591,0.37859 0.378592,0.37859 0.378591,0.37859 0.378592,0.37859 0.378592,0.3786 0.378591,0.37859 0.378592,0.37859 0.378591,0.37859 0.378592,0.37859 0.378591,0.37859 0.378592,0.3786 0.378591,0.37859 0.378592,0.37859 0.378592,0.37859 0.378591,0.37859 0.378592,0.37859 0.378591,0.37859 0.378592,0.3786 0.378591,0.37859 0.378592,0.37859 0.378591,0.37859 0.378592,0.37859 0.378591,0.37859 0.378592,0.3786 0.378592,0.37859 0.378591,0.37859 0.378592,0.37859 0.378591,0.37859 0.378592,0.37859 0.378591,0.37859 0.378592,0.3786 0.378591,0.37859 0.378592,0.37859 0.378591,0.37859 0.378592,0.37859 0.378592,0.37859 0.378591,0.3786 0.378592,0.37859 0.378591,0.37859 0.378592,0.37859 0.378591,0.37859 0.378592,0.37859 0.378591,0.37859 0.378592,0.3786 0.378592,0.37859 0.378591,0.37859 0.378592,0.37859 0.378591,0.37859 0.378593,0.37859 0.37859,0.3786 0.37859,0.37859 0.37859,0.37859"
           clip-path="url(#p35631093d9)"
           style="fill:none;stroke:#000000;stroke-width:2;stroke-linecap:square"
           id="path38" />
      </g>
      <g
         id="line2d_23">
        <path
           d="m 64,208.93994 0.378592,0.37859 0.378591,0.37859 0.378592,0.37859 0.378591,0.37859 0.378592,0.37859 0.378591,0.37859 0.378592,0.3786 0.378591,0.37859 0.378592,0.37859 0.378591,0.37859 0.378592,0.37859 0.378592,0.37859 0.378591,0.3786 0.378592,0.37859 0.378591,0.37859 0.378592,0.37859 0.378591,0.37859 0.378592,0.37859 0.378591,0.37859 0.378592,0.3786 0.378592,0.37859 0.378591,0.37859 0.378592,0.37859 0.378591,0.37859 0.378592,0.37859 0.378591,0.3786 0.378592,0.37859 0.378591,0.37859 0.378592,0.37859 0.378591,0.37859 0.378592,0.37859 0.378592,0.37859 0.378591,0.3786 0.378592,0.37859 0.378591,0.37859 0.378592,0.37859 0.378591,0.37859 0.378592,0.37859 0.378591,0.3786 0.378592,0.37859 0.378592,0.37859 0.378591,0.37859 0.378592,0.37859 0.378591,0.37859 0.378592,0.37859 0.378591,0.3786 0.378592,0.37859 0.378591,0.37859 0.378592,0.37859 0.378591,0.37859 0.378592,0.37859 0.378592,0.3786 0.378591,0.37859 0.378592,0.37859 0.378591,0.37859 0.378592,0.37859 0.378591,0.37859 0.378592,0.3786 0.378591,0.37859 0.378592,0.37859 0.378592,0.37859 0.378591,0.37859 0.378592,0.37859 0.378591,0.37859 0.378592,0.3786 0.378591,0.37859 0.378592,0.37859 0.378591,0.37859 0.378592,0.37859 0.378591,0.37859 0.378592,0.3786 0.378592,0.37859 0.378591,0.37859 0.378592,0.37859 0.378591,0.37859 0.378592,0.37859 0.378591,0.37859 0.378592,0.3786 0.378591,0.37859 0.378592,0.37859 0.378591,0.37859 0.378592,0.37859 0.378592,0.37859 0.378591,0.3786 0.378592,0.37859 0.378591,0.37859 0.378592,0.37859 0.378591,0.37859 0.378592,0.37859 0.378591,0.37859 0.378592,0.3786 0.378592,0.37859 0.378591,0.37859 0.378592,0.37859 0.378591,0.37859 0.378593,0.37859 0.37859,0.3786 0.37859,0.37859 0.37859,0.37859"
           clip-path="url(#p35631093d9)"
           style="fill:none;stroke:#000000;stroke-width:2;stroke-linecap:square"
           id="path39" />
      </g>
      <g
         id="line2d_24">
        <path
           d="m 138.96113,246.4205 0.37859,-1.13578 0.37859,-1.13577 0.37859,-1.13578 0.37859,-1.13577 0.37859,-1.13577 0.3786,-1.13578 0.37859,-1.13577 0.37859,-1.13578 0.37859,-1.13577 0.37859,-1.13578 0.37859,-1.13577 0.37859,-1.13578 0.3786,-1.13577 0.37859,-1.13578 0.37859,-1.13577 0.37859,-1.13578 0.37859,-1.13577 0.37859,-1.13578 0.3786,-1.13577 0.37859,-1.13577 0.37859,-1.13578 0.37859,-1.13577 0.37859,-1.13578 0.37859,-1.13577 0.37859,-1.13578 0.3786,-1.13577 0.37859,-1.13578 0.37859,-1.13577 0.37859,-1.13578 0.37859,-1.13577 0.37859,-1.13578 0.3786,-1.13577 0.37859,-1.13577 0.37859,-1.13578 0.37859,-1.13577 0.37859,-1.13578 0.37859,-1.13577 0.3786,-1.13578 0.37859,-1.13577 0.37859,-1.13578 0.37859,-1.13577 0.37859,-1.13578 0.37859,-1.13577 0.37859,-1.13578 0.3786,-1.13577 0.37859,-1.13578 0.37859,-1.13577 0.37859,-1.13577 0.37859,-1.13578 0.37859,-1.13577 0.3786,-1.13578 0.37859,-1.13577 0.37859,-1.13578 0.37859,-1.13577 0.37859,-1.13578 0.37859,-1.13577 0.37859,-1.13578 0.3786,-1.13577 0.37859,-1.13578 0.37859,-1.13577 0.37859,-1.13577 0.37859,-1.13578 0.37859,-1.13577 0.3786,-1.13578 0.37859,-1.13577 0.37859,-1.13578 0.37859,-1.13577 0.37859,-1.13578 0.37859,-1.13577 0.37859,-1.13578 0.3786,-1.13577 0.37859,-1.13578 0.37859,-1.13577 0.37859,-1.13578 0.37859,-1.13577 0.37859,-1.13577 0.3786,-1.13578 0.37859,-1.13577 0.37859,-1.13578 0.37859,-1.13577 0.37859,-1.13578 0.37859,-1.13577 0.37859,-1.13578 0.3786,-1.13577 0.37859,-1.13578 0.37859,-1.13577 0.37859,-1.13578 0.37859,-1.13577 0.37859,-1.13578 0.3786,-1.13577 0.37859,-1.13577 0.37859,-1.13578 0.37859,-1.13577 0.37859,-1.13578 0.37859,-1.13577 0.37859,-1.13578 0.3786,-1.13577 0.37859,-1.13578 0.37859,-1.13577"
           clip-path="url(#p35631093d9)"
           style="fill:none;stroke:#000000;stroke-width:2;stroke-linecap:square"
           id="path40" />
      </g>
      <g
         id="line2d_25">
        <path
           d="m 138.96113,246.4205 0.37859,-1.13578 0.37859,-1.13577 0.37859,-1.13578 0.37859,-1.13577 0.37859,-1.13577 0.3786,-1.13578 0.37859,-1.13577 0.37859,-1.13578 0.37859,-1.13577 0.37859,-1.13578 0.37859,-1.13577 0.37859,-1.13578 0.3786,-1.13577 0.37859,-1.13578 0.37859,-1.13577 0.37859,-1.13578 0.37859,-1.13577 0.37859,-1.13578 0.3786,-1.13577 0.37859,-1.13577 0.37859,-1.13578 0.37859,-1.13577 0.37859,-1.13578 0.37859,-1.13577 0.37859,-1.13578 0.3786,-1.13577 0.37859,-1.13578 0.37859,-1.13577 0.37859,-1.13578 0.37859,-1.13577 0.37859,-1.13578 0.3786,-1.13577 0.37859,-1.13577 0.37859,-1.13578 0.37859,-1.13577 0.37859,-1.13578 0.37859,-1.13577 0.3786,-1.13578 0.37859,-1.13577 0.37859,-1.13578 0.37859,-1.13577 0.37859,-1.13578 0.37859,-1.13577 0.37859,-1.13578 0.3786,-1.13577 0.37859,-1.13578 0.37859,-1.13577 0.37859,-1.13577 0.37859,-1.13578 0.37859,-1.13577 0.3786,-1.13578 0.37859,-1.13577 0.37859,-1.13578 0.37859,-1.13577 0.37859,-1.13578 0.37859,-1.13577 0.37859,-1.13578 0.3786,-1.13577 0.37859,-1.13578 0.37859,-1.13577 0.37859,-1.13577 0.37859,-1.13578 0.37859,-1.13577 0.3786,-1.13578 0.37859,-1.13577 0.37859,-1.13578 0.37859,-1.13577 0.37859,-1.13578 0.37859,-1.13577 0.37859,-1.13578 0.3786,-1.13577 0.37859,-1.13578 0.37859,-1.13577 0.37859,-1.13578 0.37859,-1.13577 0.37859,-1.13577 0.3786,-1.13578 0.37859,-1.13577 0.37859,-1.13578 0.37859,-1.13577 0.37859,-1.13578 0.37859,-1.13577 0.37859,-1.13578 0.3786,-1.13577 0.37859,-1.13578 0.37859,-1.13577 0.37859,-1.13578 0.37859,-1.13577 0.37859,-1.13578 0.3786,-1.13577 0.37859,-1.13577 0.37859,-1.13578 0.37859,-1.13577 0.37859,-1.13578 0.37859,-1.13577 0.37859,-1.13578 0.3786,-1.13577 0.37859,-1.13578 0.37859,-1.13577"
           clip-path="url(#p35631093d9)"
           style="fill:none;stroke:#000000;stroke-width:2;stroke-linecap:square"
           id="path41" />
      </g>
      <g
         id="line2d_26">
        <path
           d="m 213.92225,133.97881 0.37859,0.75718 0.3786,0.75718 0.37859,0.75719 0.37859,0.75718 0.37859,0.75718 0.37859,0.75719 0.37859,0.75718 0.3786,0.75718 0.37859,0.75719 0.37859,0.75718 0.37859,0.75718 0.37859,0.75719 0.37859,0.75718 0.37859,0.75718 0.3786,0.75718 0.37859,0.75719 0.37859,0.75718 0.37859,0.75718 0.37859,0.75719 0.37859,0.75718 0.3786,0.75718 0.37859,0.75719 0.37859,0.75718 0.37859,0.75718 0.37859,0.75719 0.37859,0.75718 0.37859,0.75718 0.3786,0.75719 0.37859,0.75718 0.37859,0.75718 0.37859,0.75718 0.37859,0.75719 0.37859,0.75718 0.3786,0.75718 0.37859,0.75719 0.37859,0.75718 0.37859,0.75718 0.37859,0.75719 0.37859,0.75718 0.37859,0.75718 0.3786,0.75719 0.37859,0.75718 0.37859,0.75718 0.37859,0.75718 0.37859,0.75719 0.37859,0.75718 0.3786,0.75718 0.37859,0.75719 0.37859,0.75718 0.37859,0.75718 0.37859,0.75719 0.37859,0.75718 0.3786,0.75718 0.37859,0.75719 0.37859,0.75718 0.37859,0.75718 0.37859,0.75719 0.37859,0.75718 0.37859,0.75718 0.3786,0.75718 0.37859,0.75719 0.37859,0.75718 0.37859,0.75718 0.37859,0.75719 0.37859,0.75718 0.3786,0.75718 0.37859,0.75719 0.37859,0.75718 0.37859,0.75718 0.37859,0.75719 0.37859,0.75718 0.37859,0.75718 0.3786,0.75718 0.37859,0.75719 0.37859,0.75718 0.37859,0.75718 0.37859,0.75719 0.37859,0.75718 0.3786,0.75718 0.37859,0.75719 0.37859,0.75718 0.37859,0.75718 0.37859,0.75719 0.37859,0.75718 0.37859,0.75718 0.3786,0.75718 0.37859,0.75719 0.37859,0.75718 0.37859,0.75719 0.37859,0.75718 0.37859,0.75718 0.3786,0.75718 0.37859,0.75719 0.37859,0.75718 0.37859,0.75718 0.37859,0.75719 0.37859,0.75718 0.37859,0.75718 0.3786,0.75719"
           clip-path="url(#p35631093d9)"
           style="fill:none;stroke:#000000;stroke-width:2;stroke-linecap:square"
           id="path42" />
      </g>
      <g
         id="line2d_27">
        <path
           d="m 213.92225,133.97881 0.37859,0.75718 0.3786,0.75718 0.37859,0.75719 0.37859,0.75718 0.37859,0.75718 0.37859,0.75719 0.37859,0.75718 0.3786,0.75718 0.37859,0.75719 0.37859,0.75718 0.37859,0.75718 0.37859,0.75719 0.37859,0.75718 0.37859,0.75718 0.3786,0.75718 0.37859,0.75719 0.37859,0.75718 0.37859,0.75718 0.37859,0.75719 0.37859,0.75718 0.3786,0.75718 0.37859,0.75719 0.37859,0.75718 0.37859,0.75718 0.37859,0.75719 0.37859,0.75718 0.37859,0.75718 0.3786,0.75719 0.37859,0.75718 0.37859,0.75718 0.37859,0.75718 0.37859,0.75719 0.37859,0.75718 0.3786,0.75718 0.37859,0.75719 0.37859,0.75718 0.37859,0.75718 0.37859,0.75719 0.37859,0.75718 0.37859,0.75718 0.3786,0.75719 0.37859,0.75718 0.37859,0.75718 0.37859,0.75718 0.37859,0.75719 0.37859,0.75718 0.3786,0.75718 0.37859,0.75719 0.37859,0.75718 0.37859,0.75718 0.37859,0.75719 0.37859,0.75718 0.3786,0.75718 0.37859,0.75719 0.37859,0.75718 0.37859,0.75718 0.37859,0.75719 0.37859,0.75718 0.37859,0.75718 0.3786,0.75718 0.37859,0.75719 0.37859,0.75718 0.37859,0.75718 0.37859,0.75719 0.37859,0.75718 0.3786,0.75718 0.37859,0.75719 0.37859,0.75718 0.37859,0.75718 0.37859,0.75719 0.37859,0.75718 0.37859,0.75718 0.3786,0.75718 0.37859,0.75719 0.37859,0.75718 0.37859,0.75718 0.37859,0.75719 0.37859,0.75718 0.3786,0.75718 0.37859,0.75719 0.37859,0.75718 0.37859,0.75718 0.37859,0.75719 0.37859,0.75718 0.37859,0.75718 0.3786,0.75718 0.37859,0.75719 0.37859,0.75718 0.37859,0.75719 0.37859,0.75718 0.37859,0.75718 0.3786,0.75718 0.37859,0.75719 0.37859,0.75718 0.37859,0.75718 0.37859,0.75719 0.37859,0.75718 0.37859,0.75718 0.3786,0.75719"
           clip-path="url(#p35631093d9)"
           style="fill:none;stroke:#000000;stroke-width:2;stroke-linecap:square"
           id="path43" />
      </g>
      <g
         id="line2d_28">
        <path
           d="m 288.88338,246.4205 h 0.75718 0.75719 0.75718 0.75718 0.75719 0.75718 0.75718 0.75719 0.75718 0.75718 0.75718 0.75719 0.75718 0.75718 0.75719 0.75718 0.75718 0.75719 0.75718 0.75718 0.75718 0.75719 0.75718 0.75718 0.75719 0.75718 0.75718 0.75719 0.75718 0.75718 0.75719 0.75718 0.75718 0.75719 0.75718 0.75718 0.75718 0.75719 0.75718 0.75718 0.75719 0.75718 0.75718 0.75719 0.75718 0.75718 0.75719 0.75718 0.75718 0.75718 0.75719 0.75718 0.75719 0.75718 0.75718 0.75718 0.75719 0.75718 0.75718 0.75719 0.75718 0.75718 0.75718 0.75719 0.75718 0.75718 0.75719 0.75718 0.75718 0.75719 0.75718 0.75718 0.75719 0.75718 0.75718 0.75719 0.75718 0.75718 0.75719 0.75718 0.75718 0.75718 0.75719 0.75718 0.75718 0.75719 0.75718 0.75718 0.75719 0.75718 0.75718 0.75718 0.75719 0.75718 0.75718 0.75719 0.75718 0.75718 0.75719"
           clip-path="url(#p35631093d9)"
           style="fill:none"
           id="path44" />
      </g>
      <g
         id="line2d_29">
        <path
           d="m 288.88338,246.4205 h 0.75718 0.75719 0.75718 0.75718 0.75719 0.75718 0.75718 0.75719 0.75718 0.75718 0.75718 0.75719 0.75718 0.75718 0.75719 0.75718 0.75718 0.75719 0.75718 0.75718 0.75718 0.75719 0.75718 0.75718 0.75719 0.75718 0.75718 0.75719 0.75718 0.75718 0.75719 0.75718 0.75718 0.75719 0.75718 0.75718 0.75718 0.75719 0.75718 0.75718 0.75719 0.75718 0.75718 0.75719 0.75718 0.75718 0.75719 0.75718 0.75718 0.75718 0.75719 0.75718 0.75719 0.75718 0.75718 0.75718 0.75719 0.75718 0.75718 0.75719 0.75718 0.75718 0.75718 0.75719 0.75718 0.75718 0.75719 0.75718 0.75718 0.75719 0.75718 0.75718 0.75719 0.75718 0.75718 0.75719 0.75718 0.75718 0.75719 0.75718 0.75718 0.75718 0.75719 0.75718 0.75718 0.75719 0.75718 0.75718 0.75719 0.75718 0.75718 0.75718 0.75719 0.75718 0.75718 0.75719 0.75718 0.75718 0.75719"
           clip-path="url(#p35631093d9)"
           style="fill:none"
           id="path45" />
      </g>
      <g
         id="line2d_30">
        <path
           d="m 101.48056,246.4205 0.56598,0.56215 0.56215,0.55068 0.55833,0.5392 0.5545,0.52774 0.55068,0.51626 0.54685,0.50479 0.54303,0.49331 0.53921,0.48185 0.53538,0.47037 0.53156,0.4589 0.52773,0.44742 0.52391,0.43596 0.52009,0.42448 0.51626,0.41301 0.51244,0.40154 0.50861,0.39006 0.50479,0.37859 0.50096,0.36712 0.49714,0.35565 0.49332,0.34417 0.48949,0.3327 0.48567,0.32123 0.48184,0.30976 0.47802,0.29828 0.4742,0.28681 0.47037,0.27534 0.46655,0.26387 0.46272,0.25239 0.4589,0.24093 0.45507,0.22945 0.45125,0.21797 0.44743,0.20651 0.4436,0.19503 0.43978,0.18356 0.43595,0.17209 0.43213,0.16061 0.42831,0.14914 0.42448,0.13767 0.42066,0.1262 0.41683,0.11472 0.41301,0.10326 0.40918,0.0918 0.40536,0.0803 0.40154,0.0688 0.39771,0.0574 0.39389,0.0459 0.39007,0.0344 0.38624,0.0229 0.38241,0.0115 h 0.37859 l 0.37477,-0.0115 0.37094,-0.0229 0.36712,-0.0344 0.3633,-0.0459 0.35947,-0.0574 0.35564,-0.0688 0.35183,-0.0803 0.348,-0.0918 0.34417,-0.10326 0.34035,-0.11472 0.33653,-0.1262 0.3327,-0.13767 0.32888,-0.14914 0.32505,-0.16061 0.32123,-0.17209 0.3174,-0.18356 0.31358,-0.19503 0.30976,-0.20651 0.30593,-0.21797 0.30211,-0.22945 0.29829,-0.24093 0.29446,-0.25239 0.29063,-0.26387 0.28681,-0.27534 0.28299,-0.28681 0.27916,-0.29828 0.27534,-0.30976 0.27152,-0.32123 0.26769,-0.3327 0.26387,-0.34417 0.26004,-0.35565 0.25622,-0.36712 0.25239,-0.37859 0.24857,-0.39006 0.24475,-0.40154 0.24092,-0.41301 0.2371,-0.42448 0.23327,-0.43596 0.22945,-0.44742 0.22563,-0.4589 0.2218,-0.47037 0.21797,-0.48185 0.21416,-0.49331 0.21033,-0.50479 0.2065,-0.51626 0.20268,-0.52774 0.19886,-0.5392 0.19503,-0.55068 0.19121,-0.56215"
           clip-path="url(#p35631093d9)"
           style="fill:none;stroke:#000000;stroke-width:2.2;stroke-linecap:square"
           id="path46" />
      </g>
      <g
         id="line2d_31">
        <path
           d="m 176.44169,133.97881 0.30364,-0.89944 0.30517,-0.88109 0.30669,-0.86273 0.30823,-0.84437 0.30976,-0.82602 0.31128,-0.80766 0.31282,-0.78931 0.31434,-0.77095 0.31588,-0.75259 0.31741,-0.73424 0.31893,-0.71588 0.32046,-0.69753 0.322,-0.67917 0.32352,-0.66081 0.32506,-0.64246 0.32658,-0.6241 0.32811,-0.60575 0.32964,-0.58739 0.33118,-0.56904 0.3327,-0.55068 0.33423,-0.53232 0.33576,-0.51396 0.33729,-0.49561 0.33882,-0.47726 0.34035,-0.4589 0.34188,-0.44054 0.34341,-0.42219 0.34494,-0.40383 0.34647,-0.38547 0.348,-0.36712 0.34952,-0.34877 0.35106,-0.3304 0.35259,-0.31205 0.35411,-0.2937 0.35565,-0.27534 0.35718,-0.25698 0.3587,-0.23863 0.36024,-0.22027 0.36176,-0.20192 0.3633,-0.18356 0.36482,-0.1652 0.36636,-0.14685 0.36788,-0.12849 0.36942,-0.11013 0.37094,-0.0918 0.37247,-0.0734 0.374,-0.0551 0.37554,-0.0367 0.37706,-0.0184 h 0.37859 l 0.38012,0.0184 0.38165,0.0367 0.38318,0.0551 0.38471,0.0734 0.38624,0.0918 0.38777,0.11013 0.3893,0.12849 0.39083,0.14685 0.39236,0.1652 0.39389,0.18356 0.39541,0.20192 0.39695,0.22027 0.39848,0.23863 0.40001,0.25698 0.40153,0.27534 0.40307,0.2937 0.40459,0.31205 0.40613,0.3304 0.40766,0.34877 0.40918,0.36712 0.41071,0.38547 0.41225,0.40383 0.41377,0.42219 0.41531,0.44054 0.41683,0.4589 0.41836,0.47726 0.41989,0.49561 0.42143,0.51396 0.42295,0.53232 0.42448,0.55068 0.42601,0.56904 0.42754,0.58739 0.42907,0.60575 0.4306,0.6241 0.43213,0.64246 0.43366,0.66081 0.43519,0.67917 0.43672,0.69753 0.43825,0.71588 0.43978,0.73424 0.4413,0.75259 0.44284,0.77095 0.44437,0.78931 0.44589,0.80766 0.44743,0.82602 0.44896,0.84437 0.45048,0.86273 0.45202,0.88109 0.45354,0.89944"
           clip-path="url(#p35631093d9)"
           style="fill:none;stroke:#000000;stroke-width:2.2;stroke-linecap:square"
           id="path47" />
      </g>
      <g
         id="line2d_32">
        <path
           d="m 251.40282,208.93994 0.37859,0.75335 0.37859,0.74571 0.37859,0.73807 0.37859,0.73041 0.37859,0.72277 0.3786,0.71511 0.37859,0.70747 0.37859,0.69982 0.37859,0.69218 0.37859,0.68452 0.37859,0.67688 0.3786,0.66922 0.37859,0.66158 0.37859,0.65393 0.37859,0.64629 0.37859,0.63863 0.37859,0.63099 0.37859,0.62333 0.3786,0.61569 0.37859,0.60804 0.37859,0.6004 0.37859,0.59274 0.37859,0.5851 0.37859,0.57745 0.3786,0.56979 0.37859,0.56216 0.37859,0.5545 0.37859,0.54685 0.37859,0.53921 0.37859,0.53156 0.3786,0.52391 0.37859,0.51626 0.37859,0.50861 0.37859,0.50097 0.37859,0.49331 0.37859,0.48567 0.37859,0.47802 0.3786,0.47037 0.37859,0.46272 0.37859,0.45508 0.37859,0.44742 0.37859,0.43978 0.37859,0.43213 0.37859,0.42448 0.3786,0.41684 0.37859,0.40918 0.37859,0.40154 0.37859,0.39389 0.37859,0.38624 0.37859,0.37859 0.3786,0.37094 0.37859,0.3633 0.37859,0.35564 0.37859,0.348 0.37859,0.34035 0.37859,0.3327 0.37859,0.32506 0.3786,0.3174 0.37859,0.30976 0.37859,0.30211 0.37859,0.29446 0.37859,0.28681 0.37859,0.27916 0.3786,0.27152 0.37859,0.26386 0.37859,0.25622 0.37859,0.24857 0.37859,0.24092 0.37859,0.23328 0.37859,0.22562 0.3786,0.21798 0.37859,0.21033 0.37859,0.20268 0.37859,0.19503 0.37859,0.18738 0.37859,0.17974 0.3786,0.17209 0.37859,0.16444 0.37859,0.15679 0.37859,0.14914 0.37859,0.14149 0.37859,0.13385 0.37859,0.12619 0.3786,0.11855 0.37859,0.1109 0.37859,0.10326 0.37859,0.0956 0.37859,0.088 0.37859,0.0803 0.3786,0.0727 0.37859,0.065 0.37859,0.0574 0.37859,0.0497 0.37859,0.0421 0.37859,0.0344 0.3786,0.0268 0.37859,0.0191 0.37859,0.0115 0.37859,0.004"
           clip-path="url(#p35631093d9)"
           style="fill:none;stroke:#000000;stroke-width:2.2;stroke-linecap:square"
           id="path48" />
      </g>
      <g
         id="patch_3">
        <path
           d="m 64,283.90106 q 146.1742,0 291.3483,0"
           style="fill:none;stroke:#000000;stroke-width:2;stroke-linecap:round"
           id="path49" />
        <path
           d="m 345.31138,280.13722 10.03692,3.76384 -10.03692,3.76385 z"
           style="stroke:#000000;stroke-width:2;stroke-linecap:round"
           id="path50" />
      </g>
      <g
         id="patch_4">
        <path
           d="M 64,283.90106 Q 64,152.90649 64,24.578596"
           style="fill:none;stroke:#000000;stroke-width:2;stroke-linecap:round"
           id="path51" />
        <path
           d="M 60.236154,34.615519 64,24.578596 67.763846,34.615519 Z"
           style="stroke:#000000;stroke-width:2;stroke-linecap:round"
           id="path52" />
      </g>
    </g>
  </g>
  <defs
     id="defs52">
    <clipPath
       id="p35631093d9">
      <rect
         x="49.007774"
         y="17.789062"
         width="314.83673"
         height="266.112"
         id="rect52" />
    </clipPath>
  </defs>
</svg>
