<?xml version="1.0" encoding="utf-8" standalone="no"?>
<!DOCTYPE svg PUBLIC "-//W3C//DTD SVG 1.1//EN"
  "http://www.w3.org/Graphics/SVG/1.1/DTD/svg11.dtd">
<svg xmlns:xlink="http://www.w3.org/1999/xlink" width="427.12176pt" height="333.994812pt" viewBox="0 0 427.12176 333.994812" xmlns="http://www.w3.org/2000/svg" version="1.1">
 <metadata>
  <rdf:RDF xmlns:dc="http://purl.org/dc/elements/1.1/" xmlns:cc="http://creativecommons.org/ns#" xmlns:rdf="http://www.w3.org/1999/02/22-rdf-syntax-ns#">
   <cc:Work>
    <dc:type rdf:resource="http://purl.org/dc/dcmitype/StillImage"/>
    <dc:date>2024-11-10T16:11:17.429975</dc:date>
    <dc:format>image/svg+xml</dc:format>
    <dc:creator>
     <cc:Agent>
      <dc:title>Matplotlib v3.8.2, https://matplotlib.org/</dc:title>
     </cc:Agent>
    </dc:creator>
   </cc:Work>
  </rdf:RDF>
 </metadata>
 <defs>
  <style type="text/css">*{stroke-linejoin: round; stroke-linecap: butt}</style>
 </defs>
 <g id="figure_1">
  <g id="patch_1">
   <path d="M 0 333.994812 
L 427.12176 333.994812 
L 427.12176 0 
L 0 0 
z
" style="fill: #ffffff"/>
  </g>
  <g id="axes_1">
   <g id="patch_2">
    <path d="M 56.04736 285.312937 
L 375.38176 285.312937 
L 375.38176 19.200937 
L 56.04736 19.200937 
z
" style="fill: #ffffff"/>
   </g>
   <g id="line2d_1">
    <path d="M 105.7216 285.312937 
L 105.7216 72.423337 
" style="fill: none; stroke: #777777; stroke-width: 0.9; stroke-linecap: square"/>
   </g>
   <g id="line2d_2">
    <path d="M 141.2032 285.312937 
L 141.2032 72.423337 
" style="fill: none; stroke: #777777; stroke-width: 0.9; stroke-linecap: square"/>
   </g>
   <g id="line2d_3">
    <path d="M 176.6848 285.312937 
L 176.6848 72.423337 
" style="fill: none; stroke: #777777; stroke-width: 0.9; stroke-linecap: square"/>
   </g>
   <g id="line2d_4">
    <path d="M 212.1664 285.312937 
L 212.1664 72.423337 
" style="fill: none; stroke: #777777; stroke-width: 0.9; stroke-linecap: square"/>
   </g>
   <g id="line2d_5">
    <path d="M 247.648 285.312937 
L 247.648 72.423337 
" style="fill: none; stroke: #777777; stroke-width: 0.9; stroke-linecap: square"/>
   </g>
   <g id="line2d_6">
    <path d="M 283.1296 285.312937 
L 283.1296 72.423337 
" style="fill: none; stroke: #777777; stroke-width: 0.9; stroke-linecap: square"/>
   </g>
   <g id="line2d_7">
    <path d="M 70.24 249.831337 
L 283.1296 249.831337 
" style="fill: none; stroke: #777777; stroke-width: 0.9; stroke-linecap: square"/>
   </g>
   <g id="line2d_8">
    <path d="M 70.24 214.349737 
L 283.1296 214.349737 
" style="fill: none; stroke: #777777; stroke-width: 0.9; stroke-linecap: square"/>
   </g>
   <g id="line2d_9">
    <path d="M 70.24 178.868137 
L 283.1296 178.868137 
" style="fill: none; stroke: #777777; stroke-width: 0.9; stroke-linecap: square"/>
   </g>
   <g id="line2d_10">
    <path d="M 70.24 143.386537 
L 283.1296 143.386537 
" style="fill: none; stroke: #777777; stroke-width: 0.9; stroke-linecap: square"/>
   </g>
   <g id="line2d_11">
    <path d="M 70.24 107.904937 
L 283.1296 107.904937 
" style="fill: none; stroke: #777777; stroke-width: 0.9; stroke-linecap: square"/>
   </g>
   <g id="line2d_12">
    <path d="M 70.24 72.423337 
L 283.1296 72.423337 
" style="fill: none; stroke: #777777; stroke-width: 0.9; stroke-linecap: square"/>
   </g>
   <g id="line2d_13">
    <path d="M 70.24 214.349737 
L 70.5984 214.708137 
L 70.9568 215.066537 
L 71.3152 215.424937 
L 71.6736 215.783337 
L 72.032 216.141737 
L 72.3904 216.500137 
L 72.7488 216.858537 
L 73.1072 217.216937 
L 73.4656 217.575337 
L 73.824 217.933737 
L 74.1824 218.292137 
L 74.5408 218.650537 
L 74.8992 219.008937 
L 75.2576 219.367337 
L 75.616 219.725737 
L 75.9744 220.084137 
L 76.3328 220.442537 
L 76.6912 220.800937 
L 77.0496 221.159337 
L 77.408 221.517737 
L 77.7664 221.876137 
L 78.1248 222.234537 
L 78.4832 222.592937 
L 78.8416 222.951337 
L 79.2 223.309737 
L 79.5584 223.668137 
L 79.9168 224.026537 
L 80.2752 224.384937 
L 80.6336 224.743337 
L 80.992 225.101737 
L 81.3504 225.460137 
L 81.7088 225.818537 
L 82.0672 226.176937 
L 82.4256 226.535337 
L 82.784 226.893737 
L 83.1424 227.252137 
L 83.5008 227.610537 
L 83.8592 227.968937 
L 84.2176 228.327337 
L 84.576 228.685737 
L 84.9344 229.044137 
L 85.2928 229.402537 
L 85.6512 229.760937 
L 86.0096 230.119337 
L 86.368 230.477737 
L 86.7264 230.836137 
L 87.0848 231.194537 
L 87.4432 231.552937 
L 87.8016 231.911337 
L 88.16 232.269737 
L 88.5184 232.628137 
L 88.8768 232.986537 
L 89.2352 233.344937 
L 89.5936 233.703337 
L 89.952 234.061737 
L 90.3104 234.420137 
L 90.6688 234.778537 
L 91.0272 235.136937 
L 91.3856 235.495337 
L 91.744 235.853737 
L 92.1024 236.212137 
L 92.4608 236.570537 
L 92.8192 236.928937 
L 93.1776 237.287337 
L 93.536 237.645737 
L 93.8944 238.004137 
L 94.2528 238.362537 
L 94.6112 238.720937 
L 94.9696 239.079337 
L 95.328 239.437737 
L 95.6864 239.796137 
L 96.0448 240.154537 
L 96.4032 240.512937 
L 96.7616 240.871337 
L 97.12 241.229737 
L 97.4784 241.588137 
L 97.8368 241.946537 
L 98.1952 242.304937 
L 98.5536 242.663337 
L 98.912 243.021737 
L 99.2704 243.380137 
L 99.6288 243.738537 
L 99.9872 244.096937 
L 100.3456 244.455337 
L 100.704 244.813737 
L 101.0624 245.172137 
L 101.4208 245.530537 
L 101.7792 245.888937 
L 102.1376 246.247337 
L 102.496 246.605737 
L 102.8544 246.964137 
L 103.2128 247.322537 
L 103.5712 247.680937 
L 103.9296 248.039337 
L 104.288 248.397737 
L 104.6464 248.756137 
L 105.0048 249.114537 
L 105.3632 249.472937 
L 105.7216 249.831337 
" clip-path="url(#p07c9256f0b)" style="fill: none; stroke: #000000; stroke-width: 2.5; stroke-linecap: square"/>
   </g>
   <g id="line2d_14">
    <path d="M 141.2032 249.831337 
L 141.5616 248.756137 
L 141.92 247.680937 
L 142.2784 246.605737 
L 142.6368 245.530537 
L 142.9952 244.455337 
L 143.3536 243.380137 
L 143.712 242.304937 
L 144.0704 241.229737 
L 144.4288 240.154537 
L 144.7872 239.079337 
L 145.1456 238.004137 
L 145.504 236.928937 
L 145.8624 235.853737 
L 146.2208 234.778537 
L 146.5792 233.703337 
L 146.9376 232.628137 
L 147.296 231.552937 
L 147.6544 230.477737 
L 148.0128 229.402537 
L 148.3712 228.327337 
L 148.7296 227.252137 
L 149.088 226.176937 
L 149.4464 225.101737 
L 149.8048 224.026537 
L 150.1632 222.951337 
L 150.5216 221.876137 
L 150.88 220.800937 
L 151.2384 219.725737 
L 151.5968 218.650537 
L 151.9552 217.575337 
L 152.3136 216.500137 
L 152.672 215.424937 
L 153.0304 214.349737 
L 153.3888 213.274537 
L 153.7472 212.199337 
L 154.1056 211.124137 
L 154.464 210.048937 
L 154.8224 208.973737 
L 155.1808 207.898537 
L 155.5392 206.823337 
L 155.8976 205.748137 
L 156.256 204.672937 
L 156.6144 203.597737 
L 156.9728 202.522537 
L 157.3312 201.447337 
L 157.6896 200.372137 
L 158.048 199.296937 
L 158.4064 198.221737 
L 158.7648 197.146537 
L 159.1232 196.071337 
L 159.4816 194.996137 
L 159.84 193.920937 
L 160.1984 192.845737 
L 160.5568 191.770537 
L 160.9152 190.695337 
L 161.2736 189.620137 
L 161.632 188.544937 
L 161.9904 187.469737 
L 162.3488 186.394537 
L 162.7072 185.319337 
L 163.0656 184.244137 
L 163.424 183.168937 
L 163.7824 182.093737 
L 164.1408 181.018537 
L 164.4992 179.943337 
L 164.8576 178.868137 
L 165.216 177.792937 
L 165.5744 176.717737 
L 165.9328 175.642537 
L 166.2912 174.567337 
L 166.6496 173.492137 
L 167.008 172.416937 
L 167.3664 171.341737 
L 167.7248 170.266537 
L 168.0832 169.191337 
L 168.4416 168.116137 
L 168.8 167.040937 
L 169.1584 165.965737 
L 169.5168 164.890537 
L 169.8752 163.815337 
L 170.2336 162.740137 
L 170.592 161.664937 
L 170.9504 160.589737 
L 171.3088 159.514537 
L 171.6672 158.439337 
L 172.0256 157.364137 
L 172.384 156.288937 
L 172.7424 155.213737 
L 173.1008 154.138537 
L 173.4592 153.063337 
L 173.8176 151.988137 
L 174.176 150.912937 
L 174.5344 149.837737 
L 174.8928 148.762537 
L 175.2512 147.687337 
L 175.6096 146.612137 
L 175.968 145.536937 
L 176.3264 144.461737 
L 176.6848 143.386537 
" clip-path="url(#p07c9256f0b)" style="fill: none; stroke: #000000; stroke-width: 2.5; stroke-linecap: square"/>
   </g>
   <g id="line2d_15">
    <path d="M 212.1664 143.386537 
L 212.5248 144.103337 
L 212.8832 144.820137 
L 213.2416 145.536937 
L 213.6 146.253737 
L 213.9584 146.970537 
L 214.3168 147.687337 
L 214.6752 148.404137 
L 215.0336 149.120937 
L 215.392 149.837737 
L 215.7504 150.554537 
L 216.1088 151.271337 
L 216.4672 151.988137 
L 216.8256 152.704937 
L 217.184 153.421737 
L 217.5424 154.138537 
L 217.9008 154.855337 
L 218.2592 155.572137 
L 218.6176 156.288937 
L 218.976 157.005737 
L 219.3344 157.722537 
L 219.6928 158.439337 
L 220.0512 159.156137 
L 220.4096 159.872937 
L 220.768 160.589737 
L 221.1264 161.306537 
L 221.4848 162.023337 
L 221.8432 162.740137 
L 222.2016 163.456937 
L 222.56 164.173737 
L 222.9184 164.890537 
L 223.2768 165.607337 
L 223.6352 166.324137 
L 223.9936 167.040937 
L 224.352 167.757737 
L 224.7104 168.474537 
L 225.0688 169.191337 
L 225.4272 169.908137 
L 225.7856 170.624937 
L 226.144 171.341737 
L 226.5024 172.058537 
L 226.8608 172.775337 
L 227.2192 173.492137 
L 227.5776 174.208937 
L 227.936 174.925737 
L 228.2944 175.642537 
L 228.6528 176.359337 
L 229.0112 177.076137 
L 229.3696 177.792937 
L 229.728 178.509737 
L 230.0864 179.226537 
L 230.4448 179.943337 
L 230.8032 180.660137 
L 231.1616 181.376937 
L 231.52 182.093737 
L 231.8784 182.810537 
L 232.2368 183.527337 
L 232.5952 184.244137 
L 232.9536 184.960937 
L 233.312 185.677737 
L 233.6704 186.394537 
L 234.0288 187.111337 
L 234.3872 187.828137 
L 234.7456 188.544937 
L 235.104 189.261737 
L 235.4624 189.978537 
L 235.8208 190.695337 
L 236.1792 191.412137 
L 236.5376 192.128937 
L 236.896 192.845737 
L 237.2544 193.562537 
L 237.6128 194.279337 
L 237.9712 194.996137 
L 238.3296 195.712937 
L 238.688 196.429737 
L 239.0464 197.146537 
L 239.4048 197.863337 
L 239.7632 198.580137 
L 240.1216 199.296937 
L 240.48 200.013737 
L 240.8384 200.730537 
L 241.1968 201.447337 
L 241.5552 202.164137 
L 241.9136 202.880937 
L 242.272 203.597737 
L 242.6304 204.314537 
L 242.9888 205.031337 
L 243.3472 205.748137 
L 243.7056 206.464937 
L 244.064 207.181737 
L 244.4224 207.898537 
L 244.7808 208.615337 
L 245.1392 209.332137 
L 245.4976 210.048937 
L 245.856 210.765737 
L 246.2144 211.482537 
L 246.5728 212.199337 
L 246.9312 212.916137 
L 247.2896 213.632937 
L 247.648 214.349737 
" clip-path="url(#p07c9256f0b)" style="fill: none; stroke: #000000; stroke-width: 2.5; stroke-linecap: square"/>
   </g>
   <g id="line2d_16">
    <path d="M 283.1296 249.831337 
L 283.8464 249.831337 
L 284.5632 249.831337 
L 285.28 249.831337 
L 285.9968 249.831337 
L 286.7136 249.831337 
L 287.4304 249.831337 
L 288.1472 249.831337 
L 288.864 249.831337 
L 289.5808 249.831337 
L 290.2976 249.831337 
L 291.0144 249.831337 
L 291.7312 249.831337 
L 292.448 249.831337 
L 293.1648 249.831337 
L 293.8816 249.831337 
L 294.5984 249.831337 
L 295.3152 249.831337 
L 296.032 249.831337 
L 296.7488 249.831337 
L 297.4656 249.831337 
L 298.1824 249.831337 
L 298.8992 249.831337 
L 299.616 249.831337 
L 300.3328 249.831337 
L 301.0496 249.831337 
L 301.7664 249.831337 
L 302.4832 249.831337 
L 303.2 249.831337 
L 303.9168 249.831337 
L 304.6336 249.831337 
L 305.3504 249.831337 
L 306.0672 249.831337 
L 306.784 249.831337 
L 307.5008 249.831337 
L 308.2176 249.831337 
L 308.9344 249.831337 
L 309.6512 249.831337 
L 310.368 249.831337 
L 311.0848 249.831337 
L 311.8016 249.831337 
L 312.5184 249.831337 
L 313.2352 249.831337 
L 313.952 249.831337 
L 314.6688 249.831337 
L 315.3856 249.831337 
L 316.1024 249.831337 
L 316.8192 249.831337 
L 317.536 249.831337 
L 318.2528 249.831337 
L 318.9696 249.831337 
L 319.6864 249.831337 
L 320.4032 249.831337 
L 321.12 249.831337 
L 321.8368 249.831337 
L 322.5536 249.831337 
L 323.2704 249.831337 
L 323.9872 249.831337 
L 324.704 249.831337 
L 325.4208 249.831337 
L 326.1376 249.831337 
L 326.8544 249.831337 
L 327.5712 249.831337 
L 328.288 249.831337 
L 329.0048 249.831337 
L 329.7216 249.831337 
L 330.4384 249.831337 
L 331.1552 249.831337 
L 331.872 249.831337 
L 332.5888 249.831337 
L 333.3056 249.831337 
L 334.0224 249.831337 
L 334.7392 249.831337 
L 335.456 249.831337 
L 336.1728 249.831337 
L 336.8896 249.831337 
L 337.6064 249.831337 
L 338.3232 249.831337 
L 339.04 249.831337 
L 339.7568 249.831337 
L 340.4736 249.831337 
L 341.1904 249.831337 
L 341.9072 249.831337 
L 342.624 249.831337 
L 343.3408 249.831337 
L 344.0576 249.831337 
L 344.7744 249.831337 
L 345.4912 249.831337 
L 346.208 249.831337 
L 346.9248 249.831337 
L 347.6416 249.831337 
L 348.3584 249.831337 
L 349.0752 249.831337 
L 349.792 249.831337 
L 350.5088 249.831337 
L 351.2256 249.831337 
L 351.9424 249.831337 
L 352.6592 249.831337 
L 353.376 249.831337 
L 354.0928 249.831337 
" clip-path="url(#p07c9256f0b)" style="fill: none"/>
   </g>
   <g id="line2d_17">
    <path d="M 105.7216 249.831337 
L 106.25739 250.363507 
L 106.78956 250.884816 
L 107.318109 251.395265 
L 107.843038 251.894853 
L 108.364347 252.38358 
L 108.882036 252.861447 
L 109.396105 253.328453 
L 109.906554 253.784598 
L 110.413382 254.229883 
L 110.91659 254.664307 
L 111.416178 255.087871 
L 111.912145 255.500574 
L 112.404493 255.902416 
L 112.89322 256.293398 
L 113.378327 256.673519 
L 113.859814 257.04278 
L 114.337681 257.40118 
L 114.811927 257.748719 
L 115.282554 258.085398 
L 115.74956 258.411216 
L 116.212945 258.726174 
L 116.672711 259.030271 
L 117.128857 259.323507 
L 117.581382 259.605883 
L 118.030287 259.877398 
L 118.475572 260.138053 
L 118.917236 260.387847 
L 119.355281 260.62678 
L 119.789705 260.854853 
L 120.220509 261.072065 
L 120.647693 261.278416 
L 121.071257 261.473907 
L 121.4912 261.658538 
L 121.907523 261.832307 
L 122.320226 261.995216 
L 122.729309 262.147265 
L 123.134772 262.288453 
L 123.536614 262.41878 
L 123.934836 262.538247 
L 124.329438 262.646853 
L 124.72042 262.744598 
L 125.107782 262.831483 
L 125.491523 262.907507 
L 125.871644 262.972671 
L 126.248145 263.026974 
L 126.621026 263.070416 
L 126.990287 263.102998 
L 127.355927 263.124719 
L 127.717947 263.13558 
L 128.076347 263.13558 
L 128.431127 263.124719 
L 128.782287 263.102998 
L 129.129826 263.070416 
L 129.473745 263.026974 
L 129.814044 262.972671 
L 130.150723 262.907507 
L 130.483782 262.831483 
L 130.81322 262.744598 
L 131.139038 262.646853 
L 131.461236 262.538247 
L 131.779814 262.41878 
L 132.094772 262.288453 
L 132.406109 262.147265 
L 132.713826 261.995216 
L 133.017923 261.832307 
L 133.3184 261.658538 
L 133.615257 261.473907 
L 133.908493 261.278416 
L 134.198109 261.072065 
L 134.484105 260.854853 
L 134.766481 260.62678 
L 135.045236 260.387847 
L 135.320372 260.138053 
L 135.591887 259.877398 
L 135.859782 259.605883 
L 136.124057 259.323507 
L 136.384711 259.030271 
L 136.641745 258.726174 
L 136.89516 258.411216 
L 137.144954 258.085398 
L 137.391127 257.748719 
L 137.633681 257.40118 
L 137.872614 257.04278 
L 138.107927 256.673519 
L 138.33962 256.293398 
L 138.567693 255.902416 
L 138.792145 255.500574 
L 139.012978 255.087871 
L 139.23019 254.664307 
L 139.443782 254.229883 
L 139.653754 253.784598 
L 139.860105 253.328453 
L 140.062836 252.861447 
L 140.261947 252.38358 
L 140.457438 251.894853 
L 140.649309 251.395265 
L 140.83756 250.884816 
L 141.02219 250.363507 
L 141.2032 249.831337 
" clip-path="url(#p07c9256f0b)" style="fill: none; stroke: #000000; stroke-width: 2.2; stroke-linecap: square"/>
   </g>
   <g id="line2d_18">
    <path d="M 176.6848 143.386537 
L 176.972244 142.535066 
L 177.261136 141.700971 
L 177.551476 140.884254 
L 177.843265 140.084913 
L 178.136501 139.30295 
L 178.431185 138.538363 
L 178.727318 137.791153 
L 179.024899 137.061321 
L 179.323927 136.348865 
L 179.624404 135.653786 
L 179.926329 134.976084 
L 180.229702 134.315759 
L 180.534523 133.672811 
L 180.840792 133.047241 
L 181.148509 132.439047 
L 181.457674 131.84823 
L 181.768288 131.27479 
L 182.080349 130.718727 
L 182.393859 130.180041 
L 182.708816 129.658731 
L 183.025222 129.154799 
L 183.343076 128.668244 
L 183.662377 128.199066 
L 183.983127 127.747265 
L 184.305325 127.312841 
L 184.628971 126.895793 
L 184.954065 126.496123 
L 185.280608 126.11383 
L 185.608598 125.748913 
L 185.938036 125.401374 
L 186.268923 125.071211 
L 186.601257 124.758426 
L 186.93504 124.463018 
L 187.270271 124.184986 
L 187.606949 123.924331 
L 187.945076 123.681054 
L 188.284651 123.455153 
L 188.625674 123.24663 
L 188.968145 123.055483 
L 189.312065 122.881713 
L 189.657432 122.725321 
L 190.004247 122.586305 
L 190.352511 122.464666 
L 190.702222 122.360404 
L 191.053382 122.273519 
L 191.405989 122.204011 
L 191.760045 122.151881 
L 192.115549 122.117127 
L 192.472501 122.09975 
L 192.830901 122.09975 
L 193.190749 122.117127 
L 193.552045 122.151881 
L 193.914789 122.204011 
L 194.278982 122.273519 
L 194.644622 122.360404 
L 195.011711 122.464666 
L 195.380247 122.586305 
L 195.750232 122.725321 
L 196.121665 122.881713 
L 196.494545 123.055483 
L 196.868874 123.24663 
L 197.244651 123.455153 
L 197.621876 123.681054 
L 198.000549 123.924331 
L 198.380671 124.184986 
L 198.76224 124.463018 
L 199.145257 124.758426 
L 199.529723 125.071211 
L 199.915636 125.401374 
L 200.302998 125.748913 
L 200.691808 126.11383 
L 201.082065 126.496123 
L 201.473771 126.895793 
L 201.866925 127.312841 
L 202.261527 127.747265 
L 202.657577 128.199066 
L 203.055076 128.668244 
L 203.454022 129.154799 
L 203.854416 129.658731 
L 204.256259 130.180041 
L 204.659549 130.718727 
L 205.064288 131.27479 
L 205.470474 131.84823 
L 205.878109 132.439047 
L 206.287192 133.047241 
L 206.697723 133.672811 
L 207.109702 134.315759 
L 207.523129 134.976084 
L 207.938004 135.653786 
L 208.354327 136.348865 
L 208.772099 137.061321 
L 209.191318 137.791153 
L 209.611985 138.538363 
L 210.034101 139.30295 
L 210.457665 140.084913 
L 210.882676 140.884254 
L 211.309136 141.700971 
L 211.737044 142.535066 
L 212.1664 143.386537 
" clip-path="url(#p07c9256f0b)" style="fill: none; stroke: #000000; stroke-width: 2.2; stroke-linecap: square"/>
   </g>
   <g id="line2d_19">
    <path d="M 247.648 214.349737 
L 248.0064 215.062917 
L 248.3648 215.768857 
L 248.7232 216.467556 
L 249.0816 217.159014 
L 249.44 217.843232 
L 249.7984 218.52021 
L 250.1568 219.189948 
L 250.5152 219.852445 
L 250.8736 220.507701 
L 251.232 221.155717 
L 251.5904 221.796493 
L 251.9488 222.430028 
L 252.3072 223.056323 
L 252.6656 223.675378 
L 253.024 224.287192 
L 253.3824 224.891766 
L 253.7408 225.489099 
L 254.0992 226.079192 
L 254.4576 226.662045 
L 254.816 227.237657 
L 255.1744 227.806028 
L 255.5328 228.36716 
L 255.8912 228.921051 
L 256.2496 229.467701 
L 256.608 230.007111 
L 256.9664 230.539281 
L 257.3248 231.06421 
L 257.6832 231.581899 
L 258.0416 232.092348 
L 258.4 232.595556 
L 258.7584 233.091523 
L 259.1168 233.580251 
L 259.4752 234.061737 
L 259.8336 234.535984 
L 260.192 235.00299 
L 260.5504 235.462756 
L 260.9088 235.915281 
L 261.2672 236.360566 
L 261.6256 236.79861 
L 261.984 237.229414 
L 262.3424 237.652978 
L 262.7008 238.069301 
L 263.0592 238.478384 
L 263.4176 238.880226 
L 263.776 239.274828 
L 264.1344 239.66219 
L 264.4928 240.042311 
L 264.8512 240.415192 
L 265.2096 240.780832 
L 265.568 241.139232 
L 265.9264 241.490392 
L 266.2848 241.834311 
L 266.6432 242.17099 
L 267.0016 242.500428 
L 267.36 242.822626 
L 267.7184 243.137584 
L 268.0768 243.445301 
L 268.4352 243.745778 
L 268.7936 244.039014 
L 269.152 244.32501 
L 269.5104 244.603766 
L 269.8688 244.875281 
L 270.2272 245.139556 
L 270.5856 245.39659 
L 270.944 245.646384 
L 271.3024 245.888937 
L 271.6608 246.124251 
L 272.0192 246.352323 
L 272.3776 246.573156 
L 272.736 246.786748 
L 273.0944 246.993099 
L 273.4528 247.19221 
L 273.8112 247.384081 
L 274.1696 247.568711 
L 274.528 247.746101 
L 274.8864 247.916251 
L 275.2448 248.07916 
L 275.6032 248.234828 
L 275.9616 248.383257 
L 276.32 248.524445 
L 276.6784 248.658392 
L 277.0368 248.785099 
L 277.3952 248.904566 
L 277.7536 249.016792 
L 278.112 249.121778 
L 278.4704 249.219523 
L 278.8288 249.310028 
L 279.1872 249.393293 
L 279.5456 249.469317 
L 279.904 249.538101 
L 280.2624 249.599645 
L 280.6208 249.653948 
L 280.9792 249.70101 
L 281.3376 249.740832 
L 281.696 249.773414 
L 282.0544 249.798756 
L 282.4128 249.816857 
L 282.7712 249.827717 
L 283.1296 249.831337 
" clip-path="url(#p07c9256f0b)" style="fill: none; stroke: #000000; stroke-width: 2.2; stroke-linecap: square"/>
   </g>
   <g id="line2d_20">
    <path d="M 70.24 214.349737 
L 70.5984 214.708137 
L 70.9568 215.066537 
L 71.3152 215.424937 
L 71.6736 215.783337 
L 72.032 216.141737 
L 72.3904 216.500137 
L 72.7488 216.858537 
L 73.1072 217.216937 
L 73.4656 217.575337 
L 73.824 217.933737 
L 74.1824 218.292137 
L 74.5408 218.650537 
L 74.8992 219.008937 
L 75.2576 219.367337 
L 75.616 219.725737 
L 75.9744 220.084137 
L 76.3328 220.442537 
L 76.6912 220.800937 
L 77.0496 221.159337 
L 77.408 221.517737 
L 77.7664 221.876137 
L 78.1248 222.234537 
L 78.4832 222.592937 
L 78.8416 222.951337 
L 79.2 223.309737 
L 79.5584 223.668137 
L 79.9168 224.026537 
L 80.2752 224.384937 
L 80.6336 224.743337 
L 80.992 225.101737 
L 81.3504 225.460137 
L 81.7088 225.818537 
L 82.0672 226.176937 
L 82.4256 226.535337 
L 82.784 226.893737 
L 83.1424 227.252137 
L 83.5008 227.610537 
L 83.8592 227.968937 
L 84.2176 228.327337 
L 84.576 228.685737 
L 84.9344 229.044137 
L 85.2928 229.402537 
L 85.6512 229.760937 
L 86.0096 230.119337 
L 86.368 230.477737 
L 86.7264 230.836137 
L 87.0848 231.194537 
L 87.4432 231.552937 
L 87.8016 231.911337 
L 88.16 232.269737 
L 88.5184 232.628137 
L 88.8768 232.986537 
L 89.2352 233.344937 
L 89.5936 233.703337 
L 89.952 234.061737 
L 90.3104 234.420137 
L 90.6688 234.778537 
L 91.0272 235.136937 
L 91.3856 235.495337 
L 91.744 235.853737 
L 92.1024 236.212137 
L 92.4608 236.570537 
L 92.8192 236.928937 
L 93.1776 237.287337 
L 93.536 237.645737 
L 93.8944 238.004137 
L 94.2528 238.362537 
L 94.6112 238.720937 
L 94.9696 239.079337 
L 95.328 239.437737 
L 95.6864 239.796137 
L 96.0448 240.154537 
L 96.4032 240.512937 
L 96.7616 240.871337 
L 97.12 241.229737 
L 97.4784 241.588137 
L 97.8368 241.946537 
L 98.1952 242.304937 
L 98.5536 242.663337 
L 98.912 243.021737 
L 99.2704 243.380137 
L 99.6288 243.738537 
L 99.9872 244.096937 
L 100.3456 244.455337 
L 100.704 244.813737 
L 101.0624 245.172137 
L 101.4208 245.530537 
L 101.7792 245.888937 
L 102.1376 246.247337 
L 102.496 246.605737 
L 102.8544 246.964137 
L 103.2128 247.322537 
L 103.5712 247.680937 
L 103.9296 248.039337 
L 104.288 248.397737 
L 104.6464 248.756137 
L 105.0048 249.114537 
L 105.3632 249.472937 
L 105.7216 249.831337 
" clip-path="url(#p07c9256f0b)" style="fill: none; stroke: #000000; stroke-width: 2.5; stroke-linecap: square"/>
   </g>
   <g id="line2d_21">
    <path d="M 141.2032 249.831337 
L 141.5616 248.756137 
L 141.92 247.680937 
L 142.2784 246.605737 
L 142.6368 245.530537 
L 142.9952 244.455337 
L 143.3536 243.380137 
L 143.712 242.304937 
L 144.0704 241.229737 
L 144.4288 240.154537 
L 144.7872 239.079337 
L 145.1456 238.004137 
L 145.504 236.928937 
L 145.8624 235.853737 
L 146.2208 234.778537 
L 146.5792 233.703337 
L 146.9376 232.628137 
L 147.296 231.552937 
L 147.6544 230.477737 
L 148.0128 229.402537 
L 148.3712 228.327337 
L 148.7296 227.252137 
L 149.088 226.176937 
L 149.4464 225.101737 
L 149.8048 224.026537 
L 150.1632 222.951337 
L 150.5216 221.876137 
L 150.88 220.800937 
L 151.2384 219.725737 
L 151.5968 218.650537 
L 151.9552 217.575337 
L 152.3136 216.500137 
L 152.672 215.424937 
L 153.0304 214.349737 
L 153.3888 213.274537 
L 153.7472 212.199337 
L 154.1056 211.124137 
L 154.464 210.048937 
L 154.8224 208.973737 
L 155.1808 207.898537 
L 155.5392 206.823337 
L 155.8976 205.748137 
L 156.256 204.672937 
L 156.6144 203.597737 
L 156.9728 202.522537 
L 157.3312 201.447337 
L 157.6896 200.372137 
L 158.048 199.296937 
L 158.4064 198.221737 
L 158.7648 197.146537 
L 159.1232 196.071337 
L 159.4816 194.996137 
L 159.84 193.920937 
L 160.1984 192.845737 
L 160.5568 191.770537 
L 160.9152 190.695337 
L 161.2736 189.620137 
L 161.632 188.544937 
L 161.9904 187.469737 
L 162.3488 186.394537 
L 162.7072 185.319337 
L 163.0656 184.244137 
L 163.424 183.168937 
L 163.7824 182.093737 
L 164.1408 181.018537 
L 164.4992 179.943337 
L 164.8576 178.868137 
L 165.216 177.792937 
L 165.5744 176.717737 
L 165.9328 175.642537 
L 166.2912 174.567337 
L 166.6496 173.492137 
L 167.008 172.416937 
L 167.3664 171.341737 
L 167.7248 170.266537 
L 168.0832 169.191337 
L 168.4416 168.116137 
L 168.8 167.040937 
L 169.1584 165.965737 
L 169.5168 164.890537 
L 169.8752 163.815337 
L 170.2336 162.740137 
L 170.592 161.664937 
L 170.9504 160.589737 
L 171.3088 159.514537 
L 171.6672 158.439337 
L 172.0256 157.364137 
L 172.384 156.288937 
L 172.7424 155.213737 
L 173.1008 154.138537 
L 173.4592 153.063337 
L 173.8176 151.988137 
L 174.176 150.912937 
L 174.5344 149.837737 
L 174.8928 148.762537 
L 175.2512 147.687337 
L 175.6096 146.612137 
L 175.968 145.536937 
L 176.3264 144.461737 
L 176.6848 143.386537 
" clip-path="url(#p07c9256f0b)" style="fill: none; stroke: #000000; stroke-width: 2.5; stroke-linecap: square"/>
   </g>
   <g id="line2d_22">
    <path d="M 212.1664 143.386537 
L 212.5248 144.103337 
L 212.8832 144.820137 
L 213.2416 145.536937 
L 213.6 146.253737 
L 213.9584 146.970537 
L 214.3168 147.687337 
L 214.6752 148.404137 
L 215.0336 149.120937 
L 215.392 149.837737 
L 215.7504 150.554537 
L 216.1088 151.271337 
L 216.4672 151.988137 
L 216.8256 152.704937 
L 217.184 153.421737 
L 217.5424 154.138537 
L 217.9008 154.855337 
L 218.2592 155.572137 
L 218.6176 156.288937 
L 218.976 157.005737 
L 219.3344 157.722537 
L 219.6928 158.439337 
L 220.0512 159.156137 
L 220.4096 159.872937 
L 220.768 160.589737 
L 221.1264 161.306537 
L 221.4848 162.023337 
L 221.8432 162.740137 
L 222.2016 163.456937 
L 222.56 164.173737 
L 222.9184 164.890537 
L 223.2768 165.607337 
L 223.6352 166.324137 
L 223.9936 167.040937 
L 224.352 167.757737 
L 224.7104 168.474537 
L 225.0688 169.191337 
L 225.4272 169.908137 
L 225.7856 170.624937 
L 226.144 171.341737 
L 226.5024 172.058537 
L 226.8608 172.775337 
L 227.2192 173.492137 
L 227.5776 174.208937 
L 227.936 174.925737 
L 228.2944 175.642537 
L 228.6528 176.359337 
L 229.0112 177.076137 
L 229.3696 177.792937 
L 229.728 178.509737 
L 230.0864 179.226537 
L 230.4448 179.943337 
L 230.8032 180.660137 
L 231.1616 181.376937 
L 231.52 182.093737 
L 231.8784 182.810537 
L 232.2368 183.527337 
L 232.5952 184.244137 
L 232.9536 184.960937 
L 233.312 185.677737 
L 233.6704 186.394537 
L 234.0288 187.111337 
L 234.3872 187.828137 
L 234.7456 188.544937 
L 235.104 189.261737 
L 235.4624 189.978537 
L 235.8208 190.695337 
L 236.1792 191.412137 
L 236.5376 192.128937 
L 236.896 192.845737 
L 237.2544 193.562537 
L 237.6128 194.279337 
L 237.9712 194.996137 
L 238.3296 195.712937 
L 238.688 196.429737 
L 239.0464 197.146537 
L 239.4048 197.863337 
L 239.7632 198.580137 
L 240.1216 199.296937 
L 240.48 200.013737 
L 240.8384 200.730537 
L 241.1968 201.447337 
L 241.5552 202.164137 
L 241.9136 202.880937 
L 242.272 203.597737 
L 242.6304 204.314537 
L 242.9888 205.031337 
L 243.3472 205.748137 
L 243.7056 206.464937 
L 244.064 207.181737 
L 244.4224 207.898537 
L 244.7808 208.615337 
L 245.1392 209.332137 
L 245.4976 210.048937 
L 245.856 210.765737 
L 246.2144 211.482537 
L 246.5728 212.199337 
L 246.9312 212.916137 
L 247.2896 213.632937 
L 247.648 214.349737 
" clip-path="url(#p07c9256f0b)" style="fill: none; stroke: #000000; stroke-width: 2.5; stroke-linecap: square"/>
   </g>
   <g id="line2d_23">
    <path d="M 283.1296 249.831337 
L 283.8464 249.831337 
L 284.5632 249.831337 
L 285.28 249.831337 
L 285.9968 249.831337 
L 286.7136 249.831337 
L 287.4304 249.831337 
L 288.1472 249.831337 
L 288.864 249.831337 
L 289.5808 249.831337 
L 290.2976 249.831337 
L 291.0144 249.831337 
L 291.7312 249.831337 
L 292.448 249.831337 
L 293.1648 249.831337 
L 293.8816 249.831337 
L 294.5984 249.831337 
L 295.3152 249.831337 
L 296.032 249.831337 
L 296.7488 249.831337 
L 297.4656 249.831337 
L 298.1824 249.831337 
L 298.8992 249.831337 
L 299.616 249.831337 
L 300.3328 249.831337 
L 301.0496 249.831337 
L 301.7664 249.831337 
L 302.4832 249.831337 
L 303.2 249.831337 
L 303.9168 249.831337 
L 304.6336 249.831337 
L 305.3504 249.831337 
L 306.0672 249.831337 
L 306.784 249.831337 
L 307.5008 249.831337 
L 308.2176 249.831337 
L 308.9344 249.831337 
L 309.6512 249.831337 
L 310.368 249.831337 
L 311.0848 249.831337 
L 311.8016 249.831337 
L 312.5184 249.831337 
L 313.2352 249.831337 
L 313.952 249.831337 
L 314.6688 249.831337 
L 315.3856 249.831337 
L 316.1024 249.831337 
L 316.8192 249.831337 
L 317.536 249.831337 
L 318.2528 249.831337 
L 318.9696 249.831337 
L 319.6864 249.831337 
L 320.4032 249.831337 
L 321.12 249.831337 
L 321.8368 249.831337 
L 322.5536 249.831337 
L 323.2704 249.831337 
L 323.9872 249.831337 
L 324.704 249.831337 
L 325.4208 249.831337 
L 326.1376 249.831337 
L 326.8544 249.831337 
L 327.5712 249.831337 
L 328.288 249.831337 
L 329.0048 249.831337 
L 329.7216 249.831337 
L 330.4384 249.831337 
L 331.1552 249.831337 
L 331.872 249.831337 
L 332.5888 249.831337 
L 333.3056 249.831337 
L 334.0224 249.831337 
L 334.7392 249.831337 
L 335.456 249.831337 
L 336.1728 249.831337 
L 336.8896 249.831337 
L 337.6064 249.831337 
L 338.3232 249.831337 
L 339.04 249.831337 
L 339.7568 249.831337 
L 340.4736 249.831337 
L 341.1904 249.831337 
L 341.9072 249.831337 
L 342.624 249.831337 
L 343.3408 249.831337 
L 344.0576 249.831337 
L 344.7744 249.831337 
L 345.4912 249.831337 
L 346.208 249.831337 
L 346.9248 249.831337 
L 347.6416 249.831337 
L 348.3584 249.831337 
L 349.0752 249.831337 
L 349.792 249.831337 
L 350.5088 249.831337 
L 351.2256 249.831337 
L 351.9424 249.831337 
L 352.6592 249.831337 
L 353.376 249.831337 
L 354.0928 249.831337 
" clip-path="url(#p07c9256f0b)" style="fill: none"/>
   </g>
   <g id="line2d_24">
    <path d="M 105.7216 249.831337 
L 106.25739 250.363507 
L 106.78956 250.884816 
L 107.318109 251.395265 
L 107.843038 251.894853 
L 108.364347 252.38358 
L 108.882036 252.861447 
L 109.396105 253.328453 
L 109.906554 253.784598 
L 110.413382 254.229883 
L 110.91659 254.664307 
L 111.416178 255.087871 
L 111.912145 255.500574 
L 112.404493 255.902416 
L 112.89322 256.293398 
L 113.378327 256.673519 
L 113.859814 257.04278 
L 114.337681 257.40118 
L 114.811927 257.748719 
L 115.282554 258.085398 
L 115.74956 258.411216 
L 116.212945 258.726174 
L 116.672711 259.030271 
L 117.128857 259.323507 
L 117.581382 259.605883 
L 118.030287 259.877398 
L 118.475572 260.138053 
L 118.917236 260.387847 
L 119.355281 260.62678 
L 119.789705 260.854853 
L 120.220509 261.072065 
L 120.647693 261.278416 
L 121.071257 261.473907 
L 121.4912 261.658538 
L 121.907523 261.832307 
L 122.320226 261.995216 
L 122.729309 262.147265 
L 123.134772 262.288453 
L 123.536614 262.41878 
L 123.934836 262.538247 
L 124.329438 262.646853 
L 124.72042 262.744598 
L 125.107782 262.831483 
L 125.491523 262.907507 
L 125.871644 262.972671 
L 126.248145 263.026974 
L 126.621026 263.070416 
L 126.990287 263.102998 
L 127.355927 263.124719 
L 127.717947 263.13558 
L 128.076347 263.13558 
L 128.431127 263.124719 
L 128.782287 263.102998 
L 129.129826 263.070416 
L 129.473745 263.026974 
L 129.814044 262.972671 
L 130.150723 262.907507 
L 130.483782 262.831483 
L 130.81322 262.744598 
L 131.139038 262.646853 
L 131.461236 262.538247 
L 131.779814 262.41878 
L 132.094772 262.288453 
L 132.406109 262.147265 
L 132.713826 261.995216 
L 133.017923 261.832307 
L 133.3184 261.658538 
L 133.615257 261.473907 
L 133.908493 261.278416 
L 134.198109 261.072065 
L 134.484105 260.854853 
L 134.766481 260.62678 
L 135.045236 260.387847 
L 135.320372 260.138053 
L 135.591887 259.877398 
L 135.859782 259.605883 
L 136.124057 259.323507 
L 136.384711 259.030271 
L 136.641745 258.726174 
L 136.89516 258.411216 
L 137.144954 258.085398 
L 137.391127 257.748719 
L 137.633681 257.40118 
L 137.872614 257.04278 
L 138.107927 256.673519 
L 138.33962 256.293398 
L 138.567693 255.902416 
L 138.792145 255.500574 
L 139.012978 255.087871 
L 139.23019 254.664307 
L 139.443782 254.229883 
L 139.653754 253.784598 
L 139.860105 253.328453 
L 140.062836 252.861447 
L 140.261947 252.38358 
L 140.457438 251.894853 
L 140.649309 251.395265 
L 140.83756 250.884816 
L 141.02219 250.363507 
L 141.2032 249.831337 
" clip-path="url(#p07c9256f0b)" style="fill: none; stroke: #000000; stroke-width: 2.2; stroke-linecap: square"/>
   </g>
   <g id="line2d_25">
    <path d="M 176.6848 143.386537 
L 176.972244 142.535066 
L 177.261136 141.700971 
L 177.551476 140.884254 
L 177.843265 140.084913 
L 178.136501 139.30295 
L 178.431185 138.538363 
L 178.727318 137.791153 
L 179.024899 137.061321 
L 179.323927 136.348865 
L 179.624404 135.653786 
L 179.926329 134.976084 
L 180.229702 134.315759 
L 180.534523 133.672811 
L 180.840792 133.047241 
L 181.148509 132.439047 
L 181.457674 131.84823 
L 181.768288 131.27479 
L 182.080349 130.718727 
L 182.393859 130.180041 
L 182.708816 129.658731 
L 183.025222 129.154799 
L 183.343076 128.668244 
L 183.662377 128.199066 
L 183.983127 127.747265 
L 184.305325 127.312841 
L 184.628971 126.895793 
L 184.954065 126.496123 
L 185.280608 126.11383 
L 185.608598 125.748913 
L 185.938036 125.401374 
L 186.268923 125.071211 
L 186.601257 124.758426 
L 186.93504 124.463018 
L 187.270271 124.184986 
L 187.606949 123.924331 
L 187.945076 123.681054 
L 188.284651 123.455153 
L 188.625674 123.24663 
L 188.968145 123.055483 
L 189.312065 122.881713 
L 189.657432 122.725321 
L 190.004247 122.586305 
L 190.352511 122.464666 
L 190.702222 122.360404 
L 191.053382 122.273519 
L 191.405989 122.204011 
L 191.760045 122.151881 
L 192.115549 122.117127 
L 192.472501 122.09975 
L 192.830901 122.09975 
L 193.190749 122.117127 
L 193.552045 122.151881 
L 193.914789 122.204011 
L 194.278982 122.273519 
L 194.644622 122.360404 
L 195.011711 122.464666 
L 195.380247 122.586305 
L 195.750232 122.725321 
L 196.121665 122.881713 
L 196.494545 123.055483 
L 196.868874 123.24663 
L 197.244651 123.455153 
L 197.621876 123.681054 
L 198.000549 123.924331 
L 198.380671 124.184986 
L 198.76224 124.463018 
L 199.145257 124.758426 
L 199.529723 125.071211 
L 199.915636 125.401374 
L 200.302998 125.748913 
L 200.691808 126.11383 
L 201.082065 126.496123 
L 201.473771 126.895793 
L 201.866925 127.312841 
L 202.261527 127.747265 
L 202.657577 128.199066 
L 203.055076 128.668244 
L 203.454022 129.154799 
L 203.854416 129.658731 
L 204.256259 130.180041 
L 204.659549 130.718727 
L 205.064288 131.27479 
L 205.470474 131.84823 
L 205.878109 132.439047 
L 206.287192 133.047241 
L 206.697723 133.672811 
L 207.109702 134.315759 
L 207.523129 134.976084 
L 207.938004 135.653786 
L 208.354327 136.348865 
L 208.772099 137.061321 
L 209.191318 137.791153 
L 209.611985 138.538363 
L 210.034101 139.30295 
L 210.457665 140.084913 
L 210.882676 140.884254 
L 211.309136 141.700971 
L 211.737044 142.535066 
L 212.1664 143.386537 
" clip-path="url(#p07c9256f0b)" style="fill: none; stroke: #000000; stroke-width: 2.2; stroke-linecap: square"/>
   </g>
   <g id="line2d_26">
    <path d="M 247.648 214.349737 
L 248.0064 215.062917 
L 248.3648 215.768857 
L 248.7232 216.467556 
L 249.0816 217.159014 
L 249.44 217.843232 
L 249.7984 218.52021 
L 250.1568 219.189948 
L 250.5152 219.852445 
L 250.8736 220.507701 
L 251.232 221.155717 
L 251.5904 221.796493 
L 251.9488 222.430028 
L 252.3072 223.056323 
L 252.6656 223.675378 
L 253.024 224.287192 
L 253.3824 224.891766 
L 253.7408 225.489099 
L 254.0992 226.079192 
L 254.4576 226.662045 
L 254.816 227.237657 
L 255.1744 227.806028 
L 255.5328 228.36716 
L 255.8912 228.921051 
L 256.2496 229.467701 
L 256.608 230.007111 
L 256.9664 230.539281 
L 257.3248 231.06421 
L 257.6832 231.581899 
L 258.0416 232.092348 
L 258.4 232.595556 
L 258.7584 233.091523 
L 259.1168 233.580251 
L 259.4752 234.061737 
L 259.8336 234.535984 
L 260.192 235.00299 
L 260.5504 235.462756 
L 260.9088 235.915281 
L 261.2672 236.360566 
L 261.6256 236.79861 
L 261.984 237.229414 
L 262.3424 237.652978 
L 262.7008 238.069301 
L 263.0592 238.478384 
L 263.4176 238.880226 
L 263.776 239.274828 
L 264.1344 239.66219 
L 264.4928 240.042311 
L 264.8512 240.415192 
L 265.2096 240.780832 
L 265.568 241.139232 
L 265.9264 241.490392 
L 266.2848 241.834311 
L 266.6432 242.17099 
L 267.0016 242.500428 
L 267.36 242.822626 
L 267.7184 243.137584 
L 268.0768 243.445301 
L 268.4352 243.745778 
L 268.7936 244.039014 
L 269.152 244.32501 
L 269.5104 244.603766 
L 269.8688 244.875281 
L 270.2272 245.139556 
L 270.5856 245.39659 
L 270.944 245.646384 
L 271.3024 245.888937 
L 271.6608 246.124251 
L 272.0192 246.352323 
L 272.3776 246.573156 
L 272.736 246.786748 
L 273.0944 246.993099 
L 273.4528 247.19221 
L 273.8112 247.384081 
L 274.1696 247.568711 
L 274.528 247.746101 
L 274.8864 247.916251 
L 275.2448 248.07916 
L 275.6032 248.234828 
L 275.9616 248.383257 
L 276.32 248.524445 
L 276.6784 248.658392 
L 277.0368 248.785099 
L 277.3952 248.904566 
L 277.7536 249.016792 
L 278.112 249.121778 
L 278.4704 249.219523 
L 278.8288 249.310028 
L 279.1872 249.393293 
L 279.5456 249.469317 
L 279.904 249.538101 
L 280.2624 249.599645 
L 280.6208 249.653948 
L 280.9792 249.70101 
L 281.3376 249.740832 
L 281.696 249.773414 
L 282.0544 249.798756 
L 282.4128 249.816857 
L 282.7712 249.827717 
L 283.1296 249.831337 
" clip-path="url(#p07c9256f0b)" style="fill: none; stroke: #000000; stroke-width: 2.2; stroke-linecap: square"/>
   </g>
   <g id="matplotlib.axis_1">
    <g id="xtick_1">
     <g id="line2d_27">
      <defs>
       <path id="md728c27d58" d="M 0 0 
L 0 6.5 
" style="stroke: #000000; stroke-width: 2"/>
      </defs>
      <g>
       <use xlink:href="#md728c27d58" x="141.2032" y="285.312937" style="stroke: #000000; stroke-width: 2"/>
      </g>
     </g>
     <g id="text_1">
      <!-- 1 -->
      <g transform="translate(132.7882 319.314812) scale(0.34 -0.34)">
       <defs>
        <path id="STIXTwoText-31" d="M 2726 0 
L 512 0 
L 512 179 
Q 966 179 1152 275 
Q 1338 371 1338 608 
L 1338 3315 
Q 1338 3482 1293 3555 
Q 1248 3629 1126 3629 
Q 1062 3629 947 3616 
Q 832 3603 704 3580 
Q 576 3558 474 3526 
L 474 3738 
L 1715 4090 
L 1901 4090 
L 1901 608 
Q 1901 371 2093 275 
Q 2285 179 2726 179 
L 2726 0 
z
" transform="scale(0.015625)"/>
       </defs>
       <use xlink:href="#STIXTwoText-31"/>
      </g>
     </g>
    </g>
    <g id="xtick_2">
     <g id="line2d_28">
      <g>
       <use xlink:href="#md728c27d58" x="212.1664" y="285.312937" style="stroke: #000000; stroke-width: 2"/>
      </g>
     </g>
     <g id="text_2">
      <!-- 2 -->
      <g transform="translate(203.7514 319.314812) scale(0.34 -0.34)">
       <defs>
        <path id="STIXTwoText-32" d="M 2765 0 
L 243 0 
L 243 218 
L 1216 1190 
Q 1536 1517 1747 1782 
Q 1958 2048 2064 2317 
Q 2170 2586 2170 2918 
Q 2170 3277 1955 3491 
Q 1741 3706 1370 3706 
Q 1056 3706 835 3571 
Q 614 3437 435 3078 
L 282 3142 
Q 429 3610 749 3866 
Q 1069 4122 1536 4122 
Q 1901 4122 2176 3984 
Q 2451 3846 2608 3600 
Q 2765 3354 2765 3014 
Q 2765 2733 2646 2473 
Q 2528 2214 2294 1939 
Q 2061 1664 1722 1318 
L 877 518 
L 877 486 
L 1325 506 
L 2214 506 
Q 2470 506 2572 621 
Q 2675 736 2784 1024 
L 2970 1024 
L 2765 0 
z
" transform="scale(0.015625)"/>
       </defs>
       <use xlink:href="#STIXTwoText-32"/>
      </g>
     </g>
    </g>
    <g id="xtick_3">
     <g id="line2d_29">
      <g>
       <use xlink:href="#md728c27d58" x="283.1296" y="285.312937" style="stroke: #000000; stroke-width: 2"/>
      </g>
     </g>
     <g id="text_3">
      <!-- 3 -->
      <g transform="translate(274.7146 319.314812) scale(0.34 -0.34)">
       <defs>
        <path id="STIXTwoText-33" d="M 1094 -83 
Q 806 -83 652 -28 
Q 499 26 438 106 
Q 378 186 378 269 
Q 378 371 442 460 
Q 506 550 627 550 
Q 723 550 828 502 
Q 934 454 1049 393 
Q 1165 333 1283 285 
Q 1402 237 1523 237 
Q 1728 237 1907 310 
Q 2086 384 2201 560 
Q 2317 736 2317 1050 
Q 2317 1338 2157 1549 
Q 1997 1760 1731 1878 
Q 1466 1997 1158 1997 
L 1030 1997 
L 1030 2240 
L 1152 2240 
Q 1370 2240 1574 2349 
Q 1779 2458 1910 2656 
Q 2042 2854 2042 3110 
Q 2042 3392 1866 3549 
Q 1690 3706 1389 3706 
Q 1101 3706 909 3574 
Q 717 3443 550 3187 
L 403 3270 
Q 582 3686 876 3904 
Q 1171 4122 1562 4122 
Q 2054 4122 2323 3875 
Q 2592 3629 2592 3264 
Q 2592 2931 2397 2726 
Q 2202 2522 1901 2330 
L 1901 2310 
Q 2157 2234 2371 2090 
Q 2586 1946 2714 1738 
Q 2842 1530 2842 1242 
Q 2842 806 2598 508 
Q 2355 211 1958 64 
Q 1562 -83 1094 -83 
z
" transform="scale(0.015625)"/>
       </defs>
       <use xlink:href="#STIXTwoText-33"/>
      </g>
     </g>
    </g>
    <g id="xtick_4">
     <g id="line2d_30"/>
     <g id="text_4">
      <!-- $t,\rm{мин}$ -->
      <g transform="translate(330.84176 319.314812) scale(0.34 -0.34)">
       <defs>
        <path id="STIXTwoText-Italic-74" d="M 736 -58 
Q 538 -58 442 38 
Q 346 134 346 282 
Q 346 365 365 483 
Q 384 602 390 646 
L 826 2739 
L 461 2739 
L 486 2874 
Q 691 2982 828 3084 
Q 966 3187 1091 3353 
Q 1216 3520 1376 3795 
L 1568 3795 
L 960 832 
Q 960 832 937 713 
Q 915 595 915 512 
Q 915 461 937 419 
Q 960 378 1024 378 
Q 1165 378 1283 461 
Q 1402 544 1568 762 
L 1696 666 
Q 1606 544 1478 371 
Q 1350 198 1171 70 
Q 992 -58 736 -58 
z
M 1984 2739 
L 1274 2739 
L 1325 2989 
L 2035 2989 
L 1984 2739 
z
" transform="scale(0.015625)"/>
        <path id="STIXTwoText-2c" d="M 448 -845 
L 371 -685 
Q 493 -634 614 -554 
Q 736 -474 819 -320 
Q 902 -166 902 90 
Q 800 51 704 51 
Q 518 51 435 153 
Q 352 256 352 397 
Q 352 550 454 662 
Q 557 774 749 774 
Q 909 774 1017 707 
Q 1126 640 1184 515 
Q 1242 390 1242 211 
Q 1242 -58 1155 -243 
Q 1069 -429 941 -544 
Q 813 -659 678 -729 
Q 544 -800 448 -845 
z
" transform="scale(0.015625)"/>
        <path id="STIXTwoText-43c" d="M 1331 0 
L 115 0 
L 115 179 
Q 320 179 422 211 
Q 525 243 557 352 
Q 589 461 589 691 
L 589 2432 
Q 589 2611 557 2697 
Q 525 2784 425 2813 
Q 326 2842 128 2842 
L 128 3027 
L 1235 3027 
L 2214 832 
L 2234 832 
L 3206 3027 
L 4262 3027 
L 4262 2842 
Q 3994 2842 3901 2768 
Q 3808 2694 3808 2426 
L 3808 576 
Q 3808 339 3888 259 
Q 3968 179 4262 179 
L 4262 0 
L 2848 0 
L 2848 179 
Q 3053 179 3139 211 
Q 3226 243 3248 329 
Q 3270 416 3270 576 
L 3270 2490 
L 3251 2490 
L 2157 0 
L 2029 0 
L 902 2445 
L 877 2445 
L 877 691 
Q 877 461 912 352 
Q 947 243 1046 211 
Q 1146 179 1331 179 
L 1331 0 
z
" transform="scale(0.015625)"/>
        <path id="STIXTwoText-438" d="M 1613 0 
L 205 0 
L 205 179 
Q 474 179 563 252 
Q 653 326 653 582 
L 653 2438 
Q 653 2611 624 2697 
Q 595 2784 502 2813 
Q 410 2842 211 2842 
L 211 3027 
L 1613 3027 
L 1613 2842 
Q 1427 2842 1334 2813 
Q 1242 2784 1216 2697 
Q 1190 2611 1190 2426 
L 1190 864 
L 1203 864 
L 2701 2490 
Q 2701 2720 2624 2781 
Q 2547 2842 2285 2842 
L 2285 3027 
L 3680 3027 
L 3680 2842 
Q 3501 2842 3405 2813 
Q 3309 2784 3277 2688 
Q 3245 2592 3245 2394 
L 3245 582 
Q 3245 326 3337 252 
Q 3430 179 3674 179 
L 3674 0 
L 2285 0 
L 2285 179 
Q 2541 179 2621 252 
Q 2701 326 2701 582 
L 2701 2131 
L 2688 2131 
L 1190 518 
Q 1190 326 1273 252 
Q 1357 179 1613 179 
L 1613 0 
z
" transform="scale(0.015625)"/>
        <path id="STIXTwoText-43d" d="M 1626 0 
L 192 0 
L 192 179 
Q 397 179 493 211 
Q 589 243 621 336 
Q 653 429 653 621 
L 653 2374 
Q 653 2573 627 2672 
Q 602 2771 506 2806 
Q 410 2842 192 2842 
L 192 3027 
L 1626 3027 
L 1626 2842 
Q 1421 2842 1328 2800 
Q 1235 2758 1212 2659 
Q 1190 2560 1190 2374 
L 1190 1683 
L 2675 1683 
L 2675 2374 
Q 2675 2560 2656 2659 
Q 2637 2758 2547 2800 
Q 2458 2842 2246 2842 
L 2246 3027 
L 3680 3027 
L 3680 2842 
Q 3456 2842 3357 2800 
Q 3258 2758 3238 2659 
Q 3219 2560 3219 2374 
L 3219 640 
Q 3219 442 3248 342 
Q 3277 243 3376 211 
Q 3475 179 3680 179 
L 3680 0 
L 2246 0 
L 2246 179 
Q 2458 179 2547 211 
Q 2637 243 2656 342 
Q 2675 442 2675 640 
L 2675 1453 
L 1190 1453 
L 1190 640 
Q 1190 442 1212 342 
Q 1235 243 1328 211 
Q 1421 179 1626 179 
L 1626 0 
z
" transform="scale(0.015625)"/>
       </defs>
       <use xlink:href="#STIXTwoText-Italic-74" transform="translate(0 0.703125)"/>
       <use xlink:href="#STIXTwoText-2c" transform="translate(29.799988 0.703125)"/>
       <use xlink:href="#STIXTwoText-43c" transform="translate(70.799969 0.703125)"/>
       <use xlink:href="#STIXTwoText-438" transform="translate(140.499951 0.703125)"/>
       <use xlink:href="#STIXTwoText-43d" transform="translate(201.399945 0.703125)"/>
      </g>
     </g>
    </g>
    <g id="xtick_5">
     <g id="line2d_31"/>
     <g id="text_5">
      <!-- $0$ -->
      <g transform="translate(47.54736 319.314812) scale(0.34 -0.34)">
       <defs>
        <path id="STIXTwoText-30" d="M 1581 -70 
Q 1197 -70 928 99 
Q 659 269 492 563 
Q 326 858 249 1242 
Q 173 1626 173 2048 
Q 173 2656 336 3120 
Q 499 3584 816 3846 
Q 1133 4109 1594 4109 
Q 2010 4109 2323 3862 
Q 2637 3616 2816 3152 
Q 2995 2688 2995 2029 
Q 2995 1619 2915 1241 
Q 2835 864 2665 569 
Q 2496 275 2227 102 
Q 1958 -70 1581 -70 
z
M 1581 160 
Q 1958 160 2166 614 
Q 2374 1069 2374 1990 
Q 2374 2963 2172 3427 
Q 1971 3891 1574 3891 
Q 1197 3891 992 3430 
Q 787 2970 787 2016 
Q 787 1088 992 624 
Q 1197 160 1581 160 
z
" transform="scale(0.015625)"/>
       </defs>
       <use xlink:href="#STIXTwoText-30" transform="translate(0 0.796875)"/>
      </g>
     </g>
    </g>
   </g>
   <g id="matplotlib.axis_2">
    <g id="ytick_1">
     <g id="line2d_32">
      <defs>
       <path id="mdfedda2da0" d="M 0 0 
L -6.5 0 
" style="stroke: #000000; stroke-width: 2"/>
      </defs>
      <g>
       <use xlink:href="#mdfedda2da0" x="70.24" y="214.349737" style="stroke: #000000; stroke-width: 2"/>
      </g>
     </g>
     <g id="text_6">
      <!-- 200 -->
      <g transform="translate(9.75 226.350675) scale(0.34 -0.34)">
       <use xlink:href="#STIXTwoText-32"/>
       <use xlink:href="#STIXTwoText-30" x="49.499985"/>
       <use xlink:href="#STIXTwoText-30" x="98.999969"/>
      </g>
     </g>
    </g>
    <g id="ytick_2">
     <g id="line2d_33">
      <g>
       <use xlink:href="#mdfedda2da0" x="70.24" y="143.386537" style="stroke: #000000; stroke-width: 2"/>
      </g>
     </g>
     <g id="text_7">
      <!-- 400 -->
      <g transform="translate(9.75 155.387475) scale(0.34 -0.34)">
       <defs>
        <path id="STIXTwoText-34" d="M 2426 0 
L 1856 0 
L 1856 1011 
L 83 1011 
L 83 1414 
L 2035 4128 
L 2426 4128 
L 2426 1453 
L 3078 1453 
L 3078 1011 
L 2426 1011 
L 2426 0 
z
M 435 1478 
L 435 1453 
L 1856 1453 
L 1856 3430 
L 1830 3430 
L 435 1478 
z
" transform="scale(0.015625)"/>
       </defs>
       <use xlink:href="#STIXTwoText-34"/>
       <use xlink:href="#STIXTwoText-30" x="49.499985"/>
       <use xlink:href="#STIXTwoText-30" x="98.999969"/>
      </g>
     </g>
    </g>
    <g id="ytick_3">
     <g id="line2d_34">
      <g>
       <use xlink:href="#mdfedda2da0" x="70.24" y="72.423337" style="stroke: #000000; stroke-width: 2"/>
      </g>
     </g>
     <g id="text_8">
      <!-- 600 -->
      <g transform="translate(9.75 84.424275) scale(0.34 -0.34)">
       <defs>
        <path id="STIXTwoText-36" d="M 1658 -77 
Q 1184 -77 880 156 
Q 576 390 432 784 
Q 288 1178 288 1645 
Q 288 2221 464 2675 
Q 640 3130 957 3446 
Q 1274 3763 1706 3939 
Q 2138 4115 2656 4134 
L 2669 3949 
Q 2221 3885 1849 3661 
Q 1478 3437 1228 3078 
Q 979 2720 896 2253 
L 941 2246 
Q 1139 2438 1331 2540 
Q 1523 2643 1773 2643 
Q 2298 2643 2611 2284 
Q 2925 1926 2925 1299 
Q 2925 646 2595 284 
Q 2266 -77 1658 -77 
z
M 1683 147 
Q 2003 147 2185 393 
Q 2368 640 2368 1248 
Q 2368 1683 2173 1977 
Q 1978 2272 1581 2272 
Q 1395 2272 1232 2198 
Q 1069 2125 966 1958 
Q 864 1792 864 1510 
Q 864 1114 953 806 
Q 1043 499 1225 323 
Q 1408 147 1683 147 
z
" transform="scale(0.015625)"/>
       </defs>
       <use xlink:href="#STIXTwoText-36"/>
       <use xlink:href="#STIXTwoText-30" x="49.499985"/>
       <use xlink:href="#STIXTwoText-30" x="98.999969"/>
      </g>
     </g>
    </g>
    <g id="ytick_4">
     <g id="line2d_35"/>
     <g id="text_9">
      <!-- $x,\rm{м}$ -->
      <g transform="translate(7.2 31.201875) scale(0.34 -0.34)">
       <defs>
        <path id="STIXTwoText-Italic-78" d="M 2067 -64 
Q 1830 -64 1718 109 
Q 1606 282 1530 595 
L 1357 1306 
L 1286 1414 
L 1088 2061 
Q 1005 2330 925 2483 
Q 845 2637 726 2701 
Q 608 2765 416 2765 
Q 365 2765 317 2761 
Q 269 2758 205 2746 
L 205 2938 
L 1075 3040 
L 1171 3040 
Q 1286 2906 1379 2701 
Q 1472 2496 1536 2234 
L 1626 1843 
L 1690 1722 
L 1843 1222 
Q 1978 794 2086 595 
Q 2195 397 2355 397 
Q 2483 397 2588 499 
Q 2694 602 2810 755 
L 2944 653 
Q 2880 550 2790 425 
Q 2701 301 2592 189 
Q 2483 77 2352 6 
Q 2221 -64 2067 -64 
z
M 134 -58 
Q -70 -58 -153 41 
Q -237 141 -237 250 
Q -237 358 -169 441 
Q -102 525 19 525 
Q 115 525 227 483 
Q 339 442 416 442 
Q 429 442 473 458 
Q 518 474 601 550 
Q 685 627 806 806 
L 1306 1530 
L 1434 1242 
L 1344 1242 
L 934 576 
Q 781 326 601 134 
Q 422 -58 134 -58 
z
M 2099 2278 
L 1670 1600 
L 1549 1907 
L 1632 1907 
L 1946 2445 
Q 2029 2592 2141 2733 
Q 2253 2874 2406 2970 
Q 2560 3066 2758 3066 
Q 2925 3066 2998 2992 
Q 3072 2918 3072 2790 
Q 3072 2630 2982 2556 
Q 2893 2483 2784 2483 
Q 2694 2483 2608 2515 
Q 2522 2547 2438 2547 
Q 2336 2547 2259 2480 
Q 2182 2413 2099 2278 
z
" transform="scale(0.015625)"/>
       </defs>
       <use xlink:href="#STIXTwoText-Italic-78" transform="translate(0 0.09375)"/>
       <use xlink:href="#STIXTwoText-2c" transform="translate(45.299988 0.09375)"/>
       <use xlink:href="#STIXTwoText-43c" transform="translate(86.299969 0.09375)"/>
      </g>
     </g>
    </g>
   </g>
   <g id="patch_3">
    <path d="M 70.24 285.312937 
Q 205.07008 285.312937 338.619904 285.312937 
" style="fill: none; stroke: #000000; stroke-width: 2.56; stroke-linecap: round"/>
    <path d="M 322.040957 281.168201 
L 338.619904 285.312937 
L 322.040957 289.457674 
z
" style="stroke: #000000; stroke-width: 2.56; stroke-linecap: round"/>
   </g>
   <g id="patch_4">
    <path d="M 70.24 285.312937 
Q 70.24 152.256937 70.24 24.320941 
" style="fill: none; stroke: #000000; stroke-width: 2.56; stroke-linecap: round"/>
    <path d="M 66.095263 40.899889 
L 70.24 24.320941 
L 74.384737 40.899889 
z
" style="stroke: #000000; stroke-width: 2.56; stroke-linecap: round"/>
   </g>
  </g>
 </g>
 <defs>
  <clipPath id="p07c9256f0b">
   <rect x="56.04736" y="19.200937" width="319.3344" height="266.112"/>
  </clipPath>
 </defs>
</svg>
