<?xml version="1.0" standalone="no"?>
<!DOCTYPE svg PUBLIC "-//W3C//DTD SVG 20010904//EN"
 "http://www.w3.org/TR/2001/REC-SVG-20010904/DTD/svg10.dtd">
<svg version="1.0" xmlns="http://www.w3.org/2000/svg"
 width="1095.943129pt" height="1279.996261pt" viewBox="0 0 1095.943129 1279.996261"
 preserveAspectRatio="xMidYMid meet">
<metadata>
Created by potrace 1.16, written by Peter Selinger 2001-2019
</metadata>
<g transform="translate(-8.056871,1483.000000) scale(0.100000,-0.100000)"
fill="#000000" stroke="none">
<path d="M304 14800 c-15 -25 -24 -29 -68 -32 -66 -4 -76 -28 -11 -28 29 0 44
-4 40 -10 -4 -6 -16 -8 -26 -5 -22 7 -52 -12 -43 -26 3 -5 14 -9 26 -9 14 0
18 -5 14 -16 -3 -9 -9 -27 -12 -41 -6 -22 -4 -24 17 -21 13 1 24 10 25 18 2
50 14 60 71 60 l55 0 -17 -27 c-10 -16 -24 -37 -32 -48 -16 -24 -17 -45 0 -45
6 0 29 27 51 60 21 33 42 60 47 60 5 0 9 7 9 15 0 9 12 20 26 25 14 6 24 16
21 23 -2 6 4 22 15 34 21 22 17 43 -6 43 -8 0 -24 -16 -37 -35 -14 -20 -30
-33 -37 -30 -8 3 -34 5 -58 5 -45 0 -45 0 -30 22 21 30 20 38 -3 38 -11 0 -28
-13 -37 -30z m116 -70 c0 -6 -27 -10 -61 -10 -37 0 -58 4 -54 10 3 6 31 10 61
10 30 0 54 -4 54 -10z"/>
<path d="M1339 14803 c-24 -63 -69 -247 -64 -261 12 -32 30 1 67 123 47 158
47 158 26 163 -12 2 -21 -6 -29 -25z"/>
<path d="M627 14813 c-4 -3 -7 -12 -7 -20 0 -10 21 -13 86 -13 62 0 85 -3 82
-12 -3 -7 -53 -34 -113 -60 -60 -27 -113 -54 -117 -61 -4 -6 -2 -18 5 -25 22
-27 275 -6 327 27 27 18 1 24 -47 11 -26 -6 -88 -14 -138 -16 l-90 -4 100 48
c115 56 137 75 113 99 -26 25 -182 46 -201 26z"/>
<path d="M1015 14773 c-57 -16 -95 -67 -95 -127 0 -104 197 -103 261 1 42 68
2 124 -93 129 -29 1 -62 0 -73 -3z m130 -43 c34 -28 0 -97 -60 -120 -36 -14
-98 -13 -113 2 -12 12 -17 78 -6 78 3 0 14 -5 25 -10 24 -13 46 -3 30 13 -15
15 -14 23 6 42 19 20 92 16 118 -5z"/>
<path d="M4730 14477 c-27 -14 -32 -56 -9 -83 21 -25 32 -16 25 21 -6 33 -5
35 19 35 29 0 85 -26 85 -39 0 -5 -16 -21 -35 -35 -47 -36 -48 -72 -2 -91 45
-19 237 -32 237 -16 0 6 -2 11 -5 11 -30 0 -212 33 -219 40 -5 5 7 22 28 40
20 18 36 40 36 49 0 24 -30 50 -77 67 -48 17 -52 17 -83 1z"/>
<path d="M1535 14464 c-110 -7 -416 -16 -680 -20 -416 -6 -499 -4 -624 10 -79
9 -146 15 -148 12 -3 -3 -3 -11 0 -19 13 -34 515 -47 1043 -26 153 6 358 14
454 17 141 6 175 10 175 21 0 8 -4 15 -10 16 -5 1 -100 -4 -210 -11z"/>
<path d="M8243 14430 c-24 -10 -31 -34 -13 -45 5 -3 20 1 32 9 35 25 138 15
138 -13 0 -5 -26 -29 -57 -53 -43 -32 -58 -50 -58 -68 0 -34 27 -45 171 -69
138 -24 144 -24 144 -12 0 5 -61 24 -135 41 -74 18 -135 36 -135 41 0 5 23 26
50 46 50 37 69 70 55 93 -21 34 -138 51 -192 30z"/>
<path d="M3285 14358 c-42 -38 -48 -104 -41 -473 6 -335 3 -386 -32 -452 -9
-16 -8 -23 2 -32 11 -10 19 -7 36 11 l22 23 -6 -115 c-3 -63 -12 -176 -21
-250 -20 -179 -19 -331 1 -400 18 -61 78 -130 113 -130 28 0 27 14 -4 28 -13
6 -37 35 -52 64 -24 47 -28 66 -31 173 -3 83 3 178 18 305 12 102 23 220 23
263 2 70 -1 81 -20 96 -19 16 -20 23 -12 57 5 22 6 171 2 350 -3 170 -3 322 0
336 5 20 12 25 26 21 41 -11 74 93 42 131 -18 22 -35 20 -66 -6z m21 -86 c-15
-15 -16 -15 -16 0 0 10 6 30 13 45 l12 28 3 -29 c2 -17 -3 -35 -12 -44z"/>
<path d="M933 14351 c-43 -20 -73 -62 -73 -102 0 -20 -3 -21 -47 -14 -27 3
-58 13 -71 21 -18 12 -27 13 -37 4 -36 -30 26 -60 125 -60 54 0 98 -16 73 -26
-36 -15 -95 -69 -113 -103 -28 -56 -25 -78 15 -118 l36 -36 97 6 c68 3 121 13
171 30 78 27 88 33 78 44 -4 4 -31 -1 -60 -10 -28 -9 -91 -21 -139 -27 -98
-13 -150 -3 -169 31 -30 58 69 151 176 166 60 8 59 35 0 44 -43 6 -45 4 35 36
43 17 80 51 80 73 0 51 -104 75 -177 41z m131 -31 c15 -15 -20 -47 -72 -64
-84 -29 -111 -17 -76 33 31 44 117 62 148 31z"/>
<path d="M1896 14353 c-3 -10 -1 -373 4 -808 9 -813 11 -872 65 -1445 8 -91
20 -281 25 -423 7 -161 15 -265 22 -276 9 -15 8 -28 -3 -57 -20 -54 -60 -71
-220 -94 -296 -43 -331 -44 -899 -45 -564 0 -600 -2 -600 -37 0 -6 9 -8 23 -4
57 17 207 23 367 15 447 -21 889 0 1213 58 101 18 141 43 156 100 11 40 4 151
-11 170 -5 7 -14 103 -19 215 -5 112 -22 356 -38 543 -46 524 -51 659 -51
1405 1 601 -1 695 -14 698 -8 2 -17 -5 -20 -15z"/>
<path d="M3890 14331 c-68 -21 -141 -83 -174 -148 -50 -99 -22 -172 70 -180
66 -6 233 51 211 73 -3 3 -37 -3 -74 -14 -109 -32 -121 -33 -158 -18 -38 16
-43 33 -25 97 20 72 121 159 185 159 26 0 29 -3 39 -52 7 -29 39 -39 49 -15
10 26 -24 85 -55 96 -35 12 -33 12 -68 2z"/>
<path d="M4425 14290 c-3 -5 -11 -63 -17 -129 -10 -107 -9 -123 6 -145 9 -15
23 -26 30 -26 24 0 68 42 108 104 28 43 38 53 34 34 -14 -64 37 -169 68 -138
8 8 7 13 -4 20 -11 7 -16 37 -20 127 -6 146 -17 151 -78 38 -23 -44 -59 -96
-78 -115 l-36 -35 7 95 c3 52 12 107 19 121 9 17 10 32 4 43 -10 18 -34 21
-43 6z"/>
<path d="M7911 14247 c-54 -27 -89 -165 -48 -191 13 -8 24 -7 47 6 36 21 37
17 15 -82 -20 -91 -20 -189 1 -197 22 -8 40 12 26 30 -21 24 27 278 59 313 35
37 20 92 -31 119 -35 18 -38 18 -69 2z m52 -33 c9 -10 -27 -75 -57 -103 -22
-20 -26 -22 -26 -7 0 20 26 84 41 103 12 14 32 17 42 7z"/>
<path d="M4742 14055 c-43 -50 -22 -126 41 -148 54 -20 78 53 32 98 -13 14
-28 25 -33 25 -5 0 -7 11 -4 25 6 32 -8 32 -36 0z m58 -95 c0 -11 -4 -20 -8
-20 -14 0 -32 24 -32 42 0 16 3 17 20 8 11 -6 20 -20 20 -30z"/>
<path d="M8715 14027 c-8 -13 -20 -37 -26 -55 -13 -38 -29 -33 -29 9 0 24 -4
29 -25 29 -32 0 -33 -27 -4 -87 20 -42 20 -44 3 -88 -27 -71 -1 -71 42 1 10
17 12 17 34 1 27 -19 65 -22 75 -7 3 5 -9 16 -27 23 -57 24 -63 39 -38 94 11
26 28 55 36 65 9 9 13 22 9 27 -11 18 -34 12 -50 -12z"/>
<path d="M6604 14016 c-37 -16 -74 -61 -74 -89 0 -18 -5 -19 -55 -14 -33 3
-67 14 -85 27 -31 22 -65 21 -58 -2 11 -33 59 -52 146 -59 48 -3 104 -13 125
-21 l39 -15 -45 -26 c-87 -51 -124 -116 -97 -167 24 -44 180 -64 278 -35 61
18 73 42 15 29 -105 -24 -263 2 -263 44 0 28 58 83 129 121 34 18 60 38 58 44
-2 6 -30 18 -62 26 l-58 14 54 20 c82 30 111 66 76 95 -22 19 -90 23 -123 8z
m96 -36 c0 -12 -43 -35 -92 -48 -45 -12 -49 -1 -12 33 19 18 38 25 65 25 22 0
39 -4 39 -10z"/>
<path d="M8436 14009 c-33 -26 -68 -93 -64 -122 2 -13 14 -25 30 -31 22 -8 34
-5 66 17 38 25 40 25 45 7 7 -27 55 -44 84 -31 33 15 28 29 -9 33 -32 3 -33 4
-39 60 -4 32 -12 65 -19 73 -18 21 -63 19 -94 -6z m64 -34 c0 -19 -58 -85 -76
-85 -11 0 -11 6 -3 28 20 53 79 96 79 57z"/>
<path d="M4071 13970 c-45 -54 -51 -87 -13 -83 34 4 31 -43 -3 -51 -31 -8 -33
-34 -2 -41 44 -11 170 -10 174 1 2 7 -16 14 -49 18 l-54 7 8 87 c12 131 4 139
-61 62z"/>
<path d="M8085 14000 c-6 -10 -35 -165 -35 -187 0 -29 38 -12 54 25 9 20 31
53 47 72 l30 35 -6 -30 c-12 -60 -11 -70 12 -73 16 -2 23 3 28 27 3 16 18 42
32 57 30 32 43 21 43 -38 0 -20 3 -43 6 -52 7 -17 54 -22 54 -6 0 6 -4 10 -10
10 -5 0 -10 20 -10 44 0 86 -28 118 -80 92 -24 -12 -30 -12 -43 1 -17 18 -49
5 -80 -31 -16 -18 -18 -18 -13 -3 19 58 19 67 -2 67 -12 0 -24 -4 -27 -10z"/>
<path d="M5807 13843 c-4 -3 -7 -13 -7 -22 0 -9 -21 -58 -47 -108 -43 -85 -46
-94 -31 -109 13 -13 20 -14 37 -4 12 6 29 10 39 9 9 -1 57 -1 105 0 117 1 120
11 30 104 -45 46 -73 84 -77 105 -7 30 -32 43 -49 25z m133 -200 c0 -1 -40 -3
-89 -3 l-89 0 31 63 32 62 57 -59 c32 -33 58 -61 58 -63z"/>
<path d="M6110 13804 c-62 -52 -81 -138 -38 -168 30 -21 44 -20 81 6 l30 22
-6 -45 c-4 -24 -10 -97 -14 -161 -6 -116 -6 -118 15 -118 20 0 22 5 22 58 0
31 7 120 17 198 15 124 19 141 34 137 25 -7 32 13 14 46 -30 58 -102 69 -155
25z m80 -30 c0 -46 -48 -114 -82 -114 -38 0 -13 92 34 124 32 23 48 20 48 -10z"/>
<path d="M7070 13768 c0 -21 1 -21 166 -15 92 4 169 8 171 11 19 19 -25 25
-172 25 -163 1 -165 1 -165 -21z"/>
<path d="M5257 13764 c-3 -3 -4 -11 -2 -17 2 -7 6 -25 10 -41 l6 -29 -65 6
c-43 4 -68 2 -72 -5 -13 -20 29 -38 88 -38 l58 0 0 -52 c0 -29 4 -59 9 -67 17
-27 31 1 31 64 l0 64 63 3 c82 4 80 22 -4 26 -71 3 -78 9 -79 70 0 21 -27 31
-43 16z"/>
<path d="M7730 13757 c0 -25 85 -31 435 -32 354 0 875 22 875 38 0 10 -258 5
-615 -12 -169 -8 -476 -1 -627 15 -58 6 -68 4 -68 -9z"/>
<path d="M752 13710 c-44 -27 -72 -90 -72 -161 0 -47 4 -59 25 -79 34 -32 131
-39 204 -15 60 20 70 42 14 29 -59 -14 -168 -11 -186 5 -12 9 -17 28 -16 60 1
67 21 113 58 134 30 18 33 18 57 2 20 -13 24 -22 20 -40 -6 -24 8 -36 32 -28
19 7 15 68 -7 87 -31 28 -90 31 -129 6z"/>
<path d="M3690 13672 c0 -15 8 -21 38 -24 68 -9 1106 12 1116 22 5 5 7 13 3
16 -3 3 -160 1 -349 -6 -345 -12 -744 -10 -785 5 -19 6 -23 4 -23 -13z"/>
<path d="M7278 13682 c-145 -2 -168 -5 -168 -18 0 -14 20 -16 170 -13 106 3
173 8 180 15 18 18 0 19 -182 16z"/>
<path d="M8028 13603 c-18 -5 -26 -43 -8 -43 5 0 32 5 60 11 37 8 55 8 63 0
16 -16 -17 -47 -95 -88 -73 -38 -84 -57 -41 -74 41 -15 204 -23 236 -10 46 18
30 26 -50 27 -43 0 -91 3 -108 8 l-29 7 52 31 c29 16 59 39 67 51 21 30 19 64
-4 77 -19 10 -109 12 -143 3z"/>
<path d="M8539 13583 c-43 -7 -131 -65 -152 -100 -38 -67 4 -98 146 -109 96
-8 177 1 177 19 0 9 -29 13 -97 15 -143 4 -193 14 -193 41 0 24 36 56 90 80
54 25 70 26 70 6 0 -9 9 -15 25 -15 36 0 36 46 -1 60 -14 6 -28 9 -32 9 -4 -1
-19 -4 -33 -6z"/>
<path d="M1061 13493 c-10 -21 -28 -47 -40 -57 -12 -11 -21 -25 -21 -32 0 -20
19 -27 35 -14 13 11 15 7 15 -24 l0 -36 -79 0 c-44 0 -83 -5 -86 -10 -8 -13 0
-15 108 -29 68 -9 92 -9 103 0 8 6 28 14 45 18 42 8 32 26 -13 25 l-38 -1 0
47 c0 26 6 66 14 88 11 29 11 43 3 51 -18 18 -25 13 -46 -26z"/>
<path d="M4273 13480 c-13 -5 -23 -16 -23 -24 0 -18 30 -30 44 -16 13 13 66
13 66 0 0 -6 -31 -31 -70 -56 -82 -53 -91 -77 -32 -93 41 -12 162 -14 211 -5
50 10 36 24 -26 25 -32 1 -85 4 -118 8 l-60 6 40 24 c85 52 113 93 80 121 -19
16 -85 22 -112 10z"/>
<path d="M8841 13458 c-6 -17 -23 -46 -37 -65 -27 -35 -25 -53 7 -53 20 0 23
-8 13 -34 -4 -10 -18 -16 -40 -16 -24 0 -34 -5 -34 -15 0 -32 93 -46 139 -22
28 14 28 32 1 31 -16 0 -20 6 -20 35 0 20 6 61 13 91 15 64 13 80 -13 80 -11
0 -22 -12 -29 -32z"/>
<path d="M1571 13215 c-24 -7 -53 -23 -66 -35 -19 -18 -30 -20 -74 -14 -42 5
-51 4 -51 -9 0 -18 21 -27 61 -27 18 0 28 -4 24 -10 -4 -6 8 -24 25 -42 31
-31 32 -32 12 -47 -44 -36 -55 -93 -21 -112 28 -15 133 -13 167 3 27 13 29 36
2 30 -8 -2 -43 -6 -77 -9 -53 -4 -64 -3 -69 11 -9 23 31 64 70 74 44 12 46 38
4 46 -36 7 -78 31 -78 46 0 5 24 14 53 20 56 11 117 43 117 60 0 8 -44 33 -53
29 -1 0 -22 -6 -46 -14z m36 -31 c-3 -3 -12 -4 -19 -1 -8 3 -5 6 6 6 11 1 17
-2 13 -5z m-30 -10 c-3 -3 -12 -4 -19 -1 -8 3 -5 6 6 6 11 1 17 -2 13 -5z"/>
<path d="M6917 13089 c-66 -38 -145 -285 -121 -376 8 -28 57 -43 110 -34 46 9
124 47 124 61 0 14 -9 13 -75 -10 -102 -35 -125 -27 -125 45 0 43 43 178 72
229 32 55 58 70 86 50 23 -16 31 -67 12 -79 -5 -3 -10 -15 -10 -26 0 -13 7
-19 24 -19 19 0 27 8 36 35 15 46 5 90 -27 115 -28 22 -77 26 -106 9z"/>
<path d="M5221 13062 c-33 -33 -71 -127 -73 -184 -2 -45 22 -73 55 -64 13 3
16 0 12 -13 -15 -47 -35 -178 -35 -227 0 -40 4 -54 14 -54 10 0 17 16 21 48
22 167 68 340 94 359 17 11 21 25 21 69 0 89 -54 122 -109 66z m43 -58 c-20
-16 -24 -26 -19 -46 7 -27 -12 -75 -39 -97 -14 -12 -16 -10 -16 12 0 67 72
196 91 165 6 -9 1 -20 -17 -34z"/>
<path d="M7280 13008 c-6 -29 -14 -101 -17 -159 -7 -125 1 -149 50 -149 37 1
56 13 97 65 l30 38 0 -50 c0 -27 5 -54 12 -61 17 -17 48 -15 48 3 0 8 -5 15
-11 15 -15 0 -6 86 20 195 11 44 17 83 15 87 -9 14 -35 8 -40 -9 -32 -99 -147
-264 -173 -248 -20 12 -9 184 20 305 3 9 -5 16 -18 18 -18 3 -23 -4 -33 -50z"/>
<path d="M754 12993 c-14 -108 -9 -212 13 -241 37 -49 102 -41 132 16 l20 37
1 -30 c0 -47 34 -92 77 -105 27 -9 42 -21 53 -43 12 -26 22 -33 51 -35 30 -3
41 2 63 28 73 88 -22 180 -103 100 -25 -26 -34 -29 -50 -20 -42 22 -51 50 -51
153 0 80 -3 99 -16 104 -20 8 -28 -6 -43 -70 -16 -70 -51 -132 -76 -132 -34 0
-48 64 -36 165 15 120 14 130 -8 130 -16 0 -21 -10 -27 -57z m394 -309 c2 -20
-4 -36 -17 -48 -26 -23 -41 -13 -41 28 0 59 52 78 58 20z"/>
<path d="M3790 12833 c-65 -123 -69 -151 -22 -137 15 5 72 8 127 9 81 0 100 3
103 15 1 8 -12 24 -29 35 -40 26 -79 93 -79 136 0 32 -14 59 -31 59 -4 0 -35
-52 -69 -117z m102 -59 c19 -21 19 -21 -13 -28 -17 -3 -44 -6 -60 -6 l-29 0
27 55 27 55 14 -27 c8 -16 23 -38 34 -49z"/>
<path d="M4170 12882 c-41 -43 -69 -97 -77 -146 -9 -57 34 -79 101 -51 17 7
18 5 13 -21 -40 -180 -40 -280 0 -272 25 5 41 37 24 47 -31 20 25 294 72 350
30 37 35 76 11 109 -12 17 -25 22 -61 22 -40 0 -51 -5 -83 -38z m108 -4 c7 -7
12 -20 12 -30 0 -16 -3 -16 -20 -6 -17 11 -22 10 -30 -2 -5 -8 -10 -25 -10
-37 0 -29 -56 -93 -81 -93 -10 0 -19 6 -19 13 0 28 49 115 79 140 36 30 51 33
69 15z"/>
<path d="M1280 12901 c-51 -5 -66 -10 -68 -23 -2 -11 3 -18 12 -18 9 0 16 -7
16 -15 0 -13 13 -15 77 -13 50 2 78 7 81 16 3 9 -15 12 -65 13 l-68 1 53 8
c29 4 56 10 59 13 8 9 -7 27 -20 25 -7 -1 -41 -4 -77 -7z"/>
<path d="M1514 12831 c-2 -2 -4 -10 -4 -18 0 -10 24 -13 104 -13 116 0 166 7
166 24 0 8 -41 11 -131 11 -72 0 -133 -2 -135 -4z"/>
<path d="M4515 12820 c-15 -25 16 -32 141 -31 137 1 194 8 194 22 0 5 -57 9
-127 9 -71 0 -144 3 -164 6 -23 4 -39 2 -44 -6z"/>
<path d="M6244 12816 c-13 -33 6 -36 207 -36 164 0 199 2 199 14 0 11 -28 15
-127 20 -71 4 -161 9 -200 12 -60 5 -74 3 -79 -10z"/>
<path d="M7640 12818 c-87 -46 -104 -218 -25 -248 53 -20 126 36 154 119 17
51 14 68 -16 101 -32 35 -77 46 -113 28z m82 -59 c18 -24 18 -27 3 -67 -18
-43 -66 -92 -90 -92 -19 0 -26 27 -20 89 7 91 64 128 107 70z"/>
<path d="M7112 12738 c-7 -7 -12 -16 -12 -22 0 -5 -10 -20 -22 -34 -22 -22
-22 -24 -5 -36 19 -14 23 -41 7 -51 -5 -3 -10 -15 -10 -26 0 -17 6 -20 38 -17
31 2 36 6 33 23 -2 11 -2 36 -1 55 8 113 1 137 -28 108z"/>
<path d="M1572 12713 c2 -12 15 -20 37 -23 l33 -5 -46 -32 c-25 -18 -46 -39
-46 -47 0 -34 82 -47 148 -23 56 20 41 32 -34 29 l-69 -3 44 30 c25 16 48 36
53 45 14 25 -18 46 -73 46 -43 0 -50 -3 -47 -17z"/>
<path d="M4535 12720 c-3 -5 0 -12 7 -15 26 -10 303 0 301 10 -4 14 -299 19
-308 5z"/>
<path d="M5950 12695 c-18 -19 -26 -22 -36 -14 -20 17 -40 4 -47 -28 -5 -27
-51 -83 -67 -83 -5 0 -6 27 -3 60 l6 60 -43 0 c-34 0 -47 -6 -71 -31 -16 -17
-34 -48 -40 -70 -7 -21 -18 -39 -26 -39 -16 0 -33 41 -33 81 0 63 -32 85 -78
53 -12 -8 -22 -11 -22 -6 0 21 -35 22 -62 2 l-28 -21 0 26 c0 18 -5 25 -20 25
-25 0 -27 -6 -33 -102 -5 -75 -5 -78 17 -78 16 0 25 9 34 33 7 17 21 43 32 57
l21 25 -3 -45 c-2 -35 1 -45 14 -48 12 -2 25 12 43 49 28 55 45 54 45 -4 0
-43 37 -73 99 -81 46 -6 57 -4 76 14 17 16 27 19 46 12 27 -10 63 0 91 25 22
20 23 5 3 -43 -24 -58 0 -77 27 -21 13 28 20 32 53 32 22 0 40 5 42 13 3 7 -4
12 -15 12 -39 0 -44 24 -13 72 16 25 35 48 42 50 16 5 4 38 -14 38 -7 0 -24
-11 -37 -25z m-210 -72 c-1 -21 -38 -69 -46 -60 -8 7 26 77 37 77 5 0 9 -8 9
-17z"/>
<path d="M535 12530 c-20 -32 5 -33 585 -27 586 7 730 13 730 29 0 5 -142 6
-352 1 -418 -9 -856 -9 -915 0 -25 4 -44 3 -48 -3z"/>
<path d="M540 12109 c-81 -17 -182 -179 -152 -244 9 -20 19 -25 46 -25 27 0
42 9 75 43 l41 42 -5 -30 c-3 -16 -17 -89 -30 -162 -36 -195 -42 -263 -22
-263 9 0 17 11 20 28 95 523 100 547 127 547 19 0 24 4 22 20 -2 11 -7 24 -12
28 -14 15 -74 24 -110 16z m30 -41 c0 -28 -60 -135 -93 -167 -58 -55 -74 -23
-33 65 32 69 126 145 126 102z"/>
<path d="M1390 12033 c-28 -10 -60 -46 -60 -68 0 -27 26 -63 37 -52 4 5 8 23
8 40 0 23 6 34 25 44 34 17 85 16 100 -2 18 -22 5 -48 -62 -121 -66 -73 -88
-115 -88 -167 0 -47 19 -97 37 -97 12 0 14 9 8 49 -10 74 7 120 73 192 90 98
99 123 57 164 -19 20 -34 25 -72 24 -26 0 -55 -3 -63 -6z"/>
<path d="M4211 12006 c-16 -19 -18 -18 41 -22 58 -4 108 -28 108 -53 0 -11
-22 -34 -55 -57 -78 -53 -85 -93 -21 -119 35 -15 265 -49 274 -41 12 12 -12
20 -129 42 -119 23 -155 37 -143 55 3 5 30 27 60 50 55 41 64 61 44 100 -22
40 -155 74 -179 45z"/>
<path d="M9919 11985 c-29 -16 -43 -41 -28 -50 5 -4 21 3 35 14 28 22 88 28
99 11 4 -6 -8 -27 -27 -48 -39 -43 -63 -95 -54 -117 9 -26 71 -45 141 -45 36
0 65 4 65 8 0 4 -32 13 -70 19 -112 17 -117 33 -44 116 19 20 34 46 34 56 0
45 -94 67 -151 36z"/>
<path d="M3545 11854 c-83 -28 -177 -159 -179 -249 -1 -52 21 -80 76 -97 44
-13 138 3 159 28 18 21 4 28 -32 15 -18 -6 -54 -11 -80 -11 -66 0 -93 25 -83
78 15 83 89 182 151 203 48 15 62 1 44 -44 -19 -46 -19 -71 1 -75 36 -7 67
121 36 145 -23 18 -55 21 -93 7z"/>
<path d="M4045 11839 c-22 -11 -52 -33 -67 -50 -31 -33 -46 -36 -62 -13 -13
17 -46 10 -46 -10 0 -17 21 -36 40 -36 8 -1 33 -9 55 -20 22 -11 50 -19 62
-20 20 0 17 -5 -21 -40 -89 -82 -82 -138 18 -161 29 -6 69 -9 89 -5 55 10 149
86 106 86 -6 0 -22 -9 -36 -20 -14 -11 -40 -24 -58 -29 -39 -10 -111 1 -131
21 -21 21 12 67 80 112 32 21 55 43 53 49 -2 7 -28 14 -58 17 l-54 5 67 33
c68 33 94 61 84 88 -8 21 -75 17 -121 -7z m70 -25 c-27 -22 -105 -57 -112 -50
-9 8 89 66 111 66 21 -1 21 -1 1 -16z"/>
<path d="M9670 11834 c-41 -35 -73 -99 -66 -131 8 -29 49 -47 94 -39 18 2 32
0 32 -5 0 -6 -13 -64 -30 -129 -33 -130 -37 -170 -17 -170 8 0 28 62 57 180
29 115 50 180 58 180 18 0 34 49 27 82 -14 61 -99 79 -155 32z m105 -15 c4 -5
0 -18 -8 -27 -8 -9 -17 -30 -21 -45 -4 -18 -18 -33 -41 -44 -32 -15 -37 -15
-51 -2 -12 12 -13 21 -4 43 22 60 105 109 125 75z"/>
<path d="M7720 11809 c0 -6 22 -35 49 -65 195 -213 185 -614 -21 -799 -22 -20
-37 -39 -34 -43 16 -15 64 19 110 80 76 99 126 251 126 380 0 136 -69 321
-153 411 -41 44 -77 61 -77 36z"/>
<path d="M1095 11785 c-5 -2 -54 -7 -108 -10 -72 -5 -100 -11 -104 -21 -3 -8
-3 -17 0 -20 4 -4 197 14 335 32 70 9 47 24 -35 23 -43 0 -82 -2 -88 -4z"/>
<path d="M5338 11722 c-101 -67 -172 -242 -185 -457 -10 -191 36 -284 149
-299 28 -4 53 -4 56 -1 10 10 -21 25 -53 25 -42 0 -91 47 -106 101 -16 60 -13
215 7 313 21 109 72 212 128 264 25 23 52 42 61 42 8 0 15 7 15 15 0 21 -39
19 -72 -3z"/>
<path d="M7516 11639 c-15 -12 -26 -30 -26 -45 0 -22 -4 -24 -49 -24 -28 0
-53 5 -56 10 -9 15 -45 12 -45 -4 0 -26 29 -37 97 -37 44 0 75 -5 87 -15 19
-14 19 -15 -7 -42 -35 -37 -46 -95 -23 -121 19 -21 75 -33 117 -24 48 9 34 28
-21 29 -58 1 -75 13 -67 46 10 38 30 58 72 72 46 16 55 32 23 41 -13 3 -35 11
-51 17 l-27 10 32 18 c17 9 38 26 45 37 31 46 -50 72 -101 32z m49 -36 c-20
-18 -30 -22 -33 -13 -5 15 25 40 47 40 11 -1 7 -9 -14 -27z"/>
<path d="M10694 11585 c-20 -30 -40 -55 -45 -55 -4 0 -10 18 -14 40 -5 29 -12
40 -25 40 -13 0 -19 -11 -24 -38 -7 -48 -37 -87 -76 -100 -32 -12 -51 1 -31
21 15 15 14 59 -1 80 -47 60 -141 -5 -152 -105 -4 -36 -23 -46 -55 -29 -16 9
-21 23 -23 68 -4 73 -20 78 -88 28 -46 -34 -50 -35 -50 -16 0 44 -42 38 -107
-15 l-33 -27 6 47 c6 42 5 46 -14 46 -23 0 -23 1 -41 -109 -17 -103 3 -108 78
-21 56 64 77 76 61 36 -19 -50 25 -49 93 4 l52 39 5 -42 c7 -54 13 -63 50 -71
36 -7 126 10 157 30 14 9 24 10 28 4 17 -27 101 -3 139 39 40 45 48 16 14 -54
-15 -31 -28 -45 -42 -45 -12 0 -151 -7 -311 -15 -159 -8 -370 -15 -467 -15
-164 0 -205 -6 -184 -28 10 -9 268 -3 686 18 212 10 467 22 568 26 263 10 247
28 -21 22 l-216 -4 19 31 c16 24 25 29 47 26 61 -8 106 -6 110 7 3 8 -7 12
-30 12 -19 0 -45 8 -57 18 l-22 18 46 62 c51 69 55 82 26 82 -13 0 -32 -19
-56 -55z m-263 -42 c-6 -10 -12 -29 -15 -43 -3 -14 -14 -31 -26 -38 -18 -11
-20 -10 -20 12 0 14 12 38 26 55 28 34 50 42 35 14z"/>
<path d="M549 11628 c0 -2 -1 -51 -3 -110 -2 -96 -1 -108 14 -108 10 0 24 16
35 40 24 53 35 59 28 15 -5 -30 -3 -35 14 -35 13 0 26 13 37 38 10 21 28 51
40 67 l23 28 10 -64 c15 -85 27 -115 57 -134 22 -15 27 -15 54 -1 17 9 32 21
35 28 3 10 9 9 24 -4 30 -27 87 -23 116 8 19 20 26 23 35 12 8 -10 3 -28 -19
-72 -17 -32 -27 -61 -24 -64 11 -12 40 15 60 56 14 29 24 39 35 35 34 -14 74
-8 78 11 3 14 0 17 -13 12 -10 -3 -28 0 -40 8 l-23 15 24 68 c29 83 29 85 2
81 -17 -2 -25 -15 -36 -55 -8 -29 -18 -53 -23 -53 -4 0 -13 16 -21 35 -9 26
-17 35 -31 33 -15 -2 -20 -12 -21 -47 -3 -55 -28 -79 -60 -57 -15 10 -21 25
-22 52 -2 115 -82 155 -124 62 l-18 -40 -7 43 c-4 24 -12 50 -17 57 -13 15
-50 16 -66 0 -8 -8 -15 -8 -28 3 -14 12 -20 9 -50 -23 l-33 -37 -3 47 c-2 35
-7 48 -20 50 -10 2 -18 2 -19 0z m331 -118 c0 -37 -25 -100 -39 -100 -16 0
-13 44 5 90 19 48 34 52 34 10z"/>
<path d="M3706 11582 c-2 -4 -8 -47 -12 -95 -5 -71 -4 -91 9 -111 16 -24 16
-24 -20 -31 -21 -4 -114 -3 -208 0 -178 8 -215 4 -215 -22 0 -16 162 -15 820
8 280 10 346 17 329 33 -3 3 -150 0 -328 -6 -350 -13 -333 -15 -348 41 -3 14
-2 56 3 93 9 65 4 98 -16 98 -5 0 -11 -4 -14 -8z"/>
<path d="M1490 11551 c0 -32 23 -47 40 -26 8 10 8 19 -2 34 -19 30 -38 26 -38
-8z"/>
<path d="M8229 11512 c-24 -21 -32 -37 -31 -60 1 -36 -24 -50 -57 -33 -11 6
-27 11 -35 11 -21 0 -21 -36 0 -44 23 -9 89 -7 116 3 15 5 36 4 58 -5 19 -7
30 -13 24 -13 -27 -2 -95 -68 -110 -107 -27 -70 10 -109 113 -120 62 -7 163
10 163 27 0 5 -44 9 -98 9 -108 0 -142 13 -142 54 0 35 32 69 100 105 34 18
59 38 57 44 -2 6 -23 16 -46 22 l-43 10 38 25 c71 46 53 100 -33 100 -33 0
-50 -7 -74 -28z m108 -18 c5 -14 -56 -54 -81 -54 -24 0 -20 36 7 55 24 17 68
17 74 -1z"/>
<path d="M6963 11496 c-105 -49 -180 -209 -124 -265 36 -36 145 -40 208 -9 24
12 30 36 8 31 -97 -22 -124 -24 -159 -9 -27 11 -36 21 -36 39 0 80 101 197
169 197 17 0 20 -5 15 -30 -6 -25 -3 -30 14 -30 35 0 46 72 13 90 -29 15 -51
12 -108 -14z"/>
<path d="M4770 11466 c-6 -8 -10 -32 -9 -53 l4 -38 -54 3 c-47 3 -52 1 -49
-15 2 -14 14 -19 56 -21 l52 -3 0 -43 c0 -46 20 -83 39 -72 8 5 8 13 1 26 -5
10 -10 35 -10 54 l0 36 54 0 c58 0 86 7 86 21 0 5 -31 9 -70 9 l-70 0 0 34 c0
19 5 38 10 41 8 5 7 11 -1 21 -15 18 -23 18 -39 0z"/>
<path d="M5506 11455 c-40 -37 -61 -96 -57 -157 3 -44 67 -63 104 -30 20 17
20 16 13 -17 -24 -126 -19 -191 14 -191 21 0 27 15 9 25 -11 7 -10 10 17 147
13 67 21 87 35 91 15 4 19 15 19 52 0 91 -91 138 -154 80z m86 -17 c15 -12 15
-17 3 -52 -8 -22 -30 -56 -50 -75 -34 -34 -37 -35 -49 -18 -23 30 4 112 46
141 27 19 30 19 50 4z"/>
<path d="M8755 11381 c-14 -24 39 -33 148 -26 116 7 137 11 137 26 0 12 -277
12 -285 0z"/>
<path d="M6446 11361 c-4 -6 -5 -15 -2 -20 15 -24 226 -44 226 -21 0 5 -17 12
-37 15 -59 9 -136 24 -159 31 -12 3 -25 1 -28 -5z"/>
<path d="M8830 11332 c-5 -2 -10 -10 -10 -18 0 -26 288 -15 297 11 3 9 -261
15 -287 7z"/>
<path d="M7476 11307 c-16 -12 -17 -14 -2 -27 21 -17 260 -28 270 -12 7 11
-21 16 -149 27 -38 3 -74 10 -79 16 -13 12 -19 12 -40 -4z"/>
<path d="M7200 11291 c-5 -11 -19 -23 -30 -26 -22 -7 -28 -45 -7 -45 11 0 12
-11 4 -55 -11 -60 -1 -85 35 -85 17 0 18 2 8 15 -11 13 -11 27 0 73 7 31 19
70 27 85 8 16 12 35 9 43 -8 20 -34 17 -46 -5z"/>
<path d="M6383 11190 c-18 -44 -28 -50 -36 -20 -8 32 -35 23 -52 -17 -18 -43
-53 -83 -72 -83 -8 0 -13 13 -13 39 0 36 -19 68 -33 54 -4 -3 -13 0 -21 6 -39
33 -95 -21 -99 -94 -2 -31 -5 -35 -29 -35 -34 0 -42 12 -48 80 -4 46 -8 55
-26 58 -11 2 -28 -6 -39 -18 -23 -25 -35 -26 -35 0 0 32 -48 26 -87 -12 l-33
-32 0 31 c0 33 -25 62 -39 47 -5 -5 -7 -44 -4 -86 7 -98 24 -103 77 -23 20 30
39 55 42 55 3 0 4 -21 3 -47 -3 -42 -1 -48 17 -51 15 -2 29 9 50 40 27 41 29
42 32 18 5 -44 24 -79 44 -86 27 -8 160 6 176 19 8 6 33 10 56 8 38 -2 46 2
75 35 39 43 57 32 35 -22 -17 -42 -18 -54 -1 -54 8 0 19 11 25 26 11 24 13 24
34 10 25 -18 64 -21 73 -6 3 5 -10 16 -28 24 -19 8 -37 19 -41 24 -4 6 6 37
22 69 16 33 27 64 24 71 -8 25 -34 10 -49 -28z m-259 -97 c-15 -22 -19 -25
-22 -11 -5 26 17 63 30 50 8 -8 5 -19 -8 -39z"/>
<path d="M3787 11152 c-61 -41 -75 -97 -33 -135 l24 -21 -21 -37 c-20 -35 -20
-38 -4 -63 14 -21 25 -26 60 -26 48 0 114 16 122 30 13 20 -8 52 -51 79 l-43
28 25 24 c50 46 64 108 30 131 -20 14 -81 8 -109 -10z m45 -34 c-18 -18 -15
-28 8 -28 27 0 25 -8 -7 -42 -25 -26 -28 -27 -45 -11 -25 23 -22 48 8 72 29
23 56 29 36 9z m58 -190 c0 -11 -45 -28 -75 -28 -30 0 -36 18 -17 52 l16 27
38 -21 c21 -12 38 -25 38 -30z"/>
<path d="M7543 11163 c-7 -3 -13 -11 -13 -19 0 -10 12 -14 41 -14 51 0 44 -12
-42 -66 -81 -52 -77 -69 16 -68 69 0 220 37 231 56 11 17 -5 20 -38 9 -29 -11
-179 -41 -202 -41 -4 0 19 18 52 40 65 44 77 60 59 83 -12 15 -81 28 -104 20z"/>
<path d="M10137 11159 c-43 -25 -61 -114 -32 -168 20 -39 67 -56 150 -55 52 0
81 6 113 23 51 26 47 48 -5 26 -42 -18 -152 -20 -187 -4 -31 15 -50 59 -41 98
9 44 30 56 90 52 15 -1 16 -4 7 -13 -18 -18 -14 -38 7 -38 23 0 51 25 51 45 0
28 -31 45 -83 45 -29 0 -60 -5 -70 -11z"/>
<path d="M9737 11153 c-39 -3 -48 -7 -45 -21 3 -15 14 -16 82 -13 91 4 91 0 8
-61 -68 -50 -74 -58 -59 -76 9 -12 35 -13 132 -9 127 6 165 13 165 30 0 6 -20
8 -54 4 -29 -3 -81 -3 -114 0 l-61 6 44 33 c55 43 66 71 35 96 -22 18 -32 19
-133 11z"/>
<path d="M10491 11016 c-36 -37 -37 -73 -2 -61 15 4 20 -1 25 -26 3 -17 6 -35
6 -40 0 -4 -26 -9 -57 -11 -44 -2 -58 -7 -58 -18 0 -18 72 -25 153 -15 53 7
68 27 25 33 -25 4 -38 65 -27 130 6 37 4 42 -13 42 -10 0 -34 -15 -52 -34z"/>
<path d="M2915 10420 c-3 -6 2 -13 12 -16 80 -26 123 -55 123 -84 0 -12 -21
-35 -53 -58 -74 -55 -84 -69 -65 -89 18 -17 175 -31 222 -19 51 13 25 26 -51
27 -43 1 -91 4 -107 8 l-29 6 56 43 c66 50 79 81 50 120 -36 48 -141 89 -158
62z"/>
<path d="M7118 10273 c-10 -2 -18 -12 -18 -20 0 -13 9 -15 50 -10 28 3 50 2
50 -3 0 -5 -15 -21 -34 -37 -107 -89 -50 -138 157 -134 69 1 58 17 -18 24 -83
8 -145 26 -145 43 0 7 18 27 40 45 48 39 60 67 34 86 -17 12 -79 16 -116 6z"/>
<path d="M2245 10234 c-108 -40 -160 -157 -92 -208 24 -17 42 -21 105 -20 75
2 142 18 128 31 -4 4 -48 6 -99 4 -116 -3 -136 8 -122 64 12 44 65 93 116 104
45 10 59 4 59 -25 0 -27 25 -43 42 -26 13 13 3 55 -18 76 -19 20 -66 19 -119
0z"/>
<path d="M2755 10238 c-34 -12 -85 -56 -85 -73 0 -8 -10 -10 -25 -7 -20 3 -25
0 -25 -16 0 -16 8 -20 45 -25 26 -2 48 -6 50 -9 2 -2 -3 -24 -11 -48 -18 -51
-10 -79 31 -106 32 -21 116 -12 164 17 42 26 31 44 -16 24 -49 -21 -129 -20
-137 1 -17 46 8 94 50 94 27 0 48 16 40 29 -4 6 -21 11 -39 11 -29 0 -29 1 21
26 50 25 73 57 54 76 -15 15 -83 19 -117 6z m78 -39 c-13 -13 -116 -50 -122
-44 -7 7 22 37 44 45 32 14 91 12 78 -1z"/>
<path d="M8611 10171 c-8 -5 -11 -16 -8 -25 5 -13 11 -15 26 -6 24 12 71 13
71 1 0 -5 -29 -33 -65 -61 -64 -51 -88 -91 -67 -112 13 -13 78 -27 125 -28 60
0 40 23 -29 35 -34 6 -59 15 -59 22 0 7 30 37 68 68 66 54 79 79 55 103 -14
14 -96 16 -117 3z"/>
<path d="M6945 10131 c-39 -17 -95 -72 -95 -92 0 -16 -70 -10 -76 6 -9 22 -44
19 -44 -4 0 -30 25 -42 88 -46 72 -3 114 -22 90 -39 -26 -20 -40 -54 -29 -75
23 -43 187 -77 226 -47 19 14 17 15 -30 16 -65 1 -149 30 -153 52 -2 12 8 23
35 34 21 9 44 19 51 23 28 13 15 26 -33 37 -40 9 -46 13 -30 19 74 29 92 38
112 57 64 60 -18 102 -112 59z m90 -21 c11 -17 -117 -82 -132 -66 -10 10 21
39 62 57 46 21 61 23 70 9z"/>
<path d="M6338 10076 c-145 -52 -165 -179 -35 -215 49 -14 203 -11 200 4 -2 6
-42 13 -90 16 -132 10 -175 35 -154 92 28 74 180 114 211 56 18 -33 57 -20 44
15 -16 42 -104 58 -176 32z"/>
<path d="M2469 10054 c-18 -22 -25 -130 -9 -149 24 -29 35 -16 35 42 1 32 5
73 9 91 7 25 5 32 -7 32 -8 0 -20 -7 -28 -16z"/>
<path d="M8370 10009 c-35 -48 -72 -144 -68 -173 5 -33 49 -32 89 1 18 16 31
21 28 13 -3 -8 -19 -63 -34 -122 l-29 -108 -64 0 c-89 0 -80 -23 12 -30 94 -7
837 29 944 46 24 4 32 1 32 -11 0 -19 14 -19 30 0 10 12 38 15 132 15 91 0
119 3 115 13 -3 8 -34 12 -110 12 l-105 0 16 28 c19 31 18 31 61 16 24 -8 35
-8 46 1 16 13 11 32 -8 28 -16 -3 -57 12 -57 20 0 12 51 86 68 100 12 9 13 15
5 23 -18 18 -41 3 -73 -47 l-29 -47 -11 27 c-5 15 -10 32 -10 37 0 5 -9 9 -20
9 -11 0 -20 -7 -20 -15 0 -31 -30 -72 -60 -85 -28 -12 -33 -11 -55 10 -13 12
-25 37 -27 54 -3 28 -7 31 -38 34 -48 4 -104 -51 -104 -103 0 -66 -72 -51 -96
20 -9 29 -16 35 -39 35 -15 0 -42 -11 -61 -25 -33 -24 -34 -24 -47 -5 -18 25
-34 25 -64 1 -21 -17 -25 -17 -35 -3 -7 9 -18 13 -29 8 -14 -5 -16 -13 -11
-37 3 -18 6 -44 6 -60 0 -40 33 -40 50 0 6 16 20 37 31 47 19 17 19 16 13 -14
-11 -54 18 -51 83 8 l57 52 11 -31 c26 -77 87 -89 189 -38 63 32 72 34 90 21
34 -24 81 -17 119 16 28 25 37 28 46 16 8 -10 5 -24 -14 -58 l-25 -45 -172
-12 c-362 -25 -467 -31 -601 -31 -76 0 -136 3 -133 8 16 26 77 264 82 322 7
80 -2 100 -47 100 -22 0 -36 -9 -59 -41z m70 -22 c0 -34 -35 -92 -79 -131 -18
-16 -21 -17 -21 -3 0 38 70 167 91 167 5 0 9 -15 9 -33z m685 -177 c7 -11 -38
-60 -55 -60 -7 0 -7 7 1 23 24 46 41 58 54 37z"/>
<path d="M5086 10014 c-49 -18 -76 -41 -76 -66 0 -27 -88 -26 -123 2 -33 26
-57 26 -57 -1 0 -32 60 -51 159 -51 126 0 131 -5 65 -56 -91 -70 -120 -147
-73 -191 42 -39 168 -40 254 -2 46 21 64 49 23 36 -122 -38 -187 -42 -238 -15
-44 23 -9 99 69 149 69 45 87 67 71 86 -7 9 -11 16 -9 18 2 1 22 11 43 22 22
11 44 28 50 38 26 42 -74 62 -158 31z m115 -28 c-25 -30 -151 -60 -151 -36 0
20 73 48 129 49 28 1 31 -1 22 -13z"/>
<path d="M4005 9971 c-22 -10 -49 -29 -61 -42 -22 -26 -64 -118 -64 -143 0
-45 72 -60 128 -26 18 11 34 20 36 20 2 0 -2 -21 -10 -47 -21 -68 -44 -179
-44 -212 0 -34 23 -67 39 -57 9 6 9 11 1 21 -8 9 -7 33 4 84 24 113 88 315
104 327 19 14 9 60 -16 73 -38 20 -77 21 -117 2z m91 -38 c16 -16 16 -18 2
-21 -9 -2 -19 -13 -22 -26 -17 -70 -156 -153 -156 -94 0 7 11 37 25 65 37 80
110 116 151 76z"/>
<path d="M6565 9836 c-8 -71 -1 -106 21 -106 9 0 14 11 14 33 0 17 3 56 6 85
6 48 5 52 -14 52 -18 0 -21 -8 -27 -64z"/>
<path d="M3387 9843 c-4 -3 -7 -26 -7 -51 l0 -45 -39 7 c-26 4 -42 2 -47 -5
-10 -16 24 -39 58 -39 26 0 28 -3 28 -43 0 -40 13 -67 32 -67 5 0 5 25 2 55
l-7 55 56 0 c30 0 62 3 71 6 32 12 15 24 -36 24 -73 0 -82 8 -75 64 6 40 4 46
-12 46 -10 0 -21 -3 -24 -7z"/>
<path d="M2634 9804 c-6 -3 -138 -8 -293 -12 -173 -4 -282 -11 -284 -17 -3
-15 238 -18 458 -6 105 6 261 14 348 17 86 4 157 11 157 15 0 9 -365 11 -386
3z"/>
<path d="M5590 9761 c0 -39 37 -51 151 -51 59 0 114 3 123 6 38 15 8 22 -100
26 -96 3 -118 6 -128 21 -18 23 -46 22 -46 -2z"/>
<path d="M7530 9763 c0 -19 9 -21 119 -28 115 -6 161 -3 161 14 0 5 -42 11
-92 15 -51 4 -114 9 -140 13 -43 5 -48 4 -48 -14z"/>
<path d="M6296 9722 c-15 -25 39 -30 404 -36 212 -3 404 -9 428 -12 34 -5 42
-4 42 8 0 19 -82 26 -430 33 -140 3 -296 8 -347 11 -52 3 -94 1 -97 -4z"/>
<path d="M4697 9713 c-2 -5 -7 -24 -11 -44 -7 -37 -50 -88 -63 -75 -5 4 -8 24
-8 43 0 92 -118 55 -145 -46 -6 -22 -15 -41 -21 -41 -20 0 -53 48 -63 91 -13
52 -33 60 -75 30 -29 -21 -29 -21 -34 -1 -6 22 -36 27 -54 9 -8 -8 -13 -8 -17
0 -4 6 -15 11 -25 11 -13 0 -20 -14 -30 -64 -19 -93 2 -116 42 -48 20 34 22
35 25 14 6 -40 31 -38 77 8 l43 42 11 -34 c19 -57 60 -88 123 -95 52 -5 57 -4
83 25 23 26 31 29 65 25 34 -5 43 -1 69 25 37 36 46 31 20 -11 -10 -18 -19
-38 -19 -44 0 -14 30 -19 30 -5 0 4 7 15 14 25 12 16 16 16 49 2 46 -19 62
-19 82 1 20 20 4 44 -17 27 -8 -6 -22 -7 -34 -3 -41 16 -39 32 9 76 26 23 47
47 47 53 0 25 -45 9 -81 -29 l-39 -40 -6 27 c-3 16 -7 34 -10 41 -4 13 -30 17
-37 5z m-147 -113 c-14 -34 -40 -48 -40 -21 0 23 43 78 48 62 2 -7 -1 -25 -8
-41z"/>
<path d="M2545 9685 c-65 -34 -82 -80 -41 -113 17 -13 22 -23 15 -33 -16 -26
-10 -78 10 -89 45 -24 165 -4 198 32 25 28 7 49 -63 74 l-59 21 62 31 c34 18
64 36 68 42 8 13 -16 13 -49 0 -22 -8 -25 -6 -28 18 -3 24 -8 27 -43 30 -22 1
-53 -5 -70 -13z m77 -38 c4 -19 -3 -28 -32 -45 -32 -18 -40 -19 -56 -7 -18 13
-18 14 1 35 38 42 81 50 87 17z m52 -127 c14 -5 26 -12 26 -15 0 -12 -71 -35
-109 -35 -45 0 -54 13 -35 51 13 25 16 26 52 18 22 -5 51 -13 66 -19z"/>
<path d="M7497 9663 c-14 -22 14 -35 84 -39 82 -5 198 6 202 20 1 5 -50 9
-113 10 -63 2 -127 6 -141 10 -15 4 -29 4 -32 -1z"/>
<path d="M6652 9528 c3 -8 29 -15 66 -18 l62 -5 -54 -28 c-30 -16 -62 -37 -72
-48 -17 -19 -17 -21 0 -37 14 -14 35 -17 129 -15 111 2 172 12 172 27 0 5 -58
8 -130 7 l-130 -1 39 23 c81 47 101 63 101 82 0 18 -8 20 -93 23 -73 2 -93 0
-90 -10z"/>
<path d="M9004 9476 c-73 -32 -118 -142 -75 -185 18 -18 32 -21 104 -20 88 1
129 8 128 23 -1 6 -44 10 -95 10 -59 1 -99 5 -107 13 -18 18 -2 62 36 100 41
41 103 47 127 11 16 -24 38 -17 38 12 0 45 -89 65 -156 36z"/>
<path d="M8535 9440 c-13 -21 7 -28 63 -24 118 10 104 -30 -34 -92 -70 -31
-84 -41 -82 -58 4 -24 33 -34 110 -35 62 -1 158 16 158 28 0 16 -13 19 -43 10
-17 -5 -62 -6 -100 -2 l-69 6 69 32 c37 18 81 44 96 58 23 23 26 30 17 47 -6
12 -22 25 -36 30 -33 13 -141 13 -149 0z"/>
<path d="M9286 9301 c-26 -28 -31 -61 -8 -61 5 0 7 -13 4 -29 -4 -26 -9 -30
-41 -33 -24 -2 -36 -8 -36 -18 0 -16 45 -18 133 -5 47 7 55 32 9 27 -32 -4
-33 6 -11 71 26 78 1 101 -50 48z"/>
<path d="M3257 8986 c-7 -18 1 -26 27 -26 32 0 96 -47 96 -71 0 -11 -20 -41
-44 -67 -73 -80 -79 -108 -28 -132 36 -17 212 -27 212 -12 0 6 -21 13 -47 17
-94 11 -153 26 -153 39 0 7 23 39 50 70 28 32 50 67 50 79 0 36 -29 67 -84 93
-59 28 -72 29 -79 10z"/>
<path d="M6843 8923 c-7 -2 -13 -11 -13 -19 0 -12 8 -13 35 -8 19 3 43 3 52 0
14 -6 3 -20 -55 -75 -41 -40 -72 -77 -72 -88 0 -37 36 -57 111 -61 38 -2 69 0
69 5 0 4 -28 14 -61 20 -34 7 -66 16 -72 22 -13 13 9 42 71 91 59 48 71 73 46
101 -16 18 -79 25 -111 12z"/>
<path d="M3118 8824 c-30 -16 -63 -68 -53 -84 4 -6 -12 -10 -39 -10 -54 0 -76
8 -76 26 0 19 -25 18 -41 -2 -11 -14 -10 -19 10 -35 19 -15 40 -19 107 -19
l84 0 -17 -35 c-33 -69 15 -117 101 -101 38 7 85 40 74 51 -4 4 -24 0 -44 -10
-50 -24 -100 -10 -96 26 1 13 13 33 27 44 25 21 33 45 15 45 -19 0 -10 17 15
28 14 7 31 24 37 38 11 23 10 28 -7 40 -24 18 -63 17 -97 -2z m70 -26 c-6 -17
-67 -52 -76 -43 -9 9 45 55 64 55 9 0 14 -6 12 -12z"/>
<path d="M2540 8779 c-64 -26 -121 -118 -105 -170 17 -53 122 -69 208 -31 26
11 47 26 47 31 0 15 -17 14 -65 -4 -59 -21 -118 -19 -139 4 -33 37 10 115 77
140 43 17 57 14 87 -19 37 -40 71 -31 54 15 -15 38 -105 57 -164 34z"/>
<path d="M6612 8754 c-29 -20 -62 -85 -62 -121 0 -46 13 -57 59 -50 23 3 41 2
41 -1 0 -4 -9 -36 -20 -70 -11 -35 -20 -79 -20 -98 l0 -34 -89 0 c-79 0 -115
-9 -98 -26 7 -7 1364 -5 1382 2 56 22 -32 25 -563 24 -480 -1 -575 2 -587 13
-12 12 -12 22 1 70 8 31 30 93 49 137 19 45 35 87 35 93 0 18 -68 77 -88 77
-10 0 -28 -7 -40 -16z m61 -37 c10 -27 -6 -63 -37 -85 -40 -27 -46 -27 -46 -1
0 56 68 126 83 86z"/>
<path d="M5315 8726 c-28 -13 -63 -38 -79 -56 l-28 -34 -91 12 c-93 11 -107
10 -107 -12 0 -13 79 -26 156 -26 24 0 34 -5 34 -15 0 -21 34 -48 75 -60 l36
-11 -40 -29 c-74 -56 -93 -120 -44 -152 39 -26 236 -25 311 0 50 18 76 46 30
33 -125 -34 -328 -25 -328 15 0 42 101 118 156 119 21 0 40 25 26 33 -4 3 -34
8 -67 12 -84 10 -146 46 -102 59 173 52 187 58 206 83 16 20 18 29 10 39 -18
22 -98 17 -154 -10z m105 -20 c-14 -18 -104 -49 -127 -44 -24 5 82 58 115 58
20 0 22 -3 12 -14z"/>
<path d="M2208 8719 c-10 -5 -18 -17 -18 -26 0 -12 6 -14 28 -9 15 4 41 9 57
12 l30 5 -30 -25 c-26 -22 -28 -27 -15 -39 8 -8 35 -19 59 -26 33 -9 41 -15
30 -22 -8 -5 -22 -9 -33 -9 -16 0 -16 -2 -5 -16 24 -29 99 6 85 41 -3 9 -24
24 -46 32 -34 14 -37 18 -24 28 9 6 14 21 12 36 -3 22 -8 24 -58 26 -30 2 -63
-2 -72 -8z"/>
<path d="M7738 8683 c-9 -10 -28 -38 -43 -63 l-28 -45 -14 33 c-7 17 -17 32
-22 32 -12 0 -32 -26 -25 -32 10 -10 -23 -75 -47 -92 -58 -40 -109 -8 -109 68
0 43 -2 47 -22 45 -13 -1 -30 1 -40 5 -9 4 -29 1 -46 -8 -33 -17 -63 -80 -66
-138 -2 -31 -4 -33 -40 -32 -48 2 -72 26 -83 84 -12 63 -36 65 -85 9 -37 -43
-38 -43 -38 -17 0 41 -10 58 -35 58 -22 0 -68 -30 -92 -60 -11 -13 -12 -11
-13 11 0 29 -23 45 -37 26 -5 -7 -10 -40 -12 -74 -2 -57 0 -63 17 -63 13 0 34
19 56 49 19 28 44 55 55 61 19 10 20 8 18 -42 -2 -47 0 -53 19 -56 15 -2 33
11 61 42 l39 45 13 -34 c25 -70 115 -94 197 -52 27 14 60 37 73 51 l24 25 18
-24 c40 -50 125 -40 178 20 45 51 45 30 1 -52 -55 -103 -14 -95 49 9 20 33 25
36 47 28 35 -14 78 -12 92 2 20 20 14 25 -27 24 -21 0 -46 5 -54 13 -15 11
-14 17 10 54 14 23 34 52 45 64 20 22 17 43 -6 43 -7 0 -20 -8 -28 -17z m-362
-147 c-22 -34 -56 -53 -56 -31 0 20 29 78 44 87 21 14 30 -29 12 -56z"/>
<path d="M4219 8647 c-66 -44 -125 -184 -88 -208 23 -14 44 -10 84 17 31 21
36 22 30 7 -4 -10 -10 -59 -12 -108 -5 -75 -3 -93 10 -104 21 -17 43 -5 27 15
-13 14 -10 39 17 182 11 60 21 86 34 93 29 15 25 74 -6 104 -30 31 -53 31 -96
2z m77 -28 c4 -7 -1 -16 -10 -21 -9 -5 -16 -15 -16 -23 0 -15 -86 -105 -101
-105 -24 0 11 83 53 128 33 33 61 41 74 21z"/>
<path d="M2802 8641 c-7 -4 -15 -42 -18 -84 l-7 -77 -228 0 c-197 0 -229 -2
-229 -15 0 -13 39 -15 293 -14 378 2 604 11 597 24 -3 6 -76 9 -199 6 l-194
-4 6 59 c4 32 9 69 13 80 6 23 -14 38 -34 25z"/>
<path d="M3880 8601 c-5 -11 -10 -32 -10 -46 0 -26 0 -26 -55 -20 -50 7 -55 6
-55 -12 0 -15 10 -21 53 -29 52 -9 52 -9 55 -49 4 -64 11 -85 29 -85 13 0 15
9 9 64 -7 71 -3 76 59 76 39 0 65 8 65 21 0 5 -29 9 -64 9 l-64 0 9 38 c11 50
11 52 -6 52 -8 0 -19 -9 -25 -19z"/>
<path d="M5893 8524 c-3 -8 -2 -18 3 -22 5 -4 74 -5 154 -2 157 5 173 18 33
26 -49 2 -110 7 -136 9 -37 3 -49 1 -54 -11z"/>
<path d="M1655 8469 c-4 -6 -4 -13 0 -17 7 -8 350 -4 378 4 9 3 17 10 17 15 0
13 -387 12 -395 -2z"/>
<path d="M6003 8466 c-67 -6 -125 -14 -129 -19 -20 -20 21 -23 131 -11 155 17
187 23 180 35 -7 10 -17 10 -182 -5z"/>
<path d="M4731 8421 c-34 -36 -55 -92 -48 -127 3 -15 0 -24 -9 -24 -22 0 -44
43 -44 87 0 38 -3 43 -23 43 -14 0 -40 -18 -67 -46 l-45 -45 -5 43 c-6 54 -32
63 -66 21 -17 -20 -23 -23 -24 -12 0 22 -28 45 -40 33 -4 -5 -10 -40 -12 -79
-3 -66 -2 -70 19 -73 17 -3 28 6 45 35 l23 38 5 -35 c8 -54 33 -51 96 11 52
51 54 52 54 27 0 -15 11 -39 24 -55 23 -26 29 -28 100 -28 54 1 80 5 93 17 13
12 30 15 66 11 40 -5 54 -2 79 17 28 21 31 21 24 4 -20 -51 -29 -115 -19 -125
15 -15 33 -3 33 21 0 10 4 30 10 44 l9 26 39 -20 c45 -24 72 -18 72 16 0 24
-25 34 -32 13 -2 -7 -16 -1 -33 14 l-30 25 19 49 c30 80 31 85 10 81 -10 -1
-27 -18 -36 -37 l-17 -34 -10 26 c-14 37 -41 35 -41 -2 0 -66 -33 -101 -81
-86 -18 6 -20 12 -14 58 8 64 -5 85 -57 94 -33 5 -41 2 -67 -26z m77 -10 c10
-6 10 -10 -3 -21 -8 -7 -15 -28 -15 -46 0 -27 -6 -36 -29 -49 -19 -9 -32 -11
-36 -5 -10 16 12 81 36 106 25 26 28 27 47 15z"/>
<path d="M2770 8388 c-45 -13 -82 -47 -78 -73 2 -11 18 -27 35 -36 32 -16 32
-16 13 -34 -22 -20 -26 -65 -8 -83 27 -27 172 -7 192 27 12 19 -11 47 -54 66
l-42 19 47 24 c33 16 44 27 37 34 -7 7 -28 2 -68 -16 -50 -23 -62 -25 -86 -15
-15 6 -28 15 -28 20 0 27 120 63 134 40 10 -16 46 -13 46 4 0 32 -68 44 -140
23z m94 -165 c39 -20 21 -35 -49 -41 -48 -4 -55 -2 -55 13 0 10 8 27 17 37 17
19 34 18 87 -9z"/>
<path d="M7193 8190 c-50 -26 -61 -38 -69 -77 -10 -49 22 -73 94 -73 66 0 102
8 102 22 0 6 -18 8 -42 6 -66 -7 -108 8 -108 38 0 47 93 81 140 52 15 -10 22
-10 32 0 19 19 -12 43 -63 49 -32 3 -56 -2 -86 -17z"/>
<path d="M6792 8192 c-48 -14 -16 -27 58 -24 88 5 87 0 -18 -63 -68 -41 -84
-64 -62 -90 17 -20 126 -20 196 1 59 17 76 41 22 30 -67 -14 -160 -18 -170 -8
-6 6 15 24 64 53 73 44 90 68 68 94 -13 16 -112 19 -158 7z"/>
<path d="M7502 8088 c-25 -25 -9 -213 18 -213 12 0 16 21 20 100 6 114 -5 146
-38 113z"/>
<path d="M9300 7745 c0 -10 10 -15 31 -15 80 0 82 -36 4 -90 -45 -31 -56 -58
-32 -78 14 -11 197 -36 205 -27 13 13 -20 27 -89 37 -41 6 -76 12 -78 14 -2 2
19 25 48 52 28 26 51 54 51 60 0 7 -11 24 -25 37 -18 19 -35 25 -70 25 -33 0
-45 -4 -45 -15z"/>
<path d="M8715 7613 c-56 -14 -60 -47 -5 -38 49 8 52 -4 10 -52 -34 -38 -38
-68 -12 -81 42 -22 182 -23 182 -2 0 5 -31 11 -68 15 -95 9 -100 15 -63 57 39
45 41 85 5 98 -14 6 -26 9 -27 9 -1 -1 -11 -4 -22 -6z"/>
<path d="M2833 7580 c-13 -5 -23 -16 -23 -25 0 -18 11 -19 44 -4 20 10 30 9
51 -5 40 -26 32 -54 -40 -130 -71 -76 -81 -105 -41 -131 29 -19 166 -33 166
-17 0 6 -15 13 -32 17 -71 13 -118 28 -118 37 0 6 29 42 65 80 52 56 65 77 65
102 0 59 -78 101 -137 76z"/>
<path d="M9182 7509 c-23 -12 -52 -35 -64 -53 -11 -17 -28 -37 -36 -43 -19
-15 -64 -17 -78 -3 -14 14 -38 -5 -31 -24 5 -12 20 -16 55 -16 36 0 54 -5 67
-20 10 -11 24 -20 32 -20 15 0 18 -26 3 -35 -17 -11 -11 -60 10 -83 25 -27 86
-30 136 -6 41 20 45 39 7 30 -65 -16 -82 -17 -102 -7 -11 7 -21 20 -21 31 0
24 46 60 76 60 15 0 24 6 24 15 0 11 -12 15 -47 15 -51 1 -110 25 -83 33 75
25 116 44 141 68 69 64 7 105 -89 58z m78 -18 c0 -14 -52 -49 -86 -57 -27 -7
-28 -6 -14 11 31 37 100 69 100 46z"/>
<path d="M8477 7475 c-49 -17 -81 -47 -107 -100 -44 -92 -14 -145 83 -145 69
0 75 15 10 25 -27 4 -54 12 -60 17 -32 26 5 125 60 159 31 19 62 21 115 4 16
-6 22 -3 22 8 0 33 -70 51 -123 32z"/>
<path d="M8071 7467 c-22 -27 -4 -38 55 -31 63 8 74 -8 19 -26 -40 -13 -46
-36 -12 -49 12 -5 35 -14 51 -20 37 -15 32 -19 -34 -28 -31 -5 -55 -14 -58
-22 -4 -12 8 -13 68 -8 105 9 131 40 65 79 -35 20 -35 21 -15 35 44 31 10 69
-71 79 -43 5 -57 3 -68 -9z"/>
<path d="M2582 7361 c-49 -36 -95 -101 -112 -158 -11 -36 -11 -46 4 -68 22
-34 74 -34 133 0 23 14 43 23 43 19 0 -3 -11 -43 -24 -88 -31 -101 -35 -131
-19 -131 8 0 36 67 67 155 30 85 61 172 70 192 20 47 20 68 1 68 -8 0 -24 9
-35 20 -29 29 -79 26 -128 -9z m108 -35 c21 -57 -24 -124 -116 -169 -73 -35
-91 -9 -52 72 49 101 145 157 168 97z"/>
<path d="M4960 7299 c-68 -27 -123 -115 -124 -197 -1 -48 2 -56 32 -83 28 -25
41 -30 74 -27 53 4 64 28 13 28 -25 0 -43 8 -62 26 -22 22 -24 31 -19 66 10
59 41 113 79 137 19 12 37 21 40 21 11 0 -13 -53 -30 -65 -18 -13 -10 -35 12
-35 19 0 52 45 60 81 11 51 -19 70 -75 48z"/>
<path d="M4554 7286 c-15 -11 -16 -17 -7 -27 9 -9 19 -9 43 1 41 17 80 1 80
-33 0 -28 -38 -66 -122 -121 -49 -32 -63 -47 -63 -65 0 -33 39 -44 137 -36
160 12 175 43 18 37 -60 -3 -110 -2 -110 1 0 4 26 24 58 46 82 55 122 103 122
146 0 28 -6 37 -30 50 -37 19 -100 19 -126 1z"/>
<path d="M8598 7243 c-5 -63 4 -93 27 -93 15 0 16 7 19 123 1 15 -6 23 -21 25
-19 3 -21 -2 -25 -55z"/>
<path d="M5434 7271 c-18 -11 -40 -34 -50 -51 -19 -31 -19 -31 -94 -29 -85 4
-108 -4 -88 -28 10 -12 28 -14 88 -10 69 4 77 3 97 -19 l22 -24 -39 -21 c-21
-12 -44 -32 -50 -45 -17 -32 -5 -73 26 -84 75 -29 214 -18 214 16 0 11 -5 14
-17 9 -40 -15 -73 -16 -126 -5 -31 6 -59 15 -62 20 -16 26 48 80 93 80 11 0
25 6 31 14 10 12 7 18 -17 30 -15 8 -34 22 -41 30 -11 14 -11 16 5 16 27 0
116 44 137 67 10 12 15 27 11 37 -9 24 -99 22 -140 -3z m106 -16 c0 -6 -67
-40 -97 -49 -32 -10 -20 20 16 39 25 13 81 21 81 10z"/>
<path d="M6090 7250 c-14 -3 -34 -20 -46 -37 -28 -42 -50 -147 -38 -181 12
-34 57 -51 85 -33 12 7 23 11 24 9 2 -2 -12 -55 -31 -118 -36 -115 -48 -201
-29 -210 5 -3 13 6 16 20 4 14 29 97 55 185 79 268 80 273 45 344 -10 19 -49
29 -81 21z m46 -55 c0 -11 4 -28 8 -37 18 -39 -62 -153 -94 -133 -21 13 0 118
35 171 19 29 50 28 51 -1z"/>
<path d="M7536 7223 c-2 -10 -8 -38 -11 -62 l-7 -44 -50 6 c-39 5 -50 3 -55
-9 -9 -23 13 -32 62 -26 47 5 47 5 60 -71 5 -33 27 -58 40 -45 2 2 0 29 -4 61
l-8 57 58 0 c61 0 89 7 89 21 0 5 -32 9 -71 9 l-71 0 5 38 c3 20 8 47 12 60 6
19 4 22 -18 22 -16 0 -28 -7 -31 -17z"/>
<path d="M10245 7191 c-66 -12 -104 -38 -146 -103 -79 -122 -42 -178 118 -178
65 0 83 4 135 32 66 35 93 64 107 115 19 69 -17 113 -104 128 -22 4 -47 8 -55
10 -8 1 -33 -1 -55 -4z m143 -55 c67 -34 28 -125 -73 -172 -76 -36 -196 -27
-210 16 -7 23 16 79 43 104 12 10 19 23 16 28 -3 4 14 17 38 29 51 23 135 21
186 -5z"/>
<path d="M3866 7152 c-10 -2 -16 -11 -14 -20 3 -15 27 -17 217 -20 208 -2 250
3 225 27 -8 9 -390 20 -428 13z"/>
<path d="M3184 7118 c-23 -10 -61 -71 -74 -116 -7 -27 -8 -26 -28 19 -31 70
-60 72 -128 7 l-31 -29 -7 32 c-5 28 -9 31 -33 26 -15 -3 -35 0 -44 6 -23 14
-29 8 -34 -34 -2 -19 -7 -55 -11 -81 -5 -44 -4 -48 14 -48 15 0 24 11 33 38 6
20 18 46 25 57 13 18 14 16 14 -23 0 -66 21 -64 88 8 l57 63 23 -51 c16 -35
32 -54 53 -62 42 -18 107 -7 136 23 25 24 25 24 60 6 39 -20 71 -17 111 8 32
20 38 10 14 -24 -25 -35 -62 -109 -62 -123 0 -5 7 -10 15 -10 8 0 15 4 15 8 0
5 18 36 39 69 l39 61 46 -5 c52 -6 65 11 16 22 -16 4 -30 11 -30 16 0 5 16 26
35 48 19 21 35 44 35 50 0 25 -41 8 -74 -31 -34 -41 -36 -42 -37 -18 -1 14 -1
37 0 53 2 17 -4 29 -14 34 -22 8 -35 -13 -35 -59 0 -65 -64 -102 -105 -61 -13
12 -15 26 -11 55 5 31 3 40 -11 45 -10 4 -24 13 -31 20 -16 15 -39 16 -68 1z
m46 -57 c0 -33 -39 -94 -63 -99 -30 -6 -14 66 25 116 18 22 38 14 38 -17z"/>
<path d="M5708 7106 c-24 -18 -23 -46 1 -46 23 0 53 28 48 44 -5 16 -29 18
-49 2z"/>
<path d="M9461 7112 c-7 -5 -12 -15 -9 -22 3 -9 47 -13 158 -14 85 -1 163 -5
173 -10 12 -6 17 -4 17 8 0 9 -14 19 -37 25 -54 15 -285 24 -302 13z"/>
<path d="M8960 7089 c-135 -9 -362 -20 -505 -24 -329 -7 -385 -12 -385 -31 0
-12 16 -14 98 -10 53 3 176 8 272 11 96 3 305 15 465 26 159 10 314 19 342 19
40 0 53 4 53 15 0 18 -12 18 -340 -6z"/>
<path d="M5055 7077 c-8 -13 -19 -47 -25 -76 -15 -78 2 -131 41 -131 20 0 25
15 9 25 -15 9 -12 101 5 142 24 57 2 87 -30 40z"/>
<path d="M6931 7009 c-11 -12 -25 -34 -32 -50 l-12 -30 -11 23 c-17 34 -36 28
-52 -17 -15 -47 -55 -85 -88 -85 -31 0 -36 8 -24 36 15 32 -12 74 -48 74 -33
0 -82 -49 -90 -89 -6 -28 -10 -31 -44 -31 -41 0 -57 14 -69 56 -10 40 -35 52
-60 30 -18 -17 -19 -17 -25 2 -10 31 -33 33 -66 6 -16 -14 -30 -21 -30 -15 0
6 -11 11 -25 11 -27 0 -25 6 -29 -122 -2 -43 31 -33 58 19 41 78 47 84 44 38
-3 -34 0 -40 18 -43 14 -2 30 8 47 27 24 29 26 30 32 11 13 -40 43 -50 145
-45 52 3 120 4 151 4 48 0 60 4 87 29 37 35 39 30 12 -29 -38 -84 -11 -115 28
-33 19 39 25 44 45 38 24 -7 30 -8 65 -6 38 3 27 32 -12 32 -19 0 -38 5 -41
10 -6 10 34 89 63 122 15 18 10 48 -7 48 -6 0 -19 -9 -30 -21z m-276 -120 c-3
-38 -45 -71 -45 -35 0 12 36 66 45 66 1 0 2 -14 0 -31z"/>
<path d="M9475 6980 c-3 -5 3 -14 14 -19 34 -19 296 -8 296 12 0 10 -304 17
-310 7z"/>
<path d="M8681 6886 c-30 -92 -26 -106 33 -106 l45 0 -2 -52 c-2 -49 0 -53 21
-56 20 -3 23 0 18 16 -4 11 -2 39 5 63 6 24 12 55 14 69 2 14 6 38 10 53 7 26
5 28 -16 25 -18 -2 -26 -12 -33 -40 -7 -29 -15 -37 -39 -42 -17 -3 -32 -4 -34
-2 -2 2 7 32 21 66 27 65 26 80 -2 80 -12 0 -24 -21 -41 -74z"/>
<path d="M10585 6393 c-232 -3 -729 -22 -1030 -38 -457 -26 -1604 -58 -2133
-60 l-513 -3 -19 -22 c-11 -13 -20 -27 -20 -32 0 -16 -231 -530 -273 -610 -34
-63 -47 -78 -65 -78 -20 0 -22 4 -18 33 3 17 13 73 21 122 21 124 19 167 -6
199 -22 28 -47 32 -146 20 -44 -6 -53 -10 -53 -27 0 -17 5 -19 33 -13 94 19
120 20 133 1 18 -24 18 -63 -2 -188 -23 -148 -22 -146 -47 -151 -12 -3 -200
-10 -417 -16 -217 -6 -512 -15 -655 -20 -145 -4 -328 -5 -415 0 -437 24 -430
24 -430 8 0 -22 240 -33 660 -32 344 1 1092 20 1212 31 l67 6 3 -39 c3 -34 7
-39 30 -42 22 -3 32 4 53 36 l26 40 232 8 c128 5 723 6 1322 4 600 -2 1243 -4
1430 -4 497 1 1225 16 1225 25 0 19 -73 22 -454 14 -484 -11 -893 -12 -2056
-5 -487 3 -1063 1 -1281 -4 l-395 -8 52 108 c29 60 100 219 159 354 59 135
109 247 111 249 3 3 143 4 312 2 169 -1 435 3 592 8 157 6 530 18 830 26 300
8 678 22 840 30 516 26 769 35 1008 35 227 0 232 0 232 -20 0 -34 28 -90 44
-90 13 0 16 12 16 59 0 74 -7 92 -34 89 -11 -1 -93 -3 -181 -5z m-4061 -888
c-4 -8 -8 -15 -10 -15 -2 0 -4 7 -4 15 0 8 4 15 10 15 5 0 7 -7 4 -15z"/>
<path d="M8231 6121 c-12 -8 -12 -12 -2 -25 15 -17 41 -22 41 -7 0 11 66 3 93
-11 28 -15 20 -34 -33 -73 -68 -50 -80 -73 -50 -97 33 -27 200 -24 200 3 0 5
-19 9 -42 10 -24 0 -63 4 -88 7 l-45 7 48 35 c82 58 93 110 31 139 -33 15
-137 23 -153 12z"/>
<path d="M9807 6123 c-18 -17 -5 -33 26 -33 70 0 75 -43 11 -95 -26 -22 -44
-44 -42 -54 4 -20 59 -40 115 -40 84 -2 100 23 20 33 -78 10 -83 17 -42 56 45
44 46 79 4 114 -29 24 -77 34 -92 19z"/>
<path d="M10418 6124 c-11 -10 11 -34 31 -34 24 0 110 -30 116 -40 3 -5 -19
-27 -49 -49 -65 -48 -77 -75 -47 -104 36 -37 211 -34 211 3 0 7 -15 9 -42 5
-52 -7 -130 6 -135 22 -3 7 18 28 45 48 55 39 67 58 52 84 -17 32 -163 84
-182 65z"/>
<path d="M7585 6099 c-12 -19 5 -24 78 -24 90 0 93 -13 18 -64 -101 -68 -94
-99 26 -103 106 -3 120 21 18 30 -31 2 -54 9 -53 13 2 5 26 26 53 47 89 67 65
112 -62 112 -40 0 -75 -5 -78 -11z"/>
<path d="M5992 5998 c-7 -7 -12 -30 -12 -51 l0 -39 -67 4 c-49 2 -67 0 -71
-11 -7 -21 18 -31 76 -31 l52 0 -6 -81 c-6 -68 -5 -81 7 -77 8 3 20 31 27 64
6 32 14 69 17 82 4 18 12 22 45 22 44 0 90 15 90 29 0 6 -24 8 -63 4 l-63 -6
0 48 c1 49 -10 65 -32 43z"/>
<path d="M5463 5979 c-39 -11 -93 -64 -93 -90 0 -24 -45 -26 -79 -3 -21 15
-24 15 -39 0 -16 -16 -16 -18 2 -32 11 -8 41 -14 67 -14 26 0 66 -9 89 -19
l43 -19 -42 -21 c-72 -37 -80 -95 -15 -113 42 -12 195 -11 227 1 51 19 27 26
-92 26 -66 0 -123 4 -127 8 -17 17 16 43 84 67 98 34 96 49 -5 65 -57 9 -61
19 -12 35 80 27 117 90 63 110 -29 11 -28 11 -71 -1z m57 -39 c0 -10 -71 -50
-90 -50 -21 0 -9 21 23 40 34 21 67 26 67 10z"/>
<path d="M7029 5968 c-26 -28 -89 -151 -89 -174 0 -15 9 -16 80 -10 l79 6 -25
-66 c-26 -69 -25 -86 4 -68 21 13 77 144 85 199 3 22 9 50 13 62 4 17 1 25
-11 30 -24 8 -41 -17 -49 -71 l-7 -44 -52 -5 c-29 -2 -54 -3 -56 -1 -8 7 64
114 76 114 20 0 28 31 12 41 -22 14 -37 11 -60 -13z"/>
<path d="M7372 5950 c-47 -34 -102 -121 -102 -162 0 -17 7 -31 19 -38 25 -13
135 -13 184 1 66 18 42 29 -57 27 -52 -2 -97 0 -101 4 -13 12 36 97 73 128 32
26 37 27 47 13 14 -19 45 -11 45 11 0 20 -28 46 -49 46 -10 0 -37 -13 -59 -30z"/>
<path d="M4885 5946 c-133 -61 -167 -147 -78 -198 35 -21 143 -30 150 -13 2 6
-24 16 -58 22 -64 12 -99 35 -99 63 0 29 74 87 134 106 53 17 56 17 75 0 22
-20 41 -14 41 14 0 37 -89 41 -165 6z"/>
<path d="M10275 5941 c-44 -19 -95 -73 -95 -98 0 -12 -13 -14 -72 -11 -63 2
-73 1 -76 -15 -3 -15 6 -17 77 -17 44 0 82 -4 86 -9 3 -5 19 -12 36 -16 30 -7
30 -7 10 -22 -28 -19 -27 -58 1 -77 29 -20 117 -21 163 -2 43 18 49 42 8 30
-36 -11 -139 -11 -150 -1 -12 13 33 45 73 53 55 10 41 31 -26 38 -33 4 -62 11
-65 16 -4 6 1 10 10 10 48 0 150 84 139 114 -11 29 -64 32 -119 7z m78 -26 c1
-13 -59 -54 -90 -61 -56 -14 -32 28 32 57 42 19 56 20 58 4z"/>
<path d="M8091 5939 c-41 -16 -81 -50 -81 -69 0 -21 -52 -32 -87 -19 -27 10
-53 2 -53 -16 0 -20 34 -27 103 -24 59 3 147 -16 147 -31 0 -4 -14 -13 -31
-20 -60 -25 -74 -83 -22 -96 70 -18 243 22 243 56 0 13 -11 13 -51 -4 -48 -19
-119 -27 -154 -17 l-30 8 60 29 c79 39 81 61 7 82 l-53 15 60 29 c57 27 80 55
66 78 -8 12 -92 12 -124 -1z m79 -24 c0 -6 -68 -40 -99 -50 -38 -12 -15 14 33
36 40 18 66 24 66 14z"/>
<path d="M9500 5928 c-93 -48 -101 -132 -16 -162 53 -19 157 -29 176 -17 21
14 12 19 -65 31 -97 15 -125 27 -125 55 0 39 53 75 111 75 42 0 49 -3 49 -20
0 -13 7 -20 19 -20 42 0 38 49 -5 68 -39 18 -96 14 -144 -10z"/>
<path d="M9127 5923 c-4 -3 -7 -13 -7 -21 0 -12 10 -14 55 -8 66 8 75 -10 20
-43 -47 -27 -44 -45 9 -65 55 -21 87 -53 66 -66 -22 -14 -61 -12 -94 5 -37 20
-46 19 -46 -4 0 -38 117 -60 169 -31 44 23 19 85 -47 119 l-23 12 25 26 c28
28 33 52 14 71 -13 13 -130 17 -141 5z"/>
<path d="M4472 5909 c-13 -5 -22 -15 -19 -21 4 -13 10 -14 87 -3 33 5 50 2 65
-9 27 -20 14 -41 -51 -83 -89 -57 -100 -68 -85 -87 24 -28 109 -19 215 23 48
19 17 34 -33 16 -24 -8 -62 -15 -85 -15 l-41 0 60 38 c90 58 102 102 35 137
-32 17 -112 19 -148 4z"/>
<path d="M8597 5806 c-16 -41 73 -58 238 -48 81 6 100 10 103 23 3 15 -12 16
-132 15 -96 -1 -139 3 -147 12 -17 16 -56 15 -62 -2z"/>
<path d="M5057 5783 c-3 -5 -8 -30 -11 -58 -5 -36 -3 -55 7 -69 14 -19 14 -19
24 0 6 10 14 45 17 77 7 53 6 57 -13 57 -11 0 -22 -3 -24 -7z"/>
<path d="M7538 5773 c-39 -44 -49 -155 -15 -161 13 -3 17 4 17 30 0 18 9 53
21 77 27 61 13 94 -23 54z"/>
<path d="M2479 5742 c-72 -46 -141 -170 -119 -213 24 -44 81 -31 149 34 31 30
42 36 38 22 -27 -102 -57 -294 -57 -361 0 -35 4 -54 14 -57 21 -8 26 2 26 54
0 59 31 241 64 379 32 130 32 138 1 150 -57 22 -70 21 -116 -8z m77 -26 c15
-39 -102 -176 -151 -176 -28 0 38 125 87 164 37 29 56 33 64 12z"/>
<path d="M9713 5744 c-22 -35 -25 -159 -3 -159 10 0 17 16 23 55 4 30 14 65
23 78 9 13 13 30 10 38 -8 22 -34 16 -53 -12z"/>
<path d="M3784 5675 c-4 -9 -1 -20 5 -25 15 -9 271 -21 284 -13 18 11 -22 23
-114 33 -52 5 -111 13 -131 16 -30 4 -39 2 -44 -11z"/>
<path d="M5863 5668 c-12 -20 15 -28 96 -28 119 0 211 10 211 24 0 13 -299 16
-307 4z"/>
<path d="M3780 5567 c0 -19 25 -24 152 -31 148 -8 223 16 86 27 -235 21 -238
21 -238 4z"/>
<path d="M2666 5362 c-4 -7 -9 -131 -7 -169 1 -19 31 -15 38 5 13 40 46 103
51 98 3 -3 6 -29 7 -58 1 -45 5 -53 22 -56 14 -2 24 7 38 37 19 43 50 77 58
64 2 -4 10 -25 16 -45 22 -68 91 -96 165 -68 16 6 27 6 31 0 10 -17 32 -11 64
16 l31 26 26 -21 c29 -23 83 -28 115 -11 25 14 24 10 -11 -60 -18 -35 -26 -61
-20 -65 16 -10 26 1 66 68 21 34 39 64 40 66 2 2 15 -6 30 -18 27 -21 84 -29
84 -11 0 5 -16 17 -35 26 -60 28 -65 62 -17 116 13 16 13 18 -2 24 -11 4 -26
-2 -42 -16 -20 -20 -24 -21 -24 -7 0 10 -8 17 -20 17 -15 0 -20 -7 -20 -25 0
-62 -49 -108 -95 -87 -26 12 -39 34 -50 85 -6 31 -42 50 -84 45 -29 -3 -50
-39 -58 -98 -4 -28 -11 -40 -27 -44 -61 -16 -86 1 -112 77 -20 58 -51 71 -95
38 -21 -16 -29 -18 -29 -8 0 8 -9 22 -20 32 -16 15 -25 16 -44 7 -20 -9 -25
-8 -29 9 -5 19 -31 26 -41 11z m484 -75 c0 -19 -27 -53 -36 -45 -9 10 12 58
26 58 5 0 10 -6 10 -13z"/>
<path d="M7140 5280 c0 -18 7 -20 83 -20 95 0 123 -11 92 -36 -11 -9 -50 -31
-86 -49 -177 -90 -173 -156 10 -156 99 -1 271 19 271 31 0 5 -78 7 -174 7 -96
-1 -178 1 -182 5 -13 14 20 40 105 83 48 23 94 52 104 63 47 52 -15 92 -140
92 -76 0 -83 -2 -83 -20z"/>
<path d="M8945 4841 c-60 -27 -68 -53 -47 -148 15 -70 17 -159 17 -862 l0
-784 29 -10 c30 -10 103 -3 275 29 168 31 80 47 -109 20 -52 -7 -110 -11 -128
-9 l-32 5 2 782 c2 601 0 795 -10 842 -15 75 -11 88 36 107 42 17 83 9 117
-23 24 -23 55 -27 55 -7 0 18 -39 53 -73 66 -41 16 -86 13 -132 -8z"/>
<path d="M9592 4734 c2 -15 15 -20 62 -24 75 -6 83 -24 21 -51 -67 -30 -58
-49 30 -66 98 -18 105 -21 81 -39 -11 -8 -34 -14 -50 -14 -38 0 -61 -14 -51
-30 5 -8 23 -10 57 -6 62 9 96 24 104 48 8 28 -12 46 -71 64 l-53 15 24 24
c50 50 16 88 -88 93 -64 4 -70 3 -66 -14z"/>
<path d="M10745 4725 c-16 -9 -37 -24 -47 -35 -20 -24 -36 -25 -59 -4 -21 19
-39 11 -39 -16 0 -23 28 -40 64 -40 15 0 43 -9 63 -20 21 -11 47 -20 58 -20
13 0 6 -7 -20 -19 -52 -23 -69 -45 -69 -88 0 -73 115 -134 218 -115 57 10 45
26 -22 28 -82 2 -152 43 -152 90 0 27 16 41 77 64 67 25 66 50 -4 69 -29 8
-53 17 -53 20 0 3 21 14 46 25 52 21 66 43 39 62 -25 18 -63 18 -100 -1z m52
-31 c-3 -3 -12 -4 -19 -1 -8 3 -5 6 6 6 11 1 17 -2 13 -5z"/>
<path d="M10201 4659 c-74 -29 -160 -142 -147 -192 9 -39 62 -61 160 -65 72
-4 88 -2 84 9 -3 9 -28 16 -71 21 -74 7 -94 12 -121 33 -18 14 -18 15 7 58 29
49 80 92 121 103 22 5 26 3 26 -14 0 -12 -4 -24 -10 -27 -19 -12 -10 -35 13
-35 25 0 47 33 47 70 0 43 -52 62 -109 39z"/>
<path d="M10365 4401 c-8 -69 1 -121 20 -121 9 0 16 19 20 58 13 109 12 117
-11 120 -20 3 -23 -3 -29 -57z"/>
<path d="M9530 4442 c-5 -2 -10 -11 -10 -19 0 -14 19 -15 153 -8 83 4 154 8
156 10 1 2 0 9 -4 15 -5 8 -49 11 -146 8 -76 -2 -143 -4 -149 -6z"/>
<path d="M9707 4383 c-16 -16 -4 -23 38 -23 25 0 45 -3 45 -7 0 -5 -16 -18
-34 -31 -84 -57 -126 -118 -96 -137 22 -14 100 -6 149 15 51 22 71 47 29 37
-82 -21 -130 -29 -136 -22 -4 4 11 21 33 39 22 17 55 45 73 63 28 27 32 35 22
53 -9 16 -21 20 -64 20 -29 0 -56 -3 -59 -7z"/>
<path d="M7608 4360 c-54 -29 -79 -65 -67 -96 5 -14 9 -27 9 -30 0 -9 -62 -3
-80 8 -27 17 -50 -4 -34 -30 14 -22 74 -27 127 -10 23 7 54 12 69 10 l28 -3
-43 -33 c-50 -38 -59 -72 -26 -102 18 -16 36 -19 115 -19 117 0 125 17 13 27
-124 10 -132 28 -42 89 59 41 55 69 -10 69 -20 0 -20 1 6 18 58 39 72 80 35
106 -29 21 -55 20 -100 -4z m82 -28 c0 -22 -66 -72 -95 -72 -28 0 -16 39 18
60 32 20 77 27 77 12z"/>
<path d="M6993 4341 c-52 -24 -127 -92 -143 -130 -29 -72 12 -112 122 -119 72
-4 188 12 188 27 0 4 -51 7 -114 8 -90 0 -120 4 -140 17 -32 21 -32 32 -2 77
37 55 110 99 163 99 40 0 43 -2 43 -26 0 -21 4 -25 23 -22 30 4 34 41 8 67
-27 27 -91 27 -148 2z"/>
<path d="M6447 4154 c-4 -4 -7 -35 -7 -70 l0 -62 -37 10 c-78 20 -93 21 -93 5
0 -24 24 -37 79 -44 l51 -6 0 -63 c0 -62 14 -90 31 -63 5 8 9 38 9 67 l0 52
43 0 c51 0 117 17 117 31 0 5 -17 8 -37 7 -21 -1 -56 -1 -78 0 l-40 2 0 67 c0
53 -3 68 -15 71 -9 1 -19 0 -23 -4z"/>
<path d="M7257 4153 c-2 -5 -7 -40 -11 -79 -5 -56 -4 -73 8 -83 8 -7 17 -8 20
-3 5 9 25 132 26 160 0 13 -36 17 -43 5z"/>
<path d="M5753 4139 c-34 -10 -83 -61 -83 -86 0 -12 -9 -14 -42 -10 -24 3 -55
8 -70 12 -24 6 -28 4 -28 -13 0 -24 25 -32 101 -32 32 0 74 -8 96 -18 l39 -17
-38 -19 c-66 -31 -90 -113 -45 -153 12 -11 32 -26 44 -32 32 -16 139 -13 200
6 61 19 73 40 16 27 -21 -5 -70 -9 -110 -9 -57 0 -77 4 -100 21 -15 12 -29 28
-31 36 -5 26 47 77 91 90 84 24 87 42 11 64 l-57 16 50 18 c89 31 126 67 102
96 -13 16 -96 17 -146 3z m99 -39 c-25 -21 -120 -55 -129 -46 -8 8 27 46 52
57 11 4 38 8 60 8 l40 0 -23 -19z"/>
<path d="M5180 4119 c-47 -19 -132 -91 -161 -137 -43 -68 -39 -111 14 -131 47
-18 257 -11 257 9 0 4 -55 10 -122 13 -67 4 -126 11 -131 16 -17 17 8 67 59
119 55 54 105 82 148 82 19 0 23 -4 19 -20 -4 -16 0 -20 20 -20 32 0 42 26 22
56 -12 19 -24 24 -58 23 -23 0 -53 -5 -67 -10z"/>
<path d="M3080 4028 c-35 -19 -69 -108 -70 -180 0 -50 3 -60 24 -74 35 -22 72
-3 115 61 30 44 33 47 28 20 -4 -16 -10 -89 -13 -161 -5 -98 -4 -133 5 -138 7
-5 14 -6 16 -4 5 4 33 247 42 358 5 62 4 66 -24 93 -35 33 -88 43 -123 25z
m84 -51 c9 -14 5 -28 -16 -70 -30 -56 -72 -107 -90 -107 -18 0 -3 111 21 159
19 35 26 42 48 39 14 -2 31 -11 37 -21z"/>
<path d="M4405 4009 c-4 -5 1 -20 12 -31 17 -20 25 -20 156 -15 75 3 142 9
148 13 26 15 -22 24 -138 24 -70 0 -124 4 -128 10 -8 13 -42 13 -50 -1z"/>
<path d="M6944 3935 c-4 -9 -4 -18 -2 -21 10 -10 768 -9 770 1 2 6 -78 12
-217 16 -121 4 -293 10 -383 14 -144 6 -163 5 -168 -10z"/>
<path d="M8215 3940 c-2 -3 0 -12 5 -20 6 -10 28 -12 102 -7 115 8 168 17 168
28 0 9 -270 8 -275 -1z"/>
<path d="M4395 3880 c-13 -21 12 -32 91 -40 81 -8 194 -2 194 10 0 3 -53 11
-117 17 -65 6 -128 14 -139 18 -13 4 -25 2 -29 -5z"/>
<path d="M5354 3878 c-4 -6 -9 -44 -12 -83 -5 -79 7 -115 38 -115 23 0 24 4 9
28 -9 14 -9 38 -2 88 6 38 8 75 6 82 -6 15 -30 16 -39 0z"/>
<path d="M9778 3873 c-1 -5 -2 -59 -2 -120 -1 -82 2 -113 11 -113 24 0 33 40
33 139 0 94 -1 101 -20 101 -11 0 -21 -3 -22 -7z"/>
<path d="M10945 3858 c-47 -17 -79 -43 -100 -82 -22 -41 -45 -46 -73 -16 -29
31 -67 9 -44 -26 11 -16 48 -34 71 -34 14 0 21 -6 21 -19 0 -11 11 -28 25 -39
20 -16 22 -21 10 -26 -23 -8 -49 -70 -41 -99 10 -40 33 -57 79 -57 44 0 147
42 147 60 0 14 -16 13 -51 -6 -18 -9 -49 -14 -77 -12 -42 3 -47 6 -50 28 -4
35 36 70 87 77 32 4 41 10 39 22 -2 11 -18 18 -49 21 -48 6 -79 23 -79 45 0 7
29 27 64 44 59 29 116 79 116 102 0 9 -43 30 -58 28 -4 0 -20 -5 -37 -11z m37
-41 c-17 -20 -92 -60 -92 -48 0 5 12 18 28 29 43 30 83 42 64 19z"/>
<path d="M8477 3854 c-4 -4 -75 -9 -159 -13 -127 -5 -153 -9 -153 -21 0 -13
16 -14 95 -11 125 4 242 23 248 39 4 12 -20 17 -31 6z"/>
<path d="M6345 3830 c-3 -5 -4 -14 -1 -18 6 -11 220 -36 261 -31 44 6 37 24
-10 27 -22 2 -72 9 -112 17 -84 17 -129 19 -138 5z"/>
<path d="M4032 3760 c-9 -22 -20 -40 -23 -40 -3 0 -11 11 -17 25 -6 14 -20 25
-30 25 -16 0 -20 -9 -25 -47 -5 -50 -27 -76 -55 -66 -27 9 -42 34 -42 69 0 39
-36 67 -83 62 -37 -4 -77 -55 -77 -99 0 -60 -57 -43 -90 27 -24 52 -53 58 -90
19 l-23 -25 -12 23 c-7 14 -19 21 -33 20 -13 -2 -25 4 -28 12 -4 8 -14 15 -23
15 -14 0 -20 -16 -30 -79 -13 -77 -10 -101 10 -101 5 0 19 17 32 37 21 36 21
36 27 13 9 -40 35 -35 76 14 40 48 54 56 54 32 0 -8 14 -28 31 -45 22 -22 40
-31 64 -31 19 0 37 -4 40 -10 3 -5 23 -10 44 -10 27 0 44 7 61 25 21 22 25 23
44 10 11 -8 37 -15 57 -15 29 0 43 7 62 30 36 42 40 24 11 -48 -14 -35 -22
-67 -19 -72 8 -12 35 -13 35 -1 0 5 9 29 21 55 l20 47 26 -21 c27 -21 63 -27
63 -10 0 5 -16 24 -35 42 l-35 33 25 53 c14 30 22 58 19 63 -12 21 -37 6 -52
-31z m-252 -26 c0 -20 -28 -61 -47 -68 -12 -5 -14 -1 -8 21 14 58 55 93 55 47z"/>
<path d="M7230 3772 c-81 -12 -45 -27 58 -23 55 2 116 -2 140 -9 42 -11 43
-12 27 -30 -9 -10 -47 -34 -84 -54 -114 -60 -130 -99 -47 -111 51 -8 180 8
269 32 60 17 81 40 25 29 -79 -16 -187 -27 -241 -24 l-58 3 86 50 c113 65 129
96 67 124 -31 15 -178 22 -242 13z"/>
<path d="M10274 3728 c-63 -35 -80 -51 -104 -90 -64 -109 53 -183 204 -129 66
23 70 26 62 39 -4 6 -23 5 -53 -4 -94 -28 -193 -11 -193 34 0 50 101 135 155
130 24 -2 31 -8 33 -30 3 -22 9 -28 28 -28 31 0 33 36 3 74 -26 33 -78 35
-135 4z"/>
<path d="M9680 3612 c0 -11 7 -23 16 -26 44 -17 274 4 274 25 0 4 -51 7 -112
6 -62 -1 -128 2 -145 7 -29 8 -33 6 -33 -12z"/>
<path d="M10514 3556 c-13 -33 -10 -199 3 -203 19 -7 30 34 34 127 4 74 2 85
-14 88 -9 2 -20 -4 -23 -12z"/>
<path d="M9766 3543 c-3 -4 -6 -12 -6 -20 0 -9 17 -13 60 -13 75 0 77 -13 10
-60 -61 -43 -79 -72 -59 -96 18 -22 97 -15 167 16 84 36 64 54 -27 24 -27 -8
-62 -14 -77 -12 -28 3 -28 3 24 41 29 22 57 47 62 57 13 25 3 49 -24 54 -45 9
-124 15 -130 9z"/>
<path d="M3052 2728 c-31 -31 5 -63 38 -33 14 12 27 15 47 10 l28 -7 -37 -19
c-21 -11 -35 -24 -32 -32 2 -6 30 -26 62 -43 31 -17 56 -35 55 -40 -3 -13 -40
-22 -100 -23 -42 -1 -53 -4 -53 -17 0 -15 11 -16 85 -12 47 3 92 12 101 19 25
21 12 52 -38 85 -46 31 -47 32 -27 49 25 23 24 40 -3 59 -26 19 -109 21 -126
4z"/>
<path d="M4992 2728 c-22 -22 -12 -28 41 -23 29 4 59 1 67 -4 12 -9 7 -17 -29
-49 -51 -44 -51 -65 2 -87 42 -17 63 -40 46 -50 -6 -4 -40 -10 -75 -13 -45 -3
-64 -9 -64 -18 0 -31 163 -9 184 25 13 21 -23 69 -60 81 l-37 13 41 34 c47 39
53 64 20 87 -27 19 -119 21 -136 4z"/>
<path d="M9814 2709 c-130 -9 -162 -23 -193 -83 -30 -59 -21 -71 40 -49 54 20
79 13 79 -21 0 -35 -40 -60 -80 -51 -16 4 -30 4 -30 2 0 -47 73 -52 121 -9 57
51 32 122 -42 122 -29 0 -37 3 -33 14 8 21 56 35 161 48 83 11 108 20 86 30
-5 2 -53 1 -109 -3z"/>
<path d="M6885 2676 c-37 -40 -69 -131 -59 -170 15 -61 108 -81 150 -32 29 33
30 48 5 71 -15 12 -32 16 -65 13 -50 -3 -51 -2 -35 39 16 42 57 82 80 76 14
-4 19 0 19 16 0 36 -56 28 -95 -13z m70 -156 c10 -16 -14 -40 -41 -40 -29 0
-40 16 -24 35 14 17 56 20 65 5z"/>
<path d="M10165 2668 c-2 -7 -9 -37 -14 -67 -12 -56 -66 -199 -82 -215 -14
-15 -11 -46 4 -46 8 0 22 9 32 20 14 15 26 18 59 14 40 -6 67 2 185 53 11 5
11 2 2 -16 -13 -24 -7 -41 14 -41 13 0 52 40 91 95 l22 29 26 -52 c14 -29 33
-52 41 -52 19 0 19 10 -2 62 -19 50 -40 78 -59 78 -7 0 -34 -13 -60 -30 -53
-33 -172 -84 -221 -95 -49 -10 -41 11 17 47 32 20 50 37 47 47 -4 23 -44 16
-85 -16 l-34 -26 8 24 c50 151 56 199 22 199 -5 0 -10 -6 -13 -12z"/>
<path d="M1588 2651 c-50 -40 -109 -201 -88 -241 15 -28 61 -26 90 5 13 14 25
23 27 21 2 -2 -10 -58 -27 -124 -32 -131 -37 -176 -18 -170 7 3 35 87 62 189
28 101 56 187 63 192 16 10 5 106 -15 130 -20 23 -63 22 -94 -2z m68 -35 c7
-19 -59 -146 -92 -177 l-24 -22 0 34 c0 36 40 131 67 161 19 22 42 23 49 4z"/>
<path d="M4075 2606 c-57 -27 -88 -57 -90 -89 -1 -18 -7 -21 -28 -19 -22 3
-27 -1 -27 -18 0 -21 2 -22 83 -15 l82 7 -42 -39 c-80 -74 -63 -133 39 -133
58 0 138 18 138 32 0 5 -27 7 -67 3 -42 -4 -79 -2 -97 4 -26 11 -27 13 -14 34
8 12 34 35 57 50 48 33 52 53 14 68 l-27 10 51 29 c56 32 85 64 76 86 -8 23
-91 17 -148 -10z m100 -16 c-10 -17 -108 -70 -128 -70 -32 0 -13 24 42 52 53
28 98 37 86 18z"/>
<path d="M9374 2599 c-3 -5 -2 -13 1 -19 8 -14 182 -13 190 1 4 6 5 12 4 13
-10 8 -190 12 -195 5z"/>
<path d="M3497 2560 c-71 -45 -107 -122 -79 -167 13 -21 79 -43 127 -43 63 0
56 14 -13 28 -65 13 -82 26 -82 59 0 35 27 71 76 99 59 34 87 30 94 -16 7 -49
34 -47 38 3 4 52 -11 67 -67 67 -35 0 -59 -8 -94 -30z"/>
<path d="M6525 2570 c-11 -18 4 -28 58 -40 58 -13 122 -10 122 5 -1 6 -26 13
-58 17 -31 4 -66 12 -76 18 -25 13 -38 13 -46 0z"/>
<path d="M8483 2515 c-22 -9 -33 -21 -33 -35 0 -31 30 -38 48 -12 17 25 62 30
62 7 0 -9 -16 -25 -35 -36 -42 -25 -45 -47 -6 -60 43 -15 95 -45 98 -56 5 -13
-50 -33 -90 -33 -29 0 -30 0 -12 20 18 19 17 20 -2 20 -12 0 -31 -8 -44 -19
-20 -16 -21 -21 -10 -35 16 -19 108 -21 161 -3 49 17 53 54 10 91 -17 14 -42
29 -56 32 l-24 6 30 34 c34 39 37 56 14 78 -19 20 -68 20 -111 1z"/>
<path d="M7352 2450 c-50 -56 -59 -80 -28 -80 10 0 8 -15 -8 -60 -15 -42 -18
-62 -10 -70 18 -18 43 -1 42 29 -1 15 20 72 46 126 25 54 46 102 46 106 0 25
-41 1 -88 -51z"/>
<path d="M8971 2424 c-48 -127 -52 -141 -35 -155 19 -16 47 7 39 32 -3 10 10
53 31 98 20 44 34 87 31 96 -14 34 -35 12 -66 -71z"/>
<path d="M4421 2486 c-15 -18 5 -30 66 -40 47 -7 153 3 153 14 0 4 -39 12 -87
17 -49 5 -95 13 -104 17 -9 4 -21 1 -28 -8z"/>
<path d="M5720 2482 c-20 -17 -23 -23 -12 -33 10 -11 18 -10 42 4 36 22 75 14
97 -20 15 -22 14 -25 -5 -46 -12 -12 -47 -38 -79 -57 -126 -74 -133 -80 -127
-95 5 -12 26 -15 99 -15 95 0 125 5 125 21 0 5 -37 9 -82 9 l-83 0 76 45 c90
52 133 97 123 129 -19 66 -122 100 -174 58z"/>
<path d="M9129 2470 c-54 -16 -67 -29 -78 -81 -16 -71 0 -103 53 -107 49 -4
85 11 126 53 41 43 46 90 10 115 -30 22 -76 30 -111 20z m91 -45 c17 -20 5
-49 -36 -84 -36 -32 -93 -43 -95 -18 -4 47 4 94 19 105 22 17 97 15 112 -3z"/>
<path d="M2512 2457 c-6 -7 -9 -17 -5 -20 3 -4 55 -7 115 -7 89 0 108 3 108
15 0 12 -15 15 -74 15 -40 0 -87 3 -103 6 -19 4 -33 1 -41 -9z"/>
<path d="M6220 2368 c-49 -117 -58 -183 -25 -183 17 0 20 7 21 40 0 25 16 74
42 129 47 99 50 116 24 116 -14 0 -29 -26 -62 -102z"/>
<path d="M7879 2460 c-10 -7 -10 -11 1 -25 11 -13 30 -15 104 -13 99 3 120 19
40 29 -113 15 -132 16 -145 9z"/>
<path d="M2910 2452 c-6 -2 -10 -10 -10 -17 0 -11 37 -14 178 -17 170 -3 208
1 182 17 -13 8 -332 23 -350 17z"/>
<path d="M5420 2424 c0 -21 4 -25 23 -22 14 2 23 11 25 26 3 18 -1 22 -22 22
-21 0 -26 -5 -26 -26z"/>
<path d="M7123 2429 c-16 -16 -5 -39 18 -39 24 0 37 29 18 41 -18 11 -23 11
-36 -2z"/>
<path d="M7487 2422 c-9 -9 -19 -40 -22 -68 -8 -59 8 -84 56 -84 91 0 142 88
84 145 -30 31 -93 34 -118 7z m92 -31 c23 -23 18 -55 -12 -76 -52 -37 -80 -7
-52 56 20 43 36 48 64 20z"/>
<path d="M4547 2414 c-3 -3 -39 -9 -79 -12 -82 -8 -98 -25 -26 -30 50 -3 158
23 158 39 0 10 -43 13 -53 3z"/>
<path d="M6372 2408 c-22 -22 -12 -29 37 -22 58 8 91 -7 91 -40 0 -48 -79
-114 -121 -101 -17 6 -20 13 -16 43 3 21 8 47 12 60 6 18 4 22 -12 22 -44 0
-61 -117 -21 -144 46 -32 113 -13 162 44 48 57 46 109 -4 135 -35 18 -111 20
-128 3z"/>
<path d="M8755 2410 c-9 -15 4 -30 26 -30 12 0 19 7 19 20 0 21 -33 29 -45 10z"/>
<path d="M3704 2373 c-22 -53 -24 -126 -3 -131 12 -2 18 8 23 39 4 22 14 55
22 71 9 16 13 36 10 44 -10 26 -36 14 -52 -23z"/>
<path d="M2512 2383 c3 -15 14 -18 68 -18 73 1 120 10 120 25 0 6 -40 10 -96
10 -86 0 -95 -2 -92 -17z"/>
<path d="M4906 2391 c-10 -16 6 -19 142 -24 116 -4 154 2 114 18 -32 13 -249
19 -256 6z"/>
<path d="M6063 2378 c-27 -13 -31 -48 -5 -48 20 1 62 33 62 49 0 14 -28 13
-57 -1z"/>
<path d="M3002 2371 c-46 -8 -71 -24 -54 -35 6 -4 30 -2 54 4 86 19 171 9 153
-20 -4 -6 -46 -30 -94 -54 -47 -23 -85 -46 -83 -51 6 -23 282 2 282 25 0 5
-36 7 -82 4 l-83 -6 46 30 c56 36 67 59 40 86 -23 22 -104 30 -179 17z"/>
<path d="M7858 2369 c-6 -4 -7 -12 -4 -18 9 -14 242 -15 251 -1 3 6 0 12 -7
14 -23 8 -229 12 -240 5z"/>
<path d="M4965 2320 c-11 -18 5 -28 50 -32 58 -4 53 -30 -15 -71 -30 -18 -55
-40 -55 -48 0 -36 156 -10 260 44 54 27 29 33 -42 9 -32 -11 -74 -22 -93 -26
l-35 -6 33 26 c59 47 35 95 -54 110 -28 4 -44 2 -49 -6z"/>
<path d="M2352 2259 l-27 -62 -10 44 c-16 64 -37 62 -68 -5 -42 -91 -89 -98
-93 -14 -2 58 -2 58 -19 58 -8 0 -24 5 -34 12 -26 16 -66 -11 -82 -57 l-13
-35 -12 29 c-7 16 -24 37 -38 47 -25 16 -28 16 -75 -8 -46 -24 -48 -25 -59 -7
-16 26 -35 24 -71 -7 -30 -25 -31 -25 -31 -4 0 32 -18 60 -40 60 -25 0 -30
-20 -12 -48 11 -17 13 -37 8 -80 -12 -109 -12 -107 7 -107 13 0 23 15 35 50
10 28 29 66 42 85 l25 35 3 -27 c2 -15 -2 -36 -7 -47 -17 -31 -13 -51 9 -51
13 0 26 13 39 38 25 49 74 95 97 90 12 -2 28 -25 44 -64 33 -80 37 -84 68 -84
18 0 36 10 53 32 25 30 28 31 44 15 28 -28 73 -21 111 17 l34 34 14 -26 c12
-23 11 -31 -5 -70 -22 -51 -24 -72 -6 -72 6 0 20 20 30 45 16 38 21 43 37 35
24 -13 60 -13 60 0 0 5 -13 16 -30 25 -32 17 -33 12 9 109 22 49 22 76 1 76
-7 0 -23 -28 -38 -61z m-288 -91 c-24 -47 -30 -17 -8 40 17 42 19 44 22 20 2
-15 -5 -42 -14 -60z"/>
</g>
</svg>
