<?xml version="1.0" encoding="UTF-8" standalone="no"?>
<svg
   xml:lang="en"
   height="128.40637pt"
   width="213.18254pt"
   viewBox="-18.1 -111.421 213.18255 128.40637"
   version="1.1"
   id="svg23"
   sodipodi:docname="201t.svg"
   inkscape:version="1.4.2 (ebf0e940, 2025-05-08)"
   xmlns:inkscape="http://www.inkscape.org/namespaces/inkscape"
   xmlns:sodipodi="http://sodipodi.sourceforge.net/DTD/sodipodi-0.dtd"
   xmlns="http://www.w3.org/2000/svg"
   xmlns:svg="http://www.w3.org/2000/svg">
  <defs
     id="defs23" />
  <sodipodi:namedview
     id="namedview23"
     pagecolor="#ffffff"
     bordercolor="#000000"
     borderopacity="0.25"
     inkscape:showpageshadow="2"
     inkscape:pageopacity="0.0"
     inkscape:pagecheckerboard="0"
     inkscape:deskcolor="#d1d1d1"
     inkscape:document-units="pt"
     showgrid="false"
     inkscape:zoom="2.5410175"
     inkscape:cx="142.26584"
     inkscape:cy="85.005318"
     inkscape:current-layer="svg23" />
  <path
     d="M 85.64,16.25 A 9,13.5 0 0 1 81.01,2.82"
     style="fill:none;stroke:#000000;stroke-width:1.9"
     id="path1" />
  <path
     d="M 81.828778,-4.1282222 83.693082,3.1391274 78.330009,2.5086911 Z"
     style="fill:#000000;stroke:#000000;stroke-linecap:butt;stroke-linejoin:miter"
     id="path2" />
  <path
     d="m -3.65,-4.6 v -41.625 m 0,-6.75 V -94.6"
     style="fill:none;stroke:#000000;stroke-width:1.9;stroke-linecap:round;stroke-linejoin:round"
     id="path3" />
  <path
     d="m 9.85,-52.975 h -27"
     style="fill:none;stroke:#000000;stroke-width:1.9;stroke-linecap:round;stroke-linejoin:round"
     id="path4" />
  <path
     d="M 3.1,-46.225 H -10.4"
     style="fill:none;stroke:#000000;stroke-width:1.9;stroke-linecap:round;stroke-linejoin:round"
     id="path5" />
  <path
     d="m -3.65,-94.6 h 85.464 m 0,-12.6 V -82 m 9.072,-25.2 V -82 m 0,-12.6 h 85.464"
     style="fill:none;stroke:#000000;stroke-width:1.9;stroke-linecap:round;stroke-linejoin:round"
     id="path6" />
  <path
     d="M 176.35,-94.6 V -73 l 1.90179,0.04312 1.95165,0.131175 1.96039,0.220572 1.92781,0.309425 1.85458,0.395859 1.74227,0.478055 1.59324,0.554277 1.41061,0.62292 1.19826,0.682538 0.96065,0.731874 0.7028,0.769886 0.43012,0.795776 0.14838,0.808996 -0.13648,0.809267 -0.41848,0.796586 -0.69164,0.771218 -0.95023,0.733697 -1.18879,0.684817 -1.40229,0.625606 -1.58624,0.557312 -1.73675,0.481376 -1.85065,0.399397 -1.92555,0.313103 -1.95986,0.224314 -1.95285,0.134902 -1.90468,0.04675 -1.81638,-0.03828 -1.68977,-0.118406 -1.52756,-0.191928 -1.33315,-0.2573 -1.11063,-0.313145 -0.8647,-0.358285 -0.60056,-0.391769 -0.32374,-0.412892 -0.0401,-0.421206 0.24437,-0.416538 0.52369,-0.398987 0.79199,-0.36892 1.04358,-0.326975 1.27318,-0.274032 1.47594,-0.21121 1.6476,-0.13983 1.78452,-0.0614 1.88383,0.02243 1.94343,0.109888 1.96207,0.199137 1.93936,0.288291 1.87575,0.375474 1.77262,0.458846 1.63212,0.536651 1.45723,0.607249 1.2516,0.66915 1.01961,0.721052 0.76612,0.761859 0.49648,0.790712 0.21638,0.807002 -0.0683,0.810387 -0.35151,0.800793 -0.62732,0.778426 -0.88991,0.743753 -1.13375,0.69751 -1.35368,0.640667 -1.54509,0.574424 -1.70393,0.500178 -1.82684,0.419494 -1.91126,0.33407 -1.95539,0.245711 -1.95829,0.156275 -1.91994,0.06765 -1.8411,-0.0183 -1.72345,-0.09975 -1.56949,-0.175003 -1.38244,-0.24246 -1.16625,-0.300702 -0.92547,-0.348502 -0.6652,-0.384853 -0.3909,-0.408985 -0.10835,-0.420395 0.17647,-0.418838 0.45757,-0.404349 0.72903,-0.377233 0.98513,-0.338061 1.22045,-0.28766 1.43006,-0.22709 1.60952,-0.15763 1.75505,-0.08074 1.86359,0.002 1.93286,0.08871 1.96137,0.177696 1.94855,0.267045 1.89465,0.354869 1.80082,0.439318 1.66904,0.518611 1.50206,0.591076 1.30344,0.655188 1.07733,0.709592 0.82852,0.753145 0.56224,0.784926 0.28412,0.804267 v 0.81076 l -0.28412,0.804267 -0.56224,0.784926 -0.82852,0.753145 -1.07733,0.709592 -1.30344,0.655188 -1.50206,0.591076 -1.66904,0.518611 -1.80082,0.439318 -1.89465,0.354869 -1.94855,0.267045 -1.96137,0.177696 -1.93286,0.08871 -1.86359,0.002 -1.75505,-0.08074 -1.60952,-0.15763 -1.43006,-0.22709 -1.22045,-0.28766 -0.98513,-0.338061 -0.72903,-0.377233 -0.45757,-0.404349 -0.17647,-0.418838 0.10835,-0.420395 0.3909,-0.408985 0.6652,-0.384853 0.92547,-0.348502 1.16625,-0.300702 1.38244,-0.24246 1.56949,-0.175003 1.72345,-0.09975 1.8411,-0.0183 1.91994,0.06765 1.95829,0.156275 1.95539,0.245711 1.91126,0.33407 1.82684,0.419494 1.70393,0.500178 1.54509,0.574424 1.35368,0.640667 1.13375,0.69751 0.88991,0.743753 0.62732,0.778426 0.35151,0.800793 0.0683,0.810387 -0.21638,0.807002 -0.49648,0.790712 -0.76612,0.761859 -1.01961,0.721052 -1.2516,0.66915 -1.45723,0.607249 -1.63212,0.536651 -1.77262,0.458846 -1.87575,0.375474 -1.93936,0.288291 -1.96207,0.199137 -1.94343,0.109888 -1.88383,0.02243 -1.78452,-0.0614 -1.6476,-0.13983 -1.47594,-0.21121 -1.27318,-0.274032 -1.04358,-0.326975 -0.79199,-0.36892 -0.52369,-0.398987 -0.24437,-0.416538 0.0401,-0.421206 0.32374,-0.412892 0.60056,-0.391769 0.8647,-0.358285 1.11063,-0.313145 1.33315,-0.2573 1.52756,-0.191928 1.68977,-0.118406 1.81638,-0.03828 1.90468,0.04675 1.95285,0.134902 1.95986,0.224314 1.92555,0.313103 1.85065,0.399397 1.73675,0.481376 1.58624,0.557312 1.40229,0.625606 1.18879,0.684817 0.95023,0.733697 0.69164,0.771218 0.41848,0.796586 0.13648,0.809267 -0.14838,0.808996 -0.43012,0.795776 -0.7028,0.769886 -0.96065,0.731874 -1.19826,0.682538 -1.41061,0.62292 -1.59324,0.554277 -1.74227,0.478055 -1.85458,0.395859 -1.92781,0.309425 -1.96039,0.220572 -1.95165,0.131175 L 176.35,-26.2 v 21.6"
     style="fill:none;stroke:#000000;stroke-width:1.9;stroke-linecap:round;stroke-linejoin:round"
     id="path7" />
  <path
     d="m 176.35,-4.6 h -72 M 95.71,-1 75.55,11.6 m -7.2,-16.2 h -72"
     style="fill:none;stroke:#000000;stroke-width:1.9;stroke-linecap:round;stroke-linejoin:round"
     id="path8" />
  <g
     id="g11"
     transform="translate(-3.65,-4.6)">
    <g
       id="g10">
      <g
         id="g9">
        <path
           d="m 15.141,-69.762 c -0.798,-0.406 -1.722,-0.609 -2.772,-0.609 -1.176,0 -2.131,0.283 -2.866,0.851 -0.735,0.566 -1.103,1.249 -1.103,2.047 0,0.938 0.452,1.684 1.355,2.236 0.903,0.553 2.103,0.844 3.601,0.872 0.028,0 0.053,0.028 0.074,0.084 0.021,0.056 0.045,0.119 0.073,0.189 0.028,0.07 0.056,0.119 0.084,0.147 v 0.042 c -1.554,0.322 -2.772,0.913 -3.654,1.774 -0.882,0.861 -1.323,1.845 -1.323,2.951 0,1.12 0.437,1.991 1.313,2.614 0.875,0.624 1.949,0.935 3.223,0.935 1.428,0 2.688,-0.378 3.78,-1.134 1.092,-0.756 1.638,-1.61 1.638,-2.562 0,-0.728 -0.238,-1.313 -0.714,-1.754 -0.476,-0.441 -1.176,-0.661 -2.1,-0.661 -1.022,0 -1.915,0.336 -2.677,1.008 -0.763,0.672 -1.285,1.582 -1.565,2.73 l 0.441,0.126 c 0.252,-0.882 0.704,-1.6 1.355,-2.153 0.651,-0.552 1.347,-0.829 2.089,-0.829 0.546,0 0.987,0.14 1.323,0.42 0.336,0.28 0.504,0.658 0.504,1.134 0,0.658 -0.245,1.253 -0.735,1.785 -0.77,0.84 -1.813,1.26 -3.129,1.26 -0.924,0 -1.659,-0.245 -2.205,-0.735 -0.546,-0.49 -0.819,-1.078 -0.819,-1.764 0,-0.924 0.374,-1.806 1.124,-2.646 0.749,-0.84 1.739,-1.421 2.971,-1.743 0.35,0.196 0.721,0.294 1.113,0.294 0.588,0 0.882,-0.196 0.882,-0.588 0,-0.392 -0.525,-0.609 -1.575,-0.651 -0.042,-0.084 -0.07,-0.168 -0.084,-0.252 1.904,-0.14 3.539,-0.605 4.904,-1.396 1.365,-0.792 2.047,-1.621 2.047,-2.489 0,-1.022 -0.7,-1.533 -2.1,-1.533 -0.882,0 -1.789,0.193 -2.719,0.578 -0.931,0.384 -1.747,0.948 -2.447,1.69 -0.7,0.742 -1.092,1.568 -1.176,2.478 -1.134,0 -2.086,-0.214 -2.856,-0.641 -0.77,-0.426 -1.155,-1.011 -1.155,-1.753 0,-0.686 0.308,-1.246 0.924,-1.68 0.616,-0.434 1.428,-0.651 2.436,-0.651 0.924,0 1.694,0.119 2.31,0.357 z m 5.712,1.47 c 0,0.7 -0.602,1.403 -1.806,2.111 -1.204,0.707 -2.632,1.109 -4.284,1.207 0.14,-0.938 0.756,-1.841 1.848,-2.709 1.092,-0.868 2.142,-1.302 3.15,-1.302 0.308,0 0.567,0.063 0.777,0.189 0.21,0.126 0.315,0.294 0.315,0.504 z"
           fill="#000000"
           id="path9" />
      </g>
    </g>
  </g>
  <g
     id="g14"
     transform="translate(-3.65,-4.6)">
    <g
       id="g13">
      <g
         id="g12">
        <path
           d="m 115.998,-95.397 -0.378,-0.399 c -1.4,1.274 -2.905,1.911 -4.515,1.911 -1.4,0 -2.429,-0.364 -3.087,-1.092 -0.658,-0.728 -0.987,-1.799 -0.987,-3.213 0,-1.162 0.157,-2.215 0.472,-3.16 0.316,-0.945 0.746,-1.758 1.292,-2.436 0.546,-0.679 1.18,-1.204 1.9,-1.575 0.721,-0.372 1.488,-0.557 2.3,-0.557 1.036,0 1.841,0.305 2.415,0.914 0.574,0.609 0.833,1.613 0.777,3.013 h 0.693 l 0.987,-4.809 h -0.609 c -0.168,0.238 -0.315,0.424 -0.441,0.557 -0.126,0.132 -0.273,0.199 -0.441,0.199 -0.126,0 -0.266,-0.042 -0.42,-0.126 -0.154,-0.084 -0.347,-0.172 -0.577,-0.262 -0.232,-0.091 -0.522,-0.179 -0.872,-0.263 -0.35,-0.084 -0.791,-0.126 -1.323,-0.126 -1.064,0 -2.09,0.2 -3.077,0.599 -0.987,0.399 -1.862,0.987 -2.625,1.764 -0.762,0.777 -1.371,1.736 -1.827,2.877 -0.455,1.14 -0.682,2.446 -0.682,3.916 0,0.686 0.091,1.34 0.273,1.964 0.182,0.623 0.476,1.172 0.882,1.648 0.406,0.476 0.934,0.851 1.585,1.124 0.651,0.273 1.453,0.409 2.405,0.409 0.658,0 1.267,-0.07 1.827,-0.21 0.56,-0.14 1.081,-0.34 1.564,-0.598 0.483,-0.259 0.931,-0.564 1.344,-0.914 0.414,-0.35 0.795,-0.735 1.145,-1.155 z"
           fill="#000000"
           id="path11" />
      </g>
    </g>
  </g>
  <g
     id="g17"
     transform="translate(-3.65,-4.6)">
    <g
       id="g16">
      <g
         id="g15">
        <path
           d="m 71.314,-98.35 h 5.764 v -1.496 h -5.764 v -5.83 H 69.73 v 5.83 h -5.764 v 1.496 h 5.764 v 5.83 h 1.584 z"
           fill="#000000"
           id="path14" />
      </g>
    </g>
  </g>
  <g
     id="g20"
     transform="translate(-3.65,-4.6)">
    <g
       id="g19">
      <g
         id="g18">
        <path
           d="m 163.954,-38.102 1.26,-4.095 h -0.672 c -0.322,0.603 -0.609,1.113 -0.861,1.534 -0.252,0.419 -0.528,0.762 -0.829,1.028 -0.301,0.267 -0.662,0.456 -1.082,0.567 -0.42,0.112 -0.966,0.168 -1.638,0.168 h -0.987 c -0.616,0 -1.022,-0.073 -1.218,-0.22 -0.196,-0.147 -0.245,-0.452 -0.147,-0.914 l 1.911,-9.408 c 0.084,-0.378 0.189,-0.686 0.315,-0.924 0.126,-0.237 0.287,-0.423 0.483,-0.556 0.196,-0.133 0.434,-0.224 0.714,-0.273 0.28,-0.049 0.609,-0.074 0.987,-0.074 l 0.105,-0.629 h -5.964 l -0.126,0.629 c 0.448,0 0.798,0.028 1.05,0.085 0.252,0.056 0.434,0.153 0.546,0.293 0.112,0.141 0.161,0.326 0.147,0.557 -0.014,0.231 -0.056,0.521 -0.126,0.871 l -1.806,8.757 c -0.084,0.421 -0.178,0.76 -0.283,1.019 -0.105,0.259 -0.238,0.458 -0.399,0.598 -0.161,0.141 -0.371,0.235 -0.63,0.284 -0.259,0.049 -0.592,0.073 -0.998,0.073 l -0.126,0.63 z"
           fill="#000000"
           id="path17" />
      </g>
    </g>
  </g>
  <circle
     cx="100.03"
     cy="-4.5999999"
     r="4.3200002"
     style="fill:#ffffff;stroke:#000000;stroke-width:1.9"
     id="circle20" />
  <circle
     cx="72.669998"
     cy="-4.5999999"
     r="4.3200002"
     style="fill:#ffffff;stroke:#000000;stroke-width:1.9"
     id="circle21" />
  <g
     id="g23"
     transform="translate(-3.65,-4.6)">
    <g
       id="g22">
      <g
         id="g21">
        <path
           d="m 97.686,-7.92 v -0.63 c -0.392,0 -0.707,-0.014 -0.945,-0.042 -0.238,-0.028 -0.437,-0.084 -0.598,-0.168 -0.162,-0.084 -0.301,-0.2 -0.42,-0.347 -0.12,-0.147 -0.256,-0.346 -0.41,-0.598 -0.462,-0.77 -0.861,-1.442 -1.197,-2.016 -0.336,-0.574 -0.634,-1.071 -0.892,-1.491 -0.259,-0.42 -0.498,-0.773 -0.714,-1.061 -0.217,-0.287 -0.445,-0.528 -0.683,-0.724 v -0.105 c 0.252,-0.21 0.458,-0.431 0.62,-0.662 0.161,-0.231 0.3,-0.472 0.42,-0.724 0.119,-0.252 0.216,-0.521 0.294,-0.809 0.077,-0.287 0.157,-0.591 0.241,-0.913 0.196,-0.756 0.403,-1.267 0.62,-1.533 0.216,-0.266 0.451,-0.399 0.703,-0.399 0.14,0 0.263,0.028 0.368,0.084 0.105,0.056 0.21,0.122 0.315,0.199 0.105,0.078 0.216,0.144 0.336,0.2 0.119,0.056 0.262,0.084 0.43,0.084 0.35,0 0.609,-0.109 0.777,-0.326 0.168,-0.216 0.252,-0.465 0.252,-0.745 0,-0.448 -0.157,-0.773 -0.472,-0.977 -0.315,-0.203 -0.69,-0.304 -1.124,-0.304 -0.518,0 -0.952,0.115 -1.302,0.346 -0.35,0.231 -0.644,0.529 -0.882,0.893 -0.238,0.364 -0.43,0.766 -0.577,1.207 -0.147,0.441 -0.277,0.865 -0.389,1.271 -0.252,0.98 -0.532,1.711 -0.84,2.194 -0.308,0.483 -0.777,0.725 -1.407,0.725 h -1.911 v -3.654 c 0,-0.406 0.014,-0.746 0.042,-1.019 0.028,-0.273 0.105,-0.493 0.231,-0.661 0.126,-0.168 0.319,-0.287 0.578,-0.357 0.258,-0.07 0.619,-0.105 1.081,-0.105 v -0.63 h -5.754 v 0.63 c 0.462,0 0.819,0.031 1.071,0.094 0.252,0.063 0.437,0.175 0.557,0.336 0.119,0.162 0.189,0.378 0.21,0.651 0.021,0.273 0.031,0.627 0.031,1.061 v 8.274 c 0,0.434 -0.014,0.787 -0.042,1.06 -0.028,0.273 -0.101,0.487 -0.22,0.641 -0.12,0.154 -0.305,0.262 -0.557,0.325 -0.252,0.063 -0.602,0.095 -1.05,0.095 v 0.63 h 5.817 v -0.63 c -0.462,0 -0.823,-0.025 -1.081,-0.074 -0.259,-0.048 -0.459,-0.147 -0.599,-0.294 -0.14,-0.147 -0.227,-0.36 -0.262,-0.64 -0.036,-0.28 -0.053,-0.651 -0.053,-1.113 v -3.843 h 1.008 c 0.224,0 0.41,0.01 0.557,0.031 0.147,0.021 0.273,0.063 0.378,0.126 0.105,0.063 0.203,0.144 0.294,0.242 0.09,0.098 0.185,0.231 0.283,0.399 0.252,0.42 0.494,0.829 0.725,1.228 0.231,0.399 0.468,0.819 0.714,1.26 0.245,0.441 0.51,0.928 0.798,1.46 0.287,0.532 0.619,1.148 0.997,1.848 z"
           fill="#000000"
           id="path21" />
      </g>
    </g>
  </g>
</svg>
