<?xml version="1.0" standalone="no"?>
<!DOCTYPE svg PUBLIC "-//W3C//DTD SVG 20010904//EN"
 "http://www.w3.org/TR/2001/REC-SVG-20010904/DTD/svg10.dtd">
<svg version="1.0" xmlns="http://www.w3.org/2000/svg"
 width="286.595243pt" height="105.884074pt" viewBox="0 0 286.595243 105.884074"
 preserveAspectRatio="xMidYMid meet">
<metadata>
Created by potrace 1.16, written by Peter Selinger 2001-2019
</metadata>
<g transform="translate(-2.243515,106.855070) scale(0.100000,-0.100000)"
fill="#000000" stroke="none">
<path d="M62 1036 c-20 -19 -34 -38 -29 -42 4 -4 21 5 37 21 30 28 30 28 30 6
0 -13 -14 -36 -32 -54 -36 -33 -23 -54 13 -21 18 16 19 16 19 -2 0 -11 -14
-36 -31 -57 -23 -28 -27 -37 -14 -37 8 0 18 7 21 15 9 22 24 18 24 -5 0 -11
-15 -33 -32 -49 -18 -16 -30 -33 -26 -37 5 -4 16 0 26 9 51 46 42 -7 -10 -60
-46 -47 -48 -67 -2 -28 16 14 32 25 37 25 17 0 5 -28 -23 -55 -17 -16 -30 -35
-30 -44 0 -11 5 -9 20 7 22 23 40 29 40 12 0 -5 -16 -28 -36 -50 -37 -40 -41
-68 -6 -37 10 10 24 17 30 17 24 0 11 -36 -23 -63 -19 -15 -35 -35 -35 -44 0
-13 7 -10 29 11 26 25 29 26 35 9 5 -11 1 -22 -11 -30 -31 -22 -64 -56 -59
-60 3 -3 18 4 34 16 36 25 42 26 42 4 0 -9 -16 -34 -36 -54 -20 -20 -32 -39
-26 -43 5 -3 17 3 27 14 23 26 35 25 35 0 0 -12 -10 -25 -24 -32 -24 -10 -41
-36 -32 -46 3 -2 12 3 21 12 22 21 25 20 25 -9 0 -17 -11 -32 -35 -48 -19 -13
-32 -27 -28 -30 3 -4 17 0 31 9 37 24 40 7 4 -26 -18 -16 -32 -34 -32 -41 0
-7 11 -2 25 11 42 39 42 13 0 -30 -21 -22 -35 -43 -31 -47 4 -5 19 5 32 20 24
29 44 29 44 0 0 -9 -8 -22 -17 -29 -10 -7 -15 -16 -11 -20 5 -4 16 0 26 9 10
10 24 17 30 17 7 0 12 5 12 10 0 6 9 10 20 10 24 0 25 -8 3 -32 -26 -29 8 -23
36 6 23 25 68 39 76 25 3 -4 -7 -17 -21 -28 -15 -12 -21 -21 -14 -21 7 0 28
11 46 25 18 14 45 25 60 25 l28 0 -29 -30 c-38 -39 -12 -39 35 0 22 19 45 30
65 30 l30 -1 -27 -22 c-16 -13 -28 -26 -28 -30 0 -13 28 -7 34 8 3 8 12 15 19
15 8 0 20 7 27 15 12 15 70 22 70 8 0 -3 -7 -15 -17 -25 -9 -10 -14 -21 -11
-24 6 -5 30 12 63 43 15 14 65 18 65 5 0 -4 -9 -13 -20 -20 -20 -12 -27 -32
-11 -32 5 0 23 13 41 30 21 20 43 30 63 30 29 0 30 0 12 -20 -27 -30 -13 -33
28 -5 40 28 109 37 73 10 -33 -25 -8 -30 33 -7 36 21 91 30 91 16 0 -4 -8 -13
-17 -20 -10 -7 -15 -16 -10 -20 4 -4 20 5 36 20 28 27 101 48 101 28 0 -5 -12
-18 -27 -28 -15 -9 -22 -19 -16 -21 6 -2 30 8 53 23 42 28 90 40 90 23 0 -5
-7 -12 -15 -15 -14 -6 -22 -34 -10 -34 3 0 24 13 47 30 41 30 88 40 88 19 0
-6 -9 -13 -20 -16 -11 -3 -20 -12 -20 -19 0 -12 4 -12 28 0 16 8 34 22 41 30
8 10 29 16 54 16 40 0 41 0 19 -16 -40 -28 -23 -35 21 -9 48 28 118 37 83 10
-10 -7 -16 -19 -14 -26 2 -7 15 -2 35 15 21 17 43 26 67 26 40 0 43 -5 19 -32
-29 -32 -6 -31 26 1 23 24 39 31 67 31 35 0 36 -1 21 -18 -29 -32 -7 -32 36
-1 40 29 67 37 67 19 0 -5 -8 -13 -17 -19 -10 -5 -15 -12 -11 -16 3 -4 24 5
47 19 22 14 55 26 73 26 l31 0 -23 -25 c-30 -32 -10 -32 28 0 30 25 76 33 87
15 3 -5 -6 -17 -20 -26 -24 -15 -34 -34 -17 -34 4 0 24 16 46 35 30 28 47 35
78 35 l39 0 -20 -27 c-31 -38 -18 -40 26 -4 22 18 49 31 65 31 34 0 35 -7 6
-37 -13 -14 -16 -23 -9 -23 7 0 26 14 41 30 20 21 37 30 59 30 31 0 31 0 15
-25 -25 -38 -9 -42 26 -6 22 21 41 31 63 31 l30 0 -23 -25 c-30 -32 -11 -33
27 -1 34 29 67 39 93 31 26 -8 25 -21 -2 -29 -18 -5 -20 -8 -9 -15 9 -6 27 1
57 21 26 19 49 28 59 24 15 -5 14 -8 -6 -25 -13 -11 -21 -23 -16 -27 4 -4 17
1 30 12 30 26 64 44 82 44 20 0 19 -17 -1 -28 -9 -5 -15 -15 -12 -22 2 -8 14
-4 35 14 17 14 41 26 54 26 32 0 57 16 44 29 -6 5 -58 6 -130 2 -66 -4 -123
-6 -127 -4 -3 2 -4 59 -1 128 l6 125 -24 1 c-13 0 -117 0 -231 -1 l-208 -1 0
95 0 95 33 6 c19 4 143 5 276 3 222 -3 244 -5 256 -21 12 -16 18 -17 47 -8 18
6 47 14 63 19 49 14 36 34 -35 54 -80 22 -80 22 -80 -1 0 -26 -23 -27 -320
-21 l-235 5 1 97 1 97 -26 5 c-36 8 -581 -1 -589 -9 -3 -3 -8 -50 -10 -103
l-4 -97 -613 -2 c-660 -2 -655 -2 -712 -55 -24 -22 -52 -20 -87 7 -20 15 -21
53 -14 408 3 144 1 148 -60 93z m2023 -265 l60 -1 2 -200 c1 -110 -1 -201 -5
-201 -4 -1 -132 -3 -284 -4 l-278 -3 0 67 c-1 36 -3 118 -6 182 -6 126 1 155
38 161 22 3 344 3 473 -1z m-540 -212 c3 -3 6 -48 8 -100 l2 -94 -215 -3
c-118 -1 -221 -4 -227 -7 -9 -3 -13 -25 -13 -62 0 -56 -1 -58 -27 -59 -102 -5
-571 -10 -585 -6 -16 4 -14 9 12 38 66 76 60 184 -14 253 -14 14 -26 28 -26
33 0 12 1072 19 1085 7z m-1144 -11 c95 -28 149 -136 110 -222 -23 -53 -72
-92 -130 -101 -36 -6 -52 -3 -97 21 -30 16 -54 33 -54 39 0 13 94 69 128 75
18 4 28 12 30 28 3 19 -7 27 -70 57 -110 51 -109 49 -53 84 53 34 77 37 136
19z m-247 -47 c3 -5 31 -21 63 -36 67 -31 113 -62 113 -76 0 -21 -198 -128
-208 -112 -4 6 -6 61 -4 122 3 86 6 111 17 111 8 0 16 -4 19 -9z m2442 -164
c7 -7 8 -206 1 -213 -5 -5 -731 -17 -1137 -18 l-335 -1 4 60 c1 33 5 78 7 100
1 22 3 48 3 57 1 17 24 18 322 18 177 0 323 1 325 2 6 6 804 2 810 -5z m-2363
-91 c59 -44 85 -46 458 -47 195 0 367 0 383 0 28 0 28 0 21 -47 -4 -26 -9 -49
-11 -51 -6 -7 -713 -8 -844 -2 l-125 6 -3 39 c-5 58 4 82 40 104 43 26 44 26
81 -2z"/>
<path d="M1731 573 c1 -59 14 -105 22 -83 3 8 7 26 9 39 5 38 26 37 30 -1 4
-43 20 -42 29 0 12 57 29 63 29 10 0 -33 4 -48 16 -52 22 -9 28 -2 16 21 -5
10 -7 24 -5 31 15 42 -25 80 -55 50 -8 -8 -15 -8 -28 3 -14 11 -18 11 -30 -6
-14 -18 -14 -18 -14 2 0 12 -4 25 -10 28 -6 4 -10 -12 -9 -42z"/>
<path d="M1942 548 c-13 -13 -16 -48 -4 -48 4 0 13 5 20 12 9 9 12 8 12 -4 0
-8 -7 -21 -15 -28 -16 -13 -20 -46 -7 -53 4 -3 22 -2 40 0 35 6 44 23 12 23
-24 0 -25 4 -4 36 16 24 16 26 -6 49 -27 28 -31 30 -48 13z"/>
<path d="M1668 284 c-2 -5 -3 -33 0 -62 5 -61 22 -65 35 -9 11 47 27 48 27 1
0 -43 22 -42 30 1 8 46 28 42 32 -7 2 -24 7 -43 13 -43 13 0 16 74 4 97 -11
20 -44 24 -54 8 -5 -8 -11 -8 -20 0 -7 6 -20 7 -30 4 -9 -4 -20 -1 -25 6 -4 6
-9 8 -12 4z"/>
<path d="M1881 221 c-26 -36 -26 -44 -3 -37 14 5 18 1 18 -15 -1 -12 5 -24 12
-26 9 -4 12 9 11 51 -1 31 -6 56 -10 56 -4 0 -17 -13 -28 -29z"/>
<path d="M2720 1011 c0 -5 6 -11 12 -13 7 -3 -6 -8 -30 -12 -24 -3 -40 -11
-37 -16 3 -5 20 -7 37 -3 23 5 34 2 44 -12 13 -18 16 -18 49 -2 43 21 45 42 4
56 -39 13 -79 14 -79 2z"/>
<path d="M2663 898 c-7 -9 -6 -38 2 -88 11 -71 20 -77 27 -20 2 19 11 26 33
31 l30 7 -33 1 c-24 1 -35 7 -41 24 -7 18 -5 23 13 28 11 3 38 4 59 1 21 -3
37 0 37 5 0 6 -21 13 -46 17 -64 8 -70 8 -81 -6z"/>
<path d="M2853 53 c-7 -2 -13 -11 -13 -19 0 -12 4 -12 20 -2 31 20 26 35 -7
21z"/>
</g>
</svg>
