<?xml version="1.0" standalone="no"?>
<!DOCTYPE svg PUBLIC "-//W3C//DTD SVG 20010904//EN"
 "http://www.w3.org/TR/2001/REC-SVG-20010904/DTD/svg10.dtd">
<svg version="1.0" xmlns="http://www.w3.org/2000/svg"
 width="1277.318821pt" height="1236.868142pt" viewBox="0 0 1277.318821 1236.868142"
 preserveAspectRatio="xMidYMid meet">
<metadata>
Created by potrace 1.16, written by Peter Selinger 2001-2019
</metadata>
<g transform="translate(-103.457120,1270.841313) scale(0.100000,-0.100000)"
fill="#000000" stroke="none">
<path d="M1287 12703 c-3 -4 -10 -50 -17 -101 -11 -81 -15 -93 -34 -96 -12 -2
-52 -9 -91 -16 -76 -12 -124 -35 -107 -52 7 -7 16 -7 29 0 15 8 158 42 178 42
3 0 5 -13 5 -29 0 -28 -3 -30 -75 -46 -41 -9 -77 -21 -80 -26 -10 -15 22 -21
57 -11 18 6 46 13 61 16 l28 7 -7 -77 c-7 -71 -6 -76 12 -72 16 3 20 15 25 75
3 40 7 74 10 76 2 2 19 7 37 10 37 7 36 20 12 -117 -5 -33 -10 -61 -10 -63 0
-7 29 -2 34 5 3 5 10 40 16 78 18 120 10 110 96 118 100 9 134 16 134 28 0 10
-153 2 -193 -9 -16 -4 -18 -1 -12 19 4 12 10 25 12 28 3 3 49 7 104 10 131 7
129 25 -2 21 l-102 -3 8 39 c13 61 12 88 -5 88 -9 0 -19 -21 -28 -60 -8 -33
-15 -61 -16 -62 -1 0 -17 -4 -37 -8 l-36 -7 14 79 c20 107 20 117 1 121 -9 2
-18 -1 -21 -5z m73 -237 c0 -25 -16 -36 -56 -36 -27 0 -27 0 -14 34 7 20 16
26 40 26 25 0 30 -4 30 -24z"/>
<path d="M2479 12593 c-36 -95 -65 -372 -40 -388 7 -4 14 -5 16 -4 2 2 8 54
14 115 6 62 20 145 32 185 27 98 27 113 7 117 -12 2 -21 -6 -29 -25z"/>
<path d="M1727 12576 c-9 -22 2 -25 67 -19 39 3 71 1 84 -6 46 -24 22 -65 -91
-154 -154 -123 -181 -167 -100 -167 42 0 233 44 264 60 27 15 24 34 -3 26 -30
-8 -248 -56 -256 -56 -12 0 55 63 133 125 120 96 144 155 75 190 -39 20 -166
21 -173 1z"/>
<path d="M2091 12570 c-44 -9 -71 -25 -71 -42 0 -17 31 -20 48 -6 46 41 162
23 162 -25 0 -23 -19 -44 -163 -175 -26 -24 -47 -47 -47 -52 0 -5 9 -14 21
-20 22 -12 232 4 277 21 26 10 20 32 -6 25 -10 -2 -66 -7 -127 -11 l-110 -6
45 42 c123 114 141 134 146 156 18 70 -66 115 -175 93z"/>
<path d="M2340 12089 c-113 -5 -335 -16 -495 -25 -159 -9 -393 -18 -519 -18
-186 -1 -230 -4 -234 -15 -4 -12 45 -13 314 -8 176 3 429 13 564 22 135 8 389
18 565 21 176 3 322 8 325 10 24 25 -126 28 -520 13z"/>
<path d="M4363 11608 c-33 -16 -52 -65 -69 -179 -18 -123 -16 -204 6 -204 10
0 16 12 18 35 4 56 9 65 28 49 47 -39 204 -85 204 -60 0 6 -6 11 -12 11 -7 0
-34 11 -60 24 -25 13 -60 28 -77 34 -42 15 -39 34 12 90 63 68 77 92 77 132 0
53 -23 80 -68 79 -20 0 -47 -5 -59 -11z m87 -44 c13 -34 -6 -73 -70 -142 -50
-53 -56 -56 -41 -17 5 11 5 25 0 30 -12 16 17 127 37 142 30 22 63 16 74 -13z"/>
<path d="M4917 11593 c-2 -5 -17 -46 -32 -93 -33 -101 -73 -190 -85 -190 -10
0 -30 66 -55 183 -17 78 -34 102 -57 79 -9 -9 -8 -18 0 -34 7 -13 21 -63 33
-113 28 -123 44 -155 78 -155 18 0 32 10 48 33 21 32 103 256 103 283 0 15
-26 20 -33 7z"/>
<path d="M8553 11578 c-13 -17 -121 -211 -146 -261 -21 -44 -17 -67 13 -67 14
0 20 7 20 23 0 37 22 58 68 64 l42 6 0 -42 c0 -34 3 -41 20 -41 17 0 20 7 20
39 0 38 1 39 41 46 50 9 47 31 -4 27 l-36 -3 -3 107 c-3 105 -12 131 -35 102z
m-3 -148 l0 -60 -35 0 -35 0 30 60 c17 33 32 60 35 60 3 0 5 -27 5 -60z"/>
<path d="M13319 11557 c-9 -12 -46 -72 -82 -133 -37 -62 -75 -122 -85 -134
-18 -23 -19 -23 -30 61 -7 46 -12 99 -12 117 0 20 -6 35 -16 39 -33 13 -36
-12 -14 -143 34 -208 43 -207 181 28 57 95 87 137 98 136 11 -2 17 6 19 25 3
23 0 27 -20 27 -13 0 -30 -11 -39 -23z"/>
<path d="M11928 11455 l-73 -115 -42 2 c-24 1 -45 -1 -49 -4 -12 -13 8 -28 37
-28 27 0 29 -2 18 -21 -6 -12 -9 -30 -6 -40 4 -13 0 -19 -12 -19 -9 0 -95 -7
-191 -16 -96 -9 -316 -19 -489 -22 -258 -6 -315 -10 -319 -21 -7 -21 467 -8
887 24 185 14 373 28 419 31 47 4 82 10 82 16 0 7 -54 8 -171 4 l-171 -8 7 24
c12 38 23 45 77 51 44 6 53 4 65 -13 20 -28 45 -26 41 3 -2 18 3 23 31 27 19
3 36 11 39 18 3 11 -6 12 -42 7 l-46 -7 1 53 c0 30 4 75 8 101 7 44 0 68 -20
68 -4 0 -40 -52 -81 -115z m54 -42 c-4 -62 -4 -62 -38 -69 -19 -3 -37 -5 -39
-2 -2 2 14 34 37 71 22 37 41 66 42 65 1 -2 0 -31 -2 -65z"/>
<path d="M13523 11535 c-15 -19 -46 -65 -69 -102 -32 -53 -47 -69 -68 -71 -29
-4 -36 -29 -9 -34 14 -2 12 -9 -14 -38 -16 -19 -28 -41 -26 -47 9 -25 34 -12
69 37 27 38 42 50 62 50 15 0 36 3 47 6 16 4 23 -1 30 -27 10 -33 39 -59 51
-46 4 3 2 12 -3 19 -6 7 -13 23 -16 36 -5 22 -5 22 115 22 91 0 119 3 116 13
-3 8 -38 13 -118 15 l-113 3 7 80 c6 77 -2 119 -24 119 -5 0 -22 -16 -37 -35z
m20 -97 l-6 -68 -40 0 c-38 0 -39 1 -25 23 8 12 27 43 43 69 16 26 30 46 31
45 1 -1 0 -32 -3 -69z"/>
<path d="M8245 11544 c-46 -24 -70 -50 -105 -115 -37 -70 -45 -141 -18 -147
12 -2 21 5 28 22 11 30 22 29 188 -11 12 -3 22 -1 22 5 0 19 -49 42 -106 48
l-57 7 56 29 c61 30 87 66 87 117 0 33 -22 61 -48 61 -9 0 -30 -7 -47 -16z
m55 -50 c0 -14 -5 -34 -10 -45 -11 -20 -88 -64 -97 -55 -3 3 5 21 17 40 12 20
19 40 15 46 -7 11 54 52 67 44 4 -3 8 -16 8 -30z"/>
<path d="M10884 11545 c-47 -21 -81 -68 -104 -143 -28 -92 -30 -145 -7 -150 9
-2 19 2 21 10 26 89 49 176 51 190 3 35 68 83 103 76 13 -2 1 -20 -46 -71 -79
-84 -81 -110 -12 -144 51 -25 130 -41 130 -26 0 5 -31 22 -70 37 -48 19 -70
33 -70 45 0 9 23 39 51 66 60 59 72 79 64 105 -8 24 -62 26 -111 5z"/>
<path d="M7222 11525 c-60 -51 -106 -223 -67 -255 15 -13 19 -12 31 5 8 10 14
27 14 36 0 15 7 17 58 12 31 -3 74 -14 94 -24 25 -13 39 -15 43 -8 4 6 5 11 4
13 -2 1 -17 12 -33 24 -16 12 -41 22 -57 22 -61 0 -61 9 -4 64 43 40 55 58 55
82 0 41 -16 54 -66 54 -31 0 -51 -7 -72 -25z m98 -28 c0 -29 -64 -94 -75 -77
-4 6 -16 10 -26 7 -23 -6 -23 -4 -4 33 30 57 105 84 105 37z"/>
<path d="M11772 11528 c-5 -7 -35 -54 -65 -104 -31 -50 -64 -97 -73 -105 -16
-13 -16 -7 -9 74 6 75 5 88 -10 93 -9 4 -18 4 -21 2 -9 -9 -17 -174 -10 -202
5 -19 13 -26 30 -26 30 0 58 33 120 138 26 45 58 92 71 104 13 12 21 26 19 30
-8 12 -40 9 -52 -4z"/>
<path d="M2829 11513 c-11 -13 -13 -70 -11 -297 4 -301 -2 -367 -44 -535 l-27
-104 22 -16 c26 -20 36 -96 51 -386 12 -249 31 -329 99 -422 17 -24 38 -43 46
-43 20 0 20 1 -19 58 -18 28 -43 79 -55 114 -22 63 -23 72 -50 517 -8 123 -12
148 -31 173 l-21 29 25 107 c38 161 49 307 42 545 -5 175 -4 212 9 237 8 16
15 31 15 35 0 12 -39 4 -51 -12z"/>
<path d="M9470 11468 c-22 -35 -47 -82 -56 -105 -9 -23 -25 -45 -35 -48 -20
-7 -26 -31 -8 -37 5 -2 7 -11 4 -21 -7 -16 -49 -17 -639 -17 -703 0 -1149 -12
-1396 -36 -91 -9 -167 -18 -169 -20 -3 -2 0 -9 6 -15 8 -8 48 -7 145 5 73 8
237 20 363 26 220 9 1780 17 1914 9 45 -3 65 0 68 9 3 9 -11 12 -51 12 -54 0
-56 1 -64 33 -8 31 -7 32 25 35 43 4 42 18 -2 26 l-34 7 -3 96 c-2 65 -7 98
-15 100 -7 3 -31 -24 -53 -59z m30 -88 l0 -60 -30 0 c-16 0 -30 2 -30 5 0 7
54 115 57 115 2 0 3 -27 3 -60z m13 -117 c3 -16 5 -29 4 -29 -1 -1 -25 0 -53
3 -47 5 -50 7 -46 29 4 21 10 24 47 24 39 0 43 -3 48 -27z"/>
<path d="M11242 11507 c-18 -19 -37 -56 -95 -187 -10 -21 -13 -9 -17 80 -4 84
-8 105 -20 105 -12 0 -16 -19 -18 -96 -3 -100 7 -145 34 -156 24 -9 49 23 84
112 18 44 46 97 61 117 16 20 29 39 29 42 0 15 -39 4 -58 -17z"/>
<path d="M9321 11491 c-12 -16 -34 -58 -50 -93 -16 -34 -36 -72 -44 -83 -15
-20 -16 -19 -27 9 -6 17 -18 63 -27 104 -16 72 -33 96 -54 75 -11 -11 43 -205
63 -230 18 -22 55 -15 76 15 11 15 37 65 58 110 26 59 45 87 61 93 29 11 21
29 -12 29 -15 0 -31 -11 -44 -29z"/>
<path d="M7580 11488 c-5 -13 -16 -56 -25 -95 -18 -78 -29 -90 -39 -45 -25
105 -37 132 -57 132 -24 0 -24 1 10 -114 11 -37 26 -74 32 -82 17 -21 47 -17
63 9 17 25 57 197 50 209 -9 15 -24 8 -34 -14z"/>
<path d="M8937 11504 c-4 -4 -7 -29 -7 -56 0 -43 -2 -48 -22 -48 -40 0 -68
-12 -68 -27 0 -12 8 -14 40 -9 l40 6 -7 -45 c-5 -36 -3 -45 10 -45 10 0 19 17
27 49 11 47 14 50 48 53 49 4 55 28 7 28 l-37 0 4 47 c2 37 -1 48 -12 51 -9 1
-19 0 -23 -4z"/>
<path d="M7869 11444 c-11 -44 -13 -45 -48 -43 -53 3 -61 1 -61 -16 0 -17 8
-19 62 -16 36 3 37 2 40 -36 4 -47 20 -47 32 1 9 35 26 46 74 46 12 0 22 4 22
9 0 13 -41 21 -69 14 -22 -5 -23 -4 -17 23 4 16 12 32 18 35 15 10 0 29 -22
29 -15 0 -23 -11 -31 -46z"/>
<path d="M2365 11470 c-4 -6 8 -27 27 -48 79 -88 118 -198 121 -340 2 -80 -1
-96 -23 -136 -25 -47 -20 -76 7 -41 36 47 53 101 53 170 0 136 -40 260 -116
359 -34 45 -56 56 -69 36z"/>
<path d="M11437 11453 c-4 -3 -7 -26 -7 -51 l0 -44 -52 4 c-44 2 -53 0 -56
-14 -3 -15 4 -18 50 -18 52 0 54 -1 63 -32 6 -18 17 -34 27 -36 13 -3 15 3 11
36 l-5 38 47 10 c59 12 58 30 -2 26 l-46 -3 6 45 c6 40 4 46 -12 46 -10 0 -21
-3 -24 -7z"/>
<path d="M3102 11380 c-55 -34 -73 -90 -70 -217 3 -93 5 -108 21 -111 13 -3
17 3 17 28 0 27 3 31 18 25 32 -13 140 -28 157 -21 27 10 8 23 -46 30 -63 9
-119 31 -119 47 0 6 27 40 60 75 64 70 79 102 61 140 -13 30 -53 32 -99 4z
m68 -28 c0 -19 -49 -94 -69 -106 -6 -4 -9 10 -7 40 2 35 8 52 25 65 30 24 51
24 51 1z"/>
<path d="M5853 11358 c-11 -13 -41 -53 -67 -90 -46 -65 -48 -67 -94 -70 -34
-2 -47 -7 -47 -18 0 -10 12 -16 33 -18 l32 -3 -20 -29 c-11 -15 -23 -42 -26
-59 -6 -27 -4 -31 15 -31 13 0 21 6 21 17 0 9 11 35 25 59 24 42 26 42 86 46
36 2 63 -1 64 -7 1 -5 7 -28 11 -50 6 -27 15 -41 28 -43 16 -3 18 0 12 23 -20
77 -19 83 5 87 32 4 37 28 5 28 -25 0 -26 2 -27 63 -2 108 -18 136 -56 95z m5
-159 c-15 -10 -78 -12 -78 -3 0 3 19 33 43 67 l42 62 3 -59 c2 -41 -1 -62 -10
-67z"/>
<path d="M12486 11363 c-3 -4 -3 -40 0 -81 l7 -74 -74 3 c-61 3 -74 1 -74 -11
0 -12 16 -16 76 -18 l77 -3 6 -34 c10 -50 36 -47 36 4 0 36 3 40 33 46 17 4
42 13 55 21 26 17 20 39 -6 25 -9 -4 -34 -11 -54 -15 l-38 -7 0 76 c0 66 -2
75 -18 75 -10 0 -22 -3 -26 -7z"/>
<path d="M2330 11318 c-46 -48 -83 -105 -75 -117 9 -15 45 -14 45 2 0 6 9 23
21 37 l20 25 -6 -35 c-3 -19 -6 -69 -7 -110 -3 -61 0 -75 12 -75 12 0 18 24
28 105 25 206 20 228 -38 168z"/>
<path d="M5422 11278 c-6 -7 -12 -31 -14 -53 -3 -39 -4 -40 -48 -45 -33 -4
-46 -10 -48 -24 -4 -16 1 -17 46 -11 l49 7 8 -49 c15 -102 48 -109 38 -8 l-6
64 57 3 c73 4 73 22 0 26 l-56 3 4 46 c3 47 -10 65 -30 41z"/>
<path d="M10250 11256 c-67 -9 -86 -15 -88 -28 -4 -22 0 -22 113 -3 50 8 105
18 123 21 17 2 32 9 32 14 0 12 -70 11 -180 -4z"/>
<path d="M3521 11246 c-19 -23 9 -35 107 -42 79 -6 92 -5 92 8 0 16 -46 28
-113 28 -21 0 -47 4 -57 10 -13 7 -21 6 -29 -4z"/>
<path d="M6225 11211 c-53 -5 -70 -10 -70 -21 0 -17 26 -18 175 -4 52 5 95 14
95 19 0 12 -99 15 -200 6z"/>
<path d="M4356 11191 c-33 -3 -61 -11 -63 -17 -3 -8 73 -10 274 -7 153 3 317
1 366 -4 77 -8 121 -4 107 11 -21 20 -522 33 -684 17z"/>
<path d="M13405 11189 c-71 -3 -205 -7 -297 -8 -155 -1 -195 -8 -174 -29 8 -7
132 -5 441 8 350 15 425 21 425 31 0 10 -197 9 -395 -2z"/>
<path d="M3625 11145 c-5 -1 -36 -8 -67 -15 -38 -7 -58 -16 -58 -26 0 -18 13
-18 97 1 37 9 78 18 91 20 36 8 25 25 -15 24 -21 0 -42 -2 -48 -4z"/>
<path d="M4402 11130 c-45 -28 -64 -78 -70 -187 -5 -90 -4 -93 17 -93 17 0 21
6 21 29 l0 29 86 -6 c68 -4 86 -2 82 8 -2 7 -19 14 -38 16 -19 2 -51 6 -70 10
l-35 6 61 28 c68 31 94 60 94 105 0 69 -78 98 -148 55z m106 -51 c4 -42 -12
-59 -81 -88 l-47 -20 6 27 c4 15 11 35 15 44 5 9 6 23 3 31 -8 21 35 48 71 45
26 -3 30 -7 33 -39z"/>
<path d="M4915 11103 c-15 -99 -70 -205 -90 -172 -4 6 -8 38 -9 70 -3 92 -46
112 -46 21 0 -109 40 -164 94 -128 30 19 57 69 80 145 22 75 21 111 -3 111
-15 0 -20 -10 -26 -47z"/>
<path d="M7951 11132 c-19 -9 -48 -33 -63 -53 -27 -34 -30 -44 -35 -148 -6
-109 -6 -111 16 -111 17 0 21 6 21 29 0 17 3 32 8 35 4 2 34 -2 67 -10 66 -15
165 -19 165 -6 0 5 -45 16 -100 26 -55 10 -100 22 -100 27 0 5 31 29 68 54 93
61 113 105 67 150 -29 30 -66 32 -114 7z m89 -27 c23 -28 2 -64 -63 -106 l-62
-40 -3 42 c-4 53 14 88 53 105 40 17 60 17 75 -1z"/>
<path d="M8704 11142 c-6 -4 -26 -36 -44 -72 -45 -89 -80 -143 -88 -135 -4 3
-11 37 -17 73 -9 59 -13 67 -33 70 -19 3 -23 0 -19 -15 3 -10 11 -50 17 -90
13 -77 27 -99 60 -88 38 12 164 235 145 254 -6 6 -15 7 -21 3z"/>
<path d="M10285 11139 c-27 -5 -61 -7 -73 -4 -25 6 -55 -11 -46 -26 3 -5 24
-9 47 -9 37 0 66 5 155 25 12 3 22 10 22 15 0 12 -35 11 -105 -1z"/>
<path d="M6378 11105 c-3 -3 -47 -7 -99 -10 -52 -2 -97 -4 -101 -5 -5 0 -8 -7
-8 -15 0 -18 62 -20 160 -5 82 13 100 19 100 31 0 9 -43 13 -52 4z"/>
<path d="M4636 11051 l6 -50 -38 -3 c-27 -2 -39 -8 -39 -18 0 -11 10 -14 41
-12 39 3 41 2 50 -35 7 -28 15 -39 32 -41 22 -3 30 12 12 23 -5 3 -10 19 -10
36 0 26 3 29 31 29 40 0 34 24 -8 28 -28 3 -31 7 -38 48 -5 35 -10 44 -26 44
-18 0 -19 -5 -13 -49z"/>
<path d="M8304 11065 c-4 -8 -1 -29 5 -46 16 -45 15 -46 -29 -53 -28 -4 -40
-11 -40 -22 0 -14 8 -16 43 -11 40 5 43 4 57 -26 23 -48 43 -32 26 20 -6 19
-2 23 25 31 49 12 51 35 3 30 -38 -3 -38 -2 -46 39 -9 42 -34 64 -44 38z"/>
<path d="M3284 11050 c-32 -13 -54 -50 -54 -90 0 -46 22 -77 60 -85 79 -17
141 105 82 158 -23 21 -62 28 -88 17z m74 -69 c9 -56 -70 -101 -83 -48 -7 25
10 78 28 89 17 10 51 -15 55 -41z"/>
<path d="M11718 11028 c-13 -18 -48 -71 -78 -117 -53 -82 -55 -84 -61 -55 -4
16 -7 45 -8 65 -1 43 -24 79 -41 63 -15 -15 7 -189 26 -205 11 -9 20 -8 37 4
24 15 177 245 177 266 0 22 -28 10 -52 -21z"/>
<path d="M11030 11032 c-51 -25 -75 -69 -94 -174 -10 -51 -19 -103 -22 -116
-3 -15 1 -25 12 -29 20 -7 34 13 34 52 0 17 4 35 8 40 4 6 44 8 107 5 92 -6
129 0 112 16 -3 3 -37 8 -74 11 -133 8 -136 14 -42 64 60 32 99 70 99 95 0 25
-39 54 -72 54 -18 0 -49 -8 -68 -18z m96 -27 c4 -8 1 -22 -6 -30 -13 -15 -112
-75 -124 -75 -8 0 -2 45 9 73 16 39 109 64 121 32z"/>
<path d="M13155 11036 c-63 -28 -82 -66 -115 -238 -8 -37 -11 -71 -7 -74 17
-17 35 10 47 68 6 34 18 81 25 103 7 22 16 52 19 67 7 31 41 52 97 61 80 12
74 -21 -15 -82 -69 -46 -93 -83 -82 -126 12 -46 68 -54 179 -24 66 18 42 30
-47 23 -90 -7 -103 -2 -92 40 3 14 28 38 58 57 59 38 98 75 98 95 0 42 -98 60
-165 30z"/>
<path d="M13774 11032 c-6 -4 -29 -43 -53 -87 -23 -44 -47 -84 -52 -89 -5 -6
-9 24 -9 77 0 78 -2 87 -19 87 -26 0 -34 -59 -21 -151 11 -79 15 -89 34 -89
20 0 41 28 99 137 40 76 52 105 43 112 -6 5 -16 7 -22 3z"/>
<path d="M11334 10975 c-4 -8 -4 -29 0 -45 5 -29 4 -30 -30 -30 -28 0 -35 -3
-32 -17 3 -13 13 -18 35 -17 28 2 33 -2 39 -30 8 -38 21 -56 41 -56 11 0 13 6
8 23 -20 66 -20 66 26 69 60 4 64 28 5 28 -48 0 -47 -1 -50 60 -1 28 -33 40
-42 15z"/>
<path d="M13457 10964 c-4 -4 -7 -25 -7 -46 l0 -38 -47 3 c-37 1 -48 -1 -48
-13 0 -11 14 -16 52 -18 45 -3 52 -6 57 -27 9 -35 45 -35 38 0 -4 22 -1 25 27
25 21 0 31 5 31 15 0 11 -11 15 -36 15 l-36 0 4 42 c2 32 -1 43 -12 46 -9 1
-19 0 -23 -4z"/>
<path d="M5277 10513 c-13 -12 -7 -22 20 -35 52 -26 90 -148 71 -232 -5 -22
-23 -62 -39 -88 l-30 -46 -112 -6 c-62 -3 -247 -13 -412 -22 -303 -15 -345
-19 -345 -34 0 -16 15 -17 90 -9 214 23 1113 59 1490 59 207 0 320 8 320 23 0
6 -129 6 -355 2 l-355 -8 34 37 c33 35 76 130 110 244 13 45 13 54 1 58 -22 9
-32 -3 -40 -43 -9 -53 -60 -176 -89 -219 l-25 -37 -9 39 c-5 22 -18 75 -28
119 -16 67 -22 80 -39 80 -24 0 -24 0 10 -135 16 -65 33 -111 45 -121 18 -15
14 -17 -57 -23 -42 -3 -102 -6 -134 -6 l-58 0 35 66 c39 75 44 136 19 220 -21
73 -92 143 -118 117z"/>
<path d="M3386 10493 c-6 -19 -25 -149 -26 -170 0 -7 7 -13 15 -13 15 0 18 7
34 100 6 30 13 65 17 78 5 18 2 22 -14 22 -11 0 -23 -8 -26 -17z"/>
<path d="M4402 10473 c-54 -77 -97 -202 -107 -309 -5 -59 -3 -74 14 -101 15
-23 28 -33 46 -33 14 0 25 5 25 10 0 6 -4 10 -9 10 -78 0 -33 283 62 396 15
18 27 37 27 43 0 22 -39 11 -58 -16z"/>
<path d="M4650 10458 c-33 -17 -51 -35 -68 -69 -30 -59 -60 -225 -43 -242 18
-18 28 2 40 80 13 87 37 161 60 187 22 26 62 40 71 25 14 -22 -3 -50 -57 -96
-60 -52 -65 -74 -22 -106 18 -12 49 -21 94 -25 81 -6 82 9 2 27 -30 6 -63 18
-73 26 -18 13 -16 17 39 67 49 47 57 59 57 91 0 26 -6 39 -19 47 -27 14 -30
13 -81 -12z"/>
<path d="M5228 10438 c-8 -7 -39 -48 -68 -90 -33 -48 -61 -78 -71 -78 -22 0
-33 -16 -19 -25 8 -5 7 -11 -1 -21 -14 -17 -5 -44 14 -44 8 0 19 11 25 25 10
21 18 25 57 25 41 0 45 -2 45 -24 0 -25 25 -43 35 -25 4 5 4 18 0 28 -4 14 1
20 20 25 31 8 33 26 2 26 -23 0 -23 0 -14 86 10 90 3 114 -25 92z m-18 -133
c0 -43 -1 -45 -30 -45 -16 0 -30 2 -30 5 0 7 52 85 56 85 2 0 4 -20 4 -45z"/>
<path d="M8746 10345 c-33 -59 -54 -85 -66 -85 -24 0 -35 -17 -21 -34 7 -9 6
-19 -5 -34 -8 -12 -12 -27 -9 -32 12 -19 34 -10 55 25 19 30 27 35 61 35 27 0
39 -4 39 -15 0 -29 24 -65 43 -65 14 0 17 4 12 18 -24 56 -22 58 64 72 59 9
81 16 81 27 0 9 -6 13 -13 10 -8 -3 -43 -8 -80 -12 l-66 -7 -3 88 c-3 81 -5
89 -23 92 -17 2 -30 -14 -69 -83z m54 -40 c0 -54 0 -55 -30 -55 -16 0 -30 2
-30 5 0 6 54 105 58 105 1 0 2 -25 2 -55z"/>
<path d="M7424 10401 c-61 -28 -87 -88 -92 -213 -4 -94 -4 -98 17 -98 18 0 21
6 21 40 l0 40 24 -16 c58 -37 206 -59 206 -29 0 10 -10 15 -33 15 -38 0 -134
26 -141 39 -3 4 11 19 31 32 80 51 106 137 58 184 -29 30 -38 30 -91 6z m76
-66 c0 -38 -36 -87 -82 -111 -37 -19 -41 -16 -27 25 9 26 9 35 -1 41 -19 12
16 69 53 85 40 17 57 5 57 -40z"/>
<path d="M4937 10383 c-4 -3 -7 -26 -7 -49 l0 -43 -42 -3 c-30 -2 -43 -8 -43
-18 0 -11 10 -14 43 -12 l42 3 0 -36 c0 -41 16 -78 31 -70 5 4 9 31 9 61 l0
54 35 0 c24 0 35 5 35 15 0 11 -11 15 -36 15 l-37 0 6 45 c6 39 4 45 -12 45
-10 0 -21 -3 -24 -7z"/>
<path d="M7828 10373 c-9 -10 -31 -54 -48 -97 -17 -44 -36 -89 -42 -99 -10
-20 -11 -20 -22 -1 -6 10 -13 51 -16 89 -5 64 -7 70 -29 73 -23 4 -23 3 -16
-64 4 -37 11 -79 17 -93 21 -56 62 -77 88 -47 10 13 96 213 103 240 4 17 -20
16 -35 -1z"/>
<path d="M8566 10369 c-14 -11 -46 -55 -71 -97 -27 -47 -46 -71 -49 -62 -3 8
-13 44 -22 78 -17 63 -36 84 -56 64 -8 -8 -6 -21 5 -45 9 -19 21 -57 27 -85 6
-27 17 -58 25 -68 21 -29 43 -9 101 91 28 49 61 96 73 106 12 10 20 23 16 29
-9 15 -19 13 -49 -11z"/>
<path d="M3162 10340 c-48 -30 -59 -67 -63 -215 -3 -111 -2 -130 11 -130 11 0
16 13 18 47 l3 47 55 -44 c55 -45 88 -60 120 -53 28 5 29 28 1 28 -30 0 -150
86 -145 103 2 7 34 28 70 47 89 47 108 66 108 107 0 76 -99 111 -178 63z m132
-43 c14 -39 1 -55 -83 -100 l-71 -39 0 27 c0 49 22 116 44 131 12 9 37 14 61
12 33 -3 41 -7 49 -31z"/>
<path d="M8145 10338 c-2 -13 -6 -36 -7 -53 -3 -30 -4 -30 -66 -33 -53 -3 -63
-6 -60 -20 3 -14 14 -16 59 -14 l55 3 9 -42 c6 -23 18 -47 27 -53 21 -13 36 0
20 16 -7 7 -12 29 -12 49 0 37 0 38 52 46 29 4 53 14 56 22 4 11 -5 13 -47 8
l-51 -6 0 29 c0 16 5 32 10 35 20 12 10 35 -15 35 -17 0 -26 -7 -30 -22z"/>
<path d="M3705 10180 c-15 -25 11 -29 153 -24 158 6 196 12 147 24 -47 12
-293 11 -300 0z"/>
<path d="M6684 10119 c-14 -23 13 -29 122 -28 62 0 117 5 120 11 3 5 4 11 3
12 -10 9 -240 13 -245 5z"/>
<path d="M3772 10071 c3 -13 21 -16 113 -19 95 -2 151 7 135 21 -3 3 -60 7
-128 9 -109 5 -123 3 -120 -11z"/>
<path d="M8560 10076 c-3 -2 -266 -9 -585 -16 -319 -7 -600 -15 -624 -19 -25
-3 -46 -12 -49 -20 -4 -12 7 -13 59 -7 60 7 207 11 1304 35 248 6 492 7 543 3
93 -8 127 -3 101 14 -14 9 -741 19 -749 10z"/>
<path d="M3459 10035 c-14 -7 -30 -25 -37 -39 -6 -14 -18 -26 -27 -26 -35 0
-31 -107 6 -146 76 -80 227 74 174 176 -15 28 -50 51 -78 50 -7 -1 -24 -7 -38
-15z m77 -40 c23 -36 11 -90 -31 -132 -39 -39 -59 -41 -81 -8 -15 23 -15 28 0
59 9 19 16 38 16 44 0 15 48 62 64 62 9 0 23 -11 32 -25z"/>
<path d="M6683 10007 c-13 -22 20 -29 111 -25 86 3 117 10 105 22 -8 8 -211
11 -216 3z"/>
<path d="M4582 9910 c-36 -8 -82 -46 -82 -66 0 -7 -8 -20 -17 -30 -12 -12 -19
-36 -20 -73 -1 -30 -7 -78 -13 -105 -8 -35 -7 -53 0 -60 15 -15 40 19 40 55 0
43 10 60 28 50 24 -12 152 -35 158 -28 11 11 -6 24 -38 31 -17 3 -50 11 -72
17 l-40 11 64 34 c81 43 110 71 110 104 0 49 -53 76 -118 60z m72 -36 c12 -12
13 -20 6 -35 -11 -20 -21 -27 -104 -74 l-49 -28 6 32 c13 62 38 101 71 110 45
13 53 13 70 -5z"/>
<path d="M8892 9889 c-56 -101 -120 -203 -130 -207 -7 -2 -13 27 -18 78 -6 78
-18 101 -42 86 -11 -7 6 -164 21 -196 17 -36 51 -37 75 -3 23 33 152 260 152
268 0 3 -9 5 -20 5 -13 0 -28 -12 -38 -31z"/>
<path d="M8179 9867 c-15 -23 -41 -70 -58 -104 -23 -46 -37 -63 -51 -63 -11 0
-20 -7 -20 -15 0 -8 6 -15 14 -15 11 0 13 -7 6 -30 -5 -18 -5 -32 1 -36 18
-11 36 4 42 35 6 28 10 31 47 31 35 0 40 -3 40 -24 0 -28 24 -51 45 -42 15 5
15 8 1 28 -23 32 -20 48 8 48 38 0 86 12 86 21 0 5 -23 9 -51 9 l-52 0 6 85
c3 47 4 92 0 100 -10 27 -38 15 -64 -28z m24 -94 l-6 -73 -34 0 -33 0 20 43
c37 75 54 106 56 104 1 -1 0 -35 -3 -74z"/>
<path d="M5258 9826 c-19 -39 -39 -67 -51 -70 -16 -4 -18 -8 -8 -19 9 -12 7
-22 -9 -51 -22 -37 -20 -56 6 -56 9 0 24 21 36 49 16 38 25 47 39 44 11 -3 19
-13 19 -23 0 -29 11 -50 26 -50 9 0 14 12 14 35 l0 35 50 0 c38 0 50 4 50 15
0 11 -12 15 -50 15 l-49 0 -3 67 c-2 55 -6 68 -20 71 -13 2 -26 -14 -50 -62z
m28 -63 c-11 -11 -17 4 -9 23 7 18 8 18 11 1 2 -10 1 -21 -2 -24z"/>
<path d="M5907 9783 l-52 -108 -3 103 c-2 94 -4 102 -22 102 -18 0 -20 -7 -20
-94 0 -106 10 -146 38 -146 29 0 59 40 98 131 20 46 40 88 45 94 15 15 10 25
-11 25 -16 0 -32 -24 -73 -107z"/>
<path d="M7515 9872 c-51 -31 -80 -81 -94 -157 -17 -91 -12 -159 11 -163 12
-2 20 8 29 38 10 34 15 39 33 34 98 -32 216 -46 216 -26 0 4 -38 15 -85 25
-47 10 -97 22 -111 27 l-25 10 60 58 c66 63 82 101 60 141 -18 32 -54 37 -94
13z m64 -37 c5 -26 -24 -74 -65 -108 l-34 -29 0 42 c0 47 23 93 54 109 27 13
40 9 45 -14z"/>
<path d="M5644 9836 c-3 -9 -4 -32 -2 -51 5 -40 -8 -49 -58 -39 -30 5 -34 4
-34 -15 0 -18 6 -21 48 -21 44 0 49 -2 59 -30 15 -40 33 -38 33 3 0 28 4 34
33 42 41 13 33 31 -11 27 l-34 -4 4 48 c2 40 0 49 -15 52 -9 2 -20 -4 -23 -12z"/>
<path d="M8496 9841 c-4 -5 -4 -28 0 -50 l7 -41 -48 0 c-59 0 -57 -24 2 -28
40 -3 42 -4 48 -45 8 -49 21 -67 46 -67 23 0 24 7 4 26 -8 9 -15 31 -15 49 0
33 1 34 47 37 66 4 70 28 4 28 l-50 0 -3 47 c-2 35 -7 49 -20 51 -9 2 -19 -1
-22 -7z"/>
<path d="M4957 9834 c-4 -4 -7 -29 -7 -55 l0 -48 -42 -3 c-30 -2 -43 -8 -43
-18 0 -11 11 -15 42 -13 l42 2 3 -41 c4 -58 24 -59 34 -2 8 43 12 49 42 56 45
12 43 39 -2 31 l-35 -5 -3 48 c-3 44 -15 63 -31 48z"/>
<path d="M7908 9805 c-3 -3 -1 -22 5 -41 13 -41 5 -49 -55 -59 -22 -4 -38 -12
-38 -20 0 -23 16 -26 60 -10 23 8 44 15 45 15 2 0 6 -16 9 -35 5 -22 13 -35
23 -35 12 0 14 9 11 39 -3 35 0 41 19 46 30 7 29 25 -1 25 -19 0 -26 7 -33 37
-8 34 -30 53 -45 38z"/>
<path d="M9900 9500 c-118 -13 -267 -46 -369 -81 -96 -34 -351 -157 -351 -170
0 -14 5 -12 89 30 345 174 642 229 1027 190 411 -41 803 -264 913 -520 46
-106 38 -252 -20 -368 -59 -118 -249 -290 -445 -403 -197 -114 -490 -223 -755
-282 -190 -42 -268 -49 -453 -43 -140 4 -189 10 -271 31 -177 46 -325 128
-458 255 -177 169 -225 311 -181 542 35 188 116 332 272 489 73 73 114 105
165 130 45 22 64 37 58 43 -16 16 -87 -17 -162 -73 -109 -82 -228 -228 -289
-355 -66 -135 -85 -219 -85 -375 0 -135 0 -135 36 -211 96 -201 350 -395 607
-463 322 -86 663 -53 1133 110 404 139 758 385 863 599 96 197 63 381 -99 553
-171 182 -443 313 -742 357 -133 20 -370 27 -483 15z"/>
<path d="M9280 9108 c-6 -24 -24 -83 -39 -133 -29 -90 -28 -127 3 -83 15 22
86 225 86 247 0 6 -9 11 -20 11 -14 0 -22 -11 -30 -42z"/>
<path d="M3265 9100 c-58 -23 -77 -73 -95 -244 -6 -60 -15 -129 -19 -153 -9
-44 -2 -59 23 -50 9 4 16 32 21 76 4 39 9 71 12 71 2 0 19 -11 37 -25 44 -34
99 -55 141 -55 41 0 47 17 8 25 -44 9 -131 55 -138 73 -4 11 13 33 54 71 66
62 96 117 86 162 -11 50 -72 73 -130 49z m79 -39 c30 -33 12 -77 -57 -143 -33
-32 -62 -56 -64 -54 -5 5 22 64 39 88 18 25 -4 47 -28 27 -15 -12 -16 -11 -10
11 23 81 81 115 120 71z"/>
<path d="M4132 9013 c-10 -21 -33 -74 -51 -118 -17 -44 -41 -96 -53 -115 l-21
-35 -9 25 c-6 14 -12 73 -15 132 -6 110 -19 146 -45 120 -15 -15 5 -217 26
-267 25 -60 63 -59 100 4 24 41 116 262 116 278 0 27 -30 11 -48 -24z"/>
<path d="M4281 8988 c-16 -35 -39 -91 -52 -126 -21 -54 -27 -62 -45 -58 -28 7
-55 -21 -33 -35 8 -5 19 -9 25 -9 7 0 9 -11 6 -25 -3 -20 0 -25 16 -25 14 0
22 9 27 29 5 22 13 30 37 35 49 10 55 8 67 -24 9 -28 35 -49 47 -38 2 3 -2 21
-10 40 l-15 36 49 6 c64 9 65 26 1 26 -60 0 -65 10 -55 109 13 134 -19 162
-65 59z m29 -102 c0 -72 0 -74 -27 -79 -16 -3 -29 -4 -31 -2 -4 4 49 155 54
155 2 0 4 -33 4 -74z"/>
<path d="M6793 9038 c-6 -7 -31 -52 -57 -101 -26 -48 -56 -92 -67 -97 -10 -6
-16 -16 -13 -24 3 -7 -2 -19 -11 -26 -19 -16 -20 -50 -1 -50 8 0 27 16 42 35
21 28 33 35 60 35 28 0 34 -4 34 -21 0 -29 18 -59 36 -59 16 0 15 19 -2 64 -5
13 7 16 78 18 92 3 87 13 -13 23 l-65 6 8 67 c14 123 14 136 -3 140 -9 1 -20
-3 -26 -10z m-13 -148 c0 -47 -2 -50 -25 -50 -14 0 -25 2 -25 5 0 7 44 95 47
95 2 0 3 -22 3 -50z"/>
<path d="M3606 9008 c-8 -13 -22 -63 -31 -113 -9 -49 -21 -94 -26 -99 -12 -13
-57 88 -65 146 -7 49 -25 75 -44 63 -15 -9 -13 -25 16 -115 15 -49 37 -94 56
-115 55 -64 73 -45 100 103 12 67 25 111 34 119 9 6 13 16 9 22 -10 18 -34 12
-49 -11z"/>
<path d="M5634 9009 c-38 -11 -76 -48 -100 -97 -21 -44 -30 -165 -15 -204 14
-37 51 -39 51 -3 0 25 1 25 80 25 49 0 95 -6 117 -15 43 -18 53 -19 53 -2 0
26 -46 41 -145 46 l-100 6 45 27 c108 64 149 150 97 202 -28 28 -35 29 -83 15z
m62 -53 c3 -14 3 -34 -1 -45 -6 -21 -79 -91 -95 -91 -5 0 -3 18 5 41 16 45 13
59 -12 59 -13 0 -10 7 12 30 37 39 82 41 91 6z m-139 -128 c-3 -7 -5 -2 -5 12
0 14 2 19 5 13 2 -7 2 -19 0 -25z"/>
<path d="M6556 8987 c-7 -19 -17 -45 -21 -58 -14 -44 -75 -159 -85 -159 -5 0
-11 50 -12 113 -2 92 -6 112 -18 112 -12 0 -16 -20 -18 -106 -3 -123 6 -159
42 -159 14 0 32 7 41 16 32 33 115 220 115 261 0 26 -30 12 -44 -20z"/>
<path d="M5843 8964 c-12 -31 5 -203 24 -242 40 -83 85 -45 137 117 19 58 37
114 41 124 7 16 4 18 -16 15 -20 -2 -28 -15 -47 -78 -32 -102 -63 -180 -72
-180 -13 0 -21 42 -27 153 -4 82 -9 107 -20 107 -7 0 -16 -7 -20 -16z"/>
<path d="M6216 8973 c-3 -4 -4 -33 0 -65 l7 -58 -52 0 c-45 0 -51 -2 -51 -21
0 -20 4 -21 53 -16 53 7 53 7 62 -26 6 -18 18 -33 28 -35 16 -3 18 0 12 20 -4
12 -9 30 -11 40 -3 12 4 18 25 23 30 6 58 31 48 41 -3 4 -20 1 -38 -5 -18 -6
-34 -9 -36 -7 -3 2 -5 29 -5 60 -1 46 -4 56 -18 56 -9 0 -20 -3 -24 -7z"/>
<path d="M3787 8953 c-4 -3 -7 -26 -7 -50 l0 -45 -47 4 c-38 2 -48 0 -48 -12
0 -11 13 -16 46 -18 46 -3 47 -3 53 -45 8 -49 30 -87 51 -87 18 0 18 1 0 36
-8 16 -15 45 -15 66 0 33 3 37 38 45 22 5 37 15 37 23 0 16 -16 18 -52 6 -22
-7 -23 -4 -23 38 0 43 -13 59 -33 39z"/>
<path d="M9015 8906 c-56 -24 -93 -71 -105 -134 -6 -31 -25 -107 -41 -169 -33
-128 -34 -133 -15 -133 7 0 21 26 32 64 l19 64 75 -19 c41 -11 98 -31 127 -45
28 -15 56 -23 63 -19 20 12 -51 55 -138 82 l-84 26 69 32 c100 47 118 71 118
155 0 101 -38 132 -120 96z m75 -35 c18 -35 12 -106 -12 -136 -19 -25 -145
-92 -154 -82 -7 7 45 180 58 193 17 17 70 44 85 44 7 0 17 -9 23 -19z"/>
<path d="M10287 8871 c-50 -10 -88 -39 -109 -82 -24 -49 -29 -312 -6 -317 17
-3 28 25 28 77 0 31 2 33 28 26 37 -9 193 -35 215 -35 9 0 17 6 17 13 0 8 -30
17 -87 26 -104 16 -143 29 -143 46 0 7 38 47 85 90 68 61 85 83 85 105 0 46
-42 65 -113 51z m57 -27 c36 -14 16 -45 -88 -134 l-29 -25 6 30 c4 17 9 40 13
53 5 16 2 22 -10 22 -39 0 4 37 59 51 17 4 31 7 32 8 1 1 8 -2 17 -5z"/>
<path d="M9815 8742 l-120 -69 3 -39 c2 -21 8 -44 14 -51 13 -17 129 -54 175
-56 52 -3 58 15 8 25 -65 13 -155 49 -155 63 0 18 34 45 133 105 86 52 112 81
77 88 -9 1 -69 -28 -135 -66z"/>
<path d="M5045 8732 c-78 -43 -139 -88 -173 -127 -56 -63 -44 -77 94 -105 91
-19 159 -20 138 -1 -5 4 -53 16 -106 26 -53 10 -103 22 -110 27 -18 11 30 52
149 126 88 54 114 82 76 82 -10 0 -40 -13 -68 -28z"/>
<path d="M7740 8721 c0 -21 45 -45 152 -80 69 -23 118 -54 118 -74 0 -7 -30
-32 -65 -56 -36 -24 -65 -47 -65 -52 0 -19 36 -7 97 32 112 73 94 116 -78 182
-53 21 -104 44 -115 52 -26 20 -44 19 -44 -4z"/>
<path d="M4235 8669 c-304 -30 -457 -39 -814 -48 -306 -8 -386 -16 -354 -33
11 -7 539 9 756 21 140 9 468 36 685 57 28 3 52 10 52 15 0 13 -120 9 -325
-12z"/>
<path d="M6765 8659 c-215 -6 -1229 -21 -1283 -19 -8 0 -12 -7 -10 -16 3 -14
28 -16 228 -15 124 1 261 4 305 6 44 3 303 10 575 15 272 6 512 13 533 16 57
10 44 24 -20 22 -32 -1 -179 -5 -328 -9z"/>
<path d="M7462 8640 c4 -19 90 -24 238 -13 163 12 122 28 -73 28 -143 0 -167
-2 -165 -15z"/>
<path d="M7785 8563 c-27 -7 -104 -17 -169 -21 -74 -4 -121 -11 -123 -18 -6
-19 34 -23 135 -13 105 11 252 46 252 60 0 12 -35 9 -95 -8z"/>
<path d="M10573 8568 c-17 -28 -43 -114 -43 -145 0 -63 66 -94 119 -57 29 20
60 88 61 130 0 17 -9 43 -21 58 -16 21 -29 26 -64 26 -24 0 -47 -6 -52 -12z
m88 -39 c24 -46 -21 -143 -65 -137 -28 4 -32 37 -11 83 10 19 15 41 12 49 -13
33 46 37 64 5z"/>
<path d="M5935 8522 c-55 -19 -67 -38 -91 -141 -22 -98 -24 -206 -4 -206 15 0
26 25 35 87 6 36 7 37 28 24 27 -17 138 -37 166 -29 12 3 21 12 21 20 0 10 -6
13 -16 9 -18 -7 -123 11 -145 25 -11 6 1 22 49 67 45 42 62 65 62 83 0 44 -57
77 -105 61z m63 -58 c2 -14 -15 -36 -58 -73 l-61 -54 6 39 c11 71 15 82 31 99
24 23 78 16 82 -11z"/>
<path d="M9290 8501 c-40 -21 -86 -97 -70 -116 5 -6 7 -14 4 -18 -8 -8 5 -44
22 -62 9 -8 31 -15 51 -15 28 0 42 8 69 37 64 70 67 155 8 182 -34 15 -44 14
-84 -8z m74 -27 c28 -28 20 -71 -24 -117 -33 -35 -42 -40 -57 -31 -10 7 -17
22 -16 35 6 80 11 94 39 111 35 22 39 22 58 2z"/>
<path d="M3269 8500 c-42 -12 -76 -39 -87 -68 -19 -53 -44 -254 -33 -265 19
-19 34 8 37 64 1 28 5 53 7 56 8 7 90 -48 106 -70 32 -45 52 -58 84 -55 21 2
33 9 35 21 3 14 -1 17 -21 12 -20 -5 -30 0 -53 30 -15 20 -43 47 -62 60 l-34
23 45 30 c56 39 107 97 107 122 0 40 -65 60 -131 40z m88 -36 c3 -9 -6 -27
-23 -46 -30 -32 -125 -100 -131 -94 -2 2 3 23 11 46 8 23 12 49 9 56 -3 9 10
21 38 34 53 24 88 25 96 4z"/>
<path d="M3907 8473 c-22 -25 -61 -115 -82 -191 -10 -34 -21 -62 -25 -62 -9 0
-25 67 -40 170 -12 83 -13 85 -35 77 -17 -7 -15 -40 11 -167 20 -95 41 -140
65 -140 23 0 38 30 74 145 32 107 51 146 68 142 6 -1 12 7 12 18 0 26 -27 30
-48 8z"/>
<path d="M6542 8433 c-11 -21 -32 -71 -47 -110 -16 -40 -31 -73 -35 -73 -4 0
-10 26 -14 58 -13 109 -39 163 -67 135 -6 -6 -4 -22 5 -45 9 -19 20 -66 26
-104 15 -98 18 -104 46 -104 27 0 38 20 103 186 36 93 36 94 16 94 -8 0 -23
-17 -33 -37z"/>
<path d="M4259 8356 c-31 -83 -33 -85 -67 -88 -45 -4 -56 -28 -13 -28 17 0 31
-3 31 -6 0 -4 -13 -29 -30 -56 -35 -57 -37 -68 -9 -68 15 0 27 15 47 60 23 52
30 60 51 58 19 -2 27 -11 33 -36 9 -35 33 -51 50 -34 7 7 5 17 -6 33 -22 31
-21 35 14 49 39 16 39 34 0 27 l-29 -6 -3 87 c-3 72 -6 87 -20 90 -12 2 -24
-17 -49 -82z m31 -61 c0 -23 -5 -35 -14 -35 -12 0 -12 6 -3 35 6 19 12 35 14
35 2 0 3 -16 3 -35z"/>
<path d="M6224 8425 c-4 -8 -3 -27 0 -41 l7 -27 -51 7 c-46 6 -51 5 -48 -11 2
-14 15 -19 53 -23 49 -5 50 -5 58 -46 8 -44 38 -81 56 -69 7 4 6 13 -3 28 -7
12 -16 36 -19 54 -6 30 -4 32 25 35 46 4 49 28 4 28 -34 0 -36 2 -42 40 -7 41
-29 55 -40 25z"/>
<path d="M3553 8423 c-8 -3 -13 -21 -13 -44 0 -38 -1 -39 -34 -39 -34 0 -63
-21 -52 -39 3 -5 24 -7 45 -4 39 5 40 5 43 -28 2 -22 8 -34 18 -34 11 0 14 9
12 38 -4 36 -3 37 32 37 40 0 86 15 86 29 0 6 -23 7 -57 4 l-56 -6 5 41 c6 41
-3 54 -29 45z"/>
<path d="M4050 8349 l0 -52 -41 7 c-46 7 -61 2 -52 -19 3 -10 20 -15 49 -15
43 0 44 0 44 -34 0 -45 9 -66 27 -66 11 0 14 11 11 51 l-3 52 39 11 c56 16 62
40 8 31 l-41 -7 -3 44 c-2 31 -8 44 -20 46 -15 3 -18 -4 -18 -49z"/>
<path d="M4582 7688 c-25 -30 -78 -264 -67 -298 15 -48 67 -34 148 40 55 50
57 51 57 26 0 -14 10 -36 21 -47 19 -19 30 -21 83 -17 62 5 166 48 166 68 0
14 -8 13 -65 -9 -74 -28 -138 -36 -153 -18 -13 15 -4 84 17 140 9 22 8 29 -5
34 -18 7 -12 12 -68 -64 -42 -58 -136 -143 -158 -143 -21 0 29 208 59 242 8 9
13 25 11 35 -4 22 -31 28 -46 11z"/>
<path d="M2801 7499 c-22 -36 -35 -132 -26 -197 4 -26 18 -107 31 -180 38
-214 29 -361 -30 -497 -25 -55 -24 -65 5 -65 38 0 38 -75 -3 -344 -41 -269
-45 -474 -12 -546 26 -55 71 -110 90 -110 19 0 18 14 -2 31 -27 23 -63 104
-74 172 -14 80 -2 231 37 462 14 83 26 192 27 244 1 84 -1 95 -20 109 l-20 16
22 73 c51 159 52 234 7 493 -27 153 -27 260 -3 313 19 40 37 33 52 -20 8 -29
19 -48 28 -48 23 0 23 30 1 80 -18 41 -23 45 -56 45 -29 0 -39 -6 -54 -31z"/>
<path d="M3091 7454 c-63 -17 -65 -18 -58 -38 5 -12 14 -12 67 5 34 10 73 19
86 19 20 0 22 -3 15 -23 -5 -12 -14 -81 -20 -152 -17 -189 -12 -175 -77 -175
-40 0 -56 -4 -61 -15 -3 -9 -3 -19 1 -22 8 -8 232 15 274 28 34 11 39 36 6 31
-10 -2 -43 -7 -72 -11 l-53 -7 7 65 c3 36 13 107 21 156 8 50 16 100 16 113 2
18 8 22 35 22 17 0 32 5 32 10 0 15 -157 11 -219 -6z"/>
<path d="M2465 7429 c-4 -6 -5 -11 -4 -12 2 -2 21 -10 42 -20 88 -40 123 -230
64 -349 -16 -32 -42 -67 -58 -79 -21 -15 -27 -25 -20 -32 18 -18 78 39 112
108 28 57 32 75 31 143 -2 115 -34 195 -95 232 -36 22 -62 25 -72 9z"/>
<path d="M2388 7320 c-33 -20 -19 -30 42 -30 45 0 60 -4 60 -14 0 -8 -32 -44
-71 -79 -84 -77 -87 -97 -12 -96 55 0 117 19 111 34 -3 10 -65 9 -102 -2 -11
-3 11 23 47 57 69 64 82 95 52 120 -21 17 -105 23 -127 10z"/>
<path d="M3898 7313 c-80 -3 -88 -6 -88 -23 0 -11 4 -20 10 -20 31 0 267 22
280 26 29 10 -13 24 -65 22 -27 -1 -89 -4 -137 -5z"/>
<path d="M5025 7310 c-71 -5 -233 -14 -360 -20 -126 -7 -234 -17 -239 -21 -6
-6 -6 -13 0 -19 7 -7 66 -6 190 4 98 8 280 20 404 26 248 12 290 16 290 30 0
11 -89 11 -285 0z"/>
<path d="M3881 7212 c-23 -7 -10 -32 17 -33 100 -5 245 9 268 25 14 11 -7 13
-129 12 -80 -1 -151 -2 -156 -4z"/>
<path d="M3468 7143 c-14 -15 -33 -40 -43 -55 -9 -16 -26 -28 -36 -28 -22 0
-35 -18 -21 -32 6 -6 5 -23 -6 -49 -11 -29 -12 -43 -4 -51 15 -15 42 -2 42 21
0 11 5 32 12 46 9 20 18 25 48 25 37 0 37 0 43 -50 8 -62 22 -91 43 -83 11 4
13 12 9 27 -4 11 -10 40 -12 63 -5 40 -3 42 24 48 46 11 53 14 53 25 0 6 -18
9 -42 8 l-43 -3 -5 55 c-6 65 -23 74 -62 33z m27 -91 c-2 -2 -13 -1 -24 3 -20
6 -20 7 -4 32 l17 26 8 -29 c4 -15 6 -30 3 -32z"/>
<path d="M4630 7124 c-61 -30 -104 -87 -135 -180 -33 -102 0 -193 35 -97 14
39 17 41 31 27 33 -32 237 -44 227 -12 -2 5 -37 12 -78 13 -41 2 -88 9 -105
15 l-30 12 39 31 c137 112 167 157 130 198 -23 26 -48 24 -114 -7z m88 -26 c2
-9 -11 -33 -29 -53 -35 -40 -119 -101 -119 -87 0 5 11 35 24 68 20 49 30 62
63 76 43 20 57 19 61 -4z"/>
<path d="M4894 6956 c-69 -31 -99 -118 -52 -150 69 -49 218 23 218 104 0 15
-7 33 -16 41 -22 18 -113 22 -150 5z m110 -22 c48 -18 -15 -100 -86 -110 -45
-6 -62 7 -54 41 15 59 81 92 140 69z"/>
<path d="M4689 6383 c-20 -52 -40 -168 -46 -258 -5 -77 -3 -92 11 -104 30 -25
79 8 132 89 26 38 49 70 52 70 2 0 1 -24 -2 -54 -9 -68 6 -86 72 -86 54 0 164
29 160 42 -4 12 -10 12 -95 -2 -116 -20 -117 -17 -78 135 14 53 23 101 20 106
-12 19 -35 8 -51 -23 -34 -67 -145 -228 -164 -238 -19 -10 -20 -7 -20 47 0 78
36 245 55 259 24 18 19 44 -10 44 -19 0 -28 -8 -36 -27z"/>
<path d="M3516 6267 c-35 -109 -44 -161 -25 -155 7 2 28 47 47 99 47 131 48
139 25 139 -16 0 -25 -17 -47 -83z"/>
<path d="M3225 6223 c-137 -3 -165 -8 -165 -27 0 -11 23 -12 118 -8 142 6 194
13 200 30 2 7 -4 11 -15 10 -10 -1 -72 -4 -138 -5z"/>
<path d="M3246 6171 c-4 -5 -16 -65 -27 -133 -12 -67 -25 -131 -30 -140 -6
-11 -5 -19 1 -23 19 -12 39 15 50 68 6 29 17 84 25 122 8 39 17 80 21 93 5 18
2 22 -14 22 -12 0 -23 -4 -26 -9z"/>
<path d="M4087 6044 c-3 -3 -62 -6 -131 -6 -127 0 -161 -9 -109 -29 46 -18
323 9 323 32 0 10 -73 13 -83 3z"/>
<path d="M4366 5951 c-4 -6 -4 -15 -1 -21 4 -6 195 -10 541 -10 468 0 534 2
534 15 0 13 -63 15 -504 15 -277 0 -517 3 -534 6 -17 4 -32 1 -36 -5z"/>
<path d="M3565 5919 c-19 -14 -41 -47 -60 -90 -21 -49 -36 -70 -52 -74 -26 -6
-30 -23 -8 -31 9 -4 15 -19 15 -40 0 -23 6 -37 16 -41 19 -7 30 8 44 60 10 36
12 37 55 37 l45 0 0 -55 c0 -48 2 -55 20 -55 18 0 20 7 20 59 0 51 3 59 21 64
22 6 18 27 -5 27 -9 0 -15 21 -18 65 -8 96 -34 116 -93 74z m54 -96 l1 -53
-40 0 c-22 0 -40 4 -40 9 0 20 32 96 47 114 17 18 18 18 24 0 4 -10 8 -42 8
-70z"/>
<path d="M4075 5929 c-22 -5 -78 -8 -125 -8 -106 2 -105 2 -90 -16 24 -29 277
-10 288 23 4 14 -14 14 -73 1z"/>
<path d="M3294 5884 c-27 -19 -154 -32 -154 -15 0 14 -37 15 -45 1 -4 -6 -1
-18 6 -27 29 -35 245 3 241 42 -2 16 -25 16 -48 -1z"/>
<path d="M5165 5795 c-30 -31 -68 -100 -95 -170 -7 -19 -17 -25 -40 -25 -20 0
-30 -5 -30 -15 0 -8 9 -15 20 -15 26 0 25 -6 -5 -59 -17 -29 -22 -48 -16 -54
18 -18 37 0 62 57 21 50 27 56 54 56 17 0 40 3 53 6 19 6 22 3 22 -23 0 -31
16 -53 38 -53 14 0 12 21 -4 63 -3 10 2 18 15 22 25 8 28 25 5 25 -15 0 -16
11 -11 86 2 47 3 94 0 104 -9 34 -34 32 -68 -5z m27 -110 l-7 -80 -43 -3 c-42
-3 -43 -2 -37 20 20 63 86 172 92 151 2 -4 -1 -44 -5 -88z"/>
<path d="M4570 5774 c-46 -20 -77 -50 -103 -99 -17 -32 -21 -58 -22 -134 0
-67 4 -95 12 -98 16 -6 20 6 28 78 l6 57 23 -23 c26 -26 182 -89 202 -81 27
10 13 23 -53 46 -129 44 -151 69 -85 96 60 25 92 62 92 105 0 28 -6 42 -22 53
-27 19 -34 19 -78 0z m58 -48 c2 -15 -3 -34 -10 -43 -16 -19 -97 -57 -105 -49
-12 12 33 90 62 107 37 23 49 20 53 -15z"/>
<path d="M4825 5691 c-3 -6 -3 -26 1 -45 6 -34 6 -35 -33 -38 -55 -4 -52 -32
4 -36 37 -3 42 -6 48 -33 9 -41 35 -38 35 4 0 31 3 34 42 43 62 14 63 37 1 28
l-49 -6 -9 43 c-10 42 -27 60 -40 40z"/>
<path d="M7225 4886 c-73 -32 -118 -110 -150 -264 -20 -97 -19 -112 4 -112 16
0 21 10 26 55 4 30 10 55 14 55 3 0 26 -14 50 -30 53 -36 128 -60 188 -60 64
0 52 16 -22 30 -56 10 -157 58 -188 89 -5 5 26 30 68 56 76 47 135 111 135
146 0 45 -63 62 -125 35z m85 -36 c0 -25 -72 -97 -130 -129 -39 -22 -43 -22
-35 -5 4 10 10 30 13 44 11 52 78 110 129 110 16 0 23 -6 23 -20z"/>
<path d="M4394 4841 c-18 -11 -41 -40 -55 -68 -28 -57 -79 -251 -72 -270 10
-26 38 -9 41 25 3 27 7 32 20 27 66 -25 212 -32 212 -10 0 6 -35 13 -79 17
-44 4 -92 13 -106 21 l-27 14 68 43 c91 56 122 87 130 126 6 31 -8 72 -30 86
-20 14 -71 8 -102 -11z m92 -38 c4 -16 2 -37 -7 -52 -15 -27 -126 -107 -135
-98 -3 3 3 25 13 49 11 24 18 48 16 54 -2 6 10 25 26 43 38 40 78 42 87 4z"/>
<path d="M4779 4763 c-21 -49 -50 -110 -63 -138 l-24 -50 -12 30 c-6 17 -17
68 -23 114 -11 80 -25 107 -47 85 -9 -9 19 -176 38 -224 15 -39 37 -53 60 -41
16 8 142 278 142 304 0 4 -7 7 -16 7 -10 0 -30 -32 -55 -87z"/>
<path d="M3110 4663 c-50 -34 -91 -107 -119 -215 -22 -81 -45 -254 -36 -269
14 -21 34 -7 41 29 12 73 32 147 33 125 2 -40 158 -147 206 -141 24 3 16 10
-69 66 -53 34 -96 66 -96 70 1 4 20 19 44 34 79 50 122 139 110 226 -12 80
-60 112 -114 75z m71 -52 c26 -88 -19 -186 -110 -239 l-43 -25 7 34 c4 19 18
61 31 93 17 43 20 63 13 73 -19 23 41 102 78 103 7 0 17 -18 24 -39z"/>
<path d="M11060 4658 c-12 -13 -47 -74 -78 -135 -54 -108 -58 -113 -88 -113
-31 0 -60 -21 -47 -33 3 -4 17 -7 30 -7 29 0 29 -6 -2 -55 -30 -49 -31 -65 -5
-65 15 0 29 17 52 65 l32 65 53 0 53 0 0 -43 c0 -52 19 -83 45 -73 14 5 16 9
7 18 -7 7 -12 33 -12 59 0 42 3 48 23 51 25 3 21 23 -5 22 -21 -1 -21 0 -7
123 15 129 -3 172 -51 121z m16 -95 c-4 -32 -9 -79 -12 -105 l-6 -48 -44 0
c-24 0 -44 2 -44 4 0 21 96 206 107 206 3 0 2 -26 -1 -57z"/>
<path d="M8980 4608 c-16 -29 -48 -94 -71 -143 -36 -80 -44 -91 -66 -90 -32 0
-42 -22 -15 -33 20 -7 20 -7 0 -50 -16 -32 -18 -46 -9 -55 15 -15 31 2 52 56
l17 42 70 3 70 3 6 -45 c7 -45 29 -76 40 -57 4 6 4 23 1 38 -17 77 -19 72 30
75 25 2 45 8 45 13 0 6 -20 9 -45 7 l-45 -4 0 130 c0 72 -3 137 -6 146 -12 32
-43 17 -74 -36z m40 -123 l0 -115 -56 0 c-53 0 -55 1 -48 22 12 38 92 208 98
208 3 0 6 -52 6 -115z"/>
<path d="M5857 4588 c-13 -18 -43 -66 -67 -106 -29 -49 -50 -74 -66 -78 -24
-6 -33 -29 -14 -36 6 -2 3 -21 -6 -48 -12 -33 -13 -50 -5 -68 15 -31 35 -23
39 14 1 16 7 46 12 67 10 35 13 37 54 37 l43 0 7 -62 c7 -61 19 -88 37 -88 6
0 7 34 3 79 l-7 80 64 3 c36 2 63 7 61 13 -1 6 -28 9 -63 7 l-60 -4 5 34 c3
18 10 61 16 94 16 96 -7 123 -53 62z m6 -116 l-6 -62 -34 0 -35 0 25 43 c13
23 30 53 36 65 18 34 20 25 14 -46z"/>
<path d="M10259 4601 c-73 -23 -109 -75 -133 -191 -22 -113 -24 -145 -6 -145
15 0 20 12 40 100 6 28 20 69 31 93 12 23 19 49 16 56 -7 18 20 42 62 57 27 9
35 9 48 -4 24 -23 8 -49 -62 -107 -71 -57 -88 -80 -79 -105 13 -33 186 -97
207 -76 7 7 5 12 -9 17 -70 22 -158 62 -161 71 -2 6 27 37 64 68 81 69 100 97
84 132 -6 13 -22 28 -37 33 -29 11 -29 11 -65 1z"/>
<path d="M8564 4527 c-3 -9 -1 -32 5 -53 l10 -37 -75 7 c-68 5 -75 4 -72 -12
3 -14 17 -18 78 -22 l75 -5 10 -60 c7 -41 15 -60 25 -60 12 0 14 11 12 45 -2
25 -6 53 -8 63 -5 14 2 17 40 17 93 0 105 28 14 32 l-63 3 -5 45 c-4 32 -10
46 -23 48 -9 2 -20 -3 -23 -11z"/>
<path d="M9778 4515 c-132 -46 -170 -80 -153 -134 8 -27 135 -89 199 -98 74
-9 55 15 -34 43 -91 29 -141 64 -122 87 15 18 97 58 170 81 30 10 51 23 49 29
-6 20 -38 17 -109 -8z"/>
<path d="M5407 4514 c-4 -4 -7 -32 -7 -61 l0 -54 -47 3 c-37 2 -48 0 -48 -12
0 -11 13 -16 48 -18 l47 -3 0 -47 c0 -53 12 -78 30 -67 8 5 10 19 5 42 -10 56
0 70 55 78 64 9 65 25 0 25 l-49 0 -3 57 c-3 52 -14 73 -31 57z"/>
<path d="M10610 4446 l0 -55 -42 -3 c-30 -2 -43 -8 -43 -18 0 -11 11 -15 42
-14 l42 1 3 -49 c4 -63 22 -62 26 1 3 48 4 50 39 58 51 12 59 38 9 29 l-36 -7
0 56 c0 48 -2 55 -20 55 -18 0 -20 -7 -20 -54z"/>
<path d="M3617 4463 c-3 -5 -2 -15 3 -23 12 -20 235 -29 228 -9 -3 10 -30 16
-89 20 -46 4 -96 10 -110 14 -15 3 -29 3 -32 -2z"/>
<path d="M8120 4458 c-41 -5 -340 -12 -664 -16 -458 -5 -590 -10 -594 -19 -8
-26 1149 -12 1308 15 22 4 41 11 41 17 1 13 -5 13 -91 3z"/>
<path d="M6180 4452 c-6 -2 -10 -10 -10 -18 0 -11 17 -14 74 -14 81 0 136 8
136 21 0 7 -181 17 -200 11z"/>
<path d="M4895 4393 c-27 -1 -220 -7 -429 -12 -208 -6 -381 -13 -384 -16 -19
-19 38 -22 263 -14 138 4 372 11 520 14 287 6 339 10 330 26 -6 8 -174 10
-300 2z"/>
<path d="M3650 4357 c-44 -12 -55 -34 -15 -30 11 2 59 6 108 10 48 5 88 13 90
18 3 15 -130 16 -183 2z"/>
<path d="M6318 4365 c-2 -3 -36 -6 -74 -8 -58 -2 -69 -6 -72 -21 -4 -17 1 -18
59 -12 78 8 139 24 139 36 0 10 -43 14 -52 5z"/>
<path d="M3330 4277 c-30 -15 -43 -69 -29 -114 21 -66 103 -103 160 -73 25 14
49 62 49 97 0 75 -105 128 -180 90z m121 -43 c39 -35 11 -124 -39 -124 -26 0
-62 28 -73 57 -7 18 -5 34 8 60 15 32 19 35 51 29 19 -3 43 -13 53 -22z"/>
<path d="M7079 4280 c-77 -23 -101 -64 -103 -177 -1 -66 2 -78 17 -81 13 -3
17 3 17 28 0 27 2 29 18 21 25 -14 212 -45 219 -37 14 14 -17 27 -95 41 -125
22 -129 29 -42 68 33 16 67 39 76 52 40 61 -23 111 -107 85z m69 -29 c27 -17
7 -46 -53 -78 -33 -18 -62 -33 -65 -33 -9 0 2 74 12 88 10 11 57 29 83 31 6 0
16 -3 23 -8z"/>
<path d="M4265 4188 c-51 -29 -83 -102 -97 -219 -12 -103 -8 -132 17 -123 10
4 15 19 15 45 0 42 2 44 28 30 15 -8 94 -22 186 -34 10 -1 21 3 23 10 3 7 -18
16 -54 23 -128 26 -153 32 -153 39 0 4 23 18 51 31 67 32 109 80 109 126 0 65
-68 104 -125 72z m73 -30 c22 -22 14 -72 -15 -100 -39 -36 -113 -72 -113 -55
0 29 31 116 51 141 22 27 57 34 77 14z"/>
<path d="M4882 4108 c-11 -18 -32 -70 -47 -115 -14 -46 -30 -83 -35 -83 -9 0
-30 110 -30 159 0 28 -3 32 -22 29 -26 -3 -27 -24 -6 -128 16 -83 34 -112 66
-108 24 3 30 11 50 73 13 39 34 98 48 133 28 73 28 72 10 72 -8 0 -23 -15 -34
-32z"/>
<path d="M7853 4066 c-29 -40 -53 -81 -53 -90 0 -28 37 -18 50 14 22 53 28 42
24 -48 l-4 -87 -55 -3 c-38 -2 -55 -7 -52 -15 4 -13 212 -13 300 1 80 12 50
27 -47 24 -66 -3 -91 0 -97 10 -13 19 -10 84 6 158 30 136 7 148 -72 36z"/>
<path d="M4545 4101 c-3 -6 1 -31 10 -56 8 -25 15 -48 15 -50 0 -2 -24 -5 -52
-7 -39 -2 -53 -7 -53 -18 0 -12 12 -14 57 -12 l57 4 6 -36 c8 -38 37 -72 54
-61 7 4 5 14 -5 30 -24 36 -15 69 20 75 16 3 31 11 34 19 4 11 -4 13 -36 9
l-40 -6 -19 56 c-18 55 -35 73 -48 53z"/>
<path d="M7597 4053 c-4 -3 -7 -23 -7 -44 0 -38 0 -38 -37 -36 -52 3 -52 -25
-1 -37 30 -8 37 -14 42 -41 7 -36 40 -73 50 -56 4 6 2 19 -4 30 -5 11 -10 31
-10 45 0 24 4 26 39 26 48 0 71 8 71 24 0 9 -16 11 -55 8 l-55 -4 0 46 c0 43
-13 59 -33 39z"/>
<path d="M6964 3959 c-14 -24 15 -29 164 -29 136 0 198 8 182 23 -10 9 -340
15 -346 6z"/>
<path d="M7219 3868 c-9 -7 -31 -53 -49 -102 -38 -100 -38 -100 -86 9 -23 51
-34 65 -51 65 -13 0 -23 -6 -23 -14 0 -21 100 -187 116 -193 25 -9 42 16 84
124 39 101 42 138 9 111z"/>
<path d="M4050 3660 c-188 -26 -419 -93 -556 -161 -151 -74 -263 -208 -270
-322 -2 -23 -10 -71 -20 -107 -25 -98 -23 -301 5 -405 79 -296 292 -470 702
-575 276 -71 686 -100 917 -65 161 24 308 67 430 125 87 42 116 62 176 122 39
40 81 94 94 119 40 83 63 195 64 314 0 95 -3 121 -26 190 -43 125 -103 232
-175 308 -68 72 -204 178 -308 241 -146 87 -367 170 -538 201 -106 19 -400 28
-495 15z m522 -49 c200 -44 395 -126 563 -239 189 -127 270 -213 345 -367 65
-132 84 -213 76 -330 -7 -109 -37 -233 -72 -292 -35 -61 -121 -144 -186 -181
-135 -78 -361 -141 -578 -163 -243 -24 -643 25 -917 112 -334 106 -503 270
-569 554 -12 54 -15 102 -11 205 5 146 23 218 73 293 27 41 26 80 -1 57 -24
-20 -17 3 17 54 82 124 315 237 608 295 154 30 149 29 360 26 151 -3 217 -8
292 -24z"/>
<path d="M3820 3336 c-11 -33 -16 -214 -6 -223 13 -13 26 13 27 55 0 45 8 97
24 170 7 28 5 32 -13 32 -14 0 -24 -10 -32 -34z"/>
<path d="M4800 3109 c-86 -9 -150 -26 -150 -39 0 -14 23 -18 49 -8 13 5 100
16 192 25 93 9 169 20 169 25 0 10 -159 8 -260 -3z"/>
<path d="M3478 3101 c-136 -6 -176 -17 -152 -41 8 -8 19 -8 38 0 15 5 60 10
99 11 101 1 182 12 180 24 -2 13 -2 13 -165 6z"/>
<path d="M4877 3063 c-10 -17 -27 -162 -30 -255 l-2 -96 -29 -6 c-16 -3 -39
-6 -51 -6 -12 0 -28 -7 -35 -15 -24 -29 21 -29 136 -1 108 26 156 47 143 61
-4 3 -33 -1 -65 -9 -32 -8 -60 -13 -63 -10 -3 2 1 64 8 137 18 176 18 199 4
204 -6 2 -13 0 -16 -4z"/>
<path d="M3494 3045 c-4 -8 -5 -74 -2 -145 l4 -130 -57 0 c-38 0 -61 -5 -69
-15 -10 -12 -9 -16 3 -21 44 -16 284 23 307 51 15 18 -4 29 -28 16 -10 -5 -42
-13 -72 -17 l-53 -7 4 139 c4 126 2 139 -14 142 -9 2 -20 -4 -23 -13z"/>
<path d="M4420 2946 c-30 -18 -90 -52 -132 -76 -119 -67 -114 -83 33 -116 121
-27 142 -29 137 -11 -3 6 -51 24 -109 39 -57 14 -98 27 -90 27 8 1 55 27 105
60 50 32 106 66 124 75 33 17 35 36 4 36 -9 0 -42 -15 -72 -34z"/>
<path d="M3856 2858 c-13 -18 -34 -52 -46 -75 -12 -24 -28 -43 -35 -43 -20 0
-28 -19 -16 -34 8 -10 6 -25 -10 -60 -22 -50 -22 -81 0 -81 16 0 24 14 42 74
17 55 32 71 72 71 30 0 33 -3 50 -60 14 -47 21 -60 37 -60 24 0 24 -4 4 53
-21 62 -15 75 37 79 23 2 44 9 47 16 3 9 -9 11 -52 6 l-56 -7 0 61 c0 33 -3
67 -6 76 -10 26 -41 18 -68 -16z m34 -68 c0 -49 -1 -50 -30 -50 -16 0 -30 3
-30 7 0 9 50 93 55 93 3 0 5 -22 5 -50z"/>
<path d="M5190 2768 c-83 -134 -78 -128 -116 -128 -28 0 -35 -3 -32 -17 3 -12
12 -17 26 -16 28 3 28 0 -9 -59 -16 -28 -29 -57 -27 -67 7 -35 33 -13 72 62
38 72 42 77 73 77 33 0 33 0 33 -48 0 -26 5 -53 12 -60 16 -16 41 -15 35 2 -3
7 -8 34 -12 59 l-7 46 51 7 c63 8 67 24 5 24 l-46 0 7 85 c7 81 6 85 -13 85
-13 0 -31 -17 -52 -52z m20 -78 c0 -36 -2 -40 -26 -40 l-25 0 22 40 c13 22 24
40 26 40 2 0 3 -18 3 -40z"/>
<path d="M2885 2981 c-3 -5 9 -21 27 -36 l33 -27 -156 6 c-123 4 -159 3 -168
-8 -6 -7 -8 -16 -4 -20 4 -4 94 -6 200 -6 191 2 193 1 242 -25 27 -15 52 -33
55 -40 5 -15 -44 -41 -93 -51 -18 -4 -31 -13 -31 -21 0 -18 48 -12 112 14 81
32 72 74 -30 129 -37 20 -86 49 -110 65 -44 30 -67 36 -77 20z"/>
<path d="M2919 2855 c-3 -2 -48 -9 -100 -15 -147 -16 -169 -20 -169 -36 0 -17
-2 -18 158 6 138 20 156 25 147 41 -6 9 -28 12 -36 4z"/>
<path d="M2540 1881 c0 -13 8 -21 22 -23 17 -2 32 -21 57 -70 29 -58 34 -79
39 -163 4 -73 1 -111 -13 -161 -27 -100 -102 -203 -181 -250 -32 -19 -8 -27
28 -10 51 24 123 103 156 171 78 158 61 389 -35 493 -35 36 -73 43 -73 13z"/>
<path d="M6293 1820 c-30 -12 -29 -28 1 -39 46 -18 56 -113 31 -316 -29 -238
-16 -377 41 -444 l25 -31 -3 -267 c-3 -226 -6 -274 -20 -306 -20 -45 -42 -55
-67 -33 -23 21 -37 5 -21 -24 16 -29 65 -26 94 5 43 46 50 101 51 367 l1 246
24 20 c15 12 21 25 17 35 -7 20 -53 23 -60 5 -7 -20 -33 19 -49 72 -17 58 -14
229 6 380 19 140 19 186 -2 270 -18 68 -28 77 -69 60z"/>
<path d="M8290 1789 c-279 -34 -580 -117 -685 -189 -92 -63 -118 -114 -144
-278 -19 -126 -15 -181 20 -252 63 -125 252 -280 472 -385 207 -100 410 -139
722 -139 236 0 388 22 575 84 299 98 478 220 551 374 54 113 48 198 -23 345
-92 191 -287 322 -583 391 -179 41 -284 52 -560 55 -148 2 -304 -1 -345 -6z
m670 -35 c150 -19 316 -60 425 -103 182 -73 286 -165 362 -318 47 -94 48 -99
48 -187 0 -82 -3 -96 -30 -146 -68 -123 -197 -219 -412 -305 -137 -55 -264
-89 -415 -111 -140 -20 -475 -15 -608 9 -287 54 -531 176 -712 357 -116 115
-143 171 -135 279 5 83 38 177 88 257 22 34 27 49 18 54 -21 13 89 76 199 114
116 40 340 89 482 105 52 6 111 13 130 15 74 9 441 -4 560 -20z"/>
<path d="M8087 1583 c-9 -8 -9 -160 -1 -202 4 -17 13 -31 20 -31 11 0 14 17
14 68 0 37 3 91 6 120 6 47 5 52 -13 52 -11 0 -23 -3 -26 -7z"/>
<path d="M7716 1342 c-8 -13 14 -212 29 -268 18 -62 44 -89 79 -80 28 7 48 40
76 120 l17 50 12 -48 c14 -56 50 -96 86 -96 37 0 100 35 124 69 30 42 8 49
-34 12 -94 -82 -143 -40 -145 124 -1 142 -34 144 -68 3 -24 -97 -64 -198 -80
-198 -25 0 -51 131 -52 258 0 55 -2 62 -19 62 -11 0 -22 -4 -25 -8z"/>
<path d="M9033 1295 c-7 -20 3 -254 13 -279 8 -21 47 -31 72 -17 10 5 35 41
55 78 l36 68 1 -53 c0 -43 5 -58 25 -77 13 -14 33 -25 43 -25 24 0 89 26 96
39 12 19 -14 22 -45 5 -25 -13 -37 -14 -56 -5 -24 11 -25 14 -23 119 1 59 2
113 1 120 -2 22 -31 13 -41 -14 -59 -154 -108 -240 -127 -221 -4 5 -8 68 -8
140 0 118 -2 132 -18 135 -9 2 -20 -4 -24 -13z"/>
<path d="M8674 1229 c-8 -14 2 -22 51 -38 22 -8 63 -24 90 -36 l50 -22 -50
-26 c-73 -37 -92 -53 -79 -66 7 -8 32 1 87 31 105 56 103 67 -19 124 -100 46
-119 51 -130 33z"/>
<path d="M9456 1122 c-6 -10 29 -205 39 -222 3 -6 15 -10 25 -10 22 0 42 34
60 100 7 25 21 63 31 84 24 49 24 56 0 56 -19 0 -43 -45 -71 -133 -6 -21 -14
-36 -17 -34 -2 3 -9 40 -16 83 -9 59 -16 80 -29 82 -9 2 -19 -1 -22 -6z"/>
<path d="M8410 1073 c-7 -16 -23 -59 -35 -97 -12 -38 -25 -65 -27 -60 -3 5
-15 39 -27 77 -17 49 -27 67 -40 67 -10 0 -20 -2 -23 -5 -5 -5 61 -189 76
-214 11 -17 34 -13 45 7 5 9 19 53 31 97 12 44 30 95 41 113 24 42 24 42 -4
42 -16 0 -28 -9 -37 -27z"/>
<path d="M4424 1752 c-14 -9 -44 -215 -44 -297 0 -69 10 -85 55 -85 36 0 65
26 119 110 l36 55 0 -48 c0 -111 115 -130 196 -34 35 42 16 45 -37 8 -47 -34
-103 -42 -113 -15 -13 33 -5 112 19 198 13 49 22 93 19 98 -12 19 -36 6 -46
-24 -42 -123 -163 -318 -197 -318 -17 0 -13 114 9 234 22 120 19 142 -16 118z"/>
<path d="M3172 1733 c-14 -27 -40 -150 -48 -225 -17 -164 85 -156 184 13 31
54 32 54 32 21 0 -67 54 -142 101 -142 26 0 24 8 -6 32 -47 37 -58 72 -54 181
3 68 0 101 -7 104 -6 2 -34 -43 -62 -99 -75 -155 -152 -231 -152 -150 0 46 39
217 50 220 16 6 12 49 -6 56 -22 8 -22 8 -32 -11z"/>
<path d="M5316 1733 c-15 -49 -46 -226 -46 -260 0 -49 23 -83 56 -83 38 0 59
15 91 64 l30 45 22 -29 c36 -50 124 -80 191 -65 47 10 35 22 -28 28 -32 2 -73
12 -91 21 -49 26 -57 54 -42 143 8 50 9 79 3 85 -16 16 -29 2 -42 -49 -24 -98
-111 -226 -141 -208 -16 11 -6 117 21 223 11 46 18 87 15 92 -10 16 -33 11
-39 -7z"/>
<path d="M2400 1675 c-16 -19 -1 -25 59 -25 56 0 92 -12 78 -27 -4 -4 -29 -19
-54 -33 -74 -40 -69 -52 35 -79 23 -7 42 -16 42 -22 0 -15 -60 -48 -117 -65
-32 -9 -53 -21 -53 -30 0 -8 6 -14 13 -14 27 0 133 41 169 65 59 39 49 68 -32
95 -42 14 -49 19 -32 24 34 11 72 46 72 66 0 11 -10 26 -22 34 -30 18 -145 26
-158 11z"/>
<path d="M3802 1571 c3 -14 21 -16 147 -14 147 2 191 7 191 22 0 4 -77 8 -171
9 -153 0 -170 -2 -167 -17z"/>
<path d="M4985 1571 c-80 -5 -100 -9 -100 -21 0 -12 14 -15 65 -14 97 1 160
13 160 30 0 8 -6 13 -12 12 -7 -1 -58 -4 -113 -7z"/>
<path d="M5791 1520 c-10 -17 -29 -67 -42 -110 -18 -59 -28 -80 -41 -80 -25 0
-33 -21 -14 -36 16 -11 16 -17 6 -50 -10 -29 -10 -38 1 -45 19 -11 36 6 50 49
17 53 27 62 68 62 36 0 38 -2 52 -47 13 -45 41 -75 55 -61 4 4 -1 23 -10 42
-27 57 -22 68 27 64 23 -2 43 2 45 7 2 6 -3 11 -10 12 -7 1 -29 4 -49 8 l-36
5 -7 80 c-3 44 -12 91 -18 105 -16 36 -53 33 -77 -5z m57 -103 l8 -77 -33 0
c-38 0 -38 3 -18 75 9 29 15 57 14 61 -4 23 2 37 11 28 5 -5 13 -44 18 -87z"/>
<path d="M3625 1484 c-9 -14 -27 -53 -39 -86 -25 -65 -28 -65 -46 0 -11 43
-36 65 -49 44 -4 -6 7 -54 24 -107 40 -129 55 -128 100 12 19 56 41 113 49
126 9 13 13 27 9 30 -13 14 -31 6 -48 -19z"/>
<path d="M3912 1481 c-44 -8 -71 -24 -54 -35 5 -3 36 -1 68 4 32 6 93 7 135 4
50 -4 78 -3 83 4 3 6 3 13 -1 15 -16 9 -189 15 -231 8z"/>
<path d="M7185 1210 c-16 -26 9 -53 84 -87 106 -48 121 -55 121 -63 0 -5 -84
-50 -95 -50 -3 0 -5 9 -5 20 0 24 -25 27 -34 4 -10 -25 -7 -74 4 -74 23 0 160
65 165 78 13 34 -8 54 -100 97 -71 33 -93 47 -92 61 2 21 -37 32 -48 14z"/>
<path d="M7050 1110 c-69 -10 -158 -19 -198 -19 -57 -1 -74 -4 -79 -17 -3 -9
-1 -19 6 -23 23 -15 436 46 436 64 0 15 -30 15 -165 -5z"/>
<path d="M7060 1020 c-171 -43 -229 -65 -213 -81 8 -8 25 -6 60 7 26 10 108
35 181 54 74 19 134 39 134 45 -1 15 -10 14 -162 -25z"/>
<path d="M3561 1002 c-29 -54 -42 -252 -17 -252 11 0 16 21 21 78 4 42 14 97
21 122 8 25 14 51 14 58 0 18 -28 15 -39 -6z"/>
<path d="M3235 826 c-16 -39 -45 -192 -45 -240 0 -46 25 -76 63 -76 24 0 43
11 84 52 l53 52 0 -45 c0 -51 21 -79 59 -79 31 0 81 28 81 45 0 19 -6 19 -40
-1 -67 -40 -77 16 -30 158 28 84 31 108 11 108 -5 0 -29 -35 -54 -77 -51 -88
-141 -186 -166 -181 -34 7 -13 188 34 301 5 13 2 17 -14 17 -16 0 -26 -10 -36
-34z"/>
<path d="M4425 808 c-36 -101 -55 -277 -33 -318 27 -50 79 -39 155 33 l56 52
-7 -32 c-11 -47 1 -73 40 -89 40 -17 70 -11 137 24 78 41 57 58 -27 21 -26
-11 -59 -19 -74 -17 -26 3 -27 6 -27 55 1 40 9 69 38 124 20 39 34 76 31 80
-12 20 -33 5 -74 -53 -55 -78 -136 -166 -171 -184 -23 -12 -29 -11 -39 2 -16
18 -8 133 16 219 9 33 17 67 18 75 1 18 -32 26 -39 8z"/>
<path d="M3894 689 c-3 -5 -2 -13 1 -19 8 -14 265 -13 265 0 0 6 -6 12 -12 15
-30 9 -248 13 -254 4z"/>
<path d="M3747 603 c-8 -16 -29 -69 -47 -120 -19 -50 -37 -90 -41 -88 -3 3
-17 41 -30 86 -23 78 -40 102 -60 82 -12 -12 47 -186 71 -208 38 -34 50 -17
113 150 19 50 37 98 42 108 13 30 -33 21 -48 -10z"/>
<path d="M4023 576 c-107 -12 -122 -17 -101 -34 9 -7 43 -6 113 4 113 16 135
22 135 35 0 10 -8 10 -147 -5z"/>
</g>
</svg>
