<svg xmlns="http://www.w3.org/2000/svg" version="1.0" width="489.583888pt" height="299.592290pt" viewBox="0 -20 489.583888 299.592290" preserveAspectRatio="xMidYMid meet">
<metadata>
Created by potrace 1.16, written by Peter Selinger 2001-2019
</metadata>
<g transform="translate(-63.346211,545.787200) scale(0.100000,-0.100000)" fill="#000000" stroke="none">
<path d="M2532 5435 c3 -27 2 -28 -147 -67 -82 -21 -345 -91 -584 -154 -380 -101 -434 -113 -445 -100 -9 13 -18 10 -64 -26 -58 -45 -56 -51 15 -62 23 -3 49 -9 58 -12 13 -5 16 -1 13 21 -3 28 -3 28 147 67 83 21 345 91 584 154 385 102 434 113 445 99 10 -14 15 -12 46 14 19 17 40 30 46 31 7 0 14 7 18 15 3 10 -3 16 -19 20 -14 3 -37 7 -52 10 -16 3 -36 8 -46 11 -15 5 -17 1 -15 -21z" />
<path d="M2664 5364 c3 -11 17 -61 30 -113 25 -91 47 -138 45 -95 -1 42 -55 218 -68 222 -9 3 -11 -2 -7 -14z" />
<path d="M2754 5033 c13 -61 54 -204 60 -210 18 -18 14 15 -14 116 -16 61 -30 114 -30 116 0 3 -5 5 -11 5 -7 0 -9 -10 -5 -27z" />
<path d="M1268 4995 c-6 -6 49 -225 58 -234 2 -2 7 -1 11 2 6 7 -45 216 -57 230 -3 4 -9 5 -12 2z" />
<path d="M2898 4978 c-53 -23 -59 -33 -25 -42 13 -3 40 -16 59 -30 l36 -24 6 24 c8 29 29 31 56 4 25 -25 25 -41 1 -72 -46 -58 -271 -146 -398 -155 -64 -5 -73 -4 -80 12 -5 13 2 26 25 45 28 23 42 50 26 50 -30 0 -94 -58 -94 -85 0 -58 88 -71 238 -35 46 11 87 20 91 20 4 0 18 -43 31 -95 13 -52 28 -95 32 -95 13 0 9 30 -16 119 l-23 85 66 31 c80 39 124 75 141 115 11 28 11 34 -7 58 -11 15 -34 31 -52 37 -26 8 -32 14 -28 32 5 29 -19 29 -85 1z" />
<path d="M5430 4807 c-14 -13 -292 -89 -1770 -483 -360 -96 -668 -179 -685 -184 -134 -42 -1160 -309 -1165 -303 -4 4 -22 66 -40 137 -20 74 -39 130 -47 133 -8 3 -78 -11 -156 -32 -78 -21 -168 -44 -199 -52 -71 -19 -71 -18 -24 -190 18 -68 32 -123 30 -123 -2 0 -155 -40 -340 -90 -185 -49 -350 -90 -366 -90 -16 0 -31 -6 -34 -14 -3 -8 8 -63 23 -123 l29 -108 30 4 c16 2 536 6 1157 8 732 2 1127 7 1127 13 0 6 -111 10 -304 10 l-305 0 0 85 c0 121 -25 201 -85 272 l-24 29 366 98 c202 54 371 99 376 100 9 1 29 -71 265 -948 72 -269 133 -491 135 -493 6 -6 56 16 56 24 0 5 -5 24 -10 43 -13 43 -214 795 -305 1138 -37 139 -66 254 -64 256 4 3 250 69 1839 493 322 86 587 158 589 159 6 5 -51 217 -62 232 -12 15 -19 15 -37 -1z m29 -128 c12 -45 20 -83 19 -84 -2 -1 -259 -71 -573 -155 -313 -84 -849 -228 -1190 -320 -454 -122 -622 -163 -627 -154 -12 18 -35 127 -31 144 3 11 228 75 826 234 452 121 984 264 1182 317 198 54 363 98 366 98 3 1 16 -36 28 -80z m-2481 -592 c12 -13 47 -145 41 -151 -2 -2 -294 -81 -649 -176 -355 -95 -870 -232 -1144 -306 -275 -74 -500 -133 -501 -131 -9 11 -42 158 -37 161 11 6 194 56 942 257 393 105 852 229 1020 274 168 46 308 84 311 84 4 1 11 -5 17 -12z m-1250 -134 c17 -65 29 -119 27 -121 -10 -10 -331 -90 -337 -84 -3 4 -19 57 -36 119 l-29 112 80 21 c43 12 83 18 87 13 4 -4 17 -48 30 -98 23 -90 40 -128 40 -89 0 11 -11 61 -24 112 l-24 92 37 9 c20 6 52 14 71 19 19 6 38 11 41 11 3 1 20 -52 37 -116z m613 -391 c16 -42 22 -80 23 -144 0 -48 -2 -90 -5 -93 -3 -3 -341 -4 -752 -3 l-746 3 692 186 692 186 37 -39 c20 -22 47 -65 59 -96z" />
<path d="M1350 4664 c0 -16 55 -210 62 -218 18 -22 16 6 -8 95 -33 127 -34 129 -45 129 -5 0 -9 -3 -9 -6z" />
<path d="M2922 4399 c3 -8 18 -62 33 -121 15 -60 32 -108 37 -108 13 0 9 27 -21 134 -15 56 -33 102 -40 104 -9 3 -12 0 -9 -9z" />
<path d="M1440 4339 c0 -26 55 -219 62 -219 4 0 8 6 8 13 0 27 -54 217 -62 217 -4 0 -8 -5 -8 -11z" />
</g>
<g><path d="M 199.12 187.72 L 199.12 187.72 L 199.36 187.72 Q 200.08 186.04 201 184.5 Q 201.92 182.96 202.48 182.2 L 205.8 182.12 L 205.84 182.72 Q 205.64 182.96 205.26 183.4 Q 204.88 183.84 204.68 184.16 Q 202.4 187.32 201.04 189.22 Q 199.68 191.12 199.68 191.24 Q 199.68 191.36 199.68 191.68 Q 199.68 192.76 199.72 193.94 Q 199.76 195.12 199.94 196.14 Q 200.12 197.16 200.56 197.8 Q 201 198.44 201.8 198.44 Q 202.72 198.44 203.34 197.98 Q 203.96 197.52 204.52 196.88 L 205.16 197.52 Q 204.88 198 204.24 198.94 Q 203.6 199.88 202.52 200.66 Q 201.44 201.44 199.8 201.44 Q 198.4 201.44 197.82 200.48 Q 197.24 199.52 197.24 198.04 Q 197.24 197.32 197.36 196.48 Q 197.48 195.64 197.56 194.64 L 197.24 194.64 Q 196.08 196.52 194.78 198.1 Q 193.48 199.68 192.12 200.62 Q 190.76 201.56 189.28 201.56 Q 186.84 201.56 185.76 199.58 Q 184.68 197.6 184.68 194.16 Q 184.68 190.48 185.9 187.7 Q 187.12 184.92 189.24 183.38 Q 191.36 181.84 194.12 181.84 Q 195.56 181.84 196.48 182.44 Q 197.4 183.04 197.94 183.94 Q 198.48 184.84 198.74 185.86 Q 199 186.88 199.12 187.72 Z M 190.16 198.04 L 190.16 198.04 Q 191.68 198.04 193 197.22 Q 194.32 196.4 195.34 195.14 Q 196.36 193.88 196.98 192.54 Q 197.6 191.2 197.72 190.16 Q 197.76 189.96 197.78 189.6 Q 197.8 189.24 197.8 188.76 Q 197.8 185.16 193.92 185.16 Q 190.68 185.16 188.6 187.18 Q 186.52 189.2 186.52 193.24 Q 186.52 195.84 187.66 196.94 Q 188.8 198.04 190.16 198.04 Z " fill="black" /></g><g><path d="M 242.8 34.4 L 242.8 34.4 Q 242.8 35.4 243.44 36.2 Q 244.08 37 245.84 37 Q 248.12 37 249.56 35.9 Q 251 34.8 251.66 32.92 Q 252.32 31.04 252.32 28.64 Q 252.32 26.72 251.86 25.26 Q 251.4 23.8 250.82 22.86 Q 250.24 21.92 249.88 21.6 L 250.24 21.08 Q 251.04 21.16 252.12 22.06 Q 253.2 22.96 254.04 24.72 Q 254.88 26.48 254.88 29.24 Q 254.88 31.2 254.36 33.2 Q 253.84 35.2 252.76 36.82 Q 251.68 38.44 249.98 39.44 Q 248.28 40.44 245.88 40.44 Q 244.16 40.44 243.12 39.34 Q 242.08 38.24 241.56 36.16 L 241.4 36.16 Q 240.4 37.84 239 39.14 Q 237.6 40.44 235.68 40.44 Q 233.24 40.44 232.24 38.38 Q 231.24 36.32 231.24 33.04 Q 231.24 31.08 231.72 29.12 Q 232.2 27.16 233.32 25.48 Q 234.44 23.8 236.36 22.6 Q 238.28 21.4 241.2 20.92 Q 241.68 21.48 241.68 22.24 Q 241.68 22.92 241.28 23.5 Q 240.88 24.08 240.2 24.24 Q 236.92 24.84 234.96 27.02 Q 233 29.2 233 32.4 Q 233 34.88 234.08 35.86 Q 235.16 36.84 236.72 36.84 Q 238 36.84 238.88 36.42 Q 239.76 36 240.32 35.48 Q 240.88 34.96 241.16 34.56 Q 241.12 34.28 241.12 34 Q 241.12 33.72 241.12 33.48 Q 241.12 32.64 241.34 31.32 Q 241.56 30 241.98 28.62 Q 242.4 27.24 243.04 26.24 Q 243.2 26 243.68 25.86 Q 244.16 25.72 244.64 25.72 Q 245.28 25.72 245.76 25.98 Q 246.24 26.24 246.24 26.48 Q 246.08 28.04 245.08 30.2 Q 244.08 32.36 242.8 34.4 Z " fill="black" /></g><g transform=" rotate(-14.65 118 18.9)"><g><path d="M 141.52 -1.86 L 141.52 -1.86 Q 141.52 0.26 140.72 1.7 Q 139.92 3.14 138.64 4.06 Q 137.36 4.98 135.9 5.48 Q 134.44 5.98 133.12 6.22 L 133.12 6.42 Q 133.84 6.9 134.48 7.88 Q 135.12 8.86 136.06 10.7 Q 137 12.54 138.64 15.66 Q 139.32 16.86 140.14 17.28 Q 140.96 17.7 142.32 17.7 L 142.08 18.9 L 136 18.9 Q 134.88 16.42 134.12 14.76 Q 133.36 13.1 132.8 11.98 Q 132.24 10.86 131.82 9.98 Q 131.4 9.1 130.92 8.18 Q 130.48 7.34 129.96 7.08 Q 129.44 6.82 128.36 6.82 L 127.52 6.82 L 126.04 13.94 Q 125.72 15.58 125.82 16.4 Q 125.92 17.22 126.72 17.46 Q 127.52 17.7 129.24 17.7 L 129.04 18.9 L 118 18.9 L 118.24 17.7 Q 119.72 17.7 120.52 17.46 Q 121.32 17.22 121.74 16.42 Q 122.16 15.62 122.48 13.94 L 126 -3.22 Q 126.24 -4.34 126.12 -4.98 Q 126 -5.62 125.3 -5.9 Q 124.6 -6.18 123 -6.18 L 123.24 -7.38 L 132.64 -7.38 Q 136.84 -7.38 139.18 -6.08 Q 141.52 -4.78 141.52 -1.86 Z M 130.04 -5.7 L 130.04 -5.7 L 127.8 5.34 L 129.04 5.38 Q 131.44 5.3 133.38 4.6 Q 135.32 3.9 136.44 2.38 Q 137.56 0.86 137.56 -1.7 Q 137.56 -2.78 137.1 -3.72 Q 136.64 -4.66 135.52 -5.24 Q 134.4 -5.82 132.4 -5.82 Q 131.64 -5.82 131.18 -5.8 Q 130.72 -5.78 130.04 -5.7 Z " fill="black" /></g></g></svg>
