<?xml version="1.0" standalone="no"?>
<!DOCTYPE svg PUBLIC "-//W3C//DTD SVG 20010904//EN"
 "http://www.w3.org/TR/2001/REC-SVG-20010904/DTD/svg10.dtd">
<svg version="1.0" xmlns="http://www.w3.org/2000/svg"
 width="423.752498pt" height="144.000000pt" viewBox="0 0 423.752498 144.000000"
 preserveAspectRatio="xMidYMid meet">
<metadata>
Created by potrace 1.16, written by Peter Selinger 2001-2019
</metadata>
<g transform="translate(-222.253738,263.000000) scale(0.100000,-0.100000)"
fill="#000000" stroke="none">
<path d="M6000 2613 c-39 -26 -49 -45 -50 -85 0 -53 18 -85 60 -106 l37 -18
-109 -29 c-59 -15 -111 -25 -115 -21 -3 3 -2 6 4 6 15 0 33 47 33 86 0 52 -53
104 -107 104 -38 0 -76 -19 -100 -50 -15 -19 -17 -81 -2 -113 12 -26 57 -57
86 -58 18 -1 -32 -15 -572 -161 -165 -44 -307 -83 -315 -85 -12 -4 -12 -2 1 9
25 21 39 54 39 93 0 53 -53 105 -107 105 -38 0 -76 -19 -100 -50 -15 -19 -17
-81 -2 -113 12 -26 57 -57 85 -57 34 0 8 -9 -146 -49 -85 -22 -423 -112 -750
-201 -561 -150 -641 -170 -614 -152 20 13 34 50 34 87 0 53 -53 105 -107 105
-65 0 -112 -43 -113 -103 0 -61 27 -99 83 -114 22 -7 -65 -33 -420 -127 -247
-66 -463 -123 -481 -128 -26 -7 -33 -14 -28 -26 3 -9 15 -52 27 -95 l22 -77
2094 0 2093 0 0 575 c0 784 9 752 -204 695 -65 -17 -121 -28 -124 -25 -3 3 -1
5 5 5 15 0 33 47 33 86 0 52 -53 104 -107 104 -21 0 -50 -8 -63 -17z m106 -36
c51 -44 20 -137 -46 -137 -36 0 -73 41 -73 82 0 35 40 78 73 78 10 0 31 -11
46 -23z m-310 -80 c51 -44 20 -137 -46 -137 -36 0 -73 41 -73 82 0 35 40 78
73 78 10 0 31 -11 46 -23z m595 -108 l16 -56 -118 -32 c-66 -17 -125 -31 -132
-31 -12 0 -45 106 -35 115 7 7 224 64 237 62 9 -1 22 -26 32 -58z m-300 -79
c9 -33 13 -60 10 -60 -3 0 -63 -15 -133 -34 l-128 -34 -9 36 c-25 96 -36 83
96 119 65 17 125 32 133 32 11 1 20 -18 31 -59z m329 -545 l0 -535 -1987 0
c-1092 0 -1984 2 -1982 4 2 2 594 162 1314 355 721 193 1609 431 1975 530 366
98 668 179 673 180 4 0 7 -240 7 -534z m-637 465 l15 -60 -42 -11 c-22 -6 -87
-23 -144 -38 l-102 -28 -15 50 c-8 28 -15 56 -15 62 0 9 235 80 276 84 6 1 18
-26 27 -59z m-957 7 c51 -44 20 -137 -46 -137 -36 0 -73 41 -73 82 0 35 40 78
73 78 10 0 31 -11 46 -23z m625 -96 l15 -60 -80 -21 c-45 -12 -103 -28 -130
-36 -27 -7 -52 -11 -56 -9 -12 7 -33 105 -25 113 7 7 220 69 245 71 11 1 20
-17 31 -58z m-311 -84 c8 -28 9 -52 4 -56 -5 -5 -67 -25 -139 -44 -96 -27
-131 -33 -137 -24 -9 15 -31 107 -27 111 10 9 275 73 280 67 3 -3 12 -28 19
-54z m-327 -87 l15 -60 -52 -15 c-28 -7 -92 -25 -142 -38 l-91 -25 -15 63 -15
63 126 35 c69 19 133 35 142 36 12 1 21 -15 32 -59z m-326 -89 c8 -29 12 -55
9 -58 -8 -9 -259 -72 -267 -67 -9 5 -34 112 -28 117 11 9 236 65 253 64 15 -2
23 -15 33 -56z m-321 -72 c23 -74 26 -71 -118 -109 -72 -19 -136 -35 -142 -35
-10 0 -43 112 -35 119 8 6 264 74 273 72 5 -1 15 -22 22 -47z m-940 -2 c51
-44 20 -137 -46 -137 -36 0 -73 41 -73 82 0 35 40 78 73 78 10 0 31 -11 46
-23z m614 -92 c8 -34 10 -59 4 -64 -8 -8 -232 -71 -251 -71 -5 0 -16 27 -25
60 l-16 60 42 11 c22 6 77 22 121 34 114 32 110 33 125 -30z m-305 -116 l7
-35 -124 -33 c-68 -18 -130 -34 -138 -37 -12 -3 -20 11 -32 58 -10 34 -16 63
-15 63 1 1 63 18 137 37 l135 35 12 -26 c6 -15 14 -43 18 -62z m-327 -59 l19
-60 -41 -11 c-23 -6 -80 -21 -128 -35 -48 -13 -92 -24 -97 -24 -12 0 -46 108
-37 117 6 6 233 71 253 72 6 1 20 -26 31 -59z m-316 -82 c10 -34 16 -63 15
-64 -10 -6 -280 -74 -284 -71 -8 9 -32 111 -27 117 4 4 249 75 274 79 3 1 13
-27 22 -61z m-329 -85 c9 -32 13 -60 9 -64 -7 -8 -237 -69 -256 -69 -7 0 -19
26 -27 58 l-16 58 131 36 c72 20 134 37 137 37 3 1 14 -25 22 -56z"/>
<path d="M6092 2132 c5 -16 -7 -22 -77 -40 -98 -26 -95 -26 -95 -7 0 25 -24
17 -60 -20 -39 -40 -34 -50 27 -59 41 -6 69 8 44 23 -6 4 30 18 81 31 66 17
93 20 96 12 6 -20 34 -13 64 15 47 45 34 63 -44 63 -34 0 -40 -3 -36 -18z"/>
<path d="M5645 1900 c-12 -19 6 -29 41 -23 33 6 36 4 32 -18 -1 -13 -13 -28
-25 -34 -35 -15 -29 -37 10 -33 31 3 32 2 35 -39 3 -36 -1 -44 -23 -59 -22
-14 -29 -15 -50 -4 -29 16 -43 7 -25 -15 7 -8 27 -15 45 -15 72 0 119 83 77
139 -13 19 -17 32 -11 42 13 20 11 27 -11 49 -21 21 -84 28 -95 10z"/>
<path d="M5816 1891 c-15 -16 -19 -35 -17 -88 2 -107 9 -132 43 -149 38 -20
84 -10 105 23 27 40 24 163 -3 200 -28 37 -100 45 -128 14z m90 -22 c25 -28
28 -174 4 -189 -21 -13 -33 -12 -55 4 -27 19 -35 165 -10 189 22 22 38 21 61
-4z"/>
<path d="M6061 1824 c-44 -32 -68 -138 -38 -177 20 -27 97 -28 97 -1 0 12 -7
15 -26 11 -29 -5 -54 15 -54 44 0 36 32 99 50 99 20 0 43 23 33 33 -11 12 -38
8 -62 -9z"/>
<path d="M6195 1803 c-40 -102 -56 -156 -47 -165 16 -16 29 -2 37 38 3 20 11
48 17 63 10 25 11 23 28 -34 11 -39 22 -61 33 -63 19 -4 23 4 33 73 l7 50 21
-65 c15 -45 27 -66 40 -68 12 -3 17 1 13 10 -3 7 -15 50 -28 96 -28 97 -44
103 -70 27 -18 -51 -21 -50 -37 15 -9 38 -35 51 -47 23z"/>
</g>
</svg>
