<svg xmlns="http://www.w3.org/2000/svg" version="1.0" width="1247.522549pt" height="1087.983231pt" viewBox="0 0 1247.522549 1087.983231" preserveAspectRatio="xMidYMid meet">
<metadata>
Created by potrace 1.16, written by Peter Selinger 2001-2019
</metadata>
<g transform="translate(-79.186611,1137.983231) scale(0.100000,-0.100000)" fill="#000000" stroke="none">
<path d="M1141 11324 c-24 -55 -49 -78 -77 -72 -12 2 -11 10 6 43 21 42 20 65 -3 65 -9 0 -24 -26 -37 -60 l-22 -59 -77 -3 c-60 -2 -76 -6 -76 -18 0 -12 13 -14 73 -12 59 2 72 0 72 -12 0 -16 -31 -27 -65 -23 -12 1 -20 -4 -20 -13 0 -10 12 -16 36 -18 l37 -3 -9 -37 c-13 -57 -11 -112 4 -112 9 0 17 26 25 77 12 73 22 92 49 93 8 0 7 -13 -3 -46 -7 -26 -11 -51 -8 -56 12 -19 27 0 43 52 l16 53 69 16 c39 9 71 22 74 30 4 11 -1 12 -19 7 -13 -3 -44 -9 -68 -13 -42 -6 -43 -5 -32 15 7 12 19 22 29 22 32 0 92 21 92 32 0 7 -16 8 -45 4 -25 -4 -45 -5 -45 -1 0 3 9 23 20 45 25 48 25 60 3 60 -12 0 -26 -19 -42 -56z m-51 -114 c-6 -11 -15 -20 -20 -20 -4 0 -15 -3 -23 -6 -12 -4 -14 0 -10 15 4 17 14 22 56 30 4 0 3 -8 -3 -19z"/>
<path d="M1707 11288 c-13 -29 -41 -75 -61 -101 -21 -27 -35 -55 -32 -63 8 -20 53 -17 128 6 34 11 66 20 69 20 4 0 -4 -37 -17 -82 -16 -55 -21 -85 -14 -92 16 -16 26 2 55 103 28 99 47 144 73 174 11 13 13 20 4 29 -18 18 -41 1 -64 -49 -21 -43 -28 -48 -79 -64 -121 -35 -115 -38 -64 38 50 75 68 133 42 133 -9 0 -26 -22 -40 -52z"/>
<path d="M1385 11300 c-12 -20 5 -27 58 -22 97 8 87 -24 -35 -116 -95 -71 -115 -96 -97 -118 6 -8 24 -14 40 -14 31 0 216 63 233 80 24 24 -10 20 -111 -14 -166 -55 -169 -51 -27 55 105 79 123 109 84 141 -25 20 -134 26 -145 8z"/>
<path d="M2060 11290 c-19 -36 -50 -172 -50 -222 0 -36 4 -48 15 -48 8 0 15 9 15 20 0 41 32 176 50 214 11 22 17 43 14 48 -9 15 -33 8 -44 -12z"/>
<path d="M6103 11254 c-9 -23 12 -40 31 -25 15 13 82 6 91 -9 3 -5 -10 -21 -30 -36 -46 -35 -45 -52 5 -60 47 -8 80 -28 65 -42 -19 -18 -76 -31 -105 -25 -26 5 -30 2 -30 -16 0 -17 6 -21 33 -21 44 0 108 19 130 38 34 30 12 73 -46 87 l-28 8 26 27 c22 23 25 32 16 48 -21 39 -145 59 -158 26z"/>
<path d="M6492 11243 c-10 -16 -35 -58 -56 -95 -20 -38 -39 -68 -41 -68 -2 0 -14 27 -26 60 -16 46 -26 60 -41 60 -17 0 -19 -4 -13 -27 16 -67 48 -123 71 -129 33 -8 50 8 91 90 19 39 42 79 50 88 16 18 12 48 -6 48 -5 0 -18 -12 -29 -27z"/>
<path d="M10550 11194 c0 -9 7 -91 15 -183 17 -184 21 -421 18 -951 l-3 -355 -457 3 c-252 1 -615 -1 -808 -5 l-350 -8 3 615 c1 341 7 657 13 710 5 52 11 104 12 115 3 25 -28 32 -38 8 -5 -10 -12 -371 -18 -803 -12 -1088 -12 -1217 3 -1270 8 -32 9 -45 1 -48 -23 -8 -9 -32 26 -47 34 -14 39 -14 49 0 14 18 177 20 344 4 58 -6 330 -15 605 -20 275 -4 524 -10 552 -11 66 -4 69 12 6 28 -35 10 -161 13 -461 14 -251 0 -506 6 -650 15 -130 8 -277 16 -327 18 l-89 2 -13 45 c-8 27 -16 127 -20 246 l-6 201 54 6 c82 9 1500 21 1537 13 l32 -8 0 -242 c0 -154 -4 -246 -10 -252 -8 -8 -6 -15 5 -24 11 -9 19 -10 26 -3 17 17 20 1712 3 1971 -8 118 -16 218 -20 223 -9 15 -34 10 -34 -7z m-16 -1520 l46 -7 0 -48 0 -49 -222 0 c-123 0 -457 -5 -743 -11 -286 -5 -550 -7 -587 -3 l-68 6 0 53 0 52 192 2 c105 1 194 3 196 6 8 7 1132 6 1186 -1z"/>
<path d="M7444 11156 c-3 -9 -4 -72 -3 -141 l4 -124 -35 4 c-19 2 -53 6 -75 9 -46 6 -677 -11 -835 -23 -79 -5 -590 3 -688 11 -11 1 -13 25 -10 112 2 93 1 111 -12 111 -12 0 -16 -28 -23 -160 -5 -88 -9 -167 -8 -175 0 -8 3 -136 7 -285 4 -175 2 -327 -5 -430 -14 -191 -27 -1051 -17 -1116 l7 -46 312 5 c529 8 944 7 1137 -1 211 -9 230 -12 230 -32 0 -23 22 -29 36 -10 17 22 8 103 -14 127 -13 16 -14 68 -3 465 20 708 31 1038 40 1183 4 79 4 143 -1 153 -5 10 -8 98 -7 195 2 159 1 177 -14 180 -10 2 -20 -4 -23 -12z m-32 -299 c18 -9 42 -66 32 -76 -8 -8 -1388 -5 -1528 4 l-116 7 0 31 0 32 362 -3 c200 -1 404 2 453 7 109 11 773 9 797 -2z m-353 -109 l394 0 -6 -191 c-10 -294 -27 -907 -36 -1257 -6 -258 -5 -318 6 -331 35 -41 24 -43 -204 -33 -220 9 -540 10 -1106 3 -266 -3 -309 -2 -317 11 -6 9 -6 16 0 18 14 5 12 40 -2 45 -16 5 -14 756 2 979 5 79 10 284 10 457 l0 314 433 -8 c237 -5 609 -8 826 -7z"/>
<path d="M6203 10510 c-52 -23 -57 -40 -50 -168 5 -103 13 -135 31 -129 7 2 10 32 8 88 l-4 84 71 1 c99 1 141 31 127 90 -13 51 -108 69 -183 34z m121 -20 c30 -11 35 -45 9 -58 -25 -13 -106 -24 -125 -17 -17 7 -13 48 6 64 24 20 75 25 110 11z"/>
<path d="M2455 10974 c-33 -2 -179 -14 -325 -25 -286 -24 -581 -27 -785 -10 -180 16 -375 14 -375 -2 0 -11 53 -16 253 -23 380 -14 676 -10 892 11 336 32 679 23 1100 -30 369 -47 417 -63 452 -153 16 -41 18 -76 17 -272 -1 -124 -9 -326 -18 -450 -57 -770 -66 -984 -76 -1680 -11 -786 -28 -1640 -36 -1759 -5 -82 3 -104 31 -81 9 7 13 21 9 34 -3 12 0 289 6 616 6 327 15 890 20 1250 9 656 23 946 76 1625 9 116 17 320 18 455 1 244 1 245 -24 290 -29 52 -78 82 -166 104 -178 44 -888 110 -1069 100z"/>
<path d="M2933 10578 c-11 -13 -24 -34 -28 -48 -4 -14 -11 -27 -15 -30 -12 -8 -51 -141 -44 -151 14 -23 34 -4 57 54 13 34 27 76 31 92 14 59 32 75 85 75 58 0 107 -16 116 -38 3 -9 -7 -33 -26 -60 -37 -52 -46 -114 -16 -120 13 -3 17 3 17 26 0 16 12 46 26 68 14 21 30 47 34 59 20 54 -47 95 -153 95 -53 0 -67 -4 -84 -22z"/>
<path d="M1777 10533 c-37 -74 -79 -195 -73 -210 4 -10 10 -13 16 -7 13 14 92 197 94 218 2 30 -22 30 -37 -1z"/>
<path d="M1867 10543 c-14 -13 -6 -23 18 -23 32 0 75 -20 75 -35 0 -16 -24 -35 -85 -70 -58 -33 -68 -44 -53 -62 13 -16 180 -18 209 -2 16 8 25 7 38 -5 55 -50 211 18 211 92 0 51 -67 91 -130 77 -33 -7 -100 -88 -100 -119 0 -20 -6 -21 -92 -24 l-93 -3 50 29 c28 17 58 39 69 50 25 28 14 67 -24 87 -30 15 -82 20 -93 8z m351 -69 c16 -11 22 -24 20 -42 -6 -52 -137 -97 -146 -51 -2 9 11 37 28 63 34 50 59 58 98 30z"/>
<path d="M2553 10493 c-3 -10 -16 -44 -29 -75 -17 -45 -20 -59 -10 -67 7 -6 16 -8 19 -4 4 3 60 7 124 7 83 1 117 5 120 14 4 9 -17 12 -79 13 l-83 1 47 21 c46 21 64 47 33 47 -8 0 -40 -11 -71 -25 -32 -14 -59 -23 -61 -21 -3 2 5 23 17 45 11 23 18 46 15 51 -10 16 -35 11 -42 -7z"/>
<path d="M1124 10480 c-47 -19 -103 -122 -76 -139 6 -4 3 -31 -9 -76 -22 -86 -24 -145 -5 -145 8 0 16 16 20 43 4 23 11 58 16 78 10 36 10 36 73 41 117 10 169 53 151 125 -16 65 -100 101 -170 73z m110 -41 c26 -20 34 -60 18 -86 -13 -20 -78 -43 -122 -43 -22 0 -40 2 -40 5 0 2 7 22 16 44 9 22 14 48 12 58 -9 41 72 56 116 22z"/>
<path d="M3272 10463 c-41 -20 -82 -78 -82 -115 0 -25 4 -28 33 -28 17 0 46 8 63 19 30 18 30 18 56 -4 32 -27 87 -39 122 -25 34 13 34 34 0 27 -67 -12 -133 42 -111 91 7 15 6 26 -3 37 -16 19 -37 19 -78 -2z m38 -38 c-6 -8 -9 -19 -6 -24 4 -6 -11 -19 -34 -31 -50 -25 -53 -10 -8 37 32 33 74 49 48 18z"/>
<path d="M1390 10425 c0 -13 14 -15 98 -13 126 4 124 22 -3 26 -81 2 -95 0 -95 -13z"/>
<path d="M1360 10341 c0 -6 4 -12 9 -15 14 -9 161 6 161 15 0 5 -38 9 -85 9 -47 0 -85 -4 -85 -9z"/>
<path d="M10214 10095 c-14 -19 -38 -65 -53 -102 -15 -37 -33 -69 -39 -71 -6 -2 -25 16 -42 40 -97 137 -114 158 -130 158 -31 0 -29 -12 13 -65 23 -29 61 -78 84 -108 47 -62 84 -80 110 -54 9 9 28 47 43 85 15 38 37 84 49 101 21 29 21 51 1 51 -5 0 -21 -16 -36 -35z"/>
<path d="M2320 9865 c0 -8 1 -15 3 -16 1 0 37 -4 80 -8 86 -9 96 -14 81 -39 -9 -13 -28 -18 -83 -20 -54 -2 -71 -6 -71 -17 0 -12 14 -15 59 -15 l60 0 -20 -45 c-22 -50 -22 -90 0 -90 8 0 19 19 26 47 15 60 29 76 68 80 34 3 40 21 8 26 -17 3 -18 7 -8 33 16 42 -4 57 -93 69 -101 13 -110 12 -110 -5z"/>
<path d="M1226 9851 c-10 -11 -35 -64 -55 -118 l-37 -98 -40 0 -39 0 -3 53 c-2 40 2 62 18 89 22 38 16 58 -16 51 -23 -4 -42 -61 -43 -129 -1 -74 19 -101 76 -103 l41 -1 -5 -52 c-6 -53 6 -83 31 -83 8 0 10 21 8 70 -4 66 -3 71 24 92 117 96 157 162 131 217 -16 34 -65 40 -91 12z m60 -26 c4 -8 3 -27 0 -41 -8 -29 -89 -121 -94 -106 -5 16 65 162 78 162 6 0 13 -7 16 -15z"/>
<path d="M1934 9827 c-61 -43 -77 -85 -47 -125 40 -53 127 -54 188 -1 60 53 56 117 -10 145 -52 21 -78 17 -131 -19z m124 -13 c12 -8 22 -24 22 -34 0 -27 -46 -78 -79 -85 -31 -7 -92 12 -75 23 6 4 14 24 18 44 11 60 66 86 114 52z"/>
<path d="M1505 9800 c-16 -26 17 -35 130 -35 142 0 159 18 25 26 -52 3 -107 9 -121 13 -17 5 -29 3 -34 -4z"/>
<path d="M1537 9733 c-21 -20 3 -25 113 -22 77 3 123 8 132 17 10 9 -13 12 -113 12 -69 0 -129 -3 -132 -7z"/>
<path d="M2115 9689 c-4 -6 -9 -37 -12 -70 -5 -54 -4 -59 14 -59 17 0 21 9 27 61 3 34 3 65 0 70 -7 12 -21 11 -29 -2z"/>
<path d="M9380 9403 c-14 -27 -26 -51 -28 -55 -2 -5 6 -8 17 -8 22 0 71 66 71 95 0 34 -37 14 -60 -32z"/>
<path d="M9164 9343 c-39 -19 -50 -37 -94 -160 -30 -82 -35 -105 -25 -113 17 -14 23 -4 55 85 l25 70 64 6 c67 7 101 29 101 68 0 55 -61 76 -126 44z m84 -37 c5 -25 -23 -46 -60 -46 -34 0 -37 21 -7 51 24 24 62 22 67 -5z"/>
<path d="M2468 9288 c-21 -18 -27 -39 -17 -65 6 -18 16 -23 43 -23 31 0 34 3 41 37 5 29 3 40 -11 50 -22 16 -36 16 -56 1z"/>
<path d="M1119 9220 c-23 -59 -24 -59 -73 -67 -69 -11 -77 -38 -9 -31 l51 5 -10 -34 c-5 -19 -8 -48 -6 -66 3 -28 7 -32 35 -35 40 -4 100 23 109 50 9 30 0 31 -41 3 -45 -30 -79 -34 -71 -7 3 9 8 34 12 55 l6 37 69 0 c38 0 69 4 69 9 0 10 -48 21 -91 21 -34 0 -36 8 -9 60 25 49 25 60 1 60 -14 0 -25 -16 -42 -60z"/>
<path d="M2636 9236 c-68 -19 -108 -61 -113 -123 -4 -39 -1 -53 18 -77 51 -64 163 -82 325 -51 101 19 127 41 34 29 -36 -5 -111 -9 -167 -9 -87 0 -106 3 -130 21 -44 33 -56 64 -41 110 17 49 60 74 138 81 38 4 59 10 57 17 -5 16 -65 17 -121 2z"/>
<path d="M1945 9231 c-37 -16 -50 -39 -38 -71 9 -25 8 -32 -12 -50 -35 -33 -49 -73 -35 -100 10 -20 18 -22 60 -18 91 9 124 55 80 111 -11 14 -20 27 -20 30 0 4 58 30 94 41 14 5 16 10 8 18 -8 8 -24 6 -59 -6 -87 -31 -85 -31 -81 -10 2 15 13 20 51 22 39 3 48 6 45 20 -4 19 -60 27 -93 13z m33 -188 c-8 -7 -31 -16 -51 -20 -46 -7 -49 11 -10 57 l27 33 24 -28 c20 -24 21 -30 10 -42z"/>
<path d="M2190 9203 c-48 -19 -90 -83 -90 -137 0 -81 93 -84 164 -6 28 32 36 48 36 79 0 21 -6 44 -14 50 -17 14 -75 23 -96 14z m73 -44 c23 -37 -38 -115 -94 -121 -20 -3 -25 2 -27 25 -4 34 21 92 46 107 24 14 63 8 75 -11z"/>
<path d="M1430 9165 c0 -12 15 -15 74 -15 97 0 196 11 196 21 0 5 -61 9 -135 9 -113 0 -135 -2 -135 -15z"/>
<path d="M1470 9120 c-9 -6 -11 -12 -5 -18 14 -11 245 1 245 13 0 13 -220 18 -240 5z"/>
<path d="M972 8663 c3 -14 12 -17 42 -15 37 3 86 -18 86 -38 0 -5 -18 -21 -41 -35 -22 -15 -39 -31 -37 -37 2 -6 24 -18 48 -27 54 -20 57 -37 12 -68 -27 -18 -37 -20 -52 -11 -14 9 -22 9 -34 -1 -46 -38 18 -56 91 -26 50 21 73 43 73 71 0 23 -42 64 -67 64 -7 0 1 13 18 28 26 23 31 33 25 55 -8 35 -53 57 -116 57 -44 0 -51 -3 -48 -17z"/>
<path d="M2284 8652 c-6 -4 -38 -54 -72 -112 -68 -117 -66 -117 -92 5 -14 61 -25 85 -42 85 -20 0 -18 -33 7 -115 42 -140 76 -154 130 -53 16 29 45 81 66 115 28 46 34 65 25 72 -6 5 -16 7 -22 3z"/>
<path d="M1224 8636 c-9 -24 17 -244 31 -263 7 -10 19 -14 29 -10 18 7 156 212 156 233 0 28 -36 14 -55 -22 -11 -20 -38 -63 -61 -96 l-42 -60 -7 54 c-3 29 -9 80 -13 112 -7 58 -26 84 -38 52z"/>
<path d="M1730 8566 c0 -10 25 -20 77 -32 76 -17 76 -17 49 -31 -20 -11 -31 -12 -39 -4 -7 7 -56 11 -125 11 -103 0 -113 -2 -110 -17 3 -16 15 -18 113 -15 88 2 106 0 88 -9 -24 -13 -31 -39 -10 -38 6 0 41 14 77 32 48 23 65 37 65 52 0 16 -14 25 -65 42 -78 26 -120 29 -120 9z"/>
<path d="M4071 8101 c-68 -63 -79 -144 -57 -406 26 -308 36 -523 36 -806 0 -305 -14 -480 -65 -806 -19 -122 -35 -245 -35 -273 0 -44 3 -52 24 -61 18 -9 33 -8 57 0 18 6 34 9 37 7 2 -3 -5 -87 -17 -188 -11 -101 -30 -280 -41 -398 -11 -118 -36 -349 -55 -513 -55 -468 -65 -586 -71 -837 -7 -267 5 -375 52 -479 25 -56 81 -121 104 -121 18 0 11 17 -13 33 -31 20 -71 98 -93 182 -16 60 -19 107 -18 320 0 273 6 348 64 845 22 184 51 448 65 585 14 138 32 300 40 360 20 149 23 221 8 236 -10 10 -21 10 -54 0 -73 -22 -72 -35 -10 384 48 326 55 445 48 874 -4 212 -13 467 -21 566 -28 335 -21 410 45 470 22 19 39 39 39 45 0 20 -39 9 -69 -19z"/>
<path d="M2940 8031 c-99 -31 -160 -90 -160 -156 0 -41 -2 -44 -43 -64 -24 -12 -57 -21 -73 -21 l-29 1 28 17 c49 30 28 64 -24 37 -36 -19 -45 -15 -27 14 9 15 10 23 1 32 -17 17 -30 4 -63 -61 -39 -76 -39 -94 -2 -86 15 3 54 8 88 10 36 2 77 12 103 25 l42 22 -3 -33 c-2 -27 1 -34 17 -36 18 -2 23 7 38 64 17 61 17 68 3 76 -42 24 16 93 103 123 92 31 97 21 51 -105 -37 -100 -38 -127 -6 -140 26 -9 66 -3 66 11 0 5 -9 9 -20 9 -33 0 -33 22 0 110 32 90 37 129 18 148 -13 13 -69 15 -108 3z"/>
<path d="M2012 7968 c-5 -22 -45 -102 -72 -144 -7 -12 -10 -29 -6 -39 6 -15 15 -17 72 -11 65 7 66 7 58 -16 -12 -38 -10 -63 6 -63 9 0 20 19 28 50 8 28 18 52 22 55 4 3 10 19 13 35 3 17 8 40 12 53 6 18 3 22 -12 22 -19 0 -43 -36 -43 -65 0 -20 -32 -35 -74 -35 -20 0 -36 2 -36 4 0 3 16 31 35 63 41 69 48 105 22 111 -13 3 -20 -4 -25 -20z"/>
<path d="M2272 7973 c3 -15 13 -17 62 -15 32 2 57 0 54 -5 -42 -92 -52 -103 -89 -103 -21 0 -41 -5 -44 -10 -10 -17 16 -41 36 -35 23 8 23 3 4 -34 -8 -16 -11 -31 -8 -35 15 -15 30 -3 51 39 19 40 26 45 54 45 50 0 108 12 108 21 0 5 -27 9 -60 9 -33 0 -60 3 -60 7 0 4 16 31 36 60 20 29 33 57 29 63 -3 5 -43 10 -91 10 -76 0 -85 -2 -82 -17z"/>
<path d="M1154 7967 c-65 -38 -114 -102 -114 -151 0 -13 -9 -64 -21 -112 -13 -57 -17 -90 -11 -96 17 -17 29 -1 36 44 4 24 11 60 17 81 l10 37 62 0 c116 0 177 35 177 102 0 36 -24 84 -49 98 -26 13 -81 12 -107 -3z m113 -64 c13 -33 13 -38 -4 -62 -23 -30 -67 -43 -131 -39 -41 3 -47 6 -44 23 8 47 38 90 81 112 52 27 75 19 98 -34z"/>
<path d="M5445 7964 c-84 -44 -108 -94 -111 -239 -1 -60 -4 -117 -5 -125 -2 -8 3 -15 11 -15 11 0 19 25 32 95 9 52 17 96 17 98 1 1 20 2 44 2 59 0 142 41 167 82 26 43 25 64 -5 93 -19 20 -34 25 -72 25 -26 0 -61 -7 -78 -16z m129 -37 c26 -41 -62 -117 -136 -117 -32 0 -38 3 -38 20 0 33 26 86 51 104 32 22 108 18 123 -7z"/>
<path d="M6952 7946 c-26 -30 -65 -124 -74 -181 -3 -19 -4 -19 -27 4 -20 20 -22 29 -17 71 7 54 -8 76 -31 45 -33 -46 -4 -144 47 -160 16 -5 20 -17 22 -73 2 -54 6 -67 20 -70 16 -3 17 2 12 42 -9 65 0 92 35 99 35 7 96 59 116 97 8 16 17 46 21 69 14 90 -64 126 -124 57z m86 -35 c5 -46 -13 -85 -59 -126 -58 -52 -72 -48 -52 18 27 93 64 150 92 145 10 -2 17 -16 19 -37z"/>
<path d="M4615 7955 c-27 -8 -60 -14 -72 -15 -41 0 -107 -159 -74 -179 8 -5 6 -35 -7 -114 -17 -99 -16 -127 6 -113 5 3 19 59 32 124 l24 119 40 -4 c61 -7 123 13 167 55 51 49 59 83 25 116 -29 30 -64 32 -141 11z m119 -37 c24 -38 -79 -118 -151 -118 -37 0 -44 15 -13 25 24 8 17 25 -11 25 -27 0 -25 36 4 51 71 39 152 47 171 17z"/>
<path d="M7338 7954 c-39 -21 -72 -88 -64 -132 3 -19 -1 -64 -9 -101 -21 -103 -23 -186 -5 -186 11 0 17 15 21 55 3 30 12 80 18 111 l12 57 59 6 c77 9 124 40 128 85 5 53 -6 80 -41 101 -38 23 -81 25 -119 4z m91 -24 c10 -5 24 -23 31 -40 10 -25 10 -34 -4 -54 -15 -25 -69 -46 -113 -46 -27 0 -28 5 -8 65 9 25 13 50 10 55 -13 22 52 38 84 20z"/>
<path d="M1580 7900 c0 -23 21 -35 73 -45 41 -8 127 2 127 14 0 5 -33 11 -72 15 -46 4 -77 12 -84 21 -16 22 -44 19 -44 -5z"/>
<path d="M6384 7900 c-6 -6 -9 -32 -6 -60 l5 -50 -67 0 c-52 0 -66 -3 -66 -15 0 -12 14 -15 66 -15 l67 0 -7 -59 c-5 -39 -3 -62 4 -66 18 -11 25 3 30 68 l5 62 63 3 c34 2 62 7 62 12 0 8 -39 12 -107 10 -5 0 -10 25 -13 57 -5 56 -16 73 -36 53z"/>
<path d="M3115 7863 c-33 -33 -57 -86 -49 -107 7 -18 44 -28 83 -20 16 4 44 1 62 -5 19 -7 37 -7 48 -2 14 8 12 11 -11 20 -14 5 -29 15 -33 20 -3 6 -17 11 -30 11 -23 0 -24 1 -9 35 7 19 14 44 14 55 0 30 -41 26 -75 -7z"/>
<path d="M4875 7839 c-4 -6 -3 -15 2 -20 12 -12 263 3 263 16 0 15 -256 19 -265 4z"/>
<path d="M1570 7805 c-6 -7 -7 -15 -3 -18 11 -12 201 -8 208 4 4 6 5 12 4 14 -2 1 -48 5 -102 7 -66 3 -101 0 -107 -7z"/>
<path d="M4963 7783 c-38 -3 -53 -8 -53 -19 0 -10 13 -14 53 -13 77 1 140 12 145 27 4 12 -23 13 -145 5z"/>
<path d="M1280 7738 c-8 -18 -18 -40 -25 -48 -6 -8 -11 -44 -11 -80 1 -51 4 -65 16 -65 11 0 17 17 23 56 l9 55 52 10 53 9 -5 -42 c-4 -34 -1 -43 11 -43 10 0 19 17 27 48 6 27 18 61 26 76 7 16 11 32 8 37 -10 17 -35 9 -46 -16 -12 -26 -19 -30 -82 -41 l-39 -7 21 35 c23 36 21 48 -8 48 -10 0 -23 -13 -30 -32z"/>
<path d="M7495 7713 c-9 -49 -22 -73 -40 -73 -20 0 -19 -29 0 -36 12 -5 14 -15 9 -40 -3 -18 -3 -38 1 -44 12 -20 34 9 40 55 6 40 9 43 43 49 20 3 37 4 39 2 2 -1 -1 -30 -5 -64 -9 -65 -1 -95 23 -86 8 4 12 10 10 15 -8 11 15 139 28 164 6 11 10 26 8 33 -1 8 3 20 9 27 7 8 9 19 5 25 -13 22 -37 8 -52 -29 -11 -29 -24 -43 -46 -50 -44 -16 -47 -14 -36 21 14 50 11 68 -10 68 -14 0 -21 -10 -26 -37z"/>
<path d="M5527 7679 c-43 -36 -80 -94 -103 -165 -16 -49 -15 -52 8 -100 31 -66 69 -81 104 -41 32 37 33 99 3 121 -22 15 -22 15 19 63 48 58 77 115 69 137 -10 26 -59 19 -100 -15z m39 -57 c-14 -21 -44 -56 -67 -77 -37 -36 -40 -37 -34 -15 12 40 43 86 82 121 45 39 56 23 19 -29z m-41 -163 c8 -12 -2 -59 -13 -59 -22 1 -34 20 -28 44 6 26 29 35 41 15z"/>
<path d="M5830 7498 c-19 -13 -35 -28 -34 -33 1 -17 33 -17 50 0 26 25 28 9 5 -28 -28 -45 -27 -54 8 -72 18 -9 34 -28 41 -50 10 -30 9 -40 -7 -68 -19 -34 -104 -84 -123 -72 -21 13 -9 52 25 85 19 19 35 38 35 42 0 20 -33 5 -70 -32 -64 -64 -51 -125 26 -123 19 1 49 10 67 20 l33 20 16 -38 c32 -74 144 -76 174 -2 11 25 13 65 8 175 -3 79 -10 151 -15 161 -28 52 -149 -18 -137 -79 3 -16 12 -19 53 -19 46 0 50 -2 53 -25 2 -20 -8 -33 -48 -62 l-50 -37 0 41 c0 33 -6 46 -34 72 l-33 32 19 27 c25 34 21 81 -7 85 -12 2 -36 -8 -55 -20z m210 -38 c0 -15 -38 -50 -55 -50 -21 0 -19 10 7 37 22 24 48 31 48 13z m10 -235 c0 -68 -2 -76 -25 -91 -48 -31 -104 7 -91 62 5 19 96 104 112 104 2 0 4 -34 4 -75z"/>
<path d="M5633 7498 c-6 -7 -13 -28 -16 -46 -18 -93 81 -133 142 -56 31 40 28 80 -9 99 -35 18 -104 20 -117 3z m91 -24 c23 -9 20 -50 -6 -74 -26 -24 -32 -25 -52 -4 -19 18 -19 24 -6 58 9 26 31 32 64 20z"/>
<path d="M1419 7109 c-108 -4 -241 -13 -295 -19 -55 -6 -152 -14 -217 -17 -101 -5 -117 -8 -115 -22 5 -24 55 -24 229 -2 85 11 261 26 390 32 443 22 1475 -5 1984 -51 83 -8 120 -2 102 16 -9 9 -343 31 -666 44 -145 6 -356 15 -470 20 -237 11 -657 11 -942 -1z"/>
<path d="M2336 6925 c-52 -18 -85 -50 -68 -67 9 -9 17 -7 34 9 63 59 168 55 168 -7 0 -10 -44 -65 -98 -122 -55 -56 -104 -113 -110 -125 -22 -40 -13 -113 14 -113 10 0 14 14 14 50 0 49 1 50 104 160 58 61 108 120 111 131 4 11 2 33 -5 48 -20 50 -86 64 -164 36z"/>
<path d="M4936 6901 c-11 -17 -45 -176 -52 -240 -6 -52 -4 -63 7 -59 8 2 17 20 22 39 4 19 18 83 32 142 14 60 23 113 19 118 -7 12 -21 12 -28 0z"/>
<path d="M1809 6873 c-14 -34 -79 -225 -79 -231 0 -2 7 -2 16 0 18 3 107 224 99 246 -7 21 -25 13 -36 -15z"/>
<path d="M7572 6808 c-28 -74 -62 -192 -62 -212 0 -44 28 0 63 100 21 60 42 113 48 119 16 16 10 45 -10 45 -14 0 -25 -14 -39 -52z"/>
<path d="M6045 6798 c-12 -36 -45 -179 -45 -197 0 -22 14 -28 25 -11 10 16 55 182 55 203 0 19 -28 24 -35 5z"/>
<path d="M1497 6667 c-31 -10 -42 -21 -61 -63 -32 -70 -80 -264 -67 -277 14 -14 29 0 36 36 3 17 13 53 22 80 13 43 17 47 47 47 80 0 176 60 176 110 0 10 -10 31 -22 45 -27 31 -77 39 -131 22z m91 -33 c42 -29 22 -68 -51 -99 -20 -8 -43 -15 -51 -15 -41 0 -13 102 32 119 38 13 45 13 70 -5z"/>
<path d="M5785 6651 c-22 -10 -50 -30 -63 -43 -32 -35 -126 -347 -109 -364 11 -11 25 6 32 39 18 83 88 280 110 305 31 36 72 54 116 50 48 -4 51 -38 9 -78 -39 -36 -76 -47 -103 -31 -16 10 -22 10 -34 -2 -23 -22 -7 -37 39 -37 81 0 168 64 168 123 0 55 -87 74 -165 38z"/>
<path d="M4655 6639 c-22 -11 -53 -22 -70 -22 -29 -2 -31 -5 -43 -67 -18 -90 -50 -314 -46 -319 2 -2 9 -1 17 2 8 3 18 34 26 79 6 40 16 96 22 124 l12 51 29 -14 c36 -18 112 -10 157 18 57 34 75 114 35 153 -22 23 -92 20 -139 -5z m121 -35 c13 -53 -28 -97 -103 -109 -35 -6 -43 -4 -52 14 -7 13 -17 18 -27 14 -13 -5 -14 -3 -6 13 26 49 98 94 149 94 27 0 34 -5 39 -26z"/>
<path d="M6837 6623 c-2 -5 -7 -25 -11 -46 l-7 -39 -62 4 c-56 3 -62 1 -62 -17 0 -18 6 -20 63 -17 l62 4 0 -46 c0 -63 25 -63 34 -1 l7 45 48 0 c26 0 56 7 67 15 22 17 18 18 -60 15 -57 -2 -59 -1 -52 21 19 70 19 69 -2 69 -12 0 -23 -3 -25 -7z"/>
<path d="M7389 6601 c-29 -23 -81 -116 -100 -178 -14 -48 -35 -55 -64 -23 -23 25 -17 120 10 149 18 21 14 56 -7 49 -39 -13 -70 -118 -54 -183 9 -36 41 -65 72 -65 22 0 25 -4 21 -22 -24 -99 -15 -218 15 -218 10 0 13 25 13 98 0 125 6 141 59 174 64 38 120 125 120 186 1 45 0 47 -30 50 -19 2 -40 -5 -55 -17z m61 -23 c-1 -25 -38 -95 -70 -131 -55 -63 -65 -45 -25 40 34 73 96 132 95 91z"/>
<path d="M7768 6604 c-49 -26 -69 -81 -110 -301 -9 -49 -9 -66 0 -75 21 -21 33 5 46 93 l12 84 41 7 c23 4 56 14 73 23 60 31 88 114 54 163 -18 26 -74 29 -116 6z m90 -55 c4 -46 -26 -85 -79 -100 -21 -7 -41 -10 -44 -7 -3 3 2 22 10 42 9 21 14 43 12 49 -8 23 35 58 68 55 27 -3 30 -7 33 -39z"/>
<path d="M5170 6576 c0 -8 6 -16 14 -19 20 -8 226 4 226 13 0 10 -89 20 -172 20 -52 0 -68 -3 -68 -14z"/>
<path d="M1785 6570 c-12 -20 7 -28 75 -31 154 -7 212 13 73 25 -43 4 -92 10 -109 12 -19 4 -35 1 -39 -6z"/>
<path d="M5275 6518 c-86 -10 -94 -13 -78 -29 14 -14 198 10 198 26 0 14 -26 14 -120 3z"/>
<path d="M7948 6415 c-14 -28 -29 -45 -39 -45 -26 0 -32 -16 -13 -34 13 -14 14 -22 4 -52 -8 -24 -9 -39 -2 -46 17 -17 29 -1 42 53 10 39 18 53 38 60 13 5 26 8 28 7 1 -2 -4 -32 -12 -67 -8 -35 -13 -70 -10 -78 12 -31 30 -4 47 70 10 42 28 95 40 118 15 30 18 44 10 52 -9 9 -21 2 -46 -26 -33 -36 -55 -47 -55 -28 0 6 5 13 10 16 6 3 10 15 10 26 0 35 -30 20 -52 -26z"/>
<path d="M6024 6426 c-72 -31 -144 -137 -144 -210 0 -52 14 -73 59 -87 50 -15 98 0 136 43 l28 31 14 -26 c25 -48 99 -48 129 -1 14 21 15 34 7 81 -10 53 -9 55 14 66 37 17 53 -6 25 -36 -31 -33 -27 -51 18 -81 22 -14 40 -33 40 -40 0 -8 -15 -24 -34 -35 -40 -25 -106 -96 -106 -114 0 -7 7 -23 16 -35 19 -28 55 -28 113 -2 40 18 46 19 61 5 23 -21 106 -19 150 3 51 25 60 59 32 134 l-22 61 26 30 c28 33 20 46 -17 27 -17 -10 -23 -9 -30 1 -5 8 -6 21 -3 29 27 66 28 69 14 85 -21 25 -71 16 -90 -17 -12 -23 -13 -33 -2 -60 12 -32 11 -34 -20 -60 -18 -15 -37 -28 -41 -28 -5 0 -26 14 -46 32 l-39 32 20 27 c23 31 17 65 -13 74 -28 9 -84 -2 -99 -20 -7 -8 -23 -15 -37 -15 -16 0 -29 -10 -41 -31 -35 -64 -37 -65 -67 -49 -37 20 -90 18 -115 -5 -22 -20 -27 -61 -7 -68 7 -3 5 -6 -5 -6 -44 -2 -47 82 -4 93 33 8 118 86 141 130 17 32 18 38 5 46 -20 13 -29 12 -66 -4z m-23 -87 c-29 -28 -55 -48 -58 -45 -9 9 31 58 66 81 55 38 51 18 -8 -36z m519 -11 c0 -17 -18 -44 -24 -37 -8 7 5 49 15 49 5 0 9 -6 9 -12z m-301 -103 c2 -54 -53 -79 -65 -30 -5 19 1 33 22 58 32 36 42 30 43 -28z m289 -30 c-1 -1 -24 -19 -50 -38 -39 -30 -47 -33 -53 -19 -3 9 1 19 11 25 9 5 30 22 48 37 26 24 32 26 39 13 5 -8 7 -16 5 -18z m-458 16 c0 -11 -59 -26 -67 -18 -3 3 -2 10 2 16 8 13 65 15 65 2z m-57 -58 c-7 -2 -19 -2 -25 0 -7 3 -2 5 12 5 14 0 19 -2 13 -5z m551 -36 c25 -66 21 -86 -19 -103 -79 -33 -132 -5 -101 55 14 26 82 90 97 91 4 0 14 -19 23 -43z m-179 -63 c-22 -53 -115 -85 -115 -40 0 8 26 37 57 65 54 48 58 50 65 31 5 -13 2 -35 -7 -56z"/>
<path d="M2285 6381 c-9 -16 17 -61 37 -61 15 0 17 5 12 28 -4 15 -9 30 -11 35 -6 10 -31 9 -38 -2z"/>
<path d="M6925 5613 c-26 -64 -75 -202 -75 -210 0 -3 7 -3 16 -1 11 2 35 47 66 123 56 137 59 148 37 153 -12 2 -24 -15 -44 -65z"/>
<path d="M4672 5545 c-30 -14 -60 -25 -68 -25 -39 0 -85 -335 -48 -347 8 -3 14 21 18 64 4 37 11 91 17 120 l10 51 59 -5 c77 -7 118 9 137 54 15 37 10 67 -15 96 -21 23 -47 21 -110 -8z m92 -21 c20 -53 -13 -94 -76 -93 -24 0 -51 4 -62 8 -17 7 -16 9 8 38 44 52 118 79 130 47z"/>
<path d="M8211 5493 c-22 -38 -54 -102 -72 -143 -42 -99 -49 -108 -66 -77 -10 21 -43 178 -43 208 0 5 -10 9 -21 9 -20 0 -21 -3 -14 -56 16 -134 51 -216 93 -222 29 -5 55 29 87 111 29 75 78 170 103 199 7 9 11 22 7 27 -14 24 -36 8 -74 -56z"/>
<path d="M5747 5544 c-3 -3 -3 -22 -1 -42 22 -170 53 -242 104 -242 21 0 42 39 71 133 17 56 35 106 40 112 14 15 10 25 -10 25 -27 0 -36 -15 -65 -110 -32 -104 -42 -121 -56 -100 -22 33 -35 109 -40 223 0 8 -34 10 -43 1z"/>
<path d="M5515 5520 c-11 -17 4 -29 36 -28 18 1 39 -7 51 -19 l20 -20 -31 -11 c-42 -15 -39 -36 7 -50 38 -12 82 -45 82 -62 0 -12 -46 -36 -87 -45 -27 -5 -33 -3 -33 10 0 20 -29 16 -43 -6 -6 -9 -7 -24 -4 -34 6 -14 14 -16 50 -10 80 14 146 44 153 71 6 23 -17 74 -34 74 -4 0 -16 7 -26 15 -16 12 -17 17 -6 30 19 23 -1 58 -43 78 -39 19 -83 22 -92 7z"/>
<path d="M6694 5448 c-48 -10 -76 -37 -79 -76 -2 -15 -14 -72 -29 -127 -29 -113 -32 -145 -13 -145 8 0 18 21 25 53 7 28 22 84 33 123 20 68 22 71 39 54 15 -15 26 -16 70 -9 28 4 58 14 66 20 73 60 -2 131 -112 107z m97 -44 c11 -14 10 -19 -10 -35 -18 -14 -36 -19 -72 -17 -52 3 -58 11 -33 46 19 28 94 31 115 6z"/>
<path d="M6320 5390 c-102 -4 -125 -8 -125 -20 0 -12 18 -14 114 -11 117 3 167 13 156 31 -3 5 -9 9 -13 8 -4 -1 -63 -5 -132 -8z"/>
<path d="M5274 5359 c-9 -15 12 -33 30 -26 9 4 16 13 16 22 0 17 -35 21 -46 4z"/>
<path d="M7760 5320 c0 -18 5 -21 33 -18 20 2 32 8 32 18 0 10 -12 16 -32 18 -28 3 -33 0 -33 -18z"/>
<path d="M6295 5323 c-66 -6 -85 -13 -85 -29 0 -13 7 -15 28 -11 16 3 64 9 106 13 49 4 75 11 73 18 -4 12 -55 16 -122 9z"/>
<path d="M4735 5248 c-67 -69 -105 -138 -112 -202 -11 -90 85 -133 158 -72 l32 27 11 -23 c12 -24 43 -33 81 -24 31 8 47 58 36 109 -8 35 -7 39 16 48 35 13 47 2 29 -27 -22 -33 -20 -38 18 -52 54 -20 63 -38 28 -56 -16 -8 -52 -33 -81 -56 -39 -31 -51 -47 -49 -63 3 -19 9 -22 45 -20 22 1 59 11 82 22 l41 21 0 -35 c0 -47 29 -75 78 -75 75 0 109 56 99 160 -5 44 -3 61 8 70 20 16 20 44 0 36 -10 -3 -15 1 -15 13 0 10 -7 22 -16 25 -10 4 -13 13 -9 25 4 14 0 23 -14 30 -32 17 -51 13 -83 -19 -23 -24 -29 -37 -26 -60 3 -17 3 -30 2 -30 -2 0 -19 10 -37 23 -28 19 -33 27 -25 40 14 26 0 56 -29 63 -28 7 -103 -12 -103 -26 0 -6 -9 -10 -19 -10 -20 0 -61 -44 -61 -65 0 -18 -27 -26 -33 -10 -3 7 -20 16 -37 20 l-30 7 51 56 c57 62 103 150 93 176 -4 10 -18 16 -37 16 -25 0 -43 -12 -92 -62z m95 25 c0 -23 -64 -114 -106 -153 -88 -81 -60 4 34 102 51 54 72 69 72 51z m327 -201 c-21 -21 -27 -23 -27 -10 0 17 40 52 49 42 3 -2 -7 -17 -22 -32z m-247 -46 c0 -40 -44 -64 -57 -30 -6 17 35 67 48 58 5 -3 9 -15 9 -28z m-230 10 c0 -11 -19 -15 -25 -6 -3 5 1 10 9 10 9 0 16 -2 16 -4z m479 -67 l-44 -38 -3 26 c-4 30 8 44 51 59 48 17 47 -4 -4 -47z m-404 41 c-3 -5 -17 -10 -31 -10 -14 0 -22 4 -19 10 3 6 17 10 31 10 14 0 22 -4 19 -10z m325 -56 c0 -31 -83 -89 -118 -82 -12 2 -1 16 38 45 50 39 80 53 80 37z m130 -57 c0 -60 -20 -97 -54 -97 -28 0 -46 18 -46 47 0 26 77 116 91 107 5 -3 9 -29 9 -57z"/>
<path d="M6970 5264 c-22 -20 -57 -63 -77 -96 -35 -57 -38 -59 -70 -53 -29 5 -33 3 -33 -15 0 -16 6 -20 30 -20 23 0 30 -5 30 -19 0 -10 9 -30 21 -45 16 -20 29 -26 59 -26 30 0 43 6 59 26 12 15 21 31 21 35 0 19 -41 49 -67 50 l-28 0 25 17 c80 55 148 138 136 168 -10 27 -64 16 -106 -22z m51 -32 c-24 -35 -91 -88 -91 -72 0 15 99 115 106 107 3 -3 -3 -19 -15 -35z m-67 -168 c28 -11 17 -20 -19 -16 -19 2 -32 8 -29 13 6 10 26 12 48 3z"/>
<path d="M7190 5191 c-98 -31 -154 -117 -120 -182 12 -21 58 -26 90 -9 28 15 44 74 31 112 -13 38 -6 47 42 55 43 7 60 -16 33 -46 -24 -27 -20 -38 24 -66 22 -14 40 -30 40 -35 0 -5 -17 -18 -39 -29 -94 -48 -126 -105 -83 -144 25 -23 90 -21 130 3 31 19 32 19 32 1 0 -10 9 -30 21 -45 16 -20 29 -26 60 -26 22 0 49 5 61 11 34 18 50 73 43 144 l-7 62 35 22 c47 29 104 94 88 99 -7 2 -25 -7 -39 -20 -32 -30 -73 -58 -84 -58 -5 0 -8 9 -8 19 0 10 -7 21 -14 24 -12 5 -8 13 15 38 32 34 35 49 17 67 -21 21 -49 13 -84 -22 -23 -23 -34 -43 -34 -63 0 -22 -7 -32 -34 -47 l-34 -18 -36 28 c-24 19 -34 34 -30 44 15 35 15 58 -1 73 -17 18 -71 21 -115 8z m320 -56 c-7 -9 -15 -13 -17 -11 -7 7 7 26 19 26 6 0 6 -6 -2 -15z m-356 -41 c8 -30 -18 -78 -37 -71 -15 5 -13 63 3 82 18 22 27 19 34 -11z m346 -66 c0 -15 -13 -32 -36 -47 -19 -13 -45 -36 -57 -51 l-23 -26 0 51 c0 49 2 53 36 73 48 29 80 29 80 0z m-150 -73 c0 -47 -27 -83 -66 -91 -72 -13 -72 35 0 84 58 39 66 39 66 7z m159 -107 c-21 -52 -91 -49 -97 5 -3 20 8 37 45 74 l48 48 8 -49 c5 -33 4 -59 -4 -78z"/>
<path d="M5719 4431 l-24 -19 5 -184 c3 -101 5 -398 5 -661 l0 -478 21 -5 c12 -3 69 -4 125 -2 82 3 104 7 104 19 0 11 -19 14 -97 14 -53 0 -99 3 -102 6 -4 3 -8 217 -10 475 -2 258 -7 539 -11 625 -10 203 -12 199 105 199 73 0 90 3 90 15 0 12 -17 15 -94 15 -78 0 -98 -3 -117 -19z"/>
<path d="M6511 4396 c-22 -23 -35 -75 -47 -188 -6 -50 -4 -58 10 -58 20 0 36 38 36 84 0 29 3 33 28 33 40 0 116 39 131 67 27 50 -12 86 -93 86 -32 0 -48 -6 -65 -24z m119 -21 c10 -12 10 -18 -1 -31 -14 -17 -51 -37 -87 -49 -23 -7 -23 -7 -7 25 9 17 14 38 11 45 -2 7 -2 16 1 19 12 12 71 6 83 -9z"/>
<path d="M6223 4374 c-9 -25 14 -41 37 -26 23 14 70 16 70 2 0 -5 -13 -19 -30 -32 -38 -28 -38 -45 0 -53 27 -6 60 -37 60 -57 0 -15 -54 -42 -80 -40 -32 2 -59 -23 -43 -39 18 -18 118 16 142 47 29 36 26 51 -13 90 -32 32 -33 34 -15 50 22 20 24 45 7 62 -19 19 -127 16 -135 -4z"/>
<path d="M5028 4253 c-15 -35 -17 -256 -3 -263 6 -3 13 36 17 101 3 58 13 121 21 141 9 20 13 39 9 42 -13 14 -33 4 -44 -21z"/>
<path d="M6635 4216 c-15 -11 -17 -21 -12 -61 8 -56 11 -60 32 -52 9 4 15 19 15 36 0 48 9 61 45 61 l33 0 -14 -40 c-15 -44 -9 -73 14 -68 17 3 44 93 36 121 -4 14 -17 17 -68 17 -36 0 -70 -6 -81 -14z"/>
<path d="M6859 4201 c-22 -23 -29 -39 -29 -70 0 -35 4 -42 24 -47 13 -3 33 -1 44 5 15 8 23 8 28 0 3 -6 19 -9 35 -7 27 4 29 2 29 -27 0 -30 -3 -33 -37 -39 -21 -3 -171 -6 -333 -6 -339 0 -460 -7 -460 -26 0 -9 43 -11 198 -8 570 11 632 12 632 3 0 -15 37 -10 43 5 5 14 61 23 176 29 27 2 46 8 49 16 4 11 -15 13 -102 7 l-106 -7 0 35 c0 32 3 36 38 46 48 12 106 50 110 72 6 29 -26 48 -80 48 -47 0 -52 -3 -103 -55 -30 -30 -57 -55 -60 -55 -3 0 -5 16 -5 35 0 34 -27 75 -51 75 -6 0 -24 -13 -40 -29z m295 -10 c7 -11 -32 -38 -68 -47 -22 -5 -26 -3 -26 14 0 12 8 26 18 31 21 13 69 14 76 2z m-259 -61 c-3 -6 -10 -10 -16 -10 -10 0 -12 33 -2 44 9 9 26 -22 18 -34z"/>
<path d="M10433 4150 c-31 -13 -50 -47 -66 -115 -11 -49 -18 -62 -41 -74 -22 -10 -34 -11 -53 -2 -23 11 -25 16 -20 56 7 47 -1 60 -31 51 -13 -4 -19 -17 -20 -39 -2 -75 42 -115 114 -104 l36 6 -6 -53 c-8 -61 0 -102 20 -110 17 -7 44 3 44 15 0 5 -7 9 -15 9 -11 0 -15 13 -15 54 0 85 8 109 46 134 34 22 77 79 89 119 4 15 0 28 -14 42 -23 23 -34 24 -68 11z m38 -68 c-13 -30 -71 -93 -71 -76 0 27 24 88 42 106 28 28 45 10 29 -30z"/>
<path d="M11083 4138 c-6 -13 -32 -51 -57 -85 -26 -35 -45 -67 -41 -73 11 -18 34 -10 49 18 13 25 15 26 21 7 3 -11 12 -32 20 -47 12 -24 11 -27 -8 -32 -12 -3 -35 -6 -52 -6 -39 0 -64 -15 -49 -30 16 -16 256 -9 262 8 3 9 -12 12 -53 12 -36 0 -54 4 -50 10 4 6 -3 30 -14 53 -22 45 -21 52 14 165 6 18 3 22 -12 22 -11 0 -24 -10 -30 -22z"/>
<path d="M9910 4141 c-26 -4 -36 -12 -38 -28 -3 -17 2 -23 17 -23 11 0 23 5 26 10 9 14 92 13 101 -2 4 -6 -7 -23 -27 -39 -19 -16 -32 -29 -29 -30 3 0 29 -6 59 -12 30 -7 56 -18 59 -25 4 -13 -70 -51 -102 -52 -15 0 -16 3 -6 15 18 22 5 30 -26 17 -18 -9 -24 -19 -22 -35 5 -33 78 -36 137 -5 74 38 80 75 18 106 -22 11 -25 18 -21 41 5 23 1 32 -17 44 -30 19 -84 26 -129 18z"/>
<path d="M7861 4121 c-18 -18 -51 -107 -51 -138 0 -20 -50 -28 -79 -12 -32 18 -39 66 -17 111 21 41 20 48 -5 48 -13 0 -25 -11 -35 -35 -36 -86 -4 -153 79 -162 l47 -6 0 -52 c0 -62 15 -111 37 -119 23 -9 29 2 15 24 -7 11 -12 53 -12 94 0 74 0 74 35 95 84 49 104 171 28 171 -13 0 -32 -9 -42 -19z m55 -25 c7 -18 -17 -65 -46 -91 l-23 -20 7 30 c11 43 37 95 47 95 5 0 12 -6 15 -14z"/>
<path d="M8931 4077 c-26 -54 -84 -112 -105 -104 -8 3 -21 27 -28 54 -16 57 -41 66 -87 33 l-30 -20 -3 27 c-2 20 -9 28 -22 28 -16 0 -20 -9 -23 -50 -1 -27 -4 -61 -5 -75 -5 -42 24 -33 65 20 20 28 42 50 47 50 5 0 18 -20 29 -45 21 -48 55 -65 94 -48 27 11 57 6 57 -10 0 -7 -7 -52 -15 -102 -18 -112 -19 -125 -1 -125 15 0 16 1 42 155 l17 100 48 32 49 31 0 -32 c0 -58 45 -73 105 -36 28 17 34 18 39 5 9 -25 65 -18 118 16 46 30 50 31 62 14 8 -11 31 -19 64 -23 70 -6 182 7 182 21 0 9 -30 12 -99 12 -56 0 -105 5 -110 10 -8 8 -5 22 8 49 31 59 1 59 -62 -2 -53 -50 -114 -88 -124 -78 -3 3 -1 24 5 48 18 69 -10 82 -43 21 -19 -35 -76 -83 -98 -83 -6 0 -7 24 -3 65 8 80 -1 83 -68 20 -27 -25 -52 -45 -55 -45 -3 0 -4 25 -3 55 5 70 -17 75 -47 12z"/>
<path d="M10661 4052 c-75 -34 -84 -41 -87 -67 -2 -17 4 -37 13 -47 20 -22 103 -48 156 -48 57 0 42 23 -22 32 -66 10 -116 35 -102 51 5 7 46 30 90 52 79 38 103 65 59 65 -13 0 -61 -17 -107 -38z"/>
<path d="M4676 4047 c-41 -41 -43 -216 -3 -267 23 -30 61 -50 94 -50 l33 0 -6 -57 c-7 -69 12 -106 43 -87 20 13 25 40 6 36 -9 -1 -13 15 -13 56 0 55 3 61 36 92 47 42 84 122 84 181 0 57 -18 77 -58 63 -37 -12 -67 -75 -82 -173 -12 -76 -14 -81 -37 -81 -40 0 -60 17 -79 65 -23 61 -14 172 16 197 24 19 26 34 4 42 -9 3 -25 -4 -38 -17z m236 -127 c-11 -45 -55 -130 -68 -130 -16 0 24 158 48 187 22 27 32 -3 20 -57z"/>
<path d="M7462 4053 c4 -22 43 -25 43 -3 0 8 -11 16 -23 18 -19 3 -23 0 -20 -15z"/>
<path d="M5165 3949 c-15 -23 17 -34 105 -34 106 0 124 17 30 27 -36 4 -79 10 -97 13 -18 3 -34 1 -38 -6z"/>
<path d="M6464 3879 c-49 -14 -66 -40 -71 -113 -7 -86 3 -138 25 -134 14 3 17 15 15 71 -1 63 0 67 21 67 47 0 126 31 142 56 16 23 15 26 -1 44 -20 22 -75 26 -131 9z m101 -28 c3 -6 -4 -15 -17 -22 -26 -14 -118 -39 -118 -32 0 15 24 45 43 53 30 12 84 12 92 1z"/>
<path d="M10460 3850 c0 -18 7 -20 64 -20 37 0 105 -11 162 -26 134 -35 154 -39 154 -25 0 18 -51 36 -181 65 -146 33 -199 34 -199 6z"/>
<path d="M5320 3801 c-49 -15 -130 -22 -130 -11 0 15 -26 12 -40 -5 -10 -12 -7 -17 14 -26 40 -19 206 15 206 41 0 11 -14 12 -50 1z"/>
<path d="M7038 3790 c-7 -11 -19 -20 -26 -20 -7 0 -16 -10 -21 -22 -11 -27 -48 -68 -62 -68 -5 0 -9 18 -7 39 2 48 -15 71 -53 71 -34 0 -59 -32 -59 -77 0 -17 -4 -35 -10 -38 -17 -10 -50 15 -50 38 0 50 -46 62 -85 22 -16 -15 -25 -19 -25 -10 0 21 -20 29 -34 14 -8 -9 -11 -33 -8 -66 5 -69 27 -70 67 -3 31 53 45 62 45 30 0 -11 9 -29 21 -41 19 -19 27 -20 82 -13 34 4 79 7 101 6 21 -2 45 3 54 10 13 11 14 10 9 -7 -3 -11 -7 -49 -9 -85 -2 -54 0 -65 14 -68 23 -4 36 25 50 111 l11 75 45 6 c42 6 82 29 82 47 0 4 -12 21 -26 38 -32 38 -86 43 -106 11z m76 -29 c19 -21 15 -26 -31 -36 -36 -7 -41 1 -23 36 13 24 32 24 54 0z m-239 -23 c-10 -31 -25 -47 -25 -26 0 24 11 48 22 48 5 0 6 -10 3 -22z"/>
<path d="M9791 3438 c-22 -33 -41 -69 -41 -79 0 -26 21 -35 35 -15 11 14 13 12 18 -16 3 -18 8 -41 12 -50 6 -15 2 -18 -21 -18 -53 0 -104 -13 -104 -25 0 -19 25 -22 133 -17 74 3 97 8 97 18 0 9 -11 14 -28 14 -25 0 -31 6 -40 39 -16 51 -15 114 1 154 8 18 12 38 10 45 -9 25 -32 10 -72 -50z"/>
<path d="M9440 3465 c-11 -13 -9 -20 11 -41 13 -13 45 -37 71 -52 l47 -28 -69 -18 c-69 -17 -97 -36 -85 -56 10 -16 40 -12 64 9 12 10 43 22 69 25 67 10 82 16 82 31 0 8 -12 22 -27 31 -88 54 -123 81 -123 97 0 21 -23 22 -40 2z"/>
<path d="M8698 3444 c-10 -3 -18 -14 -18 -25 0 -17 5 -19 55 -13 65 8 72 -4 20 -36 -50 -31 -40 -45 33 -46 36 0 68 -6 78 -15 15 -12 14 -15 -12 -26 -36 -15 -84 -17 -84 -2 0 21 -45 4 -48 -18 -4 -29 20 -35 92 -23 64 10 106 32 106 55 0 22 -38 52 -76 59 -33 7 -33 8 -19 30 23 35 1 58 -61 62 -27 1 -57 0 -66 -2z"/>
<path d="M9211 3431 c-10 -10 -22 -38 -25 -62 -16 -104 -13 -99 -65 -99 -26 0 -52 5 -59 12 -17 17 -15 59 4 86 16 24 12 42 -11 42 -20 0 -47 -56 -48 -98 -1 -24 5 -40 21 -52 24 -20 100 -34 126 -24 17 6 18 2 12 -42 -7 -54 8 -97 37 -102 18 -4 24 22 7 33 -5 3 -10 29 -10 56 0 41 5 54 26 74 15 14 30 25 35 25 16 0 49 69 49 102 0 61 -58 90 -99 49z m62 -32 c13 -20 -15 -84 -43 -99 -21 -11 -22 -10 -15 22 18 93 35 114 58 77z"/>
<path d="M7767 3434 c-4 -4 -7 -15 -7 -24 0 -21 -97 -115 -129 -125 -28 -8 -33 -3 -46 43 -14 50 -46 55 -90 12 l-32 -31 -7 25 c-4 18 -13 26 -27 26 -19 0 -21 -4 -15 -31 3 -17 6 -49 6 -70 0 -54 19 -50 66 14 22 28 44 51 49 49 6 -1 13 -14 17 -29 16 -58 76 -59 147 -3 35 28 51 36 51 25 0 -8 -11 -21 -25 -27 -30 -14 -33 -38 -5 -38 19 0 20 -4 14 -37 -3 -21 -13 -56 -20 -78 -13 -40 -8 -60 12 -47 13 9 41 91 50 150 5 35 15 50 55 83 l49 41 0 -35 c0 -55 40 -75 94 -48 30 16 37 16 47 5 25 -30 93 -12 166 43 l32 24 16 -30 c24 -47 84 -72 129 -55 28 11 17 24 -18 24 -42 0 -86 46 -86 90 0 45 -17 45 -70 -3 -58 -52 -118 -83 -132 -69 -6 6 -6 22 1 46 8 31 7 38 -7 43 -10 4 -20 -1 -26 -12 -20 -35 -74 -85 -91 -85 -16 0 -17 7 -12 55 3 32 1 57 -4 61 -6 3 -37 -15 -71 -42 l-60 -47 7 44 c4 24 8 48 9 53 1 12 -27 19 -37 10z"/>
<path d="M6491 3346 c-17 -24 -58 -68 -91 -98 -33 -30 -60 -60 -60 -66 0 -26 37 -10 82 35 l48 47 0 -62 0 -62 -55 0 c-49 0 -55 -2 -55 -20 0 -20 5 -20 142 -18 107 2 142 6 146 16 3 10 -4 13 -24 11 -16 -1 -49 -1 -74 -1 l-45 2 6 88 c3 51 13 101 23 120 16 31 15 52 -4 52 -5 0 -23 -20 -39 -44z"/>
<path d="M1785 2429 c-19 -91 -25 -203 -10 -206 6 -1 20 49 33 110 38 189 37 177 15 177 -17 0 -23 -13 -38 -81z"/>
<path d="M6160 2403 c-8 -3 -28 -17 -43 -32 -73 -68 -157 -289 -165 -433 l-4 -88 36 -36 c24 -24 43 -34 58 -32 29 4 26 21 -4 28 -28 7 -58 62 -58 106 0 53 46 217 84 299 45 96 79 143 112 151 15 4 24 12 22 22 -3 18 -16 23 -38 15z"/>
<path d="M7757 2308 c29 -84 36 -123 40 -210 6 -102 4 -110 -21 -162 -15 -31 -45 -71 -67 -90 -44 -37 -38 -56 9 -32 43 22 100 112 114 179 24 113 -40 408 -90 415 -20 3 -19 -1 15 -100z"/>
<path d="M12525 2390 c-3 -6 6 -15 22 -21 125 -47 166 -267 84 -444 -15 -34 -42 -77 -60 -97 -35 -40 -38 -48 -17 -48 20 0 71 62 101 120 82 163 66 373 -36 465 -38 34 -81 46 -94 25z"/>
<path d="M11322 2363 c-47 -19 -113 -290 -98 -400 11 -80 68 -153 120 -153 25 0 18 13 -17 35 -18 11 -40 36 -49 55 -43 84 -2 353 65 427 26 29 14 50 -21 36z"/>
<path d="M2545 2250 c-13 -20 8 -30 62 -30 49 0 54 -2 42 -16 -7 -8 -25 -22 -41 -30 -41 -21 -35 -40 13 -47 41 -5 79 -30 79 -52 0 -17 -45 -32 -114 -39 -64 -5 -72 -9 -61 -27 6 -8 28 -10 76 -6 114 10 162 51 122 105 -10 14 -28 30 -39 36 -10 6 -21 12 -23 14 -3 1 6 12 18 23 27 26 24 49 -9 66 -30 15 -116 17 -125 3z"/>
<path d="M2968 2250 c-81 -24 -136 -96 -144 -190 -2 -27 -8 -68 -14 -92 -13 -60 -12 -88 3 -88 9 0 20 29 32 80 16 70 20 78 36 70 28 -16 80 -11 127 10 58 26 88 89 72 150 -16 60 -51 79 -112 60z m66 -42 c51 -72 -25 -168 -120 -153 -24 3 -44 7 -44 9 0 16 37 105 49 120 16 19 66 45 88 46 6 0 19 -10 27 -22z"/>
<path d="M1547 2236 c-26 -7 -64 -27 -85 -43 -36 -30 -37 -33 -54 -144 -21 -143 -23 -209 -5 -209 9 0 20 44 36 141 12 78 27 152 33 164 22 49 137 87 177 59 38 -27 22 -77 -36 -116 -30 -19 -73 -24 -73 -8 0 16 -26 12 -41 -6 -20 -25 15 -47 61 -39 118 22 189 125 126 184 -30 28 -78 34 -139 17z"/>
<path d="M7091 2209 c-10 -17 -24 -52 -31 -77 -26 -103 -22 -97 -77 -100 -68 -4 -78 9 -58 76 9 28 20 54 25 57 18 11 10 35 -10 35 -28 0 -59 -70 -60 -132 0 -57 18 -70 95 -69 l52 0 -13 -57 c-18 -74 -18 -102 0 -102 16 0 20 10 36 96 14 72 14 71 66 107 44 30 84 91 84 129 0 68 -75 94 -109 37z m67 -35 c3 -33 -27 -87 -58 -104 -19 -10 -20 -9 -14 17 12 52 47 124 58 120 6 -2 12 -17 14 -33z"/>
<path d="M10721 2224 c-67 -29 -83 -55 -86 -141 -2 -43 -8 -98 -14 -123 -15 -62 -14 -100 2 -100 9 0 21 40 36 123 37 195 38 197 76 213 68 28 94 13 102 -59 4 -36 1 -48 -19 -72 -21 -24 -31 -28 -81 -27 -54 0 -71 -8 -46 -24 20 -12 112 -5 136 12 35 23 55 75 47 126 -13 79 -72 107 -153 72z"/>
<path d="M7312 2200 c-48 -30 -70 -88 -87 -236 -8 -71 -15 -139 -15 -151 0 -35 28 -28 35 10 33 172 61 285 74 300 12 15 13 20 2 26 -10 7 -7 12 10 25 30 21 62 20 81 -1 50 -58 22 -115 -76 -154 -46 -19 -59 -39 -24 -39 38 1 102 35 132 71 24 28 27 39 23 78 -9 82 -82 115 -155 71z"/>
<path d="M4424 2201 c-91 -22 -125 -64 -122 -153 0 -24 -6 -83 -15 -132 -9 -49 -14 -93 -11 -98 16 -25 29 12 59 161 19 93 39 167 47 172 19 13 79 29 106 29 38 0 62 -18 62 -47 0 -32 -65 -99 -106 -108 -16 -3 -39 -8 -51 -11 -37 -7 -26 -24 15 -24 103 1 206 105 173 176 -18 40 -79 53 -157 35z"/>
<path d="M5713 2203 c-15 -3 -23 -12 -23 -24 0 -18 5 -19 60 -13 36 4 60 3 60 -3 0 -14 -42 -50 -67 -58 -39 -11 -27 -33 21 -40 24 -4 59 -16 77 -27 l34 -21 -40 -14 c-22 -8 -62 -18 -90 -21 -36 -5 -51 -12 -53 -24 -5 -24 22 -23 116 1 76 20 102 34 102 56 0 17 -55 63 -85 71 l-23 6 24 23 c61 61 -2 109 -113 88z"/>
<path d="M12016 2195 c-7 -20 16 -29 53 -22 17 4 36 0 47 -8 18 -12 17 -14 -14 -32 -42 -24 -37 -43 16 -58 43 -13 72 -31 72 -45 0 -5 -23 -13 -50 -20 -40 -10 -54 -10 -66 1 -12 9 -17 10 -27 0 -9 -10 -8 -15 7 -27 50 -37 199 11 181 58 -3 8 -25 25 -48 38 -23 13 -43 24 -45 26 -2 1 4 14 13 28 16 24 16 26 -9 51 -20 20 -35 25 -74 25 -36 0 -52 -4 -56 -15z"/>
<path d="M8319 2175 c-15 -8 -34 -31 -44 -51 -17 -36 -75 -295 -75 -335 0 -27 34 -21 38 6 1 11 12 61 23 110 l21 90 60 0 c55 0 62 3 90 34 26 29 30 39 25 75 -10 72 -75 106 -138 71z m85 -37 c22 -31 20 -71 -4 -93 -23 -21 -113 -39 -107 -21 2 6 12 36 23 66 10 30 23 58 29 62 19 14 44 8 59 -14z"/>
<path d="M9889 2177 c-15 -7 -40 -24 -57 -38 -29 -25 -32 -35 -56 -185 -34 -215 -35 -228 -13 -232 14 -3 17 4 17 35 1 21 13 104 29 186 24 127 31 151 55 176 33 34 72 47 92 30 8 -7 14 -30 14 -60 0 -55 -15 -65 -80 -54 -33 5 -40 4 -40 -9 0 -34 123 -33 147 0 7 10 13 39 13 65 0 83 -50 119 -121 86z"/>
<path d="M4012 2168 c-5 -5 -7 -28 -4 -50 6 -50 -4 -58 -85 -58 -64 0 -78 -6 -64 -29 7 -10 26 -12 81 -6 l73 7 -6 -38 c-18 -114 -19 -144 -8 -144 15 0 26 31 40 117 l13 71 70 9 c47 5 73 13 76 22 4 12 -9 13 -72 8 l-76 -5 0 48 c0 48 -16 70 -38 48z"/>
<path d="M11534 2149 c-16 -17 -48 -42 -71 -56 -24 -14 -43 -29 -43 -34 0 -21 31 -20 66 2 l37 23 -6 -51 c-4 -39 -2 -55 9 -64 20 -17 27 -6 31 47 1 26 9 68 18 95 25 73 8 89 -41 38z"/>
<path d="M1984 2161 c-2 -2 -4 -10 -4 -18 0 -10 25 -13 113 -12 121 1 173 9 166 23 -4 9 -266 15 -275 7z"/>
<path d="M9460 2152 c-25 -10 -46 -25 -48 -35 -5 -22 16 -22 69 3 24 11 52 20 62 20 26 0 21 -25 -8 -38 -43 -20 -32 -42 21 -42 45 0 84 -13 84 -29 0 -11 -84 -32 -102 -26 -7 3 -20 1 -28 -5 -12 -7 -12 -12 -2 -22 15 -15 133 2 158 23 25 21 12 52 -32 75 -33 16 -39 24 -34 40 4 10 3 27 -2 37 -12 22 -77 22 -138 -1z"/>
<path d="M6204 2143 c-3 -10 -13 -35 -22 -56 -12 -30 -13 -43 -4 -57 7 -12 8 -37 2 -81 -5 -35 -10 -86 -10 -112 0 -41 3 -48 17 -45 14 2 18 15 20 59 4 97 32 243 50 257 26 19 97 15 116 -6 35 -38 11 -62 -70 -71 -31 -3 -58 -11 -60 -18 -6 -16 23 -20 82 -11 94 14 131 70 80 118 -22 21 -37 25 -91 26 -35 0 -67 4 -71 7 -12 13 -34 7 -39 -10z"/>
<path d="M10292 2118 l3 -33 -57 -3 c-61 -3 -89 -21 -64 -41 10 -8 26 -9 57 -2 68 16 69 16 69 -34 0 -25 5 -45 10 -45 13 0 30 43 30 76 0 21 4 24 40 24 29 0 40 4 40 15 0 11 -11 15 -39 15 -35 0 -39 3 -44 30 -5 22 -12 30 -27 30 -18 0 -21 -5 -18 -32z"/>
<path d="M12305 2118 c-7 -18 -16 -54 -20 -80 -6 -42 -4 -50 18 -72 15 -14 37 -26 51 -26 21 0 25 -5 28 -32 2 -21 9 -34 20 -36 14 -3 15 3 11 37 -5 36 -3 41 24 55 82 42 123 143 69 167 -55 25 -96 -13 -117 -110 -11 -54 -33 -67 -59 -36 -14 17 -5 84 15 112 21 27 19 53 -6 53 -13 0 -25 -11 -34 -32z m193 -30 c3 -16 -53 -88 -68 -88 -12 0 9 72 28 93 18 20 36 18 40 -5z"/>
<path d="M5133 2128 c-66 -7 -93 -14 -93 -23 0 -24 16 -25 116 -10 55 8 118 15 142 15 42 0 56 13 26 24 -20 8 -74 6 -191 -6z"/>
<path d="M8016 2124 c-3 -9 -6 -24 -6 -34 0 -16 -9 -19 -62 -22 -48 -2 -63 -7 -63 -18 0 -12 12 -14 63 -12 l63 4 -6 -35 c-7 -35 7 -77 25 -77 5 0 10 24 12 53 l3 52 43 3 c53 4 52 26 -2 30 -36 3 -37 4 -30 38 5 30 4 34 -14 34 -11 0 -23 -7 -26 -16z"/>
<path d="M13111 2101 c-82 -6 -105 -17 -79 -38 12 -10 143 4 216 22 33 8 17 25 -21 23 -18 -1 -70 -4 -116 -7z"/>
<path d="M2120 2093 c-83 -4 -96 -9 -81 -27 13 -16 79 -13 179 5 63 12 69 30 10 27 -24 -1 -72 -3 -108 -5z"/>
<path d="M6525 2090 c-15 -24 9 -30 98 -25 112 8 140 13 132 25 -8 13 -222 13 -230 0z"/>
<path d="M11665 2070 c-4 -6 -1 -17 5 -25 20 -24 220 -19 220 5 0 5 -39 10 -87 13 -49 2 -98 7 -109 11 -13 5 -25 3 -29 -4z"/>
<path d="M8900 2049 c0 -21 3 -22 77 -15 42 3 89 6 105 6 18 0 28 5 28 15 0 12 -18 15 -105 15 -101 0 -105 -1 -105 -21z"/>
<path d="M5176 2051 c-67 -4 -101 -10 -104 -18 -4 -14 122 -17 212 -5 57 8 77 33 24 30 -18 -1 -78 -4 -132 -7z"/>
<path d="M7470 2041 c-5 -11 -10 -29 -10 -41 0 -11 -6 -23 -14 -26 -20 -8 -17 -129 4 -129 9 0 17 15 23 41 6 31 14 43 30 48 50 13 57 9 57 -38 0 -41 19 -74 33 -59 4 3 7 28 7 54 0 45 17 79 41 79 5 0 9 9 9 20 0 14 -7 20 -21 20 -11 0 -32 -9 -46 -20 -14 -11 -41 -20 -59 -20 -32 0 -33 1 -24 26 14 37 12 64 -5 64 -8 0 -19 -9 -25 -19z"/>
<path d="M10895 2028 c-4 -18 -12 -44 -18 -58 -5 -14 -12 -49 -14 -78 -3 -47 -1 -53 14 -50 11 2 20 17 25 44 8 36 12 41 48 51 22 5 40 8 40 6 0 -2 -5 -24 -11 -49 -13 -50 0 -77 34 -72 24 4 35 28 13 28 -20 0 -20 5 4 82 11 34 20 69 20 76 0 20 -38 14 -45 -8 -3 -11 -18 -23 -33 -26 -15 -3 -33 -7 -39 -10 -17 -5 -16 9 1 51 15 36 12 45 -15 45 -12 0 -20 -11 -24 -32z"/>
<path d="M13063 2033 c-7 -2 -13 -11 -13 -18 0 -16 121 -30 180 -20 64 11 43 25 -44 30 -43 2 -85 6 -95 9 -9 2 -22 2 -28 -1z"/>
<path d="M3044 1970 c-23 -16 -53 -47 -68 -69 -17 -24 -33 -38 -42 -34 -18 6 -30 -23 -16 -40 7 -8 7 -27 0 -59 -9 -39 -8 -51 6 -73 35 -53 110 -53 134 1 14 28 32 32 32 6 0 -26 32 -52 64 -52 26 0 68 32 78 61 5 12 12 11 44 -6 22 -11 38 -25 38 -30 -1 -6 -34 -30 -73 -53 -40 -24 -79 -55 -88 -68 -14 -22 -14 -26 1 -49 20 -31 72 -33 132 -6 61 28 86 65 82 122 -3 43 -1 48 32 71 19 14 52 27 73 30 56 6 48 -19 -31 -98 -54 -55 -71 -79 -80 -116 -32 -129 83 -203 145 -93 24 43 43 135 43 211 0 47 2 51 40 74 22 14 40 27 40 31 0 17 -17 17 -47 -2 l-33 -21 0 36 c0 35 -7 41 -38 37 -8 -1 -2 17 15 47 23 42 26 52 14 66 -7 9 -26 16 -41 16 -51 0 -103 -90 -87 -150 3 -13 -5 -27 -28 -44 -32 -25 -33 -25 -50 -7 -9 11 -30 25 -46 31 -27 11 -28 14 -14 33 32 45 13 87 -39 87 -61 0 -105 -19 -122 -53 -29 -56 -32 -57 -64 -26 -18 18 -39 29 -56 29 -25 0 -22 3 22 25 74 37 141 116 127 151 -9 23 -57 16 -99 -16z m56 -19 c0 -12 -77 -81 -90 -81 -15 0 18 47 49 70 29 21 41 25 41 11z m410 -84 c0 -13 -47 -87 -55 -87 -12 0 -3 38 15 68 20 33 40 42 40 19z m-260 -56 c0 -10 -6 -24 -14 -30 -12 -10 -17 -8 -25 8 -17 31 -13 41 14 41 18 0 25 -5 25 -19z m-232 -43 c21 -21 14 -38 -16 -38 -36 0 -44 8 -31 31 11 22 30 24 47 7z m167 -9 c14 -42 -17 -91 -46 -73 -15 9 -10 56 8 76 21 23 30 23 38 -3z m-174 -68 c-8 -5 -20 -7 -28 -4 -21 8 -15 13 15 13 20 0 23 -3 13 -9z m302 -133 c-37 -41 -113 -63 -128 -38 -10 16 13 39 80 82 l60 38 3 -31 c2 -19 -3 -38 -15 -51z m182 -71 c-26 -103 -77 -128 -98 -48 -12 47 8 96 62 154 l46 50 3 -47 c2 -25 -4 -74 -13 -109z"/>
<path d="M4536 1974 c-3 -9 -6 -23 -6 -33 0 -9 -10 -25 -21 -35 -14 -12 -18 -21 -11 -28 5 -5 7 -28 4 -50 -4 -35 -3 -40 14 -36 11 2 22 17 29 40 13 46 11 44 65 50 l45 5 0 -56 c0 -43 3 -56 15 -56 11 0 17 17 22 62 6 52 12 67 35 87 26 23 27 26 11 42 -14 15 -22 16 -43 6 -14 -6 -25 -19 -25 -27 0 -17 -38 -35 -76 -35 -23 0 -24 2 -18 40 6 36 4 40 -14 40 -11 0 -23 -7 -26 -16z"/>
<path d="M8922 1973 c3 -16 14 -18 88 -15 98 3 130 8 130 22 0 6 -45 10 -111 10 -100 0 -110 -2 -107 -17z"/>
<path d="M8421 1943 c-6 -21 -11 -44 -11 -50 0 -7 -4 -13 -8 -13 -10 0 -15 -117 -6 -132 12 -19 34 16 34 53 0 33 4 41 26 49 50 19 53 16 51 -62 -2 -59 1 -73 13 -73 9 0 15 10 16 23 2 34 26 146 34 157 4 6 4 20 -1 33 -11 29 -43 26 -47 -5 -2 -15 -13 -24 -33 -28 -38 -9 -42 -4 -29 30 13 33 7 55 -14 55 -9 0 -19 -16 -25 -37z"/>
<path d="M5589 1133 c-92 -146 -118 -513 -42 -604 14 -16 31 -29 39 -29 19 0 18 3 -10 45 -33 48 -40 103 -33 249 8 171 38 278 94 338 14 14 22 31 19 37 -14 22 -37 10 -67 -36z"/>
<path d="M7570 1161 c0 -5 20 -19 45 -31 67 -33 128 -98 148 -160 43 -132 8 -250 -103 -353 -64 -60 -71 -75 -27 -58 37 14 91 66 125 119 106 167 66 358 -97 463 -44 28 -91 38 -91 20z"/>
<path d="M10138 1029 c-10 -5 -18 -17 -18 -26 0 -12 7 -14 35 -9 55 11 61 -2 20 -44 -23 -24 -35 -44 -32 -54 3 -8 30 -22 60 -32 30 -9 65 -25 78 -35 23 -17 23 -18 5 -38 -20 -22 -110 -56 -125 -47 -16 10 -41 -5 -41 -25 0 -23 9 -23 77 -5 65 17 131 54 138 77 10 30 -14 59 -68 85 -29 13 -58 24 -64 24 -20 0 -15 11 18 46 36 37 33 64 -7 82 -30 14 -53 15 -76 1z"/>
<path d="M9004 1005 c-10 -25 10 -33 67 -27 65 6 65 -12 -2 -62 -63 -47 -61 -66 6 -84 68 -18 105 -33 105 -42 0 -11 -39 -34 -93 -55 -44 -17 -49 -17 -60 -2 -10 14 -16 15 -37 4 -14 -7 -26 -21 -28 -31 -4 -17 1 -18 62 -14 45 4 85 15 123 34 100 51 98 85 -8 121 -35 12 -66 22 -68 23 -2 0 16 16 41 34 48 37 61 57 52 80 -7 19 -26 25 -95 33 -50 5 -60 3 -65 -12z"/>
<path d="M11238 1011 c-55 -11 -72 -32 -112 -132 -41 -101 -45 -129 -18 -129 24 0 84 122 77 153 -10 38 26 73 81 80 26 2 60 1 77 -4 59 -17 62 -55 11 -130 -70 -104 -78 -131 -43 -150 16 -8 24 -8 33 1 8 9 8 14 -1 17 -21 8 -15 24 33 98 24 38 47 80 50 92 8 32 -13 78 -40 91 -34 15 -106 22 -148 13z"/>
<path d="M9689 981 c-29 -30 -37 -64 -20 -90 7 -11 -2 -29 -30 -65 -85 -106 -52 -152 76 -104 37 14 85 57 85 76 0 8 -15 29 -34 47 l-35 33 25 23 c13 12 24 28 24 36 0 7 7 13 15 13 8 0 15 8 15 18 0 50 -75 58 -121 13z m74 -13 c4 -12 -40 -58 -55 -58 -15 0 -8 30 12 50 23 23 37 25 43 8z m-14 -157 c8 -14 6 -22 -7 -33 -22 -20 -50 -34 -84 -42 -39 -9 -36 10 8 68 30 39 38 45 54 36 11 -6 24 -19 29 -29z"/>
<path d="M9373 960 c-36 -22 -55 -52 -59 -95 -2 -16 -6 -46 -10 -67 -9 -52 19 -78 86 -78 45 0 55 4 94 40 69 64 85 143 37 191 -36 36 -98 40 -148 9z m121 -26 c34 -33 9 -127 -44 -164 -28 -20 -64 -25 -94 -14 -22 8 -20 54 4 84 24 30 25 40 5 40 -23 0 -18 16 16 44 35 30 89 35 113 10z"/>
<path d="M2614 963 c-48 -9 -72 -73 -31 -81 12 -3 20 4 24 18 8 31 52 46 72 25 15 -15 13 -18 -17 -43 -18 -15 -32 -30 -32 -34 0 -4 17 -16 38 -27 50 -26 82 -58 82 -81 0 -25 -45 -49 -107 -56 -45 -6 -47 -5 -28 9 17 13 18 16 4 22 -19 7 -69 -10 -69 -24 0 -17 44 -41 76 -41 43 0 122 25 145 46 39 35 18 94 -46 134 l-35 22 20 25 c25 32 25 48 0 73 -19 19 -47 23 -96 13z"/>
<path d="M4763 863 c-22 -60 -38 -114 -35 -122 5 -13 52 -11 109 5 20 5 22 2 25 -37 4 -55 25 -63 33 -12 10 63 37 147 53 165 15 18 11 48 -7 48 -17 0 -50 -51 -57 -85 -5 -30 -11 -35 -56 -45 -27 -7 -51 -10 -53 -8 -3 2 11 42 30 87 40 94 42 111 17 111 -15 0 -28 -24 -59 -107z"/>
<path d="M7407 963 c-4 -3 -7 -12 -7 -20 0 -9 16 -13 55 -13 63 0 65 -3 36 -85 -17 -48 -19 -50 -60 -53 -33 -3 -42 -7 -39 -20 3 -13 12 -16 37 -14 l32 2 -7 -46 c-6 -41 -5 -46 12 -42 10 2 20 12 22 23 9 58 11 62 37 58 32 -7 95 5 95 17 0 6 -19 10 -42 10 -66 0 -71 7 -48 68 28 72 26 100 -6 112 -29 11 -107 13 -117 3z"/>
<path d="M3186 903 c-58 -47 -66 -69 -27 -67 11 0 21 0 21 -1 0 -2 -7 -19 -15 -38 -19 -47 -19 -69 1 -65 9 2 28 36 45 78 17 41 35 79 40 85 12 12 12 42 0 49 -5 3 -34 -15 -65 -41z"/>
<path d="M4266 888 c-3 -34 -7 -62 -9 -63 -1 -2 -26 1 -54 4 -62 9 -83 1 -64 -23 9 -11 30 -16 66 -16 l53 0 7 -46 c8 -56 29 -54 33 4 3 34 7 43 25 46 12 3 42 8 66 13 25 4 46 13 48 20 3 9 -14 10 -68 6 l-71 -6 7 61 c6 57 5 62 -13 62 -16 0 -20 -9 -26 -62z"/>
<path d="M5783 880 c-40 -39 -73 -75 -73 -80 0 -20 45 -9 73 18 l29 27 -8 -25 c-11 -33 -11 -109 0 -112 4 -2 18 31 30 72 13 41 30 92 39 114 17 39 15 56 -6 56 -7 0 -45 -32 -84 -70z"/>
<path d="M6368 944 c-14 -14 13 -33 40 -28 15 2 34 0 42 -5 12 -8 11 -14 -9 -35 -13 -13 -21 -30 -19 -37 2 -7 33 -18 68 -25 98 -21 105 -41 22 -67 -26 -9 -60 -18 -75 -21 -39 -9 -28 -32 13 -28 18 1 57 12 88 25 99 40 97 78 -9 114 -35 12 -59 22 -54 23 6 0 16 10 24 21 11 19 10 24 -7 42 -21 20 -110 36 -124 21z"/>
<path d="M3332 924 c-12 -8 -22 -22 -22 -30 0 -15 36 -20 42 -5 2 5 15 13 31 16 51 13 33 -28 -43 -96 -51 -45 -70 -68 -68 -83 3 -20 9 -21 93 -19 93 1 151 15 140 33 -4 6 -14 9 -23 6 -10 -2 -53 -7 -97 -11 l-80 -6 40 33 c80 65 105 95 105 125 0 16 -5 34 -12 41 -17 17 -79 15 -106 -4z"/>
<path d="M5102 933 c-33 -6 -25 -39 8 -35 99 11 140 14 140 8 0 -3 -15 -26 -32 -51 -29 -42 -36 -46 -68 -43 -26 2 -35 -1 -38 -14 -3 -14 3 -18 27 -18 17 0 31 -2 31 -4 0 -2 -6 -22 -14 -44 -8 -22 -12 -43 -9 -46 17 -16 33 -1 48 44 l17 50 59 0 c46 0 59 3 59 15 0 11 -12 15 -45 15 -25 0 -45 3 -45 7 0 3 12 21 26 40 14 19 24 43 22 56 -3 21 -8 22 -83 23 -44 1 -90 0 -103 -3z"/>
<path d="M3619 880 c-31 -32 -39 -49 -44 -95 -6 -46 -4 -59 10 -75 58 -64 215 34 215 133 0 54 -27 77 -92 77 -47 0 -54 -3 -89 -40z m129 -2 c32 -32 -5 -111 -70 -144 -61 -32 -87 9 -48 74 11 18 18 37 15 42 -8 13 36 40 65 40 14 0 31 -5 38 -12z"/>
<path d="M6994 904 c-51 -25 -76 -58 -81 -108 -10 -84 45 -123 127 -90 77 31 114 126 69 176 -31 34 -75 42 -115 22z m74 -30 c66 -46 -19 -171 -97 -142 -21 7 -23 13 -18 54 4 35 12 52 38 75 37 33 46 35 77 13z"/>
<path d="M10757 893 c-4 -3 -7 -13 -7 -20 0 -8 -12 -44 -26 -80 -31 -78 -23 -98 26 -63 25 18 34 20 40 10 12 -19 103 -30 168 -19 31 5 58 9 60 9 1 0 2 5 2 11 0 8 -17 10 -52 6 -29 -3 -73 -2 -98 2 l-45 7 35 22 c19 12 45 25 58 28 12 4 22 12 22 20 0 21 -37 17 -104 -11 -33 -13 -61 -23 -63 -21 -2 2 4 20 12 41 9 20 14 44 11 51 -6 15 -28 19 -39 7z"/>
<path d="M11524 861 c-17 -10 -41 -40 -54 -65 -18 -39 -20 -49 -9 -62 13 -16 50 -15 106 1 17 6 22 2 25 -16 3 -27 47 -53 72 -43 23 9 20 22 -6 26 -16 2 -24 12 -29 36 -11 53 -21 58 -78 33 -27 -11 -52 -21 -55 -21 -11 0 8 36 32 63 30 32 52 35 52 7 0 -13 7 -20 20 -20 14 0 20 7 20 23 0 50 -47 69 -96 38z"/>
<path d="M8265 851 c-61 -5 -70 -8 -70 -26 0 -23 15 -24 115 -7 36 7 100 12 143 12 59 0 78 3 75 13 -5 14 -144 18 -263 8z"/>
<path d="M6735 840 c-11 -18 10 -32 41 -28 40 4 38 32 -3 36 -17 2 -34 -2 -38 -8z"/>
<path d="M6147 833 c-86 -3 -98 -6 -95 -21 3 -15 14 -17 79 -14 95 5 141 14 147 30 2 7 -4 11 -15 10 -10 -1 -62 -4 -116 -5z"/>
<path d="M2225 798 c-33 -5 -88 -7 -122 -4 -58 5 -63 4 -63 -14 0 -18 7 -20 73 -19 90 1 218 21 218 34 0 14 -35 15 -106 3z"/>
<path d="M2915 790 c-9 -15 4 -30 26 -30 12 0 19 7 19 20 0 21 -33 29 -45 10z"/>
<path d="M7199 729 c-16 -39 -18 -111 -3 -116 7 -2 15 12 19 34 4 20 13 50 21 65 19 36 18 48 -5 48 -11 0 -24 -12 -32 -31z"/>
<path d="M2161 731 c-51 -4 -86 -11 -88 -18 -7 -21 31 -23 157 -8 69 8 131 15 138 15 6 0 12 5 12 10 0 10 -70 11 -219 1z"/>
<path d="M8394 730 c-142 -15 -175 -22 -171 -34 5 -14 54 -13 190 4 66 8 106 18 104 24 -5 14 -35 16 -123 6z"/>
<path d="M9856 664 c-36 -77 -39 -91 -13 -81 19 7 80 125 73 143 -10 27 -24 13 -60 -62z"/>
<path d="M11902 731 c-20 -12 -10 -46 13 -46 14 0 20 7 20 24 0 27 -13 35 -33 22z"/>
</g><g transform="translate(1097.522549, 979.6207655993842) scale(0.40808740102544044)"><g transform="translate(-57.706759,297.537395) scale(0.100000,-0.100000)" fill="#000000" stroke="none">
<path d="M750 2973 c-57 -10 -88 -25 -119 -57 -40 -41 -55 -100 -46 -179 6 -45 12 -61 32 -77 32 -25 35 -25 64 -1 22 17 24 26 21 89 -4 105 24 120 164 87 33 -7 119 -19 190 -25 88 -8 134 -16 144 -26 32 -32 8 -420 -28 -456 -18 -18 -126 -28 -289 -28 -185 0 -206 -4 -250 -52 -55 -58 -58 -82 -55 -363 1 -145 7 -274 13 -293 11 -34 51 -62 89 -62 12 0 35 14 52 31 l31 30 -6 238 c-3 130 -3 249 0 264 l5 27 112 0 c234 1 363 26 423 82 58 54 98 260 91 463 -4 122 -7 138 -34 191 -40 81 -79 100 -217 108 -174 10 -361 14 -387 9z" fill="#4444bb"/>
<path d="M3660 2971 c-42 -9 -83 -34 -103 -65 -39 -59 -50 -127 -54 -343 -5 -206 -5 -212 18 -252 28 -50 78 -86 143 -102 48 -12 257 -8 370 7 l49 7 -7 -104 c-4 -57 -11 -189 -16 -294 -9 -177 -9 -192 8 -214 35 -47 100 -46 136 2 22 29 27 86 42 452 7 191 0 235 -44 283 -45 48 -92 56 -241 38 -146 -18 -229 -20 -265 -6 l-26 10 0 162 c0 156 8 230 27 249 5 5 99 6 210 2 l201 -6 5 -50 c3 -39 11 -56 31 -74 34 -29 48 -29 80 0 24 20 26 30 28 113 4 147 -23 169 -218 179 -242 11 -340 13 -374 6z" fill="#4444bb"/>
<path d="M1565 2945 c-14 -13 -25 -32 -25 -42 0 -10 -1 -297 -3 -638 -2 -677 -3 -662 55 -694 33 -19 73 -7 101 31 18 24 20 51 29 300 5 150 10 278 12 283 2 6 37 8 97 3 52 -3 135 -7 186 -7 154 -2 161 -10 143 -176 -21 -189 -27 -310 -18 -343 12 -45 45 -72 86 -72 71 0 102 46 102 151 0 33 7 118 16 187 24 190 9 280 -58 349 -50 52 -112 67 -263 65 -71 -1 -164 -6 -205 -11 -41 -4 -78 -7 -81 -5 -4 2 -10 108 -13 236 -9 286 -17 352 -47 384 -31 33 -82 32 -114 -1z" fill="#4444bb"/>
<path d="M2542 2944 c-55 -38 -64 -109 -53 -419 6 -186 9 -215 28 -250 50 -95 116 -125 302 -135 75 -4 171 -5 215 -1 l78 7 -4 -178 c-2 -97 -7 -181 -11 -184 -4 -4 -42 1 -85 11 -104 26 -285 27 -363 3 -106 -33 -149 -107 -99 -170 26 -34 68 -41 132 -21 74 23 202 20 308 -7 182 -47 274 5 301 168 12 77 27 831 19 994 -7 152 -20 181 -86 186 -88 7 -103 -51 -104 -401 l0 -219 -201 4 c-197 3 -201 3 -220 27 -18 21 -19 42 -19 283 l0 260 -29 29 c-33 33 -74 38 -109 13z" fill="#4444bb"/>
<path d="M2374 1391 c-55 -34 -79 -78 -79 -147 0 -51 4 -66 27 -96 35 -45 102 -73 153 -64 78 15 146 111 131 188 -20 108 -145 172 -232 119z" fill="#4444bb"/>
<path d="M1853 999 c-39 -11 -66 -56 -61 -101 6 -59 69 -64 76 -6 4 30 34 38 145 38 l67 0 0 -110 c0 -135 -1 -136 -132 -126 -85 6 -89 6 -113 -18 -24 -25 -25 -28 -25 -179 0 -162 4 -177 47 -177 35 0 43 29 43 159 l0 121 73 0 c85 0 141 14 168 41 17 17 19 34 19 169 0 147 -1 152 -25 175 -23 24 -30 25 -137 24 -62 0 -128 -5 -145 -10z" fill="#4444bb"/>
<path d="M2985 1000 c-91 -16 -93 -18 -104 -58 -15 -51 -14 -537 0 -564 19 -36 69 -48 204 -48 121 0 127 1 151 25 l24 24 -2 292 -3 292 -26 19 c-31 23 -161 33 -244 18z m169 -86 c14 -5 16 -37 16 -250 l0 -245 -102 3 -103 3 0 240 0 240 40 6 c57 9 131 10 149 3z" fill="#4444bb"/>
<path d="M2351 971 c-24 -24 -29 -73 -37 -372 -6 -232 -6 -237 15 -258 23 -23 29 -25 51 -11 12 7 16 40 20 150 l5 141 35 -23 c19 -13 59 -55 88 -93 30 -39 78 -96 108 -128 47 -51 56 -57 74 -47 29 16 25 42 -15 92 -19 24 -62 78 -95 121 -61 77 -61 77 -33 77 15 0 46 9 69 19 56 26 67 57 62 179 -6 156 -27 172 -220 172 -93 0 -111 -3 -127 -19z m257 -74 c16 -13 17 -168 0 -185 -7 -7 -41 -12 -84 -12 -40 0 -84 -4 -98 -10 l-26 -10 0 120 0 119 98 -6 c53 -3 103 -10 110 -16z" fill="#4444bb"/>
</g>
</g>
</svg>
