<?xml version="1.0" standalone="no"?>
<!DOCTYPE svg PUBLIC "-//W3C//DTD SVG 20010904//EN"
 "http://www.w3.org/TR/2001/REC-SVG-20010904/DTD/svg10.dtd">
<svg version="1.0" xmlns="http://www.w3.org/2000/svg"
 width="319.890900pt" height="278.000000pt" viewBox="0 0 319.890900 278.000000"
 preserveAspectRatio="xMidYMid meet">
<metadata>
Created by potrace 1.16, written by Peter Selinger 2001-2019
</metadata>
<g transform="translate(-3.109100,278.000000) scale(0.100000,-0.100000)"
fill="#000000" stroke="none">
<path d="M320 2766 c0 -8 -4 -16 -9 -18 -5 -1 -13 -16 -17 -32 -6 -25 -4 -28
10 -23 22 9 20 -5 -5 -37 -22 -28 -18 -49 8 -39 14 5 13 1 -5 -24 -27 -39 -27
-43 0 -43 l21 0 -21 -23 c-21 -22 -30 -57 -15 -57 3 0 15 7 25 17 27 24 22 0
-7 -31 -14 -15 -25 -34 -25 -42 0 -17 26 -19 33 -1 3 6 6 2 6 -10 1 -12 -9
-29 -20 -37 -24 -17 -19 -52 6 -42 22 8 18 -18 -5 -39 -11 -10 -20 -24 -20
-32 0 -17 37 -17 43 0 4 8 6 7 6 -3 1 -8 -8 -30 -20 -49 -15 -25 -17 -37 -9
-45 8 -8 13 -7 20 4 8 12 10 10 10 -9 0 -14 -12 -37 -26 -52 -26 -27 -25 -49
2 -49 20 0 17 -24 -6 -45 -11 -10 -20 -24 -20 -32 0 -19 27 -16 39 5 10 16 10
16 11 -1 0 -9 -11 -27 -25 -39 -26 -22 -34 -58 -14 -58 7 0 18 8 25 18 10 13
13 14 14 3 0 -8 -6 -22 -14 -30 -23 -27 -30 -61 -12 -61 20 0 20 -14 1 -30 -8
-7 -15 -19 -15 -26 0 -17 27 -18 33 -1 3 6 6 2 6 -10 1 -12 -5 -26 -13 -30
-19 -12 -38 -51 -27 -57 5 -4 16 -3 25 0 23 9 20 -7 -9 -46 -25 -34 -25 -50 1
-50 21 0 17 -17 -7 -34 -27 -18 -17 -41 12 -26 22 12 26 -2 5 -19 -9 -8 -54
-11 -134 -9 -66 2 -124 0 -128 -4 -11 -12 16 -38 41 -38 32 0 36 -8 19 -50
-18 -44 -15 -126 4 -123 12 3 16 -56 12 -185 -1 -41 2 -52 14 -52 19 0 18 -4
20 130 1 102 2 105 24 108 18 3 22 8 16 20 -7 18 -25 105 -27 137 -2 16 5 21
38 23 36 3 115 -15 115 -26 0 -2 -9 -15 -20 -29 -25 -33 -25 -47 0 -40 26 7
26 -8 0 -30 -25 -21 -25 -32 -3 -48 17 -13 17 -14 0 -32 -19 -21 -23 -43 -8
-43 6 0 13 5 16 10 14 22 23 8 14 -20 -6 -16 -15 -30 -20 -30 -5 0 -9 -9 -9
-21 0 -16 4 -19 20 -14 18 6 17 3 -6 -39 -20 -36 -23 -46 -11 -46 9 0 18 6 20
13 3 6 6 3 6 -9 1 -11 -8 -29 -19 -39 -11 -10 -20 -26 -20 -37 0 -20 11 -23
27 -7 7 7 13 7 17 0 4 -5 -8 -26 -25 -45 -33 -38 -32 -64 2 -46 28 16 25 -7
-6 -36 -32 -30 -32 -48 0 -42 31 6 34 -20 5 -47 -26 -23 -26 -39 0 -32 25 6
25 2 -1 -39 l-21 -34 26 -10 c23 -9 25 -12 14 -30 -7 -11 -16 -20 -20 -20 -5
0 -8 -7 -8 -16 0 -11 6 -14 20 -9 11 3 20 3 20 0 0 -13 -24 -50 -39 -62 -13
-10 -14 -14 -3 -25 11 -11 14 -10 22 2 5 8 12 11 16 8 8 -9 -23 -58 -36 -58
-6 0 -10 -7 -10 -16 0 -12 7 -15 25 -12 32 7 32 -8 0 -38 -33 -30 -33 -48 1
-40 29 8 27 -2 -10 -42 l-20 -23 22 -6 c27 -7 27 -8 2 -40 -23 -30 -19 -43 13
-36 21 6 21 5 -5 -24 -34 -35 -37 -58 -7 -50 17 5 20 2 15 -16 -21 -77 -21
-75 12 -40 29 31 72 45 72 23 0 -5 -4 -10 -10 -10 -5 0 -10 -7 -10 -15 0 -19
6 -19 38 3 26 18 72 35 72 26 0 -2 -5 -13 -12 -24 -20 -32 -3 -32 51 0 60 35
102 42 61 10 -18 -13 -22 -22 -14 -30 7 -7 22 -2 52 20 23 16 52 30 64 29 l23
0 -22 -16 c-13 -8 -23 -19 -23 -24 0 -16 37 -9 54 10 32 36 103 49 74 14 -20
-24 0 -26 45 -4 24 11 54 21 67 21 l23 0 -22 -24 c-34 -36 -9 -40 38 -5 31 22
51 29 74 27 l32 -4 -27 -13 c-28 -14 -39 -41 -17 -41 6 0 36 13 66 30 63 35
103 41 63 10 -40 -31 -3 -34 54 -5 27 14 61 25 75 25 l26 0 -25 -20 c-19 -14
-22 -22 -13 -31 8 -8 22 -4 55 18 23 17 53 32 65 35 28 7 42 -11 19 -24 -15
-8 -23 -38 -10 -38 3 0 24 13 47 29 23 15 53 32 65 36 21 6 23 5 13 -13 -20
-38 -11 -40 45 -11 31 15 63 25 72 22 13 -6 13 -8 -2 -18 -9 -7 -16 -17 -16
-24 0 -13 26 -15 35 -2 11 18 93 54 109 48 20 -8 21 -27 1 -27 -8 0 -15 -7
-15 -15 0 -20 8 -19 55 8 64 37 77 40 70 18 -10 -31 12 -34 52 -6 53 35 107
33 71 -4 -11 -10 -7 -11 17 -5 17 4 38 11 47 15 9 5 32 9 50 9 30 -1 31 -2 15
-14 -10 -8 -14 -17 -9 -20 13 -8 39 2 74 26 26 18 78 25 78 10 0 -4 -10 -12
-22 -17 -27 -12 -36 -35 -14 -35 18 0 91 43 101 60 7 12 55 14 55 2 0 -5 -11
-15 -25 -22 -24 -13 -35 -40 -16 -40 6 0 38 16 71 36 34 20 64 33 68 29 4 -3
-1 -11 -11 -16 -15 -9 -25 -39 -12 -39 3 0 28 11 55 25 56 29 90 34 71 11 -19
-22 3 -28 43 -11 44 19 46 19 46 0 0 -19 3 -19 48 4 38 20 59 24 102 22 23 -1
23 -2 -10 -19 -32 -18 -52 -42 -33 -42 5 0 33 11 61 25 57 28 72 31 54 13 -35
-35 19 -33 69 3 36 26 58 25 34 -1 -11 -12 -13 -20 -6 -20 18 0 99 38 106 50
8 13 45 13 45 0 0 -5 -13 -16 -30 -25 -26 -14 -41 -35 -24 -35 20 0 134 65
134 76 0 20 -74 23 -214 9 -90 -9 -98 5 -16 25 28 7 49 17 47 23 -5 17 -108
69 -123 63 -8 -3 -14 -12 -14 -21 0 -17 -18 -19 -164 -17 -67 1 -92 5 -98 15
-14 26 -58 30 -82 8 l-21 -20 -45 29 c-25 17 -54 37 -65 45 -10 8 -23 15 -28
15 -5 0 -26 13 -46 29 -20 15 -54 37 -76 48 -65 32 -186 101 -253 145 -28 18
-76 47 -127 76 -16 9 -35 22 -42 29 -7 6 -23 15 -36 19 -12 4 -24 10 -27 14
-6 8 -112 77 -149 97 -14 8 -45 29 -71 47 -26 19 -57 37 -70 41 -13 4 -32 15
-42 24 -10 10 -39 28 -65 41 -27 13 -54 30 -61 37 -7 7 -18 13 -24 13 -5 0
-28 15 -51 34 -23 18 -62 44 -87 56 -24 13 -56 30 -70 40 -14 9 -55 36 -92 59
-37 23 -77 51 -89 62 -12 10 -26 19 -30 19 -5 0 -29 16 -55 35 -25 19 -50 35
-56 35 -6 0 -25 11 -42 24 -17 12 -47 31 -66 41 -19 10 -50 31 -68 47 -18 15
-37 26 -41 23 -5 -2 -14 2 -21 9 -6 8 -25 18 -41 21 -24 5 -29 12 -29 35 0 20
-6 31 -20 35 -15 5 -20 16 -21 43 -1 20 -3 44 -4 52 -1 8 -3 21 -4 28 0 6 -5
12 -11 12 -6 0 -10 -28 -10 -64 0 -50 -4 -65 -16 -70 -9 -4 -19 -5 -21 -2 -4
4 -5 306 -3 1010 0 111 2 127 15 116 8 -7 15 -34 17 -66 4 -68 21 -71 29 -5 8
59 14 71 40 71 12 0 23 10 30 26 10 28 4 64 -11 64 -5 0 -21 12 -34 27 -23 25
-29 26 -56 16 -25 -9 -30 -9 -30 3 0 8 -10 14 -25 14 -15 0 -25 -6 -25 -14z
m138 -74 c3 -18 -1 -22 -23 -22 -14 0 -36 5 -47 11 -21 11 -21 12 8 25 39 17
58 13 62 -14z m-19 -1221 c21 -13 5 -41 -24 -41 -38 0 -33 44 5 49 3 0 11 -3
19 -8z m128 -103 c4 0 24 -13 44 -29 20 -16 40 -29 43 -29 10 0 189 -111 212
-131 11 -11 25 -19 31 -19 7 0 18 -6 25 -13 12 -12 72 -51 135 -89 15 -10 37
-23 47 -30 11 -7 44 -29 74 -48 30 -19 67 -43 81 -52 14 -10 38 -23 54 -29 15
-6 32 -20 38 -30 5 -10 18 -19 29 -19 10 0 31 -10 47 -23 15 -12 54 -35 86
-51 31 -16 57 -32 57 -37 0 -5 7 -9 15 -9 8 0 15 -4 15 -10 0 -5 4 -10 9 -10
13 0 95 -55 111 -75 7 -8 18 -15 25 -15 7 0 35 -15 61 -33 27 -18 65 -41 85
-50 20 -9 42 -23 49 -32 7 -8 17 -15 22 -15 5 0 40 -20 78 -45 38 -25 73 -45
78 -45 5 0 22 -11 38 -25 16 -14 31 -25 34 -26 31 -5 44 -11 71 -33 17 -14 37
-26 44 -26 7 0 15 -4 17 -8 2 -5 15 -15 29 -23 125 -66 199 -125 185 -147 -2
-4 -75 -7 -163 -7 -87 1 -160 -2 -163 -6 -3 -4 -57 -4 -120 0 -63 4 -143 3
-177 -1 -69 -8 -366 -3 -381 6 -6 4 -13 2 -16 -2 -3 -5 -238 -10 -523 -11
-413 -1 -515 1 -505 11 6 6 12 19 12 28 0 23 -29 80 -41 80 -5 0 -9 20 -9 44
0 26 -6 48 -15 56 -18 15 -23 5 -27 -54 -3 -44 -23 -59 -31 -24 -3 13 -6 276
-7 586 l0 562 32 0 c18 0 44 9 57 19 23 18 24 18 62 -7 20 -13 41 -24 46 -24z
m-118 -1202 c6 -7 9 -21 5 -29 -8 -22 -37 -26 -51 -7 -9 12 -8 19 4 33 19 21
27 21 42 3z m2179 -12 c3 -23 -26 -38 -48 -24 -9 6 -9 12 2 29 16 26 42 23 46
-5z m281 -30 c37 -12 -13 -19 -130 -19 -94 0 -129 3 -129 12 0 18 208 23 259
7z"/>
<path d="M417 1323 c-4 -3 -7 -33 -7 -65 0 -51 3 -59 17 -56 17 3 19 15 15 96
-2 31 -11 40 -25 25z"/>
<path d="M410 976 c0 -44 5 -78 11 -82 19 -11 28 18 26 86 -2 53 -5 65 -19 68
-16 3 -18 -5 -18 -72z"/>
<path d="M417 794 c-4 -4 -7 -34 -7 -66 0 -45 3 -58 15 -58 15 0 21 31 17 89
-1 27 -15 45 -25 35z"/>
<path d="M417 564 c-12 -12 -8 -142 4 -150 20 -12 29 19 27 85 -3 59 -14 82
-31 65z"/>
<path d="M396 2392 c-7 -19 9 -160 18 -170 3 -3 9 -3 12 1 8 8 7 164 -1 177
-10 15 -23 12 -29 -8z"/>
<path d="M406 2093 c-6 -21 -1 -122 7 -130 17 -16 27 15 25 74 -3 65 -20 95
-32 56z"/>
<path d="M407 1833 c-8 -43 4 -154 17 -150 10 3 13 53 8 145 -2 39 -18 42 -25
5z"/>
<path d="M66 858 c-7 -42 10 -198 24 -212 17 -17 31 14 24 52 -7 34 8 62 32
62 9 0 14 -18 16 -57 3 -54 5 -58 29 -61 32 -4 48 23 19 31 -15 4 -20 16 -22
63 l-3 59 -42 3 c-41 3 -42 4 -45 44 -4 51 -23 61 -32 16z"/>
<path d="M136 465 c-3 -9 -3 -55 0 -101 l7 -84 -25 0 c-28 0 -29 7 2 -110 19
-71 15 -80 -34 -80 -45 0 -69 -16 -46 -30 7 -4 54 -7 104 -7 78 2 91 5 94 19
3 15 -4 18 -33 18 l-36 0 7 53 c4 28 11 60 15 69 13 24 11 49 -5 62 -9 7 -16
42 -19 100 -6 88 -18 124 -31 91z"/>
<path d="M3139 468 c-1 -2 -3 -20 -4 -40 -2 -21 -11 -48 -19 -60 l-15 -21 -11
27 c-6 16 -9 40 -8 55 3 21 -2 27 -23 29 -14 2 -31 -4 -39 -12 -10 -13 -10
-16 3 -16 11 0 19 -17 27 -53 21 -92 53 -111 81 -48 8 17 17 31 20 31 4 0 10
11 13 25 3 13 16 33 27 44 26 24 17 41 -22 41 -16 0 -29 -1 -30 -2z"/>
</g>
</svg>
