<?xml version="1.0" encoding="utf-8" standalone="no"?>
<!DOCTYPE svg PUBLIC "-//W3C//DTD SVG 1.1//EN"
  "http://www.w3.org/Graphics/SVG/1.1/DTD/svg11.dtd">
<svg xmlns:xlink="http://www.w3.org/1999/xlink" width="247.071231pt" height="221.841731pt" viewBox="0 0 247.071231 221.841731" xmlns="http://www.w3.org/2000/svg" version="1.1">
 <metadata>
  <rdf:RDF xmlns:dc="http://purl.org/dc/elements/1.1/" xmlns:cc="http://creativecommons.org/ns#" xmlns:rdf="http://www.w3.org/1999/02/22-rdf-syntax-ns#">
   <cc:Work>
    <dc:type rdf:resource="http://purl.org/dc/dcmitype/StillImage"/>
    <dc:date>2023-04-20T22:28:39.854647</dc:date>
    <dc:format>image/svg+xml</dc:format>
    <dc:creator>
     <cc:Agent>
      <dc:title>Matplotlib v3.7.1, https://matplotlib.org/</dc:title>
     </cc:Agent>
    </dc:creator>
   </cc:Work>
  </rdf:RDF>
 </metadata>
 <defs>
  <style type="text/css">*{stroke-linejoin: round; stroke-linecap: butt}</style>
 </defs>
 <g id="figure_1">
  <g id="patch_1">
   <path d="M 0 221.841731 
L 247.071231 221.841731 
L 247.071231 0 
L 0 0 
L 0 221.841731 
z
" style="fill: none"/>
  </g>
  <g id="axes_1">
   <g id="patch_2">
    <path d="M 183.825286 21.671408 
C 184.003425 19.39829 183.724166 17.096383 183.023592 15.063121 
C 182.323018 13.029859 181.232662 11.356757 179.89341 10.26 
" clip-path="url(#p128a2ff8d7)" style="fill: none; stroke: #000000; stroke-width: 2; stroke-linejoin: miter"/>
   </g>
   <g id="patch_3">
    <path d="M 182.896444 29.573002 
L 181.510256 21.70738 
L 183.774366 21.973529 
L 183.810091 21.669621 
L 183.840482 21.673194 
L 183.804757 21.977101 
L 186.068868 22.243251 
z
" clip-path="url(#p128a2ff8d7)" style="stroke: #000000; stroke-linejoin: miter"/>
   </g>
   <g id="line2d_1">
    <path d="M 41.5876 211.581731 
L 41.5876 122.535731 
M 33.9376 122.535731 
L 49.2376 122.535731 
M 33.9376 117.027731 
L 49.2376 117.027731 
M 41.5876 117.027731 
L 41.5876 27.981731 
" clip-path="url(#p128a2ff8d7)" style="fill: none; stroke: #000000; stroke-width: 2; stroke-linecap: round"/>
   </g>
   <g id="line2d_2">
    <path d="M 41.5876 27.981731 
L 87.4876 27.981731 
L 133.3876 27.981731 
" clip-path="url(#p128a2ff8d7)" style="fill: none; stroke: #000000; stroke-width: 2; stroke-linecap: round"/>
   </g>
   <g id="line2d_3">
    <path d="M 133.3876 27.981731 
L 133.3876 104.481731 
L 135.83728 104.573097 
L 138.314005 104.851042 
L 140.621109 105.310164 
L 142.575394 105.930677 
L 144.021676 106.67998 
L 144.516577 107.089854 
L 144.845113 107.515243 
L 145.000728 107.949755 
L 144.980318 108.386814 
L 144.784291 108.819794 
L 144.416556 109.242153 
L 143.884451 109.647557 
L 142.372663 110.383985 
L 140.368971 110.987271 
L 138.03248 111.426182 
L 135.548723 111.682535 
L 133.114925 111.752647 
L 130.924344 111.647619 
L 129.150926 111.392463 
L 127.935491 111.024111 
L 127.374553 110.588482 
L 127.355596 110.361359 
L 127.512652 110.136839 
L 128.338824 109.721715 
L 129.787465 109.392746 
L 131.743544 109.192723 
L 134.051736 109.154201 
L 136.528758 109.296909 
L 138.977917 109.626186 
L 141.204736 110.132555 
L 143.032392 110.79248 
L 144.315758 111.570229 
L 144.71955 111.989468 
L 144.952926 112.420713 
L 145.011231 112.857454 
L 144.893302 113.293071 
L 144.601491 113.720968 
L 144.14162 114.134703 
L 142.757568 114.895447 
L 140.851048 115.531569 
L 138.57345 116.009225 
L 136.105629 116.307158 
L 133.643545 116.418382 
L 131.382703 116.350734 
L 129.502628 116.126257 
L 128.152608 115.779448 
L 127.439844 115.354514 
L 127.342249 115.128371 
L 127.420934 114.90187 
L 127.674329 114.681627 
L 128.681643 114.285611 
L 130.284204 113.988438 
L 132.354759 113.830376 
L 134.728894 113.840649 
L 137.218086 114.035109 
L 139.62468 114.414988 
L 141.757577 114.96679 
L 143.447412 115.663371 
L 144.560001 116.466088 
L 144.87021 116.892768 
L 145.006998 117.32787 
L 144.967636 117.764808 
L 144.752909 118.196959 
L 144.367102 118.617795 
L 143.116293 119.400665 
L 141.314531 120.067926 
L 139.104888 120.583263 
L 136.662823 120.922426 
L 134.18225 121.075154 
L 131.860142 121.045991 
L 129.880889 120.853922 
L 128.401656 120.53087 
L 127.539902 120.119159 
L 127.364057 119.895311 
L 127.364057 119.66815 
L 127.539902 119.444302 
L 128.401656 119.032591 
L 129.880889 118.709539 
L 131.860142 118.51747 
L 134.18225 118.488307 
L 136.662823 118.641035 
L 139.104888 118.980198 
L 141.314531 119.495535 
L 143.116293 120.162796 
L 144.367102 120.945666 
L 144.752909 121.366502 
L 144.967636 121.798653 
L 145.006998 122.235591 
L 144.87021 122.670693 
L 144.560001 123.097374 
L 144.08256 123.509213 
L 142.667229 124.2643 
L 140.736604 124.892665 
L 138.443989 125.361084 
L 135.971431 125.649032 
L 133.515266 125.750315 
L 131.270528 125.67356 
L 129.415465 125.441534 
L 128.097379 125.089332 
L 127.420934 124.661591 
L 127.342249 124.43509 
L 127.439844 124.208947 
L 127.711772 123.989765 
L 128.753556 123.59789 
L 130.384877 123.307254 
L 132.476198 123.157604 
L 134.861455 123.177496 
L 137.351245 123.382021 
L 139.747861 123.771608 
L 141.861 124.331992 
L 143.522864 125.035347 
L 144.601491 125.842493 
L 144.893302 126.27039 
L 145.011231 126.706007 
L 144.952926 127.142748 
L 144.71955 127.573993 
L 144.315758 127.993232 
L 143.032392 128.770981 
L 141.204736 129.430906 
L 138.977917 129.937276 
L 136.528758 130.266552 
L 134.051736 130.40926 
L 131.743544 130.370738 
L 129.787465 130.170715 
L 128.338824 129.841746 
L 127.512652 129.426622 
L 127.355596 129.202102 
L 127.374553 128.974979 
L 127.569145 128.75188 
L 128.466281 128.343724 
L 129.975766 128.026713 
L 131.977736 127.842691 
L 134.313223 127.822942 
L 136.796776 127.985704 
L 139.231184 128.334723 
L 141.423141 128.858957 
L 143.198593 129.533448 
L 144.416556 130.321308 
L 144.784291 130.743667 
L 144.980318 131.176648 
L 145.000728 131.613706 
L 144.845113 132.048218 
L 144.516577 132.473607 
L 144.021676 132.883482 
L 142.575394 133.632784 
L 140.621109 134.253298 
L 138.314005 134.71242 
L 135.83728 134.990364 
L 133.3876 135.081731 
L 133.3876 211.581731 
L 133.3876 211.581731 
" clip-path="url(#p128a2ff8d7)" style="fill: none; stroke: #000000; stroke-width: 2; stroke-linecap: round"/>
   </g>
   <g id="line2d_4">
    <path d="M 133.3876 27.981731 
L 163.9876 27.981731 
M 171.3316 24.921731 
L 188.4676 14.211731 
M 194.5876 27.981731 
L 225.1876 27.981731 
" clip-path="url(#p128a2ff8d7)" style="fill: none; stroke: #000000; stroke-width: 2; stroke-linecap: round"/>
   </g>
   <g id="line2d_5">
    <path d="M 225.1876 27.981731 
L 225.1876 104.481731 
L 227.63728 104.573097 
L 230.114005 104.851042 
L 232.421109 105.310164 
L 234.375394 105.930677 
L 235.821676 106.67998 
L 236.316577 107.089854 
L 236.645113 107.515243 
L 236.800728 107.949755 
L 236.780318 108.386814 
L 236.584291 108.819794 
L 236.216556 109.242153 
L 235.684451 109.647557 
L 234.172663 110.383985 
L 232.168971 110.987271 
L 229.83248 111.426182 
L 227.348723 111.682535 
L 224.914925 111.752647 
L 222.724344 111.647619 
L 220.950926 111.392463 
L 219.735491 111.024111 
L 219.174553 110.588482 
L 219.155596 110.361359 
L 219.312652 110.136839 
L 220.138824 109.721715 
L 221.587465 109.392746 
L 223.543544 109.192723 
L 225.851736 109.154201 
L 228.328758 109.296909 
L 230.777917 109.626186 
L 233.004736 110.132555 
L 234.832392 110.79248 
L 236.115758 111.570229 
L 236.51955 111.989468 
L 236.752926 112.420713 
L 236.811231 112.857454 
L 236.693302 113.293071 
L 236.401491 113.720968 
L 235.94162 114.134703 
L 234.557568 114.895447 
L 232.651048 115.531569 
L 230.37345 116.009225 
L 227.905629 116.307158 
L 225.443545 116.418382 
L 223.182703 116.350734 
L 221.302628 116.126257 
L 219.952608 115.779448 
L 219.239844 115.354514 
L 219.142249 115.128371 
L 219.220934 114.90187 
L 219.474329 114.681627 
L 220.481643 114.285611 
L 222.084204 113.988438 
L 224.154759 113.830376 
L 226.528894 113.840649 
L 229.018086 114.035109 
L 231.42468 114.414988 
L 233.557577 114.96679 
L 235.247412 115.663371 
L 236.360001 116.466088 
L 236.67021 116.892768 
L 236.806998 117.32787 
L 236.767636 117.764808 
L 236.552909 118.196959 
L 236.167102 118.617795 
L 234.916293 119.400665 
L 233.114531 120.067926 
L 230.904888 120.583263 
L 228.462823 120.922426 
L 225.98225 121.075154 
L 223.660142 121.045991 
L 221.680889 120.853922 
L 220.201656 120.53087 
L 219.339902 120.119159 
L 219.164057 119.895311 
L 219.164057 119.66815 
L 219.339902 119.444302 
L 220.201656 119.032591 
L 221.680889 118.709539 
L 223.660142 118.51747 
L 225.98225 118.488307 
L 228.462823 118.641035 
L 230.904888 118.980198 
L 233.114531 119.495535 
L 234.916293 120.162796 
L 236.167102 120.945666 
L 236.552909 121.366502 
L 236.767636 121.798653 
L 236.806998 122.235591 
L 236.67021 122.670693 
L 236.360001 123.097374 
L 235.88256 123.509213 
L 234.467229 124.2643 
L 232.536604 124.892665 
L 230.243989 125.361084 
L 227.771431 125.649032 
L 225.315266 125.750315 
L 223.070528 125.67356 
L 221.215465 125.441534 
L 219.897379 125.089332 
L 219.220934 124.661591 
L 219.142249 124.43509 
L 219.239844 124.208947 
L 219.511772 123.989765 
L 220.553556 123.59789 
L 222.184877 123.307254 
L 224.276198 123.157604 
L 226.661455 123.177496 
L 229.151245 123.382021 
L 231.547861 123.771608 
L 233.661 124.331992 
L 235.322864 125.035347 
L 236.401491 125.842493 
L 236.693302 126.27039 
L 236.811231 126.706007 
L 236.752926 127.142748 
L 236.51955 127.573993 
L 236.115758 127.993232 
L 234.832392 128.770981 
L 233.004736 129.430906 
L 230.777917 129.937276 
L 228.328758 130.266552 
L 225.851736 130.40926 
L 223.543544 130.370738 
L 221.587465 130.170715 
L 220.138824 129.841746 
L 219.312652 129.426622 
L 219.155596 129.202102 
L 219.174553 128.974979 
L 219.369145 128.75188 
L 220.266281 128.343724 
L 221.775766 128.026713 
L 223.777736 127.842691 
L 226.113223 127.822942 
L 228.596776 127.985704 
L 231.031184 128.334723 
L 233.223141 128.858957 
L 234.998593 129.533448 
L 236.216556 130.321308 
L 236.584291 130.743667 
L 236.780318 131.176648 
L 236.800728 131.613706 
L 236.645113 132.048218 
L 236.316577 132.473607 
L 235.821676 132.883482 
L 234.375394 133.632784 
L 232.421109 134.253298 
L 230.114005 134.71242 
L 227.63728 134.990364 
L 225.1876 135.081731 
L 225.1876 211.581731 
L 225.1876 211.581731 
" clip-path="url(#p128a2ff8d7)" style="fill: none; stroke: #000000; stroke-width: 2; stroke-linecap: round"/>
   </g>
   <g id="line2d_6">
    <path d="M 225.1876 211.581731 
L 133.3876 211.581731 
L 41.5876 211.581731 
" clip-path="url(#p128a2ff8d7)" style="fill: none; stroke: #000000; stroke-width: 2; stroke-linecap: round"/>
   </g>
   <g id="text_1">
    <!-- $C$ -->
    <g transform="translate(13.778559 125.883065) scale(0.245 -0.245)">
     <defs>
      <path id="CMMI12-43" d="M 4781 4423 
C 4781 4480 4736 4480 4723 4480 
C 4710 4480 4685 4480 4634 4416 
L 4192 3882 
C 3968 4264 3616 4480 3136 4480 
C 1754 4480 320 3088 320 1595 
C 320 533 1069 -128 2003 -128 
C 2515 -128 2963 88 3334 400 
C 3891 863 4058 1481 4058 1531 
C 4058 1588 4006 1588 3987 1588 
C 3930 1588 3923 1550 3910 1524 
C 3616 534 2752 57 2112 57 
C 1434 57 845 489 845 1391 
C 845 1595 909 2700 1632 3532 
C 1984 3939 2586 4295 3194 4295 
C 3898 4295 4211 3717 4211 3068 
C 4211 2903 4192 2764 4192 2738 
C 4192 2681 4256 2681 4275 2681 
C 4346 2681 4352 2687 4378 2801 
L 4781 4423 
z
" transform="scale(0.015625)"/>
     </defs>
     <use xlink:href="#CMMI12-43" transform="scale(0.996264)"/>
    </g>
   </g>
   <g id="text_2">
    <!-- $L$ -->
    <g transform="translate(108.021389 125.883065) scale(0.245 -0.245)">
     <defs>
      <path id="CMMI12-4c" d="M 2349 3861 
C 2406 4103 2426 4167 2989 4167 
C 3162 4167 3206 4167 3206 4288 
C 3206 4352 3136 4352 3110 4352 
C 2982 4352 2835 4352 2707 4352 
L 1850 4352 
C 1728 4352 1587 4352 1466 4352 
C 1414 4352 1344 4352 1344 4231 
C 1344 4167 1402 4167 1498 4167 
C 1888 4167 1888 4116 1888 4046 
C 1888 4034 1888 3995 1862 3899 
L 998 472 
C 941 249 928 185 480 185 
C 358 185 294 185 294 70 
C 294 0 333 0 461 0 
L 3328 0 
C 3469 0 3475 6 3520 121 
L 4013 1478 
C 4026 1510 4038 1548 4038 1567 
C 4038 1605 4006 1631 3974 1631 
C 3968 1631 3936 1631 3923 1605 
C 3910 1599 3910 1586 3859 1465 
C 3654 905 3366 185 2285 185 
L 1670 185 
C 1581 185 1568 185 1530 192 
C 1459 198 1453 211 1453 262 
C 1453 307 1466 345 1478 401 
L 2349 3861 
z
" transform="scale(0.015625)"/>
     </defs>
     <use xlink:href="#CMMI12-4c" transform="scale(0.996264)"/>
    </g>
   </g>
   <g id="patch_4">
    <path d="M 167.6596 31.653731 
C 168.633426 31.653731 169.567497 31.266825 170.256096 30.578227 
C 170.944695 29.889628 171.3316 28.955556 171.3316 27.981731 
C 171.3316 27.007905 170.944695 26.073833 170.256096 25.385234 
C 169.567497 24.696636 168.633426 24.309731 167.6596 24.309731 
C 166.685774 24.309731 165.751703 24.696636 165.063104 25.385234 
C 164.374505 26.073833 163.9876 27.007905 163.9876 27.981731 
C 163.9876 28.955556 164.374505 29.889628 165.063104 30.578227 
C 165.751703 31.266825 166.685774 31.653731 167.6596 31.653731 
z
" clip-path="url(#p128a2ff8d7)" style="fill: #ffffff; stroke: #000000; stroke-width: 2; stroke-linejoin: miter"/>
   </g>
   <g id="patch_5">
    <path d="M 190.9156 31.653731 
C 191.889426 31.653731 192.823497 31.266825 193.512096 30.578227 
C 194.200695 29.889628 194.5876 28.955556 194.5876 27.981731 
C 194.5876 27.007905 194.200695 26.073833 193.512096 25.385234 
C 192.823497 24.696636 191.889426 24.309731 190.9156 24.309731 
C 189.941774 24.309731 189.007703 24.696636 188.319104 25.385234 
C 187.630505 26.073833 187.2436 27.007905 187.2436 27.981731 
C 187.2436 28.955556 187.630505 29.889628 188.319104 30.578227 
C 189.007703 31.266825 189.941774 31.653731 190.9156 31.653731 
z
" clip-path="url(#p128a2ff8d7)" style="fill: #ffffff; stroke: #000000; stroke-width: 2; stroke-linejoin: miter"/>
   </g>
   <g id="text_3">
    <!-- $K$ -->
    <g transform="translate(169.121005 51.664052) scale(0.245 -0.245)">
     <defs>
      <path id="CMMI12-4b" d="M 3200 2571 
C 3194 2590 3168 2641 3168 2661 
C 3168 2667 3174 2673 3283 2756 
L 3904 3242 
C 4762 3905 5043 4128 5485 4167 
C 5530 4167 5594 4167 5594 4282 
C 5594 4320 5574 4352 5523 4352 
C 5453 4352 5376 4352 5306 4352 
L 5062 4352 
C 4864 4352 4653 4352 4461 4352 
C 4416 4352 4339 4352 4339 4237 
C 4339 4173 4384 4167 4422 4167 
C 4493 4160 4576 4135 4576 4046 
C 4576 3919 4384 3765 4333 3727 
L 1824 1784 
L 2355 3887 
C 2413 4103 2426 4167 2880 4167 
C 3002 4167 3059 4167 3059 4288 
C 3059 4352 2995 4352 2963 4352 
C 2848 4352 2714 4352 2592 4352 
L 1837 4352 
C 1722 4352 1581 4352 1466 4352 
C 1414 4352 1344 4352 1344 4231 
C 1344 4167 1402 4167 1498 4167 
C 1888 4167 1888 4116 1888 4046 
C 1888 4034 1888 3995 1862 3899 
L 998 472 
C 941 249 928 185 480 185 
C 358 185 294 185 294 70 
C 294 0 352 0 390 0 
C 512 0 640 0 762 0 
L 1510 0 
C 1632 0 1766 0 1888 0 
C 1939 0 2010 0 2010 121 
C 2010 185 1952 185 1856 185 
C 1466 185 1466 236 1466 300 
C 1466 345 1504 504 1530 606 
L 1779 1593 
L 2752 2351 
C 2938 1943 3277 1128 3539 505 
C 3558 466 3571 428 3571 383 
C 3571 185 3315 185 3258 185 
C 3200 185 3136 185 3136 64 
C 3136 0 3206 0 3226 0 
C 3450 0 3686 0 3910 0 
L 4218 0 
C 4314 0 4422 0 4518 0 
C 4557 0 4627 0 4627 121 
C 4627 185 4570 185 4506 185 
C 4269 185 4186 236 4090 466 
L 3200 2571 
z
" transform="scale(0.015625)"/>
     </defs>
     <use xlink:href="#CMMI12-4b" transform="scale(0.996264)"/>
    </g>
   </g>
   <g id="text_4">
    <!-- $\frac{L}{3}$ -->
    <g transform="translate(204.699702 126.216075) scale(0.245 -0.245)">
     <defs>
      <path id="CMR17-33" d="M 1414 2157 
C 1984 2157 2234 1662 2234 1090 
C 2234 320 1824 25 1453 25 
C 1114 25 563 194 390 693 
C 422 680 454 680 486 680 
C 640 680 755 782 755 948 
C 755 1133 614 1216 486 1216 
C 378 1216 211 1165 211 926 
C 211 335 787 -128 1466 -128 
C 2176 -128 2720 430 2720 1085 
C 2720 1707 2208 2157 1600 2227 
C 2086 2328 2554 2756 2554 3329 
C 2554 3820 2048 4179 1472 4179 
C 890 4179 378 3829 378 3329 
C 378 3110 544 3072 627 3072 
C 762 3072 877 3155 877 3321 
C 877 3486 762 3569 627 3569 
C 602 3569 570 3569 544 3557 
C 730 3959 1235 4032 1459 4032 
C 1683 4032 2106 3925 2106 3320 
C 2106 3143 2080 2828 1862 2550 
C 1670 2304 1453 2304 1242 2284 
C 1210 2284 1062 2269 1037 2269 
C 992 2263 966 2257 966 2208 
C 966 2163 973 2157 1101 2157 
L 1414 2157 
z
" transform="scale(0.015625)"/>
     </defs>
     <use xlink:href="#CMMI12-4c" transform="translate(0 39.226102) scale(0.697382)"/>
     <use xlink:href="#CMR17-33" transform="translate(7.238116 -34.355253) scale(0.697382)"/>
     <path d="M 0 22.914133 
L 46.459414 22.914133 
L 46.459414 26.899083 
L 0 26.899083 
L 0 22.914133 
z
"/>
    </g>
   </g>
  </g>
 </g>
 <defs>
  <clipPath id="p128a2ff8d7">
   <rect x="7.2" y="7.2" width="232.671231" height="207.441731"/>
  </clipPath>
 </defs>
</svg>
