<?xml version="1.0" encoding="UTF-8" standalone="no"?>
<svg
   version="1.0"
   width="355.25168pt"
   height="77.304008pt"
   viewBox="0 0 355.25167 77.304007"
   preserveAspectRatio="xMidYMid"
   id="svg4"
   sodipodi:docname="25t.svg"
   inkscape:version="1.3 (0e150ed, 2023-07-21)"
   xmlns:inkscape="http://www.inkscape.org/namespaces/inkscape"
   xmlns:sodipodi="http://sodipodi.sourceforge.net/DTD/sodipodi-0.dtd"
   xmlns="http://www.w3.org/2000/svg"
   xmlns:svg="http://www.w3.org/2000/svg">
  <sodipodi:namedview
     id="namedview4"
     pagecolor="#ffffff"
     bordercolor="#000000"
     borderopacity="0.25"
     inkscape:showpageshadow="2"
     inkscape:pageopacity="0.0"
     inkscape:pagecheckerboard="0"
     inkscape:deskcolor="#d1d1d1"
     inkscape:document-units="pt"
     inkscape:zoom="1.8553303"
     inkscape:cx="227.99175"
     inkscape:cy="98.634727"
     inkscape:window-width="1440"
     inkscape:window-height="819"
     inkscape:window-x="0"
     inkscape:window-y="25"
     inkscape:window-maximized="0"
     inkscape:current-layer="svg4" />
  <defs
     id="defs4">
    <marker
       style="overflow:visible"
       id="ConcaveTriangle"
       refX="0"
       refY="0"
       orient="auto-start-reverse"
       inkscape:stockid="Concave triangle arrow"
       markerWidth="1"
       markerHeight="1"
       viewBox="0 0 1 1"
       inkscape:isstock="true"
       inkscape:collect="always"
       preserveAspectRatio="xMidYMid">
      <path
         transform="scale(0.7)"
         d="M -2,-4 9,0 -2,4 c 2,-2.33 2,-5.66 0,-8 z"
         style="fill:context-stroke;fill-rule:evenodd;stroke:none"
         id="path12" />
    </marker>
  </defs>
  <metadata
     id="metadata1">&#10;Created by potrace 1.16, written by Peter Selinger 2001-2019&#10;</metadata>
  <g
     id="g2"
     transform="matrix(0.78946572,0,0,0.78946572,25.413279,3.2695962)">
    <path
       d="m 115.105,28 v 0 H 112.2 q 0.77,-2.8 1.453,-5.652 0.682,-2.853 1.312,-5.723 0.035,-0.07 0.123,-0.56 0.087,-0.49 0.087,-0.91 0,-0.595 -0.228,-0.997 -0.227,-0.403 -0.822,-0.403 -0.875,0 -1.907,0.91 -1.033,0.91 -2.065,2.345 -1.033,1.435 -1.961,3.08 -0.927,1.645 -1.592,3.115 L 105.515,28 h -2.87 l 2.8,-13.3 q 0,0 0.053,-0.385 0.052,-0.385 0.052,-0.77 0,-0.455 -0.245,-0.7 -0.245,-0.245 -0.875,-0.245 -0.35,0 -0.735,0.035 -0.385,0.035 -0.385,0.035 v -0.945 l 4.83,-0.385 h 0.805 l -1.75,7.595 h 0.28 q 0.56,-1.05 1.383,-2.362 0.822,-1.313 1.89,-2.538 1.067,-1.225 2.362,-2.012 1.295,-0.788 2.8,-0.788 1.33,0 1.767,0.77 0.438,0.77 0.438,1.715 0,0.77 -0.14,1.61 -0.14,0.84 -0.175,0.98 l -0.595,2.24 h 0.28 q 0.56,-1.015 1.365,-2.257 0.805,-1.243 1.838,-2.398 1.032,-1.155 2.239,-1.907 1.208,-0.753 2.573,-0.753 1.33,0 1.785,0.77 0.455,0.77 0.455,1.715 0,0.665 -0.14,1.435 -0.14,0.77 -0.21,1.155 l -1.925,8.085 q 0,0 -0.053,0.262 -0.052,0.263 -0.052,0.578 0,0.665 0.665,0.665 0.91,0 1.557,-0.665 0.648,-0.665 1.068,-1.155 l 0.7,0.525 q -0.455,0.63 -1.102,1.523 -0.648,0.892 -1.541,1.557 -0.892,0.665 -2.152,0.665 -1.33,0 -1.82,-0.647 -0.49,-0.648 -0.49,-1.418 0,-0.42 0.07,-0.823 0.07,-0.402 0.105,-0.542 l 1.785,-6.79 q 0.175,-0.7 0.367,-1.557 0.193,-0.858 0.193,-1.418 0,-0.595 -0.228,-0.997 -0.227,-0.403 -0.822,-0.403 -0.665,0 -1.488,0.665 -0.822,0.665 -1.714,1.733 -0.893,1.067 -1.716,2.345 -0.822,1.277 -1.505,2.502 -0.682,1.225 -1.067,2.17 z"
       id="path2" />
  </g>
  <g
     id="g3"
     transform="matrix(0.90180424,0,0,0.90180424,23.514007,7.4554077)">
    <path
       d="m 214.56,7.228 v 0 h -1.14 q 0.038,-1.824 -0.209,-2.85 -0.247,-1.026 -1.311,-1.444 -1.064,-0.418 -3.534,-0.418 h -5.7 l -2.052,9.88 h 4.218 q 1.634,0 2.527,-0.304 0.893,-0.304 1.368,-1.121 0.475,-0.817 0.779,-2.337 h 1.216 l -1.748,8.854 h -1.254 q 0.304,-1.634 0.152,-2.394 -0.152,-0.76 -0.969,-1.007 -0.817,-0.247 -2.451,-0.247 h -4.104 l -1.634,8.132 q -0.076,0.38 -0.114,0.703 -0.038,0.323 -0.038,0.589 0,0.988 0.912,1.292 0.912,0.304 2.66,0.304 L 201.944,26 H 191 l 0.228,-1.14 q 1.33,0 2.109,-0.228 0.779,-0.228 1.254,-0.931 0.475,-0.703 0.741,-2.109 l 3.382,-16.264 q 0.266,-1.33 0.152,-1.995 -0.114,-0.665 -0.836,-0.912 -0.722,-0.247 -2.28,-0.247 l 0.228,-1.14 h 19.608 z"
       id="path3" />
  </g>
  <g
     id="g4"
     transform="matrix(0.90180424,0,0,0.90180424,29.577618,12.256337)">
    <path
       d="m 330.742,55 v 0 h -10.146 l 0.228,-1.14 q 1.406,0 2.147,-0.266 0.741,-0.266 1.121,-1.007 0.38,-0.741 0.646,-2.109 l 3.382,-16.416 h -0.152 L 315.2,55 h -0.836 l -4.598,-20.9 h -0.152 l -3.154,15.352 q -0.38,1.938 -0.323,2.888 0.057,0.95 0.741,1.235 0.684,0.285 2.128,0.285 L 308.778,55 H 300 l 0.228,-1.14 q 1.482,0 2.28,-0.285 0.798,-0.285 1.254,-1.235 0.456,-0.95 0.836,-2.888 L 307.6,34.67 q 0.304,-1.444 0.19,-2.185 -0.114,-0.741 -0.817,-1.026 -0.703,-0.285 -2.223,-0.285 l 0.228,-1.14 h 7.6 l 4.104,19.228 h 0.152 l 11.59,-19.228 h 7.182 l -0.228,1.14 q -1.33,0 -2.109,0.285 -0.779,0.285 -1.197,1.026 -0.418,0.741 -0.722,2.147 l -3.23,15.846 q -0.418,2.09 0.209,2.736 0.627,0.646 2.641,0.646 z"
       id="path4" />
  </g>
  <path
     style="font-variation-settings:normal;opacity:1;vector-effect:none;fill:none;fill-opacity:1;stroke:#000000;stroke-width:1.5;stroke-linecap:butt;stroke-linejoin:miter;stroke-miterlimit:4;stroke-dasharray:none;stroke-dashoffset:0;stroke-opacity:1;-inkscape-stroke:none;stop-color:#000000;stop-opacity:1"
     d="M 0.82499999,65.285511 H 353.40968"
     id="path5" />
  <g
     id="g6"
     style="fill:none;stroke:none"
     transform="translate(0.82499999,2.8701676)">
    <path
       style="fill:none;stroke:none;stroke-width:1.65"
       d="M 1.181126,62.415344 0,63.59647 M 3.776213,73.608842 14.969711,62.415344 m 13.788586,0 -11.193498,11.193498 m 13.788586,0 11.193498,-11.193498 m 13.788585,0 -11.193498,11.193498 m 13.788586,0 11.193498,-11.193498 m 13.788586,0 -11.193498,11.193498 m 13.788585,0 11.193498,-11.193498 m 13.788585,0 -11.1935,11.193498 m 13.78859,0 11.1935,-11.193498 m 13.78858,0 -11.1935,11.193498 m 13.78859,0 11.1935,-11.193498 m 13.78858,0 -11.19349,11.193498 m 13.78858,0 11.1935,-11.193498 m 13.78858,0 -11.19349,11.193498 m 13.78858,0 11.1935,-11.193498 m 13.78859,0 -11.1935,11.193498 m 13.78858,0 11.1935,-11.193498 m 13.78859,0 -11.1935,11.193498 m 13.78859,0 11.19349,-11.193498 m 13.78859,0 -11.1935,11.193498 m 13.78859,0 11.19349,-11.193498 m 13.78859,0 -11.1935,11.193498 m 13.78859,0 11.1935,-11.193498 m 13.78858,0 -11.1935,11.193498 m 13.78859,0 11.1935,-11.193498 m 7.70591,6.082673 -5.11083,5.110825"
       id="path6" />
    <g
       id="g7"
       style="fill:none;stroke:none">
      <rect
         style="opacity:0.993366;fill:none;fill-opacity:0.01;stroke:none;stroke-width:1.65;stroke-linejoin:bevel;paint-order:stroke fill markers"
         id="rect5"
         width="353.60168"
         height="11.193498"
         x="0"
         y="62.415344" />
      <path
         style="fill:none;stroke:none;stroke-width:1.65"
         d="M 1.181126,62.415344 0,63.59647 M 3.776213,73.608842 14.969711,62.415344 m 13.788586,0 -11.193498,11.193498 m 13.788586,0 11.193498,-11.193498 m 13.788585,0 -11.193498,11.193498 m 13.788586,0 11.193498,-11.193498 m 13.788586,0 -11.193498,11.193498 m 13.788585,0 11.193498,-11.193498 m 13.788585,0 -11.1935,11.193498 m 13.78859,0 11.1935,-11.193498 m 13.78858,0 -11.1935,11.193498 m 13.78859,0 11.1935,-11.193498 m 13.78858,0 -11.19349,11.193498 m 13.78858,0 11.1935,-11.193498 m 13.78858,0 -11.19349,11.193498 m 13.78858,0 11.1935,-11.193498 m 13.78859,0 -11.1935,11.193498 m 13.78858,0 11.1935,-11.193498 m 13.78859,0 -11.1935,11.193498 m 13.78859,0 11.19349,-11.193498 m 13.78859,0 -11.1935,11.193498 m 13.78859,0 11.19349,-11.193498 m 13.78859,0 -11.1935,11.193498 m 13.78859,0 11.1935,-11.193498 m 13.78858,0 -11.1935,11.193498 m 13.78859,0 11.1935,-11.193498 m 7.70591,6.082673 -5.11083,5.110825"
         id="path7" />
    </g>
  </g>
  <g
     id="g8"
     transform="translate(0.82499999,2.8701676)">
    <rect
       style="opacity:0.993366;fill:none;fill-opacity:0.01;stroke:#000000;stroke-width:1.65;stroke-linejoin:bevel;stroke-opacity:1;paint-order:stroke fill markers"
       id="rect7"
       width="353.60168"
       height="11.193498"
       x="0"
       y="62.415344"
       ry="0" />
    <path
       style="fill:none;stroke:#000000;stroke-width:1.65"
       d="M 3.302447,62.415344 0,65.717791 m 6.321798,7.891051 11.193498,-11.193498 m 14.21285,0 -11.193498,11.193498 m 14.21285,0 11.193498,-11.193498 m 14.21285,0 -11.193498,11.193498 m 14.21285,0 11.193498,-11.193498 m 14.21285,0 -11.193498,11.193498 m 14.21285,0 11.193502,-11.193498 m 14.21285,0 -11.1935,11.193498 m 14.21285,0 11.19349,-11.193498 m 14.21285,0 -11.19349,11.193498 m 14.21285,0 11.19349,-11.193498 m 14.21285,0 -11.19349,11.193498 m 14.21285,0 11.1935,-11.193498 m 14.21284,0 -11.19349,11.193498 m 14.21285,0 11.19349,-11.193498 m 14.21285,0 -11.19349,11.193498 m 14.21285,0 11.19349,-11.193498 m 14.21285,0 -11.19349,11.193498 m 14.21285,0 11.19349,-11.193498 m 14.21285,0 -11.19349,11.193498 m 14.21285,0 11.19349,-11.193498 m 14.21285,0 -11.19349,11.193498 m 14.21285,0 11.19349,-11.193498 m 14.21285,0 -11.19349,11.193498 m 14.21285,0 6.17148,-6.171485"
       id="path8" />
  </g>
  <path
     style="font-variation-settings:normal;opacity:1;fill:none;fill-opacity:1;stroke:#000000;stroke-width:3;stroke-linecap:butt;stroke-linejoin:miter;stroke-miterlimit:4;stroke-dasharray:none;stroke-dashoffset:0;stroke-opacity:1;stop-color:#000000;stop-opacity:1"
     d="m 40.126674,63.406504 -0.0061,-25.616311 H 292.21876 v 25.61631 z"
     id="path9"
     sodipodi:nodetypes="ccccc" />
  <path
     style="font-variation-settings:normal;opacity:1;fill:none;fill-opacity:1;stroke:#000000;stroke-width:3;stroke-linecap:butt;stroke-linejoin:miter;stroke-miterlimit:4;stroke-dasharray:none;stroke-dashoffset:0;stroke-opacity:1;stop-color:#000000;stop-opacity:1"
     d="M 96.026678,37.6 V 1.5 h 41.925302 v 36.290193"
     id="path10" />
  <path
     style="font-variation-settings:normal;opacity:1;vector-effect:none;fill:none;fill-opacity:1;stroke:#000000;stroke-width:1.5;stroke-linecap:butt;stroke-linejoin:miter;stroke-miterlimit:4;stroke-dasharray:none;stroke-dashoffset:0;stroke-opacity:1;-inkscape-stroke:none;marker-end:url(#ConcaveTriangle);stop-color:#000000;stop-opacity:1"
     d="M 137.95198,19.645096 H 181.1546"
     id="path11" />
</svg>
