<?xml version="1.0" standalone="no"?>
<!DOCTYPE svg PUBLIC "-//W3C//DTD SVG 20010904//EN"
 "http://www.w3.org/TR/2001/REC-SVG-20010904/DTD/svg10.dtd">
<svg version="1.0" xmlns="http://www.w3.org/2000/svg"
 width="353.601674pt" height="93.466871pt" viewBox="0 0 353.601674 93.466871"
 preserveAspectRatio="xMidYMid meet">
<metadata>
Created by potrace 1.16, written by Peter Selinger 2001-2019
</metadata>
<g transform="translate(-2.398326,96.466871) scale(0.100000,-0.100000)"
fill="#000000" stroke="none">
<path d="M1127 935 c-9 -56 -9 -75 3 -75 6 0 14 10 19 23 11 29 37 51 51 42 5
-3 10 -19 10 -36 0 -16 5 -29 10 -29 6 0 10 6 10 13 0 6 11 25 23 41 30 37 49
28 37 -16 -5 -17 -7 -35 -4 -39 11 -18 22 -8 32 31 16 63 3 72 -89 62 -64 -7
-78 -5 -86 7 -7 12 -11 6 -16 -24z"/>
<path d="M1875 941 c-8 -14 5 -18 64 -17 34 1 56 6 58 14 6 15 -112 18 -122 3z"/>
<path d="M1855 883 c-3 -15 -10 -43 -15 -62 -5 -20 -5 -43 1 -60 10 -24 11
-24 21 -8 5 10 7 25 4 32 -8 21 21 45 55 45 19 0 29 5 29 15 0 10 -11 15 -35
15 -28 0 -35 4 -35 19 0 32 -19 34 -25 4z"/>
<path d="M976 761 c-2 -3 -3 -86 -2 -183 l2 -178 -166 -1 c-223 -2 -222 -2
-245 1 -11 2 -48 0 -82 -4 l-63 -8 -2 -106 c-1 -59 -2 -115 -1 -124 0 -13 -9
-18 -31 -19 -17 0 -100 -3 -184 -5 -84 -2 -161 -8 -170 -14 -14 -7 -11 -9 16
-10 38 0 39 -3 12 -37 -31 -40 -15 -40 30 1 30 27 49 36 75 36 41 0 42 -3 15
-37 -32 -41 -13 -40 28 0 28 27 46 37 70 37 37 0 39 -3 12 -30 -11 -11 -20
-27 -20 -36 0 -16 2 -15 71 48 19 18 69 24 82 11 4 -3 -3 -17 -15 -30 -20 -21
-20 -23 -3 -23 10 0 30 11 44 24 17 16 44 26 79 31 58 8 64 0 27 -35 -25 -23
-32 -40 -17 -40 4 0 27 18 51 40 39 37 47 40 99 40 l56 0 -34 -35 c-22 -23
-29 -35 -19 -35 8 0 30 16 49 35 26 27 42 35 69 35 l34 0 -21 -23 c-44 -46
-19 -51 32 -6 28 24 43 30 71 27 l35 -3 -26 -28 c-40 -43 -19 -46 24 -4 36 35
41 37 85 31 44 -6 46 -8 32 -24 -31 -34 -14 -43 20 -10 29 28 44 34 92 38 l57
5 -27 -33 c-39 -46 -25 -50 23 -6 34 30 47 36 86 36 l45 0 -20 -26 c-30 -38
-27 -67 3 -33 33 38 65 56 114 63 48 7 50 4 22 -41 -27 -45 -12 -41 30 7 30
34 41 40 76 40 51 0 57 -6 37 -36 -21 -32 -1 -31 41 1 25 19 45 25 81 25 l48
0 -22 -24 c-30 -32 -9 -45 22 -14 39 39 72 49 130 39 4 0 -2 -14 -14 -31 -35
-46 -14 -47 36 -1 37 34 51 41 87 41 l41 0 -21 -23 c-12 -13 -22 -30 -22 -38
0 -8 3 -10 8 -4 4 6 22 23 40 38 27 22 43 27 85 27 l52 -1 -33 -27 c-18 -15
-30 -31 -26 -35 4 -4 27 9 50 29 37 30 50 35 85 32 l41 -3 -26 -28 c-47 -51
-26 -52 34 -2 35 29 50 35 88 35 l46 0 -29 -30 c-39 -41 -14 -38 42 5 34 26
56 35 84 35 39 0 53 -15 24 -26 -18 -7 -39 -43 -31 -51 3 -3 26 13 51 36 39
36 50 41 92 41 l46 0 -23 -25 c-35 -37 -16 -43 28 -8 20 16 50 32 66 35 55 11
76 -13 31 -34 -14 -6 -25 -17 -25 -25 0 -19 55 10 73 37 9 16 23 20 66 20 l55
0 -33 -29 c-53 -47 -31 -56 28 -11 40 29 64 40 90 40 l36 0 -30 -25 c-16 -13
-33 -24 -37 -25 -9 0 -11 -30 -3 -30 11 0 81 48 99 69 13 14 31 21 58 21 21 0
38 -2 38 -5 0 -3 -12 -16 -27 -29 -15 -13 -22 -25 -16 -29 6 -4 28 8 49 27 42
35 91 51 114 35 12 -8 10 -13 -12 -30 -28 -21 -36 -39 -18 -39 5 0 27 16 49
35 29 26 47 35 75 35 43 0 45 -8 11 -40 -24 -23 -33 -50 -17 -50 18 0 72 70
72 94 l0 27 -312 -6 -313 -6 2 124 1 125 -49 6 c-27 4 -95 4 -151 1 -57 -2
-321 -7 -587 -10 -266 -3 -486 -6 -490 -7 -3 0 -63 0 -133 1 l-128 1 0 88 0
89 102 6 c125 8 218 0 218 -19 0 -18 11 -17 57 1 21 7 53 16 71 19 71 10 52
32 -33 39 -33 3 -69 6 -80 8 -14 3 -19 -1 -18 -11 3 -14 -18 -16 -155 -15
l-157 1 -5 80 -5 79 -208 1 c-114 1 -209 -2 -211 -5z m395 -163 c1 -79 3 -155
5 -170 l3 -28 -137 -1 c-147 -1 -197 -1 -224 0 -16 1 -18 16 -18 171 l0 170
185 0 185 0 1 -142z m1523 -211 c14 -10 17 -29 17 -116 0 -57 -3 -106 -5 -109
-6 -5 -84 -7 -791 -17 -231 -4 -432 -8 -447 -10 -16 -2 -28 1 -28 7 0 6 -8 7
-17 3 -10 -4 -280 -9 -600 -11 l-582 -4 6 112 c2 62 6 118 8 125 3 9 100 12
407 11 467 -2 1991 12 1997 18 7 7 16 5 35 -9z"/>
<path d="M3086 453 c-4 -27 -9 -65 -12 -87 -5 -30 -3 -37 7 -34 8 3 15 21 17
41 4 42 13 47 27 15 15 -34 36 -28 68 20 33 49 53 56 42 15 -11 -46 -11 -86 1
-90 7 -2 14 12 17 34 3 21 9 59 13 86 9 64 -9 63 -70 -4 -26 -28 -48 -50 -49
-48 -11 16 -27 63 -27 79 0 11 -6 20 -14 20 -9 0 -16 -17 -20 -47z"/>
</g>
</svg>
