<?xml version="1.0" encoding="utf-8" standalone="no"?>
<!DOCTYPE svg PUBLIC "-//W3C//DTD SVG 1.1//EN"
  "http://www.w3.org/Graphics/SVG/1.1/DTD/svg11.dtd">
<svg xmlns:xlink="http://www.w3.org/1999/xlink" width="210.735044pt" height="293.88pt" viewBox="0 0 210.735044 293.88" xmlns="http://www.w3.org/2000/svg" version="1.1">
 <metadata>
  <rdf:RDF xmlns:dc="http://purl.org/dc/elements/1.1/" xmlns:cc="http://creativecommons.org/ns#" xmlns:rdf="http://www.w3.org/1999/02/22-rdf-syntax-ns#">
   <cc:Work>
    <dc:type rdf:resource="http://purl.org/dc/dcmitype/StillImage"/>
    <dc:date>2023-05-02T07:39:06.190269</dc:date>
    <dc:format>image/svg+xml</dc:format>
    <dc:creator>
     <cc:Agent>
      <dc:title>Matplotlib v3.7.1, https://matplotlib.org/</dc:title>
     </cc:Agent>
    </dc:creator>
   </cc:Work>
  </rdf:RDF>
 </metadata>
 <defs>
  <style type="text/css">*{stroke-linejoin: round; stroke-linecap: butt}</style>
 </defs>
 <g id="figure_1">
  <g id="patch_1">
   <path d="M 0 293.88 
L 210.735044 293.88 
L 210.735044 0 
L 0 0 
z
" style="fill: #ffffff"/>
  </g>
  <g id="axes_1">
   <g id="patch_2">
    <path d="M 59.563636 135.872727 
L 185.236364 135.872727 
L 185.236364 10.2 
L 59.563636 10.2 
z
" style="fill: #ffffff"/>
   </g>
   <g id="matplotlib.axis_1"/>
   <g id="matplotlib.axis_2">
    <g id="ytick_1">
     <g id="line2d_1">
      <defs>
       <path id="mf5dadd1cd8" d="M 0 0 
L -3.5 0 
" style="stroke: #000000; stroke-width: 0.8"/>
      </defs>
      <g>
       <use xlink:href="#mf5dadd1cd8" x="65.276033" y="130.160331" style="stroke: #000000; stroke-width: 0.8"/>
      </g>
     </g>
     <g id="text_1">
      <!-- $\mathdefault{0}$ -->
      <g transform="translate(46.396509 139.341949) scale(0.26 -0.26)">
       <defs>
        <path id="CMR17-30" d="M 2688 2025 
C 2688 2416 2682 3080 2413 3591 
C 2176 4039 1798 4198 1466 4198 
C 1158 4198 768 4058 525 3597 
C 269 3118 243 2524 243 2025 
C 243 1661 250 1106 448 619 
C 723 -39 1216 -128 1466 -128 
C 1760 -128 2208 -7 2470 600 
C 2662 1042 2688 1559 2688 2025 
z
M 1466 -26 
C 1056 -26 813 325 723 812 
C 653 1188 653 1738 653 2096 
C 653 2588 653 2997 736 3387 
C 858 3929 1216 4096 1466 4096 
C 1728 4096 2067 3923 2189 3400 
C 2272 3036 2278 2607 2278 2096 
C 2278 1680 2278 1169 2202 792 
C 2067 95 1690 -26 1466 -26 
z
" transform="scale(0.015625)"/>
       </defs>
       <use xlink:href="#CMR17-30" transform="scale(0.996264)"/>
      </g>
     </g>
    </g>
   </g>
   <g id="line2d_2">
    <defs>
     <path id="mb3a1a6b7dc" d="M 3 0 
L -3 -3 
L -3 3 
z
" style="stroke: #000000; stroke-linejoin: miter"/>
    </defs>
    <g>
     <use xlink:href="#mb3a1a6b7dc" x="185.236364" y="130.160331" style="stroke: #000000; stroke-linejoin: miter"/>
    </g>
   </g>
   <g id="line2d_3">
    <defs>
     <path id="m1b529a7645" d="M 0 -3 
L -3 3 
L 3 3 
z
" style="stroke: #000000; stroke-linejoin: miter"/>
    </defs>
    <g>
     <use xlink:href="#m1b529a7645" x="65.276033" y="10.2" style="stroke: #000000; stroke-linejoin: miter"/>
    </g>
   </g>
   <g id="line2d_4">
    <path d="M 65.276033 130.160331 
L 66.430053 130.148674 
L 67.584072 130.113704 
L 68.738092 130.05542 
L 69.892111 129.973822 
L 71.046131 129.868912 
L 72.20015 129.740687 
L 73.35417 129.589149 
L 74.508189 129.414298 
L 75.662209 129.216133 
L 76.816228 128.994654 
L 77.970248 128.749862 
L 79.124267 128.481757 
L 80.278287 128.190338 
L 81.432307 127.875605 
L 82.586326 127.537559 
L 83.740346 127.176199 
L 84.894365 126.791526 
L 86.048385 126.383539 
L 87.202404 125.952239 
L 88.356424 125.497625 
L 89.510443 125.019698 
L 90.664463 124.518457 
L 91.818482 123.993903 
L 92.972502 123.446035 
L 94.126521 122.874854 
L 95.280541 122.280359 
L 96.43456 121.66255 
L 97.58858 121.021428 
L 98.7426 120.356993 
L 99.896619 119.669244 
L 101.050639 118.958181 
L 102.204658 118.223805 
L 103.358678 117.466116 
L 104.512697 116.685113 
L 105.666717 115.880796 
L 106.820736 115.053166 
L 107.974756 114.202222 
L 109.128775 113.327965 
L 110.282795 112.430394 
L 111.436814 111.50951 
L 112.590834 110.565312 
L 113.744853 109.597801 
L 114.898873 108.606976 
L 116.052893 107.592837 
L 117.206912 106.555386 
L 118.360932 105.49462 
L 119.514951 104.410541 
L 120.668971 103.303149 
L 121.82299 102.172443 
L 122.97701 101.018423 
L 124.131029 99.84109 
L 125.285049 98.640444 
L 126.439068 97.416483 
L 127.593088 96.16921 
L 128.747107 94.898623 
L 129.901127 93.604722 
L 131.055147 92.287508 
L 132.209166 90.94698 
L 133.363186 89.583139 
L 134.517205 88.195984 
L 135.671225 86.785516 
L 136.825244 85.351734 
L 137.979264 83.894638 
L 139.133283 82.414229 
L 140.287303 80.910507 
L 141.441322 79.383471 
L 142.595342 77.833122 
L 143.749361 76.259459 
L 144.903381 74.662482 
L 146.0574 73.042192 
L 147.21142 71.398588 
L 148.36544 69.731671 
L 149.519459 68.041441 
L 150.673479 66.327897 
L 151.827498 64.591039 
L 152.981518 62.830868 
L 154.135537 61.047383 
L 155.289557 59.240585 
L 156.443576 57.410473 
L 157.597596 55.557048 
L 158.751615 53.680309 
L 159.905635 51.780256 
L 161.059654 49.85689 
L 162.213674 47.910211 
L 163.367693 45.940218 
L 164.521713 43.946912 
L 165.675733 41.930292 
L 166.829752 39.890358 
L 167.983772 37.827111 
L 169.137791 35.740551 
L 170.291811 33.630676 
L 171.44583 31.497489 
L 172.59985 29.340988 
L 173.753869 27.161173 
L 174.907889 24.958045 
L 176.061908 22.731603 
L 177.215928 20.481848 
L 178.369947 18.208779 
L 179.523967 15.912397 
" clip-path="url(#pbbaa503bcc)" style="fill: none; stroke: #000000; stroke-width: 2.9; stroke-linecap: square"/>
   </g>
   <g id="line2d_5">
    <path d="M 65.276033 130.160331 
L 66.430053 130.148674 
L 67.584072 130.113704 
L 68.738092 130.05542 
L 69.892111 129.973822 
L 71.046131 129.868912 
L 72.20015 129.740687 
L 73.35417 129.589149 
L 74.508189 129.414298 
L 75.662209 129.216133 
L 76.816228 128.994654 
L 77.970248 128.749862 
L 79.124267 128.481757 
L 80.278287 128.190338 
L 81.432307 127.875605 
L 82.586326 127.537559 
L 83.740346 127.176199 
L 84.894365 126.791526 
L 86.048385 126.383539 
L 87.202404 125.952239 
L 88.356424 125.497625 
L 89.510443 125.019698 
L 90.664463 124.518457 
L 91.818482 123.993903 
L 92.972502 123.446035 
L 94.126521 122.874854 
L 95.280541 122.280359 
L 96.43456 121.66255 
L 97.58858 121.021428 
L 98.7426 120.356993 
L 99.896619 119.669244 
L 101.050639 118.958181 
L 102.204658 118.223805 
L 103.358678 117.466116 
L 104.512697 116.685113 
L 105.666717 115.880796 
L 106.820736 115.053166 
L 107.974756 114.202222 
L 109.128775 113.327965 
L 110.282795 112.430394 
L 111.436814 111.50951 
L 112.590834 110.565312 
L 113.744853 109.597801 
L 114.898873 108.606976 
L 116.052893 107.592837 
L 117.206912 106.555386 
L 118.360932 105.49462 
L 119.514951 104.410541 
L 120.668971 103.303149 
L 121.82299 102.172443 
L 122.97701 101.018423 
L 124.131029 99.84109 
L 125.285049 98.640444 
L 126.439068 97.416483 
L 127.593088 96.16921 
L 128.747107 94.898623 
L 129.901127 93.604722 
L 131.055147 92.287508 
L 132.209166 90.94698 
L 133.363186 89.583139 
L 134.517205 88.195984 
L 135.671225 86.785516 
L 136.825244 85.351734 
L 137.979264 83.894638 
L 139.133283 82.414229 
L 140.287303 80.910507 
L 141.441322 79.383471 
L 142.595342 77.833122 
L 143.749361 76.259459 
L 144.903381 74.662482 
L 146.0574 73.042192 
L 147.21142 71.398588 
L 148.36544 69.731671 
L 149.519459 68.041441 
L 150.673479 66.327897 
L 151.827498 64.591039 
L 152.981518 62.830868 
L 154.135537 61.047383 
L 155.289557 59.240585 
L 156.443576 57.410473 
L 157.597596 55.557048 
L 158.751615 53.680309 
L 159.905635 51.780256 
L 161.059654 49.85689 
L 162.213674 47.910211 
L 163.367693 45.940218 
L 164.521713 43.946912 
L 165.675733 41.930292 
L 166.829752 39.890358 
L 167.983772 37.827111 
L 169.137791 35.740551 
L 170.291811 33.630676 
L 171.44583 31.497489 
L 172.59985 29.340988 
L 173.753869 27.161173 
L 174.907889 24.958045 
L 176.061908 22.731603 
L 177.215928 20.481848 
L 178.369947 18.208779 
L 179.523967 15.912397 
" clip-path="url(#pbbaa503bcc)" style="fill: none; stroke: #000000; stroke-width: 2.9; stroke-linecap: square"/>
   </g>
   <g id="patch_3">
    <path d="M 65.276033 135.872727 
L 65.276033 10.2 
" style="fill: none; stroke: #000000; stroke-width: 1.9; stroke-linejoin: miter; stroke-linecap: square"/>
   </g>
   <g id="patch_4">
    <path d="M 59.563636 130.160331 
L 185.236364 130.160331 
" style="fill: none; stroke: #000000; stroke-width: 1.9; stroke-linejoin: miter; stroke-linecap: square"/>
   </g>
   <g id="text_2">
    <!-- $t$ -->
    <g transform="translate(194.376198 136.822922) scale(0.26 -0.26)">
     <defs>
      <path id="CMMI12-74" d="M 1286 2566 
L 1875 2566 
C 1997 2566 2061 2566 2061 2681 
C 2061 2752 2022 2752 1894 2752 
L 1331 2752 
L 1568 3692 
C 1594 3781 1594 3794 1594 3840 
C 1594 3943 1510 4000 1427 4000 
C 1376 4000 1229 3981 1178 3775 
L 928 2752 
L 326 2752 
C 198 2752 141 2752 141 2630 
C 141 2566 186 2566 307 2566 
L 877 2566 
L 454 881 
C 403 658 384 594 384 511 
C 384 211 595 -64 954 -64 
C 1600 -64 1946 868 1946 912 
C 1946 951 1920 970 1882 970 
C 1869 970 1843 970 1830 944 
C 1824 938 1818 931 1773 829 
C 1638 511 1344 64 973 64 
C 781 64 768 224 768 364 
C 768 370 768 492 787 568 
L 1286 2566 
z
" transform="scale(0.015625)"/>
     </defs>
     <use xlink:href="#CMMI12-74" transform="scale(0.996264)"/>
    </g>
   </g>
  </g>
  <g id="axes_2">
   <g id="patch_5">
    <path d="M 59.563636 286.68 
L 185.236364 286.68 
L 185.236364 161.007273 
L 59.563636 161.007273 
z
" style="fill: #ffffff"/>
   </g>
   <g id="matplotlib.axis_3"/>
   <g id="matplotlib.axis_4">
    <g id="ytick_2">
     <g id="line2d_6">
      <g>
       <use xlink:href="#mf5dadd1cd8" x="65.276033" y="198.709091" style="stroke: #000000; stroke-width: 0.8"/>
      </g>
     </g>
     <g id="text_3">
      <!-- $\mathdefault{0}$ -->
      <g transform="translate(46.396509 207.890709) scale(0.26 -0.26)">
       <use xlink:href="#CMR17-30" transform="scale(0.996264)"/>
      </g>
     </g>
    </g>
   </g>
   <g id="line2d_7">
    <g>
     <use xlink:href="#mb3a1a6b7dc" x="185.236364" y="198.709091" style="stroke: #000000; stroke-linejoin: miter"/>
    </g>
   </g>
   <g id="line2d_8">
    <g>
     <use xlink:href="#m1b529a7645" x="65.276033" y="161.007273" style="stroke: #000000; stroke-linejoin: miter"/>
    </g>
   </g>
   <g id="line2d_9">
    <path d="M 65.276033 236.410909 
L 66.430053 236.410909 
L 67.584072 236.410909 
L 68.738092 236.410909 
L 69.892111 236.410909 
L 71.046131 236.410909 
L 72.20015 236.410909 
L 73.35417 236.410909 
L 74.508189 236.410909 
L 75.662209 236.410909 
L 76.816228 236.410909 
L 77.970248 236.410909 
L 79.124267 236.410909 
L 80.278287 236.410909 
L 81.432307 236.410909 
L 82.586326 236.410909 
L 83.740346 236.410909 
L 84.894365 236.410909 
L 86.048385 236.410909 
L 87.202404 236.410909 
L 88.356424 236.410909 
L 89.510443 236.410909 
L 90.664463 236.410909 
L 91.818482 236.410909 
L 92.972502 236.410909 
L 94.126521 236.410909 
L 95.280541 236.410909 
L 96.43456 236.410909 
L 97.58858 236.410909 
L 98.7426 236.410909 
L 99.896619 236.410909 
L 101.050639 236.410909 
L 102.204658 236.410909 
L 103.358678 236.410909 
L 104.512697 236.410909 
L 105.666717 236.410909 
L 106.820736 236.410909 
L 107.974756 236.410909 
L 109.128775 236.410909 
L 110.282795 236.410909 
L 111.436814 236.410909 
L 112.590834 236.410909 
L 113.744853 236.410909 
L 114.898873 236.410909 
L 116.052893 236.410909 
L 117.206912 236.410909 
L 118.360932 236.410909 
L 119.514951 236.410909 
L 120.668971 236.410909 
L 121.82299 236.410909 
L 122.97701 236.410909 
L 124.131029 236.410909 
L 125.285049 236.410909 
L 126.439068 236.410909 
L 127.593088 236.410909 
L 128.747107 236.410909 
L 129.901127 236.410909 
L 131.055147 236.410909 
L 132.209166 236.410909 
L 133.363186 236.410909 
L 134.517205 236.410909 
L 135.671225 236.410909 
L 136.825244 236.410909 
L 137.979264 236.410909 
L 139.133283 236.410909 
L 140.287303 236.410909 
L 141.441322 236.410909 
L 142.595342 236.410909 
L 143.749361 236.410909 
L 144.903381 236.410909 
L 146.0574 236.410909 
L 147.21142 236.410909 
L 148.36544 236.410909 
L 149.519459 236.410909 
L 150.673479 236.410909 
L 151.827498 236.410909 
L 152.981518 236.410909 
L 154.135537 236.410909 
L 155.289557 236.410909 
L 156.443576 236.410909 
L 157.597596 236.410909 
L 158.751615 236.410909 
L 159.905635 236.410909 
L 161.059654 236.410909 
L 162.213674 236.410909 
L 163.367693 236.410909 
L 164.521713 236.410909 
L 165.675733 236.410909 
L 166.829752 236.410909 
L 167.983772 236.410909 
L 169.137791 236.410909 
L 170.291811 236.410909 
L 171.44583 236.410909 
L 172.59985 236.410909 
L 173.753869 236.410909 
L 174.907889 236.410909 
L 176.061908 236.410909 
L 177.215928 236.410909 
L 178.369947 236.410909 
L 179.523967 236.410909 
" clip-path="url(#p71655cc3a1)" style="fill: none; stroke: #000000; stroke-width: 2.9; stroke-linecap: square"/>
   </g>
   <g id="line2d_10">
    <path d="M 65.276033 236.410909 
L 66.430053 236.410909 
L 67.584072 236.410909 
L 68.738092 236.410909 
L 69.892111 236.410909 
L 71.046131 236.410909 
L 72.20015 236.410909 
L 73.35417 236.410909 
L 74.508189 236.410909 
L 75.662209 236.410909 
L 76.816228 236.410909 
L 77.970248 236.410909 
L 79.124267 236.410909 
L 80.278287 236.410909 
L 81.432307 236.410909 
L 82.586326 236.410909 
L 83.740346 236.410909 
L 84.894365 236.410909 
L 86.048385 236.410909 
L 87.202404 236.410909 
L 88.356424 236.410909 
L 89.510443 236.410909 
L 90.664463 236.410909 
L 91.818482 236.410909 
L 92.972502 236.410909 
L 94.126521 236.410909 
L 95.280541 236.410909 
L 96.43456 236.410909 
L 97.58858 236.410909 
L 98.7426 236.410909 
L 99.896619 236.410909 
L 101.050639 236.410909 
L 102.204658 236.410909 
L 103.358678 236.410909 
L 104.512697 236.410909 
L 105.666717 236.410909 
L 106.820736 236.410909 
L 107.974756 236.410909 
L 109.128775 236.410909 
L 110.282795 236.410909 
L 111.436814 236.410909 
L 112.590834 236.410909 
L 113.744853 236.410909 
L 114.898873 236.410909 
L 116.052893 236.410909 
L 117.206912 236.410909 
L 118.360932 236.410909 
L 119.514951 236.410909 
L 120.668971 236.410909 
L 121.82299 236.410909 
L 122.97701 236.410909 
L 124.131029 236.410909 
L 125.285049 236.410909 
L 126.439068 236.410909 
L 127.593088 236.410909 
L 128.747107 236.410909 
L 129.901127 236.410909 
L 131.055147 236.410909 
L 132.209166 236.410909 
L 133.363186 236.410909 
L 134.517205 236.410909 
L 135.671225 236.410909 
L 136.825244 236.410909 
L 137.979264 236.410909 
L 139.133283 236.410909 
L 140.287303 236.410909 
L 141.441322 236.410909 
L 142.595342 236.410909 
L 143.749361 236.410909 
L 144.903381 236.410909 
L 146.0574 236.410909 
L 147.21142 236.410909 
L 148.36544 236.410909 
L 149.519459 236.410909 
L 150.673479 236.410909 
L 151.827498 236.410909 
L 152.981518 236.410909 
L 154.135537 236.410909 
L 155.289557 236.410909 
L 156.443576 236.410909 
L 157.597596 236.410909 
L 158.751615 236.410909 
L 159.905635 236.410909 
L 161.059654 236.410909 
L 162.213674 236.410909 
L 163.367693 236.410909 
L 164.521713 236.410909 
L 165.675733 236.410909 
L 166.829752 236.410909 
L 167.983772 236.410909 
L 169.137791 236.410909 
L 170.291811 236.410909 
L 171.44583 236.410909 
L 172.59985 236.410909 
L 173.753869 236.410909 
L 174.907889 236.410909 
L 176.061908 236.410909 
L 177.215928 236.410909 
L 178.369947 236.410909 
L 179.523967 236.410909 
" clip-path="url(#p71655cc3a1)" style="fill: none; stroke: #000000; stroke-width: 2.9; stroke-linecap: square"/>
   </g>
   <g id="patch_6">
    <path d="M 65.276033 286.68 
L 65.276033 161.007273 
" style="fill: none; stroke: #000000; stroke-width: 1.9; stroke-linejoin: miter; stroke-linecap: square"/>
   </g>
   <g id="patch_7">
    <path d="M 59.563636 198.709091 
L 185.236364 198.709091 
" style="fill: none; stroke: #000000; stroke-width: 1.9; stroke-linejoin: miter; stroke-linecap: square"/>
   </g>
   <g id="text_4">
    <!-- $t$ -->
    <g transform="translate(194.376198 205.371682) scale(0.26 -0.26)">
     <use xlink:href="#CMMI12-74" transform="scale(0.996264)"/>
    </g>
   </g>
  </g>
  <g id="text_5">
   <!-- $\textrm{\bf A)}$ -->
   <g transform="translate(7.2 27.48) scale(0.26 -0.26)">
    <defs>
     <path id="SFBX3583-41" d="M 198 189 
L 198 0 
L 1523 0 
L 1523 189 
C 1350 189 979 189 979 293 
C 979 365 1037 462 1062 540 
L 1350 1321 
C 1376 1373 1376 1412 1446 1412 
L 2957 1412 
C 3027 1412 3034 1367 3059 1308 
L 3142 1080 
C 3251 786 3347 487 3469 201 
L 2886 201 
L 2886 0 
L 4742 0 
L 4742 189 
L 4282 189 
C 4122 189 4122 338 4064 466 
L 2989 3360 
C 2880 3664 2765 3968 2650 4273 
L 2586 4447 
C 2560 4499 2560 4544 2470 4544 
C 2381 4544 2381 4499 2355 4447 
L 2291 4273 
C 1888 3236 1510 2188 1126 1146 
L 902 531 
C 832 396 858 240 614 214 
C 474 189 339 189 198 189 
z
M 1453 1600 
L 2202 3612 
L 2950 1600 
L 1453 1600 
z
" transform="scale(0.015625)"/>
     <path id="SFBX3583-29" d="M 384 4876 
C 378 4870 378 4863 378 4857 
C 378 4811 557 4636 634 4533 
C 1248 3708 1408 2657 1408 1651 
C 1408 528 1210 -614 435 -1497 
C 416 -1516 371 -1549 371 -1581 
C 371 -1594 390 -1600 403 -1600 
L 435 -1600 
C 518 -1600 550 -1555 602 -1516 
L 794 -1341 
C 1574 -569 1894 572 1894 1648 
C 1894 2724 1574 3839 806 4617 
C 710 4714 557 4896 435 4896 
C 416 4896 397 4889 384 4876 
z
" transform="scale(0.015625)"/>
    </defs>
    <use xlink:href="#SFBX3583-41" transform="scale(0.996264)"/>
    <use xlink:href="#SFBX3583-29" transform="translate(77.01004 0) scale(0.996264)"/>
   </g>
  </g>
  <g id="text_6">
   <!-- $\textrm{\bf Б)}$ -->
   <g transform="translate(7.2 176.088) scale(0.26 -0.26)">
    <defs>
     <path id="SFBX3583-c1" d="M 224 4476 
L 224 4288 
L 819 4288 
L 864 4255 
L 877 4183 
L 877 299 
L 864 221 
L 819 195 
L 224 195 
L 224 0 
L 2720 0 
C 3104 0 3488 39 3808 274 
C 4122 494 4288 865 4288 1242 
C 4288 1703 4032 2093 3642 2308 
C 3347 2470 3021 2496 2694 2496 
L 2534 2496 
C 2189 2496 1850 2464 1510 2418 
L 1510 4130 
C 1510 4150 1504 4176 1504 4203 
C 1504 4282 1574 4288 1638 4288 
L 2483 4288 
C 2970 4288 3469 4235 3667 3579 
C 3718 3395 3738 3204 3757 3014 
L 3923 3014 
L 3776 4476 
L 224 4476 
z
M 1510 2230 
C 1811 2256 2099 2289 2400 2289 
L 2547 2289 
C 2835 2289 3155 2191 3354 1965 
C 3533 1764 3610 1498 3610 1232 
C 3610 901 3488 551 3206 363 
C 2989 214 2739 195 2483 195 
L 1632 195 
C 1555 195 1504 201 1504 286 
C 1504 312 1510 338 1510 357 
L 1510 2230 
z
" transform="scale(0.015625)"/>
    </defs>
    <use xlink:href="#SFBX3583-c1" transform="scale(0.996264)"/>
    <use xlink:href="#SFBX3583-29" transform="translate(72.543757 0) scale(0.996264)"/>
   </g>
  </g>
 </g>
 <defs>
  <clipPath id="pbbaa503bcc">
   <rect x="59.563636" y="10.2" width="125.672727" height="125.672727"/>
  </clipPath>
  <clipPath id="p71655cc3a1">
   <rect x="59.563636" y="161.007273" width="125.672727" height="125.672727"/>
  </clipPath>
 </defs>
</svg>
