<?xml version="1.0" encoding="UTF-8" standalone="no"?>
<!-- Created with Inkscape (http://www.inkscape.org/) -->

<svg
   width="239.85754"
   height="130.47926"
   viewBox="0 0 239.85754 130.47926"
   version="1.1"
   id="svg1"
   inkscape:version="1.3 (0e150ed, 2023-07-21)"
   sodipodi:docname="297t.svg"
   xmlns:inkscape="http://www.inkscape.org/namespaces/inkscape"
   xmlns:sodipodi="http://sodipodi.sourceforge.net/DTD/sodipodi-0.dtd"
   xmlns="http://www.w3.org/2000/svg"
   xmlns:svg="http://www.w3.org/2000/svg">
  <sodipodi:namedview
     id="namedview1"
     pagecolor="#ffffff"
     bordercolor="#000000"
     borderopacity="0.25"
     inkscape:showpageshadow="2"
     inkscape:pageopacity="0.0"
     inkscape:pagecheckerboard="0"
     inkscape:deskcolor="#d1d1d1"
     inkscape:document-units="px"
     inkscape:zoom="1.9816713"
     inkscape:cx="117.32521"
     inkscape:cy="13.624863"
     inkscape:window-width="1440"
     inkscape:window-height="819"
     inkscape:window-x="0"
     inkscape:window-y="25"
     inkscape:window-maximized="0"
     inkscape:current-layer="layer1" />
  <defs
     id="defs1" />
  <g
     inkscape:label="Layer 1"
     inkscape:groupmode="layer"
     id="layer1"
     transform="translate(-30.140396,-29.649582)">
    <path
       style="fill:#000000;fill-opacity:1;stroke:#000000;stroke-width:1.02596;stroke-miterlimit:3.6;stroke-dasharray:none;stroke-dashoffset:0"
       d="M 40.464953,96.836557 H 260.30916"
       id="path1" />
    <path
       style="fill:#000000;fill-opacity:1;stroke:#000000;stroke-width:0.820841;stroke-linecap:butt;stroke-miterlimit:3.2;stroke-dasharray:none;stroke-dashoffset:0;stroke-opacity:0"
       id="path10-49"
       sodipodi:type="arc"
       sodipodi:cx="249.99463"
       sodipodi:cy="96.829956"
       sodipodi:rx="1.6890084"
       sodipodi:ry="1.6637199"
       sodipodi:start="4.9341481"
       sodipodi:end="4.9310255"
       sodipodi:arc-type="arc"
       d="m 250.36612,95.206977 a 1.6890084,1.6637199 0 0 1 1.27645,1.987641 1.6890084,1.6637199 0 0 1 -2.01686,1.258886 1.6890084,1.6637199 0 0 1 -1.27959,-1.985675 1.6890084,1.6637199 0 0 1 2.01485,-1.261986"
       sodipodi:open="true" />
    <path
       style="fill:#000000;fill-opacity:1;stroke:#000000;stroke-width:2;stroke-linejoin:miter;stroke-miterlimit:3.6;stroke-dasharray:none;stroke-dashoffset:0;paint-order:stroke fill markers"
       d="M 149.98574,36.741668 V 153.23536"
       id="path2" />
    <path
       style="fill:#000000;fill-opacity:1;stroke:#000000;stroke-width:0.820841;stroke-linecap:butt;stroke-miterlimit:3.2;stroke-dasharray:none;stroke-dashoffset:0;stroke-opacity:0"
       id="path10"
       sodipodi:type="arc"
       sodipodi:cx="99.986725"
       sodipodi:cy="96.763344"
       sodipodi:rx="1.6890084"
       sodipodi:ry="1.6637199"
       sodipodi:start="4.9341481"
       sodipodi:end="4.9310255"
       sodipodi:arc-type="arc"
       d="m 100.35822,95.140365 a 1.6890084,1.6637199 0 0 1 1.27644,1.98764 1.6890084,1.6637199 0 0 1 -2.016853,1.258887 1.6890084,1.6637199 0 0 1 -1.279596,-1.985675 1.6890084,1.6637199 0 0 1 2.014859,-1.261987"
       sodipodi:open="true" />
    <path
       style="fill:#000000;fill-opacity:1;stroke:#000000;stroke-width:0.820841;stroke-linecap:butt;stroke-miterlimit:3.2;stroke-dasharray:none;stroke-dashoffset:0;stroke-opacity:0"
       id="path10-8"
       sodipodi:type="arc"
       sodipodi:cx="49.996998"
       sodipodi:cy="96.845062"
       sodipodi:rx="1.6890084"
       sodipodi:ry="1.6637199"
       sodipodi:start="4.9341481"
       sodipodi:end="4.9310255"
       sodipodi:arc-type="arc"
       d="m 50.368488,95.222083 a 1.6890084,1.6637199 0 0 1 1.276447,1.987641 1.6890084,1.6637199 0 0 1 -2.016855,1.258886 1.6890084,1.6637199 0 0 1 -1.279596,-1.985674 1.6890084,1.6637199 0 0 1 2.014858,-1.261987"
       sodipodi:open="true" />
    <path
       style="fill:#000000;fill-opacity:1;stroke:#000000;stroke-width:0.820841;stroke-linecap:butt;stroke-miterlimit:3.2;stroke-dasharray:none;stroke-dashoffset:0;stroke-opacity:0"
       id="path10-4"
       sodipodi:type="arc"
       sodipodi:cx="200.00621"
       sodipodi:cy="96.82988"
       sodipodi:rx="1.6890084"
       sodipodi:ry="1.6637199"
       sodipodi:start="4.9341481"
       sodipodi:end="4.9310255"
       sodipodi:arc-type="arc"
       d="m 200.3777,95.206901 a 1.6890084,1.6637199 0 0 1 1.27645,1.98764 1.6890084,1.6637199 0 0 1 -2.01686,1.258887 1.6890084,1.6637199 0 0 1 -1.27959,-1.985675 1.6890084,1.6637199 0 0 1 2.01485,-1.261987"
       sodipodi:open="true" />
    <path
       sodipodi:type="star"
       style="fill:#000000;fill-opacity:1;stroke:#000000;stroke-width:1;stroke-linecap:butt;stroke-miterlimit:3.2;stroke-dasharray:none;stroke-dashoffset:0;stroke-opacity:0.866848"
       id="path13"
       inkscape:flatsided="false"
       sodipodi:sides="5"
       sodipodi:cx="219.64278"
       sodipodi:cy="161.56219"
       sodipodi:r1="2.2026308"
       sodipodi:r2="6.9735885"
       sodipodi:arg1="1.1902899"
       sodipodi:arg2="1.6908383"
       inkscape:rounded="0"
       inkscape:randomized="0"
       d="m 220.46081,163.60729 -1.65315,4.87831 -0.85709,-5.51344 -5.15041,-0.0648 4.97874,-2.51889 -1.52998,-4.91833 3.93413,3.95667 4.20482,-2.97494 -2.54731,4.96425 4.1287,3.07973 z"
       inkscape:transform-center-x="0.74638074"
       inkscape:transform-center-y="-0.28090198"
       transform="matrix(0.64121764,0,0,0.61357259,109.21555,39.277721)" />
    <path
       style="fill:#000000;fill-opacity:1;stroke:#000000;stroke-width:0.820841;stroke-linecap:butt;stroke-miterlimit:3.2;stroke-dasharray:none;stroke-dashoffset:0;stroke-opacity:0"
       id="path10-49-1"
       sodipodi:type="arc"
       sodipodi:cx="183.74121"
       sodipodi:cy="110.98458"
       sodipodi:rx="1.6890084"
       sodipodi:ry="1.6637199"
       sodipodi:start="4.9341481"
       sodipodi:end="4.9310255"
       sodipodi:arc-type="arc"
       d="m 184.1127,109.3616 a 1.6890084,1.6637199 0 0 1 1.27645,1.98764 1.6890084,1.6637199 0 0 1 -2.01686,1.25889 1.6890084,1.6637199 0 0 1 -1.27959,-1.98568 1.6890084,1.6637199 0 0 1 2.01485,-1.26198"
       sodipodi:open="true" />
    <path
       style="fill:#000000;fill-opacity:1;stroke:#000000;stroke-width:0.820841;stroke-linecap:butt;stroke-miterlimit:3.2;stroke-dasharray:none;stroke-dashoffset:0;stroke-opacity:0"
       id="path10-49-10"
       sodipodi:type="arc"
       sodipodi:cx="184.14212"
       sodipodi:cy="80.940681"
       sodipodi:rx="1.6890084"
       sodipodi:ry="1.6637199"
       sodipodi:start="4.9341481"
       sodipodi:end="4.9310255"
       sodipodi:arc-type="arc"
       d="m 184.51361,79.317703 a 1.6890084,1.6637199 0 0 1 1.27645,1.98764 1.6890084,1.6637199 0 0 1 -2.01686,1.258887 1.6890084,1.6637199 0 0 1 -1.27959,-1.985675 1.6890084,1.6637199 0 0 1 2.01485,-1.261987"
       sodipodi:open="true" />
    <path
       style="fill:#000000;fill-opacity:1;stroke:#000000;stroke-width:0.820841;stroke-linecap:butt;stroke-miterlimit:3.2;stroke-dasharray:none;stroke-dashoffset:0;stroke-opacity:0"
       id="path10-49-6"
       sodipodi:type="arc"
       sodipodi:cx="114.3808"
       sodipodi:cy="80.855003"
       sodipodi:rx="1.6890084"
       sodipodi:ry="1.6637199"
       sodipodi:start="4.9341481"
       sodipodi:end="4.9310255"
       sodipodi:arc-type="arc"
       d="m 114.75229,79.232025 a 1.6890084,1.6637199 0 0 1 1.27645,1.98764 1.6890084,1.6637199 0 0 1 -2.01686,1.258887 1.6890084,1.6637199 0 0 1 -1.2796,-1.985675 1.6890084,1.6637199 0 0 1 2.01486,-1.261987"
       sodipodi:open="true" />
    <path
       style="fill:#000000;fill-opacity:1;stroke:#000000;stroke-width:0.820841;stroke-linecap:butt;stroke-miterlimit:3.2;stroke-dasharray:none;stroke-dashoffset:0;stroke-opacity:0"
       id="path10-49-5"
       sodipodi:type="arc"
       sodipodi:cx="114.58032"
       sodipodi:cy="111.94068"
       sodipodi:rx="1.6890084"
       sodipodi:ry="1.6637199"
       sodipodi:start="4.9341481"
       sodipodi:end="4.9310255"
       sodipodi:arc-type="arc"
       d="m 114.95181,110.3177 a 1.6890084,1.6637199 0 0 1 1.27645,1.98764 1.6890084,1.6637199 0 0 1 -2.01686,1.25889 1.6890084,1.6637199 0 0 1 -1.27959,-1.98568 1.6890084,1.6637199 0 0 1 2.01486,-1.26198"
       sodipodi:open="true" />
    <path
       style="fill:#000000;fill-opacity:1;stroke:#000000;stroke-width:0.820841;stroke-linecap:butt;stroke-miterlimit:3.2;stroke-dasharray:none;stroke-dashoffset:0;stroke-opacity:0"
       id="path10-49-13"
       sodipodi:type="arc"
       sodipodi:cx="49.794506"
       sodipodi:cy="54.336025"
       sodipodi:rx="1.6890084"
       sodipodi:ry="1.6637199"
       sodipodi:start="4.9341481"
       sodipodi:end="4.9310255"
       sodipodi:arc-type="arc"
       d="m 50.165997,52.713046 a 1.6890084,1.6637199 0 0 1 1.276447,1.987641 1.6890084,1.6637199 0 0 1 -2.016856,1.258886 1.6890084,1.6637199 0 0 1 -1.279595,-1.985674 1.6890084,1.6637199 0 0 1 2.014857,-1.261987"
       sodipodi:open="true" />
    <path
       style="fill:#000000;fill-opacity:1;stroke:#000000;stroke-width:0.820841;stroke-linecap:butt;stroke-miterlimit:3.2;stroke-dasharray:none;stroke-dashoffset:0;stroke-opacity:0"
       id="path10-49-55"
       sodipodi:type="arc"
       sodipodi:cx="50.099277"
       sodipodi:cy="138.37888"
       sodipodi:rx="1.6890084"
       sodipodi:ry="1.6637199"
       sodipodi:start="4.9341481"
       sodipodi:end="4.9310255"
       sodipodi:arc-type="arc"
       d="m 50.470768,136.7559 a 1.6890084,1.6637199 0 0 1 1.276447,1.98764 1.6890084,1.6637199 0 0 1 -2.016855,1.25888 1.6890084,1.6637199 0 0 1 -1.279596,-1.98567 1.6890084,1.6637199 0 0 1 2.014857,-1.26199"
       sodipodi:open="true" />
    <path
       style="fill:#000000;fill-opacity:1;stroke:#000000;stroke-width:0.820841;stroke-linecap:butt;stroke-miterlimit:3.2;stroke-dasharray:none;stroke-dashoffset:0;stroke-opacity:0"
       id="path10-49-19"
       sodipodi:type="arc"
       sodipodi:cx="249.79449"
       sodipodi:cy="54.507401"
       sodipodi:rx="1.6890084"
       sodipodi:ry="1.6637199"
       sodipodi:start="4.9341481"
       sodipodi:end="4.9310255"
       sodipodi:arc-type="arc"
       d="m 250.16599,52.884422 a 1.6890084,1.6637199 0 0 1 1.27644,1.98764 1.6890084,1.6637199 0 0 1 -2.01685,1.258887 1.6890084,1.6637199 0 0 1 -1.2796,-1.985675 1.6890084,1.6637199 0 0 1 2.01486,-1.261987"
       sodipodi:open="true" />
    <g
       id="text15">
      <path
         style="color:#000000;-inkscape-font-specification:'STIX Two Text, Italic';fill:#000000;stroke-miterlimit:3.2;-inkscape-stroke:none"
         d="m 258.03768,149.6739 c 0.064,-0.32 0.304,-0.528 0.528,-0.528 0.368,0 0.848,0.48 2.512,0.48 1.984,0 3.712,-1.216 3.712,-3.248 0,-1.536 -1.136,-2.176 -2.304,-2.944 -1.04,-0.64 -1.936,-1.296 -1.936,-2.272 0,-1.152 0.784,-1.824 2.112,-1.824 1.616,0 2.064,0.768 2.128,2.528 h 0.464 l 0.544,-3.104 h -0.384 c -0.16,0.336 -0.352,0.464 -0.624,0.464 -0.352,0 -0.72,-0.464 -2.112,-0.464 -1.792,0 -3.488,1.008 -3.488,2.864 0,1.472 0.88,2.08 1.936,2.752 0.016,0 0.016,0.016 0.032,0.016 1.12,0.72 2.16,1.376 2.144,2.736 -0.016,1.232 -0.992,1.824 -2.32,1.824 -1.616,0.016 -2.16,-0.528 -2.304,-2.736 h -0.448 l -0.672,3.456 z"
         id="path3" />
      <path
         style="color:#000000;-inkscape-font-specification:'STIX Two Text, Italic';fill:#000000;fill-opacity:0.866848;stroke-miterlimit:3.2;-inkscape-stroke:none"
         d="m 258.03768,149.6739 c 0.064,-0.32 0.304,-0.528 0.528,-0.528 0.368,0 0.848,0.48 2.512,0.48 1.984,0 3.712,-1.216 3.712,-3.248 0,-1.536 -1.136,-2.176 -2.304,-2.944 -1.04,-0.64 -1.936,-1.296 -1.936,-2.272 0,-1.152 0.784,-1.824 2.112,-1.824 1.616,0 2.064,0.768 2.128,2.528 h 0.464 l 0.544,-3.104 h -0.384 c -0.16,0.336 -0.352,0.464 -0.624,0.464 -0.352,0 -0.72,-0.464 -2.112,-0.464 -1.792,0 -3.488,1.008 -3.488,2.864 0,1.472 0.88,2.08 1.936,2.752 0.016,0 0.016,0.016 0.032,0.016 1.12,0.72 2.16,1.376 2.144,2.736 -0.016,1.232 -0.992,1.824 -2.32,1.824 -1.616,0.016 -2.16,-0.528 -2.304,-2.736 h -0.448 l -0.672,3.456 z"
         id="path4" />
    </g>
    <g
       id="text15-1">
      <path
         style="color:#000000;-inkscape-font-specification:'STIX Two Text, Italic';fill:#000000;stroke-miterlimit:3.2;-inkscape-stroke:none"
         d="m 207.016,90.671997 0.08,-0.48 c -0.992,0 -1.504,-0.112 -1.504,-0.672 0,-0.144 0.016,-0.336 0.064,-0.544 l 0.688,-3.424 h 1.728 c 1.376,0 1.632,0.176 1.376,1.536 h 0.528 l 0.736,-3.728 H 210.2 c -0.272,1.28 -0.608,1.584 -1.968,1.584 h -1.76 l 0.848,-4.16 h 2.4 c 2.08,0 2.144,0.464 2.128,1.984 h 0.48 l 0.432,-2.608 h -8.256 l -0.096,0.48 c 1.296,0 1.472,0.224 1.248,1.328 l -1.424,6.848 c -0.24,1.184 -0.624,1.376 -1.728,1.376 l -0.096,0.48 z"
         id="path5" />
      <path
         style="color:#000000;-inkscape-font-specification:'STIX Two Text, Italic';fill:#000000;fill-opacity:0.866848;stroke-miterlimit:3.2;-inkscape-stroke:none"
         d="m 207.016,90.671997 0.08,-0.48 c -0.992,0 -1.504,-0.112001 -1.504,-0.672 0,-0.144 0.016,-0.336 0.064,-0.544 l 0.688,-3.424 h 1.728 c 1.376,0 1.632,0.176001 1.376,1.536 h 0.528 l 0.736,-3.728 H 210.2 c -0.272,1.279999 -0.608,1.584 -1.968,1.584 h -1.76 l 0.848,-4.16 h 2.4 c 2.08,0 2.144,0.464002 2.128,1.984 h 0.48 l 0.432,-2.608 h -8.256 l -0.096,0.48 c 1.296,0 1.472,0.224001 1.248,1.328 l -1.424,6.848 c -0.24,1.183999 -0.624,1.376 -1.728,1.376 l -0.096,0.48 z"
         id="path6" />
    </g>
    <g
       id="text15-1-3">
      <path
         style="color:#000000;-inkscape-font-specification:'STIX Two Text, Italic';fill:#000000;stroke-miterlimit:3.2;-inkscape-stroke:none"
         d="m 93.54193,91.213997 0.08,-0.48 c -0.992,0 -1.504,-0.112 -1.504,-0.672 0,-0.144 0.016,-0.336 0.064,-0.544 l 0.688,-3.424 h 1.728 c 1.376,0 1.632,0.176 1.376,1.536 h 0.528 l 0.736,-3.728 h -0.512 c -0.272,1.28 -0.608,1.584 -1.968,1.584 h -1.76 l 0.848,-4.16 h 2.4 c 2.08,0 2.144,0.464 2.128,1.984 h 0.48 l 0.432,-2.608 h -8.256 l -0.096,0.48 c 1.296,0 1.472,0.224 1.248,1.328 l -1.424,6.848 c -0.24,1.184 -0.624,1.376 -1.728,1.376 l -0.096,0.48 z"
         id="path7" />
      <path
         style="color:#000000;-inkscape-font-specification:'STIX Two Text, Italic';fill:#000000;fill-opacity:0.866848;stroke-miterlimit:3.2;-inkscape-stroke:none"
         d="m 92.126953,81.431641 c 0.089,0.097 0.131469,0.228047 0.136719,0.404296 -0.0053,-0.176249 -0.04577,-0.307296 -0.134766,-0.404296 -3.38e-4,-3.69e-4 -0.0016,3.67e-4 -0.002,0 z"
         id="path8" />
    </g>
    <g
       id="g1"
       transform="translate(-5.2397167,-58.200303)">
      <g
         id="text15-8"
         style="font-style:italic;font-size:16px;font-family:'STIX Two Text';-inkscape-font-specification:'STIX Two Text, Italic';stroke:#000000;stroke-width:0;stroke-miterlimit:3.2;stroke-opacity:0.866848"
         aria-label="2F">
        <g
           id="path9">
          <path
             style="color:#000000;-inkscape-font-specification:'STIX Two Text, Normal';fill:#000000;stroke:none;stroke-opacity:1;-inkscape-stroke:none"
             d="m 264.08568,149.4339 0.512,-2.56 h -0.464 c -0.368,0.96 -0.576,1.296 -1.424,1.296 h -2.224 l -1.12,0.048 v -0.08 l 2.112,-2 c 1.696,-1.712 2.608,-2.816 2.608,-4.24 0,-1.68 -1.264,-2.768 -3.072,-2.768 -1.552,0 -2.64,0.896 -3.136,2.448 l 0.384,0.16 c 0.592,-1.2 1.296,-1.568 2.336,-1.568 1.232,0 2,0.768 2,1.968 0,1.68 -0.8,2.688 -2.384,4.32 l -2.432,2.432 v 0.544 z"
             id="path12" />
          <path
             style="color:#000000;-inkscape-font-specification:'STIX Two Text, Normal';fill:#000000;fill-opacity:0.866848;stroke:none;stroke-opacity:1;-inkscape-stroke:none"
             d="m 264.08568,149.4339 0.512,-2.56 h -0.464 c -0.368,0.96 -0.576,1.296 -1.424,1.296 h -2.224 l -1.12,0.048 v -0.08 l 2.112,-2 c 1.696,-1.712 2.608,-2.816 2.608,-4.24 0,-1.68 -1.264,-2.768 -3.072,-2.768 -1.552,0 -2.64,0.896 -3.136,2.448 l 0.384,0.16 c 0.592,-1.2 1.296,-1.568 2.336,-1.568 1.232,0 2,0.768 2,1.968 0,1.68 -0.8,2.688 -2.384,4.32 l -2.432,2.432 v 0.544 z"
             id="path14" />
        </g>
        <g
           id="path11">
          <path
             style="color:#000000;-inkscape-font-specification:'STIX Two Text, Italic';fill:#000000;stroke:none;stroke-opacity:1;-inkscape-stroke:none"
             d="m 269.49366,149.4339 0.08,-0.48 c -0.992,0 -1.504,-0.112 -1.504,-0.672 0,-0.144 0.016,-0.336 0.064,-0.544 l 0.688,-3.424 h 1.728 c 1.376,0 1.632,0.176 1.376,1.536 h 0.528 l 0.736,-3.728 h -0.512 c -0.272,1.28 -0.608,1.584 -1.968,1.584 h -1.76 l 0.848,-4.16 h 2.4 c 2.08,0 2.144,0.464 2.128,1.984 h 0.48 l 0.432,-2.608 h -8.256 l -0.096,0.48 c 1.296,0 1.472,0.224 1.248,1.328 l -1.424,6.848 c -0.24,1.184 -0.624,1.376 -1.728,1.376 l -0.096,0.48 z"
             id="path15" />
          <path
             style="color:#000000;-inkscape-font-specification:'STIX Two Text, Italic';fill:#000000;fill-opacity:0.866848;stroke:none;stroke-opacity:1;-inkscape-stroke:none"
             d="m 269.49366,149.4339 0.08,-0.48 c -0.992,0 -1.504,-0.112 -1.504,-0.672 0,-0.144 0.016,-0.336 0.064,-0.544 l 0.688,-3.424 h 1.728 c 1.376,0 1.632,0.176 1.376,1.536 h 0.528 l 0.736,-3.728 h -0.512 c -0.272,1.28 -0.608,1.584 -1.968,1.584 h -1.76 l 0.848,-4.16 h 2.4 c 2.08,0 2.144,0.464 2.128,1.984 h 0.48 l 0.432,-2.608 h -8.256 l -0.096,0.48 c 1.296,0 1.472,0.224 1.248,1.328 l -1.424,6.848 c -0.24,1.184 -0.624,1.376 -1.728,1.376 l -0.096,0.48 z"
             id="path16" />
        </g>
      </g>
    </g>
    <g
       id="g2"
       transform="translate(-227.64128,-58.394714)">
      <g
         id="text15-8-3"
         style="font-style:italic;font-size:16px;font-family:'STIX Two Text';-inkscape-font-specification:'STIX Two Text, Italic';stroke:#000000;stroke-width:0;stroke-miterlimit:3.2;stroke-opacity:0.866848"
         aria-label="2F">
        <g
           id="path17">
          <path
             style="color:#000000;-inkscape-font-specification:'STIX Two Text, Normal';fill:#000000;stroke:none;stroke-opacity:1;-inkscape-stroke:none"
             d="m 264.08568,149.4339 0.512,-2.56 h -0.464 c -0.368,0.96 -0.576,1.296 -1.424,1.296 h -2.224 l -1.12,0.048 v -0.08 l 2.112,-2 c 1.696,-1.712 2.608,-2.816 2.608,-4.24 0,-1.68 -1.264,-2.768 -3.072,-2.768 -1.552,0 -2.64,0.896 -3.136,2.448 l 0.384,0.16 c 0.592,-1.2 1.296,-1.568 2.336,-1.568 1.232,0 2,0.768 2,1.968 0,1.68 -0.8,2.688 -2.384,4.32 l -2.432,2.432 v 0.544 z"
             id="path19" />
          <path
             style="color:#000000;-inkscape-font-specification:'STIX Two Text, Normal';fill:#000000;fill-opacity:0.866848;stroke:none;stroke-opacity:1;-inkscape-stroke:none"
             d="m 264.08568,149.4339 0.512,-2.56 h -0.464 c -0.368,0.96 -0.576,1.296 -1.424,1.296 h -2.224 l -1.12,0.048 v -0.08 l 2.112,-2 c 1.696,-1.712 2.608,-2.816 2.608,-4.24 0,-1.68 -1.264,-2.768 -3.072,-2.768 -1.552,0 -2.64,0.896 -3.136,2.448 l 0.384,0.16 c 0.592,-1.2 1.296,-1.568 2.336,-1.568 1.232,0 2,0.768 2,1.968 0,1.68 -0.8,2.688 -2.384,4.32 l -2.432,2.432 v 0.544 z"
             id="path20" />
        </g>
        <g
           id="path18">
          <path
             style="color:#000000;-inkscape-font-specification:'STIX Two Text, Italic';fill:#000000;stroke:none;stroke-opacity:1;-inkscape-stroke:none"
             d="m 269.49366,149.4339 0.08,-0.48 c -0.992,0 -1.504,-0.112 -1.504,-0.672 0,-0.144 0.016,-0.336 0.064,-0.544 l 0.688,-3.424 h 1.728 c 1.376,0 1.632,0.176 1.376,1.536 h 0.528 l 0.736,-3.728 h -0.512 c -0.272,1.28 -0.608,1.584 -1.968,1.584 h -1.76 l 0.848,-4.16 h 2.4 c 2.08,0 2.144,0.464 2.128,1.984 h 0.48 l 0.432,-2.608 h -8.256 l -0.096,0.48 c 1.296,0 1.472,0.224 1.248,1.328 l -1.424,6.848 c -0.24,1.184 -0.624,1.376 -1.728,1.376 l -0.096,0.48 z"
             id="path21" />
          <path
             style="color:#000000;-inkscape-font-specification:'STIX Two Text, Italic';fill:#000000;fill-opacity:0.866848;stroke:none;stroke-opacity:1;-inkscape-stroke:none"
             d="m 269.49366,149.4339 0.08,-0.48 c -0.992,0 -1.504,-0.112 -1.504,-0.672 0,-0.144 0.016,-0.336 0.064,-0.544 l 0.688,-3.424 h 1.728 c 1.376,0 1.632,0.176 1.376,1.536 h 0.528 l 0.736,-3.728 h -0.512 c -0.272,1.28 -0.608,1.584 -1.968,1.584 h -1.76 l 0.848,-4.16 h 2.4 c 2.08,0 2.144,0.464 2.128,1.984 h 0.48 l 0.432,-2.608 h -8.256 l -0.096,0.48 c 1.296,0 1.472,0.224 1.248,1.328 l -1.424,6.848 c -0.24,1.184 -0.624,1.376 -1.728,1.376 l -0.096,0.48 z"
             id="path22" />
        </g>
      </g>
    </g>
    <text
       xml:space="preserve"
       style="font-style:normal;font-variant:normal;font-weight:normal;font-stretch:normal;font-size:16px;font-family:'STIX Two Text';-inkscape-font-specification:'STIX Two Text, Normal';font-variant-ligatures:normal;font-variant-caps:normal;font-variant-numeric:normal;font-variant-east-asian:normal;fill:#000000;fill-opacity:1;stroke:#000000;stroke-width:0;stroke-linecap:butt;stroke-miterlimit:3.2;stroke-dasharray:none;stroke-dashoffset:0;stroke-opacity:0.866848"
       x="283.18515"
       y="92.101868"
       id="text17"><tspan
         sodipodi:role="line"
         id="tspan17"
         x="283.18515"
         y="92.101868" /></text>
    <g
       id="text18">
      <path
         style="color:#000000;-inkscape-font-specification:'STIX Two Text, Normal';fill:#000000;stroke-miterlimit:3.2;-inkscape-stroke:none"
         d="m 43.365572,49.041199 v -0.448 c -1.472,0 -2.064,-0.288 -2.064,-1.072 v -8.704 h -0.464 l -3.104,0.88 v 0.528 c 0.496,-0.16 1.312,-0.256 1.632,-0.256 0.4,0 0.528,0.224 0.528,0.784 v 6.768 c 0,0.8 -0.56,1.072 -2.064,1.072 v 0.448 z"
         id="path23" />
      <path
         style="color:#000000;-inkscape-font-specification:'STIX Two Text, Normal';fill:#000000;fill-opacity:0.866848;stroke-miterlimit:3.2;-inkscape-stroke:none"
         d="m 43.365572,49.041199 v -0.448 c -1.471999,0 -2.064,-0.288001 -2.064,-1.072 v -8.704 h -0.464 l -3.104,0.88 v 0.528 c 0.496,-0.16 1.312,-0.256 1.632,-0.256 0.4,0 0.528,0.224001 0.528,0.784 v 6.768 c 0,0.799999 -0.560002,1.072 -2.064,1.072 v 0.448 z"
         id="path24" />
    </g>
    <g
       id="text19">
      <path
         style="color:#000000;-inkscape-font-specification:'STIX Two Text, Normal';fill:#000000;stroke-miterlimit:3.2;-inkscape-stroke:none"
         d="m 261.37105,49.041199 0.512,-2.56 h -0.464 c -0.368,0.96 -0.576,1.296 -1.424,1.296 h -2.224 l -1.12,0.048 v -0.08 l 2.112,-2 c 1.696,-1.712 2.608,-2.816 2.608,-4.24 0,-1.68 -1.264,-2.768 -3.072,-2.768 -1.552,0 -2.64,0.896 -3.136,2.448 l 0.384,0.16 c 0.592,-1.2 1.296,-1.568 2.336,-1.568 1.232,0 2,0.768 2,1.968 0,1.68 -0.8,2.688 -2.384,4.32 l -2.432,2.432 v 0.544 z"
         id="path29" />
      <path
         style="color:#000000;-inkscape-font-specification:'STIX Two Text, Normal';fill:#000000;fill-opacity:0.866848;stroke-miterlimit:3.2;-inkscape-stroke:none"
         d="m 261.37105,49.041199 0.512,-2.56 h -0.464 c -0.368,0.959999 -0.576,1.296 -1.424,1.296 h -2.224 l -1.12,0.048 v -0.08 l 2.112,-2 c 1.696,-1.711998 2.608,-2.816001 2.608,-4.24 0,-1.679998 -1.264,-2.768 -3.072,-2.768 -1.552,0 -2.64,0.896002 -3.136,2.448 l 0.384,0.16 c 0.592,-1.199999 1.296,-1.568 2.336,-1.568 1.232,0 2,0.768001 2,1.968 0,1.679998 -0.8,2.688002 -2.384,4.32 l -2.432,2.432 v 0.544 z"
         id="path30" />
    </g>
    <g
       id="text20">
      <path
         style="color:#000000;-inkscape-font-specification:'STIX Two Text, Normal';fill:#000000;stroke-miterlimit:3.2;-inkscape-stroke:none"
         d="m 37.434959,149.64484 c 2.336,0 4.368,-1.12 4.368,-3.312 0,-1.424 -1.072,-2.272 -2.352,-2.672 v -0.048 c 1.008,-0.64 1.728,-1.232 1.728,-2.336 0,-1.216 -0.944,-2.144 -2.576,-2.144 -1.312,0 -2.304,0.736 -2.896,2.128 l 0.368,0.208 c 0.544,-0.848 1.136,-1.296 2.096,-1.296 0.992,0 1.632,0.544 1.632,1.488 0,1.296 -1.136,2.176 -2.224,2.176 h -0.304 v 0.608 h 0.32 c 1.536,0 2.896,0.944 2.896,2.368 0,1.568 -0.976,2.032 -1.984,2.032 -0.816,0 -1.6,-0.784 -2.24,-0.784 -0.416,0 -0.624,0.368 -0.624,0.704 0,0.416 0.352,0.88 1.792,0.88 z"
         id="path31" />
      <path
         style="color:#000000;-inkscape-font-specification:'STIX Two Text, Normal';fill:#000000;fill-opacity:0.866848;stroke-miterlimit:3.2;-inkscape-stroke:none"
         d="m 37.434959,149.64484 c 2.335998,0 4.368,-1.12 4.368,-3.312 0,-1.424 -1.072001,-2.272 -2.352,-2.672 v -0.048 c 1.007999,-0.64 1.728,-1.232 1.728,-2.336 0,-1.216 -0.944002,-2.144 -2.576,-2.144 -1.311999,0 -2.304001,0.736 -2.896,2.128 l 0.368,0.208 c 0.543999,-0.848 1.136001,-1.296 2.096,-1.296 0.991999,0 1.632,0.544 1.632,1.488 0,1.296 -1.136001,2.176 -2.224,2.176 h -0.304 v 0.608 h 0.32 c 1.535998,0 2.896,0.944 2.896,2.368 0,1.568 -0.976001,2.032 -1.984,2.032 -0.815999,0 -1.600001,-0.784 -2.24,-0.784 -0.416,0 -0.624,0.368 -0.624,0.704 0,0.416 0.352001,0.88 1.792,0.88 z"
         id="path32" />
    </g>
    <g
       id="text21">
      <path
         style="color:#000000;-inkscape-font-specification:'STIX Two Text, Normal';fill:#000000;stroke-miterlimit:3.2;-inkscape-stroke:none"
         d="m 106.45966,121.21503 v -2.528 h 1.632 v -1.104 h -1.632 v -6.688 h -0.976 l -4.88,6.784 v 1.008 h 4.432 v 2.528 z m -4.976,-3.696 3.488,-4.88 h 0.064 v 4.944 h -3.552 z"
         id="path33" />
      <path
         style="color:#000000;-inkscape-font-specification:'STIX Two Text, Normal';fill:#000000;fill-opacity:0.866848;stroke-miterlimit:3.2;-inkscape-stroke:none"
         d="m 106.45966,121.21503 v -2.528 h 1.632 v -1.104 h -1.632 v -6.688 h -0.976 l -4.88,6.784 v 1.008 h 4.432 v 2.528 z m -4.976,-3.696 3.488,-4.88 h 0.064 v 4.944 h -3.552 z"
         id="path34" />
    </g>
    <g
       id="text22">
      <path
         style="color:#000000;-inkscape-font-specification:'STIX Two Text, Normal';fill:#000000;stroke-miterlimit:3.2;-inkscape-stroke:none"
         d="m 121.68577,73.769798 c 2.544,0 4.304,-1.248 4.304,-3.712 0,-2.512 -1.968,-3.264 -4.608,-3.456 l 0.432,-1.824 h 3.76 l 0.256,-1.296 h -4.384 l -0.992,4.176 0.192,0.24 c 2.112,0.048 4.176,0.432 4.176,2.8 0,1.664 -1.008,2.272 -2.144,2.272 -1.024,0 -1.552,-0.784 -2.192,-0.784 -0.4,0 -0.64,0.32 -0.64,0.688 0,0.592 0.608,0.896 1.84,0.896 z"
         id="path35" />
      <path
         style="color:#000000;-inkscape-font-specification:'STIX Two Text, Normal';fill:#000000;fill-opacity:0.866848;stroke-miterlimit:3.2;-inkscape-stroke:none"
         d="m 121.68577,73.769798 c 2.544,0 4.304,-1.248002 4.304,-3.712 0,-2.511997 -1.968,-3.264 -4.608,-3.456 l 0.432,-1.824 h 3.76 l 0.256,-1.296 h -4.384 l -0.992,4.176 0.192,0.24 c 2.112,0.048 4.176,0.432002 4.176,2.8 0,1.663998 -1.008,2.272 -2.144,2.272 -1.024,0 -1.552,-0.784 -2.192,-0.784 -0.4,0 -0.64,0.32 -0.64,0.688 0,0.591999 0.608,0.896 1.84,0.896 z"
         id="path36" />
    </g>
    <g
       id="text23">
      <path
         style="color:#000000;-inkscape-font-specification:'STIX Two Text, Normal';fill:#000000;stroke-miterlimit:3.2;-inkscape-stroke:none"
         d="m 176.7135,73.75379 c 2.016,0 3.168,-1.264 3.168,-3.44 0,-2.096 -1.136,-3.36 -2.88,-3.36 -0.832,0 -1.424,0.352 -2.08,0.992 l -0.112,-0.016 c 0.4,-2.336 2.192,-3.904 4.432,-4.24 l -0.032,-0.464 c -3.44,0.144 -5.92,2.368 -5.92,6.224 0,2.352 1.04,4.304 3.424,4.304 z m 0.064,-0.56 c -1.392,0 -2.048,-1.424 -2.048,-3.408 0,-1.392 0.864,-1.904 1.792,-1.904 1.328,0 1.968,1.12 1.968,2.56 0,2.032 -0.64,2.752 -1.712,2.752 z"
         id="path37" />
      <path
         style="color:#000000;-inkscape-font-specification:'STIX Two Text, Normal';fill:#000000;fill-opacity:0.866848;stroke-miterlimit:3.2;-inkscape-stroke:none"
         d="m 176.7135,73.75379 c 2.016,0 3.168,-1.264002 3.168,-3.44 0,-2.095998 -1.136,-3.36 -2.88,-3.36 -0.832,0 -1.424,0.352001 -2.08,0.992 l -0.112,-0.016 c 0.4,-2.335998 2.192,-3.904 4.432,-4.24 l -0.032,-0.464 c -3.44,0.144 -5.92,2.368004 -5.92,6.224 0,2.351998 1.04,4.304 3.424,4.304 z m 0.064,-0.56 c -1.392,0 -2.048,-1.424002 -2.048,-3.408 0,-1.391999 0.864,-1.904 1.792,-1.904 1.328,0 1.968,1.120001 1.968,2.56 0,2.031998 -0.64,2.752 -1.712,2.752 z"
         id="path38" />
    </g>
    <g
       id="text24">
      <path
         style="color:#000000;-inkscape-font-specification:'STIX Two Text, Normal';fill:#000000;stroke-miterlimit:3.2;-inkscape-stroke:none"
         d="m 193.8303,120.88038 3.744,-9.712 v -0.496 h -6.112 l -0.64,2.448 0.496,0.048 c 0.432,-1.04 0.56,-1.2 1.456,-1.2 h 3.568 l -3.776,8.912 z"
         id="path39" />
      <path
         style="color:#000000;-inkscape-font-specification:'STIX Two Text, Normal';fill:#000000;fill-opacity:0.866848;stroke-miterlimit:3.2;-inkscape-stroke:none"
         d="m 193.8303,120.88038 3.744,-9.712 v -0.496 h -6.112 l -0.64,2.448 0.496,0.048 c 0.432,-1.04 0.56,-1.2 1.456,-1.2 h 3.568 l -3.776,8.912 z"
         id="path40" />
    </g>
    <path
       style="fill:none;stroke:#000000;stroke-width:1.6;stroke-linecap:butt;stroke-linejoin:miter;stroke-dasharray:none;stroke-opacity:1"
       d="m 150.3024,37.051793 6.83652,-6.836526"
       id="path25" />
    <path
       style="fill:none;stroke:#000000;stroke-width:1.6;stroke-linecap:butt;stroke-linejoin:miter;stroke-dasharray:none;stroke-opacity:1"
       d="m 149.92706,37.159033 -6.67567,-6.675667"
       id="path26" />
    <path
       style="fill:none;stroke:#000000;stroke-width:1.6;stroke-linecap:butt;stroke-linejoin:miter;stroke-dasharray:none;stroke-opacity:1"
       d="m 149.62911,152.93944 -6.62371,6.62371"
       id="path27" />
    <path
       style="fill:none;stroke:#000000;stroke-width:1.6;stroke-linecap:butt;stroke-linejoin:miter;stroke-dasharray:none;stroke-opacity:1"
       d="m 150.3098,152.88708 6.67608,6.67608"
       id="path28" />
  </g>
</svg>
