<svg xmlns="http://www.w3.org/2000/svg" version="1.0" width="1352.221374pt" height="1752.130737pt" viewBox="0 0 1352.221374 1752.130737" preserveAspectRatio="xMidYMid meet">
<metadata>
Created by potrace 1.16, written by Peter Selinger 2001-2019
</metadata>
<g transform="translate(-13.000000,1766.974229) scale(0.100000,-0.100000)" fill="#000000" stroke="none">
<path d="M505 17638 c-7 -18 -23 -68 -36 -111 l-23 -79 -75 4 c-62 2 -76 0 -76 -12 0 -12 16 -16 71 -18 66 -3 71 -5 67 -22 -5 -17 -14 -20 -70 -20 -47 0 -64 -3 -61 -12 3 -8 27 -14 60 -16 l56 -3 -9 -32 c-13 -47 -11 -77 6 -77 17 0 39 36 30 50 -3 5 -3 21 1 35 5 21 12 25 40 25 19 0 34 -2 34 -5 0 -2 -9 -28 -20 -56 -12 -28 -19 -54 -16 -57 14 -13 36 13 57 66 l23 60 88 7 c48 3 88 11 88 16 0 5 -36 9 -80 9 -44 0 -80 3 -80 8 1 23 22 31 90 34 92 4 95 21 5 28 l-66 5 45 93 c39 80 43 94 29 99 -21 8 -34 -11 -80 -118 l-37 -89 -43 0 -42 0 35 100 c19 56 32 105 29 110 -11 18 -26 10 -40 -22z m45 -228 c0 -13 -34 -30 -63 -30 -20 0 -24 4 -20 20 4 16 14 20 44 20 22 0 39 -4 39 -10z"/>
<path d="M4655 17588 c-3 -7 -4 -1043 -3 -2303 l3 -2290 694 -3 693 -2 30 -25 c32 -27 88 -34 88 -12 0 8 -10 19 -22 25 -17 8 85 11 390 11 l412 1 0 -177 c-1 -165 -2 -176 -16 -150 -18 33 -47 33 -52 -1 -2 -12 8 -43 23 -67 36 -62 65 -62 102 -1 15 25 37 49 50 55 13 6 23 15 23 20 0 19 -41 23 -65 7 l-25 -16 0 165 0 165 1926 0 c1828 0 1925 1 1922 18 -3 16 -91 17 -1626 22 l-1623 5 254 440 c243 421 944 1636 1224 2120 104 180 130 232 120 242 -6 6 -174 105 -372 219 -325 187 -709 409 -2005 1157 -228 132 -424 246 -435 253 -11 8 -27 14 -36 14 -11 0 -77 -105 -205 -327 -501 -872 -1403 -2432 -1420 -2458 -12 -16 -14 208 -16 1439 -2 1157 -6 1460 -15 1463 -7 3 -15 -1 -18 -9z m1698 -169 c4 -15 11 -20 23 -15 17 7 85 -32 1514 -857 371 -215 804 -465 962 -556 159 -91 281 -167 273 -169 -16 -4 -21 -32 -6 -32 6 0 -30 -69 -78 -152 -48 -84 -184 -319 -301 -523 -548 -952 -1173 -2031 -1181 -2040 -5 -5 -9 524 -9 1283 l0 1293 20 -11 c39 -21 57 19 19 42 -11 7 -27 28 -34 46 -8 17 -21 32 -29 32 -18 0 -83 -83 -92 -118 -11 -41 12 -49 46 -17 l30 29 0 -125 c0 -84 -4 -129 -12 -137 -9 -9 -9 -15 0 -24 9 -9 12 -264 12 -1085 0 -928 -2 -1073 -14 -1073 -24 0 -30 -21 -7 -27 22 -6 29 -37 10 -49 -8 -4 -8 -9 0 -17 22 -22 12 -37 -26 -37 -30 0 -85 27 -265 131 l-228 131 0 519 0 519 22 0 c26 0 178 69 178 81 0 21 -26 18 -82 -10 -63 -32 -118 -40 -118 -18 0 7 29 20 63 30 66 19 124 58 112 76 -8 13 -35 15 -35 2 0 -12 -64 -41 -106 -48 l-34 -6 0 53 c0 37 6 59 20 77 11 14 20 33 20 43 0 9 -9 25 -20 35 -19 17 -20 31 -20 202 0 156 2 183 15 183 8 0 15 7 15 15 0 8 -6 15 -13 15 -10 0 -14 18 -15 66 -1 69 -9 88 -33 79 -12 -4 -13 -49 -11 -269 l3 -264 -24 -26 c-13 -14 -34 -26 -46 -26 -11 0 -21 -4 -21 -10 0 -5 6 -10 14 -10 8 0 28 -14 45 -31 25 -25 31 -39 31 -75 0 -24 -4 -44 -10 -44 -5 0 -10 -9 -10 -20 0 -11 5 -20 10 -20 7 0 10 -188 10 -545 0 -300 -2 -545 -5 -545 -2 0 -309 176 -682 392 -373 215 -740 427 -815 470 -76 44 -138 83 -138 88 0 4 6 13 14 19 8 6 24 35 36 63 18 42 21 65 18 127 -3 42 -8 84 -12 94 -8 16 19 17 482 17 l489 0 -5 -25 c-6 -36 28 -33 53 5 19 28 24 30 88 30 38 0 67 4 67 10 0 6 -27 10 -61 10 -52 0 -64 4 -79 23 -40 51 -134 57 -102 7 12 -20 9 -20 -204 -20 -202 0 -216 1 -209 18 32 78 29 130 -12 202 -30 51 -40 60 -60 53 -20 -8 -16 -20 18 -63 39 -49 48 -105 25 -165 -15 -38 -22 -45 -44 -45 -27 0 -27 0 -27 78 0 52 -5 87 -16 109 -14 26 -15 33 -3 37 21 8 17 26 -6 26 -11 0 -20 -5 -20 -11 0 -6 -14 -9 -32 -7 -25 2 -34 -1 -36 -14 -2 -13 3 -18 17 -18 32 0 61 -55 61 -117 0 -91 39 -83 -416 -83 -352 0 -404 2 -404 15 0 8 -9 15 -20 15 -11 0 -20 -6 -20 -13 0 -8 -22 -13 -70 -14 -39 -1 -69 1 -67 5 35 62 663 1151 915 1587 633 1095 674 1165 682 1165 4 0 10 -10 13 -21z m-1067 -2785 c43 -12 59 -146 25 -219 -10 -22 -27 -48 -38 -58 -20 -17 -27 -14 -274 129 -140 80 -256 148 -258 150 -7 6 522 4 545 -2z m-147 -266 c240 -138 500 -288 577 -333 l141 -81 -31 -21 c-67 -44 -138 -193 -182 -380 -55 -239 -36 -559 30 -504 12 10 12 16 -2 44 -40 77 -23 372 30 547 47 156 132 280 192 280 19 0 211 -108 969 -547 l77 -45 0 -124 0 -124 -417 0 -418 1 44 38 c30 27 42 44 38 55 -9 22 -20 20 -54 -7 -15 -13 -54 -41 -87 -61 -45 -29 -57 -41 -53 -57 5 -19 -6 -19 -649 -19 l-654 0 0 795 c0 437 3 795 6 795 4 0 203 -113 443 -252z m2033 -1174 c101 -58 185 -108 187 -110 2 -2 -82 -4 -187 -4 l-192 0 0 110 c0 61 2 110 4 110 3 0 87 -48 188 -106z m-444 -161 c-120 -2 -316 -2 -435 0 -120 1 -22 2 217 2 239 0 337 -1 218 -2z m610 0 c-64 -2 -172 -2 -240 0 -68 1 -15 3 117 3 132 0 187 -2 123 -3z"/>
<path d="M6377 17364 c-14 -14 -7 -35 11 -32 9 2 17 10 17 17 0 16 -18 25 -28 15z"/>
<path d="M6393 17284 c-7 -19 2 -28 22 -21 19 8 19 23 0 31 -9 3 -18 -1 -22 -10z"/>
<path d="M6405 17210 c-8 -12 20 -24 35 -15 6 3 8 11 5 16 -8 12 -32 12 -40 -1z"/>
<path d="M6422 17138 c7 -19 38 -22 38 -4 0 10 -9 16 -21 16 -12 0 -19 -5 -17 -12z"/>
<path d="M6442 17068 c7 -19 38 -22 38 -4 0 10 -9 16 -21 16 -12 0 -19 -5 -17 -12z"/>
<path d="M6462 16998 c7 -19 38 -22 38 -4 0 10 -9 16 -21 16 -12 0 -19 -5 -17 -12z"/>
<path d="M6480 16925 c0 -8 9 -15 20 -15 11 0 20 7 20 15 0 8 -9 15 -20 15 -11 0 -20 -7 -20 -15z"/>
<path d="M6500 16854 c0 -9 7 -14 17 -12 25 5 28 28 4 28 -12 0 -21 -6 -21 -16z"/>
<path d="M6520 16784 c0 -9 7 -14 17 -12 25 5 28 28 4 28 -12 0 -21 -6 -21 -16z"/>
<path d="M6540 16715 c0 -10 7 -15 18 -13 21 4 19 22 -2 26 -10 2 -16 -3 -16 -13z"/>
<path d="M6555 16650 c-8 -12 20 -24 35 -15 6 3 8 11 5 16 -8 12 -32 12 -40 -1z"/>
<path d="M6577 16584 c-9 -10 2 -24 19 -24 8 0 14 7 14 15 0 15 -21 21 -33 9z"/>
<path d="M6597 16513 c-13 -12 -7 -23 13 -23 11 0 20 7 20 15 0 15 -21 21 -33 8z"/>
<path d="M6617 16443 c-13 -12 -7 -23 13 -23 11 0 20 7 20 15 0 15 -21 21 -33 8z"/>
<path d="M6630 16365 c0 -8 9 -15 20 -15 11 0 20 7 20 15 0 8 -9 15 -20 15 -11 0 -20 -7 -20 -15z"/>
<path d="M6650 16296 c0 -10 9 -16 21 -16 24 0 21 23 -4 28 -10 2 -17 -3 -17 -12z"/>
<path d="M6670 16226 c0 -10 9 -16 21 -16 24 0 21 23 -4 28 -10 2 -17 -3 -17 -12z"/>
<path d="M7943 16178 c-5 -7 -27 -58 -48 -113 -42 -112 -74 -171 -85 -158 -4 4 -15 50 -24 102 -16 97 -25 119 -46 106 -32 -20 -116 -260 -100 -285 16 -26 36 0 58 77 33 111 38 116 52 47 16 -75 29 -102 52 -110 37 -12 80 51 133 193 14 37 30 78 36 89 20 39 -4 83 -28 52z"/>
<path d="M6690 16156 c0 -10 9 -16 21 -16 24 0 21 23 -4 28 -10 2 -17 -3 -17 -12z"/>
<path d="M6710 16085 c0 -10 7 -15 18 -13 21 4 19 22 -2 26 -10 2 -16 -3 -16 -13z"/>
<path d="M6724 16019 c-7 -12 15 -31 28 -23 4 3 8 12 8 20 0 17 -26 19 -36 3z"/>
<path d="M6744 15949 c-8 -14 11 -33 25 -25 6 4 11 14 11 22 0 16 -26 19 -36 3z"/>
<path d="M5952 15928 c-6 -6 -12 -17 -12 -24 0 -6 -9 -14 -20 -17 -13 -3 -20 -14 -20 -29 0 -20 -8 -25 -50 -35 -90 -22 -105 -33 -107 -81 -1 -44 11 -62 30 -43 29 29 37 -15 13 -74 -16 -37 -30 -44 -40 -20 -9 26 -27 16 -24 -12 2 -23 8 -29 34 -31 26 -3 36 3 53 27 40 56 37 161 -4 161 -32 0 -12 20 38 38 47 18 54 19 69 5 29 -26 64 -9 83 41 21 55 17 100 -10 104 -11 1 -26 -3 -33 -10z m18 -56 c0 -10 -7 -27 -15 -38 -14 -18 -14 -17 -12 18 2 38 27 56 27 20z"/>
<path d="M6255 15900 c-3 -5 -1 -29 6 -52 12 -46 7 -133 -12 -185 -10 -30 -15 -33 -49 -33 -27 0 -48 -8 -67 -24 -24 -21 -26 -27 -18 -52 8 -23 17 -30 43 -32 27 -3 40 4 69 33 35 35 39 36 74 26 46 -14 132 -15 124 -1 -3 6 -14 10 -24 10 -10 0 -42 8 -71 17 -48 15 -51 19 -46 42 22 100 26 132 20 181 -8 68 -30 100 -49 70z m-58 -327 c-22 -22 -29 -25 -39 -14 -11 10 -9 15 6 27 11 8 29 14 40 14 19 0 18 -2 -7 -27z"/>
<path d="M6764 15879 c-10 -17 13 -36 27 -22 12 12 4 33 -11 33 -5 0 -12 -5 -16 -11z"/>
<path d="M5574 15826 c-4 -9 -7 -49 -8 -89 -1 -71 -1 -72 24 -71 14 1 33 5 44 9 17 7 18 4 11 -44 -6 -48 -5 -53 11 -49 15 2 22 22 37 92 18 91 14 115 -17 103 -9 -4 -16 -17 -16 -29 0 -17 -9 -27 -30 -35 l-30 -11 2 65 c2 46 -1 67 -9 70 -7 3 -16 -3 -19 -11z"/>
<path d="M6784 15809 c-10 -17 13 -36 27 -22 12 12 4 33 -11 33 -5 0 -12 -5 -16 -11z"/>
<path d="M9040 15785 c0 -8 9 -15 20 -15 11 0 20 7 20 15 0 8 -9 15 -20 15 -11 0 -20 -7 -20 -15z"/>
<path d="M8972 15768 c7 -19 38 -22 38 -4 0 10 -9 16 -21 16 -12 0 -19 -5 -17 -12z"/>
<path d="M8904 15759 c-10 -17 13 -36 27 -22 12 12 4 33 -11 33 -5 0 -12 -5 -16 -11z"/>
<path d="M6804 15739 c-10 -17 13 -36 27 -22 12 12 4 33 -11 33 -5 0 -12 -5 -16 -11z"/>
<path d="M8834 15739 c-10 -17 13 -36 27 -22 12 12 4 33 -11 33 -5 0 -12 -5 -16 -11z"/>
<path d="M8760 15716 c0 -10 9 -16 21 -16 24 0 21 23 -4 28 -10 2 -17 -3 -17 -12z"/>
<path d="M8690 15696 c0 -10 9 -16 21 -16 24 0 21 23 -4 28 -10 2 -17 -3 -17 -12z"/>
<path d="M5953 15688 c-10 -18 11 -28 55 -27 110 2 129 34 21 34 -39 0 -73 -3 -76 -7z"/>
<path d="M8620 15674 c0 -9 7 -14 17 -12 25 5 28 28 4 28 -12 0 -21 -6 -21 -16z"/>
<path d="M6824 15669 c-10 -17 13 -36 27 -22 12 12 4 33 -11 33 -5 0 -12 -5 -16 -11z"/>
<path d="M8550 15654 c0 -9 7 -14 17 -12 25 5 28 28 4 28 -12 0 -21 -6 -21 -16z"/>
<path d="M8480 15634 c0 -9 7 -14 17 -12 25 5 28 28 4 28 -12 0 -21 -6 -21 -16z"/>
<path d="M8414 15629 c-10 -17 13 -36 27 -22 12 12 4 33 -11 33 -5 0 -12 -5 -16 -11z"/>
<path d="M8340 15606 c0 -8 4 -17 8 -20 13 -8 35 11 28 23 -10 16 -36 14 -36 -3z"/>
<path d="M6843 15594 c-7 -19 2 -28 22 -21 19 8 19 23 0 31 -9 3 -18 -1 -22 -10z"/>
<path d="M8270 15585 c0 -10 7 -15 18 -13 21 4 19 22 -2 26 -10 2 -16 -3 -16 -13z"/>
<path d="M8195 15570 c-8 -12 20 -24 35 -15 6 3 8 11 5 16 -8 12 -32 12 -40 -1z"/>
<path d="M8125 15550 c-8 -12 20 -24 35 -15 6 3 8 11 5 16 -8 12 -32 12 -40 -1z"/>
<path d="M8057 15534 c-9 -10 2 -24 19 -24 8 0 14 7 14 15 0 15 -21 21 -33 9z"/>
<path d="M6860 15515 c0 -10 7 -15 18 -13 21 4 19 22 -2 26 -10 2 -16 -3 -16 -13z"/>
<path d="M7991 15520 c-16 -9 -6 -30 15 -30 15 0 20 25 6 34 -4 2 -14 1 -21 -4z"/>
<path d="M7914 15499 c-10 -17 13 -36 27 -22 12 12 4 33 -11 33 -5 0 -12 -5 -16 -11z"/>
<path d="M5930 15477 c0 -8 7 -27 15 -43 50 -101 60 -429 13 -442 -19 -4 -26 -32 -8 -32 16 0 11 -30 -11 -66 -18 -30 -19 -35 -5 -40 30 -11 46 5 62 65 11 39 21 58 29 54 19 -7 30 18 14 31 -11 8 -14 42 -14 141 -1 178 -39 345 -80 345 -8 0 -15 -6 -15 -13z"/>
<path d="M7847 15483 c-13 -12 -7 -23 13 -23 11 0 20 7 20 15 0 15 -21 21 -33 8z"/>
<path d="M7777 15463 c-13 -12 -7 -23 13 -23 11 0 20 7 20 15 0 15 -21 21 -33 8z"/>
<path d="M6877 15454 c-9 -10 2 -24 19 -24 8 0 14 7 14 15 0 15 -21 21 -33 9z"/>
<path d="M7700 15435 c0 -8 9 -15 20 -15 11 0 20 7 20 15 0 8 -9 15 -20 15 -11 0 -20 -7 -20 -15z"/>
<path d="M7632 15418 c7 -19 38 -22 38 -4 0 10 -9 16 -21 16 -12 0 -19 -5 -17 -12z"/>
<path d="M7563 15398 c2 -7 10 -13 17 -13 7 0 15 6 18 13 2 7 -5 12 -18 12 -13 0 -20 -5 -17 -12z"/>
<path d="M6892 15378 c7 -19 38 -22 38 -4 0 10 -9 16 -21 16 -12 0 -19 -5 -17 -12z"/>
<path d="M7424 15369 c-10 -17 13 -36 27 -22 12 12 4 33 -11 33 -5 0 -12 -5 -16 -11z"/>
<path d="M7350 15346 c0 -10 9 -16 21 -16 24 0 21 23 -4 28 -10 2 -17 -3 -17 -12z"/>
<path d="M7280 15325 c0 -8 9 -15 20 -15 11 0 20 7 20 15 0 8 -9 15 -20 15 -11 0 -20 -7 -20 -15z"/>
<path d="M6912 15308 c7 -19 38 -22 38 -4 0 10 -9 16 -21 16 -12 0 -19 -5 -17 -12z"/>
<path d="M7210 15304 c0 -9 7 -14 17 -12 25 5 28 28 4 28 -12 0 -21 -6 -21 -16z"/>
<path d="M7140 15284 c0 -9 7 -14 17 -12 25 5 28 28 4 28 -12 0 -21 -6 -21 -16z"/>
<path d="M7073 15274 c-7 -19 2 -28 22 -21 19 8 19 23 0 31 -9 3 -18 -1 -22 -10z"/>
<path d="M7004 15259 c-10 -17 13 -36 27 -22 12 12 4 33 -11 33 -5 0 -12 -5 -16 -11z"/>
<path d="M6860 15215 c0 -10 7 -15 18 -13 21 4 19 22 -2 26 -10 2 -16 -3 -16 -13z"/>
<path d="M6785 15200 c-8 -12 20 -24 35 -15 6 3 8 11 5 16 -8 12 -32 12 -40 -1z"/>
<path d="M6715 15180 c-8 -12 20 -24 35 -15 6 3 8 11 5 16 -8 12 -32 12 -40 -1z"/>
<path d="M6647 15164 c-9 -10 2 -24 19 -24 8 0 14 7 14 15 0 15 -21 21 -33 9z"/>
<path d="M6575 15151 c-8 -15 3 -31 21 -31 9 0 14 7 12 17 -4 20 -24 28 -33 14z"/>
<path d="M6504 15129 c-8 -14 11 -33 25 -25 6 4 11 14 11 22 0 16 -26 19 -36 3z"/>
<path d="M6437 15113 c-13 -12 -7 -23 13 -23 11 0 20 7 20 15 0 15 -21 21 -33 8z"/>
<path d="M6367 15093 c-13 -12 -7 -23 13 -23 11 0 20 7 20 15 0 15 -21 21 -33 8z"/>
<path d="M6290 15065 c0 -8 9 -15 20 -15 11 0 20 7 20 15 0 8 -9 15 -20 15 -11 0 -20 -7 -20 -15z"/>
<path d="M6222 15048 c7 -19 38 -22 38 -4 0 10 -9 16 -21 16 -12 0 -19 -5 -17 -12z"/>
<path d="M6153 15028 c2 -7 10 -13 17 -13 7 0 15 6 18 13 2 7 -5 12 -18 12 -13 0 -20 -5 -17 -12z"/>
<path d="M6990 15025 c0 -10 7 -15 18 -13 21 4 19 22 -2 26 -10 2 -16 -3 -16 -13z"/>
<path d="M6084 15019 c-10 -17 13 -36 27 -22 12 12 4 33 -11 33 -5 0 -12 -5 -16 -11z"/>
<path d="M5870 14955 c0 -8 9 -15 20 -15 11 0 20 7 20 15 0 8 -9 15 -20 15 -11 0 -20 -7 -20 -15z"/>
<path d="M7010 14955 c0 -10 7 -15 18 -13 21 4 19 22 -2 26 -10 2 -16 -3 -16 -13z"/>
<path d="M5592 14883 c2 -10 10 -18 18 -18 22 0 18 29 -3 33 -14 3 -18 -1 -15 -15z"/>
<path d="M7025 14890 c-8 -12 20 -24 35 -15 6 3 8 11 5 16 -8 12 -32 12 -40 -1z"/>
<path d="M5520 14866 c0 -10 9 -16 21 -16 24 0 21 23 -4 28 -10 2 -17 -3 -17 -12z"/>
<path d="M5450 14845 c0 -10 7 -15 18 -13 21 4 19 22 -2 26 -10 2 -16 -3 -16 -13z"/>
<path d="M5375 14830 c-8 -12 20 -24 35 -15 6 3 8 11 5 16 -8 12 -32 12 -40 -1z"/>
<path d="M7047 14824 c-9 -10 2 -24 19 -24 8 0 14 7 14 15 0 15 -21 21 -33 9z"/>
<path d="M5305 14810 c-8 -12 20 -24 35 -15 6 3 8 11 5 16 -8 12 -32 12 -40 -1z"/>
<path d="M5232 14788 c7 -19 38 -22 38 -4 0 10 -9 16 -21 16 -12 0 -19 -5 -17 -12z"/>
<path d="M5165 14781 c-8 -15 3 -31 21 -31 9 0 14 7 12 17 -4 20 -24 28 -33 14z"/>
<path d="M5094 14759 c-8 -14 11 -33 25 -25 6 4 11 14 11 22 0 16 -26 19 -36 3z"/>
<path d="M7067 14753 c-13 -12 -7 -23 13 -23 11 0 20 7 20 15 0 15 -21 21 -33 8z"/>
<path d="M5027 14743 c-13 -12 -7 -23 13 -23 11 0 20 7 20 15 0 15 -21 21 -33 8z"/>
<path d="M4957 14723 c-13 -12 -7 -23 13 -23 11 0 20 7 20 15 0 15 -21 21 -33 8z"/>
<path d="M7087 14683 c-13 -12 -7 -23 13 -23 11 0 20 7 20 15 0 15 -21 21 -33 8z"/>
<path d="M6600 14660 c0 -6 37 -10 90 -10 53 0 90 4 90 10 0 6 -37 10 -90 10 -53 0 -90 -4 -90 -10z"/>
<path d="M7100 14606 c0 -10 9 -16 21 -16 24 0 21 23 -4 28 -10 2 -17 -3 -17 -12z"/>
<path d="M6807 14544 c-4 -4 -4 -16 -2 -28 7 -29 -34 -96 -72 -119 -18 -10 -54 -24 -80 -30 -57 -14 -55 -33 2 -29 94 6 183 84 192 166 5 41 3 46 -14 46 -11 0 -23 -3 -26 -6z"/>
<path d="M5700 14494 c-41 -7 -91 -13 -111 -13 -39 -1 -57 -22 -35 -40 9 -8 29 -8 66 -1 29 5 54 10 55 10 2 0 6 -42 10 -93 7 -101 15 -123 38 -114 13 5 15 24 13 110 l-3 105 30 6 c16 3 47 6 67 6 48 0 70 8 70 26 0 18 -93 17 -200 -2z"/>
<path d="M6357 14420 c-14 -11 -35 -44 -46 -73 -10 -28 -26 -66 -35 -82 -22 -44 -31 -135 -17 -177 19 -56 53 -82 100 -75 50 6 122 57 149 105 25 46 45 153 36 195 -22 105 -119 160 -187 107z m95 -31 c68 -37 60 -215 -14 -286 -44 -41 -75 -56 -103 -49 -29 7 -49 63 -42 115 5 37 69 194 89 219 13 15 43 16 70 1z"/>
<path d="M7160 14396 c0 -8 4 -17 8 -20 13 -8 35 11 28 23 -10 16 -36 14 -36 -3z"/>
<path d="M7176 14331 c-7 -11 18 -33 27 -24 4 3 7 12 7 20 0 15 -26 18 -34 4z"/>
<path d="M7194 14259 c-8 -14 11 -33 25 -25 16 10 13 36 -3 36 -8 0 -18 -5 -22 -11z"/>
<path d="M7214 14189 c-10 -17 13 -36 27 -22 12 12 4 33 -11 33 -5 0 -12 -5 -16 -11z"/>
<path d="M7234 14119 c-10 -17 13 -36 27 -22 12 12 4 33 -11 33 -5 0 -12 -5 -16 -11z"/>
<path d="M7254 14049 c-10 -17 13 -36 27 -22 12 12 4 33 -11 33 -5 0 -12 -5 -16 -11z"/>
<path d="M7274 13979 c-10 -17 13 -36 27 -22 12 12 4 33 -11 33 -5 0 -12 -5 -16 -11z"/>
<path d="M7290 13894 c0 -9 7 -14 17 -12 25 5 28 28 4 28 -12 0 -21 -6 -21 -16z"/>
<path d="M7310 13824 c0 -9 7 -14 17 -12 25 5 28 28 4 28 -12 0 -21 -6 -21 -16z"/>
<path d="M7325 13760 c-8 -12 20 -24 35 -15 6 3 8 11 5 16 -8 12 -32 12 -40 -1z"/>
<path d="M7345 13690 c-4 -7 -3 -16 3 -22 14 -14 45 -2 40 15 -6 16 -34 21 -43 7z"/>
<path d="M7362 13618 c7 -19 38 -22 38 -4 0 10 -9 16 -21 16 -12 0 -19 -5 -17 -12z"/>
<path d="M7382 13548 c7 -19 38 -22 38 -4 0 10 -9 16 -21 16 -12 0 -19 -5 -17 -12z"/>
<path d="M7400 13475 c0 -8 9 -15 20 -15 11 0 20 7 20 15 0 8 -9 15 -20 15 -11 0 -20 -7 -20 -15z"/>
<path d="M7420 13405 c0 -8 9 -15 20 -15 11 0 20 7 20 15 0 8 -9 15 -20 15 -11 0 -20 -7 -20 -15z"/>
<path d="M7440 13335 c0 -10 7 -15 18 -13 21 4 19 22 -2 26 -10 2 -16 -3 -16 -13z"/>
<path d="M7460 13265 c0 -10 7 -15 18 -13 21 4 19 22 -2 26 -10 2 -16 -3 -16 -13z"/>
<path d="M5385 13800 c-3 -5 -13 -33 -22 -62 -8 -29 -31 -86 -50 -126 l-34 -73 -33 21 c-64 39 -111 18 -157 -72 -71 -139 62 -161 173 -30 l26 32 70 -55 c72 -56 108 -75 143 -75 29 0 23 27 -9 33 -28 6 -185 124 -180 136 76 151 120 260 112 273 -7 11 -31 10 -39 -2z m-164 -267 c16 -10 29 -23 29 -29 0 -19 -100 -104 -121 -104 -35 0 -15 78 32 129 24 25 24 25 60 4z"/>
<path d="M1632 17567 c-78 -24 -116 -102 -71 -143 l21 -19 -23 -18 c-36 -29 -69 -79 -69 -104 0 -40 40 -57 125 -50 183 14 220 87 77 151 l-41 19 52 36 c38 27 53 44 55 64 4 29 -15 37 -25 12 -3 -9 -31 -32 -61 -52 -42 -26 -60 -33 -72 -26 -24 16 -24 43 1 69 29 31 80 45 135 37 35 -5 44 -3 44 9 0 27 -85 35 -148 15z m48 -215 c30 -15 56 -33 58 -40 8 -28 -164 -66 -197 -43 -12 8 -12 14 3 38 17 27 65 73 76 73 3 -1 30 -13 60 -28z"/>
<path d="M1216 17547 c-22 -12 -48 -34 -59 -49 -17 -23 -19 -31 -9 -53 15 -32 67 -55 127 -55 25 0 45 -4 45 -8 0 -12 -50 -57 -90 -81 -42 -25 -110 -29 -110 -6 0 19 -36 20 -43 1 -9 -24 17 -47 61 -53 90 -12 211 82 245 189 22 72 22 84 -8 113 -32 33 -104 34 -159 2z m125 -17 c22 -12 23 -28 7 -82 l-12 -40 -45 7 c-109 16 -132 62 -51 103 49 24 72 27 101 12z"/>
<path d="M821 17546 c-15 -18 -15 -19 60 -21 64 -1 119 -21 119 -42 0 -24 -54 -68 -140 -113 -124 -64 -121 -87 14 -103 69 -9 94 -8 131 4 26 8 45 19 43 24 -1 6 -10 8 -18 7 -23 -6 -142 -3 -173 4 -27 6 -24 8 50 50 135 76 167 136 95 177 -47 27 -162 36 -181 13z"/>
<path d="M2068 17185 c-106 -18 -381 -42 -643 -56 -286 -15 -970 -6 -1150 15 -72 8 -133 16 -137 16 -5 0 -8 -6 -8 -14 0 -16 23 -19 220 -37 168 -15 940 -15 1165 0 309 20 558 45 661 66 21 5 21 2 23 -188 1 -139 -8 -325 -34 -677 -35 -475 -40 -532 -70 -755 -8 -63 -15 -191 -15 -300 0 -198 -8 -254 -48 -330 -41 -80 -109 -125 -238 -160 -72 -20 -475 -33 -1024 -35 -363 0 -410 -3 -410 -23 0 -13 1181 -1 1334 13 207 20 321 83 384 210 26 54 27 59 33 315 5 176 14 307 28 405 11 80 32 307 46 505 14 198 30 410 35 470 14 153 24 496 16 528 -3 15 -13 27 -21 27 -8 0 -15 5 -15 10 0 13 -34 11 -132 -5z"/>
<path d="M5232 16889 c-44 -47 -94 -293 -81 -399 9 -74 30 -100 85 -100 42 0 113 32 144 65 35 37 19 39 -45 5 -123 -65 -184 -13 -120 103 53 95 105 281 90 326 -8 27 -48 28 -73 0z m33 -71 c-9 -53 -57 -186 -62 -171 -2 6 3 41 11 77 27 113 66 187 51 94z"/>
<path d="M813 16878 c-5 -7 -21 -33 -36 -58 -15 -25 -38 -57 -51 -73 -24 -25 -28 -27 -68 -17 -56 12 -140 13 -172 0 -15 -5 -31 -21 -37 -34 -16 -34 15 -96 53 -109 39 -12 130 16 174 55 34 30 38 31 67 19 95 -38 141 -51 182 -51 57 0 59 16 3 25 -36 6 -162 56 -176 69 -2 2 22 35 52 73 56 68 67 105 35 111 -9 1 -20 -3 -26 -10z m-165 -184 c22 -6 22 -7 -10 -31 -38 -28 -100 -48 -122 -40 -22 9 -32 57 -15 68 16 10 113 12 147 3z"/>
<path d="M1065 16219 c-82 -4 -319 -7 -525 -7 -259 0 -375 -3 -378 -10 -7 -22 52 -24 450 -18 222 3 616 9 876 12 350 4 472 9 469 17 -4 14 -652 18 -892 6z"/>
<path d="M1405 15980 c-94 -14 -156 -53 -128 -81 7 -7 23 -2 47 15 61 41 177 49 184 13 2 -11 -20 -56 -50 -100 -61 -93 -83 -141 -98 -210 -10 -47 -7 -67 10 -67 4 0 20 36 35 81 16 49 48 110 79 155 79 116 80 118 72 148 -4 18 -18 32 -41 42 -37 15 -36 15 -110 4z"/>
<path d="M712 15853 c-17 -38 -54 -126 -82 -196 -67 -170 -93 -220 -142 -273 -64 -70 -97 -54 -82 41 5 38 4 45 -10 45 -37 0 -48 -102 -15 -144 32 -41 71 -35 124 19 59 62 91 121 166 314 35 90 65 155 67 144 2 -11 -4 -60 -12 -109 -12 -76 -12 -91 0 -104 12 -13 17 -11 39 11 14 13 43 58 65 99 l39 75 1 -112 c0 -90 3 -113 14 -113 20 0 26 34 27 165 1 169 -19 178 -95 43 -38 -67 -46 -76 -41 -48 35 202 0 281 -63 143z"/>
<path d="M1024 15715 c-4 -9 -2 -21 3 -26 13 -13 133 -23 177 -15 52 10 45 26 -11 26 -46 0 -91 8 -141 24 -16 5 -24 3 -28 -9z"/>
<path d="M1368 15438 c-8 -21 2 -38 22 -38 23 0 32 13 24 34 -7 19 -40 21 -46 4z"/>
<path d="M4178 14613 c-26 -31 -58 -90 -58 -107 0 -25 32 -19 58 12 l23 27 -3 -430 c-2 -236 1 -563 6 -725 l9 -295 -21 18 c-44 40 -58 -13 -16 -62 39 -46 107 -39 158 18 29 31 10 39 -34 13 -21 -12 -41 -22 -43 -22 -2 0 -7 116 -11 258 -3 141 -12 312 -18 379 -8 92 -8 171 0 320 7 109 12 275 12 370 l0 171 34 -34 c34 -34 56 -43 56 -23 0 6 -21 37 -46 70 -48 63 -78 75 -106 42z"/>
<path d="M2748 14163 c-50 -57 -90 -198 -92 -325 -1 -99 13 -130 77 -161 33 -17 44 -17 88 -7 48 12 109 51 109 71 0 15 -17 10 -56 -16 -71 -48 -162 -24 -178 48 -5 22 -3 27 14 27 43 0 114 214 108 323 -3 47 -5 52 -29 55 -15 2 -32 -4 -41 -15z m18 -154 c-19 -84 -43 -139 -60 -139 -23 0 8 152 47 225 l22 40 3 -31 c2 -17 -4 -60 -12 -95z"/>
<path d="M3658 14084 c-4 -3 0 -20 7 -37 11 -28 20 -119 16 -184 -1 -20 -4 -21 -26 -11 -38 17 -65 -12 -65 -71 0 -53 6 -66 38 -75 17 -6 29 -1 50 22 l27 29 39 -20 c41 -22 136 -36 136 -20 0 5 -23 15 -50 22 -28 7 -64 24 -79 37 -29 24 -29 25 -32 153 -3 89 -8 133 -18 144 -14 17 -33 22 -43 11z m1 -278 c9 -10 9 -20 0 -40 -17 -38 -29 -32 -29 14 0 42 9 50 29 26z"/>
<path d="M3147 14023 c-16 -15 -5 -32 24 -38 45 -10 59 9 21 29 -35 18 -36 18 -45 9z"/>
<path d="M3025 13966 c-46 -46 -22 -96 46 -96 27 0 59 -18 59 -33 -1 -23 -39 -61 -62 -62 -27 0 -31 -23 -6 -39 23 -14 65 17 93 66 29 55 12 83 -59 98 -31 6 -56 15 -56 20 0 14 23 25 48 21 20 -2 23 1 20 21 -5 34 -50 37 -83 4z"/>
<path d="M3314 13936 c-6 -16 12 -181 21 -196 14 -22 45 -9 64 28 11 20 20 30 21 21 0 -9 9 -27 19 -40 15 -19 22 -21 32 -12 9 10 10 15 0 27 -7 8 -15 43 -19 78 -9 84 -28 84 -62 -2 l-25 -65 -7 75 c-5 41 -10 81 -13 88 -6 16 -24 15 -31 -2z"/>
<path d="M3216 13838 c-13 -77 -11 -112 5 -116 13 -2 18 8 23 45 4 26 9 60 12 76 5 22 2 27 -15 27 -15 0 -21 -8 -25 -32z"/>
<path d="M5690 12749 c-94 -17 -120 -29 -126 -55 -4 -14 -1 -45 7 -67 7 -23 16 -87 19 -142 5 -92 7 -100 25 -100 15 0 22 10 29 42 l10 42 70 11 c90 14 99 17 90 31 -6 11 -126 5 -160 -8 -11 -4 -14 9 -14 64 0 57 -3 71 -21 87 -14 12 -18 21 -11 28 12 12 132 38 182 40 45 1 54 6 39 24 -13 15 -67 17 -139 3z"/>
<path d="M7695 12567 c-83 -47 -67 -115 24 -102 24 4 49 9 56 11 8 4 14 -7 17 -30 l4 -35 -82 -40 c-116 -55 -137 -97 -81 -158 26 -30 72 -37 121 -21 48 16 75 62 83 143 l6 56 71 33 c66 30 105 60 94 71 -3 3 -39 -11 -81 -30 -42 -19 -80 -35 -86 -35 -6 0 -11 20 -11 44 0 25 -4 47 -10 51 -5 3 -6 13 -3 22 8 20 -22 43 -56 43 -14 0 -44 -10 -66 -23z m75 -26 c0 -16 -43 -41 -70 -41 l-25 1 28 24 c28 25 67 34 67 16z m29 -203 c-2 -82 -49 -138 -105 -124 -32 8 -61 53 -48 74 9 14 128 81 147 82 4 0 7 -15 6 -32z"/>
<path d="M7183 12558 c-14 -23 -60 -167 -55 -173 10 -10 42 -5 42 7 0 32 92 118 128 118 17 0 15 -25 -3 -40 -8 -7 -15 -19 -15 -27 0 -23 30 -27 53 -5 28 25 81 52 102 52 14 0 16 -9 13 -47 -3 -43 -1 -48 18 -51 19 -3 22 3 26 36 2 22 1 50 -2 63 -6 23 -10 24 -73 22 -51 -1 -67 2 -67 13 0 22 -44 27 -85 10 -21 -9 -38 -16 -40 -16 -1 0 -1 10 -1 22 1 25 -27 36 -41 16z"/>
<path d="M6058 12469 c-8 -5 -78 -15 -153 -23 -133 -14 -170 -25 -149 -46 5 -5 24 -6 49 0 69 16 68 16 60 -47 -4 -32 -12 -65 -19 -73 -16 -19 -5 -64 17 -68 10 -2 18 5 21 20 18 93 36 181 38 183 2 1 29 6 60 9 l57 7 -16 -63 c-8 -35 -16 -115 -16 -183 -2 -102 0 -120 14 -123 14 -2 17 15 22 118 4 67 9 126 13 131 3 5 27 9 53 9 61 0 101 28 101 70 0 44 -26 63 -77 57 -31 -3 -43 -1 -43 9 0 18 -13 24 -32 13z m107 -59 c14 -22 -7 -49 -42 -56 -49 -9 -62 13 -27 44 26 23 59 29 69 12z"/>
<path d="M3210 11850 c0 -5 16 -30 35 -55 46 -61 94 -149 146 -265 l42 -94 -18 -46 c-25 -67 -44 -149 -45 -196 0 -88 74 -127 154 -80 l44 26 13 -33 c42 -107 218 -386 226 -360 2 6 -17 43 -42 82 -25 38 -75 127 -111 197 -60 116 -64 127 -50 143 22 24 20 32 -7 26 -20 -5 -26 0 -45 47 -12 29 -22 57 -22 62 0 5 23 45 51 88 67 104 121 221 117 250 -2 18 -10 24 -34 26 -27 3 -42 -6 -92 -53 -34 -31 -75 -77 -91 -102 -17 -26 -31 -41 -31 -34 0 23 -116 256 -159 319 -27 41 -49 62 -61 62 -11 0 -20 -4 -20 -10z m455 -232 c-12 -38 -84 -170 -122 -222 l-36 -50 -15 38 c-13 34 -13 41 4 79 20 44 143 177 163 177 8 0 10 -8 6 -22z m-210 -328 c-16 -16 -30 -28 -33 -26 -2 3 4 31 13 63 l17 58 16 -33 c15 -31 15 -33 -13 -62z m69 -66 c14 -31 26 -58 26 -60 0 -2 -19 -13 -41 -25 -41 -21 -42 -21 -68 -1 -31 22 -45 97 -17 86 10 -4 26 5 43 25 15 17 28 31 29 31 2 0 14 -25 28 -56z"/>
<path d="M6870 11828 c0 -13 29 -110 65 -215 l64 -193 -20 -45 c-32 -72 -60 -195 -53 -232 10 -52 48 -76 109 -69 28 3 61 7 74 8 22 3 28 -8 77 -137 29 -77 60 -168 70 -202 9 -36 23 -63 30 -63 16 0 -6 80 -77 279 l-52 144 29 23 c34 27 27 40 -14 26 l-29 -10 -36 91 -36 90 29 33 c32 37 84 142 95 192 8 37 -7 62 -35 62 -21 0 -94 -72 -117 -114 -8 -15 -18 -24 -23 -20 -9 11 -72 200 -98 299 -13 47 -24 71 -36 73 -11 2 -16 -4 -16 -20z m249 -358 c-17 -38 -40 -77 -49 -85 -17 -15 -19 -15 -25 4 -4 14 2 34 16 59 33 54 83 113 87 102 2 -6 -11 -41 -29 -80z m-94 -119 c3 -5 1 -12 -5 -16 -5 -3 -10 1 -10 9 0 18 6 21 15 7z m56 -141 c33 -85 30 -93 -40 -106 -30 -6 -38 -3 -58 20 -19 23 -22 34 -17 69 4 23 12 44 17 46 6 2 20 14 31 26 12 13 25 22 29 21 5 -1 22 -35 38 -76z"/>
<path d="M2726 11801 c-3 -4 12 -33 33 -62 21 -30 62 -93 90 -142 l53 -87 -86 -149 c-47 -82 -89 -163 -92 -181 -6 -29 -5 -31 16 -28 16 2 26 12 31 31 8 31 63 141 86 172 14 18 15 16 9 -27 -5 -40 -2 -52 18 -75 21 -25 26 -26 50 -15 15 6 36 28 48 47 25 43 20 49 111 -125 69 -132 127 -265 172 -392 26 -72 45 -99 45 -63 0 46 -163 428 -249 583 l-40 74 44 88 c24 48 51 90 59 93 21 8 8 47 -15 47 -14 0 -31 -25 -65 -91 -25 -50 -47 -89 -48 -88 -2 2 -34 58 -71 124 -133 235 -180 298 -199 266z m229 -476 c-38 -65 -49 -59 -41 24 9 103 14 110 43 61 l25 -41 -27 -44z"/>
<path d="M7595 11769 c-60 -7 -74 -12 -97 -39 -26 -28 -28 -36 -28 -122 0 -51 -7 -127 -16 -169 -18 -84 -15 -109 15 -109 28 0 31 17 32 173 0 82 5 157 12 177 15 43 53 59 145 59 84 1 264 -28 278 -45 15 -19 43 -18 51 2 10 26 -9 34 -128 53 -163 27 -186 29 -264 20z"/>
<path d="M6160 11728 c0 -8 12 -54 26 -102 15 -52 23 -99 19 -114 -12 -50 -124 -272 -150 -298 -32 -32 -30 -59 5 -59 22 0 32 14 76 100 27 55 60 125 73 155 27 66 35 57 45 -49 8 -86 23 -125 52 -129 13 -2 25 -16 34 -40 34 -97 154 -342 166 -342 12 0 12 5 0 33 -27 62 -117 272 -135 317 l-19 44 24 29 c13 16 43 61 65 100 70 122 101 167 109 162 16 -10 22 17 7 32 -25 25 -49 2 -120 -119 -37 -62 -76 -124 -86 -137 l-18 -24 -22 64 c-14 42 -21 88 -21 137 0 83 -12 116 -39 107 -15 -5 -21 6 -37 67 -14 52 -24 74 -36 76 -10 2 -18 -3 -18 -10z"/>
<path d="M9313 11583 c-96 -103 -184 -471 -139 -585 24 -60 43 -78 83 -78 39 0 45 17 7 22 -21 2 -30 13 -46 53 -17 41 -19 65 -15 131 12 171 94 403 159 448 21 15 17 36 -8 36 -8 0 -27 -12 -41 -27z"/>
<path d="M10785 11580 c-9 -15 2 -27 32 -33 41 -8 113 -59 171 -121 114 -120 120 -324 14 -432 -31 -31 -110 -70 -164 -79 -38 -7 -53 -25 -20 -25 33 0 121 28 164 52 84 46 146 179 135 288 -10 95 -44 167 -112 236 -76 78 -202 143 -220 114z"/>
<path d="M4873 11518 c-4 -7 -6 -24 -5 -38 3 -24 -51 -143 -83 -184 -13 -17 -18 -18 -59 -6 -39 11 -49 10 -83 -6 -48 -24 -64 -63 -42 -102 26 -47 80 -39 153 21 l30 24 50 -23 c54 -24 148 -36 156 -19 3 6 -13 13 -35 16 -40 5 -145 47 -145 57 0 3 17 32 38 66 58 92 82 167 61 192 -14 17 -25 18 -36 2z m-143 -268 c8 -5 12 -11 10 -12 -3 -2 -20 -16 -38 -31 -40 -32 -58 -34 -67 -6 -14 42 52 76 95 49z"/>
<path d="M2491 11494 c-11 -14 -27 -49 -35 -77 -30 -102 -183 -313 -288 -398 -37 -29 -38 -29 -35 -7 3 32 -28 35 -48 4 -26 -39 -12 -66 33 -66 33 0 45 8 122 88 47 49 111 126 143 172 31 46 57 77 57 68 0 -21 27 -48 47 -48 9 0 33 18 54 40 l38 40 3 -72 c2 -55 7 -73 18 -76 12 -2 15 12 17 76 2 43 7 100 12 127 16 86 -15 105 -48 29 -23 -52 -77 -124 -93 -124 -19 0 -1 112 27 172 34 75 20 107 -24 52z"/>
<path d="M7645 11501 c-17 -3 -30 -13 -30 -21 0 -12 13 -14 69 -11 79 4 80 -2 1 -50 -41 -25 -55 -39 -55 -56 0 -26 10 -29 119 -37 41 -3 78 -10 82 -17 8 -13 39 -5 39 9 0 20 -32 34 -106 45 l-77 12 51 32 c41 25 52 38 52 58 0 40 -59 55 -145 36z"/>
<path d="M10077 11482 c-21 -23 -22 -76 -1 -96 22 -22 76 -20 108 5 33 26 35 71 4 93 -31 22 -91 20 -111 -2z m91 -39 c4 -24 -30 -48 -54 -39 -14 6 -19 47 -7 60 16 15 58 1 61 -21z"/>
<path d="M9825 11463 c-75 -39 -81 -61 -31 -113 50 -51 51 -92 5 -145 -34 -39 -54 -45 -46 -15 3 10 -2 25 -9 31 -22 18 -37 -3 -38 -53 -1 -37 2 -43 22 -46 58 -8 142 88 142 163 0 30 -7 46 -31 71 -18 19 -29 39 -26 47 5 14 64 40 120 52 15 3 25 10 22 15 -10 16 -97 11 -130 -7z"/>
<path d="M9484 11418 c-33 -52 -54 -101 -54 -126 0 -23 43 -35 90 -26 l30 6 -3 -68 c-2 -58 1 -69 16 -72 14 -3 17 4 17 35 0 56 18 111 40 123 25 13 26 27 3 32 -16 3 -14 7 10 31 30 31 33 43 15 50 -23 8 -50 -14 -69 -59 -19 -43 -21 -44 -65 -44 l-44 0 26 53 c14 28 33 60 41 69 8 9 12 22 8 27 -13 22 -35 10 -61 -31z"/>
<path d="M4055 11430 c-11 -18 5 -30 40 -30 43 0 54 17 20 30 -33 13 -52 13 -60 0z"/>
<path d="M8715 11401 c-10 -17 4 -31 31 -31 19 0 25 5 22 18 -4 19 -43 29 -53 13z"/>
<path d="M3783 11385 c-58 -25 -44 -56 45 -105 25 -14 47 -30 49 -37 3 -6 -10 -19 -28 -29 -26 -13 -37 -14 -51 -5 -14 9 -25 8 -49 -4 -37 -20 -33 -39 9 -43 66 -7 162 39 162 77 0 23 -33 53 -89 81 -48 24 -45 38 10 49 18 4 34 12 37 19 5 17 -54 15 -95 -3z"/>
<path d="M4274 11383 c-3 -10 -19 -48 -36 -85 -51 -109 -20 -129 74 -47 62 54 67 51 43 -27 -19 -62 -19 -64 4 -64 26 0 46 53 46 125 0 74 -17 81 -73 31 -22 -20 -42 -36 -45 -36 -3 0 3 21 14 46 11 25 18 52 15 60 -8 20 -36 18 -42 -3z"/>
<path d="M5240 11355 c-19 -23 -2 -38 34 -30 17 4 118 10 225 14 142 4 195 9 199 19 6 19 -441 17 -458 -3z"/>
<path d="M10757 11313 c-25 -32 -61 -73 -80 -92 -36 -34 -36 -34 -81 -21 -62 17 -155 9 -172 -15 -18 -25 -18 -31 6 -55 25 -25 81 -26 161 -4 56 16 57 16 105 -10 27 -14 64 -29 82 -32 37 -7 82 11 82 33 0 16 -2 16 -33 2 -21 -9 -35 -6 -86 16 -33 15 -61 31 -61 36 0 4 11 16 24 26 26 21 126 151 126 164 0 25 -34 2 -73 -48z m-192 -142 l30 -7 -40 -13 c-46 -15 -86 -12 -92 6 -6 18 49 26 102 14z"/>
<path d="M8896 11351 c-3 -5 -11 -40 -18 -79 -10 -57 -9 -73 1 -86 21 -25 40 -19 62 19 12 19 24 35 28 35 4 0 14 -21 22 -47 12 -41 18 -48 42 -51 24 -3 39 12 19 20 -5 2 -17 30 -28 63 -22 68 -42 80 -80 44 -27 -25 -29 -20 -14 30 7 24 6 39 -1 48 -13 15 -25 17 -33 4z"/>
<path d="M8384 11336 c-68 -30 -44 -74 51 -95 85 -18 125 -31 125 -41 0 -10 -93 -40 -119 -40 -10 1 -5 7 12 16 27 15 36 34 16 34 -24 0 -109 -44 -109 -56 0 -30 44 -37 125 -21 87 18 125 38 125 67 0 25 -36 43 -134 68 -43 11 -80 23 -83 25 -12 12 42 18 63 7 24 -13 54 -8 54 10 0 12 -60 40 -82 40 -7 -1 -27 -7 -44 -14z"/>
<path d="M4052 11270 c-12 -22 -27 -40 -32 -40 -9 0 -40 -63 -40 -81 0 -5 8 -9 18 -9 21 0 122 138 115 158 -9 24 -39 11 -61 -28z"/>
<path d="M8737 11278 c-42 -101 -50 -129 -39 -140 16 -16 28 -3 61 68 36 78 39 104 11 104 -13 0 -24 -11 -33 -32z"/>
<path d="M6654 11285 c-8 -19 3 -35 25 -35 22 0 45 25 36 40 -9 15 -55 12 -61 -5z"/>
<path d="M3150 11281 c-31 -8 -33 -35 -3 -39 20 -3 63 24 63 40 0 9 -25 9 -60 -1z"/>
<path d="M5386 11281 c-65 -4 -101 -10 -103 -18 -7 -21 44 -26 165 -14 64 6 145 14 180 17 34 3 62 10 62 15 0 9 -131 9 -304 0z"/>
<path d="M10272 11283 c-91 -3 -103 -6 -100 -21 4 -24 61 -26 182 -8 109 16 153 37 71 34 -28 -1 -96 -4 -153 -5z"/>
<path d="M8194 11255 c-8 -21 2 -45 19 -45 20 0 40 27 33 45 -7 19 -45 20 -52 0z"/>
<path d="M7350 11225 c0 -13 41 -15 305 -15 278 0 358 7 274 24 -17 3 -155 6 -305 6 -237 0 -274 -2 -274 -15z"/>
<path d="M7523 11104 c-7 -3 -13 -11 -13 -19 0 -8 27 -17 77 -24 43 -6 82 -16 87 -21 8 -8 -32 -37 -113 -82 -44 -25 -42 -55 6 -64 38 -7 262 2 301 12 56 15 10 24 -125 24 l-148 0 45 27 c63 37 80 53 80 77 0 33 -33 48 -160 71 -14 2 -31 2 -37 -1z"/>
<path d="M4362 10339 c-11 -4 -23 -16 -26 -26 -10 -34 -35 -198 -42 -278 l-7 -80 -17 50 c-17 51 -38 67 -57 43 -13 -17 59 -178 80 -178 29 0 37 30 47 171 6 79 16 171 23 204 10 50 15 60 32 58 11 -1 75 -7 142 -13 68 -6 160 -17 205 -25 102 -18 108 -18 108 -1 0 18 -59 31 -228 52 -70 8 -152 18 -183 23 -31 4 -66 4 -77 0z"/>
<path d="M6594 10313 c-10 -10 -32 -50 -50 -88 -76 -164 -100 -358 -55 -444 l23 -44 -484 7 c-447 6 -554 3 -546 -16 2 -4 300 -10 663 -13 363 -2 955 -10 1316 -17 360 -6 663 -9 673 -5 55 21 -17 27 -352 28 -196 1 -554 6 -796 13 l-438 11 -25 45 c-22 41 -24 53 -19 125 9 129 52 267 112 356 19 28 34 53 34 55 0 11 -41 2 -56 -13z"/>
<path d="M7990 10246 c0 -8 9 -17 19 -21 11 -3 42 -30 69 -60 98 -107 108 -233 28 -352 -30 -43 -32 -53 -12 -53 14 0 59 66 84 123 41 93 16 207 -65 297 -60 67 -123 101 -123 66z"/>
<path d="M7318 10233 c-26 -17 -48 -51 -48 -78 0 -21 40 -45 75 -45 49 0 75 25 75 70 0 29 -6 43 -22 54 -28 20 -46 20 -80 -1z m62 -54 c0 -26 -3 -29 -35 -29 -40 0 -43 7 -15 43 26 32 50 25 50 -14z"/>
<path d="M6705 10099 c-48 -97 -49 -102 -30 -115 22 -16 36 -17 88 -5 34 8 38 7 32 -7 -3 -9 -9 -44 -12 -77 -4 -48 -2 -63 10 -74 22 -17 40 -5 28 18 -14 25 12 140 49 219 35 75 36 82 11 82 -13 0 -26 -18 -45 -59 -27 -60 -41 -71 -98 -71 -16 0 -28 3 -28 8 0 4 18 40 40 80 44 81 49 102 23 102 -13 0 -33 -31 -68 -101z"/>
<path d="M7100 10178 c-43 -11 -86 -45 -94 -73 -4 -14 6 -39 29 -75 41 -64 42 -69 14 -104 -24 -31 -49 -34 -49 -7 0 11 -5 23 -10 26 -16 10 -40 -14 -40 -39 0 -57 70 -63 124 -12 47 44 48 86 6 144 -16 23 -30 49 -30 57 0 22 38 43 105 58 72 16 86 37 23 36 -23 -1 -59 -5 -78 -11z"/>
<path d="M4485 10127 c-30 -23 -11 -32 68 -32 54 0 72 -3 72 -14 0 -7 -37 -36 -82 -63 -124 -75 -114 -90 74 -107 154 -14 160 -14 146 0 -16 16 -119 39 -174 39 -25 0 -49 3 -52 7 -4 3 20 23 52 44 33 21 67 49 77 64 16 25 16 27 -3 47 -28 27 -148 37 -178 15z"/>
<path d="M7900 10093 c0 -30 -10 -68 -24 -100 l-25 -52 -40 20 c-54 26 -102 15 -116 -25 -24 -68 58 -110 131 -67 l34 20 47 -24 c31 -17 62 -25 95 -25 56 0 57 14 2 23 -19 3 -55 18 -79 32 l-44 25 29 63 c37 77 42 157 10 157 -17 0 -20 -7 -20 -47z m-94 -168 c19 -15 19 -15 0 -30 -28 -21 -63 -19 -71 5 -3 11 -3 24 0 30 9 15 48 12 71 -5z"/>
<path d="M5968 10099 c-29 -16 -10 -35 32 -35 22 1 40 6 41 11 1 16 -54 34 -73 24z"/>
<path d="M2927 10073 c-3 -5 -8 -24 -12 -43 -24 -110 -153 -379 -213 -442 -14 -16 -34 -28 -44 -28 -17 0 -18 6 -12 50 6 43 4 50 -10 50 -41 0 -48 -116 -8 -136 62 -30 114 17 198 182 60 118 61 119 78 97 25 -34 54 -28 101 21 l42 44 5 -93 c3 -51 8 -97 12 -104 18 -28 26 8 26 112 1 62 5 143 10 182 6 50 5 72 -3 77 -16 10 -37 -10 -37 -36 0 -33 -44 -117 -81 -156 l-34 -35 -3 61 c-2 34 4 90 12 125 8 35 12 67 10 71 -7 10 -31 10 -37 1z"/>
<path d="M5620 10050 c-29 -29 -12 -54 48 -74 58 -20 92 -42 92 -61 0 -17 -77 -71 -87 -62 -3 4 2 9 11 13 15 6 23 34 10 34 -4 0 -21 -9 -39 -20 -49 -30 -58 -70 -16 -70 34 0 106 31 133 57 53 50 30 96 -64 133 -32 12 -55 26 -52 31 8 14 42 11 75 -7 34 -17 62 -12 53 10 -14 37 -131 49 -164 16z"/>
<path d="M6146 10052 c-3 -5 -11 -41 -18 -80 -21 -123 20 -159 93 -82 l38 40 7 -38 c12 -74 21 -97 35 -97 11 0 13 13 11 63 -8 135 -28 149 -104 75 l-50 -48 8 50 c12 72 11 118 -3 122 -6 2 -14 0 -17 -5z"/>
<path d="M6005 10002 c-17 -12 -55 -101 -55 -127 0 -45 26 -26 59 44 36 73 34 111 -4 83z"/>
<path d="M7382 9983 c3 -16 15 -18 88 -17 97 1 160 11 160 24 0 6 -53 10 -126 10 -114 0 -125 -2 -122 -17z"/>
<path d="M8714 9876 c-37 -28 -3 -38 130 -40 92 -1 126 2 126 11 0 13 -28 19 -135 28 -38 4 -77 8 -86 11 -8 2 -24 -2 -35 -10z"/>
<path d="M3340 9842 c0 -15 9 -21 38 -26 89 -14 310 7 304 29 -1 6 -27 8 -65 5 -90 -7 -154 -6 -219 4 -54 8 -58 7 -58 -12z"/>
<path d="M5134 9805 c-9 -23 5 -35 42 -35 42 0 44 14 4 35 -36 19 -39 19 -46 0z"/>
<path d="M4090 9773 c0 -22 73 -26 357 -20 186 5 283 3 283 -3 0 -13 27 -13 36 1 18 30 -18 34 -347 34 -250 0 -329 -3 -329 -12z"/>
<path d="M8835 9783 c-62 -6 -72 -11 -53 -29 13 -13 27 -14 99 -4 127 17 149 21 143 31 -5 9 -105 10 -189 2z"/>
<path d="M3408 9733 c-45 -3 -58 -8 -58 -20 0 -14 14 -15 123 -9 134 7 177 14 177 27 0 9 -120 9 -242 2z"/>
<path d="M4277 9663 c-17 -16 -1 -21 91 -25 53 -2 107 -10 120 -17 22 -12 23 -14 7 -31 -9 -9 -45 -31 -80 -46 -46 -21 -65 -34 -65 -48 0 -18 8 -18 188 -11 103 4 190 9 195 12 24 14 -7 20 -125 22 -73 1 -134 3 -136 5 -2 2 10 12 27 22 16 9 35 28 42 41 16 30 -5 55 -60 71 -41 13 -193 16 -204 5z"/>
<path d="M7020 9657 c0 -23 49 -62 61 -50 8 8 6 18 -7 37 -20 27 -54 35 -54 13z"/>
<path d="M6695 9586 c-22 -16 -14 -42 17 -56 13 -5 49 -14 81 -20 31 -6 57 -15 57 -19 0 -14 -28 -33 -67 -46 -43 -15 -58 -45 -22 -45 33 0 108 39 125 65 26 40 1 64 -86 81 -19 3 -42 11 -50 16 -15 9 37 5 108 -8 24 -5 32 -3 32 8 0 33 -157 52 -195 24z"/>
<path d="M7724 9543 l-16 -40 -39 11 c-57 15 -93 -6 -97 -56 -7 -81 73 -102 132 -35 l28 33 92 -24 c58 -14 112 -22 151 -20 68 4 59 10 -38 28 -38 7 -94 20 -125 30 -47 14 -56 20 -53 36 16 72 -11 99 -35 37z m-49 -69 c14 -6 13 -9 -6 -30 -27 -29 -46 -31 -54 -4 -11 35 16 51 60 34z"/>
<path d="M7235 9548 c-3 -7 -6 -39 -7 -72 -2 -47 0 -60 15 -70 15 -9 26 -3 71 45 l54 55 11 -38 c12 -39 42 -64 67 -54 18 7 18 26 0 26 -9 0 -21 21 -31 55 -20 71 -42 73 -102 8 l-44 -48 2 40 c3 58 1 65 -16 65 -9 0 -18 -6 -20 -12z"/>
<path d="M7052 9538 c-14 -19 -52 -108 -52 -124 0 -8 8 -14 18 -14 14 0 27 18 46 64 26 60 28 86 7 86 -5 0 -13 -6 -19 -12z"/>
<path d="M4035 8773 c-49 -6 -84 -24 -91 -45 -7 -22 1 -118 22 -260 16 -113 18 -151 5 -128 -5 8 -11 32 -15 53 -6 31 -11 37 -31 37 -15 0 -25 -6 -25 -15 0 -30 43 -128 70 -158 24 -27 30 -29 44 -18 21 17 20 54 -3 209 -32 211 -35 256 -17 271 34 28 423 41 469 15 17 -10 17 -12 -3 -36 -24 -31 -25 -38 -6 -38 18 0 68 59 63 74 -2 6 -19 19 -38 28 -29 15 -61 18 -224 16 -104 0 -203 -3 -220 -5z"/>
<path d="M6933 8728 c-11 -13 -23 -36 -27 -51 -9 -39 3 -97 20 -97 8 0 14 4 14 9 0 4 10 6 23 4 37 -7 87 40 87 83 0 66 -74 99 -117 52z m75 -41 c4 -21 -24 -57 -45 -57 -15 0 -17 16 -3 25 6 3 10 17 10 31 0 19 5 25 17 22 10 -2 19 -11 21 -21z"/>
<path d="M10919 8673 c-1 -5 0 -18 0 -29 3 -32 -26 -148 -49 -197 -19 -39 -23 -43 -53 -39 -43 5 -82 -11 -102 -42 -25 -37 -6 -66 43 -66 37 0 102 31 102 49 0 6 28 -2 63 -18 180 -81 252 -80 84 1 l-118 57 14 28 c27 52 57 165 57 214 0 42 -3 49 -20 49 -11 0 -20 -3 -21 -7z m-99 -308 c0 -8 -62 -37 -67 -31 -11 11 20 36 43 36 13 0 24 -2 24 -5z"/>
<path d="M5744 8655 c-4 -9 -2 -21 4 -27 15 -15 54 1 50 20 -4 23 -46 28 -54 7z"/>
<path d="M6329 8633 c-8 -9 -13 -23 -11 -33 1 -9 -9 -46 -23 -83 -14 -37 -25 -74 -25 -82 0 -19 60 -19 113 -1 42 15 42 14 23 -42 -21 -58 -24 -97 -8 -97 8 0 24 29 36 65 29 80 50 128 72 157 15 21 15 23 -1 30 -13 4 -25 -2 -42 -23 -12 -16 -23 -35 -23 -41 0 -7 -6 -13 -14 -13 -7 0 -35 -3 -61 -7 -46 -6 -47 -6 -40 18 4 13 20 53 35 89 16 35 26 68 24 72 -9 14 -41 9 -55 -9z"/>
<path d="M9843 8600 c-50 -20 -57 -96 -10 -118 60 -29 121 46 83 103 -17 26 -36 30 -73 15z m45 -57 c-2 -20 -9 -29 -25 -31 -26 -4 -27 -2 -11 33 16 35 40 33 36 -2z"/>
<path d="M5485 8581 c-79 -48 -81 -84 -7 -111 45 -17 94 -58 86 -72 -12 -19 -72 -41 -118 -44 -50 -2 -73 -15 -62 -33 24 -38 226 30 226 76 0 29 -49 81 -87 93 -55 18 -62 28 -34 51 30 25 51 25 44 0 -3 -10 0 -22 7 -26 17 -11 40 15 40 45 0 43 -44 53 -95 21z"/>
<path d="M6681 8590 c-48 -11 -80 -30 -86 -51 -4 -11 10 -43 34 -82 47 -73 49 -85 21 -115 -27 -29 -50 -29 -47 0 3 33 -30 36 -43 4 -20 -53 20 -79 83 -53 74 32 84 90 27 172 -16 24 -30 50 -30 58 0 21 53 38 143 44 50 4 76 10 74 17 -4 13 -128 18 -176 6z"/>
<path d="M7837 8552 c-3 -27 -16 -75 -30 -108 l-23 -59 -43 3 c-47 4 -87 -16 -101 -51 -8 -21 -9 -21 -9 5 -1 29 -1 29 -129 58 -59 14 -73 27 -47 47 23 16 69 17 95 1 23 -15 38 -3 24 19 -27 43 -140 33 -171 -14 -15 -23 -17 -23 -35 -6 -24 21 -118 24 -142 4 -21 -17 -17 -50 6 -65 21 -13 35 -1 20 17 -16 19 -5 27 38 27 23 0 43 -7 53 -18 23 -25 21 -34 -7 -61 -45 -42 -136 -36 -136 9 0 21 -34 28 -45 10 -3 -5 -19 -10 -36 -10 -25 0 -29 4 -29 28 0 16 7 37 15 48 14 19 14 19 30 -3 18 -25 40 -30 51 -11 8 13 -49 68 -70 68 -27 0 -66 -59 -66 -99 0 -48 26 -74 72 -70 18 2 44 -4 58 -13 14 -9 41 -19 60 -23 66 -12 160 44 160 95 0 17 2 17 48 0 26 -9 68 -21 95 -24 54 -8 54 -19 0 -37 -28 -9 -38 -9 -41 0 -6 19 -30 12 -37 -10 -15 -45 40 -50 120 -9 22 11 40 20 41 20 1 0 4 -10 8 -23 6 -27 47 -49 73 -40 10 3 34 21 54 40 l36 34 38 -15 c21 -9 46 -16 56 -16 34 0 20 26 -23 42 -25 9 -42 21 -41 29 1 8 13 47 28 87 28 80 30 135 4 140 -12 2 -17 -8 -22 -46z m-103 -233 c-34 -36 -54 -37 -54 -4 0 28 30 46 63 37 16 -4 16 -7 -9 -33z"/>
<path d="M10267 8563 c-4 -3 -7 -14 -7 -23 0 -14 9 -17 44 -16 57 1 65 11 27 30 -32 17 -54 20 -64 9z"/>
<path d="M5942 8518 c-14 -18 -34 -126 -30 -168 5 -60 31 -50 87 34 63 92 71 98 72 49 1 -52 22 -107 42 -111 15 -3 16 5 10 75 -8 98 -16 123 -44 123 -19 0 -34 -14 -99 -90 l-21 -25 7 35 c11 52 10 83 -2 87 -6 2 -16 -2 -22 -9z"/>
<path d="M8701 8504 c-30 -39 -46 -99 -35 -132 12 -34 48 -52 82 -42 22 5 34 1 60 -22 27 -23 42 -28 85 -28 148 0 236 189 101 216 -65 13 -145 -51 -117 -94 17 -27 37 -20 38 13 0 41 42 62 83 43 40 -20 34 -63 -17 -110 -30 -29 -49 -38 -74 -38 -43 0 -83 30 -90 70 -8 38 -34 39 -63 3 -21 -26 -24 -27 -39 -12 -14 14 -15 23 -6 56 13 48 38 74 50 54 10 -15 43 -11 48 5 6 19 -26 44 -57 44 -19 0 -36 -9 -49 -26z"/>
<path d="M9375 8497 c-8 -19 -19 -55 -26 -81 -10 -41 -10 -50 5 -64 13 -14 21 -14 47 -5 25 10 30 9 25 -2 -2 -7 -8 -30 -12 -49 -5 -29 -3 -36 9 -36 17 0 56 91 64 153 5 30 2 37 -11 37 -8 0 -31 -17 -51 -37 -39 -43 -44 -32 -20 37 8 23 15 51 15 61 0 31 -30 21 -45 -14z"/>
<path d="M5785 8468 c-3 -18 -10 -55 -15 -83 -16 -91 29 -90 48 1 6 33 15 71 18 87 6 24 4 27 -19 27 -22 0 -27 -6 -32 -32z"/>
<path d="M9638 8486 c-99 -21 -109 -45 -48 -112 34 -37 39 -48 30 -63 -15 -29 -48 -36 -71 -15 -18 16 -21 16 -36 1 -43 -43 68 -68 120 -27 14 11 29 29 32 40 7 22 -14 67 -44 94 -12 11 -21 22 -21 26 0 4 29 16 65 25 37 10 64 23 62 29 -5 16 -24 16 -89 2z"/>
<path d="M10446 8427 c-18 -79 -15 -103 15 -112 23 -8 52 7 78 41 l21 27 0 -27 c0 -30 23 -44 45 -26 13 11 13 27 -1 98 -7 36 -38 26 -73 -23 -49 -69 -65 -58 -36 26 18 49 14 69 -13 69 -15 0 -22 -15 -36 -73z"/>
<path d="M4123 8463 c-7 -2 -13 -12 -13 -20 0 -13 10 -15 56 -10 58 6 84 1 84 -14 0 -5 -27 -35 -60 -66 -33 -31 -60 -62 -60 -69 0 -27 41 -36 156 -32 67 2 114 7 115 13 0 16 -39 23 -134 24 l-89 1 56 51 c61 56 74 98 37 119 -20 10 -125 13 -148 3z"/>
<path d="M9105 8446 c-14 -14 -25 -31 -25 -39 0 -28 41 -66 78 -73 l37 -7 -30 -9 c-16 -5 -46 -9 -65 -11 -24 -1 -36 -7 -38 -19 -5 -24 33 -23 128 5 87 26 99 47 33 59 -47 8 -103 34 -103 48 0 5 8 16 17 25 13 13 27 16 61 11 38 -5 43 -4 40 12 -2 13 -15 18 -56 20 -44 3 -55 -1 -77 -22z"/>
<path d="M10060 8457 c-18 -9 -25 -21 -25 -42 0 -28 5 -32 65 -53 47 -16 55 -21 28 -17 -43 7 -78 -8 -78 -32 0 -13 8 -15 53 -10 135 16 152 49 43 81 -80 24 -96 43 -39 48 26 2 38 8 38 18 0 20 -52 24 -85 7z"/>
<path d="M8198 8432 c-98 -2 -108 -4 -108 -21 0 -26 14 -29 100 -20 41 4 116 8 167 8 50 1 95 6 98 11 3 6 0 12 -7 14 -23 7 -139 11 -250 8z"/>
<path d="M10330 8419 c0 -6 -14 -29 -31 -50 -31 -39 -31 -59 -1 -58 16 0 82 88 82 109 0 5 -11 10 -25 10 -14 0 -25 -5 -25 -11z"/>
<path d="M3174 8285 c-12 -32 6 -36 119 -29 104 6 150 17 116 28 -8 2 -63 7 -122 10 -88 5 -109 3 -113 -9z"/>
<path d="M11536 8291 c-12 -19 2 -29 58 -42 69 -15 246 -4 246 16 0 10 -29 15 -112 18 -62 3 -129 9 -149 12 -23 4 -39 3 -43 -4z"/>
<path d="M4852 8219 c2 -12 11 -27 21 -33 15 -9 21 -7 33 9 20 27 13 39 -25 43 -29 3 -32 1 -29 -19z"/>
<path d="M10930 8229 c-168 -4 -408 -13 -535 -19 -847 -40 -2585 -68 -3210 -51 -225 6 -491 16 -590 20 -99 5 -394 13 -655 17 -638 11 -585 12 -585 -6 0 -13 71 -16 550 -21 303 -4 678 -14 835 -23 157 -9 483 -17 725 -18 802 -5 2257 19 2800 47 154 8 436 17 626 21 191 3 352 10 359 14 12 8 5 32 -8 28 -4 0 -144 -5 -312 -9z"/>
<path d="M3850 8173 c0 -23 53 -28 260 -26 223 2 270 7 270 28 0 11 -45 13 -265 12 -202 -2 -265 -5 -265 -14z"/>
<path d="M11622 8172 c3 -15 20 -17 136 -20 79 -1 132 1 132 7 0 10 -50 17 -188 25 -75 5 -83 4 -80 -12z"/>
<path d="M3214 8161 c-2 -2 -4 -10 -4 -18 0 -9 14 -13 47 -13 62 0 173 20 173 31 0 8 -207 9 -216 0z"/>
<path d="M4071 8061 c-38 -3 -66 -11 -69 -18 -4 -15 -5 -15 118 -14 148 2 149 -14 3 -88 -70 -35 -84 -65 -37 -77 59 -15 292 14 280 35 -3 4 -56 6 -118 4 l-113 -4 55 32 c71 41 90 58 90 80 0 42 -84 62 -209 50z"/>
<path d="M7907 8063 c-4 -3 -7 -10 -7 -14 0 -8 57 -39 72 -39 16 0 8 22 -14 41 -24 19 -40 23 -51 12z"/>
<path d="M7665 8023 c-38 -9 -83 -35 -89 -50 -11 -28 13 -41 87 -48 87 -8 114 -20 68 -30 -17 -3 -43 -6 -58 -5 -53 4 -63 0 -63 -20 0 -16 7 -20 35 -20 97 0 183 41 156 74 -13 16 -93 36 -144 36 -30 1 -31 1 -13 15 24 18 60 19 86 3 16 -10 22 -10 32 0 11 11 9 17 -11 33 -23 19 -45 22 -86 12z"/>
<path d="M8211 7945 c-37 -36 -71 -65 -75 -65 -3 0 0 13 9 30 21 40 19 70 -3 70 -23 0 -53 -61 -55 -111 -2 -30 1 -34 26 -37 22 -3 40 9 92 59 64 61 65 62 65 33 0 -49 11 -74 31 -74 17 0 19 8 19 64 0 45 -5 69 -16 80 -8 9 -18 16 -21 16 -3 0 -35 -29 -72 -65z"/>
<path d="M8611 7935 c-26 -46 -36 -55 -59 -55 -37 0 -96 -42 -112 -79 -30 -73 30 -83 110 -20 l52 41 22 -21 c29 -27 81 -48 141 -56 28 -3 60 -8 73 -11 15 -3 22 0 22 11 0 10 -10 15 -29 15 -50 0 -131 32 -173 69 l-40 36 25 57 c23 52 25 68 6 68 -4 0 -21 -25 -38 -55z m-85 -121 c-15 -14 -31 -22 -35 -19 -7 8 36 45 53 45 6 0 -2 -12 -18 -26z"/>
<path d="M7934 7942 c-18 -12 -56 -102 -50 -117 9 -25 33 -17 47 16 7 18 23 44 36 60 14 16 22 33 18 39 -7 12 -35 13 -51 2z"/>
<path d="M9373 7043 c-23 -49 -49 -112 -59 -141 -17 -48 -21 -52 -44 -47 -30 6 -60 -10 -45 -24 6 -5 19 -11 30 -13 21 -4 21 -8 10 -83 -13 -82 75 -131 124 -69 30 38 26 59 -20 109 l-42 45 87 0 c77 0 86 -2 86 -18 0 -27 30 -50 70 -54 60 -5 49 -30 -31 -68 -79 -39 -123 -81 -114 -111 6 -18 -12 -19 -669 -19 -442 0 -677 -3 -681 -10 -3 -6 0 -12 7 -15 7 -3 543 -6 1191 -8 1042 -2 1177 0 1175 13 -3 13 -58 15 -415 18 l-411 2 15 30 c8 17 17 54 20 84 5 43 10 56 29 67 13 7 24 18 24 26 0 16 -5 16 -30 1 -17 -11 -22 -10 -30 2 -5 8 -30 19 -55 25 -58 13 -59 29 -1 33 24 2 50 10 56 18 31 37 -56 60 -110 29 -16 -9 -56 -14 -113 -15 -104 0 -101 -13 -30 145 59 131 60 135 36 135 -15 0 -30 -21 -60 -87z m-3 -331 c0 -21 -18 -42 -37 -42 -21 0 -32 34 -26 80 l6 43 29 -31 c15 -18 28 -40 28 -50z m238 -74 c-6 -24 -21 -53 -35 -65 -28 -26 -75 -30 -93 -8 -10 13 -9 19 5 35 17 19 113 79 126 80 4 0 2 -19 -3 -42z"/>
<path d="M10043 7025 c-1 -41 -70 -186 -111 -233 -26 -31 -28 -31 -70 -20 -36 10 -48 10 -70 -3 -36 -20 -39 -44 -7 -65 24 -15 32 -16 68 -5 56 17 60 17 147 -7 94 -25 210 -38 210 -23 0 5 -17 13 -37 16 -39 6 -215 54 -220 59 -2 2 17 34 42 72 46 70 83 154 92 212 5 29 3 32 -19 32 -21 0 -24 -5 -25 -35z m-200 -292 c-7 -2 -19 -2 -25 0 -7 3 -2 5 12 5 14 0 19 -2 13 -5z"/>
<path d="M4585 7040 c-3 -5 -3 -15 0 -20 9 -14 -20 -105 -53 -168 -27 -52 -29 -54 -75 -57 -68 -4 -90 -29 -71 -79 10 -25 63 -19 102 10 l34 27 64 -27 c119 -48 143 -30 31 24 l-73 35 39 76 c25 50 40 96 44 133 5 52 4 56 -15 56 -11 0 -24 -4 -27 -10z m-135 -295 c-7 -8 -16 -12 -21 -9 -13 8 -1 24 18 24 13 0 13 -3 3 -15z"/>
<path d="M6199 7018 c0 -2 -2 -32 -3 -68 -1 -39 -11 -88 -25 -123 l-23 -58 -56 6 c-97 10 -139 -33 -89 -90 32 -38 77 -36 128 4 l37 31 99 -30 c212 -63 241 -59 -502 -60 -368 0 -818 -5 -1000 -11 -181 -6 -514 -14 -739 -17 -314 -5 -410 -10 -414 -19 -5 -17 520 -18 778 -2 96 6 614 14 1150 19 536 5 990 11 1008 15 48 11 39 25 -17 25 -34 0 -77 12 -142 39 -52 21 -119 47 -150 56 l-57 18 24 52 c47 102 52 215 9 215 -8 0 -15 -1 -16 -2z m-89 -287 c0 -10 -39 -41 -52 -41 -10 0 -38 30 -38 41 0 5 20 9 45 9 25 0 45 -4 45 -9z"/>
<path d="M3730 6949 c-87 -50 -127 -182 -67 -224 25 -18 101 -20 145 -4 25 9 36 8 54 -5 29 -20 117 -21 164 -1 36 15 67 66 57 92 -9 22 -87 63 -121 63 -19 0 -40 -8 -52 -20 -11 -11 -29 -20 -41 -20 -13 0 -25 -11 -34 -34 -15 -35 -54 -56 -104 -56 -49 0 -65 28 -50 83 10 36 59 97 77 97 6 0 12 -15 14 -32 2 -23 9 -34 22 -36 30 -6 38 11 27 58 -14 64 -34 72 -91 39z m278 -129 c17 -11 32 -26 32 -34 0 -36 -64 -63 -120 -51 -38 8 -46 22 -26 44 9 10 16 22 16 28 0 5 14 8 30 5 29 -4 42 11 18 21 -9 4 -8 6 2 6 8 1 30 -8 48 -19z"/>
<path d="M5505 6939 c-4 -6 1 -16 11 -24 46 -34 84 -20 42 15 -26 22 -44 25 -53 9z"/>
<path d="M5256 6924 c-31 -31 -16 -57 54 -91 35 -17 66 -36 68 -42 4 -12 -26 -29 -89 -47 -56 -17 -62 -40 -10 -38 38 2 121 43 135 67 15 24 -2 48 -53 73 -32 15 -39 23 -27 27 19 8 20 18 4 40 -20 25 -62 31 -82 11z m54 -39 c7 -8 8 -15 2 -15 -5 0 -15 7 -22 15 -7 8 -8 15 -2 15 5 0 15 -7 22 -15z"/>
<path d="M4122 6904 c-29 -20 -29 -60 1 -75 12 -7 51 -20 87 -28 36 -9 65 -20 65 -25 0 -5 -17 -15 -37 -22 -22 -7 -38 -9 -38 -3 0 5 -6 9 -13 9 -18 0 -49 -34 -40 -43 22 -23 156 12 174 45 16 30 -6 47 -92 70 -83 22 -102 34 -79 49 13 9 32 8 94 -3 30 -5 31 21 1 32 -39 15 -97 12 -123 -6z"/>
<path d="M8180 6867 c-25 -23 -56 -49 -69 -58 -17 -10 -22 -21 -18 -32 9 -24 36 -21 65 6 15 13 22 16 19 7 -32 -85 -40 -121 -29 -132 8 -8 15 -8 21 -2 11 12 91 212 91 229 0 10 -22 26 -33 25 -1 0 -22 -20 -47 -43z"/>
<path d="M5706 6858 c-8 -25 -19 -93 -20 -128 -2 -52 26 -52 80 1 l44 43 0 -42 c0 -30 5 -44 16 -49 25 -9 31 8 25 72 -8 76 -27 83 -83 28 -36 -34 -39 -35 -32 -13 15 45 11 94 -9 98 -9 2 -19 -2 -21 -10z"/>
<path d="M4958 6823 c-93 -3 -118 -7 -118 -18 0 -7 4 -17 10 -20 10 -6 236 11 278 22 36 9 25 23 -15 21 -21 -1 -91 -4 -155 -5z"/>
<path d="M5501 6763 c-41 -56 -49 -77 -33 -87 12 -7 23 3 70 66 47 64 51 78 23 78 -13 0 -35 -21 -60 -57z"/>
<path d="M8425 6760 c-3 -5 -3 -14 0 -20 8 -13 282 -13 290 0 9 15 -8 18 -152 25 -86 4 -134 2 -138 -5z"/>
<path d="M2960 6741 c0 -20 4 -21 129 -21 121 0 164 9 123 25 -9 4 -70 9 -134 12 -116 6 -118 6 -118 -16z"/>
<path d="M6965 6682 c-3 -3 -5 -14 -5 -25 0 -20 5 -20 177 -13 153 5 209 14 192 30 -6 6 -358 14 -364 8z"/>
<path d="M2972 6613 c3 -16 15 -18 123 -14 66 2 123 5 128 8 25 15 -20 23 -129 23 -114 0 -125 -2 -122 -17z"/>
<path d="M7265 6540 c-178 -10 -227 -18 -223 -39 2 -9 12 -15 23 -14 11 1 92 9 180 18 88 8 170 18 183 21 31 9 28 24 -5 22 -16 -1 -86 -4 -158 -8z"/>
<path d="M5759 6358 l-45 -73 -57 3 c-67 5 -107 -15 -107 -51 1 -65 82 -85 144 -36 l25 20 48 -25 c42 -21 88 -30 131 -27 19 2 14 21 -5 21 -18 0 -143 56 -143 63 0 3 18 36 40 73 22 38 40 77 40 86 0 37 -29 15 -71 -54z m-98 -128 c-27 -23 -44 -25 -60 -7 -16 20 -4 27 43 27 l41 -1 -24 -19z"/>
<path d="M4316 6401 c-13 -21 5 -31 55 -31 68 0 61 -15 -29 -63 -72 -39 -92 -67 -56 -81 51 -19 233 6 242 33 4 11 -2 12 -19 7 -40 -12 -137 -19 -155 -12 -15 6 -10 12 26 32 82 47 102 81 60 104 -31 17 -116 24 -124 11z"/>
<path d="M4850 6395 c0 -17 25 -28 83 -39 52 -10 47 9 -9 34 -55 24 -74 25 -74 5z"/>
<path d="M4583 6358 c-58 -28 -28 -63 61 -73 36 -3 68 -11 72 -16 10 -17 -18 -41 -41 -35 -29 7 -81 -35 -72 -58 9 -22 43 -16 105 20 50 30 72 65 52 89 -15 18 -72 35 -120 35 -26 0 -31 3 -20 10 8 5 32 10 53 10 26 0 37 4 37 15 0 12 -12 15 -52 14 -29 0 -63 -5 -75 -11z"/>
<path d="M9866 6278 c-57 -116 -88 -153 -115 -138 -28 15 -77 12 -111 -5 -57 -30 -28 -105 40 -105 14 0 41 13 60 29 l34 28 72 -34 c74 -35 214 -58 214 -36 0 11 -45 23 -84 23 -12 0 -54 16 -94 35 l-72 34 54 79 c56 82 82 143 72 167 -11 29 -25 14 -70 -77z m-151 -193 c-34 -28 -35 -28 -54 -16 -28 18 -4 41 41 41 l43 -1 -30 -24z"/>
<path d="M5157 6353 c-2 -4 -10 -41 -18 -81 -11 -63 -10 -75 2 -83 24 -15 35 -10 77 35 l40 43 13 -31 c12 -26 20 -31 48 -31 39 0 54 22 19 27 -17 2 -24 11 -28 38 -13 75 -33 78 -90 13 -39 -45 -40 -46 -33 -18 13 52 10 89 -9 93 -9 2 -18 -1 -21 -5z"/>
<path d="M9095 6348 c-47 -151 -43 -144 -79 -140 -56 7 -61 -41 -5 -53 19 -4 29 -13 29 -25 0 -42 67 -54 84 -14 8 18 21 22 84 28 65 5 78 3 103 -15 16 -11 29 -23 29 -27 0 -4 -20 -15 -44 -25 -91 -37 -128 -117 -75 -160 18 -14 33 -18 63 -14 74 10 130 77 124 150 -2 25 1 37 9 37 7 0 13 5 13 10 0 6 -7 10 -16 10 -8 0 -28 12 -43 27 -28 28 -28 28 -7 44 18 15 19 19 7 33 -21 24 -73 17 -86 -11 -9 -22 -16 -23 -102 -23 -51 0 -93 2 -93 4 0 2 11 34 25 70 31 82 32 106 5 106 -11 0 -22 -6 -25 -12z m251 -367 c-12 -22 -26 -32 -52 -37 -77 -14 -72 50 9 96 l52 30 3 -29 c2 -17 -4 -43 -12 -60z"/>
<path d="M4901 6282 c-17 -27 -31 -56 -31 -65 0 -23 39 -22 47 1 3 9 17 32 30 50 25 34 25 62 -1 62 -7 0 -28 -22 -45 -48z"/>
<path d="M8502 6268 c-17 -21 -5 -28 49 -28 57 0 102 -15 97 -33 -2 -6 -27 -28 -56 -47 -55 -36 -66 -62 -33 -80 27 -14 67 -13 135 5 61 16 187 72 221 98 38 29 6 29 -57 -1 -86 -41 -146 -60 -209 -67 -46 -5 -51 -4 -35 7 91 61 105 98 50 130 -43 25 -146 35 -162 16z"/>
<path d="M2171 5466 c-35 -20 -91 -130 -91 -180 0 -82 53 -119 175 -120 103 -1 160 16 207 64 32 32 38 44 38 80 0 78 -49 127 -155 155 -72 18 -142 19 -174 1z m179 -32 c70 -21 120 -69 120 -116 0 -76 -72 -122 -195 -122 -92 -1 -142 16 -156 51 -10 28 -1 103 13 103 5 0 18 19 28 43 11 23 22 46 26 50 13 13 109 7 164 -9z"/>
<path d="M2693 5410 c-71 -11 -127 -39 -131 -67 -4 -26 42 -59 97 -69 l34 -7 -26 -14 c-27 -14 -42 -47 -35 -79 5 -29 47 -45 103 -40 67 6 104 24 112 54 9 37 -31 66 -132 98 -99 31 -128 48 -105 64 47 32 175 40 253 16 54 -16 53 -4 -1 23 -47 24 -104 31 -169 21z m87 -180 c46 -24 51 -42 15 -58 -30 -14 -104 -16 -123 -3 -21 13 -10 43 23 62 39 23 39 23 85 -1z"/>
<path d="M3988 5375 c-45 -25 -71 -80 -74 -155 -2 -65 -2 -66 32 -90 41 -27 129 -39 163 -21 45 25 13 95 -49 108 -17 3 -30 7 -30 9 0 1 9 18 19 36 55 96 22 158 -61 113z m59 -52 c-4 -21 -15 -49 -25 -63 -19 -25 -70 -56 -78 -47 -3 3 0 24 6 48 13 46 58 99 86 99 14 0 16 -6 11 -37z m36 -151 c21 -19 22 -38 1 -46 -18 -7 -80 8 -104 24 -13 9 -12 13 7 29 25 21 67 18 96 -7z"/>
<path d="M5229 5270 c-9 -5 -22 -23 -29 -40 -11 -25 -10 -34 5 -56 24 -36 7 -46 -74 -41 -67 3 -99 25 -85 57 12 27 9 55 -5 55 -8 0 -24 -18 -35 -39 -23 -42 -85 -82 -112 -72 -12 5 -14 15 -9 45 11 67 -28 66 -51 -1 -12 -35 -49 -54 -89 -44 -21 5 -25 13 -25 41 0 18 5 37 10 40 6 3 10 15 10 26 0 28 -35 24 -48 -6 -12 -25 -66 -65 -89 -65 -9 0 -11 13 -6 46 5 41 4 46 -12 43 -10 -2 -23 -17 -28 -34 -13 -42 -56 -85 -85 -85 -28 0 -51 25 -52 56 0 26 -37 44 -91 44 -31 0 -47 -7 -70 -29 -66 -67 -7 -131 90 -98 23 8 45 11 53 6 21 -14 86 -10 118 6 27 14 29 14 32 -7 4 -29 28 -35 35 -9 3 13 21 28 40 36 44 19 53 19 53 0 0 -29 47 -48 98 -41 54 8 63 8 117 0 32 -4 47 -1 76 19 l37 25 21 -22 c19 -18 31 -21 104 -19 45 1 134 3 197 3 65 0 137 7 165 14 l50 14 -107 1 c-106 1 -131 8 -104 30 8 7 19 26 25 42 9 25 7 33 -9 49 -22 22 -92 27 -121 10z m96 -30 c20 -32 -40 -88 -75 -70 -22 12 -27 49 -8 68 15 15 74 16 83 2z m-961 -57 c-4 -16 -9 -31 -11 -35 -6 -12 -81 -10 -88 2 -11 18 42 60 75 60 28 0 30 -2 24 -27z"/>
<path d="M2972 5244 c-22 -15 -29 -54 -16 -89 16 -41 109 -58 164 -30 54 28 52 92 -4 119 -43 20 -115 21 -144 0z m136 -30 c27 -19 29 -50 3 -64 -26 -13 -98 -13 -107 1 -4 8 1 9 17 5 23 -7 23 -6 5 8 -10 8 -23 17 -27 18 -5 2 -6 13 -3 26 5 18 13 22 48 22 23 0 52 -7 64 -16z"/>
<path d="M3199 5221 c-77 -77 14 -141 139 -97 38 14 40 14 51 -10 13 -30 48 -32 53 -3 2 15 18 27 53 40 l50 19 18 -25 c10 -14 25 -25 33 -25 8 0 23 -9 33 -19 23 -23 80 -36 117 -27 36 9 74 50 74 81 0 51 -84 93 -162 81 -23 -4 -38 -2 -38 4 0 18 -39 10 -50 -10 -12 -23 -51 -45 -97 -55 -32 -6 -33 -6 -33 29 0 45 -25 50 -35 7 -3 -16 -14 -36 -23 -44 -38 -35 -167 -42 -179 -10 -3 7 2 24 11 38 18 28 60 34 70 10 8 -21 36 -19 36 3 0 50 -75 58 -121 13z m549 -22 c35 -12 48 -39 33 -68 -14 -25 -44 -35 -87 -26 -38 7 -39 8 -21 35 10 17 9 22 -2 29 -7 5 -22 6 -32 4 -21 -6 -25 7 -7 25 15 15 75 16 116 1z"/>
<path d="M5830 5055 c0 -8 7 -15 15 -15 8 0 15 7 15 15 0 8 -7 15 -15 15 -8 0 -15 -7 -15 -15z"/>
<path d="M1987 5033 c-4 -3 -7 -9 -7 -13 0 -4 258 -10 573 -13 314 -3 777 -15 1027 -26 250 -11 644 -25 875 -31 390 -9 579 -16 1069 -39 104 -5 195 -7 203 -4 37 14 -4 20 -179 26 -106 4 -283 11 -393 17 -110 5 -393 14 -630 20 -236 6 -635 20 -885 30 -833 36 -1634 52 -1653 33z"/>
<path d="M8740 4895 c0 -8 4 -15 8 -15 21 0 115 -105 137 -152 35 -74 34 -172 -1 -276 -32 -96 -79 -185 -120 -229 -37 -39 -19 -44 26 -7 35 30 110 178 136 268 11 42 15 83 12 140 -5 100 -37 164 -116 237 -54 50 -82 61 -82 34z"/>
<path d="M1110 4816 c0 -8 11 -17 24 -20 36 -9 87 -55 102 -93 40 -96 -20 -227 -131 -286 -28 -15 -35 -22 -23 -25 29 -6 86 28 128 75 66 76 89 189 52 263 -29 58 -152 128 -152 86z"/>
<path d="M5340 4742 c-59 -61 -83 -133 -84 -251 -1 -74 3 -92 24 -130 14 -24 37 -53 51 -64 30 -21 113 -35 122 -20 4 6 -3 8 -17 6 -13 -3 -37 2 -54 11 -76 39 -110 130 -93 246 13 93 37 145 88 190 41 36 49 60 21 60 -7 0 -32 -22 -58 -48z"/>
<path d="M7931 4736 c-15 -37 -31 -135 -31 -183 0 -50 26 -83 66 -83 26 0 63 31 96 80 17 25 17 25 17 -32 1 -61 23 -98 58 -98 14 0 14 2 -3 21 -15 17 -20 40 -22 120 -5 121 -17 128 -62 34 -32 -67 -68 -102 -95 -92 -26 11 -28 56 -6 148 12 49 19 94 16 99 -10 17 -25 11 -34 -14z"/>
<path d="M1856 4699 c-92 -92 -84 -210 17 -248 42 -16 62 -14 134 15 59 24 67 25 75 10 27 -47 132 -60 205 -25 59 28 83 62 83 114 0 85 -70 145 -168 145 -98 0 -150 -51 -137 -136 6 -41 5 -45 -27 -64 -76 -47 -173 -47 -198 0 -26 49 0 140 53 182 25 20 87 24 104 7 7 -7 20 -9 29 -5 33 13 -9 39 -71 44 -54 4 -56 4 -99 -39z m416 -31 c33 -12 68 -65 68 -100 0 -73 -122 -134 -193 -97 -31 17 -38 30 -31 62 5 23 2 29 -15 34 -16 4 -20 11 -15 27 25 83 93 110 186 74z"/>
<path d="M3147 4723 c-16 -15 -3 -21 58 -25 36 -2 70 -9 77 -16 18 -18 -15 -48 -74 -68 -56 -18 -62 -42 -13 -56 120 -36 158 -85 89 -117 -36 -16 -139 -14 -153 3 -10 11 -8 15 6 19 10 3 1 5 -19 6 -43 1 -50 -15 -18 -44 23 -21 116 -32 173 -21 44 8 77 40 77 75 0 33 -41 75 -89 92 l-34 12 35 18 c70 36 78 82 18 111 -34 18 -120 25 -133 11z"/>
<path d="M8323 4680 c-37 -36 -63 -89 -70 -141 -16 -117 150 -161 253 -67 21 19 21 19 38 -6 24 -38 84 -51 135 -30 150 60 119 255 -37 242 -33 -3 -39 -8 -59 -49 -12 -26 -29 -49 -37 -52 -9 -4 -16 -11 -16 -17 0 -21 -51 -78 -85 -94 -61 -29 -146 -11 -158 33 -12 49 34 149 78 169 12 6 29 5 43 -1 33 -15 55 8 28 29 -33 24 -79 17 -113 -16z m398 -56 c23 -21 25 -74 5 -113 -33 -63 -156 -71 -156 -9 0 19 44 124 61 144 12 15 63 3 90 -22z"/>
<path d="M906 4659 c-45 -28 -47 -32 -33 -47 15 -15 18 -14 40 6 13 12 26 22 29 22 8 0 -22 -102 -33 -114 -5 -6 -23 -10 -41 -10 -24 -1 -34 -6 -36 -20 -4 -17 3 -18 117 -14 88 3 125 8 136 19 13 12 4 14 -66 10 l-80 -3 7 28 c4 16 15 53 26 81 30 81 13 92 -66 42z"/>
<path d="M5612 4644 c-52 -36 -69 -121 -30 -148 58 -41 213 6 258 79 21 34 25 36 59 30 82 -14 83 -16 46 -71 -31 -46 -33 -89 -4 -105 30 -16 86 2 144 46 25 19 45 31 45 26 0 -18 31 -41 55 -41 13 0 44 15 68 34 41 31 46 33 50 15 9 -34 50 -44 107 -25 28 9 55 14 60 11 6 -4 10 -21 10 -38 0 -39 13 -61 31 -55 10 3 14 25 16 74 3 128 4 130 98 133 22 1 47 6 55 12 17 12 -253 7 -282 -5 -24 -11 -29 -33 -12 -51 20 -19 38 -19 30 0 -3 10 3 16 19 20 14 3 37 8 53 11 l27 6 -30 -32 c-38 -40 -76 -60 -115 -60 -29 0 -30 1 -30 50 0 42 -3 50 -18 50 -10 0 -32 -20 -49 -44 -18 -25 -46 -52 -63 -61 -28 -14 -31 -14 -37 1 -3 9 2 31 11 50 15 32 15 35 0 41 -11 4 -29 -9 -56 -41 -63 -74 -168 -124 -168 -80 0 9 14 35 31 59 25 35 29 47 20 63 -11 21 -78 42 -135 42 -32 0 -38 -5 -56 -41 -35 -67 -163 -113 -215 -76 -18 14 -18 15 1 52 21 43 46 60 37 26 -4 -16 -1 -21 16 -21 17 0 21 6 21 34 0 22 -6 36 -16 40 -22 9 -27 8 -52 -10z"/>
<path d="M2600 4621 c-57 -4 -75 -10 -75 -21 0 -17 -1 -17 224 -5 100 6 137 11 121 17 -32 12 -180 17 -270 9z"/>
<path d="M4573 4612 c-29 -23 -46 -68 -33 -91 5 -10 23 -24 41 -31 l31 -13 -24 -13 c-12 -7 -35 -13 -50 -14 -25 0 -28 4 -28 31 0 26 -3 30 -22 27 -14 -2 -24 -12 -28 -28 -7 -29 -50 -56 -74 -47 -22 9 -14 53 18 109 16 29 18 40 9 49 -17 17 -40 -4 -60 -54 -29 -71 -142 -128 -160 -79 -9 24 -25 33 -40 20 -19 -16 -16 -38 10 -59 30 -25 74 -23 126 6 24 14 44 24 45 23 1 -2 6 -12 12 -23 13 -24 72 -32 106 -14 12 7 50 13 83 13 45 1 68 7 92 24 40 28 53 28 53 -1 0 -33 41 -68 90 -77 43 -8 66 4 27 14 -13 3 -36 15 -51 27 -24 19 -27 27 -23 57 5 28 3 35 -13 39 -15 4 -17 9 -9 30 13 35 12 41 -16 68 -29 30 -79 33 -112 7z m82 -26 c16 -12 18 -19 10 -43 -12 -31 -42 -41 -74 -23 -26 14 -27 34 -1 60 24 24 39 25 65 6z"/>
<path d="M6742 4594 c-47 -33 -78 -134 -50 -162 18 -18 79 -14 116 8 l33 20 30 -22 c22 -17 44 -22 87 -23 38 0 65 -6 82 -17 34 -25 81 -22 121 5 25 17 45 22 70 19 27 -3 42 2 67 23 29 24 33 25 48 11 28 -28 99 -13 133 28 19 23 31 20 31 -7 0 -25 28 -57 49 -57 8 0 6 8 -5 25 -12 19 -15 37 -9 84 5 43 3 61 -6 67 -8 5 -17 0 -23 -11 -20 -35 -91 -103 -114 -110 -32 -9 -38 18 -13 61 12 19 19 40 16 45 -13 20 -34 7 -59 -35 -25 -43 -61 -76 -100 -89 -16 -7 -18 -3 -12 28 6 31 4 35 -13 35 -14 0 -25 -11 -35 -33 -24 -59 -86 -93 -124 -69 -9 6 -1 21 33 54 37 37 45 52 45 82 0 30 -4 38 -27 47 -59 22 -113 -31 -113 -111 0 -43 -4 -45 -65 -41 -41 4 -63 26 -67 70 -2 27 -7 36 -20 35 -11 -1 -18 5 -18 15 0 40 -48 54 -88 25z m368 -46 c0 -21 -67 -95 -77 -85 -10 11 8 78 27 97 23 23 50 16 50 -12z m-310 16 c0 -3 -5 -15 -11 -26 -14 -26 6 -52 21 -28 8 13 10 13 10 -2 0 -36 -87 -77 -105 -48 -6 10 18 75 36 97 11 13 49 19 49 7z"/>
<path d="M3595 4588 c-34 -18 -73 -59 -85 -89 -8 -19 -20 -29 -38 -31 -36 -4 -39 -26 -5 -34 15 -4 41 -17 56 -28 36 -26 127 -28 176 -3 24 12 38 14 45 7 20 -20 99 -11 152 18 46 26 53 27 73 14 18 -12 29 -13 62 -3 23 7 42 11 42 9 17 -34 28 -43 58 -46 34 -3 34 -2 9 10 -31 17 -36 48 -16 99 21 52 20 69 -3 69 -13 0 -23 -11 -31 -35 -13 -40 -53 -75 -85 -75 -32 0 -35 7 -17 51 12 31 13 42 3 52 -10 9 -17 7 -32 -12 -10 -13 -19 -31 -19 -40 0 -38 -91 -94 -143 -89 -28 3 -32 7 -32 33 0 42 -27 44 -46 3 -18 -42 -75 -64 -133 -51 -45 9 -57 28 -24 36 37 10 113 64 128 91 10 21 11 28 0 41 -14 17 -66 19 -95 3z m65 -26 c0 -21 -105 -91 -117 -78 -8 8 23 47 54 67 29 20 63 25 63 11z"/>
<path d="M1444 4449 c-10 -17 13 -36 27 -22 12 12 4 33 -11 33 -5 0 -12 -5 -16 -11z"/>
<path d="M1190 4201 c0 -5 24 -23 54 -39 102 -58 142 -134 134 -259 -4 -83 -36 -153 -85 -190 -28 -22 -36 -24 -43 -12 -12 19 -35 -3 -27 -25 18 -46 112 16 153 101 22 43 30 76 33 131 5 98 -12 152 -66 212 -53 59 -153 112 -153 81z"/>
<path d="M1940 4043 c0 -37 -7 -95 -16 -128 -28 -110 -29 -115 -5 -115 11 0 21 6 21 13 0 7 7 23 16 35 l16 23 16 -23 c34 -50 92 -76 167 -77 28 0 57 4 65 9 11 7 6 10 -21 10 -55 0 -129 26 -160 56 -16 15 -29 32 -29 36 0 10 82 48 123 57 15 3 28 11 27 16 -1 15 -56 6 -129 -20 -36 -13 -66 -23 -68 -22 -1 2 2 20 7 42 4 22 10 65 12 95 3 51 1 55 -19 58 -22 3 -23 0 -23 -65z"/>
<path d="M957 4020 c-32 -10 -57 -28 -57 -41 0 -13 24 -11 56 6 31 16 111 20 132 6 20 -12 -8 -36 -97 -81 -43 -21 -83 -46 -91 -55 -12 -15 -12 -19 5 -32 27 -20 176 -13 225 10 35 17 34 17 -55 11 -137 -8 -143 0 -38 55 73 39 89 51 91 73 4 37 -30 58 -93 57 -27 0 -63 -5 -78 -9z"/>
<path d="M3995 4014 c-45 -23 -94 -74 -107 -111 -8 -21 -19 -33 -30 -33 -10 0 -18 -7 -18 -15 0 -9 9 -15 25 -15 14 0 25 -4 25 -10 0 -5 13 -16 29 -24 22 -12 51 -14 134 -9 85 5 113 3 146 -11 46 -18 186 -22 211 -6 11 7 1 10 -35 10 -27 1 -68 4 -90 9 l-40 7 40 7 c108 18 116 93 11 104 -56 7 -110 -18 -126 -58 -12 -28 -15 -29 -73 -29 -33 0 -57 3 -54 7 4 3 0 17 -8 29 -14 21 -13 24 19 43 44 28 75 84 57 105 -17 20 -77 21 -116 0z m95 -28 c0 -19 -65 -75 -93 -80 -86 -18 -91 -14 -52 32 43 51 145 85 145 48z m228 -102 c55 -15 2 -54 -73 -54 -53 0 -61 21 -17 44 29 16 54 19 90 10z m-324 -20 c9 -3 16 -12 16 -20 0 -15 -33 -18 -65 -4 -20 8 -17 11 32 29 1 1 8 -2 17 -5z"/>
<path d="M2495 4007 c-16 -13 -18 -18 -8 -40 7 -15 32 -39 55 -54 24 -15 45 -28 47 -30 2 -1 -4 -9 -13 -18 -41 -42 6 -117 82 -130 56 -9 99 2 118 31 26 39 -1 67 -119 123 -56 26 -110 57 -120 69 -19 20 -18 21 29 28 27 4 121 4 209 1 152 -5 158 -4 110 10 -30 9 -113 17 -210 20 -132 4 -163 2 -180 -10z m205 -172 c57 -29 66 -40 50 -60 -16 -19 -83 -19 -119 0 -43 21 -48 64 -11 78 24 9 28 8 80 -18z"/>
<path d="M4568 3998 l-21 -21 23 -19 c12 -10 32 -18 44 -17 18 0 17 2 -7 11 -65 23 7 53 92 38 62 -11 112 -40 141 -80 11 -15 20 -31 20 -34 0 -3 -19 -6 -42 -6 -49 0 -59 -6 -75 -40 l-12 -25 0 23 c-1 13 -14 37 -30 53 -25 25 -37 29 -83 29 -35 0 -62 -6 -78 -17 -14 -10 -32 -16 -41 -15 -10 2 -19 -6 -23 -20 -8 -31 -8 -253 1 -261 3 -4 12 -2 20 4 8 8 13 35 13 80 0 86 16 163 38 182 27 23 69 29 106 13 39 -16 55 -51 33 -73 -17 -18 -85 -34 -110 -27 -15 5 -16 8 -5 22 11 14 10 15 -5 9 -10 -4 -23 -7 -28 -7 -5 0 -9 -9 -9 -20 0 -41 132 -41 175 0 19 18 25 20 25 8 0 -43 99 -74 143 -45 14 9 28 32 34 56 9 35 8 45 -18 89 -53 93 -125 132 -243 132 -44 0 -61 -5 -78 -22z m312 -176 c0 -46 -47 -74 -94 -56 -21 8 -20 20 2 49 22 31 92 36 92 7z"/>
<path d="M4224 3996 c-14 -11 -16 -17 -7 -27 9 -9 19 -9 44 0 17 6 55 11 83 12 l51 1 -35 13 c-47 18 -112 18 -136 1z"/>
<path d="M5713 3943 c-21 -3 -33 -10 -33 -20 0 -12 13 -14 73 -11 l72 3 3 -68 c2 -58 6 -68 20 -65 14 3 18 17 20 71 l3 67 72 0 c60 1 69 3 52 12 -20 12 -221 20 -282 11z"/>
<path d="M3480 3927 c0 -8 10 -22 21 -33 12 -10 35 -42 51 -71 45 -80 69 -78 83 7 13 81 15 82 116 78 49 -2 89 0 89 3 0 12 -143 29 -249 29 -86 0 -111 -3 -111 -13z m129 -39 c-1 -13 -4 -36 -8 -53 l-6 -30 -33 47 c-17 26 -32 49 -32 52 0 3 18 6 40 6 35 0 40 -3 39 -22z"/>
<path d="M5005 3925 c-76 -27 -93 -74 -50 -137 42 -62 133 -70 196 -19 19 15 29 17 54 9 63 -20 120 -28 155 -21 l35 7 -55 11 -55 11 32 17 c66 35 84 98 33 115 -48 17 -120 -10 -143 -55 l-14 -26 -14 28 c-29 59 -104 85 -174 60z m130 -45 c8 -7 15 -28 15 -46 0 -28 -6 -38 -32 -54 -34 -21 -64 -25 -94 -13 -16 6 -16 7 2 14 17 7 17 8 -4 8 -12 1 -25 9 -28 19 -3 9 -10 25 -15 35 -29 53 100 83 156 37z m215 -3 c0 -23 -45 -58 -84 -64 -32 -5 -36 -3 -36 15 0 11 12 30 26 41 30 24 94 29 94 8z"/>
<path d="M6630 3924 c-8 -4 -26 -16 -38 -28 -13 -11 -33 -21 -44 -21 -20 0 -31 -12 -42 -47 -4 -14 -16 -18 -49 -18 -50 0 -71 17 -84 70 -13 50 -37 50 -63 0 -24 -48 -81 -79 -144 -80 -37 0 -38 0 -18 18 49 42 30 92 -34 92 -45 0 -73 -15 -84 -46 -6 -15 -17 -24 -30 -24 -15 0 -20 -5 -18 -17 2 -11 26 -22 78 -35 79 -19 133 -17 182 8 36 18 38 18 35 -8 -1 -14 4 -23 15 -26 17 -3 21 3 43 67 4 9 11 6 26 -13 25 -31 84 -49 125 -37 23 7 35 4 53 -10 48 -39 232 -16 280 35 32 34 25 75 -15 98 -32 19 -146 33 -174 22z m140 -37 c66 -23 45 -73 -41 -97 -47 -14 -117 13 -126 48 -13 54 76 80 167 49z m-620 -19 c0 -20 -32 -48 -57 -48 -28 0 -40 24 -23 45 15 18 80 20 80 3z m473 -81 c17 -3 15 -5 -9 -6 -39 -1 -69 20 -60 44 6 15 8 15 26 -8 11 -14 30 -28 43 -30z"/>
<path d="M2418 3848 c-2 -60 -6 -73 -19 -72 -24 2 -85 53 -116 97 -25 36 -52 45 -60 20 -5 -13 86 -105 129 -131 21 -12 26 -22 22 -37 -10 -31 -32 -50 -62 -50 -36 0 -36 -29 0 -33 38 -5 62 11 98 64 32 48 35 59 45 157 5 52 3 57 -14 57 -18 0 -20 -8 -23 -72z"/>
<path d="M2935 3850 c-18 -29 30 -32 225 -13 50 5 59 8 40 14 -38 11 -258 11 -265 -1z"/>
<path d="M1632 3768 c5 -15 28 -18 29 -3 0 6 -7 12 -17 13 -10 3 -15 -1 -12 -10z"/>
<path d="M6947 3764 c-16 -16 -6 -34 19 -34 19 0 25 5 22 17 -3 19 -29 29 -41 17z"/>
<path d="M1105 3489 c-8 -13 -11 -11 48 -40 100 -48 157 -117 172 -206 13 -80 -36 -129 -141 -140 -64 -7 -69 -28 -6 -27 105 2 178 61 176 145 -1 102 -69 196 -182 253 -59 30 -59 30 -67 15z"/>
<path d="M1937 3483 c-4 -3 -7 -21 -7 -39 0 -26 -28 -143 -57 -236 -3 -11 1 -20 11 -24 11 -4 28 7 55 37 l38 43 31 -26 c35 -29 103 -43 162 -33 36 6 40 4 54 -24 22 -42 47 -54 74 -35 20 14 22 14 22 0 0 -9 -33 -31 -84 -56 -130 -62 -156 -112 -91 -177 31 -31 39 -34 81 -31 62 4 79 28 104 147 12 61 25 98 37 107 17 13 17 14 0 8 -16 -6 -17 -2 -12 47 10 83 7 80 66 61 l51 -18 2 -47 c2 -53 17 -74 61 -83 36 -7 85 26 85 57 0 24 -52 79 -74 79 -9 0 -16 5 -16 10 0 6 -12 10 -27 10 -38 1 -156 42 -160 56 -9 28 163 68 343 80 52 4 97 11 100 15 8 14 -163 10 -270 -6 -121 -18 -169 -32 -196 -57 -24 -23 -25 -32 -4 -52 20 -21 11 -80 -17 -116 -19 -24 -20 -25 -34 -6 -8 11 -17 36 -21 55 -9 56 -13 63 -31 59 -13 -3 -17 -12 -15 -31 3 -27 2 -27 -55 -27 -62 0 -126 24 -131 50 -3 17 59 62 91 66 12 1 25 3 30 3 4 1 7 8 7 17 0 30 -67 8 -142 -46 -81 -59 -77 -66 -39 75 10 38 16 76 14 82 -6 14 -25 17 -36 6z m617 -284 c31 -24 32 -62 3 -67 -28 -5 -47 17 -47 54 0 40 7 42 44 13z m-245 -145 c-24 -127 -46 -162 -96 -149 -37 9 -73 43 -73 70 0 27 41 66 105 98 70 36 74 35 64 -19z"/>
<path d="M9908 3471 c-41 -20 -85 -91 -97 -154 -5 -26 -11 -50 -13 -53 -3 -2 -25 -8 -49 -12 -29 -5 -44 -13 -44 -22 0 -12 12 -15 51 -13 l51 2 13 -40 c15 -46 34 -59 82 -59 50 0 56 8 66 78 8 58 -51 81 -102 41 -47 -37 -27 1 29 56 113 110 121 231 13 176z m42 -39 c0 -21 -44 -85 -84 -121 -22 -21 -26 -22 -26 -7 0 47 66 146 97 146 7 0 13 -8 13 -18z m-12 -225 c8 -39 -42 -63 -67 -33 -10 12 -8 19 9 36 24 24 53 23 58 -3z"/>
<path d="M3008 3425 c-36 -24 -78 -94 -78 -130 0 -10 -8 -24 -17 -31 -17 -13 -17 -14 2 -19 11 -4 28 -20 37 -36 28 -48 136 -83 172 -56 51 38 -26 104 -110 94 -51 -5 -55 2 -15 26 65 38 122 124 107 162 -8 23 -57 18 -98 -10z m72 -21 c0 -21 -32 -61 -72 -91 -44 -32 -51 -29 -33 15 26 63 105 120 105 76z m8 -200 c47 -33 11 -46 -53 -20 -19 8 -35 20 -35 25 0 17 63 13 88 -5z"/>
<path d="M4077 3380 c-26 -31 -35 -60 -39 -135 -3 -32 -9 -43 -37 -62 -19 -13 -48 -23 -65 -23 -30 0 -31 2 -31 41 0 51 -34 84 -74 74 -101 -25 -91 -159 11 -140 18 4 46 2 61 -4 21 -8 38 -7 70 4 29 10 51 12 72 5 17 -5 60 -14 97 -20 76 -13 121 -1 126 36 4 30 -29 54 -95 66 l-58 12 29 58 c24 48 28 64 20 86 -14 40 -54 41 -87 2z m49 -63 c-9 -25 -26 -53 -36 -62 -19 -17 -20 -17 -20 1 0 57 43 135 63 115 7 -7 4 -26 -7 -54z m-266 -97 c-6 -10 -7 -25 -4 -33 3 -9 -2 -18 -14 -21 -43 -14 -68 20 -39 56 25 32 74 30 57 -2z m332 -30 c43 -12 57 -28 37 -41 -29 -19 -139 14 -139 42 0 12 57 11 102 -1z m-116 -37 c-7 -7 -26 7 -26 19 0 6 6 6 15 -2 9 -7 13 -15 11 -17z"/>
<path d="M4950 3384 c-35 -30 -60 -73 -60 -104 0 -14 -10 -24 -30 -32 -37 -12 -34 -34 4 -30 18 2 28 -3 33 -15 18 -53 101 -95 143 -73 50 27 4 94 -71 106 l-39 7 52 36 c52 37 91 92 81 117 -9 25 -78 17 -113 -12z m80 -17 c0 -21 -79 -87 -103 -87 -13 0 9 45 35 71 30 30 68 39 68 16z m-30 -172 c32 -16 41 -45 14 -45 -23 0 -55 20 -49 30 3 5 -3 13 -12 19 -17 10 -17 10 0 11 10 0 31 -7 47 -15z"/>
<path d="M960 3355 c0 -12 15 -15 77 -15 85 0 90 -14 10 -29 -27 -5 -51 -11 -54 -15 -12 -12 18 -33 69 -45 29 -8 64 -20 78 -27 23 -12 17 -13 -57 -14 -79 0 -81 1 -76 23 l6 22 -23 -22 c-14 -13 -20 -28 -17 -37 9 -23 235 -24 243 -1 9 23 -11 41 -77 65 l-61 23 31 13 c40 17 50 42 26 60 -28 21 -175 19 -175 -1z"/>
<path d="M13036 3309 c-3 -17 -6 -56 -6 -85 0 -47 3 -56 26 -71 26 -16 28 -16 75 9 l49 26 0 -24 c0 -26 33 -40 73 -30 24 6 107 66 107 77 0 4 -26 -6 -57 -22 -88 -44 -103 -38 -78 33 8 24 15 49 15 56 0 24 -29 11 -49 -23 -21 -36 -74 -75 -103 -75 -21 0 -26 23 -16 75 14 80 14 80 -8 83 -17 2 -23 -4 -28 -29z"/>
<path d="M4350 3278 c0 -30 -4 -58 -9 -63 -5 -6 -11 -28 -13 -50 -2 -34 0 -40 17 -40 15 0 21 8 23 32 2 23 10 34 25 39 12 4 34 15 49 25 14 11 28 19 31 19 2 0 2 -20 -1 -45 -4 -41 -2 -45 22 -54 28 -11 51 -6 79 17 13 12 20 13 29 4 17 -17 83 -15 118 3 51 26 52 94 2 113 -49 19 -78 22 -115 11 -40 -11 -56 -41 -36 -66 11 -13 10 -18 -10 -34 -40 -33 -55 -25 -47 24 3 23 9 52 12 64 10 38 -22 41 -59 6 -28 -27 -68 -53 -79 -53 -3 0 -4 21 -4 47 1 37 -3 48 -16 51 -15 3 -18 -4 -18 -50z m367 -30 c30 -25 -4 -68 -53 -68 -37 0 -58 19 -22 21 17 1 18 3 6 6 -10 2 -18 13 -18 24 0 11 -7 19 -17 19 -16 0 -16 2 -3 11 17 11 88 3 107 -13z"/>
<path d="M5413 3315 c-29 -20 -45 -78 -32 -112 5 -14 8 -28 6 -30 -3 -2 -48 -2 -102 -1 l-97 3 46 33 c80 58 92 112 24 112 -62 0 -148 -75 -148 -129 0 -24 6 -30 39 -39 50 -16 143 -15 205 1 35 9 63 10 95 3 38 -7 54 -6 91 11 44 19 46 19 64 1 24 -22 67 -23 113 -2 25 13 37 14 46 5 17 -17 77 -13 116 8 33 17 35 17 52 0 20 -20 76 -25 113 -10 13 5 26 0 42 -16 28 -28 89 -31 134 -8 35 18 40 29 8 19 -37 -12 -102 -5 -115 12 -9 13 -8 26 8 65 24 62 24 69 0 69 -24 0 -39 -19 -47 -59 -8 -39 -57 -67 -98 -57 -30 8 -33 23 -9 65 14 24 15 33 6 42 -15 15 -48 -11 -57 -45 -6 -24 -72 -66 -105 -66 -25 0 -27 17 -6 67 19 46 19 53 -4 53 -13 0 -27 -16 -42 -47 -28 -55 -76 -88 -114 -79 -29 7 -33 36 -10 76 21 36 18 50 -10 50 -21 0 -26 -7 -36 -45 -14 -54 -47 -78 -107 -78 -52 0 -77 20 -68 56 7 28 31 57 48 57 5 0 12 -9 15 -20 7 -28 33 -25 33 3 0 46 -53 63 -97 32z m-145 -37 c-5 -14 -94 -78 -109 -78 -29 0 8 52 56 78 27 15 58 15 53 0z"/>
<path d="M6968 3311 c-63 -31 -100 -138 -60 -174 22 -20 88 -30 127 -19 17 5 43 5 60 -1 22 -6 42 -4 75 8 49 18 51 18 95 10 20 -4 43 1 69 14 40 21 40 21 61 1 27 -26 68 -25 123 1 l43 21 15 -20 c29 -41 151 -55 253 -28 29 8 54 16 56 18 2 2 -43 1 -99 0 -160 -6 -204 14 -177 80 7 18 15 44 18 56 9 37 -28 24 -49 -16 -22 -46 -44 -68 -85 -87 -39 -19 -83 -13 -83 11 0 8 9 32 20 54 25 49 26 73 3 68 -10 -2 -27 -22 -38 -44 -27 -56 -44 -75 -84 -91 -47 -20 -58 -5 -31 46 22 45 20 61 -10 61 -20 0 -42 -34 -53 -81 -7 -29 -43 -49 -87 -49 -23 0 -30 5 -30 19 0 34 -22 36 -46 5 -20 -24 -31 -28 -65 -28 -22 1 -47 8 -56 16 -13 13 -13 20 2 54 21 51 43 74 72 74 19 0 23 -5 23 -29 0 -33 16 -49 33 -32 7 7 8 22 1 48 -11 46 -47 59 -96 34z"/>
<path d="M11306 3305 c-31 -28 -56 -82 -56 -119 0 -20 -7 -27 -30 -33 -43 -11 -32 -28 20 -30 25 -1 65 -5 90 -8 38 -6 51 -2 82 19 l37 25 3 -37 c4 -46 28 -50 40 -6 7 28 10 30 57 31 34 0 65 9 97 27 25 14 48 26 49 26 2 0 6 -11 9 -25 9 -35 48 -43 95 -19 20 10 39 20 43 22 3 2 9 -5 12 -16 7 -22 46 -42 80 -42 13 0 50 14 81 30 31 17 58 30 59 30 0 0 1 -19 1 -42 0 -37 4 -44 26 -52 19 -6 35 -4 60 8 30 15 36 15 67 0 38 -18 88 -13 141 15 33 18 35 18 75 -5 43 -25 118 -32 146 -14 11 7 4 10 -26 10 -43 0 -108 22 -119 40 -3 5 5 25 19 43 40 52 52 95 33 115 -13 13 -21 13 -42 4 -28 -13 -64 -81 -65 -123 0 -32 -52 -59 -112 -59 -43 0 -43 0 -23 68 6 18 3 22 -13 22 -12 0 -23 -9 -27 -20 -14 -45 -115 -96 -115 -57 1 19 36 94 49 101 18 11 13 36 -7 36 -11 0 -27 -9 -37 -20 -25 -28 -107 -79 -144 -90 -37 -10 -68 -3 -76 18 -3 8 6 39 20 67 14 29 25 57 25 64 0 26 -36 4 -58 -37 -25 -45 -74 -88 -107 -94 -32 -5 -32 45 0 93 14 22 23 44 20 49 -12 20 -34 9 -56 -27 -27 -47 -52 -69 -104 -93 -42 -20 -100 -26 -109 -11 -3 5 6 30 19 57 24 47 26 74 6 74 -5 0 -26 -27 -47 -61 -45 -76 -102 -119 -156 -119 -21 0 -38 4 -38 8 0 4 16 23 35 42 37 36 62 97 52 124 -9 24 -51 19 -81 -9z m54 -25 c0 -20 -55 -90 -71 -90 -12 0 17 69 38 92 21 23 33 23 33 -2z m1105 -39 c-20 -39 -40 -52 -30 -20 9 29 24 49 36 49 5 0 3 -13 -6 -29z"/>
<path d="M8490 3287 c0 -20 -8 -41 -19 -51 -16 -15 -17 -23 -8 -57 12 -49 40 -51 45 -3 3 33 26 46 121 74 l32 9 -7 -35 c-5 -26 -2 -40 11 -54 30 -34 115 -47 115 -19 0 5 -10 9 -23 9 -57 0 -84 52 -51 99 22 30 5 50 -28 33 -13 -6 -48 -18 -78 -27 -30 -9 -61 -19 -69 -22 -10 -4 -12 3 -6 36 6 37 5 41 -14 41 -17 0 -21 -6 -21 -33z"/>
<path d="M6686 3300 c-33 -10 -86 -57 -86 -77 0 -7 -7 -13 -15 -13 -29 0 -14 -25 23 -38 77 -27 131 -34 199 -27 l68 8 -99 13 c-54 7 -100 15 -103 18 -3 3 12 12 33 21 75 31 98 76 48 95 -29 11 -29 11 -68 0z m58 -29 c8 -12 -14 -28 -63 -46 -39 -14 -42 -13 -39 3 2 9 19 25 38 34 39 20 56 22 64 9z"/>
<path d="M10669 3283 c-16 -42 -75 -109 -108 -123 -49 -20 -63 -8 -59 48 2 37 0 47 -12 47 -8 0 -21 10 -28 23 -28 50 -89 13 -114 -69 -22 -74 29 -116 89 -74 19 13 24 13 50 -1 42 -25 91 -12 138 35 l39 39 15 -32 c22 -43 66 -47 110 -10 30 25 33 25 50 10 19 -18 76 -22 86 -6 10 17 33 11 40 -10 4 -12 31 -37 61 -57 l54 -36 -62 -41 c-34 -23 -64 -47 -66 -53 -6 -22 25 -14 70 16 24 15 55 36 71 45 15 9 27 23 27 31 0 8 -27 33 -60 55 -68 46 -80 73 -56 121 28 57 -9 70 -42 15 -39 -66 -112 -89 -98 -30 20 77 19 84 -2 84 -15 0 -24 -10 -32 -36 -13 -39 -72 -104 -96 -104 -21 0 -32 37 -23 84 4 23 5 44 3 48 -11 17 -35 6 -45 -19z m-242 -48 c-3 -19 -1 -37 4 -41 13 -7 -19 -44 -38 -44 -20 0 -16 50 7 88 25 41 34 41 27 -3z"/>
<path d="M8890 3289 c-32 -13 -70 -49 -70 -66 0 -7 -4 -13 -10 -13 -5 0 -10 -6 -10 -13 0 -15 74 -37 124 -37 45 0 94 18 135 48 30 22 34 23 27 6 -30 -72 -5 -73 66 -1 47 47 52 50 56 30 2 -12 -1 -31 -7 -41 -8 -15 -7 -23 4 -32 11 -9 18 -6 37 16 64 76 78 81 78 27 0 -55 10 -83 29 -83 14 0 15 10 11 71 -6 88 -20 102 -75 76 -31 -15 -36 -15 -41 -2 -8 19 -48 19 -78 0 -22 -15 -24 -14 -29 5 -7 29 -21 25 -51 -15 -32 -42 -93 -75 -137 -75 l-32 0 33 23 c49 33 60 55 36 73 -23 16 -60 17 -96 3z m80 -29 c0 -6 -19 -20 -42 -30 -73 -33 -104 -22 -52 19 28 22 94 29 94 11z"/>
<path d="M10052 3258 c-21 -48 -20 -57 4 -37 15 12 16 11 9 -11 -4 -14 -15 -41 -25 -60 -27 -54 -50 -139 -50 -188 0 -36 3 -43 17 -40 12 2 25 29 44 88 l26 85 39 6 c55 8 102 35 124 72 25 40 25 79 2 100 -24 22 -49 21 -94 -2 -37 -18 -37 -18 -40 3 -6 39 -35 30 -56 -16z m172 -13 c9 -23 -9 -59 -44 -88 -35 -30 -83 -37 -74 -12 4 8 1 15 -5 15 -18 0 -13 16 16 50 39 47 95 65 107 35z"/>
<path d="M3467 3263 c-4 -3 -7 -13 -7 -22 0 -8 -10 -34 -21 -58 -38 -79 -13 -224 40 -231 l24 -4 -7 84 -7 83 53 0 c63 0 144 29 159 56 26 50 -39 95 -125 86 -28 -3 -59 -8 -68 -12 -13 -5 -18 -2 -18 9 0 16 -12 21 -23 9z m198 -47 c19 -14 19 -15 1 -35 -11 -12 -35 -25 -55 -31 -45 -12 -74 -12 -42 1 41 16 17 20 -32 5 l-47 -14 0 33 c0 27 5 35 28 43 41 15 125 14 147 -2z m-196 -156 c0 -40 -3 -49 -9 -35 -5 11 -9 45 -9 75 0 40 3 49 9 35 5 -11 9 -45 9 -75z"/>
<path d="M6365 3179 c-4 -6 2 -21 14 -33 27 -29 27 -81 1 -124 -19 -31 -19 -33 -3 -30 9 2 28 19 41 38 19 28 23 44 19 80 -6 56 -53 101 -72 69z"/>
<path d="M1495 3120 c-4 -7 -3 -16 3 -22 14 -14 45 -2 40 15 -6 16 -34 21 -43 7z"/>
<path d="M1932 2727 c-30 -32 -62 -117 -62 -165 0 -73 48 -83 104 -22 40 45 46 48 46 22 0 -31 29 -61 65 -68 43 -8 95 1 121 21 17 14 13 15 -47 9 -60 -5 -69 -4 -89 16 -18 18 -21 31 -19 78 2 32 -1 64 -6 72 -6 8 -15 24 -20 35 -16 30 -66 31 -93 2z m76 -39 c5 -45 -65 -158 -98 -158 -23 0 2 113 38 167 21 33 56 27 60 -9z"/>
<path d="M3703 2710 c-19 -8 -83 -116 -83 -141 0 -6 11 -21 25 -34 19 -20 34 -25 75 -25 111 0 190 85 149 162 -21 39 -111 60 -166 38z m107 -30 c92 -49 -23 -173 -124 -134 -18 7 -22 44 -5 44 7 0 9 10 5 26 -14 55 66 95 124 64z"/>
<path d="M3240 2645 c0 -7 10 -15 23 -18 33 -9 276 -11 284 -3 18 18 -26 26 -160 30 -115 3 -147 1 -147 -9z"/>
<path d="M2328 2604 c-9 -9 3 -117 15 -131 5 -7 20 -13 33 -13 14 0 24 -6 24 -15 0 -8 9 -19 21 -25 18 -10 19 -13 6 -28 -23 -26 -30 -61 -17 -77 15 -17 20 -18 40 -5 12 8 12 12 2 18 -20 14 -3 40 34 52 42 14 42 40 1 51 -16 4 -34 13 -42 19 -13 11 -10 45 7 67 5 7 7 17 3 23 -11 17 -32 11 -49 -15 -25 -38 -35 -30 -38 27 -2 38 -7 54 -18 56 -9 1 -19 0 -22 -4z"/>
<path d="M3400 2539 c-30 -5 -81 -6 -114 -3 -47 5 -58 4 -54 -7 12 -37 158 -34 278 5 l45 14 -50 0 c-27 0 -75 -4 -105 -9z"/>
<path d="M2795 2530 c-3 -5 -13 -32 -21 -59 -9 -32 -26 -60 -49 -80 -40 -35 -48 -37 -65 -16 -7 8 -21 15 -32 15 -27 0 -20 -28 14 -53 23 -17 31 -18 56 -8 16 7 42 26 58 42 18 19 34 27 46 24 9 -4 30 0 45 8 25 14 28 13 38 -7 6 -11 21 -23 35 -24 21 -3 22 -2 11 12 -9 10 -12 38 -9 83 3 61 1 68 -15 68 -13 0 -23 -13 -33 -40 -20 -58 -73 -93 -60 -39 18 72 19 84 3 84 -9 0 -19 -4 -22 -10z"/>
<path d="M2567 2424 c-9 -10 2 -24 19 -24 8 0 14 7 14 15 0 15 -21 21 -33 9z"/>
<path d="M3020 2395 c0 -8 7 -15 15 -15 8 0 15 7 15 15 0 8 -7 15 -15 15 -8 0 -15 -7 -15 -15z"/>
<path d="M1310 2224 c0 -4 16 -23 36 -42 60 -58 88 -132 88 -232 1 -74 -3 -93 -27 -143 -32 -65 -73 -100 -88 -76 -7 11 -9 9 -9 -8 0 -33 17 -37 55 -13 43 26 93 124 102 197 12 104 -35 244 -100 299 -27 23 -57 32 -57 18z"/>
<path d="M13441 2202 c-37 -18 -59 -52 -25 -37 45 19 122 35 169 35 27 0 57 5 65 10 10 7 -15 10 -80 10 -71 0 -104 -4 -129 -18z"/>
<path d="M1996 2158 c-20 -28 -2 -53 18 -25 7 9 16 17 20 17 11 0 6 -66 -6 -78 -9 -9 -3 -22 31 -56 23 -24 48 -61 56 -82 13 -39 13 -39 -13 -42 -143 -14 -222 -43 -222 -82 0 -67 217 -42 259 31 19 34 32 36 49 9 13 -22 52 -26 83 -9 15 7 24 7 35 -1 22 -19 58 -4 98 40 28 31 36 36 36 21 0 -58 41 -68 87 -21 30 30 30 30 48 10 24 -27 74 -26 117 3 29 21 36 22 47 9 10 -10 26 -13 53 -9 23 3 50 0 65 -8 28 -15 64 -6 95 22 10 9 18 11 18 6 0 -11 51 -33 76 -33 8 0 26 14 41 30 22 26 28 28 35 15 11 -19 58 -19 84 0 26 20 31 19 38 -9 7 -30 42 -43 140 -51 56 -4 86 -12 106 -27 37 -27 104 -21 151 13 44 31 98 33 120 5 14 -17 28 -21 81 -21 51 1 72 6 110 29 64 37 70 50 13 25 -57 -25 -161 -31 -174 -10 -6 9 -4 30 5 54 8 21 11 43 8 48 -12 20 -35 7 -51 -28 -22 -45 -65 -60 -61 -21 5 39 -34 30 -44 -10 -14 -52 -87 -88 -128 -62 -12 7 -12 12 4 29 10 11 16 27 13 36 -10 23 -45 18 -63 -10 -9 -14 -25 -25 -35 -25 -21 0 -25 15 -8 26 20 12 51 95 45 120 -8 31 -48 41 -80 21 -32 -21 -59 -82 -54 -123 5 -40 -15 -46 -52 -16 -21 17 -21 19 -6 56 20 49 20 56 -2 56 -10 0 -28 -13 -40 -30 -22 -30 -81 -67 -83 -53 0 5 0 27 1 51 2 48 -21 59 -41 20 -48 -91 -116 -129 -113 -63 1 17 5 40 9 53 6 18 4 22 -13 22 -14 0 -27 -14 -43 -47 -23 -46 -70 -85 -85 -71 -4 4 -1 28 6 53 9 31 10 49 3 56 -13 13 -43 -15 -43 -40 0 -25 -45 -65 -66 -57 -13 5 -15 14 -10 47 4 22 4 44 1 49 -10 17 -34 -1 -40 -30 -8 -37 -70 -92 -98 -88 -19 3 -22 11 -25 51 -2 38 -7 47 -21 47 -11 0 -24 -12 -31 -29 -6 -16 -25 -41 -41 -57 l-29 -28 0 47 c0 40 -3 47 -20 47 -11 0 -20 -4 -20 -9 0 -13 -85 -101 -97 -101 -7 0 -9 14 -6 39 4 31 1 43 -16 60 -32 32 -83 28 -115 -10 -14 -17 -26 -40 -26 -51 0 -31 -23 -16 -33 22 -9 37 -63 120 -77 120 -5 0 -6 22 -3 50 6 54 -6 80 -38 80 -10 0 -25 -10 -33 -22z m1440 -158 c-6 -32 -35 -79 -48 -80 -14 0 -8 65 8 88 24 34 48 29 40 -8z m-1130 -51 c3 -6 2 -14 -3 -18 -5 -3 -12 -14 -16 -23 -4 -13 -17 -18 -42 -18 -40 0 -40 1 -20 40 12 23 22 30 45 30 16 0 32 -5 36 -11z m-188 -91 c-10 -35 -165 -80 -198 -59 -13 9 -13 12 0 25 35 34 207 63 198 34z m125 5 c-7 -2 -19 -2 -25 0 -7 3 -2 5 12 5 14 0 19 -2 13 -5z"/>
<path d="M7612 2147 c-27 -15 -63 -67 -84 -122 -19 -49 -46 -58 -150 -50 -62 4 -78 3 -78 -8 0 -8 -7 -29 -16 -46 -23 -46 -9 -90 37 -115 62 -33 113 -2 111 67 0 16 -6 35 -13 43 -15 18 -14 18 42 31 l47 10 6 -59 c7 -61 8 -62 72 -82 50 -16 76 69 30 99 -15 10 -33 14 -50 9 -22 -5 -26 -3 -26 15 0 22 7 30 60 64 65 43 105 135 64 151 -21 8 -25 7 -52 -7z m38 -39 c0 -30 -72 -109 -86 -95 -7 6 23 65 44 90 18 20 42 23 42 5z m-285 -174 c27 -11 46 -59 35 -88 -11 -30 -35 -33 -68 -10 -25 17 -29 53 -10 84 14 22 18 23 43 14z m239 -59 c3 -9 -1 -18 -10 -22 -19 -7 -39 11 -30 26 10 16 33 13 40 -4z"/>
<path d="M1161 2072 c-5 -10 -24 -54 -41 -97 -40 -101 -33 -109 60 -66 39 18 73 31 76 29 2 -3 -3 -37 -13 -76 -17 -73 -13 -98 11 -71 19 21 68 231 56 243 -13 13 -40 -12 -40 -38 0 -18 -11 -26 -65 -43 -36 -12 -65 -18 -65 -15 0 4 14 34 30 67 16 33 30 66 30 73 0 19 -28 14 -39 -6z"/>
<path d="M13099 2010 c-21 -22 -39 -47 -39 -55 0 -24 -31 -47 -55 -41 -30 8 -51 -16 -31 -34 12 -9 23 -9 49 -1 27 9 40 8 63 -4 38 -20 87 -18 154 4 53 19 54 19 78 0 14 -11 40 -19 61 -19 38 0 114 30 143 57 17 15 18 14 18 -13 0 -62 41 -100 88 -83 22 8 32 49 12 49 -5 0 -10 -5 -10 -11 0 -6 -10 -9 -22 -7 -20 3 -23 9 -23 53 0 28 4 62 8 78 6 21 4 29 -10 34 -10 4 -19 1 -21 -6 -10 -30 -60 -76 -107 -97 -96 -45 -142 -23 -86 41 36 41 40 65 11 65 -13 0 -32 -17 -52 -45 -34 -49 -82 -73 -157 -81 -75 -8 -81 7 -27 59 35 33 47 51 44 69 -5 40 -44 36 -89 -12z m55 -13 c-6 -17 -54 -52 -54 -40 0 9 52 64 57 59 2 -2 1 -10 -3 -19z"/>
<path d="M4434 2026 c-3 -8 7 -33 22 -55 25 -38 67 -61 112 -61 6 0 12 -12 12 -28 0 -24 -7 -30 -60 -50 -68 -27 -120 -70 -120 -101 0 -35 21 -68 56 -87 62 -34 108 12 141 138 16 61 20 68 55 84 21 9 38 21 38 26 0 5 -13 2 -30 -7 -16 -8 -31 -15 -35 -15 -11 0 -4 59 9 67 7 4 19 19 26 32 10 19 9 26 -4 39 -22 22 -48 6 -61 -36 -16 -56 -80 -40 -115 28 -21 41 -37 50 -46 26z m131 -233 c-19 -102 -57 -147 -100 -119 -56 37 -38 88 46 130 29 14 55 26 57 26 2 0 1 -17 -3 -37z"/>
<path d="M6679 2003 c0 -21 -8 -63 -18 -93 l-18 -55 -58 -3 c-89 -5 -95 2 -47 49 39 40 60 87 47 109 -3 5 -19 10 -35 10 -36 0 -76 -46 -92 -106 -13 -47 -40 -64 -100 -64 -39 0 -44 20 -19 76 26 57 26 64 3 64 -11 0 -26 -16 -39 -43 -23 -47 -69 -77 -117 -77 -33 0 -35 28 -5 77 22 34 20 67 -3 58 -7 -3 -24 -26 -37 -51 -28 -51 -90 -94 -139 -94 l-30 0 21 38 c18 34 19 43 8 70 -32 76 -122 62 -162 -27 -16 -35 -33 -54 -56 -65 -64 -31 -78 -12 -48 60 27 64 -2 74 -40 14 -26 -41 -97 -100 -122 -100 -18 0 -17 45 3 103 27 80 -1 106 -37 35 -37 -76 -109 -138 -158 -138 -13 0 -27 12 -36 30 -17 33 -45 40 -45 12 0 -26 28 -62 56 -73 32 -12 87 11 132 53 l32 32 0 -37 c0 -26 6 -39 19 -47 29 -15 34 -13 90 24 34 23 51 30 51 21 0 -34 63 -44 111 -19 29 14 32 14 44 -2 16 -23 76 -22 110 0 21 14 25 14 25 2 0 -28 40 -29 92 -3 49 25 50 25 69 6 24 -24 53 -24 106 0 l42 19 16 -25 c16 -23 20 -24 78 -19 34 3 76 5 92 5 125 -6 172 -3 208 15 28 14 35 21 25 27 -7 5 -11 9 -8 9 3 0 30 2 61 4 30 2 71 11 91 19 36 15 36 15 42 -9 4 -14 18 -29 34 -35 26 -11 100 -7 134 6 13 5 22 -2 35 -29 26 -55 47 -47 61 24 16 74 10 86 -29 63 -30 -18 -30 -18 -49 7 -26 33 -21 44 21 47 146 11 181 16 168 24 -19 12 -246 12 -254 0 -3 -5 8 -31 25 -57 22 -36 27 -50 17 -56 -14 -9 -89 -11 -111 -2 -20 8 -20 41 -1 74 19 34 19 50 -2 50 -10 0 -26 -14 -35 -30 -22 -39 -72 -60 -142 -60 l-54 0 9 38 c14 61 11 82 -11 82 -16 0 -20 -7 -21 -37z m-715 -29 c24 -23 19 -52 -13 -85 -30 -30 -76 -39 -84 -16 -2 6 4 28 13 47 10 19 21 43 24 53 7 21 39 22 60 1z m596 11 c0 -17 -33 -66 -50 -75 -23 -12 -25 -8 -9 23 21 40 59 73 59 52z"/>
<path d="M8947 2029 c-24 -14 -49 -66 -49 -105 0 -29 -4 -33 -34 -39 -46 -8 -55 0 -52 42 4 44 -17 55 -33 19 -12 -25 -63 -56 -93 -56 -29 0 -29 29 -1 72 21 32 24 42 14 49 -18 11 -48 -16 -66 -59 -15 -36 -61 -69 -110 -78 -42 -8 -56 1 -41 26 17 26 -3 50 -25 31 -22 -18 -26 -47 -10 -70 19 -28 68 -27 128 3 41 21 50 23 62 10 17 -16 60 -18 98 -4 20 8 32 6 51 -6 18 -13 36 -15 72 -9 56 8 71 8 143 -1 55 -6 164 10 174 26 3 4 -12 4 -33 -1 -34 -8 -123 -4 -165 8 -17 5 -17 7 7 32 61 64 33 151 -37 110z m43 -38 c0 -20 -36 -71 -51 -71 -15 0 -10 23 11 58 22 36 40 42 40 13z"/>
<path d="M8202 1998 c-52 -57 -32 -118 40 -118 37 0 38 -1 38 -34 0 -28 -5 -35 -25 -40 -13 -3 -43 -23 -65 -45 -44 -42 -53 -86 -24 -115 20 -20 22 -20 60 3 46 28 88 119 86 186 -1 34 4 57 12 65 11 8 12 19 4 48 -18 69 -83 95 -126 50z m96 -42 c2 -9 -3 -16 -12 -16 -9 0 -16 -6 -16 -14 0 -19 -28 -28 -51 -16 -26 14 -24 36 6 66 24 24 28 25 48 11 12 -8 23 -22 25 -31z m-29 -197 c-15 -44 -56 -99 -75 -99 -19 0 -18 49 2 79 16 22 75 64 81 57 2 -1 -2 -18 -8 -37z"/>
<path d="M9891 1985 c-23 -31 -35 -77 -26 -105 10 -33 74 -46 131 -27 43 14 50 14 71 0 35 -23 106 -12 158 25 l44 31 15 -23 c8 -13 24 -26 35 -29 21 -5 29 7 11 18 -5 3 -16 27 -23 52 -16 54 -33 65 -46 31 -18 -47 -82 -88 -137 -88 -35 0 -40 24 -14 65 16 26 19 40 12 47 -18 18 -43 0 -59 -41 -12 -31 -24 -43 -56 -56 -44 -18 -102 -13 -109 8 -8 20 12 78 28 84 9 3 27 -6 45 -23 22 -21 32 -25 41 -16 9 9 5 19 -17 42 -36 38 -76 40 -104 5z"/>
<path d="M12032 1994 c-30 -21 -54 -70 -47 -94 4 -14 19 -22 46 -26 64 -11 52 -36 -40 -84 -67 -36 -93 -65 -93 -105 0 -36 20 -55 56 -55 41 0 63 24 109 116 30 59 42 73 77 89 39 18 43 18 51 2 22 -39 134 -41 206 -3 19 9 36 10 69 3 29 -7 57 -7 86 0 l43 11 -35 1 c-19 1 -52 6 -72 11 l-37 11 15 34 c18 45 18 58 -4 85 -14 18 -25 21 -45 16 -35 -8 -56 -72 -38 -113 10 -21 9 -28 -1 -34 -20 -13 -70 -21 -109 -17 -33 3 -34 5 -32 41 2 31 -1 37 -17 37 -11 0 -20 -4 -20 -10 0 -10 -69 -60 -83 -60 -4 0 0 14 9 31 20 39 6 61 -26 41 -22 -13 -80 -17 -80 -4 0 4 7 18 16 30 17 25 42 29 50 7 8 -19 23 -19 31 0 7 19 -24 55 -46 55 -9 0 -27 -7 -39 -16z m408 -48 c0 -33 -10 -57 -21 -50 -10 6 -12 57 -2 67 13 14 23 6 23 -17z m-428 -229 c-22 -40 -35 -52 -53 -52 -28 0 -37 28 -17 52 24 29 93 74 96 63 2 -5 -10 -34 -26 -63z"/>
<path d="M4862 1985 c-24 -7 -45 -9 -48 -4 -10 17 -24 9 -35 -18 -6 -16 -24 -57 -42 -92 -20 -42 -31 -79 -31 -110 -1 -74 22 -58 54 39 44 129 56 145 128 161 27 6 38 3 53 -12 10 -10 19 -25 19 -33 0 -24 -34 -55 -74 -69 -43 -15 -60 -37 -27 -37 62 0 131 56 131 107 0 31 -28 73 -49 73 -5 0 -15 2 -23 4 -7 3 -32 -1 -56 -9z"/>
<path d="M9681 1981 c-38 -20 -49 -40 -50 -86 -1 -40 15 -55 57 -55 64 0 122 46 122 96 0 60 -62 81 -129 45z m97 -42 c2 -15 -5 -32 -16 -42 -24 -22 -92 -35 -92 -18 0 6 10 11 23 11 20 1 20 2 5 11 -38 22 -3 72 46 67 25 -2 32 -8 34 -29z"/>
<path d="M11049 1953 c-38 -55 -88 -103 -107 -103 -10 0 -11 13 -6 60 8 74 0 76 -67 16 -47 -43 -85 -61 -93 -47 -3 4 0 26 6 50 8 31 8 45 -1 54 -20 20 -32 -7 -34 -74 -2 -59 0 -64 20 -67 24 -4 77 21 110 50 l21 20 -5 -40 c-4 -33 -2 -42 15 -51 34 -18 79 8 133 75 27 35 29 35 29 12 0 -35 -26 -118 -60 -190 -34 -71 -39 -111 -14 -106 9 2 31 41 53 93 57 135 61 143 88 150 37 9 100 52 119 81 15 22 15 27 2 40 -13 14 -19 14 -49 1 -19 -8 -47 -29 -64 -47 l-30 -32 -5 48 c-3 26 -10 49 -17 51 -6 2 -26 -18 -44 -44z m173 -15 c-17 -21 -72 -50 -72 -39 0 6 17 22 37 35 37 26 55 27 35 4z"/>
<path d="M11580 1983 c0 -9 12 -29 26 -44 l27 -28 -41 -46 c-58 -66 -43 -92 33 -61 44 19 45 30 3 21 l-31 -7 24 30 c29 37 34 38 83 13 35 -18 66 -19 66 -2 0 4 -15 13 -34 19 -19 7 -40 20 -47 28 -11 14 -10 19 10 35 14 11 21 25 17 34 -8 22 -22 18 -45 -11 l-21 -26 -17 31 c-19 33 -53 42 -53 14z"/>
<path d="M12537 1993 c-12 -12 -7 -89 7 -108 15 -20 62 -23 95 -5 11 6 32 8 45 4 13 -3 33 -1 44 5 18 10 47 4 80 -15 4 -2 -39 -117 -49 -129 -4 -6 -4 -17 1 -25 14 -22 35 3 60 71 12 33 30 68 41 77 31 26 23 41 -23 44 -42 3 -43 4 -40 36 2 26 -2 32 -18 32 -12 0 -26 -12 -35 -30 -22 -42 -45 -39 -45 5 0 28 -4 35 -20 35 -17 0 -20 -7 -20 -40 0 -27 -4 -40 -14 -40 -7 0 -28 -3 -45 -6 -28 -6 -31 -4 -31 19 0 14 5 27 11 29 18 6 0 48 -20 48 -10 0 -21 -3 -24 -7z"/>
<path d="M11825 1958 c-33 -19 -44 -41 -45 -85 0 -49 17 -63 78 -63 46 0 87 28 96 65 8 33 -7 61 -44 80 -34 18 -58 19 -85 3z m83 -34 c46 -32 17 -81 -43 -70 -47 9 -54 25 -21 49 21 15 24 22 14 28 -9 6 -8 9 7 9 11 0 31 -7 43 -16z"/>
<path d="M11362 1946 c-24 -6 -47 -18 -52 -26 -18 -28 -11 -70 16 -95 75 -70 214 -15 191 76 -12 46 -80 66 -155 45z m106 -32 c25 -17 29 -56 7 -74 -25 -21 -125 -12 -125 11 0 5 12 9 28 10 l27 1 -28 11 c-32 13 -31 27 4 44 32 17 60 16 87 -3z"/>
<path d="M1567 1853 c-13 -12 -7 -23 13 -23 11 0 20 7 20 15 0 15 -21 21 -33 8z"/>
<path d="M10489 1823 c-6 -16 -26 -52 -46 -81 -41 -58 -40 -73 2 -41 40 32 85 98 85 126 0 32 -28 30 -41 -4z"/>
<path d="M5034 1819 c-8 -14 18 -31 30 -19 9 9 0 30 -14 30 -5 0 -12 -5 -16 -11z"/>
<path d="M2187 1472 c-25 -5 -48 -55 -54 -118 -3 -30 -9 -57 -14 -59 -4 -3 -19 -1 -33 5 -35 13 -35 64 0 115 32 48 19 67 -24 36 -38 -26 -74 -27 -97 -1 -36 40 -95 13 -95 -43 0 -28 31 -53 56 -43 19 7 18 36 -1 36 -8 0 -15 7 -15 15 0 20 20 19 35 -2 8 -11 26 -17 50 -17 35 0 37 -1 32 -30 -7 -49 10 -84 49 -96 18 -6 38 -8 44 -5 6 4 27 -1 46 -10 49 -23 80 -13 137 46 l47 49 0 -55 c0 -37 -14 -99 -45 -196 -44 -137 -49 -179 -19 -179 18 0 38 50 65 163 12 50 26 109 31 129 12 53 46 88 91 95 55 8 47 -12 -18 -44 -55 -27 -64 -36 -45 -48 10 -6 85 28 113 53 23 20 22 49 -2 62 -29 15 -52 12 -96 -10 -22 -11 -41 -20 -43 -20 -2 0 -3 19 -2 43 5 92 -13 104 -54 33 -42 -72 -114 -124 -139 -100 -3 3 12 23 32 43 21 21 41 50 45 65 13 51 -29 99 -77 88z m48 -51 c7 -23 -2 -50 -28 -78 -43 -48 -56 -12 -25 70 12 31 44 36 53 8z"/>
<path d="M3859 1441 c-16 -16 -29 -38 -29 -48 0 -11 -4 -23 -10 -29 -18 -18 -32 -121 -20 -144 31 -58 146 -66 201 -14 68 65 59 197 -16 244 -47 29 -91 26 -126 -9z m124 -31 c32 -38 41 -78 27 -129 -19 -71 -84 -100 -150 -66 -16 8 -31 23 -35 34 -7 23 4 73 15 66 4 -2 10 13 13 36 8 60 31 89 71 89 26 0 41 -8 59 -30z"/>
<path d="M2691 1386 c-7 -9 -24 -41 -37 -73 -20 -50 -26 -58 -47 -55 -32 4 -44 -24 -16 -38 10 -6 24 -8 30 -4 6 3 25 -2 43 -11 47 -25 82 -13 142 49 l50 52 19 -63 c10 -35 16 -65 14 -67 -2 -2 -28 -16 -57 -30 -70 -36 -138 -99 -152 -142 -31 -92 75 -156 176 -108 51 24 67 64 72 172 l4 92 77 25 c42 14 63 23 46 20 -16 -2 -53 -7 -81 -10 l-51 -6 -16 63 c-9 35 -18 74 -19 88 -4 36 -34 37 -52 2 -36 -71 -109 -130 -143 -118 -12 5 -5 18 31 56 39 42 47 56 44 83 -3 28 -7 32 -34 35 -18 2 -36 -3 -43 -12z m49 -22 c0 -13 -42 -74 -51 -74 -5 0 0 18 11 40 18 35 40 53 40 34z m156 -250 c9 -37 -4 -134 -22 -162 -27 -42 -101 -55 -142 -26 -29 20 -29 66 0 106 19 28 130 108 149 108 5 0 12 -12 15 -26z"/>
<path d="M3376 1349 c-55 -9 -76 -23 -59 -40 7 -7 22 -7 51 2 66 19 72 12 72 -86 0 -65 3 -85 14 -85 10 0 15 22 18 90 2 49 7 92 11 96 3 3 35 9 71 11 36 3 63 10 60 14 -6 11 -171 10 -238 -2z"/>
<path d="M3657 1203 c-15 -15 -6 -33 17 -33 33 0 42 16 17 29 -23 13 -26 13 -34 4z"/>
<path d="M2047 883 c-4 -3 -7 -31 -7 -60 0 -99 -22 -298 -34 -306 -6 -4 -51 -7 -101 -5 -75 3 -90 0 -90 -12 0 -11 16 -17 60 -21 77 -8 414 2 421 12 9 16 -49 22 -147 15 -115 -8 -106 -20 -90 119 21 176 23 265 8 265 -7 0 -17 -3 -20 -7z"/>
<path d="M2704 644 c-49 -84 -127 -156 -163 -152 -21 2 -27 9 -29 36 -3 34 -26 52 -42 36 -15 -15 9 -83 35 -100 39 -25 73 -10 147 67 62 63 67 67 62 39 -14 -68 39 -75 113 -14 l42 34 3 -32 c2 -26 8 -34 26 -36 30 -4 75 14 98 39 17 19 17 19 28 -3 13 -25 11 -25 171 -15 54 3 85 11 133 35 34 18 62 30 62 27 0 -3 -9 -23 -20 -44 -34 -69 5 -70 72 -4 l48 48 -6 -33 c-5 -26 -3 -32 11 -32 10 0 33 11 52 26 l33 25 0 -23 c0 -56 42 -62 89 -14 29 30 35 33 60 23 24 -9 36 -6 75 16 l46 26 0 -74 0 -74 -66 -32 c-73 -36 -157 -106 -179 -150 -22 -41 -18 -84 8 -114 19 -23 30 -27 75 -27 118 1 180 75 189 226 l6 83 36 13 c103 36 221 83 218 87 -5 4 -166 -41 -221 -63 l-39 -15 6 79 c2 44 10 90 17 102 8 16 9 25 1 33 -8 8 -22 -1 -49 -31 -38 -41 -86 -67 -103 -56 -5 3 -8 22 -7 42 4 47 -20 50 -42 6 -22 -44 -60 -94 -72 -94 -6 0 -8 11 -4 28 19 82 19 92 3 92 -9 0 -24 -11 -33 -25 -9 -14 -25 -30 -36 -36 -17 -9 -18 -7 -12 15 11 46 -22 44 -72 -5 -46 -45 -51 -46 -32 -4 19 43 -4 54 -44 20 -80 -68 -228 -97 -228 -46 0 41 76 82 95 51 8 -14 35 -13 35 1 0 33 -87 52 -120 26 -28 -22 -50 -61 -50 -89 0 -25 -3 -28 -35 -28 -39 0 -45 16 -20 60 19 34 19 50 -2 50 -10 0 -25 -13 -35 -29 -18 -32 -92 -91 -115 -91 -17 0 -17 32 2 77 29 68 2 85 -38 24 -26 -39 -104 -101 -128 -101 -8 0 -10 11 -5 38 19 109 19 122 4 122 -9 0 -33 -30 -54 -66z m1143 -275 c-10 -120 -51 -178 -140 -194 -27 -5 -44 -3 -62 9 -44 29 -29 91 37 153 34 33 144 103 161 103 6 0 8 -28 4 -71z"/>
<path d="M4314 579 c-10 -17 23 -46 37 -32 7 7 9 19 6 27 -7 18 -33 21 -43 5z"/>
</g><g transform="translate(1202.221374, 1643.7682715993842) scale(0.40808740102544044)"><g transform="translate(-57.706759,297.537395) scale(0.100000,-0.100000)" fill="#4444bb" stroke="none">
<path d="M750 2973 c-57 -10 -88 -25 -119 -57 -40 -41 -55 -100 -46 -179 6 -45 12 -61 32 -77 32 -25 35 -25 64 -1 22 17 24 26 21 89 -4 105 24 120 164 87 33 -7 119 -19 190 -25 88 -8 134 -16 144 -26 32 -32 8 -420 -28 -456 -18 -18 -126 -28 -289 -28 -185 0 -206 -4 -250 -52 -55 -58 -58 -82 -55 -363 1 -145 7 -274 13 -293 11 -34 51 -62 89 -62 12 0 35 14 52 31 l31 30 -6 238 c-3 130 -3 249 0 264 l5 27 112 0 c234 1 363 26 423 82 58 54 98 260 91 463 -4 122 -7 138 -34 191 -40 81 -79 100 -217 108 -174 10 -361 14 -387 9z" fill="#4444bb"/>
<path d="M3660 2971 c-42 -9 -83 -34 -103 -65 -39 -59 -50 -127 -54 -343 -5 -206 -5 -212 18 -252 28 -50 78 -86 143 -102 48 -12 257 -8 370 7 l49 7 -7 -104 c-4 -57 -11 -189 -16 -294 -9 -177 -9 -192 8 -214 35 -47 100 -46 136 2 22 29 27 86 42 452 7 191 0 235 -44 283 -45 48 -92 56 -241 38 -146 -18 -229 -20 -265 -6 l-26 10 0 162 c0 156 8 230 27 249 5 5 99 6 210 2 l201 -6 5 -50 c3 -39 11 -56 31 -74 34 -29 48 -29 80 0 24 20 26 30 28 113 4 147 -23 169 -218 179 -242 11 -340 13 -374 6z" fill="#4444bb"/>
<path d="M1565 2945 c-14 -13 -25 -32 -25 -42 0 -10 -1 -297 -3 -638 -2 -677 -3 -662 55 -694 33 -19 73 -7 101 31 18 24 20 51 29 300 5 150 10 278 12 283 2 6 37 8 97 3 52 -3 135 -7 186 -7 154 -2 161 -10 143 -176 -21 -189 -27 -310 -18 -343 12 -45 45 -72 86 -72 71 0 102 46 102 151 0 33 7 118 16 187 24 190 9 280 -58 349 -50 52 -112 67 -263 65 -71 -1 -164 -6 -205 -11 -41 -4 -78 -7 -81 -5 -4 2 -10 108 -13 236 -9 286 -17 352 -47 384 -31 33 -82 32 -114 -1z" fill="#4444bb"/>
<path d="M2542 2944 c-55 -38 -64 -109 -53 -419 6 -186 9 -215 28 -250 50 -95 116 -125 302 -135 75 -4 171 -5 215 -1 l78 7 -4 -178 c-2 -97 -7 -181 -11 -184 -4 -4 -42 1 -85 11 -104 26 -285 27 -363 3 -106 -33 -149 -107 -99 -170 26 -34 68 -41 132 -21 74 23 202 20 308 -7 182 -47 274 5 301 168 12 77 27 831 19 994 -7 152 -20 181 -86 186 -88 7 -103 -51 -104 -401 l0 -219 -201 4 c-197 3 -201 3 -220 27 -18 21 -19 42 -19 283 l0 260 -29 29 c-33 33 -74 38 -109 13z" fill="#4444bb"/>
<path d="M2374 1391 c-55 -34 -79 -78 -79 -147 0 -51 4 -66 27 -96 35 -45 102 -73 153 -64 78 15 146 111 131 188 -20 108 -145 172 -232 119z" fill="#4444bb"/>
<path d="M1853 999 c-39 -11 -66 -56 -61 -101 6 -59 69 -64 76 -6 4 30 34 38 145 38 l67 0 0 -110 c0 -135 -1 -136 -132 -126 -85 6 -89 6 -113 -18 -24 -25 -25 -28 -25 -179 0 -162 4 -177 47 -177 35 0 43 29 43 159 l0 121 73 0 c85 0 141 14 168 41 17 17 19 34 19 169 0 147 -1 152 -25 175 -23 24 -30 25 -137 24 -62 0 -128 -5 -145 -10z" fill="#4444bb"/>
<path d="M2985 1000 c-91 -16 -93 -18 -104 -58 -15 -51 -14 -537 0 -564 19 -36 69 -48 204 -48 121 0 127 1 151 25 l24 24 -2 292 -3 292 -26 19 c-31 23 -161 33 -244 18z m169 -86 c14 -5 16 -37 16 -250 l0 -245 -102 3 -103 3 0 240 0 240 40 6 c57 9 131 10 149 3z" fill="#4444bb"/>
<path d="M2351 971 c-24 -24 -29 -73 -37 -372 -6 -232 -6 -237 15 -258 23 -23 29 -25 51 -11 12 7 16 40 20 150 l5 141 35 -23 c19 -13 59 -55 88 -93 30 -39 78 -96 108 -128 47 -51 56 -57 74 -47 29 16 25 42 -15 92 -19 24 -62 78 -95 121 -61 77 -61 77 -33 77 15 0 46 9 69 19 56 26 67 57 62 179 -6 156 -27 172 -220 172 -93 0 -111 -3 -127 -19z m257 -74 c16 -13 17 -168 0 -185 -7 -7 -41 -12 -84 -12 -40 0 -84 -4 -98 -10 l-26 -10 0 120 0 119 98 -6 c53 -3 103 -10 110 -16z" fill="#4444bb"/>
</g>
</g>
</svg>
