<svg width="50.33mm" height="102.1mm" version="1.1" viewBox="0 0 50.33 102.1" xml:space="preserve" xmlns="http://www.w3.org/2000/svg" xmlns:xlink="http://www.w3.org/1999/xlink"><defs><radialGradient id="b" cx="53.02" cy="15.93" r="6.245" gradientTransform="matrix(.2868 0 0 .2887 44.61 18.13)" gradientUnits="userSpaceOnUse"><stop stop-opacity="0" offset=".2993"/><stop offset="1"/></radialGradient><radialGradient id="a" cx="55.25" cy="61.66" r="6.245" gradientTransform="matrix(.3222 0 0 .3222 42.55 48.59)" gradientUnits="userSpaceOnUse"><stop stop-opacity="0" offset=".1677"/><stop offset="1"/></radialGradient></defs><g transform="translate(-39.55 25.25)"><circle cx="61.93" cy="24.85" r="5.866" fill="url(#b)" fill-rule="evenodd" stop-color="#000000" stroke="#000" stroke-width=".7578" style="-inkscape-stroke:none;font-variation-settings:normal"/><circle cx="61.93" cy="70.57" r="5.866" fill="url(#a)" fill-rule="evenodd" stop-color="#000000" stroke="#000" stroke-width=".7578" style="-inkscape-stroke:none;font-variation-settings:normal"/><g fill="none" stroke="#000" stroke-dashoffset="2.646"><path d="m61.93 64.96v-34.49" stroke-linejoin="bevel" stroke-width="1.5" style="paint-order:fill markers stroke"/><path d="m39.55-22.25h44.76" stroke-linejoin="round" stroke-width="6" style="paint-order:stroke fill markers"/><path d="m61.93 19.23v-41.48" stroke-linejoin="round" stroke-width=".7" style="paint-order:stroke fill markers"/></g><path d="m69.99-1.724h-2.371v-0.2963q0.3387 0 0.4974-0.05292 0.1588-0.05292 0.2117-0.2011 0.05292-0.1587 0.05292-0.4762v-2.9q0-0.3281-0.04233-0.4868-0.04233-0.1693-0.2011-0.2222-0.1588-0.0635-0.5186-0.0635v-0.3069h2.371v0.3069q-0.3387 0-0.4974 0.07408-0.1482 0.0635-0.1905 0.2328-0.03175 0.1587-0.03175 0.4657v1.143h2.455v-1.143q0-0.3069-0.03175-0.4657-0.03175-0.1693-0.1799-0.2328-0.1482-0.07408-0.4974-0.07408v-0.3069h2.371v0.3069q-0.3704 0-0.5397 0.07408-0.1587 0.0635-0.1905 0.2328-0.03175 0.1587-0.03175 0.4657v2.868q0 0.3281 0.04233 0.4974 0.05292 0.1587 0.2117 0.2117 0.1693 0.05292 0.508 0.05292v0.2963h-2.371v-0.2963q0.3492 0 0.4974-0.05292 0.1482-0.05292 0.1799-0.2117 0.03175-0.1693 0.03175-0.4974v-1.344h-2.455v1.344q0 0.3281 0.03175 0.4974 0.04233 0.1587 0.1905 0.2117 0.1588 0.05292 0.4974 0.05292zm6.382 0h-2.328v-0.2963q0.4445 0 0.5927-0.1164 0.1482-0.127 0.1482-0.5503v-3.069q0-0.2857-0.05292-0.4233-0.04233-0.1482-0.2011-0.1905-0.1482-0.05292-0.4762-0.05292v-0.3069h2.318v0.3069q-0.3069 0-0.4657 0.05292-0.1482 0.04233-0.1905 0.1905-0.04233 0.1376-0.04233 0.4445v2.582h0.02117l2.476-2.688q0-0.381-0.127-0.4762-0.127-0.1058-0.5609-0.1058v-0.3069h2.307v0.3069q-0.2963 0-0.4551 0.05292-0.1587 0.04233-0.2117 0.2011-0.05292 0.1587-0.05292 0.4868v2.995q0 0.4233 0.1482 0.5503 0.1587 0.1164 0.5609 0.1164v0.2963h-2.297v-0.2963q0.4233 0 0.5503-0.1164 0.1376-0.127 0.1376-0.5503v-2.561h-0.02117l-2.476 2.667q0 0.3175 0.1376 0.4445 0.1376 0.1164 0.5609 0.1164zm7.461 0h-2.54v-0.2963q0.3492 0 0.5186-0.04233 0.1799-0.05292 0.2434-0.2117 0.0635-0.1693 0.0635-0.508v-3.556h-0.3916q-0.4127 0-0.635 0.1376-0.2222 0.127-0.3387 0.4233-0.1164 0.2963-0.2222 0.8043h-0.2857l0.0635-1.757h4.519l0.0635 1.757h-0.2858q-0.09525-0.508-0.2117-0.8043-0.1164-0.2963-0.3387-0.4233-0.2222-0.1376-0.635-0.1376h-0.4127v3.556q0 0.3387 0.0635 0.508 0.0635 0.1587 0.2434 0.2117 0.1799 0.04233 0.5186 0.04233zm3.863 0h-2.381v-0.2963q0.4868 0 0.6138-0.1482 0.127-0.1482 0.127-0.5715v-2.963q0-0.3175-0.04233-0.4657-0.04233-0.1587-0.2011-0.2011-0.1482-0.05292-0.4868-0.05292v-0.3069h2.381v0.3069q-0.3492 0-0.508 0.05292-0.1587 0.04233-0.2117 0.2011-0.04233 0.1482-0.04233 0.4657v1.122q0.2011-0.01058 0.4339-0.02117 0.2328-0.02117 0.4868-0.02117 0.6879 0 1.132 0.1799 0.4551 0.1693 0.6667 0.4868 0.2222 0.3069 0.2222 0.7408 0 0.6773-0.5503 1.09-0.5397 0.4022-1.64 0.4022zm-0.1588-0.381q0.3175 0 0.6244-0.07408 0.3175-0.08467 0.5292-0.3069 0.2117-0.2328 0.2117-0.6667 0-0.5821-0.3704-0.8255-0.3704-0.254-0.9948-0.254-0.1693 0-0.3281 0.01058-0.1482 0.01058-0.2646 0.02117v2.074q0.1588 0.01058 0.2963 0.02117 0.1376 0 0.2963 0z" stroke-width=".4498" style="font-variant-ligatures:none" aria-label="нить"/><g stroke-width=".4498" style="font-variant-ligatures:none" aria-label="k, 𝓁"><path d="m42.13 6.839h-0.8678l1.302-6.435t0.01058-0.1058q0.02117-0.1058 0.02117-0.2328 0-0.1058-0.0635-0.2117-0.05292-0.1058-0.2646-0.1058-0.1376 0-0.254 0.01058t-0.1164 0.01058v-0.2752l1.46-0.1164h0.2328l-1.027 5.08-0.03175 0.2963zm2.476 0.1058q-0.2646 0-0.4445-0.1376-0.1693-0.1482-0.2646-0.3387-0.09525-0.2011-0.1587-0.3492l-0.7408-1.926 0.6244-0.5186 0.8361 1.979q0.1164 0.2646 0.2222 0.4233 0.1164 0.1482 0.3175 0.1482 0.3069 0 0.4974-0.1799 0.1905-0.1799 0.3704-0.4339l0.2222 0.1482q-0.05292 0.09525-0.1799 0.2963-0.1164 0.1905-0.3069 0.4022-0.1799 0.2011-0.4339 0.3492-0.2434 0.1376-0.5609 0.1376zm-1.524-2.625-0.6879 0.6667 0.05292-0.6667h0.2011l1.545-1.482q0.1164-0.1164 0.1799-0.2011 0.0635-0.09525 0.0635-0.2328 0-0.1482-0.127-0.1905-0.127-0.05292-0.3387-0.05292l0.03175-0.2646h2.275l-0.03175 0.2646q-0.5397 0.01058-0.8467 0.2117-0.2963 0.1905-0.5503 0.4233l-1.259 1.122z"/><path d="m46.96 8.236-0.127-0.2646q0.2011-0.08467 0.4022-0.2222 0.2011-0.127 0.3387-0.381t0.1376-0.6773q-0.1693 0.0635-0.3281 0.0635-0.3069 0-0.4445-0.1693-0.1376-0.1693-0.1376-0.4022 0-0.254 0.1693-0.4339 0.1693-0.1905 0.4868-0.1905 0.2646 0 0.4445 0.1164 0.1799 0.1058 0.2752 0.3175 0.09525 0.2011 0.09525 0.4974 0 0.4445-0.1482 0.7514-0.1376 0.3069-0.3492 0.4974t-0.4339 0.3069q-0.2222 0.1164-0.381 0.1905zm5.821-1.27c0.7408 0 1.757-1.016 2.17-1.746l-0.2858-0.2222c-0.4233 0.6562-0.9207 1.217-1.302 1.217-0.1799 0-0.2011-0.1164-0.2011-0.2222 0-0.1693 0.0635-0.4022 0.2328-1.09l0.4233-1.704c1.344-0.6667 2.434-1.672 2.434-2.847 0-0.6032-0.2857-1.027-0.8678-1.027-1.027 0-1.799 1.355-2.233 3.122l-0.1693 0.6773c-0.4974 0.2222-1.027 0.3916-1.524 0.4868l0.05292 0.3704c0.4339-0.08467 0.8996-0.2117 1.355-0.3704l-0.4868 1.99c-0.09525 0.3916-0.1164 0.635-0.1164 0.7726 0 0.381 0.1799 0.5927 0.5186 0.5927zm1.185-4.36 0.1587-0.635c0.3704-1.482 0.6773-2.212 1.101-2.212 0.2752 0 0.3492 0.3175 0.3492 0.6032 0 0.8678-0.6879 1.651-1.609 2.244z"/></g><g transform="translate(-1.313 .7967)" stroke-width=".4498"><path d="m77.95 71.35q-0.4022 0-0.5503-0.1905-0.1482-0.2011-0.1482-0.4339 0-0.127 0.02117-0.2434 0.02117-0.127 0.03175-0.1693l0.5397-2.053q0.05292-0.2117 0.1058-0.4657 0.0635-0.2646 0.0635-0.4339 0-0.1799-0.0635-0.2963-0.0635-0.127-0.2434-0.127-0.2011 0-0.4657 0.2222-0.254 0.2117-0.5292 0.5609-0.2752 0.3492-0.5292 0.762-0.254 0.4022-0.4445 0.7832-0.1905 0.3704-0.2857 0.6456l0.3598-1.365q0.1588-0.3069 0.4022-0.7091 0.2434-0.4022 0.5503-0.7832 0.3175-0.381 0.6879-0.6244 0.381-0.254 0.8043-0.254 0.381 0 0.5186 0.2328 0.1376 0.2328 0.1376 0.5186 0 0.2011-0.04233 0.4339-0.04233 0.2328-0.0635 0.3492l-0.5821 2.445t-0.02117 0.08467q-0.01058 0.07408-0.01058 0.1693 0 0.2011 0.2011 0.2011 0.2752 0 0.4657-0.2011 0.2011-0.2011 0.3281-0.3492l0.2117 0.1587q-0.1058 0.1482-0.2434 0.3387-0.127 0.1905-0.3069 0.381-0.1693 0.1799-0.3916 0.2963t-0.508 0.1164zm-5.609-0.1058h-0.8678l0.8467-4.022t0.01058-0.1164q0.02117-0.1164 0.02117-0.2328 0-0.1376-0.07408-0.2117-0.07408-0.07408-0.2646-0.07408-0.1058 0-0.2222 0.01058-0.1164 0.01058-0.1164 0.01058v-0.2857l1.45-0.1164h0.2434l-0.5186 2.297h0.1164zm2.826 0h-0.8784q0.1164-0.4233 0.2222-0.8467 0.1164-0.4339 0.2222-0.8572 0.1058-0.4339 0.2011-0.8678 0.1058-0.4339 0.2011-0.8784 0 0 0.02117-0.1482 0.03175-0.1588 0.03175-0.2858 0-0.1799-0.0635-0.2963-0.0635-0.127-0.2434-0.127-0.2646 0-0.5821 0.2963-0.3175 0.2963-0.6456 0.762-0.3175 0.4657-0.5927 0.9948-0.2752 0.5186-0.4551 0.9631l0.2646-1.333q0.1587-0.3069 0.4022-0.7197 0.2434-0.4127 0.5609-0.8043 0.3281-0.3916 0.7302-0.6562 0.4022-0.2646 0.8572-0.2646 0.3916 0 0.5186 0.2328 0.1376 0.2328 0.1376 0.5186 0 0.2328-0.04233 0.4868t-0.05292 0.2963l-0.2011 0.7937h0.1482l-0.4762 1.408z" aria-label="m"/><path d="m82.76 73.38h-2.441v-0.1976q0.5009 0 0.7056-0.1058 0.2046-0.1058 0.2046-0.3669v-2.985q0-0.1834-0.04939-0.2611-0.04939-0.08467-0.1834-0.08467-0.07055 0-0.1976 0.01411-0.127 0.01411-0.2681 0.04233-0.1411 0.02117-0.254 0.05644v-0.2328l1.369-0.3881h0.2046v3.838q0 0.2611 0.2117 0.3669t0.6985 0.1058z" style="font-variant-ligatures:none" aria-label="1"/></g><g transform="translate(.5882 -.3993)" stroke-width=".4498"><path d="m76.05 26.81q-0.4022 0-0.5503-0.1905-0.1482-0.2011-0.1482-0.4339 0-0.127 0.02117-0.2434 0.02117-0.127 0.03175-0.1693l0.5397-2.053q0.05292-0.2117 0.1058-0.4657 0.0635-0.2646 0.0635-0.4339 0-0.1799-0.0635-0.2963-0.0635-0.127-0.2434-0.127-0.2011 0-0.4657 0.2222-0.254 0.2117-0.5292 0.5609-0.2752 0.3492-0.5292 0.762-0.254 0.4022-0.4445 0.7832-0.1905 0.3704-0.2857 0.6456l0.3598-1.365q0.1588-0.3069 0.4022-0.7091 0.2434-0.4022 0.5503-0.7832 0.3175-0.381 0.6879-0.6244 0.381-0.254 0.8043-0.254 0.381 0 0.5186 0.2328 0.1376 0.2328 0.1376 0.5186 0 0.2011-0.04233 0.4339-0.04233 0.2328-0.0635 0.3492l-0.5821 2.445t-0.02117 0.08467q-0.01058 0.07408-0.01058 0.1693 0 0.2011 0.2011 0.2011 0.2752 0 0.4657-0.2011 0.2011-0.2011 0.3281-0.3492l0.2117 0.1587q-0.1058 0.1482-0.2434 0.3387-0.127 0.1905-0.3069 0.381-0.1693 0.1799-0.3916 0.2963t-0.508 0.1164zm-5.609-0.1058h-0.8678l0.8467-4.022t0.01058-0.1164q0.02117-0.1164 0.02117-0.2328 0-0.1376-0.07408-0.2117-0.07408-0.07408-0.2646-0.07408-0.1058 0-0.2222 0.01058-0.1164 0.01058-0.1164 0.01058v-0.2857l1.45-0.1164h0.2434l-0.5186 2.297h0.1164zm2.826 0h-0.8784q0.1164-0.4233 0.2222-0.8467 0.1164-0.4339 0.2222-0.8572 0.1058-0.4339 0.2011-0.8678 0.1058-0.4339 0.2011-0.8784 0 0 0.02117-0.1482 0.03175-0.1588 0.03175-0.2858 0-0.1799-0.0635-0.2963-0.0635-0.127-0.2434-0.127-0.2646 0-0.5821 0.2963-0.3175 0.2963-0.6456 0.762-0.3175 0.4657-0.5927 0.9948-0.2752 0.5186-0.4551 0.9631l0.2646-1.333q0.1587-0.3069 0.4022-0.7197 0.2434-0.4127 0.5609-0.8043 0.3281-0.3916 0.7302-0.6562 0.4022-0.2646 0.8572-0.2646 0.3916 0 0.5186 0.2328 0.1376 0.2328 0.1376 0.5186 0 0.2328-0.04233 0.4868t-0.05292 0.2963l-0.2011 0.7937h0.1482l-0.4762 1.408z" aria-label="m"/><path d="m80.9 28.85h-2.78v-0.2399l1.072-1.072q0.3528-0.3598 0.5856-0.6491 0.2328-0.2963 0.3457-0.5927 0.1199-0.2963 0.1199-0.6632 0-0.3951-0.2399-0.6279-0.2328-0.2399-0.6421-0.2399-0.3457 0-0.5927 0.1482-0.2399 0.1482-0.4374 0.5433l-0.1693-0.07056q0.1623-0.5151 0.5151-0.7973 0.3528-0.2822 0.8678-0.2822 0.4022 0 0.7056 0.1552 0.3034 0.1482 0.4727 0.4233 0.1764 0.2681 0.1764 0.6421 0 0.3104-0.1341 0.5997-0.127 0.2822-0.3881 0.5856-0.254 0.3034-0.6279 0.6844l-0.9313 0.8819v0.03528l0.4939-0.02117h0.9807q0.2822 0 0.3951-0.127t0.2328-0.4445h0.2046z" style="font-variant-ligatures:none" aria-label="2"/></g><path d="m58.08-19.85 8.375 7.731-8.375 8.088 8.876 7.874-8.876 8.889 8.315 8.537" fill="none" stroke="#000" stroke-dashoffset="2.646" stroke-linejoin="round" style="paint-order:stroke fill markers"/></g></svg>
