<svg xmlns="http://www.w3.org/2000/svg" version="1.0" width="1327.600903pt" height="1121.967286pt" viewBox="0 0 1327.600903 1121.967286" preserveAspectRatio="xMidYMid meet">
<metadata>
Created by potrace 1.16, written by Peter Selinger 2001-2019
</metadata>
<g transform="translate(-101.219934,1164.000000) scale(0.100000,-0.100000)" fill="#000000" stroke="none">
<path d="M1408 11611 c-13 -15 -35 -53 -49 -84 -25 -59 -24 -58 -116 -72 -29 -5 -43 -12 -43 -22 0 -12 10 -14 60 -8 47 5 60 4 60 -7 0 -26 -16 -36 -68 -43 -68 -9 -66 -31 2 -27 l48 3 -7 -29 c-4 -18 -2 -33 5 -37 16 -10 41 15 35 35 -7 22 19 50 45 50 17 0 18 -3 8 -27 -7 -16 -16 -34 -21 -41 -6 -7 -7 -15 -4 -18 14 -14 39 8 57 50 10 24 27 46 37 49 10 3 54 13 98 22 75 16 105 28 94 39 -3 3 -45 -3 -94 -13 -50 -9 -91 -14 -93 -10 -2 4 1 17 7 27 8 14 33 24 101 37 98 19 125 42 37 32 -29 -4 -68 -10 -87 -13 l-33 -7 31 58 c36 65 39 85 17 85 -10 0 -30 -29 -50 -72 -34 -70 -50 -86 -88 -87 -16 -1 -16 1 -2 37 9 20 28 49 42 64 15 16 23 33 20 42 -9 23 -22 20 -49 -13z m13 -189 c-6 -11 -24 -22 -41 -24 -16 -3 -30 -3 -30 -2 0 2 4 14 9 28 7 17 19 26 38 28 33 4 38 -3 24 -30z"/>
<path d="M2343 11581 c-54 -25 -83 -55 -83 -86 0 -36 44 -55 130 -55 38 0 70 -4 70 -8 0 -15 -75 -80 -118 -102 -34 -18 -53 -21 -88 -16 -35 4 -46 2 -51 -10 -15 -39 68 -45 143 -10 145 68 226 218 151 282 -35 30 -94 32 -154 5z m129 -28 c10 -9 18 -29 18 -45 0 -22 -6 -31 -27 -39 -27 -10 -113 -6 -148 7 -29 12 -12 46 34 71 52 27 97 30 123 6z"/>
<path d="M2077 11562 c-16 -9 -45 -42 -65 -72 -33 -49 -37 -62 -37 -119 0 -61 2 -66 28 -80 26 -15 30 -14 74 10 67 37 125 121 131 192 3 41 0 57 -13 70 -21 22 -82 21 -118 -1z m98 -33 c23 -72 -124 -254 -165 -204 -30 36 39 186 99 217 38 19 57 15 66 -13z"/>
<path d="M1720 11551 c-22 -4 -35 -12 -35 -21 0 -16 1 -16 108 -4 36 4 57 3 57 -3 0 -6 -34 -34 -75 -62 -102 -71 -101 -87 5 -93 103 -6 117 -18 51 -47 -54 -23 -81 -27 -81 -11 0 15 -33 12 -58 -6 -32 -22 -28 -44 9 -44 38 0 143 27 180 45 69 36 37 81 -66 92 l-70 8 45 27 c59 34 103 81 98 105 -3 15 -14 18 -68 19 -36 1 -81 -1 -100 -5z"/>
<path d="M3377 11294 c-4 -4 -4 -46 -1 -93 4 -56 -1 -157 -15 -291 -48 -475 -49 -535 -37 -2515 6 -1112 9 -1280 21 -1283 13 -3 15 101 15 815 0 450 -5 1104 -12 1453 -13 708 -5 1053 34 1400 23 212 30 511 12 517 -5 2 -13 0 -17 -3z"/>
<path d="M2725 11244 c-16 -2 -172 -10 -345 -19 -246 -13 -418 -16 -780 -11 -256 3 -489 7 -519 8 -34 2 -56 -1 -58 -9 -8 -22 147 -28 677 -28 389 0 596 5 800 18 151 9 295 18 320 20 25 1 44 7 43 12 -3 10 -81 15 -138 9z"/>
<path d="M10510 11128 c0 -16 68 -91 233 -257 162 -163 224 -232 207 -228 -14 3 -67 9 -117 13 -80 6 -93 4 -93 -9 0 -10 13 -17 38 -21 111 -17 206 -27 217 -23 6 3 232 -215 501 -484 l489 -489 -613 0 c-605 0 -612 0 -612 -20 0 -20 7 -20 635 -20 501 0 635 -3 636 -12 1 -7 1 -61 -1 -120 -1 -74 1 -108 9 -108 7 0 11 28 12 78 l0 77 84 -310 c47 -170 85 -311 85 -313 0 -8 -114 -54 -152 -60 l-43 -8 3 -62 c3 -53 1 -66 -15 -77 -17 -13 -17 -14 0 -20 9 -4 17 -18 17 -31 0 -32 18 -31 22 2 3 22 13 29 77 50 40 14 86 31 101 39 22 11 29 12 33 2 2 -6 57 -211 122 -453 105 -394 120 -441 136 -437 15 4 17 11 12 32 -3 14 -59 222 -123 461 -75 277 -114 439 -108 447 6 7 4 14 -4 20 -18 10 -39 81 -27 89 15 9 10 34 -6 34 -8 0 -15 2 -15 4 0 5 -167 630 -176 659 -5 16 52 17 1106 17 1053 0 1111 1 1108 18 -3 16 -66 17 -1121 20 l-1117 2 0 75 c0 43 -4 75 -10 75 -6 0 -10 -27 -10 -62 l0 -63 -155 155 c-151 152 -155 156 -149 189 4 20 24 52 48 76 47 49 117 75 203 75 52 0 53 0 53 -30 0 -43 18 -37 22 8 5 58 -3 142 -13 142 -5 0 -9 -20 -9 -44 l0 -43 -77 -5 c-127 -8 -208 -53 -251 -141 l-18 -37 -321 323 c-311 312 -322 324 -342 385 -12 36 -21 88 -21 122 0 58 -1 60 -26 60 l-27 0 6 -81 5 -82 -212 212 c-117 116 -217 211 -224 211 -7 0 -12 -10 -12 -22z m1731 -2325 c10 -32 10 -38 -7 -50 -15 -11 -163 -63 -180 -63 -2 0 -4 20 -4 44 0 43 1 44 43 55 23 6 60 20 82 30 53 26 52 26 66 -16z"/>
<path d="M12030 10925 c0 -57 4 -95 10 -95 6 0 10 38 10 95 0 57 -4 95 -10 95 -6 0 -10 -38 -10 -95z"/>
<path d="M5383 10973 c-19 -56 -47 -111 -79 -154 -35 -47 -36 -48 -78 -43 -32 5 -53 1 -82 -14 -57 -29 -114 -95 -114 -131 0 -60 58 -48 167 32 l62 46 53 -29 c62 -33 167 -74 216 -83 24 -5 32 -3 32 8 0 8 -8 15 -17 15 -19 0 -241 99 -249 111 -2 4 16 36 42 71 57 77 97 155 90 174 -8 20 -35 17 -43 -3z m-158 -232 c9 -15 -120 -111 -150 -111 -27 0 41 81 87 103 38 19 54 21 63 8z"/>
<path d="M4440 10919 c0 -24 51 -79 74 -79 23 0 20 13 -9 40 -14 13 -25 32 -25 42 0 11 -7 18 -20 18 -14 0 -20 -7 -20 -21z"/>
<path d="M1227 10798 l-55 -113 -57 0 c-48 0 -60 -4 -76 -24 -28 -35 -34 -71 -17 -100 23 -41 64 -32 115 24 l43 47 91 -51 c99 -55 109 -58 109 -36 0 8 -33 32 -72 54 -119 65 -114 52 -57 156 55 98 72 155 47 155 -10 0 -37 -43 -71 -112z m-91 -149 c7 -12 -54 -79 -73 -79 -20 0 -15 48 7 70 22 22 55 26 66 9z"/>
<path d="M4235 10885 c-22 -8 -41 -15 -42 -15 -2 0 -3 -11 -3 -25 0 -20 11 -30 63 -56 63 -32 97 -56 97 -70 0 -21 -163 -49 -174 -30 -4 6 3 15 18 21 38 14 33 34 -6 26 -39 -8 -58 -23 -58 -47 0 -26 30 -39 87 -39 148 1 217 61 142 124 -17 14 -36 26 -42 27 -7 0 -2 4 9 9 31 12 37 57 10 75 -25 18 -49 18 -101 0z m67 -50 c6 -30 8 -29 -38 -8 -35 17 -35 18 -13 24 41 12 47 10 51 -16z"/>
<path d="M2335 10861 c-75 -46 -115 -126 -146 -291 -12 -63 -33 -169 -46 -235 -31 -152 -32 -159 -11 -163 19 -4 36 60 70 272 12 77 24 134 26 128 2 -7 24 -12 55 -12 91 0 197 38 197 71 0 22 -21 34 -78 44 l-42 7 40 45 c31 36 40 54 40 83 0 64 -47 87 -105 51z m63 -50 c3 -27 -4 -39 -52 -85 -31 -29 -56 -58 -56 -64 0 -15 26 -22 86 -22 67 0 63 -13 -12 -37 -46 -14 -57 -15 -64 -4 -6 11 -15 11 -40 3 l-31 -11 6 32 c17 77 50 144 91 185 49 49 68 50 72 3z"/>
<path d="M12927 10873 c-2 -4 -5 -27 -5 -50 -1 -22 -13 -73 -27 -111 -30 -83 -30 -82 -7 -82 10 0 25 12 33 26 16 30 146 154 161 154 7 0 7 -20 2 -57 -5 -32 -8 -83 -9 -113 0 -46 3 -55 19 -58 14 -3 17 0 13 12 -3 8 0 53 8 98 34 191 16 206 -117 96 l-48 -40 7 34 c13 58 9 92 -9 96 -9 2 -18 -1 -21 -5z"/>
<path d="M4527 10823 c-4 -3 -7 -42 -7 -85 0 -70 2 -79 18 -76 13 3 19 18 25 72 5 47 4 73 -4 82 -13 15 -22 17 -32 7z"/>
<path d="M3106 10788 c-30 -30 -47 -66 -72 -153 -8 -26 -15 -30 -47 -33 -23 -2 -48 3 -63 13 -21 13 -23 21 -18 54 10 65 -29 65 -41 0 -5 -29 -2 -41 17 -64 20 -23 35 -29 82 -33 l58 -5 -7 -74 c-6 -61 -4 -74 7 -71 8 3 19 37 27 86 8 48 19 82 26 82 23 0 105 62 125 94 27 45 27 100 -2 120 -33 24 -57 20 -92 -16z m73 -7 c35 -22 -18 -115 -87 -150 -21 -11 -22 -11 -16 16 11 48 34 97 56 120 24 26 27 26 47 14z"/>
<path d="M4707 10813 c-4 -3 -7 -35 -7 -70 0 -77 14 -87 64 -49 l34 26 7 -30 c6 -28 36 -56 47 -44 6 5 0 81 -8 122 -6 31 -32 28 -72 -10 l-35 -33 7 28 c9 40 -16 82 -37 60z"/>
<path d="M1682 10758 c-25 -25 -4 -60 23 -38 10 8 54 12 134 11 78 -1 122 2 126 9 4 6 5 13 4 14 -2 2 -65 6 -139 10 -101 5 -139 3 -148 -6z"/>
<path d="M2680 10744 c-6 -14 -10 -34 -10 -45 0 -21 -6 -24 -62 -34 -26 -4 -38 -11 -38 -22 0 -13 8 -15 44 -10 l45 6 -6 -49 c-5 -40 -3 -50 9 -50 10 0 18 16 24 53 l9 52 45 5 c56 6 59 24 4 28 -37 3 -41 5 -36 25 2 12 9 27 14 34 5 7 7 17 3 23 -11 18 -35 10 -45 -16z"/>
<path d="M12030 10680 c0 -53 4 -90 10 -90 6 0 10 37 10 90 0 53 -4 90 -10 90 -6 0 -10 -37 -10 -90z"/>
<path d="M11799 10668 c-66 -87 -79 -97 -106 -87 -54 20 -193 -52 -193 -101 0 -37 27 -45 87 -25 31 11 73 31 93 46 l38 27 77 -62 c77 -63 141 -94 159 -76 5 5 -3 14 -22 22 -17 7 -64 42 -106 77 l-75 64 61 68 c56 63 66 89 33 89 -7 0 -28 -19 -46 -42z m-124 -128 c-9 -15 -101 -60 -121 -60 -16 0 -16 1 0 19 10 11 32 26 49 35 36 18 81 21 72 6z"/>
<path d="M13350 10686 c-41 -28 -68 -62 -104 -134 -27 -53 -49 -72 -86 -72 -15 0 -20 -5 -18 -17 3 -13 12 -17 31 -16 26 2 27 1 24 -51 -3 -78 25 -103 86 -75 46 21 75 107 45 137 -7 7 -28 12 -47 13 l-36 0 25 17 c43 29 151 136 166 164 8 15 14 34 14 43 0 24 -60 19 -100 -9z m43 -37 c-20 -35 -92 -103 -100 -95 -9 9 37 74 70 101 43 33 52 31 30 -6z m-88 -219 c8 -12 -21 -80 -34 -80 -6 0 -8 6 -5 14 3 7 -2 16 -10 19 -16 6 -22 38 -9 50 10 10 51 8 58 -3z"/>
<path d="M1751 10661 c-25 -3 -46 -11 -48 -17 -4 -13 280 -12 287 2 9 17 -150 27 -239 15z"/>
<path d="M6950 10586 c0 -36 -7 -95 -16 -132 -15 -67 -14 -94 5 -94 6 0 50 36 98 80 49 44 91 80 95 80 4 0 1 -19 -7 -41 -30 -85 -14 -127 51 -136 47 -6 145 19 164 42 18 22 5 30 -27 16 -14 -7 -55 -15 -89 -18 -80 -7 -84 0 -53 102 35 120 8 125 -116 20 -37 -31 -69 -55 -71 -52 -3 3 0 42 6 87 13 92 10 110 -20 110 -18 0 -20 -6 -20 -64z"/>
<path d="M4008 10534 c-10 -3 -18 -11 -18 -17 0 -9 50 -12 183 -13 100 0 286 -6 412 -13 207 -12 1363 -31 1375 -23 20 14 -98 20 -652 31 -348 7 -691 17 -763 21 -181 12 -516 20 -537 14z"/>
<path d="M13834 10529 c-47 -13 -97 -75 -90 -109 5 -26 1 -29 -75 -64 -126 -56 -139 -49 -53 30 46 43 55 56 52 80 -3 26 -7 29 -44 32 -43 3 -94 -26 -94 -54 0 -20 17 -18 47 6 29 22 53 26 53 8 0 -6 -23 -33 -52 -59 l-52 -48 -12 36 c-12 33 -28 52 -46 53 -4 0 -16 9 -26 20 l-19 20 -32 -28 c-30 -25 -31 -31 -25 -70 9 -59 33 -85 73 -84 18 0 41 8 50 16 15 14 18 13 28 -3 10 -16 8 -21 -18 -31 -16 -7 -48 -26 -69 -41 -31 -23 -40 -36 -40 -58 0 -63 80 -88 185 -57 94 29 122 90 66 146 l-28 29 84 40 c109 52 129 53 142 4 17 -61 14 -68 -47 -106 -113 -70 -170 -157 -146 -225 19 -54 112 -42 170 21 37 40 74 133 74 186 l0 39 80 33 c76 32 98 49 65 49 -8 0 -43 -11 -78 -24 l-64 -24 -13 55 c-8 39 -17 57 -30 60 -16 4 -12 10 22 37 58 44 68 63 44 82 -22 16 -37 16 -82 3z m56 -29 c0 -10 -89 -79 -102 -80 -16 0 -7 27 15 48 33 31 87 51 87 32z m-426 -96 c29 -29 13 -74 -25 -74 -25 0 -32 16 -25 56 7 37 25 43 50 18z m140 -149 c46 -43 28 -83 -49 -104 -61 -17 -100 -14 -120 9 -18 20 -18 21 6 45 22 22 113 75 129 75 4 0 19 -11 34 -25z m246 -70 c-26 -118 -119 -214 -164 -170 -35 36 16 125 107 185 33 22 62 39 64 37 2 -3 -1 -26 -7 -52z"/>
<path d="M6390 10510 c0 -19 6 -20 165 -20 107 0 165 4 165 10 0 16 -13 18 -177 24 -149 6 -153 6 -153 -14z"/>
<path d="M12030 10430 c0 -53 4 -90 10 -90 6 0 10 37 10 90 0 53 -4 90 -10 90 -6 0 -10 -37 -10 -90z"/>
<path d="M6685 10429 c-44 -5 -117 -6 -162 -3 -69 5 -83 3 -83 -9 0 -21 101 -29 232 -18 107 9 128 14 128 32 0 10 0 10 -115 -2z"/>
<path d="M4800 10343 c-40 -45 -65 -100 -84 -184 -34 -152 -30 -255 14 -294 28 -25 38 -11 17 24 -51 87 17 389 102 452 37 27 39 39 7 39 -15 0 -36 -14 -56 -37z"/>
<path d="M5820 10372 c0 -5 7 -16 16 -23 9 -8 26 -34 37 -59 30 -66 30 -242 0 -322 -27 -73 -76 -143 -119 -171 -38 -25 -43 -37 -15 -37 10 0 38 18 62 39 84 73 133 200 132 341 0 96 -13 151 -46 201 -21 31 -67 53 -67 31z"/>
<path d="M4254 10339 c-9 -15 5 -26 44 -34 40 -8 45 16 7 33 -32 15 -42 15 -51 1z"/>
<path d="M3998 10289 c-91 -41 -71 -84 52 -114 38 -9 68 -21 65 -25 -3 -4 -21 -15 -40 -25 -26 -12 -40 -14 -49 -6 -16 14 -105 -15 -113 -36 -18 -45 71 -37 185 17 99 47 84 75 -61 115 -63 17 -65 28 -11 51 44 18 74 18 74 -1 0 -8 9 -15 21 -15 16 0 20 5 17 28 -3 25 -7 27 -48 29 -29 2 -62 -5 -92 -18z"/>
<path d="M5123 10268 c-6 -7 -16 -31 -23 -53 -7 -22 -21 -56 -32 -76 -19 -35 -21 -36 -69 -31 -43 4 -51 1 -79 -26 -16 -17 -30 -38 -30 -47 0 -65 68 -75 129 -19 39 35 40 35 71 19 17 -9 41 -15 52 -13 29 4 36 28 8 28 -11 0 -31 7 -45 16 l-24 15 35 69 c36 71 47 120 28 127 -6 2 -16 -2 -21 -9z m-103 -197 c0 -13 -59 -61 -76 -61 -19 0 -18 29 3 52 16 18 73 25 73 9z"/>
<path d="M4418 10173 c7 -123 37 -161 85 -109 l23 25 11 -30 c12 -32 34 -45 60 -35 14 6 14 9 -5 27 -17 15 -22 31 -22 69 0 43 -3 50 -20 50 -12 0 -30 -16 -46 -40 -15 -23 -31 -37 -35 -33 -4 4 -9 40 -11 78 -3 62 -5 70 -24 73 -20 3 -21 0 -16 -75z"/>
<path d="M5717 10220 c-24 -28 -38 -61 -51 -122 -7 -32 -58 -51 -103 -39 -36 10 -41 36 -14 72 23 30 21 49 -5 49 -19 0 -54 -58 -54 -91 0 -44 33 -64 106 -63 l64 0 0 -37 c0 -47 8 -69 27 -69 11 0 12 8 7 35 -12 66 2 97 62 135 82 52 110 104 75 139 -32 32 -83 28 -114 -9z m89 -14 c3 -8 1 -24 -5 -35 -14 -25 -79 -76 -87 -68 -8 7 11 63 31 94 17 26 53 31 61 9z"/>
<path d="M4276 10164 c-18 -18 -39 -90 -31 -104 10 -16 42 -12 49 6 3 9 6 29 6 44 0 16 5 32 10 35 14 9 12 22 -5 29 -8 3 -21 -2 -29 -10z"/>
<path d="M5291 10151 c-39 -24 58 -48 137 -34 65 12 56 28 -17 30 -36 1 -74 4 -85 7 -12 3 -27 1 -35 -3z"/>
<path d="M12030 9930 c0 -53 4 -90 10 -90 6 0 10 37 10 90 0 53 -4 90 -10 90 -6 0 -10 -37 -10 -90z"/>
<path d="M2361 9986 c-41 -43 -20 -96 39 -96 30 0 76 29 88 56 15 32 -4 50 -59 57 -39 5 -49 3 -68 -17z m93 -30 c-8 -20 -55 -39 -67 -27 -19 19 1 41 37 41 26 0 34 -4 30 -14z"/>
<path d="M1347 9960 c-28 -32 -43 -92 -53 -201 -8 -79 -23 -95 -57 -60 -28 27 -35 141 -14 219 13 47 13 54 0 59 -24 9 -34 -11 -44 -88 -14 -107 -4 -176 31 -211 16 -15 39 -28 52 -28 22 0 23 -3 20 -57 -4 -63 10 -113 30 -113 10 0 12 22 9 91 l-3 91 45 47 c57 58 87 119 94 187 5 44 2 58 -12 74 -27 30 -69 26 -98 -10z m77 -57 c-2 -53 -38 -136 -75 -169 -18 -16 -19 -16 -19 17 0 56 28 171 47 191 30 33 48 19 47 -39z"/>
<path d="M1992 9919 c-13 -5 -30 -25 -38 -45 -25 -60 -54 -208 -44 -218 16 -16 26 4 50 102 15 61 31 104 48 123 28 33 20 52 -16 38z"/>
<path d="M1534 9869 c-13 -21 12 -26 114 -21 99 4 126 13 80 26 -40 10 -186 7 -194 -5z"/>
<path d="M2123 9860 c-26 -17 -34 -32 -43 -77 -11 -50 -10 -58 8 -82 41 -55 136 -28 175 50 21 43 12 79 -26 103 -40 27 -79 29 -114 6z m91 -31 c35 -28 33 -54 -8 -95 -57 -57 -103 -37 -87 37 18 80 46 97 95 58z"/>
<path d="M1699 9785 c-3 -3 -39 -7 -80 -8 -57 -2 -74 -6 -74 -18 0 -9 12 -15 35 -16 47 -4 156 19 153 32 -2 11 -26 18 -34 10z"/>
<path d="M4739 9353 c-1 -5 0 -35 1 -69 1 -34 -4 -79 -10 -101 l-12 -40 -45 5 c-36 4 -48 1 -68 -18 -28 -26 -33 -71 -10 -90 20 -16 69 -4 105 27 29 24 31 24 77 10 70 -22 111 -28 118 -17 4 6 0 12 -7 14 -7 2 -41 14 -74 26 l-62 22 14 45 c17 57 18 165 2 181 -14 14 -27 16 -29 5z m-54 -242 c6 -11 -32 -41 -52 -41 -16 0 -17 22 -1 38 14 14 44 16 53 3z"/>
<path d="M13696 9314 c-3 -8 -1 -25 5 -36 13 -24 4 -94 -22 -181 -10 -34 -19 -68 -19 -74 0 -32 47 -8 123 62 44 41 82 74 83 72 2 -2 -1 -19 -6 -38 -17 -58 -12 -87 16 -105 22 -15 34 -16 84 -6 70 13 150 46 150 63 0 7 -8 9 -22 5 -67 -21 -137 -35 -166 -36 l-34 0 7 43 c4 23 14 59 23 80 16 43 7 63 -25 53 -10 -3 -52 -33 -93 -65 -41 -33 -75 -59 -76 -58 -2 1 4 27 12 57 15 56 18 137 8 164 -8 21 -40 21 -48 0z"/>
<path d="M4180 9295 c0 -15 49 -45 75 -45 23 0 18 14 -15 38 -34 25 -60 28 -60 7z"/>
<path d="M12030 9190 c0 -53 4 -90 10 -90 6 0 10 37 10 90 0 53 -4 90 -10 90 -6 0 -10 -37 -10 -90z"/>
<path d="M4366 9163 c1 -60 6 -89 14 -91 7 -3 32 17 56 44 l43 49 1 -56 c0 -62 14 -78 46 -54 15 11 16 15 5 28 -7 9 -12 35 -11 59 1 24 1 49 1 56 -2 22 -40 13 -76 -19 l-35 -31 0 51 c0 46 -2 51 -22 51 -22 0 -23 -3 -22 -87z"/>
<path d="M3957 9223 c-29 -12 -37 -20 -35 -36 3 -23 17 -28 133 -49 39 -7 70 -17 69 -23 -1 -15 -87 -55 -130 -61 l-39 -5 33 18 c62 32 25 46 -47 17 -46 -18 -57 -37 -34 -60 40 -40 263 38 263 93 0 21 -42 42 -106 54 -32 5 -68 13 -79 16 -17 5 -16 7 10 14 16 5 46 6 66 3 41 -7 60 9 30 25 -28 15 -90 13 -134 -6z"/>
<path d="M4260 9195 c0 -54 -21 -136 -36 -142 -8 -3 -14 -14 -14 -25 0 -14 6 -19 23 -16 32 4 59 67 65 149 4 65 4 69 -17 69 -17 0 -21 -6 -21 -35z"/>
<path d="M1342 9164 c-16 -34 -82 -210 -82 -218 0 -18 41 -1 71 30 36 37 116 94 132 94 5 0 6 -15 2 -37 -15 -74 -5 -93 47 -93 34 0 138 38 138 51 0 11 -26 12 -48 0 -9 -5 -36 -12 -59 -16 l-43 -7 3 69 c2 66 1 68 -23 71 -15 2 -47 -11 -80 -32 -30 -19 -56 -33 -58 -32 -5 6 31 90 46 108 7 9 11 22 7 27 -12 20 -42 11 -53 -15z"/>
<path d="M12030 8940 c0 -53 4 -90 10 -90 6 0 10 37 10 90 0 53 -4 90 -10 90 -6 0 -10 -37 -10 -90z"/>
<path d="M6437 9014 c-4 -4 -2 -13 4 -21 27 -32 -26 -222 -54 -194 -19 19 -64 12 -96 -14 -36 -31 -47 -61 -31 -80 17 -20 44 -19 90 5 l39 20 48 -25 c50 -25 130 -37 135 -20 2 5 -13 12 -32 15 -37 7 -75 24 -101 47 -15 13 -14 19 14 71 26 47 31 68 31 127 1 63 -1 70 -19 73 -12 2 -24 0 -28 -4z m-75 -249 c1 -11 -60 -50 -68 -43 -2 3 8 17 22 32 27 26 45 30 46 11z"/>
<path d="M8934 8975 c-7 -19 -14 -37 -14 -41 0 -4 -12 -32 -26 -64 -23 -52 -29 -58 -62 -64 -21 -3 -52 -16 -71 -29 l-33 -23 -56 28 c-30 15 -63 28 -73 28 -11 0 -19 5 -19 10 0 6 10 10 23 10 31 0 54 17 42 29 -11 11 -120 -10 -137 -27 -6 -6 -19 1 -38 19 -38 39 -99 40 -135 4 -30 -29 -32 -56 -6 -79 25 -23 45 -13 28 14 -26 43 31 76 79 46 64 -43 -13 -179 -93 -164 -10 1 -26 20 -36 41 -10 20 -23 37 -29 37 -5 0 -23 -13 -38 -30 -32 -35 -66 -39 -75 -10 -9 29 22 130 40 130 20 0 19 39 -1 47 -25 9 -52 -27 -69 -92 -20 -77 -19 -91 5 -115 23 -23 66 -26 105 -8 23 10 28 10 36 -5 5 -9 26 -21 46 -26 76 -21 157 43 173 137 4 26 8 42 9 35 0 -7 27 -20 59 -28 31 -9 73 -23 92 -31 l34 -16 -24 -19 c-27 -20 -103 -49 -131 -49 -10 0 -19 5 -21 12 -7 19 -38 1 -38 -22 0 -17 6 -20 48 -20 27 0 73 11 107 25 39 16 63 21 69 15 24 -24 88 0 143 52 l31 30 20 -46 c21 -45 47 -62 88 -54 29 5 27 26 -3 30 -23 2 -33 13 -55 56 l-26 53 34 74 c44 95 53 135 30 135 -10 0 -23 -15 -32 -35z m-132 -235 c-18 -17 -38 -30 -45 -30 -6 0 3 14 21 30 18 17 38 30 45 30 6 0 -3 -14 -21 -30z"/>
<path d="M5800 8965 c0 -9 6 -17 13 -19 6 -2 28 -8 47 -14 46 -16 59 0 22 27 -36 25 -82 28 -82 6z"/>
<path d="M9397 8953 c-4 -3 -7 -15 -7 -25 0 -16 5 -18 38 -12 48 9 51 13 28 30 -21 15 -48 18 -59 7z"/>
<path d="M5587 8919 c-69 -37 -60 -65 38 -109 33 -15 68 -37 79 -48 18 -21 18 -21 -15 -41 -19 -12 -45 -21 -59 -21 -23 1 -24 2 -7 14 37 28 6 36 -44 10 -22 -11 -29 -21 -27 -37 3 -20 9 -22 52 -20 165 6 200 97 62 162 -35 17 -67 35 -71 40 -3 6 10 19 30 28 28 13 40 15 54 6 22 -14 46 -1 38 21 -9 23 -83 20 -130 -5z"/>
<path d="M7510 8908 c-11 -18 -25 -65 -32 -105 l-12 -73 -41 0 c-23 0 -46 5 -53 12 -7 7 -12 39 -12 75 0 56 -2 63 -20 63 -18 0 -20 -7 -20 -70 0 -56 4 -74 19 -89 22 -22 82 -37 107 -27 13 5 15 1 10 -22 -3 -15 -8 -58 -12 -96 -5 -56 -4 -68 7 -64 8 3 17 24 22 49 27 147 25 143 68 169 110 68 125 210 22 210 -27 0 -37 -6 -53 -32z m80 -13 c19 -23 -3 -88 -41 -120 -18 -14 -34 -24 -36 -21 -8 8 17 109 33 133 17 27 27 29 44 8z"/>
<path d="M10003 8920 c-29 -12 -48 -51 -64 -128 -10 -49 -17 -62 -32 -62 -33 0 -52 18 -77 69 -15 34 -30 51 -42 51 -23 0 -23 -21 2 -69 24 -49 64 -81 100 -81 l27 0 -1 -87 c-1 -108 18 -126 29 -26 10 102 14 112 54 132 58 30 93 74 98 123 4 34 1 47 -13 59 -26 23 -55 29 -81 19z m55 -69 c3 -26 -3 -40 -25 -63 -15 -16 -36 -34 -46 -40 -17 -9 -18 -7 -12 24 4 18 15 52 26 76 23 54 52 55 57 3z"/>
<path d="M7067 8902 c-38 -42 -17 -81 67 -121 l59 -28 -69 -16 c-114 -26 -126 -27 -118 -8 17 38 16 97 -4 120 -38 48 -182 36 -182 -15 0 -8 -7 -17 -15 -20 -8 -4 -15 -13 -15 -21 0 -8 -13 -28 -29 -44 -33 -32 -89 -40 -110 -15 -16 19 -5 79 21 111 21 27 18 55 -6 55 -33 0 -75 -112 -62 -163 15 -61 114 -73 176 -20 l31 25 26 -26 c14 -14 31 -27 37 -28 123 -18 366 25 366 65 0 7 -27 26 -60 42 -33 16 -68 37 -76 47 -33 36 10 64 56 36 24 -15 38 -3 24 20 -16 26 -95 28 -117 4z m-96 -73 c14 -22 10 -62 -7 -87 -19 -28 -67 -29 -94 -2 -20 20 -28 46 -11 35 18 -11 23 17 5 30 -16 11 -16 15 -4 30 11 13 25 16 58 12 25 -3 48 -11 53 -18z"/>
<path d="M9570 8903 c-1 -5 -2 -30 -4 -58 -1 -27 -6 -67 -10 -87 -7 -31 -5 -39 10 -45 13 -5 26 3 49 30 l32 36 14 -32 c9 -20 22 -33 37 -35 22 -3 30 12 12 23 -5 3 -12 29 -16 56 -8 63 -28 73 -62 33 l-25 -29 6 46 c4 29 2 50 -5 57 -13 13 -38 16 -38 5z"/>
<path d="M6023 8889 c-8 -8 -9 -17 -3 -24 5 -6 10 -35 12 -64 4 -74 25 -87 71 -43 l33 32 11 -30 c13 -34 38 -48 61 -33 26 16 28 37 4 31 -22 -6 -26 3 -34 82 -5 40 -31 34 -68 -16 l-35 -46 -5 58 c-5 61 -22 78 -47 53z"/>
<path d="M11635 8854 c-62 -47 -88 -77 -124 -145 -41 -76 -58 -156 -70 -337 -10 -149 -29 -227 -60 -246 -20 -13 -12 -38 11 -34 49 7 88 142 88 303 l0 80 73 1 c57 0 82 5 122 26 107 55 109 93 8 139 l-65 29 40 47 c66 80 87 134 60 161 -19 19 -33 15 -83 -24z m39 -46 c-9 -18 -34 -52 -55 -75 -56 -61 -52 -78 25 -113 36 -16 67 -34 70 -39 16 -26 -109 -81 -182 -81 l-45 0 6 44 c8 60 41 144 78 199 28 42 107 112 117 103 2 -2 -4 -19 -14 -38z"/>
<path d="M9134 8865 c-9 -22 1 -31 71 -71 36 -19 67 -39 70 -44 7 -11 -25 -21 -90 -29 -35 -4 -50 -10 -50 -21 0 -17 38 -17 118 1 85 20 83 65 -5 110 -45 23 -48 31 -12 27 15 -2 29 3 31 9 10 29 -122 47 -133 18z"/>
<path d="M5124 8855 c-11 -27 7 -33 115 -37 133 -4 150 14 29 31 -46 6 -95 14 -111 17 -19 4 -29 1 -33 -11z"/>
<path d="M5877 8863 c-4 -3 -7 -25 -7 -47 0 -23 -7 -54 -15 -70 -23 -43 -20 -68 8 -64 19 3 25 15 41 80 10 42 16 84 13 93 -7 15 -28 20 -40 8z"/>
<path d="M9423 8849 c-8 -8 -9 -16 -1 -29 9 -14 6 -27 -10 -61 -25 -50 -15 -74 18 -44 24 21 43 80 38 115 -3 27 -27 37 -45 19z"/>
<path d="M3880 8821 c0 -12 9 -20 27 -24 14 -3 209 -2 432 2 223 4 440 7 481 7 44 -1 75 3 75 9 0 7 -162 10 -465 11 -256 0 -484 4 -507 7 -38 6 -43 5 -43 -12z"/>
<path d="M7766 8791 c-16 -25 10 -31 140 -31 112 0 134 2 134 15 0 12 -18 15 -97 15 -54 0 -114 3 -134 6 -22 4 -39 2 -43 -5z"/>
<path d="M5142 8757 c-7 -8 -9 -17 -5 -20 8 -9 216 -9 237 -1 37 14 10 21 -80 23 -52 0 -106 4 -118 7 -13 3 -27 0 -34 -9z"/>
<path d="M4284 8682 c-6 -4 -24 -47 -41 -95 -41 -118 -26 -124 68 -31 l69 68 0 -55 c0 -63 15 -85 66 -95 39 -7 106 11 136 37 l23 20 -30 -6 c-141 -28 -158 -20 -153 74 3 62 2 66 -19 69 -15 2 -37 -11 -68 -39 -49 -45 -52 -45 -31 6 11 26 12 36 2 44 -6 5 -16 7 -22 3z"/>
<path d="M1208 8609 c-99 -7 -127 -14 -111 -30 6 -6 50 -5 108 1 60 6 430 10 930 10 456 0 834 0 839 0 6 0 4 6 -2 13 -10 9 -192 12 -840 12 -455 0 -870 -3 -924 -6z"/>
<path d="M12030 8450 c0 -53 4 -90 10 -90 6 0 10 37 10 90 0 53 -4 90 -10 90 -6 0 -10 -37 -10 -90z"/>
<path d="M2281 8288 c-37 -20 -47 -42 -33 -72 16 -35 32 -33 32 4 0 34 23 50 73 50 73 0 159 -48 171 -95 10 -39 -16 -73 -120 -164 -96 -83 -138 -140 -149 -203 -11 -57 18 -50 33 7 13 48 43 82 198 225 81 75 94 104 67 158 -28 56 -100 96 -182 100 -41 2 -75 -2 -90 -10z"/>
<path d="M12030 8200 c0 -53 4 -90 10 -90 6 0 10 37 10 90 0 53 -4 90 -10 90 -6 0 -10 -37 -10 -90z"/>
<path d="M1749 8146 c-13 -13 -45 -61 -71 -107 -25 -46 -67 -113 -91 -148 l-45 -64 -63 -2 c-36 -1 -78 -9 -96 -19 -61 -31 -81 -116 -31 -130 30 -7 112 33 159 78 l36 34 41 -18 c22 -10 58 -30 79 -44 38 -26 73 -34 73 -17 0 12 -116 90 -146 97 -22 6 -22 7 22 66 25 34 69 103 99 154 31 52 65 98 76 104 16 9 18 14 8 26 -16 19 -22 18 -50 -10z m-250 -362 c-18 -22 -89 -70 -116 -78 -18 -6 -23 -3 -23 11 0 11 6 27 13 36 14 20 79 46 116 47 20 0 22 -2 10 -16z"/>
<path d="M12030 7950 c0 -53 4 -90 10 -90 6 0 10 37 10 90 0 53 -4 90 -10 90 -6 0 -10 -37 -10 -90z"/>
<path d="M1925 7900 c-4 -6 -1 -18 6 -26 9 -11 30 -14 88 -12 42 2 76 7 76 13 0 6 -27 13 -60 16 -33 4 -70 10 -81 14 -13 4 -25 2 -29 -5z"/>
<path d="M4099 7863 c-79 -213 -92 -241 -106 -227 -22 22 -53 18 -53 -7 0 -14 10 -24 30 -32 19 -7 28 -17 26 -27 -22 -75 -15 -141 18 -162 41 -28 126 23 126 75 0 36 -10 57 -27 57 -12 0 -14 -7 -9 -31 4 -24 1 -35 -19 -55 -28 -28 -38 -30 -55 -9 -8 10 -10 32 -6 68 l7 54 87 -3 c96 -3 89 3 106 -85 6 -35 5 -36 -33 -48 -74 -22 -123 -111 -102 -186 l10 -38 -130 6 c-96 4 -129 3 -126 -6 7 -22 83 -29 237 -22 85 4 276 12 424 19 207 8 270 14 274 24 4 14 -29 14 -429 -4 l-127 -5 24 48 c28 58 33 174 11 265 -8 32 -12 69 -9 84 3 15 -1 29 -8 34 -20 13 -40 0 -40 -25 0 -18 -7 -25 -30 -30 -39 -9 -120 4 -120 19 0 14 35 102 74 190 15 32 25 65 22 72 -9 23 -36 15 -47 -13z m131 -505 c0 -35 -7 -64 -20 -85 -23 -39 -57 -60 -73 -44 -14 14 -13 91 2 119 11 21 66 62 84 62 4 0 7 -24 7 -52z"/>
<path d="M4570 7780 c-11 -7 -11 -14 -1 -39 16 -36 7 -95 -19 -139 -19 -31 -20 -31 -82 -25 -75 7 -98 -9 -82 -55 12 -34 61 -41 115 -17 31 14 45 15 88 6 63 -13 131 -14 131 -2 0 5 -19 12 -42 16 -48 7 -108 24 -108 31 0 2 9 18 20 36 48 79 33 221 -20 188z m-92 -239 c10 -6 7 -10 -13 -15 -27 -7 -45 -1 -45 15 0 11 40 12 58 0z"/>
<path d="M2300 7656 c0 -20 16 -29 40 -21 32 10 25 35 -10 35 -19 0 -30 -5 -30 -14z"/>
<path d="M5669 7375 l-64 -135 -47 6 c-40 5 -49 4 -54 -11 -9 -21 11 -35 52 -35 l32 0 -20 -65 c-24 -77 -15 -101 35 -91 l29 6 -26 -31 c-32 -38 -33 -63 -1 -94 43 -44 138 -27 184 31 20 25 22 37 18 89 -4 47 -2 64 11 79 16 18 16 19 -11 14 -40 -8 -32 22 10 42 61 28 41 40 -67 40 -59 0 -100 4 -100 10 0 15 74 171 103 217 33 52 34 63 3 63 -20 0 -32 -18 -87 -135z m-15 -229 c-7 -23 -43 -66 -55 -66 -8 0 8 64 23 93 13 26 41 3 32 -27z m88 0 c-3 -38 -8 -45 -39 -60 -42 -20 -51 -15 -29 16 9 12 16 37 16 55 0 29 3 33 28 33 26 0 27 -2 24 -44z m24 -150 c-12 -47 -99 -81 -130 -51 -24 24 -1 60 65 101 l54 33 9 -29 c5 -16 6 -40 2 -54z m-111 64 c-3 -5 -11 -10 -16 -10 -6 0 -7 5 -4 10 3 6 11 10 16 10 6 0 7 -4 4 -10z"/>
<path d="M6152 7443 c-5 -10 -15 -40 -22 -68 -7 -27 -24 -76 -38 -107 l-25 -58 -38 6 c-64 11 -115 -38 -89 -86 14 -27 55 -26 97 3 18 12 33 25 33 29 0 4 30 -3 66 -17 68 -26 134 -33 134 -15 0 6 -6 12 -12 14 -29 7 -95 30 -126 43 -31 13 -32 14 -17 37 20 30 85 223 77 230 -11 12 -31 6 -40 -11z m-141 -284 c-26 -21 -37 -19 -28 6 4 8 17 15 29 15 l23 -1 -24 -20z"/>
<path d="M8245 7399 c-9 -14 34 -59 57 -59 24 0 23 7 -9 41 -30 32 -38 35 -48 18z"/>
<path d="M8889 7339 c-16 -17 -38 -61 -51 -100 -19 -61 -24 -68 -42 -63 -31 10 -66 35 -67 48 -1 6 -2 18 -3 26 0 8 -10 15 -21 15 -24 0 -32 -34 -15 -64 11 -22 78 -61 104 -61 11 0 12 -8 5 -37 -14 -63 -11 -169 6 -183 17 -14 18 -11 15 40 -1 20 6 68 15 108 16 67 18 72 43 72 36 0 98 39 122 76 27 39 26 108 0 134 -30 30 -76 26 -111 -11z m85 -15 c32 -32 8 -101 -47 -134 -30 -19 -67 -27 -67 -15 0 16 52 131 67 147 20 22 27 22 47 2z"/>
<path d="M6518 7333 c-43 -50 -79 -182 -62 -230 15 -42 55 -50 113 -21 47 23 50 23 71 6 28 -22 88 -23 118 -2 21 15 25 15 41 0 22 -20 72 -20 138 -1 90 27 109 80 43 122 -19 12 -44 29 -55 38 -19 14 -17 15 26 9 51 -6 73 8 40 25 -33 18 -109 14 -120 -6 -14 -26 3 -50 59 -78 56 -29 63 -48 22 -69 -39 -20 -122 -32 -122 -17 0 6 7 14 15 17 24 10 17 27 -9 22 -22 -4 -23 -2 -19 32 7 53 -27 90 -89 97 -38 4 -49 2 -67 -16 -17 -17 -19 -25 -11 -41 6 -11 20 -20 30 -20 21 0 27 15 10 25 -16 10 -1 25 23 25 67 0 89 -70 38 -121 -47 -47 -95 -32 -89 27 4 37 -27 46 -42 12 -15 -32 -74 -70 -102 -66 -20 3 -23 8 -22 49 0 53 33 148 44 129 4 -7 16 -10 26 -8 14 3 18 11 17 33 -3 44 -38 59 -65 28z"/>
<path d="M7993 7329 c-18 -5 -38 -19 -44 -31 -15 -28 3 -42 74 -59 61 -14 107 -35 107 -50 0 -14 -85 -50 -103 -43 -21 8 -57 -13 -57 -33 0 -35 183 19 195 58 15 46 -21 74 -128 100 -32 8 -45 15 -39 21 11 11 75 7 104 -6 20 -9 37 19 21 35 -14 14 -94 19 -130 8z"/>
<path d="M7282 7317 c-33 -15 -63 -80 -69 -149 -5 -52 -8 -58 -28 -58 -37 0 -48 24 -41 85 7 59 -7 82 -31 50 -15 -22 -17 -108 -3 -135 6 -11 28 -25 49 -31 38 -11 40 -14 46 -63 10 -73 36 -116 71 -116 9 0 3 29 -7 32 -12 4 -28 70 -29 118 0 31 5 38 36 55 66 36 131 138 116 185 -11 38 -63 50 -110 27z m73 -27 c14 -23 -9 -75 -53 -118 -52 -53 -61 -46 -43 34 16 68 74 119 96 84z"/>
<path d="M8462 7317 c-4 -7 -17 -40 -27 -75 -23 -78 -12 -98 34 -64 l30 22 3 -28 c3 -30 34 -41 65 -23 17 10 16 11 -4 17 -27 7 -28 22 -8 70 8 20 12 40 9 45 -8 13 -38 11 -52 -3 -9 -9 -12 -6 -12 14 0 28 -23 44 -38 25z"/>
<path d="M8282 7273 c-5 -10 -17 -42 -26 -70 -10 -29 -22 -53 -27 -53 -5 0 -9 -7 -9 -15 0 -22 29 -30 45 -14 17 18 66 150 59 161 -9 14 -33 9 -42 -9z"/>
<path d="M4932 7252 c-12 -32 15 -36 165 -23 185 16 223 21 223 33 0 5 -78 8 -191 6 -147 -2 -193 -6 -197 -16z"/>
<path d="M7555 7241 c-4 -7 -1 -19 6 -27 10 -12 39 -14 160 -12 187 4 203 20 29 29 -69 4 -139 10 -156 14 -20 4 -34 3 -39 -4z"/>
<path d="M5270 7179 c-19 -5 -89 -8 -154 -7 -87 2 -121 -1 -124 -10 -2 -6 9 -17 25 -23 50 -19 304 11 304 36 1 13 -11 14 -51 4z"/>
<path d="M4189 7058 c0 -2 -3 -37 -5 -78 -3 -41 -6 -86 -7 -100 -3 -40 18 -30 91 40 l67 65 3 -37 c2 -26 10 -41 24 -49 22 -12 85 -7 149 13 67 19 45 30 -46 23 l-85 -7 0 30 c0 72 -33 81 -104 27 l-45 -34 -3 52 c-2 40 -7 53 -20 55 -10 2 -18 2 -19 0z"/>
<path d="M5223 6465 c-46 -33 -93 -144 -113 -271 -18 -114 -14 -306 9 -411 22 -100 63 -193 86 -193 19 0 19 -2 -5 48 -45 92 -65 207 -64 367 1 160 16 255 54 343 26 61 67 103 80 83 9 -15 40 -8 40 8 0 12 -40 41 -55 41 -6 0 -20 -7 -32 -15z"/>
<path d="M7510 6433 c0 -3 13 -27 29 -52 61 -96 94 -213 106 -382 l7 -96 -36 -71 c-39 -78 -87 -138 -117 -147 -24 -8 -25 -25 -1 -25 35 0 98 68 141 149 46 89 51 131 30 291 -18 150 -98 340 -141 340 -10 0 -18 -3 -18 -7z"/>
<path d="M5569 6277 c-94 -71 -114 -91 -104 -107 11 -17 28 -11 51 18 25 31 39 26 26 -9 -5 -13 -13 -48 -17 -76 -6 -44 -4 -53 8 -53 17 0 27 20 27 53 0 33 46 125 86 174 32 38 37 63 15 63 -4 0 -46 -29 -92 -63z"/>
<path d="M4117 6238 c-19 -35 -51 -97 -72 -138 -21 -41 -38 -76 -39 -77 -1 -2 -16 1 -33 6 -23 7 -37 5 -50 -4 -17 -13 -16 -14 10 -24 16 -6 35 -11 44 -11 11 0 14 -6 9 -22 -4 -13 -12 -49 -17 -81 -10 -48 -9 -61 5 -82 27 -40 70 -29 141 36 33 31 45 49 45 70 0 35 -17 38 -29 7 -10 -25 -40 -54 -85 -82 -45 -28 -51 -4 -24 102 l11 43 39 -6 c43 -8 138 3 138 15 0 4 -34 10 -75 12 -42 3 -78 8 -81 11 -7 7 24 69 88 175 27 46 47 89 44 97 -11 30 -35 13 -69 -47z"/>
<path d="M4747 6183 c-2 -5 -8 -26 -11 -48 -4 -22 -21 -68 -38 -101 -29 -61 -30 -62 -59 -51 -41 16 -111 -21 -134 -70 -15 -31 -15 -36 -1 -59 9 -13 23 -24 32 -24 22 0 75 29 106 57 l27 25 43 -21 c53 -25 118 -29 118 -6 0 10 -10 15 -31 15 -29 0 -99 34 -99 47 0 4 11 25 24 48 31 52 69 163 62 181 -6 15 -32 19 -39 7z m-107 -242 c0 -13 -72 -71 -87 -71 -22 0 -14 30 13 55 26 24 74 34 74 16z"/>
<path d="M9214 6145 c-10 -25 15 -46 45 -38 36 8 37 10 16 33 -21 24 -53 26 -61 5z"/>
<path d="M9458 6133 c-2 -4 -2 -54 0 -110 3 -88 6 -103 20 -103 10 0 28 19 42 43 l25 42 5 -45 c4 -38 9 -46 29 -48 19 -3 22 0 17 13 -3 9 -6 43 -6 76 0 69 -18 86 -53 50 l-22 -21 -10 52 c-7 36 -15 54 -27 56 -9 2 -18 -1 -20 -5z"/>
<path d="M9967 6110 c-16 -19 -31 -57 -42 -107 -27 -128 -27 -128 -60 -126 -73 6 -111 46 -124 131 -5 38 -10 47 -26 47 -49 0 3 -154 63 -189 18 -10 53 -19 77 -20 l43 -1 4 -52 c5 -59 33 -112 51 -94 8 8 8 14 -1 23 -7 7 -12 39 -12 73 0 59 1 61 36 80 106 57 159 202 91 250 -35 24 -72 19 -100 -15z m83 -15 c34 -41 -15 -156 -81 -190 l-30 -16 7 28 c39 176 66 223 104 178z"/>
<path d="M6745 6112 c-53 -11 -73 -68 -33 -96 29 -20 44 -9 21 16 -17 19 -17 20 6 39 26 21 63 17 94 -9 48 -42 -22 -132 -102 -132 -35 0 -44 11 -45 54 -1 24 -6 31 -21 31 -14 0 -21 -8 -23 -25 -5 -33 -29 -59 -70 -77 -67 -28 -91 17 -60 117 10 33 11 33 19 11 11 -28 43 -24 47 6 5 37 -16 65 -46 61 -55 -6 -99 -169 -57 -211 35 -35 117 -26 166 19 14 13 18 13 29 -1 18 -22 93 -19 141 5 28 15 46 34 61 65 19 39 24 43 42 33 11 -6 52 -21 91 -33 l70 -22 -117 -37 c-108 -34 -132 -46 -110 -60 7 -4 180 43 234 65 27 11 42 34 33 50 -3 4 -38 18 -78 30 -78 22 -117 43 -117 61 0 7 15 9 45 5 47 -7 64 3 40 23 -26 22 -95 18 -114 -6 -15 -20 -17 -20 -41 -4 -27 20 -74 29 -105 22z"/>
<path d="M7424 6106 c-38 -17 -53 -52 -62 -142 l-7 -69 -34 -3 c-82 -8 -98 16 -81 125 11 67 6 89 -19 74 -17 -11 -31 -135 -19 -178 11 -42 33 -53 102 -53 48 0 55 -3 61 -22 19 -72 30 -99 47 -114 26 -24 35 -9 16 24 -9 16 -20 50 -23 78 -7 49 -7 49 40 88 45 37 84 101 85 137 0 22 -30 56 -55 63 -11 3 -34 -1 -51 -8z m62 -41 c11 -27 -6 -66 -47 -108 l-41 -42 6 58 c2 32 12 69 21 83 17 27 53 32 61 9z"/>
<path d="M4281 6064 c-35 -29 -55 -87 -40 -115 12 -24 41 -39 73 -39 43 0 30 -14 -50 -53 -93 -46 -167 -114 -190 -172 -42 -110 44 -150 159 -74 77 51 126 150 162 327 9 42 -13 51 -52 22 -55 -40 -86 8 -42 64 27 34 39 33 39 -4 0 -23 4 -30 20 -30 16 0 20 7 20 38 0 66 -44 82 -99 36z m44 -241 c-16 -88 -84 -177 -159 -208 -34 -15 -41 -15 -54 -2 -36 37 39 143 146 207 37 21 69 39 71 40 2 0 0 -17 -4 -37z"/>
<path d="M9023 6039 c-89 -34 -78 -63 32 -78 81 -12 101 -25 59 -42 -16 -6 -47 -13 -69 -16 -49 -7 -78 -21 -70 -34 9 -13 42 -11 110 6 68 18 97 40 93 69 -3 22 -40 37 -123 51 l-40 7 40 14 c24 9 55 12 81 8 28 -4 44 -2 49 6 21 34 -82 40 -162 9z"/>
<path d="M9292 6038 c-5 -7 -16 -33 -23 -57 -8 -27 -20 -46 -31 -49 -10 -2 -18 -10 -18 -17 0 -18 28 -27 49 -15 21 11 66 123 56 139 -8 14 -20 14 -33 -1z"/>
<path d="M6032 6023 c2 -13 12 -18 36 -17 199 3 212 4 212 19 0 13 -21 15 -126 15 -114 0 -125 -2 -122 -17z"/>
<path d="M5425 6011 c-56 -5 -70 -9 -73 -24 -3 -17 3 -17 90 -10 51 4 157 8 235 8 125 0 141 2 128 14 -11 12 -48 15 -162 17 -82 1 -179 -1 -218 -5z"/>
<path d="M8025 6011 c-46 -5 -61 -10 -63 -23 -4 -22 2 -22 153 -7 180 17 196 20 190 30 -7 10 -179 10 -280 0z"/>
<path d="M8523 5964 c-12 -31 15 -39 125 -38 99 1 174 16 158 31 -3 4 -57 5 -120 4 -73 -2 -116 1 -121 8 -9 16 -35 13 -42 -5z"/>
<path d="M7980 5926 c0 -10 32 -15 143 -20 134 -7 177 -4 177 14 0 9 -127 20 -237 20 -63 0 -83 -3 -83 -14z"/>
<path d="M5477 5913 c-5 -9 -57 -197 -57 -207 0 -3 9 -6 19 -6 12 0 31 18 50 48 16 26 44 60 60 76 l30 28 -2 -60 c-2 -77 13 -95 76 -95 57 1 144 43 132 63 -3 5 -26 0 -51 -11 -24 -11 -59 -19 -77 -17 l-32 3 -3 75 c-3 68 -11 89 -35 90 -4 0 -28 -19 -54 -42 -40 -38 -45 -40 -38 -18 4 14 12 31 17 37 6 7 8 20 4 28 -6 16 -31 21 -39 8z"/>
<path d="M6770 5153 c-20 -26 -22 -36 -17 -123 9 -157 27 -339 43 -450 22 -148 29 -534 14 -759 -11 -174 -11 -186 6 -198 22 -16 74 -17 125 -1 59 17 47 28 -32 28 l-71 0 8 183 c13 260 8 567 -11 710 -21 157 -49 468 -48 529 0 66 13 78 84 78 46 0 59 3 59 15 0 12 -14 15 -69 15 -64 0 -71 -2 -91 -27z"/>
<path d="M10392 5133 c3 -16 18 -18 148 -18 l144 0 7 -33 c3 -17 -2 -105 -13 -195 -17 -144 -19 -195 -12 -462 12 -429 11 -595 -5 -722 l-14 -113 -61 0 c-82 0 -138 -10 -133 -24 2 -6 28 -11 58 -12 30 0 77 -4 106 -8 28 -3 54 -2 57 2 3 5 13 70 22 143 14 114 15 177 8 429 -12 406 -8 617 15 787 20 151 17 207 -15 230 -13 9 -62 13 -167 13 -136 0 -148 -1 -145 -17z"/>
<path d="M8913 5105 c-28 -20 -52 -85 -61 -165 -6 -59 -10 -66 -36 -79 -41 -19 -60 -4 -64 49 -2 32 2 51 17 71 27 36 26 49 -2 49 -33 0 -58 -49 -60 -115 -2 -75 20 -98 85 -93 l48 3 1 -50 c1 -58 19 -127 34 -126 6 1 9 38 6 97 l-3 96 55 49 c30 27 65 68 76 92 23 48 27 107 9 125 -17 17 -79 15 -105 -3z m84 -30 c10 -26 -25 -99 -67 -140 l-40 -39 0 30 c0 42 27 130 46 149 20 19 53 19 61 0z"/>
<path d="M8122 5078 c6 -18 52 -32 74 -24 17 7 17 9 -6 21 -32 18 -73 19 -68 3z"/>
<path d="M7910 5014 c-47 -20 -70 -43 -70 -69 0 -28 17 -43 58 -51 40 -8 40 -15 2 -37 -18 -11 -30 -26 -30 -39 0 -19 4 -20 44 -15 62 9 156 46 156 62 0 19 -24 30 -95 45 -66 13 -95 26 -95 40 0 14 55 40 83 40 24 0 42 21 30 34 -11 10 -46 6 -83 -10z m85 -144 c11 -5 16 -9 10 -9 -5 -1 -20 -4 -32 -7 -17 -5 -23 -2 -23 10 0 17 14 19 45 6z"/>
<path d="M8350 4988 c0 -24 -3 -53 -6 -65 -9 -34 21 -41 52 -13 l24 23 0 -22 c0 -50 30 -72 74 -55 23 9 20 24 -4 24 -18 0 -20 7 -20 54 0 63 -15 83 -47 61 -20 -14 -22 -13 -25 7 -2 15 -11 24 -25 26 -21 3 -23 -1 -23 -40z"/>
<path d="M8165 4982 c-5 -4 -11 -18 -13 -32 -1 -14 -11 -42 -22 -64 -20 -41 -17 -69 7 -64 18 3 67 133 59 154 -6 15 -16 18 -31 6z"/>
<path d="M7251 4912 c-6 -2 -11 -11 -11 -20 0 -15 17 -17 167 -15 159 2 198 9 136 25 -32 7 -274 16 -292 10z"/>
<path d="M6196 4768 c-8 -12 -27 -54 -41 -93 -33 -88 -76 -145 -112 -145 -17 0 -27 -7 -30 -20 -7 -27 -122 -94 -197 -115 -46 -14 -64 -15 -83 -6 -22 10 -24 16 -19 44 3 19 22 47 45 69 34 32 45 37 70 32 26 -6 31 -3 31 14 0 13 -9 22 -24 26 -98 24 -221 -167 -136 -212 57 -30 185 8 307 91 68 46 93 42 93 -18 0 -54 30 -95 70 -95 57 0 79 72 35 115 -20 21 -21 25 -6 25 9 0 27 -11 39 -25 12 -14 33 -25 46 -25 26 0 36 -28 36 -99 0 -33 -4 -38 -37 -50 -20 -8 -63 -39 -95 -70 -52 -51 -58 -61 -58 -98 0 -56 21 -77 73 -70 47 6 83 31 115 77 20 30 28 54 46 133 5 21 19 33 61 53 30 15 55 30 55 35 0 12 -8 11 -57 -7 -24 -9 -46 -14 -49 -11 -3 3 -9 32 -13 64 -9 73 -15 83 -54 84 -31 2 -31 2 -4 6 20 3 27 9 25 21 -4 19 -53 29 -71 14 -16 -13 -107 -3 -107 12 0 23 29 103 63 176 20 41 33 78 31 82 -9 15 -33 8 -48 -14z m-86 -248 c0 -5 -5 -10 -11 -10 -5 0 -7 5 -4 10 3 6 8 10 11 10 2 0 4 -4 4 -10z m62 -77 c20 -18 24 -58 6 -69 -15 -10 -38 24 -38 58 0 32 6 35 32 11z m139 -251 c-14 -49 -43 -87 -83 -108 -98 -51 -67 72 36 142 57 38 65 33 47 -34z"/>
<path d="M4031 4673 c-5 -10 -14 -38 -21 -63 -7 -24 -21 -68 -31 -96 -17 -45 -22 -51 -43 -47 -73 14 -184 -129 -156 -203 20 -52 95 -14 158 81 26 39 31 43 43 29 26 -32 87 -54 149 -54 70 0 81 15 16 22 -55 7 -114 36 -138 68 -17 25 -17 27 17 115 19 50 42 103 50 118 8 16 13 33 9 38 -9 15 -43 10 -53 -8z m-116 -294 c-30 -49 -74 -99 -87 -99 -33 0 25 120 70 144 40 22 47 4 17 -45z"/>
<path d="M5074 4571 c-51 -22 -104 -132 -104 -216 0 -35 5 -47 27 -65 32 -25 59 -21 117 16 26 18 46 24 62 20 35 -9 74 15 141 89 53 57 65 65 96 65 l36 0 -19 -42 c-26 -56 -25 -85 1 -99 30 -15 104 -7 162 19 57 25 56 49 -1 28 -49 -19 -105 -28 -125 -20 -22 8 -5 60 34 100 36 38 34 70 -4 60 -12 -3 -52 -6 -90 -6 -63 0 -68 -2 -77 -26 -13 -34 -114 -134 -135 -134 -12 0 -15 5 -10 18 4 9 10 26 13 37 3 11 12 25 21 31 12 10 13 18 3 51 -6 22 -21 48 -31 57 -23 21 -87 30 -117 17z m75 -38 c28 -23 46 -93 24 -93 -8 0 -21 -16 -29 -36 -30 -72 -109 -118 -132 -78 -21 38 26 177 70 208 29 20 41 20 67 -1z"/>
<path d="M10170 4569 c-36 -4 -443 -10 -905 -13 -1220 -8 -2115 -40 -2163 -79 -25 -20 4 -29 64 -18 224 39 1211 71 2209 71 621 0 847 8 868 29 15 15 -5 18 -73 10z"/>
<path d="M11123 4498 c-53 -8 -63 -13 -63 -30 0 -23 -15 -23 168 8 56 9 102 21 102 25 0 11 -127 9 -207 -3z"/>
<path d="M4320 4492 c-14 -5 -13 -29 3 -35 13 -5 233 11 255 18 7 3 10 10 7 16 -6 9 -235 10 -265 1z"/>
<path d="M4357 4433 c-19 -18 3 -23 112 -23 124 0 181 7 181 21 0 10 -283 12 -293 2z"/>
<path d="M11026 4304 c-12 -31 4 -35 117 -29 137 8 164 12 149 27 -6 6 -51 9 -121 6 -61 -2 -111 0 -111 4 0 15 -28 8 -34 -8z"/>
<path d="M7557 4221 c-19 -26 -55 -61 -81 -77 -49 -32 -59 -54 -23 -54 13 0 29 6 36 13 10 10 11 7 7 -13 -12 -55 -11 -75 4 -75 9 0 23 26 38 70 13 39 39 90 58 114 38 50 43 71 15 71 -11 0 -33 -20 -54 -49z"/>
<path d="M9399 4082 c-26 -23 -32 -37 -39 -96 -5 -38 -6 -74 -3 -82 5 -15 -45 -44 -77 -44 -40 0 -60 18 -60 55 0 37 18 85 32 85 4 0 8 7 8 15 0 9 -9 15 -24 15 -30 0 -56 -51 -56 -109 0 -59 33 -91 95 -91 26 0 54 4 64 9 16 9 19 2 30 -55 6 -35 17 -75 23 -89 13 -29 44 -36 33 -7 -11 28 -25 112 -25 149 0 25 11 47 44 88 69 84 78 147 26 175 -28 15 -37 13 -71 -18z m66 -23 c4 -5 4 -20 1 -33 -6 -23 -65 -111 -71 -104 -7 7 14 120 25 134 15 17 36 18 45 3z"/>
<path d="M8872 4084 c-48 -33 -18 -72 72 -95 60 -15 49 -23 -65 -47 -44 -10 -80 -22 -79 -27 1 -14 94 -8 156 10 99 29 97 68 -4 98 -34 10 -62 22 -62 27 0 15 40 22 55 10 16 -13 35 -5 35 15 0 28 -72 34 -108 9z"/>
<path d="M8432 4050 c-47 -20 -68 -124 -32 -160 27 -27 67 -25 125 5 42 23 50 24 64 12 27 -25 60 -29 113 -17 97 24 148 100 97 146 -38 34 -219 29 -219 -7 0 -5 0 -11 0 -14 0 -3 -8 -19 -18 -37 -24 -44 -105 -86 -128 -67 -11 9 -14 22 -9 48 9 46 20 59 53 63 35 4 36 32 2 35 -14 1 -35 -2 -48 -7z m332 -33 c26 -19 17 -47 -23 -74 -62 -42 -157 -21 -130 28 6 12 8 27 5 34 -3 8 0 16 7 19 26 10 124 5 141 -7z"/>
<path d="M8095 3981 c-78 -5 -90 -9 -93 -25 -4 -18 1 -19 69 -13 85 6 169 25 169 38 0 5 -12 8 -27 7 -16 -1 -68 -4 -118 -7z"/>
<path d="M7600 3944 c-85 -8 -185 -13 -222 -12 -44 2 -72 -2 -80 -10 -22 -22 9 -31 86 -26 129 9 379 35 388 40 9 6 1 25 -10 23 -4 -1 -77 -8 -162 -15z"/>
<path d="M7420 3795 c-14 -17 -5 -35 16 -35 12 0 15 -15 14 -77 -2 -104 -2 -103 14 -103 7 0 29 26 49 58 19 31 46 67 60 80 l24 23 5 -46 c7 -55 28 -81 72 -89 35 -7 99 11 91 24 -3 5 -24 8 -46 7 -53 -2 -79 27 -79 88 0 80 -41 81 -112 2 l-37 -42 -1 51 c0 27 -5 55 -12 62 -16 16 -43 15 -58 -3z"/>
<path d="M6484 3200 c-29 -12 -52 -75 -70 -194 -13 -83 -14 -141 -7 -326 4 -124 6 -283 4 -355 -3 -71 -5 -161 -5 -200 l-1 -70 57 -19 c61 -19 133 -16 125 7 -2 7 -13 11 -23 10 -10 -1 -41 5 -69 13 l-50 14 0 457 c1 397 3 467 18 526 26 105 31 110 83 102 35 -5 44 -3 44 9 0 8 -3 17 -7 19 -19 11 -80 15 -99 7z"/>
<path d="M8668 3129 c-18 -10 -25 -39 -10 -39 5 0 7 -13 4 -28 -9 -61 56 -79 104 -29 34 34 38 63 15 86 -23 23 -83 28 -113 10z m85 -55 c-5 -13 -34 -34 -47 -34 -11 0 -6 26 10 48 12 18 19 20 29 12 8 -6 11 -18 8 -26z"/>
<path d="M8335 3028 c-31 -92 -56 -190 -53 -205 7 -36 31 -18 44 32 7 28 22 74 33 103 12 29 21 59 21 67 0 18 -39 20 -45 3z"/>
<path d="M8472 2989 c-12 -5 -22 -13 -22 -19 0 -5 -7 -10 -15 -10 -20 0 -35 -42 -38 -103 -2 -41 2 -52 22 -68 74 -60 215 95 154 169 -22 27 -70 42 -101 31z m63 -49 c12 -13 15 -27 11 -46 -9 -35 -59 -84 -85 -84 -18 0 -21 6 -21 39 0 53 20 97 43 93 9 -2 17 1 17 7 0 17 15 13 35 -9z"/>
<path d="M7707 2983 c-13 -13 -7 -40 13 -58 30 -27 45 -7 24 33 -15 32 -25 38 -37 25z"/>
<path d="M10588 2983 c-83 -3 -108 -7 -108 -17 0 -23 25 -26 155 -19 86 4 125 3 125 -5 0 -6 -9 -48 -20 -95 -36 -150 -79 -457 -95 -672 -8 -115 -18 -231 -21 -257 l-7 -48 -54 0 c-62 0 -70 -21 -12 -31 19 -3 43 -8 54 -12 48 -16 55 12 80 360 16 218 60 523 95 651 11 40 20 83 20 97 0 30 -35 56 -75 53 -16 -1 -78 -4 -137 -5z"/>
<path d="M7907 2893 c11 -123 33 -143 79 -73 31 47 44 51 44 12 0 -35 26 -72 51 -72 23 0 24 8 4 34 -10 13 -15 43 -15 82 0 89 -21 96 -75 23 l-30 -41 -10 49 c-9 38 -16 49 -33 51 -21 3 -21 1 -15 -65z"/>
<path d="M7503 2905 c-22 -9 -33 -21 -33 -34 0 -24 20 -36 73 -46 21 -4 36 -12 34 -19 -5 -16 -71 -48 -75 -36 -6 16 -28 11 -47 -10 -42 -46 41 -51 119 -7 74 42 74 80 1 99 -57 15 -58 30 -2 26 36 -3 42 0 42 17 0 16 -7 20 -40 22 -22 2 -55 -4 -72 -12z"/>
<path d="M6977 2903 c-24 -24 22 -64 49 -42 9 7 54 12 119 12 58 1 105 5 105 9 0 22 -253 42 -273 21z"/>
<path d="M7734 2845 c-7 -19 -14 -40 -14 -47 0 -7 -7 -26 -15 -42 -17 -31 -8 -53 18 -43 11 4 67 138 67 161 0 3 -9 6 -21 6 -13 0 -25 -11 -35 -35z"/>
<path d="M5897 2816 c-13 -13 -43 -67 -67 -120 -36 -75 -49 -95 -66 -96 -25 0 -54 -29 -54 -54 0 -34 -159 -112 -212 -104 -30 4 -35 45 -12 94 14 29 19 33 26 20 5 -9 18 -16 29 -16 18 0 20 4 14 33 -7 31 -20 47 -38 47 -21 0 -76 -69 -82 -102 -6 -33 -11 -37 -60 -53 -106 -33 -122 -10 -57 83 20 29 41 60 47 67 18 26 -9 39 -40 19 l-27 -18 -33 39 c-30 37 -34 39 -59 27 -22 -10 -26 -18 -26 -52 0 -80 -44 -136 -122 -155 -24 -6 -28 -4 -28 14 0 12 7 37 15 57 11 27 11 36 2 39 -105 35 -114 37 -149 22 -55 -23 -92 -79 -93 -140 0 -46 2 -51 26 -57 31 -9 86 9 125 39 24 19 29 20 36 6 21 -36 123 -7 180 50 29 29 32 37 43 100 l7 40 20 -28 c11 -15 26 -27 34 -27 10 0 5 -17 -18 -60 -27 -51 -29 -64 -20 -85 10 -22 18 -25 59 -25 27 0 66 9 88 18 l40 18 19 -24 c18 -22 25 -24 76 -19 58 5 121 31 177 73 45 34 51 31 39 -25 -7 -38 -7 -53 3 -65 32 -39 103 -1 122 65 16 53 29 49 29 -8 0 -45 -3 -50 -43 -77 -65 -43 -97 -91 -97 -143 0 -79 44 -133 108 -133 82 0 108 49 92 178 -6 48 -13 94 -16 104 -3 11 8 25 35 45 22 15 41 31 41 36 0 12 -25 8 -46 -8 -10 -8 -23 -15 -28 -15 -16 0 2 81 21 95 17 13 17 15 1 31 -17 17 -19 17 -40 -3 -40 -35 -48 -36 -74 -8 l-25 27 45 93 c25 52 54 103 65 114 25 25 26 37 5 45 -9 3 -24 -4 -37 -18z m-923 -255 c23 -25 13 -42 -49 -86 -78 -56 -108 -39 -69 38 32 63 85 85 118 48z m841 -21 c3 -5 1 -10 -4 -10 -6 0 -11 5 -11 10 0 6 2 10 4 10 3 0 8 -4 11 -10z m15 -59 c0 -20 -36 -71 -51 -71 -10 0 -12 34 -3 68 8 28 54 32 54 3z m79 -168 c24 -120 7 -183 -48 -183 -53 0 -91 76 -67 134 12 29 82 106 97 106 3 0 11 -26 18 -57z"/>
<path d="M11044 2681 c-34 -21 -74 -67 -74 -86 0 -7 7 -18 15 -25 18 -15 45 2 45 29 0 10 11 28 24 40 l24 22 27 -27 c27 -27 28 -27 125 -20 103 6 130 12 130 28 0 5 -45 8 -106 6 -105 -2 -107 -2 -126 25 -23 32 -42 34 -84 8z"/>
<path d="M4494 2580 c-30 -12 -36 -25 -20 -40 10 -8 20 -8 34 -1 10 5 54 13 98 16 99 8 124 13 124 25 0 12 -206 12 -236 0z"/>
<path d="M10295 2529 c-71 -3 -355 -7 -630 -8 -275 -1 -675 -6 -890 -11 -530 -13 -1431 -13 -1590 1 -137 11 -215 6 -215 -14 0 -17 176 -22 845 -22 756 0 2489 23 2579 35 39 5 74 10 79 10 4 0 7 5 7 10 0 6 -12 9 -27 8 -16 -1 -86 -5 -158 -9z"/>
<path d="M11021 2494 c-28 -25 -41 -43 -39 -57 5 -32 25 -31 43 2 8 17 28 37 44 46 27 13 33 13 77 -6 37 -17 59 -20 103 -16 80 8 131 25 131 43 0 10 -6 14 -17 10 -89 -26 -189 -24 -216 3 -24 24 -82 12 -126 -25z"/>
<path d="M4412 2478 c7 -20 60 -29 138 -24 77 5 110 13 110 25 0 4 -57 8 -126 9 -93 1 -125 -1 -122 -10z"/>
<path d="M7398 2235 c-30 -24 -72 -50 -93 -57 -45 -15 -58 -43 -25 -53 15 -5 34 1 60 19 22 14 41 26 43 26 3 0 -2 -26 -9 -57 -9 -37 -10 -61 -4 -67 16 -16 33 9 47 66 7 29 25 75 38 101 23 46 25 67 6 67 -5 0 -33 -20 -63 -45z"/>
<path d="M9900 2140 c-18 -11 -4 -57 22 -74 22 -14 66 2 85 30 12 19 12 24 -2 38 -18 17 -81 21 -105 6z m80 -25 c0 -2 -9 -9 -20 -15 -16 -9 -20 -8 -20 5 0 8 9 15 20 15 11 0 20 -2 20 -5z"/>
<path d="M9571 2005 c-40 -94 -67 -196 -58 -218 10 -26 37 -9 37 24 0 37 52 180 80 219 23 32 20 50 -10 50 -13 0 -26 -20 -49 -75z"/>
<path d="M8836 1989 c-49 -39 -78 -126 -50 -154 17 -17 70 -20 108 -6 18 7 28 6 36 -5 21 -25 91 -17 143 16 107 68 51 155 -77 119 -51 -15 -84 -47 -57 -57 16 -5 -74 -52 -101 -52 -28 0 -23 53 8 90 24 28 31 31 64 25 43 -7 58 6 34 29 -22 22 -76 20 -108 -5z m254 -74 c0 -14 -55 -65 -70 -65 -5 0 -15 -3 -24 -6 -20 -8 -40 37 -22 48 6 4 11 13 11 20 0 14 48 26 83 20 12 -3 22 -10 22 -17z"/>
<path d="M9701 1981 c-17 -11 -51 -106 -51 -141 0 -52 49 -66 108 -30 67 41 95 133 50 164 -24 17 -85 21 -107 7z m89 -36 c11 -13 10 -22 -3 -51 -15 -30 -68 -74 -89 -74 -17 0 -7 56 17 97 27 45 53 55 75 28z"/>
<path d="M9185 1971 c-12 -5 -27 -16 -34 -25 -23 -28 4 -44 99 -59 81 -13 84 -14 55 -26 -16 -7 -58 -15 -92 -18 -43 -4 -63 -10 -63 -19 0 -25 125 -14 203 18 20 8 27 17 25 32 -3 21 -38 33 -152 51 -47 8 -39 17 20 25 24 3 46 10 47 15 3 13 -81 17 -108 6z"/>
<path d="M7550 1955 c-41 -9 -314 -36 -380 -38 -59 -2 -75 -5 -75 -17 0 -24 99 -24 280 0 88 11 192 22 230 24 39 2 72 4 74 5 2 1 -2 8 -9 16 -11 14 -75 19 -120 10z"/>
<path d="M8350 1949 c-25 -4 -64 -8 -88 -8 -29 -1 -45 -6 -49 -17 -12 -33 12 -36 118 -15 57 11 123 23 147 26 23 4 42 11 42 16 0 11 -106 10 -170 -2z"/>
<path d="M7186 1758 c-76 -64 -89 -84 -60 -95 9 -3 29 7 51 28 26 25 34 28 28 14 -4 -11 -10 -39 -12 -62 -5 -34 -2 -43 10 -43 9 0 18 13 22 33 4 17 22 61 41 97 19 35 34 70 34 77 0 28 -43 10 -114 -49z"/>
<path d="M7590 1795 c-57 -15 -89 -19 -97 -13 -18 14 -30 3 -53 -49 -33 -75 -22 -101 31 -73 17 9 19 7 19 -18 0 -45 -51 -90 -64 -56 -7 18 -36 18 -36 0 0 -28 31 -48 64 -42 49 10 78 49 74 105 -3 42 -5 46 -32 51 -28 5 -29 6 -12 23 10 9 23 17 30 17 26 0 206 61 206 70 0 15 -36 11 -130 -15z"/>
<path d="M7303 1693 c-3 -10 -15 -40 -25 -67 -21 -54 -18 -87 6 -67 20 17 59 118 52 136 -7 20 -25 19 -33 -2z"/>
<path d="M5966 928 c-28 -40 -15 -88 25 -88 47 0 87 68 57 98 -20 20 -65 14 -82 -10z m44 -33 c-7 -9 -15 -13 -18 -10 -3 2 1 11 8 20 7 9 15 13 18 10 3 -2 -1 -11 -8 -20z"/>
<path d="M5340 829 c-74 -30 -101 -100 -59 -153 19 -24 20 -29 6 -44 -74 -85 -54 -181 35 -169 43 6 75 29 89 65 10 25 -9 83 -37 114 -15 15 -14 20 9 50 13 18 32 50 42 71 15 33 16 40 4 52 -20 20 -60 26 -89 14z m50 -52 c0 -12 -14 -39 -31 -60 -29 -35 -32 -37 -45 -20 -21 28 -16 60 12 82 36 28 64 27 64 -2z m-38 -174 c30 -35 31 -61 3 -89 -56 -56 -99 -1 -55 71 25 40 31 42 52 18z"/>
<path d="M5745 816 c-64 -65 -94 -198 -60 -271 23 -48 68 -75 123 -75 73 0 120 72 75 113 -29 25 -107 41 -143 29 -30 -11 -30 -11 -30 26 0 42 38 129 65 152 10 8 28 15 39 15 12 0 22 8 24 18 6 28 -63 23 -93 -7z m99 -249 c46 -34 -15 -81 -73 -57 -33 13 -56 44 -46 60 9 15 98 12 119 -3z"/>
<path d="M4955 822 c-36 -9 -43 -32 -16 -56 23 -21 56 -14 47 9 -7 20 37 20 54 0 21 -25 -6 -68 -96 -154 -46 -43 -84 -84 -84 -90 0 -20 39 -31 107 -31 78 0 115 8 110 23 -2 6 -17 11 -33 12 -16 1 -51 2 -79 3 l-50 2 77 78 c82 83 98 107 98 145 0 47 -64 75 -135 59z"/>
<path d="M4386 719 c-15 -12 -26 -30 -26 -45 0 -21 5 -24 34 -24 39 0 62 20 44 38 -7 7 -8 12 -2 12 6 0 20 -13 32 -30 25 -34 79 -53 136 -48 50 4 62 28 13 28 -53 0 -93 18 -122 56 -31 40 -68 45 -109 13z"/>
<path d="M5502 500 c-28 -63 -29 -91 -2 -75 17 10 80 126 75 136 -4 5 -14 9 -24 9 -13 0 -27 -21 -49 -70z"/>
<path d="M4401 546 c-28 -15 -51 -54 -44 -73 8 -21 43 -16 43 6 0 33 25 44 90 37 33 -3 86 -9 119 -12 62 -7 111 12 111 42 0 18 -6 18 -41 -3 -26 -15 -35 -16 -86 -4 -86 21 -164 23 -192 7z"/>
</g><g transform="translate(1177.600903, 1013.6048205993843) scale(0.40808740102544044)"><g transform="translate(-57.706759,297.537395) scale(0.100000,-0.100000)" fill="#4444bb" stroke="none">
<path d="M750 2973 c-57 -10 -88 -25 -119 -57 -40 -41 -55 -100 -46 -179 6 -45 12 -61 32 -77 32 -25 35 -25 64 -1 22 17 24 26 21 89 -4 105 24 120 164 87 33 -7 119 -19 190 -25 88 -8 134 -16 144 -26 32 -32 8 -420 -28 -456 -18 -18 -126 -28 -289 -28 -185 0 -206 -4 -250 -52 -55 -58 -58 -82 -55 -363 1 -145 7 -274 13 -293 11 -34 51 -62 89 -62 12 0 35 14 52 31 l31 30 -6 238 c-3 130 -3 249 0 264 l5 27 112 0 c234 1 363 26 423 82 58 54 98 260 91 463 -4 122 -7 138 -34 191 -40 81 -79 100 -217 108 -174 10 -361 14 -387 9z" fill="#4444bb"/>
<path d="M3660 2971 c-42 -9 -83 -34 -103 -65 -39 -59 -50 -127 -54 -343 -5 -206 -5 -212 18 -252 28 -50 78 -86 143 -102 48 -12 257 -8 370 7 l49 7 -7 -104 c-4 -57 -11 -189 -16 -294 -9 -177 -9 -192 8 -214 35 -47 100 -46 136 2 22 29 27 86 42 452 7 191 0 235 -44 283 -45 48 -92 56 -241 38 -146 -18 -229 -20 -265 -6 l-26 10 0 162 c0 156 8 230 27 249 5 5 99 6 210 2 l201 -6 5 -50 c3 -39 11 -56 31 -74 34 -29 48 -29 80 0 24 20 26 30 28 113 4 147 -23 169 -218 179 -242 11 -340 13 -374 6z" fill="#4444bb"/>
<path d="M1565 2945 c-14 -13 -25 -32 -25 -42 0 -10 -1 -297 -3 -638 -2 -677 -3 -662 55 -694 33 -19 73 -7 101 31 18 24 20 51 29 300 5 150 10 278 12 283 2 6 37 8 97 3 52 -3 135 -7 186 -7 154 -2 161 -10 143 -176 -21 -189 -27 -310 -18 -343 12 -45 45 -72 86 -72 71 0 102 46 102 151 0 33 7 118 16 187 24 190 9 280 -58 349 -50 52 -112 67 -263 65 -71 -1 -164 -6 -205 -11 -41 -4 -78 -7 -81 -5 -4 2 -10 108 -13 236 -9 286 -17 352 -47 384 -31 33 -82 32 -114 -1z" fill="#4444bb"/>
<path d="M2542 2944 c-55 -38 -64 -109 -53 -419 6 -186 9 -215 28 -250 50 -95 116 -125 302 -135 75 -4 171 -5 215 -1 l78 7 -4 -178 c-2 -97 -7 -181 -11 -184 -4 -4 -42 1 -85 11 -104 26 -285 27 -363 3 -106 -33 -149 -107 -99 -170 26 -34 68 -41 132 -21 74 23 202 20 308 -7 182 -47 274 5 301 168 12 77 27 831 19 994 -7 152 -20 181 -86 186 -88 7 -103 -51 -104 -401 l0 -219 -201 4 c-197 3 -201 3 -220 27 -18 21 -19 42 -19 283 l0 260 -29 29 c-33 33 -74 38 -109 13z" fill="#4444bb"/>
<path d="M2374 1391 c-55 -34 -79 -78 -79 -147 0 -51 4 -66 27 -96 35 -45 102 -73 153 -64 78 15 146 111 131 188 -20 108 -145 172 -232 119z" fill="#4444bb"/>
<path d="M1853 999 c-39 -11 -66 -56 -61 -101 6 -59 69 -64 76 -6 4 30 34 38 145 38 l67 0 0 -110 c0 -135 -1 -136 -132 -126 -85 6 -89 6 -113 -18 -24 -25 -25 -28 -25 -179 0 -162 4 -177 47 -177 35 0 43 29 43 159 l0 121 73 0 c85 0 141 14 168 41 17 17 19 34 19 169 0 147 -1 152 -25 175 -23 24 -30 25 -137 24 -62 0 -128 -5 -145 -10z" fill="#4444bb"/>
<path d="M2985 1000 c-91 -16 -93 -18 -104 -58 -15 -51 -14 -537 0 -564 19 -36 69 -48 204 -48 121 0 127 1 151 25 l24 24 -2 292 -3 292 -26 19 c-31 23 -161 33 -244 18z m169 -86 c14 -5 16 -37 16 -250 l0 -245 -102 3 -103 3 0 240 0 240 40 6 c57 9 131 10 149 3z" fill="#4444bb"/>
<path d="M2351 971 c-24 -24 -29 -73 -37 -372 -6 -232 -6 -237 15 -258 23 -23 29 -25 51 -11 12 7 16 40 20 150 l5 141 35 -23 c19 -13 59 -55 88 -93 30 -39 78 -96 108 -128 47 -51 56 -57 74 -47 29 16 25 42 -15 92 -19 24 -62 78 -95 121 -61 77 -61 77 -33 77 15 0 46 9 69 19 56 26 67 57 62 179 -6 156 -27 172 -220 172 -93 0 -111 -3 -127 -19z m257 -74 c16 -13 17 -168 0 -185 -7 -7 -41 -12 -84 -12 -40 0 -84 -4 -98 -10 l-26 -10 0 120 0 119 98 -6 c53 -3 103 -10 110 -16z" fill="#4444bb"/>
</g>
</g>
</svg>
