<?xml version="1.0" encoding="UTF-8" standalone="no"?>
<svg
   width="301.31519pt"
   height="277.50439pt"
   viewBox="0 0 301.31517 277.50439"
   version="1.1"
   id="svg40"
   sodipodi:docname="316t.svg"
   inkscape:version="1.3 (0e150ed, 2023-07-21)"
   xmlns:inkscape="http://www.inkscape.org/namespaces/inkscape"
   xmlns:sodipodi="http://sodipodi.sourceforge.net/DTD/sodipodi-0.dtd"
   xmlns:xlink="http://www.w3.org/1999/xlink"
   xmlns="http://www.w3.org/2000/svg"
   xmlns:svg="http://www.w3.org/2000/svg"
   xmlns:rdf="http://www.w3.org/1999/02/22-rdf-syntax-ns#"
   xmlns:cc="http://creativecommons.org/ns#"
   xmlns:dc="http://purl.org/dc/elements/1.1/">
  <sodipodi:namedview
     id="namedview40"
     pagecolor="#ffffff"
     bordercolor="#000000"
     borderopacity="0.25"
     inkscape:showpageshadow="2"
     inkscape:pageopacity="0.0"
     inkscape:pagecheckerboard="0"
     inkscape:deskcolor="#d1d1d1"
     inkscape:document-units="pt"
     inkscape:zoom="0.59240695"
     inkscape:cx="196.65536"
     inkscape:cy="180.61908"
     inkscape:window-width="1312"
     inkscape:window-height="449"
     inkscape:window-x="0"
     inkscape:window-y="25"
     inkscape:window-maximized="0"
     inkscape:current-layer="svg40" />
  <metadata
     id="metadata1">
    <rdf:RDF>
      <cc:Work>
        <dc:type
           rdf:resource="http://purl.org/dc/dcmitype/StillImage" />
        <dc:date>2023-12-27T15:25:18.112426</dc:date>
        <dc:format>image/svg+xml</dc:format>
        <dc:creator>
          <cc:Agent>
            <dc:title>Matplotlib v3.7.1, https://matplotlib.org/</dc:title>
          </cc:Agent>
        </dc:creator>
      </cc:Work>
    </rdf:RDF>
  </metadata>
  <defs
     id="defs1">
    <style
       type="text/css"
       id="style1">*{stroke-linejoin: round; stroke-linecap: butt}</style>
  </defs>
  <g
     id="matplotlib.axis_1"
     transform="translate(-8.2759651,-14.039774)">
    <g
       id="xtick_1">
      <g
         id="line2d_1">
        <defs
           id="defs2">
          <path
             id="m29efcdc311"
             d="M 0,0 V 6"
             style="stroke:#000000;stroke-width:1.5" />
        </defs>
        <g
           id="g2">
          <use
             xlink:href="#m29efcdc311"
             x="152.29298"
             y="258.99207"
             style="stroke:#000000;stroke-width:1.5"
             id="use2" />
        </g>
      </g>
    </g>
    <g
       id="xtick_2">
      <g
         id="line2d_2">
        <g
           id="g3">
          <use
             xlink:href="#m29efcdc311"
             x="201.11092"
             y="258.99207"
             style="stroke:#000000;stroke-width:1.5"
             id="use3" />
        </g>
      </g>
    </g>
  </g>
  <g
     id="matplotlib.axis_2"
     transform="translate(-8.2759651,-14.039774)">
    <g
       id="ytick_1">
      <g
         id="line2d_3">
        <defs
           id="defs3">
          <path
             id="mbcb60e4735"
             d="M 0,0 H -6"
             style="stroke:#000000;stroke-width:1.5" />
        </defs>
        <g
           id="g4">
          <use
             xlink:href="#mbcb60e4735"
             x="54.657108"
             y="161.3562"
             style="stroke:#000000;stroke-width:1.5"
             id="use4" />
        </g>
      </g>
    </g>
    <g
       id="ytick_2">
      <g
         id="line2d_4">
        <g
           id="g5">
          <use
             xlink:href="#mbcb60e4735"
             x="54.657108"
             y="63.720322"
             style="stroke:#000000;stroke-width:1.5"
             id="use5" />
        </g>
      </g>
    </g>
  </g>
  <g
     id="line2d_5"
     transform="translate(-8.2759651,-14.039774)">
    <path
       d="m 152.29298,161.3562 v -0.98622 -0.98623 -0.98622 -0.98622 -0.98622 -0.98622 -0.98622 -0.98622 -0.98622 -0.98622 -0.98622 -0.98622 -0.98623 -0.98622 -0.98622 -0.98622 -0.98622 -0.98622 -0.98622 -0.98622 -0.98622 -0.98622 -0.98623 -0.98622 -0.98622 -0.98622 -0.98622 -0.98622 -0.98622 -0.98622 -0.98622 -0.98622 -0.98622 -0.98622 -0.98623 -0.98622 -0.98622 -0.98622 -0.98622 -0.98622 -0.98622 -0.98622 -0.98622 -0.98623 -0.98622 -0.98622 -0.98622 -0.98622 -0.98622 -0.98622 -0.98622 -0.98622 -0.98622 -0.98622 -0.98622 -0.98623 -0.98622 -0.98622 -0.98622 -0.98622 -0.98622 -0.98622 -0.986223 -0.986221 -0.986221 -0.986221 -0.986221 -0.986221 -0.986221 -0.98622 V 91.33451 90.348289 89.362068 88.375847 87.389626 86.403405 85.417184 84.430963 83.444742 82.458521 81.4723 80.486079 79.499858 78.513637 77.527416 76.541195 75.554974 74.568753 73.582532 72.596311 71.610091 70.62387 69.637649 68.651428 67.665207 66.678986 65.692765 64.706544 63.720323"
       clip-path="url(#p0a401e364c)"
       style="fill:none;stroke:#000000;stroke-width:2;stroke-linecap:square"
       id="path5" />
  </g>
  <g
     id="line2d_6"
     transform="translate(-8.2759651,-14.039774)">
    <path
       d="m 152.29298,161.3562 v -0.98622 -0.98623 -0.98622 -0.98622 -0.98622 -0.98622 -0.98622 -0.98622 -0.98622 -0.98622 -0.98622 -0.98622 -0.98623 -0.98622 -0.98622 -0.98622 -0.98622 -0.98622 -0.98622 -0.98622 -0.98622 -0.98622 -0.98623 -0.98622 -0.98622 -0.98622 -0.98622 -0.98622 -0.98622 -0.98622 -0.98622 -0.98622 -0.98622 -0.98622 -0.98623 -0.98622 -0.98622 -0.98622 -0.98622 -0.98622 -0.98622 -0.98622 -0.98622 -0.98623 -0.98622 -0.98622 -0.98622 -0.98622 -0.98622 -0.98622 -0.98622 -0.98622 -0.98622 -0.98622 -0.98622 -0.98623 -0.98622 -0.98622 -0.98622 -0.98622 -0.98622 -0.98622 -0.986223 -0.986221 -0.986221 -0.986221 -0.986221 -0.986221 -0.986221 -0.98622 V 91.33451 90.348289 89.362068 88.375847 87.389626 86.403405 85.417184 84.430963 83.444742 82.458521 81.4723 80.486079 79.499858 78.513637 77.527416 76.541195 75.554974 74.568753 73.582532 72.596311 71.610091 70.62387 69.637649 68.651428 67.665207 66.678986 65.692765 64.706544 63.720323"
       clip-path="url(#p0a401e364c)"
       style="fill:none;stroke:#000000;stroke-width:2;stroke-linecap:square"
       id="path6" />
  </g>
  <g
     id="line2d_7"
     transform="translate(-8.2759651,-14.039774)">
    <path
       d="M 152.29298,161.3562"
       clip-path="url(#p0a401e364c)"
       style="fill:none;stroke:#000000;stroke-width:1.5;stroke-linecap:square"
       id="path7" />
    <defs
       id="defs7">
      <path
         id="me71554b0f4"
         d="M 0,2.75 C 0.729309,2.75 1.428845,2.460243 1.944544,1.944544 2.460243,1.428845 2.75,0.729309 2.75,0 2.75,-0.729309 2.460243,-1.428845 1.944544,-1.944544 1.428845,-2.460243 0.729309,-2.75 0,-2.75 c -0.729309,0 -1.428845,0.289757 -1.944544,0.805456 C -2.460243,-1.428845 -2.75,-0.729309 -2.75,0 c 0,0.729309 0.289757,1.428845 0.805456,1.944544 C -1.428845,2.460243 -0.729309,2.75 0,2.75 Z"
         style="stroke:#000000" />
    </defs>
    <g
       clip-path="url(#p0a401e364c)"
       id="g7">
      <use
         xlink:href="#me71554b0f4"
         x="152.29298"
         y="161.3562"
         style="stroke:#000000"
         id="use7" />
    </g>
  </g>
  <g
     id="line2d_8"
     transform="translate(-8.2759651,-14.039774)">
    <path
       d="M 152.29298,63.720323"
       clip-path="url(#p0a401e364c)"
       style="fill:none;stroke:#000000;stroke-width:1.5;stroke-linecap:square"
       id="path8" />
    <g
       clip-path="url(#p0a401e364c)"
       id="g8">
      <use
         xlink:href="#me71554b0f4"
         x="152.29298"
         y="63.720322"
         style="stroke:#000000"
         id="use8" />
    </g>
  </g>
  <g
     id="line2d_9"
     transform="translate(-8.2759651,-14.039774)">
    <path
       d="m 152.29298,63.720323 0.49311,0.986221 0.49311,0.986221 0.49311,0.986221 0.49311,0.986221 0.49311,0.986221 0.49311,0.986221 0.49312,0.986221 0.49311,0.986221 0.49311,0.98622 0.49311,0.986221 0.49311,0.986221 0.49311,0.986221 0.49311,0.986221 0.49311,0.986221 0.49311,0.986221 0.49311,0.986221 0.49311,0.986221 0.49311,0.986221 0.49311,0.986221 0.49311,0.986221 0.49311,0.986221 0.49311,0.986221 0.49311,0.986221 0.49311,0.986221 0.49311,0.986221 0.49311,0.986221 0.49311,0.986221 0.49312,0.986221 0.49311,0.986221 0.49311,0.98622 0.49311,0.986221 0.49311,0.986221 0.49311,0.986221 0.49311,0.986221 0.49311,0.986221 0.49311,0.986221 0.49311,0.986223 0.49311,0.98622 0.49311,0.98622 0.49311,0.98622 0.49311,0.98622 0.49311,0.98622 0.49311,0.98622 0.49311,0.98623 0.49311,0.98622 0.49311,0.98622 0.49311,0.98622 0.49311,0.98622 0.49312,0.98622 0.49311,0.98622 0.49311,0.98622 0.49311,0.98622 0.49311,0.98622 0.49311,0.98622 0.49311,0.98622 0.49311,0.98623 0.49311,0.98622 0.49311,0.98622 0.49311,0.98622 0.49311,0.98622 0.49311,0.98622 0.49311,0.98622 0.49311,0.98622 0.49311,0.98622 0.49311,0.98623 0.49311,0.98622 0.49311,0.98622 0.49312,0.98622 0.4931,0.98622 0.49312,0.98622 0.49311,0.98622 0.49311,0.98622 0.49311,0.98622 0.49311,0.98622 0.49311,0.98622 0.49311,0.98622 0.49311,0.98623 0.49311,0.98622 0.49311,0.98622 0.49311,0.98622 0.49311,0.98622 0.49311,0.98622 0.49311,0.98622 0.49311,0.98622 0.49311,0.98622 0.49311,0.98622 0.49311,0.98623 0.49311,0.98622 0.49311,0.98622 0.49311,0.98622 0.49312,0.98622 0.49311,0.98622 0.49311,0.98622 0.49311,0.98622 0.49311,0.98622 0.49311,0.98622 0.49311,0.98622 0.49311,0.98623 0.49311,0.98622"
       clip-path="url(#p0a401e364c)"
       style="fill:none;stroke:#000000;stroke-width:2;stroke-linecap:square"
       id="path9" />
  </g>
  <g
     id="line2d_10"
     transform="translate(-8.2759651,-14.039774)">
    <path
       d="m 152.29298,63.720323 0.49311,0.986221 0.49311,0.986221 0.49311,0.986221 0.49311,0.986221 0.49311,0.986221 0.49311,0.986221 0.49312,0.986221 0.49311,0.986221 0.49311,0.98622 0.49311,0.986221 0.49311,0.986221 0.49311,0.986221 0.49311,0.986221 0.49311,0.986221 0.49311,0.986221 0.49311,0.986221 0.49311,0.986221 0.49311,0.986221 0.49311,0.986221 0.49311,0.986221 0.49311,0.986221 0.49311,0.986221 0.49311,0.986221 0.49311,0.986221 0.49311,0.986221 0.49311,0.986221 0.49311,0.986221 0.49312,0.986221 0.49311,0.986221 0.49311,0.98622 0.49311,0.986221 0.49311,0.986221 0.49311,0.986221 0.49311,0.986221 0.49311,0.986221 0.49311,0.986221 0.49311,0.986223 0.49311,0.98622 0.49311,0.98622 0.49311,0.98622 0.49311,0.98622 0.49311,0.98622 0.49311,0.98622 0.49311,0.98623 0.49311,0.98622 0.49311,0.98622 0.49311,0.98622 0.49311,0.98622 0.49312,0.98622 0.49311,0.98622 0.49311,0.98622 0.49311,0.98622 0.49311,0.98622 0.49311,0.98622 0.49311,0.98622 0.49311,0.98623 0.49311,0.98622 0.49311,0.98622 0.49311,0.98622 0.49311,0.98622 0.49311,0.98622 0.49311,0.98622 0.49311,0.98622 0.49311,0.98622 0.49311,0.98623 0.49311,0.98622 0.49311,0.98622 0.49312,0.98622 0.4931,0.98622 0.49312,0.98622 0.49311,0.98622 0.49311,0.98622 0.49311,0.98622 0.49311,0.98622 0.49311,0.98622 0.49311,0.98622 0.49311,0.98623 0.49311,0.98622 0.49311,0.98622 0.49311,0.98622 0.49311,0.98622 0.49311,0.98622 0.49311,0.98622 0.49311,0.98622 0.49311,0.98622 0.49311,0.98622 0.49311,0.98623 0.49311,0.98622 0.49311,0.98622 0.49311,0.98622 0.49312,0.98622 0.49311,0.98622 0.49311,0.98622 0.49311,0.98622 0.49311,0.98622 0.49311,0.98622 0.49311,0.98622 0.49311,0.98623 0.49311,0.98622"
       clip-path="url(#p0a401e364c)"
       style="fill:none;stroke:#000000;stroke-width:2;stroke-linecap:square"
       id="path10" />
  </g>
  <g
     id="line2d_11"
     transform="translate(-8.2759651,-14.039774)">
    <path
       d="M 201.11092,161.3562"
       clip-path="url(#p0a401e364c)"
       style="fill:none;stroke:#000000;stroke-width:1.5;stroke-linecap:square"
       id="path11" />
    <g
       clip-path="url(#p0a401e364c)"
       id="g11">
      <use
         xlink:href="#me71554b0f4"
         x="201.11092"
         y="161.3562"
         style="stroke:#000000"
         id="use11" />
    </g>
  </g>
  <g
     id="line2d_12"
     transform="translate(-8.2759651,-14.039774)">
    <path
       d="m 201.11092,161.3562 h -0.49311 -0.49311 -0.49311 -0.49311 -0.49311 -0.49311 -0.49311 -0.49311 -0.49312 -0.49311 -0.49311 -0.49311 -0.49311 -0.49311 -0.49311 -0.49311 -0.49311 -0.49311 -0.49311 -0.49311 -0.49311 -0.49311 -0.49311 -0.49311 -0.49311 -0.49311 -0.49311 -0.49311 -0.49311 -0.49312 -0.4931 -0.49312 -0.49311 -0.49311 -0.49311 -0.49311 -0.49311 -0.49311 -0.49311 -0.49311 -0.49311 -0.49311 -0.49311 -0.49311 -0.49311 -0.49311 -0.49311 -0.49311 -0.49311 -0.49311 -0.49312 -0.49311 -0.49311 -0.49311 -0.49311 -0.49311 -0.49311 -0.49311 -0.49311 -0.49311 -0.49311 -0.49311 -0.49311 -0.49311 -0.49311 -0.49311 -0.49311 -0.49311 -0.49311 -0.49311 -0.49311 -0.49312 -0.49311 -0.49311 -0.49311 -0.49311 -0.49311 -0.49311 -0.49311 -0.49311 -0.49311 -0.49311 -0.49311 -0.49311 -0.49311 -0.49311 -0.49311 -0.49311 -0.49311 -0.49311 -0.49311 -0.49311 -0.49312 -0.49311 -0.49311 -0.49311 -0.49311 -0.49311 -0.49311"
       clip-path="url(#p0a401e364c)"
       style="fill:none;stroke:#000000;stroke-width:2;stroke-linecap:square"
       id="path12" />
  </g>
  <g
     id="line2d_13"
     transform="translate(-8.2759651,-14.039774)">
    <path
       d="m 201.11092,161.3562 h -0.49311 -0.49311 -0.49311 -0.49311 -0.49311 -0.49311 -0.49311 -0.49311 -0.49312 -0.49311 -0.49311 -0.49311 -0.49311 -0.49311 -0.49311 -0.49311 -0.49311 -0.49311 -0.49311 -0.49311 -0.49311 -0.49311 -0.49311 -0.49311 -0.49311 -0.49311 -0.49311 -0.49311 -0.49311 -0.49312 -0.4931 -0.49312 -0.49311 -0.49311 -0.49311 -0.49311 -0.49311 -0.49311 -0.49311 -0.49311 -0.49311 -0.49311 -0.49311 -0.49311 -0.49311 -0.49311 -0.49311 -0.49311 -0.49311 -0.49311 -0.49312 -0.49311 -0.49311 -0.49311 -0.49311 -0.49311 -0.49311 -0.49311 -0.49311 -0.49311 -0.49311 -0.49311 -0.49311 -0.49311 -0.49311 -0.49311 -0.49311 -0.49311 -0.49311 -0.49311 -0.49311 -0.49312 -0.49311 -0.49311 -0.49311 -0.49311 -0.49311 -0.49311 -0.49311 -0.49311 -0.49311 -0.49311 -0.49311 -0.49311 -0.49311 -0.49311 -0.49311 -0.49311 -0.49311 -0.49311 -0.49311 -0.49311 -0.49312 -0.49311 -0.49311 -0.49311 -0.49311 -0.49311 -0.49311"
       clip-path="url(#p0a401e364c)"
       style="fill:none;stroke:#000000;stroke-width:2;stroke-linecap:square"
       id="path13" />
  </g>
  <g
     id="line2d_14"
     transform="translate(-8.2759651,-14.039774)">
    <path
       d="M 152.29298,161.3562"
       clip-path="url(#p0a401e364c)"
       style="fill:none;stroke:#000000;stroke-width:1.5;stroke-linecap:square"
       id="path14" />
    <g
       clip-path="url(#p0a401e364c)"
       id="g14">
      <use
         xlink:href="#me71554b0f4"
         x="152.29298"
         y="161.3562"
         style="stroke:#000000"
         id="use14" />
    </g>
  </g>
  <g
     id="line2d_15"
     transform="translate(-8.2759651,-14.039774)">
    <path
       d="m 152.29298,161.3562 v 97.63587"
       clip-path="url(#p0a401e364c)"
       style="fill:none;stroke:#000000;stroke-width:1.6;stroke-dasharray:5.92, 2.56;stroke-dashoffset:0"
       id="path15" />
  </g>
  <g
     id="line2d_16"
     transform="translate(-8.2759651,-14.039774)">
    <path
       d="M 152.29298,161.3562 H 54.657108"
       clip-path="url(#p0a401e364c)"
       style="fill:none;stroke:#000000;stroke-width:1.6;stroke-dasharray:5.92, 2.56;stroke-dashoffset:0"
       id="path16" />
  </g>
  <g
     id="line2d_17"
     transform="translate(-8.2759651,-14.039774)">
    <path
       d="M 152.29298,63.720323 H 54.657108"
       clip-path="url(#p0a401e364c)"
       style="fill:none;stroke:#000000;stroke-width:1.6;stroke-dasharray:5.92, 2.56;stroke-dashoffset:0"
       id="path17" />
  </g>
  <g
     id="line2d_18"
     transform="translate(-8.2759651,-14.039774)">
    <path
       d="m 201.11092,161.3562 v 97.63587"
       clip-path="url(#p0a401e364c)"
       style="fill:none;stroke:#000000;stroke-width:1.6;stroke-dasharray:5.92, 2.56;stroke-dashoffset:0"
       id="path18" />
  </g>
  <g
     id="patch_3"
     transform="translate(-8.2759651,-14.039774)">
    <path
       d="m 152.29298,103.14268 q 0,-1.45367 0,-1.32619"
       clip-path="url(#p0a401e364c)"
       style="fill:none;stroke:#000000;stroke-linecap:round"
       id="path19" />
    <path
       d="m 147.89298,115.01649 4.4,-13.2 4.4,13.2 z"
       clip-path="url(#p0a401e364c)"
       style="stroke:#000000;stroke-linecap:round"
       id="path20" />
  </g>
  <g
     id="patch_4"
     transform="translate(-8.2759651,-14.039774)">
    <path
       d="m 183.7608,126.65596 q 0.83084,1.66167 0.95457,1.90913"
       clip-path="url(#p0a401e364c)"
       style="fill:none;stroke:#000000;stroke-linecap:round"
       id="path21" />
    <path
       d="m 182.74763,114.79091 1.96774,13.77418 -9.8387,-9.8387 z"
       clip-path="url(#p0a401e364c)"
       style="stroke:#000000;stroke-linecap:round"
       id="path22" />
  </g>
  <g
     id="patch_5"
     transform="translate(-8.2759651,-14.039774)">
    <path
       d="m 168.53914,161.3562 q -0.72642,0 0.12829,0"
       clip-path="url(#p0a401e364c)"
       style="fill:none;stroke:#000000;stroke-linecap:round"
       id="path23" />
    <path
       d="m 181.86743,165.7562 -13.2,-4.4 13.2,-4.4 z"
       clip-path="url(#p0a401e364c)"
       style="stroke:#000000;stroke-linecap:round"
       id="path24" />
  </g>
  <g
     id="text_1"
     transform="translate(-8.2759651,-14.039774)">
    <!-- 1 -->
    <g
       transform="matrix(0.27,0,0,-0.27,135.30347,189.77485)"
       id="g24">
      <defs
         id="defs24">
        <path
           id="SFRM3583-31"
           d="m 608,3635 c 90,13 186,13 275,26 173,32 327,90 474,180 V 416 c 0,-243 -218,-281 -442,-281 -96,0 -192,0 -275,0 V 0 h 1709 v 135 c -90,0 -186,0 -282,0 -230,0 -435,38 -435,281 v 3724 c 0,19 -6,52 -26,52 -51,0 -160,-136 -230,-188 -192,-138 -442,-222 -666,-222 h -38 c -38,0 -64,-6 -64,-51 z"
           transform="scale(0.015625)" />
      </defs>
      <use
         xlink:href="#SFRM3583-31"
         transform="scale(0.996264)"
         id="use24" />
    </g>
  </g>
  <g
     id="text_2"
     transform="translate(-8.2759651,-14.039774)">
    <!-- $V_0$ -->
    <g
       transform="matrix(0.27,0,0,-0.27,140.29787,286.34621)"
       id="g26">
      <defs
         id="defs25">
        <path
           id="CMMI12-56"
           d="m 3962,3640 c 217,344 416,496 742,522 64,6 115,6 115,120 0,26 -13,64 -70,64 -115,0 -391,0 -506,0 -185,0 -377,0 -557,0 -51,0 -115,0 -115,-120 0,-58 58,-64 83,-64 237,-19 263,-133 263,-210 0,-95 -90,-242 -96,-248 L 1811,540 1363,3969 c 0,191 333,191 403,191 96,0 154,0 154,122 0,64 -70,64 -90,64 -108,0 -236,0 -345,0 h -359 c -467,0 -659,0 -665,0 -39,0 -115,0 -115,-116 0,-70 44,-70 147,-70 326,0 345,-58 365,-216 L 1370,24 c 19,-133 19,-152 108,-152 77,0 109,19 173,120 z"
           transform="scale(0.015625)" />
        <path
           id="CMR17-30"
           d="m 2688,2025 c 0,391 -6,1055 -275,1566 -237,448 -615,607 -947,607 -308,0 -698,-140 -941,-601 C 269,3118 243,2524 243,2025 c 0,-364 7,-919 205,-1406 275,-658 768,-747 1018,-747 294,0 742,121 1004,728 192,442 218,959 218,1425 z M 1466,-26 c -410,0 -653,351 -743,838 -70,376 -70,926 -70,1284 0,492 0,901 83,1291 122,542 480,709 730,709 262,0 601,-173 723,-696 83,-364 89,-793 89,-1304 0,-416 0,-927 -76,-1304 C 2067,95 1690,-26 1466,-26 Z"
           transform="scale(0.015625)" />
      </defs>
      <use
         xlink:href="#CMMI12-56"
         transform="scale(0.996264)"
         id="use25" />
      <use
         xlink:href="#CMR17-30"
         transform="matrix(0.697382,0,0,0.697382,56.869579,-14.943915)"
         id="use26" />
    </g>
  </g>
  <g
     id="text_3"
     transform="translate(-8.2759651,-14.039774)">
    <!-- $p_0$ -->
    <g
       transform="matrix(0.27,0,0,-0.27,24.123855,168.07798)"
       id="g28">
      <defs
         id="defs26">
        <path
           id="CMMI12-70"
           d="m 275,-789 c -45,-191 -70,-242 -333,-242 -76,0 -140,0 -140,-121 0,-13 6,-64 76,-64 84,0 173,0 256,0 h 276 c 134,0 460,0 595,0 38,0 115,0 115,115 0,70 -45,70 -154,70 -294,0 -313,44 -313,94 0,76 288,1156 326,1301 71,-179 243,-428 576,-428 723,0 1504,939 1504,1878 0,587 -333,1002 -813,1002 -409,0 -755,-396 -825,-485 -51,319 -301,485 -557,485 -186,0 -333,-89 -454,-332 -116,-230 -205,-619 -205,-645 0,-25 25,-57 70,-57 51,0 58,6 96,153 96,377 218,754 474,754 147,0 198,-102 198,-292 0,-152 -19,-216 -45,-330 z m 1107,2782 c 45,178 224,364 327,453 70,64 281,243 525,243 281,0 409,-281 409,-613 C 2643,1769 2464,1047 2304,715 2144,370 1850,64 1555,64 c -435,0 -505,549 -505,575 0,19 12,70 19,102 z"
           transform="scale(0.015625)" />
      </defs>
      <use
         xlink:href="#CMMI12-70"
         transform="scale(0.996264)"
         id="use27" />
      <use
         xlink:href="#CMR17-30"
         transform="matrix(0.697382,0,0,0.697382,48.959514,-14.943915)"
         id="use28" />
    </g>
  </g>
  <g
     id="text_4"
     transform="translate(-8.2759651,-14.039774)">
    <!-- 2 -->
    <g
       transform="matrix(0.27,0,0,-0.27,159.17002,59.59368)"
       id="g29">
      <defs
         id="defs28">
        <path
           id="SFRM3583-32"
           d="m 390,3156 c 52,471 384,927 896,927 557,0 948,-477 948,-1017 v -52 C 2195,2357 1754,1835 1344,1365 L 352,213 C 320,168 288,142 288,64 V 0 h 2150 l 135,907 h -83 c -52,-297 -26,-612 -295,-612 -166,0 -333,-19 -499,-19 -96,0 -186,0 -275,0 H 512 c 326,361 653,736 1005,1077 473,471 1056,981 1056,1710 0,735 -583,1161 -1223,1161 -544,0 -921,-445 -1024,-921 l -19,-96 c -6,-59 -19,-129 -19,-193 0,-123 45,-246 230,-246 109,20 180,104 180,200 0,103 -77,207 -192,207 -39,0 -77,-4 -116,-19 z"
           transform="scale(0.015625)" />
      </defs>
      <use
         xlink:href="#SFRM3583-32"
         transform="scale(0.996264)"
         id="use29" />
    </g>
  </g>
  <g
     id="text_5"
     transform="translate(-8.2759651,-14.039774)">
    <!-- $\alpha p_0$ -->
    <g
       transform="matrix(0.27,0,0,-0.27,7.2,70.44211)"
       id="g32">
      <defs
         id="defs29">
        <path
           id="CMMI12-b"
           d="m 2963,1616 c 0,619 -352,1199 -1030,1199 C 1094,2815 256,1902 256,996 256,441 602,-64 1254,-64 c 397,0 871,153 1325,536 90,-357 288,-536 563,-536 346,0 519,358 519,441 0,57 -45,57 -64,57 -51,0 -58,-19 -77,-70 -58,-160 -205,-300 -358,-300 -199,0 -199,408 -199,798 653,779 807,1584 807,1590 0,58 -52,58 -71,58 -57,0 -64,-19 -89,-134 -84,-281 -250,-779 -647,-1303 z M 2560,626 C 1997,121 1491,64 1267,64 813,64 685,466 685,766 c 0,274 141,926 339,1278 262,447 621,644 909,644 621,0 621,-811 621,-1347 0,-159 -7,-325 -7,-485 0,-128 7,-160 13,-230 z"
           transform="scale(0.015625)" />
      </defs>
      <use
         xlink:href="#CMMI12-b"
         transform="scale(0.996264)"
         id="use30" />
      <use
         xlink:href="#CMMI12-70"
         transform="matrix(0.996264,0,0,0.996264,62.681023,0)"
         id="use31" />
      <use
         xlink:href="#CMR17-30"
         transform="matrix(0.697382,0,0,0.697382,111.64054,-14.943915)"
         id="use32" />
    </g>
  </g>
  <g
     id="text_6"
     transform="translate(-8.2759651,-14.039774)">
    <!-- 3 -->
    <g
       transform="matrix(0.27,0,0,-0.27,207.98796,189.77485)"
       id="g33">
      <defs
         id="defs32">
        <path
           id="SFRM3583-33"
           d="m 506,3501 c 153,365 512,589 928,589 396,0 691,-292 691,-727 0,-402 -192,-870 -576,-1025 -83,-32 -167,-40 -256,-52 l -269,-20 c -26,-6 -64,-12 -64,-45 v -13 c 0,-19 26,-19 45,-19 h 339 c 666,0 922,-509 922,-1038 v -88 C 2234,644 2048,76 1434,76 979,76 429,387 352,851 c 32,-12 64,-19 96,-19 128,0 218,90 218,211 0,116 -90,212 -212,212 -121,0 -217,-77 -217,-225 0,-651 627,-1094 1216,-1094 653,0 1171,563 1171,1203 0,589 -486,1088 -1120,1088 506,150 960,501 960,1145 0,534 -538,852 -998,852 -487,0 -1069,-320 -1069,-870 0,-141 70,-237 198,-237 128,0 205,96 205,205 0,115 -96,198 -198,198 -32,0 -64,-6 -96,-19 z"
           transform="scale(0.015625)" />
      </defs>
      <use
         xlink:href="#SFRM3583-33"
         transform="scale(0.996264)"
         id="use33" />
    </g>
  </g>
  <g
     id="text_7"
     transform="translate(-8.2759651,-14.039774)">
    <!-- $\beta V_0$ -->
    <g
       transform="matrix(0.27,0,0,-0.27,180.93562,286.34928)"
       id="g36">
      <defs
         id="defs33">
        <path
           id="CMMI12-c"
           d="m 3622,3701 c 0,380 -326,779 -908,779 -826,0 -1351,-1003 -1517,-1664 L 186,-1172 c -13,-51 25,-64 57,-64 45,0 77,6 83,38 L 774,586 c 64,-357 416,-650 794,-650 915,0 1779,714 1779,1663 0,242 -57,484 -192,688 -77,121 -173,210 -275,287 461,241 742,626 742,1127 z M 2509,2580 c -103,-38 -205,-51 -327,-51 -89,0 -172,-6 -288,32 64,45 160,57 295,57 115,0 230,-12 320,-38 z m 781,1178 c 0,-348 -173,-855 -589,-1089 -122,49 -288,83 -429,83 -134,0 -518,0 -518,-197 0,-166 352,-166 460,-166 167,0 314,43 468,95 204,-166 294,-383 294,-701 0,-370 -102,-668 -224,-942 C 2541,369 2042,64 1600,64 1133,64 890,432 890,864 c 0,58 0,141 25,235 l 416,1672 c 211,832 749,1582 1370,1582 461,0 589,-317 589,-595 z"
           transform="scale(0.015625)" />
      </defs>
      <use
         xlink:href="#CMMI12-c"
         transform="scale(0.996264)"
         id="use34" />
      <use
         xlink:href="#CMMI12-56"
         transform="matrix(0.996264,0,0,0.996264,60.594016,0)"
         id="use35" />
      <use
         xlink:href="#CMR17-30"
         transform="matrix(0.697382,0,0,0.697382,117.46359,-14.943915)"
         id="use36" />
    </g>
  </g>
  <g
     id="text_8"
     transform="translate(-8.2759651,-14.039774)">
    <!-- $V$ -->
    <g
       transform="matrix(0.27,0,0,-0.27,289.33696,285.34952)"
       id="g37">
      <use
         xlink:href="#CMMI12-56"
         transform="scale(0.996264)"
         id="use37" />
    </g>
  </g>
  <g
     id="text_9"
     transform="translate(-8.2759651,-14.039774)">
    <!-- $p$ -->
    <g
       transform="matrix(0.27,0,0,-0.27,30.169365,25.87539)"
       id="g38">
      <use
         xlink:href="#CMMI12-70"
         transform="scale(0.996264)"
         id="use38" />
    </g>
  </g>
  <g
     id="text_10"
     transform="translate(-8.2759651,-14.039774)">
    <!-- $0$ -->
    <g
       transform="matrix(0.27,0,0,-0.27,36.778894,278.62773)"
       id="g39">
      <use
         xlink:href="#CMR17-30"
         transform="scale(0.996264)"
         id="use39" />
    </g>
  </g>
  <g
     id="patch_6"
     transform="translate(-8.2759651,-14.039774)">
    <path
       d="m 293.32258,258.99207 -6.50906,3.25453 v -3.24368 H 54.657108 v -0.0217 H 286.81352 v -3.24368 z"
       clip-path="url(#p0a401e364c)"
       style="stroke:#000000;stroke-width:1.6;stroke-linejoin:miter"
       id="path39" />
  </g>
  <g
     id="patch_7"
     transform="translate(-8.2759651,-14.039774)">
    <path
       d="m 54.657108,20.326601 3.254529,6.509058 H 54.667956 V 258.99207 h -0.0217 V 26.835659 h -3.24368 z"
       clip-path="url(#p0a401e364c)"
       style="stroke:#000000;stroke-width:1.6;stroke-linejoin:miter"
       id="path40" />
  </g>
  <defs
     id="defs40">
    <clipPath
       id="p0a401e364c">
      <rect
         x="39.30658"
         y="8.2306013"
         width="266.112"
         height="266.112"
         id="rect40" />
    </clipPath>
  </defs>
</svg>
