<?xml version="1.0" encoding="UTF-8" standalone="no"?>
<svg
   width="409.72638pt"
   height="288.01334pt"
   viewBox="0 0 409.72638 288.01334"
   version="1.1"
   id="svg47"
   sodipodi:docname="329t.svg"
   xmlns:inkscape="http://www.inkscape.org/namespaces/inkscape"
   xmlns:sodipodi="http://sodipodi.sourceforge.net/DTD/sodipodi-0.dtd"
   xmlns:xlink="http://www.w3.org/1999/xlink"
   xmlns="http://www.w3.org/2000/svg"
   xmlns:svg="http://www.w3.org/2000/svg"
   xmlns:rdf="http://www.w3.org/1999/02/22-rdf-syntax-ns#"
   xmlns:cc="http://creativecommons.org/ns#"
   xmlns:dc="http://purl.org/dc/elements/1.1/">
  <sodipodi:namedview
     id="namedview47"
     pagecolor="#ffffff"
     bordercolor="#000000"
     borderopacity="0.25"
     inkscape:showpageshadow="2"
     inkscape:pageopacity="0.0"
     inkscape:pagecheckerboard="0"
     inkscape:deskcolor="#d1d1d1"
     inkscape:document-units="pt" />
  <metadata
     id="metadata1">
    <rdf:RDF>
      <cc:Work>
        <dc:type
           rdf:resource="http://purl.org/dc/dcmitype/StillImage" />
        <dc:date>2024-01-13T18:20:43.046129</dc:date>
        <dc:format>image/svg+xml</dc:format>
        <dc:creator>
          <cc:Agent>
            <dc:title>Matplotlib v3.7.1, https://matplotlib.org/</dc:title>
          </cc:Agent>
        </dc:creator>
      </cc:Work>
    </rdf:RDF>
  </metadata>
  <defs
     id="defs1">
    <style
       type="text/css"
       id="style1">*{stroke-linejoin: round; stroke-linecap: butt}</style>
  </defs>
  <g
     id="figure_1"
     transform="translate(-8.0617684,-7.2082072)">
    <g
       id="axes_1">
      <g
         id="line2d_1">
        <path
           d="M 152.61149,286.6176 V 58.5216"
           style="fill:none;stroke:#777777;stroke-width:0.9;stroke-linecap:square"
           id="path3" />
      </g>
      <g
         id="line2d_2">
        <path
           d="M 190.62749,286.6176 V 58.5216"
           style="fill:none;stroke:#777777;stroke-width:0.9;stroke-linecap:square"
           id="path4" />
      </g>
      <g
         id="line2d_3">
        <path
           d="M 228.64349,286.6176 V 58.5216"
           style="fill:none;stroke:#777777;stroke-width:0.9;stroke-linecap:square"
           id="path5" />
      </g>
      <g
         id="line2d_4">
        <path
           d="M 266.65949,286.6176 V 58.5216"
           style="fill:none;stroke:#777777;stroke-width:0.9;stroke-linecap:square"
           id="path6" />
      </g>
      <g
         id="line2d_5">
        <path
           d="M 304.67549,286.6176 V 58.5216"
           style="fill:none;stroke:#777777;stroke-width:0.9;stroke-linecap:square"
           id="path7" />
      </g>
      <g
         id="line2d_6">
        <path
           d="M 342.69149,286.6176 V 58.5216"
           style="fill:none;stroke:#777777;stroke-width:0.9;stroke-linecap:square"
           id="path8" />
      </g>
      <g
         id="line2d_7">
        <path
           d="M 114.5955,286.6176 H 342.69149"
           style="fill:none;stroke:#777777;stroke-width:0.9;stroke-linecap:square"
           id="path9" />
      </g>
      <g
         id="line2d_8">
        <path
           d="M 114.5955,248.6016 H 342.69149"
           style="fill:none;stroke:#777777;stroke-width:0.9;stroke-linecap:square"
           id="path10" />
      </g>
      <g
         id="line2d_9">
        <path
           d="M 114.5955,210.5856 H 342.69149"
           style="fill:none;stroke:#777777;stroke-width:0.9;stroke-linecap:square"
           id="path11" />
      </g>
      <g
         id="line2d_10">
        <path
           d="M 114.5955,134.5536 H 342.69149"
           style="fill:none;stroke:#777777;stroke-width:0.9;stroke-linecap:square"
           id="path12" />
      </g>
      <g
         id="line2d_11">
        <path
           d="M 114.5955,96.5376 H 342.69149"
           style="fill:none;stroke:#777777;stroke-width:0.9;stroke-linecap:square"
           id="path13" />
      </g>
      <g
         id="line2d_12">
        <path
           d="M 114.5955,58.5216 H 342.69149"
           style="fill:none;stroke:#777777;stroke-width:0.9;stroke-linecap:square"
           id="path14" />
      </g>
      <g
         id="matplotlib.axis_1" />
      <g
         id="matplotlib.axis_2" />
      <g
         id="line2d_13">
        <path
           d="m 190.62749,172.94976 v 7.22304"
           style="fill:none;stroke:#000000;stroke-width:1.6;stroke-linecap:square"
           id="path15" />
      </g>
      <g
         id="line2d_14">
        <path
           d="m 266.65949,172.94976 v 7.22304"
           style="fill:none;stroke:#000000;stroke-width:1.6;stroke-linecap:square"
           id="path16" />
      </g>
      <g
         id="line2d_15">
        <path
           d="m 342.69149,172.94976 v 7.22304"
           style="fill:none;stroke:#000000;stroke-width:1.6;stroke-linecap:square"
           id="path17" />
      </g>
      <g
         id="line2d_16">
        <path
           d="m 106.9923,286.6176 h 7.6032"
           style="fill:none;stroke:#000000;stroke-width:1.6;stroke-linecap:square"
           id="path18" />
      </g>
      <g
         id="line2d_17">
        <path
           d="m 106.9923,248.6016 h 7.6032"
           style="fill:none;stroke:#000000;stroke-width:1.6;stroke-linecap:square"
           id="path19" />
      </g>
      <g
         id="line2d_18">
        <path
           d="m 106.9923,210.5856 h 7.6032"
           style="fill:none;stroke:#000000;stroke-width:1.6;stroke-linecap:square"
           id="path20" />
      </g>
      <g
         id="line2d_19">
        <path
           d="m 106.9923,134.5536 h 7.6032"
           style="fill:none;stroke:#000000;stroke-width:1.6;stroke-linecap:square"
           id="path21" />
      </g>
      <g
         id="line2d_20">
        <path
           d="m 106.9923,96.5376 h 7.6032"
           style="fill:none;stroke:#000000;stroke-width:1.6;stroke-linecap:square"
           id="path22" />
      </g>
      <g
         id="line2d_21">
        <path
           d="m 106.9923,58.5216 h 7.6032"
           style="fill:none;stroke:#000000;stroke-width:1.6;stroke-linecap:square"
           id="path23" />
      </g>
      <g
         id="text_1">
        <g
           id="patch_3">
          <path
             d="m 183.42869,222.51091 h 14.39761 q 6.4,0 6.4,-6.4 V 187.776 q 0,-6.4 -6.4,-6.4 h -14.39761 q -6.4,0 -6.4,6.4 v 28.33491 q 0,6.4 6.4,6.4 z"
             style="fill:#ffffff"
             id="path24" />
        </g>
        <!-- 1 -->
        <g
           transform="matrix(0.32,0,0,-0.32,183.42869,209.90979)"
           id="g24">
          <defs
             id="defs24">
            <path
               id="SFRM3583-31"
               d="m 608,3635 c 90,13 186,13 275,26 173,32 327,90 474,180 V 416 c 0,-243 -218,-281 -442,-281 -96,0 -192,0 -275,0 V 0 h 1709 v 135 c -90,0 -186,0 -282,0 -230,0 -435,38 -435,281 v 3724 c 0,19 -6,52 -26,52 -51,0 -160,-136 -230,-188 -192,-138 -442,-222 -666,-222 h -38 c -38,0 -64,-6 -64,-51 z"
               transform="scale(0.015625)" />
          </defs>
          <use
             xlink:href="#SFRM3583-31"
             transform="scale(0.996264)"
             id="use24" />
        </g>
      </g>
      <g
         id="text_2">
        <g
           id="patch_4">
          <path
             d="m 259.46069,222.51091 h 14.39761 q 6.4,0 6.4,-6.4 V 187.776 q 0,-6.4 -6.4,-6.4 h -14.39761 q -6.4,0 -6.4,6.4 v 28.33491 q 0,6.4 6.4,6.4 z"
             style="fill:#ffffff"
             id="path25" />
        </g>
        <!-- 2 -->
        <g
           transform="matrix(0.32,0,0,-0.32,259.46069,209.90979)"
           id="g25">
          <defs
             id="defs25">
            <path
               id="SFRM3583-32"
               d="m 390,3156 c 52,471 384,927 896,927 557,0 948,-477 948,-1017 v -52 C 2195,2357 1754,1835 1344,1365 L 352,213 C 320,168 288,142 288,64 V 0 h 2150 l 135,907 h -83 c -52,-297 -26,-612 -295,-612 -166,0 -333,-19 -499,-19 -96,0 -186,0 -275,0 H 512 c 326,361 653,736 1005,1077 473,471 1056,981 1056,1710 0,735 -583,1161 -1223,1161 -544,0 -921,-445 -1024,-921 l -19,-96 c -6,-59 -19,-129 -19,-193 0,-123 45,-246 230,-246 109,20 180,104 180,200 0,103 -77,207 -192,207 -39,0 -77,-4 -116,-19 z"
               transform="scale(0.015625)" />
          </defs>
          <use
             xlink:href="#SFRM3583-32"
             transform="scale(0.996264)"
             id="use25" />
        </g>
      </g>
      <g
         id="text_3">
        <g
           id="patch_5">
          <path
             d="m 335.49269,222.51091 h 14.39761 q 6.4,0 6.4,-6.4 V 187.776 q 0,-6.4 -6.4,-6.4 h -14.39761 q -6.4,0 -6.4,6.4 v 28.33491 q 0,6.4 6.4,6.4 z"
             style="fill:#ffffff"
             id="path26" />
        </g>
        <!-- 3 -->
        <g
           transform="matrix(0.32,0,0,-0.32,335.49269,209.90979)"
           id="g26">
          <defs
             id="defs26">
            <path
               id="SFRM3583-33"
               d="m 506,3501 c 153,365 512,589 928,589 396,0 691,-292 691,-727 0,-402 -192,-870 -576,-1025 -83,-32 -167,-40 -256,-52 l -269,-20 c -26,-6 -64,-12 -64,-45 v -13 c 0,-19 26,-19 45,-19 h 339 c 666,0 922,-509 922,-1038 v -88 C 2234,644 2048,76 1434,76 979,76 429,387 352,851 c 32,-12 64,-19 96,-19 128,0 218,90 218,211 0,116 -90,212 -212,212 -121,0 -217,-77 -217,-225 0,-651 627,-1094 1216,-1094 653,0 1171,563 1171,1203 0,589 -486,1088 -1120,1088 506,150 960,501 960,1145 0,534 -538,852 -998,852 -487,0 -1069,-320 -1069,-870 0,-141 70,-237 198,-237 128,0 205,96 205,205 0,115 -96,198 -198,198 -32,0 -64,-6 -96,-19 z"
               transform="scale(0.015625)" />
          </defs>
          <use
             xlink:href="#SFRM3583-33"
             transform="scale(0.996264)"
             id="use26" />
        </g>
      </g>
      <g
         id="text_4">
        <!-- $-6$ -->
        <g
           transform="matrix(0.32,0,0,-0.32,56.17055,294.58394)"
           id="g28">
          <defs
             id="defs27">
            <path
               id="CMSY10-0"
               d="m 4218,1472 c 108,0 224,0 224,128 0,128 -116,128 -224,128 H 755 c -109,0 -224,0 -224,-128 0,-128 115,-128 224,-128 z"
               transform="scale(0.015625)" />
            <path
               id="CMR17-36"
               d="m 678,2176 c 0,1514 717,1856 1133,1856 135,0 461,-23 589,-256 -102,0 -294,0 -294,-223 0,-172 140,-230 230,-230 58,0 230,25 230,237 0,394 -320,619 -761,619 -762,0 -1562,-789 -1562,-2195 0,-1731 723,-2112 1235,-2112 621,0 1210,555 1210,1411 0,798 -518,1379 -1171,1379 -391,0 -679,-255 -839,-702 z M 1478,25 c -787,0 -787,1175 -787,1411 0,460 218,1124 813,1124 109,0 422,0 634,-440 115,-250 115,-511 115,-831 0,-345 0,-599 -135,-855 C 1978,171 1773,25 1478,25 Z"
               transform="scale(0.015625)" />
          </defs>
          <use
             xlink:href="#CMSY10-0"
             transform="scale(0.996264)"
             id="use27" />
          <use
             xlink:href="#CMR17-36"
             transform="matrix(0.996264,0,0,0.996264,77.487468,0)"
             id="use28" />
        </g>
      </g>
      <g
         id="text_5">
        <!-- $-4$ -->
        <g
           transform="matrix(0.32,0,0,-0.32,56.17055,256.56794)"
           id="g30">
          <defs
             id="defs28">
            <path
               id="CMR17-34"
               d="m 2150,4122 c 0,134 -6,134 -121,134 L 128,1254 V 1088 H 1779 V 457 c 0,-233 -13,-297 -461,-297 H 1197 V 0 c 205,0 550,0 768,0 217,0 563,0 768,0 v 160 h -122 c -448,0 -461,64 -461,297 v 631 h 653 v 166 H 2150 Z M 1798,3703 V 1254 H 256 Z"
               transform="scale(0.015625)" />
          </defs>
          <use
             xlink:href="#CMSY10-0"
             transform="scale(0.996264)"
             id="use29" />
          <use
             xlink:href="#CMR17-34"
             transform="matrix(0.996264,0,0,0.996264,77.487468,0)"
             id="use30" />
        </g>
      </g>
      <g
         id="text_6">
        <!-- $-2$ -->
        <g
           transform="matrix(0.32,0,0,-0.32,56.17055,218.55194)"
           id="g32">
          <defs
             id="defs30">
            <path
               id="CMR17-32"
               d="M 2669,989 H 2554 C 2490,536 2438,459 2413,420 2381,369 1920,369 1830,369 H 602 c 230,250 678,703 1222,1228 390,370 845,805 845,1438 0,755 -602,1189 -1274,1189 -704,0 -1133,-620 -1133,-1194 0,-250 186,-282 263,-282 64,0 256,39 256,262 0,197 -167,254 -256,254 -39,0 -77,-6 -103,-19 122,545 493,813 884,813 556,0 921,-441 921,-1023 0,-556 -326,-1035 -691,-1451 L 262,146 V 0 h 2253 z"
               transform="scale(0.015625)" />
          </defs>
          <use
             xlink:href="#CMSY10-0"
             transform="scale(0.996264)"
             id="use31" />
          <use
             xlink:href="#CMR17-32"
             transform="matrix(0.996264,0,0,0.996264,77.487468,0)"
             id="use32" />
        </g>
      </g>
      <g
         id="text_7">
        <!-- $2$ -->
        <g
           transform="matrix(0.32,0,0,-0.32,80.966543,142.51994)"
           id="g33">
          <use
             xlink:href="#CMR17-32"
             transform="scale(0.996264)"
             id="use33" />
        </g>
      </g>
      <g
         id="text_8">
        <!-- $4$ -->
        <g
           transform="matrix(0.32,0,0,-0.32,80.966543,104.50394)"
           id="g34">
          <use
             xlink:href="#CMR17-34"
             transform="scale(0.996264)"
             id="use34" />
        </g>
      </g>
      <g
         id="text_9">
        <!-- $6$ -->
        <g
           transform="matrix(0.32,0,0,-0.32,80.966543,66.487942)"
           id="g35">
          <use
             xlink:href="#CMR17-36"
             transform="scale(0.996264)"
             id="use35" />
        </g>
      </g>
      <g
         id="text_10">
        <!-- $t,\textrm{с}$ -->
        <g
           transform="matrix(0.32,0,0,-0.32,380.6707,209.90979)"
           id="g38">
          <defs
             id="defs35">
            <path
               id="CMMI12-74"
               d="m 1286,2566 h 589 c 122,0 186,0 186,115 0,71 -39,71 -167,71 h -563 l 237,940 c 26,89 26,102 26,148 0,103 -84,160 -167,160 -51,0 -198,-19 -249,-225 L 928,2752 H 326 c -128,0 -185,0 -185,-122 0,-64 45,-64 166,-64 H 877 L 454,881 C 403,658 384,594 384,511 384,211 595,-64 954,-64 c 646,0 992,932 992,976 0,39 -26,58 -64,58 -13,0 -39,0 -52,-26 -6,-6 -12,-13 -57,-115 C 1638,511 1344,64 973,64 781,64 768,224 768,364 c 0,6 0,128 19,204 z"
               transform="scale(0.015625)" />
            <path
               id="CMMI12-3b"
               d="M 1248,-31 C 1248,343 1126,619 864,619 659,619 557,453 557,313 557,172 653,0 870,0 c 84,0 154,26 212,83 12,13 19,13 25,13 13,0 13,-91 13,-123 0,-213 -38,-632 -410,-1053 -70,-77 -70,-90 -70,-103 0,-33 32,-65 64,-65 51,0 544,477 544,1217 z"
               transform="scale(0.015625)" />
            <path
               id="SFRM3583-f1"
               d="m 2221,2092 c -32,7 -64,13 -96,13 -103,0 -179,-89 -179,-185 0,-96 76,-192 185,-192 90,0 179,64 192,160 v 38 c 0,440 -358,893 -883,893 C 717,2819 269,2069 269,1390 269,718 678,32 1363,-32 h 64 c 455,0 813,289 941,720 6,25 13,51 13,77 0,19 -13,25 -26,25 -70,0 -83,-121 -109,-186 C 2131,276 1824,51 1498,51 890,51 595,769 595,1295 c 0,538 115,1442 858,1442 358,0 685,-294 768,-645 z"
               transform="scale(0.015625)" />
          </defs>
          <use
             xlink:href="#CMMI12-74"
             transform="scale(0.996264)"
             id="use36" />
          <use
             xlink:href="#CMMI12-3b"
             transform="matrix(0.996264,0,0,0.996264,35.22633,0)"
             id="use37" />
          <use
             xlink:href="#SFRM3583-f1"
             transform="matrix(0.996264,0,0,0.996264,78.927913,0)"
             id="use38" />
        </g>
      </g>
      <g
         id="text_11">
        <!-- $v_x,\textrm{м/с}$ -->
        <g
           transform="matrix(0.32,0,0,-0.32,7.2,31.053786)"
           id="g44">
          <defs
             id="defs38">
            <path
               id="CMMI12-76"
               d="m 2925,2389 c 0,402 -205,427 -256,427 -154,0 -295,-153 -295,-281 0,-76 45,-121 71,-146 64,-58 230,-230 230,-562 0,-269 -384,-1763 -1152,-1763 -390,0 -467,326 -467,562 0,319 147,766 320,1226 102,262 128,326 128,453 0,269 -192,511 -506,511 -588,0 -825,-926 -825,-977 0,-25 25,-57 70,-57 58,0 64,25 90,115 153,549 403,792 646,792 58,0 167,0 167,-211 0,-166 -71,-351 -167,-594 C 672,1067 672,869 672,715 c 0,-140 19,-402 218,-581 230,-198 550,-198 608,-198 1062,0 1427,2088 1427,2453 z"
               transform="scale(0.015625)" />
            <path
               id="CMMI12-78"
               d="m 3034,2606 c -205,-39 -282,-192 -282,-313 0,-154 122,-205 211,-205 192,0 327,166 327,339 0,268 -308,389 -576,389 -391,0 -608,-383 -666,-504 -147,504 -544,504 -659,504 -653,0 -999,-836 -999,-977 0,-25 26,-57 71,-57 51,0 64,38 77,64 217,709 646,843 832,843 288,0 345,-269 345,-422 0,-140 -38,-287 -115,-594 L 1382,798 C 1286,415 1101,64 762,64 730,64 570,64 435,147 666,192 717,383 717,460 717,588 621,664 499,664 346,664 179,530 179,326 179,57 480,-64 755,-64 c 307,0 525,243 659,505 103,-377 423,-505 660,-505 652,0 998,837 998,977 0,32 -26,58 -64,58 -58,0 -64,-32 -83,-83 C 2752,326 2381,64 2093,64 c -224,0 -346,166 -346,428 0,140 26,242 128,664 l 224,868 c 96,384 314,665 608,665 13,0 192,0 327,-83 z"
               transform="scale(0.015625)" />
            <path
               id="SFRM3583-ec"
               d="m 294,2749 v -70 h 90 c 154,0 288,-38 288,-256 V 979 c 0,-109 6,-224 6,-340 C 678,404 659,77 294,77 V 0 h 845 V 77 C 787,77 762,378 762,588 l 6,2040 c 45,-218 179,-460 262,-684 L 1549,620 c 57,-160 121,-312 185,-472 13,-45 32,-141 90,-148 70,0 205,416 275,614 243,595 461,1202 704,1796 32,77 71,160 90,243 l 6,-2313 C 2899,109 2771,77 2611,77 h -89 V 0 h 1004 v 77 h -89 c -160,0 -288,32 -288,256 v 2090 c 0,224 134,256 288,256 h 89 v 70 h -588 l -64,-12 -39,-52 -921,-2359 -871,2238 -83,173 -70,12 z"
               transform="scale(0.015625)" />
            <path
               id="SFRM3583-2f"
               d="m 2483,4781 c -25,-13 -32,-58 -45,-83 l -76,-231 C 1824,2925 1299,1382 787,-166 640,-608 461,-1050 333,-1504 c -7,-6 -7,-13 -7,-26 0,-19 7,-44 32,-44 h 13 c 45,19 103,236 141,352 l 365,1075 c 525,1555 1062,3091 1581,4646 25,77 57,154 76,231 v 12 c 0,26 -12,45 -32,45 -6,0 -12,0 -19,-6 z"
               transform="scale(0.015625)" />
          </defs>
          <use
             xlink:href="#CMMI12-76"
             transform="scale(0.996264)"
             id="use39" />
          <use
             xlink:href="#CMMI12-78"
             transform="matrix(0.697382,0,0,0.697382,47.160581,-14.943915)"
             id="use40" />
          <use
             xlink:href="#CMMI12-3b"
             transform="matrix(0.996264,0,0,0.996264,86.462372,0)"
             id="use41" />
          <use
             xlink:href="#SFRM3583-ec"
             transform="matrix(0.996264,0,0,0.996264,130.16395,0)"
             id="use42" />
          <use
             xlink:href="#SFRM3583-2f"
             transform="matrix(0.996264,0,0,0.996264,189.62249,0)"
             id="use43" />
          <use
             xlink:href="#SFRM3583-f1"
             transform="matrix(0.996264,0,0,0.996264,234.20095,0)"
             id="use44" />
        </g>
      </g>
      <g
         id="text_12">
        <!-- $0$ -->
        <g
           transform="matrix(0.32,0,0,-0.32,80.966543,180.53594)"
           id="g45">
          <defs
             id="defs44">
            <path
               id="CMR17-30"
               d="m 2688,2025 c 0,391 -6,1055 -275,1566 -237,448 -615,607 -947,607 -308,0 -698,-140 -941,-601 C 269,3118 243,2524 243,2025 c 0,-364 7,-919 205,-1406 275,-658 768,-747 1018,-747 294,0 742,121 1004,728 192,442 218,959 218,1425 z M 1466,-26 c -410,0 -653,351 -743,838 -70,376 -70,926 -70,1284 0,492 0,901 83,1291 122,542 480,709 730,709 262,0 601,-173 723,-696 83,-364 89,-793 89,-1304 0,-416 0,-927 -76,-1304 C 2067,95 1690,-26 1466,-26 Z"
               transform="scale(0.015625)" />
          </defs>
          <use
             xlink:href="#CMR17-30"
             transform="scale(0.996264)"
             id="use45" />
        </g>
      </g>
      <g
         id="patch_6">
        <path
           d="m 388.31069,172.5696 -13.11552,4.37184 V 172.5791 H 114.5955 v -0.019 h 260.59967 v -4.36234 z"
           style="stroke:#000000;stroke-width:1.6;stroke-linejoin:miter"
           id="path45" />
      </g>
      <g
         id="patch_7">
        <path
           d="m 114.5955,30.0096 4.37184,13.11552 h -4.33383 V 292.32 h -0.076 V 43.12512 h -4.33383 z"
           style="stroke:#000000;stroke-width:1.6;stroke-linejoin:miter"
           id="path46" />
      </g>
      <g
         id="line2d_22">
        <path
           d="m 114.5955,96.5376 38.01599,76.032 38.016,-114.048 38.016,76.032 h 76.032 l 38.016,152.064"
           clip-path="url(#p6263e6d6f3)"
           style="fill:none;stroke:#000000;stroke-width:2;stroke-linecap:square"
           id="path47" />
      </g>
    </g>
  </g>
  <defs
     id="defs47">
    <clipPath
       id="p6263e6d6f3">
      <rect
         x="114.5955"
         y="26.208"
         width="304.12799"
         height="266.112"
         id="rect47" />
    </clipPath>
  </defs>
</svg>
