<?xml version="1.0" encoding="utf-8" standalone="no"?>
<!DOCTYPE svg PUBLIC "-//W3C//DTD SVG 1.1//EN"
  "http://www.w3.org/Graphics/SVG/1.1/DTD/svg11.dtd">
<svg xmlns:xlink="http://www.w3.org/1999/xlink" width="452.702326pt" height="317.036301pt" viewBox="0 0 452.702326 317.036301" xmlns="http://www.w3.org/2000/svg" version="1.1">
 <metadata>
  <rdf:RDF xmlns:dc="http://purl.org/dc/elements/1.1/" xmlns:cc="http://creativecommons.org/ns#" xmlns:rdf="http://www.w3.org/1999/02/22-rdf-syntax-ns#">
   <cc:Work>
    <dc:type rdf:resource="http://purl.org/dc/dcmitype/StillImage"/>
    <dc:date>2024-02-11T01:20:46.149682</dc:date>
    <dc:format>image/svg+xml</dc:format>
    <dc:creator>
     <cc:Agent>
      <dc:title>Matplotlib v3.8.2, https://matplotlib.org/</dc:title>
     </cc:Agent>
    </dc:creator>
   </cc:Work>
  </rdf:RDF>
 </metadata>
 <defs>
  <style type="text/css">*{stroke-linejoin: round; stroke-linecap: butt}</style>
 </defs>
 <g id="figure_1">
  <g id="patch_1">
   <path d="M 0 317.036301 
L 452.702326 317.036301 
L 452.702326 0 
L 0 0 
z
" style="fill: #ffffff"/>
  </g>
  <g id="axes_1">
   <g id="patch_2">
    <path d="M 68.662326 268.354426 
L 425.782326 268.354426 
L 425.782326 19.200938 
L 68.662326 19.200938 
z
" style="fill: #ffffff"/>
   </g>
   <g id="line2d_1">
    <path d="M 122.645581 268.354426 
L 122.645581 60.726519 
" style="fill: none; stroke: #777777; stroke-width: 0.9; stroke-linecap: square"/>
   </g>
   <g id="line2d_2">
    <path d="M 164.171163 268.354426 
L 164.171163 60.726519 
" style="fill: none; stroke: #777777; stroke-width: 0.9; stroke-linecap: square"/>
   </g>
   <g id="line2d_3">
    <path d="M 205.696744 268.354426 
L 205.696744 60.726519 
" style="fill: none; stroke: #777777; stroke-width: 0.9; stroke-linecap: square"/>
   </g>
   <g id="line2d_4">
    <path d="M 247.222326 268.354426 
L 247.222326 60.726519 
" style="fill: none; stroke: #777777; stroke-width: 0.9; stroke-linecap: square"/>
   </g>
   <g id="line2d_5">
    <path d="M 288.747907 268.354426 
L 288.747907 60.726519 
" style="fill: none; stroke: #777777; stroke-width: 0.9; stroke-linecap: square"/>
   </g>
   <g id="line2d_6">
    <path d="M 330.273488 268.354426 
L 330.273488 60.726519 
" style="fill: none; stroke: #777777; stroke-width: 0.9; stroke-linecap: square"/>
   </g>
   <g id="line2d_7">
    <path d="M 371.79907 268.354426 
L 371.79907 60.726519 
" style="fill: none; stroke: #777777; stroke-width: 0.9; stroke-linecap: square"/>
   </g>
   <g id="line2d_8">
    <path d="M 81.12 226.828844 
L 371.79907 226.828844 
" style="fill: none; stroke: #777777; stroke-width: 0.9; stroke-linecap: square"/>
   </g>
   <g id="line2d_9">
    <path d="M 81.12 185.303263 
L 371.79907 185.303263 
" style="fill: none; stroke: #777777; stroke-width: 0.9; stroke-linecap: square"/>
   </g>
   <g id="line2d_10">
    <path d="M 81.12 143.777682 
L 371.79907 143.777682 
" style="fill: none; stroke: #777777; stroke-width: 0.9; stroke-linecap: square"/>
   </g>
   <g id="line2d_11">
    <path d="M 81.12 102.2521 
L 371.79907 102.2521 
" style="fill: none; stroke: #777777; stroke-width: 0.9; stroke-linecap: square"/>
   </g>
   <g id="line2d_12">
    <path d="M 81.12 60.726519 
L 371.79907 60.726519 
" style="fill: none; stroke: #777777; stroke-width: 0.9; stroke-linecap: square"/>
   </g>
   <g id="matplotlib.axis_1">
    <g id="xtick_1">
     <g id="line2d_13">
      <defs>
       <path id="m25d33855b1" d="M 0 0 
L 0 6.5 
" style="stroke: #000000; stroke-width: 2"/>
      </defs>
      <g>
       <use xlink:href="#m25d33855b1" x="122.645581" y="268.354426" style="stroke: #000000; stroke-width: 2"/>
      </g>
     </g>
     <g id="text_1">
      <!-- 1 -->
      <g transform="translate(114.230581 302.356301) scale(0.34 -0.34)">
       <defs>
        <path id="STIXTwoText-31" d="M 2726 0 
L 512 0 
L 512 179 
Q 966 179 1152 275 
Q 1338 371 1338 608 
L 1338 3315 
Q 1338 3482 1293 3555 
Q 1248 3629 1126 3629 
Q 1062 3629 947 3616 
Q 832 3603 704 3580 
Q 576 3558 474 3526 
L 474 3738 
L 1715 4090 
L 1901 4090 
L 1901 608 
Q 1901 371 2093 275 
Q 2285 179 2726 179 
L 2726 0 
z
" transform="scale(0.015625)"/>
       </defs>
       <use xlink:href="#STIXTwoText-31"/>
      </g>
     </g>
    </g>
    <g id="xtick_2">
     <g id="line2d_14">
      <g>
       <use xlink:href="#m25d33855b1" x="164.171163" y="268.354426" style="stroke: #000000; stroke-width: 2"/>
      </g>
     </g>
     <g id="text_2">
      <!-- 2 -->
      <g transform="translate(155.756163 302.356301) scale(0.34 -0.34)">
       <defs>
        <path id="STIXTwoText-32" d="M 2765 0 
L 243 0 
L 243 218 
L 1216 1190 
Q 1536 1517 1747 1782 
Q 1958 2048 2064 2317 
Q 2170 2586 2170 2918 
Q 2170 3277 1955 3491 
Q 1741 3706 1370 3706 
Q 1056 3706 835 3571 
Q 614 3437 435 3078 
L 282 3142 
Q 429 3610 749 3866 
Q 1069 4122 1536 4122 
Q 1901 4122 2176 3984 
Q 2451 3846 2608 3600 
Q 2765 3354 2765 3014 
Q 2765 2733 2646 2473 
Q 2528 2214 2294 1939 
Q 2061 1664 1722 1318 
L 877 518 
L 877 486 
L 1325 506 
L 2214 506 
Q 2470 506 2572 621 
Q 2675 736 2784 1024 
L 2970 1024 
L 2765 0 
z
" transform="scale(0.015625)"/>
       </defs>
       <use xlink:href="#STIXTwoText-32"/>
      </g>
     </g>
    </g>
    <g id="xtick_3">
     <g id="line2d_15">
      <g>
       <use xlink:href="#m25d33855b1" x="205.696744" y="268.354426" style="stroke: #000000; stroke-width: 2"/>
      </g>
     </g>
     <g id="text_3">
      <!-- 3 -->
      <g transform="translate(197.281744 302.356301) scale(0.34 -0.34)">
       <defs>
        <path id="STIXTwoText-33" d="M 1094 -83 
Q 806 -83 652 -28 
Q 499 26 438 106 
Q 378 186 378 269 
Q 378 371 442 460 
Q 506 550 627 550 
Q 723 550 828 502 
Q 934 454 1049 393 
Q 1165 333 1283 285 
Q 1402 237 1523 237 
Q 1728 237 1907 310 
Q 2086 384 2201 560 
Q 2317 736 2317 1050 
Q 2317 1338 2157 1549 
Q 1997 1760 1731 1878 
Q 1466 1997 1158 1997 
L 1030 1997 
L 1030 2240 
L 1152 2240 
Q 1370 2240 1574 2349 
Q 1779 2458 1910 2656 
Q 2042 2854 2042 3110 
Q 2042 3392 1866 3549 
Q 1690 3706 1389 3706 
Q 1101 3706 909 3574 
Q 717 3443 550 3187 
L 403 3270 
Q 582 3686 876 3904 
Q 1171 4122 1562 4122 
Q 2054 4122 2323 3875 
Q 2592 3629 2592 3264 
Q 2592 2931 2397 2726 
Q 2202 2522 1901 2330 
L 1901 2310 
Q 2157 2234 2371 2090 
Q 2586 1946 2714 1738 
Q 2842 1530 2842 1242 
Q 2842 806 2598 508 
Q 2355 211 1958 64 
Q 1562 -83 1094 -83 
z
" transform="scale(0.015625)"/>
       </defs>
       <use xlink:href="#STIXTwoText-33"/>
      </g>
     </g>
    </g>
    <g id="xtick_4">
     <g id="line2d_16">
      <g>
       <use xlink:href="#m25d33855b1" x="247.222326" y="268.354426" style="stroke: #000000; stroke-width: 2"/>
      </g>
     </g>
     <g id="text_4">
      <!-- 4 -->
      <g transform="translate(238.807326 302.356301) scale(0.34 -0.34)">
       <defs>
        <path id="STIXTwoText-34" d="M 2426 0 
L 1856 0 
L 1856 1011 
L 83 1011 
L 83 1414 
L 2035 4128 
L 2426 4128 
L 2426 1453 
L 3078 1453 
L 3078 1011 
L 2426 1011 
L 2426 0 
z
M 435 1478 
L 435 1453 
L 1856 1453 
L 1856 3430 
L 1830 3430 
L 435 1478 
z
" transform="scale(0.015625)"/>
       </defs>
       <use xlink:href="#STIXTwoText-34"/>
      </g>
     </g>
    </g>
    <g id="xtick_5">
     <g id="line2d_17">
      <g>
       <use xlink:href="#m25d33855b1" x="288.747907" y="268.354426" style="stroke: #000000; stroke-width: 2"/>
      </g>
     </g>
     <g id="text_5">
      <!-- 5 -->
      <g transform="translate(280.332907 302.356301) scale(0.34 -0.34)">
       <defs>
        <path id="STIXTwoText-35" d="M 1114 -83 
Q 742 -83 560 6 
Q 378 96 378 275 
Q 378 384 445 467 
Q 512 550 634 550 
Q 730 550 822 502 
Q 915 454 1014 393 
Q 1114 333 1235 285 
Q 1357 237 1510 237 
Q 1741 237 1936 326 
Q 2131 416 2249 614 
Q 2368 813 2368 1146 
Q 2368 1504 2227 1721 
Q 2086 1939 1849 2054 
Q 1613 2170 1315 2214 
Q 1018 2259 698 2266 
L 621 2362 
L 1018 4032 
L 2771 4032 
L 2669 3514 
L 1165 3514 
L 992 2784 
Q 1312 2758 1590 2704 
Q 1869 2650 2096 2554 
Q 2323 2458 2489 2301 
Q 2656 2144 2745 1923 
Q 2835 1702 2835 1402 
Q 2835 1030 2710 752 
Q 2586 474 2355 288 
Q 2125 102 1811 9 
Q 1498 -83 1114 -83 
z
" transform="scale(0.015625)"/>
       </defs>
       <use xlink:href="#STIXTwoText-35"/>
      </g>
     </g>
    </g>
    <g id="xtick_6">
     <g id="line2d_18">
      <g>
       <use xlink:href="#m25d33855b1" x="330.273488" y="268.354426" style="stroke: #000000; stroke-width: 2"/>
      </g>
     </g>
     <g id="text_6">
      <!-- 6 -->
      <g transform="translate(321.858488 302.356301) scale(0.34 -0.34)">
       <defs>
        <path id="STIXTwoText-36" d="M 1658 -77 
Q 1184 -77 880 156 
Q 576 390 432 784 
Q 288 1178 288 1645 
Q 288 2221 464 2675 
Q 640 3130 957 3446 
Q 1274 3763 1706 3939 
Q 2138 4115 2656 4134 
L 2669 3949 
Q 2221 3885 1849 3661 
Q 1478 3437 1228 3078 
Q 979 2720 896 2253 
L 941 2246 
Q 1139 2438 1331 2540 
Q 1523 2643 1773 2643 
Q 2298 2643 2611 2284 
Q 2925 1926 2925 1299 
Q 2925 646 2595 284 
Q 2266 -77 1658 -77 
z
M 1683 147 
Q 2003 147 2185 393 
Q 2368 640 2368 1248 
Q 2368 1683 2173 1977 
Q 1978 2272 1581 2272 
Q 1395 2272 1232 2198 
Q 1069 2125 966 1958 
Q 864 1792 864 1510 
Q 864 1114 953 806 
Q 1043 499 1225 323 
Q 1408 147 1683 147 
z
" transform="scale(0.015625)"/>
       </defs>
       <use xlink:href="#STIXTwoText-36"/>
      </g>
     </g>
    </g>
    <g id="xtick_7">
     <g id="line2d_19">
      <g>
       <use xlink:href="#m25d33855b1" x="371.79907" y="268.354426" style="stroke: #000000; stroke-width: 2"/>
      </g>
     </g>
     <g id="text_7">
      <!-- 7 -->
      <g transform="translate(363.38407 302.356301) scale(0.34 -0.34)">
       <defs>
        <path id="STIXTwoText-37" d="M 1472 -51 
L 966 -51 
L 2477 3514 
L 1050 3514 
Q 870 3514 774 3482 
Q 678 3450 617 3347 
Q 557 3245 467 3034 
L 269 3053 
L 525 4032 
L 2970 4032 
L 2970 3834 
L 1472 -51 
z
" transform="scale(0.015625)"/>
       </defs>
       <use xlink:href="#STIXTwoText-37"/>
      </g>
     </g>
    </g>
    <g id="xtick_8">
     <g id="line2d_20"/>
     <g id="text_8">
      <!-- $t,$с -->
      <g transform="translate(406.062326 302.356301) scale(0.34 -0.34)">
       <defs>
        <path id="STIXTwoText-Italic-74" d="M 736 -58 
Q 538 -58 442 38 
Q 346 134 346 282 
Q 346 365 365 483 
Q 384 602 390 646 
L 826 2739 
L 461 2739 
L 486 2874 
Q 691 2982 828 3084 
Q 966 3187 1091 3353 
Q 1216 3520 1376 3795 
L 1568 3795 
L 960 832 
Q 960 832 937 713 
Q 915 595 915 512 
Q 915 461 937 419 
Q 960 378 1024 378 
Q 1165 378 1283 461 
Q 1402 544 1568 762 
L 1696 666 
Q 1606 544 1478 371 
Q 1350 198 1171 70 
Q 992 -58 736 -58 
z
M 1984 2739 
L 1274 2739 
L 1325 2989 
L 2035 2989 
L 1984 2739 
z
" transform="scale(0.015625)"/>
        <path id="STIXTwoText-2c" d="M 448 -845 
L 371 -685 
Q 493 -634 614 -554 
Q 736 -474 819 -320 
Q 902 -166 902 90 
Q 800 51 704 51 
Q 518 51 435 153 
Q 352 256 352 397 
Q 352 550 454 662 
Q 557 774 749 774 
Q 909 774 1017 707 
Q 1126 640 1184 515 
Q 1242 390 1242 211 
Q 1242 -58 1155 -243 
Q 1069 -429 941 -544 
Q 813 -659 678 -729 
Q 544 -800 448 -845 
z
" transform="scale(0.015625)"/>
        <path id="STIXTwoText-441" d="M 2611 947 
L 2733 858 
Q 2611 602 2454 390 
Q 2298 179 2067 57 
Q 1837 -64 1491 -64 
Q 1094 -64 806 128 
Q 518 320 364 662 
Q 211 1005 211 1446 
Q 211 1952 380 2323 
Q 550 2694 873 2899 
Q 1197 3104 1658 3104 
Q 2112 3104 2371 2905 
Q 2630 2707 2630 2426 
Q 2630 2285 2563 2211 
Q 2496 2138 2362 2138 
Q 2221 2138 2147 2211 
Q 2074 2285 2029 2393 
Q 1984 2502 1936 2611 
Q 1888 2720 1801 2793 
Q 1715 2867 1549 2867 
Q 1158 2867 937 2582 
Q 717 2298 717 1747 
Q 717 1165 957 790 
Q 1197 416 1690 416 
Q 2003 416 2198 544 
Q 2394 672 2611 947 
z
" transform="scale(0.015625)"/>
       </defs>
       <use xlink:href="#STIXTwoText-Italic-74" transform="translate(0 0.703125)"/>
       <use xlink:href="#STIXTwoText-2c" transform="translate(29.799988 0.703125)"/>
       <use xlink:href="#STIXTwoText-441" transform="translate(70.799969 0.703125)"/>
      </g>
     </g>
    </g>
    <g id="xtick_9">
     <g id="line2d_21"/>
     <g id="text_9">
      <!-- $0$ -->
      <g transform="translate(60.162326 302.356301) scale(0.34 -0.34)">
       <defs>
        <path id="STIXTwoText-30" d="M 1581 -70 
Q 1197 -70 928 99 
Q 659 269 492 563 
Q 326 858 249 1242 
Q 173 1626 173 2048 
Q 173 2656 336 3120 
Q 499 3584 816 3846 
Q 1133 4109 1594 4109 
Q 2010 4109 2323 3862 
Q 2637 3616 2816 3152 
Q 2995 2688 2995 2029 
Q 2995 1619 2915 1241 
Q 2835 864 2665 569 
Q 2496 275 2227 102 
Q 1958 -70 1581 -70 
z
M 1581 160 
Q 1958 160 2166 614 
Q 2374 1069 2374 1990 
Q 2374 2963 2172 3427 
Q 1971 3891 1574 3891 
Q 1197 3891 992 3430 
Q 787 2970 787 2016 
Q 787 1088 992 624 
Q 1197 160 1581 160 
z
" transform="scale(0.015625)"/>
       </defs>
       <use xlink:href="#STIXTwoText-30" transform="translate(0 0.796875)"/>
      </g>
     </g>
    </g>
   </g>
   <g id="matplotlib.axis_2">
    <g id="ytick_1">
     <g id="line2d_22">
      <defs>
       <path id="me0678c1c41" d="M 0 0 
L -6.5 0 
" style="stroke: #000000; stroke-width: 2"/>
      </defs>
      <g>
       <use xlink:href="#me0678c1c41" x="81.12" y="226.828844" style="stroke: #000000; stroke-width: 2"/>
      </g>
     </g>
     <g id="text_10">
      <!-- 5 -->
      <g transform="translate(54.29 238.829782) scale(0.34 -0.34)">
       <use xlink:href="#STIXTwoText-35"/>
      </g>
     </g>
    </g>
    <g id="ytick_2">
     <g id="line2d_23">
      <g>
       <use xlink:href="#me0678c1c41" x="81.12" y="185.303263" style="stroke: #000000; stroke-width: 2"/>
      </g>
     </g>
     <g id="text_11">
      <!-- 10 -->
      <g transform="translate(37.46 197.304201) scale(0.34 -0.34)">
       <use xlink:href="#STIXTwoText-31"/>
       <use xlink:href="#STIXTwoText-30" x="49.499985"/>
      </g>
     </g>
    </g>
    <g id="ytick_3">
     <g id="line2d_24">
      <g>
       <use xlink:href="#me0678c1c41" x="81.12" y="143.777682" style="stroke: #000000; stroke-width: 2"/>
      </g>
     </g>
     <g id="text_12">
      <!-- 15 -->
      <g transform="translate(37.46 155.778619) scale(0.34 -0.34)">
       <use xlink:href="#STIXTwoText-31"/>
       <use xlink:href="#STIXTwoText-35" x="49.499985"/>
      </g>
     </g>
    </g>
    <g id="ytick_4">
     <g id="line2d_25">
      <g>
       <use xlink:href="#me0678c1c41" x="81.12" y="102.2521" style="stroke: #000000; stroke-width: 2"/>
      </g>
     </g>
     <g id="text_13">
      <!-- 20 -->
      <g transform="translate(37.46 114.253038) scale(0.34 -0.34)">
       <use xlink:href="#STIXTwoText-32"/>
       <use xlink:href="#STIXTwoText-30" x="49.499985"/>
      </g>
     </g>
    </g>
    <g id="ytick_5">
     <g id="line2d_26">
      <g>
       <use xlink:href="#me0678c1c41" x="81.12" y="60.726519" style="stroke: #000000; stroke-width: 2"/>
      </g>
     </g>
     <g id="text_14">
      <!-- 25 -->
      <g transform="translate(37.46 72.727456) scale(0.34 -0.34)">
       <use xlink:href="#STIXTwoText-32"/>
       <use xlink:href="#STIXTwoText-35" x="49.499985"/>
      </g>
     </g>
    </g>
    <g id="ytick_6">
     <g id="line2d_27"/>
     <g id="text_15">
      <!-- $S,$ м -->
      <g transform="translate(7.2 31.201875) scale(0.34 -0.34)">
       <defs>
        <path id="STIXTwoText-Italic-53" d="M 346 -96 
L 154 -96 
L 422 1286 
L 602 1286 
Q 634 845 726 608 
Q 819 371 1011 281 
Q 1203 192 1523 192 
Q 1792 192 2000 272 
Q 2208 352 2329 515 
Q 2451 678 2451 922 
Q 2458 1197 2333 1389 
Q 2208 1581 2009 1731 
Q 1811 1882 1581 2022 
Q 1370 2157 1194 2297 
Q 1018 2438 912 2633 
Q 806 2829 806 3123 
Q 806 3494 1004 3750 
Q 1203 4006 1523 4137 
Q 1843 4269 2202 4269 
Q 2483 4269 2640 4224 
Q 2797 4179 2886 4131 
Q 2976 4083 3046 4083 
Q 3130 4083 3190 4124 
Q 3251 4166 3296 4269 
L 3450 4269 
L 3232 3027 
L 3046 3027 
Q 3027 3558 2854 3798 
Q 2682 4038 2195 4038 
Q 1798 4038 1574 3846 
Q 1350 3654 1350 3309 
Q 1350 3117 1456 2957 
Q 1562 2797 1741 2662 
Q 1920 2528 2125 2400 
Q 2362 2246 2570 2092 
Q 2778 1939 2912 1734 
Q 3046 1530 3046 1222 
Q 3046 813 2841 525 
Q 2637 237 2297 80 
Q 1958 -77 1562 -77 
Q 1229 -77 1037 -29 
Q 845 19 739 67 
Q 634 115 557 115 
Q 493 115 429 57 
Q 365 0 346 -96 
z
" transform="scale(0.015625)"/>
        <path id="STIXTwoText-20" transform="scale(0.015625)"/>
        <path id="STIXTwoText-43c" d="M 1331 0 
L 115 0 
L 115 179 
Q 320 179 422 211 
Q 525 243 557 352 
Q 589 461 589 691 
L 589 2432 
Q 589 2611 557 2697 
Q 525 2784 425 2813 
Q 326 2842 128 2842 
L 128 3027 
L 1235 3027 
L 2214 832 
L 2234 832 
L 3206 3027 
L 4262 3027 
L 4262 2842 
Q 3994 2842 3901 2768 
Q 3808 2694 3808 2426 
L 3808 576 
Q 3808 339 3888 259 
Q 3968 179 4262 179 
L 4262 0 
L 2848 0 
L 2848 179 
Q 3053 179 3139 211 
Q 3226 243 3248 329 
Q 3270 416 3270 576 
L 3270 2490 
L 3251 2490 
L 2157 0 
L 2029 0 
L 902 2445 
L 877 2445 
L 877 691 
Q 877 461 912 352 
Q 947 243 1046 211 
Q 1146 179 1331 179 
L 1331 0 
z
" transform="scale(0.015625)"/>
       </defs>
       <use xlink:href="#STIXTwoText-Italic-53" transform="translate(0 0.296875)"/>
       <use xlink:href="#STIXTwoText-2c" transform="translate(53.399994 0.296875)"/>
       <use xlink:href="#STIXTwoText-20" transform="translate(94.399976 0.296875)"/>
       <use xlink:href="#STIXTwoText-43c" transform="translate(117.89996 0.296875)"/>
      </g>
     </g>
    </g>
   </g>
   <g id="line2d_28">
    <path d="M 81.12 268.354426 
L 122.645581 185.303263 
L 205.696744 143.777682 
L 288.747907 143.777682 
L 371.79907 60.726519 
" clip-path="url(#p50f40699b3)" style="fill: none; stroke: #000000; stroke-width: 2.7; stroke-linecap: square"/>
   </g>
   <g id="patch_3">
    <path d="M 81.12 268.354426 
Q 253.451163 268.354426 424.331659 268.354426 
" style="fill: none; stroke: #000000; stroke-width: 2.56; stroke-linecap: round"/>
    <path d="M 412.765394 264.017076 
L 424.331659 268.354426 
L 412.765394 272.691775 
z
" style="stroke: #000000; stroke-width: 2.56; stroke-linecap: round"/>
   </g>
   <g id="patch_4">
    <path d="M 81.12 268.354426 
Q 81.12 143.777682 81.12 22.623857 
" style="fill: none; stroke: #000000; stroke-width: 2.56; stroke-linecap: round"/>
    <path d="M 76.782651 34.190122 
L 81.12 22.623857 
L 85.457349 34.190122 
z
" style="stroke: #000000; stroke-width: 2.56; stroke-linecap: round"/>
   </g>
  </g>
 </g>
 <defs>
  <clipPath id="p50f40699b3">
   <rect x="68.662326" y="19.200938" width="357.12" height="249.153488"/>
  </clipPath>
 </defs>
</svg>
