<svg xmlns="http://www.w3.org/2000/svg" version="1.0" width="1254.573443pt" height="1541.912633pt" viewBox="0 0 1254.573443 1541.912633" preserveAspectRatio="xMidYMid meet">
<metadata>
Created by potrace 1.16, written by Peter Selinger 2001-2019
</metadata>
<g transform="translate(-23.132432,1619.000000) scale(0.100000,-0.100000)" fill="#000000" stroke="none">
<path d="M730 16119 c-13 -66 -16 -73 -47 -85 -52 -22 -56 -19 -49 33 3 26 11 52 16 57 19 19 11 46 -14 46 -26 0 -27 -4 -42 -95 -3 -22 -8 -48 -10 -57 -6 -20 -60 -37 -143 -47 -30 -3 -56 -12 -59 -18 -5 -18 69 -17 138 2 30 8 55 15 55 15 1 0 -1 -16 -3 -35 -4 -34 -6 -35 -63 -47 -39 -8 -59 -17 -59 -26 0 -11 9 -13 38 -9 20 3 45 8 55 12 14 6 17 1 17 -34 0 -34 3 -41 20 -41 19 0 31 15 50 66 9 24 8 26 -10 21 -11 -3 -20 -2 -20 3 0 4 12 10 28 13 15 3 35 9 44 12 12 5 16 2 13 -12 -15 -75 -15 -83 4 -83 15 0 20 10 26 54 l6 55 45 7 c55 8 58 24 3 24 l-41 0 7 33 c8 35 20 47 50 47 33 0 65 12 65 23 0 6 -19 8 -50 4 -27 -3 -50 -5 -50 -4 0 1 7 27 15 57 19 71 19 80 -3 80 -15 0 -21 -14 -32 -71z m-28 -139 c-5 -35 -16 -45 -59 -55 -30 -6 -33 -4 -33 17 0 13 4 28 8 35 6 9 53 27 83 32 3 1 4 -12 1 -29z"/>
<path d="M1405 16158 c-32 -88 -47 -144 -52 -195 -6 -60 -5 -63 16 -63 12 0 40 9 62 21 38 19 40 19 35 2 -26 -87 -33 -163 -13 -163 7 0 19 32 30 81 10 44 27 106 38 137 34 96 33 92 11 92 -15 0 -24 -11 -34 -42 -11 -32 -24 -49 -54 -65 -21 -13 -42 -23 -46 -23 -16 0 -7 72 17 137 14 37 23 73 21 80 -7 17 -25 17 -31 1z"/>
<path d="M1108 16109 c-35 -20 -20 -32 32 -25 62 8 65 -5 15 -54 -54 -53 -48 -62 35 -54 40 4 70 3 70 -2 0 -20 -31 -53 -78 -83 -57 -36 -72 -39 -65 -10 5 16 2 20 -12 18 -23 -5 -40 -32 -32 -53 18 -46 177 26 214 97 13 26 13 31 -3 48 -11 13 -30 19 -57 19 l-40 0 21 23 c24 26 28 57 10 75 -15 15 -86 15 -110 1z"/>
<path d="M8595 15768 c-3 -7 -16 -56 -29 -108 -13 -52 -40 -135 -60 -184 -22 -56 -32 -94 -27 -99 16 -16 232 -20 261 -5 34 18 42 78 11 78 -16 0 -21 -6 -21 -25 0 -20 -6 -25 -36 -31 -33 -6 -163 2 -172 11 -2 2 12 46 32 97 44 115 79 245 72 264 -7 17 -25 18 -31 2z"/>
<path d="M3430 15721 c-32 -9 -64 -86 -41 -100 11 -7 13 -26 7 -93 -4 -45 -10 -94 -13 -106 -5 -20 -2 -23 13 -20 15 3 21 18 30 83 21 150 23 195 11 195 -7 0 -6 4 3 10 19 12 69 3 93 -18 23 -21 22 -84 -3 -158 -12 -32 -22 -79 -23 -104 -2 -36 1 -45 17 -48 24 -5 37 16 23 38 -8 13 -4 38 16 103 15 47 27 101 27 120 0 45 -29 81 -78 95 -43 13 -45 13 -82 3z"/>
<path d="M4733 15698 c-9 -12 -43 -211 -43 -250 0 -10 6 -18 14 -18 10 0 18 24 27 78 l14 77 22 -37 c18 -31 28 -38 53 -38 25 0 36 9 66 50 20 28 38 49 40 47 3 -2 0 -35 -6 -73 -15 -105 -12 -128 18 -136 13 -3 20 65 25 227 3 69 -15 65 -80 -15 -28 -36 -58 -65 -65 -65 -13 0 -26 37 -44 119 -10 42 -25 55 -41 34z"/>
<path d="M387 15683 c-4 -3 -7 -10 -7 -15 0 -4 397 -7 883 -6 796 3 894 1 1004 -15 67 -9 139 -23 160 -30 l38 -12 3 -90 c3 -95 -15 -302 -48 -545 -21 -152 -40 -452 -40 -631 0 -58 11 -192 25 -297 39 -301 32 -456 -27 -585 -35 -76 -64 -105 -148 -147 -140 -70 -257 -81 -985 -86 -319 -2 -588 -4 -597 -4 -10 0 -18 -4 -18 -10 0 -13 1038 -13 1255 0 187 11 286 33 387 87 115 60 169 159 190 348 12 111 8 170 -33 470 -20 152 -21 174 -10 435 7 155 20 336 31 415 28 193 60 504 60 574 0 71 -15 88 -97 107 -162 38 -317 44 -1181 44 -461 0 -842 -3 -845 -7z"/>
<path d="M6502 15640 c-106 -7 -149 -18 -123 -34 20 -13 341 20 341 35 0 10 -46 10 -218 -1z"/>
<path d="M9430 15601 c0 -17 -40 -137 -65 -193 -5 -12 -2 -20 8 -24 10 -3 32 13 63 47 l49 52 5 -29 c4 -25 10 -29 42 -32 22 -2 56 5 84 17 55 25 54 25 54 6 0 -43 89 -43 146 0 45 34 44 60 -3 88 l-38 22 50 11 c28 7 69 13 93 13 47 1 49 -3 30 -73 -9 -36 -9 -48 1 -60 16 -19 68 -21 122 -4 34 10 42 9 59 -7 31 -28 25 -38 -38 -63 -74 -28 -142 -85 -142 -117 0 -35 36 -55 98 -55 103 0 167 55 167 142 l0 47 80 39 c109 53 129 57 163 33 26 -19 71 -26 140 -23 48 3 39 22 -12 22 -87 0 -136 36 -136 100 0 22 -6 33 -22 39 -50 18 -103 -27 -103 -89 0 -38 -1 -40 -58 -65 -32 -14 -63 -25 -68 -25 -6 0 -20 12 -33 27 l-23 27 24 19 c32 25 27 58 -11 72 -25 8 -31 6 -53 -19 -14 -16 -23 -37 -20 -47 5 -19 -35 -39 -81 -39 -21 0 -24 3 -18 28 21 89 20 101 -8 114 -22 9 -45 9 -109 0 -127 -19 -160 -30 -154 -53 3 -11 0 -19 -8 -19 -7 0 -19 -7 -26 -17 -17 -19 -107 -63 -131 -63 -25 0 -22 17 7 56 48 63 26 71 -55 20 -30 -19 -56 -33 -57 -32 -2 2 4 22 12 46 21 59 19 80 -5 80 -13 0 -20 -7 -20 -19z m990 -40 c0 -13 -40 -61 -51 -61 -14 0 -11 23 7 48 15 22 44 30 44 13z m-645 -45 c46 -19 44 -39 -4 -61 -57 -25 -75 -8 -48 48 14 32 9 31 52 13z m375 10 c0 -3 -4 -8 -10 -11 -5 -3 -10 -1 -10 4 0 6 5 11 10 11 6 0 10 -2 10 -4z m30 -191 c0 -24 -9 -44 -29 -67 -24 -27 -36 -32 -87 -36 -46 -3 -63 0 -73 12 -11 13 -9 19 13 41 26 26 138 84 164 85 7 0 12 -13 12 -35z"/>
<path d="M7978 15601 c-102 -6 -137 -22 -125 -55 8 -20 37 -21 37 -1 0 17 19 22 127 30 49 3 84 1 88 -4 3 -6 -10 -42 -30 -80 -19 -39 -35 -75 -35 -81 0 -17 36 -11 55 10 23 25 41 25 55 0 9 -17 7 -22 -15 -30 -34 -13 -115 -13 -115 0 0 16 -20 12 -27 -6 -9 -23 15 -34 78 -34 107 0 152 35 112 89 -11 14 -32 27 -46 29 -31 4 -32 7 -12 42 29 51 9 104 -37 98 -7 -1 -57 -4 -110 -7z"/>
<path d="M11627 15603 c-4 -3 -7 -19 -7 -35 0 -25 -2 -27 -19 -18 -41 21 -91 12 -153 -30 -33 -22 -72 -40 -87 -40 l-26 1 33 29 c17 16 32 34 32 40 0 16 -46 11 -61 -6 -14 -17 -84 -64 -94 -64 -4 0 -4 9 0 19 10 34 -15 34 -82 0 -69 -35 -152 -46 -160 -21 -7 19 64 82 94 82 22 0 24 -3 18 -31 -6 -28 -5 -30 17 -27 19 2 23 9 23 38 0 27 -6 37 -26 49 -25 14 -31 13 -75 -10 -43 -22 -94 -77 -94 -100 0 -5 9 -18 20 -29 26 -26 84 -26 152 0 29 11 54 20 56 20 1 0 2 -11 2 -25 0 -32 19 -32 70 0 26 17 41 21 46 14 4 -8 28 -10 65 -6 41 4 59 1 63 -8 6 -16 62 -25 96 -15 17 5 30 2 39 -8 12 -12 7 -28 -37 -113 -32 -63 -47 -101 -40 -105 15 -10 32 15 91 137 45 92 58 110 100 138 l48 32 -6 -34 c-5 -25 -2 -38 10 -50 20 -20 71 -21 105 -3 21 12 26 12 36 -2 7 -10 26 -16 48 -16 69 0 132 77 100 123 -12 16 -25 21 -60 21 -58 0 -78 -11 -109 -60 -26 -42 -68 -61 -88 -41 -9 9 -8 22 4 54 27 76 12 84 -60 32 -26 -19 -51 -35 -54 -35 -3 0 -3 25 0 55 5 44 3 55 -9 55 -8 0 -18 -3 -21 -7z m-42 -84 c12 -19 -26 -49 -62 -49 -25 0 -33 4 -33 18 0 10 5 23 12 30 15 15 74 16 83 1z m412 -15 c6 -19 -37 -64 -63 -64 -27 0 -30 13 -11 53 10 22 18 27 41 25 16 -2 31 -8 33 -14z"/>
<path d="M5557 15583 c-2 -5 -10 -25 -16 -46 -7 -20 -16 -35 -21 -32 -5 3 -32 -15 -60 -40 -28 -25 -53 -45 -57 -45 -3 0 -3 24 0 53 9 86 -16 108 -72 62 l-30 -26 -3 33 c-2 25 -8 33 -22 33 -17 0 -20 -8 -21 -55 -1 -30 -3 -61 -6 -69 -10 -34 31 -19 74 26 l46 48 -6 -60 c-4 -50 -2 -63 12 -75 18 -15 23 -13 92 30 12 8 25 12 28 8 3 -3 -10 -52 -29 -108 -41 -117 -42 -123 -19 -118 11 2 27 34 48 98 l32 94 40 -2 c100 -8 213 92 158 138 -15 13 -89 9 -128 -6 -16 -6 -18 -3 -12 30 6 29 4 36 -8 36 -9 0 -18 -3 -20 -7z m147 -81 c9 -14 -48 -62 -90 -77 -43 -15 -74 -3 -67 25 9 35 141 78 157 52z"/>
<path d="M7486 15578 c-1 -7 -13 -43 -25 -80 -35 -105 -18 -113 69 -33 33 30 62 55 65 55 3 0 3 -11 -1 -25 -13 -51 33 -71 78 -35 l26 20 5 -30 c7 -33 49 -52 70 -31 15 15 27 14 27 -2 0 -7 -23 -20 -51 -30 -31 -11 -70 -37 -100 -66 -41 -39 -49 -53 -49 -83 0 -20 10 -50 23 -69 19 -28 30 -35 64 -37 36 -3 44 1 71 33 43 52 91 223 92 328 0 25 -29 21 -52 -8 -11 -14 -29 -30 -40 -36 -21 -11 -21 -10 -14 54 6 65 -2 90 -23 65 -80 -100 -94 -108 -85 -49 10 63 -16 63 -98 -1 -43 -34 -43 -34 -23 16 9 20 13 41 10 46 -9 14 -35 12 -39 -2z m308 -225 c-22 -103 -55 -178 -85 -194 -33 -17 -69 22 -69 76 0 47 24 76 100 119 57 32 62 32 54 -1z"/>
<path d="M12405 15574 c-58 -16 -151 -18 -160 -4 -3 6 -13 10 -21 10 -19 0 -18 -36 1 -44 8 -3 15 -17 15 -31 0 -18 -7 -28 -27 -36 -39 -15 -117 -8 -120 11 -4 23 13 43 38 44 34 1 31 30 -3 34 -35 4 -78 -36 -78 -72 0 -42 39 -60 115 -53 50 5 64 3 69 -8 9 -25 22 -17 67 45 27 36 54 61 69 65 14 3 33 8 43 11 17 5 18 4 3 -25 -22 -42 -20 -60 9 -73 20 -9 35 -7 78 9 l54 20 10 -28 c8 -20 21 -30 49 -38 43 -12 123 -15 148 -5 31 12 4 24 -54 24 -79 0 -110 15 -110 52 0 15 6 37 12 48 10 15 10 22 0 32 -11 11 -18 7 -40 -19 -26 -30 -63 -53 -109 -67 -31 -10 -30 9 2 56 42 62 33 68 -60 42z m-105 -48 c0 -11 -19 -15 -25 -6 -3 5 1 10 9 10 9 0 16 -2 16 -4z"/>
<path d="M6490 15540 c-16 -17 -35 -50 -43 -73 l-14 -42 -59 0 c-69 0 -79 15 -43 64 12 16 18 34 15 40 -13 21 -37 11 -58 -24 -18 -31 -62 -65 -84 -65 -7 0 -1 45 12 88 5 18 2 22 -15 22 -11 0 -21 -4 -21 -9 0 -4 -18 -29 -41 -55 -46 -52 -75 -61 -65 -21 20 80 20 77 0 73 -10 -2 -26 -18 -35 -37 -14 -29 -49 -60 -71 -61 -4 0 0 16 8 35 21 51 6 75 -48 75 -80 0 -141 -60 -136 -133 l3 -42 45 1 c25 1 78 14 119 29 56 20 75 24 81 15 12 -19 58 -15 88 7 27 20 27 20 43 -1 15 -19 21 -20 57 -10 36 10 43 9 61 -9 16 -17 33 -21 85 -20 44 0 69 -4 77 -13 15 -18 80 -18 124 0 41 18 85 59 85 81 0 23 -20 18 -42 -10 -31 -39 -120 -70 -141 -48 -4 3 10 17 32 30 49 29 78 85 62 119 -15 33 -47 30 -81 -6z m35 -49 c-14 -29 -35 -42 -35 -22 0 12 41 63 47 57 2 -2 -3 -18 -12 -35z m-575 17 c0 -7 -9 -28 -20 -45 -20 -34 -58 -44 -89 -24 -16 11 -1 43 31 65 27 19 78 21 78 4z"/>
<path d="M7955 15548 c-31 -103 -38 -118 -51 -118 -11 0 -14 -10 -12 -37 5 -64 28 -46 70 51 21 50 38 96 38 103 0 17 -39 17 -45 1z"/>
<path d="M6794 15523 c-30 -32 -104 -142 -104 -155 0 -4 9 -8 20 -8 13 0 36 22 66 63 51 69 64 79 64 47 0 -70 67 -112 146 -90 61 17 55 29 -15 27 -34 -1 -65 3 -71 9 -7 7 -17 38 -23 70 -10 49 -16 60 -34 62 -15 2 -32 -7 -49 -25z"/>
<path d="M3995 15530 c-3 -5 -24 -10 -46 -10 -71 0 -129 -45 -129 -102 0 -15 5 -30 12 -34 23 -14 106 -6 174 16 63 21 68 22 80 6 21 -29 56 -16 73 27 18 49 5 65 -35 44 -27 -14 -30 -13 -47 9 l-18 24 91 0 90 0 0 -29 c0 -17 -4 -33 -10 -36 -14 -9 -13 -55 1 -55 7 0 22 11 35 25 13 14 28 25 34 25 14 0 53 -40 46 -47 -3 -3 -33 -9 -66 -12 -79 -8 -82 -25 -5 -29 65 -2 108 13 113 41 5 23 -51 77 -80 77 -18 0 -26 8 -33 33 l-10 32 -132 3 c-82 2 -134 -1 -138 -8z m48 -58 c10 -11 15 -22 10 -25 -19 -11 -111 -36 -138 -38 -54 -4 -63 0 -58 20 9 36 41 55 89 53 33 -1 44 2 44 14 0 18 26 7 53 -24z"/>
<path d="M3597 15504 c-8 -9 2 -82 15 -107 10 -20 50 -20 92 -2 18 8 18 4 14 -73 -5 -83 -17 -112 -48 -112 -23 0 -50 32 -50 59 0 30 -34 24 -38 -7 -5 -34 48 -82 91 -82 64 0 72 19 81 223 4 89 3 97 -14 97 -10 0 -21 -9 -25 -19 -9 -29 -45 -71 -60 -71 -9 0 -15 15 -17 47 -2 34 -8 49 -18 51 -9 1 -19 0 -23 -4z"/>
<path d="M9047 15434 c-4 -4 -7 -21 -7 -38 0 -39 -35 -111 -67 -136 -23 -18 -24 -20 -8 -27 41 -15 123 115 113 179 -3 22 -19 33 -31 22z"/>
<path d="M610 15420 c-20 -5 -25 -12 -23 -33 1 -15 -9 -78 -21 -140 -24 -114 -24 -137 -1 -137 16 0 17 4 45 135 12 54 22 101 24 103 2 1 7 -18 11 -45 10 -67 34 -121 56 -128 37 -12 58 6 94 78 l35 72 0 -87 c0 -100 5 -118 32 -118 16 0 18 4 12 18 -5 9 -9 73 -9 142 0 109 -2 125 -17 128 -13 2 -29 -22 -68 -102 -28 -58 -54 -106 -59 -106 -14 0 -30 47 -41 118 -17 109 -21 115 -70 102z"/>
<path d="M1235 15183 c4 -71 11 -132 15 -136 21 -23 49 4 107 102 34 58 69 109 78 113 23 13 19 48 -5 48 -14 0 -36 -28 -81 -105 -34 -58 -65 -108 -70 -111 -5 -3 -9 44 -9 105 0 106 -1 111 -21 111 -20 0 -20 -3 -14 -127z"/>
<path d="M1006 15123 c-13 -26 -86 -203 -86 -210 0 -2 7 -3 15 -3 15 0 115 197 115 226 0 24 -29 15 -44 -13z"/>
<path d="M6410 15120 c-38 -53 -100 -198 -122 -282 -23 -92 -20 -151 10 -181 22 -21 67 -26 85 -8 8 8 4 11 -15 11 -42 0 -58 24 -58 86 0 94 85 308 144 363 32 30 33 41 2 41 -16 0 -32 -11 -46 -30z"/>
<path d="M1429 15109 c-32 -35 -37 -69 -13 -94 9 -9 14 -19 11 -22 -14 -13 15 -43 42 -43 32 0 64 30 86 82 20 49 19 64 -5 88 -32 32 -86 27 -121 -11z m99 -29 c3 -26 -33 -90 -54 -97 -15 -5 -47 63 -38 80 31 54 86 64 92 17z"/>
<path d="M6854 15088 c-4 -7 -2 -14 6 -16 54 -18 88 -118 70 -205 -11 -53 -73 -167 -91 -167 -5 0 -9 -7 -9 -15 0 -25 27 -17 56 18 15 17 40 59 56 92 35 74 38 166 9 231 -27 59 -79 92 -97 62z"/>
<path d="M12073 15080 c-3 -13 -21 -66 -40 -119 -83 -232 -86 -242 -75 -253 8 -8 15 -8 24 -1 7 6 51 14 98 18 87 7 130 24 130 50 0 19 -10 19 -46 0 -27 -14 -164 -22 -164 -10 0 3 25 69 56 146 30 77 54 149 52 161 -4 30 -28 35 -35 8z"/>
<path d="M12595 15080 c-65 -26 -159 -188 -160 -275 0 -49 0 -50 33 -53 43 -4 135 15 158 34 17 13 10 14 -68 8 -73 -6 -88 -4 -88 7 0 8 13 22 29 32 32 19 96 91 130 147 25 42 28 95 5 104 -9 3 -16 6 -17 5 -1 0 -11 -4 -22 -9z m15 -53 c0 -17 -46 -81 -85 -120 -55 -54 -40 -9 27 81 38 51 58 65 58 39z"/>
<path d="M4232 15064 c-29 -20 -69 -100 -83 -165 -10 -48 -14 -52 -57 -71 -53 -24 -77 -16 -77 25 0 29 -10 42 -43 52 -18 5 -31 -2 -63 -34 -51 -51 -51 -84 -1 -89 18 -2 40 2 47 8 11 9 23 9 50 0 33 -11 59 -9 99 6 13 5 15 1 10 -25 -5 -24 -3 -31 10 -31 9 0 16 7 16 15 0 19 9 19 34 0 25 -19 59 -19 95 0 68 34 46 115 -31 115 l-27 0 34 51 c45 66 63 123 45 144 -16 19 -30 19 -58 -1z m28 -42 c0 -21 -58 -117 -66 -109 -10 9 47 127 61 127 3 0 5 -8 5 -18z m-310 -194 c-45 -37 -54 -16 -13 28 25 26 28 27 31 9 3 -11 -5 -26 -18 -37z m304 6 c25 -10 19 -43 -10 -56 -29 -14 -57 -2 -62 27 -6 28 33 44 72 29z"/>
<path d="M11163 15033 c-13 -2 -23 -11 -23 -19 0 -12 7 -14 28 -10 15 2 57 8 95 11 37 4 67 11 67 16 0 9 -123 10 -167 2z"/>
<path d="M7672 15022 c-16 -5 -16 -32 1 -33 6 0 49 0 95 1 45 1 82 0 82 -2 0 -12 -73 -205 -81 -212 -16 -17 -10 -46 10 -46 15 0 24 13 36 53 10 28 31 84 47 124 l30 72 94 3 c151 5 118 22 -56 30 -85 3 -175 8 -200 11 -25 2 -51 2 -58 -1z"/>
<path d="M6590 14968 c-28 -45 -53 -133 -45 -158 11 -34 54 -37 107 -7 l48 27 0 -24 c0 -13 7 -29 16 -36 21 -18 72 -17 91 3 23 22 9 33 -23 18 -42 -19 -52 0 -30 57 42 110 29 131 -36 57 -44 -49 -81 -79 -115 -89 -19 -6 -23 -4 -23 16 0 27 43 122 59 132 18 12 12 36 -9 36 -12 0 -28 -13 -40 -32z"/>
<path d="M4483 14978 c-14 -17 -83 -160 -83 -170 0 -13 32 -9 44 5 6 8 32 26 58 40 l47 27 3 -32 c3 -32 4 -33 53 -33 37 0 54 -5 64 -19 16 -21 69 -18 121 8 27 13 35 13 53 1 29 -18 109 -23 115 -7 2 8 -8 12 -30 12 -18 0 -44 7 -56 16 l-23 15 26 31 c36 42 32 92 -7 96 -21 3 -30 -3 -42 -27 -9 -16 -16 -44 -16 -60 0 -24 -7 -34 -30 -46 -16 -8 -40 -15 -55 -15 -21 0 -25 5 -25 30 0 33 -14 38 -39 16 -22 -19 -71 -31 -71 -17 0 6 7 29 16 51 23 57 7 72 -38 39 -91 -68 -106 -69 -63 -5 14 21 23 42 20 47 -9 13 -31 11 -42 -3z"/>
<path d="M3386 14924 c-41 -42 -67 -109 -55 -141 16 -45 109 -39 212 14 27 13 50 23 52 21 1 -2 -8 -43 -21 -93 -29 -112 -31 -168 -7 -163 13 2 27 40 57 150 37 138 41 148 69 159 35 15 60 3 65 -29 2 -16 -7 -26 -37 -41 -22 -12 -47 -21 -56 -21 -8 0 -15 -7 -15 -15 0 -20 26 -19 77 4 54 25 77 59 63 95 -23 60 -93 55 -210 -16 -75 -45 -160 -73 -197 -63 -21 5 -24 10 -18 33 15 61 79 133 89 100 13 -42 17 -49 29 -46 36 13 4 88 -38 88 -14 0 -38 -14 -59 -36z"/>
<path d="M5474 14952 c-5 -4 -20 -22 -33 -40 -27 -38 -96 -92 -119 -92 -12 0 -14 10 -9 50 8 70 -9 73 -65 14 -50 -53 -78 -55 -78 -7 -1 79 -42 68 -92 -22 -43 -79 -46 -95 -20 -95 12 0 26 17 42 49 l23 50 27 -29 c30 -32 59 -32 97 2 l21 20 4 -28 c5 -43 55 -45 119 -5 l49 30 0 -24 c0 -37 26 -56 73 -53 22 2 42 9 45 16 2 8 -5 12 -25 10 -54 -4 -65 24 -41 104 12 39 3 64 -18 50z"/>
<path d="M5841 14890 c-40 -91 -41 -137 -3 -151 56 -22 146 13 140 54 -5 33 -67 46 -103 23 -27 -18 -27 -18 -20 6 11 33 35 80 52 100 17 20 10 38 -16 38 -13 0 -28 -21 -50 -70z m99 -105 c0 -12 -54 -25 -74 -18 -20 6 -20 7 4 14 31 9 70 11 70 4z"/>
<path d="M5640 14932 c-45 -24 -73 -75 -58 -107 24 -52 151 -76 191 -36 26 26 15 39 -17 21 -31 -16 -101 -8 -126 15 -16 14 -17 21 -7 42 6 13 23 31 38 39 30 15 63 19 55 6 -9 -15 12 -35 29 -29 11 5 15 16 13 34 -3 25 -8 28 -43 31 -25 2 -53 -5 -75 -16z"/>
<path d="M8694 14923 c-13 -14 -30 -46 -37 -70 -11 -38 -21 -49 -64 -74 l-51 -29 -16 25 c-16 24 -15 27 6 55 26 36 17 63 -25 68 -30 4 -57 -29 -57 -71 0 -23 -7 -31 -35 -43 -19 -7 -48 -14 -65 -14 l-31 0 31 43 c34 48 32 74 -6 83 -53 13 -147 -26 -130 -54 8 -14 36 -16 36 -3 0 14 58 34 76 27 15 -6 15 -9 -3 -29 -78 -85 -35 -128 87 -87 59 20 63 20 81 4 18 -16 17 -18 -24 -44 -55 -35 -107 -95 -107 -123 0 -74 83 -92 149 -31 46 40 66 90 57 139 -6 32 -4 34 50 65 31 17 69 34 83 36 14 3 38 13 52 24 27 19 27 19 45 -2 27 -29 68 -48 104 -48 38 0 39 16 2 23 -15 3 -48 24 -74 46 -25 23 -52 41 -58 41 -8 0 -10 8 -7 22 7 24 -8 48 -30 48 -8 0 -25 -12 -39 -27z m-193 -86 c-8 -8 -11 -7 -11 4 0 20 13 34 18 19 3 -7 -1 -17 -7 -23z m26 -178 c-10 -73 -104 -144 -124 -93 -11 28 11 67 55 101 60 46 76 44 69 -8z"/>
<path d="M10249 14884 c-24 -37 -59 -78 -77 -92 l-33 -25 7 56 c6 48 4 58 -10 63 -10 4 -28 -1 -44 -13 -52 -37 -55 -38 -48 -10 8 33 -2 57 -24 57 -14 0 -19 -11 -23 -57 -3 -32 -7 -67 -9 -78 -6 -37 32 -29 78 16 l43 42 -2 -42 c-3 -57 19 -73 65 -49 30 15 78 30 78 24 0 -4 -47 -138 -55 -158 -4 -10 -13 -18 -21 -18 -8 0 -14 -6 -14 -14 0 -7 -3 -28 -6 -45 -6 -27 -4 -31 14 -31 17 0 29 22 72 133 l51 132 46 -4 c87 -7 173 47 173 110 0 56 -54 74 -138 45 -38 -14 -40 -13 -45 5 -9 34 -33 20 -78 -47z m218 10 c9 -25 -12 -59 -48 -77 -29 -13 -35 -14 -42 -2 -6 11 -14 12 -38 3 -36 -12 -40 -10 -32 21 4 16 23 31 57 47 59 28 94 30 103 8z"/>
<path d="M10640 14935 c-26 -9 -40 -23 -56 -56 -31 -63 -37 -105 -17 -124 22 -23 58 -12 109 33 33 30 42 46 48 85 11 74 -9 89 -84 62z m45 -54 c-8 -40 -30 -61 -61 -61 -34 0 -30 16 16 63 45 44 55 44 45 -2z m-65 -95 c0 -2 -7 -6 -15 -10 -8 -3 -15 -1 -15 4 0 6 7 10 15 10 8 0 15 -2 15 -4z"/>
<path d="M11262 14917 c-13 -13 -31 -46 -41 -73 -18 -47 -21 -49 -60 -52 -39 -3 -41 -2 -41 26 0 16 9 41 20 55 25 32 25 47 1 47 -10 0 -31 -16 -45 -35 -28 -36 -73 -65 -101 -65 -19 0 -19 36 0 70 19 33 18 40 -3 40 -10 0 -29 -17 -43 -37 -25 -38 -87 -87 -126 -98 -28 -8 -30 12 -8 74 13 37 13 43 -1 48 -30 11 -50 -23 -49 -84 0 -54 2 -58 29 -68 24 -8 37 -5 86 22 47 25 60 29 64 17 7 -19 69 -18 106 1 27 14 29 14 32 -8 5 -33 51 -51 100 -39 28 7 48 7 63 0 39 -18 117 15 101 41 -6 9 -14 8 -32 -3 -43 -29 -59 -17 -17 13 41 30 67 76 61 108 -5 30 -68 30 -96 0z m61 -24 c-7 -22 -43 -63 -55 -63 -15 0 -8 27 13 54 23 30 52 36 42 9z"/>
<path d="M11621 14888 c-13 -33 -79 -93 -135 -122 -60 -32 -74 -32 -78 -4 -4 29 -24 34 -37 9 -13 -24 -5 -48 20 -61 22 -12 95 13 154 53 l40 27 5 -27 c4 -24 10 -28 44 -31 40 -3 156 33 156 49 0 12 -5 12 -82 -8 -37 -9 -70 -14 -74 -10 -7 6 12 87 31 130 5 13 2 17 -14 17 -13 0 -25 -9 -30 -22z"/>
<path d="M12190 14890 c0 -24 51 -40 128 -40 60 0 70 16 15 25 -21 4 -59 13 -85 21 -59 18 -58 18 -58 -6z"/>
<path d="M9213 14884 c-3 -9 0 -20 7 -24 8 -5 15 -28 16 -52 2 -55 30 -64 57 -18 21 35 61 65 77 55 5 -3 10 -19 10 -36 0 -39 17 -37 86 11 32 22 60 40 64 40 4 0 11 -24 16 -52 8 -48 12 -53 38 -56 21 -3 26 0 20 10 -5 7 -13 38 -19 68 -9 50 -13 55 -38 58 -16 2 -49 -7 -77 -22 l-48 -25 -16 24 c-21 31 -44 31 -89 1 l-36 -24 -10 29 c-11 32 -47 40 -58 13z"/>
<path d="M8014 14833 c-3 -10 -10 -28 -15 -41 -15 -37 -11 -60 13 -76 46 -32 149 -11 161 33 15 59 -141 140 -159 84z m107 -49 c24 -25 24 -26 4 -40 -27 -20 -89 -14 -93 8 -4 19 31 58 51 58 8 0 24 -12 38 -26z"/>
<path d="M1441 14752 c-55 -55 -106 -153 -122 -234 -10 -49 -9 -61 5 -82 23 -36 68 -41 151 -16 120 37 107 56 -16 24 -74 -19 -109 -9 -109 31 0 20 5 25 25 25 14 0 25 4 25 10 0 5 22 38 50 72 61 76 116 178 107 201 -4 11 -18 17 -37 17 -24 0 -42 -11 -79 -48z m60 -33 c-25 -47 -99 -147 -126 -169 -16 -14 -17 -13 -10 10 17 54 58 122 100 167 25 25 48 44 51 40 4 -3 -3 -25 -15 -48z"/>
<path d="M7110 14771 c0 -15 29 -33 45 -27 22 8 6 36 -21 36 -13 0 -24 -4 -24 -9z"/>
<path d="M629 14688 c-1 -7 0 -25 1 -39 0 -15 -6 -53 -14 -87 -20 -74 -20 -82 -2 -82 8 0 24 20 36 45 26 53 121 156 127 138 3 -7 -3 -37 -11 -67 -31 -107 -17 -111 71 -24 34 34 65 59 68 56 3 -3 -2 -47 -11 -97 -14 -70 -15 -94 -6 -103 6 -6 14 -10 16 -7 7 7 46 190 46 215 0 47 -48 43 -106 -8 l-36 -31 7 36 c14 76 -33 88 -100 26 l-44 -40 -3 38 c-2 27 -8 39 -20 41 -10 2 -18 -2 -19 -10z"/>
<path d="M1066 14398 c-32 -55 -48 -97 -40 -109 9 -15 34 -10 34 6 0 21 35 88 54 104 22 19 20 41 -4 41 -12 0 -28 -15 -44 -42z"/>
<path d="M5583 14336 c-17 -14 -40 -48 -52 -76 -22 -51 -53 -76 -101 -80 -56 -5 -59 -2 -62 47 -4 59 -24 66 -73 29 l-34 -26 -3 23 c-3 19 -8 22 -42 19 -21 -2 -50 -12 -65 -23 -37 -27 -231 -93 -242 -82 -6 6 -3 26 6 52 19 55 19 61 -2 61 -10 0 -28 -16 -41 -36 -25 -38 -105 -94 -135 -94 -18 0 -19 5 -13 55 7 64 -7 73 -42 26 -23 -32 -114 -81 -149 -81 -27 0 -28 2 -8 40 9 17 24 30 34 30 22 0 61 57 61 89 0 18 -5 22 -27 19 -55 -6 -141 -174 -102 -199 27 -17 77 -9 133 20 l56 30 0 -24 c0 -53 69 -56 139 -5 38 28 40 28 46 10 14 -43 72 -37 208 21 37 15 67 26 67 23 0 -2 -7 -15 -15 -28 -14 -20 -14 -25 -1 -35 15 -13 21 -9 60 44 15 20 15 20 16 -2 0 -34 29 -29 77 12 23 19 44 35 47 35 3 0 6 -13 6 -29 0 -56 58 -75 140 -46 40 14 45 14 63 -2 16 -15 39 -18 133 -19 62 0 116 -3 120 -7 20 -20 82 3 143 54 l34 28 26 -20 c28 -23 71 -20 124 8 35 18 44 11 29 -21 -9 -20 -7 -26 18 -45 16 -11 42 -21 57 -21 39 0 91 34 99 65 10 40 -12 57 -68 53 -26 -1 -48 -1 -48 1 0 3 12 22 27 43 20 30 24 41 14 51 -9 9 -20 2 -49 -29 -44 -48 -109 -84 -152 -84 -35 0 -35 9 1 86 23 50 24 54 1 54 -10 0 -26 -14 -36 -31 -30 -50 -78 -101 -125 -131 -25 -15 -49 -28 -53 -28 -4 0 -8 16 -8 35 0 28 -4 35 -20 35 -15 0 -20 -7 -20 -29 0 -17 -5 -33 -10 -36 -17 -11 -163 -7 -193 4 l-28 11 61 59 c52 49 61 63 58 87 -4 40 -44 44 -85 10z m47 -25 c0 -12 -50 -64 -57 -58 -7 7 35 67 48 67 5 0 9 -4 9 -9z m650 -125 c0 -18 -38 -46 -63 -46 -26 0 -34 30 -12 46 25 19 75 18 75 0z"/>
<path d="M6494 14352 c-9 -6 -84 -208 -84 -225 0 -4 9 -7 20 -7 13 0 26 12 37 35 13 26 23 35 42 35 14 0 46 9 70 20 24 11 45 20 47 20 2 0 1 -13 -2 -28 -8 -38 15 -56 61 -49 28 5 35 2 40 -14 20 -61 204 -17 248 59 18 30 18 34 3 57 -11 17 -29 26 -60 30 -49 8 -94 -10 -181 -70 -83 -59 -98 -41 -40 46 47 69 33 82 -34 34 -50 -36 -136 -75 -166 -75 -15 0 -13 4 32 116 5 14 -20 25 -33 16z m450 -112 c14 -14 -18 -55 -61 -75 -45 -22 -114 -26 -120 -7 -3 7 4 12 17 12 16 0 20 4 16 18 -16 48 108 92 148 52z"/>
<path d="M4002 14333 c-5 -10 -17 -43 -27 -73 -10 -31 -29 -64 -43 -76 -20 -16 -24 -26 -18 -47 8 -35 42 -36 58 -2 6 14 35 38 65 54 l53 29 -6 -24 c-9 -35 13 -57 49 -50 21 4 33 1 42 -11 32 -43 157 4 189 72 21 43 14 68 -20 83 -55 26 -122 4 -149 -48 -15 -30 -61 -67 -71 -58 -2 3 5 26 16 52 11 26 20 52 20 57 0 18 -37 8 -61 -17 -28 -30 -88 -68 -95 -61 -3 2 4 29 16 58 11 30 20 60 20 67 0 18 -28 15 -38 -5z m322 -69 c47 -18 -30 -114 -91 -114 -45 0 -22 79 32 108 23 13 37 14 59 6z"/>
<path d="M3472 14304 c-41 -33 -58 -66 -67 -130 -6 -47 -4 -53 16 -68 30 -20 52 -20 96 1 46 22 90 84 99 138 8 55 20 58 164 49 59 -4 120 -4 135 0 63 16 -1 26 -200 31 l-210 6 -33 -27z m102 -51 c-1 -49 -23 -87 -67 -113 -36 -22 -69 -28 -50 -9 9 9 9 16 0 30 -9 15 -9 24 1 39 6 11 12 28 12 39 0 27 48 63 79 59 23 -3 26 -7 25 -45z"/>
<path d="M7660 14304 c-42 -18 -86 -59 -106 -96 -8 -16 -23 -28 -34 -28 -25 0 -26 -18 -2 -27 9 -4 24 -16 33 -27 22 -27 114 -28 152 -3 15 9 45 17 67 17 22 0 58 9 80 20 24 12 41 16 45 10 9 -15 82 -12 115 5 27 14 29 13 44 -10 14 -21 24 -25 70 -25 29 0 72 6 94 14 l41 15 3 -32 c2 -24 10 -34 30 -41 23 -8 35 -4 77 21 39 25 51 28 55 17 8 -21 47 -17 87 10 34 24 36 24 47 5 16 -25 71 -25 122 1 50 25 50 25 50 -8 0 -36 16 -52 52 -52 32 0 37 16 8 25 -15 5 -20 15 -20 39 0 17 9 49 20 71 25 49 25 55 0 55 -12 0 -26 -12 -35 -30 -17 -34 -107 -90 -144 -90 -19 0 -22 4 -18 23 21 91 21 87 -1 87 -12 0 -23 -9 -27 -20 -7 -23 -83 -90 -101 -90 -15 0 -6 38 20 88 9 18 14 37 11 42 -15 24 -38 7 -60 -44 -39 -88 -140 -155 -133 -88 3 26 1 27 -37 25 -22 -1 -68 -5 -103 -9 -79 -8 -88 0 -66 55 26 65 -1 78 -38 19 -19 -28 -98 -64 -122 -55 -13 5 -13 12 -4 37 7 23 7 35 0 42 -13 13 -42 -6 -42 -28 0 -19 -61 -63 -98 -70 -28 -6 -32 -4 -32 15 0 31 -38 28 -46 -3 -10 -40 -88 -69 -124 -46 -18 11 -17 11 47 44 97 49 151 113 107 130 -24 9 -46 7 -84 -10z m55 -34 c-20 -23 -98 -70 -115 -70 -22 0 22 49 63 69 55 28 76 28 52 1z"/>
<path d="M7306 14281 c-9 -14 15 -26 43 -22 30 4 20 -14 -20 -34 -48 -25 -37 -47 42 -84 39 -18 68 -38 66 -44 -6 -20 -79 -56 -125 -63 -50 -7 -81 10 -49 27 9 6 17 15 17 20 0 18 -42 5 -57 -18 -13 -19 -12 -24 7 -43 20 -20 29 -22 77 -16 59 7 132 37 158 66 26 29 10 54 -56 90 l-61 32 37 25 c26 18 35 31 33 46 -3 19 -10 22 -55 25 -28 2 -54 -1 -57 -7z"/>
<path d="M3714 14233 c-13 -84 -11 -138 6 -138 11 0 17 17 23 60 14 103 14 119 -5 123 -13 2 -18 -7 -24 -45z"/>
<path d="M8967 14134 c-11 -11 5 -34 24 -34 12 0 19 7 19 20 0 19 -28 28 -43 14z"/>
<path d="M1110 14070 c-206 -4 -420 -8 -475 -9 -103 -1 -144 -12 -115 -30 8 -5 17 -8 21 -5 12 7 1312 35 1343 28 21 -5 27 -3 24 7 -6 17 -222 19 -798 9z"/>
<path d="M1774 13874 c-29 -7 -58 -40 -51 -59 9 -21 34 -19 40 4 11 45 132 34 164 -15 15 -24 14 -26 -55 -99 -72 -75 -99 -132 -74 -157 14 -14 32 -1 32 25 0 32 33 80 80 118 58 46 75 81 58 116 -7 15 -27 35 -45 45 -32 19 -111 30 -149 22z"/>
<path d="M1039 13743 c-20 -21 -75 -89 -123 -151 -94 -121 -181 -212 -202 -212 -25 0 -26 52 -3 139 2 8 -4 17 -13 19 -24 5 -38 -34 -38 -102 0 -59 19 -86 60 -86 30 0 129 100 219 220 84 112 85 112 77 68 -6 -31 -3 -39 14 -48 17 -9 29 -7 60 9 l39 20 -2 -57 c-2 -43 1 -57 12 -57 8 0 15 13 17 34 2 18 15 64 28 103 32 92 16 100 -59 29 -48 -45 -75 -62 -75 -46 0 3 11 33 25 67 38 93 23 114 -36 51z"/>
<path d="M1496 13645 c-63 -6 -101 -15 -104 -22 -2 -7 3 -15 11 -19 15 -5 195 21 205 31 16 16 -23 20 -112 10z"/>
<path d="M5022 13617 c-7 -8 -7 -18 -2 -27 8 -12 13 -13 29 -3 21 13 85 1 97 -19 4 -6 -14 -28 -38 -49 -87 -74 -86 -127 4 -154 58 -17 198 -21 198 -5 0 6 -15 10 -33 10 -87 0 -197 34 -197 61 0 6 25 34 56 64 66 63 67 81 4 113 -49 24 -102 29 -118 9z"/>
<path d="M7113 13566 c-18 -8 -33 -20 -33 -26 0 -15 30 -25 39 -13 18 27 81 25 81 -3 0 -8 -22 -36 -50 -61 -55 -51 -64 -83 -27 -101 30 -15 90 -29 160 -37 91 -11 68 10 -38 34 -52 13 -98 27 -101 33 -4 5 17 32 45 59 28 27 51 57 51 67 0 49 -67 75 -127 48z"/>
<path d="M4345 13478 c-19 -67 -65 -282 -65 -309 0 -14 5 -19 17 -17 12 2 25 33 47 111 16 59 33 107 37 107 5 0 11 -15 14 -34 11 -54 42 -98 68 -94 18 2 27 18 48 77 l26 74 6 -48 c4 -26 7 -66 7 -89 0 -45 22 -86 46 -86 15 0 19 25 5 34 -5 3 -12 59 -15 123 -9 149 -12 163 -35 163 -19 0 -36 -35 -71 -145 -7 -22 -16 -44 -20 -49 -10 -10 -36 73 -45 141 -11 83 -14 93 -35 93 -15 0 -23 -12 -35 -52z"/>
<path d="M4787 13503 c-12 -12 -7 -79 13 -179 27 -130 28 -134 50 -134 14 0 23 17 40 72 27 90 64 164 85 172 19 7 17 57 -2 63 -16 6 -66 -73 -95 -149 -13 -32 -26 -58 -29 -58 -8 0 -29 129 -29 179 0 39 -14 53 -33 34z"/>
<path d="M1830 13481 c-15 -28 -13 -33 13 -29 14 2 23 11 25 26 4 28 -23 30 -38 3z"/>
<path d="M3941 13487 c-44 -53 -57 -197 -30 -337 10 -53 14 -150 14 -325 -1 -262 -10 -351 -57 -530 -27 -108 -28 -119 -1 -123 14 -2 27 -17 39 -45 16 -38 19 -93 24 -567 5 -474 7 -529 23 -565 21 -46 55 -85 74 -85 20 0 16 14 -12 40 -48 45 -50 69 -51 615 -1 318 -5 524 -12 548 -13 49 -39 87 -58 87 -11 0 -14 5 -9 18 12 31 53 234 66 332 20 146 17 460 -5 608 -22 149 -16 234 20 287 13 20 24 40 24 45 0 15 -36 12 -49 -3z"/>
<path d="M6398 13473 c-17 -21 -128 -335 -128 -364 0 -21 25 -26 36 -7 5 7 31 82 60 166 l51 154 10 -93 c8 -69 15 -96 29 -106 27 -20 34 -17 80 31 l42 44 -2 -92 c-1 -69 2 -91 12 -91 9 0 15 21 18 70 2 39 13 111 24 160 25 109 25 109 6 113 -9 2 -27 -22 -51 -67 -38 -72 -99 -150 -109 -140 -3 3 -10 53 -15 112 -5 58 -12 111 -16 116 -9 16 -30 13 -47 -6z"/>
<path d="M6845 13458 c-2 -7 -11 -53 -19 -103 -33 -206 -32 -225 10 -225 26 0 57 26 107 90 l27 35 -6 -62 c-6 -53 -4 -64 10 -69 10 -4 25 1 36 11 24 22 26 35 5 35 -8 0 -15 8 -15 18 0 17 31 146 46 195 4 12 0 17 -13 17 -11 0 -27 -17 -43 -47 -14 -26 -52 -82 -85 -123 -56 -70 -60 -73 -63 -48 -2 15 6 79 17 142 12 63 21 122 21 131 0 18 -29 20 -35 3z"/>
<path d="M3170 13360 c0 -5 4 -10 9 -10 5 0 18 -24 28 -52 25 -74 25 -410 0 -477 -21 -53 -20 -51 -2 -51 9 0 21 22 32 58 26 85 26 426 0 495 -15 38 -23 47 -43 47 -13 0 -24 -4 -24 -10z"/>
<path d="M8916 13342 c-3 -6 -21 -68 -40 -140 -19 -71 -51 -170 -71 -218 -19 -48 -35 -94 -35 -101 0 -21 288 -18 318 3 24 17 28 49 10 89 -12 28 -19 30 -35 14 -8 -8 -8 -20 -1 -41 8 -23 8 -32 -3 -40 -13 -9 -226 -4 -235 5 -3 2 9 42 26 87 31 84 99 302 103 330 2 16 -28 26 -37 12z"/>
<path d="M2973 13278 c-31 -34 -50 -76 -78 -173 -41 -143 -30 -255 26 -255 25 0 24 12 -1 28 -26 16 -27 83 -1 185 26 101 59 174 88 197 24 19 24 40 -1 40 -7 0 -22 -10 -33 -22z"/>
<path d="M4990 13221 c0 -5 -9 -11 -20 -14 -17 -4 -18 -9 -10 -37 12 -41 25 -57 55 -64 29 -7 80 15 89 39 12 32 6 64 -13 75 -24 12 -101 13 -101 1z m83 -33 c16 -46 -56 -67 -73 -22 -14 35 -15 34 29 34 22 0 41 -5 44 -12z"/>
<path d="M3076 13178 c-7 -32 -36 -210 -36 -220 0 -4 6 -8 14 -8 10 0 22 35 40 113 14 61 26 118 26 125 0 22 -39 13 -44 -10z"/>
<path d="M7873 13122 c-32 -102 -106 -254 -170 -351 l-58 -86 -5 35 c-3 22 -10 35 -20 35 -23 0 -27 -100 -4 -109 39 -15 92 49 180 218 46 88 53 96 56 70 5 -49 42 -45 99 12 l48 47 3 -43 c4 -63 24 -61 32 2 4 29 16 78 27 110 23 70 24 78 2 78 -11 0 -31 -23 -52 -59 -18 -33 -53 -78 -77 -102 l-44 -43 0 34 c0 19 9 73 20 119 10 47 16 89 14 93 -14 22 -31 1 -51 -60z"/>
<path d="M8591 13114 c-55 -63 -67 -124 -23 -124 12 0 7 -6 -13 -20 -61 -40 -80 -21 -69 72 8 75 -4 95 -47 73 -15 -8 -36 -26 -46 -39 l-18 -23 -10 31 c-14 43 -39 44 -80 3 l-35 -35 0 34 c0 27 -4 34 -20 34 -17 0 -20 -7 -20 -42 0 -24 -7 -67 -15 -97 -8 -30 -12 -58 -9 -63 12 -19 31 -4 57 45 36 69 86 129 87 104 0 -10 -7 -34 -15 -54 -20 -48 -19 -63 5 -63 11 0 20 3 20 8 1 4 26 34 56 67 l56 60 -6 -52 c-8 -63 7 -100 44 -108 35 -8 78 9 118 48 l32 31 0 -40 c0 -67 -8 -78 -87 -124 -115 -68 -162 -154 -126 -228 21 -43 47 -51 93 -27 84 43 163 248 160 415 -1 36 3 79 8 96 24 75 -36 87 -97 18z m59 -28 c-10 -32 -55 -74 -67 -62 -7 6 20 50 50 83 26 29 32 23 17 -21z m-41 -304 c-21 -66 -57 -129 -90 -156 -38 -32 -51 -30 -63 12 -14 50 26 117 100 169 65 46 75 41 53 -25z"/>
<path d="M7456 13124 c-3 -9 -6 -31 -6 -50 l0 -34 -58 0 c-63 0 -78 -6 -61 -26 7 -8 27 -11 62 -7 l53 5 -4 -41 c-5 -55 6 -113 21 -108 7 2 12 21 12 43 1 21 2 56 3 76 l2 37 52 3 c71 4 78 28 7 28 l-52 0 6 45 c6 40 4 45 -12 45 -10 0 -22 -7 -25 -16z"/>
<path d="M5615 13059 c-13 -20 8 -24 131 -24 118 0 153 10 93 26 -40 12 -217 10 -224 -2z"/>
<path d="M4605 13054 c-5 -2 -102 -5 -215 -6 -174 -3 -205 -5 -205 -18 0 -12 16 -15 90 -14 70 1 1035 22 1068 24 4 0 7 5 7 10 0 10 -722 14 -745 4z"/>
<path d="M6245 13022 c-2 -7 1 -15 8 -17 26 -9 750 10 754 20 5 17 -755 14 -762 -3z"/>
<path d="M5600 12976 c0 -15 68 -26 163 -26 88 0 68 15 -37 28 -120 15 -126 15 -126 -2z"/>
<path d="M4595 12926 c-11 -8 -16 -19 -12 -30 10 -25 38 -32 52 -13 13 19 60 23 70 7 13 -21 -7 -49 -69 -94 -95 -70 -99 -96 -13 -96 76 1 180 23 185 39 4 11 -10 13 -78 7 -45 -4 -90 -10 -99 -13 -9 -2 -2 6 14 19 77 59 105 91 105 117 0 14 -4 31 -8 37 -22 33 -112 46 -147 20z"/>
<path d="M6607 12913 c-4 -3 -7 -12 -7 -20 0 -10 14 -11 59 -7 87 10 89 -7 9 -80 -37 -34 -64 -67 -61 -73 6 -16 139 -18 177 -3 48 18 27 27 -51 23 l-78 -4 25 21 c77 66 90 80 90 99 0 32 -38 51 -101 51 -30 0 -59 -3 -62 -7z"/>
<path d="M8137 12563 c-17 -16 -4 -23 43 -23 55 0 100 -16 100 -36 0 -7 -25 -32 -55 -54 -66 -49 -80 -84 -45 -112 19 -15 37 -18 99 -16 85 3 95 20 15 24 -96 4 -114 19 -68 57 91 76 97 83 91 109 -4 16 -20 32 -41 42 -34 16 -126 22 -139 9z"/>
<path d="M6410 12466 c0 -7 7 -19 16 -27 29 -24 54 -87 65 -165 20 -130 -12 -279 -82 -382 -31 -46 -33 -57 -6 -46 22 8 68 85 97 159 28 73 39 241 21 326 -15 70 -63 149 -91 149 -11 0 -20 -6 -20 -14z"/>
<path d="M5610 12431 c-27 -53 -66 -190 -95 -337 -43 -209 -30 -297 40 -280 32 8 33 26 0 26 -18 0 -26 7 -31 27 -17 66 61 426 115 534 16 32 26 60 23 63 -14 15 -33 3 -52 -33z"/>
<path d="M7866 12357 c-8 -29 -21 -86 -28 -126 -11 -67 -11 -74 5 -86 28 -20 53 -7 117 62 l59 65 -6 -36 c-7 -42 9 -66 41 -66 24 0 66 38 66 58 0 19 -24 14 -38 -8 -7 -11 -17 -20 -22 -20 -17 0 -11 46 15 118 29 80 30 92 11 92 -8 0 -39 -35 -69 -77 -30 -43 -76 -98 -101 -123 -43 -42 -46 -43 -46 -20 0 14 11 65 24 115 13 49 22 93 19 97 -13 22 -33 3 -47 -45z"/>
<path d="M3242 12368 c3 -7 15 -14 27 -16 12 -2 31 -18 42 -35 18 -28 20 -45 16 -137 -4 -117 -32 -203 -87 -272 -33 -41 -36 -48 -17 -48 23 0 88 98 115 172 21 59 26 91 26 168 1 101 -15 149 -53 170 -28 14 -74 13 -69 -2z"/>
<path d="M2881 12346 c-35 -38 -62 -123 -68 -216 -4 -75 -2 -90 19 -130 25 -49 77 -90 114 -90 33 0 30 17 -5 25 -46 10 -83 58 -95 127 -14 79 30 245 74 275 11 8 20 18 20 24 0 18 -37 9 -59 -15z"/>
<path d="M7685 12344 c-16 -8 -47 -28 -67 -45 l-37 -30 -7 25 c-11 45 -57 41 -104 -9 l-25 -27 -5 44 c-4 38 -8 43 -30 43 -30 0 -38 -26 -19 -62 13 -23 10 -44 -17 -150 -5 -18 -2 -23 13 -23 15 0 25 13 37 45 18 47 99 145 111 134 3 -4 1 -26 -5 -49 -19 -71 1 -73 68 -9 62 61 120 104 128 96 3 -3 -4 -39 -15 -79 -12 -41 -21 -81 -21 -90 0 -19 24 -30 45 -22 17 7 20 31 5 36 -6 2 -2 30 10 73 32 109 12 139 -65 99z"/>
<path d="M5743 12328 c-10 -12 -86 -282 -96 -341 -8 -46 15 -60 87 -52 116 14 128 42 15 36 l-69 -3 7 34 c3 18 24 92 46 163 21 72 40 139 41 149 1 23 -17 31 -31 14z"/>
<path d="M6321 12324 c-31 -22 -95 -122 -117 -184 -10 -27 -21 -50 -24 -50 -5 0 -6 -85 -1 -127 3 -28 41 -53 80 -53 41 0 91 31 91 56 0 19 -7 18 -37 -6 -34 -27 -79 -26 -94 1 -20 38 -4 94 43 157 106 141 141 263 59 206z"/>
<path d="M4514 12243 c-61 -149 -79 -185 -115 -239 -79 -116 -118 -102 -82 29 6 22 -26 35 -38 16 -13 -21 -11 -133 3 -147 46 -46 123 26 199 183 l49 100 0 -86 c0 -90 8 -107 45 -93 14 6 62 77 83 124 9 21 11 16 11 -42 1 -73 7 -98 25 -98 7 0 12 35 15 103 2 56 4 120 5 142 1 28 -3 40 -13 40 -16 0 -17 -2 -70 -115 -68 -145 -70 -145 -71 -2 0 103 -2 122 -16 122 -8 0 -22 -17 -30 -37z"/>
<path d="M5307 12252 c-27 -29 -47 -88 -47 -136 0 -52 23 -72 71 -62 27 5 29 3 29 -23 0 -24 -9 -34 -57 -62 -32 -19 -66 -48 -77 -67 -25 -45 -24 -136 3 -197 19 -43 23 -46 53 -43 28 3 36 10 57 51 13 27 30 89 38 145 8 53 18 108 22 122 3 14 5 53 3 88 -4 70 -18 80 -58 37 -27 -29 -39 -31 -48 -9 -12 31 36 156 53 138 3 -3 6 -25 6 -47 0 -54 26 -58 38 -7 13 52 -5 90 -41 90 -16 0 -36 -8 -45 -18z m42 -356 c-14 -112 -45 -206 -69 -206 -12 0 -29 47 -36 98 -8 64 13 112 67 151 23 17 43 30 44 29 2 -2 -1 -34 -6 -72z"/>
<path d="M3035 12240 c-11 -18 6 -31 34 -25 19 4 32 1 41 -10 14 -16 1 -38 -76 -134 -49 -62 -44 -85 20 -89 61 -4 96 4 96 22 0 9 -14 11 -56 8 -55 -5 -56 -4 -44 18 6 12 26 38 44 58 71 81 80 108 46 142 -21 21 -94 28 -105 10z"/>
<path d="M4874 12232 c-5 -4 -9 -43 -9 -87 0 -44 -2 -96 -5 -115 -4 -27 -1 -35 13 -38 10 -2 19 4 23 15 3 10 19 47 37 83 l32 65 5 -55 c7 -75 29 -74 90 2 l45 57 7 -45 c8 -56 32 -94 58 -94 24 0 25 8 3 32 -11 12 -19 44 -22 91 -5 65 -8 72 -27 72 -15 0 -37 -20 -68 -59 l-46 -59 0 32 c0 39 -16 71 -34 71 -8 0 -26 -14 -40 -31 l-26 -31 0 45 c0 44 -15 64 -36 49z"/>
<path d="M6712 12162 c3 -15 18 -17 131 -15 115 1 149 5 136 17 -2 2 -64 6 -137 9 -123 6 -133 5 -130 -11z"/>
<path d="M6030 12130 c-58 -3 -93 -9 -90 -15 6 -11 186 -13 197 -2 16 16 -18 22 -107 17z"/>
<path d="M6735 12070 c-4 -6 -3 -16 1 -20 13 -13 184 -32 222 -25 48 9 39 25 -15 25 -46 0 -136 13 -179 26 -12 3 -25 1 -29 -6z"/>
<path d="M7282 12053 c3 -16 16 -18 128 -16 69 2 268 6 443 9 174 4 317 10 317 15 0 5 -197 9 -446 9 -419 0 -445 -1 -442 -17z"/>
<path d="M7650 11911 c-23 -4 -36 -12 -38 -25 -4 -17 0 -18 29 -12 19 4 54 10 78 13 60 8 52 -13 -21 -52 -99 -53 -125 -95 -72 -115 60 -23 244 -3 244 27 0 10 -5 13 -17 8 -54 -21 -228 -16 -206 6 6 6 43 29 84 52 77 44 95 70 63 94 -18 13 -82 15 -144 4z"/>
<path d="M3230 11477 c0 -7 15 -21 34 -31 18 -10 43 -36 56 -58 30 -54 26 -161 -10 -232 -25 -48 -88 -121 -125 -143 -19 -11 -18 -12 8 -12 39 -1 110 68 148 144 58 118 49 235 -23 307 -38 38 -88 52 -88 25z"/>
<path d="M6105 11451 c-93 -140 -130 -458 -57 -486 23 -8 24 -1 6 35 -20 39 -15 168 11 265 19 73 72 184 91 192 21 8 17 33 -6 33 -12 0 -30 -15 -45 -39z"/>
<path d="M2902 11418 c-57 -93 -80 -277 -47 -364 19 -51 70 -114 91 -114 21 0 18 8 -20 51 -73 86 -74 257 0 388 13 24 24 50 24 57 0 25 -28 14 -48 -18z"/>
<path d="M4480 11386 c-25 -55 -81 -283 -83 -338 -2 -47 18 -63 32 -26 5 13 19 71 31 129 35 160 41 182 48 174 4 -4 12 -43 18 -87 7 -46 19 -87 28 -96 14 -14 17 -14 35 2 10 9 30 45 43 79 l23 62 5 -130 c6 -134 11 -155 35 -155 20 0 29 20 16 33 -7 7 -11 66 -11 169 0 132 -3 160 -15 164 -24 10 -41 -12 -75 -97 -18 -44 -35 -78 -37 -75 -3 2 -11 53 -18 111 -12 100 -21 124 -48 125 -4 0 -17 -20 -27 -44z"/>
<path d="M7260 11419 c0 -6 13 -21 29 -35 43 -36 66 -104 66 -199 0 -106 -19 -168 -67 -218 -21 -22 -38 -42 -38 -44 0 -1 8 -3 19 -3 25 0 85 68 102 116 9 25 14 82 14 154 0 100 -3 121 -23 158 -13 24 -32 52 -42 62 -21 21 -60 27 -60 9z"/>
<path d="M4977 11338 c-14 -29 -42 -95 -62 -145 -20 -51 -41 -93 -46 -93 -5 0 -9 59 -9 130 0 126 -1 130 -21 130 -21 0 -21 -3 -17 -142 3 -79 8 -151 12 -160 11 -25 51 -22 68 5 8 12 34 73 58 135 34 88 47 112 62 112 16 0 19 6 16 37 -5 59 -31 55 -61 -9z"/>
<path d="M7577 11383 c-16 -29 -37 -232 -26 -260 7 -18 16 -23 45 -23 31 0 45 8 86 49 l50 50 -7 -47 c-8 -61 14 -85 79 -85 49 0 117 34 83 41 -10 2 -31 -1 -48 -7 -20 -7 -38 -7 -55 0 -25 9 -26 12 -19 56 4 26 15 74 26 108 23 74 23 85 2 85 -12 -1 -27 -20 -42 -52 -32 -68 -131 -174 -155 -165 -16 6 -17 15 -11 68 4 33 13 86 20 117 7 31 11 60 9 64 -7 10 -31 10 -37 1z"/>
<path d="M7130 11348 c-5 -13 -19 -50 -32 -82 -13 -33 -28 -61 -35 -63 -7 -3 -16 13 -23 39 -23 91 -34 113 -60 113 -21 0 -26 -9 -46 -75 -27 -88 -47 -240 -33 -255 24 -25 58 56 59 140 0 22 5 58 11 80 l11 40 22 -59 c34 -95 70 -101 113 -17 24 47 27 43 38 -44 8 -63 23 -102 42 -109 25 -10 34 4 17 28 -9 15 -19 70 -26 142 -11 113 -19 144 -39 144 -5 0 -14 -10 -19 -22z"/>
<path d="M3053 11320 c-26 -11 -29 -23 -9 -39 12 -10 20 -9 41 5 39 25 53 4 19 -29 -14 -14 -35 -29 -45 -32 -10 -4 -19 -13 -19 -21 0 -10 14 -14 59 -14 72 0 84 -17 39 -55 -23 -20 -40 -25 -67 -23 -30 3 -36 0 -36 -17 0 -16 6 -20 34 -18 49 2 110 33 125 62 19 36 4 70 -33 77 l-29 6 20 33 c19 34 19 34 -1 54 -22 22 -60 26 -98 11z"/>
<path d="M6677 11314 c-4 -4 -7 -27 -7 -51 l0 -43 -47 0 c-56 0 -84 -13 -66 -31 6 -6 31 -10 57 -8 l46 4 0 -58 c0 -76 22 -73 34 6 8 53 10 56 39 59 42 4 48 28 7 28 -32 0 -32 0 -28 47 2 37 -1 48 -12 51 -9 1 -19 0 -23 -4z"/>
<path d="M6391 11254 l-51 -56 0 35 c0 68 -49 49 -96 -38 l-19 -36 -10 63 c-8 53 -13 63 -30 63 -16 0 -19 -6 -17 -25 2 -14 7 -61 10 -105 6 -71 9 -80 27 -80 15 0 30 19 57 70 l37 70 3 -40 c5 -61 28 -57 84 17 l49 63 8 -72 c12 -102 33 -99 42 6 7 82 -2 121 -29 121 -8 0 -37 -25 -65 -56z"/>
<path d="M5335 11250 c-16 -27 17 -35 137 -35 81 0 122 4 125 11 3 8 -31 13 -104 17 -59 3 -118 8 -129 12 -13 4 -25 2 -29 -5z"/>
<path d="M5368 11139 c-6 -4 -7 -12 -4 -18 13 -21 261 -10 254 11 -4 11 -234 17 -250 7z"/>
<path d="M4998 11052 c-22 -13 -28 -24 -28 -53 0 -77 93 -109 144 -48 40 48 34 89 -17 108 -39 15 -68 13 -99 -7z m86 -18 c22 -8 20 -47 -4 -69 -41 -37 -95 9 -63 54 14 21 38 26 67 15z"/>
<path d="M3554 10459 c-3 -6 1 -18 10 -27 14 -14 18 -15 25 -3 7 11 17 9 55 -10 54 -27 72 -44 81 -81 6 -23 -3 -36 -64 -103 -73 -79 -85 -107 -52 -125 24 -12 258 -14 265 -1 7 10 -76 21 -166 21 -37 0 -70 4 -73 10 -3 5 23 41 59 79 58 61 66 75 66 108 0 46 -20 72 -84 112 -50 31 -109 41 -122 20z"/>
<path d="M2466 10424 c-21 -21 -20 -71 4 -180 21 -100 40 -307 40 -452 0 -131 -16 -266 -51 -416 -37 -164 -37 -165 2 -173 66 -13 82 -127 77 -550 l-3 -312 25 -25 c27 -27 80 -45 80 -28 0 6 -12 17 -27 24 -50 24 -55 46 -47 233 15 356 0 599 -41 661 -9 15 -25 24 -40 24 -14 0 -25 4 -25 8 0 4 13 66 30 138 16 71 34 181 41 244 14 140 5 440 -17 566 -9 49 -18 114 -21 145 -5 52 -4 57 18 62 22 6 22 7 4 27 -22 24 -29 25 -49 4z"/>
<path d="M331 10374 c-39 -50 -69 -211 -78 -419 -3 -77 -10 -143 -16 -146 -15 -10 0 -26 29 -33 17 -5 30 -3 35 5 16 27 152 32 823 33 533 1 690 4 694 14 3 9 -15 12 -64 12 l-67 0 39 29 c153 110 175 271 55 384 -76 71 -171 111 -171 72 0 -8 6 -15 13 -15 22 0 91 -41 131 -78 75 -71 87 -159 36 -249 -31 -54 -115 -129 -153 -138 -12 -3 -310 -7 -662 -9 -352 -2 -651 -5 -665 -7 l-25 -4 2 116 c3 138 35 333 63 388 15 31 24 38 40 34 15 -4 20 0 20 16 0 32 -52 29 -79 -5z"/>
<path d="M8685 10390 c-11 -17 6 -32 30 -26 28 7 85 -41 85 -73 0 -11 -18 -37 -40 -58 -50 -45 -49 -71 1 -95 43 -21 159 -36 159 -20 0 5 -19 13 -42 17 -49 8 -118 34 -118 44 0 3 18 23 40 44 45 42 49 66 20 114 -30 50 -116 83 -135 53z"/>
<path d="M626 10381 c-3 -4 11 -19 32 -32 100 -65 110 -286 17 -368 -20 -17 -40 -31 -45 -31 -6 0 -10 -4 -10 -10 0 -22 42 -8 79 26 51 45 75 109 75 193 0 88 -26 162 -70 201 -34 29 -67 39 -78 21z"/>
<path d="M8056 10332 c-7 -12 5 -25 39 -42 16 -9 43 -37 59 -63 57 -92 33 -227 -56 -309 -31 -28 -37 -38 -23 -38 30 0 79 45 110 101 26 47 30 64 30 135 0 72 -3 86 -30 130 -41 65 -112 113 -129 86z"/>
<path d="M1342 10294 c-60 -72 -98 -257 -70 -339 8 -23 24 -45 40 -54 35 -20 50 -5 19 18 -64 48 -28 289 56 368 39 38 41 43 9 43 -16 0 -35 -13 -54 -36z"/>
<path d="M3412 10258 c-12 -40 -28 -102 -37 -138 -41 -163 -82 -143 -94 45 -5 84 -9 100 -23 103 -16 3 -18 -6 -18 -72 0 -148 37 -236 93 -222 38 9 54 40 83 157 14 57 32 111 40 120 8 8 14 30 14 47 0 25 -4 32 -19 32 -14 0 -23 -16 -39 -72z"/>
<path d="M6783 10312 c-56 -35 -105 -334 -71 -433 13 -38 56 -99 69 -99 16 0 10 19 -18 62 -26 38 -28 49 -27 137 0 115 26 236 60 286 29 43 22 69 -13 47z"/>
<path d="M2857 10293 c-4 -3 -7 -73 -7 -155 0 -120 3 -148 14 -148 19 0 23 15 32 101 9 103 18 113 39 48 22 -66 31 -79 60 -79 26 0 48 22 68 70 l14 35 7 -30 c4 -16 17 -61 29 -100 18 -57 26 -71 45 -73 23 -3 29 7 13 24 -15 16 -33 84 -51 189 -13 77 -21 101 -33 103 -10 2 -19 -2 -21 -10 -26 -93 -40 -130 -56 -150 -15 -18 -20 -20 -24 -8 -37 104 -51 135 -73 160 -24 29 -43 37 -56 23z"/>
<path d="M7955 10218 c-29 -96 -38 -119 -45 -123 -5 -3 -23 24 -39 60 -25 55 -34 65 -55 65 -23 0 -25 -3 -31 -77 -3 -43 -10 -104 -15 -137 -5 -32 -7 -63 -4 -67 11 -18 33 -8 38 19 6 29 25 161 26 177 0 5 10 -11 23 -35 18 -38 27 -45 51 -45 22 0 33 7 46 33 l18 33 22 -75 c22 -73 51 -118 64 -98 3 6 -1 29 -10 53 -8 24 -22 76 -30 114 -23 112 -24 115 -40 115 -8 0 -16 -6 -19 -12z"/>
<path d="M1432 10200 c-13 -6 -22 -16 -19 -22 5 -14 9 -14 44 -4 15 5 28 1 43 -14 24 -24 18 -42 -37 -103 -22 -24 -33 -46 -31 -60 3 -19 10 -22 51 -25 38 -2 58 3 93 23 24 14 44 32 44 40 0 20 -4 19 -55 -11 -26 -15 -55 -24 -71 -22 l-27 3 42 50 c46 55 54 100 23 128 -24 21 -71 29 -100 17z"/>
<path d="M479 10128 c-28 -85 -33 -203 -10 -203 10 0 15 16 17 56 2 30 15 87 29 126 30 84 31 93 6 93 -14 0 -24 -17 -42 -72z"/>
<path d="M1036 10184 c-3 -9 -6 -31 -6 -50 l0 -35 -61 7 c-56 6 -61 5 -57 -12 3 -16 14 -20 62 -22 l59 -3 -6 -54 c-3 -33 -1 -57 5 -61 16 -10 28 17 28 69 0 31 4 47 13 47 28 0 87 22 87 32 0 7 -16 9 -46 4 l-47 -6 6 50 c5 44 4 50 -12 50 -11 0 -22 -7 -25 -16z"/>
<path d="M8446 10139 c-19 -61 -31 -188 -22 -223 5 -19 13 -26 32 -26 35 0 66 23 115 86 23 30 43 53 45 52 1 -2 -3 -25 -9 -52 -10 -43 -9 -50 7 -62 24 -17 60 0 86 41 11 18 20 35 20 39 0 16 -26 3 -52 -26 l-29 -33 6 35 c4 19 16 64 27 98 20 64 16 89 -13 77 -8 -4 -39 -42 -69 -86 -59 -85 -115 -143 -131 -134 -15 10 24 235 42 235 5 0 9 7 9 15 0 9 -9 15 -25 15 -21 0 -26 -8 -39 -51z"/>
<path d="M11125 10140 c-3 -5 10 -24 30 -41 47 -43 69 -117 63 -213 -7 -107 -57 -191 -144 -242 -35 -21 -6 -26 34 -5 49 25 88 70 121 141 48 105 28 266 -41 337 -32 33 -52 41 -63 23z"/>
<path d="M6784 10117 c-3 -9 0 -25 6 -37 6 -11 10 -51 8 -88 -2 -52 0 -67 11 -67 8 0 20 17 27 38 15 44 51 97 65 97 6 0 9 -21 8 -50 -4 -80 11 -83 78 -13 32 33 68 65 81 72 27 14 30 8 34 -64 2 -37 7 -50 18 -50 21 0 27 112 7 139 -20 27 -74 14 -125 -30 -43 -36 -47 -35 -54 11 -4 28 -48 31 -79 6 l-24 -19 -11 31 c-12 34 -40 48 -50 24z"/>
<path d="M7458 10088 l-3 -43 -50 0 c-38 0 -50 -4 -50 -15 0 -11 14 -16 51 -18 l51 -3 -1 -57 c-1 -44 2 -57 14 -57 16 0 17 2 19 74 l1 50 48 3 c59 4 62 22 5 26 -43 3 -43 3 -43 43 0 32 -3 39 -19 39 -16 0 -20 -8 -23 -42z"/>
<path d="M10729 10093 c-61 -70 -128 -249 -129 -341 0 -61 27 -96 94 -122 40 -15 42 7 2 24 -48 20 -70 65 -61 125 14 105 84 262 136 306 16 13 29 28 29 34 0 24 -40 9 -71 -26z"/>
<path d="M5769 10090 c-55 -32 -139 -234 -139 -333 0 -51 4 -62 29 -88 24 -24 38 -29 76 -29 48 0 165 44 165 61 0 14 -20 11 -78 -11 -66 -25 -107 -25 -132 0 -30 30 -24 57 25 134 50 77 108 217 103 250 -3 23 -25 31 -49 16z m-35 -157 c-20 -43 -39 -72 -42 -65 -5 17 69 171 75 155 2 -7 -12 -48 -33 -90z"/>
<path d="M10872 10048 c-17 -23 -102 -197 -102 -212 0 -22 29 -28 97 -20 l63 6 -31 -66 c-31 -66 -32 -83 -7 -73 16 5 128 227 128 251 0 9 -8 16 -19 16 -14 0 -24 -14 -37 -50 l-18 -50 -67 0 -67 0 49 92 c27 51 49 98 49 105 0 17 -24 17 -38 1z"/>
<path d="M3527 10028 c-30 -11 -40 -36 -35 -94 2 -31 9 -42 30 -52 69 -33 165 74 122 136 -17 24 -67 29 -117 10z m89 -32 c12 -32 -33 -86 -72 -86 -20 0 -18 64 2 84 19 20 63 21 70 2z"/>
<path d="M4591 9862 c-60 -173 -151 -346 -205 -391 -22 -18 -29 -9 -30 36 -1 27 -6 39 -18 41 -15 3 -18 -4 -18 -40 0 -57 17 -81 55 -76 46 5 128 125 202 297 19 44 23 49 19 23 -7 -40 8 -72 33 -72 18 0 84 64 128 125 l22 30 1 -70 c0 -73 10 -102 29 -91 7 5 11 50 11 127 0 107 -2 119 -18 119 -10 0 -26 -18 -41 -45 -13 -24 -48 -71 -77 -102 -60 -66 -62 -64 -39 62 19 107 19 125 -2 125 -14 0 -26 -24 -52 -98z"/>
<path d="M6195 9941 c-53 -5 -70 -10 -70 -21 0 -16 15 -17 179 -9 66 3 90 1 93 -8 7 -20 35 -16 31 4 -8 40 -62 48 -233 34z"/>
<path d="M2112 9917 c-14 -16 -6 -27 20 -27 13 0 18 6 16 17 -4 22 -22 27 -36 10z"/>
<path d="M5407 9898 c-22 -48 -30 -107 -17 -123 14 -17 -23 -45 -61 -45 -38 0 -58 29 -67 95 -10 84 -32 94 -81 37 l-37 -42 -11 30 c-15 41 -37 38 -73 -12 l-30 -41 0 56 c0 53 -13 79 -30 61 -4 -5 -10 -58 -11 -119 -4 -97 -2 -110 13 -113 12 -2 27 16 52 65 l35 68 1 -47 c0 -70 25 -65 81 17 l44 65 7 -42 c4 -24 13 -53 19 -64 24 -46 102 -58 157 -24 18 11 35 20 37 20 3 0 5 -27 5 -59 l0 -60 -58 -45 c-106 -81 -162 -162 -162 -235 0 -53 22 -75 68 -67 75 12 144 99 177 222 17 63 33 362 21 408 -5 20 -12 26 -35 26 -23 0 -32 -7 -44 -32z m34 -65 c-9 -16 -10 -16 -11 -1 0 9 3 25 7 35 7 16 8 17 11 1 2 -10 -1 -25 -7 -35z m-6 -300 c-14 -96 -60 -178 -119 -214 -47 -29 -56 -25 -56 24 0 55 36 114 114 185 32 28 60 52 63 52 3 0 2 -21 -2 -47z"/>
<path d="M4055 9840 c-10 -16 3 -29 43 -40 40 -11 181 -14 206 -4 37 14 10 24 -66 24 -46 1 -101 7 -123 15 -48 18 -52 18 -60 5z"/>
<path d="M2780 9813 c0 -11 76 -13 433 -13 422 0 483 -3 471 -21 -9 -15 25 -22 41 -9 19 16 4 36 -33 45 -15 3 -226 7 -469 9 -367 2 -443 1 -443 -11z"/>
<path d="M6174 9819 c-13 -22 14 -26 140 -20 90 4 131 10 134 19 5 16 -263 18 -274 1z"/>
<path d="M7598 9773 c-487 -2 -748 -7 -748 -13 0 -6 6 -10 13 -10 6 0 417 1 912 2 495 2 956 2 1025 0 101 -2 122 0 112 10 -15 15 -101 15 -1314 11z"/>
<path d="M3143 9684 c-8 -21 16 -35 39 -23 22 12 111 1 134 -16 14 -10 9 -17 -43 -51 -33 -21 -75 -47 -92 -56 -21 -12 -31 -24 -29 -35 3 -16 17 -18 142 -16 76 1 141 5 144 8 14 14 -19 20 -117 20 l-107 0 60 36 c34 20 70 48 80 63 19 24 19 26 2 45 -35 38 -200 58 -213 25z"/>
<path d="M7746 9621 c-13 -20 5 -31 52 -31 55 0 92 -9 92 -21 0 -5 -33 -25 -72 -45 -94 -47 -101 -53 -87 -70 15 -19 91 -18 187 2 84 17 87 18 78 32 -3 6 -21 7 -43 2 -21 -4 -65 -10 -98 -13 l-60 -5 68 34 c61 31 68 38 65 62 -4 34 -36 50 -116 58 -39 4 -62 3 -66 -5z"/>
<path d="M4808 8919 c-18 -40 -45 -98 -60 -128 l-26 -56 -1 95 c-1 98 -9 126 -32 118 -10 -3 -13 -25 -11 -89 5 -139 18 -178 55 -164 14 6 54 85 92 182 10 24 25 43 36 46 26 7 23 60 -3 65 -12 2 -25 -16 -50 -69z"/>
<path d="M4391 8958 c-5 -13 -21 -65 -36 -117 -32 -108 -37 -166 -16 -166 10 0 24 36 45 108 l30 109 13 -62 c6 -34 17 -68 24 -76 24 -30 75 -10 92 36 3 8 6 -10 6 -40 1 -56 13 -80 39 -80 10 0 11 6 5 23 -4 12 -8 71 -8 132 0 94 -2 110 -17 113 -12 2 -21 -14 -38 -72 -23 -77 -42 -107 -55 -86 -4 6 -11 41 -16 78 -15 111 -19 122 -40 122 -11 0 -23 -10 -28 -22z"/>
<path d="M2930 8789 c0 -22 -5 -83 -12 -135 -8 -70 -8 -100 0 -119 22 -48 75 -23 130 61 l31 45 -6 -54 c-5 -51 -3 -58 22 -82 24 -25 32 -27 78 -22 56 6 107 25 107 40 0 5 -12 6 -27 3 -68 -16 -113 -18 -128 -6 -21 17 -19 91 5 185 11 43 20 80 20 82 0 1 -9 3 -19 3 -12 0 -23 -11 -30 -32 -16 -46 -95 -169 -127 -198 l-27 -25 7 80 c3 44 9 110 12 148 6 64 6 67 -15 67 -18 0 -21 -6 -21 -41z"/>
<path d="M4893 8770 c-14 -12 -24 -38 -28 -67 -4 -27 -8 -53 -10 -59 -5 -16 -675 -40 -761 -27 -65 9 -88 3 -65 -20 14 -14 301 -13 571 2 96 6 302 13 458 17 302 8 387 24 123 24 l-159 0 19 37 c25 48 24 59 -6 88 -32 33 -110 35 -142 5z m114 -22 c43 -35 -24 -118 -83 -104 -21 6 -24 12 -24 51 0 34 5 47 23 60 23 16 60 13 84 -7z"/>
<path d="M3505 8669 c-13 -20 7 -24 123 -24 65 0 125 -4 135 -9 12 -6 17 -4 17 7 0 8 -14 20 -31 26 -41 14 -236 15 -244 0z"/>
<path d="M3621 8581 c-88 -6 -125 -20 -87 -34 29 -11 276 19 276 34 0 9 -27 9 -189 0z"/>
<path d="M4941 8478 c-16 -41 -54 -218 -48 -224 17 -17 36 11 52 76 l18 72 18 -41 c15 -35 23 -41 47 -41 25 0 33 7 50 43 l21 42 1 -56 c0 -40 6 -64 18 -79 19 -23 50 -20 35 3 -5 7 -10 59 -13 117 -4 91 -7 105 -23 108 -14 3 -25 -13 -49 -67 -18 -39 -35 -71 -39 -71 -9 0 -29 65 -29 92 0 49 -43 67 -59 26z"/>
<path d="M4385 8439 c-19 -17 -35 -27 -35 -21 0 18 -31 22 -61 7 -37 -19 -44 -19 -44 3 0 10 -9 18 -24 20 -23 4 -24 2 -18 -35 4 -21 7 -53 7 -70 0 -46 20 -42 58 12 34 48 52 51 52 9 0 -37 22 -29 65 24 l40 47 5 -49 c5 -53 25 -74 56 -62 18 7 18 8 2 20 -12 9 -18 27 -18 54 0 81 -25 93 -85 41z"/>
<path d="M4682 8458 c-7 -7 -12 -20 -12 -30 0 -15 -8 -18 -45 -18 -32 0 -45 -4 -45 -14 0 -19 18 -24 58 -18 l32 5 0 -46 c0 -47 16 -70 31 -46 5 8 9 33 9 57 0 35 3 42 19 42 28 0 37 20 13 27 -12 3 -22 14 -24 26 -4 25 -19 32 -36 15z"/>
<path d="M5162 7903 c3 -12 12 -17 27 -15 30 3 71 -23 71 -45 0 -8 -20 -34 -45 -57 -62 -58 -58 -93 13 -130 36 -19 162 -34 162 -20 0 5 -32 17 -71 26 -67 16 -109 39 -109 60 0 5 20 28 45 52 47 46 53 63 34 98 -21 40 -134 67 -127 31z"/>
<path d="M9028 7913 c-10 -2 -18 -11 -18 -18 0 -10 13 -14 46 -13 65 1 75 -14 36 -55 -43 -44 -42 -74 3 -93 37 -15 165 -20 165 -5 0 4 -34 14 -75 20 -41 7 -78 17 -81 23 -4 6 7 23 25 37 37 31 40 64 9 85 -26 16 -84 27 -110 19z"/>
<path d="M8455 7873 c-29 -7 -41 -21 -29 -33 7 -7 19 -8 37 -1 32 12 57 5 57 -17 0 -9 -24 -40 -52 -70 -51 -51 -52 -54 -34 -68 22 -16 206 -21 206 -5 0 9 -72 21 -133 21 l-40 0 47 50 c47 51 55 74 34 103 -14 18 -61 28 -93 20z"/>
<path d="M5003 7733 c-8 -21 -27 -76 -40 -123 -46 -158 -63 -156 -66 6 -2 89 -5 109 -17 109 -12 0 -15 -19 -18 -105 -2 -120 8 -153 50 -158 37 -4 57 30 92 158 19 65 33 100 42 100 8 0 14 10 14 25 0 41 -38 33 -57 -12z"/>
<path d="M4533 7743 c-4 -10 -10 -20 -14 -23 -14 -10 -68 -275 -58 -285 17 -17 36 20 59 118 13 51 26 96 30 100 4 4 10 -22 14 -59 7 -73 19 -104 40 -104 19 0 35 22 61 85 l22 56 6 -83 c6 -99 13 -118 39 -118 17 0 19 4 12 23 -4 12 -9 81 -11 152 -6 183 -26 192 -84 35 -34 -92 -48 -99 -50 -25 -2 69 -22 139 -42 143 -10 2 -20 -4 -24 -15z"/>
<path d="M8727 7753 c-7 -6 0 -219 9 -261 4 -19 10 -23 32 -20 23 3 35 18 83 113 39 75 65 114 82 123 29 14 27 42 -4 42 -28 0 -54 -34 -108 -139 -47 -92 -49 -94 -56 -63 -3 18 -6 44 -5 59 6 82 -1 153 -13 153 -8 0 -17 -3 -20 -7z"/>
<path d="M7620 7735 c-59 -12 -248 -58 -293 -71 -14 -4 -18 -1 -17 13 6 57 -25 60 -47 4 -13 -33 -21 -40 -57 -47 -40 -9 -41 -8 -51 21 -16 48 -43 44 -57 -8 l-11 -44 -121 -28 c-67 -16 -127 -30 -133 -33 -9 -3 -13 6 -13 27 0 24 -4 31 -20 31 -16 0 -20 -7 -20 -35 0 -31 -3 -35 -37 -44 -20 -6 -40 -8 -45 -5 -5 3 -14 1 -21 -4 -7 -5 -22 -13 -34 -16 -21 -7 -23 -4 -23 24 0 83 -56 93 -131 23 -22 -20 -27 -22 -32 -9 -9 22 -70 21 -88 -1 -12 -14 -15 -10 -19 38 -4 39 -9 54 -20 54 -12 0 -16 -17 -18 -85 -3 -119 -6 -127 -47 -134 -19 -4 -35 -11 -35 -16 0 -18 43 -11 210 34 111 30 130 31 130 11 0 -8 6 -15 13 -15 19 0 36 20 31 35 -7 18 39 27 106 19 l59 -6 -6 -49 c-4 -34 -2 -49 6 -49 13 0 31 42 31 74 0 18 8 24 37 32 51 13 59 39 9 30 -48 -9 -47 10 2 23 132 35 213 53 218 48 3 -3 -1 -40 -10 -82 -20 -96 -20 -95 3 -95 16 0 22 11 31 58 6 31 15 71 19 87 l7 30 7 -41 c14 -83 68 -82 110 2 l24 47 7 -57 c8 -71 30 -126 50 -126 20 0 20 12 1 74 -8 27 -15 77 -15 111 l0 61 158 37 c86 20 184 43 217 51 78 18 24 19 -65 1z m-405 -165 c-28 -56 -39 -56 -48 1 -5 34 -4 36 31 45 21 6 38 9 40 8 2 -1 -9 -26 -23 -54z m-635 -55 c0 -32 -3 -35 -42 -45 -24 -6 -49 -13 -55 -15 -24 -8 -13 14 25 55 49 51 72 53 72 5z m-156 -11 c12 -31 -5 -63 -36 -69 -16 -4 -32 -5 -35 -2 -10 10 40 87 57 87 5 0 11 -7 14 -16z"/>
<path d="M8097 7708 c-23 -62 -45 -154 -53 -220 -6 -49 -4 -58 9 -58 21 0 29 16 57 118 12 45 26 82 30 82 4 0 13 -20 20 -44 7 -25 21 -54 31 -65 35 -37 57 -27 97 47 l29 53 6 -73 c6 -83 14 -108 32 -108 10 0 12 26 8 123 -2 67 -6 132 -9 145 -9 42 -36 20 -68 -54 -17 -40 -38 -82 -48 -95 l-16 -24 -16 36 c-8 20 -22 68 -31 108 -15 63 -19 71 -39 71 -18 0 -27 -10 -39 -42z"/>
<path d="M9717 7581 c-26 -31 -77 -86 -112 -121 l-65 -64 -222 -1 c-123 -1 -315 -9 -428 -19 -174 -15 -263 -17 -588 -11 -353 6 -384 6 -380 -9 3 -15 42 -17 423 -18 315 -1 466 3 605 15 102 9 270 17 373 17 l188 0 -26 -35 -27 -34 -28 20 c-32 24 -73 22 -78 -3 -3 -13 3 -18 21 -18 14 0 30 -7 37 -15 10 -12 6 -24 -27 -67 -22 -29 -47 -64 -56 -78 -17 -24 -17 -24 -17 28 0 91 -36 152 -89 152 -27 0 -28 -30 -1 -37 66 -17 69 -216 5 -365 -5 -14 -2 -18 14 -18 17 0 24 11 38 61 12 41 24 64 36 67 10 3 17 14 17 29 0 14 9 42 20 62 20 35 22 36 73 33 58 -4 128 16 135 37 4 11 -3 12 -32 7 -20 -3 -53 -9 -73 -12 l-38 -7 28 30 c15 16 27 39 27 52 0 15 41 67 126 158 118 128 182 208 173 218 -3 2 -26 -22 -52 -54z"/>
<path d="M3553 7568 c-39 -40 -88 -146 -109 -234 -8 -36 -20 -75 -27 -86 -9 -16 -9 -22 1 -25 6 -3 12 -13 12 -24 0 -32 36 -59 80 -59 43 0 150 36 150 51 0 12 -9 12 -66 -6 -77 -23 -113 -20 -125 11 -13 36 -6 53 54 137 60 83 109 185 111 231 2 46 -38 48 -81 4z m26 -77 c-23 -55 -89 -153 -89 -134 0 47 98 225 107 196 2 -6 -6 -34 -18 -62z"/>
<path d="M2540 7551 c-5 -11 -17 -50 -26 -88 -9 -39 -33 -97 -56 -137 -47 -80 -136 -176 -162 -176 -16 0 -18 6 -12 40 5 35 4 40 -13 40 -21 0 -31 -19 -31 -59 0 -36 17 -51 58 -51 27 0 43 10 82 50 27 28 66 77 86 111 30 47 39 57 46 45 15 -27 57 -19 89 16 l29 32 0 -62 c0 -47 4 -64 15 -69 9 -3 17 -4 19 -2 2 2 6 49 8 104 3 97 2 100 -19 103 -13 2 -23 -1 -23 -6 0 -13 -71 -102 -81 -102 -16 0 -9 75 12 138 20 60 20 92 0 92 -6 0 -15 -9 -21 -19z"/>
<path d="M8900 7525 c-25 -66 -6 -116 52 -130 21 -5 33 -1 52 19 15 14 26 34 26 45 0 25 -36 51 -71 51 -19 0 -26 5 -25 16 2 28 -23 27 -34 -1z m86 -60 c4 -8 1 -22 -6 -30 -16 -19 -50 -2 -50 25 0 24 47 28 56 5z"/>
<path d="M5057 7499 c-17 -62 9 -109 58 -109 53 0 97 79 61 109 -8 6 -36 14 -63 18 -46 5 -50 4 -56 -18z m96 -29 c13 -12 -28 -54 -46 -47 -17 6 -23 47 -10 60 7 8 43 -1 56 -13z"/>
<path d="M3255 7453 c-22 -21 -65 -111 -65 -136 0 -23 23 -31 49 -17 21 10 21 9 21 -79 0 -152 -35 -264 -86 -277 -30 -8 -44 7 -44 48 0 25 41 84 80 115 11 9 12 15 4 23 -18 18 -111 -78 -120 -125 -14 -74 60 -121 119 -75 54 43 73 107 89 300 18 209 17 234 -8 238 -12 2 -29 -5 -39 -15z m21 -60 c-10 -10 -19 5 -10 18 6 11 8 11 12 0 2 -7 1 -15 -2 -18z"/>
<path d="M2847 7454 c-4 -4 -4 -17 -1 -28 3 -12 -1 -53 -9 -91 -8 -39 -13 -73 -10 -77 11 -20 32 -4 53 42 13 27 32 57 42 67 17 15 18 14 18 -35 0 -45 3 -52 20 -52 13 0 34 19 58 52 l37 53 3 -60 c3 -64 14 -85 43 -85 22 0 24 11 7 29 -8 7 -13 41 -13 89 0 70 -2 77 -20 80 -15 2 -31 -11 -55 -43 l-35 -46 -10 32 c-14 40 -28 46 -60 25 -23 -15 -24 -15 -27 17 -3 30 -25 47 -41 31z"/>
<path d="M3814 7378 c-4 -6 -2 -14 4 -20 13 -13 279 3 272 17 -6 13 -269 15 -276 3z"/>
<path d="M7663 7380 c-26 -11 -30 -38 -7 -47 19 -7 59 30 50 46 -8 13 -13 13 -43 1z"/>
<path d="M4423 7358 c-16 -28 17 -30 321 -23 218 5 326 3 360 -5 56 -12 89 2 44 19 -31 12 -718 20 -725 9z"/>
<path d="M5512 7353 c-34 -3 -43 -8 -40 -21 2 -11 12 -16 28 -15 14 0 78 3 143 4 81 3 117 7 117 15 0 7 -7 15 -16 18 -16 6 -156 5 -232 -1z"/>
<path d="M6274 7348 c-2 -4 1 -10 8 -14 28 -18 1085 -8 1091 10 2 10 -1093 14 -1099 4z"/>
<path d="M3817 7278 c-8 -5 -8 -11 -2 -17 6 -6 51 -8 118 -4 82 5 107 9 107 20 0 11 -20 14 -106 11 -58 -2 -111 -6 -117 -10z"/>
<path d="M8047 7253 c-12 -20 -48 -152 -57 -209 -18 -112 22 -189 94 -182 39 4 41 23 3 23 -49 1 -62 26 -61 118 1 64 7 98 28 152 41 106 41 105 18 105 -12 0 -23 -3 -25 -7z"/>
<path d="M8900 7216 c-10 -27 -30 -172 -30 -219 0 -22 4 -28 18 -25 12 2 19 17 23 56 4 29 10 69 14 89 l6 36 23 -49 c50 -107 99 -111 147 -11 l29 62 0 -96 c0 -75 3 -98 14 -102 27 -11 33 18 27 143 -6 116 -7 125 -27 128 -17 2 -28 -13 -64 -85 l-43 -88 -21 28 c-12 16 -30 56 -41 90 -16 49 -25 63 -42 65 -17 3 -26 -3 -33 -22z"/>
<path d="M4722 7218 c3 -8 27 -14 61 -16 31 -2 57 -7 57 -12 0 -5 -25 -28 -55 -51 -71 -54 -70 -73 5 -77 70 -4 190 25 190 45 0 10 -6 13 -17 8 -23 -9 -121 -25 -152 -25 -21 0 -19 4 23 41 49 44 55 59 30 83 -20 20 -148 23 -142 4z"/>
<path d="M6747 7183 c-4 -3 -7 -12 -7 -19 0 -10 11 -12 44 -8 57 8 66 -7 27 -52 -17 -19 -31 -41 -31 -49 0 -34 82 -45 177 -25 102 22 99 47 -4 31 -37 -5 -80 -7 -95 -4 l-27 5 24 33 c31 40 31 59 3 79 -22 16 -99 22 -111 9z"/>
<path d="M8655 7161 c-3 -6 -3 -26 1 -46 l6 -35 -67 0 c-58 0 -66 -2 -63 -17 3 -15 13 -17 66 -15 l62 4 0 -51 c0 -39 4 -51 15 -51 11 0 15 11 15 38 0 48 10 63 50 71 19 3 36 13 38 20 3 10 -5 12 -36 6 l-41 -7 -3 44 c-2 30 -8 44 -20 46 -9 2 -19 -2 -23 -7z"/>
<path d="M8127 7154 c-10 -10 -9 -182 1 -188 12 -7 29 7 36 30 4 12 21 41 37 64 36 49 49 42 49 -27 0 -63 24 -56 90 25 l55 67 5 -67 c5 -72 18 -95 46 -84 13 5 15 9 6 18 -7 7 -12 38 -12 71 0 64 -12 97 -36 97 -8 0 -37 -20 -63 -45 l-49 -46 -10 31 c-14 38 -48 40 -91 5 l-30 -26 -3 37 c-3 36 -17 52 -31 38z"/>
<path d="M5527 6493 c-10 -3 -17 -12 -15 -21 2 -13 14 -17 46 -17 37 0 48 -5 73 -33 16 -18 29 -39 29 -47 0 -7 -22 -33 -49 -55 -27 -23 -52 -49 -56 -57 -9 -26 22 -50 88 -67 34 -10 74 -22 89 -27 14 -6 35 -9 45 -7 24 5 -42 40 -119 62 -32 9 -58 22 -58 28 0 7 20 30 44 52 56 52 63 73 34 116 -34 51 -104 84 -151 73z"/>
<path d="M8350 6374 c0 -9 16 -34 35 -57 121 -142 142 -528 42 -775 -19 -45 -22 -62 -13 -62 20 0 31 18 59 95 93 260 63 615 -64 776 -32 40 -59 51 -59 23z"/>
<path d="M6167 6356 c-19 -20 -73 -166 -103 -283 -57 -223 -70 -462 -29 -532 25 -42 47 -56 71 -47 18 8 18 8 -3 16 -44 18 -58 64 -58 195 0 181 52 420 126 583 29 65 27 99 -4 68z"/>
<path d="M5361 6313 c-10 -21 -38 -92 -61 -158 -24 -66 -45 -122 -47 -125 -3 -3 -4 51 -2 120 4 128 -1 153 -26 144 -12 -5 -14 -31 -11 -142 3 -148 8 -172 37 -172 26 0 41 29 85 164 28 85 44 121 57 124 19 5 33 43 23 67 -10 26 -35 16 -55 -22z"/>
<path d="M4865 6287 c-26 -55 -115 -337 -115 -364 0 -10 7 -14 19 -10 12 3 22 -1 25 -9 5 -12 80 -14 476 -12 258 1 470 5 470 9 0 11 -70 19 -170 19 l-95 0 36 25 c20 13 39 31 43 40 10 26 7 60 -6 73 -17 17 -93 15 -128 -3 -38 -20 -40 -40 -2 -30 46 12 105 11 109 -2 6 -18 -51 -73 -76 -73 -16 0 -21 6 -21 25 0 28 -24 34 -34 9 -9 -24 -8 -31 10 -49 15 -15 -7 -16 -300 -14 -174 1 -316 4 -316 6 0 25 85 263 94 263 6 0 21 -28 31 -62 16 -51 24 -64 43 -66 32 -5 51 14 84 83 15 33 28 58 29 55 1 -6 7 -124 8 -166 1 -39 23 -69 44 -61 15 5 15 9 0 38 -13 26 -15 55 -11 153 3 66 3 127 1 134 -12 32 -37 4 -85 -93 -28 -58 -54 -108 -58 -110 -10 -6 -19 28 -39 144 -9 52 -21 96 -28 98 -6 3 -23 -20 -38 -50z"/>
<path d="M7483 6245 c-11 -18 -24 -48 -28 -67 -4 -18 -25 -81 -46 -139 -22 -59 -39 -109 -39 -113 0 -3 8 -6 19 -6 14 0 26 20 51 93 18 50 42 117 53 147 l20 55 21 -62 c35 -103 54 -106 101 -16 16 31 31 51 33 45 2 -7 -1 -51 -7 -99 -15 -124 -15 -133 9 -133 17 0 20 7 20 43 0 23 7 85 15 137 19 121 19 139 -1 147 -16 6 -23 -2 -85 -94 l-37 -54 -15 48 c-8 26 -18 60 -21 76 -9 37 -36 34 -63 -8z"/>
<path d="M3733 6213 c-36 -40 -89 -143 -117 -230 -10 -29 -21 -55 -26 -58 -12 -7 0 -86 16 -112 8 -13 29 -25 49 -29 42 -7 128 14 122 30 -3 6 -11 9 -18 7 -89 -23 -129 -8 -129 48 0 30 12 56 56 120 66 98 129 225 120 246 -9 25 -37 17 -73 -22z m-13 -107 c-30 -53 -40 -65 -40 -48 0 14 61 114 67 109 3 -3 -9 -31 -27 -61z"/>
<path d="M2562 6077 c-6 -7 -22 -43 -35 -80 -14 -38 -47 -104 -73 -149 -49 -80 -159 -209 -196 -229 -18 -10 -19 -8 -16 28 3 32 0 38 -17 38 -16 0 -21 -8 -23 -38 -4 -46 11 -67 46 -67 35 0 143 111 211 215 32 48 51 70 51 58 0 -27 24 -46 48 -39 11 4 43 31 71 61 l51 54 -2 -74 c-1 -41 1 -77 4 -81 15 -14 28 10 28 49 0 23 7 73 15 111 8 38 12 73 9 77 -10 17 -32 9 -50 -18 -24 -37 -125 -143 -136 -143 -14 0 3 101 28 164 22 55 24 76 5 76 -5 0 -13 -6 -19 -13z"/>
<path d="M3345 6017 c-28 -43 -29 -82 -4 -106 l23 -21 -25 -26 c-36 -39 -86 -66 -108 -59 -23 7 -38 43 -46 115 -9 81 -14 90 -40 90 -15 0 -39 -17 -69 -51 l-46 -51 0 30 c0 57 -50 66 -89 16 l-20 -25 -3 33 c-2 24 -8 34 -23 36 -19 3 -20 -3 -20 -98 0 -83 3 -100 15 -100 9 0 22 19 32 48 10 26 29 61 43 77 l26 30 -3 -70 c-4 -93 10 -92 79 5 29 41 57 76 62 78 10 3 21 -32 21 -70 0 -15 7 -45 16 -67 31 -78 106 -76 189 4 l45 44 0 -37 c0 -33 -6 -40 -46 -67 -25 -16 -60 -50 -77 -75 -26 -38 -32 -54 -32 -102 0 -73 26 -112 77 -116 71 -6 105 61 115 223 3 55 11 104 17 108 8 6 7 10 -1 14 -8 3 -13 23 -13 48 0 24 -4 46 -9 50 -6 3 -6 17 1 36 15 45 -2 79 -42 79 -20 0 -34 -7 -45 -23z m52 -43 c-7 -43 -14 -51 -29 -36 -8 8 -8 19 2 41 17 43 34 39 27 -5z m-7 -374 c-15 -58 -36 -90 -60 -90 -49 0 -68 104 -29 166 11 19 37 47 57 64 l37 30 3 -62 c2 -35 -2 -83 -8 -108z"/>
<path d="M6420 6002 c-33 -11 -150 -95 -150 -108 0 -24 30 -15 76 22 25 20 46 35 49 32 2 -2 -7 -26 -20 -52 -28 -55 -40 -108 -31 -132 9 -24 36 2 36 35 0 14 18 61 40 104 22 42 40 81 40 86 0 12 -22 19 -40 13z"/>
<path d="M3980 5982 c0 -16 9 -20 63 -24 83 -7 257 4 257 17 0 6 -47 10 -118 11 -64 0 -136 4 -159 8 -39 7 -43 6 -43 -12z"/>
<path d="M6740 5890 c-132 -4 -165 -8 -165 -19 0 -11 28 -14 154 -12 84 1 164 6 177 11 25 10 34 32 12 28 -7 -1 -87 -5 -178 -8z"/>
<path d="M4028 5873 c-18 -23 18 -26 170 -17 194 12 187 29 -11 29 -106 0 -151 -4 -159 -12z"/>
<path d="M7989 5866 c-2 -2 -186 -7 -409 -10 -374 -6 -457 -12 -405 -32 9 -4 106 -4 214 1 108 4 360 9 561 11 350 3 452 12 298 25 -87 8 -253 11 -259 5z"/>
<path d="M5077 5776 c-9 -22 2 -25 67 -19 42 4 72 1 96 -9 l35 -15 -60 -37 c-136 -86 -136 -86 -133 -109 2 -15 12 -23 35 -28 39 -8 201 6 257 22 64 18 27 28 -67 18 -48 -6 -111 -9 -140 -7 l-52 3 75 44 c98 58 124 85 110 110 -13 26 -69 41 -151 41 -48 0 -68 -4 -72 -14z"/>
<path d="M7926 5648 c-3 -40 -13 -98 -21 -128 -19 -72 -19 -80 4 -80 21 0 35 32 46 105 13 77 16 82 31 40 7 -21 19 -42 26 -47 26 -16 62 -3 85 31 l23 34 0 -75 c0 -56 4 -79 15 -88 9 -7 18 -10 21 -7 3 3 7 62 9 131 2 93 -1 128 -10 136 -16 13 -24 6 -68 -69 -18 -30 -37 -56 -43 -58 -7 -2 -17 18 -24 49 -16 69 -35 98 -64 98 -22 0 -24 -5 -30 -72z"/>
<path d="M7504 5670 c-12 -5 -31 -20 -42 -35 -20 -25 -21 -25 -27 -5 -11 34 -57 26 -94 -15 l-31 -36 0 30 c0 27 -21 61 -39 61 -4 0 -16 -6 -26 -14 -22 -16 -13 -51 10 -42 12 4 15 -4 17 -42 0 -26 0 -60 -1 -75 -2 -24 1 -28 20 -25 16 2 26 14 36 44 7 22 27 56 43 75 l29 34 1 -57 c0 -50 3 -58 19 -58 11 0 23 12 31 29 16 41 56 92 63 84 4 -3 7 -30 7 -58 0 -34 5 -57 15 -65 24 -20 32 -4 28 52 -9 119 -16 134 -59 118z"/>
<path d="M7766 5654 c-3 -9 -6 -24 -6 -35 0 -19 -18 -26 -80 -31 -25 -2 -36 -8 -38 -21 -3 -17 1 -18 51 -12 l54 7 -5 -56 c-4 -46 -2 -56 11 -56 11 0 17 14 22 48 8 63 14 70 54 74 48 4 53 28 6 28 -36 0 -36 0 -29 35 5 31 4 35 -14 35 -11 0 -23 -7 -26 -16z"/>
<path d="M7885 5127 c-66 -35 -159 -84 -206 -110 l-86 -47 -15 21 c-19 29 -44 15 -93 -51 -32 -44 -62 -70 -78 -70 -3 0 -8 17 -12 38 -9 52 -41 104 -62 100 -16 -3 -42 -78 -68 -192 -5 -24 -21 -35 -125 -84 -66 -31 -120 -63 -120 -69 0 -22 27 -15 120 32 49 25 92 45 95 45 3 0 5 -14 5 -31 0 -48 32 -34 45 20 8 35 18 47 52 68 l41 24 7 -21 c11 -34 46 -21 73 27 26 48 89 101 78 67 -13 -44 -26 -208 -17 -217 24 -24 38 2 40 70 1 37 7 95 14 128 l12 60 209 116 c116 63 212 121 214 127 2 7 2 12 0 12 -1 0 -57 -29 -123 -63z m-522 -258 c5 -21 2 -28 -19 -37 -14 -7 -27 -12 -30 -12 -7 0 5 55 18 90 10 24 10 24 18 5 4 -11 10 -32 13 -46z"/>
<path d="M8585 5097 c-83 -46 -169 -95 -192 -110 -24 -15 -45 -27 -48 -27 -3 0 -5 14 -5 30 0 23 -4 30 -20 30 -14 0 -40 -27 -82 -85 -72 -98 -72 -98 -117 10 -21 50 -35 70 -48 70 -18 0 -23 -19 -68 -260 -2 -11 -35 -43 -73 -71 l-69 -52 -409 -6 c-225 -4 -557 -3 -739 2 -318 9 -372 6 -335 -19 28 -18 2260 4 2260 22 0 5 -159 9 -352 9 l-353 1 28 24 c20 18 35 23 53 19 20 -5 24 -2 24 15 0 23 67 77 138 111 23 11 42 24 42 28 0 4 14 16 30 25 l30 18 0 -81 c0 -65 3 -82 16 -87 20 -7 33 12 27 38 -3 11 -2 53 2 94 l7 74 116 70 c64 38 160 92 212 121 107 57 124 70 94 70 -11 0 -87 -37 -169 -83z m-473 -229 l26 -47 -35 -21 c-19 -11 -37 -20 -40 -20 -2 0 -2 24 2 53 7 54 15 91 19 85 2 -2 14 -24 28 -50z"/>
<path d="M5505 5157 c-10 -8 -15 -19 -11 -25 9 -15 36 -16 36 -2 0 18 67 10 94 -11 l28 -22 -46 -46 c-49 -50 -57 -78 -28 -103 22 -20 86 -38 135 -38 43 0 50 17 10 25 -131 28 -145 42 -92 89 60 54 64 62 44 92 -31 47 -129 71 -170 41z"/>
<path d="M6105 5107 c-91 -140 -151 -519 -111 -707 24 -113 78 -211 103 -187 3 3 -4 21 -15 39 -11 18 -31 67 -44 108 -55 176 -8 549 88 701 24 39 26 69 5 69 -6 0 -17 -10 -26 -23z"/>
<path d="M4853 5011 c-13 -11 -23 -25 -23 -33 0 -7 -18 -65 -40 -128 -45 -130 -50 -170 -21 -170 15 0 25 20 49 93 17 50 34 110 38 132 l8 40 8 -59 c10 -76 29 -106 68 -106 33 0 51 21 87 104 l22 51 1 -101 c0 -107 12 -143 44 -131 13 5 15 11 6 26 -5 11 -10 80 -10 155 0 131 -1 136 -21 136 -16 0 -30 -20 -64 -93 -54 -115 -68 -130 -84 -86 -6 18 -12 53 -12 78 -2 60 -11 104 -24 107 -5 2 -20 -5 -32 -15z"/>
<path d="M5391 4962 c-10 -20 -29 -71 -42 -112 -12 -41 -29 -91 -37 -110 -13 -31 -15 -33 -25 -15 -12 22 -14 146 -3 218 7 42 5 47 -12 47 -28 0 -32 -18 -32 -133 0 -114 12 -172 39 -186 35 -19 58 13 96 132 20 61 44 124 52 138 16 27 12 59 -6 59 -6 0 -19 -17 -30 -38z"/>
<path d="M8615 4970 c-4 -6 6 -15 22 -21 16 -5 36 -22 45 -37 69 -116 32 -547 -54 -639 -24 -26 -19 -38 11 -28 69 21 134 342 111 544 -11 97 -36 163 -69 181 -25 13 -58 13 -66 0z"/>
<path d="M3761 4884 c-60 -65 -112 -155 -137 -238 -10 -32 -24 -61 -31 -63 -18 -7 -16 -43 2 -43 8 0 15 -7 15 -16 0 -8 17 -22 37 -30 31 -13 46 -14 96 -4 68 13 107 29 107 43 0 5 -12 6 -27 2 -110 -28 -183 -24 -183 10 0 8 29 53 64 99 69 90 163 267 152 285 -15 23 -46 9 -95 -45z m28 -46 c-34 -68 -112 -183 -116 -171 -8 23 121 232 134 219 3 -2 -5 -24 -18 -48z"/>
<path d="M6362 4823 c2 -82 7 -118 15 -121 7 -2 16 5 19 15 18 55 31 80 57 110 16 18 33 33 38 33 4 0 9 -24 11 -52 2 -39 7 -54 19 -56 11 -2 19 6 23 23 9 34 111 140 126 130 7 -4 10 -34 9 -81 -1 -41 1 -78 5 -82 17 -17 36 34 36 98 0 72 -16 100 -57 100 -23 0 -101 -54 -110 -76 -4 -12 -8 -11 -20 6 -20 29 -57 25 -98 -11 l-35 -31 0 56 c0 49 -2 56 -20 56 -19 0 -20 -6 -18 -117z"/>
<path d="M6936 4924 c-3 -9 -6 -28 -6 -42 0 -43 -12 -53 -61 -50 -60 4 -62 -23 -2 -35 42 -8 42 -8 45 -55 2 -37 7 -48 22 -50 15 -3 18 0 13 18 -3 13 -3 35 0 51 4 22 13 29 41 36 49 12 54 33 7 33 -30 0 -36 3 -31 16 3 9 9 33 12 55 6 35 4 39 -14 39 -11 0 -23 -7 -26 -16z"/>
<path d="M7684 4829 c-13 -22 13 -26 124 -21 86 3 112 8 112 18 0 11 -24 14 -114 14 -72 0 -117 -4 -122 -11z"/>
<path d="M2452 4676 c-79 -160 -187 -296 -237 -296 -21 0 -36 43 -28 81 5 28 4 30 -18 27 -22 -3 -24 -8 -23 -50 0 -57 24 -88 67 -88 60 0 120 57 216 210 36 57 42 62 47 43 11 -39 47 -29 93 25 l41 47 0 -53 c0 -63 13 -92 42 -92 17 0 18 3 8 15 -14 17 -16 59 -6 138 6 49 5 58 -10 64 -17 6 -28 -3 -102 -92 l-33 -40 6 50 c3 28 8 62 11 76 3 18 0 28 -10 32 -10 4 -28 -22 -64 -97z"/>
<path d="M5487 4759 c-67 -16 -76 -24 -70 -67 3 -20 13 -45 21 -54 14 -17 9 -18 -99 -18 -228 0 -629 -23 -629 -36 0 -18 21 -20 129 -12 53 3 229 11 391 17 442 16 521 22 517 34 -2 7 -42 10 -115 8 l-112 -3 35 35 c33 33 47 79 28 90 -20 11 -62 14 -96 6z m67 -41 c-18 -32 -50 -58 -71 -58 -13 0 -23 3 -23 8 0 4 -3 17 -6 29 -7 24 6 30 69 32 28 1 36 -2 31 -11z"/>
<path d="M3362 4728 c-19 -19 -14 -55 11 -73 22 -16 22 -16 2 -28 -92 -55 -155 -44 -155 28 0 79 -27 85 -90 19 l-45 -45 -5 33 c-7 48 -40 50 -85 5 -35 -35 -45 -32 -45 13 0 21 -28 40 -47 33 -18 -6 -16 -31 3 -50 12 -13 14 -28 8 -79 -6 -59 -5 -64 13 -64 12 0 26 13 37 36 9 20 29 52 44 72 l27 36 5 -34 c3 -18 13 -38 22 -44 15 -9 26 -2 68 39 l50 49 0 -32 c0 -22 9 -42 26 -59 23 -23 31 -25 81 -20 37 4 72 16 104 36 58 36 63 29 53 -70 l-6 -68 -58 -41 c-73 -50 -100 -92 -100 -154 0 -114 122 -132 165 -24 9 23 23 112 32 205 14 150 14 166 -1 188 -10 15 -14 34 -10 49 3 15 0 29 -11 40 -19 19 -76 21 -93 4z m68 -39 c0 -15 -4 -19 -16 -15 -9 3 -18 6 -20 6 -2 0 -4 7 -4 15 0 8 9 15 20 15 14 0 20 -7 20 -21z m0 -342 c-13 -104 -37 -147 -81 -147 -6 0 -17 16 -25 36 -21 51 -5 93 59 149 28 24 52 43 54 41 2 -1 -1 -37 -7 -79z"/>
<path d="M4063 4677 c-15 -24 23 -29 171 -25 138 3 179 9 165 22 -8 8 -331 11 -336 3z"/>
<path d="M4260 4609 c-74 -4 -136 -7 -137 -8 -2 0 -3 -8 -3 -17 0 -14 8 -16 48 -10 26 3 91 9 145 12 89 6 126 16 94 26 -6 2 -73 0 -147 -3z"/>
<path d="M7683 4525 c-13 -12 -23 -29 -23 -38 0 -9 -14 -60 -31 -113 -21 -65 -27 -100 -21 -106 22 -22 39 3 62 89 13 48 29 99 35 112 12 23 13 21 34 -41 19 -57 35 -78 58 -78 3 0 30 26 59 58 l53 57 -7 -55 c-4 -30 -7 -84 -7 -120 0 -52 3 -65 16 -68 14 -3 18 11 24 80 4 46 13 114 21 151 23 113 -3 117 -98 17 l-66 -70 -7 32 c-4 18 -16 52 -26 75 -21 49 -41 54 -76 18z"/>
<path d="M7313 4483 c-7 -3 -15 -21 -19 -41 -8 -43 -18 -52 -59 -52 -40 0 -60 -14 -51 -35 4 -11 12 -15 24 -10 9 3 28 9 42 12 25 5 26 3 25 -48 0 -71 22 -78 31 -9 8 57 22 70 79 70 52 0 40 24 -14 28 -45 3 -47 9 -25 65 6 15 -13 27 -33 20z"/>
<path d="M6965 4469 c-11 -7 -34 -25 -51 -41 l-31 -29 -11 26 c-17 37 -57 33 -98 -10 -18 -19 -35 -35 -37 -35 -3 0 -8 11 -11 25 -4 14 -18 32 -32 41 -23 16 -27 16 -41 2 -17 -18 -8 -42 12 -34 15 5 29 -29 41 -96 8 -49 37 -52 53 -6 16 44 53 98 69 98 7 0 12 -14 12 -35 0 -59 24 -56 87 11 l56 59 9 -35 c20 -75 24 -85 38 -85 12 0 14 11 12 50 -6 86 -32 119 -77 94z"/>
<path d="M5161 4451 c-28 -18 -1 -29 58 -24 98 9 89 -16 -43 -125 -58 -49 -2 -78 130 -68 143 11 170 44 32 38 -51 -2 -104 -3 -118 -1 -23 4 -21 7 28 43 79 57 99 111 51 136 -22 12 -119 13 -138 1z"/>
<path d="M5353 3760 c-13 -5 -23 -17 -23 -26 0 -13 5 -15 23 -9 32 11 103 8 129 -6 21 -11 19 -14 -45 -73 -89 -80 -88 -105 3 -125 66 -14 180 -18 177 -6 -1 5 -46 17 -100 26 -54 10 -101 20 -105 23 -3 4 24 35 61 69 37 34 67 67 67 73 0 20 -35 43 -80 53 -54 13 -78 13 -107 1z"/>
<path d="M7093 3652 c-6 -4 -14 -21 -18 -37 -4 -17 -22 -77 -40 -135 -63 -196 -66 -210 -49 -217 8 -3 17 -3 19 -1 3 2 19 53 35 111 17 59 38 124 46 144 l16 37 30 -72 c40 -95 60 -97 136 -15 50 54 53 56 48 28 -32 -166 -31 -245 2 -245 16 0 18 10 19 83 1 52 10 108 23 152 12 39 24 85 27 103 9 56 -26 40 -111 -53 -42 -47 -81 -85 -85 -85 -8 0 -56 142 -63 184 -3 22 -17 29 -35 18z"/>
<path d="M5138 3543 c-30 -49 -72 -118 -93 -155 -21 -37 -40 -66 -41 -65 -10 11 -104 254 -104 268 0 20 -34 27 -45 9 -8 -13 110 -289 135 -314 27 -27 35 -18 121 134 50 89 78 130 90 130 18 0 36 51 24 70 -15 24 -37 5 -87 -77z"/>
<path d="M3456 3452 c-3 -5 -24 -44 -47 -88 -63 -119 -124 -206 -189 -268 -73 -70 -111 -74 -114 -12 -1 25 -34 34 -42 12 -20 -53 41 -106 101 -86 40 13 134 110 190 197 71 108 66 104 61 46 -5 -51 8 -83 34 -83 15 0 66 48 96 91 l29 43 5 -80 c4 -59 9 -79 20 -82 12 -2 15 12 17 70 1 40 9 104 17 141 16 67 15 87 -4 87 -5 0 -38 -44 -73 -97 -36 -54 -75 -107 -87 -118 l-22 -20 6 45 c4 25 14 77 22 117 9 40 13 77 9 83 -8 12 -22 13 -29 2z"/>
<path d="M5200 3377 c-20 -10 -27 -23 -34 -71 -9 -52 -8 -60 9 -72 64 -47 182 39 154 113 -15 41 -78 56 -129 30z m88 -29 c18 -18 15 -33 -14 -68 -18 -20 -34 -30 -48 -28 -18 3 -21 10 -21 46 0 46 13 61 51 62 11 0 25 -5 32 -12z"/>
<path d="M4195 3245 c-5 -3 -62 -6 -125 -7 -104 -3 -115 -5 -118 -22 -4 -18 1 -19 74 -12 44 4 130 9 192 13 108 6 136 14 90 27 -25 6 -97 7 -113 1z"/>
<path d="M6542 3212 c3 -14 18 -18 78 -22 82 -6 1362 9 1369 16 13 13 -42 15 -405 12 -640 -5 -935 -3 -992 4 -47 6 -53 5 -50 -10z"/>
<path d="M6217 3213 c-12 -11 -7 -33 8 -39 20 -8 45 13 38 32 -5 14 -34 19 -46 7z"/>
<path d="M5430 3199 c-85 -4 -301 -10 -480 -13 -251 -5 -325 -9 -325 -18 0 -16 339 -15 750 1 143 6 344 13 448 17 103 3 187 10 187 15 0 10 -354 9 -580 -2z"/>
<path d="M3977 3154 c-17 -17 12 -24 102 -24 120 0 221 10 221 21 0 10 -313 12 -323 3z"/>
<path d="M5645 3071 c-43 -26 -83 -76 -116 -145 -51 -108 -47 -181 12 -211 49 -26 137 -16 196 23 38 24 16 31 -37 11 -66 -25 -124 -25 -150 1 -25 25 -26 40 -2 40 33 0 166 186 178 248 10 53 -25 68 -81 33z m45 -35 c0 -20 -92 -155 -130 -191 -32 -30 -32 -30 -25 -5 17 62 56 131 94 169 43 43 61 51 61 27z"/>
<path d="M7742 3043 c-11 -26 -30 -74 -42 -106 -12 -31 -25 -57 -29 -57 -4 0 -24 36 -44 80 -31 69 -39 80 -60 80 -24 0 -27 -7 -51 -108 -38 -159 -42 -200 -22 -208 9 -4 19 -4 22 -1 7 7 44 185 44 214 0 27 16 31 24 5 4 -10 20 -39 36 -65 22 -35 36 -47 54 -47 29 0 38 11 64 80 l20 55 6 -60 c17 -146 20 -160 41 -160 15 0 19 6 17 25 -1 14 -6 90 -10 170 -7 137 -8 145 -28 148 -17 2 -25 -7 -42 -45z"/>
<path d="M7257 3004 c-4 -4 -7 -29 -7 -55 l0 -48 -37 -3 c-28 -2 -39 -8 -41 -22 -4 -17 0 -18 32 -13 l36 6 0 -44 c0 -47 21 -78 45 -69 17 7 20 24 5 24 -5 0 -10 20 -10 44 l0 44 55 7 c30 3 55 10 55 15 0 10 -36 20 -72 20 -25 0 -26 2 -25 47 2 36 -2 48 -13 50 -9 2 -19 1 -23 -3z"/>
<path d="M6985 2968 c-11 -6 -37 -27 -57 -46 -34 -32 -38 -34 -38 -15 0 62 -45 72 -97 21 l-33 -32 0 31 c0 30 -18 48 -36 35 -5 -4 -10 -58 -10 -119 -1 -104 0 -113 17 -113 12 0 19 7 19 18 0 36 31 109 63 147 l32 40 5 -69 c6 -78 21 -93 45 -45 19 35 93 119 106 119 5 0 9 -32 9 -70 0 -54 4 -72 15 -77 9 -3 18 -3 20 -1 3 3 6 39 7 81 1 98 -16 123 -67 95z"/>
<path d="M4898 2963 c-37 -6 -53 -27 -33 -43 12 -10 19 -10 27 -2 14 14 114 16 123 2 6 -10 -40 -46 -119 -92 -51 -30 -61 -62 -23 -72 12 -3 73 -3 135 1 84 4 112 9 112 20 0 10 -24 13 -107 13 l-108 0 60 39 c79 51 102 77 89 99 -23 36 -73 48 -156 35z"/>
<path d="M5230 2939 c-70 -29 -95 -100 -42 -120 26 -10 57 -8 95 6 15 6 17 1 17 -41 l0 -49 -71 -40 c-39 -22 -89 -57 -110 -78 -61 -61 -65 -133 -8 -162 38 -20 95 -6 132 33 36 38 75 136 88 224 5 40 14 92 20 116 5 23 9 51 9 61 0 42 -77 72 -130 50z m85 -39 c12 -19 -73 -63 -102 -53 -30 10 0 57 42 65 23 5 53 -1 60 -12z m-44 -280 c-33 -106 -106 -174 -145 -135 -40 40 -5 105 90 169 38 25 70 44 72 41 2 -2 -5 -36 -17 -75z"/>
<path d="M6000 2172 c-13 -11 -20 -24 -16 -30 10 -17 33 -15 40 3 8 21 109 21 127 -1 18 -22 5 -40 -68 -94 -92 -69 -103 -99 -40 -119 76 -23 247 -24 247 -2 0 5 -44 11 -97 15 -108 7 -143 14 -143 27 0 4 24 26 54 48 58 43 96 86 96 108 0 8 -11 25 -25 38 -21 21 -33 25 -88 25 -48 0 -71 -5 -87 -18z"/>
<path d="M5706 1877 c-52 -79 -102 -149 -110 -156 -14 -12 -16 -10 -16 16 0 16 7 78 15 137 8 59 13 112 10 117 -4 5 -14 9 -24 9 -16 0 -19 -14 -26 -102 -5 -57 -9 -132 -9 -168 -1 -63 0 -65 26 -68 32 -4 72 43 167 197 35 55 69 101 76 101 16 0 29 35 20 50 -16 26 -42 -1 -129 -133z"/>
<path d="M3495 1763 c-16 -43 -180 -309 -235 -382 -83 -110 -100 -107 -100 15 0 59 -2 64 -21 64 -21 0 -21 -4 -17 -74 5 -77 26 -126 53 -126 40 0 159 153 261 336 20 35 38 64 41 64 3 0 2 -25 -2 -55 -13 -109 24 -128 95 -47 l42 47 -7 -66 c-7 -70 -1 -113 17 -107 6 2 13 28 15 58 6 81 29 174 58 230 30 59 30 60 8 60 -11 0 -34 -26 -60 -68 -23 -37 -62 -89 -87 -117 l-45 -50 0 30 c0 17 6 59 14 95 20 90 19 110 -4 110 -10 0 -22 -8 -26 -17z"/>
<path d="M5885 1764 c-22 -9 -53 -19 -70 -23 -27 -6 -30 -11 -33 -50 -7 -100 103 -118 182 -31 45 50 49 95 10 110 -33 13 -41 12 -89 -6z m73 -40 c5 -33 -61 -86 -101 -82 -27 2 -33 8 -35 31 -3 24 2 30 50 52 61 29 82 28 86 -1z"/>
<path d="M3831 1682 c-15 -5 -14 -29 2 -34 6 -2 59 -1 117 3 58 4 127 7 153 8 34 1 47 5 44 14 -3 9 -43 12 -155 12 -83 0 -156 -1 -161 -3z"/>
<path d="M7570 1663 c0 -14 -330 -33 -765 -43 -214 -6 -523 -15 -685 -20 -162 -5 -479 -10 -705 -11 -569 -2 -797 -10 -803 -28 -4 -12 23 -13 174 -7 99 4 474 11 834 16 857 11 1424 26 1745 45 269 17 295 20 279 34 -14 13 -74 24 -74 14z"/>
<path d="M3930 1573 c-111 -4 -143 -15 -95 -33 34 -13 331 12 348 29 11 11 -1 11 -253 4z"/>
<path d="M5877 1535 c-20 -20 -82 -179 -107 -271 -11 -43 -20 -106 -20 -141 0 -55 3 -66 31 -98 17 -19 40 -35 50 -35 26 0 24 6 -13 39 -32 29 -33 32 -32 103 2 84 43 221 99 332 19 39 35 71 35 72 0 11 -33 10 -43 -1z"/>
<path d="M5544 1501 c-58 -35 -102 -103 -138 -214 -3 -11 -15 -21 -26 -24 -23 -6 -27 -31 -5 -39 10 -4 15 -20 15 -46 0 -22 4 -47 10 -57 14 -28 64 -44 107 -36 41 7 103 41 103 56 0 13 -11 11 -55 -11 -44 -22 -77 -25 -106 -10 -15 9 -19 22 -19 66 0 56 0 57 73 134 40 42 83 97 96 122 38 71 12 100 -55 59z m19 -52 c-23 -40 -84 -111 -90 -105 -13 13 76 136 100 136 4 0 0 -14 -10 -31z"/>
<path d="M7474 1509 c-3 -6 10 -27 29 -47 105 -107 125 -344 43 -504 -31 -61 -32 -68 -16 -68 26 0 65 69 86 150 12 48 15 92 12 175 -6 131 -31 206 -87 266 -39 40 -55 47 -67 28z"/>
<path d="M6893 1363 c3 -119 17 -131 68 -56 72 107 102 122 98 46 -2 -31 1 -48 9 -51 7 -2 41 26 75 62 34 36 68 66 75 66 10 0 11 -17 6 -75 -6 -64 -5 -75 9 -75 9 0 18 8 21 18 11 39 18 113 12 137 -10 39 -61 34 -117 -10 l-44 -34 -13 24 c-20 39 -57 33 -108 -18 l-43 -43 -3 50 c-3 44 -6 51 -25 54 -22 3 -22 1 -20 -95z"/>
<path d="M6203 1390 c-17 -26 -140 -127 -175 -142 -15 -7 -28 -18 -28 -24 0 -24 30 -22 72 6 23 16 44 28 45 26 1 -1 -4 -22 -11 -46 -7 -25 -16 -62 -20 -82 -6 -33 -5 -38 13 -38 15 0 21 9 26 43 12 67 42 140 85 201 22 32 38 62 35 67 -10 15 -29 10 -42 -11z"/>
<path d="M4812 1363 c-27 -5 -40 -29 -24 -45 8 -8 15 -8 25 0 19 16 89 24 106 13 21 -14 6 -28 -100 -101 -136 -93 -113 -117 84 -85 96 15 130 26 110 38 -4 2 -44 0 -88 -5 -133 -15 -140 -10 -64 40 112 72 134 111 79 139 -24 12 -81 15 -128 6z"/>
<path d="M5105 1346 c-44 -20 -85 -68 -92 -108 -4 -30 -2 -38 17 -48 12 -7 36 -9 53 -6 l30 6 -7 -42 c-4 -27 -15 -50 -29 -61 -101 -82 -141 -145 -141 -224 -1 -112 82 -125 135 -21 11 22 31 86 43 142 21 91 26 103 54 121 17 11 31 23 32 28 0 12 -35 8 -48 -5 -10 -10 -11 -5 -6 22 11 56 22 80 39 80 11 0 15 11 15 43 0 69 -38 98 -95 73z m53 -48 c3 -17 -17 -42 -58 -71 -58 -41 -70 5 -15 60 36 36 67 41 73 11z m-83 -330 c-31 -129 -71 -192 -95 -148 -18 33 -11 84 20 136 28 49 78 100 88 90 2 -3 -4 -38 -13 -78z"/>
<path d="M6465 1328 c-2 -7 -9 -33 -15 -57 l-12 -44 -69 6 c-64 5 -69 4 -69 -14 0 -17 7 -19 65 -19 l65 0 0 -50 c0 -69 25 -69 34 0 l7 49 61 3 c38 2 63 8 66 16 3 9 -13 12 -57 12 -34 0 -61 2 -61 4 0 13 25 72 33 77 5 4 6 12 3 18 -10 15 -46 14 -51 -1z"/>
<path d="M6792 1210 c5 -24 52 -26 396 -16 457 15 438 31 -36 31 -312 0 -362 -2 -360 -15z"/>
<path d="M7226 1110 c-14 -17 -40 -55 -58 -85 -18 -30 -36 -55 -40 -55 -4 0 -28 29 -54 65 -58 82 -96 106 -108 68 -9 -29 -46 -236 -46 -260 0 -16 6 -23 18 -23 15 0 21 17 37 98 27 148 23 145 83 68 72 -91 87 -90 144 9 l43 76 12 -86 c14 -95 31 -140 53 -140 18 0 26 41 11 59 -6 7 -15 57 -21 112 -6 54 -13 105 -15 112 -7 21 -32 13 -59 -18z"/>
</g><g transform="translate(1104.573443, 1433.5501675993842) scale(0.40808740102544044)"><g transform="translate(-57.706759,297.537395) scale(0.100000,-0.100000)" fill="#000000" stroke="none">
<path d="M750 2973 c-57 -10 -88 -25 -119 -57 -40 -41 -55 -100 -46 -179 6 -45 12 -61 32 -77 32 -25 35 -25 64 -1 22 17 24 26 21 89 -4 105 24 120 164 87 33 -7 119 -19 190 -25 88 -8 134 -16 144 -26 32 -32 8 -420 -28 -456 -18 -18 -126 -28 -289 -28 -185 0 -206 -4 -250 -52 -55 -58 -58 -82 -55 -363 1 -145 7 -274 13 -293 11 -34 51 -62 89 -62 12 0 35 14 52 31 l31 30 -6 238 c-3 130 -3 249 0 264 l5 27 112 0 c234 1 363 26 423 82 58 54 98 260 91 463 -4 122 -7 138 -34 191 -40 81 -79 100 -217 108 -174 10 -361 14 -387 9z" fill="#4444bb"/>
<path d="M3660 2971 c-42 -9 -83 -34 -103 -65 -39 -59 -50 -127 -54 -343 -5 -206 -5 -212 18 -252 28 -50 78 -86 143 -102 48 -12 257 -8 370 7 l49 7 -7 -104 c-4 -57 -11 -189 -16 -294 -9 -177 -9 -192 8 -214 35 -47 100 -46 136 2 22 29 27 86 42 452 7 191 0 235 -44 283 -45 48 -92 56 -241 38 -146 -18 -229 -20 -265 -6 l-26 10 0 162 c0 156 8 230 27 249 5 5 99 6 210 2 l201 -6 5 -50 c3 -39 11 -56 31 -74 34 -29 48 -29 80 0 24 20 26 30 28 113 4 147 -23 169 -218 179 -242 11 -340 13 -374 6z" fill="#4444bb"/>
<path d="M1565 2945 c-14 -13 -25 -32 -25 -42 0 -10 -1 -297 -3 -638 -2 -677 -3 -662 55 -694 33 -19 73 -7 101 31 18 24 20 51 29 300 5 150 10 278 12 283 2 6 37 8 97 3 52 -3 135 -7 186 -7 154 -2 161 -10 143 -176 -21 -189 -27 -310 -18 -343 12 -45 45 -72 86 -72 71 0 102 46 102 151 0 33 7 118 16 187 24 190 9 280 -58 349 -50 52 -112 67 -263 65 -71 -1 -164 -6 -205 -11 -41 -4 -78 -7 -81 -5 -4 2 -10 108 -13 236 -9 286 -17 352 -47 384 -31 33 -82 32 -114 -1z" fill="#4444bb"/>
<path d="M2542 2944 c-55 -38 -64 -109 -53 -419 6 -186 9 -215 28 -250 50 -95 116 -125 302 -135 75 -4 171 -5 215 -1 l78 7 -4 -178 c-2 -97 -7 -181 -11 -184 -4 -4 -42 1 -85 11 -104 26 -285 27 -363 3 -106 -33 -149 -107 -99 -170 26 -34 68 -41 132 -21 74 23 202 20 308 -7 182 -47 274 5 301 168 12 77 27 831 19 994 -7 152 -20 181 -86 186 -88 7 -103 -51 -104 -401 l0 -219 -201 4 c-197 3 -201 3 -220 27 -18 21 -19 42 -19 283 l0 260 -29 29 c-33 33 -74 38 -109 13z" fill="#4444bb"/>
<path d="M2374 1391 c-55 -34 -79 -78 -79 -147 0 -51 4 -66 27 -96 35 -45 102 -73 153 -64 78 15 146 111 131 188 -20 108 -145 172 -232 119z" fill="#4444bb"/>
<path d="M1853 999 c-39 -11 -66 -56 -61 -101 6 -59 69 -64 76 -6 4 30 34 38 145 38 l67 0 0 -110 c0 -135 -1 -136 -132 -126 -85 6 -89 6 -113 -18 -24 -25 -25 -28 -25 -179 0 -162 4 -177 47 -177 35 0 43 29 43 159 l0 121 73 0 c85 0 141 14 168 41 17 17 19 34 19 169 0 147 -1 152 -25 175 -23 24 -30 25 -137 24 -62 0 -128 -5 -145 -10z" fill="#4444bb"/>
<path d="M2985 1000 c-91 -16 -93 -18 -104 -58 -15 -51 -14 -537 0 -564 19 -36 69 -48 204 -48 121 0 127 1 151 25 l24 24 -2 292 -3 292 -26 19 c-31 23 -161 33 -244 18z m169 -86 c14 -5 16 -37 16 -250 l0 -245 -102 3 -103 3 0 240 0 240 40 6 c57 9 131 10 149 3z" fill="#4444bb"/>
<path d="M2351 971 c-24 -24 -29 -73 -37 -372 -6 -232 -6 -237 15 -258 23 -23 29 -25 51 -11 12 7 16 40 20 150 l5 141 35 -23 c19 -13 59 -55 88 -93 30 -39 78 -96 108 -128 47 -51 56 -57 74 -47 29 16 25 42 -15 92 -19 24 -62 78 -95 121 -61 77 -61 77 -33 77 15 0 46 9 69 19 56 26 67 57 62 179 -6 156 -27 172 -220 172 -93 0 -111 -3 -127 -19z m257 -74 c16 -13 17 -168 0 -185 -7 -7 -41 -12 -84 -12 -40 0 -84 -4 -98 -10 l-26 -10 0 120 0 119 98 -6 c53 -3 103 -10 110 -16z" fill="#4444bb"/>
</g>
</g>
</svg>
