<svg xmlns="http://www.w3.org/2000/svg" version="1.0" width="169.952844pt" height="158.076192pt" viewBox="0 0 169.952844 158.076192" preserveAspectRatio="xMidYMid meet">
<metadata>
Created by potrace 1.16, written by Peter Selinger 2001-2019
</metadata>
<g transform="translate(-63.939033,158.898804) scale(0.100000,-0.100000)" fill="#000000" stroke="none">
<path d="M1155 1577 c-7 -19 -11 -247 -5 -257 3 -6 90 -10 197 -11 177 -1 196 -2 250 -24 32 -13 59 -28 61 -34 2 -5 -14 -15 -35 -20 -21 -6 -78 -22 -128 -37 -49 -14 -103 -29 -120 -33 -39 -9 -47 -46 -13 -54 110 -25 275 -71 282 -77 5 -5 -4 -12 -20 -15 -16 -4 -64 -18 -107 -31 -43 -13 -83 -24 -90 -24 -33 0 -87 -22 -87 -36 0 -20 46 -38 172 -70 137 -34 138 -34 113 -44 -36 -15 -123 -40 -138 -40 -8 0 -27 -7 -43 -15 -16 -8 -48 -17 -71 -21 -33 -5 -43 -11 -43 -25 0 -24 18 -32 110 -53 41 -10 86 -21 100 -26 14 -5 42 -11 63 -15 20 -3 37 -10 37 -14 0 -5 -37 -19 -82 -31 -46 -11 -105 -28 -131 -37 -44 -14 -70 -20 -89 -22 -5 -1 -8 -7 -8 -15 0 -13 30 -31 91 -55 24 -10 23 -10 -6 -11 -16 -1 -85 -1 -152 0 l-122 2 -3 -113 -3 -112 -233 -3 c-129 -1 -238 -6 -242 -10 -4 -5 -11 -19 -15 -31 -6 -21 -3 -23 37 -23 l43 -1 -42 -37 c-39 -35 -55 -62 -35 -62 4 0 30 23 57 50 44 45 54 50 92 50 48 0 54 -8 21 -30 -46 -31 -103 -90 -87 -90 8 0 44 27 80 60 55 51 70 60 102 60 20 0 37 -2 37 -5 0 -3 -25 -30 -57 -60 -31 -30 -53 -58 -50 -62 4 -3 38 24 76 60 67 65 83 73 115 61 18 -7 22 -24 6 -24 -18 0 -103 -87 -92 -94 6 -4 26 8 44 26 75 74 109 98 138 98 17 0 30 -4 30 -9 0 -4 -25 -32 -55 -60 -30 -29 -55 -54 -55 -57 0 -18 36 6 88 60 56 58 66 64 101 63 49 -1 44 -15 -23 -73 -25 -21 -46 -42 -46 -46 0 -20 27 -2 88 57 50 49 73 65 91 63 30 -4 39 -26 14 -35 -43 -17 -105 -93 -75 -93 4 0 37 29 74 65 52 52 73 65 97 65 17 0 31 -4 31 -8 0 -5 -25 -32 -56 -62 -31 -30 -51 -56 -45 -58 7 -2 43 26 81 62 54 52 74 66 99 66 17 0 31 -4 31 -9 0 -5 -22 -29 -50 -54 -45 -41 -62 -67 -43 -67 4 0 37 30 74 66 57 57 69 64 92 59 15 -4 27 -10 27 -14 0 -3 -22 -24 -50 -46 -27 -22 -49 -46 -50 -52 0 -22 17 -15 43 17 14 17 30 30 36 30 5 0 20 14 34 31 19 24 33 32 68 35 l44 4 -65 -65 c-84 -85 -55 -85 32 0 59 56 73 65 105 65 l37 0 -57 -58 c-31 -32 -57 -61 -57 -65 0 -18 22 -2 83 57 65 65 67 66 127 57 3 -1 -19 -23 -49 -49 -30 -26 -52 -54 -50 -61 3 -7 30 11 69 49 66 61 96 77 127 66 13 -5 5 -17 -40 -57 -32 -28 -57 -55 -57 -60 0 -22 26 -4 82 56 52 55 66 65 94 65 19 0 34 -4 34 -9 0 -5 -25 -30 -55 -56 -30 -25 -55 -51 -55 -56 0 -23 30 -3 85 56 53 58 63 65 88 59 32 -7 45 13 27 45 -10 20 -18 21 -220 21 l-209 0 3 115 3 116 -116 0 c-64 0 -142 -1 -173 -1 -60 -1 -206 46 -190 62 4 4 74 24 155 45 134 35 147 40 147 61 0 15 -6 22 -18 22 -10 0 -22 4 -28 8 -8 7 -46 18 -224 65 l-55 14 45 12 c25 6 81 23 125 36 44 14 95 27 114 30 110 18 39 63 -175 111 -41 9 -76 20 -79 25 -3 4 11 11 32 15 21 3 57 12 81 20 23 8 51 14 60 14 10 0 23 5 28 10 6 6 28 12 51 14 22 2 45 6 52 10 17 11 13 36 -6 42 -10 3 -27 10 -38 14 -11 5 -40 13 -65 18 -25 6 -71 17 -103 26 -32 9 -67 16 -77 16 -11 0 -20 5 -20 10 0 6 7 10 15 10 8 0 23 4 33 9 20 11 119 38 207 55 54 11 60 15 60 36 0 16 -7 26 -19 28 -10 2 -33 13 -50 24 l-31 19 55 -2 c30 -1 91 -1 135 -1 l80 2 1 139 1 139 -379 1 c-291 0 -380 -2 -383 -12z m712 -31 c3 -3 6 -48 6 -101 2 -88 0 -96 -18 -100 -11 -2 -164 -3 -340 -2 l-320 2 -3 60 c-2 33 -1 79 3 102 l6 42 67 3 c98 4 594 -1 599 -6z m-142 -1157 l135 0 0 -90 0 -89 -215 -1 c-118 0 -231 -1 -250 -1 -19 0 -75 1 -125 1 l-90 1 0 90 0 90 191 0 c106 -1 194 2 197 4 3 3 9 3 13 0 5 -3 70 -5 144 -5z" />
<path d="M2281 71 c-33 -30 -49 -51 -42 -55 13 -8 105 77 100 93 -2 6 -28 -11 -58 -38z" />
</g>
<g><path d="M 17.896 122 L 17.896 122 L 15.24 122 Q 15.944 119.44 16.568 116.832 Q 17.192 114.224 17.768 111.6 Q 17.8 111.536 17.88 111.088 Q 17.96 110.64 17.96 110.256 Q 17.96 109.712 17.752 109.344 Q 17.544 108.976 17 108.976 Q 16.2 108.976 15.256 109.808 Q 14.312 110.64 13.368 111.952 Q 12.424 113.264 11.576 114.768 Q 10.728 116.272 10.12 117.616 L 9.128 122 L 6.504 122 L 9.064 109.84 Q 9.064 109.84 9.112 109.488 Q 9.16 109.136 9.16 108.784 Q 9.16 108.368 8.936 108.144 Q 8.712 107.92 8.136 107.92 Q 7.816 107.92 7.464 107.952 Q 7.112 107.984 7.112 107.984 L 7.112 107.12 L 11.528 106.768 L 12.264 106.768 L 10.664 113.712 L 10.92 113.712 Q 11.432 112.752 12.184 111.552 Q 12.936 110.352 13.912 109.232 Q 14.888 108.112 16.072 107.392 Q 17.256 106.672 18.632 106.672 Q 19.848 106.672 20.248 107.376 Q 20.648 108.08 20.648 108.944 Q 20.648 109.648 20.52 110.416 Q 20.392 111.184 20.36 111.312 L 19.816 113.36 L 20.072 113.36 Q 20.584 112.432 21.32 111.296 Q 22.056 110.16 23 109.104 Q 23.944 108.048 25.048 107.36 Q 26.152 106.672 27.4 106.672 Q 28.616 106.672 29.032 107.376 Q 29.448 108.08 29.448 108.944 Q 29.448 109.552 29.32 110.256 Q 29.192 110.96 29.128 111.312 L 27.368 118.704 Q 27.368 118.704 27.32 118.944 Q 27.272 119.184 27.272 119.472 Q 27.272 120.08 27.88 120.08 Q 28.712 120.08 29.304 119.472 Q 29.896 118.864 30.28 118.416 L 30.92 118.896 Q 30.504 119.472 29.912 120.288 Q 29.32 121.104 28.504 121.712 Q 27.688 122.32 26.536 122.32 Q 25.32 122.32 24.872 121.728 Q 24.424 121.136 24.424 120.432 Q 24.424 120.048 24.488 119.68 Q 24.552 119.312 24.584 119.184 L 26.216 112.976 Q 26.376 112.336 26.552 111.552 Q 26.728 110.768 26.728 110.256 Q 26.728 109.712 26.52 109.344 Q 26.312 108.976 25.768 108.976 Q 25.16 108.976 24.408 109.584 Q 23.656 110.192 22.84 111.168 Q 22.024 112.144 21.272 113.312 Q 20.52 114.48 19.896 115.6 Q 19.272 116.72 18.92 117.584 Z " fill="black" /><path d="M 42.514 124.822 L 42.514 124.822 L 41.752 128.72 L 32.568 128.72 L 32.568 127.622 L 35.749 124.397 Q 37.003 123.142 37.821 122.179 Q 38.638 121.216 39.042 120.242 Q 39.445 119.267 39.445 118.013 Q 39.445 116.826 38.717 116.053 Q 37.989 115.28 36.667 115.28 Q 35.458 115.28 34.64 115.762 Q 33.822 116.243 33.195 117.341 L 32.59 117.05 Q 33.15 115.482 34.326 114.586 Q 35.502 113.69 37.227 113.69 Q 38.571 113.69 39.602 114.171 Q 40.632 114.653 41.214 115.549 Q 41.797 116.445 41.797 117.722 Q 41.797 118.819 41.304 119.782 Q 40.811 120.746 39.904 121.754 Q 38.997 122.762 37.742 123.994 L 34.942 126.704 L 34.942 126.861 L 36.69 126.771 L 39.602 126.771 Q 40.251 126.771 40.598 126.592 Q 40.946 126.413 41.192 125.976 Q 41.438 125.539 41.73 124.822 Z " fill="black" /></g><g><path d="M 17.896 22 L 17.896 22 L 15.24 22 Q 15.944 19.44 16.568 16.832 Q 17.192 14.224 17.768 11.6 Q 17.8 11.536 17.88 11.088 Q 17.96 10.64 17.96 10.256 Q 17.96 9.712 17.752 9.344 Q 17.544 8.976 17 8.976 Q 16.2 8.976 15.256 9.808 Q 14.312 10.64 13.368 11.952 Q 12.424 13.264 11.576 14.768 Q 10.728 16.272 10.12 17.616 L 9.128 22 L 6.504 22 L 9.064 9.84 Q 9.064 9.84 9.112 9.488 Q 9.16 9.136 9.16 8.784 Q 9.16 8.368 8.936 8.144 Q 8.712 7.92 8.136 7.92 Q 7.816 7.92 7.464 7.952 Q 7.112 7.984 7.112 7.984 L 7.112 7.12 L 11.528 6.768 L 12.264 6.768 L 10.664 13.712 L 10.92 13.712 Q 11.432 12.752 12.184 11.552 Q 12.936 10.352 13.912 9.232 Q 14.888 8.112 16.072 7.392 Q 17.256 6.672 18.632 6.672 Q 19.848 6.672 20.248 7.376 Q 20.648 8.08 20.648 8.944 Q 20.648 9.648 20.52 10.416 Q 20.392 11.184 20.36 11.312 L 19.816 13.36 L 20.072 13.36 Q 20.584 12.432 21.32 11.296 Q 22.056 10.16 23 9.104 Q 23.944 8.048 25.048 7.36 Q 26.152 6.672 27.4 6.672 Q 28.616 6.672 29.032 7.376 Q 29.448 8.08 29.448 8.944 Q 29.448 9.552 29.32 10.256 Q 29.192 10.96 29.128 11.312 L 27.368 18.704 Q 27.368 18.704 27.32 18.944 Q 27.272 19.184 27.272 19.472 Q 27.272 20.08 27.88 20.08 Q 28.712 20.08 29.304 19.472 Q 29.896 18.864 30.28 18.416 L 30.92 18.896 Q 30.504 19.472 29.912 20.288 Q 29.32 21.104 28.504 21.712 Q 27.688 22.32 26.536 22.32 Q 25.32 22.32 24.872 21.728 Q 24.424 21.136 24.424 20.432 Q 24.424 20.048 24.488 19.68 Q 24.552 19.312 24.584 19.184 L 26.216 12.976 Q 26.376 12.336 26.552 11.552 Q 26.728 10.768 26.728 10.256 Q 26.728 9.712 26.52 9.344 Q 26.312 8.976 25.768 8.976 Q 25.16 8.976 24.408 9.584 Q 23.656 10.192 22.84 11.168 Q 22.024 12.144 21.272 13.312 Q 20.52 14.48 19.896 15.6 Q 19.272 16.72 18.92 17.584 Z " fill="black" /><path d="M 41.237 28.72 L 41.237 28.72 L 33.643 28.72 L 33.643 27.914 Q 35.256 27.914 35.782 27.589 Q 36.309 27.264 36.309 26.413 L 36.309 16.646 Q 36.309 16.042 36.13 15.773 Q 35.95 15.504 35.48 15.504 Q 35.122 15.504 34.506 15.605 Q 33.89 15.706 33.442 15.818 L 33.442 14.922 L 37.586 13.779 L 38.549 13.779 L 38.549 26.413 Q 38.549 27.264 39.12 27.589 Q 39.691 27.914 41.237 27.914 Z " fill="black" /></g></svg>