<?xml version="1.0" encoding="UTF-8"?>
<!-- Created with Inkscape (http://www.inkscape.org/) -->
<svg width="279.23" height="176.68" version="1.1" viewBox="0 0 279.23 176.68" xmlns="http://www.w3.org/2000/svg">
 <g transform="translate(-23.167 -9.6229)">
  <g>
   <path d="m42.609 28.699v144.2h210.99v-1.4004h-209.59v-142.8z" color="#000000" style="-inkscape-stroke:none"/>
   <g fill-rule="evenodd">
    <path d="m256.02 172.2-3.633 2.1v-4.2z" color="#000000" style="-inkscape-stroke:none"/>
    <path d="m252.11 169.61v5.1699l4.4727-2.584zm0.5586 0.9707 2.793 1.6152-2.793 1.6152z" color="#000000" style="-inkscape-stroke:none"/>
    <path d="m43.31 26.276 2.1 3.633h-4.2z" color="#000000" style="-inkscape-stroke:none"/>
    <path d="m43.311 25.717-2.5859 4.4727h5.1699zm0 1.1191 1.6152 2.793h-3.2305z" color="#000000" style="-inkscape-stroke:none"/>
   </g>
  </g>
  <g stroke-miterlimit="3.2" stroke-width="1.1" style="paint-order:stroke fill markers" aria-label="L, м">
   <path d="m37.438 19.259h-7.2454l0.088-0.44q0.572 0 0.86534-0.10267 0.308-0.10267 0.46934-0.396 0.16133-0.29333 0.27867-0.88l1.2613-6.116q0.10267-0.484 0.07333-0.76267-0.02933-0.27867-0.308-0.38133-0.264-0.11733-0.89467-0.11733l0.088-0.44h4.1653l-0.07333 0.44q-0.528 0-0.88 0.10267-0.33733 0.088-0.54267 0.36667t-0.32267 0.80667l-1.3347 6.5707q-0.10267 0.484 0.10267 0.64534 0.20533 0.14667 0.85067 0.14667h0.68934q0.704 0 1.144-0.11733 0.44-0.132 0.748-0.396 0.308-0.264 0.572-0.704 0.27867-0.45467 0.616-1.0853h0.46934zm1.2027 1.8773-0.16133-0.33733q0.38133-0.19067 0.836-0.55733 0.45467-0.36667 0.67467-1.1147l-0.45467-0.45467 0.93867 0.16133q-0.396 0.308-0.77734 0.308-0.24933 0-0.51333-0.16133-0.24933-0.176-0.24933-0.58667 0-0.36667 0.24933-0.63067 0.264-0.27867 0.71867-0.27867t0.68934 0.308q0.24933 0.29333 0.24933 0.82134 0 0.55734-0.24933 0.98267-0.23467 0.42533-0.60134 0.73334-0.352 0.32267-0.71867 0.51333-0.36667 0.20533-0.63067 0.29333z"/>
   <path d="m48.629 19.259h-2.7867v-0.41067q0.46933 0 0.704-0.07333 0.23467-0.07333 0.308-0.32267 0.07333-0.24933 0.07333-0.77734v-3.9893q0-0.41067-0.07333-0.60134-0.07333-0.20533-0.308-0.264-0.22-0.07333-0.67467-0.07333v-0.42533h2.5373l2.244 5.0307h0.044l2.2293-5.0307h2.42v0.42533q-0.616 0-0.836 0.176-0.20533 0.16133-0.20533 0.77734v4.2387q0 0.54267 0.176 0.73334 0.19067 0.176 0.86534 0.176v0.41067h-3.2413v-0.41067q0.46933 0 0.66-0.07333 0.20533-0.07333 0.24933-0.264 0.05867-0.20533 0.05867-0.572v-4.3854h-0.044l-2.508 5.7053h-0.29333l-2.5813-5.6027h-0.05867v4.0187q0 0.528 0.07333 0.77734 0.088 0.24933 0.308 0.32267 0.23467 0.07333 0.66 0.07333z"/>
  </g>
  <path d="m263.94 168.63-2.3991 0.19188v0.4606s0.49901-0.0574 0.74851-0.0574c0.28787 0 0.40303 0.23041 0.40303 0.49901 0 0.32623-0.11508 0.72926-0.17256 0.90205l-0.32627 1.2475c-0.17258 0.67172-0.36468 1.5353-0.36468 2.3223 0 1.2667 0.47984 2.3606 2.1112 2.3606 2.9365 0 4.5487-3.5122 4.5487-5.9881 0-1.1707-0.49903-1.9768-1.2284-1.9768-0.34548 0-0.63333 0.2496-0.63333 0.69089 0 0.71017 0.99801 1.094 0.99801 2.2456 0 1.5162-0.94049 3.9728-3.186 3.9728-0.97885 0-1.2667-0.71016-1.2667-1.5546 0-0.74852 0.21109-1.6122 0.36459-2.1688l0.76779-3.1475z"/>
  <path d="m270.12 181.71q-0.56 0-0.952-0.24267-0.392-0.252-0.63466-0.68133-0.24267-0.42933-0.35467-0.98933t-0.112-1.176q0-0.88667 0.23333-1.5587 0.24267-0.68133 0.7-1.064 0.46667-0.38266 1.1387-0.38266 0.60666 0 1.064 0.364 0.45733 0.35466 0.71866 1.036 0.26134 0.672 0.26134 1.6333 0 0.59733-0.12134 1.148-0.112 0.55066-0.364 0.98-0.24266 0.42933-0.63466 0.68133t-0.94267 0.252zm0-0.336q0.55067 0 0.84933-0.66267 0.308-0.66266 0.308-2.0067 0-1.4187-0.29866-2.0907-0.28934-0.68133-0.868-0.68133-0.55067 0-0.84933 0.672-0.29867 0.672-0.29867 2.0627 0 1.3533 0.29867 2.0347 0.29866 0.672 0.85866 0.672z" stroke-miterlimit="3.2" stroke-width=".95064" style="paint-order:stroke fill markers" aria-label="0"/>
  <path d="m274.22 178.16-0.176-0.36667q0.27867-0.11733 0.55734-0.308 0.27866-0.176 0.46933-0.528t0.19067-0.93867q-0.23467 0.088-0.45467 0.088-0.42533 0-0.616-0.23467t-0.19067-0.55733q0-0.352 0.23467-0.60134 0.23467-0.264 0.67467-0.264 0.36666 0 0.616 0.16133 0.24933 0.14667 0.38133 0.44001 0.132 0.27866 0.132 0.68933 0 0.616-0.20533 1.0413-0.19067 0.42533-0.484 0.68933-0.29334 0.264-0.60134 0.42534-0.308 0.16133-0.528 0.264zm9.064-1.936h-2.7867v-0.41067q0.46934 0 0.704-0.0733 0.23467-0.0733 0.308-0.32267 0.0733-0.24933 0.0733-0.77733v-3.9893q0-0.41067-0.0733-0.60134-0.0733-0.20533-0.308-0.264-0.22-0.0733-0.67467-0.0733v-0.42534h2.5373l2.244 5.0307h0.044l2.2293-5.0307h2.42v0.42534q-0.616 0-0.836 0.176-0.20533 0.16133-0.20533 0.77733v4.2387q0 0.54267 0.176 0.73333 0.19067 0.176 0.86533 0.176v0.41067h-3.2413v-0.41067q0.46934 0 0.66-0.0733 0.20534-0.0733 0.24934-0.264 0.0587-0.20533 0.0587-0.572v-4.3853h-0.044l-2.508 5.7053h-0.29334l-2.5813-5.6027h-0.0587v4.0187q0 0.528 0.0733 0.77733 0.088 0.24934 0.308 0.32267 0.23467 0.0733 0.66 0.0733zm8.5214 1.3053h-0.82133l3.828-11.704h0.80667zm10.311-3.476 0.27867 0.20533q-0.27867 0.58667-0.64533 1.0707-0.35201 0.484-0.88001 0.76267t-1.32 0.27867q-0.90934 0-1.5693-0.44t-1.012-1.2173q-0.352-0.792-0.352-1.804 0-1.1587 0.38133-2.0093 0.39601-0.85067 1.1293-1.32 0.748-0.46934 1.804-0.46934 1.0413 0 1.628 0.45467 0.60133 0.45467 0.60133 1.1 0 0.32267-0.16133 0.49867-0.14667 0.16133-0.45467 0.16133-0.32267 0-0.49867-0.16133-0.16133-0.176-0.264-0.42533-0.10266-0.24934-0.22-0.49867-0.10266-0.24934-0.308-0.41067-0.19067-0.176-0.572-0.176-0.89467 0-1.408 0.66-0.49867 0.64534-0.49867 1.9067 0 1.3347 0.54267 2.2 0.55733 0.85067 1.6867 0.85067 0.71867 0 1.1587-0.29334 0.45467-0.29333 0.95333-0.924z" stroke-miterlimit="3.2" stroke-width="1.1" style="paint-order:stroke fill markers" aria-label=", м/с"/>
  <g>
   <circle cx="97.376" cy="158.05" r=".66849"/>
   <circle cx="115.58" cy="146.19" r=".66849"/>
   <circle cx="110.25" cy="152.27" r=".66849"/>
   <circle cx="109.19" cy="136.34" r=".66849"/>
   <circle cx="110.97" cy="156.29" r=".66849"/>
   <circle cx="120.76" cy="154.76" r=".66849"/>
   <circle cx="118.56" cy="150.33" r=".66849"/>
   <circle cx="115.5" cy="155.49" r=".66849"/>
   <circle cx="107.09" cy="163.3" r=".66849"/>
   <circle cx="110.64" cy="163.31" r=".66849"/>
   <circle cx="112.07" cy="145.73" r=".66849"/>
   <circle cx="103.66" cy="140.15" r=".66849"/>
   <circle cx="108.2" cy="142.93" r=".66849"/>
   <circle cx="122.65" cy="145.93" r=".66849"/>
   <circle cx="124.25" cy="149.52" r=".66849"/>
   <circle cx="110.55" cy="139.94" r=".66849"/>
   <circle cx="113.65" cy="163.33" r=".66849"/>
   <circle cx="120.11" cy="156.61" r=".66849"/>
   <circle cx="118.27" cy="146.97" r=".66849"/>
   <circle cx="109.23" cy="154.57" r=".66849"/>
   <circle cx="123.7" cy="141.35" r=".66849"/>
   <circle cx="128.97" cy="149.05" r=".66849"/>
   <circle cx="96.919" cy="144.22" r=".66849"/>
   <circle cx="109.4" cy="149.47" r=".66849"/>
   <circle cx="111.15" cy="147.65" r=".66849"/>
   <circle cx="115.67" cy="150.85" r=".66849"/>
   <circle cx="94.886" cy="144.82" r=".66849"/>
   <circle cx="101.37" cy="147.24" r=".66849"/>
   <circle cx="102.66" cy="154.18" r=".66849"/>
   <circle cx="96.118" cy="144.56" r=".66849"/>
   <circle cx="114.4" cy="155.15" r=".66849"/>
   <circle cx="96.308" cy="146.04" r=".66849"/>
   <circle cx="99.416" cy="138.35" r=".66849"/>
   <circle cx="104.02" cy="154.21" r=".66849"/>
   <circle cx="102.21" cy="143.97" r=".66849"/>
   <circle cx="104.87" cy="160.87" r=".66849"/>
   <circle cx="106.33" cy="150.44" r=".66849"/>
   <circle cx="128.44" cy="162.07" r=".66849"/>
   <circle cx="117.24" cy="151.71" r=".66849"/>
   <circle cx="128.18" cy="160.88" r=".66849"/>
   <circle cx="99.291" cy="148.94" r=".66849"/>
   <circle cx="119.37" cy="153.11" r=".66849"/>
   <circle cx="106.92" cy="161.34" r=".66849"/>
   <circle cx="112.8" cy="135.94" r=".66849"/>
   <circle cx="124.18" cy="138.99" r=".66849"/>
   <circle cx="133.82" cy="156.88" r=".66849"/>
   <circle cx="125.24" cy="148.13" r=".66849"/>
   <circle cx="128.62" cy="144.03" r=".66849"/>
   <circle cx="114.57" cy="140.64" r=".66849"/>
   <circle cx="111.84" cy="144.11" r=".66849"/>
   <circle cx="118.3" cy="140.55" r=".66849"/>
   <circle cx="108.87" cy="158.4" r=".66849"/>
   <circle cx="127.49" cy="134.38" r=".66849"/>
   <circle cx="112.71" cy="153.82" r=".66849"/>
   <circle cx="115.57" cy="146.64" r=".66849"/>
   <circle cx="100.68" cy="141.76" r=".66849"/>
   <circle cx="110.87" cy="159.81" r=".66849"/>
   <circle cx="115.85" cy="144.88" r=".66849"/>
   <circle cx="104.26" cy="139.54" r=".66849"/>
   <circle cx="106.4" cy="156.74" r=".66849"/>
   <circle cx="114.57" cy="144.09" r=".66849"/>
   <circle cx="107.46" cy="152.65" r=".66849"/>
   <circle cx="119.83" cy="141.03" r=".66849"/>
   <circle cx="102.69" cy="148.84" r=".66849"/>
   <circle cx="124.22" cy="146.46" r=".66849"/>
   <circle cx="105.1" cy="132.59" r=".66849"/>
   <circle cx="119.14" cy="136.34" r=".66849"/>
   <circle cx="119.19" cy="128.57" r=".66849"/>
   <circle cx="123.59" cy="131.77" r=".66849"/>
   <circle cx="107.61" cy="151.4" r=".66849"/>
   <circle cx="124.87" cy="129.79" r=".66849"/>
   <circle cx="112.64" cy="153.6" r=".66849"/>
   <circle cx="126.19" cy="150.93" r=".66849"/>
   <circle cx="103.71" cy="136.06" r=".66849"/>
   <circle cx="132.7" cy="145.06" r=".66849"/>
   <circle cx="101.75" cy="146.76" r=".66849"/>
   <circle cx="119.75" cy="139.41" r=".66849"/>
   <circle cx="113.71" cy="152.42" r=".66849"/>
   <circle cx="121.97" cy="145.8" r=".66849"/>
   <circle cx="116.93" cy="155.6" r=".66849"/>
   <circle cx="119.84" cy="157.6" r=".66849"/>
   <circle cx="116.7" cy="132.65" r=".66849"/>
   <circle cx="122.39" cy="142.36" r=".66849"/>
   <circle cx="114.03" cy="147.54" r=".66849"/>
   <circle cx="106.83" cy="138.58" r=".66849"/>
   <circle cx="129.05" cy="145.21" r=".66849"/>
   <circle cx="112.76" cy="151.3" r=".66849"/>
   <circle cx="118.08" cy="128.74" r=".66849"/>
   <circle cx="112.94" cy="154.2" r=".66849"/>
   <circle cx="119.22" cy="145.82" r=".66849"/>
   <circle cx="132.9" cy="152.87" r=".66849"/>
   <circle cx="117.27" cy="164.94" r=".66849"/>
   <circle cx="110.56" cy="157.27" r=".66849"/>
   <circle cx="126.57" cy="152.85" r=".66849"/>
   <circle cx="123.09" cy="153.2" r=".66849"/>
   <circle cx="113.82" cy="155.45" r=".66849"/>
   <circle cx="119.15" cy="164.34" r=".66849"/>
   <circle cx="112.34" cy="146.44" r=".66849"/>
   <circle cx="118.09" cy="168.09" r=".66849"/>
   <circle cx="116.65" cy="147.53" r=".66849"/>
   <circle cx="116.78" cy="154.46" r=".66849"/>
   <circle cx="123.12" cy="156.99" r=".66849"/>
   <circle cx="109.72" cy="159.16" r=".66849"/>
   <circle cx="116.65" cy="167.94" r=".66849"/>
   <circle cx="106.73" cy="166.3" r=".66849"/>
   <circle cx="102.71" cy="153.65" r=".66849"/>
   <circle cx="109.4" cy="163.01" r=".66849"/>
   <circle cx="111.45" cy="163.61" r=".66849"/>
   <circle cx="118.01" cy="149.89" r=".66849"/>
   <circle cx="119.97" cy="164.84" r=".66849"/>
   <circle cx="117.61" cy="159.75" r=".66849"/>
   <circle cx="113.23" cy="168.22" r=".66849"/>
   <circle cx="111.6" cy="160.56" r=".66849"/>
   <circle cx="118.96" cy="162.04" r=".66849"/>
   <circle cx="106.2" cy="166.72" r=".66849"/>
   <circle cx="112.79" cy="165.39" r=".66849"/>
   <circle cx="120.13" cy="156.05" r=".66849"/>
   <circle cx="121.87" cy="157.89" r=".66849"/>
   <circle cx="99.31" cy="148.15" r=".66849"/>
   <circle cx="115.95" cy="151" r=".66849"/>
   <circle cx="111.5" cy="137.13" r=".66849"/>
   <circle cx="110.02" cy="158.09" r=".66849"/>
   <circle cx="116.67" cy="153.67" r=".66849"/>
   <circle cx="109.64" cy="149.71" r=".66849"/>
   <circle cx="118.96" cy="134.64" r=".66849"/>
   <circle cx="106.89" cy="131.74" r=".66849"/>
   <circle cx="106.28" cy="132.62" r=".66849"/>
   <circle cx="125.77" cy="137.88" r=".66849"/>
   <circle cx="114.27" cy="129.06" r=".66849"/>
   <circle cx="110.11" cy="138.57" r=".66849"/>
   <circle cx="123.78" cy="130.43" r=".66849"/>
   <circle cx="112.84" cy="132.35" r=".66849"/>
   <circle cx="104.06" cy="151.83" r=".66849"/>
   <circle cx="110.29" cy="152.85" r=".66849"/>
   <circle cx="113.66" cy="144.7" r=".66849"/>
   <circle cx="96.917" cy="136.26" r=".66849"/>
   <circle cx="110.85" cy="141.93" r=".66849"/>
   <circle cx="112.27" cy="141.01" r=".66849"/>
   <circle cx="116.21" cy="153.41" r=".66849"/>
   <circle cx="104.27" cy="155.91" r=".66849"/>
   <circle cx="96.748" cy="148.54" r=".66849"/>
   <circle cx="107.93" cy="139.54" r=".66849"/>
   <circle cx="101.33" cy="137.08" r=".66849"/>
   <circle cx="95.121" cy="152.26" r=".66849"/>
   <circle cx="100.26" cy="152.31" r=".66849"/>
   <circle cx="114.25" cy="148.16" r=".66849"/>
   <circle cx="106.23" cy="159.76" r=".66849"/>
   <circle cx="105.46" cy="131.76" r=".66849"/>
   <circle cx="114.47" cy="130.95" r=".66849"/>
   <circle cx="121.53" cy="134.88" r=".66849"/>
   <circle cx="112.57" cy="152.32" r=".66849"/>
   <circle cx="118.74" cy="140.79" r=".66849"/>
   <circle cx="113.92" cy="148.86" r=".66849"/>
   <circle cx="111.97" cy="132.24" r=".66849"/>
   <circle cx="109.16" cy="156.31" r=".66849"/>
   <circle cx="110.52" cy="147.81" r=".66849"/>
   <circle cx="104.55" cy="142.06" r=".66849"/>
   <circle cx="120.92" cy="135.87" r=".66849"/>
   <circle cx="126.2" cy="132.71" r=".66849"/>
   <circle cx="104.3" cy="149.71" r=".66849"/>
   <circle cx="109.94" cy="160.34" r=".66849"/>
   <circle cx="110.97" cy="137.75" r=".66849"/>
   <circle cx="131.56" cy="148.23" r=".66849"/>
   <circle cx="107.5" cy="142.62" r=".66849"/>
   <circle cx="105.66" cy="145.22" r=".66849"/>
   <circle cx="122.98" cy="143.43" r=".66849"/>
   <circle cx="118.05" cy="158.78" r=".66849"/>
   <circle cx="107.73" cy="147.98" r=".66849"/>
   <circle cx="121.71" cy="146.79" r=".66849"/>
   <circle cx="117.76" cy="165.4" r=".66849"/>
   <circle cx="125.19" cy="149.4" r=".66849"/>
   <circle cx="124.34" cy="154.57" r=".66849"/>
   <circle cx="128.62" cy="139.48" r=".66849"/>
   <circle cx="118.37" cy="163.37" r=".66849"/>
   <circle cx="122.75" cy="164.62" r=".66849"/>
   <circle cx="119.02" cy="156.7" r=".66849"/>
   <circle cx="118.77" cy="147.06" r=".66849"/>
   <circle cx="113.86" cy="141.01" r=".66849"/>
   <circle cx="109.95" cy="135.68" r=".66849"/>
   <circle cx="113.59" cy="154.69" r=".66849"/>
   <circle cx="111.71" cy="165.25" r=".66849"/>
   <circle cx="130.14" cy="156.88" r=".66849"/>
   <circle cx="125.2" cy="140.46" r=".66849"/>
   <circle cx="119.83" cy="162.05" r=".66849"/>
   <circle cx="136.32" cy="145.74" r=".66849"/>
   <circle cx="120.66" cy="140.12" r=".66849"/>
   <circle cx="123.83" cy="135.24" r=".66849"/>
   <circle cx="126.15" cy="133.7" r=".66849"/>
   <circle cx="128.36" cy="136.58" r=".66849"/>
   <circle cx="121.42" cy="145.63" r=".66849"/>
   <circle cx="134.98" cy="147.75" r=".66849"/>
   <circle cx="113.74" cy="148.08" r=".66849"/>
   <circle cx="130.99" cy="137.17" r=".66849"/>
   <circle cx="116.38" cy="145.76" r=".66849"/>
   <circle cx="121.25" cy="150.81" r=".66849"/>
   <circle cx="108.21" cy="146.6" r=".66849"/>
   <circle cx="107.61" cy="142.06" r=".66849"/>
   <circle cx="120.88" cy="146.33" r=".66849"/>
   <circle cx="124.07" cy="132.98" r=".66849"/>
   <circle cx="142.78" cy="137.96" r=".66849"/>
   <circle cx="125" cy="121.61" r=".66849"/>
   <circle cx="123.96" cy="126.88" r=".66849"/>
   <circle cx="127.6" cy="111.37" r=".66849"/>
   <circle cx="171.53" cy="92.866" r=".66849"/>
   <circle cx="159.29" cy="94.121" r=".66849"/>
   <circle cx="177.25" cy="65.175" r=".66849"/>
   <circle cx="173.08" cy="55.897" r=".66849"/>
   <circle cx="184.18" cy="72.397" r=".66849"/>
   <circle cx="186.88" cy="64.65" r=".66849"/>
   <circle cx="171.23" cy="49.869" r=".66849"/>
   <circle cx="174.83" cy="40.296" r=".66849"/>
   <circle cx="183.12" cy="61.441" r=".66849"/>
   <circle cx="186.63" cy="50.918" r=".66849"/>
   <circle cx="173.11" cy="60.979" r=".66849"/>
   <circle cx="185.28" cy="69.267" r=".66849"/>
   <circle cx="177.68" cy="62.233" r=".66849"/>
   <circle cx="143.02" cy="101.04" r=".66849"/>
   <circle cx="163.03" cy="108.84" r=".66849"/>
   <circle cx="140.74" cy="106.74" r=".66849"/>
   <circle cx="158.64" cy="115.28" r=".66849"/>
   <circle cx="156.14" cy="108.52" r=".66849"/>
   <circle cx="141.35" cy="115.05" r=".66849"/>
   <circle cx="142.69" cy="120.57" r=".66849"/>
   <circle cx="157.81" cy="114.6" r=".66849"/>
   <circle cx="193.55" cy="54.405" r=".66849"/>
   <circle cx="173.7" cy="48.245" r=".66849"/>
   <circle cx="176.94" cy="46.593" r=".66849"/>
   <circle cx="175.44" cy="58.756" r=".66849"/>
   <circle cx="170.27" cy="70.273" r=".66849"/>
   <circle cx="173.8" cy="62.652" r=".66849"/>
   <circle cx="162.28" cy="47.695" r=".66849"/>
   <circle cx="170.88" cy="54.796" r=".66849"/>
   <circle cx="168.88" cy="44.958" r=".66849"/>
   <circle cx="162.56" cy="63.682" r=".66849"/>
   <circle cx="177.44" cy="63.625" r=".66849"/>
   <circle cx="160" cy="59.786" r=".66849"/>
   <circle cx="164.17" cy="69.812" r=".66849"/>
   <circle cx="175.93" cy="64.014" r=".66849"/>
   <circle cx="164.68" cy="56.461" r=".66849"/>
   <circle cx="163.31" cy="53.179" r=".66849"/>
   <circle cx="170.46" cy="67.796" r=".66849"/>
   <circle cx="167.23" cy="60.557" r=".66849"/>
   <circle cx="161.96" cy="66.384" r=".66849"/>
   <circle cx="177" cy="64.545" r=".66849"/>
   <circle cx="170.84" cy="68.676" r=".66849"/>
   <circle cx="158.79" cy="74.196" r=".66849"/>
   <circle cx="164.41" cy="44.42" r=".66849"/>
   <circle cx="168.16" cy="52.428" r=".66849"/>
   <circle cx="159.67" cy="45.286" r=".66849"/>
   <circle cx="171.93" cy="67.333" r=".66849"/>
   <circle cx="153.54" cy="66.244" r=".66849"/>
   <circle cx="154.3" cy="54.681" r=".66849"/>
   <circle cx="157.69" cy="61.719" r=".66849"/>
   <circle cx="162.06" cy="63.41" r=".66849"/>
   <circle cx="154.27" cy="68.465" r=".66849"/>
   <circle cx="162.39" cy="49.308" r=".66849"/>
   <circle cx="167.93" cy="67.749" r=".66849"/>
   <circle cx="158.26" cy="68.899" r=".66849"/>
   <circle cx="168.79" cy="61.939" r=".66849"/>
   <circle cx="170.54" cy="63.194" r=".66849"/>
   <circle cx="162.63" cy="58.064" r=".66849"/>
   <circle cx="165.61" cy="58.408" r=".66849"/>
   <circle cx="171.46" cy="63.062" r=".66849"/>
   <circle cx="175.57" cy="56.146" r=".66849"/>
   <circle cx="168.96" cy="78.31" r=".66849"/>
   <circle cx="168.35" cy="64.673" r=".66849"/>
   <circle cx="173.27" cy="75.832" r=".66849"/>
   <circle cx="174.43" cy="47.563" r=".66849"/>
   <circle cx="167.11" cy="51.859" r=".66849"/>
   <circle cx="184.15" cy="49.594" r=".66849"/>
   <circle cx="169.75" cy="55.537" r=".66849"/>
   <circle cx="180.6" cy="72.602" r=".66849"/>
   <circle cx="179.97" cy="56.16" r=".66849"/>
   <circle cx="166.98" cy="52.209" r=".66849"/>
   <circle cx="160.8" cy="69.096" r=".66849"/>
   <circle cx="170.98" cy="49.067" r=".66849"/>
   <circle cx="173.93" cy="76.363" r=".66849"/>
   <circle cx="186.81" cy="62.695" r=".66849"/>
   <circle cx="169.79" cy="81.286" r=".66849"/>
   <circle cx="174.78" cy="73.369" r=".66849"/>
   <circle cx="167.27" cy="81.739" r=".66849"/>
   <circle cx="193.09" cy="71.603" r=".66849"/>
   <circle cx="162.57" cy="68.589" r=".66849"/>
   <circle cx="182.34" cy="69.541" r=".66849"/>
   <circle cx="160.57" cy="67.573" r=".66849"/>
   <circle cx="163.79" cy="88.438" r=".66849"/>
   <circle cx="180.75" cy="76.421" r=".66849"/>
   <circle cx="174.47" cy="67.755" r=".66849"/>
   <circle cx="149.15" cy="85.813" r=".66849"/>
   <circle cx="155.23" cy="87.616" r=".66849"/>
   <circle cx="165.98" cy="58.486" r=".66849"/>
   <circle cx="168.67" cy="75.647" r=".66849"/>
   <circle cx="150.43" cy="74.988" r=".66849"/>
   <circle cx="151.18" cy="64.209" r=".66849"/>
   <circle cx="161.88" cy="55.12" r=".66849"/>
   <circle cx="144.75" cy="63.933" r=".66849"/>
   <circle cx="144.57" cy="68.118" r=".66849"/>
   <circle cx="163.43" cy="79.447" r=".66849"/>
   <circle cx="140.66" cy="57.128" r=".66849"/>
   <circle cx="171.56" cy="55.89" r=".66849"/>
   <circle cx="160.17" cy="47.815" r=".66849"/>
   <circle cx="167.6" cy="56.18" r=".66849"/>
   <circle cx="161.31" cy="52.464" r=".66849"/>
   <circle cx="171.16" cy="63.132" r=".66849"/>
   <circle cx="166.65" cy="58.568" r=".66849"/>
   <circle cx="156.17" cy="45.954" r=".66849"/>
   <circle cx="150.7" cy="48.142" r=".66849"/>
   <circle cx="175.93" cy="52.866" r=".66849"/>
   <circle cx="162.58" cy="59.179" r=".66849"/>
   <circle cx="164.96" cy="61.471" r=".66849"/>
   <circle cx="156.63" cy="43.743" r=".66849"/>
   <circle cx="184.25" cy="51.315" r=".66849"/>
   <circle cx="162.17" cy="68.038" r=".66849"/>
   <circle cx="168.99" cy="51.474" r=".66849"/>
   <circle cx="173.57" cy="56.066" r=".66849"/>
   <circle cx="190.16" cy="62.504" r=".66849"/>
   <circle cx="174.84" cy="70.568" r=".66849"/>
   <circle cx="167.23" cy="47.846" r=".66849"/>
   <circle cx="177.87" cy="56.999" r=".66849"/>
   <circle cx="185.67" cy="51.811" r=".66849"/>
   <circle cx="176.61" cy="43.441" r=".66849"/>
   <circle cx="184.47" cy="63.427" r=".66849"/>
   <circle cx="179" cy="72.033" r=".66849"/>
   <circle cx="183.28" cy="46.564" r=".66849"/>
   <circle cx="176.25" cy="62.679" r=".66849"/>
   <circle cx="172.72" cy="65.067" r=".66849"/>
   <circle cx="162.74" cy="68.954" r=".66849"/>
   <circle cx="162.76" cy="66.028" r=".66849"/>
   <circle cx="169.94" cy="67.219" r=".66849"/>
   <circle cx="162.94" cy="62.221" r=".66849"/>
   <circle cx="172.74" cy="79.696" r=".66849"/>
   <circle cx="157.39" cy="65.218" r=".66849"/>
   <circle cx="167.68" cy="61.287" r=".66849"/>
   <circle cx="179.87" cy="58.803" r=".66849"/>
   <circle cx="166.84" cy="67.814" r=".66849"/>
   <circle cx="170.76" cy="75.286" r=".66849"/>
   <circle cx="164.01" cy="56.342" r=".66849"/>
   <circle cx="149.84" cy="60.886" r=".66849"/>
   <circle cx="162.01" cy="82.052" r=".66849"/>
   <circle cx="164.61" cy="58.932" r=".66849"/>
   <circle cx="173.72" cy="59.499" r=".66849"/>
   <circle cx="166.19" cy="59.886" r=".66849"/>
   <circle cx="165.82" cy="63.323" r=".66849"/>
   <circle cx="156.53" cy="83.531" r=".66849"/>
   <circle cx="160.63" cy="64.946" r=".66849"/>
   <circle cx="159.33" cy="81.575" r=".66849"/>
   <circle cx="177.44" cy="80.971" r=".66849"/>
   <circle cx="169.83" cy="69.835" r=".66849"/>
   <circle cx="171.62" cy="60.665" r=".66849"/>
   <circle cx="183.27" cy="67.226" r=".66849"/>
   <circle cx="170.73" cy="81.593" r=".66849"/>
   <circle cx="176" cy="81.728" r=".66849"/>
   <circle cx="168.53" cy="58.014" r=".66849"/>
   <circle cx="161.94" cy="71.151" r=".66849"/>
   <circle cx="186.1" cy="62.317" r=".66849"/>
   <circle cx="178.64" cy="75.088" r=".66849"/>
   <circle cx="189.25" cy="68.995" r=".66849"/>
   <circle cx="168.02" cy="73.577" r=".66849"/>
   <circle cx="176.62" cy="71.588" r=".66849"/>
   <circle cx="177.52" cy="57.338" r=".66849"/>
   <circle cx="171.72" cy="72.953" r=".66849"/>
   <circle cx="175.02" cy="46.372" r=".66849"/>
   <circle cx="175.19" cy="71.682" r=".66849"/>
   <circle cx="169.7" cy="59.972" r=".66849"/>
   <circle cx="169.37" cy="61.574" r=".66849"/>
   <circle cx="163.01" cy="48.688" r=".66849"/>
   <circle cx="161.44" cy="45.4" r=".66849"/>
   <circle cx="162.22" cy="56.897" r=".66849"/>
   <circle cx="160.06" cy="52.806" r=".66849"/>
   <circle cx="170.18" cy="73.68" r=".66849"/>
   <circle cx="156.59" cy="61.752" r=".66849"/>
   <circle cx="161.01" cy="69.923" r=".66849"/>
   <circle cx="154.31" cy="67.218" r=".66849"/>
   <circle cx="173.16" cy="57.998" r=".66849"/>
   <circle cx="165.25" cy="55.641" r=".66849"/>
   <circle cx="155.46" cy="62.32" r=".66849"/>
   <circle cx="172.61" cy="70.201" r=".66849"/>
   <circle cx="166.21" cy="61.143" r=".66849"/>
   <circle cx="168.24" cy="71.995" r=".66849"/>
   <circle cx="173.73" cy="77.369" r=".66849"/>
   <circle cx="157.58" cy="58.771" r=".66849"/>
   <circle cx="172.47" cy="87.461" r=".66849"/>
   <circle cx="174.5" cy="81.981" r=".66849"/>
   <circle cx="159.03" cy="77.441" r=".66849"/>
   <circle cx="173.24" cy="67.835" r=".66849"/>
   <circle cx="179.95" cy="75.192" r=".66849"/>
   <circle cx="154.28" cy="68.779" r=".66849"/>
   <circle cx="164.19" cy="84.349" r=".66849"/>
   <circle cx="169.09" cy="61.693" r=".66849"/>
   <circle cx="166.49" cy="78.233" r=".66849"/>
   <circle cx="175.64" cy="62.293" r=".66849"/>
   <circle cx="184.53" cy="69.143" r=".66849"/>
   <circle cx="186.97" cy="78.152" r=".66849"/>
   <circle cx="164.57" cy="69.596" r=".66849"/>
   <circle cx="181.13" cy="56.255" r=".66849"/>
   <circle cx="169.01" cy="65.838" r=".66849"/>
   <circle cx="173.52" cy="49.934" r=".66849"/>
   <circle cx="191.47" cy="59.47" r=".66849"/>
   <circle cx="168.01" cy="46.985" r=".66849"/>
   <circle cx="189.06" cy="63.891" r=".66849"/>
   <circle cx="172.62" cy="54.227" r=".66849"/>
   <circle cx="178.57" cy="72.449" r=".66849"/>
   <circle cx="177.98" cy="66.861" r=".66849"/>
   <circle cx="181.68" cy="73.912" r=".66849"/>
   <circle cx="176.79" cy="61.434" r=".66849"/>
   <circle cx="178.6" cy="71.76" r=".66849"/>
   <circle cx="181.67" cy="71.488" r=".66849"/>
   <circle cx="187.31" cy="68.664" r=".66849"/>
   <circle cx="178.53" cy="62.397" r=".66849"/>
   <circle cx="177.46" cy="62.967" r=".66849"/>
   <circle cx="163.25" cy="83.557" r=".66849"/>
   <circle cx="161.1" cy="79.483" r=".66849"/>
   <circle cx="173.36" cy="64.224" r=".66849"/>
   <circle cx="160.54" cy="72.068" r=".66849"/>
   <circle cx="163.23" cy="80.276" r=".66849"/>
   <circle cx="161.94" cy="70.532" r=".66849"/>
   <circle cx="163.34" cy="71.141" r=".66849"/>
   <circle cx="152.41" cy="72.388" r=".66849"/>
   <circle cx="176.17" cy="77.022" r=".66849"/>
   <circle cx="145.45" cy="79.426" r=".66849"/>
   <circle cx="156.43" cy="69.944" r=".66849"/>
   <circle cx="158.97" cy="60.525" r=".66849"/>
   <circle cx="152.07" cy="74.893" r=".66849"/>
   <circle cx="164.37" cy="83.236" r=".66849"/>
   <circle cx="154.78" cy="67.44" r=".66849"/>
   <circle cx="165.4" cy="71.917" r=".66849"/>
   <circle cx="159.33" cy="67.494" r=".66849"/>
   <circle cx="159.45" cy="83.851" r=".66849"/>
   <circle cx="166" cy="60.45" r=".66849"/>
   <circle cx="165.36" cy="68.95" r=".66849"/>
   <circle cx="172.56" cy="73.55" r=".66849"/>
   <circle cx="173.46" cy="66.582" r=".66849"/>
   <circle cx="177.77" cy="68.118" r=".66849"/>
   <circle cx="161.79" cy="69.714" r=".66849"/>
   <circle cx="168.54" cy="75.836" r=".66849"/>
   <circle cx="174.76" cy="68.168" r=".66849"/>
   <circle cx="181.04" cy="55.743" r=".66849"/>
   <circle cx="170.15" cy="57.687" r=".66849"/>
   <circle cx="168.4" cy="74.019" r=".66849"/>
   <circle cx="174.79" cy="69.444" r=".66849"/>
   <circle cx="170.79" cy="70.366" r=".66849"/>
   <circle cx="158.18" cy="64.645" r=".66849"/>
   <circle cx="177.88" cy="60.545" r=".66849"/>
   <circle cx="176.08" cy="62.389" r=".66849"/>
   <circle cx="159.78" cy="84.314" r=".66849"/>
   <circle cx="172.26" cy="85.549" r=".66849"/>
   <circle cx="165.53" cy="75.542" r=".66849"/>
   <circle cx="168.23" cy="69.155" r=".66849"/>
   <circle cx="161.38" cy="61.879" r=".66849"/>
   <circle cx="157.25" cy="86.457" r=".66849"/>
   <circle cx="164.12" cy="67.453" r=".66849"/>
   <circle cx="166" cy="75.89" r=".66849"/>
   <circle cx="168.3" cy="84.564" r=".66849"/>
   <circle cx="154.49" cy="96.583" r=".66849"/>
   <circle cx="144.9" cy="81.818" r=".66849"/>
   <circle cx="164.57" cy="90.641" r=".66849"/>
   <circle cx="145.3" cy="89.258" r=".66849"/>
   <circle cx="167.88" cy="78.532" r=".66849"/>
   <circle cx="157.13" cy="79.215" r=".66849"/>
   <circle cx="169.85" cy="81.712" r=".66849"/>
   <circle cx="156.14" cy="83.941" r=".66849"/>
   <circle cx="141.87" cy="69.492" r=".66849"/>
   <circle cx="141.99" cy="84.08" r=".66849"/>
   <circle cx="156.52" cy="68.496" r=".66849"/>
   <circle cx="153.16" cy="86.853" r=".66849"/>
   <circle cx="142.72" cy="68.022" r=".66849"/>
   <circle cx="158.17" cy="84.299" r=".66849"/>
   <circle cx="160.72" cy="80.319" r=".66849"/>
   <circle cx="159.37" cy="65.332" r=".66849"/>
   <circle cx="158.11" cy="77.06" r=".66849"/>
   <circle cx="165.25" cy="82.87" r=".66849"/>
   <circle cx="161.43" cy="72.446" r=".66849"/>
   <circle cx="146.51" cy="72.767" r=".66849"/>
   <circle cx="143.5" cy="82.071" r=".66849"/>
   <circle cx="160.42" cy="85.067" r=".66849"/>
   <circle cx="148.15" cy="80.539" r=".66849"/>
   <circle cx="146.67" cy="85.558" r=".66849"/>
   <circle cx="152.36" cy="77.188" r=".66849"/>
   <circle cx="158.73" cy="65.392" r=".66849"/>
   <circle cx="141.48" cy="78.153" r=".66849"/>
   <circle cx="136.87" cy="69.032" r=".66849"/>
   <circle cx="155.58" cy="82.398" r=".66849"/>
   <circle cx="150.44" cy="69.655" r=".66849"/>
   <circle cx="145.39" cy="68.666" r=".66849"/>
   <circle cx="171.33" cy="65.778" r=".66849"/>
   <circle cx="147.29" cy="57.174" r=".66849"/>
   <circle cx="159.8" cy="58.79" r=".66849"/>
   <circle cx="161.77" cy="58.552" r=".66849"/>
   <circle cx="176.41" cy="71.688" r=".66849"/>
   <circle cx="158.97" cy="61.505" r=".66849"/>
   <circle cx="173.65" cy="57.532" r=".66849"/>
   <circle cx="174.44" cy="74.402" r=".66849"/>
   <circle cx="187.81" cy="71.333" r=".66849"/>
   <circle cx="190.51" cy="68.522" r=".66849"/>
   <circle cx="186.37" cy="56.957" r=".66849"/>
   <circle cx="178.2" cy="67.224" r=".66849"/>
   <circle cx="166.09" cy="68.339" r=".66849"/>
   <circle cx="187.58" cy="66.113" r=".66849"/>
   <circle cx="182.35" cy="55.889" r=".66849"/>
   <circle cx="180.65" cy="72.704" r=".66849"/>
   <circle cx="179.76" cy="43.651" r=".66849"/>
   <circle cx="194.52" cy="54.053" r=".66849"/>
   <circle cx="178.14" cy="69.452" r=".66849"/>
   <circle cx="171.98" cy="66.216" r=".66849"/>
   <circle cx="188.17" cy="45.623" r=".66849"/>
   <circle cx="165.88" cy="57.337" r=".66849"/>
   <circle cx="171.85" cy="60.797" r=".66849"/>
   <circle cx="171.97" cy="55.365" r=".66849"/>
   <circle cx="171.99" cy="49.656" r=".66849"/>
   <circle cx="179.55" cy="68.418" r=".66849"/>
   <circle cx="171.63" cy="68.05" r=".66849"/>
   <circle cx="173.06" cy="59.407" r=".66849"/>
   <circle cx="181.88" cy="41.642" r=".66849"/>
   <circle cx="172.75" cy="65.581" r=".66849"/>
   <circle cx="172.69" cy="51.718" r=".66849"/>
   <circle cx="175.41" cy="42.063" r=".66849"/>
   <circle cx="149.33" cy="58.306" r=".66849"/>
   <circle cx="156.4" cy="50.36" r=".66849"/>
   <circle cx="159.4" cy="51.242" r=".66849"/>
   <circle cx="161.8" cy="55.213" r=".66849"/>
   <circle cx="170.68" cy="56.892" r=".66849"/>
   <circle cx="166.44" cy="54.599" r=".66849"/>
   <circle cx="160.76" cy="57.725" r=".66849"/>
   <circle cx="149.98" cy="60.054" r=".66849"/>
   <circle cx="152.17" cy="75.015" r=".66849"/>
   <circle cx="155.11" cy="68.559" r=".66849"/>
   <circle cx="155.66" cy="47.59" r=".66849"/>
   <circle cx="152.57" cy="70.218" r=".66849"/>
   <circle cx="158.56" cy="76.064" r=".66849"/>
   <circle cx="150.16" cy="57.51" r=".66849"/>
   <circle cx="149.55" cy="74.888" r=".66849"/>
   <circle cx="140.42" cy="69.679" r=".66849"/>
   <circle cx="142.99" cy="81.31" r=".66849"/>
   <circle cx="140.75" cy="75.957" r=".66849"/>
   <circle cx="136.52" cy="74.131" r=".66849"/>
   <circle cx="150.67" cy="59.303" r=".66849"/>
   <circle cx="145.16" cy="77.764" r=".66849"/>
   <circle cx="166.66" cy="85.733" r=".66849"/>
   <circle cx="148.85" cy="89.215" r=".66849"/>
   <circle cx="157.72" cy="77.322" r=".66849"/>
   <circle cx="160.91" cy="84.946" r=".66849"/>
   <circle cx="145.41" cy="81.805" r=".66849"/>
   <circle cx="160.63" cy="92.693" r=".66849"/>
   <circle cx="151.43" cy="84.521" r=".66849"/>
   <circle cx="163.28" cy="95.827" r=".66849"/>
   <circle cx="156.15" cy="76.378" r=".66849"/>
   <circle cx="143.6" cy="89.511" r=".66849"/>
   <circle cx="159.71" cy="74.051" r=".66849"/>
   <circle cx="156.29" cy="93.317" r=".66849"/>
   <circle cx="157.14" cy="88.95" r=".66849"/>
   <circle cx="154.47" cy="97.469" r=".66849"/>
   <circle cx="148.56" cy="90.345" r=".66849"/>
   <circle cx="173.87" cy="92.774" r=".66849"/>
   <circle cx="170.15" cy="91.271" r=".66849"/>
   <circle cx="138.22" cy="129.69" r=".66849"/>
  </g>
  <path d="m42.061 150.39h73.349v22.143" fill="none" stop-color="#000000" stroke="#000" stroke-dasharray="4, 1" style="font-variation-settings:normal"/>
  <path d="m43.445 66.889h123.17v105.64" fill="none" stop-color="#000000" stroke="#000" stroke-dasharray="4, 1" style="font-variation-settings:normal"/>
  <g fill="#000000" font-family="'STIX Two Text'" font-size="14.667px" stroke-miterlimit="3.2" stroke-width="1.5">
   <text x="25.807003" y="70.89875" style="font-variant-caps:normal;font-variant-east-asian:normal;font-variant-ligatures:normal;font-variant-numeric:normal;paint-order:stroke fill markers" xml:space="preserve"><tspan x="25.807003" y="70.89875">14</tspan></text>
   <text x="22.771011" y="154.37822" style="font-variant-caps:normal;font-variant-east-asian:normal;font-variant-ligatures:normal;font-variant-numeric:normal;paint-order:stroke fill markers" xml:space="preserve"><tspan x="22.771011" y="154.37822">0,5</tspan></text>
   <text x="106.34" y="184.35347" style="font-variant-caps:normal;font-variant-east-asian:normal;font-variant-ligatures:normal;font-variant-numeric:normal;paint-order:stroke fill markers" xml:space="preserve"><tspan x="106.34" y="184.35347">4,2</tspan></text>
   <text x="157.283" y="184.36813" style="font-variant-caps:normal;font-variant-east-asian:normal;font-variant-ligatures:normal;font-variant-numeric:normal;paint-order:stroke fill markers" xml:space="preserve"><tspan x="157.283" y="184.36813">4,8</tspan></text>
  </g>
 </g>
</svg>
