<?xml version="1.0" standalone="no"?>
<!DOCTYPE svg PUBLIC "-//W3C//DTD SVG 20010904//EN"
 "http://www.w3.org/TR/2001/REC-SVG-20010904/DTD/svg10.dtd">
<svg version="1.0" xmlns="http://www.w3.org/2000/svg"
 width="667.581811pt" height="280.066098pt" viewBox="0 0 667.581811 280.066098"
 preserveAspectRatio="xMidYMid meet">
<metadata>
Created by potrace 1.16, written by Peter Selinger 2001-2019
</metadata>
<g transform="translate(-64.418189,311.000000) scale(0.100000,-0.100000)"
fill="#000000" stroke="none">
<path d="M1411 3089 c-5 -13 -28 -66 -50 -118 -23 -51 -40 -99 -38 -105 3 -6
12 7 22 29 9 22 33 77 52 123 19 46 33 86 29 89 -3 3 -10 -5 -15 -18z"/>
<path d="M1779 3068 c-7 -27 -11 -112 -10 -225 l2 -183 -35 0 c-20 0 -36 -4
-36 -10 0 -5 16 -10 35 -10 l35 0 0 -235 0 -235 -37 0 c-44 0 -40 -8 5 -12
l32 -2 0 -233 0 -233 -35 0 c-19 0 -35 -4 -35 -10 0 -5 16 -10 35 -10 l35 0 0
-230 0 -230 -35 0 c-19 0 -35 -4 -35 -10 0 -5 16 -10 35 -10 l35 0 0 -230 0
-230 -35 0 c-19 0 -35 -4 -35 -10 0 -5 20 -10 45 -10 l45 0 0 -47 c0 -57 9
-53 12 5 l1 42 234 0 233 0 0 -45 c0 -25 5 -45 10 -45 6 0 10 20 10 45 l0 45
230 0 230 0 0 -47 c0 -25 3 -44 6 -41 3 3 5 24 6 47 l0 41 159 1 c200 0 264 0
289 0 17 -1 20 -8 20 -41 0 -23 5 -40 11 -40 7 0 10 15 7 40 l-3 39 180 3 c99
2 205 1 235 -2 l55 -5 0 -38 c0 -20 3 -37 8 -37 4 0 7 18 7 40 0 31 4 40 18
41 65 3 401 4 420 1 18 -3 22 -11 22 -43 0 -21 5 -39 10 -39 6 0 10 17 10 39
0 48 -12 46 255 46 l210 0 6 -45 5 -45 5 45 4 45 230 0 230 0 6 -45 6 -45 1
48 2 47 229 0 c248 0 249 0 235 -55 -3 -12 -1 -26 5 -29 7 -5 11 8 11 38 l0
46 234 0 235 0 4 -47 3 -48 2 48 2 47 234 0 235 0 4 -42 4 -43 1 43 2 42 234
0 c175 0 235 -3 238 -12 3 -9 20 -8 66 6 34 11 59 22 57 26 -7 11 -117 33
-124 24 -3 -5 -102 -8 -218 -6 l-213 3 -15 29 c-13 25 -15 148 -15 932 0 497
-3 913 -6 926 l-6 22 -932 0 c-788 1 -935 3 -956 15 -38 22 -1927 22 -1956 0
-16 -12 -91 -14 -486 -15 l-468 0 0 145 c0 88 4 152 11 163 8 13 7 32 -6 75
-9 31 -18 57 -20 57 -2 0 -9 -19 -16 -42z m481 -658 l0 -230 -225 0 -225 0 0
230 0 230 225 0 225 0 0 -230z m342 0 l-117 -230 -92 0 -93 0 0 230 0 230 209
0 209 0 -116 -230z m2548 145 l0 -85 -162 81 c-90 45 -165 83 -167 85 -2 2 71
4 162 4 l167 0 0 -85z m480 -120 l0 -205 -224 112 -225 112 -3 93 -3 93 228 0
227 0 0 -205z m480 -25 l0 -230 -205 0 c-192 0 -206 1 -225 20 -19 19 -20 33
-20 230 l0 210 225 0 225 0 0 -230z m480 0 l0 -230 -225 0 -225 0 0 230 0 230
225 0 225 0 0 -230z m-3370 -5 l0 -225 -225 0 -225 0 0 208 c0 114 4 212 8
219 8 12 33 13 350 21 l92 2 0 -225z m490 0 l0 -225 -225 0 -225 0 0 225 0
225 225 0 225 0 0 -225z m480 0 l0 -225 -225 0 -225 0 0 225 0 225 225 0 225
0 0 -225z m480 0 l0 -225 -225 0 -225 0 0 225 0 225 225 0 225 0 0 -225z m253
99 c116 -59 215 -111 219 -118 4 -6 8 -55 8 -108 l0 -98 -225 0 -225 0 0 215
c0 118 2 215 5 215 3 0 101 -48 218 -106z m-2183 -154 l0 -170 -85 0 c-47 0
-85 2 -85 5 0 7 164 335 167 335 2 0 3 -76 3 -170z m2640 -75 l185 -94 -192 0
-193 -1 0 95 c0 52 3 95 8 94 4 0 90 -42 192 -94z m-3120 -330 c0 -134 -4
-213 -12 -230 l-11 -25 -211 2 -211 3 -3 228 -2 227 225 0 225 0 0 -205z m156
98 c-30 -60 -68 -133 -85 -163 l-31 -55 0 163 0 162 85 0 85 0 -54 -107z m324
-123 l0 -230 -210 0 c-115 0 -210 3 -210 6 0 4 52 107 116 230 l115 224 95 0
94 0 0 -230z m480 0 l0 -230 -225 0 -225 0 0 230 0 230 225 0 225 0 0 -230z
m490 0 l0 -230 -225 0 -225 0 0 230 0 230 225 0 225 0 0 -230z m480 1 l0 -230
-225 -1 -225 0 0 230 0 230 225 0 225 0 0 -229z m480 5 l0 -223 -41 -6 c-22
-3 -123 -6 -225 -6 l-184 0 0 229 0 230 225 0 225 0 0 -224z m480 -1 l0 -225
-137 -1 c-76 0 -176 -1 -223 -2 l-85 -2 -3 228 -2 227 225 0 225 0 0 -225z
m480 0 l0 -225 -225 0 -225 0 0 225 0 225 225 0 225 0 0 -225z m480 0 l0 -225
-44 0 -45 0 -144 213 c-79 116 -147 218 -151 225 -6 9 35 12 188 12 l196 0 0
-225z m480 0 l0 -225 -225 0 -225 0 0 225 0 225 225 0 225 0 0 -225z m-788
-37 l126 -188 -134 0 -134 0 0 197 c0 111 4 193 9 188 4 -6 65 -94 133 -197z
m-3582 -225 c0 -5 -51 -107 -113 -228 l-112 -220 -90 0 -90 0 -3 215 c-1 118
0 220 2 227 4 10 53 13 206 13 110 0 200 -3 200 -7z m520 -223 l0 -230 -220 0
-220 0 0 223 c0 123 3 227 7 230 3 4 102 7 220 7 l213 0 0 -230z m480 0 l0
-230 -225 0 -225 0 0 230 0 230 225 0 225 0 0 -230z m490 0 l0 -230 -225 0
-225 0 0 230 0 230 225 0 225 0 0 -230z m480 0 l0 -230 -225 0 -225 0 0 230 0
230 225 0 225 0 0 -230z m478 3 l-3 -228 -222 -3 -223 -2 0 230 0 230 225 0
225 0 -2 -227z m480 0 l2 -223 -67 0 c-38 -1 -138 -2 -223 -3 l-155 -2 -3 228
-2 227 222 -2 223 -3 3 -222z m482 2 l0 -224 -192 -3 c-106 -2 -208 -2 -225 0
l-33 3 0 225 0 224 225 0 225 0 0 -225z m400 104 l80 -121 0 -104 0 -104 -225
0 -225 0 0 225 0 225 145 0 145 0 80 -121z m80 76 c0 -25 -2 -45 -5 -45 -2 0
-18 20 -35 45 l-31 45 36 0 c35 0 35 0 35 -45z m480 -180 l0 -225 -123 0 -123
0 -102 153 -102 152 0 73 0 72 225 0 225 0 0 -225z m-4330 -55 l0 -180 -83 0
c-46 0 -86 3 -90 6 -5 5 163 354 170 354 2 0 3 -81 3 -180z m3939 -92 l52 -78
-56 0 -55 0 0 82 c0 45 2 79 3 77 2 -2 27 -39 56 -81z m-4302 -273 l-82 -166
-3 153 c-1 84 0 158 2 165 4 9 29 13 86 13 l80 0 -83 -165z m363 -50 l0 -215
-200 0 c-110 0 -200 2 -200 3 0 8 193 403 203 415 6 8 40 12 103 12 l94 0 0
-215z m480 0 l0 -215 -220 0 -220 0 0 215 0 215 220 0 220 0 0 -215z m482 0
l3 -215 -227 0 -228 0 0 215 0 215 225 0 224 0 3 -215z m488 0 l0 -215 -227 0
-228 0 3 215 3 215 224 0 225 0 0 -215z m480 0 l0 -215 -225 0 -225 0 0 215 0
215 225 0 225 0 0 -215z m480 0 l0 -215 -225 0 -225 0 0 215 0 215 225 0 225
0 0 -215z m478 -2 l2 -213 -225 0 -225 0 0 215 0 215 223 -2 222 -3 3 -212z
m482 2 l0 -215 -225 0 -225 0 0 215 0 215 225 0 225 0 0 -215z m480 0 l0 -215
-225 0 -225 0 0 215 0 215 225 0 225 0 0 -215z m308 -2 l143 -213 -210 0 -211
0 0 215 0 216 67 -3 67 -3 144 -212z m172 57 c0 -88 -2 -160 -4 -160 -4 0
-188 270 -210 308 -6 9 18 12 103 12 l111 0 0 -160z"/>
<path d="M646 3041 c-4 -5 -1 -11 5 -13 8 -3 8 -14 1 -42 -6 -20 -8 -44 -5
-51 8 -22 42 -28 67 -12 46 31 69 127 30 127 -17 0 -18 -22 -3 -37 14 -14 -12
-68 -37 -77 -28 -11 -37 8 -25 50 6 22 11 45 11 52 0 14 -36 17 -44 3z"/>
<path d="M1120 3040 c0 -5 5 -10 10 -10 6 0 10 -22 10 -50 0 -27 -4 -50 -10
-50 -5 0 -10 -4 -10 -10 0 -13 47 -13 54 -1 4 5 2 11 -3 13 -10 3 -14 30 -12
63 1 13 8 4 19 -24 9 -24 22 -46 27 -48 6 -2 17 18 25 44 l15 48 3 -39 c2 -22
-2 -42 -8 -46 -16 -10 1 -20 26 -15 10 2 24 4 29 5 6 0 2 5 -7 11 -13 7 -18
23 -18 54 0 25 5 45 10 45 6 0 10 5 10 11 0 6 -12 9 -27 7 -21 -2 -29 -10 -37
-35 -12 -42 -22 -42 -37 2 -11 29 -18 35 -41 35 -15 0 -28 -4 -28 -10z"/>
<path d="M1475 3036 c-28 -20 -26 -83 4 -107 13 -11 31 -19 42 -19 18 0 53 39
43 49 -3 3 -10 -2 -15 -12 -25 -44 -79 5 -63 57 12 37 44 49 44 16 0 -20 24
-28 35 -11 8 14 -24 41 -49 41 -12 0 -31 -6 -41 -14z"/>
<path d="M807 2953 c-4 -3 1 -12 11 -19 13 -10 15 -17 6 -31 -6 -10 -16 -19
-23 -19 -23 -3 -25 -4 -13 -16 8 -8 15 -8 27 2 13 11 18 11 24 2 8 -13 41 -6
41 9 0 4 -7 6 -15 3 -11 -5 -15 1 -15 21 0 18 6 29 20 32 11 3 20 9 20 14 0
13 -24 11 -38 -3 -9 -9 -12 -9 -12 0 0 13 -22 16 -33 5z"/>
<path d="M973 2944 c-3 -9 0 -20 7 -24 11 -7 11 -11 1 -24 -19 -23 3 -20 23 3
14 15 15 24 6 40 -13 25 -28 27 -37 5z"/>
<path d="M1507 2681 c-26 -37 -47 -71 -47 -74 0 -4 16 -7 35 -7 24 0 35 -5 35
-15 0 -8 -4 -15 -10 -15 -5 0 -10 -4 -10 -10 0 -5 18 -10 40 -10 22 0 40 5 40
10 0 6 -4 10 -10 10 -14 0 -12 27 3 34 10 5 10 7 0 12 -8 4 -13 27 -13 64 0
32 -4 61 -8 64 -5 3 -30 -25 -55 -63z m23 -31 c0 -25 -4 -30 -25 -30 l-26 0
23 30 c12 17 23 30 25 30 2 0 3 -13 3 -30z"/>
<path d="M1485 2270 c-10 -11 -15 -26 -11 -35 9 -23 31 -12 29 14 -2 16 3 21
21 21 49 0 42 -64 -7 -73 -21 -3 -21 -4 5 -15 32 -13 41 -27 33 -51 -7 -22
-29 -33 -50 -25 -12 5 -13 10 -4 20 6 7 8 18 4 24 -9 15 -32 12 -39 -6 -8 -21
-8 -20 10 -38 23 -23 91 -21 104 3 14 28 12 57 -5 71 -14 12 -14 15 0 30 20
22 19 43 -3 63 -25 23 -65 21 -87 -3z"/>
<path d="M1502 1803 c-33 -13 -37 -73 -5 -73 12 0 14 7 10 29 -7 33 7 44 36
29 29 -15 19 -46 -28 -96 -64 -66 -61 -82 15 -82 l60 0 0 37 c0 37 0 37 -16
15 -10 -15 -25 -22 -47 -22 l-32 0 48 45 c49 46 61 87 35 113 -12 12 -52 15
-76 5z"/>
<path d="M1500 1295 c-22 -12 -21 -20 2 -16 11 1 17 -38 15 -93 -2 -39 -6 -51
-22 -57 -13 -5 -1 -7 35 -7 30 0 47 2 38 5 -16 4 -18 17 -18 94 0 96 -3 101
-50 74z"/>
<path d="M1485 830 c-25 -28 -31 -99 -11 -138 35 -67 110 -47 121 32 8 49 1
82 -23 109 -20 23 -65 22 -87 -3z m70 -23 c4 -13 5 -48 3 -78 -3 -50 -5 -54
-28 -54 -24 0 -25 3 -28 64 -2 35 -1 70 2 77 9 23 45 16 51 -9z"/>
<path d="M6980 616 c-5 -14 -16 -26 -25 -26 -8 0 -15 -4 -15 -10 0 -5 5 -10
10 -10 6 0 8 -20 4 -55 -6 -46 -4 -55 9 -55 9 0 23 7 31 16 19 19 21 31 3 15
-21 -17 -25 -5 -14 39 6 22 20 43 31 49 19 9 19 10 3 10 -13 1 -17 6 -12 20 9
30 -14 36 -25 7z"/>
<path d="M7231 581 c-27 -27 -27 -75 -1 -101 33 -33 90 -21 90 19 0 12 -3 11
-18 -2 -27 -24 -51 -21 -58 8 -15 58 27 110 47 58 7 -20 12 -24 22 -14 8 8 9
16 1 29 -16 25 -59 27 -83 3z"/>
<path d="M6428 517 c-30 -12 -37 -27 -13 -27 12 0 15 -14 15 -70 0 -56 -3 -70
-15 -70 -8 0 -15 -4 -15 -10 0 -5 23 -10 50 -10 28 0 50 5 50 10 0 6 -7 10
-15 10 -12 0 -15 17 -15 90 0 50 -3 90 -7 89 -5 -1 -20 -6 -35 -12z"/>
<path d="M6551 504 c-31 -39 -29 -123 2 -152 13 -12 33 -22 45 -22 27 0 62 33
62 60 0 11 5 20 10 20 6 0 10 -8 10 -18 0 -31 29 -62 59 -62 40 0 64 31 69 93
3 42 0 57 -18 80 -13 16 -31 27 -46 27 -29 0 -64 -33 -64 -60 0 -11 -4 -20
-10 -20 -5 0 -10 8 -10 18 0 25 -41 62 -67 62 -12 0 -31 -12 -42 -26z m69 -13
c23 -43 8 -141 -21 -141 -23 0 -28 9 -35 62 -10 75 29 129 56 79z m145 -4 c4
-13 5 -48 3 -77 -2 -44 -7 -56 -22 -58 -10 -2 -22 2 -27 10 -10 15 -12 109 -3
132 9 24 43 20 49 -7z"/>
<path d="M5538 506 c-26 -13 -35 -50 -17 -72 9 -11 8 -18 -5 -32 -36 -41 -12
-83 48 -85 63 -2 98 54 57 90 -18 15 -18 18 -5 39 30 45 -25 86 -78 60z m50
-15 c20 -12 10 -45 -14 -49 -29 -4 -51 23 -34 43 14 17 29 19 48 6z m17 -126
c0 -10 -8 -23 -17 -29 -38 -23 -78 35 -42 61 15 11 21 11 38 -1 12 -7 21 -21
21 -31z"/>
<path d="M5693 510 c-30 -12 -43 -41 -43 -97 1 -82 56 -123 107 -79 23 20 27
31 27 81 1 50 -2 59 -27 81 -31 26 -32 27 -64 14z m47 -29 c15 -28 12 -114 -4
-136 -12 -16 -16 -17 -30 -6 -20 17 -23 146 -3 154 21 9 26 7 37 -12z"/>
<path d="M6005 495 c-26 -25 -29 -35 -19 -71 8 -29 49 -47 75 -34 16 9 19 7
19 -8 0 -18 -29 -52 -43 -52 -4 0 -7 6 -7 14 0 8 -5 18 -11 22 -16 9 -31 -10
-23 -30 11 -28 72 -17 98 17 31 42 29 122 -3 148 -31 26 -57 24 -86 -6z m63
-7 c31 -31 0 -105 -33 -78 -25 21 -14 90 15 90 3 0 11 -5 18 -12z"/>
<path d="M6160 502 c-13 -11 -23 -33 -27 -59 -10 -76 15 -123 66 -123 69 0 97
124 41 180 -25 25 -51 25 -80 2z m58 -14 c17 -17 15 -120 -2 -143 -12 -16 -16
-17 -30 -6 -16 14 -23 111 -10 145 7 19 25 21 42 4z"/>
<path d="M2650 497 c-33 -17 -41 -67 -11 -67 23 0 28 19 9 38 -9 9 -7 13 5 18
27 10 47 -3 47 -32 0 -18 -15 -43 -45 -75 -25 -26 -45 -53 -45 -59 0 -6 25
-10 60 -10 l60 0 -1 33 c-1 17 -3 24 -6 15 -3 -13 -15 -18 -39 -18 -19 0 -34
5 -34 10 0 6 3 10 8 10 16 0 82 70 82 88 0 43 -48 70 -90 49z"/>
<path d="M2784 487 c-23 -20 -28 -32 -28 -73 -1 -64 23 -104 64 -104 52 0 77
46 67 123 -6 41 -34 77 -63 77 -7 0 -25 -11 -40 -23z m68 -37 c9 -45 1 -101
-18 -120 -14 -13 -17 -13 -30 4 -16 23 -19 108 -3 137 16 30 42 19 51 -21z"/>
<path d="M3138 503 c-21 -5 -34 -41 -20 -55 15 -15 34 1 26 24 -5 16 -2 19 18
16 17 -2 24 -10 26 -30 3 -22 -2 -29 -22 -34 -31 -7 -35 -24 -6 -24 10 0 24
-9 30 -19 13 -26 -17 -65 -43 -56 -19 8 -22 21 -7 30 8 5 7 11 -1 21 -9 11
-15 11 -25 3 -32 -27 -1 -69 50 -69 55 0 88 59 51 90 -14 12 -14 15 0 30 39
44 -10 91 -77 73z"/>
<path d="M3276 489 c-23 -18 -26 -28 -26 -78 0 -68 19 -101 59 -101 44 0 71
37 71 99 0 42 -5 57 -25 76 -29 30 -45 31 -79 4z m68 -46 c16 -75 -8 -135 -44
-113 -18 11 -25 111 -10 139 18 34 44 22 54 -26z"/>
<path d="M3627 445 c-26 -36 -47 -70 -47 -75 0 -6 16 -10 35 -10 24 0 35 -5
35 -15 0 -8 -7 -15 -15 -15 -8 0 -15 -4 -15 -10 0 -5 20 -10 45 -10 25 0 45 5
45 10 0 6 -4 10 -10 10 -14 0 -12 27 3 33 9 4 9 7 0 14 -7 5 -13 36 -14 71 -1
34 -5 62 -9 62 -3 0 -27 -29 -53 -65z m23 -35 c0 -26 -4 -30 -26 -30 l-25 0
21 30 c12 17 23 30 26 30 2 0 4 -13 4 -30z"/>
<path d="M3751 484 c-40 -51 -24 -158 26 -170 40 -10 71 10 83 55 13 48 5 88
-23 119 -27 29 -61 28 -86 -4z m69 -20 c11 -29 13 -78 4 -111 -8 -27 -42 -31
-52 -5 -8 20 -7 104 1 126 10 25 36 19 47 -10z"/>
<path d="M4085 495 c-9 -30 -12 -95 -4 -95 5 0 9 4 9 9 0 13 27 21 46 14 11
-4 14 -17 12 -47 -3 -37 -6 -41 -32 -44 -26 -3 -28 -2 -17 12 14 17 7 36 -15
36 -17 0 -19 -41 -2 -58 18 -18 73 -14 91 6 42 46 6 119 -53 110 -42 -6 -37
24 6 33 34 7 54 17 54 27 0 12 -92 8 -95 -3z"/>
<path d="M4231 484 c-33 -42 -26 -141 13 -166 21 -14 55 -8 76 14 28 31 29
129 0 158 -28 28 -64 25 -89 -6z m69 -13 c5 -11 10 -38 10 -61 0 -73 -40 -109
-60 -54 -21 55 -6 134 25 134 8 0 19 -9 25 -19z"/>
<path d="M4571 485 c-55 -71 -28 -175 45 -175 26 0 64 43 64 72 0 10 -11 30
-24 43 -21 21 -29 23 -51 15 -24 -9 -26 -8 -23 11 2 12 11 27 20 33 14 8 21 6
32 -9 11 -16 17 -17 27 -8 10 10 9 15 -1 28 -20 24 -66 19 -89 -10z m57 -67
c24 -24 11 -88 -18 -88 -19 0 -30 19 -30 54 0 21 17 46 30 46 3 0 11 -5 18
-12z"/>
<path d="M4711 484 c-45 -57 -15 -174 45 -174 88 0 96 189 8 198 -25 2 -37 -3
-53 -24z m73 -10 c12 -32 6 -121 -9 -134 -31 -26 -45 -5 -45 68 0 38 3 72 7
75 12 13 41 7 47 -9z"/>
<path d="M5004 485 c-8 -32 2 -58 11 -27 6 17 15 22 41 22 l34 0 -25 -51 c-16
-31 -25 -63 -23 -82 5 -49 22 -38 28 18 3 28 17 71 32 98 l27 47 -60 0 c-54 0
-59 -2 -65 -25z"/>
<path d="M5153 483 c-11 -17 -18 -46 -18 -76 0 -41 4 -53 28 -73 35 -30 52
-30 82 1 38 37 32 140 -9 167 -25 17 -66 8 -83 -19z m77 -75 c0 -54 -3 -70
-16 -75 -26 -10 -44 25 -44 83 0 60 21 94 46 73 10 -8 14 -34 14 -81z"/>
<path d="M7070 495 c-10 -12 -9 -16 4 -21 12 -5 13 -10 5 -25 -11 -21 0 -26
19 -7 17 17 15 55 -2 61 -8 3 -20 -1 -26 -8z"/>
<path d="M2140 488 c-25 -10 -25 -10 -4 -18 19 -7 22 -17 23 -74 1 -51 -2 -66
-14 -66 -7 0 -17 -4 -20 -10 -4 -6 13 -10 44 -10 28 0 51 5 51 10 0 6 -7 10
-15 10 -12 0 -15 16 -15 85 0 90 -2 93 -50 73z"/>
<path d="M2276 484 c-21 -21 -30 -58 -23 -101 15 -92 110 -100 132 -10 9 35
-2 92 -21 112 -20 20 -68 19 -88 -1z m68 -10 c12 -33 6 -131 -9 -144 -27 -23
-45 5 -45 70 0 71 7 90 30 90 10 0 21 -7 24 -16z"/>
</g>
</svg>
