<?xml version="1.0" standalone="no"?>
<!DOCTYPE svg PUBLIC "-//W3C//DTD SVG 20010904//EN"
 "http://www.w3.org/TR/2001/REC-SVG-20010904/DTD/svg10.dtd">
<svg version="1.0" xmlns="http://www.w3.org/2000/svg"
 width="1232.508653pt" height="665.828877pt" viewBox="0 0 1232.508653 665.828877"
 preserveAspectRatio="xMidYMid meet">
<metadata>
Created by potrace 1.16, written by Peter Selinger 2001-2019
</metadata>
<g transform="translate(-76.000000,698.828498) scale(0.100000,-0.100000)"
fill="#000000" stroke="none">
<path d="M2636 6979 c-12 -34 -56 -205 -56 -216 0 -7 11 -13 24 -13 l23 0 -5
-2920 -5 -2920 634 -2 c349 -2 2392 -2 4542 -1 l3907 1 0 -24 c0 -28 1 -28 55
-12 46 14 40 12 85 22 59 13 100 27 100 35 0 8 -192 61 -220 61 -8 0 -20 -9
-25 -21 -10 -21 -14 -21 -400 -23 l-390 -1 4 2591 3 2591 -3090 -5 c-2309 -4
-3091 -2 -3096 7 -5 8 -276 11 -1037 11 l-1030 0 1 305 2 305 24 0 c30 0 30
-1 -2 123 -26 103 -39 133 -48 106z m8125 -879 l129 0 0 -245 0 -245 -245 0
-245 0 0 245 0 244 103 3 c56 2 108 2 115 1 8 -2 72 -3 143 -3z m-5561 -7 c20
-5 20 -11 16 -247 -2 -132 -5 -242 -5 -243 -1 -2 -62 -3 -137 -3 l-135 0 -45
98 c-66 141 -107 246 -137 348 l-15 52 219 0 c120 0 228 -2 239 -5z m534 -10
c-1 -7 -2 -119 -2 -248 l-2 -235 -245 0 -245 0 0 244 0 245 23 3 c12 2 123 4
247 3 174 0 225 -3 224 -12z m514 -235 l2 -248 -244 0 -245 0 -3 58 c-2 31 -2
143 0 248 l3 191 242 -1 242 -1 3 -247z m509 238 c6 -5 6 -34 4 -333 l-1 -153
-244 0 -245 0 0 233 c0 127 3 237 7 243 4 7 16 14 27 16 28 6 446 0 452 -6z
m521 -238 l2 -248 -250 0 -250 0 0 244 c1 166 4 246 12 248 6 2 117 4 247 3
l236 0 3 -247z m515 164 c-1 -48 -2 -160 -2 -249 l-1 -163 -245 0 -245 0 0
250 0 249 248 1 247 0 -2 -88z m517 -162 l0 -250 -245 0 -245 0 0 250 0 250
245 0 245 0 0 -250z m511 230 c0 -11 0 -49 0 -85 0 -36 0 -139 0 -230 l-1
-165 -242 2 -243 3 1 237 c1 130 5 241 8 247 5 7 84 11 242 11 227 0 234 -1
235 -20z m519 -230 l0 -250 -245 0 -245 0 -1 23 c0 21 0 151 1 370 l0 107 245
0 245 0 0 -250z m520 6 l0 -243 -37 -6 c-21 -3 -132 -5 -248 -4 l-210 2 -3
248 -2 247 250 0 250 0 0 -244z m514 219 c6 -23 -2 -454 -9 -465 -2 -3 -110
-5 -242 -5 l-238 0 -3 248 -2 247 244 0 244 0 6 -25z m-7224 -235 l0 -240
-245 0 -245 0 0 240 0 240 245 0 245 0 0 -240z m520 0 l0 -240 -249 0 -249 0
3 223 c2 122 4 230 4 240 1 16 20 17 246 17 l245 0 0 -240z m516 3 l-3 -238
-247 -3 -246 -2 0 240 0 240 249 0 249 0 -2 -237z m508 221 c3 -9 6 -117 6
-240 l0 -224 -245 0 -245 0 0 240 0 240 239 0 c209 0 240 -2 245 -16z m108
-304 c22 -52 47 -110 54 -127 l14 -33 -75 0 -75 0 1 183 0 182 20 -55 c11 -30
38 -98 61 -150z m-1652 -432 l0 -248 -244 0 -244 0 -1 244 -1 245 42 3 c24 2
134 3 246 4 l202 0 0 -248z m515 2 l0 -245 -239 -3 c-168 -2 -242 1 -246 9 -4
6 -7 116 -8 245 l0 233 77 3 c42 2 153 3 246 3 l170 0 0 -245z m520 35 c0
-116 -2 -227 -4 -247 l-3 -38 -244 0 -244 0 0 244 0 245 43 3 c23 2 134 3 247
3 l205 0 0 -210z m477 206 l37 -1 0 -231 c0 -127 -3 -237 -6 -245 -4 -11 -48
-14 -244 -14 l-239 0 0 248 0 247 208 -1 c114 -1 224 -2 244 -3z m250 -51 c40
-77 130 -227 204 -342 l63 -98 -229 0 -230 0 0 244 0 245 48 3 c116 7 113 8
144 -52z m254 51 l52 -1 -4 -206 c-1 -113 -5 -208 -7 -210 -3 -4 -39 47 -103
146 -60 93 -152 265 -145 270 8 4 36 5 207 1z m512 -1 l52 0 0 -245 0 -245
-242 2 -243 3 -3 242 -2 242 57 3 c32 2 119 2 193 1 74 -1 159 -2 188 -3z
m572 -242 l0 -248 -245 0 -245 0 -2 133 c0 72 -1 148 0 167 0 19 1 70 1 112 1
64 4 77 18 80 9 2 120 3 245 3 l228 0 0 -247z m962 243 l67 -1 1 -245 0 -245
-250 0 -250 0 0 244 c0 222 2 245 17 248 15 3 133 2 415 -1z m580 -28 c2 -21
2 -134 0 -250 l-3 -213 -244 0 -245 0 0 244 0 245 23 3 c12 2 122 5 244 6
l222 4 3 -39z m518 -213 l0 -250 -245 0 c-226 0 -245 1 -246 18 -1 21 0 416 0
453 l1 27 245 1 245 1 0 -250z m510 1 l0 -248 -243 -2 -244 -2 -1 251 -2 250
245 0 245 0 0 -249z m520 5 c0 -224 -1 -245 -17 -250 -10 -3 -120 -5 -245 -4
l-228 2 0 65 c0 36 -2 122 -4 191 -2 69 -1 151 2 183 l5 57 243 0 244 0 0
-244z m520 -1 l0 -245 -42 -1 c-24 0 -136 -1 -251 -2 l-207 -2 1 248 0 247
249 0 249 0 1 -245z m511 241 c2 -2 3 -113 1 -245 l-3 -241 -244 0 -245 0 0
245 0 245 243 0 c134 0 246 -2 248 -4z m517 -241 l0 -245 -244 0 -243 0 -3
113 c-2 61 -2 172 0 245 l3 132 243 0 244 0 0 -245z m-4126 225 c2 -5 2 -116
0 -245 l-3 -235 -244 0 -245 0 1 245 1 245 243 0 c152 0 245 -4 247 -10z
m4064 -499 l61 -1 -2 -222 c-2 -123 -3 -233 -4 -245 l-1 -23 -240 0 -240 0 0
108 c0 59 -1 168 -1 242 l-1 135 133 5 c74 3 157 4 184 4 28 -1 78 -2 111 -3z
m-7676 -249 l0 -249 -245 -1 -245 -1 0 250 0 249 245 0 245 0 0 -248z m517 1
l-2 -248 -247 -3 -247 -3 -1 244 c0 134 3 247 7 250 3 4 116 7 249 7 l243 0
-2 -247z m514 160 c1 -49 1 -104 1 -123 0 -19 -1 -92 -1 -162 l-1 -127 -245 0
-245 0 0 249 0 250 245 0 245 0 1 -87z m516 -133 c1 -118 0 -230 -3 -247 l-5
-33 -239 1 -240 2 0 248 0 249 243 -2 242 -3 2 -215z m504 204 c9 -11 12 -61
11 -197 -1 -100 -2 -205 -2 -234 l0 -52 -245 0 -245 0 0 249 0 250 234 0 c200
0 235 -2 247 -16z m531 -6 c2 -13 2 -125 0 -250 l-3 -228 -28 0 c-23 0 -42 15
-93 73 -122 137 -294 352 -332 415 -6 9 41 12 223 12 l230 0 3 -22z m518 -229
l0 -249 -239 0 c-181 0 -242 3 -248 13 -4 6 -8 119 -8 249 l-1 238 248 -1 248
-1 0 -249z m510 -1 l0 -248 -245 0 -246 0 1 244 c1 134 4 247 7 250 3 3 113 5
244 4 l239 -2 0 -248z m517 0 l2 -248 -250 0 -249 0 0 250 0 249 248 -2 247
-2 2 -247z m513 2 l0 -250 -245 0 -245 0 0 249 0 250 245 1 245 0 0 -250z
m520 3 l0 -248 -233 -2 c-127 -1 -238 2 -246 6 -12 8 -14 54 -15 250 l-1 241
248 0 247 0 0 -247z m510 2 l0 -245 -87 -1 c-49 -1 -158 -2 -243 -3 l-155 -1
-2 225 c-1 124 0 235 3 248 l4 22 240 0 240 0 0 -245z m520 0 l0 -245 -205 -1
c-113 0 -218 -1 -235 -1 -16 0 -36 1 -43 1 -9 1 -12 54 -10 239 1 130 2 240 2
245 1 4 111 7 246 7 l245 0 0 -245z m516 3 l-2 -243 -247 -3 -247 -2 0 245 0
245 249 0 248 0 -1 -242z m514 -3 l0 -245 -245 0 -245 0 0 245 0 245 245 0
245 0 0 -245z m-5006 15 c28 -36 91 -111 139 -167 l88 -103 -176 0 -175 0 0
221 0 221 37 -53 c20 -30 59 -83 87 -119z m5004 -532 l2 -248 -245 0 -245 0 0
244 0 245 28 3 c15 2 124 3 242 3 l215 0 3 -247z m502 247 c15 -5 18 -125 12
-422 l-2 -73 -239 0 -238 0 -5 28 c-10 55 0 455 12 462 12 7 437 12 460 5z
m-7720 -250 l0 -245 -245 0 -245 0 0 245 0 245 245 0 245 0 0 -245z m512 222
c5 -27 1 -457 -4 -463 -4 -4 -159 -6 -355 -5 l-133 1 0 245 0 245 244 0 244 0
4 -23z m518 -221 l0 -245 -47 -3 c-27 -2 -137 -2 -245 0 l-198 3 0 244 0 245
245 0 245 0 0 -244z m514 3 c-1 -132 -4 -242 -7 -245 -5 -5 -130 -6 -379 -5
l-98 1 0 245 0 245 243 0 243 0 -2 -241z m516 219 c2 -82 -1 -462 -3 -464 -3
-3 -207 -5 -384 -4 l-103 0 0 245 0 245 245 0 245 0 0 -22z m459 -40 l61 -62
0 -183 c0 -167 -2 -183 -17 -184 -22 -1 -396 -1 -440 0 l-33 1 0 245 0 245
184 0 184 0 61 -62z m61 42 c0 -11 -2 -20 -3 -20 -2 0 -12 9 -22 20 -18 19
-17 20 3 20 15 0 22 -6 22 -20z m520 -224 c0 -266 -1 -268 -55 -240 -16 8 -49
33 -74 56 -53 47 -292 281 -334 325 -27 30 -43 75 -32 93 4 6 107 10 251 10
l244 0 0 -244z m509 -5 l1 -250 -197 4 c-109 2 -219 4 -245 4 l-48 1 0 245 0
245 244 0 244 0 1 -249z m518 3 l-2 -246 -245 -2 -245 -1 -3 235 c-1 129 0
240 2 247 4 10 61 13 250 13 l245 0 -2 -246z m513 1 l0 -245 -32 0 c-289 -3
-449 -2 -453 1 -4 4 -7 199 -5 402 l0 87 245 0 245 0 0 -245z m520 0 l0 -244
-187 -3 c-104 -2 -215 -1 -248 2 l-60 5 0 225 c-1 124 1 233 3 243 4 16 24 17
248 17 l244 0 0 -245z m510 0 l0 -245 -245 0 -245 0 0 245 0 245 245 0 245 0
0 -245z m520 0 l-1 -245 -249 0 -249 0 1 238 c0 130 3 240 5 245 2 4 114 7
248 7 l245 0 0 -245z m514 0 l0 -240 -247 -3 -247 -2 0 245 0 245 248 -2 247
-3 -1 -240z m-3772 -242 c-1 -4 -45 -7 -99 -6 -54 1 -128 3 -165 3 l-68 0 0
168 0 167 166 -161 c91 -89 166 -166 166 -171z m2736 -273 l2 -245 -245 -3
-245 -3 0 245 0 245 148 3 c81 2 190 3 242 3 l95 0 3 -245z m509 242 c8 -2 11
-67 11 -242 0 -215 -2 -240 -17 -241 -46 -4 -458 -5 -468 -1 -8 2 -11 72 -12
242 l-2 239 28 3 c28 3 438 3 460 0z m525 -236 c-1 -132 -3 -241 -5 -242 -2
-3 -293 -6 -409 -5 l-78 1 0 238 c0 131 2 241 5 244 3 3 114 5 247 4 l242 -1
-2 -239z m518 -1 l0 -245 -245 0 -245 0 0 244 0 245 245 0 245 1 0 -245z m241
233 c0 -10 2 -10 6 0 3 9 40 12 134 12 l129 0 1 -27 c1 -38 1 -225 0 -356 l-1
-107 -242 2 -242 3 -1 235 c-1 129 0 238 2 243 2 4 51 7 109 7 76 0 104 -3
105 -12z m-7461 -243 l0 -245 -245 0 -245 0 0 245 0 245 245 0 245 0 0 -245z
m512 115 c0 -69 -1 -178 -1 -242 l-1 -118 -245 0 -245 0 0 245 0 245 246 -2
246 -3 0 -125z m518 -115 l0 -245 -245 0 -245 0 0 245 0 245 245 0 245 0 0
-245z m513 8 c-2 -131 -3 -241 -3 -245 0 -8 -473 -11 -481 -4 -2 2 -3 113 -1
245 l3 241 242 0 242 0 -2 -237z m517 -8 l0 -245 -245 0 -245 0 0 245 0 245
245 0 245 0 0 -245z m520 0 l0 -245 -245 0 -245 0 -1 93 c0 50 -2 161 -2 244
l-2 153 248 0 247 0 0 -245z m460 199 l59 -46 1 -199 0 -199 -250 0 -250 0 2
245 1 245 188 0 189 0 60 -46z m60 36 c0 -5 -2 -10 -4 -10 -3 0 -8 5 -11 10
-3 6 -1 10 4 10 6 0 11 -4 11 -10z m509 -195 c0 -113 -3 -205 -5 -205 -15 0
-277 195 -350 260 -27 25 -69 60 -92 78 -23 19 -42 42 -42 53 0 18 11 19 244
19 l245 0 0 -205z m515 -8 c-1 -116 -2 -227 -3 -244 l-1 -33 -201 0 -200 0
-45 30 -44 31 0 214 0 215 248 0 247 0 -1 -213z m516 -32 l0 -245 -245 0 -245
0 0 245 0 245 245 0 245 0 0 -245z m518 3 l-3 -243 -248 -3 -247 -2 1 237 c1
131 3 241 6 246 2 4 114 7 249 7 l244 0 -2 -242z m-1948 54 c75 -68 332 -262
347 -262 4 0 19 -9 33 -20 25 -20 25 -20 -222 -20 l-248 0 0 185 c0 102 3 185
8 185 4 0 41 -31 82 -68z m3491 -452 c0 -69 0 -178 0 -242 l-1 -118 -245 0
-245 0 0 245 0 244 83 3 c45 2 155 1 245 -2 l163 -5 0 -125z m1025 127 c2 -2
4 -111 6 -243 l2 -239 -242 -3 -242 -2 -4 22 c-3 13 -4 123 -4 245 l2 222 75
3 c91 4 403 0 407 -5z m-7726 -242 l-1 -245 -245 0 -244 0 0 245 0 245 245 0
246 0 -1 -245z m512 68 c2 -98 2 -208 0 -245 -3 -81 22 -74 -274 -70 l-218 3
0 244 0 245 245 0 244 0 3 -177z m518 -68 l0 -245 -245 0 -244 0 -3 108 c-2
59 -2 169 0 245 l3 137 245 0 244 0 0 -245z m511 163 c1 -169 -1 -402 -4 -404
-5 -5 -468 -6 -473 -2 -3 4 -8 433 -5 476 1 9 56 12 241 12 l240 0 1 -82z
m519 -164 l0 -244 -245 0 -245 0 0 245 0 246 245 -1 245 -1 0 -245z m520 1 l0
-245 -207 -1 c-201 -1 -275 0 -280 5 -3 3 -6 426 -4 464 l1 22 245 0 245 0 0
-245z m518 -2 c2 -226 1 -243 -15 -244 -10 -1 -123 -2 -251 -3 l-232 -1 1 240
c1 132 3 243 6 248 2 4 113 6 246 5 l242 -3 3 -242z m508 -2 l-1 -246 -240 0
-240 1 -3 247 -2 247 243 -1 244 -1 -1 -247z m162 171 c70 -43 177 -107 237
-142 61 -34 112 -64 114 -66 6 -5 2 -196 -4 -202 -3 -4 -114 -7 -246 -8 l-239
-1 0 248 c0 137 3 249 6 249 3 0 63 -35 132 -78z m355 -29 c-2 -59 -5 -108 -6
-110 -5 -5 -319 185 -339 205 -8 8 39 11 169 11 l179 1 -3 -107z m517 -127 l0
-235 -102 46 c-57 25 -149 67 -205 94 -56 27 -104 49 -108 49 -3 0 -21 10 -40
23 l-35 22 0 118 0 117 245 0 245 0 0 -234z m520 -11 l0 -245 -167 -1 c-204
-2 -292 1 -316 7 -16 5 -17 24 -16 245 l2 239 249 0 248 0 0 -245z m510 0 l0
-245 -245 0 -245 0 0 245 0 245 245 0 245 0 0 -245z m515 -2 l0 -243 -247 0
-247 0 0 245 -1 245 247 -2 248 -3 0 -242z m1033 5 l-3 -243 -242 -3 -243 -2
0 245 0 245 245 0 245 0 -2 -242z m-2905 -141 c84 -40 168 -80 187 -89 35 -17
34 -17 -95 -19 -139 -2 -184 -2 -227 0 l-28 1 0 90 c0 50 3 90 6 90 3 0 74
-33 157 -73z m1325 -136 l32 -1 0 -160 c0 -90 -4 -160 -9 -160 -5 0 -101 32
-213 71 -112 39 -218 75 -235 81 l-33 11 0 78 0 78 148 3 c81 2 176 2 212 1
36 -1 80 -2 98 -2z m547 -228 c0 -127 -3 -235 -7 -238 -3 -4 -50 5 -105 20
-54 15 -122 33 -151 41 -29 8 -93 28 -143 45 l-89 32 0 162 c0 100 4 165 10
167 6 2 117 3 248 3 l237 0 0 -232z m517 220 c2 -9 2 -121 0 -250 l-3 -233
-242 2 -242 3 -3 247 -2 247 244 0 c217 0 245 -2 248 -16z m518 -233 l0 -250
-245 0 -245 0 0 250 0 250 245 0 245 0 0 -250z m510 0 l0 -251 -242 3 -243 3
-2 235 c-1 129 0 241 2 248 3 9 61 12 245 12 l240 0 0 -250z m-7733 -2 l-2
-243 -242 -3 -243 -2 0 245 0 245 245 0 245 0 -3 -242z m517 15 c-1 -126 -2
-236 -3 -245 -1 -17 -20 -18 -246 -18 l-245 0 0 245 0 245 248 0 247 0 -1
-227z m516 -18 l0 -245 -245 0 -245 0 0 245 0 245 245 0 245 0 0 -245z m510 0
l0 -245 -240 0 c-222 0 -240 1 -241 18 -1 14 0 319 1 435 l0 37 240 0 240 0 0
-245z m520 0 l0 -245 -245 0 -245 0 0 245 0 245 245 0 245 0 0 -245z m520 0
l0 -245 -32 -1 c-104 -2 -453 3 -457 7 -4 4 -5 425 -2 477 1 4 111 7 246 7
l245 0 0 -245z m519 1 c-1 -212 -3 -245 -17 -248 -8 -2 -120 -2 -249 0 l-233
3 1 244 1 245 249 0 249 0 -1 -244z m509 4 c1 -217 0 -241 -16 -248 -15 -8
-93 -8 -414 -3 l-58 1 0 245 0 245 243 0 243 0 2 -240z m513 228 c2 -63 -3
-473 -6 -477 -4 -3 -402 -5 -467 -2 -17 1 -18 20 -18 246 l0 245 245 0 c189 0
245 -3 246 -12z m503 6 c14 -5 16 -36 16 -245 l0 -239 -197 -1 c-218 -2 -262
-2 -280 0 -10 1 -13 57 -13 246 l0 245 229 0 c126 0 236 -3 245 -6z m536 -64
c0 -38 -4 -70 -9 -70 -14 0 -196 65 -291 104 l-85 35 193 1 192 0 0 -70z
m-429 24 c35 -15 145 -57 244 -94 l180 -68 3 -141 3 -141 -251 0 -251 0 2 235
c0 129 2 235 3 235 1 0 31 -12 67 -26z m585 -220 c71 -25 180 -62 241 -82
l113 -37 0 -52 0 -53 -245 0 -245 0 0 135 c0 74 2 135 4 135 2 0 61 -20 132
-46z m569 -185 c55 -16 105 -31 110 -33 6 -3 -61 -5 -147 -5 l-158 -1 0 50 0
49 48 -15 c26 -8 92 -28 147 -45z m-6023 -68 l137 -1 -2 -242 -2 -243 -242 -3
-243 -2 0 82 c-1 188 1 402 4 407 2 3 51 5 108 4 56 -1 165 -2 240 -2z m645
-5 c4 -4 6 -148 4 -363 l-1 -123 -245 0 -245 0 0 244 0 245 53 3 c70 4 429 -1
434 -6z m5126 5 l37 -1 0 -245 0 -245 -165 -1 c-91 -1 -172 -1 -180 -1 -8 0
-44 0 -80 1 l-65 1 0 244 0 245 53 3 c46 3 296 2 400 -1z m515 -6 c31 -6 32
-7 33 -58 2 -73 2 -194 0 -319 l-1 -108 -245 0 -245 0 0 249 0 248 213 -3
c116 -2 227 -6 245 -9z m552 -30 l0 -43 -97 23 c-54 12 -126 28 -160 35 -35 7
-63 15 -63 19 0 3 72 7 160 7 l160 2 0 -43z m520 -45 l0 -91 -32 6 c-135 22
-334 57 -390 67 l-68 12 0 46 0 47 245 2 245 2 0 -91z m510 -21 l0 -112 -107
6 c-128 8 -319 25 -349 32 -12 3 -24 15 -28 27 -8 31 -8 143 1 151 3 4 114 7
245 7 l238 0 0 -111z m-6700 -144 l0 -245 -245 0 -245 0 0 245 0 245 245 0
245 0 0 -245z m510 0 l0 -245 -244 0 -244 0 2 245 1 245 242 0 243 0 0 -245z
m520 0 l0 -245 -245 0 -245 0 0 245 0 245 245 0 245 0 0 -245z m520 0 l0 -245
-249 0 -248 0 2 243 c1 133 3 243 4 245 0 1 111 2 246 2 l244 0 1 -245z m518
3 l-3 -243 -247 -3 -248 -2 0 245 0 245 250 0 251 0 -3 -242z m507 -3 l0 -240
-135 -5 c-74 -3 -183 -4 -242 -2 l-108 3 0 245 0 244 242 -2 242 -3 1 -240z
m517 103 c2 -79 2 -189 0 -245 l-3 -103 -244 0 -245 0 0 245 0 245 244 0 245
0 3 -142z m518 -103 l0 -245 -245 0 -245 0 -1 53 c0 28 -1 77 -1 107 1 30 1
117 1 193 l1 137 245 0 245 0 0 -245z m520 0 l0 -245 -249 0 -249 0 -1 245 -1
245 250 0 250 0 0 -245z m1430 131 l105 -22 3 -177 2 -177 -245 0 -245 0 0
234 0 233 138 -34 c75 -19 184 -45 242 -57z m395 -76 c105 -17 200 -33 213
-36 21 -4 22 -8 22 -134 l0 -130 -245 0 -245 0 0 171 0 172 33 -6 c17 -3 118
-20 222 -37z m445 -59 c63 -6 151 -11 195 -12 44 -2 86 -4 93 -7 8 -3 12 -35
12 -113 l0 -109 -245 0 -245 0 0 131 0 132 38 -6 c21 -4 89 -11 152 -16z
m-7437 -493 c-1 -128 -2 -241 -3 -250 0 -17 -18 -18 -244 -18 l-244 0 4 208
c2 114 4 226 4 250 l0 42 243 0 243 0 -3 -232z m515 -20 l2 -248 -245 0 -245
0 0 250 0 250 243 -2 242 -3 3 -247z m522 1 l0 -249 -52 0 c-156 -2 -433 1
-435 4 -4 3 -5 197 -4 389 l1 108 245 -2 245 -1 0 -249z m508 -1 l2 -248 -245
0 -246 0 2 238 c1 130 4 242 6 248 3 9 71 12 241 10 l237 -1 3 -247z m520 -2
l-3 -251 -40 2 c-22 1 -132 2 -245 2 l-206 1 2 233 c2 127 3 239 3 249 1 14
25 16 246 15 l245 -1 -2 -250z m470 245 l52 -1 -2 -247 -3 -247 -130 2 c-71 1
-183 2 -247 2 l-118 0 0 248 0 247 198 -2 c108 -1 221 -2 250 -2z m538 -1 l30
0 -1 -239 c-1 -131 -5 -243 -8 -248 -5 -7 -315 -10 -464 -4 l-23 1 0 244 0
245 33 3 c17 2 115 2 217 1 102 -2 199 -3 216 -3z m1522 1 l52 -1 0 -245 0
-245 -22 -1 c-75 -3 -446 -4 -459 -1 -14 3 -16 28 -13 215 1 117 3 226 3 244
1 31 2 32 54 35 45 3 188 2 385 -1z m544 0 l27 -1 -1 -245 -2 -245 -26 -1
c-14 0 -125 -1 -247 -3 l-223 -2 0 247 0 248 58 3 c47 2 312 2 414 -1z m538
-237 c-1 -179 -4 -246 -13 -249 -7 -3 -117 -6 -244 -8 l-233 -2 0 247 0 247
38 3 c20 2 131 4 245 5 l208 2 -1 -245z m507 237 c4 -3 7 -115 5 -248 l-3
-242 -152 -3 c-84 -2 -194 -2 -244 0 l-93 3 0 243 c0 133 3 245 6 249 8 8 470
6 481 -2z m523 -242 l0 -249 -245 0 -245 0 0 23 c-3 136 2 462 6 469 3 4 113
8 245 8 l239 -1 0 -250z m520 1 l0 -250 -249 0 -249 0 3 213 c2 116 4 229 5
250 l0 37 245 0 245 0 0 -250z m510 0 l0 -250 -245 0 -245 0 0 250 0 250 245
0 245 0 0 -250z m-4127 3 c-2 -131 -5 -243 -7 -249 -3 -9 -68 -11 -235 -10
-127 1 -233 4 -235 7 -5 4 -8 179 -6 392 l0 97 243 0 242 0 -2 -237z m517 -8
c0 -135 -3 -245 -7 -246 -5 0 -115 -2 -245 -4 l-238 -4 -1 59 c0 33 -1 74 -1
90 0 17 1 102 1 190 l1 160 245 0 245 0 0 -245z m-4135 -277 c6 -5 8 -165 6
-400 l-1 -87 -244 0 -244 1 0 243 c0 241 1 244 22 247 41 6 455 3 461 -4z
m478 3 l47 -1 0 -245 0 -245 -245 0 -245 0 -1 75 c-1 41 -1 82 -1 90 0 8 0 84
1 169 l1 155 38 3 c31 3 121 2 405 -1z m567 -247 l0 -244 -245 0 c-188 0 -245
3 -247 13 0 6 -2 117 -2 244 l-1 233 215 2 c118 2 230 1 248 -1 l32 -3 0 -244z
m510 0 l0 -244 -242 2 -243 3 -3 242 -2 242 142 3 c79 2 189 2 246 0 l102 -3
0 -245z m520 1 l0 -245 -188 0 c-137 0 -192 3 -201 13 -11 10 -14 10 -18 0 -3
-8 -23 -13 -48 -13 l-44 0 2 243 2 242 70 5 c39 3 150 4 248 2 l177 -3 0 -244z
m4568 245 l72 0 0 -245 0 -245 -245 0 -245 0 -1 43 c-1 41 0 408 1 437 0 13
25 15 172 13 95 -2 206 -3 246 -3z m592 -236 c0 -210 -2 -243 -16 -248 -8 -3
-120 -6 -249 -6 l-234 1 2 244 c1 237 2 244 22 247 11 2 122 3 248 3 l227 0 0
-241z m508 -4 l-3 -245 -242 -2 -243 -2 0 244 c0 155 4 245 10 247 6 2 116 3
245 3 l235 1 -2 -246z m-5150 -5 l-3 -245 -247 0 -248 0 0 245 0 245 250 0
251 0 -3 -245z m512 0 l0 -245 -245 0 -245 0 0 245 0 245 245 0 245 0 0 -245z
m510 0 l0 -245 -240 0 -240 0 0 53 c-1 53 -1 430 0 435 0 1 108 2 240 2 l240
0 0 -245z m520 0 l0 -245 -245 0 -245 0 -2 28 c-1 15 -2 125 -2 244 l-1 218
248 0 247 0 0 -245z m519 0 l-1 -245 -250 0 -249 0 2 238 c1 130 3 240 6 245
2 4 114 7 249 7 l245 0 -2 -245z m514 60 c-1 -99 -2 -208 -2 -242 l-1 -63
-245 0 -245 0 0 245 0 245 248 -2 247 -3 -2 -180z m513 -45 c1 -124 0 -233 -3
-242 -4 -17 -24 -18 -244 -18 l-239 0 0 245 0 245 243 -2 242 -3 1 -225z m514
-15 l0 -245 -245 0 -245 0 0 245 0 245 245 0 245 0 0 -245z"/>
<path d="M2349 6959 c-19 -19 -20 -23 -6 -36 18 -18 37 -9 37 18 0 22 13 25
29 5 9 -11 8 -18 -4 -30 -9 -9 -23 -16 -31 -16 -8 0 -14 -4 -14 -10 0 -5 9
-10 20 -10 21 0 40 -27 33 -47 -3 -7 -13 -13 -22 -13 -14 0 -17 6 -13 26 4 22
2 25 -19 22 -53 -7 -20 -78 36 -78 51 0 85 61 50 90 -12 10 -12 15 1 35 18 27
10 51 -19 59 -38 10 -56 7 -78 -15z"/>
<path d="M760 6947 c0 -7 8 -17 19 -24 14 -9 20 -29 25 -80 16 -168 18 -183
30 -183 7 0 51 55 97 122 46 67 96 129 111 137 46 27 35 41 -32 41 -61 0 -76
-11 -45 -34 13 -9 7 -23 -40 -90 -44 -64 -55 -75 -56 -55 0 13 -4 50 -8 82 -7
55 -6 58 16 63 13 4 23 12 23 20 0 11 -17 14 -70 14 -50 0 -70 -4 -70 -13z"/>
<path d="M1857 6846 c-64 -59 -38 -177 41 -192 42 -8 97 17 105 48 8 29 -23
36 -41 10 -18 -27 -58 -29 -72 -3 -17 33 -12 89 10 111 24 24 40 18 40 -15 0
-15 7 -26 20 -30 28 -9 40 2 40 35 0 59 -93 82 -143 36z"/>
<path d="M2033 6855 c-3 -11 0 -21 8 -26 21 -11 24 -113 4 -132 -26 -26 -17
-37 30 -37 47 0 58 13 29 34 -11 8 -14 25 -12 56 l3 45 25 -65 c26 -65 54 -89
63 -53 4 17 5 17 6 1 1 -15 11 -18 61 -18 47 0 60 3 60 15 0 8 -6 15 -14 15
-10 0 -15 15 -18 48 -4 65 1 92 18 92 8 0 14 7 14 15 0 20 -110 22 -110 3 0
-7 -9 -31 -18 -53 l-18 -40 -19 50 c-10 28 -19 51 -19 51 -1 1 -20 5 -43 9
-35 6 -44 4 -50 -10z m189 -129 c-3 -24 -9 -36 -19 -36 -10 0 -13 6 -9 16 3 9
9 27 12 40 9 36 21 21 16 -20z"/>
<path d="M1632 6718 c-16 -16 -15 -58 1 -58 7 -1 5 -6 -5 -14 -21 -16 -24 -36
-4 -36 22 0 66 48 66 73 0 24 -17 47 -35 47 -6 0 -16 -5 -23 -12z"/>
<path d="M1040 6630 c0 -5 5 -10 10 -10 6 0 10 -18 10 -40 0 -22 -4 -40 -10
-40 -5 0 -10 -6 -10 -14 0 -12 16 -15 75 -15 59 0 75 3 75 15 0 8 -4 14 -10
14 -5 0 -10 18 -10 40 0 22 5 40 10 40 6 0 10 5 10 10 0 6 -32 10 -75 10 -43
0 -75 -4 -75 -10z m90 -49 c0 -43 -14 -61 -28 -36 -12 23 -2 75 14 75 10 0 14
-12 14 -39z"/>
<path d="M1206 6618 c-21 -30 -20 -50 5 -82 39 -49 109 -23 109 41 0 42 -21
62 -67 63 -22 0 -37 -7 -47 -22z m76 -15 c4 -53 -14 -82 -39 -61 -14 11 -17
37 -7 62 8 22 44 20 46 -1z"/>
<path d="M1330 6630 c0 -5 5 -10 10 -10 14 0 12 -78 -2 -82 -21 -7 3 -28 32
-28 l29 0 -6 55 c-6 60 4 70 30 33 l16 -23 7 22 c3 13 10 20 15 17 11 -7 9
-113 -2 -120 -21 -13 -6 -24 31 -24 22 0 40 5 40 10 0 6 -7 10 -15 10 -8 0
-15 5 -15 10 0 6 10 10 23 10 38 0 59 22 59 63 0 62 -10 67 -138 67 -69 0
-114 -4 -114 -10z m215 -30 c9 -27 -3 -60 -21 -60 -19 0 -28 24 -20 55 8 30
32 33 41 5z"/>
<path d="M2150 6250 c-8 -6 -28 -15 -43 -20 -34 -12 -31 -34 6 -38 l27 -3 0
-99 c0 -98 0 -100 -25 -106 -14 -3 -25 -12 -25 -20 0 -11 19 -14 85 -14 67 0
85 3 85 14 0 8 -12 17 -27 20 l-28 6 0 133 c0 125 -1 132 -20 134 -11 1 -27
-2 -35 -7z"/>
<path d="M2338 6239 c-35 -26 -61 -109 -52 -165 14 -86 64 -138 123 -128 68
12 101 64 101 159 0 100 -40 155 -110 155 -19 0 -47 -10 -62 -21z m80 -17 c19
-13 29 -60 27 -132 -2 -73 -17 -110 -44 -110 -29 0 -40 22 -47 87 -8 71 1 126
22 148 17 17 24 18 42 7z"/>
<path d="M2284 5706 c-43 -43 -47 -100 -10 -143 21 -24 32 -28 75 -28 58 0 66
-15 31 -53 -27 -28 -48 -28 -52 1 -5 38 -67 33 -68 -5 0 -23 43 -48 84 -48 81
0 130 72 124 183 -3 63 -7 72 -36 98 -47 43 -102 41 -148 -5z m100 -12 c19
-18 22 -94 4 -112 -18 -18 -46 -14 -58 7 -15 30 -12 82 7 103 20 22 27 22 47
2z"/>
<path d="M2325 5223 c-58 -14 -83 -83 -49 -132 15 -21 15 -24 -5 -42 -14 -14
-21 -32 -21 -59 0 -33 5 -41 34 -59 94 -59 227 21 181 109 -8 15 -22 31 -32
34 -11 5 -13 10 -7 14 15 9 34 47 34 66 0 43 -78 83 -135 69z m69 -49 c19 -19
19 -24 1 -48 -12 -16 -20 -18 -41 -10 -15 5 -32 16 -37 26 -24 37 44 66 77 32z
m9 -156 c23 -27 18 -49 -14 -67 -22 -12 -29 -12 -55 0 -36 18 -42 51 -14 79
24 24 55 20 83 -12z"/>
<path d="M2360 4714 c0 -13 -8 -15 -39 -10 -38 5 -39 5 -45 -32 -9 -59 -7 -82
8 -82 8 0 19 14 25 30 9 27 14 30 55 30 26 0 46 -2 46 -4 0 -3 -13 -24 -29
-48 -47 -69 -65 -124 -54 -161 7 -25 14 -32 33 -32 24 0 25 3 26 65 2 65 20
115 66 182 29 42 24 60 -15 53 -24 -5 -39 -2 -50 9 -20 20 -27 20 -27 0z"/>
<path d="M2305 4169 c-74 -65 -76 -231 -3 -270 12 -6 43 -9 71 -6 69 6 100 42
94 106 -7 62 -40 93 -101 93 -50 0 -56 9 -30 46 21 31 54 29 54 -3 0 -20 5
-25 25 -25 47 0 54 58 9 79 -43 19 -81 13 -119 -20z m85 -128 c24 -46 1 -121
-36 -121 -31 0 -47 77 -24 119 14 26 46 27 60 2z"/>
<path d="M2280 3634 c0 -27 -3 -66 -6 -86 -8 -43 5 -49 36 -18 39 39 82 15 84
-47 1 -46 -17 -73 -49 -73 -29 0 -36 9 -23 30 27 42 -27 70 -56 29 -23 -33 2
-75 53 -89 86 -23 158 38 140 119 -12 54 -52 84 -106 79 -34 -2 -43 0 -43 13
0 11 12 18 40 22 40 5 100 40 100 59 0 7 -12 8 -32 3 -18 -4 -42 -8 -53 -8
-11 0 -35 4 -52 8 l-33 8 0 -49z"/>
<path d="M2318 3071 c-43 -55 -78 -107 -78 -115 0 -13 12 -16 60 -16 53 0 60
-2 60 -20 0 -13 -7 -20 -20 -20 -11 0 -20 -7 -20 -15 0 -12 13 -15 59 -15 33
0 66 -3 75 -6 11 -4 16 -1 16 11 0 9 -9 19 -20 22 -11 3 -20 14 -20 24 0 12 7
19 20 19 12 0 20 7 20 16 0 9 -9 18 -20 21 -21 6 -21 6 -24 118 -1 53 -5 70
-16 73 -9 1 -47 -38 -92 -97z m42 -51 c0 -38 -2 -40 -30 -40 -16 0 -30 3 -30
7 0 8 49 73 56 73 2 0 4 -18 4 -40z"/>
<path d="M2310 2652 c-34 -10 -59 -56 -44 -79 6 -10 22 -18 35 -18 21 0 24 4
21 33 -2 29 0 32 28 32 65 0 57 -80 -10 -95 -16 -4 -32 -11 -36 -16 -5 -10 2
-13 49 -23 37 -9 54 -50 32 -82 -15 -24 -39 -30 -70 -18 -14 6 -14 8 2 26 19
22 9 50 -21 56 -44 9 -63 -61 -26 -98 30 -30 125 -28 161 3 40 33 44 69 13
106 l-26 31 21 26 c27 34 26 57 -1 88 -25 28 -84 40 -128 28z"/>
<path d="M2313 2130 c-53 -22 -68 -101 -21 -116 33 -10 53 22 33 53 -15 22
-14 24 10 35 22 10 29 9 46 -9 33 -33 18 -74 -47 -130 -52 -43 -84 -87 -84
-113 0 -7 34 -10 103 -8 l102 3 0 44 c0 51 -20 66 -35 27 -8 -23 -15 -26 -57
-25 l-48 0 35 27 c86 68 110 98 110 139 0 27 -6 46 -20 58 -22 20 -95 29 -127
15z"/>
<path d="M2330 1604 c-14 -7 -33 -14 -42 -14 -10 0 -18 -7 -18 -15 0 -9 9 -15
24 -15 30 0 32 -6 28 -117 -3 -91 -4 -93 -28 -93 -18 0 -24 -5 -24 -21 0 -20
4 -21 85 -17 46 2 87 7 91 10 11 12 -7 28 -32 28 -22 0 -24 4 -25 43 -2 241
-3 243 -59 211z"/>
<path d="M12994 750 c-39 -16 -42 -60 -3 -60 12 0 19 7 19 20 0 21 14 27 24
11 10 -16 -5 -41 -25 -41 -10 0 -19 -6 -19 -14 0 -8 -7 -16 -15 -20 -18 -7
-20 -47 -3 -64 19 -19 76 -14 99 9 20 20 19 56 -3 70 -6 4 -6 9 1 13 6 4 11
21 11 37 0 22 -6 32 -26 39 -29 12 -32 12 -60 0z m42 -115 c7 -17 -14 -48 -27
-40 -4 3 -5 13 -2 21 3 9 0 20 -8 25 -11 6 -8 9 9 9 12 0 25 -7 28 -15z"/>
<path d="M7583 720 c-29 -12 -55 -53 -51 -81 4 -30 33 -47 55 -33 24 15 26 29
7 49 -15 14 -15 18 -3 26 8 5 25 8 39 7 22 -3 25 -9 28 -44 3 -38 -1 -45 -44
-83 -53 -46 -94 -102 -94 -125 0 -13 16 -16 100 -16 l100 0 0 50 c0 38 -4 50
-15 50 -8 0 -15 -9 -15 -20 0 -26 -16 -32 -71 -28 l-44 3 63 48 c34 27 69 62
78 78 41 80 -43 155 -133 119z"/>
<path d="M7915 683 c-3 -27 -8 -65 -10 -85 -6 -44 6 -55 30 -28 19 21 51 26
74 11 18 -11 20 -94 2 -115 -15 -17 -56 -22 -66 -7 -3 5 -1 12 5 16 13 8 13
42 -1 50 -5 4 -21 4 -35 1 -26 -7 -33 -41 -14 -76 13 -24 66 -42 107 -34 74
14 113 123 61 171 -36 33 -68 45 -99 39 -24 -5 -29 -2 -29 14 0 16 7 20 36 20
45 0 94 28 94 53 0 14 -4 17 -17 12 -34 -14 -100 -18 -107 -6 -14 22 -25 10
-31 -36z"/>
<path d="M10747 688 c-15 -24 -45 -68 -67 -98 -22 -30 -38 -64 -37 -75 2 -17
9 -20 55 -19 44 1 52 -2 52 -18 0 -11 -7 -18 -20 -18 -13 0 -20 -7 -20 -20 0
-18 7 -20 70 -20 63 0 70 2 70 20 0 13 -7 20 -20 20 -11 0 -20 6 -20 14 0 8 9
18 20 21 11 3 20 13 20 21 0 8 -9 14 -20 14 -19 0 -20 7 -20 100 0 89 -2 100
-18 100 -9 0 -30 -19 -45 -42z m0 -155 c-3 -2 -19 -3 -36 -1 l-30 3 32 41 32
42 3 -40 c2 -22 1 -42 -1 -45z"/>
<path d="M11035 706 c-42 -43 -58 -146 -31 -210 32 -77 118 -101 170 -47 61
63 52 236 -13 271 -36 19 -100 12 -126 -14z m94 -20 c6 -7 14 -42 17 -77 10
-109 -24 -185 -65 -144 -24 24 -29 177 -7 210 18 28 38 32 55 11z"/>
<path d="M12356 643 c-20 -48 -44 -106 -54 -128 -9 -22 -29 -64 -44 -93 -33
-61 -34 -72 -10 -72 12 0 26 20 46 68 16 37 49 109 73 161 46 97 57 141 37
148 -6 2 -28 -36 -48 -84z"/>
<path d="M2280 690 c-60 -65 -53 -209 14 -262 26 -22 84 -23 114 -2 70 49 78
189 16 264 -22 25 -33 30 -71 30 -37 0 -50 -5 -73 -30z m100 -15 c21 -25 25
-154 7 -198 -43 -102 -105 26 -75 155 12 57 42 75 68 43z"/>
<path d="M3425 687 c-85 -85 -36 -283 69 -279 51 2 71 16 95 65 73 152 -57
321 -164 214z m99 -19 c23 -33 22 -184 -1 -210 -45 -49 -76 1 -72 115 5 110
35 149 73 95z"/>
<path d="M3786 698 c-3 -13 -7 -51 -10 -85 -6 -69 0 -76 41 -44 43 35 73 11
73 -59 0 -50 -13 -70 -45 -70 -28 0 -37 10 -24 26 6 7 8 23 4 34 -5 16 -14 20
-33 18 -22 -2 -28 -9 -30 -35 -8 -80 122 -107 178 -36 44 56 12 156 -54 168
-19 4 -44 4 -55 0 -17 -5 -21 -2 -21 14 0 17 6 21 33 21 39 0 97 33 97 56 0
12 -5 15 -22 9 -45 -14 -86 -17 -92 -6 -12 19 -35 12 -40 -11z"/>
<path d="M4510 705 c-14 -8 -35 -14 -47 -15 -16 0 -23 -6 -23 -20 0 -15 7 -20
24 -20 31 0 35 -15 33 -112 -2 -80 -7 -93 -35 -93 -9 0 -17 -7 -17 -15 0 -12
16 -15 84 -15 86 0 121 16 61 28 l-30 7 0 135 c0 145 -1 148 -50 120z"/>
<path d="M4832 704 c-35 -24 -53 -71 -54 -137 -1 -77 20 -131 61 -151 38 -20
54 -20 92 0 63 32 89 157 49 239 -30 62 -98 84 -148 49z m82 -36 c19 -26 22
-177 6 -209 -12 -22 -43 -25 -59 -5 -29 34 -25 191 5 221 21 20 30 19 48 -7z"/>
<path d="M5546 705 c-11 -8 -29 -15 -41 -15 -27 0 -35 -8 -28 -26 3 -8 16 -14
29 -14 l25 0 -3 -102 -3 -103 -27 -3 c-16 -2 -28 -9 -28 -18 0 -11 19 -14 90
-14 70 0 90 3 90 14 0 7 -13 16 -30 20 l-30 6 0 135 c0 142 -3 151 -44 120z"/>
<path d="M5856 712 c-2 -4 -7 -45 -11 -91 -8 -82 -8 -83 13 -72 12 6 24 16 27
21 11 17 54 11 65 -9 5 -11 10 -34 10 -51 0 -48 -16 -70 -51 -70 -26 0 -30 3
-24 18 8 20 8 21 6 45 -2 28 -49 22 -63 -8 -9 -19 -7 -29 6 -50 48 -74 169
-49 189 39 18 74 -45 146 -114 131 -25 -6 -29 -4 -29 14 0 17 6 21 30 21 38 0
85 23 94 46 9 24 0 29 -29 16 -32 -15 -82 -16 -90 -2 -7 12 -22 13 -29 2z"/>
<path d="M6543 706 c-24 -11 -33 -23 -39 -50 -9 -50 0 -68 33 -64 32 4 46 44
18 54 -22 9 0 34 29 34 30 0 46 -19 46 -54 0 -23 -13 -42 -58 -85 -58 -55 -92
-100 -92 -121 0 -7 35 -10 103 -8 l102 3 0 45 c0 33 -4 45 -15 45 -8 0 -16
-10 -18 -22 -3 -21 -9 -23 -55 -22 l-52 0 39 32 c96 78 106 92 106 141 0 37
-4 48 -24 61 -35 23 -86 27 -123 11z"/>
<path d="M6895 698 c-83 -65 -70 -258 21 -288 71 -24 118 6 140 89 20 77 1
166 -43 201 -34 26 -83 26 -118 -2z m92 -48 c7 -14 13 -54 13 -90 0 -36 -6
-76 -13 -90 -15 -31 -52 -38 -65 -13 -15 27 -17 164 -3 196 14 35 50 34 68 -3z"/>
<path d="M8616 699 c-33 -26 -36 -74 -6 -84 29 -9 42 4 38 36 -6 36 24 49 53
23 35 -32 14 -78 -40 -86 -14 -1 -26 -9 -29 -15 -4 -13 3 -17 50 -27 19 -4 28
-14 33 -37 9 -42 -21 -75 -60 -65 -22 6 -25 10 -15 21 6 8 10 24 8 37 -2 18
-9 23 -33 23 -28 0 -30 -3 -33 -41 -4 -57 22 -79 95 -78 45 1 59 6 81 27 35
35 35 92 0 122 l-24 21 23 17 c38 30 29 88 -18 112 -40 21 -92 19 -123 -6z"/>
<path d="M8972 691 c-90 -90 -43 -286 68 -286 68 0 113 63 112 155 -1 68 -14
103 -48 135 -39 36 -93 34 -132 -4z m94 -22 c16 -18 19 -36 18 -109 0 -92 -11
-120 -44 -120 -34 0 -45 29 -45 120 0 72 3 92 19 109 24 26 28 26 52 0z"/>
<path d="M9645 695 c-30 -29 -32 -60 -6 -75 38 -20 70 17 40 47 -16 16 25 27
51 13 21 -11 26 -45 11 -68 -5 -8 -24 -17 -42 -21 -41 -8 -47 -36 -7 -36 36
-1 58 -22 58 -56 0 -32 -23 -59 -50 -59 -26 0 -33 15 -18 39 22 36 -29 70 -60
39 -33 -33 1 -100 56 -111 108 -21 186 76 117 145 -25 25 -25 25 -5 43 30 27
26 78 -6 104 -39 31 -107 29 -139 -4z"/>
<path d="M10007 713 c-2 -4 -8 -43 -12 -85 -6 -68 -5 -78 9 -78 9 0 16 5 16
10 0 6 11 15 24 21 36 17 63 -3 71 -50 7 -45 -9 -79 -42 -87 -30 -8 -47 4 -33
21 18 21 2 55 -24 55 -50 0 -57 -50 -13 -90 15 -14 35 -20 70 -20 40 0 53 5
78 29 24 24 29 38 29 76 0 38 -5 52 -30 77 -26 26 -36 30 -75 26 -36 -2 -45 0
-45 13 0 12 12 18 42 22 64 9 128 67 65 59 -52 -6 -74 -5 -98 2 -15 4 -29 4
-32 -1z"/>
<path d="M11598 633 c-38 -24 -47 -54 -49 -168 -2 -138 -3 -135 26 -135 23 0
25 3 25 49 l0 49 38 -5 c97 -13 149 136 70 202 -34 29 -72 31 -110 8z m79 -43
c16 -32 17 -112 1 -128 -21 -21 -47 -13 -63 18 -17 34 -20 93 -4 121 14 27 50
21 66 -11z"/>
<path d="M12037 633 c-13 -12 -7 -33 8 -33 12 0 15 -14 15 -70 0 -56 -3 -70
-15 -70 -8 0 -15 -9 -15 -21 0 -18 5 -20 55 -18 46 2 55 5 55 21 0 10 -7 18
-15 18 -12 0 -15 14 -15 70 l0 70 30 0 c26 0 31 -5 37 -30 10 -51 33 -37 33
20 l0 50 -83 0 c-46 0 -87 -3 -90 -7z"/>
<path d="M12487 625 c-28 -21 -46 -81 -36 -124 17 -76 104 -107 154 -56 26 25
33 55 14 55 -7 0 -23 -12 -36 -26 -22 -24 -26 -25 -45 -12 -47 31 -39 139 11
146 18 3 22 0 18 -12 -10 -25 3 -46 28 -46 21 0 35 17 35 41 0 5 -9 18 -20 29
-24 24 -95 27 -123 5z"/>
<path d="M12655 629 c-4 -6 0 -16 10 -22 11 -9 17 -30 19 -67 3 -64 -1 -80
-20 -80 -8 0 -14 -7 -14 -15 0 -11 12 -15 50 -15 38 0 50 4 50 15 0 8 -7 15
-15 15 -11 0 -15 12 -15 53 l1 52 19 -42 c11 -23 24 -53 30 -67 10 -26 40 -36
40 -13 1 8 4 7 9 -3 12 -20 121 -15 121 6 0 8 -7 14 -15 14 -12 0 -15 14 -15
70 0 56 3 70 15 70 8 0 15 9 15 21 0 18 -5 20 -52 17 l-53 -3 -19 -54 -20 -54
-12 29 c-6 16 -17 41 -23 57 -9 24 -16 27 -55 27 -25 0 -48 -5 -51 -11z m205
-108 c0 -50 -3 -59 -20 -64 -12 -3 -20 0 -20 8 0 15 32 115 37 115 1 0 3 -26
3 -59z"/>
<path d="M10898 489 c-25 -14 -23 -48 3 -57 19 -7 19 -9 5 -21 -17 -15 -22
-51 -7 -51 19 0 60 45 66 72 5 19 1 32 -14 47 -24 24 -29 25 -53 10z"/>
<path d="M11813 493 c-18 -7 -16 -52 2 -60 14 -5 14 -8 0 -29 -19 -29 -19 -34
0 -34 25 0 65 50 65 81 0 36 -32 57 -67 42z"/>
<path d="M7767 483 c-13 -12 -7 -42 11 -52 14 -8 15 -13 5 -30 -28 -45 -7 -56
32 -16 29 29 35 89 9 99 -21 8 -49 8 -57 -1z"/>
<path d="M3641 466 c-14 -16 -4 -46 15 -46 18 0 18 -14 -1 -30 -17 -14 -20
-40 -4 -40 6 0 24 13 40 29 30 31 38 68 17 89 -16 16 -53 15 -67 -2z"/>
<path d="M4670 465 c-15 -18 -6 -45 15 -45 19 0 19 -14 0 -30 -17 -14 -20 -40
-4 -40 6 0 24 13 40 29 30 31 38 68 17 89 -17 17 -53 15 -68 -3z"/>
<path d="M5707 474 c-13 -14 -7 -54 8 -54 17 0 20 -25 5 -35 -13 -8 -13 -35 0
-35 6 0 22 11 36 25 20 20 25 34 22 63 -3 33 -6 37 -33 40 -17 2 -34 0 -38 -4z"/>
<path d="M6743 473 c-22 -8 -15 -50 9 -56 l22 -6 -22 -24 c-20 -21 -21 -37 -2
-37 4 0 19 11 34 25 53 49 22 124 -41 98z"/>
<path d="M8827 473 c-13 -12 -7 -42 10 -52 17 -9 17 -10 0 -28 -40 -45 -6 -59
36 -15 28 30 35 70 15 90 -13 13 -50 16 -61 5z"/>
<path d="M9857 473 c-14 -14 -6 -44 14 -51 20 -8 20 -10 5 -24 -15 -16 -22
-48 -10 -48 17 0 46 24 59 50 21 42 6 80 -33 80 -16 0 -32 -3 -35 -7z"/>
</g>
</svg>
