<?xml version="1.0" standalone="no"?>
<!DOCTYPE svg PUBLIC "-//W3C//DTD SVG 20010904//EN"
 "http://www.w3.org/TR/2001/REC-SVG-20010904/DTD/svg10.dtd">
<svg version="1.0" xmlns="http://www.w3.org/2000/svg"
 width="732.119291pt" height="307.109588pt" viewBox="0 0 732.119291 307.109588"
 preserveAspectRatio="xMidYMid meet">
<metadata>
Created by potrace 1.16, written by Peter Selinger 2001-2019
</metadata>
<g transform="translate(-11.126562,319.109588) scale(0.100000,-0.100000)"
fill="#000000" stroke="none">
<path d="M2106 3160 c-14 -17 -32 -54 -41 -82 -18 -62 -19 -71 -4 -66 6 2 20
30 29 62 29 92 79 127 101 70 7 -21 -1 -68 -40 -228 -40 -165 -47 -203 -36
-215 7 -7 21 -10 33 -7 16 6 27 36 62 176 36 144 48 177 77 216 58 75 156 107
187 62 24 -34 20 -75 -25 -259 -23 -93 -39 -175 -35 -184 8 -21 43 -19 55 3 6
10 28 89 49 176 28 109 48 169 67 197 52 75 151 112 189 70 29 -32 22 -103
-24 -244 -22 -68 -40 -132 -40 -141 0 -10 13 -31 29 -47 35 -34 72 -37 117
-10 46 28 108 161 75 161 -5 0 -15 -17 -21 -37 -18 -57 -46 -98 -75 -111 -35
-16 -43 -15 -55 8 -8 15 0 50 35 160 56 176 58 219 11 266 -29 29 -41 34 -80
34 -61 0 -111 -22 -152 -65 l-33 -36 -7 25 c-9 39 -48 68 -97 73 -58 7 -111
-11 -158 -54 -30 -27 -39 -31 -39 -18 0 9 -13 30 -29 46 -41 41 -90 40 -125
-1z"/>
<path d="M3125 3029 c-16 -10 -42 -19 -57 -19 -16 0 -28 -5 -28 -11 0 -8 14
-10 45 -6 l45 7 -2 -218 -3 -217 -42 -3 c-24 -2 -43 -7 -43 -13 0 -5 50 -9
115 -9 65 0 115 4 115 9 0 6 -19 11 -42 13 l-43 3 -3 243 c-3 262 -1 257 -57
221z"/>
<path d="M1698 2020 c-1 -231 -2 -439 -3 -462 0 -37 3 -43 23 -46 12 -2 22 -8
22 -15 0 -8 3 -8 12 1 8 8 47 12 107 12 l96 0 -108 -108 c-88 -88 -107 -113
-107 -137 0 -28 9 -21 138 108 l137 137 100 0 100 0 -185 -185 c-171 -171
-183 -185 -155 -185 26 0 57 27 215 185 l185 185 95 0 95 0 -185 -185 c-171
-171 -183 -185 -155 -185 26 0 57 27 215 185 l185 185 95 0 95 0 -185 -185
c-170 -171 -182 -185 -155 -185 25 0 58 28 215 184 l185 184 98 6 c53 4 97 3
97 -1 0 -4 -82 -90 -182 -190 -169 -169 -181 -183 -153 -183 26 0 58 28 220
190 l190 190 87 0 c49 0 88 -3 88 -7 0 -4 -82 -90 -182 -190 -168 -168 -180
-183 -153 -183 25 0 59 29 220 190 l191 190 94 0 95 0 -190 -190 c-174 -174
-187 -190 -160 -190 25 0 59 29 220 190 l191 190 92 0 c51 0 92 -3 92 -7 0 -4
-82 -90 -182 -190 -169 -169 -181 -183 -153 -183 26 0 58 28 220 190 l190 190
87 0 c49 0 88 -3 88 -7 0 -4 -82 -90 -182 -190 -168 -168 -180 -183 -153 -183
25 0 59 29 220 190 l191 190 94 0 95 0 -190 -190 c-174 -174 -187 -190 -160
-190 25 0 59 29 220 190 l191 190 92 0 c51 0 92 -3 92 -7 0 -4 -82 -90 -182
-190 -169 -169 -181 -183 -153 -183 26 0 58 28 220 190 l190 190 87 0 c49 0
88 -3 88 -7 0 -4 -82 -90 -182 -190 -168 -168 -180 -183 -153 -183 25 1 61 31
224 190 l194 190 91 0 91 0 -189 -189 c-182 -182 -187 -188 -160 -194 27 -5
43 9 211 181 l182 187 1 -100 0 -100 -190 -190 c-135 -134 -190 -196 -190
-212 0 -13 3 -23 7 -23 4 0 90 82 190 182 l183 183 0 -95 0 -95 -190 -190
c-162 -162 -190 -194 -190 -220 0 -28 14 -15 190 160 l190 190 0 -100 0 -100
-190 -190 c-135 -134 -190 -196 -190 -212 0 -13 3 -23 7 -23 4 0 90 82 190
182 l183 183 0 -95 0 -95 -185 -185 c-102 -102 -185 -188 -185 -192 0 -5 10
-8 22 -8 16 0 72 49 185 162 l163 163 0 -95 0 -94 -67 -68 c-66 -67 -67 -68
-38 -68 20 0 41 11 67 37 l38 37 0 -57 0 -57 40 0 40 0 0 680 0 680 44 -34
c121 -92 304 -86 409 12 l27 26 0 -222 0 -222 -140 0 -140 0 0 -460 0 -460
320 0 320 0 0 460 0 460 -140 0 -141 0 1 358 c2 342 1 359 -19 413 -29 75 -88
141 -159 176 l-57 28 -1277 3 -1278 2 0 210 0 210 -600 0 -600 0 -2 -420z
m1112 -40 l0 -380 -515 0 -515 0 0 373 c0 206 3 377 7 380 3 4 235 7 515 7
l508 0 0 -380z m2317 -72 c-58 -77 -71 -118 -72 -215 l0 -93 -1077 0 -1078 0
0 170 0 170 1126 0 1125 0 -24 -32z m336 9 c90 -38 141 -117 141 -217 0 -137
-96 -234 -234 -234 -69 0 -103 12 -160 60 l-32 28 83 42 c46 24 96 43 111 43
34 1 58 25 58 58 0 60 -71 85 -107 39 -11 -13 -56 -42 -101 -65 l-82 -41 -1
32 c-6 118 38 205 123 247 51 25 151 29 201 8z m427 -1337 l0 -380 -237 2
-238 3 -3 365 c-1 201 0 371 3 377 3 10 60 13 240 13 l235 0 0 -380z"/>
<path d="M186 2002 c-38 -114 -71 -214 -74 -222 -4 -8 19 6 50 33 30 26 58 47
62 47 3 0 6 -389 6 -865 l0 -865 30 0 30 0 0 872 0 872 50 -49 c27 -27 52 -47
54 -44 6 6 -122 410 -133 421 -3 4 -37 -86 -75 -200z"/>
<path d="M1133 1504 c-3 -9 -1 -30 4 -45 l11 -29 -191 0 c-186 0 -227 -6 -213
-29 5 -7 68 -11 197 -11 104 0 189 -4 189 -8 0 -5 -11 -19 -25 -32 -29 -27
-31 -38 -10 -46 9 -4 28 8 47 28 18 18 46 42 62 54 l29 20 -20 20 c-11 10 -28
33 -37 51 -20 40 -34 49 -43 27z"/>
<path d="M832 1189 c-70 -35 -148 -141 -167 -228 -10 -49 -7 -138 6 -163 50
-97 143 -114 227 -42 l42 35 9 -24 c23 -60 100 -76 143 -29 23 25 58 108 58
139 0 32 -20 8 -34 -40 -20 -68 -51 -109 -80 -105 -35 5 -32 64 15 253 23 94
40 179 36 188 -9 25 -46 21 -58 -6 l-11 -23 -33 33 c-40 40 -88 44 -153 12z
m139 -28 c36 -37 37 -61 4 -194 -34 -135 -41 -151 -85 -191 -66 -59 -140 -55
-156 10 -18 71 26 256 78 331 52 76 110 92 159 44z"/>
<path d="M6236 1070 c-14 -17 -32 -54 -41 -82 -18 -62 -19 -71 -4 -66 6 2 20
30 29 62 29 92 79 127 101 70 7 -21 -1 -68 -40 -228 -40 -165 -47 -203 -36
-215 7 -7 21 -10 33 -7 16 6 27 36 62 176 36 144 48 177 77 216 58 75 156 107
187 62 24 -34 20 -75 -25 -259 -23 -93 -39 -175 -35 -184 8 -21 43 -19 55 3 6
10 28 89 49 176 28 109 48 169 67 197 52 75 151 112 189 70 29 -32 22 -103
-24 -244 -22 -68 -40 -132 -40 -141 0 -10 13 -31 29 -47 35 -34 72 -37 117
-10 46 28 108 161 75 161 -5 0 -15 -17 -21 -37 -18 -57 -46 -98 -75 -111 -35
-16 -43 -15 -55 8 -8 15 0 50 35 160 56 176 58 219 11 266 -29 29 -41 34 -80
34 -61 0 -111 -22 -152 -65 l-33 -36 -7 25 c-9 39 -48 68 -97 73 -58 7 -111
-11 -158 -54 -30 -27 -39 -31 -39 -18 0 9 -13 30 -29 46 -41 41 -90 40 -125
-1z"/>
<path d="M7245 949 c-40 -11 -74 -43 -92 -87 -20 -47 -10 -82 22 -82 20 0 25
5 25 26 0 17 -6 28 -20 31 -18 5 -18 8 -6 32 22 41 52 63 90 64 70 2 116 -47
116 -124 0 -63 -28 -111 -140 -239 -55 -63 -100 -118 -100 -122 0 -5 63 -8
139 -8 l140 0 6 55 c8 63 1 85 -9 30 l-7 -35 -111 0 -112 0 111 113 c60 61
116 123 123 136 19 38 16 119 -7 150 -39 51 -111 77 -168 60z"/>
</g>
</svg>
