<?xml version="1.0" standalone="no"?>
<!DOCTYPE svg PUBLIC "-//W3C//DTD SVG 20010904//EN"
 "http://www.w3.org/TR/2001/REC-SVG-20010904/DTD/svg10.dtd">
<svg version="1.0" xmlns="http://www.w3.org/2000/svg"
 width="408.798630pt" height="340.938091pt" viewBox="0 0 408.798630 340.938091"
 preserveAspectRatio="xMidYMid meet">
<metadata>
Created by potrace 1.16, written by Peter Selinger 2001-2019
</metadata>
<g transform="translate(-20.178532,345.000000) scale(0.100000,-0.100000)"
fill="#000000" stroke="none">
<path d="M588 3419 c2 -17 0 -40 -5 -52 -19 -42 -43 -122 -43 -144 0 -13 -4
-23 -10 -23 -5 0 -10 -11 -10 -25 0 -14 -4 -25 -10 -25 -5 0 -10 -7 -10 -15 0
-8 -4 -15 -10 -15 -5 0 -10 -4 -10 -9 0 -4 18 -8 40 -8 36 0 40 2 40 26 0 14
5 43 11 64 8 29 13 36 25 29 19 -10 64 -4 64 9 0 5 -16 9 -35 9 -40 0 -41 6
-19 70 40 117 156 153 123 38 -7 -24 -23 -54 -36 -69 -23 -25 -30 -49 -15 -49
10 0 73 69 90 97 19 36 16 100 -7 113 -32 16 -73 12 -98 -12 l-23 -21 0 21 c0
17 -6 22 -28 22 -26 0 -28 -3 -24 -31z"/>
<path d="M915 3360 c-68 -131 -99 -187 -111 -201 -20 -23 -8 -29 58 -29 l59 0
-1 -252 c-1 -139 -1 -704 0 -1255 l0 -1003 1493 -2 1492 -3 -3 -52 c-1 -28 1
-54 5 -56 8 -5 24 2 119 55 27 15 68 37 91 48 24 12 40 26 37 33 -2 7 -26 22
-52 35 -53 26 -126 66 -160 88 -34 22 -45 8 -40 -52 l5 -54 -374 0 c-291 0
-373 3 -374 13 -1 6 -1 28 0 47 1 19 -3 41 -8 49 -17 25 -31 0 -31 -55 l0 -54
-585 0 -584 0 -3 58 c-2 43 -7 57 -18 57 -11 0 -16 -14 -18 -57 l-3 -58 -474
0 -475 0 0 375 0 375 51 0 c43 0 50 3 47 18 -2 13 -15 18 -51 20 l-47 3 0 589
0 589 53 3 c44 3 52 6 52 23 0 17 -8 20 -52 23 l-53 3 0 225 0 224 60 0 c33 0
60 2 60 5 0 3 -27 53 -60 111 -33 58 -60 109 -60 114 0 4 -6 13 -14 19 -12 10
-18 7 -31 -19z"/>
<path d="M1808 3149 c-16 -11 -28 -28 -28 -36 0 -14 2 -14 18 0 28 25 60 21
74 -8 10 -22 8 -29 -17 -55 -15 -16 -37 -30 -49 -32 -25 -4 -25 -19 1 -33 10
-5 21 -14 25 -20 12 -16 9 -90 -4 -103 -16 -16 -71 -15 -86 0 -9 10 -16 9 -29
-4 -37 -38 42 -65 99 -35 34 17 52 37 72 76 15 27 16 38 6 62 -7 15 -18 34
-26 40 -18 15 -18 29 0 29 20 0 56 53 56 83 0 27 -36 57 -67 57 -10 0 -30 -10
-45 -21z"/>
<path d="M280 2943 c-26 -10 -60 -46 -60 -65 0 -24 12 -23 28 3 10 15 21 19
49 17 71 -6 72 -75 0 -106 l-42 -19 40 -13 c54 -17 63 -26 71 -66 9 -47 -16
-74 -67 -74 -21 0 -41 5 -44 10 -8 13 -42 13 -50 0 -22 -36 86 -55 144 -26 63
33 84 127 36 168 -28 24 -32 46 -10 54 10 4 15 20 15 44 0 58 -54 94 -110 73z"/>
<path d="M620 2822 c-13 -2 -32 -13 -42 -25 l-18 -20 0 21 c0 18 -6 22 -34 22
-19 0 -38 -4 -41 -10 -3 -5 -1 -10 4 -10 22 0 2 -121 -29 -181 -5 -9 -12 -34
-15 -55 -4 -24 -17 -48 -33 -61 l-27 -23 58 0 c51 0 76 12 46 22 -18 6 -1 88
18 88 11 0 13 7 8 30 -4 17 -2 36 3 43 5 7 12 26 16 42 8 33 43 75 62 75 7 0
14 6 17 13 8 26 37 -14 37 -53 0 -36 -48 -120 -69 -120 -5 0 -11 -7 -14 -15
-9 -23 42 0 79 36 78 76 61 196 -26 181z"/>
<path d="M1899 2707 c-28 -22 -38 -49 -26 -74 5 -13 16 -23 24 -23 10 0 13
-50 13 -265 l0 -265 -40 0 c-46 0 -49 -10 -24 -68 66 -150 64 -141 64 -338 0
-171 -1 -185 -20 -204 -24 -24 -25 -48 -4 -78 17 -25 54 -24 84 3 14 13 61 15
323 15 l307 0 0 -38 c0 -45 6 -54 29 -42 9 5 34 16 56 25 22 9 48 21 57 26 10
5 27 9 37 9 11 0 23 5 26 10 4 6 61 10 139 10 120 0 135 -2 151 -20 34 -38 95
-16 95 34 0 35 -21 56 -58 56 -35 0 -75 19 -166 79 -38 25 -82 54 -97 64 -16
11 -29 23 -29 28 0 5 -6 9 -14 9 -7 0 -28 16 -47 35 -19 19 -39 35 -44 35 -6
0 -33 23 -60 50 -27 28 -52 50 -56 50 -13 0 -129 120 -129 133 0 8 9 22 20 32
11 10 20 21 20 24 0 3 -21 14 -48 24 -26 10 -55 23 -64 28 -10 5 -24 9 -31 9
-15 0 -87 73 -87 88 0 5 -7 16 -16 23 -27 22 -115 141 -231 314 -59 86 -73
114 -73 144 0 57 -42 88 -81 58z m81 -183 c0 -4 11 -22 25 -40 14 -18 25 -37
25 -43 0 -6 4 -11 8 -11 4 0 16 -15 27 -32 10 -18 23 -37 27 -43 5 -5 41 -53
80 -105 39 -52 91 -119 116 -148 44 -53 72 -120 72 -174 0 -37 23 -45 52 -19
l22 21 46 -45 c25 -25 51 -45 56 -45 6 0 20 -11 30 -25 39 -52 366 -306 439
-341 14 -6 -15 -10 -100 -12 -76 -2 -129 2 -145 9 -50 23 -144 59 -156 59 -2
0 -4 -16 -4 -35 l0 -35 -307 0 c-240 1 -312 4 -325 14 -16 12 -18 34 -18 199
0 199 1 205 64 349 23 52 21 58 -24 58 l-40 0 0 240 c1 211 3 239 15 226 8 -8
15 -18 15 -22z"/>
<path d="M1124 2665 c-11 -26 7 -35 72 -35 62 0 64 1 64 25 0 24 -2 25 -65 25
-48 0 -67 -4 -71 -15z"/>
<path d="M1326 2663 c-11 -26 7 -34 70 -31 52 3 59 5 62 26 3 21 0 22 -61 22
-51 0 -66 -3 -71 -17z"/>
<path d="M1514 2665 c-11 -27 7 -35 77 -35 67 0 69 1 69 25 0 24 -2 25 -70 25
-53 0 -72 -4 -76 -15z"/>
<path d="M1724 2665 c-11 -26 10 -36 67 -33 46 3 54 6 54 23 0 17 -8 20 -58
23 -45 2 -59 0 -63 -13z"/>
<path d="M691 2591 c-16 -22 -21 -44 -21 -92 0 -57 2 -64 32 -91 32 -28 58
-36 58 -18 0 6 6 10 13 10 29 0 54 84 43 145 -7 37 -42 78 -59 68 -5 -3 -5 -8
-1 -12 21 -15 34 -54 34 -101 0 -27 -4 -50 -9 -50 -5 0 -11 -10 -13 -22 -4
-31 -39 -30 -56 2 -15 29 -11 143 7 164 8 9 8 16 2 20 -5 4 -19 -7 -30 -23z"/>
<path d="M515 1692 c-6 -4 -12 -23 -13 -42 -3 -35 -54 -212 -75 -262 -7 -16
-18 -28 -24 -28 -7 0 -13 -4 -13 -9 0 -4 25 -8 55 -8 50 0 72 10 44 19 -6 2
-8 21 -4 53 l7 50 44 -4 c27 -2 44 1 44 8 0 6 4 10 9 9 18 -6 71 44 91 84 26
54 25 92 -2 118 -29 27 -60 25 -89 -6 l-24 -26 -5 24 c-6 24 -27 34 -45 20z
m129 -84 c0 -65 -44 -122 -98 -126 -42 -4 -45 6 -20 78 19 58 61 100 94 97 23
-2 25 -6 24 -49z"/>
<path d="M3305 1534 c-29 -31 -23 -51 8 -29 64 45 122 -16 82 -85 -8 -14 -17
-31 -21 -37 -3 -7 -39 -45 -80 -85 -41 -40 -74 -76 -74 -80 0 -5 38 -8 83 -8
81 0 84 1 96 27 14 31 1 52 -19 28 -12 -14 -90 -22 -90 -9 0 4 29 35 64 69 62
60 106 129 106 166 0 9 -9 28 -21 43 -29 37 -99 37 -134 0z"/>
<path d="M724 1486 c-3 -8 -11 -13 -17 -10 -18 6 -37 -45 -37 -101 0 -66 17
-103 52 -110 42 -10 64 2 83 42 12 26 16 50 12 84 -6 47 -24 89 -39 89 -12 0
-10 -38 2 -45 6 -3 10 -28 10 -55 0 -27 -4 -52 -10 -55 -5 -3 -10 -15 -10 -25
0 -56 -56 -26 -65 34 -11 70 2 125 32 137 13 5 21 13 18 19 -9 14 -25 12 -31
-4z"/>
<path d="M1127 1443 c-4 -3 -7 -12 -7 -20 0 -10 18 -13 70 -13 70 0 81 5 58
28 -13 13 -110 17 -121 5z"/>
<path d="M1317 1444 c-4 -4 -7 -13 -7 -21 0 -10 18 -13 71 -13 62 0 70 2 67
18 -3 13 -15 18 -64 20 -33 2 -63 0 -67 -4z"/>
<path d="M1517 1443 c-4 -3 -7 -12 -7 -20 0 -9 17 -13 64 -13 64 0 92 14 65
31 -16 10 -113 12 -122 2z"/>
<path d="M1707 1444 c-4 -4 -7 -13 -7 -21 0 -10 19 -13 76 -13 66 0 75 2 72
18 -3 14 -16 18 -69 20 -35 2 -68 0 -72 -4z"/>
<path d="M1761 1366 c-15 -8 -20 -16 -12 -20 14 -9 14 -40 1 -80 -5 -17 -21
-70 -35 -118 -14 -47 -32 -92 -40 -98 -24 -20 -18 -28 26 -32 41 -4 62 8 39
22 -12 7 -10 17 18 100 3 8 6 21 8 29 4 19 44 151 55 178 6 15 4 23 -7 27 -21
8 -25 7 -53 -8z"/>
<path d="M1912 1293 c2 -53 6 -68 18 -68 12 0 16 15 18 68 3 62 1 67 -18 67
-19 0 -21 -5 -18 -67z"/>
<path d="M3120 1290 c0 -63 2 -71 18 -68 25 5 25 131 0 136 -16 3 -18 -5 -18
-68z"/>
<path d="M1910 1105 c0 -36 -1 -68 -2 -72 -2 -5 7 -9 20 -11 21 -3 22 0 22 72
0 69 -2 76 -20 76 -18 0 -20 -7 -20 -65z"/>
<path d="M3120 1094 c0 -66 2 -75 18 -72 32 6 29 148 -3 148 -12 0 -15 -16
-15 -76z"/>
<path d="M1909 956 c-2 -2 -2 -32 -1 -65 3 -52 7 -61 23 -61 17 0 19 8 19 65
0 56 -2 65 -18 65 -10 0 -21 -2 -23 -4z"/>
<path d="M3120 895 c0 -58 2 -66 18 -63 14 3 17 14 17 63 0 49 -3 60 -17 63
-16 3 -18 -5 -18 -63z"/>
<path d="M704 669 c-3 -5 6 -13 19 -18 19 -7 26 -19 30 -48 9 -63 -3 -126 -31
-173 -21 -33 -74 -90 -85 -90 -4 0 -15 -7 -24 -15 -14 -14 -13 -15 13 -9 71
17 131 72 165 151 27 63 25 115 -7 162 -24 37 -68 59 -80 40z"/>
<path d="M576 638 c-109 -72 -147 -228 -73 -295 18 -17 67 -38 67 -29 0 1 -13
18 -30 36 -40 45 -40 99 0 185 32 68 80 115 127 126 26 6 26 7 -7 8 -24 1 -50
-9 -84 -31z"/>
<path d="M2961 581 c-17 -16 -31 -36 -31 -45 0 -24 15 -19 34 9 23 34 68 34
95 -1 40 -51 20 -104 -79 -215 -33 -37 -60 -70 -60 -73 0 -3 45 -6 100 -6 88
0 100 2 110 19 18 35 12 38 -65 33 -41 -2 -75 -2 -75 1 0 3 23 29 50 56 28 28
50 57 50 66 0 8 4 15 9 15 15 0 33 69 26 98 -19 75 -105 98 -164 43z"/>
<path d="M1924 496 c-67 -37 -75 -58 -79 -214 -3 -104 -1 -124 12 -129 21 -8
38 24 34 65 l-3 32 61 0 c56 0 61 2 90 37 16 20 33 53 36 74 16 92 -78 176
-151 135z m57 -43 c16 -10 29 -25 29 -35 0 -9 5 -20 10 -23 26 -16 0 -97 -38
-115 -57 -26 -92 6 -92 84 0 102 26 127 91 89z"/>
<path d="M3276 491 c-62 -36 -71 -59 -74 -206 -2 -111 0 -134 13 -138 19 -8
35 22 35 67 l0 36 56 0 c51 0 59 3 85 33 16 17 29 40 29 49 0 9 5 20 10 23 30
19 -6 107 -56 136 -37 22 -61 22 -98 0z m60 -37 c61 -41 63 -150 2 -175 -26
-10 -35 -10 -57 2 -23 13 -26 21 -29 82 -4 101 23 131 84 91z"/>
<path d="M4102 477 l-32 -33 0 -131 c0 -84 -4 -134 -11 -139 -18 -11 7 -27 30
-19 18 5 21 14 21 61 0 58 1 60 29 42 15 -9 28 -9 61 2 56 18 83 59 88 132 4
55 3 59 -28 88 -26 25 -41 30 -79 30 -40 0 -52 -5 -79 -33z m106 -19 c6 -6 12
-17 12 -24 0 -8 5 -14 10 -14 6 0 10 -20 10 -45 0 -76 -65 -121 -112 -78 -14
13 -18 31 -18 90 0 67 2 74 23 83 23 9 54 4 75 -12z"/>
<path d="M3455 278 c-30 -26 -43 -100 -28 -157 9 -36 36 -61 50 -47 4 5 2 11
-4 13 -9 3 -13 28 -13 78 0 79 13 121 39 128 14 4 14 5 -1 6 -9 0 -29 -9 -43
-21z"/>
<path d="M3525 273 c16 -41 18 -141 2 -172 -12 -24 -13 -31 -2 -31 28 0 40 33
40 110 0 51 -5 83 -14 93 -18 22 -35 22 -26 0z"/>
<path d="M2143 273 c-21 -7 -15 -21 10 -25 30 -4 43 -59 31 -135 -8 -53 -11
-58 -36 -61 -24 -3 -28 0 -28 22 0 14 -4 28 -10 31 -14 8 -13 81 2 104 12 20
3 60 -11 45 -13 -15 -31 -75 -31 -106 0 -47 26 -97 54 -104 65 -16 96 22 96
115 0 40 -6 63 -20 81 -11 14 -20 21 -20 16 0 -6 -6 -3 -12 6 -7 9 -19 14 -25
11z"/>
</g>
</svg>
