<?xml version="1.0" encoding="UTF-8" standalone="no"?>
<svg
   width="323.00507pt"
   height="226.13567pt"
   viewBox="0 0 323.00507 226.13567"
   version="1.1"
   id="svg16"
   sodipodi:docname="450t.svg"
   inkscape:version="1.3 (0e150ed, 2023-07-21)"
   xmlns:inkscape="http://www.inkscape.org/namespaces/inkscape"
   xmlns:sodipodi="http://sodipodi.sourceforge.net/DTD/sodipodi-0.dtd"
   xmlns:xlink="http://www.w3.org/1999/xlink"
   xmlns="http://www.w3.org/2000/svg"
   xmlns:svg="http://www.w3.org/2000/svg"
   xmlns:rdf="http://www.w3.org/1999/02/22-rdf-syntax-ns#"
   xmlns:cc="http://creativecommons.org/ns#"
   xmlns:dc="http://purl.org/dc/elements/1.1/">
  <sodipodi:namedview
     id="namedview16"
     pagecolor="#ffffff"
     bordercolor="#000000"
     borderopacity="0.25"
     inkscape:showpageshadow="2"
     inkscape:pageopacity="0.0"
     inkscape:pagecheckerboard="0"
     inkscape:deskcolor="#d1d1d1"
     inkscape:document-units="pt"
     inkscape:zoom="0.63098906"
     inkscape:cx="211.57261"
     inkscape:cy="156.89654"
     inkscape:window-width="1440"
     inkscape:window-height="819"
     inkscape:window-x="0"
     inkscape:window-y="25"
     inkscape:window-maximized="0"
     inkscape:current-layer="svg16" />
  <metadata
     id="metadata1">
    <rdf:RDF>
      <cc:Work>
        <dc:type
           rdf:resource="http://purl.org/dc/dcmitype/StillImage" />
        <dc:date>2023-06-29T18:38:41.507577</dc:date>
        <dc:format>image/svg+xml</dc:format>
        <dc:creator>
          <cc:Agent>
            <dc:title>Matplotlib v3.7.1, https://matplotlib.org/</dc:title>
          </cc:Agent>
        </dc:creator>
      </cc:Work>
    </rdf:RDF>
  </metadata>
  <defs
     id="defs1">
    <style
       type="text/css"
       id="style1">*{stroke-linejoin: round; stroke-linecap: butt}</style>
  </defs>
  <g
     id="patch_2"
     transform="translate(-5.9054795,-22.920206)">
    <path
       d="m 38.593135,32.341395 3.384418,13.537675 h -3.365079 v 162.45209 h -0.03868 V 45.87907 h -3.365079 z"
       style="stroke:#000000;stroke-width:1.4;stroke-linejoin:miter"
       id="path2" />
  </g>
  <g
     id="patch_3"
     transform="translate(-5.9054795,-22.920206)">
    <path
       d="m 322.8843,208.33116 -13.53768,3.38442 V 208.3505 H 38.593135 v -0.0387 H 309.34662 v -3.36508 z"
       style="stroke:#000000;stroke-width:1.4;stroke-linejoin:miter"
       id="path3" />
  </g>
  <g
     id="patch_4"
     transform="translate(-5.9054795,-22.920206)">
    <path
       d="m 189.27166,107.87881 -3.75468,6.57069 -1.86661,-2.79992 -87.027903,58.0186 -0.02146,-0.0322 87.027903,-58.0186 -1.86661,-2.79992 z"
       clip-path="url(#p8e45a24e90)"
       style="stroke:#000000;stroke-width:1.4;stroke-linejoin:miter"
       id="path4" />
  </g>
  <g
     id="patch_5"
     transform="translate(-5.9054795,-22.920206)">
    <path
       d="m 270.66755,118.40233 -3.38441,-6.76884 h 3.36507 V 53.614884 h 0.0387 v 58.018606 h 3.36508 z"
       clip-path="url(#p8e45a24e90)"
       style="stroke:#000000;stroke-width:1.4;stroke-linejoin:miter"
       id="path5" />
  </g>
  <g
     id="patch_6"
     transform="translate(-5.9054795,-22.920206)">
    <path
       d="m 176.87081,169.65209 6.76884,-3.38442 v 3.36508 h 87.0279 v 0.0387 h -87.0279 v 3.36508 z"
       clip-path="url(#p8e45a24e90)"
       style="stroke:#000000;stroke-width:1.4;stroke-linejoin:miter"
       id="path6" />
  </g>
  <g
     id="line2d_1"
     transform="translate(-5.9054795,-22.920206)">
    <path
       d="M 96.611739,169.65209 270.66755,53.614884"
       clip-path="url(#p8e45a24e90)"
       style="fill:none;stroke:#000000;stroke-width:1.4;stroke-linecap:square"
       id="path7" />
  </g>
  <g
     id="line2d_2"
     transform="translate(-5.9054795,-22.920206)">
    <path
       d="M 270.66755,53.614884 V 169.65209"
       clip-path="url(#p8e45a24e90)"
       style="fill:none;stroke:#000000;stroke-width:1.4;stroke-linecap:square"
       id="path8" />
  </g>
  <g
     id="line2d_3"
     transform="translate(-5.9054795,-22.920206)">
    <path
       d="M 270.66755,169.65209 H 96.611739"
       clip-path="url(#p8e45a24e90)"
       style="fill:none;stroke:#000000;stroke-width:1.4;stroke-linecap:square"
       id="path9" />
  </g>
  <g
     id="line2d_4"
     transform="translate(-5.9054795,-22.920206)">
    <defs
       id="defs9">
      <path
         id="m3f4b019698"
         d="M 0,3.25 C 0.86191,3.25 1.688635,2.907559 2.298097,2.298097 2.907559,1.688635 3.25,0.86191 3.25,0 3.25,-0.86191 2.907559,-1.688635 2.298097,-2.298097 1.688635,-2.907559 0.86191,-3.25 0,-3.25 c -0.86191,0 -1.688635,0.342441 -2.298097,0.951903 C -2.907559,-1.688635 -3.25,-0.86191 -3.25,0 c 0,0.86191 0.342441,1.688635 0.951903,2.298097 C -1.688635,2.907559 -0.86191,3.25 0,3.25 Z"
         style="stroke:#000000" />
    </defs>
    <g
       clip-path="url(#p8e45a24e90)"
       id="g9">
      <use
         xlink:href="#m3f4b019698"
         x="96.61174"
         y="169.6521"
         style="stroke:#000000"
         id="use9" />
    </g>
  </g>
  <g
     id="line2d_5"
     transform="translate(-5.9054795,-22.920206)">
    <g
       clip-path="url(#p8e45a24e90)"
       id="g10">
      <use
         xlink:href="#m3f4b019698"
         x="270.66754"
         y="53.614883"
         style="stroke:#000000"
         id="use10" />
    </g>
  </g>
  <g
     id="line2d_6"
     transform="translate(-5.9054795,-22.920206)">
    <g
       clip-path="url(#p8e45a24e90)"
       id="g11">
      <use
         xlink:href="#m3f4b019698"
         x="270.66754"
         y="169.6521"
         style="stroke:#000000"
         id="use11" />
    </g>
  </g>
  <g
     id="line2d_7"
     transform="translate(-5.9054795,-22.920206)">
    <path
       d="M 38.593135,208.33116 96.611739,169.65209"
       clip-path="url(#p8e45a24e90)"
       style="fill:none;stroke:#000000;stroke-width:1.12;stroke-dasharray:4.144, 1.792;stroke-dashoffset:0"
       id="path11" />
  </g>
  <g
     id="text_1"
     transform="translate(-5.9054795,-22.920206)">
    <!-- $V$ -->
    <g
       transform="matrix(0.42,0,0,-0.42,297.40401,248.21901)"
       id="g12">
      <defs
         id="defs11">
        <path
           id="CMMI12-56"
           d="m 3962,3640 c 217,344 416,496 742,522 64,6 115,6 115,120 0,26 -13,64 -70,64 -115,0 -391,0 -506,0 -185,0 -377,0 -557,0 -51,0 -115,0 -115,-120 0,-58 58,-64 83,-64 237,-19 263,-133 263,-210 0,-95 -90,-242 -96,-248 L 1811,540 1363,3969 c 0,191 333,191 403,191 96,0 154,0 154,122 0,64 -70,64 -90,64 -108,0 -236,0 -345,0 h -359 c -467,0 -659,0 -665,0 -39,0 -115,0 -115,-116 0,-70 44,-70 147,-70 326,0 345,-58 365,-216 L 1370,24 c 19,-133 19,-152 108,-152 77,0 109,19 173,120 z"
           transform="scale(0.015625)" />
      </defs>
      <use
         xlink:href="#CMMI12-56"
         transform="scale(0.996264)"
         id="use12" />
    </g>
  </g>
  <g
     id="text_2"
     transform="translate(-5.9054795,-22.920206)">
    <!-- $p$ -->
    <g
       transform="matrix(0.42,0,0,-0.42,7.2,56.338504)"
       id="g13">
      <defs
         id="defs12">
        <path
           id="CMMI12-70"
           d="m 275,-789 c -45,-191 -70,-242 -333,-242 -76,0 -140,0 -140,-121 0,-13 6,-64 76,-64 84,0 173,0 256,0 h 276 c 134,0 460,0 595,0 38,0 115,0 115,115 0,70 -45,70 -154,70 -294,0 -313,44 -313,94 0,76 288,1156 326,1301 71,-179 243,-428 576,-428 723,0 1504,939 1504,1878 0,587 -333,1002 -813,1002 -409,0 -755,-396 -825,-485 -51,319 -301,485 -557,485 -186,0 -333,-89 -454,-332 -116,-230 -205,-619 -205,-645 0,-25 25,-57 70,-57 51,0 58,6 96,153 96,377 218,754 474,754 147,0 198,-102 198,-292 0,-152 -19,-216 -45,-330 z m 1107,2782 c 45,178 224,364 327,453 70,64 281,243 525,243 281,0 409,-281 409,-613 C 2643,1769 2464,1047 2304,715 2144,370 1850,64 1555,64 c -435,0 -505,549 -505,575 0,19 12,70 19,102 z"
           transform="scale(0.015625)" />
      </defs>
      <use
         xlink:href="#CMMI12-70"
         transform="scale(0.996264)"
         id="use13" />
    </g>
  </g>
  <g
     id="text_3"
     transform="translate(-11.90548,-22.920206)">
    <!-- 1 -->
    <g
       transform="matrix(0.42,0,0,-0.42,73.479065,166.57385)"
       id="g14">
      <defs
         id="defs13">
        <path
           id="CMR17-31"
           d="m 1702,4058 c 0,134 -6,134 -96,134 -249,-276 -627,-365 -985,-365 -19,0 -51,0 -58,-19 -6,-13 -6,-26 -6,-160 198,0 531,38 787,191 V 461 C 1344,236 1331,160 781,160 H 589 V 0 c 307,0 627,0 934,0 307,0 627,0 935,0 v 160 h -192 c -551,0 -564,70 -564,298 z"
           transform="scale(0.015625)" />
      </defs>
      <use
         xlink:href="#CMR17-31"
         transform="scale(0.996264)"
         id="use14" />
    </g>
  </g>
  <g
     id="text_4"
     transform="translate(-10.40548,-22.920206)">
    <!-- 2 -->
    <g
       transform="matrix(0.42,0,0,-0.42,288.1479,50.536644)"
       id="g15">
      <defs
         id="defs14">
        <path
           id="CMR17-32"
           d="M 2669,989 H 2554 C 2490,536 2438,459 2413,420 2381,369 1920,369 1830,369 H 602 c 230,250 678,703 1222,1228 390,370 845,805 845,1438 0,755 -602,1189 -1274,1189 -704,0 -1133,-620 -1133,-1194 0,-250 186,-282 263,-282 64,0 256,39 256,262 0,197 -167,254 -256,254 -39,0 -77,-6 -103,-19 122,545 493,813 884,813 556,0 921,-441 921,-1023 0,-556 -326,-1035 -691,-1451 L 262,146 V 0 h 2253 z"
           transform="scale(0.015625)" />
      </defs>
      <use
         xlink:href="#CMR17-32"
         transform="scale(0.996264)"
         id="use15" />
    </g>
  </g>
  <g
     id="text_5"
     transform="translate(-10.40548,-22.920206)">
    <!-- 3 -->
    <g
       transform="matrix(0.42,0,0,-0.42,288.1479,193.6492)"
       id="g16">
      <defs
         id="defs15">
        <path
           id="CMR17-33"
           d="m 1414,2157 c 570,0 820,-495 820,-1067 C 2234,320 1824,25 1453,25 1114,25 563,194 390,693 c 32,-13 64,-13 96,-13 154,0 269,102 269,268 0,185 -141,268 -269,268 -108,0 -275,-51 -275,-290 0,-591 576,-1054 1255,-1054 710,0 1254,558 1254,1213 0,622 -512,1072 -1120,1142 486,101 954,529 954,1102 0,491 -506,850 -1082,850 -582,0 -1094,-350 -1094,-850 0,-219 166,-257 249,-257 135,0 250,83 250,249 0,165 -115,248 -250,248 -25,0 -57,0 -83,-12 186,402 691,475 915,475 224,0 647,-107 647,-712 0,-177 -26,-492 -244,-770 -192,-246 -409,-246 -620,-266 -32,0 -180,-15 -205,-15 -45,-6 -71,-12 -71,-61 0,-45 7,-51 135,-51 z"
           transform="scale(0.015625)" />
      </defs>
      <use
         xlink:href="#CMR17-33"
         transform="scale(0.996264)"
         id="use16" />
    </g>
  </g>
  <defs
     id="defs16">
    <clipPath
       id="p8e45a24e90">
      <rect
         x="35.208717"
         y="7.1999998"
         width="287.67557"
         height="266.112"
         id="rect16" />
    </clipPath>
  </defs>
</svg>
