<?xml version="1.0" standalone="no"?>
<!DOCTYPE svg PUBLIC "-//W3C//DTD SVG 20010904//EN"
 "http://www.w3.org/TR/2001/REC-SVG-20010904/DTD/svg10.dtd">
<svg version="1.0" xmlns="http://www.w3.org/2000/svg"
 width="352.253744pt" height="601.436883pt" viewBox="0 0 352.253744 601.436883"
 preserveAspectRatio="xMidYMid meet">
<metadata>
Created by potrace 1.16, written by Peter Selinger 2001-2019
</metadata>
<g transform="translate(-51.909417,664.095692) scale(0.100000,-0.100000)"
fill="#000000" stroke="none">
<path d="M3455 6456 c-99 -100 -226 -230 -283 -289 -56 -59 -112 -109 -125
-112 -12 -3 -138 -4 -280 -3 l-258 3 254 260 c313 320 296 303 289 309 -20 20
-70 -23 -330 -284 l-289 -290 -134 0 c-74 0 -196 -2 -271 -4 -76 -1 -140 -1
-142 1 -5 6 161 179 377 395 86 86 157 161 157 166 0 17 -29 21 -44 7 -8 -8
-19 -15 -24 -15 -6 0 -12 -4 -14 -9 -1 -5 -100 -109 -219 -230 -119 -121 -230
-236 -247 -255 -58 -66 -50 -65 -346 -65 -148 0 -267 1 -265 4 2 2 64 66 138
142 120 125 182 190 349 365 28 31 52 58 52 62 0 3 -12 6 -26 6 -17 0 -35 -11
-52 -32 -23 -28 -236 -247 -465 -479 l-69 -69 -280 0 -281 0 74 75 c41 42 130
134 199 205 69 72 130 130 135 130 6 0 20 16 33 35 12 19 26 35 31 35 4 0 27
23 50 50 l42 50 -26 0 c-20 0 -53 -26 -137 -107 -60 -60 -117 -116 -126 -127
-100 -112 -338 -345 -355 -348 -18 -2 -23 -11 -25 -43 l-3 -40 478 2 c263 1
646 3 851 3 205 1 376 -1 380 -5 6 -6 9 -916 13 -3550 1 -706 4 -629 -29 -641
-16 -6 -42 -28 -58 -49 -25 -33 -29 -47 -29 -99 0 -68 24 -111 81 -147 67 -41
178 -9 215 62 23 45 1 41 264 45 99 1 239 3 310 4 72 1 192 1 268 1 l137 -1 0
-38 c0 -21 2 -41 5 -44 9 -8 262 52 295 70 8 5 49 17 90 27 127 30 123 33 -95
90 -77 20 -150 41 -161 47 -12 5 -46 11 -75 12 l-54 1 -3 -37 -3 -38 -222 -1
c-122 -1 -336 -3 -475 -5 -186 -2 -255 0 -263 9 -5 7 -19 27 -30 45 -11 18
-32 38 -48 43 -17 6 -31 20 -35 32 -5 21 -6 560 -6 1742 1 292 1 573 0 625 -6
1030 -4 1792 5 1798 5 4 163 8 350 9 375 3 1242 10 1318 12 l49 1 -6 38 c-3
20 -5 38 -6 40 0 1 -58 2 -130 2 -71 0 -130 3 -130 6 0 7 53 65 161 173 95 95
109 115 101 144 -4 16 -34 -10 -171 -151 l-166 -170 -265 -6 c-146 -3 -271 -2
-278 3 -9 6 23 45 115 141 70 73 139 143 152 154 13 12 29 27 35 34 6 7 22 23
35 35 13 12 34 33 45 46 12 13 51 53 88 89 37 36 65 69 62 73 -18 29 -58 -2
-229 -175z"/>
<path d="M1798 4302 c-68 -4 -94 -24 -50 -40 25 -9 29 -14 25 -39 -2 -15 -9
-37 -14 -48 -5 -11 -19 -60 -30 -110 -11 -49 -27 -117 -35 -150 -26 -109 3
-162 71 -128 31 16 95 79 95 94 0 21 -20 15 -50 -16 -19 -19 -42 -35 -53 -35
-16 0 -18 5 -12 33 3 17 10 41 15 52 6 11 23 72 39 135 17 63 37 140 46 170
23 81 20 86 -47 82z"/>
<path d="M1415 1643 c-16 -8 -41 -25 -53 -37 l-24 -21 4 30 c3 29 2 30 -37 26
-22 -2 -51 -5 -65 -6 -38 -4 -40 -4 -40 -14 0 -5 14 -11 30 -14 17 -4 30 -12
30 -18 0 -7 -13 -54 -30 -106 -16 -51 -30 -106 -30 -123 0 -16 -4 -32 -10 -35
-24 -15 -9 -35 25 -35 35 0 44 8 49 44 1 8 5 19 9 22 4 4 7 17 7 29 0 90 133
256 164 206 6 -9 -9 -100 -21 -131 -3 -8 -8 -24 -10 -35 -2 -11 -11 -42 -20
-68 -15 -42 -15 -49 -3 -57 22 -14 60 -12 60 2 0 7 14 56 32 110 25 79 39 105
75 142 45 47 57 53 83 36 12 -7 11 -20 -9 -92 -13 -46 -28 -97 -34 -114 -22
-67 20 -114 79 -89 43 18 116 115 87 115 -5 0 -26 -16 -47 -35 -46 -41 -61
-44 -51 -12 3 12 12 51 20 87 7 36 18 77 24 92 13 35 4 82 -20 104 -16 15 -25
15 -58 5 -22 -6 -53 -26 -69 -45 -32 -37 -42 -37 -42 0 0 24 -34 54 -60 54 -8
-1 -28 -8 -45 -17z"/>
<path d="M3328 1138 c-5 -14 -4 -14 -145 -16 -96 -2 -103 -3 -103 -22 0 -17 7
-20 43 -21 23 -1 69 -3 102 -4 99 -3 105 -4 105 -20 0 -19 -1 -19 79 4 36 10
78 22 94 25 42 10 33 21 -38 45 -73 23 -131 27 -137 9z"/>
<path d="M3332 988 c-20 -20 -13 -46 19 -70 27 -20 30 -27 26 -61 -7 -50 -68
-141 -107 -157 -40 -16 -80 -16 -91 1 -16 26 -9 88 21 180 16 50 27 96 24 101
-6 9 -119 2 -137 -9 -13 -8 13 -32 28 -27 25 10 25 -16 1 -114 -36 -139 -26
-168 66 -201 41 -15 94 11 156 77 28 31 52 61 52 67 0 6 9 27 20 48 29 54 27
118 -6 151 -29 28 -53 33 -72 14z"/>
</g>
</svg>
