<?xml version="1.0" standalone="no"?>
<!DOCTYPE svg PUBLIC "-//W3C//DTD SVG 20010904//EN"
 "http://www.w3.org/TR/2001/REC-SVG-20010904/DTD/svg10.dtd">
<svg version="1.0" xmlns="http://www.w3.org/2000/svg"
 width="554.604539pt" height="748.417531pt" viewBox="0 0 554.604539 748.417531"
 preserveAspectRatio="xMidYMid meet">
<metadata>
Created by potrace 1.16, written by Peter Selinger 2001-2019
</metadata>
<g transform="translate(-71.608027,776.938549) scale(0.100000,-0.100000)"
fill="#000000" stroke="none">
<path d="M3552 7763 c-19 -7 -42 -58 -42 -91 0 -61 68 -106 100 -67 12 14 15
14 30 0 25 -23 56 -18 80 13 45 56 8 153 -59 151 -25 0 -25 -1 -4 -9 28 -11
43 -40 43 -84 0 -47 -9 -66 -30 -66 -26 0 -34 17 -34 70 -1 60 -21 58 -21 -2
-1 -53 -13 -72 -41 -66 -15 2 -20 14 -22 56 -3 44 1 55 22 77 20 20 22 25 8
24 -9 0 -23 -3 -30 -6z"/>
<path d="M3558 7486 c-32 -7 -60 -15 -63 -18 -3 -3 18 -22 47 -42 42 -29 54
-34 56 -21 5 21 48 13 172 -32 98 -35 164 -73 174 -100 16 -41 -83 -104 -216
-139 -54 -15 -68 -22 -68 -37 0 -25 33 -20 154 24 65 23 100 43 132 74 50 48
54 71 19 113 -39 46 -99 77 -233 118 -104 33 -121 41 -116 56 3 10 4 18 2 17
-2 0 -29 -6 -60 -13z"/>
<path d="M4440 7401 c0 -5 5 -11 12 -13 9 -3 3 -36 -20 -117 -18 -62 -31 -116
-28 -118 14 -14 34 10 46 53 8 26 15 43 18 36 2 -7 10 -12 18 -12 10 0 14 -12
14 -40 0 -33 3 -40 20 -40 11 0 29 9 40 20 25 25 27 49 2 27 -26 -23 -28 -22
-29 18 -1 24 3 35 13 35 20 0 46 44 38 65 -7 17 -47 18 -88 0 -21 -9 -21 -12
2 63 11 32 10 32 -24 32 -19 0 -34 -4 -34 -9z m106 -102 c10 -17 -30 -51 -57
-47 l-24 3 27 28 c29 29 43 33 54 16z"/>
<path d="M5495 7321 c-23 -5 -26 -8 -13 -13 16 -6 15 -12 -3 -78 -12 -40 -18
-74 -15 -77 12 -13 35 8 41 39 13 62 60 119 85 103 4 -3 -1 -34 -12 -70 -11
-36 -18 -69 -15 -72 13 -13 36 8 42 39 10 48 52 108 75 108 25 0 25 -3 0 -76
-19 -55 -19 -60 -4 -71 14 -10 22 -9 45 4 16 9 31 23 33 30 7 18 -4 16 -27 -4
-19 -18 -20 -17 -13 17 19 105 19 119 1 127 -11 4 -31 -1 -48 -11 -27 -15 -31
-16 -39 -2 -11 20 -38 20 -63 2 -15 -11 -22 -11 -30 -2 -6 8 -22 10 -40 7z"/>
<path d="M3486 7262 c-3 -5 -6 -124 -7 -265 -1 -141 -5 -261 -9 -267 -4 -7
-434 -11 -1351 -12 l-1344 -3 0 -120 0 -120 1348 -3 1347 -2 0 -75 0 -75 30 0
29 0 3 73 3 72 1353 -4 1352 -4 1 24 c0 13 3 53 5 89 2 36 7 183 10 326 l6
262 -22 7 c-12 4 -26 3 -31 -2 -4 -4 -9 -63 -10 -131 0 -67 -5 -125 -11 -128
-5 -3 -67 -6 -136 -6 -70 1 -249 1 -399 1 l-272 1 -3 118 -3 117 -109 3 c-63
2 -113 -1 -119 -7 -9 -9 -14 -67 -16 -189 l-1 -43 -102 3 -102 3 -26 65 c-15
36 -33 66 -42 68 -10 2 -25 -20 -47 -68 l-31 -71 -62 3 -62 3 -22 58 c-41 106
-51 107 -93 5 l-27 -63 -60 -3 -61 -3 -31 70 c-17 38 -36 72 -42 76 -6 4 -25
-24 -46 -70 l-35 -76 -62 3 -61 3 -25 65 c-39 100 -48 100 -91 -2 l-27 -63
-64 0 -63 0 -27 70 c-37 96 -46 94 -94 -18 l-25 -58 -81 3 -81 3 -2 180 c-1
176 -1 180 -23 183 -11 2 -24 -1 -27 -6z m1734 -175 c0 4 19 7 43 7 62 -2 67
-3 67 -14 0 -5 -6 -7 -14 -4 -8 3 -17 1 -21 -5 -4 -7 1 -8 12 -4 17 6 17 6 0
-14 -14 -16 -15 -23 -6 -29 7 -4 10 -3 6 3 -4 6 -1 16 7 22 10 9 13 3 13 -29
l0 -41 -27 26 c-18 17 -26 35 -24 51 1 13 -1 22 -6 19 -4 -2 -6 -18 -4 -35 3
-22 0 -29 -9 -24 -9 5 -9 4 1 -7 6 -7 12 -16 12 -19 0 -6 -56 -6 -82 -1 -5 0
-8 26 -8 56 0 53 1 55 20 45 11 -6 20 -7 20 -3z m-1420 -174 c0 -7 -11 -13
-25 -13 -28 0 -30 8 -13 45 l12 26 13 -23 c7 -13 12 -29 13 -35z m1548 20 l3
-33 -95 0 -96 0 0 28 c0 16 3 32 7 36 4 4 46 5 93 4 l85 -3 3 -32z m-1283 -10
c5 -20 3 -23 -19 -23 -28 0 -32 10 -15 42 12 22 23 16 34 -19z m270 7 l16 -30
-31 0 c-34 0 -34 -1 -20 34 12 33 16 33 35 -4z m275 -17 c0 -7 -11 -13 -25
-13 -29 0 -29 -1 -14 37 10 27 11 27 25 9 8 -11 14 -26 14 -33z m265 10 c5
-20 3 -23 -19 -23 -28 0 -32 10 -15 42 12 22 23 16 34 -19z m-1290 -139 c14
-31 25 -58 25 -61 0 -2 -16 -3 -36 -1 -36 3 -36 4 -39 53 -5 85 15 89 50 9z
m80 39 c-4 -10 -10 -26 -12 -35 -8 -27 -20 -22 -32 13 -6 18 -11 34 -11 35 0
2 14 4 31 4 26 0 30 -3 24 -17z m190 -45 l24 -58 -105 0 c-57 0 -104 2 -104 4
0 2 11 29 25 60 l25 57 56 -3 56 -3 23 -57z m85 58 c0 -13 -23 -66 -29 -66 -8
0 -31 45 -31 60 0 6 14 10 30 10 17 0 30 -2 30 -4z m187 -56 c12 -30 20 -56
18 -59 -5 -4 -198 -2 -202 3 -2 2 7 29 21 60 l25 57 58 -3 58 -3 22 -55z m77
38 c-13 -43 -26 -52 -40 -26 -21 37 -17 48 17 48 27 0 30 -3 23 -22z m184 -20
c35 -78 35 -78 -1 -79 -61 -1 -172 3 -175 6 -2 2 7 29 21 59 l26 56 55 0 56 0
18 -42z m92 32 c0 -15 -23 -60 -30 -60 -7 0 -30 45 -30 60 0 6 14 10 30 10 17
0 30 -4 30 -10z m186 -50 c12 -30 21 -57 19 -59 -7 -7 -205 -6 -205 1 0 4 11
33 25 63 l24 56 58 -3 57 -3 22 -55z m84 56 c0 -13 -23 -66 -29 -66 -8 0 -31
45 -31 60 0 6 14 10 30 10 17 0 30 -2 30 -4z m176 -32 c8 -19 17 -47 20 -63
l6 -27 -95 0 c-53 1 -98 4 -101 7 -4 3 5 31 19 62 l25 57 55 0 c55 0 56 -1 71
-36z m84 20 c0 -8 -5 -25 -11 -36 -11 -21 -12 -21 -25 -3 -23 31 -18 55 11 55
16 0 25 -6 25 -16z m122 6 c2 -5 1 -35 0 -65 l-4 -55 -54 0 c-62 0 -63 2 -32
77 20 49 24 53 54 53 18 0 34 -4 36 -10z m213 -15 c0 -19 -7 -20 -90 -20 -86
0 -90 1 -93 23 -3 22 -2 23 90 20 85 -3 93 -5 93 -23z m850 5 c3 -11 3 -40 -1
-65 l-6 -45 -404 0 -404 0 0 65 0 65 404 0 c395 0 405 0 411 -20z m-989 -57
c13 -17 14 -17 8 0 -5 13 -1 17 19 17 14 0 28 -7 31 -16 5 -12 2 -15 -9 -10
-9 3 -18 0 -21 -8 -3 -7 -16 -13 -28 -13 -18 0 -23 5 -23 23 0 29 5 30 23 7z
m96 -7 c17 -23 17 -24 -6 -22 -17 1 -23 7 -23 24 -1 28 8 28 29 -2z m31 18 c3
-3 3 -12 0 -20 -4 -11 -9 -12 -19 -3 -8 6 -14 15 -14 20 0 10 24 12 33 3z
m-1861 -101 c2 -5 2 -43 0 -85 l-4 -78 -166 -2 c-92 -2 -690 -2 -1329 0
l-1163 2 0 85 0 85 1329 0 c732 0 1331 -3 1333 -7z m2090 -2 l648 -1 -4 -57
c-2 -32 -4 -71 -5 -87 l-1 -28 -1332 5 c-733 3 -1334 6 -1335 6 -2 1 -3 39 -3
86 l0 86 693 -5 c380 -3 983 -5 1339 -5z"/>
<path d="M5220 7055 c-7 -8 -17 -12 -23 -8 -5 3 -7 2 -4 -4 7 -11 43 -10 54 2
5 4 2 4 -6 0 -11 -6 -13 -4 -8 8 8 21 3 22 -13 2z"/>
<path d="M3640 6318 c-55 -38 -75 -73 -75 -133 0 -77 28 -105 104 -105 68 0
113 27 141 87 23 49 24 67 9 112 -21 61 -116 81 -179 39z m134 -30 c13 -37
-10 -129 -41 -162 -50 -54 -123 -38 -123 27 0 52 20 110 48 140 22 23 34 27
67 25 33 -2 41 -8 49 -30z"/>
<path d="M5387 6243 c-8 -13 -12 -243 -4 -243 4 0 12 0 17 0 7 0 8 13 4 35 -6
34 -5 35 24 35 17 0 38 7 46 16 15 14 17 14 22 0 8 -21 50 -21 58 0 9 24 7 28
-9 14 -13 -11 -15 -8 -16 16 -2 33 -4 78 -7 112 -1 14 -7 22 -14 20 -8 -3 -15
-31 -18 -74 l-5 -69 -32 -3 -32 -3 -3 72 c-2 44 -8 74 -15 76 -6 2 -13 0 -16
-4z"/>
<path d="M3325 5743 c-636 -34 -1203 -262 -1680 -674 -278 -241 -473 -493
-643 -834 -132 -265 -209 -507 -263 -825 -20 -119 -23 -168 -23 -415 0 -257 2
-292 27 -431 127 -734 479 -1315 1057 -1751 247 -186 623 -364 935 -444 646
-166 1352 -83 1945 228 486 255 893 658 1145 1136 213 403 315 822 315 1294 0
483 -120 937 -356 1349 -200 350 -403 581 -724 825 -320 243 -669 402 -1072
488 -165 35 -502 63 -663 54z m460 -63 c159 -22 276 -44 302 -58 10 -6 21 -10
26 -10 50 -2 81 -25 60 -46 -5 -4 -8 -11 -9 -14 -1 -19 -18 -84 -36 -137 -10
-33 -21 -67 -23 -75 -2 -8 -23 -73 -45 -145 -23 -71 -44 -140 -47 -152 -3 -13
-6 -23 -7 -23 -1 0 -26 7 -55 16 -30 8 -57 12 -61 7 -10 -11 -70 -187 -70
-206 0 -9 20 -23 47 -33 l47 -18 -41 -11 c-23 -5 -45 -13 -48 -17 -4 -4 9 -28
29 -54 41 -54 41 -55 20 -117 -15 -43 -19 -47 -69 -62 -30 -8 -56 -19 -59 -24
-3 -5 10 -28 29 -52 19 -24 35 -51 35 -59 0 -32 -35 -110 -49 -112 -56 -5 -91
-20 -91 -37 0 -10 15 -35 34 -56 30 -33 33 -41 24 -64 -6 -14 -11 -33 -12 -41
-3 -31 -23 -49 -71 -63 -27 -8 -51 -20 -53 -28 -1 -8 13 -31 31 -51 26 -30 33
-44 29 -68 -2 -16 -9 -30 -14 -30 -5 0 -6 -4 -3 -10 12 -19 -16 -50 -58 -61
-70 -20 -75 -31 -32 -78 l38 -41 -16 -56 c-9 -31 -18 -59 -21 -61 -2 -3 -26
-10 -53 -17 -60 -15 -66 -36 -23 -81 29 -30 31 -37 25 -77 -11 -63 -20 -75
-77 -96 -29 -11 -54 -24 -56 -30 -2 -6 13 -29 34 -51 28 -32 34 -44 25 -54 -6
-8 -8 -17 -4 -20 3 -4 1 -7 -5 -7 -6 0 -14 5 -17 10 -4 6 -17 1 -34 -12 -22
-17 -26 -26 -18 -36 9 -11 7 -13 -8 -10 -17 2 -20 -3 -21 -39 -1 -30 4 -47 17
-59 10 -9 16 -22 12 -28 -3 -6 -2 -8 2 -3 5 4 20 -3 33 -15 14 -13 22 -18 19
-12 -4 7 0 18 9 25 13 11 15 10 12 -6 -2 -16 4 -19 42 -19 44 -1 45 0 61 44
13 35 22 46 42 48 21 3 28 -4 47 -42 24 -50 45 -59 55 -23 18 63 27 77 54 77
22 0 29 -7 41 -42 21 -61 50 -59 68 5 12 42 16 47 41 47 24 0 31 -6 46 -46 22
-57 43 -55 66 6 13 35 22 46 41 48 21 3 28 -4 46 -48 26 -61 42 -61 61 1 17
54 13 49 45 55 23 4 29 -1 45 -39 24 -56 49 -68 58 -27 3 17 10 30 15 30 5 0
6 -5 3 -10 -14 -22 17 -40 67 -40 47 0 50 -1 44 -22 -4 -13 -9 -49 -12 -80 -5
-49 -4 -58 9 -58 21 0 28 13 33 58 3 20 6 46 9 57 2 11 4 26 4 33 1 8 15 11
44 10 l42 -3 3 58 c3 51 5 57 25 58 12 0 33 2 47 4 14 1 81 6 150 9 69 4 154
9 190 11 94 6 246 16 313 20 l57 3 0 -49 c0 -42 3 -49 20 -49 17 0 20 7 20 49
0 49 0 49 38 55 20 3 96 8 167 11 72 3 159 8 195 11 130 9 256 17 295 18 l40
1 -1 -160 c-1 -198 -14 -361 -34 -430 -5 -16 -12 -50 -15 -75 -11 -76 -74
-303 -104 -375 -5 -11 -18 -47 -31 -80 -45 -121 -80 -195 -92 -195 -5 0 -7 -4
-4 -9 6 -10 -60 -140 -89 -174 -10 -12 -17 -22 -15 -22 8 0 -87 -147 -153
-235 -93 -124 -250 -290 -381 -405 -88 -76 -102 -86 -111 -77 -5 4 -5 1 -1 -6
5 -7 -2 -15 -17 -21 -14 -6 -26 -13 -28 -18 -6 -13 -80 -67 -134 -98 -27 -16
-62 -38 -76 -50 -29 -24 -369 -195 -387 -195 -6 0 -35 -11 -64 -24 -29 -13
-96 -36 -148 -50 -52 -15 -108 -30 -125 -35 -85 -26 -266 -58 -395 -71 -149
-15 -525 -17 -517 -2 3 4 -30 8 -72 9 -42 2 -99 7 -126 13 -28 6 -59 12 -70
14 -11 2 -38 7 -60 10 -22 4 -47 10 -55 13 -8 3 -22 7 -30 8 -59 11 -321 96
-370 121 -14 7 -43 20 -65 29 -90 38 -256 126 -294 156 -13 11 -29 19 -35 19
-6 0 -26 14 -44 30 -18 17 -37 30 -43 30 -12 0 -79 50 -221 166 -115 94 -214
192 -313 310 -27 32 -60 70 -71 83 -12 13 -28 35 -36 50 -7 14 -19 32 -26 40
-31 33 -140 207 -140 225 0 5 -4 12 -10 15 -9 6 -112 216 -112 229 0 3 -10 25
-21 49 -12 24 -19 47 -16 50 3 3 0 12 -8 19 -8 8 -28 60 -46 117 -17 56 -40
130 -51 165 -17 56 -57 268 -75 407 -4 28 -7 165 -7 305 1 198 5 276 18 350
10 52 20 109 22 125 4 27 27 135 38 175 23 87 32 116 56 190 35 107 88 242
110 280 16 27 70 140 70 146 0 28 227 366 294 437 19 20 39 43 43 51 18 32
174 187 263 261 52 44 97 83 100 86 7 10 117 89 185 133 33 21 72 47 87 58 73
49 387 201 440 212 7 2 29 10 49 19 103 46 422 123 584 143 215 25 460 23 670
-6z m525 -124 c94 -34 101 -36 147 -57 24 -10 45 -19 49 -19 10 0 217 -107
306 -158 71 -40 113 -70 132 -91 11 -11 23 -21 29 -21 22 0 249 -191 362 -305
125 -126 331 -387 338 -429 1 -6 7 -15 14 -21 14 -11 40 -58 108 -190 26 -49
50 -97 55 -105 29 -51 135 -336 143 -383 2 -12 7 -29 10 -37 18 -44 57 -232
61 -295 2 -17 5 -36 9 -41 3 -6 4 -22 3 -37 -2 -15 1 -30 5 -33 5 -3 9 -31 9
-64 l0 -58 -92 -6 c-51 -3 -129 -8 -173 -11 -44 -3 -111 -8 -150 -11 -149 -12
-297 -19 -305 -14 -4 3 -10 16 -11 30 -3 17 -11 26 -26 28 -17 3 -21 -1 -19
-22 2 -13 0 -30 -4 -36 -4 -6 -51 -13 -116 -15 -60 -3 -125 -7 -144 -9 -19 -3
-93 -8 -165 -11 -71 -3 -143 -8 -160 -10 -60 -7 -162 -8 -173 -1 -6 3 -9 21
-7 39 3 17 2 44 -1 59 -5 25 -9 27 -62 30 l-57 3 -15 55 c-25 90 -56 151 -74
144 -9 -3 -16 -8 -16 -9 0 -2 14 -45 30 -95 17 -50 30 -93 30 -95 0 -2 -19 -5
-42 -7 l-42 -3 -2 -50 c-4 -75 -17 -102 -49 -102 -22 0 -30 7 -45 42 -27 63
-37 64 -65 1 -30 -68 -58 -73 -82 -14 -18 45 -45 64 -62 44 -6 -7 -8 -15 -5
-18 3 -3 -2 -22 -10 -42 -22 -52 -49 -48 -78 11 -13 26 -29 48 -36 51 -12 4
-31 -33 -39 -73 -4 -22 -20 -35 -45 -35 -15 0 -39 49 -37 74 1 10 -21 26 -36
26 -12 0 -35 -47 -35 -72 0 -16 -27 -38 -48 -38 -4 0 -19 23 -31 50 -24 52
-37 58 -55 24 -6 -10 -12 -21 -14 -23 -1 -3 -8 4 -16 14 -11 15 -11 27 3 77
l15 58 58 12 c69 14 74 29 23 78 -28 27 -34 39 -29 59 3 14 8 38 11 54 3 15 9
27 14 27 5 0 8 5 7 11 -2 7 19 18 46 25 71 19 74 26 32 76 -32 37 -36 47 -31
78 12 62 31 87 77 99 71 18 73 23 34 70 -35 42 -48 93 -26 106 5 3 32 -4 59
-16 27 -11 55 -18 60 -14 20 12 11 33 -19 44 -16 6 -43 16 -60 22 -40 15 -31
25 36 40 30 7 57 15 59 19 2 4 -13 30 -35 59 l-39 52 14 47 c8 26 15 50 15 54
0 4 25 12 56 18 30 6 58 18 61 26 2 7 -12 34 -32 58 l-37 46 17 53 c17 54 17
55 76 72 32 10 59 22 59 27 0 5 -16 29 -35 52 -34 42 -45 79 -26 91 5 3 12 19
16 35 8 35 9 35 65 15 47 -17 57 -14 71 22 7 19 14 23 27 18 40 -17 50 -17 54
2 2 12 -7 23 -27 33 -17 9 -28 22 -26 30 2 8 9 37 16 63 12 43 12 49 -3 54 -9
2 -26 9 -37 13 -11 5 -30 11 -41 15 l-22 6 20 62 c11 34 24 71 28 82 7 20 35
110 85 280 39 131 46 155 48 155 1 0 31 -11 67 -24z m-327 -597 c-3 -11 -10
-22 -16 -26 -6 -4 -8 0 -4 11 4 9 3 15 -2 11 -5 -3 -8 -26 -7 -51 3 -48 -14
-77 -38 -68 -15 6 -19 54 -5 54 9 0 13 -16 9 -35 -1 -5 2 -7 6 -2 9 9 13 46 5
45 -21 -2 -28 5 -28 27 0 14 3 25 8 25 9 0 13 -16 9 -35 -1 -5 2 -7 6 -2 9 9
13 46 5 45 -18 -2 -32 3 -27 10 2 4 22 8 44 9 35 1 39 -1 35 -18z m107 -20 c0
-5 -5 -7 -12 -3 -7 5 -8 3 -3 -6 5 -8 3 -11 -5 -8 -23 7 -23 28 -1 28 12 0 21
-5 21 -11z m24 -36 c-3 -20 -6 -39 -9 -41 -6 -6 -25 8 -25 19 0 6 5 7 12 3 7
-4 8 -3 4 4 -4 6 -14 8 -24 5 -15 -6 -15 -5 -3 10 7 9 17 14 22 11 5 -3 9 -2
8 3 -3 15 1 23 10 23 5 0 7 -17 5 -37z m-64 -8 c-7 -9 -15 -13 -18 -10 -3 2 1
11 8 20 7 9 15 13 18 10 3 -2 -1 -11 -8 -20z m35 -59 c-2 -11 -4 -24 -4 -27
-1 -3 -19 -6 -41 -6 -30 0 -37 3 -30 12 6 7 21 11 35 9 14 -1 23 2 20 6 -3 5
-12 7 -19 4 -23 -9 -29 16 -10 37 16 18 19 18 35 3 11 -10 17 -26 14 -38z
m-195 14 c0 -5 -2 -10 -4 -10 -3 0 -8 5 -11 10 -3 6 -1 10 4 10 6 0 11 -4 11
-10z m30 -119 c0 -18 -18 -21 -30 -6 -10 13 -9 15 9 15 11 0 21 -4 21 -9z m40
-157 c0 -8 -6 -14 -14 -14 -12 0 -14 10 -7 38 3 10 21 -11 21 -24z m-120 -91
c0 -5 -4 -14 -9 -21 -7 -11 -9 -11 -14 1 -3 8 -3 18 0 21 9 8 23 7 23 -1z m36
-171 c-22 -5 -30 3 -21 18 5 8 11 7 22 -2 15 -12 14 -13 -1 -16z m-120 -98
c-5 -14 -9 -15 -19 -5 -9 9 -9 14 3 21 18 11 24 6 16 -16z m48 -139 c4 -10 -1
-15 -14 -15 -13 0 -18 5 -14 15 4 8 10 15 14 15 4 0 10 -7 14 -15z m-124 -115
c0 -5 -2 -10 -4 -10 -3 0 -8 5 -11 10 -3 6 -1 10 4 10 6 0 11 -4 11 -10z m43
-134 c3 -8 -1 -17 -9 -20 -9 -4 -14 1 -14 14 0 23 15 27 23 6z m-115 -108 c-6
-18 -28 -21 -28 -4 0 9 7 16 16 16 9 0 14 -5 12 -12z m34 -160 c-15 -15 -24
-6 -16 16 5 12 10 14 17 7 8 -8 8 -14 -1 -23z m-112 -93 c0 -8 -4 -15 -9 -15
-13 0 -22 16 -14 24 11 11 23 6 23 -9z m40 -150 c0 -8 -4 -15 -10 -15 -5 0
-10 7 -10 15 0 8 5 15 10 15 6 0 10 -7 10 -15z m-117 -106 c-4 -13 -9 -17 -15
-11 -11 11 -3 32 12 32 4 0 6 -9 3 -21z m930 -33 c-3 -6 -2 -8 2 -3 5 4 16 0
25 -8 14 -13 16 -12 16 4 0 10 -7 18 -15 17 -7 -1 -16 4 -18 10 -6 16 30 13
50 -4 16 -14 17 -14 12 -1 -7 20 30 19 48 -1 10 -10 8 -12 -8 -6 -16 6 -18 5
-7 -5 14 -15 17 -33 3 -25 -4 3 -7 -6 -5 -20 1 -16 -2 -24 -9 -21 -7 2 -11 11
-9 20 1 8 -2 18 -7 21 -5 3 -8 -2 -7 -11 1 -12 -8 -18 -27 -19 -18 -2 -25 1
-21 8 4 7 2 8 -4 4 -6 -4 -8 -14 -5 -22 4 -12 1 -15 -13 -12 -10 2 -18 9 -17
16 2 6 -3 9 -10 6 -19 -7 -18 27 2 50 9 11 10 16 4 12 -13 -7 -18 6 -6 17 10
10 34 -14 26 -27z m117 -169 c0 -5 -6 -5 -12 -1 -9 5 -9 2 1 -9 7 -9 9 -17 3
-17 -16 0 -34 28 -26 42 4 7 -3 4 -15 -7 -23 -20 -23 -20 -20 0 7 38 67 31 69
-8z m-136 -3 c9 -22 -3 -32 -14 -14 -12 19 -12 30 -1 30 5 0 12 -7 15 -16z
m32 -1 c13 -17 14 -17 8 0 -3 9 -1 17 5 17 6 0 11 -2 11 -4 0 -2 3 -11 6 -20
4 -11 0 -16 -13 -16 -19 0 -43 18 -43 32 0 13 12 9 26 -9z m64 -13 c0 -5 -2
-10 -4 -10 -3 0 -8 5 -11 10 -3 6 -1 10 4 10 6 0 11 -4 11 -10z m-1010 -70 c0
-5 -2 -10 -4 -10 -3 0 -8 5 -11 10 -3 6 -1 10 4 10 6 0 11 -4 11 -10z"/>
<path d="M3682 5204 c-13 -9 -22 -11 -22 -4 0 7 -17 10 -44 9 -25 -2 -43 -6
-40 -11 3 -4 12 -8 20 -8 18 0 18 -13 -6 -84 -11 -33 -20 -61 -20 -63 0 -10
47 -1 48 10 4 59 48 137 78 137 18 0 18 -2 -5 -83 l-20 -68 22 3 c15 2 23 12
27 33 10 44 37 93 61 106 29 15 35 4 21 -44 -21 -73 -22 -84 -8 -96 10 -9 20
-9 33 -3 25 14 59 52 46 52 -6 0 -16 -7 -23 -15 -19 -23 -33 -18 -25 8 22 72
26 108 15 122 -16 20 -39 19 -63 -2 -18 -17 -19 -17 -28 0 -12 21 -38 22 -67
1z"/>
<path d="M3165 4950 c-27 -4 -53 -6 -56 -4 -10 6 -18 -21 -10 -34 5 -8 32 -9
96 -2 50 5 100 10 112 10 16 0 21 6 20 20 -1 18 -8 20 -57 19 -30 -1 -77 -5
-105 -9z"/>
<path d="M3540 4947 c0 -22 7 -25 75 -32 33 -3 81 -8 108 -11 42 -5 47 -4 47
14 0 25 -21 31 -137 39 -81 5 -93 4 -93 -10z"/>
<path d="M2835 4872 c-125 -46 -160 -62 -160 -74 0 -19 39 -14 133 18 60 21
82 33 82 46 0 25 -10 27 -55 10z"/>
<path d="M2437 4688 c-15 -11 -27 -17 -27 -14 0 3 -20 -9 -44 -27 -25 -17 -57
-40 -71 -51 -23 -16 -25 -20 -13 -32 12 -12 26 -7 99 41 46 30 87 55 91 55 10
0 10 37 0 44 -4 2 -20 -5 -35 -16z"/>
<path d="M3406 4573 c-12 -13 -5 -23 15 -23 15 0 19 -5 15 -17 -3 -10 -14 -52
-26 -93 -25 -89 -33 -105 -50 -105 -7 0 -15 -6 -17 -12 -4 -10 12 -13 56 -13
63 0 72 5 46 24 -22 17 -1 93 28 98 50 9 59 0 54 -53 -6 -55 9 -81 43 -72 20
5 54 43 46 51 -3 2 -14 -1 -25 -8 -20 -10 -21 -8 -21 28 0 21 -5 43 -12 50
-13 13 -8 22 15 26 27 4 47 28 47 57 0 44 -38 63 -131 65 -42 1 -80 0 -83 -3z
m148 -29 c21 -8 21 -48 0 -68 -9 -9 -32 -16 -55 -16 -38 0 -39 1 -33 28 14 59
39 75 88 56z"/>
<path d="M2039 4373 c-90 -95 -94 -100 -79 -118 11 -13 23 -5 92 67 72 77 89
108 56 108 -8 0 -38 -26 -69 -57z"/>
<path d="M1776 4036 c-41 -65 -76 -131 -76 -146 0 -5 9 -10 19 -10 12 0 26 15
40 43 24 47 36 68 68 113 21 29 21 31 2 42 -16 11 -22 6 -53 -42z"/>
<path d="M3320 4039 c-30 -5 -68 -10 -85 -12 -21 -3 -31 -10 -33 -26 -4 -24 4
-25 63 -11 22 5 66 10 98 11 39 2 61 7 64 16 3 8 3 16 0 19 -10 10 -53 11
-107 3z"/>
<path d="M2919 3907 c-31 -18 -73 -45 -93 -61 -32 -24 -36 -30 -24 -42 12 -12
26 -6 97 40 46 30 88 57 94 59 12 4 2 37 -10 37 -4 0 -33 -15 -64 -33z"/>
<path d="M1595 3668 c-2 -7 -15 -48 -29 -92 -14 -43 -26 -86 -26 -96 0 -14 18
-30 34 -30 2 0 11 33 21 73 9 39 24 84 31 99 8 15 14 34 14 43 0 18 -39 21
-45 3z"/>
<path d="M2603 3626 c-24 -28 -93 -148 -93 -163 0 -6 7 -13 15 -17 10 -4 22 8
36 36 12 23 37 64 55 91 19 27 34 55 34 63 0 22 -24 17 -47 -10z"/>
<path d="M1496 3213 c-3 -15 -8 -67 -11 -115 -6 -76 -4 -88 9 -88 9 0 19 -1
24 -2 4 -2 8 24 8 57 1 33 3 85 5 115 2 44 0 56 -13 58 -11 2 -18 -6 -22 -25z"/>
<path d="M2419 3223 c-1 -10 -3 -27 -4 -38 -2 -11 -6 -55 -10 -97 -7 -73 -6
-78 12 -78 17 0 21 12 31 93 6 50 13 101 14 112 2 14 -4 21 -19 23 -16 2 -23
-2 -24 -15z"/>
<path d="M3113 2921 c-74 -35 -121 -137 -90 -198 23 -44 42 -55 94 -56 60 -1
105 22 138 70 38 56 30 142 -17 180 -27 22 -81 24 -125 4z m107 -26 c16 -20 7
-101 -16 -151 -30 -63 -121 -80 -138 -26 -12 37 17 135 52 175 19 21 85 23
102 2z"/>
<path d="M1504 2775 c-4 -8 0 -54 7 -102 7 -49 13 -92 13 -98 1 -5 12 -12 25
-13 25 -4 25 0 5 113 -2 11 -6 36 -9 55 -3 19 -7 41 -10 48 -6 17 -24 15 -31
-3z"/>
<path d="M2433 2779 c-7 -7 -8 -19 -3 -33 5 -11 19 -54 31 -93 23 -77 42 -104
61 -85 7 7 4 29 -12 74 -12 34 -29 82 -37 106 -16 44 -22 49 -40 31z"/>
<path d="M5306 2771 c-3 -9 -8 -34 -10 -56 -3 -22 -10 -64 -16 -94 -5 -29 -10
-55 -10 -56 0 -2 9 -5 19 -8 24 -6 31 12 45 118 4 28 9 62 12 76 4 20 0 28
-15 32 -13 3 -22 -1 -25 -12z"/>
<path d="M3878 2752 c-16 -2 -28 -7 -28 -12 0 -5 7 -7 17 -3 13 5 15 2 9 -18
-13 -46 -15 -54 -26 -94 -23 -84 -32 -127 -26 -132 13 -13 35 9 42 42 7 40 15
48 38 39 12 -5 16 -17 14 -42 -2 -28 1 -37 14 -40 23 -4 62 27 66 53 3 18 2
18 -13 -2 -23 -32 -35 -28 -35 10 0 27 6 36 26 45 20 10 25 18 22 40 -2 21 -9
28 -30 30 -15 2 -36 -2 -48 -8 -19 -10 -20 -9 -14 17 4 15 10 30 13 33 11 9 9
39 -3 42 -6 2 -23 2 -38 0z m87 -123 c0 -19 -54 -44 -67 -31 -6 6 0 17 18 31
29 23 49 23 49 0z"/>
<path d="M4482 2652 c-45 -50 -51 -62 -27 -62 8 0 15 -3 15 -6 0 -17 -83 -174
-93 -174 -5 0 -7 -3 -4 -6 11 -11 -93 -151 -175 -236 -71 -74 -77 -83 -63 -97
14 -14 24 -8 97 69 44 47 93 103 107 125 14 22 28 42 32 45 13 12 81 132 109
194 22 50 34 67 45 62 12 -4 15 6 15 59 0 35 -4 66 -8 69 -5 3 -27 -16 -50
-42z"/>
<path d="M4295 2548 c-8 -18 -35 -62 -59 -98 -33 -48 -42 -68 -34 -78 8 -10
14 -10 25 0 17 13 77 105 104 156 16 31 16 33 -2 43 -17 9 -22 5 -34 -23z"/>
<path d="M2632 2377 c-10 -11 -8 -20 9 -41 27 -34 132 -136 140 -136 4 0 10 8
13 17 5 12 -15 38 -72 96 -65 65 -80 76 -90 64z"/>
<path d="M1600 2342 c0 -25 79 -212 89 -212 25 1 38 34 21 50 -9 8 -58 123
-62 145 -3 20 -48 36 -48 17z"/>
<path d="M5200 2341 c0 -6 -18 -48 -40 -95 -45 -95 -46 -99 -26 -115 11 -9 18
-3 34 31 49 103 72 163 68 175 -6 15 -36 18 -36 4z"/>
<path d="M3970 2189 c-30 -22 -70 -47 -87 -55 -32 -14 -43 -37 -23 -49 14 -9
118 48 172 94 21 19 25 27 17 38 -15 18 -16 17 -79 -28z"/>
<path d="M2981 2096 c-11 -13 -4 -20 48 -45 33 -16 62 -27 64 -25 2 2 23 -3
47 -11 35 -12 45 -13 52 -3 14 22 10 25 -79 55 -49 17 -95 33 -104 37 -9 4
-21 1 -28 -8z"/>
<path d="M4366 2081 c-48 -29 -63 -89 -32 -136 23 -35 44 -41 78 -22 15 9 28
13 28 8 0 -4 11 -13 24 -19 22 -10 29 -7 55 17 34 32 40 70 19 116 -14 30 -63
61 -73 45 -3 -6 -1 -10 5 -10 6 0 8 -5 4 -12 -4 -7 -3 -8 4 -4 26 16 40 -87
18 -123 -9 -13 -16 -14 -35 -2 -10 7 -14 25 -12 59 2 45 -11 74 -26 58 -9 -9
-10 -49 -2 -73 6 -15 2 -26 -11 -38 -29 -26 -50 -4 -50 50 0 35 6 49 29 73 31
31 19 39 -23 13z"/>
<path d="M2370 2011 c0 -61 -2 -69 -23 -78 -38 -18 -49 -2 -50 71 -1 56 -4 66
-19 66 -12 0 -18 -8 -19 -22 0 -13 -2 -69 -4 -125 -3 -82 -1 -103 10 -103 9 0
15 14 17 36 3 32 7 37 32 40 16 2 34 8 39 13 8 8 16 6 28 -5 19 -17 52 -7 63
21 7 18 -10 20 -20 3 -12 -18 -22 30 -14 67 9 45 1 72 -21 78 -17 5 -19 0 -19
-62z"/>
<path d="M3588 2035 c-2 -3 -40 -8 -84 -11 -88 -7 -94 -9 -94 -31 0 -14 13
-15 98 -10 113 7 132 12 132 38 0 13 -7 19 -23 19 -13 0 -26 -2 -29 -5z"/>
<path d="M1805 1950 c-8 -12 23 -65 84 -143 39 -51 46 -56 59 -43 13 13 12 19
-14 53 -16 21 -28 41 -26 46 1 4 -2 7 -6 7 -5 0 -23 20 -41 45 -33 46 -45 53
-56 35z"/>
<path d="M4600 1935 c-22 -12 -23 -14 -7 -20 13 -6 17 -19 17 -60 0 -33 -5
-55 -12 -58 -7 -3 7 -6 32 -6 31 -1 41 2 30 9 -10 6 -15 29 -16 72 -3 91 0 88
-44 63z"/>
<path d="M4963 1898 c-18 -29 -43 -65 -57 -80 -28 -29 -33 -52 -14 -64 13 -8
39 20 103 115 24 36 42 68 39 73 -14 21 -42 4 -71 -44z"/>
<path d="M2100 1605 c-16 -19 -3 -35 76 -96 30 -23 52 -45 49 -49 -2 -4 8 -7
22 -6 41 2 38 20 -13 61 -25 21 -53 45 -62 54 -50 48 -58 52 -72 36z"/>
<path d="M4635 1545 c-44 -36 -81 -68 -83 -73 -1 -5 3 -14 11 -20 10 -9 24 -2
63 29 123 99 125 101 113 115 -6 8 -14 14 -18 13 -3 0 -42 -29 -86 -64z"/>
<path d="M2453 1335 c-3 -9 -4 -17 -2 -19 17 -16 191 -96 199 -91 21 13 8 37
-27 51 -21 9 -64 29 -96 45 -69 34 -66 33 -74 14z"/>
<path d="M4263 1301 c-51 -25 -93 -51 -93 -58 0 -25 23 -24 85 6 36 16 65 28
65 25 0 -3 10 4 22 16 12 11 25 20 30 20 4 0 8 9 8 20 0 27 -9 24 -117 -29z"/>
<path d="M2867 1174 c-4 -4 -7 -16 -7 -27 0 -11 3 -18 6 -14 3 3 18 1 33 -5
23 -9 154 -38 174 -38 5 0 7 10 5 22 -2 14 -12 22 -27 25 -34 5 -143 30 -162
38 -8 3 -18 2 -22 -1z"/>
<path d="M3848 1151 c-88 -20 -108 -29 -108 -43 0 -22 6 -22 95 -3 117 24 126
27 132 42 11 28 -13 29 -119 4z"/>
<path d="M3300 1080 c0 -19 7 -20 115 -20 108 0 115 1 115 20 0 19 -7 20 -115
20 -108 0 -115 -1 -115 -20z"/>
<path d="M4420 4871 c0 -3 19 -25 41 -49 30 -31 45 -40 52 -33 6 6 16 11 22
11 17 0 174 -96 209 -128 19 -17 36 -29 39 -26 6 6 197 -195 197 -207 0 -12
27 -11 35 1 14 23 -113 175 -195 234 -97 69 -174 118 -224 143 -52 25 -71 43
-46 43 6 0 10 5 10 11 0 6 -26 9 -70 8 -38 -1 -70 -5 -70 -8z"/>
<path d="M4393 4685 c-3 -9 -4 -17 -2 -19 4 -3 106 -71 150 -99 29 -19 49 -16
49 6 -1 13 -53 53 -130 99 -52 32 -59 33 -67 13z"/>
<path d="M5290 4643 c0 -2 8 -11 18 -21 25 -25 29 -114 6 -133 -14 -11 -18
-11 -30 5 -7 11 -11 30 -7 47 3 15 2 40 -1 55 -7 24 -8 25 -25 10 -18 -16 -20
-37 -6 -69 11 -26 -29 -67 -47 -49 -21 21 -14 100 12 127 l23 25 -21 0 c-52 0
-86 -84 -57 -140 17 -34 59 -49 86 -32 14 9 25 9 44 0 56 -26 108 40 86 111
-12 43 -33 64 -62 66 -10 1 -19 0 -19 -2z"/>
<path d="M5428 4489 c-23 -13 -24 -59 -2 -59 12 0 15 6 10 25 -5 20 -3 25 14
25 33 0 25 -41 -15 -79 -50 -47 -46 -61 15 -61 47 0 50 2 50 25 0 14 -5 25
-11 25 -5 0 -7 -4 -4 -10 3 -5 3 -10 -2 -11 -4 0 -19 -2 -33 -5 -22 -4 -20 0
18 35 46 43 51 60 24 84 -21 19 -39 21 -64 6z"/>
<path d="M4746 4413 c-5 -12 12 -35 59 -83 36 -36 65 -71 65 -78 0 -15 42 -12
47 3 2 6 -8 23 -22 39 -13 16 -22 33 -19 37 3 5 -1 9 -8 9 -7 0 -32 21 -56 45
-48 49 -57 53 -66 28z"/>
<path d="M4121 4237 c18 -14 19 -12 -15 -140 -31 -116 -30 -107 -8 -107 14 0
22 13 32 53 7 28 15 46 17 40 3 -7 11 -13 19 -13 11 0 14 -10 12 -37 -4 -46
22 -56 58 -22 28 26 33 50 6 26 -25 -23 -29 -22 -30 14 0 23 7 38 29 56 33 28
35 36 13 57 -14 14 -19 14 -51 1 -20 -9 -38 -13 -41 -11 -2 3 3 23 12 46 9 22
16 43 16 45 0 3 -19 5 -42 5 -36 -1 -40 -3 -27 -13z m109 -95 c0 -19 -29 -45
-53 -47 -34 -4 -34 8 -1 34 27 21 54 28 54 13z"/>
<path d="M5030 4070 c-12 -8 -11 -14 8 -47 13 -21 36 -66 53 -100 27 -56 33
-62 50 -53 10 6 19 14 19 17 0 10 -104 193 -110 193 -3 0 -12 -5 -20 -10z"/>
<path d="M4056 3813 c-15 -15 -2 -35 71 -107 66 -65 79 -74 91 -63 12 12 7 22
-35 67 -58 63 -118 112 -127 103z"/>
<path d="M5221 3671 c-9 -6 -10 -14 -3 -27 5 -11 8 -29 7 -41 -1 -13 2 -23 6
-23 10 0 30 -70 23 -82 -3 -4 0 -8 5 -8 6 0 11 -9 11 -20 0 -13 7 -20 20 -20
11 0 20 7 20 16 0 20 -19 104 -30 129 -5 11 -13 33 -17 49 -10 33 -21 40 -42
27z"/>
<path d="M4662 3434 c-12 -8 -22 -10 -22 -5 0 6 -16 11 -35 11 -19 0 -35 -4
-35 -10 0 -5 3 -9 8 -7 4 1 8 -2 10 -8 4 -12 -16 -93 -29 -117 -5 -11 -5 -19
2 -23 20 -13 39 5 50 49 12 47 51 100 70 94 13 -4 12 -9 -7 -76 -18 -61 -13
-92 11 -72 8 7 15 21 15 31 0 10 5 21 10 24 6 4 8 10 5 15 -3 5 2 16 11 24 8
9 12 16 8 16 -4 0 3 9 16 20 40 35 51 26 34 -27 -9 -27 -18 -57 -21 -69 -5
-23 20 -49 39 -41 7 2 16 4 20 3 11 -2 41 44 34 51 -3 4 -15 -2 -26 -12 -19
-18 -20 -17 -20 1 0 29 11 64 19 60 9 -6 7 57 -2 72 -12 19 -52 14 -73 -9
l-18 -20 -8 20 c-9 25 -35 27 -66 5z"/>
<path d="M4006 3415 c-14 -8 -26 -10 -26 -4 0 5 -16 9 -35 9 -38 0 -43 -6 -21
-24 12 -9 11 -19 -4 -66 -24 -71 -25 -92 -3 -88 10 2 23 22 32 48 9 25 26 59
37 75 19 25 24 27 37 16 19 -15 37 -7 37 19 0 25 -22 31 -54 15z"/>
<path d="M4046 4862 c-3 -5 1 -9 9 -9 8 0 12 4 9 9 -3 4 -7 8 -9 8 -2 0 -6 -4
-9 -8z"/>
</g>
</svg>
