<?xml version="1.0" standalone="no"?>
<!DOCTYPE svg PUBLIC "-//W3C//DTD SVG 20010904//EN"
 "http://www.w3.org/TR/2001/REC-SVG-20010904/DTD/svg10.dtd">
<svg version="1.0" xmlns="http://www.w3.org/2000/svg"
 width="501.922816pt" height="367.000000pt" viewBox="0 0 501.922816 367.000000"
 preserveAspectRatio="xMidYMid meet">
<metadata>
Created by potrace 1.16, written by Peter Selinger 2001-2019
</metadata>
<g transform="translate(-73.077184,386.000000) scale(0.100000,-0.100000)"
fill="#000000" stroke="none">
<path d="M880 3805 c0 -35 -8 -73 -23 -107 -13 -30 -23 -61 -21 -71 1 -9 -2
-17 -7 -17 -17 0 -9 -69 12 -105 27 -46 65 -65 129 -65 71 0 150 44 150 83 0
8 6 20 14 26 7 6 16 31 19 56 4 25 20 80 37 123 35 89 39 132 13 132 -43 0
-61 -12 -66 -43 -3 -18 -10 -52 -16 -77 -6 -25 -14 -61 -18 -80 -3 -19 -9 -37
-13 -40 -3 -3 -13 -23 -22 -45 -26 -67 -102 -96 -139 -53 -20 22 -26 86 -10
103 4 6 16 35 26 65 10 30 24 73 31 95 24 70 21 75 -41 75 l-55 0 0 -55z m117
-337 c-3 -8 -6 -5 -6 6 -1 11 2 17 5 13 3 -3 4 -12 1 -19z"/>
<path d="M1340 3651 c0 -12 -4 -21 -10 -21 -5 0 -10 -6 -10 -12 0 -7 -9 -24
-20 -38 -11 -14 -20 -35 -20 -48 0 -13 -9 -32 -20 -44 -11 -12 -20 -32 -20
-45 0 -21 4 -23 50 -23 43 0 50 3 50 20 0 11 3 20 8 20 4 0 6 19 5 43 -3 35
-1 38 7 19 5 -13 14 -20 20 -17 6 4 8 11 5 16 -4 5 -1 9 4 9 6 0 11 -7 11 -15
0 -9 7 -18 15 -21 8 -4 15 -16 15 -29 0 -21 -4 -23 -39 -18 l-38 5 -7 -43 c-9
-53 -8 -567 1 -623 4 -25 2 -37 -4 -33 -7 4 -10 -146 -8 -453 1 -253 -2 -460
-7 -460 -4 0 -8 -12 -7 -27 1 -26 1 -27 7 -5 4 13 7 -219 7 -515 l0 -538 410
1 c226 1 421 2 435 3 14 1 42 0 63 -2 20 -2 37 -1 37 3 0 4 15 5 33 1 17 -4
120 -4 227 -1 107 3 207 2 221 -3 14 -4 48 -4 75 0 27 5 89 5 138 1 62 -6 93
-5 102 3 9 7 28 9 50 4 21 -3 328 -6 683 -4 355 1 796 1 979 0 l332 -1 0 25
c0 14 4 25 9 25 9 0 21 -58 21 -107 0 -25 4 -33 18 -33 31 0 62 12 61 24 -4
29 2 56 12 56 6 0 8 -8 4 -19 -3 -11 -2 -22 3 -24 14 -10 92 31 92 48 0 9 6
15 13 14 33 -4 47 2 47 22 0 11 -6 26 -12 33 -24 23 -127 85 -153 92 -14 3
-28 10 -31 15 -3 5 -19 9 -35 9 l-30 0 6 -55 7 -55 -68 -2 c-38 -1 -85 -2
-104 -1 -19 1 -116 3 -215 5 l-180 3 -3 48 c-3 45 -5 47 -33 47 -28 0 -29 -1
-29 -50 l0 -50 -59 0 c-33 0 -63 -4 -66 -10 -3 -5 -18 -10 -33 -11 -15 0 -21
-3 -14 -6 20 -8 14 -23 -9 -23 -14 0 -19 5 -16 15 4 8 1 18 -6 22 -23 15 -610
17 -615 2 -4 -11 -49 -12 -56 -1 -2 4 -248 8 -545 7 -441 0 -542 2 -546 13 -3
8 -5 29 -5 48 0 32 -2 34 -35 34 -34 0 -35 -1 -35 -37 0 -58 -7 -62 -95 -62
-277 3 -591 1 -625 -5 -37 -6 -40 -4 -40 16 0 19 2 20 10 8 8 -13 10 -12 10 3
0 9 4 17 10 17 5 0 7 -7 4 -15 -5 -11 1 -15 20 -15 21 0 26 5 26 24 0 13 -7
27 -16 30 -24 9 -62 7 -69 -4 -3 -6 -18 -10 -33 -10 -45 0 -70 -11 -75 -32 -5
-18 -11 -20 -54 -14 -26 4 -60 9 -75 12 -16 3 -28 1 -28 -4 0 -14 -48 -2 -54
15 -8 21 6 223 16 223 12 0 10 54 -3 67 -10 10 -14 404 -8 783 0 19 1 71 1
115 0 44 1 114 1 155 1 41 0 147 -2 235 -1 88 1 238 5 333 l7 172 44 0 c41 0
43 1 43 30 0 23 -5 31 -24 36 -14 3 -34 3 -45 -1 -17 -5 -20 0 -26 49 -7 53 2
353 10 367 7 11 45 18 45 8 0 -5 13 -9 29 -9 25 0 28 3 24 28 -4 26 -23 72
-33 82 -3 3 -21 37 -41 75 -31 62 -39 70 -67 73 -27 3 -32 0 -32 -17z m40
-1101 c0 -5 -7 -10 -15 -10 -8 0 -15 5 -15 10 0 6 7 10 15 10 8 0 15 -4 15
-10z m3894 -1723 c3 3 6 -1 6 -9 0 -10 -7 -15 -17 -14 -10 2 -21 -2 -25 -8 -4
-6 -8 2 -8 17 0 24 3 26 19 18 10 -6 21 -7 25 -4z m-3854 -32 c0 -14 -4 -25
-10 -25 -5 0 -10 11 -10 25 0 14 5 25 10 25 6 0 10 -11 10 -25z m17 -12 c-3
-10 -5 -4 -5 12 0 17 2 24 5 18 2 -7 2 -21 0 -30z m729 -11 c-4 -3 -11 -1 -18
6 -8 8 -8 15 3 28 13 16 14 16 17 -5 2 -13 1 -25 -2 -29z m884 16 c0 -5 -7 -8
-15 -8 -15 0 -20 21 -8 33 7 7 23 -11 23 -25z m-1260 1 c0 -6 -4 -7 -10 -4 -5
3 -10 11 -10 16 0 6 5 7 10 4 6 -3 10 -11 10 -16z m1105 11 c3 -5 1 -10 -4
-10 -6 0 -11 5 -11 10 0 6 2 10 4 10 3 0 8 -4 11 -10z m255 -12 c0 -18 -2 -20
-9 -8 -6 8 -7 18 -5 22 9 14 14 9 14 -14z m1757 0 c-3 -8 -6 -5 -6 6 -1 11 2
17 5 13 3 -3 4 -12 1 -19z m90 0 c-3 -8 -6 -5 -6 6 -1 11 2 17 5 13 3 -3 4
-12 1 -19z m33 7 c0 -8 -4 -15 -10 -15 -5 0 -10 7 -10 15 0 8 5 15 10 15 6 0
10 -7 10 -15z m-2020 -5 c0 -5 -4 -10 -10 -10 -5 0 -10 5 -10 10 0 6 5 10 10
10 6 0 10 -4 10 -10z m647 -12 c-3 -8 -6 -5 -6 6 -1 11 2 17 5 13 3 -3 4 -12
1 -19z m1666 -3 c-7 -21 -13 -19 -13 6 0 11 4 18 10 14 5 -3 7 -12 3 -20z
m-1306 -1 c-3 -3 -12 -4 -19 -1 -8 3 -5 6 6 6 11 1 17 -2 13 -5z"/>
<path d="M799 3209 c-1 -37 -5 -57 -28 -149 -38 -153 -24 -214 56 -241 47 -15
140 -5 171 18 26 20 81 142 81 183 1 14 7 34 14 45 8 11 20 41 27 68 7 26 17
47 21 47 5 0 9 11 9 25 0 24 -3 25 -55 25 -51 0 -55 -2 -55 -23 0 -13 5 -28
12 -35 7 -7 8 -15 1 -24 -5 -7 -15 -31 -21 -53 -6 -22 -15 -51 -19 -65 -8 -28
-9 -36 -11 -63 -1 -10 -6 -15 -12 -12 -6 4 -10 -5 -10 -20 0 -15 -7 -28 -17
-32 -10 -3 -30 -15 -45 -25 -17 -11 -29 -15 -33 -8 -3 5 -18 10 -32 10 -15 0
-23 3 -20 7 4 3 2 12 -4 19 -8 9 -4 35 12 91 20 74 26 101 28 131 1 7 6 10 13
6 6 -4 8 -3 5 3 -4 6 -2 25 4 42 6 18 10 34 8 36 -2 2 -25 6 -51 10 -46 7 -48
6 -49 -16z m18 -21 c-3 -8 -6 -5 -6 6 -1 11 2 17 5 13 3 -3 4 -12 1 -19z"/>
<path d="M4769 3221 c-56 -18 -69 -30 -69 -66 0 -29 4 -35 21 -35 22 0 49 22
49 39 0 6 12 11 26 11 22 0 25 -2 14 -15 -9 -11 -9 -15 -1 -15 6 0 16 -11 21
-25 11 -28 8 -34 -47 -90 -18 -18 -33 -36 -33 -41 0 -5 -30 -34 -65 -64 -53
-46 -64 -60 -65 -86 l0 -31 93 -1 c110 0 127 4 127 28 0 10 5 20 10 22 6 2 13
20 17 41 5 34 4 37 -19 37 -26 0 -53 -22 -41 -33 3 -4 -6 -7 -22 -7 l-29 0 45
44 c90 89 109 123 109 192 0 75 -65 119 -141 95z"/>
<path d="M1123 3006 c-31 -32 -32 -86 -1 -86 12 0 29 7 39 16 16 14 18 14 30
-7 9 -17 9 -24 0 -27 -6 -2 -11 -8 -11 -14 0 -5 -18 -31 -40 -57 -25 -30 -40
-57 -40 -75 l0 -27 88 3 87 3 3 32 c3 30 2 31 -32 28 -38 -4 -45 5 -22 25 24
19 49 107 42 145 -5 27 -14 36 -46 49 -54 21 -71 20 -97 -8z m81 -5 c3 -4 -1
-17 -9 -27 -14 -18 -14 -18 -15 9 0 26 13 36 24 18z"/>
<path d="M4530 3021 c-19 -5 -27 -17 -36 -56 -6 -28 -13 -48 -14 -45 -7 19 -7
41 1 46 5 3 9 16 9 30 l0 25 -72 -7 c-84 -8 -98 -16 -98 -56 0 -29 1 -30 48
-27 26 1 60 2 75 1 l28 -2 -23 -32 c-13 -17 -49 -59 -80 -92 -32 -34 -58 -64
-58 -67 0 -4 -16 -24 -35 -45 -19 -20 -34 -39 -32 -40 5 -5 -202 -214 -212
-214 -8 0 -24 -29 -21 -40 1 -3 -9 -7 -22 -10 -12 -3 -32 -20 -44 -38 -12 -17
-24 -29 -28 -27 -3 3 -4 2 -2 -1 6 -8 -2 -18 -146 -163 -71 -71 -129 -134
-129 -140 -1 -6 -3 -15 -4 -21 -1 -5 -3 -14 -4 -20 0 -5 -5 -10 -11 -10 -5 0
-6 8 -3 18 6 15 5 16 -13 2 -38 -30 -64 -62 -58 -72 4 -6 1 -9 -7 -6 -12 4
-87 -53 -181 -138 -14 -13 -31 -24 -37 -24 -6 0 -11 -4 -11 -8 0 -5 -19 -22
-42 -39 -24 -17 -52 -40 -63 -50 -11 -10 -35 -28 -53 -38 -17 -11 -35 -27 -38
-37 -3 -10 -10 -18 -15 -18 -6 0 -29 -16 -52 -35 -94 -79 -183 -145 -196 -145
-12 0 -49 -25 -93 -65 -10 -8 -22 -15 -28 -15 -5 0 -13 -6 -17 -13 -4 -7 -25
-21 -46 -32 -22 -11 -50 -30 -63 -42 -13 -12 -30 -23 -39 -25 -9 -2 -15 -7
-15 -12 1 -5 -2 -12 -8 -15 -5 -3 -14 -15 -21 -26 -12 -19 -12 -19 -8 3 4 19
1 22 -24 22 -16 0 -29 -4 -29 -10 0 -5 -18 -10 -40 -10 -36 0 -40 -2 -40 -25
0 -30 -36 -36 -43 -7 -4 16 -5 16 -6 0 0 -10 -6 -18 -12 -18 -6 0 -9 9 -6 19
4 15 -2 20 -32 25 -67 11 -71 9 -71 -30 l0 -35 53 1 c84 3 85 2 89 -27 2 -23
8 -29 35 -31 18 -2 43 4 55 12 34 24 40 20 32 -29 -7 -50 5 -62 51 -51 23 6
25 11 25 60 0 47 4 57 35 89 20 21 42 37 49 37 7 0 21 9 31 20 10 11 24 20 32
20 7 0 13 3 13 8 0 4 21 19 48 32 26 14 49 28 50 33 2 4 8 7 14 7 5 0 23 14
40 30 16 17 36 30 44 30 9 0 12 5 9 10 -4 6 7 15 24 21 17 6 31 15 31 19 0 5
10 10 23 12 12 2 21 9 19 16 -1 6 5 12 13 12 8 0 15 5 15 10 0 6 7 10 15 10 9
0 18 7 21 15 4 8 10 15 16 15 9 0 68 50 123 105 16 17 42 36 58 44 15 8 27 21
27 28 0 8 5 11 10 8 6 -3 17 0 25 7 56 51 105 92 132 111 18 12 68 54 112 92
63 55 80 75 77 93 -3 18 0 21 15 17 20 -7 79 48 79 72 0 7 9 13 19 13 11 0 26
7 33 15 7 8 33 37 58 65 89 102 167 185 268 285 56 55 102 105 103 111 0 5 29
34 64 64 35 30 64 64 65 75 0 11 19 34 40 50 21 17 39 35 40 42 0 7 9 17 20
23 11 6 28 25 37 43 l18 32 5 -70 c5 -70 5 -70 36 -73 37 -4 44 12 44 96 0 52
-3 57 -42 53 -10 -1 -18 4 -18 13 0 10 9 16 25 16 15 0 25 6 25 15 0 8 9 19
20 25 14 7 20 21 20 45 0 56 -33 75 -100 56z m27 -93 c-3 -7 -5 -2 -5 12 0 14
2 19 5 13 2 -7 2 -19 0 -25z m-100 16 c-3 -3 -12 -4 -19 -1 -8 3 -5 6 6 6 11
1 17 -2 13 -5z"/>
<path d="M2093 3003 c-41 -4 -43 -5 -43 -39 0 -31 2 -34 30 -34 17 0 30 5 30
13 0 8 3 8 8 1 4 -5 24 -11 45 -12 l38 -3 -3 38 c-3 42 -12 45 -105 36z m27
-27 c0 -3 -4 -8 -10 -11 -5 -3 -10 -1 -10 4 0 6 5 11 10 11 6 0 10 -2 10 -4z"/>
<path d="M2593 3003 c-19 -4 -23 -11 -23 -39 l0 -34 80 1 80 1 0 34 c0 34 -1
35 -40 32 -36 -2 -45 -8 -41 -30 0 -5 -3 -8 -9 -8 -5 0 -10 11 -10 25 0 14 -3
24 -7 24 -5 -1 -18 -4 -30 -6z"/>
<path d="M2773 3003 c-23 -4 -29 -25 -17 -57 7 -17 88 -23 98 -7 3 4 17 6 31
3 23 -4 25 -1 25 32 l0 36 -57 -1 c-32 -1 -68 -4 -80 -6z"/>
<path d="M3452 2998 c-7 -7 -12 -22 -12 -34 0 -19 7 -22 71 -28 39 -3 75 -4
80 -1 14 9 11 65 -3 66 -7 0 -38 2 -69 4 -35 3 -59 1 -67 -7z"/>
<path d="M3615 2992 c-3 -7 -5 -25 -5 -38 0 -21 5 -24 35 -24 19 0 35 5 35 10
0 6 7 10 15 10 8 0 15 -4 15 -10 0 -5 11 -10 25 -10 18 0 26 7 31 25 12 47 1
54 -75 53 -50 -1 -72 -6 -76 -16z m62 -24 c-3 -8 -6 -5 -6 6 -1 11 2 17 5 13
3 -3 4 -12 1 -19z"/>
<path d="M3796 2995 c-15 -41 3 -80 26 -57 7 7 35 9 75 5 l65 -6 -4 29 c-2 20
-9 30 -23 31 -120 15 -132 15 -139 -2z"/>
<path d="M4030 3001 c-40 -5 -45 -9 -48 -34 l-3 -28 73 3 73 3 0 30 c0 34 -13
37 -95 26z"/>
<path d="M1520 2964 c0 -38 6 -40 108 -28 48 6 52 9 52 33 0 26 -1 26 -80 27
l-80 2 0 -34z"/>
<path d="M1696 2984 c-16 -41 -7 -51 46 -58 34 -5 54 -4 56 3 2 6 13 11 25 11
18 0 19 -2 7 -10 -13 -8 -12 -10 2 -10 14 0 17 7 14 33 -3 17 -5 35 -5 40 -1
4 -32 7 -70 7 -54 0 -70 -4 -75 -16z"/>
<path d="M1870 2965 l0 -35 70 0 c62 0 70 2 70 19 0 11 3 26 6 35 5 14 -5 16
-70 16 l-76 0 0 -35z"/>
<path d="M2229 2991 c-8 -61 -11 -59 73 -60 l78 -1 0 32 0 33 -75 1 c-41 1
-75 -1 -76 -5z"/>
<path d="M2390 2971 c0 -35 21 -43 102 -34 55 6 58 7 58 33 l0 27 -80 1 -80 1
0 -28z m120 -1 c0 -11 -7 -20 -15 -20 -27 0 -18 30 13 39 1 1 2 -8 2 -19z"/>
<path d="M2920 2981 c0 -45 9 -51 81 -51 l69 0 0 36 c0 30 -3 35 -17 29 -37
-14 -71 -17 -77 -6 -4 6 -18 11 -32 11 -17 0 -24 -6 -24 -19z"/>
<path d="M3090 2965 l0 -36 63 7 c34 4 69 8 77 9 8 1 16 14 18 28 l3 27 -80 0
-81 0 0 -35z"/>
<path d="M3260 2971 c0 -23 4 -29 23 -28 12 0 41 -4 65 -8 28 -5 42 -4 42 3 0
6 7 9 15 6 11 -5 15 1 15 25 l0 31 -80 0 -80 0 0 -29z"/>
<path d="M4140 2971 c0 -35 13 -41 96 -41 l64 0 0 35 0 35 -80 0 -80 0 0 -29z"/>
<path d="M4526 2608 c3 -40 7 -73 8 -74 0 -1 16 3 34 8 32 9 32 9 32 73 l0 65
-41 0 -40 0 7 -72z"/>
<path d="M4527 2461 c-3 -27 -3 -66 0 -85 4 -29 10 -36 28 -36 28 0 31 8 30
95 0 68 -1 70 -26 73 -24 3 -26 0 -32 -47z m40 -107 c-3 -3 -12 -4 -19 -1 -8
3 -5 6 6 6 11 1 17 -2 13 -5z"/>
<path d="M4526 2293 c-3 -21 -6 -55 -6 -75 0 -37 1 -38 35 -38 l35 0 0 75 0
75 -29 0 c-25 0 -29 -4 -35 -37z"/>
<path d="M4520 2081 c0 -39 3 -72 8 -74 4 -3 22 -2 40 0 31 5 32 7 32 52 0 77
-8 91 -46 91 l-34 0 0 -69z"/>
<path d="M4530 1900 c0 -78 1 -80 24 -80 32 0 37 9 38 67 2 68 -8 93 -38 93
-23 0 -24 -2 -24 -80z"/>
<path d="M4517 1753 c-9 -85 -2 -103 39 -103 l34 0 -1 48 c-2 82 -11 107 -40
110 -25 3 -26 0 -32 -55z"/>
<path d="M2518 1653 c-43 -4 -48 -7 -48 -29 0 -15 6 -24 16 -24 12 0 15 -6 10
-27 -3 -16 -11 -57 -18 -93 -7 -36 -15 -67 -19 -70 -3 -3 -13 -25 -21 -50 -9
-28 -23 -49 -37 -55 -15 -7 -21 -17 -19 -35 3 -24 5 -25 86 -26 l82 -1 0 28
c0 15 -7 32 -15 36 -13 8 -13 15 -1 58 71 254 76 289 46 291 -8 0 -36 -1 -62
-3z m-21 -35 c-3 -8 -6 -5 -6 6 -1 11 2 17 5 13 3 -3 4 -12 1 -19z"/>
<path d="M4520 1548 l0 -78 29 0 c33 0 41 17 41 96 0 52 0 52 -35 56 l-35 4 0
-78z"/>
<path d="M4522 1378 c3 -68 5 -73 27 -76 32 -5 41 12 41 86 l0 62 -35 0 -36 0
3 -72z"/>
<path d="M1007 1423 c-15 -15 -7 -55 13 -60 21 -6 21 -6 -7 -113 -8 -30 -17
-65 -20 -77 -3 -13 -10 -23 -15 -23 -6 0 -8 -9 -5 -20 3 -13 0 -20 -9 -20 -8
0 -14 -4 -14 -8 0 -4 -13 -16 -30 -25 -32 -19 -75 -15 -84 9 -3 8 -12 14 -21
14 -16 0 -21 36 -6 42 5 2 19 44 31 93 13 50 24 95 26 101 1 7 16 18 33 25 21
10 31 21 31 36 0 21 -4 22 -90 22 -88 -1 -90 -1 -90 -25 0 -15 6 -24 15 -24
21 0 19 -35 -6 -111 -11 -35 -23 -89 -26 -120 -5 -52 -3 -58 27 -92 32 -37 33
-37 111 -37 58 0 82 4 91 15 7 9 19 22 25 29 10 11 9 15 -2 20 -26 10 -16 22
17 21 29 0 33 4 39 34 4 18 11 36 17 40 5 3 12 24 15 46 9 64 32 136 48 146
11 7 11 9 -3 9 -10 0 -18 7 -18 16 0 9 -9 18 -20 21 -11 3 -20 9 -20 14 0 10
-43 12 -53 2z"/>
<path d="M4526 1278 c-3 -7 -7 -44 -9 -81 -5 -75 1 -85 48 -73 25 6 26 8 23
84 -3 76 -3 77 -31 80 -16 2 -29 -2 -31 -10z"/>
<path d="M1129 1207 c-29 -22 -59 -94 -59 -142 0 -25 5 -45 10 -45 6 0 10 -13
10 -29 0 -16 7 -34 15 -41 18 -15 55 -4 55 17 0 12 7 9 24 -10 14 -15 31 -24
39 -21 7 2 21 30 31 60 15 49 16 63 5 124 -7 38 -17 66 -21 64 -4 -3 -8 -2 -8
3 0 10 -49 33 -69 33 -9 0 -23 -6 -32 -13z m51 -83 c0 -8 5 -12 10 -9 16 10
12 -58 -6 -94 -8 -17 -20 -29 -25 -26 -10 7 -12 114 -3 139 7 19 24 11 24 -10z"/>
<path d="M1725 1132 c-24 -5 -35 -20 -35 -49 0 -21 4 -22 68 -20 l67 2 3 38 3
37 -43 -2 c-24 -1 -52 -4 -63 -6z"/>
<path d="M1850 1117 c0 -37 19 -47 87 -47 l63 0 0 35 0 35 -75 0 c-72 0 -75
-1 -75 -23z"/>
<path d="M2025 1131 c-3 -2 -5 -16 -5 -31 0 -25 4 -28 49 -33 28 -3 66 -3 85
0 33 5 36 9 36 38 l0 32 -80 0 c-44 0 -83 -3 -85 -6z"/>
<path d="M1442 1100 c0 -19 2 -27 5 -17 2 9 2 25 0 35 -3 9 -5 1 -5 -18z"/>
<path d="M1460 1100 c0 -16 5 -30 10 -30 6 0 10 14 10 30 0 17 -4 30 -10 30
-5 0 -10 -13 -10 -30z"/>
<path d="M1510 1100 l0 -30 80 0 80 0 0 30 0 30 -80 0 -80 0 0 -30z"/>
<path d="M4517 1045 c-8 -80 -3 -95 33 -95 34 0 40 14 40 90 0 60 -7 70 -49
70 -15 0 -19 -12 -24 -65z"/>
<path d="M2185 1010 c-22 -10 -48 -19 -57 -19 -21 -1 -35 -48 -21 -70 12 -20
50 -26 67 -11 8 6 33 17 57 24 26 7 43 18 41 26 -2 8 3 10 13 7 12 -5 15 1 15
28 0 34 -1 35 -37 34 -21 0 -56 -9 -78 -19z"/>
<path d="M1955 935 c-22 -7 -52 -16 -67 -19 -24 -6 -28 -11 -28 -43 l0 -36 58
6 c31 3 74 12 95 21 33 14 37 20 37 51 0 32 -3 35 -27 34 -16 0 -46 -7 -68
-14z"/>
<path d="M4288 703 c-25 -4 -28 -8 -27 -41 0 -20 -6 -59 -14 -87 -8 -27 -20
-72 -28 -100 -8 -27 -16 -52 -19 -55 -9 -8 -30 -85 -30 -109 0 -39 81 -21 87
20 2 13 7 33 13 44 5 11 11 29 13 40 3 11 5 1 6 -21 0 -24 8 -47 16 -54 8 -7
15 -19 15 -26 0 -18 71 -19 88 -2 15 15 16 58 2 58 -5 0 -10 -5 -10 -11 0 -25
-16 3 -18 32 -1 17 -6 38 -11 47 -12 21 49 82 83 82 21 0 26 5 26 25 0 24 -3
25 -57 25 -50 0 -60 -3 -80 -27 -20 -25 -22 -26 -23 -8 0 11 7 30 15 42 8 11
18 46 21 77 7 62 9 61 -68 49z m37 -203 c3 -5 1 -10 -4 -10 -6 0 -11 5 -11 10
0 6 2 10 4 10 3 0 8 -4 11 -10z"/>
<path d="M2450 690 c0 -5 -6 -10 -14 -10 -9 0 -15 -20 -19 -67 -8 -83 -23
-213 -33 -270 -7 -43 -6 -43 25 -43 24 0 32 5 37 25 3 14 12 25 20 25 7 0 18
10 25 21 6 12 24 35 40 50 16 16 29 37 29 49 0 11 5 20 10 20 18 0 50 39 44
55 -4 10 0 15 10 15 9 0 16 4 16 8 0 5 18 28 40 52 22 24 40 52 40 62 0 15 -8
18 -54 18 l-53 0 -6 -40 c-3 -22 -12 -47 -21 -56 -9 -8 -14 -20 -11 -25 4 -5
-1 -9 -10 -9 -8 0 -21 -12 -28 -27 -13 -30 -38 -63 -47 -63 -4 0 0 43 8 95 8
52 12 101 9 110 -7 16 -57 21 -57 5z m-23 -376 c-3 -3 -12 -4 -19 -1 -8 3 -5
6 6 6 11 1 17 -2 13 -5z"/>
<path d="M4490 676 c0 -16 7 -27 20 -31 14 -4 20 -15 20 -35 0 -16 -4 -30 -9
-32 -9 -3 -31 -177 -31 -243 0 -32 3 -35 29 -35 29 0 48 20 67 73 3 9 10 17
15 17 5 0 9 7 9 15 0 8 -5 15 -11 15 -5 0 -7 5 -3 11 3 6 14 9 25 6 21 -6 54
26 44 42 -3 6 0 11 8 11 8 0 25 16 39 35 13 19 45 57 71 84 26 27 47 59 47 70
0 19 -6 21 -65 21 -62 0 -65 -1 -65 -24 0 -13 4 -26 10 -28 5 -1 -10 -29 -35
-60 -25 -32 -44 -61 -43 -65 2 -5 -1 -9 -6 -10 -5 -1 -12 -7 -17 -14 -16 -27
-20 1 -10 76 18 130 21 125 -49 125 -57 0 -60 -1 -60 -24z m104 -221 c3 -8 1
-15 -4 -15 -6 0 -10 7 -10 15 0 8 2 15 4 15 2 0 6 -7 10 -15z"/>
<path d="M5457 693 c-4 -3 -7 -18 -6 -32 0 -24 1 -24 9 -6 6 13 8 -11 5 -66
-2 -48 -7 -95 -13 -105 -5 -11 -7 -25 -4 -33 2 -7 0 -16 -5 -20 -6 -3 -14 -36
-17 -73 l-8 -68 35 0 c27 0 36 5 46 28 7 15 12 28 11 30 -1 2 8 12 19 21 12
10 21 28 21 39 0 14 5 20 13 16 7 -2 22 5 33 17 10 13 13 19 7 15 -7 -4 -13
-2 -13 3 0 6 6 11 13 11 14 0 87 87 87 104 0 6 14 22 30 35 21 16 30 32 30 52
0 28 -1 29 -51 29 l-51 0 4 -40 c2 -28 0 -40 -9 -40 -7 0 -13 -4 -13 -9 0 -4
-12 -21 -27 -37 -15 -16 -28 -40 -28 -53 -1 -18 -8 -25 -24 -26 -22 -2 -23 0
-16 58 3 34 13 70 21 81 8 11 14 30 14 42 0 17 -8 23 -37 28 -49 8 -68 8 -76
-1z m70 -255 c-3 -7 -5 -2 -5 12 0 14 2 19 5 13 2 -7 2 -19 0 -25z"/>
<path d="M1054 651 c-45 -28 -65 -86 -65 -192 0 -136 39 -199 123 -199 81 0
123 81 116 225 -4 99 -27 152 -74 171 -44 19 -63 18 -100 -5z m80 -2 c40 -18
51 -61 50 -189 -1 -129 -15 -175 -59 -186 -64 -16 -88 27 -93 170 -4 128 9
183 48 203 30 15 24 15 54 2z"/>
<path d="M2667 453 c-38 -6 -57 -52 -57 -138 0 -81 20 -125 55 -125 30 0 43
37 27 78 -18 47 -24 92 -13 92 6 0 11 12 11 26 0 24 1 24 16 9 14 -13 16 -29
10 -84 -5 -63 -4 -69 19 -89 l25 -22 15 24 c35 53 31 184 -6 193 -10 3 -19 14
-19 24 0 20 -16 22 -83 12z m33 -22 c0 -17 -18 -21 -24 -6 -3 9 0 15 9 15 8 0
15 -4 15 -9z"/>
<path d="M4686 416 c-31 -65 -13 -226 24 -226 6 0 20 10 32 22 14 14 23 18 26
10 2 -7 13 -12 25 -13 20 -1 20 -2 -3 -9 l-25 -8 28 -1 c21 -1 27 4 27 20 0
11 4 18 9 15 10 -7 31 61 31 102 0 32 -27 101 -45 114 -5 4 -33 8 -61 8 -49 0
-53 -2 -68 -34z m90 -51 c7 -39 -3 -125 -15 -125 -9 0 -31 61 -31 88 0 25 20
72 31 72 5 0 11 -16 15 -35z"/>
</g>
</svg>
