<svg xmlns="http://www.w3.org/2000/svg" version="1.0" width="1368.871498pt" height="1097.958994pt" viewBox="0 0 1368.871498 1097.958994" preserveAspectRatio="xMidYMid meet">
<metadata>
Created by potrace 1.16, written by Peter Selinger 2001-2019
</metadata>
<g transform="translate(-16.128502,1136.958994) scale(0.100000,-0.100000)" fill="#000000" stroke="none">
<path d="M746 11358 c-19 -73 -48 -157 -58 -170 -7 -8 -27 -18 -44 -21 l-32 -6 24 77 c23 75 21 101 -9 89 -7 -3 -24 -43 -36 -90 l-23 -86 -54 -7 c-46 -5 -57 -11 -65 -31 -15 -39 -11 -43 41 -43 28 0 50 -2 50 -3 0 -2 -9 -30 -20 -62 -19 -57 -16 -86 9 -71 15 10 51 95 51 122 0 20 5 24 29 24 l30 0 -15 -35 c-33 -79 -3 -87 36 -9 24 47 27 49 70 52 106 6 125 29 28 34 l-63 3 87 23 c49 13 91 28 94 33 10 17 -26 22 -87 12 -42 -7 -58 -7 -55 1 24 56 48 147 43 160 -8 19 -26 21 -31 4z"/>
<path d="M1056 11338 c-25 -81 -40 -114 -70 -163 -20 -31 -34 -60 -31 -66 9 -14 57 -11 105 6 24 8 45 14 46 12 2 -2 -5 -27 -16 -55 -25 -65 -25 -72 0 -72 21 0 50 45 50 78 0 25 47 131 68 155 12 14 13 20 3 30 -17 17 -43 -2 -65 -51 -16 -35 -26 -44 -60 -53 -23 -5 -49 -13 -59 -15 -14 -5 -12 4 12 44 31 49 61 123 61 148 0 17 -39 19 -44 2z"/>
<path d="M1291 11327 c-18 -22 -4 -25 79 -20 103 7 108 -3 44 -86 -44 -56 -49 -60 -93 -63 -34 -2 -47 -7 -49 -20 -3 -15 4 -18 32 -18 20 0 36 -2 36 -4 0 -2 -12 -29 -26 -60 -14 -31 -23 -60 -19 -66 15 -24 34 -6 54 49 12 32 27 64 34 70 8 6 47 15 88 21 102 15 112 30 20 30 -83 0 -81 -9 -13 80 38 51 38 54 12 80 -17 17 -33 20 -104 20 -58 0 -87 -4 -95 -13z"/>
<path d="M1711 11326 c-39 -14 -71 -49 -71 -78 0 -11 14 -33 31 -49 l31 -29 -21 -26 c-41 -52 -17 -105 53 -118 45 -9 140 9 156 29 18 21 -9 58 -65 90 -25 15 -45 30 -45 34 0 4 20 17 45 29 45 22 46 23 39 60 -11 67 -68 89 -153 58z m106 -51 c11 -24 9 -27 -37 -50 l-49 -25 -26 23 c-43 37 -10 75 65 76 28 1 37 -4 47 -24z m-17 -156 c27 -17 50 -35 50 -40 0 -13 -41 -21 -90 -17 -55 4 -71 25 -47 62 10 14 22 26 27 26 5 0 32 -14 60 -31z"/>
<path d="M168 10894 c-16 -15 -6 -20 70 -35 84 -15 129 -16 1401 -11 596 2 742 4 732 15 -9 9 -221 12 -1003 10 -635 -2 -1015 1 -1057 8 -36 5 -82 12 -101 15 -19 3 -38 2 -42 -2z"/>
<path d="M716 10688 c-2 -7 -19 -61 -37 -120 l-32 -108 -46 0 c-53 0 -76 -12 -68 -33 4 -11 17 -13 51 -10 51 6 51 6 35 -34 -15 -41 -28 -114 -22 -130 8 -20 49 -16 103 12 86 43 81 70 -6 36 l-57 -21 7 41 c4 22 13 56 21 75 14 33 16 34 69 34 70 0 73 16 6 25 -58 8 -58 -4 -4 139 18 49 31 93 28 98 -8 13 -44 9 -48 -4z"/>
<path d="M12163 10600 c-92 -56 -155 -233 -108 -307 8 -11 34 -29 58 -38 41 -15 47 -15 83 0 77 33 130 43 156 29 26 -15 116 -18 137 -5 9 6 19 4 28 -5 8 -8 26 -14 41 -14 l26 0 -33 -34 c-74 -76 -35 -221 48 -177 23 13 36 55 46 148 6 55 10 62 35 73 20 8 34 9 48 1 31 -17 112 -13 157 7 26 12 55 17 83 14 48 -5 92 4 92 18 0 6 -19 10 -43 10 -24 0 -46 3 -49 6 -3 3 1 23 9 44 14 36 14 42 -1 65 -22 34 -58 33 -86 -2 -18 -23 -21 -37 -17 -75 7 -53 1 -58 -69 -58 -33 0 -44 4 -44 15 0 24 -26 28 -55 9 -25 -16 -26 -16 -40 2 -8 10 -15 29 -15 41 0 50 -66 70 -110 35 -22 -18 -24 -18 -61 1 -64 31 -148 2 -163 -57 -9 -37 -62 -43 -92 -11 -29 32 -81 33 -118 4 l-26 -20 0 25 c0 18 8 30 28 40 15 8 43 32 63 53 69 74 91 133 63 164 -21 24 -31 24 -71 -1z m42 -42 c-12 -38 -44 -86 -77 -113 -17 -14 -32 -24 -35 -21 -9 9 27 76 62 115 42 46 60 53 50 19z m736 -181 c-11 -29 -31 -36 -31 -11 0 8 5 25 11 36 16 29 32 8 20 -25z m-329 -34 c12 -15 -7 -53 -27 -53 -51 0 -61 46 -17 80 25 21 27 21 31 3 2 -10 7 -23 13 -30z m-141 27 c51 -28 -13 -86 -67 -61 -21 9 -24 14 -14 26 7 8 10 22 6 30 -4 11 2 15 25 15 17 0 39 -5 50 -10z m-286 -50 c4 -6 -5 -10 -20 -10 -15 0 -24 4 -20 10 3 6 12 10 20 10 8 0 17 -4 20 -10z m410 -196 c-7 -38 -23 -53 -36 -33 -16 25 -9 76 14 105 l22 29 3 -34 c2 -19 1 -49 -3 -67z"/>
<path d="M2364 10595 c-4 -9 1 -89 10 -178 9 -89 19 -288 22 -442 6 -260 3 -381 -26 -1050 -5 -115 -11 -480 -12 -810 -1 -330 -4 -650 -6 -711 l-3 -111 -52 10 c-55 10 -330 6 -857 -14 -191 -7 -485 -8 -789 -4 -402 6 -483 5 -479 -7 7 -19 965 -24 1438 -7 416 14 650 16 703 5 l39 -7 -7 -322 c-6 -265 -4 -340 9 -421 8 -54 17 -100 20 -103 12 -12 38 8 31 25 -3 9 -13 62 -21 117 -13 80 -14 159 -10 390 3 160 8 607 11 995 6 750 6 787 31 1290 26 527 6 1354 -33 1368 -7 2 -16 -4 -19 -13z"/>
<path d="M1581 10508 c-5 -13 -20 -48 -34 -78 -28 -64 -41 -123 -32 -151 8 -24 55 -49 94 -49 l30 0 -6 -90 c-5 -76 -4 -90 9 -90 11 0 17 15 22 53 17 141 15 134 66 171 61 44 103 123 98 186 -4 52 -25 70 -61 51 -31 -16 -59 -66 -91 -161 -26 -78 -41 -92 -86 -80 -41 10 -39 66 4 157 20 41 36 81 36 89 0 23 -40 16 -49 -8z m191 -125 c-21 -40 -62 -84 -62 -65 0 17 38 110 57 140 l18 26 3 -31 c2 -17 -6 -49 -16 -70z"/>
<path d="M13066 10502 c-2 -4 0 -27 4 -52 5 -25 9 -70 10 -101 0 -37 5 -61 15 -69 19 -16 35 -5 35 24 0 20 6 24 46 30 25 3 54 1 64 -4 10 -6 31 -10 46 -10 16 0 36 -10 50 -25 27 -29 68 -33 102 -9 31 21 30 74 -3 112 -14 17 -25 33 -25 36 0 3 27 6 60 6 l60 0 -20 -37 c-25 -48 -25 -58 2 -77 26 -19 71 -21 100 -5 14 8 27 8 42 1 40 -19 54 -20 95 -10 48 12 101 66 101 104 0 14 -11 36 -25 49 -29 30 -89 34 -138 9 -34 -17 -107 -83 -107 -96 0 -14 27 -9 40 7 7 8 18 15 24 15 26 -1 -47 -50 -75 -50 -33 0 -36 10 -12 51 25 42 9 62 -57 72 -95 16 -177 -10 -142 -45 8 -8 4 -19 -11 -39 -15 -22 -29 -29 -54 -29 -39 0 -40 2 -12 39 25 33 19 51 -17 51 -19 0 -28 -8 -39 -34 -15 -36 -31 -46 -75 -46 -27 0 -28 2 -34 70 -6 59 -10 70 -26 70 -10 0 -21 -3 -24 -8z m728 -58 c28 -27 13 -65 -34 -89 -56 -29 -86 -8 -59 41 11 21 11 27 -1 34 -12 7 -9 11 10 19 37 15 67 13 84 -5z m-374 -103 c0 -23 -19 -41 -36 -34 -19 7 -17 33 3 49 21 15 33 9 33 -15z"/>
<path d="M9363 10466 c-15 -13 -37 -25 -48 -27 -15 -3 -21 -15 -26 -50 -4 -26 -12 -56 -18 -67 -6 -11 -11 -37 -11 -56 0 -29 4 -36 19 -36 15 0 22 11 30 52 12 53 54 140 79 160 12 10 13 3 9 -47 -3 -33 -8 -72 -12 -87 -6 -24 -4 -28 14 -28 14 0 25 9 31 26 14 37 60 94 76 94 10 0 12 -15 7 -68 -5 -57 -3 -71 12 -86 18 -18 58 -18 98 -1 13 5 17 2 17 -14 0 -16 10 -26 35 -37 83 -34 185 -1 185 61 0 53 -101 76 -147 33 l-23 -21 0 26 c0 31 -29 37 -51 11 -18 -22 -68 -46 -80 -39 -6 4 -7 34 -3 79 5 60 4 75 -11 89 -22 22 -37 21 -68 -3 l-26 -21 -7 28 c-14 58 -37 66 -81 29z m447 -196 c26 -17 -2 -45 -48 -48 -37 -3 -41 -1 -36 15 14 38 53 53 84 33z m-123 -32 c-3 -7 -5 -2 -5 12 0 14 2 19 5 13 2 -7 2 -19 0 -25z"/>
<path d="M10540 10414 c-56 -115 -159 -201 -148 -124 6 37 -14 59 -37 40 -38 -32 -5 -110 48 -110 25 0 42 12 89 60 32 32 58 53 58 45 0 -20 37 -37 63 -29 12 3 34 18 50 32 26 25 27 25 27 4 0 -11 11 -33 24 -48 21 -25 31 -28 87 -30 38 -1 75 4 90 12 23 12 29 11 39 -1 18 -22 73 -18 104 6 34 27 24 43 -15 23 -44 -22 -60 -12 -59 38 2 134 -31 171 -89 101 -17 -21 -39 -62 -48 -90 -15 -47 -20 -53 -44 -53 -37 0 -43 14 -41 84 2 40 -2 62 -10 68 -21 13 -26 10 -44 -27 -17 -36 -67 -85 -86 -85 -7 0 -8 18 -3 53 12 81 11 91 -6 95 -11 2 -26 -18 -49 -64z m370 -11 c0 -22 -39 -88 -47 -80 -5 5 36 97 44 97 2 0 3 -8 3 -17z"/>
<path d="M11331 10451 c-56 -52 -67 -117 -25 -150 38 -30 91 -37 143 -18 33 12 48 13 62 4 14 -9 26 -7 53 5 20 10 36 13 38 7 8 -24 123 -48 162 -33 30 12 16 22 -39 26 -66 6 -99 30 -92 68 11 53 -42 106 -92 93 -25 -6 -61 -70 -61 -107 0 -20 -7 -27 -35 -35 -40 -11 -96 1 -115 24 -15 18 1 63 32 92 19 17 20 17 39 -6 20 -24 49 -23 49 2 0 20 -43 57 -67 57 -12 0 -35 -13 -52 -29z m253 -58 c8 -21 -24 -67 -49 -72 -15 -3 -17 2 -11 30 11 54 46 79 60 42z"/>
<path d="M11117 10440 c-63 -55 -73 -125 -22 -148 32 -15 90 -15 116 -2 33 18 21 27 -37 28 -72 1 -84 12 -61 55 20 38 59 66 65 48 5 -16 42 -13 48 4 4 8 1 22 -6 30 -20 25 -66 18 -103 -15z"/>
<path d="M9953 10433 c-12 -31 9 -36 120 -30 97 6 141 17 126 31 -2 2 -57 6 -123 8 -86 2 -120 0 -123 -9z"/>
<path d="M7256 10359 c-8 -12 -29 -66 -46 -120 l-32 -99 -42 -1 c-63 -2 -91 -12 -91 -34 0 -14 6 -19 20 -17 11 2 39 6 63 9 l43 5 -6 -35 c-4 -20 -7 -52 -8 -73 -2 -68 71 -95 115 -43 24 28 12 44 -18 25 -41 -28 -54 -21 -54 28 0 24 3 58 6 75 l7 31 69 0 c84 0 83 16 -1 26 l-59 6 15 51 c8 28 26 75 39 106 24 53 25 81 5 81 -5 0 -17 -10 -25 -21z"/>
<path d="M5827 10343 c-3 -5 -8 -30 -12 -58 -4 -27 -16 -71 -26 -96 -13 -35 -15 -49 -6 -58 19 -19 27 -13 48 35 22 52 75 124 91 124 11 0 6 -67 -7 -107 -6 -20 -4 -23 18 -23 17 0 28 7 32 20 10 31 105 100 105 75 0 -2 -7 -25 -16 -50 -8 -26 -14 -58 -12 -73 3 -23 8 -27 42 -30 21 -2 43 1 49 7 16 16 24 13 30 -9 7 -28 52 -43 92 -30 78 26 106 110 51 156 -49 43 -108 23 -134 -46 -9 -24 -76 -59 -89 -47 -3 3 2 28 12 56 22 69 17 105 -15 109 -14 1 -41 -6 -60 -15 l-35 -18 -15 30 c-16 32 -54 45 -73 26 -17 -17 -27 -13 -27 9 0 20 -33 29 -43 13z m459 -160 c8 -31 -3 -53 -39 -73 -21 -12 -29 -12 -39 -2 -10 10 -10 19 5 43 9 17 17 37 17 45 0 8 10 14 25 14 18 0 26 -7 31 -27z"/>
<path d="M873 10315 c-29 -13 -53 -29 -53 -35 0 -18 31 -24 53 -11 18 12 19 11 12 -6 -4 -10 -13 -34 -20 -53 -11 -30 -18 -35 -49 -38 -34 -3 -49 -23 -27 -37 12 -7 177 11 193 21 15 9 -16 22 -54 23 -35 1 -35 12 3 79 30 53 32 82 7 82 -7 0 -37 -11 -65 -25z"/>
<path d="M4675 10288 c-16 -106 56 -341 110 -362 38 -14 47 0 106 177 22 67 49 139 60 161 24 50 24 56 -1 56 -23 0 -38 -32 -100 -210 -24 -69 -47 -129 -51 -134 -11 -12 -53 83 -68 152 -6 29 -11 87 -11 127 0 68 -2 75 -19 75 -16 0 -21 -9 -26 -42z"/>
<path d="M6813 10318 c-43 -26 -123 -155 -148 -240 -20 -71 -17 -151 7 -156 9 -2 19 5 22 15 2 10 12 44 21 75 l16 58 28 -15 c16 -8 49 -30 75 -50 48 -37 78 -43 121 -23 38 17 31 32 -12 25 -31 -5 -44 -2 -73 21 -19 15 -48 36 -65 46 l-29 19 79 38 c88 42 115 68 115 108 0 60 -102 111 -157 79z m97 -48 c39 -39 24 -58 -87 -114 -40 -20 -73 -33 -73 -29 0 5 9 23 20 40 11 18 17 39 14 46 -3 8 7 28 21 46 32 37 75 41 105 11z"/>
<path d="M3375 10286 c-56 -60 -66 -139 -40 -331 21 -158 31 -519 16 -630 -15 -116 -37 -194 -63 -222 -23 -24 -15 -47 13 -40 43 11 56 -82 64 -448 7 -305 15 -385 45 -450 23 -50 38 -68 68 -84 36 -19 38 -5 3 29 -19 19 -39 57 -52 98 -20 61 -22 98 -30 422 -7 363 -14 423 -49 455 -17 15 -17 20 -4 50 42 100 59 480 34 740 -21 210 -23 280 -10 321 18 56 30 68 45 47 18 -24 45 -9 45 25 0 59 -38 67 -85 18z"/>
<path d="M4303 10240 c-54 -12 -84 -39 -111 -98 -22 -48 -27 -74 -30 -172 -4 -139 5 -194 35 -198 20 -3 21 2 25 120 3 99 8 129 23 156 20 33 17 42 -19 55 -11 4 9 44 37 74 11 13 36 26 55 29 108 20 211 -96 136 -155 -32 -25 -109 -38 -129 -21 -18 15 -65 5 -65 -14 0 -39 129 -41 202 -5 142 72 5 268 -159 229z"/>
<path d="M3860 10192 c-32 -33 -60 -115 -60 -179 0 -41 -1 -43 -29 -43 -17 0 -42 11 -60 26 -26 21 -31 33 -31 67 0 23 7 55 15 71 19 35 19 42 1 49 -26 10 -46 -17 -55 -72 -16 -100 25 -163 114 -177 43 -6 45 -8 45 -39 0 -44 18 -92 37 -100 27 -10 37 11 19 36 -9 13 -16 43 -16 69 0 42 3 47 47 80 61 45 93 101 93 162 0 37 -5 50 -22 62 -33 24 -66 19 -98 -12z m80 -50 c0 -47 -27 -98 -68 -130 l-32 -25 0 30 c0 42 25 121 46 144 9 10 25 19 36 19 14 0 18 -8 18 -38z"/>
<path d="M1216 10182 c-3 -4 -4 -22 -4 -40 1 -30 -39 -96 -69 -115 -18 -11 -16 -27 4 -27 24 0 109 92 116 126 3 16 1 37 -4 46 -10 19 -34 24 -43 10z"/>
<path d="M1812 10148 c-44 -34 -50 -46 -31 -65 20 -20 2 -42 -38 -45 -26 -2 -38 -8 -38 -18 0 -18 97 -33 141 -21 40 10 43 31 5 31 l-31 0 15 38 c9 20 24 49 35 64 42 57 7 66 -58 16z"/>
<path d="M5147 10097 c-3 -7 -2 -18 1 -24 9 -12 312 -4 312 9 0 14 -16 16 -166 23 -116 5 -142 4 -147 -8z"/>
<path d="M7505 10040 c-4 -6 -24 -19 -46 -31 -42 -21 -48 -45 -10 -43 15 0 20 -4 17 -15 -3 -9 -8 -28 -12 -43 -6 -26 -10 -28 -55 -28 -42 0 -49 -3 -49 -20 0 -18 7 -20 89 -20 103 0 153 8 148 24 -2 6 -25 12 -51 14 -54 4 -55 6 -7 105 15 31 25 59 23 62 -9 9 -41 5 -47 -5z"/>
<path d="M5200 10021 c0 -29 29 -34 159 -29 102 3 133 9 118 24 -3 3 -52 7 -109 8 -57 2 -118 6 -135 11 -29 7 -33 5 -33 -14z"/>
<path d="M5597 10023 c-4 -3 -7 -12 -7 -19 0 -11 80 -12 413 -8 422 5 457 7 457 24 0 11 -852 14 -863 3z"/>
<path d="M4457 9974 c-13 -13 -8 -149 6 -169 18 -24 37 -11 37 26 0 25 4 29 29 29 16 0 36 3 45 6 13 5 16 -2 16 -44 0 -32 5 -54 15 -62 8 -7 16 -11 16 -9 6 20 26 216 22 222 -2 4 -13 7 -23 7 -13 0 -21 -10 -25 -32 -9 -40 -20 -48 -63 -48 -32 0 -33 1 -30 38 3 31 0 37 -17 40 -12 2 -24 0 -28 -4z"/>
<path d="M3960 9914 c-6 -14 -10 -59 -10 -100 0 -66 2 -75 18 -72 14 3 18 18 23 81 4 43 9 81 13 84 7 7 -13 33 -25 33 -5 0 -14 -12 -19 -26z"/>
<path d="M10780 9903 c-29 -11 -59 -46 -66 -77 -7 -35 -19 -46 -51 -46 -16 0 -20 5 -16 19 21 81 -130 92 -171 13 -21 -40 -72 -82 -101 -82 -31 0 -40 29 -25 76 12 34 11 38 -16 60 -43 35 -85 31 -122 -11 -17 -19 -34 -50 -38 -70 -6 -33 -8 -35 -48 -35 -54 0 -84 21 -88 63 -4 42 -34 47 -77 12 l-31 -27 0 40 c0 40 -20 69 -40 57 -5 -3 -10 -41 -10 -86 0 -104 16 -113 75 -45 l42 47 6 -30 c11 -52 46 -66 160 -63 54 1 106 6 115 11 12 7 22 3 39 -15 29 -31 70 -31 117 1 l36 24 0 -52 c0 -29 5 -87 12 -129 10 -65 15 -78 30 -78 17 0 18 7 13 103 -3 56 -2 134 2 172 8 67 9 70 37 73 48 6 53 -13 13 -53 -40 -40 -50 -71 -19 -62 9 4 45 16 79 28 l62 21 27 -21 c31 -24 49 -26 82 -7 21 11 27 10 53 -15 32 -30 85 -44 130 -34 38 9 37 25 -2 25 -49 0 -100 29 -115 67 -8 18 -18 33 -24 33 -5 0 -6 15 -3 34 4 27 1 36 -18 50 -25 17 -26 17 -49 9z m30 -54 c0 -12 -37 -49 -50 -49 -16 0 -12 15 11 44 19 24 39 27 39 5z m-529 -27 c-5 -10 -22 -27 -36 -36 -24 -16 -25 -15 -25 2 0 27 49 77 62 64 7 -7 6 -16 -1 -30z m514 -52 c-3 -5 -14 -10 -23 -10 -15 0 -15 2 -2 10 20 13 33 13 25 0z"/>
<path d="M5954 9842 c-6 -4 -39 -62 -73 -129 -56 -110 -138 -223 -162 -223 -15 0 -11 114 5 135 17 24 10 45 -15 45 -38 0 -61 -122 -36 -183 13 -30 21 -37 43 -37 36 0 108 75 153 159 18 34 35 61 38 61 3 0 3 -27 0 -60 -8 -73 4 -107 38 -116 33 -8 98 20 129 57 l23 27 17 -38 c19 -44 53 -60 127 -60 49 0 179 45 179 62 0 12 -11 10 -76 -13 -66 -23 -156 -21 -181 4 -28 27 -27 89 1 167 27 75 28 100 3 100 -23 0 -36 -23 -54 -96 -14 -58 -25 -76 -68 -121 -52 -53 -87 -67 -99 -37 -6 15 1 77 25 211 13 72 7 101 -17 85z"/>
<path d="M4700 9822 c0 -5 -11 -15 -25 -22 -25 -13 -34 -45 -15 -52 7 -2 8 -19 4 -45 -4 -29 -12 -43 -26 -46 -26 -7 -20 -43 7 -39 11 1 50 5 88 9 46 4 67 10 67 19 0 10 -15 14 -50 14 -50 0 -50 0 -44 28 4 15 13 45 21 67 27 77 27 75 -1 75 -14 0 -26 -4 -26 -8z"/>
<path d="M741 9772 c-5 -9 -17 -47 -26 -82 -9 -36 -23 -88 -31 -117 l-15 -52 -62 -3 c-51 -2 -62 -6 -65 -21 -3 -17 2 -19 58 -15 57 3 61 2 55 -17 -18 -64 -34 -157 -29 -170 15 -38 99 4 146 74 37 55 12 56 -44 1 -64 -61 -69 -54 -42 55 l16 65 54 0 c57 0 77 20 22 21 -68 1 -68 3 -37 113 16 54 36 107 45 117 9 10 14 25 11 34 -9 21 -44 19 -56 -3z"/>
<path d="M1479 9583 c0 -5 -2 -39 -4 -78 -2 -38 -5 -88 -7 -110 -3 -35 0 -40 19 -43 18 -3 24 4 32 35 6 21 11 43 11 49 0 13 85 94 99 94 10 0 23 -90 19 -125 -2 -14 4 -21 20 -23 12 -2 22 1 22 7 0 14 58 79 82 92 19 10 20 8 13 -65 -9 -91 -1 -106 59 -106 43 0 146 42 146 60 0 13 2 13 -82 -10 -40 -11 -76 -16 -80 -12 -4 4 -3 38 3 75 19 123 -9 148 -94 83 l-45 -34 -6 38 c-3 20 -13 43 -21 50 -19 16 -61 6 -101 -25 l-32 -24 -6 39 c-5 31 -11 40 -26 40 -11 0 -20 -3 -21 -7z"/>
<path d="M810 9342 c0 -11 12 -22 34 -30 19 -7 40 -20 47 -28 14 -17 8 -25 -87 -101 -35 -28 -37 -33 -24 -47 19 -19 161 -27 167 -9 3 7 -11 14 -34 18 -74 13 -78 15 -51 32 95 64 105 124 27 163 -49 25 -79 26 -79 2z"/>
<path d="M1196 9341 c-3 -5 -2 -21 3 -34 11 -29 2 -71 -24 -111 -38 -58 13 -44 53 15 18 26 22 44 20 84 -3 42 -6 50 -25 53 -11 2 -24 -1 -27 -7z"/>
<path d="M6442 8928 c-6 -18 -13 -46 -17 -63 -3 -16 -17 -66 -31 -109 -19 -60 -22 -81 -13 -87 19 -11 36 0 50 33 16 40 96 148 109 148 13 0 13 -44 -2 -92 -8 -28 -8 -42 0 -50 8 -8 32 8 88 61 43 39 79 69 81 67 2 -2 -1 -24 -7 -48 -6 -25 -10 -60 -8 -79 3 -30 7 -34 33 -36 43 -4 168 29 173 46 4 11 -4 13 -34 8 -22 -3 -61 -9 -88 -13 l-49 -7 7 29 c3 16 9 53 12 81 6 44 4 54 -10 59 -23 9 -57 -8 -105 -52 l-41 -36 6 30 c17 82 -27 107 -91 51 -40 -35 -46 -24 -20 37 17 40 13 54 -15 54 -12 0 -22 -11 -28 -32z"/>
<path d="M7686 8928 c-2 -7 -20 -66 -41 -131 l-36 -119 -47 2 c-65 3 -72 2 -72 -14 0 -9 17 -16 46 -21 51 -7 50 -2 17 -88 -23 -61 -12 -81 47 -85 50 -4 125 22 134 45 10 25 -2 28 -33 10 -15 -9 -46 -19 -69 -23 -55 -9 -60 7 -28 80 l25 56 65 0 c66 0 94 13 53 24 -12 3 -39 6 -59 6 -21 0 -38 2 -38 5 0 3 18 58 40 122 22 64 38 123 36 130 -7 17 -35 17 -40 1z"/>
<path d="M5639 8923 c-1 -5 0 -34 1 -65 1 -31 -6 -82 -14 -113 -9 -31 -14 -60 -11 -65 10 -16 35 -11 42 8 13 41 52 119 68 137 16 19 16 18 11 -32 -5 -51 -4 -53 19 -53 14 0 26 7 29 18 4 10 20 32 37 48 l32 29 -7 -45 c-3 -25 -8 -55 -12 -66 -4 -14 0 -23 11 -28 35 -13 65 132 35 169 -16 20 -21 19 -63 -9 l-35 -24 -6 24 c-8 29 -40 32 -68 7 -17 -15 -18 -15 -18 10 0 38 -10 57 -31 57 -10 0 -20 -3 -20 -7z"/>
<path d="M7212 8860 c-51 -21 -96 -60 -109 -97 -30 -80 -52 -157 -47 -164 6 -11 -33 -107 -56 -137 -25 -32 -26 -62 -2 -62 14 0 29 22 55 78 21 43 37 84 37 91 0 7 13 0 29 -16 33 -32 198 -119 208 -110 11 12 -26 44 -89 77 -73 39 -100 64 -91 86 3 9 38 30 77 48 95 44 146 92 146 139 0 63 -81 97 -158 67z m106 -32 c37 -37 -14 -99 -121 -147 -38 -17 -70 -31 -72 -31 -8 0 39 127 54 144 33 39 114 59 139 34z"/>
<path d="M4883 8808 c-5 -7 -26 -76 -47 -153 -53 -200 -47 -195 -89 -69 -20 60 -39 128 -43 152 -5 31 -11 42 -25 42 -30 0 -30 -14 -4 -104 45 -155 96 -276 116 -276 25 0 27 6 59 145 16 68 38 154 49 191 12 36 21 70 21 75 0 13 -26 11 -37 -3z"/>
<path d="M6134 8795 c-14 -34 20 -38 119 -14 60 16 43 29 -38 29 -57 0 -77 -4 -81 -15z"/>
<path d="M4250 8770 c-16 -17 -32 -45 -36 -63 -3 -17 -12 -41 -19 -52 -12 -20 -28 -210 -29 -350 -1 -56 2 -70 14 -70 11 0 17 17 22 65 43 403 46 418 79 451 10 10 26 19 34 19 28 0 62 -45 70 -90 7 -40 5 -46 -19 -67 -19 -16 -40 -23 -67 -23 -33 0 -40 -3 -37 -17 5 -26 75 -22 122 6 43 27 53 59 37 120 -24 96 -114 132 -171 71z"/>
<path d="M594 8699 c-76 -60 -119 -195 -126 -389 -2 -86 0 -105 11 -105 11 0 19 23 28 81 8 44 21 109 31 143 17 62 17 63 68 80 88 29 137 79 137 140 0 61 -17 81 -67 81 -33 0 -52 -7 -82 -31z m104 -43 c5 -53 -37 -96 -115 -120 -21 -7 -21 -6 -9 42 17 61 31 87 59 107 37 26 62 16 65 -29z"/>
<path d="M5926 8722 c-2 -4 -7 -23 -11 -43 -5 -27 -2 -40 11 -53 16 -17 7 -17 -172 -15 -177 2 -189 1 -189 -16 0 -17 29 -18 625 -22 344 -2 635 -1 648 2 13 3 22 10 20 16 -2 7 -90 10 -268 9 -146 0 -335 2 -420 6 l-156 7 23 23 c25 25 30 63 11 82 -13 13 -114 17 -122 4z m89 -33 c7 -11 -22 -49 -37 -49 -4 0 -8 14 -8 30 0 23 5 30 19 30 11 0 23 -5 26 -11z"/>
<path d="M1554 8630 c-34 -14 -82 -77 -98 -128 -24 -84 -62 -370 -50 -382 18 -18 33 7 43 70 6 36 21 96 34 134 23 69 23 69 71 81 26 7 61 23 78 35 22 16 30 18 25 8 -3 -9 -11 -34 -18 -57 -8 -28 -18 -41 -30 -41 -23 0 -25 -9 -19 -82 7 -83 28 -85 53 -7 13 42 24 58 39 63 12 3 24 4 25 2 2 -2 -4 -31 -12 -65 -17 -65 -14 -81 14 -81 13 0 18 8 19 28 1 15 12 60 26 101 15 41 26 83 26 93 0 28 -39 23 -50 -6 -8 -22 -45 -44 -56 -34 -2 3 5 22 16 44 22 41 20 64 -4 64 -13 0 -13 4 0 36 17 40 8 81 -23 116 -17 19 -72 23 -109 8z m78 -37 c11 -9 18 -30 18 -51 0 -41 -39 -82 -95 -99 l-37 -12 8 27 c4 15 8 47 9 72 1 37 6 47 31 62 36 22 43 22 66 1z"/>
<path d="M5084 8625 c-4 -9 -2 -21 4 -27 14 -14 347 -7 363 9 8 8 -31 12 -148 16 -87 3 -170 8 -185 12 -21 6 -29 3 -34 -10z"/>
<path d="M5268 8553 c-70 -3 -78 -6 -78 -23 0 -24 -2 -24 165 -5 72 8 134 15 138 15 5 0 5 5 2 10 -6 10 -56 10 -227 3z"/>
<path d="M6032 8419 c-24 -38 -67 -95 -95 -126 l-52 -56 -5 54 c-4 46 -8 54 -25 54 -25 0 -32 -51 -15 -107 9 -33 15 -38 40 -38 30 0 84 52 139 134 l26 40 6 -50 c7 -61 16 -82 39 -89 26 -8 64 9 109 50 l40 37 7 -26 c19 -77 121 -73 219 8 48 39 24 39 -51 0 -78 -40 -118 -40 -128 0 -7 29 7 78 33 115 23 32 26 47 12 55 -18 12 -42 -7 -62 -48 -25 -49 -92 -121 -133 -143 -37 -19 -49 -4 -42 52 19 156 19 155 0 155 -12 -1 -34 -26 -62 -71z"/>
<path d="M7737 8454 c-3 -3 -3 -13 0 -21 4 -10 15 -13 42 -9 20 4 43 2 51 -4 12 -9 7 -18 -32 -53 -81 -73 -59 -93 76 -74 103 15 115 37 20 37 l-68 0 27 28 c53 55 27 102 -57 102 -29 0 -55 -3 -59 -6z"/>
<path d="M652 8423 c-5 -10 -12 -30 -16 -45 -3 -16 -13 -28 -21 -28 -17 0 -18 -8 -9 -74 5 -36 11 -46 25 -46 12 0 21 10 25 28 12 56 16 62 34 62 10 0 25 3 34 6 12 5 16 -5 18 -53 2 -44 7 -58 18 -58 9 0 16 11 18 25 9 88 15 112 34 130 17 16 19 22 8 35 -17 21 -27 19 -55 -10 -12 -14 -37 -30 -54 -35 -26 -7 -31 -6 -31 8 0 9 7 26 15 36 8 10 12 23 9 27 -9 15 -43 10 -52 -8z"/>
<path d="M4313 8398 c-6 -7 -13 -33 -17 -58 -4 -24 -12 -50 -18 -57 -8 -10 -8 -17 0 -25 7 -7 12 -29 12 -50 0 -31 4 -38 20 -38 17 0 20 7 20 40 0 40 0 40 39 40 22 0 45 2 53 5 10 4 13 -8 13 -52 0 -45 3 -58 15 -58 16 0 25 50 32 174 3 60 1 66 -17 66 -16 0 -21 -8 -23 -43 -4 -49 -27 -65 -79 -54 l-30 7 12 47 c8 33 9 50 1 58 -13 13 -21 13 -33 -2z"/>
<path d="M853 8274 c-46 -27 -55 -53 -22 -61 15 -4 19 -11 15 -27 -3 -11 -6 -26 -6 -32 0 -6 -18 -14 -40 -18 -31 -5 -40 -11 -40 -26 0 -19 5 -20 64 -16 95 7 136 17 136 32 0 10 -13 14 -40 14 -22 0 -40 3 -40 6 0 4 12 33 26 65 40 89 23 109 -53 63z"/>
<path d="M1188 8202 c5 -77 -8 -114 -61 -169 -27 -29 -29 -33 -11 -33 47 0 97 64 113 146 14 64 2 118 -26 122 -19 3 -20 0 -15 -66z"/>
<path d="M1800 8261 c-16 -4 -25 -14 -25 -26 0 -17 6 -20 38 -17 20 2 37 -2 37 -7 0 -6 -16 -26 -36 -46 -19 -20 -34 -43 -32 -53 6 -33 158 -25 158 9 0 7 -12 9 -35 5 -49 -9 -59 0 -35 31 48 61 5 125 -70 104z"/>
<path d="M4522 8224 c-28 -19 -30 -54 -2 -54 10 0 23 7 28 17 9 14 10 14 17 -6 4 -14 1 -30 -9 -44 -9 -12 -23 -32 -32 -45 -13 -17 -14 -25 -4 -37 25 -30 147 -28 158 3 2 8 -12 12 -45 12 -28 0 -53 3 -56 6 -3 4 3 18 13 32 26 32 26 93 2 115 -23 21 -41 21 -70 1z"/>
<path d="M1213 7740 c-45 -81 -116 -190 -159 -244 -54 -69 -64 -64 -64 32 0 48 -4 64 -16 69 -29 11 -37 -12 -29 -87 7 -75 27 -110 61 -110 24 0 75 58 142 159 l58 88 -4 -99 c-4 -84 -2 -102 13 -118 38 -42 90 -18 157 71 l34 45 0 -69 c-1 -107 27 -112 168 -29 77 46 54 52 -43 12 -41 -16 -78 -30 -82 -30 -14 0 -10 54 11 175 13 78 15 112 8 116 -17 11 -38 -1 -38 -21 0 -31 -70 -158 -114 -206 -32 -36 -47 -46 -61 -40 -17 6 -17 15 -10 109 12 156 12 200 -2 204 -7 3 -21 -10 -30 -27z"/>
<path d="M6262 7738 c-5 -7 -28 -72 -50 -145 -22 -72 -47 -141 -55 -153 l-15 -22 -17 26 c-24 37 -44 110 -52 189 -4 45 -11 71 -20 74 -28 11 -34 -12 -23 -88 20 -144 66 -239 117 -239 32 0 60 52 102 192 24 78 44 149 45 157 2 19 -19 25 -32 9z"/>
<path d="M6605 7608 c-28 -85 -91 -200 -136 -245 -58 -60 -67 -57 -48 17 5 19 -41 27 -52 8 -13 -20 -11 -82 3 -96 7 -7 25 -12 40 -12 39 0 116 73 156 147 28 51 31 55 32 30 0 -65 43 -87 87 -45 l23 21 0 -21 c0 -58 48 -97 117 -95 68 2 182 57 161 78 -2 2 -34 -7 -71 -20 -77 -28 -115 -31 -142 -11 -22 16 -23 60 -4 169 9 52 10 70 1 79 -16 16 -26 4 -52 -61 -23 -60 -56 -111 -71 -111 -7 0 -8 21 -5 55 3 30 9 80 12 110 5 50 4 55 -14 55 -16 0 -24 -12 -37 -52z"/>
<path d="M5165 7600 c-45 -18 -95 -112 -95 -177 0 -14 -6 -23 -15 -23 -25 0 -38 39 -31 97 6 51 5 53 -18 53 -31 0 -37 -19 -29 -88 6 -58 36 -102 67 -102 11 0 17 -15 22 -51 9 -64 41 -114 74 -114 16 0 25 6 25 15 0 8 -6 14 -12 13 -16 -4 -39 41 -48 94 -6 39 -5 44 17 52 29 11 81 66 102 108 24 47 21 98 -6 117 -25 18 -25 18 -53 6z m35 -55 c0 -43 -56 -135 -83 -135 -24 0 27 142 55 153 24 10 28 7 28 -18z"/>
<path d="M5512 7594 c-53 -37 -82 -145 -82 -307 0 -88 2 -98 18 -95 12 2 18 14 19 43 2 22 6 64 9 93 5 48 7 52 32 52 47 1 107 35 122 69 16 40 8 115 -15 141 -22 24 -72 26 -103 4z m78 -40 c25 -66 7 -110 -54 -134 -43 -16 -50 -2 -36 66 18 85 69 124 90 68z"/>
<path d="M5647 7423 c-4 -3 -7 -15 -7 -26 0 -10 -7 -34 -16 -53 -20 -42 -12 -84 16 -84 12 0 22 9 26 24 4 19 39 46 59 46 2 0 5 -17 7 -37 3 -33 7 -38 31 -41 19 -2 27 1 27 12 0 8 -5 16 -12 18 -11 4 -1 47 27 110 14 34 -22 30 -74 -7 l-52 -37 7 41 c6 36 4 41 -13 41 -11 0 -23 -3 -26 -7z"/>
<path d="M5265 7340 c-20 -39 -46 -155 -39 -173 7 -18 32 -30 45 -21 6 4 6 11 -1 19 -13 16 2 90 31 146 11 22 17 44 14 49 -12 19 -35 10 -50 -20z"/>
<path d="M3306 7330 c-27 -24 -35 -27 -40 -15 -3 8 -14 15 -25 15 -18 0 -19 -6 -15 -97 2 -54 4 -102 4 -106 0 -5 10 -7 23 -5 19 3 23 10 27 58 5 59 38 123 72 141 31 16 43 -3 44 -72 0 -33 6 -65 13 -72 14 -13 11 -15 74 73 l31 45 12 -69 c14 -85 38 -111 96 -103 21 3 36 1 33 -4 -3 -4 1 -22 9 -38 18 -34 72 -56 116 -46 37 8 80 58 80 94 0 39 -48 81 -98 88 -35 5 -44 1 -68 -22 -15 -15 -41 -32 -57 -38 -43 -15 -67 16 -67 87 0 54 -20 96 -45 96 -8 0 -30 -14 -49 -30 l-34 -30 -6 24 c-16 62 -75 74 -130 26z m511 -186 c8 -21 -16 -62 -39 -70 -27 -8 -76 5 -59 15 10 6 10 13 2 29 -8 16 -6 25 10 46 20 25 21 25 50 10 17 -8 33 -22 36 -30z"/>
<path d="M5876 7308 c-23 -57 -26 -84 -12 -103 17 -23 36 -11 36 23 0 15 7 40 15 56 20 39 19 56 -6 56 -13 0 -24 -11 -33 -32z"/>
<path d="M4260 7273 c-81 -10 -125 -11 -148 -4 -40 12 -64 5 -60 -18 3 -13 18 -16 78 -18 86 -3 272 27 278 45 4 14 2 14 -148 -5z"/>
<path d="M6928 7235 c-3 -3 -110 -12 -239 -20 -129 -8 -364 -26 -524 -40 -205 -18 -418 -29 -725 -36 -239 -6 -439 -15 -444 -19 -20 -19 7 -29 62 -24 31 2 219 9 417 14 237 7 477 20 700 39 187 16 439 35 560 42 213 11 257 19 225 39 -17 11 -25 12 -32 5z"/>
<path d="M4248 7211 c-69 -4 -122 -11 -129 -18 -22 -22 16 -25 143 -14 151 14 188 21 188 32 0 9 -14 9 -202 0z"/>
<path d="M1480 7020 c-40 -10 -72 -44 -68 -74 4 -31 41 -28 48 4 9 38 70 51 108 23 50 -37 43 -67 -38 -141 -56 -53 -72 -75 -76 -103 -7 -41 7 -92 36 -129 28 -37 35 -18 16 51 -22 78 -14 100 60 159 57 45 84 84 84 118 0 28 -38 72 -76 88 -37 15 -43 16 -94 4z"/>
<path d="M436 6962 c-6 -10 108 -391 130 -433 21 -41 50 -37 77 9 12 20 57 111 100 202 43 91 83 170 89 177 12 14 2 33 -17 33 -8 0 -55 -84 -111 -201 -81 -165 -100 -198 -110 -185 -13 18 -101 327 -106 371 -2 22 -9 31 -25 33 -11 2 -24 -1 -27 -6z"/>
<path d="M5614 6956 c-22 -10 -39 -30 -57 -68 -33 -68 -74 -255 -59 -270 19 -19 39 -1 45 40 l7 39 52 -14 c63 -17 196 -19 211 -4 14 14 -1 18 -93 24 -41 3 -86 9 -99 14 -22 9 -19 12 41 51 89 58 110 82 106 122 -6 60 -89 95 -154 66z m97 -36 c47 -26 15 -73 -97 -143 -41 -25 -42 -25 -47 -6 -7 27 21 108 46 137 22 24 65 29 98 12z"/>
<path d="M6082 6938 c-8 -10 -32 -112 -32 -135 0 -2 -23 -3 -51 -3 -43 0 -50 -3 -47 -17 2 -13 14 -19 40 -21 l36 -3 -1 -47 c-2 -41 1 -47 19 -50 25 -4 157 76 148 89 -9 15 -28 11 -78 -16 -43 -23 -46 -23 -46 -5 0 24 13 32 69 45 65 15 66 36 2 28 l-51 -6 21 62 c12 34 18 68 15 76 -7 18 -30 19 -44 3z"/>
<path d="M6392 6790 c-24 -16 -48 -30 -54 -32 -21 -7 1 -41 22 -35 17 4 20 0 20 -29 l0 -34 -53 0 c-60 0 -107 -23 -74 -36 26 -10 236 2 271 15 43 17 23 26 -46 22 l-61 -3 7 48 c3 26 13 55 21 64 18 20 20 50 3 50 -7 0 -32 -13 -56 -30z"/>
<path d="M933 6733 c-10 -24 10 -33 75 -33 67 0 212 28 212 40 0 13 -282 6 -287 -7z"/>
<path d="M1487 6483 c-14 -13 -6 -33 12 -33 25 0 38 20 20 31 -17 11 -24 11 -32 2z"/>
<path d="M6175 5993 c-71 -89 -109 -160 -180 -338 -7 -17 -9 -15 -16 15 -4 19 -13 98 -19 175 -13 164 -13 165 -40 165 -11 0 -20 -6 -20 -12 0 -40 34 -318 44 -356 24 -95 67 -77 111 46 40 112 86 198 149 276 30 38 53 73 50 77 -12 20 -36 5 -79 -48z"/>
<path d="M5365 5986 c-52 -23 -60 -48 -62 -190 0 -71 -4 -152 -7 -180 -8 -62 11 -100 38 -77 12 10 16 32 16 96 l0 83 33 13 c49 20 98 55 118 86 38 57 14 143 -46 169 -42 17 -51 17 -90 0z m94 -52 c42 -53 17 -115 -61 -155 l-40 -20 8 23 c12 40 10 53 -10 51 -16 -1 -18 4 -13 43 2 25 13 54 22 64 26 29 69 26 94 -6z"/>
<path d="M7040 5987 c0 -7 5 -18 10 -23 6 -6 45 -79 89 -162 73 -141 78 -156 70 -190 -5 -20 -9 -97 -9 -169 0 -123 1 -133 19 -133 16 0 19 11 25 71 6 56 10 68 20 60 7 -6 37 -15 66 -21 49 -9 60 -17 136 -96 l83 -85 -239 3 c-189 2 -240 0 -240 -10 0 -25 50 -30 281 -24 l235 5 82 -63 c45 -35 82 -66 82 -70 0 -3 -17 -12 -37 -19 -21 -8 -43 -16 -50 -18 -6 -3 -14 10 -18 29 -15 67 -45 58 -75 -21 -17 -47 -28 -61 -57 -75 l-36 -17 6 86 c6 84 6 86 -16 83 -16 -2 -23 -13 -29 -42 -10 -49 -72 -168 -101 -193 -12 -11 -43 -32 -69 -47 l-47 -27 -6 23 c-3 13 -4 36 -3 53 2 21 -2 30 -14 33 -28 5 -42 -44 -28 -92 6 -21 8 -42 3 -45 -4 -4 -27 -22 -50 -40 -49 -37 -57 -71 -19 -71 15 0 27 7 30 18 10 27 84 77 111 74 17 -2 40 12 83 51 69 64 104 86 110 69 2 -7 11 -21 21 -33 26 -33 53 -17 92 54 41 74 60 79 71 18 9 -54 48 -133 67 -139 11 -4 12 1 7 19 -34 107 -50 199 -36 199 4 0 39 14 77 31 60 27 66 32 49 43 -15 9 -141 109 -156 123 -3 3 34 2 83 -2 57 -5 87 -4 87 3 0 15 -22 21 -122 28 l-92 7 -73 76 c-72 75 -73 76 -48 85 40 16 31 36 -16 36 -35 0 -47 6 -75 37 -19 20 -34 40 -34 45 0 4 25 32 55 61 51 49 55 57 55 99 0 128 -141 173 -198 62 l-19 -38 -62 121 c-34 67 -71 133 -82 147 -22 28 -49 35 -49 13z m349 -243 c40 -51 25 -97 -51 -163 l-26 -23 -18 33 c-15 30 -16 41 -5 94 7 33 17 66 23 73 17 20 55 14 77 -14z m-109 -203 c0 -6 -4 -13 -10 -16 -5 -3 -10 1 -10 9 0 9 5 16 10 16 6 0 10 -4 10 -9z m48 -61 c10 -16 10 -20 0 -20 -22 0 -41 17 -34 29 10 16 20 14 34 -9z m107 -540 c-3 -5 -11 -10 -16 -10 -6 0 -7 5 -4 10 3 6 11 10 16 10 6 0 7 -4 4 -10z m75 -19 c-15 -29 -30 -35 -30 -12 0 17 11 28 33 30 4 1 3 -8 -3 -18z"/>
<path d="M6780 5875 c-58 -30 -108 -54 -111 -54 -4 -1 -6 7 -5 16 0 10 -7 19 -17 21 -12 2 -22 -9 -36 -40 -16 -35 -30 -49 -81 -76 l-62 -34 3 63 c3 54 1 64 -14 67 -18 4 -20 0 -36 -64 -15 -57 -62 -123 -107 -151 -53 -31 -62 -29 -66 15 -2 30 -7 38 -25 40 -20 3 -23 -1 -23 -27 0 -16 5 -42 11 -58 9 -24 7 -30 -15 -46 -14 -10 -26 -25 -26 -33 0 -8 -8 -14 -17 -14 -10 0 -74 -7 -143 -15 -383 -46 -523 -55 -831 -55 -287 0 -338 -4 -316 -26 9 -9 549 -4 672 6 66 6 239 24 385 40 146 16 353 34 460 40 290 16 320 19 320 36 0 12 -9 14 -42 9 -46 -6 -352 -25 -406 -25 -43 0 -34 14 26 43 26 13 69 40 95 60 43 33 50 35 63 22 27 -27 79 -19 118 18 33 32 35 32 40 12 10 -40 44 -72 83 -78 46 -8 110 8 143 34 l25 21 -30 -7 c-66 -13 -115 -17 -138 -11 -32 8 -48 46 -40 101 l6 44 128 73 c113 64 148 89 122 87 -5 0 -55 -24 -113 -54z m-258 -196 c-30 -26 -52 -31 -52 -10 0 8 59 40 75 40 6 0 -5 -13 -23 -30z"/>
<path d="M8805 5921 c-3 -6 -6 -61 -8 -123 -2 -107 -1 -113 18 -113 16 0 21 9 27 47 3 27 17 65 30 85 l23 38 3 -57 c2 -32 9 -61 17 -68 15 -12 14 -13 67 59 18 25 38 46 44 48 6 2 18 -30 28 -77 11 -53 22 -80 31 -80 24 0 25 15 10 95 -22 113 -40 127 -108 81 l-36 -24 -10 29 c-12 36 -50 39 -81 7 l-21 -23 6 28 c10 37 -22 76 -40 48z"/>
<path d="M4962 5884 c-34 -41 -52 -95 -60 -176 l-5 -58 -43 0 c-58 0 -79 29 -69 96 4 26 12 55 17 64 15 23 3 52 -19 48 -10 -2 -23 -14 -30 -28 -15 -30 -17 -144 -3 -171 15 -27 63 -49 108 -49 35 0 41 -3 47 -27 9 -38 34 -63 61 -63 33 0 40 18 11 29 -51 20 -50 72 2 107 98 64 141 205 78 249 -35 24 -63 18 -95 -21z m84 -28 c3 -14 0 -42 -6 -62 -13 -37 -74 -114 -92 -114 -16 0 0 88 27 148 27 59 60 72 71 28z"/>
<path d="M7757 5873 c-3 -5 -10 -37 -17 -73 -6 -36 -20 -104 -31 -152 l-21 -88 -37 6 c-40 6 -86 -10 -76 -27 4 -5 28 -9 54 -9 l47 0 -14 -75 c-14 -67 -13 -76 2 -100 35 -53 110 -17 123 59 7 46 -12 48 -30 4 -32 -77 -72 -73 -62 6 13 93 18 99 75 91 65 -9 68 10 4 26 -39 10 -45 15 -40 33 25 91 57 253 54 274 -3 25 -22 40 -31 25z"/>
<path d="M10150 5823 c-25 -78 -83 -203 -94 -203 -6 0 -28 5 -50 11 -28 8 -41 8 -50 -1 -16 -17 20 -40 62 -40 34 0 34 0 27 -39 -5 -33 -3 -41 17 -55 49 -35 148 -2 148 49 0 16 -6 25 -15 25 -8 0 -15 -7 -15 -15 0 -18 -31 -35 -63 -35 -31 0 -35 5 -29 35 3 19 12 26 41 31 57 9 72 15 66 25 -4 5 -23 9 -44 9 l-39 0 49 110 c27 60 49 114 49 120 0 5 -11 10 -24 10 -19 0 -27 -8 -36 -37z"/>
<path d="M9689 5793 c-47 -51 -78 -119 -103 -224 -13 -57 -28 -112 -31 -121 -8 -21 20 -37 36 -21 5 5 25 69 44 141 36 139 46 164 78 200 39 42 105 16 92 -37 -8 -32 -27 -53 -91 -94 -62 -41 -69 -72 -24 -110 63 -53 140 -56 199 -6 33 27 18 36 -24 16 -20 -9 -48 -17 -64 -17 -28 0 -91 36 -98 55 -2 6 22 25 53 44 90 54 121 132 71 179 -36 33 -105 31 -138 -5z"/>
<path d="M5503 5793 c-20 -57 -33 -83 -42 -83 -13 0 -14 -33 -2 -45 5 -6 11 -23 13 -40 2 -22 8 -30 23 -30 16 0 21 8 23 41 3 37 6 41 41 50 l38 10 -5 -45 c-3 -38 0 -50 17 -65 20 -18 23 -19 38 -3 11 11 13 17 5 17 -17 0 -15 89 3 124 19 35 19 42 0 50 -8 3 -27 -6 -42 -20 -27 -25 -69 -41 -80 -31 -3 4 0 20 7 36 6 16 9 35 5 40 -10 17 -35 13 -42 -6z"/>
<path d="M3215 5766 c-45 -45 -59 -122 -57 -315 1 -96 6 -179 11 -184 5 -5 17 -7 25 -4 12 5 16 22 16 74 0 37 3 105 7 151 l6 82 41 0 c98 0 170 43 168 100 -2 90 -155 158 -217 96z m108 -17 c74 -38 90 -96 33 -123 -19 -9 -55 -19 -80 -22 l-46 -7 6 32 c5 24 3 31 -10 31 -19 0 -20 13 -5 43 29 56 58 69 102 46z"/>
<path d="M3870 5768 c0 -7 7 -35 16 -63 8 -27 30 -120 49 -205 39 -183 56 -230 84 -230 24 0 27 8 46 149 9 63 29 164 45 225 27 107 27 147 -1 119 -15 -15 -65 -210 -81 -315 -6 -43 -15 -78 -20 -78 -4 0 -8 3 -8 8 0 12 -68 335 -78 367 -9 31 -52 50 -52 23z"/>
<path d="M5722 5693 c-4 -10 -7 -52 -7 -93 0 -60 3 -75 15 -75 11 0 18 21 27 80 7 44 11 86 8 93 -7 18 -35 15 -43 -5z"/>
<path d="M5096 5691 c-3 -4 -12 -35 -21 -67 -25 -98 -17 -164 21 -164 7 0 10 16 7 48 -4 41 3 78 32 170 6 18 4 22 -13 22 -12 0 -23 -4 -26 -9z"/>
<path d="M8945 5630 c-169 -4 -200 -7 -200 -20 0 -22 70 -24 355 -11 278 13 330 18 330 32 0 9 -116 9 -485 -1z"/>
<path d="M4165 5610 c-13 -21 21 -42 71 -43 81 -2 164 13 164 29 0 11 -18 14 -87 12 -49 -1 -100 2 -114 6 -18 5 -29 4 -34 -4z"/>
<path d="M8095 5610 c-24 -39 116 -58 268 -37 114 16 127 21 110 38 -7 7 -35 7 -93 -2 -75 -11 -168 -8 -246 7 -20 4 -34 1 -39 -6z"/>
<path d="M4390 5550 c-14 -4 -54 -9 -90 -9 -70 -1 -97 -11 -85 -31 17 -28 225 9 225 39 0 12 -14 13 -50 1z"/>
<path d="M6956 5544 c-13 -33 23 -46 57 -20 27 21 20 36 -17 36 -22 0 -36 -6 -40 -16z"/>
<path d="M3500 5530 c-11 -20 -79 -60 -102 -60 -8 0 -14 11 -13 28 0 21 -5 28 -22 30 -20 3 -23 -1 -23 -30 0 -19 -4 -38 -9 -43 -5 -6 -6 -39 -2 -75 5 -56 9 -65 26 -65 17 0 20 8 23 58 2 42 7 57 18 57 8 0 33 9 54 20 l40 20 0 -32 c0 -52 19 -107 41 -119 27 -14 35 -5 21 25 -20 45 -24 109 -9 153 8 23 12 45 9 48 -12 12 -42 4 -52 -15z"/>
<path d="M10300 5505 c0 -8 16 -21 35 -29 19 -8 35 -20 35 -26 0 -7 -16 -28 -35 -47 -23 -23 -35 -44 -33 -57 3 -18 11 -21 67 -24 63 -3 121 11 121 30 0 6 -25 7 -65 3 -66 -7 -80 0 -49 26 8 7 22 26 30 42 14 26 14 31 -1 53 -25 39 -105 61 -105 29z"/>
<path d="M9171 5482 c-7 -16 -28 -45 -48 -63 l-35 -34 4 55 c3 50 1 55 -18 58 -18 3 -22 -4 -28 -39 -14 -89 -111 -225 -154 -217 -13 3 -17 15 -17 47 0 24 -4 46 -10 47 -39 13 -58 -67 -25 -109 42 -53 118 -21 180 77 31 48 38 53 63 49 22 -4 35 1 58 23 l29 28 0 -43 c0 -42 14 -80 34 -93 27 -18 82 -8 116 22 37 31 24 40 -20 15 -69 -39 -94 -6 -88 120 2 67 0 80 -13 83 -10 2 -21 -8 -28 -26z"/>
<path d="M7855 5399 c-9 -14 -1 -21 38 -34 49 -16 47 -46 -7 -110 -25 -29 -46 -58 -46 -64 0 -29 103 1 171 50 39 28 27 43 -19 23 -20 -9 -44 -19 -52 -22 -8 -3 -3 9 13 27 29 35 33 60 17 92 -20 37 -100 63 -115 38z"/>
<path d="M3614 5367 c-10 -26 5 -39 37 -32 32 7 69 -1 69 -16 0 -5 -22 -25 -50 -45 -71 -51 -65 -74 18 -74 53 1 118 33 136 69 19 36 6 49 -20 20 -22 -25 -66 -49 -89 -49 -10 0 -3 11 20 31 42 37 44 62 9 85 -36 24 -122 31 -130 11z"/>
<path d="M5956 5333 c-9 -27 -22 -75 -29 -108 l-13 -60 -75 -5 c-62 -4 -74 -8 -77 -24 -4 -18 1 -19 70 -13 l74 5 -6 -49 c-9 -66 0 -78 42 -60 18 7 52 21 76 30 23 9 42 22 42 30 0 10 -10 12 -42 8 -24 -2 -51 -8 -60 -12 -20 -8 -22 2 -8 39 7 19 17 26 37 26 38 0 73 10 73 21 0 5 -22 9 -50 9 -27 0 -50 3 -50 6 0 20 42 144 50 149 6 3 10 17 10 31 0 19 -5 24 -24 24 -20 0 -27 -8 -40 -47z"/>
<path d="M5314 5319 c-4 -7 12 -29 40 -53 l47 -41 -14 -55 c-8 -31 -18 -104 -22 -163 -7 -103 -7 -107 13 -107 22 0 32 31 33 104 0 34 2 37 9 19 11 -28 92 -53 168 -53 49 0 58 -4 105 -44 64 -54 186 -131 194 -122 4 3 4 7 2 9 -2 2 -29 21 -59 42 -82 57 -159 135 -153 153 4 10 1 13 -8 10 -8 -3 -33 12 -56 35 l-42 40 24 29 c58 68 10 142 -90 141 -5 0 -24 -3 -42 -7 -28 -7 -36 -3 -70 33 -38 41 -66 51 -79 30z m244 -105 c27 -18 28 -45 4 -67 -17 -16 -21 -14 -61 27 -44 45 -43 54 9 55 14 1 36 -6 48 -15z m-48 -105 c0 -4 -20 -18 -44 -32 l-45 -25 0 52 c0 89 5 94 50 50 21 -21 39 -41 39 -45z m70 -74 c37 -38 32 -41 -40 -24 -75 16 -77 18 -45 39 40 27 46 26 85 -15z"/>
<path d="M6221 5136 c-28 -28 -31 -37 -21 -52 8 -13 9 -35 3 -69 l-9 -50 -39 0 c-22 0 -46 -4 -53 -8 -20 -13 5 -37 39 -37 16 0 38 -5 48 -12 14 -9 23 -8 42 5 13 10 39 17 59 17 46 0 110 18 110 32 0 7 -26 8 -80 3 -72 -6 -80 -5 -80 10 0 27 31 139 42 152 13 16 3 43 -15 43 -7 0 -28 -15 -46 -34z"/>
<path d="M3521 4061 c-137 -356 -162 -743 -58 -907 29 -47 91 -104 112 -104 22 0 18 9 -10 32 -111 87 -158 293 -121 533 23 147 67 314 110 419 42 100 43 106 17 106 -15 0 -27 -18 -50 -79z"/>
<path d="M5283 4048 c-6 -7 -20 -57 -32 -110 -22 -97 -23 -98 -52 -98 -36 0 -40 -27 -5 -36 24 -6 24 -6 9 -61 -19 -73 -14 -117 12 -121 27 -4 109 51 123 82 14 32 0 42 -23 16 -10 -11 -33 -29 -51 -40 -28 -16 -34 -17 -34 -4 0 23 22 108 30 117 4 4 40 13 80 20 102 17 105 37 6 30 -42 -3 -76 -4 -76 -2 0 2 11 46 25 98 14 52 23 101 21 108 -7 16 -21 17 -33 1z"/>
<path d="M6867 4023 c-12 -12 -8 -18 73 -112 113 -134 139 -197 140 -343 0 -153 -51 -327 -120 -410 -46 -53 -47 -58 -21 -58 11 0 36 20 56 44 97 119 151 396 109 559 -22 87 -43 123 -135 231 -80 94 -89 103 -102 89z"/>
<path d="M8117 3844 c-4 -4 -7 -33 -7 -65 0 -34 -8 -79 -19 -107 -15 -37 -17 -52 -8 -61 19 -19 27 -13 47 33 18 44 84 126 101 126 4 0 9 -24 11 -52 4 -70 23 -73 86 -14 54 51 75 58 68 24 -3 -13 -8 -45 -11 -73 -4 -27 -11 -58 -16 -67 -16 -29 18 -22 37 7 24 37 42 169 25 189 -20 24 -44 19 -94 -19 -25 -19 -48 -35 -51 -35 -3 0 -6 13 -6 28 0 53 -40 67 -90 32 l-29 -20 -3 37 c-3 36 -23 54 -41 37z"/>
<path d="M5482 3828 c-15 -15 3 -38 29 -38 34 0 20 -27 -41 -80 -64 -55 -72 -73 -41 -90 37 -19 180 -7 188 17 3 9 -19 13 -78 15 l-81 3 47 34 c76 55 87 118 24 140 -38 13 -33 13 -47 -1z"/>
<path d="M3721 3811 c-34 -34 -59 -125 -82 -298 -22 -173 -21 -203 5 -203 10 0 16 16 20 53 4 28 12 82 18 120 10 61 13 67 35 67 51 0 116 24 149 55 28 27 34 39 34 75 0 101 -120 190 -179 131z m109 -58 c57 -65 28 -145 -59 -158 -20 -4 -44 -8 -54 -10 -15 -3 -17 2 -11 33 3 21 10 52 16 70 5 18 7 39 4 47 -2 7 4 25 15 38 24 32 49 26 89 -20z"/>
<path d="M9313 3773 c-9 -21 -29 -78 -43 -128 l-28 -90 -68 -5 c-55 -4 -69 -8 -72 -22 -3 -16 5 -18 63 -18 l66 0 -7 -64 c-6 -58 -5 -65 14 -75 34 -18 52 -13 90 24 24 25 32 39 25 46 -7 7 -19 2 -36 -15 -14 -14 -34 -26 -43 -26 -14 0 -16 7 -10 52 4 29 13 56 19 61 7 4 36 6 65 3 71 -6 65 16 -6 27 -32 5 -52 14 -52 21 0 19 48 163 65 196 20 39 19 50 -6 50 -14 0 -25 -12 -36 -37z"/>
<path d="M3138 3632 c-29 -158 -62 -265 -81 -259 -21 6 -44 69 -71 190 -34 158 -50 190 -85 168 -13 -8 -12 -15 2 -48 10 -21 31 -89 47 -151 16 -62 37 -129 46 -148 19 -41 57 -69 79 -60 30 11 67 115 96 274 34 185 34 182 11 182 -15 0 -22 -22 -44 -148z"/>
<path d="M4441 3735 c-39 -50 -54 -200 -26 -255 15 -29 60 -60 87 -60 10 0 13 -18 10 -74 -4 -66 -2 -75 16 -85 25 -13 52 -5 52 16 0 10 -6 13 -16 9 -14 -5 -16 2 -12 62 3 65 5 70 45 105 45 41 77 107 87 179 6 39 4 50 -13 67 -57 57 -105 -7 -141 -190 -9 -48 -14 -56 -30 -52 -51 13 -71 85 -50 174 8 31 23 62 38 76 27 25 24 53 -7 53 -11 0 -29 -11 -40 -25z m209 -79 c0 -32 -33 -118 -55 -143 -28 -33 -31 -21 -11 52 17 64 44 117 56 110 6 -4 10 -12 10 -19z"/>
<path d="M6405 3726 c-46 -20 -63 -82 -79 -286 -7 -96 -10 -179 -5 -184 4 -5 15 -6 23 -3 12 5 16 20 16 56 0 63 35 328 49 363 21 55 112 42 127 -18 9 -34 -27 -72 -83 -86 -25 -6 -43 -16 -43 -24 0 -35 123 3 154 47 26 38 20 77 -18 115 -38 38 -85 45 -141 20z"/>
<path d="M8836 3697 c-30 -7 -44 -19 -67 -55 -32 -50 -59 -157 -62 -247 -2 -54 0 -60 18 -60 16 0 22 10 30 52 l10 51 23 -19 c50 -40 158 -51 218 -23 67 32 58 55 -11 29 -39 -16 -53 -16 -99 -6 -52 11 -96 35 -96 50 0 4 18 16 39 26 62 28 103 76 105 123 1 42 -21 76 -52 84 -9 2 -34 0 -56 -5z m62 -64 c2 -18 -2 -41 -8 -52 -11 -21 -97 -77 -106 -69 -9 10 37 138 54 148 32 19 57 8 60 -27z"/>
<path d="M6026 3584 c-59 -11 -82 -12 -92 -3 -11 9 -18 8 -29 -1 -22 -18 -19 -29 12 -41 20 -7 52 -4 132 12 108 23 118 26 110 33 -12 13 -63 13 -133 0z"/>
<path d="M7340 3585 c-23 -28 4 -40 101 -44 108 -4 182 5 176 22 -2 8 -30 11 -88 9 -76 -3 -111 2 -160 22 -9 4 -21 0 -29 -9z"/>
<path d="M8325 3549 c-213 -43 -243 -46 -260 -23 -9 14 -16 14 -33 5 -28 -15 -28 -27 -1 -41 37 -20 121 -12 300 29 96 23 203 44 237 47 34 4 62 11 62 15 0 19 -123 6 -305 -32z"/>
<path d="M4855 3550 c-11 -17 18 -42 39 -34 9 4 16 14 14 23 -4 19 -43 27 -53 11z"/>
<path d="M3922 3503 c-5 -10 -13 -32 -16 -48 -4 -18 -16 -35 -29 -41 -12 -5 -20 -16 -18 -24 25 -98 28 -105 47 -105 15 0 20 9 24 43 4 38 10 46 49 69 38 22 43 23 37 8 -4 -10 -9 -44 -13 -76 -5 -49 -3 -60 11 -65 9 -3 23 -3 32 0 13 5 14 9 4 21 -10 12 -9 29 4 86 29 129 14 158 -49 95 -43 -44 -60 -46 -51 -8 4 15 8 34 9 42 3 21 -30 24 -41 3z"/>
<path d="M6584 3512 c-18 -12 -44 -116 -44 -177 0 -48 3 -56 18 -53 12 2 18 15 20 44 3 38 6 42 40 53 20 7 43 15 49 17 10 4 11 -9 7 -55 -5 -42 -3 -65 6 -76 20 -24 30 -18 30 18 0 17 7 63 15 102 15 72 9 100 -19 80 -47 -35 -64 -44 -88 -50 -27 -7 -27 -7 -17 27 20 62 13 90 -17 70z"/>
<path d="M5400 3494 c-8 -1 -68 -6 -132 -9 -87 -5 -118 -10 -118 -20 0 -21 19 -22 175 -9 175 15 215 21 215 34 0 9 -105 12 -140 4z"/>
<path d="M4691 3451 c-15 -9 -38 -199 -27 -226 3 -8 14 -15 24 -15 17 0 20 11 25 118 3 64 3 120 -1 124 -4 4 -13 3 -21 -1z"/>
<path d="M7425 3448 c-83 -9 -107 -20 -88 -39 8 -8 30 -8 80 0 37 5 102 13 143 17 85 7 106 15 70 25 -33 9 -108 8 -205 -3z"/>
<path d="M9484 3405 c-3 -8 4 -30 16 -50 27 -44 21 -65 -36 -112 -77 -65 -52 -91 76 -80 76 6 150 26 150 39 0 5 -47 6 -105 2 l-106 -7 41 40 c45 46 51 82 24 136 -24 47 -50 60 -60 32z"/>
<path d="M4146 3346 c-28 -24 -37 -39 -32 -51 3 -9 12 -15 19 -12 10 4 12 -8 9 -52 -3 -42 0 -60 11 -69 20 -17 28 -3 32 58 2 27 13 70 24 96 33 73 4 87 -63 30z"/>
<path d="M5327 3373 c-4 -3 -7 -34 -8 -67 -2 -96 -8 -110 -54 -116 -27 -3 -41 -10 -43 -22 -3 -14 4 -18 31 -18 l35 0 -9 -35 c-11 -40 -5 -71 15 -78 17 -7 126 44 145 67 25 30 2 30 -59 1 -33 -16 -61 -27 -63 -24 -2 2 0 18 5 36 7 29 14 33 63 43 67 14 72 30 9 30 l-46 0 6 38 c5 35 9 111 7 140 -1 13 -23 17 -34 5z"/>
<path d="M8441 3324 c-18 -25 -56 -64 -85 -86 -58 -46 -66 -40 -46 40 20 79 -24 84 -48 5 -23 -77 -136 -223 -173 -223 -24 0 -33 16 -39 75 -3 35 -9 50 -20 50 -11 0 -16 -14 -18 -57 -3 -51 0 -61 22 -83 30 -30 74 -33 107 -6 13 10 46 48 74 85 27 36 52 62 55 57 5 -10 25 -14 53 -12 10 0 43 24 73 52 l54 52 0 -34 c0 -48 24 -79 61 -79 16 0 29 5 29 10 0 6 -9 10 -20 10 -33 0 -37 43 -14 158 10 50 -25 43 -65 -14z"/>
<path d="M6761 3301 c-8 -5 -11 -16 -7 -26 5 -14 14 -16 43 -12 l36 6 -20 -22 c-11 -12 -26 -33 -33 -46 -11 -21 -10 -26 6 -38 25 -19 69 -10 118 25 77 54 77 91 0 43 -63 -41 -84 -40 -50 0 30 36 31 42 10 63 -17 17 -80 21 -103 7z"/>
<path d="M5546 3188 c-3 -13 -6 -67 -6 -120 0 -81 3 -98 15 -98 8 0 15 1 15 3 1 1 5 45 10 97 5 52 10 104 12 115 5 30 -37 33 -46 3z"/>
<path d="M4753 2168 c-6 -8 -8 -52 -4 -113 6 -93 8 -100 28 -103 18 -3 24 5 37 50 8 29 22 62 29 72 14 19 15 17 22 -23 11 -65 28 -62 100 15 44 48 66 66 74 59 9 -9 30 -121 31 -162 0 -21 28 -15 35 7 6 18 1 75 -11 143 -14 70 -66 75 -134 11 l-48 -45 -7 30 c-10 48 -42 51 -83 6 l-34 -37 7 42 c5 31 4 45 -6 51 -19 12 -25 11 -36 -3z"/>
<path d="M6278 2143 c-6 -16 -23 -75 -39 -133 l-27 -105 -89 -5 c-75 -4 -88 -8 -91 -23 -4 -18 2 -18 82 -12 l86 7 -2 -69 c-4 -88 15 -123 67 -123 39 0 75 28 75 59 0 31 -19 35 -30 6 -13 -33 -37 -42 -58 -21 -19 18 -19 120 -1 143 7 7 32 13 60 13 26 0 51 5 54 10 7 11 -1 13 -64 10 l-44 -2 7 44 c4 23 20 83 37 131 16 49 29 90 29 93 0 2 -9 4 -20 4 -13 0 -25 -10 -32 -27z"/>
<path d="M5699 2037 c-19 -13 -41 -26 -50 -29 -22 -9 -39 -74 -45 -180 -6 -108 5 -183 26 -183 11 0 16 14 18 47 l3 46 43 -24 c24 -13 68 -29 99 -35 49 -9 62 -7 105 11 50 22 121 84 109 96 -4 4 -21 -4 -39 -18 -80 -61 -128 -70 -211 -42 -71 24 -75 36 -28 75 100 80 145 197 92 240 -31 26 -81 24 -122 -4z m95 -23 c9 -8 16 -21 16 -27 -1 -32 -43 -98 -96 -150 l-59 -57 -3 64 c-2 49 2 74 16 103 37 72 92 101 126 67z"/>
<path d="M4575 1900 c-13 -21 12 -32 92 -41 92 -9 661 -12 716 -3 83 14 28 24 -135 25 -232 1 -618 15 -644 24 -13 4 -25 2 -29 -5z"/>
<path d="M6495 1840 c-8 -13 3 -30 19 -30 25 0 116 -31 116 -40 0 -5 -27 -28 -60 -51 -44 -31 -60 -48 -60 -65 0 -37 62 -49 174 -35 93 12 106 16 106 32 0 5 -39 7 -99 3 -137 -9 -147 -3 -78 46 92 66 85 102 -27 134 -63 19 -82 20 -91 6z"/>
<path d="M2850 1822 c0 -10 4 -22 9 -27 5 -6 25 -75 46 -155 77 -305 99 -360 142 -346 11 3 27 23 37 44 27 55 134 357 142 397 5 31 4 35 -14 35 -16 0 -23 -9 -28 -37 -7 -39 -115 -337 -135 -375 -11 -20 -12 -20 -22 -3 -13 23 -50 160 -83 300 -43 188 -42 185 -69 185 -17 0 -25 -6 -25 -18z"/>
<path d="M4879 1659 c-18 -34 -53 -83 -77 -110 -38 -43 -49 -49 -83 -49 -35 0 -41 4 -56 35 -18 37 -40 52 -56 36 -7 -7 -6 -19 2 -37 6 -15 10 -28 9 -30 -7 -7 -396 -7 -429 0 -25 5 -39 4 -44 -4 -19 -30 17 -35 263 -37 136 -1 270 -2 297 -2 144 -3 1148 19 1535 34 301 11 595 16 908 13 340 -2 462 0 462 8 0 28 -832 29 -1370 3 -107 -5 -471 -12 -809 -16 l-614 -6 34 47 c33 46 34 47 48 27 7 -12 24 -21 38 -21 33 0 80 26 93 51 11 20 13 19 43 -16 22 -25 43 -38 69 -42 42 -6 136 4 158 17 27 17 2 21 -54 11 -47 -9 -64 -8 -97 5 -45 19 -59 39 -59 86 0 32 -14 58 -32 58 -4 0 -17 -19 -29 -42 -28 -55 -58 -88 -81 -88 -17 0 -18 7 -16 61 4 83 -12 85 -53 8z"/>
<path d="M3392 1668 c-7 -7 -12 -16 -12 -21 0 -17 71 -37 130 -37 95 0 251 22 247 34 -4 11 -20 12 -192 5 -83 -3 -104 -1 -125 14 -29 20 -32 21 -48 5z"/>
<path d="M3450 1534 c0 -6 7 -15 16 -18 20 -8 220 -6 258 3 64 13 24 21 -121 24 -114 3 -153 0 -153 -9z"/>
<path d="M5775 1333 c-4 -27 -11 -69 -17 -95 -10 -47 -10 -48 -49 -48 -27 0 -39 -4 -39 -14 0 -15 21 -26 51 -26 15 0 19 -5 15 -17 -9 -30 -10 -88 -2 -101 19 -31 106 6 106 46 0 17 -8 15 -38 -9 -24 -19 -27 -19 -30 -4 -2 9 -1 32 2 50 6 32 9 34 54 37 57 4 58 22 2 26 -22 2 -40 4 -40 6 0 1 8 40 18 87 21 92 19 109 -8 109 -14 0 -19 -11 -25 -47z"/>
<path d="M5972 1183 c2 -12 14 -19 33 -21 51 -6 51 -18 2 -71 -52 -55 -54 -62 -31 -85 24 -25 144 -16 144 10 0 10 -15 14 -57 14 l-57 0 42 43 c56 57 56 95 -1 116 -45 17 -79 14 -75 -6z"/>
<path d="M4490 1112 c-80 -36 -92 -66 -95 -229 -2 -73 -6 -150 -10 -172 -5 -33 -3 -42 10 -47 23 -9 26 -4 31 77 7 115 11 129 42 129 39 0 130 56 152 93 29 47 26 93 -9 128 -23 22 -38 29 -68 28 -21 0 -45 -3 -53 -7z m90 -44 c11 -12 20 -33 20 -46 0 -33 -70 -102 -103 -102 -14 0 -32 -3 -40 -6 -16 -6 -15 8 5 100 9 40 16 50 42 62 43 18 52 17 76 -8z"/>
<path d="M5146 1058 c-29 -29 -35 -44 -41 -94 -11 -99 -15 -114 -34 -114 -10 0 -24 12 -32 27 -17 31 -17 119 -1 135 20 20 14 38 -12 38 -32 0 -50 -52 -44 -122 6 -60 33 -100 78 -113 l32 -10 -6 -66 c-3 -37 -3 -81 0 -99 8 -37 49 -69 66 -52 9 9 7 15 -8 26 -17 13 -19 25 -16 107 l2 92 40 34 c47 40 86 103 95 153 8 43 -14 75 -57 86 -23 5 -34 0 -62 -28z m77 -51 c-2 -23 -14 -55 -33 -82 -47 -68 -54 -68 -47 4 9 80 31 123 60 119 19 -3 22 -9 20 -41z"/>
<path d="M7056 1064 c-27 -9 -60 -22 -72 -31 -28 -18 -45 -71 -31 -93 6 -11 -1 -57 -23 -144 -24 -93 -29 -131 -21 -139 17 -17 26 0 56 116 23 87 31 107 43 102 37 -14 100 -16 137 -3 52 17 85 66 85 125 0 70 -12 83 -73 82 -29 0 -74 -7 -101 -15z m132 -62 c3 -36 -1 -47 -27 -72 -24 -24 -38 -30 -73 -30 -24 0 -52 7 -62 15 -17 13 -18 19 -7 55 15 51 71 81 141 77 22 -2 25 -7 28 -45z"/>
<path d="M5623 892 c-3 -7 -2 -16 2 -20 20 -20 465 8 465 29 0 4 -104 7 -231 6 -179 -2 -233 -5 -236 -15z"/>
<path d="M6353 884 c-4 -11 1 -22 13 -31 15 -12 39 -13 124 -7 58 4 120 7 138 6 17 -1 32 2 32 7 0 20 -62 29 -158 24 -69 -4 -101 -2 -106 6 -11 16 -36 13 -43 -5z"/>
<path d="M7186 862 c-2 -4 -7 -25 -11 -47 -4 -22 -11 -44 -14 -50 -4 -5 -5 -34 -3 -62 3 -43 7 -53 22 -53 13 0 19 11 24 44 6 36 12 46 34 54 15 6 35 13 44 17 16 6 18 0 15 -71 -2 -68 0 -79 16 -82 13 -3 17 3 17 30 0 18 7 68 15 111 8 43 15 85 15 93 0 22 -38 17 -45 -6 -4 -11 -24 -29 -45 -40 -49 -25 -64 -25 -55 -2 3 9 9 29 12 45 5 22 2 27 -15 27 -12 0 -23 -3 -26 -8z"/>
<path d="M4577 824 c-4 -4 -7 -17 -7 -28 0 -12 -6 -32 -13 -46 -9 -16 -11 -44 -8 -80 5 -46 9 -55 26 -55 17 0 21 8 25 48 5 45 7 49 48 67 l42 19 0 -48 c0 -50 20 -81 53 -81 21 0 21 7 1 28 -21 21 -14 104 11 132 14 15 16 23 7 32 -8 8 -26 3 -71 -20 -74 -40 -82 -40 -79 0 3 31 -17 49 -35 32z"/>
<path d="M5827 794 c-4 -4 -7 -17 -7 -28 0 -12 -8 -42 -17 -68 -15 -41 -21 -48 -44 -48 -39 0 -81 -18 -76 -33 2 -7 18 -11 42 -9 35 3 37 2 31 -20 -16 -53 -18 -86 -6 -93 21 -13 79 6 110 36 51 52 36 66 -26 24 -48 -33 -55 -32 -42 8 15 46 27 57 57 57 36 0 71 11 71 21 0 5 -20 9 -45 9 l-44 0 20 47 c11 26 19 58 17 72 -3 25 -27 39 -41 25z"/>
<path d="M5318 707 c-55 -59 -61 -82 -22 -74 18 3 24 1 20 -9 -3 -8 -8 -36 -12 -64 -6 -46 -5 -50 14 -50 16 0 22 9 27 43 3 23 15 75 26 115 29 109 18 117 -53 39z"/>
<path d="M4826 691 c-39 -40 -44 -71 -11 -71 13 0 15 -6 10 -32 -10 -46 -12 -48 -46 -48 -22 0 -29 -5 -29 -20 0 -18 7 -20 59 -20 63 0 111 13 111 30 0 5 -13 10 -30 10 -35 0 -34 -4 -14 80 8 36 16 74 17 85 3 33 -27 27 -67 -14z"/>
<path d="M7420 695 c-20 -25 -2 -36 48 -30 l47 6 -49 -43 c-58 -52 -60 -81 -8 -86 38 -4 133 23 159 45 16 13 14 14 -22 9 -22 -3 -58 -9 -80 -12 l-40 -5 38 32 c78 66 71 99 -23 99 -38 0 -62 -5 -70 -15z"/>
<path d="M6035 559 c-16 -16 -33 -29 -37 -29 -5 0 -8 -7 -8 -15 0 -22 27 -30 46 -14 14 12 16 8 14 -36 -3 -68 -2 -75 14 -75 16 0 26 30 26 80 0 19 4 49 8 65 18 61 -13 73 -63 24z"/>
</g><g transform="translate(1218.871498, 989.5965285993843) scale(0.40808740102544044)"><g transform="translate(-57.706759,297.537395) scale(0.100000,-0.100000)" fill="#4444bb" stroke="none">
<path d="M750 2973 c-57 -10 -88 -25 -119 -57 -40 -41 -55 -100 -46 -179 6 -45 12 -61 32 -77 32 -25 35 -25 64 -1 22 17 24 26 21 89 -4 105 24 120 164 87 33 -7 119 -19 190 -25 88 -8 134 -16 144 -26 32 -32 8 -420 -28 -456 -18 -18 -126 -28 -289 -28 -185 0 -206 -4 -250 -52 -55 -58 -58 -82 -55 -363 1 -145 7 -274 13 -293 11 -34 51 -62 89 -62 12 0 35 14 52 31 l31 30 -6 238 c-3 130 -3 249 0 264 l5 27 112 0 c234 1 363 26 423 82 58 54 98 260 91 463 -4 122 -7 138 -34 191 -40 81 -79 100 -217 108 -174 10 -361 14 -387 9z" fill="#4444bb"/>
<path d="M3660 2971 c-42 -9 -83 -34 -103 -65 -39 -59 -50 -127 -54 -343 -5 -206 -5 -212 18 -252 28 -50 78 -86 143 -102 48 -12 257 -8 370 7 l49 7 -7 -104 c-4 -57 -11 -189 -16 -294 -9 -177 -9 -192 8 -214 35 -47 100 -46 136 2 22 29 27 86 42 452 7 191 0 235 -44 283 -45 48 -92 56 -241 38 -146 -18 -229 -20 -265 -6 l-26 10 0 162 c0 156 8 230 27 249 5 5 99 6 210 2 l201 -6 5 -50 c3 -39 11 -56 31 -74 34 -29 48 -29 80 0 24 20 26 30 28 113 4 147 -23 169 -218 179 -242 11 -340 13 -374 6z" fill="#4444bb"/>
<path d="M1565 2945 c-14 -13 -25 -32 -25 -42 0 -10 -1 -297 -3 -638 -2 -677 -3 -662 55 -694 33 -19 73 -7 101 31 18 24 20 51 29 300 5 150 10 278 12 283 2 6 37 8 97 3 52 -3 135 -7 186 -7 154 -2 161 -10 143 -176 -21 -189 -27 -310 -18 -343 12 -45 45 -72 86 -72 71 0 102 46 102 151 0 33 7 118 16 187 24 190 9 280 -58 349 -50 52 -112 67 -263 65 -71 -1 -164 -6 -205 -11 -41 -4 -78 -7 -81 -5 -4 2 -10 108 -13 236 -9 286 -17 352 -47 384 -31 33 -82 32 -114 -1z" fill="#4444bb"/>
<path d="M2542 2944 c-55 -38 -64 -109 -53 -419 6 -186 9 -215 28 -250 50 -95 116 -125 302 -135 75 -4 171 -5 215 -1 l78 7 -4 -178 c-2 -97 -7 -181 -11 -184 -4 -4 -42 1 -85 11 -104 26 -285 27 -363 3 -106 -33 -149 -107 -99 -170 26 -34 68 -41 132 -21 74 23 202 20 308 -7 182 -47 274 5 301 168 12 77 27 831 19 994 -7 152 -20 181 -86 186 -88 7 -103 -51 -104 -401 l0 -219 -201 4 c-197 3 -201 3 -220 27 -18 21 -19 42 -19 283 l0 260 -29 29 c-33 33 -74 38 -109 13z" fill="#4444bb"/>
<path d="M2374 1391 c-55 -34 -79 -78 -79 -147 0 -51 4 -66 27 -96 35 -45 102 -73 153 -64 78 15 146 111 131 188 -20 108 -145 172 -232 119z" fill="#4444bb"/>
<path d="M1853 999 c-39 -11 -66 -56 -61 -101 6 -59 69 -64 76 -6 4 30 34 38 145 38 l67 0 0 -110 c0 -135 -1 -136 -132 -126 -85 6 -89 6 -113 -18 -24 -25 -25 -28 -25 -179 0 -162 4 -177 47 -177 35 0 43 29 43 159 l0 121 73 0 c85 0 141 14 168 41 17 17 19 34 19 169 0 147 -1 152 -25 175 -23 24 -30 25 -137 24 -62 0 -128 -5 -145 -10z" fill="#4444bb"/>
<path d="M2985 1000 c-91 -16 -93 -18 -104 -58 -15 -51 -14 -537 0 -564 19 -36 69 -48 204 -48 121 0 127 1 151 25 l24 24 -2 292 -3 292 -26 19 c-31 23 -161 33 -244 18z m169 -86 c14 -5 16 -37 16 -250 l0 -245 -102 3 -103 3 0 240 0 240 40 6 c57 9 131 10 149 3z" fill="#4444bb"/>
<path d="M2351 971 c-24 -24 -29 -73 -37 -372 -6 -232 -6 -237 15 -258 23 -23 29 -25 51 -11 12 7 16 40 20 150 l5 141 35 -23 c19 -13 59 -55 88 -93 30 -39 78 -96 108 -128 47 -51 56 -57 74 -47 29 16 25 42 -15 92 -19 24 -62 78 -95 121 -61 77 -61 77 -33 77 15 0 46 9 69 19 56 26 67 57 62 179 -6 156 -27 172 -220 172 -93 0 -111 -3 -127 -19z m257 -74 c16 -13 17 -168 0 -185 -7 -7 -41 -12 -84 -12 -40 0 -84 -4 -98 -10 l-26 -10 0 120 0 119 98 -6 c53 -3 103 -10 110 -16z" fill="#4444bb"/>
</g>
</g>
</svg>
