<?xml version="1.0" standalone="no"?>
<!DOCTYPE svg PUBLIC "-//W3C//DTD SVG 20010904//EN"
 "http://www.w3.org/TR/2001/REC-SVG-20010904/DTD/svg10.dtd">
<svg version="1.0" xmlns="http://www.w3.org/2000/svg"
 width="460.533781pt" height="146.987427pt" viewBox="0 0 460.533781 146.987427"
 preserveAspectRatio="xMidYMid meet">
<metadata>
Created by potrace 1.16, written by Peter Selinger 2001-2019
</metadata>
<g transform="translate(-26.396114,162.847596) scale(0.100000,-0.100000)"
fill="#000000" stroke="none">
<path d="M1708 1617 c-10 -8 -14 -22 -11 -39 3 -14 -2 -41 -10 -59 -23 -54
-37 -90 -37 -94 0 -3 15 -5 33 -5 31 0 34 3 46 49 7 27 24 59 37 72 l26 24 -8
-30 c-4 -16 -11 -32 -15 -35 -5 -3 -10 -21 -11 -40 -3 -33 -1 -35 27 -35 27 0
30 4 37 45 5 27 18 54 34 70 l25 25 -7 -40 c-4 -22 -11 -51 -15 -63 -5 -13 -7
-28 -3 -33 9 -16 50 -10 69 11 14 16 15 22 5 35 -10 12 -8 23 10 60 32 65 21
74 -87 72 -55 -1 -92 2 -102 10 -20 15 -22 15 -43 0z"/>
<path d="M3138 1603 c-13 -3 -16 -11 -12 -33 4 -15 -1 -43 -9 -61 -23 -54 -37
-90 -37 -94 0 -3 15 -5 34 -5 32 0 34 3 46 48 11 44 34 82 51 82 9 0 -1 -43
-12 -50 -4 -3 -10 -22 -14 -43 l-7 -38 33 3 c31 3 34 6 41 48 7 42 41 91 54
78 3 -4 -1 -30 -9 -59 -18 -60 -15 -69 17 -69 31 0 50 24 42 54 -4 16 1 40 15
66 30 57 19 65 -89 66 -48 1 -96 4 -107 7 -11 3 -28 3 -37 0z"/>
<path d="M363 1343 c-55 -3 -84 -8 -85 -16 -1 -13 -5 -241 -10 -765 l-4 -353
29 -21 c24 -17 33 -19 48 -10 24 15 72 15 86 1 6 -6 21 -9 34 -7 18 2 25 10
27 32 5 37 -10 46 -79 46 -38 0 -59 4 -62 13 -3 8 -3 65 -1 128 3 63 6 285 7
494 l2 380 73 3 c68 3 74 5 83 29 12 33 -4 54 -40 51 -14 -1 -63 -4 -108 -5z"/>
<path d="M1846 1341 c-3 -5 -159 -7 -348 -5 -189 1 -351 1 -360 -2 -10 -3 -18
-11 -18 -19 0 -16 22 -25 60 -25 16 0 55 -7 87 -15 38 -10 106 -15 205 -15
l148 0 1 -42 c2 -71 1 -167 -5 -568 -3 -212 -6 -393 -6 -403 0 -17 -11 -18
-187 -14 -104 2 -223 2 -266 -1 -71 -4 -78 -7 -75 -25 5 -31 32 -44 62 -28 18
10 29 11 38 3 7 -6 42 -13 78 -17 87 -8 1456 -9 1470 0 6 4 43 4 83 0 59 -5
380 -7 1160 -6 63 0 87 12 87 43 0 18 -6 20 -67 17 -38 -2 -74 1 -82 5 -8 5
-107 9 -220 8 -113 -1 -219 1 -234 4 l-28 6 3 211 3 212 107 3 108 3 -6 -31
c-8 -39 5 -39 123 -4 49 14 108 30 132 35 47 10 71 24 71 43 0 7 -36 20 -81
31 -45 10 -98 26 -119 36 -20 10 -54 19 -76 21 -36 3 -39 1 -42 -23 -4 -33
-22 -39 -124 -39 -51 0 -79 4 -85 13 -12 19 -5 288 8 303 8 10 8 18 1 27 -10
12 -20 163 -11 172 3 2 133 5 291 7 217 3 290 7 302 17 22 19 20 38 -5 46 -40
13 -1962 21 -2091 9 -48 -5 -68 -3 -68 5 0 13 -16 15 -24 2z m1194 -586 l0
-515 -509 0 c-324 0 -511 4 -513 10 -2 5 -2 102 0 215 l3 205 259 0 260 0 -7
-32 -6 -31 44 7 c24 5 56 9 71 10 15 2 33 7 40 13 12 9 53 22 127 40 31 7 68
47 70 76 2 13 -30 7 -35 -8 -7 -16 -51 -11 -97 12 -15 7 -33 13 -40 12 -6 -2
-29 5 -50 14 -21 9 -54 18 -75 19 -33 3 -37 0 -40 -23 -4 -34 -21 -39 -143
-39 -72 0 -96 3 -95 13 0 6 -3 12 -9 12 -5 0 -9 -6 -9 -12 1 -10 -31 -13 -132
-13 l-134 0 1 265 0 265 510 0 509 0 0 -515z m-1299 465 c-27 -23 -41 -25 -41
-7 0 20 10 27 39 27 l26 -1 -24 -19z m74 -70 c-49 -49 -93 -90 -97 -90 -5 0
-8 14 -8 31 0 24 13 44 57 90 51 53 61 59 97 59 l41 0 -90 -90z m1330 80 c-3
-5 -10 -10 -16 -10 -5 0 -9 5 -9 10 0 6 7 10 16 10 8 0 12 -4 9 -10z m145 2
c0 -11 -58 -64 -92 -85 -16 -10 -28 -22 -28 -29 0 -11 -29 -37 -42 -38 -12 0
-9 46 4 75 6 14 15 25 20 25 4 0 8 7 8 14 0 8 12 21 28 29 29 16 102 22 102 9z
m70 -11 c0 -11 5 -23 11 -27 8 -4 8 -9 0 -17 -6 -6 -11 -25 -11 -41 0 -31 -10
-40 -87 -84 -13 -7 -23 -17 -23 -23 0 -5 -28 -36 -62 -69 l-63 -60 -3 53 -2
52 112 117 c62 64 116 117 121 117 4 1 7 -8 7 -18z m-1400 -53 l0 -53 -122
-117 c-67 -65 -125 -118 -129 -118 -4 0 -6 21 -5 46 1 44 5 49 121 169 66 68
123 123 128 124 4 1 7 -23 7 -51z m1400 -177 c0 -66 -1 -70 -32 -94 -18 -14
-71 -62 -118 -105 l-85 -80 -3 65 -3 66 48 43 c26 24 54 43 61 44 6 0 12 6 12
13 0 14 35 47 50 47 6 0 10 5 10 12 0 14 40 58 52 58 4 0 8 -31 8 -69z m-1409
22 c0 -10 2 -34 3 -53 3 -39 -9 -70 -26 -70 -7 0 -44 -33 -84 -74 -40 -40 -88
-86 -108 -101 l-36 -27 0 53 0 54 118 117 c64 65 120 118 125 118 4 0 7 -8 8
-17z m1407 -210 c3 -38 0 -42 -75 -109 -43 -38 -96 -89 -119 -113 -41 -44 -64
-48 -64 -11 0 10 5 22 10 25 6 3 10 13 10 22 0 19 210 232 225 229 6 -2 11
-21 13 -43z m-1405 -3 c7 -56 -1 -77 -34 -89 -16 -5 -29 -17 -29 -25 0 -9 -5
-16 -10 -16 -6 0 -47 -36 -91 -80 -45 -44 -84 -80 -86 -80 -3 0 -3 24 -1 53 4
53 5 54 119 165 63 61 117 112 120 112 4 0 9 -18 12 -40z m1405 -190 c-2 -46
-2 -47 -50 -83 -20 -15 -68 -59 -105 -97 -80 -81 -103 -89 -103 -32 1 45 4 50
138 185 95 97 107 106 114 87 4 -12 7 -39 6 -60z m-1408 31 c0 -18 -6 -31 -17
-36 -17 -6 -17 -7 1 -20 10 -8 16 -18 15 -23 -2 -5 -59 -62 -126 -127 l-123
-117 0 59 0 59 74 72 c40 40 78 72 85 72 6 0 11 5 11 12 0 14 59 78 72 78 4 0
8 -13 8 -29z m1409 -213 c1 -22 -16 -44 -74 -103 -41 -41 -81 -75 -89 -75 -33
0 -76 13 -76 24 0 6 51 59 113 117 120 114 123 115 126 37z m-1411 0 c3 -52 1
-57 -32 -85 -18 -17 -42 -42 -51 -57 -15 -23 -24 -26 -71 -26 -29 0 -56 5 -59
11 -4 6 29 47 74 91 45 44 89 91 98 104 24 37 38 24 41 -38z m1402 -137 c0
-33 -11 -44 -34 -35 -20 8 -20 23 1 46 23 26 33 22 33 -11z m-1400 5 c0 -22
-29 -41 -42 -28 -8 8 -8 15 2 27 16 19 40 20 40 1z"/>
<path d="M2190 1250 c0 -5 5 -10 10 -10 6 0 10 5 10 10 0 6 -4 10 -10 10 -5 0
-10 -4 -10 -10z"/>
<path d="M2990 1230 c0 -5 5 -10 10 -10 6 0 10 5 10 10 0 6 -4 10 -10 10 -5 0
-10 -4 -10 -10z"/>
<path d="M2560 1207 c-31 -16 -44 -75 -13 -62 10 4 29 10 43 13 22 5 24 3 11
-11 -12 -16 -9 -21 12 -18 4 0 7 -3 7 -8 0 -5 -13 -12 -30 -16 -21 -5 -30 -13
-30 -26 0 -11 4 -18 9 -14 5 3 20 0 34 -6 21 -9 23 -16 18 -42 -7 -30 -9 -32
-55 -33 -85 -1 -84 -64 0 -64 51 0 82 19 104 65 25 52 25 77 0 100 -14 13 -17
22 -10 29 14 14 13 79 -2 94 -16 16 -66 15 -98 -1z"/>
<path d="M2405 1200 c4 -6 11 -8 16 -5 14 9 11 15 -7 15 -8 0 -12 -5 -9 -10z"/>
<path d="M2845 1161 c3 -5 -10 -14 -28 -20 -29 -10 -97 -81 -97 -103 0 -12 34
-10 48 4 9 9 12 2 12 -33 0 -24 7 -52 14 -61 15 -20 41 -24 51 -8 4 6 11 7 17
4 5 -4 23 3 38 14 15 12 41 24 56 28 16 4 35 11 42 17 14 11 16 47 2 47 -15 0
-12 36 5 50 20 17 19 27 -6 41 -34 18 -88 3 -95 -26 -8 -32 -24 -32 -24 -1 0
14 -5 28 -10 31 -6 4 -8 11 -5 16 4 5 -1 9 -10 9 -9 0 -14 -4 -10 -9z m55
-138 c0 -21 -44 -62 -55 -51 -2 2 5 25 17 51 22 48 38 47 38 0z"/>
<path d="M2260 1130 c0 -5 5 -10 10 -10 6 0 10 5 10 10 0 6 -4 10 -10 10 -5 0
-10 -4 -10 -10z"/>
<path d="M2420 1090 c0 -5 5 -10 10 -10 6 0 10 5 10 10 0 6 -4 10 -10 10 -5 0
-10 -4 -10 -10z"/>
<path d="M2745 980 c4 -6 11 -8 16 -5 14 9 11 15 -7 15 -8 0 -12 -5 -9 -10z"/>
<path d="M2160 950 c0 -5 5 -10 10 -10 6 0 10 5 10 10 0 6 -4 10 -10 10 -5 0
-10 -4 -10 -10z"/>
<path d="M2255 930 c4 -6 11 -8 16 -5 14 9 11 15 -7 15 -8 0 -12 -5 -9 -10z"/>
<path d="M2470 916 c0 -8 5 -18 10 -21 6 -4 8 -10 5 -15 -6 -10 14 -25 22 -16
3 3 1 12 -6 20 -6 8 -10 19 -9 26 2 7 -3 15 -9 17 -7 3 -13 -2 -13 -11z"/>
<path d="M2900 910 c0 -5 5 -10 10 -10 6 0 10 5 10 10 0 6 -4 10 -10 10 -5 0
-10 -4 -10 -10z"/>
<path d="M2320 880 c0 -5 5 -10 10 -10 6 0 10 5 10 10 0 6 -4 10 -10 10 -5 0
-10 -4 -10 -10z"/>
<path d="M2650 880 c0 -5 5 -10 10 -10 6 0 10 5 10 10 0 6 -4 10 -10 10 -5 0
-10 -4 -10 -10z"/>
<path d="M2690 860 c0 -5 5 -10 11 -10 5 0 7 5 4 10 -3 6 -8 10 -11 10 -2 0
-4 -4 -4 -10z"/>
<path d="M2070 850 c0 -5 5 -10 10 -10 6 0 10 5 10 10 0 6 -4 10 -10 10 -5 0
-10 -4 -10 -10z"/>
<path d="M2500 810 c0 -5 5 -10 10 -10 6 0 10 5 10 10 0 6 -4 10 -10 10 -5 0
-10 -4 -10 -10z"/>
<path d="M2985 680 c4 -6 11 -8 16 -5 14 9 11 15 -7 15 -8 0 -12 -5 -9 -10z"/>
<path d="M2070 623 c1 -36 1 -37 16 -18 17 22 15 46 -3 53 -9 2 -13 -8 -13
-35z"/>
<path d="M2405 650 c3 -5 8 -10 11 -10 2 0 4 5 4 10 0 6 -5 10 -11 10 -5 0 -7
-4 -4 -10z"/>
<path d="M2295 630 c-3 -5 -1 -10 4 -10 6 0 11 5 11 10 0 6 -2 10 -4 10 -3 0
-8 -4 -11 -10z"/>
<path d="M2440 610 c0 -5 5 -10 10 -10 6 0 10 5 10 10 0 6 -4 10 -10 10 -5 0
-10 -4 -10 -10z"/>
<path d="M2853 605 c-3 -9 -3 -19 1 -22 7 -7 36 16 36 28 0 15 -30 10 -37 -6z"/>
<path d="M2285 580 c4 -6 11 -8 16 -5 14 9 11 15 -7 15 -8 0 -12 -5 -9 -10z"/>
<path d="M2600 540 c0 -5 5 -10 10 -10 6 0 10 5 10 10 0 6 -4 10 -10 10 -5 0
-10 -4 -10 -10z"/>
<path d="M2350 510 c0 -5 5 -10 10 -10 6 0 10 5 10 10 0 6 -4 10 -10 10 -5 0
-10 -4 -10 -10z"/>
<path d="M2180 500 c0 -5 5 -10 10 -10 6 0 10 5 10 10 0 6 -4 10 -10 10 -5 0
-10 -4 -10 -10z"/>
<path d="M2890 470 c0 -5 5 -10 10 -10 6 0 10 5 10 10 0 6 -4 10 -10 10 -5 0
-10 -4 -10 -10z"/>
<path d="M2780 460 c0 -5 5 -10 10 -10 6 0 10 5 10 10 0 6 -4 10 -10 10 -5 0
-10 -4 -10 -10z"/>
<path d="M2050 450 c0 -5 5 -10 10 -10 6 0 10 5 10 10 0 6 -4 10 -10 10 -5 0
-10 -4 -10 -10z"/>
<path d="M2250 380 c0 -5 5 -10 10 -10 6 0 10 5 10 10 0 6 -4 10 -10 10 -5 0
-10 -4 -10 -10z"/>
<path d="M2550 380 c0 -5 5 -10 10 -10 6 0 10 5 10 10 0 6 -4 10 -10 10 -5 0
-10 -4 -10 -10z"/>
<path d="M2065 340 c3 -5 8 -10 11 -10 2 0 4 5 4 10 0 6 -5 10 -11 10 -5 0 -7
-4 -4 -10z"/>
<path d="M2205 331 c-3 -5 -1 -12 5 -16 5 -3 10 1 10 9 0 18 -6 21 -15 7z"/>
<path d="M2680 310 c0 -5 5 -10 10 -10 6 0 10 5 10 10 0 6 -4 10 -10 10 -5 0
-10 -4 -10 -10z"/>
<path d="M2930 299 c0 -5 5 -7 10 -4 6 3 10 8 10 11 0 2 -4 4 -10 4 -5 0 -10
-5 -10 -11z"/>
<path d="M2350 275 c0 -14 5 -25 10 -25 6 0 10 11 10 25 0 14 -4 25 -10 25 -5
0 -10 -11 -10 -25z"/>
<path d="M593 1333 c-27 -3 -43 -9 -43 -18 0 -18 23 -25 81 -25 36 0 51 4 56
16 6 17 -13 35 -37 32 -8 -1 -34 -3 -57 -5z"/>
<path d="M739 1324 c-19 -23 4 -34 69 -34 39 0 54 4 59 16 8 22 -14 34 -68 34
-30 0 -51 -6 -60 -16z"/>
<path d="M948 1333 c-22 -6 -23 -29 -2 -37 33 -13 104 -6 111 10 3 9 0 20 -8
25 -14 9 -71 10 -101 2z"/>
<path d="M4658 1331 c-7 -2 -18 -11 -25 -20 -9 -13 -8 -20 4 -33 13 -14 33
-18 95 -18 l78 0 0 -114 c0 -69 -4 -117 -10 -121 -11 -7 -8 -80 3 -92 11 -10
8 -51 -3 -58 -5 -3 -10 -19 -10 -35 0 -16 5 -32 10 -35 13 -8 13 -52 1 -59 -5
-4 -9 -59 -9 -124 -1 -392 -1 -396 -54 -391 -52 5 -97 -2 -112 -16 -9 -9 -17
-11 -21 -5 -3 5 -28 10 -54 10 -55 0 -82 -20 -62 -44 10 -12 43 -14 184 -11
94 3 175 9 180 14 16 16 23 1129 7 1145 -10 10 -177 15 -202 7z"/>
<path d="M4094 1316 c-10 -26 25 -46 75 -43 29 1 48 8 55 19 15 25 3 31 -64
36 -49 4 -61 1 -66 -12z"/>
<path d="M4293 1323 c-26 -5 -30 -25 -9 -42 22 -19 117 -10 130 12 8 14 8 20
-4 27 -15 10 -75 11 -117 3z"/>
<path d="M4477 1323 c-13 -12 -7 -42 11 -51 30 -15 100 -3 108 20 3 11 3 22 0
25 -8 8 -112 14 -119 6z"/>
<path d="M3918 1057 c-26 -12 -88 -81 -88 -98 0 -13 34 -11 48 3 9 9 12 2 12
-33 0 -24 7 -52 14 -61 15 -20 41 -24 51 -8 4 6 11 7 17 4 5 -4 23 3 38 14 15
12 41 24 56 28 16 4 35 11 42 17 15 12 16 47 1 47 -6 0 -8 15 -4 44 8 51 -1
61 -51 52 -25 -5 -35 -13 -40 -31 -8 -33 -22 -32 -26 3 -3 31 -28 38 -70 19z
m92 -114 c0 -21 -44 -62 -55 -51 -2 2 5 25 17 51 22 48 38 47 38 0z"/>
<path d="M563 232 c-79 -6 -64 -62 17 -62 50 0 75 16 64 43 -7 18 -26 23 -81
19z"/>
<path d="M938 233 c-52 -4 -64 -24 -30 -49 21 -17 94 -18 110 -2 24 24 5 65
-26 56 -4 -1 -28 -3 -54 -5z"/>
<path d="M703 215 c-9 -25 27 -45 77 -42 35 1 46 6 48 21 5 26 -15 36 -71 36
-34 0 -49 -4 -54 -15z"/>
<path d="M4153 223 c-12 -2 -27 -11 -34 -20 -21 -25 16 -44 76 -41 55 3 69 22
40 52 -16 16 -37 18 -82 9z"/>
<path d="M4299 204 c-20 -24 13 -44 72 -44 52 0 64 9 54 40 -5 17 -15 20 -59
20 -37 0 -58 -5 -67 -16z"/>
</g>
</svg>
