<svg width="617.64" height="203.79" version="1.1" viewBox="0 0 617.64 203.79" xmlns="http://www.w3.org/2000/svg"><g transform="translate(-30.549 -12.113)"><g fill="none" stroke="#000" stroke-linejoin="round" stroke-width="8"><g stroke-dashoffset="3.2274"><path d="m62.188 58.733h-27.639v153.17h27.639"/><path d="m148.2 58.733h382.34"/><path d="m616.55 58.733h27.639v153.17h-27.639"/><path d="m148.2 211.9h382.34"/></g><g stroke-dasharray="16, 8"><path d="m71.796 58.733h66.794"/><path d="m71.796 211.9h66.794"/><path d="m540.15 58.733h66.794"/><path d="m540.15 211.9h66.794"/></g></g><g fill="none" stroke="#000" stroke-width="8"><rect x="221.87" y="58.733" width="41.855" height="153.17" stroke-linejoin="round"/><path d="m234.54 58.733-12.671 12.671m0 27.436 40.106-40.106m1.7486 25.687-41.855 41.855m0 27.436 41.855-41.855m0 27.436-41.855 41.855m0 27.436 41.855-41.855m0 27.436-17.736 17.736"/></g><g transform="translate(188)" fill="none" stroke="#000" stroke-width="8"><rect x="221.87" y="58.733" width="41.855" height="153.17" stroke-linejoin="round"/><path d="m234.54 58.733-12.671 12.671m0 27.436 40.106-40.106m1.7486 25.687-41.855 41.855m0 27.436 41.855-41.855m0 27.436-41.855 41.855m0 27.436 41.855-41.855m0 27.436-17.736 17.736"/></g><path d="m263.72 132.17v6.2988h91.111v-6.2988z" color="#000000" fill-rule="evenodd" stroke-linejoin="round" style="-inkscape-stroke:none"/><path d="m348.66 122.97 33.957 12.348-33.957 12.348c6.174-7.1927 6.174-17.472 0-24.696z" color="#000000" fill-rule="evenodd" style="-inkscape-stroke:none"/><path d="m454.65 132.17v6.2988h60.037v-6.2988z" color="#000000" fill-rule="evenodd" stroke-linejoin="round" style="-inkscape-stroke:none"/><path d="m508.51 122.97 33.957 12.348-33.957 12.348c6.174-7.1927 6.174-17.472 0-24.696z" color="#000000" fill-rule="evenodd" style="-inkscape-stroke:none"/><g stroke-width="1.7" aria-label="3ʋ"><path d="m336.25 118.25q-2.7 0-4.14-0.54-1.44-0.48-2.04-1.2-0.54-0.78-0.54-1.56 0-0.96 0.6-1.8t1.74-0.84q0.9 0 1.86 0.48 1.02 0.42 2.1 1.02 1.08 0.54 2.16 1.02 1.14 0.42 2.28 0.42 1.92 0 3.6-0.66 1.68-0.72 2.76-2.34 1.08-1.68 1.08-4.62 0-2.7-1.5-4.68t-4.02-3.06q-2.46-1.14-5.34-1.14h-1.2v-2.28h1.14q2.04 0 3.96-1.02t3.12-2.88q1.26-1.86 1.26-4.26 0-2.64-1.68-4.08-1.62-1.5-4.44-1.5-2.7 0-4.5 1.26-1.8 1.2-3.36 3.6l-1.38-0.78q1.68-3.9 4.44-5.94t6.42-2.04q4.62 0 7.14 2.34 2.52 2.28 2.52 5.7 0 3.12-1.86 5.04-1.8 1.92-4.62 3.72v0.18q2.4 0.72 4.38 2.1 2.04 1.32 3.24 3.3 1.2 1.92 1.2 4.62 0 4.08-2.28 6.9-2.28 2.76-6 4.14t-8.1 1.38z"/><path d="m368.47 118.13q-3.06 0-4.92-1.14-1.86-1.2-2.7-3.12t-0.84-4.26q0-0.54 0.06-1.26 0.06-0.78 0.24-1.56l2.52-11.88q0.18-1.02 0.18-1.68 0-1.2-0.78-1.5-0.72-0.3-2.46-0.36-0.06 0-0.12 0t-0.18 0l0.36-1.68 7.98-0.9h1.32l-3.54 16.44q-0.18 0.84-0.3 1.8-0.12 0.9-0.12 1.92 0 2.64 1.14 4.14t3.96 1.5q2.58 0 4.38-1.14 1.8-1.2 2.88-3.06 1.14-1.92 1.62-4.2 0.54-2.34 0.54-4.56 0-2.58-0.54-4.14-0.48-1.62-1.14-2.64-0.6-1.08-1.14-1.86-0.48-0.84-0.48-1.8 0-1.08 0.72-1.86 0.72-0.84 2.04-0.84 1.62 0 2.46 1.26 0.9 1.26 1.2 3.24 0.36 1.98 0.36 4.2 0 3.96-0.9 7.68t-2.7 6.72-4.56 4.8q-2.76 1.74-6.54 1.74z"/></g><path transform="translate(-1.9823 14.925)" d="m537.44 103.2q-3.06 0-4.92-1.14-1.86-1.2-2.7-3.12t-0.84-4.26q0-0.54 0.06-1.26 0.06-0.78 0.24-1.56l2.52-11.88q0.18-1.02 0.18-1.68 0-1.2-0.78-1.5-0.72-0.3-2.46-0.36-0.06 0-0.12 0t-0.18 0l0.36-1.68 7.98-0.9h1.32l-3.54 16.44q-0.18 0.84-0.3 1.8-0.12 0.9-0.12 1.92 0 2.64 1.14 4.14t3.96 1.5q2.58 0 4.38-1.14 1.8-1.2 2.88-3.06 1.14-1.92 1.62-4.2 0.54-2.34 0.54-4.56 0-2.58-0.54-4.14-0.48-1.62-1.14-2.64-0.6-1.08-1.14-1.86-0.48-0.84-0.48-1.8 0-1.08 0.72-1.86 0.72-0.84 2.04-0.84 1.62 0 2.46 1.26 0.9 1.26 1.2 3.24 0.36 1.98 0.36 4.2 0 3.96-0.9 7.68t-2.7 6.72-4.56 4.8q-2.76 1.74-6.54 1.74z" stroke-width="1.7" aria-label="ʋ"/><g><path d="m265.06 78.961a1.45 1.45 0 0 0-1.4492 1.4492 1.45 1.45 0 0 0 1.4492 1.4512 1.45 1.45 0 0 0 1.4512-1.4512 1.45 1.45 0 0 0-1.4512-1.4492z"/><circle cx="287.67" cy="79.897" r="1.45" opacity=".38596"/><circle cx="277.87" cy="72.774" r="1.45" opacity=".38596"/><circle cx="279.26" cy="94.765" r="1.45" opacity=".38596"/><circle cx="300.98" cy="103.69" r="1.45" opacity=".38596"/><circle cx="288.27" cy="120.34" r="1.45" opacity=".38596"/><circle cx="287.2" cy="127.48" r="1.45" opacity=".38596"/><circle cx="301.65" cy="152.72" r="1.45" opacity=".38596"/><circle cx="306.62" cy="130.19" r="1.45" opacity=".38596"/><circle cx="312.96" cy="109.88" r="1.45" opacity=".38596"/><circle cx="292.69" cy="140.65" r="1.45" opacity=".38596"/><circle cx="287.33" cy="179.26" r="1.45" opacity=".38596"/><circle cx="284.02" cy="166.18" r="1.45" opacity=".38596"/><circle cx="305.39" cy="188.99" r="1.45" opacity=".38596"/><circle cx="296.55" cy="164.14" r="1.45" opacity=".38596"/><circle cx="307.43" cy="165.03" r="1.45" opacity=".38596"/><circle cx="327.08" cy="120.69" r="1.45" opacity=".38596"/><circle cx="332.67" cy="104.37" r="1.45" opacity=".38596"/><circle cx="323.86" cy="114.81" r="1.45" opacity=".38596"/><circle cx="316.29" cy="105.4" r="1.45" opacity=".38596"/><circle cx="313.31" cy="125.14" r="1.45" opacity=".38596"/><circle cx="329.07" cy="99.472" r="1.45" opacity=".38596"/><circle cx="310.25" cy="81.099" r="1.45" opacity=".38596"/><circle cx="298.75" cy="106.79" r="1.45" opacity=".38596"/><circle cx="320.12" cy="127.35" r="1.45" opacity=".38596"/><circle cx="326.67" cy="103.03" r="1.45" opacity=".38596"/><circle cx="316.33" cy="87.316" r="1.45" opacity=".38596"/><circle cx="341.9" cy="106.32" r="1.45" opacity=".38596"/><circle cx="326.54" cy="93.633" r="1.45" opacity=".38596"/><circle cx="326.6" cy="110.73" r="1.45" opacity=".38596"/><circle cx="345.76" cy="148.3" r="1.45" opacity=".38596"/><circle cx="331.47" cy="161.22" r="1.45" opacity=".38596"/><circle cx="339.42" cy="159" r="1.45" opacity=".38596"/><circle cx="355" cy="169.68" r="1.45" opacity=".38596"/><circle cx="343.66" cy="191.11" r="1.45" opacity=".38596"/><circle cx="325.08" cy="165.87" r="1.45" opacity=".38596"/><circle cx="330.13" cy="185.62" r="1.45" opacity=".38596"/><circle cx="293.42" cy="154.88" r="1.45" opacity=".38596"/><circle cx="286.63" cy="171.64" r="1.45" opacity=".38596"/><circle cx="303.22" cy="161.59" r="1.45" opacity=".38596"/><circle cx="311.9" cy="156.96" r="1.45" opacity=".38596"/><circle cx="295.42" cy="177.28" r="1.45" opacity=".38596"/><circle cx="280.48" cy="160.76" r="1.45" opacity=".38596"/><circle cx="288.36" cy="151.12" r="1.45" opacity=".38596"/><circle cx="281.18" cy="199.41" r="1.45" opacity=".38596"/><circle cx="292.93" cy="173.15" r="1.45" opacity=".38596"/><circle cx="307.68" cy="185.89" r="1.45" opacity=".38596"/><circle cx="304.76" cy="198.72" r="1.45" opacity=".38596"/><circle cx="313.82" cy="180.55" r="1.45" opacity=".38596"/><circle cx="327.56" cy="178.56" r="1.45" opacity=".38596"/><circle cx="368.24" cy="198.59" r="1.45" opacity=".38596"/><circle cx="370.54" cy="184.66" r="1.45" opacity=".38596"/><circle cx="384.24" cy="189.86" r="1.45" opacity=".38596"/><circle cx="368.02" cy="191.83" r="1.45" opacity=".38596"/><circle cx="380.58" cy="164.04" r="1.45" opacity=".38596"/><circle cx="389.03" cy="157.54" r="1.45" opacity=".38596"/><circle cx="395.71" cy="136.57" r="1.45" opacity=".38596"/><circle cx="382.64" cy="116.2" r="1.45" opacity=".38596"/><circle cx="396.82" cy="139.79" r="1.45" opacity=".38596"/><circle cx="384.64" cy="123.46" r="1.45" opacity=".38596"/><circle cx="396.45" cy="116.7" r="1.45" opacity=".38596"/><circle cx="399.74" cy="110.12" r="1.45" opacity=".38596"/><circle cx="391.84" cy="89.546" r="1.45" opacity=".38596"/><circle cx="399.11" cy="98.533" r="1.45" opacity=".38596"/><circle cx="334.5" cy="87.265" r="1.45" opacity=".38596"/><circle cx="321.11" cy="99.178" r="1.45" opacity=".38596"/><circle cx="333.8" cy="75.303" r="1.45" opacity=".38596"/><circle cx="337.27" cy="93.826" r="1.45" opacity=".38596"/><circle cx="318.96" cy="95.126" r="1.45" opacity=".38596"/><circle cx="304.83" cy="93.649" r="1.45" opacity=".38596"/><circle cx="282.36" cy="75.737" r="1.45" opacity=".38596"/><circle cx="303.11" cy="97.822" r="1.45" opacity=".38596"/><circle cx="291.99" cy="89.425" r="1.45" opacity=".38596"/><circle cx="355.72" cy="97.628" r="1.45" opacity=".38596"/><circle cx="345.79" cy="83.06" r="1.45" opacity=".38596"/><circle cx="381.08" cy="96.44" r="1.45" opacity=".38596"/><circle cx="390.57" cy="77.753" r="1.45" opacity=".38596"/><circle cx="363.65" cy="78.104" r="1.45" opacity=".38596"/><circle cx="397.73" cy="75.424" r="1.45" opacity=".38596"/><circle cx="408.34" cy="69.806" r="1.45" opacity=".38596"/><circle cx="384.7" cy="57.325" r="1.45" opacity=".38596"/><circle cx="366.64" cy="68.997" r="1.45" opacity=".38596"/><circle cx="352.62" cy="70.094" r="1.45" opacity=".38596"/><circle cx="385.57" cy="80.259" r="1.45" opacity=".38596"/><circle cx="386.95" cy="74.419" r="1.45" opacity=".38596"/><circle cx="361.42" cy="81.681" r="1.45" opacity=".38596"/><circle cx="363.4" cy="123.04" r="1.45" opacity=".38596"/><circle cx="358.29" cy="132.14" r="1.45" opacity=".38596"/><circle cx="359.51" cy="139.18" r="1.45" opacity=".38596"/><circle cx="347.65" cy="135.25" r="1.45" opacity=".38596"/><circle cx="362.52" cy="168.26" r="1.45" opacity=".38596"/><circle cx="329.8" cy="173.69" r="1.45" opacity=".38596"/><circle cx="307.28" cy="181.29" r="1.45" opacity=".38596"/><circle cx="344.11" cy="140.9" r="1.45" opacity=".38596"/><circle cx="322.15" cy="142.22" r="1.45" opacity=".38596"/><circle cx="329.62" cy="141.83" r="1.45" opacity=".38596"/><circle cx="308.27" cy="154.89" r="1.45" opacity=".38596"/><circle cx="341.79" cy="166.53" r="1.45" opacity=".38596"/><circle cx="320.62" cy="156.04" r="1.45" opacity=".38596"/><circle cx="315.87" cy="149.33" r="1.45" opacity=".38596"/><circle cx="325.54" cy="126.73" r="1.45" opacity=".38596"/><circle cx="330.89" cy="182.53" r="1.45" opacity=".38596"/><circle cx="393.14" cy="146.76" r="1.45" opacity=".38596"/><circle cx="387.14" cy="161.26" r="1.45" opacity=".38596"/><circle cx="370.69" cy="153.75" r="1.45" opacity=".38596"/><circle cx="381.01" cy="121.94" r="1.45" opacity=".38596"/><circle cx="373.71" cy="150.51" r="1.45" opacity=".38596"/><circle cx="410.24" cy="124.77" r="1.45" opacity=".38596"/><circle cx="403.31" cy="136.21" r="1.45" opacity=".38596"/><circle cx="386.08" cy="155.11" r="1.45" opacity=".38596"/><circle cx="375.98" cy="157.02" r="1.45" opacity=".38596"/><circle cx="359.07" cy="164.92" r="1.45" opacity=".38596"/><circle cx="362.85" cy="171.45" r="1.45" opacity=".38596"/><circle cx="364.7" cy="160.93" r="1.45" opacity=".38596"/><circle cx="375.55" cy="181.88" r="1.45" opacity=".38596"/><circle cx="394.95" cy="165.59" r="1.45" opacity=".38596"/><circle cx="393.33" cy="161.39" r="1.45" opacity=".38596"/><circle cx="369.26" cy="188.23" r="1.45" opacity=".38596"/><circle cx="376" cy="206.04" r="1.45" opacity=".38596"/><circle cx="383.03" cy="186.27" r="1.45" opacity=".38596"/><circle cx="371.7" cy="167.97" r="1.45" opacity=".38596"/><circle cx="353.78" cy="190.49" r="1.45" opacity=".38596"/><circle cx="330.42" cy="198.7" r="1.45" opacity=".38596"/><circle cx="291.29" cy="176.87" r="1.45" opacity=".38596"/><circle cx="308.52" cy="170.4" r="1.45" opacity=".38596"/><circle cx="301.95" cy="187.98" r="1.45" opacity=".38596"/><circle cx="284.86" cy="197.01" r="1.45" opacity=".38596"/><circle cx="262.41" cy="195.8" r="1.45" opacity=".38596"/><circle cx="283.31" cy="182.04" r="1.45" opacity=".38596"/><circle cx="274.3" cy="171.71" r="1.45" opacity=".38596"/><circle cx="277.96" cy="198.21" r="1.45" opacity=".38596"/><circle cx="292.08" cy="188.53" r="1.45" opacity=".38596"/><circle cx="275.63" cy="161.29" r="1.45" opacity=".38596"/><circle cx="280.77" cy="129.37" r="1.45" opacity=".38596"/><circle cx="301" cy="121.12" r="1.45" opacity=".38596"/><circle cx="308.43" cy="114.72" r="1.45" opacity=".38596"/><circle cx="294.28" cy="114.83" r="1.45" opacity=".38596"/><circle cx="291.34" cy="95.225" r="1.45" opacity=".38596"/><circle cx="284.44" cy="94.321" r="1.45" opacity=".38596"/><circle cx="288.6" cy="76.349" r="1.45" opacity=".38596"/><circle cx="284.96" cy="97.659" r="1.45" opacity=".38596"/><circle cx="278.55" cy="83.251" r="1.45" opacity=".38596"/><circle cx="332.71" cy="100.21" r="1.45" opacity=".38596"/><circle cx="341.87" cy="60.582" r="1.45" opacity=".38596"/><circle cx="363.8" cy="85.473" r="1.45" opacity=".38596"/><circle cx="371.8" cy="124.92" r="1.45" opacity=".38596"/><circle cx="361.88" cy="134.9" r="1.45" opacity=".38596"/><circle cx="389.85" cy="143.67" r="1.45" opacity=".38596"/><circle cx="388.55" cy="133.45" r="1.45" opacity=".38596"/><circle cx="379.93" cy="182.49" r="1.45" opacity=".38596"/><circle cx="410.55" cy="172.82" r="1.45" opacity=".38596"/><circle cx="374.97" cy="199.16" r="1.45" opacity=".38596"/><circle cx="372.1" cy="193.9" r="1.45" opacity=".38596"/><circle cx="399.6" cy="192.02" r="1.45" opacity=".38596"/><circle cx="414.1" cy="207.27" r="1.45" opacity=".38596"/><circle cx="397.01" cy="185.14" r="1.45" opacity=".38596"/><circle cx="388.31" cy="182.54" r="1.45" opacity=".38596"/><circle cx="400.4" cy="173.27" r="1.45" opacity=".38596"/></g><path d="m258.59 41.453q-2.28 0-3.12-1.08-0.84-1.14-0.84-2.46 0-0.72 0.12-1.38 0.12-0.72 0.18-0.96l3.06-11.64q0.3-1.2 0.6-2.64 0.36-1.5 0.36-2.46 0-1.02-0.36-1.68-0.36-0.72-1.38-0.72-1.14 0-2.64 1.26-1.44 1.2-3 3.18t-3 4.32q-1.44 2.28-2.52 4.44-1.08 2.1-1.62 3.66l2.04-7.74q0.9-1.74 2.28-4.02t3.12-4.44q1.8-2.16 3.9-3.54 2.16-1.44 4.56-1.44 2.16 0 2.94 1.32t0.78 2.94q0 1.14-0.24 2.46t-0.36 1.98l-3.3 13.86t-0.12 0.48q-0.06 0.42-0.06 0.96 0 1.14 1.14 1.14 1.56 0 2.64-1.14 1.14-1.14 1.86-1.98l1.2 0.9q-0.6 0.84-1.38 1.92-0.72 1.08-1.74 2.16-0.96 1.02-2.22 1.68t-2.88 0.66zm-31.8-0.6h-4.92l4.8-22.8t0.06-0.66q0.12-0.66 0.12-1.32 0-0.78-0.42-1.2t-1.5-0.42q-0.6 0-1.26 0.06t-0.66 0.06v-1.62l8.22-0.66h1.38l-2.94 13.02h0.66zm16.02 0h-4.98q0.66-2.4 1.26-4.8 0.66-2.46 1.26-4.86 0.6-2.46 1.14-4.92 0.6-2.46 1.14-4.98 0 0 0.12-0.84 0.18-0.9 0.18-1.62 0-1.02-0.36-1.68-0.36-0.72-1.38-0.72-1.5 0-3.3 1.68t-3.66 4.32q-1.8 2.64-3.36 5.64-1.56 2.94-2.58 5.46l1.5-7.56q0.9-1.74 2.28-4.08t3.18-4.56q1.86-2.22 4.14-3.72t4.86-1.5q2.22 0 2.94 1.32 0.78 1.32 0.78 2.94 0 1.32-0.24 2.76t-0.3 1.68l-1.14 4.5h0.84l-2.7 7.98z" stroke-width="1.7" aria-label="m"/><path d="m446.59 41.453q-2.28 0-3.12-1.08-0.84-1.14-0.84-2.46 0-0.72 0.12-1.38 0.12-0.72 0.18-0.96l3.06-11.64q0.3-1.2 0.6-2.64 0.36-1.5 0.36-2.46 0-1.02-0.36-1.68-0.36-0.72-1.38-0.72-1.14 0-2.64 1.26-1.44 1.2-3 3.18t-3 4.32q-1.44 2.28-2.52 4.44-1.08 2.1-1.62 3.66l2.04-7.74q0.9-1.74 2.28-4.02t3.12-4.44q1.8-2.16 3.9-3.54 2.16-1.44 4.56-1.44 2.16 0 2.94 1.32t0.78 2.94q0 1.14-0.24 2.46t-0.36 1.98l-3.3 13.86t-0.12 0.48q-0.06 0.42-0.06 0.96 0 1.14 1.14 1.14 1.56 0 2.64-1.14 1.14-1.14 1.86-1.98l1.2 0.9q-0.6 0.84-1.38 1.92-0.72 1.08-1.74 2.16-0.96 1.02-2.22 1.68t-2.88 0.66zm-31.8-0.6h-4.92l4.8-22.8t0.06-0.66q0.12-0.66 0.12-1.32 0-0.78-0.42-1.2t-1.5-0.42q-0.6 0-1.26 0.06t-0.66 0.06v-1.62l8.22-0.66h1.38l-2.94 13.02h0.66zm16.02 0h-4.98q0.66-2.4 1.26-4.8 0.66-2.46 1.26-4.86 0.6-2.46 1.14-4.92 0.6-2.46 1.14-4.98 0 0 0.12-0.84 0.18-0.9 0.18-1.62 0-1.02-0.36-1.68-0.36-0.72-1.38-0.72-1.5 0-3.3 1.68t-3.66 4.32q-1.8 2.64-3.36 5.64-1.56 2.94-2.58 5.46l1.5-7.56q0.9-1.74 2.28-4.08t3.18-4.56q1.86-2.22 4.14-3.72t4.86-1.5q2.22 0 2.94 1.32 0.78 1.32 0.78 2.94 0 1.32-0.24 2.76t-0.3 1.68l-1.14 4.5h0.84l-2.7 7.98z" stroke-width="1.7" aria-label="m"/></g></svg>
