<?xml version="1.0" standalone="no"?>
<!DOCTYPE svg PUBLIC "-//W3C//DTD SVG 20010904//EN"
 "http://www.w3.org/TR/2001/REC-SVG-20010904/DTD/svg10.dtd">
<svg version="1.0" xmlns="http://www.w3.org/2000/svg"
 width="1039.000000pt" height="239.000000pt" viewBox="0 0 1039.000000 239.000000"
 preserveAspectRatio="xMidYMid meet">
<metadata>
Created by potrace 1.16, written by Peter Selinger 2001-2019
</metadata>
<g transform="translate(0.000000,239.000000) scale(0.100000,-0.100000)"
fill="#000000" stroke="none">
<path d="M6580 2301 c-35 -51 -73 -97 -84 -101 -16 -7 -8 -9 29 -9 32 -1 45 2
36 8 -8 5 -11 16 -6 30 6 19 13 22 43 19 39 -4 57 -33 30 -49 -8 -6 4 -9 35
-9 46 0 47 0 28 19 -12 12 -21 41 -26 82 -13 113 -14 113 -85 10z m52 -1 c5
-36 2 -40 -29 -40 -28 0 -28 3 -6 41 22 37 30 37 35 -1z"/>
<path d="M6910 2380 c0 -5 7 -10 16 -10 15 0 16 -9 11 -63 -7 -77 -13 -94 -38
-100 -15 -4 -19 -14 -19 -44 l0 -38 20 33 c19 31 22 32 84 32 59 0 66 -2 85
-27 l20 -28 1 33 c0 25 -5 35 -19 39 -17 4 -19 14 -19 80 0 54 4 76 14 80 36
13 6 23 -71 23 -50 0 -85 -4 -85 -10z m110 -90 l0 -80 -41 0 c-38 0 -41 2 -36
23 3 12 9 45 13 72 8 63 10 65 40 65 23 0 24 -2 24 -80z"/>
<path d="M7411 2328 c-6 -29 -14 -63 -17 -75 -5 -17 -2 -23 10 -23 15 0 16
-76 17 -872 0 -480 1 -896 2 -925 2 -56 17 -87 17 -35 0 31 1 32 45 32 45 0
53 -9 46 -52 0 -5 3 -8 9 -8 5 0 10 14 10 30 0 29 1 30 49 30 49 0 50 -1 54
-32 l4 -33 1 33 c2 32 3 32 51 32 49 0 50 -1 54 -32 l4 -33 1 33 c2 32 3 32
52 32 50 0 50 0 50 -32 1 -28 2 -30 11 -15 6 10 8 25 5 33 -4 11 5 14 44 14
49 0 50 -1 50 -30 0 -16 5 -30 10 -30 6 0 10 14 10 30 0 29 2 30 45 30 41 0
45 -2 45 -24 0 -14 5 -28 10 -31 6 -4 10 7 10 24 0 30 1 31 45 31 41 0 45 -2
45 -24 0 -14 5 -28 10 -31 6 -4 10 7 10 24 0 30 1 31 45 31 44 0 45 -1 45 -31
0 -17 4 -28 10 -24 6 3 10 17 10 31 0 22 4 24 45 24 43 0 45 -1 45 -30 0 -16
5 -30 10 -30 6 0 10 14 10 30 0 29 2 30 45 30 41 0 45 -2 45 -24 0 -14 5 -28
10 -31 6 -4 10 7 10 24 0 30 1 31 49 31 46 0 50 -2 54 -28 l4 -27 2 28 c1 26
3 27 51 27 48 0 50 -1 51 -27 l1 -28 7 29 c6 29 19 33 90 27 5 -1 12 -13 14
-28 4 -26 4 -25 6 5 l1 34 47 -4 c44 -3 48 -6 54 -33 l6 -30 4 30 c4 28 7 30
52 33 47 3 47 3 47 -28 0 -18 4 -29 10 -25 6 3 10 17 10 31 0 22 4 24 45 24
43 0 45 -1 45 -30 0 -16 5 -30 10 -30 6 0 10 14 10 30 0 29 2 30 45 30 43 0
45 -1 45 -30 0 -16 5 -30 10 -30 6 0 10 14 10 30 0 29 2 30 45 30 43 0 45 -1
45 -30 0 -16 5 -30 10 -30 6 0 10 14 10 30 0 29 2 30 45 30 41 0 45 -2 45 -24
0 -14 5 -28 10 -31 6 -4 10 7 10 24 0 30 1 31 49 31 49 0 50 -1 54 -33 l4 -32
1 33 2 32 239 0 c196 0 240 -3 244 -14 5 -12 15 -12 69 1 35 9 67 19 71 23 5
4 -21 15 -57 24 -80 20 -86 20 -86 1 0 -13 -30 -15 -205 -17 -113 -1 -220 -2
-237 -2 -29 -1 -34 3 -39 29 l-6 30 -4 -30 c-4 -28 -7 -30 -49 -30 -42 0 -45
2 -48 28 -4 37 -22 34 -22 -4 0 -29 -1 -30 -42 -27 -39 3 -43 6 -46 31 -4 37
-22 35 -22 -3 0 -29 -2 -30 -45 -30 -43 0 -45 1 -45 30 0 17 -4 30 -10 30 -5
0 -10 -13 -10 -30 0 -29 -2 -30 -45 -30 -43 0 -45 1 -45 30 0 17 -4 30 -10 30
-5 0 -10 -13 -10 -30 0 -29 -2 -30 -45 -30 -41 0 -45 2 -45 24 0 14 -4 28 -10
31 -6 4 -10 -7 -10 -25 0 -31 0 -31 -47 -28 -44 3 -48 5 -54 33 l-7 30 -1 -32
c-1 -33 -2 -33 -50 -33 -49 0 -50 1 -54 33 l-4 32 -1 -32 c-2 -33 -3 -33 -51
-33 -49 0 -50 1 -54 33 l-4 32 -1 -32 c-2 -33 -3 -33 -52 -33 -27 0 -50 2 -50
4 0 7 93 96 101 96 5 0 9 7 9 16 0 16 35 70 308 474 406 601 567 835 574 838
4 2 8 12 8 23 0 17 -8 19 -75 19 -87 0 -102 -18 -20 -22 l56 -3 -131 -195
c-72 -107 -230 -341 -351 -520 -121 -179 -253 -373 -292 -432 l-72 -107 -3 39
c-2 22 -7 40 -12 40 -5 0 -7 -20 -6 -44 2 -24 -2 -57 -9 -73 -16 -38 -74 -105
-85 -98 -5 3 -13 -2 -18 -11 -5 -8 -27 -18 -49 -21 -37 -5 -42 -3 -46 18 l-4
24 -8 -23 c-6 -18 -15 -22 -51 -22 -32 0 -44 4 -44 15 0 8 -4 15 -10 15 -5 0
-10 -7 -10 -15 0 -8 -6 -16 -12 -16 -7 -1 -28 -3 -45 -5 -28 -3 -33 0 -33 16
0 11 -4 20 -10 20 -5 0 -10 -8 -10 -18 0 -15 -9 -19 -45 -20 -39 -2 -45 1 -45
18 0 11 -4 20 -10 20 -5 0 -10 -9 -10 -20 0 -17 -7 -20 -45 -20 -38 0 -45 3
-45 20 0 11 -4 20 -10 20 -5 0 -10 -9 -10 -20 0 -17 -7 -20 -44 -20 -36 0 -45
4 -51 23 l-8 22 -4 -23 c-4 -19 -11 -22 -53 -22 -42 0 -49 3 -53 22 l-4 23 -2
-22 c-1 -21 -6 -23 -50 -23 -43 0 -50 3 -54 23 l-4 22 -2 -22 c-1 -21 -6 -23
-50 -23 -43 0 -50 3 -54 22 l-4 23 -2 -22 c-1 -21 -6 -23 -50 -23 -43 0 -50 3
-54 22 l-4 23 -8 -22 c-6 -19 -15 -23 -51 -23 l-44 0 -1 625 c0 344 0 657 0
695 0 39 0 79 0 90 1 18 8 20 81 20 44 0 80 3 80 8 0 4 -31 7 -69 6 -38 -1
-75 2 -81 6 -9 5 -13 51 -15 151 -2 155 0 169 21 169 8 0 14 3 14 6 0 11 -41
144 -44 144 -1 0 -8 -24 -15 -52z"/>
<path d="M7126 2323 c-13 -13 -5 -33 13 -33 11 0 21 -6 23 -12 7 -19 -25 -69
-40 -63 -8 3 -12 0 -10 -7 3 -7 14 -14 26 -16 16 -3 22 2 22 15 0 22 18 43 37
43 16 0 17 -32 1 -48 -9 -9 -4 -12 25 -12 20 0 37 5 37 10 0 6 -4 10 -10 10
-5 0 -10 9 -10 20 0 33 36 25 49 -10 11 -32 51 -44 51 -14 0 8 -4 13 -9 10
-12 -8 -43 41 -39 62 2 9 10 17 18 18 30 2 32 4 20 19 -18 22 -28 19 -45 -15
-9 -16 -22 -30 -30 -30 -18 0 -20 36 -2 43 6 3 -6 5 -28 5 -22 0 -34 -2 -27
-5 17 -7 15 -43 -3 -43 -9 0 -20 11 -24 24 -10 24 -34 40 -45 29z"/>
<path d="M59 2259 c12 -5 21 -15 18 -22 -2 -6 -12 -39 -21 -72 -10 -33 -25
-66 -34 -72 -9 -7 -12 -13 -6 -14 54 -4 84 -3 84 4 0 4 -7 7 -15 7 -17 0 -19
18 -5 54 10 28 40 36 40 11 0 -23 17 -18 24 8 11 43 8 52 -14 32 -29 -26 -42
-8 -24 33 10 26 19 33 36 30 12 -2 28 -13 34 -25 13 -26 24 -20 24 14 0 22 -3
23 -82 22 -63 0 -77 -3 -59 -10z"/>
<path d="M380 2260 c23 -14 25 -151 3 -167 -14 -11 -9 -13 33 -13 38 1 45 3
32 11 -12 6 -18 22 -18 44 0 35 0 35 45 35 l45 0 0 -39 c0 -29 -5 -41 -17 -44
-10 -3 7 -5 37 -5 30 0 47 2 38 5 -15 4 -18 17 -18 88 0 71 3 84 18 88 9 3 -8
5 -38 5 -30 0 -47 -2 -37 -5 12 -3 17 -15 17 -39 0 -34 0 -34 -45 -34 -45 0
-45 0 -45 34 0 24 5 36 18 39 9 3 -5 5 -33 6 -35 0 -45 -2 -35 -9z"/>
<path d="M664 2199 c-20 -71 -20 -74 -2 -81 17 -7 18 -43 18 -848 0 -462 4
-840 8 -840 4 0 8 12 7 28 0 25 2 27 45 27 42 0 45 -2 51 -30 l6 -30 4 30 c4
28 7 30 49 30 42 0 45 -2 51 -30 l6 -30 4 30 c4 28 7 30 49 30 42 0 45 -2 48
-27 2 -16 8 -28 13 -28 5 0 8 12 7 28 -3 26 -1 27 45 30 46 3 47 3 47 -27 0
-17 5 -31 10 -31 6 0 10 14 10 30 0 29 2 30 45 30 43 0 45 -1 45 -30 0 -16 5
-30 10 -30 6 0 10 14 10 30 0 29 2 30 45 30 43 0 45 -1 45 -30 0 -16 5 -30 10
-30 6 0 10 14 10 30 0 29 2 30 45 30 41 0 45 -2 45 -24 0 -14 5 -28 10 -31 6
-4 10 7 10 25 0 31 0 31 48 28 42 -3 47 -5 44 -25 -2 -12 2 -24 8 -28 6 -4 10
6 10 24 0 30 2 31 45 31 42 0 45 -2 54 -32 l9 -33 1 33 1 33 47 -3 c44 -3 48
-5 54 -33 l7 -30 1 33 c1 33 1 33 48 30 44 -3 48 -5 54 -33 l7 -30 1 33 c1 32
2 32 50 32 49 0 50 -1 54 -32 l4 -33 1 33 c2 32 3 32 52 32 49 0 50 0 50 -32
0 -37 9 -33 12 5 2 25 6 27 50 27 47 0 48 -1 48 -31 0 -18 4 -28 10 -24 6 4 8
10 5 15 -14 22 9 40 51 40 43 0 44 -1 45 -32 l1 -33 7 30 c6 28 10 30 54 33
45 3 47 2 47 -22 0 -15 5 -26 10 -26 6 0 10 11 10 25 0 23 4 25 45 25 41 0 45
-2 45 -25 0 -14 5 -25 10 -25 6 0 10 11 10 25 0 23 4 25 45 25 41 0 45 -2 45
-25 0 -14 5 -25 10 -25 6 0 10 11 10 25 0 23 4 25 45 25 41 0 45 -2 45 -25 0
-14 5 -25 10 -25 6 0 10 11 10 25 0 23 3 25 49 25 46 0 50 -2 54 -27 l4 -28 2
26 1 26 231 6 c126 3 237 3 245 0 8 -3 14 -11 14 -18 0 -11 14 -10 66 5 37 11
68 21 71 23 4 5 -106 37 -125 37 -7 0 -12 -7 -12 -15 0 -13 -34 -15 -245 -15
l-245 0 -1 33 -1 32 -7 -30 c-6 -28 -10 -30 -54 -33 -45 -3 -47 -2 -47 22 0
15 -4 26 -10 26 -5 0 -10 -11 -10 -25 0 -23 -4 -25 -45 -25 -41 0 -45 2 -45
25 0 14 -4 25 -10 25 -5 0 -10 -11 -10 -25 0 -23 -4 -25 -45 -25 -41 0 -45 2
-45 25 0 14 -4 25 -10 25 -5 0 -10 -11 -10 -25 0 -23 -4 -25 -45 -25 -41 0
-45 2 -45 25 0 14 -4 25 -10 25 -5 0 -10 -11 -10 -25 0 -23 -3 -25 -50 -25
-48 0 -50 1 -51 28 l-1 27 -7 -29 c-5 -26 -10 -29 -50 -30 -39 -1 -44 2 -46
21 -3 37 -15 40 -15 4 0 -32 0 -32 -47 -29 -44 3 -48 5 -54 33 l-6 30 -4 -30
c-4 -28 -7 -30 -49 -30 -42 0 -45 2 -51 30 l-6 30 -4 -30 c-4 -28 -7 -30 -49
-30 -42 0 -45 2 -51 30 l-6 30 -4 -30 c-4 -28 -7 -30 -51 -33 -48 -3 -48 -3
-48 29 0 18 -3 29 -7 25 -5 -4 -8 -18 -8 -29 0 -19 -6 -22 -47 -25 -48 -3 -48
-3 -48 29 0 36 -8 35 -13 -2 -3 -21 -10 -24 -50 -27 -46 -3 -47 -3 -47 27 0
17 -4 31 -10 31 -5 0 -10 -13 -10 -30 0 -29 -2 -30 -45 -30 -43 0 -45 1 -45
30 0 17 -4 30 -10 30 -5 0 -10 -13 -10 -30 0 -29 -2 -30 -45 -30 -43 0 -45 1
-45 30 0 17 -4 30 -10 30 -5 0 -10 -13 -10 -30 0 -29 -2 -30 -45 -30 -43 0
-45 1 -45 30 0 17 -4 30 -10 30 -5 0 -10 -13 -10 -30 0 -29 -2 -30 -45 -30
-33 0 -45 4 -46 15 -3 28 -4 33 -11 41 -5 4 -8 -7 -8 -24 0 -31 -1 -32 -45
-32 -41 0 -45 2 -45 24 0 14 -4 28 -10 31 -6 4 -10 -7 -10 -24 0 -30 -1 -31
-49 -31 -49 0 -50 1 -54 33 l-4 32 -1 -32 c-2 -33 -3 -33 -51 -33 -49 0 -50 1
-54 33 l-4 32 -1 -32 c-2 -31 -4 -33 -38 -33 l-36 0 27 33 c15 17 158 167 319
332 160 165 386 398 501 519 l210 218 3 -36 c5 -53 22 -44 22 12 1 46 3 50 99
150 54 56 101 102 105 102 4 0 5 -42 4 -92 l-3 -93 -90 -5 -90 -6 90 -4 90 -5
6 -50 6 -50 1 48 2 47 435 0 435 0 0 -40 c0 -22 5 -40 10 -40 6 0 10 25 10 55
l0 55 -435 0 -435 0 0 108 c0 59 -5 114 -10 122 -8 12 -34 -10 -131 -112
l-121 -128 -86 0 c-47 0 -83 -3 -79 -6 3 -3 35 -6 71 -5 36 0 66 -3 66 -7 -1
-10 -159 -176 -610 -637 -96 -99 -235 -242 -308 -318 -72 -75 -134 -137 -137
-137 -3 0 -5 245 -5 545 l0 545 80 0 c47 0 80 4 80 10 0 6 -33 10 -80 10 l-80
0 0 131 c0 72 5 139 10 150 7 13 7 19 0 19 -6 0 -10 35 -10 90 0 73 3 90 15
90 19 0 19 11 -3 89 l-18 64 -20 -74z"/>
<path d="M6763 2222 c-12 -8 -13 -62 0 -62 4 0 13 11 19 25 12 27 1 49 -19 37z"/>
<path d="M227 2103 c-4 -3 -2 -13 5 -20 9 -11 9 -17 -3 -24 -11 -7 -11 -9 3
-9 19 0 42 35 33 50 -7 11 -28 13 -38 3z"/>
<path d="M7234 1995 c-37 -15 -44 -31 -44 -94 0 -94 78 -138 120 -68 51 84 0
194 -76 162z m44 -17 c17 -17 15 -130 -2 -154 -14 -18 -16 -18 -33 -1 -18 18
-25 114 -11 150 9 20 29 22 46 5z"/>
<path d="M7062 1933 c-28 -37 -48 -71 -46 -75 3 -5 21 -8 40 -8 37 0 44 -15
17 -36 -16 -12 -11 -13 37 -13 48 0 53 1 38 13 -10 7 -18 17 -18 21 0 4 8 14
18 21 16 13 16 13 0 14 -15 0 -18 10 -18 65 0 36 -4 65 -9 65 -5 0 -32 -30
-59 -67z m28 -28 c0 -31 -3 -35 -25 -35 -14 0 -25 2 -25 5 0 7 42 65 47 65 2
0 3 -16 3 -35z"/>
<path d="M8850 1909 c-33 -4 -20 -6 49 -7 52 -1 91 1 87 5 -9 9 -76 10 -136 2z"/>
<path d="M9045 1910 c-4 -6 27 -10 84 -10 54 0 91 4 91 10 0 6 -35 10 -84 10
-47 0 -88 -4 -91 -10z"/>
<path d="M9280 1910 c0 -6 35 -10 86 -10 54 0 83 4 79 10 -3 6 -42 10 -86 10
-46 0 -79 -4 -79 -10z"/>
<path d="M7665 1900 c-4 -6 27 -10 85 -10 58 0 89 4 85 10 -3 6 -42 10 -85 10
-43 0 -82 -4 -85 -10z"/>
<path d="M7895 1900 c-4 -6 25 -10 79 -10 51 0 86 4 86 10 0 6 -33 10 -79 10
-44 0 -83 -4 -86 -10z"/>
<path d="M8125 1900 c3 -5 42 -10 86 -10 46 0 79 4 79 10 0 6 -35 10 -86 10
-54 0 -83 -4 -79 -10z"/>
<path d="M8355 1900 c3 -5 42 -10 86 -10 46 0 79 4 79 10 0 6 -35 10 -86 10
-54 0 -83 -4 -79 -10z"/>
<path d="M8586 1901 c5 -4 47 -5 94 -1 l85 7 -94 1 c-53 1 -91 -2 -85 -7z"/>
<path d="M8530 1795 c0 -50 4 -85 10 -85 6 0 10 35 10 85 0 50 -4 85 -10 85
-6 0 -10 -35 -10 -85z"/>
<path d="M8750 1795 c0 -50 4 -85 10 -85 6 0 10 35 10 85 0 50 -4 85 -10 85
-6 0 -10 -35 -10 -85z"/>
<path d="M9640 1735 c0 -50 4 -85 10 -85 6 0 10 35 10 85 0 50 -4 85 -10 85
-6 0 -10 -35 -10 -85z"/>
<path d="M478 1719 c-20 -11 -24 -54 -7 -65 19 -11 34 13 19 31 -12 14 -11 18
1 26 22 14 37 11 49 -10 16 -31 13 -40 -40 -93 -68 -68 -66 -78 15 -78 l65 0
0 30 c0 17 -4 30 -10 30 -5 0 -10 -7 -10 -15 0 -11 -11 -15 -42 -15 l-43 0 53
46 c40 35 52 52 52 75 0 43 -57 64 -102 38z"/>
<path d="M8750 1565 c0 -50 4 -85 10 -85 6 0 10 35 10 85 0 50 -4 85 -10 85
-6 0 -10 -35 -10 -85z"/>
<path d="M915 1630 c-4 -6 25 -10 79 -10 51 0 86 4 86 10 0 6 -33 10 -79 10
-44 0 -83 -4 -86 -10z"/>
<path d="M1150 1630 c0 -6 33 -10 79 -10 44 0 83 5 86 10 4 6 -25 10 -79 10
-51 0 -86 -4 -86 -10z"/>
<path d="M1380 1630 c0 -9 160 -4 169 6 2 2 -35 4 -82 4 -49 0 -87 -4 -87 -10z"/>
<path d="M8530 1560 c0 -47 4 -80 10 -80 6 0 10 33 10 80 0 47 -4 80 -10 80
-6 0 -10 -33 -10 -80z"/>
<path d="M9640 1505 c0 -50 4 -85 10 -85 6 0 10 35 10 85 0 50 -4 85 -10 85
-6 0 -10 -35 -10 -85z"/>
<path d="M2897 1473 c-11 -10 -8 -161 3 -168 6 -4 10 27 10 84 0 91 -1 97 -13
84z"/>
<path d="M1780 1385 c0 -50 4 -85 10 -85 6 0 10 35 10 85 0 50 -4 85 -10 85
-6 0 -10 -35 -10 -85z"/>
<path d="M2014 1385 c0 -49 1 -71 3 -48 2 23 2 64 0 90 -2 26 -3 8 -3 -42z"/>
<path d="M8750 1335 c0 -50 4 -85 10 -85 6 0 10 35 10 85 0 50 -4 85 -10 85
-6 0 -10 -35 -10 -85z"/>
<path d="M8530 1324 c0 -54 4 -83 10 -79 6 3 10 42 10 86 0 46 -4 79 -10 79
-6 0 -10 -35 -10 -86z"/>
<path d="M9640 1275 c0 -50 4 -85 10 -85 6 0 10 35 10 85 0 50 -4 85 -10 85
-6 0 -10 -35 -10 -85z"/>
<path d="M1787 1233 c-11 -11 -8 -163 3 -163 6 0 10 35 10 85 0 85 -1 91 -13
78z"/>
<path d="M2014 1155 c0 -49 1 -71 3 -48 2 23 2 64 0 90 -2 26 -3 8 -3 -42z"/>
<path d="M2890 1155 c0 -50 4 -85 10 -85 6 0 10 35 10 85 0 50 -4 85 -10 85
-6 0 -10 -35 -10 -85z"/>
<path d="M8530 1095 c0 -50 4 -85 10 -85 6 0 10 35 10 85 0 50 -4 85 -10 85
-6 0 -10 -35 -10 -85z"/>
<path d="M8751 1100 c0 -44 5 -80 10 -80 5 0 9 36 9 80 0 46 -4 80 -10 80 -6
0 -9 -33 -9 -80z"/>
<path d="M9647 1123 c-11 -11 -8 -163 3 -163 6 0 10 35 10 85 0 85 -1 91 -13
78z"/>
<path d="M1787 1003 c-11 -11 -8 -163 3 -163 6 0 10 35 10 85 0 85 -1 91 -13
78z"/>
<path d="M2014 925 c0 -49 1 -71 3 -48 2 23 2 64 0 90 -2 26 -3 8 -3 -42z"/>
<path d="M2890 931 c0 -44 5 -83 10 -86 6 -4 10 25 10 79 0 51 -4 86 -10 86
-6 0 -10 -33 -10 -79z"/>
<path d="M8530 865 c0 -50 4 -85 10 -85 6 0 10 35 10 85 0 50 -4 85 -10 85 -6
0 -10 -35 -10 -85z"/>
<path d="M8750 871 c0 -44 5 -83 10 -86 6 -4 10 25 10 79 0 51 -4 86 -10 86
-6 0 -10 -33 -10 -79z"/>
<path d="M9645 888 c-7 -19 0 -156 8 -164 4 -4 7 34 7 84 0 86 -4 109 -15 80z"/>
<path d="M1787 773 c-8 -14 -4 -154 4 -159 5 -3 9 33 9 80 0 81 -3 97 -13 79z"/>
<path d="M2014 695 c0 -49 1 -71 3 -48 2 23 2 64 0 90 -2 26 -3 8 -3 -42z"/>
<path d="M2899 758 c-3 -66 -1 -139 5 -145 3 -3 6 33 6 80 0 48 -2 87 -5 87
-3 0 -6 -10 -6 -22z"/>
<path d="M8530 635 c0 -50 4 -85 10 -85 6 0 10 35 10 85 0 50 -4 85 -10 85 -6
0 -10 -35 -10 -85z"/>
<path d="M9653 615 c0 -33 2 -45 4 -27 2 18 2 45 0 60 -2 15 -4 0 -4 -33z"/>
<path d="M2793 378 c-37 -18 -42 -68 -7 -68 10 0 14 9 12 27 -4 33 28 45 48
19 18 -25 7 -49 -42 -96 -62 -59 -59 -70 21 -70 l65 0 0 30 c0 34 -15 40 -23
10 -4 -15 -14 -20 -41 -20 -46 0 -45 12 2 47 44 33 50 41 59 72 4 18 0 29 -17
43 -25 20 -44 22 -77 6z"/>
<path d="M2946 359 c-41 -48 -32 -131 17 -164 78 -50 144 99 76 171 -31 33
-62 30 -93 -7z m84 -73 c0 -63 -20 -97 -47 -80 -24 15 -27 149 -3 164 26 17
50 -24 50 -84z"/>
<path d="M476 361 c-40 -44 -37 -149 4 -171 29 -16 65 -12 84 9 20 22 31 80
22 116 -15 59 -76 84 -110 46z m70 -25 c11 -44 0 -128 -18 -140 -26 -16 -41 5
-46 69 -3 40 0 61 12 80 19 28 43 24 52 -9z"/>
<path d="M1676 366 c-27 -12 -27 -13 -7 -19 19 -5 21 -12 21 -76 0 -55 -3 -71
-14 -71 -8 0 -18 -4 -21 -10 -4 -6 15 -10 49 -10 52 0 77 14 39 22 -19 3 -20
10 -22 121 -1 61 -2 62 -45 43z"/>
<path d="M1823 354 c-26 -40 -23 -117 7 -149 58 -62 133 3 117 102 -8 48 -33
73 -73 73 -25 0 -38 -7 -51 -26z m77 -3 c11 -21 14 -110 4 -135 -10 -25 -51
-20 -58 7 -23 88 20 191 54 128z"/>
<path d="M3300 340 c0 -13 -7 -20 -20 -20 -11 0 -20 -4 -20 -10 0 -5 7 -10 16
-10 11 0 14 -5 10 -16 -3 -9 -9 -33 -12 -55 -6 -34 -4 -39 13 -39 11 0 28 10
39 23 10 12 12 16 4 10 -29 -26 -38 -16 -27 32 8 33 15 45 29 45 10 0 18 5 18
10 0 6 -4 10 -10 10 -5 0 -10 9 -10 20 0 11 -7 20 -15 20 -8 0 -15 -9 -15 -20z"/>
<path d="M9719 326 c-56 -27 -64 -130 -14 -173 33 -29 50 -29 80 2 20 20 25
34 25 77 -1 78 -41 120 -91 94z m54 -46 c5 -19 6 -54 2 -78 -12 -84 -65 -59
-65 31 0 86 44 120 63 47z"/>
<path d="M3560 317 c-31 -16 -41 -85 -15 -111 19 -19 66 -21 83 -4 21 21 13
32 -9 12 -31 -28 -54 -8 -54 47 0 38 3 44 23 47 17 3 22 -2 22 -17 0 -25 18
-28 27 -5 11 30 -38 50 -77 31z"/>
<path d="M8445 320 c-3 -5 -15 -10 -26 -10 -25 0 -25 -16 1 -23 17 -4 20 -14
20 -71 0 -60 -2 -68 -22 -76 -17 -6 -8 -9 37 -8 33 0 50 3 38 5 -22 4 -23 9
-23 99 0 85 -8 112 -25 84z"/>
<path d="M8576 299 c-47 -55 -30 -147 31 -170 80 -30 124 134 50 186 -32 22
-52 19 -81 -16z m74 -8 c5 -11 10 -42 10 -68 0 -103 -62 -114 -68 -13 -2 30
-1 64 3 77 7 28 40 31 55 4z"/>
<path d="M9524 305 c-13 -20 -14 -28 -4 -40 17 -20 31 -9 28 23 -2 19 2 27 16
30 18 4 46 -21 46 -40 0 -4 -25 -35 -55 -68 -31 -34 -54 -64 -51 -68 3 -5 33
-7 67 -7 60 2 63 3 66 29 4 28 -11 36 -21 11 -6 -16 -76 -22 -76 -7 0 5 20 23
45 41 75 53 73 113 -3 119 -35 3 -43 -1 -58 -23z"/>
<path d="M7220 300 c-25 -25 -34 -61 -27 -107 8 -45 33 -73 67 -73 38 0 60 20
70 63 21 96 -52 175 -110 117z m71 -21 c14 -26 7 -125 -10 -142 -8 -8 -16 -9
-29 -1 -18 12 -29 96 -17 141 7 29 40 30 56 2z"/>
<path d="M10050 294 c0 -9 -9 -18 -20 -21 -23 -6 -27 -23 -6 -23 12 0 12 -7 0
-46 -15 -51 -12 -64 15 -64 21 0 47 27 37 37 -3 3 -6 1 -6 -5 0 -7 -7 -12 -16
-12 -10 0 -14 6 -10 18 3 9 8 29 12 45 4 17 13 27 25 27 10 0 19 5 19 10 0 6
-7 10 -16 10 -11 0 -14 6 -9 20 5 14 2 20 -9 20 -9 0 -16 -7 -16 -16z"/>
<path d="M10293 254 c-20 -20 -24 -31 -19 -56 9 -44 24 -58 62 -58 23 0 37 6
44 20 6 11 7 20 1 20 -5 0 -12 -7 -15 -16 -3 -9 -15 -14 -28 -12 -47 7 -46
108 1 108 13 0 18 -5 15 -14 -7 -19 15 -31 29 -16 9 9 6 16 -12 31 -31 25 -47
24 -78 -7z"/>
<path d="M3394 216 c-3 -8 -3 -20 1 -27 4 -6 1 -15 -6 -20 -9 -6 -10 -9 -2 -9
18 0 44 31 41 48 -4 21 -27 27 -34 8z"/>
<path d="M10141 166 c-8 -10 -9 -16 -1 -21 8 -5 8 -11 -1 -21 -18 -22 6 -16
26 6 17 18 17 22 3 36 -13 13 -16 13 -27 0z"/>
</g>
</svg>
