<?xml version="1.0" standalone="no"?>
<!DOCTYPE svg PUBLIC "-//W3C//DTD SVG 20010904//EN"
 "http://www.w3.org/TR/2001/REC-SVG-20010904/DTD/svg10.dtd">
<svg version="1.0" xmlns="http://www.w3.org/2000/svg"
 width="313.996751pt" height="271.489682pt" viewBox="0 0 313.996751 271.489682"
 preserveAspectRatio="xMidYMid meet">
<metadata>
Created by potrace 1.16, written by Peter Selinger 2001-2019
</metadata>
<g transform="translate(-48.003249,315.489682) scale(0.100000,-0.100000)"
fill="#000000" stroke="none">
<path d="M503 3153 c-25 -5 -32 -23 -9 -23 9 0 15 -25 20 -95 6 -94 12 -125
25 -125 3 0 19 19 34 43 74 111 114 163 135 172 36 16 26 25 -28 25 -27 0 -50
-4 -50 -10 0 -5 7 -10 15 -10 8 0 15 -3 15 -6 0 -11 -84 -143 -91 -144 -9 0
-19 55 -19 106 0 32 4 44 15 44 8 0 15 5 15 10 0 6 -6 10 -14 10 -8 0 -20 2
-28 4 -7 2 -23 1 -35 -1z"/>
<path d="M795 3109 c-6 -17 -35 -141 -35 -151 0 -5 7 -8 16 -8 15 0 16 -37 10
-397 -3 -219 -9 -691 -12 -1049 l-6 -652 233 -6 c129 -3 533 -8 899 -11 366
-2 862 -8 1104 -12 414 -6 439 -7 444 -25 2 -10 7 -18 9 -18 18 0 163 44 163
50 0 3 -33 14 -72 24 -40 10 -79 20 -85 23 -8 3 -13 -4 -13 -17 l0 -21 -377 6
c-208 3 -805 10 -1327 15 -522 5 -951 12 -955 15 -9 10 3 1147 14 1310 2 22 4
201 4 398 1 350 1 359 21 364 25 7 25 7 0 95 -21 77 -27 88 -35 67z"/>
<path d="M3430 2827 c-64 -87 -83 -118 -76 -125 4 -3 25 -8 48 -11 46 -7 61
-25 27 -34 -36 -10 -10 -27 41 -27 51 0 77 17 41 27 -12 3 -21 11 -21 18 0 7
9 15 21 18 23 6 17 27 -7 27 -11 0 -14 18 -14 85 0 47 -3 85 -7 85 -5 0 -28
-28 -53 -63z m18 -64 c-3 -35 -6 -38 -36 -41 l-33 -3 18 28 c41 65 56 69 51
16z"/>
<path d="M3212 2850 c-23 -21 -29 -64 -13 -89 10 -15 -5 -52 -98 -240 -33 -68
-78 -162 -100 -210 -48 -105 -109 -234 -211 -446 -42 -88 -85 -179 -95 -202
-12 -27 -25 -43 -36 -43 -31 0 -49 -12 -64 -40 -12 -24 -23 -28 -92 -39 -43
-7 -94 -16 -113 -22 -19 -5 -73 -16 -120 -23 -71 -12 -321 -60 -540 -105 -61
-13 -279 -53 -443 -81 -106 -19 -108 -19 -140 0 -32 19 -34 23 -46 112 -12 89
-35 235 -67 418 -14 80 -23 137 -60 404 -15 108 -15 111 6 148 22 39 21 48
-13 86 -25 27 -57 28 -85 2 -33 -31 -29 -79 7 -110 31 -26 32 -31 72 -300 29
-192 60 -392 69 -440 5 -30 19 -112 30 -182 19 -118 19 -128 4 -155 -22 -37
-13 -77 22 -99 23 -16 28 -16 59 -1 20 10 37 26 40 40 5 20 15 26 53 31 66 9
126 20 287 50 77 14 176 33 220 41 44 8 114 21 155 30 103 21 260 51 420 80
74 14 153 29 175 35 58 14 99 12 132 -6 57 -32 118 25 93 87 -11 25 -3 46 89
234 56 114 101 208 101 210 0 2 33 73 74 157 40 84 79 169 86 188 7 19 49 107
94 195 63 124 86 161 102 163 27 4 50 29 59 64 5 21 1 33 -19 52 -30 31 -65
33 -94 6z"/>
<path d="M1147 2597 c-40 -11 -45 -30 -8 -35 21 -3 22 -7 19 -90 -3 -82 -4
-87 -25 -90 -51 -7 -19 -22 47 -22 66 0 98 15 48 22 -22 3 -23 7 -26 116 -1
61 -6 111 -10 111 -4 -1 -24 -6 -45 -12z"/>
<path d="M1222 1623 c-7 -3 -19 -17 -27 -33 -12 -23 -12 -30 -1 -45 8 -11 20
-16 30 -12 20 8 21 36 1 43 -12 5 -12 8 0 20 17 17 47 18 63 2 25 -25 13 -60
-37 -107 -55 -52 -86 -97 -74 -104 5 -3 42 -7 83 -9 l75 -3 3 43 c3 46 -7 55
-23 20 -7 -17 -20 -24 -47 -26 -52 -4 -50 19 5 57 57 39 68 54 69 92 2 52 -62
85 -120 62z"/>
<path d="M2788 1493 c-26 -31 -29 -41 -12 -58 20 -20 47 -2 39 26 -8 24 16 34
44 19 38 -20 16 -72 -33 -81 -28 -6 -25 -23 4 -27 45 -6 63 -47 34 -76 -18
-18 -42 -20 -64 -6 -13 8 -13 11 -1 19 17 11 7 41 -13 41 -20 0 -38 -34 -30
-55 9 -22 37 -35 79 -35 47 0 73 15 86 48 8 21 6 31 -11 55 -20 26 -20 30 -6
46 39 43 3 101 -62 101 -25 0 -44 -6 -54 -17z"/>
<path d="M658 780 c-36 -28 -54 -99 -39 -152 35 -116 145 -116 170 0 13 62 0
120 -34 150 -32 27 -64 28 -97 2z m83 -37 c10 -28 10 -106 0 -143 -5 -19 -13
-25 -36 -25 l-30 0 0 93 c0 69 4 95 14 101 20 13 41 2 52 -26z"/>
<path d="M3334 656 c-9 -51 0 -66 19 -30 32 62 74 53 58 -12 -6 -21 -16 -61
-23 -88 -8 -33 -19 -51 -35 -59 -35 -16 -17 -27 43 -27 56 0 65 5 39 24 -14
10 -13 21 6 104 12 55 27 96 35 99 20 8 44 -16 44 -43 0 -33 16 -30 23 4 3 15
9 35 12 45 7 16 -2 17 -103 17 l-111 0 -7 -34z"/>
</g>
</svg>
