<svg xmlns="http://www.w3.org/2000/svg" version="1.0" width="1315.604730pt" height="1254.681577pt" viewBox="0 0 1315.604730 1254.681577" preserveAspectRatio="xMidYMid meet">
<metadata>
Created by potrace 1.16, written by Peter Selinger 2001-2019
</metadata>
<g transform="translate(-5.395270,1261.763700) scale(0.100000,-0.100000)" fill="#000000" stroke="none">
<path d="M554 12612 c-6 -4 -14 -24 -18 -46 l-7 -38 -87 3 c-76 4 -87 2 -90 -13 -3 -16 6 -18 77 -18 65 0 81 -3 81 -15 0 -11 -11 -14 -47 -12 -37 1 -48 -1 -48 -13 0 -10 12 -16 38 -18 41 -4 42 -4 21 -75 -3 -10 1 -20 12 -24 21 -8 60 35 46 49 -6 6 -7 18 -5 29 4 15 14 19 50 19 l45 0 -31 -57 c-17 -31 -28 -59 -25 -62 11 -11 40 18 67 67 18 33 36 53 50 56 12 2 51 9 86 15 35 6 66 13 69 16 13 13 -10 15 -78 5 -40 -6 -75 -8 -77 -6 -3 2 0 14 7 25 8 15 21 21 48 21 20 0 43 4 51 9 21 14 -5 24 -44 17 l-33 -7 11 31 c8 22 8 33 0 41 -17 17 -39 -3 -47 -41 -5 -28 -9 -30 -50 -30 l-45 0 2 36 c2 37 -8 50 -29 36z m96 -106 c0 -26 -16 -36 -57 -36 -71 0 -40 36 35 39 12 1 22 -1 22 -3z"/>
<path d="M1171 12598 c-191 -10 -231 -17 -231 -42 0 -29 44 -67 85 -72 83 -11 86 -13 75 -34 -14 -27 -80 -70 -107 -70 -17 0 -22 7 -25 33 -2 24 -8 32 -23 32 -33 0 -28 -62 7 -88 24 -18 32 -19 68 -8 49 14 130 89 130 119 0 27 -13 34 -79 43 -30 4 -61 15 -70 23 -14 15 -14 16 3 16 41 0 360 31 368 36 9 6 1 25 -10 22 -4 0 -90 -5 -191 -10z"/>
<path d="M1713 12589 c-29 -29 17 -52 56 -28 19 13 71 5 71 -10 0 -10 -62 -35 -120 -49 -53 -13 -44 -35 20 -50 30 -7 80 -20 110 -29 51 -15 53 -16 28 -23 -14 -4 -54 -11 -87 -15 -57 -7 -93 -26 -72 -39 10 -7 146 10 204 25 55 14 50 41 -13 68 -27 12 -63 24 -80 28 -41 8 -46 19 -12 28 59 15 80 61 40 89 -26 19 -128 22 -145 5z"/>
<path d="M1352 12557 c-7 -8 -7 -18 -2 -27 7 -12 15 -12 43 -2 18 7 51 12 73 11 39 -1 39 -1 -23 -22 -109 -38 -105 -60 12 -82 96 -19 111 -30 59 -44 -58 -17 -152 -25 -134 -12 29 20 -1 23 -52 5 -70 -25 -79 -54 -16 -54 71 0 240 29 265 45 48 32 17 65 -82 88 l-60 14 55 18 c63 20 91 41 83 61 -7 19 -205 20 -221 1z"/>
<path d="M920 12313 c-119 -4 -470 -22 -655 -34 -176 -11 -227 -21 -207 -41 8 -8 41 -8 124 1 393 41 1092 64 1850 59 412 -2 530 0 539 10 10 10 -146 12 -781 10 -437 -1 -829 -3 -870 -5z"/>
<path d="M2054 12229 c-3 -6 -8 -265 -9 -577 -6 -955 -22 -2146 -29 -2163 -10 -23 9 -33 24 -14 10 11 14 199 21 788 4 424 11 871 14 992 13 415 12 974 -2 979 -7 3 -15 0 -19 -5z"/>
<path d="M8592 12188 c-7 -7 -12 -25 -12 -40 0 -36 27 -38 40 -3 11 29 29 31 76 9 21 -10 37 -26 41 -42 5 -21 -2 -33 -46 -73 -28 -27 -51 -55 -51 -63 0 -25 67 -39 159 -33 47 3 94 8 104 12 41 17 9 25 -100 25 l-118 0 48 43 c36 33 47 51 47 73 0 60 -56 104 -133 104 -23 0 -48 -5 -55 -12z"/>
<path d="M3563 12174 c-9 -4 -11 -62 -6 -242 6 -249 0 -333 -37 -479 -11 -40 -27 -89 -36 -108 -16 -35 -16 -35 14 -69 16 -19 36 -52 43 -73 14 -39 18 -228 10 -485 -3 -107 -1 -131 14 -156 18 -29 77 -66 89 -55 11 11 6 23 -8 23 -8 0 -25 15 -38 33 -22 31 -23 37 -18 182 8 241 5 416 -9 465 -7 25 -24 60 -38 78 l-25 34 20 66 c50 162 57 224 57 490 0 233 1 252 18 252 10 0 17 8 17 19 0 26 -34 38 -67 25z"/>
<path d="M5364 12136 c-38 -17 -50 -34 -36 -48 8 -8 18 -6 35 5 28 18 75 26 79 12 2 -5 -18 -21 -45 -35 -62 -33 -58 -51 14 -65 114 -23 115 -38 4 -58 -38 -7 -70 -18 -73 -25 -6 -18 83 -14 143 6 42 14 50 21 50 42 0 24 -32 48 -88 64 -16 5 -15 9 12 32 17 14 31 34 31 45 0 37 -67 50 -126 25z"/>
<path d="M1703 12119 c-28 -28 -15 -40 35 -34 33 5 53 2 66 -8 18 -13 15 -16 -43 -51 -89 -54 -102 -93 -39 -115 44 -16 170 -14 193 2 16 12 6 15 -76 21 -52 4 -98 11 -103 16 -4 4 5 16 20 26 97 59 104 65 104 89 0 15 -10 31 -26 41 -33 22 -115 30 -131 13z"/>
<path d="M7775 12108 c-3 -13 -12 -58 -21 -101 -18 -95 -59 -239 -78 -275 -28 -56 11 -72 46 -19 l21 33 41 -14 c55 -19 194 -20 226 -1 23 13 17 14 -85 20 -109 6 -145 13 -145 30 0 13 41 47 90 76 68 39 111 73 105 84 -14 21 -59 6 -135 -46 -44 -30 -80 -51 -80 -47 0 4 15 67 33 140 19 72 31 134 29 137 -14 13 -42 3 -47 -17z"/>
<path d="M3947 12094 c-4 -4 -7 -41 -7 -82 0 -41 -5 -125 -12 -186 -13 -131 -8 -163 28 -172 39 -10 103 44 206 176 l27 35 1 -51 c0 -69 22 -89 99 -89 57 0 121 20 121 37 0 5 -19 6 -47 2 -52 -9 -109 -7 -125 2 -19 12 -3 139 26 197 31 65 31 67 6 67 -12 0 -26 -12 -35 -30 -46 -89 -235 -310 -265 -310 -14 0 -12 73 6 194 18 126 16 209 -6 214 -9 1 -19 0 -23 -4z"/>
<path d="M2593 12083 c-20 -8 -15 -33 6 -33 27 0 97 -83 116 -138 42 -123 26 -248 -42 -323 -40 -44 -27 -52 22 -15 101 78 107 295 13 434 -17 24 -44 52 -61 63 -34 20 -35 20 -54 12z"/>
<path d="M6284 11980 c8 -102 30 -216 50 -263 12 -29 21 -37 40 -37 33 0 59 39 127 193 28 64 55 117 60 117 5 0 9 9 9 20 0 13 -7 20 -20 20 -15 0 -35 -33 -95 -157 -41 -86 -77 -154 -80 -152 -13 14 -38 147 -44 234 -6 96 -7 100 -30 103 l-24 4 7 -82z"/>
<path d="M8264 12039 c-9 -15 6 -286 17 -316 6 -16 17 -23 34 -23 27 0 43 21 108 140 19 36 49 82 66 104 34 42 39 66 16 66 -18 0 -86 -91 -140 -188 -22 -40 -43 -72 -47 -72 -5 0 -8 68 -8 150 0 142 -1 150 -19 150 -11 0 -23 -5 -27 -11z"/>
<path d="M375 11984 c-42 -100 -68 -272 -45 -299 31 -38 115 -10 214 70 56 46 57 46 50 18 -13 -50 -10 -68 12 -71 17 -2 22 2 22 21 0 31 38 149 68 209 18 36 21 48 11 56 -18 15 -31 4 -61 -56 -47 -93 -208 -232 -270 -232 -17 0 -18 6 -14 63 3 34 18 96 32 137 41 114 42 120 17 120 -14 0 -25 -11 -36 -36z"/>
<path d="M5922 12008 c-13 -6 -36 -30 -51 -54 -24 -34 -31 -60 -41 -145 -16 -140 -11 -304 10 -304 11 0 16 13 17 50 6 118 25 313 34 347 11 43 60 88 95 88 13 0 37 -12 54 -27 38 -34 44 -91 14 -124 -22 -26 -90 -58 -120 -59 -12 0 -27 -7 -34 -15 -22 -26 14 -29 83 -6 120 40 158 115 108 210 -24 45 -114 65 -169 39z"/>
<path d="M1536 11980 c-14 -17 -51 -76 -82 -131 -39 -69 -60 -97 -65 -87 -4 7 -15 54 -23 103 -17 95 -24 109 -52 103 -21 -4 -32 -37 -15 -47 6 -4 17 -39 25 -78 22 -103 44 -145 75 -141 20 2 36 24 86 116 33 63 75 129 92 147 17 18 29 36 26 39 -15 14 -43 4 -67 -24z"/>
<path d="M2508 11923 c-34 -38 -58 -75 -58 -90 0 -24 39 -13 55 15 16 27 16 26 11 -27 -7 -69 -26 -99 -68 -103 -21 -2 -33 -8 -33 -18 0 -12 21 -16 118 -18 112 -3 157 6 157 28 0 6 -35 10 -80 10 -74 0 -80 1 -71 18 14 25 35 177 28 196 -9 24 -30 20 -59 -11z"/>
<path d="M4724 11917 c-11 -30 7 -37 100 -37 179 0 217 28 46 34 -58 2 -113 7 -122 11 -12 5 -20 2 -24 -8z"/>
<path d="M792 11894 c-19 -13 -22 -24 -20 -57 2 -34 7 -42 23 -42 16 0 21 8 23 38 4 42 11 46 38 16 77 -86 184 -97 239 -25 43 56 28 63 -38 15 -56 -41 -92 -35 -158 26 -52 48 -72 54 -107 29z"/>
<path d="M5480 11863 c-19 -1 -72 -6 -117 -9 -59 -4 -83 -10 -83 -19 0 -21 13 -21 143 -8 67 6 155 12 195 12 74 1 96 14 41 25 -31 6 -112 6 -179 -1z"/>
<path d="M7062 11858 c5 -15 40 -26 87 -27 49 -1 161 19 161 30 0 5 -57 9 -126 9 -95 0 -125 -3 -122 -12z"/>
<path d="M4738 11779 c-6 -4 -7 -12 -4 -18 13 -21 241 -10 234 11 -4 10 -214 16 -230 7z"/>
<path d="M7170 11784 c-14 -3 -44 -7 -67 -10 -28 -3 -43 -10 -43 -20 0 -17 10 -17 120 -4 112 14 140 20 140 31 0 9 -98 10 -150 3z"/>
<path d="M6553 11768 c-17 -22 -24 -51 -33 -133 -10 -89 -2 -150 20 -150 11 0 15 19 16 80 1 44 9 106 17 137 12 46 12 59 2 68 -9 7 -15 7 -22 -2z"/>
<path d="M5338 11748 c-16 -5 -28 -17 -28 -25 0 -12 7 -14 33 -9 112 24 177 14 162 -27 -8 -18 -75 -62 -143 -92 -28 -12 -42 -24 -40 -34 6 -32 318 -23 318 9 0 4 -55 5 -122 3 l-123 -4 59 33 c140 80 123 159 -33 157 -31 0 -68 -5 -83 -11z"/>
<path d="M6101 11726 c-6 -7 -12 -45 -14 -82 -2 -54 1 -69 12 -69 16 0 46 127 37 151 -7 18 -20 18 -35 0z"/>
<path d="M8471 11690 c-30 -22 -71 -47 -92 -57 -22 -9 -39 -23 -39 -30 0 -27 31 -25 77 5 26 17 48 30 50 29 7 -8 -26 -91 -40 -99 -20 -11 -22 -34 -4 -40 6 -3 52 0 100 5 101 11 114 30 23 35 l-57 3 6 32 c4 18 20 56 36 86 16 30 29 58 29 63 0 19 -38 5 -89 -32z"/>
<path d="M4510 11670 c-19 -16 -41 -30 -47 -30 -7 0 -13 -9 -13 -20 0 -15 7 -20 26 -20 21 0 25 -4 19 -17 -16 -42 -18 -83 -3 -83 15 0 100 178 92 192 -10 16 -40 7 -74 -22z"/>
<path d="M10734 11479 c-17 -19 -17 -23 -3 -47 8 -15 23 -28 33 -30 23 -5 56 26 56 53 0 46 -52 61 -86 24z"/>
<path d="M8607 11202 c-29 -6 -16 -37 15 -37 30 -1 68 -30 68 -52 0 -8 -11 -29 -25 -47 -28 -37 -31 -58 -12 -75 16 -13 172 -20 183 -8 14 14 -19 27 -66 27 -25 0 -55 3 -67 6 l-23 6 25 30 c31 37 32 79 3 113 -24 27 -70 44 -101 37z"/>
<path d="M564 11186 c-36 -16 -72 -58 -81 -95 -3 -14 -14 -42 -25 -61 -64 -122 65 -209 251 -169 40 8 55 7 80 -5 32 -17 121 -22 121 -7 0 11 -25 21 -51 21 -11 0 -29 5 -41 11 -20 11 -20 11 2 34 12 13 26 42 31 65 18 81 -49 177 -145 205 -61 18 -101 18 -142 1z m156 -41 c75 -39 113 -116 86 -178 -18 -43 -31 -46 -57 -13 -26 33 -73 42 -104 22 -26 -17 -32 -40 -14 -51 5 -4 18 0 28 9 23 21 34 20 56 -4 22 -24 18 -29 -32 -41 -71 -17 -171 9 -193 50 -15 29 -12 45 16 86 14 21 24 46 21 55 -6 24 9 48 46 71 36 23 96 20 147 -6z"/>
<path d="M10732 11168 c-29 -29 -5 -68 40 -68 36 0 45 22 24 55 -18 27 -45 32 -64 13z"/>
<path d="M5333 11130 c-14 -6 -23 -18 -23 -30 0 -27 29 -38 45 -17 20 28 125 21 125 -7 0 -14 -41 -36 -65 -36 -8 0 -15 -8 -15 -18 0 -13 13 -22 50 -31 28 -7 50 -17 50 -21 0 -5 -34 -16 -75 -25 -53 -12 -75 -21 -75 -32 0 -13 9 -14 48 -8 139 21 192 66 118 102 -34 16 -35 17 -15 31 32 22 22 63 -21 84 -37 19 -110 23 -147 8z"/>
<path d="M7805 11093 c-3 -26 -22 -115 -40 -198 -20 -88 -31 -153 -25 -159 15 -15 38 2 45 35 l7 32 134 -6 c188 -8 178 20 -11 32 l-90 6 98 64 c93 61 114 85 82 97 -17 7 -106 -33 -154 -70 -19 -14 -36 -24 -38 -22 -2 2 5 41 16 87 29 128 30 143 5 147 -19 3 -23 -3 -29 -45z"/>
<path d="M3984 11074 c-4 -15 -7 -100 -8 -189 -1 -147 1 -165 18 -184 11 -11 23 -21 27 -21 26 0 76 68 123 165 l54 110 -5 -66 c-10 -119 25 -205 79 -197 28 4 31 33 3 33 -25 0 -44 51 -44 120 0 44 14 138 35 228 5 23 3 27 -15 27 -17 0 -35 -28 -97 -151 -91 -183 -124 -235 -135 -217 -13 20 -10 184 5 268 7 41 11 81 9 88 -9 23 -42 13 -49 -14z"/>
<path d="M8497 11083 c-8 -10 -43 -78 -78 -150 -34 -73 -66 -133 -71 -133 -5 0 -6 50 -2 121 l7 121 -24 -4 c-24 -3 -24 -3 -24 -135 0 -109 3 -135 16 -149 28 -27 56 -9 88 59 128 270 135 287 111 287 -4 0 -14 -8 -23 -17z"/>
<path d="M6484 11063 c-29 -31 -86 -146 -105 -210 -7 -24 -15 -43 -19 -43 -11 0 -22 161 -14 209 7 41 6 43 -17 39 -24 -3 -24 -5 -23 -108 2 -168 32 -268 68 -229 7 8 28 59 45 114 37 117 84 207 105 199 20 -8 29 12 16 36 -14 27 -26 25 -56 -7z"/>
<path d="M5963 10976 c-50 -42 -71 -101 -98 -276 -18 -113 -23 -166 -15 -174 19 -19 28 8 50 139 11 71 26 133 33 137 7 4 21 8 33 8 36 0 88 22 117 48 84 78 -32 192 -120 118z m88 -16 c24 -13 25 -61 2 -82 -22 -19 -100 -44 -110 -35 -12 13 18 86 44 106 29 24 37 25 64 11z"/>
<path d="M4940 10890 c-93 -4 -115 -8 -115 -20 0 -10 12 -16 40 -18 55 -3 206 21 206 33 1 12 6 12 -131 5z"/>
<path d="M7048 10883 c-36 -6 -53 -26 -34 -42 10 -8 21 -9 42 0 16 6 80 13 143 17 78 5 116 11 119 20 3 9 -25 12 -120 11 -67 -1 -135 -4 -150 -6z"/>
<path d="M5295 10860 c-3 -5 -4 -13 -2 -17 8 -13 350 -10 354 3 7 21 -339 35 -352 14z"/>
<path d="M7349 10855 c-3 -2 -56 -9 -119 -15 -157 -16 -184 -22 -188 -44 -4 -17 0 -18 34 -12 22 4 80 14 129 22 131 21 158 28 163 42 3 11 -10 17 -19 7z"/>
<path d="M4953 10836 c-100 -11 -145 -28 -110 -42 22 -8 228 28 228 41 1 13 -3 13 -118 1z"/>
<path d="M4400 10761 c0 -14 8 -22 28 -27 15 -3 37 -10 50 -15 30 -12 19 -33 -48 -89 -54 -45 -61 -63 -30 -80 25 -13 86 1 153 38 77 41 57 58 -28 22 -76 -33 -85 -25 -32 26 38 36 47 52 45 72 -3 29 -45 56 -106 68 -28 6 -32 4 -32 -15z"/>
<path d="M6516 10751 c-11 -17 3 -31 29 -31 21 0 55 -23 55 -36 0 -3 -21 -27 -46 -54 -39 -42 -45 -52 -34 -65 15 -18 51 -19 137 -4 98 17 75 46 -26 33 l-56 -7 33 37 c38 44 41 74 8 105 -26 25 -90 39 -100 22z"/>
<path d="M8476 10752 c-11 -19 13 -35 43 -29 16 4 33 3 35 -2 6 -9 -63 -77 -107 -106 -60 -39 -13 -79 66 -55 42 12 97 61 97 86 0 21 -11 17 -45 -15 -16 -16 -43 -33 -60 -37 -27 -7 -24 -2 25 37 92 76 92 129 -1 129 -26 0 -50 -4 -53 -8z"/>
<path d="M5390 10743 c-26 -5 -42 -22 -34 -35 3 -4 32 -5 64 -1 50 5 61 3 66 -11 9 -24 -10 -42 -98 -93 -108 -62 -104 -73 26 -73 99 0 167 12 152 27 -4 4 -46 6 -94 5 l-87 -3 45 26 c114 67 137 127 59 154 -32 11 -54 12 -99 4z"/>
<path d="M6045 10730 c-12 -19 7 -32 37 -26 21 4 30 1 35 -10 9 -24 -14 -58 -68 -99 -62 -47 -64 -65 -5 -65 53 0 123 23 153 52 32 30 18 40 -25 18 -20 -10 -50 -22 -67 -26 l-29 -7 36 31 c50 45 65 84 44 117 -13 20 -25 25 -61 25 -24 0 -47 -4 -50 -10z"/>
<path d="M212 10680 c-30 -13 -23 -36 9 -31 56 9 563 5 914 -8 431 -15 755 -8 755 18 0 4 -138 5 -307 3 -170 -2 -414 1 -543 8 -331 17 -800 22 -828 10z"/>
<path d="M9672 10361 c-61 -21 -96 -51 -124 -106 -19 -35 -19 -45 -9 -105 9 -51 8 -86 -3 -165 -10 -67 -12 -103 -5 -110 20 -19 36 24 49 131 13 105 13 106 38 101 14 -3 45 1 68 8 118 35 190 166 133 239 -25 32 -69 34 -147 7z m123 -41 c16 -49 -34 -132 -98 -164 -26 -13 -31 -12 -48 5 -10 10 -26 19 -34 19 -12 0 -15 10 -12 45 5 53 19 72 72 96 56 26 112 25 120 -1z"/>
<path d="M1480 10341 c-47 -15 -87 -40 -118 -75 -37 -43 -61 -111 -44 -128 16 -16 42 8 42 37 0 12 13 40 29 62 69 96 225 109 261 22 18 -43 4 -67 -79 -136 -81 -67 -110 -121 -95 -175 15 -52 31 -44 36 18 5 57 5 58 91 138 96 90 108 115 81 171 -29 61 -121 91 -204 66z"/>
<path d="M646 10158 c-8 -28 -36 -276 -36 -314 0 -45 22 -74 57 -74 26 0 68 33 104 83 l28 39 7 -42 c12 -75 62 -100 125 -63 34 20 39 38 7 28 -65 -20 -75 -18 -87 15 -13 40 -6 118 21 223 16 61 18 81 9 90 -18 18 -36 -11 -56 -91 -26 -106 -116 -242 -159 -242 -22 0 -21 68 4 206 25 140 25 154 0 154 -11 0 -22 -6 -24 -12z"/>
<path d="M327 10148 c-2 -7 -21 -67 -43 -132 -21 -66 -39 -125 -39 -130 0 -6 -4 -16 -8 -23 -18 -29 52 -32 180 -8 124 24 136 41 81 115 -18 23 -56 74 -84 114 -49 69 -80 92 -87 64z m146 -214 c18 -23 18 -23 -20 -33 -21 -5 -50 -12 -65 -15 -16 -4 -40 -9 -55 -12 -22 -4 -25 -3 -16 7 8 8 9 19 2 37 -7 19 -4 44 12 98 l22 73 51 -66 c28 -36 59 -76 69 -89z"/>
<path d="M9286 10029 c-74 -70 -95 -109 -58 -109 10 0 33 16 52 35 19 19 38 35 42 35 9 0 11 -1023 2 -1133 l-7 -77 -42 0 c-52 0 -77 -22 -53 -46 12 -13 20 -14 36 -5 11 6 30 11 41 11 19 0 21 -6 21 -72 0 -40 5 -174 12 -297 9 -178 9 -227 -1 -244 -10 -15 -10 -21 -1 -27 7 -5 11 -35 9 -89 -2 -80 7 -111 30 -97 7 5 11 43 11 98 l0 91 103 -7 c56 -3 157 -9 224 -12 121 -7 122 -7 125 -32 4 -37 28 -41 28 -4 l0 30 168 8 c181 8 249 9 1295 6 384 -1 708 -4 721 -8 22 -5 21 -7 -17 -45 -30 -30 -37 -43 -29 -51 17 -17 127 72 127 103 0 35 -114 98 -178 99 -54 0 -47 -29 12 -51 41 -15 13 -16 -515 -21 -308 -3 -593 -2 -634 1 l-75 6 -8 64 c-5 40 -4 76 3 94 5 17 10 34 10 38 0 12 -26 11 -64 -1 -17 -5 -83 -19 -146 -31 -109 -20 -251 -58 -438 -116 -71 -22 -82 -28 -77 -44 6 -17 0 -19 -69 -19 l-76 0 0 38 c0 21 -3 42 -7 45 -13 13 -33 -16 -33 -49 0 -40 17 -38 -205 -23 -88 5 -179 10 -202 10 -30 1 -43 5 -43 15 0 8 4 14 10 14 5 0 22 19 36 43 15 23 38 54 52 69 14 15 22 31 19 35 -12 12 -56 -19 -84 -59 -23 -34 -28 -37 -34 -21 -10 28 -31 449 -23 488 6 36 11 39 79 50 59 9 75 15 75 27 0 7 -24 9 -77 4 l-76 -6 6 212 c4 116 7 317 7 445 0 129 3 232 8 229 12 -7 286 25 297 36 7 7 -41 8 -147 5 l-158 -5 0 164 c0 90 3 164 8 164 4 -1 16 -20 28 -43 14 -28 28 -43 44 -45 16 -3 21 0 17 10 -3 7 -17 40 -31 73 -36 87 -54 86 -150 -6z m1397 -1791 c3 -29 9 -66 12 -83 l6 -30 -328 -1 -328 -2 55 19 c153 54 498 145 561 148 12 1 18 -12 22 -51z"/>
<path d="M4132 10040 c-18 -4 -42 -16 -53 -25 -17 -16 -45 -87 -54 -140 -30 -179 -30 -215 -1 -215 17 0 17 -2 41 160 20 134 35 175 65 185 52 17 130 -24 116 -60 -5 -14 -72 -49 -128 -68 -22 -8 -23 -30 -3 -47 12 -10 16 -9 21 3 3 9 28 24 56 34 56 20 108 62 108 86 0 49 -102 101 -168 87z"/>
<path d="M5469 9885 c-30 -52 -63 -111 -75 -130 l-20 -36 -28 51 c-16 29 -38 82 -50 118 -17 54 -25 68 -44 70 -28 4 -40 -23 -19 -46 8 -9 18 -28 22 -42 14 -45 72 -155 93 -173 35 -32 54 -17 109 83 28 52 63 112 77 133 30 44 33 67 8 67 -12 0 -35 -30 -73 -95z"/>
<path d="M1070 9932 c-20 -16 -21 -19 -6 -31 14 -11 21 -12 40 -1 14 7 36 9 54 5 38 -8 50 9 20 29 -30 21 -81 20 -108 -2z"/>
<path d="M8963 9839 c-88 -16 -137 -65 -132 -132 1 -18 -3 -63 -10 -102 -15 -80 -12 -130 7 -130 9 0 15 16 18 45 2 25 12 76 22 113 l17 69 53 17 c73 25 119 70 106 104 -7 20 -31 25 -81 16z m26 -45 c-14 -17 -62 -44 -79 -44 -8 0 -8 6 0 21 12 21 42 37 74 38 16 1 16 -1 5 -15z"/>
<path d="M5566 9799 c-3 -17 -6 -58 -6 -90 0 -45 3 -59 15 -59 15 0 18 8 35 104 11 64 8 76 -19 76 -13 0 -21 -10 -25 -31z"/>
<path d="M11962 9808 c-6 -7 -17 -48 -26 -90 -33 -161 -12 -172 39 -19 20 56 33 107 29 112 -8 13 -30 11 -42 -3z"/>
<path d="M4262 9788 c-35 -44 -56 -188 -28 -188 15 0 20 10 31 70 4 19 17 52 28 73 18 33 19 39 7 47 -20 13 -26 12 -38 -2z"/>
<path d="M10608 9751 c-21 -17 -43 -21 -133 -23 -74 -2 -110 -7 -112 -15 -3 -9 22 -13 92 -15 l97 -3 -128 -154 c-71 -84 -133 -161 -139 -170 -17 -27 -176 -251 -238 -336 -114 -154 -159 -205 -183 -205 -18 0 -29 -14 -53 -63 -44 -91 -41 -110 11 -60 l28 27 0 -57 c0 -54 12 -79 30 -61 5 5 11 36 13 69 3 33 8 68 11 78 3 9 8 23 10 31 3 9 13 12 26 9 12 -3 49 9 93 30 99 48 286 110 480 157 153 38 211 60 158 60 -76 0 -486 -113 -631 -174 -46 -20 -86 -36 -87 -36 -2 0 18 28 43 62 43 59 52 65 152 110 114 51 363 136 473 161 l67 14 6 -69 c5 -46 11 -68 19 -65 8 2 13 43 15 126 2 113 1 122 -15 119 -13 -2 -19 -14 -21 -44 l-3 -40 -99 -22 c-111 -26 -309 -89 -418 -134 -40 -17 -75 -29 -77 -27 -2 2 20 37 48 77 49 70 56 75 140 113 49 22 175 66 280 97 105 32 192 63 195 70 2 8 -6 10 -30 5 -53 -10 -363 -101 -419 -124 -29 -11 -54 -18 -56 -15 -6 6 42 72 76 105 26 25 130 67 300 122 l103 34 -6 65 c-4 36 -2 81 4 100 12 41 5 67 -18 74 -60 17 -79 16 -104 -3z m36 -66 c10 -8 23 -12 27 -9 5 3 9 1 9 -5 0 -5 -5 -13 -11 -16 -14 -9 -119 -23 -119 -16 0 10 54 61 64 61 6 0 20 -7 30 -15z m45 -128 c1 -15 -5 -29 -11 -31 -7 -3 -73 -23 -147 -46 -73 -23 -135 -39 -138 -36 -3 3 21 36 52 75 56 68 59 70 121 80 35 7 74 15 86 20 25 9 35 -7 37 -62z"/>
<path d="M1493 9734 c-7 -20 21 -49 40 -41 22 8 10 57 -14 57 -11 0 -22 -7 -26 -16z"/>
<path d="M9870 9705 c0 -13 21 -15 133 -15 134 0 177 5 177 21 0 5 -70 9 -155 9 -131 0 -155 -2 -155 -15z"/>
<path d="M4696 9621 c-4 -6 -4 -15 -1 -21 9 -14 252 -13 260 1 4 6 5 12 4 14 -2 1 -61 6 -130 10 -89 5 -128 4 -133 -4z"/>
<path d="M11754 9593 c-19 -21 -56 -70 -82 -110 -28 -44 -55 -73 -67 -75 -14 -2 -20 -11 -20 -29 0 -26 -51 -109 -67 -109 -4 0 -6 11 -2 25 5 22 3 25 -19 25 -28 0 -40 -21 -31 -56 17 -67 78 -47 139 45 l40 60 73 1 72 0 0 -34 c0 -50 9 -66 36 -66 26 0 30 10 13 27 -17 17 -2 81 21 93 25 13 26 34 3 28 -16 -4 -18 3 -14 79 1 46 0 95 -3 108 -10 39 -51 33 -92 -12z m56 -72 c0 -32 -3 -73 -6 -90 -6 -31 -7 -31 -70 -31 -35 0 -64 4 -64 8 0 22 115 172 132 172 4 0 8 -26 8 -59z"/>
<path d="M5465 9604 c-60 -8 -124 -12 -142 -10 -40 6 -64 -17 -35 -33 15 -8 65 -5 184 9 89 10 198 22 241 25 42 4 77 11 77 16 0 13 -198 9 -325 -7z"/>
<path d="M8987 9614 c-15 -15 -6 -34 17 -34 28 0 51 -24 43 -44 -3 -8 -34 -33 -67 -56 -55 -37 -60 -44 -47 -57 12 -13 23 -13 73 -3 85 17 184 51 184 63 0 6 -15 7 -37 3 -21 -3 -55 -9 -77 -12 l-38 -7 26 26 c30 31 34 76 9 99 -21 18 -76 32 -86 22z"/>
<path d="M4245 9564 c-55 -8 -154 -13 -220 -12 -107 3 -120 1 -123 -14 -3 -16 8 -18 130 -19 90 0 124 -3 104 -9 -70 -22 -96 -71 -96 -189 0 -104 11 -141 40 -141 17 0 20 7 21 53 0 28 3 68 7 87 7 34 8 35 61 37 73 3 145 39 149 73 4 33 -31 66 -88 83 l-44 13 138 19 c75 10 139 22 142 27 7 12 -106 8 -221 -8z m13 -100 c12 -8 22 -21 22 -29 0 -15 -63 -40 -123 -50 -36 -6 -37 -5 -31 19 4 17 1 27 -11 34 -16 8 -15 11 6 26 30 20 107 21 137 0z"/>
<path d="M6510 9528 c0 -18 75 -53 155 -73 33 -8 170 -28 305 -45 533 -67 770 -109 879 -156 29 -13 57 -21 63 -18 12 8 86 -43 99 -69 22 -40 -38 -71 -191 -97 -71 -12 -110 -32 -110 -55 0 -18 0 -18 36 -1 16 8 68 21 116 30 109 19 174 46 190 80 26 58 -25 102 -256 222 -90 47 -169 95 -197 121 -50 47 -69 53 -69 24 0 -27 69 -83 169 -136 47 -26 75 -44 61 -41 -92 21 -322 60 -540 90 -140 20 -320 45 -400 57 -94 13 -165 29 -205 45 -82 35 -105 40 -105 22z"/>
<path d="M4692 9510 c6 -30 294 -21 313 10 2 3 -68 6 -156 6 -136 -1 -159 -3 -157 -16z"/>
<path d="M5538 9473 c-19 -27 -44 -63 -55 -82 l-21 -35 -10 40 c-6 21 -12 48 -14 58 -4 27 -34 44 -49 29 -9 -9 -5 -34 18 -105 24 -76 33 -94 51 -96 17 -3 26 8 50 60 16 35 45 84 65 111 42 53 45 67 18 67 -12 0 -33 -19 -53 -47z"/>
<path d="M11230 9357 c-284 -177 -457 -302 -577 -420 -61 -60 -62 -60 -87 -43 -25 16 -26 16 -26 -3 0 -15 -16 -22 -87 -40 -145 -36 -543 -173 -543 -187 0 -25 18 -23 106 12 87 34 421 145 477 158 26 6 27 4 27 -29 0 -19 1 -35 3 -35 1 0 28 13 59 29 50 25 55 31 42 42 -14 12 -14 14 3 20 10 4 28 8 40 8 20 1 21 -2 16 -53 -7 -65 2 -106 22 -106 12 0 15 14 15 64 0 36 4 76 9 89 19 48 -14 92 -37 51 -5 -9 -17 -14 -27 -13 -38 8 265 232 556 411 104 65 185 121 187 131 2 9 0 17 -5 17 -4 -1 -82 -47 -173 -103z"/>
<path d="M244 9416 c-4 -9 -4 -20 0 -23 4 -4 86 -6 184 -5 97 2 290 -4 427 -12 138 -9 417 -16 620 -17 204 0 407 -4 453 -8 81 -6 106 -1 80 16 -7 4 -227 11 -488 14 -261 4 -581 14 -710 22 -129 9 -308 19 -397 23 -147 6 -163 5 -169 -10z"/>
<path d="M6690 9401 c0 -13 89 -49 162 -65 35 -8 243 -45 463 -81 220 -36 440 -75 490 -86 102 -22 134 -24 118 -8 -23 23 -148 48 -717 144 -180 30 -361 66 -402 80 -77 26 -114 31 -114 16z"/>
<path d="M5615 9321 c-17 -3 -30 -13 -30 -21 0 -11 13 -15 52 -15 28 0 54 -3 57 -6 13 -13 -8 -39 -66 -79 -53 -38 -58 -44 -45 -57 13 -13 27 -14 104 -3 99 14 133 24 133 41 0 8 -21 9 -72 4 l-73 -7 38 41 c41 46 41 45 27 71 -8 16 -72 43 -90 39 -3 -1 -18 -4 -35 -8z"/>
<path d="M4255 9313 c-22 -6 -36 -23 -29 -35 3 -5 27 -6 53 -2 36 5 50 2 60 -10 19 -22 7 -48 -50 -105 -35 -34 -49 -56 -45 -67 7 -18 27 -15 134 18 78 24 81 40 6 32 l-56 -7 31 43 c46 64 39 108 -20 129 -33 11 -50 12 -84 4z"/>
<path d="M8925 8976 c-45 -20 -93 -79 -110 -139 -21 -73 -45 -240 -45 -314 0 -56 2 -63 20 -63 11 0 20 3 20 8 0 17 41 268 46 285 3 9 9 15 14 12 14 -9 151 58 183 88 19 19 27 36 27 61 0 65 -78 96 -155 62z m96 -26 c30 -17 24 -55 -13 -83 -30 -23 -131 -77 -142 -77 -3 0 0 14 6 30 5 17 8 37 5 44 -8 20 30 66 67 82 38 16 52 17 77 4z"/>
<path d="M10533 8650 c-67 -10 -168 -30 -225 -44 -170 -41 -397 -129 -390 -151 5 -16 31 -9 147 38 146 61 256 92 454 127 90 17 166 30 168 30 2 0 1 5 -2 10 -7 12 -2 13 -152 -10z"/>
<path d="M9024 8634 c-20 -30 -54 -147 -54 -186 0 -20 5 -28 18 -28 13 0 20 14 29 62 7 34 23 83 36 109 18 34 22 50 14 58 -16 16 -25 14 -43 -15z"/>
<path d="M9710 8610 c0 -5 -20 -32 -45 -60 -58 -66 -100 -128 -91 -137 12 -13 39 12 103 96 63 83 76 111 48 111 -8 0 -15 -4 -15 -10z"/>
<path d="M10680 8523 c0 -53 10 -83 26 -83 10 0 14 16 14 60 0 53 -2 60 -20 60 -16 0 -20 -7 -20 -37z"/>
<path d="M10460 8481 c-171 -37 -500 -160 -500 -188 0 -21 24 -14 136 35 123 55 277 105 404 133 58 12 109 26 115 31 15 13 -65 8 -155 -11z"/>
<path d="M9847 8484 c-11 -12 -8 -142 4 -149 18 -12 23 3 23 77 1 66 -8 90 -27 72z"/>
<path d="M12654 8318 c-26 -40 -66 -108 -89 -151 l-42 -78 -21 48 c-11 26 -30 83 -42 125 -23 77 -35 93 -60 78 -10 -6 -6 -26 15 -91 54 -162 89 -224 121 -212 8 3 38 51 65 106 28 56 70 130 95 165 24 35 42 68 39 73 -14 22 -37 4 -81 -63z"/>
<path d="M10807 7935 c-4 -8 -9 -49 -13 -92 -9 -109 -18 -116 -38 -36 -10 37 -20 76 -23 86 -2 10 -14 17 -29 17 -32 0 -31 -11 19 -155 35 -99 46 -121 64 -123 27 -4 30 6 43 152 6 65 13 129 16 142 5 19 2 24 -14 24 -11 0 -22 -7 -25 -15z"/>
<path d="M9724 7866 c-5 -13 42 -144 88 -243 21 -44 46 -55 65 -30 6 6 20 41 32 77 29 90 66 143 93 134 16 -5 19 -2 16 13 -5 27 -46 28 -75 1 -25 -23 -83 -131 -83 -155 0 -47 -51 60 -88 182 -9 33 -39 46 -48 21z"/>
<path d="M10012 7703 c-4 -10 -7 -56 -7 -103 0 -90 18 -140 50 -140 17 0 20 26 4 36 -7 4 -10 42 -8 113 4 94 2 106 -14 109 -9 2 -20 -4 -25 -15z"/>
<path d="M10891 7667 c-14 -18 -4 -27 28 -27 57 0 59 -13 16 -95 -49 -96 -45 -109 43 -113 58 -3 122 16 122 36 0 4 -34 6 -75 4 -41 -2 -75 0 -75 4 0 5 14 32 30 59 44 74 40 114 -13 134 -38 15 -62 14 -76 -2z"/>
<path d="M2164 7543 c-19 -46 -54 -205 -54 -250 0 -40 17 -44 25 -5 16 75 49 192 66 231 10 24 16 47 13 52 -12 20 -35 7 -50 -28z"/>
<path d="M4570 7563 c-25 -9 -61 -46 -80 -83 -25 -49 -75 -213 -90 -292 -10 -56 -16 -68 -31 -68 -22 0 -25 -25 -5 -37 10 -6 15 -38 18 -118 3 -78 9 -119 21 -142 19 -36 48 -49 74 -34 16 9 15 11 -10 20 -33 13 -45 42 -53 129 -16 181 88 547 167 588 40 20 30 52 -11 37z"/>
<path d="M890 7546 c0 -7 14 -19 31 -26 45 -19 123 -99 153 -158 52 -103 50 -229 -6 -335 -30 -56 -145 -184 -193 -215 -18 -12 -17 -12 9 -7 68 14 171 118 232 235 27 50 29 64 29 160 0 93 -3 111 -27 163 -29 61 -115 160 -160 183 -34 18 -68 18 -68 0z"/>
<path d="M3097 7495 c-93 -33 -122 -98 -121 -267 1 -105 -1 -117 -18 -121 -10 -3 -18 -13 -18 -22 0 -16 37 -17 590 -14 387 3 589 7 587 14 -2 6 -70 12 -163 15 -185 6 -165 -12 -168 155 -1 61 -5 116 -10 123 -21 34 36 92 90 92 36 0 54 -21 54 -63 0 -26 -43 -70 -80 -82 -20 -6 -29 -35 -11 -35 24 0 69 24 99 53 53 51 42 126 -24 153 -46 19 -100 5 -139 -37 l-30 -31 2 -131 c1 -72 4 -146 8 -164 l6 -33 -269 0 c-148 0 -311 3 -361 7 l-93 6 7 81 c4 45 14 105 21 134 17 66 17 72 -1 72 -23 0 -7 27 28 49 30 18 59 25 100 22 26 -2 67 -46 67 -74 0 -40 -59 -83 -133 -95 -27 -5 -42 -13 -42 -22 0 -36 140 4 190 54 47 47 25 125 -45 161 -35 18 -73 18 -123 0z"/>
<path d="M5725 7470 c-3 -6 8 -22 25 -36 84 -71 143 -258 120 -382 -15 -81 -64 -180 -112 -224 -47 -43 -31 -52 22 -13 105 78 158 274 116 430 -38 143 -139 276 -171 225z"/>
<path d="M3515 7446 c-9 -13 -18 -47 -22 -75 -5 -47 -9 -53 -34 -58 -39 -8 -38 -33 1 -33 25 0 30 -4 30 -24 0 -35 10 -56 27 -56 11 0 13 9 8 44 l-7 44 56 7 c69 9 71 31 2 28 -45 -1 -46 0 -46 28 0 16 7 46 15 65 22 54 0 76 -30 30z"/>
<path d="M1885 7404 c-26 -28 -93 -154 -120 -226 -15 -42 -19 -46 -36 -35 -14 9 -21 9 -31 -1 -11 -11 -9 -17 10 -32 21 -17 22 -22 12 -65 -6 -25 -8 -51 -5 -56 7 -11 45 -12 46 -1 7 91 11 102 45 102 14 0 40 6 59 14 18 8 36 12 39 8 3 -3 6 -27 6 -52 0 -77 10 -110 32 -110 17 0 19 4 13 28 -5 15 -9 117 -10 228 -2 237 -7 255 -60 198z m16 -151 c-1 -74 -6 -101 -17 -109 -17 -14 -83 -28 -91 -20 -3 3 5 31 17 63 30 75 82 175 88 169 2 -3 4 -49 3 -103z"/>
<path d="M720 7347 c-35 -9 -46 -17 -48 -34 -4 -28 21 -31 64 -8 38 19 108 19 124 0 29 -34 -24 -103 -185 -242 -58 -49 -59 -52 -42 -70 15 -15 37 -18 154 -21 171 -4 199 0 218 37 13 27 11 41 -6 41 -4 0 -11 -9 -14 -20 -6 -19 -15 -20 -163 -20 l-157 1 40 32 c70 56 176 161 191 189 51 98 -32 152 -176 115z"/>
<path d="M4774 7338 c-37 -41 -67 -90 -89 -145 l-22 -54 -12 45 c-6 25 -11 61 -11 80 0 30 -4 36 -20 36 -11 0 -23 -6 -26 -14 -9 -23 16 -126 42 -178 35 -70 74 -64 74 11 0 40 68 172 92 179 14 3 18 12 16 30 -4 34 -20 37 -44 10z"/>
<path d="M3944 7299 c-9 -14 5 -27 36 -31 43 -5 36 -35 -14 -65 -83 -51 -46 -74 103 -65 115 6 119 26 7 30 l-78 3 26 24 c33 31 35 78 4 99 -26 18 -74 21 -84 5z"/>
<path d="M3315 7278 c-15 -44 -33 -133 -29 -140 14 -23 32 -1 51 62 20 69 20 71 2 81 -14 7 -20 6 -24 -3z"/>
<path d="M5463 7274 c-3 -8 -3 -50 1 -92 15 -187 48 -225 99 -117 16 33 40 79 54 103 23 40 26 42 38 25 15 -19 13 -21 29 31 3 8 -2 22 -9 33 -21 27 -42 9 -101 -85 -28 -45 -54 -78 -58 -75 -3 4 -6 48 -6 100 0 87 -1 93 -20 93 -11 0 -23 -7 -27 -16z"/>
<path d="M2302 7208 c-7 -9 -7 -19 -2 -28 12 -20 252 -22 272 -2 10 9 -2 12 -57 13 -73 0 -159 11 -186 23 -9 4 -21 1 -27 -6z"/>
<path d="M6294 7176 c-13 -11 -16 -18 -8 -26 17 -17 264 12 264 31 0 16 -233 11 -256 -5z"/>
<path d="M5223 7133 c-97 -4 -103 -5 -103 -25 0 -20 3 -21 78 -14 92 7 134 18 140 34 2 7 0 11 -5 10 -4 -1 -54 -4 -110 -5z"/>
<path d="M4825 7107 c-28 -21 -9 -40 31 -33 26 5 35 3 43 -12 12 -23 -6 -44 -52 -61 -19 -7 -27 -17 -25 -29 7 -34 188 -25 188 10 0 5 -23 6 -52 2 l-52 -7 22 28 c29 37 28 61 -4 90 -30 28 -70 32 -99 12z"/>
<path d="M2317 7074 c-20 -20 4 -24 121 -22 78 2 126 7 125 13 -3 11 -235 20 -246 9z"/>
<path d="M6293 7064 c-12 -32 44 -42 145 -26 60 10 55 27 -9 29 -30 1 -71 5 -92 8 -29 4 -39 2 -44 -11z"/>
<path d="M5658 7043 c-6 -16 -11 -57 -12 -93 -1 -54 2 -65 17 -68 13 -3 17 4 17 31 0 19 8 58 17 87 14 44 15 53 2 61 -22 14 -29 11 -41 -18z"/>
<path d="M3374 6985 c-10 -24 6 -36 40 -29 37 6 145 -11 160 -26 16 -16 -19 -45 -105 -90 -43 -23 -79 -45 -79 -50 0 -24 47 -32 164 -28 67 3 129 9 139 13 40 17 10 25 -100 25 l-118 0 54 30 c73 41 91 58 91 90 0 37 -16 48 -96 65 -90 19 -143 19 -150 0z"/>
<path d="M7997 6490 c-64 -50 -125 -90 -135 -90 -25 0 -56 -24 -50 -40 2 -7 -38 -51 -91 -100 -53 -48 -152 -140 -220 -204 l-124 -117 -28 59 c-31 64 -42 76 -76 86 -16 5 -31 -1 -57 -25 -44 -38 -71 -119 -87 -258 l-12 -96 -121 -115 c-223 -211 -228 -217 -224 -242 4 -30 30 -29 45 2 7 14 68 81 137 150 109 108 130 124 158 125 30 0 33 3 36 32 3 27 31 57 180 195 97 90 186 170 197 180 l21 16 -4 -116 c-4 -122 5 -168 34 -179 27 -10 48 27 68 118 18 83 61 189 78 189 4 0 8 -4 8 -10 0 -5 7 -10 15 -10 16 0 19 17 9 44 -8 21 -47 20 -67 -2 -25 -27 -64 -119 -84 -197 l-18 -70 -3 60 c-2 33 2 98 8 145 l12 85 76 73 c42 41 104 99 139 129 58 51 66 55 99 50 68 -11 91 -52 100 -179 6 -91 -10 -251 -51 -483 -13 -77 -26 -170 -27 -207 l-3 -68 -49 0 c-45 0 -126 -32 -126 -50 0 -16 14 -17 47 -3 21 8 61 14 92 13 31 -1 62 -2 69 -1 8 1 12 25 12 84 0 48 15 169 36 292 40 235 54 452 35 522 -15 55 -46 91 -94 107 l-38 13 105 81 c109 85 126 102 104 102 -7 0 -66 -41 -131 -90z m-714 -458 c9 -10 23 -35 32 -55 20 -49 9 -68 -55 -96 -50 -22 -59 -41 -17 -41 19 0 17 -5 -18 -40 -63 -65 -66 -54 -19 85 19 58 20 72 9 80 -14 12 -7 33 23 68 19 21 25 21 45 -1z"/>
<path d="M4155 6269 c-167 -165 -225 -216 -225 -200 0 14 -6 21 -20 21 -19 0 -20 -5 -33 -87 -1 -6 -75 -86 -164 -177 -157 -159 -163 -163 -163 -132 0 66 13 126 26 126 8 0 14 5 14 10 0 6 18 10 40 10 54 0 104 22 126 55 14 22 15 32 5 65 -16 53 -52 80 -108 80 -24 0 -57 -7 -72 -15 -62 -31 -98 -169 -86 -329 l6 -89 -58 -59 -57 -58 -78 0 c-104 0 -102 -5 -87 213 7 108 9 233 4 337 -4 91 -8 192 -9 225 l-1 60 39 5 c62 8 58 30 -6 30 -80 0 -81 -2 -74 -116 16 -255 18 -397 7 -559 -16 -230 -16 -230 95 -230 l80 0 -52 -62 c-62 -73 -86 -116 -82 -146 5 -33 31 -27 39 9 11 57 104 165 434 507 l181 188 17 -78 c20 -90 48 -143 77 -143 28 0 47 35 65 120 23 110 44 180 55 180 14 0 13 57 -1 66 -22 13 -40 -25 -75 -161 -20 -77 -39 -144 -44 -149 -11 -11 -37 78 -45 152 l-6 57 240 240 c133 132 241 243 241 247 0 23 -40 -12 -245 -213z m-458 -281 c31 -29 30 -73 -1 -93 -13 -9 -46 -18 -73 -22 l-50 -5 2 52 c1 42 7 57 24 72 31 24 70 23 98 -4z"/>
<path d="M9235 6307 c-12 -29 -55 -252 -55 -286 0 -6 7 -11 15 -11 16 0 26 32 50 164 9 49 23 102 31 117 19 38 18 49 -7 49 -13 0 -25 -11 -34 -33z"/>
<path d="M12605 6327 c-28 -22 -4 -29 96 -31 69 -1 92 -5 106 -18 19 -20 17 -31 -26 -150 -29 -80 -50 -398 -33 -500 7 -39 11 -73 8 -75 -2 -2 -32 -7 -67 -11 -47 -5 -64 -11 -64 -22 0 -12 13 -14 69 -12 38 1 77 7 88 13 18 10 19 16 12 62 -12 70 -9 343 5 440 6 42 22 104 36 137 31 75 32 110 2 139 -39 35 -195 54 -232 28z"/>
<path d="M2772 6307 c-28 -34 -47 -266 -23 -290 14 -14 17 -2 30 120 6 56 16 113 22 127 19 41 -4 74 -29 43z"/>
<path d="M9600 6318 c0 -2 -2 -183 -4 -403 -2 -220 -5 -411 -7 -425 l-4 -25 90 3 c106 4 189 18 204 36 9 10 -15 12 -121 8 l-131 -5 6 48 c4 26 7 200 7 386 l0 339 51 0 c43 0 50 3 47 18 -3 14 -16 18 -71 20 -37 2 -67 2 -67 0z"/>
<path d="M11670 6231 c-27 -7 -38 -37 -21 -54 7 -7 16 -6 29 6 23 21 44 21 81 3 73 -38 66 -78 -24 -135 -67 -43 -74 -51 -52 -68 13 -11 257 -37 265 -28 19 19 -80 45 -172 45 l-51 0 52 35 c77 52 91 89 52 139 -36 45 -108 72 -159 57z"/>
<path d="M10153 6214 c-12 -3 -27 -12 -34 -21 -11 -13 -10 -17 6 -29 16 -12 21 -12 35 1 33 30 130 11 130 -25 0 -14 -60 -60 -114 -87 -100 -50 -83 -68 74 -76 66 -4 125 -8 131 -9 19 -5 21 19 2 27 -10 4 -60 10 -111 13 l-93 5 53 29 c60 32 98 70 98 98 0 10 -10 30 -22 44 -18 20 -35 27 -78 30 -30 2 -65 2 -77 0z"/>
<path d="M6363 6153 c-5 -10 -8 -79 -8 -153 0 -105 4 -147 18 -187 30 -86 77 -101 111 -35 21 41 110 342 103 348 -17 18 -37 -14 -66 -108 -54 -175 -76 -233 -86 -233 -31 0 -50 180 -35 330 4 41 2 50 -13 53 -10 2 -20 -4 -24 -15z"/>
<path d="M12135 6137 c-20 -31 -55 -170 -55 -219 0 -52 22 -92 59 -107 37 -16 60 -9 113 35 38 32 42 34 51 17 17 -32 40 -43 88 -43 49 0 99 16 99 32 0 4 -24 5 -53 2 -96 -11 -119 25 -77 117 24 53 25 75 5 83 -22 8 -42 -18 -60 -79 -13 -47 -23 -61 -69 -95 -29 -22 -60 -40 -69 -40 -22 0 -47 39 -47 73 0 57 32 168 57 197 13 16 22 34 18 40 -11 18 -44 11 -60 -13z"/>
<path d="M5120 6128 c-4 -104 3 -335 11 -349 5 -11 18 -19 29 -19 30 0 53 54 116 272 3 10 11 15 20 11 18 -7 19 26 0 52 -23 32 -41 10 -70 -91 -16 -55 -37 -119 -47 -144 l-18 -45 0 163 c-1 155 -2 162 -21 162 -11 0 -20 -6 -20 -12z"/>
<path d="M10611 6043 c-32 -108 -51 -186 -51 -208 1 -56 51 -63 111 -16 l39 32 0 -31 c0 -35 30 -70 60 -70 27 0 80 27 80 41 0 7 -7 8 -17 4 -62 -26 -83 -12 -83 53 0 29 10 67 30 109 32 67 32 83 0 83 -18 0 -60 -70 -60 -102 0 -17 -108 -123 -116 -115 -9 8 16 115 46 199 15 43 25 80 22 83 -3 3 -13 5 -23 5 -14 0 -23 -17 -38 -67z"/>
<path d="M4743 6060 c-18 -11 -33 -21 -34 -22 -1 -2 -5 -75 -10 -163 -4 -88 -11 -181 -15 -207 -6 -44 -5 -48 14 -48 23 0 27 11 42 130 5 47 17 112 24 145 15 63 14 75 -10 75 -15 0 -19 27 -6 47 12 20 65 35 99 28 40 -7 76 -50 67 -79 -9 -31 -34 -56 -76 -77 -21 -11 -38 -24 -38 -29 0 -30 109 13 134 53 38 58 23 122 -34 152 -41 21 -118 19 -157 -5z"/>
<path d="M5950 6042 c-38 -38 -51 -87 -57 -212 -6 -123 4 -174 34 -178 12 -2 23 4 27 15 13 33 65 357 59 367 -10 15 48 -3 79 -25 16 -12 35 -33 43 -49 17 -33 16 -35 -72 -79 -59 -29 -73 -43 -55 -55 4 -2 45 15 92 37 104 52 113 72 54 137 -47 52 -82 70 -134 70 -32 0 -48 -6 -70 -28z m4 -152 c-19 -141 -24 -153 -19 -45 3 77 20 163 30 153 2 -2 -3 -51 -11 -108z"/>
<path d="M2164 5995 c-8 -19 13 -38 34 -30 8 3 49 5 93 5 75 0 100 10 62 25 -10 3 -55 9 -100 12 -73 5 -83 4 -89 -12z"/>
<path d="M4517 5963 c-4 -3 -7 -26 -7 -49 l0 -43 -42 -3 c-35 -2 -43 -7 -43 -23 0 -17 6 -20 43 -17 l42 2 0 -53 c0 -51 12 -77 35 -77 7 0 10 22 7 65 l-4 65 36 0 c40 0 76 15 76 30 0 5 -24 8 -52 7 l-53 -2 3 53 c3 46 1 52 -16 52 -10 0 -22 -3 -25 -7z"/>
<path d="M13033 5964 c-12 -3 -24 -11 -27 -19 -7 -19 20 -39 41 -29 10 4 52 10 93 13 64 5 72 8 55 18 -23 13 -128 24 -162 17z"/>
<path d="M9065 5949 c-12 -18 6 -27 70 -34 72 -7 245 3 245 15 0 8 -40 11 -242 24 -37 3 -70 1 -73 -5z"/>
<path d="M11263 5951 c-59 -7 -68 -13 -59 -37 4 -11 13 -14 29 -10 12 4 56 11 97 17 87 11 100 15 100 29 0 11 -80 11 -167 1z"/>
<path d="M8403 5936 c-94 -11 -127 -26 -106 -47 9 -9 33 -7 95 4 46 9 113 19 151 23 72 7 86 18 36 28 -38 7 -57 6 -176 -8z"/>
<path d="M2632 5927 c-24 -29 7 -35 142 -26 71 5 131 11 134 14 15 14 -21 20 -137 23 -102 3 -129 1 -139 -11z"/>
<path d="M5613 5903 c-12 -30 9 -36 113 -30 95 5 144 17 144 35 0 13 -252 8 -257 -5z"/>
<path d="M10241 5891 c-86 -10 -136 -20 -139 -28 -7 -24 28 -25 170 -3 172 26 178 28 158 40 -18 12 -22 12 -189 -9z"/>
<path d="M12541 5891 c-14 -9 -51 -148 -51 -193 0 -45 28 -34 40 15 19 73 31 111 42 134 11 22 5 53 -9 53 -4 0 -14 -4 -22 -9z"/>
<path d="M2170 5870 c0 -22 2 -22 90 -18 80 4 111 11 99 22 -2 2 -46 7 -96 11 -92 7 -93 7 -93 -15z"/>
<path d="M6791 5876 c-9 -11 -9 -16 1 -23 17 -11 168 -4 193 10 19 10 19 10 0 18 -37 14 -181 10 -194 -5z"/>
<path d="M6593 5848 c-12 -17 -33 -133 -33 -186 0 -47 16 -64 29 -30 15 40 43 206 36 217 -8 15 -20 14 -32 -1z"/>
<path d="M11665 5840 c-16 -25 10 -31 123 -25 151 8 202 14 202 26 0 13 -317 12 -325 -1z"/>
<path d="M4158 5829 c-33 -19 -21 -39 22 -39 29 0 42 -5 50 -19 15 -30 14 -31 -52 -93 -53 -49 -60 -59 -48 -72 19 -23 102 -21 152 5 51 26 38 44 -17 24 -22 -8 -51 -14 -64 -15 -22 0 -19 5 27 49 37 35 52 58 52 76 0 39 -18 65 -55 81 -40 16 -44 17 -67 3z"/>
<path d="M5285 5830 c-10 -16 4 -30 28 -30 31 0 67 -27 67 -51 0 -11 -19 -38 -42 -60 -41 -38 -42 -40 -24 -54 42 -31 221 -6 188 27 -7 7 -17 6 -32 -2 -13 -7 -37 -9 -62 -5 -37 7 -38 8 -20 21 30 21 47 70 34 99 -21 47 -118 85 -137 55z"/>
<path d="M6139 5838 c-1 -2 -3 -32 -5 -68 -3 -36 -6 -76 -7 -90 -1 -15 4 -26 14 -28 12 -2 19 11 28 55 16 75 12 127 -11 131 -10 2 -18 2 -19 0z"/>
<path d="M7746 5803 c-14 -44 -44 -208 -40 -215 9 -14 33 -8 38 10 24 85 47 196 42 208 -8 20 -34 18 -40 -3z"/>
<path d="M4908 5799 c-25 -14 -23 -49 1 -49 11 0 23 5 26 10 10 16 35 12 35 -5 0 -8 -25 -31 -56 -51 -30 -19 -53 -41 -51 -47 5 -16 103 -21 138 -7 33 14 65 47 55 57 -4 4 -20 -1 -35 -10 -47 -27 -68 -22 -32 9 35 29 40 63 13 87 -21 19 -68 22 -94 6z"/>
<path d="M10895 5800 c-10 -16 4 -30 31 -30 36 0 30 -18 -22 -66 -62 -57 -56 -74 26 -74 46 0 73 6 113 27 34 18 46 28 35 31 -9 2 -25 -1 -36 -7 -10 -5 -43 -13 -73 -17 l-54 -7 38 41 c56 63 47 112 -19 112 -18 0 -36 -4 -39 -10z"/>
<path d="M13022 5802 c-27 -9 -10 -38 20 -33 3 0 43 1 87 2 59 1 81 5 81 14 0 21 -140 33 -188 17z"/>
<path d="M2673 5790 c-24 -10 -30 -25 -14 -34 4 -3 33 -1 62 5 65 13 109 1 109 -31 0 -11 -25 -46 -55 -77 -30 -32 -55 -60 -55 -63 0 -17 29 -30 66 -30 43 0 150 30 193 54 41 23 8 26 -58 6 -35 -11 -81 -20 -103 -20 l-41 0 47 50 c51 54 57 84 27 121 -16 20 -29 24 -87 26 -38 2 -79 -2 -91 -7z"/>
<path d="M7315 5787 c-24 -18 -10 -39 23 -35 21 2 27 -1 27 -16 0 -18 -25 -40 -110 -100 -17 -11 -18 -16 -6 -30 27 -32 148 -15 198 29 34 29 23 45 -16 22 -15 -9 -48 -19 -72 -23 l-44 -7 40 28 c72 50 84 89 39 124 -31 24 -53 26 -79 8z"/>
<path d="M8343 5788 c-18 -31 48 -42 162 -28 116 13 145 20 145 30 0 11 -300 8 -307 -2z"/>
<path d="M9108 5784 c-5 -4 -8 -13 -8 -21 0 -10 19 -13 73 -13 85 0 102 -8 93 -43 -4 -17 -28 -39 -71 -66 -36 -23 -63 -46 -60 -51 10 -17 180 -12 225 6 46 18 55 40 13 30 -16 -4 -57 -10 -93 -12 l-65 -6 37 26 c64 45 78 102 32 132 -27 18 -163 32 -176 18z"/>
<path d="M10205 5777 c-32 -24 -9 -35 65 -29 38 2 70 2 70 -1 0 -4 -14 -14 -31 -22 -43 -23 -34 -45 24 -60 49 -12 76 -30 65 -41 -4 -3 -34 -8 -68 -11 -60 -6 -62 -5 -55 16 9 29 -10 27 -41 -4 -41 -41 -28 -50 69 -48 106 4 137 14 137 47 0 25 -35 60 -70 71 -18 6 -18 7 0 25 24 24 16 48 -17 61 -36 14 -127 11 -148 -4z"/>
<path d="M11771 5746 c-18 -21 3 -29 55 -21 51 7 59 -6 14 -25 -16 -7 -34 -18 -41 -26 -13 -15 3 -24 84 -44 26 -7 47 -16 47 -20 0 -10 -119 -25 -127 -16 -3 3 0 12 6 20 9 11 9 16 0 22 -14 8 -62 -42 -56 -60 3 -7 36 -11 99 -10 74 0 102 4 123 18 25 17 26 18 10 36 -10 11 -34 25 -54 31 -53 17 -55 19 -32 40 43 41 15 69 -67 69 -30 0 -54 -5 -61 -14z"/>
<path d="M3712 5738 c-19 -19 -16 -162 3 -178 21 -18 30 -6 27 38 -2 20 1 58 6 84 11 58 -6 86 -36 56z"/>
<path d="M2958 4939 c-7 -11 -43 -43 -80 -70 -68 -49 -83 -74 -52 -86 10 -4 24 4 39 23 13 16 25 27 28 24 3 -3 -2 -35 -10 -73 -8 -37 -12 -74 -9 -83 11 -28 30 -9 38 36 15 85 39 149 72 193 19 25 32 48 29 51 -13 13 -44 5 -55 -15z"/>
<path d="M3657 4902 c-14 -21 -89 -302 -90 -335 -4 -84 56 -75 154 23 l70 70 -7 -49 c-5 -42 -3 -52 16 -71 19 -19 29 -21 66 -16 43 6 99 30 139 59 38 29 5 30 -55 3 -36 -16 -73 -26 -93 -24 -30 3 -32 5 -31 40 1 21 20 76 44 126 37 79 45 120 21 110 -5 -2 -45 -49 -90 -106 -97 -120 -194 -206 -199 -176 -3 20 59 242 84 302 7 19 11 38 8 43 -6 11 -31 12 -37 1z"/>
<path d="M3297 4753 c-4 -3 -7 -15 -7 -26 0 -10 -9 -26 -20 -35 -26 -23 -77 -199 -61 -215 17 -17 35 7 74 106 19 48 38 88 41 88 4 0 34 -25 68 -55 l61 -56 -34 -15 c-19 -8 -60 -20 -91 -27 -53 -11 -72 -28 -49 -42 10 -7 143 29 182 50 43 22 36 47 -27 101 -31 26 -67 67 -81 91 -23 40 -41 51 -56 35z"/>
<path d="M2194 4689 c-14 -23 28 -39 102 -39 86 0 164 10 164 21 0 4 -28 10 -62 13 -186 16 -197 16 -204 5z"/>
<path d="M2920 4619 c-139 -10 -160 -15 -160 -34 0 -19 17 -19 161 0 142 19 169 24 169 36 0 10 -5 10 -170 -2z"/>
<path d="M2222 4531 c-9 -25 22 -32 113 -26 80 5 118 16 104 29 -2 2 -51 6 -108 8 -80 2 -105 0 -109 -11z"/>
<path d="M2848 4519 c-10 -5 -18 -17 -18 -26 0 -12 7 -14 38 -8 89 16 90 16 59 3 -38 -17 -31 -42 13 -46 19 -1 46 -5 59 -8 21 -5 22 -7 9 -20 -8 -8 -31 -17 -51 -21 -32 -5 -36 -3 -31 11 8 21 -14 21 -44 0 -26 -18 -29 -39 -5 -48 27 -11 118 4 153 25 43 27 40 69 -7 85 -25 7 -30 13 -22 21 7 7 9 19 6 27 -5 12 -22 16 -74 16 -37 0 -76 -5 -85 -11z"/>
<path d="M4704 3675 c-29 -45 -43 -98 -44 -167 0 -54 3 -68 15 -68 10 0 15 10 15 33 0 44 26 142 46 172 16 25 13 55 -5 55 -6 0 -18 -11 -27 -25z"/>
<path d="M1065 3630 c-9 -15 3 -30 25 -30 27 0 68 -54 84 -113 48 -175 14 -347 -94 -469 -41 -48 -50 -68 -27 -68 30 0 117 117 148 199 30 79 37 149 28 253 -10 111 -43 188 -91 218 -36 22 -63 26 -73 10z"/>
<path d="M5746 3424 c-25 -53 -44 -100 -40 -105 8 -14 67 -11 114 6 59 21 61 20 44 -27 -17 -48 -12 -77 10 -59 8 6 24 35 36 64 12 29 31 62 42 74 12 12 18 29 15 37 -9 24 -46 19 -58 -7 -8 -17 -27 -27 -76 -40 -36 -9 -68 -15 -70 -13 -2 2 12 33 33 70 20 36 33 73 30 81 -13 34 -36 10 -80 -81z"/>
<path d="M4413 3438 c-27 -35 -68 -88 -90 -118 -39 -54 -42 -56 -82 -52 -53 5 -91 -4 -91 -23 0 -11 13 -15 53 -15 l52 -1 -49 -44 c-47 -42 -53 -65 -18 -65 9 0 40 24 67 54 47 51 53 54 107 59 l58 6 -6 -72 c-6 -60 -4 -75 10 -86 9 -8 19 -11 22 -8 4 3 7 39 9 79 1 40 12 121 24 181 37 179 17 211 -66 105z m30 -85 c-15 -81 -16 -83 -48 -89 -71 -13 -71 -5 -4 89 34 48 63 86 64 85 2 -2 -4 -40 -12 -85z"/>
<path d="M3115 3458 c-12 -39 -37 -172 -38 -210 -4 -107 79 -103 176 7 l26 30 1 -57 c0 -73 26 -107 88 -115 35 -5 49 -1 85 23 31 21 38 29 25 32 -10 2 -28 -4 -40 -12 -31 -22 -60 -20 -92 5 -21 17 -26 29 -26 68 0 26 7 73 15 104 20 78 20 107 -2 107 -12 0 -28 -21 -46 -61 -31 -66 -122 -169 -150 -169 -24 0 -22 66 3 159 12 41 19 80 16 88 -7 16 -35 17 -41 1z"/>
<path d="M1596 3419 c-21 -16 -27 -29 -25 -53 2 -17 -5 -46 -15 -65 -10 -18 -20 -57 -23 -87 -5 -51 -4 -55 29 -88 41 -41 107 -62 158 -49 32 7 38 5 66 -24 53 -55 74 -38 28 22 -21 27 -23 35 -11 42 25 14 65 82 72 122 19 116 -68 201 -206 201 -32 0 -55 -7 -73 -21z m188 -43 c18 -14 39 -38 46 -55 18 -45 5 -115 -29 -153 l-28 -31 -29 41 c-29 42 -64 56 -64 26 0 -9 11 -29 25 -46 34 -40 32 -48 -15 -48 -107 0 -153 93 -88 176 15 19 18 28 9 37 -18 18 -13 55 12 72 32 24 118 14 161 -19z"/>
<path d="M940 3415 c-7 -8 -10 -22 -6 -30 6 -17 51 -21 61 -5 10 15 45 12 51 -5 8 -19 -10 -41 -58 -71 -53 -34 -50 -57 11 -83 28 -11 53 -26 56 -31 9 -15 -12 -38 -58 -61 l-38 -20 3 22 c5 33 -20 35 -32 3 -15 -38 -6 -54 30 -54 57 0 150 65 150 105 0 18 -42 53 -78 66 l-32 11 39 29 c63 45 76 84 41 119 -25 25 -120 29 -140 5z"/>
<path d="M3817 3422 c-3 -4 -9 -32 -13 -60 -8 -62 -21 -72 -93 -72 -27 0 -53 -5 -56 -10 -10 -16 15 -41 34 -36 9 3 34 7 56 11 l40 6 0 -39 c0 -46 22 -92 43 -92 10 0 12 6 7 18 -15 36 -17 53 -11 86 6 32 11 36 61 51 77 22 83 40 10 30 l-58 -7 8 39 c12 61 11 77 -7 81 -9 2 -19 -1 -21 -6z"/>
<path d="M2819 3381 c-6 -17 -29 -68 -50 -113 -43 -87 -45 -129 -9 -148 28 -15 80 -12 86 5 5 11 23 15 76 15 69 0 108 11 108 31 0 6 -33 43 -74 82 -56 55 -75 81 -82 112 -12 51 -40 59 -55 16z m36 -81 c3 -11 31 -41 61 -67 38 -33 50 -49 42 -55 -16 -10 -178 -11 -178 -1 0 15 55 143 62 143 4 0 10 -9 13 -20z"/>
<path d="M6685 3341 c-19 -38 -65 -197 -65 -227 0 -13 9 -28 20 -34 30 -16 65 6 158 101 45 46 82 81 82 79 0 -3 -7 -27 -15 -54 -34 -111 -12 -142 99 -140 72 2 146 25 146 45 0 7 -9 9 -22 5 -38 -12 -145 -19 -172 -12 -33 8 -33 24 -1 123 49 154 30 154 -126 0 -92 -92 -124 -118 -127 -104 -4 20 55 204 69 213 11 6 -7 34 -22 34 -5 0 -15 -13 -24 -29z"/>
<path d="M6334 3246 c-61 -129 -65 -156 -29 -180 26 -17 65 -22 65 -7 0 5 30 12 68 15 85 9 102 14 102 31 0 7 -18 51 -40 96 -22 46 -40 88 -40 95 0 18 -40 64 -56 64 -10 0 -36 -44 -70 -114z m120 -43 l44 -90 -79 -7 c-44 -4 -84 -4 -89 -1 -5 3 -1 26 9 53 39 96 62 145 66 140 3 -3 25 -45 49 -95z"/>
<path d="M2173 3307 c-15 -24 32 -37 129 -37 54 0 101 0 105 -1 4 0 9 4 11 9 2 6 -12 15 -30 20 -46 14 -208 21 -215 9z"/>
<path d="M5003 3293 c-15 -3 -23 -12 -23 -25 0 -19 4 -20 43 -13 23 5 97 9 165 11 68 1 126 5 129 8 21 21 -227 36 -314 19z"/>
<path d="M2212 3204 c3 -17 12 -19 88 -16 46 2 86 5 89 8 12 12 -19 19 -96 23 -78 3 -85 2 -81 -15z"/>
<path d="M5150 3203 c-117 -4 -130 -8 -107 -30 14 -15 29 -15 144 -4 165 16 203 22 203 32 0 9 -24 9 -240 2z"/>
<path d="M5632 3181 c-3 -7 0 -16 6 -20 12 -7 421 5 429 13 4 3 4 8 2 10 -2 3 -100 6 -218 8 -172 2 -215 0 -219 -11z"/>
<path d="M5765 3101 c-12 -20 4 -28 70 -35 95 -10 101 -13 73 -43 l-23 -25 29 -23 29 -23 -49 -10 c-27 -5 -60 -9 -74 -8 -17 1 -26 -5 -28 -18 -4 -18 1 -19 61 -13 123 11 176 55 110 91 -16 8 -23 15 -16 16 20 0 36 39 23 55 -19 22 -194 53 -205 36z"/>
<path d="M4525 2589 c-143 -4 -378 -14 -523 -23 -700 -42 -804 -42 -1582 -3 -54 3 -46 -25 10 -36 25 -5 311 -9 635 -10 522 -2 630 1 935 22 268 18 470 24 907 28 540 5 631 3 662 -17 24 -14 30 -115 14 -250 -7 -69 -16 -226 -19 -350 -3 -124 -10 -234 -16 -246 -6 -14 -6 -40 1 -79 14 -75 13 -160 -2 -205 l-12 -35 -195 -3 c-107 -1 -289 -9 -405 -17 -419 -29 -677 -28 -1281 5 -131 7 -257 7 -400 1 -398 -20 -843 -35 -849 -30 -3 3 -8 270 -12 592 -5 463 -9 587 -19 587 -24 0 -27 -118 -15 -644 7 -290 9 -532 4 -536 -4 -5 -21 -10 -38 -12 -38 -4 -42 -34 -5 -31 14 1 142 6 285 12 143 7 319 16 390 21 274 21 524 23 801 6 338 -20 847 -21 1094 -1 102 8 285 17 408 21 216 7 223 7 220 -12 -2 -14 4 -20 25 -22 19 -2 27 1 27 13 0 11 6 14 23 10 26 -6 52 8 43 24 -4 6 -19 11 -33 11 -20 0 -24 3 -17 18 4 9 9 166 11 347 2 237 8 371 20 475 10 80 18 185 18 233 0 104 -10 118 -96 136 -56 12 -596 12 -1014 0z"/>
<path d="M4792 2285 c-28 -12 -33 -19 -30 -42 2 -20 9 -29 26 -31 24 -4 29 7 10 26 -8 8 -5 14 16 22 81 31 215 -22 232 -92 4 -21 0 -33 -20 -52 -14 -15 -32 -26 -40 -26 -9 0 -41 25 -72 56 -41 42 -59 53 -67 45 -16 -16 7 -50 58 -91 l40 -32 -77 4 c-116 5 -151 40 -123 124 4 14 2 23 -8 27 -24 9 -39 -9 -44 -55 -11 -92 52 -131 202 -127 59 2 98 -1 113 -10 30 -16 41 -6 19 16 -15 15 -14 18 13 34 51 31 56 103 12 153 -45 51 -196 81 -260 51z"/>
<path d="M4308 2268 c-41 -15 -37 -42 5 -34 74 14 127 18 127 9 0 -13 -28 -37 -68 -57 -27 -14 -31 -20 -21 -32 6 -8 23 -14 38 -14 36 0 116 -41 116 -60 0 -18 -84 -49 -134 -50 -28 0 -31 2 -22 14 16 19 -3 30 -29 16 -29 -16 -26 -48 6 -56 64 -16 205 20 225 57 15 29 -3 52 -65 85 l-54 28 24 23 c26 24 31 52 12 71 -14 14 -121 15 -160 0z"/>
<path d="M3132 2177 c-15 -18 -72 -251 -74 -303 -1 -48 6 -64 31 -64 24 0 61 37 131 132 l58 77 -5 -82 c-6 -98 5 -119 59 -119 41 0 98 29 98 50 0 10 -6 12 -17 7 -59 -24 -72 -28 -88 -21 -16 6 -17 14 -10 84 13 129 12 156 -7 160 -12 2 -33 -18 -65 -64 -58 -81 -144 -187 -148 -182 -7 6 24 150 50 234 24 79 25 104 6 104 -5 0 -13 -6 -19 -13z"/>
<path d="M2739 2080 c-9 -5 -20 -22 -24 -37 -3 -16 -21 -62 -40 -103 -43 -97 -47 -124 -18 -128 18 -3 25 8 53 80 17 46 36 95 42 110 l10 28 28 -38 c31 -42 75 -84 105 -100 23 -12 30 -9 -100 -48 -96 -28 -115 -38 -99 -53 5 -6 33 -2 69 9 33 10 93 28 133 40 87 25 94 44 26 79 -52 28 -87 67 -117 128 -21 43 -37 51 -68 33z"/>
<path d="M5754 1995 c-4 -8 -3 -22 0 -31 6 -15 18 -16 99 -10 50 4 103 8 117 9 15 1 25 8 25 17 0 13 -16 14 -101 12 -66 -2 -104 0 -108 7 -10 16 -26 14 -32 -4z"/>
<path d="M3755 1989 c-27 -4 -96 -8 -153 -8 -93 -1 -103 -3 -100 -18 3 -16 15 -18 108 -16 109 3 211 21 211 38 1 13 -8 13 -66 4z"/>
<path d="M4615 1960 c-182 -5 -200 -7 -203 -23 -4 -20 -53 -20 511 2 209 8 231 26 32 26 -77 1 -230 -2 -340 -5z"/>
<path d="M3780 1924 c-47 -7 -108 -13 -137 -13 -55 -1 -72 -11 -48 -31 10 -9 32 -9 92 0 107 15 213 40 213 51 0 11 -10 10 -120 -7z"/>
<path d="M4686 1856 c-4 -20 -20 -61 -36 -92 -17 -31 -30 -60 -30 -64 0 -20 44 -20 111 0 39 12 73 19 76 16 3 -2 -6 -45 -18 -95 -22 -84 -22 -92 -7 -107 20 -21 37 -11 31 18 -4 23 36 166 64 226 11 24 13 36 5 44 -15 15 -43 2 -49 -22 -3 -11 -17 -23 -32 -26 -14 -3 -42 -10 -61 -15 -59 -15 -61 -13 -35 44 33 72 36 101 9 105 -18 3 -23 -3 -28 -32z"/>
<path d="M5735 1869 c-5 -7 -1 -18 10 -26 26 -18 249 -19 243 0 -3 8 -37 14 -99 18 -52 3 -106 9 -120 13 -18 5 -29 3 -34 -5z"/>
<path d="M4542 858 c-7 -7 -12 -18 -12 -24 0 -21 17 -25 34 -9 25 26 99 -5 81 -34 -3 -6 -34 -27 -68 -47 -79 -46 -107 -72 -107 -100 0 -43 53 -45 170 -4 52 18 86 25 89 19 2 -6 13 -22 25 -36 51 -59 167 -30 234 57 60 78 29 146 -72 157 -56 7 -99 -10 -117 -44 -33 -61 -73 -91 -154 -117 -81 -26 -141 -34 -130 -17 3 6 39 28 79 50 85 47 99 61 94 93 -7 47 -114 88 -146 56z m423 -68 c24 -20 18 -56 -16 -95 -69 -79 -169 -90 -169 -19 0 12 7 27 15 34 9 7 14 20 13 29 -2 9 8 29 22 45 22 25 30 28 72 24 26 -3 54 -11 63 -18z"/>
<path d="M4080 835 c-10 -12 -9 -16 4 -21 9 -3 25 -4 36 -1 23 6 24 3 8 -22 -15 -25 4 -51 37 -51 13 0 33 -9 46 -20 l24 -20 -28 -25 c-16 -14 -40 -25 -56 -25 -16 0 -31 -6 -34 -14 -14 -37 45 -35 107 4 42 27 47 34 44 63 -2 26 -10 35 -44 52 -37 17 -41 23 -37 47 4 19 0 29 -15 37 -29 16 -77 14 -92 -4z"/>
<path d="M6553 735 c-16 -33 -20 -35 -66 -35 -48 0 -85 -13 -99 -34 -22 -32 5 -96 40 -96 7 0 12 -4 12 -9 0 -19 -22 -23 -65 -11 -52 14 -91 0 -114 -41 -13 -24 -13 -29 3 -54 16 -24 23 -27 53 -22 20 4 53 18 74 32 36 24 43 25 98 16 113 -18 218 26 234 99 5 21 -2 31 -39 60 -24 19 -56 39 -72 44 -37 12 -38 13 -17 36 9 10 15 26 12 35 -11 26 -37 17 -54 -20z m-43 -71 c0 -3 -8 -19 -17 -35 -20 -33 -49 -36 -67 -6 -9 15 -7 21 8 33 19 14 76 20 76 8z m133 -36 l32 -23 -73 -9 c-40 -5 -75 -7 -78 -4 -2 3 3 20 13 37 15 27 22 31 46 27 16 -3 43 -16 60 -28z m37 -58 c0 -15 -59 -49 -98 -56 -17 -3 -53 -3 -78 1 -44 6 -45 7 -28 26 13 14 32 19 73 20 31 1 70 5 86 9 43 11 45 11 45 0z m-305 -59 c19 -8 19 -8 -2 -19 -49 -27 -71 -31 -77 -17 -12 32 35 53 79 36z"/>
<path d="M4357 754 c-16 -16 -6 -35 16 -32 12 2 22 10 22 18 0 16 -26 25 -38 14z"/>
<path d="M5715 737 c-15 -23 -49 -147 -61 -224 -5 -35 -4 -43 9 -43 17 0 23 17 58 148 11 45 25 85 30 88 5 3 9 16 9 30 0 31 -25 32 -45 1z"/>
<path d="M5893 735 c-17 -7 -39 -25 -48 -39 -14 -22 -15 -29 -3 -53 16 -33 62 -52 132 -52 43 -1 47 -3 36 -17 -8 -8 -33 -26 -56 -40 -79 -46 -133 -50 -120 -8 8 26 -7 47 -30 42 -25 -4 -30 -52 -9 -84 12 -19 24 -24 56 -24 76 0 216 94 207 138 -4 19 -37 30 -96 31 -80 2 -106 35 -55 68 23 15 51 18 185 18 101 0 161 4 168 11 25 25 -312 33 -367 9z"/>
<path d="M6902 663 c-5 -10 -15 -42 -22 -71 -12 -51 -31 -82 -51 -82 -5 0 3 26 17 58 40 87 41 94 13 90 -19 -2 -29 -17 -52 -73 -15 -38 -37 -77 -48 -88 -10 -10 -17 -22 -14 -28 8 -12 47 -12 79 1 25 9 26 8 26 -24 0 -44 9 -66 26 -66 9 0 13 10 12 28 -4 64 2 82 35 102 17 11 35 20 39 20 4 0 0 -21 -9 -46 -11 -33 -12 -49 -5 -56 12 -12 42 6 42 26 0 6 12 39 27 74 20 49 24 65 14 75 -9 9 -15 9 -29 -1 -38 -27 -77 -52 -84 -52 -3 0 0 21 8 47 8 25 14 54 14 65 0 23 -26 24 -38 1z"/>
<path d="M5163 606 c-3 -5 3 -15 13 -23 15 -12 40 -13 119 -8 55 4 102 9 104 11 3 2 0 9 -6 15 -13 13 -222 18 -230 5z"/>
<path d="M3520 587 c0 -9 9 -21 19 -27 25 -13 221 -13 221 0 0 11 -24 17 -105 24 -33 3 -77 8 -97 12 -31 5 -38 4 -38 -9z"/>
<path d="M5400 528 c-25 -5 -76 -8 -115 -6 -57 2 -70 0 -70 -12 0 -12 17 -16 85 -18 84 -3 167 15 163 34 -2 12 -13 13 -63 2z"/>
<path d="M4750 513 c-36 -1 -128 -10 -205 -18 -77 -9 -187 -19 -245 -23 -89 -6 -105 -10 -108 -24 -5 -24 27 -24 277 7 112 13 257 28 322 31 66 4 119 10 119 14 0 7 -66 21 -85 18 -5 -1 -39 -3 -75 -5z"/>
<path d="M3537 473 c-4 -3 -7 -13 -7 -21 0 -12 16 -13 93 -8 123 9 167 16 167 27 0 10 -243 13 -253 2z"/>
<path d="M4521 406 c-18 -22 -41 -103 -41 -147 0 -52 22 -63 87 -44 26 8 49 15 50 15 0 0 -1 -36 -4 -81 -6 -75 -5 -81 12 -78 10 2 19 13 20 24 4 53 18 124 31 164 9 27 11 48 5 54 -15 15 -46 3 -49 -19 -2 -15 -17 -25 -54 -37 -29 -9 -54 -14 -57 -11 -3 3 3 33 12 67 10 34 19 71 20 81 3 24 -16 31 -32 12z"/>
</g><g transform="translate(1165.60473, 1146.3191115993843) scale(0.40808740102544044)"><g transform="translate(-57.706759,297.537395) scale(0.100000,-0.100000)" fill="#4444bb" stroke="none">
<path d="M750 2973 c-57 -10 -88 -25 -119 -57 -40 -41 -55 -100 -46 -179 6 -45 12 -61 32 -77 32 -25 35 -25 64 -1 22 17 24 26 21 89 -4 105 24 120 164 87 33 -7 119 -19 190 -25 88 -8 134 -16 144 -26 32 -32 8 -420 -28 -456 -18 -18 -126 -28 -289 -28 -185 0 -206 -4 -250 -52 -55 -58 -58 -82 -55 -363 1 -145 7 -274 13 -293 11 -34 51 -62 89 -62 12 0 35 14 52 31 l31 30 -6 238 c-3 130 -3 249 0 264 l5 27 112 0 c234 1 363 26 423 82 58 54 98 260 91 463 -4 122 -7 138 -34 191 -40 81 -79 100 -217 108 -174 10 -361 14 -387 9z" fill="#4444bb"/>
<path d="M3660 2971 c-42 -9 -83 -34 -103 -65 -39 -59 -50 -127 -54 -343 -5 -206 -5 -212 18 -252 28 -50 78 -86 143 -102 48 -12 257 -8 370 7 l49 7 -7 -104 c-4 -57 -11 -189 -16 -294 -9 -177 -9 -192 8 -214 35 -47 100 -46 136 2 22 29 27 86 42 452 7 191 0 235 -44 283 -45 48 -92 56 -241 38 -146 -18 -229 -20 -265 -6 l-26 10 0 162 c0 156 8 230 27 249 5 5 99 6 210 2 l201 -6 5 -50 c3 -39 11 -56 31 -74 34 -29 48 -29 80 0 24 20 26 30 28 113 4 147 -23 169 -218 179 -242 11 -340 13 -374 6z" fill="#4444bb"/>
<path d="M1565 2945 c-14 -13 -25 -32 -25 -42 0 -10 -1 -297 -3 -638 -2 -677 -3 -662 55 -694 33 -19 73 -7 101 31 18 24 20 51 29 300 5 150 10 278 12 283 2 6 37 8 97 3 52 -3 135 -7 186 -7 154 -2 161 -10 143 -176 -21 -189 -27 -310 -18 -343 12 -45 45 -72 86 -72 71 0 102 46 102 151 0 33 7 118 16 187 24 190 9 280 -58 349 -50 52 -112 67 -263 65 -71 -1 -164 -6 -205 -11 -41 -4 -78 -7 -81 -5 -4 2 -10 108 -13 236 -9 286 -17 352 -47 384 -31 33 -82 32 -114 -1z" fill="#4444bb"/>
<path d="M2542 2944 c-55 -38 -64 -109 -53 -419 6 -186 9 -215 28 -250 50 -95 116 -125 302 -135 75 -4 171 -5 215 -1 l78 7 -4 -178 c-2 -97 -7 -181 -11 -184 -4 -4 -42 1 -85 11 -104 26 -285 27 -363 3 -106 -33 -149 -107 -99 -170 26 -34 68 -41 132 -21 74 23 202 20 308 -7 182 -47 274 5 301 168 12 77 27 831 19 994 -7 152 -20 181 -86 186 -88 7 -103 -51 -104 -401 l0 -219 -201 4 c-197 3 -201 3 -220 27 -18 21 -19 42 -19 283 l0 260 -29 29 c-33 33 -74 38 -109 13z" fill="#4444bb"/>
<path d="M2374 1391 c-55 -34 -79 -78 -79 -147 0 -51 4 -66 27 -96 35 -45 102 -73 153 -64 78 15 146 111 131 188 -20 108 -145 172 -232 119z" fill="#4444bb"/>
<path d="M1853 999 c-39 -11 -66 -56 -61 -101 6 -59 69 -64 76 -6 4 30 34 38 145 38 l67 0 0 -110 c0 -135 -1 -136 -132 -126 -85 6 -89 6 -113 -18 -24 -25 -25 -28 -25 -179 0 -162 4 -177 47 -177 35 0 43 29 43 159 l0 121 73 0 c85 0 141 14 168 41 17 17 19 34 19 169 0 147 -1 152 -25 175 -23 24 -30 25 -137 24 -62 0 -128 -5 -145 -10z" fill="#4444bb"/>
<path d="M2985 1000 c-91 -16 -93 -18 -104 -58 -15 -51 -14 -537 0 -564 19 -36 69 -48 204 -48 121 0 127 1 151 25 l24 24 -2 292 -3 292 -26 19 c-31 23 -161 33 -244 18z m169 -86 c14 -5 16 -37 16 -250 l0 -245 -102 3 -103 3 0 240 0 240 40 6 c57 9 131 10 149 3z" fill="#4444bb"/>
<path d="M2351 971 c-24 -24 -29 -73 -37 -372 -6 -232 -6 -237 15 -258 23 -23 29 -25 51 -11 12 7 16 40 20 150 l5 141 35 -23 c19 -13 59 -55 88 -93 30 -39 78 -96 108 -128 47 -51 56 -57 74 -47 29 16 25 42 -15 92 -19 24 -62 78 -95 121 -61 77 -61 77 -33 77 15 0 46 9 69 19 56 26 67 57 62 179 -6 156 -27 172 -220 172 -93 0 -111 -3 -127 -19z m257 -74 c16 -13 17 -168 0 -185 -7 -7 -41 -12 -84 -12 -40 0 -84 -4 -98 -10 l-26 -10 0 120 0 119 98 -6 c53 -3 103 -10 110 -16z" fill="#4444bb"/>
</g>
</g>
</svg>
