<?xml version="1.0" encoding="UTF-8" standalone="no"?>
<svg
   width="484.23264pt"
   height="316.40027pt"
   viewBox="0 0 484.23263 316.40028"
   version="1.1"
   id="svg79"
   sodipodi:docname="536t2.svg"
   xmlns:inkscape="http://www.inkscape.org/namespaces/inkscape"
   xmlns:sodipodi="http://sodipodi.sourceforge.net/DTD/sodipodi-0.dtd"
   xmlns:xlink="http://www.w3.org/1999/xlink"
   xmlns="http://www.w3.org/2000/svg"
   xmlns:svg="http://www.w3.org/2000/svg"
   xmlns:rdf="http://www.w3.org/1999/02/22-rdf-syntax-ns#"
   xmlns:cc="http://creativecommons.org/ns#"
   xmlns:dc="http://purl.org/dc/elements/1.1/">
  <sodipodi:namedview
     id="namedview79"
     pagecolor="#ffffff"
     bordercolor="#000000"
     borderopacity="0.25"
     inkscape:showpageshadow="2"
     inkscape:pageopacity="0.0"
     inkscape:pagecheckerboard="0"
     inkscape:deskcolor="#d1d1d1"
     inkscape:document-units="pt" />
  <metadata
     id="metadata1">
    <rdf:RDF>
      <cc:Work>
        <dc:type
           rdf:resource="http://purl.org/dc/dcmitype/StillImage" />
        <dc:date>2024-03-26T12:43:22.084899</dc:date>
        <dc:format>image/svg+xml</dc:format>
        <dc:creator>
          <cc:Agent>
            <dc:title>Matplotlib v3.8.2, https://matplotlib.org/</dc:title>
          </cc:Agent>
        </dc:creator>
      </cc:Work>
    </rdf:RDF>
  </metadata>
  <defs
     id="defs1">
    <style
       type="text/css"
       id="style1">*{stroke-linejoin: round; stroke-linecap: butt}</style>
  </defs>
  <g
     id="figure_1"
     transform="translate(-9.4039062,-7.057812)">
    <g
       id="axes_1">
      <g
         id="line2d_1">
        <path
           d="m 239.93032,203.26771 -1.61323,-0.18963 -1.60296,-0.19896 -1.59268,-0.20831 -1.58241,-0.21766 -1.57213,-0.22699 -1.56185,-0.23633 -1.55159,-0.24568 -1.5413,-0.25501 -1.53103,-0.26436 -1.52075,-0.2737 -1.51049,-0.28304 -1.5002,-0.29238 -1.48993,-0.30172 -1.47965,-0.31106 -1.46938,-0.32041 -1.4591,-0.32974 -1.44883,-0.33909 -1.43855,-0.34843 -1.42828,-0.35777 -1.418,-0.36711 -1.40772,-0.37645 -1.39745,-0.3858 -1.38718,-0.39513 -1.3769,-0.40448 -1.36662,-0.41381 -1.35635,-0.42316 -1.34608,-0.4325 -1.33579,-0.44184 -1.32553,-0.45119 -1.31524,-0.46052 -1.30498,-0.46986 -1.29469,-0.47921 -1.28442,-0.48855 -1.27415,-0.49789 -1.26387,-0.50723 -1.2536,-0.51657 -1.24332,-0.52591 -1.23304,-0.53525 -1.22277,-0.5446 -1.21249,-0.55393 -1.20222,-0.56328 -1.19194,-0.57262 -1.18167,-0.58196 -1.17139,-0.5913 -1.16112,-0.60064 -1.15084,-0.60998 -1.14057,-0.61933 -1.13029,-0.62866 -1.12001,-0.63801 -1.10974,-0.64735 -1.09947,-0.65669 -1.08919,-0.66603 -1.07891,-0.67537 -1.06864,-0.68472 -1.05836,-0.69405 -1.04809,-0.7034 -1.03781,-0.71273 -1.02754,-0.72208 -1.01726,-0.73142 -1.00699,-0.74076 -0.99671,-0.7501 -0.98644,-0.75945 -0.97616,-0.76878 -0.96588,-0.77813 -0.95561,-0.78746 -0.94533,-0.79681 -0.93506,-0.80615 -0.92479,-0.81549 -0.9145,-0.82483 -0.90424,-0.83418 -0.89395,-0.84351 -0.88369,-0.85286 -0.8734,-0.86219 -0.86313,-0.87154 -0.85286,-0.88088 -0.84258,-0.89022 -0.8323,-0.89957 -0.82203,-0.9089 -0.81176,-0.91824 -0.80148,-0.92759 -0.7912,-0.93693 -0.78093,-0.94626 -0.77065,-0.95561 -0.76038,-0.96495 -0.7501,-0.9743 -0.73983,-0.98363 -0.72955,-0.99297 -0.71927,-1.00232 -0.70901,-1.01166 -0.69872,-1.02099 -0.68845,-1.03034 -0.67817,-1.03968 -0.6679,-1.04903 -0.65763,-1.05836 -0.64735,-1.0677 -0.63707,-1.07705 -0.6268,-1.08639 -0.61652,-1.09572 -0.60625,-1.10507"
           clip-path="url(#p17556752ca)"
           style="fill:none;stroke:#000000;stroke-width:1.6;stroke-linecap:square"
           id="path3" />
      </g>
      <g
         id="matplotlib.axis_1">
        <g
           id="xtick_1">
          <g
             id="line2d_2">
            <defs
               id="defs3">
              <path
                 id="m178220f206"
                 d="M 0,0 V 6.5"
                 style="stroke:#000000;stroke-width:2" />
            </defs>
            <g
               id="g3">
              <use
                 xlink:href="#m178220f206"
                 x="148.37677"
                 y="285.66589"
                 style="stroke:#000000;stroke-width:2"
                 id="use3" />
            </g>
          </g>
          <g
             id="text_1">
            <!-- 2 -->
            <g
               transform="matrix(0.35,0,0,-0.35,139.71427,320.37372)"
               id="g4">
              <defs
                 id="defs4">
                <path
                   id="STIXTwoText-32"
                   d="M 2765,0 H 243 v 218 l 973,972 q 320,327 531,592 211,266 317,535 106,269 106,601 0,359 -215,573 -214,215 -585,215 -314,0 -535,-135 -221,-134 -400,-493 l -153,64 q 147,468 467,724 320,256 787,256 365,0 640,-138 275,-138 432,-384 157,-246 157,-586 0,-281 -119,-541 -118,-259 -352,-534 -233,-275 -572,-621 L 877,518 v -32 l 448,20 h 889 q 256,0 358,115 103,115 212,403 h 186 z"
                   transform="scale(0.015625)" />
              </defs>
              <use
                 xlink:href="#STIXTwoText-32"
                 id="use4" />
            </g>
          </g>
        </g>
        <g
           id="xtick_2">
          <g
             id="line2d_3">
            <g
               id="g5">
              <use
                 xlink:href="#m178220f206"
                 x="194.15355"
                 y="285.66589"
                 style="stroke:#000000;stroke-width:2"
                 id="use5" />
            </g>
          </g>
          <g
             id="text_2">
            <!-- 4 -->
            <g
               transform="matrix(0.35,0,0,-0.35,185.49105,320.37372)"
               id="g6">
              <defs
                 id="defs5">
                <path
                   id="STIXTwoText-34"
                   d="M 2426,0 H 1856 V 1011 H 83 v 403 l 1952,2714 h 391 V 1453 h 652 V 1011 H 2426 Z M 435,1478 v -25 h 1421 v 1977 h -26 z"
                   transform="scale(0.015625)" />
              </defs>
              <use
                 xlink:href="#STIXTwoText-34"
                 id="use6" />
            </g>
          </g>
        </g>
        <g
           id="xtick_3">
          <g
             id="line2d_4">
            <g
               id="g7">
              <use
                 xlink:href="#m178220f206"
                 x="239.93033"
                 y="285.66589"
                 style="stroke:#000000;stroke-width:2"
                 id="use7" />
            </g>
          </g>
          <g
             id="text_3">
            <!-- 6 -->
            <g
               transform="matrix(0.35,0,0,-0.35,231.26782,320.37372)"
               id="g8">
              <defs
                 id="defs7">
                <path
                   id="STIXTwoText-36"
                   d="m 1658,-77 q -474,0 -778,233 -304,234 -448,628 -144,394 -144,861 0,576 176,1030 176,455 493,771 317,317 749,493 432,176 950,195 l 13,-185 Q 2221,3885 1849,3661 1478,3437 1228,3078 979,2720 896,2253 l 45,-7 q 198,192 390,294 192,103 442,103 525,0 838,-359 314,-358 314,-985 0,-653 -330,-1015 -329,-361 -937,-361 z m 25,224 q 320,0 502,246 183,247 183,855 0,435 -195,729 -195,295 -592,295 -186,0 -349,-74 -163,-73 -266,-240 -102,-166 -102,-448 0,-396 89,-704 90,-307 272,-483 183,-176 458,-176 z"
                   transform="scale(0.015625)" />
              </defs>
              <use
                 xlink:href="#STIXTwoText-36"
                 id="use8" />
            </g>
          </g>
        </g>
        <g
           id="xtick_4">
          <g
             id="line2d_5">
            <g
               id="g9">
              <use
                 xlink:href="#m178220f206"
                 x="285.70709"
                 y="285.66589"
                 style="stroke:#000000;stroke-width:2"
                 id="use9" />
            </g>
          </g>
          <g
             id="text_4">
            <!-- 8 -->
            <g
               transform="matrix(0.35,0,0,-0.35,277.0446,320.37372)"
               id="g10">
              <defs
                 id="defs9">
                <path
                   id="STIXTwoText-38"
                   d="M 1574,-77 Q 1203,-77 915,32 627,141 460,361 294,582 294,909 q 0,256 96,432 96,176 291,329 196,154 490,352 v 77 l 250,-134 Q 1222,1805 1081,1664 941,1523 867,1356 794,1190 794,960 q 0,-429 220,-634 221,-204 586,-204 198,0 364,73 167,74 266,218 100,144 100,361 0,212 -87,384 -86,173 -314,362 -227,189 -649,458 l -32,12 q -358,244 -547,429 -189,186 -256,368 -67,183 -67,407 0,294 156,505 157,211 432,326 276,116 628,116 320,0 572,-116 253,-115 400,-313 148,-198 148,-454 0,-231 -84,-398 -83,-166 -262,-304 -179,-137 -480,-303 v -77 l -269,141 q 359,205 490,419 131,214 131,534 0,320 -176,490 -176,170 -483,170 -327,0 -516,-164 -188,-163 -188,-457 0,-295 211,-506 211,-211 678,-493 l 45,-32 q 403,-236 633,-438 231,-202 327,-407 96,-204 96,-473 0,-333 -163,-567 Q 2541,160 2249,41 1958,-77 1574,-77 Z"
                   transform="scale(0.015625)" />
              </defs>
              <use
                 xlink:href="#STIXTwoText-38"
                 id="use10" />
            </g>
          </g>
        </g>
        <g
           id="xtick_5">
          <g
             id="line2d_6">
            <g
               id="g11">
              <use
                 xlink:href="#m178220f206"
                 x="331.48389"
                 y="285.66589"
                 style="stroke:#000000;stroke-width:2"
                 id="use11" />
            </g>
          </g>
          <g
             id="text_5">
            <!-- 10 -->
            <g
               transform="matrix(0.35,0,0,-0.35,314.15887,320.37372)"
               id="g13">
              <defs
                 id="defs11">
                <path
                   id="STIXTwoText-31"
                   d="M 2726,0 H 512 v 179 q 454,0 640,96 186,96 186,333 v 2707 q 0,167 -45,240 -45,74 -167,74 -64,0 -179,-13 -115,-13 -243,-36 -128,-22 -230,-54 v 212 l 1241,352 h 186 V 608 q 0,-237 192,-333 192,-96 633,-96 z"
                   transform="scale(0.015625)" />
                <path
                   id="STIXTwoText-30"
                   d="M 1581,-70 Q 1197,-70 928,99 659,269 492,563 326,858 249,1242 q -76,384 -76,806 0,608 163,1072 163,464 480,726 317,263 778,263 416,0 729,-247 314,-246 493,-710 179,-464 179,-1123 0,-410 -80,-788 Q 2835,864 2665,569 2496,275 2227,102 1958,-70 1581,-70 Z m 0,230 q 377,0 585,454 208,455 208,1376 0,973 -202,1437 -201,464 -598,464 -377,0 -582,-461 Q 787,2970 787,2016 787,1088 992,624 1197,160 1581,160 Z"
                   transform="scale(0.015625)" />
              </defs>
              <use
                 xlink:href="#STIXTwoText-31"
                 id="use12" />
              <use
                 xlink:href="#STIXTwoText-30"
                 x="49.499985"
                 id="use13" />
            </g>
          </g>
        </g>
        <g
           id="xtick_6">
          <g
             id="line2d_7">
            <g
               id="g14">
              <use
                 xlink:href="#m178220f206"
                 x="377.26065"
                 y="285.66589"
                 style="stroke:#000000;stroke-width:2"
                 id="use14" />
            </g>
          </g>
          <g
             id="text_6">
            <!-- 12 -->
            <g
               transform="matrix(0.35,0,0,-0.35,359.93565,320.37372)"
               id="g16">
              <use
                 xlink:href="#STIXTwoText-31"
                 id="use15" />
              <use
                 xlink:href="#STIXTwoText-32"
                 x="49.499985"
                 id="use16" />
            </g>
          </g>
        </g>
        <g
           id="xtick_7">
          <g
             id="line2d_8" />
          <g
             id="text_7">
            <!-- $~\,~m/M$ -->
            <g
               transform="matrix(0.35,0,0,-0.35,395.16197,320.37372)"
               id="g19">
              <defs
                 id="defs16">
                <path
                   id="STIXTwoText-Italic-6d"
                   d="m 4230,-64 q -243,0 -333,118 -89,119 -89,260 0,76 13,150 13,74 19,99 l 326,1242 q 32,128 67,284 36,157 36,260 0,109 -39,182 -38,74 -147,74 -121,0 -278,-132 -157,-131 -324,-342 -166,-211 -320,-458 -153,-246 -268,-473 -115,-227 -173,-394 l 218,826 q 96,186 243,429 147,243 336,473 189,231 416,381 227,151 483,151 230,0 313,-141 84,-141 84,-314 0,-121 -26,-262 -25,-141 -38,-211 L 4397,659 q 0,0 -10,-48 -9,-48 -9,-105 0,-122 121,-122 167,0 285,121 118,122 195,212 l 128,-96 Q 5043,531 4963,416 4883,301 4777,189 4672,77 4537,6 4403,-64 4230,-64 Z M 838,0 H 314 l 512,2432 q 0,0 9,70 10,71 10,141 0,83 -45,128 -45,45 -160,45 -64,0 -135,-7 -70,-6 -70,-6 v 173 l 877,70 h 147 L 1146,1658 h 70 z m 1709,0 h -531 q 70,256 137,515 68,259 132,518 64,260 124,522 61,263 119,531 0,0 16,93 16,93 16,170 0,109 -39,182 -38,74 -147,74 -160,0 -352,-180 -192,-179 -387,-461 -195,-281 -362,-598 -166,-316 -275,-585 l 160,806 q 96,186 243,435 148,250 343,487 195,237 438,397 244,160 519,160 237,0 317,-141 80,-141 80,-314 0,-141 -26,-295 -26,-153 -32,-178 l -122,-480 h 90 L 2720,806 Z"
                   transform="scale(0.015625)" />
                <path
                   id="STIXTwoText-2f"
                   d="M 589,-570 H 230 l 1671,5108 h 352 z"
                   transform="scale(0.015625)" />
                <path
                   id="STIXTwoText-Italic-4d"
                   d="M 1331,0 H -147 l 38,192 q 250,0 384,48 135,48 211,208 77,160 141,486 l 506,2490 q 51,243 32,368 -19,125 -138,173 -118,48 -374,48 l 38,192 H 1971 L 2662,966 h 26 l 1952,3239 h 1210 l -39,-192 q -224,0 -355,-48 -131,-48 -202,-173 -70,-125 -121,-362 L 4589,762 q -71,-352 35,-461 106,-109 445,-109 L 5030,0 H 3322 l 38,192 q 237,0 361,45 125,45 189,169 64,125 109,356 l 570,2764 h -26 L 2413,0 h -141 l -774,3520 h -26 L 941,934 q -64,-326 -55,-486 10,-160 125,-208 115,-48 359,-48 z"
                   transform="scale(0.015625)" />
              </defs>
              <use
                 xlink:href="#STIXTwoText-Italic-6d"
                 transform="translate(68.749712,0.09375)"
                 id="use17" />
              <use
                 xlink:href="#STIXTwoText-2f"
                 transform="translate(151.2497,0.09375)"
                 id="use18" />
              <use
                 xlink:href="#STIXTwoText-Italic-4d"
                 transform="translate(189.94969,0.09375)"
                 id="use19" />
            </g>
          </g>
        </g>
        <g
           id="xtick_8">
          <g
             id="line2d_9" />
          <g
             id="text_8">
            <!-- $0$ -->
            <g
               transform="matrix(0.35,0,0,-0.35,93.85,320.37372)"
               id="g20">
              <use
                 xlink:href="#STIXTwoText-30"
                 transform="translate(0,0.796875)"
                 id="use20" />
            </g>
          </g>
        </g>
        <g
           id="xtick_9">
          <g
             id="line2d_10">
            <defs
               id="defs20">
              <path
                 id="m40b1e13248"
                 d="M 0,0 V 4"
                 style="stroke:#000000;stroke-width:1.4" />
            </defs>
            <g
               id="g21">
              <use
                 xlink:href="#m40b1e13248"
                 x="125.48839"
                 y="285.66589"
                 style="stroke:#000000;stroke-width:1.4"
                 id="use21" />
            </g>
          </g>
        </g>
        <g
           id="xtick_10">
          <g
             id="line2d_11">
            <g
               id="g22">
              <use
                 xlink:href="#m40b1e13248"
                 x="171.26517"
                 y="285.66589"
                 style="stroke:#000000;stroke-width:1.4"
                 id="use22" />
            </g>
          </g>
        </g>
        <g
           id="xtick_11">
          <g
             id="line2d_12">
            <g
               id="g23">
              <use
                 xlink:href="#m40b1e13248"
                 x="217.04193"
                 y="285.66589"
                 style="stroke:#000000;stroke-width:1.4"
                 id="use23" />
            </g>
          </g>
        </g>
        <g
           id="xtick_12">
          <g
             id="line2d_13">
            <g
               id="g24">
              <use
                 xlink:href="#m40b1e13248"
                 x="262.81873"
                 y="285.66589"
                 style="stroke:#000000;stroke-width:1.4"
                 id="use24" />
            </g>
          </g>
        </g>
        <g
           id="xtick_13">
          <g
             id="line2d_14">
            <g
               id="g25">
              <use
                 xlink:href="#m40b1e13248"
                 x="308.59549"
                 y="285.66589"
                 style="stroke:#000000;stroke-width:1.4"
                 id="use25" />
            </g>
          </g>
        </g>
        <g
           id="xtick_14">
          <g
             id="line2d_15">
            <g
               id="g26">
              <use
                 xlink:href="#m40b1e13248"
                 x="354.37225"
                 y="285.66589"
                 style="stroke:#000000;stroke-width:1.4"
                 id="use26" />
            </g>
          </g>
        </g>
        <g
           id="xtick_15">
          <g
             id="line2d_16">
            <g
               id="g27">
              <use
                 xlink:href="#m40b1e13248"
                 x="400.14905"
                 y="285.66589"
                 style="stroke:#000000;stroke-width:1.4"
                 id="use27" />
            </g>
          </g>
        </g>
        <g
           id="xtick_16">
          <g
             id="line2d_17">
            <g
               id="g28">
              <use
                 xlink:href="#m40b1e13248"
                 x="423.03741"
                 y="285.66589"
                 style="stroke:#000000;stroke-width:1.4"
                 id="use28" />
            </g>
          </g>
        </g>
      </g>
      <g
         id="matplotlib.axis_2">
        <g
           id="ytick_1">
          <g
             id="line2d_18">
            <defs
               id="defs28">
              <path
                 id="m26080e538e"
                 d="M 0,0 H -6.5"
                 style="stroke:#000000;stroke-width:2" />
            </defs>
            <g
               id="g29">
              <use
                 xlink:href="#m26080e538e"
                 x="102.6"
                 y="133.84152"
                 style="stroke:#000000;stroke-width:2"
                 id="use29" />
            </g>
          </g>
          <g
             id="text_9">
            <!-- 1,66 -->
            <g
               transform="matrix(0.35,0,0,-0.35,32.05,146.19543)"
               id="g33">
              <defs
                 id="defs29">
                <path
                   id="STIXTwoText-2c"
                   d="m 448,-845 -77,160 q 122,51 243,131 122,80 205,234 83,154 83,410 Q 800,51 704,51 518,51 435,153 q -83,103 -83,244 0,153 102,265 103,112 295,112 160,0 268,-67 109,-67 167,-192 58,-125 58,-304 0,-269 -87,-454 Q 1069,-429 941,-544 813,-659 678,-729 544,-800 448,-845 Z"
                   transform="scale(0.015625)" />
              </defs>
              <use
                 xlink:href="#STIXTwoText-31"
                 id="use30" />
              <use
                 xlink:href="#STIXTwoText-2c"
                 x="49.499985"
                 id="use31" />
              <use
                 xlink:href="#STIXTwoText-36"
                 x="73.999969"
                 id="use32" />
              <use
                 xlink:href="#STIXTwoText-36"
                 x="123.49995"
                 id="use33" />
            </g>
          </g>
        </g>
        <g
           id="ytick_2">
          <g
             id="line2d_19">
            <g
               id="g34">
              <use
                 xlink:href="#m26080e538e"
                 x="102.6"
                 y="80.964371"
                 style="stroke:#000000;stroke-width:2"
                 id="use34" />
            </g>
          </g>
          <g
             id="text_10">
            <!-- 2,24 -->
            <g
               transform="matrix(0.35,0,0,-0.35,32.05,93.318274)"
               id="g38">
              <use
                 xlink:href="#STIXTwoText-32"
                 id="use35" />
              <use
                 xlink:href="#STIXTwoText-2c"
                 x="49.499985"
                 id="use36" />
              <use
                 xlink:href="#STIXTwoText-32"
                 x="73.999969"
                 id="use37" />
              <use
                 xlink:href="#STIXTwoText-34"
                 x="123.49995"
                 id="use38" />
            </g>
          </g>
        </g>
        <g
           id="ytick_3">
          <g
             id="line2d_20" />
          <g
             id="text_11">
            <!-- $ʋ, \text{м/с}$ -->
            <g
               transform="matrix(0.35,0,0,-0.35,7.2,31.907812)"
               id="g43">
              <defs
                 id="defs38">
                <path
                   id="STIXTwoText-Italic-28b"
                   d="m 1363,-70 q -326,0 -525,124 -198,125 -288,330 -89,205 -89,454 0,58 6,138 7,80 26,163 l 269,1267 q 19,109 19,180 0,128 -80,160 -80,32 -266,38 -6,0 -13,0 -6,0 -19,0 l 39,179 851,96 h 141 L 1056,1306 q -19,-90 -32,-189 -13,-99 -13,-208 0,-282 121,-442 122,-160 423,-160 275,0 467,125 192,125 310,326 119,202 173,448 55,247 55,484 0,275 -55,444 -54,170 -121,282 -67,112 -122,198 -54,87 -54,189 0,115 77,201 77,87 217,87 173,0 266,-135 93,-134 128,-345 35,-211 35,-448 0,-422 -96,-819 Q 2739,947 2547,627 2355,307 2060,118 1766,-70 1363,-70 Z"
                   transform="scale(0.015625)" />
                <path
                   id="STIXTwoText-43c"
                   d="M 1331,0 H 115 v 179 q 205,0 307,32 103,32 135,141 32,109 32,339 v 1741 q 0,179 -32,265 -32,87 -132,116 -99,29 -297,29 v 185 H 1235 L 2214,832 h 20 l 972,2195 h 1056 v -185 q -268,0 -361,-74 -93,-74 -93,-342 V 576 q 0,-237 80,-317 80,-80 374,-80 V 0 H 2848 v 179 q 205,0 291,32 87,32 109,118 22,87 22,247 v 1914 h -19 L 2157,0 H 2029 L 902,2445 H 877 V 691 q 0,-230 35,-339 35,-109 134,-141 100,-32 285,-32 z"
                   transform="scale(0.015625)" />
                <path
                   id="STIXTwoText-441"
                   d="m 2611,947 122,-89 Q 2611,602 2454,390 2298,179 2067,57 1837,-64 1491,-64 1094,-64 806,128 518,320 364,662 q -153,343 -153,784 0,506 169,877 170,371 493,576 324,205 785,205 454,0 713,-199 259,-198 259,-479 0,-141 -67,-215 -67,-73 -201,-73 -141,0 -215,73 -73,74 -118,182 -45,109 -93,218 -48,109 -135,182 -86,74 -252,74 -391,0 -612,-285 -220,-284 -220,-835 0,-582 240,-957 240,-374 733,-374 313,0 508,128 196,128 413,403 z"
                   transform="scale(0.015625)" />
              </defs>
              <use
                 xlink:href="#STIXTwoText-Italic-28b"
                 transform="translate(0,0.09375)"
                 id="use39" />
              <use
                 xlink:href="#STIXTwoText-2c"
                 transform="translate(49.999985,0.09375)"
                 id="use40" />
              <use
                 xlink:href="#STIXTwoText-43c"
                 transform="translate(90.999966,0.09375)"
                 id="use41" />
              <use
                 xlink:href="#STIXTwoText-2f"
                 transform="translate(160.69995,0.09375)"
                 id="use42" />
              <use
                 xlink:href="#STIXTwoText-441"
                 transform="translate(199.39994,0.09375)"
                 id="use43" />
            </g>
          </g>
        </g>
      </g>
      <g
         id="line2d_21">
        <path
           d="m 102.60229,80.964368 1.33017,9.795185 1.33017,8.176156 1.33016,6.815251 1.33017,5.66777 1.29606,4.58858 1.29607,3.8066 1.29606,3.14172 1.29606,2.57626 1.29606,2.09531 1.29606,1.68632 1.33017,1.36965 1.36427,1.08325 1.39839,0.82574 1.46659,0.60702 1.56892,0.406 1.70534,0.20812 1.90999,0.002 2.14873,-0.22423 2.52391,-0.49235 3.10373,-0.84279 4.05871,-1.34836 6.37799,-2.38348 14.46132,-5.44167 7.84458,-2.68005 7.67405,-2.38627 7.84458,-2.20573 8.21976,-2.07898 8.73136,-1.97691 9.34528,-1.88572 10.09564,-1.80757 10.94831,-1.73175 11.97151,-1.66533 13.13115,-1.59886 14.49542,-1.53728 16.06434,-1.47611 17.90612,-1.417654 20.02073,-1.357738 22.54465,-1.301395 25.47784,-1.243402 28.99085,-1.187495 33.2201,-1.132883 9.99331,-0.302149 v 0"
           clip-path="url(#p17556752ca)"
           style="fill:none;stroke:#000000;stroke-width:2;stroke-linecap:square"
           id="path43" />
      </g>
      <g
         id="line2d_22">
        <path
           d="M 125.48839,285.66591 V 133.84152"
           clip-path="url(#p17556752ca)"
           style="fill:none;stroke:#000000;stroke-width:1.5;stroke-dasharray:1.5, 2.475;stroke-dashoffset:0"
           id="path44" />
      </g>
      <g
         id="line2d_23">
        <path
           d="m 102.6,133.84152 h 22.88839"
           clip-path="url(#p17556752ca)"
           style="fill:none;stroke:#000000;stroke-width:1.5;stroke-dasharray:1.5, 2.475;stroke-dashoffset:0"
           id="path45" />
      </g>
      <g
         id="line2d_24">
        <path
           d="M 102.6,80.964368 H 443.63697"
           clip-path="url(#p17556752ca)"
           style="fill:none;stroke:#808080;stroke-width:1.5;stroke-dasharray:5.55, 2.4;stroke-dashoffset:0"
           id="path46" />
      </g>
      <g
         id="text_12">
        <!-- $ʋ_\text{max}\approx 2,24\;\text{м/с}$ -->
        <g
           transform="matrix(0.28,0,0,-0.28,244.508,70.729291)"
           id="g57">
          <defs
             id="defs46">
            <path
               id="STIXTwoText-6d"
               d="M 3520,0 H 2003 v 186 q 231,0 333,44 102,45 131,166 29,122 29,346 v 1268 q 0,409 -144,546 -144,138 -368,138 -179,0 -336,-77 -157,-76 -285,-179 -128,-102 -217,-192 l -52,320 h 96 q 263,224 506,381 243,157 570,157 288,0 464,-167 176,-166 265,-415 13,-20 19,-42 7,-22 13,-48 V 742 q 0,-217 29,-339 29,-121 131,-169 103,-48 333,-48 z M 1664,0 H 205 v 186 q 205,0 297,35 93,35 122,134 29,99 29,291 v 1792 q 0,173 -68,230 -67,58 -201,58 -70,0 -122,-6 -51,-6 -51,-6 v 185 l 800,186 h 154 v -589 l 19,-141 V 621 q 0,-179 38,-272 39,-93 141,-128 103,-35 301,-35 z M 5306,0 H 3859 v 186 q 218,0 314,57 96,58 118,182 23,125 23,317 v 1229 q 0,295 -74,448 -74,154 -199,214 -124,61 -278,61 -211,0 -416,-150 -205,-150 -371,-291 l -70,320 h 96 q 262,262 511,396 250,135 506,135 378,0 602,-237 224,-237 224,-819 V 742 q 0,-198 22,-323 23,-125 122,-179 99,-54 317,-54 z"
               transform="scale(0.015625)" />
            <path
               id="STIXTwoText-61"
               d="m 1005,-45 q -371,0 -567,205 -195,205 -195,512 0,256 118,432 119,176 314,297 195,122 422,205 228,84 445,141 218,58 384,109 v 282 q 0,416 -144,592 -144,176 -432,176 -275,0 -352,-116 -76,-115 -76,-403 0,-147 -74,-221 -74,-73 -208,-73 -96,0 -183,73 -86,74 -86,234 0,179 137,339 138,160 391,262 253,103 599,103 524,0 742,-243 218,-243 218,-743 V 666 q 0,-199 44,-257 45,-57 148,-57 89,0 162,45 74,45 138,115 l 96,-102 Q 2886,179 2742,73 2598,-32 2355,-32 q -224,0 -291,128 -67,128 -99,365 l -39,77 v 1107 q -288,-71 -544,-167 -256,-96 -416,-250 -160,-153 -160,-402 0,-237 128,-378 128,-141 333,-141 167,0 349,83 182,84 355,237 l 51,-230 h -76 Q 1798,269 1660,166 1523,64 1366,9 1210,-45 1005,-45 Z"
               transform="scale(0.015625)" />
            <path
               id="STIXTwoText-78"
               d="M 3085,0 H 1747 v 186 q 167,0 234,28 67,29 67,112 0,64 -45,135 l -403,621 -160,281 -102,90 -704,1005 q -109,160 -186,243 -77,83 -160,112 -83,29 -218,29 v 185 h 1376 v -179 q -307,0 -307,-147 0,-51 38,-122 39,-70 112,-182 74,-112 183,-291 l 179,-333 103,-58 819,-1158 q 134,-192 233,-282 100,-89 279,-89 z M 1056,0 H -13 v 186 q 167,0 275,67 109,67 269,253 l 807,1049 198,-249 h -90 L 922,550 Q 877,474 822,397 768,320 768,282 q 0,-52 64,-74 64,-22 224,-22 z m 1408,2541 -710,-915 -186,198 h 83 l 301,435 q 128,179 179,269 51,90 51,166 0,71 -54,112 -54,42 -208,42 v 179 h 1056 v -185 q -160,0 -282,-80 -121,-80 -230,-221 z"
               transform="scale(0.015625)" />
            <path
               id="Cmsy10-bc"
               d="m 447,359 q -69,0 -88,160 v 37 q 0,291 142,531 143,241 390,377 247,136 531,136 344,0 708,-221 364,-220 723,-442 360,-221 700,-221 328,0 604,203 277,203 277,522 19,159 91,159 72,0 91,-159 v -38 q 0,-290 -144,-531 -144,-241 -389,-377 -245,-136 -530,-136 -269,0 -505,111 -235,111 -553,325 -317,214 -558,330 -240,116 -515,116 -203,0 -413,-91 Q 800,1059 669,895 538,731 538,519 519,359 447,359 Z m 0,1491 q -69,0 -88,159 v 38 q 0,291 142,531 143,241 390,377 247,136 531,136 344,0 708,-221 364,-220 723,-441 360,-220 700,-220 328,0 604,203 277,204 277,519 19,160 91,160 72,0 91,-160 v -37 q 0,-291 -144,-532 -144,-240 -389,-376 -245,-136 -530,-136 -269,0 -505,111 -235,111 -553,325 -317,214 -558,329 -240,116 -515,116 -203,0 -413,-91 Q 800,2550 669,2386 538,2222 538,2009 519,1850 447,1850 Z"
               transform="scale(0.015625)" />
          </defs>
          <use
             xlink:href="#STIXTwoText-Italic-28b"
             transform="translate(0,0.09375)"
             id="use46" />
          <use
             xlink:href="#STIXTwoText-6d"
             transform="matrix(0.7,0,0,0.7,49.999985,-14.278125)"
             id="use47" />
          <use
             xlink:href="#STIXTwoText-61"
             transform="matrix(0.7,0,0,0.7,109.63997,-14.278125)"
             id="use48" />
          <use
             xlink:href="#STIXTwoText-78"
             transform="matrix(0.7,0,0,0.7,143.23996,-14.278125)"
             id="use49" />
          <use
             xlink:href="#Cmsy10-bc"
             transform="translate(195.66527,0.09375)"
             id="use50" />
          <use
             xlink:href="#STIXTwoText-32"
             transform="translate(289.85081,0.09375)"
             id="use51" />
          <use
             xlink:href="#STIXTwoText-2c"
             transform="translate(339.35079,0.09375)"
             id="use52" />
          <use
             xlink:href="#STIXTwoText-32"
             transform="translate(380.35078,0.09375)"
             id="use53" />
          <use
             xlink:href="#STIXTwoText-34"
             transform="translate(429.85076,0.09375)"
             id="use54" />
          <use
             xlink:href="#STIXTwoText-43c"
             transform="translate(502.26759,0.09375)"
             id="use55" />
          <use
             xlink:href="#STIXTwoText-2f"
             transform="translate(571.96757,0.09375)"
             id="use56" />
          <use
             xlink:href="#STIXTwoText-441"
             transform="translate(610.66757,0.09375)"
             id="use57" />
        </g>
      </g>
      <g
         id="patch_3">
        <path
           d="m 129.09662,137.43122 q -0.0291,-0.0525 0.70832,1.2779"
           clip-path="url(#p17556752ca)"
           style="fill:none;stroke:#000000;stroke-linecap:round"
           id="path57" />
        <path
           d="m 132.93557,155.49599 -3.13063,-16.78687 12.57663,11.55112 z"
           clip-path="url(#p17556752ca)"
           style="stroke:#000000;stroke-linecap:round"
           id="path58" />
      </g>
      <g
         id="text_13">
        <!-- $ʋ_\text{min}\approx 1{,}66\;\text{м/с}$ -->
        <g
           transform="matrix(0.28,0,0,-0.28,244.508,212.42307)"
           id="g69">
          <defs
             id="defs58">
            <path
               id="STIXTwoText-69"
               d="M 1645,0 H 205 v 179 q 217,0 310,41 93,42 115,144 23,103 23,282 v 1786 q 0,205 -71,253 -70,48 -211,48 -64,0 -112,-7 -48,-6 -48,-6 v 186 l 807,179 h 166 V 646 q 0,-185 25,-288 26,-102 125,-141 100,-38 311,-38 z M 928,3584 q -160,0 -263,109 -102,109 -102,256 0,147 99,252 100,106 266,106 166,0 265,-106 100,-105 100,-252 0,-147 -100,-256 -99,-109 -265,-109 z"
               transform="scale(0.015625)" />
            <path
               id="STIXTwoText-6e"
               d="M 3552,0 H 2074 v 179 q 230,0 329,41 99,42 121,144 23,103 23,282 v 1159 q 0,384 -87,576 -86,192 -220,252 -134,61 -282,61 -185,0 -333,-74 -147,-73 -265,-176 -118,-102 -221,-191 l -45,313 h 96 q 263,231 496,384 234,154 535,154 435,0 646,-295 211,-294 211,-844 V 646 q 0,-179 29,-282 29,-102 131,-144 103,-41 314,-41 z M 1670,0 H 205 v 179 q 217,0 310,41 93,42 115,144 23,103 23,282 v 1799 q 0,173 -71,227 -70,54 -198,54 -83,0 -128,-6 -45,-6 -45,-6 v 185 l 813,186 h 147 l -6,-589 19,-134 V 646 q 0,-179 25,-282 26,-102 128,-144 103,-41 333,-41 z"
               transform="scale(0.015625)" />
          </defs>
          <use
             xlink:href="#STIXTwoText-Italic-28b"
             transform="translate(0,0.09375)"
             id="use58" />
          <use
             xlink:href="#STIXTwoText-6d"
             transform="matrix(0.7,0,0,0.7,49.999985,-14.278125)"
             id="use59" />
          <use
             xlink:href="#STIXTwoText-69"
             transform="matrix(0.7,0,0,0.7,109.63997,-14.278125)"
             id="use60" />
          <use
             xlink:href="#STIXTwoText-6e"
             transform="matrix(0.7,0,0,0.7,129.58996,-14.278125)"
             id="use61" />
          <use
             xlink:href="#Cmsy10-bc"
             transform="translate(188.80526,0.09375)"
             id="use62" />
          <use
             xlink:href="#STIXTwoText-31"
             transform="translate(282.99081,0.09375)"
             id="use63" />
          <use
             xlink:href="#STIXTwoText-2c"
             transform="translate(332.49079,0.09375)"
             id="use64" />
          <use
             xlink:href="#STIXTwoText-36"
             transform="translate(356.99078,0.09375)"
             id="use65" />
          <use
             xlink:href="#STIXTwoText-36"
             transform="translate(406.49076,0.09375)"
             id="use66" />
          <use
             xlink:href="#STIXTwoText-43c"
             transform="translate(478.90759,0.09375)"
             id="use67" />
          <use
             xlink:href="#STIXTwoText-2f"
             transform="translate(548.60757,0.09375)"
             id="use68" />
          <use
             xlink:href="#STIXTwoText-441"
             transform="translate(587.30757,0.09375)"
             id="use69" />
        </g>
      </g>
      <g
         id="text_14">
        <!-- при $m=M$ -->
        <g
           transform="matrix(0.28,0,0,-0.28,244.508,244.46681)"
           id="g76">
          <defs
             id="defs69">
            <path
               id="STIXTwoText-43f"
               d="M 1626,0 H 192 v 179 q 205,0 301,32 96,32 128,125 32,93 32,285 v 1753 q 0,199 -26,298 -25,99 -121,134 -96,36 -314,36 v 185 h 3398 v -185 q -224,0 -323,-42 -99,-42 -118,-141 -19,-99 -19,-285 V 640 q 0,-198 28,-298 29,-99 128,-131 100,-32 304,-32 V 0 H 2163 v 179 q 205,0 294,32 90,32 112,131 23,100 23,298 V 2784 H 1190 V 640 q 0,-198 22,-298 23,-99 116,-131 93,-32 298,-32 z"
               transform="scale(0.015625)" />
            <path
               id="STIXTwoText-440"
               d="M 1760,-1408 H 141 v 179 q 301,0 384,100 83,99 83,367 v 3168 q 0,186 -42,256 -41,71 -201,71 -64,0 -135,-7 -70,-6 -70,-6 v 186 l 806,179 h 160 v -538 h 20 q 230,269 470,413 240,144 522,144 320,0 560,-183 240,-182 377,-505 138,-323 138,-746 0,-544 -189,-931 -189,-387 -509,-595 -320,-208 -704,-208 -179,0 -342,42 -163,41 -304,137 h -26 v -838 q 0,-205 51,-314 52,-109 186,-147 134,-38 384,-38 z m 83,1594 q 339,0 563,320 224,320 224,985 0,608 -198,893 -198,285 -557,285 -256,0 -451,-135 -195,-134 -285,-256 V 608 q 64,-64 160,-167 96,-102 230,-179 135,-76 314,-76 z"
               transform="scale(0.015625)" />
            <path
               id="STIXTwoText-438"
               d="M 1613,0 H 205 v 179 q 269,0 358,73 90,74 90,330 v 1856 q 0,173 -29,259 -29,87 -122,116 -92,29 -291,29 v 185 h 1402 v -185 q -186,0 -279,-29 -92,-29 -118,-116 -26,-86 -26,-271 V 864 h 13 l 1498,1626 q 0,230 -77,291 -77,61 -339,61 v 185 h 1395 v -185 q -179,0 -275,-29 -96,-29 -128,-125 -32,-96 -32,-294 V 582 q 0,-256 92,-330 93,-73 337,-73 V 0 H 2285 v 179 q 256,0 336,73 80,74 80,330 v 1549 h -13 L 1190,518 q 0,-192 83,-266 84,-73 340,-73 z"
               transform="scale(0.015625)" />
            <path
               id="STIXTwoText-20"
               transform="scale(0.015625)"
               d="" />
            <path
               id="STIXTwoText-3d"
               d="M 4211,2189 H 397 v 435 h 3814 z m 0,-1517 H 397 v 429 h 3814 z"
               transform="scale(0.015625)" />
          </defs>
          <use
             xlink:href="#STIXTwoText-43f"
             transform="translate(0,0.296875)"
             id="use70" />
          <use
             xlink:href="#STIXTwoText-440"
             transform="translate(59.099991,0.296875)"
             id="use71" />
          <use
             xlink:href="#STIXTwoText-438"
             transform="translate(112.79999,0.296875)"
             id="use72" />
          <use
             xlink:href="#STIXTwoText-20"
             transform="translate(173.69998,0.296875)"
             id="use73" />
          <use
             xlink:href="#STIXTwoText-Italic-6d"
             transform="translate(197.19997,0.296875)"
             id="use74" />
          <use
             xlink:href="#STIXTwoText-3d"
             transform="translate(296.19995,0.296875)"
             id="use75" />
          <use
             xlink:href="#STIXTwoText-Italic-4d"
             transform="translate(384.69993,0.296875)"
             id="use76" />
        </g>
      </g>
      <g
         id="patch_4">
        <path
           d="m 102.6,285.66591 q 170.51849,0 326.46669,0"
           style="fill:none;stroke:#000000;stroke-width:2.72;stroke-linecap:round"
           id="path76" />
        <path
           d="m 420.2667,282.36591 8.79999,3.3 -8.79999,3.3 z"
           style="stroke:#000000;stroke-width:2.72;stroke-linecap:round"
           id="path77" />
      </g>
      <g
         id="patch_5">
        <path
           d="m 102.6,285.66591 q 0,-133.056 0,-259.573937"
           style="fill:none;stroke:#000000;stroke-width:2.72;stroke-linecap:round"
           id="path78" />
        <path
           d="m 99.3,34.891973 3.3,-8.8 3.3,8.8 z"
           style="stroke:#000000;stroke-width:2.72;stroke-linecap:round"
           id="path79" />
      </g>
    </g>
  </g>
  <defs
     id="defs79">
    <clipPath
       id="p17556752ca">
      <rect
         x="102.6"
         y="19.553905"
         width="341.03696"
         height="266.112"
         id="rect79" />
    </clipPath>
  </defs>
</svg>
