<svg width="100.9mm" height="48.21mm" version="1.1" viewBox="0 0 100.9 48.21" xml:space="preserve" xmlns="http://www.w3.org/2000/svg"><g transform="translate(-98.2 -17.59)"><g fill="none" stroke="#000"><path d="m99.27 65.4 22.3-38.89 68.25 38.89z" stroke-linejoin="round" stroke-width=".8" style="paint-order:markers stroke fill"/><g stroke-width=".6615"><path d="m105 55.21a11.7 11.7 0 0 1 5.941 10.04" stop-color="#000000" style="-inkscape-stroke:none;font-variation-settings:normal"/><path d="m170.1 65.21a19.77 19.77 0 0 1 2.743-9.864" stop-color="#000000" style="-inkscape-stroke:none;font-variation-settings:normal"/><path d="m168.7 65.2a21.13 21.13 0 0 1 2.932-10.54" stop-color="#000000" style="-inkscape-stroke:none;font-variation-settings:normal"/></g><path d="m111.3 32.16 7.394-12.81" stroke-linejoin="round" stroke-width=".6" style="paint-order:markers stroke fill"/><path d="m119.9 29.45 1.786-7.513 5.809 7.937" stroke-linejoin="round" stroke-width=".8" style="paint-order:markers stroke fill"/><path d="m120.8 25.79a3.948 3.948 0 0 1-3.05-3.933 3.948 3.948 0 0 1 3.223-3.793 3.948 3.948 0 0 1 4.374 2.375 3.948 3.948 0 0 1-1.426 4.769" stop-color="#000000" stroke-width=".8" style="font-variation-settings:normal"/></g><circle cx="121.7" cy="21.94" r=".9354"/><g fill="none" stroke="#000" stroke-width=".8"><path d="m189.8 65.4 6.906-11.96z" stroke-linejoin="round" style="paint-order:markers stroke fill"/><path d="m197.8 54.06-1.804 0.6568m-1.441 2.495 4.408-1.604m-1.511 2.521-4.337 1.579m-1.441 2.495 4.267-1.553m-1.511 2.521-4.196 1.527"/></g><path d="m123.5 18.32 24.25 14" fill="none" stroke="#000" stroke-linejoin="round" stroke-width=".6" style="paint-order:markers stroke fill"/><circle cx="147.7" cy="32.32" r=".9354"/><g fill="none" stroke="#000"><circle cx="147.7" cy="32.32" r="3.521" stop-color="#000000" stroke-width=".8" style="font-variation-settings:normal"/><path d="m149.8 29.31 46 26.56" stroke-linejoin="round" stroke-width=".6" style="paint-order:markers stroke fill"/><path d="m162.7 45.16-16.91-9.766" stroke-linejoin="round" stroke-width=".6" style="paint-order:markers stroke fill"/></g><g stroke-width="1.7"><text transform="matrix(.2646 0 0 .2646 86.39 4.552)" x="362.91162" y="101.41709" dominant-baseline="auto" fill="#000000" font-family="'STIX Two Text'" font-size="37.33px" font-style="italic" stop-color="#000000" style="-inkscape-stroke:none;font-variant-alternates:normal;font-variant-caps:normal;font-variant-east-asian:normal;font-variant-ligatures:normal;font-variant-numeric:normal;font-variant-position:normal;inline-size:0;line-height:normal;shape-margin:0;shape-padding:0;text-decoration-color:#000000;text-decoration-line:none;text-decoration-style:solid;text-indent:0;text-orientation:mixed;text-transform:none;white-space:normal" xml:space="preserve"><tspan x="362.91162" y="101.41709"/></text><path transform="matrix(.2646 0 0 .2646 36.01 -.8039)" d="m289.8 230.5q-2.277 0-3.285-1.829-1.008-1.867-1.008-5.077 0-3.435 1.12-6.011 1.12-2.613 3.099-4.032 2.016-1.456 4.592-1.456 1.344 0 2.203 0.56t1.344 1.419q0.5227 0.8213 0.7467 1.792 0.2613 0.9333 0.3733 1.717h0.8213l-0.2987 3.285q0 1.008 0 2.203 0.0373 1.157 0.1867 2.203 0.1867 1.008 0.5973 1.68 0.4107 0.6347 1.195 0.6347 0.8587 0 1.419-0.4107 0.5973-0.448 1.12-1.045l0.5973 0.5973q-0.224 0.336-0.5973 0.9707-0.3733 0.5973-0.9707 1.232-0.5973 0.5973-1.456 1.045-0.8587 0.4107-1.979 0.4107-1.307 0-1.867-0.896-0.5227-0.896-0.5227-2.277 0-0.672 0.112-1.456t0.1867-1.717h-0.2987q-1.083 1.755-2.315 3.248-1.195 1.456-2.464 2.352-1.269 0.8587-2.651 0.8587zm0.8213-3.285q1.344 0 2.613-0.7467 1.269-0.784 2.277-2.053 1.045-1.269 1.643-2.8 0.5973-1.531 0.5973-3.061 0-1.755-0.9333-2.539-0.896-0.8213-2.688-0.8213-3.024 0-4.965 1.904-1.941 1.867-1.941 5.637 0 2.427 1.045 3.472 1.083 1.008 2.352 1.008zm8.475-5.749-0.1493-3.248q0.672-1.717 1.605-3.323 0.9707-1.643 1.568-2.464l3.099-0.0747 0.0373 0.56q-0.2987 0.3733-0.9707 1.269-0.672 0.8587-1.493 1.979-0.8213 1.083-1.605 2.203t-1.344 1.979q-0.56 0.8213-0.7467 1.12z" aria-label="α"/><path transform="matrix(.2646 0 0 .2646 83.82 5.52)" d="m296.1 222-0.448-0.0747q0.672-3.136 1.269-6.309 0.6347-3.136 1.232-6.272 0.5973-3.248 1.269-6.421 0.7093-3.211 1.643-6.048 0.9333-2.837 2.24-5.003 1.307-2.203 3.136-3.435 1.829-1.269 4.331-1.269 2.053 0 3.36 1.307 1.344 1.269 1.307 3.547 0 1.941-0.9333 3.36-0.9333 1.381-2.389 2.315-1.419 0.896-2.912 1.493v0.4853l-0.784 0.0373q-1.157 0.7093-2.016 1.232-0.8587 0.4853-1.232 0.4853-0.2613 0-0.56-0.4853-0.2613-0.4853-0.2613-1.083 0-0.6347 0.2613-1.12 0.2987-0.4853 0.7467-0.4853 0.1493 0 0.6347 0.0373 0.4853 0.0373 0.9333 0.0747 0.448 0.0373 0.4853 0.0373 0.336 0 1.195-0.224 0.8587-0.2613 1.792-0.8213 0.9333-0.5973 1.605-1.568 0.672-0.9707 0.672-2.464 0-1.755-0.896-2.501-0.8587-0.784-2.053-0.784-1.829 0-3.211 0.9333-1.344 0.9333-2.315 2.501-0.9707 1.568-1.605 3.435-0.6347 1.867-0.9707 3.733-0.336 1.867-0.4853 3.472-0.1493 1.605-0.1493 2.576 0 2.165 1.195 3.472 1.195 1.269 3.248 1.269 0.896 0 1.904-0.1493 1.008-0.1867 1.867-0.7093 0.896-0.5227 1.456-1.605 0.56-1.083 0.56-2.875 0-1.531-0.4107-2.613-0.4107-1.083-1.008-1.829-0.5973-0.7467-1.157-1.157-0.5227-0.4107-0.784-0.5973l1.083-0.6347q1.12 0.336 2.203 1.344 1.12 0.9707 1.829 2.464 0.7467 1.493 0.7467 3.472 0 2.24-0.7467 3.771-0.7093 1.493-1.867 2.389-1.157 0.8587-2.539 1.232-1.381 0.4107-2.725 0.4107-1.419 0-2.427-0.5973-1.008-0.5973-1.643-1.419-0.6347-0.8587-1.045-1.531h-0.2613q-0.1493 2.165-0.224 4.144-0.0373 1.979-0.336 3.547-0.2987 1.568-1.157 2.501-0.8587 0.9333-2.651 1.008z" aria-label="β"/></g><g transform="translate(8.996 -6.879)"><path transform="matrix(.2646 0 0 .2646 86.39 4.552)" d="m39.1 105.3q-1.419 0-1.941-0.672-0.5227-0.7093-0.5227-1.531 0-0.448 0.07467-0.8587 0.07467-0.448 0.112-0.5973l1.904-7.243q0.1867-0.7467 0.3733-1.643 0.224-0.9333 0.224-1.531 0-0.6347-0.224-1.045-0.224-0.448-0.8587-0.448-0.7093 0-1.643 0.784-0.896 0.7467-1.867 1.979t-1.867 2.688q-0.896 1.419-1.568 2.763-0.672 1.307-1.008 2.277l1.269-4.816q0.56-1.083 1.419-2.501 0.8587-1.419 1.941-2.763 1.12-1.344 2.427-2.203 1.344-0.896 2.837-0.896 1.344 0 1.829 0.8213t0.4853 1.829q0 0.7093-0.1493 1.531-0.1493 0.8213-0.224 1.232l-2.053 8.624t-0.07467 0.2987q-0.03733 0.2613-0.03733 0.5973 0 0.7093 0.7093 0.7093 0.9707 0 1.643-0.7093 0.7093-0.7093 1.157-1.232l0.7467 0.56q-0.3733 0.5227-0.8587 1.195-0.448 0.672-1.083 1.344-0.5973 0.6347-1.381 1.045-0.784 0.4107-1.792 0.4107zm-19.79-0.3733h-3.061l2.987-14.19t0.03733-0.4107q0.07467-0.4107 0.07467-0.8213 0-0.4853-0.2613-0.7467t-0.9333-0.2613q-0.3733 0-0.784 0.03733t-0.4107 0.03733v-1.008l5.115-0.4107h0.8587l-1.829 8.101h0.4107zm9.968 0h-3.099q0.4107-1.493 0.784-2.987 0.4107-1.531 0.784-3.024 0.3733-1.531 0.7093-3.061 0.3733-1.531 0.7093-3.099 0 0 0.07467-0.5227 0.112-0.56 0.112-1.008 0-0.6347-0.224-1.045-0.224-0.448-0.8587-0.448-0.9333 0-2.053 1.045-1.12 1.045-2.277 2.688-1.12 1.643-2.091 3.509-0.9707 1.829-1.605 3.397l0.9333-4.704q0.56-1.083 1.419-2.539 0.8587-1.456 1.979-2.837 1.157-1.381 2.576-2.315 1.419-0.9333 3.024-0.9333 1.381 0 1.829 0.8213 0.4853 0.8213 0.4853 1.829 0 0.8213-0.1493 1.717-0.1493 0.896-0.1867 1.045l-0.7093 2.8h0.5227l-1.68 4.965z" stroke-width="1.7" aria-label="m"/><path d="m101 34.64h-2.441v-0.1976q0.5009 0 0.7056-0.1058 0.2046-0.1058 0.2046-0.3669v-2.985q0-0.1834-0.04939-0.2611-0.04939-0.08467-0.1834-0.08467-0.07056 0-0.1976 0.01411-0.127 0.01411-0.2681 0.04233-0.1411 0.02117-0.254 0.05644v-0.2328l1.369-0.3881h0.2046v3.838q0 0.2611 0.2117 0.3669 0.2117 0.1058 0.6985 0.1058z" stroke-width=".4498" aria-label="1"/></g><g transform="translate(.5625 -.5025)"><path transform="matrix(.2646 0 0 .2646 174.8 29.5)" d="m39.1 105.3q-1.419 0-1.941-0.672-0.5227-0.7093-0.5227-1.531 0-0.448 0.07467-0.8587 0.07467-0.448 0.112-0.5973l1.904-7.243q0.1867-0.7467 0.3733-1.643 0.224-0.9333 0.224-1.531 0-0.6347-0.224-1.045-0.224-0.448-0.8587-0.448-0.7093 0-1.643 0.784-0.896 0.7467-1.867 1.979t-1.867 2.688q-0.896 1.419-1.568 2.763-0.672 1.307-1.008 2.277l1.269-4.816q0.56-1.083 1.419-2.501 0.8587-1.419 1.941-2.763 1.12-1.344 2.427-2.203 1.344-0.896 2.837-0.896 1.344 0 1.829 0.8213t0.4853 1.829q0 0.7093-0.1493 1.531-0.1493 0.8213-0.224 1.232l-2.053 8.624t-0.07467 0.2987q-0.03733 0.2613-0.03733 0.5973 0 0.7093 0.7093 0.7093 0.9707 0 1.643-0.7093 0.7093-0.7093 1.157-1.232l0.7467 0.56q-0.3733 0.5227-0.8587 1.195-0.448 0.672-1.083 1.344-0.5973 0.6347-1.381 1.045-0.784 0.4107-1.792 0.4107zm-19.79-0.3733h-3.061l2.987-14.19t0.03733-0.4107q0.07467-0.4107 0.07467-0.8213 0-0.4853-0.2613-0.7467t-0.9333-0.2613q-0.3733 0-0.784 0.03733t-0.4107 0.03733v-1.008l5.115-0.4107h0.8587l-1.829 8.101h0.4107zm9.968 0h-3.099q0.4107-1.493 0.784-2.987 0.4107-1.531 0.784-3.024 0.3733-1.531 0.7093-3.061 0.3733-1.531 0.7093-3.099 0 0 0.07467-0.5227 0.112-0.56 0.112-1.008 0-0.6347-0.224-1.045-0.224-0.448-0.8587-0.448-0.9333 0-2.053 1.045-1.12 1.045-2.277 2.688-1.12 1.643-2.091 3.509-0.9707 1.829-1.605 3.397l0.9333-4.704q0.56-1.083 1.419-2.539 0.8587-1.456 1.979-2.837 1.157-1.381 2.576-2.315 1.419-0.9333 3.024-0.9333 1.381 0 1.829 0.8213 0.4853 0.8213 0.4853 1.829 0 0.8213-0.1493 1.717-0.1493 0.896-0.1867 1.045l-0.7093 2.8h0.5227l-1.68 4.965z" stroke-width="1.7" aria-label="m"/><path d="m189.7 59.35h-2.78v-0.2399l1.072-1.072q0.3528-0.3598 0.5856-0.6491 0.2328-0.2963 0.3457-0.5927 0.1199-0.2963 0.1199-0.6632 0-0.3951-0.2399-0.6279-0.2328-0.2399-0.6421-0.2399-0.3457 0-0.5927 0.1482-0.2399 0.1482-0.4374 0.5433l-0.1693-0.07056q0.1623-0.5151 0.5151-0.7973 0.3528-0.2822 0.8678-0.2822 0.4022 0 0.7056 0.1552 0.3034 0.1482 0.4727 0.4233 0.1764 0.2681 0.1764 0.6421 0 0.3104-0.1341 0.5997-0.127 0.2822-0.388 0.5856-0.254 0.3034-0.628 0.6844l-0.9313 0.8819v0.03528l0.4939-0.02117h0.9807q0.2822 0 0.3951-0.127t0.2328-0.4445h0.2046z" stroke-width=".4498" aria-label="2"/></g><g fill="none" stroke="#000" stroke-width=".758"><rect transform="rotate(29.7)" x="164.1" y="-44.77" width="16.85" height="7.524" rx=".01931" ry=".01931" stroke-linecap="round" stroke-linejoin="round" style="paint-order:markers stroke fill"/><path transform="rotate(29.7)" d="m165.9-44.77-1.818 1.799m0 3.164 5.015-4.963m3.198 0-7.604 7.524m3.198-1e-6 7.604-7.524m3.198 1e-6 -7.604 7.524m3.198-1e-6 6.649-6.579m0 3.164-3.452 3.415m3.198 0 0.2541-0.2514"/></g><g fill="none" stroke="#000" stroke-width=".8011"><rect transform="rotate(-60)" x="13.07" y="106.3" width="14.71" height="12.27" rx=".01931" ry=".01931" stroke-linejoin="round" style="paint-order:markers stroke fill"/><path transform="rotate(-60)" d="m27.78 107.7-1.417-1.417m-3.181 0 4.598 4.598m0 3.181-7.778-7.778m-3.181 0 10.96 10.96m-1.867 1.313-12.27-12.27m-0.5717 2.609 9.663 9.663m-3.181 0-6.483-6.483m0 3.181 3.302 3.302m-3.181 0-0.1216-0.1216"/></g></g></svg>
