<?xml version="1.0" encoding="utf-8" standalone="no"?>
<!DOCTYPE svg PUBLIC "-//W3C//DTD SVG 1.1//EN"
  "http://www.w3.org/Graphics/SVG/1.1/DTD/svg11.dtd">
<svg xmlns:xlink="http://www.w3.org/1999/xlink" width="255.316361pt" height="280.512pt" viewBox="0 34 255.316361 280.512" xmlns="http://www.w3.org/2000/svg" version="1.1">
 <metadata>
  <rdf:RDF xmlns:dc="http://purl.org/dc/elements/1.1/" xmlns:cc="http://creativecommons.org/ns#" xmlns:rdf="http://www.w3.org/1999/02/22-rdf-syntax-ns#">
   <cc:Work>
    <dc:type rdf:resource="http://purl.org/dc/dcmitype/StillImage"/>
    <dc:date>2023-07-29T12:44:45.235608</dc:date>
    <dc:format>image/svg+xml</dc:format>
    <dc:creator>
     <cc:Agent>
      <dc:title>Matplotlib v3.7.1, https://matplotlib.org/</dc:title>
     </cc:Agent>
    </dc:creator>
   </cc:Work>
  </rdf:RDF>
 </metadata>
 <defs>
  <style type="text/css">*{stroke-linejoin: round; stroke-linecap: butt}</style>
 </defs>
 <g id="figure_1">
  <g id="patch_1">
   <path d="M 0 280.512 
L 255.316361 280.512 
L 255.316361 0 
L 0 0 
z
" style="fill: #ffffff"/>
  </g>
  <g id="axes_1">
   <g id="patch_2">
    <path d="M 50.787547 35.389831 
L 53.1367 44.786441 
L 50.80634 44.786441 
L 50.80634 232.718644 
L 50.768754 232.718644 
L 50.768754 44.786441 
L 48.438394 44.786441 
z
" style="stroke: #000000; stroke-linejoin: miter"/>
   </g>
   <g id="patch_3">
    <path d="M 248.116361 232.718644 
L 238.71975 235.067797 
L 238.71975 232.737437 
L 50.787547 232.737437 
L 50.787547 232.699851 
L 238.71975 232.699851 
L 238.71975 230.369492 
z
" style="stroke: #000000; stroke-linejoin: miter"/>
   </g>
   <g id="patch_4">
    <path d="M 121.71363 153.548346 
L 130.754646 156.316017 
L 127.852331 159.365277 
L 127.852707 159.365635 
L 127.826794 159.39286 
L 127.826418 159.392503 
L 124.924103 162.441762 
z
" clip-path="url(#p991273dee6)" style="stroke: #000000; stroke-width: 1.8; stroke-linejoin: miter"/>
   </g>
   <g id="line2d_1">
    <path d="M 201.13331 235.850847 
L 201.13331 229.586441 
" style="fill: none; stroke: #000000; stroke-linecap: square"/>
   </g>
   <g id="line2d_2">
    <path d="M 47.655344 195.132203 
L 53.91975 195.132203 
" style="fill: none; stroke: #000000; stroke-linecap: square"/>
   </g>
   <g id="line2d_3">
    <path d="M 88.373988 235.850847 
L 88.373988 229.586441 
" style="fill: none; stroke: #000000; stroke-linecap: square"/>
   </g>
   <g id="line2d_4">
    <path d="M 47.655344 82.372881 
L 53.91975 82.372881 
" style="fill: none; stroke: #000000; stroke-linecap: square"/>
   </g>
   <g id="line2d_5">
    <path d="M 88.373988 82.372881 
L 90.675198 91.046675 
L 92.976409 98.774237 
L 95.27762 105.702396 
L 97.57883 111.949097 
L 99.880041 117.610169 
L 102.181252 122.76428 
L 104.482462 127.47661 
L 106.783673 131.801625 
L 109.084884 135.785192 
L 111.386094 139.466209 
L 113.687305 142.877883 
L 115.988516 146.048734 
L 118.289726 149.00339 
L 120.590937 151.763233 
L 122.892147 154.346917 
L 125.193358 156.770785 
L 127.494569 159.04922 
L 129.795779 161.194932 
L 132.09699 163.219188 
L 134.398201 165.132017 
L 136.699411 166.942373 
L 139.000622 168.658276 
L 141.301833 170.286929 
L 143.603043 171.834823 
L 145.904254 173.307818 
L 148.205465 174.711224 
L 150.506675 176.049857 
L 152.807886 177.3281 
L 155.109097 178.54995 
L 157.410307 179.719059 
L 159.711518 180.838768 
L 162.012729 181.912145 
L 164.313939 182.942006 
L 166.61515 183.930946 
L 168.916361 184.881356 
L 171.217571 185.795444 
L 173.518782 186.675254 
L 175.819993 187.522679 
L 178.121203 188.339473 
L 180.422414 189.127269 
L 182.723624 189.887584 
L 185.024835 190.621831 
L 187.326046 191.331327 
L 189.627256 192.017305 
L 191.928467 192.680914 
L 194.229678 193.32323 
L 196.530888 193.945263 
L 198.832099 194.547958 
L 201.13331 195.132203 
" clip-path="url(#p991273dee6)" style="fill: none; stroke: #000000; stroke-width: 1.8; stroke-linecap: square"/>
   </g>
   <g id="line2d_6">
    <defs>
     <path id="m4e762c78ca" d="M 0 2.75 
C 0.729309 2.75 1.428845 2.460243 1.944544 1.944544 
C 2.460243 1.428845 2.75 0.729309 2.75 0 
C 2.75 -0.729309 2.460243 -1.428845 1.944544 -1.944544 
C 1.428845 -2.460243 0.729309 -2.75 0 -2.75 
C -0.729309 -2.75 -1.428845 -2.460243 -1.944544 -1.944544 
C -2.460243 -1.428845 -2.75 -0.729309 -2.75 0 
C -2.75 0.729309 -2.460243 1.428845 -1.944544 1.944544 
C -1.428845 2.460243 -0.729309 2.75 0 2.75 
z
" style="stroke: #000000"/>
    </defs>
    <g clip-path="url(#p991273dee6)">
     <use xlink:href="#m4e762c78ca" x="201.13331" y="195.132203" style="stroke: #000000"/>
    </g>
   </g>
   <g id="line2d_7">
    <g clip-path="url(#p991273dee6)">
     <use xlink:href="#m4e762c78ca" x="88.373988" y="82.372881" style="stroke: #000000"/>
    </g>
   </g>
   <g id="line2d_8">
    <path d="M 50.787547 232.718644 
L 50.787547 44.786441 
" clip-path="url(#p991273dee6)" style="fill: none; stroke: #000000; stroke-width: 0.25; stroke-linecap: square"/>
   </g>
   <g id="line2d_9">
    <path d="M 88.373988 232.718644 
L 88.373988 44.786441 
" clip-path="url(#p991273dee6)" style="fill: none; stroke: #000000; stroke-width: 0.25; stroke-linecap: square"/>
   </g>
   <g id="line2d_10">
    <path d="M 125.960428 232.718644 
L 125.960428 44.786441 
" clip-path="url(#p991273dee6)" style="fill: none; stroke: #000000; stroke-width: 0.25; stroke-linecap: square"/>
   </g>
   <g id="line2d_11">
    <path d="M 163.546869 232.718644 
L 163.546869 44.786441 
" clip-path="url(#p991273dee6)" style="fill: none; stroke: #000000; stroke-width: 0.25; stroke-linecap: square"/>
   </g>
   <g id="line2d_12">
    <path d="M 201.13331 232.718644 
L 201.13331 44.786441 
" clip-path="url(#p991273dee6)" style="fill: none; stroke: #000000; stroke-width: 0.25; stroke-linecap: square"/>
   </g>
   <g id="line2d_13">
    <path d="M 238.71975 232.718644 
L 238.71975 44.786441 
" clip-path="url(#p991273dee6)" style="fill: none; stroke: #000000; stroke-width: 0.25; stroke-linecap: square"/>
   </g>
   <g id="line2d_14">
    <path d="M 50.787547 232.718644 
L 238.71975 232.718644 
" clip-path="url(#p991273dee6)" style="fill: none; stroke: #000000; stroke-width: 0.25; stroke-linecap: square"/>
   </g>
   <g id="line2d_15">
    <path d="M 50.787547 195.132203 
L 238.71975 195.132203 
" clip-path="url(#p991273dee6)" style="fill: none; stroke: #000000; stroke-width: 0.25; stroke-linecap: square"/>
   </g>
   <g id="line2d_16">
    <path d="M 50.787547 157.545763 
L 238.71975 157.545763 
" clip-path="url(#p991273dee6)" style="fill: none; stroke: #000000; stroke-width: 0.25; stroke-linecap: square"/>
   </g>
   <g id="line2d_17">
    <path d="M 50.787547 119.959322 
L 238.71975 119.959322 
" clip-path="url(#p991273dee6)" style="fill: none; stroke: #000000; stroke-width: 0.25; stroke-linecap: square"/>
   </g>
   <g id="line2d_18">
    <path d="M 50.787547 82.372881 
L 238.71975 82.372881 
" clip-path="url(#p991273dee6)" style="fill: none; stroke: #000000; stroke-width: 0.25; stroke-linecap: square"/>
   </g>
   <g id="line2d_19">
    <path d="M 50.787547 44.786441 
L 238.71975 44.786441 
" clip-path="url(#p991273dee6)" style="fill: none; stroke: #000000; stroke-width: 0.25; stroke-linecap: square"/>
   </g>
   <g id="text_1">
    <!-- $V$ -->
    <g transform="translate(231.042364 258.911322) scale(0.27 -0.27)">
     <defs>
      <path id="CMMI12-56" d="M 3962 3640 
C 4179 3984 4378 4136 4704 4162 
C 4768 4168 4819 4168 4819 4282 
C 4819 4308 4806 4346 4749 4346 
C 4634 4346 4358 4346 4243 4346 
C 4058 4346 3866 4346 3686 4346 
C 3635 4346 3571 4346 3571 4226 
C 3571 4168 3629 4162 3654 4162 
C 3891 4143 3917 4029 3917 3952 
C 3917 3857 3827 3710 3821 3704 
L 1811 540 
L 1363 3969 
C 1363 4160 1696 4160 1766 4160 
C 1862 4160 1920 4160 1920 4282 
C 1920 4346 1850 4346 1830 4346 
C 1722 4346 1594 4346 1485 4346 
L 1126 4346 
C 659 4346 467 4346 461 4346 
C 422 4346 346 4346 346 4230 
C 346 4160 390 4160 493 4160 
C 819 4160 838 4102 858 3944 
L 1370 24 
C 1389 -109 1389 -128 1478 -128 
C 1555 -128 1587 -109 1651 -8 
L 3962 3640 
z
" transform="scale(0.015625)"/>
     </defs>
     <use xlink:href="#CMMI12-56" transform="scale(0.996264)"/>
    </g>
   </g>
   <g id="text_2">
    <!-- $p$ -->
    <g transform="translate(30.051199 51.508228) scale(0.27 -0.27)">
     <defs>
      <path id="CMMI12-70" d="M 275 -789 
C 230 -980 205 -1031 -58 -1031 
C -134 -1031 -198 -1031 -198 -1152 
C -198 -1165 -192 -1216 -122 -1216 
C -38 -1216 51 -1216 134 -1216 
L 410 -1216 
C 544 -1216 870 -1216 1005 -1216 
C 1043 -1216 1120 -1216 1120 -1101 
C 1120 -1031 1075 -1031 966 -1031 
C 672 -1031 653 -987 653 -937 
C 653 -861 941 219 979 364 
C 1050 185 1222 -64 1555 -64 
C 2278 -64 3059 875 3059 1814 
C 3059 2401 2726 2816 2246 2816 
C 1837 2816 1491 2420 1421 2331 
C 1370 2650 1120 2816 864 2816 
C 678 2816 531 2727 410 2484 
C 294 2254 205 1865 205 1839 
C 205 1814 230 1782 275 1782 
C 326 1782 333 1788 371 1935 
C 467 2312 589 2689 845 2689 
C 992 2689 1043 2587 1043 2397 
C 1043 2245 1024 2181 998 2067 
L 275 -789 
z
M 1382 1993 
C 1427 2171 1606 2357 1709 2446 
C 1779 2510 1990 2689 2234 2689 
C 2515 2689 2643 2408 2643 2076 
C 2643 1769 2464 1047 2304 715 
C 2144 370 1850 64 1555 64 
C 1120 64 1050 613 1050 639 
C 1050 658 1062 709 1069 741 
L 1382 1993 
z
" transform="scale(0.015625)"/>
     </defs>
     <use xlink:href="#CMMI12-70" transform="scale(0.996264)"/>
    </g>
   </g>
   <g id="text_3">
    <!-- $4V_0$ -->
    <g transform="translate(182.969984 260.790644) scale(0.27 -0.27)">
     <defs>
      <path id="CMR17-34" d="M 2150 4122 
C 2150 4256 2144 4256 2029 4256 
L 128 1254 
L 128 1088 
L 1779 1088 
L 1779 457 
C 1779 224 1766 160 1318 160 
L 1197 160 
L 1197 0 
C 1402 0 1747 0 1965 0 
C 2182 0 2528 0 2733 0 
L 2733 160 
L 2611 160 
C 2163 160 2150 224 2150 457 
L 2150 1088 
L 2803 1088 
L 2803 1254 
L 2150 1254 
L 2150 4122 
z
M 1798 3703 
L 1798 1254 
L 256 1254 
L 1798 3703 
z
" transform="scale(0.015625)"/>
      <path id="CMR17-30" d="M 2688 2025 
C 2688 2416 2682 3080 2413 3591 
C 2176 4039 1798 4198 1466 4198 
C 1158 4198 768 4058 525 3597 
C 269 3118 243 2524 243 2025 
C 243 1661 250 1106 448 619 
C 723 -39 1216 -128 1466 -128 
C 1760 -128 2208 -7 2470 600 
C 2662 1042 2688 1559 2688 2025 
z
M 1466 -26 
C 1056 -26 813 325 723 812 
C 653 1188 653 1738 653 2096 
C 653 2588 653 2997 736 3387 
C 858 3929 1216 4096 1466 4096 
C 1728 4096 2067 3923 2189 3400 
C 2272 3036 2278 2607 2278 2096 
C 2278 1680 2278 1169 2202 792 
C 2067 95 1690 -26 1466 -26 
z
" transform="scale(0.015625)"/>
     </defs>
     <use xlink:href="#CMR17-34" transform="scale(0.996264)"/>
     <use xlink:href="#CMMI12-56" transform="translate(45.690477 0) scale(0.996264)"/>
     <use xlink:href="#CMR17-30" transform="translate(102.560056 -14.943915) scale(0.697382)"/>
    </g>
   </g>
   <g id="text_4">
    <!-- $p_0$ -->
    <g transform="translate(19.536429 201.853991) scale(0.27 -0.27)">
     <use xlink:href="#CMMI12-70" transform="scale(0.996264)"/>
     <use xlink:href="#CMR17-30" transform="translate(48.959514 -14.943915) scale(0.697382)"/>
    </g>
   </g>
   <g id="text_5">
    <!-- 1 -->
    <g transform="translate(204.388841 192.457381) scale(0.27 -0.27)">
     <defs>
      <path id="SFRM3583-31" d="M 608 3635 
C 698 3648 794 3648 883 3661 
C 1056 3693 1210 3751 1357 3841 
L 1357 416 
C 1357 173 1139 135 915 135 
C 819 135 723 135 640 135 
L 640 0 
L 2349 0 
L 2349 135 
C 2259 135 2163 135 2067 135 
C 1837 135 1632 173 1632 416 
L 1632 4140 
C 1632 4159 1626 4192 1606 4192 
C 1555 4192 1446 4056 1376 4004 
C 1184 3866 934 3782 710 3782 
L 672 3782 
C 634 3782 608 3776 608 3731 
L 608 3635 
z
" transform="scale(0.015625)"/>
     </defs>
     <use xlink:href="#SFRM3583-31" transform="scale(0.996264)"/>
    </g>
   </g>
   <g id="text_6">
    <!-- $V_0$ -->
    <g transform="translate(76.378877 260.790644) scale(0.27 -0.27)">
     <use xlink:href="#CMMI12-56" transform="scale(0.996264)"/>
     <use xlink:href="#CMR17-30" transform="translate(56.869579 -14.943915) scale(0.697382)"/>
    </g>
   </g>
   <g id="text_7">
    <!-- $4p_0$ -->
    <g transform="translate(7.2 89.094669) scale(0.27 -0.27)">
     <use xlink:href="#CMR17-34" transform="scale(0.996264)"/>
     <use xlink:href="#CMMI12-70" transform="translate(45.690477 0) scale(0.996264)"/>
     <use xlink:href="#CMR17-30" transform="translate(94.649991 -14.943915) scale(0.697382)"/>
    </g>
   </g>
   <g id="text_8">
    <!-- 2 -->
    <g transform="translate(91.629519 79.698059) scale(0.27 -0.27)">
     <defs>
      <path id="SFRM3583-32" d="M 390 3156 
C 442 3627 774 4083 1286 4083 
C 1843 4083 2234 3606 2234 3066 
L 2234 3014 
C 2195 2357 1754 1835 1344 1365 
L 352 213 
C 320 168 288 142 288 64 
L 288 0 
L 2438 0 
L 2573 907 
L 2490 907 
C 2438 610 2464 295 2195 295 
C 2029 295 1862 276 1696 276 
C 1600 276 1510 276 1421 276 
L 512 276 
C 838 637 1165 1012 1517 1353 
C 1990 1824 2573 2334 2573 3063 
C 2573 3798 1990 4224 1350 4224 
C 806 4224 429 3779 326 3303 
L 307 3207 
C 301 3148 288 3078 288 3014 
C 288 2891 333 2768 518 2768 
C 627 2788 698 2872 698 2968 
C 698 3071 621 3175 506 3175 
C 467 3175 429 3171 390 3156 
z
" transform="scale(0.015625)"/>
     </defs>
     <use xlink:href="#SFRM3583-32" transform="scale(0.996264)"/>
    </g>
   </g>
   <g id="text_9">
    <!-- $0$ -->
    <g transform="translate(35.752971 251.511864) scale(0.27 -0.27)">
     <use xlink:href="#CMR17-30" transform="scale(0.996264)"/>
    </g>
   </g>
  </g>
 </g>
 <defs>
  <clipPath id="p991273dee6">
   <rect x="47.655344" y="7.2" width="200.461017" height="266.112"/>
  </clipPath>
 </defs>
</svg>
