<?xml version="1.0" encoding="UTF-8" standalone="no"?>
<svg
   xml:lang="en"
   height="233.737pt"
   width="201.25999pt"
   viewBox="-103.6226 -38.976716 201.26 233.737"
   version="1.1"
   id="svg40"
   sodipodi:docname="575t.svg"
   inkscape:version="1.3.2 (091e20e, 2023-11-25)"
   xmlns:inkscape="http://www.inkscape.org/namespaces/inkscape"
   xmlns:sodipodi="http://sodipodi.sourceforge.net/DTD/sodipodi-0.dtd"
   xmlns="http://www.w3.org/2000/svg"
   xmlns:svg="http://www.w3.org/2000/svg">
  <defs
     id="defs40" />
  <sodipodi:namedview
     id="namedview40"
     pagecolor="#ffffff"
     bordercolor="#000000"
     borderopacity="0.25"
     inkscape:showpageshadow="2"
     inkscape:pageopacity="0.0"
     inkscape:pagecheckerboard="0"
     inkscape:deskcolor="#d1d1d1"
     inkscape:document-units="pt"
     inkscape:zoom="0.7128421"
     inkscape:cx="133.26935"
     inkscape:cy="150.10337"
     inkscape:current-layer="svg40" />
  <path
     d="m 46.247397,67.270284 a 8.1,12.15 0 0 1 4.16,12.08"
     style="fill:none;stroke:#000000;stroke-width:2"
     id="path1" />
  <path
     d="m 49.699847,85.407052 -1.701224,-6.341983 4.826766,0.567393 z"
     style="fill:#000000;stroke:#000000;stroke-linecap:butt;stroke-linejoin:miter"
     id="path2" />
  <path
     d="m -2.992603,-11.169716 h 44.65125 m 7.8975,0 h 44.65125"
     style="fill:none;stroke:#000000;stroke-width:2;stroke-linecap:round;stroke-linejoin:round"
     id="path3" />
  <path
     d="m 49.556147,4.625284 v -31.59"
     style="fill:none;stroke:#000000;stroke-width:2;stroke-linecap:round;stroke-linejoin:round"
     id="path4" />
  <path
     d="m 41.658647,-3.272216 v -15.795"
     style="fill:none;stroke:#000000;stroke-width:2;stroke-linecap:round;stroke-linejoin:round"
     id="path5" />
  <path
     d="m -2.992603,-11.169716 h -44.65125 m -7.8975,0 H -100.1926"
     style="fill:none;stroke:#000000;stroke-width:2;stroke-linecap:round;stroke-linejoin:round"
     id="path6" />
  <path
     d="m -55.541353,-26.964716 v 31.59"
     style="fill:none;stroke:#000000;stroke-width:2;stroke-linecap:round;stroke-linejoin:round"
     id="path7" />
  <path
     d="m -47.643853,-19.067216 v 15.795"
     style="fill:none;stroke:#000000;stroke-width:2;stroke-linecap:round;stroke-linejoin:round"
     id="path8" />
  <path
     d="m -100.1926,-11.169716 v 48.6 48.6"
     style="fill:none;stroke:#000000;stroke-width:2;stroke-linecap:round;stroke-linejoin:round"
     id="path9" />
  <path
     d="m -100.1926,86.030284 h 32.399997 v -8.1 h 32.4 v 16.2 h -32.4 v -8.1 m 32.4,0 h 32.4"
     style="fill:none;stroke:#000000;stroke-width:2;stroke-linecap:round;stroke-linejoin:round"
     id="path10" />
  <path
     d="m -2.992603,86.030284 h 32.4 m 7.776,-3.24 18.144,-11.34 m 6.48,14.58 h 32.4"
     style="fill:none;stroke:#000000;stroke-width:2;stroke-linecap:round;stroke-linejoin:round"
     id="path11" />
  <path
     d="m 94.207397,86.030284 v -48.6 -48.6"
     style="fill:none;stroke:#000000;stroke-width:2;stroke-linecap:round;stroke-linejoin:round"
     id="path12" />
  <path
     d="m 94.207397,86.030284 v 48.599996 48.6"
     style="fill:none;stroke:#000000;stroke-width:2;stroke-linecap:round;stroke-linejoin:round"
     id="path13" />
  <path
     d="m 94.207397,183.23028 h -28.6092 m 0,10.53 v -21.06 m -7.5816,21.06 v -21.06 m 0,10.53 h -28.6092"
     style="fill:none;stroke:#000000;stroke-width:2;stroke-linecap:round;stroke-linejoin:round"
     id="path14" />
  <path
     d="m 29.407397,183.23028 h -16.2 v 8.1 h -32.4 v -16.2 h 32.4 v 8.1 m -32.4,0 h -16.2"
     style="fill:none;stroke:#000000;stroke-width:2;stroke-linecap:round;stroke-linejoin:round"
     id="path15" />
  <path
     d="m -35.392603,183.23028 h -28.6092 m 0,10.53 v -21.06 m -7.5816,21.06 v -21.06 m 0,10.53 H -100.1926"
     style="fill:none;stroke:#000000;stroke-width:2;stroke-linecap:round;stroke-linejoin:round"
     id="path16" />
  <path
     d="m -100.1926,183.23028 v -48.6 -48.599996"
     style="fill:none;stroke:#000000;stroke-width:2;stroke-linecap:round;stroke-linejoin:round"
     id="path17" />
  <g
     id="g21"
     transform="translate(-2.992603,-11.169716)">
    <g
       id="g20">
      <g
         id="g19">
        <path
           d="m 68.571,-10.101 v 0 q -2.652,0 -4.134,-1.183 -1.482,-1.183 -1.482,-3.185 0,-1.612 0.871,-2.73 0.871,-1.118 2.275,-1.768 1.404,-0.65 2.99,-0.858 v -0.156 q -1.248,-0.39 -2.132,-1.326 -0.884,-0.936 -0.884,-2.314 0,-1.092 0.546,-1.872 0.546,-0.78 1.456,-1.3 0.91,-0.52 2.015,-0.767 1.105,-0.247 2.197,-0.247 0.962,0 1.95,0.234 0.988,0.234 1.664,0.819 0.676,0.585 0.676,1.703 0,0.962 -0.494,1.404 -0.494,0.442 -1.014,0.442 -0.416,0 -0.728,-0.247 -0.312,-0.247 -0.312,-0.741 0,-0.286 0.078,-0.689 0.078,-0.403 0.078,-0.741 0,-0.572 -0.377,-0.936 -0.377,-0.364 -1.521,-0.364 -1.794,0 -2.821,0.949 -1.027,0.949 -1.027,2.639 0,1.404 0.676,2.08 0.676,0.676 1.729,0.884 1.053,0.208 2.145,0.208 l -0.13,1.04 q -3.9,0 -5.616,1.014 -1.716,1.014 -1.716,3.38 0,1.898 0.949,2.782 0.949,0.884 2.535,0.884 3.12,0 4.602,-3.484 l 0.468,-0.13 q 0.182,0.26 0.429,0.715 0.247,0.455 0.247,0.663 0,0.208 -0.351,0.715 -0.351,0.507 -1.092,1.079 -0.741,0.572 -1.911,0.988 -1.17,0.416 -2.834,0.416 z"
           fill="#000000"
           id="path18" />
        <path
           d="m 85.868,-8.12 v 0 l -0.618,3.167 h -7.462 v -0.892 l 2.584,-2.621 q 1.019,-1.019 1.684,-1.801 0.664,-0.783 0.991,-1.575 0.328,-0.791 0.328,-1.811 0,-0.964 -0.591,-1.592 -0.592,-0.628 -1.666,-0.628 -0.983,0 -1.647,0.391 -0.664,0.392 -1.174,1.283 l -0.491,-0.236 q 0.455,-1.274 1.41,-2.002 0.956,-0.728 2.357,-0.728 1.092,0 1.929,0.391 0.838,0.391 1.311,1.119 0.473,0.728 0.473,1.766 0,0.892 -0.4,1.674 -0.401,0.783 -1.138,1.602 -0.737,0.819 -1.756,1.82 l -2.275,2.202 v 0.127 l 1.419,-0.072 h 2.366 q 0.528,0 0.81,-0.146 0.282,-0.146 0.483,-0.501 0.2,-0.354 0.436,-0.937 z"
           fill="#000000"
           id="path19" />
      </g>
    </g>
  </g>
  <g
     id="g24"
     transform="translate(-2.992603,-11.169716)">
    <g
       id="g23">
      <g
         id="g22">
        <path
           d="m -79.037,-10.101 v 0 q -2.652,0 -4.134,-1.183 -1.482,-1.183 -1.482,-3.185 0,-1.612 0.871,-2.73 0.871,-1.118 2.275,-1.768 1.404,-0.65 2.99,-0.858 v -0.156 q -1.248,-0.39 -2.132,-1.326 -0.884,-0.936 -0.884,-2.314 0,-1.092 0.546,-1.872 0.546,-0.78 1.456,-1.3 0.91,-0.52 2.015,-0.767 1.105,-0.247 2.197,-0.247 0.962,0 1.95,0.234 0.988,0.234 1.664,0.819 0.676,0.585 0.676,1.703 0,0.962 -0.494,1.404 -0.494,0.442 -1.014,0.442 -0.416,0 -0.728,-0.247 -0.312,-0.247 -0.312,-0.741 0,-0.286 0.078,-0.689 0.078,-0.403 0.078,-0.741 0,-0.572 -0.377,-0.936 -0.377,-0.364 -1.521,-0.364 -1.794,0 -2.821,0.949 -1.027,0.949 -1.027,2.639 0,1.404 0.676,2.08 0.676,0.676 1.729,0.884 1.053,0.208 2.145,0.208 l -0.13,1.04 q -3.9,0 -5.616,1.014 -1.716,1.014 -1.716,3.38 0,1.898 0.949,2.782 0.949,0.884 2.535,0.884 3.12,0 4.602,-3.484 l 0.468,-0.13 q 0.182,0.26 0.429,0.715 0.247,0.455 0.247,0.663 0,0.208 -0.351,0.715 -0.351,0.507 -1.092,1.079 -0.741,0.572 -1.911,0.988 -1.17,0.416 -2.834,0.416 z"
           fill="#000000"
           id="path21" />
        <path
           d="m -62.776,-4.953 v 0 h -6.17 v -0.655 q 1.31,0 1.738,-0.264 0.428,-0.264 0.428,-0.956 v -7.935 q 0,-0.491 -0.146,-0.71 -0.146,-0.218 -0.528,-0.218 -0.291,0 -0.792,0.082 -0.5,0.082 -0.864,0.173 v -0.728 l 3.367,-0.928 h 0.783 v 10.264 q 0,0.692 0.464,0.956 0.464,0.264 1.72,0.264 z"
           fill="#000000"
           id="path22" />
      </g>
    </g>
  </g>
  <circle
     cx="-100.1926"
     cy="86.030281"
     r="2.4300001"
     style="fill:#000000;stroke:#000000;stroke-width:2"
     id="circle24" />
  <g
     id="g27"
     transform="translate(-2.992603,-11.169716)">
    <g
       id="g26">
      <g
         id="g25">
        <path
           d="m -41.606,68.466 v 0 q 0,1.378 -0.52,2.314 -0.52,0.936 -1.352,1.534 -0.832,0.598 -1.781,0.923 -0.949,0.325 -1.807,0.481 v 0.13 q 0.468,0.312 0.884,0.949 0.416,0.637 1.027,1.833 0.611,1.196 1.677,3.224 0.442,0.78 0.975,1.053 0.533,0.273 1.417,0.273 l -0.156,0.78 h -3.952 q -0.728,-1.612 -1.222,-2.691 -0.494,-1.079 -0.858,-1.807 -0.364,-0.728 -0.637,-1.3 -0.273,-0.572 -0.585,-1.17 -0.286,-0.546 -0.624,-0.715 -0.338,-0.169 -1.04,-0.169 h -0.546 l -0.962,4.628 q -0.208,1.066 -0.143,1.599 0.065,0.533 0.585,0.689 0.52,0.156 1.638,0.156 l -0.13,0.78 h -7.176 l 0.156,-0.78 q 0.962,0 1.482,-0.156 0.52,-0.156 0.793,-0.676 0.273,-0.52 0.481,-1.612 l 2.288,-11.154 q 0.156,-0.728 0.078,-1.144 -0.078,-0.416 -0.533,-0.598 -0.455,-0.182 -1.495,-0.182 l 0.156,-0.78 h 6.11 q 2.73,0 4.251,0.845 1.521,0.845 1.521,2.743 z m -7.462,-2.496 v 0 l -1.456,7.176 0.806,0.026 q 1.56,-0.052 2.821,-0.507 1.261,-0.455 1.989,-1.443 0.728,-0.988 0.728,-2.652 0,-0.702 -0.299,-1.313 -0.299,-0.611 -1.027,-0.988 -0.728,-0.377 -2.028,-0.377 -0.494,0 -0.793,0.013 -0.299,0.013 -0.741,0.065 z"
           fill="#000000"
           id="path24" />
      </g>
    </g>
  </g>
  <circle
     cx="33.295395"
     cy="86.030281"
     r="3.888"
     style="fill:#ffffff;stroke:#000000;stroke-width:2"
     id="circle27" />
  <circle
     cx="57.919395"
     cy="86.030281"
     r="3.888"
     style="fill:#ffffff;stroke:#000000;stroke-width:2"
     id="circle28" />
  <circle
     cx="94.207397"
     cy="86.030281"
     r="2.4300001"
     style="fill:#000000;stroke:#000000;stroke-width:2"
     id="circle29" />
  <g
     id="g31"
     transform="translate(-2.992603,-11.169716)">
    <g
       id="g30">
      <g
         id="g29">
        <path
           d="m 43.198,67.89 v 0 L 45.33,57.646 q 0.208,-1.014 0.182,-1.599 -0.026,-0.585 -0.494,-0.819 -0.468,-0.234 -1.612,-0.234 l 0.156,-0.78 h 7.332 l -0.13,0.78 q -1.222,0 -1.82,0.234 -0.598,0.234 -0.845,0.819 -0.247,0.585 -0.455,1.599 l -0.988,4.862 h 0.104 l 4.966,-4.082 q 1.144,-0.91 1.833,-1.586 0.689,-0.676 0.689,-1.248 0,-0.598 -0.962,-0.598 h -0.442 l 0.182,-0.78 h 6.11 l -0.13,0.78 q -0.728,0.052 -1.235,0.221 -0.507,0.169 -1.027,0.507 -0.52,0.338 -1.326,0.988 l -6.708,5.408 5.746,7.28 q 0.52,0.624 1.157,0.871 0.637,0.247 1.599,0.247 l -0.156,0.78 h -7.488 l 0.13,-0.78 h 0.338 q 0.598,0 0.923,-0.156 0.325,-0.156 0.325,-0.598 0,-0.416 -0.247,-0.949 Q 50.79,68.28 50.179,67.422 49.568,66.564 48.45,65.238 L 46.812,63.262 H 46.5 l -0.936,4.628 q -0.208,1.118 -0.182,1.677 0.026,0.559 0.533,0.754 0.507,0.195 1.651,0.195 l -0.156,0.78 h -7.254 l 0.156,-0.78 q 1.092,0 1.625,-0.195 0.533,-0.195 0.78,-0.754 0.247,-0.559 0.481,-1.677 z"
           fill="#000000"
           id="path29" />
      </g>
    </g>
  </g>
  <g
     id="g34"
     transform="translate(-2.992603,-11.169716)">
    <g
       id="g33">
      <g
         id="g32">
        <path
           d="m 67.208,166.528 v 0 l 0.468,0.494 q -1.326,1.56 -3.068,2.561 -1.742,1.001 -4.212,1.001 -2.34,0 -3.744,-0.871 -1.404,-0.871 -2.015,-2.327 -0.611,-1.456 -0.611,-3.172 0,-2.73 0.832,-4.849 0.832,-2.119 2.275,-3.562 1.443,-1.443 3.263,-2.184 1.82,-0.741 3.796,-0.741 1.326,0 2.067,0.234 0.741,0.234 1.157,0.481 0.416,0.247 0.728,0.247 0.312,0 0.546,-0.26 0.234,-0.26 0.546,-0.676 h 0.754 l -1.222,5.954 H 67.91 q 0.104,-2.6 -0.962,-3.731 -1.066,-1.131 -2.99,-1.131 -1.508,0 -2.834,0.689 -1.326,0.689 -2.353,1.95 -1.027,1.261 -1.612,3.016 -0.585,1.755 -0.585,3.913 0,2.6 1.235,3.965 1.235,1.365 3.809,1.365 2.99,0 5.59,-2.366 z"
           fill="#000000"
           id="path31" />
        <path
           d="m 78.057,172.591 v 0 l -0.618,3.167 h -7.462 v -0.892 l 2.584,-2.621 q 1.019,-1.019 1.683,-1.801 0.665,-0.783 0.992,-1.575 0.328,-0.791 0.328,-1.811 0,-0.964 -0.592,-1.592 -0.591,-0.628 -1.665,-0.628 -0.983,0 -1.647,0.391 -0.664,0.392 -1.174,1.283 l -0.491,-0.236 q 0.455,-1.274 1.41,-2.002 0.956,-0.728 2.357,-0.728 1.092,0 1.929,0.391 0.838,0.391 1.311,1.119 0.473,0.728 0.473,1.766 0,0.892 -0.4,1.674 -0.401,0.783 -1.138,1.602 -0.737,0.819 -1.756,1.82 l -2.275,2.202 v 0.127 l 1.419,-0.072 h 2.366 q 0.528,0 0.81,-0.146 0.282,-0.146 0.483,-0.501 0.2,-0.354 0.436,-0.937 z"
           fill="#000000"
           id="path32" />
      </g>
    </g>
  </g>
  <g
     id="g37"
     transform="translate(-2.992603,-11.169716)">
    <g
       id="g36">
      <g
         id="g35">
        <path
           d="m 6.994,165.666 v 0 q 0,1.378 -0.52,2.314 -0.52,0.936 -1.352,1.534 -0.832,0.598 -1.781,0.923 -0.949,0.325 -1.807,0.481 v 0.13 q 0.468,0.312 0.884,0.949 0.416,0.637 1.027,1.833 0.611,1.196 1.677,3.224 0.442,0.78 0.975,1.053 0.533,0.273 1.417,0.273 l -0.156,0.78 H 3.406 q -0.728,-1.612 -1.222,-2.691 -0.494,-1.079 -0.858,-1.807 -0.364,-0.728 -0.637,-1.3 -0.273,-0.572 -0.585,-1.17 -0.286,-0.546 -0.624,-0.715 -0.338,-0.169 -1.04,-0.169 h -0.546 l -0.962,4.628 q -0.208,1.066 -0.143,1.599 0.065,0.533 0.585,0.689 0.52,0.156 1.638,0.156 l -0.13,0.78 h -7.176 l 0.156,-0.78 q 0.962,0 1.482,-0.156 0.52,-0.156 0.793,-0.676 0.273,-0.52 0.481,-1.612 l 2.288,-11.154 q 0.156,-0.728 0.078,-1.144 -0.078,-0.416 -0.533,-0.598 -0.455,-0.182 -1.495,-0.182 l 0.156,-0.78 h 6.11 q 2.73,0 4.251,0.845 1.521,0.845 1.521,2.743 z m -7.462,-2.496 v 0 l -1.456,7.176 0.806,0.026 q 1.56,-0.052 2.821,-0.507 1.261,-0.455 1.989,-1.443 0.728,-0.988 0.728,-2.652 0,-0.702 -0.299,-1.313 -0.299,-0.611 -1.027,-0.988 -0.728,-0.377 -2.028,-0.377 -0.494,0 -0.793,0.013 -0.299,0.013 -0.741,0.065 z"
           fill="#000000"
           id="path34" />
      </g>
    </g>
  </g>
  <g
     id="g40"
     transform="translate(-2.992603,-11.169716)">
    <g
       id="g39">
      <g
         id="g38">
        <path
           d="m -62.256,166.528 v 0 l 0.468,0.494 q -1.326,1.56 -3.068,2.561 -1.742,1.001 -4.212,1.001 -2.34,0 -3.744,-0.871 -1.404,-0.871 -2.015,-2.327 -0.611,-1.456 -0.611,-3.172 0,-2.73 0.832,-4.849 0.832,-2.119 2.275,-3.562 1.443,-1.443 3.263,-2.184 1.82,-0.741 3.796,-0.741 1.326,0 2.067,0.234 0.741,0.234 1.157,0.481 0.416,0.247 0.728,0.247 0.312,0 0.546,-0.26 0.234,-0.26 0.546,-0.676 h 0.754 l -1.222,5.954 h -0.858 q 0.104,-2.6 -0.962,-3.731 -1.066,-1.131 -2.99,-1.131 -1.508,0 -2.834,0.689 -1.326,0.689 -2.353,1.95 -1.027,1.261 -1.612,3.016 -0.585,1.755 -0.585,3.913 0,2.6 1.235,3.965 1.235,1.365 3.809,1.365 2.99,0 5.59,-2.366 z"
           fill="#000000"
           id="path37" />
        <path
           d="m -52.444,175.758 v 0 h -6.169 v -0.655 q 1.31,0 1.738,-0.264 0.427,-0.264 0.427,-0.956 v -7.935 q 0,-0.491 -0.145,-0.71 -0.146,-0.218 -0.528,-0.218 -0.291,0 -0.792,0.082 -0.5,0.082 -0.864,0.173 v -0.728 l 3.367,-0.928 h 0.782 v 10.264 q 0,0.692 0.465,0.956 0.464,0.264 1.719,0.264 z"
           fill="#000000"
           id="path38" />
      </g>
    </g>
  </g>
</svg>
