<?xml version="1.0" encoding="UTF-8" standalone="no"?>
<svg
   width="315.58923pt"
   height="302.33298pt"
   viewBox="0 0 315.58922 302.33297"
   version="1.1"
   id="svg25"
   sodipodi:docname="585t.svg"
   xmlns:inkscape="http://www.inkscape.org/namespaces/inkscape"
   xmlns:sodipodi="http://sodipodi.sourceforge.net/DTD/sodipodi-0.dtd"
   xmlns:xlink="http://www.w3.org/1999/xlink"
   xmlns="http://www.w3.org/2000/svg"
   xmlns:svg="http://www.w3.org/2000/svg"
   xmlns:rdf="http://www.w3.org/1999/02/22-rdf-syntax-ns#"
   xmlns:cc="http://creativecommons.org/ns#"
   xmlns:dc="http://purl.org/dc/elements/1.1/">
  <sodipodi:namedview
     id="namedview25"
     pagecolor="#ffffff"
     bordercolor="#000000"
     borderopacity="0.25"
     inkscape:showpageshadow="2"
     inkscape:pageopacity="0.0"
     inkscape:pagecheckerboard="0"
     inkscape:deskcolor="#d1d1d1"
     inkscape:document-units="pt" />
  <metadata
     id="metadata1">
    <rdf:RDF>
      <cc:Work>
        <dc:type
           rdf:resource="http://purl.org/dc/dcmitype/StillImage" />
        <dc:date>2024-01-31T08:06:56.379483</dc:date>
        <dc:format>image/svg+xml</dc:format>
        <dc:creator>
          <cc:Agent>
            <dc:title>Matplotlib v3.7.1, https://matplotlib.org/</dc:title>
          </cc:Agent>
        </dc:creator>
      </cc:Work>
    </rdf:RDF>
  </metadata>
  <defs
     id="defs1">
    <style
       type="text/css"
       id="style1">*{stroke-linejoin: round; stroke-linecap: butt}</style>
  </defs>
  <g
     id="figure_1"
     transform="translate(-8.971875,-8.578125)">
    <g
       id="axes_1">
      <g
         id="matplotlib.axis_1">
        <g
           id="xtick_1">
          <g
             id="line2d_1">
            <defs
               id="defs2">
              <path
                 id="m27ce035c58"
                 d="M 0,0 V 6.5"
                 style="stroke:#000000;stroke-width:2" />
            </defs>
            <g
               id="g2">
              <use
                 xlink:href="#m27ce035c58"
                 x="229.56583"
                 y="273.1611"
                 style="stroke:#000000;stroke-width:2"
                 id="use2" />
            </g>
          </g>
          <g
             id="text_1">
            <!-- $p_0$ -->
            <g
               transform="matrix(0.3,0,0,-0.3,216.06583,304.33924)"
               id="g4">
              <defs
                 id="defs3">
                <path
                   id="STIXTwoText-Italic-70"
                   d="m 1440,-70 c 966,0 1683,832 1683,2035 0,742 -384,1101 -864,1101 -320,0 -589,-186 -883,-532 v 7 h -26 l 90,493 h -122 l -915,-96 v -160 c 0,0 109,12 205,12 166,0 237,-57 237,-185 0,-45 -7,-83 -13,-122 L 32,-1408 h 1254 l 45,173 c -512,0 -646,173 -646,320 0,89 13,205 25,269 L 864,96 C 992,19 1242,-70 1440,-70 Z m -506,486 320,1549 c 173,390 423,742 820,742 179,0 486,-134 486,-742 C 2560,838 2138,205 1485,205 1222,205 1043,320 934,416 Z"
                   transform="scale(0.015625)" />
                <path
                   id="STIXTwoText-Regular-30"
                   d="m 1581,-70 c 1005,0 1414,1004 1414,2099 0,1318 -576,2080 -1401,2080 C 666,4109 173,3264 173,2048 173,915 550,-70 1581,-70 Z m 0,230 c -512,0 -794,614 -794,1856 0,1267 282,1875 787,1875 525,0 800,-601 800,-1901 C 2374,762 2086,160 1581,160 Z"
                   transform="scale(0.015625)" />
              </defs>
              <use
                 xlink:href="#STIXTwoText-Italic-70"
                 transform="translate(0,0.09375)"
                 id="use3" />
              <use
                 xlink:href="#STIXTwoText-Regular-30"
                 transform="matrix(0.7,0,0,0.7,52.099991,-14.278125)"
                 id="use4" />
            </g>
          </g>
        </g>
        <g
           id="xtick_2">
          <g
             id="line2d_2" />
          <g
             id="text_2">
            <!-- $p$ -->
            <g
               transform="matrix(0.3,0,0,-0.3,309.92205,304.33924)"
               id="g5">
              <use
                 xlink:href="#STIXTwoText-Italic-70"
                 transform="translate(0,0.09375)"
                 id="use5" />
            </g>
          </g>
        </g>
        <g
           id="xtick_3">
          <g
             id="line2d_3" />
          <g
             id="text_3">
            <!-- $0$ -->
            <g
               transform="matrix(0.3,0,0,-0.3,43.066726,304.33924)"
               id="g6">
              <use
                 xlink:href="#STIXTwoText-Regular-30"
                 transform="translate(0,0.796875)"
                 id="use6" />
            </g>
          </g>
        </g>
      </g>
      <g
         id="matplotlib.axis_2">
        <g
           id="ytick_1">
          <g
             id="line2d_4">
            <defs
               id="defs6">
              <path
                 id="m0c266defd4"
                 d="M 0,0 H -6.5"
                 style="stroke:#000000;stroke-width:2" />
            </defs>
            <g
               id="g7">
              <use
                 xlink:href="#m0c266defd4"
                 x="62.5"
                 y="201.56148"
                 style="stroke:#000000;stroke-width:2"
                 id="use7" />
            </g>
          </g>
          <g
             id="text_4">
            <!-- $V_0$ -->
            <g
               transform="matrix(0.3,0,0,-0.3,21.9,212.15054)"
               id="g9">
              <defs
                 id="defs7">
                <path
                   id="STIXTwoText-Italic-56"
                   d="m 1504,-32 2349,3360 c 390,582 518,685 864,685 l 13,192 H 3347 l -13,-192 c 288,0 384,-39 384,-167 0,-102 -83,-249 -198,-422 L 2144,1363 1773,800 h -32 l -45,749 -192,1824 c 0,45 -19,185 -19,230 -19,288 185,410 512,410 l 19,192 H 448 l -13,-192 c 339,0 448,-154 499,-583 L 1293,-32 Z"
                   transform="scale(0.015625)" />
              </defs>
              <use
                 xlink:href="#STIXTwoText-Italic-56"
                 transform="translate(0,0.296875)"
                 id="use8" />
              <use
                 xlink:href="#STIXTwoText-Regular-30"
                 transform="matrix(0.7,0,0,0.7,63.999985,-14.075)"
                 id="use9" />
            </g>
          </g>
        </g>
        <g
           id="ytick_2">
          <g
             id="line2d_5">
            <g
               id="g10">
              <use
                 xlink:href="#m0c266defd4"
                 x="62.5"
                 y="58.362194"
                 style="stroke:#000000;stroke-width:2"
                 id="use10" />
            </g>
          </g>
          <g
             id="text_5">
            <!-- $3V_0$ -->
            <g
               transform="matrix(0.3,0,0,-0.3,7.2,68.951255)"
               id="g13">
              <defs
                 id="defs10">
                <path
                   id="STIXTwoText-Regular-33"
                   d="m 1094,-83 c 935,0 1748,448 1748,1325 0,569 -429,908 -941,1068 v 20 c 403,256 691,492 691,934 0,486 -378,858 -1030,858 -525,0 -922,-295 -1159,-852 l 147,-83 c 218,339 455,519 839,519 397,0 653,-218 653,-596 0,-518 -455,-870 -890,-870 h -122 v -243 h 128 c 615,0 1159,-378 1159,-947 C 2317,422 1926,237 1523,237 1197,237 883,550 627,550 461,550 378,403 378,269 378,102 518,-83 1094,-83 Z"
                   transform="scale(0.015625)" />
              </defs>
              <use
                 xlink:href="#STIXTwoText-Regular-33"
                 transform="translate(0,0.296875)"
                 id="use11" />
              <use
                 xlink:href="#STIXTwoText-Italic-56"
                 transform="translate(49.499985,0.296875)"
                 id="use12" />
              <use
                 xlink:href="#STIXTwoText-Regular-30"
                 transform="matrix(0.7,0,0,0.7,113.49997,-14.075)"
                 id="use13" />
            </g>
          </g>
        </g>
        <g
           id="ytick_3">
          <g
             id="line2d_6" />
          <g
             id="text_6">
            <!-- $V$ -->
            <g
               transform="matrix(0.3,0,0,-0.3,33.3,28.378125)"
               id="g14">
              <use
                 xlink:href="#STIXTwoText-Italic-56"
                 transform="translate(0,0.296875)"
                 id="use14" />
            </g>
          </g>
        </g>
      </g>
      <g
         id="line2d_7">
        <path
           d="m 229.56583,201.56147 v -1.44645 -1.44646 -1.44646 -1.44646 -1.44645 -1.44646 -1.44646 -1.44645 -1.44646 -1.44646 -1.44646 -1.44645 -1.44646 -1.44646 -1.44646 -1.44645 -1.44646 -1.44646 -1.44646 -1.44645 -1.44646 -1.44646 -1.44646 -1.44645 -1.44646 -1.44646 -1.44646 -1.44645 -1.44646 -1.44646 -1.44645 -1.44646 -1.44646 -1.44646 -1.44645 -1.44646 -1.44646 -1.44646 -1.44645 -1.44646 -1.44646 -1.44646 -1.44645 -1.44646 -1.44646 -1.44646 -1.44645 -1.44646 -1.44646 -1.44646 -1.44645 -1.44646 -1.44646 -1.44645 -1.44646 -1.44646 -1.44646 -1.44645 -1.44646 -1.44646 -1.44646 -1.44645 -1.44646 -1.44646 -1.44646 -1.44645 -1.44646 -1.44646 -1.44645 -1.44646 V 98.863 97.416542 95.970085 94.523628 93.07717 91.630713 90.184255 88.737798 87.291341 85.844883 84.398426 82.951968 81.505511 80.059054 78.612596 77.166139 75.719681 74.273224 72.826767 71.380309 69.933852 68.487394 67.040937 65.59448 64.148022 62.701565 61.255107 59.80865 58.362193"
           clip-path="url(#p83ca8754fc)"
           style="fill:none;stroke:#000000;stroke-width:2;stroke-linecap:square"
           id="path14" />
      </g>
      <g
         id="line2d_8">
        <path
           d="M 229.56583,201.56147"
           clip-path="url(#p83ca8754fc)"
           style="fill:none;stroke:#000000;stroke-width:1.5;stroke-linecap:square"
           id="path15" />
        <defs
           id="defs15">
          <path
             id="m2a2b736994"
             d="M 0,4 C 1.060812,4 2.078319,3.578535 2.828427,2.828427 3.578535,2.078319 4,1.060812 4,0 4,-1.060812 3.578535,-2.078319 2.828427,-2.828427 2.078319,-3.578535 1.060812,-4 0,-4 -1.060812,-4 -2.078319,-3.578535 -2.828427,-2.828427 -3.578535,-2.078319 -4,-1.060812 -4,0 -4,1.060812 -3.578535,2.078319 -2.828427,2.828427 -2.078319,3.578535 -1.060812,4 0,4 Z"
             style="stroke:#000000" />
        </defs>
        <g
           clip-path="url(#p83ca8754fc)"
           id="g15">
          <use
             xlink:href="#m2a2b736994"
             x="229.56583"
             y="201.56148"
             style="stroke:#000000"
             id="use15" />
        </g>
      </g>
      <g
         id="line2d_9">
        <path
           d="M 229.56583,58.362193"
           clip-path="url(#p83ca8754fc)"
           style="fill:none;stroke:#000000;stroke-width:1.5;stroke-linecap:square"
           id="path16" />
        <g
           clip-path="url(#p83ca8754fc)"
           id="g16">
          <use
             xlink:href="#m2a2b736994"
             x="229.56583"
             y="58.362194"
             style="stroke:#000000"
             id="use16" />
        </g>
      </g>
      <g
         id="line2d_10">
        <path
           d="M 229.56583,201.56147 H 62.5"
           clip-path="url(#p83ca8754fc)"
           style="fill:none;stroke:#000000;stroke-width:1.6;stroke-dasharray:5.92, 2.56;stroke-dashoffset:0"
           id="path17" />
      </g>
      <g
         id="line2d_11">
        <path
           d="M 229.56583,58.362193 H 62.5"
           clip-path="url(#p83ca8754fc)"
           style="fill:none;stroke:#000000;stroke-width:1.6;stroke-dasharray:5.92, 2.56;stroke-dashoffset:0"
           id="path18" />
      </g>
      <g
         id="line2d_12">
        <path
           d="m 229.56583,201.56147 v 71.59965"
           clip-path="url(#p83ca8754fc)"
           style="fill:none;stroke:#000000;stroke-width:1.6;stroke-dasharray:5.92, 2.56;stroke-dashoffset:0"
           id="path19" />
      </g>
      <g
         id="patch_3">
        <path
           d="m 229.56583,123.45278 q 0,-0.72323 0,0.13468"
           clip-path="url(#p83ca8754fc)"
           style="fill:none;stroke:#000000;stroke-linecap:round"
           id="path20" />
        <path
           d="m 224.16583,139.78746 5.4,-16.2 5.4,16.2 z"
           clip-path="url(#p83ca8754fc)"
           style="stroke:#000000;stroke-linecap:round"
           id="path21" />
      </g>
      <g
         id="text_7">
        <!-- 1 -->
        <g
           transform="matrix(0.3,0,0,-0.3,236.32817,223.03787)"
           id="g21">
          <defs
             id="defs21">
            <path
               id="STIXTwoText-Regular-31"
               d="m 2726,0 v 179 c -588,0 -825,115 -825,429 V 4090 H 1715 L 474,3738 v -212 c 198,64 524,103 652,103 160,0 212,-90 212,-314 V 608 C 1338,288 1114,179 512,179 V 0 Z"
               transform="scale(0.015625)" />
          </defs>
          <use
             xlink:href="#STIXTwoText-Regular-31"
             id="use21" />
        </g>
      </g>
      <g
         id="text_8">
        <!-- 2 -->
        <g
           transform="matrix(0.3,0,0,-0.3,236.32817,51.463919)"
           id="g22">
          <defs
             id="defs22">
            <path
               id="STIXTwoText-Regular-32"
               d="m 2765,0 205,1024 H 2784 C 2637,640 2554,506 2214,506 H 1325 L 877,486 v 32 l 845,800 c 678,685 1043,1127 1043,1696 0,672 -506,1108 -1229,1108 -621,0 -1056,-359 -1254,-980 l 153,-64 c 237,480 519,628 935,628 492,0 800,-308 800,-788 0,-672 -320,-1075 -954,-1728 L 243,218 V 0 Z"
               transform="scale(0.015625)" />
          </defs>
          <use
             xlink:href="#STIXTwoText-Regular-32"
             id="use22" />
        </g>
      </g>
      <g
         id="patch_4">
        <path
           d="m 62.5,273.16112 q 127.68603,0 250.43926,0"
           style="fill:none;stroke:#000000;stroke-width:2.56;stroke-linecap:round"
           id="path22" />
        <path
           d="m 296.93926,268.86205 16,4.29907 -16,4.29906 z"
           style="stroke:#000000;stroke-width:2.56;stroke-linecap:round"
           id="path23" />
      </g>
      <g
         id="patch_5">
        <path
           d="m 62.5,273.16112 q 0,-127.68603 0,-250.439265"
           style="fill:none;stroke:#000000;stroke-width:2.56;stroke-linecap:round"
           id="path24" />
        <path
           d="m 58.200935,38.721855 4.299065,-16 4.299065,16 z"
           style="stroke:#000000;stroke-width:2.56;stroke-linecap:round"
           id="path25" />
      </g>
    </g>
  </g>
  <defs
     id="defs25">
    <clipPath
       id="p83ca8754fc">
      <rect
         x="50.566727"
         y="17.789062"
         width="267.30533"
         height="266.112"
         id="rect25" />
    </clipPath>
  </defs>
</svg>
