<?xml version="1.0" standalone="no"?>
<!DOCTYPE svg PUBLIC "-//W3C//DTD SVG 20010904//EN"
 "http://www.w3.org/TR/2001/REC-SVG-20010904/DTD/svg10.dtd">
<svg version="1.0" xmlns="http://www.w3.org/2000/svg"
 width="711.435633pt" height="344.314614pt" viewBox="0 0 711.435633 344.314614"
 preserveAspectRatio="xMidYMid meet">
<metadata>
Created by potrace 1.16, written by Peter Selinger 2001-2019
</metadata>
<g transform="translate(-62.500000,392.000000) scale(0.100000,-0.100000)"
fill="#000000" stroke="none">
<path d="M1860 3900 c0 -17 5 -19 33 -13 17 3 39 12 47 19 12 12 8 14 -33 14
-40 0 -47 -3 -47 -20z"/>
<path d="M1634 3895 c-68 -29 -104 -151 -69 -240 23 -62 60 -95 105 -95 72 0
120 68 120 170 0 125 -72 201 -156 165z m69 -33 c33 -37 34 -224 1 -257 -23
-23 -63 -19 -73 8 -22 59 -16 221 9 253 17 19 44 18 63 -4z"/>
<path d="M1360 3884 c-14 -7 -35 -14 -47 -14 -14 0 -23 -6 -23 -15 0 -11 11
-15 35 -15 l36 0 -3 -122 -3 -123 -27 -3 c-16 -2 -28 -9 -28 -18 0 -11 15 -14
68 -14 73 0 112 7 112 21 0 5 -13 9 -30 9 -35 0 -32 -14 -30 183 1 117 0 127
-17 126 -10 -1 -29 -7 -43 -15z"/>
<path d="M2070 3892 c0 -4 13 -12 28 -18 l28 -11 0 -129 -1 -129 -30 -15 -30
-15 48 -3 c26 -2 67 -2 90 0 40 4 39 8 -8 23 -12 4 -15 28 -15 134 0 87 4 132
11 137 16 10 99 16 127 9 22 -5 23 -7 20 -143 -3 -134 -4 -137 -25 -140 -13
-2 -23 -8 -23 -13 0 -5 36 -9 80 -9 77 0 105 12 56 24 -29 7 -35 37 -29 166 5
113 6 120 33 120 11 0 20 5 20 10 0 6 -70 10 -190 10 -104 0 -190 -4 -190 -8z"/>
<path d="M1847 3850 c-7 -29 -1 -38 15 -22 17 17 55 15 62 -4 17 -44 -1 -84
-37 -84 -13 0 -17 5 -12 19 3 10 -1 23 -10 31 -12 10 -16 9 -21 -5 -18 -47 66
-75 105 -36 28 28 26 57 -5 88 -19 19 -32 24 -54 20 -18 -4 -30 -2 -33 6 -2 6
-6 1 -10 -13z"/>
<path d="M2930 3868 c0 -4 -13 -59 -30 -121 -16 -63 -30 -119 -30 -126 0 -6
12 -11 28 -11 l27 0 2 -223 c1 -122 2 -709 3 -1304 l0 -1082 818 5 c449 3
1012 6 1250 7 l432 3 0 -28 c0 -15 4 -28 10 -28 11 0 217 57 240 66 16 7 -33
23 -167 53 l-83 19 0 -29 0 -29 -205 0 -205 0 0 137 c0 146 -11 178 -15 41 -1
-46 -3 -104 -3 -130 l-2 -48 -335 0 -335 0 0 298 0 299 24 11 c13 6 27 20 30
30 8 25 60 29 381 28 l239 -1 -1 -188 c0 -103 4 -190 8 -193 5 -3 8 381 7 883
l-3 888 -306 0 -307 1 -31 33 c-25 27 -36 32 -59 27 -15 -4 -39 -20 -53 -36
l-25 -30 -642 0 -642 0 0 259 0 260 28 3 c17 2 26 9 25 18 -4 49 -71 267 -73
238z m691 -825 c6 -409 6 -610 -2 -625 -9 -17 -31 -18 -337 -16 l-327 3 -3
332 -2 332 32 3 c18 2 169 5 336 6 l302 3 1 -38z m629 27 c0 -5 9 -19 20 -30
18 -18 19 -35 20 -207 1 -103 -1 -195 -3 -203 -4 -13 -15 -55 -54 -202 -4 -16
-20 -18 -146 -19 -78 0 -191 -2 -252 -3 -60 -1 -129 0 -152 2 l-43 5 0 333 0
334 305 0 c197 0 305 -4 305 -10z m751 -177 c0 -104 1 -250 1 -326 1 -103 -2
-141 -12 -147 -7 -4 -141 -7 -298 -6 l-286 1 -8 25 c-4 14 -17 57 -30 95 -19
61 -22 97 -26 275 l-3 206 28 32 28 31 303 1 302 0 1 -187z m-784 -507 c3 -2
-5 -38 -16 -78 -12 -41 -21 -79 -21 -86 0 -6 22 -12 53 -14 l52 -3 3 -213 c2
-209 2 -214 -20 -242 l-23 -29 -302 0 -303 -1 0 335 0 334 98 3 c131 4 474 0
479 -6z m784 -3 c7 -160 6 -644 -2 -649 -6 -3 -144 -8 -307 -11 l-297 -5 -24
33 c-24 32 -24 37 -25 243 l-1 211 56 3 56 3 -18 72 c-11 40 -22 80 -25 89 -6
20 11 21 359 26 212 3 227 2 228 -15z m-1375 -327 l0 -334 -30 -4 c-17 -3
-167 -6 -333 -7 l-303 -3 -1 34 c-5 115 -6 598 -2 621 l5 27 332 0 332 0 0
-334z m587 -355 c31 -1 39 -6 47 -27 6 -14 19 -28 30 -31 19 -5 20 -15 21
-232 1 -224 0 -364 -4 -367 -1 -1 -150 -4 -332 -6 l-330 -3 -5 190 c-7 226
-10 222 -13 -15 l-2 -175 -332 -3 -333 -3 0 48 c-1 26 -1 176 -2 333 l-2 285
337 3 336 2 -1 -135 c-1 -74 1 -137 5 -141 4 -4 7 56 7 134 l0 142 168 2 c145
3 263 2 405 -1z"/>
<path d="M856 3793 c-3 -4 -38 -6 -76 -5 -42 1 -70 -2 -70 -8 0 -5 7 -10 15
-10 20 0 20 1 -16 -142 -25 -99 -36 -127 -57 -145 l-27 -23 68 0 c38 0 67 4
67 10 0 6 -9 10 -20 10 -19 0 -20 4 -15 38 10 60 14 67 27 54 7 -7 28 -12 47
-12 28 0 43 9 77 44 50 53 66 111 40 151 -18 27 -50 48 -60 38z m12 -88 c-6
-70 -33 -110 -74 -110 -25 0 -30 4 -32 29 -4 36 24 113 46 126 9 5 28 10 41
10 22 0 23 -2 19 -55z"/>
<path d="M2532 3784 c-40 -28 -22 -99 19 -73 11 7 12 12 1 29 -11 18 -9 22 12
31 31 15 66 -3 66 -34 0 -18 -8 -25 -43 -34 -60 -16 -97 -48 -97 -83 0 -32 31
-60 67 -60 29 0 73 20 73 34 0 6 7 0 16 -12 17 -25 41 -28 67 -7 18 13 17 14
-5 17 -21 3 -23 8 -28 86 -4 73 -8 86 -29 103 -28 23 -88 25 -119 3z m103
-136 c-11 -51 -58 -76 -83 -45 -26 31 12 75 66 76 21 1 23 -2 17 -31z"/>
<path d="M997 3623 c-14 -14 -6 -45 13 -50 24 -6 26 -26 4 -47 -8 -9 -14 -21
-12 -27 2 -7 18 3 36 20 48 49 41 111 -13 111 -12 0 -25 -3 -28 -7z"/>
<path d="M4513 3469 c-40 -12 -66 -48 -61 -86 3 -24 8 -28 33 -28 23 0 31 5
33 23 2 15 -2 22 -12 22 -9 0 -16 7 -16 15 0 30 73 48 98 23 7 -7 12 -30 12
-51 0 -35 -7 -46 -73 -112 -85 -86 -109 -122 -87 -135 8 -5 55 -7 105 -5 49 2
96 4 103 5 9 0 12 15 10 53 -3 51 -19 71 -26 32 -2 -11 -9 -26 -14 -32 -12
-15 -128 -18 -128 -4 0 5 29 33 65 61 85 68 105 94 105 140 0 66 -69 103 -147
79z"/>
<path d="M2660 3262 c-80 -85 -78 -234 6 -288 94 -62 215 48 163 149 -26 51
-91 73 -141 46 -11 -6 -22 -9 -24 -6 -10 10 23 82 46 99 30 22 60 15 53 -11
-5 -21 21 -45 42 -37 23 8 18 53 -7 70 -12 9 -40 16 -62 16 -32 0 -45 -7 -76
-38z m97 -128 c35 -54 10 -154 -38 -154 -57 0 -71 148 -16 170 33 13 35 12 54
-16z"/>
<path d="M2686 2476 c-47 -63 -86 -119 -86 -124 0 -15 33 -20 84 -15 46 6 46
5 46 -25 0 -23 -5 -31 -20 -34 -12 -2 -22 -7 -23 -13 -1 -6 31 -11 76 -13 64
-2 77 0 77 13 0 9 -9 15 -25 15 -20 0 -25 5 -25 24 0 17 7 26 25 30 14 4 25
11 25 16 0 6 -11 10 -25 10 l-25 0 0 115 c0 63 -4 115 -9 115 -5 0 -48 -51
-95 -114z m44 -51 l0 -65 -45 0 c-25 0 -45 4 -45 8 0 10 79 122 86 122 2 0 4
-29 4 -65z"/>
<path d="M2681 1867 c-13 -6 -33 -24 -43 -38 -31 -42 -6 -99 36 -83 24 9 26
33 6 52 -20 18 -20 19 -1 36 29 26 73 17 89 -17 21 -44 6 -76 -68 -147 -65
-62 -90 -95 -90 -119 0 -7 39 -11 110 -11 l110 0 0 50 c0 53 -15 67 -26 25 -5
-20 -13 -25 -38 -26 -17 -1 -47 -2 -68 -3 -50 -4 -41 11 44 75 77 57 104 100
93 151 -12 55 -96 85 -154 55z"/>
<path d="M4508 1591 c-55 -19 -62 -38 -15 -43 l32 -3 3 -100 c4 -132 0 -145
-40 -145 -28 0 -30 -2 -18 -13 17 -16 180 -12 180 4 0 5 -11 9 -24 9 -14 0
-28 6 -32 12 -5 7 -7 77 -6 155 2 161 7 154 -80 124z"/>
<path d="M6992 894 c-25 -17 -30 -54 -7 -54 9 0 15 10 15 26 0 21 4 25 23 22
35 -5 36 -51 0 -67 l-28 -14 28 -9 c24 -9 28 -15 25 -42 -2 -26 -7 -31 -28
-31 -21 0 -25 4 -22 28 3 28 -4 33 -26 18 -21 -13 -10 -44 22 -60 25 -12 33
-11 62 3 27 12 34 22 34 45 0 16 -7 34 -15 41 -14 12 -14 15 0 30 8 9 15 24
15 33 0 18 -37 47 -60 47 -9 0 -26 -7 -38 -16z"/>
<path d="M7631 893 c-15 -12 -20 -24 -15 -36 9 -24 29 -15 28 12 -1 32 50 26
54 -7 3 -17 -4 -26 -30 -36 -34 -15 -34 -15 17 -31 19 -6 20 -61 1 -68 -8 -3
-23 -3 -34 0 -18 4 -19 8 -9 24 13 21 5 34 -18 26 -18 -7 -20 -38 -3 -55 19
-19 82 -15 101 6 22 24 22 58 0 71 -16 9 -16 11 2 31 18 20 18 24 4 48 -18 34
-66 41 -98 15z"/>
<path d="M5104 864 c-21 -8 -40 -14 -40 -14 -1 0 -11 -20 -23 -45 -41 -87 -20
-216 41 -259 31 -22 90 -20 120 4 40 31 58 80 58 155 0 70 -13 107 -52 141
-32 29 -58 34 -104 18z m69 -28 c27 -27 33 -170 11 -249 -7 -22 -38 -39 -59
-31 -39 15 -61 169 -35 241 19 49 56 66 83 39z"/>
<path d="M6310 865 c-14 -8 -35 -14 -47 -15 -14 0 -23 -6 -23 -15 0 -9 9 -15
24 -15 38 0 45 -18 42 -120 -4 -138 -2 -130 -36 -130 -20 0 -30 -5 -30 -15 0
-12 17 -15 90 -15 71 0 90 3 90 14 0 9 -12 16 -27 18 l-28 3 -3 153 c-3 162
-4 165 -52 137z"/>
<path d="M6556 859 c-34 -27 -46 -50 -56 -112 -15 -98 24 -184 97 -208 96 -31
172 117 128 250 -9 28 -28 60 -42 71 -34 27 -92 26 -127 -1z m105 -26 c10 -11
14 -47 14 -123 0 -93 -3 -111 -19 -129 -27 -30 -58 -23 -79 19 -15 28 -17 52
-14 120 2 47 9 95 15 108 15 27 63 30 83 5z"/>
<path d="M3480 849 c-19 -10 -43 -19 -52 -19 -33 0 -20 -29 15 -32 l32 -3 3
-90 c2 -49 1 -105 -3 -122 -5 -28 -10 -33 -35 -33 -20 0 -30 -5 -30 -15 0 -12
16 -14 92 -12 60 1 93 6 95 14 3 7 -9 13 -29 15 l-33 3 -3 158 c-1 86 -6 157
-10 156 -4 0 -23 -9 -42 -20z"/>
<path d="M3708 845 c-43 -29 -60 -73 -61 -159 -1 -123 78 -195 168 -154 54 25
82 107 70 205 -6 48 -13 63 -45 95 -45 46 -79 49 -132 13z m101 -35 c14 -25
18 -49 17 -119 -2 -100 -20 -141 -60 -141 -43 0 -51 24 -51 147 0 102 2 116
19 129 31 22 55 17 75 -16z"/>
<path d="M4139 855 c-31 -17 -54 -65 -45 -93 7 -22 32 -36 47 -26 14 8 11 62
-3 67 -24 7 12 37 45 37 52 0 72 -52 43 -109 -8 -15 -36 -46 -63 -69 -49 -41
-98 -113 -86 -126 3 -3 53 -6 110 -6 l103 0 0 50 c0 52 -14 66 -26 28 -4 -13
-12 -26 -18 -30 -17 -11 -116 -9 -116 2 0 5 33 37 74 71 79 64 99 99 89 150
-12 60 -91 88 -154 54z"/>
<path d="M4383 843 c-45 -39 -68 -125 -52 -190 16 -64 36 -97 71 -118 61 -35
145 16 165 101 11 44 2 138 -16 172 -34 63 -116 80 -168 35z m107 -19 c15 -17
20 -191 7 -236 -14 -51 -78 -48 -96 4 -16 45 -14 172 3 213 12 29 20 35 44 35
16 0 35 -7 42 -16z"/>
<path d="M4796 845 c-28 -26 -33 -54 -14 -73 32 -32 73 2 49 41 -10 16 -10 21
1 28 28 18 72 4 87 -27 18 -40 -9 -80 -59 -89 -39 -7 -59 -35 -22 -33 83 6
124 -84 58 -127 -44 -29 -113 8 -72 38 21 15 12 44 -15 52 -28 9 -49 -12 -49
-51 0 -44 43 -76 104 -76 111 0 164 86 95 154 l-31 31 26 24 c37 34 36 85 -3
112 -43 31 -120 29 -155 -4z"/>
<path d="M5570 862 c0 -5 11 -14 24 -20 20 -9 24 -19 30 -89 15 -177 19 -213
25 -213 3 0 44 55 91 122 95 136 140 188 164 188 9 0 16 5 16 10 0 6 -28 10
-65 10 -37 0 -65 -4 -65 -10 0 -5 9 -10 20 -10 11 0 20 -6 20 -12 -1 -21 -133
-199 -141 -191 -9 9 -27 174 -21 192 2 6 12 11 23 11 10 0 19 5 19 10 0 6 -30
10 -70 10 -38 0 -70 -4 -70 -8z"/>
<path d="M2674 848 c-35 -17 -74 -98 -74 -155 0 -169 142 -244 221 -117 27 44
32 136 11 199 -23 69 -97 103 -158 73z m85 -32 c34 -41 30 -237 -5 -263 -55
-40 -87 6 -88 125 -1 106 16 152 55 152 15 0 32 -6 38 -14z"/>
<path d="M6815 800 c-27 -3 -45 -8 -40 -12 12 -7 142 -4 150 4 9 9 -55 14
-110 8z"/>
<path d="M7250 760 c0 -7 9 -14 20 -17 17 -4 19 -14 19 -72 0 -79 -5 -101 -25
-101 -8 0 -14 -4 -14 -10 0 -5 23 -10 50 -10 50 0 67 13 30 23 -18 5 -20 14
-20 76 0 39 3 71 8 71 4 0 23 -38 42 -85 19 -47 40 -85 47 -85 6 0 24 39 39
86 30 96 43 95 41 0 -1 -48 -5 -60 -19 -64 -38 -10 -15 -22 42 -22 58 0 80 12
40 23 -18 5 -20 14 -20 85 0 72 2 81 20 87 37 12 20 25 -33 25 -48 0 -53 -2
-65 -30 -8 -16 -18 -45 -23 -65 -6 -19 -14 -35 -18 -35 -5 0 -20 28 -34 63
l-25 62 -51 3 c-33 2 -51 -1 -51 -8z"/>
<path d="M5947 603 c-14 -13 -6 -41 16 -56 l22 -15 -23 -25 c-34 -37 -11 -42
26 -5 35 33 41 68 16 92 -16 16 -46 21 -57 9z"/>
</g>
</svg>
