<?xml version="1.0" encoding="utf-8" standalone="no"?>
<!DOCTYPE svg PUBLIC "-//W3C//DTD SVG 1.1//EN"
  "http://www.w3.org/Graphics/SVG/1.1/DTD/svg11.dtd">
<svg xmlns:xlink="http://www.w3.org/1999/xlink" width="271.930206pt" height="281.166181pt" viewBox="0 26 271.930206 281.166181" xmlns="http://www.w3.org/2000/svg" version="1.1">
 <metadata>
  <rdf:RDF xmlns:dc="http://purl.org/dc/elements/1.1/" xmlns:cc="http://creativecommons.org/ns#" xmlns:rdf="http://www.w3.org/1999/02/22-rdf-syntax-ns#">
   <cc:Work>
    <dc:type rdf:resource="http://purl.org/dc/dcmitype/StillImage"/>
    <dc:date>2023-08-03T11:10:24.539223</dc:date>
    <dc:format>image/svg+xml</dc:format>
    <dc:creator>
     <cc:Agent>
      <dc:title>Matplotlib v3.7.1, https://matplotlib.org/</dc:title>
     </cc:Agent>
    </dc:creator>
   </cc:Work>
  </rdf:RDF>
 </metadata>
 <defs>
  <style type="text/css">*{stroke-linejoin: round; stroke-linecap: butt}</style>
 </defs>
 <g id="figure_1">
  <g id="patch_1">
   <path d="M 0 281.166181 
L 271.930206 281.166181 
L 271.930206 0 
L 0 0 
z
" style="fill: #ffffff"/>
  </g>
  <g id="axes_1">
   <g id="patch_2">
    <path d="M 48.36702 26.334159 
L 50.942772 36.637168 
L 48.381739 36.637168 
L 48.381739 242.697345 
L 48.352302 242.697345 
L 48.352302 36.637168 
L 45.791268 36.637168 
z
" style="stroke: #000000; stroke-width: 1.4; stroke-linejoin: miter"/>
   </g>
   <g id="patch_3">
    <path d="M 264.730206 242.697345 
L 254.427197 245.273097 
L 254.427197 242.712064 
L 48.36702 242.712064 
L 48.36702 242.682627 
L 254.427197 242.682627 
L 254.427197 240.121593 
z
" style="stroke: #000000; stroke-width: 1.4; stroke-linejoin: miter"/>
   </g>
   <g id="patch_4">
    <path d="M 174.3581 183.823009 
L 166.115693 187.944212 
L 166.115693 183.837727 
L 107.241357 183.837727 
L 107.241357 183.80829 
L 166.115693 183.80829 
L 166.115693 179.701805 
z
" clip-path="url(#p2a658a9c51)" style="stroke: #000000; stroke-width: 2.24; stroke-linejoin: miter"/>
   </g>
   <g id="patch_5">
    <path d="M 145.508772 136.001761 
L 154.280745 138.825602 
L 151.407114 141.759109 
L 151.407408 141.759397 
L 151.386809 141.780426 
L 151.386515 141.780138 
L 148.512883 144.713644 
z
" clip-path="url(#p2a658a9c51)" style="stroke: #000000; stroke-width: 2.24; stroke-linejoin: miter"/>
   </g>
   <g id="patch_6">
    <path d="M 107.241357 133.19108 
L 103.120153 124.948673 
L 107.226638 124.948673 
L 107.226638 66.074336 
L 107.256075 66.074336 
L 107.256075 124.948673 
L 111.36256 124.948673 
z
" clip-path="url(#p2a658a9c51)" style="stroke: #000000; stroke-width: 2.24; stroke-linejoin: miter"/>
   </g>
   <g id="line2d_1">
    <path d="M 107.241357 245.444814 
L 107.241357 239.949876 
" style="fill: none; stroke: #000000; stroke-width: 1.4; stroke-linecap: square"/>
   </g>
   <g id="line2d_2">
    <path d="M 45.619551 183.823009 
L 51.114489 183.823009 
" style="fill: none; stroke: #000000; stroke-width: 1.4; stroke-linecap: square"/>
   </g>
   <g id="line2d_3">
    <path d="M 224.990029 245.444814 
L 224.990029 239.949876 
" style="fill: none; stroke: #000000; stroke-width: 1.4; stroke-linecap: square"/>
   </g>
   <g id="line2d_4">
    <path d="M 107.241357 245.444814 
L 107.241357 239.949876 
" style="fill: none; stroke: #000000; stroke-width: 1.4; stroke-linecap: square"/>
   </g>
   <g id="line2d_5">
    <path d="M 45.619551 66.074336 
L 51.114489 66.074336 
" style="fill: none; stroke: #000000; stroke-width: 1.4; stroke-linecap: square"/>
   </g>
   <g id="line2d_6">
    <path d="M 107.241357 183.823009 
L 224.990029 183.823009 
" clip-path="url(#p2a658a9c51)" style="fill: none; stroke: #000000; stroke-width: 2.24; stroke-linecap: square"/>
   </g>
   <g id="line2d_7">
    <path d="M 107.241357 66.074336 
L 109.644391 73.000729 
L 112.047425 79.404375 
L 114.450459 85.342301 
L 116.853493 90.863531 
L 119.256527 96.010439 
L 121.659561 100.819846 
L 124.062595 105.323894 
L 126.46563 109.550769 
L 128.868664 113.525294 
L 131.271698 117.269411 
L 133.674732 120.802593 
L 136.077766 124.142175 
L 138.4808 127.303646 
L 140.883834 130.300885 
L 143.286869 133.146365 
L 145.689903 135.851327 
L 148.092937 138.42593 
L 150.495971 140.879375 
L 152.899005 143.220018 
L 155.302039 145.455464 
L 157.705073 147.592648 
L 160.108107 149.63791 
L 162.511142 151.597056 
L 164.914176 153.475413 
L 167.31721 155.277876 
L 169.720244 157.008955 
L 172.123278 158.672807 
L 174.526312 160.273274 
L 176.929346 161.813911 
L 179.332381 163.298011 
L 181.735415 164.72863 
L 184.138449 166.108607 
L 186.541483 167.440585 
L 188.944517 168.727025 
L 191.347551 169.970224 
L 193.750585 171.172325 
L 196.153619 172.335333 
L 198.556654 173.461126 
L 200.959688 174.55146 
L 203.362722 175.607985 
L 205.765756 176.63225 
L 208.16879 177.62571 
L 210.571824 178.589735 
L 212.974858 179.525612 
L 215.377893 180.434558 
L 217.780927 181.317718 
L 220.183961 182.176174 
L 222.586995 183.010949 
L 224.990029 183.823009 
" clip-path="url(#p2a658a9c51)" style="fill: none; stroke: #000000; stroke-width: 2.24; stroke-linecap: square"/>
   </g>
   <g id="line2d_8">
    <path d="M 107.241357 66.074336 
L 107.241357 183.823009 
" clip-path="url(#p2a658a9c51)" style="fill: none; stroke: #000000; stroke-width: 2.24; stroke-linecap: square"/>
   </g>
   <g id="line2d_9">
    <path d="M 48.36702 183.823009 
L 107.241357 183.823009 
" clip-path="url(#p2a658a9c51)" style="fill: none; stroke-dasharray: 4.144,1.792; stroke-dashoffset: 0; stroke: #000000; stroke-width: 1.12"/>
   </g>
   <g id="line2d_10">
    <path d="M 107.241357 242.697345 
L 107.241357 183.823009 
" clip-path="url(#p2a658a9c51)" style="fill: none; stroke-dasharray: 4.144,1.792; stroke-dashoffset: 0; stroke: #000000; stroke-width: 1.12"/>
   </g>
   <g id="line2d_11">
    <path d="M 224.990029 242.697345 
L 224.990029 183.823009 
" clip-path="url(#p2a658a9c51)" style="fill: none; stroke-dasharray: 4.144,1.792; stroke-dashoffset: 0; stroke: #000000; stroke-width: 1.12"/>
   </g>
   <g id="line2d_12">
    <path d="M 48.36702 66.074336 
L 107.241357 66.074336 
" clip-path="url(#p2a658a9c51)" style="fill: none; stroke-dasharray: 4.144,1.792; stroke-dashoffset: 0; stroke: #000000; stroke-width: 1.12"/>
   </g>
   <g id="text_1">
    <!-- $V$ -->
    <g transform="translate(247.034152 268.927854) scale(0.26 -0.26)">
     <defs>
      <path id="CMMI12-56" d="M 3962 3640 
C 4179 3984 4378 4136 4704 4162 
C 4768 4168 4819 4168 4819 4282 
C 4819 4308 4806 4346 4749 4346 
C 4634 4346 4358 4346 4243 4346 
C 4058 4346 3866 4346 3686 4346 
C 3635 4346 3571 4346 3571 4226 
C 3571 4168 3629 4162 3654 4162 
C 3891 4143 3917 4029 3917 3952 
C 3917 3857 3827 3710 3821 3704 
L 1811 540 
L 1363 3969 
C 1363 4160 1696 4160 1766 4160 
C 1862 4160 1920 4160 1920 4282 
C 1920 4346 1850 4346 1830 4346 
C 1722 4346 1594 4346 1485 4346 
L 1126 4346 
C 659 4346 467 4346 461 4346 
C 422 4346 346 4346 346 4230 
C 346 4160 390 4160 493 4160 
C 819 4160 838 4102 858 3944 
L 1370 24 
C 1389 -109 1389 -128 1478 -128 
C 1555 -128 1587 -109 1651 -8 
L 3962 3640 
z
" transform="scale(0.015625)"/>
     </defs>
     <use xlink:href="#CMMI12-56" transform="scale(0.996264)"/>
    </g>
   </g>
   <g id="text_2">
    <!-- $p$ -->
    <g transform="translate(27.395142 43.112056) scale(0.26 -0.26)">
     <defs>
      <path id="CMMI12-70" d="M 275 -789 
C 230 -980 205 -1031 -58 -1031 
C -134 -1031 -198 -1031 -198 -1152 
C -198 -1165 -192 -1216 -122 -1216 
C -38 -1216 51 -1216 134 -1216 
L 410 -1216 
C 544 -1216 870 -1216 1005 -1216 
C 1043 -1216 1120 -1216 1120 -1101 
C 1120 -1031 1075 -1031 966 -1031 
C 672 -1031 653 -987 653 -937 
C 653 -861 941 219 979 364 
C 1050 185 1222 -64 1555 -64 
C 2278 -64 3059 875 3059 1814 
C 3059 2401 2726 2816 2246 2816 
C 1837 2816 1491 2420 1421 2331 
C 1370 2650 1120 2816 864 2816 
C 678 2816 531 2727 410 2484 
C 294 2254 205 1865 205 1839 
C 205 1814 230 1782 275 1782 
C 326 1782 333 1788 371 1935 
C 467 2312 589 2689 845 2689 
C 992 2689 1043 2587 1043 2397 
C 1043 2245 1024 2181 998 2067 
L 275 -789 
z
M 1382 1993 
C 1427 2171 1606 2357 1709 2446 
C 1779 2510 1990 2689 2234 2689 
C 2515 2689 2643 2408 2643 2076 
C 2643 1769 2464 1047 2304 715 
C 2144 370 1850 64 1555 64 
C 1120 64 1050 613 1050 639 
C 1050 658 1062 709 1069 741 
L 1382 1993 
z
" transform="scale(0.015625)"/>
     </defs>
     <use xlink:href="#CMMI12-70" transform="scale(0.996264)"/>
    </g>
   </g>
   <g id="text_3">
    <!-- $V_0$ -->
    <g transform="translate(95.690503 268.927854) scale(0.26 -0.26)">
     <defs>
      <path id="CMR17-30" d="M 2688 2025 
C 2688 2416 2682 3080 2413 3591 
C 2176 4039 1798 4198 1466 4198 
C 1158 4198 768 4058 525 3597 
C 269 3118 243 2524 243 2025 
C 243 1661 250 1106 448 619 
C 723 -39 1216 -128 1466 -128 
C 1760 -128 2208 -7 2470 600 
C 2662 1042 2688 1559 2688 2025 
z
M 1466 -26 
C 1056 -26 813 325 723 812 
C 653 1188 653 1738 653 2096 
C 653 2588 653 2997 736 3387 
C 858 3929 1216 4096 1466 4096 
C 1728 4096 2067 3923 2189 3400 
C 2272 3036 2278 2607 2278 2096 
C 2278 1680 2278 1169 2202 792 
C 2067 95 1690 -26 1466 -26 
z
" transform="scale(0.015625)"/>
     </defs>
     <use xlink:href="#CMMI12-56" transform="scale(0.996264)"/>
     <use xlink:href="#CMR17-30" transform="translate(56.869579 -14.943915) scale(0.697382)"/>
    </g>
   </g>
   <g id="text_4">
    <!-- $p_0$ -->
    <g transform="translate(19.079524 190.297896) scale(0.26 -0.26)">
     <use xlink:href="#CMMI12-70" transform="scale(0.996264)"/>
     <use xlink:href="#CMR17-30" transform="translate(48.959514 -14.943915) scale(0.697382)"/>
    </g>
   </g>
   <g id="text_5">
    <!-- 1 -->
    <g transform="translate(150.756037 209.301874) scale(0.26 -0.26)">
     <defs>
      <path id="CMR17-31" d="M 1702 4058 
C 1702 4192 1696 4192 1606 4192 
C 1357 3916 979 3827 621 3827 
C 602 3827 570 3827 563 3808 
C 557 3795 557 3782 557 3648 
C 755 3648 1088 3686 1344 3839 
L 1344 461 
C 1344 236 1331 160 781 160 
L 589 160 
L 589 0 
C 896 0 1216 0 1523 0 
C 1830 0 2150 0 2458 0 
L 2458 160 
L 2266 160 
C 1715 160 1702 230 1702 458 
L 1702 4058 
z
" transform="scale(0.015625)"/>
     </defs>
     <use xlink:href="#CMR17-31" transform="scale(0.996264)"/>
    </g>
   </g>
   <g id="text_6">
    <!-- $3V_0$ -->
    <g transform="translate(207.499413 268.927854) scale(0.26 -0.26)">
     <defs>
      <path id="CMR17-33" d="M 1414 2157 
C 1984 2157 2234 1662 2234 1090 
C 2234 320 1824 25 1453 25 
C 1114 25 563 194 390 693 
C 422 680 454 680 486 680 
C 640 680 755 782 755 948 
C 755 1133 614 1216 486 1216 
C 378 1216 211 1165 211 926 
C 211 335 787 -128 1466 -128 
C 2176 -128 2720 430 2720 1085 
C 2720 1707 2208 2157 1600 2227 
C 2086 2328 2554 2756 2554 3329 
C 2554 3820 2048 4179 1472 4179 
C 890 4179 378 3829 378 3329 
C 378 3110 544 3072 627 3072 
C 762 3072 877 3155 877 3321 
C 877 3486 762 3569 627 3569 
C 602 3569 570 3569 544 3557 
C 730 3959 1235 4032 1459 4032 
C 1683 4032 2106 3925 2106 3320 
C 2106 3143 2080 2828 1862 2550 
C 1670 2304 1453 2304 1242 2284 
C 1210 2284 1062 2269 1037 2269 
C 992 2263 966 2257 966 2208 
C 966 2163 973 2157 1101 2157 
L 1414 2157 
z
" transform="scale(0.015625)"/>
     </defs>
     <use xlink:href="#CMR17-33" transform="scale(0.996264)"/>
     <use xlink:href="#CMMI12-56" transform="translate(45.690477 0) scale(0.996264)"/>
     <use xlink:href="#CMR17-30" transform="translate(102.560056 -14.943915) scale(0.697382)"/>
    </g>
   </g>
   <g id="text_7">
    <!-- 2 -->
    <g transform="translate(161.353417 135.12021) scale(0.26 -0.26)">
     <defs>
      <path id="CMR17-32" d="M 2669 989 
L 2554 989 
C 2490 536 2438 459 2413 420 
C 2381 369 1920 369 1830 369 
L 602 369 
C 832 619 1280 1072 1824 1597 
C 2214 1967 2669 2402 2669 3035 
C 2669 3790 2067 4224 1395 4224 
C 691 4224 262 3604 262 3030 
C 262 2780 448 2748 525 2748 
C 589 2748 781 2787 781 3010 
C 781 3207 614 3264 525 3264 
C 486 3264 448 3258 422 3245 
C 544 3790 915 4058 1306 4058 
C 1862 4058 2227 3617 2227 3035 
C 2227 2479 1901 2000 1536 1584 
L 262 146 
L 262 0 
L 2515 0 
L 2669 989 
z
" transform="scale(0.015625)"/>
     </defs>
     <use xlink:href="#CMR17-32" transform="scale(0.996264)"/>
    </g>
   </g>
   <g id="text_8">
    <!-- $3p_0$ -->
    <g transform="translate(7.2 72.549224) scale(0.26 -0.26)">
     <use xlink:href="#CMR17-33" transform="scale(0.996264)"/>
     <use xlink:href="#CMMI12-70" transform="translate(45.690477 0) scale(0.996264)"/>
     <use xlink:href="#CMR17-30" transform="translate(94.649991 -14.943915) scale(0.697382)"/>
    </g>
   </g>
   <g id="text_9">
    <!-- 3 -->
    <g transform="translate(84.81678 132.765237) scale(0.26 -0.26)">
     <use xlink:href="#CMR17-33" transform="scale(0.996264)"/>
    </g>
   </g>
   <g id="text_10">
    <!-- $0$ -->
    <g transform="translate(33.648436 260.359646) scale(0.26 -0.26)">
     <use xlink:href="#CMR17-30" transform="scale(0.996264)"/>
    </g>
   </g>
  </g>
 </g>
 <defs>
  <clipPath id="p2a658a9c51">
   <rect x="45.619551" y="7.2" width="219.110655" height="266.112"/>
  </clipPath>
 </defs>
</svg>
