<?xml version="1.0" standalone="no"?>
<!DOCTYPE svg PUBLIC "-//W3C//DTD SVG 20010904//EN"
 "http://www.w3.org/TR/2001/REC-SVG-20010904/DTD/svg10.dtd">
<svg version="1.0" xmlns="http://www.w3.org/2000/svg"
 width="768.935920pt" height="374.370236pt" viewBox="0 0 768.935920 374.370236"
 preserveAspectRatio="xMidYMid meet">
<metadata>
Created by potrace 1.16, written by Peter Selinger 2001-2019
</metadata>
<g transform="translate(-82.064080,406.000000) scale(0.100000,-0.100000)"
fill="#000000" stroke="none">
<path d="M4710 4051 c0 -5 10 -11 21 -14 17 -5 20 -11 16 -29 -47 -190 -54
-208 -78 -208 -10 0 -19 -4 -19 -10 0 -10 165 -6 203 6 12 3 39 24 60 45 32
33 37 43 37 86 0 70 -8 90 -45 113 -25 16 -50 20 -114 20 -44 0 -81 -4 -81 -9z
m174 -41 c24 -23 24 -99 -1 -141 -30 -51 -119 -90 -137 -61 -10 17 48 212 67
224 16 10 48 0 71 -22z"/>
<path d="M1228 3954 c-15 -15 -15 -18 0 -35 22 -25 49 -24 63 3 10 18 8 24 -7
35 -23 17 -36 16 -56 -3z m52 -18 c0 -15 -24 -28 -34 -19 -13 14 -5 33 14 33
11 0 20 -6 20 -14z"/>
<path d="M1747 3954 c-4 -4 -7 -19 -7 -34 0 -15 -3 -30 -7 -34 -7 -6 -31 -90
-33 -108 0 -5 9 -8 20 -8 19 0 20 -7 22 -235 1 -129 2 -243 2 -252 1 -14 -9
-19 -46 -21 -27 -2 -48 -7 -48 -12 0 -5 21 -10 48 -12 l47 -3 -1 -195 -2 -195
-46 -5 c-60 -6 -60 -24 0 -30 l47 -5 3 -197 3 -198 -49 0 c-38 0 -50 -4 -50
-15 0 -11 12 -15 50 -15 l51 0 -3 -197 -3 -198 -47 -3 c-27 -2 -48 -7 -48 -12
0 -5 21 -10 48 -12 l47 -3 3 -197 2 -198 -50 0 c-27 0 -50 -4 -50 -10 0 -10 2
-11 58 -16 19 -1 36 -4 38 -7 8 -8 9 -372 1 -385 -5 -6 -28 -12 -53 -12 -24 0
-44 -4 -44 -10 0 -5 20 -10 45 -10 28 0 47 -5 50 -12 3 -7 6 -111 7 -230 2
-119 5 -219 8 -222 9 -8 1603 -9 4163 -1 l2388 7 6 -21 c7 -26 5 -26 108 0 50
13 85 27 85 34 0 13 -99 45 -138 45 -11 0 -24 4 -27 10 -11 18 -25 10 -25 -15
l0 -25 -1457 -2 c-802 -2 -1627 -3 -1833 -3 -206 -1 -1022 -5 -1812 -9 l-1438
-9 0 442 c0 273 4 441 10 441 5 0 199 189 432 419 l423 419 744 1 c409 1 748
4 753 7 8 5 28 34 73 105 5 9 22 38 38 65 15 27 52 90 83 139 72 115 144 236
144 240 0 2 14 25 32 52 18 26 40 61 49 78 19 35 222 369 266 437 l30 48 25
-38 c27 -40 136 -211 153 -240 6 -9 24 -37 40 -62 16 -25 35 -54 41 -65 9 -17
47 -80 97 -160 6 -11 15 -22 18 -25 3 -3 27 -41 54 -85 26 -44 57 -93 69 -110
45 -60 206 -322 206 -333 0 -7 -4 -12 -10 -12 -5 0 -10 -4 -10 -10 0 -7 264
-10 773 -10 l773 0 100 -106 c364 -388 652 -674 669 -668 27 11 16 29 -63 106
-42 42 -174 176 -292 299 -118 123 -258 267 -310 320 l-96 98 -740 -5 -740 -6
-37 56 c-20 31 -37 58 -37 62 0 3 -13 23 -30 44 -16 21 -30 41 -30 44 0 4 -12
25 -27 49 -16 23 -30 47 -33 52 -3 6 -30 48 -61 95 -30 47 -75 117 -99 155
-23 39 -59 95 -80 125 -20 30 -47 75 -60 100 -12 25 -26 47 -29 50 -4 3 -35
50 -70 105 -97 153 -115 180 -133 214 -27 49 -31 47 -107 -74 -21 -33 -46 -76
-57 -95 -10 -19 -25 -43 -32 -52 -8 -9 -21 -30 -30 -47 -10 -17 -63 -108 -119
-201 -57 -93 -103 -174 -103 -179 0 -5 -7 -15 -16 -22 -9 -7 -20 -22 -25 -34
-5 -11 -19 -37 -31 -57 -13 -20 -50 -80 -83 -134 -33 -54 -67 -109 -75 -124
-35 -59 -85 -135 -95 -142 -5 -4 -344 -8 -751 -8 -656 0 -743 -2 -754 -15 -9
-11 -16 -13 -24 -5 -5 5 -34 10 -64 10 -71 0 -66 -23 7 -30 l53 -5 -397 -393
c-219 -216 -399 -391 -401 -390 -1 2 -4 181 -5 398 l-3 395 22 3 c27 4 29 22
2 29 -19 5 -20 14 -21 207 -1 110 -3 412 -5 669 -4 463 -4 469 16 474 25 7 25
19 -1 107 -22 74 -31 91 -42 80z"/>
<path d="M1377 3930 c-107 -85 -52 -265 81 -265 37 0 48 5 73 33 16 18 29 40
29 49 0 12 -10 6 -34 -20 -68 -74 -136 -38 -151 81 -7 56 30 116 74 120 37 4
81 -28 81 -60 0 -10 7 -18 15 -18 16 0 19 19 9 66 -5 29 -7 29 -78 32 -61 2
-77 -1 -99 -18z"/>
<path d="M885 3888 c-8 -26 -16 -34 -37 -36 -35 -4 -37 -22 -2 -22 14 0 22 -4
19 -10 -3 -5 -12 -32 -19 -59 -14 -55 -6 -91 22 -91 20 0 62 35 62 52 0 6 -8
4 -18 -5 -36 -33 -40 -18 -17 61 12 40 20 52 35 52 11 0 20 5 20 10 0 6 -7 10
-15 10 -10 0 -15 11 -15 35 0 45 -22 46 -35 3z"/>
<path d="M1010 3706 c0 -8 9 -21 21 -29 11 -8 16 -16 11 -18 -5 -2 -12 -15
-16 -29 -7 -23 -5 -23 24 8 41 44 38 76 -7 80 -24 2 -33 -1 -33 -12z"/>
<path d="M1186 3368 c-81 -72 -59 -233 34 -252 70 -14 124 39 113 112 -9 57
-88 103 -121 70 -9 -9 -12 -5 -12 18 0 17 5 35 12 42 19 19 55 14 61 -8 6 -24
29 -26 47 -5 20 24 -14 55 -60 55 -27 0 -46 -8 -74 -32z m85 -115 c7 -18 7
-43 2 -68 -7 -36 -11 -40 -38 -40 -29 0 -30 1 -33 55 -3 43 1 57 14 67 27 20
44 16 55 -14z"/>
<path d="M1392 3370 c-68 -67 -45 -231 36 -254 41 -12 83 6 106 45 22 38 24
141 3 182 -34 64 -96 76 -145 27z m92 -12 c18 -25 22 -150 7 -191 -17 -45 -64
-45 -76 0 -33 135 15 268 69 191z"/>
<path d="M3962 2901 c-58 -43 -82 -85 -82 -144 0 -39 5 -53 33 -83 27 -29 39
-35 75 -36 50 0 112 40 112 75 0 19 -4 17 -38 -16 -41 -40 -80 -48 -106 -21
-53 53 -5 207 71 229 30 8 63 -26 63 -66 0 -43 22 -32 32 16 13 60 13 59 -77
71 -34 5 -47 1 -83 -25z"/>
<path d="M5720 2916 c0 -8 5 -16 12 -18 9 -3 8 -24 -6 -84 -23 -100 -45 -154
-63 -154 -7 0 -13 -4 -13 -10 0 -6 46 -10 119 -10 l118 0 13 45 c14 50 6 71
-15 40 -32 -46 -48 -55 -97 -55 -53 0 -54 2 -37 63 8 31 14 38 32 35 14 -2 21
-10 21 -21 -2 -20 9 -22 23 -4 13 16 26 97 16 97 -5 0 -14 -9 -21 -20 -7 -11
-21 -20 -32 -20 -21 0 -21 18 1 78 17 45 109 19 109 -32 0 -10 6 -16 13 -13 7
2 12 21 12 48 l0 44 -102 3 c-85 2 -103 0 -103 -12z"/>
<path d="M6987 2923 c-12 -12 -7 -23 8 -17 27 11 32 -5 17 -58 -8 -29 -17 -68
-19 -86 -3 -18 -9 -35 -14 -38 -5 -3 -9 -14 -9 -26 0 -11 -8 -22 -20 -25 -53
-14 6 -37 70 -27 41 7 56 24 20 24 -23 0 -25 16 -8 71 13 44 44 55 50 17 4
-28 28 -36 28 -9 0 11 4 22 9 25 12 8 20 66 8 66 -5 0 -17 -10 -26 -22 -25
-30 -54 -18 -45 19 13 55 23 64 62 61 34 -3 37 -6 40 -36 4 -41 23 -37 35 7
14 57 8 61 -101 61 -54 0 -102 -3 -105 -7z"/>
<path d="M2430 2910 c0 -5 7 -10 15 -10 19 0 19 -5 -5 -109 -25 -104 -38 -131
-62 -131 -11 0 -16 -4 -13 -10 3 -5 47 -10 97 -10 118 0 165 18 174 69 6 28 3
38 -16 53 l-22 18 26 26 c33 34 33 67 0 93 -22 17 -41 21 -110 21 -49 0 -84
-4 -84 -10z m146 -18 c42 -27 12 -89 -46 -94 -34 -3 -35 -2 -32 31 1 18 7 42
13 52 10 19 44 25 65 11z m-4 -139 c23 -21 23 -34 -1 -65 -16 -19 -30 -25 -66
-26 l-46 -2 6 37 c12 71 14 73 52 73 20 0 45 -7 55 -17z"/>
<path d="M1251 2533 c-12 -16 -24 -32 -29 -38 -39 -49 -92 -131 -92 -142 0 -9
16 -13 55 -13 47 0 55 -3 55 -19 0 -10 -9 -21 -20 -24 -11 -3 -20 -10 -20 -16
0 -7 26 -11 70 -11 56 0 70 3 70 15 0 8 -8 15 -18 15 -10 0 -21 3 -25 6 -11
11 5 34 24 34 25 0 24 20 -1 27 -17 5 -20 14 -20 68 0 71 -9 125 -21 125 -4 0
-17 -12 -28 -27z m-11 -117 c0 -41 -2 -44 -32 -50 -17 -3 -33 -4 -36 -2 -6 6
51 96 61 96 4 0 7 -20 7 -44z"/>
<path d="M1403 2538 c-34 -38 -43 -64 -43 -125 0 -108 75 -173 147 -126 69 45
71 209 4 260 -27 21 -85 16 -108 -9z m87 -17 c5 -11 10 -60 10 -110 0 -80 -2
-91 -21 -105 -46 -31 -63 2 -63 125 -1 80 11 109 45 109 10 0 23 -9 29 -19z"/>
<path d="M1899 2410 c-24 -15 4 -30 56 -30 51 0 82 15 53 25 -25 9 -97 12
-109 5z"/>
<path d="M2284 2409 c-11 -19 9 -29 56 -29 49 0 65 8 52 25 -9 13 -100 16
-108 4z"/>
<path d="M4205 2410 c-3 -6 0 -13 8 -16 25 -9 100 0 105 14 5 15 -104 17 -113
2z"/>
<path d="M4392 2408 c8 -24 118 -22 118 2 0 6 -27 10 -61 10 -44 0 -60 -3 -57
-12z"/>
<path d="M4592 2408 c5 -15 50 -22 84 -14 43 11 25 26 -32 26 -40 0 -55 -4
-52 -12z"/>
<path d="M4775 2410 c-3 -5 5 -12 18 -15 36 -9 90 -2 95 13 5 15 -103 17 -113
2z"/>
<path d="M4970 2410 c0 -5 25 -10 55 -10 30 0 55 5 55 10 0 6 -25 10 -55 10
-30 0 -55 -4 -55 -10z"/>
<path d="M5160 2410 c0 -5 25 -10 55 -10 30 0 55 5 55 10 0 6 -25 10 -55 10
-30 0 -55 -4 -55 -10z"/>
<path d="M5350 2410 c0 -5 25 -10 55 -10 30 0 55 5 55 10 0 6 -25 10 -55 10
-30 0 -55 -4 -55 -10z"/>
<path d="M2082 2398 c3 -9 24 -13 61 -13 79 0 77 19 -2 23 -48 2 -62 0 -59
-10z"/>
<path d="M7968 2043 c-47 -33 -88 -98 -88 -143 0 -41 28 -96 57 -109 31 -14
90 -14 98 0 4 6 19 7 36 4 28 -6 29 -5 29 28 0 34 24 67 49 67 7 0 9 5 6 10
-3 6 -31 10 -61 10 -30 0 -54 -4 -54 -10 0 -5 5 -10 10 -10 19 0 10 -49 -12
-70 -12 -11 -34 -20 -49 -20 -87 0 -71 165 23 227 35 24 41 25 65 12 26 -14
27 -16 37 -61 8 -38 23 -35 29 5 3 17 7 41 9 52 2 14 -2 19 -12 16 -8 -2 -19
-3 -25 -2 -71 12 -122 10 -147 -6z"/>
<path d="M1188 1709 c-31 -23 -38 -68 -15 -88 11 -8 18 -6 32 9 17 19 17 21 1
38 -15 18 -15 19 10 30 53 25 82 -24 50 -86 -8 -15 -28 -37 -45 -50 -17 -12
-43 -41 -57 -64 -33 -52 -25 -58 84 -58 l82 0 0 45 c0 33 -4 45 -15 45 -8 0
-15 -9 -15 -20 0 -12 -7 -21 -17 -21 -10 -1 -28 -3 -40 -4 -44 -5 -44 11 -1
48 81 69 88 79 88 120 0 69 -82 101 -142 56z"/>
<path d="M1408 1707 c-38 -32 -48 -58 -48 -126 0 -72 26 -123 72 -142 27 -11
35 -10 67 7 105 56 67 284 -47 284 -9 0 -29 -10 -44 -23z m76 -19 c12 -16 16
-47 16 -113 0 -93 -8 -115 -41 -115 -32 0 -42 28 -43 119 -1 74 2 92 18 110
24 26 31 26 50 -1z"/>
<path d="M2064 1569 c-16 -22 -43 -59 -59 -82 -17 -23 -45 -63 -63 -89 -18
-27 -39 -48 -47 -48 -8 0 -15 -4 -15 -10 0 -6 27 -10 63 -10 l62 0 -24 19
c-23 17 -23 19 -6 44 15 23 24 27 65 27 49 0 60 -9 60 -51 0 -12 -7 -19 -20
-19 -31 0 -24 -20 8 -21 15 0 42 -2 60 -5 36 -4 47 20 12 29 -13 3 -20 13 -20
29 1 36 -33 228 -40 228 -3 0 -19 -18 -36 -41z m16 -84 c0 -43 -1 -45 -30 -45
-35 0 -37 11 -9 56 28 46 39 43 39 -11z"/>
<path d="M1527 639 c-68 -52 -54 -232 19 -259 40 -15 60 -12 92 15 62 52 57
203 -7 252 -25 19 -75 15 -104 -8z m87 -24 c18 -27 22 -147 7 -188 -17 -45
-64 -45 -76 0 -34 135 16 270 69 188z"/>
<path d="M8300 475 c-13 -14 -18 -25 -12 -25 6 0 14 5 17 10 3 6 15 10 27 10
17 0 20 -6 18 -47 -4 -85 -1 -100 20 -106 11 -3 30 3 43 13 18 15 20 21 10 31
-10 10 -13 10 -13 1 0 -7 -7 -12 -15 -12 -12 0 -15 13 -15 59 0 60 0 60 32 63
17 2 33 9 36 16 3 9 -14 12 -60 12 -56 0 -68 -3 -88 -25z"/>
</g>
</svg>
