<?xml version="1.0" encoding="UTF-8" standalone="no"?>
<svg
   version="1.0"
   width="623.72778pt"
   height="199.37462pt"
   viewBox="0 0 623.72778 199.37462"
   preserveAspectRatio="xMidYMid"
   id="svg15"
   sodipodi:docname="63t.svg"
   inkscape:version="1.3 (0e150ed, 2023-07-21)"
   xmlns:inkscape="http://www.inkscape.org/namespaces/inkscape"
   xmlns:sodipodi="http://sodipodi.sourceforge.net/DTD/sodipodi-0.dtd"
   xmlns="http://www.w3.org/2000/svg"
   xmlns:svg="http://www.w3.org/2000/svg">
  <defs
     id="defs15" />
  <sodipodi:namedview
     id="namedview15"
     pagecolor="#ffffff"
     bordercolor="#000000"
     borderopacity="0.25"
     inkscape:showpageshadow="2"
     inkscape:pageopacity="0.0"
     inkscape:pagecheckerboard="0"
     inkscape:deskcolor="#d1d1d1"
     inkscape:document-units="pt"
     inkscape:zoom="0.47966507"
     inkscape:cx="412.78803"
     inkscape:cy="137.59601"
     inkscape:window-width="1440"
     inkscape:window-height="819"
     inkscape:window-x="0"
     inkscape:window-y="25"
     inkscape:window-maximized="0"
     inkscape:current-layer="g15" />
  <metadata
     id="metadata1">&#10;Created by potrace 1.16, written by Peter Selinger 2001-2019&#10;</metadata>
  <g
     transform="matrix(0.1,0,0,-0.1,-2.963591,206.69744)"
     fill="#000000"
     stroke="none"
     id="g15">
    <path
       d="m 2984,2055 c -4,-9 0,-32 9,-50 l 16,-34 -42,-5 c -23,-3 -87,-10 -142,-16 -561,-62 -1171,-323 -1627,-697 -43,-35 -79,-63 -82,-63 -2,0 13,53 34,117 28,84 36,121 28,130 -14,18 -23,12 -185,-129 -147,-128 -169,-159 -113,-166 14,-2 29,-8 34,-12 6,-6 -88,-155 -228,-366 C 556,568 450,402 452,394 c 3,-13 360,-15 2653,-14 2250,0 2647,-2 2630,-13 -11,-8 -78,-51 -150,-97 -71,-45 -135,-89 -142,-98 -14,-17 0,-52 21,-52 7,0 97,54 199,120 102,66 195,120 206,120 11,0 27,10 35,23 9,12 92,72 186,132 93,61 172,116 175,122 7,21 -6,43 -26,43 -10,0 -65,-30 -121,-67 -57,-36 -133,-86 -170,-109 l -67,-43 -66,100 c -513,777 -1399,1307 -2340,1399 -90,9 -299,56 -468,106 -10,3 -20,-1 -23,-11 z m 16,-169 c 0,-8 -4,-18 -10,-21 -13,-8 -13,-42 0,-50 5,-3 87,15 181,41 161,43 178,45 253,39 843,-69 1643,-494 2176,-1156 82,-102 165,-219 155,-219 -3,0 -22,7 -42,15 -27,11 -39,12 -49,4 -27,-22 -16,-49 29,-69 42,-19 21,-20 -2345,-20 H 962 l -4,60 -3,60 69,28 c 79,31 99,53 75,78 -15,14 -23,13 -94,-15 l -77,-30 -49,34 c -27,18 -62,36 -79,40 -16,4 -30,11 -30,15 0,19 152,189 269,303 498,482 1121,778 1817,862 145,17 144,17 144,1 z M 976,1052 c -22,-23 -29,-10 -9,18 11,16 18,19 21,11 2,-7 -3,-20 -12,-29 z M 785,639 c 59,-15 76,-35 41,-49 -29,-11 -35,-40 -12,-59 11,-9 20,-9 35,-2 30,16 38,14 44,-15 11,-61 5,-64 -117,-64 H 665 l 43,20 c 35,16 43,24 40,42 -4,31 -37,34 -88,8 -23,-12 -44,-20 -46,-18 -4,4 30,58 73,116 27,35 34,37 98,21 z"
       id="path1"
       style="stroke-width:0;stroke-dasharray:none" />
    <path
       d="m 3105,1099 c -114,-32 -166,-41 -284,-49 -155,-10 -188,-21 -165,-58 10,-15 26,-17 135,-13 122,3 128,2 295,-43 94,-25 178,-46 188,-46 19,0 19,20 1,78 -7,20 -4,22 32,22 36,0 63,13 63,31 0,19 -35,39 -66,39 -31,0 -34,2 -24,19 5,11 10,29 10,40 0,28 -17,27 -185,-20 z"
       id="path2"
       style="stroke-width:10;stroke-dasharray:none" />
    <path
       d="m 3424,1035 c -16,-42 5,-50 161,-59 152,-8 164,-6 165,31 0,23 -37,31 -178,39 -130,6 -142,5 -148,-11 z"
       id="path3" />
    <path
       d="m 2405,1013 c -109,-14 -135,-24 -135,-48 0,-34 26,-37 167,-19 145,17 177,30 157,62 -14,22 -55,24 -189,5 z"
       id="path4" />
    <path
       d="m 3807,1013 c -11,-11 -8,-41 5,-49 24,-15 292,-43 306,-32 16,14 15,33 -3,48 -26,21 -291,50 -308,33 z"
       id="path5" />
    <path
       d="m 2041,955 c -68,-13 -130,-30 -138,-38 -15,-14 -9,-43 10,-50 7,-2 75,7 151,22 146,27 174,42 147,75 -17,20 -18,20 -170,-9 z"
       id="path6" />
    <path
       d="m 4187,963 c -11,-10 -8,-41 5,-49 13,-8 253,-54 284,-54 41,0 41,56 0,65 -59,15 -234,45 -257,45 -14,0 -29,-3 -32,-7 z"
       id="path7" />
    <path
       d="m 1651,867 c -121,-34 -149,-53 -120,-82 14,-15 28,-13 154,19 143,36 170,50 159,79 -9,25 -61,21 -193,-16 z"
       id="path8" />
    <path
       d="m 4567,893 c -4,-3 -7,-17 -7,-29 0,-26 0,-25 177,-69 123,-30 130,-31 138,-4 11,33 -10,44 -147,78 -133,33 -150,35 -161,24 z"
       id="path9" />
    <path
       d="m 1310,768 c -69,-22 -131,-45 -137,-50 -18,-14 -16,-47 2,-54 8,-3 76,14 152,38 122,39 138,46 141,67 3,20 -12,42 -28,40 -3,0 -61,-18 -130,-41 z"
       id="path10" />
    <path
       d="m 4934,785 c -12,-30 6,-42 103,-73 185,-58 182,-57 199,-40 29,29 5,47 -122,88 -133,43 -171,48 -180,25 z"
       id="path11" />
    <path
       d="m 5299,674 c -9,-11 -10,-20 -3,-32 13,-20 238,-111 277,-111 25,-1 28,2 25,27 -3,25 -14,31 -133,79 -71,29 -135,52 -141,53 -6,0 -17,-7 -25,-16 z"
       id="path12" />
    <text
       xml:space="preserve"
       style="font-style:italic;font-size:150px;font-family:'STIX Two Text';-inkscape-font-specification:'STIX Two Text, Italic';fill:#000000;stroke-width:0;stroke-miterlimit:3.2;paint-order:stroke fill markers"
       x="0"
       y="0"
       id="text15"
       transform="scale(1,-1)"><tspan
         sodipodi:role="line"
         id="tspan15"
         style="stroke-width:0"
         x="0"
         y="0" /></text>
    <text
       xml:space="preserve"
       style="font-style:italic;font-size:150px;font-family:'STIX Two Text';-inkscape-font-specification:'STIX Two Text, Italic';fill:#000000;stroke-width:0;stroke-miterlimit:3.2;paint-order:stroke fill markers"
       x="60.63591"
       y="-73.228203"
       id="text16"
       transform="scale(1,-1)"><tspan
         sodipodi:role="line"
         id="tspan16"
         style="font-style:italic;font-variant:normal;font-weight:normal;font-stretch:normal;font-size:500px;font-family:'STIX Two Text';-inkscape-font-specification:'STIX Two Text, Italic';font-variant-ligatures:normal;font-variant-caps:normal;font-variant-numeric:normal;font-variant-east-asian:normal;stroke-width:0"
         x="60.63591"
         y="-73.228203">A</tspan></text>
    <text
       xml:space="preserve"
       style="font-style:italic;font-size:150px;font-family:'STIX Two Text';-inkscape-font-specification:'STIX Two Text, Italic';fill:#000000;stroke-width:0;stroke-miterlimit:3.2;paint-order:stroke fill markers"
       x="5964.1357"
       y="-73.228203"
       id="text16-6"
       transform="scale(1,-1)"><tspan
         sodipodi:role="line"
         id="tspan16-8"
         style="font-style:italic;font-variant:normal;font-weight:normal;font-stretch:normal;font-size:500px;font-family:'STIX Two Text';-inkscape-font-specification:'STIX Two Text, Italic';font-variant-ligatures:normal;font-variant-caps:normal;font-variant-numeric:normal;font-variant-east-asian:normal;stroke-width:0"
         x="5964.1357"
         y="-73.228203">B</tspan></text>
    <g
       id="g1"
       transform="translate(819.77182,-50.918922)">
      <text
         xml:space="preserve"
         style="font-style:italic;font-size:150px;font-family:'STIX Two Text';-inkscape-font-specification:'STIX Two Text, Italic';fill:#000000;stroke-width:0;stroke-miterlimit:3.2;paint-order:stroke fill markers"
         x="46.90773"
         y="-131.14713"
         id="text16-1"
         transform="scale(1,-1)"><tspan
           sodipodi:role="line"
           id="tspan16-9"
           style="font-style:italic;font-variant:normal;font-weight:normal;font-stretch:normal;font-size:500px;font-family:'STIX Two Text';-inkscape-font-specification:'STIX Two Text, Italic';font-variant-ligatures:normal;font-variant-caps:normal;font-variant-numeric:normal;font-variant-east-asian:normal;stroke-width:0"
           x="46.90773"
           y="-131.14713">α</tspan></text>
    </g>
  </g>
</svg>
