<?xml version="1.0" encoding="UTF-8" standalone="no"?>
<svg
   version="1.0"
   width="636.70117pt"
   height="237.46222pt"
   viewBox="0 0 636.70117 237.46222"
   preserveAspectRatio="xMidYMid"
   id="svg15"
   sodipodi:docname="63t.svg"
   inkscape:version="1.3 (0e150ed, 2023-07-21)"
   xmlns:inkscape="http://www.inkscape.org/namespaces/inkscape"
   xmlns:sodipodi="http://sodipodi.sourceforge.net/DTD/sodipodi-0.dtd"
   xmlns="http://www.w3.org/2000/svg"
   xmlns:svg="http://www.w3.org/2000/svg">
  <sodipodi:namedview
     id="namedview15"
     pagecolor="#ffffff"
     bordercolor="#000000"
     borderopacity="0.25"
     inkscape:showpageshadow="2"
     inkscape:pageopacity="0.0"
     inkscape:pagecheckerboard="0"
     inkscape:deskcolor="#d1d1d1"
     inkscape:document-units="pt"
     inkscape:zoom="0.9216317"
     inkscape:cx="352.09292"
     inkscape:cy="233.28191"
     inkscape:window-width="1440"
     inkscape:window-height="819"
     inkscape:window-x="0"
     inkscape:window-y="25"
     inkscape:window-maximized="0"
     inkscape:current-layer="svg15" />
  <defs
     id="defs15">
    <marker
       style="overflow:visible"
       id="marker20"
       refX="0"
       refY="0"
       orient="auto-start-reverse"
       inkscape:stockid="Concave triangle arrow"
       markerWidth="1"
       markerHeight="1"
       viewBox="0 0 1 1"
       inkscape:isstock="true"
       inkscape:collect="always"
       preserveAspectRatio="xMidYMid">
      <path
         transform="scale(0.7)"
         d="M -2,-4 9,0 -2,4 c 2,-2.33 2,-5.66 0,-8 z"
         style="fill:context-stroke;fill-rule:evenodd;stroke:none"
         id="path7" />
    </marker>
    <marker
       style="overflow:visible"
       id="DartArrow"
       refX="0"
       refY="0"
       orient="auto-start-reverse"
       inkscape:stockid="Dart arrow"
       markerWidth="1"
       markerHeight="1"
       viewBox="0 0 1 1"
       inkscape:isstock="true"
       inkscape:collect="always"
       preserveAspectRatio="xMidYMid">
      <path
         style="fill:context-stroke;fill-rule:evenodd;stroke:none"
         d="M 0,0 5,-5 -12.5,0 5,5 Z"
         transform="scale(-0.5)"
         id="path18" />
    </marker>
    <marker
       style="overflow:visible"
       id="ConcaveTriangle"
       refX="0"
       refY="0"
       orient="auto-start-reverse"
       inkscape:stockid="Concave triangle arrow"
       markerWidth="1"
       markerHeight="1"
       viewBox="0 0 1 1"
       inkscape:isstock="true"
       inkscape:collect="always"
       preserveAspectRatio="xMidYMid">
      <path
         d="M 6.3,-2.8 -1.4,0 6.3,2.8 C 4.9,1.169 4.9,-1.162 6.3,-2.8 Z"
         style="fill:context-stroke;fill-rule:evenodd;stroke:none;stroke-width:0.7"
         id="path15" />
    </marker>
  </defs>
  <metadata
     id="metadata1">&#10;Created by potrace 1.16, written by Peter Selinger 2001-2019&#10;</metadata>
  <path
     d="m 10.71,167.37929 v -1.53 c -2.397,0 -3.417,-0.306 -3.417,-1.734 0,-0.918 0.255,-1.683 0.561,-2.499 l 2.295,-5.406 h 13.056 l 1.989,4.59 c 0.663,1.53 0.867,2.448 0.867,3.162 0,1.785 -1.989,1.887 -3.519,1.887 v 1.53 h 13.719 v -1.53 c -2.754,0 -3.774,-1.173 -5.253,-4.539 l -12.087,-27.693 H 16.83 l -10.812,25.602 c -2.448,5.814 -3.162,6.63 -6.018,6.63 v 1.53 z m 0.204,-13.209 5.763,-14.28 h 0.153 l 5.61,14.28 z"
     id="path27"
     style="font-size:51px;font-family:'STIX Two Text';-inkscape-font-specification:'STIX Two Text, Normal';stroke-width:0;stroke-miterlimit:3.2;paint-order:stroke fill markers"
     aria-label="A" />
  <path
     d="m 592.82537,167.37929 c 7.599,0 12.189,-3.213 12.189,-9.027 0,-5.559 -4.539,-7.905 -8.874,-8.619 v -0.204 c 4.233,-1.122 7.242,-3.162 7.242,-7.701 0,-5.049 -3.417,-7.956 -12.495,-7.956 h -13.77 v 1.53 c 4.131,0 4.947,0.561 4.947,4.641 v 20.859 c 0,4.233 -0.816,4.947 -4.947,4.947 v 1.53 z m -2.397,-1.887 c -1.224,0 -2.448,-0.051 -3.672,-0.153 v -14.28 h 3.57 c 4.743,0 9.333,1.581 9.333,7.395 0,6.477 -4.845,7.038 -9.231,7.038 z m -3.672,-29.478 c 1.02,-0.102 2.091,-0.153 3.06,-0.153 6.222,0 8.517,2.397 8.517,6.375 0,4.641 -1.938,6.681 -8.109,6.681 h -3.468 z"
     id="path26"
     style="font-size:51px;font-family:'STIX Two Text';-inkscape-font-specification:'STIX Two Text, Normal';stroke-width:0;stroke-miterlimit:3.2;paint-order:stroke fill markers"
     aria-label="B" />
  <g
     id="g1"
     transform="matrix(0.1,0,0,-0.1,127.85611,146.21899)"
     style="fill:#000000;stroke:none">
    <path
       style="font-style:italic;font-size:500px;font-family:'STIX Two Text';-inkscape-font-specification:'STIX Two Text, Italic';stroke-width:0;stroke-miterlimit:3.2;paint-order:stroke fill markers"
       d="m 118.90773,-124.14713 c 36.5,0 70,-39 99.5,-86.5 h 4 c -1.5,16.5 -4,30.5 -4,42.5 0,24.5 8.5,42.5 32,42.5 40.5,0 59.5,-36.5 67,-49 l -8,-8 c -9.5,10.5 -19,19.5 -34,19.5 -26.5,0 -26.5,-48.5 -26.5,-84.5 0,-2 0,-4 0,-5.5 v -1 c 17.5,-26 65,-91.5 77,-105.5 l -0.5,-7.5 -41.5,1 c -9.5,13 -27,41 -39,69 h -3 c -4.5,-28 -14,-73.5 -62.5,-73.5 -69,0 -118,62 -118,154 0,57.5 16.5,92.5 57.5,92.5 z m 11,-44 c -23,0 -45.5,-16.5 -45.5,-60 0,-67 38.5,-101 92.5,-101 32,0 48.5,14 48.5,45 0,55 -47.5,116 -95.5,116 z"
       id="path25"
       transform="scale(1,-1)"
       aria-label="α" />
  </g>
  <path
     style="font-variation-settings:normal;fill:none;fill-opacity:1;stroke:#000000;stroke-width:3.75;stroke-linecap:butt;stroke-linejoin:miter;stroke-miterlimit:4;stroke-dasharray:none;stroke-dashoffset:0;stroke-opacity:1;stop-color:#000000"
     d="M 39.059231,186.95479 H 581.32388"
     id="path13" />
  <path
     style="font-variation-settings:normal;fill:none;fill-opacity:1;stroke:#000000;stroke-width:3.75;stroke-linecap:butt;stroke-linejoin:miter;stroke-miterlimit:4;stroke-dasharray:15, 3.75;stroke-dashoffset:0;stroke-opacity:1;marker-mid:url(#ConcaveTriangle);stop-color:#000000"
     d="m 38.516424,187.5112 c 81.905966,-38.02779 174.984226,-59.92817 271.256256,-60.50763 91.44405,-0.5504 185.91865,18.1304 271.00833,60.50763"
     id="path14"
     sodipodi:nodetypes="csc" />
  <path
     style="font-variation-settings:normal;fill:none;fill-opacity:1;stroke:#000000;stroke-width:3.75;stroke-linecap:square;stroke-linejoin:bevel;stroke-miterlimit:4;stroke-dasharray:none;stroke-dashoffset:0;stroke-opacity:1;marker-end:url(#DartArrow);stop-color:#000000"
     d="M 38.890848,186.76235 134.9994,20.29747"
     id="path16" />
  <path
     style="font-variation-settings:normal;fill:none;fill-opacity:1;stroke:#000000;stroke-width:3.75;stroke-linecap:butt;stroke-linejoin:miter;stroke-miterlimit:4;stroke-dasharray:none;stroke-dashoffset:0;stroke-opacity:1;marker-mid:url(#marker20);paint-order:normal;stop-color:#000000"
     d="M 39.059231,186.95479 C 108.51336,84.11961 212.03471,31.41679 314.81864,31.74174 c 100.32698,0.31719 199.95138,51.1573 266.50524,155.21305"
     id="path19"
     sodipodi:nodetypes="csc" />
  <circle
     id="path21"
     style="fill:#000000;stroke:none;stroke-width:1.5"
     cx="38.516422"
     cy="187.5112"
     r="4.5" />
  <circle
     id="path21-0"
     style="fill:#000000;stroke:none;stroke-width:1.5"
     cx="581.12457"
     cy="187.26735"
     r="4.5" />
  <g
     id="g23"
     transform="matrix(0.08998565,0,0,-0.08145524,29.748233,219.02265)"
     style="fill:#000000;stroke:none;stroke-width:36.8082;stroke-dasharray:none">
    <path
       style="font-variation-settings:normal;opacity:1;fill:none;fill-opacity:1;stroke:#000000;stroke-width:36.8082;stroke-linecap:butt;stroke-linejoin:miter;stroke-miterlimit:4;stroke-dasharray:none;stroke-dashoffset:0;stroke-opacity:1;stop-color:#000000;stop-opacity:1"
       d="m 5577.7969,73.2282 986.8957,569.78452"
       id="path22"
       sodipodi:nodetypes="cc" />
    <path
       style="fill:none;stroke:#000000;stroke-width:36.8082;stroke-dasharray:none"
       d="m 5579.4418,74.177883 -0.4885,-2.7705 m 71.5291,-112.627938 30.7059,174.141785 m 101.7464,58.74334 -60.9233,-345.51306 m 79.1633,-69.33246 83.5065,473.58887 m 101.7464,58.74334 -83.5065,-473.58887 m 101.7465,58.74334 83.5065,473.58888 m 101.7464,58.74334 -83.5065,-473.588879 m 101.7465,58.743339 83.5065,473.58889 m 101.7464,58.74334 -83.5065,-473.58889 m 101.7465,58.74334 83.5065,473.5889 m 91.6977,1.75389 -73.4578,-416.59945 m 101.7465,58.74334 41.7189,236.59941 m 70.0075,-121.25669 -9.9799,-56.59938"
       id="path23" />
  </g>
  <path
     style="font-variation-settings:normal;opacity:1;fill:#000000;fill-opacity:0;fill-rule:evenodd;stroke:#000000;stroke-width:3;stroke-linecap:butt;stroke-linejoin:miter;stroke-miterlimit:3.2;stroke-dasharray:none;stroke-dashoffset:0;stroke-opacity:1;paint-order:stroke fill markers;stop-color:#000000;stop-opacity:1"
     id="path24"
     sodipodi:type="arc"
     sodipodi:cx="36.609898"
     sodipodi:cy="188.27946"
     sodipodi:rx="88.038094"
     sodipodi:ry="88.038094"
     sodipodi:start="5.2558086"
     sodipodi:end="6.2694712"
     sodipodi:arc-type="arc"
     d="m 82.131404,112.92365 a 88.038094,88.038094 0 0 1 42.508306,74.14849"
     sodipodi:open="true" />
</svg>
