<?xml version="1.0" standalone="no"?>
<!DOCTYPE svg PUBLIC "-//W3C//DTD SVG 20010904//EN"
 "http://www.w3.org/TR/2001/REC-SVG-20010904/DTD/svg10.dtd">
<svg version="1.0" xmlns="http://www.w3.org/2000/svg"
 width="803.008268pt" height="298.288039pt" viewBox="0 0 803.008268 298.288039"
 preserveAspectRatio="xMidYMid meet">
<metadata>
Created by potrace 1.16, written by Peter Selinger 2001-2019
</metadata>
<g transform="translate(-71.991732,345.817030) scale(0.100000,-0.100000)"
fill="#000000" stroke="none">
<path d="M6245 3446 c-33 -7 -77 -20 -99 -29 -44 -19 -153 -96 -176 -124 -67
-80 -130 -212 -130 -271 0 -53 5 -52 -306 -53 -159 0 -298 0 -309 0 -17 1 -23
12 -34 64 -19 90 -74 198 -134 259 -106 109 -190 146 -343 155 -85 5 -111 2
-170 -16 -204 -63 -346 -238 -372 -458 -2 -10 -56 -13 -236 -13 l-234 0 -1
-444 -2 -445 -45 -44 -45 -45 -289 -1 -288 -2 -16 73 c-39 170 -162 309 -323
367 -58 22 -179 41 -217 35 -12 -2 -39 -6 -61 -10 -122 -19 -249 -103 -325
-215 -37 -53 -53 -94 -80 -201 l-13 -48 -422 0 -422 0 -6 29 c-7 33 -66 97
-104 112 -37 14 -120 11 -153 -6 -29 -15 -30 -14 -74 33 -43 45 -46 46 -63 30
-16 -17 -15 -20 29 -65 44 -46 45 -49 32 -78 -20 -46 -17 -121 7 -164 43 -77
138 -110 220 -77 l42 17 41 -40 c44 -44 55 -48 74 -29 9 9 1 23 -33 59 -42 45
-44 50 -33 76 6 15 14 31 17 35 3 4 196 10 429 13 l422 6 0 -25 c0 -33 1 -36
12 -66 6 -14 12 -38 15 -55 10 -65 53 -138 122 -206 74 -72 137 -108 236 -134
69 -17 201 -20 242 -4 15 6 36 12 46 14 26 6 107 47 107 56 0 4 10 9 23 13 35
8 121 104 160 177 33 63 67 168 67 210 0 17 8 19 83 19 45 0 178 1 295 3 l213
3 16 -27 c9 -15 27 -33 40 -40 l23 -12 0 -452 0 -452 674 5 674 4 6 -28 c3
-16 8 -47 12 -69 12 -73 70 -179 135 -245 46 -47 83 -73 148 -104 l86 -41 125
1 c133 1 179 12 273 68 41 24 113 92 157 148 34 44 68 128 82 200 l13 68 305
1 c168 0 464 1 658 2 l352 2 0 155 c1 493 6 750 14 750 5 0 24 16 42 35 l33
36 406 3 c222 1 418 1 435 -2 20 -3 30 -10 30 -21 0 -19 45 -71 81 -93 38 -25
91 -30 144 -13 53 16 54 15 112 -38 32 -30 53 -29 53 1 0 9 -16 33 -36 53
l-37 38 17 41 c22 54 20 95 -5 148 -40 81 -123 114 -217 85 l-53 -16 -45 44
c-42 41 -45 42 -61 26 -16 -16 -15 -19 26 -61 43 -44 43 -44 30 -82 -7 -22
-17 -43 -21 -48 -4 -6 -187 -11 -429 -13 l-421 -3 -45 46 -45 47 1 443 1 444
-274 0 -273 0 -7 51 c-18 138 -95 264 -206 338 -136 92 -255 117 -405 87z
m207 -50 c65 -16 161 -62 186 -89 15 -17 8 -26 -135 -168 l-152 -150 -150 152
-150 151 27 23 c93 77 248 111 374 81z m-1644 -11 c34 -8 81 -27 105 -42 86
-55 92 -38 -76 -203 l-152 -149 -147 147 c-138 139 -146 148 -130 165 19 21
145 83 182 90 55 10 158 6 218 -8z m-309 -282 c78 -81 141 -150 141 -153 0 -3
-68 -76 -151 -161 l-150 -154 -21 25 c-88 108 -117 313 -63 445 19 45 85 145
96 145 4 0 71 -66 148 -147z m606 30 c37 -77 51 -175 37 -259 -11 -66 -69
-201 -97 -224 -8 -7 -53 32 -161 140 -82 82 -149 155 -149 161 0 5 65 75 145
155 l145 145 28 -33 c15 -18 39 -56 52 -85z m1060 -33 l150 -150 -160 -154
c-183 -176 -166 -172 -224 -51 -54 112 -60 206 -24 335 19 67 81 170 102 170
4 0 74 -67 156 -150z m571 102 c81 -124 99 -289 45 -421 -16 -39 -41 -88 -56
-107 l-28 -36 -155 156 c-85 86 -153 159 -151 161 47 53 295 295 303 295 6 0
25 -22 42 -48z m615 -320 c1 -20 1 -210 0 -422 -1 -353 -3 -386 -19 -397 -35
-25 -50 -45 -55 -76 -6 -46 11 -85 44 -103 l29 -15 0 -424 c0 -395 -1 -424
-17 -428 -10 -2 -294 -5 -631 -6 -497 -2 -613 0 -616 11 -2 7 -10 40 -17 73
-69 317 -404 492 -704 368 -149 -62 -266 -207 -301 -374 -8 -40 -16 -75 -18
-76 -1 -1 -292 -3 -646 -4 l-645 -1 -3 417 -2 417 40 39 c33 32 40 46 40 78 0
42 -27 86 -60 96 -20 6 -20 17 -20 431 l0 424 123 1 c172 1 291 -2 295 -6 3
-2 11 -34 18 -71 40 -187 164 -326 349 -388 59 -20 211 -23 276 -6 193 52 330
200 377 405 l17 75 312 0 312 0 6 -37 c33 -217 164 -369 369 -432 161 -49 364
-3 492 113 81 72 163 235 164 323 0 31 1 32 53 35 28 2 139 2 245 0 l192 -3 1
-37z m-2493 -145 c70 -70 128 -131 130 -136 4 -10 -52 -52 -103 -78 -91 -46
-241 -59 -329 -29 -67 23 -138 61 -160 85 -19 21 -18 21 70 112 49 51 118 121
154 155 l64 63 24 -22 c13 -12 81 -79 150 -150z m1652 18 l149 -149 -20 -22
c-24 -26 -127 -76 -192 -94 -63 -17 -186 -8 -257 19 -70 26 -153 78 -148 92 6
18 302 309 311 306 4 -1 75 -70 157 -152z m-3859 -375 c35 -11 88 -36 117 -55
l53 -36 -68 -66 c-37 -35 -106 -103 -153 -149 l-86 -84 -153 148 -154 149 34
25 c113 84 273 111 410 68z m-330 -275 c79 -80 145 -149 147 -153 1 -4 -65
-74 -148 -156 -98 -98 -155 -146 -164 -143 -21 8 -61 73 -81 133 -36 104 -29
258 17 349 28 53 69 115 78 115 3 0 71 -65 151 -145z m566 112 c75 -110 104
-239 82 -355 -6 -36 -18 -77 -25 -91 -8 -14 -14 -30 -14 -36 0 -5 -17 -28 -38
-50 l-37 -41 -153 153 -153 153 153 150 c84 83 155 150 158 150 3 0 15 -15 27
-33z m5675 -117 c55 -16 88 -60 88 -120 0 -27 -5 -52 -11 -56 -7 -4 -46 28
-92 74 -78 78 -81 82 -62 96 24 18 30 19 77 6z m-7523 -35 c29 -14 61 -68 61
-102 0 -32 -12 -63 -24 -63 -6 0 -45 33 -85 74 -84 84 -88 106 -21 106 23 0
54 -7 69 -15z m7486 -118 c73 -70 75 -78 18 -93 -31 -8 -93 26 -120 66 -25 37
-28 56 -13 95 12 32 10 33 115 -68z m-7566 -11 c58 -58 79 -86 70 -91 -18 -12
-94 -9 -118 5 -29 15 -61 68 -61 100 0 32 10 70 19 70 3 0 44 -38 90 -84z
m1708 -177 c81 -82 149 -154 151 -158 4 -13 -90 -70 -155 -93 -147 -52 -321
-24 -443 72 l-25 19 155 156 c85 85 158 155 161 155 4 0 74 -68 156 -151z
m3034 -328 c72 -25 130 -54 151 -78 17 -18 12 -24 -130 -166 -82 -81 -153
-147 -158 -147 -8 0 -95 87 -244 242 -53 57 -54 58 -34 75 93 83 289 118 415
74z m-314 -291 l143 -146 -159 -158 -159 -159 -31 48 c-56 89 -74 150 -75 255
0 95 12 147 51 223 28 55 64 97 77 89 6 -4 75 -72 153 -152z m553 128 c75
-118 101 -230 82 -351 -13 -83 -50 -173 -87 -207 l-26 -24 -149 149 c-83 83
-150 154 -150 160 0 16 283 295 300 295 8 0 22 -10 30 -22z m-212 -471 l153
-154 -33 -25 c-111 -85 -267 -118 -394 -84 -63 17 -174 75 -188 98 -9 15 12
41 139 168 82 82 154 150 160 150 6 0 79 -69 163 -153z"/>
<path d="M8406 1585 c4 -8 13 -15 21 -15 18 0 18 2 -23 -154 -26 -99 -31 -110
-56 -120 -56 -21 -25 -28 106 -24 118 3 138 6 163 24 22 17 29 30 31 67 3 41
0 47 -27 63 l-30 18 30 15 c59 28 64 98 9 126 -42 22 -232 22 -224 0z m193
-34 c17 -31 -5 -78 -41 -90 -37 -13 -88 -14 -88 -3 0 5 7 32 15 60 l16 52 44
0 c33 0 47 -5 54 -19z m-45 -131 c57 -21 53 -99 -6 -119 -38 -14 -105 -14
-113 -2 -7 12 14 101 28 119 11 14 56 16 91 2z"/>
<path d="M939 1515 c-117 -168 -170 -236 -194 -245 -47 -18 -27 -30 50 -30 60
0 75 3 75 15 0 9 -9 15 -25 15 -31 0 -32 18 -4 54 19 25 26 27 82 24 58 -3 61
-4 68 -32 9 -33 -4 -58 -25 -50 -8 3 -16 -2 -20 -11 -5 -14 5 -16 80 -14 57 1
84 5 81 13 -2 6 -13 12 -24 14 -32 5 -31 4 -63 217 -7 44 -16 86 -20 94 -5 10
-23 -8 -61 -64z m35 -71 c3 -30 4 -59 1 -64 -6 -10 -72 -7 -82 3 -3 3 9 27 26
53 17 26 31 51 31 56 0 4 4 8 9 8 4 0 11 -25 15 -56z"/>
</g>
</svg>
