<?xml version="1.0" standalone="no"?>
<!DOCTYPE svg PUBLIC "-//W3C//DTD SVG 20010904//EN"
 "http://www.w3.org/TR/2001/REC-SVG-20010904/DTD/svg10.dtd">
<svg version="1.0" xmlns="http://www.w3.org/2000/svg"
 width="628.998493pt" height="417.689418pt" viewBox="0 0 628.998493 417.689418"
 preserveAspectRatio="xMidYMid meet">
<metadata>
Created by potrace 1.16, written by Peter Selinger 2001-2019
</metadata>
<g transform="translate(-80.829982,465.884382) scale(0.100000,-0.100000)"
fill="#000000" stroke="none">
<path d="M3824 4650 c-29 -11 -64 -58 -64 -84 0 -44 50 -63 70 -27 8 16 6 23
-12 36 -32 22 -13 49 38 53 47 4 64 -15 64 -71 0 -41 -2 -44 -109 -141 -41
-38 -61 -71 -61 -102 0 -12 19 -14 113 -12 l112 3 0 52 c0 51 -16 77 -23 37
-6 -31 -33 -44 -94 -44 -56 0 -58 1 -46 19 8 11 46 44 85 75 39 30 73 63 77
71 10 28 6 89 -8 107 -25 33 -95 47 -142 28z"/>
<path d="M4176 4524 c-25 -26 -26 -26 -26 -5 0 17 -6 21 -32 21 -44 0 -68 -15
-38 -23 25 -6 26 -3 -14 -129 -23 -74 -23 -76 -5 -81 23 -6 28 1 56 80 12 34
34 78 50 98 27 35 28 35 42 15 26 -38 73 -11 51 29 -15 29 -52 26 -84 -5z"/>
<path d="M3803 4182 l-383 -2 0 -115 c0 -63 -3 -115 -7 -115 -5 0 -246 -3
-538 -5 -291 -3 -654 -7 -805 -10 -151 -2 -294 -4 -317 -5 l-43 0 0 -819 0
-819 -37 -38 -38 -38 -197 -3 -198 -3 -15 30 c-21 40 -19 50 12 82 22 23 24
30 13 43 -17 20 -23 19 -59 -11 l-31 -26 -45 18 c-58 22 -109 9 -164 -41 -53
-48 -66 -98 -45 -171 l16 -56 -28 -29 c-26 -27 -27 -30 -11 -46 16 -16 19 -15
47 12 26 25 33 27 55 17 14 -7 49 -12 77 -12 74 0 131 35 154 95 l17 45 208 0
c199 0 208 -1 214 -20 4 -11 20 -27 37 -36 42 -22 90 -11 123 27 l25 31 226 1
226 2 10 -25 c5 -14 8 -59 5 -100 -2 -41 -2 -83 1 -93 4 -16 36 -17 566 -15
l561 3 3 118 3 117 238 0 239 0 16 -24 c8 -14 25 -27 36 -31 20 -6 20 -11 19
-608 0 -331 0 -644 0 -694 l1 -93 295 0 294 0 3 -117 3 -118 545 -2 c300 -2
555 -1 568 2 21 5 22 9 22 120 0 85 3 115 13 115 6 0 137 1 289 1 152 -1 279
3 282 8 3 4 6 315 6 691 l1 682 46 43 46 44 166 -2 166 -2 19 -39 19 -39 -31
-28 c-38 -34 -38 -35 -12 -49 17 -9 26 -7 50 13 28 24 31 24 71 10 138 -47
278 103 213 229 -15 29 -15 31 10 57 49 51 16 94 -34 46 -27 -26 -28 -26 -81
-12 -45 11 -61 11 -98 0 -55 -16 -79 -37 -103 -90 -22 -49 3 -44 -234 -47
l-131 -1 -31 33 c-16 17 -35 32 -41 32 -8 0 -11 122 -11 418 1 229 1 603 0
830 l0 412 -875 -6 -874 -7 -3 119 -3 119 -185 0 c-102 0 -357 -1 -567 -3z
m702 -262 l0 -205 -465 -5 c-256 -3 -487 -3 -515 0 l-50 5 -3 195 c-1 107 0
200 2 207 4 10 114 12 518 10 l513 -2 0 -205z m1755 -818 l0 -799 -24 -12
c-13 -7 -29 -24 -35 -37 l-11 -24 -235 0 -235 0 0 120 0 120 -567 -2 -568 -3
-1 -55 c-1 -30 -2 -83 -2 -117 l-2 -63 -240 0 c-132 0 -240 4 -240 9 0 4 -12
20 -26 35 -41 41 -92 33 -144 -23 l-25 -27 -233 -3 -232 -2 0 122 0 122 -397
-6 c-219 -4 -474 -7 -568 -7 l-170 0 0 -115 1 -115 -232 0 -231 0 -40 38 -39
38 -2 787 c0 432 2 788 6 790 4 3 377 8 829 11 l822 7 3 -118 3 -118 205 -1
c113 -1 368 1 568 4 l362 5 0 118 0 119 850 0 850 0 0 -798z m-599 -730 c2
-141 0 -364 -3 -367 -1 -2 -231 -5 -510 -7 l-508 -4 -1 61 c-1 67 -1 186 0
287 l1 68 233 2 c127 2 357 4 510 5 l277 2 1 -47z m-2272 -177 l0 -205 -432
-1 c-238 -1 -468 -2 -512 -3 l-80 -1 -3 208 -2 207 514 0 514 0 1 -205z m3561
125 c12 -8 6 -19 -35 -61 -108 -112 -109 -113 -119 -74 -13 50 20 115 69 135
27 12 67 12 85 0z m-5836 -28 c3 -5 -29 -44 -71 -87 -66 -69 -76 -76 -85 -61
-24 43 12 131 62 149 24 9 88 8 94 -1z m5910 -82 c1 -36 -4 -46 -36 -76 -31
-28 -45 -34 -83 -34 -29 0 -45 4 -45 12 0 20 143 159 153 149 5 -5 10 -28 11
-51z m-5848 4 c11 -43 -12 -100 -50 -123 -35 -22 -81 -27 -106 -11 -12 8 -1
24 60 85 41 41 78 75 82 75 4 0 11 -12 14 -26z m4919 -34 c92 0 104 -2 109
-18 4 -11 18 -25 31 -32 l25 -13 0 -669 0 -668 -270 0 -270 0 0 23 c-1 12 -2
63 -3 112 l-2 90 -567 3 -568 2 0 -120 0 -120 -270 0 -270 0 0 663 0 664 29
25 c16 15 30 31 32 37 3 7 83 12 242 13 l237 3 1 -40 c1 -22 2 -74 3 -115 l1
-75 565 0 565 0 3 117 3 117 122 3 c67 2 128 2 135 1 8 -2 60 -3 117 -3z
m-433 -1343 c2 -67 2 -161 0 -210 l-3 -87 -510 2 -510 3 0 155 c0 85 0 176 0
202 l1 48 303 2 c166 2 395 4 509 5 l207 1 3 -121z"/>
<path d="M5024 2873 c-26 -38 -51 -70 -54 -73 -16 -12 -70 -94 -70 -107 0 -10
18 -13 70 -13 l70 0 0 -29 c0 -25 -4 -30 -27 -33 -59 -7 -24 -23 55 -26 67 -2
82 0 82 12 0 8 -10 16 -22 18 -17 2 -24 11 -26 31 -3 23 0 27 22 27 16 0 26 6
26 15 0 9 -9 15 -25 15 l-25 0 0 115 c0 140 -8 144 -76 48z m12 -160 c-6 -7
-86 -6 -93 1 -5 5 34 61 71 104 l21 24 3 -62 c2 -34 1 -65 -2 -67z"/>
<path d="M5365 2828 c-11 -6 -28 -20 -38 -32 l-19 -21 7 28 6 28 -48 -7 c-57
-8 -65 -13 -35 -21 28 -7 28 -15 -3 -110 -30 -96 -31 -105 -4 -101 16 2 29 23
54 87 19 46 43 93 54 105 20 19 21 19 34 2 7 -10 22 -17 33 -14 25 4 31 38 8
55 -21 15 -23 16 -49 1z"/>
<path d="M2838 2813 c-37 -4 -55 -23 -22 -23 19 0 15 -35 -17 -139 -23 -77
-24 -71 5 -71 21 0 26 7 36 53 15 63 41 116 69 141 21 19 22 19 35 1 18 -25
48 -13 44 17 -5 36 -53 37 -90 1 l-30 -28 7 28 c4 15 6 26 4 25 -2 -1 -21 -3
-41 -5z"/>
<path d="M5048 1448 c-12 -18 -28 -40 -35 -48 -59 -74 -113 -155 -113 -170 0
-6 26 -10 64 -10 58 0 64 -2 70 -22 6 -24 -15 -48 -41 -48 -7 0 -13 -4 -13
-10 0 -6 35 -10 85 -10 70 0 85 3 85 16 0 10 -7 14 -22 12 -19 -2 -24 2 -26
30 -3 29 -1 32 23 32 32 0 29 23 -3 28 -24 4 -24 2 -22 145 1 99 -11 112 -52
55z m-10 -133 l2 -65 -50 0 c-27 0 -50 3 -50 6 0 9 88 124 95 124 0 0 2 -29 3
-65z"/>
<path d="M5354 1361 c-18 -11 -35 -25 -38 -33 -3 -7 -4 0 -1 15 l6 29 -48 -7
c-56 -7 -66 -14 -35 -22 12 -3 22 -11 22 -18 0 -14 -26 -106 -41 -143 -15 -37
-11 -52 14 -52 18 0 25 10 39 58 25 86 98 188 98 137 0 -9 9 -15 24 -15 33 0
46 38 20 57 -23 17 -23 17 -60 -6z"/>
<path d="M6758 1924 c-14 -13 -8 -24 12 -24 18 0 25 -11 21 -33 -4 -23 -9 -44
-13 -57 -3 -8 -16 -55 -29 -104 -23 -85 -31 -97 -72 -110 -77 -24 144 -37 243
-14 56 13 100 53 100 92 0 28 -26 65 -52 75 -19 7 -17 9 15 29 57 33 63 89 14
126 -24 17 -46 22 -130 24 -56 2 -105 0 -109 -4z m206 -50 c21 -55 -20 -104
-89 -104 -51 0 -52 3 -33 75 l12 45 52 0 c38 0 53 -4 58 -16z m-40 -146 c32
-14 41 -41 26 -77 -15 -36 -48 -51 -112 -51 l-51 0 7 52 c10 75 20 88 66 88
21 0 50 -5 64 -12z"/>
<path d="M1012 1798 c-114 -165 -116 -167 -137 -193 -11 -13 -33 -30 -50 -37
-28 -12 -26 -13 49 -16 46 -2 84 2 90 8 7 7 2 10 -16 10 -43 0 -45 16 -9 69
10 15 136 27 144 14 3 -4 7 -24 9 -43 2 -28 -1 -35 -17 -38 -11 -2 -24 -8 -29
-13 -6 -5 25 -9 77 -9 51 0 87 4 87 10 0 6 -9 10 -20 10 -10 0 -24 8 -29 18
-9 17 -35 151 -50 261 -3 25 -11 46 -17 48 -6 2 -43 -43 -82 -99z m67 -85 c1
-33 1 -33 -47 -33 -27 0 -51 3 -55 6 -3 3 13 32 36 64 l42 58 12 -31 c6 -18
12 -47 12 -64z"/>
</g>
</svg>
