<?xml version="1.0" standalone="no"?>
<!DOCTYPE svg PUBLIC "-//W3C//DTD SVG 20010904//EN"
 "http://www.w3.org/TR/2001/REC-SVG-20010904/DTD/svg10.dtd">
<svg version="1.0" xmlns="http://www.w3.org/2000/svg"
 width="730.505214pt" height="275.018329pt" viewBox="0 0 730.505214 275.018329"
 preserveAspectRatio="xMidYMid meet">
<metadata>
Created by potrace 1.16, written by Peter Selinger 2001-2019
</metadata>
<g transform="translate(-94.041898,326.000000) scale(0.100000,-0.100000)"
fill="#000000" stroke="none">
<path d="M5276 3233 c-37 -37 -34 -87 7 -91 23 -3 27 0 27 22 0 14 -7 29 -17
34 -14 8 -13 12 11 27 21 14 34 16 54 9 23 -8 27 -16 30 -53 3 -43 1 -46 -61
-105 -63 -59 -105 -120 -89 -129 4 -3 51 -6 105 -6 l97 -1 0 50 c0 50 -16 70
-22 28 -3 -21 -9 -23 -65 -26 -77 -4 -76 6 8 67 70 51 82 69 81 125 -1 54 -28
76 -92 76 -38 0 -53 -5 -74 -27z"/>
<path d="M5623 3141 c-20 -24 -35 -28 -27 -6 5 12 -3 15 -35 15 -23 0 -41 -4
-41 -10 0 -5 7 -10 15 -10 20 0 19 -12 -9 -100 -24 -78 -25 -90 -1 -90 17 0
30 23 40 69 8 38 55 121 69 121 5 0 14 -7 20 -16 16 -21 48 -7 44 20 -4 30
-51 34 -75 7z"/>
<path d="M4950 2718 l0 -108 -785 0 -785 0 -1 -347 c-1 -192 -1 -385 0 -430 1
-70 -2 -83 -17 -87 -10 -3 -26 -20 -35 -36 l-18 -30 -262 2 -262 3 -3 108 -3
107 -507 -2 -507 -3 -5 -105 -5 -105 -217 -3 -217 -2 -12 40 c-12 38 -11 41
15 61 26 20 26 22 10 40 -17 19 -18 19 -45 -7 l-27 -26 -49 18 c-50 17 -50 17
-99 -7 -82 -41 -113 -113 -83 -198 10 -28 9 -35 -10 -55 -24 -26 -26 -37 -9
-54 9 -9 18 -6 39 14 26 25 31 26 59 14 40 -16 115 -8 149 17 14 11 35 37 47
59 l20 39 217 3 216 3 3 -108 3 -108 505 1 505 0 5 105 5 104 258 3 258 2 36
-37 36 -38 -2 -422 -2 -423 348 -2 348 -3 3 -103 3 -102 507 2 507 3 3 100 c2
55 4 101 6 102 2 3 482 5 643 4 l62 -1 3 -102 3 -103 508 -3 507 -2 0 32 c1
59 11 172 16 177 2 2 156 5 342 5 l337 1 3 423 2 424 37 34 36 34 166 0 167 0
12 -32 c11 -29 10 -34 -15 -60 -25 -27 -26 -29 -10 -45 16 -16 19 -15 46 11
24 23 32 26 49 17 30 -16 108 -14 142 4 35 18 80 91 80 129 0 15 -6 42 -14 61
-14 32 -13 35 10 61 26 27 26 54 1 54 -7 0 -24 -11 -37 -25 -21 -23 -24 -23
-51 -10 -70 37 -158 4 -194 -72 l-20 -42 -172 -1 c-165 0 -172 1 -178 21 -4
11 -18 25 -31 31 l-25 12 3 422 c1 233 -1 427 -5 431 -4 4 -356 6 -782 6 -426
-1 -774 1 -774 5 1 4 1 52 0 108 l-1 101 -505 -1 -505 -1 0 -107z m966 -63 c1
-66 -1 -150 -4 -187 l-5 -68 -458 0 -459 0 0 190 0 189 463 -2 462 -2 1 -120z
m-974 -100 c4 -5 8 -54 8 -108 l0 -97 503 2 502 3 5 105 5 105 755 0 755 0 1
-399 2 -399 -23 -21 c-53 -50 -58 -95 -14 -138 l31 -31 -1 -395 c-1 -217 -4
-398 -6 -403 -7 -10 -621 -7 -631 4 -4 4 -8 49 -8 100 l-1 92 -512 3 -513 2 0
-105 0 -105 -355 0 -355 0 0 105 0 105 -510 0 -510 0 0 -105 0 -105 -325 0
c-253 0 -325 3 -326 13 0 6 0 188 1 402 0 257 4 391 11 394 27 9 49 47 49 84
0 30 -7 45 -30 67 l-30 28 0 401 0 401 278 2 c657 7 1237 3 1244 -7z m-2210
-787 c2 -46 1 -130 -2 -188 l-5 -105 -457 -2 -458 -2 0 190 0 189 459 0 460 0
3 -82z m-1513 -13 c7 -8 -131 -145 -141 -139 -4 3 -8 24 -8 48 0 33 6 48 28
68 15 14 34 28 42 31 16 6 70 0 79 -8z m6905 7 c3 -5 -26 -40 -65 -78 -56 -56
-71 -66 -79 -54 -23 36 -4 97 38 123 28 17 97 23 106 9z m-6854 -103 c0 -61
-50 -106 -110 -100 -45 5 -42 13 25 81 38 38 72 67 77 64 4 -3 8 -23 8 -45z
m6908 7 c3 -31 -2 -42 -31 -71 -22 -22 -45 -35 -60 -35 -32 0 -57 9 -57 21 0
14 124 129 135 125 6 -1 11 -19 13 -40z m-1550 -735 l152 -1 0 -185 0 -185
-465 0 -465 0 0 185 0 185 293 2 c160 2 301 2 312 1 11 -1 89 -2 173 -2z
m-1588 -186 l0 -185 -462 0 -463 0 3 185 3 185 459 0 460 0 0 -185z"/>
<path d="M4617 1293 c-26 -27 -27 -27 -27 -5 0 16 -6 22 -22 21 -30 -1 -71
-17 -46 -18 27 -1 29 -15 9 -72 -31 -91 -33 -119 -12 -119 14 0 25 19 45 74
15 40 37 83 50 95 22 21 42 29 32 12 -3 -5 0 -14 8 -20 11 -9 18 -8 30 4 21
21 20 32 -3 45 -28 14 -33 13 -64 -17z"/>
<path d="M6357 1300 c-30 -24 -41 -25 -33 -5 4 12 -3 15 -29 15 -18 0 -37 -4
-40 -10 -3 -5 1 -10 9 -10 20 0 20 -5 -3 -76 -33 -107 -34 -114 -11 -114 11 0
22 6 24 13 24 84 68 166 94 175 6 2 12 -3 12 -12 0 -21 39 -21 46 -1 7 17 -12
45 -31 45 -7 0 -24 -9 -38 -20z"/>
<path d="M2195 2731 c-6 -5 -25 -13 -44 -18 -46 -12 -51 -31 -9 -35 l33 -3 -1
-110 0 -109 -32 -8 c-56 -15 -25 -28 64 -28 64 0 85 3 82 12 -3 7 -11 13 -19
14 -8 0 -20 2 -26 2 -10 2 -13 38 -13 147 0 112 -3 145 -13 145 -7 0 -17 -4
-22 -9z"/>
<path d="M2442 2453 c-21 -4 -22 -6 -7 -17 15 -11 15 -18 -7 -98 -12 -48 -20
-89 -17 -93 15 -14 40 11 50 48 14 53 43 109 64 127 15 12 18 12 26 -3 6 -9
16 -17 24 -17 15 0 30 35 20 50 -9 15 -48 12 -73 -6 -20 -14 -22 -14 -22 0 0
16 -12 18 -58 9z"/>
<path d="M2067 2384 c-20 -20 5 -24 128 -22 176 4 181 22 7 26 -70 1 -131 -1
-135 -4z"/>
<path d="M2165 2321 c-22 -10 -49 -38 -57 -61 -10 -28 10 -62 34 -58 29 4 36
37 13 55 -26 18 -2 43 41 43 37 0 54 -21 54 -66 0 -22 -15 -42 -61 -85 -63
-58 -99 -104 -99 -126 0 -10 28 -13 105 -13 l105 0 0 50 c0 57 -10 64 -27 20
-11 -28 -14 -30 -67 -30 -31 0 -56 4 -56 8 0 10 53 59 101 95 33 24 57 65 54
92 -7 65 -76 102 -140 76z"/>
<path d="M1084 1268 c-71 -102 -105 -144 -121 -146 -27 -4 -31 -21 -5 -23 9
-1 31 -3 47 -5 39 -5 77 4 70 16 -3 6 -15 10 -26 10 -24 0 -24 18 1 48 17 20
27 23 77 20 57 -3 58 -3 61 -35 3 -25 -1 -32 -18 -35 -11 -2 -21 -7 -21 -13 1
-11 94 -18 129 -10 30 7 28 25 -2 25 -22 0 -26 6 -35 58 -19 96 -29 155 -36
195 -3 20 -9 37 -13 37 -5 0 -53 -64 -108 -142z m95 -19 c1 -24 -3 -27 -40
-31 -22 -2 -42 -2 -44 1 -6 5 13 39 44 80 l26 34 6 -29 c4 -16 7 -41 8 -55z"/>
<path d="M7930 1400 c0 -5 9 -10 20 -10 25 0 25 -11 -1 -113 -34 -136 -38
-146 -65 -153 -53 -13 -19 -24 77 -24 143 0 202 21 210 75 5 32 -9 59 -38 77
-20 13 -23 18 -11 18 26 0 58 40 58 71 0 16 -10 37 -22 49 -19 17 -35 20 -125
20 -62 0 -103 -4 -103 -10z m182 -27 c41 -37 8 -90 -64 -99 -55 -8 -57 -4 -32
69 14 42 19 47 47 47 17 0 39 -7 49 -17z m-30 -132 c24 -1 40 -35 32 -66 -8
-34 -55 -57 -107 -53 -41 3 -42 3 -39 38 2 19 10 47 18 62 12 23 20 27 47 24
17 -2 40 -4 49 -5z"/>
</g>
</svg>
