<svg xmlns="http://www.w3.org/2000/svg" version="1.0" width="1283.545406pt" height="2193.961476pt" viewBox="0 0 1283.545406 2193.961476" preserveAspectRatio="xMidYMid meet">
<metadata>
Created by potrace 1.16, written by Peter Selinger 2001-2019
</metadata>
<g transform="translate(-17.016449,2218.942876) scale(0.100000,-0.100000)" fill="#000000" stroke="none">
<path d="M331 22173 c-5 -10 -12 -39 -16 -65 l-7 -46 -65 -12 c-64 -13 -87 -30 -65 -52 9 -9 18 -9 34 0 35 17 88 25 88 13 0 -10 -13 -15 -67 -26 -20 -4 -33 -13 -33 -22 0 -13 9 -15 51 -10 l50 6 -7 -44 c-5 -36 -3 -46 10 -51 30 -11 48 15 41 59 -8 42 2 57 37 57 15 0 17 -8 15 -45 -3 -61 14 -58 36 7 17 53 19 55 72 72 79 24 75 49 -4 26 -39 -11 -44 -9 -35 13 3 9 20 17 37 19 36 3 40 21 7 26 -18 3 -21 8 -15 30 11 45 11 47 -9 47 -13 0 -23 -12 -33 -39 -16 -48 -10 -43 -55 -51 -34 -7 -38 -5 -38 14 0 12 7 24 15 27 18 7 20 35 3 52 -17 17 -36 15 -47 -5z m89 -138 c0 -8 -6 -15 -12 -15 -7 0 -23 -3 -35 -6 -17 -5 -23 -2 -23 9 0 15 17 23 53 26 9 0 17 -6 17 -14z"/>
<path d="M773 22150 c-72 -15 -123 -50 -152 -107 -17 -33 -13 -59 12 -89 46 -54 167 -28 167 35 0 36 -44 91 -73 92 -17 0 -13 5 18 20 31 16 53 19 102 15 50 -4 61 -3 57 9 -6 13 -57 36 -78 34 -6 -1 -30 -5 -53 -9z m-26 -136 c16 -25 16 -27 -2 -40 -31 -23 -85 -15 -85 12 0 21 32 54 52 54 10 0 25 -12 35 -26z"/>
<path d="M944 22126 c-37 -37 -43 -66 -18 -90 18 -18 85 -21 115 -6 32 17 22 -6 -13 -34 -42 -31 -105 -48 -129 -36 -26 15 -49 12 -56 -6 -9 -25 12 -36 66 -36 129 0 241 115 197 201 -18 34 -34 41 -88 41 -32 0 -47 -7 -74 -34z m114 -8 c7 -7 12 -28 12 -47 0 -26 -3 -32 -11 -24 -6 6 -26 9 -45 6 -18 -3 -40 -3 -49 1 -14 5 -14 9 -1 35 21 40 68 55 94 29z"/>
<path d="M1141 22141 c-8 -5 -11 -16 -8 -24 5 -12 18 -14 65 -10 97 9 98 -36 2 -111 -49 -38 -60 -53 -60 -76 0 -35 23 -50 78 -50 65 0 152 21 152 37 0 12 -15 13 -89 8 -57 -5 -91 -4 -95 3 -3 6 18 29 46 52 29 23 61 55 72 71 16 26 17 34 6 60 -7 17 -24 35 -37 40 -31 11 -114 11 -132 0z"/>
<path d="M5357 21913 c-2 -5 -1 -39 2 -78 5 -61 9 -70 27 -73 16 -2 24 5 34 30 7 18 24 45 38 60 32 35 52 22 52 -32 0 -59 38 -58 76 1 16 24 48 47 77 55 l29 7 -4 -69 c-2 -54 0 -69 11 -69 17 0 39 57 40 103 1 20 -7 40 -20 53 -24 24 -60 21 -122 -11 -38 -20 -39 -20 -55 -1 -26 29 -54 33 -94 12 -35 -18 -37 -18 -41 0 -5 18 -42 27 -50 12z"/>
<path d="M7041 21838 c-10 -24 -28 -74 -41 -113 -12 -38 -26 -74 -30 -79 -11 -11 -53 56 -75 119 -22 61 -36 78 -58 69 -26 -9 -21 -28 29 -125 32 -62 55 -94 75 -104 52 -27 68 -8 114 137 15 48 33 89 41 92 8 3 14 15 14 26 0 15 -7 20 -25 20 -21 0 -29 -8 -44 -42z"/>
<path d="M5780 21825 c-16 -19 -3 -38 22 -32 23 6 48 -1 48 -14 0 -5 -13 -15 -30 -24 -33 -17 -39 -39 -14 -49 25 -10 244 -7 244 3 0 11 -26 17 -102 26 -32 4 -55 11 -52 17 29 47 -80 116 -116 73z"/>
<path d="M2761 21774 c-26 -21 -34 -24 -46 -14 -31 25 -43 5 -44 -74 -1 -68 1 -76 18 -76 13 0 27 17 45 53 28 59 69 103 85 92 6 -3 11 -24 11 -46 0 -34 3 -39 23 -39 14 0 30 12 44 34 11 18 38 41 58 50 46 22 62 11 73 -55 10 -61 36 -60 40 2 6 92 -66 127 -152 75 l-40 -24 -19 24 c-24 31 -58 30 -96 -2z"/>
<path d="M3185 21770 c-15 -24 -10 -99 7 -117 10 -9 19 -15 22 -12 2 2 5 33 7 69 3 54 1 65 -13 68 -9 2 -19 -2 -23 -8z"/>
<path d="M182 21743 c3 -17 30 -19 323 -25 176 -4 451 -12 612 -19 160 -6 333 -9 385 -5 51 3 167 11 258 16 240 15 270 19 270 35 0 11 -12 13 -47 10 -27 -3 -167 -12 -313 -21 -228 -15 -306 -15 -555 -5 -431 17 -834 31 -888 31 -41 0 -48 -3 -45 -17z"/>
<path d="M7121 21706 c-20 -21 -22 -31 -17 -87 7 -74 28 -99 83 -99 71 0 113 45 113 121 0 59 -36 89 -105 89 -41 0 -56 -5 -74 -24z m127 -34 c16 -21 8 -68 -15 -94 -18 -20 -72 -24 -74 -5 -1 6 -3 19 -4 27 0 8 -5 28 -9 43 -7 22 -4 31 10 43 23 18 74 10 92 -14z"/>
<path d="M4644 21701 c-37 -23 -114 -135 -144 -211 -57 -142 -65 -226 -24 -267 22 -22 32 -25 77 -21 53 5 122 33 167 68 43 33 13 34 -62 2 -104 -44 -115 -46 -143 -28 -19 12 -25 25 -25 50 0 46 9 66 29 66 42 0 150 163 184 277 14 47 14 54 1 68 -19 19 -23 19 -60 -4z m3 -99 c-27 -66 -72 -135 -107 -167 l-23 -20 8 25 c20 67 128 240 141 227 3 -3 -6 -32 -19 -65z"/>
<path d="M1796 21691 c-15 -24 -18 -545 -6 -1143 13 -705 7 -1105 -24 -1588 -36 -543 -42 -1126 -15 -1405 5 -55 12 -319 15 -587 6 -480 7 -488 27 -488 20 0 20 4 13 478 -3 262 -10 522 -16 577 -27 278 -21 912 15 1485 33 528 39 951 21 1545 -13 444 -14 617 -5 834 5 151 8 280 5 287 -6 16 -22 18 -30 5z"/>
<path d="M5853 21515 c-13 -9 -23 -24 -23 -33 0 -10 -9 -23 -21 -30 -29 -19 -22 -69 14 -96 37 -28 156 -36 191 -12 14 8 27 23 30 33 5 17 24 18 308 12 167 -4 353 -7 415 -8 104 -1 111 -2 106 -20 -8 -30 14 -34 52 -11 48 30 65 48 59 64 -9 24 -164 84 -184 71 -25 -15 -7 -35 48 -52 l57 -18 -60 -3 c-54 -2 -717 15 -772 21 -14 1 -23 9 -23 18 0 52 -148 100 -197 64z m125 -51 c26 -18 30 -65 7 -84 -18 -15 -109 -7 -131 11 -13 10 -13 14 0 28 7 9 17 26 20 39 6 18 15 22 44 22 21 0 48 -7 60 -16z"/>
<path d="M3323 21480 c-18 -11 -33 -24 -33 -30 0 -5 -14 -22 -30 -37 -27 -24 -31 -33 -28 -72 3 -52 19 -64 111 -83 98 -21 157 16 157 97 0 67 -22 113 -64 130 -47 20 -75 19 -113 -5z m110 -52 c10 -13 17 -37 17 -64 0 -35 -5 -47 -25 -60 -26 -17 -72 -14 -121 8 -27 13 -36 62 -9 52 10 -4 15 0 15 10 0 12 6 15 25 10 32 -8 47 22 21 42 -16 12 -16 13 1 23 23 13 53 5 76 -21z"/>
<path d="M544 21432 c-6 -4 -14 -36 -16 -72 -3 -36 -13 -85 -23 -110 -9 -25 -19 -58 -22 -73 -5 -25 -3 -28 17 -25 16 2 27 13 34 35 29 84 139 189 174 166 13 -8 17 -26 17 -69 1 -85 24 -112 47 -56 35 81 127 166 159 146 19 -11 5 -115 -24 -178 -17 -37 -24 -63 -18 -69 16 -16 32 3 63 71 40 87 43 176 9 204 -16 12 -32 16 -50 12 -37 -9 -111 -53 -118 -70 -7 -20 -17 -17 -28 8 -6 12 -22 29 -37 37 -25 14 -30 13 -88 -17 l-62 -32 7 36 c8 47 -12 75 -41 56z"/>
<path d="M1050 21162 c-53 -47 -60 -72 -21 -72 14 0 17 -6 13 -29 -4 -27 -8 -30 -46 -33 -28 -2 -41 -8 -41 -18 0 -12 16 -15 82 -15 51 1 87 5 95 13 9 9 5 13 -20 18 -18 4 -32 12 -32 20 0 7 16 43 35 79 19 37 32 71 29 76 -12 20 -43 7 -94 -39z"/>
<path d="M841 20750 c-13 -6 -36 -19 -51 -30 l-28 -20 -16 25 c-20 31 -57 33 -109 6 -29 -15 -37 -16 -37 -5 0 17 -39 19 -44 2 -2 -7 -12 -35 -21 -63 -29 -86 -30 -105 -7 -105 12 0 24 11 32 29 18 44 81 108 114 117 36 9 47 -7 44 -61 -4 -56 21 -58 56 -5 28 43 79 80 109 80 22 0 23 -62 2 -113 -19 -46 -19 -57 0 -57 21 0 53 56 61 106 12 81 -34 122 -105 94z"/>
<path d="M8190 20708 c-11 -18 -43 -79 -72 -135 -29 -57 -55 -103 -59 -103 -12 0 -38 48 -64 117 -30 78 -49 103 -80 103 -33 0 -39 -27 -11 -45 13 -9 35 -46 52 -86 33 -82 71 -129 106 -129 34 0 47 18 108 148 29 61 57 112 62 112 14 0 5 43 -9 47 -7 3 -22 -10 -33 -29z"/>
<path d="M12655 20690 c-3 -5 1 -22 8 -37 8 -15 24 -59 37 -98 28 -89 68 -163 90 -170 37 -12 54 7 134 158 26 48 53 87 60 87 16 0 29 41 17 53 -22 22 -48 -5 -113 -118 -39 -66 -74 -124 -78 -129 -12 -12 -44 56 -70 149 -12 44 -26 88 -31 98 -10 18 -44 23 -54 7z"/>
<path d="M11596 20632 c-2 -4 -2 -57 2 -117 6 -100 9 -110 27 -110 14 0 28 18 51 66 43 89 54 94 54 25 0 -52 2 -56 23 -56 18 0 28 10 41 38 9 20 26 48 36 62 l20 25 0 -57 c0 -65 7 -88 26 -88 19 0 28 42 21 107 -9 90 -45 109 -94 48 l-27 -34 -13 30 c-18 42 -49 35 -91 -20 l-34 -45 3 55 c1 31 -1 61 -5 67 -8 14 -32 16 -40 4z"/>
<path d="M7134 20576 c-30 -30 -34 -32 -39 -15 -4 11 -15 24 -26 29 -24 14 -49 1 -83 -42 -24 -30 -28 -31 -37 -15 -11 18 -44 23 -53 8 -3 -5 1 -22 9 -37 8 -16 15 -50 15 -76 0 -43 2 -48 23 -48 18 0 25 10 40 57 10 31 27 70 39 86 20 28 22 29 29 11 4 -10 8 -33 8 -50 1 -34 24 -52 41 -31 6 7 25 34 43 61 47 73 57 71 57 -14 0 -53 3 -71 13 -68 35 12 50 115 21 156 -22 32 -60 28 -100 -12z"/>
<path d="M1010 20570 c0 -16 7 -20 30 -20 20 0 30 -5 30 -16 0 -15 -57 -74 -72 -74 -5 0 -8 -9 -8 -20 0 -13 9 -22 25 -26 39 -10 198 9 203 24 3 9 -17 12 -76 12 l-80 0 29 31 c31 33 36 58 19 90 -8 14 -21 19 -55 19 -38 0 -45 -3 -45 -20z"/>
<path d="M7324 20549 c-6 -11 2 -133 13 -176 3 -13 11 -23 19 -23 11 0 14 22 14 105 0 97 -1 105 -19 105 -11 0 -23 -5 -27 -11z"/>
<path d="M12007 20503 c-16 -16 -5 -32 25 -35 45 -4 44 -19 -2 -48 -72 -44 -61 -73 34 -91 60 -11 126 -5 126 11 0 5 -35 14 -77 21 -63 10 -74 14 -59 23 50 29 69 53 63 78 -9 35 -87 65 -110 41z"/>
<path d="M9910 20438 c-6 -24 -31 -117 -56 -208 -52 -194 -77 -321 -67 -331 5 -5 49 -4 98 1 50 5 143 10 208 10 131 0 142 6 117 64 -7 17 -12 44 -12 59 1 23 -2 28 -20 25 -35 -5 -46 -34 -25 -69 9 -17 17 -35 17 -40 0 -5 -73 -9 -170 -9 -141 0 -170 2 -170 14 0 23 56 236 96 365 52 166 51 161 21 161 -22 0 -28 -6 -37 -42z"/>
<path d="M7130 20268 c-50 -35 -91 -91 -97 -135 -17 -128 208 -170 321 -60 l41 40 267 5 c276 5 318 2 318 -23 0 -25 23 -29 41 -7 9 12 26 22 38 22 21 0 41 27 41 55 0 21 -52 42 -128 51 -57 6 -62 5 -62 -13 0 -14 12 -24 48 -35 45 -15 34 -16 -255 -17 l-302 -1 -11 38 c-18 70 -74 102 -176 102 -36 0 -60 -6 -84 -22z m190 -44 c11 -10 22 -34 26 -52 6 -28 4 -32 -16 -32 -19 0 -21 -4 -16 -25 5 -20 1 -27 -24 -40 -68 -35 -178 -27 -200 15 -17 31 -12 47 29 89 21 22 41 48 45 57 9 24 129 16 156 -12z"/>
<path d="M12010 20246 c-14 -7 -41 -16 -61 -20 -40 -7 -72 -36 -88 -79 -18 -47 -13 -77 20 -109 29 -30 32 -30 103 -26 80 5 147 35 184 83 11 14 29 25 41 25 12 0 21 5 21 10 0 12 98 13 364 3 156 -5 186 -8 171 -19 -24 -18 -9 -37 24 -29 14 4 32 11 38 17 17 13 17 53 1 66 -24 20 -148 64 -163 58 -24 -9 -17 -34 13 -44 20 -8 -25 -11 -169 -11 -233 -1 -319 6 -319 26 0 8 -11 25 -25 38 -20 20 -34 25 -77 25 -29 -1 -64 -7 -78 -14z m117 -38 c22 -28 11 -78 -23 -108 -84 -73 -217 -61 -198 18 10 39 13 42 39 42 13 0 25 4 27 9 2 5 19 18 38 30 39 23 102 28 117 9z"/>
<path d="M683 20101 c-64 -40 -116 -174 -81 -209 18 -18 52 -14 82 9 14 11 26 16 26 10 0 -5 -13 -64 -30 -129 -16 -66 -30 -136 -30 -156 0 -44 22 -57 50 -31 24 22 26 35 5 35 -8 0 -15 7 -15 15 0 22 66 272 93 352 l24 72 -21 20 c-33 30 -67 34 -103 12z m57 -60 c0 -29 -75 -121 -98 -121 -30 0 11 106 55 140 31 24 43 18 43 -19z"/>
<path d="M948 19879 c-43 -22 -73 -62 -64 -84 9 -23 35 -18 46 10 5 14 11 25 12 25 2 0 3 -25 3 -55 l0 -55 -53 -11 c-41 -8 -52 -14 -50 -27 3 -15 19 -17 118 -17 122 1 166 9 140 25 -8 6 -36 10 -62 10 l-48 0 0 50 c0 28 7 67 15 87 27 63 8 77 -57 42z"/>
<path d="M657 19322 c-60 -37 -106 -189 -65 -215 14 -9 24 -6 49 12 l32 24 -7 -24 c-31 -109 -76 -295 -76 -315 0 -14 7 -27 16 -31 24 -9 46 25 39 58 -7 31 17 131 75 310 22 70 40 136 40 147 0 22 -35 52 -60 52 -8 0 -28 -8 -43 -18z m53 -30 c0 -5 -7 -17 -15 -28 -8 -10 -15 -25 -15 -33 0 -18 -48 -81 -60 -81 -15 0 26 99 51 126 23 24 39 31 39 16z"/>
<path d="M3245 19316 c-11 -8 -16 -19 -12 -30 7 -17 37 -23 37 -6 0 20 48 9 91 -22 l43 -31 -42 -36 c-79 -68 -51 -101 86 -101 152 0 166 24 20 35 l-101 7 36 33 c21 19 37 43 37 55 0 28 -40 66 -93 90 -50 23 -77 25 -102 6z"/>
<path d="M3111 19153 c-10 -21 -27 -65 -36 -98 l-17 -59 -16 30 c-9 16 -16 53 -16 81 0 52 -11 68 -36 53 -9 -5 -11 -26 -8 -68 5 -77 50 -157 88 -157 22 0 26 7 40 71 9 40 23 87 30 105 14 32 14 33 20 9 3 -13 11 -25 18 -28 10 -3 12 8 10 44 -3 45 -5 49 -30 52 -23 3 -30 -3 -47 -35z"/>
<path d="M7943 19180 c-26 -11 -30 -38 -8 -46 8 -4 22 -1 29 6 18 15 56 -3 56 -27 0 -8 -16 -33 -35 -54 -63 -70 -42 -89 99 -89 52 0 98 4 101 10 10 16 -41 30 -112 30 l-65 0 31 35 c47 54 38 105 -24 131 -39 16 -42 16 -72 4z"/>
<path d="M9630 19165 c-15 -18 -7 -43 16 -52 11 -4 22 1 31 13 12 16 15 17 23 4 18 -28 10 -49 -37 -94 -29 -28 -44 -49 -38 -55 6 -4 54 -11 108 -15 76 -4 98 -3 94 7 -6 18 -48 37 -84 37 l-32 0 24 36 c29 43 31 64 10 104 -14 26 -21 30 -59 30 -26 0 -48 -6 -56 -15z"/>
<path d="M2152 19143 c-45 -63 -47 -92 -47 -583 0 -394 -3 -487 -19 -610 l-19 -144 36 -31 c66 -57 79 -112 97 -415 18 -308 63 -529 113 -562 23 -14 23 5 1 89 -31 114 -51 264 -64 488 -16 261 -36 341 -102 411 l-30 32 18 128 c15 109 18 205 19 619 2 501 4 535 41 576 14 16 20 17 32 6 13 -10 14 -9 10 3 -2 8 -18 16 -35 18 -24 2 -35 -3 -51 -25z"/>
<path d="M5210 19098 c-68 -36 -115 -174 -75 -218 22 -24 53 -25 85 -3 21 15 23 15 17 0 -15 -40 -37 -174 -32 -195 10 -40 38 -24 41 23 2 38 16 98 64 267 l22 77 -24 25 c-29 31 -66 40 -98 24z m59 -47 c21 -38 -66 -166 -99 -146 -34 21 33 165 76 165 7 0 18 -8 23 -19z"/>
<path d="M2446 19082 c-11 -18 -9 -183 3 -195 15 -15 35 7 49 58 13 47 37 83 48 73 4 -4 12 -29 19 -55 9 -36 17 -48 31 -48 14 0 20 10 25 37 6 41 24 68 45 68 18 0 26 -33 25 -107 -1 -47 3 -63 12 -61 40 14 49 147 12 188 -22 24 -62 26 -94 4 -21 -15 -23 -15 -38 6 -13 18 -22 21 -49 17 -22 -4 -37 -1 -45 9 -13 15 -35 19 -43 6z"/>
<path d="M4722 19067 c-31 -33 -52 -90 -52 -141 0 -37 4 -48 25 -62 22 -14 27 -14 55 0 29 14 31 14 25 -3 -9 -29 -35 -171 -35 -193 0 -14 6 -19 22 -16 18 2 23 10 25 38 2 19 14 85 28 147 14 62 25 122 25 133 0 11 7 23 15 26 23 9 18 42 -10 69 -33 33 -93 34 -123 2z m87 -31 c10 -12 9 -19 -4 -33 -9 -10 -30 -40 -46 -67 -35 -56 -53 -51 -43 12 13 80 61 126 93 88z"/>
<path d="M7802 19037 c-6 -7 -20 -49 -32 -92 -12 -44 -28 -102 -37 -129 -14 -42 -17 -46 -26 -30 -6 10 -11 50 -12 89 -1 67 -4 72 -34 67 -16 -3 -20 -70 -7 -126 16 -67 40 -106 66 -106 27 0 44 38 76 164 18 70 31 106 40 106 17 0 18 42 2 58 -15 15 -23 15 -36 -1z"/>
<path d="M11042 19027 c-48 -50 -86 -183 -62 -212 22 -26 69 -18 102 18 23 24 29 27 25 12 -69 -239 -76 -308 -30 -279 12 7 18 24 19 50 0 21 20 102 44 179 50 162 59 215 38 215 -8 0 -23 9 -33 20 -25 28 -76 26 -103 -3z m76 -44 c4 -26 -36 -98 -73 -133 l-25 -23 0 34 c0 33 29 109 52 136 16 20 42 11 46 -14z"/>
<path d="M783 19003 c-18 -7 -16 -28 2 -43 13 -11 20 -11 39 0 31 16 66 5 66 -21 0 -21 -26 -50 -95 -106 -39 -31 -39 -33 -21 -48 24 -18 220 -22 231 -4 11 16 4 18 -88 25 l-86 7 40 29 c103 74 81 170 -39 167 -20 0 -43 -3 -49 -6z"/>
<path d="M9504 18985 c-12 -12 -30 -47 -38 -76 -8 -30 -21 -76 -29 -104 l-14 -50 -34 107 c-31 97 -36 108 -58 108 -29 0 -27 -11 24 -165 42 -125 48 -138 61 -142 22 -7 35 21 69 147 28 106 41 139 60 155 30 25 31 31 4 38 -14 4 -29 -2 -45 -18z"/>
<path d="M11678 18985 c-55 -30 -108 -194 -73 -228 23 -23 77 -21 109 4 14 11 26 19 26 17 0 -2 -13 -47 -30 -98 -34 -110 -37 -133 -13 -128 17 3 61 122 103 281 l23 88 -41 39 c-44 43 -62 47 -104 25z m60 -38 c6 -7 10 -33 9 -57 -1 -36 -8 -51 -39 -83 -20 -21 -43 -37 -50 -35 -33 11 -16 105 28 158 29 33 37 36 52 17z"/>
<path d="M7047 18968 c-2 -7 0 -22 6 -33 6 -11 13 -71 15 -132 4 -103 6 -113 24 -113 10 0 20 6 22 13 2 6 9 34 15 61 16 68 50 144 67 150 21 8 46 -57 42 -108 -3 -36 0 -41 19 -44 16 -2 23 3 28 27 8 37 60 111 79 111 18 0 28 -36 35 -130 5 -62 9 -75 25 -78 17 -4 18 3 14 95 -2 73 -8 107 -21 126 -23 35 -65 36 -105 2 -36 -30 -38 -30 -45 -6 -2 10 -16 27 -31 36 -35 23 -75 7 -104 -43 l-22 -37 0 35 c-1 59 -10 80 -35 80 -13 0 -25 -6 -28 -12z"/>
<path d="M8688 18968 c-3 -7 -1 -26 4 -43 4 -16 8 -67 8 -112 0 -45 4 -84 9 -87 19 -12 39 6 51 47 7 23 24 65 38 92 l26 50 7 -30 c4 -16 7 -51 8 -77 2 -83 39 -73 92 24 l34 63 5 -62 c5 -64 19 -90 42 -80 11 4 13 21 7 80 -10 101 -16 117 -43 117 -26 0 -45 -19 -74 -75 l-21 -40 -1 40 c0 50 -24 87 -53 83 -13 -2 -35 -23 -54 -51 l-32 -48 -3 58 c-3 51 -6 58 -24 61 -12 2 -24 -3 -26 -10z"/>
<path d="M3186 18936 c-56 -55 -15 -130 68 -124 33 2 43 8 54 30 24 51 -4 97 -70 113 -21 5 -33 1 -52 -19z m65 -26 c19 -10 27 -54 12 -63 -5 -3 -18 -1 -30 4 -17 6 -23 16 -23 39 0 32 9 36 41 20z"/>
<path d="M2817 18933 c-12 -12 -7 -33 8 -33 20 0 29 -39 16 -72 -5 -15 -24 -37 -40 -49 -31 -23 -39 -43 -22 -53 5 -3 31 3 57 13 27 11 75 27 107 36 77 21 76 40 -2 32 l-58 -6 5 44 c3 31 0 52 -12 70 -16 24 -45 33 -59 18z"/>
<path d="M5390 18905 c-16 -20 -4 -35 29 -35 31 0 66 -32 58 -52 -2 -7 -32 -29 -66 -48 -75 -43 -77 -64 -6 -68 71 -5 225 18 225 33 0 9 -24 11 -92 8 l-93 -5 33 21 c65 42 59 110 -12 142 -50 23 -60 23 -76 4z"/>
<path d="M4925 18888 c-19 -55 -45 -172 -46 -210 l-2 -48 -236 -2 c-202 -3 -236 -5 -236 -18 0 -13 99 -15 840 -12 739 2 876 6 843 24 -1 1 -266 4 -588 7 l-585 6 3 40 c2 22 15 74 28 115 13 41 24 83 24 93 0 20 -38 24 -45 5z"/>
<path d="M9085 18867 c-23 -17 -12 -37 21 -37 14 0 27 -6 30 -14 7 -17 -19 -68 -59 -118 -37 -47 -31 -68 21 -68 49 0 136 26 152 45 18 22 6 29 -32 17 -18 -6 -50 -13 -71 -17 l-39 -6 32 40 c43 53 52 119 21 150 -24 24 -49 27 -76 8z"/>
<path d="M7504 18825 c-3 -8 -4 -57 -2 -108 l3 -94 -130 -6 c-147 -7 -239 -23 -256 -44 -23 -27 4 -35 62 -19 80 23 252 36 559 42 151 3 277 8 280 10 17 17 -52 24 -247 24 l-223 0 -6 27 c-4 15 -3 57 2 94 5 37 8 72 6 78 -5 16 -42 13 -48 -4z"/>
<path d="M3826 18795 c-3 -9 -6 -43 -6 -75 l0 -59 -31 9 c-37 11 -59 4 -59 -20 0 -20 19 -30 60 -30 27 0 28 -2 40 -79 12 -81 24 -111 36 -98 8 8 7 78 -2 140 l-6 37 81 0 c71 0 104 10 88 27 -3 2 -42 7 -86 10 -69 5 -81 8 -77 22 3 9 6 41 8 71 3 50 1 55 -18 58 -13 2 -24 -4 -28 -13z"/>
<path d="M11260 18743 c-26 -59 -50 -147 -50 -185 l0 -28 -160 0 c-136 0 -162 -2 -167 -15 -3 -9 -3 -19 1 -22 3 -4 181 -1 394 7 213 7 565 15 782 16 217 2 397 4 400 4 3 0 -4 6 -15 12 -11 7 -92 13 -200 16 -129 4 -172 8 -152 14 30 11 39 43 10 34 -44 -13 -111 -26 -138 -26 l-30 0 48 43 c41 35 48 47 45 72 -2 23 -12 35 -44 53 -23 12 -59 23 -80 25 -34 2 -39 -1 -42 -20 -3 -20 1 -23 33 -23 38 0 95 -24 95 -40 0 -5 -22 -26 -50 -47 -34 -25 -50 -45 -50 -59 0 -20 -6 -23 -72 -28 -40 -3 -185 -8 -322 -12 l-249 -6 6 47 c4 26 19 74 33 108 38 91 41 107 16 107 -15 0 -27 -13 -42 -47z"/>
<path d="M10253 18744 c-3 -8 -3 -42 0 -75 7 -64 0 -72 -45 -48 -16 8 -24 8 -35 -4 -13 -12 -12 -16 2 -31 9 -9 32 -16 51 -16 l34 0 0 -64 c0 -80 9 -128 24 -123 6 2 11 21 12 43 0 21 2 62 2 91 l2 52 82 3 c54 2 83 7 86 16 2 8 -7 12 -30 12 -18 0 -57 3 -86 7 l-54 6 3 61 c2 34 0 67 -4 74 -11 17 -36 15 -44 -4z"/>
<path d="M8315 18704 c-8 -9 -15 -29 -15 -46 0 -29 0 -30 -41 -23 -30 5 -44 3 -50 -6 -13 -21 10 -39 52 -39 39 0 39 0 39 -39 0 -43 20 -67 47 -56 12 5 14 9 6 12 -8 3 -13 22 -13 44 l0 39 43 0 c40 0 67 13 67 32 0 4 -23 8 -51 8 l-52 0 7 39 c7 44 -12 61 -39 35z"/>
<path d="M2280 18661 l0 -21 523 2 c287 2 550 -1 585 -5 51 -7 62 -5 62 6 0 8 -12 18 -27 22 -16 4 -279 10 -585 12 l-558 4 0 -20z"/>
<path d="M6364 18656 c-4 -10 -2 -22 3 -27 14 -14 294 -12 308 2 20 20 -20 29 -131 29 -61 0 -125 3 -143 6 -23 5 -32 2 -37 -10z"/>
<path d="M9265 18610 c-82 -4 -221 -8 -307 -9 -152 -1 -158 -2 -158 -22 0 -20 3 -20 188 -14 103 3 262 10 354 16 92 5 184 9 204 9 31 0 35 2 24 15 -14 16 -39 17 -305 5z"/>
<path d="M778 18585 c-84 -57 -188 -306 -188 -450 0 -74 14 -95 66 -95 44 0 201 77 187 91 -7 7 -40 -2 -98 -26 -48 -20 -94 -34 -101 -31 -28 11 -14 166 15 166 16 0 127 132 175 207 37 60 54 127 37 147 -19 23 -51 20 -93 -9z m57 -37 c-15 -48 -62 -124 -109 -175 -27 -30 -51 -51 -54 -48 -10 9 78 173 112 210 39 41 61 46 51 13z"/>
<path d="M2798 18559 c-22 -12 -23 -48 -3 -55 8 -4 22 -1 30 6 18 15 78 5 95 -16 17 -20 -16 -55 -88 -96 -35 -20 -52 -36 -50 -47 3 -14 22 -16 148 -16 148 0 187 6 174 26 -5 9 -41 10 -127 5 l-120 -6 44 32 c55 40 68 56 69 89 0 32 -23 54 -79 74 -50 17 -69 18 -93 4z"/>
<path d="M6383 18534 c-3 -9 0 -20 8 -25 16 -10 215 -12 272 -3 70 12 32 26 -83 30 -63 2 -132 6 -153 9 -28 4 -39 1 -44 -11z"/>
<path d="M5660 18503 c-41 -42 -74 -119 -97 -228 -17 -85 -9 -111 39 -120 42 -8 160 16 166 33 3 9 -15 11 -82 6 l-86 -7 0 39 c0 35 6 45 45 77 83 69 144 187 115 222 -22 26 -60 18 -100 -22z m46 -60 c-21 -39 -63 -89 -70 -83 -8 8 33 92 57 118 17 19 23 21 25 9 2 -9 -4 -28 -12 -44z"/>
<path d="M4563 18498 c-9 -14 -40 -125 -50 -175 -9 -51 12 -54 116 -15 11 4 13 -2 8 -26 -9 -43 0 -62 28 -62 28 0 43 19 25 30 -18 11 6 103 36 139 20 24 22 30 10 41 -20 16 -50 -1 -65 -38 -8 -20 -25 -33 -58 -45 -25 -9 -48 -16 -50 -13 -2 2 8 36 22 75 15 40 24 79 21 87 -7 17 -32 18 -43 2z"/>
<path d="M7507 18493 c-10 -3 -17 -12 -15 -21 3 -14 14 -16 71 -14 37 2 67 1 67 -3 0 -19 -26 -49 -80 -90 -33 -25 -60 -51 -60 -56 0 -20 45 -25 124 -14 89 14 146 32 146 47 0 6 -17 8 -45 4 -25 -3 -66 -9 -92 -12 l-48 -5 38 32 c65 55 80 106 36 129 -18 10 -108 12 -142 3z"/>
<path d="M9297 18493 c-4 -3 -7 -12 -7 -20 0 -9 16 -13 58 -13 l57 0 -75 -70 -75 -71 24 -19 c13 -11 35 -20 50 -20 45 1 165 20 194 31 44 18 33 32 -20 26 -27 -4 -79 -9 -118 -13 l-70 -6 63 57 c66 61 79 95 43 115 -22 11 -114 14 -124 3z"/>
<path d="M4950 18471 c-8 -5 -44 -12 -80 -16 -80 -9 -110 -20 -110 -40 0 -15 10 -19 42 -16 15 2 15 -4 -3 -69 -22 -76 -22 -105 0 -105 8 0 24 36 42 94 16 52 30 95 32 96 1 1 14 5 28 8 l25 6 -17 -67 c-10 -37 -18 -88 -18 -114 -1 -44 1 -48 22 -48 30 0 40 10 26 27 -20 24 19 181 53 213 32 30 -1 54 -42 31z"/>
<path d="M5088 18420 c-53 -41 -44 -90 16 -90 l31 0 -48 -45 c-48 -46 -59 -79 -35 -103 24 -24 148 -9 148 18 0 6 -24 10 -55 10 -30 0 -55 4 -55 9 0 5 23 29 52 54 36 31 49 49 45 61 -7 17 -13 20 -60 31 -23 5 -27 9 -17 20 6 8 26 15 43 17 46 4 43 32 -4 36 -24 2 -43 -4 -61 -18z"/>
<path d="M12035 18378 c-21 -64 -75 -310 -70 -318 8 -13 270 -2 297 12 14 7 17 20 16 60 -3 53 -17 69 -43 48 -11 -9 -14 -23 -9 -46 l6 -34 -58 0 c-33 0 -83 -3 -113 -7 -50 -6 -54 -5 -49 13 25 84 68 252 68 267 0 20 -38 24 -45 5z"/>
<path d="M10952 18318 c-20 -26 -52 -98 -52 -118 0 -29 20 -34 87 -22 32 5 60 9 61 7 2 -2 -1 -34 -7 -71 -15 -97 9 -132 57 -81 27 29 28 41 2 34 -13 -3 -20 0 -20 8 0 33 23 121 36 136 19 21 18 45 -2 53 -17 7 -50 -8 -56 -25 -4 -13 -98 -25 -98 -13 0 5 9 24 20 42 16 27 18 37 9 48 -14 17 -24 18 -37 2z"/>
<path d="M11380 18310 c-14 -4 -53 -8 -87 -9 -68 -1 -80 -9 -62 -43 7 -13 15 -54 18 -93 9 -103 28 -100 72 11 43 112 66 123 33 17 -13 -43 -24 -88 -24 -99 0 -23 20 -37 37 -26 18 12 34 50 23 57 -5 3 1 33 16 73 42 108 36 132 -26 112z m-81 -72 c-17 -34 -19 -34 -19 -5 0 18 5 27 15 27 13 0 14 -4 4 -22z"/>
<path d="M11563 18305 c-17 -7 -39 -25 -49 -39 -16 -25 -16 -28 1 -46 10 -11 24 -20 32 -20 21 0 15 -16 -10 -27 -69 -32 -112 -101 -71 -117 45 -17 164 1 164 26 0 4 -30 8 -66 8 -78 0 -76 11 6 50 71 33 78 78 15 94 -45 11 -25 40 26 38 36 -1 48 17 24 35 -23 16 -31 16 -72 -2z"/>
<path d="M5307 18299 c-27 -16 -67 -85 -67 -117 0 -39 17 -52 68 -52 39 0 50 5 88 44 51 51 59 94 22 120 -25 18 -84 21 -111 5z m82 -28 c14 -9 8 -44 -12 -69 -19 -24 -66 -43 -84 -34 -11 6 -12 11 -4 16 6 4 11 18 11 31 0 14 11 32 26 44 29 23 42 25 63 12z"/>
<path d="M11677 18098 c-87 -47 -45 -134 54 -108 79 22 128 94 80 120 -31 16 -92 11 -134 -12z m110 -16 c16 -10 4 -26 -34 -46 -65 -33 -100 -9 -47 33 27 21 60 27 81 13z"/>
<path d="M486 17951 c-3 -5 3 -29 14 -54 11 -25 33 -104 50 -177 34 -149 54 -200 80 -200 25 0 42 24 98 142 54 114 97 183 145 236 23 24 28 35 20 43 -7 7 -19 9 -27 6 -27 -11 -112 -136 -171 -254 -31 -63 -61 -111 -65 -107 -5 5 -23 77 -40 159 -38 178 -51 215 -79 215 -11 0 -22 -4 -25 -9z"/>
<path d="M837 17680 c-64 -50 -72 -180 -13 -209 25 -12 34 -11 74 5 58 24 84 60 90 123 4 43 1 53 -21 75 -33 33 -92 35 -130 6z m104 -43 c17 -37 -9 -98 -51 -119 -40 -20 -58 -10 -38 21 11 19 11 24 -4 35 -23 17 -23 28 3 60 27 34 75 36 90 3z"/>
<path d="M4721 17441 c-27 -38 -75 -152 -100 -240 -28 -97 -34 -156 -20 -199 13 -41 61 -98 90 -105 33 -9 31 12 -5 43 -49 43 -61 85 -47 166 21 116 94 295 126 308 21 8 16 50 -6 54 -10 2 -26 -10 -38 -27z"/>
<path d="M6434 17395 c-4 -10 10 -33 36 -61 23 -25 56 -75 73 -112 29 -61 32 -76 32 -163 0 -90 -2 -98 -30 -139 -35 -51 -64 -71 -112 -79 -45 -7 -48 -25 -6 -29 67 -7 155 67 183 152 8 24 11 70 8 122 -4 73 -10 94 -46 166 -38 77 -102 158 -123 158 -5 0 -12 -7 -15 -15z"/>
<path d="M6918 17173 c-64 -160 -68 -166 -78 -137 -15 36 -36 141 -45 217 -5 47 -10 57 -25 57 -10 0 -21 -4 -24 -9 -9 -14 23 -180 51 -266 45 -141 65 -139 118 12 21 59 53 143 71 186 39 90 41 107 17 107 -14 0 -34 -40 -85 -167z"/>
<path d="M3269 17279 c-12 -12 -45 -69 -73 -128 l-51 -106 -3 118 c-3 116 -3 118 -25 115 -21 -3 -22 -8 -25 -124 -3 -130 6 -174 36 -174 30 0 56 37 112 156 43 94 55 111 71 107 15 -4 19 0 19 20 0 14 -7 28 -16 31 -22 8 -22 8 -45 -15z"/>
<path d="M231 17261 c-8 -5 -11 -16 -7 -26 5 -13 12 -15 29 -9 36 13 647 16 832 4 280 -18 535 -24 535 -12 0 11 -68 18 -270 27 -69 3 -190 10 -270 15 -183 12 -830 13 -849 1z"/>
<path d="M2523 17242 c-6 -4 -20 -41 -32 -82 -36 -123 -36 -120 -13 -120 14 0 27 14 42 45 20 42 80 105 100 105 5 0 13 -15 18 -32 7 -27 4 -39 -15 -67 -26 -38 -27 -74 -3 -79 25 -4 50 20 64 63 10 30 24 46 56 64 54 30 67 20 51 -43 -16 -66 -15 -98 5 -94 31 6 57 151 32 176 -18 18 -69 15 -110 -7 l-37 -18 -5 23 c-4 13 -17 31 -31 40 -22 14 -27 14 -55 1 -28 -14 -30 -14 -30 3 0 20 -21 32 -37 22z"/>
<path d="M4220 17210 c-36 -4 -97 -8 -137 -9 -74 -1 -96 -12 -72 -36 12 -11 31 -11 114 0 55 7 139 16 188 20 64 5 87 11 87 21 0 16 -64 17 -180 4z"/>
<path d="M4907 17214 c-4 -4 -7 -31 -7 -61 0 -29 -7 -70 -15 -90 -20 -48 -19 -73 3 -73 11 0 26 20 44 58 31 65 85 135 99 127 14 -10 11 -69 -7 -104 -9 -17 -13 -38 -10 -46 11 -29 37 -15 57 29 10 25 34 57 52 72 28 23 32 25 35 9 2 -9 -1 -37 -7 -60 -15 -58 -14 -75 4 -75 18 0 29 21 44 83 22 91 -9 125 -79 88 -39 -20 -40 -20 -40 -1 0 11 -11 27 -24 35 -28 18 -48 12 -81 -25 l-20 -22 -5 28 c-5 28 -28 42 -43 28z"/>
<path d="M5757 17213 c-4 -3 -7 -19 -7 -34 0 -15 -8 -54 -19 -88 -17 -54 -17 -62 -4 -73 13 -10 18 -9 32 11 27 39 113 131 123 131 11 0 3 -30 -23 -84 -11 -22 -19 -43 -19 -48 0 -23 39 -2 96 52 65 61 104 88 104 72 0 -5 -9 -35 -20 -67 -18 -52 -19 -61 -6 -74 13 -13 18 -9 35 31 64 149 35 199 -70 123 l-48 -34 -3 32 c-4 43 -36 47 -89 13 l-39 -26 0 35 c0 27 -4 35 -18 35 -10 0 -22 -3 -25 -7z"/>
<path d="M443 17098 c0 -40 -14 -134 -31 -208 -45 -203 -47 -220 -26 -220 10 0 28 9 40 21 26 24 112 39 237 39 96 0 110 9 88 56 -13 29 -35 27 -39 -3 -3 -20 -10 -21 -145 -25 -78 -2 -143 -4 -143 -3 -1 0 14 68 32 150 19 83 34 176 34 208 0 53 -2 57 -23 57 -21 0 -23 -4 -24 -72z"/>
<path d="M5475 17140 c-8 -16 -15 -36 -15 -45 0 -10 -9 -15 -29 -15 -31 0 -57 -22 -46 -40 4 -7 18 -9 31 -6 21 6 23 3 26 -41 4 -63 23 -66 34 -6 10 52 6 49 112 69 43 8 21 24 -33 24 -59 0 -62 2 -40 40 20 35 18 50 -5 50 -11 0 -26 -12 -35 -30z"/>
<path d="M4005 17109 c-4 -6 -3 -15 2 -20 13 -13 335 1 330 15 -5 15 -323 21 -332 5z"/>
<path d="M1079 17091 c-20 -16 -22 -23 -14 -47 7 -19 19 -30 34 -32 22 -3 23 -1 18 27 -6 29 -5 30 36 36 42 6 97 -7 97 -23 0 -5 -27 -30 -60 -55 -68 -53 -83 -88 -66 -151 11 -37 38 -67 51 -54 3 3 1 25 -5 50 -15 59 -2 89 57 129 83 56 94 87 41 119 -46 28 -156 28 -189 1z"/>
<path d="M5286 17055 c-24 -24 -49 -102 -42 -130 9 -37 29 -26 40 21 5 21 17 51 27 66 11 14 19 31 19 36 0 17 -29 22 -44 7z"/>
<path d="M3359 17045 c-21 -11 -28 -25 -34 -60 -8 -54 11 -91 49 -101 34 -8 57 1 94 37 37 36 42 75 14 109 -22 27 -87 36 -123 15z m79 -31 c29 -20 28 -48 -4 -73 -45 -35 -58 -29 -69 30 -6 30 -3 37 17 46 31 15 30 15 56 -3z"/>
<path d="M6135 17037 c-28 -21 -9 -40 31 -32 53 10 41 -11 -37 -60 -99 -64 -94 -79 31 -83 103 -3 160 3 160 18 0 6 -40 10 -90 10 -49 0 -90 3 -90 8 0 4 20 20 45 36 70 44 81 86 28 107 -34 13 -56 11 -78 -4z"/>
<path d="M2848 17019 c-10 -5 -18 -17 -18 -25 0 -20 27 -29 45 -14 29 24 17 -30 -16 -71 -46 -59 -38 -74 41 -74 77 1 140 12 140 25 0 6 -37 10 -82 10 l-81 0 20 23 c44 48 55 94 27 121 -18 18 -51 20 -76 5z"/>
<path d="M741 17001 c-7 -5 -11 -17 -9 -27 4 -21 5 -21 141 -9 42 4 77 10 77 15 0 5 -26 11 -57 15 -32 3 -76 7 -98 10 -22 2 -46 0 -54 -4z"/>
<path d="M1152 16727 c-14 -16 -6 -27 20 -27 13 0 18 6 16 17 -4 22 -22 27 -36 10z"/>
<path d="M1716 15608 c-23 -32 -46 -95 -46 -130 0 -27 38 -60 61 -53 23 8 23 1 4 -80 -20 -84 -19 -105 5 -105 13 0 20 7 20 19 0 41 52 218 79 271 l29 56 -33 27 c-47 38 -87 36 -119 -5z m74 -31 c0 -13 -5 -28 -11 -34 -7 -7 -12 -22 -13 -34 0 -12 -12 -29 -25 -38 l-24 -16 5 46 c6 50 33 99 54 99 8 0 14 -10 14 -23z"/>
<path d="M1206 15590 c-43 -52 -71 -181 -47 -219 6 -9 20 -12 40 -9 17 2 31 4 31 3 0 -1 -9 -37 -20 -80 -22 -87 -26 -140 -9 -151 18 -11 33 14 35 61 4 59 34 164 83 290 21 55 37 103 34 108 -2 4 -15 7 -28 7 -13 0 -27 5 -30 10 -13 22 -63 10 -89 -20z m60 -62 c-10 -75 -76 -170 -76 -110 0 29 26 110 44 137 27 42 39 31 32 -27z"/>
<path d="M9216 15599 c-31 -25 -66 -88 -66 -122 0 -36 23 -60 57 -60 l30 0 -22 -51 c-12 -28 -31 -77 -41 -110 l-18 -59 -77 7 c-60 5 -79 3 -88 -8 -19 -23 3 -29 108 -29 53 1 354 1 669 2 499 1 572 3 572 16 0 13 -47 15 -339 17 l-340 3 20 60 c11 33 43 107 72 164 66 133 64 181 -8 181 -97 0 -226 -192 -154 -231 12 -6 36 -8 54 -5 l33 7 -31 -91 -32 -90 -208 0 -207 0 6 28 c10 41 94 232 120 272 13 19 26 47 29 61 6 23 2 29 -26 43 -44 22 -81 20 -113 -5z m64 -45 c0 -52 -59 -119 -83 -95 -21 21 37 121 70 121 7 0 13 -11 13 -26z m471 -12 c-22 -74 -74 -132 -120 -132 -30 0 -27 29 8 77 35 48 77 83 102 83 15 0 16 -5 10 -28z"/>
<path d="M7513 15594 c-7 -3 -13 -14 -13 -23 0 -15 8 -18 44 -17 45 1 86 -23 86 -50 0 -6 -18 -36 -40 -65 -22 -30 -40 -61 -40 -71 0 -24 38 -32 113 -24 65 8 97 20 97 37 0 8 -26 9 -82 4 l-82 -7 36 42 c59 68 57 114 -7 156 -26 17 -91 27 -112 18z"/>
<path d="M4302 15478 c-17 -17 4 -38 39 -38 32 0 79 -19 79 -32 0 -4 -23 -24 -50 -44 -65 -47 -64 -68 5 -72 77 -5 155 7 155 24 0 11 -16 14 -67 14 l-68 0 33 23 c66 46 51 87 -44 117 -78 24 -67 23 -82 8z"/>
<path d="M5196 15455 c-67 -67 -124 -195 -148 -334 -14 -82 -1 -142 37 -167 28 -18 76 -15 83 5 3 10 -1 12 -17 8 -12 -3 -30 2 -42 12 -67 54 7 338 117 448 24 24 44 48 44 53 0 22 -41 8 -74 -25z"/>
<path d="M6744 15437 c-2 -7 10 -29 29 -49 82 -87 85 -276 6 -436 -17 -35 -28 -66 -25 -69 11 -12 54 39 76 89 57 132 62 286 14 385 -34 71 -87 113 -100 80z"/>
<path d="M7359 15373 c-84 -188 -123 -263 -129 -251 -4 7 -13 42 -20 78 -22 117 -53 167 -86 140 -10 -9 -9 -18 8 -46 11 -19 29 -73 39 -121 31 -143 67 -156 123 -44 62 124 128 282 122 297 -11 28 -27 13 -57 -53z"/>
<path d="M1883 15403 c-7 -2 -13 -14 -13 -25 0 -16 6 -19 38 -18 84 4 83 -10 -8 -91 -69 -61 -85 -91 -54 -103 37 -14 112 3 154 34 36 27 19 34 -41 16 -29 -9 -57 -16 -62 -16 -5 0 20 28 57 63 80 75 88 109 31 133 -34 14 -78 17 -102 7z"/>
<path d="M9807 15392 c-11 -16 9 -31 48 -34 l40 -3 -60 -40 c-39 -27 -60 -47 -60 -60 0 -17 8 -20 60 -23 73 -4 128 5 123 20 -3 8 -28 11 -68 9 l-65 -3 49 34 c61 41 75 61 60 86 -8 12 -27 18 -67 20 -30 2 -58 -1 -60 -6z"/>
<path d="M9345 15328 c-28 -59 -33 -118 -11 -118 7 0 23 27 35 60 12 32 26 62 31 65 19 12 11 45 -10 45 -15 0 -28 -14 -45 -52z"/>
<path d="M1403 15338 c-18 -22 -55 -144 -51 -169 6 -45 31 -26 50 36 9 33 22 70 29 81 20 38 -4 82 -28 52z"/>
<path d="M3860 15337 c0 -6 5 -28 10 -47 6 -19 17 -71 25 -115 13 -72 31 -105 56 -105 22 0 61 50 97 124 23 46 46 87 52 91 5 3 10 17 10 31 0 19 -5 25 -19 22 -13 -2 -36 -37 -73 -108 -29 -58 -57 -104 -63 -103 -5 1 -17 46 -27 98 -9 53 -19 103 -22 111 -7 17 -46 19 -46 1z"/>
<path d="M8297 15314 c-4 -4 -7 -21 -7 -38 0 -17 -3 -42 -7 -54 -5 -22 -10 -23 -62 -20 -52 3 -56 1 -59 -19 -3 -22 0 -23 57 -23 l61 0 0 -60 c0 -44 4 -60 14 -60 14 0 26 42 26 90 0 24 5 29 33 35 57 12 67 16 67 30 0 12 -10 13 -47 8 l-46 -6 6 39 c13 79 13 79 -8 82 -12 2 -24 0 -28 -4z"/>
<path d="M6449 15275 c-34 -26 -34 -26 -48 -5 -21 32 -67 24 -117 -22 -21 -19 -21 -19 -27 2 -4 14 -12 21 -24 18 -14 -2 -21 -20 -30 -73 -7 -39 -11 -76 -8 -82 9 -25 33 -12 58 30 14 23 42 58 62 77 30 29 37 32 45 20 6 -8 7 -22 4 -30 -3 -8 -8 -27 -11 -42 -9 -44 28 -37 63 13 29 42 69 79 87 79 9 0 5 -79 -9 -148 -6 -29 -4 -33 12 -30 24 4 57 110 50 156 -10 67 -48 80 -107 37z"/>
<path d="M5360 15269 c-13 -6 -32 -17 -41 -25 -16 -14 -18 -13 -24 5 -4 14 -15 21 -31 21 -23 0 -24 -1 -18 -62 10 -103 41 -112 85 -27 36 71 82 73 77 4 -2 -32 7 -55 22 -55 5 0 26 23 47 50 20 28 41 50 45 50 4 0 8 -24 8 -54 0 -37 4 -56 14 -59 22 -9 26 2 26 73 0 95 -30 116 -89 61 -17 -16 -31 -23 -31 -17 0 17 -33 46 -51 45 -8 0 -25 -5 -39 -10z"/>
<path d="M5938 15253 c-3 -24 -8 -28 -40 -31 -30 -3 -38 -7 -38 -23 0 -15 7 -19 35 -19 33 0 35 -2 35 -35 0 -48 25 -46 37 3 8 35 11 37 53 42 57 6 58 24 3 28 -41 3 -42 4 -36 33 5 26 3 29 -20 29 -21 0 -26 -5 -29 -27z"/>
<path d="M3574 15249 c-16 -12 -46 -38 -66 -58 l-38 -35 0 41 c0 71 -36 78 -97 20 l-33 -31 0 37 c0 30 -4 37 -20 37 -11 0 -20 -1 -20 -2 -1 -2 -3 -21 -6 -43 -3 -22 -15 -71 -26 -109 -13 -45 -16 -72 -10 -78 15 -15 25 -5 67 66 21 35 53 79 71 97 33 32 34 32 34 9 0 -13 -8 -47 -17 -77 -12 -40 -14 -56 -5 -65 8 -8 34 13 102 81 122 122 133 120 80 -14 -16 -42 -30 -83 -30 -91 0 -33 26 -6 59 61 25 51 35 84 35 120 1 46 -1 50 -25 53 -14 2 -38 -6 -55 -19z"/>
<path d="M4677 15234 c-3 -3 -3 -12 0 -20 7 -19 257 -21 251 -1 -3 6 -25 15 -49 19 -56 8 -194 10 -202 2z"/>
<path d="M5743 15198 c-15 -20 -33 -92 -33 -132 0 -29 4 -36 20 -36 15 0 20 7 20 25 0 14 9 50 19 79 14 39 16 57 8 65 -14 14 -22 14 -34 -1z"/>
<path d="M2841 15179 c-127 -8 -149 -15 -137 -45 5 -13 13 -15 39 -9 17 3 92 12 165 20 135 13 158 19 132 35 -16 11 -20 11 -199 -1z"/>
<path d="M6590 15141 c0 -12 5 -21 11 -21 6 0 -4 -25 -21 -55 -35 -61 -34 -85 3 -85 58 0 164 56 144 76 -3 3 -26 -2 -52 -11 -25 -10 -48 -15 -51 -12 -3 3 5 24 18 46 27 47 18 74 -26 79 -21 3 -26 -1 -26 -17z"/>
<path d="M4150 15117 c-41 -14 -59 -55 -19 -43 76 24 101 20 92 -14 -6 -22 -57 -60 -80 -60 -7 0 -13 9 -13 20 0 14 -7 20 -21 20 -17 0 -20 -5 -17 -32 3 -32 5 -33 49 -36 38 -2 52 2 79 24 59 50 63 104 8 123 -37 13 -34 13 -78 -2z"/>
<path d="M10032 15103 c-55 -27 -147 -177 -158 -255 -5 -38 -2 -46 21 -68 23 -22 37 -25 108 -28 79 -4 137 8 137 26 0 5 -33 7 -74 4 -105 -7 -167 18 -151 61 3 7 26 23 51 36 53 28 147 127 162 169 8 23 7 35 -4 51 -18 25 -47 26 -92 4z m58 -37 c0 -28 -114 -146 -141 -146 -13 0 48 96 83 130 31 32 58 39 58 16z"/>
<path d="M2747 15073 c-4 -3 -7 -13 -7 -21 0 -12 17 -14 113 -8 143 9 197 16 197 27 0 10 -293 12 -303 2z"/>
<path d="M3681 15071 c-21 -13 -5 -44 19 -38 30 8 25 -1 -25 -45 -65 -58 -59 -88 19 -88 39 0 96 18 96 31 0 5 -24 9 -52 9 l-53 0 43 39 c42 39 52 67 30 89 -14 14 -57 16 -77 3z"/>
<path d="M9408 15038 c-13 -20 -18 -21 -32 -9 -9 8 -23 10 -33 5 -10 -4 -36 -12 -58 -18 -24 -7 -41 -18 -43 -29 -4 -19 30 -37 36 -19 3 10 32 18 32 9 0 -2 -9 -30 -20 -62 -27 -79 -27 -107 3 -103 17 2 24 12 30 43 15 68 42 130 59 133 14 3 16 -7 11 -78 -6 -77 -5 -82 13 -78 15 3 21 18 30 83 6 44 15 95 19 113 7 28 5 32 -13 32 -11 0 -26 -10 -34 -22z"/>
<path d="M1635 15039 c-165 -4 -441 -5 -612 -2 -287 6 -313 5 -313 -10 0 -15 22 -17 213 -19 116 -2 316 -1 442 1 778 12 930 17 930 26 0 13 -255 14 -660 4z"/>
<path d="M9040 15027 c-32 -16 -40 -57 -12 -57 11 0 25 7 32 15 17 20 37 19 48 -2 14 -27 -2 -57 -47 -89 -45 -32 -61 -62 -40 -75 41 -26 173 3 208 45 22 27 5 30 -42 7 -24 -11 -58 -21 -76 -21 l-32 0 41 38 c32 32 40 46 40 75 0 65 -57 96 -120 64z"/>
<path d="M9572 15010 c-53 -38 -57 -72 -10 -96 l32 -17 -35 -31 c-80 -70 -72 -102 27 -99 l66 2 -6 -29 c-4 -24 -1 -33 19 -46 35 -23 86 -11 131 31 41 39 41 62 2 84 -22 13 -36 13 -85 3 -33 -7 -81 -12 -109 -12 l-49 0 48 44 c52 49 54 67 6 92 -38 19 -37 31 6 51 21 10 35 24 35 35 0 27 -31 22 -78 -12z m208 -239 c0 -15 -51 -51 -71 -51 -23 0 -23 4 -3 35 11 17 26 25 45 25 16 0 29 -4 29 -9z"/>
<path d="M2125 14808 c-2 -7 -9 -40 -16 -73 -6 -33 -22 -91 -35 -130 -40 -119 -43 -115 89 -115 149 0 180 17 163 86 -5 19 -12 25 -29 22 -18 -2 -21 -8 -19 -35 l3 -33 -92 0 c-82 0 -91 2 -86 18 3 9 20 67 38 128 18 61 29 118 26 127 -7 20 -36 23 -42 5z"/>
<path d="M1601 14755 c-36 -31 -41 -69 -12 -87 19 -11 18 -13 -10 -30 -16 -10 -35 -30 -41 -44 -21 -46 26 -64 125 -48 55 10 45 22 -24 30 -50 6 -58 9 -47 20 7 7 31 20 53 27 43 15 58 43 28 53 -10 3 -29 10 -42 15 -23 9 -23 11 -8 27 10 9 27 17 40 17 15 0 22 6 22 20 0 32 -46 31 -84 0z"/>
<path d="M890 14762 c-22 -5 -36 -14 -38 -25 -3 -15 4 -17 69 -15 48 2 73 -1 76 -9 2 -6 -28 -32 -66 -57 -39 -25 -71 -50 -71 -55 0 -24 46 -41 111 -41 77 0 146 19 200 54 l39 26 0 -44 c0 -25 5 -48 10 -51 20 -12 40 17 40 56 0 21 7 57 16 79 15 38 18 40 60 40 24 0 44 -2 44 -4 0 -2 -7 -23 -15 -46 -27 -77 -16 -130 27 -130 20 0 24 15 8 25 -12 8 -4 63 17 118 24 60 11 67 -118 67 -119 0 -122 -2 -94 -56 17 -33 22 -70 6 -45 -8 13 -19 10 -68 -15 -48 -24 -73 -30 -143 -32 l-85 -4 61 40 c66 43 81 71 56 102 -19 22 -85 33 -142 22z"/>
<path d="M1762 14594 c-12 -8 -29 -28 -37 -45 -36 -69 45 -103 142 -60 50 23 69 52 53 81 -21 40 -115 54 -158 24z m113 -35 c16 -16 -32 -49 -72 -49 -28 0 -34 3 -29 16 3 9 6 22 6 29 0 25 71 28 95 4z"/>
<path d="M5002 13328 c-47 -60 -111 -262 -137 -432 -19 -133 -19 -323 0 -418 28 -136 95 -238 157 -238 32 0 28 19 -7 36 -95 45 -149 263 -125 504 19 193 63 368 121 483 16 32 29 62 29 67 0 14 -26 12 -38 -2z"/>
<path d="M1688 13273 c-24 -55 -69 -125 -106 -165 -27 -30 -24 -58 7 -58 13 0 27 12 36 31 9 17 18 29 20 27 2 -2 -5 -39 -15 -82 -24 -95 -26 -136 -5 -136 16 0 20 12 65 205 17 72 37 147 46 168 28 72 -17 81 -48 10z"/>
<path d="M9378 13279 c-20 -11 -24 -34 -7 -45 6 -3 16 -1 22 5 17 17 45 13 67 -9 28 -28 25 -51 -10 -95 -33 -42 -38 -70 -14 -79 48 -19 274 7 274 31 0 9 -11 12 -37 9 -96 -12 -155 -16 -177 -10 l-24 6 24 35 c40 59 29 119 -26 148 -33 17 -67 19 -92 4z"/>
<path d="M8798 13239 c-10 -5 -18 -17 -18 -25 0 -12 9 -14 45 -8 58 8 59 -8 5 -71 -60 -70 -44 -85 93 -85 43 0 77 4 77 10 0 18 -38 30 -94 30 l-56 0 35 46 c39 51 41 60 19 92 -17 24 -74 30 -106 11z"/>
<path d="M10103 13148 c3 -12 17 -55 31 -94 61 -172 51 -594 -19 -761 -10 -24 -12 -40 -5 -47 17 -17 60 100 82 228 17 104 20 148 15 311 -5 194 -17 267 -53 341 -22 45 -61 62 -51 22z"/>
<path d="M3453 13133 c-29 -6 -31 -43 -4 -67 26 -24 57 -17 54 12 -3 25 5 28 32 9 35 -26 -1 -84 -104 -168 -52 -41 -48 -59 12 -59 45 0 201 25 217 35 21 13 -2 25 -38 20 -20 -2 -62 -7 -92 -10 l-54 -6 56 59 c61 64 77 100 60 137 -15 34 -76 50 -139 38z"/>
<path d="M9045 13129 c-4 -6 2 -40 13 -77 11 -37 28 -98 38 -137 17 -63 22 -70 46 -73 34 -4 50 19 83 119 15 43 33 80 41 83 20 8 18 65 -2 73 -22 8 -39 -15 -65 -96 -28 -84 -49 -134 -54 -129 -2 2 -14 49 -25 103 -26 123 -53 170 -75 134z"/>
<path d="M8396 13112 c-4 -7 13 -225 20 -249 6 -23 34 -14 46 15 41 98 59 133 67 128 5 -4 13 -35 16 -71 6 -53 11 -65 25 -65 11 0 22 12 29 33 7 17 24 50 38 72 27 40 27 40 34 15 4 -14 7 -44 8 -67 1 -52 9 -73 28 -73 12 0 14 15 12 86 -3 71 -7 88 -23 100 -28 20 -41 18 -73 -16 -31 -33 -43 -37 -43 -16 0 8 -8 24 -19 37 -16 20 -22 22 -44 12 -15 -7 -35 -29 -45 -49 l-19 -37 -7 71 c-5 49 -12 72 -22 76 -20 8 -22 8 -28 -2z"/>
<path d="M11347 13090 c-14 -11 -35 -40 -47 -64 -11 -25 -41 -63 -65 -85 -44 -41 -55 -64 -35 -76 5 -3 18 -1 29 4 18 10 19 8 14 -50 -6 -56 -4 -61 13 -57 12 2 20 13 22 28 10 93 36 173 73 227 21 32 39 63 39 70 0 22 -17 23 -43 3z"/>
<path d="M3713 13090 c-29 -12 -31 -50 -4 -50 11 0 23 5 26 10 3 6 27 10 53 10 l48 0 -9 -101 c-8 -99 -3 -130 21 -115 5 3 15 51 22 106 13 106 21 120 70 120 13 0 20 5 18 13 -6 15 -211 21 -245 7z"/>
<path d="M4019 13042 c-21 -22 -39 -44 -39 -50 0 -22 33 -42 67 -42 l35 0 -44 -36 c-54 -45 -63 -61 -48 -80 22 -25 140 -12 140 16 0 5 -21 10 -46 10 l-46 0 52 41 c65 52 63 70 -8 84 l-54 10 22 20 c12 11 34 20 49 20 19 0 26 5 26 20 0 15 -8 21 -33 23 -27 3 -40 -4 -73 -36z"/>
<path d="M5984 13070 c-24 -10 -36 -33 -28 -55 9 -22 35 -18 41 5 7 26 24 25 57 -1 36 -28 33 -59 -10 -100 -50 -48 -57 -64 -38 -83 19 -19 90 -21 145 -4 52 15 50 32 -3 25 -23 -3 -55 -3 -70 0 l-28 6 35 38 c57 63 43 134 -31 165 -38 16 -41 16 -70 4z"/>
<path d="M3765 13040 c-13 -22 -35 -184 -26 -193 18 -18 41 2 41 35 0 18 7 60 14 93 8 33 12 63 10 67 -7 11 -32 10 -39 -2z"/>
<path d="M6752 13018 c-43 -55 -95 -206 -112 -328 -9 -68 -9 -90 5 -135 17 -61 55 -98 94 -93 33 4 40 28 8 28 -34 0 -64 40 -73 95 -12 86 39 288 97 379 16 26 27 52 24 57 -9 13 -31 11 -43 -3z"/>
<path d="M8014 12989 c-9 -16 29 -63 57 -69 68 -16 79 -179 21 -303 -33 -72 -45 -84 -36 -38 8 40 -12 48 -31 12 -10 -21 -27 -33 -53 -40 -63 -18 -65 -13 -18 44 52 64 61 87 46 115 -22 41 -134 10 -117 -33 8 -21 31 -22 47 -2 14 17 30 20 30 6 0 -5 -22 -38 -50 -72 -27 -34 -50 -66 -50 -70 0 -5 11 -16 25 -25 30 -19 82 -13 133 16 39 23 40 18 7 -26 -47 -62 -16 -78 34 -17 82 99 131 253 111 345 -13 63 -24 85 -68 131 -36 36 -74 48 -88 26z"/>
<path d="M4255 12934 c-16 -8 -37 -22 -46 -30 -8 -8 -23 -14 -32 -14 -23 0 -22 -33 1 -53 10 -9 41 -21 70 -27 59 -13 108 -2 137 31 24 26 24 78 0 95 -25 19 -93 18 -130 -2z m89 -20 c39 -15 -1 -74 -50 -74 -26 0 -84 20 -84 28 0 8 90 51 107 52 6 0 18 -3 27 -6z"/>
<path d="M5784 12853 c-20 -54 -48 -120 -62 -148 -24 -47 -26 -49 -33 -25 -4 14 -7 71 -8 128 -1 96 -2 102 -21 102 -11 0 -23 -6 -26 -13 -2 -7 -1 -66 5 -131 9 -118 23 -156 57 -156 24 0 62 60 99 154 20 52 43 97 51 100 9 3 14 20 14 46 0 33 -3 40 -19 40 -15 0 -27 -21 -57 -97z"/>
<path d="M5116 12888 c-3 -13 -7 -69 -10 -126 -5 -101 -5 -103 16 -100 15 2 26 17 38 54 23 67 48 114 61 114 7 0 10 -27 8 -77 -4 -71 -2 -78 15 -78 14 0 24 14 36 51 24 70 49 116 60 109 5 -3 7 -45 3 -99 -4 -68 -3 -95 6 -101 23 -14 30 9 37 116 7 112 -1 149 -35 149 -18 0 -50 -30 -69 -65 -11 -20 -11 -20 -12 1 0 49 -56 59 -90 17 l-22 -28 3 40 c4 35 1 40 -18 43 -17 2 -24 -3 -27 -20z"/>
<path d="M8793 12904 c-18 -8 -16 -33 2 -40 21 -8 19 -31 -9 -90 -18 -38 -21 -55 -13 -63 8 -8 -32 -11 -148 -12 -198 -1 -248 -7 -253 -33 -4 -17 0 -18 39 -12 35 6 467 16 1287 29 42 1 62 5 62 13 0 22 -32 24 -156 14 -65 -5 -274 -10 -463 -10 l-345 0 45 29 c56 35 94 80 79 95 -7 7 -19 1 -40 -19 -16 -16 -32 -27 -34 -24 -3 2 1 23 7 47 8 31 8 48 1 60 -11 18 -40 25 -61 16z"/>
<path d="M9265 12870 c-9 -55 1 -77 41 -90 29 -10 40 -9 72 8 20 10 43 30 51 44 13 23 13 29 -2 52 -16 24 -23 26 -86 26 l-69 0 -7 -40z m120 -15 c0 -26 -50 -54 -66 -38 -7 7 -9 22 -5 38 6 22 11 26 39 23 24 -2 32 -8 32 -23z"/>
<path d="M6875 12859 c-9 -13 -7 -171 2 -206 7 -29 43 -31 50 -3 3 10 18 45 33 77 l28 58 1 -60 c2 -110 33 -113 83 -8 l32 68 6 -59 c3 -41 10 -62 22 -70 21 -13 45 5 32 25 -4 7 -8 44 -8 82 -1 54 -5 72 -18 81 -14 8 -23 5 -48 -19 -16 -15 -33 -38 -36 -49 -6 -18 -9 -14 -18 19 -10 33 -16 40 -36 40 -19 0 -33 -12 -57 -48 l-32 -48 -3 62 c-3 60 -17 85 -33 58z"/>
<path d="M7586 12862 c-2 -4 -8 -63 -12 -130 -7 -117 -6 -122 13 -122 14 0 28 19 54 73 l34 72 3 -57 c3 -56 15 -74 45 -62 7 2 30 30 50 60 l36 55 3 -73 c2 -57 6 -73 18 -73 12 0 17 19 22 85 13 150 -17 191 -70 98 -17 -29 -37 -62 -46 -73 -14 -19 -15 -16 -16 41 0 89 -27 93 -82 14 -18 -25 -18 -24 -12 38 6 58 5 62 -14 62 -12 0 -23 -4 -26 -8z"/>
<path d="M2471 12847 c-23 -29 4 -36 137 -38 73 0 136 2 140 5 13 14 -23 25 -98 30 -41 4 -96 8 -122 11 -29 2 -50 -1 -57 -8z"/>
<path d="M7407 12843 c-4 -3 -7 -21 -7 -39 0 -29 -4 -35 -27 -40 -48 -10 -53 -13 -53 -30 0 -13 7 -16 38 -12 36 5 38 4 54 -33 18 -43 55 -57 44 -16 -20 71 -20 67 13 67 21 0 31 5 31 15 0 10 -10 15 -30 15 -30 0 -30 1 -24 40 6 35 4 40 -13 40 -11 0 -23 -3 -26 -7z"/>
<path d="M10570 12824 c-6 -14 -13 -43 -16 -65 l-7 -39 -74 0 c-71 0 -74 -1 -71 -22 3 -22 7 -23 76 -19 l72 3 0 -70 c0 -39 5 -74 10 -77 13 -8 17 6 25 86 l6 67 45 5 c75 8 75 27 0 30 -25 1 -46 2 -46 3 0 0 7 24 15 52 9 29 13 57 10 62 -11 19 -35 10 -45 -16z"/>
<path d="M1860 12819 c-108 -8 -421 -19 -523 -19 -50 0 -58 -2 -55 -17 3 -16 17 -18 148 -15 80 1 274 10 432 19 267 15 288 15 312 0 14 -9 30 -17 36 -17 18 0 11 28 -12 44 -25 18 -145 19 -338 5z"/>
<path d="M3600 12764 c-14 -2 -73 -6 -132 -9 -100 -6 -108 -8 -108 -27 0 -19 4 -20 53 -14 63 9 469 26 478 21 15 -10 704 -6 707 4 2 6 -7 12 -20 15 -26 5 -940 15 -978 10z"/>
<path d="M6262 12754 c4 -23 56 -33 168 -32 82 0 122 8 127 25 3 7 -19 11 -63 11 -38 0 -106 4 -152 8 -79 6 -84 5 -80 -12z"/>
<path d="M7229 12718 c-7 -24 -13 -72 -13 -108 -1 -55 2 -65 18 -68 25 -5 46 16 27 28 -13 7 -13 18 -2 72 19 91 19 112 -1 116 -12 2 -20 -8 -29 -40z"/>
<path d="M5428 12739 c-10 -5 -18 -17 -18 -26 0 -11 8 -14 30 -11 28 4 30 2 30 -27 0 -18 -13 -52 -31 -79 -53 -84 -24 -97 90 -40 49 24 76 45 87 65 21 41 7 60 -20 27 -17 -21 -93 -68 -110 -68 -2 0 5 17 15 37 46 90 0 165 -73 122z"/>
<path d="M2565 12725 c-5 -2 -27 -6 -47 -10 -30 -5 -38 -10 -38 -27 0 -19 4 -20 38 -13 20 4 75 10 122 14 85 6 109 21 54 32 -31 7 -113 10 -129 4z"/>
<path d="M11222 12699 c-132 -14 -196 -31 -200 -53 -4 -21 -16 -21 148 9 73 14 150 18 337 19 215 1 241 3 227 16 -12 12 -53 15 -222 17 -114 0 -244 -3 -290 -8z"/>
<path d="M5803 12663 c-14 -5 -18 -33 -5 -33 5 0 7 -14 4 -30 -8 -59 58 -96 117 -66 55 29 65 73 26 111 -20 21 -34 25 -77 24 -29 0 -59 -3 -65 -6z m98 -33 c23 -13 25 -43 4 -60 -12 -10 -21 -10 -41 -2 -24 11 -24 13 -9 42 17 34 19 34 46 20z"/>
<path d="M11318 12624 c-65 -35 -108 -168 -108 -335 0 -82 3 -100 21 -123 15 -19 30 -26 55 -26 37 0 114 34 114 50 0 14 -18 12 -67 -5 -67 -23 -83 -8 -83 82 0 31 7 49 26 70 35 38 102 178 110 232 6 36 4 46 -11 58 -23 16 -23 16 -57 -3z m27 -56 c-10 -43 -48 -127 -70 -153 -16 -19 -16 -18 -10 20 10 64 61 165 82 165 3 0 1 -15 -2 -32z"/>
<path d="M1630 12571 c-14 -26 -55 -404 -46 -426 4 -12 13 -16 29 -12 90 23 128 28 255 35 154 9 178 17 147 52 -17 19 -21 20 -31 6 -9 -13 -45 -18 -170 -25 -88 -5 -166 -12 -175 -16 -19 -7 -17 29 13 225 26 171 26 174 6 178 -9 2 -22 -6 -28 -17z"/>
<path d="M3754 12575 c-5 -11 -11 -12 -24 -5 -67 36 -160 -37 -160 -124 0 -64 69 -75 129 -21 l39 36 -6 -43 c-4 -24 -7 -79 -7 -123 0 -73 2 -80 20 -80 18 0 20 6 17 55 -1 30 2 80 8 110 25 134 30 194 17 202 -18 11 -27 10 -33 -7z m-34 -50 c10 -12 6 -22 -28 -55 -36 -37 -82 -54 -82 -31 0 18 21 66 37 83 20 22 56 23 73 3z"/>
<path d="M4113 12533 c-57 -53 -83 -131 -58 -169 17 -26 44 -31 77 -13 17 9 19 8 15 -8 -3 -10 -8 -44 -12 -75 -7 -67 6 -101 37 -96 26 4 37 28 13 28 -14 0 -15 8 -10 48 9 68 24 155 27 156 47 16 72 81 47 124 -12 22 -23 28 -60 30 -39 2 -51 -1 -76 -25z m95 -20 c2 -8 -5 -13 -17 -13 -14 0 -22 -8 -26 -27 -8 -39 -27 -74 -47 -87 -45 -28 -32 58 17 110 33 35 64 42 73 17z"/>
<path d="M8476 12493 c-55 -84 -95 -381 -65 -486 11 -41 47 -71 73 -61 22 8 20 21 -4 27 -34 9 -43 52 -36 182 6 141 33 259 70 315 15 22 24 45 21 50 -12 20 -35 9 -59 -27z"/>
<path d="M9841 12490 c-18 -11 -6 -40 16 -40 22 0 63 -27 63 -41 0 -5 -20 -32 -45 -58 -25 -26 -45 -53 -45 -59 0 -36 116 -44 169 -11 23 14 30 24 23 31 -7 7 -16 6 -30 -1 -11 -6 -40 -11 -63 -11 l-41 0 36 40 c40 45 47 87 18 113 -28 25 -86 47 -101 37z"/>
<path d="M9670 12440 c0 -6 9 -24 21 -39 18 -24 21 -42 20 -117 -1 -74 -17 -188 -20 -146 -1 18 -18 15 -51 -10 -16 -12 -32 -20 -34 -17 -3 2 11 29 30 59 54 87 43 145 -28 138 -26 -2 -34 -8 -36 -26 -3 -21 0 -23 25 -20 24 2 28 0 26 -19 -1 -11 -18 -47 -38 -80 -39 -65 -42 -78 -19 -87 29 -11 51 -6 88 19 42 28 43 24 16 -64 -19 -62 -19 -81 0 -81 14 0 27 30 49 114 47 177 48 320 4 368 -17 19 -53 25 -53 8z"/>
<path d="M3862 12408 c-15 -20 -52 -177 -52 -224 0 -52 22 -76 48 -50 14 14 15 18 3 25 -18 11 -10 80 20 169 20 60 20 92 1 92 -5 0 -14 -6 -20 -12z"/>
<path d="M9468 12383 c-9 -10 -24 -34 -33 -53 l-18 -35 -7 26 c-13 48 -30 69 -55 69 -13 0 -29 -8 -34 -17 -10 -17 -10 -17 -11 0 0 11 -8 17 -23 17 -23 0 -24 -4 -31 -102 -4 -60 -2 -106 3 -111 19 -19 38 3 56 65 9 34 23 74 30 87 12 24 13 23 24 -28 6 -28 11 -61 11 -71 0 -14 7 -20 23 -20 19 0 28 11 48 58 l24 57 5 -70 c4 -53 9 -70 20 -70 21 0 38 154 22 190 -14 29 -33 32 -54 8z"/>
<path d="M4273 12344 c-6 -16 15 -37 29 -28 9 6 68 -24 68 -35 0 -4 -18 -24 -40 -45 -46 -42 -48 -51 -19 -67 52 -27 248 35 215 68 -3 4 -16 1 -29 -5 -23 -12 -128 -35 -134 -29 -1 2 11 16 27 32 36 34 38 55 8 82 -49 44 -113 58 -125 27z"/>
<path d="M9087 12353 c-4 -3 -7 -23 -7 -44 0 -35 -2 -38 -27 -36 -22 2 -28 -2 -28 -18 0 -16 7 -20 33 -20 30 0 32 -2 32 -37 0 -52 28 -53 32 -1 3 33 7 39 36 47 41 11 43 36 2 36 -28 0 -30 2 -30 40 0 32 -4 40 -18 40 -10 0 -22 -3 -25 -7z"/>
<path d="M8515 12330 c-4 -6 -1 -18 6 -26 8 -10 15 -54 17 -110 4 -89 5 -94 27 -94 18 0 28 13 53 68 27 60 30 64 31 36 2 -64 40 -49 91 35 13 22 28 41 32 41 4 0 8 -24 8 -54 0 -52 16 -86 40 -86 12 0 0 161 -13 178 -16 21 -38 14 -78 -26 l-38 -39 -10 29 c-15 44 -41 32 -73 -32 l-27 -55 -1 45 c0 25 -6 56 -13 70 -14 27 -41 38 -52 20z"/>
<path d="M8885 12178 c-10 -95 -3 -162 16 -166 14 -2 17 12 22 85 4 48 9 100 13 116 6 24 4 27 -19 27 -24 0 -26 -4 -32 -62z"/>
<path d="M5008 10457 c-72 -67 -87 -97 -51 -97 8 0 33 19 54 43 l39 42 -6 -40 c-10 -63 -32 -168 -39 -187 -11 -27 21 -23 39 5 12 18 59 215 69 287 5 34 -33 15 -105 -53z"/>
<path d="M1396 10253 c-3 -10 -15 -71 -26 -136 -23 -136 -51 -255 -82 -344 -12 -35 -19 -66 -15 -70 4 -3 49 2 100 11 50 10 137 19 191 20 103 3 120 10 91 40 -18 18 -45 21 -45 6 0 -6 -35 -10 -82 -11 -46 0 -108 -4 -138 -8 -30 -5 -56 -7 -58 -6 -2 1 11 56 28 122 26 101 76 325 83 373 3 22 -40 25 -47 3z"/>
<path d="M10604 10035 c-4 -9 -3 -20 2 -25 10 -10 314 -18 314 -9 0 17 -32 27 -105 33 -44 4 -108 9 -142 12 -53 5 -64 4 -69 -11z"/>
<path d="M1922 9968 c3 -22 9 -23 113 -29 164 -9 165 18 2 40 -112 16 -119 15 -115 -11z"/>
<path d="M4845 9964 c-33 -2 -202 -8 -375 -14 -367 -12 -576 -23 -860 -46 -168 -14 -257 -15 -495 -8 -446 13 -530 12 -530 -6 0 -13 54 -16 395 -24 332 -7 428 -6 605 8 299 24 513 34 985 50 423 15 632 12 955 -15 105 -8 275 -10 570 -5 1091 16 1610 18 1895 7 434 -17 1083 -15 1320 3 107 9 272 16 367 16 179 0 203 3 203 26 0 17 -151 18 -370 4 -520 -33 -514 -33 -1125 -19 -881 19 -1441 22 -1580 10 -66 -6 -340 -14 -610 -17 -396 -5 -533 -4 -715 9 -236 17 -533 26 -635 21z"/>
<path d="M10640 9881 c0 -20 4 -21 119 -21 65 0 133 -3 150 -6 19 -4 31 -2 31 4 0 22 -40 31 -169 38 -130 7 -131 7 -131 -15z"/>
<path d="M1946 9841 c-32 -6 -46 -28 -24 -36 24 -9 221 20 226 33 3 9 -19 12 -85 11 -48 -1 -101 -4 -117 -8z"/>
<path d="M5811 9723 c-123 -245 -159 -670 -71 -842 21 -42 73 -91 96 -91 21 0 18 7 -20 45 -69 69 -103 228 -86 408 18 187 63 362 121 465 16 29 27 57 24 62 -14 23 -37 6 -64 -47z"/>
<path d="M8330 9758 c0 -8 15 -50 34 -94 65 -154 80 -238 81 -434 0 -194 -11 -255 -66 -367 -29 -61 -98 -133 -127 -133 -18 0 -10 -24 9 -28 24 -5 98 55 130 105 133 210 131 627 -4 910 -21 45 -57 71 -57 41z"/>
<path d="M9418 9525 c-79 -86 -91 -108 -62 -119 19 -7 34 1 34 18 0 7 11 23 25 36 30 28 30 25 6 -37 -30 -78 -34 -103 -16 -103 16 0 48 64 99 197 27 70 27 93 3 93 -7 -1 -47 -39 -89 -85z"/>
<path d="M3620 9573 c-35 -24 -49 -44 -50 -70 0 -25 34 -53 65 -53 17 0 15 -4 -12 -26 -47 -37 -45 -70 6 -85 29 -8 43 -8 60 0 28 15 18 31 -20 31 -39 0 -37 17 6 37 34 16 50 37 40 53 -2 4 -25 13 -49 19 -25 6 -47 15 -51 20 -8 15 36 51 62 51 16 0 23 6 23 20 0 26 -45 27 -80 3z"/>
<path d="M3284 9569 c-47 -11 -79 -40 -71 -64 8 -20 47 -20 47 0 0 14 37 35 60 35 4 0 2 -25 -7 -56 -19 -74 -15 -118 13 -122 18 -3 20 3 21 45 0 26 9 67 18 91 16 38 20 42 53 42 l35 0 -21 -23 c-26 -27 -47 -114 -38 -151 6 -23 11 -27 38 -24 36 3 52 28 18 28 -19 0 -20 4 -14 38 9 49 21 73 52 98 38 32 24 50 -51 63 -73 13 -96 13 -153 0z"/>
<path d="M2926 9547 c-19 -14 -19 -48 0 -54 7 -2 18 3 26 10 22 23 71 30 93 13 19 -13 18 -15 -16 -47 -19 -19 -50 -45 -67 -59 -25 -19 -30 -29 -22 -40 7 -12 32 -15 117 -14 100 1 153 12 153 32 0 4 -46 6 -102 4 l-103 -4 48 44 c53 50 62 87 25 112 -28 20 -127 21 -152 3z"/>
<path d="M5402 9534 c-26 -18 -29 -49 -6 -58 25 -10 31 -7 37 15 5 19 7 20 36 4 17 -8 31 -20 31 -25 0 -5 -22 -27 -49 -47 -94 -72 -77 -103 55 -103 48 0 86 5 89 11 10 16 4 18 -74 25 l-74 7 42 35 c56 46 66 67 47 96 -15 23 -72 56 -98 56 -7 0 -24 -7 -36 -16z"/>
<path d="M7428 9491 l-42 -38 -15 31 c-22 42 -66 47 -108 12 -30 -25 -31 -25 -36 -6 -3 12 -14 20 -26 20 -21 0 -22 -4 -19 -82 3 -70 6 -83 21 -86 10 -2 19 4 23 15 14 46 48 102 70 113 30 17 35 12 42 -45 3 -27 11 -49 19 -52 8 -3 35 18 69 56 31 33 60 61 65 61 5 0 9 -34 9 -76 0 -66 2 -75 18 -72 23 4 41 125 24 163 -18 39 -63 34 -114 -14z"/>
<path d="M7638 9459 c-10 -5 -15 -16 -11 -25 4 -12 14 -14 40 -9 33 6 63 -6 63 -26 0 -5 -25 -27 -55 -49 -54 -40 -67 -63 -42 -73 6 -3 -137 -6 -319 -6 -182 -1 -359 -4 -393 -7 -52 -6 -61 -10 -61 -27 0 -18 5 -19 44 -14 25 4 192 9 373 12 861 14 993 18 993 26 0 5 -98 9 -217 10 -169 0 -212 3 -193 11 22 10 12 13 -75 23 -55 7 -95 13 -89 14 25 3 74 59 74 84 0 50 -83 85 -132 56z"/>
<path d="M5160 9363 c-18 -43 -46 -111 -62 -151 -16 -39 -33 -70 -37 -67 -5 2 -11 41 -15 86 -7 89 -26 146 -51 155 -27 11 -37 -9 -20 -42 8 -17 21 -79 30 -139 19 -136 22 -145 46 -145 25 0 51 42 91 148 17 45 37 82 43 82 11 0 45 102 45 135 0 8 -9 15 -19 15 -14 0 -27 -19 -51 -77z"/>
<path d="M3750 9381 c-15 -28 -12 -46 8 -64 41 -37 171 -29 187 11 11 30 -38 50 -108 44 -10 -1 -20 5 -23 13 -9 22 -51 19 -64 -4z m55 -31 c3 -5 1 -10 -4 -10 -6 0 -11 5 -11 10 0 6 2 10 4 10 3 0 8 -4 11 -10z m68 -17 c-13 -2 -33 -2 -45 0 -13 2 -3 4 22 4 25 0 35 -2 23 -4z"/>
<path d="M8856 9348 c-3 -7 -7 -25 -10 -40 -6 -28 -7 -28 -86 -28 -44 0 -82 -5 -85 -10 -11 -18 15 -39 43 -35 15 2 48 6 75 9 44 5 47 4 47 -17 0 -25 26 -67 41 -67 7 0 8 12 4 30 -8 38 2 70 23 70 32 0 92 21 92 32 0 7 -18 8 -56 3 l-55 -7 7 36 c6 32 4 36 -15 36 -12 0 -23 -6 -25 -12z"/>
<path d="M6049 9328 c-7 -13 -36 -52 -66 -87 -54 -63 -63 -93 -31 -99 11 -2 24 9 35 30 l18 33 5 -95 c4 -76 8 -95 20 -95 12 0 17 22 23 108 4 59 14 127 23 150 28 76 28 77 6 77 -12 0 -27 -10 -33 -22z"/>
<path d="M4593 9298 c-11 -13 -30 -38 -41 -56 l-19 -33 -13 31 c-17 40 -55 42 -73 3 l-12 -27 -5 34 c-4 27 -10 35 -25 35 -18 0 -20 -8 -23 -80 -2 -58 1 -86 12 -100 14 -19 15 -19 34 -2 10 9 24 36 31 58 14 47 28 42 33 -11 2 -27 8 -36 25 -38 19 -3 28 10 63 82 43 92 66 108 74 54 3 -18 8 -50 11 -70 4 -24 11 -38 20 -38 19 0 21 113 2 150 -17 35 -65 39 -94 8z"/>
<path d="M9282 9259 c-51 -10 -62 -16 -62 -35 0 -20 27 -29 44 -15 23 20 193 34 319 27 94 -5 118 -4 115 6 -3 7 -22 16 -44 20 -54 9 -319 8 -372 -3z"/>
<path d="M3378 9240 c-450 -4 -590 -8 -600 -17 -24 -25 7 -30 122 -22 63 4 309 8 545 8 467 1 565 6 565 27 0 8 -9 13 -22 12 -13 -1 -287 -5 -610 -8z"/>
<path d="M4177 9224 c-14 -14 -7 -65 9 -71 21 -8 46 24 42 52 -3 20 -37 33 -51 19z"/>
<path d="M4747 9208 c-32 -12 -34 -45 -2 -40 11 1 36 5 56 8 69 12 58 -44 -25 -126 -25 -24 -46 -50 -46 -57 0 -39 153 -18 204 28 22 20 28 31 20 39 -8 8 -18 5 -36 -9 -13 -11 -38 -23 -54 -26 -16 -4 -38 -9 -49 -12 -15 -4 -11 4 16 33 44 47 59 74 59 108 0 56 -67 82 -143 54z"/>
<path d="M6287 9197 c-10 -25 15 -36 99 -43 55 -4 91 -2 118 8 68 23 54 34 -41 33 -49 0 -106 4 -129 9 -33 6 -42 5 -47 -7z"/>
<path d="M9462 9150 c-42 -26 -73 -94 -80 -175 -4 -54 -2 -64 20 -89 38 -45 158 -53 228 -16 28 15 26 34 -2 24 -13 -4 -58 -8 -101 -9 -87 0 -107 12 -107 65 0 22 8 31 40 45 51 23 120 97 120 128 0 50 -59 63 -118 27z m78 -25 c0 -24 -78 -95 -104 -95 -12 0 34 79 51 89 19 11 53 15 53 6z"/>
<path d="M5199 9130 c-12 -7 -17 -25 -17 -65 0 -48 3 -58 24 -72 47 -30 142 0 166 53 10 21 8 28 -12 49 -36 38 -123 57 -161 35z m106 -42 c32 -14 32 -33 1 -53 -31 -20 -83 -17 -77 5 3 8 5 25 5 38 1 25 29 30 71 10z"/>
<path d="M3073 9119 c-40 -12 -79 -58 -94 -111 -21 -81 30 -121 103 -80 l38 20 0 -22 c0 -12 -7 -71 -15 -131 -16 -112 -13 -130 21 -123 16 3 18 11 16 44 -2 22 4 80 12 130 9 49 16 106 16 126 0 25 7 44 21 57 31 28 19 68 -26 87 -39 16 -47 16 -92 3z m60 -35 c12 -4 11 -13 -8 -53 -24 -48 -60 -81 -91 -81 -29 0 -11 79 26 113 30 27 46 32 73 21z"/>
<path d="M3500 9023 c-40 -21 -80 -75 -80 -109 0 -48 40 -63 104 -38 17 6 18 4 13 -27 -4 -19 -10 -65 -13 -102 -7 -68 -7 -69 17 -65 21 3 24 9 24 43 1 22 7 74 15 116 11 64 16 75 31 72 25 -7 32 13 19 51 -21 65 -73 88 -130 59z m62 -29 c9 -9 -21 -62 -45 -79 -21 -15 -57 -21 -57 -9 0 11 23 50 43 72 19 21 47 29 59 16z"/>
<path d="M7695 9030 c-9 -14 -35 -157 -35 -191 0 -22 5 -29 19 -29 14 0 29 18 52 59 38 73 64 100 81 83 8 -8 9 -24 1 -57 -11 -48 -9 -55 18 -55 10 0 21 13 28 33 15 41 58 107 71 107 6 0 10 -34 10 -79 0 -44 4 -82 9 -85 17 -11 29 20 36 89 10 115 -24 152 -88 96 -30 -27 -36 -29 -47 -16 -21 25 -63 18 -95 -15 -16 -16 -30 -28 -32 -27 -1 2 2 18 7 37 12 42 -15 82 -35 50z"/>
<path d="M7494 9019 c-4 -6 -12 -32 -18 -57 -10 -36 -18 -48 -37 -52 -33 -8 -31 -35 2 -35 24 1 27 -4 32 -43 2 -24 7 -45 10 -48 14 -14 27 11 27 51 0 42 1 44 32 47 41 4 47 24 8 31 -25 5 -30 11 -30 35 0 15 5 33 11 39 7 7 9 19 6 27 -7 18 -33 21 -43 5z"/>
<path d="M7115 8975 c-16 -7 -41 -23 -54 -33 l-25 -20 -19 24 c-21 28 -44 30 -75 8 -21 -14 -22 -14 -22 5 0 16 -6 21 -24 21 -22 0 -25 -5 -30 -47 -4 -27 -10 -66 -15 -88 -5 -22 -7 -43 -5 -47 13 -21 36 -2 65 53 50 94 91 97 74 6 -9 -48 12 -60 39 -21 40 57 103 114 126 114 21 0 22 -3 18 -77 -3 -72 -2 -78 17 -78 11 0 20 7 20 15 1 8 5 41 9 72 13 94 -23 129 -99 93z"/>
<path d="M8053 8933 c-7 -2 -13 -14 -13 -25 0 -18 5 -20 34 -15 32 5 56 -6 56 -27 0 -5 -21 -28 -46 -52 -56 -51 -55 -74 5 -74 22 0 52 5 68 11 41 15 93 52 93 67 0 16 -7 15 -44 -7 -17 -10 -44 -21 -60 -25 l-29 -7 27 31 c37 44 38 84 4 113 -19 16 -68 22 -95 10z"/>
<path d="M7296 8854 c-11 -83 -8 -116 11 -112 11 2 20 22 30 68 15 73 12 90 -15 90 -15 0 -21 -10 -26 -46z"/>
<path d="M3239 8833 c-17 -44 -33 -157 -26 -185 7 -28 27 -40 46 -28 10 5 10 13 2 27 -12 24 2 131 24 173 16 30 11 40 -17 40 -11 0 -23 -11 -29 -27z"/>
<path d="M3680 8840 c-28 -17 -2 -40 47 -40 l48 -1 -43 -37 c-75 -65 -42 -110 70 -98 53 6 91 22 83 36 -3 5 -30 6 -59 3 -84 -9 -92 -1 -45 45 43 43 45 50 27 74 -15 18 -107 31 -128 18z"/>
<path d="M5609 7595 c-28 -15 -62 -84 -73 -146 -7 -37 -20 -54 -60 -74 -11 -6 -22 -21 -24 -33 -3 -17 2 -22 20 -22 13 0 29 5 36 12 9 9 12 2 12 -34 0 -35 6 -54 24 -75 21 -25 32 -28 97 -31 46 -2 85 1 104 9 28 12 25 13 -57 19 -116 7 -132 21 -125 106 4 55 10 68 56 128 28 37 54 78 57 91 14 57 -15 79 -67 50z m13 -67 c-7 -7 -12 -8 -12 -2 0 14 12 26 19 19 2 -3 -1 -11 -7 -17z"/>
<path d="M9760 7154 c-11 -12 -10 -18 3 -31 20 -20 170 -32 181 -14 9 14 -33 31 -77 31 -18 1 -43 7 -57 15 -32 18 -35 18 -50 -1z"/>
<path d="M1884 7077 c-3 -9 -3 -21 1 -27 14 -22 285 -3 285 21 0 5 -49 9 -109 9 -60 0 -122 3 -140 6 -23 5 -32 2 -37 -9z"/>
<path d="M8720 7063 c-36 -2 -146 -10 -245 -18 -361 -31 -716 -45 -1487 -59 -433 -8 -792 -17 -797 -20 -16 -10 -630 -8 -1124 3 -320 8 -513 17 -640 31 -418 45 -721 56 -1121 41 -209 -8 -405 -9 -530 -4 -143 6 -203 5 -214 -3 -35 -26 31 -30 413 -26 934 10 1056 7 1465 -38 216 -24 1025 -44 1480 -37 168 3 607 10 975 15 369 6 751 15 850 21 99 6 266 15 370 21 205 10 580 37 684 48 75 8 100 33 29 30 -23 -1 -72 -3 -108 -5z"/>
<path d="M9826 7031 c-4 -6 -4 -15 -1 -21 9 -14 262 -13 270 1 4 6 5 12 3 14 -1 2 -62 7 -134 11 -94 5 -133 3 -138 -5z"/>
<path d="M2110 6990 c-99 -4 -115 -7 -118 -22 -3 -16 6 -18 85 -17 90 1 169 17 166 34 -2 12 3 12 -133 5z"/>
<path d="M5097 6813 c-14 -13 -6 -21 58 -63 74 -48 78 -63 25 -97 -110 -69 -102 -82 52 -85 106 -3 141 2 126 18 -3 3 -40 8 -82 11 -42 3 -76 7 -76 9 0 2 17 19 37 37 34 32 36 36 24 63 -6 16 -39 48 -71 72 -58 41 -80 49 -93 35z"/>
<path d="M5576 6760 c-83 -76 -158 -278 -128 -344 15 -35 67 -43 146 -23 80 20 136 43 136 56 0 15 -10 14 -92 -9 -84 -23 -146 -26 -154 -7 -5 14 34 88 108 202 62 96 79 131 72 149 -10 27 -42 18 -88 -24z m-2 -84 c-9 -15 -19 -24 -22 -22 -2 3 3 17 12 32 10 14 20 23 23 21 2 -3 -3 -17 -13 -31z m-32 -48 c-7 -7 -12 -8 -12 -2 0 14 12 26 19 19 2 -3 -1 -11 -7 -17z"/>
<path d="M4700 6686 c0 -8 25 -64 55 -125 41 -83 60 -111 74 -111 25 0 34 13 62 93 13 37 29 67 35 67 12 0 23 48 16 68 -2 7 -12 12 -22 12 -13 0 -27 -20 -49 -74 -17 -41 -31 -79 -31 -85 0 -32 -22 -1 -56 79 -32 76 -42 90 -61 90 -13 0 -23 -6 -23 -14z"/>
<path d="M3638 6650 c-44 -24 -79 -66 -71 -86 3 -8 19 -18 35 -21 l29 -6 -31 -32 c-21 -22 -31 -40 -28 -56 3 -22 7 -24 67 -24 43 0 66 4 69 13 2 8 -9 12 -35 12 -22 0 -43 3 -47 7 -3 4 13 23 36 44 37 31 41 39 30 52 -8 9 -26 17 -40 19 -36 4 -33 19 9 40 32 17 46 48 24 54 -5 2 -26 -6 -47 -16z"/>
<path d="M3245 6633 c-30 -7 -45 -23 -38 -39 6 -17 34 -19 50 -3 6 6 39 13 73 16 l61 6 -6 -70 c-10 -101 15 -135 76 -103 28 15 24 33 -6 26 -24 -6 -25 -5 -25 47 0 39 6 61 20 80 20 26 20 26 1 36 -19 11 -167 13 -206 4z"/>
<path d="M2943 6623 c-18 -7 -16 -42 3 -50 8 -3 20 -1 27 6 13 13 73 15 81 2 6 -9 -34 -46 -88 -84 -59 -41 -12 -67 86 -49 78 14 175 59 161 73 -8 8 -19 6 -39 -4 -27 -13 -120 -37 -146 -37 -7 0 7 16 30 36 48 41 54 74 20 98 -21 15 -107 21 -135 9z"/>
<path d="M4164 6601 c-17 -10 -44 -39 -60 -65 -16 -25 -31 -46 -34 -46 -3 0 -12 21 -20 48 -11 36 -20 48 -38 50 -23 4 -46 -28 -24 -36 6 -2 16 -20 22 -40 37 -122 58 -124 122 -12 14 25 35 54 47 64 l21 19 0 -49 c0 -27 4 -55 9 -63 14 -22 40 -5 57 36 34 87 45 89 59 8 8 -45 15 -61 29 -63 17 -4 18 2 14 61 -6 99 -50 135 -102 84 -23 -23 -23 -23 -32 -3 -12 28 -33 30 -70 7z"/>
<path d="M3300 6576 c-18 -48 -31 -107 -25 -116 3 -6 15 -10 26 -10 14 0 19 7 19 25 0 14 7 42 15 62 9 20 13 43 11 50 -9 21 -36 15 -46 -11z"/>
<path d="M3793 6485 c-36 -15 -48 -42 -34 -78 14 -35 46 -50 93 -44 74 10 115 80 66 111 -36 22 -89 27 -125 11z m93 -40 c19 -15 19 -15 0 -30 -28 -21 -80 -20 -72 1 3 9 6 22 6 30 0 19 41 18 66 -1z"/>
<path d="M4455 6490 c-8 -13 13 -40 31 -40 7 0 16 -10 20 -22 5 -18 -1 -29 -31 -55 -20 -17 -34 -37 -30 -42 10 -17 157 -14 181 4 18 13 16 14 -23 15 -23 0 -48 3 -57 6 -14 5 -14 8 0 29 9 14 12 33 8 49 -11 46 -81 85 -99 56z"/>
<path d="M6929 6483 c-5 -48 1 -187 9 -195 16 -16 29 -2 41 44 13 51 44 94 60 84 6 -4 11 -27 11 -52 0 -59 18 -58 86 6 29 28 58 50 63 50 7 0 11 -28 11 -74 0 -80 16 -110 48 -90 22 14 27 34 8 34 -12 0 -16 16 -18 76 -2 57 -7 79 -19 87 -23 14 -64 1 -104 -34 l-35 -31 0 25 c0 27 -23 57 -43 57 -7 -1 -23 -7 -37 -14 -22 -13 -25 -12 -35 7 -10 22 -44 36 -46 20z"/>
<path d="M4969 6434 c-8 -10 -14 -40 -14 -72 0 -47 3 -57 27 -75 48 -36 120 7 134 81 6 31 3 39 -20 59 -33 28 -106 32 -127 7z m95 -29 c28 -28 -21 -110 -54 -90 -6 3 -10 28 -10 56 0 45 2 49 24 49 14 0 31 -7 40 -15z"/>
<path d="M7411 6427 c-17 -21 -42 -134 -39 -175 2 -24 8 -37 18 -37 10 0 19 24 30 80 9 44 21 89 27 100 19 37 -10 63 -36 32z"/>
<path d="M9050 6345 c-23 -30 -58 -69 -77 -86 -21 -18 -33 -36 -29 -44 7 -20 25 -19 49 3 20 17 20 16 14 -23 -4 -22 -7 -72 -7 -112 l0 -72 -55 -6 c-45 -6 -55 -11 -55 -27 0 -18 6 -18 93 -12 158 11 212 19 212 29 0 6 -34 11 -77 13 l-78 3 0 67 c0 83 20 162 60 242 17 34 28 65 25 70 -13 21 -34 8 -75 -45z"/>
<path d="M8611 6328 c-4 -13 -11 -40 -15 -60 l-7 -37 -57 -3 c-51 -3 -57 -5 -60 -27 -4 -23 -3 -23 56 -16 l59 7 6 -47 c3 -29 13 -55 26 -68 25 -26 38 -16 23 18 -7 14 -12 43 -12 65 l0 39 52 3 c69 4 74 24 8 33 -50 7 -52 8 -45 34 19 75 18 81 -4 81 -13 0 -25 -9 -30 -22z"/>
<path d="M7740 6169 c-243 -6 -484 -17 -902 -41 -162 -9 -218 -15 -218 -24 0 -23 17 -24 136 -14 117 10 481 30 939 51 132 6 306 8 388 5 93 -4 147 -3 147 3 0 23 -151 29 -490 20z"/>
<path d="M2985 6150 c-4 -6 -5 -13 -2 -16 2 -3 121 -6 263 -8 322 -5 912 -22 1184 -35 250 -13 736 -13 920 -1 74 4 231 14 348 21 118 7 212 17 212 23 0 10 -259 2 -460 -14 -156 -12 -874 -12 -1090 1 -190 11 -716 28 -1116 36 -184 3 -254 2 -259 -7z"/>
<path d="M6200 6151 c-30 -8 -40 -48 -15 -57 16 -6 75 40 75 58 0 9 -24 9 -60 -1z"/>
<path d="M4273 5938 c-57 -63 -79 -184 -39 -214 29 -21 50 -17 87 14 28 23 32 24 25 7 -4 -11 -10 -65 -13 -120 -5 -86 -3 -102 11 -114 9 -8 19 -11 23 -8 3 3 7 50 8 104 1 55 12 139 24 193 25 114 25 110 2 110 -10 0 -26 11 -35 25 -21 32 -65 33 -93 3z m52 -54 c-5 -27 -2 -39 10 -48 14 -10 12 -16 -18 -49 -19 -20 -39 -37 -45 -37 -17 0 -20 34 -7 83 19 76 74 122 60 51z"/>
<path d="M4750 5938 c-43 -29 -72 -88 -78 -153 -6 -77 28 -101 100 -71 14 7 15 2 10 -36 -4 -24 -7 -70 -7 -103 0 -53 2 -60 20 -60 16 0 19 6 17 32 -5 48 28 246 44 264 24 26 18 96 -11 124 -30 31 -53 31 -95 3z m62 -44 c-1 -10 -5 -37 -9 -59 -6 -44 -46 -95 -75 -95 -24 0 -24 51 1 106 28 62 91 98 83 48z"/>
<path d="M7472 5888 c-8 -8 -12 -45 -12 -105 0 -92 0 -93 24 -93 15 0 33 11 45 26 17 22 22 24 27 10 3 -9 17 -16 30 -16 18 0 32 12 55 50 17 28 33 50 36 50 3 0 3 -23 0 -50 -7 -59 -1 -80 22 -80 18 0 23 33 25 150 1 48 -1 55 -18 55 -12 0 -38 -22 -62 -52 l-43 -52 2 42 c2 36 -1 42 -19 45 -15 2 -24 -5 -33 -25 -6 -16 -21 -42 -32 -58 l-20 -30 3 69 c3 69 -6 88 -30 64z"/>
<path d="M6717 5873 c-3 -5 -2 -27 3 -49 5 -21 10 -71 10 -111 0 -119 26 -111 95 30 l50 102 3 -72 c2 -49 7 -73 17 -77 18 -7 61 28 81 65 22 43 34 27 34 -44 0 -69 6 -83 35 -89 14 -2 19 1 15 12 -2 8 -7 62 -10 120 -5 99 -6 105 -27 108 -17 3 -30 -8 -55 -43 l-33 -47 -7 41 c-9 53 -14 61 -42 61 -28 0 -56 -30 -90 -93 l-25 -48 -3 68 c-3 61 -5 68 -25 71 -11 2 -24 -1 -26 -5z"/>
<path d="M7294 5866 c-3 -8 -4 -25 -2 -38 2 -18 -5 -26 -34 -40 -39 -17 -50 -44 -23 -55 9 -3 24 2 34 11 26 24 31 20 31 -22 0 -38 14 -62 35 -62 8 0 10 18 7 53 -4 53 -4 54 29 63 47 13 49 34 4 34 -35 0 -36 1 -33 33 2 27 -1 33 -20 35 -13 2 -24 -3 -28 -12z"/>
<path d="M7156 5748 c-11 -42 -7 -116 7 -121 23 -9 32 6 34 53 1 25 3 54 5 65 5 30 -37 33 -46 3z"/>
<path d="M7765 5740 c-12 -20 7 -30 56 -30 27 0 49 -4 49 -8 0 -5 -18 -33 -40 -62 -68 -91 -51 -117 65 -100 70 10 95 18 95 32 0 6 -29 9 -75 6 -41 -2 -75 -2 -75 0 0 2 13 21 29 41 49 62 57 87 36 111 -14 16 -31 20 -76 20 -32 0 -61 -4 -64 -10z"/>
<path d="M4910 5685 c-20 -24 -2 -37 46 -29 24 3 44 2 44 -2 0 -5 -16 -31 -35 -58 -40 -56 -44 -81 -16 -96 41 -22 168 -1 215 34 33 26 8 34 -46 15 -49 -17 -138 -26 -138 -14 0 3 16 28 35 56 40 59 42 70 17 92 -24 22 -105 23 -122 2z"/>
<path d="M4466 5681 c-12 -19 -36 -128 -36 -163 0 -30 4 -38 19 -38 15 0 19 10 25 56 3 30 13 72 21 92 9 20 13 42 11 49 -6 15 -32 18 -40 4z"/>
<path d="M5893 4265 c-33 -14 -53 -42 -46 -62 7 -19 43 -16 50 5 9 23 23 32 56 32 48 0 36 -41 -34 -116 -55 -60 -60 -67 -46 -81 35 -36 280 -44 278 -10 -1 4 -38 9 -84 11 -46 3 -100 8 -121 11 l-38 8 55 56 c67 67 77 96 47 134 -24 31 -65 35 -117 12z"/>
<path d="M10962 3917 c-29 -31 -28 -65 2 -77 13 -5 27 -14 31 -19 10 -18 35 -12 35 7 0 11 -9 27 -20 37 -15 14 -17 21 -9 29 8 8 14 6 23 -8 39 -66 50 -71 135 -71 44 0 83 4 88 8 14 14 -21 27 -74 27 -69 0 -80 6 -104 51 -17 33 -24 39 -52 39 -22 0 -41 -8 -55 -23z"/>
<path d="M1910 3892 c-14 -5 -13 -39 3 -44 18 -7 169 9 200 21 15 6 27 14 27 18 0 8 -208 12 -230 5z"/>
<path d="M9530 3879 c-19 -6 -73 -15 -120 -20 -111 -13 -1554 -12 -1972 1 -676 20 -1463 23 -1748 7 -209 -13 -322 -14 -535 -7 -167 5 -348 5 -475 -1 -113 -5 -320 -14 -460 -19 -140 -5 -354 -15 -475 -22 -121 -6 -474 -12 -785 -12 -311 -1 -571 -5 -577 -9 -7 -5 -13 -15 -13 -24 0 -13 13 -14 97 -6 117 10 184 9 493 -1 161 -6 291 -5 415 3 99 7 275 17 390 22 116 5 336 15 490 21 154 7 510 13 790 13 281 0 721 6 980 12 333 9 580 9 850 3 644 -17 1994 -29 2305 -20 162 4 332 7 378 6 72 -1 82 1 82 16 0 21 26 23 145 8 110 -13 231 -15 495 -6 165 5 225 10 225 19 0 9 -76 12 -315 12 -173 0 -385 3 -470 7 -101 5 -167 4 -190 -3z"/>
<path d="M1946 3771 c-4 -6 -4 -15 -1 -21 8 -12 185 -13 185 -1 0 19 -173 40 -184 22z"/>
<path d="M11073 3748 c-30 -14 -39 -46 -20 -65 21 -21 50 -9 42 17 -5 17 -2 20 25 20 17 0 53 -11 80 -25 48 -24 100 -33 100 -17 0 4 -33 24 -72 45 -74 38 -115 44 -155 25z"/>
<path d="M3505 3564 c-45 -63 -54 -103 -20 -90 12 4 14 -6 12 -57 -2 -50 1 -62 14 -65 13 -2 18 9 23 60 4 35 18 95 31 132 13 38 22 73 19 78 -13 20 -35 3 -79 -58z"/>
<path d="M4854 3620 c-44 -17 -70 -84 -41 -108 7 -6 30 -12 52 -14 38 -3 40 -5 43 -39 3 -30 -2 -39 -24 -54 -15 -9 -44 -20 -66 -23 -29 -3 -38 -9 -36 -21 2 -9 13 -17 26 -19 30 -5 128 41 141 66 12 23 3 142 -11 142 -5 0 -4 10 3 21 8 17 8 24 -3 34 -18 18 -59 25 -84 15z m55 -54 c9 -11 6 -16 -18 -24 -33 -12 -47 -2 -37 23 7 19 40 19 55 1z"/>
<path d="M6185 3606 c-24 -17 -13 -50 15 -43 27 7 25 -7 -2 -26 -20 -13 -21 -18 -10 -34 60 -87 60 -81 -10 -107 -63 -23 -67 -52 -6 -42 23 4 57 14 75 23 27 12 33 21 33 47 0 17 -8 45 -19 62 -16 26 -17 33 -5 49 19 26 18 41 -6 65 -23 23 -39 25 -65 6z"/>
<path d="M4633 3513 c-52 -4 -81 -22 -68 -43 7 -12 20 -10 113 16 52 16 71 36 30 32 -13 -1 -46 -3 -75 -5z"/>
<path d="M9158 3509 c-10 -5 -18 -17 -18 -25 0 -20 27 -29 44 -15 10 9 16 7 26 -4 11 -13 9 -20 -10 -40 -28 -30 -21 -49 28 -74 21 -11 44 -26 50 -34 13 -15 3 -21 -80 -47 -88 -27 -44 -50 47 -25 75 20 102 43 86 74 -9 16 -56 57 -89 77 -2 1 3 13 12 26 20 31 10 65 -25 83 -33 17 -47 18 -71 4z"/>
<path d="M6750 3490 c0 -17 7 -20 40 -20 55 0 61 -20 21 -77 -47 -67 -40 -78 44 -76 39 1 84 8 100 15 29 12 27 13 -43 16 l-73 3 22 31 c48 67 16 128 -67 128 -37 0 -44 -3 -44 -20z"/>
<path d="M5326 3445 c-17 -17 -19 -24 -41 -118 -23 -103 -22 -107 24 -107 22 0 51 4 65 10 l26 9 -8 -47 c-3 -26 -7 -65 -7 -87 0 -33 3 -40 19 -40 17 0 20 9 23 55 4 75 30 172 50 187 20 15 9 46 -14 41 -10 -2 -29 -20 -42 -40 -17 -26 -33 -38 -58 -43 -19 -3 -37 -4 -40 -1 -9 9 28 144 42 156 16 13 9 40 -10 40 -8 0 -20 -7 -29 -15z"/>
<path d="M5993 3453 c-51 -4 -81 -22 -68 -43 12 -20 135 13 135 36 0 8 -3 13 -7 12 -5 -1 -31 -3 -60 -5z"/>
<path d="M2523 3419 c-52 -12 -73 -34 -52 -55 13 -12 20 -11 54 6 42 21 105 27 105 9 0 -5 -24 -35 -52 -66 -50 -52 -52 -56 -33 -69 24 -18 47 -18 120 1 63 17 135 53 135 68 0 10 -26 6 -85 -16 -22 -8 -58 -18 -79 -22 l-40 -7 37 41 c79 87 26 140 -110 110z"/>
<path d="M2820 3401 c0 -17 6 -21 30 -21 17 0 30 -1 30 -2 0 -2 -7 -21 -15 -43 -19 -54 -20 -115 0 -115 18 0 35 31 35 64 0 21 9 46 36 104 0 1 14 -1 31 -4 l29 -6 -23 -46 c-13 -27 -23 -63 -23 -89 0 -39 2 -43 24 -43 26 0 47 21 28 28 -19 6 -14 32 17 99 39 81 32 87 -101 91 -94 4 -98 3 -98 -17z"/>
<path d="M9045 3408 c-22 -6 -50 -14 -62 -19 -24 -9 -31 -33 -13 -44 13 -8 140 51 140 65 0 12 -10 11 -65 -2z"/>
<path d="M4332 3398 c-7 -7 -12 -18 -12 -25 0 -7 -11 -46 -25 -85 -31 -87 -32 -108 -5 -108 13 0 22 9 26 28 3 15 17 59 31 99 30 85 23 129 -15 91z"/>
<path d="M7204 3397 c-9 -24 3 -36 34 -35 33 1 91 -27 99 -48 10 -28 -8 -66 -63 -125 -74 -80 -66 -91 55 -83 92 7 131 17 131 34 0 6 -32 10 -81 10 l-81 0 35 39 c19 21 40 55 47 75 10 31 9 41 -7 68 -31 53 -155 101 -169 65z"/>
<path d="M4471 3356 c-37 -9 -46 -16 -57 -46 -16 -45 -17 -93 -2 -108 29 -29 101 -7 150 45 71 76 20 138 -91 109z m87 -44 c6 -20 -65 -82 -94 -82 -19 0 -24 4 -20 18 2 9 8 28 12 42 3 14 12 28 18 33 17 11 79 4 84 -11z"/>
<path d="M6632 3358 c-10 -10 -8 -16 9 -29 18 -14 20 -19 9 -38 -14 -27 -7 -51 14 -51 9 0 23 -11 32 -25 14 -21 14 -30 4 -55 -25 -61 -80 -65 -80 -5 0 47 -27 48 -36 0 -8 -45 16 -85 52 -85 91 0 147 110 89 178 -14 17 -25 43 -25 59 0 28 -26 63 -46 63 -6 0 -16 -6 -22 -12z"/>
<path d="M3135 3341 c-9 -16 3 -31 26 -31 14 0 19 6 17 17 -4 20 -33 29 -43 14z"/>
<path d="M3390 3331 c-28 -8 -39 -38 -17 -47 9 -3 26 0 39 7 13 7 77 15 142 18 82 4 121 10 124 19 3 9 -27 12 -130 11 -73 -1 -144 -4 -158 -8z"/>
<path d="M4110 3310 c0 -13 7 -20 20 -20 13 0 20 7 20 20 0 13 -7 20 -20 20 -13 0 -20 -7 -20 -20z"/>
<path d="M5676 3307 c-9 -12 -23 -52 -33 -89 -14 -56 -15 -69 -4 -82 21 -25 35 -14 36 26 1 20 14 61 29 92 15 31 25 60 21 66 -11 17 -34 11 -49 -13z"/>
<path d="M5793 3298 c-17 -21 -35 -98 -29 -124 8 -32 41 -47 82 -39 42 7 114 73 114 103 0 37 -35 62 -84 62 -24 0 -51 2 -59 5 -7 3 -19 0 -24 -7z m111 -41 c18 -13 18 -15 2 -39 -17 -25 -55 -48 -81 -48 -10 0 -15 11 -15 34 0 54 53 83 94 53z"/>
<path d="M8207 3280 c-49 -39 -62 -145 -24 -201 43 -64 119 -80 156 -33 25 31 26 44 7 69 -15 20 -73 26 -113 12 -22 -8 -23 -6 -23 35 0 52 27 100 42 74 11 -20 44 -21 51 -1 6 13 -44 65 -62 65 -5 0 -20 -9 -34 -20z m98 -200 c0 -8 -9 -16 -20 -18 -15 -2 -21 3 -22 18 -1 16 3 21 20 18 12 -2 22 -10 22 -18z"/>
<path d="M5084 3275 c-9 -23 3 -45 26 -45 25 0 37 25 20 45 -16 19 -39 19 -46 0z"/>
<path d="M6366 3271 c-4 -5 -3 -17 0 -26 10 -24 48 -15 52 13 3 18 -1 22 -22 22 -14 0 -27 -4 -30 -9z"/>
<path d="M3270 3232 c-5 -2 -10 -10 -10 -18 0 -10 13 -14 45 -14 46 0 56 -9 31 -30 -23 -18 -9 -37 32 -44 21 -3 46 -12 57 -20 27 -20 8 -39 -42 -41 -26 0 -38 -5 -38 -15 0 -21 67 -25 101 -7 25 13 29 13 44 -5 22 -27 82 -28 117 -1 54 39 38 83 -31 83 l-41 1 48 44 c50 46 58 65 28 65 -22 0 -107 -73 -116 -100 -6 -18 -8 -18 -42 6 -20 13 -41 24 -48 24 -8 0 -12 12 -11 33 l1 32 -57 5 c-32 3 -62 4 -68 2z m322 -157 c2 -17 -50 -31 -64 -17 -9 9 -6 14 13 21 28 12 50 10 51 -4z"/>
<path d="M5531 3226 c-9 -10 -8 -16 4 -26 21 -17 51 6 34 26 -6 8 -15 14 -19 14 -4 0 -13 -6 -19 -14z"/>
<path d="M7015 3230 c-4 -7 -3 -16 3 -22 14 -14 45 -2 40 15 -6 16 -34 21 -43 7z"/>
<path d="M8685 3231 c-14 -23 -55 -143 -55 -162 0 -15 5 -20 21 -17 17 2 25 14 33 48 7 26 21 62 33 80 11 19 18 41 16 48 -5 14 -39 16 -48 3z"/>
<path d="M8805 3216 c-37 -16 -71 -82 -61 -120 7 -29 41 -42 81 -32 35 9 90 60 106 97 12 29 11 33 -10 50 -27 22 -73 24 -116 5z m85 -41 c0 -17 -66 -75 -85 -75 -20 0 -19 25 2 56 26 40 83 53 83 19z"/>
<path d="M3731 3199 c-48 -9 -71 -24 -71 -45 0 -18 30 -17 54 1 35 27 47 18 27 -17 -38 -66 -35 -124 5 -116 14 2 19 12 19 39 1 41 40 109 63 109 9 0 27 3 40 6 l23 7 -22 -37 c-25 -43 -39 -98 -32 -126 7 -25 36 -34 63 -20 26 14 26 30 -1 30 -19 0 -21 4 -16 35 3 20 20 54 36 77 42 57 31 68 -68 67 -42 -1 -96 -5 -120 -10z"/>
<path d="M8454 3149 c-9 -15 12 -33 30 -26 9 4 16 13 16 22 0 17 -35 21 -46 4z"/>
<path d="M10557 3048 c-55 -78 -80 -126 -72 -138 12 -20 36 -9 51 23 l15 32 -6 -36 c-8 -52 -8 -153 0 -178 3 -11 12 -21 19 -21 10 0 15 28 18 103 4 71 13 126 31 181 14 44 24 83 21 88 -13 20 -36 3 -77 -54z"/>
<path d="M10257 3044 c-4 -4 -7 -25 -7 -47 l0 -40 -60 7 c-55 6 -60 5 -60 -12 0 -22 25 -32 83 -32 36 0 37 -1 37 -39 0 -51 8 -71 29 -71 15 0 17 8 13 58 l-4 57 42 17 c25 10 39 22 35 28 -6 9 -22 8 -60 -6 -6 -3 -10 14 -10 38 0 30 -4 43 -15 46 -9 1 -19 0 -23 -4z"/>
<path d="M9665 2952 l-60 -27 -757 -5 c-556 -4 -760 -8 -769 -17 -19 -19 0 -36 35 -28 17 4 362 10 766 14 l735 6 75 30 c41 17 75 35 75 40 0 19 -40 13 -100 -13z"/>
<path d="M6120 2940 c-157 -5 -449 -14 -650 -19 -201 -6 -504 -21 -675 -35 -333 -27 -710 -42 -1300 -51 -421 -7 -693 -20 -813 -39 -88 -14 -102 -20 -86 -36 7 -7 41 -6 105 4 121 19 410 34 824 41 570 10 917 24 1330 55 492 36 1730 69 1895 50 116 -13 515 -9 515 5 0 10 -78 13 -660 28 -110 3 -328 1 -485 -3z"/>
<path d="M7580 2855 c-15 -18 -5 -35 21 -35 24 0 37 29 18 41 -19 12 -25 11 -39 -6z"/>
<path d="M9594 2765 c-9 -23 5 -35 39 -32 26 2 33 -2 35 -19 2 -11 -4 -27 -13 -34 -24 -20 -18 -48 14 -64 16 -9 31 -22 34 -30 8 -20 -17 -44 -51 -52 -47 -10 -54 -14 -50 -27 7 -21 51 -19 98 5 38 19 46 28 48 56 3 25 -3 39 -25 60 -25 25 -27 31 -16 53 15 29 8 58 -19 82 -25 21 -86 23 -94 2z"/>
<path d="M4419 2717 c-32 -17 -69 -85 -75 -144 -8 -61 16 -96 64 -96 36 0 72 27 72 54 0 25 -44 52 -70 44 -43 -14 -5 81 40 96 34 12 39 33 12 48 -12 7 -26 6 -43 -2z m9 -189 c-2 -6 -10 -14 -16 -16 -7 -2 -10 2 -6 12 7 18 28 22 22 4z"/>
<path d="M6246 2695 c-33 -31 -64 -98 -72 -157 -5 -34 -2 -48 14 -68 41 -50 144 -18 150 48 3 27 -1 32 -23 38 -14 3 -42 4 -61 1 -39 -7 -41 0 -15 52 23 45 47 66 75 66 14 0 21 6 21 20 0 32 -54 32 -89 0z m47 -172 c10 -10 -24 -43 -44 -43 -30 0 -31 18 -2 34 32 17 37 18 46 9z"/>
<path d="M8099 2657 c-104 -166 -152 -368 -101 -419 15 -15 27 -19 46 -14 31 8 35 26 6 26 -74 0 -22 231 87 383 18 26 31 52 28 57 -13 22 -41 8 -66 -33z"/>
<path d="M8753 2684 c-7 -3 -13 -15 -13 -26 0 -17 4 -19 25 -14 48 12 95 -64 95 -154 0 -78 -56 -248 -102 -313 -11 -16 -17 -31 -14 -35 26 -25 106 115 138 240 32 130 15 244 -45 282 -26 18 -67 27 -84 20z"/>
<path d="M9421 2681 c-24 -15 -5 -41 26 -36 15 2 49 7 76 10 31 4 47 11 47 21 0 11 -15 14 -67 14 -38 0 -74 -4 -82 -9z"/>
<path d="M4024 2595 c-11 -28 11 -36 94 -33 94 3 113 20 34 29 -29 4 -68 10 -87 13 -27 5 -37 3 -41 -9z"/>
<path d="M8194 2584 c-19 -28 -44 -115 -44 -150 0 -40 28 -57 82 -50 l48 7 0 -39 c0 -39 14 -62 38 -62 10 0 12 8 7 30 -7 33 9 118 31 161 11 23 11 29 -1 39 -21 17 -39 0 -54 -49 -10 -35 -16 -40 -51 -46 -21 -4 -43 -4 -48 -1 -14 8 4 93 28 133 11 19 18 39 15 44 -11 17 -34 9 -51 -17z"/>
<path d="M9186 2548 c-57 -76 -89 -218 -54 -241 13 -9 21 -8 30 1 10 10 10 14 0 21 -24 15 13 129 65 199 13 17 21 37 18 42 -12 19 -34 10 -59 -22z"/>
<path d="M5843 2554 c-9 -25 9 -34 52 -25 22 5 57 12 78 15 64 12 40 26 -43 26 -64 0 -82 -3 -87 -16z"/>
<path d="M5085 2534 c-55 -6 -110 -14 -122 -18 -29 -10 -79 -104 -64 -119 8 -8 19 -8 41 0 36 13 40 9 40 -39 0 -46 -28 -79 -59 -71 -23 6 -28 -6 -9 -25 19 -19 45 -14 79 16 24 21 32 38 36 74 5 43 3 50 -26 79 -43 43 -31 53 93 73 55 9 102 19 105 21 15 16 -26 19 -114 9z"/>
<path d="M8647 2526 c-31 -29 -47 -82 -47 -157 0 -47 4 -60 26 -83 62 -61 199 -6 171 68 -9 23 -64 47 -112 49 -39 2 -44 4 -39 22 14 53 28 73 60 89 19 9 32 21 29 26 -11 18 -62 10 -88 -14z m86 -168 c15 -6 27 -16 27 -24 0 -16 -39 -44 -62 -44 -26 0 -58 36 -58 66 0 24 3 25 33 19 17 -3 44 -11 60 -17z"/>
<path d="M3709 2519 c-21 -41 -89 -230 -89 -250 0 -13 5 -19 15 -17 9 2 34 48 59 111 24 59 51 116 61 127 9 10 15 26 12 35 -9 22 -44 18 -58 -6z"/>
<path d="M8493 2503 c-21 -61 -34 -83 -47 -83 -30 0 -66 -23 -66 -43 0 -20 8 -20 68 -2 16 6 22 3 22 -9 0 -17 46 -34 58 -21 4 4 1 10 -5 12 -26 9 -14 41 17 48 37 8 40 35 4 35 -21 0 -25 3 -19 18 4 9 8 26 9 37 1 25 -32 33 -41 8z"/>
<path d="M5549 2463 c-11 -26 -27 -74 -36 -106 -14 -50 -15 -60 -3 -67 21 -13 27 -5 45 57 9 32 26 75 37 96 21 42 18 67 -7 67 -9 0 -24 -20 -36 -47z"/>
<path d="M9313 2502 c-14 -9 -33 -78 -33 -119 0 -72 82 -98 139 -45 44 39 49 75 17 106 -16 17 -36 26 -56 26 -19 0 -30 5 -30 14 0 16 -22 27 -37 18z m78 -72 c42 -23 14 -80 -39 -80 -25 0 -33 21 -25 60 6 32 28 39 64 20z"/>
<path d="M5755 2483 c-36 -9 -53 -33 -71 -98 -14 -52 -14 -67 -4 -80 36 -44 149 18 180 99 8 23 7 34 -5 52 -8 13 -21 24 -28 24 -6 0 -21 2 -32 4 -11 2 -29 2 -40 -1z m65 -59 c0 -30 -58 -94 -85 -94 -14 0 -15 7 -9 48 8 60 18 72 60 72 30 0 34 -3 34 -26z"/>
<path d="M3870 2459 c-14 -11 -35 -24 -47 -29 -15 -6 -24 -22 -31 -52 -12 -57 -2 -82 34 -86 42 -5 90 24 124 76 32 48 38 80 18 100 -18 18 -70 14 -98 -9z m53 -61 c-19 -32 -81 -83 -91 -73 -3 2 1 25 8 49 10 37 18 47 49 59 47 20 59 7 34 -35z"/>
<path d="M9014 2449 c-3 -6 1 -18 9 -27 13 -12 19 -13 31 -3 8 7 12 19 9 27 -6 17 -39 19 -49 3z"/>
<path d="M4585 2400 c-9 -15 4 -30 26 -30 25 0 59 17 59 30 0 13 -77 13 -85 0z"/>
<path d="M3245 2380 c-16 -26 17 -35 123 -35 106 1 192 17 192 36 0 6 -24 7 -67 2 -85 -10 -124 -10 -189 1 -37 5 -54 4 -59 -4z"/>
<path d="M5280 2370 c0 -16 5 -21 23 -18 12 2 22 10 22 18 0 8 -10 16 -22 18 -18 3 -23 -2 -23 -18z"/>
<path d="M2493 630 c-26 -11 -30 -38 -8 -46 8 -4 21 -1 29 5 7 6 16 8 19 4 13 -12 7 -36 -18 -69 -34 -44 -32 -61 8 -69 17 -4 43 -12 56 -17 25 -9 25 -9 -20 -48 -34 -29 -41 -41 -32 -50 9 -9 21 -5 55 18 61 42 74 60 62 80 -9 14 -51 40 -88 55 -5 1 -2 14 6 28 30 47 31 67 4 94 -27 27 -38 29 -73 15z"/>
<path d="M3238 630 c-102 -10 -142 -33 -146 -83 -3 -32 2 -43 31 -72 26 -26 44 -35 69 -35 51 0 63 -12 36 -37 -34 -29 -71 -53 -85 -53 -6 0 -13 12 -15 28 -2 19 -9 28 -25 30 -21 3 -23 -1 -23 -35 0 -71 42 -82 126 -33 56 32 94 72 94 100 0 21 -19 30 -66 30 -48 0 -92 25 -100 56 -10 38 14 54 97 65 116 16 179 30 179 40 0 10 -57 10 -172 -1z"/>
<path d="M2894 596 c-61 -27 -96 -105 -60 -135 11 -10 12 -19 4 -41 -14 -42 6 -98 38 -106 30 -8 81 12 94 37 17 31 11 51 -25 85 -32 30 -33 33 -15 39 51 16 80 104 41 125 -25 13 -39 12 -77 -4z m56 -31 c0 -30 -48 -75 -80 -75 -20 0 -9 29 21 54 27 23 59 34 59 21z m-30 -160 c19 -20 21 -27 10 -40 -7 -8 -21 -15 -31 -15 -15 0 -19 8 -19 40 0 46 8 49 40 15z"/>
<path d="M3762 588 c-6 -7 -21 -38 -34 -68 -17 -37 -44 -73 -82 -107 -61 -56 -94 -67 -103 -33 -6 23 -41 27 -49 6 -8 -20 12 -53 37 -61 41 -13 87 5 143 55 39 36 62 50 83 50 19 0 50 15 89 44 l59 45 6 -32 c12 -69 47 -97 104 -83 34 9 32 26 -4 26 -39 0 -49 16 -53 80 -4 74 -23 76 -117 10 -40 -29 -75 -50 -77 -47 -3 3 6 28 21 56 14 29 23 56 20 61 -9 14 -31 12 -43 -2z"/>
<path d="M1866 569 c-57 -9 -70 -19 -61 -48 12 -38 88 -42 93 -4 3 17 9 21 40 19 20 -1 51 -10 69 -19 39 -21 102 -22 129 -3 29 22 7 39 -32 26 -26 -9 -39 -7 -85 15 -57 26 -74 28 -153 14z"/>
<path d="M2727 388 c-39 -54 -67 -104 -67 -122 0 -33 28 -14 63 43 20 32 43 64 52 71 8 7 15 19 15 26 0 26 -39 14 -63 -18z"/>
<path d="M1877 392 c-34 -38 -9 -67 27 -33 l23 22 39 -23 c55 -32 138 -32 187 2 20 14 37 28 37 33 0 12 -33 7 -60 -8 -36 -20 -94 -18 -140 5 -49 25 -92 26 -113 2z"/>
</g><g transform="translate(1133.545406, 2085.599010599384) scale(0.40808740102544044)"><g transform="translate(-57.706759,297.537395) scale(0.100000,-0.100000)" fill="#4444bb" stroke="none">
<path d="M750 2973 c-57 -10 -88 -25 -119 -57 -40 -41 -55 -100 -46 -179 6 -45 12 -61 32 -77 32 -25 35 -25 64 -1 22 17 24 26 21 89 -4 105 24 120 164 87 33 -7 119 -19 190 -25 88 -8 134 -16 144 -26 32 -32 8 -420 -28 -456 -18 -18 -126 -28 -289 -28 -185 0 -206 -4 -250 -52 -55 -58 -58 -82 -55 -363 1 -145 7 -274 13 -293 11 -34 51 -62 89 -62 12 0 35 14 52 31 l31 30 -6 238 c-3 130 -3 249 0 264 l5 27 112 0 c234 1 363 26 423 82 58 54 98 260 91 463 -4 122 -7 138 -34 191 -40 81 -79 100 -217 108 -174 10 -361 14 -387 9z" fill="#4444bb"/>
<path d="M3660 2971 c-42 -9 -83 -34 -103 -65 -39 -59 -50 -127 -54 -343 -5 -206 -5 -212 18 -252 28 -50 78 -86 143 -102 48 -12 257 -8 370 7 l49 7 -7 -104 c-4 -57 -11 -189 -16 -294 -9 -177 -9 -192 8 -214 35 -47 100 -46 136 2 22 29 27 86 42 452 7 191 0 235 -44 283 -45 48 -92 56 -241 38 -146 -18 -229 -20 -265 -6 l-26 10 0 162 c0 156 8 230 27 249 5 5 99 6 210 2 l201 -6 5 -50 c3 -39 11 -56 31 -74 34 -29 48 -29 80 0 24 20 26 30 28 113 4 147 -23 169 -218 179 -242 11 -340 13 -374 6z" fill="#4444bb"/>
<path d="M1565 2945 c-14 -13 -25 -32 -25 -42 0 -10 -1 -297 -3 -638 -2 -677 -3 -662 55 -694 33 -19 73 -7 101 31 18 24 20 51 29 300 5 150 10 278 12 283 2 6 37 8 97 3 52 -3 135 -7 186 -7 154 -2 161 -10 143 -176 -21 -189 -27 -310 -18 -343 12 -45 45 -72 86 -72 71 0 102 46 102 151 0 33 7 118 16 187 24 190 9 280 -58 349 -50 52 -112 67 -263 65 -71 -1 -164 -6 -205 -11 -41 -4 -78 -7 -81 -5 -4 2 -10 108 -13 236 -9 286 -17 352 -47 384 -31 33 -82 32 -114 -1z" fill="#4444bb"/>
<path d="M2542 2944 c-55 -38 -64 -109 -53 -419 6 -186 9 -215 28 -250 50 -95 116 -125 302 -135 75 -4 171 -5 215 -1 l78 7 -4 -178 c-2 -97 -7 -181 -11 -184 -4 -4 -42 1 -85 11 -104 26 -285 27 -363 3 -106 -33 -149 -107 -99 -170 26 -34 68 -41 132 -21 74 23 202 20 308 -7 182 -47 274 5 301 168 12 77 27 831 19 994 -7 152 -20 181 -86 186 -88 7 -103 -51 -104 -401 l0 -219 -201 4 c-197 3 -201 3 -220 27 -18 21 -19 42 -19 283 l0 260 -29 29 c-33 33 -74 38 -109 13z" fill="#4444bb"/>
<path d="M2374 1391 c-55 -34 -79 -78 -79 -147 0 -51 4 -66 27 -96 35 -45 102 -73 153 -64 78 15 146 111 131 188 -20 108 -145 172 -232 119z" fill="#4444bb"/>
<path d="M1853 999 c-39 -11 -66 -56 -61 -101 6 -59 69 -64 76 -6 4 30 34 38 145 38 l67 0 0 -110 c0 -135 -1 -136 -132 -126 -85 6 -89 6 -113 -18 -24 -25 -25 -28 -25 -179 0 -162 4 -177 47 -177 35 0 43 29 43 159 l0 121 73 0 c85 0 141 14 168 41 17 17 19 34 19 169 0 147 -1 152 -25 175 -23 24 -30 25 -137 24 -62 0 -128 -5 -145 -10z" fill="#4444bb"/>
<path d="M2985 1000 c-91 -16 -93 -18 -104 -58 -15 -51 -14 -537 0 -564 19 -36 69 -48 204 -48 121 0 127 1 151 25 l24 24 -2 292 -3 292 -26 19 c-31 23 -161 33 -244 18z m169 -86 c14 -5 16 -37 16 -250 l0 -245 -102 3 -103 3 0 240 0 240 40 6 c57 9 131 10 149 3z" fill="#4444bb"/>
<path d="M2351 971 c-24 -24 -29 -73 -37 -372 -6 -232 -6 -237 15 -258 23 -23 29 -25 51 -11 12 7 16 40 20 150 l5 141 35 -23 c19 -13 59 -55 88 -93 30 -39 78 -96 108 -128 47 -51 56 -57 74 -47 29 16 25 42 -15 92 -19 24 -62 78 -95 121 -61 77 -61 77 -33 77 15 0 46 9 69 19 56 26 67 57 62 179 -6 156 -27 172 -220 172 -93 0 -111 -3 -127 -19z m257 -74 c16 -13 17 -168 0 -185 -7 -7 -41 -12 -84 -12 -40 0 -84 -4 -98 -10 l-26 -10 0 120 0 119 98 -6 c53 -3 103 -10 110 -16z" fill="#4444bb"/>
</g>
</g>
</svg>
