<svg height="1373.925207pt" preserveAspectRatio="xMidYMid meet" viewBox="0 0 1206.075759 1373.925207" width="1206.075759pt" xmlns="http://www.w3.org/2000/svg"><g transform="matrix(.1 0 0 -.1 -50 1469.925207)"><path d="m11770 14681c-16-31-12-93 10-129l20-33-29-43c-51-74-144-101-177-51-13 20-15 39-10 90 6 57 4 67-14 85-11 11-24 20-29 20-40 0-131-70-131-100 0-37 33-32 74 12l41 43 5-76c6-89 25-124 74-138 73-20 153 17 205 93 27 39 32 42 67 38 43-5 144 15 144 29 0 5-26 9-57 9-97 0-100 3-99 70 1 44-4 63-18 79-24 26-62 27-76 2zm47-73c-3-7-5-2-5 12s2 19 5 13c2-7 2-19 0-25z"/><path d="m11108 14404c-14-14-8-43 12-57 18-13 11-15-72-20-113-8-494-27-598-30-64-2-75-5-78-21-2-10 0-22 5-26 8-8 590 22 700 35 29 3 72 3 97 0 44-7 44-7 30-33-18-35-18-62 0-62 33 0 127 117 119 149-9 36-190 91-215 65z"/><path d="m9321 14103c-19-38-94-229-105-269-4-13-1-26 9-34 21-18 41 1 48 46 3 20 21 77 39 128l33 91 7-50c5-27 12-84 16-125 7-71 8-75 32-75 21 0 32 14 76 97 28 54 68 122 89 153 31 44 36 58 26 68-16 16-58-34-127-154-59-103-59-104-70 59-6 98-7 102-30 102-17 0-29-10-43-37z"/><path d="m9751 14116c-12-13-28-43-36-67-7-24-23-71-35-103-18-49-19-61-8-72 16-16 30-8 44 26 9 21 12 11 18-65 12-165 26-380 26-412v-33h-118c-152 0-160-5-138-80 9-29 16-71 16-92v-38h-192c-106 0-224-3-263-6l-70-5 38 21c20 11 37 27 37 35 0 25-42 17-100-18-50-29-55-36-55-66 0-31 5-37 48-58 55-28 117-41 117-25 0 6-28 24-62 39l-63 28 45 6c25 4 151 10 281 14l236 8 8-67c8-78 40-126 84-126 18 0 29-7 36-22 9-20 17-23 63-23 28 1 52-2 52-6 0-17-516-19-1327-4-207 3-243 2-243-11 0-7 1-15 3-16 1-1 355-5 787-8l785-5 6-60c4-33 10-91 14-129l7-69-66 6c-55 5-68 4-73-9-9-24 14-32 78-27 70 7 65 19 79-187 14-202 14-198-12-202-28-4-28-36-1-94 26-56 51-55 91 6 40 62 40 74 2 68-17-3-30 0-30 6 0 20-20 280-26 341l-6 60 514 2c370 1 560 5 683 16 94 9 181 15 194 14l25-2-3 135c-2 74-5 138-7 142-3 4-2 18 2 32 5 22 9 24 26 15 12-6 47-9 79-7 45 3 69 12 112 41l55 36 6-37c3-20 9-140 12-265l7-229-34-64c-28-51-32-65-21-76 10-10 17-10 34 1 21 13 21 13 13-256-4-147-9-270-11-273-3-2-35-9-72-15l-67-11v-105-104l111-3 111-3 7-92c10-145 20-627 13-627-4 0-16 18-27 41-14 27-27 39-38 37-27-5-26-33 4-114 28-78 50-100 87-90 24 6 86 94 90 127 4 37-20 32-50-8l-28-39-2 377-3 378 71-6c79-7 98 4 74 41-10 16-11 36-2 91 5 39 10 88 11 110 1 37-1 40-24 37-14-2-70-6-124-9l-99-5 6 286c3 158 9 291 12 296 4 6 15 4 28-5 24-17 77-20 77-6 0 6-13 18-30 28-16 9-30 20-30 24 0 3-11 17-23 31-23 25-24 34-32 254-5 126-9 267-10 314-2 50-9 100-18 122-17 40-67 78-104 78-16 0-21 5-17 15 10 24-40 30-256 29-162 0-246-6-399-27-186-25-196-25-207-8-17 24-129 73-157 69-14-2-22-10-22-23 0-15 9-21 35-26 19-3 48-12 64-21 29-15 29-15-40-21-38-4-144-7-235-7h-167l-11 63c-6 35-11 75-11 90 0 34-27 60-54 53-12-3-53-9-92-12l-70-7-12 264c-7 145-12 296-11 334l1 70 15-55c17-63 28-79 44-63 8 8 8 31-2 85-19 114-34 130-78 84zm217-818c7-40 15-117 19-170 5-86 4-98-11-104-10-4-27-2-39 4-47 23-78 23-112 2-42-26-48-17-43 63 3 60 2 62-22 62s-25-3-24-52c2-52 1-53-26-53-19 0-36-9-49-26-30-38-66-27-75 23-3 21-9 52-12 70-5 27-3 32 17 35 30 4 31 22 2 26-22 3-25 10-25 47 0 8 0 42 1 75l1 60h96 95l-2-62c-3-58-1-63 19-66 21-3 22 0 22 62 0 73-2 72 101 75l55 1zm1315-54c63-6 75-9 66-20-6-8-27-14-46-14-46 0-89-24-108-60-22-43-34-118-25-151 7-22 5-29-8-33-9-2-96-7-192-11-96-3-366-15-600-25-624-29-570-28-570-7 0 14 4 16 19 7 37-19 81-12 112 19 20 20 41 31 67 33l37 3-4 103-3 102h215 216l-30-32c-29-32-38-71-20-83 6-3 14 0 20 7 43 55 85 98 99 102 9 3 112 16 227 30 116 14 224 27 240 29 53 7 210 7 288 1zm189-84c43-43 35-90-23-142-55-50-106-65-159-49l-41 12 51 40c27 22 50 44 50 49 0 20-32 9-78-26l-47-36-3 28c-6 47 8 92 35 114 35 27 86 26 105-2 20-30 52-18 46 17-7 36 25 33 64-5zm-1589-197c-7-2-19-2-25 0-7 3-2 5 12 5s19-2 13-5zm-160-10c-7-2-21-2-30 0-10 3-4 5 12 5 17 0 24-2 18-5zm1319-75c-44-31-72-58-72-70 0-29 28-21 75 20 23 20 63 52 88 69 45 33 45 33 51 10 4-12 10-76 13-143l6-121-109-12c-253-27-1236-42-1260-19-3 4-10 51-15 105s-10 112-13 128l-4 31 516 22c285 13 533 25 552 26s82 3 139 4l104 2zm714-1114c-3-9-9-54-12-100l-7-84h-31c-49 0-62 13-47 46 11 24 10 30-4 40-26 19-45 6-51-38-7-38-8-40-37-34-16 3-56 6-88 6-59 0-59 0-49 26 6 14 10 47 10 73v48l83 15c45 8 117 16 161 17 67 1 77-1 72-15z"/><path d="m12042 14034c-13-9-34-32-47-52-14-21-32-46-40-57-23-32-38-125-24-157 23-55 99-54 172 3 88 68 131 162 101 225-8 17-26 36-40 43-36 16-96 14-122-5zm112-40c54-54-47-210-140-217-27-2-29 1-32 40-3 46 41 143 79 176 26 21 72 22 93 1z"/><path d="m11271 14004c-42-35-101-160-108-229-7-64 5-85 48-85 37 0 72 32 109 100l30 55v-37c0-20 4-49 10-63 8-22 15-26 42-23 17 2 34 9 36 17 3 9 0 11-8 6-23-14-30 19-30 142 0 111-2 123-19 133-34 18-78 11-110-16zm79-31c0-30-70-174-103-210-50-56-52 5-3 112 39 86 106 148 106 98z"/><path d="m11622 13913c-59-4-63-6-60-26s8-22 67-19c73 2 141 18 141 32 0 6-6 10-14 10-7 0-26 2-42 3-16 2-57 2-92 0z"/><path d="m11660 13848c-62-17-80-58-25-58 31 0 165 50 165 61 0 12-95 10-140-3z"/><path d="m827 13763c-4-3-7-23-7-43s-3-64-6-98l-7-60-63-12c-35-7-68-18-75-26-19-23 12-27 75-11 56 15 56 15 56-8 0-19-8-25-57-36-39-9-58-19-58-29 0-16 18-17 72-5l31 7-9-42c-5-23-7-45-4-51 15-23 33-4 48 51 16 56 19 60 46 60 28 0 28 0 20-47-9-47-1-72 20-59 6 4 13 29 17 57 8 57 15 62 102 74 78 10 66 29-16 23l-68-5 4 29c5 35 11 39 67 40 65 1 61 26-4 30l-50 3 20 55c33 92 33 90 12 90s-44-42-63-116c-10-40-27-53-67-54-13 0-6 79 8 95 10 10 12 56 3 79-6 16-35 22-47 9zm71-264c-7-5-23-9-35-9-18 0-23 6-23 25s7 26 33 33c29 8 32 6 35-16 2-14-2-29-10-33z"/><path d="m10560 13727c-102-26-147-51-130-72 10-12 19-11 56 7 24 12 45 20 48 17 2-2 0-40-5-84-15-133-10-165 24-152 10 4 15 32 19 104 7 114 20 150 57 157 118 23 141 29 141 37 0 16-123 8-210-14z"/><path d="m8723 13715c-20-14-21-21-16-108 2-50 0-130-6-177-5-47-11-96-13-110-2-19 2-26 19-28 20-3 22 2 28 65 3 37 7 75 8 83 2 12 22 16 87 20 70 4 85 8 88 23s-6 17-84 17h-87l7 61c3 34 6 77 6 95v34h109c84 0 110 3 114 14 3 8 3 17 0 20-4 3-59 6-122 6-87 0-122-4-138-15z"/><path d="m1282 13629c-67-43-108-160-72-204 22-27 73-45 126-45 39 0 51 5 81 35 29 29 34 40 31 72-3 33-8 41-41 57s-45 17-77 7c-20-6-49-23-64-37-18-19-26-22-26-12 0 25 43 81 77 100 28 17 35 17 65 5 37-16 58-12 58 9 0 36-107 45-158 13zm118-124c29-35-32-100-84-89-36 8-45 19-39 45 13 47 96 77 123 44z"/><path d="m1563 13630c-45-18-70-112-37-144 20-20 54-20 101-1 20 8 38 13 41 10 3-2-7-20-22-40-33-43-84-49-108-13-15 23-48 20-48-4 2-52 104-78 158-39 34 24 72 94 72 134 0 78-81 128-157 97zm103-56c19-28 14-36-35-53-55-18-81-15-81 12 0 64 82 94 116 41z"/><path d="m1816 13621c-6-8-33-126-43-183-5-26-3-28 28-28 19 1 45 7 59 15s28 14 32 15c4 0 8-30 10-67 2-53 6-68 18-68 11 0 17 19 22 79 4 43 12 84 18 91 6 8 14 39 17 70 6 56 5 57-18 53-20-2-26-11-33-52-9-45-13-50-54-68-24-11-45-18-47-16-6 6 26 121 37 135 5 7 7 17 3 23-8 12-42 13-49 1z"/><path d="m4961 13251c-37-40-68-139-76-242-6-78-5-87 17-118 12-19 37-40 55-48 41-16 54 1 15 21-43 22-56 63-48 146 11 107 33 170 73 208 21 19 33 38 29 47-9 24-36 18-65-14z"/><path d="m2338 13265c-2-3-108-14-234-25-258-23-619-37-1179-46-209-3-390-7-402-10-14-3-23-12-23-24 0-21 36-21 675 0 160 5 367 12 460 15 185 6 648 39 760 55 39 5 196 10 350 11 322 3 343-1 372-68 27-63 22-258-15-533-43-324-48-377-82-924-57-915-69-1056-106-1286-8-52-24-160-35-239-10-80-26-155-33-167-8-12-27-25-43-29-15-4-267-10-560-12-411-3-587-1-778 11-402 26-792 19-874-15-50-21-4-28 89-13 127 20 455 20 808-1 390-23 1298-18 1354 7 20 9 41 25 47 36 5 10 17 77 26 148 8 71 24 190 35 264 33 230 48 422 90 1090 45 725 49 775 90 1090 48 362 50 398 40 487-11 103-28 135-83 162-41 20-58 21-393 21-193 0-353-2-356-5z"/><path d="m4430 13260c-63-13-104-36-177-100-83-73-116-135-131-243-14-104-2-153 45-198 47-44 94-59 181-59 51 0 76 7 137 35 133 63 188 158 189 325 1 105-14 149-71 202-48 45-92 55-173 38zm109-35c90-46 126-178 85-315-25-83-37-96-97-104-28-3-69-9-89-12-38-7-38-7-38 33 0 45 21 121 56 205 29 70 31 98 5 98-18 0-70-62-100-119-11-19-10-23 7-28 18-4 19-7 6-50-7-24-15-70-18-101l-4-57h-49c-41 0-48-3-48-20 0-30 49-30 177 0 61 14 113 24 115 21 6-6-54-41-110-65-117-50-251-6-278 92-18 69 16 232 47 220 9-3 14 1 14 11 0 27 29 76 46 76 8 0 18 10 23 23 11 27 35 49 81 72 68 35 127 42 169 20z"/><path d="m6674 13218c-4-7 2-18 16-27 60-40 128-120 148-174 68-181 47-350-66-524-13-20-12-23 0-23 18 0 76 85 108 160 33 77 40 239 15 341-22 90-82 181-149 227-53 35-61 38-72 20z"/><path d="m5886 13158c-7-13-16-48-20-79-6-53-4-57 17-63 12-3 32-3 44 0 21 6 22 2 25-62 2-54 7-69 19-72 13-2 17 12 22 88 4 65 12 103 27 132s18 44 10 52c-13 13-40-2-56-32-14-28-45-62-56-62-13 0-9 45 7 66 8 10 15 27 15 37 0 25-37 22-54-5z"/><path d="m5123 13151c-59-7-68-13-59-37 6-16 25-15 70 2 14 5 16-5 16-80 0-67 3-86 14-86 18 0 26 22 26 71 0 22 7 55 14 74 14 32 18 35 59 35 57 0 107 10 107 21 0 10-166 10-247 0z"/><path d="m6285 13120c-26-17-31-18-45-5-10 9-36 15-64 15-43 0-53-5-87-39-33-32-39-45-39-80 0-50 27-81 71-81 56 0 112 42 130 99 11 34 25 50 41 51 4 0 3-12-2-26-25-65-4-108 43-87 17 8 25 5 38-11 16-19 27-21 121-19 121 3 199 14 198 28 0 6-53 9-145 6-167-4-166-4-110 75 65 91 29 104-55 19-29-30-55-53-57-51s5 27 17 55c11 28 20 56 20 61 0 16-43 10-75-10zm-70-30c8-13-79-53-103-48-14 3-12 8 12 31 29 27 79 37 91 17zm-19-85c-20-31-65-50-85-38-28 18-21 31 21 42 24 6 50 15 58 20 22 15 25 5 6-24z"/><path d="m5615 13087c-8-19-17-57-21-85-6-47-5-52 13-52 14 0 25 12 36 42 16 39 18 40 35 25 23-21 73-31 107-23 38 10 30 26-13 26-40 0-60 15-95 73-23 36-45 34-62-6z"/><path d="m5415 13081c-63-13-77-119-17-142 61-23 162 37 162 98 0 16-5 34-12 41-13 13-82 14-133 3zm102-37c4-10-5-26-22-42-18-18-29-23-32-14-3 6-16 12-29 12-31 0-30 13 2 39 32 25 72 27 81 5zm-64-71c-7-2-21-2-30 0-10 3-4 5 12 5 17 0 24-2 18-5z"/><path d="m6306 12799c-36-29-54-67-62-133-6-49-10-56-36-65-44-16-58-6-44 31 10 27 9 32-17 54-34 29-52 30-74 5-14-17-18-17-30-5-21 21-86 17-116-6-14-11-30-20-36-20s-13-11-17-25c-8-33-71-87-97-83-13 2-24 15-31 35-18 52-30 59-69 41-31-15-34-15-44 1-9 15-18 14-95-11-46-16-97-28-112-28-26 0-26 1 23 50 75 75 82 130 17 130-63 0-125-64-176-180-9-21 15-75 42-94 30-21 116-21 147 0 17 12 22 24 19 45-4 26-1 30 40 44 25 8 47 13 49 11s-1-15-7-30c-27-71 5-75 67-8l45 47 12-34c22-61 66-76 124-41l32 20v-65c0-51 4-67 16-72 22-8 34 14 34 62 0 58 10 85 30 85 28 0 91 30 85 40-3 5-1 11 4 14s11-7 14-23c7-33 36-47 64-33 10 5 32 7 50 5 18-3 46 0 62 5 27 10 34 7 61-18 56-52 142-50 156 4 8 34-10 63-50 77l-34 12 23 32c39 50 57 102 45 125-15 28-78 27-114-1zm78-17c14-23-84-156-101-138-2 2 1 24 7 47 17 64 76 120 94 91zm-914-54c0-15-104-118-119-118-21 0 31 81 69 106 39 27 50 29 50 12zm540-72c0-15-67-62-76-53-3 3-3 15 1 27 10 32 75 54 75 26zm87-43c-3-10-5-4-5 12 0 17 2 24 5 18 2-7 2-21 0-30zm278-23c-3-5-15-10-25-10s-22 5-25 10c-4 6 7 10 25 10s29-4 25-10zm10-40c-3-5-10-10-16-10-5 0-9 5-9 10 0 6 7 10 16 10 8 0 12-4 9-10zm-925-14c0-28-73-36-106-11-18 15-18 15 6 10 14-3 37-2 50 4 35 14 50 13 50-3z"/><path d="m6514 12665c-25-13-33-24-37-57-16-123 97-158 187-58 42 47 45 68 11 100-32 30-116 38-161 15zm137-41c25-30-47-98-98-92-23 2-29 8-31 35-3 28 2 35 34 56 40 25 75 25 95 1z"/><path d="m2202 12618c-7-7-12-20-12-30 0-30-40-124-60-143-21-19-26-14-32 35-2 17-10 26-25 28-21 3-23-1-23-36 0-93 103-102 140-11 13 30 24 36 35 19 3-5 17-10 30-10 21 0 24-5 27-42 2-34 7-43 21-43 16 0 19 10 20 95 2 82 0 95-15 98-12 2-22-8-33-34-8-20-18-34-21-31s-9 29-13 58c-6 54-18 68-39 47z"/><path d="m798 12550c-41-47-78-159-81-244-2-57 8-75 42-76 15 0 86 69 113 110l17 25v-31c2-69 88-96 171-54 73 37 61 52-19 23-88-31-123-1-101 87 16 66 13 141-9 170-13 18-29 26-58 28-37 3-44-1-75-38zm105-37c8-28 5-39-24-85-44-70-102-147-111-148-15 0-8 78 12 143 36 116 102 164 123 90z"/><path d="m2471 12537c-67-109-134-289-142-382-6-60 17-54 35 10 9 30 22 79 30 108 17 58 85 204 117 248 11 16 17 33 14 39-12 19-33 10-54-23z"/><path d="m11953 12563c-155-3-163-5-163-23 0-17 7-20 50-20h50v-135c0-126 1-135 19-135 17 0 20 11 26 124 4 68 4 129 1 135-5 8 17 11 71 11 77 0 123 13 131 38 2 6-2 11-10 10-7-1-86-4-175-5z"/><path d="m1702 12518c-7-7-12-18-12-25 0-11 14-12 65-7 55 6 66 4 71-10 8-20-49-84-103-117-68-42-28-66 90-55 85 8 117 15 117 27 0 5-35 9-79 9h-78l48 49c62 61 66 101 12 130-29 15-116 14-131-1z"/><path d="m1327 12447c-11-30 18-38 129-35 70 2 109 7 111 14 4 12-26 18-163 30-58 5-72 3-77-9z"/><path d="m10429 12379c-32-34-49-84-49-146 0-75 57-98 105-42 14 17 27 30 29 28 1-2 12-28 24-58l22-55-24-25c-82-88-107-229-54-308 46-70 123-66 161 7 22 42 18 145-11 256-17 69-17 73 0 94 24 30 23 43-3 29-12-6-25-7-30-2-17 17-49 127-49 170 0 63-13 83-56 83-27 0-43-8-65-31zm81-35c0-8-4-14-10-14-5 0-14-18-20-39-6-22-19-50-30-63l-19-23-1 25c0 41 20 100 41 121s39 18 39-7zm100-406c15-90 8-142-22-162-27-19-52-7-74 36-25 48-15 122 26 192 32 58 33 58 45 35 7-13 18-59 25-101z"/><path d="m1447 12363c-106-3-118-6-115-21 3-13 16-18 63-20 71-3 187 18 193 36 2 7-2 11-10 10-7-1-66-4-131-5z"/><path d="m2625 12350c-10-17 5-30 34-30 46 0 69-43 36-70-21-18-19-57 4-70 29-15 114-12 137 5 22 17 24 16-43 18-62 2-70 9-49 39 24 34 19 63-15 92-31 27-92 36-104 16z"/><path d="m10255 12333c-10-9-23-30-30-46l-12-30-7 36c-4 20-11 39-16 42-21 13-51-9-74-53l-23-46-7 48c-8 50-28 68-52 45-11-12-11-21 0-59 7-25 17-72 21-105 8-71 19-89 46-74 13 6 19 21 19 43 0 45 29 138 40 131 6-4 10-44 10-91 0-83 1-85 22-82 18 2 24 12 30 47 10 58 38 144 45 137 3-3 15-43 27-88 18-69 24-83 41-83 25 0 23 28-8 153-23 92-39 109-72 75z"/><path d="m2504 12221c-56-34-111-124-98-163 7-24 63-24 101 0 56 34 93 66 93 79 0 18-13 16-41-6-43-33-109-63-109-49 0 23 50 88 68 88 26 1 54 26 50 47-5 25-28 27-64 4z"/><path d="m4575 12155c-5-2-27-6-48-10-24-4-43-15-53-30-19-30-59-354-45-368 19-19 41 2 41 36 0 19 3 62 6 96l7 62 115-7c96-6 114-5 110 7-3 9-28 16-74 21-92 9-132 17-138 27-3 5 5 29 19 54 17 32 21 49 13 53-19 12 23 22 131 29 127 9 134 29 10 32-46 1-88 0-94-2z"/><path d="m6250 12100c0-13 7-20 19-20 11 0 23-5 27-11 14-23 21-146 12-224-31-288-31-299 8-338 22-23 23-27 13-88-12-71-8-122 23-283 35-190 27-327-23-372-16-15-24-16-39-6-24 15-35 0-20-28 14-27 42-25 78 5 64 54 79 193 42 405-24 139-26 283-5 324 22 41 19 54-12 58-37 4-55 41-49 98 3 25 13 109 22 188 25 217 3 312-72 312-17 0-24-6-24-20z"/><path d="m5207 12102c-11-2-17-11-15-20 3-13 16-17 63-19 33-1 74-5 92-8 32-6 32-6 17-41-18-42-40-233-31-258 4-10 15-16 24-14 14 3 17 12 15 38-4 47 15 164 34 220l16 45h94c135 1 144 20 12 29-57 4-148 13-203 20-55 6-108 10-118 8z"/><path d="m4886 11911c-17-27 7-34 92-27 86 6 101 10 89 23-13 12-174 16-181 4z"/><path d="m5003 11867c-81-7-113-13-113-23 0-22 16-25 104-15 104 12 169 29 161 41-4 6-14 9-23 8-9 0-68-6-129-11z"/><path d="m7765 11780c-109-8-131-15-147-43-6-13-14-82-16-159-4-122-3-138 12-144 24-9 28-2 33 69l6 65 94 12c86 12 114 22 99 37-3 3-47 2-97-3l-91-10 5 54c3 29 11 59 16 66 6 8 46 16 91 20 86 7 130 19 130 36 0 5-10 9-22 8-13 0-63-4-113-8z"/><path d="m7020 11662c0-19 76-47 240-87 36-9 68-20 73-24 4-4-37-24-90-45-108-42-123-51-123-73 0-18 5-17 135 37 55 23 109 51 120 62 20 19 20 19-2 37-12 10-55 27-95 36-40 10-110 31-155 46-96 34-103 35-103 11z"/><path d="m2565 11614c-180-16-474-32-845-44-162-6-439-15-616-21-231-8-354-8-439 0-65 6-121 9-123 6-3-2-2-11 1-19 13-34 107-33 1267 9 614 22 940 49 940 77 0 9 1 9-185-8z"/><path d="m8560 11595c-43-36-43-36-54-13-16 32-42 34-81 4-35-27-46-31-44-18 4 24-3 33-23 30s-23-9-24-48c-1-25-8-59-16-75-9-17-13-36-11-42 9-26 33-11 67 41 19 29 49 64 67 76l32 24-6-31c-3-17-9-42-12-55-13-50 21-40 75 23 28 32 56 59 61 59s9-25 9-55c0-81 18-95 119-95h79l4-62 5-63-49-44c-89-80-126-190-93-276 26-70 79-86 134-39 46 38 64 112 60 242l-4 106 58 34c38 23 55 38 48 45-6 6-26 0-56-17-26-14-51-23-56-20-15 9-10 136 6 164 8 14 14 37 15 51 0 32-49 89-77 89-48 0-93-65-93-134 0-41-12-51-40-36-17 9-20 21-20 84 0 58-3 75-16 80-21 8-17 10-64-29zm250-15c0-19-27-64-50-85-22-20-22-20-15 15 4 19 13 45 21 58 15 22 44 30 44 12zm10-441c0-102-11-149-44-182-66-66-114 80-61 183 22 43 85 111 96 104 5-3 9-50 9-105z"/><path d="m6781 11606c-9-10-7-17 5-27 13-11 55-14 173-14 200 0 220 17 30 26-75 4-145 12-157 18-27 14-37 14-51-3z"/><path d="m7973 11583c-10-26 9-34 65-28 93 10 162 26 162 36 0 15-221 7-227-8z"/><path d="m7014 11509c-73-5-144-13-159-19-32-12-28-36 6-33 138 14 303 34 310 39 12 7 1 24-14 23-7-1-71-6-143-10z"/><path d="m7966 11502c-3-3-6-12-6-20 0-12 17-14 100-10 90 4 122 11 109 22-7 6-197 14-203 8z"/><path d="m5550 11260c-30-30-27-96 6-131 26-27 26-27 4-39-40-21-66-5-101 65-18 36-39 71-46 76-21 18-61 1-86-36l-23-34-11 30c-10 24-17 29-46 29-27 0-41-7-60-30l-26-30-3 28c-2 18-9 28-24 30-20 3-20-1-18-110 2-104 3-113 22-116 16-3 21 5 27 45 8 54 34 110 63 136 20 19 21 18 31-20 6-21 12-49 13-63 4-36 35-38 48-3 16 42 43 93 57 104 9 8 19-4 39-43 36-72 61-97 105-104l37-6-49-61c-65-81-93-152-93-242-1-141 74-194 165-118 59 50 101 183 115 360 8 110 0 163-24 163-14 0-16 8-14 49 3 43 1 51-23 70-34 26-59 27-85 1zm68-49c2-12 1-34-2-47-6-21-9-23-26-14-20 11-26 43-14 75 9 23 38 14 42-14zm22-381c-14-87-60-180-100-203-30-18-32-18-51-1-27 24-42 88-34 146 9 65 47 137 126 241l64 86 3-102c2-56-2-131-8-167z"/><path d="m769 11234c-24-13-26-20-32-96-3-46-13-114-22-152-16-70-11-94 18-83 8 3 20 42 31 106 10 56 21 103 25 106 4 2 13-24 19-58 11-57 30-87 55-87 10 0 57 48 74 75 9 16 10 2 6-66-6-97 0-139 22-139 11 0 15 13 15 53 1 48 5 84 25 235 7 48 6 52-12 52-14 0-36-24-73-82-60-96-63-95-81 38-12 83-23 116-38 113-3-1-18-7-32-15z"/><path d="m4375 11227c-25-19-10-40 24-32l27 6-13-113c-16-153-16-158 5-158 15 0 20 15 30 93 7 50 15 111 18 134 6 38 4 42-17 46-13 2 19 5 72 6 106 1 159 9 159 22 0 15-283 11-305-4z"/><path d="m1995 11190c-32-12-47-36-43-67 4-37 41-40 47-3 4 32 17 40 64 40 29 0 46-7 68-29 51-52 41-79-76-201-59-61-74-83-80-117-12-75 13-134 52-119 12 5 14 9 5 18-7 7-12 38-12 69 0 57 0 57 70 127 38 39 78 85 90 104 24 40 26 95 4 127-33 47-134 74-189 51z"/><path d="m4643 11108c-12-20 15-28 95-28 100 0 164 9 160 22-4 10-248 16-255 6z"/><path d="m4825 11069c-90-10-129-23-122-42 5-14 25-13 137 10 47 10 84 22 83 28-2 13-7 13-98 4z"/><path d="m11895 10928c-9-26-25-144-25-186 0-30 5-44 16-49 23-9 30 9 37 88 7 78 16 103 28 73 4-10 8-31 8-46 1-40 44-40 60 0 6 15 22 41 35 57l24 30 7-30c28-126 66-175 135-175 22 0 43 6 50 15 18 21 28 8 31-40 2-37-3-45-64-106-36-36-77-90-92-119-47-93-44-210 7-226 38-12 88 6 127 45 53 53 75 123 75 231 0 149-12 322-21 329-6 3-13 23-16 45-11 71-61 99-93 51-12-19-15-40-11-88 3-34 8-72 12-84 6-18 3-23-10-23-30 0-60 47-80 127-17 67-23 78-44 81-16 3-34-7-57-29-34-33-34-33-50-11-8 12-21 22-28 22-8 0-16 7-20 15-7 18-35 20-41 3zm379-115c-5-25-9-31-15-21-11 16-12 82-2 92 12 12 24-35 17-71zm42-358c-10-85-27-128-66-167-68-68-111-44-96 53 9 56 36 106 98 180l52 63 9-39c5-22 6-62 3-90z"/><path d="m1412 10813c3-15 16-19 68-21 88-5 184 6 207 23 16 13-1 14-130 15-136 0-148-1-145-17z"/><path d="m703 10767c-12-20 21-26 170-28 158-2 191 3 146 20-32 12-309 19-316 8z"/><path d="m10523 10673c-40-19-68-63-83-126-22-98 40-138 126-81 21 14 45 33 52 42 10 14 12 11 12-15 0-37 16-83 29-83 14 0 31 82 31 150 0 49-3 62-17 67-10 3-29 16-43 28-35 31-69 37-107 18zm78-75c8-14 6-25-4-41-19-29-94-71-102-57-10 17 15 91 41 117 27 27 43 22 65-19z"/><path d="m681 10566c-6-7-9-31-6-57 3-24 7-73 8-109 4-88 26-93 62-16 27 56 70 101 87 90 5-4 8-34 6-67-4-77 17-89 53-30 28 46 88 113 100 113 5 0 9-15 9-34 0-77 35-109 93-87 30 12 27 36-3 28s-43 9-48 62c-8 86-48 93-120 19-41-40-42-41-42-17 0 29-28 59-53 59-9 0-34-16-56-35-21-19-41-35-45-35-3 0-6 29-6 65 0 66-13 83-39 51z"/><path d="m2003 10524c-8-22 11-37 36-29 31 10 28 45-4 45-14 0-28-7-32-16z"/><path d="m11012 10368c-21-21-13-38 22-53 19-8 37-19 40-23 7-12-599-24-766-16-74 4-147 4-162 0-34-8-34-34 0-42 15-4 229-3 478 1 445 7 451 7 433-12-25-28-22-53 7-53 31 0 116 92 116 126 0 31-33 61-78 69-21 3-46 9-57 11-11 3-26-1-33-8z"/><path d="m9648 10318c-8-7-28-54-43-105-23-77-26-95-15-108 7-9 19-14 27-11 7 3 13 1 13-3 0-5 7-122 15-261 9-138 13-255 10-259-2-5-32-11-66-14-72-8-105-23-130-57-15-21-18-50-21-197-1-95 1-176 5-180 5-4 34-7 67-6 40 2 62-2 70-12 8-9 30-15 56-15 33 0 46 5 58 22 13 18 16 19 21 6 4-9 5-29 3-45l-3-28-725 3c-399 2-790 7-870 12-79 5-146 7-148 5-3-2-2-10 1-18 9-23 133-27 958-27h786l7-142c6-130 10-198 31-508l7-95-29 28c-47 44-82 31-60-23 19-45 55-87 87-100 28-12 34-11 51 6 11 11 28 43 39 72 21 56 14 66-27 37-20-14-21-13-27 43-5 53-18 281-31 558l-5 121 297 7c894 21 1075 27 1148 35 44 6 120 10 169 10 88 1 88 1 82-23-7-29 12-46 28-24 8 11 10-16 7-106-1-67-4-122-6-124s-90 2-196 7c-274 15-509 14-753-5-142-11-271-14-393-11-101 3-185 2-188-3-3-4 2-13 10-20 18-15 455-8 670 10 135 12 442 9 772-6 130-7 183-2 183 16 0 5-12 10-27 12-28 3-28 3-28 83 0 44 4 101 8 128 8 46 8 47-17 47-23 0-25 2-15 18s17 17 61 8c39-8 59-7 92 5l43 16 7-95c4-52 4-239 0-416l-7-320-48-74c-47-71-53-102-21-102 9 0 28 12 43 26l27 26 7-138c8-149 2-283-14-326-9-24-16-27-78-33-127-12-121-5-113-121 5-67 3-73-15-76-11-2-21-11-23-20-5-25 32-31 108-19 36 6 80 11 98 11h32v-230c0-225 0-230-19-220-58 31-71-4-29-82 51-95 96-104 138-26 14 25 34 55 44 67 16 18 17 21 3 27-24 9-55-13-76-54-20-37-20-37-21 246v282h95c76 0 95 3 95 14 0 8-4 18-10 21-5 3-10 45-10 93s-4 93-9 101c-7 11-26 13-91 8l-81-6 8 32c4 17 7 140 5 272-2 183 1 235 9 220 26-45 64-56 114-33 36 16 31 32-9 25-41-6-57 9-76 68-7 22-19 45-27 52-14 11-15 62-8 440 4 235 11 438 16 450 11 29-6 73-53 138l-33 46-70-5c-38-3-199-6-356-7-286-1-286-1-325 24-21 13-50 36-63 51-27 29-59 34-67 11-6-14 33-55 80-83 17-10-14-12-174-10-195 3-195 3-273 37-42 18-84 30-93 27-23-9-13-39 16-47 14-4-74-6-195-6l-220 2v100 100l-117 3-117 3-5 52c-3 29-8 124-11 212s-8 194-11 235c-5 62-4 73 7 63 30-29 76-1 51 30-6 7-18 44-28 82-21 83-34 98-66 73zm252-908c3-73 1-132-4-142-7-11-27-18-60-20-28-2-58-6-66-9-12-3-16 10-18 70-3 63-6 74-22 78-18 5-20 14-20 80v74l93-3 92-3zm-240 15c0-90 3-107 19-122 13-12 22-38 26-73 4-46 3-51-6-32-19 35-82 31-121-8-21-21-39-30-63-30h-33l5 143c6 185 12 203 66 215 23 6 57 10 75 11l32 1zm760-104c23-7 23-8-12-15-36-7-55-36-24-36 27 0 171 31 188 40 10 6 86 10 170 10l153-1-37-20c-39-20-46-33-27-44 10-7 109 31 154 58 14 8 103 13 295 14 166 2 267-1 254-6-11-5-33-23-47-41-31-36-36-98-12-140 8-14 14-28 15-32 0-5-37-8-82-8-46 0-162-6-258-14s-440-20-765-26c-324-6-598-14-607-16-15-4-18 1-18 30 0 34 1 35 41 34 48 0 85 23 112 73 11 19 25 37 32 41 8 5 11 22 8 52l-5 45 73 4c138 6 374 5 399-2zm1259-26c17-20 31-41 32-48 8-90-23-127-107-127-30 0-54 3-54 7s12 19 26 34c16 17 24 34 21 43-10 26-42 18-62-16l-20-33-3 39c-4 43 4 70 17 62 4-3 24 12 44 34 19 22 44 40 55 40s34-16 51-35zm-1811-92c2-9-7-13-27-13-30 0-46 11-34 24 11 11 56 2 61-11zm-215-30c-7-2-19-2-25 0-7 3-2 5 12 5s19-2 13-5zm170-30c-7-2-19-2-25 0-7 3-2 5 12 5s19-2 13-5zm2042-1598v-80l-56-3c-56-3-56-3-52 23 5 22 2 25-21 25-21 0-26-5-26-24 0-20-6-24-46-30-102-14-99-16-97 66 1 40 2 76 2 81 1 4 25 7 54 8 28 0 70 4 92 9 22 4 65 7 95 7l55-2zm-115-679c0-3-4-8-10-11-5-3-10-1-10 4 0 6 5 11 10 11 6 0 10-2 10-4z"/><path d="m9397 10192c-23-32-59-83-79-112-43-63-44-61-55 65-8 90-8 90-37 90-27 0-31-6-79-117-27-64-47-124-44-133 8-18 46-20 52-2 23 72 49 136 53 132 3-3 9-30 13-61 9-65 22-84 59-84 24 0 35 11 80 83 29 45 70 103 91 129 46 54 48 68 14 68-19 0-35-14-68-58z"/><path d="m10496 9854c-16-43 6-173 32-182 9-3 12 17 12 77 0 44 4 82 10 86 5 3 7 12 3 20-7 20-49 19-57-1z"/><path d="m10945 9804c-11-2-46-6-78-9-82-9-97-27-97-112 0-82 7-110 28-118s42 20 42 57c0 26 3 28 43 29 59 1 140 22 144 36 4 10-18 11-90 6l-94-6-5 31c-4 30-4 31 57 41 34 6 71 11 83 11 25 0 30 25 6 34-9 3-16 5-17 5-1-1-11-3-22-5z"/><path d="m6595 9760c-3-5 17-23 44-40 28-17 59-46 70-64 19-30 51-133 51-163 0-16-105-18-144-3-35 13-33 35 9 77 35 35 40 63 12 63-7 0-32-16-55-36-45-38-46-38-33 17 5 21 5 43 1 49-13 21-39 3-47-31-5-18-23-43-41-57l-32-24-9 23c-26 69-108 86-174 35-20-16-40-40-43-53-11-40-150-94-176-68-14 15 10 63 58 115 30 32 54 63 54 69 0 34-138 37-188 5-31-20-27-68 6-72 18-3 22 1 22 21 0 26 21 37 74 37h28l-37-41c-71-79-81-146-25-169 32-13 96-3 149 25 24 12 29 11 54-11 48-41 159-27 186 25 6 10 27 28 47 40l36 21-7-40c-6-38-5-40 18-40 14 0 28 6 30 13 4 8 8 9 14 1 19-26 62-38 137-38h79l-6-82c-9-119-76-275-147-339-23-21-26-38-7-33 26 6 105 107 137 174 45 96 63 190 57 299-8 136-44 221-119 275-42 31-72 38-83 20zm-231-176c24-23 20-54-6-56-75-5-98 10-74 46 19 30 56 34 80 10zm-36-95 27-1-26-9c-28-10-79 3-79 21 0 6 9 6 26 0 14-6 37-10 52-11z"/><path d="m4303 9700c-37-19-70-44-84-65s-32-35-45-35c-27 0-72-48-84-91-44-152 41-358 179-432 62-34 193-48 266-27 118 33 226 211 225 373-1 57-29 117-85 176-55 59-109 93-184 115-79 23-120 20-188-14zm201-31c65-24 146-93 184-158 22-38 26-57 25-106-3-109-67-237-145-291-39-27-48-29-137-29-72 1-104 5-129 18-49 27-108 90-139 149-23 45-27 68-31 153-3 82-1 104 13 120 17 20 17 20 10 0-28-87-8-101 29-20 74 163 180 217 320 164z"/><path d="m4273 9540c-24-10-30-34-12-46 6-3 29-1 50 6 54 18 84 3 100-49 6-21 9-51 5-65-9-35-66-97-111-122-45-24-46-58 0-62 49-4 228 32 233 47 4 12-12 13-87 7l-93-7 37 32c48 42 65 78 65 136 0 57-28 109-66 123-31 12-91 12-121 0z"/><path d="m5193 9702c-115-2-123-4-123-22s7-20 68-20h67v-112c0-94 3-113 15-113s17 21 23 95c10 131 13 136 98 142 64 5 89 12 78 22-8 7-107 11-226 8z"/><path d="m10248 9700c-56-10-68-16-68-37 0-16 4-15 102 4l27 5 3-88c2-71 6-89 18-89s16 18 20 82c3 45 8 84 11 87 3 4 36 9 73 13 42 4 65 10 63 17-4 13-181 18-249 6z"/><path d="m4970 9676c-54-142-76-411-46-551 18-88 116-269 116-216 0 5-17 47-39 93-75 165-80 345-16 593 29 113 29 105 10 105-9 0-20-11-25-24z"/><path d="m5702 9627c-19-22-38-135-33-194 1-7 10-13 21-13 14 0 20 7 20 23 1 12 9 45 19 74 12 36 14 56 8 62s-8 13-6 16c3 2 36-27 74-65 37-39 76-70 87-70 27 0 14 20-69 108-68 72-98 87-121 59z"/><path d="m5473 9618c-28-17-82-85-89-115-4-12-3-34 0-48 8-33 72-51 121-35 34 11 84 60 86 83 4 41-5 84-19 99-23 23-72 31-99 16zm71-44c16-41 7-54-34-54-48 0-62 21-35 50 22 24 61 26 69 4zm-46-84 37-1-24-19c-27-24-64-26-81-5-14 17-3 38 17 31 8-3 31-6 51-6z"/><path d="m6097 9340c-32-38-51-127-44-206 6-58 5-61-21-76-15-9-43-19-62-23l-34-8 32 37c34 39 42 88 22 127-14 26-73 26-99 0-23-23-45-95-38-122 6-22-18-25-58-7-24 11-30 22-37 73-3 20-48 36-48 16s-43-50-106-75l-63-26-30 30c-16 17-38 30-48 30-11 0-2 10 25 26 65 39 94 112 53 134-27 14-67 13-99-4-88-46-147-206-95-258 31-30 93-34 145-10 23 12 71 32 106 46 54 20 62 22 56 8-27-64 14-84 46-23 20 41 20 41 41 20 29-29 54-36 159-44 84-6 99-4 135 14l39 21 31-29c56-55 114-60 130-12 9 30 35 29 66-1 50-50 146-33 170 30 21 55-25 102-114 115-32 5-43 2-63-18-13-13-24-33-24-43 0-29-30-36-47-12-8 11-27 27-42 35l-29 14 24 46c12 25 28 71 34 101 10 47 9 59-4 80-24 36-76 33-109-6zm80-16c14-37-60-218-80-197-19 19 5 150 34 188 23 29 37 32 46 9zm-660-89c7-20-22-52-69-76-67-34-76-21-26 37 44 50 84 66 95 39zm443-96c0-19-10-39-27-57l-28-27-3 24c-5 32 5 66 24 85 21 21 34 12 34-25zm463-57c22-20 22-37-3-62s-51-25-81-2l-22 19 28 35c29 37 44 39 78 10zm-1023 14c0-2-7-6-15-10-8-3-15-1-15 4 0 6 7 10 15 10s15-2 15-4zm771-32c12-15 11-16-11-9-35 10-49 25-23 25 11 0 27-7 34-16zm-686-14c0-17-65-33-79-20-5 6-4 16 4 25 17 20 75 16 75-5zm705-40c0-13-11-13-30 0-12 8-11 10 8 10 12 0 22-4 22-10z"/><path d="m8383 8865c-147-71-150-77-76-161 31-35 68-67 81-71 28-7 54 13 29 23-14 5-57 66-57 80 0 2 66 4 148 4 81 0 282 7 447 15s364 15 442 15 144 4 147 9c3 4-22 14-56 21-51 11-131 11-443 2-450-15-642-15-649-3-3 5 28 26 69 48 50 25 75 44 75 56 0 28-37 19-157-38z"/><path d="m12473 8634c-8-22 6-187 17-198 5-5 12-7 16-4 8 8 24 200 18 210-9 14-44 8-51-8z"/><path d="m8811 8546c-30-32-22-70 19-91 17-9 30-19 30-24 0-4-24-31-53-58-128-121-198-109-165 29 16 65 10 98-16 98-19 0-112-75-126-100-12-21-6-40 12-40 6 0 28 19 50 43 24 25 37 34 33 22-27-86-13-149 40-171 60-25 105-5 199 87 76 75 83 79 126 80 25 0 54 4 65 8 20 8 20 8 0 14-11 3-37 8-58 12-33 5-36 8-27 25 14 25 13 63-2 78-7 7-33 12-58 12-36 0-52-5-69-24zm89-35c0-27-13-33-35-17-21 15-12 36 16 36 12 0 19-7 19-19z"/><path d="m10504 8489c-3-6-17-8-29-5-50 13-85-31-85-106 0-49 6-60 39-77 20-11 27-10 52 8 31 23 33 21 44-27 5-26 2-38-19-63-34-40-49-101-43-176 10-133 107-201 147-103 17 42 7 152-30 335-17 80-28 156-24 169 8 35-34 73-52 45zm-21-88c-1-34-20-64-34-55-21 12 2 99 24 91 6-2 11-18 10-36zm76-264c14-78 14-184 1-192-17-11-44 47-48 106-4 58 13 149 28 149 4 0 13-28 19-63z"/><path d="m5833 8483c-15-6-18-179-4-202 18-28 31 2 32 72 0 40 4 81 8 92 5 11 4 25-1 33-11 13-15 13-35 5z"/><path d="m12305 8458c-33-5-126-7-207-4-139 6-148 5-148-13 0-16 13-19 103-27l102-9-12-115c-7-63-16-136-19-162-5-39-3-49 10-54 9-4 19-4 22-1s14 68 25 144c10 76 21 144 24 152 3 7 0 19-5 27-9 10-1 14 37 19 106 14 153 26 153 41 0 16 0 16-85 2z"/><path d="m10198 8421c-23-27-25-28-36-10-7 11-23 19-37 19-24 0-64-33-66-54-1-6-4 3-8 19-5 24-12 30-31 30s-26-6-29-25c-4-32 29-171 45-189 21-23 41 2 48 60 8 57 25 101 37 93 5-3 9-31 9-64 0-44 4-59 16-64 25-9 44 12 44 49 0 39 41 120 61 120 16 0 37-77 38-143 1-44 22-65 43-44 15 15-6 177-27 209-23 34-76 32-107-6z"/><path d="m3930 8374c-12-30-13-213-3-513 6-195 8-212 24-208 12 3 22-6 33-32 36-81 46-169 46-426 0-278 1-284 66-311 38-16 94-19 94-4 0 5-16 12-35 16-19 3-46 15-60 26-25 19-25 19-25 261 0 318-19 441-78 504-24 27-24 27-30 303-5 264 2 409 17 350 8-29 36-38 45-15 3 9-1 29-9 46-21 39-71 42-85 3z"/><path d="m4305 8308c-2-7-11-69-20-138s-22-147-30-174c-20-68-19-86 5-86 23 0 25 7 50 153 10 56 20 95 23 87 36-107 38-111 66-108 22 3 29 12 48 63l22 60v-101c1-103 14-164 34-164 9 0 11 50 10 182-2 101-3 191-3 201 0 23-27 22-39-2-6-11-25-59-43-108l-32-88-13 45c-7 25-19 72-25 105-12 61-23 85-40 85-5 0-11-6-13-12z"/><path d="m6258 8251c-47-3-89-9-93-12-3-4-8-69-10-145-2-77-6-150-7-164-2-19 2-25 17-25 16 0 21 10 28 53 9 52 9 52 46 52 38 0 160 28 215 49 18 7 26 15 20 21s-46 2-104-10c-116-24-160-25-160-5 0 8 7 35 16 61 17 50 12 79-11 70-8-3-15-2-15 3 0 14 55 21 156 21 83 0 118 9 101 26-9 9-110 12-199 5z"/><path d="m5705 8240c-27-5-95-9-150-10-131-2-179-10-183-33-3-16 3-17 70-11l74 6-13-113c-20-185-20-174 2-174 18 0 22 12 36 125 22 172 21 170 72 170 61 1 160 24 165 38 4 13 1 13-73 2z"/><path d="m4714 8135c-30-20-63-103-70-174-7-58-6-61 20-72 23-11 33-10 63 6 19 11 42 29 50 41 13 21 17 21 45 9 37-15 88-2 88 22 0 11-7 13-31 8-36-8-49 4-49 48 0 15-4 27-10 27-5 0-10 14-10 30 0 33-30 70-58 70-10 0-27-7-38-15zm51-45c12-37-6-114-33-142-29-32-52-36-52-10 0 32 26 120 44 146 20 31 32 33 41 6z"/><path d="m5887 8134c-4-4-7-27-7-51v-43h-66c-57 0-65-2-62-17s14-18 71-16l67 1v-69c0-52 3-69 14-69 14 0 26 48 26 107 0 34-1 33 109 45 14 2 26 8 28 15 3 9-17 13-69 15l-73 3v40c0 28-5 41-15 43-9 1-19 0-23-4z"/><path d="m5110 8077c-55-9-75-16-75-27 0-9 11-16 25-18 35-4 200 31 203 43 3 14-66 15-153 2z"/><path d="m5180 8010c-81-16-104-26-95-41 9-14 47-11 119 11 60 19 79 33 59 42-5 2-42-3-83-12z"/><path d="m7204 7635c-10-25 2-205 14-217 16-16 20 1 23 117 4 98 2 110-14 113-9 2-20-4-23-13z"/><path d="m6908 7475c-77-16-88-21-88-40 0-23 19-28 53-12 38 18 132 34 124 21-3-5-10-52-16-104-7-52-17-97-22-101-15-9 12-50 31-47 11 2 18 28 27 93 6 49 17 108 24 132 10 39 15 43 43 43 49 0 106 12 106 21 0 14-206 9-282-6z"/><path d="m6132 7420c-28-12-42-47-43-108v-47l-18 45c-22 53-59 85-90 75-12-3-35-18-51-32-24-20-30-21-30-9 0 9-11 21-24 28-20 9-31 7-61-11-42-24-46-25-44-8 3 27-2 37-20 37-11 0-22-3-24-7-2-5-2-53 2-108 5-91 8-100 26-100 16 0 21 9 27 48 7 54 28 91 59 108 21 11 21 9 18-57-3-58-1-69 13-72 12-2 23 11 38 46 12 27 34 62 50 77 36 35 52 25 75-45 29-88 95-125 153-84 20 13 22 13 22 0 0-8-27-41-59-73-42-42-62-70-70-100-33-122 62-234 133-158 32 35 46 97 46 209 0 86 2 95 20 101 31 10 26 37-5 29-23-6-25-4-25 32 0 22 4 55 10 74 8 29 6 39-13 67-12 18-35 37-51 43-34 12-34 12-64 0zm59-40c13-7 19-21 19-43 0-74-25-102-60-67-22 22-25 55-10 94 10 28 21 31 51 16zm-54-155c10-9 13-14 6-15-7 0-22 9-33 20s-20 26-20 33c1 7 6 4 15-6 7-10 22-25 32-32zm82-177c0-91-14-145-42-162-47-28-80 106-40 164 23 35 65 80 75 80 4 0 8-37 7-82z"/><path d="m4846 7375c-31-33-58-136-54-200 2-41 7-52 28-62 30-15 54-2 85 44l20 29 20-30c17-26 28-31 67-34 47-3 88 10 88 28 0 5-21 7-47 3-60-7-81 13-93 89-18 107-23 123-38 141-21 24-49 21-76-8zm54-86c0-64-14-102-50-134l-23-20 6 69c7 70 41 161 58 150 5-3 9-32 9-65z"/><path d="m4432 7364c-12-8-31-32-42-52-17-34-19-35-20-12-1 35-14 53-36 48-14-3-18-11-16-28 2-14 4-63 5-110 3-75 5-85 21-85 15 0 25 16 41 65 29 85 53 132 65 125 6-4 10-40 10-81 0-67 2-74 20-74 12 0 26 12 36 33 23 47 78 127 87 127 4 0 7-30 7-67 0-102 24-134 86-119 31 8 31 26-1 26-34 0-45 27-45 113 0 116-34 129-107 39l-43-53v45c0 27-6 51-16 60-19 20-24 20-52 0z"/><path d="m5144 7315c-9-6-10-15-5-24 7-11 31-12 147-2 77 7 150 13 163 14 14 1 26 8 29 16 4 11-24 13-158 10-90-2-169-8-176-14z"/><path d="m6493 7293c-9-24 9-33 69-33 79 0 190 19 186 32-6 16-249 16-255 1z"/><path d="m5160 7168c0-21 0-21 177-14 97 4 179 9 181 11s1 8-3 14c-4 7-68 11-181 11-172 0-174 0-174-22z"/><path d="m11982 6873c3-84 5-98 21-101 18-4 22 3 31 59 4 19 13 44 21 55 13 16 16 17 25 4 5-8 10-27 10-41 0-30 21-52 41-44 8 3 27 24 42 47 31 44 38 42 56-14 17-51 46-85 80-93 25-5 28-10 28-49 1-53 22-101 61-143 34-37 76-44 90-15 5 9 8 91 8 181l-1 163 33 29c29 25 42 49 26 49-3 0-21-12-40-26-27-21-34-23-34-10 0 23-61 50-94 42-58-14-56-91 3-102l30-6-32-39c-53-64-86-51-122 50-24 67-48 76-98 38l-33-25-16 29c-19 32-63 40-87 17-10-11-11-8-6 15 6 24 5 27-19 27h-27zm458 42c7-9 10-18 8-21-10-10-58 8-58 22 0 19 34 18 50-1zm14-354c-7-8-36 24-55 60-10 21-19 56-19 79 0 33 6 46 33 69l32 29 7-116c3-64 4-119 2-121z"/><path d="m4885 6441c-3-6 14-61 39-123 64-163 89-266 90-373 0-83-2-95-32-152-25-48-29-63-17-63 8 0 29 28 46 63 58 113 51 238-22 460-57 172-84 220-104 188z"/><path d="m3677 6372c-50-56-106-242-114-382-9-160 18-252 87-301 30-21 90-35 90-21 0 6-15 15-32 21-42 14-83 65-98 121-15 55-15 189 0 270 15 83 65 219 95 260 13 18 22 37 19 41-9 14-30 10-47-9z"/><path d="m4592 6228c-13-16-38-142-46-234-6-58-4-73 9-84 25-20 33-4 53 110l18 105 12-46c14-55 42-84 75-75 25 6 57 61 57 98 0 35 8 17 35-77 28-95 39-115 62-115 11 0 13 5 8 18-4 9-23 82-43 161-32 124-50 166-67 150-2-3-11-37-19-76s-21-84-29-99c-14-27-15-27-26-6-6 11-18 51-27 89-8 37-20 73-26 80-13 16-33 17-46 1z"/><path d="m5257 6177c-38-42-95-234-81-272 4-9 19-15 35-15 23 0 37 11 71 54l42 54 29-29c37-38 93-39 164-4 92 46 93 77 2 35-48-21-124-27-134-9-4 6-11 42-16 80-5 39-14 83-21 97-18 37-60 41-91 9zm58-61c6-40 3-50-29-99-46-69-66-87-66-60 0 50 60 203 80 203 5 0 12-20 15-44z"/><path d="m6302 6178c-24-24 5-36 72-31 102 9 100-12-9-104-52-44-70-65-70-83 0-24 2-25 66-24 81 1 175 34 215 75 29 30 26 53-4 31-44-32-127-64-179-69l-58-5 35 29c125 100 143 131 105 169-21 21-34 24-93 24-39 0-73-5-80-12z"/><path d="m6637 6098c-3-46-7-94-9-108-2-19 2-26 19-28 18-3 23 3 29 32 6 34 75 126 95 126 5 0 9-25 9-55 0-87 28-84 132 13l48 45v-37c0-81 58-153 114-142 17 4 40 16 52 27 22 20 22 20 47-12 26-33 27-49 3-49-25 0-136-62-156-87-20-26-26-66-14-98 23-59 170-58 236 2 25 23 38 81 29 130-9 45-10 43 63 67 38 13 2 25-43 15-38-8-46-7-54 6-5 9-21 31-37 48-26 30-28 36-18 73 16 59-5 99-52 99-30 0-35-4-43-31s2-63 30-115c7-12-48-40-66-34-24 7-42 52-50 123-8 77-28 79-103 12-31-27-59-50-62-50s-6 12-6 26c0 65-41 81-103 40l-36-25-7 35c-4 24-12 34-24 34-15 0-19-12-23-82zm513-5c0-7-4-13-10-13-5 0-10 12-10 28 0 21 2 24 10 12 5-8 10-21 10-27zm80-275c0-39-5-50-29-71-89-74-214-12-133 66 38 37 144 80 154 64 4-7 8-33 8-59z"/><path d="m3869 6151c-21-17-25-17-35-3-21 28-44 7-44-41 0-24-7-67-15-95-17-57-14-72 15-72 13 0 21 10 25 33 10 43 48 118 73 140 19 17 19 17 26-29 3-26 6-62 6-80 0-27 4-34 19-34 13 0 24 14 35 45 10 25 29 54 44 65 22 18 27 19 40 6 8-8 20-38 26-68 9-35 18-54 29-56 24-5 22 60-3 115-27 60-78 70-127 24-21-20-21-20-27 11-12 60-44 74-87 39z"/><path d="m5713 6133c-10-26 11-33 105-33 99 0 181 15 166 30-15 14-266 17-271 3z"/><path d="m4267 6133c-4-3-7-24-7-45 0-31-3-38-20-38-23 0-27-25-5-34 11-4 15-21 15-66s4-60 14-60c16 0 26 21 26 58 0 59 9 70 61 77 32 5 49 12 49 21 0 10-14 14-51 14-49 0-50 1-49 28 1 15 2 33 1 40-1 13-23 17-34 5z"/><path d="m5950 6074c-30-8-84-13-120-12-76 3-98-6-78-29 26-32 263 6 276 45 5 15-6 14-78-4z"/><path d="m6047 5393c-73-81-135-428-94-526 15-35 41-56 53-44 4 3-1 16-10 29-46 66 4 397 75 500 34 47 14 82-24 41z"/><path d="m7276 5361c-3-5 8-26 25-47 79-98 93-213 42-345-36-92-93-180-144-221-43-35-43-56 0-33 63 32 146 148 189 264 37 99 35 199-6 283-17 35-40 73-51 86-20 23-46 29-55 13z"/><path d="m4075 5350c-8-13-8-14-33-215-11-88-18-163-16-167 3-5 11-8 19-8 15 0 19 16 35 160 15 130 18 134 45 67 12-32 28-64 35-72 27-33 66-11 94 55l15 35 1-63c0-111 28-183 64-169 13 5 13 11-2 39-13 26-17 60-17 165 0 72-3 134-7 138-16 17-37-8-73-84-21-45-42-81-46-81s-23 46-41 102c-23 71-38 104-50 106-9 2-19-2-23-8z"/><path d="m7065 5206c-27-27-64-136-72-212-5-43-3-52 12-58 22-8 62 17 77 50l11 24 18-30c36-58 105-45 175 33 47 52 28 61-27 14-51-44-88-55-106-31-18 25-17 110 1 117 11 5 12 14 5 49-15 68-52 86-94 44zm45-86c-6-4-22-31-36-60-13-29-27-50-31-47-8 9 16 93 40 142l20 40 9-34c7-23 6-36-2-41z"/><path d="m5440 5084c0-121 1-125 21-122 15 2 26 19 43 70 23 69 49 108 72 108 12 0 26-38 36-95 6-34 32-22 58 27 33 61 71 101 83 89 5-5 12-41 15-80 5-69 23-106 41-85 12 14-3 170-18 188-24 29-71 20-111-23l-36-38-17 28c-22 40-68 40-108 0l-29-29v44c0 40-2 44-25 44-25 0-25 0-25-126z"/><path d="m4492 5185c-27-20-65-138-60-191 3-36 5-39 33-39 22 0 35 8 50 31l21 31 28-23c29-26 91-32 127-14 33 18 21 30-24 24-66-9-90 15-95 100-4 53-9 69-25 81-26 19-28 19-55 0zm38-58c0-25-22-77-48-112-13-18-13-17-7 19 14 83 55 152 55 93z"/><path d="m6104 5183c-29-5-58-38-51-58 8-19 47-20 47-1 0 13 20 26 40 26 18 0 40-33 40-59 0-18-16-45-45-80-38-44-43-56-33-68 27-33 187 12 279 78 16 11 32 19 35 16s8-38 11-79l5-73-61-40c-71-45-104-84-120-139-14-53 6-102 46-110 86-19 156 74 179 237 3 26 11 50 16 53s4 11-2 19-14 48-17 90c-3 41-10 78-14 81-5 3-3 13 3 23 15 25 4 49-27 57-55 14-113-44-87-86 10-16 7-22-21-39-39-24-132-61-154-61-14 0-14 2 1 23 65 89 70 112 29 156-29 30-61 41-99 34zm313-80c-9-9-19-14-23-11-10 10 6 28 24 28 15 0 15-1-1-17zm-1-357c-21-72-60-118-95-114-21 2-27 9-29 35-4 45 20 87 81 134 48 39 52 40 55 20 2-11-4-46-12-75z"/><path d="m4820 5098c0-21 2-21 118-15 131 7 182 15 182 28 0 5-67 9-150 9-147 0-150 0-150-22z"/><path d="m6736 5091c-108-16-130-27-103-50 11-9 35-7 103 9 139 32 164 40 164 50 0 13-31 11-164-9z"/><path d="m5098 5065c-8-8-169-35-210-35-39 0-54-22-22-34 39-15 253 35 262 62 4 12-20 17-30 7z"/><path d="m4179 4323c-3-33-8-54-22-100-9-29-19-95-23-148-6-89-6-95 12-95 17 0 21 13 33 97 7 54 15 102 18 106 3 5 20-20 37-54 28-57 34-64 61-64 22 0 35 8 52 33l22 34 3-83c2-50 7-84 14-86 19-6 24 34 24 185 0 142 0 143-22 140-17-2-24-13-33-58-12-61-42-130-57-130-12 0-36 58-62 150-15 52-27 76-39 78-9 2-17 0-18-5z"/><path d="m6544 4226c-45-47-87-142-82-185 2-21 9-27 34-29s37 4 65 35l35 39 31-33c27-30 36-33 88-33 60 0 135 17 135 31 0 4-38 7-85 6-69-2-87 1-102 16-14 14-15 21-6 37 8 11 9 21 3 25-5 3-6 28-3 55 11 92-43 109-113 36zm70-33c-4-21-12-42-18-49-6-6-25-26-42-46-42-48-58-57-49-27 19 64 83 159 107 159 5 0 6-17 2-37z"/><path d="m5500 4217c-28-14-40-47-17-47 8 0 31 7 51 15 40 17 76 7 76-20 0-8-25-42-55-75-63-71-74-96-51-118 36-36 214 1 335 70 52 30 55 30 67 13 8-11 14-35 14-56 0-34-3-37-43-53-51-19-123-77-132-106-6-18-16-20-108-20-104 0-136-8-122-30 6-9 35-11 116-5 76 5 109 3 109-4 0-28 41-51 89-51 61 0 95 12 125 45l24 26 393 5c217 3 396 7 398 10 15 15-49 17-399 17-388 1-390 1-390 21 0 12-3 37-6 57-6 33-4 36 35 54 61 27 50 49-13 25-24-9-26-7-32 28-3 20-13 47-20 60-13 20-12 24 6 44 44 47 4 108-72 108-31 0-41-5-50-25-9-21-8-32 8-63l22-44c12-25-250-115-310-106-22 3-22 5 18 48 90 101 102 132 64 170-23 23-91 27-130 7zm415-31c17-12 18-17 6-42l-13-29-19 24c-36 45-18 79 26 47zm19-287c13-69 13-69-69-69-44 0-75 4-75 10 0 10 116 90 130 90 4 0 10-14 14-31zm-25-115c-23-22-94-30-116-13-14 12-11 15 28 20 24 3 57 7 74 7 27 2 28 1 14-14z"/><path d="m6183 4119c-33-33 53-50 160-33 63 11 45 32-28 32-36 0-78 3-93 7-16 3-32 1-39-6z"/><path d="m4762 3934c-33-24-1-34 101-33 114 1 229 18 234 35 5 15-314 13-335-2z"/><path d="m4260 3908c-123-5-226-11-228-13-3-2-2-12 2-21 6-15 17-16 95-10 49 4 167 11 262 16 178 10 219 16 219 31 0 10-28 10-350-3z"/><path d="m7090 3862c0-16 9-23 38-29 81-17 287-4 280 18-2 6-57 11-123 13s-137 7-157 11c-34 6-38 5-38-13z"/><path d="m5105 3843c-86-6-335-57-335-69 0-21 23-22 110-3 47 10 126 25 175 35 115 21 145 43 50 37z"/><path d="m4286 3710c-34-31-35-31-46-10-6 12-19 20-28 18-15-3-17-16-13-108 1-58 5-108 8-112 10-18 33-6 38 20 18 84 31 115 62 149l34 38-5-82c-5-77-4-83 14-83 12 0 22 11 30 35 15 44 71 105 97 105 27 0 42-19 58-72 16-57 45-65 45-13 0 40-12 68-43 103-26 28-69 29-113 1l-34-21-9 25c-9 22-29 37-51 37-5 0-25-14-44-30z"/><path d="m7140 3700c-11-7-12-12-3-21 15-15 255-1 250 15-5 14-226 20-247 6z"/><path d="m6056 3615c-12-13-30-50-40-82-39-129 0-172 81-88 44 46 45 47 65 28 32-29 147-24 221 9 31 15 57 32 57 37 0 15-5 14-78-9-69-22-133-26-161-10-10 5-21 23-24 40-4 17-12 37-19 46-52 63-67 67-102 29zm43-105c-4-8-19-26-34-40l-28-25 7 30c4 17 17 50 28 75l21 45 7-35c3-19 3-42-1-50z"/><path d="m6504 2829c-36-10-59-33-49-49 8-12 45-14 45-1 0 15 48 22 74 9 43-19 32-46-45-118-110-102-86-127 106-110 123 12 155 18 155 32 0 8-44 9-142 5l-143-7 62 58c76 70 89 94 73 132-18 43-79 65-136 49z"/><path d="m5862 2807c-27-29-74-161-70-196 5-45 30-30 44 26 16 62 60 153 74 153 6 0 10 9 10 20 0 27-31 26-58-3z"/><path d="m5298 2794c-5-4-8-13-8-21 0-9 17-13 60-13 68 0 110-15 110-41 0-19-50-61-122-103-59-34-64-62-14-72 44-8 130 11 173 38 42 25 30 47-13 25-16-8-52-18-79-22l-50-8 63 43c68 46 85 68 80 107-5 41-47 65-125 70-37 3-71 2-75-3z"/><path d="m5956 2755c-28-26-29-29-27-89 1-84 79-104 151-40 82 74 56 154-49 154-37 0-54-6-75-25zm115-15c29-16 23-48-15-86-53-53-88-40-82 31 5 56 48 81 97 55z"/><path d="m5668 2715c-22-29-23-49-2-65 23-20 65-1 77 33 18 54-41 79-75 32z"/><path d="m6183 2712c-3-7-1-18 5-24 15-15 174 12 180 30 6 19-178 13-185-6z"/><path d="m4848 2613c-43-3-58-8-58-19 0-8 7-17 16-21 25-9 217 20 222 35 4 12-40 13-180 5z"/><path d="m5055 2544c-22-8-74-17-115-21-70-6-95-16-84-35 7-11 69-10 124 2 65 15 160 51 160 61 0 13-39 10-85-7z"/><path d="m7140 2499c-25-4-68-8-97-8-28-1-58-4-67-7-20-8-21-44-2-44 44 0 351 51 360 60 12 12-124 12-194-1z"/><path d="m5385 2429c-4-6-5-13-2-15 8-9 1407-10 1407-1 0 4-12 12-26 17-37 14-1371 13-1379-1z"/><path d="m7015 2331c-3-6 4-15 16-22 32-17 259 2 259 22 0 12-267 12-275 0z"/><path d="m5983 2260c-53-11-83-27-83-45 0-23 20-28 47-10 14 10 55 20 89 23 94 7 95-10 5-102-39-41-71-78-71-84 0-26 32-35 113-30 101 7 270 59 251 78-6 6-34 2-74-11-36-11-103-23-150-26l-85-5 56 58c71 73 83 97 69 124-20 38-76 48-167 30z"/><path d="m5420 1272c-69-34-79-107-19-138 21-11 50-15 90-12 33 2 59 2 59 0 0-29-87-122-115-122-7 0-22 11-33 25-24 30-62 34-62 6 0-26 55-71 86-71 85 0 190 137 179 233-10 85-98 123-185 79zm103-23c29-16 37-28 37-61 0-29-13-34-80-29-92 6-105 52-25 87 37 16 41 17 68 3z"/><path d="m4864 1227c-13-35 5-40 125-34 122 7 161 14 161 28 0 5-49 9-109 9s-122 3-140 6c-23 5-32 2-37-9z"/><path d="m4957 1093c-115-3-128-5-125-21 3-14 16-18 68-20 60-3 203 12 236 25 26 10 14 23-18 21-18-1-91-4-161-5z"/></g><g fill="#44b" transform="matrix(.054411653 0 0 -.054411653 974.67655753537 1391.33693491264)"><path d="m750 2973c-57-10-88-25-119-57-40-41-55-100-46-179 6-45 12-61 32-77 32-25 35-25 64-1 22 17 24 26 21 89-4 105 24 120 164 87 33-7 119-19 190-25 88-8 134-16 144-26 32-32 8-420-28-456-18-18-126-28-289-28-185 0-206-4-250-52-55-58-58-82-55-363 1-145 7-274 13-293 11-34 51-62 89-62 12 0 35 14 52 31l31 30-6 238c-3 130-3 249 0 264l5 27h112c234 1 363 26 423 82 58 54 98 260 91 463-4 122-7 138-34 191-40 81-79 100-217 108-174 10-361 14-387 9z"/><path d="m3660 2971c-42-9-83-34-103-65-39-59-50-127-54-343-5-206-5-212 18-252 28-50 78-86 143-102 48-12 257-8 370 7l49 7-7-104c-4-57-11-189-16-294-9-177-9-192 8-214 35-47 100-46 136 2 22 29 27 86 42 452 7 191 0 235-44 283-45 48-92 56-241 38-146-18-229-20-265-6l-26 10v162c0 156 8 230 27 249 5 5 99 6 210 2l201-6 5-50c3-39 11-56 31-74 34-29 48-29 80 0 24 20 26 30 28 113 4 147-23 169-218 179-242 11-340 13-374 6z"/><path d="m1565 2945c-14-13-25-32-25-42s-1-297-3-638c-2-677-3-662 55-694 33-19 73-7 101 31 18 24 20 51 29 300 5 150 10 278 12 283 2 6 37 8 97 3 52-3 135-7 186-7 154-2 161-10 143-176-21-189-27-310-18-343 12-45 45-72 86-72 71 0 102 46 102 151 0 33 7 118 16 187 24 190 9 280-58 349-50 52-112 67-263 65-71-1-164-6-205-11-41-4-78-7-81-5-4 2-10 108-13 236-9 286-17 352-47 384-31 33-82 32-114-1z"/><path d="m2542 2944c-55-38-64-109-53-419 6-186 9-215 28-250 50-95 116-125 302-135 75-4 171-5 215-1l78 7-4-178c-2-97-7-181-11-184-4-4-42 1-85 11-104 26-285 27-363 3-106-33-149-107-99-170 26-34 68-41 132-21 74 23 202 20 308-7 182-47 274 5 301 168 12 77 27 831 19 994-7 152-20 181-86 186-88 7-103-51-104-401v-219l-201 4c-197 3-201 3-220 27-18 21-19 42-19 283v260l-29 29c-33 33-74 38-109 13z"/><path d="m2374 1391c-55-34-79-78-79-147 0-51 4-66 27-96 35-45 102-73 153-64 78 15 146 111 131 188-20 108-145 172-232 119z"/><path d="m1853 999c-39-11-66-56-61-101 6-59 69-64 76-6 4 30 34 38 145 38h67v-110c0-135-1-136-132-126-85 6-89 6-113-18-24-25-25-28-25-179 0-162 4-177 47-177 35 0 43 29 43 159v121h73c85 0 141 14 168 41 17 17 19 34 19 169 0 147-1 152-25 175-23 24-30 25-137 24-62 0-128-5-145-10z"/><path d="m2985 1000c-91-16-93-18-104-58-15-51-14-537 0-564 19-36 69-48 204-48 121 0 127 1 151 25l24 24-2 292-3 292-26 19c-31 23-161 33-244 18zm169-86c14-5 16-37 16-250v-245l-102 3-103 3v240 240l40 6c57 9 131 10 149 3z"/><path d="m2351 971c-24-24-29-73-37-372-6-232-6-237 15-258 23-23 29-25 51-11 12 7 16 40 20 150l5 141 35-23c19-13 59-55 88-93 30-39 78-96 108-128 47-51 56-57 74-47 29 16 25 42-15 92-19 24-62 78-95 121-61 77-61 77-33 77 15 0 46 9 69 19 56 26 67 57 62 179-6 156-27 172-220 172-93 0-111-3-127-19zm257-74c16-13 17-168 0-185-7-7-41-12-84-12-40 0-84-4-98-10l-26-10v120 119l98-6c53-3 103-10 110-16z"/></g></svg>