<?xml version="1.0" standalone="no"?>
<!DOCTYPE svg PUBLIC "-//W3C//DTD SVG 20010904//EN"
 "http://www.w3.org/TR/2001/REC-SVG-20010904/DTD/svg10.dtd">
<svg version="1.0" xmlns="http://www.w3.org/2000/svg"
 width="1402.524517pt" height="764.494105pt" viewBox="0 0 1402.524517 764.494105"
 preserveAspectRatio="xMidYMid meet">
<metadata>
Created by potrace 1.16, written by Peter Selinger 2001-2019
</metadata>
<g transform="translate(-23.000000,861.856815) scale(0.100000,-0.100000)"
fill="#000000" stroke="none">
<path d="M8138 8609 c-10 -5 -23 -20 -29 -32 -12 -21 -11 -21 8 -4 23 20 44
22 61 5 22 -22 12 -57 -33 -113 l-45 -55 59 0 c50 0 59 3 64 20 4 16 2 18 -13
10 -10 -6 -33 -10 -50 -10 l-32 0 40 45 c54 62 61 93 27 122 -29 26 -33 27
-57 12z"/>
<path d="M8391 8384 c-23 -93 -44 -177 -47 -186 -4 -15 1 -18 30 -18 l36 0 0
-1335 0 -1335 -40 0 c-33 0 -40 -3 -40 -20 0 -17 7 -20 40 -20 l40 0 0 -319 0
-320 -37 -3 c-27 -2 -39 -8 -41 -20 -3 -15 4 -18 37 -18 l41 0 0 -325 0 -325
-41 0 c-33 0 -40 -3 -37 -17 2 -13 14 -19 41 -21 l37 -3 0 -320 0 -319 -40 0
c-33 0 -40 -3 -40 -20 0 -17 7 -20 40 -20 l40 0 0 -320 0 -320 -40 0 c-33 0
-40 -3 -40 -20 0 -17 7 -20 40 -20 l40 0 0 -345 0 -345 345 0 345 0 0 -35 c0
-28 4 -35 20 -35 16 0 20 7 20 35 l0 35 320 0 320 0 0 -35 c0 -28 4 -35 20
-35 16 0 20 7 20 35 l0 35 320 0 320 0 0 -35 c0 -28 4 -35 20 -35 16 0 20 7
20 35 l0 35 320 0 320 0 0 -35 c0 -28 4 -35 20 -35 16 0 20 7 20 35 l0 35 325
0 325 0 0 -36 c0 -28 3 -35 18 -32 11 2 18 14 20 36 l3 32 320 0 319 0 0 -35
c0 -28 4 -35 20 -35 16 0 20 7 20 35 l0 35 650 0 650 0 0 -36 c0 -29 3 -34 18
-30 9 3 93 24 185 47 93 23 165 45 160 49 -7 7 -339 100 -355 100 -5 0 -8 -18
-8 -40 l0 -40 -315 0 -315 0 0 2725 0 2725 -1358 0 c-747 0 -1818 3 -2380 7
l-1022 6 0 309 0 308 41 0 c35 0 41 3 36 18 -2 9 -24 87 -47 172 -23 85 -46
161 -50 169 -4 7 -25 -57 -49 -155z m2079 -1184 l0 -330 -155 0 -155 0 -160
320 c-88 176 -160 324 -160 330 0 6 110 10 315 10 l315 0 0 -330z m680 0 l0
-330 -330 0 -330 0 0 330 0 330 330 0 330 0 0 -330z m688 -2 l2 -328 -335 0
-335 0 0 330 0 330 333 -2 332 -3 3 -327z m682 2 l0 -330 -330 0 -330 0 0 330
0 330 330 0 330 0 0 -330z m680 0 l0 -330 -330 0 -330 0 0 330 0 330 330 0
330 0 0 -330z m-4090 -10 l0 -320 -325 0 -325 0 0 320 0 320 325 0 325 0 0
-320z m680 0 l0 -320 -330 0 -330 0 0 320 0 320 330 0 330 0 0 -320z m309
-312 c1 -5 -64 -8 -144 -8 l-145 0 1 293 0 292 144 -285 c79 -157 144 -288
144 -292z m-989 -368 l0 -330 -325 0 -325 0 0 330 0 330 325 0 325 0 0 -330z
m680 0 l0 -330 -330 0 -330 0 0 330 0 330 330 0 330 0 0 -330z m495 0 l165
-330 -320 0 -320 0 0 330 0 330 155 0 155 0 165 -330z m184 38 l0 -293 -144
285 c-79 157 -144 288 -144 293 -1 4 64 7 144 7 l145 0 -1 -292z m681 -38 l0
-330 -324 0 c-286 0 -325 2 -330 16 -3 9 -6 157 -6 330 l0 314 330 0 330 0 0
-330z m688 3 l-3 -328 -330 0 -330 0 -3 328 -2 327 335 0 335 0 -2 -327z m682
-3 l0 -330 -330 0 -330 0 0 330 0 330 330 0 330 0 0 -330z m680 0 l0 -330
-330 0 -330 0 0 330 0 330 330 0 330 0 0 -330z m-4090 -680 l0 -330 -248 0
c-137 0 -283 3 -325 6 l-77 7 0 323 0 324 325 0 325 0 0 -330z m680 0 l0 -330
-330 0 -330 0 0 330 0 330 330 0 330 0 0 -330z m678 -2 l2 -328 -330 0 -330 0
0 330 0 330 328 -2 327 -3 3 -327z m682 2 l0 -330 -153 0 -152 0 -163 325
c-89 179 -162 327 -162 330 0 3 142 5 315 5 l315 0 0 -330z m690 0 l0 -330
-335 0 -335 0 0 330 0 330 335 0 335 0 0 -330z m680 0 l0 -330 -330 0 -330 0
0 330 0 330 330 0 330 0 0 -330z m680 0 l0 -330 -330 0 -330 0 0 330 0 330
330 0 330 0 0 -330z m-2556 -37 l146 -293 -150 0 -150 0 0 297 c0 163 2 294 4
292 2 -2 70 -136 150 -296z m-1534 -643 l0 -330 -248 0 c-137 0 -283 3 -325 6
l-77 7 0 318 0 318 53 4 c28 2 175 4 325 5 l272 2 0 -330z m680 0 l0 -330
-330 0 -330 0 0 330 0 330 330 0 330 0 0 -330z m680 0 l0 -330 -330 0 -330 0
0 330 0 330 330 0 330 0 0 -330z m495 0 l165 -330 -320 0 -320 0 0 330 0 330
155 0 155 0 165 -330z m184 38 l0 -293 -144 285 c-79 157 -144 288 -144 293
-1 4 64 7 144 7 l145 0 -1 -292z m691 -38 l0 -330 -329 0 c-291 0 -330 2 -335
16 -3 9 -6 157 -6 330 l0 314 335 0 335 0 0 -330z m680 0 l0 -330 -330 0 -330
0 0 330 0 330 330 0 330 0 0 -330z m680 0 l0 -330 -330 0 -330 0 0 330 0 330
330 0 330 0 0 -330z m-4092 -682 l-3 -333 -220 -3 c-121 -2 -266 0 -322 3
l-103 7 0 323 0 324 53 4 c28 2 175 4 325 5 l272 2 -2 -332z m682 -3 l0 -335
-330 0 -330 0 0 335 0 335 330 0 330 0 0 -335z m680 0 l0 -335 -330 0 -330 0
0 335 0 335 330 0 330 0 0 -335z m678 -3 l2 -332 -327 2 -328 3 -3 320 c-1
176 0 326 3 333 3 10 73 12 327 10 l323 -3 3 -333z m690 26 c1 -170 -1 -308
-5 -308 -5 0 -148 140 -318 310 l-310 310 315 -2 315 -3 3 -307z m680 -20 l-3
-333 -305 -3 c-168 -1 -315 0 -327 3 -23 5 -23 5 -23 335 l0 330 330 0 330 0
-2 -332z m682 -3 l0 -335 -330 0 -330 0 0 335 0 335 330 0 330 0 0 -335z
m-1410 -328 c0 -4 -138 -6 -307 -5 l-308 3 -3 315 -2 315 310 -310 c170 -170
310 -313 310 -318z m-2680 -357 l0 -330 -248 0 c-137 0 -283 3 -325 6 l-77 7
0 318 0 318 53 4 c28 2 175 4 325 5 l272 2 0 -330z m680 0 l0 -330 -330 0
-330 0 0 330 0 330 330 0 330 0 0 -330z m680 0 l0 -330 -330 0 -330 0 0 330 0
330 330 0 330 0 0 -330z m680 0 l0 -330 -330 0 -330 0 0 330 0 330 330 0 330
0 0 -330z m685 308 c3 -13 4 -160 3 -328 l-3 -305 -332 -3 -333 -2 0 330 0
330 330 0 c330 0 330 0 335 -22z m685 -288 c0 -170 -1 -310 -3 -310 -1 0 -142
140 -312 310 l-310 310 313 0 312 0 0 -310z m680 -20 l0 -330 -327 2 -328 3
-3 328 -2 327 330 0 330 0 0 -330z m-1025 -20 l310 -310 -313 0 -312 0 0 310
c0 171 1 310 3 310 1 0 142 -139 312 -310z m-3065 -660 l0 -330 -248 0 c-137
0 -283 3 -325 6 l-77 7 0 318 0 318 53 4 c28 2 175 4 325 5 l272 2 0 -330z
m680 0 l0 -330 -330 0 -330 0 0 330 0 330 330 0 330 0 0 -330z m680 0 l0 -330
-330 0 -330 0 0 330 0 330 330 0 330 0 0 -330z m680 0 l0 -330 -330 0 -330 0
0 330 0 330 330 0 330 0 0 -330z m690 0 l0 -330 -335 0 -335 0 0 330 0 330
335 0 335 0 0 -330z m678 -2 l2 -328 -330 0 -330 0 0 330 0 330 328 -2 327 -3
3 -327z m682 22 c0 -170 -1 -310 -3 -310 -1 0 -142 140 -312 310 l-310 310
313 0 312 0 0 -310z m-345 -40 l310 -310 -313 0 -312 0 0 310 c0 171 1 310 3
310 1 0 142 -139 312 -310z m-3745 -572 c0 -134 -3 -280 -7 -325 l-6 -83 -318
0 -319 0 0 319 0 320 53 4 c28 2 175 4 325 5 l272 2 0 -242z m680 0 c0 -134
-3 -280 -7 -325 l-6 -83 -317 0 -317 0 -6 83 c-4 45 -7 191 -7 325 l0 242 330
0 330 0 0 -242z m680 0 c0 -134 -3 -280 -7 -325 l-6 -83 -317 0 -317 0 -6 83
c-4 45 -7 191 -7 325 l0 242 330 0 330 0 0 -242z m680 0 c0 -134 -3 -280 -7
-325 l-6 -83 -317 0 -317 0 -6 83 c-4 45 -7 191 -7 325 l0 242 330 0 330 0 0
-242z m688 -70 c-2 -172 -7 -319 -11 -325 -6 -10 -83 -13 -326 -13 l-318 0 -6
83 c-4 45 -7 191 -7 325 l0 242 336 0 336 0 -4 -312z m682 70 c0 -134 -3 -280
-7 -325 l-6 -83 -317 0 -317 0 -6 83 c-4 45 -7 191 -7 325 l0 242 330 0 330 0
0 -242z m680 -83 l0 -325 -324 0 -323 0 -6 83 c-4 45 -7 191 -7 325 l0 242
330 0 330 0 0 -325z"/>
<path d="M7239 8501 c-16 -16 -29 -38 -29 -49 0 -11 23 -47 50 -80 53 -63 62
-98 34 -126 -34 -35 -104 -5 -107 46 -3 37 -15 22 -22 -27 -7 -44 -13 -42 89
-47 59 -4 96 28 96 84 0 31 -8 47 -50 93 -54 59 -59 75 -34 99 32 33 82 16 99
-34 l11 -32 10 51 c9 41 8 48 -3 40 -9 -8 -22 -8 -44 0 -49 17 -68 13 -100
-18z"/>
<path d="M7649 8401 c-57 -57 -32 -169 42 -186 30 -7 83 31 92 66 5 18 3 18
-18 -5 -34 -37 -70 -34 -95 7 -11 17 -20 43 -20 57 0 62 65 95 88 45 13 -29
30 -32 39 -8 9 22 -31 53 -69 53 -19 0 -40 -10 -59 -29z"/>
<path d="M7823 8413 c14 -4 17 -17 17 -88 0 -69 -3 -86 -17 -94 -14 -8 -8 -10
27 -10 25 1 37 3 28 6 -15 4 -18 16 -17 76 0 52 3 67 10 52 5 -11 20 -46 34
-79 14 -32 29 -56 32 -52 4 4 21 41 39 84 l33 77 1 -72 c0 -58 -3 -74 -17 -82
-14 -8 -5 -10 37 -10 30 1 47 3 38 6 -16 4 -18 17 -18 93 0 61 4 90 13 93 6 3
-5 6 -25 6 -24 1 -38 -4 -38 -11 -1 -7 -13 -40 -28 -73 l-28 -59 -29 72 c-30
72 -30 72 -70 71 -22 -1 -32 -3 -22 -6z"/>
<path d="M7407 8246 c-7 -17 18 -40 33 -31 18 11 11 -24 -10 -45 -11 -11 -16
-20 -12 -20 14 0 52 45 52 62 0 31 -12 48 -35 48 -13 0 -25 -6 -28 -14z"/>
<path d="M7643 7670 c-48 -19 -55 -74 -17 -119 l26 -32 -26 -26 c-44 -44 -31
-103 27 -122 38 -13 62 -7 95 22 31 29 28 69 -8 110 l-29 34 24 23 c65 61 -5
145 -92 110z m75 -22 c19 -19 14 -63 -8 -83 -19 -17 -21 -17 -41 1 -32 29 -41
51 -29 74 12 23 59 27 78 8z m-9 -173 c47 -54 38 -95 -21 -95 -51 0 -74 72
-36 117 16 19 23 16 57 -22z"/>
<path d="M7869 7665 c-82 -45 -78 -255 6 -293 21 -10 32 -10 52 0 45 22 67 62
71 133 5 75 -22 144 -64 163 -31 15 -33 15 -65 -3z m72 -37 c20 -48 17 -189
-4 -222 -21 -32 -38 -33 -63 -5 -16 18 -19 37 -19 114 0 103 14 145 50 145 16
0 27 -10 36 -32z"/>
<path d="M8099 7665 c-82 -45 -78 -255 6 -293 21 -10 32 -10 52 0 45 22 67 62
71 133 5 75 -22 144 -64 163 -31 15 -33 15 -65 -3z m72 -37 c20 -48 17 -189
-4 -222 -21 -32 -38 -33 -63 -5 -16 18 -19 37 -19 114 0 103 14 145 50 145 16
0 27 -10 36 -32z"/>
<path d="M500 6700 c0 -5 7 -10 15 -10 19 0 20 2 -14 -115 -21 -74 -34 -103
-50 -111 -35 -18 -13 -24 86 -24 l94 0 15 36 c19 46 10 55 -22 21 -19 -21 -34
-27 -64 -27 -22 0 -40 2 -40 5 0 29 57 194 71 207 10 9 19 19 19 22 0 3 -25 6
-55 6 -30 0 -55 -4 -55 -10z"/>
<path d="M4945 6700 c-3 -5 1 -10 9 -10 22 0 20 -21 -12 -125 -21 -66 -34 -93
-50 -101 -30 -15 -17 -24 35 -24 42 0 57 12 29 23 -13 5 -12 13 1 59 28 96 30
98 37 23 4 -38 8 -76 9 -84 4 -33 26 -17 76 54 28 41 55 75 58 75 9 0 -7 -72
-23 -102 -8 -15 -21 -28 -30 -28 -8 0 -12 -4 -9 -10 3 -5 31 -10 61 -10 30 0
54 5 54 10 0 6 -7 10 -15 10 -19 0 -20 -2 11 110 15 53 35 102 45 112 26 23
24 28 -13 28 -30 -1 -39 -10 -103 -98 l-70 -97 -7 55 c-21 154 -16 140 -53
140 -19 0 -37 -4 -40 -10z"/>
<path d="M790 6360 l0 -160 -280 0 -280 0 0 -65 0 -65 280 0 280 0 0 -925 0
-925 -280 0 -280 0 0 -65 0 -65 280 0 280 0 0 -165 0 -165 25 0 25 0 0 165 0
165 2698 2 2697 3 3 63 3 62 -591 0 -590 0 0 233 c0 129 3 269 7 312 6 78 6
78 25 56 22 -28 23 -20 3 20 -9 16 -20 27 -25 24 -6 -4 -10 -2 -10 4 0 6 12
13 28 17 15 3 34 8 43 10 13 4 18 -9 28 -65 6 -39 11 -87 11 -108 l-1 -38 -29
55 c-38 73 -38 52 0 -25 16 -33 30 -64 30 -70 0 -5 9 -21 20 -35 l21 -25 -5
25 c-17 82 -37 231 -34 241 2 6 46 -34 98 -89 52 -56 95 -100 97 -98 2 1 -9
27 -23 56 -15 32 -29 49 -33 42 -4 -7 -36 17 -86 68 -68 69 -76 80 -59 86 10
4 26 13 35 20 13 12 19 6 43 -42 15 -31 30 -54 33 -51 3 3 -5 22 -17 41 -18
29 -19 36 -6 36 8 0 17 -4 20 -9 4 -5 37 -27 74 -48 37 -21 74 -42 83 -48 80
-50 78 -43 -15 60 -54 58 -95 109 -92 112 6 6 127 -17 221 -43 27 -7 50 -12
52 -10 1 1 -53 33 -121 72 -75 41 -120 72 -113 76 7 4 71 8 142 9 125 1 128 1
85 14 -25 8 -91 24 -147 37 -120 27 -129 18 105 109 45 17 81 33 79 35 -2 2
-58 -1 -125 -7 -180 -15 -180 -15 -76 63 49 37 100 76 114 87 25 20 25 20 -20
5 -25 -9 -58 -22 -75 -29 -51 -23 -155 -58 -159 -54 -4 4 103 158 140 202 31
37 7 24 -96 -54 -57 -43 -109 -79 -113 -79 -11 0 -11 -2 42 150 37 106 38 113
15 85 -13 -16 -36 -50 -51 -75 -14 -25 -41 -65 -60 -89 l-33 -44 -1 159 0 159
-20 -65 c-11 -36 -27 -85 -34 -110 -12 -41 -14 -20 -14 218 l-1 262 590 0 591
0 -3 63 -3 62 -2697 3 -2698 2 0 160 0 160 -25 0 -25 0 0 -160z m4220 -557
l-1 -268 -34 98 c-18 55 -36 102 -39 105 -3 3 -6 -58 -6 -136 0 -88 -4 -142
-10 -142 -5 0 -10 4 -10 9 0 10 -96 160 -128 199 -12 15 -13 15 -7 -3 14 -39
46 -140 59 -185 7 -25 17 -54 21 -64 5 -11 -49 25 -120 79 -128 98 -128 98
-94 49 19 -27 36 -51 39 -54 22 -21 99 -140 90 -140 -6 0 -35 9 -63 21 -95 38
-142 57 -172 68 -27 10 -28 10 -11 -4 11 -8 32 -26 47 -40 16 -13 57 -45 91
-71 35 -25 65 -48 68 -51 6 -6 -194 5 -254 14 -44 7 -44 -10 0 -21 14 -4 45
-15 68 -25 22 -10 72 -31 109 -47 l68 -27 -68 -19 c-37 -10 -90 -22 -118 -27
-111 -21 -105 -30 22 -30 67 -1 129 -4 138 -7 12 -5 -3 -18 -57 -50 -40 -24
-78 -43 -85 -44 -6 0 -18 -6 -25 -13 -7 -7 -26 -18 -42 -25 -43 -19 -26 -23
35 -8 134 35 198 48 214 44 14 -2 -5 -28 -78 -109 -83 -92 -91 -104 -61 -90
18 8 34 19 34 23 0 4 5 8 10 8 6 0 36 16 66 35 30 19 57 35 61 35 3 0 15 7 25
17 33 30 31 5 -7 -64 -21 -37 -51 -93 -68 -123 l-30 -55 68 65 c38 36 83 81
101 100 18 19 36 31 39 28 4 -3 0 -42 -8 -85 -9 -43 -19 -100 -22 -127 -4 -27
-9 -56 -11 -65 -6 -20 7 6 68 138 27 57 46 106 44 109 -3 3 -10 -6 -15 -19 -5
-13 -21 -49 -36 -79 l-26 -55 6 55 c13 117 27 171 42 166 8 -4 23 -6 34 -6 17
0 18 -3 8 -21 -7 -15 -8 -24 -1 -28 19 -12 32 -172 32 -398 l0 -223 -2085 0
-2085 0 0 445 0 445 370 0 370 0 0 -25 c0 -30 18 -32 94 -11 46 13 75 21 206
53 33 8 27 11 -85 37 -66 15 -140 34 -164 42 -25 8 -46 14 -48 14 -2 0 -3 -13
-3 -30 l0 -30 -370 0 -370 0 0 455 0 455 2085 0 2085 0 0 -267z m-21 -266 c12
-37 21 -80 21 -96 0 -27 -5 -31 -60 -49 -33 -10 -63 -16 -65 -12 -11 19 -56
173 -53 182 3 7 29 -28 59 -77 l54 -89 3 125 c4 131 5 132 41 16z m117 -134
c-2 -3 -14 -2 -27 2 -19 7 -21 12 -16 59 3 28 13 76 24 106 l18 55 3 -109 c1
-60 1 -111 -2 -113z m104 70 c-18 -48 -34 -89 -35 -91 -2 -2 -17 1 -34 5 l-31
8 61 88 c34 49 63 86 66 83 3 -2 -10 -44 -27 -93z m-500 21 c8 -8 46 -38 87
-66 40 -28 73 -55 73 -61 0 -6 -10 -21 -21 -33 -25 -26 -25 -26 -83 56 -22 30
-50 70 -64 88 -24 32 -17 47 8 16z m641 -22 c-7 -14 -92 -134 -107 -151 -2 -2
-17 8 -33 22 l-30 25 37 26 c20 14 57 42 82 61 50 39 65 44 51 17z m86 -104
c-10 -5 -47 -32 -83 -59 -36 -27 -68 -49 -72 -49 -4 0 -15 12 -25 25 -21 29
-31 22 108 73 75 28 113 33 72 10z m-747 -9 c30 -11 69 -25 85 -31 45 -16 47
-21 26 -64 -11 -22 -23 -53 -27 -67 -5 -22 -10 -26 -28 -21 -24 7 -93 36 -151
65 l-40 20 113 -5 c61 -3 112 -4 112 -2 0 1 -34 27 -75 57 -41 29 -75 57 -75
62 0 9 -3 10 60 -14z m446 -20 c19 -11 34 -24 34 -28 0 -9 -125 -131 -134
-131 -7 0 -136 126 -136 133 0 3 15 14 33 26 46 29 156 29 203 0z m-201 -265
c-69 -67 -69 -67 -86 -45 -29 35 -40 111 -26 168 24 91 32 91 111 13 l70 -69
-69 -67z m302 158 c26 -62 12 -193 -24 -215 -5 -3 -39 24 -77 60 l-68 66 68
68 c37 37 72 65 77 62 5 -3 16 -21 24 -41z m253 15 c-14 -8 -39 -18 -55 -25
-17 -6 -53 -19 -82 -30 -48 -18 -53 -19 -57 -4 -2 10 -7 27 -11 39 -7 26 8 29
145 31 76 2 82 0 60 -11z m-714 -153 c24 -76 28 -70 -76 -93 -30 -7 -72 -17
-93 -23 -54 -13 -54 -7 1 22 26 14 72 38 102 55 l55 29 -40 8 c-22 4 -76 8
-120 9 -78 1 -79 2 -35 11 25 6 74 18 110 28 36 10 67 19 70 19 3 1 15 -29 26
-65z m719 19 c32 -5 18 -8 -75 -15 -62 -4 -116 -6 -118 -3 -2 2 -1 17 3 33 l6
30 72 -19 c40 -10 90 -22 112 -26z m-342 -152 c-56 -42 -138 -52 -198 -23 -61
30 -61 30 12 104 l67 68 68 -67 c63 -63 67 -69 51 -82z m252 64 c17 -8 41 -22
55 -30 25 -16 25 -16 -15 -10 -93 13 -165 38 -165 56 0 44 9 48 53 23 23 -13
56 -31 72 -39z m-565 -68 c0 -3 -33 -24 -72 -47 -40 -22 -83 -48 -95 -56 -44
-32 -22 2 53 79 l75 78 20 -25 c10 -13 19 -27 19 -29z m501 -19 c38 -40 68
-77 69 -81 0 -4 -24 6 -52 22 -29 17 -70 40 -91 51 -38 21 -38 21 -20 50 9 17
19 30 21 30 3 0 35 -33 73 -72z m-503 -105 c-70 -70 -100 -82 -62 -25 10 15
31 53 47 84 l28 58 30 -22 29 -22 -72 -73z m169 -15 c-2 -13 -4 -3 -4 22 0 25
2 35 4 23 2 -13 2 -33 0 -45z"/>
<path d="M1720 5753 c0 -5 7 -19 16 -31 l15 -22 -155 0 c-132 0 -156 -2 -156
-15 0 -13 24 -15 155 -15 l155 0 -16 -25 c-27 -41 -9 -40 40 1 24 22 43 39 43
39 -1 1 -23 18 -49 39 -27 20 -48 34 -48 29z"/>
<path d="M1512 5578 c-6 -6 -12 -32 -12 -56 0 -24 -4 -51 -9 -60 -4 -9 -11
-32 -14 -49 -5 -26 -2 -37 16 -54 18 -17 29 -19 67 -14 54 8 74 19 119 61 29
27 35 40 39 86 4 53 3 55 -29 76 -41 26 -50 20 -19 -13 18 -20 22 -31 17 -62
-11 -65 -81 -133 -138 -133 -24 0 -28 5 -34 41 -5 30 -3 45 9 58 9 10 16 27
16 39 0 11 5 24 10 27 14 9 12 16 -8 43 -14 18 -20 20 -30 10z"/>
<path d="M2502 5260 c-23 -5 -48 -12 -55 -16 -158 -91 -220 -191 -219 -350 0
-72 4 -93 32 -151 49 -105 121 -165 240 -199 159 -46 339 37 425 196 28 51 30
63 30 155 0 91 -3 105 -30 160 -61 122 -174 199 -305 208 -41 3 -94 2 -118 -3z
m200 -57 c24 -9 58 -26 76 -38 l32 -22 -111 -108 -111 -107 -108 107 c-109
108 -109 108 -86 126 71 56 221 77 308 42z m-252 -408 c-119 -120 -121 -120
-160 -15 -31 83 -29 168 4 245 44 98 37 99 155 -19 l106 -106 -105 -105z m429
253 c28 -54 31 -71 31 -148 0 -92 -20 -159 -57 -192 -17 -15 -25 -9 -127 86
l-109 102 109 107 c60 58 112 107 116 107 3 0 20 -28 37 -62z m-82 -392 c-7
-22 -69 -55 -125 -67 -106 -22 -239 5 -282 56 -12 14 -1 29 90 120 l104 104
108 -101 c60 -55 107 -106 105 -112z"/>
<path d="M3450 5145 c0 -3 7 -17 16 -30 l16 -25 -161 0 c-101 0 -161 -4 -161
-10 0 -6 60 -10 161 -10 l160 0 -21 -30 c-28 -40 -18 -38 36 6 l44 37 -37 33
c-36 31 -53 41 -53 29z"/>
<path d="M3202 4913 c9 -2 19 -10 22 -18 3 -8 -14 -80 -37 -162 -36 -125 -46
-150 -67 -160 -40 -20 148 -18 198 2 71 29 93 107 45 157 -15 15 -22 28 -16
28 26 0 73 52 73 80 0 57 -47 81 -158 79 -42 -1 -70 -3 -60 -6z m146 -29 c24
-16 28 -44 12 -75 -23 -41 -127 -70 -116 -31 3 9 10 37 16 62 7 25 14 48 17
53 7 12 47 8 71 -9z m-40 -150 c16 -11 22 -25 22 -54 0 -21 -3 -46 -6 -55 -9
-23 -57 -45 -99 -45 -30 0 -35 3 -31 18 3 9 12 44 22 77 9 33 18 63 21 68 7
12 47 8 71 -9z"/>
<path d="M7710 6319 c-96 -38 -149 -176 -100 -257 51 -83 156 -51 167 52 5 39
2 48 -22 71 -22 23 -33 27 -66 22 -29 -4 -39 -2 -39 9 0 21 60 84 94 99 23 10
26 13 11 14 -11 0 -31 -5 -45 -10z m-4 -137 c50 -33 39 -152 -15 -152 -45 0
-81 109 -46 143 17 18 43 22 61 9z"/>
<path d="M7869 6315 c-82 -45 -78 -255 6 -293 21 -10 32 -10 52 0 45 22 67 62
71 133 5 75 -22 144 -64 163 -31 15 -33 15 -65 -3z m72 -37 c20 -48 17 -189
-4 -222 -21 -32 -38 -33 -63 -5 -16 18 -19 37 -19 114 0 103 14 145 50 145 16
0 27 -10 36 -32z"/>
<path d="M8099 6315 c-82 -45 -78 -255 6 -293 21 -10 32 -10 52 0 45 22 67 62
71 133 5 75 -22 144 -64 163 -31 15 -33 15 -65 -3z m72 -37 c20 -48 17 -189
-4 -222 -21 -32 -38 -33 -63 -5 -16 18 -19 37 -19 114 0 103 14 145 50 145 16
0 27 -10 36 -32z"/>
<path d="M7648 4870 c-38 -54 -68 -106 -68 -114 0 -13 12 -16 60 -16 l60 0 0
-40 c0 -33 3 -40 20 -40 17 0 20 7 20 40 0 33 3 40 20 40 11 0 20 7 20 15 0 8
-9 15 -20 15 -19 0 -20 7 -20 100 0 74 -3 100 -12 100 -7 -1 -43 -45 -80 -100z
m52 -30 l0 -70 -51 0 -50 0 48 70 c26 38 49 70 51 70 1 0 2 -31 2 -70z"/>
<path d="M7869 4955 c-82 -45 -78 -255 6 -293 21 -10 32 -10 52 0 45 22 67 62
71 133 5 75 -22 144 -64 163 -31 15 -33 15 -65 -3z m72 -37 c20 -48 17 -189
-4 -222 -21 -32 -38 -33 -63 -5 -16 18 -19 37 -19 114 0 103 14 145 50 145 16
0 27 -10 36 -32z"/>
<path d="M8099 4955 c-82 -45 -78 -255 6 -293 21 -10 32 -10 52 0 45 22 67 62
71 133 5 75 -22 144 -64 163 -31 15 -33 15 -65 -3z m72 -37 c20 -48 17 -189
-4 -222 -21 -32 -38 -33 -63 -5 -16 18 -19 37 -19 114 0 103 14 145 50 145 16
0 27 -10 36 -32z"/>
<path d="M5280 4824 c0 -5 7 -19 15 -30 8 -10 15 -14 15 -8 0 5 -7 19 -15 30
-8 10 -15 14 -15 8z"/>
<path d="M435 3840 c-3 -5 1 -10 9 -10 20 0 21 3 -10 -110 -15 -53 -35 -102
-45 -112 -11 -9 -19 -19 -19 -22 0 -10 99 -6 105 4 3 6 -1 10 -9 10 -19 0 -19
22 -2 70 l12 34 27 -39 c28 -41 34 -65 17 -65 -5 0 -10 -4 -10 -10 0 -6 27
-10 60 -10 33 0 60 4 60 10 0 6 -7 10 -15 10 -14 0 -95 109 -95 128 0 13 120
102 137 102 7 0 13 5 13 10 0 6 -20 10 -45 10 -37 0 -45 -3 -45 -18 0 -11 -20
-33 -45 -51 -25 -18 -45 -27 -45 -21 0 18 30 70 40 70 6 0 10 5 10 10 0 6 -22
10 -49 10 -28 0 -53 -4 -56 -10z"/>
<path d="M4919 3840 c26 -11 26 -10 -15 -146 -19 -63 -30 -84 -47 -90 -17 -6
-12 -8 27 -11 52 -4 71 3 45 17 -15 8 -14 16 4 85 11 41 23 75 26 75 3 0 21
-41 40 -90 18 -50 38 -90 45 -90 6 0 21 37 34 83 12 45 27 99 33 120 6 24 19
41 32 47 17 7 11 9 -28 9 -32 1 -45 -2 -36 -8 11 -7 11 -18 1 -62 -27 -113
-28 -114 -64 -19 l-31 85 -45 2 c-38 2 -41 1 -21 -7z"/>
<path d="M7619 3561 c-16 -16 -29 -37 -29 -47 0 -13 5 -11 21 10 39 50 109 24
109 -41 0 -36 -34 -90 -98 -155 l-46 -48 91 0 c91 0 91 0 101 29 10 29 10 29
-16 15 -15 -8 -49 -14 -75 -14 l-49 0 51 57 c88 98 102 154 50 197 -40 34 -74
33 -110 -3z"/>
<path d="M7869 3575 c-82 -45 -78 -255 6 -293 21 -10 32 -10 52 0 45 22 67 62
71 133 5 75 -22 144 -64 163 -31 15 -33 15 -65 -3z m72 -37 c20 -48 17 -189
-4 -222 -21 -32 -38 -33 -63 -5 -16 18 -19 37 -19 114 0 103 14 145 50 145 16
0 27 -10 36 -32z"/>
<path d="M8099 3575 c-82 -45 -78 -255 6 -293 21 -10 32 -10 52 0 45 22 67 62
71 133 5 75 -22 144 -64 163 -31 15 -33 15 -65 -3z m72 -37 c20 -48 17 -189
-4 -222 -21 -32 -38 -33 -63 -5 -16 18 -19 37 -19 114 0 103 14 145 50 145 16
0 27 -10 36 -32z"/>
<path d="M2678 3158 c21 -11 22 -16 22 -140 0 -124 -1 -129 -22 -138 -17 -6
-7 -9 42 -9 36 1 58 3 50 6 -24 9 -30 25 -30 78 l0 50 51 0 c41 0 54 4 70 24
21 25 25 71 9 101 -14 26 -64 40 -144 39 -59 0 -67 -2 -48 -11z m130 -24 c15
-10 22 -25 22 -49 0 -41 -22 -65 -61 -65 -29 0 -29 1 -29 58 0 32 3 62 7 65
11 12 37 8 61 -9z"/>
<path d="M3203 3061 c-68 -42 -59 -164 14 -192 33 -12 57 -4 83 28 26 33 26
53 0 25 -41 -44 -95 -18 -107 52 -11 68 53 118 79 61 11 -25 32 -33 42 -16 10
15 -4 38 -30 50 -34 15 -44 14 -81 -8z"/>
<path d="M2923 3059 c14 -8 17 -24 17 -89 0 -65 -3 -81 -17 -89 -14 -8 -7 -10
32 -10 28 0 44 3 38 6 -23 9 -13 37 27 83 l39 45 1 -62 c0 -50 -3 -62 -17 -66
-10 -3 7 -5 37 -6 42 0 51 2 38 10 -15 8 -18 24 -18 89 0 65 3 81 18 89 13 8
6 10 -33 10 -27 0 -44 -3 -37 -6 22 -9 12 -37 -28 -82 l-40 -44 0 61 c0 49 3
61 18 65 9 3 -8 5 -38 6 -42 0 -51 -2 -37 -10z"/>
<path d="M3634 3038 c-59 -52 -82 -129 -48 -162 20 -21 25 -20 68 9 32 22 36
23 36 6 0 -10 3 -20 6 -24 9 -9 64 21 64 35 0 9 -3 9 -12 0 -25 -25 -26 -9 -3
75 13 48 22 89 19 92 -3 3 -13 0 -24 -7 -12 -7 -21 -8 -25 -2 -12 19 -45 10
-81 -22z m76 7 c30 -36 -42 -168 -83 -152 -36 14 -8 116 42 154 21 16 26 16
41 -2z"/>
<path d="M3374 2899 c-3 -6 0 -17 7 -25 18 -17 44 -2 36 20 -7 18 -33 21 -43
5z"/>
<path d="M8059 1825 c-82 -45 -78 -255 6 -293 21 -10 32 -10 52 0 45 22 67 62
71 133 5 75 -22 144 -64 163 -31 15 -33 15 -65 -3z m72 -37 c20 -48 17 -189
-4 -222 -21 -32 -38 -33 -63 -5 -16 18 -19 37 -19 114 0 103 14 145 50 145 16
0 27 -10 36 -32z"/>
<path d="M9069 1811 c-16 -16 -29 -37 -29 -47 0 -13 5 -11 21 10 39 50 109 24
109 -41 0 -36 -34 -90 -98 -155 l-46 -48 91 0 c91 0 91 0 101 29 10 29 10 29
-16 15 -15 -8 -49 -14 -75 -14 l-49 0 51 57 c88 98 102 154 50 197 -40 34 -74
33 -110 -3z"/>
<path d="M9778 1740 c-38 -54 -68 -106 -68 -114 0 -13 12 -16 60 -16 l60 0 0
-40 c0 -33 3 -40 20 -40 17 0 20 7 20 40 0 33 3 40 20 40 11 0 20 7 20 15 0 8
-9 15 -20 15 -19 0 -20 7 -20 100 0 74 -3 100 -12 100 -7 -1 -43 -45 -80 -100z
m52 -30 l0 -70 -51 0 -50 0 48 70 c26 38 49 70 51 70 1 0 2 -31 2 -70z"/>
<path d="M10540 1829 c-96 -38 -149 -176 -100 -257 51 -83 156 -51 167 52 5
39 2 48 -22 71 -22 23 -33 27 -66 22 -29 -4 -39 -2 -39 9 0 21 60 84 94 99 23
10 26 13 11 14 -11 0 -31 -5 -45 -10z m-4 -137 c50 -33 39 -152 -15 -152 -45
0 -81 109 -46 143 17 18 43 22 61 9z"/>
<path d="M11103 1830 c-48 -19 -55 -74 -17 -119 l26 -32 -26 -26 c-44 -44 -31
-103 27 -122 38 -13 62 -7 95 22 31 29 28 69 -8 110 l-29 34 24 23 c65 61 -5
145 -92 110z m75 -22 c19 -19 14 -63 -8 -83 -19 -17 -21 -17 -41 1 -32 29 -41
51 -29 74 12 23 59 27 78 8z m-9 -173 c47 -54 38 -95 -21 -95 -51 0 -74 72
-36 117 16 19 23 16 57 -22z"/>
<path d="M11740 1819 c-19 -10 -28 -18 -19 -19 25 0 29 -21 29 -133 0 -104 -4
-120 -30 -130 -8 -3 12 -5 45 -5 33 0 52 2 43 5 -24 6 -28 27 -31 175 l-2 126
-35 -19z"/>
<path d="M11959 1825 c-82 -45 -78 -255 6 -293 21 -10 32 -10 52 0 45 22 67
62 71 133 5 75 -22 144 -64 163 -31 15 -33 15 -65 -3z m72 -37 c20 -48 17
-189 -4 -222 -21 -32 -38 -33 -63 -5 -16 18 -19 37 -19 114 0 103 14 145 50
145 16 0 27 -10 36 -32z"/>
<path d="M12390 1819 c-19 -10 -28 -18 -19 -19 25 0 29 -21 29 -133 0 -104 -4
-120 -30 -130 -8 -3 12 -5 45 -5 33 0 52 2 43 5 -24 6 -28 27 -31 175 l-2 126
-35 -19z"/>
<path d="M12579 1811 c-16 -16 -29 -37 -29 -47 0 -13 5 -11 21 10 39 50 109
24 109 -41 0 -36 -34 -90 -98 -155 l-46 -48 91 0 c91 0 91 0 101 29 10 29 10
29 -16 15 -15 -8 -49 -14 -75 -14 l-49 0 51 57 c88 98 102 154 50 197 -40 34
-74 33 -110 -3z"/>
<path d="M13060 1819 c-19 -10 -28 -18 -19 -19 25 0 29 -21 29 -133 0 -104 -4
-120 -30 -130 -8 -3 12 -5 45 -5 33 0 52 2 43 5 -24 6 -28 27 -31 175 l-2 126
-35 -19z"/>
<path d="M13268 1740 c-38 -54 -68 -106 -68 -114 0 -13 12 -16 60 -16 l60 0 0
-40 c0 -33 3 -40 20 -40 17 0 20 7 20 40 0 33 3 40 20 40 11 0 20 7 20 15 0 8
-9 15 -20 15 -19 0 -20 7 -20 100 0 74 -3 100 -12 100 -7 -1 -43 -45 -80 -100z
m52 -30 l0 -70 -51 0 -50 0 48 70 c26 38 49 70 51 70 1 0 2 -31 2 -70z"/>
<path d="M13806 1767 c-9 -13 -29 -30 -44 -37 -22 -11 -24 -14 -9 -17 9 -3 17
-5 17 -6 0 -1 -9 -34 -20 -72 -24 -83 -25 -101 -6 -108 16 -6 66 28 66 45 0 6
-9 3 -20 -7 -11 -10 -22 -16 -24 -14 -2 2 6 38 18 79 15 52 27 76 39 78 21 4
23 22 2 22 -12 0 -13 5 -4 26 13 36 5 42 -15 11z"/>
<path d="M14119 1711 c-57 -57 -32 -169 42 -186 30 -7 83 31 92 66 5 18 3 18
-18 -5 -34 -37 -70 -34 -95 7 -11 17 -20 43 -20 57 0 62 65 95 88 45 13 -29
30 -32 39 -8 9 22 -31 53 -69 53 -19 0 -40 -10 -59 -29z"/>
<path d="M13867 1556 c-7 -17 18 -40 33 -31 18 11 11 -24 -10 -45 -11 -11 -16
-20 -12 -20 14 0 52 45 52 62 0 31 -12 48 -35 48 -13 0 -25 -6 -28 -14z"/>
<path d="M11225 1278 c-35 -6 -60 -19 -83 -41 -59 -57 -92 -196 -58 -242 17
-24 74 -25 110 -2 34 23 56 57 63 101 5 30 1 42 -17 61 -29 30 -62 32 -106 4
-38 -23 -40 -21 -19 21 20 38 53 60 91 60 29 0 86 33 74 42 -3 3 -27 0 -55 -4z
m-7 -153 c2 -26 -5 -55 -20 -85 -19 -38 -28 -46 -55 -48 -28 -3 -33 1 -39 23
-15 59 44 160 90 153 17 -2 22 -11 24 -43z"/>
<path d="M10168 1268 c21 -11 22 -16 22 -140 0 -124 -1 -129 -22 -138 -17 -6
-7 -9 42 -9 36 1 58 3 50 6 -24 9 -30 25 -30 78 l0 50 51 0 c41 0 54 4 70 24
21 25 25 71 9 101 -14 26 -64 40 -144 39 -59 0 -67 -2 -48 -11z m130 -24 c15
-10 22 -25 22 -49 0 -41 -22 -65 -61 -65 -29 0 -29 1 -29 58 0 32 3 62 7 65
11 12 37 8 61 -9z"/>
<path d="M10693 1171 c-68 -42 -59 -164 14 -192 33 -12 57 -4 83 28 26 33 26
53 0 25 -41 -44 -95 -18 -107 52 -11 68 53 118 79 61 11 -25 32 -33 42 -16 10
15 -4 38 -30 50 -34 15 -44 14 -81 -8z"/>
<path d="M10413 1169 c14 -8 17 -24 17 -89 0 -65 -3 -81 -17 -89 -14 -8 -7
-10 32 -10 28 0 44 3 38 6 -23 9 -13 37 27 83 l39 45 1 -62 c0 -50 -3 -62 -17
-66 -10 -3 7 -5 37 -6 42 0 51 2 38 10 -15 8 -18 24 -18 89 0 65 3 81 18 89
13 8 6 10 -33 10 -27 0 -44 -3 -37 -6 22 -9 12 -37 -28 -82 l-40 -44 0 61 c0
49 3 61 18 65 9 3 -8 5 -38 6 -42 0 -51 -2 -37 -10z"/>
<path d="M10864 1009 c-3 -6 0 -17 7 -25 18 -17 44 -2 36 20 -7 18 -33 21 -43
5z"/>
</g>
</svg>
