<?xml version="1.0" encoding="UTF-8" standalone="no"?>
<svg
   width="391.41684pt"
   height="173.44467pt"
   viewBox="0 0 391.41685 173.44467"
   version="1.1"
   id="svg32"
   sodipodi:docname="750t.svg"
   inkscape:version="1.3 (0e150ed, 2023-07-21)"
   xmlns:inkscape="http://www.inkscape.org/namespaces/inkscape"
   xmlns:sodipodi="http://sodipodi.sourceforge.net/DTD/sodipodi-0.dtd"
   xmlns:xlink="http://www.w3.org/1999/xlink"
   xmlns="http://www.w3.org/2000/svg"
   xmlns:svg="http://www.w3.org/2000/svg"
   xmlns:rdf="http://www.w3.org/1999/02/22-rdf-syntax-ns#"
   xmlns:cc="http://creativecommons.org/ns#"
   xmlns:dc="http://purl.org/dc/elements/1.1/">
  <sodipodi:namedview
     id="namedview32"
     pagecolor="#ffffff"
     bordercolor="#000000"
     borderopacity="0.25"
     inkscape:showpageshadow="2"
     inkscape:pageopacity="0.0"
     inkscape:pagecheckerboard="0"
     inkscape:deskcolor="#d1d1d1"
     inkscape:document-units="pt"
     inkscape:zoom="0.51215277"
     inkscape:cx="357.31526"
     inkscape:cy="55.647459"
     inkscape:window-width="1440"
     inkscape:window-height="872"
     inkscape:window-x="0"
     inkscape:window-y="28"
     inkscape:window-maximized="0"
     inkscape:current-layer="figure_1" />
  <metadata
     id="metadata1">
    <rdf:RDF>
      <cc:Work>
        <dc:type
           rdf:resource="http://purl.org/dc/dcmitype/StillImage" />
        <dc:date>2023-09-05T22:50:28.323151</dc:date>
        <dc:format>image/svg+xml</dc:format>
        <dc:creator>
          <cc:Agent>
            <dc:title>Matplotlib v3.7.1, https://matplotlib.org/</dc:title>
          </cc:Agent>
        </dc:creator>
      </cc:Work>
    </rdf:RDF>
  </metadata>
  <defs
     id="defs1">
    <style
       type="text/css"
       id="style1">*{stroke-linejoin: round; stroke-linecap: butt}</style>
    <path
       id="m53a0de508b"
       d="M 0,0 V 7"
       style="stroke:#000000;stroke-width:1.92308" />
    <path
       id="CMR17-31"
       d="m 1702,4058 c 0,134 -6,134 -96,134 -249,-276 -627,-365 -985,-365 -19,0 -51,0 -58,-19 -6,-13 -6,-26 -6,-160 198,0 531,38 787,191 V 461 C 1344,236 1331,160 781,160 H 589 V 0 c 307,0 627,0 934,0 307,0 627,0 935,0 v 160 h -192 c -551,0 -564,70 -564,298 z"
       transform="scale(0.015625)" />
    <path
       id="CMR17-32"
       d="M 2669,989 H 2554 C 2490,536 2438,459 2413,420 2381,369 1920,369 1830,369 H 602 c 230,250 678,703 1222,1228 390,370 845,805 845,1438 0,755 -602,1189 -1274,1189 -704,0 -1133,-620 -1133,-1194 0,-250 186,-282 263,-282 64,0 256,39 256,262 0,197 -167,254 -256,254 -39,0 -77,-6 -103,-19 122,545 493,813 884,813 556,0 921,-441 921,-1023 0,-556 -326,-1035 -691,-1451 L 262,146 V 0 h 2253 z"
       transform="scale(0.015625)" />
    <path
       id="CMR17-33"
       d="m 1414,2157 c 570,0 820,-495 820,-1067 C 2234,320 1824,25 1453,25 1114,25 563,194 390,693 c 32,-13 64,-13 96,-13 154,0 269,102 269,268 0,185 -141,268 -269,268 -108,0 -275,-51 -275,-290 0,-591 576,-1054 1255,-1054 710,0 1254,558 1254,1213 0,622 -512,1072 -1120,1142 486,101 954,529 954,1102 0,491 -506,850 -1082,850 -582,0 -1094,-350 -1094,-850 0,-219 166,-257 249,-257 135,0 250,83 250,249 0,165 -115,248 -250,248 -25,0 -57,0 -83,-12 186,402 691,475 915,475 224,0 647,-107 647,-712 0,-177 -26,-492 -244,-770 -192,-246 -409,-246 -620,-266 -32,0 -180,-15 -205,-15 -45,-6 -71,-12 -71,-61 0,-45 7,-51 135,-51 z"
       transform="scale(0.015625)" />
    <path
       id="CMR17-34"
       d="m 2150,4122 c 0,134 -6,134 -121,134 L 128,1254 V 1088 H 1779 V 457 c 0,-233 -13,-297 -461,-297 H 1197 V 0 c 205,0 550,0 768,0 217,0 563,0 768,0 v 160 h -122 c -448,0 -461,64 -461,297 v 631 h 653 v 166 H 2150 Z M 1798,3703 V 1254 H 256 Z"
       transform="scale(0.015625)" />
    <path
       id="CMR17-35"
       d="m 730,3692 c 64,-26 326,-108 595,-108 595,0 921,327 1107,516 0,57 0,92 -38,92 -7,0 -20,0 -71,-29 -224,-105 -486,-190 -806,-190 -192,0 -480,26 -794,166 -70,32 -83,32 -89,32 -32,0 -39,-7 -39,-134 V 2203 c 0,-114 0,-146 64,-146 32,0 45,13 77,57 205,287 486,408 806,408 224,0 704,-140 704,-1233 0,-204 0,-574 -192,-868 C 1894,159 1645,25 1370,25 947,25 518,320 403,814 c 26,-7 77,-19 103,-19 83,0 243,45 243,243 0,172 -122,242 -243,242 -148,0 -244,-90 -244,-269 0,-557 442,-1139 1120,-1139 660,0 1287,568 1287,1392 0,766 -499,1360 -1120,1360 -327,0 -602,-121 -819,-350 z"
       transform="scale(0.015625)" />
    <path
       id="CMR17-36"
       d="m 678,2176 c 0,1514 717,1856 1133,1856 135,0 461,-23 589,-256 -102,0 -294,0 -294,-223 0,-172 140,-230 230,-230 58,0 230,25 230,237 0,394 -320,619 -761,619 -762,0 -1562,-789 -1562,-2195 0,-1731 723,-2112 1235,-2112 621,0 1210,555 1210,1411 0,798 -518,1379 -1171,1379 -391,0 -679,-255 -839,-702 z M 1478,25 c -787,0 -787,1175 -787,1411 0,460 218,1124 813,1124 109,0 422,0 634,-440 115,-250 115,-511 115,-831 0,-345 0,-599 -135,-855 C 1978,171 1773,25 1478,25 Z"
       transform="scale(0.015625)" />
    <path
       id="CMMI12-74"
       d="m 1286,2566 h 589 c 122,0 186,0 186,115 0,71 -39,71 -167,71 h -563 l 237,940 c 26,89 26,102 26,148 0,103 -84,160 -167,160 -51,0 -198,-19 -249,-225 L 928,2752 H 326 c -128,0 -185,0 -185,-122 0,-64 45,-64 166,-64 H 877 L 454,881 C 403,658 384,594 384,511 384,211 595,-64 954,-64 c 646,0 992,932 992,976 0,39 -26,58 -64,58 -13,0 -39,0 -52,-26 -6,-6 -12,-13 -57,-115 C 1638,511 1344,64 973,64 781,64 768,224 768,364 c 0,6 0,128 19,204 z"
       transform="scale(0.015625)" />
    <path
       id="CMMI12-3b"
       d="M 1248,-31 C 1248,343 1126,619 864,619 659,619 557,453 557,313 557,172 653,0 870,0 c 84,0 154,26 212,83 12,13 19,13 25,13 13,0 13,-91 13,-123 0,-213 -38,-632 -410,-1053 -70,-77 -70,-90 -70,-103 0,-33 32,-65 64,-65 51,0 544,477 544,1217 z"
       transform="scale(0.015625)" />
    <path
       id="SFRM3583-ec"
       d="m 294,2749 v -70 h 90 c 154,0 288,-38 288,-256 V 979 c 0,-109 6,-224 6,-340 C 678,404 659,77 294,77 V 0 h 845 V 77 C 787,77 762,378 762,588 l 6,2040 c 45,-218 179,-460 262,-684 L 1549,620 c 57,-160 121,-312 185,-472 13,-45 32,-141 90,-148 70,0 205,416 275,614 243,595 461,1202 704,1796 32,77 71,160 90,243 l 6,-2313 C 2899,109 2771,77 2611,77 h -89 V 0 h 1004 v 77 h -89 c -160,0 -288,32 -288,256 v 2090 c 0,224 134,256 288,256 h 89 v 70 h -588 l -64,-12 -39,-52 -921,-2359 -871,2238 -83,173 -70,12 z"
       transform="scale(0.015625)" />
    <path
       id="SFRM3583-f1"
       d="m 2221,2092 c -32,7 -64,13 -96,13 -103,0 -179,-89 -179,-185 0,-96 76,-192 185,-192 90,0 179,64 192,160 v 38 c 0,440 -358,893 -883,893 C 717,2819 269,2069 269,1390 269,718 678,32 1363,-32 h 64 c 455,0 813,289 941,720 6,25 13,51 13,77 0,19 -13,25 -26,25 -70,0 -83,-121 -109,-186 C 2131,276 1824,51 1498,51 890,51 595,769 595,1295 c 0,538 115,1442 858,1442 358,0 685,-294 768,-645 z"
       transform="scale(0.015625)" />
    <path
       id="me3e08b888e"
       d="M 0,0 H -7"
       style="stroke:#000000;stroke-width:1.92308" />
    <path
       id="CMSY10-0"
       d="m 4218,1472 c 108,0 224,0 224,128 0,128 -116,128 -224,128 H 755 c -109,0 -224,0 -224,-128 0,-128 115,-128 224,-128 z"
       transform="scale(0.015625)" />
    <path
       id="CMR17-30"
       d="m 2688,2025 c 0,391 -6,1055 -275,1566 -237,448 -615,607 -947,607 -308,0 -698,-140 -941,-601 C 269,3118 243,2524 243,2025 c 0,-364 7,-919 205,-1406 275,-658 768,-747 1018,-747 294,0 742,121 1004,728 192,442 218,959 218,1425 z M 1466,-26 c -410,0 -653,351 -743,838 -70,376 -70,926 -70,1284 0,492 0,901 83,1291 122,542 480,709 730,709 262,0 601,-173 723,-696 83,-364 89,-793 89,-1304 0,-416 0,-927 -76,-1304 C 2067,95 1690,-26 1466,-26 Z"
       transform="scale(0.015625)" />
    <path
       id="CMMI12-69"
       d="m 1811,913 c 0,32 -25,58 -64,58 -57,0 -64,-19 -96,-128 C 1485,262 1222,64 1011,64 934,64 845,83 845,275 c 0,172 77,364 147,555 l 448,1188 c 19,51 64,166 64,287 0,269 -192,511 -506,511 -588,0 -825,-926 -825,-977 0,-25 25,-57 70,-57 58,0 64,25 90,114 153,532 397,786 646,786 58,0 167,0 167,-204 0,-166 -84,-377 -135,-517 L 563,773 C 525,671 486,568 486,453 486,166 685,-64 992,-64 c 589,0 819,933 819,977 z m -51,3100 c 0,96 -77,211 -218,211 -147,0 -313,-141 -313,-307 0,-159 134,-210 211,-210 173,0 320,166 320,306 z"
       transform="scale(0.015625)" />
    <path
       id="SFRM3583-c0"
       d="M 166,141 V 0 H 998 V 141 C 858,141 749,258 749,402 v 32 c 13,107 64,210 102,312 96,249 173,496 269,739 19,51 19,115 102,115 h 1684 c 19,-108 70,-217 108,-318 l 231,-631 c 38,-109 115,-255 115,-351 0,-159 -192,-159 -294,-159 V 0 h 1062 v 141 h -102 c -250,0 -301,103 -372,282 -422,1280 -928,2541 -1369,3814 -26,77 -64,243 -141,243 -96,0 -294,-697 -416,-1030 C 1421,2605 1120,1754 813,909 L 717,640 C 627,410 518,141 166,141 Z m 1044,1600 819,2277 819,-2277 z"
       transform="scale(0.015625)" />
  </defs>
  <g
     id="figure_1"
     transform="translate(37.499999,-129.75)">
    <g
       id="axes_1"
       style="stroke-linecap:butt;stroke-linejoin:round"
       transform="translate(-70.707907,57.226707)">
      <g
         id="patch_2"
         style="stroke-linecap:butt;stroke-linejoin:round">
        <path
           d="M 106.21733,239.65602 H 338.76 V 105.94398 H 106.21733 Z"
           style="fill:#ffffff;stroke-linecap:butt;stroke-linejoin:round"
           id="path2" />
      </g>
      <g
         id="matplotlib.axis_1"
         style="stroke-linecap:butt;stroke-linejoin:round">
        <g
           id="xtick_1"
           style="stroke-linecap:butt;stroke-linejoin:round">
          <g
             id="line2d_1"
             style="stroke-linecap:butt;stroke-linejoin:round">
            <defs
               id="defs2">
              <path
                 id="path33"
                 d="M 0,0 V 7"
                 style="stroke:#000000;stroke-width:1.92308" />
            </defs>
            <g
               id="g2"
               style="stroke-linecap:butt;stroke-linejoin:round">
              <use
                 xlink:href="#m53a0de508b"
                 x="144.97444"
                 y="176.6757"
                 style="stroke:#000000;stroke-width:1.92308;stroke-linecap:butt;stroke-linejoin:round"
                 id="use2" />
            </g>
          </g>
          <g
             id="text_1"
             style="stroke-linecap:butt;stroke-linejoin:round">
            <!-- $\mathdefault{1}$ -->
            <g
               transform="matrix(0.3,0,0,-0.3,138.12087,208.29337)"
               id="g3"
               style="stroke-linecap:butt;stroke-linejoin:round">
              <defs
                 id="defs3">
                <path
                   id="path34"
                   d="m 1702,4058 c 0,134 -6,134 -96,134 -249,-276 -627,-365 -985,-365 -19,0 -51,0 -58,-19 -6,-13 -6,-26 -6,-160 198,0 531,38 787,191 V 461 C 1344,236 1331,160 781,160 H 589 V 0 c 307,0 627,0 934,0 307,0 627,0 935,0 v 160 h -192 c -551,0 -564,70 -564,298 z"
                   transform="scale(0.015625)" />
              </defs>
              <use
                 xlink:href="#CMR17-31"
                 transform="scale(0.996264)"
                 id="use3"
                 style="stroke-linecap:butt;stroke-linejoin:round" />
            </g>
          </g>
        </g>
        <g
           id="xtick_2"
           style="stroke-linecap:butt;stroke-linejoin:round">
          <g
             id="line2d_2"
             style="stroke-linecap:butt;stroke-linejoin:round">
            <g
               id="g4"
               style="stroke-linecap:butt;stroke-linejoin:round">
              <use
                 xlink:href="#m53a0de508b"
                 x="183.73155"
                 y="176.6757"
                 style="stroke:#000000;stroke-width:1.92308;stroke-linecap:butt;stroke-linejoin:round"
                 id="use4" />
            </g>
          </g>
          <g
             id="text_2"
             style="stroke-linecap:butt;stroke-linejoin:round">
            <!-- $\mathdefault{2}$ -->
            <g
               transform="matrix(0.3,0,0,-0.3,176.87798,208.29337)"
               id="g5"
               style="stroke-linecap:butt;stroke-linejoin:round">
              <defs
                 id="defs4">
                <path
                   id="path35"
                   d="M 2669,989 H 2554 C 2490,536 2438,459 2413,420 2381,369 1920,369 1830,369 H 602 c 230,250 678,703 1222,1228 390,370 845,805 845,1438 0,755 -602,1189 -1274,1189 -704,0 -1133,-620 -1133,-1194 0,-250 186,-282 263,-282 64,0 256,39 256,262 0,197 -167,254 -256,254 -39,0 -77,-6 -103,-19 122,545 493,813 884,813 556,0 921,-441 921,-1023 0,-556 -326,-1035 -691,-1451 L 262,146 V 0 h 2253 z"
                   transform="scale(0.015625)" />
              </defs>
              <use
                 xlink:href="#CMR17-32"
                 transform="scale(0.996264)"
                 id="use5"
                 style="stroke-linecap:butt;stroke-linejoin:round" />
            </g>
          </g>
        </g>
        <g
           id="xtick_3"
           style="stroke-linecap:butt;stroke-linejoin:round">
          <g
             id="line2d_3"
             style="stroke-linecap:butt;stroke-linejoin:round">
            <g
               id="g6"
               style="stroke-linecap:butt;stroke-linejoin:round">
              <use
                 xlink:href="#m53a0de508b"
                 x="222.48866"
                 y="176.6757"
                 style="stroke:#000000;stroke-width:1.92308;stroke-linecap:butt;stroke-linejoin:round"
                 id="use6" />
            </g>
          </g>
          <g
             id="text_3"
             style="stroke-linecap:butt;stroke-linejoin:round">
            <!-- $\mathdefault{3}$ -->
            <g
               transform="matrix(0.3,0,0,-0.3,215.63509,208.29337)"
               id="g7"
               style="stroke-linecap:butt;stroke-linejoin:round">
              <defs
                 id="defs6">
                <path
                   id="path36"
                   d="m 1414,2157 c 570,0 820,-495 820,-1067 C 2234,320 1824,25 1453,25 1114,25 563,194 390,693 c 32,-13 64,-13 96,-13 154,0 269,102 269,268 0,185 -141,268 -269,268 -108,0 -275,-51 -275,-290 0,-591 576,-1054 1255,-1054 710,0 1254,558 1254,1213 0,622 -512,1072 -1120,1142 486,101 954,529 954,1102 0,491 -506,850 -1082,850 -582,0 -1094,-350 -1094,-850 0,-219 166,-257 249,-257 135,0 250,83 250,249 0,165 -115,248 -250,248 -25,0 -57,0 -83,-12 186,402 691,475 915,475 224,0 647,-107 647,-712 0,-177 -26,-492 -244,-770 -192,-246 -409,-246 -620,-266 -32,0 -180,-15 -205,-15 -45,-6 -71,-12 -71,-61 0,-45 7,-51 135,-51 z"
                   transform="scale(0.015625)" />
              </defs>
              <use
                 xlink:href="#CMR17-33"
                 transform="scale(0.996264)"
                 id="use7"
                 style="stroke-linecap:butt;stroke-linejoin:round" />
            </g>
          </g>
        </g>
        <g
           id="xtick_4"
           style="stroke-linecap:butt;stroke-linejoin:round">
          <g
             id="line2d_4"
             style="stroke-linecap:butt;stroke-linejoin:round">
            <g
               id="g8"
               style="stroke-linecap:butt;stroke-linejoin:round">
              <use
                 xlink:href="#m53a0de508b"
                 x="261.24579"
                 y="176.6757"
                 style="stroke:#000000;stroke-width:1.92308;stroke-linecap:butt;stroke-linejoin:round"
                 id="use8" />
            </g>
          </g>
          <g
             id="text_4"
             style="stroke-linecap:butt;stroke-linejoin:round">
            <!-- $\mathdefault{4}$ -->
            <g
               transform="matrix(0.3,0,0,-0.3,254.3922,208.29337)"
               id="g9"
               style="stroke-linecap:butt;stroke-linejoin:round">
              <defs
                 id="defs8">
                <path
                   id="path37"
                   d="m 2150,4122 c 0,134 -6,134 -121,134 L 128,1254 V 1088 H 1779 V 457 c 0,-233 -13,-297 -461,-297 H 1197 V 0 c 205,0 550,0 768,0 217,0 563,0 768,0 v 160 h -122 c -448,0 -461,64 -461,297 v 631 h 653 v 166 H 2150 Z M 1798,3703 V 1254 H 256 Z"
                   transform="scale(0.015625)" />
              </defs>
              <use
                 xlink:href="#CMR17-34"
                 transform="scale(0.996264)"
                 id="use9"
                 style="stroke-linecap:butt;stroke-linejoin:round" />
            </g>
          </g>
        </g>
        <g
           id="xtick_5"
           style="stroke-linecap:butt;stroke-linejoin:round">
          <g
             id="line2d_5"
             style="stroke-linecap:butt;stroke-linejoin:round">
            <g
               id="g10"
               style="stroke-linecap:butt;stroke-linejoin:round">
              <use
                 xlink:href="#m53a0de508b"
                 x="300.0029"
                 y="176.6757"
                 style="stroke:#000000;stroke-width:1.92308;stroke-linecap:butt;stroke-linejoin:round"
                 id="use10" />
            </g>
          </g>
          <g
             id="text_5"
             style="stroke-linecap:butt;stroke-linejoin:round">
            <!-- $\mathdefault{5}$ -->
            <g
               transform="matrix(0.3,0,0,-0.3,293.14932,208.29337)"
               id="g11"
               style="stroke-linecap:butt;stroke-linejoin:round">
              <defs
                 id="defs10">
                <path
                   id="path38"
                   d="m 730,3692 c 64,-26 326,-108 595,-108 595,0 921,327 1107,516 0,57 0,92 -38,92 -7,0 -20,0 -71,-29 -224,-105 -486,-190 -806,-190 -192,0 -480,26 -794,166 -70,32 -83,32 -89,32 -32,0 -39,-7 -39,-134 V 2203 c 0,-114 0,-146 64,-146 32,0 45,13 77,57 205,287 486,408 806,408 224,0 704,-140 704,-1233 0,-204 0,-574 -192,-868 C 1894,159 1645,25 1370,25 947,25 518,320 403,814 c 26,-7 77,-19 103,-19 83,0 243,45 243,243 0,172 -122,242 -243,242 -148,0 -244,-90 -244,-269 0,-557 442,-1139 1120,-1139 660,0 1287,568 1287,1392 0,766 -499,1360 -1120,1360 -327,0 -602,-121 -819,-350 z"
                   transform="scale(0.015625)" />
              </defs>
              <use
                 xlink:href="#CMR17-35"
                 transform="scale(0.996264)"
                 id="use11"
                 style="stroke-linecap:butt;stroke-linejoin:round" />
            </g>
          </g>
        </g>
        <g
           id="xtick_6"
           style="stroke-linecap:butt;stroke-linejoin:round">
          <g
             id="line2d_6"
             style="stroke-linecap:butt;stroke-linejoin:round">
            <g
               id="g12"
               style="stroke-linecap:butt;stroke-linejoin:round">
              <use
                 xlink:href="#m53a0de508b"
                 x="338.76001"
                 y="176.6757"
                 style="stroke:#000000;stroke-width:1.92308;stroke-linecap:butt;stroke-linejoin:round"
                 id="use12" />
            </g>
          </g>
          <g
             id="text_6"
             style="stroke-linecap:butt;stroke-linejoin:round">
            <!-- $\mathdefault{6}$ -->
            <g
               transform="matrix(0.3,0,0,-0.3,331.90643,208.29337)"
               id="g13"
               style="stroke-linecap:butt;stroke-linejoin:round">
              <defs
                 id="defs12">
                <path
                   id="path39"
                   d="m 678,2176 c 0,1514 717,1856 1133,1856 135,0 461,-23 589,-256 -102,0 -294,0 -294,-223 0,-172 140,-230 230,-230 58,0 230,25 230,237 0,394 -320,619 -761,619 -762,0 -1562,-789 -1562,-2195 0,-1731 723,-2112 1235,-2112 621,0 1210,555 1210,1411 0,798 -518,1379 -1171,1379 -391,0 -679,-255 -839,-702 z M 1478,25 c -787,0 -787,1175 -787,1411 0,460 218,1124 813,1124 109,0 422,0 634,-440 115,-250 115,-511 115,-831 0,-345 0,-599 -135,-855 C 1978,171 1773,25 1478,25 Z"
                   transform="scale(0.015625)" />
              </defs>
              <use
                 xlink:href="#CMR17-36"
                 transform="scale(0.996264)"
                 id="use13"
                 style="stroke-linecap:butt;stroke-linejoin:round" />
            </g>
          </g>
        </g>
        <g
           id="text_7"
           style="stroke-linecap:butt;stroke-linejoin:round">
          <!-- $t,$ \textrm{мс} -->
          <g
             transform="matrix(0.3,0,0,-0.3,368.04285,208.22458)"
             id="g17"
             style="stroke-linecap:butt;stroke-linejoin:round">
            <defs
               id="defs13">
              <path
                 id="path40"
                 d="m 1286,2566 h 589 c 122,0 186,0 186,115 0,71 -39,71 -167,71 h -563 l 237,940 c 26,89 26,102 26,148 0,103 -84,160 -167,160 -51,0 -198,-19 -249,-225 L 928,2752 H 326 c -128,0 -185,0 -185,-122 0,-64 45,-64 166,-64 H 877 L 454,881 C 403,658 384,594 384,511 384,211 595,-64 954,-64 c 646,0 992,932 992,976 0,39 -26,58 -64,58 -13,0 -39,0 -52,-26 -6,-6 -12,-13 -57,-115 C 1638,511 1344,64 973,64 781,64 768,224 768,364 c 0,6 0,128 19,204 z"
                 transform="scale(0.015625)" />
              <path
                 id="path41"
                 d="M 1248,-31 C 1248,343 1126,619 864,619 659,619 557,453 557,313 557,172 653,0 870,0 c 84,0 154,26 212,83 12,13 19,13 25,13 13,0 13,-91 13,-123 0,-213 -38,-632 -410,-1053 -70,-77 -70,-90 -70,-103 0,-33 32,-65 64,-65 51,0 544,477 544,1217 z"
                 transform="scale(0.015625)" />
              <path
                 id="path42"
                 d="m 294,2749 v -70 h 90 c 154,0 288,-38 288,-256 V 979 c 0,-109 6,-224 6,-340 C 678,404 659,77 294,77 V 0 h 845 V 77 C 787,77 762,378 762,588 l 6,2040 c 45,-218 179,-460 262,-684 L 1549,620 c 57,-160 121,-312 185,-472 13,-45 32,-141 90,-148 70,0 205,416 275,614 243,595 461,1202 704,1796 32,77 71,160 90,243 l 6,-2313 C 2899,109 2771,77 2611,77 h -89 V 0 h 1004 v 77 h -89 c -160,0 -288,32 -288,256 v 2090 c 0,224 134,256 288,256 h 89 v 70 h -588 l -64,-12 -39,-52 -921,-2359 -871,2238 -83,173 -70,12 z"
                 transform="scale(0.015625)" />
              <path
                 id="path43"
                 d="m 2221,2092 c -32,7 -64,13 -96,13 -103,0 -179,-89 -179,-185 0,-96 76,-192 185,-192 90,0 179,64 192,160 v 38 c 0,440 -358,893 -883,893 C 717,2819 269,2069 269,1390 269,718 678,32 1363,-32 h 64 c 455,0 813,289 941,720 6,25 13,51 13,77 0,19 -13,25 -26,25 -70,0 -83,-121 -109,-186 C 2131,276 1824,51 1498,51 890,51 595,769 595,1295 c 0,538 115,1442 858,1442 358,0 685,-294 768,-645 z"
                 transform="scale(0.015625)" />
            </defs>
            <use
               xlink:href="#CMMI12-74"
               transform="scale(0.996264)"
               id="use14"
               style="stroke-linecap:butt;stroke-linejoin:round" />
            <use
               xlink:href="#CMMI12-3b"
               transform="matrix(0.996264,0,0,0.996264,35.22633,0)"
               id="use15"
               style="stroke-linecap:butt;stroke-linejoin:round" />
            <use
               xlink:href="#SFRM3583-ec"
               transform="matrix(0.996264,0,0,0.996264,92.083657,0)"
               id="use16"
               style="stroke-linecap:butt;stroke-linejoin:round" />
            <use
               xlink:href="#SFRM3583-f1"
               transform="matrix(0.996264,0,0,0.996264,151.54219,0)"
               id="use17"
               style="stroke-linecap:butt;stroke-linejoin:round" />
          </g>
        </g>
      </g>
      <g
         id="matplotlib.axis_2"
         style="stroke-linecap:butt;stroke-linejoin:round">
        <g
           id="ytick_1"
           style="stroke-linecap:butt;stroke-linejoin:round">
          <g
             id="line2d_7"
             style="stroke-linecap:butt;stroke-linejoin:round">
            <defs
               id="defs17">
              <path
                 id="path44"
                 d="M 0,0 H -7"
                 style="stroke:#000000;stroke-width:1.92308" />
            </defs>
            <g
               id="g18"
               style="stroke-linecap:butt;stroke-linejoin:round">
              <use
                 xlink:href="#me3e08b888e"
                 x="106.21733"
                 y="234.81139"
                 style="stroke:#000000;stroke-width:1.92308;stroke-linecap:butt;stroke-linejoin:round"
                 id="use18" />
            </g>
          </g>
          <g
             id="text_8"
             style="stroke-linecap:butt;stroke-linejoin:round">
            <!-- $-6$ -->
            <g
               transform="matrix(0.3,0,0,-0.3,58.763955,245.37021)"
               id="g20"
               style="stroke-linecap:butt;stroke-linejoin:round">
              <defs
                 id="defs18">
                <path
                   id="path45"
                   d="m 4218,1472 c 108,0 224,0 224,128 0,128 -116,128 -224,128 H 755 c -109,0 -224,0 -224,-128 0,-128 115,-128 224,-128 z"
                   transform="scale(0.015625)" />
              </defs>
              <use
                 xlink:href="#CMSY10-0"
                 transform="scale(0.996264)"
                 id="use19"
                 style="stroke-linecap:butt;stroke-linejoin:round" />
              <use
                 xlink:href="#CMR17-36"
                 transform="matrix(0.996264,0,0,0.996264,77.487468,0)"
                 id="use20"
                 style="stroke-linecap:butt;stroke-linejoin:round" />
            </g>
          </g>
        </g>
        <g
           id="ytick_2"
           style="stroke-linecap:butt;stroke-linejoin:round">
          <g
             id="line2d_8"
             style="stroke-linecap:butt;stroke-linejoin:round">
            <g
               id="g21"
               style="stroke-linecap:butt;stroke-linejoin:round">
              <use
                 xlink:href="#me3e08b888e"
                 x="106.21733"
                 y="176.6757"
                 style="stroke:#000000;stroke-width:1.92308;stroke-linecap:butt;stroke-linejoin:round"
                 id="use21" />
            </g>
          </g>
          <g
             id="text_9"
             style="stroke-linecap:butt;stroke-linejoin:round">
            <!-- $0$ -->
            <g
               transform="matrix(0.3,0,0,-0.3,82.010186,187.23454)"
               id="g22"
               style="stroke-linecap:butt;stroke-linejoin:round">
              <defs
                 id="defs21">
                <path
                   id="path46"
                   d="m 2688,2025 c 0,391 -6,1055 -275,1566 -237,448 -615,607 -947,607 -308,0 -698,-140 -941,-601 C 269,3118 243,2524 243,2025 c 0,-364 7,-919 205,-1406 275,-658 768,-747 1018,-747 294,0 742,121 1004,728 192,442 218,959 218,1425 z M 1466,-26 c -410,0 -653,351 -743,838 -70,376 -70,926 -70,1284 0,492 0,901 83,1291 122,542 480,709 730,709 262,0 601,-173 723,-696 83,-364 89,-793 89,-1304 0,-416 0,-927 -76,-1304 C 2067,95 1690,-26 1466,-26 Z"
                   transform="scale(0.015625)" />
              </defs>
              <use
                 xlink:href="#CMR17-30"
                 transform="scale(0.996264)"
                 id="use22"
                 style="stroke-linecap:butt;stroke-linejoin:round" />
            </g>
          </g>
        </g>
        <g
           id="ytick_3"
           style="stroke-linecap:butt;stroke-linejoin:round">
          <g
             id="line2d_9"
             style="stroke-linecap:butt;stroke-linejoin:round">
            <g
               id="g23"
               style="stroke-linecap:butt;stroke-linejoin:round">
              <use
                 xlink:href="#me3e08b888e"
                 x="106.21733"
                 y="118.54005"
                 style="stroke:#000000;stroke-width:1.92308;stroke-linecap:butt;stroke-linejoin:round"
                 id="use23" />
            </g>
          </g>
          <g
             id="text_10"
             style="stroke-linecap:butt;stroke-linejoin:round">
            <!-- $6$ -->
            <g
               transform="matrix(0.3,0,0,-0.3,82.010186,129.09887)"
               id="g24"
               style="stroke-linecap:butt;stroke-linejoin:round">
              <use
                 xlink:href="#CMR17-36"
                 transform="scale(0.996264)"
                 id="use24"
                 style="stroke-linecap:butt;stroke-linejoin:round" />
            </g>
          </g>
        </g>
        <g
           id="text_11"
           style="stroke-linecap:butt;stroke-linejoin:round">
          <!-- $i,$ \textrm{мА} -->
          <g
             transform="matrix(0.3,0,0,-0.3,32.4,93.444839)"
             id="g28"
             style="stroke-linecap:butt;stroke-linejoin:round">
            <defs
               id="defs24">
              <path
                 id="path47"
                 d="m 1811,913 c 0,32 -25,58 -64,58 -57,0 -64,-19 -96,-128 C 1485,262 1222,64 1011,64 934,64 845,83 845,275 c 0,172 77,364 147,555 l 448,1188 c 19,51 64,166 64,287 0,269 -192,511 -506,511 -588,0 -825,-926 -825,-977 0,-25 25,-57 70,-57 58,0 64,25 90,114 153,532 397,786 646,786 58,0 167,0 167,-204 0,-166 -84,-377 -135,-517 L 563,773 C 525,671 486,568 486,453 486,166 685,-64 992,-64 c 589,0 819,933 819,977 z m -51,3100 c 0,96 -77,211 -218,211 -147,0 -313,-141 -313,-307 0,-159 134,-210 211,-210 173,0 320,166 320,306 z"
                 transform="scale(0.015625)" />
              <path
                 id="path48"
                 d="M 166,141 V 0 H 998 V 141 C 858,141 749,258 749,402 v 32 c 13,107 64,210 102,312 96,249 173,496 269,739 19,51 19,115 102,115 h 1684 c 19,-108 70,-217 108,-318 l 231,-631 c 38,-109 115,-255 115,-351 0,-159 -192,-159 -294,-159 V 0 h 1062 v 141 h -102 c -250,0 -301,103 -372,282 -422,1280 -928,2541 -1369,3814 -26,77 -64,243 -141,243 -96,0 -294,-697 -416,-1030 C 1421,2605 1120,1754 813,909 L 717,640 C 627,410 518,141 166,141 Z m 1044,1600 819,2277 819,-2277 z"
                 transform="scale(0.015625)" />
            </defs>
            <use
               xlink:href="#CMMI12-69"
               transform="scale(0.996264)"
               id="use25"
               style="stroke-linecap:butt;stroke-linejoin:round" />
            <use
               xlink:href="#CMMI12-3b"
               transform="matrix(0.996264,0,0,0.996264,33.278602,0)"
               id="use26"
               style="stroke-linecap:butt;stroke-linejoin:round" />
            <use
               xlink:href="#SFRM3583-ec"
               transform="matrix(0.996264,0,0,0.996264,90.135928,0)"
               id="use27"
               style="stroke-linecap:butt;stroke-linejoin:round" />
            <use
               xlink:href="#SFRM3583-c0"
               transform="matrix(0.996264,0,0,0.996264,149.59446,0)"
               id="use28"
               style="stroke-linecap:butt;stroke-linejoin:round" />
          </g>
        </g>
      </g>
      <g
         id="line2d_10"
         style="stroke-linecap:butt;stroke-linejoin:round">
        <path
           d="m 106.21733,176.67571 2.34891,-5.52615 2.34892,-5.4761 2.34892,-5.37646 2.34891,-5.22813 2.34892,-5.03246 2.34891,-4.79121 2.34892,-4.50657 2.34892,-4.18112 2.34891,-3.81781 2.34892,-3.41991 2.34891,-2.99104 2.34892,-2.5351 2.34892,-2.05619 2.34891,-1.55866 2.34892,-1.04702 2.34891,-0.52589 h 2.34892 l 2.34891,0.52589 2.34892,1.04702 2.34892,1.55866 2.34891,2.05619 2.34892,2.5351 2.34891,2.99104 2.34892,3.41991 2.34892,3.81781 2.34891,4.18112 2.34892,4.50657 2.34891,4.79121 2.34892,5.03246 2.34891,5.22813 2.34892,5.37646 2.34892,5.4761 2.34891,5.52615 2.34892,5.52615 2.34891,5.4761 2.34892,5.37646 2.34892,5.22814 2.34891,5.03246 2.34892,4.79121 2.34891,4.50657 2.34892,4.18111 2.34892,3.81781 2.34891,3.41991 2.34892,2.99105 2.34891,2.53509 2.34892,2.05619 2.34891,1.55867 2.34892,1.04701 2.34892,0.52589 h 2.34891 l 2.34892,-0.52589 2.34891,-1.04701 2.34892,-1.55867 2.34892,-2.05619 2.34891,-2.53509 2.34892,-2.99105 2.34891,-3.41991 2.34892,-3.81781 2.34892,-4.18111 2.34891,-4.50657 2.34892,-4.79121 2.34891,-5.03246 2.34892,-5.22814 2.34892,-5.37646 2.34891,-5.4761 2.34892,-5.52615 2.34891,-5.52615 2.34892,-5.4761 2.34891,-5.37646 2.34892,-5.22813 2.34892,-5.03246 2.34891,-4.79121 2.34892,-4.50657 2.34891,-4.18112 2.34892,-3.81781 2.34891,-3.41991 2.34892,-2.99104 2.34892,-2.5351 2.34891,-2.05619 2.34892,-1.55866 2.34891,-1.04702 2.34892,-0.52589 h 2.34892 l 2.34891,0.52589 2.34892,1.04702 2.34891,1.55866 2.34892,2.05619 2.34891,2.5351 2.34892,2.99104 2.34892,3.41991 2.34891,3.81781 2.34892,4.18112 2.34891,4.50657 2.34892,4.79121 2.34892,5.03246 2.34891,5.22813 2.34892,5.37646 2.34891,5.4761 2.34892,5.52615"
           style="fill:none;stroke:#000000;stroke-width:2.5;stroke-linecap:square;stroke-linejoin:round"
           id="path28" />
      </g>
      <g
         id="patch_3"
         style="stroke-linecap:butt;stroke-linejoin:round">
        <path
           d="m 108.21422,176.67571 q 127.0642,0 251.58554,0"
           style="fill:none;stroke:#000000;stroke-width:1.78571;stroke-linecap:round;stroke-linejoin:round"
           id="path29" />
        <path
           d="m 349.79976,172.92571 10,3.75 -10,3.75 z"
           style="stroke:#000000;stroke-width:1.78571;stroke-linecap:round;stroke-linejoin:round"
           id="path30" />
      </g>
      <g
         id="patch_4"
         style="stroke-linecap:butt;stroke-linejoin:round">
        <path
           d="m 106.21733,237.65854 q 0,-72.21274 0,-141.882617"
           style="fill:none;stroke:#000000;stroke-width:1.78571;stroke-linecap:round;stroke-linejoin:round"
           id="path31" />
        <path
           d="m 102.46733,105.77592 3.75,-9.999997 3.75,9.999997 z"
           style="stroke:#000000;stroke-width:1.78571;stroke-linecap:round;stroke-linejoin:round"
           id="path32" />
      </g>
    </g>
  </g>
</svg>
