<svg xmlns="http://www.w3.org/2000/svg" version="1.0" width="1272.099538pt" height="1198.486404pt" viewBox="0 0 1272.099538 1198.486404" preserveAspectRatio="xMidYMid meet">
<metadata>
Created by potrace 1.16, written by Peter Selinger 2001-2019
</metadata>
<g transform="translate(-53.406814,1260.986404) scale(0.100000,-0.100000)" fill="#000000" stroke="none">
<path d="M797 12568 c-14 -24 -31 -56 -38 -73 -14 -30 -14 -30 -109 -33 -115 -3 -127 -6 -109 -28 11 -14 27 -15 102 -10 l89 7 -7 -28 c-3 -15 -7 -29 -8 -30 -1 0 -33 -7 -71 -15 -40 -8 -71 -19 -74 -27 -4 -11 6 -13 51 -8 30 4 62 9 70 13 12 4 13 -2 7 -35 -8 -46 1 -67 25 -58 9 4 14 11 10 17 -3 5 -1 28 5 50 11 40 11 40 60 40 l49 0 -14 -47 c-19 -61 -19 -65 2 -61 11 2 23 22 33 58 15 51 18 55 48 58 40 4 42 22 3 22 -29 0 -29 0 -19 40 8 29 16 40 29 40 11 0 19 5 19 10 0 6 -6 10 -14 10 -11 0 -13 10 -9 39 3 24 1 41 -7 46 -17 11 -32 -9 -35 -45 -3 -38 -1 -36 -48 -43 -36 -6 -38 -5 -31 16 4 12 18 38 31 59 14 20 22 42 18 47 -13 22 -35 10 -58 -31z m67 -145 c-10 -42 -12 -43 -59 -43 -44 0 -44 0 -34 29 10 29 25 37 77 40 20 1 22 -2 16 -26z"/>
<path d="M1185 12523 c-53 -11 -105 -36 -105 -50 0 -17 2 -16 100 11 30 9 57 13 62 8 4 -4 -5 -33 -19 -66 l-27 -58 -48 5 c-38 5 -50 3 -55 -9 -8 -22 3 -28 42 -26 19 2 35 0 35 -3 0 -3 -9 -23 -20 -44 -10 -21 -16 -41 -13 -45 16 -16 35 -2 58 44 25 50 25 50 75 50 60 0 66 17 10 26 -22 4 -40 8 -40 11 0 2 11 26 25 53 29 58 30 64 9 84 -15 15 -46 19 -89 9z"/>
<path d="M1459 12500 c-81 -14 -111 -45 -85 -86 12 -18 28 -24 81 -29 76 -8 81 -19 30 -64 -45 -39 -84 -50 -97 -27 -11 19 -44 21 -51 4 -8 -22 12 -46 43 -53 66 -15 189 77 178 132 -5 25 -46 43 -100 43 -35 0 -48 4 -48 14 0 21 55 35 142 37 70 2 110 11 98 23 -10 9 -147 14 -191 6z"/>
<path d="M1707 12457 c-8 -21 1 -27 44 -27 20 0 44 -3 53 -6 24 -9 19 -33 -9 -44 -39 -15 -30 -37 25 -61 97 -42 90 -75 -16 -73 -48 1 -64 -2 -64 -12 0 -35 147 -31 183 4 21 22 21 22 1 49 -12 16 -36 37 -55 48 -34 19 -34 21 -16 38 38 38 -6 84 -89 93 -40 5 -52 3 -57 -9z"/>
<path d="M636 12172 c-3 -6 -3 -13 1 -15 22 -13 1078 -52 1395 -52 42 0 68 9 57 19 -2 2 -186 9 -409 15 -448 12 -895 29 -981 38 -34 3 -59 1 -63 -5z"/>
<path d="M11927 12123 c-4 -3 -7 -11 -7 -17 0 -6 5 -5 12 2 6 6 9 14 7 17 -3 3 -9 2 -12 -2z"/>
<path d="M11641 12075 c-36 -39 -51 -65 -37 -65 8 0 88 101 84 106 -3 2 -24 -16 -47 -41z"/>
<path d="M11818 12043 c-42 -30 -60 -53 -43 -53 10 0 105 74 105 82 0 14 -14 8 -62 -29z"/>
<path d="M11518 11934 c-21 -25 -38 -51 -38 -57 0 -12 89 82 90 96 0 16 -17 3 -52 -39z"/>
<path d="M11670 11934 c-42 -33 -60 -54 -46 -54 11 0 106 74 106 82 0 14 -14 8 -60 -28z"/>
<path d="M2980 11911 c0 -15 7 -19 33 -19 71 0 171 -77 183 -140 11 -60 -23 -108 -122 -168 -24 -15 -12 -28 19 -20 46 11 114 73 133 121 22 60 9 108 -47 163 -64 65 -199 107 -199 63z"/>
<path d="M11529 11828 c-45 -33 -61 -49 -54 -56 6 -6 105 68 105 79 0 13 -1 12 -51 -23z"/>
<path d="M11398 11795 c-54 -62 -47 -80 7 -20 24 28 44 53 45 58 0 16 -17 4 -52 -38z"/>
<path d="M2967 11813 c-10 -9 -8 -176 2 -192 5 -7 14 -12 21 -9 9 3 16 111 11 196 -1 13 -23 17 -34 5z"/>
<path d="M3834 11801 c-68 -41 -108 -186 -64 -226 28 -25 106 -31 154 -11 27 11 43 13 56 6 70 -38 202 22 186 84 -12 50 -128 57 -166 10 -7 -7 -18 -14 -25 -14 -7 0 -15 -9 -18 -20 -10 -37 -104 -63 -148 -40 -37 20 -19 110 34 168 23 25 37 28 37 8 0 -16 27 -29 41 -20 17 10 9 43 -13 58 -29 20 -36 20 -74 -3z m293 -158 c6 -17 -57 -54 -87 -51 -19 2 -24 8 -22 23 2 11 11 26 20 33 20 16 84 12 89 -5z"/>
<path d="M4320 11807 c-62 -17 -64 -39 -4 -76 l46 -30 -46 -12 c-57 -14 -84 -46 -66 -79 35 -65 230 -48 238 21 4 31 -33 66 -109 105 -27 13 -49 28 -49 33 0 13 80 21 199 21 l106 0 -27 -23 c-34 -29 -48 -58 -48 -101 0 -43 29 -76 65 -76 28 0 99 33 110 50 4 6 18 1 37 -15 21 -18 41 -25 70 -25 48 0 49 23 0 28 -38 4 -49 17 -54 62 -2 27 -8 36 -25 38 -15 2 -23 -2 -23 -11 0 -42 -88 -104 -122 -86 -28 15 -23 63 12 102 32 37 37 56 18 75 -16 16 -266 15 -328 -1z m125 -173 c0 -37 -138 -44 -152 -8 -8 20 -2 24 59 38 59 15 93 4 93 -30z"/>
<path d="M11377 11715 c-30 -23 -47 -30 -50 -22 -2 7 -24 -10 -51 -40 -27 -29 -54 -53 -61 -53 -14 0 -45 -42 -45 -63 0 -7 -11 -24 -25 -37 -14 -13 -25 -31 -25 -39 1 -13 4 -12 17 4 15 19 15 19 8 -10 -3 -16 -24 -68 -46 -114 -21 -46 -35 -88 -31 -95 4 -6 7 -22 7 -36 0 -24 3 -25 72 -28 70 -3 72 -4 75 -30 4 -34 30 -36 39 -2 4 14 7 -470 6 -1075 0 -605 -3 -1066 -6 -1025 -5 57 -10 75 -21 75 -12 0 -16 -16 -18 -72 l-3 -73 -468 0 c-440 0 -469 1 -467 18 2 27 -54 30 -61 3 -5 -21 -6 -21 -620 -21 l-615 0 32 36 c17 20 28 39 25 42 -3 4 -22 -11 -40 -33 l-34 -40 2 450 2 450 169 3 c130 2 173 -1 185 -11 20 -17 139 -49 152 -42 14 9 0 25 -35 41 -28 12 -15 13 127 14 86 0 157 -3 157 -8 0 -4 -11 -24 -25 -44 -27 -39 -31 -53 -15 -43 15 9 13 4 -21 -70 -18 -38 -28 -70 -23 -75 5 -5 29 -10 54 -12 l45 -3 0 -310 c0 -170 1 -316 3 -322 3 -19 39 -16 46 3 3 9 3 153 -1 320 l-6 304 35 0 c48 0 64 20 45 57 -8 15 -27 75 -42 131 l-27 104 34 36 c50 54 62 72 49 72 -6 0 -28 -22 -48 -48 l-38 -48 -180 -2 c-163 -2 -178 -1 -161 13 11 8 23 15 28 15 4 0 8 9 8 20 0 29 -23 25 -91 -15 l-60 -35 -167 0 -167 0 40 35 c49 42 33 46 -21 5 -21 -16 -42 -30 -46 -30 -5 0 -8 189 -8 420 l0 420 29 -32 c43 -48 51 -16 14 52 -61 114 -53 107 -96 91 -30 -12 -91 -128 -81 -154 11 -28 42 -19 69 20 l25 38 0 -446 0 -445 -257 -187 c-141 -103 -259 -184 -262 -181 -3 2 3 20 14 40 14 27 16 37 6 47 -20 20 -43 -4 -91 -96 l-45 -86 -294 -215 c-255 -185 -297 -212 -307 -199 -17 25 -47 9 -42 -22 l5 -25 -1268 0 c-1262 0 -1269 0 -1269 -20 0 -20 8 -20 1241 -22 l1240 -3 -388 -282 c-213 -155 -538 -391 -722 -525 -184 -134 -336 -248 -338 -254 -2 -6 3 -14 11 -17 15 -6 93 49 1081 770 l410 299 6 -38 c10 -68 39 -63 39 8 l0 44 607 0 606 0 -20 -22 c-11 -13 -154 -178 -318 -368 -164 -190 -316 -365 -338 -389 l-40 -44 7 34 c21 98 21 101 -4 97 -19 -2 -26 -13 -36 -53 -7 -27 -16 -72 -19 -98 -5 -53 62 28 -739 -890 -120 -137 -215 -254 -213 -260 10 -32 50 4 219 199 101 116 314 362 473 546 160 185 310 348 335 366 52 36 127 71 153 72 9 0 17 5 17 10 0 18 -30 23 -68 12 -20 -6 -37 -10 -39 -8 -2 2 48 61 110 132 62 71 209 238 325 372 l212 243 0 -897 0 -898 -28 27 c-48 47 -93 23 -49 -26 89 -98 99 -107 122 -107 18 0 30 10 44 39 11 21 37 52 58 69 45 36 38 50 -17 33 -27 -8 -48 -23 -65 -49 l-25 -37 0 948 0 947 623 0 623 0 12 -45 c16 -62 42 -62 42 0 l0 45 1308 2 c1154 3 1307 5 1307 18 0 13 -95 15 -787 18 l-788 2 0 1095 0 1095 33 0 c91 0 140 25 104 53 -9 7 -29 59 -46 117 -16 58 -47 144 -70 191 -47 98 -49 109 -21 134 12 11 20 14 20 6 0 -12 80 40 102 66 20 25 -9 13 -55 -22z m-110 -432 c-1 -43 -3 -8 -3 77 0 85 2 120 3 78 2 -43 2 -113 0 -155z m-47 55 l0 -123 -49 3 -49 4 28 81 c26 78 60 157 67 157 2 0 3 -55 3 -122z m139 -9 c17 -59 31 -109 31 -112 0 -9 -40 -15 -60 -10 -19 5 -20 14 -20 132 0 77 4 120 9 111 5 -8 23 -63 40 -121z m-2432 -2346 c-2 -2 -271 -2 -598 -1 l-594 3 306 221 305 222 53 -10 c70 -12 92 4 36 27 -21 9 -34 20 -29 25 5 5 124 92 264 194 l255 185 3 -431 c1 -237 1 -433 -1 -435z m813 737 c0 -33 -3 -40 -19 -40 -19 0 -19 1 -3 40 9 22 18 40 20 40 1 0 2 -18 2 -40z m80 -37 c0 -7 -4 -13 -10 -13 -5 0 -10 12 -10 28 0 21 2 24 10 12 5 -8 10 -21 10 -27z"/>
<path d="M9094 11730 c-28 -11 -60 -53 -74 -95 -10 -31 -17 -35 -106 -64 -53 -17 -100 -28 -105 -25 -5 3 -12 19 -17 37 -8 29 -5 54 13 115 12 39 -23 26 -85 -31 -31 -29 -72 -60 -91 -70 -32 -15 -34 -15 -38 1 -4 18 27 82 41 82 4 0 8 7 8 15 0 22 -26 18 -68 -10 -64 -44 -222 -83 -222 -56 0 6 10 26 21 46 16 26 19 39 11 47 -18 18 -42 0 -62 -46 -23 -54 -109 -117 -162 -119 -29 -2 -33 1 -36 26 -2 16 2 34 8 42 7 8 9 19 5 25 -11 17 -32 11 -49 -15 -21 -32 -100 -77 -128 -73 -21 3 -23 8 -20 51 4 57 -18 65 -43 17 -30 -59 -123 -92 -144 -52 -6 12 -4 29 10 57 24 53 24 65 -5 65 -23 0 -30 -10 -50 -72 -7 -23 -100 -75 -149 -83 -29 -5 -43 -3 -57 10 -21 19 -54 13 -48 -8 15 -45 110 -45 197 1 57 30 57 30 67 8 15 -35 71 -43 128 -17 42 18 49 19 63 6 21 -21 92 -19 130 4 31 20 31 20 47 -5 13 -19 25 -24 57 -24 39 0 107 28 142 58 15 14 17 14 17 -1 0 -19 46 -24 52 -7 2 6 28 14 58 19 30 5 72 17 92 25 21 9 39 16 42 16 3 0 6 -17 8 -37 3 -37 4 -38 44 -37 31 0 55 10 91 36 l50 36 15 -52 c13 -40 14 -53 4 -58 -7 -4 -24 -16 -37 -27 -19 -15 -21 -22 -12 -32 9 -9 15 -8 28 5 41 41 56 41 93 1 22 -24 31 -40 24 -47 -16 -16 -91 -12 -111 6 -21 20 -31 20 -31 3 0 -30 38 -50 94 -49 99 1 121 33 65 97 -18 20 -30 37 -28 39 13 11 199 66 224 66 17 0 36 4 44 9 10 6 20 1 35 -16 17 -20 34 -27 77 -30 60 -6 59 7 -2 26 -26 8 -41 21 -49 41 -8 19 -20 30 -33 30 -18 0 -19 2 -5 18 24 28 28 50 12 67 -17 17 -20 17 -50 5z"/>
<path d="M4973 11700 c-58 -28 -67 -60 -50 -179 14 -90 26 -119 45 -108 5 4 7 52 4 111 -4 86 -2 110 11 130 30 45 117 42 117 -4 0 -15 -9 -21 -40 -26 -49 -8 -67 -26 -44 -45 13 -11 23 -10 62 4 45 16 47 16 69 -5 17 -16 30 -19 60 -14 21 3 65 7 98 8 44 2 69 9 93 26 l32 23 0 -45 c0 -39 3 -46 19 -46 14 0 21 8 23 27 3 24 9 28 63 39 33 7 68 15 78 19 14 6 17 2 17 -23 0 -62 96 -84 175 -39 96 54 70 139 -42 138 -89 -1 -98 -3 -113 -17 -23 -20 -97 -44 -137 -44 -32 0 -35 2 -29 24 4 15 0 28 -10 36 -13 11 -22 7 -57 -27 -72 -69 -111 -80 -128 -36 -13 34 -64 83 -87 83 -10 0 -28 -7 -40 -16 -21 -14 -24 -14 -48 5 -34 26 -86 27 -141 1z m247 -44 c0 -13 -39 -30 -48 -21 -8 7 20 35 34 35 8 0 14 -6 14 -14z m588 -8 c24 -24 13 -48 -30 -68 -55 -25 -75 -25 -88 0 -12 23 0 53 28 69 24 14 75 14 90 -1z m-588 -48 c-20 -13 -43 -13 -35 0 3 6 16 10 28 10 18 0 19 -2 7 -10z"/>
<path d="M6906 11698 c-9 -12 -16 -33 -16 -46 0 -30 -75 -65 -140 -66 -42 -1 -45 1 -48 27 -4 33 -23 35 -77 7 -55 -28 -87 -26 -102 7 -7 15 -13 34 -13 43 0 25 -21 40 -57 40 -43 0 -75 -47 -71 -103 3 -32 0 -39 -19 -43 -13 -4 -23 -13 -23 -21 0 -11 6 -13 23 -8 12 4 42 10 67 12 25 3 50 9 56 14 5 4 26 6 45 3 19 -3 53 1 77 9 42 15 44 14 68 -10 22 -21 32 -25 68 -21 24 3 69 17 100 31 51 24 60 25 79 13 32 -20 98 -29 161 -21 75 10 71 25 -6 25 -67 0 -138 15 -138 29 0 5 7 14 16 21 8 8 20 22 25 32 23 44 -46 67 -75 26z m-436 -36 c0 -21 -27 -62 -42 -62 -12 0 -2 48 14 67 15 18 28 16 28 -5z"/>
<path d="M5954 11697 c-21 -57 31 -131 78 -110 16 7 33 6 61 -5 31 -13 47 -14 80 -4 32 8 43 8 46 -1 2 -7 23 -31 47 -54 24 -24 44 -45 44 -47 0 -3 -21 -8 -47 -12 -38 -5 -49 -4 -59 11 -14 18 -34 13 -34 -10 0 -33 93 -47 159 -24 44 15 41 46 -8 83 -59 43 -69 68 -45 111 16 31 17 37 5 45 -19 11 -52 -6 -58 -30 -6 -24 -52 -42 -94 -38 -28 2 -36 9 -44 35 -6 18 -14 35 -18 39 -10 10 -37 -16 -37 -37 0 -24 -20 -35 -31 -18 -14 22 -10 49 7 49 26 0 9 25 -19 28 -17 2 -29 -2 -33 -11z"/>
<path d="M9527 11574 c-11 -12 3 -24 29 -24 15 0 24 6 24 15 0 15 -40 21 -53 9z"/>
<path d="M11078 11494 c-27 -20 -48 -40 -48 -45 0 -11 9 -6 68 36 39 28 52 45 35 45 -5 0 -29 -17 -55 -36z"/>
<path d="M10926 11383 c-27 -21 -44 -39 -38 -41 13 -4 102 57 102 70 0 14 -14 8 -64 -29z"/>
<path d="M11035 11374 c-45 -55 -40 -71 7 -19 40 46 52 65 40 65 -5 0 -26 -20 -47 -46z"/>
<path d="M10783 11277 c-23 -18 -42 -38 -43 -45 0 -7 25 6 55 29 30 23 55 43 55 45 0 12 -30 -1 -67 -29z"/>
<path d="M10916 11236 c-20 -23 -36 -47 -36 -51 0 -11 47 33 72 68 31 44 3 31 -36 -17z"/>
<path d="M10639 11169 c-56 -40 -53 -38 -46 -45 6 -6 92 49 102 66 12 19 -12 10 -56 -21z"/>
<path d="M10796 11096 c-37 -45 -48 -68 -21 -46 28 23 77 90 67 90 -6 0 -27 -20 -46 -44z"/>
<path d="M10492 11058 c-30 -22 -51 -42 -48 -45 6 -7 79 41 97 63 24 30 2 21 -49 -18z"/>
<path d="M10681 10964 c-40 -46 -56 -79 -26 -54 26 21 78 91 72 96 -2 3 -23 -16 -46 -42z"/>
<path d="M10342 10949 c-29 -23 -51 -43 -48 -46 8 -9 105 60 106 75 0 16 2 17 -58 -29z"/>
<path d="M11225 10948 c-3 -7 -4 -108 -3 -223 3 -179 5 -210 18 -210 13 0 15 31 15 219 0 167 -3 220 -12 223 -7 3 -15 -1 -18 -9z"/>
<path d="M12895 10933 c-11 -2 -72 -9 -135 -16 -147 -16 -155 -30 -46 -82 85 -40 113 -75 97 -118 -12 -31 -48 -57 -78 -57 -28 0 -30 25 -7 58 18 26 12 52 -10 52 -20 0 -46 -51 -46 -89 0 -67 90 -79 149 -21 63 63 46 131 -47 186 l-52 31 53 7 c28 3 73 9 100 12 l47 7 0 -45 c0 -24 -7 -98 -15 -163 -8 -66 -15 -148 -15 -182 0 -57 2 -63 21 -63 29 0 43 42 68 196 23 150 34 186 54 178 22 -8 47 -60 47 -96 0 -39 -15 -58 -46 -58 -29 0 -38 -14 -19 -30 17 -14 52 -5 83 23 15 14 22 32 22 59 0 117 -99 185 -142 98 l-18 -35 0 67 c0 56 -3 69 -19 78 -11 5 -21 9 -23 9 -2 -1 -12 -3 -23 -6z m62 -185 c-3 -7 -5 -2 -5 12 0 14 2 19 5 13 2 -7 2 -19 0 -25z"/>
<path d="M10200 10843 c-43 -33 -60 -53 -45 -53 4 0 26 14 49 32 22 17 43 33 45 34 1 2 1 7 0 12 -2 5 -24 -6 -49 -25z"/>
<path d="M10561 10825 c-36 -39 -51 -65 -37 -65 8 0 88 101 84 106 -3 2 -24 -16 -47 -41z"/>
<path d="M12182 10793 c-6 -2 -31 -36 -53 -75 -46 -79 -60 -79 -69 0 -8 69 -34 65 -65 -12 -13 -33 -31 -66 -39 -74 -22 -22 -44 -7 -51 35 -10 56 -13 63 -30 63 -23 0 -28 -22 -15 -69 23 -88 78 -105 131 -42 l33 38 21 -25 c35 -40 66 -25 114 55 39 65 40 66 46 37 18 -84 29 -115 51 -135 13 -12 24 -31 24 -42 0 -28 41 -96 62 -103 43 -13 48 13 13 81 -23 47 -23 50 -7 68 29 33 51 40 68 22 18 -18 85 -20 117 -4 37 19 57 52 57 96 0 68 -44 88 -127 57 -32 -13 -45 -24 -57 -53 -8 -21 -35 -54 -61 -75 -44 -37 -47 -37 -60 -20 -16 21 -35 79 -35 107 0 31 -31 78 -50 76 -3 0 -11 -3 -18 -6z m366 -89 c2 -25 -3 -37 -24 -53 -35 -28 -78 -25 -82 5 -3 18 1 21 22 17 27 -6 34 5 15 24 -15 15 18 45 45 41 15 -2 22 -11 24 -34z"/>
<path d="M10050 10734 c-42 -33 -60 -54 -46 -54 11 0 106 74 106 82 0 14 -14 8 -60 -28z"/>
<path d="M10438 10684 c-21 -25 -38 -51 -38 -57 0 -12 89 82 90 96 0 16 -17 3 -52 -39z"/>
<path d="M9904 10623 c-27 -20 -51 -38 -53 -40 -2 -2 -2 -6 2 -9 7 -8 107 64 107 77 0 14 -3 12 -56 -28z"/>
<path d="M13201 10641 c-19 -12 -5 -31 23 -31 29 0 39 10 25 27 -13 15 -28 16 -48 4z"/>
<path d="M10318 10545 c-54 -62 -47 -80 7 -20 24 28 44 53 45 58 1 16 -17 4 -52 -38z"/>
<path d="M9750 10509 c-28 -22 -49 -43 -46 -46 7 -7 106 66 106 78 0 14 -5 12 -60 -32z"/>
<path d="M10197 10406 c-52 -63 -46 -81 8 -21 24 28 44 53 45 58 1 17 -18 4 -53 -37z"/>
<path d="M9608 10404 c-27 -20 -48 -40 -48 -45 0 -14 28 3 75 45 52 46 34 46 -27 0z"/>
<path d="M11705 10350 c-100 -32 -126 -35 -142 -19 -16 16 -43 4 -43 -20 0 -21 18 -31 56 -31 35 0 274 79 274 91 0 16 -52 9 -145 -21z"/>
<path d="M11222 10123 c3 -186 5 -218 18 -218 13 0 15 32 18 218 2 213 2 217 -18 217 -20 0 -20 -4 -18 -217z"/>
<path d="M9458 10294 c-27 -20 -48 -40 -48 -45 0 -11 9 -6 68 36 39 28 52 45 35 45 -5 0 -29 -17 -55 -36z"/>
<path d="M10077 10266 c-20 -25 -37 -50 -37 -57 0 -12 65 57 83 88 18 30 -11 10 -46 -31z"/>
<path d="M9310 10184 c-42 -33 -60 -54 -46 -54 11 0 106 74 106 82 0 14 -14 8 -60 -28z"/>
<path d="M9956 10126 c-52 -64 -45 -76 9 -16 25 28 45 53 45 55 0 16 -22 -1 -54 -39z"/>
<path d="M9163 10077 c-23 -18 -42 -38 -43 -45 0 -7 23 4 50 25 46 34 62 54 43 52 -5 0 -27 -15 -50 -32z"/>
<path d="M9601 9714 c-36 -41 -49 -64 -37 -64 9 0 88 101 83 106 -2 3 -23 -16 -46 -42z"/>
<path d="M11225 9728 c-3 -7 -4 -108 -3 -223 3 -179 5 -210 18 -210 13 0 15 31 15 219 0 167 -3 220 -12 223 -7 3 -15 -1 -18 -9z"/>
<path d="M9478 9574 c-21 -25 -38 -51 -38 -57 1 -13 89 82 90 96 0 16 -17 3 -52 -39z"/>
<path d="M10387 9481 c-27 -11 -54 -24 -61 -30 -29 -24 -27 -274 2 -303 8 -8 15 -8 28 3 12 10 15 23 10 57 -6 43 -6 43 37 62 23 10 70 27 104 37 64 18 76 29 47 40 -13 5 -122 -21 -178 -43 -13 -5 -16 4 -16 54 0 60 0 60 45 82 24 12 55 20 67 18 17 -2 23 2 23 17 0 28 -46 30 -108 6z"/>
<path d="M9358 9435 c-21 -23 -38 -48 -38 -56 0 -14 89 79 90 94 0 15 -16 3 -52 -38z"/>
<path d="M9238 9295 c-54 -62 -47 -80 7 -20 24 28 44 53 45 58 1 16 -17 4 -52 -38z"/>
<path d="M9117 9156 c-52 -63 -46 -81 8 -21 24 28 44 53 45 58 1 17 -18 4 -53 -37z"/>
<path d="M9959 8593 c-5 -15 -15 -50 -21 -78 -12 -59 -27 -83 -39 -63 -7 10 -19 7 -58 -14 -80 -45 -85 -42 -77 52 6 74 5 80 -12 80 -10 0 -24 -11 -30 -25 -14 -29 -100 -125 -113 -125 -14 0 -11 51 6 105 8 27 12 52 9 57 -12 20 -34 4 -55 -39 -27 -55 -147 -183 -172 -183 -13 0 -17 9 -17 40 0 34 -3 40 -20 40 -26 0 -34 -21 -26 -65 15 -77 83 -70 169 17 33 32 57 52 53 43 -10 -27 12 -55 43 -55 19 0 43 13 75 43 l46 43 0 -31 c0 -17 5 -36 12 -43 19 -19 68 -14 114 13 l43 26 7 -26 c7 -28 41 -35 50 -10 3 8 30 28 60 44 l54 29 0 -32 c0 -18 5 -37 12 -44 17 -17 59 -15 87 4 22 16 24 16 33 0 15 -27 62 -19 112 19 l46 35 0 -45 c0 -40 3 -47 26 -56 31 -11 57 -5 98 24 21 15 31 17 34 9 5 -17 64 -15 92 4 14 10 41 32 61 51 l35 33 0 -47 c-1 -38 3 -48 17 -51 32 -6 61 6 105 43 l42 37 0 -30 c0 -16 10 -41 21 -56 19 -24 28 -27 70 -25 27 2 52 0 55 -4 15 -15 77 -6 123 18 118 59 123 160 9 172 -57 6 -107 -26 -128 -85 -20 -54 -31 -64 -66 -60 -28 3 -29 5 -27 53 0 28 4 65 8 83 11 47 -11 42 -70 -19 -50 -50 -112 -95 -120 -87 -3 3 2 28 11 57 27 94 7 103 -69 33 -62 -57 -106 -92 -118 -92 -5 0 -9 16 -9 35 0 46 -20 46 -54 0 -26 -33 -72 -65 -96 -65 -17 0 -11 62 10 109 24 52 24 60 5 67 -9 4 -34 -15 -69 -53 -30 -32 -68 -66 -85 -76 -31 -18 -31 -18 -31 10 0 15 10 47 22 70 18 33 20 45 11 54 -17 17 -41 -5 -64 -57 -15 -37 -73 -94 -94 -94 -12 0 3 89 20 113 37 53 -8 67 -47 15 -14 -18 -44 -44 -68 -57 l-42 -23 7 33 c4 19 14 49 21 68 19 46 18 61 -6 61 -13 0 -24 -10 -31 -27z m1215 -125 c8 -13 6 -22 -9 -38 -20 -22 -86 -60 -104 -60 -16 0 -4 80 15 101 22 24 82 23 98 -3z"/>
<path d="M11354 8521 c-28 -17 -64 -73 -64 -99 0 -6 -9 -14 -21 -17 -25 -8 -21 -38 6 -44 11 -2 24 -10 30 -18 19 -26 94 -27 157 -3 54 20 76 35 66 46 -3 2 -24 -3 -48 -11 -47 -16 -136 -20 -144 -6 -3 5 4 11 17 15 32 8 97 65 108 95 9 21 7 29 -11 43 -28 23 -57 23 -96 -1z m64 -38 c-3 -17 -62 -63 -80 -63 -10 0 7 37 30 63 20 23 55 23 50 0z"/>
<path d="M9930 8039 c-14 -6 -37 -21 -51 -35 -22 -21 -27 -23 -32 -10 -10 26 -33 18 -67 -21 -35 -42 -140 -133 -152 -133 -5 0 -8 21 -8 46 0 25 -5 54 -10 65 -13 23 -47 25 -77 4 -21 -14 -22 -14 -25 12 -2 20 -9 28 -22 28 -17 0 -22 -12 -33 -85 -6 -47 -12 -88 -13 -92 0 -5 9 -8 20 -8 12 0 28 16 45 44 14 23 33 51 44 60 17 16 18 14 24 -41 11 -105 45 -104 159 5 89 85 90 85 63 -55 -8 -43 -15 -102 -15 -131 0 -46 3 -53 18 -50 14 3 20 25 34 123 18 126 36 181 72 214 31 29 71 42 85 28 20 -20 13 -72 -14 -101 -23 -24 -29 -28 -64 -30 -21 -2 -25 -25 -7 -32 28 -11 69 6 103 42 27 29 33 43 33 80 0 71 -43 99 -110 73z"/>
<path d="M10162 7998 c-18 -18 -15 -34 17 -70 15 -18 33 -43 40 -55 10 -20 7 -25 -26 -48 -45 -30 -102 -34 -99 -7 2 27 -48 23 -52 -5 -8 -52 84 -69 156 -28 23 13 42 20 42 15 0 -16 69 -32 98 -22 20 7 31 6 40 -4 15 -17 65 -18 95 -3 12 6 37 25 55 42 28 27 32 29 32 11 0 -27 19 -44 49 -44 16 0 42 18 78 53 l53 54 0 -37 c0 -20 5 -41 12 -48 19 -19 77 -14 108 8 28 20 28 20 34 -4 11 -42 116 -59 195 -31 53 18 51 18 51 0 0 -19 31 -35 70 -35 17 0 68 14 113 31 154 59 134 80 -28 30 -130 -41 -149 -24 -70 60 55 59 62 99 16 99 -34 0 -76 -43 -86 -90 -7 -30 -31 -48 -83 -65 -23 -7 -23 -6 -8 24 24 46 20 76 -15 105 -51 43 -83 36 -148 -33 -101 -107 -133 -105 -114 6 19 107 -1 112 -72 17 -49 -65 -89 -104 -106 -104 -14 0 -11 62 6 116 19 64 19 66 -7 62 -18 -2 -26 -14 -38 -53 -28 -95 -152 -189 -162 -122 -4 29 -42 31 -46 2 -2 -17 -9 -20 -37 -17 -44 5 -60 24 -46 51 6 11 11 36 11 56 0 66 -88 123 -128 83z m78 -49 c18 -33 7 -38 -18 -7 -18 22 -20 28 -8 28 8 0 20 -9 26 -21z m790 -49 c14 -27 5 -55 -27 -80 -32 -25 -63 -12 -63 28 0 61 65 98 90 52z"/>
<path d="M10004 7417 c-34 -36 -59 -73 -73 -113 -13 -32 -27 -64 -32 -70 -16 -20 16 -116 50 -146 33 -29 78 -37 99 -16 21 21 145 49 212 48 66 -1 120 12 120 29 0 5 -30 6 -67 3 l-68 -5 29 29 c42 42 58 86 45 121 -13 35 -25 43 -66 43 -22 0 -43 -9 -64 -28 -26 -23 -33 -38 -37 -80 -3 -32 0 -57 7 -66 14 -17 5 -25 -45 -36 -25 -6 -34 -5 -34 5 0 8 -12 27 -26 44 -21 25 -33 31 -66 31 l-41 0 56 41 c123 91 172 219 85 219 -25 0 -43 -11 -84 -53z m96 18 c0 -3 -6 -20 -14 -38 -13 -32 -114 -132 -123 -123 -10 9 52 108 84 137 31 27 53 37 53 24z m183 -146 c20 -32 -53 -132 -83 -114 -25 15 1 115 32 128 21 9 40 3 51 -14z m-261 -126 c29 -26 22 -39 -17 -35 -38 5 -50 15 -41 37 7 20 35 19 58 -2z"/>
<path d="M12241 7319 c-24 -33 -131 -89 -168 -89 -32 0 -30 34 3 65 29 27 25 45 -12 45 -19 0 -29 -10 -47 -47 -12 -27 -26 -51 -32 -55 -5 -4 -10 -13 -10 -20 0 -21 -67 -59 -100 -56 -25 3 -30 8 -33 34 -2 19 3 36 12 44 20 16 21 60 2 60 -18 0 -43 -24 -51 -49 -6 -19 -96 -71 -122 -71 -13 0 -8 49 8 82 16 31 11 50 -13 46 -23 -3 -24 -5 -55 -117 l-18 -63 -73 4 c-78 5 -111 21 -79 39 22 13 57 50 57 61 0 15 -22 8 -54 -19 -30 -25 -31 -25 -34 -5 -4 27 23 78 47 92 15 7 23 6 35 -5 30 -31 59 -6 30 26 -21 23 -71 25 -100 4 -29 -19 -54 -75 -54 -118 0 -29 -4 -36 -25 -41 -28 -7 -73 1 -94 18 -10 7 -12 24 -7 62 6 54 -8 84 -38 84 -28 0 -77 -23 -86 -40 -17 -32 -12 -60 10 -60 13 0 20 7 20 18 0 21 18 42 37 42 10 0 13 -15 11 -54 -1 -32 3 -60 11 -69 19 -24 78 -40 127 -34 30 3 56 -1 81 -13 46 -22 233 -34 233 -16 0 6 12 17 28 24 15 6 41 20 57 31 36 24 55 26 55 7 0 -20 39 -46 70 -46 14 0 43 9 65 20 26 13 42 17 49 10 19 -19 46 -11 46 14 0 20 6 24 45 29 25 4 63 16 85 27 21 11 42 20 45 20 3 0 5 -20 5 -44 0 -35 5 -48 22 -60 25 -18 84 -21 121 -7 21 8 26 6 36 -15 23 -52 96 -56 164 -10 26 18 37 21 40 11 3 -7 17 -15 32 -19 15 -4 39 -15 54 -26 39 -27 91 -32 168 -16 77 16 154 46 136 53 -6 2 -45 -3 -87 -11 -88 -19 -149 -20 -177 -5 -18 9 -16 13 28 42 76 51 113 123 81 155 -19 19 -82 14 -111 -8 -28 -23 -67 -96 -67 -127 0 -19 -3 -20 -24 -10 -20 10 -22 15 -15 35 10 27 12 73 3 97 -10 25 -58 45 -108 45 -60 0 -111 -43 -127 -106 -10 -39 -15 -45 -50 -54 -80 -22 -99 21 -54 118 14 30 22 58 19 63 -10 17 -30 9 -53 -22z m327 -51 c19 -16 10 -82 -15 -110 -25 -28 -70 -50 -95 -46 -30 4 -34 48 -8 90 11 18 20 43 20 55 0 12 6 24 13 27 17 7 67 -2 85 -16z m232 -8 c0 -25 -27 -64 -64 -90 -22 -17 -41 -28 -43 -26 -9 9 32 88 55 106 26 21 52 26 52 10z"/>
<path d="M9527 7334 c-20 -20 -5 -68 32 -105 37 -37 42 -39 101 -39 l62 0 -4 -70 c-3 -56 -8 -74 -28 -95 -34 -36 -78 -34 -91 5 -15 43 -44 41 -35 -2 9 -44 27 -60 70 -61 44 -1 84 26 109 74 14 27 17 53 15 126 -2 67 0 94 9 98 23 8 2 36 -26 33 -22 -3 -26 -8 -29 -40 -3 -37 -4 -38 -42 -38 -51 0 -98 38 -102 83 -3 30 -25 47 -41 31z"/>
<path d="M10601 7296 c-6 -8 -17 -33 -24 -57 -13 -45 -60 -87 -116 -104 -22 -7 -23 -5 -17 16 13 44 11 54 -11 57 -18 3 -24 -4 -32 -34 -14 -52 -1 -74 47 -74 25 0 54 10 85 30 36 22 48 26 54 16 24 -40 82 -45 143 -13 l43 23 23 -23 c37 -37 97 -29 151 20 22 20 22 20 33 -7 13 -36 54 -51 103 -36 47 14 50 35 3 27 -58 -9 -70 8 -62 91 6 62 5 72 -8 72 -9 0 -25 -20 -36 -44 -23 -48 -50 -77 -94 -100 -56 -28 -88 12 -55 68 25 44 22 80 -8 84 -25 4 -53 -40 -53 -82 0 -35 -65 -79 -111 -74 -43 4 -47 24 -19 83 12 25 19 52 16 60 -7 19 -40 19 -55 1z"/>
<path d="M3117 5643 c-15 -14 -6 -31 21 -36 75 -15 144 -100 163 -202 21 -115 -7 -226 -78 -305 -57 -64 -94 -84 -139 -75 -37 7 -47 -12 -19 -35 12 -10 25 -10 63 1 68 19 162 113 191 193 40 109 37 237 -9 326 -40 77 -164 163 -193 133z"/>
<path d="M3755 5586 c-36 -36 -49 -98 -50 -238 0 -130 7 -157 39 -145 13 5 16 23 16 86 l0 79 65 7 c85 9 125 39 125 94 0 100 -132 179 -195 117z m121 -50 c67 -67 34 -126 -72 -126 -39 0 -45 2 -35 14 10 12 10 20 0 38 -14 25 -14 38 3 81 16 40 60 37 104 -7z"/>
<path d="M5513 5538 c-43 -48 -73 -139 -73 -225 0 -51 -1 -53 -43 -78 -24 -14 -56 -25 -71 -25 -28 0 -28 0 -21 51 6 46 5 51 -11 47 -11 -2 -25 -17 -32 -33 -23 -52 -28 -60 -61 -79 -25 -14 -34 -16 -46 -6 -19 16 -19 38 0 84 17 40 13 56 -14 56 -18 0 -41 -38 -41 -69 0 -41 -105 -100 -178 -101 -73 0 -110 32 -51 44 36 7 99 66 99 93 0 70 -101 48 -153 -34 -19 -30 -22 -44 -16 -71 10 -45 19 -53 71 -62 55 -11 130 4 182 34 41 24 41 24 65 5 30 -24 68 -24 109 1 25 15 37 18 52 10 31 -17 72 -11 119 15 l43 25 34 -30 c27 -23 44 -30 77 -30 44 0 106 30 108 52 1 7 4 2 8 -12 9 -34 69 -50 103 -28 18 12 29 13 42 6 27 -15 87 -4 134 26 41 25 41 25 44 3 4 -29 38 -36 45 -9 3 14 16 22 43 26 21 3 45 9 54 12 10 4 16 1 16 -9 0 -8 8 -25 18 -37 34 -42 131 -26 191 31 19 18 26 20 29 9 3 -8 15 -24 28 -37 30 -30 75 -30 111 1 24 20 37 24 70 19 22 -3 50 0 62 6 19 10 21 9 21 -11 1 -13 9 -39 19 -58 18 -34 18 -34 -2 -45 -32 -16 -21 -30 29 -33 56 -4 73 13 44 43 -45 48 -62 133 -35 169 8 11 15 28 15 39 0 32 -43 17 -62 -23 -18 -36 -61 -62 -86 -52 -10 4 -12 16 -7 49 6 42 5 44 -16 41 -17 -2 -26 -13 -34 -40 -12 -42 -51 -88 -76 -88 -30 0 -44 30 -44 94 0 51 -3 61 -18 64 -12 2 -20 -4 -24 -17 -4 -16 -9 -19 -23 -11 -47 25 -147 1 -200 -47 -25 -24 -80 -39 -105 -29 -13 5 -13 10 2 41 12 26 14 38 6 46 -15 15 -30 4 -52 -40 -28 -55 -132 -120 -169 -106 -10 4 -13 14 -9 34 7 32 -18 72 -55 92 -28 15 -75 -6 -94 -43 -15 -29 -15 -29 -33 -7 -12 15 -32 23 -67 26 l-51 5 33 62 c43 80 61 151 44 171 -19 23 -73 19 -97 -7z m67 -23 c0 -26 -39 -119 -70 -165 -28 -42 -30 -43 -30 -18 0 43 37 148 61 174 26 27 39 31 39 9z m764 -217 c22 -35 -39 -90 -101 -92 -37 -1 -38 0 -38 34 0 28 6 38 35 58 39 26 87 26 104 0z m-1442 -28 c-42 -39 -64 -39 -27 0 16 17 36 30 44 30 11 0 5 -10 -17 -30z m874 9 c17 -19 17 -23 3 -47 -9 -17 -25 -28 -42 -30 -24 -3 -27 0 -27 25 0 28 24 73 39 73 4 0 16 -9 27 -21z m-166 -17 l21 -17 -21 -28 c-24 -31 -63 -36 -97 -12 -27 19 -21 40 16 60 35 19 55 18 81 -3z"/>
<path d="M3012 5520 c-55 -33 -70 -100 -22 -100 14 0 20 7 20 23 0 31 32 59 62 55 55 -8 24 -109 -67 -218 -84 -102 -72 -133 55 -139 62 -2 86 1 105 13 14 9 25 20 25 24 0 4 -41 7 -92 7 -57 0 -93 4 -95 11 -2 6 20 40 48 75 64 79 88 131 89 187 0 76 -58 104 -128 62z"/>
<path d="M4061 5361 c-54 -51 -94 -168 -71 -210 34 -65 138 -30 186 62 l15 28 28 -24 c37 -31 132 -51 213 -45 53 4 65 2 78 -15 19 -23 97 -34 148 -20 52 13 38 26 -31 27 -79 1 -99 15 -86 59 5 17 20 43 34 56 23 24 25 24 43 8 21 -19 52 -13 52 9 0 18 -39 44 -66 44 -32 0 -79 -43 -97 -89 -18 -43 -31 -51 -87 -51 -49 0 -90 15 -90 33 0 22 40 67 68 78 19 7 29 6 43 -7 21 -18 49 -12 49 10 0 27 -46 49 -87 41 -48 -9 -113 -72 -113 -109 0 -14 -4 -26 -9 -26 -16 0 -71 70 -71 91 0 12 -9 34 -21 50 -29 41 -84 41 -128 0z m92 -45 c7 -29 5 -47 -9 -77 -22 -49 -69 -91 -98 -87 -45 6 -10 140 50 187 35 28 47 23 57 -23z"/>
<path d="M8020 5364 c-6 -14 -10 -34 -10 -45 0 -27 -98 -124 -134 -133 -36 -9 -49 3 -50 46 -1 26 -6 34 -23 36 -20 3 -23 -1 -23 -35 0 -58 22 -83 74 -83 44 0 128 45 140 75 4 12 10 10 30 -10 37 -37 103 -30 154 17 19 19 22 19 22 5 0 -10 11 -22 25 -29 28 -13 71 1 116 39 27 23 28 23 34 3 14 -45 85 -51 162 -16 l52 24 -2 -41 c-2 -32 2 -42 16 -45 12 -2 22 7 33 35 15 35 18 36 28 19 21 -36 46 -56 70 -56 15 0 26 -7 29 -20 6 -25 27 -27 27 -2 0 11 18 25 51 41 28 12 69 39 91 59 l40 36 23 -26 c12 -14 26 -43 29 -63 6 -32 4 -39 -21 -57 -51 -39 -129 -127 -151 -171 -26 -53 -28 -84 -6 -116 14 -20 23 -22 58 -18 77 10 146 119 163 258 8 61 9 63 53 85 25 13 63 24 86 24 22 0 48 6 58 13 16 12 22 10 46 -15 24 -24 36 -28 84 -28 64 0 74 14 19 25 -56 10 -81 30 -85 67 -2 25 -8 34 -25 36 -17 3 -23 10 -23 28 0 32 -40 51 -78 38 -34 -11 -75 -88 -67 -124 5 -22 1 -27 -27 -38 -17 -6 -32 -11 -33 -9 -1 1 -9 24 -19 50 -11 30 -27 52 -41 59 -13 6 -26 19 -28 30 -7 25 -40 20 -45 -7 -2 -11 -11 -29 -21 -39 -18 -21 -100 -76 -113 -76 -14 0 21 73 49 102 27 28 24 48 -8 48 -22 0 -51 -43 -77 -112 -19 -55 -35 -60 -56 -20 -8 15 -24 37 -36 50 l-21 22 21 31 c21 29 21 59 1 59 -6 0 -25 -18 -43 -41 -58 -72 -207 -128 -224 -84 -3 8 1 35 9 59 8 24 13 47 9 50 -14 15 -32 3 -53 -33 -23 -42 -96 -101 -124 -101 -15 0 -16 6 -10 38 4 20 9 49 12 65 8 42 -23 35 -46 -11 -30 -59 -86 -104 -124 -100 -31 3 -32 5 -32 48 0 25 4 60 9 78 7 28 5 32 -13 32 -14 0 -25 -9 -31 -26z m1210 -58 c0 -18 6 -25 22 -28 23 -3 23 -3 -2 -26 -49 -45 -92 -4 -54 52 21 33 34 33 34 2z m-205 -238 c-15 -95 -86 -208 -131 -208 -25 0 -27 47 -5 93 22 46 116 157 133 157 6 0 7 -16 3 -42z"/>
<path d="M7293 5345 c-24 -17 -47 -83 -38 -107 7 -17 -43 -42 -72 -36 -14 3 -18 13 -18 43 0 55 -29 61 -50 11 -17 -39 -40 -56 -81 -56 -23 0 -25 3 -19 23 18 59 18 67 -2 67 -12 0 -23 11 -30 30 -24 63 -96 18 -130 -83 -12 -34 -12 -42 2 -63 18 -28 69 -33 100 -10 14 10 26 11 51 3 26 -8 43 -7 71 5 32 12 43 12 71 1 27 -11 41 -11 75 -1 23 7 71 13 106 13 42 0 66 4 68 13 3 8 -7 12 -31 12 -20 0 -36 2 -36 5 0 2 11 21 25 41 14 20 25 47 25 58 0 44 -45 60 -87 31z m47 -32 c0 -5 -9 -21 -20 -38 -20 -30 -20 -30 -20 -4 0 14 5 30 12 37 13 13 28 16 28 5z m-383 -43 c22 -34 -14 -90 -56 -90 -18 0 -13 42 9 78 23 37 31 39 47 12z"/>
<path d="M9755 5160 c-9 -15 4 -30 26 -30 12 0 19 7 19 20 0 21 -33 29 -45 10z"/>
<path d="M6030 4526 c0 -8 99 -76 220 -152 l219 -137 3 -86 c2 -70 6 -86 20 -89 12 -2 19 11 30 60 10 45 18 62 29 60 8 -2 263 -160 566 -350 l553 -347 0 -447 0 -448 -615 0 -615 0 0 35 c0 28 -4 35 -20 35 -16 0 -20 -7 -20 -35 l0 -35 -645 0 c-638 0 -645 0 -645 -20 0 -20 7 -20 645 -20 l645 0 0 -35 c0 -28 4 -35 20 -35 16 0 20 7 20 35 l0 35 606 0 606 0 -19 -24 c-10 -14 -119 -144 -243 -290 l-225 -265 -15 52 c-10 32 -22 52 -30 52 -12 0 -16 -19 -18 -90 l-3 -90 -196 -230 c-478 -561 -623 -734 -623 -744 0 -6 6 -11 14 -11 8 0 200 219 427 487 402 476 414 489 476 518 34 17 63 33 63 37 0 4 -13 8 -29 10 -29 3 -22 12 202 276 l232 274 5 -944 c4 -829 7 -943 20 -943 13 0 15 115 18 963 l2 962 623 -2 622 -3 1 -50 c1 -70 26 -69 37 2 l9 53 1176 2 c1038 3 1177 5 1177 18 0 13 -139 15 -1179 18 l-1178 2 6 33 c7 39 -5 60 -30 55 -12 -2 -20 -13 -22 -31 -4 -33 -6 -33 -44 -6 -16 12 -32 18 -35 15 -4 -4 2 -13 13 -20 66 -48 75 -45 -148 -46 l-208 0 0 48 c0 26 -3 142 -6 259 -4 116 -3 264 1 327 l7 115 41 3 c54 4 59 25 18 75 -16 21 -37 57 -46 81 -13 33 -22 42 -40 42 -13 0 -27 -4 -30 -10 -4 -6 -85 -10 -213 -10 l-207 1 37 22 c38 22 47 40 28 52 -12 7 -110 -52 -110 -66 0 -5 -68 -9 -150 -9 l-151 0 1 493 c2 492 2 492 -20 492 -22 0 -22 0 -20 -488 0 -269 -3 -487 -7 -485 -11 4 -987 614 -1033 645 l-35 23 63 -6 c43 -5 62 -3 62 4 0 7 -12 14 -27 18 -33 7 -123 30 -178 46 -22 7 -135 72 -252 145 -116 73 -216 133 -222 133 -6 0 -11 -6 -11 -14z m2014 -1075 c30 -31 62 -45 72 -30 3 5 -7 20 -23 34 l-28 24 189 1 c179 0 188 -1 174 -17 -37 -45 -252 -299 -255 -303 -2 -2 -13 2 -24 9 -27 16 -38 5 -14 -13 17 -12 18 -16 5 -32 -20 -24 -410 -486 -421 -499 -5 -5 -9 167 -9 409 l0 417 31 -21 c16 -12 33 -20 36 -16 6 6 -36 45 -50 46 -5 0 -5 5 -2 10 4 6 64 10 149 10 142 0 142 0 170 -29z m506 -51 c9 -16 8 -20 -5 -20 -8 0 -15 9 -15 20 0 11 2 20 5 20 2 0 9 -9 15 -20z m-112 -52 c25 -3 27 -7 33 -68 4 -36 7 -127 8 -203 l1 -137 -25 16 c-14 9 -29 14 -33 10 -4 -4 0 -11 8 -16 52 -30 51 -23 44 -197 l-7 -163 -102 0 -102 0 -6 48 c-4 26 -9 100 -13 165 l-7 117 26 0 c61 0 73 31 36 94 -25 42 -19 45 24 12 45 -33 57 -39 57 -27 0 11 -84 72 -103 75 -7 1 -27 16 -45 34 l-33 31 103 121 c63 74 104 116 106 107 2 -9 15 -17 30 -19z m-233 -396 c-2 -3 -11 1 -20 8 -8 7 -22 10 -31 6 -12 -5 -14 -1 -9 17 4 12 13 27 20 32 6 6 16 21 21 35 7 21 9 16 16 -34 4 -33 6 -62 3 -64z m-102 34 c-19 -40 -24 -59 -16 -67 8 -8 16 -7 32 2 18 12 22 11 35 -6 12 -16 16 -17 30 -6 9 8 18 12 21 10 2 -2 5 -77 7 -167 3 -141 1 -162 -12 -162 -12 0 -15 8 -12 35 3 27 1 35 -12 35 -16 0 -20 -9 -16 -47 1 -23 1 -23 -210 -23 -116 0 -210 4 -208 8 6 15 382 452 385 448 2 -2 -8 -29 -24 -60z m162 14 c20 -39 19 -50 -5 -50 -17 0 -20 7 -20 40 0 48 4 50 25 10z"/>
<path d="M7820 3381 c0 -11 99 -75 106 -68 5 5 -88 77 -100 77 -3 0 -6 -4 -6 -9z"/>
<path d="M7970 3281 c0 -8 94 -81 105 -81 16 0 -1 21 -37 46 -64 44 -68 46 -68 35z"/>
<path d="M8152 2848 c5 -34 38 -37 38 -4 0 20 -5 26 -21 26 -15 0 -20 -5 -17 -22z"/>
<path d="M8161 2761 c-17 -11 -5 -71 15 -71 9 0 14 11 14 34 0 38 -9 49 -29 37z"/>
<path d="M8570 2861 c0 -4 19 -21 42 -37 64 -44 68 -46 68 -35 0 8 -94 81 -105 81 -3 0 -5 -4 -5 -9z"/>
<path d="M2290 2809 c-7 -11 -14 -45 -17 -75 -5 -47 -9 -54 -28 -54 -12 0 -30 -9 -40 -20 -10 -12 -34 -30 -53 -42 -34 -21 -35 -21 -49 -2 -11 14 -14 39 -11 97 4 57 1 80 -9 89 -17 14 -25 5 -46 -52 -21 -58 -65 -106 -81 -90 -6 6 -13 41 -16 78 -6 86 -23 88 -68 7 -39 -70 -92 -129 -105 -116 -5 5 -10 25 -11 45 -4 43 -9 51 -31 43 -20 -8 -20 -75 1 -105 10 -15 25 -22 49 -22 33 0 62 24 107 90 12 18 17 21 17 9 1 -9 10 -28 22 -43 28 -36 70 -35 102 3 l25 30 5 -36 c14 -83 69 -95 141 -32 26 23 49 40 51 38 2 -2 7 -20 12 -39 12 -46 43 -54 43 -11 0 20 5 31 14 31 8 0 37 15 65 34 l51 35 0 -45 c0 -46 25 -84 55 -84 25 0 67 25 100 60 l30 32 5 -34 c4 -28 9 -33 35 -36 22 -2 37 4 55 23 l24 25 21 -26 c23 -28 53 -33 100 -16 17 6 43 14 59 17 16 3 49 28 77 56 l48 49 3 -46 c4 -60 25 -76 67 -52 25 13 30 14 35 2 8 -22 50 -27 90 -10 32 13 36 13 36 0 0 -8 14 -28 31 -45 28 -27 35 -30 73 -24 46 8 106 36 125 58 10 13 16 13 43 0 31 -16 32 -16 227 6 33 4 56 11 59 20 4 12 -17 13 -131 7 -149 -8 -164 -3 -130 42 38 52 53 88 40 101 -6 6 -16 11 -22 11 -21 0 -63 -55 -76 -98 -8 -28 -24 -53 -44 -68 -41 -31 -46 -30 -39 6 10 49 -3 80 -42 96 -35 14 -37 14 -71 -13 -47 -38 -105 -73 -121 -73 -11 0 -13 18 -10 78 4 93 -14 104 -43 27 -11 -27 -28 -61 -39 -75 l-20 -25 0 31 c0 17 7 53 15 80 19 64 19 74 -5 74 -11 0 -20 -4 -20 -8 0 -12 -129 -151 -151 -162 -16 -9 -19 -7 -16 12 1 17 -4 24 -21 26 -18 3 -23 -2 -28 -28 -7 -33 -36 -55 -61 -46 -21 8 -11 80 18 137 15 30 18 44 10 52 -19 19 -43 -5 -61 -57 -16 -49 -72 -126 -92 -126 -10 0 -6 88 8 158 6 30 4 33 -12 30 -12 -2 -26 -22 -38 -58 -23 -64 -104 -154 -133 -148 -25 4 -29 57 -9 119 20 59 20 59 -2 59 -10 0 -28 -13 -39 -29 -21 -28 -108 -91 -126 -91 -10 0 -4 72 9 133 5 21 3 27 -9 27 -9 0 -21 -9 -27 -21z m1098 -141 c2 -9 -5 -33 -14 -55 -16 -35 -18 -36 -22 -14 -6 36 7 93 21 88 7 -2 13 -11 15 -19z"/>
<path d="M8720 2756 c0 -6 96 -76 104 -76 19 0 0 22 -42 49 -46 29 -62 36 -62 27z"/>
<path d="M8166 2398 c-7 -90 2 -141 25 -146 11 -2 14 18 14 113 1 100 -2 115 -16 115 -13 0 -17 -15 -23 -82z"/>
<path d="M8905 2276 c-105 -26 -150 -67 -121 -111 9 -13 25 -26 36 -30 12 -4 20 -15 20 -29 0 -13 8 -30 18 -39 23 -21 85 -22 102 -2 23 28 7 49 -55 71 -33 11 -68 24 -77 28 -29 13 -20 41 20 63 42 24 151 47 176 37 20 -8 30 -46 51 -199 9 -66 22 -131 28 -144 25 -50 32 -16 29 131 -3 147 -3 147 22 163 29 19 52 11 85 -31 29 -36 26 -57 -10 -99 -35 -39 -32 -54 5 -37 35 16 59 67 52 107 -9 44 -66 95 -107 95 -38 0 -79 -39 -80 -77 0 -17 -5 -6 -13 29 -7 31 -18 63 -25 72 -16 19 -83 20 -156 2z m21 -181 c18 -14 17 -14 -13 -15 -23 0 -33 5 -33 15 0 19 21 19 46 0z"/>
<path d="M8287 2234 c-11 -11 -8 -108 4 -143 20 -57 67 -63 94 -12 l13 26 10 -25 c12 -31 38 -54 51 -46 6 4 3 19 -9 39 -10 18 -22 53 -25 80 -7 44 -19 66 -32 54 -2 -3 -9 -25 -14 -49 -11 -48 -37 -93 -47 -83 -4 4 -9 41 -12 83 -5 69 -15 93 -33 76z"/>
<path d="M2196 2189 c-14 -11 -26 -16 -26 -10 0 6 -8 11 -17 11 -12 0 -29 -22 -51 -63 -17 -35 -50 -80 -72 -102 -44 -43 -43 -45 -54 64 -5 51 -19 81 -37 81 -5 0 -24 -14 -44 -31 -37 -32 -43 -32 -24 3 9 16 7 24 -5 36 -14 14 -18 14 -30 2 -20 -21 -43 -167 -29 -181 16 -16 28 -6 75 64 40 59 42 61 49 37 4 -14 7 -41 8 -60 1 -43 25 -80 51 -80 33 0 50 12 86 58 38 50 41 43 19 -38 -8 -30 -18 -101 -22 -157 -5 -92 -4 -103 12 -109 30 -12 33 -1 60 243 9 82 21 135 35 163 34 67 70 64 70 -7 0 -41 -42 -93 -70 -86 -15 4 -20 0 -20 -16 0 -53 78 -24 111 41 26 51 21 114 -11 140 -28 23 -32 22 -64 -3z"/>
<path d="M2442 2176 c-22 -26 -33 -50 -38 -86 -4 -34 -13 -54 -25 -60 -27 -15 -36 -12 -35 13 1 16 -5 22 -19 22 -15 0 -21 -8 -23 -32 -3 -27 1 -35 23 -45 21 -9 32 -8 62 6 33 16 37 16 54 0 20 -18 81 -25 89 -10 3 5 -8 13 -23 17 -16 4 -35 13 -43 20 -13 10 -12 16 9 38 61 65 74 143 26 149 -19 2 -34 -6 -57 -32z m38 -45 c-22 -45 -30 -51 -30 -22 0 19 39 75 47 67 2 -2 -5 -22 -17 -45z"/>
<path d="M3418 2185 c-28 -16 -78 -105 -78 -142 0 -16 -11 -28 -40 -43 -50 -26 -52 -25 -39 7 21 55 -15 113 -70 113 -34 0 -86 -35 -109 -73 -10 -18 -33 -40 -51 -50 -28 -17 -32 -17 -37 -2 -7 18 0 110 11 137 5 12 1 20 -10 25 -13 4 -24 -2 -39 -23 -37 -52 -139 -154 -154 -154 -12 0 -14 16 -11 92 5 111 -8 123 -46 45 -26 -57 -118 -153 -135 -142 -6 3 -10 22 -10 41 0 31 -3 35 -22 32 -19 -2 -23 -8 -20 -36 4 -54 18 -72 56 -72 27 0 43 10 85 51 l51 52 0 -40 c0 -46 14 -63 53 -63 22 0 43 14 86 58 l57 57 0 -36 c0 -20 6 -44 13 -53 15 -18 76 -22 86 -6 10 16 19 12 38 -21 16 -28 21 -31 55 -26 59 8 120 26 162 47 39 20 39 20 46 -3 10 -32 22 -37 87 -37 57 0 127 21 127 38 0 5 -39 8 -87 8 -110 -1 -116 10 -40 86 58 57 79 107 57 133 -15 19 -37 18 -72 0z m42 -30 c0 -14 -30 -62 -49 -79 -30 -27 -28 0 4 47 22 32 45 48 45 32z m-235 -96 c7 -22 -13 -68 -37 -82 -23 -15 -48 8 -48 43 0 19 9 36 26 49 28 22 50 19 59 -10z"/>
<path d="M8504 2160 c-27 -11 -37 -27 -30 -46 5 -13 10 -12 33 6 25 19 28 20 31 5 2 -9 -3 -27 -12 -40 -23 -34 -20 -47 17 -70 41 -26 47 -62 13 -94 -30 -29 -49 -19 -41 20 8 33 -9 40 -25 10 -24 -45 0 -88 42 -78 13 4 38 19 57 34 30 26 33 32 26 63 -4 19 -21 47 -37 62 -28 26 -29 29 -14 50 22 31 20 65 -3 78 -23 12 -29 12 -57 0z"/>
<path d="M8672 2127 c-12 -13 -22 -29 -22 -35 0 -7 -5 -12 -10 -12 -14 0 -1 -50 18 -72 47 -54 133 18 122 102 -5 42 -74 53 -108 17z m76 -38 c4 -33 -29 -75 -51 -66 -23 9 -21 37 2 37 11 0 23 5 26 10 3 6 -2 10 -13 10 -26 0 -34 11 -20 27 18 23 53 12 56 -18z"/>
<path d="M9352 2038 c7 -19 38 -22 38 -4 0 10 -9 16 -21 16 -12 0 -19 -5 -17 -12z"/>
<path d="M2855 1538 c-2 -7 -6 -39 -10 -70 -5 -44 -11 -58 -26 -63 -10 -4 -19 -12 -19 -20 0 -16 -46 -32 -77 -27 -28 4 -29 14 -3 37 52 47 42 137 -16 143 -48 5 -69 -26 -70 -105 -1 -73 -9 -83 -65 -83 -24 0 -42 7 -54 20 -16 18 -17 27 -9 70 6 28 8 52 6 55 -16 15 -39 1 -50 -29 -13 -34 -73 -96 -93 -96 -7 0 -10 23 -8 62 3 53 1 63 -13 66 -12 2 -21 -6 -29 -25 -13 -35 -55 -80 -93 -100 -28 -14 -30 -14 -47 8 -15 20 -19 21 -33 10 -20 -17 -20 -25 0 -45 26 -27 88 -20 126 13 l34 29 16 -29 c10 -16 24 -29 33 -29 21 0 68 25 85 45 11 14 15 12 31 -14 27 -44 82 -58 145 -37 37 12 58 14 83 6 24 -6 44 -5 72 4 21 8 39 10 39 5 0 -20 41 -8 49 15 5 12 24 32 42 44 l33 21 12 -36 c7 -20 19 -40 26 -44 23 -15 88 -10 127 11 l39 19 7 -27 c10 -39 34 -62 67 -62 32 0 151 51 163 70 5 8 13 2 26 -19 10 -17 30 -33 44 -37 29 -7 76 10 101 37 13 15 25 17 60 12 33 -4 51 -1 78 15 34 20 36 20 36 3 0 -46 77 -70 152 -48 36 11 56 12 86 4 30 -8 54 -7 100 4 60 15 61 15 64 -5 5 -33 42 -27 46 7 3 20 9 27 25 27 12 0 42 9 66 20 52 24 51 24 51 5 0 -22 53 -45 103 -45 26 0 62 9 90 24 26 13 47 19 47 15 0 -12 47 -11 55 1 3 6 14 10 24 10 10 0 35 11 55 25 l36 24 0 -29 c0 -16 7 -36 16 -44 18 -19 66 -21 96 -5 18 10 24 8 40 -14 25 -34 63 -41 133 -22 54 14 60 14 78 -2 34 -32 207 -27 207 5 0 5 -33 7 -72 5 -52 -3 -78 -1 -91 9 -17 13 -15 17 32 64 43 43 51 57 51 87 0 31 -4 38 -27 43 -53 14 -122 -55 -124 -125 l-1 -36 -8 39 c-10 52 -40 76 -96 76 -41 0 -49 -5 -98 -55 -55 -57 -62 -61 -85 -46 -12 8 -13 17 -2 58 6 26 15 58 18 71 9 37 -20 26 -73 -27 -46 -46 -96 -72 -111 -57 -3 3 2 24 12 46 20 44 12 65 -21 58 -13 -2 -22 -16 -27 -43 -13 -61 -19 -68 -81 -99 -49 -25 -63 -28 -94 -20 -34 8 -37 12 -36 44 0 19 4 43 8 52 6 12 3 20 -8 24 -11 4 -30 -8 -59 -39 -39 -41 -98 -69 -114 -53 -4 3 -1 27 5 54 8 37 8 50 -3 61 -20 21 -32 6 -40 -49 -4 -27 -11 -52 -16 -56 -5 -3 -9 -14 -9 -24 0 -10 -8 -21 -17 -24 -44 -12 -95 -18 -118 -12 l-26 7 28 35 c20 27 27 48 27 82 1 43 -1 47 -25 50 -35 4 -64 -33 -80 -103 -10 -46 -16 -56 -42 -65 -43 -15 -83 -12 -98 6 -13 15 -10 32 18 117 10 31 -35 21 -51 -12 -21 -40 -73 -81 -102 -81 -24 0 -25 2 -22 53 4 67 -19 72 -43 8 -19 -52 -72 -111 -99 -111 -36 0 -44 36 -19 86 36 75 -13 88 -51 13 -13 -24 -37 -48 -65 -65 -48 -28 -51 -28 -69 8 -6 13 -25 27 -41 32 -17 6 -31 11 -33 12 -2 1 4 17 13 34 11 21 13 36 7 42 -18 18 -47 3 -57 -28 -14 -44 -34 -65 -83 -86 -66 -29 -82 -19 -82 53 0 70 -14 76 -69 29 -19 -16 -36 -29 -37 -27 -1 1 2 24 7 51 5 26 6 52 3 57 -8 13 -34 11 -39 -3z m-140 -47 c7 -22 -7 -62 -29 -80 -14 -12 -16 -10 -16 11 0 32 19 88 30 88 5 0 11 -8 15 -19z m2455 -16 c0 -8 -16 -32 -36 -53 l-36 -37 7 30 c10 48 65 98 65 60z m-1200 -45 c-16 -31 -23 -19 -9 16 6 16 13 24 16 17 2 -7 -1 -22 -7 -33z m1004 14 c43 -16 39 -94 -4 -94 -54 0 -79 49 -44 84 17 18 24 19 48 10z m-1746 -102 c2 -14 -2 -22 -12 -22 -19 0 -28 14 -20 35 9 21 28 14 32 -13z"/>
<path d="M1833 1511 c4 -16 16 -50 28 -76 27 -58 59 -73 106 -51 l33 16 0 -40 c0 -26 -5 -40 -13 -40 -7 0 -32 -19 -54 -42 -42 -43 -42 -43 -32 -88 11 -49 43 -90 69 -90 41 0 55 25 62 117 4 48 7 120 7 158 0 41 7 86 16 107 19 48 19 48 -9 48 -18 0 -27 -9 -40 -45 -17 -44 -47 -75 -73 -75 -16 0 -39 45 -48 93 -6 31 -11 37 -32 37 -23 0 -25 -3 -20 -29z m160 -306 c-10 -72 -31 -81 -51 -21 -12 38 -12 40 20 73 38 39 41 33 31 -52z"/>
</g><g transform="translate(1122.099538, 1090.1239385993842) scale(0.40808740102544044)"><g transform="translate(-57.706759,297.537395) scale(0.100000,-0.100000)" fill="#4444bb" stroke="none">
<path d="M750 2973 c-57 -10 -88 -25 -119 -57 -40 -41 -55 -100 -46 -179 6 -45 12 -61 32 -77 32 -25 35 -25 64 -1 22 17 24 26 21 89 -4 105 24 120 164 87 33 -7 119 -19 190 -25 88 -8 134 -16 144 -26 32 -32 8 -420 -28 -456 -18 -18 -126 -28 -289 -28 -185 0 -206 -4 -250 -52 -55 -58 -58 -82 -55 -363 1 -145 7 -274 13 -293 11 -34 51 -62 89 -62 12 0 35 14 52 31 l31 30 -6 238 c-3 130 -3 249 0 264 l5 27 112 0 c234 1 363 26 423 82 58 54 98 260 91 463 -4 122 -7 138 -34 191 -40 81 -79 100 -217 108 -174 10 -361 14 -387 9z" fill="#4444bb"/>
<path d="M3660 2971 c-42 -9 -83 -34 -103 -65 -39 -59 -50 -127 -54 -343 -5 -206 -5 -212 18 -252 28 -50 78 -86 143 -102 48 -12 257 -8 370 7 l49 7 -7 -104 c-4 -57 -11 -189 -16 -294 -9 -177 -9 -192 8 -214 35 -47 100 -46 136 2 22 29 27 86 42 452 7 191 0 235 -44 283 -45 48 -92 56 -241 38 -146 -18 -229 -20 -265 -6 l-26 10 0 162 c0 156 8 230 27 249 5 5 99 6 210 2 l201 -6 5 -50 c3 -39 11 -56 31 -74 34 -29 48 -29 80 0 24 20 26 30 28 113 4 147 -23 169 -218 179 -242 11 -340 13 -374 6z" fill="#4444bb"/>
<path d="M1565 2945 c-14 -13 -25 -32 -25 -42 0 -10 -1 -297 -3 -638 -2 -677 -3 -662 55 -694 33 -19 73 -7 101 31 18 24 20 51 29 300 5 150 10 278 12 283 2 6 37 8 97 3 52 -3 135 -7 186 -7 154 -2 161 -10 143 -176 -21 -189 -27 -310 -18 -343 12 -45 45 -72 86 -72 71 0 102 46 102 151 0 33 7 118 16 187 24 190 9 280 -58 349 -50 52 -112 67 -263 65 -71 -1 -164 -6 -205 -11 -41 -4 -78 -7 -81 -5 -4 2 -10 108 -13 236 -9 286 -17 352 -47 384 -31 33 -82 32 -114 -1z" fill="#4444bb"/>
<path d="M2542 2944 c-55 -38 -64 -109 -53 -419 6 -186 9 -215 28 -250 50 -95 116 -125 302 -135 75 -4 171 -5 215 -1 l78 7 -4 -178 c-2 -97 -7 -181 -11 -184 -4 -4 -42 1 -85 11 -104 26 -285 27 -363 3 -106 -33 -149 -107 -99 -170 26 -34 68 -41 132 -21 74 23 202 20 308 -7 182 -47 274 5 301 168 12 77 27 831 19 994 -7 152 -20 181 -86 186 -88 7 -103 -51 -104 -401 l0 -219 -201 4 c-197 3 -201 3 -220 27 -18 21 -19 42 -19 283 l0 260 -29 29 c-33 33 -74 38 -109 13z" fill="#4444bb"/>
<path d="M2374 1391 c-55 -34 -79 -78 -79 -147 0 -51 4 -66 27 -96 35 -45 102 -73 153 -64 78 15 146 111 131 188 -20 108 -145 172 -232 119z" fill="#4444bb"/>
<path d="M1853 999 c-39 -11 -66 -56 -61 -101 6 -59 69 -64 76 -6 4 30 34 38 145 38 l67 0 0 -110 c0 -135 -1 -136 -132 -126 -85 6 -89 6 -113 -18 -24 -25 -25 -28 -25 -179 0 -162 4 -177 47 -177 35 0 43 29 43 159 l0 121 73 0 c85 0 141 14 168 41 17 17 19 34 19 169 0 147 -1 152 -25 175 -23 24 -30 25 -137 24 -62 0 -128 -5 -145 -10z" fill="#4444bb"/>
<path d="M2985 1000 c-91 -16 -93 -18 -104 -58 -15 -51 -14 -537 0 -564 19 -36 69 -48 204 -48 121 0 127 1 151 25 l24 24 -2 292 -3 292 -26 19 c-31 23 -161 33 -244 18z m169 -86 c14 -5 16 -37 16 -250 l0 -245 -102 3 -103 3 0 240 0 240 40 6 c57 9 131 10 149 3z" fill="#4444bb"/>
<path d="M2351 971 c-24 -24 -29 -73 -37 -372 -6 -232 -6 -237 15 -258 23 -23 29 -25 51 -11 12 7 16 40 20 150 l5 141 35 -23 c19 -13 59 -55 88 -93 30 -39 78 -96 108 -128 47 -51 56 -57 74 -47 29 16 25 42 -15 92 -19 24 -62 78 -95 121 -61 77 -61 77 -33 77 15 0 46 9 69 19 56 26 67 57 62 179 -6 156 -27 172 -220 172 -93 0 -111 -3 -127 -19z m257 -74 c16 -13 17 -168 0 -185 -7 -7 -41 -12 -84 -12 -40 0 -84 -4 -98 -10 l-26 -10 0 120 0 119 98 -6 c53 -3 103 -10 110 -16z" fill="#4444bb"/>
</g>
</g>
</svg>
