<?xml version="1.0" encoding="UTF-8" standalone="no"?>
<!-- Created with Inkscape (http://www.inkscape.org/) -->

<svg
   version="1.1"
   id="svg1"
   width="361.72888"
   height="457.34534"
   viewBox="0 0 361.72887 457.34534"
   sodipodi:docname="802t.svg"
   inkscape:version="1.3 (0e150ed, 2023-07-21)"
   xmlns:inkscape="http://www.inkscape.org/namespaces/inkscape"
   xmlns:sodipodi="http://sodipodi.sourceforge.net/DTD/sodipodi-0.dtd"
   xmlns="http://www.w3.org/2000/svg"
   xmlns:svg="http://www.w3.org/2000/svg">
  <defs
     id="defs1">
    <clipPath
       clipPathUnits="userSpaceOnUse"
       id="clipPath90">
      <path
         d="m 434.476,710.56 h 58.945 v 32.08 h -58.945 z"
         transform="matrix(0,-1.0049645,-0.99502488,0,711.458,493.54099)"
         id="path90" />
    </clipPath>
    <clipPath
       clipPathUnits="userSpaceOnUse"
       id="clipPath95">
      <path
         d="m 388.281,548.585 h 47.189 v 36.468 h -47.189 z"
         transform="matrix(0,-0.99462903,-1.0054394,0,583.951,428.83101)"
         id="path95" />
    </clipPath>
    <clipPath
       clipPathUnits="userSpaceOnUse"
       id="clipPath100">
      <path
         d="m 405.625,558.809 h 87.672 v 15.978 h -87.672 z"
         transform="matrix(0,-0.99462903,-1.0054394,0,569.925,407.83401)"
         id="path100" />
    </clipPath>
    <clipPath
       clipPathUnits="userSpaceOnUse"
       id="clipPath103">
      <path
         d="m 434.393,551.11 h 58.904 v 31.418 h -58.904 z"
         transform="matrix(0,-0.99462903,-1.0054394,0,558.48,488.32101)"
         id="path103" />
    </clipPath>
    <clipPath
       clipPathUnits="userSpaceOnUse"
       id="clipPath111">
      <path
         d="m 290.425,716.976 h 83.781 v 16.64 h -83.781 z"
         transform="matrix(0,-1.015548,-0.98473658,0,714.233,299.397)"
         id="path111" />
    </clipPath>
    <clipPath
       clipPathUnits="userSpaceOnUse"
       id="clipPath114">
      <path
         d="m 315.262,708.904 h 58.945 v 32.784 h -58.945 z"
         transform="matrix(0,-1.015548,-0.98473658,0,702.494,377.67)"
         id="path114" />
    </clipPath>
    <clipPath
       clipPathUnits="userSpaceOnUse"
       id="clipPath119">
      <path
         d="m 269.314,547.509 h 47.189 v 36.468 h -47.189 z"
         transform="matrix(0,-0.99462903,-1.0054394,0,582.869,310.50801)"
         id="path119" />
    </clipPath>
    <clipPath
       clipPathUnits="userSpaceOnUse"
       id="clipPath123">
      <path
         d="m 286.658,557.733 h 87.672 v 15.978 h -87.672 z"
         transform="matrix(0,-0.99462903,-1.0054394,0,568.843,289.51201)"
         id="path123" />
    </clipPath>
    <clipPath
       clipPathUnits="userSpaceOnUse"
       id="clipPath126">
      <path
         d="m 315.427,549.993 h 58.904 v 31.459 h -58.904 z"
         transform="matrix(0,-0.99462903,-1.0054394,0,557.356,369.99901)"
         id="path126" />
    </clipPath>
    <clipPath
       clipPathUnits="userSpaceOnUse"
       id="clipPath136">
      <path
         d="m 196.254,712.008 h 58.945 v 31.791 h -58.945 z"
         transform="translate(-252.88101,-716.39602)"
         id="path136" />
    </clipPath>
    <clipPath
       clipPathUnits="userSpaceOnUse"
       id="clipPath137">
      <path
         d="m 157.758,692.677 h 10.555 v 8.8583 h -10.555 z"
         transform="matrix(0,-0.99955263,-1,0,696.81691,159.83866)"
         id="path137" />
    </clipPath>
    <clipPath
       clipPathUnits="userSpaceOnUse"
       id="clipPath653">
      <path
         d="m 146.167,173.835 h 10.969 v 16.351 h -10.969 z"
         transform="matrix(0,-1,-1,0,189.9791,148.3613)"
         id="path653" />
    </clipPath>
  </defs>
  <sodipodi:namedview
     id="namedview1"
     pagecolor="#ffffff"
     bordercolor="#000000"
     borderopacity="0.25"
     inkscape:showpageshadow="2"
     inkscape:pageopacity="0.0"
     inkscape:pagecheckerboard="0"
     inkscape:deskcolor="#d1d1d1"
     showgrid="false"
     inkscape:zoom="1.2096184"
     inkscape:cx="301.33471"
     inkscape:cy="245.11863"
     inkscape:window-width="1440"
     inkscape:window-height="900"
     inkscape:window-x="0"
     inkscape:window-y="0"
     inkscape:window-maximized="0"
     inkscape:current-layer="g1">
    <inkscape:page
       x="0"
       y="0"
       inkscape:label="17"
       id="page1"
       width="361.72888"
       height="457.34534"
       margin="0"
       bleed="0" />
  </sodipodi:namedview>
  <g
     id="g1"
     inkscape:groupmode="layer"
     inkscape:label="17"
     transform="translate(-72.873477,-135.732)">
    <path
       style="font-size:9.6585px;font-family:'Times New Roman'"
       d="M 1.1318554,-5.7677467 2.6881567,-6.527033 h 0.1556301 v 5.3998936 q 0,0.53763136 0.042445,0.66968116 0.047161,0.1320498 0.1886425,0.20279077 0.141482,0.070741 0.5753599,0.0801731 V 0 H 1.245041 v -0.17449438 q 0.4527422,-0.009432 0.584792,-0.075457 0.1320498,-0.070741 0.1839265,-0.18392651 0.051877,-0.1179016 0.051877,-0.69326148 v -3.4521591 q 0,-0.6979775 -0.047161,-0.8960522 -0.033012,-0.150914 -0.1226176,-0.221655 -0.084889,-0.070741 -0.2075069,-0.070741 -0.1744944,0 -0.4857546,0.146198 z M 5.059711,-6.5081688 v -0.1980747 q 0.7168417,0.3537049 1.1931642,0.8347434 0.6743972,0.6885454 1.0422503,1.6176101 0.367853,0.9243486 0.367853,1.9288703 0,1.46197993 -0.7215579,2.66457633 Q 6.2245789,1.5468691 5.059711,2.0656362 V 1.8911418 q 0.5800759,-0.3254084 0.952645,-0.881904 0.3772851,-0.55177956 0.5564955,-1.4053872 0.1839266,-0.8583237 0.1839266,-1.7873884 0,-1.0045217 -0.1556302,-1.834549 Q 6.4792463,-4.6689037 6.3000359,-5.060337 6.1255415,-5.4517703 5.8331455,-5.8149073 5.5407495,-6.1780443 5.059711,-6.5081688 Z"
       id="text82"
       transform="matrix(1.3333333,0,0,1.3333333,72.5968,148.75693)"
       aria-label="1) " />
    <path
       id="path83"
       d="m 389.026,712.422 h 28.148 v 28.438 h -28.148 z"
       style="fill:#ffffff;fill-opacity:1;fill-rule:nonzero;stroke:none"
       transform="matrix(0,-1.3333333,-1.3333333,0,1122.6667,793.62667)" />
    <path
       id="path84"
       d="M 0,0 V 42.431 H 28.297 V 0"
       style="fill:none;stroke:#000000;stroke-width:0.786;stroke-linecap:butt;stroke-linejoin:miter;stroke-miterlimit:10;stroke-dasharray:none;stroke-opacity:1"
       transform="matrix(1.34,0,0,1.3267467,134.81733,218.63058)" />
    <path
       id="path85"
       d="M 0,0 H 28.297"
       style="fill:none;stroke:#000000;stroke-width:0.786;stroke-linecap:butt;stroke-linejoin:miter;stroke-miterlimit:10;stroke-dasharray:none;stroke-opacity:1"
       transform="matrix(1.34,0,0,1.3267467,134.81733,237.39609)" />
    <path
       id="path86"
       d="m 0,0 c 0,6.115 -4.943,11.024 -10.998,11.024 -6.096,0 -11.038,-4.909 -11.038,-11.024 0,-6.074 4.942,-10.982 11.038,-10.982 C -4.943,-10.982 0,-6.074 0,0 Z"
       style="fill:#524d49;fill-opacity:1;fill-rule:nonzero;stroke:#000000;stroke-width:0.786;stroke-linecap:butt;stroke-linejoin:miter;stroke-miterlimit:10;stroke-dasharray:none;stroke-opacity:1"
       transform="matrix(1.34,0,0,1.3267467,168.54111,256.16159)" />
    <path
       id="path87"
       d="m 0,0 v -51.708 l 3.707,-0.79 -7.455,-1.748 7.455,-1.788 -7.455,-1.789 7.455,-1.747 -7.455,-1.789 7.455,-1.747 -7.455,-1.789 7.455,-1.747 -7.455,-1.789 7.455,-1.747 -7.455,-1.789 L 0,-74.505 v -3.951"
       style="fill:none;stroke:#000000;stroke-width:0.786;stroke-linecap:butt;stroke-linejoin:miter;stroke-miterlimit:10;stroke-dasharray:none;stroke-opacity:1"
       transform="matrix(1.34,0,0,1.3267467,153.80379,241.58993)" />
    <path
       id="path88"
       d="M 0,0 H 18.082"
       style="fill:none;stroke:#000000;stroke-width:0.786;stroke-linecap:butt;stroke-linejoin:miter;stroke-miterlimit:10;stroke-dasharray:none;stroke-opacity:1"
       transform="matrix(1.34,0,0,1.3267467,141.66071,172.98652)" />
    <path
       id="path89"
       d="m 0,0 c 0,-1.165 -0.989,-2.163 -2.142,-2.163 -18.906,0 -18.906,0 -18.906,0 -1.153,0 -2.142,0.998 -2.142,2.163 0,50.335 0,50.335 0,50.335 0,1.165 0.989,2.163 2.142,2.163 18.906,0 18.906,0 18.906,0 C -0.989,52.498 0,51.5 0,50.335 Z"
       style="fill:none;stroke:#000000;stroke-width:0.786;stroke-linecap:butt;stroke-linejoin:miter;stroke-miterlimit:10;stroke-dasharray:none;stroke-opacity:1"
       transform="matrix(1.34,0,0,1.3267467,169.31295,138.82279)"
       clip-path="url(#clipPath90)" />
    <g
       id="text90"
       transform="matrix(1.3333333,0,0,1.3203105,176.85427,262.78347)"
       aria-label="вода&#10;медь">
      <path
         style="font-size:9.4808px;font-family:'Times New Roman'"
         d="m 2.9858964,-2.2405796 q 1.1619535,0.2407234 1.1619535,1.0878847 0,0.57866211 -0.4860762,0.8656785 Q 3.1803268,0 2.3146484,0 H 0.22220624 v -0.17128398 q 0.41200741,0 0.51848123,-0.15276679 Q 0.8517906,-0.48144686 0.8517906,-0.99529879 V -3.245137 q 0,-0.499964 -0.0509223,-0.5879207 -0.046293,-0.087957 -0.15276679,-0.1573961 -0.10184453,-0.074069 -0.4258953,-0.074069 V -4.2404358 H 2.1757695 q 0.5647742,0 0.9119714,0.087957 0.3518266,0.087957 0.5740328,0.3471973 0.2268355,0.2592406 0.2268355,0.6295844 0,0.7221702 -0.9027128,0.9351179 z M 1.6202539,-2.3470534 q 0.203689,0.00463 0.2453527,0.00463 0.6342136,0 0.9166007,-0.2407235 0.2823871,-0.2453527 0.2823871,-0.5925499 0,-0.4027489 -0.2870164,-0.5832914 Q 2.4905616,-3.9395315 1.8609773,-3.9395315 H 1.6202539 Z m 0,1.97208037 q 0.2314648,0.0740687 0.5508863,0.0740687 0.5508863,0 0.8193855,-0.24072343 0.2684992,-0.24072343 0.2684992,-0.62032578 0,-0.4258953 -0.3471973,-0.6527308 -0.3471972,-0.2268356 -0.9628937,-0.2268356 -0.1527668,0 -0.32868,0.00926 z M 6.7683432,-4.3654268 q 0.9628937,0 1.5461851,0.7314289 0.4953348,0.624955 0.4953348,1.435082 0,0.5694035 -0.2731285,1.1526948 -0.2731286,0.58329143 -0.7545754,0.87956642 -0.4768176,0.29627499 -1.0647383,0.29627499 -0.9582644,0 -1.5230386,-0.76383396 -0.4768175,-0.64347225 -0.4768175,-1.44434055 0,-0.5832914 0.2870164,-1.1573242 0.2916457,-0.5786621 0.7638339,-0.8517906 0.4721883,-0.2777578 0.9999281,-0.2777578 z M 6.624835,-4.0645225 q -0.2453527,0 -0.4953347,0.1481375 -0.2453528,0.1435082 -0.3981196,0.5092226 -0.1527667,0.3657145 -0.1527667,0.9397473 0,0.9258593 0.3657144,1.59710732 0.3703437,0.67124802 0.9721523,0.67124802 0.4490418,0 0.7406875,-0.37034374 0.2916457,-0.37034373 0.2916457,-1.2730566 0,-1.1295484 -0.4860762,-1.7776499 -0.32868,-0.4444125 -0.8379027,-0.4444125 z m 3.1184426,-0.1759133 h 3.7404714 v 0.1759133 q -0.314792,0 -0.421266,0.06481 -0.101844,0.060181 -0.162025,0.1527668 -0.06018,0.092586 -0.06018,0.6018086 v 2.0970714 q 0,0.66198944 0.111103,0.81475624 0.115733,0.14813749 0.532369,0.16202538 V 1.1758414 H 13.307836 Q 13.289319,0.79623904 13.118035,0.51385194 12.95138,0.23146484 12.650476,0.11573242 12.349572,0 11.761651,0 H 10.669137 Q 10.159914,0 9.8728979,0.08795664 9.5858815,0.18054257 9.391451,0.46755897 9.2016499,0.75457536 9.1599862,1.1758414 h -0.171284 v -1.34712538 q 0.3796023,-0.0138879 0.6897652,-0.30090429 0.3101629,-0.28701639 0.5462566,-1.12491913 0.236095,-0.8379027 0.236095,-1.6480296 0,-0.796239 -0.7175414,-0.8193855 z m 1.0230744,0.3009043 v 0.2546113 q 0,2.2729847 -0.8240147,3.38401591 h 1.5739607 q 0.425896,0 0.490706,-0.0694394 0.06481,-0.0740687 0.06481,-0.53236912 V -3.9395315 Z m 5.549801,3.32846433 q -0.652731,0.50459335 -0.819385,0.58329139 -0.249982,0.11573242 -0.532369,0.11573242 -0.439784,0 -0.7268,-0.30090429 -0.282387,-0.30090429 -0.282387,-0.79160975 0,-0.3101629 0.138879,-0.5369984 0.189801,-0.3147922 0.65736,-0.59255 0.472188,-0.2777578 1.564702,-0.6758773 v -0.1666547 q 0,-0.6342136 -0.203689,-0.8703078 -0.199059,-0.2360941 -0.583291,-0.2360941 -0.291646,0 -0.46293,0.1573961 -0.175913,0.1573961 -0.175913,0.3610851 l 0.0093,0.2684992 q 0,0.2129477 -0.111104,0.3286801 -0.106473,0.1157324 -0.282387,0.1157324 -0.171284,0 -0.282387,-0.1203617 -0.106474,-0.1203617 -0.106474,-0.3286801 0,-0.3981195 0.407378,-0.7314288 0.407379,-0.3333094 1.143437,-0.3333094 0.564774,0 0.925859,0.1898012 0.273129,0.1435082 0.402749,0.4490417 0.08333,0.1990598 0.08333,0.8147563 v 1.4397112 q 0,0.60643791 0.02315,0.74531682 0.02315,0.1342496 0.07407,0.18054257 0.05555,0.046293 0.124991,0.046293 0.07407,0 0.12962,-0.0324051 0.09722,-0.0601809 0.374973,-0.33793866 v 0.25924061 q -0.518481,0.69439451 -0.99067,0.69439451 -0.226835,0 -0.361085,-0.15739609 -0.134249,-0.15739609 -0.138879,-0.53699842 z m 0,-0.30090428 V -2.527596 q -0.699023,0.2777578 -0.902713,0.3934902 -0.365714,0.2036891 -0.52311,0.4258953 -0.157396,0.2222063 -0.157396,0.4860762 0,0.33330933 0.19906,0.55551557 0.199059,0.21757695 0.4583,0.21757695 0.351827,0 0.925859,-0.46292967 z"
         id="path738" />
      <path
         style="font-size:9.4808px;font-family:'Times New Roman'"
         d="m -58.47461,-10.846028 1.323979,-3.134034 h 1.430452 v 0.175914 q -0.314792,0 -0.421266,0.06481 -0.101844,0.06018 -0.162025,0.152766 -0.06018,0.09259 -0.06018,0.601809 v 2.249838 q 0,0.439783 0.04166,0.569404 0.04629,0.124991 0.180542,0.1898009 0.138879,0.06481 0.421266,0.06481 v 0.171284 h -2.050778 v -0.171284 q 0.379602,0 0.509223,-0.1388791 0.12962,-0.143508 0.12962,-0.685136 v -2.550742 l -1.499892,3.5460411 h -0.162026 L -60.3217,-13.285667 v 2.550742 q 0,0.439783 0.04629,0.569404 0.04629,0.124991 0.180543,0.1898009 0.13425,0.06481 0.416637,0.06481 v 0.171284 h -1.620254 v -0.171284 q 0.412007,0 0.52774,-0.1481371 0.115732,-0.152767 0.115732,-0.675878 v -2.249838 q 0,-0.495335 -0.05092,-0.583291 -0.05092,-0.09259 -0.157396,-0.162026 -0.106474,-0.07407 -0.435154,-0.07407 v -0.175914 h 1.490633 z m 3.976556,-1.536926 q -0.0046,0.944376 0.458301,1.481375 0.462929,0.536998 1.087884,0.536998 0.416637,0 0.722171,-0.226836 0.310163,-0.231464 0.518481,-0.78698 l 0.143508,0.09259 q -0.09721,0.634214 -0.564774,1.157324 -0.467559,0.5184814 -1.171212,0.5184814 -0.763834,0 -1.310091,-0.5925504 -0.541628,-0.597179 -0.541628,-1.601736 0,-1.087885 0.555516,-1.694323 0.560145,-0.611067 1.402677,-0.611067 0.712911,0 1.171212,0.472188 0.4583,0.467559 0.4583,1.25454 z m 0,-0.2685 h 1.962822 q -0.02315,-0.407378 -0.09721,-0.574032 -0.115732,-0.259241 -0.347197,-0.407378 -0.226836,-0.148138 -0.476818,-0.148138 -0.384231,0 -0.689765,0.300904 -0.300904,0.296275 -0.351827,0.828644 z m 3.96525,-1.328608 h 3.740471 v 0.175914 q -0.314792,0 -0.421266,0.06481 -0.101844,0.06018 -0.162025,0.152766 -0.06018,0.09259 -0.06018,0.601809 v 2.097071 q 0,0.66199 0.111103,0.814757 0.115733,0.1481372 0.532369,0.1620251 v 1.3471253 h -0.175913 q -0.01852,-0.3796023 -0.189801,-0.6619894 -0.166655,-0.2823871 -0.467559,-0.3981195 -0.300904,-0.1157324 -0.888825,-0.1157324 h -1.092514 q -0.509223,0 -0.796239,0.087957 -0.287017,0.092586 -0.481447,0.3796023 -0.189801,0.2870164 -0.231465,0.7082824 h -0.171284 v -1.3471253 q 0.379602,-0.013888 0.689765,-0.3009041 0.310163,-0.287017 0.546257,-1.124919 0.236095,-0.837903 0.236095,-1.64803 0,-0.796239 -0.717541,-0.819385 z m 1.023074,0.300905 v 0.254611 q 0,2.272985 -0.824015,3.384016 h 1.573961 q 0.425895,0 0.490706,-0.06944 0.06481,-0.07407 0.06481,-0.532369 v -3.036818 z m 4.442732,1.587848 0.52774,-0.0093 q 1.888753,0 1.888753,1.166583 0,0.541627 -0.46293,0.870307 -0.4583,0.3240511 -1.323979,0.3240511 h -2.03689 v -0.171284 q 0.412007,0 0.527739,-0.1481371 0.115733,-0.152767 0.115733,-0.675878 v -2.249838 q 0,-0.495335 -0.05092,-0.583291 -0.05092,-0.09259 -0.157397,-0.162026 -0.106473,-0.07407 -0.435153,-0.07407 v -0.175914 h 2.217433 v 0.175914 q -0.458301,0 -0.564774,0.05555 -0.106474,0.05092 -0.175914,0.138879 -0.06944,0.08333 -0.06944,0.624955 z m 0,1.985969 q 0.245353,0.06481 0.490705,0.06481 0.46293,0 0.749946,-0.245353 0.291646,-0.245353 0.291646,-0.620326 0,-0.888825 -1.236022,-0.888825 -0.106474,0 -0.296275,0.0046 z"
         id="path739" />
    </g>
    <path
       id="path91"
       d="M 0,0 -7.085,-2.538"
       style="fill:none;stroke:#000000;stroke-width:0.786;stroke-linecap:butt;stroke-linejoin:miter;stroke-miterlimit:10;stroke-dasharray:none;stroke-opacity:1"
       transform="matrix(1.34,0,0,1.3267467,132.72023,251.47022)" />
    <path
       id="path92"
       d="M 0,0 -3.518,-5.133 -2.939,1.159 0,0"
       style="fill:#000000;fill-opacity:1;fill-rule:nonzero;stroke:none"
       transform="matrix(0,-1.3333333,-1.3333333,0,132.204,249.15067)" />
    <path
       style="font-size:9.6585px;font-family:'Times New Roman'"
       d="M 4.4944093,-2.3580322 V -1.688351 H 3.6360856 V 0 H 2.857935 V -1.688351 H 0.15091406 V -2.2920073 L 3.1173185,-6.527033 h 0.5187671 v 4.1690008 z m -1.6364743,0 v -3.1739112 l -2.24484664,3.1739112 z m 2.201776,-4.1501366 v -0.1980747 q 0.7168417,0.3537049 1.1931642,0.8347434 0.6743972,0.6885454 1.0422503,1.6176101 0.367853,0.9243486 0.367853,1.9288703 0,1.46197993 -0.7215579,2.66457633 Q 6.2245789,1.5468691 5.059711,2.0656362 V 1.8911418 q 0.5800759,-0.3254084 0.952645,-0.881904 0.3772851,-0.55177956 0.5564955,-1.4053872 0.1839266,-0.8583237 0.1839266,-1.7873884 0,-1.0045217 -0.1556302,-1.834549 Q 6.4792463,-4.6689037 6.3000359,-5.060337 6.1255415,-5.4517703 5.8331455,-5.8149073 5.5407495,-6.1780443 5.059711,-6.5081688 Z"
       id="text92"
       transform="matrix(1.3333333,0,0,1.3333333,287.73493,148.75693)"
       aria-label="4) " />
    <path
       id="path93"
       d="m 388.943,552.932 h 28.148 v 27.858 h -28.148 z"
       style="fill:#959292;fill-opacity:1;fill-rule:nonzero;stroke:none"
       transform="matrix(0,-1.3333333,-1.3333333,0,1122.6667,793.62667)" />
    <path
       id="path94"
       d="M 0,0 V 41.993 H 28.01 V 0"
       style="fill:none;stroke:#000000;stroke-width:0.778;stroke-linecap:butt;stroke-linejoin:miter;stroke-miterlimit:10;stroke-dasharray:none;stroke-opacity:1"
       transform="matrix(1.32612,0,0,1.3405333,348.27757,218.76442)"
       clip-path="url(#clipPath95)" />
    <path
       id="path96"
       d="M 0,0 H 28.01"
       style="fill:none;stroke:#000000;stroke-width:0.778;stroke-linecap:butt;stroke-linejoin:miter;stroke-miterlimit:10;stroke-dasharray:none;stroke-opacity:1"
       transform="matrix(1.32612,0,0,1.3405333,348.27757,237.5292)" />
    <path
       id="path97"
       d="m 0,0 c -3.932,0 -7.037,3.105 -7.037,6.954 0,3.891 3.105,6.996 7.037,6.996 3.891,0 7.037,-3.105 7.037,-6.996 C 7.037,3.105 3.891,0 0,0"
       style="fill:#ffffff;fill-opacity:1;fill-rule:nonzero;stroke:none"
       transform="matrix(0,-1.3333333,-1.3333333,0,376.152,256.27067)" />
    <path
       id="path98"
       d="m 0,0 c 0,3.911 -3.121,6.999 -6.992,6.999 -3.912,0 -7.034,-3.088 -7.034,-6.999 0,-3.87 3.122,-6.999 7.034,-6.999 C -3.121,-6.999 0,-3.87 0,0 Z"
       style="fill:#000000;fill-opacity:1;fill-rule:nonzero;stroke:#000000;stroke-width:0.778;stroke-linecap:butt;stroke-linejoin:miter;stroke-miterlimit:10;stroke-dasharray:none;stroke-opacity:1"
       transform="matrix(1.32612,0,0,1.3405333,376.14996,256.29399)" />
    <path
       id="path99"
       d="m 0,0 v -55.003 l 3.663,-0.782 -7.367,-1.77 7.367,-1.73 -7.367,-1.77 7.367,-1.729 -7.367,-1.77 7.367,-1.729 -7.367,-1.771 7.367,-1.729 -7.367,-1.77 7.367,-1.729 -7.367,-1.771 L 0,-77.564 v -3.911"
       style="fill:none;stroke:#000000;stroke-width:0.778;stroke-linecap:butt;stroke-linejoin:miter;stroke-miterlimit:10;stroke-dasharray:none;stroke-opacity:1"
       transform="matrix(1.32612,0,0,1.3405333,366.87773,246.9116)"
       clip-path="url(#clipPath100)" />
    <path
       id="path101"
       d="M 0,0 H 17.896"
       style="fill:none;stroke:#000000;stroke-width:0.778;stroke-linecap:butt;stroke-linejoin:miter;stroke-miterlimit:10;stroke-dasharray:none;stroke-opacity:1"
       transform="matrix(1.32612,0,0,1.3405333,355.0116,173.17824)" />
    <path
       id="path102"
       d="m 0,0 c 0,-1.153 -0.957,-2.141 -2.123,-2.141 -18.687,0 -18.687,0 -18.687,0 -1.165,0 -2.122,0.988 -2.122,2.141 0,49.774 0,49.774 0,49.774 0,1.153 0.957,2.141 2.122,2.141 18.687,0 18.687,0 18.687,0 1.166,0 2.123,-0.988 2.123,-2.141 z"
       style="fill:none;stroke:#000000;stroke-width:0.778;stroke-linecap:butt;stroke-linejoin:miter;stroke-miterlimit:10;stroke-dasharray:none;stroke-opacity:1"
       transform="matrix(1.32612,0,0,1.3405333,382.05517,139.01609)"
       clip-path="url(#clipPath103)" />
    <g
       id="text103"
       transform="matrix(1.3333333,0,0,1.3476216,389.06733,262.94907)"
       aria-label="керосин&#10;сталь">
      <path
         style="font-size:9.285px;font-family:'Times New Roman'"
         d="M 4.4566186,0 H 3.2325219 q -0.5712451,-0.82966551 -1.0336816,-1.7001342 -0.1088086,-0.1994825 -0.1994824,-0.29469 -0.08614,-0.099741 -0.2402857,-0.099741 -0.054404,0 -0.1722802,0.00907 v 1.11075436 q 0,0.44883545 0.049871,0.5757788 0.054404,0.12240967 0.190415,0.17681396 0.1360107,0.0544043 0.4579028,0.0544043 V 0 H 0.2085498 v -0.16774658 q 0.40349853,0 0.51684081,-0.14507812 Q 0.8387329,-0.46243652 0.8387329,-0.97474364 V -3.1781176 q 0,-0.485105 -0.0498706,-0.5712451 -0.0498706,-0.090674 -0.1541455,-0.1586792 -0.1042749,-0.072539 -0.42616699,-0.072539 v -0.1722803 h 2.0764306 v 0.1722803 q -0.3762963,0 -0.4669702,0.054404 -0.08614,0.054404 -0.1586792,0.1360107 -0.072539,0.077073 -0.072539,0.6120484 v 0.8160644 q 0.1042749,0.00907 0.1405444,0.00907 0.2765552,0 0.5168408,-0.1541455 0.2448193,-0.1586792 0.4352344,-0.6664526 0.1768139,-0.4805713 0.2901562,-0.6483179 0.117876,-0.1677466 0.3218921,-0.2720215 0.2085498,-0.1088086 0.4352344,-0.1088086 0.2448193,0 0.3898974,0.117876 0.1450782,0.117876 0.1450782,0.308291 0,0.1586792 -0.1042749,0.2720215 -0.1042749,0.1088086 -0.2901563,0.1088086 -0.099741,0 -0.249353,-0.054404 -0.1904151,-0.068005 -0.2901563,-0.068005 -0.2085498,0 -0.3445605,0.3581616 -0.1541455,0.412566 -0.2266846,0.5349756 -0.072539,0.117876 -0.2765551,0.3173584 0.1405444,0.040803 0.3037573,0.2085498 0.1677466,0.1677466 0.616582,0.9566089 0.3581616,0.63018308 0.5349756,0.79792966 0.1813476,0.16774658 0.5213745,0.17681396 z m 0.7972553,-2.5887378 q -0.00453,0.9248731 0.4488354,1.4507813 0.4533691,0.52590817 1.0654175,0.52590817 0.4080322,0 0.7072558,-0.22215088 Q 7.7791399,-1.0608838 7.983156,-1.6049267 l 0.1405445,0.090674 q -0.095208,0.62111571 -0.5531104,1.13342283 -0.4579028,0.50777343 -1.1470239,0.50777343 -0.748059,0 -1.2830346,-0.58031249 -0.5304419,-0.58484617 -0.5304419,-1.56865717 0,-1.0654175 0.544043,-1.6593311 0.5485766,-0.5984472 1.3737084,-0.5984472 0.6981885,0 1.1470239,0.4624365 0.4488355,0.4579028 0.4488355,1.2286303 z m 0,-0.262954 H 7.176159 Q 7.1534905,-3.2506567 7.0809515,-3.4138696 6.9676092,-3.6677563 6.7409246,-3.8128344 6.5187737,-3.9579125 6.2739544,-3.9579125 q -0.3762964,0 -0.67552,0.2946899 -0.2946899,0.2901562 -0.3445605,0.8115308 z m 3.1019154,-0.8886035 1.278501,-0.5168409 h 0.1722803 v 0.97021 q 0.3218924,-0.5485767 0.6437844,-0.7661939 0.326426,-0.2221508 0.684587,-0.2221508 0.62565,0 1.042749,0.4896386 0.512307,0.5984473 0.512307,1.5595899 0,1.0744848 -0.616582,1.77720696 -0.507773,0.5757788 -1.278501,0.5757788 -0.335493,0 -0.580312,-0.09520752 -0.181348,-0.06800537 -0.4080324,-0.27202148 V 1.0246142 q 0,0.426167 0.049871,0.5395093 0.054404,0.117876 0.1813478,0.1858814 0.131477,0.068005 0.471504,0.068005 V 1.9857568 H 8.3331209 V 1.8180102 h 0.1133423 q 0.249353,0.00453 0.4261669,-0.095208 0.08614,-0.049871 0.1314771,-0.1632129 0.049871,-0.1088086 0.049871,-0.56217771 V -2.9287646 q 0,-0.4034985 -0.036269,-0.5123071 -0.03627,-0.1088086 -0.117876,-0.1632129 -0.077073,-0.054404 -0.2130835,-0.054404 -0.1088086,0 -0.2765552,0.063472 z m 1.4507813,0.7208569 v 1.5505224 q 0,0.50323975 0.040803,0.66191894 0.063472,0.2629541 0.3082912,0.46243652 0.249353,0.19948242 0.625649,0.19948242 0.453369,0 0.734458,-0.35362793 0.367229,-0.46243651 0.367229,-1.30116945 0,-0.9520751 -0.417099,-1.4643823 -0.290157,-0.3536279 -0.689121,-0.3536279 -0.217618,0 -0.430701,0.1088086 -0.163213,0.081606 -0.5395094,0.4896387 z M 15.36389,-4.2752709 q 0.943007,0 1.514253,0.7163232 0.485105,0.6120483 0.485105,1.4054443 0,0.5576441 -0.267488,1.1288892 -0.267488,0.57124507 -0.738992,0.86140131 -0.46697,0.29015625 -1.042749,0.29015625 -0.938474,0 -1.491584,-0.74805907 -0.466971,-0.63018309 -0.466971,-1.41451169 0,-0.5712451 0.281089,-1.1334228 0.285623,-0.5667115 0.748059,-0.8341992 0.462437,-0.2720215 0.979278,-0.2720215 z m -0.140545,0.2946899 q -0.240285,0 -0.485105,0.1450781 -0.240285,0.1405445 -0.389897,0.4987061 -0.149612,0.3581616 -0.149612,0.9203393 0,0.9067383 0.358162,1.56412353 0.362695,0.65738524 0.952075,0.65738524 0.439768,0 0.72539,-0.3626953 0.285623,-0.36269531 0.285623,-1.24676517 0,-1.1062206 -0.476038,-1.7409374 -0.321892,-0.4352344 -0.820598,-0.4352344 z m 6.521502,2.4028564 q -0.167747,0.82059815 -0.657385,1.2648999 -0.489639,0.43976806 -1.083553,0.43976806 -0.707255,0 -1.233164,-0.59391357 -0.525908,-0.59391359 -0.525908,-1.60492669 0,-0.9792774 0.580313,-1.5913257 0.584846,-0.6120483 1.40091,-0.6120483 0.612049,0 1.00648,0.3264258 0.394431,0.321892 0.394431,0.6709863 0,0.1722802 -0.113342,0.2810888 -0.108809,0.1042749 -0.308291,0.1042749 -0.267488,0 -0.403499,-0.1722802 -0.07707,-0.095208 -0.104275,-0.3626953 -0.02267,-0.2674878 -0.181347,-0.4080323 -0.15868,-0.1360107 -0.439769,-0.1360107 -0.453369,0 -0.729924,0.3354932 -0.367229,0.4443017 -0.367229,1.174226 0,0.7435254 0.362695,1.3147705 0.367229,0.56671141 0.988345,0.56671141 0.444302,0 0.79793,-0.30375732 0.249353,-0.20854979 0.485105,-0.75712649 z m 1.826968,0.2992236 1.795342,-2.0764306 q -0.0091,-0.3490942 -0.131477,-0.485105 -0.122409,-0.1360107 -0.421633,-0.1405444 v -0.1722803 h 1.931352 v 0.1722803 q -0.303757,0 -0.408032,0.063472 -0.104275,0.058938 -0.163213,0.1496118 -0.05894,0.090674 -0.05894,0.5893799 v 2.20337396 q 0,0.48057128 0.04987,0.5757788 0.04987,0.0906738 0.154145,0.16321289 0.108809,0.0680054 0.426167,0.0680054 V 0 h -2.008425 v -0.16774658 q 0.376297,0 0.50324,-0.13601074 0.126943,-0.14054443 0.126943,-0.67098632 V -2.9287646 l -1.795342,2.08096432 q 0.0091,0.38536376 0.108809,0.53044189 0.09974,0.14507812 0.430701,0.14961181 V 0 h -1.917752 v -0.16774658 q 0.403499,0 0.516841,-0.14507812 0.113342,-0.14961182 0.113342,-0.66191894 V -3.1781176 q 0,-0.485105 -0.04987,-0.5712451 -0.04987,-0.090674 -0.154146,-0.1586792 -0.104275,-0.072539 -0.426167,-0.072539 v -0.1722803 h 2.008426 v 0.1722803 q -0.303758,0 -0.408033,0.063472 -0.104275,0.058938 -0.163213,0.1496118 -0.05894,0.090674 -0.05894,0.5893799 z m 5.048254,-1.0200805 h 1.795342 v -0.8795361 q 0,-0.3944312 -0.03174,-0.5123071 -0.03174,-0.1224097 -0.158679,-0.2040162 -0.122409,-0.08614 -0.439768,-0.08614 v -0.1722803 h 2.008425 v 0.1722803 q -0.281088,0 -0.412566,0.063472 -0.126943,0.063472 -0.17228,0.1858813 -0.04534,0.117876 -0.04534,0.5531104 v 2.20337396 q 0,0.39443115 0.03174,0.52137451 0.03627,0.12694335 0.167747,0.2085498 0.131477,0.0770727 0.4307,0.0770727 V 0 h -2.008425 v -0.16774658 q 0.376297,0 0.50324,-0.13601074 0.126943,-0.14054443 0.126943,-0.67098632 V -2.0038916 h -1.795342 v 1.02914796 q 0,0.39443115 0.03174,0.52137451 0.03627,0.12694335 0.167747,0.2085498 0.131477,0.0770727 0.430701,0.0770727 V 0 h -2.008426 v -0.16774658 q 0.403499,0 0.516841,-0.14507812 0.113342,-0.14961182 0.113342,-0.66191894 V -3.1781176 q 0,-0.3944312 -0.03627,-0.5213745 -0.03174,-0.1269434 -0.163213,-0.2040161 -0.131477,-0.077073 -0.430701,-0.077073 v -0.1722803 h 2.008426 v 0.1722803 q -0.281089,0 -0.412566,0.063472 -0.126944,0.063472 -0.172281,0.1858813 -0.04534,0.117876 -0.04534,0.5531104 z"
         id="path740" />
      <path
         style="font-size:9.285px;font-family:'Times New Roman'"
         d="m -57.693901,-11.119919 q -0.167746,0.820598 -0.657385,1.2648999 -0.489638,0.4397681 -1.083552,0.4397681 -0.707256,0 -1.233164,-0.593914 -0.525908,-0.593913 -0.525908,-1.604926 0,-0.979278 0.580312,-1.591326 0.584846,-0.612048 1.400911,-0.612048 0.612048,0 1.006479,0.326425 0.394432,0.321893 0.394432,0.670987 0,0.17228 -0.113343,0.281089 -0.108808,0.104275 -0.308291,0.104275 -0.267488,0 -0.403498,-0.172281 -0.07707,-0.09521 -0.104275,-0.362695 -0.02267,-0.267488 -0.181348,-0.408032 -0.158679,-0.136011 -0.439768,-0.136011 -0.453369,0 -0.729924,0.335493 -0.367229,0.444302 -0.367229,1.174226 0,0.743526 0.362695,1.314771 0.367229,0.566711 0.988345,0.566711 0.444302,0 0.797929,-0.303757 0.249353,-0.20855 0.485105,-0.757127 z m 0.550426,-2.575137 h 3.590684 l 0.181348,1.124356 h -0.204017 q -0.0544,-0.340027 -0.181347,-0.525908 -0.126944,-0.185882 -0.290156,-0.24482 -0.163213,-0.05894 -0.557644,-0.05894 h -0.362696 v 2.883428 q 0,0.462437 0.05441,0.5893799 0.05894,0.1224096 0.185881,0.1632129 0.126943,0.040803 0.580312,0.054404 v 0.1677465 h -2.257778 v -0.1677465 q 0.435234,-0.00907 0.557644,-0.1405445 0.126943,-0.131477 0.126943,-0.6664526 v -2.883428 h -0.371762 q -0.389898,0 -0.530442,0.04987 -0.140545,0.04534 -0.272022,0.226684 -0.126943,0.176814 -0.217617,0.553111 h -0.204016 z m 6.555713,3.554414 q -0.63925,0.4941727 -0.802463,0.5712455 -0.244819,0.1133423 -0.521374,0.1133423 -0.430701,0 -0.71179,-0.29469 -0.276555,-0.2946898 -0.276555,-0.7752608 0,-0.303758 0.136011,-0.525909 0.185881,-0.308291 0.643784,-0.580312 0.462436,-0.272022 1.532387,-0.661919 v -0.163213 q 0,-0.621116 -0.199482,-0.852334 -0.194949,-0.231218 -0.571245,-0.231218 -0.285623,0 -0.453369,0.154145 -0.172281,0.154146 -0.172281,0.353628 l 0.0091,0.262954 q 0,0.20855 -0.108809,0.321892 -0.104275,0.113343 -0.276555,0.113343 -0.167746,0 -0.276555,-0.117876 -0.104275,-0.117876 -0.104275,-0.321892 0,-0.389898 0.398965,-0.716324 0.398965,-0.326425 1.119822,-0.326425 0.55311,0 0.906738,0.185881 0.267488,0.140544 0.394431,0.439768 0.08161,0.194949 0.08161,0.79793 v 1.409978 q 0,0.593913 0.02267,0.729924 0.02267,0.131477 0.07254,0.176814 0.0544,0.04534 0.12241,0.04534 0.07254,0 0.126943,-0.03174 0.09521,-0.05894 0.367229,-0.330959 v 0.253886 q -0.507773,0.6800541 -0.97021,0.6800541 -0.222151,0 -0.353628,-0.1541455 -0.131477,-0.1541455 -0.136011,-0.5259086 z m 0,-0.29469 v -1.582258 q -0.684587,0.272022 -0.884069,0.385364 -0.358162,0.199482 -0.512308,0.4171 -0.154145,0.217617 -0.154145,0.476037 0,0.326426 0.194949,0.544043 0.194948,0.2130836 0.448835,0.2130836 0.344561,0 0.906738,-0.4533696 z m 2.296925,-3.259724 h 3.713093 v 0.172281 q -0.308291,0 -0.412566,0.06347 -0.09974,0.05894 -0.158679,0.149612 -0.05894,0.09067 -0.05894,0.58938 v 2.203374 q 0,0.480571 0.04987,0.5757788 0.04987,0.090674 0.154145,0.1632129 0.108809,0.068005 0.426167,0.068005 v 0.1677465 h -2.148969 v -0.1677465 q 0.349094,0 0.480571,-0.03627 0.136011,-0.036269 0.213083,-0.1722802 0.07707,-0.1405443 0.07707,-0.5984473 v -2.883428 h -1.382776 v 1.750005 q 0,0.992879 -0.09067,1.396377 -0.08614,0.3989649 -0.349094,0.5939137 -0.25842,0.190415 -0.593913,0.190415 -0.580313,0 -0.580313,-0.4805713 0,-0.1632124 0.09067,-0.2674874 0.09521,-0.104275 0.244819,-0.104275 0.158679,0 0.29469,0.131477 0.176814,0.17228 0.267488,0.17228 0.204016,0 0.29469,-0.340027 0.09521,-0.34456 0.09521,-1.201428 v -0.915806 q 0,-0.707256 -0.104274,-0.861401 -0.09974,-0.154146 -0.521375,-0.185881 z m 5.50647,1.849746 0.516841,-0.0091 q 1.849746,0 1.849746,1.14249 0,0.530442 -0.453369,0.8523342 -0.448835,0.3173584 -1.296636,0.3173584 h -1.994824 v -0.1677465 q 0.403499,0 0.516841,-0.1450782 0.113342,-0.1496119 0.113342,-0.6619189 v -2.203374 q 0,-0.485105 -0.04987,-0.571245 -0.04987,-0.09067 -0.154146,-0.158679 -0.104275,-0.07254 -0.426167,-0.07254 v -0.172281 h 2.171638 v 0.172281 q -0.448835,0 -0.55311,0.0544 -0.104275,0.04987 -0.17228,0.136011 -0.06801,0.08161 -0.06801,0.612048 z m 0,1.944954 q 0.240286,0.063472 0.480572,0.063472 0.453369,0 0.734458,-0.2402857 0.285622,-0.240286 0.285622,-0.607515 0,-0.870468 -1.210495,-0.870468 -0.104275,0 -0.290157,0.0045 z"
         id="path741" />
    </g>
    <path
       id="path104"
       d="M 0,0 -11.071,-3.911"
       style="fill:none;stroke:#000000;stroke-width:0.778;stroke-linecap:butt;stroke-linejoin:miter;stroke-miterlimit:10;stroke-dasharray:none;stroke-opacity:1"
       transform="matrix(1.32612,0,0,1.3405333,351.64459,253.97621)" />
    <path
       id="path105"
       d="M 0,0 -3.518,-5.009 -3.146,0.952 0,0"
       style="fill:#000000;fill-opacity:1;fill-rule:nonzero;stroke:none"
       transform="matrix(0,-1.3333333,-1.3333333,0,350.87467,251.58)" />
    <path
       style="font-size:9.6585px;font-family:'Times New Roman'"
       d="M 4.4283844,-1.2308928 3.9803583,0 H 0.20750683 V -0.17449438 Q 1.8722775,-1.6930671 2.5513908,-2.6551442 q 0.6791133,-0.9620771 0.6791133,-1.759092 0,-0.6083723 -0.3725691,-0.9998056 -0.3725691,-0.3914334 -0.8913362,-0.3914334 -0.4716064,0 -0.8488916,0.2782478 -0.37256904,0.2735318 -0.55177948,0.806447 H 0.39143334 Q 0.50933495,-5.5932523 0.99508957,-6.0601426 1.4855603,-6.527033 2.2165502,-6.527033 q 0.7781506,0 1.2969177,0.4999028 0.5234832,0.4999028 0.5234832,1.1790161 0,0.4857546 -0.2263711,0.9715092 -0.3489888,0.7640025 -1.1318555,1.6176101 -1.1743,1.28276949 -1.466696,1.54686909 h 1.6694868 q 0.5093349,0 0.7121257,-0.0377285 0.2075068,-0.0377285 0.3725691,-0.15091405 Q 4.1312723,-1.0186699 4.25389,-1.2308928 Z m 0.6313266,-5.277276 v -0.1980747 q 0.7168417,0.3537049 1.1931642,0.8347434 0.6743972,0.6885454 1.0422503,1.6176101 0.367853,0.9243486 0.367853,1.9288703 0,1.46197993 -0.7215579,2.66457633 Q 6.2245789,1.5468691 5.059711,2.0656362 V 1.8911418 q 0.5800759,-0.3254084 0.952645,-0.881904 0.3772851,-0.55177956 0.5564955,-1.4053872 0.1839266,-0.8583237 0.1839266,-1.7873884 0,-1.0045217 -0.1556302,-1.834549 Q 6.4792463,-4.6689037 6.3000359,-5.060337 6.1255415,-5.4517703 5.8331455,-5.8149073 5.5407495,-6.1780443 5.059711,-6.5081688 Z"
       id="text105"
       transform="matrix(1.3333333,0,0,1.3333333,72.5968,307.54413)"
       aria-label="2) " />
    <path
       id="path106"
       d="m 269.811,710.808 h 28.148 v 29.017 h -28.148 z"
       style="fill:#959292;fill-opacity:1;fill-rule:nonzero;stroke:none"
       transform="matrix(0,-1.3333333,-1.3333333,0,1122.6667,793.62667)" />
    <path
       id="path107"
       d="M 0,0 V 42.878 H 28.573 V 0"
       style="fill:none;stroke:#000000;stroke-width:0.794;stroke-linecap:butt;stroke-linejoin:miter;stroke-miterlimit:10;stroke-dasharray:none;stroke-opacity:1"
       transform="matrix(1.354,0,0,1.31292,136.27902,377.58333)" />
    <path
       id="path108"
       d="M 0,0 H 28.573"
       style="fill:none;stroke:#000000;stroke-width:0.794;stroke-linecap:butt;stroke-linejoin:miter;stroke-miterlimit:10;stroke-dasharray:none;stroke-opacity:1"
       transform="matrix(1.354,0,0,1.31292,136.27902,396.34889)" />
    <path
       id="path109"
       d="m 0,0 c 0,6.18 -4.973,11.14 -11.128,11.14 -6.154,0 -11.127,-4.96 -11.127,-11.14 0,-6.137 4.973,-11.098 11.127,-11.098 C -4.973,-11.098 0,-6.137 0,0 Z"
       style="fill:#000000;fill-opacity:1;fill-rule:nonzero;stroke:#000000;stroke-width:0.794;stroke-linecap:butt;stroke-linejoin:miter;stroke-miterlimit:10;stroke-dasharray:none;stroke-opacity:1"
       transform="matrix(1.354,0,0,1.31292,170.66114,415.11314)" />
    <path
       id="path110"
       d="m 0,0 v -52.253 l 3.791,-0.798 -7.541,-1.766 7.541,-1.808 -7.541,-1.807 7.541,-1.766 -7.541,-1.807 7.541,-1.766 -7.541,-1.808 7.541,-1.765 -7.541,-1.808 7.541,-1.765 -7.541,-1.808 3.75,-2.564 v -3.994"
       style="fill:none;stroke:#000000;stroke-width:0.794;stroke-linecap:butt;stroke-linejoin:miter;stroke-miterlimit:10;stroke-dasharray:none;stroke-opacity:1"
       transform="matrix(1.354,0,0,1.31292,155.59518,400.54236)"
       clip-path="url(#clipPath111)" />
    <path
       id="path112"
       d="M 0,0 H 18.261"
       style="fill:none;stroke:#000000;stroke-width:0.794;stroke-linecap:butt;stroke-linejoin:miter;stroke-miterlimit:10;stroke-dasharray:none;stroke-opacity:1"
       transform="matrix(1.354,0,0,1.31292,143.23316,331.93966)" />
    <path
       id="path113"
       d="m 0,0 c 0,-1.177 -1.019,-2.186 -2.201,-2.186 -19.076,0 -19.076,0 -19.076,0 -1.182,0 -2.16,1.009 -2.16,2.186 0,50.865 0,50.865 0,50.865 0,1.177 0.978,2.186 2.16,2.186 19.076,0 19.076,0 19.076,0 1.182,0 2.201,-1.009 2.201,-2.186 z"
       style="fill:none;stroke:#000000;stroke-width:0.794;stroke-linecap:butt;stroke-linejoin:miter;stroke-miterlimit:10;stroke-dasharray:none;stroke-opacity:1"
       transform="matrix(1.354,0,0,1.31292,171.48979,297.77617)"
       clip-path="url(#clipPath114)" />
    <g
       id="text114"
       transform="matrix(1.3333333,0,0,1.2931271,179.4484,421.73627)"
       aria-label="керосин&#10;сталь">
      <path
         style="font-size:9.6801px;font-family:'Times New Roman'"
         d="M 4.6462591,0 H 3.370074 Q 2.774521,-0.86496991 2.2924066,-1.7724793 2.1789679,-1.9804502 2.0844357,-2.0797091 1.9946301,-2.1836945 1.8339253,-2.1836945 q -0.056719,0 -0.1796113,0.00945 v 1.1580198 q 0,0.46793456 0.051993,0.60027968 0.056719,0.12761852 0.1985177,0.18433785 0.1417983,0.0567193 0.4773877,0.0567193 V 0 H 0.21742413 v -0.17488463 q 0.42066843,0 0.53883372,-0.15125157 0.11816529,-0.15597818 0.11816529,-0.6900853 v -2.2971332 q 0,-0.5057474 -0.0519927,-0.595553 Q 0.77043768,-4.00344 0.66172562,-4.0743392 0.55301355,-4.1499649 0.21742413,-4.1499649 V -4.3295762 H 2.3822122 v 0.1796113 q -0.3923087,0 -0.486841,0.056719 -0.089806,0.056719 -0.1654314,0.1417983 -0.075626,0.080352 -0.075626,0.6380926 v 0.8507901 q 0.1087121,0.00945 0.146525,0.00945 0.2883233,0 0.5388337,-0.1607048 0.255237,-0.1654314 0.4537547,-0.6948119 0.1843379,-0.5010208 0.3025032,-0.6759054 0.1228919,-0.1748847 0.3355894,-0.2835967 0.2174241,-0.1134387 0.4537547,-0.1134387 0.255237,0 0.4064886,0.1228919 0.1512516,0.1228919 0.1512516,0.3214096 0,0.1654314 -0.1087121,0.2835967 -0.1087121,0.1134387 -0.3025032,0.1134387 -0.1039854,0 -0.2599636,-0.056719 -0.1985177,-0.070899 -0.3025031,-0.070899 -0.2174242,0 -0.3592225,0.3734024 -0.1607048,0.4301216 -0.2363306,0.5577401 -0.075626,0.1228919 -0.2883233,0.3308628 0.146525,0.04254 0.316683,0.2174242 0.1748846,0.1748846 0.6428192,0.997315 0.3734023,0.656999 0.5577401,0.83188362 0.1890645,0.17488463 0.5435603,0.18433785 z m 0.8563483,-2.6988952 q -0.00473,0.9642288 0.4679346,1.5125157 0.4726611,0.54828694 1.1107537,0.54828694 0.425395,0 0.7373514,-0.23160396 0.316683,-0.23633058 0.5293805,-0.80352398 l 0.1465249,0.094532 q -0.099259,0.64754583 -0.5766466,1.18165293 -0.4773877,0.52938049 -1.1958327,0.52938049 -0.7798909,0 -1.3376311,-0.60500627 Q 4.8314286,-1.082394 4.8314286,-2.1080687 q 0,-1.1107538 0.5671934,-1.7299399 0.57192,-0.6239127 1.4321633,-0.6239127 0.7278982,0 1.1958327,0.4821144 0.4679345,0.4773877 0.4679345,1.2809117 z m 0,-0.2741435 H 7.5066907 Q 7.4830577,-3.3889805 7.4074319,-3.5591385 7.2892666,-3.8238287 7.052936,-3.9750803 6.8213321,-4.1263319 6.566095,-4.1263319 q -0.3923087,0 -0.7042651,0.3072298 -0.3072297,0.3025031 -0.3592225,0.8460634 z m 3.1835733,-0.9264158 1.3329043,-0.5388337 h 0.179611 v 1.0114948 q 0.33559,-0.57192 0.671179,-0.7987973 0.340316,-0.231604 0.713719,-0.231604 0.652272,0 1.08712,0.5104741 0.534107,0.6239127 0.534107,1.6259543 0,1.120207 -0.642819,1.85283176 -0.52938,0.60027966 -1.332904,0.60027966 -0.34977,0 -0.605007,-0.09925884 -0.189064,-0.07089917 -0.425395,-0.28359669 V 1.0682142 q 0,0.4443015 0.05199,0.5624668 0.05672,0.1228919 0.189065,0.1937911 0.137071,0.070899 0.491567,0.070899 V 2.0702559 H 8.6625476 V 1.8953712 h 0.1181653 q 0.2599636,0.00473 0.4443015,-0.099259 0.089806,-0.051993 0.1370717,-0.170158 0.051993,-0.1134387 0.051993,-0.5860999 v -4.0932456 q 0,-0.4206684 -0.037813,-0.5341071 -0.037813,-0.1134386 -0.1228919,-0.170158 -0.080352,-0.056719 -0.2221508,-0.056719 -0.1134387,0 -0.2883233,0.066172 z m 1.5125153,0.7515312 v 1.6165012 q 0,0.5246538 0.04254,0.69008525 0.06617,0.27414346 0.321409,0.48211437 0.259964,0.20797091 0.652273,0.20797091 0.472661,0 0.765711,-0.3686757 0.382855,-0.48211433 0.382855,-1.35653753 0,-0.9925884 -0.434848,-1.5266955 -0.302503,-0.3686757 -0.718445,-0.3686757 -0.226877,0 -0.449028,0.1134387 -0.170158,0.085079 -0.562467,0.510474 z m 5.801542,-1.3092714 q 0.983135,0 1.578688,0.7468046 0.505747,0.6380926 0.505747,1.4652496 0,0.5813732 -0.27887,1.1769263 -0.27887,0.59555305 -0.770437,0.89805618 -0.486841,0.30250314 -1.087121,0.30250314 -0.978409,0 -1.555055,-0.7798909 -0.486841,-0.65699902 -0.486841,-1.47470282 0,-0.595553 0.29305,-1.1816529 0.297776,-0.5908264 0.779891,-0.8696965 0.482114,-0.2835967 1.020948,-0.2835967 z m -0.146525,0.3072298 q -0.250511,0 -0.505748,0.1512515 -0.25051,0.146525 -0.406488,0.5199273 -0.155978,0.3734023 -0.155978,0.9595021 0,0.9453224 0.373402,1.63068103 0.378129,0.68535867 0.992588,0.68535867 0.458482,0 0.756258,-0.37812892 0.297777,-0.37812892 0.297777,-1.29981818 0,-1.1532932 -0.496295,-1.8150188 -0.335589,-0.4537547 -0.855516,-0.4537547 z m 6.798039,2.5051041 q -0.174884,0.85551667 -0.685358,1.3187246 -0.510474,0.45848132 -1.12966,0.45848132 -0.737352,0 -1.285639,-0.61918611 -0.548287,-0.61918611 -0.548287,-1.67322051 0,-1.0209481 0.605007,-1.6590406 0.609733,-0.6380926 1.460523,-0.6380926 0.638092,0 1.049307,0.340316 0.411216,0.3355895 0.411216,0.6995386 0,0.1796112 -0.118166,0.2930499 -0.113438,0.108712 -0.321409,0.108712 -0.27887,0 -0.420669,-0.1796112 -0.08035,-0.099259 -0.108712,-0.3781289 -0.02363,-0.2788701 -0.189064,-0.4253951 -0.165432,-0.1417983 -0.458482,-0.1417983 -0.472661,0 -0.760984,0.3497692 -0.382856,0.463208 -0.382856,1.2241924 0,0.7751643 0.378129,1.3707174 0.382856,0.59082642 1.030402,0.59082642 0.463208,0 0.831883,-0.31668297 0.259964,-0.21742415 0.505748,-0.78934415 z m 1.897934,0.3119563 1.871739,-2.164788 q -0.0095,-0.3639491 -0.137072,-0.5057475 -0.127619,-0.1417983 -0.439575,-0.1465249 v -0.1796113 h 2.013537 v 0.1796113 q -0.316683,0 -0.425396,0.066172 -0.108712,0.061446 -0.170158,0.1559782 -0.06145,0.094532 -0.06145,0.6144595 v 2.2971332 q 0,0.50102084 0.05199,0.60027968 0.05199,0.0945322 0.160705,0.17015802 0.113439,0.0708992 0.444302,0.0708992 V 0 h -2.093889 v -0.17488463 q 0.392308,0 0.524653,-0.14179834 0.132346,-0.14652496 0.132346,-0.69953853 v -2.0371696 l -1.871739,2.16951474 q 0.0095,0.40176198 0.113439,0.55301355 0.103986,0.15125157 0.449028,0.15597818 V 0 h -1.999356 v -0.17488463 q 0.420668,0 0.538833,-0.15125157 0.118166,-0.15597818 0.118166,-0.6900853 v -2.2971332 q 0,-0.5057474 -0.05199,-0.595553 -0.05199,-0.094532 -0.160705,-0.1654315 -0.108712,-0.075626 -0.444301,-0.075626 v -0.1796113 h 2.093888 v 0.1796113 q -0.316683,0 -0.425395,0.066172 -0.108712,0.061446 -0.170158,0.1559782 -0.06145,0.094532 -0.06145,0.6144595 z m 5.255328,-1.0634876 h 1.871738 v -0.9169626 q 0,-0.4112152 -0.03309,-0.5341071 -0.03309,-0.1276185 -0.165432,-0.2126975 -0.127618,-0.089806 -0.458481,-0.089806 v -0.1796113 h 2.093889 v 0.1796113 q -0.29305,0 -0.430122,0.066172 -0.132345,0.066173 -0.179611,0.1937911 -0.04727,0.1228919 -0.04727,0.5766466 v 2.2971332 q 0,0.41121522 0.03309,0.54356035 0.03781,0.13234512 0.174885,0.21742413 0.137071,0.0803524 0.449028,0.0803524 V 0 h -2.093889 v -0.17488463 q 0.392309,0 0.524654,-0.14179834 0.132345,-0.14652496 0.132345,-0.69953853 v -1.0729408 h -1.871738 v 1.0729408 q 0,0.41121522 0.03309,0.54356035 0.03781,0.13234512 0.174885,0.21742413 0.137071,0.0803524 0.449028,0.0803524 V 0 h -2.093889 v -0.17488463 q 0.420668,0 0.538833,-0.15125157 0.118166,-0.15597818 0.118166,-0.6900853 v -2.2971332 q 0,-0.4112152 -0.03781,-0.5435603 -0.03309,-0.1323451 -0.170158,-0.2126975 -0.137072,-0.080352 -0.449028,-0.080352 v -0.1796113 h 2.093889 v 0.1796113 q -0.29305,0 -0.430122,0.066172 -0.132345,0.066173 -0.179611,0.1937911 -0.04727,0.1228919 -0.04727,0.5766466 z"
         id="path742" />
      <path
         style="font-size:9.6801px;font-family:'Times New Roman'"
         d="m -61.506071,-11.589227 q -0.174885,0.855516 -0.685359,1.318724 -0.510474,0.4584817 -1.12966,0.4584817 -0.737351,0 -1.285638,-0.6191857 -0.548287,-0.619187 -0.548287,-1.673221 0,-1.020948 0.605006,-1.659041 0.609733,-0.638092 1.460523,-0.638092 0.638093,0 1.049308,0.340316 0.411215,0.335589 0.411215,0.699538 0,0.179612 -0.118165,0.29305 -0.113439,0.108712 -0.32141,0.108712 -0.27887,0 -0.420668,-0.179611 -0.08035,-0.09926 -0.108712,-0.378129 -0.02363,-0.27887 -0.189065,-0.425395 -0.165431,-0.141798 -0.458481,-0.141798 -0.472661,0 -0.760985,0.349769 -0.382855,0.463208 -0.382855,1.224192 0,0.775165 0.378129,1.370718 0.382855,0.590826 1.030401,0.590826 0.463208,0 0.831884,-0.316683 0.259963,-0.217424 0.505747,-0.789344 z m 0.563202,-2.684716 h 3.743477 l 0.189064,1.1722 h -0.212697 q -0.05672,-0.354496 -0.189065,-0.548287 -0.132345,-0.193791 -0.302503,-0.255237 -0.170158,-0.06145 -0.581373,-0.06145 h -0.378129 v 3.006125 q 0,0.482114 0.05672,0.61446 0.06145,0.127618 0.193791,0.170158 0.132345,0.04254 0.605007,0.05672 v 0.1748845 h -2.353853 v -0.1748845 q 0.453755,-0.0095 0.581373,-0.146525 0.132345,-0.137072 0.132345,-0.694812 v -3.006125 h -0.387582 q -0.406488,0 -0.553013,0.05199 -0.146525,0.04727 -0.283597,0.23633 -0.132345,0.184338 -0.226877,0.576647 h -0.212698 z m 6.865647,3.705664 q -0.666452,0.5152 -0.83661,0.5955529 -0.255237,0.1181653 -0.54356,0.1181653 -0.449028,0 -0.742078,-0.3072302 -0.288324,-0.307229 -0.288324,-0.80825 0,-0.316683 0.141799,-0.548287 0.193791,-0.32141 0.671179,-0.605006 0.482114,-0.283597 1.597594,-0.690086 v -0.170158 q 0,-0.647545 -0.207971,-0.888603 -0.203244,-0.241057 -0.595553,-0.241057 -0.297776,0 -0.472661,0.160705 -0.179611,0.160705 -0.179611,0.368676 l 0.0095,0.274143 q 0,0.217424 -0.113438,0.33559 -0.108712,0.118165 -0.288324,0.118165 -0.174884,0 -0.288323,-0.122892 -0.108712,-0.122892 -0.108712,-0.335589 0,-0.406489 0.415942,-0.746805 0.415942,-0.340316 1.167473,-0.340316 0.576646,0 0.945322,0.193791 0.27887,0.146525 0.411215,0.458481 0.08508,0.203245 0.08508,0.831884 v 1.469976 q 0,0.619186 0.02363,0.760985 0.02363,0.137071 0.07563,0.184337 0.05672,0.04727 0.127619,0.04727 0.07563,0 0.132345,-0.03309 0.09926,-0.06145 0.382855,-0.345042 v 0.26469 q -0.52938,0.7089916 -1.011495,0.7089916 -0.231604,0 -0.368675,-0.1607046 -0.137072,-0.160705 -0.141799,-0.548287 z m 0,-0.30723 v -1.649587 q -0.713718,0.283596 -0.921689,0.401762 -0.373402,0.207971 -0.534107,0.434848 -0.160705,0.226877 -0.160705,0.496294 0,0.340316 0.203245,0.567193 0.203244,0.222151 0.467934,0.222151 0.359223,0 0.945322,-0.472661 z m 2.380148,-3.398434 h 3.871095 v 0.179612 q -0.321409,0 -0.430121,0.06617 -0.103986,0.06145 -0.165432,0.155978 -0.06145,0.09453 -0.06145,0.61446 v 2.297133 q 0,0.501021 0.05199,0.60028 0.05199,0.09453 0.160705,0.170158 0.113438,0.0709 0.444301,0.0709 v 0.1748845 h -2.240414 v -0.1748845 q 0.36395,0 0.501021,-0.03781 0.141799,-0.03781 0.222151,-0.179611 0.08035,-0.146525 0.08035,-0.623913 v -3.006125 h -1.441616 v 1.824472 q 0,1.035128 -0.09453,1.455797 -0.08981,0.415941 -0.363949,0.619186 -0.269417,0.1985173 -0.619187,0.1985173 -0.605006,0 -0.605006,-0.5010203 0,-0.170159 0.09453,-0.278871 0.09926,-0.108712 0.255237,-0.108712 0.165432,0 0.30723,0.137072 0.184338,0.179611 0.27887,0.179611 0.212698,0 0.30723,-0.354496 0.09926,-0.359222 0.09926,-1.252552 v -0.954775 q 0,-0.737352 -0.108712,-0.898056 -0.103986,-0.160705 -0.543561,-0.193791 z m 5.750463,1.928458 0.538833,-0.0095 q 1.928458,0 1.928458,1.191106 0,0.553013 -0.472661,0.888603 -0.467935,0.3308625 -1.351811,0.3308625 h -2.079709 v -0.1748845 q 0.420668,0 0.538833,-0.151252 0.118166,-0.155978 0.118166,-0.690085 v -2.297133 q 0,-0.505748 -0.05199,-0.595553 -0.05199,-0.09453 -0.160705,-0.165432 -0.108712,-0.07563 -0.444301,-0.07563 v -0.179612 h 2.264047 v 0.179612 q -0.467935,0 -0.576647,0.05672 -0.108712,0.05199 -0.179611,0.141798 -0.0709,0.08508 -0.0709,0.638093 z m 0,2.027716 q 0.25051,0.06617 0.50102,0.06617 0.472662,0 0.765711,-0.250511 0.297777,-0.25051 0.297777,-0.633366 0,-0.907509 -1.262005,-0.907509 -0.108712,0 -0.302503,0.0047 z"
         id="path743" />
    </g>
    <path
       id="path115"
       d="M 0,0 -7.174,-1.597"
       style="fill:none;stroke:#000000;stroke-width:0.794;stroke-linecap:butt;stroke-linejoin:miter;stroke-miterlimit:10;stroke-dasharray:none;stroke-opacity:1"
       transform="matrix(1.354,0,0,1.31292,134.12616,409.65008)" />
    <path
       id="path116"
       d="M 0,0 -2.939,-5.63 V 0.786 L 0,0"
       style="fill:#000000;fill-opacity:1;fill-rule:nonzero;stroke:none"
       transform="matrix(0,-1.3333333,-1.3333333,0,132.97733,407.552)" />
    <path
       style="font-size:9.6585px;font-family:'Times New Roman'"
       d="m 4.1925812,-6.3949832 -0.367853,0.8017309 H 1.9005739 l -0.4197297,0.8583237 q 1.249757,0.1839265 1.980747,0.9290647 0.6272366,0.6413847 0.6272366,1.5091406 0,0.5046189 -0.2075069,0.9337807 -0.2027907,0.42916187 -0.514051,0.73098998 -0.3112602,0.30182812 -0.6932614,0.48575463 -0.5423474,0.25938353 -1.1129912,0.25938353 -0.57535986,0 -0.83945946,-0.19335863 -0.25938354,-0.1980747 -0.25938354,-0.43387792 0,-0.1320498 0.10846948,-0.23108715 0.10846948,-0.10375342 0.27353173,-0.10375342 0.12261767,0 0.21222289,0.0377285 0.094321,0.0377285 0.3159763,0.19335863 0.3537048,0.24523535 0.7168418,0.24523535 0.5517795,0 0.9667932,-0.41501366 0.4197297,-0.41972976 0.4197297,-1.01866986 0,-0.5800759 -0.3725691,-1.0799788 Q 2.7306012,-3.3908502 2.0750683,-3.664382 1.5610173,-3.8766049 0.6743972,-3.9096173 L 1.9005739,-6.3949832 Z M 5.059711,-6.5081688 v -0.1980747 q 0.7168417,0.3537049 1.1931642,0.8347434 0.6743972,0.6885454 1.0422503,1.6176101 0.367853,0.9243486 0.367853,1.9288703 0,1.46197993 -0.7215579,2.66457633 Q 6.2245789,1.5468691 5.059711,2.0656362 V 1.8911418 q 0.5800759,-0.3254084 0.952645,-0.881904 0.3772851,-0.55177956 0.5564955,-1.4053872 0.1839266,-0.8583237 0.1839266,-1.7873884 0,-1.0045217 -0.1556302,-1.834549 Q 6.4792463,-4.6689037 6.3000359,-5.060337 6.1255415,-5.4517703 5.8331455,-5.8149073 5.5407495,-6.1780443 5.059711,-6.5081688 Z"
       id="text116"
       transform="matrix(1.3333333,0,0,1.3333333,287.73493,307.54413)"
       aria-label="5) " />
    <path
       id="path117"
       d="m 269.977,551.855 h 28.148 v 27.858 h -28.148 z"
       style="fill:#959292;fill-opacity:1;fill-rule:nonzero;stroke:none"
       transform="matrix(0,-1.3333333,-1.3333333,0,1122.6667,793.62667)" />
    <path
       id="path118"
       d="M 0,0 V 41.993 H 28.01 V 0"
       style="fill:none;stroke:#000000;stroke-width:0.778;stroke-linecap:butt;stroke-linejoin:miter;stroke-miterlimit:10;stroke-dasharray:none;stroke-opacity:1"
       transform="matrix(1.32612,0,0,1.3405333,349.71243,377.38034)"
       clip-path="url(#clipPath119)" />
    <path
       id="path120"
       d="M 0,0 H 28.01"
       style="fill:none;stroke:#000000;stroke-width:0.778;stroke-linecap:butt;stroke-linejoin:miter;stroke-miterlimit:10;stroke-dasharray:none;stroke-opacity:1"
       transform="matrix(1.32612,0,0,1.3405333,349.71243,396.14379)" />
    <path
       id="path121"
       d="m 0,0 c 0,3.911 -3.121,6.999 -6.992,6.999 -3.912,0 -6.992,-3.088 -6.992,-6.999 0,-3.87 3.08,-6.999 6.992,-6.999 C -3.121,-6.999 0,-3.87 0,0 Z"
       style="fill:#524d49;fill-opacity:1;fill-rule:nonzero;stroke:#000000;stroke-width:0.778;stroke-linecap:butt;stroke-linejoin:miter;stroke-miterlimit:10;stroke-dasharray:none;stroke-opacity:1"
       transform="matrix(1.32612,0,0,1.3405333,377.58482,414.90857)" />
    <path
       id="path122"
       d="m 0,0 v -55.003 l 3.704,-0.782 -7.408,-1.77 7.408,-1.73 -7.408,-1.77 7.408,-1.729 -7.408,-1.77 7.408,-1.729 -7.408,-1.771 7.408,-1.729 -7.408,-1.77 7.408,-1.729 -7.408,-1.771 L 0,-77.564 v -3.911"
       style="fill:none;stroke:#000000;stroke-width:0.778;stroke-linecap:butt;stroke-linejoin:miter;stroke-miterlimit:10;stroke-dasharray:none;stroke-opacity:1"
       transform="matrix(1.32612,0,0,1.3405333,368.31259,405.52618)"
       clip-path="url(#clipPath123)" />
    <path
       id="path124"
       d="M 0,0 H 17.896"
       style="fill:none;stroke:#000000;stroke-width:0.778;stroke-linecap:butt;stroke-linejoin:miter;stroke-miterlimit:10;stroke-dasharray:none;stroke-opacity:1"
       transform="matrix(1.32612,0,0,1.3405333,356.44647,331.79283)" />
    <path
       id="path125"
       d="m 0,0 c 0,-1.153 -0.999,-2.141 -2.164,-2.141 -18.646,0 -18.646,0 -18.646,0 -1.165,0 -2.164,0.988 -2.164,2.141 0,49.774 0,49.774 0,49.774 0,1.153 0.999,2.141 2.164,2.141 18.646,0 18.646,0 18.646,0 1.165,0 2.164,-0.988 2.164,-2.141 z"
       style="fill:none;stroke:#000000;stroke-width:0.778;stroke-linecap:butt;stroke-linejoin:miter;stroke-miterlimit:10;stroke-dasharray:none;stroke-opacity:1"
       transform="matrix(1.32612,0,0,1.3405333,383.54573,297.63067)"
       clip-path="url(#clipPath126)" />
    <g
       id="text126"
       transform="matrix(1.3333333,0,0,1.3478974,392.21333,421.57067)"
       aria-label="керосин&#10;медь">
      <path
         style="font-size:9.2831px;font-family:'Times New Roman'"
         d="M 4.4557068,0 H 3.2318605 Q 2.6607323,-0.82949576 2.1983904,-1.6997864 2.0896041,-1.899228 1.9989488,-1.994416 q -0.086122,-0.099721 -0.2402365,-0.099721 -0.054393,0 -0.172245,0.00907 v 1.1105271 q 0,0.44874361 0.04986,0.57566099 0.054393,0.12238462 0.1903761,0.17677779 0.1359829,0.0543932 0.4578091,0.0543932 V 0 H 0.20850713 v -0.16771226 q 0.40341597,0 0.51673507,-0.14504844 0.11331909,-0.1495812 0.11331909,-0.6617835 v -2.2029232 q 0,-0.4850057 -0.0498604,-0.5711282 -0.0498604,-0.090655 -0.15411397,-0.1586467 -0.10425356,-0.072524 -0.42607979,-0.072524 v -0.172245 H 2.2845129 v 0.172245 q -0.3762194,0 -0.4668746,0.054393 -0.086123,0.054393 -0.1586468,0.1359829 -0.072524,0.077057 -0.072524,0.6119231 v 0.8158975 q 0.1042536,0.00907 0.1405157,0.00907 0.2764986,0 0.516735,-0.1541139 0.2447693,-0.1586468 0.4351454,-0.6663163 0.1767778,-0.480473 0.2900968,-0.6481852 0.1178519,-0.1677123 0.3218263,-0.2719659 0.2085071,-0.1087863 0.4351453,-0.1087863 0.2447692,0 0.3898177,0.1178519 0.1450484,0.1178518 0.1450484,0.3082279 0,0.1586467 -0.1042536,0.2719658 -0.1042535,0.1087864 -0.2900968,0.1087864 -0.099721,0 -0.249302,-0.054393 -0.1903761,-0.067991 -0.2900969,-0.067991 -0.2085072,0 -0.3444901,0.3580884 -0.1541139,0.4124815 -0.2266381,0.5348661 -0.072524,0.1178519 -0.2764986,0.3172935 0.1405156,0.040795 0.3036951,0.2085071 0.1677123,0.1677122 0.6164559,0.9564131 0.3580883,0.6300542 0.5348661,0.79776646 0.1813106,0.16771225 0.5212679,0.17677778 z m 0.8388656,-2.5882081 q -0.00453,0.9246838 0.4487436,1.4504844 0.4532763,0.5258006 1.0651994,0.5258006 0.4079488,0 0.7071112,-0.22210543 0.3036952,-0.22663817 0.5076695,-0.77056987 l 0.1405157,0.090655 q -0.095188,0.62098864 -0.5529972,1.13319095 -0.4578091,0.50766953 -1.1467892,0.50766953 -0.747906,0 -1.2827721,-0.58019375 -0.5303334,-0.58472653 -0.5303334,-1.56833623 0,-1.0651995 0.5439317,-1.6589916 0.5484644,-0.5983248 1.3734274,-0.5983248 0.6980456,0 1.1467892,0.4623419 0.4487436,0.4578092 0.4487436,1.228379 z m 0,-0.2629003 H 7.2164642 Q 7.1938004,-3.2499916 7.1212761,-3.4131711 7.007957,-3.6670059 6.7813189,-3.8120543 6.5592134,-3.9571027 6.3144442,-3.9571027 q -0.3762194,0 -0.6753818,0.2946296 -0.2946296,0.2900969 -0.34449,0.8113647 z m 3.0604349,-0.8884217 1.2782393,-0.516735 h 0.1722451 v 0.9700114 q 0.3218263,-0.5484644 0.6436523,-0.7660371 0.326359,-0.2221054 0.684447,-0.2221054 0.625522,0 1.042536,0.4895385 0.512202,0.5983248 0.512202,1.5592707 0,1.074265 -0.616455,1.77684339 -0.50767,0.57566099 -1.27824,0.57566099 -0.335424,0 -0.580194,-0.09518803 -0.18131,-0.06799146 -0.4079483,-0.27196583 V 1.0244046 q 0,0.4260798 0.04986,0.5393989 0.054393,0.1178518 0.1813109,0.1858433 0.13145,0.067991 0.471407,0.067991 V 1.9853505 H 8.3323435 V 1.8176383 h 0.113319 q 0.2493021,0.00453 0.4260798,-0.095188 0.086123,-0.04986 0.1314502,-0.1631795 0.04986,-0.1087863 0.04986,-0.56206268 V -2.9281654 q 0,-0.4034159 -0.036262,-0.5122023 -0.036262,-0.1087863 -0.1178519,-0.1631795 -0.077057,-0.054393 -0.2130399,-0.054393 -0.1087863,0 -0.2764986,0.063459 z m 1.4504844,0.7207095 v 1.5502052 q 0,0.50313672 0.040795,0.66178346 0.063459,0.26290029 0.3082275,0.4623419 0.249302,0.1994416 0.625522,0.1994416 0.453276,0 0.734308,-0.35355557 0.367153,-0.4623419 0.367153,-1.30090319 0,-0.9518804 -0.417014,-1.4640827 -0.290097,-0.3535556 -0.68898,-0.3535556 -0.217573,0 -0.430612,0.1087864 -0.16318,0.08159 -0.5393993,0.4895385 z m 5.5571103,-1.2555756 q 0.942815,0 1.513943,0.7161767 0.485006,0.6119231 0.485006,1.4051567 0,0.55753 -0.267433,1.1286582 -0.267433,0.57112823 -0.738841,0.86122511 -0.466874,0.29009687 -1.042535,0.29009687 -0.938282,0 -1.491279,-0.74790601 -0.466875,-0.63005417 -0.466875,-1.41422227 0,-0.5711282 0.281031,-1.133191 0.285564,-0.5665954 0.747906,-0.8340285 0.462342,-0.2719658 0.979077,-0.2719658 z m -0.140515,0.2946296 q -0.240237,0 -0.485006,0.1450485 -0.240237,0.1405157 -0.389818,0.498604 -0.149581,0.3580883 -0.149581,0.920151 0,0.9065528 0.358088,1.56380352 0.362621,0.65725074 0.951881,0.65725074 0.439678,0 0.725242,-0.3626211 0.285564,-0.3626211 0.285564,-1.24651006 0,-1.1059943 -0.47594,-1.7405812 -0.321826,-0.4351454 -0.82043,-0.4351454 z m 6.521094,2.4023648 q -0.167712,0.82043026 -0.657251,1.2646411 -0.489538,0.43967808 -1.08333,0.43967808 -0.707112,0 -1.232912,-0.59379204 -0.525801,-0.59379204 -0.525801,-1.60459834 0,-0.979077 0.580194,-1.5910001 0.584727,-0.6119231 1.400624,-0.6119231 0.611923,0 1.006274,0.326359 0.39435,0.3218262 0.39435,0.670849 0,0.172245 -0.113319,0.2810314 -0.108786,0.1042535 -0.308228,0.1042535 -0.267433,0 -0.403416,-0.172245 -0.07706,-0.095188 -0.104254,-0.3626211 -0.02266,-0.267433 -0.18131,-0.4079487 -0.158647,-0.1359829 -0.439678,-0.1359829 -0.453277,0 -0.729775,0.3354245 -0.367154,0.4442108 -0.367154,1.1739858 0,0.7433732 0.362621,1.3145015 0.367154,0.56659544 0.988143,0.56659544 0.44421,0 0.797766,-0.30369517 0.249302,-0.20850717 0.485006,-0.75697157 z m 1.827524,0.2991624 1.794974,-2.0760058 q -0.0091,-0.3490228 -0.13145,-0.4850057 -0.122384,-0.1359829 -0.421547,-0.1405157 v -0.172245 h 1.930958 v 0.172245 q -0.303696,0 -0.407949,0.063459 -0.104254,0.058926 -0.16318,0.1495812 -0.05893,0.090655 -0.05893,0.5892593 v 2.2029232 q 0,0.48047295 0.04986,0.57566099 0.04986,0.0906553 0.154114,0.1631795 0.108786,0.0679915 0.42608,0.0679915 V 0 h -2.008015 v -0.16771226 q 0.37622,0 0.503137,-0.13598291 0.126917,-0.14051568 0.126917,-0.67084903 v -1.9536212 l -1.794974,2.08053858 q 0.0091,0.38528492 0.108786,0.53033336 0.09972,0.14504844 0.430613,0.1495812 V 0 h -1.917359 v -0.16771226 q 0.403416,0 0.516735,-0.14504844 0.113319,-0.1495812 0.113319,-0.6617835 v -2.2029232 q 0,-0.4850057 -0.04986,-0.5711282 -0.04986,-0.090655 -0.154114,-0.1586467 -0.104254,-0.072524 -0.42608,-0.072524 v -0.172245 h 2.008014 v 0.172245 q -0.303695,0 -0.407949,0.063459 -0.104253,0.058926 -0.163179,0.1495812 -0.05893,0.090655 -0.05893,0.5892593 z m 5.048149,-1.0198718 h 1.794975 v -0.8793562 q 0,-0.3943504 -0.03173,-0.5122023 -0.03173,-0.1223846 -0.158647,-0.2039743 -0.122384,-0.086123 -0.439678,-0.086123 v -0.172245 h 2.008015 v 0.172245 q -0.281032,0 -0.412482,0.063459 -0.126917,0.063459 -0.172245,0.1858433 -0.04533,0.1178519 -0.04533,0.5529972 v 2.2029232 q 0,0.39435044 0.03173,0.52126783 0.03626,0.12691738 0.167712,0.20850713 0.13145,0.077057 0.430613,0.077057 V 0 h -2.008015 v -0.16771226 q 0.37622,0 0.503137,-0.13598291 0.126918,-0.14051568 0.126918,-0.67084903 v -1.0289374 h -1.794975 v 1.0289374 q 0,0.39435044 0.03173,0.52126783 0.03626,0.12691738 0.167713,0.20850713 0.13145,0.077057 0.430612,0.077057 V 0 h -2.008014 v -0.16771226 q 0.403416,0 0.516735,-0.14504844 0.113319,-0.1495812 0.113319,-0.6617835 v -2.2029232 q 0,-0.3943504 -0.03626,-0.5212678 -0.03173,-0.1269174 -0.16318,-0.2039744 -0.13145,-0.077057 -0.430612,-0.077057 v -0.172245 h 2.008014 v 0.172245 q -0.281031,0 -0.412481,0.063459 -0.126918,0.063459 -0.172245,0.1858433 -0.04533,0.1178519 -0.04533,0.5529972 z"
         id="path744" />
      <path
         style="font-size:9.2831px;font-family:'Times New Roman'"
         d="m -58.248553,-10.623573 1.296371,-3.068681 h 1.400624 v 0.172245 q -0.308228,0 -0.412482,0.06346 -0.09972,0.05893 -0.158647,0.149581 -0.05893,0.09065 -0.05893,0.589259 v 2.202924 q 0,0.430612 0.04079,0.5575295 0.04533,0.1223847 0.176778,0.1858434 0.135983,0.063459 0.412482,0.063459 v 0.1677123 h -2.008015 v -0.1677123 q 0.371687,0 0.498604,-0.1359829 0.126918,-0.1405156 0.126918,-0.6708486 v -2.497553 l -1.468616,3.4720968 h -0.158647 l -1.495812,-3.4720968 v 2.497553 q 0,0.430612 0.04533,0.5575295 0.04533,0.1223847 0.176778,0.1858434 0.13145,0.063459 0.407949,0.063459 v 0.1677123 h -1.586468 v -0.1677123 q 0.403416,0 0.516735,-0.1450484 0.113319,-0.1495811 0.113319,-0.6617831 v -2.202924 q 0,-0.485005 -0.04986,-0.571128 -0.04986,-0.09065 -0.154114,-0.158647 -0.104254,-0.07252 -0.42608,-0.07252 v -0.172245 h 1.45955 z m 3.894567,-1.504877 q -0.0045,0.924684 0.448743,1.450484 0.453277,0.525801 1.0652,0.525801 0.407949,0 0.707111,-0.222106 0.303695,-0.226638 0.50767,-0.77057 l 0.140515,0.09066 q -0.09519,0.620988 -0.552997,1.1331907 -0.457809,0.5076695 -1.146789,0.5076695 -0.747906,0 -1.282772,-0.5801938 -0.530334,-0.5847264 -0.530334,-1.5683364 0,-1.065199 0.543932,-1.658991 0.548464,-0.598325 1.373427,-0.598325 0.698046,0 1.14679,0.462342 0.448743,0.457809 0.448743,1.228379 z m 0,-0.262901 h 1.921892 q -0.02266,-0.398883 -0.09519,-0.562062 -0.11332,-0.253835 -0.339958,-0.398883 -0.222105,-0.145049 -0.466874,-0.145049 -0.37622,0 -0.675382,0.29463 -0.29463,0.290097 -0.34449,0.811364 z m 3.843571,-1.300903 h 3.662473 v 0.172245 q -0.308228,0 -0.412481,0.06346 -0.09972,0.05893 -0.158647,0.149581 -0.05893,0.09065 -0.05893,0.589259 v 2.053342 q 0,0.648186 0.108786,0.7977668 0.113319,0.1450485 0.521268,0.1586467 v 1.3190343 h -0.172245 q -0.01813,-0.3716866 -0.185843,-0.6481852 -0.16318,-0.2764986 -0.457809,-0.3898177 -0.29463,-0.1133191 -0.870291,-0.1133191 h -1.069732 q -0.498604,0 -0.779636,0.086123 -0.281031,0.090655 -0.471407,0.3716866 -0.185843,0.2810314 -0.226638,0.6935129 h -0.167713 v -1.3190343 q 0.371687,-0.013598 0.675382,-0.2946295 0.303695,-0.281031 0.534866,-1.101462 0.231171,-0.82043 0.231171,-1.613664 0,-0.779635 -0.702578,-0.802299 z m 1.001741,0.29463 v 0.249302 q 0,2.225587 -0.806832,3.3134502 h 1.541139 q 0.417015,0 0.480473,-0.067991 0.06346,-0.072524 0.06346,-0.5212677 v -2.973493 z m 4.365874,1.554738 0.516735,-0.0091 q 1.849368,0 1.849368,1.142257 0,0.530333 -0.453277,0.8521593 -0.448743,0.3172935 -1.29637,0.3172935 h -1.994416 v -0.1677123 q 0.403416,0 0.516735,-0.1450484 0.113319,-0.1495811 0.113319,-0.6617831 v -2.202924 q 0,-0.485005 -0.04986,-0.571128 -0.04986,-0.09065 -0.154114,-0.158647 -0.104254,-0.07252 -0.42608,-0.07252 v -0.172245 h 2.171194 v 0.172245 q -0.448744,0 -0.552997,0.05439 -0.104254,0.04986 -0.172245,0.135983 -0.06799,0.08159 -0.06799,0.611923 z m 0,1.9445555 q 0.240237,0.063459 0.480473,0.063459 0.453277,0 0.734308,-0.2402362 0.285564,-0.240237 0.285564,-0.607391 0,-0.87029 -1.210248,-0.87029 -0.104254,0 -0.290097,0.0045 z"
         id="path745" />
    </g>
    <path
       id="path127"
       d="M 0,0 -11.071,-3.911"
       style="fill:none;stroke:#000000;stroke-width:0.778;stroke-linecap:butt;stroke-linejoin:miter;stroke-miterlimit:10;stroke-dasharray:none;stroke-opacity:1"
       transform="matrix(1.32612,0,0,1.3405333,353.07945,412.59079)" />
    <path
       id="path128"
       d="M 0,0 -3.518,-5.05 -3.146,0.952 0,0"
       style="fill:#000000;fill-opacity:1;fill-rule:nonzero;stroke:none"
       transform="matrix(0,-1.3333333,-1.3333333,0,352.30933,410.20133)" />
    <path
       style="font-size:9.6585px;font-family:'Times New Roman'"
       d="M 0.49047069,-5.1782386 Q 0.76400242,-5.8243394 1.1790161,-6.1733282 1.5987458,-6.527033 2.2212663,-6.527033 q 0.7687185,0 1.1790161,0.4999028 0.3112602,0.3725691 0.3112602,0.7970149 0,0.6979775 -0.8771879,1.4431157 0.589508,0.2310871 0.8913361,0.660249 0.3018281,0.4291618 0.3018281,1.0092377 0,0.8300273 -0.5281992,1.43839964 -0.6885454,0.7922988 -1.9948952,0.7922988 -0.64610079,0 -0.88190401,-0.16034618 -0.23108715,-0.16034619 -0.23108715,-0.3442727 0,-0.13676586 0.10846948,-0.24051928 0.11318554,-0.10375341 0.26881566,-0.10375341 0.11790161,0 0.24051932,0.0377285 0.080173,0.0235803 0.3631369,0.17449438 0.2829639,0.14619799 0.3914334,0.17449438 0.1744943,0.0518767 0.372569,0.0518767 0.4810386,0 0.8347434,-0.37256908 0.3584209,-0.37256907 0.3584209,-0.88190407 0,-0.372569 -0.1650622,-0.7262739 Q 3.0418615,-2.5419587 2.8956635,-2.6787245 2.6928727,-2.8673671 2.3391679,-3.0182812 1.9854631,-3.1739113 1.6176101,-3.1739113 H 1.466696 v -0.1414819 q 0.3725691,-0.047161 0.7451382,-0.2688157 0.3772851,-0.221655 0.5470634,-0.5329152 0.1697783,-0.3112603 0.1697783,-0.6838294 0,-0.4857546 -0.3065441,-0.7828666 -0.3018282,-0.3018282 -0.7545703,-0.3018282 -0.73099,0 -1.22146069,0.7828667 z M 5.059711,-6.5081688 v -0.1980747 q 0.7168417,0.3537049 1.1931642,0.8347434 0.6743972,0.6885454 1.0422503,1.6176101 0.367853,0.9243486 0.367853,1.9288703 0,1.46197993 -0.7215579,2.66457633 Q 6.2245789,1.5468691 5.059711,2.0656362 V 1.8911418 q 0.5800759,-0.3254084 0.952645,-0.881904 0.3772851,-0.55177956 0.5564955,-1.4053872 0.1839266,-0.8583237 0.1839266,-1.7873884 0,-1.0045217 -0.1556302,-1.834549 Q 6.4792463,-4.6689037 6.3000359,-5.060337 6.1255415,-5.4517703 5.8331455,-5.8149073 5.5407495,-6.1780443 5.059711,-6.5081688 Z"
       id="text128"
       transform="matrix(1.3333333,0,0,1.3333333,72.5968,466.27613)"
       aria-label="3) " />
    <path
       id="path129"
       d="m 150.804,713.871 h 28.148 v 28.148 h -28.148 z"
       style="fill:#ffffff;fill-opacity:1;fill-rule:nonzero;stroke:none"
       transform="matrix(0,-1.3333333,-1.3333333,0,1122.6667,793.62667)" />
    <path
       id="path130"
       d="M 0,0 H -42.222 V -28.148 H 0"
       style="fill:none;stroke:#000000;stroke-width:0.782;stroke-linecap:butt;stroke-linejoin:miter;stroke-miterlimit:10;stroke-dasharray:none;stroke-opacity:1"
       transform="matrix(0,-1.3333333,-1.3333333,0,133.308,536.26)" />
    <path
       id="path131"
       d="M 0,0 V -28.148"
       style="fill:none;stroke:#000000;stroke-width:0.782;stroke-linecap:butt;stroke-linejoin:miter;stroke-miterlimit:10;stroke-dasharray:none;stroke-opacity:1"
       transform="matrix(0,-1.3333333,-1.3333333,0,133.308,555.02533)" />
    <path
       id="path132"
       d="m 0,0 c -3.932,0 -7.037,3.104 -7.037,7.037 0,3.891 3.105,7.037 7.037,7.037 3.891,0 7.037,-3.146 7.037,-7.037 C 7.037,3.104 3.891,0 0,0 Z"
       style="fill:#000000;fill-opacity:1;fill-rule:nonzero;stroke:#000000;stroke-width:0.782;stroke-linecap:butt;stroke-linejoin:miter;stroke-miterlimit:10;stroke-dasharray:none;stroke-opacity:1"
       transform="matrix(0,-1.3333333,-1.3333333,0,161.456,573.79067)" />
    <path
       id="path133"
       d="m 0,0 h 55.344 l 0.786,-3.725 1.739,7.409 1.78,-7.409 1.78,7.409 1.738,-7.409 1.78,7.409 1.739,-7.409 1.78,7.409 1.738,-7.409 1.78,7.409 1.739,-7.409 1.78,7.409 L 78.028,0 h 3.932"
       style="fill:none;stroke:#000000;stroke-width:0.782;stroke-linecap:butt;stroke-linejoin:miter;stroke-miterlimit:10;stroke-dasharray:none;stroke-opacity:1"
       transform="matrix(0,-1.3333333,-1.3333333,0,152.07333,564.408)" />
    <path
       id="path134"
       d="M 0,0 V -18.006"
       style="fill:none;stroke:#000000;stroke-width:0.782;stroke-linecap:butt;stroke-linejoin:miter;stroke-miterlimit:10;stroke-dasharray:none;stroke-opacity:1"
       transform="matrix(0,-1.3333333,-1.3333333,0,140.09733,490.616)" />
    <path
       id="path135"
       d="m 0,0 c 1.159,0 2.152,0.993 2.152,2.152 0,18.752 0,18.752 0,18.752 0,1.2 -0.993,2.152 -2.152,2.152 -50.087,0 -50.087,0 -50.087,0 -1.159,0 -2.152,-0.952 -2.152,-2.152 0,-18.752 0,-18.752 0,-18.752 0,-1.159 0.993,-2.152 2.152,-2.152 z"
       style="fill:none;stroke:#000000;stroke-width:0.782;stroke-linecap:butt;stroke-linejoin:miter;stroke-miterlimit:10;stroke-dasharray:none;stroke-opacity:1"
       transform="matrix(0,-1.3333333,-1.3333333,0,167.472,456.452)"
       clip-path="url(#clipPath136)" />
    <path
       style="font-size:9.384px;font-family:'Times New Roman'"
       d="m 2.9554101,-2.2177031 q 1.1500898,0.2382656 1.1500898,1.0767773 0,0.57275394 -0.4811132,0.85683987 Q 3.1478554,0 2.2910156,0 H 0.2199375 v -0.16953515 q 0.40780077,0 0.51318749,-0.15120703 0.10996874,-0.15578906 0.10996874,-0.66439452 v -2.2268671 q 0,-0.4948594 -0.0504023,-0.581918 -0.0458203,-0.087059 -0.15120703,-0.1557891 -0.10080468,-0.073312 -0.42154686,-0.073312 v -0.1741171 h 1.9336171 q 0.5590078,0 0.9026602,0.087058 0.3482344,0.087059 0.5681719,0.3436524 0.2245195,0.2565937 0.2245195,0.6231562 0,0.7147969 -0.8934961,0.9255703 z M 1.6037109,-2.3230898 q 0.2016094,0.00458 0.2428477,0.00458 0.6277382,0 0.9072421,-0.2382656 0.2795039,-0.2428476 0.2795039,-0.5865 0,-0.3986367 -0.2840859,-0.5773359 Q 2.4651328,-3.8993085 1.8419765,-3.8993085 H 1.6037109 Z m 0,1.95194528 q 0.2291016,0.0733125 0.5452617,0.0733125 0.5452617,0 0.8110195,-0.23826562 0.2657578,-0.23826562 0.2657578,-0.61399215 0,-0.4215469 -0.3436523,-0.6460664 -0.3436523,-0.2245195 -0.9530625,-0.2245195 -0.151207,0 -0.3253242,0.00916 z M 6.6907918,-4.3208554 q 0.9530625,0 1.5303985,0.7239609 0.4902773,0.6185742 0.4902773,1.4204297 0,0.5635898 -0.2703398,1.1409258 -0.2703399,0.57733588 -0.7468711,0.87058588 -0.4719492,0.29324999 -1.0538672,0.29324999 -0.9484804,0 -1.5074883,-0.75603514 Q 4.660952,-1.2646406 4.660952,-2.057332 q 0,-0.5773359 0.284086,-1.1455078 0.2886679,-0.5727539 0.7560351,-0.8430937 0.4673672,-0.2749219 0.9897187,-0.2749219 z m -0.1420429,0.297832 q -0.2428477,0 -0.4902774,0.146625 -0.2428476,0.142043 -0.3940546,0.5040235 -0.1512071,0.3619804 -0.1512071,0.9301523 0,0.9164062 0.3619805,1.58080074 0.3665625,0.66439452 0.9622265,0.66439452 0.4444571,0 0.733125,-0.36656249 0.288668,-0.3665625 0.288668,-1.26005857 0,-1.1180156 -0.4811133,-1.7595 -0.3253242,-0.439875 -0.8293476,-0.439875 z m 3.0912952,-0.1741171 h 3.7022809 v 0.1741171 q -0.311578,0 -0.416965,0.064148 -0.100804,0.059566 -0.160371,0.151207 -0.05957,0.091641 -0.05957,0.5956641 v 2.0756601 q 0,0.65523043 0.109969,0.80643746 0.11455,0.14662499 0.526933,0.16037109 V 1.1638359 H 13.168208 Q 13.14988,0.78810936 12.980345,0.50860546 12.815392,0.22910156 12.51756,0.11455078 12.219728,0 11.63781,0 H 10.55645 Q 10.052427,0 9.768341,0.08705859 9.4842551,0.17869922 9.2918097,0.46278515 9.1039465,0.74687108 9.0627082,1.1638359 H 8.893173 v -1.33337105 q 0.3757266,-0.0137461 0.6827227,-0.29783203 0.3069961,-0.28408593 0.5406793,-1.11343362 0.233684,-0.8293476 0.233684,-1.631203 0,-0.7881094 -0.7102149,-0.8110196 z m 1.0126289,0.297832 v 0.2520117 q 0,2.2497773 -0.8156015,3.34946477 h 1.5578905 q 0.421547,0 0.485695,-0.0687305 0.06415,-0.0733125 0.06415,-0.52693359 V -3.8993085 Z"
       id="text136"
       transform="matrix(1.3333333,0,0,1.3339301,175.58493,580.41307)"
       aria-label="вод" />
    <path
       style="font-size:9.384px;font-family:'Times New Roman'"
       d="M 2.6713242,-0.60482811 Q 2.0252578,-0.10538672 1.8603047,-0.02749219 1.612875,0.08705859 1.3333711,0.08705859 q -0.43529299,0 -0.71937892,-0.29783202 -0.27950391,-0.29783203 -0.27950391,-0.78352733 0,-0.30699614 0.13746094,-0.53151564 0.18786328,-0.3115781 0.65064839,-0.5865 0.4673672,-0.2749218 1.5487266,-0.6689765 V -2.946246 q 0,-0.6277383 -0.2016094,-0.8614219 -0.1970273,-0.2336836 -0.5773359,-0.2336836 -0.288668,0 -0.4582031,0.1557891 -0.1741172,0.155789 -0.1741172,0.3573984 l 0.00916,0.2657578 q 0,0.2107734 -0.1099687,0.3253242 -0.1053867,0.1145508 -0.27950392,0.1145508 -0.16953515,0 -0.2795039,-0.1191328 -0.10538671,-0.1191328 -0.10538671,-0.3253242 0,-0.3940547 0.40321874,-0.7239609 0.40321879,-0.3299063 1.13176169,-0.3299063 0.5590078,0 0.9164062,0.1878633 0.2703399,0.142043 0.3986367,0.444457 0.082477,0.1970274 0.082477,0.8064375 v 1.4250117 q 0,0.60024607 0.02291,0.73770701 0.02291,0.1328789 0.073313,0.17869921 0.054984,0.0458203 0.1237148,0.0458203 0.073313,0 0.1282969,-0.0320742 0.096223,-0.0595664 0.3711445,-0.33448828 v 0.25659375 q -0.5131875,0.68730467 -0.9805547,0.68730467 -0.2245195,0 -0.3573984,-0.15578906 -0.1328789,-0.15578906 -0.1374609,-0.53151561 z m 0,-0.29783203 V -2.501789 q -0.6918867,0.2749219 -0.8934961,0.3894726 -0.3619805,0.2016094 -0.5177695,0.4215469 -0.1557891,0.2199375 -0.1557891,0.4811133 0,0.32990622 0.1970274,0.54984371 0.1970273,0.21535547 0.453621,0.21535547 0.3482344,0 0.9164063,-0.45820312 z"
       id="text137"
       clip-path="url(#clipPath137)"
       transform="matrix(1.3333333,0,0,1.3339301,193.57747,580.41307)"
       aria-label="а" />
    <path
       style="font-size:9.384px;font-family:'Times New Roman'"
       d="m 3.8580702,-1.5945468 q -0.1695351,0.8293476 -0.6643945,1.27838665 -0.4948593,0.44445702 -1.0951054,0.44445702 -0.7147969,0 -1.2463125,-0.60024608 -0.53151562,-0.60024609 -0.53151562,-1.62203899 0,-0.9897188 0.58649999,-1.608293 0.59108203,-0.6185742 1.41584763,-0.6185742 0.6185742,0 1.0172109,0.3299063 0.3986367,0.3253242 0.3986367,0.6781406 0,0.1741172 -0.1145507,0.2840859 -0.1099688,0.1053867 -0.3115782,0.1053867 -0.2703398,0 -0.4078007,-0.1741172 -0.077895,-0.096223 -0.1053868,-0.3665625 -0.02291,-0.2703398 -0.1832812,-0.4123828 -0.1603711,-0.1374609 -0.444457,-0.1374609 -0.4582031,0 -0.737707,0.3390703 -0.3711446,0.4490391 -0.3711446,1.1867461 0,0.7514531 0.3665625,1.328789 0.3711445,0.57275391 0.9988828,0.57275391 0.4490391,0 0.8064375,-0.30699609 0.2520117,-0.21077342 0.4902773,-0.76519922 z m 0.5684944,-2.6025937 h 3.6289687 l 0.1832812,1.1363437 H 8.0326231 Q 7.9776387,-3.4044492 7.8493419,-3.5923124 7.721045,-3.7801757 7.5560919,-3.8397421 7.3911388,-3.8993085 6.992502,-3.8993085 H 6.6259396 v 2.9141718 q 0,0.46736718 0.054984,0.59566405 0.059566,0.12371484 0.1878633,0.16495312 0.1282969,0.0412383 0.5865,0.0549844 V 0 H 5.1734357 v -0.16953515 q 0.439875,-0.009164 0.5635898,-0.14204297 0.1282969,-0.1328789 0.1282969,-0.67355858 V -3.8993085 H 5.4895958 q -0.3940547,0 -0.5360976,0.050402 -0.142043,0.04582 -0.2749219,0.2291016 -0.1282969,0.1786992 -0.2199375,0.5590078 H 4.2524474 Z m 6.6640844,3.59231239 q -0.646066,0.49944139 -0.811019,0.57733592 -0.24743,0.11455078 -0.5269341,0.11455078 -0.4352929,0 -0.7193788,-0.29783202 -0.279504,-0.29783203 -0.279504,-0.78352733 0,-0.30699614 0.137461,-0.53151564 0.1878633,-0.3115781 0.6506484,-0.5865 0.4673675,-0.2749218 1.5487265,-0.6689765 V -2.946246 q 0,-0.6277383 -0.201609,-0.8614219 -0.197028,-0.2336836 -0.577336,-0.2336836 -0.288668,0 -0.4582034,0.1557891 -0.1741172,0.155789 -0.1741172,0.3573984 l 0.00916,0.2657578 q 0,0.2107734 -0.1099687,0.3253242 -0.1053868,0.1145508 -0.2795039,0.1145508 -0.1695352,0 -0.2795039,-0.1191328 -0.1053868,-0.1191328 -0.1053868,-0.3253242 0,-0.3940547 0.4032188,-0.7239609 0.4032187,-0.3299063 1.131762,-0.3299063 0.559007,0 0.916406,0.1878633 0.27034,0.142043 0.398637,0.444457 0.08248,0.1970274 0.08248,0.8064375 v 1.4250117 q 0,0.60024607 0.02291,0.73770701 0.02291,0.1328789 0.07331,0.17869921 0.05498,0.0458203 0.123715,0.0458203 0.07331,0 0.128297,-0.0320742 0.09622,-0.0595664 0.371144,-0.33448828 v 0.25659375 q -0.513187,0.68730467 -0.980555,0.68730467 -0.224519,0 -0.357398,-0.15578906 -0.132879,-0.15578906 -0.137461,-0.53151561 z m 0,-0.29783203 V -2.501789 q -0.691887,0.2749219 -0.893496,0.3894726 -0.3619805,0.2016094 -0.5177696,0.4215469 -0.155789,0.2199375 -0.155789,0.4811133 0,0.32990622 0.1970273,0.54984371 0.1970274,0.21535547 0.4536213,0.21535547 0.348234,0 0.916406,-0.45820312 z m 2.2501,-3.29448036 h 3.752683 v 0.1741171 q -0.311578,0 -0.416964,0.064148 -0.100805,0.059566 -0.160372,0.151207 -0.05957,0.091641 -0.05957,0.5956641 v 2.2268671 q 0,0.4856953 0.0504,0.58191796 0.0504,0.0916406 0.155789,0.16495312 0.109969,0.0687305 0.430711,0.0687305 V 0 H 14.92155 v -0.16953515 q 0.352816,0 0.485695,-0.0366563 0.137461,-0.0366563 0.215355,-0.17411719 0.07789,-0.14204296 0.07789,-0.60482811 v -2.9141718 h -1.39752 v 1.768664 q 0,1.0034648 -0.09164,1.41126561 -0.08706,0.40321874 -0.352817,0.60024608 -0.261175,0.19244531 -0.600246,0.19244531 -0.5865,0 -0.5865,-0.4856953 0,-0.16495313 0.09164,-0.27033984 0.09622,-0.10538672 0.24743,-0.10538672 0.160371,0 0.297832,0.1328789 0.178699,0.17411719 0.270339,0.17411719 0.206192,0 0.297832,-0.34365234 0.09622,-0.34823439 0.09622,-1.21423829 v -0.9255703 q 0,-0.7147968 -0.105387,-0.8705859 -0.100804,-0.155789 -0.526933,-0.1878633 z m 5.593334,1.8694687 0.522351,-0.00916 q 1.869469,0 1.869469,1.1546719 0,0.53609761 -0.458203,0.86142182 Q 20.414079,0 19.557239,0 h -2.016094 v -0.16953515 q 0.407801,0 0.522352,-0.146625 0.114551,-0.15120703 0.114551,-0.66897655 v -2.2268671 q 0,-0.4902774 -0.0504,-0.577336 -0.0504,-0.091641 -0.155789,-0.1603711 -0.105386,-0.073312 -0.430711,-0.073312 v -0.1741171 h 2.194793 v 0.1741171 q -0.453621,0 -0.559008,0.054984 -0.105386,0.050402 -0.174117,0.1374609 -0.06873,0.082477 -0.06873,0.6185743 z m 0,1.96569134 q 0.242847,0.0641484 0.485695,0.0641484 0.458203,0 0.742289,-0.24284765 0.288668,-0.24284765 0.288668,-0.61399222 0,-0.8797499 -1.223402,-0.8797499 -0.105387,0 -0.29325,0.00458 z"
       id="text138"
       transform="matrix(1.3333333,0,0,1.3339301,91.638,567.55333)"
       aria-label="сталь" />
    <path
       id="path138"
       d="M 0,0 3.932,11.135"
       style="fill:none;stroke:#000000;stroke-width:0.782;stroke-linecap:butt;stroke-linejoin:miter;stroke-miterlimit:10;stroke-dasharray:none;stroke-opacity:1"
       transform="matrix(0,-1.3333333,-1.3333333,0,136.72933,571.472)" />
    <path
       id="path139"
       d="M 0,0 -3.518,-5.05 -3.146,0.993 0,0"
       style="fill:#000000;fill-opacity:1;fill-rule:nonzero;stroke:none"
       transform="matrix(0,-1.3333333,-1.3333333,0,135.95733,569.09867)" />
  </g>
</svg>
