<svg xmlns="http://www.w3.org/2000/svg" version="1.0" width="929.885518pt" height="736.214843pt" viewBox="0 0 929.885518 736.214843" preserveAspectRatio="xMidYMid meet">
<metadata>
Created by potrace 1.16, written by Peter Selinger 2001-2019
</metadata>
<g transform="translate(-20.978873,752.970169) scale(0.100000,-0.100000)" fill="#000000" stroke="none">
<path d="M581 7512 c-5 -9 -12 -34 -16 -55 -10 -51 -28 -67 -78 -67 -61 0 -89 -10 -85 -29 4 -17 7 -18 86 -7 42 5 53 4 50 -6 -3 -8 -25 -14 -56 -16 -78 -5 -64 -41 16 -42 12 0 22 -2 22 -4 0 -3 -7 -37 -15 -77 -16 -74 -11 -97 18 -86 8 3 34 46 58 96 48 103 76 122 64 44 -4 -27 -11 -51 -17 -54 -17 -11 -4 -44 18 -47 18 -3 22 6 35 74 14 77 14 77 52 88 42 12 40 26 -4 26 -32 0 -31 25 2 33 22 6 26 27 4 27 -12 0 -14 10 -9 55 6 52 5 55 -15 55 -11 0 -21 -3 -22 -7 -1 -18 -11 -98 -13 -99 0 -1 -20 -4 -43 -7 l-42 -5 20 54 c11 30 18 58 14 64 -10 16 -33 12 -44 -8z m89 -140 c0 -18 -26 -32 -57 -32 -41 0 -46 27 -5 33 49 7 62 7 62 -1z m-91 -94 c-12 -21 -13 -21 -17 -4 -2 10 2 22 9 27 20 12 22 4 8 -23z"/>
<path d="M918 7431 c-54 -34 -68 -64 -43 -91 16 -17 16 -21 1 -42 -23 -32 -21 -85 3 -98 45 -23 151 -5 183 32 25 29 8 55 -55 83 l-51 22 61 44 c34 24 62 47 62 52 1 11 -46 27 -83 27 -18 0 -52 -12 -78 -29z m62 -32 c-50 -43 -70 -53 -70 -36 0 17 28 43 60 56 43 17 46 11 10 -20z m10 -115 c22 -9 40 -20 40 -25 0 -13 -33 -28 -79 -35 -47 -8 -62 10 -43 52 14 28 27 30 82 8z"/>
<path d="M1195 7417 c-7 -18 -25 -76 -38 -128 -21 -79 -23 -96 -12 -108 12 -12 17 -12 30 -1 8 7 13 21 10 30 -6 18 40 176 57 197 6 7 8 20 4 28 -10 26 -36 16 -51 -18z"/>
<path d="M1270 7419 c0 -21 3 -22 93 -15 127 9 134 6 91 -51 -19 -24 -34 -48 -34 -53 0 -5 -28 -10 -62 -12 -50 -2 -63 -6 -66 -20 -3 -15 4 -18 48 -18 44 0 51 -3 46 -16 -19 -50 -28 -106 -18 -116 16 -16 29 -2 36 37 4 19 13 50 21 68 14 33 16 34 83 39 74 5 96 13 86 30 -4 6 -30 8 -72 3 l-65 -7 36 50 c65 87 48 102 -112 102 -107 0 -111 -1 -111 -21z"/>
<path d="M4513 7433 c-22 -8 -14 -23 12 -23 34 0 82 -25 95 -49 21 -39 11 -62 -55 -125 -36 -34 -65 -68 -65 -74 0 -34 118 -83 237 -98 74 -10 43 10 -74 46 -56 17 -106 37 -112 44 -8 10 3 26 48 67 68 62 81 95 58 144 -22 46 -104 85 -144 68z"/>
<path d="M8035 7270 c-12 -19 7 -31 38 -25 40 7 97 -25 97 -54 0 -11 -22 -39 -50 -63 -48 -41 -64 -78 -40 -93 13 -8 202 -36 208 -31 2 3 -7 11 -20 19 -22 14 -35 18 -122 32 l-39 7 51 49 c56 53 63 78 36 118 -29 41 -141 70 -159 41z"/>
<path d="M3733 7211 c-100 -99 -186 -412 -139 -502 l13 -26 -233 -13 c-195 -11 -234 -15 -234 -28 0 -12 16 -14 103 -9 481 28 1031 32 1062 8 17 -14 125 -1 125 15 0 8 -10 14 -25 14 l-24 0 24 36 c13 19 29 61 36 92 15 72 6 219 -17 289 -20 61 -77 133 -105 133 -27 0 -24 -17 10 -45 85 -73 114 -322 50 -447 -10 -20 -24 -40 -31 -44 -17 -11 -665 -4 -694 6 -24 10 -44 57 -44 105 0 58 48 223 86 295 20 39 53 84 72 100 33 27 36 50 7 50 -7 0 -27 -13 -42 -29z"/>
<path d="M7886 7120 c-18 -17 -41 -48 -50 -70 -12 -31 -23 -41 -53 -49 -21 -6 -53 -11 -70 -11 -22 0 -33 -5 -33 -14 0 -24 37 -28 94 -12 44 13 60 14 80 4 25 -11 35 -28 18 -28 -14 0 -52 -76 -52 -104 0 -29 25 -46 67 -46 31 0 126 41 138 60 13 22 -4 22 -47 1 -63 -30 -106 -37 -114 -18 -9 24 24 76 62 99 41 24 45 48 7 48 -16 0 -35 5 -43 11 -13 8 -11 12 10 27 75 51 111 112 74 126 -31 12 -54 6 -88 -24z m36 -42 c-17 -18 -35 -28 -39 -24 -4 4 7 21 25 38 19 16 37 27 40 23 3 -3 -8 -20 -26 -37z"/>
<path d="M2723 7118 c-12 -13 -26 -41 -32 -63 -20 -72 -34 -422 -28 -705 7 -376 -7 -481 -88 -614 -41 -69 -42 -76 -12 -76 16 0 28 -9 35 -25 28 -61 51 -418 61 -945 6 -319 9 -370 25 -408 19 -44 40 -62 75 -62 26 0 27 16 2 23 -11 2 -27 20 -37 38 -16 30 -19 74 -26 369 -8 375 -33 879 -48 955 -6 28 -18 61 -28 75 -19 24 -18 26 15 95 58 122 63 168 63 580 0 440 12 649 40 712 18 42 20 43 64 43 34 0 46 4 46 15 0 11 -13 15 -53 15 -43 0 -58 -5 -74 -22z"/>
<path d="M3832 7028 c-62 -112 -94 -187 -86 -199 10 -17 47 -9 101 21 29 17 53 28 53 26 0 -2 -9 -23 -20 -47 -24 -54 -25 -69 -2 -69 12 0 28 29 60 109 24 60 50 115 58 122 18 15 18 49 0 49 -17 0 -52 -47 -67 -88 -7 -20 -25 -36 -65 -56 -31 -15 -59 -24 -62 -21 -6 6 83 181 105 207 16 18 10 38 -11 38 -7 0 -36 -42 -64 -92z"/>
<path d="M7435 7087 c-55 -31 -98 -103 -103 -175 -5 -76 14 -94 103 -100 70 -5 135 4 135 17 0 5 -40 11 -90 13 -52 2 -94 8 -101 15 -32 32 4 138 61 187 34 28 96 36 117 15 13 -13 33 -4 33 16 0 39 -94 46 -155 12z"/>
<path d="M3194 7068 c-58 -40 -102 -115 -111 -187 -5 -45 -3 -55 17 -76 32 -34 109 -50 190 -39 95 13 81 29 -27 30 -136 2 -161 25 -133 123 15 54 57 107 105 132 37 20 47 21 70 11 18 -9 26 -18 22 -30 -2 -9 -6 -23 -8 -31 -5 -19 31 -27 42 -9 5 7 9 27 9 45 0 69 -94 86 -176 31z"/>
<path d="M4171 7068 c-44 -21 -81 -68 -81 -101 0 -15 -7 -18 -37 -15 -32 3 -38 0 -38 -17 0 -17 7 -20 45 -20 25 0 62 -6 83 -13 l37 -14 -20 -25 c-27 -35 -42 -91 -29 -114 20 -38 141 -17 215 38 32 24 25 45 -8 24 -28 -17 -126 -51 -150 -51 -44 0 -1 98 52 120 43 18 32 34 -29 41 -29 4 -54 9 -56 11 -3 2 19 20 47 39 68 45 96 82 78 104 -17 21 -57 19 -109 -7z m73 -22 c-3 -8 -22 -25 -42 -38 -71 -46 -96 -44 -44 4 47 44 97 64 86 34z"/>
<path d="M296 7072 c-9 -16 20 -40 65 -54 33 -9 42 -9 49 1 6 11 25 11 106 0 137 -18 1253 -24 1235 -6 -9 9 -163 14 -589 18 -471 5 -594 9 -672 23 -150 26 -187 29 -194 18z"/>
<path d="M1764 6985 c-12 -30 4 -977 21 -1260 16 -261 16 -499 1 -536 -9 -20 -256 -103 -366 -123 -268 -48 -539 -47 -885 3 -230 34 -309 39 -303 19 3 -8 27 -14 64 -16 32 -1 138 -14 234 -27 386 -54 621 -55 896 -5 121 22 362 94 382 114 8 7 18 46 23 86 9 71 5 182 -22 640 -6 102 -12 394 -14 650 -2 323 -7 466 -14 468 -6 2 -14 -4 -17 -13z"/>
<path d="M8970 6941 c-36 -10 -72 -68 -68 -110 4 -43 28 -55 28 -14 0 15 9 43 20 61 16 26 26 32 55 32 78 0 134 -65 135 -154 0 -36 -32 -106 -49 -106 -14 0 -39 34 -46 63 -5 17 -14 27 -25 27 -29 0 -30 -24 -4 -70 14 -24 22 -45 19 -48 -10 -10 -96 -4 -110 8 -19 16 -19 67 0 100 20 34 18 50 -4 50 -23 0 -51 -64 -51 -114 0 -63 78 -99 165 -77 38 9 51 9 76 -4 17 -9 46 -15 67 -13 30 3 33 5 17 12 -11 4 -34 15 -51 23 -31 16 -31 16 -12 35 59 59 62 160 6 241 -33 46 -112 74 -168 58z"/>
<path d="M5521 6923 c-12 -10 -47 -67 -79 -128 -50 -96 -61 -111 -86 -115 -37 -6 -47 -30 -12 -30 l25 0 -32 -55 c-33 -58 -47 -68 -47 -35 0 23 -26 38 -40 24 -12 -12 13 -86 33 -98 23 -14 45 10 92 98 l40 76 68 0 69 0 -4 -67 c-3 -58 -1 -68 15 -71 13 -3 17 3 17 30 0 18 3 50 6 71 6 33 10 37 35 37 16 0 29 5 29 10 0 6 -13 10 -29 10 l-28 0 -5 114 c-5 140 -20 167 -67 129z m29 -139 l0 -94 -59 0 -60 0 34 75 c42 91 64 127 76 119 5 -3 9 -48 9 -100z"/>
<path d="M4937 6863 c-4 -3 -7 -40 -7 -80 l0 -75 -88 3 c-93 3 -115 -2 -105 -26 4 -12 25 -15 97 -15 l92 0 -4 -71 c-3 -43 0 -75 7 -82 17 -17 22 -4 28 77 l6 76 93 0 c85 0 118 9 100 28 -4 3 -48 8 -98 10 l-91 5 6 78 c5 70 3 79 -12 79 -10 0 -21 -3 -24 -7z"/>
<path d="M8607 6823 c-4 -3 -7 -20 -7 -37 0 -53 -11 -60 -77 -52 -62 7 -75 3 -66 -20 3 -9 20 -14 47 -14 72 0 86 -8 86 -46 0 -46 26 -45 34 1 6 32 10 35 40 35 55 0 126 12 126 21 0 5 -36 9 -81 9 -72 0 -80 2 -76 18 3 9 8 34 12 55 5 32 3 37 -13 37 -10 0 -22 -3 -25 -7z"/>
<path d="M620 6794 c-42 -18 -86 -59 -106 -96 -10 -19 -22 -28 -39 -28 -16 0 -25 -6 -25 -15 0 -9 9 -15 24 -15 17 0 26 -7 30 -25 3 -13 18 -30 32 -38 l25 -13 -26 -14 c-35 -19 -67 -73 -63 -107 2 -21 11 -31 41 -42 32 -12 51 -12 121 -2 82 12 116 24 104 36 -3 4 -40 2 -81 -2 -107 -13 -147 -7 -147 21 0 41 92 106 150 106 11 0 20 7 20 15 0 11 -11 15 -39 15 -49 0 -101 18 -101 36 0 7 19 18 42 25 98 26 192 93 186 132 -3 19 -10 22 -58 24 -33 2 -69 -4 -90 -13z m110 -23 c0 -18 -67 -62 -125 -82 -32 -11 -59 -18 -62 -16 -8 9 62 80 92 93 35 15 95 18 95 5z"/>
<path d="M1213 6765 c-72 -31 -163 -159 -163 -231 0 -19 8 -38 21 -50 19 -17 37 -19 155 -19 93 0 137 4 146 13 10 9 -12 12 -109 12 -142 0 -173 8 -173 45 0 39 24 88 66 135 60 66 117 88 127 50 3 -12 14 -20 26 -20 29 0 28 44 -1 64 -27 19 -53 20 -95 1z"/>
<path d="M6680 6745 c-24 -29 2 -34 123 -22 149 14 150 31 0 35 -90 2 -112 0 -123 -13z"/>
<path d="M8050 6719 c-19 -5 -183 -8 -365 -7 -277 1 -330 -1 -330 -13 0 -20 718 -20 753 -1 25 14 21 33 -6 31 -9 -1 -33 -5 -52 -10z"/>
<path d="M6642 6623 c3 -16 16 -18 143 -14 77 2 143 5 148 8 26 15 -22 23 -149 23 -133 0 -145 -1 -142 -17z"/>
<path d="M7620 6586 c0 -13 11 -16 58 -17 31 0 66 -4 77 -8 17 -7 13 -11 -28 -36 -37 -21 -47 -33 -45 -49 3 -20 8 -21 101 -20 58 1 103 6 110 13 8 8 -12 11 -78 11 l-88 0 41 29 c22 16 43 35 47 41 15 25 -21 41 -108 47 -77 5 -87 4 -87 -11z"/>
<path d="M6050 6570 c-25 -16 3 -30 60 -30 l58 0 -18 -48 c-31 -81 -28 -148 5 -135 9 3 15 18 15 39 0 18 9 59 21 90 18 48 24 55 42 50 28 -7 137 5 137 15 0 4 -15 10 -32 13 -62 9 -275 14 -288 6z"/>
<path d="M5625 6540 c-14 -22 -18 -149 -5 -165 20 -24 70 -18 102 12 28 27 28 27 28 4 0 -12 5 -31 10 -42 13 -22 50 -26 50 -4 0 8 -5 15 -11 15 -7 0 -10 28 -7 81 3 94 -11 114 -37 52 -18 -42 -72 -103 -92 -103 -15 0 -17 50 -4 98 6 18 7 40 4 48 -6 16 -29 19 -38 4z"/>
<path d="M5897 6529 c-25 -15 -47 -63 -47 -104 0 -40 23 -55 86 -55 34 0 146 50 159 70 14 22 -6 23 -43 3 -118 -65 -188 -51 -151 31 15 31 34 39 59 24 15 -10 22 -10 31 -1 31 31 -49 58 -94 32z"/>
<path d="M3763 6490 c-13 -5 -23 -17 -23 -26 0 -12 6 -15 23 -10 12 4 43 9 70 13 62 8 62 -8 -2 -47 -57 -35 -70 -59 -44 -78 24 -17 214 -13 221 6 3 9 -19 12 -87 12 -50 0 -91 4 -91 9 0 5 20 21 44 35 61 36 72 77 23 90 -32 8 -109 6 -134 -4z"/>
<path d="M849 6463 c-1 -5 -1 -11 0 -15 2 -15 -33 -117 -56 -161 -24 -48 -25 -66 -3 -52 19 12 62 86 81 143 25 71 24 92 -1 92 -11 0 -21 -3 -21 -7z"/>
<path d="M210 6123 c0 -18 11 -21 143 -31 236 -19 422 -23 617 -12 102 5 285 13 408 16 122 4 222 11 222 15 0 20 -120 21 -440 4 -348 -18 -610 -16 -780 6 -183 24 -170 24 -170 2z"/>
<path d="M6081 5873 c-24 -9 -61 -33 -83 -55 -35 -35 -42 -38 -76 -32 -20 4 -45 13 -54 21 -20 18 -48 11 -48 -12 0 -20 58 -45 103 -45 26 0 36 -6 45 -24 6 -14 29 -35 50 -47 l39 -23 -56 -27 c-66 -33 -84 -46 -99 -76 -31 -58 21 -78 181 -69 134 7 192 17 192 31 0 6 -36 8 -85 5 -128 -7 -237 -6 -246 3 -22 22 53 76 144 103 57 17 69 40 25 50 -42 10 -100 41 -106 57 -4 11 14 18 76 31 146 29 226 84 168 116 -28 15 -119 11 -170 -7z m149 -22 c0 -12 -92 -47 -146 -56 -21 -4 -48 -9 -59 -12 -36 -10 2 24 58 52 51 25 147 36 147 16z"/>
<path d="M3418 5848 c-8 -13 -41 -71 -73 -130 -62 -114 -149 -231 -168 -225 -7 2 -13 20 -15 39 -3 40 -24 55 -43 32 -16 -20 5 -90 32 -104 28 -16 53 -5 91 39 33 38 33 38 131 45 l99 7 -7 -55 c-6 -48 -5 -56 9 -56 25 0 31 43 31 210 0 173 -11 220 -50 220 -13 0 -29 -10 -37 -22z m45 -40 c3 -13 9 -68 13 -124 l7 -101 -69 -6 c-38 -4 -80 -7 -92 -7 l-24 0 21 33 c12 17 44 76 72 130 28 53 54 97 59 97 4 0 10 -10 13 -22z"/>
<path d="M1274 5810 c-40 -12 -56 -32 -52 -62 5 -35 36 -36 40 -1 3 24 9 29 47 36 55 11 108 -3 151 -39 47 -40 41 -74 -22 -135 -69 -66 -88 -96 -88 -139 0 -35 33 -91 46 -78 4 4 1 20 -5 36 -16 39 -1 75 58 137 87 91 100 128 60 179 -44 56 -160 89 -235 66z"/>
<path d="M5064 5728 c-43 -68 -106 -220 -96 -230 6 -6 28 -4 56 6 26 9 84 19 131 22 52 4 86 12 89 19 2 7 -13 37 -33 66 -21 30 -47 77 -57 104 -27 68 -53 72 -90 13z m111 -134 l24 -31 -67 -7 c-37 -3 -77 -9 -89 -12 -32 -9 -30 6 18 104 l41 84 25 -53 c13 -30 35 -68 48 -85z"/>
<path d="M5365 5716 c-51 -53 -72 -118 -49 -153 19 -30 42 -29 89 2 20 15 40 24 42 21 3 -3 -2 -56 -11 -118 -9 -62 -16 -137 -16 -166 0 -49 2 -53 22 -50 28 4 50 55 29 67 -17 11 -10 79 24 261 l23 125 -26 28 c-39 41 -76 37 -127 -17z m92 -32 c-3 -20 -13 -44 -22 -54 -19 -21 -82 -56 -89 -49 -3 3 -1 22 5 42 14 51 55 97 86 97 24 0 25 -3 20 -36z"/>
<path d="M778 5660 c-69 -21 -164 -138 -183 -227 -19 -93 103 -180 204 -145 28 10 31 8 55 -29 15 -21 31 -39 36 -39 15 0 12 10 -12 56 l-22 42 29 33 c41 49 55 90 55 161 0 76 -24 122 -75 144 -38 16 -48 16 -87 4z m72 -35 c40 -21 50 -43 50 -116 0 -49 -6 -72 -26 -106 -28 -48 -35 -48 -54 -3 -7 18 -20 30 -31 30 -29 0 -31 -16 -4 -55 29 -44 26 -52 -19 -61 -36 -6 -66 5 -103 39 -45 40 -19 150 47 197 16 12 30 27 30 34 0 17 29 43 55 49 11 2 21 5 23 6 2 0 16 -6 32 -14z"/>
<path d="M4400 5639 c0 -21 2 -21 118 -15 136 8 174 14 166 27 -3 5 -68 9 -145 9 -135 0 -139 -1 -139 -21z"/>
<path d="M5650 5609 c0 -15 5 -20 22 -17 34 5 37 38 4 38 -20 0 -26 -5 -26 -21z"/>
<path d="M4445 5560 c-3 -5 -3 -15 1 -21 9 -15 224 -6 251 10 10 6 16 11 13 11 -44 8 -260 8 -265 0z"/>
<path d="M3902 5534 c2 -14 12 -19 38 -20 19 0 51 -1 71 -2 l35 -2 -8 -72 c-9 -80 -6 -98 15 -98 10 0 16 19 21 63 13 112 9 107 86 107 38 0 71 4 74 9 7 11 -50 18 -212 27 -117 6 -124 5 -120 -12z"/>
<path d="M3771 5526 c-31 -17 -50 -53 -51 -96 -1 -29 -3 -31 -10 -15 -5 11 -9 39 -9 63 -1 35 -4 42 -21 42 -13 0 -26 -13 -39 -38 -11 -21 -27 -45 -36 -52 -16 -13 -17 -10 -14 35 4 45 2 50 -16 50 -17 0 -20 -8 -23 -53 -5 -82 31 -107 78 -57 l24 26 24 -31 c13 -17 32 -30 41 -29 9 2 35 -3 57 -11 36 -11 49 -10 95 4 58 19 96 42 86 52 -3 4 -24 -1 -47 -10 -41 -16 -105 -21 -134 -10 -31 12 -15 83 23 104 14 7 25 5 46 -12 19 -14 30 -17 37 -10 16 16 2 41 -27 52 -35 13 -55 12 -84 -4z"/>
<path d="M1040 5435 c0 -12 14 -15 69 -15 38 0 83 3 100 6 62 13 29 24 -69 24 -82 0 -100 -3 -100 -15z"/>
<path d="M1412 5204 c4 -22 54 -32 71 -15 14 14 9 18 -36 26 -35 7 -39 6 -35 -11z"/>
<path d="M9304 4710 c-69 -15 -126 -74 -111 -114 7 -17 -52 -30 -121 -28 -36 1 -43 -1 -40 -16 4 -23 74 -28 140 -8 46 13 54 13 81 -1 l30 -15 -24 -19 c-13 -10 -27 -19 -30 -19 -4 0 -18 -17 -33 -38 -32 -47 -34 -85 -4 -106 47 -33 269 -10 308 31 16 17 21 17 -95 -8 -47 -10 -156 -12 -179 -3 -42 16 12 97 86 129 72 32 71 43 -2 65 -43 12 -44 13 -20 22 56 21 107 51 119 70 25 40 -34 72 -105 58z m71 -40 c6 -10 -108 -70 -132 -70 -32 0 6 58 47 73 26 9 79 7 85 -3z"/>
<path d="M5215 4695 c-57 -20 -85 -56 -85 -110 0 -52 -15 -60 -91 -50 -46 6 -49 6 -49 -15 0 -22 2 -23 88 -18 61 4 94 2 105 -7 15 -11 14 -15 -18 -36 -19 -13 -45 -44 -56 -67 -20 -41 -20 -45 -5 -60 29 -29 236 -19 236 11 0 10 -25 12 -100 9 -81 -4 -100 -2 -100 10 0 26 31 58 81 83 57 29 62 48 17 64 l-33 12 52 29 c86 49 116 105 71 134 -37 22 -70 26 -113 11z m92 -40 c9 -26 -55 -81 -114 -100 -21 -6 -23 -3 -23 30 0 49 38 85 92 85 26 0 41 -5 45 -15z"/>
<path d="M4684 4669 c-40 -11 -90 -68 -119 -133 -48 -110 -40 -186 21 -212 60 -25 175 -14 213 21 23 22 4 35 -28 19 -76 -38 -185 -26 -197 22 -14 55 42 193 94 235 49 38 109 18 121 -41 5 -26 13 -36 29 -38 25 -4 27 6 11 61 -16 57 -78 86 -145 66z"/>
<path d="M6552 4588 c-46 -101 -52 -137 -24 -139 30 -2 86 2 103 7 15 4 15 -1 3 -48 -20 -75 -18 -90 9 -86 15 2 21 9 19 21 -2 10 4 43 13 73 12 41 20 54 35 54 27 0 36 20 12 27 -20 5 -20 5 0 65 11 33 27 62 34 65 17 6 18 29 3 38 -20 13 -60 -39 -80 -106 l-20 -66 -51 -6 c-29 -4 -54 -5 -56 -2 -2 2 14 42 37 89 46 96 48 106 23 106 -13 0 -30 -25 -60 -92z"/>
<path d="M6049 4646 c-43 -30 -83 -87 -100 -144 -11 -38 -10 -45 8 -70 34 -47 110 -92 156 -92 45 0 127 37 127 57 0 16 -4 16 -38 -1 -57 -29 -100 -29 -148 -1 -24 14 -51 37 -60 51 -15 23 -15 28 0 69 30 77 136 151 136 95 0 -15 7 -20 25 -20 20 0 25 5 25 23 0 56 -70 74 -131 33z"/>
<path d="M8742 4639 c-47 -24 -83 -65 -107 -122 -21 -50 -5 -85 50 -111 72 -36 235 -33 235 3 0 3 -39 6 -88 6 -132 0 -185 30 -161 92 30 81 162 153 143 78 -5 -22 -3 -25 20 -25 23 0 26 4 26 34 0 59 -51 79 -118 45z"/>
<path d="M8398 4628 c-40 -23 -49 -45 -23 -54 9 -4 26 5 42 20 14 14 30 26 34 26 20 0 6 -28 -31 -65 -22 -21 -40 -44 -40 -51 0 -6 21 -17 48 -24 51 -12 82 -34 82 -58 0 -11 -8 -13 -32 -8 -93 19 -108 19 -108 3 0 -37 162 -50 184 -14 16 25 -10 64 -59 91 -22 11 -42 22 -44 23 -2 1 8 18 23 38 37 48 33 89 -9 93 -17 1 -46 -8 -67 -20z"/>
<path d="M7117 4628 c-79 -16 -117 -49 -117 -101 0 -19 -8 -26 -40 -36 -23 -7 -63 -15 -91 -18 -39 -5 -49 -9 -47 -22 5 -21 70 -17 148 9 54 18 60 18 108 3 l51 -17 -30 -18 c-59 -36 -61 -100 -2 -127 49 -22 188 -6 214 25 18 22 9 24 -51 8 -99 -27 -185 -2 -160 47 6 10 37 28 70 40 33 12 60 27 60 34 0 12 -12 15 -107 30 -24 4 -43 10 -43 14 0 5 18 16 39 26 48 21 96 69 88 88 -7 19 -43 25 -90 15z m38 -44 c-42 -33 -115 -65 -115 -51 0 15 37 51 60 60 8 3 29 6 45 6 29 0 29 0 10 -15z"/>
<path d="M3360 4542 c-19 -42 -56 -110 -83 -150 -26 -40 -45 -77 -42 -83 10 -15 33 -11 43 8 9 15 17 15 83 3 181 -32 193 -26 134 69 -47 76 -64 124 -65 184 0 38 -3 47 -17 47 -12 -1 -29 -25 -53 -78z m45 -60 c3 -15 21 -54 40 -85 19 -32 35 -59 35 -61 0 -3 -163 25 -168 29 -2 1 13 29 33 61 19 33 35 65 35 72 0 23 18 12 25 -16z"/>
<path d="M3707 4593 c-40 -43 -79 -137 -84 -208 -5 -57 -3 -64 18 -79 30 -21 32 -21 68 10 38 32 38 31 11 -120 -24 -131 -26 -186 -6 -186 23 0 38 27 31 59 -4 17 7 100 26 202 34 185 41 307 19 333 -19 24 -53 19 -83 -11z m48 -50 c-3 -21 -17 -56 -30 -79 -21 -35 -22 -43 -10 -55 12 -12 11 -19 -11 -47 -33 -42 -44 -41 -44 6 0 52 23 126 54 173 34 50 50 51 41 2z"/>
<path d="M6397 4514 c-16 -16 -6 -34 19 -34 19 0 25 5 22 17 -3 19 -29 29 -41 17z"/>
<path d="M8000 4502 c0 -11 7 -23 16 -26 43 -17 324 4 324 24 0 5 -57 7 -127 7 -71 -1 -147 2 -170 6 -39 8 -43 7 -43 -11z"/>
<path d="M7578 4503 c-66 -3 -88 -7 -88 -17 0 -29 69 -34 163 -12 71 17 99 37 47 34 -19 -1 -74 -4 -122 -5z"/>
<path d="M5490 4484 c0 -7 9 -16 21 -19 35 -11 193 -8 224 5 40 16 32 18 -117 23 -100 3 -128 1 -128 -9z"/>
<path d="M3952 4471 c3 -14 24 -16 142 -19 85 -1 143 1 150 8 5 5 8 11 5 14 -2 2 -71 6 -152 8 -132 5 -148 3 -145 -11z"/>
<path d="M7490 4436 c0 -7 6 -19 14 -25 18 -15 106 -26 140 -17 44 11 29 26 -26 26 -29 0 -66 7 -82 15 -35 19 -46 19 -46 1z"/>
<path d="M3973 4398 c-12 -21 17 -28 117 -28 104 0 210 14 210 28 0 10 -321 9 -327 0z"/>
<path d="M3073 3723 c-28 -6 -47 -29 -39 -49 7 -18 42 -14 39 4 -6 28 195 4 204 -24 2 -7 -12 -21 -31 -33 -19 -12 -48 -38 -65 -57 -26 -29 -29 -38 -20 -55 15 -29 61 -46 146 -54 73 -7 153 0 153 14 0 5 -42 11 -92 14 -109 8 -168 22 -168 42 0 8 27 35 60 60 65 50 74 75 38 99 -42 26 -175 50 -225 39z"/>
<path d="M4772 3644 c2 -13 10 -18 26 -16 33 5 126 -25 146 -47 16 -18 16 -20 -10 -40 -15 -11 -30 -21 -35 -21 -17 0 -69 -53 -69 -71 0 -27 30 -39 121 -49 45 -5 87 -14 93 -20 9 -6 18 -6 30 3 30 22 -2 37 -100 48 -49 5 -93 14 -97 18 -5 5 19 25 52 45 33 20 63 45 66 56 15 47 -64 98 -166 107 -56 6 -61 4 -57 -13z"/>
<path d="M7380 3596 c0 -7 17 -25 38 -38 68 -46 122 -152 122 -243 0 -98 -75 -294 -128 -336 -32 -25 -20 -38 16 -18 68 37 132 189 140 330 6 126 -13 184 -87 260 -55 57 -101 77 -101 45z"/>
<path d="M2173 3556 c-46 -38 -85 -120 -86 -177 -1 -41 4 -54 26 -77 25 -24 34 -27 101 -27 60 0 80 4 103 21 35 26 41 64 13 89 -31 28 -124 26 -173 -3 l-39 -22 7 32 c16 74 69 144 115 153 28 5 34 11 25 24 -11 19 -63 12 -92 -13z m135 -208 c7 -37 -88 -61 -142 -36 l-26 11 26 24 c22 20 34 23 82 21 44 -2 58 -7 60 -20z"/>
<path d="M2003 3543 c-31 -45 -133 -230 -133 -241 0 -5 6 -12 14 -15 15 -6 29 6 39 36 10 27 117 206 127 212 6 4 10 13 10 21 0 24 -38 15 -57 -13z"/>
<path d="M2948 3556 c-53 -19 -87 -43 -100 -72 -8 -17 -19 -24 -40 -24 -21 0 -28 -5 -28 -19 0 -23 10 -27 83 -36 32 -4 57 -11 57 -14 0 -4 -11 -18 -25 -31 -33 -31 -34 -77 -2 -89 27 -10 -41 -18 -243 -26 -74 -3 -209 -10 -300 -15 -91 -5 -230 -12 -309 -15 -137 -4 -178 -13 -156 -34 9 -8 175 0 625 29 96 6 304 15 462 19 251 6 290 9 305 24 24 24 9 32 -36 19 -21 -7 -81 -12 -132 -11 -64 0 -86 3 -67 9 42 13 103 50 116 71 16 26 0 24 -43 -5 -65 -44 -205 -58 -205 -21 0 8 20 28 45 45 61 42 58 69 -8 70 -17 1 -13 6 18 22 22 11 50 30 63 41 22 20 29 52 15 60 -24 13 -63 14 -95 3z m53 -40 c-13 -15 -94 -56 -111 -56 -19 0 2 27 38 48 44 25 92 31 73 8z"/>
<path d="M6110 3518 c-38 -67 -57 -129 -75 -248 -20 -127 -19 -263 1 -331 20 -66 87 -139 128 -139 35 0 33 12 -5 29 -44 19 -85 89 -99 168 -22 130 20 393 80 500 34 59 37 73 15 73 -8 0 -28 -24 -45 -52z"/>
<path d="M578 3549 c-83 -32 -133 -281 -78 -389 12 -25 32 -55 43 -68 27 -30 90 -46 127 -33 24 8 31 6 52 -16 30 -32 70 -53 103 -53 32 0 33 16 0 24 -13 3 -40 20 -60 37 l-35 31 33 47 c47 64 68 124 74 208 5 60 2 78 -17 118 -30 63 -81 96 -157 101 -32 2 -70 -1 -85 -7z m139 -40 c80 -39 103 -132 64 -258 -11 -34 -31 -78 -46 -98 -32 -41 -34 -40 -71 62 -17 46 -27 61 -44 63 -20 3 -22 1 -16 -25 4 -15 20 -57 37 -92 16 -35 29 -65 29 -67 0 -2 -13 -4 -29 -4 -40 0 -86 41 -107 95 -21 55 -16 175 9 225 10 18 15 41 13 49 -10 32 39 70 88 71 16 0 49 -9 73 -21z"/>
<path d="M2540 3541 c-49 -26 -128 -98 -145 -132 -22 -42 -19 -85 7 -103 42 -30 183 -15 266 28 53 27 36 36 -30 15 -130 -39 -218 -38 -218 5 0 61 124 169 189 164 30 -3 36 0 36 17 0 28 -58 31 -105 6z"/>
<path d="M4650 3541 c-45 -14 -88 -40 -109 -67 -18 -22 -26 -25 -68 -22 -42 3 -48 1 -48 -17 0 -18 7 -20 75 -21 134 -3 127 1 86 -38 -67 -63 -37 -106 74 -106 76 0 129 13 162 39 33 27 15 37 -29 16 -43 -21 -170 -31 -193 -16 -12 8 -12 13 5 31 10 11 34 30 52 41 36 23 42 43 16 54 -14 5 -8 12 30 31 55 29 69 51 42 70 -20 15 -55 17 -95 5z m60 -35 c0 -8 -113 -47 -124 -43 -17 6 66 46 97 47 15 0 27 -2 27 -4z"/>
<path d="M4139 3480 c-139 -72 -146 -169 -14 -185 59 -8 154 6 213 31 59 24 25 31 -65 12 -95 -19 -174 -16 -194 9 -33 38 69 118 151 118 38 0 45 3 45 20 0 33 -68 31 -136 -5z"/>
<path d="M7930 3393 c-31 -12 -50 -37 -50 -65 0 -27 -1 -28 -53 -28 -29 0 -58 5 -64 11 -15 15 -43 4 -43 -16 0 -25 49 -37 127 -32 58 4 79 2 112 -15 23 -11 41 -21 41 -23 0 -1 -29 -19 -64 -40 -168 -98 -192 -203 -51 -220 65 -8 124 0 188 28 59 25 48 42 -13 21 -56 -20 -192 -23 -214 -5 -9 8 -16 20 -16 29 0 24 79 94 147 130 34 18 65 37 68 42 10 16 -6 37 -43 54 l-37 18 44 17 c92 34 87 92 -10 97 -30 2 -61 1 -69 -3z m95 -32 c18 -7 18 -9 -8 -25 -37 -25 -90 -26 -95 -3 -6 28 57 46 103 28z"/>
<path d="M6872 3350 c-57 -38 -99 -78 -134 -128 -14 -21 -14 -21 -71 2 -32 13 -60 25 -63 28 -2 3 7 13 21 22 32 21 33 59 3 80 -30 21 -134 22 -141 2 -8 -21 20 -43 35 -28 15 15 58 15 78 2 13 -9 10 -15 -17 -39 -49 -41 -43 -55 37 -86 38 -15 73 -32 77 -37 18 -31 -111 -74 -143 -48 -11 10 -15 9 -20 -5 -4 -10 -1 -21 7 -27 18 -12 112 -3 147 15 24 12 31 12 49 0 45 -30 178 -29 219 2 17 13 12 14 -51 9 -92 -8 -155 8 -155 39 1 64 190 226 227 195 18 -14 38 4 30 26 -12 30 -70 19 -135 -24z"/>
<path d="M7275 3369 c-45 -13 -75 -45 -75 -79 0 -25 -5 -30 -37 -38 -21 -6 -51 -9 -68 -8 -21 1 -30 -4 -30 -14 0 -22 79 -25 130 -5 23 8 50 13 59 9 14 -5 8 -15 -33 -53 -63 -58 -71 -82 -37 -116 25 -25 51 -30 136 -25 44 2 100 28 100 46 0 17 -12 18 -27 3 -13 -13 -122 -24 -157 -15 -45 11 -35 50 24 92 50 36 61 59 38 82 -6 6 -10 13 -7 15 2 1 23 15 47 30 39 25 55 58 35 70 -19 11 -71 15 -98 6z m60 -39 c-6 -10 -78 -50 -90 -50 -14 0 -2 31 17 44 25 18 83 22 73 6z"/>
<path d="M5460 3325 c-5 -14 -10 -36 -10 -48 0 -12 -3 -33 -7 -46 -6 -22 -9 -23 -70 -17 -53 6 -64 4 -70 -10 -9 -23 14 -34 75 -34 52 0 52 0 52 -32 0 -43 20 -82 44 -86 15 -3 17 0 11 14 -14 33 -17 63 -11 88 5 21 14 26 64 32 31 4 68 8 82 8 15 1 25 7 25 16 0 16 -46 20 -121 8 l-41 -6 10 47 c14 71 14 85 -5 89 -12 2 -21 -6 -28 -23z"/>
<path d="M1083 3303 c-18 -7 -16 -30 3 -37 9 -3 79 -6 156 -6 107 0 139 3 136 13 -3 8 -42 14 -124 18 -65 3 -128 8 -139 11 -11 4 -26 4 -32 1z"/>
<path d="M8305 3300 c-14 -22 9 -27 102 -23 149 6 223 14 223 24 0 13 -317 12 -325 -1z"/>
<path d="M6225 3241 c-27 -4 -41 -12 -43 -23 -2 -12 3 -18 15 -18 38 0 213 34 213 42 0 9 -123 9 -185 -1z"/>
<path d="M3593 3204 c-11 -29 16 -38 120 -42 103 -3 191 12 187 33 -1 6 -7 9 -13 7 -7 -2 -50 -6 -97 -9 -63 -4 -97 -1 -130 11 -56 20 -59 20 -67 0z"/>
<path d="M4910 3169 c-47 -4 -246 -11 -442 -15 -290 -6 -358 -10 -358 -21 0 -10 43 -13 222 -13 219 0 561 15 647 28 42 7 73 34 34 30 -10 -1 -56 -5 -103 -9z"/>
<path d="M1290 3159 c-30 -5 -81 -7 -112 -4 -54 6 -58 4 -58 -15 0 -18 6 -20 73 -20 106 0 232 23 222 41 -7 11 -49 10 -125 -2z"/>
<path d="M8364 3139 c-16 -26 12 -30 145 -24 75 4 140 11 144 15 5 4 -18 10 -50 14 -82 9 -232 6 -239 -5z"/>
<path d="M2525 3087 c-26 -20 -12 -26 75 -29 86 -4 85 -21 -3 -73 -52 -31 -67 -45 -65 -60 3 -16 14 -21 66 -28 78 -11 254 3 260 21 3 9 -30 12 -140 12 l-143 0 54 30 c96 53 114 84 66 116 -36 23 -144 30 -170 11z"/>
<path d="M4420 3062 c-6 -2 -10 -10 -10 -18 0 -11 21 -14 101 -14 123 0 125 -9 13 -65 -83 -42 -103 -68 -60 -79 37 -9 243 12 274 28 36 19 16 24 -53 15 -33 -4 -85 -7 -115 -8 l-55 0 50 26 c63 32 85 51 85 74 0 10 -8 22 -17 28 -17 9 -193 19 -213 13z"/>
<path d="M3132 2395 c-77 -87 -142 -340 -142 -554 0 -163 57 -274 153 -295 33 -8 37 11 5 23 -36 14 -86 72 -103 121 -26 71 -29 164 -11 288 30 205 90 372 147 413 16 11 27 25 24 30 -12 19 -44 8 -73 -26z"/>
<path d="M6246 2341 c-8 -13 -7 -13 89 -35 127 -30 188 -108 188 -241 0 -64 -4 -81 -42 -160 -34 -69 -59 -104 -117 -161 -62 -63 -70 -74 -50 -74 38 0 157 133 203 227 36 74 38 83 38 173 0 78 -4 102 -22 135 -28 53 -68 89 -124 114 -56 25 -153 38 -163 22z"/>
<path d="M3672 2325 c-52 -37 -85 -160 -62 -229 16 -50 62 -86 110 -86 41 0 55 11 65 51 15 59 -48 117 -115 107 -16 -3 -30 -2 -30 1 0 26 25 86 46 110 21 25 30 29 56 24 26 -5 30 -3 26 13 -4 25 -65 31 -96 9z m57 -209 c29 -31 23 -76 -11 -76 -42 0 -87 68 -61 93 14 15 51 6 72 -17z"/>
<path d="M3445 2266 c-26 -59 -55 -161 -55 -195 0 -43 28 -21 40 32 15 63 48 146 68 169 17 20 9 48 -13 48 -10 0 -26 -21 -40 -54z"/>
<path d="M4774 2278 c-17 -18 -57 -51 -87 -73 -58 -41 -69 -61 -41 -72 10 -4 31 9 60 38 24 24 44 38 44 32 0 -7 -12 -44 -26 -83 -26 -73 -26 -96 2 -68 13 13 82 178 101 241 9 28 -20 20 -53 -15z"/>
<path d="M5931 2280 c-72 -18 -131 -87 -131 -154 1 -76 62 -119 172 -120 52 -1 71 3 85 17 49 49 -92 97 -197 66 -22 -6 -25 52 -5 91 9 17 30 40 48 50 39 24 112 27 121 5 8 -22 46 -19 46 4 0 10 -6 23 -13 29 -19 16 -86 22 -126 12z m74 -224 l30 -13 -31 -7 c-35 -8 -127 12 -118 25 8 13 85 10 119 -5z"/>
<path d="M2401 2261 c-20 -13 -6 -45 17 -36 55 23 168 16 179 -10 3 -8 -9 -32 -25 -53 -45 -56 -49 -85 -19 -116 28 -28 99 -50 133 -42 37 10 28 23 -18 30 -90 15 -110 53 -58 113 35 39 38 72 9 99 -16 14 -40 19 -112 22 -51 1 -98 -1 -106 -7z"/>
<path d="M1720 2117 c-90 -44 -164 -149 -165 -235 0 -56 32 -86 112 -102 93 -20 253 7 253 41 0 7 -7 8 -17 4 -52 -21 -145 -29 -210 -18 -73 13 -103 36 -103 78 0 38 59 142 97 171 67 51 143 65 157 29 8 -23 46 -19 46 4 0 51 -92 66 -170 28z"/>
<path d="M2238 2106 c-53 -14 -95 -39 -121 -72 -15 -19 -29 -24 -85 -26 -52 -2 -67 -6 -67 -18 0 -12 15 -15 75 -16 41 0 88 -6 104 -13 16 -6 49 -15 73 -18 l44 -6 -53 -29 c-75 -41 -102 -70 -94 -101 7 -30 30 -37 121 -36 72 1 113 11 155 41 38 28 15 33 -39 9 -54 -23 -164 -29 -191 -11 -13 9 -11 14 10 31 14 12 51 34 83 51 78 39 74 58 -16 80 -38 9 -71 18 -73 21 -3 3 23 14 58 26 108 36 157 78 112 95 -22 8 -41 7 -96 -8z m17 -41 c-16 -8 -37 -14 -45 -14 -8 0 -1 7 15 14 17 8 37 14 45 14 8 0 2 -7 -15 -14z"/>
<path d="M6763 2023 c-28 -3 -43 -9 -43 -18 0 -8 4 -16 8 -19 4 -2 62 2 127 9 66 8 121 15 123 15 1 0 2 5 2 10 0 10 -123 11 -217 3z"/>
<path d="M5475 1989 c-33 -5 -93 -8 -133 -7 -78 1 -88 -2 -78 -28 5 -14 18 -15 98 -9 137 11 248 29 251 40 3 13 -63 15 -138 4z"/>
<path d="M4028 1979 c-6 -4 -8 -13 -6 -20 6 -17 283 -25 293 -8 4 6 5 12 3 15 -8 7 -279 19 -290 13z"/>
<path d="M4609 1974 c-6 -7 -4 -16 5 -23 11 -9 53 -10 183 0 92 6 170 13 172 15 11 10 -17 13 -178 16 -119 2 -176 0 -182 -8z"/>
<path d="M1047 1974 c-34 -34 55 -50 218 -39 58 4 105 11 105 15 0 4 -60 10 -132 14 -73 4 -144 9 -158 12 -14 2 -29 2 -33 -2z"/>
<path d="M5790 1959 c0 -22 0 -22 228 -14 340 11 318 33 -35 34 -191 1 -193 1 -193 -20z"/>
<path d="M3422 1953 c-76 -3 -102 -7 -99 -16 3 -9 60 -11 233 -10 248 3 334 9 334 24 0 8 -221 9 -468 2z"/>
<path d="M1060 1877 c0 -9 11 -19 26 -23 43 -11 323 1 336 14 9 9 -19 12 -129 12 -77 0 -161 3 -187 6 -38 6 -46 4 -46 -9z"/>
<path d="M5907 1883 c-20 -3 -27 -9 -25 -21 3 -14 14 -16 69 -14 50 3 68 0 78 -12 12 -15 4 -21 -68 -53 -119 -55 -110 -91 27 -100 71 -5 85 -3 140 22 34 15 62 32 62 36 0 13 -17 11 -48 -5 -39 -19 -109 -27 -167 -18 l-50 7 67 32 c107 50 114 101 18 122 -28 6 -56 10 -63 10 -7 -1 -25 -4 -40 -6z"/>
<path d="M6750 1876 c0 -19 18 -23 144 -31 78 -5 97 -4 94 7 -5 14 -44 22 -160 33 -67 6 -78 5 -78 -9z"/>
<path d="M3497 1863 c-4 -3 -7 -12 -7 -20 0 -11 11 -12 49 -7 30 4 56 2 70 -6 22 -11 22 -12 5 -31 -9 -10 -41 -31 -71 -45 -73 -36 -69 -56 13 -67 42 -6 77 -4 114 5 84 21 74 35 -22 31 l-83 -5 44 31 c25 16 49 37 53 46 13 23 1 50 -28 63 -27 13 -126 16 -137 5z"/>
<path d="M4660 1815 c-15 -18 -14 -18 67 -19 108 -2 106 -30 -8 -103 -72 -47 -79 -75 -22 -94 42 -14 189 -7 206 10 13 13 17 12 -96 16 -89 3 -114 10 -87 25 40 23 101 72 115 94 20 30 7 62 -31 76 -40 16 -130 12 -144 -5z"/>
<path d="M2821 1146 c-9 -11 -8 -18 5 -30 15 -16 17 -16 29 0 23 32 155 -7 155 -46 0 -9 -16 -32 -36 -51 -43 -41 -64 -79 -64 -114 0 -20 8 -29 33 -39 67 -28 228 -32 211 -5 -3 5 -26 9 -52 10 -76 2 -146 21 -150 42 -2 11 16 39 47 72 58 62 65 93 26 129 -45 42 -178 63 -204 32z"/>
<path d="M1925 981 c-58 -36 -85 -84 -65 -120 11 -21 65 -41 115 -41 l30 0 -25 -20 c-47 -36 -165 -73 -214 -67 -32 5 -47 2 -56 -8 -50 -60 118 -42 255 28 120 61 161 153 96 218 -35 35 -90 39 -136 10z m105 -31 c21 -21 26 -65 11 -89 -7 -10 -22 -12 -66 -6 -94 11 -102 20 -64 69 37 48 87 58 119 26z"/>
<path d="M2713 974 c-39 -19 -73 -70 -73 -109 0 -27 0 -27 -70 -20 -60 6 -70 5 -70 -9 0 -21 35 -28 114 -24 36 1 66 1 66 -1 0 -2 -16 -21 -35 -42 -39 -43 -43 -60 -20 -83 40 -40 166 -22 228 34 32 28 31 55 -1 32 -45 -31 -80 -45 -132 -49 -34 -3 -60 -1 -63 5 -11 16 30 58 79 81 44 21 45 23 30 40 -16 18 -15 20 19 41 107 66 42 160 -72 104z m91 -22 c9 -15 -24 -52 -64 -72 -49 -25 -60 -25 -60 -1 0 42 105 103 124 73z"/>
<path d="M2285 931 c-43 -26 -102 -91 -114 -124 -16 -43 -13 -92 7 -109 39 -35 138 -27 240 19 31 14 34 17 16 20 -12 2 -49 -3 -82 -11 -109 -29 -152 -21 -152 29 0 40 33 90 88 132 55 42 72 42 72 2 0 -26 3 -30 23 -27 26 4 34 36 17 67 -14 27 -74 28 -115 2z"/>
<path d="M1078 749 c-6 -4 -8 -14 -5 -23 5 -12 21 -16 74 -16 69 0 233 28 233 39 0 9 -288 8 -302 0z"/>
<path d="M1125 630 c-20 -32 35 -37 190 -20 144 17 127 30 -37 30 -87 0 -149 -4 -153 -10z"/>
<path d="M1745 589 c-4 -6 -4 -13 -1 -16 3 -4 321 -5 707 -4 520 2 704 0 714 -9 14 -12 35 -6 35 10 0 26 -101 30 -762 30 -476 0 -689 -3 -693 -11z"/>
<path d="M2245 465 c-60 -22 -81 -58 -50 -89 20 -20 48 -9 42 15 -6 24 27 49 64 49 33 0 41 -25 24 -68 -7 -16 -45 -63 -83 -104 -81 -85 -82 -102 -5 -100 63 1 274 39 287 52 20 20 -24 20 -139 0 -171 -29 -168 -31 -96 44 58 61 91 116 91 151 0 24 -46 65 -72 65 -13 -1 -41 -7 -63 -15z"/>
</g><g transform="translate(779.885518, 627.8523775993842) scale(0.40808740102544044)"><g transform="translate(-57.706759,297.537395) scale(0.100000,-0.100000)" fill="#4444bb" stroke="none">
<path d="M750 2973 c-57 -10 -88 -25 -119 -57 -40 -41 -55 -100 -46 -179 6 -45 12 -61 32 -77 32 -25 35 -25 64 -1 22 17 24 26 21 89 -4 105 24 120 164 87 33 -7 119 -19 190 -25 88 -8 134 -16 144 -26 32 -32 8 -420 -28 -456 -18 -18 -126 -28 -289 -28 -185 0 -206 -4 -250 -52 -55 -58 -58 -82 -55 -363 1 -145 7 -274 13 -293 11 -34 51 -62 89 -62 12 0 35 14 52 31 l31 30 -6 238 c-3 130 -3 249 0 264 l5 27 112 0 c234 1 363 26 423 82 58 54 98 260 91 463 -4 122 -7 138 -34 191 -40 81 -79 100 -217 108 -174 10 -361 14 -387 9z" fill="#4444bb"/>
<path d="M3660 2971 c-42 -9 -83 -34 -103 -65 -39 -59 -50 -127 -54 -343 -5 -206 -5 -212 18 -252 28 -50 78 -86 143 -102 48 -12 257 -8 370 7 l49 7 -7 -104 c-4 -57 -11 -189 -16 -294 -9 -177 -9 -192 8 -214 35 -47 100 -46 136 2 22 29 27 86 42 452 7 191 0 235 -44 283 -45 48 -92 56 -241 38 -146 -18 -229 -20 -265 -6 l-26 10 0 162 c0 156 8 230 27 249 5 5 99 6 210 2 l201 -6 5 -50 c3 -39 11 -56 31 -74 34 -29 48 -29 80 0 24 20 26 30 28 113 4 147 -23 169 -218 179 -242 11 -340 13 -374 6z" fill="#4444bb"/>
<path d="M1565 2945 c-14 -13 -25 -32 -25 -42 0 -10 -1 -297 -3 -638 -2 -677 -3 -662 55 -694 33 -19 73 -7 101 31 18 24 20 51 29 300 5 150 10 278 12 283 2 6 37 8 97 3 52 -3 135 -7 186 -7 154 -2 161 -10 143 -176 -21 -189 -27 -310 -18 -343 12 -45 45 -72 86 -72 71 0 102 46 102 151 0 33 7 118 16 187 24 190 9 280 -58 349 -50 52 -112 67 -263 65 -71 -1 -164 -6 -205 -11 -41 -4 -78 -7 -81 -5 -4 2 -10 108 -13 236 -9 286 -17 352 -47 384 -31 33 -82 32 -114 -1z" fill="#4444bb"/>
<path d="M2542 2944 c-55 -38 -64 -109 -53 -419 6 -186 9 -215 28 -250 50 -95 116 -125 302 -135 75 -4 171 -5 215 -1 l78 7 -4 -178 c-2 -97 -7 -181 -11 -184 -4 -4 -42 1 -85 11 -104 26 -285 27 -363 3 -106 -33 -149 -107 -99 -170 26 -34 68 -41 132 -21 74 23 202 20 308 -7 182 -47 274 5 301 168 12 77 27 831 19 994 -7 152 -20 181 -86 186 -88 7 -103 -51 -104 -401 l0 -219 -201 4 c-197 3 -201 3 -220 27 -18 21 -19 42 -19 283 l0 260 -29 29 c-33 33 -74 38 -109 13z" fill="#4444bb"/>
<path d="M2374 1391 c-55 -34 -79 -78 -79 -147 0 -51 4 -66 27 -96 35 -45 102 -73 153 -64 78 15 146 111 131 188 -20 108 -145 172 -232 119z" fill="#4444bb"/>
<path d="M1853 999 c-39 -11 -66 -56 -61 -101 6 -59 69 -64 76 -6 4 30 34 38 145 38 l67 0 0 -110 c0 -135 -1 -136 -132 -126 -85 6 -89 6 -113 -18 -24 -25 -25 -28 -25 -179 0 -162 4 -177 47 -177 35 0 43 29 43 159 l0 121 73 0 c85 0 141 14 168 41 17 17 19 34 19 169 0 147 -1 152 -25 175 -23 24 -30 25 -137 24 -62 0 -128 -5 -145 -10z" fill="#4444bb"/>
<path d="M2985 1000 c-91 -16 -93 -18 -104 -58 -15 -51 -14 -537 0 -564 19 -36 69 -48 204 -48 121 0 127 1 151 25 l24 24 -2 292 -3 292 -26 19 c-31 23 -161 33 -244 18z m169 -86 c14 -5 16 -37 16 -250 l0 -245 -102 3 -103 3 0 240 0 240 40 6 c57 9 131 10 149 3z" fill="#4444bb"/>
<path d="M2351 971 c-24 -24 -29 -73 -37 -372 -6 -232 -6 -237 15 -258 23 -23 29 -25 51 -11 12 7 16 40 20 150 l5 141 35 -23 c19 -13 59 -55 88 -93 30 -39 78 -96 108 -128 47 -51 56 -57 74 -47 29 16 25 42 -15 92 -19 24 -62 78 -95 121 -61 77 -61 77 -33 77 15 0 46 9 69 19 56 26 67 57 62 179 -6 156 -27 172 -220 172 -93 0 -111 -3 -127 -19z m257 -74 c16 -13 17 -168 0 -185 -7 -7 -41 -12 -84 -12 -40 0 -84 -4 -98 -10 l-26 -10 0 120 0 119 98 -6 c53 -3 103 -10 110 -16z" fill="#4444bb"/>
</g>
</g>
</svg>
