<svg xmlns="http://www.w3.org/2000/svg" version="1.0" width="1200.786218pt" height="1458.453289pt" viewBox="0 0 1200.786218 1458.453289" preserveAspectRatio="xMidYMid meet">
<metadata>
Created by potrace 1.16, written by Peter Selinger 2001-2019
</metadata>
<g transform="translate(0.000737,1508.671703) scale(0.100000,-0.100000)" fill="#000000" stroke="none">
<path d="M631 15081 c-7 -5 -11 -14 -7 -19 4 -6 1 -32 -5 -57 -12 -47 -11 -47 -91 -60 l-37 -6 7 38 c11 70 9 88 -13 88 -15 0 -21 -8 -23 -30 -1 -16 -5 -45 -8 -63 -5 -34 -5 -34 -57 -30 -41 2 -52 0 -55 -13 -3 -18 24 -29 71 -29 17 0 27 -5 27 -15 0 -9 -9 -15 -24 -15 -35 0 -56 -10 -56 -27 0 -12 8 -13 38 -8 37 6 37 6 37 -27 0 -26 4 -33 19 -33 26 0 46 32 27 44 -25 16 -1 31 49 31 l49 0 -6 -56 c-5 -45 -3 -56 8 -52 12 4 16 15 33 90 5 22 14 28 47 35 47 9 49 28 2 24 -18 -1 -33 1 -33 6 0 19 26 42 50 45 14 2 23 8 20 13 -3 6 -16 9 -28 7 -22 -3 -23 -1 -16 30 18 74 8 110 -25 89z m-38 -179 c-5 -19 -12 -22 -59 -22 -50 0 -68 10 -43 25 9 6 100 23 106 20 1 0 0 -11 -4 -23z"/>
<path d="M912 15023 c-39 -19 -82 -68 -82 -93 0 -10 10 -26 21 -34 22 -15 22 -15 -5 -47 -38 -44 -34 -93 8 -97 72 -8 176 49 176 97 0 13 -12 29 -32 41 -18 11 -27 20 -21 20 14 0 37 33 47 67 5 15 1 28 -13 42 -25 25 -55 26 -99 4z m72 -39 c10 -26 7 -31 -30 -54 -69 -40 -108 -11 -54 40 35 33 74 39 84 14z m1 -139 c0 -14 -14 -27 -45 -42 -81 -41 -107 -21 -49 37 24 24 39 30 63 28 23 -2 31 -8 31 -23z"/>
<path d="M1183 15000 c-18 -4 -40 -13 -48 -20 -14 -12 -14 -15 -2 -28 13 -12 18 -12 38 1 22 14 55 21 87 18 32 -3 6 -45 -75 -120 -109 -100 -107 -106 41 -96 58 4 106 11 106 16 0 15 -49 22 -111 16 l-58 -5 58 49 c69 58 91 88 91 127 0 45 -48 61 -127 42z"/>
<path d="M1516 14986 c-27 -13 -58 -27 -71 -30 -29 -7 -47 -52 -43 -106 4 -60 38 -85 116 -85 45 0 68 7 105 28 105 62 116 164 21 203 -47 20 -74 18 -128 -10z m137 -34 c58 -51 -32 -155 -134 -154 -70 1 -93 28 -77 88 6 25 19 37 60 57 79 39 114 41 151 9z"/>
<path d="M9115 14670 c-27 -5 -91 -9 -140 -9 -98 -1 -119 -10 -106 -45 5 -11 12 -46 15 -76 16 -130 41 -189 68 -162 8 8 7 28 -6 76 -10 37 -15 77 -11 94 4 20 1 33 -10 42 -26 21 -17 30 33 30 26 0 94 7 151 15 57 8 106 13 109 11 2 -2 10 -58 18 -123 18 -143 21 -155 42 -151 12 2 16 13 15 33 -4 67 -24 251 -28 263 -5 13 -68 14 -150 2z"/>
<path d="M3265 14618 c-30 -65 -56 -164 -49 -183 7 -17 -17 -24 -96 -27 -86 -4 -71 -25 40 -59 52 -16 103 -29 113 -29 31 0 18 17 -30 38 -31 13 -43 23 -33 26 16 6 306 36 344 36 l23 0 -23 -47 c-25 -49 -31 -83 -14 -83 6 0 19 14 28 32 9 17 32 48 50 68 17 21 32 45 32 55 0 15 -8 17 -72 11 l-73 -6 -90 110 c-54 66 -97 110 -108 110 -12 0 -26 -17 -42 -52z m126 -89 c46 -51 59 -73 50 -79 -8 -4 -45 -11 -85 -14 -39 -4 -79 -9 -88 -12 -14 -4 -13 8 13 85 17 50 34 91 39 91 4 0 36 -32 71 -71z"/>
<path d="M1450 14623 c-219 -13 -1015 -11 -1179 3 -50 5 -62 3 -59 -8 12 -34 711 -48 1162 -23 142 8 341 17 442 21 101 4 184 11 184 16 0 12 -290 8 -550 -9z"/>
<path d="M9996 14591 c-7 -11 -36 -147 -36 -167 0 -10 8 -14 22 -12 16 2 26 17 41 63 11 33 21 62 23 64 2 2 27 -21 56 -52 32 -34 65 -58 83 -62 17 -4 51 -15 77 -26 72 -29 248 -23 248 8 0 5 -49 8 -110 8 -91 0 -112 3 -127 18 -16 16 -14 17 51 17 80 0 143 28 153 69 10 39 -8 56 -65 59 -83 5 -192 -63 -192 -120 0 -17 -2 -18 -30 -3 -16 8 -48 40 -71 71 -23 30 -50 59 -60 64 -22 12 -56 13 -63 1z m448 -50 c3 -4 -6 -19 -19 -31 -30 -28 -151 -44 -143 -19 10 35 146 77 162 50z"/>
<path d="M1973 14563 c22 -101 29 -295 23 -608 -3 -187 -10 -617 -16 -955 -5 -338 -14 -680 -20 -760 -7 -80 -13 -176 -15 -214 -2 -37 -6 -70 -9 -73 -2 -3 2 -22 9 -44 24 -67 30 -180 12 -215 -35 -69 -158 -149 -262 -172 -167 -38 -418 -40 -694 -7 -443 53 -1001 92 -1001 69 0 -7 50 -13 142 -18 226 -10 599 -43 868 -76 85 -10 189 -22 230 -25 90 -8 368 10 463 30 138 29 287 137 299 217 5 36 -3 133 -21 242 -6 38 -9 76 -6 85 29 95 67 2355 42 2504 -7 38 -12 47 -29 47 -17 0 -19 -5 -15 -27z"/>
<path d="M9478 14580 c-44 -13 -86 -42 -92 -64 -20 -73 11 -112 100 -126 99 -16 167 16 167 79 0 76 -94 136 -175 111z m99 -45 c32 -22 45 -68 27 -94 -26 -37 -163 -25 -178 15 -7 19 11 66 31 82 23 17 94 15 120 -3z"/>
<path d="M9723 14575 c-38 -16 -58 -53 -49 -88 10 -41 66 -61 175 -61 126 -1 135 19 12 27 -128 8 -179 39 -133 80 23 21 31 21 53 1 21 -19 39 -11 39 17 0 12 -10 23 -26 29 -31 12 -32 12 -71 -5z"/>
<path d="M10700 14560 c0 -13 7 -20 20 -20 13 0 20 7 20 20 0 13 -7 20 -20 20 -13 0 -20 -7 -20 -20z"/>
<path d="M3795 14560 c-59 -24 -89 -104 -54 -146 39 -47 185 -61 246 -24 95 58 11 181 -123 179 -27 0 -58 -4 -69 -9z m122 -31 c38 -14 73 -48 73 -71 0 -36 -36 -58 -95 -58 -58 0 -125 21 -125 39 0 6 0 14 0 18 0 4 6 8 13 9 29 2 31 5 12 20 -20 15 -20 15 4 35 26 21 75 25 118 8z"/>
<path d="M4070 14515 c0 -8 9 -15 20 -15 11 0 20 7 20 15 0 8 -9 15 -20 15 -11 0 -20 -7 -20 -15z"/>
<path d="M4070 14441 c-14 -28 -12 -51 4 -51 16 0 46 37 46 57 0 20 -38 15 -50 -6z"/>
<path d="M10696 14424 c-11 -28 -7 -35 17 -32 29 4 38 48 9 48 -11 0 -23 -7 -26 -16z"/>
<path d="M9465 14359 c-82 -4 -226 -11 -318 -14 -119 -5 -167 -11 -164 -19 5 -14 62 -14 432 4 345 17 622 19 988 6 166 -6 257 -6 257 1 0 25 -841 41 -1195 22z"/>
<path d="M3730 14269 c-124 -5 -322 -10 -440 -12 -126 -1 -216 -7 -218 -12 -6 -23 86 -26 353 -13 154 7 448 13 652 13 244 0 372 3 370 10 -2 6 -24 13 -48 17 -57 8 -382 7 -669 -3z"/>
<path d="M476 14219 c-53 -28 -118 -96 -143 -149 -54 -113 -36 -161 64 -168 64 -5 123 9 144 34 20 24 3 27 -47 10 -86 -29 -154 -15 -154 32 1 74 147 237 196 218 17 -6 7 -36 -12 -36 -8 0 -14 -7 -14 -15 0 -20 44 -20 64 1 23 22 20 60 -6 78 -29 21 -45 20 -92 -5z"/>
<path d="M1364 14138 c-30 -20 -56 -48 -68 -72 l-19 -39 -69 6 c-61 5 -69 4 -66 -11 5 -25 62 -37 121 -25 31 6 63 7 82 2 16 -5 49 -9 72 -9 24 0 43 -3 43 -7 0 -5 -16 -19 -35 -32 -19 -13 -51 -41 -70 -62 -88 -97 -7 -142 181 -101 102 23 164 46 164 61 0 14 -5 14 -65 -4 -79 -24 -212 -45 -245 -39 -56 12 -35 47 84 137 20 15 36 34 36 42 0 20 -32 35 -77 35 -55 0 -72 14 -35 29 44 18 104 77 100 98 -2 13 -14 19 -44 21 -32 2 -50 -4 -90 -30z m90 -9 c-8 -13 -94 -69 -106 -69 -21 0 -3 23 39 50 47 30 80 39 67 19z"/>
<path d="M692 13937 c-43 -43 -54 -77 -27 -77 18 0 18 1 4 -38 -8 -24 -17 -31 -42 -34 -22 -2 -33 -9 -35 -22 -4 -17 2 -18 62 -14 71 4 109 24 68 35 -26 6 -25 14 19 112 42 93 21 110 -49 38z"/>
<path d="M940 13751 c-35 -10 -33 -37 3 -34 15 1 27 -2 27 -6 0 -12 -97 -101 -110 -101 -5 0 -10 -4 -10 -10 0 -33 112 27 151 81 27 38 22 73 -11 76 -14 1 -36 -2 -50 -6z"/>
<path d="M4155 13740 c-55 -4 -339 -8 -632 -9 -408 -1 -534 -4 -540 -14 -4 -6 -6 -265 -4 -575 l3 -563 -151 2 c-143 2 -193 -6 -161 -26 13 -8 614 -7 647 1 13 4 23 12 23 18 0 9 -40 11 -154 8 l-154 -4 -6 98 c-9 134 -13 1001 -5 1009 4 3 291 10 637 15 347 4 636 11 642 15 7 4 77 4 156 0 124 -6 143 -9 133 -21 -9 -11 -9 -20 0 -37 13 -25 12 -519 -1 -532 -4 -4 -97 -8 -208 -9 -172 -1 -200 -3 -198 -16 3 -13 62 -15 473 -11 259 2 473 5 478 8 29 17 -33 23 -249 23 l-244 0 -1 288 c-1 158 -4 298 -8 312 -7 25 -7 25 -191 26 -102 0 -230 -2 -285 -6z"/>
<path d="M10095 13738 c-71 -4 -331 -7 -577 -6 -405 3 -447 1 -457 -13 -7 -12 -7 -59 0 -149 6 -73 8 -134 6 -136 -2 -2 -68 -5 -148 -6 -136 -3 -144 -4 -144 -23 0 -15 6 -20 25 -18 14 1 181 7 373 14 191 7 347 16 347 20 0 16 -43 19 -220 15 l-187 -4 -7 75 c-3 42 -6 102 -6 135 l0 58 428 0 c235 0 513 5 617 11 145 8 230 8 357 -1 l167 -13 5 -61 c8 -84 21 -455 18 -488 -1 -17 3 -28 10 -29 7 -1 -5 -5 -27 -10 -56 -11 -208 -11 -280 1 -65 11 -87 2 -65 -25 11 -14 59 -15 416 -13 377 3 404 4 404 21 0 16 -17 17 -217 17 -120 0 -213 4 -207 8 7 5 8 44 3 127 -4 66 -8 201 -8 301 l-1 180 -147 12 c-164 13 -283 13 -478 0z"/>
<path d="M9687 13623 c-4 -3 -7 -17 -7 -29 0 -20 -6 -23 -42 -26 -59 -4 -60 -32 -2 -36 39 -3 41 -5 55 -48 18 -58 34 -53 33 9 -2 39 1 47 16 47 25 0 50 10 50 21 0 5 -13 9 -30 9 -27 0 -30 3 -30 30 0 22 -5 30 -18 30 -10 0 -22 -3 -25 -7z"/>
<path d="M10281 13577 c-13 -33 -43 -229 -36 -235 12 -13 26 18 49 113 13 55 28 110 31 123 6 18 4 22 -14 22 -13 0 -25 -9 -30 -23z"/>
<path d="M8203 13461 c-59 -43 -92 -91 -105 -155 -11 -51 -10 -60 7 -93 31 -58 132 -92 186 -63 33 18 22 32 -20 25 -48 -8 -103 13 -126 49 -37 56 8 164 88 211 52 30 77 25 77 -16 0 -22 5 -29 19 -29 25 0 34 15 27 45 -16 62 -86 74 -153 26z"/>
<path d="M10054 13460 c-46 -18 -112 -140 -99 -181 9 -26 40 -32 75 -14 35 18 36 16 16 -67 -8 -31 -11 -59 -8 -62 12 -13 32 -5 32 12 0 10 16 72 35 138 39 133 39 133 22 155 -16 21 -47 29 -73 19z m31 -62 c-12 -53 -73 -123 -92 -105 -9 10 21 77 48 107 37 40 53 39 44 -2z"/>
<path d="M531 13417 c-101 -54 -190 -159 -191 -224 0 -39 46 -81 104 -94 69 -15 171 -8 193 14 25 24 12 29 -44 16 -68 -16 -156 -4 -190 25 -22 19 -25 27 -19 59 9 48 55 100 131 149 66 43 96 46 105 8 8 -35 44 -34 48 1 2 19 -4 33 -24 48 -34 27 -59 27 -113 -2z"/>
<path d="M5480 13336 c-25 -13 -61 -40 -80 -60 -42 -43 -75 -47 -92 -11 -13 29 -41 30 -46 2 -5 -26 15 -45 57 -57 27 -7 39 -17 47 -39 8 -20 26 -36 62 -52 l50 -23 -39 -18 c-87 -38 -148 -111 -149 -175 0 -28 41 -60 89 -68 57 -10 261 42 261 66 0 14 -23 11 -102 -11 -87 -24 -180 -27 -198 -5 -18 21 -3 70 31 104 16 16 58 43 93 60 92 43 94 55 16 85 -49 19 -80 43 -80 61 0 6 24 19 53 28 99 31 173 93 152 127 -11 18 -78 10 -125 -14z m86 -15 c-8 -12 -85 -57 -116 -66 -23 -7 -24 -6 -11 9 27 32 144 84 127 57z"/>
<path d="M11575 13346 c-41 -18 -83 -69 -91 -111 -5 -29 -11 -35 -39 -41 -17 -3 -52 -4 -76 -2 -38 3 -44 0 -44 -17 0 -25 44 -31 117 -16 48 11 52 10 77 -15 14 -15 43 -34 63 -44 l38 -17 -38 -24 c-42 -27 -73 -80 -65 -110 3 -12 20 -30 37 -41 27 -17 44 -19 126 -15 77 3 107 9 157 32 35 15 68 35 75 43 15 18 13 17 -87 -18 -33 -12 -92 -24 -132 -27 -89 -7 -133 7 -133 44 0 38 42 71 123 97 30 10 15 26 -47 51 -32 13 -69 34 -82 46 l-23 22 52 24 c97 45 146 117 98 143 -26 14 -69 12 -106 -4z m81 -27 c14 -23 -113 -116 -132 -96 -12 12 32 72 66 89 40 21 56 22 66 7z"/>
<path d="M8763 13243 c-10 -26 18 -33 153 -33 l132 0 7 -303 c4 -166 6 -311 3 -322 -3 -19 -12 -20 -136 -20 -119 0 -132 -2 -132 -17 0 -17 23 -18 340 -18 296 0 340 2 340 15 0 13 -27 15 -179 15 l-180 0 -6 43 c-7 52 -12 593 -5 600 3 3 91 9 195 14 158 7 190 10 190 23 0 13 -14 14 -90 10 -134 -7 -544 -6 -588 2 -30 5 -39 3 -44 -9z"/>
<path d="M10150 13235 c-17 -21 -2 -38 27 -30 32 8 28 -6 -29 -87 -33 -47 -40 -63 -31 -76 23 -37 103 -15 125 34 17 36 2 41 -30 11 -26 -25 -52 -35 -52 -21 0 3 18 31 40 61 41 58 49 90 28 111 -17 17 -63 15 -78 -3z"/>
<path d="M8420 13204 c0 -9 9 -18 20 -21 29 -8 25 -35 -10 -68 -60 -58 -23 -106 69 -88 68 12 65 33 -4 33 l-57 0 36 40 c42 47 45 68 13 98 -27 26 -67 29 -67 6z"/>
<path d="M9564 13187 c-14 -37 32 -49 140 -39 103 10 97 30 -11 34 -48 2 -96 7 -105 12 -12 6 -20 3 -24 -7z"/>
<path d="M790 13151 c-53 -9 -47 -37 8 -33 23 1 42 -2 42 -7 0 -5 -20 -26 -45 -46 -50 -41 -63 -69 -44 -92 11 -12 29 -14 92 -11 43 3 83 10 89 16 14 14 12 14 -79 12 -35 -1 -63 3 -63 8 0 6 15 23 34 40 19 16 42 42 52 56 15 23 15 29 3 41 -19 18 -48 23 -89 16z"/>
<path d="M4475 12960 c-12 -20 7 -30 60 -30 46 0 55 -3 60 -21 4 -12 6 -189 4 -393 -4 -366 -4 -371 16 -371 19 0 20 7 21 245 1 135 2 314 3 398 l1 152 95 0 c88 0 118 9 79 24 -27 10 -332 7 -339 -4z"/>
<path d="M10755 12949 c-55 -4 -124 -5 -152 -2 -49 5 -53 4 -53 -16 0 -19 5 -21 69 -21 l68 0 6 -67 c11 -107 8 -333 -5 -519 l-12 -171 -220 -7 c-122 -3 -284 -9 -360 -12 l-139 -7 6 79 c4 43 19 122 33 174 36 129 39 153 20 170 -57 47 -177 -42 -207 -152 -21 -78 35 -112 109 -66 29 18 34 19 29 6 -10 -27 -29 -179 -24 -193 6 -13 -289 -25 -640 -25 l-193 0 -1 63 c0 34 -4 87 -8 119 l-7 56 36 6 c19 3 101 6 183 6 119 0 147 3 147 14 0 15 -27 29 -39 22 -4 -3 -149 -8 -322 -11 -175 -3 -315 -9 -317 -14 -8 -24 42 -32 156 -25 l117 6 3 -48 c2 -27 6 -89 10 -139 l7 -90 70 0 c267 1 1033 16 1237 25 155 6 263 7 289 1 23 -5 48 -7 55 -4 16 6 16 7 20 158 2 61 7 232 11 380 l8 270 60 3 c80 3 105 10 105 27 0 16 3 16 -155 4z m-775 -451 c0 -39 -58 -128 -95 -148 -68 -36 -52 67 21 138 54 51 74 54 74 10z"/>
<path d="M3344 12908 c-5 -7 -7 -27 -5 -45 3 -33 3 -33 -47 -33 -36 0 -52 -4 -56 -16 -11 -27 4 -35 55 -28 l49 7 0 -59 c0 -67 13 -99 30 -74 5 8 10 41 10 73 0 54 1 57 24 57 63 0 75 27 17 36 -38 6 -40 8 -43 47 -3 41 -20 58 -34 35z"/>
<path d="M1240 12879 c-91 -4 -241 -14 -335 -24 -133 -14 -204 -16 -325 -10 -228 11 -324 11 -330 0 -5 -11 83 -19 330 -30 113 -6 191 -3 355 13 376 38 664 38 811 1 33 -9 48 -9 56 -1 38 38 -243 63 -562 51z"/>
<path d="M2364 12831 c-45 -27 -83 -112 -102 -225 -14 -89 -14 -95 4 -132 27 -55 63 -57 148 -7 36 21 66 41 66 46 0 15 -39 6 -99 -24 -78 -39 -86 -33 -85 59 1 116 48 231 104 259 27 13 61 1 94 -36 22 -25 49 -27 66 -6 14 17 10 25 -13 29 -8 1 -33 14 -54 29 -46 32 -86 34 -129 8z"/>
<path d="M10192 12723 c-14 -29 -30 -103 -38 -175 -6 -57 -4 -68 8 -68 12 0 20 24 32 91 9 51 24 105 32 121 8 16 12 33 9 38 -10 16 -34 12 -43 -7z"/>
<path d="M9577 12723 c-4 -3 -7 -26 -7 -51 l0 -44 -42 4 c-37 3 -43 0 -43 -17 0 -16 8 -21 43 -23 39 -3 42 -5 42 -32 0 -38 9 -60 26 -60 10 0 14 14 14 50 0 49 0 49 38 56 86 15 99 45 15 37 l-56 -6 5 34 c3 19 3 40 1 47 -5 13 -25 16 -36 5z"/>
<path d="M3799 12599 c-29 -31 -59 -111 -59 -159 0 -51 47 -66 94 -29 l26 20 0 -85 c0 -64 3 -86 13 -86 9 0 17 35 25 125 7 68 19 144 26 169 13 44 7 74 -12 62 -6 -3 -13 -2 -17 4 -14 22 -67 10 -96 -21z m58 -56 c-2 -50 -6 -61 -37 -92 -34 -36 -34 -36 -38 -11 -6 35 15 94 44 130 14 16 28 30 30 30 2 0 3 -26 1 -57z"/>
<path d="M8205 12533 c-125 -65 -168 -230 -74 -279 45 -23 89 -17 169 24 69 34 72 37 45 40 -17 2 -56 -9 -88 -23 -32 -14 -64 -25 -73 -25 -24 0 -64 47 -64 74 0 48 32 107 73 137 44 32 101 39 111 14 6 -17 42 -20 51 -5 3 5 -5 21 -19 35 -30 30 -84 33 -131 8z"/>
<path d="M2519 12424 c-32 -33 -33 -36 -16 -49 15 -11 17 -21 9 -84 -9 -76 -4 -98 22 -88 11 5 16 19 16 50 0 23 7 70 16 102 28 104 28 105 7 105 -10 0 -35 -16 -54 -36z"/>
<path d="M1281 12439 c-52 -10 -64 -20 -59 -45 2 -12 13 -20 32 -22 22 -3 27 0 23 12 -7 17 4 21 75 31 48 6 128 -9 128 -25 0 -4 -28 -39 -63 -77 -106 -115 -135 -172 -123 -239 9 -45 36 -46 36 -1 0 62 20 104 88 181 110 128 107 122 94 150 -19 42 -120 57 -231 35z"/>
<path d="M2915 12429 c-49 -4 -125 -7 -167 -8 -75 -1 -101 -12 -80 -33 7 -7 58 -6 156 2 81 7 150 9 154 5 4 -4 7 -66 7 -138 l0 -131 495 -2 c272 0 648 -6 835 -12 315 -10 374 -8 352 14 -9 9 -627 25 -1167 29 -256 3 -468 5 -471 5 -3 0 -5 57 -5 126 l1 127 153 -7 c126 -6 152 -4 152 7 0 25 -211 33 -415 16z"/>
<path d="M3997 12382 c-15 -28 -27 -55 -27 -61 0 -17 28 -13 39 7 9 14 10 11 11 -15 0 -22 5 -33 14 -33 18 0 24 19 28 90 3 49 1 55 -18 58 -15 2 -27 -9 -47 -46z"/>
<path d="M495 12375 c-37 -17 -56 -33 -78 -65 -18 -26 -23 -90 -8 -90 6 0 5 -14 0 -36 -27 -97 47 -165 176 -163 27 0 59 4 70 8 15 6 26 1 46 -21 16 -17 37 -28 53 -28 14 0 29 0 33 -1 4 0 9 4 11 10 2 6 -5 11 -15 11 -11 0 -29 11 -42 24 l-22 23 36 36 c29 29 35 42 35 77 0 135 -93 231 -225 230 -22 -1 -53 -7 -70 -15z m176 -50 c42 -27 71 -82 77 -147 4 -40 1 -50 -22 -73 l-26 -26 -26 30 c-18 22 -35 31 -55 31 -37 0 -39 -24 -2 -42 41 -20 39 -35 -5 -43 -49 -8 -116 9 -143 36 -17 17 -20 30 -16 67 2 26 8 57 12 70 6 18 4 22 -14 22 -11 0 -21 4 -21 9 0 18 54 74 85 87 40 19 110 9 156 -21z"/>
<path d="M9608 12315 c-3 -3 -42 -6 -87 -7 -84 -1 -104 -9 -79 -34 12 -13 29 -12 122 1 111 15 126 20 126 36 0 9 -73 13 -82 4z"/>
<path d="M10087 12278 c-41 -45 -47 -68 -19 -68 13 0 18 -7 18 -22 -2 -46 26 -22 45 37 33 106 19 124 -44 53z"/>
<path d="M8455 12236 c-8 -70 -1 -106 20 -106 9 0 16 17 20 48 3 26 8 64 11 85 5 34 4 37 -19 37 -24 0 -26 -4 -32 -64z"/>
<path d="M3957 12263 c-4 -3 -7 -13 -7 -21 0 -12 13 -13 78 -8 99 9 132 15 132 27 0 10 -193 13 -203 2z"/>
<path d="M3256 12251 c-3 -5 0 -14 7 -20 19 -15 239 0 245 17 3 9 -26 12 -122 12 -68 0 -127 -4 -130 -9z"/>
<path d="M963 12176 c-4 -5 3 -15 13 -23 14 -10 35 -12 84 -7 70 7 117 21 107 31 -10 10 -198 9 -204 -1z"/>
<path d="M1340 11921 c0 -22 28 -35 54 -25 21 8 20 21 -3 34 -30 16 -51 12 -51 -9z"/>
<path d="M3410 11889 c-416 -33 -806 -145 -1018 -291 -179 -124 -387 -423 -408 -585 -19 -157 112 -298 357 -385 149 -52 236 -62 539 -63 396 0 638 35 1042 151 288 82 633 226 775 322 217 148 263 389 106 562 -191 213 -792 337 -1393 289z m685 -43 c393 -60 651 -180 732 -341 30 -59 41 -159 24 -222 -18 -65 -85 -157 -154 -209 -193 -144 -701 -334 -1138 -423 -242 -50 -546 -72 -814 -60 -242 10 -364 39 -513 120 -100 53 -147 92 -178 145 -53 91 -50 174 13 298 142 281 363 484 566 518 66 11 83 23 50 35 -55 21 405 126 667 152 142 14 625 6 745 -13z"/>
<path d="M3685 11576 c-40 -17 -82 -67 -114 -136 -22 -46 -26 -69 -26 -142 0 -81 2 -89 26 -113 38 -39 89 -41 173 -8 38 16 71 34 74 41 5 17 -20 15 -85 -8 -116 -41 -153 -21 -153 81 0 78 26 152 72 204 49 56 73 64 98 33 18 -22 20 -22 37 -5 17 16 17 18 -2 36 -27 27 -64 33 -100 17z"/>
<path d="M4241 11553 c-64 -27 -123 -75 -138 -110 l-14 -36 -70 5 c-62 5 -69 3 -69 -13 0 -25 54 -34 119 -20 34 7 59 7 76 1 15 -6 43 -10 63 -10 l37 0 -48 -43 c-55 -51 -62 -87 -22 -113 46 -30 209 3 288 59 44 31 17 39 -38 12 -58 -29 -180 -57 -212 -49 -36 9 -28 28 32 79 30 26 55 53 55 61 0 12 -29 21 -95 26 -28 3 -25 6 40 41 74 41 125 83 125 103 0 27 -74 32 -129 7z m66 -37 c-39 -32 -145 -81 -154 -72 -16 16 119 96 162 96 18 -1 17 -3 -8 -24z"/>
<path d="M2615 11453 c-67 -35 -116 -106 -118 -171 -2 -69 83 -85 167 -32 38 24 46 27 42 13 -15 -52 -46 -207 -52 -266 -7 -68 -7 -69 17 -65 20 3 24 8 21 36 -3 43 42 262 74 357 24 71 24 76 8 100 -9 14 -25 30 -35 35 -27 15 -90 11 -124 -7z m97 -25 c32 -26 30 -52 -7 -95 -65 -76 -142 -104 -168 -62 -17 28 28 106 81 140 50 32 70 35 94 17z"/>
<path d="M3054 11375 c-4 -9 -2 -21 5 -28 15 -15 248 -20 257 -6 11 19 -7 24 -109 30 -56 3 -112 9 -124 14 -17 5 -24 3 -29 -10z"/>
<path d="M3090 11260 c-26 -16 3 -28 84 -35 85 -7 166 0 166 15 0 5 -35 11 -77 14 -43 4 -97 8 -120 10 -22 2 -47 0 -53 -4z"/>
<path d="M3857 11197 c-20 -18 -37 -37 -37 -43 0 -13 28 -27 39 -20 4 3 7 -19 6 -47 0 -40 4 -52 15 -52 10 0 17 15 22 45 3 25 13 65 22 89 26 70 -3 82 -67 28z"/>
<path d="M2830 11058 c-29 -30 -58 -90 -53 -105 3 -7 12 -13 20 -13 10 0 13 -5 8 -17 -4 -10 -9 -33 -12 -52 -5 -28 -3 -33 13 -29 13 2 27 29 51 105 18 56 30 109 27 118 -9 21 -30 19 -54 -7z"/>
<path d="M10826 11721 c-3 -5 5 -31 19 -58 57 -111 81 -316 51 -431 -23 -90 -64 -168 -120 -229 -39 -44 -44 -53 -28 -53 48 0 156 162 181 270 15 66 13 244 -4 325 -23 108 -79 209 -99 176z"/>
<path d="M10676 11643 c-13 -61 -19 -243 -8 -243 13 0 14 5 36 150 20 129 20 120 -3 120 -12 0 -21 -9 -25 -27z"/>
<path d="M9928 11613 c-40 -46 -98 -196 -117 -307 -22 -119 -9 -209 36 -258 28 -31 31 -10 7 39 -28 54 -30 108 -10 215 24 122 98 298 126 298 6 0 10 7 10 15 0 21 -33 19 -52 -2z"/>
<path d="M9076 11552 c-5 -8 -30 -144 -40 -214 -3 -29 -1 -38 9 -38 8 0 17 10 20 23 9 38 45 222 45 230 0 9 -27 9 -34 -1z"/>
<path d="M8357 11469 c-22 -13 -53 -74 -67 -131 -19 -81 -41 -472 -50 -888 -9 -422 -16 -491 -54 -582 -21 -50 -20 -55 12 -70 53 -26 82 -189 82 -476 0 -86 5 -247 10 -357 5 -110 14 -317 20 -460 12 -296 20 -356 53 -429 27 -59 82 -126 103 -126 21 0 17 17 -17 67 -59 86 -70 135 -79 377 -5 122 -12 253 -15 292 -3 39 -10 239 -15 445 -5 206 -14 417 -20 469 -14 109 -42 193 -73 215 -21 15 -21 15 1 82 32 98 40 197 47 583 6 410 29 813 50 890 9 37 25 64 45 83 29 26 29 27 8 27 -13 0 -31 -5 -41 -11z"/>
<path d="M11685 11461 c-59 -37 -116 -124 -130 -203 -6 -32 -4 -38 19 -53 29 -19 56 -14 104 22 17 13 32 22 32 20 0 -2 -11 -36 -24 -75 -35 -101 -42 -155 -22 -171 22 -18 36 -5 30 28 -3 15 0 47 6 72 18 67 92 253 104 261 13 8 9 88 -6 105 -15 19 -78 16 -113 -6z m85 -38 c0 -47 -102 -178 -152 -196 -66 -23 3 148 81 200 47 32 71 30 71 -4z"/>
<path d="M10442 11445 c-44 -32 -108 -170 -97 -212 7 -28 40 -30 74 -6 23 16 24 16 18 -8 -19 -79 -29 -161 -19 -171 17 -17 32 1 32 37 0 45 57 269 70 273 5 2 10 21 10 42 0 56 -42 77 -88 45z m43 -47 c-21 -68 -105 -185 -105 -146 0 23 27 84 57 129 29 43 59 54 48 17z"/>
<path d="M9461 11427 c-6 -8 -16 -37 -23 -66 l-12 -53 -43 7 c-39 6 -43 4 -43 -14 0 -21 21 -27 73 -23 14 1 17 -6 17 -43 0 -51 17 -95 37 -95 16 0 16 -1 2 39 -6 17 -8 47 -5 66 7 34 7 34 74 37 88 4 87 22 -2 26 l-68 3 7 37 c4 20 13 44 21 53 8 8 14 21 14 27 0 16 -35 15 -49 -1z"/>
<path d="M8749 11406 c-60 -41 -98 -161 -69 -216 14 -26 56 -33 92 -15 17 8 32 15 33 15 2 0 -8 -41 -20 -91 -13 -50 -26 -113 -30 -140 -6 -44 -5 -49 13 -49 16 0 20 9 26 57 4 32 25 125 47 207 47 173 55 222 38 242 -19 23 -89 17 -130 -10z m88 -48 c1 -49 -37 -132 -66 -148 -28 -15 -58 -12 -65 5 -15 41 28 140 72 168 46 28 59 22 59 -25z"/>
<path d="M11194 11379 c-15 -24 16 -30 134 -23 92 5 122 10 122 21 0 17 -245 19 -256 2z"/>
<path d="M10040 11322 c0 -31 87 -44 144 -22 42 16 30 26 -31 27 -32 0 -70 3 -85 8 -24 6 -28 4 -28 -13z"/>
<path d="M11197 11294 c-18 -18 15 -24 124 -24 123 0 159 12 67 24 -69 8 -183 8 -191 0z"/>
<path d="M11882 11183 c-64 -68 -72 -89 -33 -87 16 0 20 -3 15 -15 -3 -9 -8 -33 -11 -53 -5 -35 -8 -37 -44 -40 -22 -2 -39 -7 -39 -13 0 -16 232 -13 238 3 3 9 -14 12 -61 12 l-65 0 9 41 c5 22 27 76 50 120 38 77 42 99 16 99 -6 0 -40 -30 -75 -67z"/>
<path d="M10547 11174 c-4 -4 -7 -14 -7 -22 0 -11 8 -13 35 -9 24 4 35 2 35 -6 0 -7 -27 -43 -60 -82 -34 -38 -59 -76 -58 -85 5 -22 92 -26 124 -5 13 8 24 22 24 30 0 18 -1 18 -36 0 -30 -15 -64 -20 -64 -9 0 4 25 33 56 66 46 50 55 65 52 92 -3 29 -6 31 -48 34 -25 2 -49 0 -53 -4z"/>
<path d="M8952 11063 c-54 -57 -63 -91 -21 -78 19 6 21 4 15 -16 -17 -64 -19 -99 -4 -99 17 0 94 222 83 239 -10 18 -17 13 -73 -46z"/>
<path d="M10976 10543 c-21 -91 -23 -125 -9 -130 12 -4 75 176 66 190 -2 4 -12 7 -23 7 -14 0 -21 -14 -34 -67z"/>
<path d="M9116 10572 c-3 -5 -12 -55 -21 -113 -9 -57 -18 -114 -21 -126 -8 -41 24 -27 35 15 20 73 42 205 37 218 -6 16 -22 19 -30 6z"/>
<path d="M9905 10358 c-102 -52 -185 -175 -185 -275 0 -62 21 -83 84 -83 40 0 176 55 176 71 0 14 -17 11 -96 -17 -111 -40 -143 -23 -123 67 13 55 33 92 76 140 36 39 110 86 120 75 3 -3 1 -18 -5 -35 -8 -23 -7 -32 4 -42 23 -19 44 7 44 55 0 69 -25 80 -95 44z"/>
<path d="M10501 10362 c-15 -29 -41 -137 -51 -217 -13 -104 3 -144 58 -145 29 0 120 84 163 151 17 27 33 49 34 49 2 0 1 -33 -2 -74 -5 -66 -3 -76 16 -95 11 -11 32 -21 46 -21 47 0 139 59 121 77 -3 3 -30 -6 -59 -21 -31 -15 -61 -24 -70 -20 -22 8 -22 73 -1 169 8 39 17 83 21 99 12 56 -29 23 -86 -69 -30 -49 -83 -119 -118 -154 -55 -57 -64 -63 -78 -51 -14 12 -16 25 -10 79 10 93 40 200 61 215 22 16 12 46 -15 46 -11 0 -25 -8 -30 -18z"/>
<path d="M8784 10351 c-57 -24 -114 -134 -114 -221 0 -79 58 -83 124 -9 51 57 52 55 32 -57 -8 -44 -16 -108 -18 -144 -2 -53 0 -65 13 -68 13 -2 17 10 23 70 3 40 18 133 31 207 14 74 25 146 25 161 0 43 -70 80 -116 61z m54 -64 c5 -44 -85 -187 -119 -187 -18 0 -8 86 15 136 37 80 97 110 104 51z"/>
<path d="M9325 10250 c-13 -22 17 -40 65 -40 94 0 148 23 78 34 -92 14 -137 16 -143 6z"/>
<path d="M9363 10137 c-39 -9 -55 -28 -35 -40 4 -3 32 1 62 8 30 7 76 16 103 20 26 3 47 10 47 16 0 12 -123 10 -177 -4z"/>
<path d="M10135 10090 c-41 -42 -48 -53 -39 -68 6 -10 8 -26 3 -37 -14 -37 -10 -65 10 -65 14 0 20 10 25 38 3 20 24 65 46 100 39 61 43 82 17 82 -7 0 -35 -23 -62 -50z"/>
<path d="M11023 10118 c-55 -62 -68 -106 -33 -115 31 -8 25 -41 -7 -45 -18 -2 -29 -10 -31 -22 -4 -18 1 -18 79 -12 45 4 94 12 108 18 24 9 24 10 8 19 -10 6 -36 8 -58 4 -36 -6 -39 -5 -39 17 0 14 7 48 16 77 23 78 1 108 -43 59z"/>
<path d="M8972 9960 c-24 -28 -50 -50 -58 -50 -7 0 -14 -9 -14 -20 0 -26 36 -27 63 -2 19 16 20 16 14 -8 -3 -14 -9 -45 -13 -69 -6 -38 -5 -43 11 -40 13 3 24 31 45 114 15 61 26 113 23 118 -10 17 -30 4 -71 -43z"/>
<path d="M11045 9531 c-3 -5 -10 -58 -15 -118 -6 -59 -13 -118 -15 -130 -4 -16 -1 -23 9 -23 17 0 41 97 52 208 6 62 4 72 -9 72 -9 0 -18 -4 -22 -9z"/>
<path d="M9116 9468 c-2 -13 -12 -61 -21 -106 -9 -46 -14 -86 -11 -89 12 -12 27 13 46 75 27 92 30 135 8 140 -12 2 -19 -4 -22 -20z"/>
<path d="M8797 9382 c-62 -42 -127 -164 -127 -241 0 -39 11 -51 48 -51 9 0 38 24 66 53 46 49 49 50 42 22 -27 -107 -56 -267 -56 -308 0 -39 3 -48 16 -45 11 2 17 16 20 43 9 113 42 257 93 407 l29 86 -27 26 c-32 31 -65 33 -104 8z m67 -39 c7 -18 -82 -158 -127 -201 -35 -33 -40 -14 -17 61 32 103 124 193 144 140z"/>
<path d="M9940 9339 c-70 -28 -143 -156 -126 -223 11 -45 96 -52 221 -18 44 12 32 27 -18 22 -23 -2 -69 -4 -102 -5 -50 0 -60 3 -63 19 -6 30 26 101 64 140 47 48 68 44 72 -12 3 -38 6 -43 25 -40 20 3 22 8 19 48 -5 64 -39 90 -92 69z"/>
<path d="M10616 9322 c-18 -35 -36 -131 -36 -192 0 -91 66 -108 145 -38 l48 43 -6 -38 c-8 -53 6 -87 38 -87 28 0 34 15 9 24 -21 8 -12 81 22 184 29 88 29 84 2 80 -14 -2 -25 -15 -34 -42 -28 -79 -133 -186 -169 -172 -32 12 -5 204 32 231 9 7 13 17 9 23 -13 21 -45 13 -60 -16z"/>
<path d="M9334 9155 c-11 -28 14 -35 124 -35 79 0 103 3 100 13 -3 7 -33 14 -79 18 -41 4 -89 10 -106 14 -26 6 -34 4 -39 -10z"/>
<path d="M9580 9073 c-154 -10 -170 -14 -170 -35 0 -18 4 -20 33 -14 17 4 66 11 107 17 41 5 83 12 93 15 19 6 14 25 -6 22 -7 -1 -32 -3 -57 -5z"/>
<path d="M10125 9070 c-12 -19 7 -32 38 -26 32 7 57 -7 57 -31 0 -9 -22 -37 -50 -64 -57 -55 -62 -75 -23 -90 42 -16 139 15 172 55 19 23 -5 21 -60 -4 -24 -11 -55 -20 -68 -20 -22 0 -20 4 23 50 53 57 61 98 24 124 -25 18 -103 22 -113 6z"/>
<path d="M10925 9060 c-11 -17 5 -30 36 -30 45 0 39 -40 -15 -98 -24 -26 -41 -53 -39 -59 12 -33 123 4 181 60 17 17 32 35 32 39 0 14 -27 9 -41 -8 -15 -18 -69 -47 -75 -41 -3 2 5 20 16 40 24 40 19 81 -10 97 -24 13 -77 13 -85 0z"/>
<path d="M8958 9029 c-19 -11 -24 -34 -9 -43 5 -4 23 2 39 11 64 37 50 -5 -34 -104 -67 -78 -64 -97 10 -91 58 5 122 32 130 55 4 9 5 17 3 19 -2 2 -30 -8 -63 -21 -32 -14 -65 -25 -72 -25 -8 0 7 24 33 53 60 66 83 112 69 135 -13 20 -80 27 -106 11z"/>
<path d="M10271 8541 c-21 -13 -41 -102 -41 -183 0 -43 4 -78 9 -78 13 0 18 21 26 100 4 36 16 85 26 109 10 24 19 45 19 46 0 8 -29 12 -39 6z"/>
<path d="M9216 8498 c-3 -13 -9 -65 -12 -115 -6 -81 -5 -93 9 -93 16 0 17 3 33 138 3 26 8 57 11 70 4 17 1 22 -15 22 -12 0 -22 -9 -26 -22z"/>
<path d="M11390 8511 c-51 -16 -106 -50 -148 -92 -43 -44 -43 -44 -118 -43 -65 1 -74 -1 -74 -16 0 -23 45 -34 98 -25 l38 6 -4 -40 c-5 -46 20 -78 68 -88 l30 -5 -38 -28 c-46 -33 -59 -48 -67 -80 -13 -53 61 -79 167 -60 80 15 215 58 224 71 13 22 -10 21 -98 -6 -98 -29 -223 -43 -247 -26 -34 23 59 97 147 116 54 11 41 35 -20 36 -75 0 -122 18 -126 48 -8 52 5 68 71 90 73 25 165 77 181 104 9 14 7 21 -8 33 -22 15 -38 16 -76 5z m40 -36 c0 -8 -85 -54 -115 -61 -27 -6 -28 -5 -15 9 32 32 130 72 130 52z"/>
<path d="M8779 8348 c-19 -36 -38 -118 -45 -195 -5 -58 -4 -77 10 -98 34 -52 93 -26 166 74 24 33 46 59 47 57 2 -2 -1 -33 -7 -70 -7 -47 -7 -72 0 -86 11 -21 52 -36 69 -25 18 11 12 23 -11 27 -21 3 -23 8 -21 55 1 28 13 95 27 149 14 54 23 101 20 106 -13 21 -32 2 -68 -67 -64 -121 -158 -227 -186 -210 -27 17 7 222 42 255 12 11 18 25 15 34 -9 23 -44 19 -58 -6z"/>
<path d="M10004 8318 c-29 -90 -73 -174 -116 -222 -36 -42 -43 -46 -56 -32 -13 12 -13 27 -3 107 7 50 16 101 22 111 13 24 5 48 -16 48 -21 0 -31 -31 -44 -140 -16 -129 -3 -170 53 -170 24 0 85 59 117 114 l30 51 -7 -52 c-8 -62 1 -103 21 -103 11 0 15 12 15 43 0 24 9 93 20 153 25 136 25 144 1 144 -14 0 -24 -13 -37 -52z"/>
<path d="M9565 8318 c-2 -7 -6 -35 -7 -63 -3 -50 -3 -50 -45 -59 -32 -7 -43 -14 -43 -27 0 -21 16 -24 53 -10 25 10 25 10 24 -56 -2 -81 18 -99 28 -26 12 89 17 97 65 105 24 4 51 15 59 24 15 15 11 16 -43 9 l-59 -7 7 61 c7 57 6 61 -14 61 -11 0 -23 -6 -25 -12z"/>
<path d="M10474 8256 c-4 -9 -3 -20 1 -24 6 -7 246 -21 254 -15 17 12 -32 27 -106 33 -48 5 -100 11 -115 15 -21 5 -29 3 -34 -9z"/>
<path d="M10629 8139 c-20 -4 -63 -10 -95 -11 -45 -2 -59 -7 -59 -18 0 -21 91 -18 168 4 86 25 75 46 -14 25z"/>
<path d="M10185 8080 c-9 -15 4 -30 26 -30 31 0 22 -31 -22 -76 -51 -52 -49 -80 6 -71 66 11 132 54 112 73 -3 3 -19 -2 -36 -10 -44 -23 -53 -20 -26 10 30 32 32 74 7 97 -21 19 -57 22 -67 7z"/>
<path d="M9167 8044 c-38 -35 -44 -64 -13 -64 12 0 13 -6 5 -32 -13 -47 -11 -60 8 -56 11 2 25 32 43 90 15 48 25 90 22 93 -11 11 -28 3 -65 -31z"/>
<path d="M2137 7003 c-10 -18 -30 -180 -31 -250 -1 -100 19 -111 28 -16 4 37 14 108 22 157 8 49 13 95 10 102 -6 15 -22 19 -29 7z"/>
<path d="M4255 6978 c-26 -76 -32 -225 -10 -254 8 -10 15 -17 15 -14 0 3 3 35 5 71 3 36 11 96 19 132 7 37 11 69 8 72 -10 10 -33 5 -37 -7z"/>
<path d="M788 6873 c-59 -64 -68 -113 -78 -423 -5 -179 -13 -283 -26 -347 l-18 -93 25 -26 c24 -26 24 -26 21 -272 -3 -357 16 -492 69 -492 16 0 19 4 15 17 -25 65 -30 129 -31 403 0 289 0 296 -23 341 -24 46 -24 46 -7 130 11 55 19 173 25 344 5 143 12 280 16 304 4 24 22 65 40 92 27 41 30 49 15 49 -9 0 -29 -12 -43 -27z"/>
<path d="M5894 6815 c-46 -27 -94 -90 -94 -122 0 -16 -10 -25 -37 -34 -51 -17 -135 -18 -140 -1 -3 6 -13 12 -24 12 -25 0 -25 -36 0 -50 29 -15 109 -11 166 8 45 15 53 15 80 2 l30 -14 -41 -38 c-112 -104 -74 -160 110 -160 96 0 186 14 186 30 0 4 -65 7 -143 7 -166 0 -187 7 -162 55 8 15 37 44 65 65 27 20 50 43 50 50 0 8 -16 17 -37 21 -21 4 -41 9 -45 11 -4 2 20 23 54 47 72 48 107 98 88 121 -18 22 -60 18 -106 -10z m76 -14 c0 -11 -71 -75 -100 -91 -36 -19 -34 -4 6 40 43 48 94 75 94 51z"/>
<path d="M1285 6820 c-113 -26 -206 -138 -207 -249 0 -61 21 -94 76 -121 59 -28 186 -27 186 1 0 5 -30 9 -66 9 -79 0 -129 21 -150 63 -48 92 68 259 180 261 49 1 59 -22 27 -65 -23 -32 -21 -49 8 -49 35 0 68 114 39 137 -20 16 -60 21 -93 13z"/>
<path d="M3942 6808 c-17 -21 -55 -227 -56 -302 -1 -55 3 -71 16 -80 25 -15 49 12 103 115 l44 84 1 -85 c0 -88 15 -130 46 -130 17 0 19 16 3 26 -8 5 -10 49 -8 143 5 165 -5 174 -68 61 -23 -41 -56 -97 -72 -125 l-30 -50 -1 40 c0 22 12 90 26 150 15 61 27 121 28 134 1 27 -16 38 -32 19z"/>
<path d="M5195 6779 c-68 -60 -125 -190 -125 -284 0 -89 38 -105 169 -75 104 25 124 47 34 36 -160 -20 -150 -20 -163 3 -25 49 40 225 107 288 41 39 57 33 43 -17 -9 -33 -2 -49 23 -50 11 0 27 46 27 79 0 59 -58 69 -115 20z"/>
<path d="M1731 6726 c-6 -13 -15 -72 -21 -130 -14 -126 -4 -159 46 -164 38 -4 74 23 119 91 l35 51 -2 -66 c-2 -68 10 -98 39 -98 11 0 13 5 7 18 -18 42 -13 168 12 290 6 27 4 32 -13 32 -16 0 -22 -11 -32 -54 -21 -96 -128 -247 -165 -233 -25 10 -19 121 16 266 6 27 -31 24 -41 -3z"/>
<path d="M3205 6738 c-73 -40 -134 -138 -142 -227 -6 -71 17 -106 77 -116 57 -10 180 29 158 50 -1 2 -28 -3 -58 -11 -109 -29 -159 4 -140 91 19 84 64 151 123 181 33 18 47 11 47 -22 0 -19 5 -24 25 -24 19 0 25 5 25 23 0 38 -27 67 -63 67 -18 0 -41 -6 -52 -12z"/>
<path d="M4514 6616 c-14 -11 -16 -18 -8 -26 9 -8 27 -9 70 -1 32 6 93 11 135 11 74 0 107 11 73 24 -9 3 -68 6 -133 6 -86 0 -122 -4 -137 -14z"/>
<path d="M2595 6578 c-38 -4 -89 -6 -113 -3 -33 4 -44 1 -49 -11 -12 -33 12 -36 146 -20 71 9 153 16 181 16 38 0 50 4 50 15 0 12 -14 15 -72 14 -40 -1 -104 -6 -143 -11z"/>
<path d="M1522 6517 c-13 -16 -26 -59 -24 -74 2 -7 -4 -42 -13 -78 -19 -83 -19 -85 3 -85 13 0 22 20 40 98 12 53 25 107 28 118 6 24 -19 40 -34 21z"/>
<path d="M4534 6508 c-12 -19 12 -28 80 -28 77 0 185 16 199 30 5 4 -55 7 -133 7 -78 -1 -144 -5 -146 -9z"/>
<path d="M2086 6470 c-37 -33 -39 -50 -5 -50 23 0 23 -8 4 -80 -19 -70 -19 -90 0 -90 14 0 18 9 50 138 28 107 11 134 -49 82z"/>
<path d="M4193 6473 c-19 -7 -16 -26 7 -46 29 -24 25 -42 -20 -91 -43 -47 -48 -61 -25 -69 22 -9 109 20 130 43 22 24 14 36 -13 21 -35 -19 -44 -13 -27 19 21 40 19 72 -6 104 -21 27 -25 28 -46 19z"/>
<path d="M3430 6435 c-10 -12 -8 -16 14 -25 14 -5 26 -14 26 -20 0 -6 -25 -37 -56 -71 -66 -72 -62 -89 20 -89 52 0 136 31 136 50 0 13 -7 13 -55 -5 -22 -8 -55 -14 -74 -15 l-34 0 52 54 c55 59 62 85 31 116 -24 24 -43 25 -60 5z"/>
<path d="M5391 6406 c-42 -42 -47 -66 -15 -66 12 0 15 -10 12 -42 -3 -38 0 -43 20 -46 19 -3 22 1 22 32 0 20 9 59 20 88 11 29 20 59 20 66 0 25 -37 10 -79 -32z"/>
<path d="M1505 5996 c-30 -46 -32 -253 -2 -243 8 2 14 40 18 105 4 78 9 106 23 121 10 11 15 25 11 30 -11 18 -34 12 -50 -13z"/>
<path d="M3824 5923 c-31 -101 -36 -148 -15 -148 9 0 22 31 38 90 13 50 31 95 40 102 20 15 10 43 -16 43 -17 0 -25 -16 -47 -87z"/>
<path d="M2556 5830 c-27 -11 -63 -33 -81 -50 -26 -26 -39 -30 -83 -30 -29 0 -52 5 -52 10 0 15 -26 12 -39 -4 -19 -23 12 -37 85 -37 42 0 75 -6 88 -15 11 -8 36 -14 56 -14 31 -1 33 -2 15 -12 -49 -28 -99 -75 -112 -106 -43 -104 81 -147 245 -86 23 8 42 22 42 29 0 11 -14 10 -67 -6 -135 -38 -211 -17 -183 51 14 33 87 91 145 115 54 23 39 40 -38 43 -37 2 -67 6 -67 11 0 4 22 13 48 19 82 21 154 59 150 79 -5 26 -89 28 -152 3z m68 -25 c-17 -8 -44 -16 -60 -20 -25 -4 -23 -2 11 15 22 11 49 19 60 19 15 0 12 -4 -11 -14z"/>
<path d="M1125 5828 c-18 -50 -55 -231 -55 -269 0 -103 68 -87 168 40 19 25 19 25 14 -51 -5 -88 2 -128 23 -128 12 0 15 16 15 83 1 45 8 118 16 162 21 108 21 119 4 122 -10 2 -26 -20 -48 -71 -32 -70 -121 -186 -144 -186 -17 0 -2 116 26 205 31 97 32 105 6 105 -11 0 -23 -6 -25 -12z"/>
<path d="M3411 5823 c-11 -21 -51 -216 -51 -248 0 -19 17 -35 37 -35 3 0 36 30 73 66 l69 66 -6 -71 c-6 -69 -5 -71 21 -80 30 -12 59 -3 123 37 41 26 57 52 32 52 -7 0 -34 -13 -61 -30 -73 -45 -82 -42 -75 28 2 32 17 87 32 123 31 75 34 90 18 96 -6 2 -38 -31 -71 -74 -62 -81 -152 -174 -152 -158 0 6 11 60 24 120 13 61 22 113 19 118 -7 12 -22 8 -32 -10z"/>
<path d="M1790 5651 c0 -20 5 -21 124 -21 78 0 127 4 131 11 4 6 5 12 4 13 -2 2 -61 7 -131 10 -125 7 -128 7 -128 -13z"/>
<path d="M2976 5646 c-38 -6 -71 -17 -74 -23 -5 -16 7 -16 133 -2 129 14 145 17 145 29 0 13 -116 11 -204 -4z"/>
<path d="M1940 5578 c-98 -10 -123 -19 -103 -39 18 -18 233 21 233 41 0 6 -8 9 -17 9 -10 -1 -61 -6 -113 -11z"/>
<path d="M3763 5543 c-16 -6 -17 -33 -1 -33 7 0 -5 -18 -26 -39 -47 -48 -43 -71 9 -71 38 0 115 34 115 50 0 14 -22 12 -65 -6 -20 -8 -39 -13 -41 -11 -2 2 14 21 36 42 48 47 53 75 13 74 -16 0 -34 -3 -40 -6z"/>
<path d="M1475 5493 c-37 -51 -45 -83 -20 -83 18 0 18 5 -1 -59 -18 -61 -14 -81 17 -81 15 0 19 4 15 16 -3 9 7 62 24 119 16 57 30 110 30 119 0 30 -30 16 -65 -31z"/>
<path d="M3320 4875 c0 -3 12 -23 26 -44 91 -139 66 -337 -82 -642 -64 -131 -75 -164 -51 -157 33 11 147 251 194 410 22 74 27 114 28 194 0 96 -2 104 -35 170 -26 50 -41 70 -58 72 -12 2 -22 1 -22 -3z"/>
<path d="M1764 4776 c-50 -106 -76 -199 -99 -350 -28 -192 -15 -321 42 -407 22 -34 67 -69 88 -69 15 0 2 32 -20 46 -13 9 -37 41 -52 72 -22 45 -28 73 -31 148 -8 168 30 371 98 525 54 123 56 129 36 129 -12 0 -32 -30 -62 -94z"/>
<path d="M4929 4768 c-18 -34 -39 -119 -39 -161 0 -65 23 -38 47 54 12 46 25 94 28 107 10 30 -20 30 -36 0z"/>
<path d="M3191 4638 c-25 -81 -34 -149 -23 -160 6 -6 14 -9 17 -6 9 9 52 188 46 193 -13 14 -31 1 -40 -27z"/>
<path d="M6525 4615 c-49 -17 -115 -85 -115 -119 0 -27 -16 -36 -65 -36 -21 0 -38 6 -43 16 -10 17 -43 16 -49 -2 -2 -7 4 -20 14 -29 14 -15 30 -17 101 -12 46 3 99 1 118 -5 l35 -9 -34 -39 c-40 -43 -51 -71 -43 -105 13 -53 177 -75 265 -35 24 11 42 23 39 25 -3 3 -36 0 -74 -6 -74 -13 -150 -6 -180 15 -16 12 -17 17 -6 41 7 15 30 43 52 63 22 19 40 41 40 48 0 8 -20 19 -46 25 l-45 12 49 28 c86 49 117 110 66 129 -31 12 -30 12 -79 -5z m65 -33 c0 -15 -54 -59 -97 -81 -41 -20 -43 -20 -43 -3 0 19 39 61 75 80 23 13 65 16 65 4z"/>
<path d="M1224 4601 c-97 -59 -183 -247 -149 -328 10 -25 23 -34 54 -43 22 -6 53 -8 68 -4 43 10 143 56 143 65 0 13 -10 11 -75 -11 -124 -43 -176 -18 -155 75 19 85 72 172 129 211 42 28 61 18 61 -32 0 -30 3 -34 25 -34 20 0 25 5 25 24 0 31 -18 78 -33 88 -21 13 -61 9 -93 -11z"/>
<path d="M5874 4600 c-46 -19 -111 -114 -134 -199 -15 -56 0 -94 43 -112 60 -25 214 -4 225 30 3 10 0 12 -14 7 -11 -5 -56 -10 -102 -13 -71 -5 -85 -3 -103 13 -16 15 -19 25 -14 53 15 80 94 191 136 191 16 0 19 -7 19 -46 0 -41 2 -45 23 -42 19 3 22 9 21 52 -1 67 -37 92 -100 66z"/>
<path d="M4480 4548 c-19 -89 -29 -200 -19 -225 7 -18 16 -23 45 -23 30 0 45 8 79 43 l42 42 -1 -50 c-1 -38 3 -50 14 -50 10 0 18 21 26 75 7 41 17 95 23 120 10 44 3 68 -17 56 -5 -3 -22 -31 -38 -63 -33 -66 -106 -147 -126 -141 -16 6 -13 97 8 186 15 66 13 82 -11 82 -8 0 -18 -21 -25 -52z"/>
<path d="M4034 4570 c-69 -45 -122 -220 -80 -263 33 -33 160 -15 196 27 10 14 9 16 -8 16 -11 0 -36 -7 -57 -16 -20 -8 -51 -14 -69 -12 -28 3 -31 7 -34 40 -5 56 15 115 55 159 42 47 57 50 48 9 -5 -24 -3 -30 9 -30 20 0 39 45 31 71 -8 25 -51 24 -91 -1z"/>
<path d="M2119 4566 c-46 -16 -102 -59 -119 -90 -13 -25 -26 -30 -112 -42 -47 -6 -62 -19 -35 -30 8 -3 40 -1 72 4 50 8 60 7 76 -9 11 -11 27 -19 38 -19 15 0 13 -6 -14 -35 -36 -37 -60 -96 -51 -121 11 -28 56 -36 110 -19 68 23 136 55 136 66 0 16 -34 10 -98 -16 -34 -14 -73 -25 -88 -25 -23 0 -25 3 -19 27 8 34 34 66 82 105 53 41 49 54 -13 50 -65 -5 -77 11 -21 27 95 29 169 87 149 118 -12 18 -56 22 -93 9z m51 -35 c0 -9 -100 -61 -116 -61 -12 0 20 33 51 52 32 19 65 24 65 9z"/>
<path d="M2782 4537 c-13 -16 -48 -146 -55 -205 -5 -40 9 -72 31 -72 14 0 65 39 89 67 l24 28 -7 -53 c-7 -60 5 -82 43 -82 36 0 93 27 93 44 0 19 1 19 -43 1 -49 -20 -57 -19 -57 9 0 22 38 159 55 199 5 13 2 17 -12 17 -12 0 -39 -26 -70 -68 -29 -37 -66 -80 -83 -97 l-31 -30 7 45 c4 25 16 74 26 110 10 36 20 71 21 79 3 19 -18 25 -31 8z"/>
<path d="M5357 4484 c-4 -4 -7 -14 -7 -22 0 -12 20 -14 130 -10 120 4 152 10 138 23 -8 8 -254 16 -261 9z"/>
<path d="M3612 4433 c-60 -3 -82 -7 -79 -16 3 -9 40 -12 131 -10 70 0 130 4 134 8 12 12 -23 25 -63 23 -22 -1 -77 -4 -123 -5z"/>
<path d="M2441 4389 c-83 -21 -89 -25 -74 -40 7 -7 27 -6 65 5 29 9 80 20 113 24 32 4 60 13 63 20 6 18 -80 14 -167 -9z"/>
<path d="M4748 4379 c-10 -5 -18 -17 -18 -24 0 -17 26 -20 35 -5 7 12 45 14 45 2 0 -4 -16 -24 -36 -43 -79 -76 -75 -117 11 -106 54 8 115 32 115 46 0 15 -29 14 -84 -5 -26 -9 -50 -13 -54 -10 -3 4 15 27 41 52 47 45 57 70 35 92 -15 15 -66 15 -90 1z"/>
<path d="M5363 4379 c-72 -21 -42 -47 34 -31 27 6 83 14 126 17 42 4 77 11 77 16 0 12 -195 10 -237 -2z"/>
<path d="M4204 4366 c-15 -12 -16 -17 -7 -27 10 -10 15 -10 27 0 20 17 60 10 64 -11 2 -11 -21 -33 -73 -68 -61 -41 -76 -56 -73 -73 3 -20 10 -22 80 -25 73 -3 118 8 118 27 0 5 -36 7 -80 4 -44 -3 -80 -3 -80 0 0 3 20 17 44 31 101 59 128 103 88 139 -23 21 -81 22 -108 3z"/>
<path d="M1456 4308 c-11 -36 -27 -167 -24 -193 2 -22 8 -30 23 -30 17 0 20 6 17 35 -2 19 5 65 14 102 9 38 14 75 10 83 -7 18 -35 20 -40 3z"/>
<path d="M6095 4308 c-16 -53 -35 -152 -31 -164 11 -28 35 -15 41 24 4 20 13 56 22 80 8 23 12 49 9 57 -7 18 -35 20 -41 3z"/>
<path d="M3051 4299 c-25 -10 -23 -35 3 -33 27 3 19 -11 -34 -55 -55 -47 -64 -77 -25 -87 31 -8 117 21 140 46 28 31 9 36 -40 12 -74 -36 -86 -27 -32 21 68 63 61 122 -12 96z"/>
<path d="M5007 3793 c-17 -44 -42 -182 -33 -190 16 -16 35 11 41 59 7 49 23 109 40 151 5 13 2 17 -13 17 -14 0 -24 -12 -35 -37z"/>
<path d="M3292 3737 c-11 -14 -32 -128 -32 -175 0 -21 5 -32 14 -32 13 0 20 28 42 166 6 43 -6 64 -24 41z"/>
<path d="M4140 3637 c-37 -19 -78 -85 -96 -155 -14 -58 -14 -65 0 -88 14 -20 25 -24 65 -24 55 0 109 16 131 38 13 13 10 14 -30 7 -25 -4 -65 -8 -90 -9 l-45 -1 2 37 c4 73 66 178 104 178 14 0 10 -34 -7 -58 -19 -27 -10 -46 16 -32 15 8 40 57 40 81 0 14 -31 39 -48 39 -9 0 -28 -6 -42 -13z"/>
<path d="M2881 3622 c-14 -27 -31 -137 -31 -203 0 -99 54 -118 126 -45 l44 43 0 -29 c0 -36 36 -56 69 -39 30 16 27 34 -5 28 l-27 -5 8 77 c13 122 12 146 -5 146 -8 0 -22 -24 -35 -60 -12 -33 -28 -73 -37 -90 -22 -41 -74 -89 -87 -81 -16 10 -13 130 4 201 8 33 14 63 15 68 0 15 -30 6 -39 -11z"/>
<path d="M2383 3610 c-55 -33 -78 -90 -78 -197 0 -75 3 -96 18 -110 26 -27 87 -21 148 14 90 51 71 75 -21 28 -65 -33 -98 -33 -106 1 -10 41 1 156 20 191 17 35 61 63 96 63 20 0 21 -3 15 -50 -6 -41 -4 -50 9 -50 14 0 36 53 36 87 0 43 -82 57 -137 23z"/>
<path d="M4623 3612 c-15 -9 -35 -126 -31 -178 3 -35 6 -39 31 -42 23 -3 38 5 73 42 l44 46 0 -43 c0 -48 13 -67 47 -67 29 0 29 13 1 32 -20 14 -21 17 -9 92 15 106 1 127 -40 59 -31 -53 -88 -123 -100 -123 -12 0 -11 58 2 120 11 52 4 76 -18 62z"/>
<path d="M3526 3528 c-8 -6 -7 -11 4 -18 20 -13 210 -13 210 0 0 5 -10 12 -22 15 -40 8 -180 10 -192 3z"/>
<path d="M3567 3464 c-18 -18 15 -24 124 -24 109 0 144 8 103 24 -21 8 -219 8 -227 0z"/>
<path d="M1923 3437 c-3 -5 -1 -13 4 -18 13 -13 279 3 275 16 -3 12 -272 14 -279 2z"/>
<path d="M4887 3434 c-10 -11 3 -24 24 -24 26 0 24 -7 -17 -52 -19 -22 -33 -45 -31 -51 5 -16 101 -21 127 -7 37 20 22 31 -32 24 l-53 -7 34 36 c27 28 32 41 27 61 -5 21 -12 26 -40 26 -18 0 -36 -3 -39 -6z"/>
<path d="M2648 3392 c-20 -24 -23 -39 -23 -102 0 -63 3 -75 18 -78 13 -3 17 4 17 31 0 20 9 63 20 98 26 84 13 104 -32 51z"/>
<path d="M3142 3398 c-17 -17 -15 -68 2 -68 8 0 16 7 20 15 8 21 36 19 36 -2 -1 -10 -14 -34 -30 -53 -41 -47 -40 -70 3 -70 34 0 108 37 115 58 6 18 -23 15 -62 -9 -42 -25 -45 -18 -11 23 38 45 32 77 -20 104 -33 17 -38 17 -53 2z"/>
<path d="M4307 3384 c-14 -14 -7 -24 17 -24 42 0 39 -18 -9 -52 -25 -17 -45 -36 -45 -40 0 -31 139 -33 169 -3 14 13 10 15 -39 15 l-53 0 22 24 c15 16 21 33 19 52 -3 25 -8 29 -38 32 -20 2 -39 0 -43 -4z"/>
<path d="M3463 2895 c-100 -7 -417 -18 -704 -26 -416 -10 -575 -10 -774 -1 -356 17 -557 16 -553 -3 2 -12 56 -15 343 -20 575 -9 1012 -6 1435 10 223 8 410 15 417 15 15 0 19 -13 40 -145 14 -88 17 -153 13 -325 -2 -118 -4 -368 -4 -555 -1 -317 0 -340 16 -340 17 0 18 30 24 430 9 593 8 673 -9 805 -16 126 -30 171 -49 169 -7 -1 -95 -7 -195 -14z"/>
<path d="M1374 2856 c-6 -17 3 -771 14 -1191 l7 -240 545 3 c300 2 608 8 685 13 77 4 311 6 520 2 406 -6 575 0 575 22 0 19 -21 21 -185 14 -82 -3 -285 -4 -450 -2 -165 2 -379 -1 -475 -7 -252 -15 -1158 -19 -1169 -6 -12 15 -21 323 -27 906 -4 428 -6 495 -19 498 -8 2 -18 -4 -21 -12z"/>
<path d="M2140 2688 c-25 -85 -22 -243 4 -217 3 3 10 46 15 95 5 49 14 102 20 117 15 39 14 47 -7 47 -13 0 -23 -12 -32 -42z"/>
<path d="M1777 2625 c-13 -13 -50 -169 -63 -266 -16 -122 68 -119 151 4 l35 52 0 -58 c0 -61 12 -97 33 -97 9 0 12 18 9 68 -2 37 1 100 6 140 6 41 8 80 5 88 -11 28 -35 9 -52 -41 -10 -27 -27 -68 -39 -90 -23 -45 -89 -125 -103 -125 -5 0 -9 17 -9 38 0 44 47 243 60 256 6 6 10 15 10 22 0 19 -28 25 -43 9z"/>
<path d="M2952 2524 c-32 -22 -63 -88 -69 -149 -5 -47 -3 -54 18 -69 71 -50 169 28 185 147 5 38 3 51 -11 67 -22 25 -91 27 -123 4z m96 -47 c5 -38 -41 -130 -72 -147 -42 -22 -59 -7 -53 47 3 28 11 50 21 55 9 5 16 19 16 31 0 32 20 48 55 45 25 -2 31 -8 33 -31z"/>
<path d="M9391 2504 c-38 -32 -58 -92 -42 -123 10 -19 9 -22 -14 -31 -49 -19 -73 -13 -77 18 -2 21 -8 27 -28 27 -20 0 -26 -6 -28 -27 -3 -24 -8 -28 -36 -28 -18 0 -40 6 -50 13 -16 12 -16 15 4 60 24 54 21 77 -9 77 -25 0 -51 -47 -51 -90 0 -23 -6 -33 -26 -42 -23 -11 -28 -10 -41 7 -9 13 -12 30 -7 50 13 59 10 80 -11 80 -16 0 -23 -11 -32 -50 -20 -81 -96 -131 -127 -83 -8 13 -5 27 13 58 16 28 20 45 13 52 -18 18 -47 4 -63 -31 -19 -41 -44 -61 -76 -61 -21 0 -23 4 -23 54 0 59 -11 76 -37 55 -11 -10 -14 -25 -10 -56 7 -62 -11 -79 -100 -92 -89 -14 -153 -14 -153 -2 0 6 4 13 10 16 15 9 32 85 25 112 -8 32 -43 47 -77 34 -49 -18 -76 -108 -49 -159 10 -18 9 -22 -3 -22 -19 0 -50 44 -68 100 -22 68 -63 65 -92 -5 -17 -40 -87 -76 -160 -83 l-51 -4 41 30 c68 50 92 100 62 130 -48 48 -168 -42 -168 -125 0 -38 -13 -43 -27 -11 -7 16 -6 30 4 50 29 57 -41 101 -96 61 -63 -47 -60 -98 5 -115 35 -10 44 -17 44 -34 0 -14 -8 -25 -19 -29 -11 -3 -38 -26 -60 -50 -34 -37 -41 -51 -41 -86 0 -83 86 -127 147 -75 27 24 28 27 27 119 -1 88 1 96 20 104 12 5 37 6 56 2 40 -9 117 4 159 26 29 15 30 14 33 -13 2 -19 9 -27 23 -27 16 0 22 11 33 63 l14 62 25 -50 c32 -65 70 -87 123 -71 21 6 66 11 101 11 35 1 95 7 134 14 61 12 71 12 81 -2 13 -17 44 -10 44 10 0 8 20 18 46 24 40 9 46 9 55 -8 24 -44 104 -43 144 2 18 20 18 19 41 -5 26 -28 60 -32 91 -10 18 13 23 13 33 1 15 -19 79 -29 110 -18 13 5 39 6 58 1 22 -5 51 -2 82 7 37 11 59 12 92 4 67 -15 151 -12 261 11 178 36 157 49 -33 19 -72 -11 -172 -12 -208 -1 l-24 6 27 25 c56 52 70 109 33 134 -32 23 -62 20 -97 -10z m75 -18 c12 -32 -58 -118 -79 -97 -14 14 11 78 36 96 27 19 36 19 43 1z m-1476 -35 c0 -18 -74 -91 -92 -91 -26 0 8 64 48 91 36 24 44 24 44 0z m384 -20 c-2 -36 -30 -85 -44 -76 -16 10 -12 68 6 93 21 31 39 22 38 -17z m-584 -3 c0 -16 -31 -48 -47 -48 -16 0 -17 32 -1 48 15 15 48 16 48 0z m6 -294 c-15 -77 -96 -63 -96 16 0 32 7 44 42 76 l43 38 9 -47 c4 -26 5 -63 2 -83z"/>
<path d="M6691 2475 c-26 -34 -35 -79 -21 -106 12 -21 11 -21 -36 -14 -71 10 -85 20 -78 55 12 58 -68 101 -128 69 -18 -10 -48 -65 -48 -89 0 -5 9 -19 20 -30 21 -21 83 -27 109 -11 9 6 22 4 36 -5 36 -24 118 -29 155 -10 18 9 43 16 55 16 12 0 44 11 71 25 27 14 50 25 52 25 1 0 2 -11 2 -24 0 -31 33 -72 49 -61 7 4 24 30 36 58 22 47 24 49 30 25 4 -15 17 -36 30 -48 20 -19 32 -22 70 -18 25 3 54 13 64 22 17 16 19 15 25 -15 3 -17 6 -47 6 -66 0 -64 23 -175 37 -180 26 -10 31 12 17 87 -21 121 -21 125 27 127 52 3 124 35 138 61 31 58 -54 123 -131 102 -21 -7 -36 -6 -45 1 -20 17 -40 4 -48 -31 -8 -34 -66 -80 -102 -80 -17 0 -28 10 -39 38 -28 63 -30 67 -52 70 -16 3 -27 -8 -46 -45 l-25 -48 -1 36 c0 45 -20 55 -54 28 -55 -44 -147 -72 -160 -50 -7 11 13 71 24 71 4 0 10 -7 14 -15 6 -17 46 -21 46 -5 0 6 -7 22 -16 35 -21 32 -57 32 -83 0z m-181 -61 c0 -17 -8 -28 -26 -36 -52 -24 -77 26 -33 64 27 23 59 8 59 -28z m854 5 c8 -12 12 -27 10 -34 -6 -15 -65 -41 -113 -51 -34 -6 -34 -6 -28 31 9 52 32 75 78 75 27 0 42 -6 53 -21z"/>
<path d="M2336 2481 c-15 -24 9 -31 100 -31 77 0 94 3 94 15 0 12 -15 15 -72 15 -40 0 -83 3 -94 6 -12 3 -25 1 -28 -5z"/>
<path d="M5013 2468 c-4 -7 -9 -57 -11 -111 -4 -98 -4 -99 18 -95 21 3 23 9 25 62 1 51 5 62 29 83 15 12 38 23 50 23 39 0 49 -23 42 -93 -6 -50 -4 -66 7 -76 25 -20 80 -24 143 -10 32 7 95 13 139 13 62 1 89 6 121 23 l41 21 7 -52 c9 -79 30 -131 52 -131 21 0 23 14 10 131 l-8 70 60 -4 c55 -4 63 -2 86 21 28 28 27 47 -7 85 -38 42 -129 49 -152 12 -3 -5 -10 -8 -15 -5 -16 10 -40 -26 -40 -60 0 -28 -6 -37 -36 -56 -38 -23 -134 -39 -134 -22 0 6 18 18 40 28 47 21 113 89 108 112 -9 45 -77 41 -153 -10 -27 -17 -59 -38 -72 -45 -26 -15 -29 -33 -11 -62 18 -28 6 -34 -75 -34 l-72 -1 3 63 c3 45 -1 69 -12 86 -18 29 -62 41 -98 27 -20 -8 -28 -7 -32 5 -7 17 -42 19 -53 2z m537 -37 c0 -28 -129 -105 -147 -88 -9 10 46 57 90 77 47 22 57 24 57 11z m220 -11 c11 -6 24 -19 30 -30 15 -28 -20 -44 -76 -35 -37 5 -44 10 -44 29 0 42 45 60 90 36z"/>
<path d="M6006 2465 c-21 -7 -53 -27 -70 -44 -18 -17 -37 -31 -43 -31 -27 0 -23 -24 6 -51 26 -23 41 -29 79 -29 26 0 67 9 91 20 24 11 44 20 46 20 1 0 5 -21 9 -47 12 -91 68 -180 90 -145 3 5 -4 37 -14 71 -11 35 -20 66 -20 69 0 4 24 6 52 4 93 -6 163 64 124 123 -23 35 -61 48 -121 41 -27 -4 -61 -7 -74 -9 -13 -1 -28 -10 -32 -19 -5 -10 -13 -26 -17 -35 -11 -24 -90 -62 -127 -62 l-30 0 33 14 c43 19 99 62 107 83 4 10 -1 21 -11 29 -22 16 -29 16 -78 -2z m44 -30 c0 -5 -84 -55 -94 -55 -14 0 6 22 38 41 29 18 56 25 56 14z m258 -11 c45 -31 14 -82 -57 -91 -46 -6 -71 11 -71 51 0 31 34 56 75 56 17 0 41 -7 53 -16z"/>
<path d="M7524 2451 c-23 -10 -50 -31 -60 -46 -11 -15 -27 -34 -36 -43 -28 -26 -22 -35 37 -59 68 -28 178 -31 248 -7 51 17 66 41 20 29 -45 -11 -171 -18 -199 -11 -25 7 -24 8 25 32 64 32 117 90 100 110 -16 20 -86 17 -135 -5z m96 -18 c0 -11 -58 -49 -102 -68 -41 -16 -44 -15 -27 17 17 31 129 76 129 51z"/>
<path d="M2371 2381 c-29 -18 0 -31 57 -26 114 11 142 16 142 26 0 11 -180 12 -199 0z"/>
<path d="M2058 2339 c-10 -5 -18 -17 -18 -24 0 -18 46 -20 53 -2 4 8 6 8 6 -3 1 -8 -16 -32 -36 -53 -37 -37 -37 -39 -19 -53 35 -25 189 -14 163 12 -4 4 -32 9 -62 12 l-55 4 26 31 c35 42 30 81 -11 84 -16 2 -38 -2 -47 -8z"/>
<path d="M4137 2323 c-4 -3 -7 -10 -7 -14 0 -11 75 -43 147 -64 61 -18 103 -40 103 -54 0 -5 -16 -19 -35 -31 -19 -12 -35 -26 -35 -31 0 -16 36 -9 71 14 67 45 42 91 -70 128 -36 12 -83 30 -103 40 -39 20 -60 23 -71 12z"/>
<path d="M3955 2230 c-15 -25 21 -31 155 -24 74 3 137 8 139 10 13 12 -21 16 -147 21 -106 5 -141 3 -147 -7z"/>
<path d="M4108 2167 c-77 -7 -108 -14 -108 -23 0 -22 15 -24 101 -13 99 12 151 27 144 40 -4 5 -12 8 -18 7 -7 -1 -60 -6 -119 -11z"/>
<path d="M7286 2070 c-28 -33 -46 -87 -46 -136 0 -28 -5 -34 -42 -49 -35 -13 -49 -14 -89 -5 -54 13 -91 1 -88 -28 5 -53 -2 -72 -31 -87 -33 -17 -36 -13 -31 44 2 25 -25 91 -43 103 -6 4 -28 8 -48 8 -82 0 -122 -106 -53 -139 27 -13 28 -15 10 -22 -28 -11 -87 -10 -105 1 -12 8 -10 14 12 37 70 74 50 160 -28 121 -44 -21 -67 -60 -66 -112 1 -41 -1 -46 -21 -46 -13 0 -28 5 -33 10 -15 15 -46 1 -42 -18 5 -24 64 -38 100 -24 20 7 38 8 54 1 45 -17 118 -10 167 15 26 12 49 21 52 18 15 -15 0 -42 -40 -70 -69 -49 -70 -101 -2 -142 31 -20 90 -26 121 -14 22 8 20 49 -4 119 -11 32 -19 59 -18 60 2 0 15 8 29 17 24 15 27 15 43 0 26 -26 109 -23 137 5 22 22 29 64 15 95 -5 12 -1 18 15 23 27 9 40 -9 32 -47 -5 -27 2 -34 30 -29 4 1 18 -5 30 -14 28 -20 91 -19 112 1 40 41 -5 84 -87 84 -63 0 -63 16 2 87 54 59 80 124 59 149 -21 26 -74 17 -103 -16z m74 -10 c0 -23 -29 -76 -54 -99 -22 -21 -26 -22 -26 -7 0 20 26 84 41 103 13 15 39 17 39 3z m-620 -175 c0 -13 -30 -62 -44 -74 -14 -12 -16 -10 -16 11 0 29 26 68 46 68 8 0 14 -2 14 -5z m164 -17 c16 -26 -4 -52 -43 -56 -39 -4 -50 18 -26 54 18 29 51 29 69 2z m254 -55 c18 -34 -5 -63 -48 -63 -45 0 -54 20 -23 52 31 32 58 36 71 11z m213 -4 c11 -5 17 -14 14 -20 -10 -15 -41 -10 -66 11 l-24 19 28 1 c16 0 37 -5 48 -11z m-416 -179 c10 -33 15 -63 11 -67 -10 -11 -88 20 -100 39 -8 14 -4 24 24 53 19 19 37 35 40 35 4 0 15 -27 25 -60z"/>
<path d="M2196 1998 c-9 -28 -26 -133 -26 -155 0 -13 6 -23 14 -23 9 0 21 30 35 85 11 46 21 89 21 95 0 14 -40 13 -44 -2z"/>
<path d="M9947 1993 c-20 -3 -27 -9 -25 -21 3 -14 15 -16 86 -13 l83 3 -7 -39 c-12 -65 -23 -83 -59 -98 -47 -20 -109 -19 -126 1 -8 9 -14 40 -14 68 0 69 -25 75 -49 11 -21 -54 -70 -95 -113 -95 -42 0 -57 21 -49 69 4 29 2 40 -9 45 -21 8 -45 -21 -45 -55 0 -38 -41 -82 -73 -77 -33 5 -30 75 6 118 31 37 33 48 11 57 -11 4 -29 -7 -54 -35 -37 -39 -83 -62 -98 -48 -3 4 -9 28 -12 54 -4 38 -9 47 -25 47 -25 0 -100 -106 -92 -129 11 -29 37 -17 53 24 l16 40 17 -32 c15 -30 20 -33 64 -33 46 0 47 -1 47 -32 0 -22 8 -38 26 -52 35 -28 66 -26 102 4 28 23 32 24 58 10 16 -8 39 -15 52 -15 27 0 78 24 108 51 20 19 21 19 32 -5 16 -35 72 -51 127 -37 55 14 52 14 58 -9 12 -45 35 -20 62 68 16 48 29 95 29 105 0 15 11 17 76 17 61 -1 72 -3 59 -13 -24 -18 -39 -52 -39 -87 0 -45 36 -77 96 -84 27 -4 63 -11 80 -16 44 -14 109 -12 150 5 25 10 52 13 90 9 62 -8 77 11 19 22 -40 7 -43 14 -15 39 19 18 37 76 31 105 -8 41 -65 63 -116 44 -41 -16 -59 -113 -29 -158 17 -27 14 -31 -33 -41 -47 -9 -71 1 -75 33 -2 21 -8 27 -28 27 -19 0 -26 -6 -28 -23 -3 -20 -7 -22 -35 -17 -59 13 -81 50 -57 96 13 23 40 26 40 4 0 -9 9 -15 25 -15 14 0 25 6 25 13 0 19 -29 57 -45 57 -7 0 -15 4 -17 9 -6 18 -279 36 -361 24z m693 -48 c15 -18 -2 -74 -30 -100 -26 -24 -50 -5 -50 39 0 60 50 98 80 61z"/>
<path d="M3078 1974 c-26 -8 -56 -25 -66 -39 -21 -27 -59 -33 -94 -14 -15 8 -23 8 -32 -1 -16 -17 19 -40 62 -40 24 0 40 -7 54 -25 11 -14 26 -25 34 -25 20 0 18 -4 -21 -43 -38 -38 -47 -85 -20 -107 28 -23 90 -23 169 0 74 22 107 42 88 54 -5 3 -34 -3 -63 -13 -116 -39 -169 -38 -169 4 0 25 36 58 98 89 40 21 33 36 -17 36 -20 0 -46 6 -56 14 -18 13 -16 15 25 26 25 7 62 21 82 31 79 40 21 82 -74 53z m27 -39 c-40 -19 -67 -18 -35 0 14 8 34 14 45 14 15 -1 13 -4 -10 -14z"/>
<path d="M5680 1967 c-31 -8 -46 -18 -48 -31 -4 -17 0 -18 34 -11 22 4 57 8 79 9 39 1 40 0 43 -34 2 -27 -5 -46 -28 -78 -37 -51 -37 -57 -5 -78 l26 -17 -39 -17 c-37 -17 -92 -71 -92 -91 0 -82 191 -107 268 -36 30 28 23 69 -19 113 l-30 31 58 21 c62 22 105 21 160 -4 41 -18 103 -18 130 1 12 8 24 12 27 7 2 -4 15 -56 27 -115 19 -92 25 -107 42 -107 19 0 19 5 13 78 -3 42 -9 87 -12 98 -5 19 -1 22 46 26 105 10 142 78 77 143 -30 30 -42 35 -80 35 -36 0 -49 -5 -64 -24 -11 -13 -28 -25 -38 -28 -13 -2 -22 -14 -25 -32 -3 -16 -17 -38 -32 -49 -24 -18 -32 -19 -68 -8 -32 9 -40 16 -40 36 0 13 -4 26 -9 29 -4 3 -6 16 -4 30 12 59 -89 93 -123 41 -16 -24 -16 -60 0 -96 5 -12 -6 -21 -49 -37 -66 -26 -84 -27 -110 -8 -18 13 -18 14 2 42 32 45 43 95 28 131 -19 45 -56 53 -145 30z m344 -73 c9 -3 16 -14 16 -24 0 -19 -25 -50 -40 -50 -13 0 -22 37 -15 60 7 21 14 24 39 14z m380 -35 c53 -42 25 -89 -55 -93 l-39 -2 0 46 c0 25 5 51 12 58 18 18 52 14 82 -9z m-540 -183 c20 -18 36 -41 36 -49 0 -56 -186 -75 -206 -22 -4 9 2 25 12 36 17 19 99 67 116 69 4 0 23 -15 42 -34z"/>
<path d="M7785 1957 c-3 -6 -6 -43 -8 -81 -1 -50 2 -70 11 -74 8 -2 16 5 19 17 4 15 11 20 24 16 10 -3 34 -2 53 3 34 10 35 10 34 -21 -2 -58 75 -85 170 -57 22 6 52 5 88 -2 42 -8 72 -8 125 1 89 16 92 35 4 26 -35 -4 -81 -4 -101 0 l-37 6 32 33 c59 60 32 126 -51 126 -76 0 -122 -86 -74 -139 17 -19 17 -20 -30 -27 -27 -4 -54 -3 -63 3 -27 17 -25 57 5 92 20 25 24 35 15 44 -8 8 -16 8 -25 2 -55 -41 -72 -48 -109 -49 l-42 -1 3 48 c3 42 1 47 -18 47 -11 0 -23 -6 -25 -13z m399 -53 c19 -19 9 -42 -31 -74 l-28 -21 -18 22 c-41 50 31 119 77 73z"/>
<path d="M9015 1950 c-4 -6 -5 -32 -3 -57 3 -42 0 -49 -23 -61 -46 -27 -75 -10 -96 55 -23 75 -46 81 -72 21 -19 -45 -38 -58 -111 -78 -49 -13 -80 -6 -80 19 0 29 28 47 51 33 10 -7 26 -12 34 -12 22 0 19 37 -4 50 -45 24 -103 1 -122 -47 -27 -72 54 -105 159 -65 l49 19 -1 -36 c-1 -29 3 -36 18 -36 13 0 24 14 36 44 12 33 18 40 23 27 4 -9 23 -24 43 -32 41 -17 89 -7 119 25 13 16 22 17 48 10 17 -5 40 -6 49 -3 11 3 18 0 18 -8 0 -30 52 -121 97 -169 l48 -52 -105 5 c-111 5 -180 25 -180 52 0 9 16 26 35 38 19 13 35 26 35 31 0 15 -29 6 -69 -24 -75 -54 -39 -97 104 -124 125 -24 215 -16 215 19 0 9 -20 38 -45 66 -46 52 -95 137 -95 166 0 9 11 25 24 35 47 37 41 89 -9 89 -26 0 -50 -25 -59 -63 -6 -25 -11 -28 -39 -25 -27 3 -32 6 -29 27 6 43 -6 71 -33 71 -13 0 -27 -5 -30 -10z"/>
<path d="M1802 1903 c-15 -29 -42 -158 -42 -202 0 -75 60 -80 136 -9 l44 41 0 -46 c0 -58 8 -77 31 -77 16 0 18 4 11 18 -10 18 1 135 17 189 5 17 7 34 3 37 -15 16 -32 1 -56 -49 -29 -58 -97 -125 -128 -125 -25 0 -24 46 2 135 12 39 22 77 23 85 3 21 -30 24 -41 3z"/>
<path d="M2412 1784 c3 -17 13 -19 111 -17 60 0 111 4 114 7 14 14 -12 19 -118 24 -105 5 -111 4 -107 -14z"/>
<path d="M10865 1781 c-9 -16 3 -31 26 -31 14 0 19 6 17 17 -4 20 -33 29 -43 14z"/>
<path d="M2600 1740 c-102 -8 -130 -16 -130 -37 0 -13 7 -14 38 -9 20 4 66 11 102 16 93 14 112 19 105 30 -3 6 -12 9 -18 9 -7 -1 -50 -5 -97 -9z"/>
<path d="M2165 1674 c-56 -29 -87 -74 -51 -74 10 0 12 -12 8 -50 -4 -40 -2 -50 11 -50 10 0 19 17 26 52 7 28 21 67 33 85 25 42 14 58 -27 37z"/>
<path d="M5568 1341 c-201 -3 -368 -8 -371 -11 -3 -3 -1 -50 4 -105 17 -199 39 -531 39 -591 0 -54 3 -63 30 -89 29 -28 35 -29 167 -38 169 -11 534 -4 908 17 154 9 322 15 372 14 51 -1 96 1 99 5 12 12 -6 37 -27 37 -19 0 -21 4 -15 38 4 20 9 176 12 347 6 361 7 356 -71 367 -80 10 -747 16 -1147 9z m1129 -37 c17 -3 34 -13 38 -22 16 -42 24 -344 14 -497 -7 -88 -12 -172 -13 -186 l-1 -26 -260 -11 c-143 -7 -343 -18 -445 -24 -130 -8 -261 -9 -441 -2 -281 10 -296 13 -285 66 4 18 1 30 -10 36 -11 6 -18 52 -29 213 -13 204 -19 351 -17 421 l2 38 318 3 c385 5 1085 -1 1129 -9z"/>
<path d="M5510 1108 c-28 -19 -36 -32 -42 -68 -4 -25 -14 -76 -23 -113 -14 -62 -14 -71 0 -101 22 -47 76 -69 164 -68 50 0 74 -4 82 -15 20 -23 65 -43 99 -43 35 0 40 15 8 24 -13 3 -38 15 -56 26 l-34 21 33 22 c55 38 74 71 74 135 -1 116 -76 191 -203 199 -59 4 -71 2 -102 -19z m143 -19 c88 -24 140 -112 118 -197 -10 -37 -50 -82 -73 -82 -5 0 -22 29 -38 65 -22 49 -34 65 -50 65 -27 0 -25 -15 10 -83 17 -32 30 -61 30 -64 0 -12 -119 4 -144 20 -22 15 -26 25 -26 62 0 54 15 95 34 95 10 0 13 6 10 15 -4 9 0 15 10 15 24 0 20 37 -5 45 -25 8 -20 26 12 42 30 16 62 16 112 2z"/>
<path d="M6387 1046 c-67 -24 -93 -60 -62 -86 13 -11 13 -15 0 -41 -17 -33 -20 -121 -4 -151 14 -27 85 -58 134 -58 56 0 103 15 158 50 68 43 89 81 84 154 -3 53 -7 62 -39 92 -20 18 -53 37 -75 43 -52 15 -150 13 -196 -3z m203 -38 c146 -74 57 -259 -126 -260 -74 -1 -108 23 -112 80 -2 22 4 57 13 78 15 36 15 40 -1 51 -42 31 26 72 121 73 44 0 73 -6 105 -22z"/>
<path d="M5942 971 c5 -23 72 -31 196 -24 170 10 125 28 -91 37 -96 3 -108 2 -105 -13z"/>
<path d="M6045 883 c-92 -4 -115 -10 -115 -29 0 -14 10 -15 78 -10 98 9 180 25 187 37 4 5 -12 8 -37 7 -24 -1 -74 -3 -113 -5z"/>
</g><g transform="translate(1050.786218, 1350.0908235993843) scale(0.40808740102544044)"><g transform="translate(-57.706759,297.537395) scale(0.100000,-0.100000)" fill="#4444bb" stroke="none">
<path d="M750 2973 c-57 -10 -88 -25 -119 -57 -40 -41 -55 -100 -46 -179 6 -45 12 -61 32 -77 32 -25 35 -25 64 -1 22 17 24 26 21 89 -4 105 24 120 164 87 33 -7 119 -19 190 -25 88 -8 134 -16 144 -26 32 -32 8 -420 -28 -456 -18 -18 -126 -28 -289 -28 -185 0 -206 -4 -250 -52 -55 -58 -58 -82 -55 -363 1 -145 7 -274 13 -293 11 -34 51 -62 89 -62 12 0 35 14 52 31 l31 30 -6 238 c-3 130 -3 249 0 264 l5 27 112 0 c234 1 363 26 423 82 58 54 98 260 91 463 -4 122 -7 138 -34 191 -40 81 -79 100 -217 108 -174 10 -361 14 -387 9z" fill="#4444bb"/>
<path d="M3660 2971 c-42 -9 -83 -34 -103 -65 -39 -59 -50 -127 -54 -343 -5 -206 -5 -212 18 -252 28 -50 78 -86 143 -102 48 -12 257 -8 370 7 l49 7 -7 -104 c-4 -57 -11 -189 -16 -294 -9 -177 -9 -192 8 -214 35 -47 100 -46 136 2 22 29 27 86 42 452 7 191 0 235 -44 283 -45 48 -92 56 -241 38 -146 -18 -229 -20 -265 -6 l-26 10 0 162 c0 156 8 230 27 249 5 5 99 6 210 2 l201 -6 5 -50 c3 -39 11 -56 31 -74 34 -29 48 -29 80 0 24 20 26 30 28 113 4 147 -23 169 -218 179 -242 11 -340 13 -374 6z" fill="#4444bb"/>
<path d="M1565 2945 c-14 -13 -25 -32 -25 -42 0 -10 -1 -297 -3 -638 -2 -677 -3 -662 55 -694 33 -19 73 -7 101 31 18 24 20 51 29 300 5 150 10 278 12 283 2 6 37 8 97 3 52 -3 135 -7 186 -7 154 -2 161 -10 143 -176 -21 -189 -27 -310 -18 -343 12 -45 45 -72 86 -72 71 0 102 46 102 151 0 33 7 118 16 187 24 190 9 280 -58 349 -50 52 -112 67 -263 65 -71 -1 -164 -6 -205 -11 -41 -4 -78 -7 -81 -5 -4 2 -10 108 -13 236 -9 286 -17 352 -47 384 -31 33 -82 32 -114 -1z" fill="#4444bb"/>
<path d="M2542 2944 c-55 -38 -64 -109 -53 -419 6 -186 9 -215 28 -250 50 -95 116 -125 302 -135 75 -4 171 -5 215 -1 l78 7 -4 -178 c-2 -97 -7 -181 -11 -184 -4 -4 -42 1 -85 11 -104 26 -285 27 -363 3 -106 -33 -149 -107 -99 -170 26 -34 68 -41 132 -21 74 23 202 20 308 -7 182 -47 274 5 301 168 12 77 27 831 19 994 -7 152 -20 181 -86 186 -88 7 -103 -51 -104 -401 l0 -219 -201 4 c-197 3 -201 3 -220 27 -18 21 -19 42 -19 283 l0 260 -29 29 c-33 33 -74 38 -109 13z" fill="#4444bb"/>
<path d="M2374 1391 c-55 -34 -79 -78 -79 -147 0 -51 4 -66 27 -96 35 -45 102 -73 153 -64 78 15 146 111 131 188 -20 108 -145 172 -232 119z" fill="#4444bb"/>
<path d="M1853 999 c-39 -11 -66 -56 -61 -101 6 -59 69 -64 76 -6 4 30 34 38 145 38 l67 0 0 -110 c0 -135 -1 -136 -132 -126 -85 6 -89 6 -113 -18 -24 -25 -25 -28 -25 -179 0 -162 4 -177 47 -177 35 0 43 29 43 159 l0 121 73 0 c85 0 141 14 168 41 17 17 19 34 19 169 0 147 -1 152 -25 175 -23 24 -30 25 -137 24 -62 0 -128 -5 -145 -10z" fill="#4444bb"/>
<path d="M2985 1000 c-91 -16 -93 -18 -104 -58 -15 -51 -14 -537 0 -564 19 -36 69 -48 204 -48 121 0 127 1 151 25 l24 24 -2 292 -3 292 -26 19 c-31 23 -161 33 -244 18z m169 -86 c14 -5 16 -37 16 -250 l0 -245 -102 3 -103 3 0 240 0 240 40 6 c57 9 131 10 149 3z" fill="#4444bb"/>
<path d="M2351 971 c-24 -24 -29 -73 -37 -372 -6 -232 -6 -237 15 -258 23 -23 29 -25 51 -11 12 7 16 40 20 150 l5 141 35 -23 c19 -13 59 -55 88 -93 30 -39 78 -96 108 -128 47 -51 56 -57 74 -47 29 16 25 42 -15 92 -19 24 -62 78 -95 121 -61 77 -61 77 -33 77 15 0 46 9 69 19 56 26 67 57 62 179 -6 156 -27 172 -220 172 -93 0 -111 -3 -127 -19z m257 -74 c16 -13 17 -168 0 -185 -7 -7 -41 -12 -84 -12 -40 0 -84 -4 -98 -10 l-26 -10 0 120 0 119 98 -6 c53 -3 103 -10 110 -16z" fill="#4444bb"/>
</g>
</g>
</svg>
