<?xml version="1.0" encoding="UTF-8" standalone="no"?>
<svg
   xml:lang="en"
   height="176.39999pt"
   width="250.57899pt"
   viewBox="-39.7192 -179.2 250.57898 176.39999"
   version="1.1"
   id="svg33"
   sodipodi:docname="820t.svg"
   inkscape:version="1.4.2 (ebf0e940, 2025-05-08)"
   xmlns:inkscape="http://www.inkscape.org/namespaces/inkscape"
   xmlns:sodipodi="http://sodipodi.sourceforge.net/DTD/sodipodi-0.dtd"
   xmlns="http://www.w3.org/2000/svg"
   xmlns:svg="http://www.w3.org/2000/svg">
  <defs
     id="defs33" />
  <sodipodi:namedview
     id="namedview33"
     pagecolor="#ffffff"
     bordercolor="#000000"
     borderopacity="0.25"
     inkscape:showpageshadow="2"
     inkscape:pageopacity="0.0"
     inkscape:pagecheckerboard="0"
     inkscape:deskcolor="#d1d1d1"
     inkscape:document-units="pt"
     showgrid="false"
     inkscape:zoom="2.4373921"
     inkscape:cx="165.34065"
     inkscape:cy="117.7488"
     inkscape:current-layer="svg33" />
  <path
     d="m 104.5098,-90.81 a 13.5,9 0 0 1 13.43,-4.63"
     style="fill:none;stroke:#000000;stroke-width:1.8"
     id="path1" />
  <path
     d="m 124.88802,-94.621222 -7.26735,1.864304 0.63044,-5.363073 z"
     style="fill:#000000;stroke:#000000;stroke-linecap:butt;stroke-linejoin:miter"
     id="path2" />
  <path
     d="m -6.0402,-3.7 v -18 h -9 v -36 h 18 v 36 h -9 m 0,-36 v -18"
     style="fill:none;stroke:#000000;stroke-width:1.8;stroke-linecap:round;stroke-linejoin:round"
     id="path3" />
  <path
     d="m -6.0402,-75.7 v -43.56 m -9,0 h 18 m -18,-6.48 h 18 m -9,0 v -43.56"
     style="fill:none;stroke:#000000;stroke-width:1.8;stroke-linecap:round;stroke-linejoin:round"
     id="path4" />
  <path
     d="m -6.0402,-169.3 h 72 72"
     style="fill:none;stroke:#000000;stroke-width:1.8;stroke-linecap:round;stroke-linejoin:round"
     id="path5" />
  <path
     d="m 137.9598,-169.3 h 32.76 m 0,-9 v 18 m 6.48,-18 v 18 m 0,-9 h 32.76"
     style="fill:none;stroke:#000000;stroke-width:1.8;stroke-linecap:round;stroke-linejoin:round"
     id="path6" />
  <path
     d="m -6.0402,-3.7 h 61.2 61.2"
     style="fill:none;stroke:#000000;stroke-width:1.8;stroke-linecap:round;stroke-linejoin:round"
     id="path7" />
  <path
     d="m 116.3598,-3.7 v -32.625 m 0,-6.75 V -75.7"
     style="fill:none;stroke:#000000;stroke-width:1.8;stroke-linecap:round;stroke-linejoin:round"
     id="path8" />
  <path
     d="m 129.8598,-43.075 h -27"
     style="fill:none;stroke:#000000;stroke-width:1.8;stroke-linecap:round;stroke-linejoin:round"
     id="path9" />
  <path
     d="m 123.1098,-36.325 h -13.5"
     style="fill:none;stroke:#000000;stroke-width:1.8;stroke-linecap:round;stroke-linejoin:round"
     id="path10" />
  <path
     d="m 116.3598,-75.7 m -3.6,-8.64 -5.4,-16.56 m -5.4,-10.8"
     style="fill:none;stroke:#000000;stroke-width:1.8;stroke-linecap:round;stroke-linejoin:round"
     id="path11" />
  <path
     d="m 101.9598,-107.38 v -30.96 -30.96"
     style="fill:none;stroke:#000000;stroke-width:1.8;stroke-linecap:round;stroke-linejoin:round"
     id="path12" />
  <path
     d="m 130.7598,-107.38 h 39.6 39.6"
     style="fill:none;stroke:#000000;stroke-width:1.8;stroke-linecap:round;stroke-linejoin:round"
     id="path13" />
  <path
     d="m 209.9598,-107.38 v -30.96 -30.96"
     style="fill:none;stroke:#000000;stroke-width:1.8;stroke-linecap:round;stroke-linejoin:round"
     id="path14" />
  <g
     id="g17"
     transform="translate(-6.0402,-3.7)">
    <g
       id="g16">
      <g
         id="g15">
        <path
           d="m -13.8,-40.572 c 0,-1.168 -0.464,-2.012 -1.392,-2.532 -0.928,-0.52 -2.24,-0.78 -3.936,-0.78 h -5.64 l -0.144,0.72 c 0.48,0 0.856,0.032 1.128,0.096 0.272,0.064 0.468,0.164 0.588,0.3 0.12,0.136 0.18,0.316 0.18,0.54 0,0.224 -0.032,0.504 -0.096,0.84 l -2.112,10.296 c -0.096,0.496 -0.2,0.896 -0.312,1.2 -0.112,0.304 -0.26,0.532 -0.444,0.684 -0.184,0.152 -0.416,0.252 -0.696,0.3 -0.28,0.048 -0.644,0.072 -1.092,0.072 l -0.144,0.72 h 6.624 l 0.12,-0.72 c -0.512,0 -0.92,-0.024 -1.224,-0.072 -0.304,-0.048 -0.524,-0.152 -0.66,-0.312 -0.136,-0.16 -0.2,-0.388 -0.192,-0.684 0.008,-0.296 0.06,-0.692 0.156,-1.188 l 0.888,-4.272 h 0.504 c 0.432,0 0.752,0.052 0.96,0.156 0.208,0.104 0.4,0.324 0.576,0.66 0.192,0.368 0.372,0.724 0.54,1.068 0.168,0.344 0.364,0.748 0.588,1.212 0.224,0.464 0.488,1.024 0.792,1.68 0.304,0.656 0.68,1.48 1.128,2.472 h 3.648 l 0.144,-0.72 c -0.56,0 -1,-0.084 -1.32,-0.252 -0.32,-0.168 -0.616,-0.492 -0.888,-0.972 -0.496,-0.928 -0.904,-1.712 -1.224,-2.352 -0.32,-0.64 -0.6,-1.172 -0.84,-1.596 -0.24,-0.424 -0.452,-0.76 -0.636,-1.008 -0.184,-0.248 -0.388,-0.444 -0.612,-0.588 v -0.12 c 0.528,-0.096 1.084,-0.244 1.668,-0.444 0.584,-0.2 1.128,-0.484 1.632,-0.852 0.504,-0.368 0.92,-0.84 1.248,-1.416 0.328,-0.576 0.492,-1.288 0.492,-2.136 z m -8.232,4.32 1.344,-6.624 c 0.272,-0.032 0.496,-0.052 0.672,-0.06 0.176,-0.008 0.424,-0.012 0.744,-0.012 0.592,0 1.088,0.068 1.488,0.204 0.4,0.136 0.72,0.316 0.96,0.54 0.24,0.224 0.408,0.488 0.504,0.792 0.096,0.304 0.144,0.616 0.144,0.936 0,0.768 -0.132,1.416 -0.396,1.944 -0.264,0.528 -0.624,0.96 -1.08,1.296 -0.456,0.336 -0.996,0.58 -1.62,0.732 -0.624,0.152 -1.296,0.244 -2.016,0.276 z"
           fill="#000000"
           id="path15" />
      </g>
    </g>
  </g>
  <g
     id="g20"
     transform="translate(-6.0402,-3.7)">
    <g
       id="g19">
      <g
         id="g18">
        <path
           d="m -21.079,-116.304 -0.432,-0.456 c -1.6,1.456 -3.32,2.184 -5.16,2.184 -1.6,0 -2.776,-0.416 -3.528,-1.248 -0.752,-0.832 -1.128,-2.056 -1.128,-3.672 0,-1.328 0.18,-2.532 0.54,-3.612 0.36,-1.08 0.852,-2.008 1.476,-2.784 0.624,-0.776 1.348,-1.376 2.172,-1.8 0.824,-0.424 1.7,-0.636 2.628,-0.636 1.184,0 2.104,0.348 2.76,1.044 0.656,0.696 0.952,1.844 0.888,3.444 h 0.792 l 1.128,-5.496 h -0.696 c -0.192,0.272 -0.36,0.484 -0.504,0.636 -0.144,0.152 -0.312,0.228 -0.504,0.228 -0.144,0 -0.304,-0.048 -0.48,-0.144 -0.176,-0.096 -0.396,-0.196 -0.66,-0.3 -0.264,-0.104 -0.596,-0.204 -0.996,-0.3 -0.4,-0.096 -0.904,-0.144 -1.512,-0.144 -1.216,0 -2.388,0.228 -3.516,0.684 -1.128,0.456 -2.128,1.128 -3,2.016 -0.872,0.888 -1.568,1.984 -2.088,3.288 -0.52,1.304 -0.78,2.796 -0.78,4.476 0,0.784 0.104,1.532 0.312,2.244 0.208,0.712 0.544,1.34 1.008,1.884 0.464,0.544 1.068,0.972 1.812,1.284 0.744,0.312 1.66,0.468 2.748,0.468 0.752,0 1.448,-0.08 2.088,-0.24 0.64,-0.16 1.236,-0.388 1.788,-0.684 0.552,-0.296 1.064,-0.644 1.536,-1.044 0.472,-0.4 0.908,-0.84 1.308,-1.32 z"
           fill="#000000"
           id="path17" />
        <path
           d="m -18.149,-108.24 h 5.695 v -0.605 c -0.772,0 -1.302,-0.081 -1.587,-0.243 -0.286,-0.163 -0.429,-0.457 -0.429,-0.882 v -9.476 h -0.722 l -3.108,0.857 v 0.672 c 0.224,-0.056 0.49,-0.109 0.798,-0.159 0.308,-0.051 0.552,-0.076 0.731,-0.076 0.235,0 0.397,0.067 0.487,0.202 0.09,0.134 0.134,0.352 0.134,0.655 v 7.325 c 0,0.212 -0.028,0.392 -0.084,0.537 -0.056,0.146 -0.159,0.261 -0.31,0.345 -0.152,0.084 -0.356,0.145 -0.614,0.184 -0.257,0.04 -0.588,0.059 -0.991,0.059 z"
           fill="#000000"
           id="path18" />
      </g>
    </g>
  </g>
  <g
     id="g23"
     transform="translate(-6.0402,-3.7)">
    <g
       id="g22">
      <g
         id="g21">
        <path
           d="m 182.654,-139.944 -0.432,-0.456 c -1.6,1.456 -3.32,2.184 -5.16,2.184 -1.6,0 -2.776,-0.416 -3.528,-1.248 -0.752,-0.832 -1.128,-2.056 -1.128,-3.672 0,-1.328 0.18,-2.532 0.54,-3.612 0.36,-1.08 0.852,-2.008 1.476,-2.784 0.624,-0.776 1.348,-1.376 2.172,-1.8 0.824,-0.424 1.7,-0.636 2.628,-0.636 1.184,0 2.104,0.348 2.76,1.044 0.656,0.696 0.952,1.844 0.888,3.444 h 0.792 l 1.128,-5.496 h -0.696 c -0.192,0.272 -0.36,0.484 -0.504,0.636 -0.144,0.152 -0.312,0.228 -0.504,0.228 -0.144,0 -0.304,-0.048 -0.48,-0.144 -0.176,-0.096 -0.396,-0.196 -0.66,-0.3 -0.264,-0.104 -0.596,-0.204 -0.996,-0.3 -0.4,-0.096 -0.904,-0.144 -1.512,-0.144 -1.216,0 -2.388,0.228 -3.516,0.684 -1.128,0.456 -2.128,1.128 -3,2.016 -0.872,0.888 -1.568,1.984 -2.088,3.288 -0.52,1.304 -0.78,2.796 -0.78,4.476 0,0.784 0.104,1.532 0.312,2.244 0.208,0.712 0.544,1.34 1.008,1.884 0.464,0.544 1.068,0.972 1.812,1.284 0.744,0.312 1.66,0.468 2.748,0.468 0.752,0 1.448,-0.08 2.088,-0.24 0.64,-0.16 1.236,-0.388 1.788,-0.684 0.552,-0.296 1.064,-0.644 1.536,-1.044 0.472,-0.4 0.908,-0.84 1.308,-1.32 z"
           fill="#000000"
           id="path20" />
        <path
           d="m 191.666,-131.88 0.572,-2.923 h -0.588 c -0.112,0.269 -0.213,0.498 -0.303,0.689 -0.089,0.19 -0.19,0.341 -0.302,0.453 -0.112,0.112 -0.247,0.193 -0.403,0.244 -0.157,0.05 -0.353,0.075 -0.588,0.075 h -2.184 l -1.311,0.068 v -0.118 l 2.1,-2.033 c 0.471,-0.459 0.893,-0.885 1.269,-1.277 0.375,-0.392 0.694,-0.772 0.957,-1.142 0.263,-0.37 0.465,-0.739 0.605,-1.109 0.14,-0.369 0.21,-0.761 0.21,-1.176 0,-0.47 -0.084,-0.893 -0.252,-1.268 -0.168,-0.375 -0.403,-0.695 -0.706,-0.958 -0.302,-0.263 -0.663,-0.462 -1.083,-0.596 -0.42,-0.135 -0.882,-0.202 -1.386,-0.202 -0.874,0 -1.602,0.224 -2.184,0.672 -0.583,0.448 -1.014,1.064 -1.294,1.848 l 0.454,0.219 c 0.313,-0.549 0.675,-0.944 1.083,-1.185 0.409,-0.241 0.916,-0.361 1.521,-0.361 0.661,0 1.173,0.19 1.537,0.571 0.364,0.381 0.546,0.874 0.546,1.479 0,0.47 -0.056,0.898 -0.168,1.285 -0.112,0.386 -0.283,0.759 -0.512,1.117 -0.23,0.358 -0.518,0.728 -0.866,1.109 -0.347,0.381 -0.756,0.806 -1.226,1.277 l -2.386,2.419 v 0.823 z"
           fill="#000000"
           id="path21" />
      </g>
    </g>
  </g>
  <g
     id="g26"
     transform="matrix(1.0890313,0,0,1.0890313,-19.351097,-0.49487179)">
    <g
       id="g25">
      <g
         id="g24">
        <path
           d="m 149.604,-43.728 c -0.912,-0.464 -1.968,-0.696 -3.168,-0.696 -1.344,0 -2.436,0.324 -3.276,0.972 -0.84,0.648 -1.26,1.428 -1.26,2.34 0,1.072 0.516,1.924 1.548,2.556 1.032,0.632 2.404,0.964 4.116,0.996 0.032,0 0.06,0.032 0.084,0.096 0.024,0.064 0.052,0.136 0.084,0.216 0.032,0.08 0.064,0.136 0.096,0.168 v 0.048 c -1.776,0.368 -3.168,1.044 -4.176,2.028 -1.008,0.984 -1.512,2.108 -1.512,3.372 0,1.28 0.5,2.276 1.5,2.988 1,0.712 2.228,1.068 3.684,1.068 1.632,0 3.072,-0.432 4.32,-1.296 1.248,-0.864 1.872,-1.84 1.872,-2.928 0,-0.832 -0.272,-1.5 -0.816,-2.004 -0.544,-0.504 -1.344,-0.756 -2.4,-0.756 -1.168,0 -2.188,0.384 -3.06,1.152 -0.872,0.768 -1.468,1.808 -1.788,3.12 l 0.504,0.144 c 0.288,-1.008 0.804,-1.828 1.548,-2.46 0.744,-0.632 1.54,-0.948 2.388,-0.948 0.624,0 1.128,0.16 1.512,0.48 0.384,0.32 0.576,0.752 0.576,1.296 0,0.752 -0.28,1.432 -0.84,2.04 -0.88,0.96 -2.072,1.44 -3.576,1.44 -1.056,0 -1.896,-0.28 -2.52,-0.84 -0.624,-0.56 -0.936,-1.232 -0.936,-2.016 0,-1.056 0.428,-2.064 1.284,-3.024 0.856,-0.96 1.988,-1.624 3.396,-1.992 0.4,0.224 0.824,0.336 1.272,0.336 0.672,0 1.008,-0.224 1.008,-0.672 0,-0.448 -0.6,-0.696 -1.8,-0.744 -0.048,-0.096 -0.08,-0.192 -0.096,-0.288 2.176,-0.16 4.044,-0.692 5.604,-1.596 1.56,-0.904 2.34,-1.852 2.34,-2.844 0,-1.168 -0.8,-1.752 -2.4,-1.752 -1.008,0 -2.044,0.22 -3.108,0.66 -1.064,0.44 -1.996,1.084 -2.796,1.932 -0.8,0.848 -1.248,1.792 -1.344,2.832 -1.296,0 -2.384,-0.244 -3.264,-0.732 -0.88,-0.488 -1.32,-1.156 -1.32,-2.004 0,-0.784 0.352,-1.424 1.056,-1.92 0.704,-0.496 1.632,-0.744 2.784,-0.744 1.056,0 1.936,0.136 2.64,0.408 z m 6.528,1.68 c 0,0.8 -0.688,1.604 -2.064,2.412 -1.376,0.808 -3.008,1.268 -4.896,1.38 0.16,-1.072 0.864,-2.104 2.112,-3.096 1.248,-0.992 2.448,-1.488 3.6,-1.488 0.352,0 0.648,0.072 0.888,0.216 0.24,0.144 0.36,0.336 0.36,0.576 z"
           fill="#000000"
           id="path23" />
      </g>
    </g>
  </g>
  <circle
     cx="116.3598"
     cy="-80.019997"
     r="4.3200002"
     style="fill:#ffffff;stroke:#000000;stroke-width:1.8"
     id="circle26" />
  <circle
     cx="130.7598"
     cy="-107.38"
     r="4.3200002"
     style="fill:#ffffff;stroke:#000000;stroke-width:1.8"
     id="circle27" />
  <circle
     cx="101.9598"
     cy="-107.38"
     r="4.3200002"
     style="fill:#ffffff;stroke:#000000;stroke-width:1.8"
     id="circle28" />
  <g
     id="g30"
     transform="translate(-6.0402,-3.7)">
    <g
       id="g29">
      <g
         id="g28">
        <path
           d="m 90.468,-96.732 h 8.304 v -0.672 c -1.104,0 -1.896,-0.12 -2.376,-0.36 -0.48,-0.24 -0.72,-0.656 -0.72,-1.248 v -13.056 H 94.98 l -4.656,1.32 v 0.792 c 0.192,-0.064 0.404,-0.12 0.636,-0.168 0.232,-0.048 0.46,-0.088 0.684,-0.12 0.224,-0.032 0.44,-0.056 0.648,-0.072 0.208,-0.016 0.368,-0.024 0.48,-0.024 0.304,0 0.512,0.092 0.624,0.276 0.112,0.184 0.168,0.484 0.168,0.9 v 10.152 c 0,0.608 -0.232,1.028 -0.696,1.26 -0.464,0.232 -1.264,0.348 -2.4,0.348 z"
           fill="#000000"
           id="path28" />
      </g>
    </g>
  </g>
  <g
     id="g33"
     transform="translate(-6.0402,-3.7)">
    <g
       id="g32">
      <g
         id="g31">
        <path
           d="m 152.484,-107.472 0.768,-3.84 h -0.696 c -0.144,0.352 -0.276,0.652 -0.396,0.9 -0.12,0.248 -0.256,0.452 -0.408,0.612 -0.152,0.16 -0.332,0.272 -0.54,0.336 -0.208,0.064 -0.472,0.096 -0.792,0.096 h -3.336 l -1.68,0.072 v -0.12 l 3.168,-3 c 0.64,-0.64 1.204,-1.232 1.692,-1.776 0.488,-0.544 0.896,-1.068 1.224,-1.572 0.328,-0.504 0.576,-1 0.744,-1.488 0.168,-0.488 0.252,-0.996 0.252,-1.524 0,-0.624 -0.112,-1.192 -0.336,-1.704 -0.224,-0.512 -0.54,-0.948 -0.948,-1.308 -0.408,-0.36 -0.896,-0.64 -1.464,-0.84 -0.568,-0.2 -1.188,-0.3 -1.86,-0.3 -1.168,0 -2.152,0.32 -2.952,0.96 -0.8,0.64 -1.384,1.544 -1.752,2.712 l 0.576,0.24 c 0.448,-0.896 0.948,-1.512 1.5,-1.848 0.552,-0.336 1.22,-0.504 2.004,-0.504 0.928,0 1.66,0.264 2.196,0.792 0.536,0.528 0.804,1.248 0.804,2.16 0,0.624 -0.076,1.2 -0.228,1.728 -0.152,0.528 -0.376,1.04 -0.672,1.536 -0.296,0.496 -0.668,1.004 -1.116,1.524 -0.448,0.52 -0.968,1.084 -1.56,1.692 l -3.648,3.648 v 0.816 z"
           fill="#000000"
           id="path30" />
      </g>
    </g>
  </g>
  <circle
     cx="101.9598"
     cy="-169.3"
     r="2.7"
     style="fill:#000000;stroke:#000000;stroke-width:1.8"
     id="circle33" />
</svg>
