<svg xmlns="http://www.w3.org/2000/svg" version="1.0" width="1292.639124pt" height="1473.464107pt" viewBox="0 0 1292.639124 1473.464107" preserveAspectRatio="xMidYMid meet">
<metadata>
Created by potrace 1.16, written by Peter Selinger 2001-2019
</metadata>
<g transform="translate(-3.768962,1490.850116) scale(0.100000,-0.100000)" fill="#000000" stroke="none">
<path d="M10114 14668 c-4 -134 -7 -346 -5 -473 l2 -230 -29 28 c-28 27 -62 29 -62 3 0 -19 98 -106 119 -106 13 0 29 16 46 49 15 27 40 58 56 70 16 12 29 26 29 31 0 22 -42 8 -78 -25 l-39 -35 -6 113 c-9 157 -8 330 2 407 5 36 11 142 13 235 3 167 3 170 -18 173 -21 3 -21 0 -30 -240z"/>
<path d="M1358 14879 c-20 -11 -24 -34 -8 -44 5 -3 20 1 32 9 29 21 41 20 69 -3 22 -18 22 -19 6 -44 -9 -14 -44 -46 -77 -72 -59 -46 -72 -67 -48 -81 13 -8 189 -7 197 1 12 12 -17 20 -85 25 l-74 5 54 42 c68 52 90 85 82 118 -11 44 -102 71 -148 44z"/>
<path d="M504 14862 c-6 -4 -21 -26 -33 -49 l-21 -43 -76 0 c-66 0 -75 -2 -72 -17 3 -15 13 -17 66 -15 40 3 62 0 62 -7 0 -6 -17 -11 -37 -11 -44 0 -69 -13 -59 -29 5 -7 20 -9 43 -5 33 6 34 5 24 -14 -15 -28 -14 -52 2 -52 18 0 47 32 47 51 0 11 9 14 36 11 l35 -4 -22 -24 c-12 -13 -29 -24 -36 -24 -8 0 -11 -4 -8 -10 12 -20 44 -9 76 25 24 25 45 36 76 41 49 7 58 24 13 24 -28 0 -30 2 -20 20 6 11 21 20 35 20 32 0 56 10 49 21 -3 5 -17 9 -32 9 -20 0 -23 3 -14 12 17 17 15 48 -3 48 -8 0 -21 -13 -30 -30 -14 -27 -21 -30 -60 -30 -25 0 -45 3 -45 6 0 3 9 19 21 35 25 36 15 62 -17 41z m54 -132 c-10 -15 -24 -20 -56 -20 -40 0 -42 1 -32 20 8 15 21 20 55 20 43 0 44 -1 33 -20z"/>
<path d="M819 14847 c-43 -29 -44 -57 -3 -77 l30 -16 -28 -27 c-71 -71 9 -117 112 -64 60 30 72 53 42 77 -12 10 -28 20 -35 23 -9 3 -7 10 6 24 23 26 22 49 -5 67 -32 23 -80 20 -119 -7z m90 -20 c18 -22 -21 -51 -53 -41 -33 11 -35 26 -5 41 31 16 44 16 58 0z m26 -101 c18 -13 17 -14 -7 -30 -29 -19 -98 -33 -98 -20 0 15 54 64 70 64 9 0 25 -6 35 -14z"/>
<path d="M1085 14861 c-18 -4 -31 -14 -33 -24 -3 -17 1 -18 45 -11 53 8 82 8 91 0 9 -9 -28 -45 -95 -93 -67 -48 -81 -78 -40 -88 39 -10 150 -1 155 13 3 9 -15 12 -69 12 l-72 0 64 49 c35 26 72 58 82 69 49 55 -23 96 -128 73z"/>
<path d="M4038 14793 c-9 -2 -22 -21 -29 -41 -6 -20 -27 -64 -45 -98 -40 -71 -40 -74 -15 -74 11 0 29 17 46 43 l26 42 -5 -155 c-3 -85 -11 -240 -17 -345 -6 -108 -9 -277 -5 -390 3 -110 9 -339 12 -509 l7 -308 -59 3 c-54 4 -59 2 -59 -16 0 -18 6 -20 56 -18 l56 3 9 -483 c5 -265 8 -559 7 -653 -2 -167 -2 -172 17 -167 11 3 20 11 20 18 0 8 60 15 218 25 166 9 417 11 1062 5 1550 -13 2293 -10 2928 11 178 6 204 5 215 -9 6 -8 21 -17 32 -19 12 -2 171 -206 436 -558 353 -472 413 -557 400 -566 -13 -10 -11 -15 17 -39 18 -15 49 -38 69 -52 32 -21 38 -23 51 -10 13 13 12 21 -2 63 -10 27 -27 69 -39 94 -25 51 -54 61 -49 18 1 -16 -1 -28 -6 -28 -6 0 -191 242 -413 538 l-403 537 110 8 c60 4 136 6 169 5 58 -3 60 -4 65 -33 3 -19 12 -31 24 -33 16 -4 18 0 12 32 -9 48 15 49 33 1 8 -23 19 -35 31 -35 17 0 18 4 10 26 -6 14 -10 30 -10 35 0 12 147 12 152 0 2 -6 51 -5 125 1 154 13 169 10 177 -41 3 -21 13 -44 22 -52 14 -12 15 -6 12 59 l-3 72 60 1 c180 2 235 2 396 -1 98 -1 182 1 188 4 23 15 10 -14 -15 -31 -46 -32 -94 -75 -94 -84 0 -19 31 -7 92 34 57 39 63 47 63 78 0 31 -5 37 -50 61 -108 59 -137 69 -151 47 -9 -14 31 -46 69 -54 88 -20 -16 -25 -507 -23 l-534 1 2 31 c1 42 -26 41 -39 -1 -12 -44 -39 -45 -30 -2 6 28 5 30 -17 27 -17 -2 -24 -10 -26 -30 l-3 -28 -193 0 -193 0 -110 123 c-153 170 -418 445 -543 563 -551 519 -1081 827 -1660 968 -420 101 -795 97 -1238 -14 -86 -22 -189 -51 -229 -64 l-71 -24 -11 24 c-6 14 -31 46 -56 73 l-44 47 77 76 c42 42 138 128 212 192 l135 115 5 -32 c8 -52 33 -41 42 18 7 49 -2 75 -26 75 -20 0 -127 -47 -127 -56 0 -5 9 -11 21 -14 19 -4 12 -13 -47 -64 -138 -118 -318 -282 -348 -315 -16 -18 -113 -109 -215 -201 -102 -92 -196 -179 -209 -194 -14 -14 -28 -26 -31 -26 -9 0 -25 627 -24 904 2 194 9 365 31 686 l6 95 19 -63 c17 -57 39 -84 54 -69 6 6 -38 179 -57 225 -9 22 -11 23 -41 15z m22 -93 c0 -5 -4 -10 -10 -10 -5 0 -10 5 -10 10 0 6 5 10 10 10 6 0 10 -4 10 -10z m1893 -1304 c619 -97 1147 -359 1723 -853 137 -117 494 -474 679 -678 l126 -140 -153 -7 c-449 -22 -771 -24 -3228 -16 l-1036 3 -1 120 c0 66 -4 342 -8 613 l-7 492 50 0 c28 0 57 3 66 6 28 11 17 23 -21 26 -38 3 -38 3 50 56 49 29 125 71 170 94 82 41 298 131 303 126 9 -10 44 -133 44 -156 0 -16 -9 -50 -21 -76 -11 -25 -17 -51 -14 -56 3 -6 -1 -10 -10 -10 -9 0 -15 -6 -13 -12 3 -8 25 -14 53 -16 56 -4 82 12 36 21 -35 7 -38 19 -15 73 20 49 14 133 -14 197 l-20 46 61 20 c90 29 239 71 253 71 7 0 10 -8 7 -20 -6 -24 4 -70 16 -70 13 0 23 82 11 90 -17 10 188 50 357 70 110 12 439 4 556 -14z m-1334 -81 l30 -42 -97 -38 c-104 -41 -290 -131 -355 -172 -21 -13 -41 -22 -43 -20 -3 3 81 84 186 181 l192 175 28 -21 c16 -11 42 -40 59 -63z"/>
<path d="M5017 13163 c-14 -13 -7 -100 8 -113 13 -11 15 -6 15 31 0 24 3 54 6 67 5 15 2 22 -8 22 -8 0 -18 -3 -21 -7z"/>
<path d="M4441 12956 c4 -91 20 -127 42 -94 10 15 13 13 22 -15 15 -47 31 -34 27 23 -3 41 -1 50 12 50 9 0 16 5 16 10 0 6 -7 10 -15 10 -11 0 -15 12 -15 50 0 43 -3 50 -20 50 -17 0 -20 -7 -20 -51 0 -33 -4 -48 -11 -44 -5 4 -9 25 -7 48 2 34 0 42 -16 45 -17 4 -18 -3 -15 -82z m46 -68 c-3 -7 -5 -2 -5 12 0 14 2 19 5 13 2 -7 2 -19 0 -25z"/>
<path d="M5017 12993 c-11 -10 -8 -53 3 -53 13 0 32 38 25 50 -7 12 -19 13 -28 3z"/>
<path d="M4243 12938 c2 -7 11 -13 20 -12 10 0 33 1 53 2 54 3 30 22 -27 22 -36 0 -49 -4 -46 -12z"/>
<path d="M4906 12931 c-3 -5 17 -11 45 -13 49 -3 66 2 52 16 -10 9 -91 7 -97 -3z"/>
<path d="M4314 12669 c-4 -7 7 -22 26 -37 20 -16 48 -58 76 -118 66 -139 103 -137 149 8 36 112 42 158 22 158 -11 0 -20 -15 -27 -42 -21 -85 -57 -173 -70 -173 -7 0 -27 33 -44 73 -48 113 -107 171 -132 131z"/>
<path d="M4757 12403 c-12 -12 -7 -29 17 -66 l24 -35 -29 -43 c-16 -24 -29 -47 -29 -51 0 -20 31 -4 58 28 26 31 33 34 50 25 26 -14 62 -14 62 -1 0 5 -13 16 -30 25 -35 18 -35 17 -14 56 8 17 13 37 10 45 -9 23 -36 16 -46 -12 -12 -30 -30 -23 -30 12 0 17 -6 24 -18 24 -10 0 -22 -3 -25 -7z"/>
<path d="M4640 12375 c-7 -8 -19 -15 -26 -15 -19 0 -28 -45 -18 -82 5 -17 21 -40 35 -51 22 -16 30 -17 49 -7 43 23 66 123 34 154 -20 20 -58 21 -74 1z m50 -54 c0 -16 -9 -39 -19 -52 l-19 -24 -11 28 c-11 29 -9 39 17 69 19 23 32 14 32 -21z"/>
<path d="M3537 14764 c-4 -4 -7 -37 -7 -73 0 -129 56 -177 125 -108 l33 33 6 -30 c21 -126 23 -119 -33 -160 -52 -37 -91 -87 -91 -117 0 -9 9 -28 21 -43 29 -37 78 -36 121 3 30 27 33 34 36 104 4 71 6 78 38 107 51 46 46 67 -7 29 -28 -19 -29 -20 -36 -2 -4 10 -8 71 -8 136 0 112 -1 118 -20 115 -14 -2 -21 -13 -26 -40 -7 -43 -50 -112 -79 -128 -17 -9 -22 -7 -31 17 -6 15 -9 57 -7 93 2 52 0 65 -12 68 -9 1 -19 0 -23 -4z m179 -402 c-9 -70 -61 -113 -94 -80 -7 7 -12 21 -12 32 0 24 87 109 102 100 6 -4 8 -24 4 -52z"/>
<path d="M10622 14633 c2 -12 16 -20 43 -24 23 -4 -12 -7 -80 -6 -105 0 -120 -2 -123 -16 -3 -15 10 -17 128 -17 107 0 132 3 136 15 4 8 12 15 19 15 9 0 0 -20 -21 -52 -47 -70 -30 -88 26 -27 38 42 59 84 47 96 -6 5 -142 33 -165 33 -8 0 -12 -8 -10 -17z"/>
<path d="M5230 14605 c0 -9 8 -19 18 -23 9 -4 -44 -9 -118 -12 -118 -4 -135 -7 -138 -22 -3 -17 8 -17 163 -11 167 6 167 6 156 -15 -6 -11 -11 -28 -11 -36 0 -24 28 -19 41 7 6 12 21 29 32 38 12 10 18 23 14 32 -16 41 -157 78 -157 42z"/>
<path d="M120 14561 c-14 -4 -25 -13 -25 -19 0 -10 73 -15 320 -20 532 -12 1725 -4 1725 10 0 25 -41 26 -825 13 -424 -7 -1036 4 -1143 20 -15 2 -38 0 -52 -4z"/>
<path d="M2130 14473 c0 -5 9 -102 20 -218 32 -340 46 -901 31 -1290 -6 -181 -11 -459 -11 -617 0 -311 -11 -433 -56 -638 -79 -350 -149 -502 -254 -544 -74 -29 -224 -40 -545 -40 -267 1 -356 5 -640 32 -346 32 -633 45 -637 27 -2 -6 63 -12 172 -17 96 -3 297 -18 445 -32 416 -40 611 -48 878 -36 253 11 326 23 388 64 75 50 133 173 195 415 72 280 75 310 84 816 5 253 12 602 15 775 8 342 -5 804 -30 1092 -18 203 -21 218 -40 218 -8 0 -15 -3 -15 -7z"/>
<path d="M10559 14441 c-68 -68 -43 -137 48 -129 38 3 38 3 45 -42 3 -25 7 -93 7 -151 1 -117 -6 -133 -65 -145 -37 -7 -62 12 -70 53 -6 29 -1 38 55 96 57 59 73 87 52 87 -21 0 -140 -122 -146 -150 -9 -40 22 -102 56 -114 36 -12 94 1 126 29 28 23 28 25 28 142 0 65 -1 147 -3 183 -2 36 -1 81 3 101 6 31 3 39 -20 58 -41 31 -72 27 -116 -18z m85 -10 c11 -17 -7 -72 -26 -82 -25 -13 -58 -2 -58 20 0 42 66 91 84 62z"/>
<path d="M5232 14418 c-5 -7 -28 -56 -50 -109 -22 -53 -47 -109 -55 -125 l-15 -29 -12 30 c-7 17 -19 68 -28 114 -16 80 -32 105 -53 84 -7 -7 -2 -42 14 -104 27 -107 44 -147 69 -163 28 -17 51 16 104 148 26 66 56 128 66 138 10 10 18 20 18 23 0 11 -48 4 -58 -7z"/>
<path d="M385 14294 c-18 -101 -20 -107 -47 -116 -16 -6 -28 -17 -28 -27 0 -26 11 -33 28 -18 16 13 17 17 -4 -84 -6 -27 -4 -31 12 -27 14 2 23 18 32 60 l14 57 66 6 c37 4 75 9 85 12 19 5 19 -3 -9 -97 -20 -66 -18 -100 5 -100 13 0 19 6 18 18 -1 23 44 192 52 192 3 0 6 20 7 44 0 25 8 56 17 70 23 34 21 56 -4 56 -23 0 -44 -43 -55 -109 -4 -23 -9 -41 -13 -42 -73 -8 -161 -13 -161 -9 0 3 11 50 24 105 14 55 22 103 20 107 -3 5 -13 8 -23 8 -15 0 -21 -17 -36 -106z"/>
<path d="M1699 14353 c-19 -5 -39 -44 -39 -78 0 -24 41 -65 66 -65 19 0 18 -7 -10 -55 -26 -43 -90 -95 -118 -95 -33 0 -48 29 -48 93 0 92 -20 146 -52 147 -14 0 -48 -39 -48 -55 0 -22 40 -19 41 3 2 46 18 -28 18 -86 1 -66 19 -115 46 -126 63 -24 152 26 196 109 25 47 37 52 71 34 11 -6 22 -8 25 -5 9 8 -18 37 -43 46 -16 7 -22 19 -26 55 -6 45 -31 86 -52 84 -6 -1 -18 -3 -27 -6z m45 -71 c5 -18 6 -35 3 -38 -12 -12 -47 18 -47 40 0 48 30 46 44 -2z"/>
<path d="M1062 14293 c-5 -10 -12 -36 -16 -58 -4 -22 -14 -66 -23 -98 l-16 -58 -44 7 c-53 8 -73 -6 -73 -51 0 -65 63 -86 109 -36 25 27 29 28 58 16 41 -17 95 -23 100 -10 2 6 -23 20 -54 31 -37 13 -57 26 -56 35 10 57 50 187 60 198 11 10 11 16 2 27 -16 19 -36 18 -47 -3z m-82 -258 c0 -16 -34 -38 -44 -28 -3 3 -6 15 -6 25 0 13 7 18 25 18 15 0 25 -6 25 -15z"/>
<path d="M5302 14186 c-50 -14 -62 -28 -62 -76 0 -54 47 -100 104 -100 46 0 116 81 116 135 0 8 -9 24 -20 35 -23 23 -68 25 -138 6z m114 -31 c13 -32 -44 -115 -78 -115 -17 0 -58 49 -58 69 0 41 123 82 136 46z"/>
<path d="M1842 14043 c-7 -3 -21 -22 -32 -42 l-19 -38 29 -31 c18 -20 38 -32 55 -32 34 0 82 25 95 49 25 48 2 81 -59 81 -16 0 -33 5 -36 10 -7 11 -13 11 -33 3z m87 -52 c12 -8 13 -12 1 -26 -23 -28 -50 -38 -66 -24 -20 17 -17 34 9 47 28 13 38 14 56 3z"/>
<path d="M1317 14013 c-13 -21 -26 -128 -17 -137 6 -6 13 -6 18 0 14 16 43 124 37 134 -7 12 -32 13 -38 3z"/>
<path d="M687 14004 c-4 -4 -7 -17 -7 -28 0 -28 -65 -154 -96 -187 -27 -28 -30 -39 -11 -39 38 0 162 185 155 232 -3 23 -27 35 -41 22z"/>
<path d="M4337 13774 c-4 -4 -7 -27 -7 -51 0 -24 -5 -64 -11 -89 -11 -43 -13 -44 -51 -44 -49 0 -82 -31 -98 -91 -13 -47 -2 -89 24 -89 22 0 79 53 101 94 11 20 23 36 28 36 5 0 23 -11 40 -24 36 -27 94 -41 132 -32 42 11 28 26 -23 26 -39 0 -58 7 -94 33 l-45 32 14 40 c26 76 19 188 -10 159z m-47 -217 c0 -16 -48 -85 -73 -106 -30 -24 -22 51 9 88 26 32 64 42 64 18z"/>
<path d="M255 13671 c-22 -36 1 -38 905 -56 410 -8 762 -17 782 -19 21 -2 41 0 44 5 12 21 -58 29 -239 29 -357 0 -1437 33 -1468 45 -10 3 -20 2 -24 -4z"/>
<path d="M4997 13673 c-11 -11 -8 -91 4 -98 14 -9 15 -7 23 53 5 41 4 52 -7 52 -8 0 -17 -3 -20 -7z"/>
<path d="M5010 13460 c0 -29 4 -40 15 -40 11 0 15 11 15 40 0 29 -4 40 -15 40 -11 0 -15 -11 -15 -40z"/>
<path d="M1390 13467 c-42 -15 -70 -58 -54 -84 18 -29 39 -22 39 12 0 26 5 31 38 42 44 15 110 -1 115 -29 2 -9 -20 -45 -48 -80 -43 -53 -50 -69 -48 -98 2 -24 9 -36 21 -38 13 -3 17 4 17 31 0 27 10 46 43 83 65 72 69 85 47 122 -29 47 -100 63 -170 39z"/>
<path d="M713 13388 c-6 -7 -25 -66 -43 -130 l-32 -118 -39 0 c-48 0 -54 -25 -8 -35 31 -7 31 -7 24 -54 -13 -80 -12 -86 16 -89 30 -3 69 36 69 69 0 27 -15 24 -35 -7 -22 -35 -26 -28 -13 29 9 46 10 47 48 47 21 0 45 3 54 6 28 11 6 24 -39 24 l-43 0 35 113 c19 61 36 121 36 131 2 23 -16 31 -30 14z"/>
<path d="M1138 13163 c-51 -4 -83 -28 -53 -39 18 -7 142 23 151 37 5 9 -5 9 -98 2z"/>
<path d="M3305 13141 c-3 -5 -13 -62 -22 -125 -10 -75 -21 -116 -28 -116 -7 0 -18 -7 -25 -16 -11 -13 -10 -16 9 -21 18 -4 21 -11 17 -29 -4 -13 -9 -51 -13 -84 -5 -50 -3 -60 10 -60 11 0 18 21 28 85 7 47 17 89 23 94 16 12 106 35 112 28 3 -3 1 -40 -5 -82 -15 -105 -14 -158 2 -153 11 4 17 35 41 200 6 38 11 47 31 52 32 8 32 26 1 26 -23 0 -23 1 -14 46 7 32 7 49 -1 57 -18 18 -34 -7 -41 -60 l-5 -48 -59 -13 c-32 -7 -60 -11 -61 -10 -2 2 6 50 16 108 10 58 17 111 14 118 -5 14 -21 16 -30 3z"/>
<path d="M818 13048 c-10 -7 -21 -33 -24 -60 -6 -45 -5 -48 20 -57 36 -14 71 1 91 38 19 37 19 55 2 70 -23 18 -71 23 -89 9z m62 -40 c0 -19 -21 -48 -35 -48 -18 0 -19 23 -3 49 11 19 38 18 38 -1z"/>
<path d="M1454 13029 c-10 -17 13 -36 27 -22 12 12 4 33 -11 33 -5 0 -12 -5 -16 -11z"/>
<path d="M1405 12715 c-47 -17 -77 -50 -73 -79 4 -28 32 -27 36 2 4 27 49 52 96 54 69 2 72 -20 12 -105 -50 -72 -66 -113 -66 -173 0 -38 13 -64 26 -51 3 2 9 33 15 67 11 72 18 85 71 156 49 65 51 107 8 129 -36 18 -73 19 -125 0z"/>
<path d="M642 12479 c-48 -24 -67 -51 -54 -75 5 -9 40 -32 78 -53 56 -31 69 -42 69 -62 0 -18 -10 -29 -45 -46 -24 -13 -58 -23 -75 -22 -29 0 -29 1 -7 11 24 12 30 28 8 28 -22 0 -80 -22 -95 -35 -11 -11 -9 -16 12 -29 21 -14 34 -15 92 -6 74 12 139 40 149 65 20 53 -5 86 -102 134 -24 12 -42 27 -40 34 6 19 75 49 96 43 14 -5 18 -13 14 -31 -3 -17 0 -25 10 -25 38 0 52 62 19 80 -31 16 -82 12 -129 -11z"/>
<path d="M1020 12398 c0 -9 6 -18 13 -21 20 -7 164 -3 173 6 14 14 -4 18 -95 24 -78 5 -91 4 -91 -9z"/>
<path d="M9123 12323 c-17 -38 -41 -98 -54 -135 -13 -38 -27 -68 -31 -68 -12 0 -44 70 -68 148 -17 55 -26 72 -40 72 -23 0 -35 -17 -23 -33 5 -7 22 -46 37 -88 32 -89 78 -152 110 -147 17 2 26 20 48 88 42 130 59 171 80 192 21 21 16 38 -11 38 -13 0 -27 -21 -48 -67z"/>
<path d="M1392 12228 c-15 -15 -15 -45 0 -54 13 -8 48 30 48 52 0 17 -32 18 -48 2z"/>
<path d="M9492 12218 c-7 -7 -12 -17 -12 -23 0 -6 -6 -20 -14 -31 -14 -18 -15 -18 -25 9 -12 30 -23 34 -40 13 -9 -11 -6 -21 16 -46 l27 -33 -21 -38 c-13 -23 -17 -41 -12 -45 13 -7 46 22 54 47 6 17 8 18 31 3 13 -9 32 -13 41 -10 15 6 13 11 -15 32 l-33 26 26 45 c14 25 25 49 25 54 0 13 -34 11 -48 -3z"/>
<path d="M9178 12125 c-2 -42 -1 -80 0 -85 7 -19 33 -10 44 15 9 20 16 24 32 19 39 -13 91 -24 114 -24 40 0 19 23 -32 36 -66 17 -72 26 -36 52 33 25 41 62 12 62 -9 0 -34 -14 -55 -31 l-37 -30 0 30 c0 24 -4 31 -19 31 -17 0 -20 -9 -23 -75z"/>
<path d="M1375 11876 c-49 -22 -71 -55 -66 -103 2 -25 29 -12 34 17 8 35 42 60 97 67 38 5 40 4 40 -20 0 -14 -11 -47 -24 -74 -30 -61 -50 -153 -36 -167 13 -13 12 -13 42 69 14 39 36 93 48 122 22 49 23 53 6 77 -14 22 -24 26 -64 26 -26 -1 -60 -7 -77 -14z"/>
<path d="M500 11827 c0 -2 9 -39 20 -82 11 -43 20 -99 20 -125 0 -154 27 -179 84 -76 54 96 124 184 149 188 29 4 29 32 0 36 -28 4 -98 -66 -150 -151 l-38 -61 -7 73 c-3 40 -12 102 -18 137 -11 57 -15 64 -36 64 -13 0 -24 -2 -24 -3z"/>
<path d="M10432 11575 c-15 -24 -29 -45 -32 -45 -3 0 -16 18 -30 40 -24 38 -52 51 -65 30 -4 -6 10 -29 29 -52 20 -23 36 -47 36 -54 0 -7 -19 -37 -43 -66 -78 -96 -89 -118 -64 -118 8 0 41 33 74 74 l60 75 29 -31 c45 -47 114 -71 114 -38 0 4 -11 11 -24 14 -13 3 -40 24 -60 46 l-36 40 40 55 c23 31 38 60 35 65 -13 21 -37 8 -63 -35z"/>
<path d="M742 11563 c-21 -53 -36 -183 -23 -196 8 -8 16 -9 29 -1 13 9 21 8 30 -2 27 -29 148 -11 160 24 3 10 -5 12 -34 6 -44 -9 -82 -9 -91 0 -4 3 8 24 25 45 18 22 32 47 32 55 0 26 -37 18 -74 -15 l-35 -30 6 38 c3 21 10 46 15 56 6 12 5 23 -3 33 -17 20 -25 18 -37 -13z"/>
<path d="M1005 11560 c-19 -30 64 -49 133 -31 54 15 54 31 0 28 -24 -1 -62 2 -84 6 -29 6 -44 5 -49 -3z"/>
<path d="M1393 11424 c-8 -22 9 -48 36 -52 29 -5 37 21 14 47 -21 25 -41 27 -50 5z"/>
<path d="M9497 11404 c-10 -11 -8 -117 3 -134 14 -22 18 -11 21 64 4 64 -5 89 -24 70z"/>
<path d="M9492 11083 c2 -42 8 -68 16 -71 9 -3 12 15 12 67 0 57 -3 71 -15 71 -13 0 -15 -12 -13 -67z"/>
<path d="M9500 10884 c0 -59 24 -55 28 4 2 33 0 42 -12 42 -12 0 -16 -11 -16 -46z"/>
<path d="M8632 10904 c-8 -14 -27 -16 -135 -13 -93 3 -128 1 -131 -8 -9 -23 19 -28 140 -25 108 2 123 0 130 -15 4 -10 8 -22 8 -27 2 -21 24 -14 64 20 23 19 42 40 42 45 0 12 -62 39 -89 39 -11 0 -24 -7 -29 -16z"/>
<path d="M8424 10777 c-2 -7 27 -77 66 -155 61 -122 74 -142 94 -142 19 0 30 13 61 77 20 43 50 98 66 122 21 30 27 47 20 54 -15 15 -60 -38 -106 -126 -22 -42 -42 -77 -45 -77 -6 0 -90 180 -109 233 -11 28 -38 37 -47 14z"/>
<path d="M9496 10723 c-19 -66 -17 -133 3 -133 5 0 11 24 14 53 4 28 9 62 13 75 5 16 2 22 -9 22 -9 0 -18 -8 -21 -17z"/>
<path d="M2921 10670 c-41 -10 -53 -26 -45 -65 16 -76 47 -89 42 -17 l-3 47 42 3 c32 2 47 -2 62 -17 35 -35 27 -65 -38 -135 -33 -35 -66 -77 -75 -94 -24 -47 -21 -106 8 -139 28 -32 45 -25 28 12 -30 65 -13 110 72 203 74 80 84 117 46 165 -17 22 -79 50 -100 46 -3 -1 -20 -5 -39 -9z"/>
<path d="M4015 10673 c-69 -9 -244 -57 -300 -82 -33 -15 -72 -31 -87 -34 -42 -11 -114 -92 -155 -173 -31 -64 -37 -88 -41 -157 -5 -104 19 -174 86 -248 91 -102 208 -134 450 -126 209 7 345 40 517 126 151 76 212 122 244 184 36 72 39 137 7 221 -15 39 -38 84 -51 102 -51 66 -236 155 -375 180 -70 12 -225 16 -295 7z m340 -48 c99 -26 240 -101 283 -150 49 -56 87 -160 78 -216 -9 -56 -39 -111 -77 -143 -114 -96 -330 -188 -518 -220 -92 -16 -358 -22 -296 -7 80 20 96 52 86 174 l-7 77 33 11 c51 16 54 33 5 25 -41 -6 -41 -6 -49 31 -4 21 -7 73 -6 116 1 75 0 78 -20 75 -19 -3 -23 -11 -27 -55 -5 -52 -38 -103 -66 -103 -27 0 -49 159 -24 175 15 10 12 45 -5 51 -8 4 -22 0 -31 -7 -25 -21 -16 -188 12 -226 27 -36 59 -40 95 -14 16 12 29 18 29 13 0 -5 3 -23 6 -40 6 -28 3 -31 -49 -55 -64 -29 -87 -63 -87 -129 0 -43 17 -79 49 -107 28 -24 -57 -4 -127 30 -44 22 -74 45 -101 80 -59 73 -74 123 -69 218 13 219 163 339 513 407 88 17 286 11 370 -11z m-479 -651 c-14 -54 -72 -72 -98 -31 -43 65 -25 131 43 165 l44 22 8 -66 c5 -37 6 -77 3 -90z"/>
<path d="M4497 10362 c-18 -19 -23 -42 -9 -42 4 0 16 7 26 15 46 35 106 5 106 -52 0 -28 -8 -44 -39 -74 -46 -47 -70 -49 -113 -10 -32 28 -32 30 -19 66 9 26 10 40 2 48 -28 28 -64 -62 -42 -109 14 -33 68 -64 110 -64 93 0 173 122 131 200 -21 39 -125 54 -153 22z"/>
<path d="M4032 10292 c3 -14 20 -17 112 -20 65 -2 113 1 119 7 6 6 9 12 6 14 -2 3 -57 7 -122 10 -107 5 -118 4 -115 -11z"/>
<path d="M4043 10208 c-11 -19 13 -28 76 -28 80 0 133 9 129 22 -4 11 -198 16 -205 6z"/>
<path d="M1250 10560 c0 -6 16 -24 35 -41 78 -69 127 -238 105 -362 -16 -87 -55 -166 -108 -219 -53 -55 -36 -68 23 -17 156 137 167 453 22 612 -32 34 -77 50 -77 27z"/>
<path d="M8737 10553 c-3 -4 -6 -53 -8 -108 -4 -97 -3 -100 19 -103 18 -3 22 1 22 23 0 25 0 25 31 10 33 -17 126 -17 122 0 -1 6 -19 12 -40 16 -47 6 -83 25 -83 44 0 7 12 23 26 34 17 13 24 26 20 37 -5 14 -10 14 -40 -4 l-33 -20 1 36 c1 26 -4 37 -16 40 -9 2 -18 -1 -21 -5z"/>
<path d="M2083 10508 c-6 -7 -20 -55 -33 -105 l-24 -93 -72 0 c-66 0 -97 -11 -80 -27 3 -3 35 -5 71 -4 36 1 65 -2 65 -6 0 -4 -7 -41 -17 -81 -15 -67 -15 -74 -1 -89 14 -13 23 -14 62 -4 49 12 116 48 116 62 0 12 0 12 -75 -12 -36 -12 -68 -20 -71 -17 -8 8 28 142 40 150 6 4 21 8 34 8 12 0 22 5 22 10 0 6 -11 10 -25 10 -14 0 -25 3 -25 6 0 15 34 122 47 147 11 22 12 32 2 43 -14 17 -24 18 -36 2z"/>
<path d="M1132 10294 c-28 -25 -52 -52 -52 -60 0 -22 40 -17 61 9 20 22 20 22 13 -13 -4 -19 -9 -57 -13 -85 -6 -50 -6 -50 -46 -55 -27 -3 -40 -10 -40 -20 0 -13 18 -14 115 -12 106 3 150 12 150 30 0 4 -34 6 -75 4 -58 -3 -75 -1 -75 9 0 8 11 61 24 119 32 141 25 150 -62 74z"/>
<path d="M2528 10283 c-37 -4 -52 -25 -25 -36 20 -8 196 17 199 28 3 10 -107 15 -174 8z"/>
<path d="M2206 10179 c-20 -16 -26 -29 -26 -59 0 -82 42 -140 100 -140 62 0 110 53 110 123 0 75 -121 125 -184 76z m127 -36 c25 -23 22 -75 -8 -107 -31 -33 -60 -33 -82 0 -17 26 -21 103 -7 126 9 13 74 0 97 -19z"/>
<path d="M2952 10043 c2 -10 12 -18 23 -18 11 0 21 8 23 18 3 13 -3 17 -23 17 -20 0 -26 -4 -23 -17z"/>
<path d="M7305 9779 c-4 -6 -5 -11 -4 -13 2 -1 21 -13 42 -25 20 -12 37 -25 37 -28 0 -3 -16 -23 -36 -45 -49 -55 -44 -76 28 -111 31 -15 72 -30 90 -34 29 -6 31 -4 20 9 -7 8 -39 27 -72 42 -33 15 -60 32 -60 39 0 6 16 28 36 48 44 45 41 73 -12 107 -39 24 -59 28 -69 11z"/>
<path d="M7117 9658 c-13 -18 -37 -57 -52 -85 -27 -50 -30 -53 -67 -53 -45 0 -49 -23 -5 -28 26 -3 26 -3 11 -44 -18 -53 -18 -97 1 -104 28 -11 83 6 114 35 34 32 38 31 39 -17 1 -43 17 -62 52 -62 33 0 48 16 56 58 5 25 1 36 -19 56 -27 27 -80 36 -92 16 -4 -6 -11 -8 -16 -4 -6 3 -20 -3 -32 -14 -12 -11 -34 -25 -49 -31 -26 -10 -28 -9 -28 15 0 13 7 40 14 59 14 32 19 35 55 35 48 0 54 15 11 25 l-30 7 20 38 c11 22 34 55 51 74 30 35 32 56 4 56 -8 0 -25 -15 -38 -32z m109 -302 c-3 -14 -11 -26 -17 -26 -15 0 -22 27 -14 57 6 24 8 25 22 10 10 -10 13 -24 9 -41z"/>
<path d="M5739 9598 c-1 -2 -2 -19 -3 -38 -2 -19 -6 -61 -10 -94 l-8 -58 -54 7 c-44 5 -54 4 -54 -9 0 -15 10 -19 68 -31 25 -5 31 -11 28 -23 -9 -27 -26 -123 -26 -143 0 -27 44 -35 75 -15 14 9 25 25 25 36 0 24 -8 25 -32 3 -28 -25 -31 -11 -17 66 l12 71 48 6 c57 8 55 24 -2 24 -34 0 -39 3 -35 18 13 42 28 154 22 167 -4 12 -33 22 -37 13z"/>
<path d="M6725 9542 c-44 -28 -66 -56 -68 -88 -2 -28 -1 -29 46 -27 26 1 54 7 62 13 12 10 15 9 15 -8 0 -13 -18 -34 -49 -56 -95 -70 -132 -131 -99 -164 16 -16 48 -15 89 2 28 12 89 14 353 9 272 -5 318 -4 314 8 -4 11 -53 15 -259 20 -140 3 -277 7 -306 8 -52 1 -52 1 -38 28 8 14 17 43 20 63 5 31 13 40 51 58 24 12 44 26 44 32 0 14 -20 12 -50 -5 -14 -8 -28 -14 -33 -15 -12 0 5 54 21 66 13 9 13 15 1 40 -18 37 -69 44 -114 16z m45 -30 c0 -18 -33 -52 -51 -52 -26 0 -24 15 7 39 28 22 44 27 44 13z m-10 -196 c-18 -57 -100 -114 -100 -70 0 19 97 120 106 111 3 -3 1 -22 -6 -41z"/>
<path d="M3467 9514 c-4 -4 -7 -37 -7 -73 0 -36 -3 -83 -7 -104 -6 -38 -6 -38 -43 -32 -25 4 -41 2 -45 -5 -10 -16 13 -30 48 -30 26 0 28 -3 23 -27 -18 -99 -18 -103 3 -103 16 0 21 9 26 48 11 75 14 82 43 82 15 0 37 3 49 6 21 6 22 3 25 -62 2 -38 8 -69 14 -71 8 -3 13 39 18 129 4 73 9 148 13 166 4 27 2 32 -15 32 -24 0 -32 -25 -32 -101 0 -55 -1 -57 -31 -63 -65 -13 -68 -11 -57 38 18 86 2 197 -25 170z"/>
<path d="M4245 9447 c-8 -13 -28 -59 -44 -102 -30 -83 -35 -82 -46 11 -10 81 -20 104 -46 104 -17 0 -20 -4 -15 -22 4 -13 15 -66 26 -118 38 -193 60 -208 96 -64 21 89 47 153 66 165 13 8 6 41 -9 46 -6 2 -19 -7 -28 -20z"/>
<path d="M2690 9429 c-56 -23 -100 -89 -100 -152 0 -44 43 -87 88 -87 109 0 187 147 116 221 -29 30 -59 36 -104 18z m82 -50 c27 -36 17 -80 -29 -124 -64 -62 -121 -33 -107 56 8 52 19 68 59 85 39 18 54 14 77 -17z"/>
<path d="M5266 9418 c-2 -7 -7 -32 -10 -55 -3 -23 -11 -54 -18 -68 -10 -23 -15 -25 -52 -20 -42 7 -95 -7 -108 -28 -41 -64 66 -106 131 -51 28 23 33 24 68 14 42 -13 95 -10 91 4 -2 6 -14 11 -27 12 -14 2 -37 8 -52 14 l-28 12 19 48 c27 68 30 123 7 128 -9 2 -19 -2 -21 -10z m-85 -198 c-25 -22 -56 -26 -66 -10 -12 19 6 30 48 30 l42 -1 -24 -19z"/>
<path d="M4694 9389 c-8 -14 11 -33 25 -25 6 4 11 11 11 16 0 13 -29 20 -36 9z"/>
<path d="M3857 9383 c-4 -4 -4 -22 -1 -40 l6 -33 -52 0 c-44 0 -51 -3 -48 -17 2 -14 15 -19 54 -21 45 -3 51 -6 61 -33 15 -38 37 -29 31 12 -4 29 -4 29 44 29 36 0 48 4 48 15 0 11 -12 15 -50 15 l-50 0 0 40 c0 32 -4 40 -18 40 -10 0 -22 -3 -25 -7z"/>
<path d="M4834 9333 c-12 -77 -10 -121 8 -139 22 -22 52 -5 77 44 l19 37 7 -50 c7 -60 16 -79 40 -84 15 -2 16 1 10 20 -4 13 -9 42 -12 64 -8 76 -12 85 -38 85 -18 0 -32 -11 -51 -40 -15 -22 -29 -38 -32 -36 -3 3 1 33 7 66 13 63 9 80 -14 80 -9 0 -17 -17 -21 -47z"/>
<path d="M4492 9320 c-46 -28 -39 -51 20 -70 27 -8 48 -19 49 -25 0 -5 -16 -15 -36 -20 -43 -13 -50 -29 -14 -33 40 -5 99 23 99 46 0 26 -29 50 -69 58 -37 8 -30 21 14 26 19 2 30 9 30 18 0 23 -55 23 -93 0z"/>
<path d="M3020 9321 c-22 -4 -35 -12 -35 -21 0 -16 8 -16 144 -3 45 5 76 13 79 21 3 9 -16 12 -75 11 -43 -1 -94 -4 -113 -8z"/>
<path d="M4710 9300 c-6 -11 -14 -43 -17 -71 -5 -45 -4 -51 12 -48 16 4 26 28 47 118 5 24 -29 24 -42 1z"/>
<path d="M6226 9311 c-16 -25 7 -34 77 -28 65 6 86 11 76 21 -2 2 -36 7 -75 11 -49 5 -74 4 -78 -4z"/>
<path d="M5454 9275 c-4 -10 -1 -21 7 -26 20 -12 34 -5 34 17 0 24 -33 31 -41 9z"/>
<path d="M5870 9238 c-38 -63 -19 -138 35 -138 57 0 96 32 110 92 10 40 -31 78 -85 78 -35 0 -43 -4 -60 -32z m95 -14 c28 -28 0 -81 -45 -86 -20 -2 -26 2 -28 20 -5 35 17 82 38 82 10 0 26 -7 35 -16z"/>
<path d="M3135 9244 c-11 -2 -46 -6 -77 -9 -41 -5 -58 -11 -58 -21 0 -17 20 -17 115 -4 87 13 107 19 100 31 -6 9 -37 10 -80 3z"/>
<path d="M4315 9220 c-54 -36 -52 -117 5 -140 36 -15 63 -2 90 43 53 85 -12 152 -95 97z m75 -39 c0 -37 -31 -77 -53 -68 -38 14 -8 97 35 97 13 0 18 -7 18 -29z"/>
<path d="M6926 9151 c-13 -21 5 -31 60 -31 30 0 54 -3 54 -7 0 -5 -22 -27 -50 -51 -71 -62 -50 -89 49 -62 20 5 57 12 84 15 26 4 47 10 47 14 0 14 -62 21 -110 11 -25 -4 -46 -7 -48 -5 -2 1 13 13 33 25 51 31 61 55 33 74 -30 19 -143 32 -152 17z"/>
<path d="M8025 8964 c-424 -23 -1365 -36 -2110 -29 -664 6 -723 5 -915 -13 -330 -33 -396 -34 -785 -17 -306 13 -424 14 -685 4 -173 -6 -337 -11 -365 -12 -40 -2 -50 -6 -53 -21 -4 -21 12 -21 243 4 108 12 373 11 1110 -6 232 -6 302 -3 501 15 255 24 184 23 1642 22 783 0 996 2 1190 16 185 12 450 17 1197 20 l961 4 -8 -88 c-8 -102 -5 -132 28 -268 13 -55 28 -131 34 -170 22 -157 41 -450 38 -607 l-2 -166 -76 -6 c-266 -21 -1477 -55 -2140 -61 -377 -3 -680 -10 -805 -20 -418 -30 -736 -38 -1205 -29 -250 4 -916 8 -1480 9 -819 0 -1046 3 -1128 14 -86 12 -102 17 -98 30 23 78 25 159 15 545 -5 226 -9 478 -8 560 3 148 -3 175 -29 143 -8 -9 -9 -101 -2 -333 13 -428 12 -820 -1 -869 -5 -22 -15 -50 -21 -62 -6 -13 -8 -26 -4 -30 12 -12 42 -13 1373 -21 694 -4 1264 -10 1267 -13 11 -11 24 -1163 13 -1177 -7 -9 -6 -17 1 -24 7 -7 12 -24 12 -38 0 -40 18 -50 89 -50 37 -1 107 -8 156 -16 142 -25 1683 -31 2550 -9 363 9 689 21 725 25 135 19 1612 35 2865 32 451 -1 773 2 778 7 5 5 11 99 13 208 5 377 22 739 44 932 15 140 18 197 10 205 -8 8 -232 10 -768 7 -678 -3 -1817 11 -2027 25 l-80 5 3 172 c4 220 -28 588 -64 743 -41 174 -44 201 -34 302 7 69 7 99 -1 108 -16 19 -1609 17 -1964 -2z m2550 -1365 c325 -7 982 -13 1462 -13 479 -1 875 -5 879 -9 7 -7 -1 -144 -26 -437 -5 -58 -10 -175 -10 -260 -1 -85 -7 -211 -13 -280 -7 -69 -12 -169 -12 -222 l0 -98 -440 -2 c-242 -1 -757 -1 -1145 1 -769 3 -1865 -13 -2000 -30 -116 -14 -562 -25 -1525 -40 -894 -13 -1625 -2 -1780 25 -44 8 -106 15 -138 15 l-58 1 1 53 c1 28 -3 153 -9 277 -8 180 -13 584 -11 886 l0 41 508 6 c279 4 566 11 637 17 277 22 538 30 990 30 259 0 661 7 895 15 234 8 573 20 754 25 182 6 332 13 335 16 3 3 31 3 61 0 30 -2 321 -10 645 -17z"/>
<path d="M6200 7303 c-43 -17 -31 -46 16 -37 43 8 44 -6 4 -69 -46 -73 -39 -87 45 -87 24 0 50 3 59 6 25 10 19 24 -11 24 -16 0 -38 3 -50 6 l-23 6 25 42 c31 53 32 80 3 100 -23 16 -42 19 -68 9z"/>
<path d="M9954 7261 c-27 -27 14 -28 1019 -23 968 4 1190 0 1370 -24 43 -6 47 -9 45 -32 -4 -38 15 -36 36 3 11 19 17 37 15 39 -12 10 -209 28 -407 37 -211 10 -2068 9 -2078 0z"/>
<path d="M7455 7223 c-4 -21 -23 -76 -44 -123 -36 -85 -36 -85 -72 -82 -49 4 -71 -22 -67 -79 3 -38 6 -44 28 -47 18 -3 32 5 55 32 l31 37 59 -16 c66 -17 125 -20 125 -6 0 10 -24 21 -49 21 -10 0 -41 7 -69 15 l-52 16 36 72 c43 85 76 176 68 188 -3 5 -14 9 -24 9 -13 0 -20 -10 -25 -37z m-121 -268 c-9 -14 -18 -25 -20 -25 -2 0 -4 11 -4 25 0 18 5 25 20 25 20 0 20 -1 4 -25z"/>
<path d="M7002 7208 c-7 -7 -12 -18 -12 -25 0 -15 36 -18 45 -3 10 15 21 12 54 -16 48 -40 42 -66 -34 -142 -87 -88 -86 -97 13 -89 43 3 86 9 95 13 35 13 15 24 -44 24 l-62 0 52 54 c56 60 66 100 35 144 -31 44 -114 68 -142 40z"/>
<path d="M9922 7207 c-6 -7 -35 -76 -65 -153 -30 -76 -78 -202 -108 -279 l-54 -140 -5 118 c-5 110 -7 120 -29 138 -45 37 -208 20 -170 -18 6 -6 38 -8 78 -5 51 3 70 1 77 -9 4 -8 8 -81 9 -164 0 -133 2 -150 17 -153 23 -4 50 52 123 248 98 267 138 365 153 376 16 11 13 45 -4 51 -6 2 -16 -2 -22 -10z"/>
<path d="M6663 7194 c-9 -23 13 -40 32 -24 12 10 13 16 4 26 -15 18 -28 18 -36 -2z"/>
<path d="M8090 7180 c0 -13 10 -24 24 -30 14 -5 48 -42 76 -82 70 -100 77 -108 95 -102 10 4 15 20 15 50 0 54 19 147 33 155 14 10 -1 29 -23 29 -20 0 -32 -31 -46 -117 l-7 -43 -39 58 c-57 81 -78 102 -105 102 -16 0 -23 -6 -23 -20z"/>
<path d="M9216 7188 c-24 -86 -39 -128 -56 -156 -18 -29 -23 -31 -41 -21 -29 15 -68 3 -81 -26 -9 -19 -7 -29 6 -50 14 -22 23 -26 44 -20 15 4 36 15 48 26 20 19 21 19 92 -7 68 -26 91 -27 78 -6 -3 5 -32 20 -63 32 -32 13 -59 24 -61 25 -1 1 14 36 34 78 21 45 34 86 32 103 -3 29 -25 45 -32 22z m-106 -217 c0 -14 -18 -23 -30 -16 -6 4 -8 11 -5 16 8 12 35 12 35 0z"/>
<path d="M6078 7163 c-9 -10 -34 -49 -56 -87 l-40 -69 -30 60 c-36 70 -54 87 -82 78 -26 -8 -26 -33 1 -43 11 -4 37 -39 58 -77 53 -98 65 -97 119 11 28 56 50 88 63 91 14 4 19 12 17 27 -4 27 -30 32 -50 9z"/>
<path d="M6533 7144 c-35 -15 -56 -44 -44 -62 4 -6 25 -18 46 -25 50 -18 52 -43 6 -74 -40 -27 -71 -32 -51 -8 21 25 2 30 -28 8 -33 -25 -36 -57 -4 -61 57 -8 162 58 162 102 0 28 -25 52 -62 61 -16 4 -28 11 -28 15 0 10 56 30 81 30 11 0 19 7 19 15 0 19 -53 19 -97 -1z"/>
<path d="M8913 7142 c-13 -2 -35 -16 -51 -31 -25 -26 -30 -27 -48 -14 -30 22 -74 8 -119 -40 -23 -23 -44 -50 -47 -59 -9 -22 -54 -51 -68 -43 -11 7 -13 57 -4 93 4 15 14 22 30 22 19 0 24 5 24 25 0 14 -8 29 -19 35 -39 21 -81 -49 -81 -135 0 -53 26 -81 67 -70 15 3 39 6 53 5 14 0 42 -2 62 -2 43 -2 81 21 114 69 l20 30 48 -24 c26 -13 46 -26 44 -29 -2 -2 -28 -7 -58 -11 -31 -5 -55 -14 -58 -22 -4 -11 8 -13 63 -9 110 9 125 47 37 96 -44 25 -52 42 -27 62 12 10 15 10 15 -4 0 -22 27 -20 40 3 22 42 8 61 -37 53z m-110 -83 c19 -30 -36 -92 -88 -101 -25 -4 -34 31 -11 44 9 5 16 16 16 23 0 21 38 57 57 53 9 -2 21 -10 26 -19z"/>
<path d="M6809 7103 c-16 -40 -17 -155 -2 -160 7 -3 24 8 38 23 l25 27 0 -32 c0 -28 3 -32 23 -29 16 2 22 10 23 28 0 14 6 42 13 62 23 68 -4 76 -62 21 l-39 -38 8 35 c12 52 10 83 -3 87 -7 3 -18 -8 -24 -24z"/>
<path d="M12125 7063 c-4 -21 -13 -71 -21 -112 -8 -40 -14 -74 -14 -76 0 -2 -11 -6 -25 -9 -28 -7 -33 -31 -8 -44 14 -8 15 -15 5 -55 -17 -67 -15 -87 8 -87 15 0 20 7 20 28 0 15 6 50 13 77 l13 50 65 12 c35 6 65 10 66 10 1 -1 -8 -39 -19 -85 -12 -45 -19 -85 -15 -88 13 -14 28 12 56 99 40 127 57 215 43 229 -19 19 -39 -9 -44 -62 -3 -28 -7 -53 -10 -55 -4 -4 -128 -24 -128 -20 0 0 9 41 20 91 25 115 25 134 0 134 -14 0 -21 -9 -25 -37z"/>
<path d="M6705 7058 c-4 -11 -18 -31 -31 -43 -27 -25 -38 -90 -15 -90 15 0 91 118 91 141 0 23 -38 16 -45 -8z"/>
<path d="M10890 7042 c-13 -11 -20 -24 -16 -30 9 -14 36 -16 36 -3 0 5 9 13 20 16 22 7 70 -18 70 -35 0 -5 -20 -32 -45 -60 -27 -30 -42 -56 -39 -65 11 -27 134 -13 134 15 0 6 -18 7 -47 3 l-48 -6 43 46 c23 26 42 53 42 61 0 63 -98 100 -150 58z"/>
<path d="M8370 7033 c-24 -9 -60 -45 -60 -60 0 -8 10 -27 22 -43 32 -44 76 -41 117 5 17 20 31 44 31 55 0 36 -62 61 -110 43z m67 -39 c3 -10 -4 -26 -20 -41 -38 -39 -51 -21 -31 45 5 17 44 15 51 -4z"/>
<path d="M10161 7027 c-16 -20 -3 -27 48 -27 l46 0 -54 -48 c-30 -27 -52 -53 -48 -59 15 -24 167 -27 167 -3 0 4 -24 11 -54 14 l-55 7 40 36 c45 41 50 69 13 83 -36 14 -90 12 -103 -3z"/>
<path d="M6104 6987 c-29 -35 -30 -51 -4 -77 24 -24 41 -25 78 -6 34 17 55 55 50 87 -3 21 -8 24 -51 24 -42 1 -52 -3 -73 -28z m90 -9 c-15 -27 -38 -48 -51 -48 -22 0 -15 36 10 48 31 15 50 15 41 0z"/>
<path d="M10589 7004 c-10 -12 -9 -18 3 -31 19 -18 38 -10 38 17 0 24 -25 33 -41 14z"/>
<path d="M11236 6998 c-3 -7 -7 -32 -9 -56 -3 -23 -14 -59 -24 -80 -17 -32 -25 -38 -64 -42 -57 -8 -85 -24 -104 -60 -20 -39 -19 -56 5 -80 19 -19 23 -19 48 -6 16 8 46 34 69 59 37 41 42 43 64 31 37 -19 99 -28 99 -15 0 6 -8 14 -17 17 -23 8 -83 38 -83 42 0 1 9 21 21 44 26 50 40 133 25 148 -14 14 -26 13 -30 -2z m-86 -216 c0 -13 -79 -86 -86 -79 -11 11 16 64 39 75 27 13 47 15 47 4z"/>
<path d="M10032 6958 c-5 -7 -25 -52 -43 -100 -19 -49 -37 -88 -41 -88 -10 0 -21 96 -13 119 10 31 -3 61 -27 61 -20 0 -21 -4 -16 -90 6 -96 24 -140 58 -140 26 0 44 28 76 122 16 44 36 84 46 89 21 11 13 39 -12 39 -10 0 -22 -6 -28 -12z"/>
<path d="M7897 6953 c-4 -3 -7 -28 -7 -54 l0 -48 -52 -3 c-39 -2 -53 -7 -53 -18 0 -12 12 -15 53 -14 50 2 52 1 52 -26 0 -48 12 -90 26 -90 10 0 14 16 14 60 0 65 1 66 79 72 19 2 36 9 39 16 3 9 -13 12 -58 12 l-63 0 7 50 c6 45 5 50 -12 50 -10 0 -22 -3 -25 -7z"/>
<path d="M11657 6948 c-24 -8 -28 -15 -25 -42 4 -36 31 -43 36 -8 5 31 40 29 52 -4 14 -35 -7 -71 -64 -112 -49 -35 -56 -52 -31 -72 21 -17 117 -7 187 20 29 11 54 20 55 20 1 0 -17 -20 -41 -43 -75 -75 -97 -200 -45 -256 69 -73 173 61 186 239 3 46 12 82 21 93 14 15 13 17 -1 17 -9 0 -17 10 -19 23 -3 20 -8 22 -50 19 -45 -3 -48 -1 -48 21 0 48 71 77 100 42 9 -10 17 -12 23 -6 16 16 0 38 -37 51 -60 19 -111 -14 -131 -87 -9 -32 28 -66 66 -61 25 4 29 2 27 -15 -2 -11 -10 -23 -18 -25 -13 -5 -13 -3 -1 11 18 22 7 21 -57 -3 -29 -11 -81 -23 -115 -26 l-62 -6 42 38 c24 22 47 50 52 65 25 71 -33 132 -102 107z m263 -312 c-7 -33 -23 -82 -36 -108 -45 -88 -88 -81 -88 15 -1 67 27 121 85 166 44 34 44 34 47 11 2 -13 -1 -51 -8 -84z"/>
<path d="M10739 6923 c-6 -16 -12 -59 -13 -98 -1 -60 1 -70 17 -73 11 -2 30 6 43 19 19 18 24 19 24 6 0 -22 19 -32 33 -18 19 19 37 114 25 129 -17 20 -26 15 -65 -39 -43 -57 -50 -49 -29 31 8 30 12 58 10 62 -11 17 -35 6 -45 -19z"/>
<path d="M10417 6920 c-42 -33 -35 -58 23 -82 55 -23 62 -39 28 -62 -29 -21 -55 -22 -39 -2 19 23 -7 31 -30 10 -25 -23 -21 -58 8 -62 24 -4 92 28 112 52 24 29 9 59 -44 88 -42 22 -47 28 -30 33 33 11 48 20 47 30 -2 19 -48 16 -75 -5z"/>
<path d="M11522 6928 c-7 -7 -12 -26 -12 -43 0 -29 -2 -30 -37 -27 -45 3 -68 -10 -60 -32 5 -13 15 -15 48 -10 l42 7 -7 -51 c-5 -42 -4 -52 8 -52 9 0 19 19 27 50 10 40 17 50 33 50 34 0 66 12 60 21 -3 5 -20 9 -38 9 -32 0 -33 1 -32 41 1 44 -11 58 -32 37z"/>
<path d="M10581 6825 c-40 -62 -45 -85 -17 -85 16 0 98 128 91 141 -14 21 -35 5 -74 -56z"/>
<path d="M6475 6870 c-434 -9 -531 -18 -500 -49 6 -6 27 -6 55 -1 25 5 214 14 420 19 206 6 474 13 595 17 200 6 352 -2 448 -22 38 -9 34 11 -5 27 -41 15 -506 20 -1013 9z"/>
<path d="M8745 6870 c-77 -4 -220 -8 -317 -9 -151 -1 -178 -3 -178 -16 0 -13 22 -15 138 -15 75 0 223 5 327 10 105 5 303 12 440 14 138 3 251 9 253 13 3 10 -480 12 -663 3z"/>
<path d="M10054 6798 c-29 -45 -34 -60 -22 -81 15 -30 27 -37 65 -37 32 0 73 37 73 66 0 21 -30 44 -59 44 -15 0 -32 5 -38 11 -8 8 -13 7 -19 -3z m69 -44 c10 -10 -12 -44 -28 -44 -23 0 -29 22 -10 37 21 15 29 16 38 7z"/>
<path d="M6340 6761 c-35 -10 -38 -38 -5 -53 23 -10 29 -10 40 5 16 22 67 22 95 -1 31 -25 16 -50 -60 -102 -107 -72 -68 -89 100 -45 131 35 133 36 124 45 -5 5 -43 2 -84 -5 -104 -19 -105 -19 -66 16 80 69 51 129 -69 142 -27 3 -61 2 -75 -2z"/>
<path d="M8760 6749 c-52 -21 -84 -68 -73 -107 6 -26 56 -44 87 -32 20 7 24 5 33 -25 10 -31 9 -34 -34 -70 -72 -61 -93 -138 -53 -203 35 -57 102 -63 141 -13 19 23 21 35 16 116 -3 50 -8 97 -11 106 -5 10 4 20 29 32 35 17 51 46 18 32 -48 -20 -61 -18 -68 13 -5 24 -1 36 14 51 56 56 -20 133 -99 100z m75 -54 c0 -13 -6 -19 -17 -17 -9 1 -22 -7 -28 -18 -8 -15 -19 -20 -37 -18 -35 4 -38 19 -12 52 17 22 28 27 58 24 28 -2 36 -7 36 -23z m-1 -216 c10 -53 7 -154 -6 -167 -19 -19 -55 -14 -72 10 -9 12 -16 42 -16 65 0 35 6 50 36 83 20 22 40 40 44 40 4 0 10 -14 14 -31z"/>
<path d="M6700 6739 c-90 -36 -94 -130 -5 -116 34 6 35 5 35 -29 0 -28 -9 -43 -44 -77 -56 -54 -74 -108 -53 -159 16 -38 40 -50 74 -37 31 11 51 57 63 141 9 60 15 77 38 96 l27 23 -32 -5 c-29 -5 -33 -3 -33 16 0 12 9 40 20 63 23 48 18 72 -17 86 -29 11 -41 11 -73 -2z m65 -38 c7 -13 -58 -44 -82 -39 -16 3 -16 5 5 26 22 22 66 30 77 13z m-32 -233 c-8 -59 -26 -111 -40 -115 -18 -6 -35 35 -28 68 7 30 50 89 65 89 4 0 6 -19 3 -42z"/>
<path d="M7900 8800 c-85 -4 -257 -8 -381 -9 -170 -1 -233 -4 -253 -15 -32 -16 -170 -226 -309 -470 -68 -119 -103 -172 -105 -159 -2 11 4 61 13 109 30 159 30 179 5 204 -19 19 -28 21 -88 14 -83 -8 -112 -19 -112 -40 0 -13 6 -15 33 -10 17 4 56 9 84 12 67 8 71 0 49 -109 -8 -45 -19 -120 -22 -166 l-7 -84 -321 9 c-396 11 -796 9 -981 -5 -77 -6 -249 -14 -383 -18 -210 -5 -242 -8 -240 -21 4 -23 111 -20 638 14 195 13 328 15 655 10 226 -4 671 -6 990 -6 319 0 792 -5 1050 -11 492 -13 651 -9 998 27 152 16 166 19 154 30 -5 5 -285 -14 -462 -31 l-50 -5 33 15 c46 20 70 80 79 194 4 67 10 91 19 91 23 0 15 39 -11 56 -30 20 -82 13 -117 -16 -31 -25 -14 -55 30 -55 21 0 32 -5 36 -18 6 -25 -23 -37 -111 -43 -42 -2 -80 -7 -85 -10 -4 -3 -8 -1 -8 4 0 5 20 27 45 50 30 27 45 49 45 66 0 30 -52 76 -85 76 -46 0 -40 -32 8 -44 46 -11 46 -35 0 -75 -47 -42 -66 -73 -56 -97 5 -14 16 -16 71 -11 l65 7 -25 -28 c-14 -15 -29 -37 -33 -50 -9 -32 12 -80 44 -98 23 -13 -22 -14 -439 -7 -256 4 -696 6 -978 4 l-513 -3 29 48 c16 27 62 109 102 183 71 131 231 382 271 424 19 21 33 22 307 32 261 9 1921 10 1930 1 2 -2 -2 -40 -9 -84 -10 -65 -10 -84 0 -96 18 -22 31 -11 31 26 0 16 8 61 17 99 10 42 13 73 7 78 -11 11 -1447 20 -1654 11z m1025 -567 c-9 -72 -28 -111 -61 -123 -53 -21 -92 36 -60 85 14 21 108 92 125 94 2 1 0 -25 -4 -56z"/>
<path d="M6365 8746 c-43 -16 -95 -69 -95 -97 0 -12 -6 -16 -20 -12 -24 6 -40 -28 -42 -93 -2 -34 3 -49 22 -70 57 -60 181 -93 254 -67 82 28 135 107 136 200 0 57 -27 101 -80 128 -43 22 -129 28 -175 11z m162 -42 c85 -54 63 -207 -37 -259 -55 -29 -65 -22 -62 40 l4 55 41 0 c42 0 77 13 61 23 -5 2 -29 8 -52 12 -43 7 -44 7 -37 41 5 31 4 34 -19 34 -21 0 -26 -6 -32 -35 -6 -32 -9 -34 -33 -29 -39 10 -61 23 -61 38 0 27 47 81 80 93 41 15 115 8 147 -13z m-270 -126 c-3 -7 -5 -2 -5 12 0 14 2 19 5 13 2 -7 2 -19 0 -25z m103 -28 c28 0 28 -2 32 -60 2 -36 -1 -60 -7 -60 -5 0 -33 11 -61 24 -55 26 -85 58 -83 91 1 17 2 17 6 3 6 -24 24 -23 30 1 4 16 9 18 30 10 13 -5 37 -9 53 -9z"/>
<path d="M7427 8603 c-16 -15 -6 -33 18 -33 18 0 25 -5 25 -18 0 -10 -11 -29 -25 -42 -28 -27 -32 -55 -9 -64 24 -9 134 -7 134 3 0 13 -26 21 -66 21 -19 0 -34 5 -34 10 0 6 4 10 10 10 5 0 16 14 25 30 12 23 13 35 5 50 -17 31 -66 51 -83 33z"/>
<path d="M7984 8555 c-9 -23 5 -36 25 -25 27 14 31 3 14 -40 -13 -32 -13 -42 -3 -55 22 -26 100 -17 100 12 0 11 -7 13 -31 8 -30 -7 -31 -6 -25 16 17 53 18 70 6 84 -16 19 -79 20 -86 0z"/>
<path d="M4860 8534 c0 -30 57 -260 71 -286 21 -39 40 -18 103 116 35 73 69 136 75 140 21 13 12 38 -11 34 -18 -2 -36 -29 -84 -127 l-61 -125 -27 115 c-14 62 -26 124 -26 137 0 15 -6 22 -20 22 -15 0 -20 -7 -20 -26z"/>
<path d="M9126 8528 c-8 -13 -22 -50 -32 -83 -9 -33 -24 -65 -33 -72 -12 -9 -13 -15 -5 -23 8 -8 9 -24 3 -48 -12 -54 -11 -62 10 -62 14 0 20 11 27 52 l9 52 70 17 c38 10 71 17 72 15 2 -2 -6 -42 -18 -89 -22 -88 -21 -117 6 -117 10 0 15 10 15 30 0 17 16 84 34 150 44 151 47 175 21 175 -15 0 -21 -10 -28 -45 -11 -59 -23 -70 -96 -85 l-62 -13 6 32 c4 17 16 51 26 75 18 42 18 61 -1 61 -5 0 -16 -10 -24 -22z"/>
<path d="M7753 8528 c2 -7 10 -13 17 -13 7 0 15 6 18 13 2 7 -5 12 -18 12 -13 0 -20 -5 -17 -12z"/>
<path d="M8501 8511 c-6 -11 -11 -43 -11 -71 l0 -52 -42 4 c-37 3 -43 0 -43 -17 0 -16 8 -21 45 -25 l45 -5 7 -59 c8 -65 11 -71 28 -61 8 5 11 28 8 66 l-4 58 50 3 c73 4 74 28 1 28 l-57 0 5 48 c3 26 7 58 9 72 4 31 -26 40 -41 11z"/>
<path d="M8280 8500 c0 -22 -31 -88 -61 -132 -17 -23 -24 -25 -59 -21 -30 4 -45 1 -60 -12 -23 -21 -26 -67 -6 -84 15 -13 59 0 88 25 14 14 20 13 57 -5 64 -33 101 -23 44 12 -59 36 -58 32 -30 69 34 45 80 145 72 158 -12 19 -45 11 -45 -10z m-126 -189 c7 -10 -22 -37 -30 -28 -9 8 3 37 15 37 5 0 12 -4 15 -9z"/>
<path d="M7292 8485 c-11 -13 -32 -54 -48 -90 -31 -75 -38 -71 -49 22 -7 64 -27 95 -46 76 -8 -8 -5 -42 10 -113 11 -56 23 -106 26 -111 14 -21 46 -8 59 24 58 134 87 187 101 187 20 0 19 16 -1 24 -25 10 -31 7 -52 -19z"/>
<path d="M7875 8498 c-10 -31 -35 -137 -35 -152 0 -23 30 -20 57 6 l23 21 0 -30 c0 -35 19 -56 39 -43 10 5 12 23 9 59 -3 28 -8 55 -12 58 -4 4 -20 2 -37 -4 -28 -11 -30 -10 -22 10 11 35 9 80 -4 84 -7 3 -15 -1 -18 -9z"/>
<path d="M5980 8492 c0 -4 5 -13 10 -18 11 -11 -4 -64 -34 -122 -15 -30 -18 -31 -64 -25 -62 7 -88 -7 -103 -56 -28 -93 43 -109 127 -29 l32 30 81 -26 c84 -27 121 -32 121 -18 0 4 -17 14 -37 21 -21 8 -62 22 -90 33 l-53 19 29 57 c49 98 50 142 5 142 -13 0 -24 -4 -24 -8z m-82 -200 c9 -6 4 -16 -17 -36 -46 -44 -77 -18 -38 32 11 14 36 16 55 4z"/>
<path d="M5436 8482 c-9 -14 21 -35 40 -28 8 3 14 12 12 19 -6 15 -44 22 -52 9z"/>
<path d="M7644 8463 c-29 -6 -56 -36 -49 -55 3 -8 22 -22 41 -32 42 -19 40 -37 -4 -51 -40 -12 -42 -35 -3 -35 75 0 108 81 44 109 -43 19 -42 31 3 31 28 0 35 3 32 18 -3 17 -26 23 -64 15z"/>
<path d="M5582 8427 c-16 -20 -31 -140 -20 -154 15 -19 24 -16 62 18 l35 30 3 -53 c3 -57 23 -73 54 -47 14 12 14 14 -2 26 -13 10 -16 21 -11 57 12 83 -14 98 -71 44 l-35 -33 7 29 c18 73 18 83 3 89 -9 3 -20 0 -25 -6z"/>
<path d="M5297 8412 c-28 -31 -21 -49 26 -64 30 -9 43 -19 45 -34 3 -21 -3 -27 -78 -84 -23 -17 -23 -19 -7 -26 21 -8 58 10 99 48 20 19 28 35 28 61 0 40 -14 54 -59 63 -34 7 -33 19 2 19 13 0 23 7 25 18 5 24 -59 24 -81 -1z"/>
<path d="M7760 8383 c-31 -69 -37 -113 -16 -113 9 0 19 8 22 18 2 9 18 42 34 74 29 58 29 68 -1 68 -12 0 -25 -16 -39 -47z"/>
<path d="M3671 8401 c-12 -8 -61 -144 -76 -209 -7 -32 -7 -32 -57 -26 -45 6 -50 5 -46 -12 2 -14 13 -20 46 -22 23 -2 40 -7 37 -12 -14 -23 -24 -113 -15 -131 14 -26 63 -25 106 2 46 28 69 69 39 69 -8 0 -15 -4 -15 -9 0 -12 -88 -57 -96 -48 -4 3 -1 33 6 66 l13 60 46 3 c55 4 61 22 9 26 -24 2 -38 8 -38 17 0 21 61 184 71 191 14 8 11 31 -4 37 -8 3 -19 2 -26 -2z"/>
<path d="M5502 8387 c-19 -23 -52 -101 -52 -124 0 -27 28 -31 36 -5 4 9 17 41 31 69 23 49 24 73 4 73 -5 0 -13 -6 -19 -13z"/>
<path d="M7326 8355 c-21 -21 -30 -78 -17 -104 24 -44 94 -37 127 13 22 34 11 72 -26 91 -37 19 -64 19 -84 0z m65 -25 c25 -14 24 -42 -1 -65 -16 -15 -22 -15 -35 -5 -18 15 -18 20 -5 54 11 29 13 30 41 16z"/>
<path d="M5091 8314 c-33 -27 -40 -63 -18 -86 6 -7 12 -22 12 -33 0 -16 8 -21 35 -23 46 -4 79 30 87 87 10 77 -54 107 -116 55z m77 -40 c4 -37 -26 -78 -50 -69 -28 11 -32 55 -6 82 29 31 52 26 56 -13z"/>
<path d="M6265 8290 c-4 -6 -1 -17 5 -25 17 -20 264 -22 258 -2 -3 8 -37 14 -99 18 -52 3 -108 9 -126 13 -19 4 -34 3 -38 -4z"/>
<path d="M4182 8213 c3 -15 18 -19 88 -25 47 -3 120 -9 163 -13 47 -4 77 -3 77 3 0 16 -28 22 -170 37 -168 18 -162 18 -158 -2z"/>
<path d="M4410 8099 c-30 -5 -98 -8 -150 -7 -79 3 -95 0 -95 -12 0 -12 19 -15 115 -15 115 0 230 18 230 36 0 10 -23 10 -100 -2z"/>
<path d="M3784 8039 c-17 -5 -39 -18 -49 -29 -18 -20 -18 -21 3 -43 12 -13 22 -28 22 -35 0 -18 42 -42 73 -42 39 0 87 49 87 89 0 49 -70 80 -136 60z m85 -38 c9 -6 11 -18 7 -35 -12 -49 -76 -58 -76 -10 0 18 -6 24 -22 24 -22 1 -23 1 -4 15 22 17 73 20 95 6z"/>
<path d="M7093 7953 c-33 -6 -75 -60 -71 -92 3 -24 6 -26 56 -26 43 1 52 -2 52 -17 0 -10 -16 -26 -39 -38 -50 -25 -111 -87 -111 -112 0 -57 48 -79 113 -50 56 25 66 40 80 113 12 60 13 62 62 87 57 28 45 42 -15 18 -22 -9 -40 -12 -40 -7 0 5 7 11 15 15 22 8 18 51 -7 79 -24 26 -58 37 -95 30z m50 -40 c8 -7 -52 -53 -70 -53 -17 0 -16 11 3 38 14 21 53 30 67 15z m-13 -201 c-11 -42 -44 -72 -79 -72 -49 0 -29 50 42 101 46 34 53 29 37 -29z"/>
<path d="M4873 7148 c-9 -18 -31 -85 -48 -148 l-32 -115 -52 -3 c-63 -4 -65 -25 -3 -30 23 -2 42 -6 42 -10 0 -4 -9 -39 -20 -77 -24 -84 -24 -81 -4 -89 18 -7 65 24 132 88 75 71 49 78 -40 10 -43 -34 -59 -42 -55 -28 3 10 11 38 16 60 12 46 30 54 117 54 23 0 46 5 49 10 4 6 -22 10 -70 10 -58 0 -76 3 -72 13 2 7 17 57 32 112 15 55 33 112 41 128 15 27 12 47 -6 47 -5 0 -17 -15 -27 -32z"/>
<path d="M1190 7117 c0 -8 21 -25 47 -39 56 -28 108 -92 124 -151 6 -23 9 -86 7 -142 -3 -86 -8 -109 -34 -165 -17 -36 -39 -73 -49 -83 -13 -14 -15 -21 -6 -30 27 -27 101 95 121 203 32 169 -13 316 -117 384 -50 33 -93 43 -93 23z"/>
<path d="M2040 7073 c-39 -20 -60 -54 -60 -99 0 -23 12 -45 43 -80 84 -95 97 -136 56 -188 -27 -35 -75 -34 -72 2 2 17 -2 22 -22 22 -33 0 -40 -16 -20 -46 51 -79 175 -20 175 83 0 42 -12 63 -77 137 -48 54 -53 81 -22 120 29 37 64 34 104 -10 32 -34 55 -38 55 -9 0 16 -66 75 -85 75 -7 0 -19 2 -27 5 -7 3 -29 -3 -48 -12z"/>
<path d="M2987 7083 c-12 -11 -8 -59 13 -145 11 -45 23 -115 26 -155 7 -71 19 -99 40 -85 6 4 18 47 28 96 18 94 56 198 83 228 12 14 19 15 30 7 17 -15 26 -7 17 14 -10 28 -43 31 -70 7 -24 -24 -84 -155 -84 -186 0 -10 -3 -14 -7 -10 -13 13 -41 179 -36 209 5 22 2 27 -14 27 -11 0 -23 -3 -26 -7z"/>
<path d="M4303 7018 c-4 -7 -8 -29 -8 -49 -1 -22 -18 -70 -41 -116 -39 -78 -39 -78 -87 -83 -63 -8 -96 -38 -79 -75 18 -39 79 -28 126 24 25 27 32 27 101 -10 74 -39 96 -25 29 20 -26 17 -53 31 -60 31 -26 0 -24 20 6 80 39 77 61 160 48 178 -13 15 -25 15 -35 0z m-132 -292 c-14 -16 -51 -28 -51 -16 0 11 30 29 49 30 10 0 11 -3 2 -14z"/>
<path d="M1078 6924 c-25 -7 -33 -43 -15 -61 19 -19 52 -9 43 12 -4 11 2 15 24 15 47 0 38 -32 -25 -86 -81 -68 -85 -124 -9 -124 39 0 210 56 206 67 -5 13 -80 4 -140 -17 -31 -11 -60 -20 -64 -20 -22 0 -2 31 53 82 52 47 60 60 54 80 -4 12 -13 29 -20 36 -13 14 -79 24 -107 16z"/>
<path d="M3567 6912 c-33 -37 -48 -133 -27 -173 13 -22 62 -26 79 -5 9 11 17 8 45 -20 28 -28 41 -34 78 -34 101 0 176 113 115 174 -49 49 -135 41 -167 -16 -13 -25 -13 -31 0 -55 25 -44 42 -41 34 5 -5 35 -3 42 19 57 23 14 29 15 61 1 30 -12 36 -20 36 -45 0 -40 -51 -91 -91 -91 -37 0 -79 39 -79 73 0 40 -26 40 -56 2 -38 -51 -48 -45 -41 25 6 72 21 94 55 85 19 -5 23 -2 20 12 -5 26 -59 29 -81 5z"/>
<path d="M3948 6893 c-41 -16 -57 -46 -37 -69 7 -8 38 -22 71 -31 32 -9 58 -20 58 -24 0 -9 -40 -39 -51 -39 -4 0 -5 9 -2 20 9 32 -23 24 -37 -9 -22 -53 5 -64 77 -32 44 21 67 50 57 75 -3 9 -37 25 -76 37 -60 17 -68 22 -57 35 9 11 23 14 45 9 33 -6 48 3 36 22 -13 19 -47 22 -84 6z"/>
<path d="M5364 6869 c-13 -21 13 -26 124 -21 87 3 112 7 112 18 0 11 -23 14 -114 14 -72 0 -117 -4 -122 -11z"/>
<path d="M2465 6826 c-12 -9 -15 -19 -10 -35 7 -23 9 -23 132 -18 124 5 164 16 127 35 -12 6 -50 6 -104 -1 -61 -7 -85 -6 -88 2 -7 21 -38 31 -57 17z"/>
<path d="M5030 6830 c-49 -12 -62 -35 -55 -95 8 -61 32 -85 86 -85 28 0 47 8 73 31 45 39 51 60 30 105 -24 50 -58 62 -134 44z m90 -40 c28 -28 25 -54 -11 -84 -62 -53 -119 -13 -73 52 8 12 13 26 9 31 -5 9 13 17 43 20 6 0 21 -8 32 -19z"/>
<path d="M4532 6813 c4 -20 18 -26 37 -14 18 12 5 31 -20 31 -14 0 -19 -6 -17 -17z"/>
<path d="M5456 6791 c-46 -10 -46 -36 -1 -33 75 6 181 24 189 32 11 11 -138 12 -188 1z"/>
<path d="M2540 6753 c-40 -5 -59 -18 -44 -32 5 -6 44 -6 99 0 114 13 135 17 135 29 0 10 -117 11 -190 3z"/>
<path d="M3226 6718 c-27 -43 -29 -82 -6 -111 28 -36 64 -35 101 2 54 55 28 131 -46 131 -25 0 -38 -6 -49 -22z m82 -35 c5 -31 -15 -63 -39 -63 -16 0 -19 6 -18 38 3 48 7 54 32 50 14 -2 23 -11 25 -25z"/>
<path d="M4425 5883 c-44 -2 -221 -12 -393 -23 -173 -11 -394 -20 -493 -20 -164 0 -179 -1 -179 -17 0 -17 13 -18 162 -15 90 1 294 12 453 22 512 35 1033 49 1233 33 94 -7 97 -11 60 -88 -24 -49 -19 -68 12 -40 31 28 63 102 56 130 l-6 25 -413 -2 c-226 -1 -448 -3 -492 -5z"/>
<path d="M3252 5673 c-33 -65 -85 -176 -118 -247 -57 -128 -58 -129 -70 -100 -7 16 -15 54 -19 84 -12 110 -15 120 -38 125 -30 8 -77 -10 -77 -29 0 -21 19 -30 35 -16 23 19 32 4 39 -67 8 -75 36 -150 61 -159 27 -11 51 22 105 149 66 151 147 316 167 339 8 9 12 22 8 27 -17 28 -39 3 -93 -106z"/>
<path d="M1230 5746 c0 -7 9 -25 20 -39 55 -69 88 -208 69 -281 -10 -39 -11 -39 -22 -15 -7 13 -27 31 -45 40 -26 14 -30 19 -18 28 26 22 39 67 26 91 -11 20 -18 22 -68 18 -42 -4 -60 -10 -74 -28 -14 -17 -16 -26 -7 -36 17 -21 49 -17 49 5 0 19 42 37 60 26 18 -11 10 -28 -31 -67 -44 -42 -44 -58 2 -58 69 0 93 -47 39 -75 -41 -21 -61 -19 -105 11 -26 17 -41 22 -48 15 -13 -13 6 -37 46 -58 20 -10 47 -14 79 -11 48 5 48 5 31 -14 -25 -28 -69 -49 -86 -42 -8 3 -18 1 -21 -5 -4 -6 5 -13 19 -17 60 -15 178 80 203 164 27 90 5 222 -54 310 -32 49 -64 68 -64 38z"/>
<path d="M2163 5698 c-51 -55 -85 -107 -134 -201 l-47 -91 -12 60 c-7 32 -14 91 -15 130 -1 39 -5 76 -9 83 -8 12 -42 15 -50 3 -6 -10 40 -259 55 -294 8 -19 19 -28 35 -28 20 0 31 16 77 113 55 116 126 216 158 224 22 6 14 33 -10 33 -9 0 -31 -15 -48 -32z"/>
<path d="M3697 5683 c-18 -17 -2 -23 61 -23 38 0 72 -3 75 -6 4 -4 -7 -22 -23 -41 -17 -18 -30 -38 -30 -43 0 -24 91 -40 134 -24 32 12 15 24 -34 24 -27 0 -50 4 -50 8 0 5 11 19 25 32 32 30 32 58 -1 70 -29 11 -147 14 -157 3z"/>
<path d="M4993 5679 c-37 -11 -50 -26 -35 -41 8 -8 22 -6 47 6 20 10 44 15 52 11 13 -4 9 -12 -20 -39 -43 -40 -45 -50 -13 -71 30 -20 167 -17 174 3 3 9 -6 12 -29 11 -51 -4 -92 0 -108 10 -12 8 -8 15 17 36 69 58 16 103 -85 74z"/>
<path d="M1638 5648 c-10 -18 -12 -156 -13 -598 0 -451 -3 -591 -14 -648 -11 -55 -11 -76 -3 -84 9 -9 15 -9 24 0 7 7 15 12 20 12 4 0 20 -37 35 -82 26 -79 27 -92 28 -283 0 -110 -4 -274 -9 -365 -10 -193 -1 -239 63 -311 54 -61 68 -46 21 24 -67 99 -70 133 -44 424 19 216 14 384 -16 497 -27 101 -45 136 -70 136 -23 0 -23 -3 -10 75 9 57 14 482 10 939 -1 197 0 211 19 237 27 37 26 49 -4 49 -15 0 -29 -9 -37 -22z"/>
<path d="M4759 5618 c-12 -13 -52 -70 -89 -126 -76 -117 -80 -117 -80 9 0 71 -2 79 -19 79 -27 0 -32 -34 -21 -125 10 -82 21 -105 50 -105 23 0 43 23 108 132 32 51 63 93 71 93 19 0 36 29 28 49 -9 22 -22 20 -48 -6z"/>
<path d="M3521 5592 c-11 -16 -38 -66 -60 -111 l-39 -81 -28 78 c-15 42 -31 87 -35 100 -9 23 -49 32 -48 10 0 -7 21 -65 47 -128 59 -143 70 -149 113 -53 66 148 70 154 85 142 17 -14 27 7 22 43 -5 33 -33 34 -57 0z"/>
<path d="M4272 5505 l5 -55 -49 -6 c-38 -5 -48 -10 -46 -23 3 -12 14 -15 49 -13 46 3 46 3 55 -40 12 -56 28 -55 32 3 3 50 14 59 75 59 52 0 24 25 -31 28 l-52 3 0 50 c0 43 -2 49 -21 49 -20 0 -21 -4 -17 -55z"/>
<path d="M3559 5468 c0 -2 -2 -11 -4 -20 -2 -9 -11 -47 -20 -83 -9 -37 -14 -73 -11 -81 8 -20 30 -17 50 5 17 19 18 19 52 -1 47 -28 97 -19 141 24 26 25 36 29 45 20 9 -9 9 -19 0 -45 -22 -62 -7 -80 24 -28 15 26 19 27 45 18 36 -14 51 0 22 20 -32 21 -29 33 17 86 44 50 50 67 21 67 -12 0 -34 -20 -56 -50 -20 -28 -41 -48 -46 -45 -5 3 -12 20 -17 38 -9 37 -48 47 -45 12 2 -30 -25 -73 -57 -90 -26 -13 -35 -14 -58 -3 -39 19 -35 49 10 73 39 20 51 45 22 45 -22 0 -54 -18 -86 -48 -29 -26 -37 -17 -17 20 12 22 -2 68 -21 68 -5 0 -10 -1 -11 -2z"/>
<path d="M2483 5443 c-7 -3 -13 -11 -13 -19 0 -16 4 -17 90 -14 68 2 109 14 80 24 -22 7 -143 14 -157 9z"/>
<path d="M4972 5428 c-7 -7 -12 -27 -12 -44 0 -39 -39 -72 -96 -81 -35 -6 -36 -5 -25 15 6 12 25 32 41 44 17 12 30 28 30 35 0 23 -31 14 -82 -23 -46 -32 -49 -33 -43 -12 4 13 12 29 18 36 13 16 -5 37 -26 29 -15 -6 -59 -135 -51 -149 7 -11 42 -10 49 2 4 6 15 4 30 -6 32 -21 80 -12 130 22 27 18 41 22 48 15 14 -14 63 -14 88 -1 16 9 19 7 19 -13 0 -18 -20 -38 -85 -85 -87 -64 -110 -97 -85 -127 44 -53 160 42 195 158 8 28 15 79 15 114 0 54 -3 63 -18 63 -12 0 -23 -13 -31 -36 -14 -39 -54 -65 -73 -46 -8 8 -8 19 2 41 10 25 10 34 0 46 -15 18 -22 19 -38 3z m76 -249 c-31 -56 -98 -102 -98 -68 0 12 100 109 113 109 5 0 -2 -18 -15 -41z"/>
<path d="M2237 5423 c-4 -3 -7 -31 -7 -62 0 -31 -7 -69 -15 -85 -9 -16 -13 -36 -11 -43 8 -21 32 -15 46 12 13 25 13 25 24 3 19 -38 78 -44 149 -16 47 18 30 27 -43 21 -86 -7 -91 5 -24 65 69 61 40 85 -44 36 l-45 -27 7 52 c6 46 5 51 -12 51 -10 0 -22 -3 -25 -7z"/>
<path d="M2647 5388 c-21 -4 -64 -9 -95 -11 -43 -1 -57 -6 -57 -17 0 -11 11 -15 42 -14 49 1 152 24 159 35 8 13 -10 16 -49 7z"/>
<path d="M3554 4722 c-16 -10 -120 -183 -140 -231 -9 -23 -20 -38 -25 -35 -5 3 -9 50 -9 105 0 99 0 99 -25 99 -29 0 -30 -3 -15 -153 11 -110 22 -140 51 -135 15 2 28 22 48 73 28 72 63 138 113 212 37 54 38 89 2 65z"/>
<path d="M1965 4697 c-7 -28 9 -184 25 -238 21 -73 62 -76 97 -7 34 66 123 257 123 264 0 3 -10 4 -22 2 -18 -2 -33 -27 -76 -123 -70 -157 -77 -164 -92 -90 -6 31 -10 91 -8 133 3 73 2 77 -19 80 -17 2 -24 -3 -28 -21z"/>
<path d="M4619 4628 c0 -2 -2 -16 -4 -32 -2 -16 -9 -43 -16 -59 -11 -27 -15 -28 -55 -22 -108 16 -171 -79 -81 -123 33 -16 83 2 114 41 l20 26 74 -31 c74 -31 209 -52 196 -31 -4 6 -25 13 -48 17 -44 7 -186 62 -194 76 -2 4 2 22 11 40 23 45 24 93 2 98 -10 2 -18 2 -19 0z m-69 -168 c-20 -37 -76 -53 -86 -25 -10 25 16 45 58 45 35 0 38 -2 28 -20z"/>
<path d="M3836 4531 c-21 -23 -38 -88 -30 -116 16 -53 69 -70 126 -41 24 13 32 13 58 -1 79 -39 177 37 156 121 -11 45 -127 76 -156 41 -7 -8 -10 -24 -7 -34 3 -13 -1 -21 -14 -24 -11 -3 -19 -14 -19 -25 0 -26 -47 -64 -74 -60 -17 2 -22 11 -24 46 -2 24 2 50 9 58 10 13 15 12 31 -6 15 -16 23 -18 34 -10 11 10 11 16 -2 41 -18 35 -61 40 -88 10z m261 -32 c19 -17 16 -50 -9 -76 -24 -25 -69 -31 -86 -10 -16 19 -3 57 19 57 20 0 26 15 9 25 -5 3 -10 11 -10 17 0 13 57 3 77 -13z"/>
<path d="M4179 4511 c-33 -27 -18 -48 49 -73 29 -11 52 -23 52 -28 0 -5 -27 -15 -60 -22 -40 -8 -60 -17 -60 -26 0 -12 11 -13 57 -8 72 8 107 25 111 54 3 19 -6 27 -58 50 -64 30 -68 42 -13 42 23 0 33 5 33 15 0 23 -82 20 -111 -4z"/>
<path d="M2870 4506 c0 -8 12 -17 28 -20 52 -10 187 -11 192 -1 6 11 -39 20 -142 29 -65 6 -78 4 -78 -8z"/>
<path d="M2246 4502 c-2 -4 -14 -49 -26 -101 -27 -112 -18 -133 33 -83 38 37 47 39 47 12 0 -11 11 -27 25 -36 37 -24 87 -11 136 36 40 38 40 38 51 14 9 -18 7 -34 -7 -69 -9 -26 -14 -49 -11 -52 8 -8 44 25 51 48 5 15 10 17 26 8 27 -14 56 -3 62 23 11 39 -16 55 -28 17 -6 -19 -9 -19 -22 -7 -12 13 -12 24 5 86 20 75 19 82 -9 82 -13 0 -19 -11 -25 -45 -3 -25 -10 -47 -14 -50 -4 -3 -17 18 -29 45 -20 47 -42 63 -56 40 -3 -5 1 -23 10 -40 15 -29 15 -34 0 -57 -18 -27 -99 -68 -115 -58 -20 12 -9 54 21 84 17 17 35 31 40 31 5 0 9 7 9 15 0 25 -28 17 -91 -26 -33 -22 -63 -39 -65 -36 -3 3 -1 22 5 44 15 53 14 83 -3 83 -8 0 -17 -3 -20 -8z"/>
<path d="M2890 4445 c0 -12 19 -15 115 -15 63 0 115 4 115 9 0 16 -30 21 -131 21 -81 0 -99 -3 -99 -15z"/>
<path d="M3517 4422 c-20 -22 -23 -122 -5 -140 7 -7 29 -12 49 -12 30 0 43 7 68 35 39 45 41 86 5 114 -34 27 -95 28 -117 3z m91 -24 c18 -18 14 -44 -11 -74 -33 -38 -63 -27 -52 19 4 17 7 40 7 50 -1 20 37 24 56 5z"/>
<path d="M9555 4080 c-132 -4 -429 -12 -660 -19 -231 -6 -568 -17 -750 -23 -181 -7 -393 -13 -470 -13 -131 1 -162 -5 -149 -27 8 -12 162 -10 466 7 150 8 469 19 708 25 239 6 561 15 715 20 336 12 1001 18 1010 9 3 -4 -3 -30 -14 -60 -22 -55 -21 -65 3 -56 11 5 76 125 76 142 0 7 -642 3 -935 -5z"/>
<path d="M7441 3938 c-25 -81 -200 -528 -206 -528 -2 0 -1 46 2 103 8 142 -10 168 -92 137 -36 -14 -26 -35 16 -35 l34 0 -3 -157 c-3 -156 -3 -158 18 -158 16 0 27 13 44 53 34 77 203 517 211 550 4 15 15 32 24 37 24 12 16 70 -8 70 -12 0 -23 -20 -40 -72z"/>
<path d="M5680 3778 c0 -18 -13 -78 -29 -133 l-28 -100 -50 3 c-29 2 -54 -1 -58 -7 -7 -13 35 -31 72 -31 25 0 26 -1 19 -60 -6 -52 -4 -62 14 -80 11 -11 27 -20 35 -20 23 0 65 46 65 70 0 28 -24 25 -38 -5 -6 -14 -18 -25 -27 -25 -16 0 -19 26 -9 79 6 30 9 31 55 31 27 0 49 4 49 9 0 11 -25 21 -55 21 -13 0 -26 3 -28 8 -3 4 8 50 24 102 35 116 38 170 9 170 -16 0 -20 -7 -20 -32z"/>
<path d="M1980 3741 c0 -35 41 -213 62 -268 16 -43 24 -53 43 -53 19 0 32 17 76 103 70 137 115 207 135 207 23 0 11 24 -13 28 -29 4 -66 -44 -137 -178 -37 -69 -62 -106 -66 -98 -12 21 -40 149 -48 213 -6 52 -10 60 -30 63 -17 3 -22 -2 -22 -17z"/>
<path d="M7787 3733 c-16 -16 -5 -33 21 -33 43 0 45 -9 12 -53 -35 -47 -39 -91 -11 -107 22 -11 90 -14 115 -4 25 10 8 24 -29 24 -72 0 -81 17 -35 70 16 19 29 43 30 52 0 34 -80 74 -103 51z"/>
<path d="M8572 3719 c-34 -13 -22 -35 16 -31 38 4 42 -13 13 -49 -50 -64 -31 -99 56 -99 39 0 54 4 51 13 -3 6 -20 13 -39 15 -49 5 -55 16 -30 55 46 75 9 127 -67 96z"/>
<path d="M4570 3668 c0 -72 -23 -154 -41 -149 -45 12 -62 12 -84 -3 -47 -31 -25 -136 29 -136 28 0 72 33 81 59 5 18 7 18 42 0 40 -20 103 -26 103 -9 0 6 -7 10 -15 10 -23 0 -105 43 -105 55 0 6 7 35 16 64 20 68 16 155 -8 159 -15 3 -18 -5 -18 -50z m-40 -199 c0 -4 -11 -21 -25 -36 -21 -24 -26 -26 -35 -13 -14 21 -12 67 3 73 14 5 57 -13 57 -24z"/>
<path d="M3532 3698 c-5 -7 -28 -58 -50 -112 -28 -71 -41 -94 -45 -80 -6 20 -37 169 -37 179 0 6 -35 7 -42 0 -6 -6 48 -220 63 -247 21 -40 43 -16 82 93 34 93 41 106 59 101 17 -4 19 0 16 34 -3 41 -25 56 -46 32z"/>
<path d="M8937 3703 c-4 -3 -7 -33 -7 -67 0 -62 -26 -176 -41 -176 -5 0 -24 7 -43 17 -29 13 -38 14 -51 3 -18 -15 -20 -59 -3 -95 15 -33 60 -34 93 -1 22 22 27 23 74 14 51 -11 125 -3 117 11 -3 5 -35 11 -71 14 -36 2 -69 7 -72 11 -3 3 1 29 11 58 21 64 38 181 30 202 -6 16 -26 21 -37 9z m-67 -283 c0 -14 -29 -32 -40 -25 -5 3 -10 17 -10 30 0 23 2 24 25 13 14 -6 25 -14 25 -18z"/>
<path d="M10018 3695 c-3 -4 -4 -24 -1 -45 8 -58 -6 -150 -22 -150 -22 0 -29 -22 -12 -35 11 -8 17 -27 17 -54 0 -29 4 -41 15 -41 10 0 16 16 21 50 6 42 10 50 28 50 11 1 38 7 59 14 l38 14 -3 -51 c-2 -42 0 -52 15 -55 12 -2 17 3 17 20 0 13 11 69 24 125 19 84 21 105 10 114 -20 16 -32 3 -39 -44 -12 -79 -14 -81 -106 -101 l-26 -6 1 97 c1 81 -2 98 -14 101 -9 1 -19 0 -22 -3z"/>
<path d="M7642 3666 c-10 -13 -42 -70 -72 -125 -29 -56 -56 -101 -61 -101 -5 0 -9 43 -9 96 0 93 -1 95 -22 92 -22 -3 -22 -7 -20 -93 2 -49 8 -105 13 -123 9 -28 15 -33 37 -30 23 3 35 20 87 123 35 71 61 112 63 102 6 -28 26 -14 33 24 7 32 -3 59 -21 59 -5 0 -17 -11 -28 -24z"/>
<path d="M8250 3672 c0 -13 9 -21 28 -25 33 -6 40 -1 26 21 -16 25 -54 28 -54 4z"/>
<path d="M5318 3663 c-23 -29 -38 -71 -38 -111 0 -46 33 -102 60 -102 15 0 20 -7 20 -29 0 -23 -13 -41 -64 -86 -67 -58 -106 -121 -106 -169 0 -34 41 -76 75 -76 79 0 124 72 133 208 4 72 9 93 30 120 28 37 23 55 -9 26 -22 -19 -22 -19 -14 21 12 65 7 166 -10 192 -18 27 -56 30 -77 6z m41 -82 c-5 -20 -6 -51 -3 -68 8 -40 -12 -45 -26 -7 -14 35 -12 59 5 102 20 46 36 27 24 -27z m-9 -372 c-29 -107 -136 -120 -116 -14 6 28 22 53 64 94 l57 55 3 -46 c2 -26 -2 -66 -8 -89z"/>
<path d="M4010 3635 c0 -14 37 -35 61 -35 15 0 10 22 -8 36 -24 18 -53 17 -53 -1z"/>
<path d="M9237 3633 c-3 -10 -8 -35 -12 -56 -6 -38 -6 -38 -53 -37 -68 2 -72 2 -72 -15 0 -17 7 -18 73 -15 43 2 47 0 47 -22 0 -28 10 -45 30 -50 11 -2 13 6 11 34 -2 34 0 38 26 43 66 14 75 41 11 36 -33 -2 -40 0 -35 12 3 9 9 32 13 51 5 32 4 36 -14 36 -11 0 -23 -8 -25 -17z"/>
<path d="M9466 3632 c-10 -16 10 -28 46 -28 38 0 78 -26 78 -50 0 -7 -26 -31 -59 -53 -72 -49 -86 -75 -55 -105 23 -23 121 -21 189 5 30 11 55 25 55 30 0 11 6 12 -60 -6 -64 -17 -128 -19 -150 -5 -17 12 -19 9 64 68 26 17 49 39 52 47 12 31 -6 65 -46 85 -39 20 -104 27 -114 12z"/>
<path d="M3850 3608 c-69 -47 -62 -88 14 -88 53 0 75 -13 57 -34 -7 -8 -19 -12 -28 -9 -17 7 -33 -13 -33 -39 0 -29 47 -22 81 11 56 56 31 101 -57 101 -19 0 -34 4 -34 10 0 17 38 30 69 24 23 -5 31 -3 31 8 0 41 -51 49 -100 16z"/>
<path d="M8406 3618 c-17 -49 -26 -100 -26 -145 0 -50 2 -53 24 -53 14 0 28 5 31 10 11 17 23 11 27 -12 5 -39 67 -34 68 5 0 4 -6 7 -14 7 -16 0 -26 21 -26 56 0 36 -29 43 -53 13 l-20 -24 8 45 c12 68 11 103 -2 107 -7 3 -15 -1 -17 -9z"/>
<path d="M2845 3600 c-15 -25 17 -35 125 -38 74 -3 110 0 110 7 0 13 -25 19 -110 25 -36 3 -77 8 -91 11 -16 4 -29 2 -34 -5z"/>
<path d="M6380 3590 c-30 -5 -76 -6 -102 -3 -43 5 -48 4 -48 -15 0 -13 8 -21 26 -25 29 -5 254 25 254 34 0 8 -39 19 -60 17 -8 0 -40 -4 -70 -8z"/>
<path d="M8095 3588 c-27 -15 -35 -28 -35 -61 0 -22 9 -33 48 -57 93 -57 91 -55 52 -78 -21 -13 -43 -19 -57 -16 -25 7 -53 -10 -53 -32 0 -36 158 11 174 51 9 25 -18 61 -62 84 -21 11 -44 27 -51 35 -20 24 -7 44 23 39 21 -4 26 -1 26 15 0 30 -31 40 -65 20z"/>
<path d="M4216 3582 c-2 -4 -7 -42 -11 -84 -7 -69 -5 -78 11 -85 13 -5 29 6 61 41 l43 48 0 -54 c0 -61 13 -82 42 -67 19 10 25 39 8 39 -5 0 -10 28 -12 63 -3 54 -6 62 -24 65 -15 2 -32 -10 -57 -39 l-36 -41 6 54 c4 45 2 56 -10 61 -9 3 -18 3 -21 -1z"/>
<path d="M4955 3583 c-122 -4 -135 -7 -112 -30 15 -15 29 -15 154 -4 75 6 139 14 141 16 12 12 -14 25 -46 23 -20 -1 -82 -4 -137 -5z"/>
<path d="M9746 3568 c-32 -45 -12 -100 39 -110 11 -2 21 -13 23 -25 2 -16 -9 -28 -55 -54 -32 -18 -77 -52 -100 -76 -50 -49 -58 -98 -23 -133 49 -49 175 -7 216 72 15 29 18 125 6 193 -6 34 -12 42 -42 51 -39 13 -51 43 -26 64 13 10 20 9 41 -4 15 -10 29 -24 32 -32 7 -19 43 -18 43 2 0 9 -14 29 -31 45 -40 37 -100 41 -123 7z m74 -252 c0 -44 -5 -60 -25 -85 -29 -34 -85 -56 -121 -47 -29 8 -33 49 -8 85 16 23 129 101 146 101 4 0 8 -24 8 -54z"/>
<path d="M4091 3548 c-32 -84 -44 -107 -57 -112 -8 -3 -14 -19 -14 -36 0 -23 5 -30 19 -30 14 0 28 22 56 86 34 81 39 114 15 114 -6 0 -14 -10 -19 -22z"/>
<path d="M6765 3556 c-35 -25 -5 -37 102 -41 95 -3 137 5 120 21 -4 4 -45 11 -90 14 -45 4 -89 10 -97 14 -9 3 -24 0 -35 -8z"/>
<path d="M8313 3538 c-15 -19 -33 -101 -33 -147 0 -34 3 -41 20 -41 17 0 20 7 20 38 0 21 7 62 15 90 15 50 14 72 -4 72 -5 0 -13 -6 -18 -12z"/>
<path d="M2262 3443 c-6 -54 -15 -108 -18 -120 -10 -36 30 -29 60 9 l25 32 21 -27 c26 -33 62 -35 108 -7 30 18 35 19 48 5 20 -19 58 -19 74 0 17 20 30 10 30 -23 0 -20 -13 -38 -50 -70 -50 -43 -90 -105 -90 -139 0 -63 76 -85 122 -35 29 30 58 116 58 172 0 24 7 43 20 55 21 19 18 38 -5 29 -20 -8 -29 36 -21 103 6 52 6 54 -16 51 -19 -2 -24 -11 -29 -46 -6 -47 -39 -89 -59 -77 -9 6 -11 26 -7 72 6 62 6 64 -16 61 -17 -2 -23 -11 -25 -37 -4 -43 -27 -78 -64 -97 -63 -33 -75 40 -17 101 35 38 37 55 4 55 -17 0 -32 -12 -54 -43 -54 -79 -61 -79 -54 2 5 65 4 71 -13 71 -17 0 -21 -12 -32 -97z m333 -303 c-17 -50 -44 -76 -71 -66 -32 12 -13 69 45 129 36 38 36 38 39 12 2 -14 -4 -48 -13 -75z"/>
<path d="M6393 3517 c-78 -14 -113 -24 -113 -34 0 -17 48 -17 130 2 96 23 131 35 125 46 -7 11 -2 11 -142 -14z"/>
<path d="M2865 3509 c-5 -7 -1 -17 9 -25 26 -18 146 -28 195 -14 48 13 47 31 -2 24 -31 -5 -129 7 -173 21 -13 4 -25 2 -29 -6z"/>
<path d="M3585 3440 c-25 -48 -20 -105 11 -129 33 -26 60 -26 100 -2 42 25 60 72 45 110 -15 34 -48 51 -101 51 -34 0 -42 -4 -55 -30z m107 -17 c22 -20 23 -41 3 -70 -18 -26 -49 -34 -71 -19 -14 10 -15 22 -10 59 7 42 10 47 33 47 15 0 35 -7 45 -17z"/>
<path d="M5818 3459 c-10 -5 -18 -19 -18 -30 0 -11 -7 -42 -16 -69 -21 -65 -5 -103 44 -108 28 -3 40 4 77 40 81 82 68 170 -26 175 -24 2 -52 -2 -61 -8z m90 -31 c27 -27 -3 -101 -55 -135 -19 -13 -23 -12 -32 6 -9 16 -8 29 4 57 10 25 12 41 5 49 -23 28 51 50 78 23z"/>
<path d="M7648 3429 c-10 -5 -18 -17 -18 -24 0 -17 35 -20 45 -5 9 15 31 12 49 -6 22 -21 20 -31 -8 -59 -28 -28 -53 -24 -58 8 -4 31 -32 28 -36 -5 -3 -28 27 -58 60 -58 31 0 69 23 84 51 20 39 18 56 -11 84 -26 27 -75 33 -107 14z"/>
<path d="M5570 2810 c-934 -21 -1268 -32 -1815 -60 -104 -5 -281 -10 -392 -10 -196 0 -203 -1 -203 -20 0 -11 -7 -20 -15 -20 -8 0 -15 -5 -15 -10 0 -6 -42 -117 -94 -248 -51 -130 -115 -295 -142 -367 -43 -115 -49 -126 -52 -94 -2 20 8 110 22 200 15 89 26 178 26 196 0 29 -3 33 -28 33 -34 0 -152 -38 -170 -55 -11 -10 -10 -14 2 -24 12 -10 21 -9 46 4 18 9 50 23 71 30 48 17 46 37 13 -205 -28 -212 -29 -293 -2 -298 9 -2 24 8 33 22 9 13 63 147 119 298 57 150 125 328 152 394 l49 122 160 6 c219 10 540 24 780 36 326 16 760 29 1447 42 511 9 730 9 1040 0 257 -8 563 -10 886 -6 l492 7 0 -51 c0 -59 16 -110 30 -96 5 5 11 47 12 93 l3 84 -290 -4 c-436 -6 -975 -5 -1405 3 -212 3 -554 3 -760 -2z"/>
<path d="M3513 2493 c-7 -2 -13 -12 -13 -20 0 -12 7 -14 34 -9 51 10 52 -8 1 -49 -48 -40 -57 -68 -26 -85 26 -13 114 -13 106 0 -3 6 -12 10 -20 10 -8 0 -26 5 -41 10 l-27 10 36 28 c48 36 60 63 41 91 -15 20 -59 27 -91 14z"/>
<path d="M4245 2483 c-53 -9 -65 -15 -65 -28 0 -12 10 -14 55 -9 35 4 55 3 55 -3 0 -6 -20 -27 -45 -47 -76 -63 -55 -110 45 -104 63 4 70 22 11 25 -68 3 -71 16 -18 66 26 24 47 50 47 59 0 28 -42 48 -85 41z"/>
<path d="M7734 2413 c-43 -122 -52 -143 -63 -143 -6 0 -11 -12 -11 -28 0 -15 -4 -41 -9 -59 -7 -23 -6 -35 4 -43 17 -14 28 1 49 68 13 37 23 52 35 52 10 0 46 18 81 41 34 22 64 38 67 36 2 -3 -8 -43 -22 -90 -28 -88 -29 -122 -6 -122 8 0 20 27 31 70 19 71 55 157 87 207 12 20 14 31 7 38 -8 8 -34 -6 -90 -48 -81 -60 -142 -97 -150 -89 -3 2 9 42 26 88 35 98 36 99 11 99 -15 0 -25 -18 -47 -77z"/>
<path d="M5440 2467 c-29 -15 -40 -47 -15 -47 9 0 23 7 32 16 17 17 88 16 87 -1 0 -5 -19 -23 -41 -40 -63 -46 -55 -77 22 -88 42 -7 85 0 85 13 0 4 -22 10 -50 14 -27 4 -50 9 -50 12 0 2 16 18 35 35 39 35 46 72 16 89 -27 14 -91 12 -121 -3z"/>
<path d="M6245 2459 c-11 -17 3 -23 55 -20 28 1 50 -2 50 -6 0 -4 -16 -21 -35 -36 -40 -32 -43 -49 -15 -77 20 -20 71 -27 104 -14 29 11 17 24 -23 24 -21 0 -44 6 -50 14 -10 12 -5 20 28 42 46 30 51 46 19 68 -26 18 -123 22 -133 5z"/>
<path d="M1623 2444 c-3 -9 0 -55 6 -103 7 -47 15 -106 17 -131 10 -81 23 -110 50 -110 33 0 71 56 124 180 24 55 47 100 52 100 4 0 8 14 8 30 0 43 -27 39 -46 -7 -44 -108 -126 -265 -134 -257 -5 5 -15 72 -21 149 -7 77 -17 146 -22 153 -13 17 -26 15 -34 -4z"/>
<path d="M4580 2449 c0 -5 -25 -61 -55 -124 -55 -114 -55 -114 -84 -104 -55 19 -84 9 -108 -40 -25 -49 -18 -81 18 -81 24 0 91 33 107 53 10 11 28 13 79 9 73 -6 83 11 12 21 -22 3 -42 7 -44 9 -2 2 23 55 55 118 64 125 71 150 40 150 -11 0 -20 -5 -20 -11z m-152 -258 c11 -6 7 -13 -14 -30 -24 -19 -54 -28 -54 -17 0 3 4 16 10 30 10 26 33 33 58 17z"/>
<path d="M6677 2418 c-7 -18 -30 -69 -52 -112 -36 -72 -43 -79 -73 -83 -45 -4 -82 -31 -98 -70 -18 -41 -18 -40 6 -53 25 -13 51 -1 101 46 35 34 36 34 67 19 17 -9 44 -15 59 -13 27 3 26 5 -19 27 -27 13 -48 24 -48 26 0 2 25 51 56 110 30 59 53 113 50 121 -10 25 -37 15 -49 -18z m-127 -231 c0 -2 -13 -16 -30 -32 -33 -32 -42 -17 -10 15 17 17 40 27 40 17z"/>
<path d="M3159 2433 c-1 -4 -1 -64 1 -133 1 -93 5 -129 16 -140 22 -22 41 -5 93 87 56 97 103 161 109 145 7 -22 34 -13 30 11 -2 15 -11 23 -29 25 -32 4 -75 -42 -134 -145 l-40 -67 -5 109 c-4 94 -7 110 -22 113 -10 2 -19 0 -19 -5z"/>
<path d="M5865 2401 c-9 -16 3 -31 26 -31 14 0 19 6 17 17 -4 20 -33 29 -43 14z"/>
<path d="M5113 2384 c-7 -20 14 -177 29 -210 12 -26 39 -32 55 -11 6 6 22 51 36 98 21 69 31 88 49 92 18 5 19 8 8 21 -30 37 -57 10 -93 -89 -28 -78 -35 -74 -40 26 -2 36 -7 71 -11 77 -10 17 -26 15 -33 -4z"/>
<path d="M4837 2363 c-3 -5 -2 -28 3 -51 l8 -44 -68 7 c-48 5 -70 3 -75 -5 -12 -20 16 -30 82 -30 62 0 62 0 72 -37 6 -21 11 -44 11 -50 0 -7 7 -13 15 -13 13 0 15 9 9 50 -7 50 -7 50 24 50 17 0 37 3 46 6 28 11 6 24 -39 24 l-44 0 -3 47 c-2 35 -7 49 -20 51 -9 2 -18 -1 -21 -5z"/>
<path d="M7060 2344 c-6 -14 -10 -33 -10 -42 -1 -52 -10 -61 -68 -64 -47 -2 -57 -6 -60 -22 -4 -17 1 -19 52 -13 l56 6 0 -48 c0 -44 12 -71 33 -71 5 0 6 12 3 26 -4 14 -4 40 0 59 6 31 9 34 47 37 56 4 62 28 7 28 -42 0 -42 0 -36 33 19 87 19 97 2 97 -9 0 -21 -12 -26 -26z"/>
<path d="M2247 2346 c-12 -30 19 -37 139 -34 78 2 119 7 121 15 3 7 -21 13 -74 17 -43 4 -101 8 -129 11 -39 4 -53 1 -57 -9z"/>
<path d="M6042 2343 c0 -10 -3 -47 -7 -81 -6 -50 -5 -66 6 -73 22 -14 30 -11 65 27 32 34 34 34 34 12 0 -31 25 -67 38 -53 5 6 6 37 3 70 -9 87 -27 87 -96 0 -15 -19 -16 -18 -9 20 13 73 11 90 -13 93 -16 2 -22 -2 -21 -15z"/>
<path d="M7208 2336 c-36 -27 -12 -57 24 -32 27 19 59 21 76 4 18 -18 15 -25 -27 -71 -53 -58 -61 -90 -27 -112 20 -13 40 -16 78 -13 l51 5 -61 -56 c-74 -69 -83 -91 -47 -127 24 -24 32 -26 81 -22 67 6 101 29 132 89 20 37 23 55 19 111 -3 46 0 71 8 78 19 16 11 71 -15 92 -29 23 -55 23 -80 -2 -24 -24 -25 -49 -5 -76 22 -29 19 -32 -39 -50 -52 -17 -106 -14 -106 6 0 5 20 32 45 60 50 57 55 80 23 110 -26 24 -103 27 -130 6z m279 -92 c3 -8 1 -20 -6 -27 -14 -14 -47 15 -37 32 10 16 36 13 43 -5z m-39 -232 c-26 -52 -76 -80 -123 -68 -48 12 -33 47 58 127 l82 73 3 -43 c2 -30 -4 -57 -20 -89z"/>
<path d="M5650 2313 c-12 -15 -20 -38 -18 -52 2 -21 11 -28 46 -36 45 -11 55 -25 28 -37 -9 -5 -24 -12 -33 -17 -29 -14 -22 -36 10 -34 41 3 99 49 95 76 -3 21 -19 29 -81 42 -33 7 -31 31 2 28 26 -3 38 21 21 42 -19 23 -46 18 -70 -12z"/>
<path d="M3743 2318 c-16 -20 -33 -78 -33 -109 0 -34 36 -71 65 -67 11 1 30 -3 42 -10 32 -18 60 -15 105 10 86 49 94 155 13 177 -45 12 -85 -5 -92 -40 -3 -16 -11 -29 -19 -29 -7 0 -18 -16 -25 -35 -21 -57 -56 -42 -45 20 5 26 11 32 25 28 21 -5 32 15 24 46 -6 24 -44 29 -60 9z m195 -40 c13 -13 16 -47 6 -73 -4 -9 -24 -25 -45 -35 -52 -27 -92 -11 -54 20 9 7 15 23 13 34 -4 25 29 66 52 66 9 0 21 -5 28 -12z"/>
<path d="M4029 2309 c-13 -13 -19 -30 -17 -47 3 -26 10 -30 98 -59 23 -8 -19 -22 -46 -16 -26 6 -39 -20 -19 -37 11 -9 26 -8 64 5 90 30 91 63 0 85 -27 7 -52 16 -55 21 -11 18 18 41 43 34 32 -8 47 3 32 21 -17 21 -76 17 -100 -7z"/>
<path d="M5879 2257 c-57 -91 -70 -127 -45 -127 11 0 106 147 106 165 0 3 -8 5 -17 5 -10 0 -30 -19 -44 -43z"/>
<path d="M2310 2272 c-6 -2 -10 -10 -10 -17 0 -8 19 -16 50 -20 54 -7 200 3 200 15 0 7 -222 28 -240 22z"/>
<path d="M3336 2194 c-12 -30 -6 -93 10 -108 8 -9 28 -16 44 -16 54 0 81 79 40 120 -25 25 -85 27 -94 4z m64 -29 c15 -18 5 -68 -13 -62 -14 4 -23 77 -9 77 5 0 15 -7 22 -15z"/>
<path d="M5275 2146 c-19 -45 -19 -76 1 -104 31 -45 103 -20 124 43 10 30 9 40 -4 60 -9 14 -26 25 -39 25 -12 0 -32 3 -45 6 -18 5 -25 0 -37 -30z m91 -20 c9 -23 -19 -71 -41 -71 -22 0 -30 24 -21 61 5 17 13 24 32 24 13 0 27 -6 30 -14z"/>
<path d="M1870 2151 c-5 -11 -10 -32 -10 -48 0 -15 -6 -56 -14 -91 -9 -46 -10 -65 -2 -72 15 -12 32 0 41 29 7 24 8 24 21 6 21 -29 174 -41 174 -14 0 4 -21 11 -47 14 -111 14 -114 21 -53 113 22 33 40 65 40 71 0 24 -36 9 -78 -31 l-43 -43 7 43 c5 35 4 42 -9 42 -9 0 -21 -9 -27 -19z"/>
<path d="M5840 1413 c-779 -11 -1382 -29 -1945 -58 -491 -25 -621 -27 -1060 -15 -661 18 -1607 28 -1628 18 -10 -5 -16 -16 -13 -24 3 -8 -1 -14 -9 -14 -13 0 -15 -24 -15 -141 0 -156 -54 -833 -70 -874 -6 -15 -10 -46 -10 -70 0 -59 19 -70 98 -56 55 10 364 20 1386 42 270 5 493 12 497 15 4 2 256 8 560 14 305 5 689 14 854 20 165 6 563 15 885 19 401 6 597 12 623 20 47 15 68 52 45 78 -15 19 -45 214 -55 363 -7 106 11 283 43 438 47 220 47 234 11 230 -12 -1 -101 -4 -197 -5z m173 -40 c4 -8 -4 -57 -38 -238 -10 -51 -19 -164 -22 -261 -5 -171 0 -234 41 -442 l14 -73 -37 -16 c-30 -14 -94 -18 -386 -24 -192 -4 -431 -7 -530 -8 -162 0 -177 1 -153 14 14 8 36 34 47 58 24 50 51 164 51 219 0 33 4 39 53 66 55 31 105 78 94 88 -3 4 -24 -7 -45 -24 -41 -33 -92 -57 -92 -44 0 4 6 16 14 27 7 11 14 41 14 66 1 53 -23 85 -75 95 -77 15 -101 -93 -29 -133 17 -9 8 -15 -62 -37 -97 -30 -192 -44 -192 -28 0 6 16 23 36 38 65 50 81 108 39 149 -43 44 -142 26 -133 -24 5 -25 44 -26 51 -2 6 25 29 27 51 5 26 -25 19 -42 -38 -102 -59 -62 -70 -89 -44 -105 28 -19 200 19 311 67 14 7 17 3 17 -18 0 -20 -9 -30 -42 -47 -85 -43 -137 -102 -158 -177 -13 -52 1 -114 31 -136 19 -13 16 -15 -43 -20 -67 -6 -683 -22 -1208 -31 -173 -3 -400 -10 -505 -15 -104 -5 -462 -14 -795 -20 -333 -6 -720 -15 -860 -19 -140 -5 -257 -7 -260 -4 -2 2 0 7 7 11 6 4 11 46 12 102 1 52 15 241 32 420 20 213 29 367 27 448 -3 105 -1 122 12 122 9 0 20 4 25 8 6 4 336 3 735 -3 962 -13 1702 -12 1930 3 229 15 631 31 992 41 375 11 1106 13 1111 4z m-1025 -545 c7 -7 12 -22 12 -35 0 -18 -6 -23 -24 -23 -30 0 -50 23 -41 50 7 22 34 27 53 8z m-32 -268 c-10 -88 -34 -161 -64 -192 -83 -88 -125 67 -45 163 25 29 99 89 111 89 2 0 2 -27 -2 -60z"/>
<path d="M5340 1223 c-82 -4 -1518 -26 -1741 -27 -126 -1 -172 2 -193 13 -24 13 -28 13 -44 -5 -10 -10 -39 -62 -64 -114 -37 -74 -181 -328 -286 -505 -17 -27 -7 61 19 173 26 116 20 127 -70 118 -139 -12 -171 -18 -171 -32 0 -24 19 -25 104 -8 113 22 118 20 100 -48 -17 -65 -39 -280 -31 -302 14 -36 37 -12 95 96 33 62 96 176 140 253 44 77 97 175 118 218 21 42 44 77 50 77 6 0 14 9 17 19 4 17 11 19 68 14 34 -4 180 -1 323 5 272 12 500 17 1369 28 l517 7 0 -47 c0 -59 18 -58 39 1 25 71 22 73 -146 71 -81 -1 -177 -3 -213 -5z"/>
<path d="M3901 1037 c-16 -20 -3 -27 39 -21 27 4 41 2 53 -11 27 -26 20 -43 -33 -81 -27 -20 -50 -39 -50 -44 0 -19 34 -32 92 -33 78 -2 90 15 19 26 l-53 9 36 24 c58 40 61 101 6 129 -36 19 -94 19 -109 2z"/>
<path d="M5291 1026 c-6 -8 -22 -56 -35 -107 -21 -83 -27 -94 -47 -97 -50 -6 -56 -12 -31 -32 25 -20 28 -57 11 -129 -7 -30 -7 -47 1 -55 15 -15 30 5 41 55 27 127 28 129 73 129 23 0 65 6 94 14 29 7 52 10 52 7 0 -3 -11 -41 -25 -84 -28 -86 -32 -127 -12 -127 7 0 27 46 45 105 19 57 47 124 63 147 35 53 36 68 4 68 -19 0 -29 -9 -41 -34 -19 -38 -52 -52 -152 -62 l-60 -7 15 63 c8 34 20 81 28 104 8 22 15 44 15 49 0 12 -27 8 -39 -7z"/>
<path d="M1676 972 c-3 -5 6 -35 19 -68 13 -32 31 -110 40 -173 17 -122 25 -145 53 -160 38 -20 66 9 166 179 38 63 78 123 89 133 14 12 17 21 10 28 -21 21 -51 -11 -117 -119 -95 -158 -126 -199 -137 -179 -5 8 -18 73 -29 144 -24 157 -45 223 -70 223 -11 0 -21 -4 -24 -8z"/>
<path d="M3697 838 c-24 -35 -59 -89 -78 -120 -31 -53 -34 -56 -42 -35 -5 12 -7 60 -5 107 3 80 2 85 -18 88 -19 3 -22 -3 -26 -45 -3 -26 -1 -77 3 -113 17 -145 47 -158 108 -47 22 39 60 101 85 136 26 36 46 71 46 78 0 30 -32 9 -73 -49z"/>
<path d="M4364 849 l-7 -51 -76 4 c-66 3 -76 1 -79 -14 -3 -16 6 -18 77 -18 l80 0 3 -40 c4 -52 21 -52 32 -1 9 40 9 40 59 43 73 4 75 28 3 28 -53 0 -56 1 -56 24 0 14 6 31 14 39 17 17 3 37 -26 37 -13 0 -19 -11 -24 -51z"/>
<path d="M2425 799 c-4 -6 -3 -15 2 -20 12 -12 228 3 228 16 0 15 -221 19 -230 4z"/>
<path d="M2530 701 c-84 -5 -105 -9 -105 -21 0 -30 241 -10 261 21 3 5 -7 8 -23 7 -15 -1 -75 -4 -133 -7z"/>
<path d="M3770 655 c0 -10 10 -15 28 -15 51 0 65 -35 37 -90 -17 -33 -69 -65 -91 -56 -18 7 -18 40 2 77 16 31 13 59 -6 59 -19 0 -50 -65 -50 -106 0 -50 14 -64 64 -64 95 0 175 131 116 190 -25 25 -100 29 -100 5z"/>
<path d="M2006 638 c-4 -14 -18 -151 -20 -203 -2 -44 24 -38 41 10 18 52 33 67 33 33 0 -56 95 -88 165 -56 41 19 29 29 -28 22 -102 -12 -124 27 -57 100 71 77 41 103 -49 41 l-52 -34 3 47 c2 38 0 47 -15 50 -9 2 -19 -2 -21 -10z"/>
</g><g transform="translate(1142.639124, 1365.1016415993843) scale(0.40808740102544044)"><g transform="translate(-57.706759,297.537395) scale(0.100000,-0.100000)" fill="#4444bb" stroke="none">
<path d="M750 2973 c-57 -10 -88 -25 -119 -57 -40 -41 -55 -100 -46 -179 6 -45 12 -61 32 -77 32 -25 35 -25 64 -1 22 17 24 26 21 89 -4 105 24 120 164 87 33 -7 119 -19 190 -25 88 -8 134 -16 144 -26 32 -32 8 -420 -28 -456 -18 -18 -126 -28 -289 -28 -185 0 -206 -4 -250 -52 -55 -58 -58 -82 -55 -363 1 -145 7 -274 13 -293 11 -34 51 -62 89 -62 12 0 35 14 52 31 l31 30 -6 238 c-3 130 -3 249 0 264 l5 27 112 0 c234 1 363 26 423 82 58 54 98 260 91 463 -4 122 -7 138 -34 191 -40 81 -79 100 -217 108 -174 10 -361 14 -387 9z" fill="#4444bb"/>
<path d="M3660 2971 c-42 -9 -83 -34 -103 -65 -39 -59 -50 -127 -54 -343 -5 -206 -5 -212 18 -252 28 -50 78 -86 143 -102 48 -12 257 -8 370 7 l49 7 -7 -104 c-4 -57 -11 -189 -16 -294 -9 -177 -9 -192 8 -214 35 -47 100 -46 136 2 22 29 27 86 42 452 7 191 0 235 -44 283 -45 48 -92 56 -241 38 -146 -18 -229 -20 -265 -6 l-26 10 0 162 c0 156 8 230 27 249 5 5 99 6 210 2 l201 -6 5 -50 c3 -39 11 -56 31 -74 34 -29 48 -29 80 0 24 20 26 30 28 113 4 147 -23 169 -218 179 -242 11 -340 13 -374 6z" fill="#4444bb"/>
<path d="M1565 2945 c-14 -13 -25 -32 -25 -42 0 -10 -1 -297 -3 -638 -2 -677 -3 -662 55 -694 33 -19 73 -7 101 31 18 24 20 51 29 300 5 150 10 278 12 283 2 6 37 8 97 3 52 -3 135 -7 186 -7 154 -2 161 -10 143 -176 -21 -189 -27 -310 -18 -343 12 -45 45 -72 86 -72 71 0 102 46 102 151 0 33 7 118 16 187 24 190 9 280 -58 349 -50 52 -112 67 -263 65 -71 -1 -164 -6 -205 -11 -41 -4 -78 -7 -81 -5 -4 2 -10 108 -13 236 -9 286 -17 352 -47 384 -31 33 -82 32 -114 -1z" fill="#4444bb"/>
<path d="M2542 2944 c-55 -38 -64 -109 -53 -419 6 -186 9 -215 28 -250 50 -95 116 -125 302 -135 75 -4 171 -5 215 -1 l78 7 -4 -178 c-2 -97 -7 -181 -11 -184 -4 -4 -42 1 -85 11 -104 26 -285 27 -363 3 -106 -33 -149 -107 -99 -170 26 -34 68 -41 132 -21 74 23 202 20 308 -7 182 -47 274 5 301 168 12 77 27 831 19 994 -7 152 -20 181 -86 186 -88 7 -103 -51 -104 -401 l0 -219 -201 4 c-197 3 -201 3 -220 27 -18 21 -19 42 -19 283 l0 260 -29 29 c-33 33 -74 38 -109 13z" fill="#4444bb"/>
<path d="M2374 1391 c-55 -34 -79 -78 -79 -147 0 -51 4 -66 27 -96 35 -45 102 -73 153 -64 78 15 146 111 131 188 -20 108 -145 172 -232 119z" fill="#4444bb"/>
<path d="M1853 999 c-39 -11 -66 -56 -61 -101 6 -59 69 -64 76 -6 4 30 34 38 145 38 l67 0 0 -110 c0 -135 -1 -136 -132 -126 -85 6 -89 6 -113 -18 -24 -25 -25 -28 -25 -179 0 -162 4 -177 47 -177 35 0 43 29 43 159 l0 121 73 0 c85 0 141 14 168 41 17 17 19 34 19 169 0 147 -1 152 -25 175 -23 24 -30 25 -137 24 -62 0 -128 -5 -145 -10z" fill="#4444bb"/>
<path d="M2985 1000 c-91 -16 -93 -18 -104 -58 -15 -51 -14 -537 0 -564 19 -36 69 -48 204 -48 121 0 127 1 151 25 l24 24 -2 292 -3 292 -26 19 c-31 23 -161 33 -244 18z m169 -86 c14 -5 16 -37 16 -250 l0 -245 -102 3 -103 3 0 240 0 240 40 6 c57 9 131 10 149 3z" fill="#4444bb"/>
<path d="M2351 971 c-24 -24 -29 -73 -37 -372 -6 -232 -6 -237 15 -258 23 -23 29 -25 51 -11 12 7 16 40 20 150 l5 141 35 -23 c19 -13 59 -55 88 -93 30 -39 78 -96 108 -128 47 -51 56 -57 74 -47 29 16 25 42 -15 92 -19 24 -62 78 -95 121 -61 77 -61 77 -33 77 15 0 46 9 69 19 56 26 67 57 62 179 -6 156 -27 172 -220 172 -93 0 -111 -3 -127 -19z m257 -74 c16 -13 17 -168 0 -185 -7 -7 -41 -12 -84 -12 -40 0 -84 -4 -98 -10 l-26 -10 0 120 0 119 98 -6 c53 -3 103 -10 110 -16z" fill="#4444bb"/>
</g>
</g>
</svg>
