<?xml version="1.0" encoding="UTF-8" standalone="no"?>
<svg
   xml:lang="en"
   height="86.849998pt"
   width="227.026pt"
   viewBox="-105.27307 -75.7505 227.02601 86.849999"
   version="1.1"
   id="svg24"
   sodipodi:docname="825t.svg"
   inkscape:version="1.3 (0e150ed, 2023-07-21)"
   xmlns:inkscape="http://www.inkscape.org/namespaces/inkscape"
   xmlns:sodipodi="http://sodipodi.sourceforge.net/DTD/sodipodi-0.dtd"
   xmlns="http://www.w3.org/2000/svg"
   xmlns:svg="http://www.w3.org/2000/svg">
  <defs
     id="defs24" />
  <sodipodi:namedview
     id="namedview24"
     pagecolor="#ffffff"
     bordercolor="#000000"
     borderopacity="0.25"
     inkscape:showpageshadow="2"
     inkscape:pageopacity="0.0"
     inkscape:pagecheckerboard="0"
     inkscape:deskcolor="#d1d1d1"
     inkscape:document-units="pt"
     inkscape:zoom="1.5866795"
     inkscape:cx="147.16268"
     inkscape:cy="57.982725"
     inkscape:window-width="1312"
     inkscape:window-height="449"
     inkscape:window-x="0"
     inkscape:window-y="25"
     inkscape:window-maximized="0"
     inkscape:current-layer="svg24" />
  <path
     d="m -8.747074,-1.9505 h 61.7625 m 6.075,0 h 61.762504"
     style="fill:none;stroke:#000000;stroke-width:1.8;stroke-linecap:round;stroke-linejoin:round"
     id="path1" />
  <path
     d="m 59.090426,10.1995 v -24.3"
     style="fill:none;stroke:#000000;stroke-width:1.8;stroke-linecap:round;stroke-linejoin:round"
     id="path2" />
  <path
     d="m 53.015426,4.1245 v -12.15"
     style="fill:none;stroke:#000000;stroke-width:1.8;stroke-linecap:round;stroke-linejoin:round"
     id="path3" />
  <path
     d="m 120.85293,-1.9505 v -32.4 -32.4"
     style="fill:none;stroke:#000000;stroke-width:1.8;stroke-linecap:round;stroke-linejoin:round"
     id="path4" />
  <path
     d="M 120.85293,-66.7505 H 72.252926 v 8.1 h -32.4 v -16.2 h 32.4 v 8.1 m -32.4,0 h -48.6"
     style="fill:none;stroke:#000000;stroke-width:1.8;stroke-linecap:round;stroke-linejoin:round"
     id="path5" />
  <path
     d="m -8.747074,-66.7505 v 29.484 m 8.1,0 h -16.2 m 16.2,5.832 h -16.2 m 8.1,0 v 29.484"
     style="fill:none;stroke:#000000;stroke-width:1.8;stroke-linecap:round;stroke-linejoin:round"
     id="path6" />
  <path
     d="m -8.747074,-66.7505 h -32.4 -32.4"
     style="fill:none;stroke:#000000;stroke-width:1.8;stroke-linecap:round;stroke-linejoin:round"
     id="path7" />
  <path
     d="m -73.547074,-66.7505 v 16.2 h 8.1 v 32.4 h -16.2 v -32.4 h 8.1 m 0,32.4 v 16.2"
     style="fill:none;stroke:#000000;stroke-width:1.8;stroke-linecap:round;stroke-linejoin:round"
     id="path8" />
  <path
     d="m -73.547074,-1.9505 h 22.68 m 4.6656,-1.944 10.8864,-6.804 m 3.888,8.748 h 22.68"
     style="fill:none;stroke:#000000;stroke-width:1.8;stroke-linecap:round;stroke-linejoin:round"
     id="path9" />
  <g
     id="g12"
     transform="translate(-8.747074,-1.9505)">
    <g
       id="g11">
      <g
         id="g10">
        <path
           d="m 78.322,-5.106 v 0 q -2.04,0 -3.18,-0.91 -1.14,-0.91 -1.14,-2.45 0,-1.24 0.67,-2.1 0.67,-0.86 1.75,-1.36 1.08,-0.5 2.3,-0.66 v -0.12 q -0.96,-0.3 -1.64,-1.02 -0.68,-0.72 -0.68,-1.78 0,-0.84 0.42,-1.44 0.42,-0.6 1.12,-1 0.7,-0.4 1.55,-0.59 0.85,-0.19 1.69,-0.19 0.74,0 1.5,0.18 0.76,0.18 1.28,0.63 0.52,0.45 0.52,1.31 0,0.74 -0.38,1.08 -0.38,0.34 -0.78,0.34 -0.32,0 -0.56,-0.19 -0.24,-0.19 -0.24,-0.57 0,-0.22 0.06,-0.53 0.06,-0.31 0.06,-0.57 0,-0.44 -0.29,-0.72 -0.29,-0.28 -1.17,-0.28 -1.38,0 -2.17,0.73 -0.79,0.73 -0.79,2.03 0,1.08 0.52,1.6 0.52,0.52 1.33,0.68 0.81,0.16 1.65,0.16 l -0.1,0.8 q -3,0 -4.32,0.78 -1.32,0.78 -1.32,2.6 0,1.46 0.73,2.14 0.73,0.68 1.95,0.68 2.4,0 3.54,-2.68 l 0.36,-0.1 q 0.14,0.2 0.33,0.55 0.19,0.35 0.19,0.51 0,0.16 -0.27,0.55 -0.27,0.39 -0.84,0.83 -0.57,0.44 -1.47,0.76 -0.9,0.32 -2.18,0.32 z"
           fill="#000000"
           id="path10" />
      </g>
    </g>
  </g>
  <circle
     cx="-8.7470741"
     cy="-66.750504"
     r="2.4300001"
     style="fill:#000000;stroke:#000000;stroke-width:1.8"
     id="circle12" />
  <g
     id="g15"
     transform="translate(-8.747074,-1.9505)">
    <g
       id="g14">
      <g
         id="g13">
        <path
           d="m 65.047,-48.84 v 0 q 0,1.06 -0.4,1.78 -0.4,0.72 -1.04,1.18 -0.64,0.46 -1.37,0.71 -0.73,0.25 -1.39,0.37 v 0.1 q 0.36,0.24 0.68,0.73 0.32,0.49 0.79,1.41 0.47,0.92 1.29,2.48 0.34,0.6 0.75,0.81 0.41,0.21 1.09,0.21 l -0.12,0.6 h -3.04 q -0.56,-1.24 -0.94,-2.07 -0.38,-0.83 -0.66,-1.39 -0.28,-0.56 -0.49,-1 -0.21,-0.44 -0.45,-0.9 -0.22,-0.42 -0.48,-0.55 -0.26,-0.13 -0.8,-0.13 h -0.42 l -0.74,3.56 q -0.16,0.82 -0.11,1.23 0.05,0.41 0.45,0.53 0.4,0.12 1.26,0.12 l -0.1,0.6 h -5.52 l 0.12,-0.6 q 0.74,0 1.14,-0.12 0.4,-0.12 0.61,-0.52 0.21,-0.4 0.37,-1.24 l 1.76,-8.58 q 0.12,-0.56 0.06,-0.88 -0.06,-0.32 -0.41,-0.46 -0.35,-0.14 -1.15,-0.14 l 0.12,-0.6 h 4.7 q 2.1,0 3.27,0.65 1.17,0.65 1.17,2.11 z m -5.74,-1.92 v 0 l -1.12,5.52 0.62,0.02 q 1.2,-0.04 2.17,-0.39 0.97,-0.35 1.53,-1.11 0.56,-0.76 0.56,-2.04 0,-0.54 -0.23,-1.01 -0.23,-0.47 -0.79,-0.76 -0.56,-0.29 -1.56,-0.29 -0.38,0 -0.61,0.01 -0.23,0.01 -0.57,0.05 z"
           fill="#000000"
           id="path12" />
        <path
           d="m 73.213,-36.696 v 0 l -0.476,2.436 h -5.74 v -0.686 l 1.988,-2.016 q 0.784,-0.784 1.295,-1.386 0.511,-0.602 0.763,-1.211 0.252,-0.609 0.252,-1.393 0,-0.742 -0.455,-1.225 -0.455,-0.483 -1.281,-0.483 -0.756,0 -1.267,0.301 -0.511,0.301 -0.903,0.987 l -0.378,-0.182 q 0.35,-0.98 1.085,-1.54 0.735,-0.56 1.813,-0.56 0.84,0 1.484,0.301 0.644,0.301 1.008,0.861 0.364,0.56 0.364,1.358 0,0.686 -0.308,1.288 -0.308,0.602 -0.875,1.232 -0.567,0.63 -1.351,1.4 l -1.75,1.694 v 0.098 l 1.092,-0.056 h 1.82 q 0.406,0 0.623,-0.112 0.217,-0.112 0.371,-0.385 0.154,-0.273 0.336,-0.721 z"
           fill="#000000"
           id="path13" />
      </g>
    </g>
  </g>
  <circle
     cx="-8.7470741"
     cy="-1.9505"
     r="2.4300001"
     style="fill:#000000;stroke:#000000;stroke-width:1.8"
     id="circle15" />
  <g
     id="g18"
     transform="translate(-8.747074,-1.9505)">
    <g
       id="g17">
      <g
         id="g16">
        <path
           d="m 22.68,-30.495 v 0 l 0.36,0.38 q -1.02,1.2 -2.36,1.97 -1.34,0.77 -3.24,0.77 -1.8,0 -2.88,-0.67 -1.08,-0.67 -1.55,-1.79 -0.47,-1.12 -0.47,-2.44 0,-2.1 0.64,-3.73 0.64,-1.63 1.75,-2.74 1.11,-1.11 2.51,-1.68 1.4,-0.57 2.92,-0.57 1.02,0 1.59,0.18 0.57,0.18 0.89,0.37 0.32,0.19 0.56,0.19 0.24,0 0.42,-0.2 0.18,-0.2 0.42,-0.52 h 0.58 l -0.94,4.58 h -0.66 q 0.08,-2 -0.74,-2.87 -0.82,-0.87 -2.3,-0.87 -1.16,0 -2.18,0.53 -1.02,0.53 -1.81,1.5 -0.79,0.97 -1.24,2.32 -0.45,1.35 -0.45,3.01 0,2 0.95,3.05 0.95,1.05 2.93,1.05 2.3,0 4.3,-1.82 z"
           fill="#000000"
           id="path15" />
      </g>
    </g>
  </g>
  <g
     id="g21"
     transform="translate(-8.747074,-1.9505)">
    <g
       id="g20">
      <g
         id="g19">
        <path
           d="m -84.766,-41.31 v 0 q 0,1.06 -0.4,1.78 -0.4,0.72 -1.04,1.18 -0.64,0.46 -1.37,0.71 -0.73,0.25 -1.39,0.37 v 0.1 q 0.36,0.24 0.68,0.73 0.32,0.49 0.79,1.41 0.47,0.92 1.29,2.48 0.34,0.6 0.75,0.81 0.41,0.21 1.09,0.21 l -0.12,0.6 h -3.04 q -0.56,-1.24 -0.94,-2.07 -0.38,-0.83 -0.66,-1.39 -0.28,-0.56 -0.49,-1 -0.21,-0.44 -0.45,-0.9 -0.22,-0.42 -0.48,-0.55 -0.26,-0.13 -0.8,-0.13 h -0.42 l -0.74,3.56 q -0.16,0.82 -0.11,1.23 0.05,0.41 0.45,0.53 0.4,0.12 1.26,0.12 l -0.1,0.6 h -5.52 l 0.12,-0.6 q 0.74,0 1.14,-0.12 0.4,-0.12 0.61,-0.52 0.21,-0.4 0.37,-1.24 l 1.76,-8.58 q 0.12,-0.56 0.06,-0.88 -0.06,-0.32 -0.41,-0.46 -0.35,-0.14 -1.15,-0.14 l 0.12,-0.6 h 4.7 q 2.1,0 3.27,0.65 1.17,0.65 1.17,2.11 z m -5.74,-1.92 v 0 l -1.12,5.52 0.62,0.02 q 1.2,-0.04 2.17,-0.39 0.97,-0.35 1.53,-1.11 0.56,-0.76 0.56,-2.04 0,-0.54 -0.23,-1.01 -0.23,-0.47 -0.79,-0.76 -0.56,-0.29 -1.56,-0.29 -0.38,0 -0.61,0.01 -0.23,0.01 -0.57,0.05 z"
           fill="#000000"
           id="path18" />
        <path
           d="m -77.398,-26.73 v 0 h -4.746 v -0.504 q 1.008,0 1.337,-0.203 0.329,-0.203 0.329,-0.735 v -6.104 q 0,-0.378 -0.112,-0.546 -0.112,-0.168 -0.406,-0.168 -0.224,0 -0.609,0.063 -0.385,0.063 -0.665,0.133 v -0.56 l 2.59,-0.714 h 0.602 v 7.896 q 0,0.532 0.357,0.735 0.357,0.203 1.323,0.203 z"
           fill="#000000"
           id="path19" />
      </g>
    </g>
  </g>
  <circle
     cx="-48.534275"
     cy="-1.9505"
     r="2.3327999"
     style="fill:#ffffff;stroke:#000000;stroke-width:1.8"
     id="circle21" />
  <circle
     cx="-33.759872"
     cy="-1.9505"
     r="2.3327999"
     style="fill:#ffffff;stroke:#000000;stroke-width:1.8"
     id="circle22" />
  <g
     id="g24"
     transform="translate(-8.747074,-1.9505)">
    <g
       id="g23">
      <g
         id="g22">
        <path
           d="m -36.42,-16.312 v 0 -7.88 q 0,-0.78 -0.1,-1.23 -0.1,-0.45 -0.51,-0.63 -0.41,-0.18 -1.37,-0.18 v -0.6 h 5.76 v 0.6 q -0.94,0 -1.36,0.18 -0.42,0.18 -0.51,0.63 -0.09,0.45 -0.09,1.23 v 3.76 h 0.1 l 3.24,-3.16 q 0.7,-0.66 1.06,-1.12 0.36,-0.46 0.36,-0.9 0,-0.32 -0.17,-0.47 -0.17,-0.15 -0.59,-0.15 h -0.32 v -0.6 h 4.9 v 0.6 q -0.56,0.02 -0.95,0.16 -0.39,0.14 -0.76,0.43 -0.37,0.29 -0.91,0.79 l -4.34,4.06 5.74,5.64 q 0.5,0.46 0.92,0.66 0.42,0.2 1.16,0.2 v 0.6 h -5.78 v -0.6 h 0.4 q 0.78,0 0.78,-0.4 0,-0.5 -0.69,-1.24 -0.69,-0.74 -2.21,-2.22 l -1.76,-1.76 h -0.18 v 3.6 q 0,0.84 0.12,1.27 0.12,0.43 0.54,0.59 0.42,0.16 1.3,0.16 v 0.6 h -5.76 v -0.6 q 0.92,0 1.33,-0.14 0.41,-0.14 0.53,-0.57 0.12,-0.43 0.12,-1.31 z"
           fill="#000000"
           id="path22" />
      </g>
    </g>
  </g>
</svg>
