<?xml version="1.0" encoding="UTF-8" standalone="no"?>
<!-- Created with Inkscape (http://www.inkscape.org/) -->

<svg
   version="1.1"
   id="svg1"
   width="253.43999"
   height="350.47772"
   viewBox="0 0 253.43998 350.47773"
   sodipodi:docname="827t.svg"
   inkscape:version="1.3 (0e150ed, 2023-07-21)"
   xmlns:inkscape="http://www.inkscape.org/namespaces/inkscape"
   xmlns:sodipodi="http://sodipodi.sourceforge.net/DTD/sodipodi-0.dtd"
   xmlns="http://www.w3.org/2000/svg"
   xmlns:svg="http://www.w3.org/2000/svg">
  <defs
     id="defs1">
    <clipPath
       clipPathUnits="userSpaceOnUse"
       id="clipPath3">
      <path
         d="M 72,72 H 1972.8 V 2733.12 H 72 Z"
         transform="translate(0,-2.5e-5)"
         id="path3" />
    </clipPath>
    <clipPath
       clipPathUnits="userSpaceOnUse"
       id="clipPath5">
      <path
         d="M 0,0 V 720 H 720 V 0 Z"
         id="path5" />
    </clipPath>
    <pattern
       patternTransform="matrix(0.999995,0,0,0.999995,0,280.5)"
       patternUnits="userSpaceOnUse"
       x="0"
       y="0"
       width="72"
       height="72"
       id="pattern6"
       inkscape:label="pattern6">
      <path
         d="m -360,360 720,720 M -300,300 420,1020 M -240,240 480,960 M -180,180 540,900 M -120,120 600,840 M -60,60 660,780 M 0,0 720,720 M 60,-60 780,660 M 120,-120 840,600 M 180,-180 900,540 M 240,-240 960,480 m -660,-780 720,720 m -660,-780 720,720"
         style="fill:#ffffff;fill-opacity:1;fill-rule:nonzero;stroke:#000000;stroke-opacity:1;stroke-width:15;stroke-linecap:butt;stroke-linejoin:miter;stroke-miterlimit:10;stroke-dasharray:none"
         transform="scale(0.1)"
         clip-path="url(#clipPath5)"
         id="path6" />
    </pattern>
    <clipPath
       clipPathUnits="userSpaceOnUse"
       id="clipPath7">
      <path
         d="m 72,2543.04 h 1900.8 v 190.082 H 72 Z"
         transform="translate(0,-2.5e-5)"
         id="path7" />
    </clipPath>
    <clipPath
       clipPathUnits="userSpaceOnUse"
       id="clipPath9">
      <path
         d="M 72,72 H 1972.8 V 2733.12 H 72 Z"
         transform="translate(0,-2.5e-5)"
         id="path9" />
    </clipPath>
    <clipPath
       clipPathUnits="userSpaceOnUse"
       id="clipPath11">
      <path
         d="M 72,72 H 1972.8 V 2733.12 H 72 Z"
         transform="translate(0,-2.5e-5)"
         id="path11" />
    </clipPath>
    <clipPath
       clipPathUnits="userSpaceOnUse"
       id="clipPath13">
      <path
         d="M 72,72 H 1972.8 V 2733.12 H 72 Z"
         transform="translate(0,-2.5e-5)"
         id="path13" />
    </clipPath>
    <clipPath
       clipPathUnits="userSpaceOnUse"
       id="clipPath15">
      <path
         d="M 72,72 H 1972.8 V 2733.12 H 72 Z"
         transform="translate(0,-2.5e-5)"
         id="path15" />
    </clipPath>
    <clipPath
       clipPathUnits="userSpaceOnUse"
       id="clipPath17">
      <path
         d="M 72,72 H 1972.8 V 2733.12 H 72 Z"
         transform="translate(0,-2.5e-5)"
         id="path17" />
    </clipPath>
    <clipPath
       clipPathUnits="userSpaceOnUse"
       id="clipPath19">
      <path
         d="M 72,72 H 1972.8 V 2733.12 H 72 Z"
         transform="translate(0,-2.5e-5)"
         id="path19" />
    </clipPath>
    <clipPath
       clipPathUnits="userSpaceOnUse"
       id="clipPath21">
      <path
         d="M 72,72 H 1972.8 V 2733.12 H 72 Z"
         transform="translate(0,-2.5e-5)"
         id="path21" />
    </clipPath>
  </defs>
  <sodipodi:namedview
     id="namedview1"
     pagecolor="#ffffff"
     bordercolor="#000000"
     borderopacity="0.25"
     inkscape:showpageshadow="2"
     inkscape:pageopacity="0.0"
     inkscape:pagecheckerboard="0"
     inkscape:deskcolor="#d1d1d1"
     inkscape:zoom="1.2475596"
     inkscape:cx="82.961972"
     inkscape:cy="137.06761"
     inkscape:window-width="1440"
     inkscape:window-height="819"
     inkscape:window-x="0"
     inkscape:window-y="25"
     inkscape:window-maximized="0"
     inkscape:current-layer="g1">
    <inkscape:page
       x="0"
       y="0"
       inkscape:label="1"
       id="page1"
       width="253.43999"
       height="350.47772"
       margin="0"
       bleed="0" />
  </sodipodi:namedview>
  <g
     id="g1"
     inkscape:groupmode="layer"
     inkscape:label="1"
     transform="translate(-9.5999996,-9.5970754)">
    <path
       id="path2"
       d="M 72,2543.04 H 1972.8"
       style="fill:none;stroke:#000000;stroke-width:30;stroke-linecap:square;stroke-linejoin:round;stroke-miterlimit:10;stroke-dasharray:none;stroke-opacity:1"
       transform="matrix(0.13333333,0,0,-0.13333333,0,374.01333)"
       clip-path="url(#clipPath3)" />
    <path
       id="path4"
       d="m 72,2543.04 h 1900.8 v 190.082 H 72 Z"
       style="fill:url(#pattern6);fill-opacity:1;fill-rule:nonzero;stroke:none"
       transform="matrix(0.13333333,0,0,-0.13333333,0,374.01333)"
       clip-path="url(#clipPath7)" />
    <path
       id="path8"
       d="m 1735.2,1355.04 -142.56,-47.52 42.77,47.4 H 1022.4 v 0.24 h 613.01 l -42.77,47.4 142.56,-47.52"
       style="fill:#000000;fill-opacity:1;fill-rule:nonzero;stroke:none"
       transform="matrix(0.13333333,0,0,-0.13333333,0,374.01333)"
       clip-path="url(#clipPath9)" />
    <path
       id="path10"
       d="m 1735.2,1355.04 -142.56,-47.52 42.77,47.4 H 1022.4 v 0.24 h 613.01 l -42.77,47.4 z"
       style="fill:none;stroke:#000000;stroke-width:30;stroke-linecap:butt;stroke-linejoin:miter;stroke-miterlimit:10;stroke-dasharray:none;stroke-opacity:1"
       transform="matrix(0.13333333,0,0,-0.13333333,0,374.01333)"
       clip-path="url(#clipPath11)" />
    <path
       id="path12"
       d="M 1022.4,2543.04 V 167.039"
       style="fill:none;stroke:#000000;stroke-width:30;stroke-linecap:square;stroke-linejoin:round;stroke-miterlimit:10;stroke-dasharray:none;stroke-opacity:1"
       transform="matrix(0.13333333,0,0,-0.13333333,0,374.01333)"
       clip-path="url(#clipPath13)" />
    <path
       id="path14"
       d="m 1022.4,1297.54 c 15.25,0 29.88,6.06 40.66,16.84 10.78,10.78 16.84,25.41 16.84,40.66 0,15.25 -6.06,29.87 -16.84,40.66 -10.78,10.78 -25.41,16.84 -40.66,16.84 -15.25,0 -29.877,-6.06 -40.658,-16.84 -10.785,-10.79 -16.844,-25.41 -16.844,-40.66 0,-15.25 6.059,-29.88 16.844,-40.66 10.781,-10.78 25.408,-16.84 40.658,-16.84"
       style="fill:#000000;fill-opacity:1;fill-rule:nonzero;stroke:none"
       transform="matrix(0.13333333,0,0,-0.13333333,0,374.01333)"
       clip-path="url(#clipPath15)" />
    <path
       id="path16"
       d="m 1022.4,1297.54 c 15.25,0 29.88,6.06 40.66,16.84 10.78,10.78 16.84,25.41 16.84,40.66 0,15.25 -6.06,29.87 -16.84,40.66 -10.78,10.78 -25.41,16.84 -40.66,16.84 -15.25,0 -29.877,-6.06 -40.658,-16.84 -10.785,-10.79 -16.844,-25.41 -16.844,-40.66 0,-15.25 6.059,-29.88 16.844,-40.66 10.781,-10.78 25.408,-16.84 40.658,-16.84 z"
       style="fill:none;stroke:#000000;stroke-width:10;stroke-linecap:butt;stroke-linejoin:round;stroke-miterlimit:10;stroke-dasharray:none;stroke-opacity:1"
       transform="matrix(0.13333333,0,0,-0.13333333,0,374.01333)"
       clip-path="url(#clipPath17)" />
    <path
       id="path18"
       d="m 1022.4,109.539 c 15.25,0 29.88,6.059 40.66,16.844 10.78,10.781 16.84,25.406 16.84,40.656 0,15.25 -6.06,29.875 -16.84,40.66 -10.78,10.781 -25.41,16.84 -40.66,16.84 -15.25,0 -29.877,-6.059 -40.658,-16.84 -10.785,-10.785 -16.844,-25.41 -16.844,-40.66 0,-15.25 6.059,-29.875 16.844,-40.656 10.781,-10.785 25.408,-16.844 40.658,-16.844"
       style="fill:#000000;fill-opacity:1;fill-rule:nonzero;stroke:none"
       transform="matrix(0.13333333,0,0,-0.13333333,0,374.01333)"
       clip-path="url(#clipPath19)" />
    <path
       id="path20"
       d="m 1022.4,109.539 c 15.25,0 29.88,6.059 40.66,16.844 10.78,10.781 16.84,25.406 16.84,40.656 0,15.25 -6.06,29.875 -16.84,40.66 -10.78,10.781 -25.41,16.84 -40.66,16.84 -15.25,0 -29.877,-6.059 -40.658,-16.84 -10.785,-10.785 -16.844,-25.41 -16.844,-40.66 0,-15.25 6.059,-29.875 16.844,-40.656 10.781,-10.785 25.408,-16.844 40.658,-16.844 z"
       style="fill:none;stroke:#000000;stroke-width:10;stroke-linecap:butt;stroke-linejoin:round;stroke-miterlimit:10;stroke-dasharray:none;stroke-opacity:1"
       transform="matrix(0.13333333,0,0,-0.13333333,0,374.01333)"
       clip-path="url(#clipPath21)" />
    <g
       id="g21"
       aria-label="ℓ&#10;2"
       transform="matrix(1.3333333,0,0,1.3333333,162.552,101.71867)">
      <path
         id="path22"
         d="m 2.5654922,-4.7460312 c -1.75781251,1.734375 -2.20312501,2.15625 -2.20312501,2.2617187 0,0.1171875 0.10546875,0.3046875 0.3046875,0.3046875 0.140625,0 1.73437501,-1.5351562 1.95703121,-1.78125 0.1640625,1.8632813 0.8671875,4.30078125 3.0351563,4.30078125 1.1132812,0 2.1210937,-0.703125 2.5664062,-1.04296875 0.3632813,-0.26953125 1.6992188,-1.4179687 1.6992188,-1.6640625 0,-0.140625 -0.140625,-0.3046875 -0.28125,-0.3046875 -0.1054688,0 -0.5273438,0.4101563 -0.6328125,0.5273438 -0.984375,0.9492187 -2.203125,1.92187495 -3.3164063,1.92187495 -1.5117187,0 -1.7109375,-2.17968745 -1.7109375,-3.67968745 0,-0.28125 0,-1.453125 0.1992188,-1.6757813 1.640625,-1.6992187 6.8085933,-7.0312495 6.8085933,-11.9648435 0,-1.113281 -0.421875,-2.097656 -1.6171871,-2.097656 -2.6015625,0 -4.8515625,5.753906 -5.25,6.808593 -0.1054687,0.28125 -1.7226562,4.5820315 -1.5585937,8.0859378 z M 4.2412734,-6.4686875 C 4.2647109,-6.63275 5.5186172,-13.94525 7.8623672,-17.847594 c 0.4804687,-0.75 0.9492187,-1.230468 1.5117187,-1.230468 0.9492191,0 0.9960941,0.890625 0.9960941,1.511718 0,0.972657 -0.269532,3.480469 -2.6953128,6.996094 -0.7265625,1.03125 -1.8515625,2.4257813 -3.4335938,4.1015625 z m 0,0"
         style="fill:#000000;fill-opacity:1;fill-rule:nonzero;stroke:none" />
      <path
         id="path23"
         d="m 10.959047,33.68268 h -0.492188 c -0.28125,1.980468 -0.5039059,2.320312 -0.6210934,2.484375 -0.140625,0.222656 -2.1445312,0.222656 -2.53125,0.222656 H 1.9590469 c 0.9960937,-1.089844 2.953125,-3.070313 5.3203125,-5.355469 1.6992187,-1.617187 3.6796876,-3.515625 3.6796876,-6.28125 0,-3.28125 -2.6132814,-5.179687 -5.5429689,-5.179687 -3.0703125,0 -4.93359373,2.707031 -4.93359373,5.214843 0,1.089844 0.80859373,1.230469 1.13671873,1.230469 0.28125,0 1.1132813,-0.175781 1.1132813,-1.148437 0,-0.867188 -0.7265625,-1.113282 -1.1132813,-1.113282 -0.1640625,0 -0.328125,0.02344 -0.4453125,0.08203 0.5273438,-2.367188 2.1445313,-3.539063 3.8554688,-3.539063 2.4257812,0 4.0078125,1.921875 4.0078125,4.453125 0,2.4375 -1.4179688,4.523438 -3.0117188,6.339844 l -5.54296873,6.269531 v 0.644531 H 10.291078 Z m 0,0"
         style="fill:#000000;fill-opacity:1;fill-rule:nonzero;stroke:none" />
    </g>
    <path
       id="path24"
       d="m 1212.48,1918.28 h 127.934 v 9.9141 H 1212.48 Z"
       style="fill:#000000;fill-opacity:1;fill-rule:nonzero;stroke:none"
       transform="matrix(0.13333333,0,0,-0.13333333,0,374.01333)" />
    <g
       id="g24"
       aria-label="ℓ&#10;2"
       transform="matrix(1.3333333,0,0,1.3333333,162.552,260.11853)">
      <path
         id="path25"
         d="m 2.5654922,-4.7471031 c -1.75781251,1.734375 -2.20312501,2.15625 -2.20312501,2.2617187 0,0.1171875 0.10546875,0.3046875 0.3046875,0.3046875 0.140625,0 1.73437501,-1.5351562 1.95703121,-1.78125 0.1640625,1.8632813 0.8671875,4.30078128 3.0351563,4.30078128 1.1132812,0 2.1210937,-0.703125 2.5664062,-1.04296875 0.3632813,-0.26953125 1.6992188,-1.41796873 1.6992188,-1.66406253 0,-0.140625 -0.140625,-0.3046875 -0.28125,-0.3046875 -0.1054688,0 -0.5273438,0.4101563 -0.6328125,0.5273438 -0.984375,0.9492187 -2.203125,1.92187498 -3.3164063,1.92187498 -1.5117187,0 -1.7109375,-2.17968748 -1.7109375,-3.67968748 0,-0.28125 0,-1.453125 0.1992188,-1.6757813 1.640625,-1.6992187 6.8085933,-7.0312496 6.8085933,-11.9648436 0,-1.113281 -0.421875,-2.097656 -1.6171871,-2.097656 -2.6015625,0 -4.8515625,5.753906 -5.25,6.808593 -0.1054687,0.28125 -1.7226562,4.5820316 -1.5585937,8.0859379 z m 1.6757812,-1.7226563 c 0.023437,-0.1640625 1.2773438,-7.4765626 3.6210938,-11.3789066 0.4804687,-0.75 0.9492187,-1.230468 1.5117187,-1.230468 0.9492191,0 0.9960941,0.890625 0.9960941,1.511718 0,0.972657 -0.269532,3.480469 -2.6953128,6.996094 -0.7265625,1.0312501 -1.8515625,2.4257814 -3.4335938,4.1015626 z m 0,0"
         style="fill:#000000;fill-opacity:1;fill-rule:nonzero;stroke:none" />
      <path
         id="path26"
         d="m 10.959047,33.681608 h -0.492188 c -0.28125,1.980469 -0.5039059,2.320312 -0.6210934,2.484375 -0.140625,0.222656 -2.1445312,0.222656 -2.53125,0.222656 H 1.9590469 c 0.9960937,-1.089844 2.953125,-3.070312 5.3203125,-5.355469 1.6992187,-1.617187 3.6796876,-3.515625 3.6796876,-6.28125 0,-3.28125 -2.6132814,-5.179687 -5.5429689,-5.179687 -3.0703125,0 -4.93359373,2.707031 -4.93359373,5.214844 0,1.089843 0.80859373,1.230468 1.13671873,1.230468 0.28125,0 1.1132813,-0.175781 1.1132813,-1.148437 0,-0.867188 -0.7265625,-1.113281 -1.1132813,-1.113281 -0.1640625,0 -0.328125,0.02344 -0.4453125,0.08203 0.5273438,-2.367188 2.1445313,-3.539063 3.8554688,-3.539063 2.4257812,0 4.0078125,1.921875 4.0078125,4.453125 0,2.4375 -1.4179688,4.523438 -3.0117188,6.339844 l -5.54296873,6.269531 v 0.644532 H 10.291078 Z m 0,0"
         style="fill:#000000;fill-opacity:1;fill-rule:nonzero;stroke:none" />
    </g>
    <path
       id="path27"
       d="m 1212.48,730.281 h 127.934 v 9.91406 H 1212.48 Z"
       style="fill:#000000;fill-opacity:1;fill-rule:nonzero;stroke:none"
       transform="matrix(0.13333333,0,0,-0.13333333,0,374.01333)" />
    <g
       id="g27"
       aria-label="m&#10;2&#10;m&#10;1&#10;v"
       transform="matrix(1.3333333,0,0,1.3333333,51.840133,193.34133)">
      <path
         id="path28"
         d="m 5.7419703,-8.1690859 c 0.058594,-0.1757813 0.7617188,-1.5703125 1.7929688,-2.4609371 0.7148437,-0.667969 1.6640625,-1.113282 2.7539059,-1.113282 1.113282,0 1.511719,0.832032 1.511719,1.9570316 0,0.1640625 0,0.7148437 -0.339844,2.0273437 l -0.691406,2.8710938 c -0.222656,0.84375 -0.761719,2.90625 -0.8085937,3.2109375 -0.1171875,0.421875 -0.28125,1.14843746 -0.28125,1.25390621 0,0.3984375 0.3046875,0.703125 0.7265627,0.703125 0.832031,0 0.972656,-0.64453125 1.21875,-1.65234371 l 1.675781,-6.65625 c 0.05859,-0.2226563 1.511719,-3.7148441 4.582031,-3.7148441 1.113282,0 1.5,0.832032 1.5,1.9570316 0,1.5585937 -1.089843,4.59375 -1.699218,6.2695312 -0.246094,0.6679688 -0.386719,1.03125 -0.386719,1.5351563 0,1.25390621 0.855469,2.26171871 2.203125,2.26171871 2.589844,0 3.5625,-4.10156251 3.5625,-4.26562501 0,-0.140625 -0.105469,-0.2578125 -0.28125,-0.2578125 -0.246094,0 -0.269531,0.082031 -0.410156,0.5625 -0.644532,2.2265625 -1.675782,3.39843751 -2.789063,3.39843751 -0.28125,0 -0.726562,-0.0234375 -0.726562,-0.91406251 0,-0.7265625 0.328125,-1.6171875 0.445312,-1.9335937 0.503906,-1.3359375 1.757813,-4.6289063 1.757813,-6.2460938 0,-1.6640628 -0.972657,-2.9296878 -3.09375,-2.9296878 -1.875,0 -3.375,1.066407 -4.488282,2.7070316 -0.09375,-1.4999996 -1.007812,-2.7070316 -3.105468,-2.7070316 -2.4726567,0 -3.7851567,1.757813 -4.2890629,2.4609378 -0.082031,-1.5937498 -1.2304688,-2.4609378 -2.4609375,-2.4609378 -0.8085938,0 -1.4414063,0.398438 -1.9804688,1.453125 -0.4921875,1.0078128 -0.89062499,2.7070316 -0.89062499,2.8242191 0,0.1054687 0.1171875,0.2460937 0.30468749,0.2460937 0.2226563,0 0.2578125,-0.023437 0.421875,-0.6679687 0.421875,-1.6523441 0.9492188,-3.2929691 2.0625,-3.2929691 0.6445313,0 0.8671875,0.445313 0.8671875,1.277344 0,0.6210938 -0.28125,1.7109376 -0.46875,2.5664063 l -0.7851562,3.0117188 c -0.1171875,0.5390625 -0.421875,1.7929687 -0.5625,2.296875 -0.1875,0.7265625 -0.4921875,2.02734371 -0.4921875,2.16796871 0,0.3984375 0.3046875,0.703125 0.7148437,0.703125 0.3398438,0 0.7265625,-0.1640625 0.9492188,-0.5859375 0.058594,-0.140625 0.3046875,-1.11328121 0.4453125,-1.67578121 l 0.6210937,-2.5078125 z m 0,0"
         style="fill:#000000;fill-opacity:1;fill-rule:nonzero;stroke:none" />
      <path
         id="path29"
         d="m 32.035916,1.1619687 h -0.351563 c -0.199219,1.3828125 -0.351562,1.6171875 -0.433594,1.734375 -0.09375,0.1523438 -1.5,0.1523438 -1.78125,0.1523438 h -3.738281 c 0.703125,-0.7617188 2.0625,-2.14453125 3.726563,-3.75 1.183593,-1.125 2.578125,-2.4492188 2.578125,-4.3828125 0,-2.3085938 -1.839844,-3.6328125 -3.890625,-3.6328125 -2.144532,0 -3.457032,1.8867187 -3.457032,3.6445312 0,0.7617188 0.574219,0.8671875 0.808594,0.8671875 0.1875,0 0.773438,-0.1171875 0.773438,-0.8085937 0,-0.5976563 -0.503907,-0.7734375 -0.773438,-0.7734375 -0.117187,0 -0.234375,0.011719 -0.316406,0.058594 0.375,-1.6640625 1.5,-2.484375 2.695312,-2.484375 1.699219,0 2.8125,1.3476563 2.8125,3.1289063 0,1.6992187 -0.996093,3.1640625 -2.109375,4.4296875 L 24.688259,3.740094 v 0.4453125 h 6.878907 z m 0,0"
         style="fill:#000000;fill-opacity:1;fill-rule:nonzero;stroke:none" />
      <path
         id="path30"
         d="m 5.7419703,110.63267 c 0.058594,-0.17578 0.7617188,-1.57031 1.7929688,-2.46094 0.7148437,-0.66796 1.6640625,-1.11328 2.7539059,-1.11328 1.113282,0 1.511719,0.83203 1.511719,1.95703 0,0.16407 0,0.71485 -0.339844,2.02735 l -0.691406,2.87109 c -0.222656,0.84375 -0.761719,2.90625 -0.8085937,3.21094 -0.1171875,0.42187 -0.28125,1.14844 -0.28125,1.25391 0,0.39843 0.3046875,0.70312 0.7265627,0.70312 0.832031,0 0.972656,-0.64453 1.21875,-1.65234 l 1.675781,-6.65625 c 0.05859,-0.22266 1.511719,-3.71485 4.582031,-3.71485 1.113282,0 1.5,0.83203 1.5,1.95703 0,1.5586 -1.089843,4.59375 -1.699218,6.26954 -0.246094,0.66796 -0.386719,1.03125 -0.386719,1.53515 0,1.25391 0.855469,2.26172 2.203125,2.26172 2.589844,0 3.5625,-4.10156 3.5625,-4.26562 0,-0.14063 -0.105469,-0.25782 -0.28125,-0.25782 -0.246094,0 -0.269531,0.082 -0.410156,0.5625 -0.644532,2.22657 -1.675782,3.39844 -2.789063,3.39844 -0.28125,0 -0.726562,-0.0234 -0.726562,-0.91406 0,-0.72656 0.328125,-1.61719 0.445312,-1.9336 0.503906,-1.33593 1.757813,-4.6289 1.757813,-6.24609 0,-1.66406 -0.972657,-2.92969 -3.09375,-2.92969 -1.875,0 -3.375,1.06641 -4.488282,2.70703 -0.09375,-1.5 -1.007812,-2.70703 -3.105468,-2.70703 -2.4726567,0 -3.7851567,1.75782 -4.2890629,2.46094 -0.082031,-1.59375 -1.2304688,-2.46094 -2.4609375,-2.46094 -0.8085938,0 -1.4414063,0.39844 -1.9804688,1.45313 -0.4921875,1.00781 -0.89062499,2.70703 -0.89062499,2.82422 0,0.10547 0.1171875,0.24609 0.30468749,0.24609 0.2226563,0 0.2578125,-0.0234 0.421875,-0.66797 0.421875,-1.65234 0.9492188,-3.29297 2.0625,-3.29297 0.6445313,0 0.8671875,0.44532 0.8671875,1.27735 0,0.62109 -0.28125,1.71093 -0.46875,2.5664 l -0.7851562,3.01172 c -0.1171875,0.53906 -0.421875,1.79297 -0.5625,2.29688 -0.1875,0.72656 -0.4921875,2.02734 -0.4921875,2.16797 0,0.39843 0.3046875,0.70312 0.7148437,0.70312 0.3398438,0 0.7265625,-0.16406 0.9492188,-0.58594 0.058594,-0.14062 0.3046875,-1.11328 0.4453125,-1.67578 l 0.6210937,-2.50781 z m 0,0"
         style="fill:#000000;fill-opacity:1;fill-rule:nonzero;stroke:none" />
      <path
         id="path31"
         d="m 29.082791,110.50377 c 0,-0.41016 -0.02344,-0.42188 -0.292969,-0.42188 -0.761719,0.91406 -1.910156,1.20703 -3,1.24219 -0.05859,0 -0.164063,0 -0.175781,0.0469 -0.02344,0.0352 -0.02344,0.0703 -0.02344,0.48047 0.609375,0 1.617188,-0.11719 2.402344,-0.58594 v 10.28907 c 0,0.6914 -0.03516,0.92578 -1.722656,0.92578 h -0.585938 v 0.5039 c 0.9375,-0.0234 1.921875,-0.0352 2.859375,-0.0352 0.925781,0 1.910156,0.0117 2.847656,0.0352 v -0.5039 h -0.585937 c -1.6875,0 -1.722656,-0.22266 -1.722656,-0.92578 z m 0,0"
         style="fill:#000000;fill-opacity:1;fill-rule:nonzero;stroke:none" />
      <path
         id="path32"
         d="m 147.38943,-15.856586 c 0,-1.757812 -0.89062,-1.875 -1.125,-1.875 -0.66797,0 -1.27734,0.679688 -1.27734,1.230469 0,0.339844 0.19922,0.527344 0.30468,0.644531 0.28125,0.246094 1.00782,1.007813 1.00782,2.449219 0,1.171875 -1.67578,7.6992186 -5.02735,7.6992186 -1.69922,0 -2.02734,-1.4179688 -2.02734,-2.4492188 0,-1.3945312 0.63281,-3.3515628 1.39453,-5.3554688 0.44531,-1.148437 0.55078,-1.429687 0.55078,-1.980469 0,-1.171875 -0.83203,-2.238281 -2.20312,-2.238281 -2.56641,0 -3.59766,4.054688 -3.59766,4.277344 0,0.105469 0.11719,0.246094 0.30469,0.246094 0.25781,0 0.28125,-0.117188 0.39844,-0.503907 0.66796,-2.402343 1.75781,-3.457031 2.8125,-3.457031 0.25781,0 0.72656,0 0.72656,0.925781 0,0.714844 -0.30469,1.523438 -0.72656,2.589844 -1.33594,3.574219 -1.33594,4.4296876 -1.33594,5.0976563 0,0.6210938 0.082,1.7578125 0.94922,2.5429688 1.00781,0.8671875 2.40234,0.8671875 2.64843,0.8671875 4.62891,0 6.22266,-9.1171876 6.22266,-10.7109376 z m 0,0"
         style="fill:#000000;fill-opacity:1;fill-rule:nonzero;stroke:none" />
    </g>
  </g>
</svg>
