<svg xmlns="http://www.w3.org/2000/svg" version="1.0" width="1331.248348pt" height="1339.860744pt" viewBox="0 0 1331.248348 1339.860744" preserveAspectRatio="xMidYMid meet">
<metadata>
Created by potrace 1.16, written by Peter Selinger 2001-2019
</metadata>
<g transform="translate(-12.751652,1397.944548) scale(0.100000,-0.100000)" fill="#000000" stroke="none">
<path d="M571 13949 c-11 -17 -25 -60 -32 -95 l-13 -64 -45 -1 c-57 -1 -93 -11 -89 -24 2 -6 29 -9 65 -6 l62 3 -9 -33 c-6 -19 -10 -35 -10 -37 0 -2 -33 -2 -72 -1 -60 3 -73 1 -73 -11 0 -12 15 -16 68 -18 l67 -3 0 -34 c0 -23 5 -35 14 -35 16 0 26 21 26 56 0 19 5 24 24 24 23 0 23 -2 15 -41 -6 -23 -7 -44 -5 -47 11 -10 36 21 42 54 6 32 9 34 44 34 21 0 45 3 54 6 27 10 7 24 -35 24 -36 0 -40 2 -37 23 3 20 8 22 52 19 59 -5 61 18 2 32 -36 8 -38 10 -32 40 4 17 9 50 13 74 5 37 3 42 -14 42 -16 0 -21 -12 -32 -76 -10 -60 -16 -74 -28 -70 -8 3 -18 6 -23 6 -10 0 16 104 36 143 27 51 -5 66 -35 16z m16 -197 c22 -14 4 -52 -24 -52 -19 0 -24 4 -19 16 3 9 6 22 6 30 0 15 18 18 37 6z"/>
<path d="M11343 13903 c18 -146 51 -216 104 -221 26 -3 34 2 47 25 15 27 15 27 16 4 0 -13 -13 -40 -29 -60 -57 -73 -63 -103 -30 -145 13 -17 30 -26 49 -26 45 0 54 20 46 109 l-6 79 70 70 c38 38 70 78 70 88 0 13 -18 1 -63 -44 -34 -34 -66 -62 -69 -62 -4 0 -8 37 -10 83 -2 65 -6 82 -18 82 -10 0 -17 -15 -22 -50 -6 -53 -31 -120 -47 -130 -24 -15 -71 118 -71 202 0 37 -3 43 -21 43 -20 0 -21 -4 -16 -47z m176 -360 c1 -37 -10 -47 -32 -30 -26 21 -28 50 -5 87 l22 35 7 -30 c4 -16 7 -44 8 -62z"/>
<path d="M8357 13893 c-10 -9 -9 -186 3 -445 5 -123 11 -492 13 -820 l4 -597 -28 20 c-48 34 -66 4 -28 -45 25 -31 86 -59 114 -52 33 9 86 46 80 56 -3 5 -23 3 -47 -6 -23 -8 -43 -13 -44 -11 -2 2 12 19 31 37 51 49 42 83 -12 45 -21 -15 -21 -14 -27 68 -3 45 -8 259 -11 475 l-5 392 34 0 c40 0 99 23 142 55 l31 24 12 -25 c16 -36 29 -22 27 29 -2 30 -9 50 -25 66 -30 30 -55 22 -41 -13 8 -22 5 -29 -23 -50 -41 -32 -80 -46 -123 -46 l-34 0 0 133 c0 74 -3 236 -7 360 l-6 226 23 -6 c22 -6 22 -4 16 32 -4 20 -11 45 -16 54 -5 9 -11 24 -14 34 -5 17 -27 23 -39 10z"/>
<path d="M1127 13818 c-11 -9 -14 -18 -8 -27 7 -11 15 -11 42 -2 18 6 35 8 38 5 6 -6 -51 -61 -85 -81 -17 -10 -17 -13 -4 -25 8 -8 41 -20 72 -27 71 -15 89 -33 56 -55 -44 -29 -87 -39 -103 -26 -12 10 -20 9 -40 -4 -14 -9 -25 -24 -25 -33 0 -41 211 22 225 68 10 29 -19 56 -80 75 l-52 17 38 35 c40 35 48 59 27 80 -16 16 -80 15 -101 0z"/>
<path d="M845 13808 c-49 -26 -59 -72 -21 -89 l25 -12 -25 -37 c-37 -55 -45 -94 -27 -120 13 -18 21 -21 52 -15 68 13 121 61 121 111 0 9 -14 29 -31 46 l-30 31 25 35 c19 27 23 39 14 49 -13 16 -75 17 -103 1z m55 -39 c-14 -25 -38 -35 -52 -21 -6 6 -2 15 13 26 34 23 53 21 39 -5z m25 -110 c15 -23 -6 -59 -46 -79 -51 -27 -63 -19 -43 28 28 67 42 84 64 72 10 -6 22 -15 25 -21z"/>
<path d="M1386 13802 c-19 -21 -15 -42 8 -42 8 0 19 7 26 15 8 10 31 15 67 15 62 0 93 -13 93 -39 0 -22 -24 -44 -120 -111 -91 -63 -104 -78 -88 -97 10 -12 34 -13 132 -8 189 11 201 33 21 37 l-100 3 76 52 c117 79 144 127 98 169 -17 15 -40 20 -108 22 -76 3 -88 2 -105 -16z"/>
<path d="M8436 13633 c9 -66 33 -123 51 -123 11 0 14 6 9 23 -4 12 -12 50 -19 85 -9 50 -15 62 -30 62 -16 0 -17 -5 -11 -47z"/>
<path d="M11157 13663 c-4 -3 -7 -46 -7 -95 0 -72 3 -88 15 -88 16 0 19 5 30 55 7 29 8 27 35 -40 26 -65 50 -95 50 -61 0 8 -13 49 -29 90 -16 42 -28 76 -26 76 1 0 23 -12 48 -26 48 -26 97 -29 105 -6 2 8 -7 12 -27 12 -19 0 -53 16 -95 45 -64 44 -86 52 -99 38z"/>
<path d="M4667 13613 c-18 -18 -5 -33 29 -33 30 0 66 -12 83 -27 3 -2 -19 -26 -47 -53 -57 -54 -64 -80 -30 -104 23 -17 102 -21 171 -10 63 11 41 22 -52 26 -49 1 -93 6 -97 11 -4 4 16 32 45 61 60 61 62 88 8 111 -42 17 -102 27 -110 18z"/>
<path d="M11854 13585 c-35 -35 -28 -65 19 -88 27 -14 37 -25 37 -43 0 -15 6 -24 15 -24 9 0 15 9 15 23 0 14 12 32 30 45 41 31 42 75 0 97 -44 23 -87 19 -116 -10z m104 -38 c4 -22 -20 -31 -56 -21 -20 5 -23 8 -9 11 9 3 17 11 17 19 0 22 44 14 48 -9z"/>
<path d="M9276 13579 c-51 -40 -70 -106 -42 -144 12 -17 16 -16 63 28 28 26 53 47 57 47 3 0 6 -45 6 -100 0 -99 0 -99 -30 -115 -35 -18 -105 -103 -126 -153 -21 -51 -17 -84 15 -122 l28 -35 46 37 c40 34 47 45 67 120 16 60 24 122 27 228 3 80 9 152 14 161 6 12 2 25 -12 43 -26 33 -75 35 -113 5z m89 -19 c3 -5 2 -10 -3 -10 -5 0 -30 -18 -56 -41 -46 -41 -46 -41 -46 -14 0 47 84 99 105 65z m-34 -418 c-13 -44 -31 -78 -50 -96 l-29 -28 -16 23 c-31 44 -11 103 64 192 l45 54 3 -38 c2 -21 -6 -69 -17 -107z"/>
<path d="M12922 13543 c-17 -7 -72 -88 -72 -107 0 -25 30 -19 54 11 l21 28 5 -445 c6 -463 -4 -934 -22 -1103 -9 -85 -13 -97 -27 -91 -9 3 -26 9 -38 11 -19 5 -23 1 -23 -21 0 -34 34 -102 55 -110 27 -10 44 -7 59 12 47 57 116 154 116 163 0 22 -32 5 -66 -36 -21 -24 -39 -43 -41 -41 -2 1 4 160 13 352 11 253 14 435 9 662 -4 172 -4 391 0 487 l7 175 55 -70 c52 -67 83 -87 83 -55 0 8 -30 53 -66 100 -64 84 -81 95 -122 78z m-21 -1776 c-1 -12 -15 -9 -19 4 -3 6 1 10 8 8 6 -3 11 -8 11 -12z"/>
<path d="M4304 13516 c-3 -9 -1 -53 5 -98 5 -46 13 -109 16 -140 10 -93 28 -90 106 22 65 95 118 150 142 150 12 0 17 6 15 17 -10 52 -77 4 -170 -120 l-58 -79 -1 44 c-1 79 -24 211 -36 216 -7 2 -16 -3 -19 -12z"/>
<path d="M2883 13468 c-4 -7 -8 -350 -8 -762 0 -702 1 -749 17 -754 29 -7 40 -67 45 -237 4 -117 -1 -226 -16 -402 -24 -268 -29 -561 -12 -668 27 -169 57 -261 99 -299 36 -31 43 -13 12 32 -31 47 -63 165 -80 302 -15 129 -12 322 10 560 30 315 36 556 16 650 -9 43 -23 81 -33 90 -16 14 -18 41 -19 310 0 162 -2 477 -5 700 -4 370 -2 408 13 439 10 18 15 37 12 42 -8 13 -42 11 -51 -3z"/>
<path d="M300 13452 c0 -5 35 -13 78 -16 117 -9 1829 -12 1838 -3 4 4 5 9 3 11 -10 10 -1919 18 -1919 8z"/>
<path d="M3356 13452 c-3 -5 -12 -54 -20 -110 -9 -55 -24 -137 -36 -181 -11 -43 -20 -84 -20 -90 0 -24 29 -9 55 30 16 22 41 49 57 60 l28 20 0 -50 c0 -67 13 -97 45 -105 30 -8 101 22 94 39 -2 6 -8 8 -14 6 -5 -3 -26 -5 -45 -5 l-35 -1 -1 61 c-1 34 -5 67 -8 73 -11 17 -48 13 -84 -9 -31 -19 -33 -19 -28 -3 9 32 46 234 46 254 0 19 -24 27 -34 11z"/>
<path d="M8516 13413 c-18 -18 16 -123 40 -123 18 0 18 10 -2 71 -17 50 -26 63 -38 52z"/>
<path d="M11907 13384 c-10 -11 -8 -62 2 -69 12 -7 18 3 22 39 4 28 -10 44 -24 30z"/>
<path d="M2316 13358 c-3 -7 -7 -168 -10 -358 -3 -190 -11 -527 -17 -750 -6 -223 -7 -484 -4 -580 7 -198 41 -639 49 -648 18 -17 18 35 0 271 -22 299 -24 774 -5 1327 25 759 25 750 7 750 -9 0 -18 -6 -20 -12z"/>
<path d="M10677 13258 c-25 -45 -60 -117 -78 -160 -17 -43 -35 -78 -39 -78 -4 0 -26 59 -50 130 -33 104 -46 130 -60 130 -28 0 -29 -20 -5 -75 12 -27 30 -77 40 -110 24 -85 52 -135 74 -135 26 0 34 12 80 129 43 107 103 217 123 223 17 6 0 28 -21 28 -12 0 -33 -27 -64 -82z"/>
<path d="M11314 13286 c13 -54 108 -286 117 -286 18 0 8 36 -43 172 -32 83 -58 138 -67 138 -9 0 -11 -7 -7 -24z"/>
<path d="M346 13273 c-3 -10 -14 -74 -25 -143 -11 -69 -32 -176 -46 -239 -30 -136 -30 -131 -7 -131 11 0 29 22 50 64 18 35 42 72 53 81 19 18 19 17 19 -31 0 -59 21 -94 56 -94 29 0 84 26 84 40 0 13 -7 13 -47 -2 -18 -6 -36 -8 -40 -4 -5 4 -10 38 -13 74 -5 61 -7 67 -29 70 -15 3 -33 -6 -52 -24 -16 -15 -29 -23 -29 -18 0 5 16 88 35 184 19 96 35 178 35 183 0 15 -39 6 -44 -10z"/>
<path d="M4528 13269 c-25 -10 -40 -39 -20 -39 5 0 8 -19 8 -42 -1 -36 3 -44 26 -55 35 -18 72 -8 108 29 33 32 40 77 16 97 -20 16 -106 23 -138 10z m90 -25 c12 -4 22 -13 22 -22 0 -24 -41 -62 -67 -62 -20 0 -23 5 -23 38 0 53 11 61 68 46z"/>
<path d="M3863 13252 c-101 -2 -123 -5 -123 -18 0 -8 6 -17 14 -20 15 -6 237 14 245 22 14 14 -27 19 -136 16z"/>
<path d="M11890 13221 c0 -28 15 -49 26 -38 3 2 6 17 7 33 1 20 -3 29 -15 32 -14 3 -18 -3 -18 -27z"/>
<path d="M9066 13231 c-4 -5 -4 -16 0 -24 12 -31 -224 -215 -291 -226 -44 -7 -50 -25 -10 -29 72 -7 376 237 349 280 -7 11 -41 10 -48 -1z"/>
<path d="M8076 13189 c-59 -46 -76 -130 -30 -151 20 -10 30 -9 55 6 37 22 36 13 -3 -59 -39 -73 -52 -135 -37 -189 6 -23 16 -44 23 -48 22 -15 65 -8 76 11 5 11 10 79 10 151 0 116 2 135 20 157 25 32 15 51 -13 26 -20 -18 -20 -17 -12 2 15 35 10 87 -10 101 -26 19 -48 17 -79 -7z m46 -46 c-11 -61 -62 -101 -62 -49 0 27 35 76 54 76 9 0 12 -9 8 -27z m17 -284 c1 -42 -4 -72 -13 -85 -14 -19 -15 -19 -23 1 -13 32 -9 127 7 165 14 34 14 34 21 10 4 -14 7 -55 8 -91z"/>
<path d="M3807 13194 c-4 -4 -7 -14 -7 -22 0 -12 18 -14 105 -10 64 2 109 8 117 16 9 9 -8 12 -84 12 -53 0 -103 2 -110 5 -8 3 -17 2 -21 -1z"/>
<path d="M9420 13158 c0 -55 29 -128 56 -140 19 -9 28 -8 44 7 23 21 23 21 38 -23 11 -31 9 -37 -18 -70 -71 -89 -86 -185 -35 -218 21 -14 27 -14 53 0 42 22 54 60 51 161 -3 86 -3 86 29 111 43 34 41 51 -4 25 -20 -12 -37 -21 -38 -19 -9 15 -35 117 -33 133 3 32 -26 23 -33 -10 -8 -37 -28 -75 -40 -75 -11 0 -30 57 -34 106 -2 26 -9 40 -20 42 -12 3 -16 -5 -16 -30z m162 -306 c1 -77 -19 -126 -49 -120 -21 4 -34 51 -23 87 9 32 59 115 66 108 2 -2 5 -36 6 -75z"/>
<path d="M10754 13093 c-59 -64 -42 -143 30 -143 56 0 106 61 106 130 0 34 -23 50 -70 50 -24 0 -41 -9 -66 -37z m94 -24 c5 -44 -63 -111 -82 -81 -8 13 13 79 31 97 22 23 47 14 51 -16z"/>
<path d="M11892 13095 c2 -14 8 -26 13 -26 6 0 11 12 13 26 2 18 -1 25 -13 25 -12 0 -15 -7 -13 -25z"/>
<path d="M4438 13090 c-81 -5 -152 -11 -158 -15 -5 -3 -10 -13 -10 -22 0 -12 7 -14 33 -9 55 12 306 26 430 25 107 -1 139 3 126 15 -10 9 -288 13 -421 6z"/>
<path d="M1073 13049 c-23 -7 -33 -16 -33 -30 0 -26 30 -37 42 -16 6 11 22 17 48 17 72 0 62 -19 -75 -137 -82 -70 -72 -80 66 -64 106 12 123 16 114 31 -3 5 -42 6 -88 3 l-81 -6 78 68 c69 60 77 71 71 94 -4 14 -10 29 -14 33 -12 13 -95 18 -128 7z"/>
<path d="M1522 13028 c-5 -7 -20 -33 -32 -57 -25 -50 -121 -151 -143 -151 -10 0 -13 8 -9 25 3 20 0 25 -17 25 -43 0 -40 -75 3 -86 30 -7 60 8 107 53 32 30 37 32 49 18 20 -25 48 -18 94 25 l43 40 11 -25 c21 -46 90 -55 195 -25 64 19 40 29 -56 23 -107 -7 -112 -3 -96 63 15 60 15 68 -2 72 -10 2 -25 -10 -37 -30 -25 -40 -109 -124 -117 -116 -3 3 6 36 20 73 23 63 25 85 6 85 -5 0 -13 -6 -19 -12z"/>
<path d="M11883 12984 c-7 -19 9 -75 22 -77 6 -1 11 19 13 46 2 37 0 47 -13 47 -8 0 -18 -7 -22 -16z"/>
<path d="M587 12966 c-10 -24 7 -27 113 -20 134 9 129 28 -7 32 -82 2 -102 0 -106 -12z"/>
<path d="M13095 12930 c-4 -6 -4 -28 0 -48 5 -34 -1 -123 -21 -296 -9 -75 10 -75 72 1 25 32 55 64 66 72 19 13 20 12 13 -40 -8 -67 7 -93 54 -91 33 1 161 66 161 82 0 17 -25 11 -93 -20 -37 -16 -69 -30 -72 -30 -3 0 -5 31 -5 69 0 60 -3 70 -20 76 -25 8 -71 -17 -105 -57 l-27 -32 8 84 c5 47 9 119 9 160 0 62 -3 75 -17 78 -9 2 -19 -2 -23 -8z"/>
<path d="M8660 12918 c0 -24 32 -112 46 -127 11 -13 14 -13 19 0 8 23 -31 134 -49 137 -9 2 -16 -3 -16 -10z"/>
<path d="M4383 12910 c-24 -10 -30 -25 -14 -35 6 -3 30 0 55 6 81 20 86 4 15 -49 -35 -26 -65 -56 -67 -66 -9 -46 64 -58 186 -32 37 8 84 17 105 20 35 5 37 3 37 -24 0 -20 -6 -31 -20 -35 -11 -3 -42 -24 -68 -45 -86 -68 -103 -150 -31 -150 67 0 143 75 155 152 6 34 13 41 70 73 35 20 66 40 69 45 11 18 -25 11 -75 -15 -27 -14 -52 -25 -55 -25 -3 0 -5 16 -5 35 0 19 -4 35 -10 35 -6 0 -6 9 0 24 12 33 -6 55 -52 62 -32 6 -41 2 -69 -25 -24 -25 -30 -38 -27 -61 4 -29 4 -29 -64 -41 -45 -8 -75 -9 -90 -2 -20 9 -17 12 43 54 68 47 83 74 53 96 -20 15 -107 16 -141 3z m317 -71 c0 -9 -59 -49 -72 -49 -15 0 -8 30 11 49 19 19 61 19 61 0z m0 -184 c0 -18 -44 -86 -66 -104 -69 -54 -73 -1 -4 63 44 41 70 56 70 41z"/>
<path d="M702 12881 c-86 -6 -116 -24 -47 -29 54 -4 148 11 147 23 -1 12 -1 12 -100 6z"/>
<path d="M11470 12883 c0 -18 114 -303 121 -303 19 0 17 21 -5 76 -17 41 -21 60 -13 63 7 2 18 13 25 23 25 35 120 71 245 92 36 7 37 6 37 -24 0 -43 26 -39 34 5 10 52 2 58 -66 51 -91 -9 -177 -34 -244 -71 l-61 -33 -23 64 c-13 37 -28 64 -36 64 -8 0 -14 -3 -14 -7z"/>
<path d="M8724 12725 c-9 -24 3 -86 20 -104 24 -23 29 -7 16 53 -12 59 -26 78 -36 51z"/>
<path d="M11880 12691 c0 -11 -2 -25 -5 -33 -5 -14 11 -46 19 -37 3 2 8 24 12 47 5 35 4 42 -10 42 -9 0 -16 -8 -16 -19z"/>
<path d="M10655 12680 c-8 -13 92 -210 111 -217 32 -12 36 14 10 56 -15 22 -24 41 -22 41 3 0 101 -64 219 -142 l214 -143 -18 -40 c-17 -38 -17 -55 0 -55 4 0 16 18 26 40 25 55 45 37 22 -20 -18 -47 -10 -52 18 -10 11 16 23 30 26 30 5 0 547 -359 568 -377 2 -1 1 -6 -2 -10 -4 -4 -20 3 -35 14 -57 42 -215 136 -275 163 -174 78 -366 120 -552 120 -202 0 -357 -40 -565 -146 -158 -80 -229 -127 -319 -210 -156 -145 -344 -442 -430 -682 -24 -66 -40 -96 -55 -103 -12 -5 -148 -45 -304 -89 -218 -62 -287 -78 -302 -70 -29 15 -70 13 -70 -5 0 -8 5 -15 12 -15 54 0 -123 -54 -397 -121 -71 -17 -143 -37 -160 -44 -43 -19 -108 -35 -114 -30 -2 3 12 22 32 43 38 39 47 62 24 62 -18 0 -167 -154 -167 -171 1 -38 35 -55 128 -64 48 -5 72 -4 72 3 0 6 -19 13 -42 17 -24 4 -60 11 -81 16 -38 10 -38 11 -21 30 9 10 45 27 78 37 64 18 93 19 524 14 198 -2 203 -2 197 -22 -9 -28 18 -26 37 2 15 22 17 23 352 26 240 3 341 1 349 -7 15 -15 27 -14 27 3 0 11 99 15 593 21 325 3 661 5 744 3 l153 -3 -393 -144 c-215 -79 -462 -173 -547 -209 -183 -76 -260 -104 -260 -93 0 4 14 26 31 49 27 37 29 43 14 49 -10 3 -21 0 -25 -8 -5 -8 -29 -41 -53 -73 -25 -33 -43 -66 -40 -73 4 -10 33 -13 112 -13 95 1 104 2 87 15 -12 9 -43 15 -75 15 l-56 1 60 23 c33 13 124 51 203 85 78 34 334 134 569 222 l426 159 290 0 289 0 -6 -87 c-4 -49 -9 -103 -12 -121 -5 -32 -6 -33 -23 -18 -10 9 -23 16 -29 16 -24 0 -11 -37 27 -74 45 -44 63 -43 89 5 9 17 27 47 40 66 13 20 21 37 18 40 -11 11 -49 -11 -67 -40 l-20 -32 7 120 c4 66 7 120 8 121 7 4 728 -16 747 -21 25 -6 26 -4 31 37 3 24 4 327 2 673 -3 596 -4 630 -21 630 -16 0 -18 -10 -17 -90 0 -49 1 -306 1 -570 0 -264 1 -514 2 -555 0 -41 -3 -80 -7 -85 -4 -7 -42 -8 -107 -4 -55 4 -220 7 -366 8 l-266 1 -7 102 c-6 91 -4 104 11 116 17 12 282 102 303 102 7 0 5 -8 -4 -22 -9 -12 -16 -28 -16 -35 0 -24 25 -13 48 22 12 19 29 35 37 35 8 0 15 4 15 8 0 17 -62 92 -76 92 -17 0 -18 -16 -1 -27 8 -5 0 -10 -22 -13 -46 -7 -52 -28 -9 -32 26 -2 2 -13 -123 -55 -86 -29 -159 -53 -163 -53 -8 0 -8 133 0 154 5 13 22 16 84 16 44 0 82 5 85 10 4 6 -12 10 -42 10 -26 0 -65 3 -85 6 -32 6 -38 11 -38 30 0 21 5 24 38 24 48 0 73 15 40 23 -12 4 -35 7 -50 7 l-28 0 0 251 c0 148 4 258 10 269 7 13 66 37 193 79 260 85 436 139 480 147 34 6 62 24 37 24 -41 0 -196 -42 -413 -113 l-252 -83 0 41 c-1 57 -23 96 -65 110 -31 10 -38 20 -61 80 -14 38 -31 71 -37 73 -18 6 -14 -21 13 -94 14 -37 24 -68 22 -70 -1 -2 -89 55 -193 125 -105 71 -200 134 -210 140 -13 9 -15 14 -6 17 6 3 12 11 12 18 0 7 13 33 29 59 36 55 120 109 166 105 28 -3 32 -9 65 -95 19 -51 41 -93 47 -93 19 0 17 8 -23 112 -20 51 -45 117 -56 146 -10 28 -24 52 -29 52 -12 0 -12 -37 1 -61 9 -16 7 -19 -11 -19 -27 0 -131 -55 -157 -83 -11 -12 -35 -45 -54 -74 -40 -58 -31 -58 -116 4 l-33 25 36 43 c41 50 42 55 15 55 -12 0 -30 -16 -46 -40 -15 -22 -31 -40 -35 -40 -17 0 -9 24 18 52 22 23 24 31 14 41 -10 10 -19 5 -44 -25 l-32 -38 -213 142 c-116 77 -211 143 -209 145 2 2 18 -2 35 -8 35 -12 82 -9 83 6 0 6 -21 16 -48 22 -26 7 -75 26 -107 43 -62 32 -81 36 -91 20z m481 -581 c163 -22 364 -95 497 -180 140 -88 175 -118 181 -154 4 -18 14 -39 22 -46 18 -15 -44 -37 -651 -233 -176 -57 -475 -154 -665 -216 -365 -118 -832 -260 -855 -260 -35 0 99 300 212 475 158 243 278 352 535 484 130 66 209 94 336 121 100 21 272 25 388 9z m752 -671 l-3 -263 -68 4 c-63 3 -69 2 -65 -15 3 -17 11 -19 71 -15 67 3 67 3 67 -24 0 -25 -3 -26 -37 -23 -29 2 -38 -1 -38 -12 0 -10 12 -16 33 -18 l33 -3 -3 -95 -3 -94 -270 -109 -271 -109 -789 -3 -790 -4 -3 23 c-3 22 -27 40 -38 30 -2 -3 0 -16 5 -30 l9 -25 -210 -6 c-116 -4 -264 -7 -329 -7 l-119 0 6 43 c4 28 1 55 -9 80 -16 37 -16 37 11 43 70 16 87 22 85 31 -1 5 95 37 214 72 207 60 216 61 235 44 22 -20 47 -10 62 23 7 16 62 36 250 92 256 76 1204 381 1671 537 154 51 283 94 288 94 4 1 6 -117 5 -261z m-5 -675 c4 -53 5 -98 3 -100 -2 -2 -116 -2 -255 -1 l-251 3 242 97 c134 54 246 98 249 98 3 0 9 -44 12 -97z m-2859 -7 c17 -36 19 -58 10 -93 -6 -23 -7 -23 -208 -22 -110 1 -230 4 -266 8 l-65 6 235 63 c129 35 240 65 245 67 24 9 34 3 49 -29z"/>
<path d="M9360 10863 c-29 -80 -44 -104 -59 -97 -32 15 -101 16 -117 3 -41 -34 -36 -103 9 -114 29 -8 75 10 108 41 l26 25 64 -31 c61 -29 110 -39 109 -22 -1 4 -34 23 -75 42 -41 19 -73 37 -72 40 40 79 57 122 52 130 -12 19 -36 10 -45 -17z m-86 -122 c18 -7 18 -8 -4 -29 -13 -12 -27 -22 -31 -22 -4 0 -14 -3 -22 -6 -19 -7 -30 22 -17 47 11 19 40 23 74 10z"/>
<path d="M9656 10862 c-9 -15 26 -102 41 -102 12 0 14 8 8 37 -11 60 -33 90 -49 65z"/>
<path d="M8773 12534 c7 -42 26 -69 39 -56 15 15 -10 92 -29 92 -12 0 -14 -7 -10 -36z"/>
<path d="M11870 12529 c0 -49 21 -49 31 -1 7 34 3 42 -18 42 -9 0 -13 -13 -13 -41z"/>
<path d="M11870 12390 c0 -64 13 -80 24 -29 11 55 7 89 -9 89 -12 0 -15 -13 -15 -60z"/>
<path d="M8823 12390 c6 -48 52 -130 72 -130 21 0 19 12 -10 66 -14 26 -25 54 -25 63 0 19 -19 41 -33 41 -5 0 -7 -18 -4 -40z"/>
<path d="M7254 12376 c-27 -21 -6 -43 26 -26 26 14 75 5 113 -22 34 -24 34 -33 -3 -87 -35 -52 -39 -95 -10 -111 25 -13 146 -9 143 5 -2 6 -29 12 -60 15 -71 6 -77 21 -34 81 17 23 31 49 31 58 0 67 -148 129 -206 87z"/>
<path d="M363 12288 l-39 -72 -61 -1 c-46 -1 -67 -6 -84 -20 -55 -50 -68 -114 -28 -136 25 -13 75 9 127 55 22 20 43 36 47 36 3 0 26 -15 49 -34 23 -19 54 -40 69 -45 36 -14 77 -14 77 -1 0 6 -9 10 -19 10 -18 0 -132 77 -145 98 -5 9 51 113 74 136 17 17 11 46 -9 46 -14 0 -31 -21 -58 -72z m-116 -153 c-53 -49 -77 -56 -77 -25 0 35 44 70 87 70 l38 -1 -48 -44z"/>
<path d="M1672 12335 c-63 -30 -74 -51 -43 -77 30 -23 45 -23 98 3 28 14 45 29 49 46 13 48 -33 61 -104 28z m58 -30 c-7 -8 -16 -15 -21 -15 -5 0 -6 7 -3 15 4 8 13 15 21 15 13 0 13 -3 3 -15z m-37 -22 c-7 -2 -19 -2 -25 0 -7 3 -2 5 12 5 14 0 19 -2 13 -5z"/>
<path d="M11872 12238 c2 -24 8 -43 13 -43 6 0 11 19 13 43 3 33 0 42 -13 42 -13 0 -16 -9 -13 -42z"/>
<path d="M983 12263 c-7 -2 -13 -11 -13 -19 0 -10 14 -13 58 -11 66 2 79 -11 32 -35 -18 -9 -37 -21 -43 -27 -13 -13 28 -38 78 -47 32 -6 36 -8 19 -15 -11 -4 -50 -10 -87 -14 -47 -5 -67 -11 -67 -21 0 -17 48 -18 134 -4 71 11 99 32 76 55 -8 8 -33 21 -55 28 l-40 15 27 12 c70 33 33 91 -56 89 -28 0 -57 -3 -63 -6z"/>
<path d="M6826 12238 c-3 -7 -7 -28 -10 -47 -3 -18 -18 -60 -32 -92 -26 -57 -28 -59 -66 -59 -55 0 -90 -36 -86 -88 3 -32 7 -37 31 -40 23 -3 37 5 66 36 29 30 41 37 57 31 28 -11 64 -11 64 1 0 6 -6 10 -13 10 -7 0 -22 6 -32 14 -19 14 -19 15 2 53 23 42 63 153 63 178 0 18 -39 21 -44 3z m-102 -240 c-12 -22 -47 -58 -56 -58 -13 0 -9 24 8 48 16 23 61 32 48 10z"/>
<path d="M600 12203 c0 -16 9 -22 38 -27 58 -9 162 -7 162 4 0 10 -20 16 -90 24 -25 3 -60 8 -77 12 -29 6 -33 4 -33 -13z"/>
<path d="M5835 12187 c-43 -43 -55 -99 -29 -128 15 -17 27 -20 61 -16 l43 5 0 -52 c0 -61 -1 -62 -63 -106 -26 -19 -57 -48 -67 -66 -39 -62 -17 -154 36 -154 47 0 77 49 109 176 14 55 24 75 51 97 40 34 36 57 -5 27 l-28 -20 5 47 c3 26 11 54 19 61 8 8 13 36 13 71 0 69 -18 91 -74 91 -30 0 -45 -7 -71 -33z m107 -22 c10 -23 8 -28 -23 -55 -41 -35 -67 -46 -81 -32 -26 26 30 112 72 112 12 0 25 -10 32 -25z m-48 -302 c-16 -73 -38 -134 -56 -150 -19 -17 -20 -17 -34 2 -29 39 -9 93 53 143 21 17 39 31 41 32 1 0 0 -12 -4 -27z"/>
<path d="M6996 12189 c-17 -13 -26 -29 -24 -42 4 -31 27 -32 38 -3 5 14 17 27 27 28 20 1 67 -2 70 -6 1 -1 -9 -37 -22 -79 -40 -125 -32 -167 31 -167 31 0 84 37 84 60 0 17 -26 11 -45 -10 -28 -31 -55 -26 -55 10 0 28 35 137 50 153 3 4 30 3 58 -4 39 -8 61 -8 87 1 51 17 43 27 -22 27 -41 -1 -77 8 -122 26 -78 33 -119 34 -155 6z"/>
<path d="M1320 12183 c-33 -22 -40 -33 -40 -65 0 -17 9 -33 22 -42 25 -18 94 -21 132 -6 33 12 59 53 51 80 -14 46 -117 66 -165 33z m114 -29 c22 -21 20 -31 -8 -49 -33 -22 -100 -17 -104 8 -9 46 76 77 112 41z"/>
<path d="M8846 12166 c-13 -12 -41 -26 -62 -29 -21 -4 -44 -13 -53 -21 -28 -29 15 -29 71 -1 94 48 102 53 106 64 7 20 -39 11 -62 -13z"/>
<path d="M6076 12119 c-76 -90 -73 -201 6 -185 17 3 42 15 58 26 29 20 29 20 35 0 9 -29 46 -41 88 -29 43 12 102 75 112 119 9 42 -20 84 -61 88 -35 3 -94 -31 -101 -59 -3 -10 -11 -19 -17 -19 -7 0 -22 -14 -35 -31 -25 -33 -80 -71 -93 -63 -14 9 -9 53 11 93 25 47 44 64 79 65 43 2 35 30 -9 34 -32 3 -41 -2 -73 -39z m262 -41 c5 -39 -24 -86 -63 -105 -44 -21 -65 -12 -65 29 1 76 120 147 128 76z"/>
<path d="M6422 12144 c-38 -26 -25 -55 33 -77 28 -10 56 -24 64 -32 11 -11 9 -16 -18 -30 -18 -9 -40 -15 -49 -14 -32 3 -42 -1 -42 -15 0 -25 18 -28 73 -12 106 31 109 78 9 124 -51 23 -54 26 -33 34 12 4 34 5 47 2 13 -3 31 -3 40 0 13 5 14 9 4 21 -17 20 -99 20 -128 -1z"/>
<path d="M585 12140 c-11 -18 25 -23 128 -17 149 9 149 27 0 27 -71 0 -124 -4 -128 -10z"/>
<path d="M11874 12116 c-9 -23 0 -51 16 -51 10 0 15 10 15 29 0 32 -21 47 -31 22z"/>
<path d="M8623 12072 c-51 -21 -61 -31 -44 -41 17 -11 110 29 111 47 0 16 -16 15 -67 -6z"/>
<path d="M3248 12000 c-46 -36 -62 -92 -60 -214 2 -116 10 -136 48 -136 75 0 160 273 108 348 -19 28 -63 29 -96 2z m77 -43 c10 -51 -11 -141 -47 -210 -52 -97 -61 -89 -55 45 2 63 10 125 17 139 35 67 75 80 85 26z"/>
<path d="M3931 11958 c-16 -35 -43 -94 -61 -133 -27 -60 -33 -67 -42 -51 -6 11 -9 59 -6 118 4 95 3 99 -17 96 -18 -3 -20 -11 -23 -78 -4 -99 5 -157 29 -181 33 -33 55 -9 124 138 36 75 65 140 65 144 0 5 -9 9 -20 9 -16 0 -28 -16 -49 -62z"/>
<path d="M5026 12010 c-52 -16 -93 -70 -80 -105 10 -25 29 -17 39 18 7 22 21 37 46 50 44 21 65 15 134 -37 53 -41 108 -47 170 -22 39 17 49 43 13 32 -13 -4 -42 -10 -66 -13 -40 -5 -49 -2 -103 36 -63 45 -105 56 -153 41z"/>
<path d="M4788 12005 c-3 -3 -3 -27 -1 -53 3 -33 -2 -64 -17 -104 -22 -59 -28 -65 -45 -49 -11 10 -36 14 -72 12 -31 -1 -63 -39 -63 -73 0 -27 30 -68 49 -68 20 0 67 22 88 42 19 18 23 18 45 4 33 -22 119 -39 131 -27 11 11 5 14 -43 25 -14 3 -39 14 -56 25 l-32 19 23 49 c28 58 49 155 40 183 -6 18 -34 27 -47 15z m-79 -238 c8 -11 5 -19 -12 -35 -33 -30 -61 -32 -65 -4 -2 13 2 30 8 38 16 18 54 18 69 1z"/>
<path d="M8700 11998 c0 -27 69 -157 90 -168 25 -13 72 -10 77 6 2 7 -5 10 -19 7 -35 -6 -56 15 -87 92 -16 42 -35 71 -44 73 -10 2 -17 -3 -17 -10z"/>
<path d="M11885 11950 c-9 -28 11 -52 25 -30 6 8 9 21 7 29 -4 23 -25 24 -32 1z"/>
<path d="M5081 11931 c-16 -29 -34 -156 -27 -185 13 -51 89 -52 139 -2 36 37 12 49 -30 16 -14 -11 -37 -20 -51 -20 -24 0 -25 1 -18 61 3 33 13 76 22 94 9 19 13 39 9 44 -10 17 -33 13 -44 -8z"/>
<path d="M4115 11896 c-24 -24 -45 -82 -45 -123 0 -28 33 -63 59 -63 11 0 31 4 46 10 20 8 29 6 45 -10 54 -54 172 11 187 104 7 44 -30 86 -77 86 -34 0 -89 -49 -119 -107 -15 -28 -64 -55 -86 -46 -22 8 -15 71 11 111 18 27 19 27 22 5 5 -33 42 -31 42 1 0 27 -24 56 -46 56 -8 0 -26 -11 -39 -24z m243 -38 c17 -17 14 -60 -6 -84 -25 -31 -70 -57 -87 -50 -19 7 -19 50 0 66 8 7 15 19 15 26 0 18 36 54 53 54 7 0 18 -5 25 -12z"/>
<path d="M4434 11875 c-4 -10 11 -34 40 -65 65 -69 62 -78 -24 -84 -56 -4 -66 -9 -55 -27 5 -8 26 -10 67 -5 108 11 120 32 63 115 l-35 51 30 0 c20 0 30 5 30 15 0 22 -108 21 -116 0z"/>
<path d="M3445 11870 c-4 -6 -2 -17 4 -23 16 -16 191 -23 191 -8 0 10 -18 14 -105 25 -22 3 -50 8 -61 11 -13 4 -25 2 -29 -5z"/>
<path d="M5404 11865 c-12 -29 17 -36 129 -32 146 5 160 22 25 31 -57 4 -113 10 -125 13 -16 3 -25 0 -29 -12z"/>
<path d="M6825 11860 c-82 -4 -280 -11 -438 -16 -200 -5 -286 -11 -284 -18 6 -18 225 -18 540 -1 159 8 368 15 465 15 140 0 173 3 164 12 -15 15 -228 19 -447 8z"/>
<path d="M3440 11754 c0 -17 25 -24 90 -24 56 0 118 15 108 26 -3 2 -49 6 -102 7 -69 2 -96 -1 -96 -9z"/>
<path d="M12164 11756 c-28 -20 -51 -79 -59 -153 -7 -54 -5 -64 19 -101 44 -70 113 -69 150 3 30 58 30 191 0 232 -25 33 -77 42 -110 19z m82 -41 c24 -36 16 -164 -12 -201 -27 -37 -39 -39 -65 -13 -20 20 -21 28 -14 88 4 36 8 79 10 96 3 29 27 55 52 55 7 0 20 -11 29 -25z"/>
<path d="M8596 11744 c-39 -38 -24 -125 26 -153 24 -14 29 -14 47 3 20 18 21 18 21 2 0 -10 -9 -31 -20 -46 -56 -78 -68 -174 -29 -216 29 -31 54 -30 84 1 22 21 25 33 25 97 0 40 -5 91 -10 112 -7 34 -6 41 13 57 26 21 17 35 -12 19 -19 -9 -23 -7 -38 25 -21 44 -47 43 -51 -3 -4 -36 -16 -41 -32 -13 -15 29 -12 87 5 101 13 11 20 9 38 -9 26 -24 47 -27 47 -8 0 41 -83 63 -114 31z m123 -310 c1 -79 -15 -108 -47 -87 -35 21 -26 115 17 182 l15 24 7 -24 c4 -13 7 -56 8 -95z"/>
<path d="M3947 11710 c-31 -24 -60 -96 -55 -136 4 -42 48 -55 86 -28 61 46 94 138 60 172 -18 18 -62 14 -91 -8z m69 -23 c12 -31 -43 -117 -74 -117 -11 0 -13 9 -9 41 8 61 68 115 83 76z"/>
<path d="M6545 11691 c-17 -3 -31 -14 -33 -24 -3 -16 3 -17 61 -11 82 8 95 -6 46 -50 -20 -17 -48 -40 -64 -52 -19 -13 -26 -24 -20 -33 6 -11 29 -12 104 -7 109 8 141 14 141 27 0 5 -36 9 -81 9 l-80 0 35 34 c79 74 17 134 -109 107z"/>
<path d="M825 11670 c-93 -5 -287 -11 -430 -14 -233 -5 -260 -7 -264 -22 -3 -16 15 -16 235 -10 132 4 318 11 414 16 230 12 780 12 999 0 96 -5 177 -8 179 -5 12 11 -12 19 -76 26 -106 12 -869 18 -1057 9z"/>
<path d="M8945 11628 c-8 -28 -15 -57 -15 -64 0 -24 -18 -24 -41 1 -27 27 -49 32 -49 11 0 -14 39 -51 63 -59 8 -2 1 -22 -20 -56 -18 -29 -33 -54 -33 -57 0 -15 45 24 68 59 25 39 30 42 71 42 27 0 46 5 49 13 3 9 -3 11 -21 7 -14 -4 -35 -4 -46 0 -19 6 -19 8 -5 53 26 85 28 102 11 102 -11 0 -21 -18 -32 -52z"/>
<path d="M11964 11613 c9 -37 35 -75 45 -68 15 9 -15 90 -34 93 -15 3 -17 -1 -11 -25z"/>
<path d="M12010 11491 c0 -16 41 -81 51 -81 14 0 10 29 -8 61 -16 28 -43 40 -43 20z"/>
<path d="M1250 11442 c-30 -15 -35 -22 -35 -52 0 -28 4 -35 20 -35 15 0 20 7 20 29 0 23 6 32 25 37 60 17 137 3 147 -27 2 -5 -31 -32 -73 -59 -88 -57 -124 -96 -124 -133 0 -47 56 -119 77 -99 3 3 -4 21 -16 40 -42 68 -30 89 96 172 40 26 75 56 79 67 19 61 -131 103 -216 60z"/>
<path d="M505 11414 c-20 -22 -95 -227 -95 -261 0 -7 -8 -16 -17 -22 -14 -7 -15 -14 -6 -33 6 -12 15 -35 21 -50 13 -32 67 -52 111 -41 40 10 40 29 0 25 -41 -5 -79 22 -79 54 0 15 18 49 44 82 75 95 123 224 96 257 -19 22 -48 18 -75 -11z m25 -97 c-21 -55 -59 -113 -60 -91 0 17 50 147 63 163 21 25 20 -11 -3 -72z"/>
<path d="M12080 11337 c0 -16 50 -70 58 -62 10 9 -30 75 -45 75 -7 0 -13 -6 -13 -13z"/>
<path d="M900 11212 c-104 -3 -130 -8 -130 -27 0 -18 27 -19 141 -4 81 11 115 22 87 30 -7 2 -51 3 -98 1z"/>
<path d="M12172 11208 c6 -18 28 -21 28 -4 0 9 -7 16 -16 16 -9 0 -14 -5 -12 -12z"/>
<path d="M7468 11133 c-10 -2 -18 -13 -18 -23 0 -16 7 -17 63 -13 46 4 67 1 82 -10 20 -15 19 -16 -17 -54 -74 -76 -37 -123 97 -123 76 0 87 16 18 25 -72 10 -106 20 -110 31 -2 6 15 29 37 51 45 47 48 55 21 82 -32 32 -117 49 -173 34z"/>
<path d="M7054 11077 c6 -35 -5 -108 -24 -157 -9 -22 -15 -25 -54 -22 -37 3 -46 0 -65 -24 -15 -19 -21 -39 -19 -63 3 -32 6 -36 35 -39 23 -2 40 5 66 27 19 17 38 31 42 31 4 0 23 -13 42 -30 18 -16 45 -30 58 -30 29 0 33 16 8 25 -10 3 -35 21 -55 40 l-38 35 21 53 c13 31 22 78 22 117 2 61 1 65 -22 68 -22 3 -23 1 -17 -31z m-60 -216 c4 -5 -9 -22 -26 -37 -33 -27 -33 -27 -36 -5 -2 12 2 29 8 37 14 16 46 19 54 5z"/>
<path d="M6555 11000 c-9 -15 3 -30 24 -30 25 0 33 11 20 27 -13 15 -35 17 -44 3z"/>
<path d="M7195 10998 c-25 -14 -35 -28 -35 -50 0 -25 36 -23 43 2 4 15 13 20 39 20 53 0 61 -10 43 -53 -24 -58 -20 -112 11 -136 29 -23 92 -28 125 -11 30 17 23 33 -11 25 -42 -9 -88 3 -95 25 -8 24 3 80 19 102 11 15 18 16 49 6 42 -13 87 1 87 27 0 18 -12 19 -27 4 -8 -8 -36 -2 -101 20 -97 34 -117 36 -147 19z"/>
<path d="M1302 10983 c4 -22 43 -25 43 -3 0 8 -11 16 -23 18 -19 3 -23 0 -20 -15z"/>
<path d="M3398 10943 c-28 -32 -48 -80 -63 -154 -8 -39 -18 -75 -20 -80 -3 -4 -8 -55 -11 -113 -4 -86 -2 -107 11 -120 20 -20 30 -20 86 -1 49 17 97 50 87 60 -4 4 -33 -3 -65 -14 -89 -32 -87 -33 -80 61 6 72 13 94 58 184 59 116 71 187 33 192 -11 2 -27 -5 -36 -15z"/>
<path d="M6016 10920 c-42 -38 -61 -86 -47 -123 12 -30 46 -42 97 -34 34 6 34 5 34 -32 0 -32 -6 -43 -40 -70 -47 -37 -86 -95 -107 -159 -45 -131 77 -182 136 -57 25 54 51 156 51 205 0 29 6 39 38 59 37 25 31 42 -8 21 -31 -17 -35 -7 -22 60 11 60 3 119 -20 148 -19 23 -75 14 -112 -18z m84 -19 c18 -34 12 -78 -12 -95 -28 -20 -62 -20 -77 -2 -16 19 8 77 40 100 30 21 36 20 49 -3z m-14 -354 c-17 -77 -46 -134 -72 -144 -24 -9 -36 17 -30 65 7 53 27 92 74 144 45 50 51 38 28 -65z"/>
<path d="M6340 10911 c-18 -17 -30 -40 -30 -55 0 -26 9 -33 90 -63 l25 -10 -32 -16 c-18 -10 -41 -17 -51 -17 -23 0 -46 -25 -37 -40 10 -17 34 -12 97 22 51 27 59 35 56 56 -2 21 -12 28 -52 41 -27 9 -51 21 -53 26 -6 21 24 48 61 54 51 8 50 25 -2 29 -36 3 -47 -1 -72 -27z"/>
<path d="M6702 10903 c-19 -37 -43 -123 -37 -133 13 -21 42 -8 82 37 l42 48 1 -52 c0 -43 4 -54 21 -63 11 -7 22 -10 23 -8 2 2 0 39 -3 83 -7 93 -23 106 -72 59 l-28 -27 6 36 c4 30 2 37 -10 37 -9 0 -20 -8 -25 -17z"/>
<path d="M3997 10783 c-24 -60 -53 -130 -63 -158 l-19 -50 -8 55 c-28 194 -44 247 -68 223 -8 -8 -7 -31 4 -85 9 -40 21 -118 27 -173 17 -159 39 -156 99 12 61 167 82 213 96 213 14 0 29 45 20 60 -4 6 -14 10 -25 10 -14 0 -29 -26 -63 -107z"/>
<path d="M4897 10884 c-4 -4 -7 -14 -7 -22 0 -9 -9 -50 -21 -92 -20 -74 -21 -76 -48 -72 -39 5 -71 -36 -71 -93 0 -74 47 -82 87 -15 20 35 24 36 48 10 23 -25 79 -44 111 -36 35 9 29 26 -9 26 -24 0 -45 10 -72 33 l-39 34 28 91 c15 50 26 101 24 113 -3 23 -19 35 -31 23z m-85 -261 c-17 -36 -17 -36 -20 -9 -4 29 14 60 29 51 4 -3 1 -22 -9 -42z"/>
<path d="M6557 10825 c-15 -30 -31 -55 -37 -55 -5 0 -10 -12 -10 -26 0 -41 30 -26 66 36 35 57 43 100 21 100 -7 0 -25 -25 -40 -55z"/>
<path d="M2038 10804 c-133 -35 -320 -53 -678 -64 -1166 -36 -1160 -36 -1160 -62 0 -17 4 -19 27 -13 37 9 291 22 678 35 778 25 957 37 1115 73 84 20 120 34 120 47 0 12 4 13 -102 -16z"/>
<path d="M5042 10810 c-26 -16 -33 -26 -30 -47 4 -35 26 -41 37 -9 14 34 46 49 93 43 22 -3 41 -7 43 -9 1 -1 -3 -32 -11 -68 -14 -69 -18 -138 -8 -164 7 -19 55 -21 72 -4 15 15 16 48 1 48 -7 0 -18 -8 -26 -17 -13 -16 -14 -10 -9 53 8 93 23 137 45 128 68 -28 127 -44 161 -44 50 0 53 15 4 23 -19 3 -82 24 -139 46 -120 47 -181 53 -233 21z"/>
<path d="M4395 10801 c-9 -16 3 -31 26 -31 14 0 19 6 17 17 -4 20 -33 29 -43 14z"/>
<path d="M5650 10734 l0 -57 -35 6 c-20 3 -37 1 -41 -5 -9 -15 24 -38 53 -38 19 0 23 -5 23 -29 0 -70 26 -82 35 -17 7 45 7 45 53 48 66 4 68 28 3 28 l-51 0 0 60 c0 53 -2 60 -20 60 -18 0 -20 -7 -20 -56z"/>
<path d="M4232 10720 c-40 -28 -62 -57 -62 -80 0 -12 28 -25 90 -41 51 -13 40 -25 -28 -32 -24 -2 -48 -9 -54 -15 -8 -8 -18 -6 -36 8 -30 25 -80 25 -109 2 -28 -22 -53 -85 -53 -132 0 -30 6 -43 26 -59 34 -27 53 -26 94 2 38 25 70 80 70 118 0 23 5 27 58 39 87 19 122 36 122 59 0 16 -12 24 -52 36 -28 8 -58 15 -65 15 -19 0 -16 14 10 38 13 12 35 22 50 22 33 0 42 14 21 34 -22 22 -35 20 -82 -14z m-114 -182 c42 -42 -29 -174 -80 -147 -20 11 -23 45 -8 101 15 51 59 75 88 46z"/>
<path d="M3492 10691 c6 -30 255 -26 265 4 2 6 -51 10 -132 11 -118 0 -135 -2 -133 -15z"/>
<path d="M4424 10682 c-6 -4 -19 -40 -28 -81 -14 -60 -15 -76 -4 -82 21 -13 34 10 48 84 12 67 7 94 -16 79z"/>
<path d="M4514 10677 c-3 -8 -4 -43 -2 -78 3 -56 6 -64 22 -64 12 0 38 22 63 53 l43 53 0 -54 c0 -58 15 -82 44 -71 17 7 22 24 6 24 -5 0 -10 33 -12 73 -3 65 -5 72 -24 75 -15 2 -32 -10 -57 -38 l-36 -42 -3 38 c-2 28 -8 40 -21 42 -9 2 -20 -3 -23 -11z"/>
<path d="M6333 10627 c-2 -4 4 -10 13 -14 43 -16 1065 -1 1048 16 -9 9 -1055 7 -1061 -2z"/>
<path d="M3525 10610 c-16 -26 9 -33 106 -26 99 6 129 12 129 26 0 12 -228 12 -235 0z"/>
<path d="M9780 10500 c0 -17 48 -108 61 -116 18 -11 4 46 -21 89 -21 36 -40 48 -40 27z"/>
<path d="M12341 10479 c-10 -17 -40 -94 -66 -172 l-48 -141 -23 85 c-41 150 -61 204 -77 207 -27 6 -29 -18 -6 -76 13 -31 37 -104 54 -162 25 -87 34 -106 51 -108 25 -4 24 -6 90 197 26 80 56 153 66 163 10 10 16 23 13 28 -12 19 -35 10 -54 -21z"/>
<path d="M6725 10491 c-37 -5 -51 -11 -53 -23 -3 -16 4 -17 74 -11 97 8 96 -4 -6 -67 -40 -25 -75 -51 -78 -57 -7 -24 50 -35 148 -29 109 7 150 15 150 27 0 5 -53 9 -117 9 l-117 0 60 35 c61 37 84 59 84 82 0 27 -65 42 -145 34z"/>
<path d="M11020 10471 c-5 -11 -22 -86 -36 -168 -14 -81 -29 -152 -33 -158 -4 -5 -5 -41 -2 -79 8 -95 17 -98 122 -51 107 48 139 69 116 73 -9 2 -55 -15 -103 -37 -48 -23 -91 -41 -95 -41 -5 0 -9 22 -9 49 0 36 9 63 35 112 68 122 87 169 89 219 1 39 -4 53 -23 74 -29 31 -47 33 -61 7z m52 -81 c-2 -46 -54 -166 -60 -138 -3 18 26 175 35 191 11 18 26 -14 25 -53z"/>
<path d="M8338 10323 c-8 -10 -26 -44 -38 -76 -13 -31 -29 -56 -34 -54 -6 2 -21 22 -34 45 -13 23 -30 42 -38 42 -26 0 -14 -40 26 -84 l40 -43 -30 -66 c-32 -71 -36 -87 -20 -87 5 0 24 28 41 63 17 34 33 63 34 65 2 2 24 -4 49 -12 51 -18 112 -21 120 -7 3 5 -15 12 -41 16 -38 6 -94 26 -111 40 -6 5 56 131 71 144 10 7 17 17 17 22 0 16 -36 10 -52 -8z"/>
<path d="M9880 10274 c0 -12 34 -64 42 -64 11 0 10 13 -2 44 -8 22 -40 38 -40 20z"/>
<path d="M12460 10158 c-11 -12 -20 -26 -20 -31 0 -4 -7 -15 -15 -23 -18 -19 -20 -115 -3 -132 7 -7 27 -12 44 -12 25 0 39 8 62 36 38 46 58 113 43 143 -24 44 -78 54 -111 19z m70 -23 c24 -28 -28 -145 -64 -145 -17 0 -2 105 20 138 17 26 27 28 44 7z"/>
<path d="M9970 10061 c0 -26 39 -111 51 -111 13 0 11 9 -10 70 -20 56 -41 77 -41 41z"/>
<path d="M2811 9927 c-19 -7 -36 -18 -39 -24 -5 -19 27 -28 49 -15 26 17 84 15 98 -2 15 -18 -10 -46 -69 -76 -22 -11 -40 -27 -40 -36 0 -18 67 -49 127 -59 43 -7 149 10 158 25 3 5 -27 8 -67 7 -40 -1 -94 4 -120 12 l-48 14 45 28 c76 48 84 98 20 124 -41 18 -68 18 -114 2z"/>
<path d="M4216 9849 c-23 -40 -26 -66 -5 -54 5 4 9 0 9 -8 0 -20 -56 -216 -74 -259 -9 -21 -16 -42 -16 -48 0 -22 34 -8 78 31 40 35 129 89 147 89 3 0 5 -17 5 -38 0 -58 24 -74 107 -76 64 0 151 19 139 32 -3 3 -50 6 -103 6 l-98 1 -3 40 c-6 76 -36 83 -137 30 -52 -27 -65 -30 -61 -17 44 146 58 206 59 251 2 69 -13 75 -47 20z"/>
<path d="M2661 9774 c-27 -19 -107 -139 -135 -203 -23 -51 -24 -50 -57 90 -20 86 -38 114 -59 93 -9 -9 47 -221 69 -262 21 -40 43 -21 95 83 64 125 102 177 126 170 11 -3 20 1 24 11 14 35 -23 46 -63 18z"/>
<path d="M3550 9675 c-19 -23 -2 -36 41 -29 46 8 69 -7 69 -43 0 -28 -36 -64 -102 -101 -29 -16 -48 -34 -48 -44 0 -16 11 -18 98 -17 108 1 158 9 151 23 -2 6 -44 9 -94 7 l-90 -2 35 22 c49 29 81 60 91 86 12 32 -8 81 -42 98 -36 19 -93 19 -109 0z"/>
<path d="M3855 9639 c-73 -42 -54 -114 34 -126 50 -7 54 -27 7 -43 -41 -13 -112 -73 -131 -111 -24 -46 -19 -106 11 -136 21 -21 32 -24 61 -20 69 12 107 67 124 181 l11 76 42 12 c64 18 69 31 9 25 -53 -6 -53 -6 -53 23 0 17 5 30 10 30 18 0 11 56 -9 74 -24 22 -89 30 -116 15z m78 -36 c9 -16 -13 -53 -32 -53 -46 0 -64 23 -39 48 13 13 64 16 71 5z m-13 -229 c-12 -75 -32 -112 -74 -132 -38 -19 -56 -2 -56 54 0 34 7 51 32 79 27 32 98 78 106 70 1 -1 -2 -33 -8 -71z"/>
<path d="M2970 9595 c-7 -9 -5 -16 6 -26 23 -19 295 -20 301 -1 4 9 -23 12 -109 12 -68 1 -128 6 -150 14 -30 11 -40 11 -48 1z"/>
<path d="M2695 9521 c-43 -11 -71 -27 -93 -56 -57 -72 64 -137 164 -89 42 20 64 49 64 86 0 46 -68 76 -135 59z m93 -45 c11 -11 11 -18 3 -35 -23 -42 -98 -64 -142 -41 -23 13 -25 40 -4 40 10 0 15 7 13 17 -6 37 97 51 130 19z"/>
<path d="M3043 9513 c-40 -3 -53 -8 -53 -20 0 -14 14 -15 113 -9 132 8 177 15 177 27 0 9 -126 9 -237 2z"/>
<path d="M4307 8740 c-10 -16 -35 -82 -56 -146 l-39 -117 -21 94 c-39 165 -40 169 -61 169 -11 0 -20 -4 -20 -8 0 -18 62 -248 73 -272 7 -14 22 -26 34 -28 23 -3 33 18 73 153 24 81 58 158 59 133 1 -24 31 -23 31 1 0 58 -44 70 -73 21z"/>
<path d="M3750 8703 c-70 -7 -81 -12 -78 -36 4 -27 33 -34 54 -13 27 28 164 15 164 -15 0 -12 -48 -43 -127 -83 -41 -20 -73 -43 -73 -51 0 -43 154 -75 271 -55 38 7 69 15 69 18 0 4 -46 7 -103 8 -56 0 -122 7 -147 14 l-45 12 70 35 c152 76 165 138 35 163 -29 5 -53 9 -54 8 0 0 -17 -3 -36 -5z"/>
<path d="M4374 8521 c-45 -21 -65 -41 -40 -41 10 0 16 -9 16 -23 0 -36 30 -57 79 -57 37 0 49 6 82 39 22 21 39 43 39 48 0 48 -103 68 -176 34z m126 -21 c13 -9 10 -15 -18 -40 -41 -38 -79 -40 -92 -5 -5 14 -15 25 -22 26 -7 0 1 7 17 14 35 17 94 19 115 5z"/>
<path d="M2460 8498 c-74 -10 -115 -34 -115 -68 0 -32 23 -37 34 -7 11 28 21 33 84 42 l46 7 -15 -48 c-18 -59 -29 -182 -20 -217 3 -14 15 -28 26 -32 36 -11 147 52 126 72 -3 4 -27 -3 -51 -15 -25 -12 -50 -22 -55 -22 -15 0 -12 82 5 158 24 103 23 102 99 64 74 -37 119 -47 170 -38 54 10 43 26 -18 26 -43 0 -68 7 -120 35 -37 19 -73 35 -81 35 -8 0 -15 5 -15 10 0 11 -9 11 -100 -2z"/>
<path d="M2967 8394 c-4 -4 -7 -13 -7 -21 0 -10 31 -13 148 -12 147 0 250 11 222 22 -23 8 -355 19 -363 11z"/>
<path d="M4180 8334 c-80 -8 -223 -17 -318 -22 -100 -4 -173 -11 -175 -17 -4 -18 203 -16 428 4 121 11 266 23 323 27 56 4 102 11 102 15 0 13 -192 9 -360 -7z"/>
<path d="M2990 8310 c-12 -7 -12 -12 -2 -22 24 -25 362 -23 362 2 0 5 -71 10 -157 12 -87 2 -165 7 -173 11 -8 4 -22 3 -30 -3z"/>
<path d="M4025 8165 c-67 -37 -95 -87 -68 -125 14 -19 22 -21 62 -16 97 12 92 14 108 -26 15 -37 15 -37 -27 -74 -54 -49 -73 -87 -66 -130 17 -85 157 -103 185 -23 10 30 2 111 -17 160 -10 24 -6 27 86 79 117 65 103 79 -19 19 -49 -23 -91 -40 -95 -37 -3 4 -8 24 -11 46 -5 34 -2 40 16 45 28 7 27 16 -7 56 -34 40 -99 52 -147 26z m106 -36 l22 -22 -59 -28 c-57 -28 -98 -36 -108 -21 -8 13 19 52 50 73 38 25 69 24 95 -2z m48 -253 c15 -61 14 -92 -5 -110 -20 -21 -63 -20 -86 1 -31 27 -23 68 23 118 23 25 45 43 49 40 4 -3 13 -25 19 -49z"/>
<path d="M9353 7360 c-15 -6 -21 -15 -17 -25 7 -18 9 -18 36 -4 25 13 64 4 72 -17 4 -11 -10 -34 -44 -70 -62 -65 -65 -95 -13 -123 26 -13 139 -15 147 -2 8 12 -19 21 -65 21 -43 0 -79 14 -79 31 0 5 23 32 50 60 54 54 60 74 32 109 -20 24 -84 35 -119 20z"/>
<path d="M7999 7298 c0 -2 -2 -21 -4 -42 -2 -21 -23 -76 -45 -122 -39 -77 -44 -83 -68 -78 -35 6 -86 -25 -107 -66 -41 -80 16 -108 87 -42 l42 40 33 -25 c19 -15 52 -28 78 -31 53 -6 62 13 11 22 -19 4 -49 20 -66 36 l-31 29 26 43 c52 84 92 194 82 222 -5 13 -35 24 -38 14z m-150 -314 c-18 -19 -37 -34 -41 -34 -13 0 12 43 35 62 36 28 40 8 6 -28z"/>
<path d="M2605 7204 c-38 -41 -65 -106 -85 -206 -15 -69 -25 -97 -41 -109 -23 -17 -21 -49 3 -49 10 0 13 -22 13 -87 l0 -88 78 0 c94 0 109 19 18 23 l-64 3 5 98 c4 91 8 103 40 157 78 129 123 239 111 270 -8 23 -52 16 -78 -12z m-1 -125 c-21 -45 -40 -76 -42 -70 -5 16 24 100 50 141 37 61 32 14 -8 -71z"/>
<path d="M9139 7190 c-21 -22 -67 -82 -102 -133 -54 -80 -62 -89 -65 -66 -2 14 3 63 11 107 8 45 12 84 9 87 -3 3 -13 5 -22 5 -14 0 -19 -16 -28 -82 -18 -123 -16 -165 7 -178 32 -16 49 -2 113 94 88 131 118 167 137 164 23 -4 21 36 -2 40 -12 2 -33 -12 -58 -38z"/>
<path d="M5542 7188 c-11 -18 -41 -75 -68 -127 l-48 -94 -13 39 c-8 21 -15 62 -17 90 -3 58 -11 75 -31 67 -36 -13 10 -221 53 -238 24 -9 42 14 98 132 38 79 58 111 68 107 20 -8 29 12 16 36 -15 29 -36 25 -58 -12z"/>
<path d="M7580 7186 c-17 -45 -33 -143 -27 -159 11 -28 44 -19 76 20 l31 38 0 -51 c0 -45 12 -74 31 -74 12 0 20 125 10 153 -15 38 -33 34 -76 -15 -23 -27 -35 -35 -32 -23 3 11 11 39 18 62 12 43 8 73 -11 73 -6 0 -15 -11 -20 -24z"/>
<path d="M7385 7190 c-11 -17 5 -30 36 -30 35 0 40 25 7 34 -31 8 -36 8 -43 -4z"/>
<path d="M8685 7155 c-9 -25 -34 -68 -56 -95 -41 -52 -49 -80 -24 -80 8 0 47 9 85 19 79 22 79 22 54 -53 -12 -35 -13 -51 -5 -59 17 -17 26 -1 60 108 33 107 37 130 21 140 -18 11 -40 -15 -40 -46 0 -32 -15 -41 -82 -52 l-37 -6 40 61 c43 67 51 108 20 108 -13 0 -24 -14 -36 -45z"/>
<path d="M5038 7179 c-20 -11 -24 -34 -8 -44 5 -3 21 1 34 10 28 19 58 9 76 -26 17 -31 4 -54 -72 -123 -45 -42 -68 -69 -63 -77 6 -9 35 -10 116 -5 179 11 220 40 52 37 l-98 -2 48 46 c77 74 84 110 33 161 -36 36 -82 45 -118 23z"/>
<path d="M6876 7169 c-51 -14 -96 -71 -96 -122 0 -37 23 -50 75 -45 l45 6 0 -43 c0 -36 -3 -44 -23 -49 -36 -9 -105 -63 -127 -99 -22 -36 -26 -97 -8 -115 7 -7 29 -12 49 -12 46 0 88 33 113 88 16 35 23 41 60 47 138 22 798 23 929 0 32 -5 87 4 87 15 0 12 -148 19 -525 26 -187 3 -382 2 -432 -3 -93 -9 -93 -9 -93 14 0 13 10 29 25 39 30 20 33 34 5 27 -18 -5 -20 0 -20 48 0 59 6 72 33 82 23 8 22 38 -3 69 -22 29 -53 38 -94 27z m60 -42 c7 -20 -67 -97 -94 -97 -13 0 -22 6 -22 15 0 24 28 73 47 84 25 15 63 13 69 -2z m-61 -323 c-18 -47 -56 -84 -86 -84 -15 0 -19 7 -19 33 0 40 20 69 74 109 40 29 41 29 44 8 2 -13 -4 -42 -13 -66z"/>
<path d="M7150 7108 c-64 -33 -61 -57 9 -78 60 -17 82 -40 65 -67 -14 -23 -34 -28 -34 -9 0 19 -11 21 -28 4 -17 -17 -15 -47 3 -54 42 -16 105 30 105 76 0 33 -38 68 -82 77 -16 3 -28 9 -28 13 0 12 62 31 90 28 16 -2 25 3 28 15 5 26 -72 23 -128 -5z"/>
<path d="M7402 7048 c-11 -24 -33 -60 -51 -82 -36 -45 -38 -56 -11 -56 14 0 35 23 70 76 54 83 60 104 30 104 -13 0 -25 -14 -38 -42z"/>
<path d="M3387 7053 c-3 -5 -2 -27 4 -49 5 -21 13 -100 18 -175 12 -171 17 -191 45 -187 17 2 30 27 66 123 58 150 103 239 132 260 19 13 21 17 8 25 -10 6 -22 5 -35 -4 -26 -17 -85 -128 -132 -246 l-38 -94 -7 134 c-9 162 -18 214 -40 218 -9 2 -19 -1 -21 -5z"/>
<path d="M4560 7035 c-11 -14 -11 -18 0 -25 15 -10 2 -122 -26 -208 -17 -52 -17 -52 -59 -52 -44 0 -76 -24 -89 -66 -7 -24 15 -54 40 -54 23 0 71 28 87 50 13 19 16 19 57 5 47 -17 90 -20 90 -6 0 4 -21 16 -47 26 -27 10 -51 21 -55 24 -5 4 1 32 11 62 25 69 43 175 39 220 -3 38 -27 50 -48 24z m-70 -324 c0 -14 -51 -52 -61 -45 -9 5 -5 17 14 42 11 14 47 16 47 3z"/>
<path d="M5648 7045 c-3 -4 -21 -7 -40 -8 -31 -2 -34 -5 -45 -50 -8 -33 -9 -57 -2 -76 18 -51 89 -66 146 -31 63 38 84 103 46 142 -20 20 -92 36 -105 23z m70 -41 c30 -21 28 -40 -12 -80 -39 -39 -67 -43 -96 -14 -27 27 -26 34 14 75 38 38 60 43 94 19z"/>
<path d="M9158 7024 c-13 -12 -9 -119 4 -132 21 -21 74 -14 107 14 35 29 43 82 15 105 -17 14 -115 25 -126 13z m98 -38 c19 -14 19 -15 -2 -43 -12 -15 -31 -29 -43 -31 -19 -3 -21 1 -21 42 0 41 2 46 23 46 13 0 32 -6 43 -14z"/>
<path d="M6256 6995 c-17 -17 -36 -77 -36 -112 0 -21 -5 -23 -59 -23 -44 0 -60 -4 -65 -15 -8 -22 16 -29 69 -21 l45 7 0 -75 c0 -75 6 -106 20 -106 4 0 11 40 14 90 8 100 2 93 95 104 78 8 73 26 -7 26 -65 0 -72 2 -72 19 0 26 19 74 32 82 12 8 4 39 -11 39 -5 0 -16 -7 -25 -15z"/>
<path d="M3995 6951 c-3 -6 5 -19 17 -30 26 -25 45 -13 29 18 -12 22 -36 28 -46 12z"/>
<path d="M9897 6943 c-17 -17 -5 -42 26 -53 40 -14 195 -25 231 -16 51 13 24 23 -84 33 -78 7 -115 15 -128 26 -20 18 -34 21 -45 10z"/>
<path d="M2885 6910 c-4 -6 -3 -16 2 -21 28 -28 262 -38 271 -11 2 8 -11 12 -45 12 -45 0 -135 12 -194 26 -16 3 -30 1 -34 -6z"/>
<path d="M3880 6867 c-35 -20 -56 -40 -58 -54 -3 -23 5 -27 75 -38 83 -13 95 -50 27 -83 -28 -13 -38 -14 -41 -4 -7 19 -31 14 -38 -9 -16 -50 54 -50 123 1 33 24 41 26 46 14 11 -29 30 -8 42 47 6 30 15 69 19 87 7 28 5 32 -13 32 -16 0 -23 -11 -33 -50 -14 -53 -19 -59 -39 -36 -6 8 -37 21 -67 27 l-56 13 29 23 c16 13 37 23 47 23 10 0 17 8 17 20 0 28 -17 25 -80 -13z"/>
<path d="M4165 6863 c-4 -21 -9 -51 -12 -66 -3 -16 1 -42 7 -58 15 -36 53 -39 87 -7 l23 21 0 -36 c0 -46 26 -64 58 -41 27 19 29 38 2 31 -17 -4 -19 1 -22 66 -2 57 -6 72 -19 75 -11 2 -24 -12 -38 -42 -43 -88 -72 -81 -52 14 15 70 14 80 -9 80 -14 0 -21 -9 -25 -37z"/>
<path d="M8295 6870 c-4 -7 -3 -16 3 -22 14 -14 47 -6 47 12 0 18 -40 26 -50 10z"/>
<path d="M4774 6856 c-9 -24 4 -48 23 -44 12 2 18 12 18 28 0 29 -32 41 -41 16z"/>
<path d="M5750 6853 c-29 -13 -96 -16 -370 -19 -256 -3 -335 -7 -335 -17 0 -16 273 -21 522 -9 143 7 186 12 207 25 14 10 26 22 26 27 0 13 -7 12 -50 -7z"/>
<path d="M9020 6823 c-91 -8 -208 -11 -261 -9 -99 6 -117 2 -98 -21 15 -18 168 -17 374 2 88 8 206 15 263 15 94 0 126 9 86 24 -25 9 -184 5 -364 -11z"/>
<path d="M2930 6777 c0 -19 19 -26 89 -33 35 -4 67 -1 86 7 29 12 28 13 -40 20 -38 4 -85 10 -102 14 -26 6 -33 4 -33 -8z"/>
<path d="M3608 6774 c-32 -17 -58 -62 -58 -99 0 -32 50 -85 79 -85 33 0 81 50 88 92 8 52 -2 83 -32 96 -33 15 -44 15 -77 -4z m67 -30 c28 -28 -6 -114 -45 -114 -43 0 -48 86 -6 115 26 19 31 19 51 -1z"/>
<path d="M9163 6773 c-7 -2 -13 -11 -13 -19 0 -12 9 -14 45 -8 82 12 94 -30 21 -75 -72 -45 -49 -81 52 -81 77 0 114 8 109 23 -2 6 -32 9 -75 8 -40 -1 -72 0 -72 4 0 3 16 19 35 36 46 41 52 65 24 95 -18 19 -32 24 -68 23 -25 0 -52 -3 -58 -6z"/>
<path d="M10045 6761 c-71 -5 -90 -9 -90 -21 0 -12 13 -15 55 -15 69 1 210 25 210 36 0 9 -22 9 -175 0z"/>
<path d="M5345 6733 c-37 -9 -83 -53 -96 -90 -11 -34 -10 -38 11 -55 27 -22 55 -23 92 -4 15 8 29 12 32 8 9 -8 7 -42 -2 -42 -17 0 -96 -76 -124 -119 -47 -75 -35 -161 23 -161 79 0 138 81 147 203 l5 67 68 36 c65 34 85 54 56 54 -7 0 -17 -4 -22 -9 -6 -4 -23 -13 -40 -19 -16 -5 -38 -13 -47 -17 -14 -6 -18 -2 -18 18 0 14 7 27 15 31 17 6 20 39 5 66 -8 16 -62 42 -79 39 -3 -1 -15 -4 -26 -6z m58 -39 c11 -11 -35 -66 -66 -79 -31 -13 -57 -10 -57 6 0 4 14 24 31 44 29 33 74 47 92 29z m-13 -216 c0 -55 -20 -108 -54 -146 -22 -24 -38 -33 -49 -29 -19 7 -22 51 -7 91 10 28 87 116 101 116 5 0 9 -15 9 -32z"/>
<path d="M7288 6728 c-16 -5 -28 -17 -28 -25 0 -13 7 -14 43 -8 60 12 108 9 125 -8 16 -17 16 -16 -80 -71 -77 -43 -61 -71 44 -82 41 -4 92 -2 132 6 89 17 99 35 15 27 -35 -3 -93 -2 -129 1 l-65 8 62 32 c71 36 77 44 69 78 -12 46 -116 69 -188 42z"/>
<path d="M8893 6654 c-42 -25 -58 -54 -51 -90 4 -23 55 -36 97 -24 19 5 36 8 38 6 2 -2 -26 -23 -62 -46 -107 -70 -160 -148 -141 -208 18 -55 112 -46 174 17 44 45 68 110 77 203 4 37 11 70 16 73 13 9 11 69 -3 83 -21 21 -99 14 -145 -14z m111 -13 c18 -28 -39 -71 -94 -71 -24 0 -31 4 -28 17 7 37 106 81 122 54z m-27 -182 c-11 -93 -80 -176 -140 -167 -31 4 -33 46 -5 88 20 29 133 130 146 130 3 0 2 -23 -1 -51z"/>
<path d="M7557 5726 c-7 -19 16 -38 36 -30 8 3 29 -2 46 -11 43 -22 40 -52 -9 -100 -46 -45 -49 -73 -10 -92 41 -21 160 -14 160 8 0 5 -25 9 -56 9 -30 0 -64 5 -75 10 -18 10 -16 13 21 49 48 46 55 94 18 129 -43 39 -121 56 -131 28z"/>
<path d="M4303 5699 c-18 -5 -33 -16 -33 -24 0 -12 10 -14 55 -9 68 8 72 -5 15 -53 -53 -45 -52 -69 3 -93 44 -21 117 -27 117 -10 0 5 -19 14 -42 21 -84 22 -86 26 -38 68 36 31 42 41 37 63 -5 17 -17 30 -38 37 -36 12 -33 12 -76 0z"/>
<path d="M8611 5681 c-8 -5 -7 -16 5 -40 21 -41 14 -112 -16 -171 -18 -36 -25 -41 -46 -36 -59 15 -118 -38 -94 -84 16 -30 50 -30 94 2 28 20 28 20 78 -7 34 -19 53 -24 60 -17 7 7 1 15 -18 26 -69 37 -69 38 -39 101 33 66 42 138 26 188 -13 37 -30 50 -50 38z m-80 -302 c-26 -21 -37 -19 -28 6 4 8 17 15 29 15 l23 -1 -24 -20z"/>
<path d="M5616 5620 c-4 -33 -14 -82 -22 -109 -14 -49 -14 -49 -55 -44 -53 8 -86 -11 -100 -56 -13 -44 1 -86 30 -96 36 -11 79 20 126 93 1 1 35 -13 76 -32 82 -38 149 -55 149 -37 0 6 -6 11 -14 11 -8 0 -55 21 -104 46 l-89 45 19 62 c10 34 21 87 25 119 5 53 4 58 -14 58 -17 0 -21 -9 -27 -60z m-61 -190 c8 -13 -30 -66 -55 -80 -16 -9 -21 -6 -26 15 -8 34 19 75 51 75 13 0 27 -5 30 -10z"/>
<path d="M7402 5608 c-5 -7 -22 -38 -37 -68 -52 -104 -97 -181 -104 -175 -3 4 -8 48 -11 98 -5 84 -7 92 -25 92 -19 0 -20 -6 -18 -82 1 -46 9 -98 17 -118 13 -31 20 -36 43 -33 25 3 35 17 90 123 46 89 62 113 63 93 0 -18 5 -28 15 -28 11 0 15 11 15 39 0 65 -21 91 -48 59z"/>
<path d="M4827 5594 c-10 -10 12 -44 28 -44 9 0 15 10 15 25 0 18 -5 25 -18 25 -10 0 -22 -3 -25 -6z"/>
<path d="M4097 5557 c-12 -14 -33 -56 -46 -94 -12 -37 -25 -75 -28 -83 -7 -20 -29 42 -38 108 -6 43 -10 52 -27 52 -19 0 -20 -4 -14 -57 4 -32 18 -81 31 -110 20 -44 28 -53 49 -53 23 0 28 8 52 88 35 114 41 127 60 112 11 -10 15 -9 20 5 8 19 -5 46 -24 53 -6 2 -22 -8 -35 -21z"/>
<path d="M8015 5570 c-10 -17 23 -60 45 -60 24 0 24 -1 4 38 -15 32 -37 41 -49 22z"/>
<path d="M6934 5529 c-34 -10 -47 -29 -38 -54 9 -22 41 -18 47 5 4 16 14 20 46 20 67 0 55 -23 -63 -113 -72 -55 -38 -77 120 -77 112 0 140 15 47 25 -32 3 -80 9 -107 13 l-49 7 57 39 c60 41 76 61 76 95 0 46 -58 63 -136 40z"/>
<path d="M3625 5521 c-41 -5 -50 -9 -50 -26 0 -14 6 -19 20 -17 121 18 165 14 165 -18 0 -23 -38 -51 -125 -91 -47 -22 -65 -36 -63 -48 5 -27 258 -28 258 -1 0 6 -41 10 -92 10 l-93 0 55 31 c74 40 100 67 100 101 0 49 -68 72 -175 59z"/>
<path d="M8204 5517 c-3 -8 -4 -45 -2 -83 4 -85 18 -92 78 -38 l42 38 -2 -34 c-3 -54 -1 -60 19 -60 23 0 47 25 31 35 -5 3 -10 31 -10 61 0 48 -2 54 -21 54 -12 0 -37 -18 -60 -42 l-38 -43 2 60 c2 49 -1 60 -16 63 -9 2 -20 -3 -23 -11z"/>
<path d="M4605 5508 c-26 -15 -35 -28 -35 -56 0 -18 10 -27 40 -40 22 -9 40 -20 40 -24 0 -10 -58 -21 -70 -13 -13 8 -42 -14 -34 -26 8 -14 81 -11 119 5 52 22 47 52 -11 77 -57 26 -52 44 12 44 37 0 49 4 52 16 5 27 -74 39 -113 17z"/>
<path d="M5057 5484 c-4 -4 -7 -40 -7 -81 0 -100 14 -104 88 -27 l56 59 7 -47 c4 -26 10 -52 14 -57 8 -14 62 -14 70 -1 3 6 -3 10 -13 10 -21 0 -32 25 -32 71 0 58 -48 65 -107 14 l-41 -35 1 47 c2 36 -2 48 -13 50 -9 2 -19 1 -23 -3z"/>
<path d="M7802 5478 c-7 -7 -12 -22 -12 -35 0 -23 23 -38 85 -58 20 -6 20 -7 1 -21 -15 -11 -22 -11 -34 -2 -11 10 -18 8 -33 -11 -10 -13 -16 -27 -13 -32 15 -26 125 12 138 48 8 20 -25 53 -53 53 -10 0 -26 7 -37 15 -18 14 -18 14 9 15 16 0 27 5 27 14 0 25 -56 36 -78 14z"/>
<path d="M8049 5463 c-1 -5 -1 -12 0 -16 1 -4 -10 -28 -23 -54 -25 -47 -26 -63 -1 -63 17 0 56 66 62 107 5 29 3 33 -16 33 -11 0 -22 -3 -22 -7z"/>
<path d="M4862 5397 c-26 -62 -28 -90 -6 -85 9 2 27 30 40 62 29 71 29 76 7 76 -12 0 -26 -18 -41 -53z"/>
<path d="M4138 5377 c-33 -13 -40 -29 -28 -61 25 -66 181 -81 208 -22 28 62 -93 118 -180 83z m128 -42 c21 -14 23 -19 13 -32 -10 -11 -25 -14 -57 -10 -50 5 -78 27 -68 53 5 13 15 15 47 11 22 -3 51 -13 65 -22z"/>
<path d="M6287 5384 c-4 -4 -7 -21 -7 -38 0 -17 -3 -42 -7 -55 -5 -22 -10 -23 -54 -18 -51 6 -69 -4 -49 -28 9 -10 24 -13 56 -8 l44 6 0 -61 c0 -66 14 -117 30 -107 5 3 10 42 10 85 l0 79 67 3 c42 2 68 8 71 16 3 9 -15 12 -67 12 -69 0 -71 1 -66 23 12 56 10 91 -5 95 -9 1 -19 0 -23 -4z"/>
<path d="M7443 5370 c-28 -12 -43 -40 -43 -83 0 -61 56 -85 120 -52 50 26 67 87 33 118 -23 20 -82 29 -110 17z m85 -56 c3 -19 -38 -64 -57 -64 -23 1 -33 20 -27 54 7 36 9 37 44 34 29 -2 38 -8 40 -24z"/>
<path d="M2830 5321 c0 -14 9 -23 26 -27 29 -7 355 4 363 12 17 16 -41 24 -164 22 -77 -2 -159 1 -182 5 -40 8 -43 7 -43 -12z"/>
<path d="M9363 5287 c-12 -19 21 -30 89 -30 84 1 228 22 228 34 0 10 -310 6 -317 -4z"/>
<path d="M3550 5232 c0 -14 16 -19 112 -33 62 -9 164 -10 413 -3 354 10 724 11 1357 3 287 -3 400 -1 408 7 13 13 -1095 26 -1790 21 -206 -1 -403 2 -437 7 -43 6 -63 5 -63 -2z"/>
<path d="M2875 5220 c-15 -24 15 -31 142 -37 128 -6 223 1 223 16 0 4 -69 11 -152 14 -84 4 -165 10 -179 13 -16 3 -30 1 -34 -6z"/>
<path d="M6961 5212 c-6 -2 -11 -9 -11 -17 0 -33 436 -43 975 -21 232 10 546 16 722 15 195 -2 312 1 310 6 -3 12 -717 12 -1332 1 -338 -6 -454 -5 -542 6 -61 7 -116 12 -122 10z"/>
<path d="M9383 5183 c-22 -8 -14 -33 15 -44 40 -16 224 -17 229 -1 3 8 -11 12 -50 12 -86 0 -147 11 -147 26 0 14 -23 17 -47 7z"/>
<path d="M4709 5087 c-25 -17 -35 -31 -37 -55 -3 -27 1 -34 25 -43 15 -6 40 -8 56 -5 25 5 27 3 27 -29 0 -31 -5 -37 -49 -59 -105 -54 -141 -146 -80 -207 17 -17 29 -20 63 -16 65 9 106 78 106 180 0 41 3 47 38 68 27 17 33 24 20 26 -9 3 -26 -1 -37 -7 -19 -10 -21 -8 -21 18 0 15 7 37 15 48 55 73 -43 137 -126 81z m89 -31 c5 -24 -14 -36 -55 -36 -41 0 -44 23 -5 44 34 19 56 16 60 -8z m-18 -223 c0 -62 -27 -115 -63 -128 -24 -8 -31 -6 -43 10 -32 43 -6 106 60 146 17 10 34 19 39 19 4 0 7 -21 7 -47z"/>
<path d="M7904 5016 c-19 -19 -34 -41 -34 -50 0 -27 45 -48 95 -44 41 3 45 1 45 -19 0 -13 -6 -23 -13 -23 -8 0 -42 -14 -75 -31 -67 -33 -83 -59 -66 -107 13 -36 75 -66 119 -58 47 9 66 41 72 120 l6 64 86 33 c100 38 93 52 -10 19 -38 -13 -73 -20 -76 -16 -4 3 -6 29 -5 57 1 62 -21 89 -74 89 -28 0 -44 -8 -70 -34z m104 -28 c3 -24 -1 -28 -32 -33 -19 -4 -42 -3 -52 3 -16 9 -15 12 10 36 34 35 70 32 74 -6z m2 -177 c0 -83 -33 -115 -88 -87 -57 30 -42 76 38 110 49 21 50 21 50 -23z"/>
<path d="M4578 4148 c-17 -6 -28 -17 -28 -29 0 -23 9 -24 46 -4 34 17 62 19 98 5 36 -13 25 -32 -50 -82 -70 -47 -88 -78 -60 -106 13 -14 36 -17 111 -17 60 1 99 5 107 13 9 9 -5 12 -64 12 -80 0 -134 13 -123 30 3 6 33 28 65 50 68 46 86 71 71 99 -20 36 -112 52 -173 29z"/>
<path d="M8378 4102 c-10 -15 -23 -35 -30 -44 -18 -25 -2 -34 22 -13 26 24 26 11 0 -83 -23 -82 -72 -196 -89 -206 -17 -11 -13 -36 5 -36 9 0 36 17 59 39 23 21 51 44 62 50 19 10 20 8 15 -34 -3 -28 0 -50 8 -60 16 -19 77 -19 124 0 41 17 41 40 0 25 -14 -6 -41 -10 -60 -10 l-35 0 7 56 c8 68 -3 80 -55 58 -19 -8 -36 -12 -38 -10 -3 2 7 38 21 80 29 86 50 192 41 206 -12 19 -40 10 -57 -18z"/>
<path d="M9770 4095 c-12 -14 -11 -18 0 -25 18 -11 1 -87 -36 -171 -25 -55 -28 -58 -55 -52 -64 12 -129 -44 -129 -111 0 -64 52 -62 118 5 l41 41 46 -36 c47 -35 133 -63 170 -54 24 6 13 11 -52 28 -23 6 -65 28 -92 50 l-51 40 29 58 c58 114 77 233 40 240 -9 2 -22 -4 -29 -13z m-95 -285 c7 -12 -72 -93 -84 -85 -14 8 -2 41 25 70 24 26 48 32 59 15z"/>
<path d="M5810 4055 c0 -8 5 -15 11 -15 17 0 4 -89 -22 -149 -19 -45 -24 -50 -45 -45 -84 21 -192 -74 -142 -124 28 -28 101 -7 147 41 l23 26 52 -29 c52 -29 141 -48 173 -36 15 6 15 8 3 16 -8 6 -31 10 -50 10 -36 0 -99 26 -135 55 -19 15 -19 16 8 71 49 98 49 194 2 194 -16 0 -25 -6 -25 -15z m-66 -244 c9 -15 -64 -71 -93 -71 -21 0 -11 29 20 54 30 26 63 34 73 17z"/>
<path d="M3836 3990 c-9 -38 -29 -86 -42 -106 -35 -51 -22 -63 66 -56 l69 5 -15 -48 c-18 -60 -18 -105 -1 -105 7 0 20 27 30 63 9 34 26 94 37 132 25 90 25 97 -2 93 -19 -2 -25 -13 -33 -53 l-11 -50 -51 -1 -50 -2 28 67 c34 78 38 131 11 131 -13 0 -22 -16 -36 -70z"/>
<path d="M5130 3990 c0 -20 44 -49 56 -37 9 8 -27 57 -42 57 -8 0 -14 -9 -14 -20z"/>
<path d="M7297 3983 c-8 -16 -20 -46 -27 -68 -7 -22 -24 -62 -38 -88 -30 -57 -21 -71 40 -61 l36 6 -14 -47 c-15 -52 -12 -65 15 -65 13 0 18 8 18 29 0 16 12 54 26 83 15 30 27 60 27 66 0 6 12 19 26 28 22 15 23 19 11 31 -12 12 -18 13 -35 2 -16 -10 -50 -61 -58 -86 0 -2 -15 -6 -32 -9 l-32 -6 35 78 c20 44 40 87 46 97 5 10 7 22 4 27 -11 19 -35 10 -48 -17z"/>
<path d="M7802 3998 c-20 -20 -15 -58 8 -58 13 0 20 7 20 20 0 26 16 26 31 -1 21 -39 -5 -93 -78 -164 -79 -77 -79 -95 -1 -95 46 0 168 35 261 75 10 4 -17 -28 -61 -72 -58 -58 -84 -92 -93 -122 l-12 -41 -251 0 c-228 1 -307 5 -418 26 -31 5 -38 4 -38 -9 0 -29 87 -39 400 -44 l304 -5 27 -29 c40 -43 104 -36 159 16 24 23 33 25 250 35 124 6 351 17 505 25 154 8 470 18 703 21 364 6 449 12 431 28 -9 8 -982 -15 -1214 -28 -143 -8 -345 -18 -448 -22 l-189 -7 22 43 c24 46 50 155 50 210 0 28 10 44 57 92 31 32 54 61 50 65 -4 4 -29 -14 -55 -40 -26 -26 -50 -47 -53 -47 -3 0 -3 15 -1 34 3 27 -1 37 -16 45 -56 30 -163 -72 -133 -127 9 -18 6 -22 -30 -36 -52 -21 -178 -56 -202 -56 -12 0 -2 16 37 54 81 82 105 165 60 210 -18 19 -65 21 -82 4z m331 -95 c-10 -29 -45 -63 -65 -63 -26 0 -22 14 13 49 34 34 62 42 52 14z m-15 -181 c-7 -67 -43 -158 -69 -172 -10 -6 -43 -10 -73 -10 -62 0 -71 13 -40 60 23 35 167 180 178 180 5 0 6 -26 4 -58z m-97 -216 c-18 -21 -69 -30 -86 -16 -27 22 -16 30 41 30 48 0 55 -2 45 -14z"/>
<path d="M9104 3995 c-9 -21 14 -45 42 -45 28 0 29 3 8 35 -18 28 -42 33 -50 10z"/>
<path d="M4326 3956 c-17 -19 -47 -64 -66 -100 -19 -36 -38 -66 -41 -66 -3 0 -9 26 -12 58 -9 81 -25 122 -48 122 -21 0 -24 -16 -9 -55 6 -15 15 -59 21 -98 21 -138 41 -140 109 -9 54 105 75 134 103 145 9 3 17 13 17 22 0 27 -41 16 -74 -19z"/>
<path d="M9284 3936 c3 -13 -1 -59 -10 -101 -25 -119 -4 -136 71 -59 l45 46 0 -46 c0 -38 3 -46 19 -46 24 0 52 31 34 37 -8 3 -13 23 -13 54 0 69 -19 74 -76 18 -46 -46 -50 -42 -33 31 13 57 5 90 -22 90 -17 0 -20 -4 -15 -24z"/>
<path d="M5387 3943 c-10 -18 -30 -172 -24 -187 11 -27 47 -18 84 22 l36 37 -5 -35 c-3 -19 -3 -41 -1 -47 6 -15 32 -17 53 -3 13 9 13 11 1 19 -12 8 -12 19 -2 67 10 50 9 60 -5 74 -14 14 -21 9 -69 -45 -30 -33 -55 -55 -55 -50 0 6 7 35 15 65 20 74 19 90 -4 90 -11 0 -22 -3 -24 -7z"/>
<path d="M4903 3901 c-81 -37 -62 -92 37 -106 27 -4 52 -10 55 -15 6 -10 -51 -34 -64 -26 -14 9 -61 -23 -61 -41 0 -21 54 -12 126 21 46 21 55 29 52 48 -3 23 -7 25 -138 54 l-25 6 25 20 c18 14 32 18 57 13 28 -5 33 -3 33 13 0 12 -9 22 -22 26 -30 8 -27 8 -75 -13z"/>
<path d="M8903 3895 c-52 -22 -55 -95 -4 -95 9 0 23 -5 31 -10 13 -9 13 -12 -3 -25 -11 -7 -25 -11 -33 -8 -17 6 -30 -25 -16 -39 14 -14 62 5 92 37 27 29 16 54 -29 70 -37 12 -36 31 2 27 21 -3 27 1 27 17 0 30 -29 42 -67 26z"/>
<path d="M5143 3800 c-48 -99 -51 -113 -26 -108 20 4 108 171 98 187 -15 25 -32 6 -72 -79z"/>
<path d="M9116 3861 c-4 -5 -3 -16 0 -24 7 -19 -20 -73 -41 -80 -22 -9 -19 -47 4 -47 37 0 102 119 80 146 -13 16 -35 18 -43 5z"/>
<path d="M8723 3836 c-28 -13 -31 -46 -5 -46 21 0 52 29 52 48 0 14 -17 14 -47 -2z"/>
<path d="M7554 3826 c-15 -12 -16 -17 -7 -27 16 -16 63 3 63 26 0 19 -30 19 -56 1z"/>
<path d="M4347 3773 c-4 -3 -7 -30 -7 -58 0 -77 46 -109 114 -81 63 26 73 102 16 131 -29 15 -111 21 -123 8z m117 -43 c6 -6 7 -19 0 -37 -8 -23 -15 -28 -44 -28 -34 0 -35 1 -38 44 l-3 44 37 -6 c20 -4 42 -11 48 -17z"/>
<path d="M2974 3715 c-4 -9 -2 -21 4 -27 24 -24 322 -5 322 20 0 4 -60 7 -132 7 -73 0 -145 4 -160 9 -22 6 -29 5 -34 -9z"/>
<path d="M10227 3676 c-4 -10 -1 -19 9 -23 19 -7 212 2 221 10 13 14 -6 17 -114 24 -97 5 -110 4 -116 -11z"/>
<path d="M6424 3665 c-11 -27 6 -33 106 -38 52 -3 105 -8 118 -12 29 -9 29 10 0 26 -12 6 -54 15 -93 20 -39 4 -83 11 -98 14 -20 5 -28 3 -33 -10z"/>
<path d="M2970 3606 c0 -26 43 -36 148 -36 100 0 194 18 189 35 -1 5 -13 7 -27 5 -38 -8 -241 -4 -277 5 -27 6 -33 4 -33 -9z"/>
<path d="M3724 3588 c-3 -5 -1 -15 5 -21 17 -17 2291 -24 2291 -8 0 8 -195 11 -710 11 -639 0 -1464 13 -1547 24 -18 3 -35 0 -39 -6z"/>
<path d="M10278 3572 c-25 -5 -22 -29 5 -36 54 -14 237 1 197 17 -21 8 -181 23 -202 19z"/>
<path d="M6410 3495 c0 -21 63 -37 173 -42 114 -6 135 11 26 21 -38 4 -91 14 -117 22 -60 18 -82 18 -82 -1z"/>
<path d="M4942 3413 c-14 -6 -42 -55 -42 -76 0 -28 28 -50 71 -56 44 -6 44 -6 47 -52 3 -41 0 -49 -27 -72 -51 -42 -81 -95 -81 -141 0 -48 13 -66 48 -66 50 0 97 81 104 180 2 27 10 40 35 58 18 12 33 27 33 32 0 13 -6 13 -40 -5 l-30 -16 -2 48 c0 27 0 55 1 63 2 8 5 29 8 46 4 25 0 35 -18 48 -22 15 -79 20 -107 9z m72 -32 c9 -14 -12 -61 -30 -68 -8 -3 -23 1 -31 10 -15 14 -15 18 1 41 16 26 49 35 60 17z m-5 -329 c-12 -38 -36 -72 -51 -72 -12 0 -10 58 3 83 6 12 21 33 33 45 21 24 21 24 24 3 2 -12 -2 -38 -9 -59z"/>
<path d="M8648 3354 c-34 -18 -48 -43 -48 -84 0 -24 6 -33 28 -41 15 -6 42 -8 60 -5 30 4 32 3 32 -25 0 -16 -4 -29 -9 -29 -5 0 -37 -19 -71 -42 -78 -51 -108 -107 -90 -163 22 -66 85 -85 138 -41 30 26 61 104 63 160 2 62 12 77 69 101 30 13 56 28 58 34 5 14 5 14 -61 -8 -57 -20 -57 -20 -57 2 0 13 7 33 16 45 16 23 12 42 -9 42 -7 0 -14 10 -14 22 -4 45 -54 60 -105 32z m56 -71 c-24 -31 -34 -36 -53 -24 -20 13 -6 55 21 68 17 8 27 7 38 -3 12 -12 11 -17 -6 -41z m7 -211 c-13 -83 -37 -131 -69 -139 -19 -4 -30 -1 -44 17 -37 45 -13 103 64 155 29 19 53 33 55 31 2 -2 -1 -31 -6 -64z"/>
<path d="M4146 2398 c-2 -7 -11 -56 -21 -108 -24 -131 -80 -331 -111 -401 -24 -54 -25 -79 -3 -79 5 0 21 25 36 56 46 99 123 160 123 99 0 -38 25 -92 48 -104 29 -16 117 -14 157 3 41 18 49 41 9 26 -33 -13 -120 -13 -144 0 -11 6 -21 26 -25 52 -13 79 -47 107 -91 73 -10 -8 -22 -15 -25 -15 -3 0 13 76 37 168 51 205 55 235 31 240 -9 2 -19 -2 -21 -10z"/>
<path d="M3755 2230 c-94 -20 -125 -82 -70 -140 l28 -29 -53 -58 c-96 -107 -104 -160 -22 -156 70 3 148 55 170 113 11 28 -5 81 -28 95 -9 5 4 23 39 55 49 45 60 70 42 98 -11 18 -69 30 -106 22z m65 -43 c0 -7 -5 -18 -11 -24 -6 -6 -16 -21 -23 -34 -6 -12 -19 -27 -29 -33 -15 -9 -23 -6 -43 17 -19 23 -22 32 -13 48 13 24 43 38 87 38 20 1 32 -4 32 -12z m-40 -204 c0 -26 -73 -90 -115 -102 -21 -6 -41 -8 -44 -6 -8 9 21 53 72 111 51 56 51 56 69 34 10 -12 18 -29 18 -37z"/>
<path d="M5045 2231 c-8 -15 14 -53 28 -48 18 6 15 51 -5 55 -9 2 -19 -2 -23 -7z"/>
<path d="M5786 2182 c-4 -15 -20 -51 -36 -79 l-30 -52 -35 15 c-27 11 -44 12 -73 4 -77 -20 -125 -107 -83 -149 12 -12 28 -21 36 -21 31 0 91 32 126 66 l36 36 34 -30 c53 -45 113 -72 164 -72 54 0 52 15 -3 25 -41 7 -90 33 -141 77 -32 28 -32 28 -13 55 25 35 72 129 72 143 0 5 -11 10 -24 10 -18 0 -26 -7 -30 -28z m-99 -150 c9 -6 4 -17 -20 -39 -45 -44 -87 -65 -104 -51 -19 16 -16 33 13 67 20 24 34 31 62 31 21 0 43 -4 49 -8z"/>
<path d="M5179 2128 c0 -18 -11 -73 -23 -123 -13 -49 -21 -94 -17 -98 13 -13 36 2 55 37 24 46 103 129 114 122 5 -3 12 -33 14 -65 5 -75 26 -101 80 -101 21 0 38 5 38 10 0 6 -8 10 -18 10 -39 0 -54 24 -62 99 -4 40 -13 78 -18 83 -16 16 -57 1 -97 -33 l-35 -31 6 61 c7 58 6 61 -15 61 -17 0 -21 -6 -22 -32z"/>
<path d="M4769 2120 c-67 -35 -58 -69 22 -90 92 -25 67 -84 -44 -104 -36 -7 -37 -6 -25 13 17 28 4 37 -27 17 -60 -39 -8 -77 80 -57 134 30 154 124 34 160 -33 10 -38 15 -29 26 17 21 77 30 96 15 21 -19 43 3 24 25 -17 21 -87 19 -131 -5z"/>
<path d="M5025 2103 c-4 -16 -17 -63 -30 -106 -20 -67 -21 -79 -8 -84 8 -3 18 -2 22 3 13 13 70 198 64 207 -11 19 -43 6 -48 -20z"/>
<path d="M6360 2101 c-49 -5 -65 -10 -65 -21 0 -17 -10 -16 193 -5 101 6 132 11 132 21 0 15 -123 17 -260 5z"/>
<path d="M2923 2058 c-14 -23 21 -28 203 -28 126 0 194 4 194 10 0 6 -6 13 -12 15 -23 8 -380 10 -385 3z"/>
<path d="M4520 2015 c0 -8 9 -15 20 -15 11 0 20 7 20 15 0 8 -9 15 -20 15 -11 0 -20 -7 -20 -15z"/>
<path d="M6334 1989 c-2 -4 3 -12 11 -19 12 -10 47 -11 138 -7 123 6 167 13 167 27 0 8 -310 8 -316 -1z"/>
<path d="M2987 1973 c-15 -14 -6 -31 24 -43 60 -25 319 6 354 42 7 7 -2 8 -30 4 -172 -30 -281 -34 -311 -11 -22 16 -28 18 -37 8z"/>
<path d="M6257 1023 c-60 -46 -41 -83 41 -83 45 0 72 23 72 63 0 51 -58 61 -113 20z m78 -13 c10 -16 -15 -40 -41 -40 -28 0 -30 7 -7 32 18 20 38 23 48 8z"/>
<path d="M4288 928 c-18 -6 -28 -17 -28 -30 0 -15 4 -18 18 -13 70 30 137 30 149 0 9 -26 -24 -62 -125 -133 -158 -113 -160 -127 -13 -118 137 9 181 16 181 27 0 7 -41 10 -116 7 -131 -3 -132 -12 6 86 83 59 113 99 102 138 -10 41 -107 61 -174 36z"/>
<path d="M5740 925 c-6 -8 -9 -19 -5 -25 9 -14 42 -13 48 3 3 9 7 9 20 -2 26 -21 20 -44 -22 -85 -22 -21 -37 -45 -34 -52 3 -8 29 -21 59 -31 30 -9 54 -20 54 -24 0 -11 -63 -20 -96 -13 -37 7 -78 -20 -54 -36 23 -16 161 5 200 30 25 16 -1 43 -63 65 l-55 20 34 37 c39 43 44 78 14 108 -24 24 -82 27 -100 5z"/>
<path d="M7086 919 c-36 -28 -33 -56 11 -101 l36 -37 -41 -45 c-69 -75 -49 -124 46 -113 89 10 131 80 80 134 l-22 24 37 35 c41 39 46 54 18 54 -11 0 -23 9 -26 20 -8 24 -54 50 -88 50 -13 0 -36 -9 -51 -21z m92 -31 c18 -23 18 -60 0 -72 -15 -9 -24 -5 -49 21 -38 37 -34 63 9 63 16 0 34 -6 40 -12z m32 -187 c0 -18 -41 -43 -79 -48 -53 -7 -55 12 -4 68 l37 41 23 -27 c13 -14 23 -30 23 -34z"/>
<path d="M5145 920 c-4 -7 -3 -16 3 -22 14 -14 45 -2 40 15 -6 16 -34 21 -43 7z"/>
<path d="M3643 880 c-35 -14 -29 -51 13 -78 l35 -23 -26 -31 c-32 -38 -65 -101 -65 -126 0 -68 113 -47 160 30 24 40 25 59 4 100 -16 31 -16 32 10 53 33 26 33 38 0 64 -28 22 -90 27 -131 11z m96 -29 c12 -8 12 -12 2 -25 -8 -9 -19 -16 -25 -16 -19 0 -57 31 -51 41 8 12 56 12 74 0z m-5 -117 c13 -33 5 -57 -28 -90 -76 -76 -90 -21 -19 74 27 36 38 40 47 16z"/>
<path d="M7594 882 c-6 -4 -15 -17 -18 -30 -11 -34 -124 -150 -167 -172 -41 -22 -51 -18 -43 17 6 22 4 24 -17 21 -18 -2 -25 -10 -27 -31 -10 -88 98 -68 197 36 34 36 35 36 49 16 19 -27 68 -21 122 15 l38 25 4 -49 c3 -27 11 -56 18 -65 14 -17 80 -21 80 -5 0 6 -9 10 -20 10 -32 0 -43 34 -35 111 6 63 5 69 -11 69 -11 0 -32 -14 -49 -31 -26 -27 -93 -69 -110 -69 -10 0 -5 48 10 83 11 28 12 37 2 45 -7 6 -18 8 -23 4z"/>
<path d="M5311 798 c-25 -96 -26 -127 -7 -134 23 -9 67 20 131 85 33 34 63 61 67 61 4 0 8 -20 8 -44 0 -58 17 -104 42 -112 28 -9 30 -2 13 39 -8 20 -15 58 -15 85 0 26 -6 56 -13 66 -18 25 -40 12 -129 -71 -38 -36 -71 -63 -74 -60 -2 2 5 33 16 68 25 80 25 99 2 99 -15 0 -23 -17 -41 -82z"/>
<path d="M4923 843 c-18 -9 -35 -23 -38 -31 -7 -20 13 -42 40 -42 35 0 85 -21 85 -36 0 -17 -51 -44 -84 -44 -35 0 -56 -10 -56 -26 0 -19 46 -18 101 1 54 19 79 42 79 70 0 30 -19 44 -77 60 -48 12 -48 12 -20 24 21 8 32 8 47 -1 27 -17 50 3 30 27 -16 19 -66 18 -107 -2z"/>
<path d="M6504 849 c-13 -22 14 -26 144 -21 103 3 132 7 132 18 0 11 -27 14 -134 14 -86 0 -137 -4 -142 -11z"/>
<path d="M5146 788 c-43 -79 -54 -118 -33 -118 15 0 97 141 97 167 0 32 -32 7 -64 -49z"/>
<path d="M6013 817 c-30 -44 -31 -107 -2 -133 15 -14 36 -19 76 -19 50 0 57 3 89 37 53 58 44 104 -26 132 -22 9 -57 16 -78 16 -31 0 -41 -6 -59 -33z m122 -11 c46 -19 47 -54 4 -90 -33 -28 -59 -32 -90 -16 -26 15 -26 73 1 100 24 24 39 25 85 6z"/>
<path d="M3075 803 c-83 -4 -105 -11 -105 -29 0 -15 9 -16 73 -9 39 4 117 11 172 14 56 3 100 10 100 16 0 10 -127 15 -240 8z"/>
<path d="M4653 793 c-23 -8 -14 -33 12 -33 15 0 25 6 25 14 0 16 -19 25 -37 19z"/>
<path d="M4023 753 c-7 -2 -13 -13 -13 -24 0 -23 32 -26 50 -4 20 25 -3 42 -37 28z"/>
<path d="M3035 730 c-15 -24 10 -29 118 -24 127 6 157 11 157 23 0 13 -267 14 -275 1z"/>
<path d="M6523 723 c-3 -7 -4 -16 -2 -18 9 -8 219 -9 221 0 3 11 -46 20 -145 28 -54 4 -70 2 -74 -10z"/>
</g><g transform="translate(1181.248348, 1231.4982785993843) scale(0.40808740102544044)"><g transform="translate(-57.706759,297.537395) scale(0.100000,-0.100000)" fill="#4444bb" stroke="none">
<path d="M750 2973 c-57 -10 -88 -25 -119 -57 -40 -41 -55 -100 -46 -179 6 -45 12 -61 32 -77 32 -25 35 -25 64 -1 22 17 24 26 21 89 -4 105 24 120 164 87 33 -7 119 -19 190 -25 88 -8 134 -16 144 -26 32 -32 8 -420 -28 -456 -18 -18 -126 -28 -289 -28 -185 0 -206 -4 -250 -52 -55 -58 -58 -82 -55 -363 1 -145 7 -274 13 -293 11 -34 51 -62 89 -62 12 0 35 14 52 31 l31 30 -6 238 c-3 130 -3 249 0 264 l5 27 112 0 c234 1 363 26 423 82 58 54 98 260 91 463 -4 122 -7 138 -34 191 -40 81 -79 100 -217 108 -174 10 -361 14 -387 9z" fill="#4444bb"/>
<path d="M3660 2971 c-42 -9 -83 -34 -103 -65 -39 -59 -50 -127 -54 -343 -5 -206 -5 -212 18 -252 28 -50 78 -86 143 -102 48 -12 257 -8 370 7 l49 7 -7 -104 c-4 -57 -11 -189 -16 -294 -9 -177 -9 -192 8 -214 35 -47 100 -46 136 2 22 29 27 86 42 452 7 191 0 235 -44 283 -45 48 -92 56 -241 38 -146 -18 -229 -20 -265 -6 l-26 10 0 162 c0 156 8 230 27 249 5 5 99 6 210 2 l201 -6 5 -50 c3 -39 11 -56 31 -74 34 -29 48 -29 80 0 24 20 26 30 28 113 4 147 -23 169 -218 179 -242 11 -340 13 -374 6z" fill="#4444bb"/>
<path d="M1565 2945 c-14 -13 -25 -32 -25 -42 0 -10 -1 -297 -3 -638 -2 -677 -3 -662 55 -694 33 -19 73 -7 101 31 18 24 20 51 29 300 5 150 10 278 12 283 2 6 37 8 97 3 52 -3 135 -7 186 -7 154 -2 161 -10 143 -176 -21 -189 -27 -310 -18 -343 12 -45 45 -72 86 -72 71 0 102 46 102 151 0 33 7 118 16 187 24 190 9 280 -58 349 -50 52 -112 67 -263 65 -71 -1 -164 -6 -205 -11 -41 -4 -78 -7 -81 -5 -4 2 -10 108 -13 236 -9 286 -17 352 -47 384 -31 33 -82 32 -114 -1z" fill="#4444bb"/>
<path d="M2542 2944 c-55 -38 -64 -109 -53 -419 6 -186 9 -215 28 -250 50 -95 116 -125 302 -135 75 -4 171 -5 215 -1 l78 7 -4 -178 c-2 -97 -7 -181 -11 -184 -4 -4 -42 1 -85 11 -104 26 -285 27 -363 3 -106 -33 -149 -107 -99 -170 26 -34 68 -41 132 -21 74 23 202 20 308 -7 182 -47 274 5 301 168 12 77 27 831 19 994 -7 152 -20 181 -86 186 -88 7 -103 -51 -104 -401 l0 -219 -201 4 c-197 3 -201 3 -220 27 -18 21 -19 42 -19 283 l0 260 -29 29 c-33 33 -74 38 -109 13z" fill="#4444bb"/>
<path d="M2374 1391 c-55 -34 -79 -78 -79 -147 0 -51 4 -66 27 -96 35 -45 102 -73 153 -64 78 15 146 111 131 188 -20 108 -145 172 -232 119z" fill="#4444bb"/>
<path d="M1853 999 c-39 -11 -66 -56 -61 -101 6 -59 69 -64 76 -6 4 30 34 38 145 38 l67 0 0 -110 c0 -135 -1 -136 -132 -126 -85 6 -89 6 -113 -18 -24 -25 -25 -28 -25 -179 0 -162 4 -177 47 -177 35 0 43 29 43 159 l0 121 73 0 c85 0 141 14 168 41 17 17 19 34 19 169 0 147 -1 152 -25 175 -23 24 -30 25 -137 24 -62 0 -128 -5 -145 -10z" fill="#4444bb"/>
<path d="M2985 1000 c-91 -16 -93 -18 -104 -58 -15 -51 -14 -537 0 -564 19 -36 69 -48 204 -48 121 0 127 1 151 25 l24 24 -2 292 -3 292 -26 19 c-31 23 -161 33 -244 18z m169 -86 c14 -5 16 -37 16 -250 l0 -245 -102 3 -103 3 0 240 0 240 40 6 c57 9 131 10 149 3z" fill="#4444bb"/>
<path d="M2351 971 c-24 -24 -29 -73 -37 -372 -6 -232 -6 -237 15 -258 23 -23 29 -25 51 -11 12 7 16 40 20 150 l5 141 35 -23 c19 -13 59 -55 88 -93 30 -39 78 -96 108 -128 47 -51 56 -57 74 -47 29 16 25 42 -15 92 -19 24 -62 78 -95 121 -61 77 -61 77 -33 77 15 0 46 9 69 19 56 26 67 57 62 179 -6 156 -27 172 -220 172 -93 0 -111 -3 -127 -19z m257 -74 c16 -13 17 -168 0 -185 -7 -7 -41 -12 -84 -12 -40 0 -84 -4 -98 -10 l-26 -10 0 120 0 119 98 -6 c53 -3 103 -10 110 -16z" fill="#4444bb"/>
</g>
</g>
</svg>
