<?xml version="1.0" encoding="UTF-8" standalone="no"?>
<svg
   version="1.0"
   width="289.80527pt"
   height="198.49951pt"
   viewBox="0 0 289.80527 198.49951"
   preserveAspectRatio="xMidYMid"
   id="svg16"
   sodipodi:docname="836t.svg"
   inkscape:version="1.3 (0e150ed, 2023-07-21)"
   xmlns:inkscape="http://www.inkscape.org/namespaces/inkscape"
   xmlns:sodipodi="http://sodipodi.sourceforge.net/DTD/sodipodi-0.dtd"
   xmlns="http://www.w3.org/2000/svg"
   xmlns:svg="http://www.w3.org/2000/svg">
  <defs
     id="defs16">
    <inkscape:path-effect
       effect="spiro"
       id="path-effect64"
       is_visible="true"
       lpeversion="1" />
    <inkscape:path-effect
       effect="simplify"
       id="path-effect63"
       is_visible="true"
       lpeversion="1.3"
       threshold="40.6897"
       steps="1"
       smooth_angles="360"
       helper_size="0"
       simplify_individual_paths="false"
       simplify_just_coalesce="false" />
  </defs>
  <sodipodi:namedview
     id="namedview16"
     pagecolor="#ffffff"
     bordercolor="#000000"
     borderopacity="0.25"
     inkscape:showpageshadow="2"
     inkscape:pageopacity="0.0"
     inkscape:pagecheckerboard="0"
     inkscape:deskcolor="#d1d1d1"
     inkscape:document-units="pt"
     inkscape:zoom="1.0883906"
     inkscape:cx="295.84966"
     inkscape:cy="206.72724"
     inkscape:window-width="1440"
     inkscape:window-height="847"
     inkscape:window-x="0"
     inkscape:window-y="25"
     inkscape:window-maximized="0"
     inkscape:current-layer="svg16" />
  <metadata
     id="metadata1">&#10;Created by potrace 1.16, written by Peter Selinger 2001-2019&#10;</metadata>
  <g
     transform="matrix(0.1,0,0,-0.1,-2.2574531,199)"
     fill="#000000"
     stroke="none"
     id="g16">
    <path
       id="path1"
       d="m 2330.0001,1990 c -72.9992,0 -91.0019,-2.9971 -82.0019,-11.9971 9,-9 11.997,-232.0134 11.997,-943.0078 0,-710.99416 3.0118,-933.99323 12.0118,-942.993147 9,-8.999928 0,-11.99707 -41.001,-11.99707 -43,0 -52.0029,-3.000096 -48.0029,-15 4,-7.999936 -5.0098,-23.009862 -20.0098,-35.009766 C 2148.9933,18.995205 2141.9972,10 2146.9972,10 c 5,0 20.0029,11.004995 33.0029,25.004883 15,15.999872 33.9942,24.990234 53.9942,24.990234 h 31.0107 l -25.0049,-20.991211 c -21.9992,-17.999856 -22.0029,-19.004811 -3.0029,-10.004883 12,5.999952 25.0078,16.0059 28.0078,21.00586 3,5.999952 20.9981,9.990234 37.9981,9.990234 h 31.9921 l -30,-26.000976 -30,-26.0009769 37.002,26.0009769 c 38,26.999784 78.0029,34.003746 78.0029,14.003906 0,-8.999928 2.9971,-8.999928 11.9971,0 7,6.999944 23.002,11.99707 37.002,11.99707 23.9992,0 23.9951,-0.002 4.9951,-22.001953 l -18.9991,-21.987305 32.0069,21.987305 c 17,11.999904 35.9971,22.001953 41.9971,22.001953 5.9992,0 11.0009,5.004923 11.0009,10.004883 0,5.999952 -27.9951,10.004883 -64.9951,10.004883 -64.9992,0 -66.0088,0.002 -54.0088,22.001957 9,15.99984 10.9981,105.99883 7.9981,326.99707 l -3.9405,301.66992 c -0.7488,0.63637 -0.938,1.51493 -0.029,2.47558 l -0.029,1.84571 0.6006,0.0146 c -0.3677,1.23773 -0.7408,2.47341 -0.9668,3.75 -0.347,1.91549 -0.6963,3.85248 -0.7763,5.80078 0.01,1.3928 -7e-4,2.7822 0.029,4.1748 0.031,1.1642 0.076,2.32813 0.205,3.48633 0.165,1.4618 0.383,2.91748 0.542,4.37988 0.098,1.5849 0.2644,3.17155 0.2344,4.76074 -0.013,0.73332 0.067,1.37989 0.2051,1.94825 l 0.9375,111.69433 c 1,65.99952 1.9883,143.99887 2.9883,172.99807 l 1.0107,52.002 h 2.6514 c -6.0763,9.0646 -6.6643,18.9474 -2.6514,26.9531 v 411.0352 c 0,319.9968 2.9971,431.0097 11.9971,440.0097 9,9 -9.002,11.9971 -82.002,11.9971 z m -56.997,-10.0049 h 56.0009 56.001 l -2.0068,-431.001 c -2,-237.9976 -3.9951,-432.9892 -4.9951,-433.9892 -2,-1 -27.001,-4.9981 -56.001,-7.9981 l -52.9981,-6.0058 1.9922,438.999 z m 273.2519,-877.8662 c -1.6285,-0.6755 -2.1898,-1.3179 -2.3584,-2.124 h 1.4942 c 0.3181,0.7621 0.6211,1.6292 0.8642,2.124 z m -218.7598,-12.3779 c 15.75,1 31.503,-2.7481 40.503,-11.7481 8,-8 11.997,-57.0105 11.997,-155.00974 0,-129.99896 -1.999,-142.98836 -18.999,-152.98828 -28.9992,-14.99984 -56,-12.0057 -75,8.99414 -23.9992,25.99984 -22.9892,266.99418 1.0108,293.99418 9,10 24.739,15.7578 40.4882,16.7578 z m -45.8056,-334.48245 c 1.5469,0.33204 3.3174,-0.27441 5.3174,-1.27441 10,-4 33.998,-7.99805 52.998,-7.99805 L 2375.0001,745 l 3.003,-318.99902 c 2,-226.99824 -1.0088,-323.00692 -9.0088,-332.006839 -14,-16.999864 -62.9961,-17.995958 -75.9961,-0.996094 -6,6.999944 -12.9922,150.002493 -16.9922,341.000973 -5.25,271.24784 -5.1445,318.94539 5.6836,321.26953 z" />
    <path
       id="path3"
       d="m 2692.212,704.51172 c -0.3509,0.0109 -0.6532,0.008 -0.8789,-0.0146 -0.3558,-0.0356 -0.7143,-0.0878 -1.0693,-0.13184 0.02,-0.022 0.039,-0.0364 0.059,-0.0586 8.7769,-0.623 4.3457,0.12858 1.8896,0.20508 z m 0.8204,-12.09961 c -0.2913,-0.0979 -0.5902,-0.21482 -0.8789,-0.30762 -0.7602,-0.268 -3.0446,-1.03266 -2.2706,-0.80566 1.1406,0.3352 2.167,0.71258 3.1495,1.11328 z m 7.3681,-20.03906 c -1.1399,-1.55055 -2.3823,-3.04589 -3.6474,-4.52637 0.084,0.0505 0.1641,0.0946 0.249,0.14648 1.3655,0.91035 2.4843,2.42558 3.3984,4.37989 z m -15.5127,-5.12696 c 0.7078,-0.1373 1.3294,-0.2775 2.1241,-0.4248 0.3924,-0.073 -0.7596,0.22391 -1.1426,0.33691 -0.3246,0.0249 -0.6554,0.0624 -0.9815,0.0879 z" />
    <path
       id="path7"
       d="m 116.62123,555.96191 c -1.977,3.77258 -4.61426,-81.76975 -4.61426,-198.95507 -2,-227.99604 -2.00159,-228.01226 22.99805,-252.01172 l 23.99414,-24.990237 h -48.99903 c -31.999387,0 -49.995115,-4.011863 -49.995115,-12.011719 0,-5.999892 -10.002169,-22.987557 -22.001953,-36.987305 C 16.003288,7.0062482 15.993873,6.9985132 47.993297,32.998047 66.992955,47.997777 93.993498,59.995117 107.9933,59.995117 L 135.00502,58.999023 110.99623,39.003906 C 97.996392,28.004104 88.997257,16.995081 91.997203,14.995117 c 1.999964,-2.999946 15.007997,6.010018 28.007817,20.009766 15.99964,16.999694 33.9945,24.994122 53.99414,23.99414 30.99928,0 30.9936,0.0039 8.99414,-15.996093 -12.99982,-7.999856 -22.99805,-20.004973 -22.99805,-25.004883 0,-4.99991 14.0111,1.996346 31.01074,15.996094 16.99964,13.999748 42.99743,26.000976 56.99707,26.000976 l 26.99707,-0.996094 -30,-23.99414 C 229.00049,21.005135 220.00129,10 226.00111,10 c 5.99982,0 20.99938,11.005135 33.99902,25.004883 14.99982,15.999712 33.9945,24.990234 53.99414,24.990234 l 31.01075,-0.996094 -30,-23.99414 c -38.99946,-31.9994276 -28.99928,-31.9994276 15,0 18.99964,13.999748 42.99822,24.990234 52.99804,24.990234 18.99964,0 19.99183,-0.995459 1.99219,-19.995117 -9.99982,-10.999802 -13.99787,-19.995117 -7.99805,-19.995117 5,0 18.008,8.995315 28.00782,19.995117 15.99964,17.999676 64.99511,29.003636 64.99511,14.003906 0,-2.999946 -9.9984,-15.005063 -22.99804,-25.004883 -19.99964,-18.9996508 -19.99574,-19.0047272 -0.9961,-10.004882 10.99982,4.99991 25.99903,17.005026 33.99903,25.004882 11.99964,14.99973 60,23.004649 60,10.004883 0,-2.999946 -10.00214,-15.005063 -22.00196,-25.004883 -20.99964,-18.9996508 -21.00647,-19.0047272 -2.00683,-10.004882 10.99982,4.99991 25.9992,17.005026 33.99902,25.004882 6.99982,8.999838 23.99823,15.996094 37.99805,15.996094 h 25.00488 L 589.00404,32.998047 564.99525,6.0009766 601.9972,32.998047 c 32.99946,23.999568 78.00293,36.005589 78.00293,21.005859 0,-2.999946 -10.00213,-15.001174 -22.00195,-26.000976 -12.99982,-10.999802 -5.99573,-9.008519 14.00391,5.991211 19.99964,13.999748 47.00408,26.000976 59.0039,26.000976 21.99964,0 21.99263,0.0029 -2.00683,-26.99707 L 705.00502,6.0009766 742.00697,32.998047 c 19.99964,14.99973 46.98944,26.99707 58.98926,26.99707 21.99946,0 22.00727,0.0029 -1.99219,-26.99707 L 774.99525,6.0009766 811.9972,32.998047 c 32.99946,23.999568 78.00293,36.005589 78.00293,21.005859 0,-2.999946 -10.00213,-15.001174 -22.00195,-26.000976 -12.99982,-10.999802 -5.99573,-9.008519 14.00391,5.991211 19.99964,13.999748 47.00408,26.000976 59.0039,26.000976 21.99964,0 21.99263,0.0029 -2.00683,-26.99707 L 915.00502,6.9970703 950.99623,32.998047 c 19.99964,14.99973 47.00069,26.99707 59.99997,26.99707 24,-0.999982 24.0088,-0.990666 -5.9912,-24.990234 -38.9991,-32.9994096 -22.99956,-31.9994276 18.999,0 18,13.999748 43.001,24.990234 56.001,24.990234 h 22.9981 l -24.0088,-26.99707 -23.9942,-27.9931642 30.9961,27.9931642 c 18,15.999712 41,26.99707 60,26.99707 h 29.0039 l -30,-26.000976 c -18.9982,-14.99973 -21.9941,-20.999892 -8.9941,-15 11,4.99991 25.999,17.005026 33.999,25.004882 7,8.999838 26.9893,15.996094 43.9893,15.996094 l 31.0107,-0.996094 -24.0088,-19.995117 c -13,-10.999802 -21.999,-22.008825 -18.999,-24.008789 2,-2.999946 15.0078,6.010018 28.0078,20.009766 13,13.999748 33.9922,24.990234 46.9922,24.990234 29,0 28.9961,-6.996526 0.9961,-30.996094 -21,-18.9996508 -20.9922,-19.0047272 -1.9922,-10.004882 11,4.99991 25.999,17.005026 33.999,25.004882 7,8.999838 23.9981,15.996094 37.9981,15.996094 h 25.0049 l -24.0088,-26.99707 -23.9942,-26.9970704 37.002,26.9970704 c 20,14.99973 47,26.99707 60,26.99707 l 22.998,-0.996094 -22.0019,-18.002929 c -36,-29.99946 -25.999,-36.0014382 11.001,-7.001953 30.9982,22.999586 75.996,35.009495 75.996,20.009765 0,-2.999946 -10.0019,-15.005063 -22.0019,-25.004883 -21,-18.9996508 -20.9922,-19.0047272 -1.9922,-10.004882 11,4.99991 26.0029,16.008933 33.0029,24.008789 8,9.99982 31.9971,15 71.9971,15 h 60.9961 L 1628.0031,32.001953 1605.005,6.0009766 1637.9933,32.998047 c 19,14.99973 46,26.99707 60,26.99707 L 1725.005,58.999023 1700.9962,40 c -29.9982,-25.999532 -13.9992,-25.999532 18.999,0 14,10.999802 36.0098,19.999005 50.0098,18.999023 h 24.9902 l -22.0019,-18.002929 c -13,-10.999802 -22.9981,-22.001049 -22.9981,-26.000977 0,-3.999928 14.0108,4.999276 31.0108,18.999024 17,13.999748 42.9971,26.000976 56.9971,26.000976 l 26.997,-0.996094 L 1841.006,40 c -31,-25.999532 -17.0039,-25.999532 15.9961,0 14,10.999802 36.9912,19.995117 50.9912,19.995117 h 25.0049 l -23.9942,-26.99707 -24.0088,-26.9970704 33.003,26.9970704 c 19,14.99973 46,26.99707 60,26.99707 l 26.997,-0.996094 -30,-23.99414 C 1958.997,21.005135 1949.004,10 1954.004,10 c 4,0 20.9981,11.005135 37.9981,25.004883 16,13.999748 42.001,24.994122 56.001,23.99414 26.9982,0 26.9951,0.0039 4.9951,-15.996093 -13,-7.999856 -22.9981,-20.001085 -22.9981,-26.000977 0,-5.999892 12.9932,0.996364 27.9932,15.996094 15,14.99973 36.0107,26.99707 46.0107,26.99707 10,0 14.001,5.001085 11.001,11.000977 -4,5.999892 -23.0039,9.001917 -44.0039,7.001953 l -36.0059,-3.00293 -2.9882,89.003903 c -3,85.99856 -3.002,88.00062 -22.002,71.00098 -18,-15.99964 -54.0158,-17.0008 -512.0068,-11.00098 -270.9946,3 -499.00508,5.00586 -505.0049,6.00586 -1.14074,0 -2.15247,0.66013 -3.10547,1.68457 -1.1714,-0.23725 -2.24531,-0.41382 -3.06153,-0.52734 -3.53814,0.0498 -7.04426,0.27427 -10.35644,1.65527 -1.58595,0.69145 -2.99551,1.31952 -4.70215,1.46485 -0.63703,-0.45561 -1.22385,-0.84767 -1.77246,-1.17188 v -3.10547 l -121.99219,-1.01074 c -67.99874,0 -247.99977,0.0107 -401.99707,1.01074 -236.99568,1 -282.00719,-1.00018 -302.00683,-15 l -23.99414,-15 v 150.9961 131.96777 c -2.11276,2.98819 -2.45408,7.97605 -4.08692,16.30371 1.41036,7.7357 3.7441,15.29554 6.43067,22.73438 h -1.34766 l -3.99902,31.99218 c -0.125,1.06249 -0.24906,1.71139 -0.38086,1.96289 z m 876.5039,-47.28515 c -0.0114,-0.10724 -0.0179,-0.21504 -0.0293,-0.32227 0.24417,0.0618 0.29808,0.0736 0.61523,0.14649 -0.19685,0.0542 -0.39007,0.11916 -0.58594,0.17578 z m -869.47265,-4.17481 c 0.11788,-0.98763 0.46377,-1.67449 1.05468,-2.21191 l 5.44922,-0.82031 c -2.16425,1.02169 -4.3235,2.05677 -6.5039,3.03222 z m 45.60058,-2.22656 c -0.0511,0.0953 -0.92014,-0.72258 -1.17187,-1.08398 -0.0482,-0.0691 -0.74525,-1.21288 -0.98145,-1.59668 0.77933,0.6085 1.48709,1.42812 2.12403,2.57812 0.0305,0.055 0.0366,0.0889 0.0293,0.10254 z M 970.09779,267.59277 c -1.5e-4,0 -0.0625,-0.0281 -0.10254,-0.0439 v -1.31836 c 0.18983,-0.0438 0.39285,-0.0958 0.58594,-0.14649 -0.0983,0.65724 -0.1601,1.3959 -0.4834,1.50879 z m 357.90531,-57.59765 h 345.9961 345.996 V 155.00488 100 H 1670.0001 1320.005 l 9.9902,25.00488 c 5,13.99982 6.9991,37.99042 3.9991,54.99024 z m -938.40824,-2.417 c 50.65535,0.10938 109.15165,-0.0713 175.40039,-0.57128 L 965.00013,205 l 3.00293,-40.00488 c 2,-21.99964 8.00391,-45.00196 14.00391,-52.00196 C 990.00679,101.99352 910.00103,100 577.00697,100 c -363.99352,0 -418.00116,1.99645 -431.00098,15.99609 -20.99964,20.99964 -20.00745,69.99823 1.99219,82.99805 8.24982,5.25 89.63063,8.25603 241.59668,8.58398 z m 781.40624,-1.58203 c 84.9982,-1 120.9932,-5.00018 132.9932,-15 18,-14.99964 15.0031,-52.99272 -4.9951,-76.99218 -13,-15.999784 -277.0049,-18.002714 -295.0049,-3.00293 -17.00018,13.99964 -17.9961,62.99254 -0.9961,76.99218 19,15.99982 44.0047,18.00293 168.0029,18.00293 z" />
    <path
       d="m 1549,23 c -13,-16 -12,-17 4,-4 16,13 21,21 13,21 -2,0 -10,-8 -17,-17 z"
       id="path15" />
    <path
       d="m 2359,23 c -13,-16 -12,-17 4,-4 16,13 21,21 13,21 -2,0 -10,-8 -17,-17 z"
       id="path16" />
  </g>
  <path
     style="color:#000000;fill:#000000;-inkscape-stroke:none"
     d="m 130.11328,143.57617 v 34.2461 h 0.82422 v -34.2461 z"
     id="path41" />
  <path
     style="color:#000000;fill:#000000;-inkscape-stroke:none"
     d="m 237.19531,88.357422 v 0.826172 h 34.2461 v -0.826172 z"
     id="path41-6" />
  <path
     style="color:#000000;fill:#000000;-inkscape-stroke:none"
     d="m 236.29492,122.7168 v 0.82617 h 34.2461 v -0.82617 z"
     id="path41-6-5" />
  <path
     style="color:#000000;fill:#000000;-inkscape-stroke:none"
     d="m 95.662109,143.57617 v 34.2461 h 0.826172 v -34.2461 z"
     id="path41-2" />
  <path
     style="color:#000000;fill:#000000;-inkscape-stroke:none"
     d="m 8.9433594,143.57617 v 37.15039 h 0.8242187 v -37.15039 z"
     id="path41-2-3" />
  <g
     id="path42">
    <path
       style="color:#000000;fill:#000000;-inkscape-stroke:none"
       d="m 91.873047,148.5 c 0,0 -19.490244,0.0714 -39.101563,0.10742 -9.805659,0.018 -19.640849,0.0272 -27.085937,0.0137 -3.722544,-0.007 -6.846967,-0.0194 -9.070313,-0.0391 -1.111672,-0.01 -1.999843,-0.0215 -2.621093,-0.0352 -0.310626,-0.007 -0.554184,-0.0138 -0.72461,-0.0215 -0.08521,-0.004 -0.153364,-0.008 -0.197265,-0.0117 -0.0439,-0.004 -0.09248,-0.0201 -0.01758,0.002 l -0.232422,0.79297 c 0.105449,0.031 0.124906,0.0224 0.185547,0.0273 0.06064,0.005 0.133649,0.01 0.224609,0.0137 0.18192,0.008 0.430083,0.0146 0.744141,0.0215 0.628115,0.0138 1.5173,0.0253 2.630859,0.0352 2.227118,0.0197 5.352637,0.0323 9.076172,0.0391 7.447069,0.0135 17.283677,0.004 27.089843,-0.0137 19.612334,-0.036 39.103516,-0.10742 39.103516,-0.10742 z"
       id="path393" />
    <g
       id="g387">
      <g
         id="path390">
        <path
           style="color:#000000;fill:#000000;fill-rule:evenodd;-inkscape-stroke:none"
           d="m 94.759565,148.9014 -4.315741,2.51595 -0.01846,-4.99997 z"
           id="path391" />
        <path
           style="color:#000000;fill:#000000;fill-rule:evenodd;-inkscape-stroke:none"
           d="m 90.089844,145.8418 0.02344,6.15429 5.3125,-3.09765 -0.5,-0.28711 z m 0.669922,1.15234 3.332031,1.91016 -3.316406,1.93359 z"
           id="path392" />
      </g>
      <g
         id="path387">
        <path
           style="color:#000000;fill:#000000;fill-rule:evenodd;-inkscape-stroke:none"
           d="m 10.558309,148.91205 3.568125,-2.0625 v 4.125 z"
           id="path388" />
        <path
           style="color:#000000;fill:#000000;fill-rule:evenodd;-inkscape-stroke:none"
           d="m 14.402344,146.37305 -4.392578,2.53906 0.410156,0.23828 3.982422,2.30078 z m -0.550781,0.95312 v 3.17188 l -2.744141,-1.58594 z"
           id="path389" />
      </g>
    </g>
  </g>
  <g
     id="path42-8">
    <path
       style="color:#000000;fill:#000000;-inkscape-stroke:none"
       d="m 127.02734,148.63086 c 0,0 -6.66636,0.27115 -13.37109,0.40625 -3.35237,0.0675 -6.7151,0.10127 -9.25195,0.0508 -1.26843,-0.0252 -2.33133,-0.0726 -3.07227,-0.14453 -0.37047,-0.036 -0.66273,-0.0799 -0.8418,-0.12305 -0.0895,-0.0216 -0.15146,-0.0456 -0.16601,-0.0527 -0.0145,-0.007 0.0581,9.9e-4 0.10547,0.15429 l -0.787112,0.24219 c 0.06831,0.22092 0.212351,0.29156 0.318359,0.34375 0.106013,0.0522 0.211733,0.0853 0.335943,0.11524 0.24841,0.0598 0.56417,0.10266 0.95507,0.14062 0.78181,0.0759 1.85743,0.12298 3.13672,0.14844 2.55859,0.0509 5.92722,0.0169 9.28516,-0.0508 6.71587,-0.13532 13.38672,-0.40625 13.38672,-0.40625 z"
       id="path386" />
    <g
       id="g380">
      <g
         id="path383">
        <path
           style="color:#000000;fill:#000000;fill-rule:evenodd;-inkscape-stroke:none"
           d="m 129.92681,148.92618 -4.22015,2.67318 -0.20259,-4.99589 z"
           id="path384" />
        <path
           style="color:#000000;fill:#000000;fill-rule:evenodd;-inkscape-stroke:none"
           d="m 125.14844,146.03906 0.24804,6.15039 5.19532,-3.29101 -0.50977,-0.26758 z m 0.71289,1.12891 3.40039,1.78515 -3.24609,2.05665 z"
           id="path385" />
      </g>
      <g
         id="path380">
        <path
           style="color:#000000;fill:#000000;fill-rule:evenodd;-inkscape-stroke:none"
           d="m 97.1507,149.04307 4.325,-2.5 v 5 z"
           id="path381" />
        <path
           style="color:#000000;fill:#000000;fill-rule:evenodd;-inkscape-stroke:none"
           d="m 101.80859,145.96484 -5.324215,3.07813 0.5,0.28906 4.824215,2.78906 z m -0.66601,1.15625 v 3.84375 l -3.324221,-1.92187 z"
           id="path382" />
      </g>
    </g>
  </g>
  <path
     style="color:#000000;fill:#000000;-inkscape-stroke:none"
     d="m 236.29492,190.99414 v 0.82422 h 34.2461 v -0.82422 z"
     id="path41-6-6" />
  <g
     id="path59">
    <path
       style="color:#000000;fill:#000000;-inkscape-stroke:none"
       d="m 264.20703,127.20703 v 59.4668 h 0.82617 v -59.4668 z"
       id="path378" />
    <g
       id="g372">
      <g
         id="path375">
        <path
           style="color:#000000;fill:#000000;fill-rule:evenodd;-inkscape-stroke:none"
           d="m 264.61999,124.32219 2.5,4.325 h -5 z"
           id="path376" />
        <path
           style="color:#000000;fill:#000000;fill-rule:evenodd;-inkscape-stroke:none"
           d="m 264.61914,123.65625 -0.28711,0.5 -2.78906,4.82422 h 6.1543 z m 0.002,1.33008 1.92188,3.32812 h -3.8457 z"
           id="path377" />
      </g>
      <g
         id="path372">
        <path
           style="color:#000000;fill:#000000;fill-rule:evenodd;-inkscape-stroke:none"
           d="m 264.61999,189.55902 -2.5,-4.325 h 5 z"
           id="path373" />
        <path
           style="color:#000000;fill:#000000;fill-rule:evenodd;-inkscape-stroke:none"
           d="m 261.54297,184.90039 3.07617,5.32422 0.28906,-0.49805 2.78907,-4.82617 z m 1.1543,0.66602 h 3.8457 l -1.92188,3.32812 z"
           id="path374" />
      </g>
    </g>
  </g>
  <g
     id="path59-7">
    <path
       style="color:#000000;fill:#000000;-inkscape-stroke:none"
       d="m 264.20703,93.28125 v 25.68359 h 0.82617 V 93.28125 Z"
       id="path371" />
    <g
       id="g365">
      <g
         id="path368">
        <path
           style="color:#000000;fill:#000000;fill-rule:evenodd;-inkscape-stroke:none"
           d="m 264.61999,90.396116 2.5,4.325 h -5 z"
           id="path369" />
        <path
           style="color:#000000;fill:#000000;fill-rule:evenodd;-inkscape-stroke:none"
           d="m 264.61914,89.730469 -0.28711,0.498047 -2.78906,4.826171 h 6.1543 z m 0.002,1.330078 1.92188,3.328125 h -3.8457 z"
           id="path370" />
      </g>
      <g
         id="path365">
        <path
           style="color:#000000;fill:#000000;fill-rule:evenodd;-inkscape-stroke:none"
           d="m 264.61999,121.84935 -2.5,-4.325 h 5 z"
           id="path366" />
        <path
           style="color:#000000;fill:#000000;fill-rule:evenodd;-inkscape-stroke:none"
           d="m 261.54297,117.19141 3.07617,5.32422 0.28906,-0.5 2.78907,-4.82422 z m 1.1543,0.66601 h 3.8457 l -1.92188,3.32617 z"
           id="path367" />
      </g>
    </g>
  </g>
  <path
     style="color:#000000;fill:#000000;stroke-miterlimit:3.2;-inkscape-stroke:none;paint-order:stroke fill markers"
     d="m 157.4668,190.5625 -3.55664,4.29883 0.49023,0.40625 3.55664,-4.29688 z"
     id="path63"
     transform="rotate(0.02616826,-493.05573,613.20039)" />
  <path
     d="m 49.742427,135.61685 c 1.606,0 2.728,-1.254 4.488,-4.026 l -0.528,-0.374 c -1.65,2.398 -2.552,3.52 -3.652,3.52 -0.726,0 -1.078,-0.726 -1.078,-1.474 0,-0.924 0.242,-1.914 0.902,-3.652 3.388,-1.078 7.062,-3.08 7.062,-6.798 0,-1.32 -0.66,-2.156 -1.936,-2.156 -2.178,0 -4.466,2.992 -6.688,8.756 -0.77,0.22 -1.518,0.374 -2.178,0.506 l 0.088,0.594 c 0.528,-0.088 1.166,-0.22 1.826,-0.374 -0.352,1.012 -0.616,1.98 -0.616,2.794 0,2.222 1.232,2.684 2.31,2.684 z m 0.44,-6.776 0.572,-1.386 c 0.638,-1.606 2.31,-5.808 4.092,-5.808 0.55,0 1.034,0.33 1.034,1.386 0,2.948 -2.75,4.73 -5.698,5.808 z"
     id="text64"
     style="font-style:italic;font-size:22px;font-family:'STIX Two Text';-inkscape-font-specification:'STIX Two Text, Italic';stroke-width:0.6375;stroke-miterlimit:3.2;paint-order:stroke fill markers"
     aria-label="ℓ" />
  <path
     d="m 63.881035,138.87909 v -0.42 c -1.38,0 -1.935,-0.27 -1.935,-1.005 v -8.16 h -0.435 l -2.91,0.825 v 0.495 c 0.465,-0.15 1.23,-0.24 1.53,-0.24 0.375,0 0.495,0.21 0.495,0.735 v 6.345 c 0,0.75 -0.525,1.005 -1.935,1.005 v 0.42 z"
     id="text65"
     style="font-size:15px;font-family:'STIX Two Text';-inkscape-font-specification:'STIX Two Text, Normal';stroke-width:0.6375;stroke-miterlimit:3.2;paint-order:stroke fill markers"
     aria-label="1" />
  <path
     d="m 112.90595,135.61685 c 1.606,0 2.728,-1.254 4.488,-4.026 l -0.528,-0.374 c -1.65,2.398 -2.552,3.52 -3.652,3.52 -0.726,0 -1.078,-0.726 -1.078,-1.474 0,-0.924 0.242,-1.914 0.902,-3.652 3.388,-1.078 7.062,-3.08 7.062,-6.798 0,-1.32 -0.66,-2.156 -1.936,-2.156 -2.178,0 -4.466,2.992 -6.688,8.756 -0.77,0.22 -1.518,0.374 -2.178,0.506 l 0.088,0.594 c 0.528,-0.088 1.166,-0.22 1.826,-0.374 -0.352,1.012 -0.616,1.98 -0.616,2.794 0,2.222 1.232,2.684 2.31,2.684 z m 0.44,-6.776 0.572,-1.386 c 0.638,-1.606 2.31,-5.808 4.092,-5.808 0.55,0 1.034,0.33 1.034,1.386 0,2.948 -2.75,4.73 -5.698,5.808 z"
     id="text64-3"
     style="font-style:italic;font-size:22px;font-family:'STIX Two Text';-inkscape-font-specification:'STIX Two Text, Italic';stroke-width:0.6375;stroke-miterlimit:3.2;paint-order:stroke fill markers"
     aria-label="ℓ" />
  <path
     d="m 275.09665,113.69607 c 1.606,0 2.728,-1.254 4.488,-4.026 l -0.528,-0.374 c -1.65,2.398 -2.552,3.52 -3.652,3.52 -0.726,0 -1.078,-0.726 -1.078,-1.474 0,-0.924 0.242,-1.914 0.902,-3.652 3.388,-1.078 7.062,-3.08 7.062,-6.798 0,-1.320003 -0.66,-2.156003 -1.936,-2.156003 -2.178,0 -4.466,2.992003 -6.688,8.756003 -0.77,0.22 -1.518,0.374 -2.178,0.506 l 0.088,0.594 c 0.528,-0.088 1.166,-0.22 1.826,-0.374 -0.352,1.012 -0.616,1.98 -0.616,2.794 0,2.222 1.232,2.684 2.31,2.684 z m 0.44,-6.776 0.572,-1.386 c 0.638,-1.606 2.31,-5.808003 4.092,-5.808003 0.55,0 1.034,0.330003 1.034,1.386003 0,2.948 -2.75,4.73 -5.698,5.808 z"
     id="text64-3-6"
     style="font-style:italic;font-size:22px;font-family:'STIX Two Text';-inkscape-font-specification:'STIX Two Text, Italic';stroke-width:0.6375;stroke-miterlimit:3.2;paint-order:stroke fill markers"
     aria-label="ℓ" />
  <g
     id="g65"
     transform="translate(4.763068,-3)">
    <path
       d="m 270.33359,167.45303 c 1.606,0 2.728,-1.254 4.488,-4.026 l -0.528,-0.374 c -1.65,2.398 -2.552,3.52 -3.652,3.52 -0.726,0 -1.078,-0.726 -1.078,-1.474 0,-0.924 0.242,-1.914 0.902,-3.652 3.388,-1.078 7.062,-3.08 7.062,-6.798 0,-1.32 -0.66,-2.156 -1.936,-2.156 -2.178,0 -4.466,2.992 -6.688,8.756 -0.77,0.22 -1.518,0.374 -2.178,0.506 l 0.088,0.594 c 0.528,-0.088 1.166,-0.22 1.826,-0.374 -0.352,1.012 -0.616,1.98 -0.616,2.794 0,2.222 1.232,2.684 2.31,2.684 z m 0.44,-6.776 0.572,-1.386 c 0.638,-1.606 2.31,-5.808 4.092,-5.808 0.55,0 1.034,0.33 1.034,1.386 0,2.948 -2.75,4.73 -5.698,5.808 z"
       id="text64-8"
       style="font-style:italic;font-size:22px;font-family:'STIX Two Text';-inkscape-font-specification:'STIX Two Text, Italic';stroke-width:0.6375;stroke-miterlimit:3.2;paint-order:stroke fill markers"
       aria-label="ℓ" />
    <path
       d="m 284.56221,170.71527 0.48,-2.4 h -0.435 c -0.345,0.9 -0.54,1.215 -1.335,1.215 h -2.085 l -1.05,0.045 v -0.075 l 1.98,-1.875 c 1.59,-1.605 2.445,-2.64 2.445,-3.975 0,-1.575 -1.185,-2.595 -2.88,-2.595 -1.455,0 -2.475,0.84 -2.94,2.295 l 0.36,0.15 c 0.555,-1.125 1.215,-1.47 2.19,-1.47 1.155,0 1.875,0.72 1.875,1.845 0,1.575 -0.75,2.52 -2.235,4.05 l -2.28,2.28 v 0.51 z"
       id="text65-8"
       style="font-size:15px;font-family:'STIX Two Text';-inkscape-font-specification:'STIX Two Text, Normal';stroke-width:0.6375;stroke-miterlimit:3.2;paint-order:stroke fill markers"
       aria-label="2" />
  </g>
  <path
     style="fill:#000000;stroke-width:0.245785;stroke-miterlimit:3.2;stroke-dasharray:none;paint-order:stroke fill markers"
     d="m 101.75594,188.66616 c -1.36718,-0.14293 -2.811095,-0.38355 -3.2087,-0.53472 -1.069357,-0.40657 -1.679265,-1.95868 -1.678005,-4.27023 0.0023,-3.81301 1.42494,-4.84947 7.282695,-5.30497 6.72784,-0.52315 19.1858,-0.19363 22.28674,0.5895 2.04744,0.51708 2.81698,1.56956 2.80891,3.84159 -0.007,1.89779 -0.65365,3.73215 -1.61548,4.5809 -0.30077,0.26542 -1.52278,0.63076 -2.71556,0.81189 -2.75691,0.41865 -19.8704,0.63 -23.1606,0.28604 z"
     id="path78" />
  <path
     style="fill:#000000;stroke-width:0.245785;stroke-miterlimit:3.2;stroke-dasharray:none;paint-order:stroke fill markers"
     d="m 20.241107,197.67637 c 0,-0.24389 1.658756,-1.9 3.759063,-3.75309 l 1.012055,-0.89292 -1.507236,-0.008 c -1.759031,-0.01 -4.078809,0.80514 -5.721731,2.01026 -1.971182,1.44591 -3.592256,2.37425 -3.942232,2.25759 -0.428678,-0.1429 1.131689,-1.93741 2.487505,-2.86078 0.559371,-0.38095 1.017927,-0.79024 1.019013,-0.90951 0.0035,-0.38075 -4.02774,-0.23237 -5.026685,0.18502 -0.529026,0.22104 -1.839181,1.19695 -2.9114557,2.16869 -1.072275,0.97173 -2.0665919,1.76679 -2.2095933,1.76679 -0.7155405,0 -0.070015,-1.00141 1.6193688,-2.51216 1.0336537,-0.92434 1.8794432,-1.79604 1.8795312,-1.93709 8.9e-5,-0.14105 -0.8147457,-0.19105 -1.810742,-0.1111 -2.0874419,0.16756 -4.472643,1.25167 -6.7980713,3.08981 -0.8220115,0.64976 -1.55823932,1.18139 -1.63606172,1.18139 -0.0778224,0 0.50642517,-0.85603 1.29832782,-1.90227 0.7919027,-1.04625 1.6191994,-2.33158 1.838437,-2.85629 0.2192374,-0.52471 0.5745423,-1.06749 0.7895659,-1.20618 0.2150239,-0.1387 2.3368673,-0.31724 4.7152081,-0.39675 l 4.3242552,-0.14458 -1.783473,-1.905 c -0.98091,-1.04776 -1.929347,-2.28391 -2.107637,-2.74701 -0.6592297,-1.71233 -0.827067,-8.21322 -0.6506955,-25.20362 0.1479608,-14.25358 0.2511105,-17.42181 0.56721,-17.42181 0.2770358,0 0.3876908,0.47046 0.3910613,1.66266 0.00255,0.91446 4.867e-4,8.86597 -0.00465,17.67003 l -0.00936,16.00736 0.9444282,-0.63031 c 2.046936,-1.36611 3.306425,-1.74389 6.770841,-2.03092 2.001233,-0.1658 18.597607,-0.28581 39.896803,-0.28848 20.058573,-0.002 36.876768,-0.0859 37.373756,-0.1853 l 0.903622,-0.18073 v -16.01215 c 0,-14.04026 0.0534,-16.01216 0.43374,-16.01216 0.353415,0 0.433733,0.48193 0.433733,2.60242 0,1.43134 0.05482,2.60244 0.121777,2.60244 0.06697,0 1.231605,-0.64095 2.588063,-1.42434 l 2.466282,-1.42432 0.0867,1.49662 0.0866,1.49661 4.48197,0.0717 c 2.46507,0.0395 7.66993,-0.0256 11.56634,-0.14457 l 7.08439,-0.21631 0.0889,-1.22892 c 0.0489,-0.67591 0.14974,-1.22893 0.22408,-1.22893 0.0743,0 1.07531,0.48688 2.22436,1.08197 1.14904,0.59508 2.18677,1.12641 2.30605,1.18073 0.11928,0.0543 0.21687,-1.01811 0.21687,-2.38318 0,-2.01341 0.0819,-2.48194 0.43374,-2.48194 0.38041,0 0.43373,2.00475 0.43373,16.30784 v 16.30784 l 3.83135,0.18944 c 2.10725,0.1042 16.64831,0.21512 32.31349,0.2465 30.47077,0.061 29.80276,0.0902 31.81194,-1.39206 0.88765,-0.65489 1.03891,-0.68734 1.33249,-0.28584 0.39258,0.53689 0.60813,3.228 0.86213,10.76358 l 0.18736,5.55873 3.56649,-0.0647 c 3.00531,-0.0545 3.64274,0.0114 4.05116,0.41888 0.61474,0.61339 0.33103,1.39593 -0.50609,1.39593 -1.02365,0 -2.93654,1.06035 -4.70558,2.60841 -1.78507,1.56207 -2.7243,2.15855 -2.98631,1.89654 -0.35383,-0.35382 0.67232,-1.66893 2.22058,-2.84589 l 1.61187,-1.22532 -1.70212,-0.0879 c -2.15207,-0.11113 -3.47688,0.40455 -6.10516,2.37642 -2.22715,1.67092 -3.09828,2.19344 -3.65689,2.19344 -0.44631,0 1.96365,-2.4914 3.53166,-3.651 0.61799,-0.45703 1.12669,-0.94637 1.13045,-1.08742 0.004,-0.14105 -0.81051,-0.19085 -1.8095,-0.11066 -2.20905,0.17732 -4.41219,1.16849 -6.90765,3.10769 -1.00101,0.77788 -1.87082,1.36352 -1.93291,1.30143 -0.0621,-0.0621 0.74596,-1.06201 1.79569,-2.22203 l 1.90858,-2.10913 -1.34221,-0.0901 c -1.92624,-0.12926 -3.94053,0.61803 -6.66663,2.47328 -1.31069,0.89199 -2.48178,1.51987 -2.60243,1.39529 -0.12065,-0.12458 0.69149,-1.0571 1.80475,-2.07227 l 2.02411,-1.84575 -1.50724,-0.002 c -2.0978,-0.004 -4.23835,0.87817 -7.03469,2.89754 -1.3149,0.94956 -2.50536,1.72647 -2.64546,1.72647 -0.5121,0 0.37612,-1.13724 2.12271,-2.71781 l 1.78968,-1.61957 -1.85652,0.006 c -2.12874,0.007 -3.22253,0.43733 -6.14423,2.41573 -2.39794,1.62374 -2.89448,1.73288 -2.22929,0.48994 0.15303,-0.28592 0.93376,-1.01978 1.73495,-1.63078 0.8012,-0.611 1.45673,-1.23211 1.45673,-1.38025 0,-0.15322 -0.78301,-0.20647 -1.81632,-0.12353 -2.20673,0.17714 -4.50719,1.20949 -6.72993,3.02012 -0.88545,0.72128 -1.68226,1.23907 -1.77069,1.15064 -0.0884,-0.0884 0.57019,-0.92713 1.4636,-1.86377 0.89341,-0.93665 1.62438,-1.78883 1.62438,-1.89372 0,-0.10491 -1.35521,-0.19073 -3.01157,-0.19073 h -3.01157 l -1.10894,1.39181 c -1.34425,1.68715 -3.22868,3.38007 -3.48126,3.12749 -0.19231,-0.19231 0.3283,-0.84767 2.49902,-3.14579 l 1.29735,-1.37351 -1.00119,0.005 c -2.17933,0.01 -4.24049,0.73804 -5.67934,2.00651 -1.38587,1.22174 -3.2287,2.32635 -3.8811,2.32635 -0.18769,0 0.53897,-0.82978 1.61481,-1.84395 2.25003,-2.12105 2.3222,-2.66017 0.34703,-2.59218 -1.51931,0.0523 -3.98793,1.09713 -5.98918,2.53489 -3.66799,2.63518 -4.37677,2.2223 -1.22209,-0.7119 l 2.24234,-2.08562 -1.73495,0.15282 c -2.2528,0.19843 -4.04701,0.99789 -7.03298,3.13372 -1.33466,0.95469 -2.47003,1.69242 -2.52304,1.6394 -0.053,-0.053 0.81924,-1.13424 1.93833,-2.40276 l 2.03471,-2.30637 -1.24816,-0.092 c -1.95999,-0.14451 -3.55604,0.45828 -5.33476,2.0148 -1.51666,1.32719 -3.80358,2.73442 -4.04745,2.49055 -0.0599,-0.0599 0.66833,-0.87822 1.6184,-1.81837 0.95006,-0.94015 1.72739,-1.86575 1.72739,-2.05689 0,-0.47334 -1.52607,-0.77357 -2.67472,-0.5262 -1.46994,0.31655 -2.39436,0.88759 -4.44449,2.7455 -1.04666,0.94853 -2.02003,1.7246 -2.16302,1.7246 -0.70472,0 -0.0769,-0.98398 1.61953,-2.53849 1.03374,-0.94723 1.87953,-1.80455 1.87953,-1.90515 0,-0.30102 -3.11901,-0.20677 -4.47752,0.13531 -0.74222,0.18689 -1.86297,0.82973 -2.71591,1.55779 -1.80776,1.54307 -3.40467,2.54317 -3.8329,2.40043 -0.1795,-0.0598 0.75663,-1.06468 2.0803,-2.23299 l 2.40666,-2.12418 -2.29662,0.13761 c -2.67993,0.16058 -4.37214,0.8984 -6.78585,2.95871 -0.84765,0.72354 -1.59938,1.25734 -1.67049,1.18622 -0.0711,-0.0711 0.66185,-1.01308 1.62882,-2.09326 l 1.75813,-1.96395 -1.24037,-0.0862 c -1.77374,-0.12323 -3.96343,0.79257 -7.11883,2.97731 -2.601532,1.80126 -3.47055,2.20299 -3.47055,1.60436 0,-0.15159 0.94338,-1.08757 2.0964,-2.07994 1.15302,-0.99238 2.0964,-1.94185 2.0964,-2.10994 0,-0.51763 -1.533712,-0.51549 -3.098722,0.004 -0.819255,0.27211 -2.709878,1.32213 -4.201403,2.33339 -1.491517,1.01125 -2.78037,1.83863 -2.864115,1.83863 -0.08375,0 0.641828,-0.92035 1.612388,-2.04523 0.97056,-1.12488 1.690102,-2.16585 1.598992,-2.31327 -0.507682,-0.82144 -3.912645,0.21324 -6.761805,2.05474 -0.976162,0.63092 -1.843252,1.14713 -1.92687,1.14713 -0.08362,0 0.389243,-0.64193 1.050803,-1.4265 0.66156,-0.78457 1.117057,-1.5653 1.012207,-1.73495 -0.603322,-0.97619 -4.212352,0.24267 -7.782675,2.6284 -1.411245,0.943 -2.62278,1.65768 -2.69229,1.58816 -0.06952,-0.0695 0.597173,-0.93732 1.481543,-1.92844 2.00436,-2.24634 2.070097,-2.72388 0.348232,-2.5298 -1.704112,0.19208 -4.160661,1.3579 -6.600325,3.13236 -1.112885,0.80945 -2.092485,1.40266 -2.17689,1.31825 -0.08441,-0.0844 0.577334,-0.97269 1.470531,-1.97397 2.062473,-2.31206 2.091713,-2.67906 0.195564,-2.45448 -1.524861,0.18059 -4.101256,1.33688 -6.20715,2.78578 -1.814835,1.24863 -1.899188,1.10367 -0.332442,-0.5713 0.748874,-0.80061 1.305947,-1.61388 1.237937,-1.80725 -0.07663,-0.21787 -0.636161,-0.33363 -1.471262,-0.30437 -1.710626,0.0599 -4.55508,1.37557 -7.177971,3.32 -1.095336,0.812 -2.042134,1.42576 -2.103997,1.36389 -0.06186,-0.0619 0.783643,-1.08661 1.878901,-2.27721 1.095258,-1.19061 1.997043,-2.26233 2.003965,-2.38161 0.0202,-0.34789 -2.640004,-0.22525 -3.753445,0.17303 -0.560467,0.20049 -1.76895,0.97534 -2.685523,1.7219 -1.533781,1.24928 -3.625023,2.51474 -4.155748,2.51474 -0.121348,0 0.686726,-0.91509 1.795722,-2.03354 1.63595,-1.6499 1.934526,-2.08549 1.582617,-2.30885 -1.231555,-0.78167 -4.268488,0.12479 -6.338835,1.89201 -1.481473,1.26456 -3.715669,2.61282 -3.946756,2.38173 -0.05995,-0.0599 0.668328,-0.87821 1.618393,-1.81836 2.067545,-2.04597 2.225081,-2.73953 0.622266,-2.73953 -1.728104,0 -3.597928,0.77987 -5.249161,2.18934 -1.883614,1.60783 -2.585358,1.99883 -2.943903,1.64028 -0.170139,-0.17014 0.166725,-0.82745 0.898519,-1.75323 1.526937,-1.93173 1.509007,-2.20136 -0.131437,-1.97652 -1.607346,0.22031 -2.97358,0.90653 -6.271253,3.14982 -1.410643,0.95961 -2.658426,1.6488 -2.772852,1.53152 -0.20985,-0.21508 1.364975,-1.70436 3.614365,-3.41804 0.67099,-0.51118 1.224006,-1.04374 1.228924,-1.18345 0.01587,-0.45078 -4.410042,-0.0206 -5.485074,0.53307 -0.55663,0.2867 -1.962458,1.34964 -3.124061,2.36209 -1.93771,1.6889 -2.948271,2.23324 -2.948271,1.58808 z M 86.45844,188.6747 c 4.373528,-0.14715 8.25513,-0.3551 8.62578,-0.46209 0.5184,-0.14964 0.633525,-0.33549 0.498855,-0.80532 -0.789352,-2.75403 -1.036972,-4.03857 -1.203345,-6.24241 l -0.19149,-2.5367 -32.419319,-0.19845 c -33.450671,-0.20475 -47.395208,0.0114 -48.969917,0.75912 -2.163465,1.02727 -2.444602,5.90341 -0.466394,8.08931 0.749664,0.82837 3.358427,1.17822 10.366346,1.3902 10.090422,0.30522 54.744927,0.30967 63.759484,0.006 z m 113.28429,-5.13123 -0.0787,-5.42173 -34.51611,-0.0735 -34.5161,-0.0734 0.188,0.79636 c 0.10339,0.43801 0.26471,1.96746 0.35848,3.3988 0.1507,2.30042 0.0859,2.84571 -0.55882,4.69882 l -0.72931,2.09641 h 34.9656 34.9656 z m -69.62133,-20.7642 c 0,-10.69316 -0.0744,-13.41837 -0.36145,-13.24625 -0.19879,0.11919 -1.2411,0.77747 -2.31622,1.46286 -1.07513,0.68539 -2.01851,1.24616 -2.0964,1.24616 -0.0779,0 -0.14162,-0.60592 -0.14162,-1.34649 v -1.34648 l -4.55425,0.18889 c -2.50484,0.10388 -7.77476,0.18931 -11.71093,0.18985 l -7.15668,7.5e-4 v 1.01205 c 0,0.55663 -0.0848,1.01205 -0.18845,1.01205 -0.10365,0 -1.20362,-0.58554 -2.44438,-1.30121 -1.240755,-0.71567 -2.32836,-1.30121 -2.41689,-1.30121 -0.08853,0 -0.127125,5.95305 -0.08576,13.229 l 0.07521,13.22901 5.78317,0.15384 c 3.18075,0.0846 10.69525,0.18221 16.69891,0.21687 l 10.91574,0.063 z"
     id="path79" />
  <path
     style="fill:#000000;stroke-width:0.245785;stroke-miterlimit:3.2;stroke-dasharray:none;paint-order:stroke fill markers"
     d="m 228.29077,122.4905 c -1.7127,-0.79047 -2.38147,-1.69068 -2.89228,-3.89323 -1.36528,-5.88698 -0.93275,-22.922312 0.6655,-26.211077 1.26087,-2.594528 7.45626,-3.25281 8.70226,-0.924645 0.67084,1.25349 0.93981,5.8374 0.93562,15.944862 -0.005,11.13479 -0.16726,12.94711 -1.2669,14.11763 -0.64717,0.68888 -2.98157,1.51742 -4.24486,1.50662 -0.40849,-0.004 -1.26319,-0.24657 -1.89934,-0.54016 z"
     id="path80" />
  <path
     style="fill:#000000;stroke-width:0.245785;stroke-miterlimit:3.2;stroke-dasharray:none;paint-order:stroke fill markers"
     d="m 212.24246,197.79594 c 0,-0.0733 0.84579,-0.9748 1.87953,-2.00347 1.69023,-1.68193 1.87953,-1.98717 1.87953,-3.03051 0,-0.63812 0.16266,-1.26265 0.36145,-1.38786 0.1988,-0.12521 2.12759,-0.30615 4.2862,-0.4021 4.17464,-0.18557 4.85538,-0.34517 4.3043,-1.00918 -0.18106,-0.21817 -0.44249,-1.99576 -0.58095,-3.95019 -0.13846,-1.95443 -0.37891,-31.78985 -0.53434,-66.30094 -0.15543,-34.51109 -0.34031,-73.449918 -0.41085,-86.530733 L 223.29907,9.3976568 h 0.88042 0.88042 l -0.17975,39.7496762 -0.17976,39.74968 0.78313,-0.131955 c 0.43072,-0.0726 2.53977,-0.335003 4.68677,-0.583163 5.429,-0.62751 5.09956,-0.487627 5.30277,-2.251485 0.0948,-0.82284 0.24481,-15.223887 0.33337,-32.002318 0.0885,-16.778432 0.23755,-33.661684 0.33111,-37.518338 l 0.1701,-7.0120972 h 1.01327 c 0.90848,0 0.99566,0.067282 0.84298,0.6506072 -0.0937,0.357834 -0.26028,18.119405 -0.37027,39.470158 l -0.2,38.819548 h 16.96318 c 14.88561,0 16.96318,0.0531 16.96318,0.43374 0,0.380588 -2.0671,0.43374 -16.86893,0.43374 h -16.86893 l -0.19099,10.192845 c -0.10504,5.606065 -0.19119,13.153105 -0.19143,16.771205 l -4.5e-4,6.57836 h 16.62663 c 14.58645,0 16.62663,0.0532 16.62663,0.43373 0,0.35663 -0.51407,0.43374 -2.89159,0.43374 -1.59038,0 -2.88859,0.0976 -2.88492,0.21687 0.004,0.11928 0.65573,1.3229 1.44905,2.67472 l 1.44239,2.45785 -1.30448,0.0881 -1.30447,0.0881 v 27.87212 27.87213 l 1.27522,0.0881 1.27523,0.0881 -1.4805,2.53014 c -0.81427,1.39157 -1.55077,2.52928 -1.63667,2.52823 -0.16967,-0.002 -2.90319,-4.73334 -2.90319,-5.02495 0,-0.0979 0.52049,-0.178 1.15664,-0.178 h 1.15663 v -27.90382 -27.90381 h -1.15663 c -0.63615,0 -1.15664,-0.12676 -1.15664,-0.2817 0,-0.15495 0.63722,-1.35858 1.41604,-2.67472 l 1.41603,-2.39301 -13.60603,-0.0752 c -7.48332,-0.0413 -13.62447,-0.0413 -13.647,0 -0.0225,0.0413 0.0542,5.34507 0.1706,11.78608 0.33285,18.42329 0.32403,48.13451 -0.0151,50.67589 -0.16451,1.233 -0.50851,2.64676 -0.76445,3.14168 -0.34699,0.67102 -0.38191,0.98334 -0.13731,1.22808 0.23529,0.23544 5.10644,0.35178 17.22955,0.41153 14.59728,0.0719 16.90153,0.14092 16.90153,0.50602 0,0.36344 -1.53666,0.42273 -10.95431,0.42273 -10.71112,0 -10.95766,0.0128 -11.10554,0.57832 -0.0832,0.31808 -0.36292,0.57832 -0.62165,0.57832 -0.70338,0 -3.25029,1.34681 -5.3142,2.81016 -1.00476,0.71239 -1.87639,1.2457 -1.93695,1.18515 -0.0605,-0.0605 0.53449,-0.86549 1.32232,-1.78872 0.78783,-0.92324 1.359,-1.79741 1.26927,-1.94261 -0.45699,-0.73943 -3.80618,-0.0899 -5.32884,1.03353 l -0.98312,0.72531 -0.35287,-0.83923 c -0.19407,-0.46157 -0.61821,-0.92345 -0.94254,-1.02638 -1.20932,-0.38383 -4.61383,0.97106 -7.36935,2.93277 -2.15678,1.53544 -1.89016,0.95856 0.50703,-1.09704 l 2.1555,-1.84836 -1.35325,-0.0938 c -2.5912,-0.17963 -4.29193,0.20266 -5.53982,1.24524 -1.58437,1.32371 -3.12081,2.24415 -3.52252,2.11024 -0.18396,-0.0614 0.56035,-0.87062 1.65401,-1.79845 l 1.98848,-1.68694 -2.44866,0.1333 c -2.9244,0.1592 -3.69737,0.51477 -6.5784,3.0261 -1.79026,1.56053 -2.95464,2.23137 -2.95464,1.70227 z m 21.86529,-7.81426 c 0.66563,-0.43614 0.73839,-0.73622 1.12293,-4.63098 0.23322,-2.36229 0.19902,-49.33588 -0.0406,-55.73533 l -0.19217,-5.13257 h -2.426 c -1.33431,0 -3.41004,-0.20326 -4.61275,-0.45168 -1.20271,-0.24843 -2.26169,-0.37673 -2.35331,-0.28513 -1.06437,1.06437 0.0175,56.22996 1.27206,64.86579 0.12241,0.84259 0.37629,1.34541 0.79628,1.57711 1.48099,0.81701 5.04562,0.7022 6.43355,-0.20721 z"
     id="path81" />
  <path
     id="path82-64"
     style="stroke-width:0.353914"
     d="m 227.87349,128.56175 a 1.0617415,1.0617415 0 0 1 -1.06174,1.06174 1.0617415,1.0617415 0 0 1 -1.06174,-1.06174 1.0617415,1.0617415 0 0 1 1.06174,-1.06174 1.0617415,1.0617415 0 0 1 1.06174,1.06174 z" />
  <path
     id="path82-0"
     style="stroke-width:0.353914"
     d="m 232.37349,157.06175 a 1.0617415,1.0617415 0 0 1 -1.06174,1.06174 1.0617415,1.0617415 0 0 1 -1.06174,-1.06174 1.0617415,1.0617415 0 0 1 1.06174,-1.06174 1.0617415,1.0617415 0 0 1 1.06174,1.06174 z" />
  <path
     id="path82-8"
     style="stroke-width:0.353914"
     d="m 232.37349,165.31175 a 1.0617415,1.0617415 0 0 1 -1.06174,1.06174 1.0617415,1.0617415 0 0 1 -1.06174,-1.06174 1.0617415,1.0617415 0 0 1 1.06174,-1.06174 1.0617415,1.0617415 0 0 1 1.06174,1.06174 z" />
  <path
     id="use99"
     style="stroke-width:0.353914"
     d="m 17.523337,179.20242 a 1.0617415,1.0617415 0 0 1 -1.061741,1.06174 1.0617415,1.0617415 0 0 1 -1.061742,-1.06174 1.0617415,1.0617415 0 0 1 1.061742,-1.06174 1.0617415,1.0617415 0 0 1 1.061741,1.06174 z" />
  <path
     id="use100"
     style="stroke-width:0.353914"
     d="m 14.60152,179.94153 a 1.0617415,1.0617415 0 0 1 -1.061741,1.06174 1.0617415,1.0617415 0 0 1 -1.061742,-1.06174 1.0617415,1.0617415 0 0 1 1.061742,-1.06174 1.0617415,1.0617415 0 0 1 1.061741,1.06174 z" />
  <path
     id="use101"
     style="stroke-width:0.353914"
     d="m 16.456545,183.35251 a 1.0617415,1.0617415 0 0 1 -1.061742,1.06174 1.0617415,1.0617415 0 0 1 -1.061741,-1.06174 1.0617415,1.0617415 0 0 1 1.061741,-1.06174 1.0617415,1.0617415 0 0 1 1.061742,1.06174 z" />
  <path
     id="use102"
     style="stroke-width:0.353914"
     d="m 22.292309,183.06947 a 1.0617415,1.0617415 0 0 1 -1.061741,1.06174 1.0617415,1.0617415 0 0 1 -1.061742,-1.06174 1.0617415,1.0617415 0 0 1 1.061742,-1.06174 1.0617415,1.0617415 0 0 1 1.061741,1.06174 z" />
  <path
     id="use103"
     style="stroke-width:0.353914"
     d="m 22.283423,188.53891 a 1.0617415,1.0617415 0 0 1 -1.061741,1.06174 1.0617415,1.0617415 0 0 1 -1.061742,-1.06174 1.0617415,1.0617415 0 0 1 1.061742,-1.06174 1.0617415,1.0617415 0 0 1 1.061741,1.06174 z" />
  <path
     id="use104"
     style="stroke-width:0.353914"
     d="m 28.412001,180.76285 a 1.0617415,1.0617415 0 0 1 -1.061741,1.06174 1.0617415,1.0617415 0 0 1 -1.061742,-1.06174 1.0617415,1.0617415 0 0 1 1.061742,-1.06174 1.0617415,1.0617415 0 0 1 1.061741,1.06174 z" />
  <path
     id="use105"
     style="stroke-width:0.353914"
     d="m 28.53966,183.09981 a 1.0617415,1.0617415 0 0 1 -1.061741,1.06174 1.0617415,1.0617415 0 0 1 -1.061742,-1.06174 1.0617415,1.0617415 0 0 1 1.061742,-1.06174 1.0617415,1.0617415 0 0 1 1.061741,1.06174 z" />
  <path
     id="use106"
     style="stroke-width:0.353914"
     d="m 30.699568,184.93445 a 1.0617415,1.0617415 0 0 1 -1.061741,1.06174 1.0617415,1.0617415 0 0 1 -1.061742,-1.06174 1.0617415,1.0617415 0 0 1 1.061742,-1.06174 1.0617415,1.0617415 0 0 1 1.061741,1.06174 z" />
  <path
     id="use107"
     style="stroke-width:0.353914"
     d="m 34.010739,185.79778 a 1.0617415,1.0617415 0 0 1 -1.061742,1.06174 1.0617415,1.0617415 0 0 1 -1.061741,-1.06174 1.0617415,1.0617415 0 0 1 1.061741,-1.06175 1.0617415,1.0617415 0 0 1 1.061742,1.06175 z" />
  <path
     id="use108"
     style="stroke-width:0.353914"
     d="m 42.073857,181.75343 a 1.0617415,1.0617415 0 0 1 -1.061742,1.06174 1.0617415,1.0617415 0 0 1 -1.061741,-1.06174 1.0617415,1.0617415 0 0 1 1.061741,-1.06174 1.0617415,1.0617415 0 0 1 1.061742,1.06174 z" />
  <path
     id="use109"
     style="stroke-width:0.353914"
     d="m 43.977967,181.1403 a 1.0617415,1.0617415 0 0 1 -1.061742,1.06175 1.0617415,1.0617415 0 0 1 -1.061741,-1.06175 1.0617415,1.0617415 0 0 1 1.061741,-1.06174 1.0617415,1.0617415 0 0 1 1.061742,1.06174 z" />
  <path
     id="use110"
     style="stroke-width:0.353914"
     d="m 43.564286,185.60884 a 1.0617415,1.0617415 0 0 1 -1.061742,1.06174 1.0617415,1.0617415 0 0 1 -1.061741,-1.06174 1.0617415,1.0617415 0 0 1 1.061741,-1.06174 1.0617415,1.0617415 0 0 1 1.061742,1.06174 z" />
  <path
     id="use111"
     style="stroke-width:0.353914"
     d="m 44.201256,185.94925 a 1.0617415,1.0617415 0 0 1 -1.061741,1.06174 1.0617415,1.0617415 0 0 1 -1.061742,-1.06174 1.0617415,1.0617415 0 0 1 1.061742,-1.06174 1.0617415,1.0617415 0 0 1 1.061741,1.06174 z" />
  <path
     id="use112"
     style="stroke-width:0.353914"
     d="m 51.569657,182.71132 a 1.0617415,1.0617415 0 0 1 -1.061742,1.06174 1.0617415,1.0617415 0 0 1 -1.061741,-1.06174 1.0617415,1.0617415 0 0 1 1.061741,-1.06174 1.0617415,1.0617415 0 0 1 1.061742,1.06174 z" />
  <path
     id="use113"
     style="stroke-width:0.353914"
     d="m 53.081887,182.00496 a 1.0617415,1.0617415 0 0 1 -1.061742,1.06174 1.0617415,1.0617415 0 0 1 -1.061741,-1.06174 1.0617415,1.0617415 0 0 1 1.061741,-1.06174 1.0617415,1.0617415 0 0 1 1.061742,1.06174 z" />
  <path
     id="use114"
     style="stroke-width:0.353914"
     d="m 54.579342,187.30013 a 1.0617415,1.0617415 0 0 1 -1.061741,1.06174 1.0617415,1.0617415 0 0 1 -1.061741,-1.06174 1.0617415,1.0617415 0 0 1 1.061741,-1.06175 1.0617415,1.0617415 0 0 1 1.061741,1.06175 z" />
  <path
     id="use115"
     style="stroke-width:0.353914"
     d="m 62.69983,183.35849 a 1.0617415,1.0617415 0 0 1 -1.061742,1.06174 1.0617415,1.0617415 0 0 1 -1.061741,-1.06174 1.0617415,1.0617415 0 0 1 1.061741,-1.06174 1.0617415,1.0617415 0 0 1 1.061742,1.06174 z" />
  <path
     id="use116"
     style="stroke-width:0.353914"
     d="m 65.906003,185.21059 a 1.0617415,1.0617415 0 0 1 -1.061742,1.06174 1.0617415,1.0617415 0 0 1 -1.061741,-1.06174 1.0617415,1.0617415 0 0 1 1.061741,-1.06174 1.0617415,1.0617415 0 0 1 1.061742,1.06174 z" />
  <path
     id="use117"
     style="stroke-width:0.353914"
     d="m 70.297139,186.659 a 1.0617415,1.0617415 0 0 1 -1.061742,1.06174 1.0617415,1.0617415 0 0 1 -1.061741,-1.06174 1.0617415,1.0617415 0 0 1 1.061741,-1.06174 1.0617415,1.0617415 0 0 1 1.061742,1.06174 z" />
  <path
     id="use118"
     style="stroke-width:0.353914"
     d="m 77.107373,184.08406 a 1.0617415,1.0617415 0 0 1 -1.061742,1.06174 1.0617415,1.0617415 0 0 1 -1.061741,-1.06174 1.0617415,1.0617415 0 0 1 1.061741,-1.06174 1.0617415,1.0617415 0 0 1 1.061742,1.06174 z" />
  <path
     id="use119"
     style="stroke-width:0.353914"
     d="m 79.425152,185.45561 a 1.0617415,1.0617415 0 0 1 -1.061741,1.06174 1.0617415,1.0617415 0 0 1 -1.061742,-1.06174 1.0617415,1.0617415 0 0 1 1.061742,-1.06174 1.0617415,1.0617415 0 0 1 1.061741,1.06174 z" />
  <path
     id="use120"
     style="stroke-width:0.353914"
     d="m 84.002125,183.79082 a 1.0617415,1.0617415 0 0 1 -1.061741,1.06174 1.0617415,1.0617415 0 0 1 -1.061742,-1.06174 1.0617415,1.0617415 0 0 1 1.061742,-1.06174 1.0617415,1.0617415 0 0 1 1.061741,1.06174 z" />
  <path
     id="use121"
     style="stroke-width:0.353914"
     d="m 86.481274,183.52292 a 1.0617415,1.0617415 0 0 1 -1.061741,1.06174 1.0617415,1.0617415 0 0 1 -1.061742,-1.06174 1.0617415,1.0617415 0 0 1 1.061742,-1.06174 1.0617415,1.0617415 0 0 1 1.061741,1.06174 z" />
  <path
     id="use122"
     style="stroke-width:0.353914"
     d="m 86.115391,183.7915 a 1.0617415,1.0617415 0 0 1 -1.061741,1.06175 1.0617415,1.0617415 0 0 1 -1.061742,-1.06175 1.0617415,1.0617415 0 0 1 1.061742,-1.06174 1.0617415,1.0617415 0 0 1 1.061741,1.06174 z" />
  <path
     id="use123"
     style="stroke-width:0.353914"
     d="m 86.155217,181.12683 a 1.0617415,1.0617415 0 0 1 -1.061742,1.06174 1.0617415,1.0617415 0 0 1 -1.061741,-1.06174 1.0617415,1.0617415 0 0 1 1.061741,-1.06174 1.0617415,1.0617415 0 0 1 1.061742,1.06174 z" />
  <path
     id="use124"
     style="stroke-width:0.353914"
     d="m 80.118565,180.13263 a 1.0617415,1.0617415 0 0 1 -1.061741,1.06174 1.0617415,1.0617415 0 0 1 -1.061742,-1.06174 1.0617415,1.0617415 0 0 1 1.061742,-1.06174 1.0617415,1.0617415 0 0 1 1.061741,1.06174 z" />
  <path
     id="use125"
     style="stroke-width:0.353914"
     d="m 69.748707,180.33322 a 1.0617415,1.0617415 0 0 1 -1.061741,1.06174 1.0617415,1.0617415 0 0 1 -1.061742,-1.06174 1.0617415,1.0617415 0 0 1 1.061742,-1.06174 1.0617415,1.0617415 0 0 1 1.061741,1.06174 z" />
  <path
     id="use126"
     style="stroke-width:0.353914"
     d="m 65.691273,181.6212 a 1.0617415,1.0617415 0 0 1 -1.061741,1.06174 1.0617415,1.0617415 0 0 1 -1.061742,-1.06174 1.0617415,1.0617415 0 0 1 1.061742,-1.06174 1.0617415,1.0617415 0 0 1 1.061741,1.06174 z" />
  <path
     id="use127"
     style="stroke-width:0.353914"
     d="m 60.867119,179.83763 a 1.0617415,1.0617415 0 0 1 -1.061741,1.06174 1.0617415,1.0617415 0 0 1 -1.061742,-1.06174 1.0617415,1.0617415 0 0 1 1.061742,-1.06174 1.0617415,1.0617415 0 0 1 1.061741,1.06174 z" />
  <path
     id="use128"
     style="stroke-width:0.353914"
     d="m 63.550286,185.1783 a 1.0617415,1.0617415 0 0 1 -1.061742,1.06174 1.0617415,1.0617415 0 0 1 -1.061741,-1.06174 1.0617415,1.0617415 0 0 1 1.061741,-1.06174 1.0617415,1.0617415 0 0 1 1.061742,1.06174 z" />
  <path
     id="use129"
     style="stroke-width:0.353914"
     d="m 71.98647,185.2068 a 1.0617415,1.0617415 0 0 1 -1.061742,1.06174 1.0617415,1.0617415 0 0 1 -1.061741,-1.06174 1.0617415,1.0617415 0 0 1 1.061741,-1.06174 1.0617415,1.0617415 0 0 1 1.061742,1.06174 z" />
  <path
     id="use130"
     style="stroke-width:0.353914"
     d="m 82.325307,181.31976 a 1.0617415,1.0617415 0 0 1 -1.061742,1.06174 1.0617415,1.0617415 0 0 1 -1.061741,-1.06174 1.0617415,1.0617415 0 0 1 1.061741,-1.06174 1.0617415,1.0617415 0 0 1 1.061742,1.06174 z" />
  <path
     id="use131"
     style="stroke-width:0.353914"
     d="m 91.525563,183.52217 a 1.0617415,1.0617415 0 0 1 -1.061742,1.06174 1.0617415,1.0617415 0 0 1 -1.061741,-1.06174 1.0617415,1.0617415 0 0 1 1.061741,-1.06174 1.0617415,1.0617415 0 0 1 1.061742,1.06174 z" />
  <path
     id="use132"
     style="stroke-width:0.353914"
     d="m 92.281697,187.8381 a 1.0617415,1.0617415 0 0 1 -1.061742,1.06175 1.0617415,1.0617415 0 0 1 -1.061741,-1.06175 1.0617415,1.0617415 0 0 1 1.061741,-1.06174 1.0617415,1.0617415 0 0 1 1.061742,1.06174 z" />
  <path
     id="use327"
     style="stroke-width:0.353914"
     d="m 232.09111,127.42921 a 1.0617415,1.0617415 0 0 1 -1.06174,1.06174 1.0617415,1.0617415 0 0 1 -1.06174,-1.06174 1.0617415,1.0617415 0 0 1 1.06174,-1.06174 1.0617415,1.0617415 0 0 1 1.06174,1.06174 z" />
  <path
     id="use328"
     style="stroke-width:0.353914"
     d="m 232.79212,129.93483 a 1.0617415,1.0617415 0 0 1 -1.06174,1.06174 1.0617415,1.0617415 0 0 1 -1.06174,-1.06174 1.0617415,1.0617415 0 0 1 1.06174,-1.06174 1.0617415,1.0617415 0 0 1 1.06174,1.06174 z" />
  <path
     id="use329"
     style="stroke-width:0.353914"
     d="m 229.13858,135.34119 a 1.0617415,1.0617415 0 0 1 -1.06174,1.06174 1.0617415,1.0617415 0 0 1 -1.06174,-1.06174 1.0617415,1.0617415 0 0 1 1.06174,-1.06174 1.0617415,1.0617415 0 0 1 1.06174,1.06174 z" />
  <path
     id="use330"
     style="stroke-width:0.353914"
     d="m 231.20015,135.31287 a 1.0617415,1.0617415 0 0 1 -1.06174,1.06174 1.0617415,1.0617415 0 0 1 -1.06174,-1.06174 1.0617415,1.0617415 0 0 1 1.06174,-1.06175 1.0617415,1.0617415 0 0 1 1.06174,1.06175 z" />
  <path
     id="use331"
     style="stroke-width:0.353914"
     d="m 231.89922,132.39674 a 1.0617415,1.0617415 0 0 1 -1.06174,1.06175 1.0617415,1.0617415 0 0 1 -1.06174,-1.06175 1.0617415,1.0617415 0 0 1 1.06174,-1.06174 1.0617415,1.0617415 0 0 1 1.06174,1.06174 z" />
  <path
     id="use332"
     style="stroke-width:0.353914"
     d="m 233.65818,136.54591 a 1.0617415,1.0617415 0 0 1 -1.06174,1.06175 1.0617415,1.0617415 0 0 1 -1.06175,-1.06175 1.0617415,1.0617415 0 0 1 1.06175,-1.06174 1.0617415,1.0617415 0 0 1 1.06174,1.06174 z" />
  <path
     id="use333"
     style="stroke-width:0.353914"
     d="m 231.6212,140.18735 a 1.0617415,1.0617415 0 0 1 -1.06174,1.06174 1.0617415,1.0617415 0 0 1 -1.06174,-1.06174 1.0617415,1.0617415 0 0 1 1.06174,-1.06174 1.0617415,1.0617415 0 0 1 1.06174,1.06174 z" />
  <path
     id="use334"
     style="stroke-width:0.353914"
     d="m 232.84095,139.73747 a 1.0617415,1.0617415 0 0 1 -1.06174,1.06174 1.0617415,1.0617415 0 0 1 -1.06175,-1.06174 1.0617415,1.0617415 0 0 1 1.06175,-1.06174 1.0617415,1.0617415 0 0 1 1.06174,1.06174 z" />
  <path
     id="use335"
     style="stroke-width:0.353914"
     d="m 229.00049,139.71466 a 1.0617415,1.0617415 0 0 1 -1.06174,1.06174 1.0617415,1.0617415 0 0 1 -1.06174,-1.06174 1.0617415,1.0617415 0 0 1 1.06174,-1.06174 1.0617415,1.0617415 0 0 1 1.06174,1.06174 z" />
  <path
     id="use336"
     style="stroke-width:0.353914"
     d="m 233.47614,147.20747 a 1.0617415,1.0617415 0 0 1 -1.06174,1.06175 1.0617415,1.0617415 0 0 1 -1.06174,-1.06175 1.0617415,1.0617415 0 0 1 1.06174,-1.06174 1.0617415,1.0617415 0 0 1 1.06174,1.06174 z" />
  <path
     id="use337"
     style="stroke-width:0.353914"
     d="m 231.86249,143.82808 a 1.0617415,1.0617415 0 0 1 -1.06174,1.06174 1.0617415,1.0617415 0 0 1 -1.06174,-1.06174 1.0617415,1.0617415 0 0 1 1.06174,-1.06174 1.0617415,1.0617415 0 0 1 1.06174,1.06174 z" />
  <path
     id="use338"
     style="stroke-width:0.353914"
     d="m 228.79314,145.91306 a 1.0617415,1.0617415 0 0 1 -1.06174,1.06174 1.0617415,1.0617415 0 0 1 -1.06174,-1.06174 1.0617415,1.0617415 0 0 1 1.06174,-1.06175 1.0617415,1.0617415 0 0 1 1.06174,1.06175 z" />
  <path
     id="use339"
     style="stroke-width:0.353914"
     d="m 233.97471,152.72475 a 1.0617415,1.0617415 0 0 1 -1.06175,1.06174 1.0617415,1.0617415 0 0 1 -1.06174,-1.06174 1.0617415,1.0617415 0 0 1 1.06174,-1.06174 1.0617415,1.0617415 0 0 1 1.06175,1.06174 z" />
  <path
     id="use340"
     style="stroke-width:0.353914"
     d="m 229.34993,152.35652 a 1.0617415,1.0617415 0 0 1 -1.06174,1.06174 1.0617415,1.0617415 0 0 1 -1.06174,-1.06174 1.0617415,1.0617415 0 0 1 1.06174,-1.06174 1.0617415,1.0617415 0 0 1 1.06174,1.06174 z" />
  <path
     id="use341"
     style="stroke-width:0.353914"
     d="m 231.88707,154.63394 a 1.0617415,1.0617415 0 0 1 -1.06174,1.06174 1.0617415,1.0617415 0 0 1 -1.06174,-1.06174 1.0617415,1.0617415 0 0 1 1.06174,-1.06174 1.0617415,1.0617415 0 0 1 1.06174,1.06174 z" />
  <path
     id="use342"
     style="stroke-width:0.353914"
     d="m 229.45701,158.59416 a 1.0617415,1.0617415 0 0 1 -1.06175,1.06174 1.0617415,1.0617415 0 0 1 -1.06174,-1.06174 1.0617415,1.0617415 0 0 1 1.06174,-1.06174 1.0617415,1.0617415 0 0 1 1.06175,1.06174 z" />
  <path
     id="use343"
     style="stroke-width:0.353914"
     d="m 231.80559,162.9761 a 1.0617415,1.0617415 0 0 1 -1.06174,1.06175 1.0617415,1.0617415 0 0 1 -1.06174,-1.06175 1.0617415,1.0617415 0 0 1 1.06174,-1.06174 1.0617415,1.0617415 0 0 1 1.06174,1.06174 z" />
  <path
     id="use344"
     style="stroke-width:0.353914"
     d="m 233.5653,170.57071 a 1.0617415,1.0617415 0 0 1 -1.06174,1.06174 1.0617415,1.0617415 0 0 1 -1.06175,-1.06174 1.0617415,1.0617415 0 0 1 1.06175,-1.06174 1.0617415,1.0617415 0 0 1 1.06174,1.06174 z" />
  <path
     id="use345"
     style="stroke-width:0.353914"
     d="m 228.60981,172.42146 a 1.0617415,1.0617415 0 0 1 -1.06174,1.06174 1.0617415,1.0617415 0 0 1 -1.06175,-1.06174 1.0617415,1.0617415 0 0 1 1.06175,-1.06174 1.0617415,1.0617415 0 0 1 1.06174,1.06174 z" />
  <path
     id="use346"
     style="stroke-width:0.353914"
     d="m 232.92174,171.95833 a 1.0617415,1.0617415 0 0 1 -1.06174,1.06174 1.0617415,1.0617415 0 0 1 -1.06174,-1.06174 1.0617415,1.0617415 0 0 1 1.06174,-1.06174 1.0617415,1.0617415 0 0 1 1.06174,1.06174 z" />
  <path
     id="use347"
     style="stroke-width:0.353914"
     d="m 231.31495,173.09225 a 1.0617415,1.0617415 0 0 1 -1.06175,1.06175 1.0617415,1.0617415 0 0 1 -1.06174,-1.06175 1.0617415,1.0617415 0 0 1 1.06174,-1.06174 1.0617415,1.0617415 0 0 1 1.06175,1.06174 z" />
  <path
     id="use348"
     style="stroke-width:0.353914"
     d="m 232.95514,177.73155 a 1.0617415,1.0617415 0 0 1 -1.06174,1.06174 1.0617415,1.0617415 0 0 1 -1.06174,-1.06174 1.0617415,1.0617415 0 0 1 1.06174,-1.06174 1.0617415,1.0617415 0 0 1 1.06174,1.06174 z" />
  <path
     id="use349"
     style="stroke-width:0.353914"
     d="m 229.13353,175.12167 a 1.0617415,1.0617415 0 0 1 -1.06174,1.06175 1.0617415,1.0617415 0 0 1 -1.06174,-1.06175 1.0617415,1.0617415 0 0 1 1.06174,-1.06174 1.0617415,1.0617415 0 0 1 1.06174,1.06174 z" />
  <path
     id="use350"
     style="stroke-width:0.353914"
     d="m 233.42872,177.34894 a 1.0617415,1.0617415 0 0 1 -1.06175,1.06174 1.0617415,1.0617415 0 0 1 -1.06174,-1.06174 1.0617415,1.0617415 0 0 1 1.06174,-1.06174 1.0617415,1.0617415 0 0 1 1.06175,1.06174 z" />
  <path
     id="use351"
     style="stroke-width:0.353914"
     d="m 229.0237,179.66042 a 1.0617415,1.0617415 0 0 1 -1.06174,1.06174 1.0617415,1.0617415 0 0 1 -1.06174,-1.06174 1.0617415,1.0617415 0 0 1 1.06174,-1.06175 1.0617415,1.0617415 0 0 1 1.06174,1.06175 z" />
  <path
     id="use352"
     style="stroke-width:0.353914"
     d="m 230.87822,181.27347 a 1.0617415,1.0617415 0 0 1 -1.06174,1.06174 1.0617415,1.0617415 0 0 1 -1.06174,-1.06174 1.0617415,1.0617415 0 0 1 1.06174,-1.06174 1.0617415,1.0617415 0 0 1 1.06174,1.06174 z" />
  <path
     id="use353"
     style="stroke-width:0.353914"
     d="m 230.02295,183.49756 a 1.0617415,1.0617415 0 0 1 -1.06174,1.06174 1.0617415,1.0617415 0 0 1 -1.06174,-1.06174 1.0617415,1.0617415 0 0 1 1.06174,-1.06174 1.0617415,1.0617415 0 0 1 1.06174,1.06174 z" />
  <path
     id="use354"
     style="stroke-width:0.353914"
     d="m 235.2674,184.92038 a 1.0617415,1.0617415 0 0 1 -1.06174,1.06174 1.0617415,1.0617415 0 0 1 -1.06174,-1.06174 1.0617415,1.0617415 0 0 1 1.06174,-1.06174 1.0617415,1.0617415 0 0 1 1.06174,1.06174 z" />
  <path
     id="use355"
     style="stroke-width:0.353914"
     d="m 231.08852,187.54536 a 1.0617415,1.0617415 0 0 1 -1.06174,1.06175 1.0617415,1.0617415 0 0 1 -1.06174,-1.06175 1.0617415,1.0617415 0 0 1 1.06174,-1.06174 1.0617415,1.0617415 0 0 1 1.06174,1.06174 z" />
  <path
     id="use356"
     style="stroke-width:0.353914"
     d="m 230.44791,187.55185 a 1.0617415,1.0617415 0 0 1 -1.06174,1.06174 1.0617415,1.0617415 0 0 1 -1.06174,-1.06174 1.0617415,1.0617415 0 0 1 1.06174,-1.06174 1.0617415,1.0617415 0 0 1 1.06174,1.06174 z" />
  <path
     id="use357"
     style="stroke-width:0.353914"
     d="m 231.5588,189.88791 a 1.0617415,1.0617415 0 0 1 -1.06174,1.06174 1.0617415,1.0617415 0 0 1 -1.06175,-1.06174 1.0617415,1.0617415 0 0 1 1.06175,-1.06174 1.0617415,1.0617415 0 0 1 1.06174,1.06174 z" />
  <path
     id="use358"
     style="stroke-width:0.353914"
     d="m 234.56786,188.70674 a 1.0617415,1.0617415 0 0 1 -1.06174,1.06174 1.0617415,1.0617415 0 0 1 -1.06174,-1.06174 1.0617415,1.0617415 0 0 1 1.06174,-1.06174 1.0617415,1.0617415 0 0 1 1.06174,1.06174 z" />
  <path
     id="use359"
     style="stroke-width:0.353914"
     d="m 231.50597,189.39882 a 1.0617415,1.0617415 0 0 1 -1.06174,1.06174 1.0617415,1.0617415 0 0 1 -1.06174,-1.06174 1.0617415,1.0617415 0 0 1 1.06174,-1.06174 1.0617415,1.0617415 0 0 1 1.06174,1.06174 z" />
  <path
     id="use360"
     style="stroke-width:0.353914"
     d="m 229.9065,163.8391 a 1.0617415,1.0617415 0 0 1 -1.06174,1.06174 1.0617415,1.0617415 0 0 1 -1.06174,-1.06174 1.0617415,1.0617415 0 0 1 1.06174,-1.06175 1.0617415,1.0617415 0 0 1 1.06174,1.06175 z" />
  <path
     id="use361"
     style="stroke-width:0.353914"
     d="m 229.85556,165.60475 a 1.0617415,1.0617415 0 0 1 -1.06174,1.06174 1.0617415,1.0617415 0 0 1 -1.06174,-1.06174 1.0617415,1.0617415 0 0 1 1.06174,-1.06174 1.0617415,1.0617415 0 0 1 1.06174,1.06174 z" />
  <path
     id="use362"
     style="stroke-width:0.353914"
     d="m 228.99558,169.40599 a 1.0617415,1.0617415 0 0 1 -1.06174,1.06174 1.0617415,1.0617415 0 0 1 -1.06174,-1.06174 1.0617415,1.0617415 0 0 1 1.06174,-1.06174 1.0617415,1.0617415 0 0 1 1.06174,1.06174 z" />
</svg>
