<svg xmlns="http://www.w3.org/2000/svg" version="1.0" width="1301.373310pt" height="1236.579159pt" viewBox="0 0 1301.373310 1236.579159" preserveAspectRatio="xMidYMid meet">
<metadata>
Created by potrace 1.16, written by Peter Selinger 2001-2019
</metadata>
<g transform="translate(-12.000000,1273.000000) scale(0.100000,-0.100000)" fill="#000000" stroke="none">
<path d="M562 12669 l-27 -61 -60 4 c-48 2 -60 0 -60 -12 0 -10 12 -16 31 -18 26 -3 31 -7 27 -23 -4 -15 0 -19 20 -19 25 0 25 0 11 -47 -18 -59 -18 -83 1 -83 13 0 20 17 41 103 4 17 13 27 25 27 23 0 23 -5 4 -60 -8 -23 -13 -46 -10 -51 12 -18 33 5 50 56 l18 53 74 7 c40 4 73 11 73 16 0 5 -30 10 -67 10 l-68 2 53 10 c62 12 69 27 12 27 -22 0 -40 2 -40 5 0 2 8 20 17 40 12 26 14 38 6 46 -16 16 -30 4 -52 -46 -14 -32 -26 -45 -40 -45 -27 0 -26 6 4 59 30 52 31 61 4 61 -16 0 -27 -14 -47 -61z m41 -96 c-7 -2 -19 -2 -25 0 -7 3 -2 5 12 5 14 0 19 -2 13 -5z"/>
<path d="M980 12691 c-99 -30 -131 -94 -59 -116 18 -6 17 -10 -16 -46 -53 -59 -44 -109 21 -109 38 0 93 18 117 38 25 22 22 69 -7 95 l-24 21 28 26 c21 20 26 32 23 57 -6 39 -31 49 -83 34z m46 -43 c11 -17 -47 -59 -71 -52 -37 11 -38 23 -4 43 38 23 64 27 75 9z m-24 -115 c29 -26 22 -52 -17 -69 -77 -32 -97 -9 -44 51 36 40 36 41 61 18z"/>
<path d="M1214 12688 c-28 -44 -83 -171 -78 -179 7 -12 44 -11 83 2 18 6 35 9 38 6 3 -3 -4 -34 -16 -68 -11 -34 -19 -65 -16 -69 6 -10 -575 -32 -820 -32 -124 0 -222 5 -238 11 -31 12 -47 7 -47 -13 0 -8 14 -16 31 -20 56 -11 496 -6 784 9 154 8 454 15 667 15 386 0 386 0 380 -22 -5 -20 -3 -21 29 -13 51 12 78 9 99 -10 28 -25 58 -104 71 -185 16 -102 6 -479 -17 -663 -17 -143 -19 -149 -43 -160 -17 -7 -239 -13 -651 -18 -344 -4 -704 -12 -800 -18 -96 -6 -233 -12 -305 -14 -107 -2 -130 -5 -130 -17 0 -19 127 -17 505 6 177 11 1345 35 1397 29 1 0 -18 -135 -42 -300 -24 -165 -51 -383 -60 -485 -10 -102 -28 -275 -40 -385 -13 -118 -18 -204 -13 -210 21 -24 32 41 63 380 28 311 37 384 91 760 88 619 106 837 85 1041 -17 171 -52 253 -117 280 -43 18 -230 34 -401 34 l-132 0 19 43 c16 36 25 44 60 52 44 12 44 25 -2 25 l-28 0 21 53 c40 99 44 93 -68 100 -149 10 -183 9 -183 -7 0 -14 79 -26 177 -26 60 0 58 7 28 -80 -11 -32 -16 -35 -61 -40 -37 -4 -50 -9 -52 -23 -3 -17 1 -18 42 -12 46 7 46 7 36 -20 -26 -68 -18 -65 -165 -65 -74 0 -135 1 -135 3 0 1 18 57 40 125 22 67 40 125 40 128 0 3 -10 4 -22 2 -16 -2 -26 -14 -34 -37 -12 -37 -23 -45 -72 -56 l-32 -7 36 61 c35 59 41 90 17 98 -6 2 -15 -2 -19 -9z"/>
<path d="M5053 12439 c-35 -10 -69 -51 -58 -69 7 -12 -2 -13 -75 -10 -30 1 -70 9 -88 17 -25 12 -36 13 -45 4 -8 -8 -7 -15 5 -27 18 -19 147 -37 200 -28 35 5 118 -20 118 -35 0 -3 -28 -19 -62 -36 -34 -16 -70 -42 -81 -57 -19 -25 -19 -28 -3 -52 21 -33 52 -41 156 -40 88 0 210 28 194 44 -5 4 -40 1 -79 -7 -68 -14 -178 -13 -218 3 -11 4 -17 15 -15 28 2 15 24 32 81 59 87 43 97 64 45 89 l-33 15 58 19 c115 36 112 86 -5 91 -35 1 -78 -2 -95 -8z m141 -28 c4 -5 -15 -16 -41 -24 -83 -26 -100 -28 -113 -12 -10 13 -7 17 21 30 38 16 125 20 133 6z"/>
<path d="M3805 12230 c-13 -22 8 -32 56 -28 27 3 49 1 49 -3 0 -5 -13 -50 -29 -101 -16 -51 -39 -126 -51 -165 l-21 -73 -49 0 c-38 0 -50 -4 -50 -15 0 -22 42 -29 135 -22 80 6 165 30 165 48 0 11 -22 11 -52 0 -32 -12 -159 -24 -132 -12 16 7 33 47 74 170 30 89 57 166 60 171 3 5 34 13 68 16 34 4 62 11 62 15 0 13 -277 11 -285 -1z"/>
<path d="M1537 12174 c-14 -14 -7 -22 23 -29 16 -3 43 -22 60 -41 27 -31 30 -41 30 -103 0 -104 -55 -242 -115 -289 -23 -18 -34 -42 -19 -42 17 0 78 59 104 101 89 146 93 327 7 384 -28 18 -79 29 -90 19z"/>
<path d="M1029 12139 c-47 -47 -139 -299 -147 -401 -5 -79 12 -118 53 -118 14 0 25 5 25 10 0 6 -7 10 -15 10 -23 0 -37 49 -30 100 16 112 118 360 156 380 16 9 18 14 8 26 -16 19 -25 18 -50 -7z"/>
<path d="M4134 12128 c-3 -4 -2 -12 1 -18 8 -13 302 -13 310 0 3 6 0 12 -7 14 -26 9 -299 12 -304 4z"/>
<path d="M545 12090 c-10 -16 6 -32 27 -27 11 3 48 1 81 -4 62 -10 127 -5 127 10 0 8 -143 31 -197 31 -17 0 -35 -4 -38 -10z"/>
<path d="M1225 12056 c-46 -20 -56 -38 -70 -133 -8 -49 -17 -103 -21 -120 -6 -28 -4 -33 13 -33 14 0 22 12 31 45 l12 45 34 -38 c46 -51 127 -94 168 -90 42 4 50 27 9 26 -44 -1 -161 82 -161 115 0 7 28 26 61 43 92 43 124 98 81 137 -23 21 -113 22 -157 3z m130 -26 c14 -22 -8 -49 -66 -80 -64 -34 -77 -34 -60 -2 15 28 14 42 -4 42 -24 0 -17 18 13 34 31 17 108 21 117 6z"/>
<path d="M4224 12051 c-2 -2 -4 -10 -4 -18 0 -10 27 -13 125 -13 77 0 125 4 125 10 0 6 -17 10 -37 11 -21 0 -75 4 -121 7 -46 4 -85 5 -88 3z"/>
<path d="M639 12038 c-1 -2 -2 -39 -4 -83 -1 -55 -10 -100 -26 -145 -24 -65 -24 -65 -63 -65 -47 0 -59 -21 -20 -36 30 -11 116 -4 147 13 31 16 20 31 -19 24 l-35 -7 15 28 c18 36 44 136 47 183 4 72 0 90 -21 90 -11 0 -20 -1 -21 -2z"/>
<path d="M5326 12020 c-468 -4 -590 -8 -594 -18 -3 -10 108 -12 586 -10 325 2 593 6 597 10 4 4 5 10 4 15 -2 4 -269 6 -593 3z"/>
<path d="M5594 11881 c-52 -24 -109 -90 -134 -158 -25 -67 -26 -93 -2 -93 12 1 31 31 64 99 51 107 78 133 137 135 57 2 45 -25 -28 -60 -96 -48 -103 -72 -40 -133 49 -48 111 -73 169 -69 59 4 66 28 8 28 -23 0 -61 9 -83 19 -45 20 -99 77 -89 93 3 5 27 19 53 30 84 35 111 77 73 111 -24 22 -77 21 -128 -2z"/>
<path d="M4822 11840 c-32 -19 -66 -72 -55 -84 11 -11 43 -6 43 6 0 6 9 21 19 32 16 17 29 20 65 18 l45 -4 -70 -86 c-75 -92 -88 -132 -44 -132 38 0 199 40 210 52 10 10 -86 5 -155 -9 -17 -3 -30 -1 -30 4 0 5 34 46 76 91 86 93 90 112 20 112 -25 0 -56 4 -69 9 -18 7 -32 5 -55 -9z"/>
<path d="M5208 11765 c-21 -43 -24 -45 -66 -45 -36 0 -43 -3 -40 -17 3 -13 12 -17 36 -15 37 2 36 5 17 -42 -9 -20 -13 -41 -10 -46 10 -15 35 -12 35 5 0 8 8 30 17 50 12 25 23 35 39 35 31 0 74 17 74 30 0 6 -15 8 -42 4 l-42 -7 22 37 c12 21 20 42 17 47 -13 21 -37 6 -57 -36z"/>
<path d="M1305 11045 c-47 -17 -77 -50 -73 -79 4 -27 43 -29 43 -2 0 29 44 56 101 62 44 6 55 3 73 -15 37 -37 29 -92 -33 -219 -66 -133 -80 -180 -66 -216 15 -40 27 -31 32 25 4 35 23 85 64 165 45 91 59 128 62 173 4 52 2 59 -26 89 -27 28 -36 32 -84 32 -29 -1 -71 -7 -93 -15z"/>
<path d="M5222 10845 c-71 -22 -101 -62 -70 -93 9 -9 5 -12 -17 -14 -52 -3 -89 2 -96 14 -10 16 -41 1 -37 -19 5 -28 70 -38 149 -23 55 11 77 11 110 1 l42 -13 -76 -48 c-100 -64 -111 -97 -41 -126 34 -14 176 -19 233 -8 59 12 19 24 -82 24 -59 1 -115 6 -132 14 l-29 12 27 24 c15 13 48 36 74 50 63 34 75 56 44 81 -13 10 -33 19 -45 19 -15 0 -5 9 32 30 59 34 69 64 26 80 -33 13 -59 12 -112 -5z m93 -25 c9 -14 -92 -62 -116 -55 -36 12 -17 37 41 53 46 13 68 14 75 2z"/>
<path d="M7905 10816 c-38 -16 -59 -41 -51 -61 8 -23 46 -19 46 5 0 25 57 43 128 38 l52 -3 -40 -56 c-94 -133 -142 -263 -108 -297 28 -28 104 -1 173 59 20 18 37 30 38 28 1 -2 7 -13 13 -24 16 -28 39 -30 84 -6 39 20 40 20 40 1 0 -32 59 -51 104 -34 29 11 16 24 -24 24 -38 0 -40 2 -40 31 0 17 4 39 10 49 7 13 6 21 -4 29 -12 10 -24 3 -60 -33 -43 -43 -84 -62 -73 -33 44 120 33 128 -58 39 -80 -77 -158 -123 -176 -105 -19 19 16 103 93 219 88 133 86 138 -33 141 -53 2 -95 -2 -114 -11z"/>
<path d="M9385 10814 c-16 -8 -38 -23 -47 -31 -25 -23 -78 -132 -78 -160 0 -18 -8 -28 -30 -36 -33 -12 -39 -34 -13 -44 9 -3 32 -24 51 -45 34 -37 82 -53 82 -25 0 7 28 19 65 27 l65 16 0 -28 c0 -54 67 -62 126 -16 15 13 55 28 87 35 53 11 60 10 78 -8 21 -21 89 -26 133 -9 16 6 26 6 26 0 0 -18 59 -40 110 -40 65 0 65 16 0 25 -28 4 -58 14 -66 23 -15 14 -15 17 2 29 42 30 93 85 105 115 11 27 10 32 -7 45 -43 32 -124 -30 -146 -112 -10 -35 -18 -47 -41 -55 -67 -23 -108 0 -72 40 19 21 14 50 -9 50 -9 0 -25 -13 -37 -29 -14 -19 -37 -33 -65 -40 -56 -14 -64 -14 -64 3 0 13 -20 26 -40 26 -18 0 -32 -40 -20 -55 9 -11 5 -17 -19 -30 -28 -14 -32 -14 -37 0 -10 24 4 63 25 70 30 9 91 82 85 100 -14 36 -77 2 -120 -66 -19 -30 -34 -41 -76 -54 -70 -20 -111 -19 -132 4 -10 11 -16 24 -15 29 2 5 29 29 59 54 92 75 138 158 105 192 -20 20 -32 20 -70 0z m39 -46 c-3 -13 -15 -35 -26 -50 -21 -30 -90 -90 -96 -84 -9 9 38 93 68 124 39 38 65 43 54 10z m617 -125 c-14 -24 -32 -45 -53 -62 -29 -22 -23 12 8 48 28 34 62 44 45 14z"/>
<path d="M585 10773 c-85 -35 -117 -77 -83 -111 16 -16 7 -23 -42 -29 -33 -5 -45 -2 -52 11 -11 20 -37 21 -44 1 -18 -46 86 -62 169 -26 34 15 58 18 111 14 l68 -6 -64 -33 c-106 -56 -148 -118 -118 -173 13 -25 81 -51 135 -51 45 0 150 33 161 51 12 20 -4 19 -57 -2 -92 -36 -209 -13 -209 41 0 33 40 68 130 115 115 59 118 78 15 85 l-70 5 43 30 c41 29 60 63 47 84 -9 16 -94 12 -140 -6z m105 -22 c0 -18 -119 -83 -140 -76 -32 10 -23 32 23 53 70 33 117 42 117 23z"/>
<path d="M3387 10759 c-37 -21 -41 -50 -48 -294 -8 -266 -20 -340 -83 -522 -42 -119 -43 -137 -15 -156 47 -33 53 -79 55 -418 2 -367 8 -403 74 -469 22 -22 47 -40 55 -40 21 0 19 8 -15 46 -52 60 -60 110 -60 388 0 352 -14 448 -71 511 -18 20 -17 23 18 115 69 185 84 276 91 558 6 227 9 255 25 267 13 10 14 14 4 18 -7 3 -21 1 -30 -4z"/>
<path d="M10573 10689 c-18 -5 -39 -19 -48 -32 -14 -20 -14 -23 1 -34 20 -15 41 -7 47 18 7 26 53 26 60 0 2 -10 0 -44 -5 -75 -10 -56 -10 -56 -92 -110 -92 -59 -126 -99 -133 -154 -4 -31 0 -44 22 -70 22 -27 34 -32 68 -32 91 0 120 37 144 184 l18 109 85 53 c47 29 86 51 88 50 1 -2 -9 -27 -23 -57 -14 -30 -25 -62 -25 -71 0 -25 33 -23 56 3 15 18 152 89 170 89 2 0 4 -13 4 -28 0 -39 17 -52 66 -52 51 0 160 26 191 46 28 17 33 18 33 0 0 -23 27 -38 62 -34 l33 4 -27 13 c-23 12 -28 21 -28 53 0 25 -5 41 -15 44 -10 4 -13 14 -9 30 4 14 1 31 -6 39 -14 17 -62 20 -90 5 -28 -15 -70 -92 -70 -127 0 -34 -13 -43 -66 -43 -28 0 -34 4 -34 20 0 23 25 76 47 102 16 18 10 38 -10 38 -7 0 -27 -16 -45 -35 -30 -31 -121 -82 -180 -100 -23 -7 -23 -7 3 45 15 29 37 63 51 75 21 19 22 24 9 35 -12 10 -22 6 -54 -21 -22 -19 -78 -58 -125 -87 -85 -51 -86 -52 -79 -25 15 57 9 104 -16 124 -26 21 -31 21 -78 8z m707 -51 c0 -21 -77 -104 -87 -94 -18 18 44 116 73 116 8 0 14 -10 14 -22z m-674 -205 c-3 -16 -8 -54 -12 -86 -8 -75 -41 -117 -89 -117 -43 0 -65 22 -65 65 0 41 34 83 104 131 61 41 69 42 62 7z"/>
<path d="M11772 10674 c-31 -21 -52 -66 -52 -109 0 -32 -4 -38 -35 -51 -19 -7 -57 -14 -85 -14 -60 0 -62 9 -23 85 14 29 23 59 20 68 -9 23 -108 32 -145 13 -61 -31 -93 -101 -47 -101 13 0 21 8 23 23 5 32 53 59 95 54 l33 -4 -23 -46 c-58 -115 15 -161 167 -107 37 13 45 13 70 0 18 -9 57 -15 98 -15 61 0 70 -2 75 -20 8 -30 25 -24 44 14 14 31 20 35 67 38 40 3 55 0 69 -14 22 -22 75 -23 124 -3 32 14 37 14 48 -1 9 -13 21 -15 56 -10 69 10 130 6 153 -10 26 -18 80 -17 131 2 23 9 69 15 108 14 41 -1 67 3 67 9 0 6 -15 11 -32 11 -46 0 -64 13 -44 30 9 7 21 30 27 52 8 32 7 44 -6 64 -21 33 -67 32 -93 -1 -26 -32 -38 -101 -22 -120 15 -18 -15 -35 -64 -35 -26 0 -36 5 -41 20 -7 22 -21 25 -59 10 -30 -11 -31 -9 -11 31 14 26 14 30 0 35 -17 7 -55 -22 -55 -42 0 -18 -40 -44 -67 -44 -29 0 -29 11 2 48 48 58 56 112 15 112 -16 0 -28 -14 -48 -60 -29 -64 -66 -91 -126 -94 -26 -1 -30 2 -28 19 2 11 10 24 18 28 19 11 46 65 39 77 -18 28 -85 -17 -85 -57 0 -16 -58 -43 -91 -43 -16 0 -20 4 -14 18 41 103 46 125 36 135 -17 17 -36 -9 -61 -88 -32 -96 -42 -105 -115 -101 -33 1 -70 8 -83 15 -22 12 -22 12 8 38 32 27 60 72 60 97 0 41 -57 59 -98 30z m58 -40 c0 -8 -16 -31 -35 -52 -32 -34 -34 -35 -35 -14 0 28 25 79 42 85 17 6 28 -1 28 -19z m895 -33 c-9 -37 -34 -73 -46 -65 -13 7 -4 50 17 82 19 29 38 18 29 -17z"/>
<path d="M8466 10629 c-29 -34 -39 -65 -34 -100 7 -50 99 -41 199 20 28 18 53 30 55 28 2 -2 -7 -19 -21 -37 -30 -41 -32 -60 -6 -60 12 0 29 15 42 37 l23 37 11 -28 c7 -15 18 -32 26 -37 23 -14 71 -10 117 11 31 14 42 16 42 6 0 -28 45 -56 92 -56 93 0 158 85 111 148 -25 34 -77 48 -135 36 -36 -8 -46 -15 -62 -48 -14 -28 -31 -44 -63 -58 -65 -29 -77 -23 -83 42 -5 51 -7 54 -38 62 -28 8 -39 4 -90 -31 -90 -60 -170 -88 -186 -63 -6 10 19 60 39 81 13 13 17 12 33 -2 35 -32 67 -11 36 24 -27 30 -77 25 -108 -12z m612 -35 c48 -33 4 -114 -62 -114 -58 0 -72 37 -35 96 23 38 59 45 97 18z"/>
<path d="M1140 10620 c-14 -4 -58 -8 -97 -9 -56 -1 -73 -4 -73 -15 0 -8 4 -17 10 -21 13 -8 162 12 194 26 50 23 24 37 -34 19z"/>
<path d="M3935 10505 c-18 -19 -41 -55 -50 -80 -12 -30 -24 -45 -36 -45 -22 0 -33 -16 -22 -32 4 -7 8 -29 8 -48 0 -28 4 -35 20 -35 15 0 21 10 28 43 8 41 9 42 48 42 39 0 39 0 39 -39 0 -37 14 -61 28 -47 3 4 8 25 11 48 5 37 10 43 39 50 37 10 33 33 -4 25 -23 -4 -24 -2 -24 59 0 44 -5 67 -16 78 -22 23 -33 20 -69 -19z m45 -65 l0 -60 -35 0 c-19 0 -35 2 -35 5 0 17 57 115 66 115 2 0 4 -27 4 -60z"/>
<path d="M3622 10488 c-17 -21 2 -42 32 -36 31 6 32 3 7 -29 -27 -34 -18 -49 40 -63 27 -7 51 -16 54 -21 8 -11 -22 -25 -72 -34 -45 -7 -64 -22 -44 -35 16 -9 92 5 131 25 21 11 30 23 30 40 0 24 -23 40 -82 59 -17 5 -17 7 0 35 13 24 14 35 6 48 -14 23 -86 30 -102 11z"/>
<path d="M4265 10491 c-26 -4 -40 -11 -40 -21 0 -17 9 -18 120 -7 138 13 166 18 160 28 -7 10 -174 10 -240 0z"/>
<path d="M4284 10395 c-4 -9 -3 -19 1 -23 9 -9 180 -9 228 1 71 15 40 28 -60 25 -54 -2 -113 1 -131 5 -25 7 -33 5 -38 -8z"/>
<path d="M1404 10375 c-9 -23 15 -45 47 -45 31 0 39 17 14 26 -8 4 -15 12 -15 20 0 19 -39 18 -46 -1z"/>
<path d="M4920 10382 c0 -10 417 -22 758 -22 127 0 232 4 232 8 0 5 -105 12 -232 15 -327 10 -758 9 -758 -1z"/>
<path d="M5237 10255 c-19 -19 -30 -55 -25 -82 5 -25 56 -31 65 -7 4 10 2 19 -5 22 -7 2 -12 10 -12 18 0 10 15 14 60 14 l60 0 -34 -53 c-68 -106 -78 -192 -27 -224 53 -33 147 -23 198 22 23 20 25 24 10 25 -10 0 -29 -7 -42 -16 -14 -9 -47 -17 -76 -17 -64 -1 -94 27 -83 77 9 42 50 118 91 165 18 22 33 44 33 50 0 8 -26 11 -77 9 -43 -1 -87 2 -99 6 -14 5 -26 2 -37 -9z"/>
<path d="M7972 10073 c-46 -49 -85 -135 -90 -198 -3 -42 -1 -53 18 -70 44 -40 184 -16 230 40 22 27 5 27 -45 1 -59 -32 -110 -42 -141 -27 -19 8 -24 18 -24 48 0 67 78 203 116 203 8 0 14 -18 16 -47 3 -40 6 -48 23 -48 17 0 20 6 18 48 -3 92 -60 115 -121 50z"/>
<path d="M8199 10020 c-37 -37 -38 -83 -1 -88 18 -3 22 1 22 26 0 29 31 68 43 55 4 -3 7 -16 7 -27 0 -12 6 -32 13 -46 10 -21 9 -31 -11 -70 -28 -55 -25 -82 10 -94 33 -11 97 11 169 59 40 28 49 31 49 16 0 -48 56 -54 123 -11 43 27 47 28 47 10 0 -50 92 -51 171 -1 l48 30 -6 -45 c-5 -40 -4 -44 15 -44 16 0 22 9 27 42 4 23 16 62 26 86 34 79 19 83 -49 15 -49 -48 -139 -97 -170 -91 -14 3 -17 14 -15 61 2 66 -11 74 -46 27 -25 -35 -97 -90 -118 -90 -18 0 -17 61 2 86 8 10 15 25 15 32 0 22 -43 9 -56 -16 -19 -38 -53 -69 -112 -100 -66 -34 -112 -47 -112 -32 0 16 29 70 57 108 27 37 22 56 -13 48 -21 -6 -24 -3 -24 23 0 64 -62 81 -111 31z"/>
<path d="M8803 10044 c-7 -3 -13 -13 -13 -21 0 -14 18 -15 151 -10 142 5 170 9 157 22 -8 8 -280 16 -295 9z"/>
<path d="M11018 10039 c-35 -20 -18 -28 45 -22 52 4 66 2 86 -14 29 -24 20 -46 -39 -93 -34 -27 -39 -35 -28 -47 14 -17 69 -12 160 17 66 21 69 17 39 -51 -29 -65 -37 -141 -17 -158 19 -16 36 -6 36 22 1 42 39 169 61 201 28 41 82 79 106 74 12 -2 18 -12 18 -32 0 -23 -7 -33 -38 -49 -43 -22 -37 -44 8 -33 100 25 98 159 -2 142 -21 -3 -51 -6 -66 -6 -19 0 -37 -10 -56 -30 -18 -20 -50 -38 -90 -51 -88 -27 -101 -25 -69 9 43 44 41 84 -4 112 -36 22 -120 27 -150 9z"/>
<path d="M12174 10003 c-28 -69 -39 -130 -24 -148 17 -21 63 -19 109 5 39 19 39 19 45 -4 7 -27 42 -40 84 -30 35 9 102 42 126 63 18 15 18 15 12 -5 -12 -38 2 -54 49 -54 25 0 45 -5 47 -12 3 -8 22 -12 49 -11 83 1 209 12 229 18 14 4 20 2 20 -9 0 -37 92 -64 175 -52 60 9 48 26 -19 26 -69 0 -116 16 -116 40 0 10 12 32 26 49 41 49 13 71 -32 26 -27 -27 -76 -55 -96 -55 -7 0 0 9 17 20 39 25 65 60 65 86 1 71 -129 2 -154 -82 -4 -12 -17 -25 -29 -28 -33 -9 -97 -7 -97 3 0 4 23 22 51 40 49 30 59 53 27 59 -8 1 -41 -15 -74 -36 -32 -22 -69 -43 -82 -46 -20 -7 -21 -5 -12 18 5 15 16 39 25 56 38 73 9 78 -63 11 -58 -55 -124 -91 -165 -91 -32 0 -31 -4 -12 50 8 23 15 46 15 51 0 21 -39 6 -70 -26 -42 -43 -98 -71 -113 -56 -7 7 -3 27 12 68 36 93 36 93 12 93 -15 0 -25 -11 -37 -37z m706 -88 c-7 -8 -17 -15 -23 -15 -5 0 -2 9 8 20 21 23 35 19 15 -5z"/>
<path d="M9867 10003 c-48 -59 -88 -91 -133 -107 -25 -8 -50 -13 -55 -11 -8 6 7 62 23 82 11 14 2 33 -15 33 -7 0 -25 -16 -41 -36 -34 -43 -100 -75 -138 -67 l-27 5 25 49 c20 41 22 50 10 55 -21 8 -36 -4 -52 -41 -24 -58 -156 -127 -186 -97 -8 8 -8 19 1 39 37 92 -66 145 -139 72 -66 -66 -40 -137 45 -126 26 4 47 1 59 -9 26 -18 77 -18 123 1 44 19 41 19 45 -7 5 -34 33 -34 47 0 11 27 16 29 54 25 29 -3 54 2 79 15 36 19 38 19 43 1 12 -38 60 -36 158 6 13 6 16 4 11 -9 -15 -39 37 -58 87 -32 15 7 38 12 51 9 13 -2 47 4 76 15 51 20 52 20 52 1 0 -12 10 -23 25 -29 28 -10 112 -2 121 11 6 10 -5 12 -59 9 -45 -2 -58 19 -33 60 9 16 16 31 16 34 0 15 -33 4 -72 -24 -24 -17 -60 -33 -80 -36 -33 -6 -36 -4 -32 14 10 38 -18 37 -49 -1 -31 -39 -57 -48 -57 -19 0 16 11 36 53 95 18 25 16 47 -4 47 -5 0 -19 -12 -32 -27z m-642 -49 c-9 -14 -14 -32 -11 -40 4 -9 -3 -18 -19 -24 -30 -11 -55 -3 -55 17 0 22 56 73 80 73 22 0 22 -1 5 -26z"/>
<path d="M10614 10020 c-27 -11 -74 -67 -74 -88 1 -46 43 -62 163 -62 84 0 132 10 111 22 -5 3 -45 6 -89 7 -87 2 -137 11 -142 27 -5 15 36 64 52 64 7 0 15 -10 17 -22 4 -29 24 -34 38 -8 9 17 8 26 -5 46 -16 25 -35 29 -71 14z"/>
<path d="M11906 10014 c-9 -8 -16 -20 -16 -26 0 -6 -13 -26 -30 -45 -43 -49 -40 -92 11 -118 15 -8 37 -15 49 -15 26 0 25 -10 -5 -70 -28 -55 -31 -70 -12 -70 6 0 29 31 49 68 33 60 42 70 77 81 43 12 81 52 81 83 0 31 -26 73 -64 101 -41 32 -114 37 -140 11z m84 -46 c0 -13 -6 -45 -13 -73 -11 -43 -17 -50 -40 -53 -76 -9 -89 50 -25 110 47 44 78 50 78 16z m80 -61 c0 -24 -27 -57 -48 -57 -10 0 -13 7 -8 23 3 12 9 40 13 61 6 39 6 39 25 17 10 -13 18 -32 18 -44z"/>
<path d="M11645 9996 c-34 -15 -80 -64 -90 -96 -4 -12 -1 -27 5 -35 16 -19 81 -19 125 -1 33 14 35 14 35 -4 0 -26 42 -52 77 -48 36 4 36 22 0 26 -34 4 -41 19 -27 57 11 29 -2 51 -22 39 -5 -3 -6 5 -3 19 13 49 -38 70 -100 43z m60 -43 c-5 -10 -8 -26 -9 -35 -1 -27 -106 -55 -106 -28 0 21 71 80 96 80 21 0 25 -3 19 -17z"/>
<path d="M9835 9610 c-3 -5 19 -34 48 -64 132 -131 108 -305 -58 -423 -36 -25 -27 -41 13 -24 43 18 118 99 144 156 33 74 31 164 -7 233 -27 51 -104 132 -124 132 -5 0 -13 -4 -16 -10z"/>
<path d="M9391 9531 c-59 -59 -95 -142 -99 -228 -4 -69 -3 -74 26 -103 17 -16 38 -30 46 -30 22 0 20 8 -11 34 -25 21 -27 30 -26 83 3 96 75 230 134 248 28 9 24 35 -6 35 -16 0 -39 -14 -64 -39z"/>
<path d="M5397 9539 c-84 -20 -120 -56 -98 -97 9 -18 6 -21 -34 -31 -24 -6 -62 -11 -84 -11 -30 0 -41 -4 -41 -15 0 -27 28 -28 119 -7 72 17 95 19 125 10 20 -6 36 -14 36 -18 0 -3 -17 -12 -37 -20 -80 -28 -131 -78 -117 -114 17 -45 220 -49 268 -5 5 4 -38 6 -95 3 -81 -5 -108 -3 -123 8 -18 14 -18 15 5 36 12 12 57 35 98 51 42 16 76 35 76 43 0 7 -22 20 -50 29 l-50 16 45 23 c53 26 90 58 90 77 0 29 -62 39 -133 22z m88 -29 c6 -10 -104 -70 -130 -70 -25 0 -31 31 -9 44 49 29 128 44 139 26z"/>
<path d="M9090 9526 c-117 -9 -145 -14 -145 -26 0 -12 13 -14 73 -11 111 5 243 25 243 36 0 13 -5 14 -171 1z"/>
<path d="M9668 9479 c-21 -10 -45 -30 -54 -44 -8 -13 -22 -25 -31 -27 -22 -4 -95 -208 -77 -215 20 -8 31 3 49 51 l17 44 32 -18 c43 -25 147 -35 202 -20 24 7 44 16 44 19 0 4 -39 7 -88 7 -82 0 -152 16 -152 34 0 19 40 52 104 87 79 43 96 63 77 87 -18 22 -78 20 -123 -5z m92 -13 c0 -7 -113 -66 -118 -62 -14 15 60 66 96 66 12 0 22 -2 22 -4z"/>
<path d="M9065 9470 c-11 -18 -55 -184 -55 -208 0 -23 -2 -23 -56 -16 -51 6 -56 5 -52 -12 3 -17 13 -19 103 -18 103 1 175 18 183 43 3 10 0 12 -12 8 -10 -4 -42 -10 -72 -13 -66 -8 -66 -8 -24 119 24 71 28 92 18 99 -17 10 -26 10 -33 -2z"/>
<path d="M4034 9218 c-29 -31 -127 -167 -168 -231 -10 -16 -15 -35 -12 -43 11 -28 34 -13 59 39 26 52 26 52 77 54 l50 2 0 -39 c0 -55 27 -55 36 -1 6 39 6 39 72 47 38 5 67 14 70 22 3 10 -11 11 -63 6 l-67 -7 8 83 c5 65 4 84 -7 91 -20 13 -22 12 -55 -23z m21 -80 c-4 -29 -8 -54 -9 -55 0 0 -18 -4 -40 -8 l-39 -8 42 62 c23 33 44 61 47 61 3 0 3 -24 -1 -52z"/>
<path d="M3740 9149 c-51 -39 -109 -78 -127 -87 -34 -16 -41 -44 -13 -50 8 -1 57 30 109 69 52 39 90 63 86 53 -18 -41 -45 -160 -43 -184 2 -14 9 -25 18 -25 10 0 17 16 22 53 4 29 22 88 39 133 28 74 32 109 11 109 -4 0 -50 -32 -102 -71z"/>
<path d="M10160 9195 c0 -9 9 -15 25 -15 16 0 25 6 25 15 0 9 -9 15 -25 15 -16 0 -25 -6 -25 -15z"/>
<path d="M6100 9154 c-279 -17 -772 -34 -990 -34 -153 0 -180 -2 -180 -15 0 -13 24 -15 154 -15 192 0 627 16 973 35 145 8 267 15 273 15 5 0 10 7 10 15 0 8 -8 14 -17 14 -10 -1 -110 -8 -223 -15z"/>
<path d="M4325 9140 c-13 -21 8 -30 63 -29 98 2 175 13 180 27 5 15 -233 18 -243 2z"/>
<path d="M4373 9074 c-7 -3 -13 -13 -13 -21 0 -13 18 -15 120 -12 77 3 123 8 132 17 10 9 -6 12 -79 12 -50 0 -103 2 -119 5 -16 2 -35 2 -41 -1z"/>
<path d="M5798 8977 c-44 -14 -78 -41 -78 -61 0 -8 16 -24 35 -36 36 -22 43 -34 25 -45 -20 -12 -70 -110 -70 -136 0 -64 81 -60 139 6 35 40 40 79 16 125 -14 27 -14 33 0 61 15 28 15 34 0 65 -18 38 -15 37 -67 21z m31 -75 c-12 -18 -14 -19 -36 -5 -29 19 -29 31 0 42 32 13 53 -9 36 -37z m9 -116 c4 -34 -19 -71 -58 -91 -29 -15 -30 -15 -30 8 0 30 57 120 73 114 6 -2 13 -16 15 -31z"/>
<path d="M6086 8946 c-20 -18 -42 -48 -50 -67 -20 -47 -21 -183 -1 -199 22 -19 71 -2 104 35 30 34 41 35 41 4 0 -26 44 -52 72 -44 13 4 37 18 55 31 19 14 34 20 38 14 11 -17 51 -11 89 15 24 16 36 20 36 11 0 -18 30 -42 63 -50 31 -7 147 12 147 24 0 5 -34 7 -74 7 -94 -2 -104 5 -83 68 24 69 1 71 -68 6 -64 -61 -89 -67 -74 -18 16 50 15 62 -3 62 -10 0 -27 -19 -41 -45 -23 -45 -81 -94 -101 -87 -6 2 -12 13 -14 25 -2 14 -11 22 -24 22 -12 0 -18 5 -14 13 36 86 42 161 15 194 -21 25 -75 16 -113 -21z m89 -17 c9 -28 -2 -85 -28 -136 -23 -47 -31 -51 -59 -26 -23 20 -23 36 1 103 26 74 72 105 86 59z m-90 -195 c13 -5 14 -8 3 -15 -19 -13 -28 -11 -28 6 0 17 2 18 25 9z"/>
<path d="M5076 8885 c-20 -41 -8 -75 26 -75 17 0 20 4 15 30 -5 20 -3 28 6 25 7 -2 24 -6 39 -9 l27 -6 -35 -57 c-19 -32 -40 -75 -46 -97 -11 -34 -10 -40 8 -53 36 -27 174 0 174 35 0 10 -5 12 -17 7 -28 -12 -106 -23 -121 -18 -17 7 -8 34 44 120 24 39 44 76 44 81 0 13 -25 22 -60 22 -15 0 -33 7 -40 15 -21 25 -47 17 -64 -20z"/>
<path d="M5477 8913 c-3 -5 -8 -30 -11 -56 -7 -48 -8 -49 -39 -43 -38 7 -62 -6 -54 -28 5 -13 15 -15 47 -10 l40 7 0 -42 c0 -45 14 -81 31 -81 6 0 10 17 8 38 -4 74 -2 79 42 88 50 11 47 30 -4 26 -43 -4 -42 -8 -20 86 4 17 1 22 -15 22 -12 0 -23 -3 -25 -7z"/>
<path d="M4925 8236 c-40 -18 -73 -51 -81 -81 -5 -21 -12 -24 -62 -27 -46 -2 -57 -6 -60 -22 -4 -17 2 -18 70 -14 66 4 78 2 103 -18 l28 -22 -30 -6 c-40 -9 -76 -48 -71 -78 7 -54 159 -78 276 -43 54 16 75 43 25 31 -16 -4 -68 -9 -118 -12 -90 -5 -133 5 -142 33 -5 14 43 40 94 51 55 11 53 34 -4 58 l-48 20 65 23 c35 13 78 37 94 54 l30 30 -23 18 c-28 23 -101 25 -146 5z m115 -26 c0 -23 -141 -83 -157 -67 -8 9 16 37 52 59 32 19 105 25 105 8z"/>
<path d="M3595 7994 c-38 -7 -89 -10 -111 -7 -27 4 -44 1 -49 -7 -14 -22 -23 -78 -14 -91 11 -19 39 7 39 37 0 21 5 24 39 24 21 0 54 3 72 7 l34 6 -38 -42 c-46 -51 -107 -173 -107 -214 0 -35 18 -42 77 -28 27 5 67 13 91 16 23 4 42 11 42 17 0 7 -29 9 -85 6 -60 -4 -85 -2 -85 6 0 19 46 109 79 154 18 24 52 57 76 74 46 33 59 59 28 57 -10 -1 -49 -7 -88 -15z"/>
<path d="M3894 7911 c-2 -2 -4 -10 -4 -18 0 -10 25 -13 113 -13 98 0 152 9 137 23 -6 6 -240 13 -246 8z"/>
<path d="M4570 7847 c0 -9 8 -18 18 -21 9 -2 205 -8 436 -12 354 -6 418 -4 414 7 -4 11 -62 15 -299 20 -162 4 -356 10 -431 14 -120 6 -138 5 -138 -8z"/>
<path d="M3860 7807 c0 -21 36 -27 169 -30 69 -1 105 2 108 9 2 7 -28 13 -89 18 -51 4 -114 9 -140 13 -40 5 -48 3 -48 -10z"/>
<path d="M4652 7679 c-13 -5 -22 -15 -19 -21 4 -13 12 -13 100 -2 57 7 61 -6 12 -35 -47 -27 -37 -44 38 -65 100 -28 111 -46 40 -70 -53 -18 -77 -20 -68 -7 10 16 -12 21 -44 10 -20 -7 -31 -18 -31 -30 0 -42 196 -11 227 37 19 29 1 49 -69 78 -57 23 -58 23 -38 41 23 20 26 45 8 63 -14 14 -122 15 -156 1z"/>
<path d="M5064 7595 c-68 -75 -94 -119 -94 -157 0 -28 45 -21 46 8 2 37 14 44 69 44 l54 0 3 -42 c2 -36 7 -44 26 -46 24 -4 45 29 24 36 -7 2 -12 14 -12 27 0 20 6 25 38 30 53 9 62 13 62 25 0 8 -15 9 -45 4 l-45 -6 0 60 c0 76 -6 92 -35 92 -17 0 -44 -23 -91 -75z m83 -72 c-3 -2 -26 -3 -51 -1 l-46 3 47 55 48 54 3 -53 c2 -29 1 -55 -1 -58z"/>
<path d="M4770 6968 c-75 -13 -125 -62 -102 -98 6 -11 12 -22 12 -25 0 -2 -44 -6 -97 -7 -87 -3 -98 -5 -101 -22 -4 -18 1 -19 94 -13 55 4 113 10 129 15 31 9 65 5 65 -6 0 -4 -20 -17 -44 -30 -45 -24 -70 -60 -60 -87 4 -9 20 -23 37 -32 50 -25 247 -22 247 5 0 4 -44 7 -97 8 -156 0 -186 35 -78 89 68 34 81 59 38 70 l-28 8 35 14 c78 33 110 75 78 100 -20 16 -78 21 -128 11z m99 -34 c10 -9 -26 -35 -75 -54 -57 -21 -94 -15 -94 14 0 13 55 41 95 49 19 4 65 -2 74 -9z"/>
<path d="M3017 6721 c-25 -33 -73 -81 -105 -107 -35 -28 -58 -53 -55 -61 10 -25 38 -12 96 45 37 35 57 49 53 37 -3 -11 -15 -60 -26 -109 -17 -72 -19 -90 -8 -97 7 -5 16 -5 19 -1 3 4 21 66 39 137 18 72 41 146 51 166 10 20 15 39 12 43 -15 15 -33 2 -76 -53z"/>
<path d="M3330 6760 c-10 -10 -42 -50 -70 -88 -27 -38 -59 -72 -71 -75 -13 -4 -20 -11 -16 -20 3 -8 -3 -27 -14 -43 -25 -38 -25 -74 0 -74 13 0 21 9 26 28 3 15 14 37 23 50 15 20 23 21 66 16 l48 -7 -6 -57 c-6 -47 -4 -59 9 -64 17 -6 19 -3 31 69 8 45 12 50 37 53 34 4 36 22 1 22 -24 0 -26 3 -20 33 15 89 18 135 7 156 -14 26 -25 27 -51 1z m15 -82 c-13 -109 -12 -107 -51 -98 -20 5 -38 10 -40 13 -4 4 87 136 94 137 2 0 1 -24 -3 -52z"/>
<path d="M3642 6622 c3 -15 22 -17 136 -20 88 -2 132 1 132 8 0 16 -14 18 -148 23 -111 5 -123 4 -120 -11z"/>
<path d="M5715 6609 c-33 -4 -350 -13 -705 -20 -869 -16 -794 -13 -799 -34 -3 -17 5 -18 111 -11 271 16 606 26 918 26 396 1 590 14 590 41 0 10 -27 10 -115 -2z"/>
<path d="M3663 6564 c-7 -3 -13 -12 -13 -19 0 -9 25 -15 84 -20 84 -7 176 1 176 15 0 4 -44 10 -97 14 -54 4 -107 9 -118 11 -11 2 -26 1 -32 -1z"/>
<path d="M4558 6364 c-26 -8 -54 -24 -62 -36 -13 -18 -25 -21 -73 -20 -32 0 -67 2 -78 4 -14 2 -20 -3 -20 -17 0 -19 7 -20 95 -20 66 -1 104 -6 124 -16 l28 -16 -36 -21 c-20 -12 -41 -33 -48 -47 -10 -22 -9 -29 9 -46 27 -27 80 -38 186 -39 67 0 88 3 85 13 -3 8 -37 14 -100 18 -146 10 -178 39 -88 80 62 28 64 48 9 75 l-42 20 77 23 c60 18 76 27 74 39 -4 23 -78 26 -140 6z"/>
<path d="M5882 6265 c-39 -33 -58 -83 -67 -177 -9 -100 2 -122 53 -114 21 3 64 8 97 10 141 11 169 16 204 39 25 17 46 23 66 20 21 -3 41 3 67 20 l36 25 6 -32 c11 -60 68 -92 131 -75 49 14 46 33 -4 25 -30 -4 -44 -1 -62 13 -22 17 -24 27 -22 90 2 61 -1 71 -15 71 -9 -1 -29 -19 -45 -41 -39 -57 -106 -83 -78 -31 6 12 11 32 11 46 0 53 -49 18 -64 -45 -6 -28 -71 -79 -99 -79 -13 0 -17 9 -17 35 0 22 -5 35 -13 35 -19 0 -37 -21 -37 -45 0 -30 -19 -45 -57 -45 l-33 0 29 40 c35 48 56 127 47 175 -12 65 -81 85 -134 40z m89 -29 c22 -48 -22 -186 -61 -194 -21 -4 -51 49 -40 68 5 9 5 19 -1 27 -24 29 35 123 78 123 7 0 18 -11 24 -24z m-97 -227 c-6 -11 -24 -2 -24 11 0 5 7 7 15 4 8 -4 12 -10 9 -15z"/>
<path d="M5500 6190 c-25 -25 -25 -51 -1 -81 18 -23 18 -24 -5 -59 -32 -46 -31 -85 1 -106 46 -30 155 1 155 44 0 10 -16 38 -36 61 l-37 42 38 39 c43 44 42 64 -5 74 -56 11 -89 7 -110 -14z m88 -18 c9 -6 4 -16 -17 -36 -29 -28 -29 -28 -41 -6 -19 36 21 65 58 42z m-4 -143 c32 -38 32 -47 0 -59 -64 -25 -89 0 -59 56 10 19 22 34 26 34 4 0 19 -14 33 -31z"/>
<path d="M5163 6103 c-7 -2 -13 -21 -13 -40 l0 -36 -45 6 c-36 5 -47 3 -52 -9 -8 -22 14 -34 67 -34 l46 0 14 -56 c18 -68 36 -67 33 2 -3 55 5 64 65 64 12 0 22 5 22 10 0 6 -20 10 -44 10 -50 0 -68 16 -64 56 3 27 -7 36 -29 27z"/>
<path d="M4345 6069 c-4 -6 -3 -14 1 -19 13 -11 580 -22 568 -10 -21 21 -558 48 -569 29z"/>
<path d="M4402 5973 c-24 -3 -32 -9 -30 -21 3 -14 13 -16 58 -13 55 3 55 3 36 -17 -26 -29 -17 -44 34 -56 24 -6 45 -16 47 -23 5 -14 -62 -50 -114 -61 -20 -4 -38 -13 -41 -20 -6 -19 50 -15 111 8 95 36 112 80 45 113 -31 15 -36 22 -28 36 21 40 -35 65 -118 54z"/>
<path d="M4704 5891 c-21 -28 -46 -53 -55 -56 -12 -4 -16 -15 -13 -38 1 -18 3 -38 3 -45 1 -22 46 -10 47 13 2 42 4 45 39 45 28 0 35 -4 35 -19 0 -21 25 -45 38 -37 5 3 7 17 4 31 -4 23 -2 25 37 25 22 0 41 5 41 10 0 6 -12 10 -27 10 -40 0 -48 9 -59 60 -13 66 -41 66 -90 1z m46 -26 c0 -16 -6 -25 -15 -25 -18 0 -19 4 -3 30 16 26 18 25 18 -5z"/>
<path d="M5685 5181 c-3 -6 13 -38 35 -72 90 -131 136 -273 146 -444 13 -202 -43 -363 -168 -489 -38 -38 -67 -71 -64 -73 9 -9 84 47 125 94 97 109 145 251 144 428 -1 187 -51 360 -141 490 -48 70 -65 84 -77 66z"/>
<path d="M3193 5158 c-56 -62 -128 -230 -174 -407 -36 -137 -49 -308 -30 -388 16 -64 60 -126 107 -148 37 -17 84 -14 84 6 0 6 -9 9 -20 6 -11 -3 -34 4 -52 17 -96 64 -118 196 -72 426 32 156 118 374 180 456 13 17 24 36 24 42 0 19 -25 14 -47 -10z"/>
<path d="M3646 5104 c-49 -18 -76 -41 -76 -65 0 -25 -36 -33 -116 -26 -66 5 -85 -3 -64 -28 15 -18 70 -19 157 -4 35 6 80 8 99 4 l36 -6 -44 -28 c-53 -34 -66 -50 -74 -89 -5 -25 -2 -33 20 -47 14 -10 54 -20 89 -22 61 -5 177 12 177 25 0 4 -52 7 -114 7 -132 0 -151 8 -126 53 10 17 42 40 88 62 39 19 72 40 72 46 0 13 -32 24 -74 24 -27 0 -26 2 22 26 53 26 75 59 51 75 -21 13 -79 10 -123 -7z m89 -23 c-4 -8 -106 -51 -120 -51 -3 0 -5 5 -5 10 0 6 19 20 43 30 44 21 92 27 82 11z"/>
<path d="M6826 4929 c-48 -12 -66 -25 -66 -51 0 -13 11 -24 30 -31 17 -6 30 -15 30 -19 0 -11 -128 -48 -167 -48 -28 0 -34 -4 -31 -17 6 -27 83 -19 180 18 77 30 83 31 135 19 66 -14 62 -21 -44 -67 -96 -41 -133 -75 -133 -119 0 -100 226 -148 375 -80 30 14 55 30 55 37 0 12 -8 10 -80 -17 -27 -10 -77 -17 -125 -18 -67 -1 -88 3 -130 24 -39 19 -51 31 -53 51 -4 35 26 58 126 99 125 51 140 83 54 111 -54 17 -54 17 -30 50 20 27 21 31 6 45 -19 20 -81 26 -132 13z m81 -54 c-15 -13 -33 -22 -40 -20 -67 24 -71 26 -57 35 8 6 40 10 70 10 l55 -1 -28 -24z"/>
<path d="M5223 4841 c-17 -16 -38 -47 -48 -68 -10 -21 -21 -40 -25 -43 -16 -11 -32 -80 -37 -160 -7 -108 -2 -114 107 -116 63 -2 84 2 112 19 19 11 53 21 79 22 25 1 56 9 68 17 15 11 35 14 61 11 29 -4 48 0 74 17 l36 22 0 -26 c0 -27 17 -44 30 -30 4 5 10 46 13 92 6 76 5 82 -13 82 -12 0 -22 -11 -30 -35 -10 -31 -70 -95 -89 -95 -17 0 -19 13 -5 46 16 39 12 54 -16 54 -21 0 -40 -28 -40 -59 0 -26 -46 -61 -81 -61 -28 0 -28 1 -23 43 5 35 3 45 -10 50 -21 8 -46 -29 -46 -69 0 -35 -37 -74 -70 -74 -29 0 -30 11 -4 50 34 51 51 112 59 207 7 91 -5 126 -46 131 -19 2 -35 -6 -56 -27z m67 -69 c0 -77 -21 -160 -55 -217 -25 -44 -28 -46 -44 -31 -27 28 -21 148 11 217 28 62 63 103 78 94 6 -4 10 -32 10 -63z m-120 -286 c0 -5 -7 -3 -15 4 -8 7 -15 20 -15 28 0 13 3 12 15 -4 8 -10 15 -23 15 -28z"/>
<path d="M4759 4827 c-48 -32 -64 -70 -50 -117 6 -20 20 -45 31 -55 19 -17 19 -18 -5 -49 -36 -47 -41 -80 -16 -105 38 -38 157 -21 175 24 9 24 10 21 -36 71 l-42 45 42 38 c38 35 42 44 42 84 0 37 -5 49 -26 66 -35 27 -73 27 -115 -2z m82 -17 c14 -8 19 -21 19 -48 0 -31 -7 -42 -40 -70 l-40 -33 -20 33 c-11 18 -20 39 -20 46 0 24 20 51 48 66 33 19 29 18 53 6z m-10 -236 c33 -34 33 -36 15 -50 -25 -18 -96 -19 -97 -1 -3 30 23 87 40 87 4 0 23 -16 42 -36z"/>
<path d="M2683 4778 c-17 -18 -58 -71 -92 -118 -67 -92 -92 -151 -74 -178 17 -28 38 -20 39 13 1 62 11 75 59 75 67 0 73 -5 68 -53 -6 -50 10 -99 30 -92 9 4 12 23 9 70 l-4 65 35 0 c19 0 42 3 51 6 27 10 7 24 -35 24 -37 0 -39 1 -39 33 0 17 5 59 10 92 16 99 -3 120 -57 63z m12 -112 c-7 -64 -8 -66 -35 -66 -61 0 -62 7 -13 76 26 35 48 62 51 60 2 -3 1 -34 -3 -70z"/>
<path d="M2387 4701 c-76 -104 -90 -128 -82 -141 14 -22 35 -7 65 46 17 31 33 54 36 51 2 -2 -7 -46 -21 -98 -28 -105 -31 -139 -12 -139 12 0 108 314 107 353 0 36 -29 14 -93 -72z"/>
<path d="M4421 4770 c-8 -4 -16 -31 -19 -58 l-4 -51 -52 -3 c-39 -2 -52 -7 -54 -20 -3 -15 5 -18 52 -18 l56 0 0 -40 c0 -29 4 -40 15 -40 11 0 15 11 15 40 0 40 0 40 38 40 63 0 112 12 112 26 0 10 -11 12 -44 8 -64 -9 -96 1 -96 31 0 13 4 35 9 49 11 28 -6 50 -28 36z"/>
<path d="M6135 4739 c-16 -24 19 -33 145 -37 112 -4 130 -2 130 11 0 12 -18 16 -87 21 -49 4 -109 9 -135 11 -29 4 -49 1 -53 -6z"/>
<path d="M3320 4677 c0 -4 12 -12 28 -18 36 -15 720 -5 735 10 14 14 49 13 -390 14 -205 1 -373 -1 -373 -6z"/>
<path d="M6160 4640 c-46 -29 100 -49 203 -27 71 15 39 27 -58 20 -69 -4 -95 -3 -95 5 0 14 -29 15 -50 2z"/>
<path d="M3423 4520 c-13 -5 -23 -16 -23 -25 0 -12 10 -14 60 -8 69 7 82 -10 30 -40 -44 -26 -38 -44 18 -51 120 -17 138 -41 76 -96 -41 -36 -77 -52 -98 -44 -19 7 -76 -26 -76 -43 0 -22 62 -15 125 16 144 67 168 159 50 187 -44 10 -48 14 -30 34 47 52 -50 103 -132 70z"/>
<path d="M3830 4500 c-11 -11 -34 -43 -51 -70 -25 -40 -36 -50 -58 -50 -38 0 -46 -11 -22 -30 19 -13 20 -19 9 -53 -10 -32 -9 -40 4 -54 21 -21 38 -9 38 27 0 16 5 41 12 55 10 22 17 25 60 25 l48 0 0 -55 c0 -48 2 -55 20 -55 18 0 20 7 20 54 l0 55 48 3 c27 2 45 7 42 13 -3 6 -12 9 -20 8 -8 -2 -27 0 -41 3 -23 4 -27 11 -33 56 -12 88 -35 109 -76 68z m34 -72 l7 -48 -35 0 c-20 0 -36 3 -36 6 0 8 53 94 56 91 1 -1 5 -23 8 -49z"/>
<path d="M2813 3685 c-27 -27 -34 -41 -30 -61 3 -20 -1 -27 -20 -35 -32 -12 -110 -12 -118 1 -10 15 -45 12 -45 -5 0 -35 100 -50 174 -25 20 6 50 9 66 5 l31 -7 -56 -39 c-79 -57 -109 -125 -66 -149 22 -11 163 -12 201 0 38 11 8 19 -89 22 -51 2 -86 7 -88 14 -6 18 45 72 104 110 59 38 63 54 16 69 l-31 10 34 23 c41 27 55 69 29 89 -34 24 -74 16 -112 -22z m62 -41 c-33 -27 -55 -31 -55 -11 0 28 57 62 75 45 7 -6 0 -18 -20 -34z"/>
<path d="M4380 3482 c-31 -30 -44 -57 -69 -137 -40 -129 -42 -150 -16 -150 11 0 27 -6 35 -14 10 -10 33 -12 90 -8 112 7 165 41 140 87 -11 21 -71 70 -86 70 -5 0 -15 4 -22 9 -10 6 -2 18 28 48 43 44 50 74 24 111 -25 37 -78 30 -124 -16z m95 -26 c0 -24 -10 -37 -45 -64 -25 -19 -45 -41 -45 -49 0 -8 29 -28 65 -46 95 -47 91 -77 -12 -92 -42 -6 -48 -5 -48 10 0 17 -10 17 -54 -1 -17 -7 -19 -4 -13 26 4 18 23 70 42 114 19 45 35 89 35 98 0 21 28 39 55 35 15 -1 20 -9 20 -31z"/>
<path d="M5727 3510 c-50 -9 -97 -33 -97 -50 0 -13 -87 -13 -95 0 -11 18 -45 11 -45 -9 0 -30 17 -35 122 -38 143 -3 153 -8 76 -45 -79 -37 -98 -54 -98 -89 0 -56 83 -89 224 -89 171 0 182 26 14 32 -172 6 -234 37 -178 86 11 9 59 33 107 52 101 40 114 62 43 70 l-45 6 43 13 c46 16 71 37 56 50 -15 14 -76 19 -127 11z m28 -40 c-11 -5 -31 -9 -45 -9 -23 0 -23 1 -5 9 11 5 31 9 45 9 23 0 23 -1 5 -9z"/>
<path d="M3914 3433 c-31 -6 -68 -49 -60 -68 3 -9 19 -22 35 -28 l30 -11 -35 -38 c-38 -43 -45 -83 -14 -93 28 -9 95 12 130 41 35 30 37 43 11 75 -17 21 -17 24 -2 50 15 27 15 30 -4 48 -22 22 -58 31 -91 24z m59 -47 c9 -23 -17 -38 -47 -26 -41 15 -33 40 15 40 15 0 29 -6 32 -14z m12 -97 c10 -15 -20 -44 -60 -56 -42 -13 -44 -5 -9 36 26 31 57 40 69 20z"/>
<path d="M4930 3401 c0 -20 4 -21 138 -21 124 0 179 8 156 23 -5 3 -73 8 -151 12 -141 7 -143 7 -143 -14z"/>
<path d="M3419 3398 c-1 -7 -2 -24 -3 -38 -1 -23 -4 -24 -49 -21 -43 2 -48 0 -45 -16 2 -14 14 -19 48 -21 l45 -3 -4 -50 c-2 -30 2 -56 8 -62 18 -18 31 10 31 64 l0 47 46 7 c57 8 74 14 74 26 0 5 -25 9 -55 9 l-55 0 0 35 c0 28 -4 35 -20 35 -11 0 -21 -6 -21 -12z"/>
<path d="M4942 3311 c3 -13 20 -17 83 -19 90 -4 172 6 159 18 -5 4 -62 10 -127 12 -103 4 -117 2 -115 -11z"/>
<path d="M2859 3286 c-2 -2 -60 -6 -129 -9 -115 -4 -150 -13 -120 -32 15 -9 540 27 540 37 0 8 -283 12 -291 4z"/>
<path d="M2820 3171 c-22 -4 -35 -12 -35 -21 0 -12 13 -14 65 -12 64 3 65 2 44 -15 -12 -10 -30 -23 -40 -29 -29 -18 -8 -42 56 -67 32 -13 56 -29 58 -39 5 -25 -39 -49 -103 -55 -47 -5 -58 -3 -70 13 -13 18 -14 18 -20 2 -4 -10 -4 -25 -1 -34 5 -14 19 -16 84 -12 166 10 213 96 82 151 l-48 20 29 24 c35 30 36 47 7 67 -23 16 -47 18 -108 7z"/>
<path d="M3375 2513 c-88 -18 -132 -55 -105 -88 16 -19 -77 -48 -152 -47 -59 1 -70 -6 -43 -28 20 -17 102 -8 179 19 54 19 62 19 83 6 13 -9 23 -20 23 -25 0 -5 -31 -27 -70 -50 -119 -69 -113 -112 17 -126 93 -10 266 26 242 50 -2 3 -42 -1 -89 -8 -90 -13 -201 -8 -207 9 -2 6 30 30 71 53 41 23 77 49 80 58 7 18 -8 50 -30 62 -13 7 -6 15 35 40 56 35 67 65 29 76 -25 6 -32 6 -63 -1z m7 -53 c-38 -24 -65 -29 -71 -15 -5 14 38 35 74 35 l30 0 -33 -20z"/>
<path d="M2778 2373 c-48 -5 -68 -28 -45 -50 15 -15 18 -15 35 0 11 10 35 17 60 17 36 0 42 -3 42 -21 0 -26 -40 -64 -120 -115 -85 -55 -78 -68 40 -75 52 -3 105 -11 117 -17 27 -15 53 -15 53 -1 0 16 -80 47 -130 50 -25 1 -49 4 -53 7 -4 2 16 20 45 41 47 32 98 91 98 111 0 4 -8 17 -17 28 -19 23 -66 32 -125 25z"/>
<path d="M4952 2333 c-19 -7 -57 -88 -81 -173 -12 -41 -29 -92 -37 -113 -19 -49 -18 -67 4 -67 12 0 26 24 51 88 18 48 41 102 49 121 12 25 13 36 4 39 -8 2 -6 13 5 38 21 42 59 56 80 29 19 -28 17 -37 -26 -101 -50 -74 -46 -81 69 -137 46 -23 86 -48 88 -55 5 -18 -54 -39 -125 -44 -50 -3 -60 -2 -52 9 16 19 -8 25 -56 15 -50 -10 -52 -33 -5 -49 37 -13 145 -9 211 8 48 12 73 41 65 74 -5 20 -25 34 -96 68 -49 23 -90 45 -90 48 0 4 16 30 35 59 40 60 43 87 14 124 -16 20 -29 26 -57 25 -20 0 -43 -3 -50 -6z"/>
<path d="M4409 2191 c-77 -24 -91 -61 -37 -106 l31 -26 -31 -29 c-38 -34 -42 -74 -11 -90 29 -16 113 -3 144 22 31 24 31 29 0 66 l-25 30 39 25 c33 22 37 29 33 57 -7 48 -73 72 -143 51z m99 -43 c20 -17 14 -26 -28 -48 -41 -21 -41 -21 -70 0 -37 27 -38 48 -2 56 15 3 32 7 37 9 13 4 47 -5 63 -17z m-30 -164 c-7 -6 -30 -15 -50 -18 -51 -9 -59 10 -19 46 l33 30 24 -23 c20 -18 22 -25 12 -35z"/>
<path d="M3815 2147 c-8 -4 -12 -13 -9 -20 3 -9 40 -11 137 -10 72 1 134 2 137 2 2 1 -2 7 -8 14 -15 14 -235 27 -257 14z"/>
<path d="M2673 2068 c-14 -24 23 -28 270 -27 357 2 607 12 607 24 0 12 -869 14 -877 3z"/>
<path d="M3918 2043 c-96 -3 -118 -6 -118 -18 0 -12 16 -15 83 -14 114 1 190 12 195 27 2 7 -5 11 -20 10 -12 -1 -76 -4 -140 -5z"/>
<path d="M3047 1933 c-31 -5 -46 -28 -28 -46 8 -8 14 -8 23 1 14 14 104 16 113 2 3 -5 -17 -24 -45 -41 -72 -44 -65 -68 26 -83 54 -9 104 -41 104 -66 0 -28 -42 -52 -101 -58 -40 -4 -49 -2 -49 11 0 9 5 19 10 22 15 9 12 25 -5 25 -8 0 -22 -11 -30 -24 -13 -20 -14 -29 -5 -46 11 -20 18 -22 80 -18 169 9 191 138 30 179 -27 7 -50 15 -50 18 1 3 15 15 32 26 17 11 36 28 42 37 24 39 -63 75 -147 61z"/>
<path d="M2750 1401 c-226 -8 -261 -16 -299 -70 -24 -33 -25 -66 -2 -66 8 0 22 13 31 29 34 62 50 67 256 76 254 12 732 12 929 -1 88 -5 491 -14 895 -20 404 -5 767 -13 805 -17 l70 -7 -1 -70 c-1 -45 -15 -123 -39 -215 -57 -221 -94 -387 -105 -474 -5 -44 -12 -81 -15 -84 -3 -3 -195 -9 -427 -13 -233 -4 -538 -13 -678 -18 -140 -6 -421 -15 -625 -21 -203 -6 -467 -17 -585 -25 -130 -9 -269 -12 -352 -8 -124 5 -138 4 -138 -10 0 -10 3 -17 8 -18 69 -9 261 -5 527 11 182 10 506 24 720 30 215 6 552 18 750 26 198 8 486 14 639 12 217 -2 280 0 284 10 2 8 -10 12 -42 12 -44 0 -45 1 -41 28 3 15 12 70 21 122 8 52 36 174 61 270 64 249 94 390 91 424 -3 27 -8 31 -43 37 -98 17 -510 29 -970 30 -275 0 -579 4 -675 10 -246 13 -807 18 -1050 10z"/>
<path d="M2428 1218 c-2 -7 0 -107 5 -223 7 -173 4 -485 -6 -595 -4 -43 27 -30 35 15 9 47 11 776 2 799 -7 19 -30 21 -36 4z"/>
<path d="M3155 1114 c-106 -25 -165 -59 -165 -95 0 -15 -6 -17 -32 -12 -18 3 -36 11 -39 16 -11 16 -39 -1 -39 -22 0 -27 35 -35 113 -28 58 6 170 -13 189 -32 4 -3 -29 -28 -73 -55 -78 -46 -149 -107 -149 -126 0 -27 40 -47 107 -53 74 -7 190 1 198 13 3 4 -48 11 -112 14 -63 4 -125 11 -135 15 -19 7 -18 9 9 35 17 16 68 51 114 80 69 42 84 56 84 76 0 21 -8 28 -49 41 l-49 17 62 27 c61 28 91 59 74 76 -10 10 -82 19 -108 13z m17 -61 c-66 -31 -137 -43 -130 -22 7 21 86 48 138 48 l45 -1 -53 -25z"/>
<path d="M4815 1096 c-61 -27 -104 -96 -141 -229 -21 -75 -25 -100 -16 -109 19 -19 30 0 53 87 38 146 82 215 146 231 43 11 39 -7 -14 -56 -29 -27 -53 -55 -53 -63 0 -15 25 -27 98 -48 47 -14 92 -49 92 -74 0 -26 -60 -55 -113 -55 -27 0 -46 4 -42 9 11 18 -17 23 -33 7 -16 -16 -15 -19 8 -38 20 -16 33 -19 73 -14 183 25 199 134 29 196 l-62 23 45 48 c50 53 49 52 35 80 -13 23 -60 25 -105 5z"/>
<path d="M4180 991 c-61 -86 -109 -238 -80 -256 18 -11 32 9 35 48 2 41 55 157 85 187 23 23 21 50 -4 50 -8 0 -24 -13 -36 -29z"/>
<path d="M4284 996 c-34 -15 -50 -44 -34 -60 6 -6 17 -2 34 13 31 29 94 38 121 17 29 -21 14 -40 -78 -95 -98 -60 -105 -67 -87 -86 19 -18 300 -34 300 -18 0 11 -118 30 -210 35 l-45 3 55 31 c105 60 138 101 112 140 -23 34 -111 45 -168 20z"/>
<path d="M3467 926 c-12 -30 16 -36 170 -36 84 0 153 4 153 9 0 15 -42 21 -157 21 -64 0 -114 4 -118 10 -9 15 -42 12 -48 -4z"/>
<path d="M3784 804 c-7 -3 -72 -8 -145 -12 -109 -6 -134 -10 -134 -22 0 -30 302 -3 313 28 4 12 -12 15 -34 6z"/>
</g><g transform="translate(1151.37331, 1128.2166935993841) scale(0.40808740102544044)"><g transform="translate(-57.706759,297.537395) scale(0.100000,-0.100000)" fill="#4444bb" stroke="none">
<path d="M750 2973 c-57 -10 -88 -25 -119 -57 -40 -41 -55 -100 -46 -179 6 -45 12 -61 32 -77 32 -25 35 -25 64 -1 22 17 24 26 21 89 -4 105 24 120 164 87 33 -7 119 -19 190 -25 88 -8 134 -16 144 -26 32 -32 8 -420 -28 -456 -18 -18 -126 -28 -289 -28 -185 0 -206 -4 -250 -52 -55 -58 -58 -82 -55 -363 1 -145 7 -274 13 -293 11 -34 51 -62 89 -62 12 0 35 14 52 31 l31 30 -6 238 c-3 130 -3 249 0 264 l5 27 112 0 c234 1 363 26 423 82 58 54 98 260 91 463 -4 122 -7 138 -34 191 -40 81 -79 100 -217 108 -174 10 -361 14 -387 9z" fill="#4444bb"/>
<path d="M3660 2971 c-42 -9 -83 -34 -103 -65 -39 -59 -50 -127 -54 -343 -5 -206 -5 -212 18 -252 28 -50 78 -86 143 -102 48 -12 257 -8 370 7 l49 7 -7 -104 c-4 -57 -11 -189 -16 -294 -9 -177 -9 -192 8 -214 35 -47 100 -46 136 2 22 29 27 86 42 452 7 191 0 235 -44 283 -45 48 -92 56 -241 38 -146 -18 -229 -20 -265 -6 l-26 10 0 162 c0 156 8 230 27 249 5 5 99 6 210 2 l201 -6 5 -50 c3 -39 11 -56 31 -74 34 -29 48 -29 80 0 24 20 26 30 28 113 4 147 -23 169 -218 179 -242 11 -340 13 -374 6z" fill="#4444bb"/>
<path d="M1565 2945 c-14 -13 -25 -32 -25 -42 0 -10 -1 -297 -3 -638 -2 -677 -3 -662 55 -694 33 -19 73 -7 101 31 18 24 20 51 29 300 5 150 10 278 12 283 2 6 37 8 97 3 52 -3 135 -7 186 -7 154 -2 161 -10 143 -176 -21 -189 -27 -310 -18 -343 12 -45 45 -72 86 -72 71 0 102 46 102 151 0 33 7 118 16 187 24 190 9 280 -58 349 -50 52 -112 67 -263 65 -71 -1 -164 -6 -205 -11 -41 -4 -78 -7 -81 -5 -4 2 -10 108 -13 236 -9 286 -17 352 -47 384 -31 33 -82 32 -114 -1z" fill="#4444bb"/>
<path d="M2542 2944 c-55 -38 -64 -109 -53 -419 6 -186 9 -215 28 -250 50 -95 116 -125 302 -135 75 -4 171 -5 215 -1 l78 7 -4 -178 c-2 -97 -7 -181 -11 -184 -4 -4 -42 1 -85 11 -104 26 -285 27 -363 3 -106 -33 -149 -107 -99 -170 26 -34 68 -41 132 -21 74 23 202 20 308 -7 182 -47 274 5 301 168 12 77 27 831 19 994 -7 152 -20 181 -86 186 -88 7 -103 -51 -104 -401 l0 -219 -201 4 c-197 3 -201 3 -220 27 -18 21 -19 42 -19 283 l0 260 -29 29 c-33 33 -74 38 -109 13z" fill="#4444bb"/>
<path d="M2374 1391 c-55 -34 -79 -78 -79 -147 0 -51 4 -66 27 -96 35 -45 102 -73 153 -64 78 15 146 111 131 188 -20 108 -145 172 -232 119z" fill="#4444bb"/>
<path d="M1853 999 c-39 -11 -66 -56 -61 -101 6 -59 69 -64 76 -6 4 30 34 38 145 38 l67 0 0 -110 c0 -135 -1 -136 -132 -126 -85 6 -89 6 -113 -18 -24 -25 -25 -28 -25 -179 0 -162 4 -177 47 -177 35 0 43 29 43 159 l0 121 73 0 c85 0 141 14 168 41 17 17 19 34 19 169 0 147 -1 152 -25 175 -23 24 -30 25 -137 24 -62 0 -128 -5 -145 -10z" fill="#4444bb"/>
<path d="M2985 1000 c-91 -16 -93 -18 -104 -58 -15 -51 -14 -537 0 -564 19 -36 69 -48 204 -48 121 0 127 1 151 25 l24 24 -2 292 -3 292 -26 19 c-31 23 -161 33 -244 18z m169 -86 c14 -5 16 -37 16 -250 l0 -245 -102 3 -103 3 0 240 0 240 40 6 c57 9 131 10 149 3z" fill="#4444bb"/>
<path d="M2351 971 c-24 -24 -29 -73 -37 -372 -6 -232 -6 -237 15 -258 23 -23 29 -25 51 -11 12 7 16 40 20 150 l5 141 35 -23 c19 -13 59 -55 88 -93 30 -39 78 -96 108 -128 47 -51 56 -57 74 -47 29 16 25 42 -15 92 -19 24 -62 78 -95 121 -61 77 -61 77 -33 77 15 0 46 9 69 19 56 26 67 57 62 179 -6 156 -27 172 -220 172 -93 0 -111 -3 -127 -19z m257 -74 c16 -13 17 -168 0 -185 -7 -7 -41 -12 -84 -12 -40 0 -84 -4 -98 -10 l-26 -10 0 120 0 119 98 -6 c53 -3 103 -10 110 -16z" fill="#4444bb"/>
</g>
</g>
</svg>
