<?xml version="1.0" encoding="UTF-8"?>
<!-- Created with Inkscape (http://www.inkscape.org/) -->
<svg width="209.63" height="143.57" version="1.1" viewBox="0 0 209.63 143.57" xmlns="http://www.w3.org/2000/svg">
 <defs>
  <clipPath id="clipPath570">
   <path transform="translate(-325.5 -213.62)" d="m0 0h595.22v842h-595.22z"/>
  </clipPath>
  <clipPath id="clipPath572">
   <path transform="translate(-325.14 -209.9)" d="m0 0h595.22v842h-595.22z"/>
  </clipPath>
 </defs>
 <g transform="translate(-47.084 -25.072)">
  <g stroke-width="1.3333" aria-label="I
, А 
3,0 
2,5 
2,0 
1,5 
1,0 
0,5">
   <path d="m50.974 41.114-0.0752 0.25293h-3.8145l0.0957-0.25293q0.57422-0.01367 0.75879-0.0957 0.30078-0.11621 0.44434-0.32129 0.22559-0.32129 0.46484-1.1484l1.6133-5.5918q0.20508-0.69727 0.20508-1.0527 0-0.17773-0.08887-0.30078t-0.27344-0.18457q-0.17774-0.06836-0.7041-0.06836l0.08203-0.25293h3.582l-0.0752 0.25293q-0.4375-0.0068-0.64941 0.0957-0.30762 0.13672-0.47168 0.38965-0.15723 0.25293-0.41016 1.1211l-1.6064 5.5918q-0.21875 0.77246-0.21875 0.98438 0 0.1709 0.08203 0.29395 0.08887 0.11621 0.27344 0.18457 0.19141 0.06152 0.78613 0.10254z"/>
   <path d="m52.922 43.698v-0.30078q0.7041-0.23242 1.0869-0.72461 0.38965-0.48535 0.38965-1.0322 0-0.12988-0.06152-0.21875-0.04785-0.06152-0.0957-0.06152-0.0752 0-0.32812 0.13672-0.12305 0.06152-0.25977 0.06152-0.33496 0-0.5332-0.19824t-0.19824-0.54688q0-0.33496 0.25293-0.57422 0.25976-0.23926 0.62891-0.23926 0.45117 0 0.7998 0.39648 0.35547 0.38965 0.35547 1.0391 0 0.7041-0.49219 1.3057-0.48535 0.6084-1.5449 0.95703z"/>
   <path d="m65.575 38.263h-3.5889l-0.62891 1.4629q-0.23242 0.54004-0.23242 0.80664 0 0.21192 0.19824 0.37598 0.20508 0.15723 0.875 0.20508v0.25293h-2.9189v-0.25293q0.58106-0.10254 0.75195-0.2666 0.34863-0.32812 0.77246-1.333l3.2607-7.6289h0.23926l3.2266 7.7109q0.38965 0.92969 0.7041 1.21 0.32129 0.27344 0.88867 0.30762v0.25293h-3.6572v-0.25293q0.55371-0.02734 0.74512-0.18457 0.19824-0.15723 0.19824-0.38281 0-0.30078-0.27344-0.9502zm-0.19141-0.50586-1.5723-3.7461-1.6133 3.7461z"/>
   <path d="m51.033 49.989q0.39648-0.93652 0.99805-1.4424 0.6084-0.5127 1.5107-0.5127 1.1143 0 1.709 0.72461 0.45117 0.54004 0.45117 1.1553 0 1.0117-1.2715 2.0918 0.85449 0.33496 1.292 0.95703 0.4375 0.62207 0.4375 1.4629 0 1.2031-0.76562 2.085-0.99805 1.1484-2.8916 1.1484-0.93652 0-1.2783-0.23242-0.33496-0.23242-0.33496-0.49902 0-0.19824 0.15723-0.34863 0.16406-0.15039 0.38965-0.15039 0.1709 0 0.34863 0.05469 0.11621 0.03418 0.52637 0.25293 0.41016 0.21191 0.56738 0.25293 0.25293 0.0752 0.54004 0.0752 0.69727 0 1.21-0.54004 0.51953-0.54004 0.51953-1.2783 0-0.54004-0.23926-1.0527-0.17773-0.38281-0.38965-0.58105-0.29394-0.27344-0.80664-0.49219-0.5127-0.22559-1.0459-0.22559h-0.21875v-0.20508q0.54004-0.06836 1.0801-0.38965 0.54688-0.32129 0.79297-0.77246t0.24609-0.99121q0-0.7041-0.44434-1.1348-0.4375-0.4375-1.0938-0.4375-1.0596 0-1.7705 1.1348zm6.9906 9.8369v-0.30078q0.7041-0.23242 1.0869-0.72461 0.38965-0.48535 0.38965-1.0322 0-0.12988-0.06152-0.21875-0.04785-0.06152-0.0957-0.06152-0.0752 0-0.32812 0.13672-0.12305 0.06152-0.25977 0.06152-0.33496 0-0.5332-0.19824t-0.19824-0.54688q0-0.33496 0.25293-0.57422 0.25977-0.23926 0.62891-0.23926 0.45117 0 0.7998 0.39648 0.35547 0.38965 0.35547 1.0391 0 0.7041-0.49219 1.3057-0.48535 0.6084-1.5449 0.95703zm3.2875-6.9111q0-1.5859 0.47852-2.7275 0.47852-1.1484 1.2715-1.709 0.61523-0.44434 1.2715-0.44434 1.0664 0 1.9141 1.0869 1.0596 1.3467 1.0596 3.6504 0 1.6133-0.46484 2.7412-0.46484 1.1279-1.1895 1.6406-0.71777 0.50586-1.3877 0.50586-1.3262 0-2.208-1.5654-0.74512-1.3193-0.74512-3.1787zm1.3398 0.1709q0 1.9141 0.47168 3.124 0.38965 1.0186 1.1621 1.0186 0.36914 0 0.76562-0.32812 0.39648-0.33496 0.60156-1.1143 0.31445-1.1758 0.31445-3.3154 0-1.5859-0.32812-2.6455-0.24609-0.78613-0.63574-1.1143-0.28027-0.22559-0.67676-0.22559-0.46484 0-0.82715 0.41699-0.49219 0.56738-0.66992 1.7842-0.17773 1.2168-0.17773 2.3994z"/>
   <path d="m56.741 71.782-0.64941 1.7842h-5.4688v-0.25293q2.4131-2.2012 3.3975-3.5957t0.98438-2.5498q0-0.88184-0.54004-1.4492-0.54004-0.56738-1.292-0.56738-0.68359 0-1.2305 0.40332-0.54004 0.39648-0.7998 1.1689h-0.25293q0.1709-1.2646 0.875-1.9414 0.71094-0.67676 1.7705-0.67676 1.1279 0 1.8799 0.72461 0.75879 0.72461 0.75879 1.709 0 0.7041-0.32812 1.4082-0.50586 1.1074-1.6406 2.3447-1.7021 1.8594-2.126 2.2422h2.4199q0.73828 0 1.0322-0.05469 0.30078-0.05469 0.54004-0.21875 0.23926-0.1709 0.41699-0.47852zm1.2826 4.1152v-0.30078q0.7041-0.23242 1.0869-0.72461 0.38965-0.48535 0.38965-1.0322 0-0.12988-0.06152-0.21875-0.04785-0.06152-0.0957-0.06152-0.0752 0-0.32812 0.13672-0.12305 0.06152-0.25977 0.06152-0.33496 0-0.5332-0.19824t-0.19824-0.54688q0-0.33496 0.25293-0.57422 0.25977-0.23926 0.62891-0.23926 0.45117 0 0.7998 0.39648 0.35547 0.38965 0.35547 1.0391 0 0.7041-0.49219 1.3057-0.48535 0.6084-1.5449 0.95703zm8.8588-11.601-0.5332 1.1621h-2.7891l-0.6084 1.2441q1.8115 0.2666 2.8711 1.3467 0.90918 0.92969 0.90918 2.1875 0 0.73145-0.30078 1.3535-0.29394 0.62207-0.74512 1.0596t-1.0049 0.7041q-0.78613 0.37598-1.6133 0.37598-0.83398 0-1.2168-0.28027-0.37598-0.28711-0.37598-0.62891 0-0.19141 0.15723-0.33496 0.15723-0.15039 0.39648-0.15039 0.17774 0 0.30762 0.05469 0.13672 0.05469 0.45801 0.28027 0.5127 0.35547 1.0391 0.35547 0.7998 0 1.4014-0.60156 0.6084-0.6084 0.6084-1.4766 0-0.84082-0.54004-1.5654-0.54004-0.73144-1.4902-1.1279-0.74512-0.30762-2.0303-0.35547l1.7773-3.6025z"/>
   <path d="m56.741 87.91-0.64941 1.7842h-5.4688v-0.25293q2.4131-2.2012 3.3975-3.5957 0.98438-1.3945 0.98438-2.5498 0-0.88184-0.54004-1.4492-0.54004-0.56738-1.292-0.56738-0.68359 0-1.2305 0.40332-0.54004 0.39648-0.7998 1.1689h-0.25293q0.1709-1.2646 0.875-1.9414 0.71094-0.67676 1.7705-0.67676 1.1279 0 1.8799 0.72461 0.75879 0.72461 0.75879 1.709 0 0.7041-0.32812 1.4082-0.50586 1.1074-1.6406 2.3447-1.7021 1.8594-2.126 2.2422h2.4199q0.73828 0 1.0322-0.05469 0.30078-0.05469 0.54004-0.21875 0.23926-0.1709 0.41699-0.47852zm1.2826 4.1152v-0.30078q0.7041-0.23242 1.0869-0.72461 0.38965-0.48535 0.38965-1.0322 0-0.12988-0.06152-0.21875-0.04785-0.06152-0.0957-0.06152-0.0752 0-0.32812 0.13672-0.12305 0.06152-0.25977 0.06152-0.33496 0-0.5332-0.19824t-0.19824-0.54688q0-0.33496 0.25293-0.57422 0.25977-0.23926 0.62891-0.23926 0.45117 0 0.7998 0.39648 0.35547 0.38965 0.35547 1.0391 0 0.7041-0.49219 1.3057-0.48535 0.6084-1.5449 0.95703zm3.2875-6.9111q0-1.5859 0.47852-2.7275 0.47852-1.1484 1.2715-1.709 0.61523-0.44434 1.2715-0.44434 1.0664 0 1.9141 1.0869 1.0596 1.3467 1.0596 3.6504 0 1.6133-0.46484 2.7412-0.46484 1.1279-1.1895 1.6406-0.71777 0.50586-1.3877 0.50586-1.3262 0-2.208-1.5654-0.74512-1.3193-0.74512-3.1787zm1.3398 0.1709q0 1.9141 0.47168 3.124 0.38965 1.0186 1.1621 1.0186 0.36914 0 0.76562-0.32812 0.39648-0.33496 0.60156-1.1143 0.31445-1.1758 0.31445-3.3154 0-1.5859-0.32812-2.6455-0.24609-0.78613-0.63574-1.1143-0.28027-0.22558-0.67676-0.22558-0.46484 0-0.82715 0.41699-0.49219 0.56738-0.66992 1.7842-0.17773 1.2168-0.17773 2.3994z"/>
   <path d="m51.962 97.406 2.2559-1.1006h0.22559v7.8272q0 0.77929 0.06152 0.9707 0.06836 0.19141 0.27344 0.29395t0.83398 0.11621v0.25293h-3.4863v-0.25293q0.65625-0.0137 0.84766-0.10938 0.19141-0.10254 0.2666-0.2666 0.0752-0.1709 0.0752-1.0049v-5.0039q0-1.0117-0.06836-1.2988-0.04785-0.21875-0.17774-0.32129-0.12305-0.10254-0.30078-0.10254-0.25293 0-0.7041 0.21191zm6.0609 10.691v-0.30078q0.7041-0.23242 1.0869-0.72461 0.38965-0.48535 0.38965-1.0322 0-0.12988-0.06152-0.21875-0.04785-0.0615-0.0957-0.0615-0.0752 0-0.32812 0.13672-0.12305 0.0615-0.25977 0.0615-0.33496 0-0.5332-0.19824t-0.19824-0.54687q0-0.33496 0.25293-0.57422 0.25977-0.23926 0.62891-0.23926 0.45117 0 0.7998 0.39648 0.35547 0.38965 0.35547 1.0391 0 0.7041-0.49219 1.3057-0.48535 0.6084-1.5449 0.95703zm8.8588-11.601-0.5332 1.1621h-2.7891l-0.6084 1.2441q1.8115 0.2666 2.8711 1.3467 0.90918 0.92968 0.90918 2.1875 0 0.73144-0.30078 1.3535-0.29394 0.62207-0.74512 1.0596t-1.0049 0.7041q-0.78613 0.37598-1.6133 0.37598-0.83398 0-1.2168-0.28027-0.37598-0.28711-0.37598-0.62891 0-0.19141 0.15723-0.33496 0.15723-0.15039 0.39648-0.15039 0.17774 0 0.30762 0.0547 0.13672 0.0547 0.45801 0.28027 0.5127 0.35547 1.0391 0.35547 0.7998 0 1.4014-0.60156 0.6084-0.6084 0.6084-1.4766 0-0.84082-0.54004-1.5654-0.54004-0.73144-1.4902-1.1279-0.74512-0.30761-2.0303-0.35547l1.7773-3.6025z"/>
   <path d="m51.962 113.53 2.2559-1.1006h0.22559v7.8272q0 0.7793 0.06152 0.9707 0.06836 0.19141 0.27344 0.29395t0.83398 0.11621v0.25293h-3.4863v-0.25293q0.65625-0.0137 0.84766-0.10937 0.19141-0.10254 0.2666-0.26661 0.0752-0.17089 0.0752-1.0049v-5.0039q0-1.0117-0.06836-1.2988-0.04785-0.21875-0.17774-0.32129-0.12305-0.10254-0.30078-0.10254-0.25293 0-0.7041 0.21191zm6.0609 10.691v-0.30079q0.7041-0.23242 1.0869-0.72461 0.38965-0.48535 0.38965-1.0322 0-0.12988-0.06152-0.21875-0.04785-0.0615-0.0957-0.0615-0.0752 0-0.32812 0.13672-0.12305 0.0615-0.25977 0.0615-0.33496 0-0.5332-0.19825-0.19824-0.19824-0.19824-0.54687 0-0.33496 0.25293-0.57422 0.25977-0.23926 0.62891-0.23926 0.45117 0 0.7998 0.39649 0.35547 0.38965 0.35547 1.0391 0 0.7041-0.49219 1.3057-0.48535 0.6084-1.5449 0.95704zm3.2875-6.9111q0-1.5859 0.47852-2.7275 0.47852-1.1484 1.2715-1.709 0.61523-0.44434 1.2715-0.44434 1.0664 0 1.9141 1.0869 1.0596 1.3467 1.0596 3.6504 0 1.6133-0.46484 2.7412-0.46484 1.1279-1.1895 1.6406-0.71777 0.50586-1.3877 0.50586-1.3262 0-2.208-1.5654-0.74512-1.3193-0.74512-3.1787zm1.3398 0.1709q0 1.9141 0.47168 3.124 0.38965 1.0186 1.1621 1.0186 0.36914 0 0.76562-0.32813 0.39648-0.33496 0.60156-1.1142 0.31445-1.1758 0.31445-3.3154 0-1.5859-0.32812-2.6455-0.24609-0.78613-0.63574-1.1143-0.28027-0.22558-0.67676-0.22558-0.46484 0-0.82715 0.41699-0.49219 0.56738-0.66992 1.7842-0.17773 1.2168-0.17773 2.3994z"/>
   <path d="m50.828 133.39q0-1.5859 0.47852-2.7275 0.47852-1.1484 1.2715-1.709 0.61523-0.44434 1.2715-0.44434 1.0664 0 1.9141 1.0869 1.0596 1.3467 1.0596 3.6504 0 1.6133-0.46484 2.7412t-1.1895 1.6406q-0.71777 0.50586-1.3877 0.50586-1.3262 0-2.208-1.5654-0.74512-1.3193-0.74512-3.1787zm1.3398 0.1709q0 1.9141 0.47168 3.124 0.38965 1.0186 1.1621 1.0186 0.36914 0 0.76562-0.32812 0.39648-0.33497 0.60156-1.1143 0.31445-1.1758 0.31445-3.3154 0-1.5859-0.32812-2.6455-0.24609-0.78613-0.63574-1.1143-0.28027-0.22558-0.67676-0.22558-0.46484 0-0.82715 0.41699-0.49219 0.56738-0.66992 1.7842-0.17773 1.2168-0.17773 2.3994zm5.8502 6.7402v-0.30078q0.7041-0.23243 1.0869-0.72461 0.38965-0.48536 0.38965-1.0322 0-0.12988-0.06152-0.21875-0.04785-0.0615-0.0957-0.0615-0.0752 0-0.32812 0.13671-0.12305 0.0615-0.25977 0.0615-0.33496 0-0.5332-0.19824-0.19824-0.19825-0.19824-0.54688 0-0.33496 0.25293-0.57422 0.25977-0.23926 0.62891-0.23926 0.45117 0 0.7998 0.39649 0.35547 0.38965 0.35547 1.0391 0 0.7041-0.49219 1.3057-0.48535 0.60839-1.5449 0.95703zm8.8532-11.601-0.5332 1.1621h-2.7891l-0.6084 1.2441q1.8115 0.2666 2.8711 1.3467 0.90918 0.92969 0.90918 2.1875 0 0.73145-0.30078 1.3535-0.29394 0.62207-0.74512 1.0596t-1.0049 0.7041q-0.78613 0.37597-1.6133 0.37597-0.83398 0-1.2168-0.28027-0.37598-0.28711-0.37598-0.62891 0-0.1914 0.15723-0.33496 0.15723-0.15039 0.39648-0.15039 0.17774 0 0.30762 0.0547 0.13672 0.0547 0.45801 0.28027 0.5127 0.35547 1.0391 0.35547 0.7998 0 1.4014-0.60156 0.6084-0.6084 0.6084-1.4766 0-0.84082-0.54004-1.5654-0.54004-0.73145-1.4902-1.1279-0.74512-0.30762-2.0303-0.35547l1.7773-3.6025z"/>
  </g>
  <path transform="matrix(.93333 0 0 -.93333 71.546 150.73)" d="m0 0 184.32-0.06 0.3-0.12 0.12-0.24-0.12-0.24-0.3-0.12-184.32 0.06-0.24 0.06-0.12 0.3 0.12 0.24zm183.36 2.58 6-3-6-3" clip-path="url(#clipPath570)" fill="#100f0d"/>
  <path transform="matrix(.93333 0 0 -.93333 71.21 154.21)" d="m0 0 0.06 133.38 0.06 0.24 0.3 0.12 0.24-0.12 0.12-0.24-0.06-133.38-0.12-0.24-0.24-0.12-0.24 0.12zm-2.58 132.36 3 6 3-6" clip-path="url(#clipPath572)" fill="#100f0d"/>
  <g stroke-width="1.3333" aria-label="0 2 4 6 8 10 12 14 16 R
, 
Ом">
   <path d="m61.938 162.2q0-1.4802 0.44661-2.5457 0.44661-1.0719 1.1867-1.595 0.57421-0.41471 1.1867-0.41471 0.9953 0 1.7864 1.0144 0.98892 1.2569 0.98892 3.407 0 1.5057-0.43385 2.5584-0.43385 1.0527-1.1101 1.5312-0.66991 0.47213-1.2952 0.47213-1.2377 0-2.0608-1.461-0.69543-1.2314-0.69543-2.9668zm1.2505 0.15951q0 1.7864 0.44023 2.9157 0.36367 0.95064 1.0846 0.95064 0.34453 0 0.71457-0.30624 0.37005-0.31263 0.56145-1.04 0.29349-1.0974 0.29349-3.0944 0-1.4802-0.30625-2.4691-0.22968-0.73371-0.59335-1.04-0.26158-0.21054-0.63163-0.21054-0.43385 0-0.772 0.38919-0.45937 0.52955-0.62525 1.6652t-0.16588 2.2394zm27.088 2.45-0.60611 1.6652h-5.1041v-0.23607q2.2522-2.0544 3.1709-3.3559 0.91874-1.3016 0.91874-2.3798 0-0.82304-0.50403-1.3526t-1.2058-0.52955q-0.63801 0-1.1484 0.37643-0.50403 0.37005-0.74648 1.091h-0.23606q0.1595-1.1803 0.81666-1.812 0.66353-0.63163 1.6525-0.63163 1.0527 0 1.7545 0.67629 0.70819 0.6763 0.70819 1.595 0 0.65715-0.30625 1.3143-0.47213 1.0336-1.5312 2.1884-1.5887 1.7354-1.9842 2.0927h2.2586q0.68905 0 0.9634-0.051 0.28073-0.051 0.50403-0.20417 0.2233-0.1595 0.38919-0.44661zm16.399-1.5248v0.90598h-1.1612v2.2841h-1.0527v-2.2841h-3.6622v-0.81665l4.0131-5.7294h0.70181v5.64zm-2.2139 0v-4.2938l-3.0369 4.2938zm18.3-5.64v0.23607q-0.84218 0.0829-1.3781 0.33814-0.52955 0.24883-1.0527 0.76562-0.51679 0.51679-0.86132 1.1548-0.33814 0.63163-0.56783 1.5057 0.91874-0.63163 1.8439-0.63163 0.88684 0 1.5376 0.71457 0.65077 0.71458 0.65077 1.8375 0 1.0846-0.65715 1.9778-0.79114 1.0846-2.0927 1.0846-0.88684 0-1.5057-0.58697-1.2122-1.142-1.2122-2.9604 0-1.1612 0.46575-2.2075 0.46575-1.0464 1.3271-1.8566 0.8677-0.81028 1.6588-1.091 0.79114-0.28073 1.4738-0.28073zm-3.9684 4.4661q-0.11484 0.86132-0.11484 1.3909 0 0.61249 0.2233 1.3334 0.22969 0.71458 0.6763 1.1357 0.32538 0.29986 0.79113 0.29986 0.55507 0 0.98892-0.52317 0.44023-0.52317 0.44023-1.493 0-1.091-0.43385-1.8885-0.43385-0.79752-1.2314-0.79752-0.24245 0-0.52317 0.10208-0.27435 0.10208-0.81666 0.44023zm16.929 6e-3q-1.0272-0.84218-1.3271-1.3526-0.29349-0.51041-0.29349-1.0591 0-0.84217 0.65078-1.4483 0.65077-0.61249 1.729-0.61249 1.0463 0 1.6844 0.56783 0.63802 0.56783 0.63802 1.2952 0 0.48489-0.34453 0.98892t-1.4355 1.1867q1.1229 0.8677 1.4866 1.3654 0.48489 0.65077 0.48489 1.3717 0 0.91235-0.69543 1.5631-0.69544 0.64439-1.8247 0.64439-1.2314 0-1.9204-0.772-0.54869-0.61887-0.54869-1.3526 0-0.57421 0.38281-1.1357 0.38919-0.56784 1.3334-1.2505zm1.0017-0.68267q0.76562-0.68906 0.96978-1.0846 0.20417-0.40195 0.20417-0.90598 0-0.66992-0.37643-1.0463-0.37643-0.38281-1.0272-0.38281t-1.0591 0.37643q-0.40833 0.37642-0.40833 0.88045 0 0.33177 0.16588 0.66354 0.17227 0.33176 0.48489 0.63163zm-0.70181 0.92512q-0.52955 0.4466-0.78475 0.97615-0.25521 0.52317-0.25521 1.1357 0 0.82303 0.44661 1.3207 0.45299 0.49127 1.1484 0.49127 0.68906 0 1.1038-0.38918 0.41471-0.38919 0.41471-0.94426 0-0.45937-0.24244-0.82304-0.45299-0.67629-1.8311-1.7673zm11.777-3.6877 2.1054-1.0272h0.21054v7.3052q0 0.72733 0.0574 0.90597 0.0638 0.17865 0.25521 0.27435 0.1914 0.0957 0.77837 0.10846v0.23607h-3.2539v-0.23607q0.61249-0.0128 0.79114-0.10208 0.17864-0.0957 0.24882-0.24882 0.0702-0.15951 0.0702-0.93788v-4.6703q0-0.94426-0.0638-1.2122-0.0447-0.20416-0.16588-0.29987-0.11484-0.0957-0.28073-0.0957-0.23606 0-0.65715 0.19779zm5.482 3.5282q0-1.4802 0.44661-2.5457 0.44661-1.0719 1.1867-1.595 0.57421-0.41471 1.1867-0.41471 0.9953 0 1.7864 1.0144 0.98892 1.2569 0.98892 3.407 0 1.5057-0.43384 2.5584-0.43385 1.0527-1.1102 1.5312-0.66991 0.47213-1.2952 0.47213-1.2378 0-2.0608-1.461-0.69544-1.2314-0.69544-2.9668zm1.2505 0.15951q0 1.7864 0.44023 2.9157 0.36366 0.95064 1.0846 0.95064 0.34453 0 0.71457-0.30624 0.37005-0.31263 0.56145-1.04 0.29349-1.0974 0.29349-3.0944 0-1.4802-0.30625-2.4691-0.22968-0.73371-0.59335-1.04-0.26158-0.21054-0.63163-0.21054-0.43385 0-0.772 0.38919-0.45937 0.52955-0.62525 1.6652t-0.16588 2.2394zm12.862-3.6877 2.1054-1.0272h0.21055v7.3052q0 0.72733 0.0574 0.90597 0.0638 0.17865 0.2552 0.27435 0.19141 0.0957 0.77838 0.10846v0.23607h-3.2539v-0.23607q0.6125-0.0128 0.79114-0.10208 0.17864-0.0957 0.24882-0.24882 0.0702-0.15951 0.0702-0.93788v-4.6703q0-0.94426-0.0638-1.2122-0.0447-0.20416-0.16588-0.29987-0.11484-0.0957-0.28072-0.0957-0.23607 0-0.65716 0.19779zm11.001 6.1377-0.60612 1.6652h-5.1041v-0.23607q2.2522-2.0544 3.1709-3.3559 0.91873-1.3016 0.91873-2.3798 0-0.82304-0.50403-1.3526t-1.2058-0.52955q-0.63801 0-1.1484 0.37643-0.50403 0.37005-0.74648 1.091h-0.23606q0.1595-1.1803 0.81665-1.812 0.66354-0.63163 1.6525-0.63163 1.0527 0 1.7545 0.67629 0.7082 0.6763 0.7082 1.595 0 0.65715-0.30625 1.3143-0.47213 1.0336-1.5312 2.1884-1.5886 1.7354-1.9842 2.0927h2.2586q0.68905 0 0.96339-0.051 0.28073-0.051 0.50403-0.20417 0.22331-0.1595 0.38919-0.44661zm8.5938-6.1377 2.1054-1.0272h0.21054v7.3052q0 0.72733 0.0574 0.90597 0.0638 0.17865 0.25521 0.27435 0.1914 0.0957 0.77837 0.10846v0.23607h-3.2539v-0.23607q0.61249-0.0128 0.79113-0.10208 0.17865-0.0957 0.24883-0.24882 0.0702-0.15951 0.0702-0.93788v-4.6703q0-0.94426-0.0638-1.2122-0.0447-0.20416-0.16588-0.29987-0.11485-0.0957-0.28073-0.0957-0.23606 0-0.65715 0.19779zm11.09 4.6128v0.90598h-1.1612v2.2841h-1.0527v-2.2841h-3.6622v-0.81665l4.0131-5.7294h0.70181v5.64zm-2.2139 0v-4.2938l-3.0369 4.2938zm10.718-4.6128 2.1054-1.0272h0.21054v7.3052q0 0.72733 0.0574 0.90597 0.0638 0.17865 0.2552 0.27435t0.77838 0.10846v0.23607h-3.2539v-0.23607q0.61249-0.0128 0.79114-0.10208 0.17864-0.0957 0.24882-0.24882 0.0702-0.15951 0.0702-0.93788v-4.6703q0-0.94426-0.0638-1.2122-0.0447-0.20416-0.16588-0.29987-0.11484-0.0957-0.28073-0.0957-0.23606 0-0.65715 0.19779zm10.867-1.0272v0.23607q-0.84217 0.0829-1.3781 0.33814-0.52955 0.24883-1.0527 0.76562-0.51679 0.51679-0.86131 1.1548-0.33815 0.63163-0.56783 1.5057 0.91873-0.63163 1.8438-0.63163 0.88684 0 1.5376 0.71457 0.65078 0.71458 0.65078 1.8375 0 1.0846-0.65716 1.9778-0.79113 1.0846-2.0927 1.0846-0.88684 0-1.5057-0.58697-1.2122-1.142-1.2122-2.9604 0-1.1612 0.46575-2.2075 0.46575-1.0464 1.3271-1.8566 0.8677-0.81028 1.6588-1.091 0.79113-0.28073 1.4738-0.28073zm-3.9684 4.4661q-0.11484 0.86132-0.11484 1.3909 0 0.61249 0.22331 1.3334 0.22968 0.71458 0.67629 1.1357 0.32539 0.29986 0.79113 0.29986 0.55508 0 0.98892-0.52317 0.44023-0.52317 0.44023-1.493 0-1.091-0.43385-1.8885-0.43384-0.79752-1.2314-0.79752-0.24244 0-0.52317 0.10208-0.27435 0.10208-0.81666 0.44023z"/>
   <path d="m230.25 166.47-1.3845-4.2045q-0.48489 6e-3 -0.9953-0.0957l-0.74648 2.6158q-0.14674 0.51041-0.14674 0.86132 0 0.26797 0.18502 0.42109 0.14037 0.11484 0.76562 0.16588l-0.0574 0.23607h-3.3496l0.0702-0.23607q0.47213-0.0191 0.63801-0.0957 0.26159-0.10846 0.38281-0.29349 0.20417-0.29986 0.42747-1.0591l1.5121-5.2253q0.15312-0.52317 0.15312-0.81028 0-0.29348-0.24244-0.49765-0.23607-0.20416-0.68267-0.19778l0.0766-0.23607h2.82q1.4164 0 2.0416 0.53594 0.62526 0.53593 0.62526 1.41 0 0.8358-0.6444 1.5312-0.63801 0.68906-1.7545 0.87408l0.84217 2.5329q0.30625 0.9315 0.6125 1.2122 0.30624 0.28072 0.98892 0.319l-0.0702 0.23607zm-2.2713-4.6639q0.40833 0.0574 0.72733 0.0574 1.0974 0 1.7354-0.60612 0.63801-0.61249 0.63801-1.5185 0-0.70819-0.40195-1.0846-0.39557-0.37643-1.1931-0.37643-0.20417 0-0.48489 0.0511z"/>
   <path d="m233.48 168.65v-0.28073q0.65715-0.21692 1.0144-0.67629 0.36367-0.45299 0.36367-0.9634 0-0.12122-0.0574-0.20416-0.0447-0.0574-0.0893-0.0574-0.0702 0-0.30624 0.1276-0.11484 0.0574-0.24245 0.0574-0.31262 0-0.49765-0.18502-0.18502-0.18503-0.18502-0.51041 0-0.31263 0.23606-0.53593 0.24245-0.22331 0.58698-0.22331 0.42108 0 0.74647 0.37005 0.33177 0.36367 0.33177 0.96978 0 0.65715-0.45937 1.2186-0.45299 0.56783-1.4419 0.89322z"/>
   <path d="m244.11 157.62q1.6844 0 2.9157 1.2824 1.2378 1.276 1.2378 3.1901 0 1.9715-1.2441 3.273-1.2441 1.3016-3.0114 1.3016-1.7864 0-3.005-1.2696-1.2122-1.2696-1.2122-3.2858 0-2.0608 1.4036-3.3623 1.2186-1.1293 2.9157-1.1293zm-0.12123 0.46575q-1.1612 0-1.863 0.86132-0.87408 1.0719-0.87408 3.139 0 2.1182 0.90598 3.2602 0.69543 0.8677 1.8375 0.8677 1.2186 0 2.0097-0.95064 0.79752-0.95064 0.79752-2.9987 0-2.2203-0.87408-3.3113-0.70181-0.8677-1.9396-0.8677zm8.9332 6.8586 1.8247-4.3194h1.9715v0.24245q-0.43384 0-0.58059 0.0893-0.14036 0.0829-0.2233 0.21054-0.0829 0.1276-0.0829 0.82942v3.1007q0 0.60611 0.0574 0.78476 0.0638 0.17226 0.24882 0.26158 0.19141 0.0893 0.58059 0.0893v0.23607h-2.8264v-0.23607q0.52317 0 0.70181-0.1914 0.17865-0.19779 0.17865-0.94426v-3.5154l-2.0672 4.8872h-0.2233l-2.1054-4.8872v3.5154q0 0.60611 0.0638 0.78476 0.0638 0.17226 0.24882 0.26158 0.18503 0.0893 0.57422 0.0893v0.23607h-2.233v-0.23607q0.56783 0 0.72734-0.20416 0.1595-0.21055 0.1595-0.9315v-3.1007q0-0.68268-0.0702-0.8039-0.0702-0.1276-0.21693-0.2233-0.14674-0.10208-0.59973-0.10208v-0.24245h2.0544z"/>
  </g>
  <g fill="#100f0d" stroke-linejoin="round" stroke-miterlimit="10">
   <g stroke-linecap="round">
    <path transform="matrix(.93333 0 0 -.93333 71.546 83.871)" d="m144-0.43555-144 0.060547a0.375 0.375 0 0 0-0.375 0.375 0.375 0.375 0 0 0 0.375 0.375l144-0.060547a0.375 0.375 0 0 0 0.375-0.375 0.375 0.375 0 0 0-0.375-0.375z" color="#000000" style="-inkscape-stroke:none"/>
    <path transform="matrix(.93333 0 0 -.93333 71.546 33.471)" d="m144-0.43555-144 0.060547a0.375 0.375 0 0 0-0.375 0.375 0.375 0.375 0 0 0 0.375 0.375l144-0.060547a0.375 0.375 0 0 0 0.375-0.375 0.375 0.375 0 0 0-0.375-0.375z" color="#000000" style="-inkscape-stroke:none"/>
    <path transform="matrix(.93333 0 0 -.93333 71.546 50.271)" d="m144-0.43555-144 0.060547a0.375 0.375 0 0 0-0.375 0.375 0.375 0.375 0 0 0 0.375 0.375l144-0.060547a0.375 0.375 0 0 0 0.375-0.375 0.375 0.375 0 0 0-0.375-0.375z" color="#000000" style="-inkscape-stroke:none"/>
    <path transform="matrix(.93333 0 0 -.93333 71.546 67.071)" d="m144-0.43555-144 0.060547a0.375 0.375 0 0 0-0.375 0.375 0.375 0.375 0 0 0 0.375 0.375l144-0.060547a0.375 0.375 0 0 0 0.375-0.375 0.375 0.375 0 0 0-0.375-0.375z" color="#000000" style="-inkscape-stroke:none"/>
    <path transform="matrix(.93333 0 0 -.93333 71.546 134.27)" d="m144-0.43555-144 0.060547a0.375 0.375 0 0 0-0.375 0.375 0.375 0.375 0 0 0 0.375 0.375l144-0.060547a0.375 0.375 0 0 0 0.375-0.375 0.375 0.375 0 0 0-0.375-0.375z" color="#000000" style="-inkscape-stroke:none"/>
    <path transform="matrix(.93333 0 0 -.93333 71.546 117.47)" d="m144-0.43555-144 0.060547a0.375 0.375 0 0 0-0.375 0.375 0.375 0.375 0 0 0 0.375 0.375l144-0.060547a0.375 0.375 0 0 0 0.375-0.375 0.375 0.375 0 0 0-0.375-0.375z" color="#000000" style="-inkscape-stroke:none"/>
    <path transform="matrix(.93333 0 0 -.93333 71.546 100.67)" d="m144-0.43555-144 0.060547a0.375 0.375 0 0 0-0.375 0.375 0.375 0.375 0 0 0 0.375 0.375l144-0.060547a0.375 0.375 0 0 0 0.375-0.375 0.375 0.375 0 0 0-0.375-0.375z" color="#000000" style="-inkscape-stroke:none"/>
    <path transform="matrix(.93333 0 0 -.93333 205.95 33.639)" d="m0.060547-126.38a0.375 0.375 0 0 0-0.375 0.375l-0.060547 126a0.375 0.375 0 0 0 0.375 0.375 0.375 0.375 0 0 0 0.375-0.375l0.060547-126a0.375 0.375 0 0 0-0.375-0.375z" color="#000000" style="-inkscape-stroke:none"/>
    <path transform="matrix(.93333 0 0 -.93333 88.346 33.471)" d="m0-126.38a0.375 0.375 0 0 0-0.375 0.375v126a0.375 0.375 0 0 0 0.375 0.375 0.375 0.375 0 0 0 0.375-0.375v-126a0.375 0.375 0 0 0-0.375-0.375z" color="#000000" style="-inkscape-stroke:none"/>
    <path transform="matrix(.93333 0 0 -.93333 105.15 33.471)" d="m0-126.38a0.375 0.375 0 0 0-0.375 0.375v126a0.375 0.375 0 0 0 0.375 0.375 0.375 0.375 0 0 0 0.375-0.375v-126a0.375 0.375 0 0 0-0.375-0.375z" color="#000000" style="-inkscape-stroke:none"/>
    <path transform="matrix(.93333 0 0 -.93333 121.95 33.471)" d="m0-126.38a0.375 0.375 0 0 0-0.375 0.375v126a0.375 0.375 0 0 0 0.375 0.375 0.375 0.375 0 0 0 0.375-0.375v-126a0.375 0.375 0 0 0-0.375-0.375z" color="#000000" style="-inkscape-stroke:none"/>
    <path transform="matrix(.93333 0 0 -.93333 138.75 33.471)" d="m0-126.38a0.375 0.375 0 0 0-0.375 0.375v126a0.375 0.375 0 0 0 0.375 0.375 0.375 0.375 0 0 0 0.375-0.375v-126a0.375 0.375 0 0 0-0.375-0.375z" color="#000000" style="-inkscape-stroke:none"/>
    <path transform="matrix(.93333 0 0 -.93333 155.55 33.471)" d="m0-126.38a0.375 0.375 0 0 0-0.375 0.375v126a0.375 0.375 0 0 0 0.375 0.375 0.375 0.375 0 0 0 0.375-0.375v-126a0.375 0.375 0 0 0-0.375-0.375z" color="#000000" style="-inkscape-stroke:none"/>
    <path transform="matrix(.93333 0 0 -.93333 172.35 33.471)" d="m0-126.38a0.375 0.375 0 0 0-0.375 0.375v126a0.375 0.375 0 0 0 0.375 0.375 0.375 0.375 0 0 0 0.375-0.375v-126a0.375 0.375 0 0 0-0.375-0.375z" color="#000000" style="-inkscape-stroke:none"/>
    <path transform="matrix(.93333 0 0 -.93333 189.15 33.471)" d="m0-126.38a0.375 0.375 0 0 0-0.375 0.375v126a0.375 0.375 0 0 0 0.375 0.375 0.375 0.375 0 0 0 0.375-0.375v-126a0.375 0.375 0 0 0-0.375-0.375z" color="#000000" style="-inkscape-stroke:none"/>
   </g>
   <path transform="matrix(.93333 0 0 -.93333 71.546 50.271)" d="m143.66-87.471c-12.001 1.3201-23.926 2.6424-35.945 4.998-11.924 2.3368-24.077 4.5078-36.238 9.0684-12.128 4.5481-27.145 12.05-36.305 18.156-9.064 6.0427-12.373 9.352-18.416 18.416-6.128 9.192-12.123 22.723-18.123 36.223l2.7422 1.2188c6-13.5 12.005-26.969 17.877-35.777 5.9573-8.936 8.648-11.627 17.584-17.584 8.84-5.8933 23.824-13.392 35.695-17.844 11.838-4.4394 23.806-6.5885 35.762-8.9316 11.86-2.3244 23.696-3.6411 35.695-4.9609z" color="#000000" style="-inkscape-stroke:none"/>
  </g>
 </g>
</svg>
