<svg height="781.811455pt" preserveAspectRatio="xMidYMid meet" viewBox="0 0 1153.832893 781.811455" width="1153.832893pt" xmlns="http://www.w3.org/2000/svg"><g transform="matrix(.1 0 0 -.1 -44.103566 847)"><path d="m775 8415c-21-62-23-63-125-67-50-2-65-6-65-18s14-14 77-11c72 3 76 2 71-17-3-12-16-22-34-26-33-6-40-36-9-36 17 0 19-3 10-19-14-28-13-61 3-61 8 0 20 18 27 40 13 39 15 40 58 40h44l-7-56c-9-72 13-71 34 2 16 58 23 64 78 64 47 0 73 8 73 21 0 6-27 7-65 3-69-7-72-5-55 40 8 23 15 26 60 26 27 0 50 5 50 10 0 6-22 10-49 10h-49l9 35c11 38 6 55-15 55-7 0-17-19-22-42-8-41-11-43-46-46-43-4-43-4-23 45 18 44 19 63 2 63-7 0-21-25-32-55zm75-102c0-35-15-45-54-38-27 6-36 11-32 22 3 8 6 19 6 24s18 9 40 9c31 0 40-4 40-17z"/><path d="m1098 8389c-58-30-74-75-39-106 20-16 19-17-10-51-32-36-34-58-8-75 20-12 139 14 176 39 34 22 27 56-14 68-18 5-33 12-33 16 0 5 20 16 45 27 25 10 45 21 45 26 0 16-59 6-103-17-39-21-48-23-63-11-18 13-18 14-1 33 29 31 74 47 92 32 21-17 51 6 34 26-16 20-78 16-121-7zm79-150 28-11-40-19c-40-18-95-25-95-12 0 14 44 53 61 53 10 0 30-5 46-11z"/><path d="m1450 8371c-80-16-128-63-100-97 7-8 38-21 68-30l56-17-28-23c-33-29-46-30-46-5 0 10-7 24-15 31-23 19-39-1-30-39 11-52 76-55 129-6 45 41 33 65-42 88-52 15-61 21-52 32 22 26 81 38 161 32 93-7 111 6 37 28-55 16-81 17-138 6z"/><path d="m1717 8363c-2-5-7-24-11-44-4-21-18-54-32-74-30-45-25-70 12-61 15 4 39 9 54 13l28 5-5-66c-5-56-3-66 10-66 9 0 19 10 21 23 18 97 39 178 51 193 21 28 18 44-9 44-20 0-27-8-41-50-15-45-19-50-47-50-25 0-29 3-23 18 24 55 34 93 29 107-6 16-30 21-37 8z"/><path d="m10972 8333c-14-22-14-32-3-82 13-58 32-731 35-1233 1-265 5-288 41-274 11 4 14 12 10 27-4 12-9 114-10 228-2 113-8 343-14 511s-11 395-11 505c-1 110-5 221-9 247-7 45-7 47 18 53 43 9 253 10 501 2 226-8 237-9 288-35 29-14 57-33 62-41 16-32 40-180 50-311 21-289 12-705-25-1080-31-320-46-511-40-520 7-11-775-2-787 9-4 3-9 58-10 121l-3 115h-50c-210 2-236 4-232 23 3 9 8 34 12 55l6 38 132-2c108-2 132 0 132 12 0 11-26 15-131 17l-131 3 8 47c5 26 11 61 14 79 4 20 13 34 25 38 11 4 20 13 20 20 0 10-17 15-57 17l-58 3-3 95-3 96 41-4c30-3 40-1 40 11 0 9-19 18-58 27-73 15-145 4-150-24-4-17 1-18 40-12l43 6 3-95 4-95h-41c-58 0-64-17-40-115 10-44 19-83 19-87 0-5-42-8-94-8h-95l-5 43c-24 201-28 297-17 450 34 499 42 942 16 1002-28 68-138 85-564 85-294 0-313-1-309-18 3-9 1-46-3-82-11-94 9-1599 24-1757 7-72 15-135 20-139 4-4 13 1 21 11 12 17 34 18 459 11 440-7 447-7 447 12 0 11-9 39-20 63s-20 65-20 92v47h84 83l13-45c24-86 62-86 80-1l11 56h87c48 0 104-3 125-6l37-7v-97c0-157-38-144 437-148l398-3 21 33c19 29 23 58 33 238 7 113 19 261 26 330 34 297 44 710 25 1020-10 159-32 317-50 349-4 9-34 29-67 46-56 28-65 29-248 37-104 4-286 9-403 12-213 3-213 3-230-21zm-776-67c119-7 188-23 211-48 16-18 18-43 21-247 2-139-3-349-15-546-10-176-17-354-16-395 2-111 20-330 27-337 3-4 57-5 120-4l114 2 7-51c4-28 4-54 0-58-3-4-51-5-106-3-88 3-100 1-106-15-4-10-2-19 5-22 7-2 12-25 12-58 0-30 7-70 14-89l15-35-57-2c-31-1-223-2-425-3-360 0-368 0-372 20-22 99-29 346-32 1078-1 444 1 808 5 808 20 4 412 14 447 12 22-1 81-5 131-7zm550-1377c39-10 45-15 40-33-3-12-8-48-12-79-7-57-7-57-44-57h-37l-17 82c-20 103-16 108 70 87zm11-216c-3-10-8-35-12-55-11-70-44-30-45 55 0 12 8 17 31 17 24 0 29-4 26-17zm-24-143c-3-11-7-20-9-20s-4 9-4 20 4 20 9 20 7-9 4-20z"/><path d="m9838 8158c-3-24-12-59-20-78l-14-34-24 42c-14 24-31 42-41 42-30 0-31-18-5-53 14-19 29-48 32-66 8-37 29-50 49-30 7 8 25 45 39 82 29 74 31 130 5 135-12 2-18-7-21-40z"/><path d="m9920 7976c0-47 4-87 9-90 18-11 29 21 32 94 4 71 3 75-18 78-22 3-23 1-23-82z"/><path d="m9683 7744c-9-24 17-35 74-31 47 3 51 2 42-15-10-19-28-176-20-183 17-18 30 1 36 53 4 31 14 78 23 105 16 46 17 47 59 47 24 0 43 4 43 10 0 16-47 23-131 18-44-3-82-1-85 4-9 14-34 9-41-8z"/><path d="m9950 7604c-18-46-7-184 15-184 12 0 30 184 19 201-10 16-24 9-34-17z"/><path d="m9982 7028c-10-39-82-176-109-209-33-38-36-33-58 88-18 96-34 125-59 104-11-9-10-22 6-79 10-37 23-86 28-110 7-26 20-48 35-58 23-15 27-15 49 0 44 28 154 240 142 272-8 21-27 17-34-8z"/><path d="m11297 8213c-4-3-7-19-7-35s-5-49-11-74l-12-45-34 60c-33 59-58 76-69 48-3-8 11-37 30-65s37-65 41-81c7-35 29-46 49-26 17 17 46 137 46 189 0 34-15 47-33 29z"/><path d="m11368 8049c-20-11-24-34-8-44 5-3 21 2 35 11 24 15 25 15 25-2 0-10-10-28-22-41-19-20-20-25-7-37 8-8 31-17 52-20 29-6 37-4 37 8 0 9-11 18-25 22-24 6-25 8-10 23 18 21 20 62 3 79-15 15-57 15-80 1z"/><path d="m4535 8030c-10-16 4-30 28-30 40 0 52-15 39-45-20-43-14-60 33-93 25-17 45-36 45-42 0-11-43-34-82-44-28-6-36-20-18-31 15-9 84 13 114 36 37 29 33 52-19 96-46 39-46 39-31 74 18 42 12 53-37 74-42 17-63 19-72 5z"/><path d="m1237 8014c-3-3-167-7-364-9s-358-7-357-12c2-17 114-24 289-19 99 3 405 8 680 11 513 6 609 10 600 26-7 10-838 13-848 3z"/><path d="m6808 8003c-62-70-152-375-131-441 17-56 29-75 54-87 32-17 79-20 79-5 0 6-8 10-19 10-30 0-70 38-77 75-17 94 77 394 136 430 8 5 8 11-1 21-15 18-23 18-41-3z"/><path d="m2872 7998c-7-7-12-22-12-35 0-29 35-31 50-3 9 16 21 20 63 20l52-1-53-47c-41-38-50-50-40-60 6-6 21-12 33-12 11 0 27-4 35-10 12-7 12-12-4-29-10-11-34-25-52-31-37-13-46-40-14-40 31 0 98 37 116 64 19 31 5 63-32 72l-25 6 35 33c64 59 44 85-64 85-46 0-81-5-88-12z"/><path d="m6422 7997c-16-18-5-27 32-27 27 0 28-1 12-13-31-22-16-49 38-68 26-10 51-21 54-24 13-12-17-41-59-56-48-18-61-46-19-41 41 4 111 43 120 66 11 31-6 55-56 78-45 19-45 19-23 37 29 23 19 51-18 51-15 0-37 3-49 6-11 3-25-1-32-9z"/><path d="m2559 7978c-9-16-10-67-5-181 8-196-6-354-45-506-16-64-29-124-29-134 0-9 11-35 25-56 40-60 46-92 55-321 10-224 24-306 61-367 11-18 27-33 35-33 18 0 18 5-6 66-25 68-40 190-40 334 0 153-14 231-55 315l-34 70 23 87c47 168 58 268 60 515 1 214 0 233-16 233-10 0-23-10-29-22z"/><path d="m7570 7975c0-9 7-18 15-21 23-9 72-94 91-159 19-68 22-195 5-246-10-32-14-34-61-37l-50-3 20 33c37 61 18 118-38 118-33 0-72-25-72-46 0-19 29-18 51 2 20 18 39 11 39-13 0-9-12-36-26-60-34-59-21-78 48-70 38 5 48 3 48-8 0-46 56 13 75 79 40 132 0 332-83 419-28 29-62 36-62 12z"/><path d="m2080 7948c-1-7 0-173 2-368 4-624-3-1759-13-1938-5-95-18-259-29-365-27-254-27-387-1-418 26-32 37-18 23 30-17 55-15 113 14 411 23 243 26 328 34 1010 7 558 7 1487 0 1643 0 12-30 8-30-5z"/><path d="m5002 7907c-9-10-6-18 10-31 18-16 20-25 15-82-7-68-38-153-67-179-16-15-18-12-22 62-6 109-38 167-83 149-17-6-17-8 2-29 34-38 38-49 43-147 5-89 6-95 27-98 14-2 33 7 50 24 27 27 97 42 109 23 3-5-15-29-41-53-44-40-46-44-30-59 17-17 61-22 103-11 32 9 27 21-14 28l-35 7 30 35c17 19 31 41 31 48 0 22-35 46-69 46-28 0-32 3-26 18 17 43 35 158 29 186-7 35-30 76-43 76-5 0-13-6-19-13z"/><path d="m3583 7885c-39-27-102-310-76-336 17-17 33-1 33 30 0 43 10 44 52 6 37-34 60-41 92-29 26 10 18 24-13 24-21 0-39 11-65 40-20 22-36 46-36 52 0 7 27 37 60 68 67 62 75 89 39 134-23 29-54 33-86 11zm55-27c22-22 13-55-23-87-20-17-38-31-42-31-10 0 7 84 23 108 16 25 25 27 42 10z"/><path d="m3707 7873c-23-23 1-28 138-31 84-2 145 1 145 6 0 18-267 42-283 25z"/><path d="m3333 7855c-3-9 2-22 13-29 22-17 23-70 1-112-9-16-34-47-56-69l-41-39v54c0 83-50 164-81 133-9-9-6-19 15-43 23-28 26-40 26-106 0-71 1-74 23-74 68 0 167 126 167 212 0 66-49 119-67 73z"/><path d="m7437 7854c-13-13-7-44 8-44 43 0 17-135-37-191l-33-34-5 107c-5 103-18 146-38 123-10-12 0-240 10-250 16-17 61-6 90 21 62 58 91 173 61 234-17 34-41 48-56 34z"/><path d="m5438 7844c-10-3-18-12-18-20 0-12 22-13 143-8 78 4 144 8 146 10s1 7-3 12c-9 8-242 13-268 6z"/><path d="m7895 7830c-51-34-59-38-77-44-14-4-18-17-18-63 0-32-5-87-10-123-6-43-6-68 1-75 16-15 39 23 39 64 0 34 0 34 23 14 41-38 227-82 227-55 0 7-12 14-27 17-52 11-158 46-170 57-27 22-13 55 47 111 59 54 72 81 48 105-18 18-49 15-83-8zm55-18c0-4-22-30-50-57-52-52-60-53-35-5 21 42 85 88 85 62z"/><path d="m5309 7811c-17-14-30-49-55-147-18-71-30-132-27-136 11-19 35-5 49 27 12 31 17 33 38 25 40-15 118-17 123-2 3 7-3 12-14 12s-43 7-71 15c-67 20-67 36 3 105 55 54 67 84 43 108-18 18-63 15-89-7zm61-24c0-8-11-24-25-37l-25-23v24c0 27 17 49 37 49 7 0 13-6 13-13z"/><path d="m6952 7808c2-13 9-22 17-20 20 4 31-17 31-65 0-33-7-50-31-78-17-19-35-35-39-35-5 0-13 21-19 48-14 68-39 122-56 122-25 0-27-20-6-64 12-24 25-70 29-102 9-74 25-79 88-28 57 47 74 80 74 142 0 59-28 102-66 102-21 0-25-4-22-22z"/><path d="m8170 7819c-91-11-100-14-100-35 0-12 6-15 23-11 12 3 56 9 98 13l77 7-18-77c-10-42-22-101-25-131-7-51-6-55 14-55 16 0 21 6 21 29 0 16 11 72 25 126 13 54 22 102 19 106-3 5 51 9 120 9 115 0 159 9 120 24-22 9-285 5-374-5z"/><path d="m3816 7759c-9-22-19-73-22-112-6-60-4-75 10-86 24-20 30-8 27 53-1 33 5 76 18 114 25 74 25 72 2 72-13 0-24-13-35-41z"/><path d="m5562 7778c-14-19-46-202-39-222 13-34 31-9 43 61 6 39 17 87 24 107 17 52-1 87-28 54z"/><path d="m7149 7743c-5-14-7-33-4-41s-3-16-15-19c-25-7-26-33-2-39 9-3 25-23 34-45 21-49 38-43 31 10-5 39-5 40 28 43 46 4 51 28 5 28-36 0-36 0-36 45 0 52-24 63-41 18z"/><path d="m4240 7735c-5-14-10-33-10-40 0-9-15-15-47-17-36-2-49-7-51-20-3-15 4-18 47-18h50l3-52c3-52 28-84 28-35 0 64 11 86 46 93 44 8 43 20-1 28-32 6-34 9-32 43 2 44-19 56-33 18z"/><path d="m5985 7730c-15-25 9-33 84-26 87 7 121 14 121 27 0 12-197 11-205-1z"/><path d="m923 7714c-3-8 4-25 16-38 11-12 21-28 21-35s-23-37-52-67l-51-54-17 39c-20 44-82 96-105 87s-18-24 15-41c37-19 56-48 65-97 5-25 13-38 23-38 26 0 119 88 142 134 22 47 19 66-18 109-19 21-31 22-39 1z"/><path d="m1418 7714c-18-17-7-35 20-33 15 1 40 1 56 1l28-2-5-117c-3-65-8-128-12-140-5-16-3-25 9-29 9-4 19-4 22-1 6 6 20 108 30 210l6 68 101-1c128-1 123-2 110 11-6 6-67 15-135 20-67 5-145 11-173 15-27 3-53 2-57-2z"/><path d="m2860 7689c0-22 1-22 101-16 56 4 104 9 107 12 14 13-18 20-109 23-97 4-99 3-99-19z"/><path d="m4562 7694c3-17 11-19 83-15 44 2 82 5 84 7 12 11-17 18-90 22-75 4-81 3-77-14z"/><path d="m6475 7703c-45-5-64-18-49-33 12-12 184 11 187 25 2 11-72 15-138 8z"/><path d="m11220 7701c-45-9-60-18-60-37 0-18 6-18 77 1 31 8 81 15 110 15 54 0 71 13 31 24-29 7-112 6-158-3z"/><path d="m6110 7674c-41-8-81-16-88-19-21-8-3-25 26-25 40 0 155 35 160 48 4 14 1 14-98-4z"/><path d="m4617 7654c-13-13 5-24 38-24 64 0 57-29-20-85-32-23-54-46-53-55 8-37 208-29 208 9 0 4-35 6-77 3l-78-4 47 36c58 45 71 81 38 108-21 17-90 25-103 12z"/><path d="m6476 7631c-13-20 5-31 49-31 77 0 69-29-26-98-64-47-72-66-35-83 43-20 252 29 228 53-5 5-19 5-35-1-30-12-157-27-157-19 0 3 25 24 55 47 64 48 78 82 47 113-23 24-115 37-126 19z"/><path d="m11274 7629c-4-6-9-54-12-105-4-81-3-94 11-94 16 0 27 52 30 154 2 48-13 71-29 45z"/><path d="m7027 7623c-3-4-6-44-8-88-4-74-3-80 16-80 16 0 20 9 24 55 8 103 7 114-11 118-9 2-18-1-21-5z"/><path d="m2865 7610c-13-20 8-30 63-30l57-1-55-49c-41-37-52-52-43-61 14-14 167-13 194 1 37 20 19 27-58 22l-78-5 39 36c42 40 44 65 6 84-30 15-116 17-125 3z"/><path d="m3366 7608c-12-37-15-131-6-149 17-30 27-15 34 53 4 35 10 73 13 86 4 18 1 22-16 22-12 0-23-6-25-12z"/><path d="m3929 7583c-18-47-23-151-9-168 21-25 26-18 28 38 1 28 6 68 12 87 5 19 10 43 10 52 0 28-29 21-41-9z"/><path d="m5660 7590c-20-12-2-30 31-30 42 0 36-21-16-59-48-35-58-64-26-81 21-11 139-14 165-4 25 9 8 24-27 24-18 0-49 3-69 6l-38 7 45 42c48 45 52 53 33 77-15 18-79 30-98 18z"/><path d="m11367 7544c-19-19-5-34 31-34 38 0 62-14 62-36 0-6-16-32-35-57s-35-55-35-65c0-32 47-42 95-20 35 16 31 28-10 28-19 0-35 2-35 5s14 24 30 47c17 22 30 52 30 65 0 29-33 63-62 63-13 0-32 3-43 6s-24 2-28-2z"/><path d="m970 7468c0-8-21-29-46-46-47-34-53-55-16-60 13-2 25 4 32 17 19 36 30 23 30-33 0-34 5-58 14-65 20-17 23-7 27 99 4 92 3 95-18 98-14 2-23-2-23-10z"/><path d="m1768 7433c-41-28-43-59-2-49 28 7 28 5 11-79-12-56-15-60-42-60-31 0-46-22-24-36 19-12 58-11 119 2 60 13 66 29 10 29-46 0-46-6-9 121 10 36 19 74 19 83 0 24-39 19-82-11z"/><path d="m10786 7444c-20-52 6-102 39-74 12 10 15 9 15-6 0-42-15-49-108-49-94 0-122 11-122 46 0 23 48 49 90 49 19 0 30 5 30 14 0 23-11 25-64 15-116-21-138-121-34-150 23-6 79-9 125-7 102 4 118 17 126 101 5 55 4 59-19 68-38 14-71 11-78-7z"/><path d="m1215 7370c-3-5 0-18 6-28 16-25 5-63-27-102-31-36-25-50 11-26 34 22 65 74 65 108 0 39-39 74-55 48z"/><path d="m3535 7097c-8-13-29-79-47-146-17-67-36-120-41-118-5 1-26 44-46 95-26 65-41 92-53 92-32 0-28-20 24-127 83-168 101-165 148 26 17 68 37 136 46 152 24 47-2 69-31 26z"/><path d="m3831 7084c-56-71-89-270-62-371 13-47 55-103 78-103 11 0 8 8-10 30-64 76-61 256 6 390 17 36 34 68 35 73 9 19-29 4-47-19z"/><path d="m4760 7078c0-7 25-32 56-56 93-72 134-199 101-313-18-58-42-89-100-129-35-24-47-40-29-40 5 0 33 17 62 38 38 26 62 53 83 92 27 51 29 62 25 141-3 72-9 93-35 140-44 79-163 171-163 127z"/><path d="m5270 7029c-56-12-71-41-124-242-13-49-13-59-1-63 21-8 33 3 40 36l6 29 52-32c37-23 64-31 97-32 51 0 71 16 25 20-61 5-166 74-158 104 2 9 37 33 78 54 79 39 98 65 76 105-12 23-44 31-91 21zm60-42c0-15-24-39-56-55-30-15-49 17-28 47 18 24 84 31 84 8z"/><path d="m5455 7030c-17-27 9-33 115-26l107 7-23-68c-13-37-24-75-24-85 0-9-4-18-9-20-5-1-6-18-4-36 9-57 34-36 52 43 10 39 26 91 36 117l20 48h83c79 0 107 11 60 24-39 10-406 7-413-4z"/><path d="m3092 7013c3-14 12-17 36-15 44 5 82-21 82-54 0-19-20-47-70-98-38-40-70-78-70-85 0-9 22-11 88-6 106 8 132 12 132 25 0 11-50 15-115 11l-40-3 58 60c57 61 68 91 51 137-10 25-58 45-109 45-39 0-46-3-43-17z"/><path d="m4030 7018c0-6 9-22 21-34 16-17 19-30 14-53-7-31-78-111-99-111-6 0-21 23-33 50-23 52-41 67-70 56-14-6-13-10 10-34 34-35 49-78 42-114-10-43 20-36 92 22 95 77 124 158 76 213-18 19-53 23-53 5z"/><path d="m4555 7009c-4-6 1-16 11-23 21-16 16-60-17-135l-22-52-31 63c-34 68-58 90-78 70-9-9-7-17 9-34 26-29 42-60 57-112 9-30 18-42 34-44 18-3 27 7 52 59 43 91 56 163 36 195-17 25-40 31-51 13z"/><path d="m11496 6898c-62-125-100-178-115-163-13 13-31 131-31 203 0 53-18 78-41 55-13-13 14-231 33-271 22-45 59-41 102 12 41 49 136 231 136 259 0 44-32 7-84-95z"/><path d="m2753 6955c-30-21-38-71-20-125 9-25 18-96 22-157 6-87 10-113 21-113 16 0 16-5 14 123-1 97-1 97 25 97 17 0 39 12 61 34 44 44 47 95 8 131-32 29-97 34-131 10zm99-32c27-24 23-68-8-92-45-36-54-28-54 44 0 60 2 65 22 65 12 0 30-7 40-17z"/><path d="m923 6848c2-108-16-174-57-207-16-13-17-10-10 61 7 82-4 118-36 118-27 0-35-18-15-40 14-16 16-31 10-93-7-70-6-76 14-86 30-16 71 7 99 57 46 82 53 282 10 290-14 3-16-9-15-100z"/><path d="m3585 6920c-13-21 12-31 71-28 44 2 59 7 59 18 0 19-119 28-130 10z"/><path d="m4246 6915c-3-9-6-29-6-45 0-20-6-29-21-33-26-7-20-31 9-35 14-2 22-12 24-29 5-39 26-40 30-1 3 28 8 33 41 41 49 12 47 27-4 27h-40l3 42c2 33-1 43-13 46-9 1-19-4-23-13z"/><path d="m1455 6877c-30-23-11-32 64-29l67 4-12-124c-7-68-15-145-19-171-7-45-6-49 11-45 24 4 42 100 46 242l3 98 83-5c46-4 82-2 82 3 0 17-74 31-190 36-94 5-119 3-135-9z"/><path d="m2970 6856c0-8 6-16 13-19 19-7 41 8 33 22-10 16-46 14-46-3z"/><path d="m3575 6850c-13-21 8-30 71-30 48 0 64 3 64 14 0 8-7 17-16 20-25 10-112 7-119-4z"/><path d="m4067 6763c-4-3-7-37-7-75 0-52 3-68 14-68 9 0 18 21 25 63 6 35 11 69 11 75 0 13-32 16-43 5z"/><path d="m4617 6746c-7-19 1-26 30-26s30-23 1-42c-35-23-17-48 34-48 44 0 120 29 133 50s-5 24-34 7c-16-9-41-17-55-17-24 0-25 2-16 20 12 23 0 54-26 64-27 11-62 7-67-8z"/><path d="m973 6643c-15-3-23-12-23-25 0-16 5-19 25-16 34 7 31-8-11-54-46-51-42-72 15-76 46-3 101 13 101 31 0 6-19 7-52 3-57-8-57-13-1 57 27 34 29 50 7 71-16 16-21 17-61 9z"/><path d="m1695 6620c-11-19 6-30 46-30 58 0 61-22 9-75-61-62-52-77 47-73 50 2 78 7 81 16s-12 12-53 12h-57l31 35c43 50 41 89-6 114-27 14-90 15-98 1z"/><path d="m1277 6513c-4-4-4-22-1-40 4-22 1-41-10-58-20-30-20-35-2-35 20 0 66 57 66 81 0 42-32 73-53 52z"/><path d="m1143 6005c-40-17-53-61-50-165 1-41-2-110-7-152-7-66-6-78 6-78 11 0 21 39 42 159 15 88 26 170 24 183-3 20 1 23 37 26 48 3 104-24 122-59 19-36-4-52-82-57-49-3-65-8-65-19 0-13 13-15 75-11 64 3 79 7 101 29 32 33 25 67-22 108-54 48-123 62-181 36z"/><path d="m4143 5895c-33-23-89-121-117-207-46-135-33-245 31-269 43-16 63-6 27 14-33 17-54 59-54 106 0 84 78 270 131 315 19 16 29 32 25 41-7 19-16 19-43 0z"/><path d="m5500 5900c0-6 12-28 26-49 34-52 54-131 54-217 0-82-13-131-43-157-13-12-17-21-10-28 29-29 78 48 89 141 14 120-42 311-94 318-12 2-22-2-22-8z"/><path d="m5174 5835c-4-9-1-29 6-46 8-18 10-49 7-77-6-51-34-132-46-132-4 0-13 39-20 87-13 93-22 113-52 113-25 0-35-21-16-35 10-7 22-46 32-101 9-49 19-99 21-111 3-15 12-23 24-23 23 0 41 25 70 100 26 66 38 187 21 218-14 25-39 29-47 7z"/><path d="m6105 5840c-12-20 4-25 68-22 92 4 92 3 68-116-25-119-26-146-6-162 23-19 38-1 31 38-3 20 3 73 15 124 10 49 17 94 13 99-5 9 82 6 201-6 45-4 119 9 95 18-16 5-252 26-391 34-60 4-89 2-94-7z"/><path d="m5883 5795c-20-8-40-29-52-54-24-46-52-192-40-205 17-20 36 4 42 53 3 28 14 77 24 107 14 46 23 59 51 73 32 15 35 15 48-3 17-24 6-45-40-77-52-35-61-62-32-96 33-38 125-45 190-13 25 12 46 26 46 31 0 13-21 11-50-6-47-27-160-14-160 19 0 8 21 31 46 53 54 45 62 84 24 115-26 21-53 22-97 3z"/><path d="m4487 5793c-13-12-7-43 8-43 22 0 11-40-33-119l-35-64-26 78c-26 79-51 109-71 89-7-7-3-24 14-55 13-24 30-73 37-109 6-36 15-69 20-74 14-15 37 12 86 101 52 96 69 154 53 183-10 20-40 27-53 13z"/><path d="m4833 5709c-7-7-8-23-2-47 15-66 13-72-30-72-41 0-72-23-54-41 6-6 19-6 37 1 55 20 66 15 66-35 0-33 4-45 15-45s15 12 15 49c0 46 2 50 27 53 38 4 42 28 5 28-28 0-30 2-38 57-9 57-21 72-41 52z"/><path d="m3122 5538c-16-40-42-112-58-160-15-49-32-88-36-88-9 0-42 107-59 189-14 71-37 108-63 98-27-11-31-38-8-56 14-11 28-45 42-101 29-114 57-178 83-186 27-9 42 13 68 101 46 153 79 233 101 238 27 8 18 31-14 35-23 3-29-4-56-70z"/><path d="m5300 5591c0-13 9-20 30-24 41-9 40-41-2-85-32-33-33-34-13-49 24-17 105-12 161 12 44 18 37 37-9 24-17-5-50-9-71-9h-39l21 23c31 33 29 80-4 106-34 27-74 28-74 2z"/><path d="m4616 5491c-21-91-21-113 1-109 11 2 22 26 34 78 23 95 23 100 0 100-16 0-22-13-35-69z"/><path d="m442 5509c2-8 22-21 44-29 43-15 474-20 1034-10 157 3 300 1 318-3 26-7 32-6 32 7 0 26-80 29-455 20-198-5-457-7-575-6-196 3-243 7-364 28-31 6-38 4-34-7z"/><path d="m3271 5460c-22-13-5-38 31-45 52-9 243-1 241 10-2 6-51 13-110 16-60 3-117 11-129 17-11 6-26 7-33 2z"/><path d="m6290 5390c-179-15-1811-53-2098-49-73 0-136-1-139-4-30-31 89-33 686-17 201 6 589 15 861 20 381 8 778 25 948 40 1 0 2 5 2 10 0 11-122 11-260 0z"/><path d="m3293 5374c-11-29 29-40 137-36 162 7 174 32 16 32-66 0-117 4-121 10-9 15-25 12-32-6z"/><path d="m1375 5243c-28-7-55-33-55-52 0-24 29-61 47-61 15 0 15 12-1 51-9 20 9 28 85 36 45 4 64 2 84-11 22-14 24-20 14-39-7-12-33-45-60-73-51-55-66-98-55-159 10-53 36-46 36 9 0 61 12 88 63 144 78 84 84 122 21 148-32 13-136 17-179 7z"/><path d="m4783 5234c-3-8 1-23 10-32 14-13 20-14 40-3 37 20 72 11 72-19 0-18-16-37-60-72-68-55-76-71-43-89 27-15 208-26 208-13 0 5-37 15-82 23-46 7-84 14-86 16s24 30 57 62c34 32 61 67 61 76 0 10-11 29-25 42-20 21-34 25-85 25-46 0-62-4-67-16z"/><path d="m5183 5233c-12-2-33-15-48-29-23-21-26-31-22-67 2-23-5-84-15-135-11-51-18-96-15-99 17-16 34 13 50 88l19 84h81c63 1 90 5 115 20 88 53 31 147-87 144-31-1-66-4-78-6zm137-38c36-19 39-49 8-69-30-20-128-33-128-17 0 6-7 11-16 11-12 0-15 6-10 23 3 12 6 30 6 39 0 29 92 38 140 13z"/><path d="m710 5175c0-17 103-302 116-322 33-51 58-27 114 109 24 57 54 114 67 129 30 33 29 41-4 37-30-3-48-32-113-182-17-38-33-66-37-62s-28 71-53 149c-39 121-49 142-68 145-12 2-22 0-22-3z"/><path d="m1055 4950c-14-23 17-35 101-39 147-6 185 21 47 33-43 4-92 10-109 12-19 4-35 1-39-6z"/><path d="m1452 4748c3-24 17-32 36-20 18 12 4 42-20 42-14 0-19-6-16-22z"/><path d="m6830 4502c0-5 25-26 56-47 118-81 167-172 168-315 1-57-5-103-17-140-20-60-74-141-110-164-35-24-738-39-1822-40-836-1-942 1-1052 17-147 21-153 21-153 3 0-51 697-65 1940-42 927 18 986 20 1215 36 227 17 271 30 76 24l-165-6 33 38c19 21 46 63 60 93 23 51 26 68 26 176 0 109-2 125-26 176-31 65-85 128-145 170-41 28-84 38-84 21z"/><path d="m4463 4393c-71-76-127-285-104-387 12-53 44-106 57-93 4 4-1 25-11 47-42 93 7 319 87 403 21 22 38 44 38 49 0 18-43 6-67-19z"/><path d="m6121 4371c-18-12-6-45 14-37 33 12 12-117-30-181l-18-27-12 41c-22 75-116 188-151 181-27-5-28-27-1-37 32-12 75-64 103-126 28-59 30-87 8-121-12-18-14-28-6-36 18-18 38-2 90 76 67 100 90 205 56 254-16 24-31 27-53 13z"/><path d="m5082 4330c-60-9-67-13-59-34 5-12 13-13 39-5 57 16 247 14 306-4 42-13 52-13 52-3 0 42-191 67-338 46z"/><path d="m6407 4315c-4-8-3-16 1-18 15-8 285 12 295 22 8 8-30 11-140 11-123 0-152-3-156-15z"/><path d="m4740 4291c0-25 20-38 31-20 7 11 9 9 9-7 0-25-39-124-49-124-4 0-13 16-20 36-17 46-78 114-102 114-28 0-23-23 10-48 37-27 72-99 80-165 7-63 35-78 46-26 4 18 20 61 36 96 52 116 48 163-12 163-22 0-29-5-29-19z"/><path d="m4103 4284c-18-9-38-26-46-38-20-30-45-111-56-181-5-33-11-66-13-74-1-8 4-16 14-18 12-3 20 9 33 46 9 28 20 53 23 55 4 2 49-16 101-40 90-42 131-53 131-36 0 4-40 28-89 53l-89 45 46 24c47 25 82 70 82 106 0 12-9 33-21 48-24 31-66 34-116 10zm85-26c32-32 2-82-70-119-38-19-40-20-33-2 17 42 17 53 1 53-20 0-20 10 2 36 33 41 77 55 100 32z"/><path d="m5211 4271c-14-26-61-189-61-212 0-12 7-19 18-19 14 0 21 14 31 63 7 34 21 82 32 106 10 24 19 52 19 62 0 25-26 24-39 0z"/><path d="m6536 4263c-13-47-17-182-6-203 20-37 32-17 35 55 1 39 6 91 10 118 7 43 6 47-13 47-11 0-23-8-26-17z"/><path d="m5682 4258c-7-7-12-26-12-42 0-42-9-53-50-63-21-6-36-16-38-27-3-16 1-17 37-11l41 7v-39c0-64 12-113 26-113 11 0 14 19 14 80v79l63 3c81 4 80 22-1 26l-63 3 7 34c10 55 10 68-1 72-6 2-16-2-23-9z"/><path d="m5380 4083c-12-42-25-105-28-140-4-53-2-63 11-63 11 0 18 14 22 48 4 26 16 79 27 117 33 115 33 115 11 115-16 0-24-15-43-77z"/><path d="m6177 4123c-19-19-5-33 33-33 49 0 52-17 11-69-36-46-31-61 22-61 48 0 113 27 141 59 24 26 11 27-45 1-24-11-52-20-62-20-17 0-17 2-3 22 23 33 20 74-6 92-23 16-79 22-91 9z"/><path d="m6683 4103c-7-2-13-11-13-19 0-15 9-17 48-14 34 2 39-27 8-59-33-34-33-48-1-63 31-14 93 2 120 32 25 28 11 38-24 17-16-9-37-17-46-17-15 0-15 2-1 22 23 33 20 74-6 92-22 16-60 20-85 9z"/><path d="m4845 4066c-22-33-32-160-15-181 22-27 30-16 30 43 1 31 7 75 15 97 18 50 18 52 0 59-9 3-21-4-30-18z"/><path d="m3162 3968c-10-29-31-89-46-133-14-44-35-93-46-110l-19-29-17 39c-9 22-27 90-39 150-19 96-25 110-44 113-26 4-26-3 0-115 40-168 62-213 104-213 36 0 56 33 107 178 57 160 58 165 36 170-12 2-21-11-36-50z"/><path d="m3311 3901c-8-5-11-16-8-25 5-13 22-16 79-16 97 0 208 11 208 20 0 5-53 11-117 15-65 3-125 8-133 11-8 2-21 0-29-5z"/><path d="m7521 3866c-16-19 10-39 41-31 12 3 61 9 107 13 53 4 86 12 89 20 6 18-221 17-237-2z"/><path d="m3393 3800c-13-5-23-14-23-21 0-8 31-9 113-4 111 7 126 10 115 21-11 10-183 14-205 4z"/><path d="m7586 3771c-15-24 9-31 104-31 94 0 136 11 87 23-54 14-184 19-191 8z"/><path d="m5505 3618c-21-19-33-53-70-201-25-98-45-187-45-198 0-29 29-23 35 9 5 24 45 178 80 312 22 81 82 91 153 25 50-46 36-60-61-60-74-1-102-9-92-26 8-12 147-12 179 1 35 13 50 44 35 72-41 77-159 113-214 66z"/><path d="m5052 3618c-33-16-26-52 11-56 18-2 27 1 27 11 0 17 41 30 53 18 18-18-7-54-84-117-113-94-107-108 45-96 57 4 91 12 94 20 3 9-17 12-75 12l-78 1 45 37c79 65 100 92 100 126 0 18-5 37-12 44-15 15-95 15-126 0z"/><path d="m7405 2790c-8-13 3-30 20-30 22 0 74-50 95-90 49-97 48-232-4-345l-24-53-238-6c-132-4-403-13-604-21-370-15-758-27-1490-45-379-10-406-9-418 7-70 96-1 396 118 512 45 43 48 51 22 51-50 0-128-108-168-234-33-104-44-254-21-307l15-36-142-6c-77-4-237-10-354-13l-214-7 31 61c36 71 38 82 14 82-12 0-28-22-50-70l-31-70-79-1c-92-1-128-9-128-29 0-10 9-14 25-13 68 5 540 23 730 29 205 6 217 5 255-15 41-22 81-27 103-12 9 5 0 10-28 14-24 3-47 10-53 16-8 8 15 11 81 11 260 0 1297 31 1857 56 193 8 436 14 540 12 176-3 188-4 158-18-18-8-33-18-33-22 0-17 49-7 84 17 32 22 48 25 121 25 85 0 115 5 115 21 0 5-40 9-89 9h-89l27 63c23 55 26 75 26 177 0 100-3 121-23 162-40 81-135 153-157 118z"/><path d="m3880 2589c-14-6-40-24-57-42-38-36-45-88-15-120 16-19 16-20-18-46-92-70-103-104-35-109 26-2 55 5 85 20 44 23 45 24 45 72 0 45 3 51 50 92 40 34 48 45 38 55-7 7-13 22-13 34 0 41-36 61-80 44zm35-49c-4-12-2-27 4-34 9-11 3-21-28-45-39-31-40-31-54-11-19 28-11 55 25 85 37 31 62 33 53 5zm-66-201c-9-17-76-46-85-36-2 2 14 21 37 42 31 28 43 34 50 24 4-7 3-21-2-30z"/><path d="m4431 2484c-50-58-91-112-91-120 0-30 31-12 76 46 26 33 49 59 51 57 1-2-8-31-22-65-30-73-36-127-16-127 8 0 19 18 26 40 6 22 31 88 54 147 39 99 44 128 22 128-5 0-49-47-100-106z"/><path d="m5513 2573c-3-10-18-48-34-85-31-76-25-94 31-86 35 5 34 7 15-39-8-19-15-46-15-60 0-20 4-24 22-21 17 2 23 10 24 33 3 45 31 103 53 110 24 7 35 37 26 66-10 31-47 21-64-18-11-26-21-33-42-33h-28l29 66c17 36 27 70 24 75-9 15-34 10-41-8z"/><path d="m4188 2569c-21-12-24-49-4-49 7 0 19 7 26 15 10 12 16 13 26 4 21-18 17-54-11-87-32-38-31-42 5-74 44-39 42-80-7-103-35-17-37-17-50 1-12 16-15 17-23 4-11-17 5-50 24-50 107 0 162 86 100 159-26 31-26 31-5 57 53 67-11 164-81 123z"/><path d="m4993 2571c-42-11-63-28-63-52 0-26 36-25 50 2 9 17 19 20 58 17 43-3 47-5 50-31 3-24-9-40-80-108l-83-80 25-21c22-18 34-20 90-15 64 6 130 25 130 38 0 3-44 4-97 2l-98-4 67 63c71 67 88 92 88 131 0 48-65 76-137 58z"/><path d="m6857 2563c-15-15-6-34 16-33 38 3 44 1 50-20 3-13-6-33-25-57-32-41-32-41 28-80 19-12 19-13 0-27-15-12-23-13-33-4-11 9-19 7-35-9-42-42 6-56 80-23 33 15 42 24 42 45 0 14-10 34-24 46-24 21-24 21-5 59 22 42 15 81-20 99-22 12-64 15-74 4z"/><path d="m7080 2527c-38-19-51-54-44-117 4-30 13-63 22-72 57-66 178 55 142 142-19 46-76 69-120 47zm80-46c17-34 11-69-18-103-22-24-33-29-48-23-17 7-18 8-1 12 20 5 22 19 4 26-9 3-12 16-9 36 3 19 0 31-7 31-9 0-9 5-1 20 14 27 65 27 80 1z"/><path d="m7253 2513c-18-7-16-42 2-49 10-4 13-13 9-26-11-35 15-77 56-89 55-17 106 3 128 47 15 32 15 36-4 62-11 15-36 35-55 44-32 17-108 23-136 11zm145-56c29-27 25-58-11-75-56-27-93 9-74 71 11 34 15 37 37 32 14-4 35-16 48-28z"/><path d="m6334 2475c-7-19-14-41-14-50 0-11-11-15-45-15-38 0-45-3-45-20s7-20 40-20h40v-46c0-32 4-44 13-42 6 3 13 15 15 29 7 63 10 68 57 75 55 8 55 30 1 28-39-1-43 7-21 46 20 35 18 50-6 50-13 0-25-11-35-35z"/><path d="m6608 2457c-32-29-58-58-58-64 0-20 20-26 37-11 15 12 16 10 10-12-20-71-20-70-1-70 15 0 27 21 52 88 18 48 34 93 35 101 4 29-20 19-75-32z"/><path d="m5722 2457c-12-13-22-31-22-41 0-9-7-31-16-47-8-17-14-48-12-72 2-34 8-44 31-55 24-12 32-11 64 5 52 26 92 79 99 135 6 41 4 49-19 72-35 35-94 36-125 3zm96-19c15-15 16-62 1-91-20-39-62-77-86-77-19 0-23 5-23 29 0 44 9 59 31 54 21-6 27 12 7 20-9 4-5 12 12 25 20 17 22 22 11 36-12 14-10 16 11 16 13 0 29-5 36-12z"/><path d="m5957 2458c-19-15-47-78-47-106 0-31 38-71 73-77 68-13 157 48 157 107 0 25-28 57-67 77-29 15-95 14-116-1zm126-47c14-14 18-27 13-45-13-53-104-80-133-40-16 22-9 63 13 80 7 6 14 17 14 24 0 19 69 5 93-19z"/><path d="m5313 2439c-6-6-8-20-6-30 8-28 38-20 38 10 0 27-15 37-32 20z"/><path d="m6726 2412c-9-14 12-35 28-29 23 9 20 37-3 37-11 0-22-4-25-8z"/><path d="m4582 2398c-6-8-7-19-2-28 7-11 13-12 35-2 15 7 25 18 23 25-6 17-43 20-56 5z"/><path d="m7890 2342c-51-17-45-53 9-52 20 1 53-2 74-6 46-8 50 9 7 31-47 24-74 33-90 27z"/><path d="m3396 2281c-15-24 9-31 114-31 99 0 137 8 110 25-20 13-217 18-224 6z"/><path d="m7906 2179c-14-11-26-27-26-34 0-25 21-28 43-7 16 15 27 18 37 12 19-12 70-13 70-1 0 11-66 51-84 51-7 0-25-9-40-21z"/><path d="m3360 2165c0-22 39-28 145-23 84 3 117 10 104 22-2 2-59 6-126 10-105 5-123 4-123-9z"/><path d="m5622 2008c-16-21-54-159-48-175 6-15 41-15 76 1 13 5 15-1 12-34-3-30 0-41 13-46 24-9 52 20 37 39-13 15-5 52 20 103 30 58-9 77-43 20-18-30-55-53-68-41-2 3 7 31 21 63 13 31 23 63 20 70-5 16-27 15-40 0z"/><path d="m5352 1999c-50-8-112-33-112-45 0-20 46-88 75-110 28-21 33-29 24-40-15-19-55-18-63 1-8 23-46 19-46-4 0-50 69-67 128-31 44 27 43 61-2 89-33 21-66 60-66 80 0 13 86 32 187 39 48 4 88 12 88 17 0 13-144 16-213 4z"/><path d="m5825 1979c-32-15-45-43-52-109-7-73 4-90 58-90 31 0 47 8 79 36 27 25 40 31 40 21 0-26 49-57 90-57 72 0 151 83 136 143-14 56-109 76-150 32-28-30-42-32-49-5-9 35-103 53-152 29zm99-25c29-11 18-52-27-99-42-44-69-55-82-35-4 6 5 10 19 10 31 0 33 11 6 28-25 15-26 58-3 84 16 18 57 24 87 12zm205-30c20-18 5-60-31-87-30-23-86-27-97-8-12 19 0 62 18 69 9 3 24 16 35 29 19 25 47 24 75-3z"/><path d="m4666 1961c-30-6-56-35-43-47 4-4 18-2 32 4 40 18 124 15 132-4 8-20-31-59-94-93-26-14-46-30-43-36 7-15 196-13 212 3 10 9-3 12-61 12h-74l33 23c18 12 42 34 53 49 47 63-36 113-147 89z"/><path d="m5005 1871c-9-16 3-31 26-31 14 0 19 6 17 17-4 20-33 29-43 14z"/><path d="m5117 1064c-4-4-7-14-7-22 0-11 8-13 34-8 37 7 59-9 27-19-11-3-25-13-32-21-10-13-6-20 24-45 21-17 37-37 37-45 0-19-39-33-74-27-23 5-27 3-24-13 5-27 88-26 118 1 25 22 21 66-7 97-15 17-15 20 6 39 20 19 21 23 8 42-10 16-26 23-59 25-24 2-47 0-51-4z"/><path d="m4035 915c-27-18-76-43-108-56-63-24-75-35-58-52 8-8 26-4 66 16 31 15 57 27 60 27 2 0-7-19-20-42-27-47-32-88-12-88 6 0 20 19 30 43 9 24 42 73 72 109s55 69 55 72c0 15-39 2-85-29z"/><path d="m4248 929c-10-5-18-17-18-24 0-17 35-20 45-5 7 12 55 14 55 3 0-5-16-19-36-32-53-37-44-63 25-74 63-10 57-25-15-35-37-5-50-12-52-26-4-17 1-18 41-13 59 8 127 36 127 52 0 19-24 35-71 49l-42 13 32 22c25 18 31 29 29 50-3 24-7 26-53 28-27 2-58-2-67-8z"/><path d="m4945 869c-35-37-115-88-115-74 0 3 9 24 20 46 12 22 18 44 15 49-13 21-33 8-63-38-27-42-95-102-115-102-3 0-4 14 0 31 5 28 4 30-18 27-19-2-25-10-27-36-7-66 31-78 98-33 34 22 51 28 76 24 23-4 44 1 69 16 20 11 38 21 40 21s5-15 7-32c2-22 9-34 21-36 15-3 18 0 12 17-4 13 4 43 20 80 24 54 27 81 7 81-4 0-25-18-47-41z"/><path d="m3372 866c-31-29-35-38-26-53 14-24 64-30 64-9 0 9-4 16-10 16-18 0-10 19 15 36 24 16 27 15 66-11 51-36 131-45 178-20 26 13 30 19 21 30-10 12-17 12-45-2-42-20-94-11-134 22-42 36-83 33-129-9z"/><path d="m4075 738c-34-40-51-76-41-86 9-8 96 87 96 105 0 23-28 14-55-19z"/><path d="m3430 742c-22-10-36-26-38-39-4-29 23-31 37-4 15 27 53 31 98 10 61-29 193-22 193 10 0 5-28 7-62 4-49-4-75 0-116 16-64 25-68 26-112 3z"/></g><g fill="#44b" transform="matrix(.08161748 0 0 -.08161748 806.73409051453 807.92904785665)"><path d="m750 2973c-57-10-88-25-119-57-40-41-55-100-46-179 6-45 12-61 32-77 32-25 35-25 64-1 22 17 24 26 21 89-4 105 24 120 164 87 33-7 119-19 190-25 88-8 134-16 144-26 32-32 8-420-28-456-18-18-126-28-289-28-185 0-206-4-250-52-55-58-58-82-55-363 1-145 7-274 13-293 11-34 51-62 89-62 12 0 35 14 52 31l31 30-6 238c-3 130-3 249 0 264l5 27h112c234 1 363 26 423 82 58 54 98 260 91 463-4 122-7 138-34 191-40 81-79 100-217 108-174 10-361 14-387 9z"/><path d="m3660 2971c-42-9-83-34-103-65-39-59-50-127-54-343-5-206-5-212 18-252 28-50 78-86 143-102 48-12 257-8 370 7l49 7-7-104c-4-57-11-189-16-294-9-177-9-192 8-214 35-47 100-46 136 2 22 29 27 86 42 452 7 191 0 235-44 283-45 48-92 56-241 38-146-18-229-20-265-6l-26 10v162c0 156 8 230 27 249 5 5 99 6 210 2l201-6 5-50c3-39 11-56 31-74 34-29 48-29 80 0 24 20 26 30 28 113 4 147-23 169-218 179-242 11-340 13-374 6z"/><path d="m1565 2945c-14-13-25-32-25-42s-1-297-3-638c-2-677-3-662 55-694 33-19 73-7 101 31 18 24 20 51 29 300 5 150 10 278 12 283 2 6 37 8 97 3 52-3 135-7 186-7 154-2 161-10 143-176-21-189-27-310-18-343 12-45 45-72 86-72 71 0 102 46 102 151 0 33 7 118 16 187 24 190 9 280-58 349-50 52-112 67-263 65-71-1-164-6-205-11-41-4-78-7-81-5-4 2-10 108-13 236-9 286-17 352-47 384-31 33-82 32-114-1z"/><path d="m2542 2944c-55-38-64-109-53-419 6-186 9-215 28-250 50-95 116-125 302-135 75-4 171-5 215-1l78 7-4-178c-2-97-7-181-11-184-4-4-42 1-85 11-104 26-285 27-363 3-106-33-149-107-99-170 26-34 68-41 132-21 74 23 202 20 308-7 182-47 274 5 301 168 12 77 27 831 19 994-7 152-20 181-86 186-88 7-103-51-104-401v-219l-201 4c-197 3-201 3-220 27-18 21-19 42-19 283v260l-29 29c-33 33-74 38-109 13z"/><path d="m2374 1391c-55-34-79-78-79-147 0-51 4-66 27-96 35-45 102-73 153-64 78 15 146 111 131 188-20 108-145 172-232 119z"/><path d="m1853 999c-39-11-66-56-61-101 6-59 69-64 76-6 4 30 34 38 145 38h67v-110c0-135-1-136-132-126-85 6-89 6-113-18-24-25-25-28-25-179 0-162 4-177 47-177 35 0 43 29 43 159v121h73c85 0 141 14 168 41 17 17 19 34 19 169 0 147-1 152-25 175-23 24-30 25-137 24-62 0-128-5-145-10z"/><path d="m2985 1000c-91-16-93-18-104-58-15-51-14-537 0-564 19-36 69-48 204-48 121 0 127 1 151 25l24 24-2 292-3 292-26 19c-31 23-161 33-244 18zm169-86c14-5 16-37 16-250v-245l-102 3-103 3v240 240l40 6c57 9 131 10 149 3z"/><path d="m2351 971c-24-24-29-73-37-372-6-232-6-237 15-258 23-23 29-25 51-11 12 7 16 40 20 150l5 141 35-23c19-13 59-55 88-93 30-39 78-96 108-128 47-51 56-57 74-47 29 16 25 42-15 92-19 24-62 78-95 121-61 77-61 77-33 77 15 0 46 9 69 19 56 26 67 57 62 179-6 156-27 172-220 172-93 0-111-3-127-19zm257-74c16-13 17-168 0-185-7-7-41-12-84-12-40 0-84-4-98-10l-26-10v120 119l98-6c53-3 103-10 110-16z"/></g></svg>