<svg xmlns="http://www.w3.org/2000/svg" xml:lang="en" height="124.71573684210526pt" width="148.7pt" viewBox="-1.0 -110.21573684210526 148.7 124.71573684210526"><path d="M 0.0,-0.0 L 68.625,-0.0 M 75.375,-0.0 L 144.0,-0.0" style="stroke:black;fill:none;stroke-width:2.0;stroke-dasharray:-;stroke-linecap:round;stroke-linejoin:round;" /><path d="M 68.625,-13.5 L 68.625,13.5" style="stroke:black;fill:none;stroke-width:2.0;stroke-dasharray:-;stroke-linecap:round;stroke-linejoin:round;" /><path d="M 75.375,-6.75 L 75.375,6.75" style="stroke:black;fill:none;stroke-width:2.0;stroke-dasharray:-;stroke-linecap:round;stroke-linejoin:round;" /><path d="M 144.0,-0.0 L 144.0,-25.2 L 144.0,-50.4" style="stroke:black;fill:none;stroke-width:2.0;stroke-dasharray:-;stroke-linecap:round;stroke-linejoin:round;" /><path d="M 144.0,-50.4 L 126.0,-50.4 L 126.0,-41.4 L 90.0,-41.400000000000006 L 90.0,-59.400000000000006 L 126.0,-59.4 L 126.0,-50.4 M 90.0,-50.400000000000006 L 72.0,-50.400000000000006" style="stroke:black;fill:none;stroke-width:2.0;stroke-dasharray:-;stroke-linecap:round;stroke-linejoin:round;" /><path d="M 72.0,-50.400000000000006 L 54.0,-50.400000000000006 L 54.0,-41.400000000000006 L 18.0,-41.40000000000001 L 18.0,-59.40000000000001 L 54.0,-59.400000000000006 L 54.0,-50.400000000000006 M 18.0,-50.40000000000001 L 0.0,-50.40000000000001" style="stroke:black;fill:none;stroke-width:2.0;stroke-dasharray:-;stroke-linecap:round;stroke-linejoin:round;" /><path d="M 0.0,-50.40000000000001 L 1.5430549669256655e-15,-25.200000000000006 L 3.086109933851331e-15,-0.0" style="stroke:black;fill:none;stroke-width:2.0;stroke-dasharray:-;stroke-linecap:round;stroke-linejoin:round;" /><path d="M 144.0,-50.4 L 144.0,-69.34736842105262 L 144.0,-88.29473684210527" style="stroke:black;fill:none;stroke-width:2.0;stroke-dasharray:-;stroke-linecap:round;stroke-linejoin:round;" /><path d="M 144.0,-88.29473684210527 L 132.0,-88.29473684210527 L 120.0,-88.29473684210527" style="stroke:black;fill:none;stroke-width:2.0;stroke-dasharray:-;stroke-linecap:round;stroke-linejoin:round;" /><path d="M 120.0,-88.29473684210527 L 108.0,-88.29473684210527 L 96.00000000000001,-88.29473684210527" style="stroke:black;fill:none;stroke-width:2.0;stroke-dasharray:-;stroke-linecap:round;stroke-linejoin:round;" /><path d="M 96.00000000000001,-88.29473684210527 L 84.0,-88.29473684210527 L 72.00000000000001,-88.29473684210527" style="stroke:black;fill:none;stroke-width:2.0;stroke-dasharray:-;stroke-linecap:round;stroke-linejoin:round;" /><path d="M 72.00000000000001,-88.29473684210527 L 72.00000000000001,-69.34736842105264 L 72.0,-50.400000000000006" style="stroke:black;fill:none;stroke-width:2.0;stroke-dasharray:-;stroke-linecap:round;stroke-linejoin:round;" /><circle cx="144.0" cy="-50.4" r="2.6999999999999997" style="stroke:black;fill:black;stroke-width:2.0;stroke-dasharray:-;" /><circle cx="72.0" cy="-50.400000000000006" r="2.6999999999999997" style="stroke:black;fill:black;stroke-width:2.0;stroke-dasharray:-;" /><g><g><g><path d="M 104.965 -31.026 C 104.965 -32.145 104.52 -32.954 103.631 -33.453 C 102.741 -33.951 101.484 -34.2 99.859 -34.2 L 94.454 -34.2 L 94.316 -33.51 C 94.776 -33.51 95.136 -33.479 95.397 -33.418 C 95.657 -33.357 95.845 -33.261 95.96 -33.131 C 96.075 -33 96.133 -32.828 96.133 -32.613 C 96.133 -32.398 96.102 -32.13 96.041 -31.808 L 94.017 -21.941 C 93.925 -21.466 93.825 -21.082 93.718 -20.791 C 93.61 -20.5 93.469 -20.281 93.292 -20.136 C 93.116 -19.99 92.894 -19.894 92.625 -19.848 C 92.357 -19.802 92.008 -19.779 91.579 -19.779 L 91.441 -19.089 L 97.789 -19.089 L 97.904 -19.779 C 97.413 -19.779 97.022 -19.802 96.731 -19.848 C 96.439 -19.894 96.229 -19.994 96.098 -20.147 C 95.968 -20.3 95.907 -20.519 95.914 -20.803 C 95.922 -21.086 95.972 -21.466 96.064 -21.941 L 96.915 -26.035 L 97.398 -26.035 C 97.812 -26.035 98.118 -25.985 98.318 -25.886 C 98.517 -25.786 98.701 -25.575 98.87 -25.253 C 99.054 -24.9 99.226 -24.559 99.387 -24.23 C 99.548 -23.9 99.736 -23.513 99.951 -23.068 C 100.165 -22.623 100.418 -22.087 100.71 -21.458 C 101.001 -20.829 101.361 -20.04 101.791 -19.089 L 105.287 -19.089 L 105.425 -19.779 C 104.888 -19.779 104.466 -19.86 104.16 -20.021 C 103.853 -20.182 103.569 -20.492 103.309 -20.952 C 102.833 -21.841 102.442 -22.593 102.136 -23.206 C 101.829 -23.819 101.561 -24.329 101.331 -24.736 C 101.101 -25.142 100.898 -25.464 100.721 -25.702 C 100.545 -25.939 100.349 -26.127 100.135 -26.265 L 100.135 -26.38 C 100.641 -26.472 101.174 -26.614 101.733 -26.806 C 102.293 -26.997 102.814 -27.269 103.297 -27.622 C 103.78 -27.975 104.179 -28.427 104.493 -28.979 C 104.808 -29.531 104.965 -30.213 104.965 -31.026 Z M 97.076 -26.886 L 98.364 -33.234 C 98.624 -33.265 98.839 -33.284 99.008 -33.292 C 99.176 -33.299 99.414 -33.303 99.721 -33.303 C 100.288 -33.303 100.763 -33.238 101.147 -33.108 C 101.53 -32.977 101.837 -32.805 102.067 -32.59 C 102.297 -32.375 102.458 -32.122 102.55 -31.831 C 102.642 -31.54 102.688 -31.241 102.688 -30.934 C 102.688 -30.198 102.561 -29.577 102.308 -29.071 C 102.055 -28.565 101.71 -28.151 101.273 -27.829 C 100.836 -27.507 100.319 -27.273 99.721 -27.128 C 99.123 -26.982 98.479 -26.894 97.789 -26.863 Z " fill="black" /><path d="M 113.438 -14.259 L 113.953 -16.835 L 113.486 -16.835 C 113.39 -16.599 113.301 -16.398 113.221 -16.231 C 113.14 -16.065 113.049 -15.928 112.947 -15.821 C 112.845 -15.713 112.724 -15.638 112.585 -15.595 C 112.445 -15.552 112.268 -15.531 112.053 -15.531 L 109.815 -15.531 L 108.688 -15.483 L 108.688 -15.563 L 110.814 -17.576 C 111.243 -18.005 111.621 -18.402 111.949 -18.767 C 112.276 -19.132 112.55 -19.483 112.77 -19.822 C 112.99 -20.16 113.156 -20.492 113.269 -20.82 C 113.382 -21.147 113.438 -21.488 113.438 -21.842 C 113.438 -22.261 113.363 -22.642 113.213 -22.985 C 113.062 -23.329 112.85 -23.621 112.577 -23.863 C 112.303 -24.104 111.976 -24.292 111.594 -24.426 C 111.213 -24.56 110.798 -24.627 110.347 -24.627 C 109.563 -24.627 108.903 -24.413 108.366 -23.983 C 107.83 -23.554 107.438 -22.948 107.191 -22.164 L 107.578 -22.003 C 107.878 -22.604 108.213 -23.017 108.584 -23.243 C 108.954 -23.468 109.402 -23.581 109.928 -23.581 C 110.551 -23.581 111.042 -23.404 111.401 -23.05 C 111.761 -22.695 111.941 -22.212 111.941 -21.601 C 111.941 -21.182 111.89 -20.796 111.788 -20.441 C 111.686 -20.087 111.535 -19.744 111.337 -19.411 C 111.138 -19.078 110.889 -18.737 110.588 -18.389 C 110.288 -18.04 109.939 -17.661 109.542 -17.254 L 107.095 -14.806 L 107.095 -14.259 Z " fill="black" /></g></g></g><g><g><g><path d="M 34.315 -31.026 C 34.315 -32.145 33.87 -32.954 32.981 -33.453 C 32.091 -33.951 30.834 -34.2 29.209 -34.2 L 23.804 -34.2 L 23.666 -33.51 C 24.126 -33.51 24.486 -33.479 24.747 -33.418 C 25.007 -33.357 25.195 -33.261 25.31 -33.131 C 25.425 -33 25.483 -32.828 25.483 -32.613 C 25.483 -32.398 25.452 -32.13 25.391 -31.808 L 23.367 -21.941 C 23.275 -21.466 23.175 -21.082 23.068 -20.791 C 22.96 -20.5 22.819 -20.281 22.642 -20.136 C 22.466 -19.99 22.244 -19.894 21.975 -19.848 C 21.707 -19.802 21.358 -19.779 20.929 -19.779 L 20.791 -19.089 L 27.139 -19.089 L 27.254 -19.779 C 26.763 -19.779 26.372 -19.802 26.081 -19.848 C 25.789 -19.894 25.579 -19.994 25.448 -20.147 C 25.318 -20.3 25.257 -20.519 25.264 -20.803 C 25.272 -21.086 25.322 -21.466 25.414 -21.941 L 26.265 -26.035 L 26.748 -26.035 C 27.162 -26.035 27.468 -25.985 27.668 -25.886 C 27.867 -25.786 28.051 -25.575 28.22 -25.253 C 28.404 -24.9 28.576 -24.559 28.737 -24.23 C 28.898 -23.9 29.086 -23.513 29.301 -23.068 C 29.515 -22.623 29.768 -22.087 30.06 -21.458 C 30.351 -20.829 30.711 -20.04 31.141 -19.089 L 34.637 -19.089 L 34.775 -19.779 C 34.238 -19.779 33.816 -19.86 33.51 -20.021 C 33.203 -20.182 32.919 -20.492 32.659 -20.952 C 32.183 -21.841 31.792 -22.593 31.486 -23.206 C 31.179 -23.819 30.911 -24.329 30.681 -24.736 C 30.451 -25.142 30.248 -25.464 30.071 -25.702 C 29.895 -25.939 29.699 -26.127 29.485 -26.265 L 29.485 -26.38 C 29.991 -26.472 30.524 -26.614 31.083 -26.806 C 31.643 -26.997 32.164 -27.269 32.647 -27.622 C 33.13 -27.975 33.529 -28.427 33.843 -28.979 C 34.158 -29.531 34.315 -30.213 34.315 -31.026 Z M 26.426 -26.886 L 27.714 -33.234 C 27.974 -33.265 28.189 -33.284 28.358 -33.292 C 28.526 -33.299 28.764 -33.303 29.071 -33.303 C 29.638 -33.303 30.113 -33.238 30.497 -33.108 C 30.88 -32.977 31.187 -32.805 31.417 -32.59 C 31.647 -32.375 31.808 -32.122 31.9 -31.831 C 31.992 -31.54 32.038 -31.241 32.038 -30.934 C 32.038 -30.198 31.911 -29.577 31.658 -29.071 C 31.405 -28.565 31.06 -28.151 30.623 -27.829 C 30.186 -27.507 29.669 -27.273 29.071 -27.128 C 28.473 -26.982 27.829 -26.894 27.139 -26.863 Z " fill="black" /><path d="M 37.121 -14.259 L 42.691 -14.259 L 42.691 -14.71 C 41.951 -14.71 41.419 -14.79 41.097 -14.951 C 40.775 -15.112 40.614 -15.391 40.614 -15.789 L 40.614 -24.547 L 40.148 -24.547 L 37.024 -23.661 L 37.024 -23.13 C 37.153 -23.173 37.295 -23.211 37.451 -23.243 C 37.606 -23.275 37.759 -23.302 37.91 -23.323 C 38.06 -23.345 38.205 -23.361 38.344 -23.372 C 38.484 -23.382 38.591 -23.388 38.666 -23.388 C 38.87 -23.388 39.01 -23.326 39.085 -23.203 C 39.16 -23.079 39.198 -22.878 39.198 -22.599 L 39.198 -15.789 C 39.198 -15.381 39.042 -15.099 38.731 -14.943 C 38.419 -14.788 37.883 -14.71 37.121 -14.71 Z " fill="black" /></g></g></g><circle cx="120.0" cy="-88.29473684210527" r="2.6999999999999997" style="stroke:black;fill:black;stroke-width:2.0;stroke-dasharray:-;" /><circle cx="96.00000000000001" cy="-88.29473684210527" r="2.6999999999999997" style="stroke:black;fill:black;stroke-width:2.0;stroke-dasharray:-;" /><g><g><g><path d="M 104.268 -93.875 L 104.268 -94.565 C 103.839 -94.565 103.494 -94.58 103.233 -94.611 C 102.972 -94.641 102.754 -94.703 102.578 -94.795 C 102.401 -94.887 102.248 -95.013 102.118 -95.174 C 101.987 -95.335 101.838 -95.554 101.669 -95.83 C 101.163 -96.673 100.726 -97.409 100.358 -98.038 C 99.99 -98.666 99.664 -99.211 99.381 -99.671 C 99.097 -100.131 98.836 -100.518 98.599 -100.832 C 98.361 -101.147 98.112 -101.411 97.851 -101.626 L 97.851 -101.741 C 98.127 -101.971 98.353 -102.212 98.53 -102.465 C 98.706 -102.718 98.859 -102.983 98.99 -103.259 C 99.12 -103.535 99.227 -103.83 99.312 -104.144 C 99.396 -104.459 99.484 -104.792 99.576 -105.145 C 99.791 -105.973 100.017 -106.532 100.255 -106.824 C 100.492 -107.115 100.749 -107.261 101.025 -107.261 C 101.178 -107.261 101.313 -107.23 101.428 -107.169 C 101.543 -107.107 101.658 -107.035 101.773 -106.95 C 101.888 -106.866 102.01 -106.793 102.141 -106.732 C 102.271 -106.67 102.428 -106.64 102.612 -106.64 C 102.995 -106.64 103.279 -106.759 103.463 -106.996 C 103.647 -107.234 103.739 -107.506 103.739 -107.813 C 103.739 -108.303 103.567 -108.66 103.222 -108.882 C 102.877 -109.105 102.466 -109.216 101.991 -109.216 C 101.424 -109.216 100.948 -109.089 100.565 -108.836 C 100.182 -108.583 99.86 -108.257 99.599 -107.859 C 99.338 -107.46 99.128 -107.019 98.967 -106.536 C 98.806 -106.053 98.664 -105.589 98.541 -105.145 C 98.265 -104.071 97.958 -103.27 97.621 -102.741 C 97.284 -102.212 96.77 -101.948 96.08 -101.948 L 93.987 -101.948 L 93.987 -105.95 C 93.987 -106.394 94.002 -106.766 94.033 -107.065 C 94.064 -107.364 94.148 -107.606 94.286 -107.79 C 94.424 -107.974 94.635 -108.104 94.919 -108.181 C 95.202 -108.257 95.597 -108.296 96.103 -108.296 L 96.103 -108.986 L 89.801 -108.986 L 89.801 -108.296 C 90.307 -108.296 90.698 -108.261 90.974 -108.192 C 91.25 -108.123 91.453 -108.001 91.584 -107.824 C 91.714 -107.648 91.791 -107.41 91.814 -107.111 C 91.837 -106.812 91.848 -106.425 91.848 -105.95 L 91.848 -96.888 C 91.848 -96.412 91.833 -96.025 91.802 -95.726 C 91.771 -95.427 91.691 -95.193 91.561 -95.025 C 91.43 -94.856 91.227 -94.737 90.951 -94.668 C 90.675 -94.599 90.292 -94.565 89.801 -94.565 L 89.801 -93.875 L 96.172 -93.875 L 96.172 -94.565 C 95.666 -94.565 95.271 -94.592 94.988 -94.645 C 94.704 -94.699 94.485 -94.806 94.332 -94.967 C 94.179 -95.128 94.083 -95.362 94.045 -95.669 C 94.006 -95.975 93.987 -96.382 93.987 -96.888 L 93.987 -101.097 L 95.091 -101.097 C 95.336 -101.097 95.54 -101.085 95.701 -101.062 C 95.862 -101.039 96 -100.993 96.115 -100.924 C 96.23 -100.855 96.337 -100.767 96.437 -100.66 C 96.536 -100.552 96.64 -100.407 96.747 -100.223 C 97.023 -99.763 97.288 -99.314 97.541 -98.877 C 97.794 -98.44 98.054 -97.98 98.323 -97.497 C 98.591 -97.014 98.882 -96.481 99.197 -95.899 C 99.511 -95.316 99.875 -94.641 100.289 -93.875 Z " fill="black" /></g></g></g></svg>