<svg xmlns="http://www.w3.org/2000/svg" version="1.0" width="1127.883208pt" height="1314.975272pt" viewBox="0 0 1127.883208 1314.975272" preserveAspectRatio="xMidYMid meet">
<metadata>
Created by potrace 1.16, written by Peter Selinger 2001-2019
</metadata>
<g transform="translate(-45.000000,1353.975272) scale(0.100000,-0.100000)" fill="#000000" stroke="none">
<path d="M793 13528 c-4 -7 -19 -44 -33 -83 l-25 -70 -87 -5 c-47 -3 -89 -8 -93 -12 -18 -18 11 -24 86 -20 75 4 81 3 77 -14 -3 -18 -31 -24 -67 -13 -8 2 -16 -4 -19 -13 -2 -13 6 -19 32 -24 20 -3 36 -7 36 -8 0 -2 -11 -36 -25 -76 -30 -88 -30 -90 -5 -90 16 0 24 16 45 84 23 75 28 84 53 89 15 3 28 4 30 2 2 -1 -4 -31 -13 -65 -18 -70 -14 -100 10 -80 8 7 15 22 16 34 0 11 8 43 17 70 l17 50 70 12 c39 6 87 15 107 19 l37 7 -20 -38 c-23 -47 -24 -63 -3 -93 16 -22 22 -23 86 -19 77 6 121 29 126 67 5 30 -20 55 -69 71 -22 8 -42 17 -45 22 -3 5 23 22 58 37 47 22 59 31 46 36 -21 8 -104 -18 -130 -42 -15 -14 -18 -14 -18 -1 0 23 33 48 64 48 21 0 27 4 24 18 -8 42 -96 15 -123 -38 -9 -17 -13 -34 -11 -39 3 -5 -28 -14 -70 -20 -103 -15 -116 -15 -112 7 3 14 16 18 78 20 41 2 79 7 83 11 12 12 -77 24 -113 16 -35 -8 -36 -5 -10 70 24 71 25 75 2 75 -14 0 -24 -18 -42 -75 -22 -71 -25 -75 -52 -75 -34 0 -33 10 7 94 13 28 22 53 19 58 -8 12 -32 10 -41 -4z m27 -197 c0 -13 -9 -20 -32 -24 -18 -2 -34 -4 -34 -3 -1 0 2 11 7 24 11 29 59 32 59 3z m333 -47 c25 -8 51 -22 57 -29 17 -20 -29 -47 -90 -53 -42 -4 -49 -2 -54 16 -7 21 17 82 32 82 5 0 29 -7 55 -16z"/>
<path d="M9433 13474 c-46 -48 -51 -58 -30 -71 8 -4 13 -21 13 -38 -2 -48 25 -36 44 21 10 27 25 65 34 82 17 33 14 53 -7 51 -7 0 -31 -21 -54 -45z"/>
<path d="M11083 13480 c-13 -5 -23 -17 -23 -26 0 -13 8 -15 50 -9 28 4 50 3 50 -1 0 -5 -19 -28 -42 -51 -37 -38 -40 -45 -28 -57 15 -15 57 -21 118 -18 51 3 37 19 -24 27 l-56 7 36 37 c20 20 36 44 36 53 0 41 -61 60 -117 38z"/>
<path d="M1418 13436 c-32 -7 -67 -21 -79 -32 -44 -40 -3 -163 55 -164 19 -1 19 -3 -7 -25 -34 -30 -53 -32 -60 -5 -8 29 -47 27 -47 -3 0 -33 19 -47 62 -47 31 0 47 8 80 38 45 42 47 72 5 72 -36 0 -58 22 -64 66 -5 41 -5 41 38 58 28 11 73 18 122 19 49 0 76 4 74 11 -8 25 -91 31 -179 12z"/>
<path d="M1647 13415 c-99 -35 -152 -147 -113 -239 8 -19 22 -38 31 -43 11 -7 -74 -12 -252 -17 -147 -4 -322 -11 -388 -16 -66 -5 -200 -15 -297 -22 -144 -9 -178 -15 -178 -26 0 -17 94 -14 388 13 155 14 498 27 1090 41 l273 6 -7 -509 c-5 -418 -3 -553 10 -763 33 -499 45 -1308 26 -1650 -24 -424 -24 -450 -7 -450 11 0 17 8 17 23 0 12 7 141 15 287 25 457 16 1211 -21 1820 -12 207 -15 349 -10 575 10 475 18 659 29 673 9 11 -44 13 -299 10 -309 -3 -309 -3 -269 17 94 47 70 145 -36 145 -39 0 -69 -16 -69 -37 0 -11 6 -14 23 -9 62 18 73 17 92 -4 24 -27 13 -48 -38 -73 -43 -22 -70 -16 -85 19 -29 62 -7 134 55 181 31 24 46 28 103 28 60 0 71 -4 134 -43 78 -49 100 -47 42 4 -82 71 -170 91 -259 59z"/>
<path d="M9591 13273 c-6 -31 -11 -78 -11 -105 l0 -48 -117 0 c-65 0 -174 -3 -243 -6 l-125 -7 -5 -376 c-7 -565 -5 -657 19 -685 14 -16 16 -53 12 -295 -2 -152 -4 -325 -5 -386 l-1 -110 30 1 c17 0 136 7 265 13 264 15 519 11 626 -8 l71 -13 9 -92 c7 -68 13 -91 23 -91 12 0 14 35 13 220 -1 121 2 237 7 257 7 29 5 40 -6 49 -29 25 -38 -7 -41 -158 l-4 -145 -61 8 c-34 5 -250 8 -481 7 l-419 -3 7 238 c3 130 9 296 12 368 l6 132 31 6 c17 3 80 1 141 -5 61 -6 146 -8 189 -5 l77 6 2 -42 c1 -24 2 -54 2 -68 1 -18 7 -25 20 -25 19 0 20 9 20 165 1 159 0 165 -19 165 -17 0 -20 -7 -20 -50 -1 -120 4 -112 -75 -119 -60 -6 -209 3 -306 19 -20 4 -35 14 -42 30 -7 14 -20 25 -31 25 -15 0 -22 9 -27 38 -10 52 -10 666 0 784 l8 98 36 10 c21 6 119 14 220 17 l182 6 0 -82 c0 -73 2 -82 18 -79 15 3 18 22 23 163 4 88 10 177 14 198 7 33 5 37 -12 37 -17 0 -22 -11 -32 -57z"/>
<path d="M9819 13318 c0 -2 -2 -28 -3 -58 -2 -30 -6 -111 -10 -180 -7 -102 -5 -128 7 -144 26 -35 37 -10 30 74 l-6 80 187 0 c253 0 231 30 223 -304 -14 -525 -19 -641 -29 -663 -11 -22 -15 -23 -175 -23 -138 0 -163 -2 -163 -15 0 -13 24 -15 159 -15 129 0 161 -3 171 -15 16 -19 69 -20 76 0 7 17 47 22 223 29 l134 5 -7 -100 c-7 -99 -7 -100 15 -97 23 3 22 -5 31 273 3 114 2 120 -17 120 -18 0 -20 -8 -23 -86 l-3 -87 -167 -4 c-194 -5 -186 -8 -196 91 -8 73 13 872 23 882 3 4 79 9 168 13 l162 7 3 -83 c2 -66 6 -83 18 -83 13 0 16 28 20 170 3 97 1 173 -4 177 -5 3 -15 4 -23 1 -9 -4 -13 -27 -13 -84 l0 -79 -160 0 c-130 0 -162 3 -166 14 -6 17 -53 35 -71 29 -7 -3 -13 -13 -13 -24 0 -18 -9 -19 -147 -19 -82 0 -165 3 -186 6 l-38 7 7 93 c7 91 6 94 -15 94 -11 0 -21 -1 -22 -2z"/>
<path d="M10842 13298 c-8 -8 -12 -66 -12 -194 0 -148 3 -184 15 -194 19 -16 54 -5 37 12 -7 7 -12 42 -12 80 l0 68 389 0 389 0 4 -67 c3 -38 6 -242 7 -455 1 -376 1 -388 -19 -408 -19 -19 -28 -20 -386 -13 l-366 6 7 73 c4 50 3 74 -5 79 -25 15 -34 -20 -43 -175 -11 -164 -4 -217 26 -207 9 3 11 29 9 95 -4 89 -3 91 20 96 57 12 252 14 473 4 219 -10 242 -13 263 -31 22 -20 22 -23 22 -296 -1 -277 -10 -412 -31 -437 -6 -8 -24 -14 -40 -14 -16 0 -29 -5 -29 -12 0 -8 -54 -9 -217 -2 -120 5 -391 9 -603 10 -212 0 -402 1 -423 2 l-38 2 3 53 c3 46 1 52 -17 52 -19 0 -20 -8 -23 -128 -2 -118 -1 -128 15 -125 13 2 19 15 21 48 2 24 8 47 14 51 6 4 130 10 276 14 248 7 362 5 815 -11 108 -4 177 -3 177 3 0 5 15 7 33 5 25 -3 41 2 61 20 24 20 28 34 36 113 5 50 10 212 10 361 0 221 3 277 15 300 19 36 19 42 0 78 -13 25 -17 99 -20 470 -2 243 -4 449 -4 459 -1 16 -26 17 -373 17 -205 0 -390 3 -411 7 l-38 6 2 89 c2 90 -7 118 -29 96z"/>
<path d="M7806 13208 c-40 -62 -94 -310 -81 -374 6 -37 45 -70 70 -60 19 7 20 26 0 26 -27 0 -38 40 -31 112 7 78 59 250 81 268 20 16 19 36 -1 44 -22 8 -22 8 -38 -16z"/>
<path d="M2922 13213 c-49 -20 -67 -171 -52 -453 7 -118 13 -381 14 -585 1 -335 -1 -386 -22 -535 -12 -91 -33 -212 -46 -270 -13 -58 -22 -109 -19 -113 3 -5 16 -7 28 -4 21 3 25 -2 39 -52 31 -111 37 -247 46 -926 10 -769 15 -833 72 -869 26 -16 28 -6 12 54 -25 97 -34 304 -34 790 -1 749 -18 945 -92 1026 -18 21 -18 22 1 110 32 142 62 396 68 569 3 88 -1 320 -8 515 -23 575 -16 740 27 723 8 -3 14 -1 14 5 0 8 -26 25 -33 21 -1 0 -8 -3 -15 -6z"/>
<path d="M3292 13183 c-27 -41 -48 -99 -67 -187 -17 -87 -12 -106 32 -106 32 0 58 14 120 67 l53 44 -2 -40 c-1 -23 1 -44 5 -47 11 -11 75 -22 101 -17 40 8 31 21 -19 29 -25 3 -47 10 -50 14 -9 14 24 104 55 154 22 33 28 52 21 59 -7 7 -37 -18 -96 -80 -77 -82 -164 -153 -187 -153 -22 0 30 179 68 235 13 20 22 41 19 46 -11 17 -34 9 -53 -18z"/>
<path d="M8080 13175 c0 -8 15 -21 33 -28 54 -23 114 -100 127 -162 18 -84 -13 -206 -68 -268 -8 -9 -12 -20 -8 -25 14 -13 82 75 99 128 19 59 22 165 6 207 -18 48 -58 99 -104 132 -46 33 -85 41 -85 16z"/>
<path d="M5451 13149 c-18 -11 -38 -33 -44 -49 -11 -29 -14 -30 -73 -30 -54 0 -62 3 -67 21 -6 23 -25 22 -41 -4 -25 -39 63 -69 149 -50 34 8 48 5 87 -15 l47 -25 -43 -33 c-24 -18 -46 -40 -50 -49 -11 -29 -6 -62 11 -76 25 -21 167 -18 226 5 69 26 45 36 -45 19 -84 -17 -145 -11 -155 14 -6 16 2 25 81 91 21 18 25 26 16 41 -5 10 -23 24 -40 29 -16 6 -30 15 -30 19 1 4 19 17 42 28 47 22 64 44 55 69 -9 24 -84 21 -126 -5z m83 -20 c-6 -10 -65 -39 -79 -39 -15 0 -1 21 23 34 32 18 66 21 56 5z"/>
<path d="M4247 13103 c-3 -10 -11 -59 -18 -109 -9 -69 -9 -96 0 -112 15 -29 58 -29 88 0 l23 21 0 -25 c0 -26 25 -56 37 -44 4 4 6 24 5 44 -2 20 4 66 12 101 8 36 13 68 10 73 -13 21 -33 3 -52 -50 -21 -57 -75 -123 -89 -108 -4 3 -1 44 6 89 19 116 19 131 -1 135 -9 2 -19 -5 -21 -15z"/>
<path d="M3983 13083 c-7 -2 -15 -26 -19 -52 -6 -48 -6 -48 -48 -47 -30 1 -41 -3 -41 -14 0 -10 13 -16 43 -18 l42 -3 0 -70 c0 -55 3 -69 15 -69 12 0 15 13 15 58 0 77 1 78 83 96 49 11 31 29 -24 24 l-51 -5 6 31 c14 69 10 82 -21 69z"/>
<path d="M7966 13050 c-39 -43 -47 -80 -18 -80 14 0 17 -7 14 -45 -4 -40 -7 -45 -29 -45 -18 0 -24 -5 -21 -17 2 -10 11 -19 20 -21 21 -4 178 57 178 69 0 13 -19 11 -73 -5 l-46 -14 6 32 c3 17 14 54 24 81 11 28 19 58 19 68 0 30 -36 19 -74 -23z"/>
<path d="M4785 13012 c-3 -3 -5 -11 -5 -19 0 -10 24 -13 105 -13 106 0 142 14 63 24 -72 9 -158 13 -163 8z"/>
<path d="M3659 12913 c-16 -41 -33 -142 -26 -149 13 -13 37 6 37 31 0 13 9 48 20 76 10 29 17 56 14 61 -11 17 -35 7 -45 -19z"/>
<path d="M4925 12933 c-120 -4 -135 -8 -114 -29 13 -12 30 -13 114 -4 55 6 108 13 118 16 19 6 14 25 -6 22 -7 -1 -57 -4 -112 -5z"/>
<path d="M4464 12899 c-8 -13 5 -26 30 -31 10 -1 24 -11 30 -21 9 -15 7 -21 -9 -33 -49 -36 -57 -46 -47 -56 15 -15 97 -26 133 -19 37 7 43 25 9 26 -88 4 -86 3 -63 28 11 12 23 28 27 34 22 38 -87 109 -110 72z"/>
<path d="M755 12841 c-62 -37 -115 -121 -130 -203 -15 -80 18 -123 100 -133 51 -7 125 7 125 24 0 3 -33 7 -74 7 -90 0 -116 16 -116 73 1 68 65 177 121 206 52 27 64 -2 29 -69 -20 -41 -19 -56 5 -56 39 0 71 123 40 153 -22 22 -63 21 -100 -2z"/>
<path d="M1398 12831 c-46 -40 -88 -119 -95 -179 -7 -64 17 -92 77 -92 43 0 107 27 130 55 22 27 5 27 -46 0 -32 -17 -61 -25 -84 -23 -35 3 -35 3 -35 55 1 44 7 61 41 110 41 60 67 73 72 36 5 -32 26 -47 42 -28 10 11 8 22 -7 52 -23 49 -51 53 -95 14z"/>
<path d="M1595 12660 c-10 -16 4 -30 31 -30 38 0 30 -29 -31 -98 -84 -97 -63 -111 112 -76 40 8 75 14 78 14 3 0 5 5 5 11 0 12 -59 9 -162 -7 l-43 -7 51 56 c61 67 69 88 42 122 -20 26 -71 35 -83 15z"/>
<path d="M933 12613 c-23 -9 -14 -33 12 -33 25 0 25 -1 11 -27 -7 -16 -17 -43 -21 -60 -6 -29 -9 -32 -27 -22 -16 8 -24 8 -35 -4 -14 -13 -13 -16 5 -26 30 -16 102 -25 102 -13 0 6 -4 13 -9 17 -11 6 9 69 35 114 23 39 13 61 -28 60 -18 0 -39 -3 -45 -6z"/>
<path d="M3361 12493 c-12 -23 -47 -147 -55 -194 -5 -27 -2 -42 12 -59 26 -32 55 -20 122 51 l56 59 -4 -59 c-4 -51 -2 -61 16 -70 27 -14 30 -8 25 47 -3 31 3 67 16 106 32 91 7 105 -54 30 -53 -65 -134 -144 -147 -144 -26 0 35 200 63 207 22 6 24 14 7 31 -17 17 -46 15 -57 -5z"/>
<path d="M4342 12477 c-20 -24 -37 -152 -24 -181 21 -47 86 -47 141 0 29 24 31 25 31 5 0 -34 22 -71 43 -71 15 0 17 4 11 18 -11 22 -11 105 0 160 8 39 7 42 -12 42 -16 0 -23 -8 -28 -35 -4 -25 -21 -48 -56 -80 -54 -49 -69 -53 -88 -29 -11 12 -11 27 -1 77 17 83 18 99 5 104 -6 2 -16 -2 -22 -10z"/>
<path d="M1169 12468 c-1 -2 -3 -22 -5 -46 -3 -39 -17 -72 -46 -114 -16 -23 -5 -32 21 -18 49 26 88 170 49 178 -10 2 -18 2 -19 0z"/>
<path d="M5719 12446 c-54 -14 -109 -51 -109 -73 0 -13 -9 -14 -51 -9 -45 6 -50 5 -47 -11 2 -13 14 -19 43 -20 67 -4 210 -27 194 -31 -104 -30 -141 -93 -71 -120 55 -22 126 -24 195 -6 74 18 93 40 25 28 -24 -4 -74 -7 -111 -6 -129 3 -136 37 -15 73 61 19 90 40 76 54 -3 3 -27 8 -54 11 -79 9 -82 13 -26 39 59 27 75 51 47 71 -22 17 -35 17 -96 0z m31 -45 c-38 -20 -100 -36 -100 -26 0 11 84 45 110 44 23 0 22 -1 -10 -18z"/>
<path d="M4032 12408 c-7 -7 -12 -24 -12 -39 0 -51 -8 -59 -51 -53 -25 4 -44 2 -54 -6 -22 -18 -2 -30 53 -30 l42 0 0 -60 c0 -33 4 -60 9 -60 11 0 17 17 26 78 5 32 11 42 25 42 25 0 50 10 50 21 0 5 -16 9 -35 9 -34 0 -34 1 -28 33 14 66 3 93 -25 65z"/>
<path d="M5012 12372 c3 -15 19 -17 116 -20 74 -2 112 1 112 8 0 15 -13 18 -128 24 -94 5 -103 4 -100 -12z"/>
<path d="M5125 12312 c-72 -3 -95 -10 -95 -28 0 -15 29 -15 168 2 88 11 31 32 -73 26z"/>
<path d="M4679 12263 c-5 -15 -11 -43 -12 -63 -2 -33 0 -35 28 -35 17 1 40 4 52 9 22 7 22 5 20 -46 -2 -41 1 -53 14 -56 13 -2 18 9 23 57 4 33 11 61 16 63 5 2 12 15 15 31 7 24 5 27 -20 27 -18 0 -29 -6 -32 -19 -7 -26 -73 -35 -73 -10 0 10 5 21 10 24 6 3 10 15 10 26 0 30 -38 24 -51 -8z"/>
<path d="M3698 12263 c-23 -6 -31 -32 -12 -40 8 -3 26 -1 39 5 15 7 27 8 30 2 6 -9 -6 -22 -50 -55 -17 -13 -18 -16 -5 -25 8 -5 26 -10 40 -10 14 0 32 -5 40 -10 13 -9 12 -12 -4 -25 -27 -20 -63 -19 -75 3 -8 14 -12 15 -23 4 -22 -22 4 -47 54 -50 81 -5 130 61 70 95 -28 16 -29 17 -13 44 14 25 14 29 -3 48 -18 20 -48 25 -88 14z"/>
<path d="M9830 12238 c0 -2 -2 -76 -4 -165 -3 -140 -2 -162 12 -168 8 -3 19 -2 24 3 5 5 7 80 6 168 -3 142 -5 159 -20 162 -10 2 -18 2 -18 0z"/>
<path d="M704 12161 c-35 -22 -64 -84 -67 -144 -2 -51 28 -77 87 -77 45 0 126 41 94 48 -9 2 -26 -2 -37 -7 -34 -19 -89 -14 -101 9 -24 46 29 150 76 150 16 0 24 -7 26 -22 4 -30 48 -39 48 -10 0 55 -73 86 -126 53z"/>
<path d="M1405 12139 c-42 -37 -59 -68 -76 -132 -16 -65 -6 -95 37 -113 40 -17 73 -13 147 18 79 34 52 53 -33 23 -88 -31 -128 -14 -115 52 17 94 93 178 112 126 9 -25 25 -34 40 -22 24 20 -16 79 -53 79 -13 0 -39 -14 -59 -31z"/>
<path d="M870 12013 c0 -4 10 -17 22 -30 19 -20 20 -27 10 -41 -31 -44 -29 -51 19 -61 48 -10 46 -26 -6 -56 -25 -15 -44 -32 -42 -39 6 -15 34 -8 84 21 35 20 43 30 43 54 0 21 -8 34 -28 47 -19 12 -26 24 -24 40 5 34 -24 72 -53 72 -14 0 -25 -3 -25 -7z"/>
<path d="M1606 11968 c-19 -29 -38 -112 -30 -132 8 -21 53 -20 77 2 20 16 20 16 13 -2 -9 -26 4 -86 19 -86 7 0 15 21 19 53 4 28 10 69 13 90 5 32 3 37 -15 37 -11 0 -32 -13 -45 -30 -40 -47 -50 -35 -21 26 26 54 1 89 -30 42z"/>
<path d="M11013 11913 c-6 -21 -17 -53 -24 -70 -17 -41 -8 -50 56 -55 l50 -3 5 -50 c3 -27 9 -49 15 -48 5 1 17 37 26 80 9 43 20 88 24 101 6 19 4 22 -19 22 -20 0 -27 -6 -34 -32 -7 -29 -13 -33 -45 -36 -43 -4 -44 0 -16 62 21 49 19 66 -10 66 -11 0 -21 -13 -28 -37z"/>
<path d="M3382 11853 c-105 -248 -69 -357 74 -221 l54 51 0 -45 c0 -54 24 -81 66 -76 37 4 42 26 7 30 -25 3 -28 7 -31 44 -2 23 6 68 17 102 25 73 26 82 6 82 -8 0 -22 -15 -31 -32 -27 -53 -63 -96 -117 -138 -64 -52 -80 -52 -71 -2 12 66 55 177 76 193 25 19 20 53 -8 57 -17 2 -25 -7 -42 -45z"/>
<path d="M4440 11853 c-6 -21 -13 -72 -17 -114 -6 -74 -5 -77 19 -93 32 -21 63 -10 112 39 l36 36 0 -44 c0 -42 13 -67 34 -67 7 0 11 29 11 72 0 40 2 91 5 113 7 57 -20 60 -45 4 -22 -48 -97 -129 -120 -129 -20 0 -20 66 0 143 19 74 19 77 -5 77 -14 0 -22 -11 -30 -37z"/>
<path d="M9448 11839 c-10 -5 -18 -19 -18 -30 0 -26 30 -37 45 -16 7 10 23 17 36 17 22 0 22 -1 -9 -33 -35 -36 -34 -42 16 -62 17 -8 32 -18 32 -24 0 -10 -54 -31 -81 -31 -11 0 -19 -7 -19 -15 0 -35 118 -6 139 34 9 17 8 24 -8 40 -10 10 -25 21 -32 23 -11 4 -11 9 4 25 23 26 22 60 -2 73 -25 13 -81 13 -103 -1z"/>
<path d="M1109 11818 c0 -2 -3 -16 -5 -32 -7 -41 -49 -140 -74 -176 -32 -45 1 -40 39 7 33 40 87 175 76 192 -5 9 -33 16 -36 9z"/>
<path d="M5889 11763 c-20 -94 -18 -187 5 -212 32 -35 81 -28 127 18 l39 39 0 -33 c0 -18 8 -39 18 -48 20 -18 78 -22 102 -7 21 13 5 23 -38 24 l-37 1 0 70 c0 39 4 89 8 113 7 35 6 42 -7 42 -9 0 -21 -12 -27 -27 -41 -107 -97 -183 -135 -183 -8 0 -19 11 -26 24 -10 23 -6 67 19 209 4 22 2 27 -15 27 -17 0 -23 -10 -33 -57z"/>
<path d="M4004 11749 c-13 -21 13 -29 94 -29 77 0 126 10 112 23 -10 9 -201 14 -206 6z"/>
<path d="M5503 11733 c-15 -3 -23 -12 -23 -25 0 -19 4 -20 48 -13 26 5 79 11 117 14 39 3 69 10 68 16 -3 10 -168 17 -210 8z"/>
<path d="M4148 11675 c-2 -3 -34 -7 -69 -9 -35 -3 -67 -5 -71 -5 -5 -1 -8 -8 -8 -17 0 -15 9 -16 63 -11 69 7 127 24 127 38 0 9 -33 13 -42 4z"/>
<path d="M4773 11655 c-18 -8 -33 -19 -33 -25 0 -16 30 -24 43 -11 16 16 47 14 47 -4 0 -8 -12 -25 -26 -39 -30 -27 -26 -41 13 -51 33 -8 73 -32 73 -44 0 -11 -45 -28 -97 -36 -28 -5 -43 -3 -43 4 0 6 -7 11 -15 11 -8 0 -15 -9 -15 -20 0 -27 35 -34 105 -21 68 13 105 34 105 60 0 18 -45 64 -71 73 -9 3 -9 9 0 25 33 62 -18 108 -86 78z"/>
<path d="M5490 11632 c-5 -2 -10 -10 -10 -17 0 -17 120 -29 200 -20 66 8 81 25 23 26 -21 0 -75 4 -120 7 -45 4 -87 6 -93 4z"/>
<path d="M6335 11607 c-19 -15 -13 -37 10 -37 12 0 12 -5 3 -26 -11 -23 -9 -28 26 -60 47 -43 45 -68 -7 -72 -24 -2 -37 -8 -37 -18 0 -17 71 -20 101 -4 30 16 24 63 -12 105 -24 27 -29 39 -20 48 17 17 13 55 -8 67 -26 13 -33 13 -56 -3z"/>
<path d="M3702 11588 c-17 -21 -54 -139 -48 -154 9 -23 36 -16 36 9 0 12 12 46 25 76 24 52 27 81 7 81 -5 0 -14 -6 -20 -12z"/>
<path d="M6239 11564 c-7 -9 -15 -45 -17 -80 -8 -121 36 -60 51 70 3 25 -16 31 -34 10z"/>
<path d="M1185 11516 c-54 -17 -125 -54 -152 -78 -21 -20 -22 -20 -52 -2 -25 15 -33 16 -43 5 -11 -10 -8 -16 11 -32 13 -10 31 -19 40 -19 9 0 25 -7 35 -15 12 -9 42 -15 73 -15 29 0 53 -4 53 -8 0 -5 -23 -19 -51 -32 -84 -40 -100 -81 -49 -132 30 -29 32 -30 113 -26 63 3 96 10 145 32 34 16 62 33 62 37 0 12 0 12 -84 -16 -106 -36 -204 -32 -219 9 -11 28 2 41 69 74 101 50 99 82 -6 90 l-61 4 78 32 c100 40 148 68 148 87 0 19 -58 22 -110 5z m-5 -46 c-8 -5 -22 -10 -30 -10 -13 0 -13 1 0 10 8 5 22 10 30 10 13 0 13 -1 0 -10z"/>
<path d="M3459 11223 c-17 -44 -49 -185 -49 -215 0 -61 43 -47 100 32 24 33 44 60 45 60 1 0 0 -24 -3 -54 -4 -48 -2 -55 18 -66 18 -10 28 -9 49 1 l26 13 -27 4 c-14 2 -28 9 -31 15 -2 7 4 44 14 82 24 92 23 97 -3 93 -14 -2 -44 -32 -82 -81 -32 -42 -61 -75 -63 -73 -10 9 37 149 54 161 14 11 16 18 7 32 -18 29 -43 28 -55 -4z"/>
<path d="M4545 11198 c-12 -53 -22 -185 -14 -204 7 -21 28 -34 55 -34 8 0 32 16 54 36 l40 36 0 -31 c0 -60 72 -76 152 -35 34 18 38 39 6 29 -13 -3 -45 -9 -72 -12 l-49 -6 7 59 c3 32 9 76 12 97 10 59 -20 48 -55 -21 -33 -66 -97 -130 -114 -113 -6 6 -4 41 7 106 20 119 20 115 -4 115 -12 0 -22 -9 -25 -22z"/>
<path d="M6009 11188 c0 -2 -3 -59 -6 -128 -4 -107 -3 -128 11 -139 25 -21 61 -5 95 41 l31 42 0 -36 c0 -46 8 -68 26 -68 14 0 15 18 18 202 1 53 -21 43 -52 -24 -32 -70 -82 -135 -91 -119 -4 5 -3 53 2 105 10 102 7 126 -18 126 -8 0 -15 -1 -16 -2z"/>
<path d="M10472 11140 c-47 -21 -61 -44 -44 -71 18 -28 16 -29 -37 -29 -53 0 -82 -19 -58 -38 9 -8 32 -7 82 3 38 8 71 13 73 10 3 -3 0 -5 -6 -5 -31 0 -54 -100 -32 -140 17 -32 98 -50 158 -34 39 11 24 24 -27 24 -78 0 -101 13 -101 55 0 49 36 85 85 85 42 0 49 24 9 34 -25 7 -24 8 23 39 49 33 65 63 41 78 -24 16 -121 9 -166 -11z m129 -23 c-32 -39 -141 -59 -141 -26 0 16 61 38 109 39 35 0 41 -3 32 -13z"/>
<path d="M10888 11105 c-48 -26 -68 -95 -28 -95 13 0 20 7 20 18 0 10 5 23 11 29 9 9 17 6 31 -13 11 -14 30 -24 44 -24 24 0 24 -1 9 -30 -8 -16 -15 -47 -15 -69 0 -53 31 -76 93 -69 52 6 113 34 121 55 8 21 0 29 -16 16 -24 -20 -112 -44 -136 -38 -22 5 -24 10 -19 46 3 22 17 58 32 80 14 22 23 44 20 49 -3 5 -28 6 -54 3 -49 -5 -49 -5 -53 23 -4 34 -22 39 -60 19z"/>
<path d="M4165 11088 c-108 -12 -118 -14 -109 -29 13 -21 294 10 294 32 0 11 -60 9 -185 -3z"/>
<path d="M5513 11054 c-9 -23 14 -33 56 -23 20 5 74 9 119 9 62 0 83 3 80 13 -3 8 -40 13 -127 15 -105 2 -122 0 -128 -14z"/>
<path d="M4221 11020 c-75 -8 -109 -24 -78 -36 22 -8 216 21 230 35 13 13 -34 13 -152 1z"/>
<path d="M4870 10949 c-41 -83 -34 -95 39 -73 25 8 47 14 49 14 2 0 0 -27 -4 -60 -4 -41 -3 -60 4 -60 15 0 27 25 41 92 7 31 23 73 37 93 27 40 29 51 13 60 -14 9 -44 -19 -59 -56 -9 -20 -23 -32 -48 -39 -20 -5 -38 -8 -40 -5 -3 2 7 24 21 48 27 45 26 57 -3 57 -10 0 -29 -26 -50 -71z"/>
<path d="M6396 10985 c-3 -9 -6 -35 -6 -58 0 -38 -4 -44 -36 -59 -58 -30 -67 -23 -33 25 33 47 31 74 -5 83 -33 8 -76 -12 -76 -36 0 -22 35 -29 43 -7 2 6 8 9 12 4 5 -4 -1 -17 -12 -30 -38 -41 -45 -64 -26 -82 20 -21 62 -14 105 16 17 13 47 22 69 23 35 1 39 -1 39 -24 0 -40 11 -70 26 -70 10 0 14 14 14 48 1 26 9 71 19 99 10 29 16 55 13 58 -15 15 -40 1 -55 -29 -9 -19 -26 -40 -38 -46 -20 -11 -21 -10 -17 27 3 21 7 45 9 53 6 21 -37 26 -45 5z"/>
<path d="M5555 10970 c-15 -24 9 -29 103 -24 114 6 142 11 142 24 0 13 -237 13 -245 0z"/>
<path d="M477 10943 c-10 -10 -8 -41 2 -48 30 -18 324 -24 836 -16 474 7 573 11 643 26 45 10 82 21 82 26 0 18 -22 19 -77 3 -49 -14 -149 -18 -633 -25 -604 -10 -796 -4 -813 26 -8 16 -29 20 -40 8z"/>
<path d="M3716 10937 c-28 -21 -12 -36 32 -30 27 4 42 1 51 -10 25 -30 9 -49 -92 -111 -24 -15 -26 -20 -16 -33 10 -11 25 -14 61 -10 51 6 148 44 148 58 0 12 -7 11 -64 -6 -65 -20 -77 -19 -43 3 60 40 70 76 35 117 -28 31 -85 43 -112 22z"/>
<path d="M10755 10898 c-2 -7 -6 -42 -8 -78 -2 -36 -7 -73 -12 -82 -12 -30 23 -21 38 10 19 37 28 137 14 151 -14 14 -27 14 -32 -1z"/>
<path d="M7986 10598 c-34 -51 -67 -247 -50 -292 12 -31 63 -19 107 24 l40 40 -5 -38 c-6 -42 5 -72 26 -72 8 0 12 8 9 23 -2 12 7 72 21 134 31 135 32 143 6 143 -13 0 -20 -7 -20 -19 0 -61 -126 -239 -151 -214 -12 12 10 144 37 217 9 23 16 47 17 55 3 24 -21 23 -37 -1z"/>
<path d="M4826 10574 c-75 -73 -119 -212 -81 -254 20 -22 85 -27 129 -10 45 17 28 29 -36 27 l-63 -2 -3 37 c-5 62 55 170 111 199 19 11 20 9 13 -29 -7 -45 7 -64 30 -41 15 16 22 78 10 97 -16 25 -71 14 -110 -24z"/>
<path d="M7510 10570 c-53 -56 -102 -221 -81 -273 24 -61 138 -63 216 -4 32 25 12 29 -36 7 -51 -23 -107 -26 -134 -7 -14 11 -17 23 -13 58 8 64 46 156 79 193 32 35 36 25 13 -35 -14 -33 -14 -43 -4 -49 24 -15 37 0 50 55 11 44 11 57 0 70 -20 24 -59 18 -90 -15z"/>
<path d="M3523 10580 c-35 -8 -50 -17 -101 -64 -64 -59 -92 -147 -55 -177 27 -23 213 -12 213 12 0 6 -29 10 -72 9 -122 -2 -118 -3 -118 29 0 37 35 87 88 128 57 43 92 43 125 2 17 -21 30 -30 41 -26 24 9 20 30 -11 59 -33 30 -66 38 -110 28z"/>
<path d="M3840 10558 c-25 -41 -45 -159 -33 -195 21 -63 70 -56 148 23 l55 56 0 -34 c0 -61 66 -96 111 -59 28 23 19 39 -14 24 -15 -7 -29 -7 -40 -1 -22 12 -23 86 -2 153 8 27 12 52 9 57 -12 19 -31 5 -51 -40 -30 -65 -86 -136 -131 -167 -32 -22 -37 -23 -45 -9 -13 23 0 112 24 161 31 64 5 90 -31 31z"/>
<path d="M5213 10553 c-20 -48 -31 -227 -14 -238 22 -13 57 4 84 42 l27 38 0 -30 c0 -65 52 -93 124 -65 42 16 30 28 -26 26 l-53 -1 1 40 c0 22 3 67 5 99 3 38 0 60 -7 63 -7 2 -30 -29 -52 -69 -22 -40 -50 -82 -62 -93 l-23 -20 8 70 c4 39 13 88 21 110 18 52 17 65 -2 65 -8 0 -22 -17 -31 -37z"/>
<path d="M6676 10563 c-24 -48 -56 -163 -56 -204 0 -62 38 -72 103 -27 26 19 27 19 27 1 0 -34 29 -63 63 -63 l32 0 -29 23 c-27 22 -29 27 -22 73 3 27 13 71 22 97 11 33 13 52 6 59 -16 16 -29 2 -47 -53 -18 -54 -81 -129 -108 -129 -21 0 -15 35 20 135 36 101 38 115 19 115 -8 0 -22 -12 -30 -27z"/>
<path d="M6223 10560 c-66 -40 -116 -143 -98 -200 8 -25 54 -50 92 -50 35 0 113 35 113 51 0 7 -8 9 -22 4 -90 -27 -98 -28 -123 -11 -31 20 -32 53 -5 106 19 37 67 80 89 80 6 0 11 -9 11 -21 0 -15 5 -20 22 -17 30 4 34 32 9 57 -26 26 -47 26 -88 1z"/>
<path d="M1656 10537 c-44 -14 -67 -40 -49 -58 8 -8 19 -5 42 12 43 32 151 34 182 3 30 -31 20 -51 -61 -118 -105 -88 -131 -144 -94 -201 19 -29 51 -35 39 -7 -5 9 -10 32 -13 51 -4 32 1 39 80 115 95 90 113 116 103 153 -13 52 -135 78 -229 50z"/>
<path d="M4530 10525 c-5 -14 -10 -40 -10 -57 0 -29 -1 -30 -47 -26 -39 2 -48 0 -51 -14 -3 -15 4 -18 48 -18 47 0 51 -2 45 -20 -10 -31 4 -100 20 -100 10 0 15 18 17 63 3 60 4 62 31 65 16 2 26 8 24 15 -2 7 -14 11 -26 9 -21 -3 -22 0 -19 49 3 58 -15 79 -32 34z"/>
<path d="M5774 10486 c-4 -9 -3 -20 1 -24 12 -12 176 -15 187 -4 12 12 -7 18 -87 26 -27 2 -60 8 -72 11 -16 5 -25 3 -29 -9z"/>
<path d="M7247 10483 c-3 -4 -8 -27 -12 -50 -7 -42 -7 -42 -58 -45 -38 -2 -52 -7 -52 -18 0 -12 12 -15 53 -13 49 2 52 1 52 -22 0 -34 10 -55 26 -55 10 0 14 13 14 44 0 44 0 44 45 50 63 10 67 26 5 26 -49 0 -50 1 -44 25 11 45 9 59 -8 63 -9 2 -18 -1 -21 -5z"/>
<path d="M620 10420 c0 -22 11 -102 25 -176 14 -74 25 -140 25 -145 0 -5 11 -9 24 -9 27 0 36 20 57 129 l12 64 13 -52 c18 -69 40 -108 64 -116 41 -13 69 32 130 209 24 69 35 115 29 121 -16 16 -34 -15 -68 -115 -18 -52 -43 -115 -56 -139 l-22 -45 -17 31 c-8 17 -22 68 -30 113 -23 135 -51 132 -81 -8 -9 -42 -19 -84 -22 -92 -6 -17 -41 174 -42 233 -1 30 -5 37 -21 37 -17 0 -20 -7 -20 -40z"/>
<path d="M4212 10388 c-33 -41 -41 -160 -11 -166 12 -2 16 7 16 41 1 25 9 59 18 77 23 44 5 82 -23 48z"/>
<path d="M5507 10393 c-12 -12 -7 -33 7 -33 11 0 14 -11 13 -42 -2 -40 0 -43 36 -60 20 -10 37 -24 37 -31 0 -17 -39 -37 -65 -34 -14 1 -21 -5 -23 -22 -4 -22 -1 -24 32 -18 20 3 50 15 66 27 49 35 38 72 -35 115 -15 9 -16 14 -6 34 10 18 10 27 -4 47 -15 23 -44 32 -58 17z"/>
<path d="M5935 10389 c-16 -5 -52 -9 -80 -8 -70 2 -75 1 -75 -16 0 -21 116 -20 170 1 63 25 51 44 -15 23z"/>
<path d="M7694 10354 c-8 -20 -14 -55 -12 -77 3 -41 4 -42 40 -41 34 1 37 -1 40 -30 2 -19 9 -32 19 -34 13 -2 17 9 22 50 4 29 9 63 13 75 12 42 -23 40 -61 -3 l-34 -39 -1 28 c0 15 7 41 15 58 9 16 13 34 10 39 -13 21 -37 9 -51 -26z"/>
<path d="M3681 10363 c-16 -31 -33 -134 -27 -160 9 -32 30 -24 34 13 2 16 10 53 18 83 15 53 13 81 -5 81 -6 0 -14 -8 -20 -17z"/>
<path d="M5001 10366 c-10 -11 -8 -16 5 -24 16 -9 15 -12 -5 -41 -25 -35 -22 -61 8 -61 10 0 29 -8 41 -18 l22 -18 -32 -27 c-33 -28 -50 -34 -50 -17 0 6 -7 10 -15 10 -17 0 -21 -45 -5 -55 16 -10 72 12 103 40 40 38 37 80 -8 102 -33 16 -34 18 -20 39 19 30 19 49 -1 68 -19 20 -28 20 -43 2z"/>
<path d="M8326 10317 c-6 -36 -11 -45 -38 -55 -17 -6 -33 -10 -36 -8 -2 2 1 21 7 42 12 42 8 54 -17 54 -14 0 -20 -14 -29 -57 -15 -82 3 -97 79 -68 16 6 17 1 11 -60 -5 -56 -4 -67 8 -63 9 3 23 43 36 104 28 127 29 154 4 154 -14 0 -20 -10 -25 -43z"/>
<path d="M6396 10325 c-3 -9 1 -18 9 -21 23 -9 19 -21 -25 -68 -58 -63 -51 -86 23 -86 37 0 117 34 117 50 0 13 -2 13 -67 -6 -30 -9 -57 -13 -61 -10 -3 4 11 23 31 44 42 43 49 85 18 102 -27 14 -38 13 -45 -5z"/>
<path d="M6900 10324 c0 -9 9 -18 20 -21 28 -7 25 -21 -15 -72 -20 -25 -34 -52 -33 -60 5 -27 138 -27 138 -1 0 6 -20 10 -45 10 -25 0 -45 3 -45 8 1 4 14 23 30 42 48 55 37 110 -22 110 -19 0 -28 -5 -28 -16z"/>
<path d="M1385 10233 c-107 -18 -110 -20 -95 -39 15 -17 34 -15 148 18 39 12 72 25 72 29 0 11 -26 10 -125 -8z"/>
<path d="M927 10083 c-19 -18 -5 -33 33 -33 49 0 92 -19 88 -38 -2 -9 -30 -36 -63 -62 -44 -34 -60 -53 -60 -71 0 -22 5 -24 48 -27 70 -5 205 33 186 52 -3 3 -44 -2 -93 -10 -48 -9 -91 -13 -94 -9 -3 3 5 13 19 23 91 64 118 112 82 144 -30 27 -130 48 -146 31z"/>
<path d="M1721 9961 c-14 -4 -26 -12 -29 -19 -6 -20 24 -24 57 -7 53 27 35 44 -28 26z"/>
<path d="M5342 9918 c-21 -21 -13 -28 31 -26 36 3 42 0 45 -17 2 -12 -12 -38 -33 -62 -37 -44 -45 -77 -19 -87 24 -9 174 -7 174 3 0 9 -71 21 -121 21 -36 0 -36 4 1 46 39 45 47 77 26 109 -13 19 -25 25 -54 25 -21 0 -43 -5 -50 -12z"/>
<path d="M5021 9740 c-26 -109 -30 -172 -12 -194 20 -24 64 -19 108 13 39 28 40 28 49 8 5 -11 16 -25 25 -30 20 -13 68 -1 76 19 8 22 -2 27 -27 14 -38 -20 -44 0 -26 84 10 42 18 79 18 83 1 5 -6 9 -14 11 -11 2 -23 -12 -37 -42 -38 -86 -112 -159 -142 -140 -13 8 -4 83 22 173 24 82 24 91 0 91 -16 0 -23 -15 -40 -90z"/>
<path d="M4629 9776 c-20 -14 -51 -47 -68 -73 -26 -39 -31 -56 -29 -92 3 -38 8 -48 35 -63 42 -25 120 -33 158 -17 29 12 28 13 -43 20 -116 13 -139 37 -103 106 25 47 38 62 76 92 l30 23 5 -34 c4 -25 10 -33 25 -33 17 0 20 6 17 40 -5 62 -42 72 -103 31z"/>
<path d="M3787 9653 c-7 -16 -26 -67 -41 -115 -16 -48 -34 -95 -41 -104 -11 -16 -14 -11 -24 35 -6 28 -11 65 -11 81 0 39 -9 60 -26 60 -17 0 -24 -17 -55 -119 -20 -65 -24 -71 -36 -55 -20 27 -54 124 -62 174 -5 37 -10 46 -29 48 -18 3 -22 -1 -22 -22 0 -28 52 -174 77 -217 35 -59 79 -44 103 34 l13 42 12 -48 c15 -58 35 -81 63 -73 22 7 46 58 88 188 15 48 31 85 36 82 16 -10 30 7 17 22 -18 22 -47 16 -62 -13z"/>
<path d="M5312 9587 c-15 -17 -6 -27 25 -27 34 0 28 -21 -17 -65 -57 -56 -50 -97 14 -81 36 9 89 57 77 69 -6 6 -17 4 -32 -7 -39 -27 -45 -18 -11 17 30 31 43 79 25 90 -25 14 -71 17 -81 4z"/>
<path d="M4775 9580 c-9 -15 3 -30 24 -30 33 0 32 -14 -5 -45 -28 -23 -36 -36 -31 -50 6 -15 15 -17 63 -11 31 3 65 11 75 17 34 18 21 29 -28 22 l-48 -6 23 25 c12 13 22 32 22 41 0 33 -79 64 -95 37z"/>
<path d="M4134 9549 c-14 -23 27 -39 98 -39 51 0 68 3 68 14 0 9 -20 15 -65 20 -36 4 -71 9 -79 12 -8 3 -17 0 -22 -7z"/>
<path d="M4208 9463 c-60 -3 -78 -7 -78 -18 0 -20 118 -20 165 -1 40 17 45 27 13 24 -13 -1 -58 -4 -100 -5z"/>
<path d="M5485 9407 c-20 -7 -171 -11 -450 -11 -366 -1 -420 -3 -420 -16 0 -13 53 -15 420 -14 376 1 424 3 463 19 65 27 54 47 -13 22z"/>
<path d="M3815 9370 c-8 -14 3 -30 21 -30 25 0 15 -31 -21 -63 -37 -33 -45 -61 -19 -71 20 -8 102 -6 132 2 30 9 24 27 -8 28 -14 0 -38 1 -54 2 l-30 2 26 28 c35 38 41 61 23 88 -16 25 -58 33 -70 14z"/>
<path d="M4971 9281 c-30 -19 1 -29 72 -25 127 9 129 -21 8 -90 -40 -23 -78 -50 -83 -61 -26 -46 87 -74 167 -41 19 8 35 17 35 20 0 2 -34 4 -75 3 -43 -1 -75 2 -76 8 -2 6 22 24 52 42 90 52 113 75 105 107 -4 16 -17 31 -32 36 -31 12 -154 13 -173 1z"/>
<path d="M3411 8883 c-120 -146 -196 -440 -146 -569 26 -68 77 -119 141 -144 62 -23 64 -23 64 -12 0 4 -17 14 -37 21 -47 16 -98 63 -126 116 -33 61 -30 211 7 320 35 102 91 208 133 253 38 40 41 52 14 52 -11 0 -33 -17 -50 -37z"/>
<path d="M4677 8854 c-3 -4 19 -34 49 -68 67 -74 109 -156 130 -256 38 -181 -21 -332 -149 -377 -51 -18 -51 -18 -19 -21 19 -2 51 6 77 18 184 89 181 444 -5 653 -49 54 -68 66 -83 51z"/>
<path d="M7596 8852 c-3 -5 20 -33 50 -63 95 -92 130 -191 122 -340 -4 -65 -11 -96 -31 -135 -28 -55 -99 -124 -128 -124 -21 0 -34 -16 -20 -25 17 -10 84 24 123 62 141 138 124 431 -35 581 -55 51 -71 60 -81 44z"/>
<path d="M6480 8801 c-43 -45 -119 -195 -150 -296 -43 -142 -24 -241 54 -276 46 -21 76 -24 76 -9 0 6 -9 10 -20 10 -11 0 -37 15 -58 34 -36 34 -37 36 -37 108 1 120 80 312 167 402 26 27 48 53 48 58 0 22 -47 4 -80 -31z"/>
<path d="M10495 8739 c-4 -6 -5 -11 -4 -13 2 -1 17 -10 32 -20 67 -42 90 -179 48 -288 -39 -100 -98 -171 -187 -224 -37 -22 -7 -23 37 -2 60 30 133 109 171 185 36 74 48 179 28 253 -19 71 -104 144 -125 109z"/>
<path d="M5093 8728 c-18 -23 -55 -170 -61 -235 -4 -52 -1 -67 13 -83 25 -27 73 -25 117 5 l37 25 -1 -36 c-2 -62 60 -84 137 -47 39 18 48 39 13 29 -55 -17 -108 -19 -113 -4 -3 8 3 56 15 106 11 51 20 103 20 118 0 40 -31 26 -45 -21 -27 -92 -84 -165 -129 -165 -41 0 -38 83 9 219 14 41 25 80 25 88 0 17 -24 17 -37 1z"/>
<path d="M10207 8729 c-41 -24 -116 -242 -123 -359 -6 -94 7 -124 56 -128 l35 -3 -26 23 c-15 13 -29 32 -31 44 -19 79 71 366 122 394 11 6 20 17 20 25 0 17 -27 19 -53 4z"/>
<path d="M8029 8703 c-40 -106 -50 -239 -21 -266 23 -21 81 -22 109 -2 21 15 22 14 25 -27 4 -59 25 -60 33 -1 4 26 15 84 25 127 11 44 17 83 14 88 -13 21 -34 5 -45 -34 -21 -79 -32 -100 -63 -119 -41 -25 -65 -24 -75 2 -10 28 4 115 29 187 11 30 17 59 14 63 -11 18 -35 8 -45 -18z"/>
<path d="M3580 8702 c-47 -25 -95 -107 -109 -184 -9 -53 -8 -67 7 -98 32 -65 111 -77 169 -25 32 28 19 32 -41 11 -47 -16 -72 -11 -93 20 -41 63 44 254 113 254 20 0 24 -5 24 -29 0 -16 -7 -34 -15 -41 -20 -16 -19 -39 2 -47 45 -17 78 123 34 147 -28 15 -52 12 -91 -8z"/>
<path d="M4339 8648 c-58 -59 -110 -194 -95 -251 10 -42 96 -62 162 -37 39 15 22 24 -44 22 -31 -2 -63 2 -71 7 -32 21 19 179 74 231 l22 20 -5 -55 c-4 -50 -3 -55 16 -55 17 0 21 8 24 58 7 97 -23 119 -83 60z"/>
<path d="M6605 8648 c-40 -35 -70 -87 -80 -138 -5 -28 -2 -40 16 -59 19 -21 29 -23 85 -19 35 2 69 9 76 16 18 18 6 22 -40 11 -62 -14 -98 5 -95 50 1 37 44 105 80 129 25 16 25 15 37 -40 5 -20 13 -28 28 -28 18 0 20 4 15 40 -3 23 -11 47 -17 55 -21 25 -66 18 -105 -17z"/>
<path d="M7283 8611 c-60 -60 -89 -160 -59 -205 26 -41 119 -58 185 -35 50 17 36 29 -27 23 -41 -5 -68 -2 -95 9 -32 14 -37 20 -37 49 0 40 30 106 59 132 23 21 27 16 11 -14 -7 -13 -5 -21 6 -31 22 -18 46 10 48 58 1 36 -1 38 -30 41 -24 2 -39 -4 -61 -27z"/>
<path d="M4102 8593 c-6 -10 -13 -32 -16 -50 -7 -29 -11 -32 -49 -35 -29 -2 -42 -8 -42 -18 0 -11 10 -15 38 -14 37 1 37 1 37 -37 0 -28 4 -39 15 -39 10 0 15 10 15 28 0 38 10 48 53 56 43 8 41 26 -4 26 -33 0 -36 12 -14 54 8 15 12 32 9 37 -9 15 -33 10 -42 -8z"/>
<path d="M7047 8594 c-4 -4 -7 -20 -7 -35 0 -47 -10 -59 -46 -59 -27 0 -34 -4 -34 -20 0 -16 7 -20 36 -20 29 0 34 -3 30 -17 -17 -61 -17 -83 -2 -83 9 0 20 16 27 43 7 23 20 49 30 59 22 19 24 28 6 28 -9 0 -13 16 -12 52 0 47 -11 68 -28 52z"/>
<path d="M10405 8560 c-16 -17 -51 -45 -78 -62 -29 -18 -47 -37 -45 -46 5 -27 25 -24 62 9 20 17 36 29 36 26 0 -4 -5 -29 -11 -58 l-11 -51 -39 6 c-34 6 -39 4 -39 -14 0 -18 7 -20 65 -20 65 0 126 17 140 40 11 18 -3 24 -28 13 -43 -21 -57 -23 -57 -7 0 21 40 137 51 149 14 14 11 45 -4 45 -7 0 -26 -14 -42 -30z"/>
<path d="M5825 8569 c-4 -6 -3 -14 1 -18 13 -11 244 2 244 14 0 15 -236 19 -245 4z"/>
<path d="M9633 8524 c-7 -18 15 -36 36 -29 19 7 84 -6 74 -15 -4 -3 -64 -4 -133 0 -69 4 -129 3 -134 -1 -19 -16 8 -26 89 -33 105 -8 195 1 195 20 0 8 6 11 15 8 27 -11 16 -32 -35 -63 -49 -30 -58 -52 -22 -50 31 1 107 64 110 91 4 31 -11 43 -83 68 -70 24 -104 25 -112 4z"/>
<path d="M6078 8505 c-3 -3 -45 -9 -93 -13 -56 -4 -90 -12 -93 -19 -6 -19 96 -17 172 3 71 18 94 34 50 34 -17 0 -33 -2 -36 -5z"/>
<path d="M3757 8438 c-15 -83 -17 -124 -8 -138 16 -23 27 -3 41 70 17 95 17 95 -6 98 -17 2 -23 -3 -27 -30z"/>
<path d="M6777 8463 c-19 -18 -6 -35 23 -31 17 3 33 1 36 -4 3 -5 -17 -33 -45 -63 -28 -30 -51 -58 -51 -62 0 -35 80 -44 119 -14 30 23 14 34 -27 19 -50 -19 -49 -1 1 47 48 46 55 62 37 96 -8 14 -21 19 -49 19 -21 0 -41 -3 -44 -7z"/>
<path d="M7490 8436 c-5 -13 -10 -46 -12 -73 -3 -47 -3 -48 27 -48 24 0 31 -5 35 -24 7 -32 35 -50 52 -33 10 10 10 14 -1 21 -14 9 -12 42 4 83 10 26 -21 34 -45 13 -27 -25 -36 -12 -22 32 6 20 9 40 6 45 -10 16 -35 7 -44 -16z"/>
<path d="M5554 8440 c-28 -11 -39 -29 -26 -42 7 -7 18 -5 33 6 13 9 29 16 36 16 23 0 14 -30 -12 -42 -39 -18 -32 -45 14 -53 47 -8 79 -36 59 -52 -7 -6 -33 -14 -58 -18 -39 -7 -43 -6 -32 8 10 11 10 17 1 22 -16 10 -53 -30 -46 -49 12 -31 158 -10 180 26 16 24 -5 63 -42 79 -22 10 -29 19 -25 29 15 35 16 51 4 65 -14 16 -53 19 -86 5z"/>
<path d="M4512 8428 c-19 -19 -14 -38 10 -38 17 0 19 -3 10 -12 -19 -19 -14 -28 23 -44 19 -8 35 -21 35 -29 0 -19 -37 -39 -42 -23 -6 17 -28 0 -28 -23 0 -26 49 -26 84 2 34 26 34 62 0 88 -19 15 -25 27 -21 42 3 11 3 27 0 35 -6 17 -55 18 -71 2z"/>
<path d="M5449 8403 c-6 -16 -18 -57 -27 -92 -13 -49 -14 -65 -5 -68 22 -8 28 0 41 51 7 28 19 64 27 80 20 40 19 56 -5 56 -13 0 -24 -10 -31 -27z"/>
<path d="M8406 8403 c-4 -4 -15 -27 -26 -50 -12 -28 -25 -43 -37 -43 -10 0 -29 -3 -43 -6 l-25 -6 23 16 c12 10 22 28 22 40 0 34 -24 49 -65 42 -27 -5 -35 -12 -35 -28 0 -18 4 -20 33 -14 31 6 32 5 11 -12 -11 -9 -31 -24 -44 -33 -17 -11 -21 -21 -17 -33 7 -16 15 -18 70 -11 34 4 92 8 130 9 l67 2 0 -43 c0 -56 26 -60 35 -5 3 20 12 64 21 96 10 39 12 62 5 69 -18 18 -39 -1 -46 -42 -6 -39 -9 -41 -41 -41 -40 0 -41 2 -13 46 11 19 18 38 14 44 -7 12 -28 13 -39 3z"/>
<path d="M4395 7932 c-35 -37 -107 -180 -143 -282 -97 -278 -114 -556 -46 -771 31 -100 80 -196 107 -210 31 -17 31 -2 -1 48 -129 206 -148 511 -51 843 36 123 101 266 152 333 42 54 42 53 22 61 -9 3 -25 -6 -40 -22z"/>
<path d="M6580 7735 c0 -3 18 -29 41 -57 70 -89 102 -170 120 -304 20 -156 -20 -371 -97 -509 -15 -27 -60 -83 -100 -122 -57 -59 -68 -73 -50 -73 32 0 155 134 193 211 18 36 44 106 59 155 25 80 27 105 28 244 0 142 -2 162 -27 235 -39 117 -110 225 -149 225 -10 0 -18 -2 -18 -5z"/>
<path d="M4471 7695 c-87 -79 -96 -261 -15 -281 38 -10 104 0 157 24 67 30 51 44 -24 21 -114 -36 -149 -20 -149 67 0 58 32 128 70 156 34 24 64 14 57 -18 -5 -26 15 -50 33 -39 19 12 12 73 -12 89 -37 26 -74 20 -117 -19z"/>
<path d="M5218 7684 c-46 -24 -101 -199 -84 -267 9 -39 48 -60 109 -60 52 0 105 18 92 31 -3 4 -35 5 -69 4 -85 -5 -100 10 -93 88 5 61 40 152 65 172 14 11 15 10 8 -7 -20 -47 -19 -65 2 -65 14 0 24 10 32 35 21 63 -10 97 -62 69z"/>
<path d="M4997 7613 c-3 -4 -8 -27 -12 -50 -5 -33 -11 -42 -28 -45 -28 -4 -29 -33 -2 -33 15 0 22 -10 30 -44 15 -64 35 -65 35 -2 0 44 3 51 19 51 26 0 51 10 51 21 0 5 -16 9 -35 9 -32 0 -34 2 -29 28 11 52 9 66 -8 70 -9 2 -18 -1 -21 -5z"/>
<path d="M3455 7537 c-17 -42 -51 -173 -65 -259 -25 -142 51 -145 146 -4 19 28 34 48 34 45 0 -3 -5 -31 -10 -62 -13 -67 -2 -97 35 -97 29 0 32 8 8 25 -16 12 -16 22 9 156 15 78 25 146 22 151 -12 19 -24 3 -72 -95 -29 -60 -70 -124 -96 -153 -45 -49 -45 -49 -46 -19 0 61 64 295 81 295 5 0 9 11 9 25 0 39 -37 33 -55 -8z"/>
<path d="M4708 7499 c-10 -5 -18 -17 -18 -26 0 -12 7 -14 30 -10 48 10 46 -12 -5 -59 -40 -37 -45 -47 -35 -59 22 -27 130 -14 130 15 0 6 -17 8 -42 4 l-43 -7 38 36 c49 46 49 80 0 106 -26 13 -33 13 -55 0z"/>
<path d="M5385 7480 c-13 -14 -19 -37 -19 -68 l-1 -47 43 -3 c42 -3 42 -3 42 -42 0 -21 4 -41 9 -45 16 -9 28 25 34 93 3 34 11 70 18 78 9 11 9 18 0 27 -16 16 -45 -3 -49 -34 -5 -32 -20 -49 -43 -49 -25 0 -24 30 2 64 33 42 0 66 -36 26z"/>
<path d="M7913 7380 c-70 -16 -107 -65 -67 -88 12 -7 6 -12 -28 -21 -23 -7 -63 -13 -88 -14 -32 -1 -45 -6 -45 -17 0 -22 85 -17 158 8 48 16 66 18 93 9 19 -6 34 -13 34 -17 0 -4 -32 -28 -70 -55 -79 -53 -107 -93 -90 -125 6 -11 23 -23 38 -27 46 -13 156 -7 210 11 59 20 62 39 5 25 -49 -11 -194 -11 -211 0 -20 12 0 39 60 81 118 82 127 99 66 124 l-29 13 35 27 c40 30 45 50 17 66 -22 11 -41 11 -88 0z m72 -30 c-4 -6 -24 -19 -46 -31 -32 -16 -44 -18 -55 -8 -18 15 -10 27 29 38 44 13 80 13 72 1z"/>
<path d="M6415 7328 c-56 -63 -66 -80 -55 -97 12 -20 39 -6 50 25 6 15 12 25 14 23 5 -5 -22 -147 -29 -159 -3 -5 -23 -11 -45 -15 -40 -7 -58 -35 -22 -35 33 1 207 20 225 26 38 12 14 24 -48 24 -38 0 -65 4 -65 10 0 26 32 162 45 194 20 46 19 56 -4 56 -11 0 -40 -23 -66 -52z"/>
<path d="M5987 7343 c-4 -3 -7 -29 -7 -56 l0 -50 -43 6 c-49 7 -73 -4 -64 -27 5 -14 16 -16 55 -10 l48 6 -4 -62 c-3 -38 0 -66 7 -73 16 -16 21 -6 28 67 l6 66 38 0 c20 0 44 3 53 6 28 11 6 24 -41 24 l-46 0 7 55 c5 49 4 55 -12 55 -10 0 -22 -3 -25 -7z"/>
<path d="M7182 7273 c3 -16 16 -18 93 -18 50 0 101 -4 113 -8 20 -8 23 -6 20 9 -4 24 -36 32 -141 33 -79 1 -88 -1 -85 -16z"/>
<path d="M3876 7241 c-4 -5 -9 -37 -12 -70 -8 -69 7 -86 51 -57 25 16 25 16 25 -23 0 -39 14 -61 30 -45 4 5 10 46 13 92 6 76 5 82 -13 82 -10 0 -21 -8 -25 -19 -3 -10 -15 -27 -27 -37 -23 -21 -23 -26 -2 61 5 21 2 25 -14 25 -12 0 -23 -4 -26 -9z"/>
<path d="M5020 7228 c-353 -5 -609 -13 -615 -19 -23 -23 19 -27 225 -19 118 5 403 12 633 16 294 5 417 10 414 18 -5 15 30 14 -657 4z"/>
<path d="M3687 7213 c-4 -3 -7 -13 -7 -21 0 -11 8 -13 30 -8 38 7 38 0 -1 -40 -44 -46 -34 -69 25 -61 50 7 96 26 96 39 0 6 -17 7 -41 3 l-41 -7 17 31 c24 47 12 71 -34 71 -21 0 -41 -3 -44 -7z"/>
<path d="M7175 7170 c-16 -25 14 -32 124 -28 69 2 115 8 123 16 9 9 -8 12 -84 12 -52 0 -109 3 -126 6 -18 4 -32 1 -37 -6z"/>
<path d="M5283 7081 c-57 -35 -114 -165 -99 -225 13 -54 114 -74 163 -32 35 31 27 41 -19 22 -35 -15 -72 -12 -96 7 -40 32 45 207 100 207 14 0 18 -8 18 -36 0 -30 3 -35 20 -32 12 2 21 6 20 11 0 4 0 20 0 36 0 58 -49 77 -107 42z"/>
<path d="M4539 7067 c-61 -41 -107 -136 -93 -192 3 -14 18 -35 33 -46 21 -17 37 -20 87 -17 63 4 103 23 85 41 -5 5 -17 5 -29 -2 -35 -19 -100 -13 -123 10 -17 17 -20 28 -14 57 9 50 41 100 79 123 56 34 96 20 96 -33 0 -21 5 -28 19 -28 11 0 22 4 25 8 10 16 -15 82 -34 92 -33 18 -95 12 -131 -13z"/>
<path d="M5011 7036 c-6 -7 -14 -27 -17 -44 -5 -27 -11 -31 -43 -34 -47 -4 -50 -32 -4 -36 30 -3 32 -6 35 -45 2 -29 8 -42 18 -42 11 0 16 13 18 47 3 43 6 47 33 53 36 8 38 25 3 25 -27 0 -28 11 -8 63 7 19 -21 30 -35 13z"/>
<path d="M4761 6886 c-5 -6 -11 -48 -13 -91 -3 -72 -1 -80 16 -80 14 0 19 9 21 45 1 25 6 63 10 86 6 32 4 42 -8 47 -9 3 -20 0 -26 -7z"/>
<path d="M5472 6883 c2 -10 12 -18 22 -18 29 0 30 -20 4 -55 l-23 -32 24 -19 c18 -15 21 -23 13 -31 -8 -8 -15 -8 -28 3 -14 11 -18 11 -30 -6 -10 -13 -11 -22 -3 -32 15 -17 34 -16 75 3 38 18 44 46 18 75 -15 16 -15 20 0 41 31 45 9 88 -45 88 -24 0 -30 -4 -27 -17z"/>
<path d="M6259 6317 c-75 -50 -132 -170 -110 -229 21 -54 93 -82 151 -58 47 19 37 33 -20 25 -44 -6 -52 -4 -76 20 -22 22 -25 31 -19 63 9 49 31 90 68 130 38 40 59 42 57 5 -3 -46 -1 -53 20 -53 17 0 20 7 20 50 0 38 -4 52 -19 60 -27 14 -34 13 -72 -13z"/>
<path d="M7010 6308 c-47 -32 -100 -135 -100 -194 0 -36 5 -47 26 -60 34 -23 98 -23 157 -1 47 19 69 47 25 32 -35 -12 -116 -18 -143 -11 -21 5 -25 12 -25 44 1 49 30 109 74 151 40 39 56 35 39 -9 -12 -32 -8 -40 18 -40 19 0 34 49 27 87 -5 28 -57 29 -98 1z"/>
<path d="M6627 6264 c-4 -4 -7 -29 -7 -55 0 -48 0 -48 -37 -51 -52 -4 -53 -33 -3 -33 l36 0 -4 -57 c-4 -47 -2 -58 11 -58 11 0 17 16 22 61 7 55 10 62 36 71 36 12 38 28 3 28 -24 0 -25 2 -22 47 2 36 -1 48 -12 50 -9 2 -19 1 -23 -3z"/>
<path d="M7223 6193 c-7 -2 -13 -14 -13 -25 0 -17 5 -20 30 -14 33 6 41 -12 15 -34 -22 -18 -18 -38 13 -65 32 -28 29 -33 -27 -43 -51 -8 -55 -25 -9 -33 18 -4 -16 -7 -77 -7 -60 -1 -327 -9 -592 -19 -396 -14 -483 -20 -483 -31 0 -15 70 -14 555 9 331 15 904 29 1205 29 472 0 800 11 800 27 0 10 -20 12 -97 8 -213 -10 -1268 -14 -1243 -4 47 19 50 40 11 79 -24 24 -26 31 -15 41 17 14 18 61 2 77 -12 12 -52 15 -75 5z"/>
<path d="M3560 6158 c-24 -39 -50 -151 -50 -212 0 -44 18 -76 43 -76 33 1 96 65 142 144 7 13 10 -17 10 -101 0 -97 3 -118 15 -121 12 -2 15 15 17 95 1 54 6 125 11 159 15 110 -10 114 -69 13 -42 -72 -104 -149 -120 -149 -26 0 6 174 40 221 25 34 26 45 5 53 -23 9 -23 9 -44 -26z"/>
<path d="M5360 6137 c-34 -17 -48 -32 -55 -56 -10 -33 -10 -33 -75 -29 -52 2 -65 0 -65 -12 0 -20 68 -30 128 -19 31 5 66 5 99 -2 l51 -11 -58 -32 c-71 -37 -125 -86 -125 -112 0 -41 16 -49 104 -52 74 -4 90 -1 125 19 41 22 53 39 29 39 -7 -1 -24 -7 -38 -15 -27 -15 -146 -20 -168 -7 -29 19 15 60 126 116 67 34 70 60 10 77 l-42 11 47 25 c45 25 65 52 52 73 -11 18 -98 10 -145 -13z m110 -12 c0 -8 -98 -55 -115 -55 -29 0 -15 21 28 40 39 18 87 26 87 15z"/>
<path d="M6430 6078 c-22 -37 -35 -91 -25 -107 14 -23 33 -10 39 27 3 22 15 51 27 65 11 15 17 31 14 37 -12 19 -35 10 -55 -22z"/>
<path d="M5797 5974 c-16 -16 -6 -35 16 -32 12 2 22 10 22 18 0 16 -26 25 -38 14z"/>
<path d="M4553 5943 c-62 -3 -83 -7 -83 -18 0 -20 12 -21 113 -13 131 10 178 18 172 29 -6 9 -24 9 -202 2z"/>
<path d="M4766 5873 c-3 -4 -66 -9 -138 -12 -99 -5 -133 -9 -136 -20 -4 -11 16 -13 114 -9 114 5 184 20 184 39 0 11 -14 12 -24 2z"/>
<path d="M4120 5771 c0 -59 4 -84 16 -95 19 -19 40 -21 51 -3 5 7 10 -3 13 -28 3 -27 10 -41 23 -43 15 -3 17 5 17 55 0 32 3 75 6 96 5 30 4 37 -10 37 -9 0 -21 -12 -27 -27 -6 -16 -18 -36 -27 -47 -16 -17 -17 -15 -22 55 -4 60 -8 74 -22 77 -16 3 -18 -6 -18 -77z"/>
<path d="M6335 5836 c-67 -30 -145 -138 -145 -200 0 -56 77 -92 143 -67 43 17 32 30 -26 28 -65 -1 -77 6 -77 47 0 37 38 96 89 139 43 36 61 35 61 -4 0 -26 3 -30 23 -27 19 3 22 8 19 38 -3 34 -24 60 -46 60 -6 -1 -24 -7 -41 -14z"/>
<path d="M3824 5826 c-14 -11 -16 -18 -7 -26 8 -9 20 -9 47 1 28 10 39 10 48 1 9 -9 -1 -24 -40 -66 -29 -30 -52 -61 -52 -69 0 -38 76 -54 138 -28 51 21 38 31 -33 24 -38 -3 -65 -2 -65 3 0 6 23 31 50 57 28 26 50 56 50 67 0 43 -93 67 -136 36z"/>
<path d="M8261 5814 c-86 -72 -100 -211 -24 -231 44 -11 105 -9 141 6 52 22 37 29 -47 24 -75 -5 -79 -5 -95 19 -12 18 -13 31 -6 58 13 48 45 96 70 110 21 11 22 10 15 -20 -6 -29 -5 -31 17 -28 20 3 23 9 23 43 0 37 -2 40 -31 43 -22 2 -40 -5 -63 -24z"/>
<path d="M6891 5806 c-33 -35 -61 -119 -61 -181 0 -47 3 -57 25 -71 29 -19 90 -14 114 10 21 21 9 29 -22 15 -33 -15 -73 -5 -80 21 -12 47 37 182 71 195 12 4 13 -3 8 -40 -7 -40 -5 -45 12 -45 11 0 23 7 26 16 10 26 7 79 -6 92 -20 20 -63 14 -87 -12z"/>
<path d="M7498 5780 c-47 -36 -88 -163 -69 -212 19 -51 116 -58 175 -13 27 21 13 29 -25 16 -45 -15 -94 -14 -109 4 -15 18 -6 74 20 125 33 64 90 96 62 35 -17 -37 -15 -47 10 -43 17 2 25 13 31 41 5 20 6 44 3 52 -8 22 -68 19 -98 -5z"/>
<path d="M7972 5768 c-7 -7 -12 -29 -12 -49 0 -37 0 -37 -36 -29 -36 8 -64 4 -64 -9 0 -17 27 -31 61 -31 33 0 38 -3 44 -30 9 -39 35 -40 35 -1 0 25 5 31 31 36 37 8 33 31 -5 27 -27 -4 -27 -3 -24 44 3 48 -8 64 -30 42z"/>
<path d="M6647 5763 c-4 -3 -7 -21 -7 -40 0 -30 -3 -33 -30 -33 -23 0 -30 -4 -30 -20 0 -16 7 -20 30 -20 28 0 30 -2 30 -40 0 -55 27 -55 36 0 6 34 11 41 36 48 40 10 40 26 -1 30 -32 3 -33 5 -28 37 4 24 1 35 -10 39 -18 7 -18 7 -26 -1z"/>
<path d="M7267 5744 c-4 -4 -7 -20 -7 -35 0 -23 -5 -28 -27 -31 -17 -2 -29 -10 -31 -20 -3 -14 3 -18 27 -18 30 0 31 -1 31 -50 0 -37 4 -50 15 -50 13 0 19 21 28 90 1 8 13 17 26 20 34 8 39 30 7 30 -21 0 -25 5 -28 32 -3 31 -25 48 -41 32z"/>
<path d="M8464 5663 c-35 -86 -24 -120 36 -111 28 4 30 3 30 -29 0 -26 4 -33 20 -33 15 0 20 7 20 25 0 14 11 53 25 87 31 75 31 78 2 78 -19 0 -26 -8 -36 -40 -9 -29 -18 -41 -37 -46 -36 -9 -40 0 -19 45 9 22 14 44 11 50 -14 22 -36 10 -52 -26z"/>
<path d="M6467 5643 c-21 -25 -59 -123 -53 -140 11 -27 32 -12 45 31 7 25 23 59 37 77 13 17 21 36 18 40 -8 14 -30 10 -47 -8z"/>
<path d="M7042 5639 c-33 -13 -22 -35 17 -31 42 3 39 -9 -10 -52 -56 -47 -49 -68 23 -64 57 3 82 28 28 28 l-32 0 31 29 c34 32 39 61 15 85 -17 18 -38 19 -72 5z"/>
<path d="M7680 5621 c0 -15 8 -21 33 -23 l32 -4 -27 -13 c-38 -19 -35 -38 7 -55 19 -8 38 -22 41 -31 8 -19 6 -20 -23 -29 -17 -6 -23 -3 -23 8 0 23 -28 20 -35 -4 -10 -33 4 -43 53 -37 81 9 102 72 36 108 -21 11 -22 14 -9 21 39 22 -2 78 -57 78 -21 0 -28 -5 -28 -19z"/>
<path d="M9534 5026 c-14 -11 -16 -17 -7 -27 9 -9 19 -9 43 0 70 24 68 -24 -2 -80 -64 -50 -72 -63 -52 -80 21 -17 215 -20 221 -3 5 14 -43 24 -119 24 l-60 0 51 46 c42 38 51 52 51 80 0 23 -6 37 -19 44 -28 14 -84 12 -107 -4z"/>
<path d="M4430 4786 c-68 -46 -130 -154 -130 -225 0 -72 82 -112 164 -81 45 17 29 29 -29 23 -68 -7 -95 11 -95 64 0 56 69 166 122 194 18 10 19 8 16 -28 -3 -35 -1 -38 22 -38 22 0 25 5 28 41 5 72 -36 93 -98 50z"/>
<path d="M6377 4772 c-46 -47 -78 -125 -111 -272 -53 -232 -58 -455 -12 -526 19 -28 52 -34 41 -6 -29 66 -34 97 -35 189 0 126 13 226 51 371 32 126 57 182 101 229 17 17 27 36 24 42 -11 17 -20 13 -59 -27z"/>
<path d="M8292 4766 c-42 -38 -80 -107 -89 -160 -8 -49 22 -76 85 -76 47 0 112 29 112 50 0 13 -1 13 -45 -6 -45 -18 -94 -15 -108 7 -16 25 17 100 64 148 49 51 64 52 43 4 -22 -53 -22 -58 0 -58 25 0 61 92 44 113 -20 23 -66 14 -106 -22z"/>
<path d="M7509 4766 c-117 -42 -201 -185 -140 -240 30 -27 93 -38 137 -23 63 20 55 38 -14 31 -74 -8 -102 5 -102 47 0 41 45 105 95 135 53 31 83 31 87 2 4 -31 42 -31 46 -1 4 25 -30 63 -55 63 -10 -1 -34 -7 -54 -14z"/>
<path d="M9400 4771 c0 -6 23 -40 51 -78 57 -75 81 -124 109 -226 39 -142 36 -259 -12 -407 -30 -92 -92 -214 -134 -260 -37 -41 -39 -69 -3 -49 30 16 107 141 145 234 86 210 83 435 -7 620 -48 99 -149 211 -149 166z"/>
<path d="M5700 4705 c-6 -8 -9 -19 -5 -25 8 -13 35 -13 35 0 0 14 63 13 77 -1 9 -9 1 -25 -33 -64 -24 -29 -44 -59 -44 -68 0 -22 31 -37 78 -37 93 0 144 29 55 31 -27 1 -58 4 -71 8 -23 6 -23 6 8 36 60 57 71 103 29 125 -28 15 -115 12 -129 -5z"/>
<path d="M7966 4712 c-2 -4 -7 -24 -11 -45 -7 -35 -9 -37 -47 -37 -32 0 -39 -3 -36 -17 3 -14 12 -17 39 -15 34 2 35 1 32 -30 -2 -18 1 -40 7 -48 9 -13 11 -13 20 0 5 8 10 29 10 47 0 25 5 33 30 42 37 12 41 35 5 29 -20 -4 -24 -2 -21 11 19 62 18 71 -2 71 -12 0 -23 -3 -26 -8z"/>
<path d="M8537 4643 c-30 -8 -16 -38 16 -35 36 4 34 -13 -3 -35 -39 -22 -38 -41 2 -55 31 -11 31 -11 9 -29 -12 -10 -42 -21 -66 -25 -54 -8 -58 -21 -10 -30 26 -5 47 0 82 17 63 32 75 54 44 80 l-24 20 22 23 c44 47 1 88 -72 69z"/>
<path d="M7666 4612 c-2 -4 -8 -40 -12 -81 -6 -68 -5 -73 12 -69 18 3 25 23 39 115 6 38 4 43 -14 43 -11 0 -22 -3 -25 -8z"/>
<path d="M4625 4600 c-9 -15 4 -30 26 -30 31 0 22 -27 -21 -62 -49 -38 -50 -68 -5 -80 34 -9 165 1 165 13 0 4 -35 11 -77 15 l-77 7 30 26 c50 42 57 64 33 95 -21 26 -62 35 -74 16z"/>
<path d="M5524 4596 c-42 -19 -74 -62 -74 -101 0 -28 -5 -35 -31 -44 -18 -6 -56 -11 -86 -11 -46 0 -54 -3 -51 -17 5 -27 71 -28 145 -3 38 13 72 19 85 14 22 -7 22 -7 -3 -28 -55 -48 -74 -108 -49 -156 23 -44 118 -43 174 1 38 30 22 42 -24 19 -44 -23 -90 -26 -108 -8 -28 28 -14 70 39 119 46 43 49 48 34 63 -9 9 -23 16 -31 16 -8 0 -14 5 -14 10 0 6 4 10 8 10 17 0 82 71 82 90 0 19 -27 40 -52 40 -7 -1 -27 -7 -44 -14z m43 -54 c-9 -9 -29 -25 -46 -35 -30 -18 -31 -18 -31 1 0 22 25 47 60 60 30 12 39 -2 17 -26z"/>
<path d="M3360 4525 c-7 -8 -27 -61 -45 -117 -35 -112 -36 -112 -56 15 -8 50 -17 81 -26 84 -30 12 -33 -13 -13 -102 24 -114 38 -152 55 -159 24 -9 41 19 66 111 l24 88 6 -90 c7 -104 22 -145 54 -145 32 0 52 27 90 124 19 48 43 102 54 120 21 33 19 46 -5 46 -15 0 -45 -56 -94 -172 -17 -43 -35 -78 -40 -78 -13 0 -20 57 -20 157 0 117 -17 158 -50 118z"/>
<path d="M3793 4387 c-14 -23 22 -29 150 -26 120 4 160 10 146 23 -9 8 -291 11 -296 3z"/>
<path d="M4315 4390 c-18 -29 10 -32 259 -25 138 4 255 10 260 13 25 15 -50 21 -271 21 -151 1 -244 -3 -248 -9z"/>
<path d="M5027 4394 c-16 -16 -6 -34 19 -34 19 0 25 5 22 17 -3 19 -29 29 -41 17z"/>
<path d="M8940 4390 c-107 -4 -366 -13 -575 -20 -313 -11 -455 -11 -805 -1 -464 14 -990 7 -990 -13 0 -16 1603 -20 1945 -5 143 6 407 14 588 18 207 4 327 10 327 16 0 12 -217 14 -490 5z"/>
<path d="M5990 4370 c0 -16 5 -21 23 -18 12 2 22 10 22 18 0 8 -10 16 -22 18 -18 3 -23 -2 -23 -18z"/>
<path d="M9850 4371 c-45 -8 -49 -37 -5 -35 71 3 165 16 165 24 0 18 -84 25 -160 11z"/>
<path d="M3875 4290 c-14 -22 16 -34 83 -34 37 1 86 6 110 13 54 15 56 35 2 26 -52 -9 -141 -9 -167 -1 -12 4 -24 2 -28 -4z"/>
<path d="M9803 4254 c-22 -9 -14 -31 11 -36 14 -3 57 -6 98 -7 64 -1 71 1 55 13 -10 8 -39 17 -65 21 -26 3 -56 8 -67 10 -11 2 -26 1 -32 -1z"/>
<path d="M4507 4235 c-9 -21 8 -27 56 -20 29 4 48 2 61 -8 19 -14 18 -16 -22 -43 -124 -85 -163 -116 -159 -127 10 -32 234 -31 245 1 3 9 -4 12 -19 11 -13 -1 -55 -1 -94 0 l-70 2 30 22 c16 12 52 36 79 52 102 61 82 125 -39 125 -46 0 -64 -4 -68 -15z"/>
<path d="M6809 4206 c-70 -48 -133 -171 -110 -214 19 -35 101 -51 160 -31 49 17 37 26 -34 25 -84 -1 -103 14 -85 70 13 37 94 134 112 134 6 0 8 -14 4 -35 -6 -32 -5 -35 17 -35 20 0 26 6 31 35 14 72 -30 95 -95 51z"/>
<path d="M7514 4201 c-40 -24 -71 -75 -80 -129 -6 -37 -3 -44 25 -73 30 -29 35 -31 91 -27 57 4 95 22 84 39 -3 5 -13 5 -24 -1 -28 -15 -93 -12 -118 6 -28 19 -28 46 -1 101 19 39 60 73 88 73 5 0 11 -17 13 -37 2 -26 8 -38 18 -38 19 0 26 70 9 91 -16 20 -68 17 -105 -5z"/>
<path d="M8780 4195 c-5 -14 -13 -37 -16 -50 -5 -22 -12 -25 -50 -25 -31 0 -44 -4 -44 -14 0 -16 21 -26 56 -26 20 0 23 -5 22 -33 -1 -19 2 -39 6 -45 13 -21 26 -13 26 16 0 57 10 72 47 72 41 0 41 23 0 28 -32 4 -31 0 -12 45 20 48 19 57 -5 57 -13 0 -24 -10 -30 -25z"/>
<path d="M8285 4178 c-64 -56 -93 -139 -60 -172 23 -22 78 -30 119 -16 52 17 44 29 -19 27 -62 -1 -80 10 -72 45 9 33 47 88 74 105 22 14 22 14 16 -21 -5 -31 -3 -36 15 -36 15 0 21 9 26 36 13 69 -38 86 -99 32z"/>
<path d="M9000 4178 c-34 -23 -83 -102 -94 -149 -13 -58 57 -92 142 -70 55 15 55 33 0 30 -85 -5 -98 -1 -98 26 0 32 24 82 58 118 31 32 49 36 28 5 -21 -30 -20 -48 2 -48 22 0 58 70 49 94 -9 23 -49 20 -87 -6z"/>
<path d="M3535 4176 c-24 -17 -13 -50 14 -41 12 3 21 0 25 -10 8 -21 -4 -42 -43 -79 -17 -17 -31 -36 -31 -43 0 -33 111 -40 175 -11 44 20 27 27 -52 22 -58 -4 -74 -2 -61 5 9 6 26 27 38 46 25 40 21 74 -10 105 -24 24 -30 24 -55 6z"/>
<path d="M7228 4143 c-3 -45 -5 -48 -33 -53 -42 -7 -41 -35 1 -34 31 2 32 1 26 -38 -7 -54 18 -48 34 8 8 27 17 40 34 44 34 8 38 30 5 30 -25 0 -27 2 -23 43 3 37 0 42 -19 45 -20 3 -22 -2 -25 -45z"/>
<path d="M8006 4155 c-3 -9 -6 -29 -6 -45 0 -24 -5 -29 -27 -32 -34 -4 -38 -32 -5 -36 19 -3 22 -9 22 -53 0 -35 4 -49 14 -49 9 0 16 17 21 50 6 42 10 50 28 50 32 0 67 11 67 20 0 5 -18 11 -40 15 -40 7 -40 7 -38 48 2 31 -1 42 -13 45 -9 1 -19 -4 -23 -13z"/>
<path d="M7703 4078 c-26 -12 -31 -48 -8 -48 9 0 27 7 40 16 38 25 30 4 -21 -54 -31 -35 -44 -59 -42 -74 3 -24 28 -34 56 -23 16 6 15 8 -2 20 -18 14 -17 17 28 65 36 39 47 57 44 78 -3 23 -8 27 -38 29 -19 1 -45 -3 -57 -9z"/>
<path d="M7001 4067 c-36 -44 -55 -179 -27 -190 21 -8 26 2 26 47 0 23 9 61 20 85 11 24 20 49 20 57 0 18 -24 18 -39 1z"/>
<path d="M9182 4058 c-16 -21 -35 -95 -28 -113 5 -13 15 -16 49 -13 23 3 50 8 60 12 14 7 17 3 17 -25 0 -38 15 -68 27 -55 7 7 29 113 36 171 4 36 -37 25 -48 -13 -7 -26 -17 -35 -47 -44 -49 -14 -57 -6 -34 37 19 34 15 55 -8 55 -8 0 -18 -6 -24 -12z"/>
<path d="M8411 4051 c-17 -11 -7 -41 14 -41 11 0 14 -6 9 -24 -5 -20 0 -25 25 -34 20 -7 31 -18 31 -30 0 -27 -23 -45 -38 -30 -16 16 -35 -3 -30 -28 5 -29 49 -29 81 0 34 32 36 77 5 103 -16 12 -23 29 -23 53 0 32 -3 35 -30 38 -16 1 -36 -2 -44 -7z"/>
<path d="M6166 3148 c-53 -86 -86 -158 -115 -252 -60 -195 -90 -569 -57 -717 19 -88 47 -139 76 -139 25 0 25 5 1 29 -82 82 -77 482 9 798 25 92 60 170 116 259 47 76 53 94 30 94 -8 0 -35 -33 -60 -72z"/>
<path d="M5345 3139 c-11 -17 3 -24 41 -20 38 3 84 -21 84 -43 0 -8 -20 -32 -44 -53 -60 -53 -75 -86 -51 -113 21 -23 74 -40 128 -40 54 0 45 15 -17 29 -29 6 -62 18 -72 26 -18 13 -16 17 39 73 68 69 71 93 18 129 -36 24 -114 32 -126 12z"/>
<path d="M9722 3139 c-13 -5 -22 -15 -19 -21 3 -9 23 -12 69 -10 90 5 95 -8 24 -73 -31 -29 -56 -57 -56 -63 0 -24 34 -41 121 -61 110 -26 126 -26 110 -7 -7 8 -50 24 -97 37 -46 12 -84 27 -84 34 0 6 18 24 39 41 49 36 64 59 56 86 -13 38 -107 60 -163 37z"/>
<path d="M9546 3031 c-3 -5 6 -56 20 -113 66 -265 31 -615 -91 -892 -20 -44 -39 -87 -42 -93 -3 -8 2 -13 11 -13 34 0 119 214 156 393 47 226 49 391 6 607 -17 84 -27 116 -38 118 -9 2 -19 -1 -22 -7z"/>
<path d="M4655 2942 c-68 -42 -145 -162 -145 -228 0 -42 33 -81 78 -94 57 -15 147 -13 162 5 11 13 4 15 -56 15 -135 0 -172 48 -119 155 28 59 90 121 130 131 16 4 34 0 50 -10 31 -20 44 -20 52 -1 15 42 -96 61 -152 27z"/>
<path d="M5145 2916 c-35 -16 -70 -52 -79 -83 -4 -12 -17 -23 -29 -25 -12 -2 -23 -12 -25 -22 -4 -17 0 -18 32 -13 20 3 36 2 36 -3 0 -4 18 -17 40 -28 39 -19 39 -19 19 -38 -11 -10 -19 -27 -17 -38 9 -62 158 -55 222 9 20 21 20 35 1 35 -8 0 -15 -4 -15 -8 0 -16 -71 -42 -115 -42 -56 0 -66 15 -20 34 49 21 44 40 -17 62 -28 11 -53 24 -55 30 -2 6 16 18 40 28 23 9 58 29 77 45 29 25 33 32 24 48 -14 23 -78 28 -119 9z m80 -26 c-9 -14 -106 -63 -112 -56 -8 8 8 27 41 47 33 20 82 26 71 9z"/>
<path d="M8275 2919 c-72 -41 -135 -141 -135 -215 0 -72 47 -92 182 -74 128 17 125 24 -12 30 l-125 5 0 50 c1 58 29 112 78 149 52 39 75 42 87 12 10 -28 35 -35 43 -12 3 7 0 24 -7 37 -9 18 -21 25 -51 26 -22 2 -49 -2 -60 -8z"/>
<path d="M6990 2913 c-23 -9 -30 -26 -18 -40 12 -15 38 -17 38 -3 0 15 26 12 40 -5 21 -25 -2 -58 -74 -110 -36 -26 -66 -53 -66 -61 0 -24 50 -36 128 -31 115 7 115 25 0 35 l-73 7 37 23 c50 31 98 88 98 116 0 48 -64 88 -110 69z"/>
<path d="M7273 2891 c-39 -28 -93 -116 -93 -150 0 -35 39 -79 84 -96 54 -21 149 -17 172 7 14 14 9 15 -58 14 -112 -2 -166 33 -151 95 13 52 111 150 121 121 4 -13 34 -17 45 -6 3 4 2 15 -4 25 -15 29 -69 24 -116 -10z"/>
<path d="M7868 2837 c-46 -137 -35 -173 52 -171 l47 0 -5 -43 c-4 -34 -1 -43 11 -43 10 0 19 17 27 53 7 28 15 56 18 62 3 5 7 16 7 25 1 8 7 39 14 68 10 38 10 57 3 64 -18 18 -39 -8 -45 -55 -12 -84 -21 -97 -72 -97 -43 0 -45 2 -45 28 1 15 14 60 30 101 30 77 31 91 2 91 -12 0 -25 -23 -44 -83z"/>
<path d="M7601 2871 c-6 -11 -11 -38 -11 -60 l0 -41 -45 0 c-39 0 -45 -3 -45 -21 0 -19 5 -21 45 -17 l45 3 0 -57 c0 -50 12 -80 26 -65 3 3 8 31 11 63 6 64 14 74 54 74 15 0 32 7 39 15 11 13 6 15 -40 15 l-52 0 4 52 c3 55 -12 75 -31 39z"/>
<path d="M9015 2605 c-137 -7 -428 -18 -645 -24 -217 -7 -498 -16 -625 -22 -126 -5 -495 -9 -820 -7 -505 1 -590 -1 -590 -13 0 -21 1092 -19 1705 4 845 31 1053 39 1252 44 153 4 198 9 202 19 7 17 -119 17 -479 -1z"/>
<path d="M3886 2584 c-11 -28 32 -36 155 -29 181 11 151 26 -78 38 -54 3 -73 1 -77 -9z"/>
<path d="M5726 2584 c-31 -30 -9 -54 30 -33 28 14 31 34 8 43 -21 8 -20 8 -38 -10z"/>
<path d="M10183 2593 c-74 -3 -83 -6 -83 -23 0 -18 6 -19 120 -13 87 4 120 3 120 -5 0 -7 9 -12 20 -12 11 0 20 6 20 14 0 35 -52 46 -197 39z"/>
<path d="M5165 2569 c-60 -4 -227 -12 -370 -19 -146 -6 -264 -15 -270 -21 -12 -12 10 -28 34 -23 18 4 538 33 764 43 84 3 148 10 150 16 3 13 -161 15 -308 4z"/>
<path d="M3910 2457 c0 -21 21 -27 125 -34 93 -6 165 1 165 16 0 4 -48 11 -107 14 -60 4 -125 9 -145 13 -30 5 -38 3 -38 -9z"/>
<path d="M10108 2458 c-16 -5 -28 -16 -28 -23 0 -11 27 -14 118 -17 64 -2 119 -2 122 0 3 2 -4 10 -14 18 -13 9 -45 14 -86 14 -36 0 -70 4 -75 9 -6 5 -22 4 -37 -1z"/>
<path d="M4873 2443 c-20 -3 -33 -10 -33 -19 0 -11 20 -14 105 -12 58 1 108 -2 112 -6 13 -13 -14 -40 -80 -81 -83 -50 -102 -69 -93 -90 5 -15 18 -17 79 -13 68 4 178 40 164 54 -3 3 -36 -2 -74 -11 -38 -9 -82 -15 -98 -13 -28 3 -26 5 40 44 84 50 108 74 103 106 -5 39 -99 56 -225 41z"/>
<path d="M7952 2342 c-91 -140 -81 -202 30 -189 l49 6 -6 -53 c-5 -37 -3 -56 5 -61 18 -11 22 -2 36 90 8 47 23 104 34 126 19 36 19 40 4 46 -22 8 -51 -27 -60 -72 -6 -34 -11 -38 -71 -50 -57 -11 -56 23 2 119 19 32 35 65 35 72 0 29 -29 12 -58 -34z"/>
<path d="M8283 2346 c-47 -42 -94 -125 -95 -167 -2 -47 28 -70 100 -76 64 -6 132 2 132 16 0 5 -39 11 -86 13 -67 4 -90 8 -99 22 -22 29 5 96 63 159 34 35 44 34 40 -5 -2 -24 1 -33 14 -36 12 -2 19 6 23 31 10 53 3 72 -27 75 -19 2 -38 -7 -65 -32z"/>
<path d="M7360 2344 c-55 -47 -99 -160 -80 -209 18 -48 130 -72 209 -44 49 17 37 30 -23 23 -65 -8 -120 1 -141 23 -19 18 -13 57 17 118 40 80 74 99 63 36 -4 -25 -2 -41 5 -46 18 -11 31 8 37 54 10 71 -30 92 -87 45z"/>
<path d="M7730 2344 c-6 -14 -10 -41 -10 -60 0 -34 0 -34 -53 -34 -30 0 -57 -3 -60 -7 -15 -14 18 -33 59 -33 l44 0 -6 -56 c-6 -45 -4 -56 7 -52 12 4 16 15 33 89 4 21 14 28 40 33 32 6 65 31 54 41 -3 3 -19 0 -36 -6 -46 -16 -51 -10 -37 46 7 27 11 53 8 57 -10 17 -34 7 -43 -18z"/>
<path d="M6491 2351 c-8 -5 -11 -16 -7 -26 5 -13 16 -16 51 -13 66 5 59 -19 -30 -106 -41 -40 -75 -80 -75 -89 0 -21 49 -31 119 -22 70 8 91 14 91 26 0 5 -37 9 -82 9 l-83 0 52 45 c92 80 119 141 77 172 -20 15 -92 17 -113 4z"/>
<path d="M8865 2346 c-26 -19 -9 -48 25 -41 22 5 32 0 54 -25 40 -49 34 -69 -39 -137 -36 -33 -65 -65 -65 -71 0 -27 50 -45 106 -39 59 6 140 49 128 68 -4 6 -16 4 -32 -7 -32 -21 -97 -34 -134 -27 -26 5 -26 6 39 68 63 61 66 65 60 101 -11 67 -103 139 -142 110z"/>
<path d="M6794 2331 c-34 -21 -69 -70 -79 -113 -11 -42 12 -95 53 -123 49 -33 132 -33 132 0 0 9 -11 12 -38 8 -31 -4 -44 0 -69 21 -18 15 -35 36 -38 47 -9 29 12 82 45 114 29 28 30 28 44 9 14 -18 16 -18 33 -1 14 13 15 21 7 35 -16 24 -54 26 -90 3z"/>
<path d="M9175 2321 c-59 -36 -95 -100 -95 -169 0 -43 24 -73 74 -92 40 -15 156 -14 189 1 33 15 36 33 5 23 -40 -14 -147 -6 -186 13 -35 17 -37 20 -37 68 1 62 31 110 83 132 42 18 50 11 54 -47 2 -32 7 -45 18 -45 19 0 27 100 9 121 -16 20 -78 17 -114 -5z"/>
<path d="M8667 2313 c-3 -5 -10 -27 -16 -50 -11 -40 -14 -43 -43 -40 -24 1 -33 -3 -36 -16 -3 -13 5 -19 28 -24 31 -6 32 -7 25 -50 -8 -52 1 -83 22 -83 9 0 13 6 9 15 -3 9 -1 37 5 64 10 47 11 48 56 57 64 12 71 36 8 27 -46 -6 -46 -6 -39 23 4 16 11 37 15 46 5 9 9 21 9 27 0 12 -36 15 -43 4z"/>
<path d="M7087 2303 c-3 -5 -10 -27 -16 -50 -10 -38 -15 -43 -49 -48 -55 -10 -62 -13 -62 -31 0 -14 7 -16 45 -11 l45 7 -7 -60 c-5 -50 -3 -60 9 -60 11 0 19 19 28 65 11 58 15 65 35 65 13 0 30 3 39 6 28 11 17 24 -20 24 -32 0 -35 2 -28 23 3 12 11 28 16 34 6 7 8 20 4 28 -6 16 -31 21 -39 8z"/>
<path d="M5733 1474 c-7 -3 -13 -14 -13 -24 0 -16 6 -18 53 -13 57 5 107 -9 107 -30 0 -8 -18 -27 -41 -42 -98 -69 -68 -125 66 -125 81 0 85 15 6 24 -32 4 -66 13 -76 20 -18 13 -18 14 1 29 10 9 34 28 52 43 42 34 41 70 -3 96 -31 18 -130 32 -152 22z"/>
<path d="M5084 1281 c-60 -37 -114 -129 -114 -195 0 -25 7 -40 26 -55 31 -25 101 -36 149 -25 37 9 46 31 10 26 -11 -2 -44 0 -73 3 -72 9 -89 33 -67 96 16 44 89 129 111 129 6 0 14 -13 18 -30 4 -21 11 -30 26 -30 22 0 25 15 9 57 -18 48 -45 55 -95 24z"/>
<path d="M4657 1276 c-40 -15 -67 -33 -67 -47 0 -16 32 -39 57 -39 22 0 24 3 19 24 -7 27 7 36 55 36 28 0 34 -8 29 -40 -1 -8 -35 -49 -76 -90 -75 -76 -86 -98 -60 -119 30 -25 165 -23 166 3 0 5 -27 10 -60 10 -33 1 -65 7 -70 12 -7 7 14 33 61 79 92 90 107 127 69 165 -23 23 -68 25 -123 6z"/>
<path d="M5528 1274 c-32 -17 -58 -61 -58 -97 0 -28 -21 -37 -83 -37 -31 0 -38 -3 -35 -17 4 -25 40 -28 95 -9 55 19 73 9 49 -25 -20 -29 -21 -73 -1 -89 38 -31 158 -20 207 19 26 22 17 41 -11 24 -58 -36 -171 -38 -171 -3 0 22 28 47 63 55 41 11 33 32 -15 39 l-42 7 35 20 c76 46 105 89 77 117 -16 16 -77 14 -110 -4z m82 -28 c0 -7 -11 -21 -25 -30 -83 -53 -75 -51 -75 -27 0 12 12 33 26 46 29 27 74 34 74 11z"/>
<path d="M3812 1014 c3 -17 14 -19 138 -20 74 0 147 -4 163 -8 18 -6 27 -4 27 3 0 22 -57 34 -193 39 -132 4 -139 4 -135 -14z"/>
<path d="M4945 880 c-470 -5 -500 -6 -503 -23 -3 -16 4 -17 85 -13 48 3 279 8 513 11 497 6 730 15 730 27 0 4 -73 7 -162 6 -90 -2 -388 -5 -663 -8z"/>
<path d="M3773 874 c-7 -3 -13 -12 -13 -20 0 -21 258 -20 286 1 17 13 7 14 -101 15 -66 0 -129 2 -140 5 -11 2 -26 2 -32 -1z"/>
<path d="M5022 700 c-85 -52 -53 -121 64 -137 24 -3 44 -9 44 -13 0 -12 -95 -97 -128 -114 -49 -25 -68 -10 -63 52 1 18 -3 22 -25 22 -26 0 -26 -2 -21 -42 6 -46 35 -78 69 -78 53 0 156 79 207 158 54 85 53 134 -5 158 -47 20 -103 17 -142 -6z m122 -20 c26 -10 34 -38 20 -74 -11 -29 -127 -11 -148 22 -25 41 63 77 128 52z"/>
</g><g transform="translate(977.883208, 1206.6128065993842) scale(0.40808740102544044)"><g transform="translate(-57.706759,297.537395) scale(0.100000,-0.100000)" fill="#4444bb" stroke="none">
<path d="M750 2973 c-57 -10 -88 -25 -119 -57 -40 -41 -55 -100 -46 -179 6 -45 12 -61 32 -77 32 -25 35 -25 64 -1 22 17 24 26 21 89 -4 105 24 120 164 87 33 -7 119 -19 190 -25 88 -8 134 -16 144 -26 32 -32 8 -420 -28 -456 -18 -18 -126 -28 -289 -28 -185 0 -206 -4 -250 -52 -55 -58 -58 -82 -55 -363 1 -145 7 -274 13 -293 11 -34 51 -62 89 -62 12 0 35 14 52 31 l31 30 -6 238 c-3 130 -3 249 0 264 l5 27 112 0 c234 1 363 26 423 82 58 54 98 260 91 463 -4 122 -7 138 -34 191 -40 81 -79 100 -217 108 -174 10 -361 14 -387 9z" fill="#4444bb"/>
<path d="M3660 2971 c-42 -9 -83 -34 -103 -65 -39 -59 -50 -127 -54 -343 -5 -206 -5 -212 18 -252 28 -50 78 -86 143 -102 48 -12 257 -8 370 7 l49 7 -7 -104 c-4 -57 -11 -189 -16 -294 -9 -177 -9 -192 8 -214 35 -47 100 -46 136 2 22 29 27 86 42 452 7 191 0 235 -44 283 -45 48 -92 56 -241 38 -146 -18 -229 -20 -265 -6 l-26 10 0 162 c0 156 8 230 27 249 5 5 99 6 210 2 l201 -6 5 -50 c3 -39 11 -56 31 -74 34 -29 48 -29 80 0 24 20 26 30 28 113 4 147 -23 169 -218 179 -242 11 -340 13 -374 6z" fill="#4444bb"/>
<path d="M1565 2945 c-14 -13 -25 -32 -25 -42 0 -10 -1 -297 -3 -638 -2 -677 -3 -662 55 -694 33 -19 73 -7 101 31 18 24 20 51 29 300 5 150 10 278 12 283 2 6 37 8 97 3 52 -3 135 -7 186 -7 154 -2 161 -10 143 -176 -21 -189 -27 -310 -18 -343 12 -45 45 -72 86 -72 71 0 102 46 102 151 0 33 7 118 16 187 24 190 9 280 -58 349 -50 52 -112 67 -263 65 -71 -1 -164 -6 -205 -11 -41 -4 -78 -7 -81 -5 -4 2 -10 108 -13 236 -9 286 -17 352 -47 384 -31 33 -82 32 -114 -1z" fill="#4444bb"/>
<path d="M2542 2944 c-55 -38 -64 -109 -53 -419 6 -186 9 -215 28 -250 50 -95 116 -125 302 -135 75 -4 171 -5 215 -1 l78 7 -4 -178 c-2 -97 -7 -181 -11 -184 -4 -4 -42 1 -85 11 -104 26 -285 27 -363 3 -106 -33 -149 -107 -99 -170 26 -34 68 -41 132 -21 74 23 202 20 308 -7 182 -47 274 5 301 168 12 77 27 831 19 994 -7 152 -20 181 -86 186 -88 7 -103 -51 -104 -401 l0 -219 -201 4 c-197 3 -201 3 -220 27 -18 21 -19 42 -19 283 l0 260 -29 29 c-33 33 -74 38 -109 13z" fill="#4444bb"/>
<path d="M2374 1391 c-55 -34 -79 -78 -79 -147 0 -51 4 -66 27 -96 35 -45 102 -73 153 -64 78 15 146 111 131 188 -20 108 -145 172 -232 119z" fill="#4444bb"/>
<path d="M1853 999 c-39 -11 -66 -56 -61 -101 6 -59 69 -64 76 -6 4 30 34 38 145 38 l67 0 0 -110 c0 -135 -1 -136 -132 -126 -85 6 -89 6 -113 -18 -24 -25 -25 -28 -25 -179 0 -162 4 -177 47 -177 35 0 43 29 43 159 l0 121 73 0 c85 0 141 14 168 41 17 17 19 34 19 169 0 147 -1 152 -25 175 -23 24 -30 25 -137 24 -62 0 -128 -5 -145 -10z" fill="#4444bb"/>
<path d="M2985 1000 c-91 -16 -93 -18 -104 -58 -15 -51 -14 -537 0 -564 19 -36 69 -48 204 -48 121 0 127 1 151 25 l24 24 -2 292 -3 292 -26 19 c-31 23 -161 33 -244 18z m169 -86 c14 -5 16 -37 16 -250 l0 -245 -102 3 -103 3 0 240 0 240 40 6 c57 9 131 10 149 3z" fill="#4444bb"/>
<path d="M2351 971 c-24 -24 -29 -73 -37 -372 -6 -232 -6 -237 15 -258 23 -23 29 -25 51 -11 12 7 16 40 20 150 l5 141 35 -23 c19 -13 59 -55 88 -93 30 -39 78 -96 108 -128 47 -51 56 -57 74 -47 29 16 25 42 -15 92 -19 24 -62 78 -95 121 -61 77 -61 77 -33 77 15 0 46 9 69 19 56 26 67 57 62 179 -6 156 -27 172 -220 172 -93 0 -111 -3 -127 -19z m257 -74 c16 -13 17 -168 0 -185 -7 -7 -41 -12 -84 -12 -40 0 -84 -4 -98 -10 l-26 -10 0 120 0 119 98 -6 c53 -3 103 -10 110 -16z" fill="#4444bb"/>
</g>
</g>
</svg>
