<?xml version="1.0" encoding="UTF-8" standalone="no"?>
<svg
   width="385.16339pt"
   height="295.17947pt"
   viewBox="0 0 385.16338 295.17948"
   version="1.1"
   id="svg19"
   sodipodi:docname="859t.svg"
   xmlns:inkscape="http://www.inkscape.org/namespaces/inkscape"
   xmlns:sodipodi="http://sodipodi.sourceforge.net/DTD/sodipodi-0.dtd"
   xmlns:xlink="http://www.w3.org/1999/xlink"
   xmlns="http://www.w3.org/2000/svg"
   xmlns:svg="http://www.w3.org/2000/svg"
   xmlns:rdf="http://www.w3.org/1999/02/22-rdf-syntax-ns#"
   xmlns:cc="http://creativecommons.org/ns#"
   xmlns:dc="http://purl.org/dc/elements/1.1/">
  <sodipodi:namedview
     id="namedview19"
     pagecolor="#ffffff"
     bordercolor="#000000"
     borderopacity="0.25"
     inkscape:showpageshadow="2"
     inkscape:pageopacity="0.0"
     inkscape:pagecheckerboard="0"
     inkscape:deskcolor="#d1d1d1"
     inkscape:document-units="pt" />
  <metadata
     id="metadata1">
    <rdf:RDF>
      <cc:Work>
        <dc:type
           rdf:resource="http://purl.org/dc/dcmitype/StillImage" />
        <dc:date>2024-01-30T16:45:33.964911</dc:date>
        <dc:format>image/svg+xml</dc:format>
        <dc:creator>
          <cc:Agent>
            <dc:title>Matplotlib v3.7.1, https://matplotlib.org/</dc:title>
          </cc:Agent>
        </dc:creator>
      </cc:Work>
    </rdf:RDF>
  </metadata>
  <defs
     id="defs1">
    <style
       type="text/css"
       id="style1">*{stroke-linejoin: round; stroke-linecap: butt}</style>
  </defs>
  <g
     id="figure_1"
     transform="translate(-7.38,-15.33375)">
    <g
       id="axes_1">
      <g
         id="matplotlib.axis_1">
        <g
           id="xtick_1">
          <g
             id="line2d_1" />
          <g
             id="text_1">
            <!-- $V$ -->
            <g
               transform="matrix(0.36,0,0,-0.36,365.93714,310.40634)"
               id="g2">
              <defs
                 id="defs2">
                <path
                   id="STIXTwoText-Italic-56"
                   d="m 1504,-32 2349,3360 c 390,582 518,685 864,685 l 13,192 H 3347 l -13,-192 c 288,0 384,-39 384,-167 0,-102 -83,-249 -198,-422 L 2144,1363 1773,800 h -32 l -45,749 -192,1824 c 0,45 -19,185 -19,230 -19,288 185,410 512,410 l 19,192 H 448 l -13,-192 c 339,0 448,-154 499,-583 L 1293,-32 Z"
                   transform="scale(0.015625)" />
              </defs>
              <use
                 xlink:href="#STIXTwoText-Italic-56"
                 transform="translate(0,0.296875)"
                 id="use2" />
            </g>
          </g>
        </g>
        <g
           id="xtick_2">
          <g
             id="line2d_2" />
          <g
             id="text_2">
            <!-- $0$ -->
            <g
               transform="matrix(0.36,0,0,-0.36,11.337143,310.40634)"
               id="g3">
              <defs
                 id="defs3">
                <path
                   id="STIXTwoText-Regular-30"
                   d="m 1581,-70 c 1005,0 1414,1004 1414,2099 0,1318 -576,2080 -1401,2080 C 666,4109 173,3264 173,2048 173,915 550,-70 1581,-70 Z m 0,230 c -512,0 -794,614 -794,1856 0,1267 282,1875 787,1875 525,0 800,-601 800,-1901 C 2374,762 2086,160 1581,160 Z"
                   transform="scale(0.015625)" />
              </defs>
              <use
                 xlink:href="#STIXTwoText-Regular-30"
                 transform="translate(0,0.796875)"
                 id="use3" />
            </g>
          </g>
        </g>
      </g>
      <g
         id="matplotlib.axis_2">
        <g
           id="ytick_1">
          <g
             id="line2d_3" />
          <g
             id="text_3">
            <!-- $p$ -->
            <g
               transform="matrix(0.36,0,0,-0.36,7.2,32.61375)"
               id="g4">
              <defs
                 id="defs4">
                <path
                   id="STIXTwoText-Italic-70"
                   d="m 1440,-70 c 966,0 1683,832 1683,2035 0,742 -384,1101 -864,1101 -320,0 -589,-186 -883,-532 v 7 h -26 l 90,493 h -122 l -915,-96 v -160 c 0,0 109,12 205,12 166,0 237,-57 237,-185 0,-45 -7,-83 -13,-122 L 32,-1408 h 1254 l 45,173 c -512,0 -646,173 -646,320 0,89 13,205 25,269 L 864,96 C 992,19 1242,-70 1440,-70 Z m -506,486 320,1549 c 173,390 423,742 820,742 179,0 486,-134 486,-742 C 2560,838 2138,205 1485,205 1222,205 1043,320 934,416 Z"
                   transform="scale(0.015625)" />
              </defs>
              <use
                 xlink:href="#STIXTwoText-Italic-70"
                 transform="translate(0,0.09375)"
                 id="use4" />
            </g>
          </g>
        </g>
      </g>
      <g
         id="line2d_4">
        <path
           d="m 115.99429,217.5983 v -1.35272 -1.35273 -1.35273 -1.35273 -1.35272 -1.35273 -1.35273 -1.35273 -1.35272 -1.35273 -1.35273 -1.35272 -1.35273 -1.35273 -1.35273 -1.35272 -1.35273 -1.35273 -1.35272 -1.35273 -1.35273 -1.35273 -1.35272 -1.35273 -1.35273 -1.35273 -1.35272 -1.35273 -1.35273 -1.35273 -1.35272 -1.35273 -1.35273 -1.35272 -1.35273 -1.35273 -1.35273 -1.35272 -1.35273 -1.35273 -1.35273 -1.35272 -1.35273 -1.35273 -1.35272 -1.35273 -1.35273 -1.35273 -1.35272 -1.35273 -1.35273 -1.35273 -1.35272 -1.35273 -1.35273 -1.35272 -1.35273 -1.35273 -1.35273 -1.35272 -1.35273 -1.35273 -1.35273 -1.35272 -1.35273 -1.35273 -1.35272 -1.35273 -1.35273 -1.35273 -1.35272 -1.35273 -1.35273 -1.35272 -1.35273 -1.35273 -1.35273 -1.35272 -1.35273 -1.35273 -1.35273 -1.35272 -1.35273 -1.35273 -1.35273 -1.35272 -1.352729 -1.352727 -1.352728 -1.352727 -1.352727 -1.352728 -1.352727 -1.352727 -1.352727 -1.352728 -1.352727 -1.352727 -1.352727"
           clip-path="url(#p42f6b2be0d)"
           style="fill:none;stroke:#000000;stroke-width:2;stroke-linecap:square"
           id="path4" />
      </g>
      <g
         id="line2d_5">
        <path
           d="m 115.99429,83.678304 h 1.77142 1.77143 1.77143 1.77143 1.77143 1.77143 1.77143 1.77142 1.77143 1.77143 1.77143 1.77143 1.77143 1.77143 1.77142 1.77143 1.77143 1.77143 1.77143 1.77143 1.77143 1.77142 1.77143 1.77143 1.77143 1.77143 1.77143 1.77143 1.77142 1.77143 1.77143 1.77143 1.77143 1.77143 1.77143 1.77142 1.77143 1.77143 1.77143 1.77143 1.77143 1.77143 1.77142 1.77143 1.77143 1.77143 1.77143 1.77143 1.77143 1.77142 1.77143 1.77143 1.77143 1.77143 1.77143 1.77143 1.77142 1.77143 1.77143 1.77143 1.77143 1.77143 1.77143 1.77142 1.77143 1.77143 1.77143 1.77143 1.77143 1.77143 1.77142 1.77143 1.77143 1.77143 1.77143 1.77143 1.77143 1.77142 1.77143 1.77143 1.77143 1.77143 1.77143 1.77143 1.77142 1.77143 1.77143 1.77143 1.77143 1.77143 1.77143 1.77142 1.77143 1.77143 1.77143 1.77143 1.77143 1.77143 1.77142"
           clip-path="url(#p42f6b2be0d)"
           style="fill:none;stroke:#000000;stroke-width:2;stroke-linecap:square"
           id="path5" />
      </g>
      <g
         id="line2d_6">
        <path
           d="m 291.36571,83.678304 v 1.352727 1.352727 1.352727 1.352728 1.352727 1.352727 1.352727 1.352728 1.352727 1.352727 1.352728 1.352727 1.352729 1.35272 1.35273 1.35273 1.35273 1.35272 1.35273 1.35273 1.35273 1.35272 1.35273 1.35273 1.35273 1.35272 1.35273 1.35273 1.35272 1.35273 1.35273 1.35273 1.35272 1.35273 1.35273 1.35272 1.35273 1.35273 1.35273 1.35272 1.35273 1.35273 1.35273 1.35272 1.35273 1.35273 1.35272 1.35273 1.35273 1.35273 1.35272 1.35273 1.35273 1.35273 1.35272 1.35273 1.35273 1.35272 1.35273 1.35273 1.35273 1.35272 1.35273 1.35273 1.35273 1.35272 1.35273 1.35273 1.35272 1.35273 1.35273 1.35273 1.35272 1.35273 1.35273 1.35273 1.35272 1.35273 1.35273 1.35273 1.35272 1.35273 1.35273 1.35272 1.35273 1.35273 1.35273 1.35272 1.35273 1.35273 1.35272 1.35273 1.35273 1.35273 1.35272 1.35273 1.35273 1.35273 1.35272"
           clip-path="url(#p42f6b2be0d)"
           style="fill:none;stroke:#000000;stroke-width:2;stroke-linecap:square"
           id="path6" />
      </g>
      <g
         id="line2d_7">
        <path
           d="m 291.36571,217.5983 h -1.77142 -1.77143 -1.77143 -1.77143 -1.77143 -1.77143 -1.77143 -1.77142 -1.77143 -1.77143 -1.77143 -1.77143 -1.77143 -1.77143 -1.77142 -1.77143 -1.77143 -1.77143 -1.77143 -1.77143 -1.77143 -1.77142 -1.77143 -1.77143 -1.77143 -1.77143 -1.77143 -1.77143 -1.77142 -1.77143 -1.77143 -1.77143 -1.77143 -1.77143 -1.77143 -1.77142 -1.77143 -1.77143 -1.77143 -1.77143 -1.77143 -1.77143 -1.77142 -1.77143 -1.77143 -1.77143 -1.77143 -1.77143 -1.77143 -1.77142 -1.77143 -1.77143 -1.77143 -1.77143 -1.77143 -1.77143 -1.77142 -1.77143 -1.77143 -1.77143 -1.77143 -1.77143 -1.77143 -1.77142 -1.77143 -1.77143 -1.77143 -1.77143 -1.77143 -1.77143 -1.77142 -1.77143 -1.77143 -1.77143 -1.77143 -1.77143 -1.77143 -1.77142 -1.77143 -1.77143 -1.77143 -1.77143 -1.77143 -1.77143 -1.77142 -1.77143 -1.77143 -1.77143 -1.77143 -1.77143 -1.77143 -1.77142 -1.77143 -1.77143 -1.77143 -1.77143 -1.77143 -1.77143 -1.77142"
           clip-path="url(#p42f6b2be0d)"
           style="fill:none;stroke:#000000;stroke-width:2;stroke-linecap:square"
           id="path7" />
      </g>
      <g
         id="patch_3">
        <path
           d="m 115.99429,144.55103 q 0,-0.67636 0,0.22841"
           clip-path="url(#p42f6b2be0d)"
           style="fill:none;stroke:#000000;stroke-linecap:round"
           id="path8" />
        <path
           d="m 110.59429,160.97944 5.4,-16.2 5.4,16.2 z"
           clip-path="url(#p42f6b2be0d)"
           style="stroke:#000000;stroke-linecap:round"
           id="path9" />
      </g>
      <g
         id="text_4">
        <!-- 1 -->
        <g
           transform="matrix(0.36,0,0,-0.36,87.952857,245.47661)"
           id="g9">
          <defs
             id="defs9">
            <path
               id="STIXTwoText-Regular-31"
               d="m 2726,0 v 179 c -588,0 -825,115 -825,429 V 4090 H 1715 L 474,3738 v -212 c 198,64 524,103 652,103 160,0 212,-90 212,-314 V 608 C 1338,288 1114,179 512,179 V 0 Z"
               transform="scale(0.015625)" />
          </defs>
          <use
             xlink:href="#STIXTwoText-Regular-31"
             id="use9" />
        </g>
      </g>
      <g
         id="text_5">
        <!-- 2 -->
        <g
           transform="matrix(0.36,0,0,-0.36,87.952857,73.29375)"
           id="g10">
          <defs
             id="defs10">
            <path
               id="STIXTwoText-Regular-32"
               d="m 2765,0 205,1024 H 2784 C 2637,640 2554,506 2214,506 H 1325 L 877,486 v 32 l 845,800 c 678,685 1043,1127 1043,1696 0,672 -506,1108 -1229,1108 -621,0 -1056,-359 -1254,-980 l 153,-64 c 237,480 519,628 935,628 492,0 800,-308 800,-788 0,-672 -320,-1075 -954,-1728 L 243,218 V 0 Z"
               transform="scale(0.015625)" />
          </defs>
          <use
             xlink:href="#STIXTwoText-Regular-32"
             id="use10" />
        </g>
      </g>
      <g
         id="patch_4">
        <path
           d="m 211.65143,83.678304 q 0.88571,0 0.19029,0"
           clip-path="url(#p42f6b2be0d)"
           style="fill:none;stroke:#000000;stroke-linecap:round"
           id="path10" />
        <path
           d="m 195.64172,78.278304 16.2,5.4 -16.2,5.4 z"
           clip-path="url(#p42f6b2be0d)"
           style="stroke:#000000;stroke-linecap:round"
           id="path11" />
      </g>
      <g
         id="patch_5">
        <path
           d="m 291.36571,156.72558 q 0,0.67636 0,-0.22842"
           clip-path="url(#p42f6b2be0d)"
           style="fill:none;stroke:#000000;stroke-linecap:round"
           id="path12" />
        <path
           d="m 296.76571,140.29716 -5.4,16.2 -5.4,-16.2 z"
           clip-path="url(#p42f6b2be0d)"
           style="stroke:#000000;stroke-linecap:round"
           id="path13" />
      </g>
      <g
         id="text_6">
        <!-- 3 -->
        <g
           transform="matrix(0.36,0,0,-0.36,301.58714,73.29375)"
           id="g13">
          <defs
             id="defs13">
            <path
               id="STIXTwoText-Regular-33"
               d="m 1094,-83 c 935,0 1748,448 1748,1325 0,569 -429,908 -941,1068 v 20 c 403,256 691,492 691,934 0,486 -378,858 -1030,858 -525,0 -922,-295 -1159,-852 l 147,-83 c 218,339 455,519 839,519 397,0 653,-218 653,-596 0,-518 -455,-870 -890,-870 h -122 v -243 h 128 c 615,0 1159,-378 1159,-947 C 2317,422 1926,237 1523,237 1197,237 883,550 627,550 461,550 378,403 378,269 378,102 518,-83 1094,-83 Z"
               transform="scale(0.015625)" />
          </defs>
          <use
             xlink:href="#STIXTwoText-Regular-33"
             id="use13" />
        </g>
      </g>
      <g
         id="text_7">
        <!-- 4 -->
        <g
           transform="matrix(0.36,0,0,-0.36,301.58714,245.47661)"
           id="g14">
          <defs
             id="defs14">
            <path
               id="STIXTwoText-Regular-34"
               d="m 2426,0 v 1011 h 652 v 442 H 2426 V 4128 H 2035 L 83,1414 V 1011 H 1856 V 0 Z M 435,1478 1830,3430 h 26 V 1453 H 435 Z"
               transform="scale(0.015625)" />
          </defs>
          <use
             xlink:href="#STIXTwoText-Regular-34"
             id="use14" />
        </g>
      </g>
      <g
         id="patch_6">
        <path
           d="m 195.70857,217.5983 q -0.88571,0 -0.19029,0"
           clip-path="url(#p42f6b2be0d)"
           style="fill:none;stroke:#000000;stroke-linecap:round"
           id="path14" />
        <path
           d="m 211.71828,222.9983 -16.2,-5.4 16.2,-5.4 z"
           clip-path="url(#p42f6b2be0d)"
           style="stroke:#000000;stroke-linecap:round"
           id="path15" />
      </g>
      <g
         id="patch_7">
        <path
           d="m 36.28,274.99259 q 170.58857,0 337.5317,0"
           style="fill:none;stroke:#000000;stroke-width:2.56;stroke-linecap:round"
           id="path16" />
        <path
           d="m 361.8117,270.49259 12,4.5 -12,4.5 z"
           style="stroke:#000000;stroke-width:2.56;stroke-linecap:round"
           id="path17" />
      </g>
      <g
         id="patch_8">
        <path
           d="m 36.28,274.99259 q 0,-127.54286 0,-251.440273"
           style="fill:none;stroke:#000000;stroke-width:2.56;stroke-linecap:round"
           id="path18" />
        <path
           d="m 31.78,35.552317 4.5,-12 4.5,12 z"
           style="stroke:#000000;stroke-width:2.56;stroke-linecap:round"
           id="path19" />
      </g>
    </g>
  </g>
  <defs
     id="defs19">
    <clipPath
       id="p42f6b2be0d">
      <rect
         x="20.337143"
         y="19.906876"
         width="357.12"
         height="255.08571"
         id="rect19" />
    </clipPath>
  </defs>
</svg>
