<?xml version="1.0" encoding="UTF-8" standalone="no"?>
<svg
   width="378.52808pt"
   height="288.73566pt"
   viewBox="0 0 378.52809 288.73565"
   version="1.1"
   id="svg25"
   sodipodi:docname="859t.svg"
   xmlns:inkscape="http://www.inkscape.org/namespaces/inkscape"
   xmlns:sodipodi="http://sodipodi.sourceforge.net/DTD/sodipodi-0.dtd"
   xmlns:xlink="http://www.w3.org/1999/xlink"
   xmlns="http://www.w3.org/2000/svg"
   xmlns:svg="http://www.w3.org/2000/svg"
   xmlns:rdf="http://www.w3.org/1999/02/22-rdf-syntax-ns#"
   xmlns:cc="http://creativecommons.org/ns#"
   xmlns:dc="http://purl.org/dc/elements/1.1/">
  <sodipodi:namedview
     id="namedview25"
     pagecolor="#ffffff"
     bordercolor="#000000"
     borderopacity="0.25"
     inkscape:showpageshadow="2"
     inkscape:pageopacity="0.0"
     inkscape:pagecheckerboard="0"
     inkscape:deskcolor="#d1d1d1"
     inkscape:document-units="pt" />
  <metadata
     id="metadata1">
    <rdf:RDF>
      <cc:Work>
        <dc:type
           rdf:resource="http://purl.org/dc/dcmitype/StillImage" />
        <dc:date>2024-01-16T01:36:11.841292</dc:date>
        <dc:format>image/svg+xml</dc:format>
        <dc:creator>
          <cc:Agent>
            <dc:title>Matplotlib v3.7.1, https://matplotlib.org/</dc:title>
          </cc:Agent>
        </dc:creator>
      </cc:Work>
    </rdf:RDF>
  </metadata>
  <defs
     id="defs1">
    <style
       type="text/css"
       id="style1">*{stroke-linejoin: round; stroke-linecap: butt}</style>
  </defs>
  <g
     id="figure_1"
     transform="translate(-7.39,-15.785625)">
    <g
       id="axes_1">
      <g
         id="matplotlib.axis_1" />
      <g
         id="matplotlib.axis_2" />
      <g
         id="line2d_1">
        <path
           d="m 119.69105,210.59932 v -1.26612 -1.26611 -1.26612 -1.26611 -1.26612 -1.26611 -1.26612 -1.26611 -1.26612 -1.26611 -1.26612 -1.26611 -1.26612 -1.26611 -1.26612 -1.26611 -1.26612 -1.26611 -1.26612 -1.26612 -1.26611 -1.26612 -1.26611 -1.26612 -1.26611 -1.26612 -1.26611 -1.26612 -1.26611 -1.26612 -1.26611 -1.26612 -1.26611 -1.26612 -1.26611 -1.26612 -1.26611 -1.26612 -1.26611 -1.26612 -1.26611 -1.26612 -1.26611 -1.26612 -1.26612 -1.26611 -1.26612 -1.26611 -1.26612 -1.26611 -1.26612 -1.26611 -1.26612 -1.26611 -1.26612 -1.26611 -1.26612 -1.26611 -1.26612 -1.26611 -1.26612 -1.26611 -1.26612 -1.26611 -1.26612 -1.26611 -1.26612 -1.26611 -1.26612 -1.26611 -1.26612 -1.26611 -1.26612 -1.26611 -1.26612 -1.26612 -1.26611 -1.26612 -1.26611 -1.26612 -1.26611 -1.26612 -1.26611 -1.26612 -1.26611 -1.26612 -1.26611 -1.266118 -1.266115 -1.266115 -1.266116 -1.266115 -1.266115 -1.266115 -1.266115 -1.266116 -1.266115 -1.266115 -1.266115"
           clip-path="url(#p0f75355846)"
           style="fill:none;stroke:#000000;stroke-width:2;stroke-linecap:square"
           id="path3" />
      </g>
      <g
         id="line2d_2">
        <path
           d="m 119.69105,210.59932 v -1.26612 -1.26611 -1.26612 -1.26611 -1.26612 -1.26611 -1.26612 -1.26611 -1.26612 -1.26611 -1.26612 -1.26611 -1.26612 -1.26611 -1.26612 -1.26611 -1.26612 -1.26611 -1.26612 -1.26612 -1.26611 -1.26612 -1.26611 -1.26612 -1.26611 -1.26612 -1.26611 -1.26612 -1.26611 -1.26612 -1.26611 -1.26612 -1.26611 -1.26612 -1.26611 -1.26612 -1.26611 -1.26612 -1.26611 -1.26612 -1.26611 -1.26612 -1.26611 -1.26612 -1.26612 -1.26611 -1.26612 -1.26611 -1.26612 -1.26611 -1.26612 -1.26611 -1.26612 -1.26611 -1.26612 -1.26611 -1.26612 -1.26611 -1.26612 -1.26611 -1.26612 -1.26611 -1.26612 -1.26611 -1.26612 -1.26611 -1.26612 -1.26611 -1.26612 -1.26611 -1.26612 -1.26611 -1.26612 -1.26611 -1.26612 -1.26612 -1.26611 -1.26612 -1.26611 -1.26612 -1.26611 -1.26612 -1.26611 -1.26612 -1.26611 -1.26612 -1.26611 -1.266118 -1.266115 -1.266115 -1.266116 -1.266115 -1.266115 -1.266115 -1.266115 -1.266116 -1.266115 -1.266115 -1.266115"
           clip-path="url(#p0f75355846)"
           style="fill:none;stroke:#000000;stroke-width:2;stroke-linecap:square"
           id="path4" />
      </g>
      <g
         id="line2d_3">
        <path
           d="m 119.69105,85.253915 h 1.658 1.65801 1.65801 1.65801 1.658 1.65801 1.65801 1.65801 1.65801 1.658 1.65801 1.65801 1.65801 1.65801 1.658 1.65801 1.65801 1.65801 1.65801 1.658 1.65801 1.65801 1.65801 1.65801 1.658 1.65801 1.65801 1.65801 1.65801 1.658 1.65801 1.65801 1.65801 1.65801 1.658 1.65801 1.65801 1.65801 1.65801 1.658 1.65801 1.65801 1.65801 1.65801 1.658 1.65801 1.65801 1.65801 1.65801 1.658 1.65801 1.65801 1.65801 1.65801 1.658 1.65801 1.65801 1.65801 1.65801 1.658 1.65801 1.65801 1.65801 1.65801 1.658 1.65801 1.65801 1.65801 1.65801 1.658 1.65801 1.65801 1.65801 1.65801 1.658 1.65801 1.65801 1.65801 1.65801 1.658 1.65801 1.65801 1.65801 1.65801 1.65801 1.658 1.65801 1.65801 1.65801 1.658 1.65801 1.65801 1.65801 1.65801 1.658 1.65801 1.65801 1.65801 1.65801"
           clip-path="url(#p0f75355846)"
           style="fill:none;stroke:#000000;stroke-width:2;stroke-linecap:square"
           id="path5" />
      </g>
      <g
         id="line2d_4">
        <path
           d="m 119.69105,85.253915 h 1.658 1.65801 1.65801 1.65801 1.658 1.65801 1.65801 1.65801 1.65801 1.658 1.65801 1.65801 1.65801 1.65801 1.658 1.65801 1.65801 1.65801 1.65801 1.658 1.65801 1.65801 1.65801 1.65801 1.658 1.65801 1.65801 1.65801 1.65801 1.658 1.65801 1.65801 1.65801 1.65801 1.658 1.65801 1.65801 1.65801 1.65801 1.658 1.65801 1.65801 1.65801 1.65801 1.658 1.65801 1.65801 1.65801 1.65801 1.658 1.65801 1.65801 1.65801 1.65801 1.658 1.65801 1.65801 1.65801 1.65801 1.658 1.65801 1.65801 1.65801 1.65801 1.658 1.65801 1.65801 1.65801 1.65801 1.658 1.65801 1.65801 1.65801 1.65801 1.658 1.65801 1.65801 1.65801 1.65801 1.658 1.65801 1.65801 1.65801 1.65801 1.65801 1.658 1.65801 1.65801 1.65801 1.658 1.65801 1.65801 1.65801 1.65801 1.658 1.65801 1.65801 1.65801 1.65801"
           clip-path="url(#p0f75355846)"
           style="fill:none;stroke:#000000;stroke-width:2;stroke-linecap:square"
           id="path6" />
      </g>
      <g
         id="line2d_5">
        <path
           d="m 283.83384,85.253915 v 1.266115 1.266115 1.266115 1.266116 1.266115 1.266115 1.266115 1.266115 1.266116 1.266115 1.266115 1.266118 1.26611 1.26612 1.26611 1.26612 1.26611 1.26612 1.26611 1.26612 1.26611 1.26612 1.26611 1.26612 1.26612 1.26611 1.26612 1.26611 1.26612 1.26611 1.26612 1.26611 1.26612 1.26611 1.26612 1.26611 1.26612 1.26611 1.26612 1.26611 1.26612 1.26611 1.26612 1.26611 1.26612 1.26611 1.26612 1.26611 1.26612 1.26611 1.26612 1.26611 1.26612 1.26611 1.26612 1.26612 1.26611 1.26612 1.26611 1.26612 1.26611 1.26612 1.26611 1.26612 1.26611 1.26612 1.26611 1.26612 1.26611 1.26612 1.26611 1.26612 1.26611 1.26612 1.26611 1.26612 1.26611 1.26612 1.26611 1.26612 1.26612 1.26611 1.26612 1.26611 1.26612 1.26611 1.26612 1.26611 1.26612 1.26611 1.26612 1.26611 1.26612 1.26611 1.26612 1.26611 1.26612 1.26611 1.26612"
           clip-path="url(#p0f75355846)"
           style="fill:none;stroke:#000000;stroke-width:2;stroke-linecap:square"
           id="path7" />
      </g>
      <g
         id="line2d_6">
        <path
           d="m 283.83384,85.253915 v 1.266115 1.266115 1.266115 1.266116 1.266115 1.266115 1.266115 1.266115 1.266116 1.266115 1.266115 1.266118 1.26611 1.26612 1.26611 1.26612 1.26611 1.26612 1.26611 1.26612 1.26611 1.26612 1.26611 1.26612 1.26612 1.26611 1.26612 1.26611 1.26612 1.26611 1.26612 1.26611 1.26612 1.26611 1.26612 1.26611 1.26612 1.26611 1.26612 1.26611 1.26612 1.26611 1.26612 1.26611 1.26612 1.26611 1.26612 1.26611 1.26612 1.26611 1.26612 1.26611 1.26612 1.26611 1.26612 1.26612 1.26611 1.26612 1.26611 1.26612 1.26611 1.26612 1.26611 1.26612 1.26611 1.26612 1.26611 1.26612 1.26611 1.26612 1.26611 1.26612 1.26611 1.26612 1.26611 1.26612 1.26611 1.26612 1.26611 1.26612 1.26612 1.26611 1.26612 1.26611 1.26612 1.26611 1.26612 1.26611 1.26612 1.26611 1.26612 1.26611 1.26612 1.26611 1.26612 1.26611 1.26612 1.26611 1.26612"
           clip-path="url(#p0f75355846)"
           style="fill:none;stroke:#000000;stroke-width:2;stroke-linecap:square"
           id="path8" />
      </g>
      <g
         id="line2d_7">
        <path
           d="m 283.83384,210.59932 h -1.65801 -1.65801 -1.65801 -1.65801 -1.658 -1.65801 -1.65801 -1.65801 -1.65801 -1.658 -1.65801 -1.65801 -1.65801 -1.658 -1.65801 -1.65801 -1.65801 -1.65801 -1.65801 -1.658 -1.65801 -1.65801 -1.65801 -1.65801 -1.658 -1.65801 -1.65801 -1.65801 -1.65801 -1.658 -1.65801 -1.65801 -1.65801 -1.65801 -1.658 -1.65801 -1.65801 -1.65801 -1.65801 -1.658 -1.65801 -1.65801 -1.65801 -1.65801 -1.658 -1.65801 -1.65801 -1.65801 -1.65801 -1.658 -1.65801 -1.65801 -1.65801 -1.65801 -1.658 -1.65801 -1.65801 -1.65801 -1.65801 -1.658 -1.65801 -1.65801 -1.65801 -1.65801 -1.658 -1.65801 -1.65801 -1.65801 -1.65801 -1.658 -1.65801 -1.65801 -1.65801 -1.65801 -1.658 -1.65801 -1.65801 -1.65801 -1.65801 -1.658 -1.65801 -1.65801 -1.65801 -1.65801 -1.658 -1.65801 -1.65801 -1.65801 -1.65801 -1.658 -1.65801 -1.65801 -1.65801 -1.65801 -1.658 -1.65801 -1.65801 -1.65801 -1.658"
           clip-path="url(#p0f75355846)"
           style="fill:none;stroke:#000000;stroke-width:2;stroke-linecap:square"
           id="path9" />
      </g>
      <g
         id="line2d_8">
        <path
           d="m 283.83384,210.59932 h -1.65801 -1.65801 -1.65801 -1.65801 -1.658 -1.65801 -1.65801 -1.65801 -1.65801 -1.658 -1.65801 -1.65801 -1.65801 -1.658 -1.65801 -1.65801 -1.65801 -1.65801 -1.65801 -1.658 -1.65801 -1.65801 -1.65801 -1.65801 -1.658 -1.65801 -1.65801 -1.65801 -1.65801 -1.658 -1.65801 -1.65801 -1.65801 -1.65801 -1.658 -1.65801 -1.65801 -1.65801 -1.65801 -1.658 -1.65801 -1.65801 -1.65801 -1.65801 -1.658 -1.65801 -1.65801 -1.65801 -1.65801 -1.658 -1.65801 -1.65801 -1.65801 -1.65801 -1.658 -1.65801 -1.65801 -1.65801 -1.65801 -1.658 -1.65801 -1.65801 -1.65801 -1.65801 -1.658 -1.65801 -1.65801 -1.65801 -1.65801 -1.658 -1.65801 -1.65801 -1.65801 -1.65801 -1.658 -1.65801 -1.65801 -1.65801 -1.65801 -1.658 -1.65801 -1.65801 -1.65801 -1.65801 -1.658 -1.65801 -1.65801 -1.65801 -1.65801 -1.658 -1.65801 -1.65801 -1.65801 -1.65801 -1.658 -1.65801 -1.65801 -1.65801 -1.658"
           clip-path="url(#p0f75355846)"
           style="fill:none;stroke:#000000;stroke-width:2;stroke-linecap:square"
           id="path10" />
      </g>
      <g
         id="patch_3">
        <path
           d="m 119.69105,145.28991 q 0,-2.42985 0,-3.27855"
           clip-path="url(#p0f75355846)"
           style="fill:none;stroke:#000000;stroke-linecap:round"
           id="path11" />
        <path
           d="m 114.29104,158.21136 5.40001,-16.2 5.39999,16.2 z"
           clip-path="url(#p0f75355846)"
           style="stroke:#000000;stroke-linecap:round"
           id="path12" />
      </g>
      <g
         id="patch_4">
        <path
           d="m 204.58907,85.253915 q 3.80255,0 6.02397,0"
           clip-path="url(#p0f75355846)"
           style="fill:none;stroke:#000000;stroke-linecap:round"
           id="path13" />
        <path
           d="m 194.41304,79.853915 16.2,5.4 -16.2,5.4 z"
           clip-path="url(#p0f75355846)"
           style="stroke:#000000;stroke-linecap:round"
           id="path14" />
      </g>
      <g
         id="patch_5">
        <path
           d="m 283.83384,150.56333 q 0,2.42984 0,3.27854"
           clip-path="url(#p0f75355846)"
           style="fill:none;stroke:#000000;stroke-linecap:round"
           id="path15" />
        <path
           d="m 289.23384,137.64187 -5.4,16.2 -5.4,-16.2 z"
           clip-path="url(#p0f75355846)"
           style="stroke:#000000;stroke-linecap:round"
           id="path16" />
      </g>
      <g
         id="patch_6">
        <path
           d="m 198.93581,210.59932 q -3.80255,0 -6.02397,0"
           clip-path="url(#p0f75355846)"
           style="fill:none;stroke:#000000;stroke-linecap:round"
           id="path17" />
        <path
           d="m 209.11184,215.99932 -16.2,-5.4 16.2,-5.4 z"
           clip-path="url(#p0f75355846)"
           style="stroke:#000000;stroke-linecap:round"
           id="path18" />
      </g>
      <g
         id="text_1">
        <!-- 1 -->
        <g
           transform="matrix(0.38,0,0,-0.38,89.395145,234.7542)"
           id="g18">
          <defs
             id="defs18">
            <path
               id="STIXTwoText-Regular-31"
               d="m 2726,0 v 179 c -588,0 -825,115 -825,429 V 4090 H 1715 L 474,3738 v -212 c 198,64 524,103 652,103 160,0 212,-90 212,-314 V 608 C 1338,288 1114,179 512,179 V 0 Z"
               transform="scale(0.015625)" />
          </defs>
          <use
             xlink:href="#STIXTwoText-Regular-31"
             id="use18" />
        </g>
      </g>
      <g
         id="text_2">
        <!-- 2 -->
        <g
           transform="matrix(0.38,0,0,-0.38,89.395145,79.564655)"
           id="g19">
          <defs
             id="defs19">
            <path
               id="STIXTwoText-Regular-32"
               d="m 2765,0 205,1024 H 2784 C 2637,640 2554,506 2214,506 H 1325 L 877,486 v 32 l 845,800 c 678,685 1043,1127 1043,1696 0,672 -506,1108 -1229,1108 -621,0 -1056,-359 -1254,-980 l 153,-64 c 237,480 519,628 935,628 492,0 800,-308 800,-788 0,-672 -320,-1075 -954,-1728 L 243,218 V 0 Z"
               transform="scale(0.015625)" />
          </defs>
          <use
             xlink:href="#STIXTwoText-Regular-32"
             id="use19" />
        </g>
      </g>
      <g
         id="text_3">
        <!-- 3 -->
        <g
           transform="matrix(0.38,0,0,-0.38,295.31974,79.564655)"
           id="g20">
          <defs
             id="defs20">
            <path
               id="STIXTwoText-Regular-33"
               d="m 1094,-83 c 935,0 1748,448 1748,1325 0,569 -429,908 -941,1068 v 20 c 403,256 691,492 691,934 0,486 -378,858 -1030,858 -525,0 -922,-295 -1159,-852 l 147,-83 c 218,339 455,519 839,519 397,0 653,-218 653,-596 0,-518 -455,-870 -890,-870 h -122 v -243 h 128 c 615,0 1159,-378 1159,-947 C 2317,422 1926,237 1523,237 1197,237 883,550 627,550 461,550 378,403 378,269 378,102 518,-83 1094,-83 Z"
               transform="scale(0.015625)" />
          </defs>
          <use
             xlink:href="#STIXTwoText-Regular-33"
             id="use20" />
        </g>
      </g>
      <g
         id="text_4">
        <!-- 4 -->
        <g
           transform="matrix(0.38,0,0,-0.38,295.31974,234.7542)"
           id="g21">
          <defs
             id="defs21">
            <path
               id="STIXTwoText-Regular-34"
               d="m 2426,0 v 1011 h 652 v 442 H 2426 V 4128 H 2035 L 83,1414 V 1011 H 1856 V 0 Z M 435,1478 1830,3430 h 26 V 1453 H 435 Z"
               transform="scale(0.015625)" />
          </defs>
          <use
             xlink:href="#STIXTwoText-Regular-34"
             id="use21" />
        </g>
      </g>
      <g
         id="text_5">
        <!-- $V$ -->
        <g
           transform="matrix(0.38,0,0,-0.38,357.83371,304.40847)"
           id="g22">
          <defs
             id="defs22">
            <path
               id="STIXTwoText-Italic-56"
               d="m 1504,-32 2349,3360 c 390,582 518,685 864,685 l 13,192 H 3347 l -13,-192 c 288,0 384,-39 384,-167 0,-102 -83,-249 -198,-422 L 2144,1363 1773,800 h -32 l -45,749 -192,1824 c 0,45 -19,185 -19,230 -19,288 185,410 512,410 l 19,192 H 448 l -13,-192 c 339,0 448,-154 499,-583 L 1293,-32 Z"
               transform="scale(0.015625)" />
          </defs>
          <use
             xlink:href="#STIXTwoText-Italic-56"
             transform="translate(0,0.296875)"
             id="use22" />
        </g>
      </g>
      <g
         id="text_6">
        <!-- $p$ -->
        <g
           transform="matrix(0.38,0,0,-0.38,7.2,34.025625)"
           id="g23">
          <defs
             id="defs23">
            <path
               id="STIXTwoText-Italic-70"
               d="m 1440,-70 c 966,0 1683,832 1683,2035 0,742 -384,1101 -864,1101 -320,0 -589,-186 -883,-532 v 7 h -26 l 90,493 h -122 l -915,-96 v -160 c 0,0 109,12 205,12 166,0 237,-57 237,-185 0,-45 -7,-83 -13,-122 L 32,-1408 h 1254 l 45,173 c -512,0 -646,173 -646,320 0,89 13,205 25,269 L 864,96 C 992,19 1242,-70 1440,-70 Z m -506,486 320,1549 c 173,390 423,742 820,742 179,0 486,-134 486,-742 C 2560,838 2138,205 1485,205 1222,205 1043,320 934,416 Z"
               transform="scale(0.015625)" />
          </defs>
          <use
             xlink:href="#STIXTwoText-Italic-70"
             transform="translate(0,0.09375)"
             id="use23" />
        </g>
      </g>
      <g
         id="text_7">
        <!-- $0$ -->
        <g
           transform="matrix(0.38,0,0,-0.38,8.34,304.40847)"
           id="g24">
          <defs
             id="defs24">
            <path
               id="STIXTwoText-Regular-30"
               d="m 1581,-70 c 1005,0 1414,1004 1414,2099 0,1318 -576,2080 -1401,2080 C 666,4109 173,3264 173,2048 173,915 550,-70 1581,-70 Z m 0,230 c -512,0 -794,614 -794,1856 0,1267 282,1875 787,1875 525,0 800,-601 800,-1901 C 2374,762 2086,160 1581,160 Z"
               transform="scale(0.015625)" />
          </defs>
          <use
             xlink:href="#STIXTwoText-Regular-30"
             transform="translate(0,0.796875)"
             id="use24" />
        </g>
      </g>
      <g
         id="patch_7">
        <path
           d="m 364.41302,264.31878 -15.96661,5.3222 V 264.3337 H 45.080686 v -0.0298 H 348.44641 v -5.30729 z"
           style="stroke:#000000;stroke-width:2;stroke-linejoin:miter"
           id="path24" />
      </g>
      <g
         id="patch_8">
        <path
           d="m 45.080686,25.565627 5.322205,15.966617 H 45.095608 V 264.31878 h -0.02985 V 41.532244 H 39.75848 Z"
           style="stroke:#000000;stroke-width:2;stroke-linejoin:miter"
           id="path25" />
      </g>
    </g>
  </g>
  <defs
     id="defs25">
    <clipPath
       id="p0f75355846">
      <rect
         x="23.525753"
         y="25.565626"
         width="357.12"
         height="238.75316"
         id="rect25" />
    </clipPath>
  </defs>
</svg>
