<?xml version="1.0" encoding="UTF-8"?>
<!-- Created with Inkscape (http://www.inkscape.org/) -->
<svg width="107.94" height="89.643" version="1.1" viewBox="0 0 107.94 89.643" xmlns="http://www.w3.org/2000/svg"><defs><clipPath id="clipPath1019"><path transform="translate(-435.24 -493.52)" d="M 0,841.98 H 595.2 V 0 H 0 Z"/></clipPath><clipPath id="clipPath1021"><path transform="translate(-434.28 -492.44)" d="M 0,841.98 H 595.2 V 0 H 0 Z"/></clipPath><clipPath id="clipPath1036"><path transform="matrix(.7 0 0 -.7 -363.72 374.7)" d="m0 0h595.22v842h-595.22z"/></clipPath><clipPath id="clipPath1043"><path transform="translate(1.8572e-6)" d="M 0,841.98 H 595.2 V 0 H 0 Z"/></clipPath></defs><g transform="translate(-953.83 -249.17)"><g transform="matrix(.86619 0 0 .86619 147.73 26.457)"><path d="m993.99 319.27c2.7213 0 4.8707-1.2653 4.8707-3.588 0-1.456-1.1267-2.184-2.4787-2.3747v-0.0867c1.6467-0.38133 3.0333-1.2307 3.0333-3.1027 0-1.248-0.832-2.236-3.7613-2.236h-4.3853l-0.104 0.52c1.2827 0 1.612 0.19066 1.3173 1.5773l-1.4733 7.124c-0.29466 1.4387-0.58933 1.6467-1.9067 1.6467l-0.104 0.52zm-0.65867-0.624c-0.43333 0-0.65866-0.0173-1.0573-0.052l0.988-4.9053h1.0227c1.456 0 2.7907 0.45066 2.7907 2.0453 0 2.5653-2.1667 2.912-3.744 2.912zm0.0693-5.6506 0.90133-4.4027c0.364-0.0347 0.52-0.052 0.86666-0.052 1.9413 0 2.5307 0.76266 2.5307 1.6987 0 1.716-0.90134 2.756-3.2933 2.756z" stroke-miterlimit="3.2" stroke-width="1.3" style="paint-order:stroke fill markers" aria-label="B"/><g transform="translate(827 256.11)"><path d="m163.5 48.498v1.0703h7.8945v-1.0703z" color="#000000" style="-inkscape-stroke:none"/><path d="m171.39 49.033-1.0712 2.1425 3.7494-2.1425-3.7494-2.1425z" color="#000000" fill-rule="evenodd" style="-inkscape-stroke:none"/></g></g><g fill="#100f0d"><g><path transform="matrix(.93333 0 0 -.93333 965.6 325.24)" d="m0 0 97.5-0.06c0.24 0 0.48-0.24 0.48-0.54 0-0.24-0.24-0.48-0.48-0.48l-97.5 0.06c-0.3 0-0.54 0.24-0.54 0.48 0 0.3 0.24 0.54 0.54 0.54zm96.48 1.44 6.06-2.04-6.06-1.98" clip-path="url(#clipPath1019)"/><path transform="matrix(.93333 0 0 -.8973 964.7 323.28)" d="m0 0 0.06 77.28c0 0.3 0.18 0.48 0.48 0.48s0.48-0.18 0.48-0.48v-77.28c0-0.3-0.24-0.48-0.54-0.48-0.24 0-0.48 0.18-0.48 0.48zm-1.5 76.26 2.04 6.06 2.04-6.06" clip-path="url(#clipPath1021)"/><path transform="matrix(.93333 0 0 -.93333 557.47 788.21)" d="m495.78 526.22h34.98v-1.5h-34.98zm34.98-0.78-2.04 2.04 6.06-2.04-6.06-1.98" clip-path="url(#clipPath1043)"/></g><g stroke-linejoin="round" stroke-miterlimit="10"><path transform="matrix(.93333 0 0 -.93333 966.21 270.42)" d="m0-1.5156v3.0312h75.061v-3.0312z" color="#000000" style="-inkscape-stroke:none"/><path transform="matrix(.93333 0 0 -.93333 964.76 325.13)" d="m0-1.5156v3.0312h75.061v-3.0312z" color="#000000" style="-inkscape-stroke:none"/><path d="m1019.9 323.72v-51.883h2.8292v51.883z" color="#000000" stroke-width=".92709" style="-inkscape-stroke:none"/><path transform="matrix(.93333 0 0 -.93932 965.15 326.55)" d="m-1.5156 0v61.26h3.0312v-61.26z" color="#000000" style="-inkscape-stroke:none"/></g></g><g transform="translate(8 7.3609)"><path transform="matrix(1.3333 0 0 1.3333 1044.3 286.27)" d="m0.41171-3.2692-0.15194-0.10293q0.7009-1.0636 1.3675-1.0636 0.43132 0 0.43132 0.44112 0 0.23527-0.13234 0.67639l-0.51954 1.7547q-0.14214 0.48033-0.14214 0.74501 0 0.3676 0.19115 0.54895 0.19115 0.17645 0.43622 0.17645 0.63228 0 1.2106-0.85774 0.57836-0.86264 0.57836-1.9556 0-1.191-0.88715-1.343l0.029408-0.18625q1.4312 0.24507 1.4312 1.7204 0 0.98027-0.68129 1.9066-0.68129 0.92636-1.7155 0.92636-0.60287 0-0.95577-0.29408-0.348-0.29898-0.348-0.74991 0-0.31369 0.17645-0.94596l0.40681-1.4704q0.078422-0.26958 0.078422-0.39211 0-0.15194-0.14704-0.15194-0.11763 0-0.23527 0.11273-0.11763 0.10783-0.42152 0.50484z" clip-path="url(#clipPath1036)" aria-label="υ"/><g transform="matrix(.7359 0 0 .7359 923.51 241.96)"><path d="m163.5 48.498v1.0703h7.8945v-1.0703z" color="#000000" style="-inkscape-stroke:none"/><path d="m171.39 49.033-1.0712 2.1425 3.7494-2.1425-3.7494-2.1425z" color="#000000" fill-rule="evenodd" style="-inkscape-stroke:none"/></g></g><g stroke-linejoin="round" stroke-miterlimit="3.2" stroke-width=".518"><path d="m1019.7 267.06c0.8067 0 1.5547-0.484 2.288-1.4227h0.088c-0.029 0.23466-0.088 0.484-0.088 0.704 0 0.46933 0.2787 0.68933 0.792 0.68933 0.9093 0 1.5107-0.704 2.0827-1.5693l-0.2934-0.22c-0.1906 0.24933-0.6013 0.76267-1.0706 0.76267-0.22 0-0.2787-0.11734-0.2787-0.30801 0-0.22 0.073-0.54266 0.073-0.54266l1.0854-5.192h-0.748l-0.5134 0.67467h-0.059c-0.308-0.44-0.7187-0.77733-1.4667-0.77733-1.8773 0-3.6813 2.1267-3.6813 4.7373 0 1.7307 0.792 2.464 1.7893 2.464zm0.528-0.968c-0.616 0-1.0267-0.38134-1.0267-1.6867 0-1.98 0.9534-3.9893 2.3027-3.9893 0.792 0 1.2173 0.68934 1.2173 1.3493 0 0.55733-0.308 1.892-0.4546 2.4787-0.264 1.056-1.144 1.848-2.0387 1.848z" style="paint-order:stroke fill markers" aria-label="a"/><path d="m969.56 267.06c1.32 0 2.244-0.86534 2.8307-1.7747l-0.24933-0.22c-0.44001 0.55733-1.012 0.968-1.9653 0.968-1.1 0-1.584-0.55733-1.584-1.848 0-1.716 0.86534-3.8574 2.42-3.8574 0.45467 0 0.704 0.176 0.704 0.39601 0 0.23466-0.27867 0.64533-0.27867 1.0267 0 0.32267 0.20534 0.51334 0.55734 0.51334 0.54267 0 0.82133-0.46934 0.82133-1.056 0-0.95334-0.748-1.364-1.6573-1.364-2.0533 0-3.784 2.0827-3.784 4.576 0 1.5987 0.748 2.64 2.1853 2.64z" style="paint-order:stroke fill markers" aria-label="c"/><path d="m968.38 338.81c0.86533 0 1.5987-0.54266 2.3027-1.4227h0.11733c-0.0293 0.176-0.0733 0.45467-0.0733 0.63067 0 0.45467 0.29333 0.76267 0.86533 0.76267 0.96801 0 1.5107-0.85067 2.0093-1.5693l-0.29333-0.22c-0.20534 0.27867-0.60134 0.76267-1.0707 0.76267-0.19067 0-0.27867-0.0733-0.27867-0.27867 0-0.19066 0.0733-0.616 0.0733-0.616l1.628-8.5654h-0.32267l-2.0093 0.16133v0.38134s0.264-0.0293 0.44-0.0293c0.44001 0 0.51334 0.20534 0.51334 0.45467 0 0.20534-0.044 0.46934-0.044 0.46934l-0.46934 2.464h-0.044c-0.33733-0.36667-0.86533-0.58667-1.5107-0.58667-2.0387 0-3.6813 2.1853-3.6813 4.6934 0 1.7893 0.836 2.508 1.848 2.508zm0.51333-0.968c-0.63067 0-1.0707-0.38133-1.0707-1.716 0-1.9067 0.90934-3.96 2.3173-3.96 0.71867 0 1.2173 0.54267 1.2173 1.3787 0 0.42533-0.132 1.364-0.41067 2.508-0.23467 0.90934-1.0853 1.7893-2.0533 1.7893z" style="paint-order:stroke fill markers" aria-label="d"/><path d="m1021.9 338.81c2.5227 0 3.9454-2.2293 3.9454-4.6347 0-1.76-0.88-2.5667-1.9947-2.5667-0.748 0-1.364 0.42534-1.9654 1.1293h-0.073l0.9387-4.444h-0.3227l-2.024 0.16133v0.38134s0.2787-0.0293 0.44-0.0293c0.2933 0 0.528 0.10267 0.528 0.42534 0 0.176-0.044 0.45467-0.059 0.51333l-1.7306 8.5214c0.7186 0.36666 1.4666 0.54266 2.3173 0.54266zm0.1907-0.616c-0.5867 0-1.012-0.352-1.2027-0.528l0.7187-3.6667c0.2933-0.68934 0.9093-1.5693 1.804-1.5693 0.6306 0 1.144 0.484 1.144 1.804 0 2.2293-0.792 3.96-2.464 3.96z" style="paint-order:stroke fill markers" aria-label="b"/><path d="m1059.5 335.99c0.9533 0 1.5986-1.012 2.0093-1.6427l-0.308-0.23466c-0.352 0.46933-0.66 0.82133-1.0413 0.82133-0.4987 0-0.7627-0.572-1.1734-1.892l-0.308-0.99734 0.8947-1.4227c0.2493-0.41066 0.4693-0.616 0.7773-0.616 0.2494 0 0.5134 0.14667 0.792 0.14667 0.3374 0 0.66-0.20534 0.66-0.704 0-0.396-0.2053-0.63067-0.7186-0.63067-0.924 0-1.4814 0.76267-1.8627 1.4227l-0.7187 1.232h-0.044l-0.176-0.748c-0.1907-0.792-0.484-1.4373-0.836-1.848h-0.22l-1.9947 0.23466v0.44c0.1907-0.0293 0.3227-0.044 0.484-0.044 0.88 0 1.1587 0.396 1.54 1.6133l0.4107 1.3493-1.056 1.5253c-0.572 0.82134-0.836 0.83601-0.8947 0.83601-0.2346 0-0.616-0.19067-0.9093-0.19067-0.3667 0-0.5867 0.308-0.5867 0.63067 0 0.33733 0.22 0.704 0.8507 0.704 0.88 0 1.364-0.68934 1.8333-1.452l0.9387-1.5253h0.059l0.3666 1.4813c0.2347 0.95333 0.5134 1.5107 1.2321 1.5107z" style="paint-order:stroke fill markers" aria-label="x"/><path d="m954.98 259.47c0.98267 0 1.8187-1.188 3.4027-3.4467 0.14667-0.20533 1.672-2.3467 2.4053-3.7107 0.45467-0.836 0.63067-1.4227 0.63067-1.9507 0-0.82133-0.44-1.188-0.93867-1.188-0.41067 0-0.63067 0.264-0.63067 0.58667 0 0.572 0.71867 0.86533 0.71867 1.408 0 0.23467-0.132 0.63067-0.484 1.2027l-1.6867 2.7133h-0.088l-0.132-1.4667-0.32267-2.1413c-0.176-1.1733-0.27866-1.6427-0.60133-2.2h-0.22l-1.9653 0.16133v0.42534c0.132-0.0147 0.264-0.0293 0.396-0.0293 0.86534 0 0.95334 0.64534 1.0707 1.3787l0.836 5.1627c-0.41067 0.616-1.584 2.2587-1.9067 2.2587-0.23467 0-0.45467-0.792-1.056-0.792-0.32267 0-0.572 0.22-0.572 0.63067 0 0.60133 0.55733 0.99733 1.144 0.99733z" style="paint-order:stroke fill markers" aria-label="y"/></g><g transform="translate(8.418e-6 12.25)"><g><path d="m993.52 280.11c-2.9862 0-5.4121 2.4278-5.4121 5.4141s2.4259 5.4121 5.4121 5.4121 5.4121-2.4259 5.4121-5.4121-2.4259-5.4141-5.4121-5.4141zm0 0.54101c2.6944 0 4.873 2.1787 4.873 4.873s-2.1787 4.8711-4.873 4.8711c-2.6944 1e-5 -4.873-2.1767-4.873-4.8711s2.1787-4.873 4.873-4.873z" color="#000000" fill-rule="evenodd" stroke-miterlimit="3.2" style="-inkscape-stroke:none;paint-order:stroke fill markers"/><path d="m990.07 281.72-0.35352 0.35351 7.248 7.248 0.35351-0.35351z" color="#000000" style="-inkscape-stroke:none"/><path d="m996.97 281.72-7.248 7.248 0.35352 0.35351 7.248-7.248z" color="#000000" style="-inkscape-stroke:none"/></g></g><path d="m957.15 332.71c2.3027 0 3.2413-2.3027 3.2413-4.8107 0-3.0213-1.32-4.7667-3.212-4.7667-2.1267 0-3.256 1.936-3.256 4.7227 0 2.596 0.86534 4.8547 3.2267 4.8547zm0-0.528c-1.1733 0-1.8187-1.408-1.8187-4.2534 0-2.904 0.64533-4.2973 1.804-4.2973 1.2027 0 1.8333 1.3787 1.8333 4.356 0 2.816-0.66 4.1947-1.8187 4.1947z" stroke-linejoin="round" stroke-miterlimit="3.2" stroke-width=".54" style="paint-order:stroke fill markers" aria-label="0"/></g></svg>
