<svg xmlns="http://www.w3.org/2000/svg" version="1.0" width="1231.801085pt" height="596.9431544006158pt" viewBox="0 0 1231.801085 596.9431544006158" preserveAspectRatio="xMidYMid meet">
<metadata>
Created by potrace 1.16, written by Peter Selinger 2001-2019
</metadata>
<g transform="translate(-80.939285,616.000000) scale(0.100000,-0.100000)" fill="#000000" stroke="none">
<path d="M1546 6143 c-3 -10 -8 -35 -11 -55 -7 -37 -8 -37 -59 -40 -62 -4 -64 -21 -3 -28 40 -5 44 -7 37 -26 -6 -14 -21 -24 -44 -28 -22 -4 -36 -13 -36 -21 0 -18 1 -18 36 -5 25 10 26 9 20 -12 -17 -61 -19 -81 -7 -77 7 3 21 27 30 54 17 49 18 50 60 53 37 3 42 1 37 -15 -17 -58 -18 -75 -6 -71 7 2 19 25 27 51 l14 47 57 1 c89 1 111 17 25 18 -65 1 -73 3 -73 20 0 16 10 21 58 27 92 11 107 24 24 21 -54 -2 -71 0 -68 9 3 7 8 29 12 49 6 33 4 37 -12 33 -12 -2 -20 -13 -22 -28 -7 -65 -11 -70 -48 -70 -34 0 -36 2 -30 26 18 72 19 84 3 84 -9 0 -18 -8 -21 -17z m74 -132 c0 -14 -10 -21 -36 -26 -20 -3 -38 -4 -41 -1 -12 12 8 35 34 39 15 2 31 5 36 6 4 0 7 -7 7 -18z"/>
<path d="M1961 6147 c-19 -6 -38 -21 -44 -35 -10 -22 -8 -28 22 -52 31 -27 32 -28 12 -35 -35 -11 -81 -55 -81 -79 0 -35 28 -65 66 -72 46 -9 135 11 168 37 46 36 30 97 -31 120 l-24 9 30 26 c76 64 -2 118 -118 81z m109 -27 c13 -9 11 -14 -13 -35 -33 -29 -58 -31 -92 -9 -25 17 -24 40 3 47 32 9 87 7 102 -3z m12 -127 c45 -41 -15 -93 -110 -93 -46 0 -54 3 -64 25 -13 30 -2 47 51 76 42 22 93 19 123 -8z"/>
<path d="M2295 6150 c-63 -7 -93 -19 -114 -44 -11 -13 -10 -17 3 -22 10 -4 22 0 29 10 15 21 74 35 145 36 67 0 69 -19 10 -77 -34 -33 -52 -42 -83 -45 -29 -2 -41 -8 -43 -21 -3 -17 0 -18 29 -12 l32 7 -21 -33 c-28 -46 -33 -92 -9 -97 13 -3 17 3 17 25 0 16 11 45 25 66 22 32 31 37 65 37 21 0 42 5 45 10 4 6 -5 10 -19 10 -33 0 -32 7 4 50 39 44 40 87 4 100 -27 11 -29 11 -119 0z"/>
<path d="M2623 6104 c-61 -36 -124 -155 -108 -203 7 -24 73 -51 122 -51 76 0 143 80 158 192 6 39 4 49 -14 67 -31 31 -103 28 -158 -5z m135 -44 c5 -50 -14 -105 -49 -145 -27 -31 -37 -35 -78 -35 -62 0 -93 22 -85 58 12 48 36 86 78 124 36 33 46 37 86 35 44 -2 45 -3 48 -37z"/>
<path d="M872 5848 c9 -27 281 -51 771 -68 368 -13 1343 -12 1532 1 83 6 210 14 283 18 78 3 131 10 130 16 -3 11 -177 8 -288 -6 -41 -5 -352 -12 -690 -16 -770 -7 -1381 12 -1623 52 -106 18 -120 18 -115 3z"/>
<path d="M2824 5684 c-10 -40 10 -74 45 -74 59 0 71 63 13 68 -28 3 -31 6 -21 18 9 11 8 14 -10 14 -14 0 -23 -8 -27 -26z m61 -34 c3 -5 -3 -10 -15 -10 -12 0 -18 5 -15 10 3 6 10 10 15 10 5 0 12 -4 15 -10z"/>
<path d="M3245 5701 c-6 -5 -39 -19 -75 -31 -36 -12 -71 -26 -77 -32 -9 -7 -13 -40 -13 -99 0 -48 -5 -100 -10 -115 -7 -17 -7 -31 -1 -37 18 -18 35 38 39 130 3 52 9 96 16 101 19 15 126 52 127 44 1 -4 1 -55 -1 -114 -3 -126 14 -147 24 -30 3 42 9 103 13 135 5 52 4 57 -14 57 -10 0 -23 -4 -28 -9z"/>
<path d="M3691 5448 c0 -393 -8 -767 -20 -838 -5 -36 -14 -117 -20 -180 -10 -123 -14 -1193 -4 -1297 11 -122 21 -61 22 135 5 897 10 1256 20 1317 23 149 32 277 30 445 -1 96 -1 282 -1 414 1 131 -1 242 -4 247 -19 31 -23 -16 -23 -243z"/>
<path d="M1120 5683 c-21 -8 -80 -65 -80 -78 0 -5 -9 -16 -19 -22 -21 -13 -25 -43 -36 -240 -4 -84 -3 -103 9 -103 17 0 22 19 25 97 5 133 29 235 68 281 70 81 236 47 236 -48 0 -66 -79 -102 -143 -65 -29 17 -50 19 -50 5 0 -5 19 -19 42 -31 142 -73 251 99 119 188 -27 18 -47 23 -95 22 -34 0 -68 -3 -76 -6z"/>
<path d="M2202 5655 c-15 -11 -33 -14 -56 -10 -32 6 -36 4 -66 -40 -35 -51 -31 -77 10 -55 33 18 70 5 70 -24 0 -60 -33 -85 -81 -61 -16 9 -38 15 -47 13 -13 -3 -10 -8 13 -24 53 -37 80 -38 115 -4 47 46 34 126 -22 137 -43 9 -28 27 28 33 54 6 98 26 89 41 -9 13 -27 11 -53 -6z"/>
<path d="M1785 5638 c-11 -6 -27 -14 -35 -18 -24 -11 -60 -71 -60 -99 0 -14 9 -41 20 -58 16 -27 26 -33 53 -33 64 0 177 105 177 165 0 8 -9 24 -20 35 -23 23 -100 27 -135 8z m118 -27 c23 -23 -39 -109 -104 -142 -39 -19 -39 -19 -59 1 -11 11 -20 29 -20 41 0 33 31 89 49 89 9 0 25 8 36 16 21 16 80 13 98 -5z"/>
<path d="M2520 5596 c-17 -30 -38 -60 -45 -66 -19 -16 -19 -30 0 -30 11 0 13 -8 8 -32 -14 -80 8 -90 74 -33 l41 35 6 -25 c10 -41 48 -52 97 -29 49 22 85 72 95 131 5 36 3 45 -19 67 -29 29 -57 34 -57 11 0 -8 6 -15 14 -15 50 0 43 -92 -10 -146 -42 -41 -80 -45 -94 -10 -11 30 3 84 31 121 16 19 19 29 11 37 -14 14 -48 -13 -58 -46 -13 -41 -80 -126 -100 -126 -17 0 4 77 39 146 24 48 26 64 5 64 -4 0 -22 -24 -38 -54z"/>
<path d="M1466 5591 c5 -6 28 -13 52 -17 35 -5 42 -4 42 10 0 13 -11 16 -52 16 -33 0 -48 -4 -42 -9z"/>
<path d="M4049 5573 c-19 -48 -43 -97 -66 -135 -26 -42 -27 -48 -13 -48 6 0 24 23 41 51 l31 50 19 -30 c24 -39 60 -41 112 -6 l37 26 0 -26 c0 -42 25 -24 28 20 2 21 10 48 18 59 8 11 14 26 14 33 0 21 -28 15 -41 -9 -17 -34 -60 -78 -93 -95 -28 -15 -31 -14 -49 8 -15 19 -18 34 -14 71 7 54 -8 73 -24 31z"/>
<path d="M5732 5572 c-8 -6 -12 -25 -10 -53 3 -43 2 -44 -34 -53 -46 -11 -56 -4 -38 29 18 34 -8 75 -49 75 -35 0 -95 -39 -100 -65 -4 -21 -18 -35 -38 -35 -19 0 -16 24 7 53 32 40 4 45 -36 6 -35 -34 -43 -34 -22 1 25 39 -4 33 -38 -8 -20 -23 -40 -42 -45 -42 -5 0 -9 16 -9 35 0 28 -4 35 -19 35 -37 0 -70 -19 -76 -43 -7 -28 -45 -49 -66 -37 -11 7 -10 12 4 28 17 18 17 20 -7 36 -14 9 -33 16 -41 16 -56 0 -77 -61 -27 -78 l27 -9 -29 -14 c-25 -12 -30 -11 -41 4 -7 9 -24 17 -39 17 -27 0 -34 18 -15 37 6 6 9 19 7 29 -3 18 -5 17 -23 -3 -11 -11 -28 -33 -38 -47 -10 -14 -27 -26 -37 -26 -17 0 -19 5 -13 45 5 37 3 46 -12 51 -28 11 -108 -19 -122 -45 -11 -24 -31 -41 -47 -41 -8 0 -5 18 9 53 5 13 2 17 -13 17 -13 0 -24 -10 -30 -29 -6 -16 -20 -35 -32 -41 -25 -13 -39 -5 -22 12 7 7 12 20 12 31 0 23 -29 19 -41 -5 -5 -10 -13 -26 -18 -35 -4 -10 -20 -19 -35 -21 -18 -2 -26 -9 -26 -23 0 -23 3 -23 43 -5 57 26 172 35 245 20 19 -4 38 -2 46 5 10 9 16 8 26 -4 15 -18 20 -18 57 -4 39 16 84 11 109 -12 23 -21 67 -18 82 6 4 7 21 10 45 7 29 -3 37 -8 33 -21 -2 -9 -15 -57 -27 -107 -21 -85 -25 -91 -49 -92 -14 0 -45 -8 -68 -17 -32 -13 -46 -14 -56 -6 -10 8 -21 9 -42 0 -16 -6 -47 -11 -69 -12 -39 -2 -40 -3 -49 -50 -13 -65 5 -84 30 -32 19 42 46 62 93 71 l33 7 -7 -42 c-8 -47 6 -55 24 -13 7 15 23 35 37 45 27 20 80 28 78 12 -1 -5 -4 -30 -8 -53 -5 -33 -3 -43 6 -40 7 3 14 13 16 24 2 10 9 33 17 49 7 17 25 82 40 145 28 119 61 201 83 208 7 2 12 -6 12 -21 0 -30 21 -50 45 -41 10 4 21 1 26 -7 7 -11 12 -10 30 8 l22 22 17 -22 c16 -19 21 -20 45 -9 21 10 31 10 41 1 9 -7 31 -9 59 -6 27 4 45 3 45 -3 0 -14 50 -13 90 2 36 12 75 50 86 82 5 14 0 25 -16 38 -25 20 -30 21 -48 10z m-107 -31 c10 -17 -17 -60 -47 -72 -40 -16 -53 -1 -34 37 20 37 67 57 81 35z m137 -23 c-9 -9 -12 -7 -12 12 0 19 3 21 12 12 9 -9 9 -15 0 -24z m-896 7 c6 -15 -42 -64 -64 -65 -37 -1 -19 53 23 70 29 12 35 12 41 -5z m262 -13 c2 -7 -7 -12 -23 -12 -24 0 -26 2 -15 15 14 17 31 16 38 -3z"/>
<path d="M6765 5575 c-5 -2 -21 -6 -35 -9 -15 -3 -39 -24 -57 -50 -33 -46 -84 -69 -106 -47 -16 16 8 63 30 59 12 -2 19 4 21 20 5 33 -30 29 -65 -9 -56 -62 -78 -79 -97 -77 -11 2 -21 8 -23 14 -5 17 25 44 41 38 20 -8 31 16 15 32 -23 22 -58 5 -80 -38 -19 -37 -43 -57 -55 -45 -3 3 2 17 11 31 27 41 14 56 -49 56 -71 0 -84 -6 -101 -46 -9 -23 -21 -34 -34 -34 -25 0 -26 8 -6 34 19 26 19 46 0 46 -9 0 -25 -16 -36 -35 -12 -20 -29 -35 -39 -35 -16 0 -17 4 -7 30 8 21 8 33 0 41 -14 14 -43 -15 -43 -45 0 -26 -29 -56 -53 -56 -9 0 -17 -7 -17 -15 0 -8 4 -15 10 -15 15 0 60 23 60 31 0 4 26 5 58 3 31 -3 66 -5 77 -5 11 0 37 -5 58 -11 26 -8 44 -8 60 -1 15 7 29 8 41 1 12 -7 24 -5 43 7 18 12 28 14 36 6 18 -18 62 -13 91 10 20 16 26 17 26 6 0 -27 75 -38 98 -15 10 10 19 8 43 -6 19 -11 39 -16 55 -12 20 5 27 3 31 -14 8 -32 25 -24 18 9 -5 22 -1 38 15 59 38 51 16 105 -35 87z m35 -39 c0 -8 -10 -27 -23 -41 -22 -26 -23 -27 -45 -8 -21 17 -22 19 -7 41 19 26 75 32 75 8z m-479 -37 c-4 -28 -17 -39 -48 -39 -30 0 -34 11 -14 36 32 40 68 41 62 3z m394 -29 c3 -5 -1 -10 -9 -10 -9 0 -16 5 -16 10 0 6 4 10 9 10 6 0 13 -4 16 -10z"/>
<path d="M7554 5566 c-31 -14 -49 -40 -39 -56 7 -11 -43 -45 -52 -36 -3 3 -1 17 5 31 7 14 12 31 12 37 0 18 -53 -2 -97 -38 -48 -39 -61 -43 -39 -12 9 12 16 27 16 33 0 15 -49 35 -86 35 -37 0 -84 -41 -84 -75 0 -13 -9 -26 -24 -33 -33 -15 -38 -6 -19 33 21 45 12 68 -24 59 -37 -9 -63 -32 -56 -50 8 -20 45 -18 41 2 -2 10 3 19 11 22 11 3 12 -1 7 -19 -3 -13 -9 -36 -12 -51 l-6 -27 83 4 c109 4 145 14 203 59 51 38 73 41 40 5 -10 -12 -18 -29 -16 -38 1 -10 -10 -24 -29 -35 -41 -24 -99 -76 -99 -88 0 -18 62 -88 91 -104 66 -34 138 44 139 149 0 27 -4 57 -10 67 -7 13 -6 21 5 30 12 10 16 9 21 -3 9 -24 71 -31 101 -12 18 12 28 14 36 6 14 -14 77 -15 77 -1 0 6 -9 10 -19 10 -43 0 -51 10 -45 54 6 39 4 44 -17 49 -37 10 -81 7 -115 -7z m80 -12 c21 -8 20 -33 -1 -56 -18 -20 -53 -24 -70 -7 -15 15 7 57 32 62 11 2 21 5 22 6 1 0 8 -2 17 -5z m-330 -23 c12 -18 -13 -60 -39 -67 -35 -9 -38 -3 -20 39 15 36 46 50 59 28z m196 -152 c0 -68 -42 -139 -82 -139 -21 0 -98 66 -98 84 0 13 72 69 124 98 40 21 56 8 56 -43z"/>
<path d="M1487 5544 c-13 -13 5 -24 39 -24 24 0 34 5 34 15 0 10 -10 15 -33 15 -19 0 -37 -3 -40 -6z"/>
<path d="M3325 5527 c-34 -29 -45 -95 -20 -121 18 -18 48 -14 76 10 20 18 34 18 49 -1 7 -8 22 -15 34 -15 20 1 19 2 -7 24 -25 20 -27 27 -21 63 5 35 3 43 -14 52 -32 17 -69 13 -97 -12z m75 -7 c18 -10 18 -12 -6 -47 -27 -40 -42 -53 -62 -53 -35 0 -18 79 21 98 28 14 25 14 47 2z"/>
<path d="M2345 5530 c-7 -11 2 -30 15 -30 4 0 10 6 13 14 6 16 -19 30 -28 16z"/>
<path d="M4412 5531 c-31 -8 -24 -27 8 -23 30 4 37 10 24 21 -5 4 -19 5 -32 2z"/>
<path d="M1910 5440 c0 -5 -16 -34 -35 -64 -35 -55 -42 -76 -27 -76 13 0 93 130 87 141 -8 12 -25 12 -25 -1z"/>
<path d="M1167 5243 c-2 -5 -10 -33 -17 -63 -6 -30 -15 -68 -19 -85 -5 -23 -13 -31 -34 -33 -33 -4 -36 -19 -4 -24 19 -3 22 -9 22 -53 0 -42 3 -51 25 -62 29 -15 100 -17 100 -4 0 11 -25 21 -55 21 -34 0 -48 23 -40 69 6 37 9 40 41 43 44 4 49 22 7 26 -18 2 -33 6 -33 10 0 4 9 40 20 80 11 39 20 74 20 77 0 8 -28 6 -33 -2z"/>
<path d="M2327 5195 c-6 -33 21 -49 57 -35 33 12 33 38 0 50 -39 15 -51 12 -57 -15z m43 -5 c0 -5 -2 -10 -4 -10 -3 0 -8 5 -11 10 -3 6 -1 10 4 10 6 0 11 -4 11 -10z"/>
<path d="M2435 5147 c-29 -18 -54 -48 -71 -86 -13 -28 -13 -42 -4 -82 16 -66 50 -93 106 -85 59 8 99 25 87 37 -6 6 -19 6 -37 -1 -68 -26 -122 -1 -132 61 -8 45 25 113 64 133 35 17 72 5 72 -25 0 -27 24 -20 28 8 6 42 -67 68 -113 40z"/>
<path d="M1722 5124 c-44 -31 -11 -83 44 -70 34 9 30 26 -7 26 -46 0 -31 24 18 28 56 4 69 -14 51 -70 -9 -30 -18 -42 -28 -38 -8 2 -35 4 -60 5 -42 0 -45 -2 -48 -29 -9 -78 37 -110 88 -61 23 22 34 26 59 20 20 -4 31 -3 31 4 0 6 -7 11 -15 11 -24 0 -27 22 -10 63 33 80 9 127 -65 127 -20 0 -46 -7 -58 -16z m62 -155 c14 -13 -25 -50 -48 -47 -22 3 -32 28 -22 54 6 15 51 11 70 -7z"/>
<path d="M1932 5097 c4 -49 28 -64 28 -17 0 32 0 32 48 25 60 -9 62 -10 53 -42 -5 -19 -16 -29 -39 -35 -41 -11 -42 -28 -2 -28 30 0 31 -1 24 -36 -5 -29 -4 -36 7 -32 8 3 15 13 17 24 7 50 13 62 32 67 23 6 27 27 5 27 -19 0 -19 30 0 56 8 10 14 21 15 24 0 3 -43 6 -96 6 l-95 2 3 -41z"/>
<path d="M3770 5118 c-20 -21 -21 -29 -14 -83 10 -73 10 -302 0 -366 -5 -35 -12 -48 -27 -52 -27 -7 -21 -41 8 -45 30 -4 37 -47 24 -137 -19 -124 -15 -179 15 -214 24 -29 25 -34 15 -78 -6 -31 -6 -51 0 -58 13 -13 29 12 29 47 0 39 9 56 28 51 9 -2 26 3 37 11 19 15 18 15 -16 16 l-36 0 14 83 c12 70 18 86 45 111 26 24 37 27 67 22 42 -6 71 -37 71 -76 0 -41 -21 -54 -76 -45 -36 5 -45 4 -42 -7 7 -19 111 -23 126 -5 40 48 11 133 -54 155 -33 11 -45 11 -79 -3 -54 -21 -75 -53 -87 -136 -9 -60 -12 -68 -26 -57 -12 11 -13 30 -6 123 9 124 7 206 -5 218 -5 5 -4 29 1 55 11 56 13 304 3 382 -8 69 8 100 44 80 29 -15 42 -3 17 16 -28 20 -52 17 -76 -8z"/>
<path d="M1442 5099 c-13 -5 -21 -13 -18 -18 7 -10 96 9 96 21 0 11 -49 9 -78 -3z"/>
<path d="M5853 5073 c-8 -21 -21 -54 -28 -73 -8 -23 -19 -36 -33 -38 -27 -4 -28 -19 -2 -27 15 -5 18 -12 13 -36 -11 -58 32 -97 77 -69 16 10 8 15 -35 22 -16 3 -19 10 -17 33 5 44 21 58 59 52 25 -4 33 -2 33 9 0 9 -11 14 -29 14 -17 0 -33 4 -36 10 -3 5 5 37 18 69 14 33 22 63 19 66 -13 12 -24 3 -39 -32z"/>
<path d="M4270 5038 c-48 -84 -89 -140 -99 -134 -4 3 -21 46 -36 96 -23 69 -33 90 -47 90 -22 0 -23 5 6 -77 46 -129 54 -147 65 -151 22 -7 90 78 158 201 11 20 9 37 -5 37 -4 0 -23 -28 -42 -62z"/>
<path d="M5654 5054 c-37 -62 -37 -149 -1 -228 14 -31 30 -56 36 -56 15 0 25 21 13 29 -19 12 -43 93 -44 148 0 38 6 64 26 98 30 55 30 55 11 55 -8 0 -26 -20 -41 -46z"/>
<path d="M7250 5096 c0 -2 13 -18 29 -35 16 -17 37 -52 47 -76 32 -86 -1 -226 -62 -258 -18 -9 -23 -17 -15 -21 52 -33 131 120 116 228 -7 55 -22 89 -61 135 -21 26 -54 42 -54 27z"/>
<path d="M5336 5071 c-30 -33 -56 -259 -31 -271 6 -3 11 11 13 30 7 102 26 202 41 220 14 16 23 18 60 11 45 -9 64 -26 56 -49 -3 -8 -5 -20 -5 -27 0 -27 -37 -37 -65 -19 -20 13 -29 14 -38 5 -16 -16 3 -45 31 -49 14 -2 34 -24 54 -57 18 -30 39 -55 46 -55 17 0 15 9 -13 55 -38 61 -38 62 -17 83 26 26 36 75 22 102 -22 42 -123 56 -154 21z"/>
<path d="M6973 5051 c-16 -26 5 -54 38 -49 19 2 24 9 24 33 0 25 -5 31 -25 33 -16 2 -29 -4 -37 -17z m42 -11 c3 -5 -1 -10 -10 -10 -9 0 -13 5 -10 10 3 6 8 10 10 10 2 0 7 -4 10 -10z"/>
<path d="M1457 5051 c-54 -9 -46 -27 11 -22 51 3 62 7 62 22 0 10 -13 10 -73 0z"/>
<path d="M3913 5028 c-13 -6 -23 -15 -23 -20 0 -5 -11 -13 -24 -18 -26 -10 -30 -28 -42 -187 -4 -64 -3 -93 4 -93 17 0 22 13 38 121 20 133 35 165 85 180 32 10 42 9 63 -5 37 -24 45 -65 16 -88 -25 -20 -52 -23 -82 -7 -30 16 -36 0 -8 -23 29 -23 81 -19 111 8 28 26 25 89 -6 119 -27 27 -90 33 -132 13z"/>
<path d="M4838 5032 c-17 -2 -28 -9 -28 -19 0 -10 6 -13 16 -9 9 3 99 6 201 6 137 0 184 3 181 12 -3 8 -53 12 -174 12 -93 1 -181 0 -196 -2z"/>
<path d="M6304 4999 c-23 -25 -9 -53 30 -57 31 -4 35 13 4 21 -18 5 -19 8 -8 21 16 20 44 20 59 2 14 -17 7 -52 -18 -85 -18 -23 -19 -23 -42 -7 -35 24 -57 20 -75 -15 -31 -61 18 -103 74 -63 20 14 25 14 40 2 24 -21 50 -29 57 -18 3 5 -3 14 -14 19 -30 16 -33 43 -11 86 22 44 25 67 10 96 -15 27 -80 26 -106 -2z m26 -136 c8 -8 -41 -43 -51 -37 -11 6 -12 38 -2 47 6 7 42 0 53 -10z"/>
<path d="M6741 5002 c-44 -22 -50 -39 -16 -48 26 -6 51 5 27 13 -19 7 -3 23 24 23 14 0 24 -6 24 -14 0 -18 -27 -46 -44 -46 -21 0 -41 -29 -29 -41 8 -8 20 -6 41 5 42 22 62 20 62 -4 0 -31 -30 -70 -54 -70 -11 0 -34 9 -51 20 -33 22 -45 25 -45 10 0 -5 18 -21 39 -36 69 -45 132 -11 134 72 1 25 -5 41 -17 50 -12 8 -17 20 -13 35 13 50 -20 63 -82 31z"/>
<path d="M6487 5003 c-11 -10 -8 -71 3 -78 6 -3 10 4 10 18 0 33 7 37 41 25 43 -15 36 -53 -10 -59 -35 -5 -39 -29 -6 -29 23 0 25 -3 19 -22 -10 -33 -10 -42 1 -48 6 -3 16 14 23 38 10 30 19 42 33 42 23 0 26 27 4 32 -13 3 -13 8 3 40 23 44 20 50 -18 36 -20 -6 -35 -6 -49 1 -22 12 -45 14 -54 4z"/>
<path d="M6090 4977 c0 -24 -4 -27 -35 -27 -24 0 -35 -5 -35 -15 0 -10 10 -15 30 -15 28 0 30 -3 30 -35 0 -19 4 -35 10 -35 5 0 12 16 16 35 3 20 12 35 20 35 8 0 14 7 14 15 0 8 -5 14 -12 13 -6 -2 -14 6 -16 17 -7 33 -22 42 -22 12z"/>
<path d="M4500 4983 c-61 -7 -58 -23 4 -23 40 0 56 4 54 12 -5 14 -13 16 -58 11z"/>
<path d="M7019 4963 c-52 -32 -72 -94 -48 -146 16 -36 45 -49 90 -42 53 9 50 25 -5 25 -52 0 -70 17 -70 67 0 27 7 42 32 64 44 39 80 38 95 -4 7 -20 27 -14 27 8 0 42 -72 59 -121 28z"/>
<path d="M4463 4918 c2 -8 21 -13 47 -13 26 0 45 5 48 13 2 8 -11 12 -48 12 -37 0 -50 -4 -47 -12z"/>
<path d="M4865 4848 c-15 -23 -47 -63 -71 -88 -43 -46 -49 -69 -13 -49 10 5 34 30 53 55 l35 45 17 -25 c21 -33 54 -34 129 -1 l58 26 -6 -35 c-6 -37 1 -76 13 -76 4 0 10 27 13 60 3 34 12 72 21 85 9 13 16 27 16 30 0 13 -25 3 -54 -22 -17 -14 -55 -37 -84 -50 -81 -36 -111 -9 -77 70 15 35 -22 17 -50 -25z"/>
<path d="M12785 4879 c-6 -9 1 -11 100 -27 33 -6 72 -15 88 -21 29 -11 37 -31 12 -31 -8 0 -15 -4 -15 -9 0 -9 79 -25 87 -18 2 3 7 21 10 41 4 29 2 36 -10 36 -9 0 -18 -4 -21 -9 -4 -5 -24 0 -46 10 -22 11 -52 22 -68 24 -62 10 -132 13 -137 4z"/>
<path d="M12637 4844 c-12 -13 6 -59 46 -116 22 -32 44 -58 49 -58 5 0 6 -4 3 -10 -10 -16 -364 -12 -490 6 -154 22 -683 31 -707 12 -14 -11 -17 -44 -22 -213 -4 -110 -11 -301 -17 -425 -10 -194 -7 -755 6 -1140 l3 -85 34 -7 c91 -19 446 -30 782 -25 199 2 444 1 544 -4 141 -7 189 -6 205 4 34 19 -121 24 -726 26 -457 1 -714 9 -793 26 -19 4 -20 12 -24 197 -2 106 -4 213 -5 238 -11 226 -2 747 21 1268 l6 133 247 -6 c135 -4 320 -15 411 -26 208 -24 584 -27 597 -5 4 8 26 19 48 25 44 12 175 13 215 2 l25 -7 -22 -12 c-28 -15 -30 -36 -4 -29 18 4 20 -3 27 -71 4 -42 4 -117 0 -166 -4 -50 -9 -193 -11 -318 -2 -126 -6 -231 -9 -236 -2 -4 2 -142 10 -307 8 -165 14 -388 13 -495 -2 -198 0 -231 18 -237 10 -4 8 542 -2 647 -13 134 -5 876 10 900 3 6 3 84 -1 175 l-7 164 -31 10 c-58 17 -170 21 -223 8 -50 -13 -52 -13 -62 10 -18 38 -90 132 -110 143 -22 11 -45 13 -54 4z"/>
<path d="M2945 4793 c-42 -23 -64 -53 -65 -90 0 -35 -14 -49 -46 -45 -11 2 -27 -4 -34 -12 -11 -14 -8 -16 22 -16 42 0 58 -15 58 -54 0 -58 -81 -131 -138 -124 -23 3 -27 8 -30 38 -2 27 5 46 28 78 36 50 37 54 8 50 -14 -2 -33 -22 -53 -56 -31 -54 -90 -110 -103 -98 -16 17 2 84 34 127 18 25 31 49 27 53 -15 15 -34 4 -52 -31 -10 -21 -31 -49 -45 -62 -23 -22 -27 -49 -5 -36 5 4 9 -7 9 -24 0 -38 9 -61 25 -61 6 0 31 14 54 30 37 27 42 29 48 13 10 -29 35 -53 55 -53 53 0 150 81 164 137 4 15 2 39 -4 55 -10 26 -9 28 13 22 17 -4 28 1 44 22 28 36 27 60 -5 77 l-27 14 32 6 c17 4 38 4 46 1 10 -4 18 3 25 21 5 14 10 28 10 31 0 11 -68 2 -95 -13z m-5 -118 c-10 -12 -16 -13 -27 -3 -13 10 -12 14 3 25 24 17 42 0 24 -22z"/>
<path d="M9316 4760 c-1 -3 -3 -225 -4 -495 -2 -269 -7 -562 -12 -650 -6 -88 -10 -232 -11 -320 -1 -88 -4 -205 -8 -260 -4 -55 -6 -102 -4 -104 12 -16 714 -49 943 -44 113 3 286 -1 385 -7 261 -17 255 -17 272 6 12 16 14 50 9 199 -21 648 -16 1287 10 1577 11 111 75 103 -819 103 -418 0 -760 -2 -761 -5z m1293 -60 l29 -35 116 0 116 0 -6 -130 c-3 -71 -8 -133 -10 -136 -6 -10 -5 -786 2 -1153 l6 -359 -78 8 c-44 4 -99 9 -124 11 -25 2 -205 5 -400 5 -337 2 -902 28 -943 44 -11 5 -16 14 -12 25 9 30 26 706 31 1235 3 275 6 505 8 511 3 8 181 11 620 10 l615 -1 30 -35z"/>
<path d="M9969 4633 c-34 -4 -37 -7 -45 -46 -11 -58 -11 -60 3 -64 6 -2 16 12 23 32 21 63 99 77 87 15 -9 -43 8 -45 32 -5 24 41 41 50 76 41 23 -6 25 -11 23 -43 -2 -22 2 -38 10 -40 8 -3 12 9 12 41 0 35 -5 48 -22 60 -28 20 -62 20 -78 1 -7 -8 -18 -15 -25 -15 -7 0 -15 7 -19 15 -3 8 -13 14 -23 13 -10 -1 -34 -3 -54 -5z"/>
<path d="M9670 4420 c0 -5 5 -10 10 -10 6 0 10 5 10 10 0 6 -4 10 -10 10 -5 0 -10 -4 -10 -10z"/>
<path d="M9930 4316 c0 -3 25 -61 55 -131 30 -69 55 -136 55 -149 0 -13 6 -29 14 -35 11 -9 28 11 89 102 82 122 104 163 94 174 -12 11 -42 -24 -76 -89 -19 -35 -46 -81 -62 -102 -25 -34 -29 -37 -35 -20 -54 150 -103 254 -119 254 -8 0 -15 -2 -15 -4z"/>
<path d="M10560 4256 c0 -9 5 -16 10 -16 6 0 10 4 10 9 0 6 -4 13 -10 16 -5 3 -10 -1 -10 -9z"/>
<path d="M9476 4002 c-3 -6 -1 -14 5 -17 15 -10 25 3 12 16 -7 7 -13 7 -17 1z"/>
<path d="M10377 3863 c-12 -11 -8 -23 8 -23 8 0 15 7 15 15 0 16 -12 20 -23 8z"/>
<path d="M10045 3746 c-44 -20 -62 -45 -80 -111 -24 -93 -45 -239 -34 -249 15 -16 22 1 34 92 24 175 63 252 127 252 89 0 132 -90 68 -143 -32 -28 -58 -27 -86 4 -20 22 -34 25 -34 7 0 -23 52 -58 86 -58 24 0 39 9 63 35 36 42 39 76 11 122 -34 57 -94 76 -155 49z"/>
<path d="M9457 3624 c-3 -3 -3 -12 0 -20 4 -11 9 -12 19 -3 8 6 11 15 8 20 -6 10 -18 12 -27 3z"/>
<path d="M10614 3556 c-8 -22 3 -33 18 -18 9 9 9 15 0 24 -9 9 -13 7 -18 -6z"/>
<path d="M10034 3313 c-9 -21 -20 -51 -24 -68 -5 -27 -10 -31 -50 -35 -52 -6 -56 -26 -5 -22 35 3 35 3 35 -42 0 -54 19 -76 66 -76 41 0 37 16 -7 25 -37 8 -45 26 -29 65 11 26 18 30 52 30 27 0 38 4 35 13 -2 7 -17 11 -36 9 -30 -3 -31 -2 -25 25 4 15 13 43 20 62 18 42 17 51 0 51 -7 0 -22 -17 -32 -37z"/>
<path d="M10162 3209 c2 -6 8 -10 13 -10 5 0 11 4 13 10 2 6 -4 11 -13 11 -9 0 -15 -5 -13 -11z"/>
<path d="M9540 3130 c0 -5 7 -10 15 -10 8 0 15 5 15 10 0 6 -7 10 -15 10 -8 0 -15 -4 -15 -10z"/>
<path d="M3283 4719 c-24 -11 -72 -22 -107 -26 l-63 -6 -2 -72 c-1 -40 -6 -88 -11 -106 -12 -42 -13 -59 -1 -59 15 0 33 65 40 143 l6 72 35 2 c19 2 48 7 64 13 16 5 37 10 47 10 16 0 17 -4 8 -27 -16 -41 -49 -214 -43 -225 10 -15 24 2 24 30 l0 27 13 -24 c18 -37 41 -47 69 -33 20 11 29 10 53 -2 17 -9 41 -16 55 -16 22 0 21 3 -15 23 -34 20 -40 28 -41 57 -1 52 -12 70 -43 70 -27 0 -63 -29 -74 -60 -16 -43 -4 36 18 123 14 54 25 100 25 102 0 8 -13 4 -57 -16z m102 -179 c3 -5 -1 -25 -9 -45 -12 -28 -20 -36 -38 -33 -29 4 -31 17 -8 56 19 31 43 41 55 22z"/>
<path d="M1095 4666 c-69 -31 -98 -116 -110 -328 -5 -85 -4 -118 4 -118 17 0 19 13 30 166 10 152 23 195 76 244 33 31 97 33 146 4 53 -31 53 -101 -1 -129 -36 -19 -57 -19 -94 0 -43 23 -54 17 -23 -10 44 -39 129 -32 164 14 19 25 26 87 13 111 -26 49 -141 74 -205 46z"/>
<path d="M1883 4669 c-6 -6 -22 -16 -35 -23 -27 -13 -58 -72 -65 -125 -15 -113 137 -106 195 9 30 61 29 103 -4 129 -29 23 -73 28 -91 10z m78 -35 c48 -59 -64 -200 -131 -164 -42 23 -16 135 38 165 36 19 77 19 93 -1z"/>
<path d="M2206 4640 c-65 -57 -83 -160 -35 -194 28 -20 88 1 109 37 14 25 13 28 -8 49 -16 16 -33 22 -62 22 -43 -2 -43 -1 -2 54 27 35 66 43 76 15 5 -11 10 -13 17 -6 17 17 -7 53 -36 53 -13 0 -40 -14 -59 -30z m43 -119 c20 -13 7 -39 -25 -51 -30 -12 -54 1 -54 30 0 27 49 40 79 21z"/>
<path d="M12995 4650 c-8 -13 20 -24 36 -15 8 6 7 10 -2 16 -18 11 -26 11 -34 -1z"/>
<path d="M12847 4637 c-33 -13 -31 -27 7 -40 31 -10 31 -11 40 26 7 30 0 32 -47 14z"/>
<path d="M12927 4643 c-10 -9 -9 -23 1 -23 5 0 17 7 28 15 19 14 19 14 -2 15 -11 0 -24 -3 -27 -7z"/>
<path d="M5573 4616 c14 -13 29 -36 33 -51 14 -55 -18 -195 -44 -195 -5 0 -13 5 -20 12 -9 9 -12 9 -12 0 0 -9 -32 -12 -115 -12 -110 0 -115 1 -106 19 6 10 14 44 17 75 7 61 28 86 71 86 16 0 23 -6 23 -20 0 -11 -4 -20 -10 -20 -5 0 -10 -7 -10 -16 0 -10 8 -15 23 -14 46 4 57 0 57 -20 0 -27 -25 -36 -65 -21 -18 6 -40 8 -49 5 -13 -5 -8 -11 24 -25 77 -34 114 -19 108 43 -2 22 -10 36 -25 42 -12 6 -25 24 -30 40 -9 28 -13 31 -49 29 -63 -4 -88 -30 -95 -99 -11 -110 6 -104 -264 -104 -202 0 -235 -2 -235 -15 0 -13 25 -15 165 -15 91 0 165 -4 165 -9 0 -5 14 -14 30 -21 34 -14 86 -7 111 16 14 12 52 15 215 16 110 0 260 -5 336 -12 94 -8 142 -9 155 -2 28 16 7 20 -186 32 -96 6 -176 12 -178 14 -2 2 1 16 7 32 6 15 11 58 11 95 0 71 -17 122 -46 133 -33 12 -37 5 -12 -18z m-350 -283 c-13 -2 -35 -2 -50 0 -16 2 -5 4 22 4 28 0 40 -2 28 -4z"/>
<path d="M4806 4590 c-31 -35 -36 -47 -36 -89 0 -54 14 -101 29 -101 6 0 8 27 4 68 -6 69 -6 69 31 106 33 32 40 56 17 56 -5 0 -25 -18 -45 -40z"/>
<path d="M11751 4579 c-40 -49 -50 -103 -27 -147 9 -18 23 -32 31 -32 19 0 19 10 0 34 -24 31 -18 80 13 118 15 18 30 35 35 36 4 2 7 10 7 18 0 26 -26 14 -59 -27z"/>
<path d="M12984 4608 c-7 -11 23 -21 41 -14 8 3 15 10 15 16 0 11 -49 10 -56 -2z"/>
<path d="M8236 4601 c-3 -4 6 -13 19 -19 38 -18 58 -68 63 -161 5 -87 -8 -169 -36 -231 -24 -54 -71 -109 -98 -116 -13 -3 -21 -10 -18 -15 11 -18 42 -8 74 24 90 91 133 284 94 417 -21 70 -80 131 -98 101z"/>
<path d="M12920 4600 c0 -5 9 -10 21 -10 11 0 17 5 14 10 -3 6 -13 10 -21 10 -8 0 -14 -4 -14 -10z"/>
<path d="M1545 4585 c-30 -13 -30 -13 23 -14 40 -1 52 2 52 14 0 19 -35 19 -75 0z"/>
<path d="M4942 4564 c-18 -20 -32 -43 -32 -51 0 -8 -5 -24 -11 -35 -7 -13 -8 -23 -1 -30 7 -7 18 4 32 33 12 24 33 58 46 75 21 28 22 44 4 44 -3 0 -21 -16 -38 -36z"/>
<path d="M2385 4561 c-7 -12 12 -24 25 -16 11 7 4 25 -10 25 -5 0 -11 -4 -15 -9z"/>
<path d="M11867 4540 c-10 -16 -22 -30 -27 -30 -12 0 -5 -73 8 -78 5 -1 13 13 16 32 4 18 15 45 26 59 11 14 20 30 20 36 0 22 -26 10 -43 -19z"/>
<path d="M12360 4561 c0 -5 7 -11 15 -15 39 -15 -8 -186 -56 -201 -24 -8 -25 -25 -1 -25 58 0 117 146 88 215 -13 31 -46 50 -46 26z"/>
<path d="M5912 4544 c-23 -10 -38 -11 -51 -4 -14 7 -31 5 -61 -5 -23 -8 -46 -12 -51 -9 -11 6 -24 -26 -34 -83 -9 -57 10 -57 34 0 22 51 37 65 81 74 31 6 33 5 26 -18 -20 -63 3 -97 24 -35 13 40 25 52 64 62 l29 7 -6 -52 c-5 -41 -3 -51 9 -51 12 0 14 12 12 63 -3 70 -15 78 -76 51z"/>
<path d="M12123 4545 c-31 -13 -33 -17 -33 -67 0 -35 -7 -64 -20 -85 -17 -29 -25 -33 -62 -33 -29 0 -39 -3 -31 -11 13 -13 40 -15 76 -5 35 8 66 72 67 132 0 44 10 54 54 54 21 0 46 -17 46 -30 0 -4 -11 -12 -25 -18 -42 -19 -30 -34 21 -26 44 6 46 6 42 -17 -3 -26 -30 -31 -75 -15 -36 12 -27 -9 12 -27 45 -22 51 -21 75 3 28 28 26 68 -4 81 -14 7 -27 22 -30 34 -4 14 -18 27 -37 34 -39 13 -36 13 -76 -4z"/>
<path d="M1585 4542 c-33 -4 -59 -21 -34 -23 29 -2 64 3 72 11 12 11 -3 16 -38 12z"/>
<path d="M5067 4514 c-4 -4 -7 -10 -7 -13 0 -11 95 -7 100 4 6 11 -82 20 -93 9z"/>
<path d="M11942 4513 c-19 -8 -4 -23 24 -23 16 0 24 5 22 13 -5 13 -26 18 -46 10z"/>
<path d="M1362 4468 c4 -59 28 -63 28 -4 0 35 -4 46 -16 46 -12 0 -14 -9 -12 -42z"/>
<path d="M4168 4495 c-7 -7 9 -81 23 -107 6 -11 11 -43 12 -71 2 -49 3 -52 27 -49 32 3 62 32 121 116 51 72 57 86 37 86 -7 0 -26 -23 -43 -50 -37 -64 -103 -129 -109 -109 -2 8 -12 53 -22 102 -15 78 -28 100 -46 82z"/>
<path d="M6486 4447 c-64 -78 -77 -132 -55 -225 14 -56 35 -85 44 -60 4 9 2 25 -4 36 -6 11 -14 45 -17 75 -7 63 13 116 67 173 26 27 29 44 8 44 -4 0 -24 -19 -43 -43z"/>
<path d="M12515 4481 c-31 -6 -42 -29 -44 -88 -1 -35 16 -45 25 -15 18 54 28 72 46 78 27 8 43 -10 43 -48 0 -17 6 -33 13 -35 6 -3 12 2 12 10 0 26 40 67 66 67 18 0 25 -7 30 -27 10 -47 14 -54 23 -49 11 7 -2 71 -19 91 -16 19 -34 19 -72 -1 -28 -15 -31 -14 -52 5 -24 22 -24 22 -71 12z"/>
<path d="M6687 4449 c-16 -25 -41 -81 -51 -111 -4 -12 -16 -18 -36 -18 -16 0 -30 -4 -30 -10 0 -5 12 -10 26 -10 22 0 25 -4 21 -22 -3 -13 -9 -35 -12 -50 -5 -21 -2 -29 15 -38 27 -14 82 -9 88 9 3 10 -3 12 -24 7 -44 -9 -55 3 -43 47 10 36 12 37 54 37 53 0 60 16 10 26 -43 8 -44 23 -9 89 16 31 22 51 15 58 -6 6 -15 1 -24 -14z"/>
<path d="M1995 4409 c-41 -57 -54 -84 -38 -78 17 6 93 102 93 116 0 25 -19 12 -55 -38z"/>
<path d="M6146 4428 c-22 -20 -28 -40 -46 -157 -12 -83 -17 -138 -11 -144 13 -13 28 44 46 166 7 54 19 105 26 113 19 23 77 17 104 -11 14 -13 25 -29 25 -35 0 -19 -50 -62 -65 -56 -8 3 -22 9 -31 12 -12 5 -15 1 -12 -17 2 -15 12 -25 28 -29 17 -4 34 -22 51 -54 25 -45 59 -79 59 -58 0 5 -13 33 -29 62 l-29 52 24 36 c13 19 24 43 24 54 0 70 -109 114 -164 66z"/>
<path d="M7940 4435 c-11 -13 -11 -19 3 -32 22 -22 72 -7 72 22 0 26 -56 33 -75 10z"/>
<path d="M4474 4432 c3 -5 25 -13 49 -17 23 -4 47 -11 53 -16 7 -6 16 -4 23 5 16 19 7 23 -68 32 -44 5 -62 4 -57 -4z"/>
<path d="M7694 4420 c-17 -4 -36 -10 -42 -14 -19 -12 -14 -44 8 -51 29 -9 45 4 23 20 -17 12 -16 14 10 20 56 15 62 -36 7 -67 -16 -9 -30 -22 -30 -28 0 -15 28 -12 60 6 34 21 60 12 60 -20 0 -62 -76 -92 -123 -48 -27 25 -37 28 -37 9 0 -21 41 -49 79 -54 30 -4 43 0 68 21 52 44 52 116 0 130 -10 2 -16 9 -12 15 9 16 -4 50 -23 59 -9 5 -31 6 -48 2z"/>
<path d="M7410 4371 c-12 -38 -8 -61 11 -61 5 0 9 14 9 30 0 34 1 34 51 20 31 -9 36 -14 32 -35 -4 -18 -12 -25 -37 -27 -36 -3 -42 -21 -8 -26 20 -3 22 -7 16 -39 -9 -46 16 -42 28 6 6 20 18 35 33 41 27 10 34 30 10 30 -19 0 -19 21 0 46 22 29 20 47 -4 34 -28 -14 -64 -12 -87 5 -30 22 -40 18 -54 -24z"/>
<path d="M7231 4383 c-21 -17 -22 -22 -10 -40 14 -24 46 -36 54 -23 3 5 -4 14 -16 20 -29 16 -11 32 32 28 28 -2 34 -8 37 -28 1 -14 -7 -40 -18 -59 l-21 -33 -23 21 c-25 23 -65 28 -84 9 -28 -28 -2 -118 35 -118 8 0 28 10 45 21 22 16 32 19 41 10 6 -6 20 -11 32 -11 19 1 19 2 -4 21 l-24 20 27 52 c14 29 26 59 26 68 0 48 -86 76 -129 42z m24 -139 c15 -15 15 -18 -1 -35 -9 -11 -23 -19 -30 -19 -15 0 -34 31 -34 54 0 21 44 21 65 0z"/>
<path d="M4510 4371 c0 -14 68 -34 88 -26 15 5 15 7 2 14 -26 14 -90 23 -90 12z"/>
<path d="M7007 4374 c-4 -4 -7 -18 -7 -31 0 -19 -5 -23 -30 -23 -16 0 -30 -4 -30 -10 0 -5 14 -10 31 -10 27 0 30 -3 29 -27 -3 -43 -1 -46 15 -33 8 7 15 23 15 36 0 13 8 28 18 33 16 10 16 12 -4 28 -12 10 -23 24 -26 31 -2 7 -7 10 -11 6z"/>
<path d="M7996 4361 c-92 -61 -87 -201 6 -201 30 0 98 24 98 35 0 3 -27 3 -60 -1 -68 -8 -90 3 -90 45 0 36 33 87 68 105 32 16 56 8 46 -17 -4 -12 -1 -17 10 -17 25 0 31 28 11 50 -23 25 -52 25 -89 1z"/>
<path d="M4090 4285 c-13 -21 -19 -42 -15 -53 5 -13 12 -8 30 28 27 50 29 60 16 60 -5 0 -19 -16 -31 -35z"/>
<path d="M11970 4305 c0 -8 5 -15 10 -15 6 0 10 7 10 15 0 8 -4 15 -10 15 -5 0 -10 -7 -10 -15z"/>
<path d="M12705 4230 c-8 -13 4 -32 16 -25 12 8 12 35 0 35 -6 0 -13 -4 -16 -10z"/>
<path d="M6797 4203 c-23 -45 -29 -83 -14 -83 15 0 48 98 36 106 -5 2 -14 -8 -22 -23z"/>
<path d="M5344 4188 c-23 -45 -94 -138 -105 -138 -5 0 -9 -7 -9 -15 0 -8 3 -15 8 -15 12 0 59 48 78 80 10 16 21 30 24 30 3 0 11 -14 17 -31 12 -30 14 -31 54 -25 24 4 59 20 81 37 l38 31 0 -46 c0 -24 5 -48 10 -51 6 -4 10 6 10 22 0 16 7 55 15 87 9 33 13 61 11 63 -2 3 -32 -20 -65 -51 -90 -83 -141 -89 -141 -17 0 22 5 43 10 46 15 9 12 25 -5 25 -8 0 -22 -15 -31 -32z"/>
<path d="M2417 4142 c-51 -51 -57 -65 -29 -60 9 2 16 -2 15 -9 -15 -75 -15 -95 -3 -91 8 2 19 29 25 59 6 30 22 75 37 102 35 61 16 61 -45 -1z"/>
<path d="M2141 4150 c-14 -16 -31 -44 -38 -62 -48 -113 65 -158 157 -63 30 31 35 43 34 81 -1 55 -22 73 -84 73 -37 0 -49 -5 -69 -29z m107 -6 c26 -18 28 -50 5 -84 -28 -41 -56 -59 -89 -60 -46 0 -59 20 -43 67 28 85 75 114 127 77z"/>
<path d="M1085 4156 c-59 -29 -64 -37 -71 -127 -13 -171 -52 -249 -123 -249 -29 0 -61 22 -61 41 0 5 -5 9 -11 9 -23 0 -2 -45 29 -63 29 -17 39 -18 71 -9 62 19 90 58 106 148 8 44 14 101 15 127 0 40 5 54 29 78 24 23 38 29 74 29 77 0 91 -54 19 -72 -38 -10 -43 -38 -8 -38 14 0 28 5 32 11 4 6 19 9 37 5 62 -13 73 -45 31 -95 -29 -35 -71 -41 -114 -16 -30 17 -40 18 -40 5 0 -12 73 -50 95 -50 30 0 75 30 90 61 25 48 16 91 -22 109 -26 12 -33 21 -33 46 0 17 -7 37 -15 44 -23 19 -96 22 -130 6z"/>
<path d="M1814 4145 c-76 -39 -104 -109 -65 -164 27 -37 59 -40 108 -10 54 34 90 126 65 167 -14 21 -74 24 -108 7z m83 -61 c-12 -107 -137 -156 -137 -53 0 58 42 99 101 99 l42 0 -6 -46z"/>
<path d="M12157 4144 c-8 -8 2 -33 34 -80 15 -22 40 -80 56 -129 16 -49 34 -90 40 -92 7 -3 24 15 39 39 15 24 51 79 81 124 29 44 53 83 53 87 0 4 -8 7 -17 7 -12 0 -39 -35 -78 -97 -33 -53 -65 -98 -71 -100 -5 -2 -16 20 -23 49 -7 29 -28 78 -45 108 -18 30 -36 63 -39 73 -6 17 -19 22 -30 11z"/>
<path d="M1465 4070 c-4 -6 13 -10 45 -10 32 0 49 4 45 10 -3 6 -24 10 -45 10 -21 0 -42 -4 -45 -10z"/>
<path d="M1467 4024 c-14 -14 6 -24 49 -24 32 0 44 4 42 13 -5 13 -79 22 -91 11z"/>
<path d="M11727 3996 c-6 -15 1 -26 15 -26 11 0 10 27 -1 34 -5 3 -11 0 -14 -8z"/>
<path d="M1949 3978 c-6 -13 -23 -33 -38 -45 -20 -17 -22 -22 -9 -23 21 0 78 47 78 65 0 25 -19 26 -31 3z"/>
<path d="M5938 3868 c58 -63 53 -263 -9 -342 -23 -29 -21 -40 5 -30 21 8 55 86 66 148 17 106 -21 246 -67 246 -14 0 -13 -4 5 -22z"/>
<path d="M5724 3819 c-27 -10 -36 -23 -28 -43 13 -33 74 -12 74 25 0 21 -19 29 -46 18z"/>
<path d="M4264 3788 c-37 -9 -49 -34 -63 -128 -10 -65 -17 -75 -72 -111 -13 -9 -21 -20 -17 -24 4 -4 20 1 35 11 15 11 33 19 40 19 6 0 22 16 35 35 17 26 32 36 55 38 28 3 35 -2 58 -39 19 -28 30 -38 37 -31 7 7 4 20 -11 40 -26 37 -26 36 -1 86 12 25 35 51 60 66 52 32 52 48 0 19 -37 -21 -41 -22 -53 -6 -17 23 -66 35 -103 25z m80 -40 c16 -27 -14 -51 -64 -52 -41 -1 -41 0 -36 29 4 16 12 33 19 37 20 13 69 4 81 -14z m-115 -122 c-9 -8 -10 -5 -5 14 3 14 6 32 7 40 1 8 4 2 6 -14 3 -16 -1 -34 -8 -40z m106 54 c-3 -5 -11 -10 -16 -10 -6 0 -7 5 -4 10 3 6 11 10 16 10 6 0 7 -4 4 -10z"/>
<path d="M4520 3746 c-44 -65 -57 -121 -38 -176 9 -28 22 -46 33 -49 14 -2 16 1 10 15 -26 61 -28 92 -12 135 9 24 28 56 42 71 29 32 30 34 10 42 -10 3 -25 -10 -45 -38z"/>
<path d="M12750 3770 c0 -5 7 -10 15 -10 8 0 15 5 15 10 0 6 -7 10 -15 10 -8 0 -15 -4 -15 -10z"/>
<path d="M4671 3721 c-16 -39 -27 -50 -46 -53 -14 -2 -24 -7 -23 -13 2 -5 11 -9 21 -8 16 3 17 -2 12 -42 -7 -40 -5 -45 17 -55 16 -8 32 -8 51 -1 40 15 34 33 -8 25 -38 -7 -42 2 -29 54 5 18 13 22 45 22 46 0 52 18 9 27 -35 7 -36 8 -11 50 11 17 17 34 14 37 -16 16 -32 2 -52 -43z"/>
<path d="M6890 3752 c0 -6 5 -14 11 -18 6 -3 20 -27 31 -51 16 -36 19 -57 13 -98 -7 -59 -60 -179 -74 -170 -5 3 -12 1 -15 -4 -10 -16 12 -23 34 -11 62 33 102 200 67 281 -15 35 -67 91 -67 71z"/>
<path d="M9052 3755 c2 -5 13 -30 24 -55 44 -95 38 -227 -12 -277 -21 -21 -22 -25 -7 -30 10 -4 23 2 34 16 60 74 50 262 -19 331 -13 14 -22 21 -20 15z"/>
<path d="M2825 3734 c-128 -9 -450 -16 -773 -19 -304 -2 -556 -7 -561 -9 -5 -3 -120 -6 -255 -6 -188 -1 -246 -4 -243 -13 3 -8 36 -12 113 -11 831 7 1389 16 1519 26 88 6 346 12 574 13 314 1 416 4 419 13 3 9 -31 12 -136 12 -76 0 -206 2 -288 4 -82 2 -248 -2 -369 -10z"/>
<path d="M4140 3730 c-19 -11 -50 -19 -68 -20 -18 0 -49 -7 -69 -15 -32 -14 -37 -14 -48 1 -9 13 -20 15 -47 10 -25 -5 -38 -3 -41 6 -8 22 -26 -5 -41 -60 -7 -29 -10 -55 -5 -57 9 -6 39 34 39 51 0 15 55 38 75 30 40 -15 10 -46 -114 -122 -35 -21 -58 -40 -52 -42 6 -2 45 17 86 42 42 25 82 46 90 46 8 0 15 4 15 10 0 9 97 60 115 60 4 0 4 -16 1 -35 -4 -21 -3 -35 3 -35 15 0 21 15 23 54 1 30 7 37 45 57 23 12 43 26 43 31 0 12 -11 9 -50 -12z"/>
<path d="M6338 3699 c-48 -50 -68 -94 -67 -146 0 -49 20 -105 38 -111 10 -3 12 0 8 12 -4 10 -10 41 -13 70 -8 62 9 107 60 164 51 56 26 66 -26 11z"/>
<path d="M5185 3689 c-4 -24 -3 -45 3 -51 17 -17 30 -1 24 29 -5 27 -4 28 15 11 11 -10 27 -18 36 -18 43 0 19 -47 -27 -53 -38 -5 -47 -27 -12 -27 21 0 26 -5 26 -25 0 -34 16 -31 29 5 5 17 17 30 25 30 20 0 31 20 16 30 -9 6 -9 13 -1 28 6 11 11 28 11 37 0 13 -4 14 -21 5 -27 -15 -66 -5 -79 20 -18 33 -38 24 -45 -21z"/>
<path d="M5414 3707 c-16 -14 -24 -29 -20 -35 9 -15 66 -16 66 -2 0 6 -7 10 -15 10 -27 0 -16 18 15 25 61 13 67 -19 13 -63 -33 -26 -36 -31 -20 -37 11 -5 25 -1 36 9 26 24 51 20 51 -7 0 -47 -40 -60 -91 -30 -33 20 -52 10 -23 -12 55 -44 105 -42 129 5 21 40 19 67 -5 80 -11 6 -20 19 -20 30 0 39 -11 50 -51 50 -25 0 -47 -8 -65 -23z"/>
<path d="M5754 3711 c-20 -12 -38 -36 -49 -64 -30 -79 4 -127 88 -127 52 0 44 24 -9 28 -21 2 -44 8 -51 14 -34 28 9 130 57 136 21 3 22 2 11 -12 -12 -14 -10 -16 8 -16 18 0 22 5 19 28 -4 34 -32 39 -74 13z"/>
<path d="M5035 3706 c-11 -8 -16 -19 -12 -30 9 -22 36 -31 50 -17 8 8 7 11 -6 11 -24 0 -21 17 3 23 30 8 44 -25 30 -68 -14 -43 -26 -51 -46 -31 -28 28 -84 14 -84 -20 0 -30 30 -43 95 -42 36 1 65 4 65 6 0 3 -7 10 -16 17 -15 11 -15 14 0 43 18 36 21 75 6 103 -13 22 -57 26 -85 5z m3 -128 c17 -17 15 -28 -7 -28 -22 0 -35 15 -26 30 8 13 18 13 33 -2z"/>
<path d="M12062 3709 c2 -6 8 -10 13 -10 5 0 11 4 13 10 2 6 -4 11 -13 11 -9 0 -15 -5 -13 -11z"/>
<path d="M4870 3690 c-6 -12 -21 -20 -35 -20 -16 0 -25 -6 -25 -15 0 -9 9 -15 24 -15 17 0 26 -6 28 -20 4 -28 22 -30 26 -4 2 12 12 24 24 27 22 6 16 27 -8 27 -11 0 -13 6 -9 20 4 11 2 20 -4 20 -6 0 -15 -9 -21 -20z"/>
<path d="M7417 3690 c-32 -25 -47 -75 -47 -152 0 -46 -4 -61 -22 -78 -12 -11 -26 -20 -32 -20 -6 0 -5 -5 2 -12 9 -9 16 -8 30 5 10 9 26 17 35 17 10 0 17 8 17 18 0 16 69 92 84 92 3 0 14 -17 25 -38 11 -21 27 -44 36 -52 30 -25 28 -1 -5 50 -18 27 -30 57 -27 64 3 8 38 39 77 68 39 29 66 54 60 56 -5 2 -29 -10 -52 -27 -38 -28 -43 -30 -51 -14 -25 47 -86 57 -130 23z m111 -31 c1 -9 -5 -26 -15 -38 -15 -19 -22 -21 -44 -12 -19 7 -30 6 -38 -2 -16 -16 -13 -45 5 -49 13 -2 11 -8 -10 -27 l-26 -24 0 54 c0 36 7 65 20 87 19 30 24 33 63 30 29 -2 43 -8 45 -19z"/>
<path d="M7685 3685 c-43 -47 -60 -95 -59 -168 0 -49 5 -72 17 -84 23 -24 30 -11 18 34 -6 21 -11 52 -11 69 0 38 46 131 71 145 11 5 17 14 14 20 -10 15 -25 10 -50 -16z"/>
<path d="M8908 3693 c-25 -6 -22 -20 7 -39 29 -19 45 -12 45 22 0 24 -11 28 -52 17z"/>
<path d="M6662 3678 c-7 -7 -12 -39 -13 -72 0 -34 -5 -77 -12 -96 -13 -38 -67 -80 -103 -80 -13 0 -24 -5 -24 -10 0 -22 32 -21 77 1 61 31 84 75 86 166 l2 68 43 3 c49 4 65 -17 38 -47 -16 -17 -22 -41 -10 -41 3 0 15 5 26 11 14 8 27 8 43 1 31 -14 22 -48 -17 -68 -27 -14 -32 -14 -55 1 -31 21 -42 12 -18 -15 27 -29 71 -26 106 9 41 41 39 74 -6 95 -22 11 -35 24 -35 36 0 40 -97 69 -128 38z"/>
<path d="M7816 3658 c-7 -18 -16 -41 -19 -50 -3 -9 -17 -18 -32 -20 -31 -4 -34 -22 -5 -26 17 -3 19 -8 14 -41 -7 -44 5 -58 58 -62 53 -5 57 8 8 21 -40 11 -42 13 -36 43 8 38 22 49 59 44 17 -2 27 1 27 10 0 8 -12 13 -31 13 -28 0 -31 2 -24 23 4 12 9 34 12 50 7 38 -15 35 -31 -5z"/>
<path d="M8651 3667 c-19 -7 -36 -17 -38 -24 -6 -17 34 -35 59 -27 21 6 21 7 3 20 -17 13 -16 14 18 14 52 0 48 -24 -10 -52 -25 -13 -47 -27 -47 -33 -2 -17 42 -17 68 1 21 13 29 14 41 4 22 -18 19 -37 -11 -66 -29 -29 -59 -27 -107 7 -31 23 -47 19 -27 -6 79 -95 230 -21 164 80 -9 13 -13 33 -10 43 12 36 -47 58 -103 39z"/>
<path d="M6412 3637 c-23 -39 -39 -127 -23 -127 6 0 11 9 11 19 0 10 14 45 30 76 35 66 34 65 16 65 -8 0 -23 -15 -34 -33z"/>
<path d="M8253 3645 c-37 -16 -37 -14 -23 -49 6 -16 17 -26 30 -26 25 0 26 9 3 26 -16 12 -16 15 -3 24 20 14 51 8 63 -11 13 -21 -10 -82 -29 -75 -7 3 -29 8 -48 11 -33 7 -37 5 -46 -21 -25 -64 28 -97 84 -53 26 20 28 21 47 4 26 -24 36 -12 15 20 -12 19 -14 30 -6 44 14 27 13 74 -2 93 -19 24 -49 29 -85 13z m22 -134 c6 -11 -35 -42 -47 -35 -4 3 -8 14 -8 25 0 14 7 19 24 19 14 0 27 -4 31 -9z"/>
<path d="M8390 3635 c-12 -33 -13 -65 -1 -65 5 0 14 13 19 29 8 24 14 28 36 24 15 -3 29 -9 32 -14 9 -15 -16 -49 -36 -49 -25 0 -50 -10 -50 -21 0 -5 13 -9 29 -9 25 0 28 -3 23 -25 -6 -35 13 -31 28 5 7 16 17 28 24 27 6 -1 10 8 8 21 -1 13 7 36 18 52 11 15 20 30 20 33 0 2 -19 4 -42 4 -24 0 -55 4 -70 8 -24 6 -29 4 -38 -20z"/>
<path d="M7311 3615 c-24 -14 -59 -27 -77 -31 -19 -3 -37 -10 -40 -16 -3 -5 -11 -4 -19 2 -9 7 -40 10 -82 7 l-67 -5 -13 -48 c-7 -27 -11 -56 -9 -65 2 -11 -9 -22 -36 -34 -25 -11 -36 -21 -30 -27 11 -11 50 8 136 65 52 35 59 37 70 22 10 -14 15 -12 36 21 24 37 81 66 97 51 3 -4 1 -25 -6 -48 -7 -22 -10 -44 -7 -47 14 -13 30 21 34 73 2 30 7 55 11 55 3 1 20 12 36 25 38 31 23 31 -34 0z m-158 -67 c-4 -10 -105 -78 -116 -78 -16 0 29 65 54 78 25 13 66 13 62 0z"/>
<path d="M8080 3600 c0 -15 -7 -20 -25 -20 -16 0 -25 -6 -25 -15 0 -9 9 -15 24 -15 20 0 24 -5 23 -24 -3 -35 17 -37 21 -3 2 16 10 31 18 34 16 6 19 33 4 33 -5 0 -10 7 -10 15 0 8 -7 15 -15 15 -8 0 -15 -9 -15 -20z"/>
<path d="M6474 3601 c-13 -14 1 -21 41 -21 25 0 45 4 45 9 0 9 -77 20 -86 12z"/>
<path d="M8928 3595 c-98 -54 -58 -207 47 -181 38 10 30 26 -13 26 -47 0 -62 14 -62 60 0 25 7 43 23 58 27 26 77 30 77 7 0 -8 7 -15 16 -15 11 0 14 8 12 28 -3 23 -8 27 -38 29 -19 2 -47 -4 -62 -12z"/>
<path d="M12263 3558 c-18 -5 -39 -19 -47 -31 -25 -40 -77 -319 -63 -334 15 -14 25 15 41 117 31 195 53 240 110 226 37 -9 76 -46 76 -71 0 -39 -27 -58 -74 -51 l-41 6 24 -20 c32 -28 57 -25 92 9 42 43 39 81 -8 119 -46 35 -68 41 -110 30z"/>
<path d="M7937 3503 c-10 -10 -8 -93 2 -93 4 0 13 23 18 50 8 38 7 50 -2 50 -6 0 -15 -3 -18 -7z"/>
<path d="M3932 3459 c5 -16 -46 -14 868 -23 311 -3 688 -9 838 -12 173 -5 272 -4 272 3 0 15 -558 32 -1299 39 -583 6 -683 5 -679 -7z"/>
<path d="M1536 3422 c-13 -21 -36 -62 -52 -92 -34 -66 -38 -70 -86 -70 -21 0 -38 -4 -38 -10 0 -5 18 -10 40 -10 44 0 44 -1 31 -46 -5 -17 -5 -37 0 -45 6 -11 9 -11 12 1 29 96 28 95 96 98 77 4 81 27 5 27 -59 0 -59 3 2 101 49 80 50 84 29 84 -8 0 -26 -17 -39 -38z"/>
<path d="M2313 3430 c-33 -20 -45 -57 -20 -65 30 -10 50 -9 54 3 3 7 -4 12 -16 12 -28 0 -35 17 -12 29 28 15 66 13 81 -4 19 -23 3 -69 -41 -116 -22 -24 -36 -46 -31 -51 11 -11 80 64 98 108 15 37 10 61 -21 86 -27 23 -53 22 -92 -2z"/>
<path d="M6135 3416 c-22 -7 -38 -17 -35 -22 3 -5 10 -7 15 -6 6 2 28 7 50 11 22 3 39 11 38 16 -3 15 -23 15 -68 1z"/>
<path d="M12464 3385 c-7 -39 1 -69 16 -60 13 8 13 95 0 95 -5 0 -12 -16 -16 -35z"/>
<path d="M8075 3400 c-44 -5 -348 -11 -675 -15 -701 -7 -904 -15 -922 -34 -11 -11 -5 -12 37 -7 78 9 798 20 1114 18 156 -2 340 2 410 9 180 15 491 11 740 -10 118 -10 223 -16 233 -13 20 5 25 22 6 22 -7 0 -101 8 -208 16 -223 19 -617 26 -735 14z"/>
<path d="M11692 3396 c1 -10 8 -17 13 -17 15 1 12 24 -3 29 -9 3 -13 -2 -10 -12z"/>
<path d="M4623 3368 c-4 -7 -16 -30 -28 -51 -29 -54 -113 -137 -139 -137 -12 0 -31 -7 -42 -16 -18 -15 -17 -15 16 -9 19 4 46 8 59 10 13 2 27 8 30 13 3 5 25 19 49 31 32 16 47 19 61 11 28 -14 64 -12 87 5 26 19 36 19 33 -2 -5 -57 16 -59 24 -3 6 46 30 89 55 97 9 3 33 11 52 18 35 13 35 13 -25 12 -44 -1 -63 -5 -72 -18 -11 -15 -133 -69 -156 -69 -12 0 -8 43 7 59 23 26 30 61 12 61 -8 0 -18 -6 -23 -12z m112 -103 c-19 -15 -43 -24 -65 -24 -34 0 -34 0 20 24 71 30 82 30 45 0z m-135 -14 c0 -5 -7 -11 -15 -15 -15 -5 -20 5 -8 17 9 10 23 9 23 -2z"/>
<path d="M6096 3342 c-8 -13 18 -22 66 -22 27 0 38 4 36 13 -5 14 -94 22 -102 9z"/>
<path d="M4979 3321 c-69 -22 -87 -46 -132 -186 -35 -108 -44 -159 -26 -153 7 2 26 49 42 104 39 138 62 183 103 200 87 36 136 -8 80 -73 -22 -25 -26 -26 -60 -16 -41 13 -48 1 -12 -22 51 -33 116 15 116 86 0 61 -38 82 -111 60z"/>
<path d="M2025 3298 c-70 -13 -81 -28 -19 -28 44 1 84 16 84 34 0 7 2 7 -65 -6z"/>
<path d="M11980 3300 c0 -5 4 -10 9 -10 6 0 13 5 16 10 3 6 -1 10 -9 10 -9 0 -16 -4 -16 -10z"/>
<path d="M7358 3273 c-8 -10 -27 -38 -41 -63 -41 -69 -86 -114 -152 -150 -72 -40 -70 -38 -62 -46 3 -4 22 3 42 15 20 11 41 21 47 21 6 0 36 17 65 37 48 33 61 37 122 39 53 1 76 6 100 23 l31 22 -6 -33 c-7 -35 -7 -36 -5 -55 2 -23 21 -14 21 10 0 45 30 127 52 138 19 10 19 12 4 27 -14 14 -17 14 -33 -5 -21 -23 -181 -95 -194 -87 -15 9 -10 29 16 64 36 49 30 86 -7 43z m142 -73 c0 -5 -5 -10 -11 -10 -5 0 -7 5 -4 10 3 6 8 10 11 10 2 0 4 -4 4 -10z m-40 -30 c-14 -11 -36 -19 -50 -19 -22 1 -20 3 15 20 52 24 67 24 35 -1z m-130 -19 c0 -5 -7 -11 -15 -15 -15 -5 -20 5 -8 17 9 10 23 9 23 -2z"/>
<path d="M7697 3240 c-58 -18 -73 -45 -111 -204 -30 -125 -34 -150 -21 -156 11 -6 25 35 54 170 27 119 48 157 95 165 80 15 121 -31 72 -80 -30 -30 -66 -32 -91 -5 -10 11 -22 20 -27 20 -15 0 -8 -27 12 -45 31 -28 86 -23 121 11 55 53 47 105 -19 124 -42 11 -47 11 -85 0z"/>
<path d="M12340 3215 c-7 -8 -18 -32 -25 -52 -8 -26 -22 -43 -43 -53 -35 -17 -37 -37 -3 -32 20 3 22 0 15 -20 -15 -46 -10 -61 29 -82 28 -15 40 -17 49 -8 9 9 4 13 -20 18 -42 8 -46 17 -30 59 12 34 36 49 69 45 25 -4 39 0 39 10 0 6 -18 10 -40 10 -22 0 -40 2 -40 5 0 2 9 27 20 55 11 28 20 53 20 55 0 11 -29 4 -40 -10z"/>
<path d="M1703 3168 c-20 -31 -33 -61 -29 -66 11 -10 36 9 36 27 0 11 5 23 10 26 13 8 13 25 1 25 -6 0 -13 -6 -18 -12z"/>
<path d="M1537 3149 c-21 -11 -55 -22 -75 -24 -20 -2 -39 -4 -42 -5 -14 -2 28 -20 48 -20 25 0 117 43 127 60 10 16 -17 11 -58 -11z"/>
<path d="M12695 3160 c-4 -6 -3 -16 3 -22 6 -6 12 -6 17 2 4 6 3 16 -3 22 -6 6 -12 6 -17 -2z"/>
<path d="M7916 3118 c-13 -64 -14 -88 -6 -93 5 -3 14 14 20 37 6 24 13 51 16 61 4 11 0 17 -10 17 -9 0 -18 -10 -20 -22z"/>
<path d="M2296 3103 c-12 -12 -6 -33 9 -33 8 0 15 6 15 14 0 17 -14 28 -24 19z"/>
<path d="M11786 3041 c-3 -5 1 -14 8 -20 16 -13 32 2 21 19 -8 12 -22 13 -29 1z"/>
<path d="M12472 3017 c-8 -9 -12 -32 -10 -54 l4 -38 12 29 c7 17 12 41 10 55 -3 22 -4 23 -16 8z"/>
<path d="M12376 2933 c-11 -11 -6 -23 9 -23 8 0 15 4 15 9 0 13 -16 22 -24 14z"/>
<path d="M6065 2874 c19 -29 25 -50 25 -94 0 -76 -25 -157 -61 -192 -22 -23 -25 -30 -14 -35 23 -8 44 15 71 75 45 101 25 282 -31 282 -11 0 -9 -9 10 -36z"/>
<path d="M4574 2840 c-57 -41 -78 -92 -71 -176 5 -71 23 -101 53 -90 16 6 16 8 -3 25 -30 28 -37 113 -14 160 18 35 70 81 91 81 5 0 10 7 10 15 0 22 -19 17 -66 -15z"/>
<path d="M5786 2841 c-15 -17 -16 -23 -6 -36 26 -31 76 -7 68 32 -5 26 -41 28 -62 4z m39 -11 c3 -5 -1 -10 -10 -10 -9 0 -13 5 -10 10 3 6 8 10 10 10 2 0 7 -4 10 -10z"/>
<path d="M4709 2784 c-13 -26 -28 -48 -34 -49 -5 -2 -22 -6 -37 -9 -37 -8 -36 -26 1 -26 28 0 28 0 18 -39 -9 -32 -8 -42 6 -55 18 -18 59 -21 88 -6 33 18 21 28 -26 22 -50 -5 -54 2 -35 54 10 24 14 26 51 20 31 -5 40 -3 37 6 -3 7 -13 15 -24 16 -33 6 -36 18 -15 60 18 36 19 52 1 52 -4 0 -18 -21 -31 -46z"/>
<path d="M5153 2785 c-35 -24 -5 -74 44 -75 34 0 37 18 3 25 -30 7 -41 30 -17 38 21 7 67 -14 67 -31 0 -10 -9 -28 -19 -41 -17 -22 -21 -23 -49 -12 -45 19 -74 11 -85 -22 -12 -37 5 -77 33 -77 12 0 34 10 50 22 23 17 33 19 42 10 7 -7 21 -12 33 -12 19 1 19 1 -2 19 -27 22 -29 34 -9 50 8 7 19 26 25 42 9 27 7 34 -14 55 -28 28 -70 31 -102 9z m27 -133 c0 -14 -24 -32 -42 -32 -21 0 -26 46 -5 53 14 5 47 -10 47 -21z"/>
<path d="M5536 2784 c-18 -17 -21 -44 -6 -44 6 0 15 -12 20 -26 8 -21 14 -24 33 -18 12 4 33 8 47 8 21 1 25 -3 22 -24 -1 -14 -12 -34 -23 -45 -19 -20 -19 -20 -69 8 -66 37 -85 30 -30 -11 74 -54 136 -35 147 45 5 35 2 43 -17 53 -13 7 -19 17 -16 27 4 9 1 22 -5 29 -16 19 -84 18 -103 -2z m74 -14 c11 -6 12 -12 4 -20 -7 -7 -19 -6 -38 4 -28 14 -26 17 14 25 3 0 12 -4 20 -9z"/>
<path d="M4956 2778 c-3 -7 -6 -22 -8 -33 -3 -16 -10 -19 -41 -17 -28 3 -37 0 -37 -12 0 -12 10 -16 36 -16 35 0 35 -1 29 -31 -6 -24 -4 -30 6 -27 8 3 15 14 17 26 2 12 12 22 24 24 29 4 36 28 8 28 -20 0 -22 4 -17 30 6 29 -9 53 -17 28z"/>
<path d="M5328 2766 c-11 -26 -5 -56 12 -56 5 0 10 10 10 22 0 17 3 19 12 10 7 -7 20 -12 30 -12 10 0 18 -6 18 -13 0 -21 -22 -37 -52 -37 -33 0 -38 -17 -5 -22 16 -2 21 -9 20 -26 -4 -30 23 -29 31 2 3 13 15 26 26 29 21 5 28 27 9 27 -6 0 0 15 15 34 28 37 21 55 -14 36 -24 -13 -56 -5 -64 15 -8 23 -35 18 -48 -9z"/>
<path d="M6284 2769 c-44 -20 -39 -7 -85 -219 l-10 -45 -172 6 c-95 4 -462 10 -816 14 -519 5 -642 4 -639 -6 5 -14 -25 -13 938 -25 278 -3 546 -9 595 -12 90 -7 90 -7 87 -34 -3 -20 1 -28 12 -28 14 0 21 19 17 44 -1 5 31 6 74 2 41 -3 109 -9 149 -12 97 -8 138 7 46 17 -136 14 -254 30 -258 33 -2 2 8 50 22 107 30 121 54 152 114 147 44 -4 61 -27 43 -60 -19 -36 -46 -49 -76 -38 -19 7 -25 6 -25 -4 0 -16 21 -26 55 -26 31 0 75 53 75 91 0 64 -65 86 -146 48z"/>
<path d="M5839 2757 c-19 -12 -43 -38 -53 -58 -35 -64 -2 -109 81 -109 30 0 34 2 23 15 -7 8 -23 15 -35 15 -68 0 -74 43 -15 102 42 43 61 45 70 8 5 -20 7 -21 18 -7 10 12 11 21 2 36 -14 27 -49 27 -91 -2z"/>
<path d="M6522 2671 c-14 -46 -15 -81 -3 -81 11 0 17 17 26 78 8 53 -8 56 -23 3z"/>
<path d="M10917 2692 c-23 -25 -38 -72 -31 -94 4 -15 13 -18 42 -16 32 3 37 6 37 28 0 21 -5 25 -27 25 -34 -1 -35 5 -4 34 21 20 24 21 30 5 5 -13 10 -14 18 -6 16 16 2 42 -25 42 -13 0 -31 -8 -40 -18z m18 -82 c3 -5 -1 -10 -10 -10 -9 0 -13 5 -10 10 3 6 8 10 10 10 2 0 7 -4 10 -10z"/>
<path d="M8428 2671 c-26 -23 -39 -45 -48 -82 -21 -87 4 -192 40 -168 13 8 13 10 1 18 -19 13 -27 119 -11 165 6 20 23 45 37 56 14 10 23 25 21 31 -2 7 -18 -1 -40 -20z"/>
<path d="M9680 2642 c37 -36 40 -43 40 -93 0 -59 -28 -119 -55 -119 -8 0 -15 -4 -15 -10 0 -5 11 -10 24 -10 45 0 83 87 72 164 -8 48 -55 106 -88 106 -15 0 -11 -8 22 -38z"/>
<path d="M3856 2587 c-34 -81 -39 -87 -83 -87 -17 0 -35 -4 -38 -10 -7 -11 4 -13 48 -10 27 2 27 2 21 -52 -6 -51 -5 -54 17 -55 42 -2 90 8 84 18 -4 5 -20 9 -36 9 -29 0 -30 1 -27 43 3 42 3 42 46 45 51 4 57 22 7 22 -41 0 -42 6 -14 63 38 77 40 87 21 87 -12 0 -26 -22 -46 -73z"/>
<path d="M9292 2623 c-10 -21 -10 -63 1 -63 4 0 10 9 13 20 6 21 29 26 53 11 21 -13 6 -39 -31 -55 -31 -14 -32 -15 -11 -21 18 -6 21 -12 16 -36 -8 -40 10 -36 30 6 9 19 22 35 28 35 5 0 8 8 5 18 -4 10 1 27 9 38 21 28 19 31 -29 43 -24 6 -50 13 -59 17 -9 3 -19 -2 -25 -13z"/>
<path d="M9993 2628 c-71 -15 -110 -108 -61 -142 35 -25 52 -18 21 8 -28 24 -28 24 -10 60 19 40 54 59 101 54 28 -3 31 -6 28 -33 -2 -16 -17 -47 -34 -68 -32 -41 -32 -55 1 -37 27 14 61 81 61 119 0 47 -27 57 -107 39z"/>
<path d="M10602 2628 c-50 -62 -71 -168 -34 -168 10 0 35 9 57 20 48 24 45 24 45 2 0 -24 31 -52 56 -52 34 0 81 37 103 82 41 85 20 114 -74 103 -51 -7 -56 -10 -77 -47 -23 -41 -90 -89 -104 -75 -10 9 11 52 47 98 16 20 29 40 29 43 0 11 -37 6 -48 -6z m218 -60 c-1 -33 -52 -102 -78 -106 -27 -4 -52 14 -52 37 0 9 11 33 25 54 22 32 31 37 65 37 35 0 40 -3 40 -22z"/>
<path d="M8513 2623 c-7 -2 -13 -13 -13 -23 0 -31 58 -59 67 -32 3 7 -4 12 -16 12 -27 0 -27 17 0 25 31 10 52 -15 40 -46 -15 -40 -33 -50 -68 -37 -41 15 -63 5 -63 -30 0 -45 23 -59 66 -39 19 10 43 17 54 17 22 0 36 16 18 22 -10 4 -9 11 3 29 28 42 32 79 12 95 -18 13 -76 17 -100 7z m12 -132 c3 -5 1 -13 -5 -16 -15 -9 -43 3 -35 15 8 13 32 13 40 1z"/>
<path d="M8657 2624 c-11 -11 -8 -76 3 -69 6 3 10 15 10 27 0 17 4 19 27 13 35 -9 36 -9 28 -34 -5 -16 -15 -21 -41 -21 -38 0 -47 -17 -11 -22 16 -2 21 -9 20 -26 -2 -14 3 -22 12 -22 8 0 15 7 15 15 0 14 25 33 45 33 16 1 18 22 1 22 -21 0 -20 12 4 43 11 14 17 28 13 30 -16 9 -119 18 -126 11z"/>
<path d="M9142 2621 c-8 -5 -12 -21 -10 -40 1 -18 -2 -35 -9 -39 -21 -13 -26 -58 -8 -76 20 -20 29 -20 60 0 19 13 27 13 44 2 26 -16 42 -1 17 17 -18 13 -18 15 3 48 28 46 28 83 -1 91 -33 8 -81 7 -96 -3z m81 -23 c16 -12 16 -15 -3 -46 -11 -18 -25 -30 -31 -27 -7 5 -6 11 2 21 9 11 6 16 -15 24 -30 11 -34 26 -8 33 30 8 38 7 55 -5z m-58 -98 c0 -8 -8 -16 -17 -18 -13 -2 -18 3 -18 18 0 15 5 20 18 18 9 -2 17 -10 17 -18z"/>
<path d="M9471 2617 c-8 -10 -7 -18 2 -31 14 -20 54 -18 50 2 -2 7 4 12 12 12 8 0 15 -4 15 -9 0 -12 -29 -41 -41 -41 -5 0 -9 -7 -9 -15 0 -13 7 -15 34 -9 44 8 59 -1 46 -26 -16 -30 -47 -34 -86 -10 -19 12 -38 20 -41 16 -10 -10 20 -38 56 -53 31 -13 36 -13 60 5 14 10 30 31 36 47 8 23 6 30 -13 45 -12 10 -22 29 -22 43 0 14 -7 28 -16 31 -27 10 -71 7 -83 -7z"/>
<path d="M10229 2607 c-45 -30 -66 -85 -47 -124 26 -54 123 -34 116 25 -2 23 -10 29 -45 37 -47 11 -46 23 4 49 44 22 53 20 53 -10 0 -37 24 -25 28 14 3 31 2 32 -36 32 -24 0 -52 -9 -73 -23z m44 -96 c13 -12 -20 -33 -45 -29 -15 2 -24 11 -26 26 -3 22 -1 23 30 17 18 -4 37 -10 41 -14z"/>
<path d="M8940 2575 c0 -8 -9 -15 -19 -15 -29 0 -37 -20 -11 -27 17 -4 20 -11 16 -29 -9 -33 17 -32 32 1 7 15 20 25 32 25 11 0 20 5 20 10 0 6 -9 10 -21 10 -12 0 -23 8 -26 20 -6 23 -23 27 -23 5z"/>
<path d="M9820 2555 c0 -8 5 -15 10 -15 6 0 10 7 10 15 0 8 -4 15 -10 15 -5 0 -10 -7 -10 -15z"/>
<path d="M10435 2549 c-10 -15 3 -25 16 -12 7 7 7 13 1 17 -6 3 -14 1 -17 -5z"/>
<path d="M4185 2520 c-4 -6 18 -10 59 -10 37 0 66 4 66 10 0 6 -26 10 -59 10 -33 0 -63 -4 -66 -10z"/>
<path d="M7787 2524 c-4 -4 -7 -18 -7 -31 0 -21 4 -24 28 -21 21 2 27 8 27 28 0 18 -6 26 -20 28 -12 2 -24 0 -28 -4z"/>
<path d="M7211 2467 c-6 -8 -14 -28 -17 -45 -5 -25 -3 -32 10 -32 9 0 16 8 16 18 1 39 15 45 59 22 50 -25 49 -45 -1 -45 -47 0 -58 -11 -19 -20 35 -7 37 -12 16 -39 -19 -25 -19 -36 -2 -36 8 0 19 11 25 25 7 14 24 30 38 35 18 7 24 15 20 27 -4 10 2 25 15 40 23 24 21 26 -23 23 -14 -1 -44 8 -67 19 -47 25 -55 25 -70 8z"/>
<path d="M7489 2466 c-33 -16 -30 -40 5 -44 23 -3 28 0 22 13 -5 13 0 16 22 13 40 -4 37 -40 -4 -48 -40 -9 -54 -18 -54 -36 0 -19 49 -18 77 1 19 13 23 13 37 -1 22 -21 20 -40 -6 -58 -32 -23 -64 -20 -106 9 -42 29 -72 35 -52 10 65 -78 200 -73 200 8 0 18 -7 42 -15 53 -8 10 -15 29 -15 40 0 12 -6 26 -12 32 -21 16 -74 21 -99 8z"/>
<path d="M4195 2460 c-4 -6 20 -10 64 -10 41 0 71 4 71 10 0 6 -28 10 -64 10 -36 0 -68 -4 -71 -10z"/>
<path d="M7005 2456 c-24 -17 -14 -41 24 -54 39 -14 52 3 16 20 -30 14 -16 28 28 28 42 0 49 -46 14 -94 -13 -18 -15 -18 -38 -3 -33 24 -75 22 -93 -5 -24 -33 -20 -65 10 -85 25 -16 28 -16 65 5 32 19 42 20 64 10 33 -15 45 -2 16 18 -21 15 -21 17 -5 41 25 38 34 81 24 109 -8 21 -16 24 -58 24 -26 0 -57 -6 -67 -14z m26 -125 l23 -18 -27 -18 c-31 -20 -57 -14 -57 13 0 18 18 42 31 42 4 0 17 -8 30 -19z"/>
<path d="M4568 2425 c-59 -39 -91 -89 -96 -151 -5 -64 12 -114 39 -114 18 0 18 1 -1 37 -11 21 -20 47 -20 58 1 53 63 137 136 182 19 12 19 12 -1 12 -11 0 -37 -11 -57 -24z"/>
<path d="M7824 2440 c-11 -4 -33 -22 -47 -40 -32 -38 -37 -98 -9 -123 24 -22 85 -31 112 -17 29 16 17 25 -29 21 -54 -3 -86 24 -76 67 9 42 50 74 89 70 25 -2 31 -7 29 -25 -2 -16 2 -21 12 -17 26 10 18 53 -11 64 -30 12 -42 12 -70 0z"/>
<path d="M10047 2412 l-37 -37 -728 -1 c-400 0 -731 -1 -737 -2 -5 -1 -5 -6 1 -12 6 -6 281 -9 739 -8 402 1 816 1 920 1 105 0 278 -5 385 -11 107 -6 196 -9 199 -6 3 2 0 9 -5 14 -13 13 -468 36 -616 32 -60 -2 -108 0 -108 4 0 4 9 18 21 30 36 38 4 35 -34 -4z"/>
<path d="M5334 2406 c32 -29 36 -39 36 -82 0 -31 -8 -64 -21 -89 -25 -46 -35 -55 -67 -55 -13 0 -20 -4 -17 -10 13 -21 63 -11 85 18 67 85 65 190 -4 236 -43 27 -49 18 -12 -18z"/>
<path d="M4010 2394 c-6 -16 -14 -42 -17 -58 -10 -47 20 -27 34 24 15 52 0 81 -17 34z"/>
<path d="M6740 2406 c0 -20 78 -42 93 -27 11 11 -9 21 -65 35 -21 5 -28 3 -28 -8z"/>
<path d="M8136 2412 c-6 -9 18 -15 103 -25 8 -1 16 4 18 11 3 7 -4 12 -19 12 -12 0 -39 3 -59 6 -21 4 -39 2 -43 -4z"/>
<path d="M4659 2374 c-13 -14 -35 -30 -48 -35 -19 -8 -21 -12 -11 -24 9 -11 7 -21 -10 -45 -15 -21 -19 -35 -12 -42 6 -6 19 6 38 38 16 25 44 62 62 82 17 19 32 39 32 44 0 17 -27 7 -51 -18z"/>
<path d="M5060 2390 c-46 -11 -60 -34 -60 -99 0 -52 -2 -57 -45 -98 -50 -48 -85 -61 -121 -44 -19 8 -24 8 -24 -4 0 -37 93 -30 148 11 51 39 72 81 72 141 0 61 14 73 79 73 34 0 41 -3 41 -20 0 -12 -10 -24 -24 -30 -13 -5 -27 -14 -31 -19 -10 -17 23 -25 40 -11 20 17 65 -2 65 -26 0 -40 -59 -55 -111 -28 -39 20 -52 9 -19 -17 40 -31 70 -34 109 -13 32 17 36 23 36 59 0 31 -5 42 -22 49 -17 8 -20 16 -16 43 4 25 2 33 -9 33 -9 0 -28 2 -44 4 -16 3 -45 1 -64 -4z"/>
<path d="M5607 2375 c-45 -16 -83 -48 -104 -90 -33 -63 -94 -248 -84 -258 12 -12 22 7 56 108 39 114 72 172 114 201 65 44 151 24 151 -36 0 -49 -62 -76 -112 -49 -29 16 -37 0 -9 -22 30 -24 67 -24 108 0 39 24 48 51 33 97 -9 26 -22 40 -46 50 -41 17 -58 17 -107 -1z"/>
<path d="M8170 2342 c0 -5 7 -13 16 -16 25 -10 94 -7 94 4 0 6 -8 10 -17 10 -10 0 -35 3 -55 6 -23 4 -38 3 -38 -4z"/>
<path d="M4745 2306 c-18 -14 -14 -15 53 -16 41 0 72 4 72 10 0 6 -18 10 -39 10 -22 0 -45 2 -53 5 -7 3 -22 -1 -33 -9z"/>
<path d="M8485 2298 c-33 -18 -76 -61 -92 -92 -34 -66 -7 -191 39 -184 28 4 36 28 10 28 -26 0 -46 57 -37 103 9 43 48 98 85 120 44 27 40 50 -5 25z"/>
<path d="M9485 2270 c34 -22 43 -41 44 -87 2 -62 -52 -163 -86 -163 -18 0 -16 -19 2 -27 34 -12 96 82 109 165 11 71 -27 132 -81 132 -13 0 -11 -5 12 -20z"/>
<path d="M11368 2279 c-10 -5 -18 -18 -18 -28 0 -22 30 -51 53 -51 24 0 21 17 -4 25 -11 4 -18 12 -16 18 5 17 55 21 73 6 18 -15 18 -59 0 -84 -13 -18 -15 -18 -40 -1 -15 9 -39 16 -54 14 -22 -2 -29 -10 -36 -41 -12 -47 0 -71 38 -75 14 -2 38 5 54 16 21 15 32 16 54 8 15 -5 31 -6 35 -1 5 4 4 9 -2 12 -37 13 -39 20 -22 65 28 72 1 128 -62 128 -20 0 -44 -5 -53 -11z m37 -143 c16 -12 17 -16 6 -30 -7 -9 -24 -16 -37 -16 -20 0 -24 5 -24 30 0 34 22 40 55 16z"/>
<path d="M11553 2283 c-8 -3 -13 -22 -13 -44 0 -24 4 -38 10 -34 6 3 10 15 10 26 0 16 7 19 44 19 54 0 62 -10 41 -50 -13 -25 -22 -30 -50 -30 -24 0 -35 -5 -35 -15 0 -10 10 -15 31 -15 25 0 30 -4 26 -17 -11 -42 -11 -48 2 -48 8 0 19 15 23 34 6 20 17 35 29 38 22 6 23 8 8 31 -9 14 -8 26 6 51 9 18 14 36 10 39 -4 4 -25 7 -48 8 -23 0 -51 3 -62 6 -11 4 -26 4 -32 1z"/>
<path d="M11794 2280 c-29 -11 -37 -36 -18 -55 20 -19 44 -19 44 0 0 8 -5 15 -11 15 -5 0 -7 5 -4 10 9 15 71 12 83 -3 19 -22 2 -57 -34 -72 -19 -8 -34 -19 -34 -25 0 -17 27 -23 50 -10 42 22 89 -18 53 -46 -34 -25 -69 -26 -112 -4 -30 15 -41 17 -41 7 0 -18 63 -47 101 -47 41 0 89 35 89 65 0 13 -11 32 -24 43 -21 16 -24 25 -19 59 4 34 2 43 -18 57 -25 17 -71 20 -105 6z"/>
<path d="M9781 2209 c-70 -88 -52 -159 39 -159 37 0 48 5 80 39 74 78 55 146 -46 166 -29 5 -35 1 -73 -46z m125 -3 c14 -23 14 -28 -2 -61 -29 -62 -91 -94 -122 -63 -20 20 -13 54 18 88 17 18 30 38 30 46 0 25 58 17 76 -10z"/>
<path d="M8558 2197 c-36 -43 -59 -107 -39 -107 6 0 18 15 27 33 9 17 28 46 40 63 25 32 31 54 15 54 -5 0 -24 -19 -43 -43z"/>
<path d="M8928 2228 c-52 -43 -85 -137 -56 -166 28 -28 95 2 136 63 28 40 28 60 -3 90 -27 28 -53 32 -77 13z m54 -25 c27 -24 22 -45 -19 -86 -38 -38 -70 -47 -79 -23 -7 19 21 73 46 86 11 6 17 16 14 25 -8 20 15 19 38 -2z"/>
<path d="M10805 2228 c-52 -28 -73 -97 -37 -124 27 -21 50 -16 65 14 18 35 12 52 -19 52 -32 0 -31 17 2 32 20 9 27 9 34 -1 9 -16 30 -6 30 14 0 24 -42 32 -75 13z m15 -88 c0 -12 -28 -25 -36 -17 -9 9 6 27 22 27 8 0 14 -5 14 -10z"/>
<path d="M9163 2219 c-95 -27 -96 -164 -1 -144 68 15 111 93 73 135 -20 22 -25 23 -72 9z m57 -48 c0 -51 -88 -98 -104 -55 -12 32 37 84 81 84 19 0 23 -5 23 -29z"/>
<path d="M9347 2197 c-27 -35 -45 -111 -29 -121 6 -3 18 16 27 43 9 27 25 57 35 66 11 10 20 24 20 32 0 24 -27 14 -53 -20z"/>
<path d="M11067 2223 c-17 -17 -3 -24 45 -21 69 4 79 28 11 28 -28 0 -53 -3 -56 -7z"/>
<path d="M10150 2210 c-8 -5 -29 -7 -46 -4 -27 5 -35 1 -63 -34 -17 -22 -31 -43 -31 -46 0 -3 27 -6 60 -6 64 0 72 -8 39 -41 -23 -23 -67 -19 -82 7 -10 18 -27 18 -27 1 0 -24 36 -47 73 -47 27 0 41 7 57 27 32 41 23 65 -29 78 -38 9 -42 12 -27 24 8 7 23 11 31 7 18 -6 95 22 95 35 0 12 -31 11 -50 -1z"/>
<path d="M10440 2190 c0 -5 -19 -27 -42 -50 -31 -30 -37 -40 -24 -40 13 0 16 -5 11 -17 -4 -10 -10 -30 -13 -45 -6 -36 20 -37 70 -3 l36 24 15 -23 c24 -36 61 -41 114 -15 69 33 107 116 69 148 -20 17 -68 19 -73 4 -3 -8 5 -13 20 -13 39 0 53 -24 31 -57 -37 -57 -100 -87 -129 -63 -24 20 -18 39 25 82 38 39 43 58 16 58 -8 0 -34 -24 -59 -52 -24 -29 -59 -61 -76 -71 -31 -18 -31 -18 -31 4 0 12 15 42 33 68 50 68 51 71 28 71 -12 0 -21 -4 -21 -10z"/>
<path d="M12169 2183 c-13 -15 -11 -16 11 -10 14 4 37 7 53 7 15 0 27 5 27 10 0 17 -76 12 -91 -7z"/>
<path d="M8647 2164 c-4 -4 -7 -10 -7 -13 0 -10 115 -6 118 4 3 11 -100 20 -111 9z"/>
<path d="M9645 2150 c-8 -13 4 -32 16 -25 12 8 12 35 0 35 -6 0 -13 -4 -16 -10z"/>
<path d="M12180 2140 c0 -5 20 -10 44 -10 25 0 48 5 51 10 4 6 -13 10 -44 10 -28 0 -51 -4 -51 -10z"/>
<path d="M10222 2118 c5 -15 28 -18 29 -3 0 6 -7 12 -17 13 -10 3 -15 -1 -12 -10z"/>
<path d="M8968 2019 c-41 -42 -45 -49 -25 -49 20 0 90 68 82 80 -9 15 -16 11 -57 -31z"/>
<path d="M9903 2013 c-33 -36 -41 -53 -25 -53 13 0 72 64 72 78 0 20 -14 13 -47 -25z"/>
<path d="M7657 1752 c-19 -20 -23 -37 -7 -27 6 3 10 -3 10 -14 0 -22 28 -35 54 -25 23 9 38 41 31 64 -8 26 -65 27 -88 2z m58 -22 c0 -7 -6 -15 -12 -17 -8 -3 -13 4 -13 17 0 13 5 20 13 18 6 -3 12 -11 12 -18z"/>
<path d="M6790 1672 c-53 -23 -82 -65 -73 -103 9 -36 23 -49 54 -49 27 0 28 -1 18 -30 -9 -24 -17 -30 -39 -30 -19 0 -29 6 -33 20 -8 30 -27 24 -27 -9 0 -23 7 -33 32 -45 39 -20 47 -20 67 -1 20 20 90 65 99 65 4 0 15 -14 24 -30 12 -21 25 -30 43 -30 58 0 175 106 175 159 0 50 -49 71 -107 44 -21 -9 -49 -19 -63 -23 -14 -3 -36 -23 -53 -47 -27 -41 -84 -90 -93 -80 -9 8 20 62 44 82 30 25 33 82 7 101 -20 15 -50 17 -75 6z m65 -32 c8 -14 -4 -50 -17 -50 -5 0 -17 -9 -26 -19 -27 -32 -54 -30 -66 3 -9 25 -7 31 17 52 29 24 81 32 92 14z m243 -50 c3 -30 -61 -101 -110 -121 -66 -27 -89 34 -34 91 47 49 66 60 106 57 29 -2 35 -6 38 -27z"/>
<path d="M7358 1651 c-44 -35 -98 -125 -98 -164 0 -66 53 -91 119 -58 35 18 41 26 41 54 0 17 -4 37 -8 43 -12 18 -45 25 -80 15 -17 -5 -32 -7 -32 -4 0 14 58 84 83 98 32 19 47 13 40 -16 -4 -16 -2 -20 8 -17 8 3 14 18 14 34 0 25 -4 29 -31 32 -19 2 -40 -5 -56 -17z m40 -152 c4 -21 -22 -47 -54 -55 -26 -7 -65 19 -61 40 6 35 109 48 115 15z"/>
<path d="M6004 1643 c-28 -5 -55 -35 -46 -49 4 -6 17 -14 30 -18 16 -6 22 -3 22 8 0 9 -5 16 -11 16 -5 0 -7 5 -4 10 9 15 75 13 75 -2 -1 -22 -25 -46 -53 -53 -34 -9 -36 -35 -3 -35 14 0 28 5 31 10 9 15 51 12 65 -5 17 -20 7 -41 -31 -60 -36 -19 -70 -14 -98 16 -10 11 -22 16 -25 11 -3 -5 6 -22 20 -37 23 -25 30 -27 77 -22 58 5 87 31 87 79 0 24 -6 32 -29 41 -26 10 -29 14 -24 45 8 47 -13 59 -83 45z"/>
<path d="M7790 1643 c-37 -15 -81 -59 -105 -106 -30 -61 -31 -82 -5 -125 19 -32 23 -33 75 -30 69 4 77 22 11 26 -54 3 -75 21 -76 60 0 57 79 152 128 152 19 0 22 -4 17 -20 -8 -24 20 -28 29 -4 8 21 8 20 -10 38 -16 16 -37 19 -64 9z"/>
<path d="M5721 1609 c-10 -23 -11 -33 -2 -42 9 -9 14 -8 22 5 8 15 12 15 36 3 15 -8 30 -12 35 -9 10 6 10 -17 0 -33 -4 -6 -23 -13 -42 -15 -38 -3 -44 -23 -7 -23 18 0 23 -6 25 -32 2 -18 8 -33 13 -33 10 0 14 8 23 53 4 15 13 27 21 27 20 0 30 21 14 31 -11 6 -10 11 4 27 22 24 22 46 0 39 -61 -19 -62 -19 -86 7 -31 33 -39 33 -56 -5z"/>
<path d="M5003 1593 c-42 -37 -65 -86 -61 -131 3 -36 4 -37 45 -40 35 -3 48 2 68 22 19 20 23 30 16 48 -9 26 -63 37 -87 17 -26 -22 -15 9 17 45 32 37 62 52 80 40 9 -5 7 -11 -5 -20 -16 -11 -16 -13 5 -19 25 -8 41 9 37 40 -2 16 -12 21 -43 23 -32 1 -47 -4 -72 -25z m43 -104 c14 -24 -49 -56 -76 -39 -13 9 -12 13 9 30 26 22 56 26 67 9z"/>
<path d="M5506 1604 c-9 -8 -16 -22 -16 -29 0 -19 44 -48 66 -43 29 5 27 26 -2 30 -37 4 -42 26 -9 34 35 9 75 -10 75 -35 0 -45 -9 -51 -64 -45 -64 8 -79 -6 -74 -68 3 -39 6 -43 32 -46 21 -3 37 4 60 27 28 27 33 28 50 15 21 -15 66 -19 66 -6 0 4 -15 14 -33 22 -19 9 -31 21 -28 30 21 86 22 93 5 111 -22 24 -105 26 -128 3z m67 -121 c9 -8 -32 -53 -49 -53 -15 0 -28 35 -19 50 7 11 58 14 68 3z"/>
<path d="M4201 1601 c-37 -10 -50 -37 -28 -58 16 -16 17 -16 17 4 0 11 7 24 16 27 23 9 62 7 68 -3 7 -11 -34 -48 -58 -53 -30 -5 -19 -23 12 -20 42 3 58 -12 46 -45 -14 -40 -54 -52 -99 -28 -19 11 -35 23 -35 27 0 5 -4 8 -10 8 -19 0 -10 -29 16 -49 36 -28 106 -29 134 -1 26 26 28 94 3 110 -17 10 -17 10 0 20 23 14 22 47 -2 60 -22 11 -44 11 -80 1z"/>
<path d="M4444 1591 c-48 -22 -114 -102 -114 -137 0 -32 34 -64 66 -64 28 0 65 16 76 34 26 39 -17 93 -67 84 -30 -6 -30 -4 -7 23 21 25 65 49 91 49 15 0 18 -5 14 -21 -7 -26 15 -22 31 5 9 13 7 20 -8 32 -25 18 -32 18 -82 -5z m-16 -107 c47 -13 16 -68 -35 -62 -34 4 -44 35 -17 55 20 15 21 15 52 7z"/>
<path d="M4640 1597 c-14 -7 -26 -23 -28 -35 -3 -18 1 -22 22 -22 14 0 26 5 26 10 0 6 -5 10 -11 10 -5 0 -7 5 -4 10 10 15 45 12 51 -5 8 -21 -14 -45 -40 -45 -33 0 -58 -22 -46 -40 8 -12 14 -13 42 -2 48 19 51 19 56 -1 5 -25 -26 -57 -55 -57 -13 0 -40 7 -60 15 -41 17 -58 11 -28 -11 48 -35 120 -37 150 -4 20 22 21 44 7 119 -12 69 -32 83 -82 58z"/>
<path d="M6361 1580 c-60 -9 -46 -25 19 -22 60 4 80 16 38 24 -13 2 -38 1 -57 -2z"/>
<path d="M3806 1521 c-3 -5 11 -11 32 -15 60 -10 82 -7 82 9 0 11 -13 15 -54 15 -30 0 -57 -4 -60 -9z"/>
<path d="M5210 1515 c-11 -13 -4 -15 53 -15 67 0 96 13 54 24 -40 11 -94 6 -107 -9z"/>
<path d="M6360 1521 c0 -15 39 -23 76 -16 53 9 40 25 -21 25 -30 0 -55 -4 -55 -9z"/>
<path d="M3830 1466 c0 -18 44 -29 82 -21 39 9 25 21 -34 29 -37 4 -48 2 -48 -8z"/>
<path d="M7098 1384 c-21 -26 -35 -51 -31 -57 4 -6 14 0 25 14 11 13 28 34 39 47 19 23 25 42 12 42 -5 0 -25 -21 -45 -46z"/>
<path d="M4765 1356 c-16 -17 -43 -41 -60 -52 -16 -12 -27 -25 -23 -29 10 -10 116 66 122 87 7 30 -7 27 -39 -6z"/>
</g><g transform="translate(1081.801085, 488.58068899999995) scale(0.40808740102544044)"><g transform="translate(-57.706759,297.537395) scale(0.100000,-0.100000)" fill="#4444bb" stroke="none">
<path d="M750 2973 c-57 -10 -88 -25 -119 -57 -40 -41 -55 -100 -46 -179 6 -45 12 -61 32 -77 32 -25 35 -25 64 -1 22 17 24 26 21 89 -4 105 24 120 164 87 33 -7 119 -19 190 -25 88 -8 134 -16 144 -26 32 -32 8 -420 -28 -456 -18 -18 -126 -28 -289 -28 -185 0 -206 -4 -250 -52 -55 -58 -58 -82 -55 -363 1 -145 7 -274 13 -293 11 -34 51 -62 89 -62 12 0 35 14 52 31 l31 30 -6 238 c-3 130 -3 249 0 264 l5 27 112 0 c234 1 363 26 423 82 58 54 98 260 91 463 -4 122 -7 138 -34 191 -40 81 -79 100 -217 108 -174 10 -361 14 -387 9z" fill="#4444bb"/>
<path d="M3660 2971 c-42 -9 -83 -34 -103 -65 -39 -59 -50 -127 -54 -343 -5 -206 -5 -212 18 -252 28 -50 78 -86 143 -102 48 -12 257 -8 370 7 l49 7 -7 -104 c-4 -57 -11 -189 -16 -294 -9 -177 -9 -192 8 -214 35 -47 100 -46 136 2 22 29 27 86 42 452 7 191 0 235 -44 283 -45 48 -92 56 -241 38 -146 -18 -229 -20 -265 -6 l-26 10 0 162 c0 156 8 230 27 249 5 5 99 6 210 2 l201 -6 5 -50 c3 -39 11 -56 31 -74 34 -29 48 -29 80 0 24 20 26 30 28 113 4 147 -23 169 -218 179 -242 11 -340 13 -374 6z" fill="#4444bb"/>
<path d="M1565 2945 c-14 -13 -25 -32 -25 -42 0 -10 -1 -297 -3 -638 -2 -677 -3 -662 55 -694 33 -19 73 -7 101 31 18 24 20 51 29 300 5 150 10 278 12 283 2 6 37 8 97 3 52 -3 135 -7 186 -7 154 -2 161 -10 143 -176 -21 -189 -27 -310 -18 -343 12 -45 45 -72 86 -72 71 0 102 46 102 151 0 33 7 118 16 187 24 190 9 280 -58 349 -50 52 -112 67 -263 65 -71 -1 -164 -6 -205 -11 -41 -4 -78 -7 -81 -5 -4 2 -10 108 -13 236 -9 286 -17 352 -47 384 -31 33 -82 32 -114 -1z" fill="#4444bb"/>
<path d="M2542 2944 c-55 -38 -64 -109 -53 -419 6 -186 9 -215 28 -250 50 -95 116 -125 302 -135 75 -4 171 -5 215 -1 l78 7 -4 -178 c-2 -97 -7 -181 -11 -184 -4 -4 -42 1 -85 11 -104 26 -285 27 -363 3 -106 -33 -149 -107 -99 -170 26 -34 68 -41 132 -21 74 23 202 20 308 -7 182 -47 274 5 301 168 12 77 27 831 19 994 -7 152 -20 181 -86 186 -88 7 -103 -51 -104 -401 l0 -219 -201 4 c-197 3 -201 3 -220 27 -18 21 -19 42 -19 283 l0 260 -29 29 c-33 33 -74 38 -109 13z" fill="#4444bb"/>
<path d="M2374 1391 c-55 -34 -79 -78 -79 -147 0 -51 4 -66 27 -96 35 -45 102 -73 153 -64 78 15 146 111 131 188 -20 108 -145 172 -232 119z" fill="#4444bb"/>
<path d="M1853 999 c-39 -11 -66 -56 -61 -101 6 -59 69 -64 76 -6 4 30 34 38 145 38 l67 0 0 -110 c0 -135 -1 -136 -132 -126 -85 6 -89 6 -113 -18 -24 -25 -25 -28 -25 -179 0 -162 4 -177 47 -177 35 0 43 29 43 159 l0 121 73 0 c85 0 141 14 168 41 17 17 19 34 19 169 0 147 -1 152 -25 175 -23 24 -30 25 -137 24 -62 0 -128 -5 -145 -10z" fill="#4444bb"/>
<path d="M2985 1000 c-91 -16 -93 -18 -104 -58 -15 -51 -14 -537 0 -564 19 -36 69 -48 204 -48 121 0 127 1 151 25 l24 24 -2 292 -3 292 -26 19 c-31 23 -161 33 -244 18z m169 -86 c14 -5 16 -37 16 -250 l0 -245 -102 3 -103 3 0 240 0 240 40 6 c57 9 131 10 149 3z" fill="#4444bb"/>
<path d="M2351 971 c-24 -24 -29 -73 -37 -372 -6 -232 -6 -237 15 -258 23 -23 29 -25 51 -11 12 7 16 40 20 150 l5 141 35 -23 c19 -13 59 -55 88 -93 30 -39 78 -96 108 -128 47 -51 56 -57 74 -47 29 16 25 42 -15 92 -19 24 -62 78 -95 121 -61 77 -61 77 -33 77 15 0 46 9 69 19 56 26 67 57 62 179 -6 156 -27 172 -220 172 -93 0 -111 -3 -127 -19z m257 -74 c16 -13 17 -168 0 -185 -7 -7 -41 -12 -84 -12 -40 0 -84 -4 -98 -10 l-26 -10 0 120 0 119 98 -6 c53 -3 103 -10 110 -16z" fill="#4444bb"/>
</g>
</g>
</svg>
