<svg width="73.4" height="86.17" version="1.1" viewBox="0 0 73.4 86.17" xmlns="http://www.w3.org/2000/svg"><path d="m40.19 21.36q0-0.8517 0.257-1.465 0.257-0.6168 0.6829-0.9179 0.3304-0.2386 0.6829-0.2386 0.5727 0 1.028 0.5838 0.5691 0.7233 0.5691 1.961 0 0.8664-0.2497 1.472-0.2497 0.6058-0.6388 0.8811-0.3855 0.2717-0.7453 0.2717-0.7123 0-1.186-0.8408-0.4002-0.7086-0.4002-1.707zm0.7196 0.09179q0 1.028 0.2533 1.678 0.2093 0.547 0.6241 0.547 0.1983 0 0.4112-0.1762 0.2129-0.1799 0.3231-0.5984 0.1689-0.6315 0.1689-1.781 0-0.8517-0.1762-1.421-0.1322-0.4222-0.3414-0.5984-0.1505-0.1212-0.3635-0.1212-0.2497 0-0.4442 0.224-0.2643 0.3047-0.3598 0.9583-0.09545 0.6535-0.09545 1.289z" stroke-width="1.09" aria-label="0"/><path d="m34.1 16.48h-0.2815q0.01131-0.05009 0.03056-0.1064 0.01344-0.05629 0.04981-0.1627 0.2589-0.757 0.7482-1.145 0.4914-0.3941 1.186-0.3941 0.6819 0 0.8891 0.4004 0.2093 0.3941-0.05817 1.176-0.08558 0.2502-0.4304 1.057-0.3427 0.8008-0.531 1.351-0.276 0.8071-0.07708 1.195 0.2011 0.3816 0.8955 0.3816 0.8383 0 1.571-0.5881 0.7413-0.5943 1.064-1.539 0.2354-0.6882 0.1223-1.602-0.1046-0.9197-0.0019-1.22 0.1048-0.3066 0.3189-0.4567 0.2162-0.1564 0.5415-0.1564 0.463 0 0.5193 0.4755 0.05638 0.4755-0.2924 1.495-0.6547 1.914-1.809 2.984-1.152 1.064-2.566 1.064-1.032 0-1.404-0.6131-0.3659-0.6131 0.01068-1.714 0.1583-0.463 0.5221-1.289 0.37-0.8258 0.4898-1.176 0.1198-0.3504 0.03798-0.5318-0.08184-0.1814-0.3571-0.1814-0.3754 0-0.6613 0.269-0.2797 0.269-0.4637 0.8071-0.01283 0.03749-0.03056 0.1064-0.01771 0.06878-0.0327 0.1126z" stroke-width="1.333" aria-label="υ"/><path d="m42.52 11.95-2.981-1.196 0.4259 0.8921h-6.138v0.6083h6.138l-0.4259 0.8921z" aria-label="G"/><g fill="none" stroke="#000"><g transform="translate(.2839 .288)" stroke-width=".8"><path d="m62.83-0.005196v75.6h-62.83" stroke-dashoffset="11.7" stroke-linejoin="round" style="paint-order:markers stroke fill"/><path d="m63.38-0.005196-0.5519 0.5519m0 4.243 4.795-4.795m4.243 0-9.037 9.037m0 4.243 10-10m-72.32 72.32-0.5109 0.5109m62.83-58.59 10-10m-68.08 68.08-4.754 4.754m62.83-58.59 10-10m-63.83 63.83-8.996 8.996m62.83-58.59 10-10m-59.59 59.59-10 10m59.59-55.35 10-10m-55.35 55.35-10 10m55.35-51.11 10-10m-51.11 51.11-10 10m51.11-46.86 10-10m-46.86 46.86-10 10m46.86-42.62 10-10m-42.62 42.62-10 10m42.62-38.38 10-10m-38.38 38.38-10 10m38.38-34.14 10-10m-34.14 34.14-10 10m34.14-29.89 10-10m-29.89 29.89-10 10m29.89-25.65 10-10m-25.65 25.65-10 10m25.65-21.41 10-10m-21.41 21.41-10 10m21.41-17.17 10-10m-17.17 17.17-10 10m17.17-12.92 10-10m-12.92 12.92-10 10m4.243 0 18.68-18.68m0 4.243-14.44 14.44m4.243 0 10.2-10.2m0 4.243-5.952 5.952m4.243 0 1.71-1.71"/></g><path d="m3.114 28.28c22.12 0 39.3 3.013 60 10.74" stroke-width=".6" style="paint-order:markers stroke fill"/><path d="m63.11 39.02c-23.31 3.107-46.48 12.82-60 36.85" stroke-width=".6" style="paint-order:markers stroke fill"/></g><g transform="translate(.2839 .288)"><g fill-rule="evenodd"><path d="m41.92 27.99-4.671 1.8v-3.6z" color="#000000" style="-inkscape-stroke:none"/><path d="m36.96 25.77v4.455l5.781-2.229zm0.5879 0.8555 3.559 1.373-3.559 1.371z" color="#000000" style="-inkscape-stroke:none"/></g><path d="m2.83 27.7v0.5996h35.98v-0.5996z" color="#000000" fill-rule="evenodd" style="-inkscape-stroke:none;paint-order:markers stroke fill"/></g><path d="m3.114 75.87v-69.33" fill="none" stroke="#000" stroke-dasharray="3.6, 2.4" stroke-linecap="round" stroke-width=".6" style="paint-order:markers stroke fill"/><circle cx="3.114" cy="28.28" r="2.144" fill="#fff" fill-rule="evenodd" stop-color="#000000" stroke="#000" stroke-width=".6" style="font-variation-settings:normal"/></svg>
