<svg height="1177pt" preserveAspectRatio="xMidYMid meet" viewBox="0 0 1174.860757 1177" width="1174.860757pt" xmlns="http://www.w3.org/2000/svg"><g transform="matrix(.1 0 0 -.1 -6.139243 1266)"><path d="m521 12647c-6-8-16-37-22-65l-12-52-75 3c-53 1-76-2-79-10-3-10 11-13 54-13 65 0 89-10 80-33-4-10-22-17-49-19-30-2-43-7-43-18s9-14 38-12c20 2 37 1 37-3s-7-32-16-62-13-57-10-60c13-13 34 8 39 39 3 18 10 45 16 61 10 25 15 27 61 27 44 0 51-2 46-17-2-10-10-37-17-61-7-23-9-45-5-50 12-11 33 25 47 79l13 48 93-6c118-8 127 11 11 23-75 8-83 11-86 32s0 22 72 22c42 0 76 4 76 9 0 10-49 21-96 21-38 0-41 6-18 39 12 16 13 26 5 34-14 14-47-15-55-49-6-21-12-24-56-24h-50l21 55c19 51 19 75 0 75-5 0-13-6-20-13zm82-167c-4-17-14-20-54-20-27 0-49 2-49 4 0 26 16 36 60 36 43 0 48-2 43-20z"/><path d="m1130 12634c-78-34-116-95-90-145 8-14 7-27-5-48-23-45-19-88 11-117 18-18 32-24 47-20 12 3 30 6 39 6s29 10 44 23c36 31 27 66-26 104-22 15-40 33-39 38 0 6 23 26 52 45 29 20 52 41 52 47s3 15 8 19c12 12 8 31-9 48-19 20-39 20-84 0zm53-43c4-15-7-27-47-53-28-18-54-34-57-36-4-1-9 6-12 17-4 15 6 30 34 56 43 39 74 45 82 16zm-23-216c0-27-64-52-87-33-16 13-17 62-2 89 10 19 12 19 50-11 21-18 39-38 39-45z"/><path d="m1349 12571c-54-54-26-96 70-107 34-4 61-9 61-13 0-16-42-72-64-86-36-24-78-16-94 17-8 17-18 25-27 21-22-8-18-31 10-58 18-19 35-25 68-25 37 0 49 6 85 41 24 22 45 53 48 69 4 17 15 31 28 35 18 6 19 8 4 12-10 2-18 11-18 20 0 29-31 80-56 92-44 20-83 13-115-18zm111-21c11-11 20-31 20-44 0-22-2-23-50-15-58 9-70 15-70 34 0 42 66 59 100 25z"/><path d="m1692 12563c2-14 11-17 35-15 39 4 73-13 73-36 0-9-33-49-72-89-61-62-71-76-62-91 9-13 28-18 92-20 76-3 171 12 158 25-3 3-53 5-112 4-72-2-104 1-99 8 3 6 31 35 62 63 30 29 59 63 64 74 20 53-25 94-101 94-34 0-41-3-38-17z"/><path d="m4141 12228c-7-40-13-83-15-96-4-29 10-38 22-15 8 14 42 161 42 179 0 2-9 4-19 4-16 0-21-12-30-72z"/><path d="m63 12237c-3-5-2-11 2-15s336-7 738-7c450 0 868-5 1086-14 297-12 388-12 563-1 114 8 208 17 208 21 0 17-42 19-146 9-138-13-566-13-839 0-261 12-1605 18-1612 7z"/><path d="m8443 12183c-12-2-27-10-33-18-9-11-3-20 32-45 24-18 49-34 55-37 7-3-6-15-29-27-51-25-79-67-62-93 9-14 25-18 72-18 50 0 65 4 86 24 47 44 30 87-54 141-27 18-50 36-50 41s46 9 103 9c139 0 148-10 101-115-47-108-14-158 64-98 29 22 45 27 77 25 24-2 58 4 87 17 45 19 46 19 51 0 8-32 54-43 122-30 78 15 185 52 185 64 0 5-10 6-22 3-79-23-206-46-225-41-27 6-30 31-7 63 26 38-7 37-65-2-51-34-110-54-129-42-5 3-7 17-4 31 3 20 0 25-17 25-12 0-21-6-21-15 0-16-67-95-81-95-15 0-10 18 22 93 35 80 33 112-11 134-24 12-195 16-247 6zm114-177c-10-25-62-46-96-40-36 7-38 14-13 44 35 43 126 41 109-4z"/><path d="m4668 12099c-3-28-9-54-14-58-5-3-10-30-11-58-2-41 1-53 13-53 8 0 17 13 20 29 5 24 13 31 49 40 55 14 55 14 55-3 0-20 39-46 68-46 14 0 38 14 58 34l33 33 16-23c17-27 62-33 84-11 20 19 9-144-12-176-26-41-100-44-113-5-4 14 3 30 27 54 37 39 20 48-25 13-39-31-47-51-31-81 13-26 13-26-49-33-67-8-126-28-126-44 0-14 49-50 77-57 18-5 23-13 23-40 0-23 7-38 22-48 41-29 98-15 98 23-1 22-46 71-65 71-9 0-39 10-67 22-37 16-46 23-35 29 14 8 208 29 270 29 15 0 27 5 27 10 0 6-8 10-17 10-13 0-12 5 8 26 22 24 24 35 30 167 3 78 3 146-2 151-12 14-29-3-29-29 0-30-42-81-58-71-7 4-12 29-12 57 0 66-19 64-59-6-32-56-62-81-87-71-18 7-18 55 1 80 20 26 19 36-2 36-10 0-29-13-43-30-16-20-38-33-62-36l-37-6 14 52c15 58 13 70-14 70-15 0-19-10-23-51zm212-494c7-9 10-19 6-22-8-9-38 9-44 25-5 17 23 15 38-3z"/><path d="m5429 12121c-16-17-42-40-57-51l-27-22-5 24c-10 39-33 31-68-23-36-55-51-59-33-8 16 45 14 69-6 69-25 0-113-70-113-91 0-16 33-9 56 12l22 21-1-49c-2-42 1-48 19-51 14-2 32 9 52 32 17 20 34 31 37 26 10-16 37-11 61 11 22 20 22 20 28-16 5-26 14-39 32-45 35-14 36-13 78 15l36 24v-35c0-28 3-35 18-32 9 2 18 12 20 24 2 14 19 27 52 41l50 21v-29c0-37 17-45 117-53 95-8 131 4 163 57 25 40 25 59 2 80-49 45-172-9-172-75 0-25-3-28-35-28-21 0-35 5-36 13-2 24 3 52 12 61 14 15 11 46-4 46-8 0-24-11-37-25-23-25-87-52-97-41-3 3 0 25 6 48 18 63 18 72-1 76-17 3-21-8-42-102-4-15-10-26-13-22-3 3-18-3-32-13-49-35-81-31-81 9 0 42 24 86 51 93 19 5 20 8 9 21-18 22-27 20-61-13zm509-87c4-27-50-74-86-74h-25l24 26c23 24 23 26 6 39-17 12-16 14 10 23 41 16 68 10 71-14z"/><path d="m9471 12113c-6-21-11-42-11-46 0-5-7-15-15-23-8-9-15-31-15-50 0-27 4-34 19-34 12 0 21 9 25 25 5 21 12 25 44 25 20 0 52 4 70 9 31 9 32 8 32-18 0-43 31-64 93-64 108 1 186 10 210 26 22 14 25 14 41-1 20-21 118-24 138-4 9 10 1 12-43 12-67 0-94 21-83 64 5 22 3 28-15 33-12 3-21 13-21 24s-9 21-25 25c-50 13-122-55-129-123-3-25-7-28-44-31-76-6-100 26-65 87 24 42 11 48-44 21-26-13-68-25-95-28l-48-5 11 34c7 19 16 38 20 44 17 18 9 35-16 35-19 0-26-7-34-37zm439-49c0-8 5-14 10-14 14 0 12-47-2-57-18-11-98-12-98-1 0 19 31 67 52 82 23 17 38 13 38-10z"/><path d="m7677 12120c-18-15-27-30-25-44 4-26 30-28 34-2 3 25 24 38 49 31 11-2 33-5 48-5 27 0 28-1 13-22-9-12-16-37-16-54 0-77 86-80 233-6 4 2 7-7 6-19-9-104 24-142 36-41 12 103 12 102 62 102 35 0 43-3 35-12-5-7-13-27-16-45-14-63 57-93 139-59 67 28 84 100 30 124-14 7-54 12-89 12s-103 7-152 15c-48 9-94 13-101 11-26-10-12-26 22-26 45 0 44-14-2-44-50-32-114-50-148-42-23 6-26 11-20 33 3 15 15 39 26 54 28 40 24 49-23 49-24 0-59 3-78 6-27 4-42 1-63-16zm622-84c27-33-36-81-95-74-38 4-47 38-10 38 29 0 35 14 10 24-28 11-4 26 40 26 26 0 48-6 55-14z"/><path d="m3850 12119c-13-6-33-17-42-26-17-15-18-15-18 5 0 12-6 22-14 22-16 0-22-22-32-103-6-49-4-57 10-57 10 0 23 16 32 40 9 22 32 54 53 72l36 32 3-38c2-20-2-44-9-52-9-11-9-18-1-26 9-9 25 2 65 39 51 48 92 71 104 59 5-5-7-59-24-102-3-9 2-14 15-14 34 0 58 110 30 138-18 18-40 15-92-13-44-23-46-23-46-5 0 11-9 24-19 30-23 12-19 12-51-1z"/><path d="m10374 12087c-39-64-86-91-159-92-54 0-60 2-63 22-3 24 29 63 52 63 9 0 12-7 9-20-4-15 0-20 16-20 29 0 41 48 16 67-25 18-45 16-79-6-56-37-72-98-34-125 32-22 111-20 158 4 48 25 47 25 54-3 10-42 74-59 124-33 15 7 47 16 71 20s56 13 71 21c27 14 29 13 45-12 16-24 21-25 74-20 32 2 76 14 99 26l41 21 3-43c2-34 7-43 25-45 32-5 48 31 30 67-20 41 1 81 44 81 26 0 29-2 19-19-14-26-13-64 2-79 17-17 81-15 125 3 34 14 37 14 50-5 19-27 99-27 155 0 23 11 45 20 49 20s10-18 14-40c5-29 12-40 25-40 14 0 20 14 30 65 7 36 10 76 8 88-4 22 0 24 64 35 38 7 72 12 76 12s5-33 1-72c-4-40-5-75-2-78s19-6 36-7c18-2 55-5 82-9 63-7 105 20 105 66 0 64-75 76-152 25l-37-24 7 37c3 20 6 48 7 62 0 28 6 28-197 14-114-7-118-10-93-54 22-38 18-47-28-69s-112-28-122-11c-4 6 1 24 9 42 21 41 20 48-4 48-12 0-25-10-32-25-13-28-81-65-121-65-22 0-27 5-27 24 0 13 9 35 20 49s20 29 20 34c0 13-263 10-267-3-2-6 10-23 26-37l30-25-49-21c-57-24-108-27-116-7-3 8 2 29 12 45 14 23 15 34 7 42-9 9-19 4-40-19-42-47-153-91-153-62 0 5-11 17-25 26-43 28-87-4-65-47 11-20 4-24-24-13-25 10-19 56 15 102 17 23 28 46 24 52-13 21-36 9-61-33zm1036-27c-6-11-13-20-15-20s-9 9-15 20c-9 18-8 20 15 20s24-2 15-20zm-520 1c0-18-18-21-30-6-10 13-9 15 9 15 11 0 21-4 21-9zm880-62c0-23-44-43-78-34-31 8-24 26 17 47 38 19 61 14 61-13z"/><path d="m6904 12102c-6-4-15-14-20-23s-31-35-58-58c-38-33-55-41-80-39-28 3-31 6-28 36 4 36-19 45-37 15-10-17-10-17-11-1 0 20-29 38-60 38s-94-65-87-90c4-15 0-20-14-20-15 0-19 7-19 39 0 22-3 46-6 55-8 22-42 20-82-4-41-25-45-25-32 1 14 26 5 52-16 47-20-4-58-118-44-132 11-11 22-6 85 40l50 36 6-47c3-25 12-51 20-56 19-13 155-2 188 16 19 9 32 10 45 3 10-6 37-7 63-3l44 6-8-48c-12-72-10-176 4-180 23-8 46 49 73 186 30 152 33 161 59 161 23 0 41-19 41-45 0-29-19-45-52-45-19 0-28-5-28-16 0-24 79-12 101 15 14 17 18 18 23 6 3-10 19-15 46-15s48-7 62-19c33-32 131-40 113-10-4 5-17 9-31 9-55 0-84 41-50 70 12 9 13 18 5 38-13 33-26 42-66 42-23 0-38-8-59-32-19-23-29-29-32-19-14 40-75 65-108 43zm226-27c0-4-7-19-15-35-11-21-23-30-40-30-29 0-30 2-10 40 11 21 23 30 40 30 14 0 25-2 25-5zm-500-47c0-16-41-58-57-58-19 0-16 27 7 50 22 22 50 27 50 8zm36-34c-4-9-9-15-11-12-3 3-3 13 1 22s9 15 11 12c3-3 3-13-1-22zm181-86c-3-7-5-2-5 12s2 19 5 13c2-7 2-19 0-25zm-10-50c-3-7-5-2-5 12s2 19 5 13c2-7 2-19 0-25zm-10-40c-3-8-6-5-6 6-1 11 2 17 5 13 3-3 4-12 1-19z"/><path d="m4225 12061c-10-18 3-29 44-36 43-7 131 3 131 15 0 4-30 10-67 13-38 2-75 8-84 12-10 3-20 2-24-4z"/><path d="m1921 12051c-19-12-7-27 29-34 39-8 42-43 5-57-35-13-31-37 9-54 18-8 37-19 40-25 6-10-28-30-76-45-36-11-19-29 22-23 87 11 120 69 61 105-28 17-29 19-10 30 10 7 19 23 19 35 0 41-68 87-99 68z"/><path d="m466 11858c-61-152-78-184-95-173-16 9-40 67-70 170-22 74-30 90-46 90-12 0-19-6-18-15 5-30 61-186 82-228 24-48 39-57 76-48 30 8 48 41 111 203 25 65 48 124 51 131s-3 12-14 12c-16 0-31-27-77-142z"/><path d="m7368 11974c-4-3-4-20-1-37 3-23-4-49-26-92-16-32-28-62-25-65s21 12 39 32c51 55 72 159 35 166-9 1-19 0-22-4z"/><path d="m1262 11904c-29-15-47-46-41-70 2-5-7-36-19-68-25-66-26-114-1-129 47-29 144 54 174 149 18 56 18 59-1 93-22 42-60 51-112 25zm86-38c18-40-5-103-58-158-25-26-54-48-64-48-16 0-17 5-11 37 4 21 13 49 20 63 8 15 13 42 13 60-2 60 77 97 100 46z"/><path d="m1070 11818c-39-101-49-158-28-158 9 0 19 19 27 49 7 27 25 76 42 111 34 73 35 80 10 80-15 0-27-19-51-82z"/><path d="m2770 10598c3-1242-5-2411-16-2430-3-5-47-29-97-54l-92-46-740-9c-407-5-850-14-985-20-135-7-364-13-510-15-172-2-266-7-268-14-6-18 248-18 598 0 252 14 975 29 1490 32l425 2 75 34c41 19 92 41 112 50 35 16 55 46 38 57s-22 444-10 847c8 253 14 889 14 1640 1 1202 1 1228-18 1228s-19-27-16-1302z"/><path d="m1670 11782c-38-72-82-117-105-108-13 4-15 13-10 36 8 34 0 51-19 44-22-8-28-64-11-91 23-34 66-30 109 10 30 29 35 31 39 15 6-22 35-23 61-3 17 13 21 13 31-2 13-18 37-10 29 11-3 7 4 36 16 65 24 62 25 71 5 71-8 0-26-21-39-47-13-27-34-54-47-61-22-14-22-14-14 30 18 103 1 115-45 30z"/><path d="m728 11813c-92-3-108-6-108-20s14-15 134-10c73 4 141 10 150 13 27 10 7 24-32 22-20-1-85-4-144-5z"/><path d="m6332 11778c-5-7-28-49-50-94-64-128-77-128-117-7-21 67-40 88-51 60-7-19 33-130 58-163 20-25 47-30 76-15 9 5 35 45 56 89 31 64 42 78 57 75 16-5 19 0 19 31 0 29-4 36-19 36-10 0-23-6-29-12z"/><path d="m5345 11751c-4-7-5-14-4-15 11-9 199-16 199-8 0 15-20 20-107 27-58 5-82 4-88-4z"/><path d="m654 11718c-13-20 12-26 84-22 98 7 124 12 117 25-8 11-194 8-201-3z"/><path d="m5080 11711c-31-4-45-11-45-21 0-11 10-14 41-12l42 2-26-48c-38-72-29-86 56-79 37 3 81 11 97 18 17 7 35 11 40 9 6-2 19-4 30-5s36-10 55-20c47-25 135-24 185 1 40 20 66 55 29 39-71-29-102-36-143-30l-44 7 68 23c84 28 112 58 80 85-38 31-160 2-192-46-20-31-46-30-77 1-19 19-35 25-71 25-43 0-45 1-35 20 21 39 6 44-90 31zm425-66c-21-16-79-35-109-35-16 0-17 2-5 16 19 23 47 33 94 33 37 0 39-1 20-14zm-260-24c8-14-27-30-80-37-37-6-45-4-45 9 0 9 8 21 18 26 22 13 99 14 107 2z"/><path d="m4613 11690c-26-11-43-40-43-74 0-35 46-58 107-54 36 2 50 9 66 30 20 27 20 28 2 48-10 11-25 20-32 20-8 0-26 9-40 20-29 22-29 22-60 10zm105-79c-4-18-46-26-85-16-20 5-22 9-13 20 23 27 103 24 98-4z"/><path d="m5750 11664c-6-14-10-32-10-39 0-19-39-45-67-45-15 0-23 7-25 23-5 34-33 28-33-8 0-42 40-55 101-33 24 8 47 12 50 7 10-17 98-10 132 11l33 20 25-30c16-19 35-30 51-30h26l-26 24c-24 22-31 39-39 90-5 32-24 29-47-9-22-37-54-55-101-55-38 0-43 11-25 53 15 37 12 47-17 47-11 0-23-11-28-26z"/><path d="m6413 11544c-3-8-1-20 6-27 14-14 47 15 37 32-10 16-36 13-43-5z"/><path d="m597 11334c-3-4-82-8-174-9-134-2-168-6-168-16s20-15 78-17c62-2 76-6 68-15-5-7-23-62-39-122-17-61-33-117-37-126-7-20 12-36 26-22 5 5 23 59 40 119s38 117 46 126 12 21 9 27c-8 12 12 18 89 26 76 8 97 14 90 26-7 10-19 12-28 3z"/><path d="m5740 11308c0-73 13-138 27-138 11 0 13 17 11 82-3 70-6 83-20 86s-18-3-18-30z"/><path d="m2205 11268c-2-7-13-49-24-93s-27-100-36-124c-8-24-12-47-9-52 12-21 32-6 43 33l13 42 16-27c19-31 80-55 165-64s72 12-20 32c-97 21-113 30-113 59s31 57 108 95c61 31 74 45 50 54-17 6-104-28-150-59-21-13-38-22-38-20 0 3 7 31 15 62s12 61 9 65c-8 13-24 11-29-3z"/><path d="m5386 11272c-2-4-8-47-12-95-6-77-5-87 9-87 9 0 29 18 43 40 15 22 30 40 34 40s6-19 6-41c-1-23 4-44 10-46s34 14 62 36c68 54 77 55 73 8-2-33 0-38 16-35 15 3 18 13 18 53 0 45-2 50-24 53-14 2-40-8-66-27-24-17-46-31-49-31s-6 14-6 30c0 39-24 49-62 27l-30-17 7 33c4 17 9 40 11 50 4 12 0 17-15 17-11 0-22-4-25-8z"/><path d="m1522 11233c3-16 13-17 76-15 39 2 72 1 72-3 0-3-17-26-37-51-35-42-40-44-90-44-48 0-74-12-59-28 4-3 25-5 48-3 35 2 40 0 33-16-30-74-30-91-2-80 8 3 17 18 20 34 11 47 30 61 97 72 89 15 105 35 22 28l-63-5 36 39c19 21 35 46 35 54 0 23-43 35-121 35-62 0-70-2-67-17z"/><path d="m1800 11235c0-10 15-15 56-17 71-4 90-25 56-61-30-32-28-44 12-68 19-11 37-26 40-34 8-22-33-45-79-44-37 0-96 17-67 18 11 1 18 31 6 31-18 0-44-23-44-39 0-24 19-31 95-37 127-11 171 73 69 132-18 11-18 12-1 31 18 21 22 50 9 70-20 32-152 48-152 18z"/><path d="m6451 11241c-25-16-1-31 50-31 27 0 49-2 49-3 0-2-9-39-20-82s-20-93-20-112c0-26 4-33 20-33 17 0 20 7 20 43 0 47 25 144 43 166 9 10 32 12 97 8 83-5 143 4 110 16-8 3-78 11-155 17s-149 13-160 16c-11 2-26 0-34-5z"/><path d="m1155 11220c-13-20 7-29 54-23 62 7 97-2 112-28 9-18 5-26-33-62-24-23-62-51-86-62-27-13-42-27-42-39 0-17 6-18 63-12 80 9 137 24 137 36 0 6-23 8-57 4-62-7-62-6 0 40 70 51 75 115 12 142-39 16-151 19-160 4z"/><path d="m6160 11190c-47-11-66-38-95-134-40-134-40-136-17-136 16 0 24 10 31 38 6 20 11 44 11 52 1 13 2 12 10-1 24-41 133-77 193-63 41 9 25 20-37 27-64 6-116 31-116 55 0 11 24 29 68 52 72 38 87 63 55 92-24 21-61 27-103 18zm70-30c23-14 3-37-56-64l-52-24 2 27c2 33 13 50 40 61 28 12 48 12 66 0z"/><path d="m4625 11180c-10-16 7-192 21-228 11-26 19-33 36-30 18 2 34 26 76 111 37 75 61 111 78 119 31 14 31 28-1 28-35 0-55-23-106-123-24-48-47-87-50-87-11 0-19 60-19 141 0 62-3 79-14 79-8 0-18-4-21-10z"/><path d="m772 11133c3-15 19-20 86-27 76-8 104-5 89 10-5 5-146 33-170 34-5 0-7-8-5-17z"/><path d="m4169 11107c-52-35-90-96-91-147 0-23-11-67-24-97-28-62-29-73-10-73 7 0 23 26 35 58 12 31 30 72 40 91 18 34 20 35 74 32 54-2 94 10 109 33 19 27 2 99-26 118-22 15-74 8-107-15zm102-33c21-57-13-82-96-70-49 8-52 11-30 40 43 57 109 72 126 30z"/><path d="m780 11046c0-17 36-22 135-17 67 4 84 21 19 21-27 0-73 3-101 6-45 6-53 4-53-10z"/><path d="m4870 11037c0-8 7-18 16-21 25-10 174-7 174 3 0 13-23 19-112 27-66 5-78 4-78-9z"/><path d="m5288 11043c-10-2-18-10-18-16 0-9 68-11 267-10 290 3 420 11 368 24-33 7-589 10-617 2z"/><path d="m523 11000c-31-18-47-60-23-60 5 0 9-16 8-36-1-25 4-41 17-50 26-19 40-18 71 9 20 18 28 35 31 73 8 80-35 106-104 64zm71-54c-2-46-38-92-50-62-4 9-2 28 5 42 6 14 11 34 11 45 0 14 5 19 18 17 13-3 17-13 16-42z"/><path d="m4922 10989c-35-10-40-37-6-31 10 2 54 6 97 9 83 6 100 17 40 27-50 8-91 6-131-5z"/><path d="m5616 10926c-13-31-18-35-38-27-13 4-24 18-26 30-5 35-28 24-53-25-27-53-70-90-93-81-11 5-16 20-16 52 0 39-3 46-17 43-25-4-30-71-8-104 26-40 69-33 123 21 43 43 47 45 74 34 15-6 35-8 44-5 10 4 26-1 38-13 21-20 53-27 109-23 44 3 31 22-16 22-55 0-80 24-75 72s-26 51-46 4z"/><path d="m4210 10881c-5-11-10-38-10-60 0-50 34-81 90-81 44 0 68 23 77 73 4 29 1 40-20 61-34 34-120 38-137 7zm114-33c16-26-4-72-33-76-33-5-64 26-56 57 4 14 12 29 18 33 19 13 59 5 71-14z"/><path d="m1415 10649c-11-16 3-24 43-24 51 0 48-25-5-50-23-11-42-25-43-32 0-7 23-22 50-34 28-12 50-25 50-30 0-14-88-11-93 4-3 9-11 9-32-3-15-8-27-19-26-25 2-15 177-13 193 3 18 18 1 43-46 66l-37 18 29 18c42 26 51 59 22 82-24 20-95 25-105 7z"/><path d="m7979 10640c-112-23-124-30-143-87-22-65-22-66 30-58l45 6-16-30c-8-17-26-34-41-37-29-7-27-28 3-32 32-5 83 52 83 94 0 32-2 34-35 34-19 0-35 3-35 8 0 25 35 51 92 66 104 29 128 37 128 47 0 12-7 11-111-11z"/><path d="m9737 10643c-13-13-7-23 16-23 33 0 51-14 35-27-7-5-21-13-30-16-28-10-21-25 18-42 41-17 37-35-9-35-18 0-39-5-47-10-13-9-13-11 0-19 13-9 35-8 96 5 32 6 38 34 15 65-17 23-18 28-5 41 9 8 12 22 8 32-10 27-79 48-97 29z"/><path d="m1906 10614c-96-19-108-32-104-113 2-50 7-66 18-66 8 0 18 15 23 35 5 19 16 52 24 72 14 33 21 38 65 47 81 18 107 15 118-14 5-14 14-25 20-25 19 0 22 30 6 55-19 29-59 32-170 9z"/><path d="m9532 10548c5-14 119-24 147-13 31 12-12 25-82 25-51 0-68-3-65-12z"/><path d="m337 10523c-3-5-5-36-6-71 0-55 2-62 20-62 12 0 19 7 19 18 0 51 140 109 157 66 4-10 0-20-10-26-23-12-22-48 1-48 10 0 29 13 43 29 30 34 103 61 121 43 8-8 7-19-2-42-18-43 1-63 25-26 22 33 22 73 1 94-15 15-21 15-79 0-60-16-62-16-76 3-18 25-72 25-130-1-53-24-49-25-53 2-3 22-22 35-31 21z"/><path d="m875 10520c-13-20 11-32 87-43 75-11 153-3 143 14-4 5-30 9-58 9-47 0-83 7-143 25-13 4-25 2-29-5z"/><path d="m5685 10496c-46-21-64-47-81-122-9-38-22-89-30-113-14-44-7-70 14-57 6 3 20 36 32 72 18 54 25 64 39 58 9-5 33-8 54-7 36 1 48-9 27-22-18-11-10-56 15-80 49-50 125-20 125 49 0 39-14 53-59 62l-31 7 25 25c73 72-30 174-130 128zm99-32c25-24 20-71-9-90-24-16-125-27-125-14 0 4 11 24 25 44s25 43 25 51c0 27 60 34 84 9zm49-169c31-31-5-75-44-55-18 10-26 50-12 63 11 12 41 8 56-8z"/><path d="m7517 10496c-20-21-87-190-87-222 0-37 32-28 37 11 2 17 23 68 46 115s42 89 42 94c0 16-22 17-38 2z"/><path d="m8270 10405c-27-58-50-113-50-121 0-36 28-2 72 88 25 53 51 99 57 103 18 11 12 35-9 35-15 0-31-24-70-105z"/><path d="m6122 10493c-6-2-30-35-51-71-22-37-46-76-54-87-15-20-15-20-20 5-3 14-9 52-14 85-7 53-11 60-32 63-20 3-23 1-17-15 4-10 14-55 21-100 15-95 19-103 46-103 14 0 32 19 57 61 20 34 52 84 70 111 17 28 32 52 32 54 0 5-22 4-38-3z"/><path d="m9334 10424c-42-75-46-97-21-102 11-2 17 3 17 15 0 9 16 44 36 75 32 53 37 78 14 78-5 0-26-30-46-66z"/><path d="m8856 10472c-8-14-56-166-56-179 0-7 6-13 13-13 18 0 87 176 74 189s-24 14-31 3z"/><path d="m8990 10462c-24-12-36-25-38-42-1-14-8-42-14-64-11-34-10-40 6-52 19-13 64-10 99 8 24 12 21 43-5 60-23 15-22 15 20 37 45 23 53 44 23 61-28 14-51 13-91-8zm26-37c-21-16-32-13-21 4 3 6 14 11 23 11 15-1 15-2-2-15zm-12-71c24-9 19-24-9-24-18 0-23 4-19 15 7 17 7 17 28 9z"/><path d="m1021 10451c-71-4-106-10-109-18-3-10 16-13 75-13 82 0 153 14 153 30 0 6-3 9-7 8-5-1-55-4-112-7z"/><path d="m7623 10439c-40-20-55-41-69-101-8-36 31-63 79-54 72 13 137 129 92 162-26 19-53 17-102-7zm82-19c11-18-23-79-55-95-33-17-60-14-60 6 0 24 32 77 53 87 28 14 54 15 62 2z"/><path d="m9438 10445c-28-16-53-71-43-98 8-19 49-30 78-21 37 11 77 55 77 86 0 46-57 62-112 33zm77-25c10-16-14-50-42-61-33-12-52 3-33 26 7 8 9 15 4 15s0 7 10 15c23 17 52 20 61 5z"/><path d="m6360 10441c0-5-18-36-41-70-55-82-139-140-135-93 1 23-38 23-42-1-5-27 17-47 53-47 25 0 45 11 83 45 49 44 51 45 62 25 14-26 55-26 94-1 30 20 30 20 41-2 18-37 55-51 117-43 31 4 64 14 74 22 17 14 13 15-49 9-100-8-126 15-97 90 18 47-15 41-67-14-73-76-100-66-68 24 20 54 19 65-5 65-11 0-20-4-20-9z"/><path d="m8394 10440c-12-5-30-23-41-42-47-77-34-123 36-123 46 0 87 26 114 73 24 41 14 70-29 88-38 16-50 16-80 4zm60-30c30-11 33-30 10-65-25-38-104-56-104-22 0 16 50 97 60 97 5 0 20-4 34-10z"/><path d="m8060 10410c0-16 5-21 23-18 12 2 22 10 22 18s-10 16-22 18c-18 3-23-2-23-18z"/><path d="m9200 10394c0-10 7-14 22-12 32 5 35 28 4 28-17 0-26-5-26-16z"/><path d="m8597 10373c-4-3-7-15-7-25 0-21 36-25 43-5 9 27-17 50-36 30z"/><path d="m10678 10374c-3-3-25-5-47-6-39 0-45-5-88-60-25-33-42-63-37-68s25-10 44-12c49-4 54-43 11-90-29-31-32-32-45-15-19 24-26 21-26-12 0-66 87-35 130 48 18 35 4 89-26 103-55 25 5 65 127 85 120 20 135 33 38 33-42 0-78-3-81-6z"/><path d="m4926 10362c-2-4-10-39-17-76-8-49-8-71 0-79 6-6 13-9 15-6 5 4 36 146 36 162 0 10-28 9-34-1z"/><path d="m10997 10322c-17-18-16-22 2-65l20-46-34-29c-45-40-66-74-56-91 5-7 29-15 53-18 37-4 49-1 73 19 27 23 27 26 15 63-13 39-13 39 36 82l48 43-20 27c-17 23-30 29-71 31-38 2-53-1-66-16zm101-33c3-15-45-56-54-47-2 3-7 19-10 37-7 32-6 32 27 29 21-2 35-9 37-19zm-58-155c0-28-16-37-57-32l-28 3 32 33c36 36 53 35 53-4z"/><path d="m10094 10279c-13-22 13-27 100-22 78 5 87 8 71 20-23 16-161 18-171 2z"/><path d="m11691 10280c-48-11-60-28-72-99-5-35-11-68-12-74s6-12 15-15c18-3 33 35 44 114 6 37 10 43 36 48 17 3 46 6 64 6 24 0 34 5 34 15 0 17-49 19-109 5z"/><path d="m11430 10251c-13-26-39-149-32-156 11-11 28-4 37 17 9 20 16 21 89 19 61-2 77 1 74 11-3 8-25 14-61 16-40 2-57 7-57 17 0 14 55 65 71 65 5 0 9 7 9 15 0 25-28 17-71-22l-42-38 7 32c8 36-8 53-24 24z"/><path d="m6967 10243c-4-3-7-12-7-20 0-11 17-12 90-7 65 5 90 4 90-5 0-6 7-11 15-11 18 0 20 21 3 38-13 13-179 17-191 5z"/><path d="m9535 10243c-27-1-410-10-850-18-440-9-865-20-945-25s-180-10-222-10c-73 0-101-12-63-26 8-4 140 1 293 10 254 15 601 24 1615 42 202 4 370 11 373 16 3 4-21 8-53 9-32 0-67 1-78 3-11 1-42 1-70-1z"/><path d="m4489 10238c0-2-2-38-5-80-5-95 3-99 64-28 24 28 52 50 63 50 16 0 19-7 19-50 0-31 4-50 12-50 6 0 35 23 64 50 69 65 82 65 86-2 2-39 7-53 18-53 23 0 26 97 5 119-28 28-73 18-122-27-19-17-23-18-23-5 0 9-8 26-18 38-17 21-22 22-52 11-19-6-44-21-56-32l-22-21 5 41c5 37 3 41-16 41-11 0-21-1-22-2z"/><path d="m5072 10171c-9-23 13-26 142-20 114 5 148 11 135 23-2 2-64 6-138 8-105 2-135 0-139-11z"/><path d="m5665 10166c-11-8-18-16-15-17 51-14 933-18 940-4 3 7-119 12-350 16-195 4-400 10-455 14-83 6-103 4-120-9z"/><path d="m10104 10168c-19-31 106-60 161-37 29 12 28 13-38 21-38 4-77 13-87 18-24 13-27 13-36-2z"/><path d="m10747 10097c-14-24-33-49-41-56-17-15-12-31 9-31 13 0 95 105 95 122 0 4-9 8-19 8-12 0-29-16-44-43z"/><path d="m5104 10118c-12-19 12-23 148-21 125 1 160 5 147 17-10 9-290 13-295 4z"/><path d="m6974 10106c-9-23-5-25 62-36 74-13 174-1 174 21 0 5-22 7-52 3-50-5-120 4-160 21-12 5-20 2-24-9z"/><path d="m9143 10093c-13-2-23-11-23-20 0-13 10-14 61-8l62 7-19-26c-16-21-27-25-67-26-41 0-48-3-45-17s11-17 37-15c30 3 33 1 26-15-18-44-18-53 2-53 13 0 23 12 31 34 12 31 17 35 54 38 50 4 66 28 19 28-31 0-31 0-15 25 26 40 13 55-48 54-29-1-63-4-75-6z"/><path d="m9400 10071c0-12 8-21 22-23 29-4 35-28 9-35-31-8-26-32 9-44 44-16 37-31-12-29-60 4-68 2-68-15 0-21 45-29 99-19 37 7 47 13 49 32 2 13-2 30-9 39-7 8-12 30-10 48 2 25-3 37-21 49-32 23-68 21-68-3z"/><path d="m7893 10060c-49-22-54-40-18-68 24-19 24-20 5-37-11-10-20-31-20-47 0-25 3-28 35-28 45 0 95 25 95 48 0 10-7 27-15 38-13 19-12 22 10 34 30 16 41 46 25 65-17 21-67 18-117-5zm81-19c3-5-5-16-19-25-21-14-29-14-48-5-22 12-22 12 8 25 36 16 52 17 59 5zm-27-97c7-18-12-34-40-34-16 0-16 2-1 25 19 29 32 32 41 9z"/><path d="m8402 10063c-14-26-32-118-32-158 0-66 25-39 44 48 10 45 20 92 23 105 7 27-22 31-35 5z"/><path d="m5804 10035c-32-34-74-140-74-186 0-34 39-23 55 14l14 34 78-13c90-15 190-18 197-6 3 5-38 14-91 21s-102 15-109 18 10 17 39 32c99 51 84 121-25 121-45 0-54-4-84-35zm131-20c0-14-18-29-65-52-35-18-65-31-67-29-6 6 28 90 40 98 7 5 30 7 52 6 32-3 40-7 40-23z"/><path d="m8853 10063c-7-2-13-14-13-25 0-16 5-19 20-14 11 3 30 9 43 12 21 5 21 5 3-10-10-8-24-17-29-19-22-7 3-37 30-37 68-1 65-42-4-55-41-7-63 6-45 28 16 19 4 29-19 16-25-13-24-55 0-69 25-13 46-13 93 0 71 20 90 67 39 98-23 14-26 20-18 34 22 35-46 63-100 41z"/><path d="m8160 10045c0-11 11-15 42-15h42l-28-29c-31-33-29-44 16-67 33-17 30-23-19-38-18-6-22-4-17 8 9 23-23 20-35-2-11-21 3-42 29-42 36 0 91 22 100 41 9 16 6 24-20 48-27 24-29 29-15 41 21 17 19 47-4 60-31 16-91 13-91-5z"/><path d="m6184 10040c-109-8-124-12-124-37 0-11 6-14 25-9 14 4 45 9 70 13l45 6-7-79c-5-65-3-82 10-93 20-16 43-5 27 14-11 14-5 100 11 143 8 20 15 22 89 22 47 0 80 4 80 10s-15 10-34 10c-18 0-46 2-62 4s-75 0-130-4z"/><path d="m1723 10023c-7-3-13-11-13-18 0-9 15-15 43-17 47-3 53-17 13-36-34-17-33-40 2-48 43-11 82-33 82-48 0-18-56-41-102-41-36 0-51-16-28-30 18-11 120 16 147 39 34 30 24 60-29 87-39 20-40 21-19 35 24 17 27 37 8 52-16 14-88 30-104 25z"/><path d="m312 10001c-63-12-28-26 56-23l83 4-19-39c-26-52-64-181-57-193 14-22 25-6 50 73 14 45 35 94 46 109 10 15 19 31 19 36 0 14 52 22 136 22 40 0 76 5 79 10 7 11-335 12-393 1z"/><path d="m1417 10004c-17-18-2-24 58-24h65l-26-39c-18-28-36-42-62-48-43-10-55-33-17-33 22 0 26-3 20-17-30-72-5-92 29-24 24 47 28 50 81 61 67 14 75 35 10 28-48-6-49-2-13 39 11 11 18 29 16 40-3 15-15 18-79 21-41 1-78 0-82-4z"/><path d="m2100 9978c0-35-22-141-35-170-10-24 24-38 36-15 8 14 13 14 45 1 38-16 161-16 157 0-2 5-22 11-45 13-70 5-107 13-114 24-10 17 28 51 94 81 35 16 60 33 57 38-10 16-26 12-93-20-35-17-65-30-68-30-2 0-2 23-1 52 2 43-1 53-15 56s-18-3-18-30z"/><path d="m8620 9995c-15-18-5-35 21-35 24 0 37 29 18 41s-25 11-39-6z"/><path d="m1115 9990c-11-17 5-30 36-30 39 0 37-16-6-41-19-12-35-27-35-35s28-28 63-44l62-29h-52c-31-1-53 4-55 11-6 18-40 0-36-19 2-14 15-19 58-21 133-8 163 29 61 77l-58 27 33 22c48 31 44 61-9 81-35 14-54 14-62 1z"/><path d="m705 9920c-13-21 9-29 98-36 60-5 87-4 87 4 0 13-17 18-85 27-27 3-60 9-71 12-12 2-25-1-29-7z"/><path d="m8030 9889c-21-40-21-69 0-69 6 0 15 12 21 27 6 16 17 36 26 45 8 9 12 22 8 27-13 22-35 10-55-30z"/><path d="m724 9838c-13-20 10-29 60-23 103 12 126 17 126 26 0 12-179 9-186-3z"/><path d="m8520 9386c-96-65-154-217-103-267 27-28 102-32 129-8 11 9 36 19 57 22 30 5 45 1 74-19 48-32 147-34 186-4 32 26 61 25 103-1 19-11 34-22 34-24s-29-17-64-33c-35-17-71-41-79-54-20-30-11-75 19-95s97-12 126 14c26 23 48 74 48 112s12 45 55 30c26-10 43-10 72-1 23 7 39 8 43 2 10-17 80-17 80-1 0 5-10 11-22 13-19 2-23 9-23 37 0 42-18 50-40 18-15-23-54-47-78-47-7 0 2 9 20 20 36 22 66 71 57 94-4 10-18 16-39 16-36 0-80-41-91-85-9-36-38-40-70-10-15 14-32 25-37 25-6 0-1 9 11 20 26 24 28 43 7 60-39 32-101 0-92-47 6-33-6-28-23 10-35 75-206 73-232-3-2-7-24-16-49-20-36-5-48-3-67 14-16 14-36 20-63 20-36-1-39 1-33 20 13 43 37 79 80 122 47 47 64 54 64 26 0-21-22-55-63-100-21-22-28-35-21-42 18-18 38-2 78 57 28 44 36 65 34 93-2 29-7 35-28 38-14 1-40-8-60-22zm294-186c14-5 30-19 36-31 11-20 11-21-32-14-54 9-78 22-78 40 0 17 36 20 74 5zm156-15c0-8-7-15-15-15-16 0-20 12-8 23 11 12 23 8 23-8zm204-17c-13-23-37-48-46-48-5 0 0 14 12 30 20 29 49 43 34 18zm-443-19c11-5 39-14 62-19l42-8-47-1c-51-1-98 13-98 29 0 13 16 13 41-1zm-228-26c-7-2-19-2-25 0-7 3-2 5 12 5s19-2 13-5zm507-124c-15-55-32-71-74-73-45-1-68 22-50 52 13 22 115 75 126 64 4-4 3-23-2-43z"/><path d="m4047 9373c-17-17-3-33 46-51 77-29 107-44 107-53 0-5-27-22-61-39-51-26-69-46-48-53 2-1 37 13 77 31 51 24 72 39 72 52 0 24-39 54-98 76-26 10-54 23-63 31-18 15-23 16-32 6z"/><path d="m7344 9350c-31-12-82-75-94-117-19-63-10-104 29-130 61-41 152-24 136 26-7 24-58 51-97 51-22 1-22 1 5 21 30 23 77 97 77 122 0 22-30 36-56 27zm-11-88c-16-19-34-37-40-39-20-7-3 33 29 68 42 45 51 20 11-29zm28-122c28-16 23-30-11-30-16 0-30 4-30 8 0 5-10 14-22 20-22 10-21 11 10 11 18 1 42-4 53-9z"/><path d="m115 9330c-4-7-3-15 3-19 5-3 300-3 654 1 353 3 823 2 1043-3 509-11 915-11 915 0s-507 20-1661 27c-746 5-948 4-954-6z"/><path d="m4493 9293c-8-21-16-60-17-88-1-47 1-50 25-53 18-2 41 8 73 33l46 35-6-40c-8-49 7-70 48-70 34 0 68 16 68 31 0 7-15 8-41 4l-42-7 6 38c3 22 8 53 12 70 12 54-17 50-86-11-53-48-79-64-79-52 0 2 9 30 20 62 24 70 25 85 4 85-8 0-22-17-31-37z"/><path d="m3803 9284c-10-27 13-39 50-26 18 7 70 12 115 12s82 4 82 9c0 15-41 21-143 21-79 0-99-3-104-16z"/><path d="m4760 9260c-13-13-20-33-20-59 0-74 81-92 150-34l31 26-6-36c-9-48 2-48 73 4l57 40 8-30c9-38 15-41 95-51 49-7 74-5 93 4 21 11 29 11 44-1 24-17 53-17 89 2 28 15 28 14 22-7-14-48-25-126-28-193-2-57 0-70 12-70 11 0 18 24 27 99 7 54 14 99 15 100 2 1 27 13 57 26 66 30 89 60 72 96-9 21-17 25-49 22-24-2-41 2-49 12-10 13-17 10-46-22-34-37-76-56-98-43-7 5-9 21-5 45 7 43-11 66-60 76-26 5-35 1-57-26-15-17-27-42-27-55 0-29-14-39-46-31-20 5-24 12-24 46 0 49-15 51-79 15-47-27-55-30-46-15 10 16-5 50-22 50-9 0-38-20-64-45-52-48-65-53-94-32-13 10-16 21-11 41 8 33 35 46 48 23 19-36 57-13 38 23-15 27-73 27-100 0zm498-28c28-19-22-82-65-82-10 0 8 55 24 73 18 19 23 20 41 9zm262-75c0-18-28-43-63-56-34-13-37 4-6 43 22 28 69 36 69 13z"/><path d="m6123 9232c-39-36-66-89-60-118 9-50-64-11-87 46-19 48-42 52-77 14-28-31-62-49-106-59l-33-7v51c0 39-4 51-15 51-9 0-20-11-25-25-12-31-57-75-77-75-12 0-14 10-11 43 3 23 6 49 9 57 2 9-4 16-17 18-25 4-34-19-34-85 0-34 5-46 25-59 27-18 54-13 79 15 17 19 18 19 37 0 22-22 49-23 102-4 33 11 38 11 33-1-3-8-9-21-12-29-4-10 0-15 15-15s28 14 44 47l24 47 19-29c20-31 69-55 111-55 15 0 47 13 71 29l44 29 23-24c16-16 36-24 60-24 42 0 46 16 6 25-45 10-55 28-48 89 3 33 1 58-6 65-20 20-64 12-94-17zm67-14c0-25-45-91-67-99-30-11-31 11-2 57 28 45 69 70 69 42z"/><path d="m3886 9241c-57-7-76-31-24-31 74 1 221 19 231 29 12 12-116 13-207 2z"/><path d="m6371 9224c-17-14-36-44-43-66-11-36-10-42 7-54 24-17 88-17 138 0 37 14 37 14 37-14 0-46 10-59 50-70 70-19 180 18 180 60 0 38-81 51-152 26-35-13-38-12-38 4 0 10 12 32 26 49 25 30 25 51 0 51-8 0-25-15-39-34-27-35-83-56-146-56-40 0-41 26-5 69 30 37 45 40 41 9-3-33 31-36 39-4 14 56-43 74-95 30zm334-143c7-13-20-27-67-35-38-7-88 1-88 14 0 21 143 40 155 21z"/><path d="m7551 9213c-36-34-45-63-28-87 13-18 92-40 108-30 6 3 38 1 72-6 55-11 69-10 126 9 45 14 70 17 82 10 24-12 139-12 139 1 0 6-21 10-47 10-55 0-89 15-61 25 9 4 24 18 33 32 21 31 6 53-36 53-33 0-66-28-75-64-10-42-114-64-139-29-11 15-16 16-37 5-28-16-130-12-135 4-2 7 7 24 20 40 24 27 25 28 66 14 31-10 44-11 53-2s3 15-25 27c-53 22-83 19-116-12zm382-35c-13-12-25-19-28-16s1 13 10 22 22 16 28 16 2-10-10-22z"/><path d="m9385 9188c-7-18 10-73 21-71 10 2 25 64 18 75-8 12-34 9-39-4z"/><path d="m9355 8920c-133-134-100-134 52-2 68 60 78 75 59 91-9 8-38-15-111-89z"/><path d="m696 8901c-7-11-56-147-56-155 0-3 6-6 14-6 12 0 76 138 76 163 0 10-28 9-34-2z"/><path d="m1747 8882c-21-23-22-62-3-62 8 0 17 11 20 24 6 26 25 34 68 28 33-5 78-44 78-68 0-10-40-56-90-103-75-73-90-92-90-118 0-36 15-50 58-59 35-7 45 10 13 21-61 19-43 67 53 145 99 80 110 138 37 187-43 29-120 32-144 5z"/><path d="m385 8698c-24-23-38-48-46-83-7-27-34-110-61-184-27-73-47-136-44-138 11-12 34 7 40 33 4 15 23 69 42 120l36 92 34-11c45-14 126 5 171 39 28 21 33 31 33 65 0 31-7 47-29 70-26 25-37 29-85 29-50 0-60-4-91-32zm129-2c64-27 61-92-7-125-46-22-112-28-122-11-3 6-1 10 4 10 6 0 11 7 11 15s-5 15-10 15c-6 0 1 22 15 49 16 33 32 51 47 54 13 2 24 5 26 6 1 0 18-5 36-13z"/><path d="m4447 8634c-4-4-7-24-7-44s-7-59-15-86c-20-67-19-84 5-84 11 0 20 5 20 10 0 20 99 110 120 110 17 0 20-6 20-44 0-60 25-90 74-89 20 1 39-3 42-8 9-16 40-10 76 14 28 20 36 21 46 10 22-22 58-15 108 23 29 23 45 30 40 19-10-27-38-254-34-283 4-35 29-35 45-1 7 14 17 84 23 155 12 164 23 202 57 210 37 10 77-7 81-33 4-25-15-37-71-47-48-9-44-32 4-28 50 5 104 34 107 58 4 31-34 72-75 80-48 9-98-10-134-50-36-42-107-91-117-82-4 4-7 29-7 55 0 28-7 58-18 75-15 23-24 27-55 24-42-3-76-44-95-116-9-34-15-42-32-40-16 2-21 12-25 53-3 28-9 56-13 63-13 19-57 14-103-13l-44-26 7 33c12 55 9 82-7 86-9 1-19 0-23-4zm363-84c15-28-2-55-50-80-34-18-40-18-40-5 0 16 25 70 42 93 15 18 36 15 48-8z"/><path d="m9952 8613c-27-38-48-92-57-141-5-33-3-44 14-61 29-29 72-27 99 4 12 14 28 25 36 25s21 3 30 6c12 5 16 0 16-18 0-56 88-81 147-42 15 10 38 19 51 20 12 2 38 12 57 24 29 18 35 19 35 6 0-24 49-31 97-14 43 15 43 15 43-8 0-41 70-70 110-44 13 8 13 10 0 14-8 3-26 6-40 8-35 4-38 44-6 87 38 52 11 74-33 27-25-27-119-71-129-61-4 3 4 26 17 51 18 34 21 48 13 56-9 9-23 0-57-36-48-50-116-87-123-67s-31 11-44-16c-11-24-20-28-53-28-37 0-40 2-43 31-2 20 4 36 18 49 11 10 20 24 20 32 0 22-32 15-62-14-23-22-37-27-71-26-77 3-97 8-97 22 0 18 51 111 62 111 4 0 8 7 8 15 0 25-37 17-58-12zm7-181c14-12 14-13-4-10-14 2-21 12-22 33-1 18 1 22 4 10 3-11 13-25 22-33z"/><path d="m7917 8600c-35-41-41-67-23-94 18-29 95-50 149-41 32 6 41 4 52-12s27-20 81-21c37 0 84 5 104 12 29 10 38 10 48-1 17-17 60-17 112 2 41 14 44 14 57-5 17-24 84-27 125-6 18 9 29 11 36 4 6-6 37-9 71-6 55 4 61 2 56-13-6-18 19-79 33-79 4-1 18-10 32-21l25-21-24-19c-16-13-21-23-14-30 14-14 59 5 73 30 9 18 4 27-41 71-35 34-49 55-45 66 3 8 6 19 6 24 0 4 16 17 35 29 19 11 35 25 35 31 0 23-33 21-70-5-29-20-52-28-92-29-56-1-58 1-42 52 10 35-32 30-51-7-19-38-52-61-87-61-33 0-38 26-12 66 11 16 14 28 7 35-14 14-39 2-51-26-14-30-61-55-110-58-39-2-39-1-30 58 2 14-3 21-20 23-18 3-23-2-28-26-4-18-16-34-30-41-31-14-74-14-74-1 0 6-11 15-25 22-19 8-28 8-40-2-19-16-20-2-1 19 8 9 18 28 21 44 6 23 4 27-14 27-15 0-27-13-43-44-28-58-80-72-153-42-40 17-43 33-14 70 26 33 38 33 31 0-4-21-1-25 14-22 21 4 35 47 21 66-18 23-64 14-90-18z"/><path d="m5358 8615c-3-4-4-23-1-44 3-25-1-51-12-74-19-42-17-92 5-92 8 0 19 14 24 32 8 25 17 33 48 41 36 9 38 8 38-13 0-45 75-78 130-57 16 6 35 6 53 0 34-12 128-2 153 17 28 20 15 24-47 12-31-5-64-7-73-4-13 5-12 10 9 31 14 14 25 34 25 44 0 24-31 52-58 52-28 0-62-46-62-85 0-37-25-50-66-35-25 10-34 53-14 65 15 9 12 35-4 35-7 0-27-7-42-15-16-8-38-15-49-15-18 0-21 6-20 52 0 40-4 53-15 56-9 1-19 0-22-3zm312-109c0-16-34-48-43-40-6 7 1 33 16 51 11 15 27 8 27-11z"/><path d="m7355 8588c-3-18-10-51-16-74s-9-52-7-65c4-33 32-31 36 4 3 23 8 27 33 27 17 0 48 8 69 19l39 19-5-28c-4-15-1-37 5-48 12-23 79-46 105-36 25 10 19 21-16 28-50 10-58 21-51 77 7 58 1 60-71 24-27-14-60-25-74-25-21 0-23 3-18 26 20 77 19 84-2 84-15 0-22-8-27-32z"/><path d="m9604 8530c-16-44-32-80-36-80-11 0-10-48 2-55 5-3 17-2 27 3 67 35 96 43 104 30 5-7 9-16 9-20 0-13 70-27 105-21 43 7 46 23 6 23s-81 17-81 33c0 7 9 30 20 51 10 22 17 43 14 47-11 19-35 7-50-25-17-34-59-66-88-66-21 0-20 6 9 78 30 74 31 82 6 82-14 0-25-18-47-80z"/><path d="m7661 8564c-37-31-51-88-28-112 21-20 73-20 94 1 14 14 18 14 39 1 28-19 125-15 132 4 3 9-4 12-19 11-70-6-122 18-99 46 8 9 3 21-19 44-35 38-60 39-100 5zm67-16c7-9 6-23-3-45-11-25-20-33-40-33-32 0-34 34-3 67 25 26 31 28 46 11z"/><path d="m9301 8568c-5-13-12-39-16-58s-13-39-20-45c-19-15-7-87 13-83 9 2 19 14 22 28 4 17 15 27 35 31 51 11 65 10 65-6 0-27 89-46 134-29 28 11 6 24-38 24-68 0-79 28-29 79 29 30 29 41-1 41-15 0-34-13-53-35-20-26-39-37-66-42l-38-6 20 53c11 29 18 57 15 62-10 16-35 8-43-14z"/><path d="m6081 8549c-50-49-38-83 35-99 33-8 81-3 172 16 25 5 31 4 27-7-3-8 4-29 16-48 17-29 22-32 34-20 17 19 29 105 15 114-5 3-43-1-83-9-118-25-194-25-204 1-4 10 2 23 16 35 30 23 47 23 68-2 10-11 23-20 30-20 24 0 24 20-1 45-36 36-85 34-125-6zm269-85c0-14-3-14-15-4-8 7-15 14-15 16s7 4 15 4 15-7 15-16z"/><path d="m6250 8547c0-15 14-17 111-17 96 0 110-2 100-14-7-8-11-30-9-48 3-32 4-33 50-34 29-1 53-7 63-17 23-24 61-21 123 8 65 30 61 30 55 5-4-15 0-20 15-20s28 15 48 54l28 55 38-44c26-30 56-50 94-64 58-22 124-28 124-11 0 6-9 10-19 10-11 0-45 10-76 22-43 16-68 35-103 75-25 29-50 53-54 53-5 0-27-17-51-39-49-45-108-76-161-86l-38-8 7 52c7 49 6 51-20 61-15 6-94 13-176 17-135 5-149 5-149-10zm308-56c-28-36-68-44-68-13 0 27 17 39 50 34 27-4 29-6 18-21z"/><path d="m9074 8550c-27-11-64-57-64-81 0-15-6-17-35-12-27 4-35 2-35-10 0-17 20-27 56-27 13 0 43-10 66-22 48-25 149-31 170-10 9 9 1 12-42 12-33 0-71 8-95 19-22 11-35 20-28 20 15 1 71 49 83 71 19 36-27 60-76 40zm46-29c0-11-48-51-61-51-16 0-10 19 13 40s48 27 48 11z"/><path d="m1269 8503c-16-18 8-26 59-19 77 11 102 17 102 26 0 13-150 7-161-7z"/><path d="m956 8428c-31-32-76-129-76-166 0-27 27-59 56-66 58-15 102 54 48 74-14 6-23 14-20 18 3 5 21 33 41 61 37 56 43 79 23 99-19 19-38 14-72-20zm18-69c-15-22-32-42-37-46-16-10 4 40 31 76 35 48 41 20 6-30zm6-124c0-2-7-5-15-9-9-3-15 0-15 9s6 12 15 9c8-4 15-7 15-9z"/><path d="m1780 8425c-16-19-5-47 17-43 23 4 31 58 10 58-8 0-20-7-27-15z"/><path d="m487 8396c-19-19-40-51-47-70-8-25-18-36-31-36-23 0-25-28-3-37 9-3 27-17 40-29 32-33 77-32 103 2 27 35 26 50-4 70l-25 16 36 40c42 47 41 72-3 76-25 2-39-4-66-32zm47-21c-7-16-44-41-44-29 0 11 32 44 41 44 5 0 6-7 3-15zm-7-129c-7-17-42-22-52-7-8 14 37 43 48 32 5-5 7-17 4-25z"/><path d="m10835 8371c-9-16 3-31 26-31 14 0 19 6 17 17-4 20-33 29-43 14z"/><path d="m627 8312c-19-21-47-85-47-107 0-27 37-17 50 15 22 52 34 54 64 10 14-22 33-40 41-40 22 0 19 10-22 79-38 64-58 74-86 43z"/><path d="m798 8243c-10-2-18-11-18-19 0-21 44-17 65 6 18 19 17 20-6 19-13-1-32-3-41-6z"/><path d="m1093 8218c2-7 10-13 17-13s15 6 18 13c2 7-5 12-18 12s-20-5-17-12z"/><path d="m4851 7886c-6-7-23-51-36-97-14-46-28-92-31-101-3-12 0-18 9-18 14 0 43 58 67 135 7 22 16 44 21 50 14 14 11 45-5 45-7 0-19-6-25-14z"/><path d="m7749 7819c-12-24-69-188-69-201 0-4 6-8 13-8 16 0 101 205 92 220-10 16-23 12-36-11z"/><path d="m6463 7754c-36-76-56-174-35-174 6 0 18 26 27 58 9 31 30 81 46 111 33 61 36 81 14 81-10 0-30-30-52-76z"/><path d="m4126 7724c-14-14-16-75-16-527 0-553-5-625-55-799-14-48-25-89-25-91 0-3 11-8 24-11s27-14 32-23c4-10 9-126 11-258 4-210 1-283-26-576-35-377-40-620-16-733 18-84 57-154 91-162 38-10 40 2 5 31-22 19-37 47-53 98-21 66-23 90-22 297 1 151 8 293 22 430 38 366 44 486 37 685-7 192-14 228-49 241-11 4-9 23 9 93 38 145 45 252 49 774 4 457 6 500 22 511 18 14 12 36-11 36-7 0-21-7-29-16z"/><path d="m4554 7701c-41-25-71-65-86-113-9-31-9-41 0-47 10-6 5-36-17-122-28-106-28-141-2-125 6 4 11 14 11 23 0 8 14 62 32 119 30 100 32 104 60 104 65 0 138 52 138 98 0 26-17 63-34 74-20 14-71 8-102-11zm92-35c3-14 3-33 0-44-8-23-71-56-92-48-18 7-18 40 1 56 8 7 15 21 15 30 0 20 13 28 47 29 16 1 24-6 29-23z"/><path d="m6212 7678c-26-13-77-111-68-133 3-8-10-58-29-110-19-54-30-97-24-100 16-10 24 1 54 82l29 79 45 1c72 2 142 39 159 84 28 73-82 137-166 97zm118-43c19-21 22-29 13-48-12-25-58-52-108-61-16-3-24-3-17 0 17 8 15 24-3 24-19 0-19 2 6 61 19 44 25 49 53 49 22 0 40-8 56-25z"/><path d="m7575 7655c-5-2-21-6-35-9-36-9-62-32-65-58-2-13-21-61-44-108-46-99-52-123-30-128 11-2 19 10 28 40 7 24 24 64 37 89 23 46 23 46 72 41 56-5 118 18 127 48 15 47-42 101-90 85zm50-52c8-23-28-53-66-53-37 0-44 14-22 45 22 30 77 35 88 8z"/><path d="m7117 7643c-3-5-8-23-12-40-6-32-8-33-56-33-37 0-49-4-49-15s12-15 44-15h43l-15-64c-14-60-12-96 5-96 5 0 16 36 26 80l18 80h45c32 0 44 4 44 15s-11 15-40 15c-38 0-39 1-30 26 14 36 12 54-4 54-8 0-17-3-19-7z"/><path d="m5568 7615c-4-4-4-13-1-21 4-11 28-14 107-13 113 1 197 11 180 21-15 10-277 22-286 13z"/><path d="m5592 7530c3-12 24-16 123-18 65-1 125 0 134 3 35 14-12 23-132 27-111 3-127 2-125-12z"/><path d="m5228 7460c-14-10-31-34-38-52s-19-47-27-64c-19-42-5-101 28-127 60-44 157-9 131 48-6 14-25 33-42 44-26 15-28 20-16 30 8 7 22 33 30 58 15 43 15 48-1 65-21 23-34 23-65-2zm37-42c-10-33-34-68-46-68-6 0-8 9-3 23 10 31 34 67 46 67 5 0 6-10 3-22zm7-145c27-24 23-43-9-43-43 0-57 13-44 39 14 25 28 27 53 4z"/><path d="m6597 7456c-37-34-77-122-77-168 0-73 77-88 124-24 19 25 20 29 5 54-14 26-14 30 8 72 13 25 22 54 21 65-5 31-48 31-81 1zm43-24c0-14-50-82-61-82-10 0 0 23 29 68 14 21 32 30 32 14zm-20-136c0-23-41-48-57-34-15 12-17 38-3 38 6 0 10-4 10-10 0-5 7-10 15-10s15 7 15 15 5 15 10 15c6 0 10-6 10-14z"/><path d="m4707 7411c-20-22-39-52-43-65-3-14-12-27-19-30-10-3-9-15 4-57 21-62 47-84 91-74 52 11 57 67 11 102-14 10-14 12 2 18 25 10 69 90 65 117-2 18-10 24-39 26-31 3-41-2-72-37zm73-1c0-34-71-113-87-97-7 8 16 48 45 80 27 28 42 34 42 17zm-30-176c0-16-9-18-29-5-7 5-11 14-7 19 9 15 36 4 36-14z"/><path d="m6311 7436c-46-16-81-59-81-100 0-44 16-56 76-56 87 0 78 24-11 32-25 3-30 7-27 28 3 32 46 70 78 70 23 0 24-3 18-35-5-31-4-35 14-35 21 0 32 18 32 55 0 41-45 60-99 41z"/><path d="m7672 7443c-27-5-28-9-37-81-6-52-5-53 17-50 19 2 24 12 32 51 8 48 8 48 50 45 39-3 41-5 39-33-1-16-4-42-8-57-6-23-4-28 12-28 26 0 53 75 41 112-13 38-73 55-146 41z"/><path d="m4878 7303c-19-21-58-98-58-113 0-5 8-10 18-10 11 0 25 15 36 38 18 37 18 37 28 12 14-37 38-60 65-60 28 0 29 7 3 28-11 10-29 39-39 67-21 56-31 63-53 38z"/><path d="m6424 7289c-8-14 14-29 33-22 7 3 13 11 13 19 0 17-36 19-46 3z"/><path d="m6732 7253c2-10 14-19 26-21 19-3 23 1 20 15-2 10-14 19-26 21-19 3-23-1-20-15z"/><path d="m5025 7220c-13-21 14-39 53-33 43 7 49 10 36 22-16 16-81 24-89 11z"/><path d="m4823 6808c-15-25-43-123-43-156 0-50 21-35 36 26 7 28 20 68 29 88 14 35 13 54-5 54-5 0-12-6-17-12z"/><path d="m4633 6682c-31-5-82-57-88-90-3-15-19-70-35-122-33-102-36-120-20-120 11 0 18 15 50 106l22 62 38-5c51-7 81 1 113 31 62 57 6 152-80 138zm62-56c27-40-10-86-69-86-18 0-24 4-20 15 4 10 0 15-10 15-14 0-14 5 4 40 17 33 26 40 50 40 20 0 35-8 45-24z"/><path d="m6185 6607c-30-25-79-154-66-172 4-5-6-52-22-102-30-93-30-93-63-93-21 0-34-5-34-12 0-10 77-13 350-13 229 0 349 3 347 10-3 8-109 19-245 24l-32 1 30 28c39 35 51 93 25 122-14 16-31 20-76 20-54 0-60-2-83-33-37-49-43-90-17-116 21-21 21-21-84-21-58 0-105 4-105 8 0 13 47 147 59 171 9 16 21 21 49 21 53 0 106 17 127 40 16 17 17 25 6 59-23 77-109 107-166 58zm115-34c26-34 23-64-10-80-35-18-100-17-100 1 0 8-5 16-11 18-13 4 1 39 29 71 23 26 67 22 92-10zm147-199c17-45-41-103-91-90-29 7-35 36-11 56 8 7 12 16 9 21-11 18 8 29 47 29 27 0 42-5 46-16z"/><path d="m4675 6439c-39-34-44-58-17-82 20-18 90-27 94-12 2 6-11 15-29 20-45 15-49 22-28 45 16 18 20 19 27 5 13-21 38-19 38 4 0 20-25 51-40 51-5 0-25-14-45-31z"/><path d="m4942 6455c-55-39-69-121-26-154 29-23 108-29 119-10 9 14-21 46-51 53l-25 7 32 38c17 22 29 47 27 58-4 24-46 28-76 8zm23-45c-10-11-20-18-23-15-7 6 18 35 31 35 5 0 2-9-8-20z"/><path d="m4810 6330c0-5 9-10 20-10s20 5 20 10c0 6-9 10-20 10s-20-4-20-10z"/><path d="m5134 6289c-9-15 12-33 30-26 9 4 16 13 16 22 0 17-35 21-46 4z"/><path d="m5444 6256c-4-9-4-19-1-22 10-11 251-8 254 3 6 16-18 21-136 29-98 6-111 5-117-10z"/><path d="m4463 6177c-3-5-2-11 2-15 9-9 665-9 665 0 0 4-10 10-22 12-41 9-640 12-645 3z"/><path d="m5536 6161c-35-3-61-11-64-19-3-10 22-12 120-8 146 6 137 4 117 16-22 13-105 18-173 11z"/><path d="m6097 6104c-17-18-1-23 71-26l79-3-23-95c-13-53-31-100-40-107-20-14-10-33 17-33 23 0 30 16 61 144l23 96h123c95 0 123 3 120 13-4 9-57 13-214 15-116 1-213-1-217-4z"/><path d="m4627 6003c-4-3-7-12-7-20 0-9 17-13 61-13 53 0 60-2 55-17-26-86-46-172-46-195 0-39 26-36 34 5 3 17 18 72 33 120l27 88 113-2c104-2 135 2 121 17-6 5-263 23-344 24-22 0-44-3-47-7z"/><path d="m6421 5919c-25-28-38-103-21-124 21-26 75-18 114 15 42 37 53 73 31 106-21 33-95 34-124 3zm97-35c2-14-8-30-28-48-55-46-73-30-48 41 11 30 16 34 43 31 22-2 31-9 33-24z"/><path d="m6217 5293c-4-3-7-18-7-33s-9-53-20-85c-25-71-26-108-4-103 9 2 24 30 38 70 21 64 49 108 68 108 4 0 8-22 8-50 0-37 4-50 15-50 8 0 35 23 61 50 26 28 51 50 55 50 15 0 10-62-11-134-20-72-20-82 3-73 14 5 57 136 57 175 0 63-47 80-98 37-36-30-42-31-42-6 0 27-26 44-54 37-14-3-28-2-31 4-7 11-28 13-38 3z"/><path d="m4956 5233c-4-27-9-65-12-85-5-30-2-38 9-38s20 21 31 69c20 89 20 101-3 101-15 0-20-10-25-47z"/><path d="m5468 5163c-8-10-30-58-48-108-40-107-78-193-90-200-4-3-16 12-26 33-13 27-19 69-22 160-4 107-7 123-21 120-38-7-20-256 23-320 36-55 65-46 103 32 18 36 46 106 64 155 17 50 38 97 45 106 8 8 14 21 14 27 0 18-25 14-42-5z"/><path d="m4793 5130c-37-15-54-54-83-187-38-177-41-191-30-198 14-9 25 21 50 133 22 95 25 102 44 95 82-26 169 32 152 102-14 56-71 80-133 55zm87-39c24-47-3-91-55-91-47 0-59 19-40 63 8 19 20 37 27 40 28 12 58 6 68-12z"/><path d="m6852 5090c-26-11-49-58-85-177-20-66-23-84-12-93 18-15 32 6 47 71 10 42 13 48 16 27 3-28 55-81 97-100 29-13 75-3 75 17 0 11-8 13-28 9-22-5-36 2-72 34l-45 39 25 21c14 12 45 36 70 55 59 43 64 72 16 92-40 17-70 18-104 5zm87-29c19-12 4-31-58-74-25-17-49-35-53-41-5-7-8-4-8 7 0 20 25 84 41 104 13 15 57 17 78 4z"/><path d="m7105 5089c-12-18 5-24 66-21 69 4 69 5 40-103-10-38-20-77-22-85-3-9 3-15 16-15 16 0 23 16 45 100 22 80 31 100 46 102 10 1 49 5 87 8 124 12 70 25-102 25-110 0-172-4-176-11z"/><path d="m5647 5044c-4-4-7-13-7-21 0-10 28-13 130-13 109 0 130 2 130 15 0 12-18 15-102 15-57 0-112 3-123 6s-24 2-28-2z"/><path d="m6156 5011c-14-23 42-32 224-38 136-4 190-3 190 5 0 15-39 20-205 27-77 3-154 8-171 11-18 3-34 1-38-5z"/><path d="m5684 4939c-20-34 91-50 220-33 80 11 50 23-66 26-62 2-120 7-129 11-11 5-20 4-25-4z"/><path d="m4916 4914c-8-21-8-149 1-157 12-13 33 15 33 45 0 16 7 44 15 64 13 31 17 34 42 28 45-11 48-19 29-79-9-30-14-60-11-65 12-19 35-10 41 18 3 15 10 39 16 54 16 43 6 71-32 90-45 23-126 24-134 2z"/><path d="m6450 4878c0-19-50-85-77-103l-25-17 7 61c6 55 5 61-12 61-12 0-28-18-46-53-15-30-46-71-68-93-45-44-59-38-59 29 0 30-4 37-20 37-15 0-20-7-20-29 0-123 58-140 142-42 32 38 35 39 46 20 17-27 46-24 87 12 22 20 35 26 35 17 0-8 9-24 21-37 17-18 30-21 67-19 62 4 69 28 8 28-57 0-71 20-56 82 13 58 13 58-10 58-11 0-20-5-20-12z"/><path d="m2149 3663c-27-61-89-243-89-260 0-35 21-4 50 75 18 48 46 115 62 150 27 59 29 82 7 82-5 0-19-21-30-47z"/><path d="m3920 3556c0-13 12-16 76-16 67 0 75-2 70-17-3-10-10-47-16-81-6-35-15-75-21-88-7-19-5-26 7-31 22-8 24-4 45 94 11 48 22 96 25 106 5 15 19 17 112 17 81 0 103 3 94 12-8 8-75 13-202 16-171 4-190 3-190-12z"/><path d="m5993 3563c-7-3-13-11-13-19 0-10 15-14 60-14h60l-2-87c-3-76-1-88 15-91 14-3 17 4 17 41 0 24 3 64 6 89l6 45 105 6c94 4 124 10 112 21-6 5-352 14-366 9z"/><path d="m5750 3537c-47-16-79-75-87-161-5-58-4-66 11-66 18 0 21 6 31 64 6 38 7 39 18 15 26-50 136-90 188-68 43 17 35 25-24 25-56 0-127 33-127 59 0 8 20 28 45 45 45 31 57 58 33 78-23 18-53 21-88 9zm56-32c2-5-14-22-35-37-35-25-40-26-46-10-4 11 2 24 21 40 26 23 55 26 60 7z"/><path d="m1824 3483c-10-27-24-59-31-73s-13-34-13-45-14-77-32-146c-28-116-32-169-9-155 4 3 14 32 20 65 22 114 80 295 97 308 10 7 34 13 54 13 65 0 79-42 31-91-31-30-66-38-74-16-3 9-7 9-17 0-19-18-4-43 25-43 68 0 128 52 128 112 0 43-33 68-89 68-42 0-44 1-38 25 5 21 3 25-14 25-15 0-25-12-38-47z"/><path d="m5337 3511c-29-15-37-16-37-5 0 8-6 14-13 14-15 0-53-151-44-175 4-8 13-15 21-15 11 0 17 15 22 50 5 41 13 56 45 85 55 49 63 46 55-20-5-45-3-55 9-55 8 0 22 12 31 26 17 25 91 70 101 60 4-4-5-41-33-138-7-24 22-24 35 0 20 37 38 128 30 150-10 27-31 27-86 2-34-15-43-16-43-5 0 17-27 45-44 45-6 0-28-9-49-19z"/><path d="m3430 3405c-14-15-25-40-26-58s-13-75-28-127c-29-107-32-130-13-130 7 0 18 23 24 51 7 28 27 97 45 155 36 112 42 118 97 89 60-30 42-83-40-119-54-24-62-36-22-36 32 0 109 43 123 70 16 31 12 65-12 87-56 50-111 57-148 18z"/><path d="m4727 3364c-4-4-7-19-7-33s-3-36-6-49c-6-21-12-23-53-20-36 2-46 0-46-12 0-11 13-16 43-18l43-3-7-55c-5-44-4-54 9-54 9 0 17 14 21 38 13 69 15 72 54 72 20 0 47 3 60 6 41 11 23 24-34 24h-57l7 41c4 22 7 45 9 52 2 13-26 21-36 11z"/><path d="m2920 3282c0-17 10-18 128-14 70 2 129 6 132 9 15 14-40 23-142 23-107 0-118-2-118-18z"/><path d="m6625 3280c-15-24 10-30 111-28 68 2 104 7 104 14 0 6-14 14-31 18-50 10-177 7-184-4z"/><path d="m3884 3238c-4-5-3-12 0-15 3-4 90-7 194-8 103-1 197-5 210-9 14-6 22-4 22 3 0 6-10 15-22 20-32 12-398 20-404 9z"/><path d="m5915 3229c-71-3-248-7-393-8-206-1-263-4-260-13 6-18 248-22 538-8 129 6 312 13 405 16 95 3 171 9 173 14 4 11-258 11-463-1z"/><path d="m2542 3196c-30-35-52-90-52-133 0-12-4-33-10-47-6-16-6-27 0-31s10-15 10-26c0-29 53-79 84-79 15 0 33 10 45 26 37 47 22 97-33 112l-29 8 32 36c47 54 65 102 49 136-20 42-58 41-96-2zm68-25c0-19-14-47-41-81-22-28-43-50-45-47-10 9 15 89 38 122 28 43 48 45 48 6zm-13-193c16-20 0-63-24-66-24-4-38 26-28 58 7 22 37 27 52 8z"/><path d="m2950 3195c0-7 7-16 16-19 27-10 244-7 244 4 0 14-30 18-152 23-84 4-108 2-108-8z"/><path d="m1981 3155c-17-19-38-50-47-68-10-17-23-36-30-42-16-12-4-80 18-102 25-24 83-28 105-6 10 10 34 29 52 43 31 21 34 22 27 4-18-42-19-64-2-64 10 0 28 25 47 68l32 67 7-52c10-69 16-83 35-83 13 0 15 7 11 28-3 15-8 53-12 84-9 83-35 84-118 5-43-40-61-46-70-22-3 8-15 15-28 15-20 0-18 4 19 43 69 70 76 117 18 117-25 0-40-8-64-35zm60-12c-13-25-81-89-81-77 0 14 69 94 81 94 6 0 6-6 0-17zm-26-153c3-6-1-13-10-16-19-8-30 0-20 15 8 14 22 14 30 1z"/><path d="m6082 3178c-5-7-31-55-57-107-51-103-65-106-65-14 0 53-13 74-33 54-14-14-9-96 9-139 11-28 18-33 41-30 25 3 35 16 85 118 31 63 54 118 52 122-7 12-20 10-32-4z"/><path d="m3528 3163c-50-31-56-87-12-104 61-23 124 8 124 61s-59 75-112 43zm66-19c20-8 20-23-1-46-18-20-40-23-63-8-12 7-11 13 10 34 25 28 30 29 54 20z"/><path d="m6650 3165c0-12 15-15 86-15 64 0 85 3 82 13-3 8-32 13-86 15-68 2-82 0-82-13z"/><path d="m3933 3163c-22-3-33-10-33-20 0-13 10-15 66-9l65 7-6-48c-4-26-11-66-16-88-8-40 0-63 19-51 5 3 13 23 16 43 4 21 11 62 17 91l10 52h90c82 0 111 9 73 24-17 6-247 6-301-1z"/><path d="m5620 3075c-24-59-105-158-124-152-6 2-13 19-16 38-7 50-35 46-35-6 0-32 5-42 27-55 25-13 30-13 55 1 16 9 44 37 63 63 31 41 35 43 42 26 10-28 37-25 70 7l28 27v-35c0-42 15-59 52-59 31 0 78 19 78 32 0 11-14 10-45-4-21-9-29-9-41 4-14 13-14 24-4 72 20 96-6 116-53 41-42-65-50-66-46-4 3 43 1 54-12 57-12 2-23-13-39-53z"/><path d="m4180 3043c-64-23-68-111-6-127 76-19 170 90 107 124-21 11-75 12-101 3zm87-40c7-20-35-53-67-53s-38 16-19 51c8 16 19 19 46 17 20-2 38-8 40-15z"/><path d="m2340 2970c-24-15 2-31 38-24 40 8 43 34 5 34-16 0-35-5-43-10z"/><path d="m2693 2918c2-7 10-13 17-13s15 6 18 13c2 7-5 12-18 12s-20-5-17-12z"/><path d="m3845 2299c-132-16-140-19-141-62-1-20-9-48-18-62-25-39 5-65 34-30 17 21 47 19 55-4 13-43-33-85-64-57-24 22-33 20-29-5 6-45 60-50 108-11 40 33 25 122-21 122-11 0-19 7-19 15 0 7-7 18-16 23-25 14 28 29 152 43 65 8 103 17 101 23-5 15-45 16-142 5z"/><path d="m7066 2281c-3-5 1-14 9-21 18-15 20-37 3-42-17-6-2-38 18-38 9 0 33-10 52-22l36-22-40-17c-21-9-49-15-61-12-27 6-33-24-7-34 23-9 123 27 134 47 12 22-10 54-50 70-25 10-30 18-30 46 0 23-6 37-19 44-24 12-38 13-45 1z"/><path d="m7305 2260c-11-18 5-30 41-30 38 0 38 0 23-34-8-16-24-28-48-33-41-10-51-40-12-35 19 2 22-1 16-15-12-28-11-56 2-60 6-2 20 16 31 40 16 36 27 46 51 52 34 7 42 25 11 25-21 0-27 15-10 25 16 10 11 44-7 53-31 16-91 23-98 12z"/><path d="m7517 2253c-16-15-4-23 36-23l42-1-28-25c-36-31-31-45 18-58 53-15 54-31 4-42-52-11-65-34-20-34 35 0 95 22 105 38 11 18-5 40-40 57-32 15-33 17-20 37 24 34 4 58-48 58-23 0-46-3-49-7z"/><path d="m6195 2236c-45-20-71-52-56-70 10-11 7-19-14-40-44-45-23-83 41-73 71 12 106 56 69 87-14 11-12 15 12 31 53 34 76 56 69 68-10 15-84 13-121-3zm70-25c-16-15-83-40-90-33-8 8 55 41 80 42 11 0 15-3 10-9zm-60-101c0-15-52-36-63-25-9 9 38 47 52 42 6-2 11-10 11-17z"/><path d="m5630 2231c-14-4-26-15-28-24-3-15 4-16 56-11 73 8 88-7 38-37-42-24-47-49-12-49 30 0 56-9 56-21 0-4-19-13-41-19-32-9-44-9-49 0-12 19-45 7-45-15 0-14 8-21 25-24 40-5 126 18 146 40 18 20 18 21-9 45-27 23-27 24-11 49s16 27-2 45c-21 22-86 33-124 21z"/><path d="m6448 2233c-10-2-18-11-18-20 0-12 7-14 28-10 15 3 34 2 42-3 11-7 7-13-18-27-40-23-40-39-2-61 41-23 38-41-9-48-52-8-69-20-54-35 9-9 25-7 70 7 68 22 78 43 39 83-25 26-25 27-6 39 32 20 26 58-11 71-18 6-35 10-38 10-3-1-14-3-23-6z"/><path d="m4717 2212c-26-6-15-26 17-30 31-4 30-22-2-38-38-19-36-23 12-44 26-11 45-24 42-29-3-4-26-11-51-14-52-5-66-14-45-27 14-9 45-7 106 5 37 8 39 37 5 67-17 15-26 30-21 33 14 9 12 51-2 62-19 14-41 20-61 15z"/><path d="m6655 2208c-10-34-28-179-22-184 14-14 37 7 37 33 1 15 7 55 15 87 8 33 12 63 9 68-8 12-34 10-39-4z"/><path d="m4266 2201c-9-14 20-32 40-25 13 4 10-2-9-16-33-26-27-40 16-40 18 0 38-4 46-9 20-13-22-33-71-35-30 0-38-4-38-20s6-18 40-13c98 13 147 66 87 95-26 13-27 15-13 31 28 31 19 41-38 41-30 0-57-4-60-9z"/><path d="m4427 2203c-18-17-2-23 60-23h66l-22-24c-13-13-39-26-62-30-43-7-55-34-19-43 15-4 19-11 15-24-12-36 30-22 48 16 12 25 23 35 39 35 34 0 68 11 68 21 0 5-11 9-25 9-23 0-24 2-13 21 11 17 10 22-6 35-20 14-136 20-149 7z"/><path d="m6853 2170c-34-14-28-32 10-28 19 2 32 8 32 17 0 18-14 22-42 11z"/><path d="m5894 2139c-8-14 11-33 25-25 16 10 13 36-3 36-8 0-18-5-22-11z"/><path d="m7945 2087c-49-28-55-60-11-65 23-3 27 0 23 12-4 9 1 20 12 25 14 8 22 4 40-20 28-37 76-59 131-59 45 0 54 17 13 25-78 16-89 22-116 63-16 23-34 42-40 42-7 0-30-11-52-23z"/><path d="m5096 2074c-3-9-6-29-6-45 0-27-2-29-40-29-28 0-40-4-40-14 0-18 33-30 59-21 16 5 20 0 23-22 4-36 22-36 26-1 3 24 9 28 48 34 57 8 57 24 0 24h-44l9 38c5 20 9 40 9 45 0 14-38 7-44-9z"/><path d="m6299 2053c-6-16-16-48-22-72l-12-44-362 7c-310 6-363 5-363-7 0-11 49-15 287-20 521-12 1260-8 1568 9 160 9 311 13 338 10 39-4 47-2 47 11 0 15-20 15-202 9-112-3-268-11-348-16-186-11-901-12-919-1-11 7-9 19 13 66 31 69 32 75 6 75-13 0-24-10-31-27z"/><path d="m3373 2048c-17-22-75-207-68-218 8-13 35-13 35 0 0 24 43 148 60 177 22 34-3 71-27 41z"/><path d="m3426 2005c-31-29-33-39-6-32 18 5 20 2 14-16-28-87-29-112-4-137 28-28 54-25 95 11 69 60 85 130 40 174-34 35-101 35-139 0zm118-21c20-19 20-37 1-78-18-37-70-80-85-71s-12 50 5 91c16 40 13 54-13 54-15 0-15 2-2 10 23 15 77 12 94-6z"/><path d="m3990 1990c0-16 5-21 23-18 12 2 22 10 22 18s-10 16-22 18c-18 3-23-2-23-18z"/><path d="m2953 1984c-7-3-13-14-13-24 0-16 9-17 108-13 94 5 135 14 121 27-7 7-203 16-216 10z"/><path d="m4441 1960c-94-3-146-9-148-16-7-20 17-21 232-8 116 7 225 13 243 13 17 1 32 6 32 11 0 10-92 10-359 0z"/><path d="m2970 1909c0-18 42-29 114-29 42 0 78 5 81 11 4 6 5 12 4 13-9 8-199 12-199 5z"/><path d="m4703 1914c-28-12-13-34 22-34 40 0 47-20 15-47-29-25-25-40 15-53 19-6 35-16 35-21s-16-9-35-9-35 5-35 10c0 13-27 13-35 0-14-22 17-40 69-40 76 0 102 39 51 77-23 17-24 20-13 50 10 27 10 35-2 48-17 16-68 27-87 19z"/><path d="m8010 1913c-24-9-50-35-50-50 0-17 36-17 43 1 10 25 61 28 143 7 43-11 81-18 86-15 20 12 3 22-71 42-77 22-121 26-151 15z"/><path d="m4492 1888c3-7 26-15 52-18 46-5 46-5 31-27-8-12-28-23-43-25-30-3-39-34-9-32 14 2 16-3 11-20-23-67 5-87 30-21 17 44 24 49 80 57 11 2 21 9 24 17 3 10-3 12-27 6-34-7-38 0-16 28 26 35 8 47-67 47-51 0-69-3-66-12z"/><path d="m4303 1834c-7-3-13-10-13-16 0-7 19-9 50-6 65 6 66-12 5-48-25-14-44-31-42-38 5-15 121-20 148-6 29 16 16 25-34 21l-42-2 28 26c18 17 27 35 25 48-3 19-10 22-58 24-30 1-61-1-67-3z"/><path d="m6023 1805c-29-20-29-52-2-74 21-17 21-17-15-44-24-19-36-36-36-53 0-22 4-24 44-24 60 0 100 31 93 74-3 18 1 37 8 46 9 10 11 26 6 50-6 31-11 35-41 38-20 1-45-4-57-13zm55-40c-10-22-13-24-26-11-17 17-8 36 18 36 17 0 18-3 8-25zm-3-84c8-14-24-41-48-41-20 1-20 2 8 25 35 29 32 28 40 16z"/><path d="m6915 1781c-67-27-70-30-73-65-4-47 9-63 57-71 47-8 93 10 144 55 41 36 46 59 19 83-33 30-72 29-147-2zm119-24c9-15 6-23-19-43-57-46-135-52-135-10 0 31 10 41 60 59 55 19 80 18 94-6z"/><path d="m5835 1765c-27-19-65-37-83-41-46-9-40-40 7-37 27 1 31-2 25-15-32-79-32-89 6-77 12 4 19 12 16 20-5 15 43 96 81 137 22 23 25 48 5 48-4 0-29-16-57-35z"/><path d="m6730 1769c-19-16-45-32-58-36-26-6-26-40 0-35 14 2 16-4 11-33-8-49 12-45 38 8 12 23 32 56 45 74 44 59 22 72-36 22z"/><path d="m6365 1730c-10-16 4-30 31-30 17 0 24 5 24 20s-7 20-24 20c-14 0-28-4-31-10z"/><path d="m5183 1175c-12-8-24-30-28-48-3-17-13-52-20-77s-17-60-20-78c-6-31-5-33 17-30 19 2 25 13 38 64 8 34 21 69 29 78 11 13 11 19 1 32-11 12-10 18 3 31 15 16 21 16 72-1 77-24 79-39 17-93-55-47-65-76-33-93 26-14 97-13 124 2 12 6 40 15 62 19 22 3 47 9 57 13 11 5 18 2 22-12 11-34 92-54 140-36 27 10 18 27-11 21-49-9-87 15-102 64-15 51-24 59-68 59-34 0-83-46-83-80 0-10-7-21-16-24-24-9-92-7-99 3-3 5 15 27 40 47 25 21 48 47 51 57 9 28-32 65-90 82-62 19-76 19-103 0zm315-124c16-9 1-24-35-35-27-9-29 1-6 26 18 20 22 21 41 9z"/><path d="m2893 1123c-24-16-30-47-12-59 6-3 22 5 35 20 14 14 27 26 30 26s35-12 72-27c68-27 125-35 130-19 2 5-21 17-50 27-29 9-70 24-90 33-46 20-86 20-115-1z"/><path d="m3396 1099c-50-44-55-56-30-66 11-4 23 2 35 18 26 34 23 20-11-53-16-34-30-69-30-76 0-18 31-11 40 8 87 181 95 210 61 210-10 0-39-18-65-41z"/><path d="m3523 1129c-20-6-33-16-33-26 0-12 6-14 33-8 17 4 43 9 57 12l25 4-27-21c-32-25-28-44 13-60 16-7 29-18 29-25 0-16-29-41-60-50-23-7-24-6-10 9 13 16 11 17-15 14-34-4-55-32-38-49 19-19 100-1 135 30 25 23 30 32 24 55-3 15-17 32-31 38l-24 11 22 18c48 39-21 72-100 48z"/><path d="m3817 1119c-27-16-49-68-51-121-1-43 3-53 27-74 47-40 130-29 163 22 18 26 17 27-6 46-19 16-36 19-88 16-63-3-63-3-57 22 8 32 33 70 45 70 6 0 10 7 10 15 0 17-17 19-43 4zm106-146c14-13-27-43-58-43-35 0-77 34-53 43 19 8 104 8 111 0z"/><path d="m4104 1119c-11-18 15-27 62-21 48 5 55-5 24-33-11-10-22-26-25-36-5-14-16-19-41-19-24 0-34-5-34-15 0-9 9-15 24-15 22 0 23-2 16-37-9-40-6-53 14-53 7 0 16 19 22 43 9 41 10 42 59 48 28 4 60 9 71 13 16 5 23 0 35-26 26-60 108-55 177 10l32 30v-29c0-64 87-76 175-25 54 32 68 68 37 98-26 26-106 36-130 16-9-8-29-19-44-26-16-6-28-17-28-24s-9 1-19 18c-47 77-199 65-202-15 0-14-3-21-5-14-3 7-24 9-65 6-65-6-72 1-34 37 27 26 32 49 13 68-15 15-124 16-134 1zm377-79 24-20-35-30c-27-24-43-30-69-28-54 5-50 26 6 30 47 4 44 11-10 22-30 7-28 22 7 36 34 14 52 11 77-10zm244-4c17-12 17-16 5-31-22-26-89-56-118-53-37 4-45 53-11 63 13 4 29 14 37 21 17 18 63 18 87 0z"/><path d="m2945 964c-21-21-15-49 10-49 14 0 19 6 17 18-4 24 15 21 50-8 26-22 39-25 84-23 68 4 71 22 5 26-36 2-54 9-71 27-27 29-71 33-95 9z"/></g><g fill="#44b" transform="matrix(.08161748 0 0 -.08161748 827.76195451453 1203.11759285665)"><path d="m750 2973c-57-10-88-25-119-57-40-41-55-100-46-179 6-45 12-61 32-77 32-25 35-25 64-1 22 17 24 26 21 89-4 105 24 120 164 87 33-7 119-19 190-25 88-8 134-16 144-26 32-32 8-420-28-456-18-18-126-28-289-28-185 0-206-4-250-52-55-58-58-82-55-363 1-145 7-274 13-293 11-34 51-62 89-62 12 0 35 14 52 31l31 30-6 238c-3 130-3 249 0 264l5 27h112c234 1 363 26 423 82 58 54 98 260 91 463-4 122-7 138-34 191-40 81-79 100-217 108-174 10-361 14-387 9z"/><path d="m3660 2971c-42-9-83-34-103-65-39-59-50-127-54-343-5-206-5-212 18-252 28-50 78-86 143-102 48-12 257-8 370 7l49 7-7-104c-4-57-11-189-16-294-9-177-9-192 8-214 35-47 100-46 136 2 22 29 27 86 42 452 7 191 0 235-44 283-45 48-92 56-241 38-146-18-229-20-265-6l-26 10v162c0 156 8 230 27 249 5 5 99 6 210 2l201-6 5-50c3-39 11-56 31-74 34-29 48-29 80 0 24 20 26 30 28 113 4 147-23 169-218 179-242 11-340 13-374 6z"/><path d="m1565 2945c-14-13-25-32-25-42s-1-297-3-638c-2-677-3-662 55-694 33-19 73-7 101 31 18 24 20 51 29 300 5 150 10 278 12 283 2 6 37 8 97 3 52-3 135-7 186-7 154-2 161-10 143-176-21-189-27-310-18-343 12-45 45-72 86-72 71 0 102 46 102 151 0 33 7 118 16 187 24 190 9 280-58 349-50 52-112 67-263 65-71-1-164-6-205-11-41-4-78-7-81-5-4 2-10 108-13 236-9 286-17 352-47 384-31 33-82 32-114-1z"/><path d="m2542 2944c-55-38-64-109-53-419 6-186 9-215 28-250 50-95 116-125 302-135 75-4 171-5 215-1l78 7-4-178c-2-97-7-181-11-184-4-4-42 1-85 11-104 26-285 27-363 3-106-33-149-107-99-170 26-34 68-41 132-21 74 23 202 20 308-7 182-47 274 5 301 168 12 77 27 831 19 994-7 152-20 181-86 186-88 7-103-51-104-401v-219l-201 4c-197 3-201 3-220 27-18 21-19 42-19 283v260l-29 29c-33 33-74 38-109 13z"/><path d="m2374 1391c-55-34-79-78-79-147 0-51 4-66 27-96 35-45 102-73 153-64 78 15 146 111 131 188-20 108-145 172-232 119z"/><path d="m1853 999c-39-11-66-56-61-101 6-59 69-64 76-6 4 30 34 38 145 38h67v-110c0-135-1-136-132-126-85 6-89 6-113-18-24-25-25-28-25-179 0-162 4-177 47-177 35 0 43 29 43 159v121h73c85 0 141 14 168 41 17 17 19 34 19 169 0 147-1 152-25 175-23 24-30 25-137 24-62 0-128-5-145-10z"/><path d="m2985 1000c-91-16-93-18-104-58-15-51-14-537 0-564 19-36 69-48 204-48 121 0 127 1 151 25l24 24-2 292-3 292-26 19c-31 23-161 33-244 18zm169-86c14-5 16-37 16-250v-245l-102 3-103 3v240 240l40 6c57 9 131 10 149 3z"/><path d="m2351 971c-24-24-29-73-37-372-6-232-6-237 15-258 23-23 29-25 51-11 12 7 16 40 20 150l5 141 35-23c19-13 59-55 88-93 30-39 78-96 108-128 47-51 56-57 74-47 29 16 25 42-15 92-19 24-62 78-95 121-61 77-61 77-33 77 15 0 46 9 69 19 56 26 67 57 62 179-6 156-27 172-220 172-93 0-111-3-127-19zm257-74c16-13 17-168 0-185-7-7-41-12-84-12-40 0-84-4-98-10l-26-10v120 119l98-6c53-3 103-10 110-16z"/></g></svg>