<svg xmlns="http://www.w3.org/2000/svg" version="1.0" width="1308.036775pt" height="1204.241461pt" viewBox="0 0 1308.036775 1204.241461" preserveAspectRatio="xMidYMid meet">
<metadata>
Created by potrace 1.16, written by Peter Selinger 2001-2019
</metadata>
<g transform="translate(-3.981202,1235.000000) scale(0.100000,-0.100000)" fill="#000000" stroke="none">
<path d="M563 12290 c-35 -56 -41 -60 -76 -60 l-38 0 27 50 c15 28 24 53 21 56 -14 14 -36 -8 -61 -60 -25 -53 -28 -56 -64 -56 -51 0 -82 -10 -82 -26 0 -10 12 -12 51 -7 46 5 51 4 47 -13 -2 -15 -13 -20 -56 -22 -37 -2 -52 -7 -52 -18 0 -10 12 -14 40 -14 44 0 47 -7 25 -51 -16 -29 -13 -49 6 -49 6 0 19 22 30 49 18 41 26 50 52 54 18 2 33 3 35 2 2 -2 -6 -22 -18 -45 -12 -23 -19 -44 -16 -47 12 -13 38 10 58 51 21 44 23 45 71 48 67 4 77 28 12 28 -43 0 -45 1 -35 20 8 15 21 20 50 20 21 0 45 3 54 6 27 10 7 24 -35 24 -21 0 -39 3 -39 6 0 3 14 25 30 49 33 48 37 65 16 65 -8 0 -32 -27 -53 -60z m-62 -109 c-9 -17 -68 -37 -78 -27 -3 2 0 14 7 25 8 15 20 21 46 21 31 0 34 -2 25 -19z"/>
<path d="M1074 12296 c-36 -16 -74 -61 -74 -87 0 -10 9 -23 19 -29 24 -12 131 -14 131 -1 0 9 -48 21 -86 21 -54 0 -3 67 59 77 29 4 37 2 46 -16 20 -36 -4 -99 -59 -153 -53 -54 -80 -59 -108 -23 -24 30 -42 32 -42 6 0 -23 49 -61 80 -61 77 0 170 115 170 209 0 65 -60 90 -136 57z"/>
<path d="M782 12274 c-81 -40 -93 -81 -30 -107 l33 -13 -34 -12 c-40 -14 -71 -39 -71 -59 0 -28 39 -53 83 -53 49 0 120 30 135 56 11 19 0 52 -22 66 -7 4 -3 15 12 31 33 35 30 82 -8 102 -38 19 -37 20 -98 -11z m68 -14 c0 -5 7 -10 15 -10 18 0 18 -2 3 -34 -14 -33 -39 -40 -84 -26 -43 14 -40 28 12 57 43 25 54 28 54 13z m10 -135 c17 -21 -1 -42 -49 -56 -91 -27 -124 15 -39 49 65 25 72 26 88 7z"/>
<path d="M1334 12257 c-28 -14 -63 -40 -77 -59 -49 -64 -42 -159 12 -166 32 -5 109 26 121 48 34 64 -36 117 -98 74 -18 -12 -22 -12 -22 -1 0 20 49 64 92 81 50 21 81 20 103 -4 19 -20 45 -27 45 -11 0 5 -8 19 -18 31 -28 34 -95 37 -158 7z m-34 -129 c34 21 60 15 60 -13 0 -19 -9 -29 -34 -42 -47 -22 -66 -12 -66 34 0 28 3 34 10 23 8 -12 13 -13 30 -2z"/>
<path d="M10760 12233 c-110 -38 -145 -96 -105 -173 25 -49 51 -60 142 -60 83 0 83 0 103 -32 11 -18 20 -41 20 -50 0 -37 -105 -87 -192 -91 -40 -2 -43 0 -46 26 -4 29 -29 37 -39 11 -9 -24 14 -63 41 -70 52 -13 204 34 245 75 25 25 27 70 6 111 -22 42 -43 50 -134 50 -75 0 -81 2 -101 27 -15 20 -20 38 -18 67 3 37 7 43 48 64 49 24 105 28 145 10 34 -15 45 -1 16 23 -23 18 -94 25 -131 12z"/>
<path d="M11025 12090 c3 -5 19 -10 34 -10 56 0 189 -41 289 -90 108 -52 133 -60 113 -37 -21 26 -197 107 -275 127 -85 21 -171 27 -161 10z"/>
<path d="M10467 12070 c-109 -19 -354 -111 -464 -175 -55 -33 -44 -46 14 -17 127 65 354 146 453 162 114 18 121 20 115 30 -7 11 -49 11 -118 0z"/>
<path d="M3887 12033 c-12 -11 -8 -73 4 -73 12 0 6 -203 -7 -262 -5 -23 -3 -28 14 -28 13 0 21 9 25 28 6 29 49 82 67 82 5 0 10 -10 10 -23 0 -12 7 -33 16 -45 13 -19 23 -23 62 -20 62 4 69 28 8 28 -44 0 -46 1 -46 29 0 16 -3 36 -6 45 -8 21 -62 21 -85 0 -16 -14 -17 -10 -12 69 7 112 -2 177 -26 177 -10 0 -21 -3 -24 -7z"/>
<path d="M2785 12000 c-56 -61 -63 -198 -69 -1260 -9 -1336 -23 -1618 -103 -2049 l-37 -193 23 -17 c28 -22 46 -93 63 -256 19 -180 16 -940 -5 -1305 -37 -648 -47 -1057 -27 -1192 13 -86 36 -155 67 -195 23 -32 61 -47 50 -20 -40 89 -57 145 -66 210 -20 141 -13 487 24 1192 23 450 29 806 16 1076 -13 284 -31 412 -67 487 l-26 53 31 162 c79 418 100 849 101 2097 1 964 13 1181 68 1205 29 13 28 25 -1 25 -13 0 -32 -9 -42 -20z"/>
<path d="M3635 11994 c-71 -37 -100 -91 -68 -126 9 -10 48 -35 85 -55 103 -54 138 -112 82 -134 -27 -10 -87 2 -108 22 -13 12 -46 11 -46 -1 0 -15 40 -38 90 -51 38 -10 51 -9 83 4 36 16 42 27 37 72 -4 38 -40 73 -120 114 -92 48 -98 63 -45 110 41 36 74 40 82 11 7 -28 33 -25 33 3 0 47 -48 61 -105 31z"/>
<path d="M5138 11973 c-15 -16 -34 -48 -43 -72 -18 -52 -37 -232 -25 -245 14 -15 30 4 36 45 5 32 10 39 23 33 79 -34 179 -50 181 -29 1 6 -29 17 -67 26 -67 15 -113 34 -113 46 0 3 27 34 59 68 89 92 94 147 15 153 -32 2 -44 -2 -66 -25z m82 -26 c0 -14 -20 -42 -51 -72 -29 -28 -49 -42 -46 -33 3 9 9 32 12 50 7 38 22 60 50 75 25 14 35 8 35 -20z"/>
<path d="M102 11972 c-18 -4 -33 -10 -32 -13 0 -8 899 -24 1305 -24 149 0 388 4 531 8 l262 8 6 -33 c14 -72 18 -480 7 -701 -7 -128 -16 -513 -22 -857 -5 -344 -11 -641 -14 -660 -38 -296 -48 -600 -22 -713 14 -63 14 -68 -2 -62 -36 15 -475 25 -1196 27 -656 3 -819 -1 -803 -17 2 -2 359 -6 793 -10 435 -3 893 -10 1019 -15 126 -5 232 -8 234 -5 3 3 -2 47 -11 98 -22 121 -21 236 3 487 29 306 40 572 40 984 0 204 5 477 12 606 16 310 14 733 -3 825 l-14 70 -275 -5 c-374 -7 -725 -6 -1300 2 -267 4 -500 4 -518 0z"/>
<path d="M4746 11954 c-19 -18 -21 -44 -5 -44 7 0 18 8 25 18 10 13 15 14 24 5 16 -15 -3 -75 -41 -127 l-28 -38 -14 34 c-20 47 -75 108 -98 108 -27 0 -24 -12 12 -46 47 -44 62 -80 55 -131 -5 -38 -3 -43 14 -43 12 0 24 10 29 23 5 12 21 33 36 47 64 59 97 178 56 200 -27 14 -47 13 -65 -6z"/>
<path d="M5457 11963 c-19 -18 1 -23 92 -23 l99 0 -13 -67 c-7 -38 -20 -95 -29 -128 -15 -58 -9 -92 13 -69 14 14 51 165 52 218 l2 46 88 0 c89 0 124 12 68 24 -42 8 -364 8 -372 -1z"/>
<path d="M6734 11939 c-8 -14 14 -29 44 -29 26 0 37 -20 28 -54 -3 -12 -39 -70 -79 -127 -115 -162 -118 -198 -19 -241 62 -27 100 -64 108 -104 3 -19 -3 -75 -16 -135 -20 -92 -22 -117 -15 -274 6 -138 4 -198 -10 -300 -17 -122 -17 -133 0 -227 20 -115 17 -146 -27 -327 -19 -78 -31 -154 -32 -201 -1 -67 2 -81 32 -131 40 -71 42 -119 7 -284 -30 -145 -30 -165 -5 -257 11 -40 20 -98 20 -128 0 -31 7 -80 16 -110 51 -179 49 -154 19 -274 -23 -91 -26 -119 -19 -170 4 -34 8 -98 8 -143 1 -85 8 -107 24 -76 19 38 22 104 7 178 -16 74 -15 78 10 181 31 131 31 174 1 255 -15 40 -26 97 -29 154 -4 50 -13 113 -22 140 -21 71 -19 135 11 276 31 147 28 203 -13 263 -26 38 -28 49 -27 131 0 66 9 125 33 225 35 142 35 144 15 364 -4 43 0 122 11 212 14 118 15 157 6 219 -16 107 -13 177 9 279 39 175 25 220 -86 277 -67 34 -69 36 -68 71 1 27 17 59 66 129 77 111 98 150 98 182 0 42 -86 88 -106 56z"/>
<path d="M11194 11938 c-10 -16 -23 -244 -23 -418 -1 -80 -6 -215 -12 -300 -7 -106 -7 -333 -1 -715 5 -341 5 -574 -1 -597 -5 -20 -16 -40 -26 -44 -19 -10 -762 -16 -840 -8 l-54 6 8 311 c4 172 7 321 7 332 0 11 0 108 1 215 1 107 1 301 0 430 -1 168 2 237 10 243 9 5 9 9 1 15 -8 5 -13 86 -16 249 -2 134 -8 246 -11 250 -17 17 -21 -24 -25 -252 l-4 -245 -304 0 -304 0 0 262 c0 250 -1 261 -17 245 -17 -17 -18 -84 -18 -1120 l0 -1102 650 -3 c1057 -5 1422 -2 1543 10 105 11 126 18 102 33 -12 8 -12 256 0 525 28 620 33 918 22 1200 -13 305 -28 450 -48 450 -19 0 -21 -37 -6 -135 19 -122 21 -909 4 -1360 -7 -187 -15 -354 -18 -372 -4 -29 -8 -32 -52 -38 -26 -3 -162 -8 -303 -11 l-256 -5 -6 188 c-4 103 -7 352 -7 553 l0 366 63 -7 c63 -6 97 4 61 18 -10 4 -43 8 -71 8 l-53 0 1 50 c2 96 5 100 77 100 83 0 80 19 -3 23 l-65 3 5 107 c2 59 7 207 10 330 5 209 1 247 -21 210z m-984 -562 c0 -7 3 -28 6 -45 l7 -31 -312 0 -311 0 0 40 0 40 298 3 c163 1 300 3 305 5 4 1 7 -4 7 -12z m10 -216 c0 -63 -3 -233 -7 -377 l-6 -263 -27 0 c-14 0 -35 -7 -46 -15 -18 -13 -15 -14 30 -15 l48 0 -3 -327 -4 -328 487 0 487 0 7 -53 c3 -29 11 -55 16 -58 17 -11 38 19 38 56 0 44 8 52 113 114 73 42 84 46 145 46 67 -1 67 -1 33 -15 -18 -8 -70 -37 -116 -65 -45 -27 -88 -50 -94 -50 -6 0 -11 -7 -11 -16 0 -11 6 -14 23 -9 41 13 247 137 241 146 -3 5 5 9 18 9 13 0 56 9 97 20 40 11 78 17 83 14 5 -3 8 -50 7 -105 l-1 -99 -128 0 c-71 0 -137 -2 -147 -5 -22 -7 -20 -6 118 84 91 58 116 81 88 81 -6 0 -52 -27 -102 -59 -51 -33 -104 -65 -119 -72 -16 -7 -28 -18 -28 -25 0 -10 -25 -14 -97 -16 -53 -2 -98 -7 -100 -13 -2 -7 90 -9 264 -9 175 1 249 -1 213 -6 -81 -13 -846 -16 -1137 -6 -200 7 -253 12 -253 23 0 7 -7 13 -15 13 -8 0 -15 -7 -15 -15 0 -12 -18 -15 -103 -15 -57 0 -219 -3 -360 -7 l-257 -6 0 381 0 382 59 0 c59 0 86 12 55 24 -9 3 -38 6 -65 6 l-49 0 0 39 0 40 53 3 c28 2 52 8 52 13 0 6 -24 11 -52 13 l-53 3 0 324 0 324 33 4 c17 3 157 4 309 3 l278 -1 0 -115z m1114 -1219 c28 -7 28 -7 -32 -42 -55 -33 -61 -35 -65 -17 -3 10 1 25 9 32 21 21 17 26 -16 26 -16 0 -30 4 -30 10 0 9 78 4 134 -9z m486 -186 c0 -8 -7 -15 -16 -15 -14 0 -14 3 -4 15 7 8 14 15 16 15 2 0 4 -7 4 -15z"/>
<path d="M9960 11204 c0 -9 7 -14 17 -12 25 5 28 28 4 28 -12 0 -21 -6 -21 -16z"/>
<path d="M10127 11134 c-9 -10 2 -24 19 -24 8 0 14 7 14 15 0 15 -21 21 -33 9z"/>
<path d="M9730 11106 c0 -9 7 -16 16 -16 9 0 14 5 12 12 -6 18 -28 21 -28 4z"/>
<path d="M9795 11100 c-4 -6 -3 -16 3 -22 6 -6 12 -6 17 2 4 6 3 16 -3 22 -6 6 -12 6 -17 -2z"/>
<path d="M10030 11056 c0 -9 7 -16 16 -16 17 0 14 22 -4 28 -7 2 -12 -3 -12 -12z"/>
<path d="M9935 10950 c-3 -5 1 -10 10 -10 9 0 13 5 10 10 -3 6 -8 10 -10 10 -2 0 -7 -4 -10 -10z"/>
<path d="M9685 10940 c-3 -5 1 -10 10 -10 9 0 13 5 10 10 -3 6 -8 10 -10 10 -2 0 -7 -4 -10 -10z"/>
<path d="M9715 10891 c-3 -5 0 -13 5 -16 15 -9 60 3 60 15 0 13 -57 13 -65 1z"/>
<path d="M9942 10808 c6 -18 28 -21 28 -4 0 9 -7 16 -16 16 -9 0 -14 -5 -12 -12z"/>
<path d="M10100 10780 c0 -5 5 -10 10 -10 6 0 10 5 10 10 0 6 -4 10 -10 10 -5 0 -10 -4 -10 -10z"/>
<path d="M9773 10748 c2 -7 10 -13 17 -13 7 0 15 6 18 13 2 7 -5 12 -18 12 -13 0 -20 -5 -17 -12z"/>
<path d="M10027 10614 c-16 -16 10 -24 83 -24 75 0 108 11 74 24 -21 8 -149 8 -157 0z"/>
<path d="M9810 10600 c0 -5 25 -10 55 -10 30 0 55 5 55 10 0 6 -25 10 -55 10 -30 0 -55 -4 -55 -10z"/>
<path d="M9857 10503 c-17 -16 -3 -23 48 -23 53 0 72 11 39 24 -21 8 -79 8 -87 -1z"/>
<path d="M9770 10390 c0 -5 5 -10 10 -10 6 0 10 5 10 10 0 6 -4 10 -10 10 -5 0 -10 -4 -10 -10z"/>
<path d="M9877 10304 c-13 -13 -7 -24 14 -24 11 0 19 5 17 12 -5 14 -22 21 -31 12z"/>
<path d="M10050 10300 c0 -5 7 -10 15 -10 8 0 15 5 15 10 0 6 -7 10 -15 10 -8 0 -15 -4 -15 -10z"/>
<path d="M9894 10189 c-3 -6 -2 -15 4 -21 13 -13 32 -2 32 18 0 16 -26 19 -36 3z"/>
<path d="M9725 10160 c-3 -6 1 -13 10 -16 19 -8 30 0 20 15 -8 14 -22 14 -30 1z"/>
<path d="M10025 10069 c-10 -15 1 -23 20 -15 9 3 13 10 10 16 -8 13 -22 13 -30 -1z"/>
<path d="M10136 10023 c-11 -11 -6 -23 9 -23 8 0 15 4 15 9 0 13 -16 22 -24 14z"/>
<path d="M9725 10000 c-3 -6 1 -13 10 -16 19 -8 30 0 20 15 -8 14 -22 14 -30 1z"/>
<path d="M9790 9980 c0 -5 7 -10 15 -10 8 0 15 5 15 10 0 6 -7 10 -15 10 -8 0 -15 -4 -15 -10z"/>
<path d="M9942 9958 c5 -34 38 -37 38 -4 0 20 -5 26 -21 26 -15 0 -20 -5 -17 -22z"/>
<path d="M9757 9883 c-13 -12 -7 -23 13 -23 11 0 20 7 20 15 0 15 -21 21 -33 8z"/>
<path d="M11693 9827 c-62 -32 -77 -47 -48 -47 34 0 128 61 114 74 -2 2 -32 -10 -66 -27z"/>
<path d="M9845 9799 c-4 -6 -4 -13 -1 -16 8 -8 36 5 36 17 0 13 -27 13 -35 -1z"/>
<path d="M10605 9800 c-3 -5 1 -10 9 -10 9 0 16 5 16 10 0 6 -4 10 -9 10 -6 0 -13 -4 -16 -10z"/>
<path d="M11082 9798 c5 -15 28 -18 29 -3 0 6 -7 12 -17 13 -10 3 -15 -1 -12 -10z"/>
<path d="M10880 9770 c0 -5 5 -10 10 -10 6 0 10 5 10 10 0 6 -4 10 -10 10 -5 0 -10 -4 -10 -10z"/>
<path d="M3175 11846 c-42 -18 -59 -54 -50 -107 4 -24 14 -55 22 -67 12 -19 13 -45 8 -133 -7 -95 -6 -109 8 -109 16 0 16 2 33 166 l5 51 51 12 c104 23 154 79 128 141 -7 17 -25 37 -41 45 -35 18 -124 19 -164 1z m155 -36 c42 -42 19 -87 -59 -115 -64 -22 -71 -20 -71 21 0 27 -5 37 -20 41 -27 7 -25 38 2 57 34 24 123 21 148 -4z"/>
<path d="M4292 11831 c-100 -9 -74 -26 36 -24 104 3 127 7 117 23 -6 10 -46 11 -153 1z"/>
<path d="M5886 11731 c-37 -38 -42 -67 -10 -54 12 4 14 0 7 -23 -14 -54 -10 -108 10 -112 14 -3 17 4 17 40 1 24 10 68 21 98 11 30 21 62 22 70 4 29 -29 20 -67 -19z"/>
<path d="M4240 11740 c0 -6 37 -10 90 -10 53 0 90 4 90 10 0 6 -37 10 -90 10 -53 0 -90 -4 -90 -10z"/>
<path d="M4859 11663 c-6 -15 -13 -56 -16 -90 -5 -52 -3 -63 9 -63 11 0 18 19 27 68 6 37 14 77 17 90 9 33 -24 29 -37 -5z"/>
<path d="M800 11538 c-6 -24 -20 -73 -30 -110 -24 -79 -24 -78 -5 -78 8 0 24 18 35 40 42 81 138 166 162 142 10 -10 6 -90 -7 -129 -6 -19 -4 -23 14 -23 14 0 23 8 27 24 6 26 105 126 123 126 19 0 12 -60 -15 -127 -18 -45 -23 -68 -16 -75 7 -7 17 0 31 23 51 83 66 200 28 207 -31 6 -65 -7 -102 -39 -30 -27 -35 -28 -35 -12 0 10 -7 29 -16 42 -14 19 -23 22 -52 17 -19 -3 -53 -20 -75 -37 l-39 -32 7 42 c5 33 4 41 -9 41 -10 0 -19 -15 -26 -42z"/>
<path d="M3335 11544 c-9 -14 -19 -41 -22 -60 -4 -27 -2 -34 11 -34 12 0 16 -10 16 -45 0 -31 4 -45 13 -45 15 0 50 171 40 196 -8 22 -39 16 -58 -12z m12 -86 c-3 -7 -5 -2 -5 12 0 14 2 19 5 13 2 -7 2 -19 0 -25z"/>
<path d="M10322 11303 c-5 -10 -12 -43 -15 -73 -3 -30 -9 -70 -13 -87 -6 -29 -4 -33 14 -33 17 0 22 8 28 45 3 25 10 47 14 50 4 3 16 -23 26 -58 15 -49 19 -94 18 -217 0 -135 -3 -163 -23 -220 -12 -36 -29 -75 -37 -87 -18 -29 -18 -33 5 -33 18 0 59 78 76 145 38 153 11 449 -48 523 -22 28 5 22 49 -12 26 -20 55 -36 65 -36 39 0 21 19 -90 92 -33 23 -58 23 -69 1z"/>
<path d="M11450 11281 c0 -10 103 -23 124 -15 9 3 13 10 10 15 -7 12 -134 12 -134 0z"/>
<path d="M11702 11278 c6 -16 108 -18 108 -3 0 6 -25 11 -56 13 -43 2 -55 0 -52 -10z"/>
<path d="M12162 11227 c-42 -43 -53 -67 -30 -67 7 0 25 12 40 27 l28 27 0 -217 c0 -188 2 -216 15 -211 13 5 15 34 15 176 0 115 3 167 10 163 6 -4 18 -4 26 -1 12 5 13 10 3 27 -6 12 -14 42 -18 68 -9 63 -33 65 -89 8z"/>
<path d="M4538 11207 c-15 -12 -32 -34 -37 -48 -14 -38 5 -58 56 -61 41 -3 43 -5 51 -43 l8 -40 -65 -16 c-43 -11 -72 -25 -86 -41 -20 -23 -29 -25 -156 -31 -146 -8 -190 -16 -197 -37 -4 -10 4 -12 34 -6 22 3 100 9 175 13 119 5 138 4 162 -12 32 -21 111 -16 149 9 14 9 61 18 116 22 50 4 92 10 92 14 0 13 -53 19 -117 13 -62 -6 -63 -6 -63 19 0 21 6 27 35 32 47 9 44 26 -4 26 -36 0 -40 3 -47 33 -4 17 -7 61 -6 97 0 40 -4 67 -11 72 -23 14 -62 8 -89 -15z m62 -26 c0 -20 -35 -51 -57 -51 -18 0 -16 13 8 44 24 31 49 34 49 7z m20 -221 c0 -15 -7 -20 -27 -20 -16 0 -45 -3 -65 -6 -68 -12 -35 23 37 39 43 10 55 7 55 -13z m-47 -57 c-7 -2 -19 -2 -25 0 -7 3 -2 5 12 5 14 0 19 -2 13 -5z"/>
<path d="M4150 11168 c0 -24 -5 -63 -11 -87 -5 -24 -8 -50 -5 -58 7 -18 33 -5 40 20 8 32 64 117 76 117 7 0 10 -19 8 -51 -2 -32 1 -53 8 -56 6 -2 30 21 53 52 54 72 71 72 71 1 0 -55 16 -86 45 -86 20 0 28 17 12 27 -8 5 -17 33 -20 67 -9 95 -48 110 -109 43 l-28 -31 0 31 c0 49 -43 53 -81 7 -13 -16 -14 -15 -19 12 -3 17 -12 30 -23 32 -14 3 -17 -4 -17 -40z"/>
<path d="M7304 11196 c-43 -19 -74 -62 -74 -102 0 -39 21 -54 75 -54 52 0 37 -14 -68 -64 -109 -50 -157 -88 -157 -122 0 -47 53 -52 130 -14 37 19 118 100 139 138 15 29 73 60 79 42 30 -89 200 -45 241 63 14 37 14 43 -5 61 -37 37 -139 12 -208 -52 -46 -42 -64 -50 -81 -33 -6 6 -32 11 -60 13 -61 4 -69 23 -28 67 32 36 93 54 93 28 0 -9 -5 -28 -12 -42 -15 -34 -1 -45 23 -16 25 31 25 77 0 91 -26 13 -49 12 -87 -4z m336 -85 c0 -25 -44 -77 -81 -96 -37 -20 -78 -19 -86 1 -8 22 6 43 56 82 50 38 111 45 111 13z m-370 -181 c-34 -48 -150 -108 -150 -77 0 19 37 50 95 80 68 35 82 34 55 -3z"/>
<path d="M3212 11140 c-18 -11 -40 -36 -49 -55 -15 -31 -15 -43 -4 -99 10 -50 10 -84 1 -157 -7 -58 -7 -96 -1 -102 19 -19 29 4 35 82 9 96 19 140 30 123 10 -17 82 -15 123 5 73 34 82 126 18 190 -27 27 -41 33 -76 33 -26 0 -57 -8 -77 -20z m132 -41 c25 -30 33 -70 20 -104 -10 -26 -60 -45 -109 -43 -50 3 -48 -2 -28 84 6 26 -15 43 -28 23 -7 -11 -9 -11 -9 3 0 27 57 68 95 68 25 0 40 -8 59 -31z"/>
<path d="M11690 11111 c0 -14 28 -21 86 -21 52 0 71 11 38 24 -24 9 -124 7 -124 -3z"/>
<path d="M11460 11090 c0 -5 25 -10 55 -10 30 0 55 5 55 10 0 6 -25 10 -55 10 -30 0 -55 -4 -55 -10z"/>
<path d="M3560 11051 c0 -16 62 -31 131 -31 61 0 100 14 67 24 -30 9 -198 15 -198 7z"/>
<path d="M11478 10663 c2 -207 1 -407 -3 -443 -7 -59 -9 -63 -21 -45 -37 56 -42 60 -55 48 -25 -25 42 -113 85 -113 28 0 136 101 136 126 0 27 -25 14 -67 -33 l-42 -48 2 395 c2 392 -3 490 -26 490 -9 0 -11 -91 -9 -377z"/>
<path d="M555 10953 c-4 -10 -9 -31 -11 -48 -2 -16 -12 -92 -24 -168 -24 -167 -25 -187 -5 -187 20 0 21 4 36 132 6 59 15 105 19 103 4 -3 11 -26 15 -52 9 -61 21 -83 44 -83 26 0 40 20 61 87 l19 58 -6 -123 c-5 -97 -3 -126 7 -132 31 -19 35 0 35 192 0 173 -2 193 -17 196 -13 3 -24 -21 -54 -118 -21 -69 -41 -115 -45 -108 -3 7 -14 65 -24 128 -9 63 -19 121 -21 128 -5 18 -21 15 -29 -5z"/>
<path d="M3603 10934 c-35 -15 -3 -24 83 -24 72 0 95 3 92 13 -5 12 -150 21 -175 11z"/>
<path d="M1191 10873 c-5 -21 -13 -66 -17 -101 -4 -41 -12 -66 -22 -71 -12 -7 -13 -12 -5 -23 8 -9 9 -34 3 -83 -8 -68 -3 -94 18 -81 6 3 13 37 17 75 l7 68 86 6 c48 3 88 4 88 4 1 -1 -2 -31 -7 -67 -8 -64 1 -95 20 -74 6 5 17 72 26 149 9 77 20 156 25 175 13 48 12 60 -4 60 -18 0 -34 -47 -47 -134 -5 -39 -11 -71 -13 -73 -9 -9 -154 -14 -159 -6 -4 6 0 54 8 108 8 54 15 100 15 102 0 1 -7 3 -15 3 -8 0 -18 -16 -24 -37z"/>
<path d="M4375 10861 c-35 -15 -57 -49 -62 -94 -5 -39 -2 -46 22 -65 21 -17 41 -22 85 -22 51 0 58 -2 64 -22 18 -69 0 -113 -52 -124 -15 -3 -33 -7 -39 -10 -20 -5 -43 6 -43 22 0 18 -26 18 -33 0 -12 -30 18 -50 72 -48 98 2 149 53 137 135 -10 64 -25 77 -96 77 -69 0 -93 17 -84 58 7 31 48 72 71 72 9 0 25 -8 35 -17 14 -13 21 -14 30 -5 28 28 -60 63 -107 43z"/>
<path d="M3357 10853 c-3 -4 -8 -47 -12 -95 -7 -85 -7 -88 14 -88 19 0 21 6 23 70 1 39 2 80 2 92 1 21 -18 36 -27 21z"/>
<path d="M12141 10697 c-15 -19 -41 -155 -41 -218 0 -37 4 -49 15 -49 10 0 15 10 15 29 0 55 7 61 75 61 l62 0 -5 -74 c-3 -52 -1 -76 8 -81 19 -12 30 15 30 75 0 30 9 90 19 133 12 51 15 80 8 84 -15 9 -35 -23 -42 -68 l-7 -39 -69 0 c-38 0 -69 3 -69 8 0 4 7 36 15 71 16 65 9 95 -14 68z"/>
<path d="M9208 10623 c-8 -10 -25 -35 -38 -56 -17 -29 -20 -41 -11 -50 9 -9 20 -2 47 28 l35 40 -2 -60 c-4 -107 0 -135 16 -135 12 0 15 18 15 103 l0 102 26 -32 c25 -32 54 -44 54 -22 0 10 -15 30 -61 87 -15 18 -64 15 -81 -5z"/>
<path d="M7472 10587 c-15 -18 -62 -160 -56 -169 11 -17 33 -7 58 27 31 40 55 48 30 10 -25 -38 -12 -55 41 -55 51 0 115 23 115 41 0 7 -7 8 -17 4 -10 -3 -40 -9 -67 -12 -47 -6 -48 -5 -37 15 6 11 24 30 41 42 63 45 22 66 -57 30 -47 -21 -50 -17 -29 35 18 42 3 63 -22 32z"/>
<path d="M7979 10524 c-17 -36 -29 -76 -27 -87 6 -41 83 -39 140 3 15 11 36 20 47 20 15 0 19 -7 17 -32 -1 -29 2 -33 27 -36 28 -3 35 6 16 25 -9 9 -6 20 10 46 11 19 21 37 21 41 0 10 -31 7 -67 -6 -29 -10 -35 -10 -46 6 -17 24 -70 18 -75 -8 -2 -10 2 -23 10 -27 11 -7 10 -11 -2 -19 -21 -14 -60 -12 -60 3 0 6 11 36 25 65 29 63 30 72 9 72 -9 0 -27 -26 -45 -66z"/>
<path d="M877 10574 c-4 -4 -7 -25 -7 -47 0 -22 -11 -61 -25 -89 -29 -58 -31 -68 -9 -68 23 0 76 120 72 166 -3 36 -16 52 -31 38z"/>
<path d="M7750 10544 c-46 -42 -89 -126 -119 -235 -25 -89 -26 -99 -6 -99 18 0 28 19 66 127 72 204 123 254 184 181 23 -27 24 -33 12 -46 -9 -8 -41 -17 -74 -21 -73 -8 -68 -26 7 -26 109 0 146 62 75 124 -50 44 -92 42 -145 -5z"/>
<path d="M7095 10550 c-49 -6 -64 -13 -87 -39 -53 -60 -28 -131 46 -131 39 0 113 37 132 65 8 13 16 37 16 54 1 31 2 31 54 31 l53 0 -30 -56 c-16 -31 -29 -65 -29 -75 0 -27 27 -24 35 4 4 12 21 46 38 75 26 43 36 52 59 52 38 0 36 16 -3 24 -41 8 -207 6 -284 -4z m71 -44 c21 -53 -109 -125 -146 -81 -16 19 -5 54 12 37 14 -14 84 -16 93 -3 3 6 -11 13 -32 17 l-37 7 23 18 c27 22 79 25 87 5z"/>
<path d="M8376 10512 c-10 -17 17 -30 75 -37 58 -7 119 0 119 14 0 5 -35 11 -78 14 -43 3 -85 9 -94 12 -9 4 -19 2 -22 -3z"/>
<path d="M9166 10358 c-5 -23 -26 -243 -26 -266 0 -25 36 -10 59 24 41 60 81 69 81 18 0 -37 18 -64 43 -64 28 0 117 31 117 41 0 17 -20 18 -60 4 -23 -8 -46 -15 -51 -15 -4 0 -11 20 -14 45 -4 24 -13 49 -21 56 -17 14 -52 3 -88 -30 l-29 -26 6 35 c3 19 9 72 13 118 6 71 5 82 -10 82 -8 0 -18 -10 -20 -22z"/>
<path d="M12212 10251 c-11 -7 -12 -44 -3 -210 15 -271 15 -261 -9 -261 -24 0 -25 -9 -6 -55 22 -52 46 -46 100 27 33 44 43 65 35 72 -7 8 -19 2 -38 -20 l-28 -31 -6 71 c-4 39 -10 149 -13 244 -4 94 -10 172 -13 172 -3 0 -12 -4 -19 -9z"/>
<path d="M4006 10164 c-3 -9 -9 -55 -12 -102 -4 -48 -12 -99 -19 -114 -8 -15 -10 -30 -6 -33 5 -2 6 -27 3 -55 -4 -41 -2 -50 11 -50 12 0 18 13 23 48 l6 49 64 15 64 15 0 -68 c0 -54 3 -69 15 -69 18 0 22 19 30 145 4 54 13 117 20 139 9 26 11 44 5 50 -19 19 -41 -21 -52 -92 l-11 -70 -46 -12 c-25 -7 -54 -14 -65 -17 -20 -5 -20 2 0 185 5 42 3 52 -9 52 -8 0 -18 -7 -21 -16z"/>
<path d="M3678 10154 c-29 -15 -58 -61 -58 -91 1 -28 22 -50 97 -101 78 -54 112 -106 93 -142 -15 -27 -84 -59 -129 -60 -30 0 -33 2 -27 25 5 18 2 25 -8 25 -21 0 -38 -27 -31 -49 16 -52 153 -33 216 30 25 25 25 75 0 116 -11 17 -54 55 -95 83 -65 43 -76 55 -76 80 0 34 42 73 74 68 18 -3 21 -9 18 -45 -3 -32 0 -43 11 -43 16 0 27 29 27 72 0 46 -57 62 -112 32z"/>
<path d="M5820 10104 c-229 -18 -223 -17 -228 -33 -4 -12 12 -13 95 -8 l99 7 -23 -113 c-28 -138 -29 -160 -6 -155 13 2 20 17 25 53 4 28 14 87 24 132 19 91 21 93 109 93 62 0 97 9 92 23 -5 16 -7 16 -187 1z"/>
<path d="M4927 10104 c-10 -11 -9 -44 2 -44 6 0 13 5 16 10 14 22 25 -4 25 -56 0 -57 -17 -109 -48 -149 -19 -24 -19 -24 -26 46 -3 39 -11 80 -17 91 -13 24 -35 18 -30 -8 2 -10 6 -55 10 -99 6 -74 8 -80 29 -83 52 -8 112 86 119 183 5 71 -11 109 -48 113 -13 2 -28 0 -32 -4z"/>
<path d="M5345 10044 c-9 -9 -13 -24 -10 -33 4 -9 9 -67 12 -129 5 -96 8 -112 22 -110 9 2 17 15 19 31 3 22 7 27 20 22 33 -13 182 -18 182 -7 0 14 -19 19 -102 27 -37 4 -70 10 -73 14 -2 5 18 26 45 47 27 21 53 49 56 62 10 35 -3 67 -31 80 -39 18 -120 15 -140 -4z m129 -27 c26 -19 13 -50 -36 -86 -23 -17 -43 -29 -45 -28 -1 2 1 26 6 55 5 33 4 55 -3 62 -15 15 56 13 78 -3z"/>
<path d="M1720 10028 c-91 -4 -506 -10 -923 -12 -416 -3 -757 -9 -757 -13 0 -4 37 -11 82 -15 129 -10 1130 -9 1348 2 107 5 295 12 418 16 178 5 222 9 222 20 0 16 -100 16 -390 2z"/>
<path d="M3310 10011 c-69 -14 -81 -26 -79 -84 0 -29 -8 -90 -20 -137 -25 -100 -26 -130 -7 -130 10 0 20 26 32 80 15 73 19 80 41 80 83 0 172 127 122 174 -20 19 -48 25 -89 17z m60 -36 c7 -8 10 -25 6 -39 -7 -29 -70 -86 -95 -86 -18 0 -18 3 -6 51 8 28 11 57 9 64 -5 12 4 16 62 24 6 0 17 -6 24 -14z"/>
<path d="M4447 9993 c-10 -3 -16 -10 -14 -16 2 -8 36 -11 113 -8 60 1 111 5 114 8 19 18 -153 32 -213 16z"/>
<path d="M9250 9918 c0 -98 -7 -129 -26 -121 -26 10 -33 -7 -17 -45 20 -50 27 -56 56 -48 29 7 72 69 63 91 -8 21 -21 18 -34 -7 -9 -18 -11 3 -6 95 6 114 6 117 -15 117 -20 0 -21 -5 -21 -82z"/>
<path d="M7002 9961 c-49 -9 -34 -26 21 -25 26 1 47 -1 47 -5 0 -3 -11 -41 -25 -84 -30 -94 -30 -97 -5 -97 11 0 20 7 20 15 0 9 12 52 26 95 l27 80 43 0 c44 0 66 13 38 24 -19 7 -147 6 -192 -3z"/>
<path d="M7562 9948 c-17 -17 -15 -38 8 -73 11 -16 20 -35 20 -40 0 -16 -55 -45 -84 -45 -26 0 -35 13 -16 25 13 8 13 35 0 35 -5 0 -26 -11 -46 -25 -37 -25 -74 -33 -74 -15 0 5 7 28 16 50 28 70 3 70 -50 1 -43 -56 -86 -93 -86 -74 0 4 9 37 20 72 14 44 17 68 10 75 -16 16 -27 -2 -49 -83 -15 -55 -18 -78 -10 -88 17 -20 44 -16 77 12 24 20 31 22 36 10 6 -17 67 -21 96 -5 13 7 19 6 24 -5 7 -20 82 -19 116 0 33 19 38 18 45 -4 7 -23 35 -35 49 -21 7 7 4 14 -9 24 -17 12 -18 20 -9 75 13 76 2 105 -41 109 -17 2 -36 -3 -43 -10z m56 -54 c2 -28 2 -28 -13 -10 -18 24 -20 49 -2 44 6 -3 13 -18 15 -34z"/>
<path d="M4527 9911 c-67 -11 -36 -26 48 -23 93 3 125 9 125 22 0 11 -109 11 -173 1z"/>
<path d="M1563 9850 c-58 -13 -79 -44 -48 -70 12 -10 16 -8 24 13 10 27 43 37 117 37 78 0 72 -43 -17 -115 -101 -83 -143 -157 -107 -193 25 -25 39 -14 32 28 -7 40 -7 40 90 133 104 100 118 130 74 161 -24 17 -108 20 -165 6z"/>
<path d="M815 9763 c-9 -43 -30 -132 -46 -199 -16 -66 -29 -123 -29 -127 0 -4 9 -7 20 -7 12 0 20 7 20 18 0 29 36 78 74 102 21 12 40 19 44 16 3 -4 0 -28 -8 -54 -20 -70 -19 -106 4 -110 24 -5 46 16 28 27 -11 7 -10 19 3 65 29 100 4 129 -78 87 -20 -10 -37 -18 -37 -16 0 1 11 57 25 125 29 143 30 150 11 150 -10 0 -20 -25 -31 -77z"/>
<path d="M5020 9808 c0 -10 14 -18 39 -22 69 -11 65 -37 -9 -82 -27 -16 -48 -33 -46 -39 5 -16 102 -9 142 11 39 19 63 54 29 41 -9 -4 -29 -10 -43 -14 -26 -6 -27 -5 -9 14 38 43 9 91 -62 100 -32 4 -41 2 -41 -9z"/>
<path d="M3347 9793 c-14 -14 -6 -22 26 -25 26 -2 33 -8 35 -29 2 -19 -6 -34 -33 -58 -20 -17 -40 -31 -45 -31 -6 0 -10 -7 -10 -15 0 -13 13 -15 77 -13 50 2 78 7 81 16 2 8 -9 12 -37 12 l-40 0 25 37 c27 41 26 78 -3 101 -18 13 -65 16 -76 5z"/>
<path d="M5900 9756 c0 -10 14 -16 43 -18 37 -3 42 -6 45 -30 3 -24 -4 -31 -47 -55 -65 -36 -67 -59 -8 -68 56 -9 99 -3 105 13 3 8 -11 12 -50 12 l-53 0 35 21 c64 38 78 81 38 119 -27 25 -108 29 -108 6z"/>
<path d="M462 9618 c-16 -35 -37 -88 -47 -118 -10 -30 -22 -61 -28 -68 -8 -10 -7 -16 1 -21 18 -11 224 17 240 33 17 17 7 39 -46 104 -19 24 -40 62 -47 85 -18 63 -38 59 -73 -15z m121 -159 c-10 -3 -47 -9 -82 -12 -48 -5 -62 -4 -58 6 3 6 17 42 32 79 l28 67 49 -67 c43 -58 47 -67 31 -73z"/>
<path d="M1124 9598 c-11 -17 6 -23 82 -26 51 -3 74 -1 74 7 0 15 -12 18 -87 24 -36 3 -66 1 -69 -5z"/>
<path d="M1570 9415 c0 -9 5 -15 11 -13 6 2 11 8 11 13 0 5 -5 11 -11 13 -6 2 -11 -4 -11 -13z"/>
<path d="M7091 9277 c-53 -115 -56 -126 -36 -133 11 -5 26 4 45 27 21 25 29 29 30 17 0 -20 29 -38 63 -38 53 0 152 48 135 65 -2 3 -30 -4 -61 -15 -129 -45 -133 -6 -6 61 108 58 46 74 -69 17 -37 -17 -71 -34 -75 -36 -5 -2 3 19 17 47 30 58 32 71 11 71 -10 0 -30 -31 -54 -83z"/>
<path d="M4521 9288 c-8 -29 -27 -98 -42 -153 -33 -115 -34 -125 -15 -125 13 0 41 74 74 200 l9 35 9 -45 c8 -38 13 -45 36 -48 20 -2 30 4 48 32 12 20 23 36 25 36 2 0 1 -43 -2 -95 -5 -81 -4 -95 9 -95 12 0 18 24 28 108 18 148 18 177 0 177 -8 0 -33 -28 -55 -62 -22 -34 -43 -63 -46 -63 -4 0 -9 18 -13 41 -8 49 -32 109 -44 109 -4 0 -14 -24 -21 -52z"/>
<path d="M7384 9264 c-28 -58 -114 -300 -114 -320 0 -2 9 -4 19 -4 16 0 28 25 66 141 37 111 54 147 80 174 33 33 85 53 105 40 35 -22 -40 -106 -112 -126 -47 -12 -50 -29 -5 -29 58 0 167 85 167 129 0 9 -7 27 -16 40 -15 21 -22 23 -65 18 -29 -4 -49 -2 -49 3 0 6 -9 10 -20 10 -14 0 -29 -19 -56 -76z"/>
<path d="M7996 9303 c-15 -15 -35 -40 -44 -55 -9 -15 -22 -28 -28 -28 -7 0 -15 -8 -18 -18 -8 -24 -99 -82 -130 -82 -30 0 -34 21 -11 60 19 32 19 60 1 60 -9 0 -16 12 -18 28 -2 21 -9 28 -32 30 -67 8 -160 -150 -114 -196 15 -15 70 -16 85 -1 9 9 20 8 46 -4 40 -19 80 -10 134 29 l32 24 3 -23 c5 -36 30 -25 45 19 12 37 18 42 48 46 32 4 33 3 28 -29 -5 -28 -2 -34 21 -43 34 -13 91 -13 135 0 26 7 39 6 55 -5 24 -17 73 -19 112 -5 21 8 31 7 45 -6 34 -31 177 -17 224 21 19 16 19 16 -10 11 -70 -14 -182 -18 -189 -8 -3 6 3 30 16 53 20 39 20 43 5 54 -9 7 -17 19 -17 27 0 37 -49 49 -99 23 -35 -18 -79 -69 -87 -100 -5 -20 -16 -26 -60 -35 -108 -23 -139 1 -85 63 17 19 31 37 31 41 0 11 -28 6 -71 -14 -66 -30 -75 -24 -35 21 36 39 41 59 20 66 -6 2 -23 -9 -38 -24z m-286 -52 c-15 -28 -12 -51 5 -51 35 0 -32 -79 -67 -80 -33 0 -12 86 31 129 27 27 45 28 31 2z m670 0 c0 -11 4 -22 9 -25 5 -4 5 -18 -2 -36 -13 -34 -64 -63 -105 -58 -25 3 -24 5 21 25 56 26 64 46 11 31 -20 -5 -38 -7 -41 -4 -9 9 73 86 91 86 9 0 16 -8 16 -19z"/>
<path d="M4812 9214 c-29 -20 -55 -70 -47 -93 8 -26 58 -45 105 -38 22 3 40 2 40 -1 0 -4 3 -17 6 -28 5 -20 1 -23 -48 -29 -73 -10 -116 -29 -130 -59 -10 -23 -18 -26 -62 -27 -150 -4 -250 -15 -254 -28 -4 -12 20 -13 149 -7 l154 7 23 -30 c27 -36 77 -49 132 -32 53 16 80 53 80 107 0 43 0 44 40 50 51 8 52 24 0 24 -37 0 -40 2 -49 38 -6 20 -11 60 -11 88 0 27 -5 55 -12 62 -17 17 -89 15 -116 -4z m91 -21 c2 -5 2 -27 -1 -51 -4 -42 -5 -43 -36 -37 -75 15 -81 24 -45 69 20 25 72 37 82 19z m21 -237 c-3 -71 -77 -109 -133 -69 l-24 16 22 9 c23 8 20 28 -5 28 -18 0 -18 14 -1 29 17 14 85 30 117 28 22 -2 25 -6 24 -41z"/>
<path d="M3360 9033 c-48 -19 -59 -51 -39 -107 10 -26 6 -52 -26 -170 -22 -83 -33 -142 -27 -148 14 -14 27 11 53 104 24 88 24 88 74 112 71 35 138 106 138 146 0 47 -23 64 -95 67 -35 1 -70 0 -78 -4z m128 -35 c7 -7 12 -19 12 -29 0 -17 -81 -98 -118 -118 -27 -14 -27 -10 -7 72 7 33 11 65 8 73 -4 11 6 14 44 14 27 0 54 -5 61 -12z"/>
<path d="M3903 8943 c-7 -2 -13 -9 -13 -14 0 -15 282 -7 288 9 3 9 -27 12 -130 11 -73 0 -139 -3 -145 -6z"/>
<path d="M5111 8938 c-69 -5 -127 -11 -130 -13 -2 -3 0 -10 5 -15 15 -15 416 11 422 28 4 14 -98 14 -297 0z"/>
<path d="M3968 8883 c-16 -2 -28 -10 -28 -17 0 -11 24 -13 113 -9 123 5 137 7 137 23 0 10 -162 12 -222 3z"/>
<path d="M4683 8776 c-77 -36 -95 -86 -47 -131 28 -26 85 -40 207 -50 l78 -7 -3 -40 c-2 -30 -10 -46 -29 -60 -33 -25 -122 -34 -179 -18 -44 12 -44 12 -21 29 31 24 11 37 -30 21 -39 -17 -38 -45 4 -67 45 -24 189 -24 234 0 43 23 63 54 63 98 0 55 -20 65 -141 77 -128 12 -172 31 -167 70 5 42 75 74 153 69 33 -2 68 -7 78 -11 12 -6 17 -4 17 8 0 42 -136 49 -217 12z"/>
<path d="M3505 8781 c-40 -8 -29 -26 15 -26 40 0 43 -18 7 -48 -99 -83 -97 -92 14 -83 88 7 133 21 124 36 -4 6 -22 8 -41 5 -19 -3 -51 -7 -71 -11 l-38 -5 38 35 c45 43 50 81 11 96 -14 6 -26 9 -27 9 -1 -1 -15 -4 -32 -8z"/>
<path d="M4262 8045 c-81 -73 -172 -307 -172 -443 0 -73 68 -153 129 -152 l26 1 -24 17 c-13 9 -39 31 -57 49 -31 28 -34 36 -34 90 0 131 81 342 159 418 37 36 44 55 20 55 -5 0 -26 -16 -47 -35z"/>
<path d="M5490 8071 c0 -5 14 -40 31 -78 44 -97 79 -242 79 -328 0 -124 -45 -226 -114 -259 -46 -21 -48 -41 -4 -32 43 9 102 67 130 130 34 76 31 237 -6 361 -34 112 -82 215 -102 215 -7 0 -14 -4 -14 -9z"/>
<path d="M7510 8029 c0 -6 14 -27 31 -47 18 -20 44 -61 58 -92 23 -49 26 -67 26 -171 0 -111 -1 -117 -34 -182 -38 -76 -34 -99 10 -48 47 56 64 122 64 241 -1 96 -3 111 -31 170 -17 36 -46 83 -64 103 -31 36 -60 48 -60 26z"/>
<path d="M6292 7995 c-44 -55 -102 -249 -102 -338 0 -88 35 -147 87 -147 l28 0 -27 23 c-38 32 -48 58 -48 125 0 113 68 318 110 329 28 8 25 33 -4 33 -14 0 -33 -11 -44 -25z"/>
<path d="M4421 7938 c-16 -50 -60 -301 -55 -310 11 -17 30 -6 45 24 23 47 37 46 41 -3 2 -25 9 -46 19 -52 21 -13 69 -1 69 18 0 11 -7 14 -24 9 -21 -5 -24 -2 -29 41 -5 53 -20 67 -53 54 -27 -10 -27 -16 7 145 10 49 16 92 13 97 -10 17 -23 9 -33 -23z"/>
<path d="M3828 7924 c-32 -17 -48 -43 -48 -77 0 -19 18 -41 65 -82 98 -87 108 -153 25 -175 -31 -8 -47 -7 -76 5 -32 13 -35 18 -30 41 6 22 4 25 -16 22 -55 -8 -16 -80 54 -98 26 -8 50 -7 78 0 108 29 107 136 -3 222 -51 40 -57 47 -57 75 0 28 36 53 77 53 28 0 33 -3 33 -24 0 -35 18 -42 30 -11 17 44 -2 65 -58 65 -26 -1 -59 -7 -74 -16z"/>
<path d="M5329 7928 c0 -1 -2 -28 -4 -58 -2 -31 -19 -107 -38 -169 -30 -98 -32 -113 -19 -119 9 -3 17 -1 20 6 7 21 62 92 72 92 6 0 10 -24 10 -53 0 -61 12 -77 55 -77 36 0 95 34 95 55 0 13 -6 12 -41 -5 -62 -32 -73 -25 -79 45 -5 60 -5 60 -37 60 -18 0 -33 1 -33 3 0 2 7 31 16 64 17 67 15 149 -3 156 -7 2 -13 2 -14 0z"/>
<path d="M7903 7915 c-42 -18 -55 -45 -64 -140 -4 -44 -11 -99 -14 -122 -6 -35 -4 -44 9 -49 25 -10 38 8 43 60 4 35 9 44 18 36 7 -6 52 -24 101 -41 129 -44 124 -43 124 -26 0 15 -53 39 -158 72 -29 9 -51 22 -49 28 2 6 28 26 57 43 88 52 110 94 70 134 -24 24 -88 26 -137 5z m114 -31 c3 -9 2 -24 -4 -33 -11 -18 -114 -83 -121 -77 -2 3 1 21 8 42 10 28 10 38 0 44 -20 12 30 40 73 40 26 0 40 -5 44 -16z"/>
<path d="M8435 7918 c-55 -5 -135 -6 -178 -3 -61 4 -78 3 -75 -7 6 -18 43 -26 126 -27 41 -1 72 -5 72 -11 0 -6 -10 -57 -21 -114 -12 -58 -19 -112 -16 -120 8 -20 57 -21 57 -2 0 8 -6 16 -12 18 -10 4 -9 23 5 89 9 46 17 98 17 115 l0 31 111 7 c115 7 133 11 124 27 -7 11 -70 10 -210 -3z"/>
<path d="M7197 7913 c-14 -13 -6 -23 17 -23 62 0 86 -99 42 -174 -24 -40 -70 -76 -82 -63 -3 3 -10 37 -14 75 -8 74 -32 121 -62 122 -23 0 -23 -6 3 -42 15 -21 23 -52 28 -106 l6 -77 38 -3 c34 -3 44 2 83 41 35 35 44 40 44 25 0 -17 5 -19 30 -13 50 11 55 -4 15 -45 -21 -21 -34 -43 -31 -49 9 -14 94 -14 135 0 52 18 37 32 -26 24 l-58 -7 23 24 c44 48 21 91 -49 90 -30 -1 -39 3 -35 13 25 67 12 141 -31 175 -25 20 -63 26 -76 13z"/>
<path d="M6527 7903 c-13 -12 -7 -35 7 -30 38 15 48 -60 16 -123 -24 -48 -40 -59 -40 -28 -1 31 -32 99 -57 120 -27 24 -66 27 -71 6 -2 -11 4 -18 20 -20 30 -4 68 -63 68 -105 0 -40 15 -73 33 -73 18 0 61 47 83 90 24 48 24 122 0 149 -19 21 -46 27 -59 14z"/>
<path d="M5016 7797 c-13 -32 -36 -126 -36 -147 0 -6 6 -10 14 -10 8 0 18 22 25 60 7 33 16 62 21 65 5 3 17 -9 26 -27 9 -18 32 -54 51 -80 l35 -48 -37 0 c-20 0 -56 5 -81 11 -33 9 -48 9 -56 1 -16 -16 33 -33 117 -39 57 -4 73 -2 84 10 11 14 5 28 -42 99 -31 46 -60 96 -66 111 -14 37 -38 34 -55 -6z"/>
<path d="M3430 7805 c-19 -8 -42 -17 -50 -20 -18 -7 -60 -135 -60 -182 0 -18 -9 -78 -19 -135 -28 -148 -29 -162 -9 -166 20 -4 27 20 52 183 17 109 27 137 40 116 12 -19 70 -12 109 14 69 47 89 134 42 180 -27 28 -54 30 -105 10z m88 -47 c16 -34 -2 -84 -43 -116 -36 -28 -75 -29 -75 -2 0 11 -5 20 -11 20 -16 0 -1 70 19 94 39 43 90 45 110 4z"/>
<path d="M6854 7805 c-4 -8 -4 -24 -1 -35 4 -16 0 -20 -18 -20 -34 0 -55 -10 -55 -26 0 -11 9 -13 39 -8 36 6 39 4 49 -25 14 -39 32 -40 32 -1 0 27 3 30 29 30 17 0 32 4 35 9 7 11 -17 21 -50 21 -21 0 -24 5 -24 35 0 37 -25 50 -36 20z"/>
<path d="M4747 7803 c-3 -5 -8 -22 -11 -40 -6 -27 -12 -32 -39 -35 -37 -4 -39 -22 -3 -26 22 -3 25 -9 28 -50 4 -60 20 -57 34 5 7 35 15 49 30 51 33 6 40 22 10 22 -28 0 -28 1 -22 40 5 31 3 40 -8 40 -8 0 -17 -3 -19 -7z"/>
<path d="M5820 7801 c-8 -5 -11 -13 -7 -17 5 -6 103 -8 192 -4 5 0 4 5 -3 12 -15 15 -162 22 -182 9z"/>
<path d="M5842 7713 c-13 -3 -21 -10 -19 -16 3 -9 33 -11 103 -8 103 3 118 6 109 22 -6 9 -148 10 -193 2z"/>
<path d="M6647 7683 c-4 -3 -7 -35 -7 -70 0 -49 3 -63 15 -63 9 0 15 9 15 24 0 13 3 44 6 70 5 37 4 46 -8 46 -8 0 -18 -3 -21 -7z"/>
<path d="M9084 7369 c43 -154 45 -187 16 -329 -31 -155 -57 -227 -96 -270 -39 -43 -30 -65 14 -33 39 28 68 94 103 229 23 92 30 141 30 214 0 109 -25 202 -56 209 -14 2 -17 -1 -11 -20z"/>
<path d="M6761 7245 c-17 -20 -38 -52 -47 -73 -49 -117 -82 -315 -64 -383 14 -50 50 -89 85 -89 30 0 33 16 4 25 -32 10 -59 64 -59 116 0 116 60 328 110 390 26 33 29 49 9 49 -4 0 -21 -16 -38 -35z"/>
<path d="M7027 7163 c-10 -16 -87 -296 -87 -314 0 -24 16 -25 28 -1 5 9 20 54 32 100 l24 83 16 -33 c19 -41 52 -48 75 -16 16 22 17 21 10 -44 -7 -74 -1 -108 20 -108 10 0 14 36 20 151 4 82 5 153 2 156 -15 14 -34 -10 -56 -71 -30 -84 -44 -75 -49 29 -3 54 -8 75 -18 75 -7 0 -15 -3 -17 -7z"/>
<path d="M7505 7086 c-8 -19 -15 -42 -15 -50 0 -8 -5 -27 -12 -43 -6 -15 -12 -37 -13 -48 -1 -11 -5 -40 -9 -63 -7 -39 -6 -44 10 -40 14 2 22 16 28 48 8 43 11 46 57 61 l49 16 0 -29 c0 -44 17 -66 58 -77 33 -9 106 -4 149 10 6 2 18 -5 26 -16 20 -26 103 -27 142 -1 37 25 25 30 -35 16 -75 -18 -84 -11 -76 58 4 31 9 72 11 90 3 34 -15 62 -40 62 -42 0 -125 -116 -125 -174 0 -24 -3 -26 -27 -20 -16 4 -31 9 -35 11 -15 8 -7 78 12 122 24 51 25 61 6 61 -8 0 -23 -16 -34 -34 -18 -31 -84 -76 -111 -76 -5 0 -3 25 5 58 20 79 21 84 6 89 -7 3 -19 -10 -27 -31z m327 -112 c-13 -34 -27 -54 -50 -67 -32 -19 -32 -19 -32 1 0 33 16 67 51 107 42 47 56 29 31 -41z"/>
<path d="M8606 7088 c-8 -13 -25 -49 -37 -81 -12 -33 -30 -61 -38 -63 -9 -3 -33 -14 -53 -25 -36 -19 -38 -19 -38 -2 0 10 7 29 16 41 9 14 14 38 12 64 -2 36 -8 45 -31 56 -24 12 -32 11 -53 -3 -49 -32 -90 -133 -65 -158 6 -6 27 -11 46 -10 62 2 35 -34 -64 -87 -68 -37 -131 -99 -131 -131 0 -85 111 -127 170 -64 19 21 80 180 80 210 0 10 71 65 84 65 2 0 6 -9 9 -20 8 -29 33 -24 46 9 8 19 24 32 49 40 20 7 43 15 50 17 7 4 12 -3 12 -18 0 -35 18 -48 70 -48 25 0 54 -7 64 -15 11 -8 40 -15 65 -15 48 0 131 32 131 50 0 13 1 13 -50 -5 -47 -17 -116 -20 -124 -6 -3 5 12 20 33 34 37 25 81 95 81 129 0 9 -7 21 -16 29 -34 28 -109 -41 -139 -128 -11 -32 -18 -39 -44 -41 -41 -4 -50 20 -26 64 22 42 13 54 -23 31 -45 -29 -91 -51 -97 -45 -3 3 8 35 24 71 16 36 27 68 24 71 -11 11 -23 6 -37 -16z m-176 -52 c0 -14 -4 -28 -10 -31 -5 -3 -10 -16 -10 -29 0 -19 -32 -46 -55 -46 -13 0 -2 49 16 80 33 55 59 66 59 26z m470 3 c0 -25 -53 -99 -72 -99 -14 0 -9 15 22 63 28 44 50 60 50 36z m-536 -271 c-23 -79 -46 -121 -75 -137 -24 -13 -30 -13 -53 2 -31 21 -34 61 -8 94 16 21 128 93 143 93 5 0 1 -24 -7 -52z"/>
<path d="M4159 7077 c-37 -24 -89 -115 -89 -155 0 -14 -14 -74 -31 -134 -21 -75 -28 -113 -21 -120 13 -13 32 -2 32 19 0 8 21 85 46 171 50 173 75 212 134 212 53 0 71 -87 27 -128 -28 -26 -90 -47 -95 -32 -6 18 -32 10 -32 -9 0 -47 103 -30 158 25 32 32 34 38 29 80 -10 88 -83 121 -158 71z"/>
<path d="M3394 6994 c-21 -22 -40 -56 -50 -92 -8 -31 -33 -104 -55 -160 -43 -114 -48 -145 -23 -140 10 2 24 25 34 58 41 127 111 304 126 322 21 23 66 23 92 1 56 -49 20 -103 -73 -111 -35 -3 -55 -9 -55 -17 0 -19 22 -24 71 -14 24 4 47 8 51 9 3 0 20 12 37 26 69 58 16 154 -85 154 -29 0 -43 -7 -70 -36z"/>
<path d="M3700 6960 c-22 -14 -12 -17 78 -23 65 -5 82 -4 82 7 0 22 -129 36 -160 16z"/>
<path d="M4425 6899 c-54 -28 -75 -48 -75 -71 0 -24 18 -23 42 5 18 20 19 20 13 2 -3 -11 -12 -37 -18 -57 -10 -34 -16 -38 -44 -38 -37 0 -51 -15 -26 -28 24 -13 173 -10 174 3 0 6 -17 14 -39 18 l-41 8 14 39 c7 21 24 57 37 79 31 54 17 68 -37 40z"/>
<path d="M3677 6883 c-10 -3 -16 -10 -14 -16 4 -12 146 -17 154 -5 12 20 -88 35 -140 21z"/>
<path d="M13022 6203 c58 -115 62 -127 62 -223 0 -148 -54 -312 -140 -424 -39 -52 -39 -68 1 -42 40 26 93 115 132 222 60 167 57 365 -8 447 -18 24 -57 39 -47 20z"/>
<path d="M12016 6133 c-73 -116 -126 -286 -126 -401 0 -57 26 -141 47 -149 22 -9 24 1 8 47 -21 59 -19 162 5 256 26 104 102 260 131 267 26 7 20 31 -8 35 -16 2 -29 -11 -57 -55z"/>
<path d="M3337 6173 c-13 -12 -7 -43 8 -43 8 0 15 5 15 11 0 13 42 8 47 -7 2 -5 -13 -18 -33 -27 -19 -10 -34 -23 -32 -29 2 -6 28 -19 56 -28 81 -27 82 -31 8 -51 -27 -8 -54 -22 -60 -31 -12 -20 -3 -34 16 -22 7 5 40 18 73 29 52 17 60 23 60 45 0 19 -9 29 -43 45 -39 18 -42 22 -28 34 19 16 21 52 4 69 -13 13 -80 17 -91 5z"/>
<path d="M6045 6157 c-25 -19 -11 -41 16 -26 28 15 73 7 77 -13 2 -11 -10 -24 -38 -38 -23 -12 -39 -24 -35 -28 3 -4 34 -14 67 -22 34 -8 63 -20 65 -26 5 -14 -49 -34 -89 -34 -19 0 -28 -4 -25 -12 9 -28 139 -4 151 27 8 21 -31 63 -63 70 -29 6 -29 7 -10 26 25 25 24 54 -3 73 -28 20 -88 21 -113 3z"/>
<path d="M9597 6120 c-67 -59 -111 -223 -87 -328 13 -58 65 -122 100 -122 28 0 25 13 -8 37 -39 29 -62 81 -62 142 0 102 35 207 87 262 36 38 11 46 -30 9z"/>
<path d="M8456 6128 c-8 -24 -48 -203 -62 -273 -18 -88 -18 -105 0 -105 16 0 22 15 31 81 9 62 12 66 71 74 l52 7 4 -66 c3 -50 9 -72 25 -87 27 -28 49 -16 28 14 -10 14 -15 45 -15 87 0 56 3 67 22 79 21 13 21 14 3 27 -18 13 -18 18 -6 62 22 77 24 92 12 92 -19 0 -40 -44 -54 -111 l-13 -64 -47 -9 c-27 -4 -50 -6 -52 -4 -3 3 4 45 15 94 24 108 24 114 5 114 -9 0 -17 -6 -19 -12z"/>
<path d="M9215 6130 c-13 -21 7 -29 52 -23 58 8 56 -13 -6 -42 -46 -22 -51 -48 -12 -53 32 -5 71 -31 71 -48 0 -13 -18 -20 -68 -26 -35 -4 -27 -23 11 -26 41 -4 85 12 94 34 8 23 -16 62 -48 76 l-27 12 34 23 c35 24 43 50 22 71 -14 14 -114 16 -123 2z"/>
<path d="M12844 6113 c-26 -116 -69 -277 -85 -323 -23 -66 -24 -82 -3 -78 9 2 24 21 33 44 30 78 91 148 110 129 3 -4 7 -40 9 -81 3 -54 8 -74 18 -74 32 0 30 136 -2 171 -21 23 -57 25 -74 4 -7 -9 -15 -14 -17 -12 -2 2 8 51 22 108 14 57 25 112 25 122 0 28 -29 20 -36 -10z"/>
<path d="M5349 6123 c0 -4 0 -37 1 -73 1 -51 -6 -85 -30 -153 -18 -48 -36 -90 -41 -93 -17 -10 -9 -34 11 -34 11 0 20 4 20 10 0 13 60 80 72 80 7 0 9 -18 5 -50 -8 -71 4 -97 48 -106 39 -7 90 9 99 32 6 17 -17 19 -46 3 -11 -6 -31 -8 -45 -4 -24 6 -24 8 -21 83 l3 77 -33 -2 c-27 -1 -32 2 -27 15 18 43 28 143 19 178 -8 33 -33 59 -35 37z"/>
<path d="M10406 6111 c-3 -4 6 -19 21 -32 14 -13 34 -42 44 -64 36 -78 16 -290 -29 -314 -9 -5 -37 -12 -61 -16 l-44 -7 27 34 c30 40 33 60 11 78 -23 19 -95 -5 -95 -32 0 -10 17 -8 53 7 25 10 21 -12 -8 -47 -14 -16 -25 -36 -25 -44 0 -18 41 -28 85 -20 28 6 35 4 35 -9 0 -29 29 -15 54 28 65 111 75 281 23 370 -35 59 -77 91 -91 68z"/>
<path d="M7805 6087 c-21 -32 -87 -319 -76 -330 19 -19 28 6 61 149 36 154 40 157 60 52 18 -90 57 -104 96 -34 l22 39 -2 -94 c-1 -87 1 -94 19 -97 19 -2 20 4 23 158 2 153 2 160 -17 160 -19 0 -28 -18 -64 -124 -14 -42 -37 -60 -37 -30 0 10 -7 47 -16 83 -23 94 -40 111 -69 68z"/>
<path d="M12062 5940 c-41 -93 -71 -174 -67 -180 12 -20 26 -9 45 33 19 43 58 86 97 106 33 17 34 15 8 -41 -29 -61 -31 -93 -9 -102 24 -9 64 4 64 21 0 11 -7 13 -25 9 -23 -6 -24 -5 -15 19 5 14 16 38 25 55 8 16 15 40 15 55 0 20 -5 25 -25 25 -15 0 -39 -7 -55 -15 -17 -9 -30 -14 -30 -12 0 2 16 40 35 84 37 87 43 113 22 113 -7 0 -45 -76 -85 -170z"/>
<path d="M6733 6069 c-43 -12 -55 -37 -53 -112 1 -34 -1 -97 -5 -139 -7 -66 -6 -78 7 -78 11 0 17 16 22 59 l7 60 37 -24 c20 -13 49 -33 64 -44 26 -21 58 -28 58 -13 0 13 -41 48 -77 66 -18 9 -33 22 -33 29 0 7 25 35 55 61 39 33 55 54 55 72 0 24 0 24 161 24 124 0 160 3 157 13 -6 17 -95 24 -218 17 -77 -5 -112 -3 -132 7 -31 15 -59 15 -105 2z m88 -29 c10 -6 19 -16 19 -23 0 -12 -51 -65 -94 -98 -18 -13 -19 -12 -12 34 5 31 4 47 -3 47 -20 0 -11 31 12 40 30 12 55 12 78 0z"/>
<path d="M3915 6041 c-29 -12 -51 -41 -63 -81 -12 -41 -24 -195 -16 -203 12 -12 33 6 39 34 l7 30 36 -22 c73 -44 93 -52 104 -41 8 8 -3 19 -37 39 -87 52 -86 45 -27 100 40 38 52 56 52 79 l0 29 75 -3 c65 -3 75 -6 71 -20 -15 -48 -36 -150 -36 -175 0 -22 4 -28 17 -25 13 2 20 18 25 58 4 30 14 78 21 105 l13 50 67 3 c65 3 85 13 50 26 -9 4 -84 6 -166 5 -97 0 -153 3 -160 10 -13 13 -43 13 -72 2z m53 -56 c2 -24 -5 -38 -37 -69 l-40 -40 6 55 c6 57 27 92 52 87 10 -2 17 -16 19 -33z"/>
<path d="M3677 6033 c-16 -15 -7 -35 14 -30 20 5 21 3 17 -51 -4 -53 -40 -132 -60 -132 -5 0 -8 23 -8 50 0 61 -23 110 -50 110 -20 0 -20 0 0 -37 14 -27 20 -57 20 -105 0 -59 2 -68 18 -68 25 0 77 56 101 110 25 54 27 122 5 144 -16 16 -46 21 -57 9z"/>
<path d="M6455 6029 c-4 -6 2 -17 14 -25 26 -19 28 -78 4 -132 l-17 -37 -6 50 c-3 28 -11 60 -17 71 -16 28 -70 51 -85 36 -7 -7 -10 -13 -7 -14 2 -2 18 -10 34 -19 30 -15 30 -16 30 -101 0 -47 3 -89 7 -93 13 -13 56 23 83 69 15 26 29 67 32 98 4 44 2 57 -17 81 -22 28 -44 35 -55 16z"/>
<path d="M10225 6030 c-3 -5 1 -23 10 -39 25 -50 20 -136 -12 -190 l-28 -46 -6 70 c-6 72 -29 132 -55 142 -25 10 -26 -3 -3 -49 19 -35 23 -58 22 -125 -1 -99 8 -105 72 -40 63 63 82 154 49 236 -16 39 -38 58 -49 41z"/>
<path d="M10661 6029 c-13 -5 -30 -17 -37 -27 -15 -20 -18 -59 -5 -64 5 -1 -2 -43 -15 -93 -37 -138 -39 -155 -20 -155 10 0 19 15 27 45 6 25 13 45 15 45 2 0 29 -16 61 -35 32 -19 66 -35 75 -35 28 0 31 19 4 30 -14 5 -43 20 -65 34 -52 33 -46 57 25 98 52 29 104 79 104 99 0 53 -98 87 -169 58z m110 -29 c32 -18 23 -47 -23 -76 -24 -15 -56 -36 -72 -47 l-28 -19 8 43 c4 24 8 55 8 69 1 14 6 28 11 32 15 11 73 10 96 -2z"/>
<path d="M10870 6031 c0 -10 35 -21 71 -21 l27 0 -34 -132 c-23 -89 -31 -135 -24 -142 6 -6 13 -6 18 0 13 14 65 213 65 246 0 28 0 28 74 28 58 0 73 3 73 15 0 13 -22 15 -135 15 -74 0 -135 -4 -135 -9z"/>
<path d="M7000 5988 c0 -18 -7 -60 -15 -93 -18 -77 -19 -105 -1 -105 17 0 20 9 41 122 17 90 15 108 -11 108 -9 0 -14 -11 -14 -32z"/>
<path d="M9725 6000 c-9 -15 4 -30 20 -23 20 7 20 -85 0 -133 -16 -39 -35 -38 -35 2 0 59 -58 140 -83 115 -9 -10 -9 -15 4 -24 27 -20 41 -56 47 -125 4 -36 12 -67 18 -69 19 -6 72 58 89 105 17 53 20 115 5 143 -11 20 -54 26 -65 9z"/>
<path d="M4746 5968 c-3 -7 -7 -51 -10 -98 -4 -47 -8 -94 -9 -105 -1 -12 4 -20 13 -20 10 0 24 26 40 72 25 72 62 133 80 133 15 0 12 -50 -5 -106 -18 -61 -18 -64 0 -64 8 0 23 17 34 39 24 46 69 101 83 101 7 0 8 -29 3 -85 -6 -72 -5 -85 8 -85 9 0 18 12 21 28 21 111 18 165 -11 176 -9 4 -31 -2 -49 -13 l-33 -19 -10 29 c-14 39 -52 39 -92 0 l-29 -29 0 29 c0 30 -27 42 -34 17z"/>
<path d="M5099 5956 c-42 -29 -68 -80 -52 -105 8 -12 25 -16 67 -16 56 0 56 0 56 -32 0 -26 -7 -35 -45 -58 -61 -35 -113 -82 -131 -116 -17 -34 -18 -101 -2 -117 21 -21 74 -14 109 15 37 32 86 128 95 189 5 35 11 45 35 54 36 15 37 30 3 30 -26 0 -27 1 -22 58 11 114 -33 152 -113 98z m73 -46 c-5 -41 -15 -50 -59 -50 -44 0 -44 29 -2 65 43 35 65 30 61 -15z m-22 -227 c-29 -89 -75 -153 -111 -153 -42 0 -25 84 27 131 38 33 88 68 92 64 2 -2 -2 -21 -8 -42z"/>
<path d="M5760 5955 c-5 -14 -10 -32 -10 -40 0 -8 -13 -15 -32 -17 -42 -4 -50 -28 -10 -28 24 0 31 -5 34 -22 4 -33 38 -37 38 -5 0 22 5 25 62 33 37 6 63 14 66 23 4 11 -7 13 -58 7 l-62 -7 4 37 c4 45 -17 58 -32 19z"/>
<path d="M8144 5948 c-42 -33 -53 -50 -54 -81 0 -34 36 -52 76 -37 14 6 27 10 30 10 2 0 4 -22 4 -48 0 -49 0 -49 -51 -72 -101 -48 -139 -131 -84 -185 41 -42 104 -26 135 35 13 26 40 130 40 156 0 1 9 4 20 7 25 7 26 27 1 27 -13 0 -20 10 -25 31 -10 50 -7 108 6 128 29 47 -46 69 -98 29z m66 -15 c0 -5 -9 -23 -20 -40 -14 -23 -27 -33 -45 -33 -33 0 -32 16 6 51 29 27 59 38 59 22z m-20 -278 c-14 -63 -35 -102 -60 -110 -53 -17 -69 63 -22 107 26 25 84 59 90 53 1 -1 -2 -24 -8 -50z"/>
<path d="M11764 5956 c-94 -41 -96 -174 -2 -138 17 6 33 10 35 8 2 -1 0 -23 -3 -48 -6 -44 -9 -47 -65 -73 -80 -39 -123 -85 -123 -131 0 -44 23 -64 72 -64 52 0 95 49 122 138 12 40 26 72 31 72 6 0 7 15 4 33 -3 17 -1 55 5 82 19 86 21 100 13 112 -13 19 -56 24 -89 9z m61 -27 c9 -13 -71 -92 -88 -86 -19 7 -8 40 24 70 31 28 53 34 64 16z m-69 -297 c-21 -64 -50 -94 -84 -90 -39 4 -41 42 -5 80 27 28 94 70 102 63 1 -2 -4 -26 -13 -53z"/>
<path d="M7455 5926 c-8 -19 -15 -40 -15 -46 0 -8 -11 -9 -31 -5 -26 6 -30 4 -27 -12 2 -10 13 -19 26 -21 19 -3 22 -9 22 -48 0 -32 4 -44 15 -44 9 0 15 9 15 23 0 55 10 66 61 73 34 5 49 11 49 22 0 12 -9 13 -46 8 -51 -7 -49 -9 -32 63 7 31 -23 20 -37 -13z"/>
<path d="M9973 5922 c5 -41 5 -41 -32 -44 -46 -4 -43 -22 4 -26 36 -3 36 -4 33 -45 -2 -32 1 -42 12 -42 10 0 16 12 18 41 3 36 7 41 35 50 39 11 37 30 -3 26 -27 -3 -29 0 -32 35 -2 28 -8 39 -22 41 -17 4 -18 -1 -13 -36z"/>
<path d="M11206 5953 c-3 -3 -6 -19 -6 -35 0 -25 -4 -28 -32 -29 -47 -1 -81 -12 -86 -28 -3 -10 8 -11 52 -6 l56 7 0 -40 c0 -43 16 -64 31 -41 5 8 9 29 9 47 0 26 4 32 23 32 35 0 67 11 61 21 -3 5 -23 9 -45 9 -37 0 -39 2 -39 29 0 30 -12 46 -24 34z"/>
<path d="M12354 5915 c-15 -41 -20 -45 -51 -45 -41 0 -41 -23 0 -28 22 -3 27 -8 27 -33 0 -40 28 -39 37 1 4 22 11 30 27 30 12 0 31 7 42 15 18 13 17 14 -20 15 -35 0 -38 2 -31 23 17 55 17 67 2 67 -9 0 -22 -19 -33 -45z"/>
<path d="M11397 5943 c-4 -3 -7 -27 -7 -52 -1 -25 -9 -71 -20 -101 -24 -67 -24 -80 -5 -80 8 0 30 30 49 68 18 37 43 78 55 92 20 25 20 25 21 2 0 -12 -7 -39 -15 -59 -32 -77 -4 -87 42 -15 17 26 43 58 57 71 l26 24 0 -81 c0 -63 3 -82 14 -82 19 0 26 32 26 122 0 52 -4 78 -12 81 -16 5 -60 -16 -79 -39 -13 -15 -14 -15 -19 6 -3 13 -13 28 -22 34 -14 8 -23 5 -46 -17 l-29 -28 -6 30 c-6 30 -17 38 -30 24z"/>
<path d="M12542 5918 c-31 -53 -92 -166 -92 -171 0 -14 64 -15 83 -2 11 8 47 17 79 21 32 4 66 12 75 19 16 12 14 17 -29 57 -26 24 -53 58 -59 76 -14 41 -32 41 -57 0z m67 -78 c27 -28 33 -40 22 -40 -9 0 -40 -6 -69 -14 -29 -7 -51 -11 -50 -7 38 75 53 101 55 101 2 0 21 -18 42 -40z"/>
<path d="M4517 5911 c-9 -26 -17 -31 -44 -31 -23 0 -33 -5 -33 -15 0 -10 11 -15 35 -15 35 0 35 0 35 -51 0 -43 3 -50 18 -47 13 2 18 15 20 51 3 47 3 47 42 47 44 0 70 8 70 21 0 5 -25 9 -56 9 -54 0 -55 1 -52 27 4 38 -21 41 -35 4z"/>
<path d="M8740 5906 c0 -23 148 -37 180 -16 22 14 12 17 -87 23 -75 6 -93 4 -93 -7z"/>
<path d="M3262 5888 c5 -14 207 -24 237 -13 36 14 -19 25 -127 25 -87 0 -113 -3 -110 -12z"/>
<path d="M6070 5891 c0 -15 29 -21 110 -21 83 0 114 6 104 21 -7 12 -214 12 -214 0z"/>
<path d="M9289 5879 c-37 -5 -80 -14 -95 -20 -45 -17 -9 -29 51 -18 28 6 83 11 123 12 47 1 72 5 72 13 0 11 -48 26 -74 23 -6 -1 -41 -5 -77 -10z"/>
<path d="M4263 5834 c-34 -26 -44 -54 -20 -54 7 0 19 6 26 13 11 10 13 8 7 -13 -17 -63 -19 -92 -5 -100 19 -13 29 -3 29 30 0 17 9 53 20 81 10 29 17 56 14 61 -10 15 -39 8 -71 -18z"/>
<path d="M7107 5853 c-29 -8 -13 -28 21 -25 16 2 33 -2 37 -8 9 -14 -20 -46 -54 -63 -14 -7 -26 -19 -26 -27 0 -12 15 -15 73 -15 76 0 100 16 36 25 -36 5 -36 5 -15 24 21 19 27 51 13 73 -9 15 -58 24 -85 16z"/>
<path d="M3726 5817 c-6 -21 -26 -144 -26 -161 0 -24 29 -19 34 7 16 72 26 130 26 141 0 18 -30 29 -34 13z"/>
<path d="M8725 5820 c-14 -22 19 -30 126 -30 77 0 110 4 125 15 17 13 7 14 -98 15 -64 0 -123 3 -131 6 -8 3 -18 0 -22 -6z"/>
<path d="M6107 5813 c-16 -16 -4 -23 41 -23 27 0 57 -6 67 -14 23 -16 27 -13 -90 -58 -92 -35 -82 -52 34 -56 102 -3 145 5 101 18 -14 5 -45 9 -70 9 l-45 2 50 19 c79 31 92 66 34 95 -28 15 -110 21 -122 8z"/>
<path d="M9790 5791 c0 -15 -3 -56 -6 -90 -6 -52 -4 -61 9 -61 19 0 33 75 29 153 -3 38 -32 37 -32 -2z"/>
<path d="M6530 5796 c0 -8 10 -16 23 -18 31 -4 26 -20 -12 -37 -34 -16 -40 -35 -15 -45 25 -10 94 -7 115 5 29 15 13 29 -24 22 -26 -5 -30 -3 -19 8 15 17 16 51 0 67 -17 17 -68 15 -68 -2z"/>
<path d="M3333 5780 c-13 -5 -23 -14 -23 -19 0 -18 22 -23 45 -11 13 7 31 10 39 7 28 -11 17 -47 -29 -96 -25 -26 -45 -53 -45 -60 0 -12 135 -16 164 -5 34 13 13 24 -44 24 l-60 0 35 46 c40 52 43 76 15 104 -21 21 -60 25 -97 10z"/>
<path d="M9222 5778 c3 -7 27 -15 54 -18 75 -8 71 -30 -16 -86 -73 -47 -82 -63 -39 -75 48 -14 194 -10 215 6 23 17 26 17 -101 15 l-100 -1 50 31 c82 52 103 91 67 123 -23 21 -136 25 -130 5z"/>
<path d="M10640 4799 c0 -7 9 -26 19 -43 24 -38 47 -129 56 -216 15 -144 -43 -296 -133 -352 -20 -12 -30 -24 -24 -30 27 -27 117 58 160 151 51 110 40 327 -23 451 -23 45 -55 68 -55 39z"/>
<path d="M3206 4751 c-49 -6 -49 -6 -69 -64 -21 -63 -17 -78 13 -59 29 18 58 15 70 -9 26 -49 -14 -96 -90 -106 -43 -6 -43 -6 -36 21 6 23 4 27 -10 24 -26 -5 -41 -35 -28 -55 25 -41 153 -18 194 34 25 32 25 59 0 101 -15 24 -27 32 -48 32 -25 0 -29 3 -25 24 5 22 11 25 86 33 45 4 82 13 82 18 0 12 -70 15 -139 6z"/>
<path d="M5715 4750 c-16 -4 -42 -11 -58 -14 -21 -5 -34 -20 -59 -71 -18 -35 -29 -68 -25 -72 4 -4 21 1 36 10 16 9 38 17 48 17 43 0 58 -53 23 -85 -25 -23 -109 -33 -121 -14 -6 11 -11 11 -20 2 -21 -21 8 -43 58 -43 111 0 176 75 122 144 -15 19 -30 26 -55 26 -35 0 -35 0 -19 29 13 26 22 30 87 41 111 18 118 20 118 30 0 12 -92 12 -135 0z"/>
<path d="M9343 4738 c-41 -11 -84 -64 -134 -163 -68 -139 -95 -287 -65 -360 17 -39 62 -73 77 -58 7 7 0 20 -20 41 -28 28 -31 36 -31 94 0 85 22 164 75 274 43 89 98 154 130 154 16 0 21 16 8 23 -5 2 -22 0 -40 -5z"/>
<path d="M8033 4734 c-7 -3 -13 -11 -13 -18 0 -7 -13 -33 -30 -59 -16 -26 -30 -52 -30 -57 0 -6 21 -9 48 -7 47 2 47 2 50 -35 3 -30 -1 -40 -23 -54 -17 -11 -35 -14 -56 -10 -25 5 -30 3 -27 -12 7 -37 103 -22 133 22 31 43 9 114 -37 123 -33 7 -32 3 -11 48 l17 35 95 0 c76 0 93 3 83 13 -13 12 -175 22 -199 11z"/>
<path d="M4420 4598 c-17 -57 -46 -147 -64 -201 -27 -81 -31 -100 -19 -104 8 -3 21 5 31 18 9 13 32 39 52 56 l35 33 3 -28 c2 -15 11 -35 19 -44 28 -31 153 -19 192 18 25 23 5 27 -45 10 -26 -9 -64 -16 -85 -16 -36 0 -38 2 -41 36 -4 50 -29 65 -68 42 -17 -9 -30 -15 -30 -13 0 3 18 65 40 137 45 148 46 158 25 158 -9 0 -24 -34 -45 -102z"/>
<path d="M10435 4638 c-10 -75 -43 -205 -66 -257 -10 -24 -19 -47 -19 -52 0 -18 39 -8 45 11 7 23 61 70 81 70 9 0 14 -10 14 -28 0 -15 5 -33 12 -40 19 -19 93 -15 119 7 31 25 19 37 -20 22 -16 -7 -40 -11 -53 -9 -19 2 -24 10 -26 42 l-3 38 -45 -5 c-24 -2 -44 -3 -44 -1 0 1 9 40 20 86 24 100 26 168 6 168 -9 0 -16 -17 -21 -52z"/>
<path d="M9517 4653 c-4 -3 -7 -13 -7 -22 0 -9 -20 -69 -45 -133 -25 -65 -45 -122 -45 -128 0 -19 31 -10 68 19 49 38 77 48 66 24 -4 -10 -8 -31 -8 -48 -1 -26 3 -30 28 -33 45 -5 96 7 96 23 0 11 -11 13 -50 8 l-50 -6 15 35 c12 29 12 38 1 53 -12 17 -16 17 -60 3 -25 -8 -46 -14 -46 -13 0 2 16 44 35 94 19 49 35 99 35 111 0 19 -19 27 -33 13z"/>
<path d="M6724 4548 c-16 -56 -37 -109 -47 -119 -11 -9 -14 -19 -9 -23 6 -4 5 -23 -4 -53 -19 -62 -18 -85 2 -81 11 2 22 23 31 58 8 30 17 58 21 61 4 4 34 10 66 14 58 7 59 7 52 -17 -3 -12 -9 -40 -12 -62 -6 -33 -5 -38 12 -34 12 2 21 16 26 43 5 21 27 95 49 163 23 68 39 126 35 129 -16 16 -37 -15 -62 -91 -28 -85 -28 -85 -70 -95 -50 -13 -84 -14 -84 -3 0 4 11 43 25 87 28 90 31 125 11 125 -9 0 -24 -36 -42 -102z"/>
<path d="M6170 4523 c-30 -47 -60 -88 -67 -91 -9 -2 -13 19 -15 75 -5 121 -21 111 -91 -54 -68 -161 -77 -193 -53 -193 9 0 20 10 25 23 5 12 27 67 48 122 l38 100 5 -55 c5 -51 7 -55 32 -58 23 -3 33 5 60 44 18 25 38 54 45 63 10 13 12 -5 10 -89 -2 -88 0 -105 13 -105 15 0 23 61 32 250 5 79 -19 71 -82 -32z"/>
<path d="M8456 4558 c-3 -7 -7 -31 -11 -53 -4 -22 -20 -66 -36 -98 -26 -52 -27 -58 -12 -64 11 -4 20 0 27 13 15 26 104 114 116 114 15 0 12 -37 -5 -71 -14 -26 -14 -30 -1 -35 9 -4 27 8 47 31 33 37 86 71 97 60 3 -3 1 -32 -6 -63 -15 -71 -15 -82 -1 -82 18 0 40 70 37 117 -5 69 -28 74 -120 25 -3 -2 -8 7 -10 20 -4 29 -40 36 -74 14 -24 -16 -24 -16 -21 30 1 30 -2 48 -10 51 -7 3 -15 -1 -17 -9z"/>
<path d="M5116 4518 c-3 -13 -6 -37 -6 -55 0 -31 -1 -32 -47 -35 -59 -4 -63 -22 -6 -26 39 -3 42 -5 45 -35 4 -41 19 -41 30 -1 7 28 12 31 70 40 79 11 74 30 -6 26 l-59 -4 7 39 c4 21 9 46 12 56 4 12 0 17 -14 17 -12 0 -22 -9 -26 -22z"/>
<path d="M4112 4504 c-96 -48 -146 -135 -86 -150 16 -4 48 0 75 9 52 16 55 14 43 -31 -4 -14 -28 -34 -66 -54 -103 -55 -141 -120 -102 -176 23 -33 60 -45 99 -32 50 16 65 41 84 135 18 88 18 88 64 111 75 39 69 62 -8 30 -40 -17 -39 -17 -24 21 6 15 12 54 14 86 1 47 -2 60 -16 68 -23 12 -17 13 -77 -17z m54 -70 c-7 -19 -91 -56 -117 -52 -21 3 -21 3 2 32 12 16 43 42 68 58 l46 29 3 -26 c2 -15 1 -33 -2 -41z m-46 -248 c-11 -55 -29 -79 -66 -90 -28 -9 -54 17 -54 53 0 30 32 65 90 100 43 26 47 17 30 -63z"/>
<path d="M10146 4523 c-9 -10 -86 -173 -86 -184 0 -5 6 -9 14 -9 8 0 16 -5 18 -10 2 -8 19 -8 53 -1 28 6 76 13 108 17 75 7 77 29 4 82 -60 45 -73 60 -78 86 -4 21 -21 31 -33 19z m112 -154 c2 -5 -12 -9 -31 -9 -19 0 -55 -3 -81 -6 l-47 -7 27 56 27 55 51 -40 c28 -22 53 -44 54 -49z"/>
<path d="M8856 4490 c-43 -38 -57 -87 -30 -107 10 -7 35 -13 56 -13 56 0 48 -21 -26 -69 -80 -52 -136 -114 -136 -153 0 -96 155 -89 212 8 10 18 21 62 25 100 3 38 10 75 16 82 7 9 7 16 0 20 -16 11 -22 61 -8 72 19 16 27 60 14 76 -21 26 -85 17 -123 -16z m90 -22 c-4 -13 -8 -29 -10 -36 -6 -33 -86 -46 -86 -15 0 26 50 73 78 73 21 0 23 -4 18 -22z m-26 -210 c-1 -92 -55 -154 -126 -146 -42 5 -46 50 -7 90 30 33 113 97 126 98 4 0 7 -19 7 -42z"/>
<path d="M3576 4423 c-10 -49 -21 -98 -23 -110 -9 -41 22 -25 60 30 43 62 104 123 114 114 3 -4 -1 -31 -10 -61 -31 -97 -19 -100 67 -18 34 32 71 64 84 71 19 10 22 9 22 -7 0 -10 -9 -45 -20 -77 -11 -32 -20 -66 -20 -77 0 -20 29 -25 34 -5 2 6 11 35 20 62 21 65 21 134 0 142 -18 7 -65 -15 -111 -53 l-33 -27 0 42 c0 66 -37 65 -107 -2 l-33 -31 0 47 c0 79 -23 58 -44 -40z"/>
<path d="M6433 4495 c-81 -35 -66 -125 21 -125 34 0 37 -2 30 -22 -3 -13 -7 -23 -8 -24 0 0 -27 -11 -60 -24 -68 -27 -114 -63 -127 -99 -23 -60 23 -151 84 -167 72 -18 109 26 127 149 17 126 15 121 61 137 24 8 45 21 47 29 5 14 2 14 -65 -5 -19 -5 -22 -2 -20 22 2 28 0 29 -50 32 -49 3 -53 5 -53 27 0 28 41 60 65 51 8 -3 15 -17 15 -31 0 -16 6 -25 15 -25 10 0 15 11 15 35 0 29 -5 37 -26 45 -31 12 -32 12 -71 -5z m41 -247 c-25 -184 -58 -226 -125 -159 -40 40 -41 96 -1 134 24 23 105 66 125 67 4 0 5 -19 1 -42z"/>
<path d="M9867 4503 c-4 -3 -7 -17 -7 -29 0 -19 -6 -23 -35 -26 -41 -4 -48 -22 -9 -26 28 -4 28 -9 8 -81 -6 -19 -3 -22 12 -19 12 2 23 20 33 51 14 45 16 47 53 47 47 0 50 17 3 26 -31 6 -34 8 -28 35 4 21 2 29 -9 29 -8 0 -18 -3 -21 -7z"/>
<path d="M7177 4468 c-9 -5 -9 -10 -1 -18 15 -15 336 -9 341 7 3 9 -38 13 -162 15 -92 2 -172 0 -178 -4z"/>
<path d="M5615 4438 c-93 -9 -127 -19 -113 -34 10 -9 328 20 331 31 3 13 -95 15 -218 3z"/>
<path d="M7993 4443 c-87 -3 -103 -6 -103 -20 0 -14 17 -15 162 -9 89 4 164 9 167 11 18 19 -51 24 -226 18z"/>
<path d="M3077 4411 c-21 -3 -37 -10 -37 -16 0 -9 329 -8 339 0 1 2 0 8 -4 14 -7 12 -230 13 -298 2z"/>
<path d="M7190 4364 c0 -20 47 -25 164 -19 161 8 216 15 216 26 0 7 -69 9 -190 7 -134 -2 -190 -6 -190 -14z"/>
<path d="M5584 4345 c-21 -16 -14 -19 38 -15 39 2 68 -9 68 -26 0 -13 -33 -32 -114 -63 -50 -20 -15 -32 84 -29 64 2 95 7 98 16 2 8 -10 12 -45 12 l-48 0 33 20 c47 29 42 69 -11 89 -39 15 -80 14 -103 -4z"/>
<path d="M7990 4335 c0 -11 11 -15 41 -15 36 0 40 -2 37 -22 -2 -16 -20 -31 -65 -53 -91 -44 -83 -55 41 -55 57 0 111 3 120 6 36 14 12 24 -54 24 l-71 0 36 31 c38 34 44 59 19 83 -21 22 -104 22 -104 1z"/>
<path d="M3090 4301 c0 -12 26 -21 60 -21 15 0 33 -7 40 -15 18 -22 -3 -43 -78 -77 -37 -17 -62 -34 -59 -41 4 -13 189 -23 216 -11 23 10 -20 22 -84 23 l-50 2 30 16 c43 22 75 54 75 74 0 31 -48 59 -101 59 -27 0 -49 -4 -49 -9z"/>
<path d="M6246 3708 c-20 -97 -33 -144 -58 -218 -17 -47 -34 -89 -39 -95 -14 -15 -10 -35 7 -35 9 0 25 11 35 24 21 27 71 60 107 71 22 6 23 5 16 -44 -5 -41 -4 -52 10 -57 16 -6 175 12 185 22 9 8 -22 24 -39 20 -8 -3 -40 -7 -72 -11 l-56 -6 10 40 c17 67 -14 87 -89 56 -20 -8 -37 -14 -39 -12 -2 1 8 40 21 86 14 46 28 106 31 132 6 41 4 49 -10 49 -8 0 -18 -10 -20 -22z"/>
<path d="M4616 3628 c-8 -13 -22 -50 -31 -83 -9 -33 -20 -69 -24 -80 -13 -32 -41 -151 -41 -174 0 -12 6 -21 14 -21 9 0 20 24 30 68 10 37 20 72 24 78 4 6 32 14 63 17 l56 5 -8 -41 c-13 -67 -11 -107 6 -107 9 0 16 14 20 38 17 100 14 88 50 215 9 32 14 61 11 64 -14 15 -34 -11 -51 -67 -20 -67 -36 -80 -101 -80 -29 0 -34 3 -30 18 3 9 10 37 16 62 6 25 18 55 26 68 15 22 12 42 -6 42 -5 0 -16 -10 -24 -22z"/>
<path d="M4205 3610 c-4 -6 -5 -14 -2 -16 3 -3 -10 -40 -28 -82 -36 -88 -71 -209 -62 -218 14 -14 35 7 41 42 4 20 22 76 39 123 l32 86 7 -69 c10 -103 45 -124 88 -54 l20 33 -2 -90 c-3 -78 -1 -90 15 -93 15 -3 17 5 17 60 1 35 7 92 15 128 19 84 19 120 1 120 -8 0 -17 -8 -21 -17 -10 -29 -79 -133 -87 -133 -5 0 -8 30 -9 68 -1 88 -10 116 -36 120 -12 2 -24 -2 -28 -8z m142 -152 c-3 -8 -6 -5 -6 6 -1 11 2 17 5 13 3 -3 4 -12 1 -19z"/>
<path d="M5466 3488 c-29 -45 -77 -161 -72 -174 9 -24 22 -15 59 40 38 56 102 114 115 102 4 -4 -6 -30 -21 -59 -36 -67 -21 -88 26 -36 38 43 92 84 126 94 22 7 23 5 17 -21 -4 -16 -16 -48 -28 -72 -11 -24 -18 -46 -15 -49 24 -23 81 75 75 130 -6 55 -36 55 -140 -1 -3 -2 -8 7 -10 20 -4 32 -37 34 -81 4 -42 -28 -43 -27 -22 14 14 27 14 30 0 30 -8 0 -21 -10 -29 -22z"/>
<path d="M5901 3425 c-54 -93 -56 -109 -16 -111 41 -1 174 38 179 53 3 7 -14 26 -38 42 -30 21 -45 40 -49 61 -4 16 -13 30 -20 30 -7 0 -33 -34 -56 -75z m60 -67 c-31 -10 -57 -18 -58 -18 -2 0 7 20 19 44 l21 44 37 -27 37 -26 -56 -17z"/>
<path d="M4982 3478 c6 -16 90 -22 176 -13 103 11 70 25 -59 25 -92 0 -120 -3 -117 -12z"/>
<path d="M4983 3388 c3 -10 36 -13 122 -13 86 0 119 3 123 13 3 9 -26 12 -123 12 -97 0 -126 -3 -122 -12z"/>
<path d="M6265 2638 c-85 -246 -95 -288 -67 -288 5 0 26 53 48 118 l38 117 6 -53 c8 -79 42 -93 91 -40 34 38 34 39 13 -48 -10 -47 -12 -70 -5 -77 7 -7 14 -7 19 -2 14 16 65 252 58 264 -14 22 -36 10 -57 -31 -12 -24 -33 -58 -47 -77 -23 -29 -27 -31 -33 -15 -4 11 -8 40 -8 66 -1 25 -4 53 -7 62 -7 19 -43 21 -49 4z"/>
<path d="M4496 2558 c-2 -7 -13 -60 -26 -118 -12 -58 -35 -150 -51 -205 -33 -115 -34 -125 -15 -125 8 0 29 27 47 59 17 33 40 68 50 77 19 17 20 16 17 -52 -3 -69 -3 -69 27 -72 38 -4 111 19 105 33 -6 11 -6 11 -69 0 -41 -7 -43 -6 -36 14 10 34 8 102 -4 114 -8 8 -19 8 -42 0 -29 -11 -31 -11 -25 10 24 91 56 252 52 263 -7 17 -25 18 -30 2z"/>
<path d="M5608 2544 c-4 -3 -14 -46 -25 -96 -15 -75 -22 -92 -40 -101 -28 -12 -30 -27 -4 -27 18 0 18 -2 1 -85 -11 -53 -14 -88 -8 -91 17 -11 27 9 44 91 10 44 18 81 19 83 2 1 26 7 55 11 l52 8 -6 -36 c-19 -110 -19 -121 -2 -121 19 0 20 2 36 97 11 58 17 73 34 78 19 5 19 7 5 17 -14 10 -15 17 -3 61 7 28 18 55 23 60 16 16 13 37 -3 37 -22 0 -44 -37 -57 -97 -14 -59 -23 -68 -86 -76 -42 -5 -42 -5 -36 27 3 17 11 56 19 87 8 31 14 62 14 68 0 12 -22 15 -32 5z"/>
<path d="M4223 2402 c-14 -9 -90 -168 -95 -196 -4 -25 26 -34 107 -34 134 0 146 20 77 125 -74 112 -76 114 -89 105z m83 -160 c24 -32 7 -42 -74 -42 l-62 0 16 38 c9 20 23 54 32 74 l15 37 28 -42 c16 -23 36 -52 45 -65z"/>
<path d="M6973 2388 c2 -9 32 -13 102 -13 70 0 100 4 103 13 3 9 -22 12 -103 12 -81 0 -106 -3 -102 -12z"/>
<path d="M4982 2358 c8 -25 228 -22 228 2 0 6 -49 10 -116 10 -88 0 -115 -3 -112 -12z"/>
<path d="M5922 2348 c-16 -16 -15 -35 3 -42 25 -9 46 5 43 28 -3 24 -28 32 -46 14z"/>
<path d="M6123 2325 c10 -31 402 -32 402 -1 0 5 -89 10 -203 10 -131 1 -201 -2 -199 -9z"/>
<path d="M7003 2293 c-13 -2 -23 -11 -23 -18 0 -11 15 -13 73 -9 130 9 177 15 177 25 0 9 -183 11 -227 2z"/>
<path d="M5002 2278 c5 -15 188 -24 188 -10 0 12 -60 22 -133 22 -43 0 -58 -3 -55 -12z"/>
<path d="M6226 2190 c-4 -33 -14 -79 -21 -101 -26 -73 5 -83 36 -11 20 46 74 112 92 112 9 0 6 -34 -8 -77 -12 -38 17 -27 70 27 27 28 53 50 57 50 4 0 5 -19 2 -43 -10 -70 23 -90 108 -67 40 11 87 45 77 55 -4 3 -30 -3 -58 -15 -84 -33 -93 -29 -91 33 1 28 1 58 1 65 -2 20 -40 14 -75 -13 -34 -25 -34 -25 -39 -4 -5 19 -11 21 -43 16 -20 -3 -45 -14 -56 -24 -20 -18 -20 -17 -17 17 3 26 0 35 -12 38 -13 2 -18 -9 -23 -58z"/>
<path d="M6140 1569 c-46 -90 -56 -129 -33 -129 6 0 83 141 121 223 2 4 -5 7 -16 7 -15 0 -33 -24 -72 -101z"/>
<path d="M6278 1631 c-28 -23 -75 -151 -63 -171 25 -41 115 -29 171 23 70 64 48 152 -41 164 -31 4 -46 0 -67 -16z m94 -28 c43 -38 7 -108 -68 -133 -58 -20 -66 -2 -32 70 12 25 22 47 22 50 7 32 49 40 78 13z"/>
<path d="M5486 1448 c-53 -48 -85 -188 -50 -222 56 -57 192 41 210 151 5 36 3 45 -19 67 -35 35 -104 36 -141 4z m112 -20 c45 -45 -45 -188 -119 -188 -20 0 -21 4 -17 53 3 34 13 66 27 85 12 18 19 32 15 32 -3 0 -1 7 6 15 15 18 71 20 88 3z"/>
<path d="M5374 1428 c-40 -49 -89 -157 -76 -170 13 -13 46 -2 37 12 -7 11 27 81 61 127 13 17 24 36 24 42 0 24 -20 19 -46 -11z"/>
<path d="M6747 1431 c-62 -6 -78 -24 -25 -29 63 -5 211 13 216 26 4 13 -77 14 -191 3z"/>
<path d="M5804 1405 c-15 -11 -16 -15 -5 -29 15 -18 51 -5 51 18 0 20 -25 27 -46 11z"/>
<path d="M6216 1409 c-109 -8 -150 -19 -134 -34 6 -6 340 14 347 21 21 19 -62 25 -213 13z"/>
<path d="M4975 1403 c-36 -5 -54 -20 -34 -28 26 -9 202 9 207 23 3 9 -15 12 -70 11 -40 -1 -86 -4 -103 -6z"/>
<path d="M6292 1351 c-77 -5 -96 -10 -108 -26 -20 -27 -17 -79 5 -106 18 -22 22 -23 52 -12 42 16 54 7 33 -25 -39 -59 -104 -85 -104 -42 0 26 -27 26 -35 0 -10 -31 12 -50 58 -50 34 0 46 7 83 44 29 29 44 52 44 69 0 35 -31 52 -70 39 -34 -13 -40 -8 -40 34 0 39 10 44 103 45 82 1 119 9 125 27 2 8 -6 11 -25 10 -15 -1 -70 -4 -121 -7z"/>
<path d="M4986 1331 c-22 -3 -41 -12 -44 -20 -4 -11 11 -12 84 -6 96 8 99 8 89 24 -7 12 -63 12 -129 2z"/>
<path d="M6761 1331 c-25 -3 -46 -12 -49 -19 -3 -10 20 -12 115 -7 135 8 155 11 133 25 -16 10 -127 11 -199 1z"/>
<path d="M6259 497 c-27 -21 -59 -80 -59 -109 0 -19 8 -33 26 -44 38 -25 226 -8 272 25 18 12 32 18 32 13 0 -6 12 -13 27 -17 20 -5 42 2 85 24 32 16 58 25 58 20 0 -5 9 -18 20 -29 16 -16 33 -20 94 -20 70 0 136 14 136 29 0 4 -46 7 -102 7 l-103 -1 1 43 c1 33 -3 42 -16 42 -10 0 -24 -7 -31 -16 -16 -20 -109 -74 -128 -74 -13 0 -12 31 4 73 6 13 2 17 -14 17 -15 0 -25 -9 -33 -30 -10 -31 -79 -80 -112 -80 -10 0 -26 10 -35 22 -20 24 -41 17 -41 -13 0 -16 -7 -19 -44 -19 -61 0 -71 16 -43 70 23 45 47 64 47 36 0 -9 7 -16 16 -16 11 0 14 8 12 28 -2 20 -9 28 -28 29 -14 2 -32 -3 -41 -10z"/>
<path d="M5767 479 c-20 -12 -56 -83 -57 -111 0 -33 37 -58 85 -58 116 0 191 83 136 151 -15 19 -30 23 -82 26 -36 2 -72 -1 -82 -8z m137 -40 c42 -40 -27 -103 -107 -97 -34 2 -43 7 -45 25 -4 30 24 82 51 93 30 12 78 2 101 -21z"/>
<path d="M5493 463 c-33 -13 -6 -23 63 -23 96 0 94 -11 -12 -67 -105 -55 -104 -69 3 -65 95 4 135 13 141 31 3 9 -11 11 -59 6 l-64 -7 50 34 c54 36 65 57 40 82 -12 12 -34 16 -83 15 -37 0 -73 -3 -79 -6z"/>
<path d="M5047 431 c-38 -8 -54 -17 -45 -26 9 -9 243 10 243 20 0 12 -144 16 -198 6z"/>
<path d="M5093 373 c-65 -4 -83 -18 -38 -29 25 -6 163 2 198 12 9 3 17 10 17 15 0 9 -45 9 -177 2z"/>
</g><g transform="translate(1158.036775, 1095.8789955993843) scale(0.40808740102544044)"><g transform="translate(-57.706759,297.537395) scale(0.100000,-0.100000)" fill="#4444bb" stroke="none">
<path d="M750 2973 c-57 -10 -88 -25 -119 -57 -40 -41 -55 -100 -46 -179 6 -45 12 -61 32 -77 32 -25 35 -25 64 -1 22 17 24 26 21 89 -4 105 24 120 164 87 33 -7 119 -19 190 -25 88 -8 134 -16 144 -26 32 -32 8 -420 -28 -456 -18 -18 -126 -28 -289 -28 -185 0 -206 -4 -250 -52 -55 -58 -58 -82 -55 -363 1 -145 7 -274 13 -293 11 -34 51 -62 89 -62 12 0 35 14 52 31 l31 30 -6 238 c-3 130 -3 249 0 264 l5 27 112 0 c234 1 363 26 423 82 58 54 98 260 91 463 -4 122 -7 138 -34 191 -40 81 -79 100 -217 108 -174 10 -361 14 -387 9z" fill="#4444bb"/>
<path d="M3660 2971 c-42 -9 -83 -34 -103 -65 -39 -59 -50 -127 -54 -343 -5 -206 -5 -212 18 -252 28 -50 78 -86 143 -102 48 -12 257 -8 370 7 l49 7 -7 -104 c-4 -57 -11 -189 -16 -294 -9 -177 -9 -192 8 -214 35 -47 100 -46 136 2 22 29 27 86 42 452 7 191 0 235 -44 283 -45 48 -92 56 -241 38 -146 -18 -229 -20 -265 -6 l-26 10 0 162 c0 156 8 230 27 249 5 5 99 6 210 2 l201 -6 5 -50 c3 -39 11 -56 31 -74 34 -29 48 -29 80 0 24 20 26 30 28 113 4 147 -23 169 -218 179 -242 11 -340 13 -374 6z" fill="#4444bb"/>
<path d="M1565 2945 c-14 -13 -25 -32 -25 -42 0 -10 -1 -297 -3 -638 -2 -677 -3 -662 55 -694 33 -19 73 -7 101 31 18 24 20 51 29 300 5 150 10 278 12 283 2 6 37 8 97 3 52 -3 135 -7 186 -7 154 -2 161 -10 143 -176 -21 -189 -27 -310 -18 -343 12 -45 45 -72 86 -72 71 0 102 46 102 151 0 33 7 118 16 187 24 190 9 280 -58 349 -50 52 -112 67 -263 65 -71 -1 -164 -6 -205 -11 -41 -4 -78 -7 -81 -5 -4 2 -10 108 -13 236 -9 286 -17 352 -47 384 -31 33 -82 32 -114 -1z" fill="#4444bb"/>
<path d="M2542 2944 c-55 -38 -64 -109 -53 -419 6 -186 9 -215 28 -250 50 -95 116 -125 302 -135 75 -4 171 -5 215 -1 l78 7 -4 -178 c-2 -97 -7 -181 -11 -184 -4 -4 -42 1 -85 11 -104 26 -285 27 -363 3 -106 -33 -149 -107 -99 -170 26 -34 68 -41 132 -21 74 23 202 20 308 -7 182 -47 274 5 301 168 12 77 27 831 19 994 -7 152 -20 181 -86 186 -88 7 -103 -51 -104 -401 l0 -219 -201 4 c-197 3 -201 3 -220 27 -18 21 -19 42 -19 283 l0 260 -29 29 c-33 33 -74 38 -109 13z" fill="#4444bb"/>
<path d="M2374 1391 c-55 -34 -79 -78 -79 -147 0 -51 4 -66 27 -96 35 -45 102 -73 153 -64 78 15 146 111 131 188 -20 108 -145 172 -232 119z" fill="#4444bb"/>
<path d="M1853 999 c-39 -11 -66 -56 -61 -101 6 -59 69 -64 76 -6 4 30 34 38 145 38 l67 0 0 -110 c0 -135 -1 -136 -132 -126 -85 6 -89 6 -113 -18 -24 -25 -25 -28 -25 -179 0 -162 4 -177 47 -177 35 0 43 29 43 159 l0 121 73 0 c85 0 141 14 168 41 17 17 19 34 19 169 0 147 -1 152 -25 175 -23 24 -30 25 -137 24 -62 0 -128 -5 -145 -10z" fill="#4444bb"/>
<path d="M2985 1000 c-91 -16 -93 -18 -104 -58 -15 -51 -14 -537 0 -564 19 -36 69 -48 204 -48 121 0 127 1 151 25 l24 24 -2 292 -3 292 -26 19 c-31 23 -161 33 -244 18z m169 -86 c14 -5 16 -37 16 -250 l0 -245 -102 3 -103 3 0 240 0 240 40 6 c57 9 131 10 149 3z" fill="#4444bb"/>
<path d="M2351 971 c-24 -24 -29 -73 -37 -372 -6 -232 -6 -237 15 -258 23 -23 29 -25 51 -11 12 7 16 40 20 150 l5 141 35 -23 c19 -13 59 -55 88 -93 30 -39 78 -96 108 -128 47 -51 56 -57 74 -47 29 16 25 42 -15 92 -19 24 -62 78 -95 121 -61 77 -61 77 -33 77 15 0 46 9 69 19 56 26 67 57 62 179 -6 156 -27 172 -220 172 -93 0 -111 -3 -127 -19z m257 -74 c16 -13 17 -168 0 -185 -7 -7 -41 -12 -84 -12 -40 0 -84 -4 -98 -10 l-26 -10 0 120 0 119 98 -6 c53 -3 103 -10 110 -16z" fill="#4444bb"/>
</g>
</g>
</svg>
