<?xml version="1.0" encoding="UTF-8" standalone="no"?>
<svg
   version="1.0"
   width="692.58832pt"
   height="650pt"
   viewBox="0 0 692.58831 650"
   preserveAspectRatio="xMidYMid"
   id="svg177"
   sodipodi:docname="897t.svg"
   inkscape:version="1.3 (0e150ed, 2023-07-21)"
   xmlns:inkscape="http://www.inkscape.org/namespaces/inkscape"
   xmlns:sodipodi="http://sodipodi.sourceforge.net/DTD/sodipodi-0.dtd"
   xmlns="http://www.w3.org/2000/svg"
   xmlns:svg="http://www.w3.org/2000/svg">
  <defs
     id="defs177" />
  <sodipodi:namedview
     id="namedview177"
     pagecolor="#ffffff"
     bordercolor="#000000"
     borderopacity="0.25"
     inkscape:showpageshadow="2"
     inkscape:pageopacity="0.0"
     inkscape:pagecheckerboard="0"
     inkscape:deskcolor="#d1d1d1"
     inkscape:document-units="pt"
     inkscape:zoom="0.53747487"
     inkscape:cx="386.06456"
     inkscape:cy="457.69582"
     inkscape:window-width="1440"
     inkscape:window-height="847"
     inkscape:window-x="0"
     inkscape:window-y="25"
     inkscape:window-maximized="0"
     inkscape:current-layer="svg177" />
  <metadata
     id="metadata1">&#10;Created by potrace 1.16, written by Peter Selinger 2001-2019&#10;</metadata>
  <g
     transform="matrix(0.1,0,0,-0.1,-49.411706,743)"
     fill="#000000"
     stroke="none"
     id="g177">
    <path
       d="m 630,7410 c 0,-20 7,-20 331,-20 h 332 l -34,-23 c -81,-54 -139,-186 -124,-280 16,-98 85,-195 170,-239 91,-48 228,-32 317,37 47,35 108,135 108,177 0,13 5,29 12,36 9,9 609,12 2639,12 1445,0 2634,-3 2643,-6 9,-3 16,-13 16,-21 0,-11 7,-13 30,-8 30,6 30,6 30,-34 0,-34 3,-41 20,-41 17,0 20,7 20,47 v 46 l 120,-120 120,-120 V 4224 c -1,-2188 -3,-2626 -14,-2611 -7,9 -21,17 -30,17 -9,0 -16,8 -16,18 0,26 -66,68 -84,53 -11,-9 -15,-7 -19,8 -3,13 -17,22 -41,26 -36,7 -36,7 -36,66 0,52 -2,59 -20,59 -18,0 -20,-7 -20,-59 0,-33 4,-62 10,-66 5,-3 7,-12 4,-19 -4,-10 9,-16 48,-21 29,-4 55,-11 58,-15 3,-4 25,-19 50,-32 25,-14 46,-30 48,-37 1,-6 14,-30 28,-53 24,-37 26,-47 21,-122 -2,-44 -8,-91 -12,-103 -6,-18 -3,-23 9,-23 14,0 16,-22 16,-190 0,-183 1,-190 20,-190 20,0 20,7 20,3250 V 7430 H 4025 c -3388,0 -3395,0 -3395,-20 z m 6332,-137 c 65,-65 118,-121 118,-125 0,-5 -1201,-8 -2670,-8 H 1740 l -6,28 c -19,86 -71,168 -128,203 -30,19 26,19 2604,19 h 2635 z"
       id="path354" />
    <path
       d="m 6958,7073 c -41,-16 -48,-30 -22,-40 20,-8 87,24 82,39 -6,18 -20,18 -60,1 z"
       id="path353" />
    <path
       d="m 6848,7033 c -41,-17 -51,-43 -18,-43 34,0 80,28 74,45 -7,18 -8,18 -56,-2 z"
       id="path352" />
    <path
       d="m 6738,6992 c -35,-14 -49,-34 -30,-45 12,-8 82,24 82,38 0,21 -12,23 -52,7 z"
       id="path351" />
    <path
       d="m 6618,6948 c -36,-13 -41,-53 -5,-42 53,16 67,24 67,39 0,17 -22,18 -62,3 z"
       id="path350" />
    <path
       d="m 6498,6907 c -28,-11 -37,-31 -19,-41 14,-9 86,20 86,35 0,18 -32,21 -67,6 z"
       id="path349" />
    <path
       d="m 7100,6849 c 0,-52 2,-60 18,-57 13,2 18,15 20,61 3,52 1,57 -18,57 -18,0 -20,-6 -20,-61 z"
       id="path348" />
    <path
       d="m 6393,6868 c -31,-10 -43,-31 -25,-42 5,-3 25,0 45,6 25,8 37,17 37,30 0,20 -10,21 -57,6 z"
       id="path347" />
    <path
       d="m 6283,6827 c -22,-6 -33,-16 -33,-28 0,-23 10,-24 56,-4 20,8 34,20 32,27 -6,16 -18,18 -55,5 z"
       id="path346" />
    <path
       d="m 6168,6783 c -38,-15 -46,-27 -29,-37 15,-10 86,18 86,33 0,21 -15,22 -57,4 z"
       id="path345" />
    <path
       d="m 6053,6744 c -32,-14 -46,-44 -20,-44 7,0 24,-25 36,-55 36,-86 153,-253 233,-333 189,-188 431,-304 693,-334 59,-7 103,-17 108,-24 4,-7 14,-11 22,-8 11,5 15,22 15,65 0,52 -2,59 -20,59 -16,0 -20,-7 -20,-35 0,-35 0,-35 -45,-35 -64,0 -228,34 -315,65 -279,101 -530,330 -646,592 -23,54 -23,55 -4,60 22,6 28,44 8,42 -7,0 -28,-7 -45,-15 z"
       id="path344" />
    <path
       d="m 5943,6704 c -18,-8 -33,-21 -33,-29 0,-18 2,-18 52,-3 25,7 38,17 36,26 -4,21 -18,23 -55,6 z"
       id="path343" />
    <path
       d="m 7107,6704 c -4,-4 -7,-34 -7,-66 0,-52 2,-58 20,-58 19,0 21,5 18,62 -3,57 -14,79 -31,62 z"
       id="path342" />
    <path
       d="m 5840,6665 c -35,-12 -55,-45 -27,-45 28,0 77,22 77,35 0,21 -12,23 -50,10 z"
       id="path341" />
    <path
       d="m 5730,6625 c -35,-12 -55,-45 -27,-45 28,0 77,22 77,35 0,21 -12,23 -50,10 z"
       id="path340" />
    <path
       d="m 5597,6578 c -18,-6 -27,-16 -25,-27 4,-17 27,-17 68,2 51,25 14,46 -43,25 z"
       id="path339" />
    <path
       d="m 1570,6548 c 0,-26 30,-253 45,-341 40,-237 80,-412 157,-683 14,-49 5,-82 -16,-65 -11,9 -24,9 -55,0 -23,-7 -41,-16 -41,-21 0,-4 -8,-8 -17,-8 -24,-1 -76,-47 -68,-61 4,-6 -2,-13 -12,-15 -25,-7 -56,-60 -50,-85 3,-10 -1,-22 -7,-27 -7,-4 -16,-26 -20,-49 -5,-34 -3,-44 11,-52 14,-7 15,-13 6,-21 -15,-16 1,-70 28,-92 11,-10 18,-21 15,-26 -8,-13 60,-75 74,-67 7,4 13,-1 17,-13 6,-26 55,-46 88,-38 14,4 25,2 25,-4 0,-5 22,-10 49,-10 36,0 51,4 55,16 4,12 10,13 19,6 17,-15 77,13 84,38 3,12 10,19 15,18 5,-2 39,-71 77,-153 121,-267 197,-405 392,-710 214,-334 450,-624 751,-922 557,-552 1152,-941 1878,-1228 425,-167 942,-302 1310,-341 102,-11 112,-18 57,-39 -43,-16 -62,-35 -37,-35 18,0 140,58 140,67 0,11 -122,94 -129,87 -6,-6 28,-37 58,-54 35,-19 -3,-17 -194,10 -329,47 -569,105 -912,219 -585,195 -1109,471 -1593,837 -682,516 -1231,1171 -1608,1919 -39,77 -91,186 -117,243 l -46,102 26,31 c 16,20 23,38 20,50 -4,13 -1,19 9,19 22,0 43,74 27,94 -9,11 -9,16 0,21 7,5 9,23 5,51 -6,43 -6,43 34,55 38,12 51,31 30,44 -5,3 -26,-1 -46,-10 -20,-8 -38,-14 -39,-13 -1,2 -12,20 -24,41 -14,22 -30,37 -42,37 -12,0 -19,7 -19,18 0,19 -72,67 -83,55 -4,-3 -15,1 -24,9 -10,9 -29,18 -42,20 -21,3 -27,14 -48,83 -75,255 -136,545 -174,835 -13,93 -27,170 -31,170 -4,0 -8,-6 -8,-12 z"
       id="path338" />
    <path
       d="m 5488,6537 c -28,-11 -37,-31 -19,-41 15,-9 81,23 81,39 0,17 -23,18 -62,2 z"
       id="path337" />
    <path
       d="m 5383,6497 c -32,-12 -38,-18 -31,-38 5,-15 82,15 86,34 4,19 -10,20 -55,4 z"
       id="path336" />
    <path
       d="m 7100,6430 c 0,-53 2,-60 20,-60 18,0 20,7 20,60 0,53 -2,60 -20,60 -18,0 -20,-7 -20,-60 z"
       id="path335" />
    <path
       d="m 5263,6455 c -34,-15 -43,-32 -20,-41 19,-7 89,25 84,39 -6,18 -28,18 -64,2 z"
       id="path334" />
    <path
       d="m 5153,6414 c -32,-13 -46,-44 -21,-44 31,0 78,25 78,42 0,21 -13,22 -57,2 z"
       id="path333" />
    <path
       d="m 5043,6374 c -33,-14 -46,-44 -19,-44 32,0 77,23 74,38 -4,21 -17,23 -55,6 z"
       id="path332" />
    <path
       d="m 4936,6336 c -42,-13 -57,-32 -33,-42 24,-9 88,22 81,40 -3,9 -7,16 -8,15 0,-1 -19,-7 -40,-13 z"
       id="path331" />
    <path
       d="m 4820,6296 c -35,-13 -55,-46 -27,-46 34,0 77,23 77,41 0,22 -2,22 -50,5 z"
       id="path330" />
    <path
       d="m 7100,6220 c 0,-53 2,-60 20,-60 18,0 20,7 20,60 0,53 -2,60 -20,60 -18,0 -20,-7 -20,-60 z"
       id="path329" />
    <path
       d="m 4713,6256 c -44,-15 -62,-33 -40,-42 22,-8 87,15 87,31 0,21 -12,24 -47,11 z"
       id="path328" />
    <path
       d="m 4578,6207 c -55,-22 -21,-46 37,-27 37,12 43,34 9,37 -10,1 -31,-4 -46,-10 z"
       id="path327" />
    <path
       d="m 4473,6168 c -30,-10 -41,-26 -27,-40 3,-4 25,0 49,9 31,10 42,19 38,29 -6,16 -15,16 -60,2 z"
       id="path326" />
    <path
       d="m 4358,6122 c -26,-12 -35,-21 -30,-30 11,-17 86,9 90,31 4,21 -13,21 -60,-1 z"
       id="path325" />
    <path
       d="m 4251,6086 c -36,-13 -49,-30 -33,-40 15,-9 87,19 87,34 0,19 -15,20 -54,6 z"
       id="path324" />
    <path
       d="m 4141,6046 c -38,-13 -51,-33 -29,-41 20,-8 90,23 86,37 -6,17 -19,18 -57,4 z"
       id="path323" />
    <path
       d="m 4030,6005 c -33,-11 -55,-45 -29,-45 26,0 79,24 79,36 0,20 -12,22 -50,9 z"
       id="path322" />
    <path
       d="m 3900,5959 c -33,-13 -35,-16 -21,-33 10,-12 17,-12 51,1 22,9 40,22 40,30 0,15 -34,16 -70,2 z"
       id="path321" />
    <path
       d="m 3788,5917 c -31,-12 -36,-25 -14,-33 19,-7 89,23 81,36 -8,12 -31,11 -67,-3 z"
       id="path320" />
    <path
       d="m 3688,5883 c -35,-14 -47,-31 -32,-45 6,-6 73,18 87,31 4,4 2,13 -5,18 -9,8 -24,7 -50,-4 z"
       id="path319" />
    <path
       d="m 3578,5842 c -26,-10 -38,-21 -38,-34 0,-15 4,-18 18,-13 9,4 29,12 45,17 25,9 36,32 20,41 -5,2 -25,-3 -45,-11 z"
       id="path318" />
    <path
       d="m 7100,5800 c 0,-53 2,-60 20,-60 18,0 20,7 20,60 0,53 -2,60 -20,60 -18,0 -20,-7 -20,-60 z"
       id="path317" />
    <path
       d="m 3453,5798 c -32,-11 -43,-31 -24,-43 14,-8 92,26 88,39 -5,15 -26,16 -64,4 z"
       id="path316" />
    <path
       d="m 3343,5754 c -33,-14 -41,-28 -24,-39 17,-10 90,25 84,41 -6,17 -18,17 -60,-2 z"
       id="path315" />
    <path
       d="m 3233,5715 c -31,-13 -46,-45 -23,-45 26,0 80,30 80,44 0,19 -15,20 -57,1 z"
       id="path314" />
    <path
       d="m 3123,5673 c -44,-15 -54,-29 -29,-39 17,-7 86,21 86,35 0,18 -14,19 -57,4 z"
       id="path313" />
    <path
       d="m 3008,5632 c -37,-14 -52,-42 -24,-42 27,0 76,22 76,35 0,21 -12,23 -52,7 z"
       id="path312" />
    <path
       d="m 7100,5584 c 0,-57 2,-65 18,-62 14,3 18,16 20,66 3,57 1,62 -18,62 -18,0 -20,-6 -20,-66 z"
       id="path311" />
    <path
       d="m 2888,5588 c -26,-9 -36,-27 -23,-40 10,-10 80,20 83,36 4,18 -18,20 -60,4 z"
       id="path310" />
    <path
       d="m 2773,5545 c -23,-10 -31,-19 -27,-29 3,-9 7,-16 8,-16 24,3 81,32 81,41 0,19 -25,21 -62,4 z"
       id="path309" />
    <path
       d="m 2663,5505 c -32,-13 -40,-25 -27,-37 3,-4 25,0 49,9 31,10 42,19 38,29 -6,17 -19,17 -60,-1 z"
       id="path308" />
    <path
       d="m 2541,5465 c -28,-13 -31,-18 -21,-30 11,-13 16,-13 47,0 20,8 37,15 39,15 2,0 4,7 4,15 0,19 -25,19 -69,0 z"
       id="path307" />
    <path
       d="m 2433,5425 c -23,-10 -31,-19 -27,-30 6,-16 16,-15 72,6 26,10 30,39 5,39 -10,-1 -33,-7 -50,-15 z"
       id="path306" />
    <path
       d="m 7102,5378 c 2,-48 7,-63 18,-63 12,0 15,13 15,60 0,50 -3,60 -18,63 -16,3 -18,-3 -15,-60 z"
       id="path305" />
    <path
       d="m 2322,5385 c -36,-16 -39,-41 -5,-38 41,4 73,22 67,38 -7,18 -19,18 -62,0 z"
       id="path304" />
    <path
       d="m 2220,5346 c -19,-7 -36,-20 -38,-29 -4,-20 -1,-20 49,-5 27,8 39,17 39,30 0,21 -3,21 -50,4 z"
       id="path303" />
    <path
       d="m 7100,5165 c 0,-58 2,-66 18,-63 14,3 17,14 17,63 0,49 -3,60 -17,63 -16,3 -18,-5 -18,-63 z"
       id="path302" />
    <path
       d="m 532,5095 c -40,-70 -45,-95 -21,-95 5,0 18,15 29,33 20,32 20,31 20,-1728 0,-1759 0,-1760 -20,-1727 -20,33 -34,40 -45,22 -11,-18 84,-170 106,-170 21,0 26,16 7,22 -7,3 3,29 27,72 29,52 35,70 26,79 -13,12 -16,9 -48,-40 -9,-14 -12,377 -12,1742 0,1386 2,1756 12,1743 7,-9 17,-25 23,-35 9,-14 15,-15 24,-6 10,9 3,28 -31,87 -24,42 -45,76 -48,76 -4,0 -25,-34 -49,-75 z"
       id="path301" />
    <path
       d="m 640,5160 c 0,-5 9,-10 20,-10 11,0 20,5 20,10 0,6 -9,10 -20,10 -11,0 -20,-4 -20,-10 z"
       id="path300" />
    <path
       d="m 710,5160 c 0,-5 9,-10 20,-10 11,0 20,5 20,10 0,6 -9,10 -20,10 -11,0 -20,-4 -20,-10 z"
       id="path299" />
    <path
       d="m 780,5160 c 0,-5 9,-10 20,-10 11,0 20,5 20,10 0,6 -9,10 -20,10 -11,0 -20,-4 -20,-10 z"
       id="path298" />
    <path
       d="m 850,5160 c 0,-5 9,-10 20,-10 11,0 20,5 20,10 0,6 -9,10 -20,10 -11,0 -20,-4 -20,-10 z"
       id="path297" />
    <path
       d="m 920,5160 c 0,-5 9,-10 20,-10 11,0 20,5 20,10 0,6 -9,10 -20,10 -11,0 -20,-4 -20,-10 z"
       id="path296" />
    <path
       d="m 990,5160 c 0,-5 9,-10 20,-10 11,0 20,5 20,10 0,6 -9,10 -20,10 -11,0 -20,-4 -20,-10 z"
       id="path295" />
    <path
       d="m 1060,5160 c 0,-5 9,-10 20,-10 11,0 20,5 20,10 0,6 -9,10 -20,10 -11,0 -20,-4 -20,-10 z"
       id="path294" />
    <path
       d="m 1130,5160 c 0,-5 9,-10 20,-10 11,0 20,5 20,10 0,6 -9,10 -20,10 -11,0 -20,-4 -20,-10 z"
       id="path293" />
    <path
       d="m 1200,5160 c 0,-5 9,-10 20,-10 11,0 20,5 20,10 0,6 -9,10 -20,10 -11,0 -20,-4 -20,-10 z"
       id="path292" />
    <path
       d="m 1270,5160 c 0,-5 9,-10 20,-10 11,0 20,5 20,10 0,6 -9,10 -20,10 -11,0 -20,-4 -20,-10 z"
       id="path291" />
    <path
       d="m 1340,5160 c 0,-5 9,-10 20,-10 11,0 20,5 20,10 0,6 -9,10 -20,10 -11,0 -20,-4 -20,-10 z"
       id="path290" />
    <path
       d="m 1410,5160 c 0,-5 9,-10 20,-10 11,0 20,5 20,10 0,6 -9,10 -20,10 -11,0 -20,-4 -20,-10 z"
       id="path289" />
    <path
       d="m 7100,4955 c 0,-58 2,-66 18,-63 14,3 17,14 17,63 0,49 -3,60 -17,63 -16,3 -18,-5 -18,-63 z"
       id="path288" />
    <path
       d="m 7102,4748 c 2,-48 7,-63 18,-63 12,0 15,13 15,60 0,50 -3,60 -18,63 -16,3 -18,-3 -15,-60 z"
       id="path287" />
    <path
       d="m 7102,4538 c 2,-48 7,-63 18,-63 12,0 15,13 15,60 0,50 -3,60 -18,63 -16,3 -18,-3 -15,-60 z"
       id="path286" />
    <path
       d="m 1847,4484 c -4,-42 -4,-80 -1,-85 11,-19 24,4 25,44 0,50 -7,59 103,-138 46,-82 96,-172 111,-200 37,-66 230,-356 302,-453 333,-453 773,-896 1208,-1220 163,-122 413,-288 535,-357 47,-26 121,-68 165,-93 124,-70 357,-185 496,-245 191,-83 633,-237 804,-280 19,-4 18,-5 -2,-6 -31,-1 -40,-21 -9,-21 13,0 26,6 29,13 4,9 7,9 18,0 7,-7 29,-13 49,-13 19,0 51,-5 70,-10 173,-51 773,-149 786,-128 8,12 -33,24 -106,32 -180,18 -574,92 -608,113 -13,8 -30,12 -38,9 -32,-12 -553,144 -789,237 -472,185 -956,451 -1338,737 -660,492 -1169,1057 -1574,1745 -98,166 -176,315 -170,322 3,3 16,-2 29,-11 25,-18 48,-21 48,-7 0,7 -124,91 -134,91 -2,0 -6,-34 -9,-76 z"
       id="path285" />
    <path
       d="m 7100,4325 c 0,-58 2,-66 18,-63 14,3 17,14 17,63 0,49 -3,60 -17,63 -16,3 -18,-5 -18,-63 z"
       id="path284" />
    <path
       d="m 7100,4115 c 0,-58 2,-66 18,-63 14,3 17,14 17,63 0,49 -3,60 -17,63 -16,3 -18,-5 -18,-63 z"
       id="path283" />
    <path
       d="m 7100,3905 c 0,-58 2,-66 18,-63 14,3 17,14 17,63 0,49 -3,60 -17,63 -16,3 -18,-5 -18,-63 z"
       id="path282" />
    <path
       d="m 7100,3696 c 0,-60 2,-66 20,-66 19,0 21,5 18,62 -2,50 -6,63 -20,66 -16,3 -18,-5 -18,-62 z"
       id="path281" />
    <path
       d="m 7100,3479 c 0,-52 2,-60 18,-57 13,2 18,15 20,61 3,52 1,57 -18,57 -18,0 -20,-6 -20,-61 z"
       id="path280" />
    <path
       d="m 7107,3334 c -4,-4 -7,-34 -7,-66 0,-52 2,-58 20,-58 19,0 21,5 18,62 -3,57 -14,79 -31,62 z"
       id="path279" />
    <path
       d="m 7100,3059 c 0,-52 2,-60 18,-57 13,2 18,15 20,61 3,52 1,57 -18,57 -18,0 -20,-6 -20,-61 z"
       id="path278" />
    <path
       d="m 7100,2850 c 0,-53 2,-60 20,-60 18,0 20,7 20,60 0,53 -2,60 -20,60 -18,0 -20,-7 -20,-60 z"
       id="path277" />
    <path
       d="m 7106,2703 c -3,-4 -6,-33 -6,-65 0,-51 2,-58 20,-58 18,0 20,7 20,59 0,41 -4,60 -14,64 -8,3 -17,3 -20,0 z"
       id="path276" />
    <path
       d="m 7100,2431 c 0,-55 2,-61 20,-61 19,0 21,5 18,57 -2,46 -7,59 -20,61 -16,3 -18,-5 -18,-57 z"
       id="path275" />
    <path
       d="m 7100,2220 c 0,-53 2,-60 20,-60 18,0 20,7 20,60 0,53 -2,60 -20,60 -18,0 -20,-7 -20,-60 z"
       id="path274" />
    <path
       d="m 7100,2010 c 0,-53 2,-60 20,-60 18,0 20,7 20,60 0,53 -2,60 -20,60 -18,0 -20,-7 -20,-60 z"
       id="path273" />
    <path
       d="m 7028,1729 c -17,-7 -28,-18 -28,-30 0,-22 9,-23 62,-7 26,8 38,16 36,27 -4,19 -33,23 -70,10 z"
       id="path272" />
    <path
       d="m 6932,1678 c -24,-17 -31,-28 -27,-45 4,-17 1,-20 -14,-16 -15,4 -25,-5 -41,-36 -11,-23 -18,-46 -15,-51 13,-21 31,-8 54,36 14,25 42,57 63,72 36,25 46,51 23,59 -6,2 -25,-7 -43,-19 z"
       id="path271" />
    <path
       d="m 6819,1483 c -10,-28 -6,-82 12,-140 7,-22 17,-33 30,-33 22,0 23,5 7,65 -11,39 -10,48 2,56 11,8 12,12 3,16 -7,2 -13,18 -13,34 0,38 -27,39 -41,2 z"
       id="path270" />
    <path
       d="m 650,1440 c 0,-5 9,-10 20,-10 11,0 20,5 20,10 0,6 -9,10 -20,10 -11,0 -20,-4 -20,-10 z"
       id="path269" />
    <path
       d="m 720,1440 c 0,-5 9,-10 20,-10 11,0 20,5 20,10 0,6 -9,10 -20,10 -11,0 -20,-4 -20,-10 z"
       id="path268" />
    <path
       d="m 795,1440 c -3,-5 3,-10 14,-10 12,0 21,5 21,10 0,6 -6,10 -14,10 -8,0 -18,-4 -21,-10 z"
       id="path267" />
    <path
       d="m 860,1440 c 0,-5 9,-10 20,-10 11,0 20,5 20,10 0,6 -9,10 -20,10 -11,0 -20,-4 -20,-10 z"
       id="path266" />
    <path
       d="m 930,1440 c 0,-5 9,-10 20,-10 11,0 20,5 20,10 0,6 -9,10 -20,10 -11,0 -20,-4 -20,-10 z"
       id="path265" />
    <path
       d="m 1000,1440 c 0,-5 9,-10 20,-10 11,0 20,5 20,10 0,6 -9,10 -20,10 -11,0 -20,-4 -20,-10 z"
       id="path264" />
    <path
       d="m 1070,1440 c 0,-5 12,-10 26,-10 14,0 23,4 19,10 -3,6 -15,10 -26,10 -10,0 -19,-4 -19,-10 z"
       id="path263" />
    <path
       d="m 1140,1440 c 0,-5 12,-10 26,-10 14,0 23,4 19,10 -3,6 -15,10 -26,10 -10,0 -19,-4 -19,-10 z"
       id="path262" />
    <path
       d="m 1215,1440 c -3,-5 3,-10 14,-10 12,0 21,5 21,10 0,6 -6,10 -14,10 -8,0 -18,-4 -21,-10 z"
       id="path261" />
    <path
       d="m 1280,1440 c 0,-5 9,-10 20,-10 11,0 20,5 20,10 0,6 -9,10 -20,10 -11,0 -20,-4 -20,-10 z"
       id="path260" />
    <path
       d="m 1355,1440 c -4,-6 5,-10 20,-10 15,0 24,4 20,10 -3,6 -12,10 -20,10 -8,0 -17,-4 -20,-10 z"
       id="path259" />
    <path
       d="m 1425,1440 c -4,-6 5,-10 20,-10 15,0 24,4 20,10 -3,6 -12,10 -20,10 -8,0 -17,-4 -20,-10 z"
       id="path258" />
    <path
       d="m 1490,1440 c 0,-5 12,-10 26,-10 14,0 23,4 19,10 -3,6 -15,10 -26,10 -10,0 -19,-4 -19,-10 z"
       id="path257" />
    <path
       d="m 1565,1440 c -4,-6 5,-10 20,-10 15,0 24,4 20,10 -3,6 -12,10 -20,10 -8,0 -17,-4 -20,-10 z"
       id="path256" />
    <path
       d="m 1635,1440 c -4,-6 5,-10 20,-10 15,0 24,4 20,10 -3,6 -12,10 -20,10 -8,0 -17,-4 -20,-10 z"
       id="path255" />
    <path
       d="m 1705,1440 c -4,-6 5,-10 20,-10 15,0 24,4 20,10 -3,6 -12,10 -20,10 -8,0 -17,-4 -20,-10 z"
       id="path254" />
    <path
       d="m 1775,1440 c -4,-6 5,-10 20,-10 15,0 24,4 20,10 -3,6 -12,10 -20,10 -8,0 -17,-4 -20,-10 z"
       id="path253" />
    <path
       d="m 1845,1440 c -4,-6 5,-10 20,-10 15,0 24,4 20,10 -3,6 -12,10 -20,10 -8,0 -17,-4 -20,-10 z"
       id="path252" />
    <path
       d="m 1915,1440 c -4,-6 5,-10 20,-10 15,0 24,4 20,10 -3,6 -12,10 -20,10 -8,0 -17,-4 -20,-10 z"
       id="path251" />
    <path
       d="m 1990,1440 c 0,-5 9,-10 21,-10 11,0 17,5 14,10 -3,6 -13,10 -21,10 -8,0 -14,-4 -14,-10 z"
       id="path250" />
    <path
       d="m 2055,1440 c -4,-6 5,-10 20,-10 15,0 24,4 20,10 -3,6 -12,10 -20,10 -8,0 -17,-4 -20,-10 z"
       id="path249" />
    <path
       d="m 2125,1440 c -4,-6 5,-10 20,-10 15,0 24,4 20,10 -3,6 -12,10 -20,10 -8,0 -17,-4 -20,-10 z"
       id="path248" />
    <path
       d="m 2195,1440 c -4,-6 5,-10 20,-10 15,0 24,4 20,10 -3,6 -12,10 -20,10 -8,0 -17,-4 -20,-10 z"
       id="path247" />
    <path
       d="m 2265,1440 c -4,-6 5,-10 20,-10 15,0 24,4 20,10 -3,6 -12,10 -20,10 -8,0 -17,-4 -20,-10 z"
       id="path246" />
    <path
       d="m 2335,1440 c -4,-6 5,-10 20,-10 15,0 24,4 20,10 -3,6 -12,10 -20,10 -8,0 -17,-4 -20,-10 z"
       id="path245" />
    <path
       d="m 2410,1440 c 0,-5 9,-10 20,-10 11,0 20,5 20,10 0,6 -9,10 -20,10 -11,0 -20,-4 -20,-10 z"
       id="path244" />
    <path
       d="m 2480,1440 c 0,-5 9,-10 21,-10 11,0 17,5 14,10 -3,6 -13,10 -21,10 -8,0 -14,-4 -14,-10 z"
       id="path243" />
    <path
       d="m 2550,1440 c 0,-5 9,-10 21,-10 11,0 17,5 14,10 -3,6 -13,10 -21,10 -8,0 -14,-4 -14,-10 z"
       id="path242" />
    <path
       d="m 2615,1440 c -4,-6 5,-10 20,-10 15,0 24,4 20,10 -3,6 -12,10 -20,10 -8,0 -17,-4 -20,-10 z"
       id="path241" />
    <path
       d="m 2685,1440 c -4,-6 5,-10 19,-10 14,0 26,5 26,10 0,6 -9,10 -19,10 -11,0 -23,-4 -26,-10 z"
       id="path240" />
    <path
       d="m 2760,1440 c 0,-5 9,-10 20,-10 11,0 20,5 20,10 0,6 -9,10 -20,10 -11,0 -20,-4 -20,-10 z"
       id="path239" />
    <path
       d="m 2830,1440 c 0,-5 9,-10 20,-10 11,0 20,5 20,10 0,6 -9,10 -20,10 -11,0 -20,-4 -20,-10 z"
       id="path238" />
    <path
       d="m 2900,1440 c 0,-5 9,-10 20,-10 11,0 20,5 20,10 0,6 -9,10 -20,10 -11,0 -20,-4 -20,-10 z"
       id="path237" />
    <path
       d="m 2970,1440 c 0,-5 9,-10 21,-10 11,0 17,5 14,10 -3,6 -13,10 -21,10 -8,0 -14,-4 -14,-10 z"
       id="path236" />
    <path
       d="m 3040,1440 c 0,-5 9,-10 20,-10 11,0 20,5 20,10 0,6 -9,10 -20,10 -11,0 -20,-4 -20,-10 z"
       id="path235" />
    <path
       d="m 3110,1440 c 0,-5 9,-10 20,-10 11,0 20,5 20,10 0,6 -9,10 -20,10 -11,0 -20,-4 -20,-10 z"
       id="path234" />
    <path
       d="m 3180,1440 c 0,-5 9,-10 20,-10 11,0 20,5 20,10 0,6 -9,10 -20,10 -11,0 -20,-4 -20,-10 z"
       id="path233" />
    <path
       d="m 3250,1440 c 0,-5 9,-10 20,-10 11,0 20,5 20,10 0,6 -9,10 -20,10 -11,0 -20,-4 -20,-10 z"
       id="path232" />
    <path
       d="m 3320,1440 c 0,-5 9,-10 20,-10 11,0 20,5 20,10 0,6 -9,10 -20,10 -11,0 -20,-4 -20,-10 z"
       id="path231" />
    <path
       d="m 3390,1440 c 0,-5 9,-10 20,-10 11,0 20,5 20,10 0,6 -9,10 -20,10 -11,0 -20,-4 -20,-10 z"
       id="path230" />
    <path
       d="m 3460,1440 c 0,-5 9,-10 20,-10 11,0 20,5 20,10 0,6 -9,10 -20,10 -11,0 -20,-4 -20,-10 z"
       id="path229" />
    <path
       d="m 3530,1440 c 0,-5 9,-10 20,-10 11,0 20,5 20,10 0,6 -9,10 -20,10 -11,0 -20,-4 -20,-10 z"
       id="path228" />
    <path
       d="m 3600,1440 c 0,-5 9,-10 20,-10 11,0 20,5 20,10 0,6 -9,10 -20,10 -11,0 -20,-4 -20,-10 z"
       id="path227" />
    <path
       d="m 3670,1440 c 0,-5 9,-10 20,-10 11,0 20,5 20,10 0,6 -9,10 -20,10 -11,0 -20,-4 -20,-10 z"
       id="path226" />
    <path
       d="m 3740,1440 c 0,-5 9,-10 20,-10 11,0 20,5 20,10 0,6 -9,10 -20,10 -11,0 -20,-4 -20,-10 z"
       id="path225" />
    <path
       d="m 3810,1440 c 0,-5 9,-10 20,-10 11,0 20,5 20,10 0,6 -9,10 -20,10 -11,0 -20,-4 -20,-10 z"
       id="path224" />
    <path
       d="m 3880,1440 c 0,-5 9,-10 20,-10 11,0 20,5 20,10 0,6 -9,10 -20,10 -11,0 -20,-4 -20,-10 z"
       id="path223" />
    <path
       d="m 3950,1440 c 0,-5 9,-10 20,-10 11,0 20,5 20,10 0,6 -9,10 -20,10 -11,0 -20,-4 -20,-10 z"
       id="path222" />
    <path
       d="m 4020,1440 c 0,-5 9,-10 20,-10 11,0 20,5 20,10 0,6 -9,10 -20,10 -11,0 -20,-4 -20,-10 z"
       id="path221" />
    <path
       d="m 4090,1440 c 0,-5 9,-10 20,-10 11,0 20,5 20,10 0,6 -9,10 -20,10 -11,0 -20,-4 -20,-10 z"
       id="path220" />
    <path
       d="m 4165,1440 c -3,-5 3,-10 14,-10 12,0 21,5 21,10 0,6 -6,10 -14,10 -8,0 -18,-4 -21,-10 z"
       id="path219" />
    <path
       d="m 4230,1440 c 0,-5 9,-10 20,-10 11,0 20,5 20,10 0,6 -9,10 -20,10 -11,0 -20,-4 -20,-10 z"
       id="path218" />
    <path
       d="m 4300,1440 c 0,-5 9,-10 20,-10 11,0 20,5 20,10 0,6 -9,10 -20,10 -11,0 -20,-4 -20,-10 z"
       id="path217" />
    <path
       d="m 4370,1440 c 0,-5 9,-10 20,-10 11,0 20,5 20,10 0,6 -9,10 -20,10 -11,0 -20,-4 -20,-10 z"
       id="path216" />
    <path
       d="m 4440,1440 c 0,-5 9,-10 20,-10 11,0 20,5 20,10 0,6 -9,10 -20,10 -11,0 -20,-4 -20,-10 z"
       id="path215" />
    <path
       d="m 4510,1440 c 0,-5 12,-10 26,-10 14,0 23,4 19,10 -3,6 -15,10 -26,10 -10,0 -19,-4 -19,-10 z"
       id="path214" />
    <path
       d="m 4585,1440 c -3,-5 3,-10 14,-10 12,0 21,5 21,10 0,6 -6,10 -14,10 -8,0 -18,-4 -21,-10 z"
       id="path213" />
    <path
       d="m 4650,1440 c 0,-5 9,-10 20,-10 11,0 20,5 20,10 0,6 -9,10 -20,10 -11,0 -20,-4 -20,-10 z"
       id="path212" />
    <path
       d="m 4720,1440 c 0,-5 9,-10 20,-10 11,0 20,5 20,10 0,6 -9,10 -20,10 -11,0 -20,-4 -20,-10 z"
       id="path211" />
    <path
       d="m 4790,1440 c 0,-5 9,-10 20,-10 11,0 20,5 20,10 0,6 -9,10 -20,10 -11,0 -20,-4 -20,-10 z"
       id="path210" />
    <path
       d="m 4860,1440 c 0,-5 9,-10 20,-10 11,0 20,5 20,10 0,6 -9,10 -20,10 -11,0 -20,-4 -20,-10 z"
       id="path209" />
    <path
       d="m 4930,1440 c 0,-5 12,-10 26,-10 14,0 23,4 19,10 -3,6 -15,10 -26,10 -10,0 -19,-4 -19,-10 z"
       id="path208" />
    <path
       d="m 5005,1440 c -4,-6 5,-10 19,-10 14,0 26,5 26,10 0,6 -9,10 -19,10 -11,0 -23,-4 -26,-10 z"
       id="path207" />
    <path
       d="m 5070,1440 c 0,-5 12,-10 26,-10 14,0 23,4 19,10 -3,6 -15,10 -26,10 -10,0 -19,-4 -19,-10 z"
       id="path206" />
    <path
       d="m 5140,1440 c 0,-5 12,-10 26,-10 14,0 23,4 19,10 -3,6 -15,10 -26,10 -10,0 -19,-4 -19,-10 z"
       id="path205" />
    <path
       d="m 5215,1440 c -4,-6 5,-10 20,-10 15,0 24,4 20,10 -3,6 -12,10 -20,10 -8,0 -17,-4 -20,-10 z"
       id="path204" />
    <path
       d="m 5290,1440 c 0,-5 9,-10 21,-10 11,0 17,5 14,10 -3,6 -13,10 -21,10 -8,0 -14,-4 -14,-10 z"
       id="path203" />
    <path
       d="m 5360,1440 c 0,-5 9,-10 20,-10 11,0 20,5 20,10 0,6 -9,10 -20,10 -11,0 -20,-4 -20,-10 z"
       id="path202" />
    <path
       d="m 5430,1440 c 0,-5 9,-10 20,-10 11,0 20,5 20,10 0,6 -9,10 -20,10 -11,0 -20,-4 -20,-10 z"
       id="path201" />
    <path
       d="m 5490,1440 c 0,-5 12,-10 26,-10 14,0 23,4 19,10 -3,6 -15,10 -26,10 -10,0 -19,-4 -19,-10 z"
       id="path200" />
    <path
       d="m 5850,1440 c 0,-5 9,-10 20,-10 11,0 20,5 20,10 0,6 -9,10 -20,10 -11,0 -20,-4 -20,-10 z"
       id="path199" />
    <path
       d="m 5920,1440 c 0,-5 7,-10 15,-10 8,0 15,5 15,10 0,6 -7,10 -15,10 -8,0 -15,-4 -15,-10 z"
       id="path198" />
    <path
       d="m 5980,1440 c 0,-5 9,-10 20,-10 11,0 20,5 20,10 0,6 -9,10 -20,10 -11,0 -20,-4 -20,-10 z"
       id="path197" />
    <path
       d="m 6050,1440 c 0,-5 9,-10 20,-10 11,0 20,5 20,10 0,6 -9,10 -20,10 -11,0 -20,-4 -20,-10 z"
       id="path196" />
    <path
       d="m 6120,1440 c 0,-5 12,-10 26,-10 14,0 23,4 19,10 -3,6 -15,10 -26,10 -10,0 -19,-4 -19,-10 z"
       id="path195" />
    <path
       d="m 6190,1440 c 0,-5 12,-10 26,-10 14,0 23,4 19,10 -3,6 -15,10 -26,10 -10,0 -19,-4 -19,-10 z"
       id="path194" />
    <path
       d="m 6265,1440 c -4,-6 5,-10 19,-10 14,0 26,5 26,10 0,6 -9,10 -19,10 -11,0 -23,-4 -26,-10 z"
       id="path193" />
    <path
       d="m 6330,1440 c 0,-5 9,-10 20,-10 11,0 20,5 20,10 0,6 -9,10 -20,10 -11,0 -20,-4 -20,-10 z"
       id="path192" />
    <path
       d="m 6405,1440 c -3,-5 3,-10 14,-10 12,0 21,5 21,10 0,6 -6,10 -14,10 -8,0 -18,-4 -21,-10 z"
       id="path191" />
    <path
       d="m 6475,1440 c -4,-6 5,-10 20,-10 15,0 24,4 20,10 -3,6 -12,10 -20,10 -8,0 -17,-4 -20,-10 z"
       id="path190" />
    <path
       d="m 6545,1440 c -4,-6 5,-10 20,-10 15,0 24,4 20,10 -3,6 -12,10 -20,10 -8,0 -17,-4 -20,-10 z"
       id="path189" />
    <path
       d="m 6615,1440 c -4,-6 5,-10 19,-10 14,0 26,5 26,10 0,6 -9,10 -19,10 -11,0 -23,-4 -26,-10 z"
       id="path188" />
    <path
       d="m 6685,1440 c -4,-6 5,-10 19,-10 14,0 26,5 26,10 0,6 -9,10 -19,10 -11,0 -23,-4 -26,-10 z"
       id="path187" />
    <path
       d="m 6760,1440 c 0,-5 9,-10 20,-10 11,0 20,5 20,10 0,6 -9,10 -20,10 -11,0 -20,-4 -20,-10 z"
       id="path186" />
    <path
       d="m 6893,1438 c 2,-7 12,-13 22,-13 10,0 20,6 23,13 2,7 -6,12 -23,12 -17,0 -25,-5 -22,-12 z"
       id="path185" />
    <path
       d="m 6962,1438 c 7,-20 48,-23 48,-4 0,11 -9,16 -26,16 -16,0 -24,-5 -22,-12 z"
       id="path184" />
    <path
       d="m 7030,1441 c 0,-16 19,-23 40,-16 30,10 24,25 -10,25 -16,0 -30,-4 -30,-9 z"
       id="path183" />
    <path
       d="m 7100,1440 c 0,-5 7,-10 15,-10 8,0 15,5 15,10 0,6 -7,10 -15,10 -8,0 -15,-4 -15,-10 z"
       id="path182" />
    <path
       d="m 6867,1287 c -6,-17 40,-77 59,-77 27,0 26,28 -2,59 -29,33 -49,39 -57,18 z"
       id="path181" />
    <path
       d="m 7307,1265 c -28,-35 -29,-55 -2,-55 20,0 65,58 59,75 -10,24 -27,18 -57,-20 z"
       id="path180" />
    <path
       d="m 6955,1210 c -3,-5 -3,-15 1,-21 9,-16 73,-41 84,-34 21,13 9,35 -26,50 -43,18 -51,18 -59,5 z"
       id="path179" />
    <path
       d="m 7206,1200 c -25,-13 -60,-20 -93,-20 -29,0 -53,-2 -53,-4 0,-2 3,-11 6,-20 8,-22 92,-22 100,-1 5,12 9,13 20,4 20,-16 96,17 92,40 -5,23 -28,23 -72,1 z"
       id="path178" />
  </g>
  <path
     d="m 561.28286,190.85408 c 2.94,0 4.62,-1.26 5.6,-3.22 1.33,-2.8 1.47,-7.07 1.89,-11.55 12.6,-1.12 21.28,-9.03 21.28,-21.7 0,-7.63 -3.08,-11.62 -7.91,-11.62 -7.35,0 -12.32,8.75 -14.84,20.79 l -1.54,6.79 c -4.9,-0.28 -10.29,-2.45 -10.29,-9.17 0,-7.91 7.07,-12.46 13.93,-14 1.47,-0.42 2.31,-1.68 2.31,-3.85 0,-0.91 -0.28,-1.68 -0.7,-1.96 -13.93,1.68 -18.48,11.83 -18.48,21.63 0,6.86 3.5,12.6 11.55,13.16 l -3.85,14.49 z m 8.54,-20.65 1.54,-7.63 c 1.19,-6.37 3.99,-13.72 9.94,-13.72 3.15,0 5.32,1.89 5.32,6.72 0,8.89 -6.09,13.86 -16.8,14.63 z"
     id="path355"
     style="font-style:italic;font-size:70px;font-family:'STIX Two Text';-inkscape-font-specification:'STIX Two Text, Italic';fill-rule:evenodd;stroke-width:0.45;stroke-linejoin:round;stroke-miterlimit:3.2;paint-order:stroke fill markers"
     aria-label="φ" />
  <path
     d="m 53.113295,438.02501 c 5.04,0 7.84,-4.9 9.66,-7.49 l -1.47,-1.05 c -1.05,1.33 -2.73,3.64 -5.25,3.64 -0.91,0 -1.33,-0.56 -1.33,-1.33 0,-0.84 0.28,-1.68 0.28,-1.68 l 3.92,-16.17 c 0.21,-0.98 0.63,-3.36 0.63,-5.18 0,-2.52 -1.05,-4.97 -4.55,-4.97 -8.05,0 -14.35,10.15 -17.22,15.4 h -0.56 l 1.75,-8.26 4.97,-22.96 h -1.61 l -9.59,0.77 v 1.82 c 0,0 1.47,-0.14 2.38,-0.14 1.4,0 2.24,0.77 2.24,1.82 0,1.05 -0.21,2.38 -0.21,2.38 l -8.75,42.7 h 5.74 l 2.45,-11.2 c 2.17,-4.9 9.94,-17.29 14.91,-17.29 1.54,0 2.03,1.19 2.03,2.8 0,1.4 -0.49,3.36 -0.49,3.36 l -4.13,16.17 c -0.14,0.35 -0.35,1.61 -0.35,2.73 0,2.1 1.05,4.13 4.55,4.13 z"
     id="path356"
     style="font-style:italic;font-size:70px;font-family:'STIX Two Text';-inkscape-font-specification:'STIX Two Text, Italic';fill-rule:evenodd;stroke-width:0.45;stroke-linejoin:round;stroke-miterlimit:3.2;paint-order:stroke fill markers"
     aria-label="h" />
</svg>
