<svg xmlns="http://www.w3.org/2000/svg" version="1.0" width="1256.000000pt" height="1357.699220pt" viewBox="0 0 1256.000000 1357.699220" preserveAspectRatio="xMidYMid meet">
<metadata>
Created by potrace 1.16, written by Peter Selinger 2001-2019
</metadata>
<g transform="translate(-39.000000,1412.000000) scale(0.100000,-0.100000)" fill="#000000" stroke="none">
<path d="M821 14076 c-10 -24 -22 -53 -25 -64 -6 -17 -19 -21 -76 -27 -52 -5 -70 -11 -70 -22 0 -12 10 -14 61 -8 56 7 61 6 57 -11 -2 -15 -13 -19 -46 -20 -23 -1 -45 -4 -49 -7 -6 -7 40 -27 62 -27 11 0 11 -7 4 -35 -11 -38 -6 -55 15 -55 7 0 17 19 22 43 8 39 11 42 46 45 l37 3 -14 -35 c-20 -47 -19 -68 2 -64 9 2 23 22 31 46 8 24 22 46 31 49 46 15 47 15 24 24 -22 8 -22 8 9 83 16 42 27 83 24 92 -9 25 -29 3 -50 -55 -14 -40 -23 -51 -40 -51 -44 0 -49 13 -26 69 19 50 19 71 0 71 -5 0 -18 -20 -29 -44z m57 -130 c11 -12 -13 -26 -43 -26 -29 0 -32 3 -28 21 5 17 11 20 36 15 17 -3 32 -8 35 -10z"/>
<path d="M1110 14033 c-26 -10 -60 -46 -60 -64 0 -10 12 -27 26 -38 l26 -21 -26 -31 c-31 -36 -33 -60 -8 -82 25 -23 107 -22 152 1 48 24 49 67 2 99 l-33 22 31 16 c17 9 28 20 25 25 -9 14 -26 12 -67 -8 -58 -30 -113 4 -67 41 20 16 33 18 76 13 42 -5 53 -3 53 8 0 22 -86 35 -130 19z m96 -167 l28 -23 -31 -17 c-41 -21 -102 -21 -110 0 -8 20 35 64 63 64 13 0 35 -11 50 -24z"/>
<path d="M1685 14016 c-45 -20 -69 -52 -69 -94 -1 -20 -9 -48 -18 -62 -22 -30 -23 -73 -4 -93 12 -12 -41 -15 -382 -20 -219 -4 -493 -7 -609 -7 -125 0 -213 -4 -213 -9 0 -5 24 -12 53 -16 90 -10 2092 9 2092 20 0 18 -211 26 -519 22 -258 -4 -295 -3 -268 9 18 7 35 20 38 29 8 20 -20 51 -65 75 l-34 17 52 28 c47 26 64 54 29 47 -11 -2 -14 4 -10 24 8 42 -20 53 -73 30z m38 -46 c-4 -25 -60 -67 -72 -55 -10 10 23 59 49 72 29 15 29 14 23 -17z m-23 -130 c21 -11 41 -24 45 -30 9 -14 -42 -32 -84 -28 -29 2 -37 8 -39 26 -4 23 13 52 30 52 5 0 26 -9 48 -20z"/>
<path d="M1366 13994 c-52 -52 -26 -99 55 -99 27 0 49 -2 49 -5 0 -3 -17 -22 -37 -42 -45 -43 -90 -58 -99 -34 -9 23 -34 20 -34 -4 0 -31 41 -46 87 -31 76 23 133 97 133 172 0 57 -15 69 -83 69 -35 0 -50 -6 -71 -26z m118 -20 c3 -8 3 -26 0 -38 -4 -18 -11 -22 -32 -19 -79 12 -87 20 -55 55 20 23 78 24 87 2z"/>
<path d="M10504 13884 c-88 -46 -136 -155 -104 -238 14 -39 83 -69 142 -64 110 11 207 130 184 225 -4 14 -22 41 -40 59 -30 30 -38 33 -93 33 -33 0 -73 -7 -89 -15z m162 -49 c27 -34 30 -71 10 -118 -39 -91 -168 -135 -227 -76 -43 43 -10 159 58 205 23 15 46 21 83 20 45 -1 55 -5 76 -31z"/>
<path d="M8312 13814 c-18 -20 -32 -41 -32 -48 0 -23 13 -26 33 -9 19 18 19 17 12 -49 -7 -63 -6 -68 12 -68 17 0 21 9 26 58 4 31 9 78 13 105 6 42 5 47 -13 47 -11 0 -34 -16 -51 -36z"/>
<path d="M12787 13794 c-3 -3 -3 -12 0 -20 4 -11 14 -13 34 -9 15 4 36 2 45 -3 15 -8 9 -15 -34 -43 -83 -55 -79 -82 16 -92 31 -3 67 -9 80 -13 16 -5 22 -2 22 9 0 16 -44 33 -104 39 l-30 3 42 27 c57 38 68 62 42 88 -14 14 -33 20 -63 20 -24 0 -46 -3 -50 -6z"/>
<path d="M2596 13613 c-3 -21 -6 -249 -6 -508 0 -485 -6 -661 -40 -1140 -33 -470 -40 -625 -47 -1007 -6 -337 -5 -368 10 -368 9 0 19 10 21 23 3 12 7 184 10 382 5 367 11 494 46 990 33 461 40 666 40 1178 0 406 -2 487 -14 487 -8 0 -16 -15 -20 -37z"/>
<path d="M9671 13641 c-9 -6 -15 -42 -18 -114 l-6 -105 -191 4 c-105 2 -355 6 -556 9 -414 6 -490 11 -490 31 0 16 -50 44 -78 44 -27 0 -43 -23 -44 -61 -2 -53 52 -77 100 -43 19 13 41 14 173 5 83 -6 318 -11 522 -11 205 0 416 -3 470 -7 l97 -6 0 -114 c0 -92 3 -113 14 -113 8 0 17 4 20 8 6 10 11 470 5 476 -2 3 -11 1 -18 -3z"/>
<path d="M9915 13601 c-3 -6 -9 -86 -12 -178 -5 -142 -3 -174 11 -206 16 -39 45 -47 36 -11 -2 10 -4 104 -5 208 0 134 -3 190 -12 193 -6 2 -14 -1 -18 -6z"/>
<path d="M11595 13414 c-4 -102 -5 -188 -2 -191 4 -3 13 -3 22 0 12 5 15 24 15 87 l0 80 488 2 c556 3 657 2 728 -7 42 -6 52 -4 57 9 9 23 -1 42 -29 55 -36 16 -85 14 -107 -6 -17 -16 -65 -18 -578 -21 l-559 -4 0 91 c0 71 -3 91 -14 91 -11 0 -15 -38 -21 -186z"/>
<path d="M11390 13504 l0 -86 -322 6 c-336 5 -448 13 -485 34 -34 19 -72 14 -99 -13 l-26 -26 -254 7 c-223 6 -254 5 -254 -8 0 -13 37 -16 255 -22 239 -7 258 -9 289 -29 l33 -22 8 -172 c7 -159 3 -330 -11 -560 l-6 -93 -91 0 c-51 0 -109 -3 -130 -6 -91 -15 -13 -24 243 -28 151 -2 297 -7 324 -11 39 -6 48 -5 44 6 -7 21 -54 29 -206 36 l-144 6 9 176 c4 97 7 282 5 412 -3 226 -2 236 18 254 11 10 20 25 20 34 0 15 8 16 63 8 34 -4 209 -11 389 -13 l327 -6 3 -91 c2 -69 6 -92 16 -92 11 0 15 38 18 175 4 185 1 210 -22 210 -11 0 -14 -18 -14 -86z"/>
<path d="M655 13508 c-73 -40 -126 -131 -133 -229 -4 -61 -3 -67 19 -83 41 -29 179 -18 179 14 0 6 -21 8 -54 4 -66 -8 -103 0 -110 24 -9 27 21 132 50 175 31 46 78 77 121 77 40 0 53 -21 53 -85 0 -39 3 -46 18 -43 14 3 17 14 17 62 -1 49 -4 61 -24 77 -26 21 -103 26 -136 7z"/>
<path d="M2013 13489 c-59 -38 -133 -174 -133 -244 0 -51 33 -69 113 -63 70 6 136 33 119 50 -7 7 -25 5 -58 -6 -50 -17 -91 -20 -118 -10 -43 16 11 162 84 228 45 40 80 47 80 17 0 -27 15 -34 30 -16 10 12 10 21 2 40 -9 20 -19 25 -49 25 -21 0 -52 -10 -70 -21z"/>
<path d="M1290 13459 c-43 -27 -55 -42 -84 -104 -30 -64 -50 -148 -41 -174 10 -32 69 -43 134 -26 92 24 100 58 8 36 -28 -7 -63 -11 -77 -10 -22 4 -25 9 -23 40 5 88 75 208 130 224 17 4 27 -1 44 -25 26 -34 49 -39 49 -11 0 24 -55 71 -83 71 -12 0 -38 -10 -57 -21z"/>
<path d="M6042 13450 c-45 -32 -82 -94 -82 -134 0 -34 40 -60 80 -52 17 3 30 4 30 1 0 -2 -9 -41 -20 -87 -22 -92 -26 -153 -9 -164 20 -12 32 14 34 78 3 78 44 208 85 268 32 48 36 70 20 101 -17 31 -87 26 -138 -11z m113 -10 c12 -20 -82 -136 -115 -140 -44 -6 -52 17 -25 70 28 54 121 100 140 70z"/>
<path d="M11785 13251 c-48 -22 -79 -54 -100 -103 -24 -59 -20 -105 13 -138 42 -42 144 -64 182 -40 17 11 15 12 -74 28 -81 16 -99 34 -93 95 5 60 30 95 86 124 48 24 68 22 73 -10 4 -29 32 -28 36 0 4 27 -31 63 -60 63 -13 0 -41 -9 -63 -19z"/>
<path d="M2167 13253 c-15 -14 -5 -22 31 -25 25 -2 37 -8 37 -18 0 -8 -17 -23 -37 -32 -21 -10 -38 -22 -38 -27 0 -5 20 -21 44 -35 48 -28 67 -62 45 -78 -8 -5 -47 -7 -86 -6 -78 3 -96 -8 -50 -30 22 -10 42 -11 93 -3 68 10 94 23 94 48 0 27 -30 73 -58 87 l-27 14 27 13 c35 16 44 43 24 74 -13 19 -25 25 -55 25 -21 0 -41 -3 -44 -7z"/>
<path d="M9198 13251 c-70 -22 -108 -74 -108 -148 0 -66 6 -80 41 -98 49 -26 192 -14 175 14 -3 5 -36 6 -73 4 -90 -6 -109 7 -106 73 2 55 25 91 71 115 41 21 81 13 92 -17 12 -31 40 -32 40 -1 0 46 -71 77 -132 58z"/>
<path d="M839 13222 c-13 -10 -32 -21 -41 -25 -25 -9 -22 -27 3 -27 16 0 19 -4 14 -17 -29 -73 -37 -105 -26 -116 15 -15 26 -2 41 48 7 22 25 61 41 88 16 26 29 52 29 57 0 16 -36 11 -61 -8z"/>
<path d="M6265 13179 c-30 -31 -45 -53 -38 -56 9 -3 7 -18 -8 -54 -18 -48 -18 -69 0 -69 9 0 111 202 111 220 0 20 -16 10 -65 -41z"/>
<path d="M1471 13191 c-14 -4 -27 -13 -29 -20 -4 -11 4 -13 37 -8 22 3 43 1 46 -3 3 -5 -19 -27 -49 -49 -52 -39 -74 -70 -62 -90 8 -13 64 -22 92 -15 40 10 29 33 -18 36 l-43 3 63 44 c46 32 62 50 62 67 0 37 -41 52 -99 35z"/>
<path d="M3371 13161 c-56 -60 -67 -145 -81 -606 -20 -677 -29 -804 -96 -1250 -14 -93 -28 -196 -31 -227 -5 -54 -4 -58 18 -67 48 -18 82 -77 106 -184 14 -61 17 -170 19 -722 2 -692 6 -794 30 -874 15 -52 52 -104 86 -122 31 -16 32 -4 4 38 -60 91 -60 96 -62 818 -1 690 -7 796 -46 923 -14 47 -32 78 -65 113 l-45 48 41 288 c62 437 70 528 86 1058 8 270 17 519 21 555 12 130 42 220 73 220 14 0 14 2 1 10 -23 15 -30 12 -59 -19z"/>
<path d="M1645 13067 c-14 -29 -28 -68 -31 -85 -6 -27 -4 -32 14 -32 14 0 21 9 26 31 3 17 17 53 31 81 30 60 30 58 4 58 -15 0 -27 -14 -44 -53z"/>
<path d="M940 13066 c0 -33 -11 -65 -40 -122 -22 -43 -40 -79 -40 -81 0 -2 7 -3 15 -3 21 0 71 72 90 130 20 61 17 114 -7 118 -15 3 -18 -4 -18 -42z"/>
<path d="M3912 13087 c-28 -30 -60 -102 -68 -157 -10 -64 -20 -80 -52 -80 -78 0 -98 73 -57 208 6 16 3 22 -9 22 -27 0 -46 -54 -46 -133 0 -65 3 -76 25 -97 16 -15 41 -24 74 -28 46 -4 50 -6 55 -37 8 -39 32 -63 47 -48 8 8 8 17 0 31 -22 41 -13 67 33 100 81 56 128 163 97 221 -16 29 -70 29 -99 -2z m68 -41 c0 -47 -13 -77 -50 -120 -52 -59 -63 -43 -35 51 27 92 85 139 85 69z"/>
<path d="M12001 13070 c-70 -8 -63 -28 11 -32 l62 -3 -57 -35 c-63 -38 -80 -66 -52 -86 22 -16 116 -36 150 -32 41 5 31 22 -17 30 -127 21 -126 19 -42 73 54 35 65 54 42 72 -19 15 -48 19 -97 13z"/>
<path d="M4730 13031 c-24 -25 -47 -66 -65 -115 -24 -65 -31 -76 -51 -76 -14 0 -30 10 -40 26 -15 22 -16 31 -3 82 17 71 17 74 1 80 -18 6 -42 -60 -45 -120 -2 -43 2 -53 26 -74 15 -13 39 -24 53 -24 22 0 24 -4 24 -48 0 -48 13 -74 34 -66 7 3 10 24 8 58 -4 52 -3 53 26 59 36 7 88 50 108 88 21 42 34 119 23 146 -14 37 -55 30 -99 -16z m70 -8 c0 -65 -43 -144 -92 -169 -29 -15 -30 -15 -23 8 31 105 115 223 115 161z"/>
<path d="M9419 13013 c-6 -15 -14 -58 -16 -94 -4 -52 -2 -67 9 -72 22 -8 46 9 32 23 -8 8 -8 28 -1 68 5 31 10 66 11 76 2 31 -23 30 -35 -1z"/>
<path d="M5220 12977 c0 -23 22 -27 161 -27 108 0 129 2 129 15 0 13 -20 15 -122 15 -68 0 -133 3 -145 6 -17 5 -23 2 -23 -9z"/>
<path d="M6265 12970 c-71 -5 -209 -11 -305 -15 -96 -3 -176 -8 -179 -11 -14 -14 25 -19 142 -18 167 1 610 14 614 18 2 2 -3 8 -10 15 -20 16 -114 20 -262 11z"/>
<path d="M4210 12937 c0 -19 87 -40 143 -35 57 5 45 22 -20 29 -32 4 -73 10 -90 14 -26 6 -33 4 -33 -8z"/>
<path d="M5235 12909 c-12 -18 37 -28 151 -31 73 -2 120 1 122 7 4 15 -264 39 -273 24z"/>
<path d="M4881 12865 c-82 -26 -121 -82 -97 -140 12 -27 23 -36 55 -45 57 -15 103 -4 150 36 40 35 58 77 46 114 -12 39 -86 56 -154 35z m103 -31 c42 -16 -8 -107 -67 -122 -18 -5 -45 -6 -62 -2 -27 5 -30 9 -30 45 0 33 5 43 34 62 33 22 91 30 125 17z"/>
<path d="M4027 12853 c-11 -18 -29 -120 -26 -143 2 -14 11 -25 19 -25 14 0 23 37 32 139 3 27 -14 47 -25 29z"/>
<path d="M6045 12841 c-63 -38 -115 -132 -115 -207 0 -80 59 -108 160 -78 35 11 61 24 59 29 -5 12 -30 11 -86 -2 -66 -16 -88 0 -87 63 3 96 64 177 136 178 41 1 43 0 46 -31 5 -53 42 -37 42 17 0 47 -98 67 -155 31z"/>
<path d="M755 12790 c-46 -17 -77 -77 -96 -184 -12 -73 -25 -86 -65 -67 -24 10 -25 15 -23 78 2 47 -1 68 -10 71 -21 7 -31 -19 -31 -79 0 -72 19 -98 78 -106 36 -5 42 -9 42 -30 0 -42 27 -93 49 -93 25 0 25 0 6 36 -30 58 -21 89 45 153 59 58 99 125 100 167 0 38 -55 69 -95 54z m51 -45 c10 -24 -14 -78 -57 -127 -22 -27 -44 -48 -48 -48 -19 0 22 143 50 177 15 17 48 17 55 -2z"/>
<path d="M2177 12770 c-32 -25 -71 -106 -87 -182 -14 -64 -34 -75 -51 -31 -7 20 -7 39 1 68 23 80 23 85 7 85 -21 0 -35 -28 -46 -87 -13 -65 6 -111 49 -119 23 -5 30 -12 30 -29 0 -23 28 -55 48 -55 15 0 16 26 2 35 -17 11 -11 43 9 50 27 8 100 90 117 130 23 57 21 115 -5 137 -29 23 -42 23 -74 -2z m55 -65 c-2 -22 -14 -58 -27 -80 -26 -45 -72 -91 -81 -82 -9 9 32 136 56 175 29 47 56 40 52 -13z"/>
<path d="M1444 12760 c-43 -17 -79 -90 -104 -212 -13 -67 -34 -76 -70 -30 -19 23 -21 36 -17 81 3 30 11 59 16 64 13 13 15 47 4 47 -43 -1 -76 -116 -53 -184 12 -38 51 -66 90 -66 17 0 20 -6 20 -39 0 -51 8 -71 30 -71 15 0 16 7 12 50 -4 49 -4 51 42 91 57 50 96 124 103 194 5 47 3 54 -18 69 -26 18 -26 18 -55 6z m36 -58 c0 -50 -30 -120 -71 -164 -27 -30 -38 -37 -35 -23 2 11 10 45 16 75 22 102 90 186 90 112z"/>
<path d="M6309 12598 c-30 -46 -35 -62 -37 -125 -2 -57 0 -73 11 -73 10 0 19 21 27 63 6 34 23 85 36 113 13 28 24 56 24 62 0 28 -30 8 -61 -40z"/>
<path d="M2279 12531 c-21 -17 -22 -20 -7 -26 9 -4 25 -2 36 4 15 8 23 7 32 -4 15 -18 7 -31 -31 -50 -38 -20 -37 -38 6 -53 36 -14 85 -64 85 -88 0 -12 -10 -16 -73 -29 -10 -2 -48 1 -84 6 -46 6 -70 6 -77 -1 -17 -17 10 -28 94 -35 138 -12 202 24 166 93 -9 17 -31 43 -49 58 l-34 26 24 24 c30 30 29 48 -3 73 -33 26 -55 26 -85 2z"/>
<path d="M842 12433 c2 -70 6 -88 18 -88 11 0 16 15 18 65 4 78 -3 110 -24 110 -12 0 -14 -15 -12 -87z"/>
<path d="M1427 12454 c-12 -13 5 -24 36 -24 59 0 63 -15 12 -44 -39 -23 -46 -32 -43 -54 2 -21 10 -28 38 -34 41 -8 113 8 107 25 -2 7 -23 10 -55 8 -29 -1 -52 0 -52 3 0 3 18 17 40 31 52 33 60 53 31 77 -23 17 -100 26 -114 12z"/>
<path d="M1054 12423 c-18 -56 -30 -76 -60 -103 -40 -35 -42 -40 -10 -40 45 0 123 115 101 150 -10 15 -25 12 -31 -7z"/>
<path d="M1705 12390 c-3 -5 -1 -18 5 -29 19 -37 11 -63 -32 -103 -46 -42 -45 -57 2 -38 68 28 100 106 64 158 -16 24 -29 28 -39 12z"/>
<path d="M10308 12333 c-42 -3 -58 -8 -58 -18 0 -13 25 -15 145 -15 l145 0 0 -357 c-1 -435 -20 -795 -44 -822 -24 -26 -20 -57 10 -80 33 -26 39 -26 64 -1 26 26 26 75 1 92 -19 13 -19 20 -5 248 7 129 14 389 14 577 l0 343 168 2 c141 3 167 5 167 18 0 13 -38 15 -275 16 -151 0 -301 -1 -332 -3z"/>
<path d="M10839 12171 c-61 -41 -92 -86 -93 -134 -1 -55 28 -75 120 -83 69 -6 144 7 144 26 0 4 -42 8 -92 7 -102 0 -138 11 -138 45 0 72 162 180 184 123 8 -22 36 -18 36 5 0 48 -94 55 -161 11z"/>
<path d="M6085 12139 c-77 -44 -141 -160 -115 -208 13 -25 62 -36 90 -21 12 6 24 10 26 7 3 -2 -4 -38 -16 -78 -25 -90 -25 -109 -2 -109 13 0 23 24 46 117 16 64 39 137 52 162 40 74 28 126 -31 136 -16 3 -39 0 -50 -6z m65 -53 c0 -13 -5 -26 -12 -28 -6 -2 -13 -15 -15 -28 -2 -13 -10 -34 -17 -45 -17 -26 -74 -55 -93 -48 -47 18 49 173 108 173 24 0 29 -4 29 -24z"/>
<path d="M11073 12043 c-7 -2 -13 -11 -13 -19 0 -11 9 -13 39 -8 49 8 61 -9 21 -32 -39 -24 -39 -52 0 -66 31 -10 50 -34 50 -61 0 -16 -39 -35 -83 -39 -39 -4 -34 -22 7 -26 47 -4 104 21 111 50 9 34 -10 76 -40 90 -30 14 -32 24 -5 38 25 13 28 65 4 74 -18 7 -73 7 -91 -1z"/>
<path d="M3785 11958 c-25 -37 -55 -146 -55 -203 0 -62 15 -80 79 -90 l43 -7 -6 -52 c-8 -58 -1 -86 20 -86 10 0 14 12 14 39 0 82 8 99 58 115 118 41 175 101 176 188 1 42 -3 53 -27 74 -56 48 -148 21 -189 -56 -10 -19 -26 -70 -35 -112 -18 -83 -16 -82 -80 -62 -29 8 -5 172 33 232 26 40 -3 59 -31 20z m280 -48 c13 -14 16 -30 12 -59 -8 -65 -51 -107 -146 -145 l-43 -17 6 38 c15 85 39 147 66 174 34 35 79 38 105 9z"/>
<path d="M525 11910 c-4 -7 -1 -16 6 -21 44 -27 222 -29 1288 -13 531 7 645 11 649 23 4 11 -95 12 -629 7 -349 -3 -731 -9 -849 -12 -195 -6 -398 4 -442 21 -9 4 -19 1 -23 -5z"/>
<path d="M6217 11893 c-4 -3 -7 -13 -7 -20 0 -10 9 -12 33 -8 24 5 37 2 46 -9 16 -19 5 -36 -45 -67 -19 -11 -34 -29 -34 -39 0 -22 36 -30 131 -30 55 0 69 3 69 15 0 12 -14 15 -70 15 -40 0 -70 4 -70 10 0 6 4 10 9 10 17 0 61 50 61 70 0 33 -35 60 -78 60 -21 0 -42 -3 -45 -7z"/>
<path d="M4764 11841 c-45 -27 -81 -79 -105 -150 -12 -33 -23 -61 -26 -61 -10 0 -48 24 -55 34 -14 20 -8 70 13 115 13 29 16 48 10 54 -28 28 -79 -94 -66 -159 6 -35 51 -74 85 -74 12 0 15 -13 15 -59 1 -60 15 -91 42 -91 12 0 13 6 7 28 -4 15 -8 47 -8 71 -1 44 -1 44 44 55 101 26 170 101 170 184 0 68 -61 93 -126 53z m81 -27 c9 -9 14 -23 11 -31 -3 -8 -6 -21 -6 -29 0 -26 -81 -103 -121 -116 -22 -6 -42 -9 -44 -6 -10 9 36 117 62 149 23 27 53 46 75 48 4 1 14 -6 23 -15z"/>
<path d="M5345 11750 c-4 -6 -5 -13 -2 -16 2 -3 66 -8 141 -11 96 -4 136 -3 136 5 0 17 -9 19 -141 26 -91 5 -129 4 -134 -4z"/>
<path d="M4274 11719 c-12 -19 10 -27 86 -31 95 -4 106 13 20 29 -82 15 -97 16 -106 2z"/>
<path d="M5885 11700 c-4 -6 -4 -14 0 -18 4 -4 137 -8 296 -10 255 -3 289 -1 289 13 0 13 -33 15 -267 15 -148 0 -278 3 -289 6 -12 3 -25 1 -29 -6z"/>
<path d="M5327 11674 c-18 -18 16 -24 139 -24 104 0 135 3 132 13 -3 8 -42 13 -134 15 -72 1 -133 0 -137 -4z"/>
<path d="M4003 11650 c-41 -17 -27 -33 22 -26 56 9 58 -4 5 -41 -50 -36 -57 -53 -30 -75 36 -29 170 -19 170 12 0 7 -22 8 -64 4 -77 -8 -89 4 -42 40 40 30 53 61 36 81 -14 17 -63 19 -97 5z"/>
<path d="M4829 11621 c-18 -14 -23 -31 -27 -77 -3 -50 -1 -62 17 -78 26 -24 110 -33 151 -16 60 25 87 90 59 142 -25 46 -155 66 -200 29z m156 -31 c23 -19 19 -67 -10 -95 -26 -27 -80 -34 -114 -15 -24 12 -26 94 -3 116 18 19 102 15 127 -6z"/>
<path d="M6075 11578 c-62 -34 -135 -139 -135 -195 0 -12 11 -35 24 -50 23 -26 29 -28 98 -27 96 1 219 46 194 71 -3 4 -47 -6 -97 -22 -73 -22 -99 -26 -127 -19 -48 12 -59 32 -43 83 21 73 97 141 155 141 25 0 25 -2 19 -45 -9 -66 28 -57 40 10 9 49 -7 65 -61 65 -26 0 -56 -6 -67 -12z"/>
<path d="M6327 11403 c-14 -14 -6 -22 25 -25 49 -5 48 -32 -1 -63 -40 -25 -51 -47 -31 -60 15 -9 161 -9 188 -1 46 15 18 26 -64 26 l-87 0 34 23 c39 26 48 60 23 88 -17 18 -73 27 -87 12z"/>
<path d="M1766 11384 c-70 -25 -91 -58 -66 -105 6 -10 17 -19 26 -19 12 0 13 8 8 34 -5 31 -3 36 26 51 54 28 130 31 176 7 22 -11 46 -28 53 -36 21 -25 5 -60 -39 -91 -22 -15 -56 -46 -76 -67 -30 -34 -35 -45 -32 -81 2 -30 8 -43 21 -45 14 -3 17 4 17 42 0 42 3 48 52 88 118 98 128 119 86 173 -46 59 -163 82 -252 49z"/>
<path d="M665 11320 c-11 -18 -8 -224 4 -267 12 -45 60 -93 92 -93 17 0 19 -8 20 -67 0 -38 5 -83 12 -102 15 -42 41 -61 59 -43 10 10 10 15 1 20 -20 13 -33 61 -33 128 0 59 2 65 24 74 38 14 105 79 127 121 26 52 25 128 -2 163 -28 35 -86 36 -118 2 -32 -34 -58 -111 -66 -194 -4 -40 -11 -72 -14 -72 -4 0 -16 7 -28 15 -36 25 -48 80 -47 208 1 90 -2 117 -12 117 -7 0 -16 -5 -19 -10z m275 -89 c15 -28 12 -97 -4 -130 -16 -30 -90 -101 -106 -101 -26 0 8 182 41 225 24 30 54 33 69 6z"/>
<path d="M10713 11113 c-7 -2 -13 -11 -13 -19 0 -11 12 -13 58 -8 59 6 60 1 6 -32 -25 -15 -9 -34 30 -34 18 0 40 -6 50 -13 16 -12 16 -14 3 -26 -9 -7 -41 -15 -71 -18 -38 -4 -56 -10 -56 -19 0 -19 80 -19 123 -1 65 28 73 76 16 96 -26 9 -29 13 -20 30 20 37 4 51 -58 50 -31 0 -62 -3 -68 -6z"/>
<path d="M1415 11030 c-14 -22 18 -30 121 -30 73 0 105 4 120 15 17 13 10 14 -77 15 -53 0 -110 3 -127 6 -18 4 -32 1 -37 -6z"/>
<path d="M6130 10988 c-53 -27 -88 -84 -71 -116 13 -25 61 -42 117 -42 l44 0 -50 -95 c-28 -53 -50 -109 -50 -125 l0 -30 -102 0 c-107 0 -146 -10 -118 -31 9 -6 44 -8 89 -5 41 3 195 6 343 6 232 0 268 2 268 15 0 13 -32 15 -226 15 -197 0 -225 2 -214 15 6 8 9 19 5 25 -7 12 91 203 136 264 30 41 37 66 19 66 -5 0 -10 6 -10 14 0 47 -107 61 -180 24z m134 -24 c20 -19 20 -18 0 -59 -18 -39 -52 -51 -121 -40 -50 7 -62 25 -40 58 32 49 129 74 161 41z"/>
<path d="M1018 10894 c-36 -20 -53 -76 -33 -114 27 -52 129 -75 200 -46 26 11 36 24 46 55 16 53 1 87 -46 107 -43 18 -131 17 -167 -2z m152 -29 c30 -15 35 -31 24 -71 -11 -42 -81 -56 -140 -28 -36 17 -59 64 -34 72 7 3 20 13 28 23 20 23 81 25 122 4z"/>
<path d="M1890 10826 c0 -7 10 -16 22 -20 28 -7 49 11 28 24 -22 14 -50 12 -50 -4z"/>
<path d="M4010 10759 c-55 -34 -81 -78 -95 -158 -5 -33 -11 -41 -29 -41 -12 0 -32 7 -44 16 -26 18 -29 65 -7 104 19 34 18 40 -6 40 -23 0 -49 -52 -49 -100 0 -45 47 -90 94 -90 l36 0 0 -68 c0 -74 17 -112 51 -112 22 0 26 25 4 34 -11 4 -15 22 -15 74 l0 69 57 34 c31 19 70 50 86 70 33 42 47 110 27 134 -18 21 -69 19 -110 -6z m80 -36 c0 -39 -32 -87 -81 -123 -53 -38 -62 -38 -54 3 12 55 39 101 74 124 45 31 61 29 61 -4z"/>
<path d="M6360 10766 c0 -9 17 -17 48 -22 l47 -8 -38 -10 c-52 -13 -45 -37 16 -54 27 -8 46 -17 42 -20 -3 -4 -36 -11 -72 -17 -76 -11 -99 -35 -34 -35 57 0 138 19 152 36 9 11 8 18 -6 34 -10 11 -24 20 -32 20 -18 0 -16 10 4 25 15 11 15 15 4 29 -25 30 -131 48 -131 22z"/>
<path d="M4742 10700 c-18 -17 -37 -53 -48 -90 -18 -61 -28 -69 -65 -50 -23 13 -25 50 -4 89 15 30 11 41 -12 41 -16 0 -43 -58 -43 -93 0 -34 20 -56 65 -72 22 -8 39 -19 37 -26 -13 -51 39 -149 79 -149 23 0 24 13 2 31 -21 18 -43 71 -43 104 0 22 4 25 33 25 107 0 189 129 122 195 -35 36 -85 34 -123 -5z m89 -10 c24 -13 26 -66 3 -98 -28 -41 -114 -70 -114 -39 0 31 23 89 46 117 28 33 36 35 65 20z"/>
<path d="M5370 10625 c-17 -20 -4 -38 20 -25 10 5 68 10 129 10 60 0 112 4 115 9 10 16 -23 21 -139 21 -86 0 -115 -3 -125 -15z"/>
<path d="M470 10588 c0 -11 31 -17 155 -26 280 -22 715 -34 1000 -28 786 17 785 17 785 38 0 8 -86 9 -337 2 -186 -5 -501 -8 -701 -7 -324 2 -477 7 -804 29 -82 6 -98 5 -98 -8z"/>
<path d="M5478 10573 c-45 -3 -58 -8 -58 -20 0 -14 17 -15 140 -11 77 3 143 8 146 11 25 25 -47 31 -228 20z"/>
<path d="M4933 10525 c-30 -21 -93 -117 -93 -142 0 -36 36 -57 103 -61 75 -4 120 19 143 73 21 52 18 83 -15 116 -24 23 -38 29 -73 29 -24 0 -53 -7 -65 -15z m109 -32 c22 -20 23 -54 3 -93 -19 -37 -43 -50 -92 -50 -57 0 -62 7 -48 65 21 81 90 121 137 78z"/>
<path d="M4277 10524 c-16 -16 9 -24 79 -24 56 0 75 3 72 13 -5 13 -138 23 -151 11z"/>
<path d="M4078 10509 c-27 -15 -23 -43 5 -35 58 18 74 0 33 -37 -14 -14 -26 -28 -26 -33 0 -5 23 -15 52 -22 81 -19 91 -45 21 -58 -28 -5 -39 -3 -49 11 -14 19 -34 12 -34 -11 0 -36 110 -43 155 -10 37 27 -13 96 -69 96 -13 0 -13 4 -1 26 30 59 -28 108 -87 73z"/>
<path d="M6161 10494 c-96 -34 -162 -104 -146 -155 11 -34 80 -59 165 -59 85 0 122 8 117 23 -2 7 -34 11 -88 9 -93 -2 -152 13 -157 41 -6 31 67 93 133 112 75 22 112 13 107 -28 -3 -22 1 -27 17 -27 17 0 21 6 21 34 0 63 -71 84 -169 50z"/>
<path d="M6415 10327 c-24 -18 -11 -41 15 -27 47 25 57 -11 10 -38 -40 -23 -38 -40 8 -59 45 -18 72 -41 72 -61 0 -13 -14 -14 -90 -9 -91 7 -118 -3 -64 -23 34 -13 150 -13 175 0 41 23 3 95 -61 115 -20 6 -20 7 5 27 60 47 -7 120 -70 75z"/>
<path d="M4069 9632 c-74 -48 -121 -134 -105 -196 9 -35 64 -50 118 -32 35 13 38 12 34 -3 -18 -59 -46 -184 -52 -227 -5 -43 -3 -52 11 -58 10 -3 24 -1 31 5 16 13 19 39 4 39 -27 0 59 309 106 380 l26 39 -22 31 c-42 58 -83 64 -151 22z m99 -14 c18 -18 14 -54 -12 -106 -28 -54 -75 -86 -121 -80 -44 5 -46 48 -5 110 47 70 109 105 138 76z"/>
<path d="M4964 9576 c-91 -40 -172 -164 -132 -204 20 -20 82 -14 132 13 25 13 46 21 46 16 0 -4 -9 -34 -21 -67 -30 -87 -48 -170 -39 -184 11 -18 54 -8 58 14 2 10 -2 22 -9 26 -10 7 -4 35 25 127 21 65 44 123 51 129 15 12 33 80 28 105 -8 36 -83 49 -139 25z m90 -25 c25 -40 -106 -161 -175 -161 -51 0 15 107 91 147 46 24 75 29 84 14z"/>
<path d="M6719 9553 c-67 -57 -107 -218 -60 -243 86 -45 190 50 191 173 0 88 -67 124 -131 70z m79 -15 c15 -15 16 -87 1 -125 -26 -69 -109 -111 -124 -63 -6 19 11 85 27 105 4 5 8 16 8 24 0 18 49 71 65 71 6 0 16 -5 23 -12z"/>
<path d="M4542 9548 c-5 -7 -16 -32 -22 -55 -12 -40 -15 -42 -54 -45 -51 -4 -50 -22 1 -26 l38 -3 -3 -54 c-3 -43 -1 -55 11 -55 16 0 27 29 27 77 0 31 1 32 53 35 65 4 68 22 5 26 -53 3 -55 7 -33 58 19 46 4 74 -23 42z"/>
<path d="M5763 9539 c-71 -21 -120 -107 -88 -155 18 -28 50 -38 105 -32 22 2 40 2 40 1 0 -2 -15 -41 -34 -88 -45 -112 -51 -139 -32 -154 8 -7 25 -11 37 -9 30 4 37 28 9 28 -17 0 -20 4 -15 23 15 46 59 155 91 221 33 67 42 118 26 143 -18 29 -81 39 -139 22z m85 -25 c18 -5 22 -13 22 -43 0 -20 -6 -43 -13 -51 -30 -37 -123 -54 -147 -25 -23 28 11 87 65 111 34 15 42 16 73 8z"/>
<path d="M6258 9512 c-10 -2 -18 -10 -18 -18 0 -11 23 -14 125 -14 79 0 125 4 125 10 0 6 -6 12 -12 15 -19 5 -200 12 -220 7z"/>
<path d="M5440 9446 c0 -31 -3 -34 -42 -42 -51 -11 -52 -29 -3 -29 27 0 34 -3 29 -15 -3 -8 -8 -36 -11 -62 -5 -40 -3 -48 10 -48 10 0 19 11 23 28 24 105 22 102 64 102 29 0 40 4 40 15 0 10 -11 15 -35 15 -33 0 -35 2 -35 35 0 28 -4 35 -20 35 -16 0 -20 -7 -20 -34z"/>
<path d="M6257 9433 c-16 -3 -26 -10 -24 -16 3 -9 42 -12 134 -11 134 1 169 6 158 24 -6 10 -208 12 -268 3z"/>
<path d="M5940 9360 c-22 -14 -4 -24 39 -22 47 3 60 -11 25 -27 -32 -14 -27 -32 12 -44 16 -4 40 -13 54 -19 24 -10 24 -11 5 -19 -31 -12 -73 -10 -78 4 -7 18 -42 -6 -42 -29 0 -17 7 -19 59 -16 64 4 116 24 116 46 0 15 -27 40 -52 49 -11 4 -15 13 -11 27 9 33 -23 60 -71 60 -23 0 -48 -4 -56 -10z"/>
<path d="M4261 9306 c-12 -24 -24 -74 -28 -111 -6 -62 -5 -67 13 -63 15 3 20 15 26 65 4 34 14 75 22 92 20 37 20 61 2 61 -8 0 -24 -20 -35 -44z"/>
<path d="M5117 9343 c-19 -18 -5 -32 31 -30 55 3 48 -20 -20 -65 -58 -39 -74 -70 -42 -82 25 -10 104 -7 125 4 37 20 20 30 -43 24 -68 -5 -68 -7 5 41 18 11 38 32 46 47 14 24 14 28 -3 47 -19 21 -84 30 -99 14z"/>
<path d="M1465 8382 c-50 -36 -58 -107 -39 -331 21 -253 32 -660 23 -815 -7 -101 -51 -364 -75 -447 -2 -9 7 -28 20 -42 48 -52 51 -90 51 -682 0 -524 1 -552 19 -587 31 -60 49 -50 39 20 -9 61 -9 136 -3 682 5 379 -3 466 -47 558 l-25 53 31 152 c17 84 36 197 42 252 14 120 6 486 -17 785 -19 251 -17 366 9 385 16 11 16 13 1 19 -19 7 -17 7 -29 -2z"/>
<path d="M3661 8205 c-72 -82 -151 -285 -154 -397 -2 -79 18 -115 77 -137 33 -12 39 -12 52 1 14 14 12 16 -19 22 -56 10 -72 37 -70 115 2 115 93 336 159 389 18 14 30 30 28 34 -11 18 -44 6 -73 -27z"/>
<path d="M4920 8201 c0 -5 30 -32 66 -61 174 -137 191 -314 42 -444 -30 -27 -46 -46 -39 -50 20 -13 49 4 100 59 131 144 98 328 -83 465 -50 38 -86 51 -86 31z"/>
<path d="M1926 8158 c-40 -33 -96 -135 -96 -176 0 -60 47 -80 111 -46 29 15 30 14 25 -3 -3 -10 -15 -58 -26 -106 -24 -99 -24 -162 0 -162 11 0 17 16 22 60 8 79 53 254 83 324 36 88 18 141 -50 141 -19 0 -44 -11 -69 -32z m92 -43 c-7 -54 -47 -118 -91 -145 -44 -27 -57 -25 -57 8 0 68 83 182 132 182 19 0 20 -5 16 -45z"/>
<path d="M3063 8160 c-97 -59 -172 -272 -111 -314 39 -28 134 -16 216 26 27 14 31 44 5 33 -76 -29 -140 -46 -167 -43 -29 3 -31 6 -34 44 -4 59 32 148 83 201 24 25 50 43 57 41 14 -5 16 -45 4 -95 -6 -26 -4 -33 8 -33 19 0 32 23 39 76 12 75 -34 105 -100 64z"/>
<path d="M4001 8074 c-37 -31 -58 -69 -81 -144 -16 -54 -17 -55 -56 -58 -56 -4 -75 13 -68 60 4 21 17 49 30 63 27 29 31 45 11 45 -38 0 -77 -62 -77 -121 0 -58 14 -71 86 -77 l54 -5 -6 -48 c-8 -61 1 -96 26 -104 30 -9 47 5 25 21 -15 11 -17 23 -12 80 4 38 12 71 19 75 99 55 160 131 156 194 -3 38 -5 40 -39 43 -27 2 -44 -3 -68 -24z m72 -11 c2 -5 0 -22 -4 -38 -9 -31 -94 -123 -104 -113 -12 11 18 87 47 122 28 34 52 45 61 29z"/>
<path d="M4710 8040 c-28 -29 -70 -124 -70 -155 0 -17 -33 -20 -61 -5 -23 13 -26 72 -4 110 19 33 18 40 -4 40 -25 0 -51 -56 -51 -108 0 -48 34 -82 81 -82 27 0 29 -3 29 -35 0 -44 25 -95 46 -95 12 0 15 6 9 23 -4 12 -10 41 -12 64 -5 39 -3 44 20 52 77 29 152 145 129 196 -17 38 -75 35 -112 -5z m80 -15 c0 -32 -28 -81 -65 -113 -20 -18 -40 -31 -42 -28 -10 9 27 95 54 126 27 32 53 39 53 15z"/>
<path d="M2400 8029 c0 -18 52 -29 135 -29 46 0 87 5 90 10 9 15 -8 18 -122 23 -61 3 -103 1 -103 -4z"/>
<path d="M3297 7918 c-54 -40 -72 -68 -44 -68 7 0 19 6 26 13 12 10 13 8 6 -8 -16 -45 -17 -91 -1 -104 21 -18 33 -7 28 27 -4 29 36 123 58 137 15 9 12 45 -3 45 -7 0 -38 -19 -70 -42z"/>
<path d="M2382 7929 c6 -19 243 -38 260 -21 7 7 9 14 6 17 -3 3 -65 8 -138 12 -112 5 -132 4 -128 -8z"/>
<path d="M4230 7897 c0 -17 68 -37 129 -37 63 0 54 26 -11 33 -29 3 -68 9 -85 13 -26 5 -33 3 -33 -9z"/>
<path d="M2152 7836 c-45 -43 -54 -58 -45 -67 10 -10 15 -9 28 1 18 15 18 15 0 -35 -22 -62 -20 -85 9 -85 22 0 25 4 24 39 0 28 12 62 41 116 22 42 41 78 41 81 0 2 -9 4 -21 4 -12 0 -46 -24 -77 -54z"/>
<path d="M4831 7844 c-35 -29 -41 -75 -15 -112 19 -27 87 -31 122 -6 26 18 52 64 52 92 0 55 -104 72 -159 26z m117 -30 c4 -31 -42 -76 -76 -72 -22 2 -28 9 -30 35 -2 23 3 35 20 47 32 23 82 17 86 -10z"/>
<path d="M4085 7830 c-12 -19 -35 -113 -35 -142 0 -25 15 -46 26 -35 5 5 35 138 38 166 1 18 -20 26 -29 11z"/>
<path d="M3796 7189 c-77 -61 -174 -386 -145 -492 13 -50 58 -97 93 -97 34 0 32 11 -7 35 -47 30 -61 81 -48 172 17 113 76 285 117 339 40 52 34 78 -10 43z"/>
<path d="M5250 7126 c0 -8 9 -17 20 -21 54 -17 121 -144 122 -233 1 -70 -19 -108 -118 -227 -36 -44 -70 -87 -75 -96 -8 -16 -3 -29 12 -29 13 0 148 165 184 225 30 51 35 68 35 122 0 88 -31 165 -91 225 -47 47 -89 63 -89 34z"/>
<path d="M3077 7026 c-41 -40 -67 -111 -67 -177 0 -40 4 -51 28 -69 23 -19 37 -21 98 -18 46 2 80 9 98 22 40 26 20 42 -29 22 -54 -23 -120 -21 -145 4 -17 17 -19 28 -14 58 15 86 71 168 111 160 15 -3 19 -14 21 -66 2 -45 7 -62 17 -62 29 0 32 113 4 147 -6 7 -29 13 -50 13 -30 0 -45 -7 -72 -34z"/>
<path d="M2040 6999 c-87 -35 -158 -188 -101 -219 29 -15 98 -12 133 6 29 15 31 15 24 -2 -4 -9 -20 -69 -37 -132 -23 -84 -28 -117 -20 -125 17 -17 46 6 44 34 -2 33 65 275 88 318 23 43 24 61 4 61 -8 0 -15 9 -15 19 0 41 -64 62 -120 40z m73 -59 c-1 -19 4 -38 10 -42 17 -10 -20 -56 -63 -79 -19 -11 -49 -19 -67 -19 -31 0 -33 2 -33 34 0 60 85 151 135 144 16 -2 20 -10 18 -38z"/>
<path d="M4057 6970 c-25 -29 -63 -118 -74 -172 -7 -33 -34 -37 -62 -9 -15 15 -18 28 -14 63 3 23 10 51 14 60 13 24 11 28 -9 28 -26 0 -42 -41 -42 -104 0 -60 16 -82 67 -92 25 -5 32 -12 37 -37 7 -34 32 -67 52 -67 23 0 25 19 4 40 -30 30 -26 65 9 79 36 16 97 78 110 114 15 38 14 100 -1 115 -22 22 -65 14 -91 -18z m63 -35 c0 -20 -7 -49 -15 -64 -14 -29 -74 -85 -82 -78 -6 7 38 120 59 150 26 37 38 34 38 -8z"/>
<path d="M4903 6970 c-42 -31 -103 -133 -103 -172 0 -27 -27 -33 -67 -14 -35 17 -35 17 -30 69 3 29 7 61 9 71 6 35 -22 29 -37 -8 -37 -88 -7 -159 74 -172 33 -5 41 -11 46 -34 8 -36 59 -85 80 -76 15 5 12 11 -14 41 -37 43 -40 65 -7 65 64 0 162 56 197 114 66 108 -43 193 -148 116z m115 -12 c22 -22 14 -75 -18 -111 -32 -37 -119 -80 -150 -75 -18 3 -18 4 0 58 32 93 129 167 168 128z"/>
<path d="M2555 6849 c-10 -16 25 -27 106 -34 85 -7 129 -2 129 15 0 14 -227 33 -235 19z"/>
<path d="M4346 6821 c-18 -29 153 -55 188 -28 17 13 12 15 -60 21 -43 4 -89 9 -100 12 -12 3 -25 1 -28 -5z"/>
<path d="M5062 6802 c-29 -29 -40 -117 -17 -142 39 -44 124 -32 170 22 53 62 13 126 -83 136 -40 3 -53 1 -70 -16z m108 -27 c20 -10 30 -23 30 -39 0 -42 -65 -81 -109 -65 -22 9 -23 13 -17 55 3 25 8 50 12 55 8 14 52 11 84 -6z"/>
<path d="M3320 6795 c0 -12 14 -15 68 -15 l67 0 -46 -29 c-44 -28 -89 -74 -89 -92 0 -52 181 -53 198 0 4 11 -2 12 -24 5 -40 -11 -118 -11 -123 1 -4 9 18 28 104 91 20 14 27 25 22 37 -9 24 -177 26 -177 2z"/>
<path d="M4167 6762 c-35 -15 -22 -27 33 -32 72 -7 71 -23 -4 -69 -73 -45 -89 -66 -62 -87 23 -16 162 -20 186 -4 27 17 -1 24 -82 21 -89 -3 -95 5 -25 40 114 58 117 116 5 133 -18 3 -41 2 -51 -2z"/>
<path d="M2542 6749 c5 -14 72 -26 158 -28 42 -1 80 12 70 23 -3 2 -56 8 -119 12 -95 6 -113 5 -109 -7z"/>
<path d="M2248 6713 c-10 -2 -18 -11 -18 -20 0 -12 8 -13 40 -8 33 6 41 4 47 -11 5 -13 -4 -26 -32 -48 -100 -78 -113 -108 -54 -121 39 -9 122 3 146 20 27 20 10 27 -43 18 -27 -5 -59 -7 -71 -4 -20 5 -16 11 35 51 39 31 58 54 60 72 5 44 -47 68 -110 51z"/>
<path d="M2665 5903 c-69 -101 -143 -460 -115 -562 14 -55 70 -114 101 -109 26 4 38 28 14 28 -9 0 -29 13 -45 28 -53 53 -50 176 11 411 16 62 42 139 59 169 34 63 36 72 15 72 -8 0 -26 -17 -40 -37z"/>
<path d="M4156 5932 c-3 -5 13 -31 36 -58 84 -101 113 -201 106 -364 -7 -153 -54 -260 -115 -260 -14 0 -23 -6 -23 -15 0 -27 56 -18 94 15 57 51 81 137 81 295 0 159 -20 226 -96 328 -47 62 -70 79 -83 59z"/>
<path d="M1991 5812 c-50 -51 -81 -123 -81 -185 0 -46 32 -83 81 -92 55 -10 172 -2 177 13 3 9 -18 12 -80 12 -108 0 -132 12 -136 67 -6 87 76 208 136 201 22 -2 28 -9 32 -38 3 -23 11 -36 23 -38 14 -3 17 4 17 37 0 53 -20 71 -78 71 -42 0 -50 -4 -91 -48z"/>
<path d="M5572 5764 c-42 -17 -73 -85 -80 -174 -3 -52 -1 -68 12 -79 24 -20 64 -16 92 9 30 29 31 17 4 -68 -25 -79 -27 -157 -4 -166 27 -10 33 2 27 52 -4 40 3 72 41 186 25 76 46 147 46 158 0 35 -29 77 -58 84 -15 3 -32 7 -38 9 -5 1 -25 -3 -42 -11z m83 -44 c11 -12 15 -27 11 -42 -9 -33 -104 -148 -121 -148 -30 0 -9 153 25 195 18 21 64 18 85 -5z"/>
<path d="M6411 5722 c-55 -57 -86 -166 -61 -213 13 -24 57 -25 82 -2 23 20 22 13 -2 -65 -11 -35 -20 -74 -20 -88 0 -28 28 -46 53 -33 21 12 23 44 2 35 -23 -9 -19 18 26 144 66 188 64 181 52 188 -6 4 -13 21 -15 37 -3 27 -7 30 -41 33 -34 3 -44 -2 -76 -36z m84 -14 c-4 -13 -16 -32 -26 -44 -23 -25 -24 -41 -4 -46 11 -2 4 -16 -26 -50 -22 -27 -45 -48 -51 -48 -17 0 -2 92 21 139 31 61 101 101 86 49z"/>
<path d="M2991 5686 c-22 -23 -61 -130 -61 -167 0 -15 -7 -19 -38 -19 -25 0 -45 7 -55 18 -21 23 -22 74 -2 111 8 16 11 31 8 35 -34 34 -80 -87 -57 -149 9 -23 57 -45 99 -45 34 0 35 -1 35 -40 0 -44 29 -84 57 -78 25 5 27 25 4 33 -17 5 -21 15 -21 50 0 35 4 45 21 50 29 10 87 63 105 96 44 87 -32 172 -95 105z m69 -58 c0 -22 -11 -42 -40 -71 -22 -22 -43 -37 -46 -34 -8 8 22 108 42 135 20 29 44 13 44 -30z"/>
<path d="M3820 5693 c-44 -17 -83 -80 -101 -164 -10 -48 -12 -50 -37 -44 -47 12 -55 25 -49 80 3 27 9 63 13 78 6 24 4 28 -11 25 -23 -4 -43 -59 -44 -119 -1 -55 26 -87 83 -96 27 -4 36 -10 36 -25 0 -27 26 -74 45 -82 23 -9 55 -7 55 2 0 5 -13 18 -30 30 -44 33 -41 68 8 81 51 14 109 55 127 91 23 44 22 97 -1 120 -20 21 -70 33 -94 23z m60 -43 c15 -15 19 -27 14 -48 -14 -56 -43 -83 -120 -112 -25 -10 -25 -9 -19 22 17 81 65 158 97 158 5 0 17 -9 28 -20z"/>
<path d="M5072 5623 c-28 -3 -42 -8 -39 -16 5 -16 277 -17 277 -1 0 7 -10 14 -22 18 -24 6 -141 5 -216 -1z"/>
<path d="M4543 5594 c-13 -3 -23 -12 -23 -20 0 -14 19 -15 255 -18 46 -1 49 16 5 26 -47 9 -210 18 -237 12z"/>
<path d="M2250 5575 c0 -9 9 -15 25 -15 31 0 34 -29 5 -55 -32 -29 -20 -55 25 -55 8 0 26 -5 42 -11 l28 -11 -30 -14 c-16 -7 -43 -11 -58 -8 -26 5 -28 3 -25 -18 3 -19 8 -23 36 -20 35 2 92 28 104 45 12 20 -12 46 -52 58 -37 11 -39 14 -25 29 18 19 19 44 5 71 -13 24 -80 28 -80 4z"/>
<path d="M3322 5579 c7 -22 77 -40 142 -37 86 4 83 24 -6 31 -40 4 -88 10 -107 13 -26 5 -33 4 -29 -7z"/>
<path d="M5905 5550 c-15 -24 22 -31 147 -28 120 3 151 9 134 26 -14 13 -273 15 -281 2z"/>
<path d="M3121 5511 c-18 -12 -4 -33 18 -26 27 8 48 -21 33 -46 -18 -28 -15 -35 25 -59 36 -21 37 -23 18 -36 -28 -21 -52 -17 -59 8 -5 21 -7 22 -22 7 -13 -14 -14 -21 -4 -39 10 -19 18 -22 57 -17 80 9 109 71 47 99 -20 10 -23 16 -19 42 4 19 1 38 -7 48 -15 21 -67 32 -87 19z"/>
<path d="M3957 5492 c-60 -41 -72 -84 -34 -127 43 -51 153 -46 212 9 42 40 45 73 10 106 -36 34 -146 40 -188 12z m151 -28 c70 -49 -71 -137 -143 -90 -33 22 -32 49 6 80 36 31 101 35 137 10z"/>
<path d="M4510 5476 c0 -23 28 -28 173 -33 119 -5 137 -4 137 10 0 12 -19 16 -97 21 -54 4 -124 8 -155 11 -45 4 -58 2 -58 -9z"/>
<path d="M6583 5479 c-44 -13 -46 -44 -3 -35 74 15 86 16 100 7 12 -8 11 -13 -5 -31 -10 -11 -34 -30 -52 -41 -83 -51 -60 -89 55 -89 89 0 122 7 122 26 0 10 -19 11 -90 7 -51 -3 -90 -2 -90 3 0 5 15 19 33 31 55 38 77 63 77 87 0 40 -70 57 -147 35z"/>
<path d="M5762 5411 c-42 -49 -51 -71 -32 -71 6 0 10 -18 10 -40 0 -31 4 -40 18 -40 13 0 17 9 19 45 1 27 12 64 27 91 14 26 26 50 26 55 0 23 -31 5 -68 -40z"/>
<path d="M1637 4281 c-45 -50 -92 -149 -108 -229 -11 -55 -11 -67 2 -90 31 -55 136 -53 224 6 56 37 24 41 -61 7 -78 -31 -120 -28 -130 12 -19 74 103 324 145 298 6 -3 11 -33 11 -66 0 -52 2 -59 20 -59 18 0 20 7 20 58 0 107 -57 136 -123 63z"/>
<path d="M3171 4284 c-38 -31 -88 -133 -97 -196 -8 -59 16 -103 65 -119 62 -21 240 6 215 31 -7 7 -29 7 -63 0 -83 -16 -125 -13 -156 12 -25 19 -27 25 -21 67 8 59 61 167 92 187 39 26 56 12 48 -41 -6 -41 -4 -45 14 -45 30 0 42 82 17 110 -26 28 -77 26 -114 -6z"/>
<path d="M5539 4282 c-85 -54 -138 -141 -139 -225 0 -40 5 -53 29 -78 29 -29 56 -35 126 -30 38 3 115 37 115 50 0 15 -32 14 -73 -4 -47 -19 -107 -19 -135 1 -67 46 19 234 126 275 48 19 51 -4 15 -113 -4 -12 0 -18 11 -18 20 0 55 72 56 112 0 30 -32 58 -65 58 -12 0 -41 -13 -66 -28z"/>
<path d="M9932 4276 c-45 -41 -102 -142 -102 -180 0 -15 11 -38 25 -51 21 -21 33 -25 89 -25 63 0 116 14 116 31 0 5 -33 6 -73 3 -88 -8 -117 3 -117 45 0 49 97 181 133 181 5 0 7 -19 5 -42 -2 -24 2 -43 8 -45 15 -5 36 49 32 83 -3 25 -8 29 -40 32 -30 3 -44 -3 -76 -32z"/>
<path d="M6917 4253 c-41 -44 -81 -140 -85 -210 -4 -57 -2 -64 23 -87 22 -21 38 -26 77 -26 48 0 128 31 128 50 0 19 -18 19 -56 0 -113 -58 -166 14 -113 155 37 99 109 159 96 79 -5 -32 -4 -35 16 -32 18 2 23 11 25 42 4 44 -7 56 -54 56 -20 0 -39 -9 -57 -27z"/>
<path d="M8453 4248 c-38 -41 -69 -102 -83 -163 -27 -119 76 -169 213 -105 26 12 47 28 47 36 0 19 -3 18 -77 -11 -73 -30 -119 -25 -142 16 -12 21 -11 32 3 81 16 57 69 137 95 146 14 5 12 -26 -5 -85 -5 -17 -2 -23 10 -23 19 0 46 55 46 93 0 56 -60 64 -107 15z"/>
<path d="M6141 4195 c-36 -31 -71 -119 -71 -180 0 -53 -17 -59 -55 -20 -19 18 -25 35 -25 69 0 25 5 48 10 51 17 10 11 35 -8 35 -25 0 -42 -40 -42 -96 0 -39 5 -51 34 -80 24 -24 43 -34 65 -34 20 0 31 -5 31 -14 0 -20 55 -76 74 -76 24 0 19 23 -9 50 -30 28 -32 46 -6 55 26 8 87 71 105 110 26 53 24 114 -3 137 -32 25 -64 23 -100 -7z m79 -25 c19 -35 -6 -99 -59 -150 l-46 -45 -3 39 c-5 64 48 176 83 176 8 0 19 -9 25 -20z"/>
<path d="M6585 4200 c-4 -6 -9 -38 -12 -71 l-6 -59 -46 0 c-51 0 -77 -12 -66 -29 5 -9 24 -10 61 -5 l54 6 0 -39 c0 -36 13 -63 32 -63 4 0 8 25 8 55 0 55 0 55 31 55 36 0 72 17 64 30 -3 5 -26 7 -52 3 l-45 -6 3 63 c3 42 0 65 -8 67 -6 2 -14 -1 -18 -7z"/>
<path d="M7507 4176 c-29 -27 -59 -83 -77 -143 -15 -48 -24 -53 -41 -22 -8 16 -8 37 1 82 7 39 8 63 2 69 -18 18 -30 -1 -41 -67 -13 -74 -2 -113 36 -130 12 -5 24 -22 27 -38 11 -55 106 -119 106 -72 0 8 -6 15 -13 15 -20 0 -46 32 -49 59 -3 20 4 25 40 36 85 26 142 89 142 160 0 71 -79 101 -133 51z m81 -18 c19 -19 14 -73 -9 -102 -20 -26 -87 -66 -109 -66 -22 0 23 114 63 158 23 25 37 28 55 10z"/>
<path d="M10556 4159 c-22 -26 -43 -68 -58 -115 -12 -41 -28 -74 -34 -74 -26 0 -75 24 -84 40 -15 27 -12 92 5 114 16 21 12 36 -10 36 -39 0 -60 -124 -29 -169 19 -26 71 -51 107 -51 20 0 23 -4 19 -28 -6 -42 22 -102 47 -102 25 0 25 0 6 36 -8 16 -15 43 -15 60 0 27 5 32 39 42 78 24 130 94 131 175 0 56 -14 77 -55 77 -27 0 -40 -8 -69 -41z m84 -32 c0 -58 -29 -107 -80 -136 l-42 -24 7 34 c17 80 70 169 102 169 9 0 13 -14 13 -43z"/>
<path d="M3800 4162 c-32 -33 -60 -115 -60 -179 0 -48 -11 -53 -49 -27 -22 16 -23 22 -18 85 5 57 3 69 -9 69 -19 0 -34 -41 -34 -94 0 -54 28 -93 74 -102 27 -5 35 -12 40 -35 8 -42 35 -79 57 -79 23 0 23 -3 -1 45 -28 55 -25 69 15 83 62 23 135 128 135 194 0 9 -9 27 -21 42 -30 38 -90 37 -129 -2z m103 -24 c24 -38 -32 -142 -94 -174 -29 -15 -29 -15 -29 21 0 92 47 180 92 173 11 -2 26 -10 31 -20z"/>
<path d="M9101 4161 c-22 -22 -56 -109 -66 -167 -11 -64 -16 -74 -34 -74 -36 0 -44 25 -37 115 5 71 4 85 -8 85 -30 0 -50 -156 -26 -200 6 -11 28 -24 50 -30 33 -9 40 -15 40 -35 0 -35 20 -74 41 -80 32 -11 41 4 19 32 -35 45 -26 74 33 108 69 40 109 98 115 169 4 45 1 57 -17 75 -27 27 -84 28 -110 2z m87 -59 c4 -54 -32 -121 -82 -151 -18 -12 -36 -21 -38 -21 -8 0 11 94 28 142 19 53 42 80 68 76 17 -2 22 -11 24 -46z"/>
<path d="M2256 4148 c-23 -35 -43 -89 -62 -162 -16 -64 -17 -66 -49 -66 -18 0 -38 7 -45 15 -12 15 -10 72 6 123 5 16 2 22 -9 22 -21 0 -36 -29 -43 -84 -9 -61 12 -92 71 -107 l45 -11 0 -58 c0 -59 18 -90 53 -90 25 0 30 18 7 30 -17 9 -20 21 -20 75 0 38 4 65 10 65 6 0 31 19 57 43 74 68 103 155 67 205 -21 30 -68 30 -88 0z m62 -46 c4 -36 -25 -97 -62 -131 -29 -28 -32 -19 -15 44 17 62 50 126 63 122 6 -2 12 -17 14 -35z"/>
<path d="M4475 4140 c-11 -17 17 -21 155 -18 96 2 135 7 138 16 5 15 -283 18 -293 2z"/>
<path d="M5033 4133 c-7 -2 -13 -11 -13 -19 0 -11 22 -14 111 -14 83 0 110 3 107 12 -3 7 -15 15 -29 19 -28 8 -158 10 -176 2z"/>
<path d="M9596 4125 c-3 -9 -6 -32 -6 -50 0 -33 -2 -34 -42 -37 -58 -4 -55 -22 5 -26 l47 -3 0 -48 c0 -44 12 -71 33 -71 5 0 7 27 5 59 l-4 59 58 6 c41 5 58 11 58 21 0 12 -14 15 -59 15 l-60 0 -3 42 c-3 43 -21 61 -32 33z"/>
<path d="M7877 4103 c-20 -19 6 -23 148 -23 131 0 155 2 155 15 0 13 -23 15 -148 15 -82 0 -152 -3 -155 -7z"/>
<path d="M4475 4080 c-16 -25 15 -32 128 -29 110 4 139 10 123 27 -13 13 -243 15 -251 2z"/>
<path d="M7172 4028 c-36 -43 -41 -54 -29 -63 10 -7 14 -30 13 -80 -1 -59 2 -70 17 -73 14 -3 17 4 17 48 0 28 11 85 25 126 14 41 25 79 25 84 0 23 -28 6 -68 -42z"/>
<path d="M10142 4059 c-22 -8 -26 -36 -6 -32 5 1 26 4 47 8 32 6 37 5 37 -11 0 -11 -20 -34 -47 -54 -58 -43 -65 -66 -26 -81 35 -14 139 3 162 26 22 22 8 28 -36 15 -21 -6 -53 -10 -71 -8 l-34 3 46 32 c37 26 46 38 46 62 0 46 -56 65 -118 40z"/>
<path d="M10775 4053 c-51 -13 -105 -96 -105 -162 0 -52 20 -71 75 -71 72 0 145 77 145 153 0 59 -53 95 -115 80z m69 -87 c0 -43 -5 -53 -37 -82 -40 -37 -83 -45 -94 -17 -9 24 15 105 40 131 16 17 30 22 57 20 35 -3 35 -3 34 -52z"/>
<path d="M3387 4043 c-4 -3 -7 -12 -7 -19 0 -10 11 -12 45 -7 52 7 58 -5 20 -35 -34 -27 -33 -52 3 -52 38 0 74 -27 70 -53 -6 -43 -100 -49 -111 -7 -8 29 -37 26 -37 -4 0 -34 35 -56 91 -56 54 0 99 29 99 64 0 29 -26 65 -56 76 -23 9 -23 10 -7 39 24 41 6 61 -57 61 -25 0 -50 -3 -53 -7z"/>
<path d="M4075 4035 c-41 -19 -91 -65 -99 -91 -9 -31 36 -82 79 -90 65 -12 136 29 150 89 12 45 -2 77 -40 93 -42 17 -52 17 -90 -1z m91 -52 c20 -77 -88 -131 -142 -72 -17 19 -16 21 12 50 55 59 118 70 130 22z"/>
<path d="M7633 4015 c-35 -35 -35 -36 -31 -106 3 -60 8 -74 27 -90 47 -38 134 -12 166 51 20 38 22 109 4 137 -17 28 -51 43 -95 43 -28 0 -44 -8 -71 -35z m127 -22 c24 -30 21 -77 -6 -118 -13 -20 -54 -45 -74 -45 -45 0 -55 126 -14 167 31 31 67 30 94 -4z"/>
<path d="M8689 4031 c-18 -15 -21 -22 -12 -31 9 -10 16 -9 33 3 12 9 29 13 36 10 25 -9 15 -40 -23 -69 -58 -44 -73 -62 -73 -88 0 -13 7 -27 16 -30 25 -9 130 -7 158 4 51 19 27 29 -54 23 -45 -3 -80 -2 -80 3 0 5 25 32 55 60 60 55 68 81 35 114 -25 25 -61 26 -91 1z"/>
<path d="M5808 3981 c-51 -79 -55 -91 -30 -91 11 0 23 6 25 13 3 6 4 -15 4 -48 -2 -46 1 -60 13 -62 15 -4 16 -2 47 215 8 50 -17 39 -59 -27z"/>
<path d="M6297 4013 c-3 -5 -7 -62 -9 -126 -2 -95 0 -119 12 -127 8 -5 17 -7 20 -5 11 7 5 258 -7 262 -6 2 -13 0 -16 -4z"/>
<path d="M1886 3994 c-30 -30 -8 -58 24 -29 10 9 24 14 29 10 20 -12 12 -52 -14 -69 -35 -23 -31 -35 14 -42 51 -8 61 -32 26 -61 -30 -26 -73 -30 -81 -8 -11 27 -36 17 -32 -12 3 -25 7 -28 45 -31 81 -6 144 47 123 102 -5 13 -18 27 -29 31 -17 5 -19 10 -11 25 34 64 -44 134 -94 84z"/>
<path d="M2630 4000 c-30 -19 6 -27 103 -22 66 3 97 8 94 16 -5 14 -176 20 -197 6z"/>
<path d="M2383 3883 c-7 -2 -13 -11 -13 -19 0 -12 8 -13 35 -8 28 5 35 3 35 -10 0 -8 -9 -20 -20 -26 -36 -19 -24 -40 23 -40 44 0 92 -24 82 -41 -4 -5 -28 -9 -56 -9 -37 0 -49 4 -49 15 0 20 -29 19 -37 -1 -10 -27 25 -44 90 -44 66 0 97 12 97 39 0 23 -38 58 -71 66 -21 5 -25 11 -21 31 2 13 -1 31 -8 39 -12 14 -61 19 -87 8z"/>
<path d="M9227 3879 c-30 -17 -9 -29 41 -22 l47 6 -32 -37 c-60 -68 -39 -101 62 -94 45 3 71 9 83 22 16 16 13 17 -60 10 -92 -8 -99 2 -43 56 19 19 35 42 35 52 0 15 -9 18 -57 18 -32 0 -66 -5 -76 -11z"/>
<path d="M6869 3032 c-122 -79 -204 -228 -169 -312 16 -40 56 -60 118 -60 50 0 137 25 148 42 12 20 -8 21 -65 3 -103 -31 -171 -9 -171 55 0 62 33 124 101 193 64 64 99 81 114 56 11 -16 -4 -97 -21 -113 -20 -20 -18 -36 6 -36 38 0 72 107 50 159 -10 24 -33 40 -61 41 -3 0 -25 -13 -50 -28z"/>
<path d="M1803 2991 c-41 -26 -78 -91 -97 -171 -35 -147 -12 -210 77 -210 48 0 179 42 185 59 6 17 -43 13 -98 -9 -69 -27 -116 -26 -131 2 -14 26 -6 121 15 194 17 55 78 127 103 122 29 -6 57 -56 56 -98 -2 -34 1 -40 18 -40 16 0 19 7 19 51 0 45 -4 55 -34 85 -39 39 -67 43 -113 15z"/>
<path d="M9777 2950 c-72 -66 -121 -176 -97 -219 29 -55 168 -71 269 -31 30 11 60 19 68 16 15 -6 18 -52 3 -61 -21 -13 -9 -41 26 -60 49 -26 62 -53 31 -60 -13 -4 -41 -5 -63 -3 -31 2 -39 7 -39 22 0 25 -19 31 -38 11 -35 -35 12 -65 102 -65 70 0 94 15 89 55 -2 22 -14 37 -41 54 -25 17 -34 28 -27 35 5 5 10 25 10 42 0 57 -68 83 -120 47 -16 -11 -50 -18 -104 -20 -87 -4 -128 8 -134 41 -6 28 55 141 94 175 67 59 101 25 49 -51 -30 -44 -31 -48 -5 -48 12 0 28 16 45 43 44 76 28 117 -45 117 -22 0 -43 -11 -73 -40z"/>
<path d="M3277 2951 c-82 -53 -138 -221 -91 -272 50 -55 150 -65 212 -20 57 40 30 58 -30 21 -39 -24 -78 -25 -118 -5 -42 21 -51 43 -39 94 14 61 43 114 81 146 l33 28 3 -27 c2 -15 -1 -41 -7 -58 -14 -41 -14 -48 4 -48 18 0 33 27 41 77 12 75 -29 104 -89 64z"/>
<path d="M4826 2906 c-56 -60 -107 -147 -113 -193 -6 -48 17 -72 84 -85 75 -14 247 31 221 58 -4 4 -34 -1 -66 -10 -70 -19 -161 -21 -186 -3 -14 10 -17 21 -11 45 12 56 119 202 148 202 16 0 -2 -81 -29 -127 -27 -47 -30 -63 -10 -63 23 0 66 75 75 131 11 67 1 89 -41 89 -24 0 -41 -10 -72 -44z"/>
<path d="M8330 2943 c-59 -21 -120 -128 -120 -210 0 -43 4 -55 25 -71 33 -26 112 -36 160 -20 69 23 54 37 -32 31 -97 -6 -117 5 -115 65 1 23 9 59 18 81 17 44 78 105 97 98 30 -11 -6 -97 -40 -97 -7 0 -13 -7 -13 -15 0 -23 44 -18 68 8 12 13 27 37 33 55 20 57 -23 96 -81 75z"/>
<path d="M2401 2871 c-36 -34 -79 -120 -89 -182 -9 -51 -20 -56 -56 -28 -29 22 -31 44 -11 107 10 30 -18 30 -39 0 -37 -52 0 -139 64 -153 23 -5 30 -12 30 -30 0 -52 40 -99 63 -76 6 6 4 16 -7 26 -9 9 -16 31 -16 50 0 27 5 35 30 45 94 39 175 204 124 254 -24 24 -58 19 -93 -13z m69 -33 c-1 -48 -32 -108 -76 -148 -36 -31 -39 -32 -42 -14 -7 50 73 194 107 194 6 0 11 -15 11 -32z"/>
<path d="M8886 2869 c-26 -21 -96 -153 -96 -183 0 -21 -38 -22 -46 -1 -4 9 -1 34 6 58 21 76 23 87 11 87 -28 0 -68 -111 -56 -157 3 -15 16 -25 38 -31 29 -7 32 -12 29 -41 -4 -39 21 -81 49 -81 11 0 19 3 17 8 -2 4 -10 19 -17 34 -20 39 -7 74 32 87 42 14 103 65 123 102 19 38 22 102 5 123 -19 22 -63 20 -95 -5z m69 -28 c11 -35 -18 -94 -63 -128 -24 -18 -48 -33 -53 -33 -21 0 28 113 66 154 28 31 42 33 50 7z"/>
<path d="M3908 2860 c-27 -21 -60 -88 -78 -163 -13 -49 -19 -54 -51 -37 -24 14 -24 43 2 99 14 32 16 47 9 55 -17 17 -47 -29 -61 -91 -11 -47 -10 -55 5 -72 10 -11 31 -23 47 -26 20 -5 29 -13 29 -26 0 -38 32 -99 51 -99 23 0 23 -1 4 43 -23 55 -20 84 10 91 42 11 122 95 134 143 23 84 -38 133 -101 83z m64 -78 c-11 -37 -79 -112 -101 -112 -22 0 45 163 71 173 7 2 19 -1 27 -9 12 -11 12 -20 3 -52z"/>
<path d="M9386 2872 c-2 -4 -8 -36 -12 -70 l-7 -62 -59 0 c-79 0 -75 -24 4 -28 55 -3 56 -3 62 -37 5 -25 12 -35 26 -35 16 0 18 5 13 33 -5 33 -5 33 49 43 36 6 53 14 53 24 0 8 -4 14 -10 14 -5 -1 -30 -5 -54 -9 l-44 -7 7 71 c6 60 5 71 -8 71 -8 0 -17 -4 -20 -8z"/>
<path d="M5483 2840 c-44 -26 -92 -95 -100 -142 -5 -33 -9 -39 -27 -36 -29 4 -33 44 -7 79 24 32 27 49 8 49 -23 0 -58 -45 -64 -83 -7 -43 6 -62 54 -82 21 -9 33 -21 33 -33 0 -25 36 -62 60 -62 25 0 25 12 1 34 -10 10 -21 26 -24 37 -4 15 2 21 32 29 83 22 150 86 165 156 6 27 3 35 -20 53 -33 26 -70 27 -111 1z m85 -23 c27 -32 -28 -110 -99 -142 -46 -21 -53 -17 -45 22 10 44 42 91 78 113 39 23 52 25 66 7z"/>
<path d="M2847 2843 c-4 -3 -7 -19 -7 -33 0 -15 -3 -42 -6 -59 -6 -30 -8 -31 -61 -31 -73 0 -68 -24 5 -28 50 -3 52 -4 52 -32 0 -38 9 -60 26 -60 10 0 14 14 14 49 0 48 0 48 41 55 52 8 48 32 -5 28 l-37 -3 7 60 c5 50 4 61 -8 61 -8 0 -18 -3 -21 -7z"/>
<path d="M7430 2837 c-30 -23 -70 -85 -86 -131 -13 -37 -20 -46 -39 -46 -51 0 -65 43 -39 128 5 17 2 22 -10 22 -30 0 -57 -91 -40 -135 7 -18 55 -45 81 -45 16 0 18 -9 18 -72 0 -61 3 -73 18 -76 15 -3 17 5 17 55 0 77 8 100 34 107 12 3 40 21 62 40 48 41 74 109 55 145 -13 23 -47 27 -71 8z m26 -86 c-17 -32 -76 -80 -76 -61 0 19 31 74 59 103 24 27 26 27 29 8 2 -11 -4 -33 -12 -50z"/>
<path d="M7901 2816 c-7 -9 -19 -35 -26 -58 -11 -38 -15 -43 -39 -40 -34 4 -36 -25 -2 -34 21 -5 25 -13 28 -52 2 -34 7 -47 18 -47 11 0 16 14 20 50 l5 50 47 7 c52 7 68 14 68 30 0 6 -21 8 -61 3 l-60 -7 16 38 c10 22 18 45 19 53 2 20 -19 24 -33 7z"/>
<path d="M10478 2812 c-38 -25 -68 -66 -94 -131 -25 -60 -36 -68 -77 -52 -32 13 -34 33 -7 84 24 44 25 57 6 57 -19 0 -56 -60 -62 -102 -7 -42 18 -68 75 -75 40 -5 41 -7 41 -43 0 -41 24 -70 58 -70 27 0 28 11 2 28 -14 9 -20 23 -20 51 0 35 3 40 29 46 44 10 119 61 141 97 52 86 -12 163 -92 110z m72 -52 c0 -15 -9 -39 -21 -54 -23 -29 -119 -82 -119 -66 0 24 51 109 80 133 36 31 60 26 60 -13z"/>
<path d="M4391 2789 c-6 -18 -11 -43 -11 -55 0 -21 -5 -24 -36 -24 -42 0 -43 -23 -1 -28 26 -3 26 -5 24 -70 -2 -56 1 -67 16 -70 13 -3 17 3 17 30 0 18 3 49 6 68 5 33 9 35 46 38 44 3 78 17 78 32 0 6 -22 8 -56 4 l-57 -7 6 34 c3 19 8 44 12 57 6 18 4 22 -13 22 -14 0 -24 -10 -31 -31z"/>
<path d="M6143 2773 c-85 -3 -103 -6 -103 -19 0 -14 18 -15 138 -12 136 3 179 11 151 29 -8 5 -30 8 -49 7 -19 -1 -81 -4 -137 -5z"/>
<path d="M5047 2713 c-16 -15 -7 -35 13 -30 26 7 38 -13 17 -28 -21 -15 -22 -45 -3 -45 8 0 28 -11 43 -25 24 -21 26 -26 13 -35 -22 -15 -75 -8 -75 10 0 21 -25 19 -39 -3 -16 -26 16 -47 70 -47 64 0 94 15 94 45 0 24 -42 75 -62 75 -4 0 -3 9 4 19 9 15 8 24 -5 45 -17 25 -55 35 -70 19z"/>
<path d="M3498 2698 c-16 -5 -28 -16 -28 -24 0 -17 10 -17 46 -4 18 7 31 7 37 1 14 -14 -7 -38 -55 -62 -69 -35 -41 -63 57 -57 63 4 74 28 13 28 l-43 0 33 21 c43 28 53 66 22 91 -25 20 -42 21 -82 6z"/>
<path d="M6085 2680 c-3 -5 0 -13 8 -15 24 -10 232 -1 230 10 -4 14 -229 19 -238 5z"/>
<path d="M7040 2650 c-27 -54 -31 -113 -7 -118 13 -3 17 3 17 26 0 16 11 50 25 76 30 57 30 56 5 56 -13 0 -27 -14 -40 -40z"/>
<path d="M8473 2683 c-7 -2 -13 -12 -13 -20 0 -12 7 -14 35 -9 27 5 37 3 41 -9 8 -20 -11 -42 -58 -66 -75 -39 -37 -75 71 -67 70 5 65 28 -6 29 -49 0 -55 2 -39 12 77 49 96 92 54 121 -22 16 -60 20 -85 9z"/>
<path d="M2053 2673 c-18 -6 -49 -151 -36 -164 14 -14 33 -3 33 19 0 10 7 44 15 77 15 57 12 77 -12 68z"/>
<path d="M5653 2668 c-13 -6 -23 -18 -23 -26 0 -10 6 -12 23 -7 60 18 67 18 67 -4 0 -13 -10 -26 -25 -33 -37 -16 -27 -39 23 -53 48 -15 92 -41 92 -55 0 -14 -107 -12 -130 3 -28 17 -49 -11 -23 -30 17 -13 148 -18 177 -7 31 12 18 52 -26 84 -22 16 -47 30 -55 30 -15 0 -18 16 -3 25 14 9 13 58 -2 73 -15 15 -65 15 -95 0z"/>
<path d="M10680 2658 c-19 -5 -54 -24 -77 -41 -34 -26 -42 -38 -43 -64 -1 -98 168 -109 250 -17 16 19 30 46 30 59 0 31 -33 65 -62 65 -13 0 -32 2 -43 4 -11 3 -36 0 -55 -6z m104 -34 c41 -16 -3 -89 -68 -114 -34 -12 -90 -4 -107 16 -17 21 3 59 43 84 32 19 99 27 132 14z"/>
<path d="M7605 2649 c-34 -19 -75 -71 -75 -95 0 -64 94 -88 142 -36 49 53 61 98 32 126 -18 18 -70 21 -99 5z m73 -45 c7 -46 -81 -109 -103 -74 -3 6 1 10 10 10 14 0 16 6 10 27 -5 21 -1 31 17 45 30 23 62 19 66 -8z"/>
<path d="M9000 2624 c-19 -7 -42 -16 -51 -19 -20 -8 -39 -47 -39 -79 0 -36 34 -59 93 -63 92 -7 179 56 164 119 -11 42 -105 66 -167 42z m125 -44 c17 -18 16 -20 -12 -49 -17 -16 -46 -33 -66 -36 -83 -16 -127 35 -70 81 38 31 121 34 148 4z"/>
<path d="M4017 2623 c-42 -6 -27 -28 22 -31 l42 -3 -26 -31 c-14 -17 -24 -36 -22 -42 6 -16 141 -13 161 3 23 19 20 34 -6 28 -13 -3 -40 -9 -62 -13 l-39 -7 22 30 c25 33 20 58 -12 67 -23 6 -33 6 -80 -1z"/>
<path d="M2495 2611 c-3 -6 -9 -42 -12 -81 -5 -59 -3 -70 11 -76 9 -4 18 -5 20 -3 2 2 5 40 7 83 3 54 0 80 -8 83 -6 2 -14 -1 -18 -6z"/>
<path d="M7128 1688 c-54 -59 -98 -151 -98 -205 0 -87 87 -130 206 -104 54 13 105 43 92 56 -4 4 -38 -2 -76 -14 -157 -51 -225 21 -152 158 34 63 82 121 101 121 18 0 3 -84 -23 -130 -13 -21 -20 -42 -16 -46 33 -33 101 113 84 181 -5 21 -12 25 -43 25 -30 0 -43 -7 -75 -42z"/>
<path d="M5218 1687 c-80 -61 -134 -184 -108 -246 26 -64 147 -81 240 -33 54 27 76 52 46 52 -8 0 -34 -10 -57 -22 -75 -39 -164 -33 -193 14 -25 41 41 176 108 217 66 41 86 14 45 -63 -15 -29 -18 -41 -9 -50 28 -28 83 94 62 139 -18 38 -77 35 -134 -8z"/>
<path d="M3554 1654 c-64 -43 -95 -76 -120 -129 -28 -59 -29 -83 -6 -111 47 -59 158 -67 315 -22 44 13 53 44 10 35 -16 -4 -57 -13 -93 -20 -81 -18 -163 -9 -192 20 -68 69 117 255 216 217 11 -4 16 -19 16 -46 0 -32 3 -39 18 -36 27 5 29 71 3 97 -32 32 -116 29 -167 -5z"/>
<path d="M6016 1587 c-35 -36 -50 -60 -63 -107 -16 -58 -18 -61 -42 -55 -57 14 -79 68 -46 111 19 25 19 44 0 44 -20 0 -55 -58 -55 -92 0 -40 45 -87 91 -94 21 -4 39 -11 39 -16 0 -19 50 -58 74 -58 39 0 40 18 1 34 -19 8 -35 19 -35 23 0 5 24 17 53 27 31 11 69 35 95 61 35 36 42 49 42 82 0 48 -22 71 -73 80 -32 5 -40 1 -81 -40z m103 -6 c43 -43 -9 -111 -115 -151 -25 -10 -25 -9 -19 22 11 49 41 104 71 127 33 26 39 26 63 2z"/>
<path d="M4243 1601 c-39 -24 -83 -97 -98 -165 -11 -45 -15 -51 -36 -48 -13 1 -32 12 -42 24 -18 22 -18 35 -1 96 5 16 2 22 -10 22 -22 0 -49 -65 -41 -97 8 -34 49 -72 84 -79 22 -5 33 -15 41 -37 13 -40 38 -67 62 -67 23 0 23 8 -1 34 -10 12 -22 31 -25 43 -6 18 -1 23 27 32 108 36 193 185 137 241 -25 25 -56 25 -97 1z m71 -59 c0 -28 -9 -52 -27 -75 -29 -38 -94 -83 -105 -73 -10 11 18 99 44 137 25 36 60 60 79 55 6 -2 10 -21 9 -44z"/>
<path d="M7984 1566 c-58 -26 -89 -70 -108 -158 -6 -25 -11 -28 -44 -28 -74 0 -104 50 -62 103 25 31 25 37 1 37 -26 0 -61 -46 -61 -81 0 -48 38 -80 103 -88 48 -5 60 -10 70 -31 7 -14 23 -26 35 -28 25 -4 27 5 7 32 -21 27 -19 33 12 40 48 13 110 64 133 111 25 52 20 82 -17 96 -30 11 -31 11 -69 -5z m61 -53 c-3 -16 -21 -43 -38 -61 -31 -33 -85 -67 -93 -60 -10 10 20 82 48 113 22 25 38 35 60 35 28 0 30 -2 23 -27z"/>
<path d="M4727 1553 c-4 -3 -7 -26 -7 -51 0 -44 0 -44 -32 -39 -18 3 -43 8 -55 12 -17 6 -23 3 -23 -8 0 -21 30 -37 68 -37 25 0 30 -5 36 -30 4 -21 11 -30 26 -30 16 0 19 5 14 30 -6 27 -4 30 17 30 13 0 30 4 38 9 21 13 3 32 -25 25 -23 -6 -24 -4 -24 45 0 36 -4 51 -13 51 -8 0 -17 -3 -20 -7z"/>
<path d="M6682 1508 l-20 -53 -58 -5 c-78 -7 -86 -30 -10 -30 l56 0 0 -35 c0 -47 27 -48 36 0 6 34 6 34 67 37 37 2 62 8 65 16 3 9 -13 12 -57 12 l-60 0 14 41 c19 52 19 69 1 69 -8 0 -23 -23 -34 -52z"/>
<path d="M8185 1467 c-23 -18 -5 -32 30 -23 36 9 40 -11 5 -29 -37 -19 -38 -33 -2 -40 38 -8 95 -38 100 -52 2 -9 -18 -13 -70 -15 -58 -2 -73 -6 -76 -19 -3 -14 7 -16 70 -12 106 6 118 10 118 36 0 24 -28 56 -68 76 -18 10 -21 15 -12 26 35 42 -46 87 -95 52z"/>
<path d="M5483 1463 c-7 -2 -13 -12 -13 -20 0 -12 7 -14 31 -9 30 6 59 -6 59 -24 0 -5 -20 -20 -45 -34 -78 -46 -50 -79 63 -74 84 4 84 21 0 28 l-63 5 37 23 c57 35 62 78 12 101 -26 11 -59 13 -81 4z"/>
<path d="M7424 1460 c-28 -11 -39 -29 -27 -41 6 -6 21 -3 41 8 25 14 34 15 44 5 10 -10 6 -18 -19 -40 -16 -15 -39 -32 -49 -38 -29 -17 -24 -46 11 -56 40 -10 132 1 146 19 14 15 -10 48 -42 58 -15 5 -17 10 -9 25 14 26 13 36 -6 54 -17 17 -56 20 -90 6z m103 -124 c4 -3 -15 -6 -40 -6 -35 0 -45 3 -41 14 4 10 14 12 40 6 20 -5 38 -11 41 -14z"/>
<path d="M2175 1415 c-34 -35 -56 -89 -76 -182 -13 -62 -24 -65 -73 -22 -52 45 -56 81 -21 197 6 18 3 22 -12 22 -25 0 -41 -35 -49 -103 -8 -72 24 -132 89 -165 l47 -24 -2 -72 c-2 -77 11 -116 41 -116 17 0 18 3 5 40 -9 27 -12 59 -8 94 6 53 7 54 44 60 20 3 55 19 77 35 109 79 113 271 6 271 -28 0 -43 -8 -68 -35z m93 -7 c21 -21 14 -107 -12 -153 -24 -41 -107 -97 -121 -83 -4 4 -1 33 5 65 28 134 86 213 128 171z"/>
<path d="M3853 1423 c-24 -36 -26 -148 -3 -148 11 0 16 15 20 55 3 30 11 65 18 77 7 12 12 26 12 32 0 21 -30 11 -47 -16z"/>
<path d="M4375 1396 c-22 -33 -31 -121 -15 -141 25 -30 40 -18 34 28 -4 28 -1 55 10 81 23 55 2 79 -29 32z"/>
<path d="M6188 1414 c-15 -15 -8 -24 20 -24 15 0 34 -5 42 -10 13 -9 10 -15 -17 -39 -44 -41 -56 -66 -39 -80 19 -16 188 -10 194 7 3 9 -17 12 -78 12 l-82 0 36 40 c39 44 44 61 21 80 -17 14 -87 25 -97 14z"/>
<path d="M2586 1361 c-3 -4 4 -17 15 -27 18 -16 37 -19 130 -19 141 0 150 18 12 25 -62 3 -107 10 -115 18 -14 14 -34 16 -42 3z"/>
<path d="M3380 1246 c0 -15 14 -17 390 -38 156 -10 486 -12 1200 -9 1610 7 2150 6 2843 -3 581 -8 657 -7 657 6 0 29 -1116 37 -3590 27 -749 -3 -929 -1 -1169 14 -343 21 -331 20 -331 3z"/>
<path d="M2815 1244 c-6 -2 -50 -7 -98 -12 -50 -4 -86 -11 -85 -17 4 -14 179 -10 206 4 33 18 12 40 -23 25z"/>
<path d="M2344 1120 c-40 -16 -63 -56 -57 -103 10 -85 86 -102 151 -32 43 46 47 96 10 128 -21 18 -69 21 -104 7z m81 -36 c36 -36 -37 -130 -83 -105 -14 7 -17 19 -14 50 6 62 60 92 97 55z"/>
<path d="M5445 1021 c-76 -54 -137 -194 -114 -260 23 -66 149 -88 242 -42 26 12 47 29 47 37 0 19 -14 18 -58 -5 -66 -33 -142 -32 -178 4 -21 21 -24 31 -18 62 16 90 108 208 157 201 19 -3 22 -9 22 -53 0 -39 3 -49 15 -47 21 5 30 22 30 57 0 77 -70 99 -145 46z"/>
<path d="M6555 1011 c-46 -27 -114 -109 -126 -150 -24 -80 9 -119 107 -128 68 -6 167 11 185 33 20 24 5 26 -62 9 -67 -18 -161 -14 -186 7 -21 17 -15 61 16 109 33 53 97 109 125 109 16 0 18 -5 12 -32 -11 -62 -11 -71 2 -75 14 -5 42 54 42 91 0 46 -62 60 -115 27z"/>
<path d="M4530 994 c-86 -49 -143 -122 -155 -199 -17 -101 100 -128 262 -60 26 11 34 18 26 26 -8 8 -29 6 -74 -10 -68 -23 -129 -27 -160 -11 -73 40 82 250 185 250 31 0 55 -24 63 -61 7 -34 20 -46 36 -30 16 16 -9 86 -38 105 -36 24 -93 20 -145 -10z"/>
<path d="M6180 921 l0 -50 -62 -3 c-35 -2 -63 -7 -63 -13 0 -5 28 -11 63 -13 l62 -3 0 -54 c0 -41 4 -55 14 -55 10 0 17 17 21 55 7 51 9 55 34 55 40 0 72 11 68 24 -2 7 -22 10 -50 8 l-46 -4 -3 49 c-2 36 -7 49 -20 51 -15 3 -18 -4 -18 -47z"/>
<path d="M5067 903 c-4 -3 -7 -21 -7 -40 0 -33 0 -33 -50 -33 -38 0 -50 -4 -50 -15 0 -11 12 -15 50 -15 l50 0 0 -48 c0 -47 12 -72 35 -72 8 0 10 20 7 59 -4 59 -4 59 24 63 39 4 44 28 5 28 -29 0 -31 2 -31 40 0 38 -14 52 -33 33z"/>
<path d="M5723 813 c-7 -2 -13 -11 -13 -18 0 -10 12 -13 43 -12 58 3 55 -18 -10 -67 -86 -63 -65 -99 54 -94 42 2 68 8 71 16 3 9 -14 12 -62 12 -35 0 -68 5 -71 10 -3 6 -2 10 3 10 18 0 102 82 102 100 0 30 -28 50 -68 49 -20 0 -43 -3 -49 -6z"/>
<path d="M6833 808 c-13 -6 -23 -17 -23 -25 0 -16 10 -16 46 -3 44 17 53 -4 18 -41 -27 -29 -28 -32 -10 -43 115 -70 125 -104 33 -120 -49 -9 -77 0 -77 25 0 14 -6 19 -17 17 -28 -5 -23 -50 7 -66 31 -16 116 -10 159 12 55 29 32 94 -47 135 -23 12 -23 12 -2 38 24 31 25 46 4 67 -18 18 -58 20 -91 4z"/>
<path d="M4796 773 c-3 -10 -8 -56 -12 -101 -6 -79 -6 -84 12 -80 14 2 21 15 26 53 12 91 9 145 -6 145 -8 0 -17 -8 -20 -17z"/>
</g><g transform="translate(1106.0, 1249.3367545993842) scale(0.40808740102544044)"><g transform="translate(-57.706759,297.537395) scale(0.100000,-0.100000)" fill="#4444bb" stroke="none">
<path d="M750 2973 c-57 -10 -88 -25 -119 -57 -40 -41 -55 -100 -46 -179 6 -45 12 -61 32 -77 32 -25 35 -25 64 -1 22 17 24 26 21 89 -4 105 24 120 164 87 33 -7 119 -19 190 -25 88 -8 134 -16 144 -26 32 -32 8 -420 -28 -456 -18 -18 -126 -28 -289 -28 -185 0 -206 -4 -250 -52 -55 -58 -58 -82 -55 -363 1 -145 7 -274 13 -293 11 -34 51 -62 89 -62 12 0 35 14 52 31 l31 30 -6 238 c-3 130 -3 249 0 264 l5 27 112 0 c234 1 363 26 423 82 58 54 98 260 91 463 -4 122 -7 138 -34 191 -40 81 -79 100 -217 108 -174 10 -361 14 -387 9z" fill="#4444bb"/>
<path d="M3660 2971 c-42 -9 -83 -34 -103 -65 -39 -59 -50 -127 -54 -343 -5 -206 -5 -212 18 -252 28 -50 78 -86 143 -102 48 -12 257 -8 370 7 l49 7 -7 -104 c-4 -57 -11 -189 -16 -294 -9 -177 -9 -192 8 -214 35 -47 100 -46 136 2 22 29 27 86 42 452 7 191 0 235 -44 283 -45 48 -92 56 -241 38 -146 -18 -229 -20 -265 -6 l-26 10 0 162 c0 156 8 230 27 249 5 5 99 6 210 2 l201 -6 5 -50 c3 -39 11 -56 31 -74 34 -29 48 -29 80 0 24 20 26 30 28 113 4 147 -23 169 -218 179 -242 11 -340 13 -374 6z" fill="#4444bb"/>
<path d="M1565 2945 c-14 -13 -25 -32 -25 -42 0 -10 -1 -297 -3 -638 -2 -677 -3 -662 55 -694 33 -19 73 -7 101 31 18 24 20 51 29 300 5 150 10 278 12 283 2 6 37 8 97 3 52 -3 135 -7 186 -7 154 -2 161 -10 143 -176 -21 -189 -27 -310 -18 -343 12 -45 45 -72 86 -72 71 0 102 46 102 151 0 33 7 118 16 187 24 190 9 280 -58 349 -50 52 -112 67 -263 65 -71 -1 -164 -6 -205 -11 -41 -4 -78 -7 -81 -5 -4 2 -10 108 -13 236 -9 286 -17 352 -47 384 -31 33 -82 32 -114 -1z" fill="#4444bb"/>
<path d="M2542 2944 c-55 -38 -64 -109 -53 -419 6 -186 9 -215 28 -250 50 -95 116 -125 302 -135 75 -4 171 -5 215 -1 l78 7 -4 -178 c-2 -97 -7 -181 -11 -184 -4 -4 -42 1 -85 11 -104 26 -285 27 -363 3 -106 -33 -149 -107 -99 -170 26 -34 68 -41 132 -21 74 23 202 20 308 -7 182 -47 274 5 301 168 12 77 27 831 19 994 -7 152 -20 181 -86 186 -88 7 -103 -51 -104 -401 l0 -219 -201 4 c-197 3 -201 3 -220 27 -18 21 -19 42 -19 283 l0 260 -29 29 c-33 33 -74 38 -109 13z" fill="#4444bb"/>
<path d="M2374 1391 c-55 -34 -79 -78 -79 -147 0 -51 4 -66 27 -96 35 -45 102 -73 153 -64 78 15 146 111 131 188 -20 108 -145 172 -232 119z" fill="#4444bb"/>
<path d="M1853 999 c-39 -11 -66 -56 -61 -101 6 -59 69 -64 76 -6 4 30 34 38 145 38 l67 0 0 -110 c0 -135 -1 -136 -132 -126 -85 6 -89 6 -113 -18 -24 -25 -25 -28 -25 -179 0 -162 4 -177 47 -177 35 0 43 29 43 159 l0 121 73 0 c85 0 141 14 168 41 17 17 19 34 19 169 0 147 -1 152 -25 175 -23 24 -30 25 -137 24 -62 0 -128 -5 -145 -10z" fill="#4444bb"/>
<path d="M2985 1000 c-91 -16 -93 -18 -104 -58 -15 -51 -14 -537 0 -564 19 -36 69 -48 204 -48 121 0 127 1 151 25 l24 24 -2 292 -3 292 -26 19 c-31 23 -161 33 -244 18z m169 -86 c14 -5 16 -37 16 -250 l0 -245 -102 3 -103 3 0 240 0 240 40 6 c57 9 131 10 149 3z" fill="#4444bb"/>
<path d="M2351 971 c-24 -24 -29 -73 -37 -372 -6 -232 -6 -237 15 -258 23 -23 29 -25 51 -11 12 7 16 40 20 150 l5 141 35 -23 c19 -13 59 -55 88 -93 30 -39 78 -96 108 -128 47 -51 56 -57 74 -47 29 16 25 42 -15 92 -19 24 -62 78 -95 121 -61 77 -61 77 -33 77 15 0 46 9 69 19 56 26 67 57 62 179 -6 156 -27 172 -220 172 -93 0 -111 -3 -127 -19z m257 -74 c16 -13 17 -168 0 -185 -7 -7 -41 -12 -84 -12 -40 0 -84 -4 -98 -10 l-26 -10 0 120 0 119 98 -6 c53 -3 103 -10 110 -16z" fill="#4444bb"/>
</g>
</g>
</svg>
