<svg xmlns="http://www.w3.org/2000/svg" version="1.0" width="1162.045235pt" height="501.000000pt" viewBox="0 0 1162.045235 501.000000" preserveAspectRatio="xMidYMid meet">
<metadata>
Created by potrace 1.16, written by Peter Selinger 2001-2019
</metadata>
<g transform="translate(-19.655936,508.000000) scale(0.100000,-0.100000)" fill="#000000" stroke="none">
<path d="M358 5058 c-8 -13 -24 -44 -36 -70 -20 -47 -21 -47 -74 -50 -65 -4 -70 -21 -8 -29 25 -3 35 -7 23 -7 -22 -2 -34 -32 -12 -32 5 0 9 -10 7 -22 -4 -32 28 -36 36 -5 6 27 30 37 90 37 33 0 37 -3 31 -17 -4 -10 -10 -30 -13 -45 -7 -44 17 -33 39 17 11 25 24 45 30 45 5 0 9 6 8 13 -1 6 0 19 3 27 44 118 44 120 22 120 -9 0 -24 -20 -36 -50 l-21 -50 -53 0 -54 0 15 38 c9 20 23 47 31 60 14 22 12 42 -5 42 -5 0 -15 -10 -23 -22z"/>
<path d="M907 5029 c-28 -25 -40 -69 -20 -76 6 -2 14 5 18 16 11 35 35 51 74 51 50 0 81 -29 81 -77 0 -30 -8 -44 -45 -79 -66 -64 -145 -71 -145 -13 0 11 -4 19 -10 19 -14 0 -12 -54 2 -68 23 -23 101 -14 150 17 59 38 81 71 82 126 1 63 -33 97 -107 103 -46 4 -57 1 -80 -19z"/>
<path d="M4358 5024 c-35 -19 -60 -66 -56 -107 l3 -32 -92 -3 c-90 -3 -118 -13 -70 -26 32 -9 118 -7 152 2 53 16 59 2 15 -36 -68 -57 -74 -102 -18 -121 37 -13 195 -15 202 -2 9 15 -21 21 -102 21 -42 0 -84 5 -92 10 -23 14 9 60 62 88 51 27 58 39 27 51 -23 8 -23 8 8 24 67 35 93 102 51 131 -28 20 -55 20 -90 0z m76 -30 c9 -22 -10 -52 -47 -74 -43 -27 -47 -25 -47 14 0 25 7 40 26 55 32 25 60 27 68 5z"/>
<path d="M1197 5016 c-57 -21 -87 -53 -87 -92 0 -23 6 -37 19 -44 24 -12 138 -13 145 -1 9 13 -19 21 -74 21 -54 0 -66 10 -50 40 26 48 123 71 158 37 21 -22 6 -72 -36 -119 -51 -56 -85 -72 -143 -64 -40 5 -48 4 -43 -8 12 -32 95 -35 144 -5 81 49 120 103 120 168 0 31 -5 44 -22 55 -35 22 -89 27 -131 12z"/>
<path d="M635 5003 c-47 -24 -65 -44 -65 -69 0 -30 30 -38 121 -32 41 3 69 1 69 -4 0 -21 -41 -66 -74 -82 -20 -9 -59 -16 -95 -16 -61 0 -81 -12 -38 -24 89 -24 193 19 233 96 21 40 18 104 -6 128 -25 25 -101 27 -145 3z m125 -32 c19 -37 12 -41 -76 -41 -91 0 -97 6 -40 41 42 25 102 25 116 0z"/>
<path d="M9766 4859 c-10 -53 -7 -69 13 -69 13 0 21 8 23 23 3 20 5 19 25 -13 39 -64 38 -79 -15 -137 l-47 -52 -150 -8 -150 -8 -7 -50 c-13 -83 -14 -615 -1 -667 l10 -48 -82 0 c-115 0 -175 -9 -175 -27 0 -12 11 -14 58 -9 31 3 155 8 275 12 155 5 217 10 214 18 -3 7 -45 11 -130 11 l-126 0 -5 35 c-15 106 -17 187 -11 430 l7 268 142 6 c155 8 176 11 176 30 0 7 15 27 33 44 l34 33 16 -68 c9 -37 19 -92 23 -121 4 -32 11 -51 18 -49 16 6 9 121 -12 199 l-19 66 46 39 c25 22 60 50 78 63 31 22 35 40 9 40 -6 0 -42 -25 -78 -55 -64 -52 -67 -53 -74 -32 -4 12 -15 34 -25 49 -25 35 -24 36 14 40 l32 4 -37 17 c-21 9 -50 17 -66 17 -25 0 -30 -5 -36 -31z"/>
<path d="M2727 4828 c-34 -27 -47 -85 -62 -295 -15 -224 -37 -335 -93 -473 l-31 -75 27 -22 c24 -20 27 -30 30 -103 2 -44 -4 -155 -13 -247 -28 -266 -12 -409 54 -467 30 -27 34 -16 11 36 -10 24 -24 86 -30 137 -10 90 -8 135 20 410 13 117 5 181 -28 229 -22 32 -23 40 -13 67 73 185 99 308 111 528 10 176 18 222 45 263 12 19 13 24 2 24 -7 0 -21 -6 -30 -12z"/>
<path d="M3145 4800 c-3 -5 0 -13 8 -15 24 -10 202 -1 202 10 0 14 -201 19 -210 5z"/>
<path d="M3246 4743 c-21 -42 -57 -164 -50 -174 13 -21 32 -7 39 28 4 21 18 65 31 97 28 70 29 76 9 76 -8 0 -21 -12 -29 -27z"/>
<path d="M650 4670 c-135 -4 -264 -8 -288 -9 -29 -1 -41 -5 -36 -12 5 -8 150 -10 538 -5 292 4 552 9 579 12 191 23 -212 30 -793 14z"/>
<path d="M3432 4640 c3 -12 26 -16 121 -18 78 -2 117 1 117 8 0 16 -16 19 -133 22 -91 3 -107 1 -105 -12z"/>
<path d="M10350 4625 c-10 -12 -42 -15 -166 -15 -130 0 -154 -2 -154 -15 0 -13 24 -15 153 -15 114 -1 157 -4 170 -15 18 -13 19 -30 15 -277 l-3 -263 44 -6 c58 -8 91 -44 91 -100 0 -38 -12 -51 -26 -28 -10 16 -107 6 -138 -14 -30 -20 -36 -76 -11 -97 20 -17 91 -5 135 21 33 20 34 20 47 3 19 -26 26 -60 19 -88 -6 -23 -7 -23 -43 -11 -25 9 -53 11 -80 5 -57 -10 -76 -27 -68 -59 15 -58 49 -65 131 -27 l52 24 11 -24 c6 -14 11 -33 11 -44 0 -25 -49 -63 -69 -54 -58 25 -127 8 -137 -32 -12 -48 32 -64 102 -37 20 7 18 -32 -6 -125 -23 -93 -28 -186 -16 -353 6 -89 5 -128 -2 -133 -8 -5 -499 -11 -893 -11 0 0 -4 142 -9 315 -5 173 -12 356 -16 407 l-7 92 59 3 c33 2 58 7 57 13 -4 16 -285 13 -290 -2 -4 -10 14 -13 65 -13 l69 0 11 -138 c7 -76 12 -196 12 -268 0 -180 11 -410 21 -426 7 -10 96 -13 449 -13 410 0 442 -1 451 -17 10 -19 63 -25 73 -9 3 4 175 11 383 15 208 4 390 9 406 12 32 7 37 34 6 34 -15 0 -19 4 -12 13 5 6 10 98 12 202 2 105 5 192 8 195 3 3 37 5 76 5 l72 0 3 185 c2 102 6 231 10 288 4 57 5 108 1 114 -9 14 -80 27 -151 28 l-58 0 0 372 0 371 -386 -6 c-375 -6 -387 -6 -412 13 -30 24 -55 25 -72 5z m830 -400 l0 -355 -110 0 -110 0 0 -52 c0 -99 20 -384 33 -474 l13 -89 107 -3 107 -3 0 -184 c0 -112 -4 -186 -10 -190 -5 -3 -10 -14 -10 -24 0 -16 -20 -18 -257 -24 -403 -11 -441 -10 -462 11 -15 14 -21 46 -31 170 -13 163 -11 206 21 340 11 47 18 95 15 107 -4 17 4 28 38 52 53 38 65 76 40 124 -14 27 -15 38 -5 66 13 36 3 92 -24 130 -13 18 -14 27 -4 44 7 13 8 39 4 67 -8 56 -47 98 -99 107 l-36 7 2 257 3 256 150 3 c82 1 151 5 154 7 2 3 109 5 238 5 l233 0 0 -355z m-721 -369 c9 -11 3 -18 -32 -35 -24 -12 -50 -21 -59 -21 -18 0 -31 26 -22 42 17 27 95 36 113 14z m934 -26 c3 -3 1 -59 -5 -125 -5 -66 -7 -187 -4 -270 l6 -150 -173 -4 -174 -3 -12 63 c-14 77 -19 144 -25 348 l-5 153 194 -3 c106 -2 196 -6 198 -9z m-913 -158 c0 -10 -65 -42 -85 -42 -18 0 -28 17 -21 35 6 16 106 22 106 7z m-40 -172 c0 -13 -64 -29 -69 -17 -2 5 3 13 10 18 19 12 59 11 59 -1z"/>
<path d="M4120 4611 c0 -15 74 -20 322 -23 154 -2 238 1 238 7 1 6 -19 13 -42 17 -65 10 -518 9 -518 -1z"/>
<path d="M3452 4568 c3 -9 32 -14 84 -16 85 -3 124 3 124 18 0 6 -43 10 -106 10 -80 0 -105 -3 -102 -12z"/>
<path d="M3175 4543 c-53 -6 -75 -13 -75 -23 0 -21 180 -4 188 18 4 12 -41 14 -113 5z"/>
<path d="M539 4507 c-43 -29 -79 -82 -79 -118 0 -26 -4 -29 -30 -29 -16 0 -30 5 -30 10 0 6 -11 10 -25 10 -18 0 -25 -5 -25 -19 0 -24 19 -31 86 -31 30 0 63 -5 73 -12 18 -11 17 -13 -10 -51 -51 -71 -35 -127 37 -127 37 0 195 48 212 65 26 24 -3 23 -93 -6 -49 -15 -102 -28 -117 -28 -24 -1 -28 3 -28 26 0 31 41 89 70 98 32 10 23 31 -17 41 l-38 10 42 22 c75 39 123 118 91 150 -20 20 -82 14 -119 -11z m91 -21 c0 -23 -49 -75 -91 -97 l-39 -19 0 26 c0 36 68 104 104 104 16 0 26 -6 26 -14z"/>
<path d="M1556 4508 c-3 -13 -11 -106 -17 -208 -14 -222 -7 -662 16 -1060 9 -157 19 -408 23 -559 5 -198 10 -275 19 -278 7 -3 15 11 19 34 8 42 -9 543 -32 938 -13 235 -20 926 -10 944 10 15 8 205 -1 208 -6 2 -13 -6 -17 -19z"/>
<path d="M4293 4498 c-37 -40 -56 -75 -48 -88 11 -18 23 -10 50 36 25 43 28 45 45 29 10 -9 29 -19 43 -23 l26 -7 -36 -57 c-47 -76 -50 -126 -9 -147 46 -22 210 8 184 34 -3 3 -36 1 -73 -5 -76 -12 -105 -7 -105 19 0 23 43 105 81 152 15 20 26 39 22 43 -4 3 -27 3 -53 0 -42 -6 -47 -4 -58 20 -15 34 -32 33 -69 -6z"/>
<path d="M1019 4471 c-13 -10 -32 -33 -42 -49 -28 -48 -1 -52 38 -6 36 43 35 43 59 -3 10 -19 27 -35 42 -39 17 -4 23 -11 19 -22 -6 -18 -22 -84 -29 -129 -6 -36 13 -63 44 -63 11 0 53 14 95 30 42 17 82 30 90 30 8 0 15 7 15 15 0 22 -31 18 -115 -15 -42 -16 -80 -30 -86 -30 -15 0 -3 76 23 158 12 34 18 65 14 69 -3 3 -18 0 -32 -8 -29 -15 -31 -13 -66 50 -20 36 -36 39 -69 12z"/>
<path d="M9178 4159 c-47 -50 -49 -51 -95 -46 -27 2 -58 8 -70 12 -18 6 -23 3 -23 -9 0 -22 40 -36 101 -36 43 0 49 -3 49 -21 0 -12 8 -23 20 -26 15 -4 17 -9 10 -23 -14 -25 -13 -63 2 -78 13 -13 126 -16 166 -6 13 4 21 12 19 18 -2 7 -30 10 -79 7 -48 -2 -78 1 -83 8 -3 6 3 26 14 45 28 45 26 56 -8 56 -24 0 -28 3 -24 20 3 11 10 20 16 20 20 0 99 45 108 61 12 23 -14 49 -49 49 -18 0 -40 -15 -74 -51z m78 6 c-26 -19 -42 -19 -26 0 7 8 20 15 29 15 13 -1 13 -3 -3 -15z"/>
<path d="M880 4142 c0 -23 -9 -51 -25 -74 -28 -41 -17 -62 17 -31 27 23 48 74 48 113 0 23 -4 30 -20 30 -16 0 -20 -7 -20 -38z"/>
<path d="M3745 4003 c-11 -2 -30 -6 -42 -9 -43 -9 -24 -25 27 -23 27 2 52 0 56 -3 3 -4 -15 -18 -41 -33 -74 -44 -57 -64 68 -79 39 -5 57 -4 57 4 0 14 -43 30 -81 30 -37 0 -37 11 1 33 39 23 41 63 4 77 -14 6 -26 9 -27 9 -1 -1 -11 -3 -22 -6z"/>
<path d="M1026 3951 c-11 -18 -67 -304 -62 -318 5 -11 33 -13 143 -11 l138 3 0 35 c0 26 -5 36 -19 38 -15 3 -18 -1 -14 -22 l5 -26 -108 0 c-60 0 -109 3 -109 8 0 4 13 70 29 147 16 77 27 143 24 148 -6 10 -21 9 -27 -2z"/>
<path d="M553 3929 c-60 -30 -96 -74 -90 -113 2 -17 -6 -61 -19 -100 -13 -38 -24 -80 -24 -94 0 -48 26 -14 58 79 18 52 37 96 42 97 13 5 13 39 -1 47 -7 5 -4 14 8 27 44 49 133 65 153 28 19 -36 -26 -84 -124 -131 -53 -26 -58 -42 -18 -58 17 -7 41 -33 58 -61 26 -45 57 -70 70 -57 7 6 -65 119 -85 133 -12 10 -8 15 27 33 94 48 133 116 96 169 -20 30 -93 30 -151 1z"/>
<path d="M3199 3755 c-43 -85 -69 -150 -66 -160 6 -13 23 -15 118 -13 79 2 114 7 117 16 3 9 -21 12 -97 12 -56 0 -101 2 -101 3 0 2 29 63 65 135 36 72 65 133 65 135 0 3 -7 7 -15 11 -11 4 -33 -32 -86 -139z"/>
<path d="M3475 3869 c-10 -16 -7 -16 79 -20 52 -3 80 0 83 7 7 21 -150 34 -162 13z"/>
<path d="M3541 3801 c-16 -29 -71 -183 -71 -198 0 -19 27 -16 35 5 35 87 73 201 68 206 -11 11 -22 6 -32 -13z"/>
<path d="M11575 3728 c-19 -17 -26 -30 -22 -42 4 -10 12 -14 18 -11 7 5 8 -29 3 -114 -6 -107 -5 -121 9 -121 10 0 18 12 23 35 l6 35 25 -20 c30 -23 159 -64 173 -55 19 12 -1 24 -68 44 -37 11 -76 27 -87 36 -22 16 -25 12 73 98 37 32 42 72 13 108 -14 18 -31 23 -78 27 -52 4 -63 1 -88 -20z m133 -20 c28 -28 13 -62 -45 -107 l-56 -43 7 65 c4 42 3 68 -4 72 -6 3 -8 11 -5 16 9 13 89 11 103 -3z"/>
<path d="M10126 3708 c-3 -18 -7 -55 -11 -83 -3 -27 -17 -98 -31 -157 -15 -59 -24 -114 -21 -123 11 -27 247 -17 247 11 0 11 -20 13 -105 7 -73 -4 -105 -3 -105 5 0 6 11 57 25 114 14 57 28 138 32 181 5 67 4 77 -10 77 -10 0 -18 -11 -21 -32z"/>
<path d="M4401 3602 c-117 -115 -105 -223 26 -223 98 -1 125 3 120 15 -3 7 8 29 24 50 74 100 34 216 -75 216 -30 0 -45 -10 -95 -58z m148 12 c20 -15 23 -23 19 -68 -2 -28 -13 -64 -23 -80 l-19 -29 -11 34 c-6 18 -16 34 -22 36 -19 7 -25 -16 -13 -53 7 -19 9 -38 6 -42 -11 -10 -97 -3 -112 9 -37 30 2 130 70 180 45 33 71 36 105 13z"/>
<path d="M797 3558 c-3 -40 -2 -77 2 -81 15 -15 32 31 34 91 2 45 -1 57 -14 60 -13 2 -17 -10 -22 -70z"/>
<path d="M9162 3588 c-7 -7 -12 -24 -12 -39 0 -24 3 -27 41 -27 23 -1 43 -3 45 -5 2 -2 -5 -22 -16 -45 -11 -22 -20 -57 -20 -76 0 -50 26 -62 97 -47 29 7 53 16 53 21 0 17 -20 21 -61 10 -23 -6 -45 -8 -50 -3 -12 12 8 79 38 126 13 21 22 42 18 45 -3 3 -23 5 -45 4 -35 -3 -41 1 -50 23 -11 28 -20 31 -38 13z"/>
<path d="M3392 3568 c5 -14 106 -23 145 -13 51 12 19 25 -63 25 -64 0 -85 -3 -82 -12z"/>
<path d="M3842 3549 c3 -10 36 -16 129 -21 131 -8 160 -5 142 13 -6 6 -70 14 -143 17 -111 4 -132 3 -128 -9z"/>
<path d="M3143 3513 c-32 -2 -53 -9 -53 -16 0 -9 73 -12 299 -12 265 0 326 4 310 19 -6 6 -495 14 -556 9z"/>
<path d="M3857 3443 c-16 -2 -26 -10 -24 -16 3 -9 42 -11 143 -8 76 2 141 5 143 7 2 2 1 7 -3 12 -8 8 -215 12 -259 5z"/>
<path d="M3317 3393 c-15 -14 -5 -23 26 -23 80 -1 75 -40 -15 -100 -49 -33 -67 -51 -68 -67 0 -23 2 -23 120 -23 100 0 120 3 120 15 0 12 -18 15 -102 15 l-101 0 61 39 c33 22 66 49 72 61 16 30 5 64 -25 78 -28 13 -78 16 -88 5z"/>
<path d="M246 3181 c-4 -6 -1 -13 6 -15 7 -3 182 -7 388 -10 233 -3 419 -10 490 -19 104 -13 146 -10 127 10 -29 28 -995 61 -1011 34z"/>
<path d="M990 2973 c-35 -7 -60 -32 -60 -60 0 -31 26 -30 34 1 5 19 15 26 44 31 21 3 50 1 65 -4 40 -16 37 -67 -8 -132 -19 -28 -35 -57 -35 -65 0 -31 28 -10 68 50 50 77 58 135 20 160 -26 17 -91 27 -128 19z"/>
<path d="M495 2876 c-16 -11 -17 -17 -8 -27 10 -10 15 -9 27 1 18 14 74 7 118 -16 65 -33 78 -105 27 -148 -17 -14 -35 -26 -41 -26 -5 0 -17 18 -25 40 -19 47 -49 56 -40 13 3 -16 9 -36 12 -45 10 -26 -29 -24 -56 3 -21 21 -22 47 -2 118 4 18 2 23 -8 19 -39 -13 -53 -119 -21 -158 14 -17 32 -24 72 -28 30 -3 68 -13 85 -23 31 -19 75 -25 75 -11 0 5 -16 16 -37 26 l-36 17 30 19 c66 40 81 100 39 161 -29 43 -72 65 -141 74 -37 5 -55 3 -70 -9z"/>
<path d="M4298 2833 c-10 -2 -18 -11 -18 -18 0 -11 11 -13 49 -8 70 8 75 -10 17 -59 -53 -45 -58 -77 -16 -89 37 -10 160 -10 160 0 0 12 -36 21 -85 21 -66 0 -73 13 -26 50 68 55 52 112 -31 109 -18 -1 -41 -3 -50 -6z"/>
<path d="M4150 2741 c-46 -14 -87 -40 -113 -71 -25 -29 -28 -30 -81 -24 -38 5 -56 3 -56 -4 0 -12 61 -32 98 -32 12 0 22 -5 22 -10 0 -6 20 -15 45 -22 l45 -12 -43 -21 c-32 -17 -42 -27 -42 -46 0 -22 5 -24 50 -27 58 -3 136 17 143 37 4 11 -2 12 -24 7 -16 -3 -54 -8 -84 -11 l-55 -5 50 25 c28 14 56 25 63 25 6 0 12 7 12 15 0 8 -17 18 -42 25 -80 20 -87 26 -39 34 76 12 131 50 131 91 0 15 -7 25 -22 29 -26 7 -25 7 -58 -3z m40 -36 c0 -17 -72 -54 -105 -55 -19 0 -19 0 1 21 16 15 75 44 102 49 1 0 2 -7 2 -15z"/>
<path d="M3582 2718 c-22 -27 -102 -189 -102 -207 0 -26 19 -31 109 -31 121 0 201 11 201 27 0 11 -23 12 -135 7 -112 -6 -135 -5 -135 7 0 8 23 54 50 103 28 49 50 93 50 98 0 12 -26 10 -38 -4z"/>
<path d="M807 2714 c-15 -15 8 -24 64 -24 59 0 79 12 37 24 -30 8 -93 8 -101 0z"/>
<path d="M1040 2560 c0 -15 40 -32 58 -25 15 6 15 8 -2 21 -23 16 -56 19 -56 4z"/>
<path d="M2733 2494 c-24 -14 -44 -28 -45 -32 -3 -15 -8 -59 -14 -119 -6 -60 -5 -63 25 -94 29 -29 36 -31 80 -27 39 4 50 1 60 -14 19 -30 34 -22 27 15 -5 27 -2 38 15 53 44 39 63 132 38 187 -27 59 -115 74 -186 31z m137 -24 c11 -11 22 -30 25 -43 9 -33 -11 -100 -34 -121 -19 -18 -20 -17 -35 18 -8 20 -22 36 -30 36 -20 0 -20 -8 -1 -54 19 -44 13 -56 -25 -56 -48 0 -62 24 -56 94 9 100 11 107 42 127 38 25 88 25 114 -1z"/>
<path d="M4730 2455 c0 -13 21 -15 130 -15 119 0 156 8 114 24 -9 3 -67 6 -130 6 -95 0 -114 -3 -114 -15z"/>
<path d="M3080 2425 c0 -12 17 -15 106 -15 80 0 105 3 102 13 -3 8 -36 13 -106 15 -86 2 -102 0 -102 -13z"/>
<path d="M3618 2413 c-152 -3 -188 -9 -158 -28 6 -3 192 -3 415 1 329 6 405 10 405 21 0 13 -157 15 -662 6z"/>
<path d="M1480 2387 c-22 -6 -207 -11 -505 -12 -463 -1 -594 -9 -620 -37 -7 -7 19 -8 90 -2 55 5 303 9 550 9 369 0 458 3 493 15 24 8 43 19 43 25 1 14 -11 14 -51 2z"/>
<path d="M3128 2371 c-26 -4 -50 -10 -54 -14 -18 -18 17 -23 96 -15 112 13 130 17 130 28 0 11 -97 11 -172 1z"/>
<path d="M4750 2357 c0 -21 31 -27 138 -27 75 0 92 3 92 15 0 12 -16 15 -84 15 -46 0 -98 3 -115 6 -24 5 -31 3 -31 -9z"/>
<path d="M4170 2306 c0 -10 13 -16 37 -18 l37 -3 -42 -28 c-54 -35 -56 -63 -7 -73 40 -7 101 2 110 16 4 6 -17 10 -52 11 -58 0 -58 0 -33 17 55 38 71 57 65 75 -9 23 -115 26 -115 3z"/>
<path d="M3898 2280 c-33 -34 -33 -53 2 -58 17 -3 21 0 17 11 -10 27 15 36 46 17 27 -17 27 -17 6 -36 -31 -27 -50 -76 -37 -91 13 -16 55 -17 97 -2 49 17 38 33 -19 25 -27 -4 -50 -4 -50 -1 0 3 21 28 46 55 49 52 50 70 4 70 -20 0 -31 6 -35 20 -9 29 -42 25 -77 -10z"/>
<path d="M3538 2249 c-35 -20 -17 -28 52 -22 45 4 70 2 70 -4 0 -6 -32 -27 -71 -48 -38 -20 -68 -42 -66 -48 2 -8 33 -12 88 -12 91 0 139 9 139 26 0 8 -24 9 -77 5 l-78 -7 47 27 c51 29 67 56 48 79 -15 18 -125 20 -152 4z"/>
<path d="M4755 1710 c-3 -6 6 -15 22 -21 l28 -11 -27 -14 c-39 -20 -35 -40 12 -64 67 -34 49 -70 -37 -70 -23 0 -33 -5 -33 -15 0 -18 61 -21 108 -4 54 19 54 77 0 105 -28 14 -29 17 -14 33 21 23 20 34 -2 54 -21 19 -48 22 -57 7z"/>
<path d="M5662 1688 c3 -7 17 -14 32 -16 44 -5 43 -29 -3 -69 -59 -50 -54 -75 18 -86 61 -10 124 -2 118 16 -2 7 -32 14 -71 17 l-67 5 35 34 c39 38 46 70 20 95 -19 19 -88 22 -82 4z"/>
<path d="M4550 1606 c0 -8 7 -17 16 -20 26 -10 104 -7 104 4 0 13 -12 17 -72 24 -37 4 -48 2 -48 -8z"/>
<path d="M3703 1540 c-13 -5 -23 -16 -23 -25 0 -17 25 -21 35 -5 3 6 19 10 36 10 50 0 36 -31 -36 -83 -111 -80 -102 -102 36 -90 111 10 119 29 12 27 -40 -1 -73 0 -73 2 0 2 19 16 43 33 87 61 105 92 71 125 -17 17 -66 20 -101 6z"/>
<path d="M3926 1497 c-57 -54 -71 -112 -36 -147 58 -58 170 19 170 117 0 49 -14 63 -61 63 -29 0 -46 -8 -73 -33z m96 -36 c-5 -60 -66 -118 -101 -96 -24 14 -11 67 24 102 46 46 81 44 77 -6z"/>
<path d="M5370 1500 c-19 -17 -49 -35 -67 -42 -44 -16 -45 -43 -2 -34 31 6 31 6 15 -19 -9 -13 -16 -31 -16 -40 0 -23 29 -18 39 8 5 12 25 46 45 76 20 29 36 57 36 61 0 21 -20 17 -50 -10z"/>
<path d="M4348 1498 c-21 -34 -58 -124 -58 -142 0 -39 29 -10 55 55 16 38 32 72 37 75 4 3 8 12 8 20 0 22 -26 17 -42 -8z"/>
<path d="M4455 1486 c-42 -15 -54 -34 -55 -83 0 -48 17 -63 73 -63 42 0 84 31 103 76 18 42 18 49 -2 68 -18 18 -74 19 -119 2z m95 -32 c0 -20 -19 -56 -39 -71 -20 -15 -68 -17 -76 -3 -13 22 6 66 33 77 42 17 82 16 82 -3z"/>
<path d="M5495 1482 c-41 -26 -55 -44 -62 -85 -4 -30 -2 -38 21 -52 83 -54 224 83 144 139 -30 21 -66 20 -103 -2z m88 -25 c9 -24 -20 -73 -52 -86 -39 -17 -61 -8 -61 23 0 47 98 102 113 63z"/>
<path d="M5053 1433 c-18 -7 -16 -43 3 -50 16 -6 34 11 34 33 0 14 -20 23 -37 17z"/>
<path d="M4167 1424 c-9 -10 2 -24 19 -24 8 0 14 7 14 15 0 15 -21 21 -33 9z"/>
<path d="M6005 1339 c-4 -6 -5 -12 -3 -14 2 -3 56 -7 119 -11 94 -5 112 -4 102 7 -22 23 -206 38 -218 18z"/>
<path d="M3090 1325 c0 -12 17 -15 95 -15 78 0 95 3 95 15 0 12 -17 15 -95 15 -78 0 -95 -3 -95 -15z"/>
<path d="M3162 1270 c-77 -8 -92 -14 -76 -30 8 -8 213 6 223 15 1 2 0 8 -4 14 -7 12 -33 12 -143 1z"/>
<path d="M4530 1240 c-459 -3 -843 -9 -852 -14 -10 -4 -18 -11 -18 -15 0 -4 152 -6 338 -4 185 2 605 4 932 6 327 2 602 7 609 12 25 15 -16 24 -99 22 -41 -1 -451 -4 -910 -7z"/>
<path d="M6005 1230 c-9 -14 7 -17 108 -24 68 -5 88 -3 85 6 -3 7 -15 15 -29 19 -38 11 -157 10 -164 -1z"/>
<path d="M4737 1123 c-16 -15 -5 -23 33 -23 49 0 51 -11 5 -33 -41 -20 -53 -41 -35 -63 10 -11 30 -14 84 -12 88 4 90 21 4 28 l-63 5 43 23 c43 23 53 47 30 70 -13 13 -90 17 -101 5z"/>
<path d="M3923 1024 c-24 -11 -13 -23 23 -26 43 -4 65 -29 48 -55 -6 -10 -35 -32 -65 -48 -80 -45 -73 -60 27 -59 91 1 134 9 134 26 0 7 -23 9 -77 4 -76 -6 -77 -5 -48 10 73 40 92 81 58 123 -18 21 -76 36 -100 25z"/>
<path d="M4475 1010 c-13 -21 7 -29 57 -23 67 8 62 -10 -18 -58 -75 -46 -80 -73 -14 -77 61 -3 132 10 138 27 4 11 -10 12 -69 7 l-74 -7 52 30 c61 36 79 62 63 91 -9 17 -21 20 -70 20 -32 0 -62 -4 -65 -10z"/>
<path d="M4242 954 c5 -25 35 -41 49 -27 18 18 3 43 -26 43 -19 0 -26 -5 -23 -16z"/>
<path d="M4806 451 c-39 -8 -76 -40 -76 -66 0 -18 30 -41 78 -62 l43 -18 -38 -37 c-38 -36 -39 -36 -88 -26 -35 7 -58 7 -77 -1 -30 -11 -37 -38 -16 -59 15 -15 77 -16 113 -2 21 8 35 5 68 -12 64 -34 141 -31 203 7 120 75 137 203 33 253 -50 23 -180 36 -243 23z m220 -46 c135 -56 -10 -271 -153 -227 -71 22 -73 26 -24 76 43 43 46 45 89 39 36 -5 44 -3 40 8 -3 8 -18 16 -34 19 -27 5 -29 8 -26 43 4 47 -18 51 -35 6 -11 -28 -15 -31 -40 -25 -68 17 -96 61 -45 72 15 3 32 8 37 10 20 7 159 -7 191 -21z m-306 -195 c0 -5 -13 -10 -30 -10 -16 0 -30 5 -30 10 0 6 14 10 30 10 17 0 30 -4 30 -10z"/>
<path d="M3609 377 c-23 -15 -34 -31 -35 -47 0 -14 -6 -35 -12 -47 -20 -36 -15 -101 7 -113 27 -14 67 -13 99 4 85 44 119 144 68 199 -32 34 -80 36 -127 4z m99 -19 c7 -7 12 -31 12 -54 0 -36 -5 -47 -41 -78 -29 -27 -48 -36 -67 -34 -24 3 -27 7 -25 36 0 18 8 41 17 51 21 23 20 31 -1 31 -14 1 -10 8 15 30 34 31 70 38 90 18z"/>
<path d="M3977 384 c-16 -16 -7 -35 13 -29 24 8 73 -36 64 -58 -3 -8 -34 -35 -70 -62 -89 -65 -85 -79 25 -83 64 -2 82 0 79 10 -3 8 -27 15 -61 18 l-56 5 55 39 c73 53 85 100 34 137 -29 21 -73 33 -83 23z"/>
<path d="M4263 364 c-13 -35 10 -68 62 -86 55 -19 59 -31 17 -65 -35 -29 -82 -31 -89 -3 -8 32 -35 25 -31 -7 7 -62 94 -62 157 -1 48 47 41 78 -24 99 -32 10 -51 22 -53 34 -4 16 5 17 115 14 73 -3 119 0 121 6 4 15 -60 24 -171 24 -81 1 -99 -2 -104 -15z"/>
<path d="M5300 328 c-11 -24 -20 -52 -20 -63 0 -27 -15 -49 -28 -41 -8 4 -5 22 8 52 24 55 25 64 4 64 -9 0 -25 -23 -40 -57 -14 -31 -34 -68 -45 -81 -10 -14 -19 -31 -19 -38 0 -23 27 -16 47 12 14 19 25 25 39 20 16 -5 19 -14 16 -66 -3 -48 -1 -60 11 -60 11 0 17 16 22 59 7 59 7 59 46 63 32 3 39 0 39 -14 0 -10 7 -18 15 -18 9 0 15 9 15 21 0 12 17 38 39 58 57 53 79 109 50 127 -13 8 -63 -39 -91 -86 -27 -45 -46 -60 -76 -60 -21 0 -23 3 -17 33 4 17 14 47 21 66 18 43 18 51 -1 51 -9 0 -25 -19 -35 -42z"/>
<path d="M3104 339 c-13 -22 19 -34 96 -38 44 -1 88 0 97 3 31 12 -7 26 -74 26 -34 0 -73 4 -87 10 -17 6 -27 6 -32 -1z"/>
<path d="M3118 243 c-48 -4 -62 -16 -32 -27 21 -8 234 5 234 14 0 19 -67 23 -202 13z"/>
<path d="M3770 154 c-24 -55 -25 -64 -5 -64 15 0 55 68 55 95 0 32 -30 13 -50 -31z"/>
</g><g transform="translate(1012.045235, 392.6375345993842) scale(0.40808740102544044)"><g transform="translate(-57.706759,297.537395) scale(0.100000,-0.100000)" fill="#4444bb" stroke="none">
<path d="M750 2973 c-57 -10 -88 -25 -119 -57 -40 -41 -55 -100 -46 -179 6 -45 12 -61 32 -77 32 -25 35 -25 64 -1 22 17 24 26 21 89 -4 105 24 120 164 87 33 -7 119 -19 190 -25 88 -8 134 -16 144 -26 32 -32 8 -420 -28 -456 -18 -18 -126 -28 -289 -28 -185 0 -206 -4 -250 -52 -55 -58 -58 -82 -55 -363 1 -145 7 -274 13 -293 11 -34 51 -62 89 -62 12 0 35 14 52 31 l31 30 -6 238 c-3 130 -3 249 0 264 l5 27 112 0 c234 1 363 26 423 82 58 54 98 260 91 463 -4 122 -7 138 -34 191 -40 81 -79 100 -217 108 -174 10 -361 14 -387 9z" fill="#4444bb"/>
<path d="M3660 2971 c-42 -9 -83 -34 -103 -65 -39 -59 -50 -127 -54 -343 -5 -206 -5 -212 18 -252 28 -50 78 -86 143 -102 48 -12 257 -8 370 7 l49 7 -7 -104 c-4 -57 -11 -189 -16 -294 -9 -177 -9 -192 8 -214 35 -47 100 -46 136 2 22 29 27 86 42 452 7 191 0 235 -44 283 -45 48 -92 56 -241 38 -146 -18 -229 -20 -265 -6 l-26 10 0 162 c0 156 8 230 27 249 5 5 99 6 210 2 l201 -6 5 -50 c3 -39 11 -56 31 -74 34 -29 48 -29 80 0 24 20 26 30 28 113 4 147 -23 169 -218 179 -242 11 -340 13 -374 6z" fill="#4444bb"/>
<path d="M1565 2945 c-14 -13 -25 -32 -25 -42 0 -10 -1 -297 -3 -638 -2 -677 -3 -662 55 -694 33 -19 73 -7 101 31 18 24 20 51 29 300 5 150 10 278 12 283 2 6 37 8 97 3 52 -3 135 -7 186 -7 154 -2 161 -10 143 -176 -21 -189 -27 -310 -18 -343 12 -45 45 -72 86 -72 71 0 102 46 102 151 0 33 7 118 16 187 24 190 9 280 -58 349 -50 52 -112 67 -263 65 -71 -1 -164 -6 -205 -11 -41 -4 -78 -7 -81 -5 -4 2 -10 108 -13 236 -9 286 -17 352 -47 384 -31 33 -82 32 -114 -1z" fill="#4444bb"/>
<path d="M2542 2944 c-55 -38 -64 -109 -53 -419 6 -186 9 -215 28 -250 50 -95 116 -125 302 -135 75 -4 171 -5 215 -1 l78 7 -4 -178 c-2 -97 -7 -181 -11 -184 -4 -4 -42 1 -85 11 -104 26 -285 27 -363 3 -106 -33 -149 -107 -99 -170 26 -34 68 -41 132 -21 74 23 202 20 308 -7 182 -47 274 5 301 168 12 77 27 831 19 994 -7 152 -20 181 -86 186 -88 7 -103 -51 -104 -401 l0 -219 -201 4 c-197 3 -201 3 -220 27 -18 21 -19 42 -19 283 l0 260 -29 29 c-33 33 -74 38 -109 13z" fill="#4444bb"/>
<path d="M2374 1391 c-55 -34 -79 -78 -79 -147 0 -51 4 -66 27 -96 35 -45 102 -73 153 -64 78 15 146 111 131 188 -20 108 -145 172 -232 119z" fill="#4444bb"/>
<path d="M1853 999 c-39 -11 -66 -56 -61 -101 6 -59 69 -64 76 -6 4 30 34 38 145 38 l67 0 0 -110 c0 -135 -1 -136 -132 -126 -85 6 -89 6 -113 -18 -24 -25 -25 -28 -25 -179 0 -162 4 -177 47 -177 35 0 43 29 43 159 l0 121 73 0 c85 0 141 14 168 41 17 17 19 34 19 169 0 147 -1 152 -25 175 -23 24 -30 25 -137 24 -62 0 -128 -5 -145 -10z" fill="#4444bb"/>
<path d="M2985 1000 c-91 -16 -93 -18 -104 -58 -15 -51 -14 -537 0 -564 19 -36 69 -48 204 -48 121 0 127 1 151 25 l24 24 -2 292 -3 292 -26 19 c-31 23 -161 33 -244 18z m169 -86 c14 -5 16 -37 16 -250 l0 -245 -102 3 -103 3 0 240 0 240 40 6 c57 9 131 10 149 3z" fill="#4444bb"/>
<path d="M2351 971 c-24 -24 -29 -73 -37 -372 -6 -232 -6 -237 15 -258 23 -23 29 -25 51 -11 12 7 16 40 20 150 l5 141 35 -23 c19 -13 59 -55 88 -93 30 -39 78 -96 108 -128 47 -51 56 -57 74 -47 29 16 25 42 -15 92 -19 24 -62 78 -95 121 -61 77 -61 77 -33 77 15 0 46 9 69 19 56 26 67 57 62 179 -6 156 -27 172 -220 172 -93 0 -111 -3 -127 -19z m257 -74 c16 -13 17 -168 0 -185 -7 -7 -41 -12 -84 -12 -40 0 -84 -4 -98 -10 l-26 -10 0 120 0 119 98 -6 c53 -3 103 -10 110 -16z" fill="#4444bb"/>
</g>
</g>
</svg>
