<?xml version="1.0" encoding="UTF-8" standalone="no"?>
<svg
   xml:lang="en"
   height="149.87924pt"
   width="183.29601pt"
   viewBox="-30.0026 -171.8408 183.29601 149.87924"
   version="1.1"
   id="svg30"
   sodipodi:docname="911t.svg"
   inkscape:version="1.3 (0e150ed, 2023-07-21)"
   xmlns:inkscape="http://www.inkscape.org/namespaces/inkscape"
   xmlns:sodipodi="http://sodipodi.sourceforge.net/DTD/sodipodi-0.dtd"
   xmlns="http://www.w3.org/2000/svg"
   xmlns:svg="http://www.w3.org/2000/svg">
  <defs
     id="defs30" />
  <sodipodi:namedview
     id="namedview30"
     pagecolor="#ffffff"
     bordercolor="#000000"
     borderopacity="0.25"
     inkscape:showpageshadow="2"
     inkscape:pageopacity="0.0"
     inkscape:pagecheckerboard="0"
     inkscape:deskcolor="#d1d1d1"
     inkscape:document-units="pt"
     inkscape:zoom="0.98601308"
     inkscape:cx="117.13841"
     inkscape:cy="86.205753"
     inkscape:window-width="1440"
     inkscape:window-height="819"
     inkscape:window-x="0"
     inkscape:window-y="25"
     inkscape:window-maximized="0"
     inkscape:current-layer="svg30" />
  <path
     d="m 34.7334,-160.18155 a 6.885,10.3275 0 0 1 3.53,10.27"
     style="fill:none;stroke:#000000;stroke-width:1.7"
     id="path1" />
  <path
     d="m 29.374594,-163.10317 6.518469,0.79023 -2.328868,4.26567 z"
     style="fill:#000000;stroke:#000000;stroke-linecap:butt;stroke-linejoin:miter"
     id="path2" />
  <path
     d="m -11.1766,-25.241551 v -58.5225 m 0,-6.075 v -58.522499"
     style="fill:none;stroke:#000000;stroke-width:1.7;stroke-linecap:round;stroke-linejoin:round"
     id="path3" />
  <path
     d="m 0.9734,-89.839051 h -24.3"
     style="fill:none;stroke:#000000;stroke-width:1.7;stroke-linecap:round;stroke-linejoin:round"
     id="path4" />
  <path
     d="m -5.1016,-83.764051 h -12.15"
     style="fill:none;stroke:#000000;stroke-width:1.7;stroke-linecap:round;stroke-linejoin:round"
     id="path5" />
  <path
     d="m -11.1766,-148.36155 h 31.59 m 6.6096,-2.754 15.4224,-9.639 m 5.508,12.393 h 31.59"
     style="fill:none;stroke:#000000;stroke-width:1.7;stroke-linecap:round;stroke-linejoin:round"
     id="path6" />
  <path
     d="m 79.5434,-148.36155 v 16.2 h 8.1 v 32.399999 h -16.2 v -32.399999 h 8.1 m 0,32.399999 v 16.2"
     style="fill:none;stroke:#000000;stroke-width:1.7;stroke-linecap:round;stroke-linejoin:round"
     id="path7" />
  <path
     d="m 79.5434,-83.561551 v 12.96 l 1.316621,0.02985 1.351147,0.09081 1.357194,0.152704 1.334634,0.214217 1.283942,0.274056 1.206187,0.330961 1.103008,0.38373 0.976577,0.431253 0.82957,0.472527 0.66506,0.506681 0.48655,0.532999 0.29778,0.550921 0.10273,0.560074 -0.0945,0.560262 -0.28971,0.551483 -0.47883,0.533919 -0.65785,0.507945 -0.82301,0.474104 -0.970822,0.433112 -1.098166,0.385831 -1.202365,0.33326 -1.281222,0.276506 -1.333071,0.216764 -1.356822,0.155294 -1.351974,0.09339 -1.318629,0.03237 -1.25749,-0.0265 -1.169844,-0.08197 -1.05754,-0.132873 -0.922947,-0.178131 -0.768897,-0.216793 -0.598643,-0.248043 -0.415768,-0.271225 -0.224131,-0.285848 -0.02777,-0.291604 0.169177,-0.288373 0.362559,-0.276221 0.548298,-0.255407 0.722479,-0.226367 0.881433,-0.189715 1.021807,-0.146221 1.140644,-0.09681 1.235437,-0.04251 1.30419,0.01553 1.345454,0.07608 1.358356,0.137864 1.342628,0.199586 1.2986,0.259943 1.227198,0.317663 1.129931,0.371528 1.008849,0.420403 0.86649,0.463257 0.70589,0.49919 0.53039,0.527441 0.34372,0.547416 0.1498,0.558694 -0.0473,0.561037 -0.24335,0.554395 -0.4343,0.53891 -0.6161,0.514907 -0.7849,0.482891 -0.937167,0.443538 -1.069677,0.397679 -1.17964,0.346277 -1.264738,0.290418 -1.323179,0.23128 -1.353729,0.170107 -1.355745,0.108191 -1.329184,0.04683 -1.274607,-0.01267 -1.193163,-0.06906 -1.086569,-0.121156 -0.957072,-0.167857 -0.807403,-0.208178 -0.640714,-0.241271 -0.460521,-0.266436 -0.27062,-0.283144 -0.07502,-0.291043 0.12217,-0.289964 0.316781,-0.279934 0.504715,-0.261162 0.68201,-0.234042 0.84493,-0.199149 0.990039,-0.157216 1.114282,-0.109129 1.215036,-0.0559 1.29018,0.0013 1.338129,0.06141 1.357873,0.12302 1.348996,0.184877 1.311684,0.245679 1.246723,0.304143 1.155486,0.359038 1.039889,0.409207 0.90238,0.453592 0.74584,0.491256 0.57359,0.521408 0.38925,0.54341 0.19669,0.5568 v 0.561296 l -0.19669,0.5568 -0.38925,0.54341 -0.57359,0.521408 -0.74584,0.491256 -0.90238,0.453592 -1.039889,0.409207 -1.155486,0.359038 -1.246723,0.304143 -1.311684,0.245679 -1.348996,0.184877 -1.357873,0.12302 -1.338129,0.06141 -1.29018,0.0013 -1.215036,-0.0559 -1.114282,-0.109129 -0.990039,-0.157216 -0.84493,-0.199149 -0.68201,-0.234042 -0.504715,-0.261162 -0.316781,-0.279934 -0.12217,-0.289964 0.07502,-0.291043 0.27062,-0.283144 0.460521,-0.266436 0.640714,-0.241271 0.807403,-0.208178 0.957072,-0.167857 1.086569,-0.121156 1.193163,-0.06906 1.274607,-0.01267 1.329184,0.04683 1.355745,0.108191 1.353729,0.170107 1.323179,0.23128 1.264738,0.290418 1.17964,0.346277 1.069677,0.397679 0.937167,0.443538 0.7849,0.482891 0.6161,0.514907 0.4343,0.53891 0.24335,0.554395 0.0473,0.561037 -0.1498,0.558694 -0.34372,0.547416 -0.53039,0.527441 -0.70589,0.49919 -0.86649,0.463257 -1.008849,0.420403 -1.129931,0.371528 -1.227198,0.317663 -1.2986,0.259943 -1.342628,0.199586 -1.358356,0.137864 -1.345454,0.07608 -1.30419,0.01553 -1.235437,-0.04251 -1.140644,-0.09681 -1.021807,-0.146221 -0.881433,-0.189715 -0.722479,-0.226367 -0.548298,-0.255407 -0.362559,-0.276221 -0.169177,-0.288373 0.02777,-0.291604 0.224131,-0.285848 0.415768,-0.271225 0.598643,-0.248043 0.768897,-0.216793 0.922947,-0.178131 1.05754,-0.132873 1.169844,-0.08197 1.25749,-0.0265 1.318629,0.03236 1.351974,0.09339 1.356822,0.155294 1.333071,0.216764 1.281222,0.276506 1.202365,0.33326 1.098166,0.385831 0.970822,0.433112 0.82301,0.474104 0.65785,0.507945 0.47883,0.533919 0.28971,0.551483 0.0945,0.560262 -0.10273,0.560074 -0.29778,0.550921 -0.48655,0.532999 -0.66506,0.506681 -0.82957,0.472527 -0.976577,0.431253 -1.103008,0.38373 -1.206187,0.330961 -1.283942,0.274056 -1.334634,0.214217 -1.357194,0.152704 -1.351147,0.09081 -1.316621,0.02997 v 12.96"
     style="fill:none;stroke:#000000;stroke-width:1.7;stroke-linecap:round;stroke-linejoin:round"
     id="path8" />
  <path
     d="m 79.5434,-148.36155 h 32.4 32.4"
     style="fill:none;stroke:#000000;stroke-width:1.7;stroke-linecap:round;stroke-linejoin:round"
     id="path9" />
  <path
     d="m 144.3434,-148.36155 v 45.36 h 8.1 v 32.399999 h -16.2 v -32.399999 h 8.1 m 0,32.399999 v 45.36"
     style="fill:none;stroke:#000000;stroke-width:1.7;stroke-linecap:round;stroke-linejoin:round"
     id="path10" />
  <path
     d="m 144.3434,-25.241551 h -77.76 -77.76"
     style="fill:none;stroke:#000000;stroke-width:1.7;stroke-linecap:round;stroke-linejoin:round"
     id="path11" />
  <g
     id="g14"
     transform="translate(-11.1766,-25.241551)">
    <g
       id="g13">
      <g
         id="g12">
        <path
           d="m -13.21,-72.807 v 0 q -2.652,0 -4.134,-1.183 -1.482,-1.183 -1.482,-3.185 0,-1.612 0.871,-2.73 0.871,-1.118 2.275,-1.768 1.404,-0.65 2.99,-0.858 v -0.156 q -1.248,-0.39 -2.132,-1.326 -0.884,-0.936 -0.884,-2.314 0,-1.092 0.546,-1.872 0.546,-0.78 1.456,-1.3 0.91,-0.52 2.015,-0.767 1.105,-0.247 2.197,-0.247 0.962,0 1.95,0.234 0.988,0.234 1.664,0.819 0.676,0.585 0.676,1.703 0,0.962 -0.494,1.404 -0.494,0.442 -1.014,0.442 -0.416,0 -0.728,-0.247 -0.312,-0.247 -0.312,-0.741 0,-0.286 0.078,-0.689 0.078,-0.403 0.078,-0.741 0,-0.572 -0.377,-0.936 -0.377,-0.364 -1.521,-0.364 -1.794,0 -2.821,0.949 -1.027,0.949 -1.027,2.639 0,1.404 0.676,2.08 0.676,0.676 1.729,0.884 1.053,0.208 2.145,0.208 l -0.13,1.04 q -3.9,0 -5.616,1.014 -1.716,1.014 -1.716,3.38 0,1.898 0.949,2.782 0.949,0.884 2.535,0.884 3.12,0 4.602,-3.484 l 0.468,-0.13 q 0.182,0.26 0.429,0.715 0.247,0.455 0.247,0.663 0,0.208 -0.351,0.715 -0.351,0.507 -1.092,1.079 -0.741,0.572 -1.911,0.988 -1.17,0.416 -2.834,0.416 z"
           fill="#000000"
           id="path12" />
      </g>
    </g>
  </g>
  <g
     id="g17"
     transform="translate(-11.1766,-25.241551)">
    <g
       id="g16">
      <g
         id="g15">
        <path
           d="m -11.364,-46.527 v 0 h 0.26 q 0.312,-0.65 0.754,-1.612 0.442,-0.962 1.014,-1.898 0.572,-0.936 1.248,-1.573 0.676,-0.637 1.456,-0.637 0.624,0 1.04,0.377 0.416,0.377 0.416,1.131 0,0.858 -0.429,1.248 -0.429,0.39 -0.949,0.39 -0.416,0 -0.663,-0.247 -0.247,-0.247 -0.351,-0.481 -0.104,-0.234 -0.156,-0.234 -0.364,0 -0.845,0.572 -0.481,0.572 -0.975,1.456 -0.494,0.884 -0.949,1.82 -0.455,0.936 -0.78,1.703 -0.325,0.767 -0.455,1.079 l -0.78,3.64 h -2.21 l 1.924,-9.048 q 0.078,-0.364 0.156,-0.819 0.078,-0.455 0.078,-0.793 0,-0.364 -0.156,-0.572 -0.156,-0.208 -0.702,-0.208 -0.208,0 -0.507,0.026 -0.299,0.026 -0.299,0.026 v -0.702 l 3.614,-0.286 h 0.572 z"
           fill="#000000"
           id="path14" />
      </g>
    </g>
  </g>
  <circle
     cx="23.718199"
     cy="-148.36156"
     r="3.3048"
     style="fill:#ffffff;stroke:#000000;stroke-width:1.7"
     id="circle17" />
  <circle
     cx="44.648598"
     cy="-148.36156"
     r="3.3048"
     style="fill:#ffffff;stroke:#000000;stroke-width:1.7"
     id="circle18" />
  <g
     id="g20"
     transform="translate(-33.708442,-12.5918)">
    <g
       id="g19">
      <g
         id="g18">
        <path
           d="m 40.134,-145.573 v 0 -10.244 q 0,-1.014 -0.13,-1.599 -0.13,-0.585 -0.663,-0.819 -0.533,-0.234 -1.781,-0.234 v -0.78 h 7.488 v 0.78 q -1.222,0 -1.768,0.234 -0.546,0.234 -0.663,0.819 -0.117,0.585 -0.117,1.599 v 4.888 h 0.13 l 4.212,-4.108 q 0.91,-0.858 1.378,-1.456 0.468,-0.598 0.468,-1.17 0,-0.416 -0.221,-0.611 -0.221,-0.195 -0.767,-0.195 h -0.416 v -0.78 h 6.37 v 0.78 q -0.728,0.026 -1.235,0.208 -0.507,0.182 -0.988,0.559 -0.481,0.377 -1.183,1.027 l -5.642,5.278 7.462,7.332 q 0.65,0.598 1.196,0.858 0.546,0.26 1.508,0.26 v 0.78 h -7.514 v -0.78 h 0.52 q 1.014,0 1.014,-0.52 0,-0.65 -0.897,-1.612 -0.897,-0.962 -2.873,-2.886 l -2.288,-2.288 H 42.5 v 4.68 q 0,1.092 0.156,1.651 0.156,0.559 0.702,0.767 0.546,0.208 1.69,0.208 v 0.78 H 37.56 v -0.78 q 1.196,0 1.729,-0.182 0.533,-0.182 0.689,-0.741 0.156,-0.559 0.156,-1.703 z"
           fill="#000000"
           id="path18" />
      </g>
    </g>
  </g>
  <g
     id="g23"
     transform="translate(-11.1766,-25.241551)">
    <g
       id="g22">
      <g
         id="g21">
        <path
           d="m 68.166,-102.303 v 0 q 0,1.378 -0.52,2.314 -0.52,0.936 -1.352,1.534 -0.832,0.598 -1.781,0.923 -0.949,0.325 -1.807,0.481 v 0.13 q 0.468,0.312 0.884,0.949 0.416,0.637 1.027,1.833 0.611,1.196 1.677,3.224 0.442,0.78 0.975,1.053 0.533,0.273 1.417,0.273 l -0.156,0.78 h -3.952 q -0.728,-1.612 -1.222,-2.691 -0.494,-1.079 -0.858,-1.807 -0.364,-0.728 -0.637,-1.3 -0.273,-0.572 -0.585,-1.17 -0.286,-0.546 -0.624,-0.715 -0.338,-0.169 -1.04,-0.169 h -0.546 l -0.962,4.628 q -0.208,1.066 -0.143,1.599 0.065,0.533 0.585,0.689 0.52,0.156 1.638,0.156 l -0.13,0.78 h -7.176 l 0.156,-0.78 q 0.962,0 1.482,-0.156 0.52,-0.156 0.793,-0.676 0.273,-0.52 0.481,-1.612 l 2.288,-11.154 q 0.156,-0.728 0.078,-1.144 -0.078,-0.416 -0.533,-0.598 -0.455,-0.182 -1.495,-0.182 l 0.156,-0.78 h 6.11 q 2.73,0 4.251,0.845 1.521,0.845 1.521,2.743 z m -7.462,-2.496 v 0 l -1.456,7.176 0.806,0.026 q 1.56,-0.052 2.821,-0.507 1.261,-0.455 1.989,-1.443 0.728,-0.988 0.728,-2.652 0,-0.702 -0.299,-1.313 -0.299,-0.611 -1.027,-0.988 -0.728,-0.377 -2.028,-0.377 -0.494,0 -0.793,0.013 -0.299,0.013 -0.741,0.065 z"
           fill="#000000"
           id="path20" />
        <path
           d="m 77.745,-83.349 v 0 h -6.17 v -0.655 q 1.31,0 1.738,-0.264 0.428,-0.264 0.428,-0.956 v -7.935 q 0,-0.491 -0.146,-0.71 -0.146,-0.218 -0.528,-0.218 -0.291,0 -0.792,0.082 -0.5,0.082 -0.864,0.173 v -0.728 l 3.367,-0.928 h 0.783 v 10.264 q 0,0.692 0.464,0.956 0.464,0.264 1.72,0.264 z"
           fill="#000000"
           id="path21" />
      </g>
    </g>
  </g>
  <g
     id="g26"
     transform="translate(-11.1766,-25.241551)">
    <g
       id="g25">
      <g
         id="g24">
        <path
           d="m 80.014,-29.589 v 0 l -1.56,5.07 H 65.61 l 0.156,-0.78 q 1.014,0 1.547,-0.182 0.533,-0.182 0.819,-0.702 0.286,-0.52 0.494,-1.56 l 2.236,-10.842 q 0.182,-0.858 0.13,-1.352 -0.052,-0.494 -0.533,-0.689 -0.481,-0.195 -1.599,-0.195 l 0.156,-0.78 H 76.4 l -0.13,0.78 q -1.404,0 -2.106,0.429 -0.702,0.429 -0.988,1.833 l -2.366,11.648 q -0.182,0.858 0.182,1.131 0.364,0.273 1.508,0.273 h 1.222 q 1.248,0 2.028,-0.221 0.78,-0.221 1.326,-0.689 0.546,-0.468 1.027,-1.261 0.481,-0.793 1.079,-1.911 z"
           fill="#000000"
           id="path23" />
      </g>
    </g>
  </g>
  <g
     id="g29"
     transform="translate(-11.1766,-25.241551)">
    <g
       id="g28">
      <g
         id="g27">
        <path
           d="m 132.693,-73.143 v 0 q 0,1.378 -0.52,2.314 -0.52,0.936 -1.352,1.534 -0.832,0.598 -1.781,0.923 -0.949,0.325 -1.807,0.481 v 0.13 q 0.468,0.312 0.884,0.949 0.416,0.637 1.027,1.833 0.611,1.196 1.677,3.224 0.442,0.78 0.975,1.053 0.533,0.273 1.417,0.273 l -0.156,0.78 h -3.952 q -0.728,-1.612 -1.222,-2.691 -0.494,-1.079 -0.858,-1.807 -0.364,-0.728 -0.637,-1.3 -0.273,-0.572 -0.585,-1.17 -0.286,-0.546 -0.624,-0.715 -0.338,-0.169 -1.04,-0.169 h -0.546 l -0.962,4.628 q -0.208,1.066 -0.143,1.599 0.065,0.533 0.585,0.689 0.52,0.156 1.638,0.156 l -0.13,0.78 h -7.176 l 0.156,-0.78 q 0.962,0 1.482,-0.156 0.52,-0.156 0.793,-0.676 0.273,-0.52 0.481,-1.612 l 2.288,-11.154 q 0.156,-0.728 0.078,-1.144 -0.078,-0.416 -0.533,-0.598 -0.455,-0.182 -1.495,-0.182 l 0.156,-0.78 h 6.11 q 2.73,0 4.251,0.845 1.521,0.845 1.521,2.743 z m -7.462,-2.496 v 0 l -1.456,7.176 0.806,0.026 q 1.56,-0.052 2.821,-0.507 1.261,-0.455 1.989,-1.443 0.728,-0.988 0.728,-2.652 0,-0.702 -0.299,-1.313 -0.299,-0.611 -1.027,-0.988 -0.728,-0.377 -2.028,-0.377 -0.494,0 -0.793,0.013 -0.299,0.013 -0.741,0.065 z"
           fill="#000000"
           id="path26" />
        <path
           d="m 143.309,-57.356 v 0 l -0.619,3.167 h -7.462 v -0.892 l 2.585,-2.621 q 1.019,-1.019 1.683,-1.801 0.664,-0.783 0.992,-1.575 0.328,-0.791 0.328,-1.811 0,-0.964 -0.592,-1.592 -0.591,-0.628 -1.665,-0.628 -0.983,0 -1.647,0.391 -0.665,0.392 -1.174,1.283 l -0.492,-0.236 q 0.455,-1.274 1.411,-2.002 0.955,-0.728 2.357,-0.728 1.092,0 1.929,0.391 0.837,0.391 1.31,1.119 0.474,0.728 0.474,1.766 0,0.892 -0.401,1.674 -0.4,0.783 -1.137,1.602 -0.737,0.819 -1.757,1.82 l -2.275,2.202 v 0.127 l 1.42,-0.072 h 2.366 q 0.528,0 0.81,-0.146 0.282,-0.146 0.482,-0.5 0.2,-0.355 0.437,-0.938 z"
           fill="#000000"
           id="path27" />
      </g>
    </g>
  </g>
  <circle
     cx="79.543404"
     cy="-148.36156"
     r="2.4300001"
     style="fill:#000000;stroke:#000000;stroke-width:1.7"
     id="circle29" />
  <circle
     cx="79.543404"
     cy="-25.24155"
     r="2.4300001"
     style="fill:#000000;stroke:#000000;stroke-width:1.7"
     id="circle30" />
</svg>
