<?xml version="1.0" encoding="UTF-8" standalone="no"?>
<svg
   xml:lang="en"
   height="105.38pt"
   width="304.96402pt"
   viewBox="-11.072 -60.32 304.96403 105.37999"
   version="1.1"
   id="svg24"
   sodipodi:docname="916t.svg"
   inkscape:version="1.3 (0e150ed, 2023-07-21)"
   xmlns:inkscape="http://www.inkscape.org/namespaces/inkscape"
   xmlns:sodipodi="http://sodipodi.sourceforge.net/DTD/sodipodi-0.dtd"
   xmlns="http://www.w3.org/2000/svg"
   xmlns:svg="http://www.w3.org/2000/svg">
  <defs
     id="defs24" />
  <sodipodi:namedview
     id="namedview24"
     pagecolor="#ffffff"
     bordercolor="#000000"
     borderopacity="0.25"
     inkscape:showpageshadow="2"
     inkscape:pageopacity="0.0"
     inkscape:pagecheckerboard="0"
     inkscape:deskcolor="#d1d1d1"
     inkscape:document-units="pt"
     inkscape:zoom="1.2095849"
     inkscape:cx="202.96218"
     inkscape:cy="70.272039"
     inkscape:window-width="1440"
     inkscape:window-height="819"
     inkscape:window-x="0"
     inkscape:window-y="25"
     inkscape:window-maximized="0"
     inkscape:current-layer="svg24" />
  <path
     d="m -4.39,-4.39 h 24.3 24.3"
     style="fill:none;stroke:#000000;stroke-width:1.7;stroke-linecap:round;stroke-linejoin:round"
     id="path1" />
  <path
     d="m 44.21,-4.39 h 29.484 m 0,-8.1 v 16.2 m 5.832,-16.2 v 16.2 m 0,-8.1 h 29.484"
     style="fill:none;stroke:#000000;stroke-width:1.7;stroke-linecap:round;stroke-linejoin:round"
     id="path2" />
  <path
     d="m 109.01,-4.39 h 29.484 m 0,-8.1 v 16.2 m 5.832,-16.2 v 16.2 m 0,-8.1 h 29.484"
     style="fill:none;stroke:#000000;stroke-width:1.7;stroke-linecap:round;stroke-linejoin:round"
     id="path3" />
  <path
     d="m 173.81,-4.39 h 29.484 m 0,-8.1 v 16.2 m 5.832,-16.2 v 16.2 m 0,-8.1 h 29.484"
     style="fill:none;stroke:#000000;stroke-width:1.7;stroke-linecap:round;stroke-linejoin:round"
     id="path4" />
  <path
     d="m 238.61,-4.39 h 24.3 24.3"
     style="fill:none;stroke:#000000;stroke-width:1.7;stroke-linecap:round;stroke-linejoin:round"
     id="path5" />
  <path
     d="M 44.21,-4.39 V -31.93 -59.47"
     style="fill:none;stroke:#000000;stroke-width:1.7;stroke-linecap:round;stroke-linejoin:round"
     id="path6" />
  <path
     d="m 44.21,-59.47 h 64.8 64.8"
     style="fill:none;stroke:#000000;stroke-width:1.7;stroke-linecap:round;stroke-linejoin:round"
     id="path7" />
  <path
     d="m 173.81,-59.47 v 27.54 27.54"
     style="fill:none;stroke:#000000;stroke-width:1.7;stroke-linecap:round;stroke-linejoin:round"
     id="path8" />
  <path
     d="m 109.01,-4.39 v 24.3 24.3"
     style="fill:none;stroke:#000000;stroke-width:1.7;stroke-linecap:round;stroke-linejoin:round"
     id="path9" />
  <path
     d="m 109.01,44.21 h 64.8 64.8"
     style="fill:none;stroke:#000000;stroke-width:1.7;stroke-linecap:round;stroke-linejoin:round"
     id="path10" />
  <path
     d="M 238.61,44.21 V 19.91 -4.39"
     style="fill:none;stroke:#000000;stroke-width:1.7;stroke-linecap:round;stroke-linejoin:round"
     id="path11" />
  <circle
     cx="109.01"
     cy="-4.3899999"
     r="2.4300001"
     style="fill:#000000;stroke:#000000;stroke-width:1.7"
     id="circle11" />
  <g
     id="g15"
     transform="translate(-4.39,-4.39)">
    <g
       id="g14">
      <g
         id="g13">
        <path
           d="m 84.759,-24.47 v 0 l 0.468,0.494 q -1.326,1.56 -3.068,2.561 -1.742,1.001 -4.212,1.001 -2.34,0 -3.744,-0.871 -1.404,-0.871 -2.015,-2.327 -0.611,-1.456 -0.611,-3.172 0,-2.73 0.832,-4.849 0.832,-2.119 2.275,-3.562 1.443,-1.443 3.263,-2.184 1.82,-0.741 3.796,-0.741 1.326,0 2.067,0.234 0.741,0.234 1.157,0.481 0.416,0.247 0.728,0.247 0.312,0 0.546,-0.26 0.234,-0.26 0.546,-0.676 h 0.754 l -1.222,5.954 h -0.858 q 0.104,-2.6 -0.962,-3.731 -1.066,-1.131 -2.99,-1.131 -1.508,0 -2.834,0.689 -1.326,0.689 -2.353,1.95 -1.027,1.261 -1.612,3.016 -0.585,1.755 -0.585,3.913 0,2.6 1.235,3.965 1.235,1.365 3.809,1.365 2.99,0 5.59,-2.366 z"
           fill="#000000"
           id="path12" />
        <path
           d="m 94.572,-15.24 v 0 h -6.17 v -0.655 q 1.31,0 1.738,-0.264 0.428,-0.264 0.428,-0.956 v -7.935 q 0,-0.491 -0.146,-0.71 -0.146,-0.218 -0.528,-0.218 -0.291,0 -0.792,0.082 -0.5,0.082 -0.864,0.173 v -0.728 l 3.367,-0.928 h 0.783 v 10.264 q 0,0.692 0.464,0.956 0.464,0.264 1.72,0.264 z"
           fill="#000000"
           id="path13" />
      </g>
    </g>
  </g>
  <circle
     cx="173.81"
     cy="-4.3899999"
     r="2.4300001"
     style="fill:#000000;stroke:#000000;stroke-width:1.7"
     id="circle15" />
  <g
     id="g18"
     transform="translate(-4.39,-4.39)">
    <g
       id="g17">
      <g
         id="g16">
        <path
           d="m 149.423,-24.47 v 0 l 0.468,0.494 q -1.326,1.56 -3.068,2.561 -1.742,1.001 -4.212,1.001 -2.34,0 -3.744,-0.871 -1.404,-0.871 -2.015,-2.327 -0.611,-1.456 -0.611,-3.172 0,-2.73 0.832,-4.849 0.832,-2.119 2.275,-3.562 1.443,-1.443 3.263,-2.184 1.82,-0.741 3.796,-0.741 1.326,0 2.067,0.234 0.741,0.234 1.157,0.481 0.416,0.247 0.728,0.247 0.312,0 0.546,-0.26 0.234,-0.26 0.546,-0.676 h 0.754 l -1.222,5.954 h -0.858 q 0.104,-2.6 -0.962,-3.731 -1.066,-1.131 -2.99,-1.131 -1.508,0 -2.834,0.689 -1.326,0.689 -2.353,1.95 -1.027,1.261 -1.612,3.016 -0.585,1.755 -0.585,3.913 0,2.6 1.235,3.965 1.235,1.365 3.809,1.365 2.99,0 5.59,-2.366 z"
           fill="#000000"
           id="path15" />
        <path
           d="m 160.272,-18.407 v 0 l -0.618,3.167 h -7.462 v -0.892 l 2.584,-2.621 q 1.019,-1.019 1.683,-1.801 0.665,-0.783 0.992,-1.575 0.328,-0.791 0.328,-1.811 0,-0.964 -0.591,-1.592 -0.592,-0.628 -1.666,-0.628 -0.983,0 -1.647,0.391 -0.664,0.392 -1.174,1.283 l -0.491,-0.236 q 0.455,-1.274 1.41,-2.002 0.956,-0.728 2.357,-0.728 1.092,0 1.929,0.391 0.838,0.391 1.311,1.119 0.473,0.728 0.473,1.766 0,0.892 -0.4,1.674 -0.401,0.783 -1.138,1.602 -0.737,0.819 -1.756,1.82 l -2.275,2.202 v 0.127 l 1.419,-0.072 h 2.366 q 0.528,0 0.81,-0.146 0.282,-0.146 0.483,-0.501 0.2,-0.354 0.436,-0.937 z"
           fill="#000000"
           id="path16" />
      </g>
    </g>
  </g>
  <g
     id="g21"
     transform="translate(-4.39,-4.39)">
    <g
       id="g20">
      <g
         id="g19">
        <path
           d="m 213.008,-24.707 v 0 l 0.468,0.494 q -1.326,1.56 -3.068,2.561 -1.742,1.001 -4.212,1.001 -2.34,0 -3.744,-0.871 -1.404,-0.871 -2.015,-2.327 -0.611,-1.456 -0.611,-3.172 0,-2.73 0.832,-4.849 0.832,-2.119 2.275,-3.562 1.443,-1.443 3.263,-2.184 1.82,-0.741 3.796,-0.741 1.326,0 2.067,0.234 0.741,0.234 1.157,0.481 0.416,0.247 0.728,0.247 0.312,0 0.546,-0.26 0.234,-0.26 0.546,-0.676 h 0.754 l -1.222,5.954 h -0.858 q 0.104,-2.6 -0.962,-3.731 -1.066,-1.131 -2.99,-1.131 -1.508,0 -2.834,0.689 -1.326,0.689 -2.353,1.95 -1.027,1.261 -1.612,3.016 -0.585,1.755 -0.585,3.913 0,2.6 1.235,3.965 1.235,1.365 3.809,1.365 2.99,0 5.59,-2.366 z"
           fill="#000000"
           id="path18" />
        <path
           d="m 216.486,-24.941 v 0 l -0.527,-0.254 q 0.546,-1.238 1.447,-1.866 0.9,-0.628 2.029,-0.628 1.456,0 2.348,0.71 0.891,0.71 0.891,1.838 0,0.983 -0.6,1.584 -0.601,0.6 -1.493,1.183 v 0.091 q 0.765,0.2 1.411,0.6 0.646,0.401 1.028,1.029 0.382,0.627 0.382,1.519 0,1.001 -0.436,1.738 -0.437,0.737 -1.183,1.22 -0.747,0.482 -1.702,0.71 -0.956,0.227 -1.993,0.227 -0.892,0 -1.356,-0.155 -0.464,-0.154 -0.637,-0.409 -0.173,-0.255 -0.173,-0.51 0,-0.309 0.182,-0.609 0.182,-0.301 0.619,-0.301 0.182,0 0.373,0.1 0.191,0.1 0.701,0.392 0.418,0.2 0.664,0.309 0.246,0.109 0.437,0.146 0.191,0.036 0.446,0.036 0.546,0 1.083,-0.2 0.537,-0.2 0.901,-0.719 0.364,-0.519 0.364,-1.465 0,-0.837 -0.464,-1.438 -0.465,-0.601 -1.247,-0.937 -0.783,-0.337 -1.729,-0.337 h -0.401 v -0.855 h 0.383 q 0.655,0 1.274,-0.301 0.618,-0.3 1.019,-0.855 0.4,-0.555 0.4,-1.32 0,-0.855 -0.555,-1.292 -0.555,-0.437 -1.41,-0.437 -1.584,0 -2.476,1.456 z"
           fill="#000000"
           id="path19" />
      </g>
    </g>
  </g>
  <circle
     cx="-4.3899999"
     cy="-4.3899999"
     r="5.8319998"
     style="fill:#ffffff;stroke:#000000;stroke-width:1.7"
     id="circle21" />
  <path
     d="M -10.222,7.274 1.442,-16.054"
     style="fill:none;stroke:#000000;stroke-width:1.7;stroke-linecap:round;stroke-linejoin:round"
     id="path21" />
  <circle
     cx="44.209999"
     cy="-4.3899999"
     r="2.4300001"
     style="fill:#000000;stroke:#000000;stroke-width:1.7"
     id="circle22" />
  <circle
     cx="238.61"
     cy="-4.3899999"
     r="2.4300001"
     style="fill:#000000;stroke:#000000;stroke-width:1.7"
     id="circle23" />
  <circle
     cx="287.20999"
     cy="-4.3899999"
     r="5.8319998"
     style="fill:#ffffff;stroke:#000000;stroke-width:1.7"
     id="circle24" />
  <path
     d="m 281.378,7.274 11.664,-23.328"
     style="fill:none;stroke:#000000;stroke-width:1.7;stroke-linecap:round;stroke-linejoin:round"
     id="path24" />
</svg>
