<svg xmlns="http://www.w3.org/2000/svg" version="1.0" width="1111.357581pt" height="1123.045365pt" viewBox="0 0 1111.357581 1123.045365" preserveAspectRatio="xMidYMid meet">
<metadata>
Created by potrace 1.16, written by Peter Selinger 2001-2019
</metadata>
<g transform="translate(-31.977993,1169.045365) scale(0.100000,-0.100000)" fill="#000000" stroke="none">
<path d="M661 11635 c-12 -31 -21 -60 -21 -65 0 -6 -30 -10 -66 -10 -83 0 -85 -23 -2 -30 53 -5 55 -6 47 -27 -7 -18 -16 -23 -45 -23 -44 0 -42 -24 2 -28 28 -3 30 -6 26 -33 -4 -26 -2 -30 14 -27 12 2 20 13 22 31 3 23 8 27 33 27 29 0 29 -1 23 -40 -5 -33 -4 -40 10 -40 10 0 19 15 27 45 8 33 16 45 30 45 11 0 19 5 19 10 0 6 -7 10 -16 10 -11 0 -14 5 -10 16 3 9 6 20 6 25 0 5 6 9 14 9 20 0 31 21 16 30 -10 6 -10 15 0 44 7 21 9 40 6 43 -13 13 -36 -9 -47 -46 -11 -35 -16 -41 -41 -41 -33 0 -34 5 -9 69 10 28 16 52 13 55 -16 17 -33 0 -51 -49z m59 -125 c0 -16 -7 -20 -30 -20 -18 0 -30 5 -30 13 0 20 10 27 37 27 16 0 23 -6 23 -20z"/>
<path d="M1044 11606 c-33 -14 -74 -60 -74 -82 0 -27 31 -44 81 -44 27 0 49 -4 49 -10 0 -14 -72 -60 -94 -60 -10 0 -24 7 -31 17 -11 15 -35 11 -35 -7 0 -19 33 -40 62 -40 42 0 112 42 137 84 55 89 -7 181 -95 142z m76 -47 c20 -36 6 -49 -55 -49 -61 0 -68 10 -33 47 28 29 73 31 88 2z"/>
<path d="M1486 11608 c-2 -7 -13 -46 -26 -85 -23 -72 -23 -73 -4 -94 16 -17 27 -20 67 -16 28 2 56 12 65 22 16 16 14 17 -40 10 -35 -4 -58 -2 -62 4 -4 6 3 39 15 74 22 61 21 97 -1 97 -6 0 -12 -6 -14 -12z"/>
<path d="M1243 11594 c-9 -23 13 -40 31 -24 19 15 66 5 66 -15 0 -7 -29 -33 -65 -57 -48 -31 -65 -48 -65 -65 0 -12 5 -25 12 -29 19 -12 121 -8 146 5 40 21 23 30 -50 25 -71 -5 -73 -5 -52 13 12 10 42 33 68 50 52 36 58 61 24 93 -27 25 -105 28 -115 4z"/>
<path d="M1645 11569 c-6 -9 -44 -148 -62 -226 -8 -34 25 -30 38 4 12 31 59 210 59 224 0 13 -27 11 -35 -2z"/>
<path d="M5538 11538 c-38 -13 -38 -43 -1 -33 78 19 83 -1 18 -65 -25 -24 -45 -50 -45 -58 0 -7 15 -19 33 -26 38 -16 195 -41 203 -33 15 15 -14 27 -102 42 l-96 18 46 46 c51 52 58 82 24 105 -25 18 -41 19 -80 4z"/>
<path d="M9670 11429 c-48 -19 -99 -61 -109 -90 -11 -33 -31 -37 -75 -14 -36 19 -46 19 -46 -1 0 -16 56 -44 90 -44 12 0 47 -12 78 -26 l57 -27 -47 -47 c-83 -82 -60 -141 56 -148 93 -6 206 21 183 44 -3 3 -39 0 -80 -7 -97 -16 -160 -5 -165 30 -3 18 10 36 53 77 31 29 54 57 51 63 -3 5 -30 17 -59 27 l-52 17 45 16 c59 21 123 82 118 113 -2 19 -10 23 -38 25 -19 1 -46 -2 -60 -8z m60 -27 c0 -24 -113 -92 -128 -78 -8 9 36 53 72 70 35 17 56 20 56 8z"/>
<path d="M10000 11227 l0 -214 -142 -6 c-172 -8 -855 -10 -867 -3 -13 8 -108 -11 -190 -38 -57 -18 -77 -29 -84 -47 -11 -27 -34 -1576 -24 -1602 6 -15 26 -17 176 -17 l170 0 3 -46 3 -47 235 1 235 1 3 41 3 40 58 0 c32 0 126 3 209 7 l152 6 0 -26 c0 -16 6 -27 14 -27 11 0 15 -49 20 -247 7 -266 24 -574 32 -582 3 -3 70 -9 150 -14 105 -7 148 -7 156 1 21 21 -3 27 -135 32 l-131 5 -8 35 c-4 19 -13 200 -19 401 -12 354 -12 367 7 391 18 24 23 25 169 31 82 4 184 10 227 13 l76 7 6 -69 c15 -162 20 -189 40 -192 16 -4 18 1 12 40 -3 23 -9 166 -12 316 -6 257 -8 272 -25 272 -18 0 -19 -11 -19 -168 l0 -169 -177 -11 c-237 -16 -272 -16 -279 3 -8 19 -41 19 -75 1 -17 -9 -92 -15 -236 -20 l-211 -7 2 93 1 93 -48 8 c-56 11 -393 -5 -407 -19 -5 -5 -15 -44 -22 -87 l-12 -77 -154 0 -155 0 8 723 c4 397 10 753 14 792 l6 70 65 23 c72 26 100 28 828 36 l352 4 0 -205 c0 -189 1 -204 18 -201 16 3 17 32 17 433 0 401 -1 430 -17 433 -17 3 -18 -12 -18 -211z m-514 -1750 c3 -3 2 -57 -2 -121 l-7 -116 -193 0 -193 0 5 53 c3 28 9 73 13 99 5 29 4 51 -2 57 -6 6 -8 14 -4 17 16 16 368 26 383 11z"/>
<path d="M5261 11405 c-16 -14 -33 -35 -36 -45 -5 -15 -15 -20 -46 -20 -52 0 -53 -25 -1 -34 20 -3 47 -14 60 -24 21 -16 22 -20 8 -31 -23 -19 -20 -57 6 -75 30 -22 154 -21 208 0 49 20 54 39 8 30 -18 -4 -68 -10 -110 -13 -67 -4 -79 -3 -84 12 -9 22 16 45 55 54 43 8 40 24 -6 34 -69 14 -71 17 -21 43 77 39 91 94 24 94 -22 0 -45 -9 -65 -25z m49 -25 c-33 -26 -52 -25 -21 0 13 11 28 20 35 20 6 0 0 -9 -14 -20z"/>
<path d="M10181 11385 c-31 -27 -47 -58 -36 -74 8 -13 35 -2 35 14 0 7 7 18 15 25 11 10 18 9 30 -4 11 -10 34 -16 67 -16 48 0 50 -1 35 -18 -25 -27 -47 -87 -47 -127 0 -29 6 -39 33 -55 51 -31 187 -24 187 9 0 5 -27 7 -60 4 -75 -7 -120 9 -120 44 0 34 25 88 60 133 17 22 26 41 21 45 -6 3 -39 3 -74 -1 -60 -6 -64 -5 -80 20 -22 32 -28 32 -66 1z"/>
<path d="M4880 11354 c-64 -54 -89 -145 -50 -184 49 -49 239 11 218 69 -1 6 -25 -3 -52 -20 -119 -75 -192 -25 -116 79 38 52 76 64 102 32 21 -26 51 -21 41 7 -17 50 -92 59 -143 17z"/>
<path d="M3468 11318 c-43 -33 -48 -140 -21 -420 11 -115 17 -266 17 -448 0 -265 -1 -279 -28 -392 -15 -65 -43 -168 -62 -229 -35 -111 -35 -111 -16 -133 29 -32 38 -54 55 -136 21 -100 24 -130 47 -525 39 -653 76 -886 150 -925 32 -17 35 -6 12 42 -50 104 -78 332 -112 921 -25 419 -42 532 -93 622 l-23 40 28 90 c49 154 77 279 89 387 14 125 6 496 -16 713 -15 153 -20 332 -9 358 3 9 13 13 25 10 13 -4 19 0 19 11 0 9 -4 16 -9 16 -5 0 -15 2 -23 5 -7 3 -21 0 -30 -7z"/>
<path d="M1710 11299 c-211 -12 -849 -29 -1122 -29 -156 0 -248 -4 -248 -10 0 -5 12 -13 27 -16 40 -10 986 4 1213 19 114 7 402 11 693 11 383 -1 497 1 497 11 0 22 -747 32 -1060 14z"/>
<path d="M2786 11272 c-11 -18 -37 -185 -46 -297 -5 -66 -10 -256 -10 -422 l0 -301 -67 -8 c-91 -9 -2170 5 -2258 16 -71 9 -100 1 -78 -21 19 -19 444 -26 1452 -25 l944 1 -9 -530 c-10 -589 -9 -816 5 -950 5 -49 8 -91 6 -93 -4 -5 -403 -5 -1474 -3 -491 1 -896 -1 -899 -4 -3 -3 -1 -9 4 -14 14 -14 2400 -21 2430 -7 29 13 32 36 5 36 -11 0 -22 3 -24 8 -3 4 -10 85 -17 179 -8 128 -9 280 -1 590 6 230 13 645 16 923 6 515 16 720 40 845 7 39 11 73 8 78 -6 9 -21 9 -27 -1z"/>
<path d="M4136 11238 c-8 -13 -26 -61 -40 -108 -14 -47 -30 -92 -36 -100 -14 -21 -23 -6 -56 93 -22 66 -29 77 -49 77 -19 0 -28 -13 -56 -76 l-33 -75 -32 63 c-35 69 -57 94 -74 83 -14 -9 -12 -43 3 -52 8 -4 29 -37 48 -73 19 -36 42 -66 51 -68 13 -2 27 17 56 73 l38 77 19 -62 c47 -155 103 -148 156 19 18 59 38 102 51 112 21 17 21 17 0 28 -28 15 -29 14 -46 -11z"/>
<path d="M10081 11028 c1 -210 5 -241 33 -246 16 -4 18 0 12 28 -3 18 -6 117 -6 221 0 182 -1 189 -20 189 -19 0 -20 -6 -19 -192z"/>
<path d="M4371 11141 c-77 -8 -80 -31 -4 -30 105 2 186 14 191 27 4 13 -81 14 -187 3z"/>
<path d="M570 11094 c-79 -34 -114 -88 -160 -247 -35 -123 -37 -147 -11 -147 13 0 25 16 40 51 21 47 24 50 39 36 24 -22 152 -78 163 -71 19 11 7 22 -58 53 -74 35 -93 53 -93 87 0 17 9 24 46 33 25 7 57 19 70 27 57 38 81 125 48 172 -18 26 -36 27 -84 6z m58 -53 c8 -54 -52 -121 -107 -121 -19 0 -21 4 -15 23 4 12 11 25 16 28 5 3 8 17 6 30 -2 17 6 29 31 46 42 28 65 26 69 -6z"/>
<path d="M4440 11071 c-42 -4 -74 -10 -73 -16 4 -15 112 -18 156 -5 40 12 51 31 15 28 -13 -1 -57 -4 -98 -7z"/>
<path d="M4850 11067 c0 -20 48 -25 339 -38 270 -11 397 -10 394 6 -2 6 -115 15 -285 21 -155 7 -319 15 -365 19 -69 6 -83 4 -83 -8z"/>
<path d="M1831 11002 c-50 -50 -103 -159 -115 -237 -12 -78 31 -88 56 -14 8 24 19 44 25 46 5 2 33 -17 61 -42 51 -46 102 -61 102 -30 0 8 -8 15 -17 15 -16 0 -109 78 -101 84 2 2 19 9 38 16 74 28 109 84 95 150 -17 76 -75 81 -144 12z m99 -1 c28 -54 -4 -110 -77 -135 -26 -9 -47 -16 -48 -16 -1 0 -1 13 0 29 2 35 37 94 73 120 34 25 39 26 52 2z"/>
<path d="M11382 11024 c-9 -16 -51 -17 -626 -12 -486 5 -616 3 -616 -6 0 -17 301 -26 836 -26 l401 0 9 -187 c5 -104 8 -345 6 -538 -1 -192 -2 -477 -2 -633 0 -247 -2 -283 -16 -289 -8 -3 -26 0 -38 7 -17 9 -33 9 -62 1 -23 -7 -143 -11 -297 -11 l-259 0 4 173 c3 148 1 172 -12 172 -12 0 -16 -26 -23 -140 -4 -77 -6 -210 -5 -295 3 -138 5 -155 21 -158 15 -3 17 7 17 107 l0 111 255 0 c252 0 255 0 255 -21 0 -12 8 -23 20 -26 16 -4 20 -14 21 -47 0 -50 17 -448 27 -644 l7 -142 -52 0 c-38 0 -53 -4 -53 -14 0 -16 117 -31 134 -17 8 6 9 52 5 148 -31 681 -31 695 -12 730 9 18 25 33 35 33 9 0 29 5 43 12 l25 11 3 546 c1 300 1 607 -1 681 -11 447 -19 529 -50 474z"/>
<path d="M1143 10960 c-26 -11 -57 -55 -48 -70 11 -17 30 -11 40 13 12 28 49 34 80 13 13 -9 34 -16 47 -16 22 0 22 0 -4 -27 -43 -46 -88 -125 -88 -155 0 -38 29 -43 109 -20 103 29 89 57 -15 31 -25 -6 -47 -9 -50 -6 -10 10 34 83 81 135 26 28 44 56 40 62 -3 5 -23 10 -43 10 -20 0 -50 9 -67 20 -33 22 -48 23 -82 10z"/>
<path d="M5168 10919 c-26 -15 -22 -38 9 -50 31 -12 58 5 33 21 -12 8 -9 10 11 10 15 0 32 -6 38 -14 17 -21 2 -45 -59 -96 -28 -23 -50 -50 -50 -61 0 -18 9 -19 114 -19 74 0 117 4 122 11 13 22 -22 29 -106 23 l-85 -6 43 37 c55 48 75 86 63 118 -5 13 -17 27 -26 31 -25 9 -88 7 -107 -5z"/>
<path d="M2136 10755 c-22 -19 -46 -35 -53 -35 -8 0 -13 -6 -10 -12 2 -7 15 -12 29 -11 l24 1 -22 -66 c-13 -36 -20 -70 -18 -74 14 -22 32 -2 48 50 10 31 29 79 43 106 22 44 25 77 6 76 -4 -1 -26 -16 -47 -35z"/>
<path d="M845 10701 c-3 -5 -1 -12 5 -16 20 -13 9 -47 -30 -89 -44 -48 -39 -71 8 -40 54 35 81 90 67 134 -6 20 -39 28 -50 11z"/>
<path d="M1454 10648 c-14 -24 -38 -60 -52 -81 -26 -39 -23 -59 6 -41 22 13 103 135 99 148 -8 24 -28 14 -53 -26z"/>
<path d="M5205 10449 c-19 -17 -35 -37 -35 -45 0 -18 -110 -20 -127 -3 -7 7 -20 8 -30 5 -17 -7 -16 -9 6 -27 17 -14 39 -19 80 -19 47 -1 59 -4 73 -24 14 -20 15 -29 5 -55 -21 -57 -6 -66 117 -66 134 0 144 19 11 23 -86 2 -95 5 -95 22 0 10 5 22 10 25 16 10 12 47 -7 60 -14 11 -10 14 34 29 106 35 127 106 31 106 -28 0 -47 -8 -73 -31z m95 -4 c0 -9 -64 -45 -79 -45 -10 0 -7 8 9 25 20 21 70 36 70 20z"/>
<path d="M3871 10270 c-87 -7 -96 -30 -12 -30 61 0 61 0 61 -32 0 -29 -5 -58 -25 -145 -4 -18 -13 -22 -52 -25 -57 -4 -67 -23 -17 -32 39 -8 155 1 192 15 44 17 24 31 -33 24 -55 -7 -56 -7 -51 16 20 87 26 118 26 147 l0 32 70 0 c41 0 70 4 70 10 0 6 -6 12 -12 15 -24 7 -152 10 -217 5z"/>
<path d="M4264 10159 c-13 -22 22 -28 136 -23 126 6 140 8 140 24 0 14 -267 14 -276 -1z"/>
<path d="M4915 10143 c-97 -3 -135 -9 -135 -21 0 -6 1057 -10 1098 -4 6 1 12 9 12 17 0 13 -55 15 -442 13 -244 -1 -483 -3 -533 -5z"/>
<path d="M4371 10111 c-19 -3 -36 -12 -39 -19 -3 -11 17 -12 104 -7 122 7 138 10 129 25 -7 11 -137 12 -194 1z"/>
<path d="M1625 9988 c-2 -7 -8 -49 -14 -92 -12 -80 -5 -110 18 -82 14 17 35 151 27 172 -7 17 -25 18 -31 2z"/>
<path d="M5294 9950 c-31 -12 -63 -57 -69 -99 -3 -20 -12 -60 -19 -88 -7 -29 -11 -55 -8 -58 14 -14 32 -2 42 30 l11 35 39 -20 c40 -21 110 -27 110 -11 0 5 -10 12 -22 16 -42 12 -98 38 -98 46 0 5 25 24 55 43 58 37 78 74 55 101 -13 16 -62 19 -96 5z m66 -34 c0 -14 -32 -41 -78 -65 -22 -12 -23 -11 -17 11 14 47 95 93 95 54z"/>
<path d="M5700 9933 c-25 -23 -37 -47 -55 -116 -20 -73 -21 -89 -10 -93 20 -8 35 4 35 27 0 24 2 24 62 -6 58 -29 68 -31 68 -10 0 8 -21 25 -46 38 l-46 23 56 37 c86 57 90 119 8 125 -33 3 -46 -2 -72 -25z m90 -15 c0 -19 -11 -31 -47 -56 -41 -29 -43 -28 -29 11 17 48 25 57 52 57 13 0 24 -6 24 -12z"/>
<path d="M9183 9902 c-50 -21 -51 -22 -63 -61 -6 -21 -5 -35 3 -43 7 -7 13 -51 15 -98 2 -47 7 -89 12 -94 16 -16 30 5 30 45 0 21 3 39 7 39 3 0 49 -23 101 -51 68 -37 97 -48 105 -40 14 14 -3 27 -120 88 -51 26 -93 51 -93 55 0 3 29 16 63 27 72 24 107 52 107 84 0 33 -12 46 -51 57 -46 13 -67 12 -116 -8z m122 -33 c17 -17 -10 -43 -68 -65 l-57 -22 0 29 c0 16 -4 29 -10 29 -25 0 -6 20 33 34 42 15 83 13 102 -5z"/>
<path d="M4780 9881 c-27 -22 -32 -32 -23 -41 8 -9 18 -7 40 8 20 14 38 19 60 15 l32 -5 -41 -54 c-23 -32 -38 -60 -34 -69 7 -20 64 -20 116 1 67 27 45 45 -29 24 -19 -5 -37 -8 -39 -5 -3 2 16 29 43 60 55 65 54 86 -3 78 -24 -3 -42 -1 -46 6 -12 19 -40 12 -76 -18z"/>
<path d="M5533 9893 c-7 -3 -13 -18 -13 -33 0 -27 -3 -29 -42 -32 -55 -4 -56 -22 -2 -26 38 -3 40 -5 36 -31 -4 -32 15 -52 29 -30 5 8 9 24 9 37 0 18 6 22 31 22 35 0 36 23 1 28 -17 3 -22 10 -22 32 0 31 -8 40 -27 33z"/>
<path d="M5100 9864 c-6 -14 -10 -30 -10 -35 0 -5 -9 -9 -20 -9 -11 0 -20 -7 -20 -15 0 -8 9 -15 21 -15 15 0 19 -5 15 -17 -7 -23 10 -51 23 -38 5 6 11 19 13 30 2 14 13 22 36 25 43 7 46 24 4 28 -31 3 -32 5 -26 38 5 27 3 34 -10 34 -9 0 -21 -12 -26 -26z"/>
<path d="M2123 9870 c-13 -5 -23 -16 -23 -24 0 -20 58 -86 76 -86 22 0 17 24 -11 50 -13 12 -22 27 -19 31 3 5 35 9 72 9 86 0 136 -23 140 -64 4 -32 -17 -59 -90 -112 -78 -58 -106 -123 -73 -171 15 -22 52 -36 60 -23 2 4 -4 18 -15 30 -31 36 -25 65 22 107 112 100 138 130 138 157 0 69 -62 106 -180 105 -41 0 -85 -4 -97 -9z"/>
<path d="M10900 9790 c-15 -16 -35 -45 -44 -65 -41 -86 6 -129 134 -122 81 4 160 35 160 62 0 20 -8 19 -59 -6 -90 -43 -211 -34 -211 15 0 24 56 116 70 116 5 0 12 -4 15 -10 7 -12 45 -13 45 -2 0 16 -37 42 -59 42 -13 0 -35 -13 -51 -30z"/>
<path d="M1438 9686 c-29 -58 -55 -103 -59 -100 -4 2 -11 30 -14 62 -11 94 -24 132 -44 132 -23 0 -41 -21 -84 -100 -22 -38 -38 -58 -41 -50 -2 8 -12 42 -23 75 -14 48 -23 61 -40 63 -26 4 -31 -21 -10 -47 8 -9 19 -38 25 -66 29 -133 50 -138 108 -23 23 45 46 84 51 85 6 2 13 -23 16 -57 9 -79 30 -130 56 -130 15 0 34 28 81 115 34 63 65 117 71 120 18 11 9 25 -16 25 -22 0 -32 -13 -77 -104z"/>
<path d="M5876 9758 c-12 -45 -7 -108 8 -108 17 0 24 19 28 80 2 35 -1 46 -13 48 -10 2 -19 -6 -23 -20z"/>
<path d="M405 9598 c-2 -7 -6 -40 -8 -73 -3 -33 -8 -72 -12 -87 -11 -42 17 -36 49 10 14 21 40 52 57 68 l31 29 -5 -40 c-3 -22 -9 -52 -12 -67 -12 -47 22 -34 94 35 60 56 66 60 69 39 2 -12 -2 -38 -8 -57 -13 -40 -6 -62 15 -45 22 18 38 78 31 116 -6 30 -11 34 -36 34 -20 0 -43 -12 -70 -36 -40 -36 -40 -36 -40 -11 0 43 -10 57 -42 57 -18 0 -38 -9 -53 -26 l-24 -26 -3 43 c-3 41 -23 64 -33 37z"/>
<path d="M803 9547 c-10 -16 11 -26 72 -32 61 -6 99 5 80 24 -13 12 -145 19 -152 8z"/>
<path d="M1883 9480 c-65 -10 -83 -16 -83 -31 0 -8 17 -9 58 -5 91 11 112 17 112 32 0 15 -8 15 -87 4z"/>
<path d="M1164 9469 c-16 -26 26 -30 235 -24 118 3 218 8 223 11 29 18 -27 24 -227 24 -153 0 -226 -3 -231 -11z"/>
<path d="M807 9463 c-19 -18 1 -24 80 -21 58 2 88 7 91 16 3 9 -18 12 -80 12 -47 0 -88 -3 -91 -7z"/>
<path d="M1497 9338 c-8 -18 -22 -57 -32 -85 -10 -29 -21 -50 -24 -47 -3 3 -12 33 -21 67 -12 48 -19 63 -35 65 -17 2 -28 -13 -60 -79 l-40 -81 -13 48 c-23 84 -33 104 -54 104 -15 0 -19 -5 -15 -17 3 -10 15 -49 27 -88 20 -70 41 -98 65 -89 8 3 28 34 47 69 18 35 35 62 39 59 4 -2 10 -25 14 -50 9 -65 14 -74 40 -74 18 0 28 13 52 68 17 37 34 78 38 92 4 14 15 30 23 36 19 14 8 34 -18 34 -13 0 -25 -12 -33 -32z"/>
<path d="M2262 9323 c2 -10 13 -19 26 -21 24 -4 29 7 10 26 -18 18 -40 15 -36 -5z"/>
<path d="M5199 9215 c-34 -19 -51 -66 -43 -124 4 -29 0 -69 -11 -110 -10 -41 -13 -67 -7 -73 16 -16 31 -1 38 37 3 19 7 35 8 35 1 0 44 -9 95 -20 51 -11 98 -22 104 -23 7 -1 12 5 12 13 0 14 -27 23 -129 46 -22 5 -41 14 -43 20 -2 5 34 31 79 55 78 43 83 48 86 81 4 52 -32 78 -107 78 -31 -1 -68 -7 -82 -15z m141 -35 c11 -11 17 -26 14 -34 -3 -8 -37 -31 -76 -51 l-70 -37 7 41 c6 34 4 41 -9 41 -24 0 -19 16 10 39 35 28 97 28 124 1z"/>
<path d="M3945 9148 c-3 -24 -5 -92 -3 -152 2 -90 6 -111 20 -120 23 -14 53 15 102 98 l36 60 0 -50 c0 -60 21 -94 57 -94 33 0 113 46 113 65 0 21 -15 19 -60 -10 -22 -14 -44 -25 -50 -25 -23 0 -25 103 -4 223 6 32 4 37 -13 37 -14 0 -32 -27 -72 -109 -30 -60 -62 -119 -73 -132 -18 -24 -18 -23 -17 111 2 117 0 135 -14 138 -12 2 -17 -8 -22 -40z"/>
<path d="M4852 9181 c-91 -7 -111 -24 -31 -29 50 -3 51 -4 44 -30 -19 -73 -32 -148 -27 -160 11 -30 29 1 50 91 l24 96 39 6 c24 4 38 12 36 18 -4 14 -26 16 -135 8z"/>
<path d="M4370 9035 c0 -12 18 -15 99 -15 101 0 131 5 131 21 0 5 -52 9 -115 9 -96 0 -115 -3 -115 -15z"/>
<path d="M4443 8980 c-46 -19 -24 -31 45 -25 88 8 112 13 112 25 0 12 -127 12 -157 0z"/>
<path d="M5555 8938 c-22 -77 -25 -181 -5 -185 13 -3 18 14 28 84 7 48 15 103 18 121 5 25 3 32 -10 32 -10 0 -21 -18 -31 -52z"/>
<path d="M4852 8931 c-107 -15 -146 -32 -92 -40 30 -4 195 18 228 30 25 10 21 30 -6 28 -9 -1 -68 -9 -130 -18z"/>
<path d="M5751 8641 c-25 -16 -2 -31 39 -25 61 10 64 -16 6 -67 -52 -46 -60 -80 -23 -103 25 -16 144 -42 153 -33 11 11 -6 26 -39 32 -63 13 -97 27 -97 40 0 8 20 30 45 51 49 40 57 70 27 97 -20 18 -87 23 -111 8z"/>
<path d="M10680 8624 c-41 -7 -130 -13 -197 -13 -67 -1 -134 -6 -149 -11 -26 -10 -27 -11 -20 -78 12 -117 35 -201 59 -214 20 -11 121 -8 357 10 l85 7 3 39 3 39 118 -7 c118 -6 118 -6 136 20 l17 26 26 -43 c17 -28 21 -44 14 -47 -7 -2 -12 -10 -12 -18 0 -17 46 -48 60 -39 11 7 14 65 3 65 -5 0 -21 23 -37 52 l-29 51 26 22 c46 36 27 63 -20 30 -21 -14 -24 -13 -65 31 -30 31 -50 45 -63 43 -17 -4 -14 -9 19 -39 55 -50 60 -65 39 -101 -16 -27 -22 -30 -53 -25 -19 3 -68 6 -108 6 l-73 0 5 43 c3 23 8 70 11 105 l6 62 -43 -1 c-24 -1 -77 -7 -118 -15z m116 -31 c-3 -10 -8 -69 -12 -130 l-7 -113 -41 0 c-22 0 -99 -5 -170 -10 -158 -12 -174 -8 -180 34 -8 58 -25 151 -31 172 -6 20 -2 21 132 28 76 4 170 13 208 20 101 19 107 19 101 -1z"/>
<path d="M5252 8515 c-63 -27 -108 -179 -64 -218 42 -38 118 -29 188 21 l39 29 10 -31 c9 -28 15 -31 54 -34 33 -3 52 3 81 22 l37 25 12 -25 c8 -19 18 -24 46 -24 43 0 95 25 95 45 0 19 -18 19 -50 0 -14 -8 -33 -14 -43 -15 -16 0 -18 5 -12 33 3 17 13 49 22 69 16 37 13 68 -7 68 -6 0 -20 -20 -31 -44 -21 -48 -88 -113 -127 -123 -41 -10 -48 10 -28 86 17 65 16 91 -3 91 -5 0 -27 -29 -50 -65 -51 -78 -110 -118 -168 -113 -35 3 -38 6 -41 36 -2 19 7 54 22 87 20 45 29 55 50 55 19 0 26 -7 31 -30 8 -39 35 -40 35 -2 0 56 -43 81 -98 57z"/>
<path d="M4476 8502 c-12 -20 -18 -169 -8 -176 17 -11 29 23 37 107 6 65 4 77 -9 77 -8 0 -17 -4 -20 -8z"/>
<path d="M3940 8341 c0 -12 4 -21 8 -21 5 0 16 -34 26 -76 26 -107 69 -145 100 -86 7 15 22 56 32 91 l17 63 28 -77 c15 -43 36 -86 46 -97 42 -42 90 14 138 160 9 29 15 56 11 59 -15 15 -36 -13 -65 -90 -17 -47 -38 -90 -45 -96 -15 -13 -15 -14 -52 93 -27 78 -39 96 -64 96 -19 0 -36 -36 -60 -123 -7 -26 -16 -50 -20 -52 -4 -3 -13 17 -20 43 -28 109 -36 127 -58 130 -17 3 -22 -2 -22 -17z"/>
<path d="M4620 8265 c0 -13 15 -15 97 -13 66 2 98 7 101 16 3 9 -21 12 -97 12 -84 0 -101 -3 -101 -15z"/>
<path d="M10507 8222 c-24 -26 -35 -65 -47 -162 -10 -81 -4 -110 18 -96 5 3 15 33 22 67 11 51 15 58 22 40 10 -29 154 -99 170 -83 14 14 18 10 -64 52 -38 19 -68 39 -68 45 0 6 27 23 59 38 82 38 91 71 26 101 -46 22 -117 21 -138 -2z m114 -22 c30 -17 23 -27 -40 -57 l-59 -29 5 36 c3 19 6 41 9 48 4 15 58 16 85 2z"/>
<path d="M4672 8210 c-39 -9 -46 -15 -37 -29 3 -6 16 -9 29 -5 12 3 53 8 91 12 41 4 70 12 73 20 4 14 -99 16 -156 2z"/>
<path d="M5202 8213 c-20 -2 -32 -9 -29 -16 3 -9 77 -13 275 -15 246 -2 297 2 265 21 -11 7 -472 16 -511 10z"/>
<path d="M10765 7993 c7 -99 16 -126 35 -107 7 7 8 45 4 107 -6 88 -9 97 -27 97 -18 0 -19 -5 -12 -97z"/>
<path d="M5387 8074 c-15 -16 9 -24 69 -24 35 0 64 -3 64 -7 -1 -5 -24 -21 -53 -38 -35 -20 -52 -36 -52 -50 0 -18 8 -20 85 -23 95 -3 133 3 127 21 -2 8 -28 11 -83 9 -66 -2 -76 0 -60 10 10 7 37 26 59 42 l41 29 -23 18 c-18 15 -40 19 -95 19 -40 0 -76 -3 -79 -6z"/>
<path d="M3028 7135 c-15 -8 -29 -24 -33 -35 -3 -11 -12 -20 -18 -21 -21 -2 -71 1 -109 7 -29 4 -38 2 -38 -9 0 -20 18 -26 103 -34 40 -3 82 -13 95 -21 22 -14 22 -14 -23 -56 -52 -48 -60 -87 -23 -107 27 -14 191 -24 242 -15 67 13 37 23 -86 29 -67 4 -126 11 -131 16 -14 14 7 44 52 76 48 32 51 49 15 68 -26 14 -26 14 20 31 53 20 81 52 64 73 -14 17 -96 16 -130 -2z m87 -24 c-14 -12 -77 -32 -83 -26 -3 3 3 12 14 20 20 15 85 21 69 6z"/>
<path d="M3534 7137 c-46 -15 -104 -130 -104 -204 0 -42 3 -53 16 -53 9 0 18 9 21 20 7 26 7 26 98 -11 75 -30 108 -34 104 -14 -1 6 -40 25 -86 44 l-85 34 63 31 c88 43 134 117 97 154 -14 14 -80 14 -124 -1z m96 -38 c0 -12 -13 -33 -30 -49 -29 -27 -87 -57 -95 -48 -9 9 20 80 35 86 8 3 19 11 23 19 4 7 21 13 37 13 24 0 30 -4 30 -21z"/>
<path d="M1084 7088 c-15 -29 -18 -77 -19 -403 -2 -317 -5 -389 -23 -505 -12 -77 -17 -141 -12 -150 22 -40 30 -153 30 -384 0 -137 5 -278 11 -315 15 -99 80 -224 108 -207 8 5 5 19 -9 46 -46 91 -53 140 -55 440 -2 162 -8 307 -14 335 -6 28 -15 66 -19 85 -5 23 -1 77 12 155 16 99 19 182 22 475 1 195 3 372 3 392 1 20 8 44 17 52 14 15 13 16 -10 16 -19 0 -30 -9 -42 -32z"/>
<path d="M3769 6968 c-7 -12 -14 -53 -17 -91 -4 -64 -3 -69 14 -65 15 2 20 15 26 63 3 33 9 72 13 88 6 21 4 27 -8 27 -9 0 -22 -10 -28 -22z"/>
<path d="M1706 6964 c-3 -9 -6 -27 -6 -40 0 -14 -11 -64 -25 -112 -13 -48 -26 -105 -27 -127 -3 -37 -1 -40 24 -43 22 -3 40 8 84 49 50 48 55 51 49 26 -9 -36 7 -54 53 -61 47 -7 114 5 120 22 3 9 -15 12 -68 12 l-72 0 7 38 c3 20 15 57 26 81 31 70 -1 87 -43 23 -31 -46 -127 -152 -138 -152 -9 0 -6 18 22 118 12 39 24 72 27 72 3 0 7 25 8 55 2 48 0 55 -16 55 -10 0 -22 -7 -25 -16z"/>
<path d="M2132 6828 c3 -9 34 -14 96 -16 77 -2 92 0 92 13 0 12 -16 15 -96 15 -72 0 -95 -3 -92 -12z"/>
<path d="M2722 6803 c-57 -2 -82 -8 -80 -15 3 -9 141 -12 509 -14 277 -1 600 -7 718 -13 117 -6 218 -8 223 -5 27 17 -24 27 -173 35 -185 9 -1069 19 -1197 12z"/>
<path d="M2122 6748 c5 -15 218 -24 218 -10 0 15 -39 22 -133 22 -67 0 -88 -3 -85 -12z"/>
<path d="M3896 6720 c-30 -9 -72 -43 -87 -71 -9 -17 -49 -193 -49 -216 0 -23 30 -14 40 13 10 25 13 26 63 20 28 -4 62 -14 74 -22 28 -18 43 -18 43 1 0 20 -49 44 -112 53 l-53 7 62 48 c98 75 131 141 84 167 -22 11 -25 11 -65 0z m44 -47 c0 -24 -91 -106 -103 -94 -14 14 10 67 41 91 31 25 62 26 62 3z"/>
<path d="M3314 6691 c-48 -29 -71 -66 -99 -156 -14 -46 -25 -88 -25 -94 0 -25 30 -8 51 29 23 41 33 48 44 30 9 -14 121 -70 140 -70 34 0 11 28 -46 55 -33 16 -63 33 -65 36 -2 4 16 22 40 39 24 18 52 47 62 65 38 71 -26 112 -102 66z m76 -29 c0 -10 -15 -32 -32 -48 -51 -47 -63 -53 -77 -45 -29 18 51 111 97 111 6 0 12 -8 12 -18z"/>
<path d="M2636 6610 c-24 -22 -49 -40 -55 -40 -7 0 -11 -6 -9 -12 9 -26 38 -18 81 21 39 36 46 39 57 26 7 -8 19 -15 26 -15 9 0 1 -21 -22 -60 -19 -34 -38 -77 -41 -97 l-6 -36 72 6 c69 6 106 20 96 37 -2 4 -24 4 -47 -1 -55 -11 -78 -11 -78 -1 0 4 20 43 45 86 24 43 42 83 39 87 -3 5 -16 9 -28 9 -13 0 -29 7 -36 15 -20 25 -48 17 -94 -25z"/>
<path d="M2991 6575 c-10 -42 -14 -45 -44 -45 -17 0 -39 -5 -47 -10 -13 -9 -13 -11 0 -20 8 -6 28 -8 44 -5 23 4 27 2 22 -11 -3 -9 -9 -33 -12 -55 -5 -32 -4 -39 10 -39 18 0 19 3 36 67 8 31 16 42 32 45 29 4 36 28 9 28 -18 0 -20 4 -15 25 11 45 9 59 -7 63 -12 2 -19 -9 -28 -43z"/>
<path d="M3574 6560 c-7 -51 -7 -51 -45 -48 -21 1 -42 -1 -46 -6 -11 -11 18 -26 50 -26 27 0 28 0 21 -50 -5 -41 -4 -50 9 -50 16 0 22 12 32 72 6 34 10 37 44 40 45 4 47 22 2 26 -33 3 -33 3 -26 48 6 40 4 44 -14 44 -17 0 -21 -9 -27 -50z"/>
<path d="M4041 6486 c-7 -9 -11 -42 -9 -88 3 -65 5 -73 23 -76 19 -3 20 1 17 68 -3 45 0 76 7 83 6 6 11 15 11 19 0 13 -37 9 -49 -6z"/>
<path d="M3601 5992 c-22 -16 -3 -31 32 -26 20 4 39 0 52 -10 19 -15 18 -17 -34 -64 -74 -66 -68 -78 42 -87 83 -7 113 -3 102 15 -3 4 -37 11 -75 15 l-71 7 46 42 c50 47 55 64 25 91 -22 20 -98 31 -119 17z"/>
<path d="M2673 5887 c-45 -51 -119 -203 -142 -291 -51 -195 -48 -380 9 -470 37 -58 103 -106 144 -105 28 0 29 1 12 12 -101 64 -140 117 -158 217 -13 74 3 242 32 345 21 74 82 205 124 268 43 63 28 80 -21 24z"/>
<path d="M3350 5896 c0 -8 10 -16 21 -18 59 -8 87 -129 69 -288 -14 -115 -51 -295 -85 -410 -27 -92 -31 -130 -14 -130 14 0 33 50 68 181 107 403 95 679 -29 679 -19 0 -30 -5 -30 -14z"/>
<path d="M2851 5736 c-67 -152 -52 -191 54 -142 41 19 55 21 55 11 0 -21 34 -27 97 -16 31 6 76 11 101 11 31 0 42 4 39 13 -3 9 -30 11 -96 10 -50 -2 -91 1 -91 5 0 4 16 31 35 59 40 59 43 73 16 73 -11 0 -27 -14 -39 -33 -10 -19 -47 -52 -82 -75 -103 -69 -112 -56 -50 75 22 46 38 88 35 93 -16 26 -36 2 -74 -84z"/>
<path d="M1630 5480 c0 -101 2 -111 18 -108 12 2 19 16 22 44 6 44 38 105 58 112 10 3 13 -10 11 -59 -2 -52 0 -65 13 -67 10 -2 22 9 32 30 9 18 27 46 40 63 l24 29 6 -42 c3 -23 9 -60 12 -82 3 -23 11 -40 19 -40 20 0 23 20 13 100 -13 100 -38 119 -94 68 -20 -18 -21 -18 -32 7 -14 30 -62 35 -83 8 -13 -14 -15 -13 -19 13 -3 17 -12 30 -23 32 -15 3 -17 -7 -17 -108z"/>
<path d="M2181 5531 c-46 -4 -76 -11 -79 -18 -3 -10 15 -13 66 -13 95 0 164 10 159 24 -4 13 -45 15 -146 7z"/>
<path d="M2650 5491 c0 -17 50 -21 323 -21 253 0 328 7 246 24 -49 9 -569 7 -569 -3z"/>
<path d="M2115 5460 c-3 -5 0 -13 8 -15 24 -10 212 -1 212 10 0 14 -211 19 -220 5z"/>
<path d="M3038 5380 c-51 -15 -98 -52 -113 -86 -13 -31 -18 -34 -55 -34 -29 0 -40 -4 -37 -12 2 -8 25 -13 63 -14 32 -1 77 -9 99 -19 l40 -17 -35 -27 c-107 -79 -152 -150 -114 -178 25 -18 195 -14 202 5 3 9 -19 12 -87 12 -56 0 -91 4 -91 10 0 22 35 62 97 111 73 57 76 73 20 105 l-38 21 31 13 c51 21 110 69 110 89 0 28 -40 37 -92 21z m42 -35 c0 -5 -95 -55 -105 -55 -18 0 1 23 33 39 35 19 72 27 72 16z"/>
<path d="M2552 4333 c-53 -75 -118 -349 -129 -542 -5 -84 -2 -119 11 -166 21 -74 60 -135 85 -135 17 0 15 8 -17 71 -37 72 -37 72 -35 208 1 108 7 164 31 276 31 145 63 245 88 269 8 8 14 22 14 30 0 25 -27 19 -48 -11z"/>
<path d="M4630 4341 c0 -5 20 -21 45 -35 25 -15 45 -31 45 -36 0 -5 -16 -21 -35 -36 -38 -29 -45 -58 -17 -69 9 -4 57 -10 106 -13 74 -4 95 -2 122 13 41 22 45 40 7 30 -56 -14 -105 -17 -158 -10 l-53 6 36 33 c33 31 35 36 25 59 -18 38 -123 88 -123 58z"/>
<path d="M4450 4318 c0 -7 9 -37 20 -67 37 -95 51 -183 57 -353 5 -149 3 -177 -16 -262 -14 -58 -39 -128 -67 -182 -24 -48 -42 -89 -39 -92 10 -10 53 40 83 96 51 95 73 192 79 338 8 191 -19 376 -71 497 -15 35 -46 52 -46 25z"/>
<path d="M2962 4272 c-37 -35 -55 -78 -87 -203 -30 -117 -30 -119 -7 -119 13 0 23 12 30 38 21 68 21 68 112 22 45 -23 89 -39 97 -36 25 10 0 31 -82 67 -41 19 -73 39 -72 44 2 6 37 30 78 55 64 40 74 50 77 78 2 23 -3 38 -22 57 -35 35 -84 34 -124 -3z m97 -23 c26 -28 20 -39 -42 -76 -57 -34 -67 -31 -43 16 9 16 16 39 16 50 0 35 40 41 69 10z"/>
<path d="M3301 4072 c-5 -10 -11 -47 -13 -82 -2 -53 0 -65 13 -68 13 -2 18 11 25 70 4 40 8 77 8 82 2 18 -23 17 -33 -2z"/>
<path d="M1353 3918 c-6 -51 -13 -100 -14 -108 -7 -29 34 -17 42 13 10 39 69 128 80 121 12 -7 11 -56 -1 -89 -8 -20 -7 -27 5 -31 9 -4 34 15 67 51 l52 57 11 -55 c14 -69 28 -87 72 -87 41 0 93 25 93 45 0 12 -7 11 -45 -2 -25 -8 -52 -13 -59 -10 -9 4 -17 27 -21 54 -11 85 -14 93 -37 93 -11 0 -36 -11 -54 -25 l-32 -25 -11 30 c-8 23 -16 30 -37 30 -15 0 -36 -7 -46 -17 -17 -15 -18 -14 -18 15 0 24 -4 32 -18 32 -15 0 -19 -15 -29 -92z"/>
<path d="M1930 3967 c0 -23 26 -29 148 -35 95 -4 112 -2 112 10 0 12 -21 17 -102 21 -57 3 -115 9 -130 13 -21 5 -28 3 -28 -9z"/>
<path d="M5408 3967 c-54 -7 -78 -14 -78 -24 0 -16 46 -16 159 0 47 7 86 18 89 25 4 14 -54 14 -170 -1z"/>
<path d="M1954 3899 c-3 -6 1 -18 10 -27 13 -13 41 -18 126 -20 68 -2 110 0 110 6 0 16 -28 22 -109 22 -52 0 -83 5 -97 15 -23 17 -31 18 -40 4z"/>
<path d="M2576 3901 c-5 -7 -5 -15 -1 -19 4 -4 391 -9 861 -11 779 -3 854 -2 854 13 0 15 -61 16 -673 16 -371 0 -755 3 -854 7 -137 4 -182 3 -187 -6z"/>
<path d="M5340 3850 c-8 -5 -11 -12 -7 -16 7 -7 218 -6 225 1 2 2 1 8 -3 14 -8 14 -194 15 -215 1z"/>
<path d="M3434 3770 c-17 -11 -42 -41 -57 -67 -26 -49 -49 -146 -40 -170 8 -22 27 -9 38 25 l11 31 11 -29 c14 -36 77 -56 137 -43 66 14 57 33 -16 33 -68 0 -88 10 -88 46 0 16 12 28 45 44 70 34 107 104 73 138 -18 18 -79 14 -114 -8z m86 -27 c-1 -25 -19 -47 -60 -72 -45 -27 -47 -27 -42 9 8 53 103 111 102 63z"/>
<path d="M4070 3772 c-43 -21 -68 -82 -77 -189 -6 -70 -5 -75 13 -71 11 2 20 13 22 25 l3 23 49 -25 c50 -25 90 -32 90 -16 0 5 -29 24 -65 43 -36 18 -65 36 -65 39 0 4 16 13 35 19 47 15 75 53 75 101 0 34 -20 69 -38 69 -4 0 -23 -8 -42 -18z m40 -56 c0 -25 -7 -39 -22 -50 -12 -9 -25 -16 -28 -16 -12 0 -8 44 6 71 21 41 44 38 44 -5z"/>
<path d="M2709 3691 c-31 -31 -34 -54 -8 -59 8 -1 19 8 24 20 8 19 17 22 45 20 18 -1 36 -4 38 -6 2 -2 -13 -39 -32 -81 -55 -119 -51 -127 51 -103 33 8 53 18 53 27 0 10 -11 12 -45 8 -43 -4 -45 -3 -39 17 4 11 20 47 35 78 39 77 38 85 -13 90 -24 3 -51 8 -60 12 -13 6 -26 -1 -49 -23z"/>
<path d="M3792 3665 c-7 -14 -12 -32 -12 -40 0 -10 -11 -15 -36 -15 -41 0 -43 -21 -3 -30 21 -5 24 -12 27 -53 4 -62 27 -64 36 -2 7 44 8 45 46 45 21 0 41 4 44 9 6 10 -26 21 -61 21 -19 0 -21 3 -13 28 15 51 15 56 -1 59 -9 2 -20 -7 -27 -22z"/>
<path d="M3034 3630 c-6 -27 -10 -30 -45 -30 -28 0 -39 -4 -39 -15 0 -11 11 -15 36 -15 35 0 35 0 32 -46 -2 -31 1 -48 9 -51 14 -5 18 4 28 59 4 27 11 37 27 40 31 4 35 28 6 28 -22 0 -24 4 -20 30 3 23 0 30 -12 30 -10 0 -19 -11 -22 -30z"/>
<path d="M4245 3551 c-9 -56 10 -121 36 -121 17 0 19 4 12 23 -4 12 -8 48 -7 80 0 48 -3 57 -17 57 -12 0 -19 -11 -24 -39z"/>
<path d="M5004 2968 c-4 -6 -3 -13 2 -15 64 -23 78 -52 41 -91 -61 -67 -44 -87 72 -87 49 0 93 4 97 8 16 15 -21 27 -88 27 -38 0 -68 4 -68 8 0 5 11 19 25 32 37 34 31 77 -14 107 -38 26 -56 29 -67 11z"/>
<path d="M4763 2853 c4 -16 13 -60 22 -100 22 -106 45 -315 45 -419 0 -124 -25 -258 -72 -389 -58 -161 -62 -174 -55 -181 14 -15 38 23 75 119 102 264 115 457 56 812 -20 119 -41 185 -61 185 -12 0 -14 -7 -10 -27z"/>
<path d="M2445 2806 c-70 -120 -117 -297 -136 -516 -22 -254 25 -474 113 -521 36 -19 42 5 9 40 -130 139 -113 658 30 945 43 87 46 96 24 96 -8 0 -26 -20 -40 -44z"/>
<path d="M3594 2613 l-51 -4 -20 -75 c-17 -65 -18 -76 -6 -81 8 -3 19 0 24 8 7 12 11 11 25 -3 22 -22 13 -43 -27 -64 -25 -13 -37 -14 -51 -5 -27 17 -38 13 -38 -13 0 -32 20 -38 78 -21 49 15 78 37 83 65 6 28 -11 69 -31 75 -21 7 -24 23 -14 63 6 21 11 22 110 22 62 0 105 4 109 11 4 6 5 12 4 14 -7 6 -145 12 -195 8z"/>
<path d="M1907 2403 c-48 -3 -67 -8 -64 -16 4 -13 210 -17 223 -4 20 19 -41 27 -159 20z"/>
<path d="M5370 2380 c-32 -21 12 -30 110 -24 100 7 110 9 110 25 0 12 -201 11 -220 -1z"/>
<path d="M5443 2303 c-40 -3 -53 -8 -53 -20 0 -14 13 -15 107 -9 59 4 109 9 111 11 2 2 1 8 -3 14 -6 11 -50 11 -162 4z"/>
<path d="M1860 2288 c0 -12 17 -17 74 -23 43 -4 82 -3 92 3 25 14 5 21 -84 28 -70 6 -82 5 -82 -8z"/>
<path d="M2566 2271 c-5 -7 -6 -15 -3 -18 8 -7 935 -22 1367 -21 444 1 666 8 662 23 -1 7 -231 10 -665 10 -364 1 -818 5 -1008 9 -270 7 -348 6 -353 -3z"/>
<path d="M2885 2063 c-11 -2 -43 -9 -71 -14 -33 -6 -54 -16 -58 -27 -3 -9 -17 -35 -31 -57 -43 -70 -29 -97 27 -50 36 30 52 23 44 -18 -8 -39 -23 -57 -64 -74 -18 -7 -30 -18 -27 -23 11 -18 53 -10 84 15 58 49 63 147 8 153 -26 3 -26 4 -11 27 13 20 29 26 105 36 60 9 89 17 89 26 0 13 -50 16 -95 6z"/>
<path d="M3518 2058 c-30 -6 -48 -16 -48 -24 0 -8 -6 -14 -13 -14 -15 0 -47 -61 -47 -90 0 -25 11 -25 57 0 45 24 59 25 67 4 8 -20 -45 -74 -73 -74 -25 0 -37 -18 -17 -26 24 -9 61 3 95 32 23 19 31 34 31 60 0 41 -27 59 -76 49 -33 -6 -34 -5 -23 19 12 25 59 41 148 48 19 2 36 9 39 16 5 15 -69 15 -140 0z"/>
<path d="M3870 2041 c-5 -11 -10 -33 -10 -50 0 -31 0 -31 -57 -31 -63 0 -90 -11 -78 -30 6 -9 25 -11 66 -6 l58 6 3 -32 c5 -48 26 -47 34 1 5 34 10 41 30 41 12 0 35 5 51 11 25 9 26 11 10 20 -10 6 -32 7 -49 4 l-31 -7 6 46 c5 36 4 46 -8 46 -8 0 -19 -9 -25 -19z"/>
<path d="M4140 2003 c-30 -25 -65 -49 -77 -54 -37 -14 -28 -32 12 -26 32 5 34 4 25 -13 -14 -27 -12 -57 4 -63 18 -7 56 22 39 29 -17 7 -1 45 42 105 61 82 40 93 -45 22z"/>
<path d="M3127 2024 c-4 -4 -7 -20 -7 -35 0 -26 -3 -28 -47 -31 -63 -4 -71 -28 -9 -28 43 0 45 -1 48 -32 4 -44 32 -45 36 -2 3 29 6 32 48 37 25 2 48 8 52 11 13 14 -24 25 -61 19 -37 -6 -37 -5 -35 27 3 31 -10 48 -25 34z"/>
<path d="M4229 1941 c-54 -54 -30 -92 59 -92 107 -1 180 63 120 105 -15 11 -45 16 -86 16 -57 0 -67 -3 -93 -29z m158 -18 c6 -19 -51 -43 -102 -43 -51 0 -60 18 -22 45 26 18 118 17 124 -2z"/>
<path d="M2773 1003 c-46 -35 -83 -71 -83 -79 0 -17 22 -18 38 -2 16 16 15 -1 -3 -32 -22 -38 -19 -80 5 -80 14 0 20 7 20 23 0 28 63 134 108 181 17 19 32 39 32 45 0 25 -39 6 -117 -56z"/>
<path d="M1780 758 c0 -21 30 -28 123 -28 62 0 77 3 77 15 0 11 -13 15 -54 15 -29 0 -74 3 -100 6 -37 6 -46 4 -46 -8z"/>
<path d="M2522 748 c8 -22 82 -27 313 -20 320 10 295 26 -46 30 -213 2 -270 0 -267 -10z"/>
<path d="M1773 658 c2 -9 33 -13 107 -13 74 0 105 4 108 13 3 9 -23 12 -108 12 -85 0 -111 -3 -107 -12z"/>
<path d="M2625 652 c-41 -25 -105 -87 -105 -101 0 -21 31 -11 62 19 17 17 32 29 35 27 2 -3 -8 -27 -24 -55 -27 -49 -27 -70 0 -59 14 5 97 156 97 176 0 17 -31 13 -65 -7z"/>
<path d="M2793 655 c-33 -23 -73 -97 -73 -133 0 -42 31 -62 95 -62 77 0 124 44 76 70 -11 5 -45 10 -76 10 l-56 0 23 43 c16 30 32 45 56 52 18 5 31 14 29 20 -6 17 -50 17 -74 0z m67 -155 c0 -5 -18 -10 -40 -10 -22 0 -40 5 -40 10 0 6 18 10 40 10 22 0 40 -4 40 -10z"/>
</g><g transform="translate(961.357581, 1014.6828995993842) scale(0.40808740102544044)"><g transform="translate(-57.706759,297.537395) scale(0.100000,-0.100000)" fill="#4444bb" stroke="none">
<path d="M750 2973 c-57 -10 -88 -25 -119 -57 -40 -41 -55 -100 -46 -179 6 -45 12 -61 32 -77 32 -25 35 -25 64 -1 22 17 24 26 21 89 -4 105 24 120 164 87 33 -7 119 -19 190 -25 88 -8 134 -16 144 -26 32 -32 8 -420 -28 -456 -18 -18 -126 -28 -289 -28 -185 0 -206 -4 -250 -52 -55 -58 -58 -82 -55 -363 1 -145 7 -274 13 -293 11 -34 51 -62 89 -62 12 0 35 14 52 31 l31 30 -6 238 c-3 130 -3 249 0 264 l5 27 112 0 c234 1 363 26 423 82 58 54 98 260 91 463 -4 122 -7 138 -34 191 -40 81 -79 100 -217 108 -174 10 -361 14 -387 9z" fill="#4444bb"/>
<path d="M3660 2971 c-42 -9 -83 -34 -103 -65 -39 -59 -50 -127 -54 -343 -5 -206 -5 -212 18 -252 28 -50 78 -86 143 -102 48 -12 257 -8 370 7 l49 7 -7 -104 c-4 -57 -11 -189 -16 -294 -9 -177 -9 -192 8 -214 35 -47 100 -46 136 2 22 29 27 86 42 452 7 191 0 235 -44 283 -45 48 -92 56 -241 38 -146 -18 -229 -20 -265 -6 l-26 10 0 162 c0 156 8 230 27 249 5 5 99 6 210 2 l201 -6 5 -50 c3 -39 11 -56 31 -74 34 -29 48 -29 80 0 24 20 26 30 28 113 4 147 -23 169 -218 179 -242 11 -340 13 -374 6z" fill="#4444bb"/>
<path d="M1565 2945 c-14 -13 -25 -32 -25 -42 0 -10 -1 -297 -3 -638 -2 -677 -3 -662 55 -694 33 -19 73 -7 101 31 18 24 20 51 29 300 5 150 10 278 12 283 2 6 37 8 97 3 52 -3 135 -7 186 -7 154 -2 161 -10 143 -176 -21 -189 -27 -310 -18 -343 12 -45 45 -72 86 -72 71 0 102 46 102 151 0 33 7 118 16 187 24 190 9 280 -58 349 -50 52 -112 67 -263 65 -71 -1 -164 -6 -205 -11 -41 -4 -78 -7 -81 -5 -4 2 -10 108 -13 236 -9 286 -17 352 -47 384 -31 33 -82 32 -114 -1z" fill="#4444bb"/>
<path d="M2542 2944 c-55 -38 -64 -109 -53 -419 6 -186 9 -215 28 -250 50 -95 116 -125 302 -135 75 -4 171 -5 215 -1 l78 7 -4 -178 c-2 -97 -7 -181 -11 -184 -4 -4 -42 1 -85 11 -104 26 -285 27 -363 3 -106 -33 -149 -107 -99 -170 26 -34 68 -41 132 -21 74 23 202 20 308 -7 182 -47 274 5 301 168 12 77 27 831 19 994 -7 152 -20 181 -86 186 -88 7 -103 -51 -104 -401 l0 -219 -201 4 c-197 3 -201 3 -220 27 -18 21 -19 42 -19 283 l0 260 -29 29 c-33 33 -74 38 -109 13z" fill="#4444bb"/>
<path d="M2374 1391 c-55 -34 -79 -78 -79 -147 0 -51 4 -66 27 -96 35 -45 102 -73 153 -64 78 15 146 111 131 188 -20 108 -145 172 -232 119z" fill="#4444bb"/>
<path d="M1853 999 c-39 -11 -66 -56 -61 -101 6 -59 69 -64 76 -6 4 30 34 38 145 38 l67 0 0 -110 c0 -135 -1 -136 -132 -126 -85 6 -89 6 -113 -18 -24 -25 -25 -28 -25 -179 0 -162 4 -177 47 -177 35 0 43 29 43 159 l0 121 73 0 c85 0 141 14 168 41 17 17 19 34 19 169 0 147 -1 152 -25 175 -23 24 -30 25 -137 24 -62 0 -128 -5 -145 -10z" fill="#4444bb"/>
<path d="M2985 1000 c-91 -16 -93 -18 -104 -58 -15 -51 -14 -537 0 -564 19 -36 69 -48 204 -48 121 0 127 1 151 25 l24 24 -2 292 -3 292 -26 19 c-31 23 -161 33 -244 18z m169 -86 c14 -5 16 -37 16 -250 l0 -245 -102 3 -103 3 0 240 0 240 40 6 c57 9 131 10 149 3z" fill="#4444bb"/>
<path d="M2351 971 c-24 -24 -29 -73 -37 -372 -6 -232 -6 -237 15 -258 23 -23 29 -25 51 -11 12 7 16 40 20 150 l5 141 35 -23 c19 -13 59 -55 88 -93 30 -39 78 -96 108 -128 47 -51 56 -57 74 -47 29 16 25 42 -15 92 -19 24 -62 78 -95 121 -61 77 -61 77 -33 77 15 0 46 9 69 19 56 26 67 57 62 179 -6 156 -27 172 -220 172 -93 0 -111 -3 -127 -19z m257 -74 c16 -13 17 -168 0 -185 -7 -7 -41 -12 -84 -12 -40 0 -84 -4 -98 -10 l-26 -10 0 120 0 119 98 -6 c53 -3 103 -10 110 -16z" fill="#4444bb"/>
</g>
</g>
</svg>
