<?xml version="1.0" encoding="UTF-8" standalone="no"?>
<svg
   version="1.0"
   width="830.7403pt"
   height="478.40375pt"
   viewBox="0 0 830.74032 478.40374"
   preserveAspectRatio="xMidYMid"
   id="svg37"
   sodipodi:docname="934b.svg"
   inkscape:version="1.3 (0e150ed, 2023-07-21)"
   xmlns:inkscape="http://www.inkscape.org/namespaces/inkscape"
   xmlns:sodipodi="http://sodipodi.sourceforge.net/DTD/sodipodi-0.dtd"
   xmlns="http://www.w3.org/2000/svg"
   xmlns:svg="http://www.w3.org/2000/svg">
  <defs
     id="defs37">
    <marker
       style="overflow:visible"
       id="marker39"
       refX="0"
       refY="0"
       orient="auto-start-reverse"
       inkscape:stockid="Triangle arrow"
       markerWidth="1"
       markerHeight="1"
       viewBox="0 0 1 1"
       inkscape:isstock="true"
       inkscape:collect="always"
       preserveAspectRatio="xMidYMid">
      <path
         transform="scale(0.5)"
         style="fill:context-stroke;fill-rule:evenodd;stroke:context-stroke;stroke-width:1pt"
         d="M 5.77,0 -2.88,5 V -5 Z"
         id="path39" />
    </marker>
    <marker
       style="overflow:visible"
       id="Triangle"
       refX="0"
       refY="0"
       orient="auto-start-reverse"
       inkscape:stockid="Triangle arrow"
       markerWidth="1"
       markerHeight="1"
       viewBox="0 0 1 1"
       inkscape:isstock="true"
       inkscape:collect="always"
       preserveAspectRatio="xMidYMid">
      <path
         transform="scale(0.5)"
         style="fill:context-stroke;fill-rule:evenodd;stroke:context-stroke;stroke-width:1pt"
         d="M 5.77,0 -2.88,5 V -5 Z"
         id="path135" />
    </marker>
  </defs>
  <sodipodi:namedview
     id="namedview37"
     pagecolor="#ffffff"
     bordercolor="#000000"
     borderopacity="0.25"
     inkscape:showpageshadow="2"
     inkscape:pageopacity="0.0"
     inkscape:pagecheckerboard="0"
     inkscape:deskcolor="#d1d1d1"
     inkscape:document-units="pt"
     inkscape:zoom="0.62830449"
     inkscape:cx="760.77763"
     inkscape:cy="227.59666"
     inkscape:window-width="1440"
     inkscape:window-height="819"
     inkscape:window-x="0"
     inkscape:window-y="25"
     inkscape:window-maximized="0"
     inkscape:current-layer="svg37" />
  <metadata
     id="metadata1">&#10;Created by potrace 1.16, written by Peter Selinger 2001-2019&#10;</metadata>
  <g
     id="g28"
     transform="matrix(2.1952132,0,0,2.1952132,69.430203,394.79218)">
    <path
       d="m 133.078,-51.086295 a 12.15,8.1 0 0 1 12.08,4.16"
       style="fill:none;stroke:#000000;stroke-width:1.6"
       id="path1-3" />
    <path
       d="m 127.02123,-50.378745 5.77459,-3.125542 0.56739,4.826766 z"
       style="fill:#000000;stroke:#000000;stroke-linecap:butt;stroke-linejoin:miter"
       id="path2-7" />
    <circle
       cx="29.198"
       cy="-13.886294"
       r="16.200001"
       style="fill:none;stroke:#000000;stroke-width:1.6"
       id="circle2" />
    <path
       d="m -11.302,-13.886295 v -60.5475 m 0,-8.505 v -60.547495"
       style="fill:none;stroke:#000000;stroke-width:1.6;stroke-linecap:round;stroke-linejoin:round"
       id="path3" />
    <path
       d="m 5.708,-82.938795 h -34.02"
       style="fill:none;stroke:#000000;stroke-width:1.6;stroke-linecap:round;stroke-linejoin:round"
       id="path4" />
    <path
       d="m -2.797,-74.433795 h -17.01"
       style="fill:none;stroke:#000000;stroke-width:1.6;stroke-linecap:round;stroke-linejoin:round"
       id="path5" />
    <path
       d="m -11.302,-143.48629 h 19.44 l 0.0388,-1.71161 0.118057,-1.75649 0.198515,-1.76435 0.278483,-1.73502 0.356273,-1.66913 0.430249,-1.56804 0.49885,-1.43391 0.560628,-1.26956 0.614285,-1.07843 0.658686,-0.86459 0.692898,-0.63251 0.716198,-0.38711 0.728096,-0.13354 0.728341,0.12283 0.716927,0.37662 0.694096,0.62248 0.660328,0.85521 0.616335,1.06991 0.563045,1.26207 0.501581,1.42761 0.433238,1.56308 0.359457,1.66558 0.281793,1.733 0.201883,1.76387 0.121412,1.75756 0.04208,1.71422 -0.03446,1.63474 -0.106565,1.52079 -0.172735,1.37481 -0.231571,1.19983 -0.28183,0.99956 -0.322457,0.77824 -0.352592,0.5405 -0.371602,0.29137 -0.379086,0.0361 -0.374884,-0.21993 -0.359088,-0.47133 -0.332029,-0.71279 -0.294277,-0.93922 -0.246629,-1.14586 -0.190089,-1.32835 -0.125847,-1.48284 -0.05526,-1.60607 0.02019,-1.69544 0.0989,-1.74909 0.179223,-1.76587 0.259462,-1.74541 0.337927,-1.68818 0.412961,-1.59536 0.482986,-1.46891 0.546524,-1.3115 0.602235,-1.12645 0.648947,-0.91765 0.685673,-0.6895 0.71164,-0.44684 0.726302,-0.19474 0.729348,0.0615 0.720715,0.31636 0.700582,0.56459 0.669379,0.80092 0.627758,1.02037 0.5766,1.21832 0.516982,1.39058 0.450161,1.53353 0.377544,1.64416 0.300663,1.72014 0.22114,1.75984 0.140648,1.76247 0.06089,1.72794 -0.01647,1.65699 -0.08978,1.55111 -0.157502,1.41254 -0.218214,1.2442 -0.270632,1.04962 -0.313652,0.83293 -0.346367,0.59867 -0.368088,0.35181 -0.378355,0.0975 -0.376954,-0.15882 -0.363914,-0.41182 -0.33951,-0.65613 -0.304255,-0.88661 -0.258893,-1.09841 -0.204382,-1.28705 -0.141867,-1.44856 -0.07267,-1.57955 0.0018,-1.67724 0.07984,-1.73956 0.159927,-1.76524 0.24034,-1.75369 0.319382,-1.70519 0.395387,-1.62074 0.466749,-1.50213 0.531969,-1.35186 0.589669,-1.17309 0.638633,-0.9696 0.67783,-0.74567 0.706434,-0.50602 0.72384,-0.2557 h 0.729684 l 0.72384,0.2557 0.706434,0.50602 0.67783,0.74567 0.638633,0.9696 0.589669,1.17309 0.531969,1.35186 0.466749,1.50213 0.395387,1.62074 0.319382,1.70519 0.24034,1.75369 0.159927,1.76524 0.07984,1.73956 0.0018,1.67724 -0.07267,1.57955 -0.141867,1.44856 -0.204382,1.28705 -0.258893,1.09841 -0.304255,0.88661 -0.33951,0.65613 -0.363914,0.41182 -0.376954,0.15882 -0.378355,-0.0975 -0.368088,-0.35181 -0.346367,-0.59867 -0.313652,-0.83293 -0.270632,-1.04962 -0.218214,-1.2442 -0.157502,-1.41254 -0.08978,-1.55111 -0.01647,-1.65699 0.06089,-1.72794 0.140648,-1.76247 0.22114,-1.75984 0.300663,-1.72014 0.377544,-1.64416 0.450161,-1.53353 0.516982,-1.39058 0.5766,-1.21832 0.627758,-1.02037 0.669379,-0.80092 0.700582,-0.56459 0.720715,-0.31636 0.729348,-0.0615 0.726302,0.19474 0.71164,0.44684 0.685673,0.6895 0.648947,0.91765 0.602235,1.12645 0.546524,1.3115 0.482986,1.46891 0.412961,1.59536 0.337927,1.68818 0.259462,1.74541 0.179223,1.76587 0.0989,1.74909 0.02019,1.69544 -0.05526,1.60607 -0.125847,1.48284 -0.190089,1.32835 -0.246629,1.14586 -0.294277,0.93922 -0.332029,0.71279 -0.359088,0.47133 -0.374884,0.21993 -0.379086,-0.0361 -0.371602,-0.29137 -0.352592,-0.5405 -0.322457,-0.77824 -0.28183,-0.99956 -0.231571,-1.19983 -0.172735,-1.37481 -0.106565,-1.52079 -0.03445,-1.63474 0.04207,-1.71422 0.121412,-1.75756 0.201883,-1.76387 0.281793,-1.733 0.359457,-1.66558 0.433238,-1.56308 0.501581,-1.42761 0.563045,-1.26207 0.616335,-1.06991 0.660328,-0.85521 0.694096,-0.62248 0.716927,-0.37662 0.728341,-0.12283 0.728096,0.13354 0.716198,0.38711 0.692898,0.63251 0.658686,0.86459 0.614285,1.07843 0.560628,1.26956 0.49885,1.43391 0.430249,1.56804 0.356273,1.66913 0.278483,1.73502 0.198515,1.76435 0.118057,1.75649 0.0387,1.71161 h 19.44"
       style="fill:none;stroke:#000000;stroke-width:1.6;stroke-linecap:round;stroke-linejoin:round"
       id="path6-9" />
    <path
       d="m 69.698,-143.48629 v 48.599995 h 8.1 v 32.4 h -16.2 v -32.4 h 8.1 m 0,32.4 v 48.6"
       style="fill:none;stroke:#000000;stroke-width:1.6;stroke-linecap:round;stroke-linejoin:round"
       id="path7-0" />
    <path
       d="m 69.698,-143.48629 h 28.35 28.35"
       style="fill:none;stroke:#000000;stroke-width:1.6;stroke-linecap:round;stroke-linejoin:round"
       id="path8-2" />
    <path
       d="m 126.398,-143.48629 v 16.2 h 8.1 v 32.399995 h -16.2 v -32.399995 h 8.1 m 0,32.399995 v 16.2"
       style="fill:none;stroke:#000000;stroke-width:1.6;stroke-linecap:round;stroke-linejoin:round"
       id="path9-3" />
    <path
       d="m 126.398,-78.686295 v 16.2 m 14.58,6.48 -11.34,18.144 m -3.24,7.776 v 16.2"
       style="fill:none;stroke:#000000;stroke-width:1.6;stroke-linecap:round;stroke-linejoin:round"
       id="path10-9" />
    <path
       d="M 126.398,-13.886295 H 98.048 69.698"
       style="fill:none;stroke:#000000;stroke-width:1.6;stroke-linecap:round;stroke-linejoin:round"
       id="path11-9" />
    <path
       d="m 69.698,-13.886295 h -24.3 v 0 m -32.4,0 v 0 h -24.3"
       style="fill:none;stroke:#000000;stroke-width:1.6;stroke-linecap:round;stroke-linejoin:round"
       id="path12-7" />
    <g
       id="g15"
       transform="translate(-11.302,-13.886295)">
      <g
         id="g14">
        <g
           id="g13">
          <path
             d="m -16.006,-79.134 v 0 q -2.04,0 -3.18,-0.91 -1.14,-0.91 -1.14,-2.45 0,-1.24 0.67,-2.1 0.67,-0.86 1.75,-1.36 1.08,-0.5 2.3,-0.66 v -0.12 q -0.96,-0.3 -1.64,-1.02 -0.68,-0.72 -0.68,-1.78 0,-0.84 0.42,-1.44 0.42,-0.6 1.12,-1 0.7,-0.4 1.55,-0.59 0.85,-0.19 1.69,-0.19 0.74,0 1.5,0.18 0.76,0.18 1.28,0.63 0.52,0.45 0.52,1.31 0,0.74 -0.38,1.08 -0.38,0.34 -0.78,0.34 -0.32,0 -0.56,-0.19 -0.24,-0.19 -0.24,-0.57 0,-0.22 0.06,-0.53 0.06,-0.31 0.06,-0.57 0,-0.44 -0.29,-0.72 -0.29,-0.28 -1.17,-0.28 -1.38,0 -2.17,0.73 -0.79,0.73 -0.79,2.03 0,1.08 0.52,1.6 0.52,0.52 1.33,0.68 0.81,0.16 1.65,0.16 l -0.1,0.8 q -3,0 -4.32,0.78 -1.32,0.78 -1.32,2.6 0,1.46 0.73,2.14 0.73,0.68 1.95,0.68 2.4,0 3.54,-2.68 l 0.36,-0.1 q 0.14,0.2 0.33,0.55 0.19,0.35 0.19,0.51 0,0.16 -0.27,0.55 -0.27,0.39 -0.84,0.83 -0.57,0.44 -1.47,0.76 -0.9,0.32 -2.18,0.32 z"
             fill="#000000"
             id="path13-0" />
        </g>
      </g>
    </g>
    <g
       id="g18"
       transform="translate(-11.302,-13.886295)">
      <g
         id="g17">
        <g
           id="g16">
          <path
             d="m 45.63,-156.716 v 0 l -1.2,3.9 h -9.88 l 0.12,-0.6 q 0.78,0 1.19,-0.14 0.41,-0.14 0.63,-0.54 0.22,-0.4 0.38,-1.2 l 1.72,-8.34 q 0.14,-0.66 0.1,-1.04 -0.04,-0.38 -0.41,-0.53 -0.37,-0.15 -1.23,-0.15 l 0.12,-0.6 h 5.68 l -0.1,0.6 q -1.08,0 -1.62,0.33 -0.54,0.33 -0.76,1.41 l -1.82,8.96 q -0.14,0.66 0.14,0.87 0.28,0.21 1.16,0.21 h 0.94 q 0.96,0 1.56,-0.17 0.6,-0.17 1.02,-0.53 0.42,-0.36 0.79,-0.97 0.37,-0.61 0.83,-1.47 z"
             fill="#000000"
             id="path15-3" />
        </g>
      </g>
    </g>
    <circle
       cx="69.697998"
       cy="-13.886294"
       r="2.4300001"
       style="fill:#000000;stroke:#000000;stroke-width:1.6"
       id="circle18" />
    <g
       id="g21"
       transform="translate(-12.802,-12.386295)">
      <g
         id="g20">
        <g
           id="g19">
          <path
             d="m 68.66,-70.395 v 0 q 0,1.06 -0.4,1.78 -0.4,0.72 -1.04,1.18 -0.64,0.46 -1.37,0.71 -0.73,0.25 -1.39,0.37 v 0.1 q 0.36,0.24 0.68,0.73 0.32,0.49 0.79,1.41 0.47,0.92 1.29,2.48 0.34,0.6 0.75,0.81 0.41,0.21 1.09,0.21 l -0.12,0.6 H 65.9 q -0.56,-1.24 -0.94,-2.07 -0.38,-0.83 -0.66,-1.39 -0.28,-0.56 -0.49,-1 -0.21,-0.44 -0.45,-0.9 -0.22,-0.42 -0.48,-0.55 -0.26,-0.13 -0.8,-0.13 h -0.42 l -0.74,3.56 q -0.16,0.82 -0.11,1.23 0.05,0.41 0.45,0.53 0.4,0.12 1.26,0.12 l -0.1,0.6 H 56.9 l 0.12,-0.6 q 0.74,0 1.14,-0.12 0.4,-0.12 0.61,-0.52 0.21,-0.4 0.37,-1.24 l 1.76,-8.58 q 0.12,-0.56 0.06,-0.88 -0.06,-0.32 -0.41,-0.46 -0.35,-0.14 -1.15,-0.14 l 0.12,-0.6 h 4.7 q 2.1,0 3.27,0.65 1.17,0.65 1.17,2.11 z m -5.74,-1.92 v 0 l -1.12,5.52 0.62,0.02 q 1.2,-0.04 2.17,-0.39 0.97,-0.35 1.53,-1.11 0.56,-0.76 0.56,-2.04 0,-0.54 -0.23,-1.01 -0.23,-0.47 -0.79,-0.76 -0.56,-0.29 -1.56,-0.29 -0.38,0 -0.61,0.01 -0.23,0.01 -0.57,0.05 z"
             fill="#000000"
             id="path18-9" />
        </g>
      </g>
    </g>
    <g
       id="g24"
       transform="translate(-12.802,-12.386295)">
      <g
         id="g23">
        <g
           id="g22">
          <path
             d="m 125.36,-104.01 v 0 q 0,1.06 -0.4,1.78 -0.4,0.72 -1.04,1.18 -0.64,0.46 -1.37,0.71 -0.73,0.25 -1.39,0.37 v 0.1 q 0.36,0.24 0.68,0.73 0.32,0.49 0.79,1.41 0.47,0.92 1.29,2.48 0.34,0.6 0.75,0.81 0.41,0.21 1.09,0.21 l -0.12,0.6 h -3.04 q -0.56,-1.24 -0.94,-2.07 -0.38,-0.83 -0.66,-1.39 -0.28,-0.56 -0.49,-1 -0.21,-0.44 -0.45,-0.9 -0.22,-0.42 -0.48,-0.55 -0.26,-0.13 -0.8,-0.13 h -0.42 l -0.74,3.56 q -0.16,0.82 -0.11,1.23 0.05,0.41 0.45,0.53 0.4,0.12 1.26,0.12 l -0.1,0.6 h -5.52 l 0.12,-0.6 q 0.74,0 1.14,-0.12 0.4,-0.12 0.61,-0.52 0.21,-0.4 0.37,-1.24 l 1.76,-8.58 q 0.12,-0.56 0.06,-0.88 -0.06,-0.32 -0.41,-0.46 -0.35,-0.14 -1.15,-0.14 l 0.12,-0.6 h 4.7 q 2.1,0 3.27,0.65 1.17,0.65 1.17,2.11 z m -5.74,-1.92 v 0 l -1.12,5.52 0.62,0.02 q 1.2,-0.04 2.17,-0.39 0.97,-0.35 1.53,-1.11 0.56,-0.76 0.56,-2.04 0,-0.54 -0.23,-1.01 -0.23,-0.47 -0.79,-0.76 -0.56,-0.29 -1.56,-0.29 -0.38,0 -0.61,0.01 -0.23,0.01 -0.57,0.05 z"
             fill="#000000"
             id="path21-8" />
        </g>
      </g>
    </g>
    <circle
       cx="126.39799"
       cy="-33.974293"
       r="3.888"
       style="fill:#ffffff;stroke:#000000;stroke-width:1.6"
       id="circle24" />
    <circle
       cx="126.39799"
       cy="-58.598297"
       r="3.888"
       style="fill:#ffffff;stroke:#000000;stroke-width:1.6"
       id="circle25" />
    <g
       id="g27"
       transform="translate(-11.302,-13.886295)">
      <g
         id="g26">
        <g
           id="g25">
          <path
             d="m 47.63,3.62 v 0 h -5.38 v -0.6 q 0.3,0 0.62,-0.04 0.32,-0.04 0.54,-0.2 0.22,-0.16 0.22,-0.5 0,-0.22 -0.07,-0.51 -0.07,-0.29 -0.27,-0.73 l -0.78,-1.8 h -5.12 l -0.9,2.12 q -0.08,0.24 -0.15,0.47 -0.07,0.23 -0.07,0.51 0,0.42 0.32,0.55 0.32,0.13 1.02,0.13 v 0.6 h -4.2 v -0.6 q 0.56,0 0.9,-0.18 0.34,-0.18 0.66,-0.73 0.32,-0.55 0.8,-1.69 l 4.24,-10.04 h 0.82 l 4.74,10.86 q 0.44,0.98 0.85,1.38 0.41,0.4 1.21,0.4 z m -5.42,-5.18 v 0 l -2.2,-5.6 h -0.06 l -2.26,5.6 z"
             fill="#000000"
             id="path25" />
        </g>
      </g>
    </g>
    <circle
       cx="69.697998"
       cy="-143.4863"
       r="2.4300001"
       style="fill:#000000;stroke:#000000;stroke-width:1.6"
       id="circle27" />
  </g>
  <path
     style="font-size:42px;font-family:'STIX Two Text';-inkscape-font-specification:'STIX Two Text, Normal';fill-rule:evenodd;stroke-width:0.6;stroke-linejoin:round;stroke-miterlimit:3.2;paint-order:stroke fill markers"
     d="m 153.26851,477.98373 v -1.26 c -3.402,0 -4.242,-0.462 -4.242,-3.906 v -7.182 c 0.462,0.21 1.554,0.336 2.394,0.336 5.502,0 11.004,-2.058 11.004,-8.61 0,-5.586 -4.998,-6.972 -10.374,-6.972 h -10.458 v 1.26 c 2.688,0 3.57,0.462 3.57,2.94 v 18.06 c 0,3.528 -0.462,4.074 -3.738,4.074 v 1.26 z m -1.974,-13.734 c -0.84,0 -1.806,-0.084 -2.268,-0.168 v -11.886 c 0.882,-0.084 1.68,-0.168 2.52,-0.168 4.536,0 6.72,2.142 6.72,5.922 0,4.872 -2.436,6.3 -6.972,6.3 z m 22.76393,13.734 v -1.176 c -2.268,0 -2.772,-0.546 -2.772,-2.226 l 9.828,-10.584 h 0.084 v 10.164 c 0,2.226 -0.504,2.646 -2.73,2.646 v 1.176 h 9.114 v -1.176 c -2.142,0 -2.814,-0.42 -2.814,-2.646 v -11.886 c 0,-2.604 0.462,-2.94 2.856,-2.94 v -1.218 h -9.156 v 1.218 c 2.268,0 2.73,0.294 2.73,2.31 l -9.828,10.668 h -0.084 v -10.248 c 0,-2.394 0.294,-2.73 2.772,-2.73 v -1.218 h -9.198 v 1.218 c 2.604,0 2.898,0.378 2.898,2.646 v 12.18 c 0,2.226 -0.588,2.646 -2.94,2.646 v 1.176 z m 32.12997,-6.216 c -1.89,2.436 -3.318,3.486 -6.048,3.486 -4.326,0 -6.384,-3.612 -6.384,-8.736 0,-4.83 2.058,-7.35 5.46,-7.35 3.612,0 2.226,4.788 5.334,4.788 1.176,0 1.764,-0.672 1.764,-1.89 0,-2.436 -2.436,-4.452 -6.384,-4.452 -6.048,0 -9.492,4.284 -9.492,10.878 0,5.838 3.15,9.912 8.4,9.912 4.494,0 6.552,-2.646 8.148,-6.048 z m 6.67796,6.552 c 1.68,0 2.604,-1.134 2.604,-2.436 0,-1.428 -0.924,-2.688 -2.562,-2.688 -1.554,0 -2.52,1.218 -2.52,2.646 0,1.428 0.798,2.478 2.478,2.478 z m 32.9699,-0.336 v -1.176 c -3.864,0 -5.418,-0.756 -5.418,-2.814 v -22.848 h -1.218 l -8.148,2.31 v 1.386 c 1.302,-0.42 3.444,-0.672 4.284,-0.672 1.05,0 1.386,0.588 1.386,2.058 v 17.766 c 0,2.1 -1.47,2.814 -5.418,2.814 v 1.176 z"
     id="path48"
     aria-label="Рис. 1" />
  <path
     style="font-size:42px;font-family:'STIX Two Text';-inkscape-font-specification:'STIX Two Text, Normal';fill-rule:evenodd;stroke-width:0.6;stroke-linejoin:round;stroke-miterlimit:3.2;paint-order:stroke fill markers"
     d="m 587.60911,477.98373 v -1.26 c -3.402,0 -4.242,-0.462 -4.242,-3.906 v -7.182 c 0.462,0.21 1.554,0.336 2.394,0.336 5.502,0 11.004,-2.058 11.004,-8.61 0,-5.586 -4.998,-6.972 -10.374,-6.972 h -10.458 v 1.26 c 2.688,0 3.57,0.462 3.57,2.94 v 18.06 c 0,3.528 -0.462,4.074 -3.738,4.074 v 1.26 z m -1.974,-13.734 c -0.84,0 -1.806,-0.084 -2.268,-0.168 v -11.886 c 0.882,-0.084 1.68,-0.168 2.52,-0.168 4.536,0 6.72,2.142 6.72,5.922 0,4.872 -2.436,6.3 -6.972,6.3 z m 22.76393,13.734 v -1.176 c -2.268,0 -2.772,-0.546 -2.772,-2.226 l 9.828,-10.584 h 0.084 v 10.164 c 0,2.226 -0.504,2.646 -2.73,2.646 v 1.176 h 9.114 v -1.176 c -2.142,0 -2.814,-0.42 -2.814,-2.646 v -11.886 c 0,-2.604 0.462,-2.94 2.856,-2.94 v -1.218 h -9.156 v 1.218 c 2.268,0 2.73,0.294 2.73,2.31 l -9.828,10.668 h -0.084 v -10.248 c 0,-2.394 0.294,-2.73 2.772,-2.73 v -1.218 h -9.198 v 1.218 c 2.604,0 2.898,0.378 2.898,2.646 v 12.18 c 0,2.226 -0.588,2.646 -2.94,2.646 v 1.176 z m 32.12997,-6.216 c -1.89,2.436 -3.318,3.486 -6.048,3.486 -4.326,0 -6.384,-3.612 -6.384,-8.736 0,-4.83 2.058,-7.35 5.46,-7.35 3.612,0 2.226,4.788 5.334,4.788 1.176,0 1.764,-0.672 1.764,-1.89 0,-2.436 -2.436,-4.452 -6.384,-4.452 -6.048,0 -9.492,4.284 -9.492,10.878 0,5.838 3.15,9.912 8.4,9.912 4.494,0 6.552,-2.646 8.148,-6.048 z m 6.67797,6.552 c 1.68,0 2.604,-1.134 2.604,-2.436 0,-1.428 -0.924,-2.688 -2.562,-2.688 -1.554,0 -2.52,1.218 -2.52,2.646 0,1.428 0.798,2.478 2.478,2.478 z m 33.2219,-0.336 1.344,-6.72 h -1.218 c -0.966,2.52 -1.512,3.402 -3.738,3.402 h -5.838 l -2.94,0.126 v -0.21 l 5.544,-5.25 c 4.452,-4.494 6.846,-7.392 6.846,-11.13 0,-4.41 -3.318,-7.266 -8.064,-7.266 -4.074,0 -6.93,2.352 -8.232,6.426 l 1.008,0.42 c 1.554,-3.15 3.402,-4.116 6.132,-4.116 3.234,0 5.25,2.016 5.25,5.166 0,4.41 -2.1,7.056 -6.258,11.34 l -6.384,6.384 v 1.428 z"
     id="path49"
     aria-label="Рис. 2" />
  <path
     style="font-variation-settings:normal;fill:none;fill-opacity:1;stroke:#000000;stroke-width:3.6;stroke-linecap:butt;stroke-linejoin:miter;stroke-miterlimit:4;stroke-dasharray:none;stroke-dashoffset:0;stroke-opacity:1;marker-start:url(#marker39);stop-color:#000000"
     d="M 612.10996,27.169944 V 364.26039"
     id="path37" />
  <path
     style="font-variation-settings:normal;fill:none;fill-opacity:1;stroke:#000000;stroke-width:3.6;stroke-linecap:butt;stroke-linejoin:miter;stroke-miterlimit:4;stroke-dasharray:none;stroke-dashoffset:0;stroke-opacity:1;marker-end:url(#Triangle);stop-color:#000000"
     d="M 492.39924,364.26039 H 795.2539"
     id="path38" />
  <path
     d="m 822.21428,376.90238 c 3.318,0 5.082,-3.108 6.3,-4.746 l -0.84,-0.63 c -1.47,1.89 -2.352,2.52 -3.57,2.52 -0.588,0 -0.714,-0.42 -0.714,-0.882 0,-0.714 0.294,-2.1 0.294,-2.1 l 2.562,-12.516 h 4.158 l 0.336,-1.638 h -4.158 l 1.092,-5.292 h -1.26 c -2.1,3.654 -3.15,4.662 -5.838,6.048 l -0.168,0.882 h 2.394 l -2.856,13.734 c -0.084,0.42 -0.294,1.68 -0.294,2.394 0,1.302 0.798,2.226 2.562,2.226 z"
     id="path54"
     style="font-style:italic;font-size:42px;font-family:'STIX Two Text';-inkscape-font-specification:'STIX Two Text, Italic';fill-rule:evenodd;stroke-width:3.6;stroke-linejoin:round;stroke-miterlimit:3.2;paint-order:stroke fill markers"
     aria-label="t" />
  <path
     d="m 611.71098,407.81832 c 6.594,0 9.282,-6.594 9.282,-13.776 0,-8.652 -3.78,-13.65 -9.198,-13.65 -6.09,0 -9.324,5.544 -9.324,13.524 0,7.434 2.478,13.902 9.24,13.902 z m 0,-1.512 c -3.36,0 -5.208,-4.032 -5.208,-12.18 0,-8.316 1.848,-12.306 5.166,-12.306 3.444,0 5.25,3.948 5.25,12.474 0,8.064 -1.89,12.012 -5.208,12.012 z"
     id="path53"
     style="font-size:42px;font-family:'STIX Two Text';-inkscape-font-specification:'STIX Two Text, Normal';fill-rule:evenodd;stroke-width:3.6;stroke-linejoin:round;stroke-miterlimit:3.2;paint-order:stroke fill markers"
     aria-label="0" />
  <path
     style="font-variation-settings:normal;fill:none;fill-opacity:1;stroke:#000000;stroke-width:3.75;stroke-linecap:butt;stroke-linejoin:miter;stroke-miterlimit:4;stroke-dasharray:none;stroke-dashoffset:0;stroke-opacity:1;stop-color:#000000"
     d="m 534.2872,248.54053 h 77.82276"
     id="path40" />
  <path
     style="font-variation-settings:normal;fill:none;fill-opacity:1;stroke:#000000;stroke-width:2.25;stroke-linecap:butt;stroke-linejoin:miter;stroke-miterlimit:4;stroke-dasharray:9, 9;stroke-dashoffset:0;stroke-opacity:1;stop-color:#000000"
     d="M 612.10996,148.15058 H 783.54472"
     id="path41" />
  <path
     d="m 580.14986,158.63339 0.252,-1.26 c -3.402,0 -3.78,-0.42 -3.066,-4.074 l 3.444,-16.716 c 0.63,-3.276 1.05,-4.284 4.788,-4.284 l 0.252,-1.26 h -11.634 l -0.252,1.26 c 3.822,0 3.822,1.008 3.108,4.284 l -3.444,16.548 c -0.756,3.696 -1.26,4.242 -4.662,4.242 l -0.252,1.26 z"
     id="path51"
     style="font-style:italic;font-size:42px;font-family:'STIX Two Text';-inkscape-font-specification:'STIX Two Text, Italic';fill-rule:evenodd;stroke-width:2.25;stroke-linejoin:round;stroke-miterlimit:3.2;stroke-dasharray:9, 9;paint-order:stroke fill markers"
     aria-label="I" />
  <path
     d="m 587.99776,28.183077 0.252,-1.26 c -3.402,0 -3.78,-0.42 -3.066,-4.074 l 3.444,-16.7160001 c 0.63,-3.276 1.05,-4.284 4.788,-4.284 l 0.252,-1.26000004 h -11.634 l -0.252,1.26000004 c 3.822,0 3.822,1.008 3.108,4.284 l -3.444,16.5480001 c -0.756,3.696 -1.26,4.242 -4.662,4.242 l -0.252,1.26 z"
     id="path55"
     style="font-style:italic;font-size:42px;font-family:'STIX Two Text';-inkscape-font-specification:'STIX Two Text, Italic';fill-rule:evenodd;stroke-width:2.25;stroke-linejoin:round;stroke-miterlimit:3.2;stroke-dasharray:9, 9;paint-order:stroke fill markers"
     aria-label="I" />
  <path
     d="m 598.7491,173.88763 v -0.924 c -3.036,0 -4.257,-0.594 -4.257,-2.211 v -17.952 h -0.957 l -6.402,1.815 v 1.089 c 1.023,-0.33 2.706,-0.528 3.366,-0.528 0.825,0 1.089,0.462 1.089,1.617 v 13.959 c 0,1.65 -1.155,2.211 -4.257,2.211 v 0.924 z"
     id="path50"
     style="font-size:33px;font-family:'STIX Two Text';-inkscape-font-specification:'STIX Two Text, Normal';fill-rule:evenodd;stroke-width:2.25;stroke-linejoin:round;stroke-miterlimit:3.2;stroke-dasharray:9, 9;paint-order:stroke fill markers"
     aria-label="1" />
  <g
     id="g45"
     transform="translate(-13.5)">
    <path
       d="m 506.70058,235.17532 0.252,-1.26 c -3.402,0 -3.78,-0.42 -3.066,-4.074 l 3.444,-16.716 c 0.63,-3.276 1.05,-4.284 4.788,-4.284 l 0.252,-1.26 h -11.634 l -0.252,1.26 c 3.822,0 3.822,1.008 3.108,4.284 l -3.444,16.548 c -0.756,3.696 -1.26,4.242 -4.662,4.242 l -0.252,1.26 z"
       id="path47"
       style="font-style:italic;font-size:42px;font-family:'STIX Two Text';-inkscape-font-specification:'STIX Two Text, Italic';fill-rule:evenodd;stroke-width:2.25;stroke-linejoin:round;stroke-miterlimit:3.2;stroke-dasharray:9, 9;paint-order:stroke fill markers"
       aria-label="I" />
    <path
       d="m 517.24744,253.82633 c 5.181,0 7.293,-5.181 7.293,-10.824 0,-6.798 -2.97,-10.725 -7.227,-10.725 -4.785,0 -7.326,4.356 -7.326,10.626 0,5.841 1.947,10.923 7.26,10.923 z m 0,-1.188 c -2.64,0 -4.092,-3.168 -4.092,-9.57 0,-6.534 1.452,-9.669 4.059,-9.669 2.706,0 4.125,3.102 4.125,9.801 0,6.336 -1.485,9.438 -4.092,9.438 z"
       id="path46"
       style="font-size:33px;font-family:'STIX Two Text';-inkscape-font-specification:'STIX Two Text, Normal';fill-rule:evenodd;stroke-width:2.25;stroke-linejoin:round;stroke-miterlimit:3.2;stroke-dasharray:9, 9;paint-order:stroke fill markers"
       aria-label="0" />
  </g>
  <path
     style="font-size:42px;font-family:'STIX Two Text';-inkscape-font-specification:'STIX Two Text, Normal';fill-rule:evenodd;stroke-width:2.25;stroke-linejoin:round;stroke-miterlimit:3.2;stroke-dasharray:9, 9;paint-order:stroke fill markers"
     d="m 542.99544,220.64332 v -2.856 h -25.032 v 2.856 z m 0,9.954 v -2.814 h -25.032 v 2.814 z m 19.65591,4.956 c 6.132,0 11.466,-2.94 11.466,-8.694 0,-3.738 -2.814,-5.964 -6.174,-7.014 v -0.126 c 2.646,-1.68 4.536,-3.234 4.536,-6.132 0,-3.192 -2.478,-5.628 -6.762,-5.628 -3.444,0 -6.048,1.932 -7.602,5.586 l 0.966,0.546 c 1.428,-2.226 2.982,-3.402 5.502,-3.402 2.604,0 4.284,1.428 4.284,3.906 0,3.402 -2.982,5.712 -5.838,5.712 h -0.798 v 1.596 h 0.84 c 4.032,0 7.602,2.478 7.602,6.216 0,4.116 -2.562,5.334 -5.208,5.334 -2.142,0 -4.2,-2.058 -5.88,-2.058 -1.092,0 -1.638,0.966 -1.638,1.848 0,1.092 0.924,2.31 4.704,2.31 z m 22.55396,-0.546 v -1.26 c -1.974,0 -2.814,-0.252 -2.814,-1.428 0,-0.756 0.21,-1.386 0.462,-2.058 l 1.89,-4.452 h 10.752 l 1.638,3.78 c 0.546,1.26 0.714,2.016 0.714,2.604 0,1.47 -1.638,1.554 -2.898,1.554 v 1.26 h 11.298 v -1.26 c -2.268,0 -3.108,-0.966 -4.326,-3.738 l -9.954,-22.806 h -1.722 l -8.904,21.084 c -2.016,4.788 -2.604,5.46 -4.956,5.46 v 1.26 z m 0.168,-10.878 4.746,-11.76 h 0.126 l 4.62,11.76 z"
     id="path52"
     aria-label="= 3A" />
  <path
     style="font-variation-settings:normal;fill:none;fill-opacity:1;stroke:#000000;stroke-width:3.75;stroke-linecap:butt;stroke-linejoin:miter;stroke-miterlimit:4;stroke-dasharray:none;stroke-dashoffset:0;stroke-opacity:1;stop-color:#000000"
     d="M 612.10996,248.54053 C 656.5367,154.36346 779.77642,153.27425 779.77642,153.27425"
     id="path45"
     sodipodi:nodetypes="cc" />
</svg>
