<?xml version="1.0" encoding="UTF-8" standalone="no"?>
<svg
   width="349.15198pt"
   height="304.94693pt"
   viewBox="0 0 349.15199 304.94692"
   version="1.1"
   id="svg37"
   sodipodi:docname="965t.svg"
   xmlns:inkscape="http://www.inkscape.org/namespaces/inkscape"
   xmlns:sodipodi="http://sodipodi.sourceforge.net/DTD/sodipodi-0.dtd"
   xmlns:xlink="http://www.w3.org/1999/xlink"
   xmlns="http://www.w3.org/2000/svg"
   xmlns:svg="http://www.w3.org/2000/svg"
   xmlns:rdf="http://www.w3.org/1999/02/22-rdf-syntax-ns#"
   xmlns:cc="http://creativecommons.org/ns#"
   xmlns:dc="http://purl.org/dc/elements/1.1/">
  <sodipodi:namedview
     id="namedview37"
     pagecolor="#ffffff"
     bordercolor="#000000"
     borderopacity="0.25"
     inkscape:showpageshadow="2"
     inkscape:pageopacity="0.0"
     inkscape:pagecheckerboard="0"
     inkscape:deskcolor="#d1d1d1"
     inkscape:document-units="pt" />
  <metadata
     id="metadata1">
    <rdf:RDF>
      <cc:Work>
        <dc:type
           rdf:resource="http://purl.org/dc/dcmitype/StillImage" />
        <dc:date>2024-01-31T19:05:01.381218</dc:date>
        <dc:format>image/svg+xml</dc:format>
        <dc:creator>
          <cc:Agent>
            <dc:title>Matplotlib v3.7.1, https://matplotlib.org/</dc:title>
          </cc:Agent>
        </dc:creator>
      </cc:Work>
    </rdf:RDF>
  </metadata>
  <defs
     id="defs1">
    <style
       type="text/css"
       id="style1">*{stroke-linejoin: round; stroke-linecap: butt}</style>
  </defs>
  <g
     id="figure_1"
     transform="translate(-6.7590625,-8.761875)">
    <g
       id="axes_1">
      <g
         id="line2d_1">
        <path
           d="M 139.92,275.45694 V 68.480937"
           style="fill:none;stroke:#333333;stroke-width:2;stroke-linecap:square"
           id="path3" />
      </g>
      <g
         id="line2d_2">
        <path
           d="M 189.2,275.45694 V 68.480937"
           style="fill:none;stroke:#333333;stroke-width:2;stroke-linecap:square"
           id="path4" />
      </g>
      <g
         id="line2d_3">
        <path
           d="M 238.48,275.45694 V 68.480937"
           style="fill:none;stroke:#333333;stroke-width:2;stroke-linecap:square"
           id="path5" />
      </g>
      <g
         id="line2d_4">
        <path
           d="M 287.76,275.45694 V 68.480937"
           style="fill:none;stroke:#333333;stroke-width:2;stroke-linecap:square"
           id="path6" />
      </g>
      <g
         id="line2d_5">
        <path
           d="M 90.64,226.17694 H 297.616"
           style="fill:none;stroke:#333333;stroke-width:2;stroke-linecap:square"
           id="path7" />
      </g>
      <g
         id="line2d_6">
        <path
           d="M 90.64,176.89694 H 297.616"
           style="fill:none;stroke:#333333;stroke-width:2;stroke-linecap:square"
           id="path8" />
      </g>
      <g
         id="line2d_7">
        <path
           d="M 90.64,127.61694 H 297.616"
           style="fill:none;stroke:#333333;stroke-width:2;stroke-linecap:square"
           id="path9" />
      </g>
      <g
         id="line2d_8">
        <path
           d="M 90.64,78.336937 H 297.616"
           style="fill:none;stroke:#333333;stroke-width:2;stroke-linecap:square"
           id="path10" />
      </g>
      <g
         id="matplotlib.axis_1">
        <g
           id="xtick_1">
          <g
             id="line2d_9">
            <defs
               id="defs10">
              <path
                 id="m788f60157d"
                 d="M 0,0 V 6.5"
                 style="stroke:#000000;stroke-width:2" />
            </defs>
            <g
               id="g10">
              <use
                 xlink:href="#m788f60157d"
                 x="139.92"
                 y="275.45694"
                 style="stroke:#000000;stroke-width:2"
                 id="use10" />
            </g>
          </g>
          <g
             id="text_1">
            <!-- 1 -->
            <g
               transform="matrix(0.34,0,0,-0.34,131.505,309.45881)"
               id="g11">
              <defs
                 id="defs11">
                <path
                   id="STIXTwoText-Regular-31"
                   d="m 2726,0 v 179 c -588,0 -825,115 -825,429 V 4090 H 1715 L 474,3738 v -212 c 198,64 524,103 652,103 160,0 212,-90 212,-314 V 608 C 1338,288 1114,179 512,179 V 0 Z"
                   transform="scale(0.015625)" />
              </defs>
              <use
                 xlink:href="#STIXTwoText-Regular-31"
                 id="use11" />
            </g>
          </g>
        </g>
        <g
           id="xtick_2">
          <g
             id="line2d_10">
            <g
               id="g12">
              <use
                 xlink:href="#m788f60157d"
                 x="189.2"
                 y="275.45694"
                 style="stroke:#000000;stroke-width:2"
                 id="use12" />
            </g>
          </g>
          <g
             id="text_2">
            <!-- 2 -->
            <g
               transform="matrix(0.34,0,0,-0.34,180.785,309.45881)"
               id="g13">
              <defs
                 id="defs12">
                <path
                   id="STIXTwoText-Regular-32"
                   d="m 2765,0 205,1024 H 2784 C 2637,640 2554,506 2214,506 H 1325 L 877,486 v 32 l 845,800 c 678,685 1043,1127 1043,1696 0,672 -506,1108 -1229,1108 -621,0 -1056,-359 -1254,-980 l 153,-64 c 237,480 519,628 935,628 492,0 800,-308 800,-788 0,-672 -320,-1075 -954,-1728 L 243,218 V 0 Z"
                   transform="scale(0.015625)" />
              </defs>
              <use
                 xlink:href="#STIXTwoText-Regular-32"
                 id="use13" />
            </g>
          </g>
        </g>
        <g
           id="xtick_3">
          <g
             id="line2d_11">
            <g
               id="g14">
              <use
                 xlink:href="#m788f60157d"
                 x="238.48"
                 y="275.45694"
                 style="stroke:#000000;stroke-width:2"
                 id="use14" />
            </g>
          </g>
          <g
             id="text_3">
            <!-- 3 -->
            <g
               transform="matrix(0.34,0,0,-0.34,230.065,309.45881)"
               id="g15">
              <defs
                 id="defs14">
                <path
                   id="STIXTwoText-Regular-33"
                   d="m 1094,-83 c 935,0 1748,448 1748,1325 0,569 -429,908 -941,1068 v 20 c 403,256 691,492 691,934 0,486 -378,858 -1030,858 -525,0 -922,-295 -1159,-852 l 147,-83 c 218,339 455,519 839,519 397,0 653,-218 653,-596 0,-518 -455,-870 -890,-870 h -122 v -243 h 128 c 615,0 1159,-378 1159,-947 C 2317,422 1926,237 1523,237 1197,237 883,550 627,550 461,550 378,403 378,269 378,102 518,-83 1094,-83 Z"
                   transform="scale(0.015625)" />
              </defs>
              <use
                 xlink:href="#STIXTwoText-Regular-33"
                 id="use15" />
            </g>
          </g>
        </g>
        <g
           id="xtick_4">
          <g
             id="line2d_12">
            <g
               id="g16">
              <use
                 xlink:href="#m788f60157d"
                 x="287.76001"
                 y="275.45694"
                 style="stroke:#000000;stroke-width:2"
                 id="use16" />
            </g>
          </g>
          <g
             id="text_4">
            <!-- 4 -->
            <g
               transform="matrix(0.34,0,0,-0.34,279.345,309.45881)"
               id="g17">
              <defs
                 id="defs16">
                <path
                   id="STIXTwoText-Regular-34"
                   d="m 2426,0 v 1011 h 652 v 442 H 2426 V 4128 H 2035 L 83,1414 V 1011 H 1856 V 0 Z M 435,1478 1830,3430 h 26 V 1453 H 435 Z"
                   transform="scale(0.015625)" />
              </defs>
              <use
                 xlink:href="#STIXTwoText-Regular-34"
                 id="use17" />
            </g>
          </g>
        </g>
        <g
           id="xtick_5">
          <g
             id="line2d_13" />
          <g
             id="text_5">
            <!-- $t,$с -->
            <g
               transform="matrix(0.34,0,0,-0.34,317.32,309.45881)"
               id="g20">
              <defs
                 id="defs17">
                <path
                   id="STIXTwoText-Italic-74"
                   d="m 736,-58 c 506,0 774,474 960,724 l -128,96 C 1344,474 1210,378 1024,378 c -90,0 -109,64 -109,134 0,109 45,320 45,320 l 390,1907 h 634 l 51,250 h -633 l 166,806 H 1376 C 1056,3238 896,3085 486,2874 L 461,2739 H 826 L 390,646 C 378,582 346,390 346,282 346,83 467,-58 736,-58 Z"
                   transform="scale(0.015625)" />
                <path
                   id="STIXTwoText-Regular-2c"
                   d="m 448,-845 c 256,115 794,333 794,1056 0,352 -173,563 -493,563 C 493,774 352,602 352,397 352,211 454,51 704,51 c 70,0 128,13 198,39 0,-519 -294,-672 -531,-775 z"
                   transform="scale(0.015625)" />
                <path
                   id="STIXTwoText-Regular-441"
                   d="M 2611,947 C 2323,576 2106,416 1690,416 c -660,0 -973,550 -973,1331 0,736 313,1120 832,1120 550,0 339,-729 813,-729 179,0 268,102 268,288 0,371 -371,678 -972,678 C 736,3104 211,2451 211,1446 211,557 691,-64 1491,-64 c 685,0 999,403 1242,922 z"
                   transform="scale(0.015625)" />
              </defs>
              <use
                 xlink:href="#STIXTwoText-Italic-74"
                 transform="translate(0,0.703125)"
                 id="use18" />
              <use
                 xlink:href="#STIXTwoText-Regular-2c"
                 transform="translate(29.799988,0.703125)"
                 id="use19" />
              <use
                 xlink:href="#STIXTwoText-Regular-441"
                 transform="translate(70.799969,0.703125)"
                 id="use20" />
            </g>
          </g>
        </g>
        <g
           id="xtick_6">
          <g
             id="line2d_14" />
          <g
             id="text_6">
            <!-- $0$ -->
            <g
               transform="matrix(0.34,0,0,-0.34,67.356,309.45881)"
               id="g21">
              <defs
                 id="defs20">
                <path
                   id="STIXTwoText-Regular-30"
                   d="m 1581,-70 c 1005,0 1414,1004 1414,2099 0,1318 -576,2080 -1401,2080 C 666,4109 173,3264 173,2048 173,915 550,-70 1581,-70 Z m 0,230 c -512,0 -794,614 -794,1856 0,1267 282,1875 787,1875 525,0 800,-601 800,-1901 C 2374,762 2086,160 1581,160 Z"
                   transform="scale(0.015625)" />
              </defs>
              <use
                 xlink:href="#STIXTwoText-Regular-30"
                 transform="translate(0,0.796875)"
                 id="use21" />
            </g>
          </g>
        </g>
      </g>
      <g
         id="matplotlib.axis_2">
        <g
           id="ytick_1">
          <g
             id="line2d_15">
            <defs
               id="defs21">
              <path
                 id="m29a9c68294"
                 d="M 0,0 H -6.5"
                 style="stroke:#000000;stroke-width:2" />
            </defs>
            <g
               id="g22">
              <use
                 xlink:href="#m29a9c68294"
                 x="90.639999"
                 y="176.89694"
                 style="stroke:#000000;stroke-width:2"
                 id="use22" />
            </g>
          </g>
          <g
             id="text_7">
            <!-- 0,1 -->
            <g
               transform="matrix(0.34,0,0,-0.34,38.65,188.89787)"
               id="g25">
              <use
                 xlink:href="#STIXTwoText-Regular-30"
                 id="use23" />
              <use
                 xlink:href="#STIXTwoText-Regular-2c"
                 x="49.499985"
                 id="use24" />
              <use
                 xlink:href="#STIXTwoText-Regular-31"
                 x="73.999969"
                 id="use25" />
            </g>
          </g>
        </g>
        <g
           id="ytick_2">
          <g
             id="line2d_16">
            <g
               id="g26">
              <use
                 xlink:href="#m29a9c68294"
                 x="90.639999"
                 y="78.336937"
                 style="stroke:#000000;stroke-width:2"
                 id="use26" />
            </g>
          </g>
          <g
             id="text_8">
            <!-- 0,2 -->
            <g
               transform="matrix(0.34,0,0,-0.34,38.65,90.337875)"
               id="g29">
              <use
                 xlink:href="#STIXTwoText-Regular-30"
                 id="use27" />
              <use
                 xlink:href="#STIXTwoText-Regular-2c"
                 x="49.499985"
                 id="use28" />
              <use
                 xlink:href="#STIXTwoText-Regular-32"
                 x="73.999969"
                 id="use29" />
            </g>
          </g>
        </g>
        <g
           id="ytick_3">
          <g
             id="line2d_17" />
          <g
             id="text_9">
            <!-- $B,$Тл -->
            <g
               transform="matrix(0.34,0,0,-0.34,7.2,31.201875)"
               id="g33">
              <defs
                 id="defs29">
                <path
                   id="STIXTwoText-Italic-42"
                   d="m 1760,0 c 1005,0 1798,467 1798,1325 0,537 -416,806 -915,877 v 32 c 608,140 1120,454 1120,1145 0,461 -307,826 -1389,826 H 755 l -38,-192 c 473,0 595,-71 486,-583 L 659,800 C 550,269 442,192 -45,192 L -83,0 Z m -243,230 c -160,0 -243,7 -391,20 l 365,1811 h 378 c 537,0 1030,-167 1030,-755 C 2899,358 2099,230 1517,230 Z m 25,2087 333,1625 c 135,13 192,20 320,20 717,0 935,-282 935,-628 0,-633 -333,-1017 -1216,-1017 z"
                   transform="scale(0.015625)" />
                <path
                   id="STIXTwoText-Regular-422"
                   d="m 2861,0 v 192 c -551,0 -634,64 -634,646 v 3079 h 403 c 711,0 788,-167 928,-864 h 199 l -51,1152 H 166 L 96,3053 h 198 c 135,697 224,864 928,864 h 410 V 838 c 0,-582 -90,-646 -627,-646 V 0 Z"
                   transform="scale(0.015625)" />
                <path
                   id="STIXTwoText-Regular-43b"
                   d="m 397,-58 c 352,0 563,212 729,589 263,583 391,1485 436,2253 h 787 V 506 c 0,-269 -83,-327 -448,-327 V 0 h 1427 v 179 c -365,0 -442,64 -442,333 v 2003 c 0,275 96,327 448,327 v 185 H 736 v -185 c 403,0 518,-20 518,-340 C 1254,2131 1114,1190 902,717 813,512 717,474 602,474 467,474 384,602 186,602 58,602 -70,499 -70,314 -70,102 102,-58 397,-58 Z"
                   transform="scale(0.015625)" />
              </defs>
              <use
                 xlink:href="#STIXTwoText-Italic-42"
                 transform="translate(0,0.296875)"
                 id="use30" />
              <use
                 xlink:href="#STIXTwoText-Regular-2c"
                 transform="translate(59.299988,0.296875)"
                 id="use31" />
              <use
                 xlink:href="#STIXTwoText-Regular-422"
                 transform="translate(100.29997,0.296875)"
                 id="use32" />
              <use
                 xlink:href="#STIXTwoText-Regular-43b"
                 transform="translate(160.59996,0.296875)"
                 id="use33" />
            </g>
          </g>
        </g>
      </g>
      <g
         id="line2d_18">
        <path
           d="M 90.64,275.45694 189.2,78.336937 287.76,275.45694"
           clip-path="url(#p16f8f57d66)"
           style="fill:none;stroke:#000000;stroke-width:2.5;stroke-linecap:square"
           id="path33" />
      </g>
      <g
         id="patch_3">
        <path
           d="m 90.64,275.45694 q 155.232,0 242.18533,0"
           style="fill:none;stroke:#000000;stroke-width:2.56;stroke-linecap:round"
           id="path34" />
        <path
           d="m 320.82533,270.95694 12,4.5 -12,4.5 z"
           style="stroke:#000000;stroke-width:2.56;stroke-linecap:round"
           id="path35" />
      </g>
      <g
         id="patch_4">
        <path
           d="m 90.64,275.45694 q 0,-133.056 0,-240.285449"
           style="fill:none;stroke:#000000;stroke-width:2.56;stroke-linecap:round"
           id="path36" />
        <path
           d="m 86.14,47.171491 4.5,-12 4.5,12 z"
           style="stroke:#000000;stroke-width:2.56;stroke-linecap:round"
           id="path37" />
      </g>
    </g>
  </g>
  <defs
     id="defs37">
    <clipPath
       id="p16f8f57d66">
      <rect
         x="75.856003"
         y="9.3449373"
         width="325.24799"
         height="266.112"
         id="rect37" />
    </clipPath>
  </defs>
</svg>
