<svg width="481" height="212.8" version="1.1" viewBox="0 0 481 212.8" xmlns="http://www.w3.org/2000/svg"><g transform="translate(.9642 3.164)"><path d="m188 91.22v103.6h3v-103.6z" color="#000000" fill-rule="evenodd" stroke-linejoin="round" style="-inkscape-stroke:none;paint-order:stroke fill markers"/><path d="m105.4 148.1a1.55 1.55 0 0 0-1.549 1.551v45.16a1.55 1.55 0 0 0 1.549 1.551h166.7a1.55 1.55 0 0 0 1.551-1.551v-45.16a1.55 1.55 0 0 0-1.551-1.551zm1.551 3.1h163.6v42.07h-163.6z" color="#000000" fill-rule="evenodd" stroke-linejoin="round" style="-inkscape-stroke:none;paint-order:stroke fill markers"/><path d="m114.7 19.77-2.75 1.201 76.16 174.5 2.75-1.199z" color="#000000" fill-rule="evenodd" stroke-linejoin="round" style="-inkscape-stroke:none;paint-order:stroke fill markers"/><path d="m105.8 24.55-3.532-24.95a3.78 2.1 66.42 0 1 3.443-1.503l15.89 19.55a4.672 2.596 66.42 0 1 0.5775 7.126l-11.55 5.041a4.672 2.596 66.42 0 1-4.833-5.268z" color="#000000" fill-rule="evenodd" style="-inkscape-stroke:none"/><path d="m362.9 120.5-91.5 50.4 1.447 2.629 91.5-50.4z" color="#000000" fill-rule="evenodd" stroke-linejoin="round" style="-inkscape-stroke:none;paint-order:stroke fill markers"/><path d="m358.7 114.7 24.52-5.806a2.1 3.78 61.15 0 1 1.812 3.29l-18.01 17.62a2.596 4.672 61.15 0 1-7.043 1.229l-6.079-11.04a2.596 4.672 61.15 0 1 4.803-5.296z" color="#000000" fill-rule="evenodd" style="-inkscape-stroke:none"/><path d="m272.1 172.2h103.9" fill="none" stroke="#000" stroke-linejoin="round" stroke-width="3" style="paint-order:stroke fill markers"/><g fill="none" stroke="#000" stroke-width="3"><path d="m0 195.4h478.9z" stroke-linejoin="round" style="paint-order:stroke fill markers"/><path d="m6.817 195.4-6.817 5.72m17.67 7.364 15.59-13.08m26.45 0-15.59 13.08m26.45 0 15.59-13.08m26.45 0-15.59 13.08m26.45 0 15.59-13.08m26.45 0-15.59 13.08m26.45 0 15.59-13.08m26.45 0-15.59 13.08m26.45 0 15.59-13.08m26.45 0-15.59 13.08m26.45 0 15.59-13.08m26.45 0-15.59 13.08m26.45 0 15.59-13.08m26.45 0-15.59 13.08m26.45 0 15.59-13.08m26.45 0-15.59 13.08m26.45 0 15.59-13.08m22.51 3.303-11.66 9.78"/></g><path d="m317.7 147a51.94 52.72 0 0 1 6.344 24.71" fill="none" stop-color="#000000" stroke="#000" stroke-width="2.5" style="-inkscape-stroke:none;font-variation-settings:normal"/><path d="m157.5 121.2a80 80 0 0 1 31.71-6.368" fill="none" stop-color="#000000" stroke="#000" stroke-width="2.5" style="-inkscape-stroke:none;font-variation-settings:normal"/><g stroke-width="1.7"><path transform="translate(-14.44 21.98)" d="m426.3 96.13h-13.06l0.272-1.36q1.587 0 2.493-0.272 0.952-0.272 1.496-1.088 0.5893-0.8613 0.9067-2.539l4.035-19.4q0.3173-1.587 0.1813-2.357-0.136-0.816-0.9973-1.088-0.8613-0.3173-2.72-0.3173l0.272-1.36h23.39l-1.224 7.389h-1.36q0.0453-2.176-0.272-3.4-0.272-1.224-1.541-1.723-1.269-0.4987-4.216-0.4987h-6.8l-4.715 23.21q-0.0907 0.4533-0.136 0.8613-0.0453 0.3627-0.0453 0.68 0 1.179 1.088 1.541 1.088 0.3627 3.173 0.3627zm8.387-10.15h-1.496q0.3627-1.949 0.1813-2.856-0.1813-0.9067-1.179-1.179-0.952-0.3173-2.901-0.3173h-5.349l0.3173-1.723h5.485q1.949 0 2.992-0.3627 1.088-0.3627 1.632-1.315 0.5893-0.9973 0.952-2.811h1.451z" aria-label="F"/><path transform="translate(-11.63 15.7)" d="m264.2 122.8q-1.723 0-2.357-0.816-0.6347-0.8613-0.6347-1.859 0-0.544 0.0907-1.043 0.0907-0.544 0.136-0.7253l2.312-8.795q0.2267-0.9067 0.4533-1.995 0.272-1.133 0.272-1.859 0-0.7707-0.272-1.269-0.272-0.544-1.043-0.544-0.8613 0-1.995 0.952-1.088 0.9067-2.267 2.403-1.179 1.496-2.267 3.264-1.088 1.723-1.904 3.355-0.816 1.587-1.224 2.765l1.541-5.848q0.68-1.315 1.723-3.037 1.043-1.723 2.357-3.355 1.36-1.632 2.947-2.675 1.632-1.088 3.445-1.088 1.632 0 2.221 0.9973 0.5893 0.9973 0.5893 2.221 0 0.8613-0.1813 1.859-0.1813 0.9973-0.272 1.496l-2.493 10.47t-0.0907 0.3627q-0.0453 0.3173-0.0453 0.7253 0 0.8613 0.8613 0.8613 1.179 0 1.995-0.8613 0.8613-0.8613 1.405-1.496l0.9067 0.68q-0.4533 0.6347-1.043 1.451-0.544 0.816-1.315 1.632-0.7253 0.7707-1.677 1.269t-2.176 0.4987zm-24.03-0.4533h-3.717l3.627-17.23t0.0453-0.4987q0.0907-0.4987 0.0907-0.9973 0-0.5893-0.3173-0.9067-0.3173-0.3173-1.133-0.3173-0.4533 0-0.952 0.0453-0.4987 0.0453-0.4987 0.0453v-1.224l6.211-0.4987h1.043l-2.221 9.837h0.4987zm12.1 0h-3.763q0.4987-1.813 0.952-3.627 0.4987-1.859 0.952-3.672 0.4533-1.859 0.8613-3.717 0.4533-1.859 0.8613-3.763 0 0 0.0907-0.6347 0.136-0.68 0.136-1.224 0-0.7707-0.272-1.269-0.272-0.544-1.043-0.544-1.133 0-2.493 1.269t-2.765 3.264q-1.36 1.995-2.539 4.261-1.179 2.221-1.949 4.125l1.133-5.712q0.68-1.315 1.723-3.083 1.043-1.768 2.403-3.445 1.405-1.677 3.128-2.811 1.723-1.133 3.672-1.133 1.677 0 2.221 0.9973 0.5893 0.9973 0.5893 2.221 0 0.9973-0.1813 2.085t-0.2267 1.269l-0.8613 3.4h0.6347l-2.04 6.029z" aria-label="m"/><path transform="translate(-8.791 -8.791)" d="m81.8 43.33h-12.51l0.272-1.36q1.677 0 2.584-0.272t1.36-1.179q0.4987-0.9067 0.8613-2.811l3.989-19.45q0.272-1.269 0.136-1.995t-0.952-1.043q-0.7707-0.3173-2.584-0.3173l0.272-1.36h10.65q3.173 0 5.395 0.68 2.267 0.6347 3.445 1.995 1.224 1.36 1.224 3.581 0 2.403-0.9067 4.035t-2.357 2.675q-1.451 1.043-3.128 1.632-1.632 0.544-3.128 0.816v0.2267q0.816 0.544 1.541 1.677 0.7253 1.088 1.768 3.173 1.088 2.085 2.947 5.621 0.7707 1.36 1.677 1.859 0.952 0.4533 2.493 0.4533l-0.272 1.36h-6.891q-1.269-2.811-2.131-4.669-0.8613-1.904-1.496-3.173-0.6347-1.269-1.133-2.267-0.4533-0.9973-0.9973-2.04-0.4987-0.952-1.088-1.224-0.5893-0.3173-1.813-0.3173h-1.36l0.3173-1.677 1.813 0.04533q2.72-0.09067 4.896-0.8613 2.221-0.816 3.491-2.539 1.269-1.723 1.269-4.624 0-1.224-0.544-2.267-0.4987-1.088-1.768-1.723-1.269-0.68-3.536-0.68-0.8613 0-1.405 0.04533-0.4987 0-1.269 0.09067l-4.533 22.26q-0.3627 1.859-0.272 2.811 0.136 0.9067 1.043 1.179t2.856 0.272z" aria-label="R"/><path transform="translate(15.7 12.72)" d="m142 96.76-0.544-0.09067q0.816-3.808 1.541-7.661 0.7707-3.808 1.496-7.616 0.7253-3.944 1.541-7.797 0.8613-3.899 1.995-7.344 1.133-3.445 2.72-6.075 1.587-2.675 3.808-4.171 2.221-1.541 5.259-1.541 2.493 0 4.08 1.587 1.632 1.541 1.587 4.307 0 2.357-1.133 4.08-1.133 1.677-2.901 2.811-1.723 1.088-3.536 1.813v0.5893l-0.952 0.04533q-1.405 0.8613-2.448 1.496-1.043 0.5893-1.496 0.5893-0.3173 0-0.68-0.5893-0.3173-0.5893-0.3173-1.315 0-0.7707 0.3173-1.36 0.3627-0.5893 0.9067-0.5893 0.1813 0 0.7707 0.04533 0.5893 0.04533 1.133 0.09067 0.544 0.04533 0.5893 0.04533 0.408 0 1.451-0.272 1.043-0.3173 2.176-0.9973 1.133-0.7253 1.949-1.904t0.816-2.992q0-2.131-1.088-3.037-1.043-0.952-2.493-0.952-2.221 0-3.899 1.133-1.632 1.133-2.811 3.037-1.179 1.904-1.949 4.171-0.7707 2.267-1.179 4.533t-0.5893 4.216q-0.1813 1.949-0.1813 3.128 0 2.629 1.451 4.216 1.451 1.541 3.944 1.541 1.088 0 2.312-0.1813 1.224-0.2267 2.267-0.8613 1.088-0.6347 1.768-1.949t0.68-3.491q0-1.859-0.4987-3.173-0.4987-1.315-1.224-2.221-0.7253-0.9067-1.405-1.405-0.6347-0.4987-0.952-0.7253l1.315-0.7707q1.36 0.408 2.675 1.632 1.36 1.179 2.221 2.992 0.9067 1.813 0.9067 4.216 0 2.72-0.9067 4.579-0.8613 1.813-2.267 2.901-1.405 1.043-3.083 1.496-1.677 0.4987-3.309 0.4987-1.723 0-2.947-0.7253t-1.995-1.723q-0.7707-1.043-1.269-1.859h-0.3173q-0.1813 2.629-0.272 5.032-0.0453 2.403-0.408 4.307-0.3627 1.904-1.405 3.037-1.043 1.133-3.219 1.224z" aria-label="β"/><path d="m352.5 159.7q-2.765 0-3.989-2.221-1.224-2.267-1.224-6.165 0-4.171 1.36-7.299 1.36-3.173 3.763-4.896 2.448-1.768 5.576-1.768 1.632 0 2.675 0.68 1.043 0.68 1.632 1.723 0.6347 0.9973 0.9067 2.176 0.3173 1.133 0.4533 2.085h0.9973l-0.3627 3.989q0 1.224 0 2.675 0.0453 1.405 0.2267 2.675 0.2267 1.224 0.7253 2.04 0.4987 0.7707 1.451 0.7707 1.043 0 1.723-0.4987 0.7253-0.544 1.36-1.269l0.7253 0.7253q-0.272 0.408-0.7253 1.179-0.4533 0.7253-1.179 1.496-0.7253 0.7253-1.768 1.269-1.043 0.4987-2.403 0.4987-1.587 0-2.267-1.088-0.6347-1.088-0.6347-2.765 0-0.816 0.136-1.768t0.2267-2.085h-0.3627q-1.315 2.131-2.811 3.944-1.451 1.768-2.992 2.856-1.541 1.043-3.219 1.043zm0.9973-3.989q1.632 0 3.173-0.9067 1.541-0.952 2.765-2.493 1.269-1.541 1.995-3.4 0.7253-1.859 0.7253-3.717 0-2.131-1.133-3.083-1.088-0.9973-3.264-0.9973-3.672 0-6.029 2.312-2.357 2.267-2.357 6.845 0 2.947 1.269 4.216 1.315 1.224 2.856 1.224zm10.29-6.981-0.1813-3.944q0.816-2.085 1.949-4.035 1.179-1.995 1.904-2.992l3.763-0.0907 0.0453 0.68q-0.3627 0.4533-1.179 1.541-0.816 1.043-1.813 2.403-0.9973 1.315-1.949 2.675t-1.632 2.403q-0.68 0.9973-0.9067 1.36z" aria-label="α"/></g></g></svg>
