<?xml version="1.0" encoding="UTF-8" standalone="no"?>
<svg
   version="1.0"
   width="328.01761pt"
   height="223.13335pt"
   viewBox="0 0 328.01762 223.13335"
   preserveAspectRatio="xMidYMid"
   id="svg50"
   sodipodi:docname="948t.svg"
   inkscape:version="1.3 (0e150ed, 2023-07-21)"
   xmlns:inkscape="http://www.inkscape.org/namespaces/inkscape"
   xmlns:sodipodi="http://sodipodi.sourceforge.net/DTD/sodipodi-0.dtd"
   xmlns="http://www.w3.org/2000/svg"
   xmlns:svg="http://www.w3.org/2000/svg">
  <defs
     id="defs50" />
  <sodipodi:namedview
     id="namedview50"
     pagecolor="#ffffff"
     bordercolor="#000000"
     borderopacity="0.25"
     inkscape:showpageshadow="2"
     inkscape:pageopacity="0.0"
     inkscape:pagecheckerboard="0"
     inkscape:deskcolor="#d1d1d1"
     inkscape:document-units="pt"
     inkscape:zoom="1.3563339"
     inkscape:cx="198.69738"
     inkscape:cy="193.16777"
     inkscape:window-width="1440"
     inkscape:window-height="847"
     inkscape:window-x="0"
     inkscape:window-y="25"
     inkscape:window-maximized="0"
     inkscape:current-layer="svg50" />
  <metadata
     id="metadata1">&#10;Created by potrace 1.16, written by Peter Selinger 2001-2019&#10;</metadata>
  <g
     transform="matrix(0.1,0,0,-0.1,-1.095,224)"
     fill="#000000"
     stroke="none"
     id="g50">
    <path
       d="m 917,2222 c -28,-30 -20,-49 8,-22 25,24 32,40 17,40 -5,0 -16,-8 -25,-18 z"
       id="path1" />
    <path
       d="m 947,2192 c -82,-83 -83,-82 194,-82 h 240 l -20,-29 c -18,-25 -19,-30 -5,-35 15,-6 53,28 54,47 0,5 5,5 10,2 6,-4 8,-11 5,-16 -4,-5 -1,-9 4,-9 6,0 11,7 11,15 0,19 8,18 45,-6 17,-10 40,-23 52,-28 12,-6 59,-33 105,-62 46,-28 92,-55 103,-60 11,-5 27,-13 35,-19 8,-5 47,-28 85,-51 39,-23 72,-43 73,-44 9,-8 -63,-98 -110,-137 -85,-71 -178,-116 -286,-137 -85,-17 -102,-15 -102,14 0,14 -4,25 -10,25 -5,0 -10,-21 -10,-46 0,-39 3,-45 18,-40 9,3 52,12 96,21 171,35 271,96 392,238 l 40,48 195,-112 c 107,-61 210,-121 229,-131 28,-16 144,-83 220,-128 8,-5 72,-41 141,-81 l 126,-72 -14,-49 c -30,-101 37,-214 150,-253 50,-17 63,-18 103,-7 127,34 195,144 170,277 -10,49 -75,119 -132,141 -87,33 -204,2 -246,-65 -10,-16 -32,-5 -217,101 -113,66 -239,139 -279,164 -40,24 -75,44 -78,44 -4,0 -54,29 -113,64 -84,50 -274,160 -511,296 -8,5 -49,28 -90,52 -41,24 -84,48 -95,54 -13,6 55,10 205,12 148,1 226,6 231,13 8,14 0,49 -12,49 -4,0 -11,-4 -14,-10 -3,-5 -14,-10 -23,-10 -12,0 -7,9 16,33 51,53 37,66 -16,14 -58,-57 -93,-64 -37,-7 55,57 34,63 -23,7 -58,-57 -92,-64 -37,-7 55,57 34,63 -23,7 -58,-57 -92,-64 -37,-7 55,57 34,63 -23,7 -58,-57 -92,-64 -37,-7 55,57 34,63 -23,7 -58,-57 -92,-64 -37,-7 55,57 34,63 -23,7 -58,-57 -92,-64 -37,-7 55,57 34,63 -23,7 -58,-57 -92,-64 -37,-7 55,57 34,63 -23,7 -58,-57 -92,-64 -37,-7 55,57 34,63 -23,7 -58,-57 -92,-64 -37,-7 55,57 34,63 -23,7 -58,-57 -92,-64 -37,-7 55,57 34,63 -23,7 -58,-57 -92,-64 -37,-7 55,57 34,63 -23,7 -58,-57 -92,-64 -37,-7 55,57 34,63 -23,7 -58,-57 -92,-64 -37,-7 55,57 34,63 -23,7 -58,-57 -92,-64 -37,-7 55,57 34,63 -23,7 -58,-57 -92,-64 -37,-7 55,57 34,63 -23,7 -57,-56 -93,-64 -39,-9 20,21 37,41 37,45 0,16 -18,4 -63,-41 z m 2206,-841 c 88,-38 130,-146 92,-238 -30,-72 -93,-113 -170,-113 -192,0 -255,253 -85,343 62,32 102,34 163,8 z"
       id="path2" />
    <path
       d="m 1422,2005 c 2,-30 6,-55 10,-55 5,0 8,25 8,55 0,30 -5,55 -10,55 -6,0 -9,-23 -8,-55 z"
       id="path3" />
    <path
       d="m 1261,1961 c -26,-32 -28,-41 -17,-50 11,-9 20,-3 45,31 17,23 31,46 31,50 0,21 -31,4 -59,-31 z"
       id="path4" />
    <path
       d="m 1421,1885 c 1,-30 6,-55 11,-55 4,0 8,25 8,55 0,32 -4,55 -11,55 -6,0 -9,-22 -8,-55 z"
       id="path5" />
    <path
       d="m 1151,1825 c -27,-38 -30,-46 -16,-51 9,-4 17,-5 19,-3 43,57 57,80 51,89 -11,18 -21,11 -54,-35 z"
       id="path6" />
    <path
       d="m 1421,1765 c 1,-30 6,-55 11,-55 4,0 8,25 8,55 0,32 -4,55 -11,55 -6,0 -9,-22 -8,-55 z"
       id="path7" />
    <path
       d="m 1046,1695 c -18,-23 -25,-42 -21,-53 5,-14 12,-10 41,23 18,22 32,44 31,49 -7,22 -26,15 -51,-19 z"
       id="path8" />
    <path
       d="m 1420,1655 c 0,-25 5,-45 10,-45 6,0 10,20 10,45 0,25 -4,45 -10,45 -5,0 -10,-20 -10,-45 z"
       id="path9" />
    <path
       d="m 942,1564 c -18,-21 -32,-44 -32,-51 0,-16 27,-17 32,-2 2,5 21,-3 43,-18 58,-42 115,-73 160,-90 75,-28 190,-53 243,-53 h 52 v 55 c 0,33 -4,55 -11,55 -6,0 -9,-17 -8,-42 2,-26 -1,-43 -9,-46 -7,-2 -45,2 -85,9 -39,7 -76,13 -82,13 -45,4 -231,94 -260,126 -14,16 -15,23 -6,34 8,10 9,21 3,31 -8,15 -13,12 -40,-21 z"
       id="path10" />
    <path
       d="m 826,1416 c -23,-29 -32,-47 -25,-51 12,-8 79,52 79,71 0,29 -20,21 -54,-20 z"
       id="path11" />
    <path
       d="m 1420,1295 c 0,-25 5,-45 10,-45 6,0 10,20 10,45 0,25 -4,45 -10,45 -5,0 -10,-20 -10,-45 z"
       id="path12" />
    <path
       d="m 740,1312 c 0,-4 -14,-23 -31,-41 -23,-26 -27,-36 -17,-42 7,-5 16,-9 19,-9 13,0 61,79 54,89 -7,13 -25,15 -25,3 z"
       id="path13" />
    <path
       d="m 1421,1175 c 2,-25 6,-45 11,-45 4,0 8,20 8,45 0,25 -5,45 -10,45 -7,0 -10,-19 -9,-45 z"
       id="path14" />
    <path
       d="m 605,1145 c -17,-23 -24,-42 -20,-53 5,-14 12,-10 41,23 18,22 34,46 34,53 0,24 -28,12 -55,-23 z"
       id="path15" />
    <path
       d="m 1421,1055 c 2,-25 6,-45 11,-45 4,0 8,20 8,45 0,25 -5,45 -10,45 -7,0 -10,-19 -9,-45 z"
       id="path16" />
    <path
       d="m 497,1010 c -26,-36 -29,-60 -8,-60 14,0 63,78 56,89 -10,18 -19,13 -48,-29 z"
       id="path17" />
    <path
       d="m 1421,935 c 2,-25 6,-45 11,-45 4,0 8,20 8,45 0,25 -5,45 -10,45 -7,0 -10,-19 -9,-45 z"
       id="path18" />
    <path
       d="m 386,871 c -27,-38 -28,-39 -59,-26 -18,7 -49,15 -69,19 -34,6 -38,5 -38,-14 0,-15 6,-20 25,-20 14,0 44,-9 66,-20 l 39,-21 46,47 c 24,26 43,51 41,57 -7,23 -25,16 -51,-22 z"
       id="path19" />
    <path
       d="m 1421,815 c 2,-25 6,-45 11,-45 4,0 8,20 8,45 0,25 -5,45 -10,45 -7,0 -10,-19 -9,-45 z"
       id="path20" />
    <path
       d="M 101,820 C 79,803 60,786 60,781 c 0,-22 23,-21 51,3 17,14 35,26 40,26 11,0 12,27 0,34 -5,3 -27,-8 -50,-24 z"
       id="path21" />
    <path
       d="m 396,751 c -10,-15 25,-101 41,-101 12,0 14,8 8,37 -11,61 -33,90 -49,64 z"
       id="path22" />
    <path
       d="m 1421,695 c 2,-25 6,-45 11,-45 4,0 8,20 8,45 0,25 -5,45 -10,45 -7,0 -10,-19 -9,-45 z"
       id="path23" />
    <path
       d="m 15,676 c -9,-46 -3,-70 18,-74 14,-3 17,5 17,52 0,42 -4,56 -15,56 -8,0 -17,-14 -20,-34 z"
       id="path24" />
    <path
       d="m 1421,575 c 2,-25 6,-45 11,-45 4,0 8,20 8,45 0,25 -5,45 -10,45 -7,0 -10,-19 -9,-45 z"
       id="path25" />
    <path
       d="m 400,580 c 0,-7 -9,-25 -21,-41 -14,-21 -18,-33 -11,-45 8,-15 14,-11 41,26 17,24 30,48 28,54 -5,15 -37,20 -37,6 z"
       id="path26" />
    <path
       d="m 59,540 c -15,-10 15,-51 52,-74 25,-15 27,-15 34,1 3,11 1,19 -7,22 -7,2 -25,16 -40,31 -16,16 -32,24 -39,20 z"
       id="path27" />
    <path
       d="m 1421,513 c 7,-41 -3,-61 -31,-66 -16,-4 -30,-11 -30,-17 0,-13 23,-13 55,2 20,9 25,18 25,50 0,21 -4,38 -10,38 -5,0 -9,-3 -9,-7 z"
       id="path28" />
    <path
       d="m 285,469 c -11,-4 -35,-8 -52,-8 -22,-1 -33,-6 -33,-16 0,-19 78,-21 103,-2 22,16 8,37 -18,26 z"
       id="path29" />
    <path
       d="m 1450,435 c 0,-9 9,-15 25,-15 28,0 34,15 9,24 -25,10 -34,7 -34,-9 z"
       id="path30" />
    <path
       d="m 1300,405 c -7,-9 -10,-18 -7,-21 6,-7 47,18 47,28 0,14 -27,9 -40,-7 z"
       id="path31" />
    <path
       d="m 1520,412 c 0,-11 41,-34 48,-27 4,4 -2,13 -12,21 -22,15 -36,18 -36,6 z"
       id="path32" />
    <path
       d="m 1247,346 c -15,-22 -13,-36 3,-36 11,0 30,49 21,55 -5,2 -16,-6 -24,-19 z"
       id="path33" />
    <path
       d="m 1588,364 c -8,-7 12,-54 23,-54 4,0 10,4 13,8 6,10 -28,55 -36,46 z"
       id="path34" />
    <path
       d="m 462,274 c -29,-20 -28,-50 4,-70 24,-16 26,-16 54,5 27,20 40,21 192,20 147,-1 160,-2 133,-14 -29,-14 -29,-14 -5,-14 14,-1 50,6 80,14 30,8 79,15 108,15 33,0 51,4 47,10 -3,6 -30,8 -58,7 -28,-2 -82,4 -119,14 -63,16 -89,12 -53,-8 8,-5 -54,-8 -143,-8 -149,0 -158,1 -180,23 -26,26 -31,27 -60,6 z"
       id="path35" />
    <path
       d="m 1218,260 c -3,-17 -2,-32 1,-34 12,-6 101,6 96,13 -2,4 -20,6 -41,5 -34,-3 -36,-2 -31,21 2,16 0,25 -8,25 -7,0 -15,-14 -17,-30 z"
       id="path36" />
    <path
       d="m 1620,264 c 0,-19 -4,-25 -15,-20 -8,3 -15,1 -15,-4 0,-6 25,-10 55,-10 30,0 55,4 55,8 0,4 -12,8 -27,8 -22,-1 -29,4 -31,22 -5,31 -22,28 -22,-4 z"
       id="path37" />
    <path
       d="m 1804,279 c -12,-4 -24,-14 -27,-23 -4,-11 -16,-15 -37,-12 -16,2 -30,-1 -30,-5 0,-5 14,-9 30,-9 17,0 39,-9 51,-21 22,-22 55,-19 75,7 9,11 41,14 135,14 113,-1 122,-2 99,-15 l -25,-14 25,-1 c 14,0 50,7 80,15 30,8 70,15 88,15 17,0 32,3 32,8 0,4 -19,7 -42,6 -24,0 -73,7 -110,17 -69,17 -81,16 -51,-6 14,-11 -4,-13 -104,-14 -110,-2 -121,0 -125,17 -6,22 -35,32 -64,21 z"
       id="path38" />
    <path
       d="m 1110,238 c 0,-5 21,-8 47,-8 25,0 43,3 39,7 -10,10 -86,11 -86,1 z"
       id="path39" />
    <path
       d="m 1350,238 c 0,-4 25,-8 55,-8 30,0 55,4 55,8 0,5 -25,8 -55,8 -30,0 -55,-3 -55,-8 z"
       id="path40" />
    <path
       d="m 1470,238 c 0,-5 21,-8 47,-8 25,0 43,3 40,7 -10,9 -87,10 -87,1 z"
       id="path41" />
    <path
       d="m 2310,240 c 0,-5 24,-10 55,-10 71,0 71,14 0,18 -32,1 -55,-2 -55,-8 z"
       id="path42" />
    <path
       d="m 2430,240 c 0,-5 12,-10 26,-10 14,0 23,4 19,10 -3,6 -15,10 -26,10 -10,0 -19,-4 -19,-10 z"
       id="path43" />
    <path
       d="m 1612,181 c -9,-25 -8,-31 3,-31 17,0 30,39 17,52 -6,6 -13,-1 -20,-21 z"
       id="path44" />
    <path
       d="m 1227,193 c -7,-12 11,-53 24,-53 6,0 8,7 5,16 -3,9 -6,22 -6,30 0,15 -16,19 -23,7 z"
       id="path45" />
    <path
       d="m 1570,109 c -7,-11 -9,-23 -6,-26 8,-9 36,17 36,33 0,21 -18,17 -30,-7 z"
       id="path46" />
    <path
       d="m 1260,112 c 0,-13 23,-32 39,-32 11,0 10,4 -4,20 -19,21 -35,26 -35,12 z"
       id="path47" />
    <path
       d="m 1326,62 c -3,-5 6,-14 20,-21 32,-14 34,-14 34,4 0,8 -4,15 -9,15 -5,0 -16,3 -24,6 -8,3 -18,1 -21,-4 z"
       id="path48" />
    <path
       d="m 1508,63 c -10,-2 -18,-11 -18,-19 0,-11 5,-11 25,-2 14,6 25,15 25,20 0,8 -4,9 -32,1 z"
       id="path49" />
    <path
       d="m 1410,35 c 0,-9 9,-15 25,-15 16,0 25,6 25,15 0,9 -9,15 -25,15 -16,0 -25,-6 -25,-15 z"
       id="path50" />
  </g>
  <text
     xml:space="preserve"
     style="font-style:italic;font-variant:normal;font-weight:normal;font-stretch:normal;font-size:29px;font-family:'STIX Two Text';-inkscape-font-specification:'STIX Two Text, Italic';font-variant-ligatures:normal;font-variant-caps:normal;font-variant-numeric:normal;font-variant-east-asian:normal;fill:#000000;stroke-width:3.2;stroke-linejoin:round;stroke-miterlimit:3.2;paint-order:stroke fill markers"
     x="34.810394"
     y="222.84335"
     id="text50"><tspan
       sodipodi:role="line"
       id="tspan50"
       style="font-style:italic;font-variant:normal;font-weight:normal;font-stretch:normal;font-size:29px;font-family:'STIX Two Text';-inkscape-font-specification:'STIX Two Text, Italic';font-variant-ligatures:normal;font-variant-caps:normal;font-variant-numeric:normal;font-variant-east-asian:normal;stroke-width:3.2"
       x="34.810394"
       y="222.84335">m</tspan></text>
  <text
     xml:space="preserve"
     style="font-style:italic;font-variant:normal;font-weight:normal;font-stretch:normal;font-size:29px;font-family:'STIX Two Text';-inkscape-font-specification:'STIX Two Text, Italic';font-variant-ligatures:normal;font-variant-caps:normal;font-variant-numeric:normal;font-variant-east-asian:normal;fill:#000000;stroke-width:3.2;stroke-linejoin:round;stroke-miterlimit:3.2;paint-order:stroke fill markers"
     x="90.65947"
     y="181.14101"
     id="text51"><tspan
       sodipodi:role="line"
       id="tspan51"
       style="font-style:italic;font-variant:normal;font-weight:normal;font-stretch:normal;font-size:29px;font-family:'STIX Two Text';-inkscape-font-specification:'STIX Two Text, Italic';font-variant-ligatures:normal;font-variant-caps:normal;font-variant-numeric:normal;font-variant-east-asian:normal;stroke-width:3.2"
       x="90.65947"
       y="181.14101">v</tspan></text>
  <text
     xml:space="preserve"
     style="font-style:italic;font-variant:normal;font-weight:normal;font-stretch:normal;font-size:29px;font-family:'STIX Two Text';-inkscape-font-specification:'STIX Two Text, Italic';font-variant-ligatures:normal;font-variant-caps:normal;font-variant-numeric:normal;font-variant-east-asian:normal;fill:#000000;stroke-width:3.2;stroke-linejoin:round;stroke-miterlimit:3.2;paint-order:stroke fill markers"
     x="209.94484"
     y="181.14101"
     id="text51-9"><tspan
       sodipodi:role="line"
       id="tspan51-9"
       style="font-style:italic;font-variant:normal;font-weight:normal;font-stretch:normal;font-size:29px;font-family:'STIX Two Text';-inkscape-font-specification:'STIX Two Text, Italic';font-variant-ligatures:normal;font-variant-caps:normal;font-variant-numeric:normal;font-variant-east-asian:normal;stroke-width:3.2"
       x="209.94484"
       y="181.14101">v</tspan></text>
  <text
     xml:space="preserve"
     style="font-style:italic;font-variant:normal;font-weight:normal;font-stretch:normal;font-size:29px;font-family:'STIX Two Text';-inkscape-font-specification:'STIX Two Text, Italic';font-variant-ligatures:normal;font-variant-caps:normal;font-variant-numeric:normal;font-variant-east-asian:normal;fill:#000000;stroke-width:3.2;stroke-linejoin:round;stroke-miterlimit:3.2;paint-order:stroke fill markers"
     x="292.4903"
     y="154.27617"
     id="text52"><tspan
       sodipodi:role="line"
       id="tspan52"
       style="stroke-width:3.2"
       x="292.4903"
       y="154.27617">M</tspan></text>
  <text
     xml:space="preserve"
     style="font-style:italic;font-variant:normal;font-weight:normal;font-stretch:normal;font-size:29px;font-family:'STIX Two Text';-inkscape-font-specification:'STIX Two Text, Italic';font-variant-ligatures:normal;font-variant-caps:normal;font-variant-numeric:normal;font-variant-east-asian:normal;fill:#000000;stroke-width:3.2;stroke-linejoin:round;stroke-miterlimit:3.2;paint-order:stroke fill markers"
     x="239.95898"
     y="53.084274"
     id="text53"><tspan
       sodipodi:role="line"
       id="tspan53"
       style="stroke-width:3.2"
       x="239.95898"
       y="53.084274">l</tspan></text>
  <text
     xml:space="preserve"
     style="font-style:italic;font-variant:normal;font-weight:normal;font-stretch:normal;font-size:29px;font-family:'STIX Two Text';-inkscape-font-specification:'STIX Two Text, Italic';font-variant-ligatures:normal;font-variant-caps:normal;font-variant-numeric:normal;font-variant-east-asian:normal;fill:#000000;stroke-width:3.2;stroke-linejoin:round;stroke-miterlimit:3.2;paint-order:stroke fill markers"
     x="178.02734"
     y="81.285294"
     id="text54"><tspan
       sodipodi:role="line"
       id="tspan54"
       style="stroke-width:3.2"
       x="178.02734"
       y="81.285294">α</tspan></text>
  <text
     xml:space="preserve"
     style="font-style:italic;font-variant:normal;font-weight:normal;font-stretch:normal;font-size:29px;font-family:'STIX Two Text';-inkscape-font-specification:'STIX Two Text, Italic';font-variant-ligatures:normal;font-variant-caps:normal;font-variant-numeric:normal;font-variant-east-asian:normal;fill:#000000;stroke-width:3.2;stroke-linejoin:round;stroke-miterlimit:3.2;paint-order:stroke fill markers"
     x="100.05981"
     y="110.03928"
     id="text55"><tspan
       sodipodi:role="line"
       id="tspan55"
       style="stroke-width:3.2"
       x="100.05981"
       y="110.03928">β</tspan></text>
  <text
     xml:space="preserve"
     style="font-style:normal;font-variant:normal;font-weight:normal;font-stretch:normal;font-size:24px;font-family:'STIX Two Text';-inkscape-font-specification:'STIX Two Text, Normal';font-variant-ligatures:normal;font-variant-caps:normal;font-variant-numeric:normal;font-variant-east-asian:normal;fill:#000000;stroke-width:3.2;stroke-linejoin:round;stroke-miterlimit:3.2;paint-order:stroke fill markers"
     x="103.40373"
     y="190.44193"
     id="text56"><tspan
       sodipodi:role="line"
       id="tspan56"
       style="font-style:normal;font-variant:normal;font-weight:normal;font-stretch:normal;font-size:24px;font-family:'STIX Two Text';-inkscape-font-specification:'STIX Two Text, Normal';font-variant-ligatures:normal;font-variant-caps:normal;font-variant-numeric:normal;font-variant-east-asian:normal;stroke-width:3.2"
       x="103.40373"
       y="190.44193">1</tspan></text>
  <text
     xml:space="preserve"
     style="font-style:normal;font-variant:normal;font-weight:normal;font-stretch:normal;font-size:24px;font-family:'STIX Two Text';-inkscape-font-specification:'STIX Two Text, Normal';font-variant-ligatures:normal;font-variant-caps:normal;font-variant-numeric:normal;font-variant-east-asian:normal;fill:#000000;stroke-width:3.2;stroke-linejoin:round;stroke-miterlimit:3.2;paint-order:stroke fill markers"
     x="223.26216"
     y="190.44193"
     id="text56-0"><tspan
       sodipodi:role="line"
       id="tspan56-0"
       style="font-style:normal;font-variant:normal;font-weight:normal;font-stretch:normal;font-size:24px;font-family:'STIX Two Text';-inkscape-font-specification:'STIX Two Text, Normal';font-variant-ligatures:normal;font-variant-caps:normal;font-variant-numeric:normal;font-variant-east-asian:normal;stroke-width:3.2"
       x="223.26216"
       y="190.44193">2</tspan></text>
</svg>
