<svg xmlns="http://www.w3.org/2000/svg" version="1.0" width="1311.636132pt" height="856.004800pt" viewBox="0 0 1311.636132 856.004800" preserveAspectRatio="xMidYMid meet">
<metadata>
Created by potrace 1.16, written by Peter Selinger 2001-2019
</metadata>
<g transform="translate(-27.244019,863.004800) scale(0.100000,-0.100000)" fill="#000000" stroke="none">
<path d="M517 8623 c-3 -5 -12 -35 -22 -68 -19 -67 -26 -75 -72 -75 -40 0 -86 -17 -78 -29 3 -5 30 -7 60 -4 47 5 55 3 55 -11 0 -11 -9 -16 -31 -16 -35 0 -36 -23 -2 -28 18 -3 20 -8 16 -41 -3 -24 -1 -41 7 -46 16 -10 22 -1 29 42 5 29 11 39 28 41 21 3 21 0 16 -54 -8 -76 16 -70 35 9 13 52 17 57 42 57 49 0 120 13 120 21 0 5 -31 9 -69 9 -64 0 -69 2 -64 20 4 16 15 20 72 22 83 4 86 22 4 26 l-62 3 20 55 c12 31 18 58 15 61 -14 15 -36 -11 -53 -64 -15 -44 -25 -59 -41 -61 -26 -4 -28 9 -7 68 8 23 15 49 15 56 0 15 -26 19 -33 7z m31 -180 c-2 -10 -13 -19 -26 -21 -17 -3 -22 2 -22 17 0 16 6 21 26 21 19 0 25 -5 22 -17z"/>
<path d="M1517 8561 c-160 -49 -206 -74 -194 -105 8 -20 48 -36 88 -36 44 0 37 -26 -23 -84 -45 -44 -53 -48 -56 -31 -6 29 -20 41 -33 28 -18 -18 8 -73 33 -73 35 0 148 112 148 146 0 22 -30 44 -60 44 -34 0 -60 9 -60 21 0 7 162 61 312 103 31 9 60 21 63 26 13 21 -67 7 -218 -39z"/>
<path d="M800 8548 c-29 -15 -48 -33 -54 -51 -14 -40 7 -56 88 -64 68 -6 68 -6 45 -25 -38 -30 -121 -68 -151 -68 -30 0 -37 -14 -12 -24 27 -10 47 -7 104 20 131 60 195 186 114 222 -38 18 -85 14 -134 -10z m124 -23 c10 -11 13 -22 7 -38 -9 -25 -42 -32 -109 -22 -53 8 -54 31 -2 57 43 22 84 23 104 3z"/>
<path d="M1147 8555 c-84 -17 -131 -43 -135 -75 -5 -31 21 -50 71 -50 21 0 47 -5 58 -10 17 -10 18 -13 5 -38 -16 -32 -68 -72 -92 -72 -9 0 -23 8 -30 18 -10 14 -15 15 -26 4 -21 -21 3 -47 50 -50 37 -3 46 1 91 46 78 74 69 117 -25 128 -73 9 -79 11 -64 29 17 21 99 43 199 54 45 5 88 14 94 20 16 16 -109 13 -196 -4z"/>
<path d="M10896 8249 c-46 -46 -58 -70 -33 -68 18 1 90 86 84 101 -2 8 -21 -4 -51 -33z"/>
<path d="M11632 8239 c-64 -42 -90 -73 -72 -84 6 -4 27 8 48 27 20 18 54 44 75 57 20 12 35 27 31 32 -8 14 -15 12 -82 -32z"/>
<path d="M11802 8240 c-34 -22 -62 -46 -62 -55 0 -8 3 -15 6 -15 7 0 112 67 149 94 19 15 19 15 -6 16 -14 0 -54 -18 -87 -40z"/>
<path d="M11949 8238 c-64 -44 -89 -71 -76 -84 4 -4 17 2 30 13 12 11 48 37 80 58 31 21 57 42 57 46 0 19 -31 7 -91 -33z"/>
<path d="M11045 8229 c-25 -23 -45 -45 -45 -50 0 -16 29 -9 39 9 6 10 26 30 45 43 38 26 45 39 21 39 -9 0 -36 -19 -60 -41z"/>
<path d="M11275 8232 c-27 -21 -51 -46 -53 -56 -4 -17 -2 -17 24 2 16 12 47 37 69 56 54 48 23 46 -40 -2z"/>
<path d="M12096 8229 c-46 -41 -59 -69 -31 -69 8 0 19 8 24 18 5 10 28 31 50 47 23 15 41 32 41 36 0 21 -41 6 -84 -32z"/>
<path d="M12325 8234 c-57 -30 -113 -80 -102 -91 5 -4 16 -2 25 5 9 6 45 29 79 49 35 21 63 44 63 51 0 17 -9 15 -65 -14z"/>
<path d="M12538 8219 c-48 -41 -59 -59 -35 -59 17 0 106 72 107 88 0 22 -24 12 -72 -29z"/>
<path d="M11453 8220 c-53 -30 -86 -66 -77 -82 4 -5 -149 -6 -370 -2 -249 5 -376 4 -376 -3 0 -13 189 -21 673 -30 l386 -6 -42 -31 c-24 -17 -79 -61 -122 -98 -44 -37 -160 -131 -259 -210 -453 -363 -519 -421 -808 -706 -217 -213 -228 -223 -257 -217 -71 15 -141 -37 -141 -105 0 -33 4 -40 34 -54 19 -9 46 -16 61 -16 20 0 28 -7 36 -30 14 -38 44 -42 36 -4 -4 20 2 33 26 54 36 32 42 86 14 117 -15 18 -4 30 216 240 235 225 379 353 550 491 52 43 206 167 342 277 136 110 265 215 287 233 23 17 45 32 49 32 5 0 9 -32 9 -71 0 -52 3 -70 13 -67 8 3 13 32 15 86 l3 82 504 0 c457 0 550 4 499 24 -9 3 -318 6 -687 6 l-672 1 36 32 c19 17 48 41 64 53 46 33 14 36 -42 4z m-1258 -1421 c4 -5 18 -14 31 -19 28 -11 32 -45 7 -72 -19 -21 -78 -24 -118 -6 -28 12 -31 25 -14 62 16 34 80 58 94 35z"/>
<path d="M3840 8210 c-17 -10 -15 -13 25 -26 42 -13 42 -38 0 -85 -54 -60 -46 -73 45 -77 84 -3 140 4 140 18 0 6 -40 10 -91 10 l-91 0 36 40 c20 22 36 49 36 60 0 20 -33 60 -49 60 -5 0 -15 2 -23 5 -7 3 -20 1 -28 -5z"/>
<path d="M612 8123 c-268 -3 -343 -6 -339 -16 3 -9 188 -13 833 -18 456 -3 861 -9 899 -13 71 -8 152 3 148 19 -2 5 -60 10 -130 11 -71 2 -297 8 -503 14 -206 5 -418 9 -470 8 -52 -2 -249 -4 -438 -5z"/>
<path d="M2150 8058 c0 -7 -5 -64 -10 -125 -45 -508 -52 -688 -60 -1503 -5 -518 -12 -831 -18 -860 -14 -59 -14 -60 2 -60 45 0 50 90 51 860 2 685 6 839 40 1295 30 391 30 405 12 405 -10 0 -17 -6 -17 -12z"/>
<path d="M3554 8034 c28 -157 35 -187 47 -199 8 -8 19 -11 25 -7 16 10 154 211 154 223 0 30 -41 -6 -94 -83 -33 -48 -62 -86 -64 -83 -2 2 -12 43 -21 92 -13 71 -20 88 -35 91 -17 4 -18 0 -12 -34z"/>
<path d="M2701 8014 c-45 -32 -54 -74 -61 -314 -8 -231 -27 -361 -70 -490 -21 -61 -19 -70 15 -70 18 0 26 -8 34 -32 22 -72 24 -115 25 -398 1 -274 2 -298 21 -335 19 -38 67 -76 80 -63 4 3 -6 25 -22 49 l-28 43 -1 305 c0 332 -9 396 -58 446 l-23 23 23 90 c37 146 54 288 55 453 0 206 7 246 50 281 33 28 33 28 8 28 -13 0 -35 -7 -48 -16z"/>
<path d="M4695 7939 c-102 -9 -165 -25 -165 -41 0 -10 88 -5 133 8 15 5 16 2 7 -18 -5 -13 -18 -67 -29 -121 -15 -83 -16 -100 -4 -104 8 -3 16 -4 18 -2 2 2 11 42 20 89 9 47 19 96 22 110 4 14 7 30 7 35 1 6 42 15 91 20 50 6 90 15 90 20 0 13 -78 15 -190 4z"/>
<path d="M1465 7896 c-33 -33 -61 -92 -85 -177 -11 -40 -25 -76 -32 -80 -10 -6 -10 -11 -1 -20 7 -7 8 -21 2 -42 -15 -54 -11 -127 8 -134 9 -4 53 6 97 22 106 37 121 44 108 57 -6 6 -40 -1 -98 -20 -49 -17 -91 -28 -93 -26 -3 2 3 40 13 85 14 64 27 95 69 156 52 77 89 165 80 190 -8 20 -42 15 -68 -11z m4 -88 c-12 -24 -24 -37 -26 -31 -3 7 6 31 18 54 30 53 37 34 8 -23z"/>
<path d="M3105 7868 c-11 -6 -37 -27 -57 -46 l-38 -36 0 42 c0 28 -4 42 -13 42 -9 0 -17 -25 -24 -77 -12 -92 -3 -113 30 -68 26 36 94 102 121 116 18 10 18 8 12 -45 -9 -67 -1 -70 55 -23 48 42 106 73 116 64 4 -4 1 -35 -6 -69 -9 -43 -9 -64 -2 -71 17 -17 27 1 41 69 21 106 -20 133 -113 74 -47 -29 -47 -29 -47 -7 0 42 -34 58 -75 35z"/>
<path d="M5885 7873 c-47 -12 -113 -102 -99 -137 13 -33 62 -27 99 14 l20 22 6 -24 c17 -60 11 -76 -44 -111 -58 -37 -104 -87 -113 -120 -3 -13 1 -40 8 -62 11 -35 17 -40 47 -43 23 -2 40 3 56 18 29 27 76 130 82 182 4 24 13 43 24 49 24 13 24 29 0 29 -26 0 -35 91 -12 131 10 19 12 31 6 38 -13 13 -55 20 -80 14z m45 -33 c0 -5 -6 -10 -13 -10 -8 0 -20 -12 -27 -26 -18 -32 -70 -71 -70 -52 0 21 37 70 62 84 28 16 48 18 48 4z m-20 -238 c0 -10 -16 -50 -35 -90 -25 -54 -39 -72 -54 -72 -15 0 -22 9 -27 37 -8 44 6 71 61 112 47 35 55 37 55 13z"/>
<path d="M11720 7838 c0 -67 12 -148 21 -148 5 0 9 43 9 95 0 78 -3 95 -15 95 -11 0 -15 -11 -15 -42z"/>
<path d="M5397 7826 c-4 -24 -13 -63 -21 -87 -8 -23 -13 -46 -10 -51 11 -17 31 -6 46 26 19 40 76 106 90 106 10 0 8 -21 -8 -92 -10 -43 13 -35 73 24 29 28 55 49 58 46 3 -3 0 -28 -6 -57 -12 -56 -7 -85 14 -79 12 5 22 48 33 146 8 65 -5 68 -67 16 l-42 -35 -13 30 c-16 37 -43 40 -85 10 l-29 -20 6 30 c6 26 3 31 -13 31 -16 0 -21 -9 -26 -44z"/>
<path d="M4157 7853 c-20 -19 4 -23 120 -21 90 2 128 7 131 16 3 9 -26 12 -120 12 -69 0 -128 -3 -131 -7z"/>
<path d="M5037 7793 c-19 -19 2 -23 95 -21 70 2 103 7 106 16 3 9 -21 12 -95 12 -55 0 -103 -3 -106 -7z"/>
<path d="M3578 7771 c-109 -6 -140 -12 -125 -27 3 -4 111 -3 238 2 171 7 233 12 237 22 4 13 -114 14 -350 3z"/>
<path d="M4832 7753 c-39 -16 -58 -134 -23 -152 28 -15 86 5 115 40 30 36 34 84 9 97 -24 13 -85 22 -101 15z m80 -39 c22 -13 -30 -79 -67 -86 -18 -3 -20 2 -18 41 1 24 8 48 15 52 11 7 51 3 70 -7z"/>
<path d="M4130 7736 c0 -23 205 -30 270 -10 39 13 -25 24 -142 24 -101 0 -128 -3 -128 -14z"/>
<path d="M419 7723 c-1 -4 -1 -30 0 -58 1 -27 -5 -70 -13 -94 -15 -42 -14 -61 4 -61 4 0 33 35 63 78 30 42 64 86 77 97 l22 20 -3 -69 c-3 -46 0 -71 7 -73 7 -2 33 14 58 36 26 23 56 46 67 51 18 10 19 7 19 -55 0 -76 9 -84 70 -66 45 13 95 50 69 51 -9 0 -36 -7 -59 -15 -23 -8 -43 -15 -45 -15 -1 0 -1 30 -1 68 1 65 0 67 -24 70 -16 2 -43 -9 -70 -27 l-45 -30 -3 27 c-6 62 -12 72 -39 72 -19 0 -39 -13 -68 -44 l-41 -45 -10 41 c-8 37 -32 64 -35 41z"/>
<path d="M3657 7638 c-19 -15 -43 -70 -86 -200 -62 -186 -37 -203 172 -115 26 10 47 26 47 33 0 18 6 19 -100 -21 -50 -19 -98 -35 -107 -35 -26 0 -5 58 42 116 68 83 108 213 69 228 -20 8 -17 8 -37 -6z m-2 -107 c-9 -28 -21 -53 -26 -56 -13 -8 -12 -4 12 59 27 69 37 66 14 -3z"/>
<path d="M11730 7550 c0 -77 3 -101 13 -97 8 2 12 31 12 97 0 66 -4 95 -12 98 -10 3 -13 -21 -13 -98z"/>
<path d="M1037 7504 c-4 -4 -7 -21 -7 -38 0 -20 -12 -46 -35 -75 -19 -24 -35 -48 -35 -52 0 -41 97 58 106 108 6 34 -13 72 -29 57z"/>
<path d="M11730 7361 c0 -26 -3 -69 -6 -95 -6 -38 -4 -46 10 -46 13 0 16 10 16 49 0 26 3 69 6 95 6 38 4 46 -10 46 -13 0 -16 -10 -16 -49z"/>
<path d="M11114 7188 c12 -111 57 -166 100 -123 15 15 16 12 16 -44 0 -53 -4 -67 -34 -108 -73 -104 -104 -219 -69 -261 16 -20 22 -22 45 -13 47 18 77 101 93 257 6 53 12 67 41 95 19 18 34 37 34 41 0 14 -27 9 -40 -7 -25 -30 -30 -13 -30 96 0 100 -2 110 -17 107 -12 -2 -20 -16 -24 -43 -6 -48 -36 -108 -49 -100 -14 9 -30 74 -30 123 0 36 -3 42 -21 42 -20 0 -21 -3 -15 -62z m106 -365 c-22 -127 -78 -213 -68 -103 5 46 65 186 76 176 2 -3 -1 -36 -8 -73z"/>
<path d="M532 7188 c-6 -13 -28 -66 -47 -118 -20 -52 -49 -119 -66 -147 -34 -62 -35 -63 -9 -63 17 0 59 73 108 190 11 25 11 25 11 -7 2 -84 33 -83 101 2 29 36 54 64 56 62 2 -2 -8 -50 -21 -107 -18 -71 -22 -107 -15 -114 17 -17 26 4 54 119 33 140 36 178 16 182 -14 3 -49 -34 -138 -146 -10 -13 -12 0 -10 74 3 74 0 90 -13 93 -8 1 -20 -8 -27 -20z m5 -110 c-3 -8 -6 -5 -6 6 -1 11 2 17 5 13 3 -3 4 -12 1 -19z"/>
<path d="M11715 7158 c-3 -13 -7 -58 -9 -101 -3 -50 -9 -83 -18 -90 -8 -7 -27 -32 -42 -56 -20 -31 -25 -46 -17 -54 8 -8 18 -4 35 12 l24 23 4 -79 c2 -43 -2 -148 -9 -233 -7 -85 -12 -194 -13 -242 0 -103 -5 -118 -37 -118 -32 0 -80 -25 -93 -49 -5 -11 -10 -40 -10 -64 0 -58 23 -79 95 -85 l55 -4 0 -77 0 -77 -327 4 c-181 2 -329 5 -331 7 -1 1 2 143 8 316 5 173 13 428 17 568 5 223 8 250 20 227 13 -25 43 -37 43 -17 0 5 -14 42 -31 82 -17 41 -33 82 -36 92 -6 20 -36 23 -50 5 -13 -17 -53 -137 -53 -160 0 -37 32 -17 55 35 l25 52 -6 -215 c-3 -118 -9 -323 -15 -455 -5 -132 -9 -306 -9 -386 l0 -146 -432 -7 c-407 -6 -794 -21 -828 -32 -13 -5 -13 -6 0 -14 9 -5 92 -5 185 0 94 5 373 12 620 16 l450 7 -3 -207 c-2 -128 0 -206 6 -206 13 0 22 51 22 130 0 37 3 115 7 173 l6 107 246 0 c135 0 284 -3 330 -7 l84 -6 -7 -81 c-3 -45 -9 -127 -12 -183 -7 -98 -8 -101 -24 -81 -25 31 -53 18 -40 -18 16 -40 50 -84 65 -84 8 0 24 18 35 40 12 23 36 58 55 79 31 34 36 51 14 51 -5 0 -24 -14 -44 -31 -19 -17 -35 -29 -35 -28 0 2 7 72 15 154 8 83 15 158 15 168 0 16 20 17 286 17 l285 0 -15 -22 c-23 -33 -21 -51 7 -45 19 5 25 0 40 -38 11 -25 28 -56 39 -70 23 -29 88 -65 118 -65 32 0 23 18 -17 35 -50 21 -71 41 -99 97 -30 58 -30 58 1 58 33 0 32 16 -2 33 -23 12 14 14 280 9 207 -3 307 -1 307 5 0 6 -10 13 -22 17 -13 3 -290 9 -615 12 l-593 7 0 81 c0 80 1 82 30 99 16 10 37 31 47 47 17 30 18 30 105 30 l88 0 -6 -98 c-10 -153 -29 -143 248 -135 192 5 235 9 249 22 10 11 20 51 29 119 l13 102 98 0 c106 0 129 -5 129 -26 0 -8 5 -14 10 -14 6 0 10 -6 10 -14 0 -23 18 -28 37 -11 10 9 29 24 42 34 20 15 22 20 12 39 -6 12 -30 31 -52 42 -35 18 -41 19 -54 6 -8 -8 -15 -20 -15 -27 0 -8 -12 -10 -37 -5 -21 3 -71 6 -110 6 l-73 0 0 36 c0 19 -5 44 -11 56 -10 19 -19 20 -257 17 -277 -3 -271 -2 -272 -76 l0 -43 -80 0 c-73 0 -80 2 -80 20 0 26 -40 51 -84 53 l-36 2 5 60 c5 50 35 580 35 609 0 5 9 -3 21 -18 21 -27 59 -36 59 -13 0 7 -9 18 -19 24 -10 7 -27 32 -36 57 -10 25 -22 46 -27 46 -6 0 -7 36 -3 95 5 67 4 95 -4 95 -6 0 -13 -10 -16 -22z m765 -957 l0 -38 -67 -6 c-38 -4 -139 -7 -225 -7 l-158 0 0 39 c0 49 -8 47 258 49 l192 2 0 -39z m-701 -25 c8 -10 7 -16 -4 -26 -8 -7 -12 -16 -9 -22 7 -10 -22 -58 -35 -58 -5 0 -11 9 -14 20 -8 30 -27 24 -33 -10 -6 -26 -11 -30 -40 -30 -19 0 -34 4 -34 9 0 5 -10 11 -22 13 -20 3 -23 9 -22 42 2 59 26 73 123 74 55 1 82 -3 90 -12z m701 -68 c0 -13 -5 -60 -12 -105 l-11 -83 -127 0 c-70 0 -168 -3 -218 -6 l-92 -7 0 106 0 106 113 4 c344 9 347 9 347 -15z"/>
<path d="M1251 7152 c-17 -31 -42 -178 -39 -223 3 -39 6 -44 30 -47 29 -4 84 39 128 100 l27 36 -5 -76 c-4 -68 -2 -79 17 -96 12 -11 27 -16 37 -12 15 6 15 9 -5 27 -24 22 -23 53 5 193 7 38 11 73 8 77 -12 20 -31 6 -57 -45 -28 -54 -131 -176 -148 -176 -13 0 11 158 37 243 7 23 -22 23 -35 -1z"/>
<path d="M12104 7134 c-6 -3 -53 -8 -105 -12 -106 -8 -125 -25 -33 -30 l61 -3 -19 -102 c-11 -56 -22 -114 -25 -129 -4 -21 -1 -28 10 -28 20 0 32 37 53 164 l18 104 44 7 c57 8 73 15 66 26 -5 9 -50 11 -70 3z"/>
<path d="M5804 6979 c55 -190 46 -326 -30 -425 -37 -49 -39 -60 -5 -49 32 10 87 108 101 179 20 109 -14 307 -55 315 -14 2 -17 -1 -11 -20z"/>
<path d="M4425 6943 c-64 -95 -112 -291 -85 -344 22 -43 83 -99 107 -99 31 0 29 12 -6 33 -16 9 -39 33 -52 53 -18 30 -21 45 -16 97 6 74 36 164 77 230 17 27 30 53 30 58 0 22 -31 6 -55 -28z"/>
<path d="M3748 6893 c-8 -10 -45 -65 -84 -123 l-69 -104 -14 107 c-10 83 -17 107 -29 107 -12 0 -14 -14 -7 -97 10 -143 17 -178 37 -178 15 0 208 274 208 296 0 15 -26 10 -42 -8z"/>
<path d="M12081 6874 c-35 -29 -42 -81 -15 -108 46 -46 145 6 147 77 1 45 -12 57 -65 57 -25 0 -46 -8 -67 -26z m99 -19 c0 -47 -46 -86 -85 -71 -23 8 -18 53 7 70 29 20 78 21 78 1z"/>
<path d="M5484 6869 c-8 -14 -84 -227 -91 -257 -5 -19 -2 -23 12 -20 12 2 29 31 51 88 23 61 33 77 33 57 1 -16 12 -39 27 -53 31 -32 65 -26 112 19 17 17 32 29 32 26 0 -2 -9 -33 -20 -67 -26 -83 -26 -94 3 -90 16 2 23 11 25 33 2 17 14 68 28 115 29 102 31 130 6 130 -10 0 -27 -18 -41 -45 -13 -25 -42 -61 -64 -81 -36 -33 -41 -35 -56 -20 -11 12 -17 40 -19 96 -3 58 -8 80 -17 80 -8 0 -17 -5 -21 -11z"/>
<path d="M6081 6858 c-8 -23 -27 -123 -34 -188 -12 -102 54 -109 127 -14 l35 45 3 -47 c3 -51 22 -72 54 -60 18 7 17 8 -5 25 -23 18 -23 19 -11 104 18 127 -1 144 -49 45 -31 -65 -94 -148 -113 -148 -12 0 -4 94 16 180 7 30 11 61 9 68 -7 19 -23 14 -32 -10z"/>
<path d="M810 6822 c0 -15 -11 -43 -25 -62 -44 -60 -27 -84 20 -28 33 39 47 75 40 99 -10 30 -35 23 -35 -9z"/>
<path d="M4616 6773 c-5 -29 -18 -147 -17 -160 1 -23 30 -10 41 18 16 38 75 99 95 99 18 0 20 -51 5 -81 -8 -14 -8 -21 2 -24 8 -3 41 22 75 55 74 72 99 78 88 23 -12 -60 -11 -67 7 -71 13 -2 18 7 23 40 17 110 -9 131 -92 75 -49 -33 -50 -33 -59 -13 -13 29 -57 32 -99 6 l-34 -21 -3 37 c-4 45 -24 56 -32 17z"/>
<path d="M5136 6745 c-7 -35 -7 -35 -66 -35 -33 0 -60 -4 -60 -9 0 -13 27 -21 71 -21 40 0 40 0 33 -36 -6 -31 -4 -36 12 -32 10 2 21 16 26 35 6 24 15 32 33 35 31 4 34 22 4 26 -18 3 -20 8 -15 38 6 29 4 34 -12 34 -15 0 -22 -9 -26 -35z"/>
<path d="M3287 6723 c-45 -25 -48 -26 -60 -8 -14 18 -48 18 -90 0 -12 -5 -17 -3 -15 6 2 7 -5 15 -14 17 -13 2 -18 -3 -18 -21 0 -13 -9 -46 -21 -71 -22 -50 -20 -76 5 -76 9 0 20 17 27 41 13 41 59 89 86 89 15 0 15 -3 1 -85 -6 -35 27 -28 45 10 18 37 100 98 127 93 23 -5 23 -41 -1 -92 -22 -48 -21 -63 4 -53 36 14 63 137 35 165 -19 19 -59 14 -111 -15z"/>
<path d="M3862 6738 c5 -15 258 -24 258 -9 0 15 -41 21 -153 21 -83 0 -108 -3 -105 -12z"/>
<path d="M3895 6661 c-4 -7 -5 -14 -4 -15 9 -8 197 -13 208 -6 24 14 -8 23 -104 28 -65 3 -94 1 -100 -7z"/>
<path d="M353 6514 c-7 -3 -13 -9 -13 -13 0 -5 345 -11 768 -15 422 -3 806 -9 855 -12 73 -6 87 -4 87 8 0 12 -19 17 -82 22 -109 8 -1599 18 -1615 10z"/>
<path d="M10300 6450 c0 -13 60 -80 71 -80 15 0 10 16 -13 54 -21 32 -58 49 -58 26z"/>
<path d="M1523 6285 c-25 -10 -33 -20 -33 -39 0 -34 20 -76 37 -76 16 0 16 5 4 48 -9 30 -8 34 15 42 69 27 172 -7 146 -47 -4 -5 -28 -24 -54 -41 -94 -64 -158 -166 -124 -200 17 -17 18 -15 30 39 8 35 76 111 131 146 47 29 65 64 48 92 -28 46 -134 65 -200 36z"/>
<path d="M13060 6285 c-7 -8 -22 -40 -35 -70 l-22 -56 -7 41 c-4 28 -11 40 -23 40 -14 0 -15 -9 -10 -65 10 -109 47 -143 67 -62 15 57 50 146 61 153 14 8 10 34 -5 34 -7 0 -19 -7 -26 -15z"/>
<path d="M10512 6248 c6 -17 80 -40 92 -28 6 6 -3 15 -27 25 -43 18 -70 19 -65 3z"/>
<path d="M530 6225 c0 -12 15 -15 76 -15 l76 0 -7 -56 c-3 -30 -15 -86 -26 -124 -23 -86 -23 -90 -1 -90 16 0 23 17 40 98 12 53 24 114 28 134 l6 37 68 -2 c69 -2 87 3 75 22 -4 7 -65 11 -171 11 -139 0 -164 -2 -164 -15z"/>
<path d="M10803 6157 c-9 -15 16 -25 89 -32 66 -7 89 -3 75 12 -13 12 -157 31 -164 20z"/>
<path d="M11240 6075 c0 -12 13 -15 60 -15 47 0 60 3 60 15 0 12 -13 15 -60 15 -47 0 -60 -3 -60 -15z"/>
<path d="M1157 6023 c-18 -17 -1 -23 68 -23 70 0 95 10 59 24 -21 8 -119 8 -127 -1z"/>
<path d="M5903 5993 c-7 -2 -13 -11 -13 -19 0 -11 8 -13 34 -9 52 10 51 -9 -4 -55 -47 -39 -60 -63 -42 -73 4 -3 49 -8 101 -12 75 -5 92 -4 89 7 -3 8 -33 17 -77 23 l-73 10 41 33 c42 34 53 66 29 90 -12 12 -62 15 -85 5z"/>
<path d="M6198 5964 c-4 -3 6 -28 20 -56 66 -127 23 -417 -88 -591 -34 -55 -35 -57 -16 -57 19 0 79 93 110 171 45 115 60 188 60 304 1 103 -1 114 -29 170 -29 56 -44 73 -57 59z"/>
<path d="M5781 5931 c-7 -5 -44 -69 -81 -142 -77 -152 -73 -151 -106 -10 -21 87 -41 134 -56 128 -7 -2 -11 -11 -10 -18 2 -8 15 -61 29 -118 27 -108 57 -159 85 -148 20 7 171 298 160 309 -4 4 -13 3 -21 -1z"/>
<path d="M4436 5877 c-78 -81 -137 -244 -139 -382 -2 -78 17 -122 65 -158 41 -31 44 -14 7 33 -33 41 -34 44 -33 134 1 145 63 299 150 375 40 36 42 41 12 41 -12 0 -39 -18 -62 -43z"/>
<path d="M759 5887 c-38 -30 -52 -105 -25 -142 34 -47 119 -5 135 68 13 54 -5 81 -54 84 -22 2 -47 -3 -56 -10z m74 -57 c-1 -24 -10 -42 -28 -57 -33 -29 -45 -22 -45 23 0 52 16 76 48 72 24 -3 27 -7 25 -38z"/>
<path d="M2521 5854 c-26 -33 -29 -53 -35 -264 -6 -195 -23 -285 -75 -388 -28 -55 -29 -62 -15 -76 8 -9 19 -16 23 -16 12 0 31 -48 42 -104 6 -28 14 -159 18 -291 9 -256 16 -296 62 -328 33 -24 39 -12 16 34 -18 36 -21 70 -28 275 -10 296 -24 376 -76 436 -14 15 -12 26 20 105 50 124 59 184 58 367 0 179 8 233 40 259 21 17 21 17 -4 17 -16 0 -34 -10 -46 -26z"/>
<path d="M1551 5831 c-19 -12 -6 -43 16 -39 10 2 18 12 18 22 0 22 -14 29 -34 17z"/>
<path d="M3060 5759 c-168 -33 -231 -51 -227 -67 2 -10 10 -15 18 -13 101 27 130 33 135 29 2 -3 -7 -58 -21 -122 -31 -144 -31 -156 -5 -156 15 0 20 7 20 25 0 37 48 257 58 267 5 5 57 12 115 15 59 3 107 9 107 13 0 20 -116 25 -200 9z"/>
<path d="M4617 5706 c-94 -77 -86 -166 13 -132 l40 14 0 -52 c0 -53 0 -53 -50 -76 -27 -13 -59 -34 -71 -47 -68 -71 29 -185 131 -154 49 14 55 34 43 131 -9 64 -8 72 9 81 21 11 15 31 -6 23 -15 -6 -26 35 -26 92 0 23 7 38 25 52 31 25 31 32 0 66 -30 33 -70 33 -108 2z m78 -17 c4 -5 0 -18 -9 -28 -9 -10 -16 -22 -16 -28 0 -12 -71 -43 -82 -36 -12 7 19 59 48 82 29 23 49 27 59 10z m-11 -270 c3 -17 6 -53 6 -79 0 -50 -9 -60 -52 -60 -25 0 -78 52 -78 77 0 22 31 53 75 76 41 22 42 21 49 -14z"/>
<path d="M4060 5692 c-8 -2 -31 -20 -51 -39 l-36 -35 -7 26 c-9 35 -40 34 -77 -3 -29 -29 -29 -29 -29 -6 0 26 -17 42 -30 29 -4 -5 -10 -53 -14 -106 -6 -85 -4 -98 9 -98 9 0 17 6 19 13 19 60 41 108 62 133 l25 29 -3 -54 c-4 -67 10 -74 45 -23 15 21 43 53 62 72 l35 34 0 -73 c0 -64 2 -72 18 -69 13 3 18 15 20 63 5 91 -8 120 -48 107z"/>
<path d="M5087 5663 c-4 -3 -7 -21 -7 -39 0 -33 0 -33 -57 -36 -81 -4 -85 -28 -4 -28 l61 0 0 -50 c0 -38 4 -50 15 -50 11 0 15 12 15 49 0 50 0 50 37 53 53 4 56 28 3 28 l-42 0 7 40 c5 31 4 40 -7 40 -8 0 -18 -3 -21 -7z"/>
<path d="M13040 5641 c0 -5 14 -19 30 -31 41 -29 60 -69 60 -125 0 -47 -34 -129 -64 -154 -17 -14 -22 -41 -7 -41 18 0 79 78 96 123 20 53 16 117 -10 168 -22 43 -105 90 -105 60z"/>
<path d="M3446 5629 c-61 -9 -74 -14 -63 -25 10 -11 222 10 222 21 0 13 -85 15 -159 4z"/>
<path d="M12276 5583 c-9 -26 -16 -79 -16 -121 0 -68 2 -76 29 -103 20 -19 40 -29 60 -29 40 0 39 13 -1 31 -51 22 -64 59 -50 144 6 38 14 82 18 98 5 20 3 27 -9 27 -9 0 -21 -19 -31 -47z"/>
<path d="M5540 5573 c-70 -7 -100 -14 -100 -25 0 -7 40 -8 132 -3 l131 7 -21 -34 c-11 -18 -30 -69 -42 -113 -11 -44 -26 -91 -33 -105 -7 -14 -12 -54 -12 -90 0 -63 1 -65 25 -63 14 1 52 13 84 28 44 19 56 29 48 37 -9 9 -26 6 -67 -11 -31 -13 -58 -22 -60 -20 -13 13 22 110 56 154 49 65 79 131 79 177 l0 37 107 3 c74 2 108 7 111 16 3 9 -41 12 -200 10 -111 0 -219 -3 -238 -5z m161 -140 c-25 -46 -28 -19 -4 35 11 26 17 32 20 20 2 -9 -5 -34 -16 -55z"/>
<path d="M12557 5573 c-14 -13 -6 -42 15 -57 l22 -16 -24 -25 c-16 -17 -33 -25 -50 -23 -22 3 -25 7 -22 41 3 44 -16 57 -54 37 -29 -16 -32 -34 -4 -27 17 4 20 0 20 -29 0 -36 20 -54 62 -54 32 0 85 34 93 60 4 13 12 19 21 16 18 -7 45 4 38 15 -3 5 -14 9 -25 9 -10 0 -19 5 -19 10 0 27 -56 61 -73 43z"/>
<path d="M376 5531 c-9 -14 155 -18 903 -17 570 1 725 4 728 14 4 9 -163 12 -811 12 -448 0 -817 -4 -820 -9z"/>
<path d="M3377 5514 c-17 -18 14 -24 114 -24 90 0 109 3 109 15 0 12 -19 15 -108 15 -60 0 -112 -3 -115 -6z"/>
<path d="M12949 5510 c-11 -7 -17 -25 -18 -60 -1 -44 2 -52 23 -62 32 -14 67 -5 105 28 41 34 43 80 5 94 -32 13 -94 12 -115 0z m107 -32 c4 -6 -6 -23 -25 -40 -50 -44 -76 -36 -65 21 6 28 10 31 45 31 21 0 41 -5 45 -12z"/>
<path d="M3130 5493 c-33 -12 -50 -37 -50 -74 0 -46 27 -69 81 -69 76 0 138 92 89 132 -22 17 -86 23 -120 11z m98 -46 c5 -27 -36 -67 -69 -67 -46 0 -58 36 -26 78 16 20 91 11 95 -11z"/>
<path d="M12717 5483 c-18 -18 0 -23 76 -23 74 1 80 2 63 15 -20 15 -126 21 -139 8z"/>
<path d="M12707 5434 c-16 -16 9 -24 73 -24 69 0 99 13 57 24 -30 8 -122 8 -130 0z"/>
<path d="M11865 5223 c-25 -25 -37 -63 -29 -97 7 -35 41 -76 62 -76 12 0 12 -4 -2 -22 -59 -82 -85 -173 -68 -233 7 -26 13 -30 43 -30 31 0 36 4 62 54 23 47 27 67 27 140 0 73 3 88 22 108 l21 23 -25 0 c-28 0 -42 27 -27 51 16 26 10 78 -10 89 -28 15 -57 12 -76 -7z m58 -45 c-2 -37 -33 -83 -44 -66 -21 33 2 101 31 95 9 -2 14 -13 13 -29z m3 -244 c-7 -66 -37 -144 -56 -144 -19 0 -11 99 11 143 44 87 54 87 45 1z"/>
<path d="M11717 5164 c-24 -35 -33 -41 -35 -27 -9 57 -13 64 -35 61 -13 -2 -30 -18 -42 -40 l-21 -38 -17 35 c-17 35 -42 54 -54 41 -4 -4 1 -20 11 -37 10 -17 21 -54 25 -82 3 -28 11 -52 18 -54 6 -2 24 23 39 56 15 34 30 61 35 61 4 0 9 -17 11 -37 2 -30 8 -39 24 -41 16 -2 27 9 49 50 l29 52 19 -58 c17 -52 39 -77 53 -63 11 11 -47 167 -62 167 -8 0 -29 -21 -47 -46z"/>
<path d="M4796 4853 c-23 -49 -66 -113 -77 -113 -4 0 -9 30 -11 67 -2 52 -7 68 -19 71 -12 2 -21 -22 -43 -113 -14 -64 -25 -119 -22 -124 3 -4 -90 -11 -207 -15 -301 -11 -379 -18 -385 -35 -4 -11 10 -13 79 -8 46 4 225 10 397 13 220 5 312 10 309 18 -2 6 -38 12 -86 14 -70 2 -82 5 -77 18 3 9 9 34 12 55 6 37 8 38 24 24 24 -21 40 -19 72 12 l28 27 0 -57 c0 -39 4 -57 13 -57 8 0 18 39 30 113 21 135 21 127 -1 127 -11 0 -25 -14 -36 -37z"/>
<path d="M3986 4828 c-5 -18 -28 -140 -30 -157 -3 -34 24 -17 52 31 52 93 90 103 78 22 -5 -39 -3 -44 14 -44 10 0 21 9 25 19 3 11 25 37 48 58 40 36 42 37 45 15 2 -13 -1 -37 -7 -54 -14 -39 -14 -68 -1 -68 14 0 38 52 45 96 12 77 -37 95 -104 38 -30 -25 -31 -25 -31 -5 0 32 -34 45 -69 26 -28 -14 -30 -14 -33 7 -3 25 -26 36 -32 16z"/>
<path d="M4414 4795 c-7 -19 -14 -39 -14 -45 0 -6 -25 -10 -60 -10 -47 0 -60 -3 -60 -15 0 -12 13 -15 55 -15 41 0 55 -4 55 -14 0 -24 21 -30 27 -7 4 17 13 21 43 21 21 0 45 3 54 6 28 11 6 24 -41 24 -39 0 -44 2 -38 18 26 68 7 103 -21 37z"/>
<path d="M2994 4728 c4 -13 16 -77 27 -143 24 -135 31 -155 59 -155 25 0 38 21 95 150 28 62 59 115 76 131 30 26 29 39 -2 39 -26 0 -61 -52 -114 -173 -31 -68 -51 -104 -56 -95 -3 7 -14 58 -23 114 -18 120 -30 154 -52 154 -12 0 -15 -6 -10 -22z"/>
<path d="M5082 4728 c-11 -14 -37 -102 -46 -160 -5 -26 -2 -40 9 -52 25 -25 51 -19 94 19 38 34 40 35 43 14 5 -37 30 -45 98 -31 76 16 110 31 110 49 0 16 7 17 -68 -7 -88 -28 -102 -26 -102 8 0 16 7 52 16 81 15 51 10 78 -11 63 -6 -4 -21 -29 -34 -55 -26 -51 -93 -127 -112 -127 -16 0 -5 73 21 147 11 31 20 59 20 60 0 9 -29 1 -38 -9z"/>
<path d="M13139 4634 c-11 -25 -25 -85 -32 -133 -10 -79 -9 -92 6 -115 10 -14 23 -26 29 -26 6 0 28 18 49 41 l38 41 3 -28 c4 -35 26 -48 69 -40 38 7 98 50 86 62 -4 4 -28 -2 -52 -14 -25 -12 -50 -22 -55 -22 -16 0 -11 60 10 130 24 79 24 80 3 80 -12 0 -31 -24 -55 -73 -21 -39 -51 -88 -68 -107 l-31 -35 4 80 c3 44 13 100 22 125 28 77 29 80 11 80 -11 0 -25 -18 -37 -46z"/>
<path d="M3377 4644 c-16 -17 11 -24 89 -24 78 0 106 10 68 24 -21 8 -149 8 -157 0z"/>
<path d="M3391 4561 c-25 -3 -46 -12 -49 -19 -4 -11 12 -13 84 -7 95 8 108 11 99 26 -7 10 -62 10 -134 0z"/>
<path d="M4505 4530 c-28 -29 -30 -30 -37 -10 -10 26 -49 26 -74 -1 -18 -20 -18 -20 -26 1 -14 39 -33 15 -40 -51 -12 -100 6 -119 41 -45 12 24 30 51 41 61 20 18 20 17 20 -23 0 -57 18 -54 66 9 l39 50 5 -63 c3 -41 9 -63 18 -63 6 0 12 3 12 8 0 4 0 41 0 82 0 66 -2 75 -18 75 -10 0 -31 -14 -47 -30z"/>
<path d="M12599 4366 c-2 -2 -125 -7 -274 -10 l-270 -5 -3 -50 -3 -49 -30 15 c-27 13 -37 14 -81 2 -67 -18 -78 -36 -48 -77 l23 -31 -22 -41 c-11 -22 -21 -44 -21 -49 0 -5 20 -16 44 -25 25 -9 50 -24 56 -32 7 -7 27 -14 44 -14 20 0 36 -7 44 -20 12 -19 23 -20 280 -20 147 0 290 3 317 6 l50 6 -3 191 c-2 134 -7 194 -15 199 -12 8 -81 11 -88 4z m61 -196 l0 -169 -32 -6 c-18 -3 -148 -5 -288 -3 l-255 3 -3 158 c-2 120 0 159 10 162 7 3 128 9 268 13 140 5 265 10 278 10 22 2 22 2 22 -168z m-641 54 c17 -22 21 -41 21 -110 0 -97 -1 -98 -78 -56 -48 26 -51 30 -37 48 19 26 19 83 -1 105 -15 17 -14 19 17 28 51 14 56 13 78 -15z"/>
<path d="M13104 4238 c-4 -6 3 -20 17 -31 23 -19 22 -19 -171 -16 -131 2 -195 -1 -197 -8 -7 -19 37 -23 242 -23 l199 0 -38 -39 c-25 -25 -37 -45 -33 -55 9 -22 28 -20 34 3 2 10 18 28 34 40 44 32 39 63 -17 106 -51 38 -59 41 -70 23z"/>
<path d="M12770 3953 c-102 -2 -833 -7 -1624 -11 -1228 -6 -1440 -9 -1444 -21 -4 -12 214 -13 1569 -6 1630 8 1936 13 1932 30 -3 11 -126 13 -433 8z"/>
<path d="M5890 3805 c0 -10 10 -15 30 -15 57 0 53 -48 -10 -124 -64 -78 -45 -119 61 -133 56 -8 50 13 -8 30 -28 8 -49 21 -51 30 -2 9 15 39 37 67 65 83 53 160 -25 160 -24 0 -34 -5 -34 -15z"/>
<path d="M5210 3765 c0 -2 10 -24 22 -47 29 -55 31 -168 4 -248 -21 -62 -69 -162 -98 -202 l-19 -28 -347 -1 c-376 -1 -532 -8 -532 -24 0 -12 -8 -12 770 -3 333 4 604 11 603 15 -4 17 -55 21 -245 22 l-197 1 39 73 c59 111 83 203 78 297 -4 62 -10 86 -29 114 -20 30 -49 48 -49 31z"/>
<path d="M3940 3721 c-5 -11 -10 -71 -10 -134 0 -62 -4 -160 -9 -218 -6 -57 -15 -209 -22 -336 -9 -186 -9 -236 1 -248 17 -21 100 -21 100 0 0 11 -11 15 -37 15 l-36 0 7 178 c3 97 13 267 21 377 8 110 15 236 15 281 l0 81 30 -5 c23 -3 30 0 30 12 0 25 -76 22 -90 -3z"/>
<path d="M4227 3708 c-45 -59 -79 -173 -85 -280 -4 -80 -2 -102 12 -123 9 -14 23 -25 31 -25 19 0 19 0 -1 40 -32 64 9 282 70 371 23 34 25 49 5 49 -4 0 -19 -15 -32 -32z"/>
<path d="M5695 3693 c-48 -12 -36 -23 24 -23 l64 0 -6 -112 c-4 -62 -13 -160 -22 -218 -8 -58 -15 -168 -15 -245 0 -77 -3 -170 -6 -206 -7 -66 -7 -66 -42 -75 -20 -5 -38 -15 -40 -23 -4 -11 5 -12 44 -7 27 4 53 12 58 17 5 4 13 113 17 241 4 128 15 278 24 333 8 55 18 144 22 199 6 89 4 100 -12 112 -18 14 -69 17 -110 7z"/>
<path d="M3086 3659 c-58 -69 -132 -217 -174 -349 -27 -83 -46 -229 -39 -293 7 -58 45 -127 81 -147 39 -20 43 -5 8 34 -46 52 -56 95 -49 209 10 156 72 334 171 487 25 39 46 75 46 80 0 19 -18 10 -44 -21z"/>
<path d="M6600 3669 c0 -6 11 -25 24 -42 77 -103 108 -215 110 -392 1 -174 -22 -254 -95 -327 -27 -27 -49 -51 -49 -53 0 -3 8 -5 18 -5 30 0 87 55 114 111 36 76 48 143 48 278 0 131 -21 233 -64 320 -39 77 -106 147 -106 110z"/>
<path d="M5390 3608 c-15 -35 -40 -173 -40 -217 0 -32 5 -44 24 -56 22 -15 27 -15 54 -1 17 9 44 32 61 53 31 38 31 38 31 11 0 -40 21 -78 42 -78 20 0 24 15 7 26 -8 5 -10 30 -5 83 11 128 11 134 0 138 -6 2 -27 -30 -47 -71 -22 -44 -54 -89 -79 -112 l-43 -39 -3 48 c-3 41 20 184 35 224 9 23 -27 14 -37 -9z"/>
<path d="M4958 3582 c-28 -28 -78 -146 -78 -182 0 -42 29 -17 63 53 29 59 36 67 36 44 2 -71 40 -85 96 -36 l35 31 -6 -69 c-5 -50 -3 -72 5 -78 19 -11 24 1 32 68 4 34 11 90 15 125 9 79 -8 83 -51 11 -16 -28 -42 -60 -57 -71 l-28 -19 0 63 c0 56 -11 89 -29 88 -4 0 -18 -13 -33 -28z"/>
<path d="M6346 3515 c-15 -31 -43 -68 -66 -86 -46 -37 -51 -54 -15 -45 23 6 25 4 19 -19 -11 -44 -10 -60 5 -60 8 0 23 27 36 65 12 36 36 87 53 114 37 57 41 86 13 86 -14 0 -27 -16 -45 -55z"/>
<path d="M4306 3548 c-2 -7 -9 -40 -16 -73 -6 -33 -14 -70 -17 -82 -8 -33 23 -30 41 5 8 15 30 43 50 61 38 37 46 29 26 -24 -8 -20 -7 -27 6 -32 10 -4 33 11 66 43 l51 49 -7 -62 c-4 -50 -3 -63 8 -63 17 0 36 51 36 96 0 70 -21 81 -76 39 -33 -25 -33 -25 -36 -3 -4 31 -34 34 -69 9 l-28 -21 -3 32 c-3 32 -25 50 -32 26z"/>
<path d="M4655 3480 c-6 -27 -10 -30 -46 -30 -28 0 -39 -4 -39 -15 0 -10 11 -15 35 -15 35 0 35 0 29 -40 -5 -33 -4 -40 9 -40 10 0 20 15 27 40 10 37 13 40 45 40 24 0 35 5 35 15 0 10 -10 15 -30 15 -27 0 -30 3 -30 30 0 19 -5 30 -14 30 -8 0 -17 -13 -21 -30z"/>
<path d="M1172 3479 c-25 -9 -25 -38 -1 -29 8 2 54 6 102 8 83 3 88 2 79 -15 -13 -25 -82 -295 -82 -322 0 -11 6 -21 14 -21 8 0 20 25 30 68 10 37 31 117 48 179 l30 112 124 3 c74 2 124 7 124 13 0 13 -437 17 -468 4z"/>
<path d="M2410 3345 c-6 -14 -10 -38 -10 -53 -1 -15 -7 -45 -15 -67 -23 -66 10 -75 40 -11 19 40 90 111 98 99 4 -6 -3 -27 -14 -48 -30 -56 -9 -70 35 -22 32 35 141 95 153 84 3 -3 0 -36 -6 -73 -8 -46 -9 -70 -2 -77 14 -14 21 -6 32 40 14 63 11 130 -7 137 -20 8 -59 -2 -106 -25 -46 -23 -45 -23 -51 1 -7 28 -49 26 -86 -6 l-31 -26 0 31 c0 39 -17 49 -30 16z"/>
<path d="M3158 3347 c-31 -26 -48 -57 -48 -87 0 -26 43 -45 70 -30 10 5 21 10 24 10 3 0 6 -31 6 -68 l0 -68 -44 -21 c-113 -55 -175 -161 -136 -234 14 -26 70 -25 104 2 32 25 72 101 90 172 11 45 18 54 50 70 41 20 40 39 -2 31 l-27 -6 3 79 c2 55 8 81 19 90 9 7 12 19 8 32 -17 54 -71 67 -117 28z m77 -17 c8 -12 -41 -67 -66 -73 -26 -7 -25 22 2 57 21 26 53 34 64 16z m-47 -307 c-23 -84 -76 -163 -109 -163 -36 0 -31 79 9 124 21 23 92 76 103 76 4 0 3 -17 -3 -37z"/>
<path d="M3617 3354 c-4 -4 -7 -22 -7 -41 0 -33 0 -33 -56 -33 -71 0 -70 -24 1 -28 l48 -3 -6 -44 c-4 -27 -2 -47 4 -51 15 -9 26 10 33 57 6 36 8 38 48 41 58 4 63 28 6 28 -43 0 -43 0 -43 37 0 34 -13 52 -28 37z"/>
<path d="M7007 3354 c-16 -17 11 -24 88 -24 86 0 115 5 115 21 0 10 -193 13 -203 3z"/>
<path d="M1994 3338 c-10 -15 30 -23 118 -23 76 0 111 7 97 19 -9 8 -210 12 -215 4z"/>
<path d="M1967 3283 c-19 -18 1 -23 93 -23 82 0 100 3 100 15 0 12 -17 15 -93 15 -52 0 -97 -3 -100 -7z"/>
<path d="M5990 3246 c0 -18 30 -30 43 -17 5 5 6 14 3 20 -10 16 -46 13 -46 -3z"/>
<path d="M7125 3253 c-112 -8 -145 -15 -145 -30 0 -12 8 -14 45 -9 24 4 87 7 140 7 53 0 95 5 95 10 0 17 -64 27 -135 22z"/>
<path d="M6170 3235 c0 -13 22 -15 157 -13 114 2 157 6 161 16 3 9 -33 12 -157 12 -138 0 -161 -2 -161 -15z"/>
<path d="M6328 3184 c-30 -16 -60 -66 -77 -131 -6 -22 -18 -44 -27 -47 -12 -5 -13 -10 -6 -19 6 -7 12 -35 14 -62 3 -48 4 -50 36 -53 35 -4 142 40 142 57 0 15 -12 14 -70 -9 -28 -11 -55 -20 -60 -20 -6 0 -10 19 -10 43 0 38 5 48 46 87 69 68 96 127 69 154 -20 19 -22 19 -57 0z m13 -78 c-12 -19 -29 -40 -38 -47 -15 -13 -16 -11 -9 16 4 17 20 46 34 65 21 28 27 31 30 17 2 -9 -6 -32 -17 -51z"/>
<path d="M1496 3150 c-47 -15 -66 -39 -66 -85 0 -52 23 -76 82 -82 129 -13 182 156 53 171 -22 3 -53 1 -69 -4z m85 -30 c29 -16 25 -64 -7 -89 -33 -26 -65 -27 -95 -2 -57 46 34 127 102 91z"/>
<path d="M4661 3013 c-11 -60 -21 -114 -21 -120 0 -30 32 -8 105 72 42 47 79 84 81 83 2 -2 -3 -27 -10 -55 -23 -85 -3 -85 101 2 43 36 81 65 84 65 8 0 -5 -63 -20 -103 -10 -27 0 -44 18 -33 14 9 41 96 41 133 0 60 -43 52 -132 -26 -25 -23 -48 -41 -50 -41 -1 0 -3 21 -3 47 0 73 -24 70 -103 -13 -65 -68 -65 -68 -58 -34 18 88 19 130 4 130 -11 0 -21 -28 -37 -107z"/>
<path d="M3387 2393 c-64 -68 -98 -202 -132 -532 -32 -310 -33 -431 -4 -477 35 -58 60 -39 29 22 -24 46 -24 74 -5 280 44 475 74 624 136 691 15 15 19 27 13 33 -7 7 -19 1 -37 -17z"/>
<path d="M7607 2414 c-13 -13 5 -24 39 -24 30 0 34 -3 34 -27 0 -18 -13 -38 -41 -64 -24 -22 -39 -44 -36 -52 3 -8 36 -21 74 -30 77 -19 93 -21 93 -9 0 12 -44 31 -91 38 l-40 7 40 40 c46 45 53 83 23 110 -18 17 -82 23 -95 11z"/>
<path d="M8650 2393 c0 -10 7 -27 15 -37 8 -10 25 -49 37 -85 21 -60 23 -83 23 -256 -1 -170 -4 -203 -29 -315 -34 -152 -78 -294 -118 -378 -16 -35 -27 -66 -24 -69 23 -23 64 52 115 207 118 363 133 705 39 881 -33 64 -58 86 -58 52z"/>
<path d="M4422 2318 c-22 -29 -48 -617 -34 -798 l7 -95 49 0 c31 0 51 5 54 13 2 8 -8 12 -31 12 l-34 0 -6 68 c-14 146 -4 556 19 735 5 37 10 47 25 47 23 0 25 16 3 24 -24 9 -41 7 -52 -6z"/>
<path d="M7343 2320 c-42 -17 -24 -21 59 -14 l81 7 -6 -269 c-4 -148 -11 -300 -16 -339 -5 -38 -12 -114 -16 -167 l-7 -98 -40 0 c-60 0 -43 -24 20 -28 47 -3 52 -1 56 20 16 74 48 672 44 804 l-3 89 -75 2 c-41 1 -85 -2 -97 -7z"/>
<path d="M6420 2312 c0 -5 14 -21 31 -38 42 -39 57 -72 65 -137 8 -64 -14 -149 -53 -208 -14 -22 -23 -43 -19 -46 13 -13 41 14 70 68 24 44 31 69 34 135 5 98 -7 142 -55 195 -32 35 -73 52 -73 31z"/>
<path d="M4767 2280 c-55 -64 -107 -213 -107 -303 0 -53 7 -77 24 -77 7 0 12 24 12 68 2 85 43 213 89 282 40 59 40 60 21 60 -8 0 -25 -13 -39 -30z"/>
<path d="M8217 2268 c-13 -18 -30 -49 -36 -69 -7 -20 -21 -45 -32 -55 -27 -25 -41 -52 -34 -65 5 -7 12 -6 22 2 13 11 14 5 7 -49 -6 -54 -4 -62 10 -62 9 0 16 2 16 4 0 2 7 41 16 87 11 59 26 100 51 140 34 56 40 88 16 96 -6 2 -22 -11 -36 -29z"/>
<path d="M6085 2173 c-56 -12 -85 -26 -85 -40 0 -10 6 -13 16 -9 33 13 105 28 109 24 3 -2 -7 -34 -21 -71 -25 -64 -27 -67 -60 -67 -40 0 -45 -17 -8 -26 22 -6 25 -10 19 -33 -12 -43 -11 -56 4 -56 8 0 21 19 29 43 12 37 17 42 43 42 19 0 29 5 29 15 0 8 -9 15 -20 15 -25 0 -25 -6 5 74 13 36 22 72 19 81 -6 15 -36 18 -79 8z"/>
<path d="M6273 2170 c-18 -7 -23 -17 -23 -44 0 -29 5 -38 30 -51 41 -21 42 -76 3 -117 -33 -35 -53 -36 -53 -3 0 16 -6 25 -16 25 -12 0 -14 -9 -12 -37 3 -33 7 -38 31 -41 35 -4 72 19 97 61 30 48 26 82 -15 124 -19 20 -35 40 -35 44 0 11 33 18 100 21 30 2 55 8 55 13 0 13 -133 17 -162 5z"/>
<path d="M5294 2159 c-69 -20 -70 -60 -4 -99 58 -34 62 -59 18 -103 l-33 -32 -3 38 c-4 43 -18 48 -33 11 -20 -55 16 -87 69 -60 39 20 62 58 62 101 0 30 -5 39 -31 53 -17 9 -38 22 -47 29 -27 19 -2 35 65 42 32 3 58 11 58 16 0 13 -82 16 -121 4z"/>
<path d="M5747 2153 c-16 -16 -4 -23 38 -23 80 0 75 -57 -10 -115 -87 -60 -72 -95 40 -95 19 0 40 3 49 6 30 12 5 24 -50 24 -61 0 -67 8 -25 33 43 25 91 84 91 112 0 39 -33 65 -83 65 -24 0 -47 -3 -50 -7z"/>
<path d="M4854 2140 c-28 -11 -54 -79 -56 -141 -1 -59 10 -73 57 -73 60 0 105 60 105 139 0 70 -43 101 -106 75z m70 -36 c24 -64 -30 -166 -79 -148 -27 11 -13 108 21 145 21 23 50 25 58 3z"/>
<path d="M5083 2143 c-13 -2 -23 -11 -23 -20 0 -11 6 -14 26 -9 15 4 32 2 40 -5 25 -21 16 -54 -26 -92 -58 -52 -54 -96 11 -112 35 -9 48 12 16 24 -42 16 -41 30 7 75 50 47 59 79 29 114 -20 23 -47 31 -80 25z"/>
<path d="M2710 2125 c-7 -8 -9 -23 -5 -32 6 -17 7 -17 19 0 24 31 90 15 97 -23 6 -32 -14 -61 -77 -110 -96 -75 -82 -110 42 -110 72 0 70 24 -2 28 -27 2 -53 7 -57 11 -5 5 16 27 45 50 78 63 101 106 82 156 -15 39 -119 61 -144 30z"/>
<path d="M5625 2108 c-2 -7 -5 -24 -7 -38 -3 -24 -7 -25 -71 -28 -88 -4 -87 -26 1 -30 l62 -3 -6 -39 c-5 -32 -3 -40 9 -40 17 0 27 20 27 55 0 16 7 25 25 29 30 8 33 26 5 26 -18 0 -20 5 -18 36 3 36 -17 60 -27 32z"/>
<path d="M2441 2063 c-17 -21 -39 -46 -48 -55 -25 -27 -30 -124 -8 -148 40 -44 120 -6 156 75 56 121 -22 221 -100 128z m77 -5 c26 -26 3 -110 -45 -160 -30 -32 -62 -37 -64 -10 -4 43 4 85 19 101 10 10 25 32 34 49 18 34 36 40 56 20z"/>
<path d="M3017 2070 c-64 -25 -79 -38 -75 -69 2 -20 14 -31 46 -46 48 -22 56 -54 20 -79 -26 -19 -38 -13 -38 20 0 19 -5 25 -17 22 -23 -4 -28 -37 -10 -62 21 -29 66 -24 99 13 44 49 35 78 -36 112 -16 8 -29 18 -30 23 -2 18 61 46 119 54 32 4 60 13 63 20 6 19 -85 14 -141 -8z"/>
<path d="M3492 2028 c-9 -18 -29 -45 -44 -61 -27 -28 -39 -65 -17 -52 7 5 8 -7 4 -39 -7 -42 -6 -46 14 -46 15 0 21 6 21 23 0 33 30 118 52 146 10 13 18 32 18 42 0 30 -29 22 -48 -13z"/>
<path d="M1943 2028 c2 -9 32 -13 102 -13 70 0 100 4 103 13 3 9 -22 12 -103 12 -81 0 -106 -3 -102 -12z"/>
<path d="M3997 2024 c-4 -4 -7 -20 -7 -35 0 -26 -3 -28 -47 -31 -62 -4 -62 -22 0 -26 40 -3 47 -6 43 -20 -18 -63 -27 -105 -22 -109 16 -16 36 12 47 66 11 51 16 60 36 63 29 4 31 22 4 26 -14 2 -21 12 -23 34 -3 31 -17 45 -31 32z"/>
<path d="M3586 1983 c-44 -36 -46 -40 -46 -90 0 -58 21 -83 71 -83 58 0 139 84 139 146 0 45 -22 64 -74 64 -35 0 -52 -7 -90 -37z m130 -8 c9 -23 -15 -83 -43 -105 -64 -50 -108 -33 -97 38 4 23 12 42 19 42 6 0 20 9 30 20 22 24 83 28 91 5z"/>
<path d="M4966 1942 c-20 -73 -20 -84 0 -80 17 3 57 121 46 133 -16 16 -31 -2 -46 -53z"/>
<path d="M5929 1973 c-5 -15 -12 -46 -16 -69 l-5 -42 -596 -7 c-328 -4 -636 -5 -684 -3 -85 5 -113 -1 -86 -19 7 -4 462 -8 1010 -8 789 0 999 3 1003 13 3 8 -9 12 -40 12 -24 0 -46 4 -49 8 -2 4 -38 5 -78 0 -82 -8 -448 1 -448 12 0 4 7 29 15 56 8 27 15 55 15 62 0 23 -30 12 -41 -15z"/>
<path d="M2563 1903 c-7 -27 -15 -58 -19 -70 -12 -43 23 -26 40 20 22 59 24 91 6 94 -11 3 -19 -11 -27 -44z"/>
<path d="M1932 1928 c5 -14 197 -24 227 -13 36 14 -18 25 -122 25 -83 0 -108 -3 -105 -12z"/>
<path d="M6943 1925 c-23 -16 -63 -111 -63 -149 0 -66 106 -71 163 -8 41 45 39 139 -3 162 -27 15 -72 12 -97 -5z m87 -34 c14 -27 13 -57 -5 -90 -15 -31 -65 -57 -90 -47 -19 7 -19 43 0 76 16 28 23 43 30 65 6 22 52 19 65 -4z"/>
<path d="M8994 1929 c-3 -6 0 -15 7 -20 18 -11 208 -7 212 5 1 4 -36 10 -83 12 -47 2 -95 6 -107 9 -12 3 -25 0 -29 -6z"/>
<path d="M7207 1898 c-3 -13 -13 -44 -23 -69 -25 -65 -16 -82 40 -74 l44 7 -5 -41 c-5 -33 -3 -41 10 -41 11 0 19 17 27 58 6 31 16 74 21 96 6 21 8 40 5 43 -13 13 -36 -9 -42 -41 -5 -30 -12 -37 -42 -46 -20 -5 -37 -8 -38 -7 -1 1 8 27 21 57 29 67 30 80 6 80 -11 0 -21 -9 -24 -22z"/>
<path d="M7815 1880 c-3 -6 1 -13 10 -16 19 -8 30 0 20 15 -8 14 -22 14 -30 1z"/>
<path d="M8078 1882 c-32 -2 -58 -7 -58 -12 0 -6 110 -10 280 -10 245 0 280 2 280 15 0 14 -28 15 -222 13 -123 -2 -249 -4 -280 -6z"/>
<path d="M6694 1846 c-6 -17 11 -46 28 -46 14 0 5 53 -9 58 -7 2 -16 -4 -19 -12z"/>
<path d="M9035 1831 c-60 -13 -19 -26 70 -23 105 4 145 10 145 23 0 10 -168 10 -215 0z"/>
<path d="M7090 1780 c-6 -10 -13 -47 -17 -81 -5 -49 -3 -61 7 -57 14 4 52 137 43 151 -8 13 -22 8 -33 -13z"/>
<path d="M8369 1751 c-34 -34 -36 -45 -10 -67 19 -16 19 -17 0 -48 -20 -33 -24 -72 -10 -95 6 -10 22 -12 56 -9 91 11 124 85 56 126 l-29 17 24 28 c28 32 31 62 8 71 -34 13 -67 5 -95 -23z m56 -31 c-28 -29 -45 -31 -45 -5 0 17 28 34 54 35 17 0 16 -4 -9 -30z m13 -86 c12 -8 22 -23 22 -33 0 -21 -51 -46 -75 -37 -14 5 -14 9 0 42 8 20 15 38 15 40 0 8 17 3 38 -12z"/>
<path d="M8106 1749 c-23 -18 -26 -27 -26 -83 0 -66 13 -93 45 -96 39 -4 54 0 84 26 36 30 37 27 15 -45 -8 -29 -13 -55 -10 -58 15 -15 35 13 51 71 14 52 15 69 6 80 -8 9 -10 27 -6 44 4 20 0 36 -15 55 -18 23 -29 27 -69 27 -34 0 -56 -6 -75 -21z m122 -52 c3 -32 -2 -43 -31 -72 -60 -60 -94 -40 -83 47 8 61 17 69 71 66 39 -3 40 -4 43 -41z"/>
<path d="M5914 1730 c-76 -8 -114 -23 -114 -43 0 -21 22 -37 50 -37 14 0 31 -4 39 -9 16 -10 3 -41 -38 -84 l-26 -28 -5 28 c-7 40 -40 44 -40 5 0 -47 10 -62 40 -62 32 0 95 63 106 104 11 45 1 59 -46 71 -44 11 -45 12 -15 18 17 3 71 9 120 13 97 7 120 13 89 25 -23 9 -65 9 -160 -1z"/>
<path d="M5578 1693 c-33 -8 -21 -33 15 -31 31 3 32 1 35 -37 3 -36 0 -43 -39 -76 -23 -20 -39 -41 -36 -47 11 -16 80 -24 111 -13 37 15 23 33 -20 25 -19 -3 -34 -4 -34 -1 0 3 14 19 30 37 23 24 30 42 30 71 0 60 -35 87 -92 72z"/>
<path d="M5225 1671 c-50 -29 -74 -141 -37 -173 41 -36 114 -27 155 20 21 23 33 88 23 125 -11 45 -86 60 -141 28z m103 -23 c7 -7 12 -25 12 -40 0 -64 -53 -115 -106 -102 -20 5 -24 12 -24 46 0 73 78 136 118 96z"/>
<path d="M5416 1507 c-19 -66 -20 -80 -3 -75 29 10 56 116 30 125 -7 2 -18 -18 -27 -50z"/>
<path d="M3223 678 c-6 -7 -25 -73 -43 -146 -20 -80 -38 -136 -47 -139 -8 -3 -11 -13 -8 -23 3 -10 -1 -35 -10 -55 -19 -46 -19 -65 -1 -65 8 0 22 21 32 48 9 26 20 50 23 53 3 4 38 9 77 12 l72 6 -14 -47 c-8 -26 -12 -52 -10 -59 8 -19 36 -16 36 5 0 9 20 78 44 152 27 83 41 139 35 145 -15 16 -35 -16 -54 -88 -9 -37 -21 -69 -25 -72 -4 -3 -40 -8 -80 -11 -69 -7 -73 -6 -66 11 10 28 66 256 66 271 0 17 -14 18 -27 2z"/>
<path d="M2723 593 c-18 -7 -16 -43 2 -43 8 0 15 5 15 10 0 6 11 8 25 5 14 -3 36 -7 50 -10 14 -3 25 -10 25 -15 0 -6 -14 -44 -31 -85 -29 -69 -34 -75 -60 -75 -19 0 -29 -5 -29 -15 0 -8 9 -15 21 -15 16 0 19 -4 14 -22 -4 -13 -16 -38 -27 -56 -14 -23 -17 -37 -10 -44 16 -16 30 -1 59 63 21 47 31 59 45 56 25 -7 35 13 14 29 -16 11 -15 16 8 73 35 81 34 115 -1 129 -35 13 -104 22 -120 15z"/>
<path d="M2393 580 c-12 -5 -26 -18 -32 -29 -13 -22 -14 -81 -3 -97 11 -18 48 -34 76 -34 31 0 31 -1 6 -49 -27 -55 -77 -101 -107 -101 -23 0 -25 2 -19 35 7 37 -7 48 -32 23 -33 -33 2 -88 57 -88 69 0 169 136 172 236 3 68 -7 91 -43 103 -36 13 -45 13 -75 1z m79 -44 c9 -13 10 -43 2 -72 -5 -19 -10 -21 -41 -13 -43 9 -55 25 -48 59 11 46 64 62 87 26z"/>
<path d="M1913 506 c-11 -17 24 -26 110 -26 53 0 87 4 87 10 0 6 -6 12 -12 15 -27 8 -180 10 -185 1z"/>
<path d="M1900 391 c0 -13 37 -21 95 -21 58 0 95 8 95 21 0 5 -43 9 -95 9 -52 0 -95 -4 -95 -9z"/>
<path d="M2564 238 c4 -19 -7 -34 -59 -84 -60 -55 -79 -84 -56 -84 20 0 141 112 147 136 8 31 -1 54 -22 54 -12 0 -15 -6 -10 -22z"/>
</g><g transform="translate(1161.636132, 747.6423345993843) scale(0.40808740102544044)"><g transform="translate(-57.706759,297.537395) scale(0.100000,-0.100000)" fill="#4444bb" stroke="none">
<path d="M750 2973 c-57 -10 -88 -25 -119 -57 -40 -41 -55 -100 -46 -179 6 -45 12 -61 32 -77 32 -25 35 -25 64 -1 22 17 24 26 21 89 -4 105 24 120 164 87 33 -7 119 -19 190 -25 88 -8 134 -16 144 -26 32 -32 8 -420 -28 -456 -18 -18 -126 -28 -289 -28 -185 0 -206 -4 -250 -52 -55 -58 -58 -82 -55 -363 1 -145 7 -274 13 -293 11 -34 51 -62 89 -62 12 0 35 14 52 31 l31 30 -6 238 c-3 130 -3 249 0 264 l5 27 112 0 c234 1 363 26 423 82 58 54 98 260 91 463 -4 122 -7 138 -34 191 -40 81 -79 100 -217 108 -174 10 -361 14 -387 9z" fill="#4444bb"/>
<path d="M3660 2971 c-42 -9 -83 -34 -103 -65 -39 -59 -50 -127 -54 -343 -5 -206 -5 -212 18 -252 28 -50 78 -86 143 -102 48 -12 257 -8 370 7 l49 7 -7 -104 c-4 -57 -11 -189 -16 -294 -9 -177 -9 -192 8 -214 35 -47 100 -46 136 2 22 29 27 86 42 452 7 191 0 235 -44 283 -45 48 -92 56 -241 38 -146 -18 -229 -20 -265 -6 l-26 10 0 162 c0 156 8 230 27 249 5 5 99 6 210 2 l201 -6 5 -50 c3 -39 11 -56 31 -74 34 -29 48 -29 80 0 24 20 26 30 28 113 4 147 -23 169 -218 179 -242 11 -340 13 -374 6z" fill="#4444bb"/>
<path d="M1565 2945 c-14 -13 -25 -32 -25 -42 0 -10 -1 -297 -3 -638 -2 -677 -3 -662 55 -694 33 -19 73 -7 101 31 18 24 20 51 29 300 5 150 10 278 12 283 2 6 37 8 97 3 52 -3 135 -7 186 -7 154 -2 161 -10 143 -176 -21 -189 -27 -310 -18 -343 12 -45 45 -72 86 -72 71 0 102 46 102 151 0 33 7 118 16 187 24 190 9 280 -58 349 -50 52 -112 67 -263 65 -71 -1 -164 -6 -205 -11 -41 -4 -78 -7 -81 -5 -4 2 -10 108 -13 236 -9 286 -17 352 -47 384 -31 33 -82 32 -114 -1z" fill="#4444bb"/>
<path d="M2542 2944 c-55 -38 -64 -109 -53 -419 6 -186 9 -215 28 -250 50 -95 116 -125 302 -135 75 -4 171 -5 215 -1 l78 7 -4 -178 c-2 -97 -7 -181 -11 -184 -4 -4 -42 1 -85 11 -104 26 -285 27 -363 3 -106 -33 -149 -107 -99 -170 26 -34 68 -41 132 -21 74 23 202 20 308 -7 182 -47 274 5 301 168 12 77 27 831 19 994 -7 152 -20 181 -86 186 -88 7 -103 -51 -104 -401 l0 -219 -201 4 c-197 3 -201 3 -220 27 -18 21 -19 42 -19 283 l0 260 -29 29 c-33 33 -74 38 -109 13z" fill="#4444bb"/>
<path d="M2374 1391 c-55 -34 -79 -78 -79 -147 0 -51 4 -66 27 -96 35 -45 102 -73 153 -64 78 15 146 111 131 188 -20 108 -145 172 -232 119z" fill="#4444bb"/>
<path d="M1853 999 c-39 -11 -66 -56 -61 -101 6 -59 69 -64 76 -6 4 30 34 38 145 38 l67 0 0 -110 c0 -135 -1 -136 -132 -126 -85 6 -89 6 -113 -18 -24 -25 -25 -28 -25 -179 0 -162 4 -177 47 -177 35 0 43 29 43 159 l0 121 73 0 c85 0 141 14 168 41 17 17 19 34 19 169 0 147 -1 152 -25 175 -23 24 -30 25 -137 24 -62 0 -128 -5 -145 -10z" fill="#4444bb"/>
<path d="M2985 1000 c-91 -16 -93 -18 -104 -58 -15 -51 -14 -537 0 -564 19 -36 69 -48 204 -48 121 0 127 1 151 25 l24 24 -2 292 -3 292 -26 19 c-31 23 -161 33 -244 18z m169 -86 c14 -5 16 -37 16 -250 l0 -245 -102 3 -103 3 0 240 0 240 40 6 c57 9 131 10 149 3z" fill="#4444bb"/>
<path d="M2351 971 c-24 -24 -29 -73 -37 -372 -6 -232 -6 -237 15 -258 23 -23 29 -25 51 -11 12 7 16 40 20 150 l5 141 35 -23 c19 -13 59 -55 88 -93 30 -39 78 -96 108 -128 47 -51 56 -57 74 -47 29 16 25 42 -15 92 -19 24 -62 78 -95 121 -61 77 -61 77 -33 77 15 0 46 9 69 19 56 26 67 57 62 179 -6 156 -27 172 -220 172 -93 0 -111 -3 -127 -19z m257 -74 c16 -13 17 -168 0 -185 -7 -7 -41 -12 -84 -12 -40 0 -84 -4 -98 -10 l-26 -10 0 120 0 119 98 -6 c53 -3 103 -10 110 -16z" fill="#4444bb"/>
</g>
</g>
</svg>
