<?xml version="1.0" encoding="UTF-8" standalone="no"?>
<svg
   version="1.0"
   width="170pt"
   height="128.57233pt"
   viewBox="0 0 170 128.57232"
   preserveAspectRatio="xMidYMid"
   id="svg14"
   sodipodi:docname="955t.svg"
   inkscape:version="1.3 (0e150ed, 2023-07-21)"
   xmlns:inkscape="http://www.inkscape.org/namespaces/inkscape"
   xmlns:sodipodi="http://sodipodi.sourceforge.net/DTD/sodipodi-0.dtd"
   xmlns="http://www.w3.org/2000/svg"
   xmlns:svg="http://www.w3.org/2000/svg">
  <defs
     id="defs14" />
  <sodipodi:namedview
     id="namedview14"
     pagecolor="#ffffff"
     bordercolor="#000000"
     borderopacity="0.25"
     inkscape:showpageshadow="2"
     inkscape:pageopacity="0.0"
     inkscape:pagecheckerboard="0"
     inkscape:deskcolor="#d1d1d1"
     inkscape:document-units="pt"
     inkscape:zoom="1.6464616"
     inkscape:cx="63.469443"
     inkscape:cy="137.26406"
     inkscape:window-width="1440"
     inkscape:window-height="847"
     inkscape:window-x="0"
     inkscape:window-y="25"
     inkscape:window-maximized="0"
     inkscape:current-layer="svg14" />
  <metadata
     id="metadata1">&#10;Created by potrace 1.16, written by Peter Selinger 2001-2019&#10;</metadata>
  <path
     d="m 94.6,3.5361934 c -2.8,3.1 -4.3,4 -6.8,4 -3.1,0 -3.1,0 -1.1,-2.3 3.8,-4.2 3.6,-5.2 -0.3,-1.6 -2.1,2 -4.7,3.9 -5.7,4.2 -1,0.4 -1.5,1.2 -1.1,1.8 0.4,0.6999996 3.4,0.9999996 8.5,0.6999996 4.4,-0.3 7.9,-0.3 7.9,-0.2 0,0.1 -2.6,1.7 -5.7,3.5 -3.2,1.8 -11.3,6.5 -17.9,10.5 -10.5,6.3 -18,10.5 -36.9,20.9 -2.2,1.2 -5.7,3.2 -7.9,4.4 -3.7,2.1 -4,2.1 -7.8,0.6 -3.7,-1.5 -4.3,-1.4 -7.7,0.2 -9.8,4.9 -6.6,18.8 4.4,18.8 3.5,0 4.8,-0.6 7,-2.9 2.2,-2.4 2.6,-3.6 2.4,-7.8 l -0.3,-4.9 12.6,-7.3 c 6.9,-4 13.3,-7.6 14.3,-8 0.9,-0.3 7,-3.7 13.4,-7.5 29.8,-17.7 32.4,-19 33.8,-17.2 1.1,1.4 1.2,1.4 1.3,-0.7 0,-2.1 0.3,-2.2 9.9,-2.2 5.6,0 10.3,-0.4 10.6,-0.9999996 0.3,-0.6 -0.3,-1 -1.4,-1 -2.8,0 -2.6,-1 0.9,-4.3 1.7,-1.6 3,-3.4 3,-4 -0.1,-0.7 -2.1,1 -4.5,3.6 -3.6,3.9 -5,4.8 -7.2,4.5 l -2.7,-0.3 3.3,-3.8 c 4.8,-5.4 3.2,-5.6 -1.8,-0.2 -2.8,3 -5,4.5 -6.6,4.5 -3.1,0 -3.1,-0.3 0,-4.4 3.9,-5.2 2.9,-5.2 -1.8,-0.1 -3.7,4.1 -4.6,4.6 -7,4 l -2.8,-0.8 3.2,-3.3 c 1.8,-1.9 3,-3.6 2.7,-3.9 -0.3,-0.3 -2.2,1.3 -4.2,3.5 z M 21.4,53.636193 c 4.7,3.7 2.8,11.9 -3,13.3 -3.9,1 -8.1,-1.1 -9.3,-4.6 -1.6,-4.5 -1.4,-5.6 1.4,-8.3 3,-3.1 7.3,-3.2 10.9,-0.4 z"
     id="path16"
     style="fill:#000000;stroke:none;stroke-width:0.1" />
  <path
     d="m 99,20.036193 c 0,1.4 0.5,2.5 1,2.5 0.6,0 1,-1.1 1,-2.5 0,-1.4 -0.4,-2.5 -1,-2.5 -0.5,0 -1,1.1 -1,2.5 z"
     id="path17"
     style="fill:#000000;stroke:none;stroke-width:0.1" />
  <path
     d="m 99.7,26.236193 c -1.1,1 -0.8,5.3 0.3,5.3 0.6,0 1,-1.4 1,-3 0,-3.1 -0.2,-3.5 -1.3,-2.3 z"
     id="path18"
     style="fill:#000000;stroke:none;stroke-width:0.1" />
  <path
     d="m 99.7,34.236193 c -1.1,1 -0.8,5.3 0.3,5.3 0.6,0 1,-1.4 1,-3 0,-3.1 -0.2,-3.5 -1.3,-2.3 z"
     id="path19"
     style="fill:#000000;stroke:none;stroke-width:0.1" />
  <path
     d="m 99,44.936193 c 0,1.4 0.5,2.8 1,3.1 0.6,0.4 1,-0.7 1,-2.4 0,-1.7 -0.4,-3.1 -1,-3.1 -0.5,0 -1,1.1 -1,2.4 z"
     id="path20"
     style="fill:#000000;stroke:none;stroke-width:0.1" />
  <path
     d="m 99,53.536193 c 0,1.6 0.5,3 1,3 0.6,0 1,-1.4 1,-3 0,-1.7 -0.4,-3 -1,-3 -0.5,0 -1,1.3 -1,3 z"
     id="path21"
     style="fill:#000000;stroke:none;stroke-width:0.1" />
  <path
     d="m 99,62.036193 c 0,1.4 0.5,2.5 1,2.5 0.6,0 1,-1.1 1,-2.5 0,-1.4 -0.4,-2.5 -1,-2.5 -0.5,0 -1,1.1 -1,2.5 z"
     id="path22"
     style="fill:#000000;stroke:none;stroke-width:0.1" />
  <path
     d="m 99,70.536193 c 0,1.6 0.5,3 1,3 0.6,0 1,-1.4 1,-3 0,-1.7 -0.4,-3 -1,-3 -0.5,0 -1,1.3 -1,3 z"
     id="path23"
     style="fill:#000000;stroke:none;stroke-width:0.1" />
  <path
     d="m 99,78.536193 c 0,1.6 0.5,3 1,3 0.6,0 1,-1.4 1,-3 0,-1.7 -0.4,-3 -1,-3 -0.5,0 -1,1.3 -1,3 z"
     id="path24"
     style="fill:#000000;stroke:none;stroke-width:0.1" />
  <path
     d="m 99,87.636193 c 0,1.7 0.4,2.8 1,2.4 0.6,-0.3 1,-1.7 1,-3.1 0,-1.3 -0.4,-2.4 -1,-2.4 -0.5,0 -1,1.4 -1,3.1 z"
     id="path25"
     style="fill:#000000;stroke:none;stroke-width:0.1" />
  <path
     d="m 119.3,90.236193 -8.3,0.4 v 6.4 6.299997 l -2.9,-2.9 c -1.6,-1.599997 -3.9,-2.899997 -5,-2.899997 -1.4,0 -2.1,-0.6 -2.1,-2 0,-1.1 -0.4,-2 -1,-2 -0.5,0 -1,0.9 -1,2 0,1.3 -1,2.4 -2.5,3 -3.2,1.2 -5.9,7.199997 -5,10.899997 0.4,1.4 1.8,3.8 3.3,5.3 l 2.6,2.8 -34,0.2 c -18.6,0 -40.5,0 -48.7,-0.1 -9.6,-0.1 -14.7,0.2 -14.7,0.9 0,0.5 1.6,1 3.5,1 1.9,0 3.5,0.3 3.5,0.8 0,0.4 -1.4,2.4 -3.1,4.5 -4.1,5 -2.5,4.8 1.8,-0.3 2.4,-2.8 4.3,-4 6.1,-4 h 2.6 l -3.2,3.3 c -4.7,4.9 -3.9,5.8 1.1,1 3.9,-3.7 7.7,-6 7.7,-4.7 0,0.4 -1.4,2.4 -3.1,4.5 -4,5.1 -2.6,5 1.8,-0.1 2.2,-2.6 4.3,-4 5.8,-4 2.3,0 2.3,0.1 -1,3.7 -1.9,2.1 -3.2,4 -2.9,4.3 0.4,0.3 2.2,-1.3 4.2,-3.6 3.8,-4.1 6.8,-5.9 7.6,-4.5 0.3,0.4 -0.8,2.1 -2.4,3.6 -2.9,2.8 -3.8,4.5 -2.2,4.5 0.4,0 1.7,-1.6 3,-3.4 1.3,-1.9 3.7,-3.9 5.3,-4.5 3.7,-1.3 3.6,-0.7 -0.2,3.6 -4.5,5.2 -2.8,5.2 2,0 2.2,-2.4 4.7,-4.4 5.6,-4.4 2.1,0 1.9,0.7 -1.5,4.7 -1.6,1.9 -2.7,3.7 -2.4,3.9 0.3,0.3 2.4,-1.6 4.7,-4.3 2.9,-3.3 4.9,-4.7 6.2,-4.5 1.7,0.4 1.5,0.9 -1.9,4.7 -5.1,5.6 -3.2,5.4 2.2,-0.3 2.3,-2.5 4.9,-4.5 5.7,-4.5 2.1,0 1.8,1 -1.5,4.9 -4.5,5.3 -2.7,5 2.2,-0.4 3,-3.2 5,-4.6 6.3,-4.4 1.7,0.4 1.5,0.9 -1.9,4.7 -2.1,2.3 -3.4,4.2 -3,4.2 0.5,0 2.7,-2.1 4.9,-4.6 2.7,-3.1 4.7,-4.5 6,-4.3 1.7,0.4 1.5,0.8 -1.4,4.2 -4.8,5.4 -3.2,5.6 1.8,0.2 2.4,-2.6 5,-4.5 6.2,-4.5 1.9,0 1.7,0.4 -1.6,4.1 -2,2.2 -3.4,4.4 -3,4.7 0.3,0.3 2.4,-1.5 4.6,-4.1 2.4,-2.8 4.9,-4.7 6.1,-4.7 1.8,0 1.6,0.5 -1.6,4.5 -2.1,2.5 -3.3,4.5 -2.9,4.5 0.5,0 2.6,-2 4.6,-4.5 2.1,-2.5 4.7,-4.5 5.7,-4.5 2.7,0 2.5,0.9 -1.2,4.7 -1.7,1.8 -2.9,3.5 -2.6,3.8 0.3,0.3 2.4,-1.5 4.7,-4 2.3,-2.5 4.8,-4.5 5.6,-4.5 2.2,0 1.8,1.2 -1.6,4.9 -1.6,1.8 -2.7,3.6 -2.4,3.9 0.3,0.3 2.3,-1.3 4.3,-3.6 2.4,-2.7 4.6,-4.2 6.1,-4.2 2.3,0 2.3,0.2 -1.2,3.7 -2,2 -3.4,3.9 -3.1,4.2 0.3,0.3 2.3,-1.3 4.4,-3.6 2.4,-2.7 4.6,-4.3 6.1,-4.3 2.2,0 2.2,0 0.3,2.2 -3.5,4 -4.7,5.8 -3.8,5.8 0.5,0 2,-1.6 3.4,-3.5 2.1,-2.9 8,-6.5 8,-4.8 0,0.3 -1.4,2.3 -3.1,4.4 -4.2,5.3 -3,4.9 2.3,-0.7 2.9,-3 5.1,-4.5 6.3,-4.3 1.6,0.4 1.4,0.9 -1.8,4.4 -2,2.1 -3.4,4.2 -3.1,4.5 0.3,0.3 2.5,-1.6 4.7,-4.3 2.3,-2.6 5,-4.7 6,-4.7 2.4,0 2.1,0.9 -1.5,4.7 -1.7,1.8 -2.8,3.6 -2.5,4 0.4,0.4 1.5,-0.4 2.4,-1.8 2.8,-3.9 6.5,-6.9 8.6,-6.9 1.6,0 1.4,0.6 -1.8,4.1 -2,2.2 -3.4,4.3 -3.1,4.6 0.3,0.3 2.5,-1.6 4.8,-4.2 3,-3.2 5,-4.6 6.3,-4.4 1.7,0.4 1.5,0.9 -1.9,4.7 -5.1,5.6 -3.2,5.4 2.4,-0.3 4.1,-4.2 7,-5.7 7,-3.7 0,0.5 -0.9,1.7 -2.1,2.8 -1.1,1 -2.5,2.8 -3.1,3.9 -0.5,1.1 1.2,-0.2 3.7,-2.8 3.1,-3.1 5.4,-4.7 6.7,-4.5 1.7,0.3 1.6,0.8 -1.7,4.5 -2,2.4 -3.3,4.3 -2.8,4.3 0.4,0 2.6,-2.1 4.8,-4.6 2.6,-3 4.7,-4.5 5.8,-4.3 1.6,0.3 1.3,1 -1.8,4.7 -2,2.3 -3.2,4.2 -2.7,4.2 0.5,0 2.6,-2 4.6,-4.5 2.1,-2.5 4.6,-4.5 5.7,-4.5 2.7,0 2.4,1.2 -1.1,4.5 -1.6,1.6 -3,3.4 -3,3.9 0,1 10,-8.9 10,-9.9 0,-0.2 -1.7,-0.5 -3.7,-0.7 l -3.8,-0.3 -0.3,-13.3 -0.3,-13.199997 h -8.3 c -4.5,0 -12.3,-0.2 -17.2,-0.4 -4.9,-0.2 -12.6,-0.1 -17.1,0.1 z M 160,105.03619 v 12.5 H 136.5 113 v -12.5 -12.499997 h 23.5 23.5 z m -52.7,-2.4 c 4,4.9 0.5,12.9 -5.8,12.9 -7.2,0 -10.5,-9.1 -5,-13.8 3.3,-2.799997 7.9,-2.499997 10.8,0.9 z m 3.7,12.4 c 0,2 -0.5,2.5 -2.7,2.5 h -2.6 l 2.3,-2.5 c 1.3,-1.4 2.5,-2.5 2.7,-2.5 0.2,0 0.3,1.1 0.3,2.5 z"
     id="path26"
     style="fill:#000000;stroke:none;stroke-width:0.1" />
  <path
     d="m 17.436044,44.879653 c 1.775,0 2.775,-1.75 3.425,-2.675 l -0.5,-0.375 c -0.4,0.475 -1,1.3 -1.875,1.3 -0.325,0 -0.475,-0.2 -0.475,-0.475 0,-0.3 0.075,-0.6 0.075,-0.6 l 1.375,-5.775 c 0.075,-0.35 0.25,-1.2 0.25,-1.85 0,-0.9 -0.35,-1.775 -1.55,-1.775 -2.625,0 -4.7,3.55 -5.725,5.5 h -0.125 l 0.475,-1.875 c 0.025,-0.125 0.225,-1.125 0.225,-1.85 0,-0.9 -0.325,-1.775 -1.55,-1.775 -2.7749997,0 -4.8499997,3.525 -5.8749997,5.5 h -0.2 l 1.225,-5.425 h -0.575 l -3.425,0.275 v 0.675 c 0,0 0.475,-0.05 0.8,-0.05 0.6,0 0.8,0.25 0.8,0.675 0,0.375 -0.075,0.825 -0.075,0.825 l -2,9.5 h 2.05 l 0.775,-3.425 c 1.225,-2.8 3.625,-6.75 5.2249997,-6.75 0.55,0 0.725,0.425 0.725,1 0,0.4 -0.125,1.025 -0.125,1.025 -0.6,2.8 -1.2749997,5.475 -1.9999997,8.15 h 2.0749997 l 0.675,-3.15 c 0.725,-2.125 3.725,-7.025 5.325,-7.025 0.55,0 0.725,0.425 0.725,1 0,0.525 -0.225,1.475 -0.4,2.125 l -1.275,4.85 c -0.025,0.125 -0.125,0.575 -0.125,0.975 0,0.75 0.375,1.475 1.65,1.475 z"
     id="path27"
     style="font-style:italic;font-size:25px;font-family:'STIX Two Text';-inkscape-font-specification:'STIX Two Text, Italic';stroke-width:3.75;stroke-linejoin:bevel;stroke-miterlimit:3.2;paint-order:stroke fill markers"
     aria-label="m" />
  <path
     d="m 48.196407,29.441888 c 1.75,0 4.15,-2.4 5.125,-4.125 l -0.675,-0.525 c -1,1.55 -2.175,2.875 -3.075,2.875 -0.425,0 -0.475,-0.275 -0.475,-0.525 0,-0.4 0.15,-0.95 0.55,-2.575 l 1,-4.025 c 3.175,-1.575 5.75,-3.95 5.75,-6.725 0,-1.425 -0.675,-2.425 -2.05,-2.425 -2.425,0 -4.25,3.2 -5.275,7.375 l -0.4,1.6 c -1.175,0.525 -2.425,0.925 -3.6,1.15 l 0.125,0.875 c 1.025,-0.2 2.125,-0.5 3.2,-0.875 l -1.15,4.7 c -0.225,0.925 -0.275,1.5 -0.275,1.825 0,0.9 0.425,1.4 1.225,1.4 z m 2.8,-10.3 0.375,-1.5 c 0.875,-3.5 1.6,-5.225 2.6,-5.225 0.65,0 0.825,0.75 0.825,1.425 0,2.05 -1.625,3.9 -3.8,5.3 z"
     id="path28"
     style="font-size:25px;font-family:'STIX Two Text';-inkscape-font-specification:'STIX Two Text, Normal';stroke-width:3.75;stroke-linejoin:bevel;stroke-miterlimit:3.2;paint-order:stroke fill markers"
     aria-label="ğ“" />
  <path
     d="m 131.37969,113.41352 0.15,-0.75 c -1.9,0 -2.2,-0.325 -1.675,-2.9 l 2.075,-10.100001 h 0.1 l 3.025,13.750001 h 0.55 l 8.4,-13.775001 h 0.1 l -2.225,10.800001 c -0.375,1.825 -0.725,2.225 -2.575,2.225 l -0.15,0.75 h 6.675 l 0.15,-0.75 c -1.775,0 -2.25,-0.4 -1.875,-2.225 l 2.125,-10.425 c 0.4,-1.850001 0.875,-2.275001 2.65,-2.275001 l 0.15,-0.75 h -4.725 l -7.625,12.650001 h -0.1 l -2.7,-12.650001 h -5 l -0.15,0.75 c 1.975,0 2.275,0.425 1.875,2.300001 l -1.975,9.725 c -0.525,2.575 -0.95,2.9 -2.875,2.9 l -0.15,0.75 z"
     id="path29"
     style="font-style:italic;font-size:25px;font-family:'STIX Two Text';-inkscape-font-specification:'STIX Two Text, Italic';stroke-width:3.75;stroke-linejoin:bevel;stroke-miterlimit:3.2;paint-order:stroke fill markers"
     aria-label="M" />
</svg>
