<?xml version="1.0" standalone="no"?>
<!DOCTYPE svg PUBLIC "-//W3C//DTD SVG 20010904//EN"
 "http://www.w3.org/TR/2001/REC-SVG-20010904/DTD/svg10.dtd">
<svg version="1.0" xmlns="http://www.w3.org/2000/svg"
 width="548.130340pt" height="424.582126pt" viewBox="0 0 548.130340 424.582126"
 preserveAspectRatio="xMidYMid meet">
<metadata>
Created by potrace 1.16, written by Peter Selinger 2001-2019
</metadata>
<g transform="translate(-29.757296,484.632655) scale(0.100000,-0.100000)"
fill="#000000" stroke="none">
<path d="M3103 4836 c-49 -22 -81 -98 -90 -216 -5 -65 -2 -82 16 -118 25 -50
46 -62 104 -62 31 0 49 6 62 20 18 19 18 19 47 -5 27 -23 88 -35 88 -18 0 3
-18 23 -40 43 l-41 38 21 35 c32 54 38 152 12 209 -30 69 -113 103 -179 74z
m143 -49 c22 -19 28 -34 32 -80 5 -66 -3 -116 -23 -143 -13 -18 -15 -17 -45
19 -33 39 -70 50 -70 20 0 -10 13 -38 30 -63 32 -49 28 -60 -26 -60 -47 0 -67
29 -72 107 -5 70 19 173 46 206 23 26 94 23 128 -6z"/>
<path d="M2026 4469 c-799 -84 -1473 -668 -1671 -1447 -43 -173 -58 -292 -57
-482 0 -403 106 -753 331 -1086 222 -330 543 -585 918 -728 924 -352 1970 59
2417 952 134 267 199 548 198 862 0 403 -106 753 -331 1086 -222 330 -543 585
-918 728 -267 102 -601 145 -887 115z m473 -44 c1128 -160 1862 -1266 1574
-2370 -192 -736 -818 -1292 -1574 -1400 -134 -19 -404 -19 -538 0 -1128 160
-1862 1266 -1574 2370 191 732 816 1290 1565 1399 128 19 418 19 547 1z"/>
<path d="M2145 3450 c-214 -23 -426 -132 -567 -290 -271 -304 -304 -749 -82
-1093 204 -315 601 -467 974 -372 150 38 326 146 432 265 316 354 302 900 -31
1231 -152 151 -333 236 -551 259 -56 5 -103 9 -104 9 0 -1 -32 -5 -71 -9z
m310 -55 c148 -41 268 -109 377 -213 192 -183 276 -393 266 -661 -5 -105 -11
-142 -36 -221 -123 -375 -476 -617 -867 -597 -219 12 -391 86 -547 235 -192
183 -276 393 -266 661 5 105 11 142 36 221 96 293 341 515 642 581 103 23 300
20 395 -6z"/>
<path d="M2745 2953 c-11 -3 -24 -8 -28 -12 -8 -8 -57 -215 -57 -242 0 -20 19
-29 40 -19 8 4 48 10 88 13 41 3 85 13 98 22 33 21 31 57 -5 87 -25 22 -27 27
-15 43 21 28 17 63 -11 90 -24 25 -59 30 -110 18z m73 -55 c3 -22 -3 -32 -29
-47 -18 -11 -35 -19 -37 -17 -2 2 0 25 3 51 7 42 9 46 34 43 20 -2 27 -9 29
-30z m-34 -98 c40 0 71 -21 63 -43 -5 -14 -112 -46 -121 -36 -2 2 1 29 8 59 6
30 12 47 14 37 2 -12 13 -17 36 -17z"/>
<path d="M2072 2906 c-10 -13 -33 -58 -52 -100 -18 -42 -37 -76 -42 -76 -5 0
-7 -4 -3 -10 6 -10 -15 -50 -28 -50 -4 0 -19 12 -33 28 -23 26 -25 26 -39 8
-28 -36 26 -96 71 -79 8 3 24 23 35 44 17 33 24 39 52 39 28 -1 35 -6 52 -43
17 -35 25 -43 53 -45 26 -3 32 0 32 16 0 11 -7 22 -15 26 -18 7 -20 47 -3 64
9 9 9 12 0 12 -8 0 -12 25 -12 83 0 81 -9 107 -36 107 -7 0 -21 -11 -32 -24z
m8 -83 c0 -69 -9 -86 -43 -81 l-25 3 30 68 c17 37 32 67 34 67 2 0 4 -26 4
-57z"/>
<path d="M2228 2583 c-37 -9 -30 -83 7 -83 17 0 45 33 45 53 0 19 -28 35 -52
30z"/>
<path d="M2836 2563 c-19 -25 -19 -26 -1 -39 11 -8 27 -14 36 -14 18 0 49 25
49 40 0 46 -54 55 -84 13z"/>
<path d="M3263 2941 c-42 -41 -65 -129 -47 -176 10 -24 58 -45 104 -45 29 0
61 11 108 37 73 41 68 57 -8 24 -91 -39 -150 -22 -150 42 0 47 40 111 70 115
18 2 21 0 11 -7 -17 -11 -7 -41 14 -41 29 0 30 32 1 57 -36 31 -68 29 -103 -6z"/>
<path d="M3828 2937 c-17 -13 -68 -153 -68 -186 0 -27 24 -37 53 -23 12 6 48
13 80 16 134 14 184 66 146 150 -21 44 -100 68 -154 47 -11 -5 -25 -5 -31 0
-6 5 -17 4 -26 -4z m147 -37 c8 -7 15 -28 15 -46 0 -27 -6 -36 -30 -49 -30
-16 -130 -38 -137 -31 -5 5 37 118 50 135 13 15 80 10 102 -9z"/>
<path d="M3837 2594 c-35 -19 -32 -44 6 -57 45 -15 77 29 45 61 -15 15 -16 15
-51 -4z"/>
<path d="M3328 2583 c-26 -7 -34 -44 -12 -60 24 -18 38 -16 58 6 34 37 7 69
-46 54z"/>
<path d="M1167 2250 c-34 -40 -44 -116 -22 -163 25 -53 67 -57 88 -8 9 22 12
8 18 -94 8 -142 28 -205 64 -205 33 0 38 13 22 62 -8 24 -17 102 -21 173 -7
128 -32 238 -60 257 -25 17 -65 7 -89 -22z m93 -9 c0 -11 -5 -21 -12 -23 -7
-3 -12 -25 -13 -51 0 -29 -7 -53 -17 -63 -15 -15 -16 -14 -23 16 -9 43 1 92
26 118 25 27 39 28 39 3z"/>
<path d="M5659 3095 c-79 -16 -130 -40 -136 -65 -3 -10 -14 -20 -25 -23 -18
-5 -19 -11 -13 -74 4 -37 7 -97 8 -132 2 -47 6 -67 19 -74 28 -18 48 9 48 63
l0 48 50 11 c28 6 59 11 70 11 25 0 50 10 50 21 0 14 -72 11 -126 -6 -27 -8
-49 -15 -50 -15 -3 0 -17 109 -18 140 -1 35 -1 35 64 52 36 9 91 17 123 17 57
1 67 7 45 29 -14 14 -23 14 -109 -3z"/>
<path d="M4718 2933 c-37 -9 -69 -22 -72 -29 -3 -8 -3 -50 1 -95 6 -74 9 -83
37 -110 35 -33 48 -35 66 -15 6 8 37 20 68 27 82 16 87 18 76 29 -7 7 -28 7
-60 0 -118 -24 -112 -24 -116 1 -4 33 33 61 101 74 30 6 57 17 59 23 5 17 -31
15 -100 -4 -32 -9 -60 -15 -62 -13 -2 2 -7 20 -11 40 l-7 35 52 12 c28 7 61
12 72 12 28 0 17 25 -13 26 -13 1 -54 -5 -91 -13z"/>
<path d="M4500 2604 c-9 -3 -21 -14 -29 -26 -11 -18 -10 -23 7 -41 24 -24 48
-17 63 17 20 42 4 62 -41 50z"/>
<path d="M5432 2578 c-37 -18 -23 -43 23 -43 36 0 40 3 40 25 0 29 -26 36 -63
18z"/>
</g>
</svg>
