<svg xmlns="http://www.w3.org/2000/svg" version="1.0" width="2207.888668pt" height="1067.858311pt" viewBox="0 0 2207.888668 1067.858311" preserveAspectRatio="xMidYMid meet">
<metadata>
Created by potrace 1.16, written by Peter Selinger 2001-2019
</metadata>
<g transform="translate(-108.500000,1161.858311) scale(0.100000,-0.100000)" fill="#000000" stroke="none">
<path d="M1616 11608 c-2 -7 -7 -49 -10 -93 -3 -45 -17 -118 -33 -166 l-28 -87 -85 -11 c-47 -6 -101 -12 -120 -14 -25 -1 -36 -7 -38 -21 -4 -18 2 -19 107 -13 61 3 111 4 111 1 0 -19 -31 -74 -42 -74 -7 0 -46 -12 -85 -26 -55 -20 -73 -31 -73 -45 0 -25 26 -24 92 1 28 11 53 18 54 17 4 -4 -19 -68 -34 -94 -14 -26 -16 -50 -3 -57 21 -14 42 11 72 84 l32 77 66 7 c36 3 88 9 114 12 l48 7 -3 -64 c-3 -55 -1 -64 16 -67 27 -6 36 15 36 81 0 57 0 57 40 73 50 20 53 39 6 30 l-35 -7 6 58 c4 35 12 61 21 67 11 7 12 10 2 16 -11 7 -10 25 5 92 24 110 25 162 3 166 -18 3 -40 -58 -59 -166 -16 -93 -11 -87 -102 -99 -45 -6 -84 -10 -86 -7 -2 2 6 29 17 61 24 67 45 195 40 238 -2 22 -9 31 -26 33 -12 2 -24 -3 -26 -10z m160 -390 c-4 -24 -11 -47 -15 -51 -11 -11 -189 -33 -197 -24 -4 4 1 25 11 46 17 39 19 40 89 51 39 7 78 13 86 15 8 1 19 3 24 4 5 0 6 -18 2 -41z"/>
<path d="M2795 11517 c-52 -30 -97 -94 -98 -142 -1 -30 5 -43 27 -62 16 -13 41 -27 57 -30 16 -3 29 -8 29 -10 0 -3 -23 -30 -51 -61 -65 -73 -81 -104 -77 -150 l3 -37 70 1 c62 0 79 5 152 43 90 47 153 107 153 145 0 31 -40 63 -96 77 l-42 11 24 35 c25 37 31 68 15 77 -4 3 -5 24 -1 46 11 60 -8 80 -73 80 -35 0 -65 -8 -92 -23z m110 -90 c0 -57 -4 -71 -22 -89 -18 -16 -29 -19 -59 -14 -75 15 -91 44 -54 100 23 36 88 77 115 74 18 -3 20 -11 20 -71z m69 -192 l37 -18 -24 -31 c-32 -40 -176 -116 -222 -116 -19 0 -35 3 -35 8 0 11 31 55 85 121 47 57 52 61 86 57 20 -2 53 -12 73 -21z"/>
<path d="M3223 11440 c-30 -13 -43 -25 -43 -40 0 -24 23 -26 60 -5 60 34 90 10 90 -72 0 -57 -15 -84 -97 -173 -74 -81 -93 -109 -93 -136 0 -41 39 -49 230 -48 150 0 182 3 204 17 38 26 35 51 -6 44 -165 -27 -200 -30 -278 -21 -46 5 -85 14 -87 20 -2 6 30 49 72 94 99 108 119 147 111 216 -8 68 -22 99 -53 113 -34 16 -62 13 -110 -9z"/>
<path d="M2380 11430 c-89 -17 -184 -81 -195 -132 -11 -50 9 -58 147 -58 65 0 118 -4 118 -9 0 -5 -21 -32 -47 -61 -79 -88 -207 -133 -236 -83 -4 7 -17 13 -27 13 -28 0 -26 -44 2 -64 54 -38 185 -6 267 66 83 72 144 202 122 260 -18 48 -88 79 -151 68z m70 -55 c22 -12 30 -23 30 -43 0 -51 -8 -54 -123 -50 -58 1 -109 7 -113 11 -12 12 44 54 101 76 61 24 69 25 105 6z"/>
<path d="M19968 11413 c-2 -5 -1 -75 2 -158 5 -150 5 -150 30 -150 23 0 26 5 31 50 7 63 34 143 59 173 11 13 32 24 47 25 27 2 28 0 33 -53 4 -47 8 -55 26 -58 16 -2 27 7 42 32 22 36 95 96 119 96 9 0 13 -16 13 -60 0 -60 12 -101 38 -132 20 -24 157 -26 190 -2 40 28 26 35 -52 28 -67 -6 -75 -5 -95 15 -17 17 -21 33 -21 84 0 77 -16 111 -54 115 -44 5 -68 -4 -114 -43 -26 -23 -42 -31 -42 -22 0 27 -35 47 -84 47 -39 0 -53 -5 -77 -29 -26 -26 -29 -27 -29 -10 0 31 -19 59 -40 59 -10 0 -20 -3 -22 -7z"/>
<path d="M23028 11309 c-20 -11 -24 -44 -7 -55 6 -3 21 -1 34 6 41 22 55 7 55 -57 0 -55 -1 -58 -50 -105 -44 -42 -55 -48 -94 -48 -55 0 -94 28 -98 73 -2 26 -7 32 -28 32 -19 0 -26 -6 -30 -31 -9 -44 -42 -94 -61 -94 -35 0 -75 72 -92 168 -11 61 -14 67 -37 67 -21 0 -25 -4 -23 -30 10 -187 138 -319 217 -224 l26 31 46 -22 c85 -42 192 -7 250 80 22 32 26 52 28 110 1 65 -1 73 -24 90 -27 21 -84 26 -112 9z"/>
<path d="M21447 11293 c-21 -21 23 -45 115 -64 29 -6 89 -26 133 -44 44 -18 109 -41 145 -51 159 -43 363 -154 483 -264 51 -47 76 -79 103 -137 20 -41 34 -76 31 -79 -2 -3 -31 5 -63 17 -33 12 -71 24 -86 26 -42 8 -37 -28 10 -63 20 -15 54 -43 75 -61 32 -29 44 -33 92 -33 48 0 57 3 64 23 5 12 18 32 29 43 35 37 33 74 -4 74 -19 0 -28 -7 -36 -30 -10 -31 -10 -31 -33 34 -13 36 -35 86 -49 111 -78 132 -333 302 -558 370 -46 14 -117 40 -158 57 -41 16 -100 36 -130 43 -30 7 -73 17 -95 24 -46 13 -59 14 -68 4z"/>
<path d="M13510 10887 c-25 -13 -72 -41 -105 -63 -107 -73 -226 -144 -241 -144 -8 0 -31 -16 -52 -35 l-39 -35 -11 25 c-14 31 -54 33 -100 5 -40 -24 -44 -25 -41 -2 3 36 -1 43 -23 40 -20 -3 -25 -12 -35 -73 -22 -125 -22 -126 -99 -168 -106 -58 -205 -127 -199 -137 12 -19 42 -9 140 51 86 52 101 58 111 44 19 -26 43 -17 61 24 20 45 99 93 114 69 5 -7 9 -16 9 -20 0 -20 41 -5 56 20 46 74 66 99 92 114 16 10 32 15 36 11 11 -11 6 -107 -8 -163 -14 -55 -10 -69 20 -70 36 0 57 115 44 240 l-5 45 91 55 c94 57 195 132 228 169 24 26 13 26 -44 -2z m-500 -296 c0 -20 -66 -69 -77 -57 -5 5 62 76 73 76 2 0 4 -9 4 -19z"/>
<path d="M4726 10873 c-4 -4 -87 -11 -184 -15 -97 -4 -256 -12 -352 -18 -373 -23 -776 -32 -1870 -40 -624 -4 -1157 -12 -1185 -16 -34 -6 -50 -14 -50 -24 0 -12 12 -14 60 -12 33 1 634 6 1335 11 915 7 1353 14 1550 25 151 8 369 20 485 27 215 11 280 23 280 49 0 16 -55 27 -69 13z"/>
<path d="M12273 10843 c-3 -10 -12 -34 -20 -53 -46 -111 -127 -396 -119 -417 3 -8 16 -13 27 -11 22 3 23 6 101 218 11 30 28 73 37 94 l18 40 16 -52 c9 -28 17 -66 17 -84 0 -40 24 -78 49 -78 12 0 40 32 81 93 34 50 59 81 56 67 -4 -14 -11 -47 -15 -75 -5 -27 -15 -71 -21 -97 -15 -58 -8 -81 22 -76 24 3 24 1 47 143 6 33 17 80 26 104 15 44 20 136 9 165 -8 21 -43 20 -51 -1 -4 -10 -16 -34 -28 -53 -12 -19 -41 -68 -65 -107 -44 -76 -60 -89 -60 -50 0 12 -8 45 -18 73 -11 27 -22 69 -26 93 -4 24 -11 52 -17 62 -13 24 -57 25 -66 2z"/>
<path d="M7470 10783 c-29 -24 -59 -60 -195 -228 -110 -137 -198 -228 -244 -251 -25 -13 -47 -24 -48 -24 -2 0 -3 11 -3 24 0 42 -27 59 -85 54 -58 -5 -125 -50 -153 -103 l-15 -30 -13 30 c-7 17 -13 43 -14 59 0 41 -37 114 -62 122 -12 4 -26 0 -35 -9 -21 -21 -9 -67 16 -67 23 0 41 -76 50 -210 6 -82 7 -85 31 -85 22 0 26 5 31 40 6 46 45 113 97 168 27 28 44 37 69 37 l33 0 0 -81 c0 -92 5 -83 -144 -254 -89 -103 -181 -233 -171 -243 4 -4 21 11 39 32 53 67 287 330 312 351 13 12 24 28 24 37 0 27 89 118 116 118 24 0 24 -1 24 -106 0 -103 1 -106 29 -135 34 -33 79 -38 152 -15 24 7 63 19 87 25 45 13 87 45 77 61 -3 6 -16 6 -31 0 -53 -21 -195 -51 -221 -48 -28 3 -28 3 -33 117 -6 108 -7 115 -33 137 l-27 23 68 73 c37 40 83 93 103 118 19 25 69 88 110 140 91 114 115 150 101 150 -6 0 -25 -12 -42 -27z"/>
<path d="M20453 10770 c-28 -16 -54 -39 -58 -50 -5 -17 -15 -20 -68 -20 -52 0 -107 -15 -329 -89 -291 -98 -417 -158 -644 -307 -213 -139 -325 -269 -488 -567 -81 -147 -188 -479 -207 -642 -25 -209 -30 -323 -19 -420 6 -55 13 -125 16 -155 6 -63 37 -235 60 -330 9 -36 22 -93 29 -126 17 -78 65 -192 114 -269 21 -33 55 -89 76 -125 49 -81 150 -207 207 -256 23 -21 75 -68 113 -105 107 -103 381 -257 495 -280 49 -9 60 -15 60 -31 0 -17 5 -19 33 -15 21 3 74 -8 157 -33 330 -100 396 -109 790 -109 179 -1 352 4 385 9 151 23 195 33 284 65 131 46 386 165 551 258 74 41 245 182 321 265 57 61 184 244 221 317 8 17 39 73 69 125 100 175 124 251 149 460 24 202 24 328 0 464 -12 70 -32 151 -45 179 -12 29 -26 68 -30 87 -10 49 -43 125 -82 190 -18 30 -33 62 -33 70 0 8 -21 58 -46 110 -26 52 -60 122 -76 155 -15 33 -52 87 -80 120 -28 33 -71 91 -96 130 -74 116 -145 198 -244 281 -191 164 -349 276 -442 316 -39 16 -91 39 -116 49 -82 36 -219 75 -702 201 -41 11 -48 16 -48 38 0 14 -7 36 -16 48 -14 20 -23 22 -112 22 -89 0 -101 -3 -149 -30z m201 -16 c9 -3 16 -17 16 -30 0 -19 -5 -24 -25 -24 -14 0 -25 5 -25 10 0 6 -13 10 -30 10 -16 0 -30 -4 -30 -10 0 -5 -20 -10 -45 -10 -33 0 -43 3 -39 13 13 34 128 60 178 41z m-238 -134 c33 -36 40 -39 97 -42 60 -3 61 -3 70 -38 9 -36 2 -543 -11 -739 l-7 -105 -36 32 c-41 35 -66 41 -76 15 -4 -11 4 -25 25 -43 18 -15 32 -31 32 -36 0 -5 18 -26 40 -47 51 -50 73 -47 81 13 11 80 67 173 130 215 30 19 39 32 37 48 -6 39 -34 29 -102 -37 l-68 -65 6 107 c13 224 17 520 8 597 -7 65 -7 82 5 88 8 5 29 22 47 38 40 34 52 35 131 9 33 -11 119 -34 190 -50 284 -67 571 -173 681 -253 179 -130 212 -156 278 -214 38 -35 73 -63 78 -63 11 0 166 -197 188 -240 10 -19 47 -70 82 -112 35 -42 73 -96 85 -120 58 -114 123 -255 123 -266 0 -7 18 -46 41 -87 22 -41 55 -118 73 -172 18 -54 38 -111 44 -128 39 -108 50 -399 24 -615 -18 -153 -40 -221 -116 -361 -185 -341 -271 -462 -406 -574 -40 -33 -89 -74 -109 -91 -45 -39 -102 -73 -256 -151 -305 -156 -429 -201 -640 -234 -131 -20 -160 -21 -440 -15 -177 4 -329 12 -370 20 -141 27 -373 89 -447 121 l-37 15 19 37 c11 21 49 99 84 173 64 133 153 290 265 465 83 130 123 199 171 295 24 47 58 108 76 137 18 29 45 75 59 103 l25 50 108 0 c152 0 235 29 323 114 39 37 71 79 83 106 32 77 34 84 47 123 7 20 16 37 20 37 18 0 -6 129 -36 195 -37 80 -59 103 -170 173 l-81 51 -149 0 c-177 -1 -236 -14 -300 -71 -45 -40 -106 -145 -125 -218 -6 -25 -19 -69 -27 -98 -17 -58 -14 -97 13 -187 15 -52 25 -66 75 -108 32 -26 83 -59 113 -73 l56 -25 -21 -42 c-12 -23 -43 -79 -70 -124 -27 -45 -59 -103 -71 -130 -24 -56 -93 -174 -188 -323 -150 -237 -209 -343 -290 -522 -29 -65 -58 -118 -64 -118 -71 3 -291 99 -390 171 -22 16 -45 29 -52 29 -16 0 -249 218 -301 283 -45 54 -104 141 -167 242 -61 99 -105 201 -131 308 -97 389 -124 690 -87 957 25 176 39 231 109 430 74 207 145 342 276 518 81 109 159 179 317 283 222 146 349 205 590 270 58 15 96 29 85 30 -20 1 81 37 180 64 87 24 111 20 151 -25z m154 20 c0 -16 -7 -20 -37 -20 -22 0 -49 9 -63 20 l-25 20 63 0 c55 0 62 -2 62 -20z m80 10 c0 -5 -7 -10 -15 -10 -8 0 -15 5 -15 10 0 6 7 10 15 10 8 0 15 -4 15 -10z m4 -1596 c28 -11 17 -25 -41 -50 -32 -14 -89 -41 -126 -61 -38 -19 -70 -33 -73 -31 -11 12 67 95 102 110 22 9 50 20 64 26 29 13 52 14 74 6z m251 -28 l35 -24 -29 -7 c-16 -3 -46 -19 -67 -35 -22 -16 -43 -30 -48 -30 -5 0 -55 -26 -110 -59 -119 -69 -319 -152 -333 -137 -12 12 12 69 40 96 56 53 322 174 405 185 35 5 52 12 52 21 0 20 14 17 55 -10z m117 -75 c32 -25 76 -107 84 -157 5 -35 3 -41 -18 -51 -29 -13 -243 -6 -275 9 -32 16 -83 -17 -107 -69 -16 -33 -33 -49 -90 -81 -93 -52 -245 -100 -257 -81 -13 21 -29 81 -29 111 0 29 40 60 95 74 66 16 205 78 291 129 50 30 94 55 98 55 4 0 27 14 51 31 38 27 81 44 121 48 6 1 22 -8 36 -18z m-92 -265 c-19 -7 -43 -17 -52 -21 -13 -5 -18 -3 -18 9 0 19 -41 22 -72 5 -22 -12 -34 -6 -23 10 4 7 45 11 103 11 92 -1 95 -2 62 -14z m159 -58 c-47 -121 -46 -121 -134 -145 -195 -52 -305 -74 -305 -60 0 3 13 41 30 84 l30 78 44 2 c39 1 235 61 276 84 8 5 29 9 47 9 l32 0 -20 -52z m-474 -140 c-15 -34 -32 -75 -38 -90 -6 -16 -16 -28 -22 -28 -18 0 -108 48 -138 73 l-29 24 99 32 c54 17 109 38 123 46 14 7 26 12 28 10 2 -2 -8 -32 -23 -67z m312 -83 c-66 -59 -307 -90 -307 -40 0 9 23 15 73 18 39 3 108 14 152 25 108 26 115 26 82 -3z"/>
<path d="M19740 10150 c-47 -16 -93 -30 -102 -30 -35 0 -48 -39 -48 -142 0 -80 -3 -98 -15 -98 -8 0 -15 -9 -15 -20 0 -11 7 -20 15 -20 12 0 15 -16 15 -84 0 -97 5 -116 31 -116 34 0 49 38 49 127 0 100 -1 99 135 110 70 6 90 11 90 23 0 12 -19 15 -112 15 l-113 -1 1 74 c1 40 -2 76 -5 80 -11 10 176 62 234 65 48 2 55 5 55 22 0 18 -7 20 -65 22 -49 1 -86 -5 -150 -27z"/>
<path d="M19740 9680 c0 -18 7 -20 85 -20 85 0 85 0 71 -22 -8 -13 -19 -53 -25 -89 -6 -36 -18 -80 -27 -97 -18 -38 -10 -72 16 -72 26 0 44 40 59 130 7 41 17 87 21 101 5 17 4 31 -3 38 -8 8 12 11 76 11 80 0 87 2 87 20 0 19 -7 20 -180 20 -173 0 -180 -1 -180 -20z"/>
<path d="M21362 9155 c-39 -33 -67 -94 -81 -180 -7 -38 -16 -89 -21 -113 -12 -52 -13 -152 -1 -170 5 -8 17 -12 27 -10 19 3 28 31 41 121 4 29 9 37 27 37 11 0 31 3 43 6 19 5 27 -3 60 -70 45 -91 55 -96 194 -96 92 0 99 1 99 20 0 18 -7 20 -67 20 -133 0 -138 3 -183 89 l-40 76 27 20 c48 34 138 118 145 134 16 38 8 73 -26 107 -34 34 -35 34 -124 34 -82 0 -93 -2 -120 -25z m202 -36 c14 -11 26 -28 26 -38 0 -35 -176 -181 -218 -181 -19 0 -23 3 -16 18 4 9 9 49 10 89 2 110 20 129 125 132 33 1 54 -5 73 -20z"/>
<path d="M19644 8963 c-8 -21 -20 -78 -26 -128 -5 -49 -18 -128 -29 -175 -38 -173 -40 -195 -32 -235 7 -33 13 -41 36 -43 29 -4 31 1 41 98 4 30 10 87 16 125 5 39 14 119 20 179 9 103 17 134 27 111 2 -5 34 -68 71 -140 86 -166 102 -170 175 -45 l27 45 0 -60 c0 -69 21 -187 47 -266 16 -47 22 -54 47 -57 33 -4 33 0 -4 103 -28 77 -39 285 -20 374 16 75 8 114 -23 109 -23 -3 -64 -75 -99 -174 -10 -27 -26 -60 -36 -73 -19 -24 -19 -24 -77 90 -84 168 -104 199 -126 199 -12 0 -24 -13 -35 -37z"/>
<path d="M20959 8025 c-50 -27 -126 -209 -159 -380 -6 -33 -16 -77 -21 -99 -9 -31 -8 -42 4 -54 31 -30 53 7 72 121 l6 38 37 -29 c20 -16 55 -35 77 -42 22 -7 72 -28 112 -46 83 -39 117 -49 133 -39 19 12 -11 36 -95 75 -44 20 -96 43 -115 50 -59 22 -100 51 -100 70 0 26 53 68 103 80 147 39 201 118 148 217 -20 39 -52 53 -116 53 -33 -1 -72 -7 -86 -15z m132 -38 c19 -15 39 -50 39 -71 0 -32 -50 -75 -108 -91 -31 -9 -72 -25 -89 -35 -21 -12 -33 -15 -33 -8 0 35 56 172 79 192 29 25 87 32 112 13z"/>
<path d="M20397 7834 c-4 -4 -7 -46 -7 -93 0 -47 -5 -106 -11 -131 -22 -98 20 -120 78 -40 55 74 105 131 111 126 3 -3 -1 -44 -8 -90 -7 -46 -10 -95 -6 -110 8 -33 51 -46 74 -22 16 16 16 18 -2 31 -15 12 -17 22 -12 67 21 176 19 228 -10 228 -9 0 -47 -32 -85 -72 l-68 -71 -3 89 c-3 81 -5 89 -23 92 -12 2 -24 0 -28 -4z"/>
<path d="M4803 10668 c-14 -20 -40 -116 -52 -193 -6 -38 -15 -99 -21 -135 -6 -36 -14 -279 -17 -541 l-6 -476 -86 -6 c-47 -4 -147 -11 -221 -17 -503 -38 -783 -50 -1420 -60 -300 -4 -593 -13 -652 -19 -155 -16 -491 -32 -823 -41 -229 -6 -300 -11 -340 -24 -60 -20 -74 -31 -57 -48 10 -10 26 -8 75 6 51 15 125 19 437 26 350 8 508 16 805 40 66 6 408 15 760 20 351 6 648 13 660 15 11 3 103 10 205 16 208 11 419 26 560 37 52 5 96 7 98 6 2 -1 -2 -132 -7 -290 -6 -159 -11 -392 -11 -519 0 -246 -14 -593 -31 -765 -15 -151 -15 -153 -2 -157 22 -8 43 44 54 128 17 139 29 436 38 979 10 544 15 630 37 630 8 0 14 9 14 20 0 11 -7 20 -15 20 -13 0 -15 56 -15 443 0 470 8 593 51 789 21 92 21 128 1 128 -5 0 -14 -6 -19 -12z"/>
<path d="M6114 10604 c-48 -63 -65 -248 -39 -419 48 -314 68 -696 46 -878 -22 -176 -60 -353 -97 -449 -42 -108 -49 -118 -80 -118 -14 0 -25 -8 -29 -20 -8 -27 13 -63 33 -57 10 2 23 6 31 8 23 7 53 -57 73 -159 17 -84 19 -123 14 -297 -3 -110 -10 -222 -15 -250 -5 -27 -26 -136 -45 -242 -20 -106 -50 -247 -66 -315 -33 -133 -85 -439 -95 -558 -6 -78 7 -229 27 -290 31 -98 121 -262 188 -344 95 -114 192 -187 217 -162 4 4 -34 48 -85 99 -124 126 -146 155 -207 282 -79 167 -80 169 -80 355 1 181 24 337 90 620 19 80 41 181 49 225 8 44 24 127 35 185 36 189 44 272 43 447 -1 228 -29 371 -83 429 -19 20 -19 24 -6 50 57 110 97 256 133 489 31 194 15 644 -32 907 -29 169 -20 371 20 432 17 27 17 27 44 7 15 -11 34 -31 42 -45 8 -17 22 -26 37 -26 13 0 23 2 23 5 0 18 -34 66 -65 94 -50 43 -86 42 -121 -5z"/>
<path d="M1603 10604 c-5 -14 -22 -15 -137 -10 -99 5 -137 4 -156 -6 -36 -19 -33 -43 5 -41 93 5 127 5 193 -2 61 -7 72 -10 67 -24 -4 -9 -11 -38 -16 -65 -11 -60 -44 -166 -62 -203 -7 -15 -24 -64 -37 -108 -12 -44 -26 -84 -30 -90 -13 -17 -21 -89 -11 -103 16 -25 45 -9 53 28 9 48 45 171 64 223 40 107 56 157 70 217 8 36 20 77 25 92 l11 28 192 2 c162 3 191 5 191 18 0 13 -28 15 -177 18 -166 2 -177 4 -183 22 -8 25 -53 27 -62 4z"/>
<path d="M8345 10595 c-5 -2 -22 -6 -37 -9 -19 -4 -28 -13 -28 -26 0 -23 13 -25 90 -10 45 8 58 7 79 -6 l25 -17 -34 -29 c-19 -15 -38 -28 -42 -28 -5 0 -33 -16 -63 -36 -44 -30 -55 -42 -55 -64 0 -34 24 -51 102 -74 72 -21 166 -21 196 0 12 8 22 18 22 22 0 4 -35 7 -78 8 -75 0 -182 26 -182 44 0 7 42 36 100 68 87 47 105 113 39 147 -25 13 -107 19 -134 10z"/>
<path d="M9464 10570 c-55 -22 -138 -166 -159 -275 -16 -84 -20 -242 -6 -263 11 -18 45 -11 48 8 1 8 5 36 8 63 7 49 19 61 30 27 4 -11 25 -30 48 -43 38 -20 56 -22 202 -22 136 0 160 2 160 15 0 12 -26 16 -148 22 -149 8 -201 21 -214 54 -10 28 21 79 94 151 91 91 107 121 98 182 -10 65 -37 91 -94 90 -25 0 -55 -4 -67 -9z m94 -42 c7 -7 12 -30 12 -52 0 -46 -37 -98 -122 -176 -52 -46 -54 -44 -36 25 10 36 10 50 0 66 -11 18 -8 27 26 77 28 41 47 59 68 63 16 4 31 7 35 8 3 0 10 -4 17 -11z m-161 -290 c-3 -8 -6 -5 -6 6 -1 11 2 17 5 13 3 -3 4 -12 1 -19z m-20 -60 c-3 -8 -6 -5 -6 6 -1 11 2 17 5 13 3 -3 4 -12 1 -19z"/>
<path d="M11352 10468 c-86 -73 -121 -126 -133 -201 -7 -44 -7 -68 2 -89 17 -40 79 -70 160 -76 59 -4 71 -1 115 24 27 15 53 34 57 41 11 18 54 16 88 -4 31 -19 37 -50 19 -97 -12 -34 -3 -58 23 -54 26 4 52 83 43 131 -11 58 -113 97 -256 97 -62 0 -70 -2 -70 -19 0 -15 10 -20 52 -25 l51 -7 -34 -21 c-42 -26 -119 -26 -164 0 -26 16 -30 25 -33 66 -4 64 41 139 120 201 69 54 98 58 98 16 0 -16 7 -34 15 -41 38 -32 64 60 27 93 -12 11 -36 17 -68 17 -46 0 -55 -5 -112 -52z"/>
<path d="M8115 10426 c-30 -21 -12 -49 26 -41 22 5 36 2 50 -11 25 -22 24 -35 -6 -93 -37 -74 -89 -105 -156 -95 -39 7 -39 7 -39 58 0 82 -37 103 -67 39 -23 -51 -82 -121 -115 -139 -38 -20 -75 -17 -96 6 -13 16 -18 46 -22 133 -5 111 -5 112 -30 112 -25 0 -25 0 -28 -108 -2 -96 0 -112 19 -143 54 -88 165 -83 247 10 l31 36 25 -25 c22 -22 34 -25 91 -25 37 0 78 6 93 14 61 32 122 127 122 190 0 67 -93 120 -145 82z"/>
<path d="M2737 10373 c-4 -3 -7 -34 -7 -67 0 -59 -16 -131 -59 -271 -16 -51 -18 -71 -10 -81 24 -30 48 -13 119 81 76 100 145 175 163 175 6 0 7 -19 3 -52 -21 -166 -20 -174 7 -201 40 -41 81 -43 177 -8 144 53 266 139 237 167 -3 4 -46 -16 -94 -43 -119 -68 -224 -107 -258 -99 -28 7 -28 7 -21 84 4 42 9 100 12 128 7 60 -7 94 -38 94 -30 0 -122 -74 -171 -137 -23 -29 -43 -49 -45 -43 -2 5 6 43 17 85 21 74 27 148 15 179 -6 16 -35 22 -47 9z"/>
<path d="M8717 10334 c-4 -4 -7 -39 -7 -78 -1 -65 -4 -89 -25 -183 -7 -29 -5 -33 12 -33 23 0 53 30 53 52 0 28 112 138 155 153 l40 13 5 -95 c6 -105 16 -123 74 -123 46 0 158 38 183 62 42 39 20 64 -30 36 -38 -21 -142 -55 -155 -50 -8 2 -12 29 -12 82 0 43 -5 91 -10 106 -10 25 -13 26 -69 22 -50 -3 -67 -10 -108 -42 l-48 -38 -5 59 c-4 49 -8 58 -25 61 -12 2 -24 0 -28 -4z"/>
<path d="M10180 10283 c0 -41 16 -43 291 -41 227 3 264 5 264 18 0 13 -34 16 -220 21 -121 3 -246 9 -277 14 -54 7 -58 6 -58 -12z"/>
<path d="M12985 10290 c-38 -4 -245 -8 -460 -9 -398 -2 -460 -8 -460 -41 0 -11 9 -14 30 -12 17 1 271 7 565 12 781 15 925 22 925 40 0 13 -37 15 -265 16 -146 1 -296 -2 -335 -6z"/>
<path d="M13558 10109 c-20 -11 -24 -34 -8 -44 5 -3 27 -1 49 6 22 6 51 9 65 5 50 -12 27 -59 -64 -130 -53 -40 -60 -50 -60 -81 0 -40 1 -40 120 -50 142 -13 174 -12 178 7 4 19 -13 23 -142 38 -49 5 -91 12 -94 15 -3 2 8 15 24 27 16 12 48 41 72 65 35 36 42 50 42 83 0 53 -26 70 -105 70 -33 0 -68 -5 -77 -11z"/>
<path d="M10240 10080 c0 -19 7 -20 249 -20 233 0 250 1 272 20 24 19 24 19 -248 20 -266 0 -273 0 -273 -20z"/>
<path d="M13304 10026 c-3 -8 10 -34 29 -60 80 -104 122 -264 116 -438 -4 -90 -6 -98 -39 -147 -19 -28 -45 -54 -57 -57 -27 -7 -29 -17 -8 -34 40 -33 120 46 151 148 29 97 -2 342 -58 459 -51 104 -118 170 -134 129z"/>
<path d="M12341 9996 c-31 -33 -98 -209 -128 -336 -50 -213 -47 -337 10 -423 50 -74 157 -140 157 -97 0 6 -23 31 -51 57 -76 72 -89 99 -96 197 -5 71 -1 104 22 208 31 137 94 318 126 361 37 50 3 79 -40 33z"/>
<path d="M13100 9937 c-81 -32 -133 -90 -154 -171 -19 -77 -20 -177 -3 -261 12 -54 15 -60 37 -60 23 0 26 5 32 60 7 54 26 263 31 325 2 19 14 30 57 51 30 15 72 29 93 32 32 5 37 3 37 -15 0 -35 -40 -77 -100 -108 -47 -24 -60 -36 -70 -64 -14 -42 -4 -65 49 -116 20 -20 49 -53 64 -73 46 -62 143 -97 175 -65 20 20 15 41 -9 35 -38 -10 -96 22 -133 72 -19 25 -48 59 -66 74 -44 40 -37 64 30 102 71 40 124 107 116 148 -3 17 -11 36 -17 44 -17 20 -106 15 -169 -10z"/>
<path d="M2142 9908 c-7 -7 -12 -39 -12 -74 0 -57 -3 -67 -39 -114 -22 -29 -56 -66 -75 -82 -71 -58 -28 -81 46 -25 24 18 61 59 83 90 33 49 40 67 43 122 5 79 -14 115 -46 83z"/>
<path d="M12522 9748 c-5 -7 -12 -62 -16 -123 -4 -60 -7 -126 -9 -145 -2 -31 1 -35 21 -35 18 0 27 8 36 35 13 38 78 141 99 158 7 5 27 12 45 15 l32 7 0 -58 c0 -31 -4 -73 -10 -92 -13 -45 -4 -70 24 -70 20 0 25 7 31 48 5 26 9 77 9 113 1 90 -10 102 -88 97 -53 -4 -62 -8 -92 -41 l-34 -37 0 58 c0 69 -22 101 -48 70z"/>
<path d="M9983 8848 c-5 -7 -18 -38 -27 -68 -10 -30 -44 -107 -76 -170 -60 -119 -77 -173 -65 -209 6 -19 14 -21 83 -21 72 0 124 8 165 25 16 7 15 3 -4 -41 -11 -27 -22 -69 -22 -94 -2 -42 0 -45 23 -45 22 0 26 5 31 45 7 51 36 132 73 207 15 28 23 58 20 67 -12 30 -41 17 -65 -29 -25 -46 -29 -49 -140 -84 -19 -6 -52 -11 -72 -11 -33 0 -37 3 -37 25 0 14 27 78 59 143 65 129 94 208 89 243 -4 27 -21 35 -35 17z"/>
<path d="M3489 8786 c-91 -32 -139 -82 -139 -145 0 -42 9 -61 30 -61 21 0 30 19 30 65 0 63 66 100 195 110 80 5 94 4 122 -14 18 -11 35 -32 39 -47 8 -31 -19 -63 -89 -103 -25 -14 -85 -48 -133 -76 -124 -71 -141 -89 -149 -159 -9 -67 -2 -143 14 -159 22 -22 36 12 39 103 3 75 7 91 25 108 19 17 98 65 237 144 19 11 52 36 73 56 29 29 37 43 37 73 0 41 -27 82 -70 104 -37 19 -210 20 -261 1z"/>
<path d="M11591 8771 c-17 -16 -31 -36 -31 -45 0 -26 31 -32 49 -9 21 27 53 43 85 43 41 0 39 -17 -9 -57 -61 -50 -59 -76 9 -112 59 -31 116 -82 116 -104 0 -22 -81 -33 -129 -17 -45 15 -75 11 -79 -11 -4 -22 59 -39 147 -39 63 0 75 3 96 24 20 20 23 29 16 53 -5 16 -14 38 -21 49 -13 21 -86 72 -124 87 -19 7 -18 11 22 47 23 22 43 45 43 52 5 52 -18 68 -97 68 -55 0 -66 -3 -93 -29z"/>
<path d="M6715 8768 c-10 -32 -30 -186 -45 -338 -5 -52 -14 -124 -20 -160 -21 -126 -22 -139 -16 -165 5 -20 12 -25 28 -23 18 3 25 20 49 113 58 225 79 325 79 380 0 48 -3 58 -20 62 -21 6 -23 13 -10 53 7 24 8 22 29 -23 11 -27 21 -57 21 -67 0 -11 6 -39 14 -62 8 -24 22 -69 32 -101 30 -99 90 -105 137 -14 15 30 27 57 27 61 0 4 16 39 35 79 l35 72 0 -172 c0 -218 21 -318 65 -318 22 0 23 11 6 85 -6 25 -10 147 -11 272 0 124 -3 233 -6 242 -14 37 -62 11 -89 -49 -9 -22 -32 -71 -50 -110 -18 -38 -36 -81 -40 -94 -4 -14 -15 -37 -25 -53 l-17 -29 -10 28 c-10 26 -39 128 -62 219 -6 22 -24 59 -41 82 -24 33 -36 42 -60 42 -17 0 -32 -6 -35 -12z"/>
<path d="M2065 8524 c-16 -9 -59 -44 -94 -78 -48 -46 -73 -81 -101 -141 -37 -80 -45 -105 -96 -325 -30 -130 -74 -292 -81 -300 -3 -3 -3 35 -1 83 4 70 2 90 -10 94 -28 11 -44 -23 -49 -109 -4 -67 -2 -91 11 -117 15 -27 22 -32 49 -29 32 3 33 5 68 118 29 94 70 255 94 376 4 20 13 22 97 26 83 4 101 8 166 42 65 33 76 42 94 84 36 82 12 267 -37 286 -28 11 -79 6 -110 -10z m95 -60 c6 -14 10 -62 10 -107 0 -100 -9 -116 -93 -158 -56 -29 -66 -31 -126 -25 -36 4 -67 8 -69 10 -5 6 41 121 64 156 23 37 93 106 134 134 37 24 69 21 80 -10z"/>
<path d="M8733 8485 c-73 -18 -126 -63 -162 -138 -16 -34 -32 -72 -36 -84 -3 -13 -13 -23 -22 -23 -12 0 -14 -7 -9 -33 10 -55 -81 -318 -148 -426 -46 -74 -55 -69 -64 35 -5 70 -22 95 -47 74 -17 -14 -21 -115 -5 -125 6 -3 10 -19 10 -34 0 -37 17 -51 60 -51 41 0 60 17 106 95 32 53 85 189 124 315 l23 76 91 -4 c65 -3 101 0 126 10 43 19 136 101 155 139 18 34 19 105 2 139 -23 46 -104 60 -204 35z m138 -45 c30 -16 26 -93 -6 -136 -43 -56 -103 -91 -170 -98 -78 -9 -119 5 -109 37 18 59 60 134 87 157 51 41 155 62 198 40z"/>
<path d="M11247 8421 c-42 -27 -91 -102 -116 -175 -27 -81 -27 -202 1 -220 27 -17 50 14 65 85 7 34 14 64 17 66 6 6 172 -75 186 -92 23 -28 130 -32 130 -5 0 5 -19 15 -42 21 -24 7 -51 19 -61 27 -9 9 -52 32 -93 52 l-76 37 65 27 c36 16 79 41 97 58 29 26 32 33 27 66 -9 54 -37 72 -111 72 -43 0 -69 -6 -89 -19z m127 -27 c21 -8 20 -47 -1 -67 -15 -13 -106 -57 -118 -57 -2 0 -1 16 2 35 4 25 2 35 -7 35 -20 0 29 48 54 53 35 7 54 7 70 1z"/>
<path d="M7503 8385 c-15 -40 17 -45 283 -45 208 0 254 3 264 15 18 21 -6 24 -265 28 -126 2 -240 7 -252 12 -17 5 -24 3 -30 -10z"/>
<path d="M10675 8350 c-3 -5 -35 -10 -69 -10 -76 0 -92 -13 -82 -68 3 -20 10 -62 15 -92 5 -30 17 -77 28 -105 16 -44 22 -50 47 -50 25 0 30 5 41 45 7 25 19 77 26 115 20 118 18 115 100 115 71 0 71 0 57 -22 -8 -13 -18 -39 -21 -58 -4 -19 -11 -53 -16 -75 -34 -152 -34 -175 0 -175 11 0 20 9 23 23 20 105 29 145 37 165 5 13 9 36 9 52 0 20 11 40 35 63 61 59 52 67 -74 67 -63 0 -112 4 -116 10 -3 6 -12 10 -20 10 -8 0 -17 -4 -20 -10z m-31 -77 c-3 -16 -10 -41 -15 -57 -5 -16 -9 -47 -9 -69 0 -29 -3 -38 -11 -30 -13 13 -51 162 -43 174 3 5 23 9 45 9 38 0 39 -1 33 -27z"/>
<path d="M9312 8287 c-6 -6 -13 -23 -17 -37 -14 -58 84 -100 105 -44 14 36 13 48 -9 72 -20 24 -63 29 -79 9z"/>
<path d="M2442 8244 c4 -24 58 -33 243 -40 124 -5 185 3 185 24 0 5 -53 12 -117 15 -65 4 -162 10 -217 13 -93 7 -98 6 -94 -12z"/>
<path d="M7560 8220 c0 -21 2 -21 239 -18 132 2 243 6 247 11 18 18 -23 22 -247 25 -237 3 -239 3 -239 -18z"/>
<path d="M9665 8150 c-17 -27 18 -30 389 -30 377 0 406 2 406 32 0 12 -788 10 -795 -2z"/>
<path d="M9876 8044 c-60 -19 -96 -42 -96 -60 0 -25 26 -26 67 -4 68 35 243 55 243 27 0 -20 -41 -53 -75 -61 -38 -10 -55 -24 -55 -47 0 -15 8 -19 40 -19 54 0 104 -22 140 -62 60 -65 36 -86 -113 -95 -99 -6 -102 -5 -86 13 17 20 32 54 23 54 -2 0 -20 -6 -39 -14 -45 -19 -59 -46 -38 -75 15 -22 20 -22 143 -19 112 3 132 6 157 24 21 16 29 31 31 61 3 33 -3 46 -33 81 -20 23 -52 47 -70 53 l-33 12 29 28 c31 29 40 84 17 107 -17 17 -191 14 -252 -4z"/>
<path d="M3380 7960 c0 -18 5 -21 38 -18 25 2 37 8 37 18 0 10 -12 16 -37 18 -33 3 -38 0 -38 -18z"/>
<path d="M4665 7443 c-26 -32 -56 -76 -67 -98 -12 -22 -38 -63 -59 -91 -42 -57 -72 -122 -65 -140 7 -19 -180 -29 -454 -24 -409 8 -2602 6 -2632 -3 -19 -5 -28 -14 -28 -28 0 -20 3 -20 68 -12 81 10 2137 9 2552 -1 358 -8 572 6 578 38 3 11 -3 25 -13 32 -22 17 -15 35 45 119 27 38 50 74 50 79 0 5 25 43 56 83 54 70 64 103 31 103 -8 0 -36 -26 -62 -57z"/>
<path d="M8774 7116 c-29 -22 -9 -31 69 -32 80 0 142 -24 153 -57 9 -28 -33 -59 -138 -103 -90 -38 -111 -53 -122 -91 -6 -17 -1 -29 20 -48 26 -24 31 -25 178 -25 124 0 157 3 185 18 49 24 54 47 10 38 -61 -12 -253 -18 -294 -9 -23 5 -40 15 -40 23 0 8 37 30 88 51 98 42 164 89 173 124 15 61 -85 125 -197 125 -41 0 -72 -5 -85 -14z"/>
<path d="M9253 7069 c-7 -7 -13 -22 -13 -32 0 -17 5 -18 35 -13 20 4 45 4 57 0 19 -6 20 -11 15 -78 -20 -231 -20 -221 -3 -235 30 -25 44 2 50 102 3 51 8 118 12 150 l6 57 59 0 59 0 0 -137 c0 -149 5 -183 26 -183 26 0 34 40 34 179 l0 140 48 3 c34 2 47 7 47 18 0 12 -27 16 -160 21 -88 4 -182 10 -210 14 -36 5 -54 3 -62 -6z"/>
<path d="M7620 6780 c-22 -40 27 -83 70 -60 19 10 20 8 20 -33 0 -61 -36 -128 -82 -150 -51 -25 -152 -15 -192 20 -29 24 -29 26 -17 76 12 54 6 71 -24 65 -11 -2 -25 -26 -40 -69 -12 -36 -26 -72 -30 -80 -47 -79 -54 -86 -77 -82 -43 8 -53 38 -58 178 -5 130 -5 130 -30 130 -25 0 -25 0 -28 -116 -2 -97 1 -123 17 -162 26 -60 56 -79 117 -75 45 3 50 6 72 43 12 22 26 47 31 55 8 12 16 10 48 -13 35 -24 48 -27 126 -27 104 0 145 17 183 73 36 54 50 147 29 191 -26 55 -113 78 -135 36z"/>
<path d="M7962 6723 c3 -16 19 -18 193 -18 162 0 190 2 190 15 0 13 -29 15 -193 18 -181 2 -193 1 -190 -15z"/>
<path d="M8707 6590 c-45 -8 -51 -14 -43 -36 5 -13 13 -15 44 -9 20 4 237 11 482 14 386 5 445 8 445 21 0 13 -57 15 -445 16 -245 1 -462 -2 -483 -6z"/>
<path d="M7983 6549 c-32 -8 -43 -15 -43 -30 0 -22 -1 -22 110 -9 61 8 104 7 153 -2 81 -14 107 -2 61 28 -22 15 -50 19 -133 21 -58 1 -125 -3 -148 -8z"/>
<path d="M8840 6380 c0 -19 7 -20 145 -20 l144 0 -19 -44 c-10 -24 -30 -93 -45 -153 -15 -59 -33 -123 -42 -141 -19 -44 -10 -84 19 -80 23 3 28 18 73 198 14 58 36 131 48 163 l22 57 145 0 c80 0 152 5 160 10 37 24 -23 30 -332 30 -311 0 -318 0 -318 -20z"/>
<path d="M6760 5501 c0 -5 19 -26 43 -47 23 -21 82 -83 131 -137 68 -76 85 -101 75 -108 -8 -5 -18 -9 -22 -9 -5 0 -7 -10 -5 -22 3 -23 16 -27 55 -14 18 6 29 -2 63 -48 l42 -56 -60 -65 c-72 -79 -79 -99 -47 -131 21 -21 33 -24 97 -24 40 1 92 5 116 9 43 8 43 8 74 -38 60 -88 157 -208 182 -224 l25 -17 -16 38 c-8 20 -49 85 -89 144 -41 58 -74 110 -74 115 0 4 14 16 30 25 53 30 29 48 -40 29 -21 -6 -30 1 -74 59 -47 61 -50 68 -47 117 2 44 -2 56 -26 83 -19 20 -42 33 -69 38 -36 6 -54 21 -148 123 -58 64 -122 129 -140 143 -34 25 -76 35 -76 17z m400 -363 c0 -6 -7 -5 -15 2 -8 7 -15 17 -15 22 0 6 7 5 15 -2 8 -7 15 -17 15 -22z m57 -246 c-42 -13 -147 -8 -147 7 0 4 23 33 51 64 l51 58 44 -58 43 -58 -42 -13z"/>
<path d="M14822 5238 c-200 -218 -258 -273 -265 -254 -12 29 -69 56 -122 56 -55 0 -115 -29 -115 -55 0 -23 28 -30 48 -12 29 26 78 31 112 11 53 -32 39 -62 -51 -111 -53 -29 -69 -43 -69 -60 0 -12 7 -26 15 -30 12 -7 6 -17 -30 -53 -28 -27 -45 -38 -45 -29 0 9 -10 25 -23 37 -21 20 -34 22 -123 22 -78 0 -107 -4 -134 -19 -45 -23 -91 -97 -97 -156 -5 -40 -3 -45 15 -45 20 0 20 -1 5 -57 -8 -32 -21 -65 -29 -74 -8 -8 -14 -27 -14 -41 0 -15 -9 -47 -20 -73 -25 -58 -25 -76 0 -82 17 -5 14 -12 -31 -72 -28 -36 -54 -66 -59 -66 -7 0 -128 149 -253 313 -53 68 -53 67 -11 160 19 42 28 52 48 52 13 0 41 7 62 16 34 15 37 17 19 24 -21 8 -252 -4 -296 -15 -23 -6 -36 6 -126 107 -55 63 -112 134 -126 158 -15 25 -45 65 -67 89 -22 25 -40 48 -40 53 0 17 -41 48 -65 48 -18 0 -25 -5 -25 -20 0 -11 7 -20 15 -20 8 0 25 -17 39 -38 13 -20 31 -44 41 -52 10 -8 37 -45 61 -82 24 -36 79 -107 123 -156 l80 -89 -82 -12 c-45 -6 -100 -12 -122 -14 -28 -1 -40 -7 -40 -17 0 -12 18 -15 102 -15 l102 0 -6 -45 c-3 -25 -22 -85 -41 -135 -35 -86 -70 -135 -98 -135 -20 0 -17 24 6 45 29 26 25 35 -14 35 -49 0 -73 -38 -57 -91 11 -36 14 -39 49 -39 42 0 94 28 117 63 21 33 85 193 85 214 0 35 22 94 33 91 7 -2 38 -31 70 -65 l59 -62 -17 -53 c-25 -76 -43 -108 -61 -108 -19 0 -14 -20 8 -34 32 -20 62 7 87 78 13 37 25 66 26 64 2 -2 67 -83 144 -182 l140 -179 -69 -77 c-39 -42 -70 -80 -70 -83 0 -21 34 1 94 62 l69 70 55 -77 c31 -42 114 -165 185 -272 111 -167 217 -307 217 -286 0 26 -277 467 -391 622 l-37 50 70 85 c39 46 89 104 112 129 l43 45 89 -38 c58 -25 101 -37 123 -35 38 3 53 25 24 34 -52 16 -203 77 -203 81 0 9 66 89 149 181 51 56 78 79 85 72 16 -16 148 -12 204 6 107 35 118 78 41 148 -28 25 -58 46 -66 46 -8 0 -13 4 -11 10 2 5 73 83 158 172 194 203 370 418 342 418 -6 0 -73 -69 -150 -152z m-313 -525 c23 -19 38 -39 35 -44 -15 -24 -149 -55 -169 -39 -5 4 -18 9 -27 11 -14 3 -7 15 32 61 57 64 66 65 129 11z m-271 -5 c7 -7 12 -26 12 -44 0 -48 -95 -145 -185 -188 -38 -19 -71 -33 -72 -32 -1 1 7 40 18 87 12 49 18 99 15 120 -5 30 -2 38 17 47 45 22 176 29 195 10z m-771 -168 l-22 -50 -37 43 c-41 48 -36 55 39 56 l42 1 -22 -50z m594 -138 c-16 -30 -39 -44 -61 -37 -25 8 -27 25 -2 25 9 0 26 7 36 15 27 20 39 19 27 -3z m-82 -81 c12 -8 7 -18 -27 -55 -48 -52 -50 -51 -20 16 23 51 25 53 47 39z"/>
<path d="M13104 5349 c-20 -22 -44 -41 -379 -294 -115 -87 -241 -184 -280 -216 -38 -32 -71 -57 -72 -55 -1 1 15 54 36 117 22 63 36 118 31 122 -4 5 -16 7 -26 5 -14 -2 -27 -28 -51 -97 -29 -87 -48 -138 -77 -201 -6 -14 -46 -60 -89 -103 -76 -76 -137 -158 -137 -184 0 -26 39 -13 56 18 9 18 56 71 104 119 88 88 88 88 134 83 40 -5 54 -1 107 31 l61 37 -6 -28 c-4 -15 -11 -50 -15 -78 -5 -27 -14 -69 -20 -93 -9 -33 -9 -47 -1 -57 14 -17 10 -18 -150 -40 -149 -21 -190 -33 -190 -57 0 -21 8 -22 81 -8 30 6 86 15 124 20 39 5 97 14 130 20 33 7 123 17 200 24 113 9 140 14 140 26 0 13 -23 15 -146 14 l-146 0 9 35 c5 20 13 61 18 91 11 70 23 109 57 188 22 53 25 68 16 92 -10 28 -9 29 116 123 198 150 300 237 353 305 28 34 46 62 40 62 -5 0 -17 -9 -28 -21z m-538 -514 c-4 -14 -12 -25 -20 -25 -7 0 -19 -7 -26 -15 -18 -22 -128 -87 -140 -83 -6 2 33 38 86 81 53 43 99 75 102 73 2 -3 2 -17 -2 -31z"/>
<path d="M6710 5318 c-30 -22 -151 -133 -268 -246 -117 -113 -215 -202 -219 -198 -3 3 1 23 10 43 9 21 19 48 22 61 4 12 10 22 15 22 12 0 20 28 14 45 -9 22 -42 18 -58 -7 -14 -22 -37 -80 -79 -201 -18 -52 -33 -71 -129 -160 -60 -56 -156 -153 -213 -215 -87 -95 -105 -121 -115 -162 -12 -52 -8 -70 15 -70 9 0 19 18 26 46 10 38 33 68 129 172 120 130 220 222 220 203 0 -18 51 -12 134 15 43 14 80 23 82 21 2 -2 -6 -24 -18 -48 -12 -24 -25 -52 -30 -61 -4 -10 -8 -27 -8 -39 0 -16 5 -20 26 -17 22 2 29 11 39 43 7 22 24 63 39 91 35 69 87 230 80 249 -4 8 -14 15 -24 15 -17 0 -47 -67 -64 -142 -4 -20 -14 -30 -34 -34 -15 -3 -53 -15 -85 -26 -108 -37 -100 -24 159 225 241 232 403 402 393 411 -3 3 -29 -13 -59 -36z"/>
<path d="M9749 5299 c-53 -38 -164 -136 -274 -241 -61 -58 -84 -74 -95 -68 -20 13 -112 12 -147 -1 -38 -14 -73 -48 -73 -71 0 -24 28 -23 56 3 25 24 97 43 126 33 18 -5 2 -25 -112 -139 -132 -132 -132 -132 -167 -122 -55 17 -136 -15 -200 -80 -76 -77 -152 -253 -153 -352 0 -13 -21 -55 -47 -93 -73 -107 -144 -220 -140 -224 1 -2 33 34 70 79 123 151 122 150 137 132 7 -9 23 -15 34 -13 16 2 25 17 40 71 11 37 23 67 26 67 4 0 12 -11 18 -24 6 -13 32 -34 59 -47 40 -20 63 -24 143 -24 78 0 95 3 95 15 0 12 -19 17 -81 22 -115 9 -188 48 -171 91 3 9 44 42 91 73 114 75 151 131 142 207 l-6 53 70 69 c43 43 70 63 70 53 0 -11 18 -22 58 -34 67 -21 132 -59 132 -78 0 -38 -69 -67 -170 -70 -66 -2 -75 -5 -75 -22 0 -17 9 -19 72 -22 91 -4 143 10 188 49 71 63 33 132 -98 179 -27 10 -28 10 -10 37 9 16 28 42 40 59 13 17 23 45 23 61 0 27 25 54 195 214 107 100 195 184 195 186 0 10 -22 -1 -61 -28z m-689 -655 c0 -8 -46 -60 -143 -163 l-70 -74 5 40 c3 22 19 66 34 98 24 49 37 63 74 82 42 21 100 31 100 17z m-15 -140 c-25 -33 -120 -104 -138 -104 -5 0 28 40 74 88 65 68 85 84 87 70 2 -11 -8 -35 -23 -54z"/>
<path d="M6713 5045 c-4 -13 -16 -14 -63 -9 -52 6 -59 4 -69 -14 -8 -15 -7 -23 4 -32 8 -6 19 -9 24 -6 5 4 28 4 50 0 35 -6 39 -9 31 -25 -6 -10 -10 -27 -10 -38 0 -28 -47 -177 -72 -228 -22 -43 -48 -59 -68 -39 -8 8 -13 7 -20 -4 -14 -23 7 -50 41 -50 41 0 63 13 87 54 19 33 69 182 93 279 11 43 14 47 43 48 17 0 60 6 96 13 49 9 66 16 68 30 4 17 -2 18 -65 13 -37 -3 -80 -9 -94 -12 -21 -6 -27 -3 -32 14 -6 24 -35 28 -44 6z"/>
<path d="M8405 4989 c-32 -19 -65 -51 -65 -66 0 -20 37 -16 70 9 16 12 32 19 36 16 11 -12 -46 -113 -76 -133 -40 -27 -37 -46 9 -68 55 -25 91 -64 91 -98 0 -35 -24 -48 -133 -73 -62 -14 -77 -21 -75 -34 4 -18 36 -20 118 -7 83 14 150 60 150 103 0 39 -30 91 -70 119 l-37 27 26 37 c62 85 65 172 6 176 -17 2 -39 -2 -50 -8z"/>
<path d="M6822 4913 c-22 -77 -56 -351 -46 -376 10 -26 40 -20 53 11 6 15 10 47 10 72 -2 65 18 227 34 285 16 57 13 75 -13 75 -14 0 -23 -17 -38 -67z"/>
<path d="M10811 4779 c-69 -30 -135 -84 -207 -167 -83 -96 -104 -140 -106 -229 -2 -78 20 -123 79 -162 138 -90 296 -80 324 21 10 38 9 43 -21 79 l-31 39 75 0 c41 0 81 -3 90 -6 19 -7 21 -47 5 -93 -10 -27 -9 -35 5 -49 20 -20 34 -8 53 45 19 57 16 91 -12 118 -23 24 -30 25 -143 25 -97 0 -121 -3 -126 -15 -7 -20 2 -44 31 -78 71 -87 -47 -133 -176 -69 -68 33 -101 78 -101 136 0 70 19 114 78 185 134 159 263 230 323 175 20 -18 49 -13 49 10 0 8 -12 24 -26 35 -34 27 -103 27 -163 0z"/>
<path d="M11549 4731 c-46 -29 -78 -71 -112 -146 -28 -61 -67 -314 -67 -433 0 -57 -4 -122 -9 -145 -5 -23 -15 -73 -21 -112 -21 -121 -64 -152 -65 -47 0 34 -4 47 -15 47 -39 0 -51 -115 -14 -142 42 -31 115 -4 128 46 30 118 44 220 56 411 12 184 33 305 66 374 46 95 80 122 172 132 88 9 102 -4 102 -100 0 -78 -7 -93 -69 -159 -55 -59 -119 -88 -175 -81 -41 6 -46 5 -46 -13 0 -19 46 -43 83 -43 28 0 128 56 174 97 81 74 108 161 83 268 -14 61 -40 75 -141 75 -77 0 -89 -3 -130 -29z"/>
<path d="M7915 4591 c-3 -5 -10 -45 -15 -88 -14 -106 -18 -134 -37 -231 -15 -76 -15 -84 0 -99 13 -13 19 -14 31 -3 9 7 16 20 16 30 0 67 157 288 206 290 14 0 27 -104 28 -220 1 -70 4 -85 18 -88 22 -4 48 35 48 72 0 52 -32 261 -43 274 -5 6 -24 12 -42 12 -40 0 -126 -64 -157 -116 -11 -19 -22 -34 -23 -32 -3 3 10 149 15 173 5 24 -1 35 -19 35 -11 0 -22 -4 -26 -9z"/>
<path d="M9856 4473 c-4 -4 -76 -10 -159 -13 -126 -4 -152 -8 -152 -20 0 -21 167 -25 353 -10 122 11 143 15 140 29 -3 13 -19 17 -89 19 -47 1 -88 -1 -93 -5z"/>
<path d="M11977 4441 c-7 -27 19 -49 41 -34 27 16 21 48 -9 51 -20 2 -28 -2 -32 -17z"/>
<path d="M6112 4349 c-44 -13 -41 -46 3 -41 17 2 257 7 535 10 439 6 505 9 505 22 0 13 -64 15 -505 17 -298 1 -519 -3 -538 -8z"/>
<path d="M9875 4353 c-157 -34 -195 -49 -195 -76 0 -22 9 -21 127 11 42 11 126 23 197 27 128 8 164 17 136 35 -15 9 -225 12 -265 3z"/>
<path d="M12383 4288 c-24 -11 -30 -32 -14 -43 6 -3 30 0 56 6 48 12 105 -1 105 -25 -1 -21 -30 -49 -70 -67 -27 -12 -40 -24 -40 -38 0 -19 7 -21 103 -23 l102 -3 3 -32 c3 -30 -1 -34 -55 -61 -40 -21 -77 -31 -118 -33 l-60 -4 3 37 c3 33 1 37 -15 32 -44 -16 -57 -68 -23 -99 32 -29 158 -17 236 23 75 38 89 54 88 104 -2 58 -26 78 -91 78 l-54 0 20 29 c34 48 26 92 -20 116 -32 17 -124 19 -156 3z"/>
<path d="M7045 4170 c-12 -20 7 -30 56 -30 27 0 49 -4 49 -9 0 -10 -112 -99 -136 -108 -8 -3 -14 -14 -14 -24 0 -17 8 -19 98 -18 126 1 206 17 210 43 4 17 -2 18 -65 13 -37 -3 -84 -9 -103 -13 l-35 -7 53 50 c51 48 59 64 46 97 -5 13 -22 16 -79 16 -41 0 -77 -4 -80 -10z"/>
<path d="M6265 4156 c-5 -3 -27 -7 -47 -11 -29 -4 -38 -11 -38 -26 0 -19 4 -20 88 -12 147 13 253 4 234 -20 -33 -42 -85 -352 -67 -406 9 -28 43 -27 49 2 3 12 7 58 10 102 6 88 18 166 36 235 6 24 9 53 7 62 -5 17 7 18 152 18 155 0 215 9 224 34 4 9 -35 12 -167 11 -94 0 -238 3 -321 7 -82 5 -154 6 -160 4z"/>
<path d="M10380 2831 c-45 -9 -60 -18 -60 -37 0 -16 15 -16 105 -4 51 6 65 4 93 -12 47 -29 43 -59 -14 -103 -26 -19 -51 -35 -56 -35 -5 0 -8 -12 -6 -27 3 -24 11 -30 58 -44 30 -9 71 -25 90 -36 31 -17 35 -25 38 -65 4 -56 -1 -59 -130 -66 -87 -4 -98 -7 -98 -23 0 -17 9 -19 105 -19 113 0 155 12 175 51 14 24 4 94 -16 126 -15 24 -108 73 -140 73 -17 1 -16 3 6 21 60 48 70 61 70 96 0 91 -84 131 -220 104z"/>
<path d="M8745 2451 c-71 -23 -107 -65 -91 -107 9 -23 50 -14 54 13 4 30 38 49 99 58 60 8 67 1 58 -56 -6 -35 -17 -49 -76 -97 -49 -40 -69 -63 -69 -79 0 -25 25 -30 65 -14 12 5 32 2 53 -7 29 -14 32 -20 32 -61 -1 -67 -31 -96 -115 -112 -46 -8 -65 2 -65 37 0 19 -5 24 -25 24 -22 0 -25 -4 -25 -35 0 -78 94 -100 199 -47 73 36 96 79 84 154 -7 50 -11 55 -53 77 l-46 24 44 41 c38 37 44 47 49 99 8 80 -8 97 -91 96 -34 -1 -70 -4 -81 -8z"/>
<path d="M9404 2448 c-3 -4 -27 -8 -53 -8 -26 0 -96 -9 -155 -19 -103 -19 -156 -40 -156 -62 0 -17 30 -22 57 -10 35 16 177 41 235 41 l47 0 -24 -67 c-40 -119 -63 -161 -106 -200 -50 -46 -55 -49 -96 -56 -25 -5 -33 -3 -33 8 0 18 -14 19 -41 5 -11 -6 -19 -21 -19 -35 0 -24 3 -25 59 -25 76 0 100 10 166 66 56 49 93 118 132 253 13 45 23 63 38 66 11 3 79 8 150 12 106 7 130 11 130 23 0 13 -25 15 -163 16 -90 0 -165 -3 -168 -8z"/>
<path d="M9603 2368 c-6 -7 -18 -49 -28 -93 -27 -128 -48 -165 -125 -224 -19 -15 -22 -22 -13 -31 27 -28 111 31 151 105 17 32 53 195 50 223 -3 29 -20 39 -35 20z"/>
<path d="M9996 2358 c-2 -13 -9 -68 -16 -123 -6 -55 -14 -117 -17 -137 -9 -64 26 -51 130 48 l92 86 5 -86 c5 -93 13 -106 61 -106 35 0 120 58 137 93 16 34 9 46 -15 25 -20 -16 -108 -68 -117 -68 -3 0 -6 35 -6 78 0 97 -12 118 -62 108 -23 -4 -57 -26 -98 -63 l-63 -57 6 39 c18 113 19 155 7 170 -18 22 -39 18 -44 -7z"/>
<path d="M6815 2240 c-115 -54 -150 -132 -200 -440 -51 -314 -76 -439 -95 -485 l-17 -40 -8 72 c-8 79 -24 105 -51 82 -11 -9 -14 -23 -10 -48 23 -154 27 -164 76 -159 46 5 85 114 120 333 6 39 17 106 24 150 l12 80 77 -4 c167 -7 287 68 355 222 16 38 6 122 -20 165 -11 18 -43 46 -72 62 -62 36 -130 40 -191 10z m154 -45 c114 -58 108 -196 -14 -303 -47 -41 -106 -61 -192 -64 -79 -3 -89 10 -73 103 22 128 70 221 134 260 37 23 106 25 145 4z"/>
<path d="M7716 2033 c-4 -4 -67 -10 -139 -13 -108 -4 -132 -8 -132 -20 0 -12 21 -15 115 -17 150 -4 325 17 325 37 0 12 -17 16 -80 18 -45 1 -84 -1 -89 -5z"/>
<path d="M7845 1890 c-22 -4 -74 -13 -115 -20 -41 -6 -94 -16 -117 -21 -23 -5 -58 -9 -78 -9 -29 0 -36 -3 -33 -17 6 -32 126 -24 373 24 78 16 105 27 93 39 -11 10 -82 13 -123 4z"/>
<path d="M10026 1853 c-4 -5 -332 -10 -729 -13 -633 -4 -722 -7 -722 -20 0 -13 84 -15 700 -14 893 0 1400 13 1400 34 0 13 -43 15 -321 18 -176 1 -324 -1 -328 -5z"/>
<path d="M10097 1673 c-25 -24 10 -66 36 -45 9 8 25 5 55 -8 73 -33 53 -83 -55 -140 -68 -35 -97 -77 -73 -105 17 -21 371 -22 389 -2 6 8 8 17 4 20 -3 4 -77 7 -164 7 -87 0 -160 4 -164 9 -3 5 23 25 57 43 75 40 110 85 101 131 -8 42 -20 57 -68 78 -40 18 -106 25 -118 12z"/>
<path d="M8904 1567 c-60 -41 -98 -95 -154 -223 -40 -89 -44 -107 -44 -180 -1 -69 2 -85 24 -118 32 -49 94 -76 186 -83 97 -8 158 3 194 33 33 29 38 55 14 75 -14 12 -14 14 3 20 10 4 50 8 90 8 l72 1 3 -46 c3 -49 22 -72 50 -62 12 5 13 17 7 63 -11 84 -13 85 -149 85 -108 0 -171 -10 -194 -31 -13 -12 19 -46 50 -53 36 -9 25 -28 -23 -42 -47 -14 -164 -4 -208 17 -94 46 -93 160 4 358 54 112 136 182 196 167 30 -8 35 -49 9 -77 -19 -22 -11 -39 19 -39 28 0 57 46 57 89 0 50 -30 71 -99 71 -50 0 -66 -5 -107 -33z"/>
<path d="M9610 1544 c-134 -28 -230 -62 -230 -81 0 -22 28 -26 73 -11 112 40 210 58 360 65 70 3 127 9 127 13 0 3 -5 11 -12 18 -16 16 -233 14 -318 -4z"/>
<path d="M9642 1468 c-9 -9 -12 -79 -12 -254 0 -133 3 -249 6 -258 3 -9 14 -16 24 -16 10 0 21 7 24 16 3 9 6 125 6 258 0 232 -4 266 -30 266 -3 0 -11 -5 -18 -12z"/>
</g>
<g id="logo" transform="translate(2050.888668, 954.4389305473554) scale(0.42713147973996096)"><g transform="translate(-57.706759,297.537395) scale(0.100000,-0.100000)" fill="#4444bb" stroke="none">
<path d="M750 2973 c-57 -10 -88 -25 -119 -57 -40 -41 -55 -100 -46 -179 6 -45 12 -61 32 -77 32 -25 35 -25 64 -1 22 17 24 26 21 89 -4 105 24 120 164 87 33 -7 119 -19 190 -25 88 -8 134 -16 144 -26 32 -32 8 -420 -28 -456 -18 -18 -126 -28 -289 -28 -185 0 -206 -4 -250 -52 -55 -58 -58 -82 -55 -363 1 -145 7 -274 13 -293 11 -34 51 -62 89 -62 12 0 35 14 52 31 l31 30 -6 238 c-3 130 -3 249 0 264 l5 27 112 0 c234 1 363 26 423 82 58 54 98 260 91 463 -4 122 -7 138 -34 191 -40 81 -79 100 -217 108 -174 10 -361 14 -387 9z" fill="#4444bb"/>
<path d="M3660 2971 c-42 -9 -83 -34 -103 -65 -39 -59 -50 -127 -54 -343 -5 -206 -5 -212 18 -252 28 -50 78 -86 143 -102 48 -12 257 -8 370 7 l49 7 -7 -104 c-4 -57 -11 -189 -16 -294 -9 -177 -9 -192 8 -214 35 -47 100 -46 136 2 22 29 27 86 42 452 7 191 0 235 -44 283 -45 48 -92 56 -241 38 -146 -18 -229 -20 -265 -6 l-26 10 0 162 c0 156 8 230 27 249 5 5 99 6 210 2 l201 -6 5 -50 c3 -39 11 -56 31 -74 34 -29 48 -29 80 0 24 20 26 30 28 113 4 147 -23 169 -218 179 -242 11 -340 13 -374 6z" fill="#4444bb"/>
<path d="M1565 2945 c-14 -13 -25 -32 -25 -42 0 -10 -1 -297 -3 -638 -2 -677 -3 -662 55 -694 33 -19 73 -7 101 31 18 24 20 51 29 300 5 150 10 278 12 283 2 6 37 8 97 3 52 -3 135 -7 186 -7 154 -2 161 -10 143 -176 -21 -189 -27 -310 -18 -343 12 -45 45 -72 86 -72 71 0 102 46 102 151 0 33 7 118 16 187 24 190 9 280 -58 349 -50 52 -112 67 -263 65 -71 -1 -164 -6 -205 -11 -41 -4 -78 -7 -81 -5 -4 2 -10 108 -13 236 -9 286 -17 352 -47 384 -31 33 -82 32 -114 -1z" fill="#4444bb"/>
<path d="M2542 2944 c-55 -38 -64 -109 -53 -419 6 -186 9 -215 28 -250 50 -95 116 -125 302 -135 75 -4 171 -5 215 -1 l78 7 -4 -178 c-2 -97 -7 -181 -11 -184 -4 -4 -42 1 -85 11 -104 26 -285 27 -363 3 -106 -33 -149 -107 -99 -170 26 -34 68 -41 132 -21 74 23 202 20 308 -7 182 -47 274 5 301 168 12 77 27 831 19 994 -7 152 -20 181 -86 186 -88 7 -103 -51 -104 -401 l0 -219 -201 4 c-197 3 -201 3 -220 27 -18 21 -19 42 -19 283 l0 260 -29 29 c-33 33 -74 38 -109 13z" fill="#4444bb"/>
<path d="M2374 1391 c-55 -34 -79 -78 -79 -147 0 -51 4 -66 27 -96 35 -45 102 -73 153 -64 78 15 146 111 131 188 -20 108 -145 172 -232 119z" fill="#4444bb"/>
<path d="M1853 999 c-39 -11 -66 -56 -61 -101 6 -59 69 -64 76 -6 4 30 34 38 145 38 l67 0 0 -110 c0 -135 -1 -136 -132 -126 -85 6 -89 6 -113 -18 -24 -25 -25 -28 -25 -179 0 -162 4 -177 47 -177 35 0 43 29 43 159 l0 121 73 0 c85 0 141 14 168 41 17 17 19 34 19 169 0 147 -1 152 -25 175 -23 24 -30 25 -137 24 -62 0 -128 -5 -145 -10z" fill="#4444bb"/>
<path d="M2985 1000 c-91 -16 -93 -18 -104 -58 -15 -51 -14 -537 0 -564 19 -36 69 -48 204 -48 121 0 127 1 151 25 l24 24 -2 292 -3 292 -26 19 c-31 23 -161 33 -244 18z m169 -86 c14 -5 16 -37 16 -250 l0 -245 -102 3 -103 3 0 240 0 240 40 6 c57 9 131 10 149 3z" fill="#4444bb"/>
<path d="M2351 971 c-24 -24 -29 -73 -37 -372 -6 -232 -6 -237 15 -258 23 -23 29 -25 51 -11 12 7 16 40 20 150 l5 141 35 -23 c19 -13 59 -55 88 -93 30 -39 78 -96 108 -128 47 -51 56 -57 74 -47 29 16 25 42 -15 92 -19 24 -62 78 -95 121 -61 77 -61 77 -33 77 15 0 46 9 69 19 56 26 67 57 62 179 -6 156 -27 172 -220 172 -93 0 -111 -3 -127 -19z m257 -74 c16 -13 17 -168 0 -185 -7 -7 -41 -12 -84 -12 -40 0 -84 -4 -98 -10 l-26 -10 0 120 0 119 98 -6 c53 -3 103 -10 110 -16z" fill="#4444bb"/>
</g>
</g></svg>
