<svg xmlns="http://www.w3.org/2000/svg" version="1.0" width="2157.500000pt" height="3318.676628pt" viewBox="0 0 2157.500000 3318.676628" preserveAspectRatio="xMidYMid meet">
<metadata>
Created by potrace 1.16, written by Peter Selinger 2001-2019
</metadata>
<g transform="translate(-70.500000,3318.676628) scale(0.100000,-0.100000)" fill="#000000" stroke="none">
<path d="M2554 33173 c-57 -33 -113 -85 -123 -116 -14 -39 -14 -143 0 -169 6 -11 26 -26 44 -34 38 -16 151 -19 159 -5 4 5 -26 17 -66 26 -40 9 -78 21 -85 27 -18 14 -17 112 2 147 24 47 100 91 158 91 42 0 53 -4 78 -31 24 -25 29 -40 29 -79 0 -73 -35 -171 -79 -225 -72 -88 -238 -195 -302 -195 -16 0 -32 9 -41 22 -17 25 -48 19 -48 -10 0 -53 98 -69 185 -32 146 62 277 193 314 314 29 95 28 171 -4 218 -33 48 -48 56 -126 63 -50 4 -70 2 -95 -12z"/>
<path d="M1642 33123 c-25 -60 -49 -137 -56 -183 -6 -36 -7 -36 -76 -48 -39 -7 -75 -12 -80 -12 -13 0 -3 108 17 188 11 44 12 67 5 74 -29 29 -60 -38 -72 -159 -6 -54 -16 -103 -23 -110 -6 -6 -39 -15 -72 -20 -43 -6 -60 -12 -60 -23 0 -12 14 -15 67 -14 68 1 68 1 61 -25 -12 -51 -22 -61 -61 -61 -60 0 -114 -19 -110 -38 3 -14 13 -16 53 -14 28 1 59 4 71 7 20 4 20 2 16 -75 -4 -75 -3 -80 16 -80 24 0 32 17 33 73 2 81 8 90 74 104 97 20 95 21 95 -41 0 -65 23 -95 40 -51 5 14 10 46 10 69 l0 43 62 17 c68 19 66 36 -4 36 -35 0 -38 2 -38 28 0 44 13 52 88 60 112 12 114 34 3 40 l-68 4 8 42 c4 22 19 74 34 114 15 41 24 80 21 88 -11 28 -34 13 -54 -33z m-82 -304 c-8 -45 -22 -59 -60 -59 -14 0 -43 -3 -64 -7 l-39 -6 7 39 c5 21 10 41 12 43 2 2 34 9 71 16 37 7 71 13 74 14 4 0 3 -18 -1 -40z"/>
<path d="M2095 33103 c-33 -8 -101 -70 -119 -107 -26 -54 -21 -97 15 -132 29 -28 34 -29 124 -29 59 0 91 -4 87 -10 -23 -39 -55 -73 -107 -112 -80 -60 -147 -93 -190 -93 -31 0 -38 5 -52 35 -19 39 -53 49 -53 15 0 -72 71 -113 156 -90 55 16 172 90 231 148 66 65 86 112 91 217 4 81 2 93 -17 117 -31 39 -103 56 -166 41z m116 -64 c18 -18 21 -30 17 -94 -2 -41 -5 -76 -8 -78 -10 -9 -178 19 -194 32 -32 27 -16 77 42 128 46 41 109 46 143 12z"/>
<path d="M3179 32979 c-124 -29 -279 -132 -320 -211 -21 -42 -26 -136 -9 -185 17 -47 79 -77 143 -69 93 10 133 61 130 161 -4 83 -24 109 -89 113 -53 3 -114 -25 -114 -52 0 -23 19 -29 43 -13 34 22 77 29 93 16 9 -7 14 -32 14 -71 0 -77 -27 -108 -94 -108 -62 0 -86 31 -86 110 0 72 32 120 120 180 108 73 231 106 335 88 29 -4 25 24 -5 39 -28 14 -106 15 -161 2z"/>
<path d="M1840 32360 c-52 -4 -309 -9 -570 -10 -486 -2 -565 -7 -565 -40 0 -10 8 -14 25 -12 49 7 1170 22 2098 28 919 6 942 6 942 25 0 19 -20 19 -917 17 -505 -1 -961 -5 -1013 -8z"/>
<path d="M13649 32352 c-40 -11 -41 -12 -30 -26 7 -8 42 -17 84 -21 40 -4 142 -15 227 -26 167 -21 247 -24 269 -10 26 17 -109 40 -465 79 -39 4 -77 6 -85 4z"/>
<path d="M3717 32033 c-7 -509 1 -2284 12 -2553 6 -151 18 -489 26 -750 8 -261 20 -578 25 -705 22 -531 8 -1202 -35 -1593 -14 -128 -25 -264 -25 -302 0 -38 -4 -113 -10 -167 -5 -54 -11 -205 -14 -335 -4 -197 -2 -239 10 -249 11 -9 17 -9 28 0 11 9 15 71 19 299 6 330 18 530 47 782 41 363 52 1079 25 1743 -14 345 -21 564 -45 1362 -5 165 -9 846 -10 1513 l0 1212 -25 0 -24 0 -4 -257z"/>
<path d="M11780 32215 c-69 -8 -199 -18 -290 -24 -166 -11 -309 -27 -336 -38 -34 -13 -5 -28 52 -27 101 1 406 23 469 34 82 13 218 49 230 61 5 5 7 8 5 8 -3 -1 -61 -7 -130 -14z"/>
<path d="M15387 31833 c-17 -16 -1 -35 88 -99 53 -38 126 -92 163 -120 97 -73 183 -130 211 -139 l24 -7 -22 31 c-20 28 -78 74 -317 253 -64 49 -125 88 -135 88 -3 0 -9 -3 -12 -7z"/>
<path d="M9300 31696 c-36 -13 -168 -69 -321 -135 -103 -45 -301 -156 -336 -188 -26 -25 -26 -50 1 -45 9 2 56 27 104 56 110 68 229 127 359 181 179 74 346 188 193 131z"/>
<path d="M1142 31538 c-7 -7 -12 -44 -12 -98 0 -48 -5 -113 -11 -145 -9 -48 -8 -60 5 -73 20 -20 41 -3 50 40 9 47 50 100 114 151 68 53 149 90 188 85 27 -3 29 -7 32 -49 2 -38 -3 -54 -33 -99 -68 -101 -28 -129 75 -51 121 90 301 171 300 134 0 -5 -16 -46 -35 -93 -38 -92 -46 -166 -20 -176 25 -10 45 14 39 46 -4 19 5 54 31 113 25 61 35 97 33 124 l-3 38 -60 -1 c-61 -1 -142 -34 -247 -100 -46 -29 -52 -30 -38 -5 5 11 10 44 10 74 0 44 -4 58 -25 77 -21 19 -31 22 -72 17 -66 -8 -147 -47 -213 -101 l-55 -46 -3 62 c-4 78 -21 105 -50 76z"/>
<path d="M2126 31323 c-19 -19 -38 -84 -47 -158 -25 -212 -25 -197 2 -193 26 3 31 19 47 173 5 44 14 91 21 103 21 40 3 100 -23 75z"/>
<path d="M16470 30753 c0 -10 18 -76 41 -148 118 -372 251 -665 294 -648 22 8 19 24 -25 103 -33 61 -71 151 -165 390 -7 19 -30 87 -49 151 -33 108 -65 169 -87 169 -5 0 -9 -8 -9 -17z"/>
<path d="M1176 30444 c-3 -9 -6 -87 -6 -174 0 -128 3 -160 15 -170 18 -15 45 2 45 29 0 17 82 163 109 195 16 18 83 56 99 56 35 0 39 -134 7 -196 -13 -25 -13 -31 0 -43 12 -13 23 -5 82 60 37 41 88 94 113 118 l45 43 5 -111 c5 -114 13 -135 49 -128 11 1 13 27 12 120 -2 137 -10 167 -44 167 -33 0 -110 -53 -149 -103 l-33 -41 -7 53 c-7 62 -34 105 -69 109 -13 1 -49 -10 -79 -25 -49 -25 -83 -59 -127 -129 -10 -16 -12 -3 -12 68 -1 99 -6 118 -31 118 -10 0 -21 -7 -24 -16z"/>
<path d="M7566 30193 c-48 -66 -178 -312 -215 -404 -16 -42 -37 -104 -45 -137 -18 -66 -21 -168 -7 -177 15 -9 41 36 41 70 0 81 45 202 159 436 71 143 117 259 105 259 -2 0 -19 -21 -38 -47z"/>
<path d="M1926 30195 c-51 -18 -74 -41 -58 -57 9 -9 21 -7 51 7 48 21 87 14 103 -20 17 -38 3 -65 -82 -154 -102 -108 -106 -141 -16 -141 72 0 356 94 356 118 0 12 -114 -9 -229 -42 -69 -20 -126 -34 -127 -33 -2 2 28 37 67 78 76 80 89 103 89 152 0 41 -20 70 -64 91 -40 19 -40 19 -90 1z"/>
<path d="M12260 30030 c0 -19 7 -20 103 -20 58 0 126 -7 157 -15 30 -8 73 -15 95 -15 l40 0 -24 19 c-43 33 -133 51 -256 51 -108 0 -115 -1 -115 -20z"/>
<path d="M11695 29970 c-79 -22 -125 -47 -125 -65 0 -20 17 -19 104 9 40 14 95 28 120 31 26 4 57 16 69 26 22 18 21 18 -43 18 -36 -1 -92 -9 -125 -19z"/>
<path d="M12935 29860 c-4 -6 13 -27 36 -48 50 -43 164 -158 231 -234 45 -50 48 -51 48 -27 0 49 -106 179 -225 278 -49 41 -78 50 -90 31z"/>
<path d="M11152 29634 c-55 -28 -92 -74 -92 -118 0 -41 36 -35 50 9 8 24 27 45 58 67 47 31 62 46 62 61 0 13 -26 7 -78 -19z"/>
<path d="M16201 29579 c-32 -12 -82 -35 -158 -70 -45 -21 -64 -36 -67 -52 -2 -12 -10 -48 -16 -80 -17 -86 -14 -317 4 -336 12 -12 18 -12 30 -1 12 9 16 32 16 91 l0 79 42 0 c68 0 149 22 146 40 -4 16 -30 17 -135 4 l-53 -6 0 43 c0 24 5 69 12 100 11 54 15 59 57 82 69 37 176 77 205 77 19 0 26 5 26 20 0 17 -6 20 -42 19 -24 0 -54 -5 -67 -10z"/>
<path d="M11480 29500 c-14 -4 -43 -8 -66 -9 -65 -2 -81 -27 -88 -141 -3 -52 -8 -131 -12 -175 -5 -67 -3 -83 10 -94 29 -24 45 3 48 82 3 67 4 70 28 73 41 4 153 23 184 32 71 20 24 50 -52 34 -26 -6 -69 -13 -95 -16 l-48 -6 3 83 3 82 60 8 c33 4 101 11 150 15 70 5 90 10 90 22 0 12 -18 15 -95 17 -52 1 -106 -2 -120 -7z"/>
<path d="M1735 29440 c-11 -5 -30 -17 -41 -27 -32 -26 -148 -184 -163 -221 -11 -26 -17 -31 -36 -26 -37 9 -55 -46 -22 -68 7 -4 1 -29 -16 -70 -27 -63 -31 -82 -41 -171 -5 -38 -2 -51 14 -67 25 -25 89 -27 151 -5 86 31 327 156 354 185 16 17 27 30 24 30 -24 -1 -117 -39 -224 -92 -144 -72 -228 -103 -252 -94 -46 18 29 277 86 291 33 8 207 179 232 227 44 86 10 142 -66 108z m35 -50 c0 -26 -34 -70 -109 -145 -45 -44 -81 -74 -81 -68 0 15 126 183 154 205 24 20 36 22 36 8z"/>
<path d="M11799 29262 c-60 -35 -79 -52 -79 -67 0 -26 29 -22 78 10 l51 33 -5 -31 c-3 -18 -10 -45 -15 -61 -5 -16 -9 -40 -9 -53 0 -19 5 -24 22 -21 17 2 24 15 35 58 8 30 19 72 25 92 21 70 -23 87 -103 40z"/>
<path d="M13303 29225 c-3 -10 1 -38 9 -64 9 -25 21 -73 28 -106 14 -68 45 -149 72 -184 l18 -24 0 37 c0 19 -11 75 -25 122 -14 47 -25 98 -25 113 0 32 -40 113 -57 119 -7 2 -16 -4 -20 -13z"/>
<path d="M9898 29163 c-9 -2 -29 -22 -44 -44 -26 -38 -29 -40 -41 -22 -33 45 -44 53 -78 53 -48 0 -102 -50 -140 -130 -33 -70 -39 -65 -51 39 -7 68 -23 97 -47 88 -13 -5 -15 -17 -10 -64 3 -32 9 -74 14 -93 5 -19 9 -58 9 -85 0 -54 12 -75 43 -75 12 0 23 13 33 38 54 134 73 171 107 206 35 37 39 39 54 23 10 -9 20 -38 23 -63 6 -53 29 -76 58 -58 9 6 19 20 20 30 7 35 66 113 92 119 31 8 43 -8 59 -82 21 -98 25 -108 46 -108 17 0 20 6 18 45 -3 55 -30 149 -51 173 -14 16 -71 22 -114 10z"/>
<path d="M18004 29141 c-28 -17 -74 -55 -101 -87 l-50 -57 -7 54 c-9 65 -19 79 -58 79 -41 0 -85 -28 -111 -70 l-22 -35 -3 35 c-4 62 -12 80 -31 80 -28 0 -31 -18 -31 -160 0 -103 3 -130 16 -140 21 -19 36 0 58 75 22 75 61 138 98 160 l28 16 0 -68 c0 -120 33 -123 139 -15 67 69 119 112 136 112 3 0 5 -51 5 -113 0 -120 11 -156 44 -144 14 5 16 24 15 129 -1 68 -4 134 -8 148 -10 37 -54 37 -117 1z"/>
<path d="M10185 29100 c-8 -13 4 -103 22 -167 16 -57 37 -83 55 -65 8 8 6 29 -6 76 -9 36 -16 78 -16 93 0 46 -38 90 -55 63z"/>
<path d="M10900 29008 c-39 -64 -48 -109 -26 -127 23 -19 50 -6 42 21 -3 14 4 38 20 66 17 29 24 51 20 68 -9 35 -19 30 -56 -28z"/>
<path d="M16125 29040 c-11 -19 6 -30 46 -30 34 0 39 -3 39 -22 0 -15 -13 -32 -36 -47 -24 -17 -34 -31 -32 -45 3 -20 9 -21 143 -21 118 0 140 2 140 15 0 12 -19 16 -103 18 -102 3 -103 3 -81 21 29 23 30 88 3 108 -21 15 -110 18 -119 3z"/>
<path d="M18245 29000 c-10 -16 4 -30 30 -30 28 0 55 -34 55 -68 0 -15 -11 -29 -35 -43 -40 -24 -47 -62 -15 -79 12 -6 63 -10 122 -8 84 2 103 6 103 18 0 12 -18 16 -87 18 -49 1 -88 5 -88 7 0 2 13 17 30 33 25 26 29 35 24 64 -4 18 -18 48 -31 66 -20 26 -31 32 -63 32 -21 0 -42 -4 -45 -10z"/>
<path d="M10681 28812 c-74 -50 -122 -138 -129 -231 -4 -64 -3 -68 36 -126 37 -54 66 -79 166 -140 15 -9 15 -21 4 -121 -12 -116 -5 -194 19 -202 21 -6 33 45 33 145 0 137 10 163 74 191 28 12 73 43 99 69 26 25 50 43 54 40 8 -9 39 33 47 66 l6 27 363 0 362 -1 -62 -59 c-35 -33 -63 -66 -63 -75 0 -34 44 -12 119 60 43 41 86 75 95 75 9 0 16 8 16 20 0 11 -4 20 -9 20 -5 0 -11 8 -14 19 -3 11 -23 25 -53 36 -27 9 -80 28 -117 42 -48 18 -72 22 -79 15 -19 -19 -1 -38 73 -75 l72 -37 -338 0 -338 0 19 22 c20 23 20 23 -31 2 -12 -5 -15 2 -15 27 0 19 -10 51 -23 71 -26 43 -128 126 -166 134 -14 3 -39 10 -55 15 -60 19 -108 10 -165 -29z m249 -58 c54 -38 65 -47 83 -74 22 -32 23 -106 1 -114 -9 -3 -14 -13 -11 -20 3 -8 -1 -17 -10 -20 -10 -4 -13 -14 -9 -29 4 -18 -4 -32 -37 -64 -23 -23 -62 -51 -87 -63 -39 -20 -48 -21 -80 -10 -19 7 -50 24 -67 38 -28 20 -33 31 -33 66 -1 41 -1 41 -19 19 l-19 -23 -16 25 c-11 16 -16 46 -16 92 1 59 4 73 30 107 47 61 87 86 141 86 26 0 51 5 55 11 9 15 52 3 94 -27z"/>
<path d="M16489 28701 c-85 -68 -139 -124 -139 -142 0 -6 23 -33 50 -60 43 -43 55 -50 83 -47 34 3 54 38 21 38 -9 0 -32 12 -51 26 -27 21 -32 29 -22 40 9 11 64 14 305 14 294 0 294 0 290 -22 -11 -48 -10 -64 3 -95 7 -18 19 -33 27 -33 7 0 17 -6 21 -14 14 -23 50 -36 101 -36 l49 0 -1 -77 c-1 -61 2 -78 13 -78 17 0 27 30 36 107 6 54 8 58 49 82 48 28 83 88 111 187 19 68 11 96 -39 134 -32 25 -41 26 -108 22 -119 -7 -198 -33 -182 -58 3 -5 -8 -25 -23 -44 l-28 -35 -288 0 -288 0 43 39 c24 21 56 50 72 63 20 17 27 30 23 41 -11 30 -41 18 -128 -52z m872 -12 c41 -29 35 -90 -18 -193 -27 -52 -87 -86 -152 -86 -57 0 -81 23 -81 76 0 48 -6 54 -26 27 -12 -17 -13 -17 -14 3 0 36 22 53 75 56 38 2 51 7 53 21 2 10 -3 17 -13 17 -9 0 -23 6 -31 14 -12 13 -11 17 8 30 12 9 40 16 61 16 30 0 40 4 44 20 7 27 56 27 94 -1z m-221 -69 c0 -5 -5 -10 -11 -10 -5 0 -7 5 -4 10 3 6 8 10 11 10 2 0 4 -4 4 -10z"/>
<path d="M12027 28592 c-23 -25 -38 -72 -32 -93 20 -61 185 -64 185 -3 0 11 15 14 65 14 58 0 65 2 65 20 0 18 -7 20 -63 20 -51 0 -68 4 -82 20 -10 11 -26 20 -36 20 -10 0 -21 5 -24 10 -10 16 -61 11 -78 -8z"/>
<path d="M3580 28581 c-8 -5 -121 -11 -250 -15 -129 -3 -302 -10 -385 -15 -481 -30 -634 -36 -850 -35 -138 0 -289 6 -355 14 -71 9 -222 14 -395 14 -242 1 -280 -1 -280 -14 0 -13 36 -16 240 -22 132 -3 290 -11 350 -18 298 -30 791 -21 1545 29 85 6 210 10 276 11 126 0 154 9 140 45 -6 17 -14 18 -36 6z"/>
<path d="M13372 28550 c19 -14 41 -20 78 -20 46 0 51 -2 45 -17 -20 -50 -16 -333 5 -333 8 0 24 121 36 272 l6 77 46 3 c34 2 47 7 47 18 0 13 -24 15 -144 18 -144 3 -144 3 -119 -18z"/>
<path d="M16968 28423 c-38 -16 -46 -27 -29 -37 15 -9 38 4 56 30 8 13 14 24 13 23 -2 -1 -20 -8 -40 -16z"/>
<path d="M12081 28233 c-13 -25 -35 -274 -28 -329 2 -25 13 -54 23 -65 19 -21 19 -21 26 17 4 22 7 88 7 147 1 60 6 128 12 153 17 66 -14 125 -40 77z"/>
<path d="M10611 28133 c-39 -74 23 -333 79 -333 11 0 20 3 20 6 0 3 -13 42 -29 87 -15 45 -31 111 -34 147 -3 36 -10 76 -15 90 -9 24 -9 24 -21 3z"/>
<path d="M17216 27924 c-3 -9 -6 -60 -6 -115 0 -109 20 -182 48 -177 14 3 16 21 14 138 -2 74 -5 143 -8 153 -7 21 -40 22 -48 1z"/>
<path d="M7100 27823 c-19 -64 -24 -214 -10 -318 14 -118 17 -125 42 -125 19 0 20 4 15 68 -4 37 -11 143 -17 236 -6 94 -12 172 -15 174 -2 2 -9 -13 -15 -35z"/>
<path d="M10796 27754 c-10 -25 -7 -241 3 -287 6 -23 13 -58 16 -77 3 -19 10 -42 15 -50 23 -34 29 17 24 200 -3 102 -7 195 -10 208 -5 26 -39 30 -48 6z"/>
<path d="M13402 27748 c-43 -55 -92 -218 -64 -218 16 0 52 50 52 72 0 10 14 43 31 73 31 55 33 85 6 85 -8 0 -19 -6 -25 -12z"/>
<path d="M12094 27586 c-3 -13 -4 -90 -2 -173 2 -123 6 -154 21 -176 10 -15 22 -25 27 -22 11 7 14 353 4 379 -9 25 -43 19 -50 -8z"/>
<path d="M10930 27500 c0 -48 180 -254 257 -294 75 -38 101 -3 30 39 -39 22 -84 66 -216 208 -40 44 -71 64 -71 47z"/>
<path d="M2590 27263 c-34 -13 -50 -37 -50 -75 0 -47 35 -134 58 -143 31 -12 36 12 13 65 -12 28 -21 63 -19 78 2 22 10 28 43 35 57 12 99 3 158 -34 100 -62 137 -111 137 -179 0 -37 -70 -141 -107 -161 -25 -13 -110 -114 -132 -156 -15 -30 -14 -165 2 -184 6 -8 20 -21 29 -28 16 -12 16 -6 11 77 -6 85 -4 93 20 135 27 46 112 137 127 137 5 0 30 31 56 70 44 66 46 72 42 125 -3 41 -13 67 -34 98 -32 45 -128 116 -183 135 -34 12 -143 15 -171 5z"/>
<path d="M17263 27262 c-34 -21 -46 -291 -17 -375 16 -46 30 -65 41 -53 9 9 6 430 -3 433 -5 1 -15 -1 -21 -5z"/>
<path d="M12876 27141 c-32 -16 -68 -39 -80 -50 -20 -21 -20 -21 10 -21 40 0 187 67 181 83 -7 22 -51 17 -111 -12z"/>
<path d="M10795 26948 c-10 -126 -3 -310 13 -316 36 -11 54 161 36 337 -6 49 -10 61 -25 61 -14 0 -18 -13 -24 -82z"/>
<path d="M945 27000 c-4 -7 -3 -15 1 -20 18 -16 118 -30 221 -30 l106 0 -7 -172 c-20 -526 -20 -542 -2 -557 12 -10 19 -11 30 -2 11 10 15 65 20 269 3 141 9 304 14 362 l7 105 105 6 c58 4 187 7 288 8 100 0 182 5 182 9 0 5 -11 14 -24 22 -19 10 -83 11 -303 5 -410 -11 -470 -11 -554 -2 -56 6 -79 5 -84 -3z"/>
<path d="M11706 26976 c9 -25 77 -38 229 -46 150 -7 165 -6 165 16 0 18 -23 22 -170 28 -69 3 -149 9 -178 12 -46 6 -52 5 -46 -10z"/>
<path d="M12111 26933 c-6 -21 -14 -85 -17 -143 -5 -83 -3 -118 10 -162 15 -54 31 -77 43 -65 3 3 6 96 7 206 1 183 -1 201 -16 201 -11 0 -21 -13 -27 -37z"/>
<path d="M16960 26734 c0 -19 46 -59 109 -96 l46 -28 -555 -4 c-305 -3 -773 -10 -1040 -16 -484 -12 -1531 -16 -2300 -9 -223 2 -504 -1 -624 -5 -240 -10 -260 -4 -131 36 54 16 75 27 73 38 -5 25 -54 23 -130 -4 -74 -27 -120 -67 -133 -115 -7 -29 18 -69 48 -75 65 -13 130 -20 202 -20 64 -1 80 2 80 14 0 11 -30 18 -135 32 -74 9 -136 17 -137 17 -2 1 -3 7 -3 14 0 19 459 33 900 28 669 -7 1852 -3 2320 8 801 20 1232 23 1256 10 13 -7 41 -9 70 -5 27 3 78 9 114 12 l65 6 -47 -31 c-36 -23 -48 -37 -48 -55 0 -37 20 -43 44 -14 12 14 59 46 106 71 55 29 86 51 88 64 4 25 -29 54 -117 102 -78 43 -121 52 -121 25z"/>
<path d="M17240 26689 c-18 -32 -9 -361 9 -383 28 -34 36 1 39 183 4 173 -2 221 -28 221 -5 0 -14 -9 -20 -21z"/>
<path d="M11037 26647 c-15 -12 -47 -38 -70 -58 -23 -20 -57 -44 -76 -54 -78 -40 -91 -88 -33 -132 64 -50 152 -94 180 -91 29 3 45 38 18 38 -17 0 -127 59 -164 88 -23 18 -23 18 -4 35 17 16 62 18 515 20 274 1 497 0 497 -3 0 -3 -9 -13 -20 -23 -28 -23 -26 -47 4 -47 17 0 35 13 57 43 19 23 39 46 46 50 31 19 10 60 -52 99 -22 14 -46 33 -54 42 -7 9 -24 16 -37 16 -36 0 -30 -28 17 -76 l41 -41 -33 -12 c-22 -7 -168 -11 -458 -11 l-426 0 34 23 c66 44 105 83 98 100 -9 23 -47 20 -80 -6z"/>
<path d="M2346 26643 c-4 -4 -64 -10 -134 -13 -104 -4 -127 -8 -127 -20 0 -23 265 -21 318 3 21 9 36 21 32 27 -7 11 -78 14 -89 3z"/>
<path d="M13727 26425 c-44 -45 -120 -175 -154 -265 -22 -60 -41 -93 -64 -112 -30 -25 -36 -58 -10 -58 6 0 4 -15 -5 -35 -19 -46 -18 -110 2 -129 45 -46 214 14 214 76 0 24 -3 23 -71 -18 -34 -20 -69 -34 -81 -32 -20 3 -23 8 -21 43 2 53 46 151 87 195 52 56 152 191 175 238 14 27 21 57 19 80 -3 33 -6 37 -34 40 -22 2 -37 -4 -57 -23z m9 -108 c-34 -55 -76 -105 -76 -90 0 21 93 159 97 145 3 -7 -7 -31 -21 -55z"/>
<path d="M14794 26418 c-65 -43 -108 -110 -140 -217 -22 -74 -31 -90 -60 -110 -19 -13 -34 -30 -34 -38 0 -20 28 -28 45 -13 14 11 15 6 14 -45 -3 -76 9 -85 113 -85 78 0 138 16 153 40 6 10 -13 11 -83 5 -125 -10 -132 -7 -132 61 0 55 1 56 69 127 90 93 141 156 152 185 15 40 11 109 -7 116 -28 11 -41 7 -90 -26z m56 -45 c0 -26 -30 -71 -89 -133 l-52 -55 7 35 c8 48 48 114 86 144 39 30 48 32 48 9z"/>
<path d="M16788 26363 c-48 -54 -128 -274 -128 -348 l1 -30 23 27 c13 15 38 71 56 125 17 54 44 122 61 152 16 30 29 63 29 73 0 23 -22 23 -42 1z"/>
<path d="M11257 26352 c-39 -23 -113 -176 -133 -272 -49 -242 -30 -310 85 -310 39 0 109 38 145 79 32 36 10 35 -68 -2 -74 -35 -111 -39 -128 -13 -4 6 -8 35 -8 64 0 38 4 52 14 52 16 0 157 147 192 200 27 41 64 143 64 176 0 13 -9 28 -19 34 -30 16 -113 12 -144 -8z m107 -31 c3 -5 -3 -34 -14 -66 -19 -55 -87 -151 -150 -210 l-32 -30 7 50 c10 67 58 182 96 228 22 27 38 37 59 37 16 0 31 -4 34 -9z"/>
<path d="M14275 26144 c-33 -7 -78 -14 -100 -14 -57 -1 -148 -24 -153 -38 -7 -23 30 -25 156 -8 123 16 169 33 180 64 4 14 -5 14 -83 -4z"/>
<path d="M2683 26013 c-11 -29 65 -74 102 -59 20 7 20 62 -1 70 -33 13 -94 6 -101 -11z"/>
<path d="M15132 25971 c-57 -45 -114 -111 -109 -126 2 -5 16 -10 31 -10 20 1 25 -3 20 -15 -10 -27 -25 -131 -19 -140 3 -5 -16 -10 -42 -12 -35 -2 -48 -7 -48 -18 0 -12 20 -15 120 -15 100 0 120 3 120 15 0 11 -14 16 -50 18 l-51 3 7 62 c6 60 60 187 96 229 17 20 11 48 -11 48 -8 0 -36 -18 -64 -39z"/>
<path d="M11601 25898 c-11 -18 -38 -51 -60 -73 -23 -21 -41 -45 -41 -52 0 -23 30 -26 52 -7 21 19 21 19 14 -1 -39 -103 -57 -199 -42 -223 15 -24 47 -13 62 23 18 43 18 46 -2 38 -20 -7 -13 21 38 157 52 138 52 138 38 155 -19 23 -37 18 -59 -17z"/>
<path d="M7750 25460 c0 -21 42 -115 76 -168 20 -30 68 -93 106 -139 52 -61 76 -83 94 -83 13 0 24 4 24 10 0 5 -33 49 -74 98 -41 49 -99 127 -129 173 -77 116 -97 139 -97 109z"/>
<path d="M3330 25328 c-190 -4 -651 -12 -1025 -18 -1158 -18 -1300 -23 -1300 -40 0 -22 194 -21 2388 16 244 5 289 8 294 20 3 9 2 18 -3 22 -5 4 -164 4 -354 0z"/>
<path d="M15864 24933 c-220 -201 -224 -205 -184 -189 74 30 130 69 214 147 99 93 112 111 92 129 -12 9 -35 -8 -122 -87z"/>
<path d="M9482 24016 c34 -29 193 -105 297 -141 49 -17 111 -20 111 -5 0 10 -52 40 -69 40 -6 0 -75 28 -153 61 -79 34 -161 65 -183 69 l-40 8 37 -32z"/>
<path d="M14125 23986 c-66 -23 -133 -49 -150 -58 -16 -9 -69 -30 -117 -47 -107 -37 -160 -64 -137 -68 30 -7 159 26 246 62 49 20 132 52 187 71 100 36 146 59 146 75 0 18 -59 7 -175 -35z"/>
<path d="M11540 23541 c-57 -16 68 -31 262 -31 187 0 228 6 214 29 -8 12 -433 14 -476 2z"/>
<path d="M3244 21653 c-66 -71 -76 -107 -85 -295 -5 -94 -6 -174 -4 -179 3 -4 10 -93 16 -196 29 -543 22 -724 -41 -1043 -44 -221 -87 -342 -150 -426 -48 -64 -48 -90 1 -80 23 4 35 1 54 -18 28 -28 76 -121 98 -191 26 -81 67 -339 78 -495 17 -218 23 -1245 9 -1393 -7 -67 -14 -278 -17 -468 -6 -384 -3 -410 57 -501 39 -58 85 -88 136 -88 l39 1 -36 19 c-46 24 -96 81 -123 139 -20 44 -21 61 -21 386 1 194 6 396 14 470 23 237 19 1060 -7 1435 -11 161 -51 419 -79 505 -27 88 -92 202 -128 226 l-33 23 24 36 c73 110 159 449 183 727 13 148 14 434 1 563 -17 171 -24 629 -11 690 13 59 73 154 94 147 8 -3 11 -30 10 -86 -1 -79 0 -82 20 -79 26 4 35 32 36 115 1 53 -2 64 -21 77 -39 27 -77 20 -114 -21z"/>
<path d="M15994 21593 c-33 -71 -62 -172 -84 -293 -5 -25 -9 -84 -9 -133 -1 -87 -1 -87 40 -132 42 -46 87 -63 128 -50 31 10 26 20 -18 34 -23 6 -53 27 -71 48 -33 37 -33 37 -27 132 7 120 48 293 92 385 36 73 36 86 4 86 -15 0 -28 -19 -55 -77z"/>
<path d="M5920 21630 c0 -18 7 -20 55 -20 42 0 55 -4 55 -15 0 -8 -32 -49 -71 -92 -39 -43 -74 -87 -79 -98 -20 -51 25 -67 202 -69 98 -1 109 1 130 21 19 20 20 23 5 29 -9 3 -31 1 -48 -5 -40 -14 -97 -13 -176 2 l-62 12 74 84 c83 92 90 107 76 145 -10 25 -14 26 -86 26 -68 0 -75 -2 -75 -20z"/>
<path d="M6705 21623 c-45 -45 -113 -198 -125 -284 -14 -97 -17 -106 -40 -112 -26 -7 -27 -47 -1 -54 16 -4 18 -14 17 -77 -2 -103 6 -110 114 -104 85 5 164 32 191 64 17 21 -35 18 -111 -6 -34 -11 -80 -20 -101 -20 l-39 0 0 75 c0 54 4 77 13 81 16 6 97 114 120 159 20 41 54 169 60 228 8 78 -43 104 -98 50z m20 -172 c-21 -70 -90 -200 -100 -189 -2 2 1 32 6 68 10 72 35 138 82 218 l32 54 3 -33 c2 -17 -8 -71 -23 -118z"/>
<path d="M16597 21623 c-14 -13 -6 -24 36 -51 75 -48 137 -104 163 -148 36 -62 72 -185 85 -292 14 -117 4 -191 -52 -362 -21 -68 -37 -125 -35 -127 9 -9 66 78 90 140 42 106 59 207 52 317 -6 98 -40 236 -79 319 -25 54 -100 130 -174 178 -51 33 -73 39 -86 26z"/>
<path d="M9896 21604 c-3 -9 -6 -43 -6 -76 0 -33 -5 -102 -11 -155 -10 -83 -9 -97 4 -111 22 -21 47 0 47 41 0 34 34 98 92 172 60 76 68 77 68 6 0 -76 6 -91 38 -91 18 0 45 20 99 76 40 41 79 74 86 71 8 -2 13 -34 14 -98 4 -118 8 -139 32 -139 25 0 31 19 30 98 0 91 -13 160 -32 179 -28 28 -79 9 -145 -56 -65 -61 -71 -61 -72 10 0 18 -9 33 -26 44 -36 23 -73 6 -121 -57 l-38 -49 -3 53 c-3 78 -10 98 -31 98 -10 0 -22 -7 -25 -16z"/>
<path d="M10942 21578 c-5 -7 -15 -58 -21 -113 -6 -55 -16 -129 -21 -165 -7 -51 -6 -68 5 -79 19 -20 29 -9 74 82 39 77 118 177 141 177 6 0 10 -36 10 -93 0 -91 8 -117 36 -117 11 0 53 65 97 152 10 20 25 42 34 49 28 23 35 -9 29 -134 -6 -117 -6 -118 16 -115 55 8 58 242 5 316 -25 33 -78 -5 -127 -91 l-27 -48 -6 55 c-7 70 -11 76 -50 76 -44 -1 -69 -17 -122 -78 -51 -60 -55 -55 -33 49 9 46 9 61 -1 73 -16 19 -25 20 -39 4z"/>
<path d="M8964 21475 c-40 -18 -111 -97 -148 -165 -22 -41 -31 -73 -37 -138 -10 -117 5 -164 74 -230 65 -61 109 -76 210 -71 114 6 148 49 88 110 l-29 29 81 0 c107 0 147 -14 147 -53 0 -36 16 -67 35 -67 19 0 30 63 18 103 -7 25 -17 34 -48 43 -41 13 -291 19 -319 8 -32 -12 -17 -43 32 -66 88 -42 57 -75 -59 -62 -52 6 -66 12 -108 50 -65 58 -74 85 -69 192 4 80 7 93 41 149 43 71 107 133 140 134 74 4 117 -13 117 -46 0 -32 25 -51 45 -35 18 15 19 43 4 72 -26 48 -147 72 -215 43z"/>
<path d="M4009 21423 c-1 -4 -2 -84 -3 -178 -1 -93 -5 -188 -10 -210 -6 -33 -5 -44 8 -55 24 -19 42 2 56 65 22 98 43 150 73 185 37 43 97 89 115 90 27 0 69 -39 81 -77 11 -34 10 -44 -9 -86 -13 -28 -20 -62 -18 -85 3 -32 7 -37 31 -40 24 -3 30 2 47 40 11 24 20 62 20 85 0 37 5 46 46 82 63 55 98 56 121 4 9 -21 20 -65 24 -98 19 -165 30 -198 60 -179 12 7 11 28 -10 191 -10 85 -44 153 -83 167 -36 13 -99 -7 -142 -44 l-34 -30 -12 31 c-14 33 -82 89 -109 89 -34 -1 -102 -40 -144 -84 -24 -25 -47 -43 -50 -39 -4 3 -7 34 -7 67 0 62 -15 106 -37 114 -7 2 -13 0 -14 -5z"/>
<path d="M16379 21348 c-71 -96 -84 -121 -76 -142 12 -30 35 -16 65 37 58 103 62 99 62 -71 0 -124 3 -153 16 -166 42 -42 47 -20 45 197 -3 262 -14 277 -112 145z"/>
<path d="M11478 21409 c-10 -5 -18 -17 -18 -26 0 -12 8 -14 45 -9 l45 7 0 -35 c0 -21 -9 -45 -23 -63 -63 -76 -42 -93 114 -93 114 0 159 9 159 30 0 6 -52 10 -127 10 -120 0 -125 1 -110 18 31 34 47 87 37 123 -5 18 -15 36 -22 41 -18 11 -80 9 -100 -3z"/>
<path d="M10515 21350 c-8 -13 -21 -130 -17 -157 2 -15 10 -23 23 -23 21 0 25 13 34 118 6 67 5 72 -14 72 -11 0 -22 -4 -26 -10z"/>
<path d="M5723 21274 c-4 -11 1 -22 13 -31 10 -8 26 -20 34 -26 45 -35 60 -69 60 -138 0 -57 -4 -72 -24 -96 -41 -47 -122 -29 -185 42 -17 20 -31 44 -31 55 0 54 -45 72 -56 23 -11 -48 -33 -123 -39 -133 -12 -19 -45 10 -71 62 -18 35 -27 74 -31 124 -6 80 -21 106 -48 84 -19 -16 -19 -80 -1 -141 34 -112 93 -189 145 -189 26 0 61 37 68 73 l6 27 39 -36 c51 -45 95 -64 153 -64 37 0 52 6 81 33 30 27 36 41 44 97 14 100 -13 168 -91 226 -38 28 -57 30 -66 8z"/>
<path d="M7530 21230 c0 -18 9 -19 183 -22 100 -2 186 0 191 4 5 4 4 14 -4 23 -10 12 -42 15 -191 15 -171 0 -179 -1 -179 -20z"/>
<path d="M7745 21093 c-36 -8 -85 -11 -122 -8 -58 5 -63 4 -63 -14 0 -28 86 -45 155 -31 28 6 79 15 115 20 36 6 74 13 84 16 19 6 19 7 1 20 -23 17 -90 16 -170 -3z"/>
<path d="M7075 21074 c-8 -9 -23 -30 -32 -47 -9 -18 -27 -46 -39 -63 -26 -33 -30 -59 -14 -69 6 -4 17 -1 25 5 18 15 18 15 5 -74 -12 -79 -7 -106 20 -106 22 0 26 14 34 105 2 33 16 95 31 139 22 63 25 83 16 102 -12 28 -24 30 -46 8z"/>
<path d="M10960 21048 c-822 -11 -1035 -19 -1035 -38 0 -18 124 -18 1060 -4 552 9 570 10 570 28 0 11 -4 20 -10 20 -5 1 -269 -2 -585 -6z"/>
<path d="M4919 20981 c-17 -26 -50 -63 -75 -81 -24 -19 -44 -40 -44 -47 0 -23 27 -26 56 -6 28 18 28 18 20 -2 -5 -11 -12 -49 -16 -85 -8 -72 3 -112 34 -118 25 -5 44 14 28 30 -28 28 5 223 49 295 17 27 19 36 9 48 -19 23 -29 18 -61 -34z"/>
<path d="M10945 20864 c-14 -15 -25 -31 -25 -36 0 -22 22 -48 41 -48 17 0 20 4 15 24 -7 27 15 51 39 42 10 -4 15 -19 15 -50 0 -43 -3 -47 -75 -113 -66 -59 -75 -72 -73 -98 l3 -30 110 -7 c61 -3 123 -8 140 -10 21 -2 30 2 33 13 5 25 -49 39 -151 39 l-90 0 79 74 c79 73 79 73 77 125 -2 72 -23 101 -74 101 -30 0 -46 -6 -64 -26z"/>
<path d="M10539 20703 c-39 -44 -98 -209 -129 -363 -7 -36 -17 -70 -22 -77 -6 -7 -6 -18 -2 -25 5 -7 7 -47 5 -90 -3 -94 13 -118 82 -118 50 1 151 47 155 73 5 24 -17 22 -84 -8 -84 -37 -94 -31 -94 65 0 67 3 81 18 89 10 5 47 62 81 125 130 239 145 356 47 356 -23 0 -40 -8 -57 -27z m67 -67 c-6 -38 -135 -320 -143 -312 -4 3 14 77 41 177 19 69 53 148 74 171 23 27 35 11 28 -36z"/>
<path d="M6788 19319 c-88 -136 -163 -533 -163 -859 0 -136 2 -149 27 -202 15 -32 39 -73 53 -92 32 -41 103 -79 142 -74 27 3 26 4 -25 37 -60 38 -92 76 -124 147 -19 43 -22 66 -22 189 -1 309 76 712 159 837 31 46 31 58 2 58 -15 0 -31 -13 -49 -41z"/>
<path d="M8540 19275 c-11 -13 -9 -19 9 -37 31 -28 88 -119 122 -193 65 -144 100 -390 89 -620 -7 -133 -12 -162 -44 -260 -40 -123 -77 -189 -129 -231 -39 -31 -39 -44 0 -44 33 0 100 68 130 131 12 25 35 87 53 139 27 82 32 117 41 262 9 149 7 184 -11 315 -25 183 -66 316 -128 416 -49 79 -96 137 -111 137 -5 0 -14 -7 -21 -15z"/>
<path d="M6877 19060 c-26 -17 -61 -96 -80 -180 -18 -82 -38 -369 -27 -385 4 -5 10 -21 13 -35 4 -14 20 -39 37 -55 26 -25 40 -30 95 -33 59 -4 69 -2 115 28 47 30 114 99 106 108 -5 5 -56 -21 -128 -65 -49 -30 -62 -34 -97 -28 -48 8 -81 43 -81 86 0 16 17 55 41 91 78 121 135 262 146 359 5 48 3 58 -18 83 -27 30 -91 44 -122 26z m85 -65 c17 -37 -12 -138 -75 -264 l-52 -106 -3 87 c-5 140 47 308 95 308 15 0 27 -9 35 -25z"/>
<path d="M12440 19057 c-53 -18 -46 -43 11 -39 37 2 50 -2 73 -23 23 -21 26 -31 21 -58 -4 -17 -18 -50 -32 -71 -33 -51 -45 -94 -32 -117 9 -17 23 -19 139 -19 121 0 180 10 180 32 0 4 -61 8 -135 8 -82 0 -135 4 -135 10 0 5 16 39 35 76 19 36 35 78 35 92 0 39 -33 86 -73 105 -41 20 -41 20 -87 4z"/>
<path d="M13031 19011 c-57 -54 -104 -177 -131 -347 -7 -41 -17 -72 -28 -80 -12 -9 -13 -15 -5 -25 6 -8 13 -56 15 -107 6 -106 22 -133 88 -153 44 -13 84 -3 190 49 64 32 75 41 78 66 2 15 0 27 -5 25 -4 -2 -52 -25 -105 -52 -107 -51 -134 -56 -168 -29 -19 15 -23 30 -27 102 l-5 85 84 86 c73 73 88 96 112 160 37 96 46 201 21 229 -27 30 -76 26 -114 -9z m79 -54 c0 -91 -55 -219 -122 -283 l-40 -39 7 40 c24 147 62 249 111 299 32 31 44 26 44 -17z"/>
<path d="M8106 19000 c-25 -22 -47 -61 -79 -138 -25 -59 -48 -123 -52 -142 -12 -61 -15 -68 -46 -80 -33 -14 -36 -45 -4 -44 19 0 20 -6 17 -88 -5 -108 15 -151 78 -168 43 -12 129 2 170 27 38 24 80 65 80 80 0 22 -28 15 -80 -21 -49 -34 -123 -53 -159 -41 -27 8 -41 49 -40 113 1 93 18 135 69 174 50 38 110 112 140 174 26 52 28 169 4 178 -33 13 -65 5 -98 -24z m62 -72 c-3 -41 -13 -66 -45 -113 -23 -33 -54 -71 -68 -85 l-27 -25 7 35 c10 49 64 168 92 208 35 47 46 41 41 -20z"/>
<path d="M16019 18968 c-56 -77 -72 -124 -80 -248 -22 -320 -3 -433 67 -406 15 6 15 8 0 31 -13 20 -16 58 -16 233 0 234 5 264 64 355 20 31 34 62 31 67 -13 20 -36 9 -66 -32z"/>
<path d="M16814 18978 c-7 -12 21 -38 42 -38 17 0 86 -57 106 -88 54 -81 96 -274 83 -376 -26 -192 -90 -309 -186 -341 -56 -19 -51 -35 9 -35 100 0 187 124 219 317 15 88 16 115 5 197 -12 97 -48 205 -86 262 -53 77 -169 140 -192 102z"/>
<path d="M6156 18935 c-42 -15 -96 -61 -96 -82 0 -29 31 -24 70 11 35 32 46 36 93 36 40 0 58 -5 70 -18 37 -41 13 -78 -96 -147 -46 -28 -58 -41 -55 -58 3 -24 13 -27 186 -52 99 -14 157 -12 168 6 6 11 -50 24 -168 40 -54 7 -98 16 -98 20 0 5 20 22 44 38 59 41 86 77 86 115 0 84 -100 128 -204 91z"/>
<path d="M12243 18839 c-13 -13 0 -69 23 -105 8 -12 17 -53 20 -91 4 -59 2 -73 -19 -108 -19 -34 -28 -40 -53 -38 -76 6 -114 38 -164 139 -35 71 -45 81 -65 64 -11 -9 -15 -34 -15 -87 0 -88 -18 -133 -55 -133 -46 0 -83 73 -113 223 -20 97 -33 120 -57 96 -14 -13 -13 -27 9 -124 39 -177 86 -245 166 -245 42 0 86 47 97 102 l8 41 27 -40 c36 -55 99 -85 169 -81 51 3 55 5 84 48 28 42 30 52 30 132 0 72 -4 96 -24 135 -13 26 -27 54 -31 62 -9 20 -23 24 -37 10z"/>
<path d="M16332 18821 c-41 -11 -60 -27 -46 -41 6 -6 39 -6 96 1 69 9 91 9 114 -2 60 -29 36 -103 -55 -173 -98 -74 -125 -128 -79 -160 17 -12 47 -16 118 -15 107 1 185 22 208 57 13 20 13 22 -7 22 -12 0 -47 -9 -78 -20 -80 -28 -220 -26 -210 4 2 6 34 37 72 69 93 78 117 115 113 174 -4 67 -35 87 -136 90 -42 1 -92 -2 -110 -6z"/>
<path d="M10560 18795 c-9 -10 -10 -33 -6 -73 4 -31 9 -87 13 -124 6 -73 22 -100 48 -78 8 7 15 20 15 30 0 31 42 125 67 148 13 12 33 22 43 22 25 0 50 -48 50 -93 0 -42 23 -66 45 -47 8 7 15 23 15 36 0 27 51 89 90 109 32 17 90 22 109 11 25 -16 41 -75 41 -155 0 -62 4 -84 18 -102 20 -24 59 -21 49 5 -3 7 -8 55 -12 107 -11 144 -48 199 -133 199 -54 0 -108 -22 -148 -61 l-31 -30 -27 36 c-19 25 -35 35 -54 35 -39 0 -93 -32 -119 -70 l-23 -33 0 52 c0 77 -22 110 -50 76z"/>
<path d="M4062 18718 c-20 -20 -14 -65 9 -82 20 -13 22 -25 24 -119 2 -113 6 -127 34 -127 32 0 42 24 35 79 -7 58 4 82 63 135 99 88 142 74 143 -45 0 -47 4 -70 15 -79 22 -19 45 5 45 47 0 27 10 44 46 83 56 60 85 65 102 17 7 -18 12 -63 12 -100 0 -55 4 -70 21 -86 39 -36 113 -38 167 -5 36 24 16 34 -53 27 -75 -7 -70 -12 -84 99 -5 43 -18 92 -28 110 -18 30 -24 33 -66 32 -41 0 -53 -6 -86 -38 l-38 -38 -23 36 c-12 20 -33 39 -47 42 -40 11 -100 -14 -155 -63 l-53 -46 -6 30 c-7 36 -39 95 -54 100 -6 2 -16 -2 -23 -9z"/>
<path d="M7405 18700 c-12 -20 6 -28 82 -34 43 -3 103 -8 134 -12 59 -7 117 10 88 26 -44 23 -292 40 -304 20z"/>
<path d="M5847 18684 c-15 -15 -6 -32 22 -42 36 -13 50 -38 58 -103 4 -36 1 -60 -13 -90 -21 -47 -47 -60 -101 -52 -80 12 -130 53 -192 156 -13 21 -31 37 -41 37 -19 0 -50 -39 -50 -63 0 -8 -7 -31 -16 -52 -15 -36 -16 -36 -34 -20 -11 10 -31 48 -46 86 -26 65 -55 109 -73 109 -5 0 -14 -7 -21 -15 -15 -18 -5 -65 13 -65 7 0 25 -29 41 -65 29 -66 73 -115 105 -115 24 0 46 26 67 79 18 44 18 44 33 20 59 -89 144 -139 235 -139 66 0 95 16 123 65 39 68 28 198 -20 243 -24 23 -77 38 -90 26z"/>
<path d="M9595 18585 c-5 -2 -77 -13 -158 -26 -151 -23 -192 -37 -170 -59 9 -9 49 -6 171 14 88 14 219 29 292 32 125 7 159 16 129 35 -13 8 -241 12 -264 4z"/>
<path d="M11407 18488 c-41 -43 -67 -93 -67 -127 0 -45 42 -33 55 16 3 15 13 36 22 47 13 19 14 7 8 -135 -5 -115 -4 -159 5 -164 30 -19 43 36 56 250 6 101 -3 155 -27 155 -7 0 -30 -19 -52 -42z"/>
<path d="M13489 18471 c-63 -72 -94 -124 -86 -145 10 -26 35 -18 52 15 9 17 19 28 22 25 3 -3 2 -43 -2 -90 l-7 -85 -81 -3 c-65 -2 -82 -6 -82 -18 0 -13 26 -15 164 -18 158 -2 191 3 191 29 0 5 -29 9 -65 9 l-65 0 0 70 c0 71 11 131 37 207 28 83 -7 84 -78 4z"/>
<path d="M8480 18428 c-33 -35 -60 -68 -60 -75 0 -21 20 -25 46 -8 l25 16 -5 -43 c-13 -103 -17 -179 -11 -198 7 -22 37 -27 52 -7 15 19 22 56 12 63 -22 13 1 207 31 263 14 27 7 51 -15 51 -8 0 -42 -28 -75 -62z"/>
<path d="M9625 18458 c-149 -14 -256 -31 -262 -41 -16 -27 21 -29 219 -12 218 19 263 26 293 49 18 14 12 15 -70 14 -49 -1 -130 -5 -180 -10z"/>
<path d="M4910 18357 c-29 -15 -33 -45 -7 -61 15 -9 21 -7 33 8 18 26 134 37 134 14 0 -28 -55 -96 -138 -168 -79 -70 -102 -105 -87 -131 20 -32 285 21 285 57 0 19 -24 18 -131 -6 -51 -12 -93 -19 -95 -17 -2 2 33 36 78 76 46 40 95 91 111 113 28 43 35 96 15 116 -16 16 -166 15 -198 -1z"/>
<path d="M5834 17220 c-41 -13 -58 -34 -50 -64 15 -59 68 -70 63 -13 -2 32 -2 32 60 40 74 10 151 -9 198 -49 l30 -25 -45 -40 c-24 -22 -93 -68 -153 -101 -59 -33 -115 -71 -123 -84 -46 -70 31 -108 216 -109 125 0 190 16 226 57 19 21 19 21 -16 15 -19 -4 -69 -14 -110 -22 -48 -10 -96 -13 -132 -9 -71 7 -143 28 -142 40 1 5 53 39 115 75 129 75 209 143 209 177 0 28 -51 78 -100 99 -42 19 -201 27 -246 13z"/>
<path d="M6592 17220 c-82 -19 -64 -55 20 -42 l55 8 11 -43 c7 -24 12 -85 12 -136 0 -104 -12 -134 -58 -139 -43 -5 -34 -32 12 -36 83 -7 114 66 97 233 -6 60 -11 112 -11 117 0 4 60 8 133 8 l133 0 -8 -102 c-4 -57 -12 -116 -17 -133 -21 -68 -23 -95 -7 -101 35 -13 44 11 77 205 9 54 10 81 2 102 -11 29 -11 29 35 29 49 0 82 13 68 27 -10 11 -512 14 -554 3z"/>
<path d="M16895 17180 c-10 -16 2 -27 60 -54 117 -53 164 -112 196 -246 14 -62 16 -89 8 -150 -5 -41 -14 -91 -21 -110 -19 -60 -88 -193 -112 -220 -13 -14 -35 -44 -50 -67 l-26 -43 28 12 c57 24 112 91 164 196 42 85 53 119 65 203 13 91 13 107 -2 177 -35 156 -78 213 -212 281 -66 33 -88 37 -98 21z"/>
<path d="M16337 17068 c-43 -67 -75 -266 -79 -483 -3 -150 -1 -175 16 -213 13 -28 27 -44 43 -48 34 -9 36 -3 12 46 -20 41 -21 55 -16 244 4 176 8 215 32 311 15 61 28 121 29 134 1 32 -19 38 -37 9z"/>
<path d="M16573 16903 c-7 -2 -13 -16 -13 -29 0 -17 6 -24 19 -24 11 0 23 5 26 10 13 21 125 3 125 -20 0 -3 -25 -18 -55 -33 -76 -37 -74 -54 15 -113 38 -25 72 -49 75 -53 2 -5 -9 -21 -25 -36 -25 -24 -41 -30 -90 -33 -50 -4 -60 -8 -58 -21 3 -12 18 -17 71 -19 67 -3 67 -3 114 42 43 40 47 47 38 72 -6 17 -34 44 -73 71 l-62 42 50 26 c50 25 59 41 44 80 -11 28 -60 45 -126 44 -35 0 -69 -3 -75 -6z"/>
<path d="M4587 16883 c-16 -16 -5 -44 20 -54 39 -15 43 -24 43 -111 0 -157 -77 -256 -187 -241 -43 6 -91 43 -149 118 -30 37 -33 38 -58 27 -14 -6 -26 -19 -26 -27 0 -22 -37 -92 -60 -115 -32 -32 -54 -24 -88 29 -35 53 -57 162 -46 229 7 48 -16 83 -43 66 -14 -9 -18 -24 -17 -65 2 -181 74 -329 160 -329 32 0 84 42 111 88 15 26 28 49 29 51 2 1 28 -22 59 -52 57 -56 83 -67 156 -67 74 0 140 46 181 125 26 49 41 193 27 247 -14 55 -86 107 -112 81z"/>
<path d="M4944 16739 c-3 -6 -2 -15 2 -19 5 -5 97 -10 204 -11 163 -2 194 0 192 12 -2 8 -9 17 -15 21 -20 12 -375 10 -383 -3z"/>
<path d="M6040 16625 c-8 -3 -62 -9 -120 -15 -161 -16 -195 -23 -195 -40 0 -22 30 -23 177 -5 87 11 249 19 472 22 355 6 450 0 658 -38 121 -23 203 -22 203 1 0 11 -22 18 -90 27 -49 6 -124 19 -165 28 -63 15 -145 18 -500 20 -234 2 -432 2 -440 0z"/>
<path d="M5022 16573 c3 -16 20 -18 153 -21 105 -2 157 1 173 10 22 11 22 13 5 19 -10 4 -89 8 -176 8 -146 1 -158 0 -155 -16z"/>
<path d="M6317 16230 c-14 -17 -30 -20 -94 -20 -100 -1 -198 -21 -198 -40 0 -17 31 -18 188 -5 l97 8 -1 -194 c0 -172 -4 -218 -25 -320 -7 -32 20 -58 44 -42 22 13 30 94 38 361 4 141 9 202 18 202 91 3 329 20 354 26 23 5 32 12 32 26 0 18 -5 19 -47 14 -109 -14 -355 -18 -366 -7 -15 15 -20 14 -40 -9z"/>
<path d="M2678 14698 c-62 -81 -88 -159 -123 -368 -52 -307 -44 -437 32 -520 36 -40 59 -47 110 -34 28 8 20 24 -11 24 -15 0 -37 15 -58 39 -69 76 -73 176 -19 491 35 200 46 237 96 316 36 55 39 84 12 84 -8 0 -26 -15 -39 -32z"/>
<path d="M10403 14653 c-50 -53 -101 -170 -130 -303 -18 -82 -31 -119 -45 -128 -18 -13 -18 -15 -3 -39 11 -16 16 -43 15 -76 -3 -89 -1 -98 29 -128 26 -25 37 -29 88 -29 66 0 140 31 193 80 58 55 26 69 -49 20 -72 -45 -120 -62 -157 -55 -44 8 -54 29 -54 115 l0 70 56 57 c71 73 107 125 150 220 55 120 58 199 9 221 -43 20 -66 14 -102 -25z m84 -61 c-8 -65 -76 -208 -126 -263 -48 -53 -51 -42 -22 73 31 121 97 238 134 238 18 0 19 -5 14 -48z"/>
<path d="M3424 14655 c-4 -9 14 -33 50 -66 31 -28 69 -72 84 -98 26 -44 27 -53 31 -207 4 -186 -5 -229 -71 -357 -36 -69 -105 -147 -129 -147 -5 0 -6 -7 -3 -15 21 -54 129 38 186 157 61 128 71 175 69 333 -1 161 -6 195 -34 250 -23 46 -140 165 -162 165 -9 0 -18 -7 -21 -15z"/>
<path d="M7316 14649 c-54 -43 -78 -124 -112 -389 -10 -81 -21 -131 -32 -143 -13 -14 -13 -21 -2 -41 8 -15 10 -38 6 -59 -7 -40 4 -77 34 -107 24 -24 103 -27 174 -6 56 17 143 71 157 99 10 18 9 19 -17 13 -15 -4 -61 -23 -101 -43 -40 -19 -92 -38 -116 -40 -63 -7 -77 10 -77 99 0 66 2 73 33 107 46 51 121 194 142 272 12 46 16 91 13 144 -3 66 -7 80 -27 96 -30 24 -42 24 -75 -2z m54 -112 c0 -33 -7 -84 -16 -115 -17 -58 -80 -192 -90 -192 -19 0 25 280 53 334 37 74 53 67 53 -27z"/>
<path d="M13911 14488 c-39 -27 -84 -126 -106 -232 -16 -74 -27 -93 -62 -107 -28 -11 -30 -29 -3 -36 13 -4 19 -11 16 -22 -3 -9 -7 -33 -10 -53 -4 -21 -8 -54 -11 -73 -8 -47 20 -75 75 -75 49 0 194 69 210 101 11 20 10 21 -22 14 -18 -4 -60 -20 -93 -35 -97 -45 -115 -44 -115 9 0 44 37 171 49 171 12 0 115 137 139 186 21 41 32 140 18 162 -11 19 -50 14 -85 -10z m39 -68 c0 -34 -24 -86 -64 -139 -29 -39 -34 -25 -12 35 45 125 76 167 76 104z"/>
<path d="M1542 14478 c-5 -7 -22 -65 -37 -128 -15 -63 -31 -128 -36 -144 -5 -16 -9 -55 -9 -87 0 -54 2 -59 25 -65 42 -10 73 15 196 159 l49 58 0 -88 c0 -102 14 -138 50 -138 21 0 32 13 65 75 58 109 137 206 157 193 12 -7 9 -143 -3 -183 -17 -56 -28 -172 -18 -196 7 -20 2 -29 -35 -61 -58 -51 -94 -110 -102 -171 -11 -89 50 -163 122 -146 107 26 193 115 194 202 0 44 -15 77 -58 123 l-24 27 55 36 c69 46 87 66 61 66 -16 0 -47 -14 -156 -68 -14 -7 -8 111 7 162 8 27 15 87 15 133 0 76 -2 86 -25 108 -13 14 -28 25 -33 25 -36 0 -169 -146 -196 -215 -10 -26 -12 -16 -16 82 -3 62 -10 117 -16 123 -17 17 -42 1 -82 -54 -54 -76 -170 -201 -179 -193 -8 8 5 79 44 238 25 100 26 139 5 139 -5 0 -14 -6 -20 -12z m520 -625 c58 -63 62 -109 17 -171 -34 -46 -93 -82 -133 -82 -18 0 -30 9 -42 31 -29 57 2 141 80 211 22 21 44 38 47 38 3 0 17 -12 31 -27z"/>
<path d="M3052 14380 c-74 -17 -67 -54 8 -44 90 12 144 -25 126 -84 -7 -20 -57 -69 -154 -150 -58 -48 -66 -76 -31 -108 26 -24 150 -31 233 -14 53 11 118 51 105 64 -3 4 -46 -3 -95 -15 -88 -21 -186 -21 -207 0 -4 4 29 39 75 77 45 38 93 85 105 103 30 44 31 103 3 131 -36 36 -111 54 -168 40z"/>
<path d="M4045 14368 c-14 -42 -8 -68 15 -68 21 0 50 46 43 68 -3 6 -16 12 -29 12 -14 0 -27 -6 -29 -12z"/>
<path d="M9433 14355 c-49 -21 -108 -72 -129 -111 -19 -35 -34 -44 -34 -20 0 7 -11 25 -25 40 -45 48 -148 32 -212 -34 l-33 -34 0 32 c0 17 -5 34 -11 38 -21 12 -39 -22 -48 -91 -5 -39 -19 -96 -30 -128 -16 -44 -19 -62 -11 -77 6 -11 14 -20 18 -20 23 1 52 45 52 82 1 27 23 68 70 129 46 60 67 75 117 84 39 6 43 5 57 -24 9 -17 16 -55 16 -89 0 -67 18 -95 45 -72 8 7 15 22 15 34 0 63 131 226 181 226 17 0 19 -8 18 -87 0 -49 -4 -110 -9 -138 -25 -148 -25 -137 0 -133 27 4 41 41 59 160 13 81 6 213 -12 236 -12 16 -54 15 -94 -3z"/>
<path d="M5925 14320 c-3 -6 1 -30 10 -54 17 -44 17 -138 -1 -267 -4 -34 -2 -48 10 -58 12 -10 19 -11 30 -2 15 13 36 85 36 127 0 38 64 114 95 114 34 0 45 -27 45 -113 0 -53 4 -78 15 -87 18 -15 32 -6 49 33 7 18 26 47 42 66 42 51 142 121 171 121 l26 0 -8 -180 c-7 -177 -7 -180 14 -180 22 0 23 5 37 130 10 87 6 237 -6 261 -25 45 -133 8 -233 -82 l-57 -51 0 35 c0 25 -9 44 -29 66 -41 44 -91 41 -147 -11 -21 -19 -21 -19 -26 29 -3 27 -11 62 -19 78 -15 31 -42 44 -54 25z"/>
<path d="M12502 14277 c-7 -8 -15 -43 -18 -78 -4 -37 -17 -83 -30 -109 -35 -65 -29 -120 13 -120 17 0 43 53 43 88 0 34 51 105 105 147 43 32 121 51 142 34 16 -14 18 -95 2 -105 -6 -3 -20 -26 -30 -49 -15 -33 -17 -49 -9 -69 23 -60 78 -13 105 89 8 32 16 59 18 61 2 2 29 15 60 28 89 40 107 26 107 -84 0 -86 -14 -146 -37 -158 -19 -11 -11 -42 11 -42 52 0 89 101 79 224 -6 85 -19 108 -68 123 -32 10 -45 9 -89 -8 -28 -11 -55 -25 -60 -30 -14 -13 -26 -11 -26 5 0 7 -9 25 -21 40 -38 48 -145 32 -228 -33 l-38 -30 1 41 c1 43 -13 58 -32 35z"/>
<path d="M11244 14217 c-15 -41 9 -45 249 -49 135 -3 177 0 177 9 0 24 -38 31 -205 36 -93 3 -180 8 -192 12 -16 5 -25 3 -29 -8z"/>
<path d="M8064 14158 c-13 -21 27 -36 110 -43 95 -8 287 10 325 30 25 13 25 13 -24 21 -28 4 -86 2 -131 -4 -45 -6 -90 -9 -100 -7 -58 12 -174 14 -180 3z"/>
<path d="M11367 14104 c-36 -36 37 -55 200 -52 106 3 128 6 128 18 0 12 -23 16 -120 21 -66 3 -138 9 -160 13 -22 4 -44 4 -48 0z"/>
<path d="M14298 14030 c-43 -44 -78 -87 -78 -95 0 -26 22 -27 49 -1 37 35 42 33 27 -11 -17 -50 -27 -155 -17 -172 5 -7 17 -11 27 -9 16 3 20 16 25 73 7 74 11 88 53 199 21 53 24 71 15 82 -6 8 -14 14 -18 14 -3 -1 -41 -37 -83 -80z"/>
<path d="M9625 14039 c-10 -15 -2 -20 53 -38 45 -15 47 -17 50 -59 3 -38 -1 -47 -31 -75 -19 -18 -49 -41 -67 -52 -40 -24 -55 -47 -47 -69 5 -13 23 -16 112 -16 112 0 156 11 189 49 28 31 12 38 -42 16 -26 -11 -80 -21 -122 -23 l-75 -3 46 29 c67 43 94 86 92 145 0 26 -7 55 -15 64 -29 35 -128 57 -143 32z"/>
<path d="M10845 14042 c-6 -4 -28 -31 -48 -60 -41 -57 -45 -88 -11 -85 20 2 21 -1 13 -40 -24 -115 -26 -137 -14 -154 19 -26 42 -2 48 50 6 45 13 81 27 137 33 130 33 130 20 145 -14 17 -20 18 -35 7z"/>
<path d="M13322 14038 c-7 -7 -12 -18 -12 -26 0 -8 -30 -45 -66 -83 -44 -45 -64 -73 -61 -84 9 -23 28 -18 65 18 34 31 35 31 28 7 -15 -51 -19 -157 -7 -165 21 -12 38 14 44 68 11 96 25 162 42 205 14 34 15 45 5 57 -15 18 -22 19 -38 3z"/>
<path d="M4016 13981 c-20 -22 -15 -51 7 -51 20 0 39 26 35 46 -5 25 -22 27 -42 5z"/>
<path d="M6607 13963 c-13 -13 -7 -22 27 -38 18 -9 39 -28 45 -43 12 -25 10 -29 -31 -67 -25 -22 -60 -51 -78 -66 -75 -57 2 -76 183 -44 102 18 188 39 216 54 18 10 48 51 37 51 -2 0 -47 -11 -100 -25 -54 -14 -127 -30 -164 -35 -37 -5 -77 -13 -90 -16 -18 -5 -9 7 32 49 60 60 67 81 40 127 -26 44 -95 75 -117 53z"/>
<path d="M8754 13278 c-4 -7 0 -16 10 -22 66 -39 105 -98 138 -206 16 -53 21 -105 25 -275 5 -203 5 -213 -20 -307 -14 -53 -40 -132 -57 -176 -29 -76 -41 -96 -100 -173 l-24 -33 44 31 c89 62 116 106 176 298 28 88 29 94 29 325 0 267 -11 334 -75 444 -48 82 -123 131 -146 94z"/>
<path d="M13840 13263 c-57 -21 -100 -101 -134 -253 -22 -102 -29 -118 -57 -142 -39 -33 -35 -64 7 -54 23 6 25 4 19 -11 -14 -35 -18 -139 -5 -162 14 -27 67 -51 112 -51 51 0 182 48 208 75 13 14 22 27 19 29 -2 2 -40 -7 -84 -21 -175 -53 -223 -42 -211 51 4 28 11 77 15 109 6 46 14 65 42 95 92 97 149 208 149 287 0 45 -33 65 -80 48z m30 -58 c0 -30 -45 -132 -77 -174 -35 -46 -43 -37 -24 25 5 16 12 41 15 55 6 30 62 109 76 109 6 0 10 -7 10 -15z"/>
<path d="M9488 13229 c-30 -22 -81 -147 -119 -289 -12 -47 -29 -93 -37 -103 -13 -14 -13 -21 -3 -40 9 -17 9 -30 2 -51 -6 -15 -11 -47 -11 -71 0 -50 16 -65 73 -65 45 0 218 65 235 87 22 30 -18 28 -115 -7 -48 -18 -99 -33 -113 -34 -22 -1 -25 3 -24 29 3 67 17 141 30 156 8 8 24 35 37 60 13 24 43 78 66 119 31 55 44 92 50 137 11 92 -13 116 -71 72z m-7 -156 c-17 -36 -34 -64 -36 -61 -3 2 10 42 28 87 21 55 33 76 35 61 2 -11 -10 -51 -27 -87z"/>
<path d="M5857 13193 c-74 -122 -144 -569 -135 -853 5 -138 18 -178 77 -234 36 -35 38 -30 11 29 -36 79 -43 140 -37 310 10 256 55 553 101 664 14 36 26 70 26 78 0 14 -36 18 -43 6z"/>
<path d="M12735 13014 c-16 -8 -57 -42 -90 -75 -33 -32 -63 -59 -67 -59 -3 0 -11 20 -17 44 -6 24 -18 49 -26 56 -35 29 -166 -10 -221 -65 l-24 -24 0 29 c0 41 -10 60 -30 60 -24 0 -30 -19 -30 -103 0 -40 -4 -86 -9 -103 -10 -36 2 -64 27 -64 28 0 42 21 42 61 0 68 100 162 181 171 31 3 33 1 46 -47 7 -27 13 -71 13 -96 0 -54 20 -80 45 -59 8 7 15 25 15 41 0 23 18 48 83 114 45 47 90 85 99 85 14 0 17 -17 20 -135 3 -138 13 -174 41 -146 17 18 16 293 -2 315 -17 20 -57 20 -96 0z"/>
<path d="M6055 12918 c-3 -13 -4 -84 -3 -158 3 -135 3 -135 28 -135 22 0 26 5 31 45 14 120 129 228 196 185 20 -14 23 -23 23 -79 0 -71 17 -99 45 -76 8 7 15 17 15 24 0 20 63 104 91 120 69 41 88 13 89 -125 0 -78 4 -110 15 -125 15 -19 15 -19 30 0 16 21 19 91 9 194 -6 49 -12 67 -37 92 -17 17 -40 30 -54 30 -38 0 -91 -26 -123 -62 -27 -29 -30 -30 -30 -11 0 36 -54 73 -106 73 -56 0 -93 -19 -133 -67 l-31 -38 0 52 c0 28 -3 58 -6 67 -9 24 -43 20 -49 -6z"/>
<path d="M7939 12938 c0 -2 -7 -70 -14 -153 -12 -128 -12 -152 0 -164 11 -12 17 -12 29 -1 9 7 16 20 16 29 0 59 134 218 176 209 23 -4 42 -61 43 -129 1 -57 18 -88 41 -74 6 4 28 44 50 90 62 129 70 129 70 -2 0 -82 4 -114 15 -129 15 -19 15 -19 30 0 11 15 15 46 14 130 -1 61 -4 122 -8 136 -16 58 -105 19 -141 -62 l-16 -37 -18 50 c-35 96 -91 102 -186 19 l-58 -50 5 44 c7 62 -3 96 -27 96 -11 0 -20 -1 -21 -2z"/>
<path d="M11095 12908 c-27 -5 -104 -12 -170 -16 -97 -6 -120 -10 -120 -22 0 -33 284 -21 373 16 29 12 34 17 22 24 -18 11 -38 11 -105 -2z"/>
<path d="M7275 12888 c-2 -7 -8 -35 -12 -63 l-8 -50 -65 -5 c-49 -4 -65 -9 -65 -20 0 -11 15 -16 60 -18 l60 -3 -3 -79 c-3 -67 -1 -81 13 -86 22 -9 25 -4 31 57 11 117 11 116 54 123 54 8 90 26 90 44 0 12 -11 13 -61 8 l-61 -7 7 55 c7 53 6 56 -14 56 -12 0 -24 -6 -26 -12z"/>
<path d="M10965 12780 c-15 -24 12 -30 125 -30 117 0 186 14 158 32 -19 11 -276 10 -283 -2z"/>
<path d="M6875 12753 c-7 -10 -46 -56 -84 -103 -68 -81 -80 -109 -54 -117 11 -4 31 16 96 92 l26 30 -6 -72 c-5 -58 -3 -77 11 -98 10 -15 24 -25 33 -23 13 3 15 20 14 114 -1 60 2 121 7 135 7 16 7 31 1 42 -13 22 -25 22 -44 0z"/>
<path d="M9841 12679 c-45 -40 -81 -78 -81 -85 0 -25 30 -22 66 7 20 16 38 28 40 26 2 -1 -3 -30 -11 -62 -17 -72 -19 -121 -4 -131 19 -11 30 11 50 101 11 47 29 105 40 127 23 45 22 81 -2 86 -10 2 -52 -29 -98 -69z"/>
<path d="M12960 12690 c0 -16 7 -20 36 -20 85 0 96 -41 27 -104 -33 -30 -45 -47 -40 -59 6 -15 24 -17 137 -17 124 0 170 8 170 30 0 6 -49 10 -117 10 l-118 1 33 27 c26 22 32 34 32 65 0 57 -37 87 -106 87 -47 0 -54 -2 -54 -20z"/>
<path d="M8565 12660 c-9 -15 4 -30 26 -30 42 0 9 -92 -58 -160 -20 -21 -33 -43 -31 -55 3 -19 11 -20 108 -20 95 0 109 2 145 25 38 24 39 25 15 29 -14 2 -54 -2 -90 -9 -36 -7 -76 -11 -90 -9 -25 4 -25 4 -4 24 58 56 89 149 64 196 -12 21 -74 27 -85 9z"/>
<path d="M6898 11783 c-39 -45 -83 -172 -123 -356 -12 -55 -26 -90 -49 -120 -54 -70 -86 -121 -86 -134 0 -29 41 -12 66 27 15 22 28 39 30 37 2 -2 0 -19 -5 -38 -5 -19 -11 -71 -14 -117 -4 -64 -2 -86 10 -97 8 -8 18 -15 22 -15 23 0 225 137 285 194 76 72 -52 20 -181 -74 l-83 -59 0 51 c0 68 28 227 46 258 76 132 144 331 144 418 0 37 -3 42 -23 42 -13 0 -31 -8 -39 -17z"/>
<path d="M17756 11776 c-49 -18 -121 -68 -166 -116 -19 -20 -40 -39 -45 -41 -24 -9 -85 -98 -103 -149 -48 -134 -32 -227 55 -312 57 -54 87 -71 173 -93 145 -38 375 32 453 138 99 133 105 279 16 433 -62 108 -126 146 -259 151 -57 2 -98 -1 -124 -11z m241 -58 c77 -36 153 -183 153 -297 0 -44 -8 -73 -34 -127 -51 -107 -123 -155 -278 -187 -71 -14 -84 -14 -140 0 -81 20 -114 37 -161 82 -49 46 -67 89 -67 159 0 101 41 180 140 268 128 115 176 137 280 127 36 -3 84 -14 107 -25z"/>
<path d="M17796 11561 c-25 -38 -53 -74 -64 -80 -20 -11 -51 -79 -44 -99 5 -16 37 -16 49 1 6 6 13 24 17 38 3 15 12 29 20 32 13 5 14 -5 10 -61 -3 -37 -10 -83 -15 -102 -5 -19 -9 -56 -9 -82 0 -41 3 -48 20 -48 12 0 21 8 24 23 5 26 23 144 31 207 10 71 22 132 35 173 6 22 9 45 6 53 -11 29 -36 12 -80 -55z"/>
<path d="M9644 11712 c-54 -35 -113 -97 -142 -147 -9 -17 -11 -10 -12 42 0 74 -6 93 -30 93 -26 0 -30 -19 -30 -150 0 -96 3 -120 16 -131 14 -11 19 -10 35 10 11 13 19 28 19 35 0 44 182 243 213 233 21 -7 19 -101 -3 -163 -17 -50 -18 -60 -6 -72 20 -20 32 -9 67 62 32 65 93 127 138 139 l23 6 -4 -135 c-3 -130 -3 -135 16 -132 11 2 26 14 33 28 13 27 16 141 5 225 l-7 50 -57 0 c-51 0 -61 -4 -91 -33 -40 -39 -47 -40 -47 -7 0 42 -27 85 -54 85 -12 0 -49 -17 -82 -38z"/>
<path d="M12154 11671 c-58 -35 -109 -128 -160 -290 -28 -87 -50 -341 -33 -372 23 -43 79 -50 162 -19 51 19 138 93 124 106 -3 3 -42 -12 -86 -35 -49 -25 -93 -41 -115 -41 l-36 0 0 104 c0 97 1 105 23 119 38 24 132 147 167 217 24 48 34 83 38 132 7 97 -18 120 -84 79z m27 -128 c-12 -44 -70 -142 -118 -199 -40 -47 -40 -41 -7 61 32 98 68 171 103 208 l26 29 3 -30 c2 -17 -2 -48 -7 -69z"/>
<path d="M10190 11550 c-24 -24 -25 -33 -5 -50 13 -11 20 -9 38 9 30 27 41 27 57 -4 13 -24 11 -28 -24 -64 -27 -27 -37 -46 -34 -62 3 -23 7 -24 88 -27 102 -4 245 15 260 34 19 22 -33 29 -119 15 -42 -6 -98 -11 -125 -11 l-48 0 31 35 c38 44 40 81 6 118 -32 34 -94 38 -125 7z"/>
<path d="M16506 11501 c-15 -23 8 -31 87 -31 45 0 98 -4 117 -9 19 -6 54 -15 78 -21 23 -6 42 -15 42 -20 0 -4 -27 -35 -60 -68 -42 -43 -60 -68 -60 -86 0 -14 5 -26 10 -26 6 0 44 34 85 76 101 102 101 131 -1 166 -69 24 -287 38 -298 19z"/>
<path d="M7665 11380 c-21 -33 54 -49 243 -49 97 -1 142 3 169 14 20 8 33 18 29 22 -4 4 -78 8 -164 9 -86 0 -182 4 -213 8 -40 6 -59 5 -64 -4z"/>
<path d="M16607 11384 c-8 -8 -290 -23 -622 -32 -198 -6 -220 -9 -223 -24 -3 -17 11 -18 190 -18 202 0 453 12 673 33 103 10 130 15 130 27 0 12 -16 16 -70 18 -39 1 -74 0 -78 -4z"/>
<path d="M11168 11304 c-9 -8 -749 -25 -1508 -34 -377 -4 -707 -12 -735 -17 -34 -5 -50 -13 -50 -23 0 -12 12 -14 60 -12 33 1 398 6 810 11 729 8 1568 27 1612 36 15 4 20 10 16 25 -5 18 -14 20 -102 20 -54 0 -100 -3 -103 -6z"/>
<path d="M8020 11219 c-41 -10 -106 -22 -145 -26 -52 -6 -70 -12 -70 -23 0 -24 98 -24 204 0 105 23 161 44 161 59 0 16 -65 11 -150 -10z"/>
<path d="M7307 11203 c-65 -125 -97 -170 -122 -174 -11 -3 -20 -11 -20 -19 0 -22 59 -25 80 -4 16 17 17 15 15 -32 -4 -72 -2 -76 23 -72 19 3 23 11 28 63 4 33 18 100 32 150 18 64 23 93 15 102 -17 21 -35 15 -51 -14z"/>
<path d="M11093 10950 c-28 -21 -61 -55 -74 -74 -27 -40 -39 -38 -39 8 0 35 -25 66 -54 66 -44 0 -109 -56 -162 -140 l-29 -45 -3 72 c-3 78 -19 106 -47 83 -23 -19 -22 -282 1 -301 14 -11 19 -10 35 10 11 13 19 31 19 40 0 19 89 153 133 199 17 17 37 32 44 32 18 0 17 -100 -2 -175 -26 -97 17 -105 59 -11 27 61 113 175 151 200 l25 16 0 -124 c0 -130 7 -153 38 -122 14 14 17 39 17 145 0 176 -19 196 -112 121z"/>
<path d="M9156 10958 c-3 -13 -7 -66 -10 -119 -2 -56 -12 -118 -22 -148 -17 -47 -18 -52 -2 -67 14 -14 20 -15 32 -4 9 7 16 21 16 31 0 33 66 153 114 206 32 36 57 53 86 61 l40 10 0 -75 c0 -42 -5 -93 -12 -115 -10 -33 -9 -41 5 -56 15 -14 19 -14 31 -2 7 8 22 40 31 70 14 42 32 68 76 111 31 31 68 58 82 61 21 4 26 0 36 -32 13 -45 14 -158 0 -220 -24 -115 -24 -112 1 -108 25 3 34 24 59 134 16 68 -3 224 -32 262 -26 34 -115 4 -188 -64 -29 -28 -39 -23 -39 21 0 40 -16 55 -59 55 -52 -1 -110 -31 -153 -78 l-38 -42 0 49 c0 27 -3 56 -6 65 -9 24 -43 20 -48 -6z"/>
<path d="M10276 10944 c-3 -9 -6 -42 -6 -74 l0 -59 -102 -3 c-84 -2 -103 -6 -103 -18 0 -12 19 -16 101 -18 l101 -3 7 -61 c11 -108 42 -105 53 5 l6 67 39 6 c52 9 49 38 -5 42 -37 3 -37 3 -37 52 0 61 -7 80 -30 80 -10 0 -21 -7 -24 -16z"/>
<path d="M9882 10757 c-14 -16 -34 -123 -39 -210 -5 -67 -4 -69 19 -65 20 3 24 10 29 63 4 33 12 91 19 128 12 67 9 97 -8 97 -5 0 -14 -6 -20 -13z"/>
<path d="M11305 10740 c-12 -19 7 -30 54 -30 51 0 71 -12 71 -44 0 -30 -45 -89 -90 -116 -71 -44 -53 -55 103 -58 122 -2 143 0 187 19 62 26 84 49 48 49 -14 0 -47 -7 -74 -15 -44 -13 -228 -21 -196 -8 27 11 72 91 72 131 0 59 -30 82 -108 82 -33 0 -64 -4 -67 -10z"/>
<path d="M5313 8920 c-16 -6 -23 -18 -23 -35 0 -34 26 -43 51 -16 23 24 65 27 113 7 35 -15 76 -59 76 -83 0 -8 -34 -49 -75 -90 -63 -63 -75 -81 -75 -108 0 -21 6 -35 16 -39 29 -11 244 -6 267 6 21 11 21 11 2 19 -11 4 -68 8 -127 8 -69 1 -108 5 -108 12 0 5 26 34 58 64 69 64 98 111 88 148 -9 37 -53 86 -93 102 -39 16 -135 19 -170 5z"/>
<path d="M4082 8798 c-7 -7 -12 -27 -12 -46 0 -19 -20 -94 -44 -166 -59 -174 -61 -196 -20 -196 28 0 187 58 238 87 28 15 29 15 22 -3 -35 -90 -75 -244 -69 -261 10 -25 42 -14 49 15 3 15 30 103 60 197 31 97 50 173 45 178 -21 21 -45 1 -59 -49 -12 -45 -17 -50 -36 -47 -26 5 -60 -3 -158 -40 -38 -14 -68 -24 -68 -24 0 1 12 34 26 72 38 103 74 224 74 249 0 21 -17 46 -30 46 -3 0 -11 -5 -18 -12z"/>
<path d="M4620 8721 c-86 -28 -149 -82 -136 -116 8 -23 32 -18 51 11 23 35 86 61 168 69 l69 8 -4 -154 c-3 -150 -4 -155 -31 -194 -16 -22 -36 -43 -45 -47 -56 -23 -56 17 0 62 46 37 40 47 -20 31 -49 -14 -75 -42 -74 -82 1 -44 18 -59 69 -59 57 0 77 12 110 63 39 61 53 129 53 255 l0 113 53 -7 c28 -3 70 -10 92 -15 22 -5 81 -9 131 -9 76 0 94 3 107 18 10 10 17 22 17 25 0 4 -33 4 -72 1 -50 -4 -104 -1 -168 11 -106 19 -331 29 -370 16z"/>
<path d="M12850 8710 c-72 -38 -119 -89 -162 -176 -36 -74 -42 -95 -46 -167 -4 -78 -2 -84 27 -128 36 -54 85 -78 177 -86 75 -7 122 13 130 57 7 33 25 40 103 40 109 0 164 -36 109 -72 -29 -20 -18 -52 14 -43 43 14 59 36 56 79 -4 56 -34 69 -168 74 -117 4 -203 -13 -208 -42 -2 -10 3 -16 17 -16 31 0 35 -19 7 -30 -28 -10 -103 0 -147 20 -13 6 -35 27 -48 46 -21 30 -23 42 -19 103 9 123 91 255 191 307 45 24 67 10 67 -41 0 -56 8 -75 31 -75 24 0 33 36 26 97 -3 29 -12 52 -23 60 -25 19 -93 15 -134 -7z"/>
<path d="M7947 8649 c-21 -11 -63 -46 -92 -76 -50 -52 -54 -55 -70 -40 -37 37 -140 12 -215 -52 l-35 -30 -10 67 c-9 62 -12 67 -35 67 l-24 0 3 -145 c2 -107 6 -149 16 -159 20 -20 45 3 45 41 0 43 23 80 80 128 46 39 113 66 132 54 4 -3 8 -34 8 -68 0 -44 5 -67 15 -76 22 -18 45 4 45 44 0 40 24 77 94 148 55 56 93 77 115 63 14 -8 14 -104 0 -180 -17 -94 -17 -110 5 -110 34 0 69 149 57 247 -12 95 -54 119 -134 77z"/>
<path d="M4997 8616 c-10 -25 -31 -322 -24 -340 4 -11 15 -16 29 -14 22 3 23 8 30 128 4 69 10 141 13 161 8 40 -7 79 -29 79 -8 0 -16 -6 -19 -14z"/>
<path d="M13962 8538 c-8 -8 -12 -48 -12 -112 0 -68 -7 -125 -20 -175 -15 -55 -17 -78 -9 -88 17 -20 27 -16 51 21 90 134 206 287 221 291 62 18 57 22 57 -54 0 -38 -5 -82 -10 -97 -7 -19 -7 -30 1 -40 18 -22 27 -17 55 27 56 89 150 169 199 169 20 0 21 -128 0 -196 -20 -67 -19 -84 5 -84 22 0 33 20 56 110 17 64 10 183 -13 206 -32 31 -129 0 -195 -63 l-37 -36 -6 39 c-9 55 -18 69 -50 72 -80 10 -117 -16 -200 -139 l-50 -74 3 103 c3 71 1 107 -8 117 -15 18 -22 19 -38 3z"/>
<path d="M8225 8460 c-10 -16 4 -30 31 -30 40 0 74 -28 74 -61 0 -25 -9 -35 -56 -65 -64 -41 -67 -63 -14 -81 46 -16 264 -17 293 -1 21 11 21 11 2 19 -11 4 -63 8 -115 9 -52 1 -104 5 -114 9 -17 7 -16 10 17 35 32 25 37 34 37 70 0 45 -10 63 -50 90 -27 18 -95 22 -105 6z"/>
<path d="M10418 8419 c-40 -23 -68 -91 -139 -341 -14 -50 -26 -75 -34 -72 -6 3 -18 -2 -25 -11 -10 -12 -10 -21 0 -45 10 -25 10 -41 -4 -95 -21 -83 -21 -154 0 -184 15 -21 22 -23 74 -18 82 7 220 81 196 104 -4 4 -28 -1 -54 -11 -167 -64 -182 -65 -182 -2 0 68 36 189 61 206 24 16 93 119 135 201 20 40 28 76 34 143 8 92 5 115 -14 128 -15 10 -28 9 -48 -3z m9 -138 c-4 -45 -14 -86 -31 -118 -25 -50 -55 -93 -56 -81 -1 28 58 230 75 258 14 23 18 6 12 -59z"/>
<path d="M14727 8356 c-55 -20 -71 -36 -54 -53 11 -11 19 -11 48 1 19 8 50 16 69 18 30 3 35 0 33 -17 -1 -11 -12 -27 -24 -35 -82 -56 -118 -117 -87 -148 19 -19 208 -16 236 4 12 8 20 19 18 23 -3 4 -50 6 -104 3 -115 -5 -130 4 -75 45 65 49 93 83 93 113 0 55 -70 75 -153 46z"/>
<path d="M11230 8150 c0 -19 7 -20 263 -20 145 0 267 3 270 7 4 3 2 12 -4 20 -9 10 -66 13 -270 13 -252 0 -259 -1 -259 -20z"/>
<path d="M6970 8092 c0 -11 8 -23 18 -27 53 -21 458 -30 1472 -30 958 0 1085 2 1085 15 0 13 -130 16 -1085 21 -980 6 -1322 14 -1447 35 -39 6 -43 5 -43 -14z"/>
<path d="M5309 8086 c-2 -2 -87 -9 -189 -16 -102 -6 -214 -16 -249 -21 -118 -18 -363 -31 -696 -38 -328 -6 -330 -6 -333 -28 -3 -20 0 -21 75 -17 43 2 229 6 413 8 217 4 381 11 465 21 122 15 209 22 550 45 77 5 220 9 318 9 164 1 178 2 175 19 -3 16 -25 17 -264 20 -143 1 -262 0 -265 -2z"/>
<path d="M6340 8065 c-13 -33 -3 -55 25 -55 34 0 59 33 45 59 -16 30 -58 28 -70 -4z"/>
<path d="M11555 7969 c-44 -5 -114 -12 -155 -16 -57 -6 -75 -12 -75 -23 0 -11 13 -16 45 -18 56 -4 253 15 315 31 106 27 25 43 -130 26z"/>
<path d="M12706 7921 c-4 -6 -5 -15 -2 -20 16 -26 695 -32 1681 -15 487 8 560 11 560 24 0 16 -344 18 -1490 9 -253 -2 -523 0 -601 5 -104 7 -143 6 -148 -3z"/>
<path d="M5105 7880 c-11 -17 3 -27 46 -33 46 -6 92 -35 97 -60 5 -23 -53 -83 -119 -123 -56 -35 -77 -63 -64 -84 9 -15 228 -13 243 2 23 23 11 28 -75 29 l-88 0 30 22 c120 89 149 147 100 205 -27 32 -76 52 -132 52 -17 0 -35 -4 -38 -10z"/>
<path d="M9312 7799 c-13 -5 -50 -32 -82 -59 l-58 -51 -30 31 c-17 16 -39 30 -49 30 -32 0 -127 -50 -165 -88 l-38 -36 0 41 c0 46 -21 73 -44 54 -8 -7 -15 -44 -19 -104 -3 -50 -14 -111 -23 -135 -16 -40 -16 -44 -1 -59 21 -21 38 -8 56 44 17 50 71 130 113 170 36 34 105 66 125 59 19 -8 16 -71 -7 -113 -19 -35 -14 -73 10 -73 16 0 49 41 55 69 7 33 34 64 113 130 l62 53 0 -84 c0 -75 -5 -109 -25 -175 -6 -20 -4 -23 17 -23 29 0 41 20 58 101 17 78 5 205 -20 219 -21 11 -18 12 -48 -1z"/>
<path d="M4815 7779 c-38 -5 -128 -16 -199 -25 -188 -22 -291 -52 -291 -84 0 -19 27 -17 130 9 78 20 145 30 350 51 236 24 240 24 240 40 0 12 -16 15 -80 16 -44 1 -111 -2 -150 -7z"/>
<path d="M7236 7724 c-3 -9 -6 -41 -6 -72 0 -60 -29 -192 -50 -231 -10 -19 -9 -26 3 -38 8 -9 20 -12 26 -9 6 4 31 46 56 94 51 100 120 183 166 202 30 13 33 12 55 -14 27 -30 30 -57 13 -105 -10 -27 -9 -36 4 -48 21 -21 34 -10 61 50 27 63 80 103 148 112 45 7 47 6 63 -26 24 -46 14 -132 -25 -209 -26 -51 -28 -61 -15 -66 27 -11 42 3 70 63 18 39 28 81 31 128 4 61 2 75 -18 110 l-24 40 -75 0 c-69 0 -78 -3 -119 -33 l-44 -32 -18 33 c-10 20 -30 40 -48 47 -28 11 -37 10 -82 -11 -27 -13 -67 -43 -88 -66 l-38 -43 5 44 c7 60 -3 96 -26 96 -10 0 -22 -7 -25 -16z"/>
<path d="M8336 7704 c-3 -9 -6 -38 -6 -64 l0 -49 -62 -3 c-48 -2 -63 -7 -63 -18 0 -11 15 -16 61 -18 l61 -3 6 -56 c10 -98 44 -98 54 0 6 54 6 55 43 61 44 7 72 32 46 42 -9 3 -32 3 -51 0 l-35 -7 0 50 c0 62 -7 81 -30 81 -10 0 -21 -7 -24 -16z"/>
<path d="M13774 7671 c-54 -33 -87 -109 -149 -346 -25 -95 -43 -128 -94 -172 -16 -15 -8 -43 14 -43 8 0 24 9 34 19 19 19 20 18 48 -17 28 -35 31 -35 114 -40 61 -3 94 0 121 11 36 15 77 62 65 74 -4 3 -34 -7 -68 -22 -53 -23 -70 -27 -118 -21 -95 11 -117 66 -58 140 66 83 125 183 146 246 53 159 32 224 -55 171z m17 -121 c-18 -66 -48 -127 -85 -175 -23 -30 -19 -8 15 96 34 102 44 125 68 152 24 28 25 5 2 -73z"/>
<path d="M14114 7680 c-28 -11 -39 -29 -27 -41 6 -6 28 -6 58 1 48 11 105 0 105 -20 0 -11 -65 -67 -99 -85 -66 -33 -93 -118 -49 -149 41 -29 284 -12 295 20 6 18 -47 24 -113 12 -67 -12 -154 -3 -154 15 0 23 31 57 69 77 49 25 101 84 101 115 0 51 -114 84 -186 55z"/>
<path d="M4586 7627 c-7 -19 -26 -96 -40 -173 -15 -76 -31 -152 -35 -169 -21 -69 -22 -92 -6 -105 19 -16 45 2 45 31 0 10 5 38 10 61 9 35 47 217 77 361 4 23 2 27 -16 27 -14 0 -25 -11 -35 -33z"/>
<path d="M9523 7553 c-4 -11 3 -23 20 -37 26 -21 34 -51 19 -71 -4 -5 -29 -27 -55 -49 -35 -28 -47 -44 -45 -60 3 -20 8 -21 161 -24 127 -2 163 0 187 13 17 9 28 19 26 24 -3 4 -74 6 -158 3 l-153 -4 40 32 c45 36 53 51 54 98 1 25 -7 40 -31 63 -37 33 -56 37 -65 12z"/>
<path d="M7981 7516 c-13 -16 -33 -172 -25 -198 3 -10 14 -18 24 -18 24 0 28 15 32 129 3 95 -5 118 -31 87z"/>
<path d="M7123 5954 c-3 -8 -1 -26 5 -40 14 -30 52 -33 52 -4 0 22 20 26 38 8 29 -29 -7 -132 -61 -177 -9 -7 -17 -24 -17 -37 0 -19 8 -25 43 -35 56 -15 87 -44 87 -84 0 -42 -17 -63 -65 -80 -34 -11 -42 -11 -56 1 -25 23 -49 17 -49 -11 0 -27 25 -45 63 -45 36 0 113 29 132 50 19 21 30 87 21 123 -8 33 -52 74 -86 82 l-28 6 39 58 c47 70 53 131 18 175 -18 22 -28 26 -75 26 -40 0 -56 -4 -61 -16z"/>
<path d="M5630 5698 c-14 -8 -25 -20 -25 -28 0 -16 8 -17 96 -5 50 7 58 5 83 -17 38 -32 29 -57 -37 -109 -82 -64 -127 -109 -127 -124 0 -8 13 -21 30 -30 53 -28 307 -11 317 21 6 17 -59 26 -109 15 -50 -12 -125 -13 -152 -2 -17 6 -13 12 30 47 132 106 153 152 94 209 -27 26 -39 30 -103 33 -46 2 -81 -2 -97 -10z"/>
<path d="M6789 5673 c-38 -44 -126 -224 -138 -286 -5 -23 -17 -73 -26 -112 -23 -98 -34 -197 -24 -217 17 -32 41 -48 71 -48 38 0 198 77 198 96 0 24 -51 16 -113 -17 -74 -39 -101 -36 -105 11 -4 41 17 150 29 150 5 0 15 13 23 28 8 15 32 50 54 76 52 62 87 128 118 218 28 83 31 123 8 132 -36 14 -63 5 -95 -31z m31 -106 c-28 -78 -105 -205 -117 -194 -5 6 38 119 70 182 23 47 67 108 73 102 3 -2 -9 -43 -26 -90z"/>
<path d="M4503 5563 c-7 -3 -21 -32 -32 -66 -24 -77 -77 -220 -90 -244 -43 -78 -49 -123 -17 -123 8 0 47 15 88 34 40 18 88 37 106 41 l33 7 -6 -44 c-3 -23 -8 -55 -10 -70 -6 -37 3 -58 25 -58 22 0 30 19 30 68 0 45 36 203 57 254 16 39 12 73 -9 66 -19 -7 -48 -60 -61 -113 -12 -46 -12 -46 -92 -74 -44 -16 -89 -32 -100 -37 -20 -8 -20 -7 -2 19 19 29 68 158 92 242 8 28 17 60 21 71 6 22 -10 35 -33 27z"/>
<path d="M4876 5495 c-42 -15 -96 -61 -96 -82 0 -29 32 -25 65 7 33 32 83 49 150 50 l30 0 -8 -117 c-4 -65 -13 -135 -18 -156 -11 -42 -86 -127 -112 -127 -23 0 -21 12 3 28 29 17 25 32 -8 32 -41 0 -68 -33 -56 -68 8 -23 16 -27 53 -30 51 -4 75 10 126 72 44 54 64 128 65 241 1 138 -24 125 237 125 214 0 263 6 263 30 0 17 -647 12 -694 -5z"/>
<path d="M5263 5358 c-6 -7 -13 -45 -17 -85 -3 -39 -10 -82 -15 -95 -5 -13 -10 -48 -12 -78 -4 -47 -1 -55 15 -58 24 -5 36 14 36 60 0 20 4 47 9 60 19 47 35 170 25 186 -14 22 -29 25 -41 10z"/>
<path d="M11085 5220 c-12 -20 7 -30 56 -30 63 0 109 -22 109 -54 0 -25 -25 -51 -88 -90 -33 -21 -43 -32 -40 -49 3 -22 6 -22 148 -22 122 0 145 2 145 15 0 12 -19 16 -104 18 l-103 3 46 43 c39 35 46 48 46 79 0 40 -23 71 -66 87 -33 13 -141 13 -149 0z"/>
<path d="M10358 5017 c-47 -8 -58 -14 -58 -30 0 -18 4 -19 88 -11 79 8 444 9 552 2 35 -2 45 0 45 12 0 28 -90 38 -335 38 -129 -1 -261 -5 -292 -11z"/>
<path d="M10590 4898 c-6 -24 -20 -73 -31 -109 -10 -36 -19 -77 -19 -90 0 -14 -9 -43 -20 -64 -23 -44 -20 -65 8 -65 26 0 37 16 51 75 35 145 53 213 61 238 11 36 3 57 -21 57 -13 0 -21 -12 -29 -42z"/>
<path d="M9187 4883 c-4 -3 -60 -9 -124 -12 -96 -5 -118 -9 -118 -21 0 -12 19 -15 115 -15 138 1 428 19 437 28 3 4 -6 11 -21 17 -30 11 -279 14 -289 3z"/>
<path d="M7570 4748 c-333 -3 -900 -12 -1260 -18 -360 -7 -941 -15 -1290 -18 -555 -6 -635 -9 -635 -22 0 -13 78 -15 645 -15 355 0 971 7 1370 14 399 8 966 16 1260 20 483 5 535 8 538 22 2 9 -3 18 -10 20 -7 2 -285 1 -618 -3z"/>
<path d="M9245 4738 c-120 -20 -160 -33 -160 -48 0 -17 67 -17 170 2 33 5 99 13 148 18 86 7 107 13 93 27 -11 11 -186 12 -251 1z"/>
<path d="M5424 4548 c-69 -74 -74 -82 -125 -224 -74 -203 -78 -311 -15 -387 31 -39 93 -48 120 -18 19 21 19 21 -17 21 -39 0 -59 15 -84 63 -24 47 -12 141 37 282 47 136 73 185 124 234 20 19 36 43 36 53 0 31 -34 20 -76 -24z"/>
<path d="M8227 4563 c-15 -15 -5 -31 26 -39 79 -22 104 -198 51 -357 -26 -79 -100 -201 -148 -246 -33 -31 -33 -51 -2 -51 17 0 37 16 68 53 68 81 98 133 130 226 25 74 29 100 28 185 0 126 -28 198 -84 221 -38 16 -59 19 -69 8z"/>
<path d="M4560 4484 c-56 -32 -142 -115 -181 -176 -23 -35 -32 -64 -38 -119 -4 -40 -6 -82 -3 -95 12 -66 166 -144 282 -144 98 0 129 25 116 95 -6 30 -4 33 25 39 17 3 53 6 80 6 l49 0 -21 -40 c-27 -52 -30 -103 -6 -108 12 -2 21 6 29 28 6 18 21 51 33 74 16 30 20 48 14 65 -9 22 -12 23 -119 19 -94 -3 -112 -6 -130 -23 -18 -19 -19 -25 -9 -54 11 -30 10 -36 -7 -48 -39 -29 -201 11 -257 64 -28 27 -29 31 -25 103 4 59 10 84 29 112 64 95 176 188 226 188 20 0 23 -5 23 -43 0 -24 7 -52 15 -63 15 -19 15 -19 30 0 20 26 19 96 -1 124 -22 32 -94 30 -154 -4z"/>
<path d="M7228 4405 c-3 -3 -3 -49 0 -103 2 -53 -1 -130 -7 -171 -10 -63 -10 -77 3 -89 12 -13 18 -13 30 -2 9 7 16 19 16 27 0 23 56 127 85 156 30 30 94 53 119 44 12 -5 16 -21 16 -70 0 -45 5 -68 15 -77 20 -16 45 3 45 34 0 23 69 121 101 144 10 7 33 18 50 24 41 14 49 2 49 -81 0 -48 -6 -75 -25 -113 -27 -53 -25 -68 5 -68 13 0 27 18 47 58 24 49 28 68 26 129 -2 49 -8 81 -20 99 -15 24 -21 26 -67 22 -59 -5 -113 -36 -147 -86 -15 -22 -25 -29 -27 -21 -11 35 -36 49 -84 49 -59 0 -109 -20 -143 -56 -14 -15 -25 -23 -25 -18 -4 68 -21 158 -31 165 -16 10 -24 11 -31 4z"/>
<path d="M6822 4357 c-7 -8 -15 -36 -18 -63 -10 -76 -16 -83 -82 -86 -43 -2 -57 -7 -57 -18 0 -11 14 -16 57 -18 l57 -3 -1 -35 c-1 -19 4 -40 11 -47 17 -17 41 17 41 59 0 35 13 44 65 44 32 0 61 20 48 33 -3 4 -26 7 -50 7 l-43 0 2 66 c3 68 -8 89 -30 61z"/>
<path d="M5610 4334 c-6 -14 -10 -33 -10 -42 0 -27 -26 -105 -50 -152 -19 -38 -20 -44 -7 -57 20 -20 32 -11 62 45 30 58 39 68 96 114 29 23 62 40 88 44 l41 7 -1 -44 c0 -24 -4 -53 -8 -64 -10 -24 4 -55 24 -55 21 0 45 29 45 54 0 34 86 111 134 120 60 11 68 -2 64 -103 -3 -47 -11 -101 -18 -118 -12 -27 -12 -35 -1 -45 10 -11 17 -8 35 16 36 43 47 95 40 176 -9 94 -29 120 -90 120 -53 0 -109 -22 -145 -56 l-26 -25 -7 32 -6 31 -74 -4 c-65 -3 -79 -7 -104 -31 -15 -15 -31 -27 -36 -27 -4 0 -4 20 0 45 6 41 5 45 -15 45 -14 0 -25 -9 -31 -26z"/>
<path d="M7902 4178 c-37 -18 -23 -44 21 -40 64 5 57 -48 -13 -93 -23 -15 -30 -26 -28 -45 3 -25 4 -25 106 -28 98 -3 142 6 142 28 0 6 -40 10 -92 10 -66 1 -88 4 -76 10 24 15 58 74 58 102 0 52 -63 82 -118 56z"/>
<path d="M6296 4152 c-3 -5 -10 -35 -15 -68 -6 -32 -15 -77 -19 -99 -10 -50 -6 -65 19 -65 12 0 20 9 24 28 3 15 10 43 15 62 5 19 12 61 16 93 6 53 5 57 -14 57 -11 0 -23 -4 -26 -8z"/>
<path d="M10919 2686 c-3 -3 -193 -11 -424 -18 -411 -13 -980 -16 -1320 -7 -146 3 -170 2 -170 -11 0 -12 26 -17 140 -24 199 -14 1077 -11 1420 4 188 8 820 14 1798 17 1476 5 1507 5 1507 24 0 19 -29 19 -1473 19 -811 0 -1476 -2 -1478 -4z"/>
<path d="M8945 2622 c-60 -44 -244 -528 -375 -987 -115 -404 -229 -764 -270 -858 -13 -29 -19 -34 -24 -22 -10 26 -6 382 4 460 6 39 13 144 16 235 8 192 -4 255 -56 305 -31 30 -33 30 -143 30 -93 0 -112 -3 -112 -15 0 -12 19 -16 95 -20 57 -3 103 -11 116 -19 49 -33 66 -191 43 -401 -18 -165 -28 -502 -17 -575 13 -90 33 -137 56 -133 22 4 136 298 197 513 25 88 66 223 90 300 24 77 57 190 74 250 97 343 229 705 316 861 33 58 27 104 -10 76z"/>
<path d="M10542 2494 c-17 -12 -22 -24 -20 -47 4 -41 23 -45 43 -8 19 38 65 45 65 10 0 -23 -61 -85 -92 -95 -12 -4 -18 -13 -16 -26 3 -24 14 -31 77 -49 49 -15 91 -44 91 -64 0 -19 -60 -37 -149 -44 -58 -5 -76 -10 -76 -21 0 -12 17 -15 95 -15 120 0 173 21 178 72 4 45 -23 78 -86 104 l-53 22 41 37 c32 30 40 44 40 73 0 60 -7 67 -64 67 -31 0 -61 -6 -74 -16z"/>
<path d="M10237 2443 c-54 -38 -137 -162 -177 -262 -23 -57 -39 -85 -53 -89 -15 -4 -18 -11 -13 -32 3 -15 1 -43 -4 -61 -4 -19 -10 -60 -13 -93 -5 -55 -4 -61 23 -87 25 -26 35 -29 92 -29 72 0 148 29 148 56 0 12 -6 15 -22 11 -130 -30 -137 -31 -164 -19 -26 12 -26 14 -22 85 6 87 20 119 59 136 43 19 142 113 178 170 40 62 73 160 69 203 -3 29 -7 33 -33 36 -20 2 -43 -7 -68 -25z m34 -94 c-12 -34 -35 -80 -51 -103 -35 -50 -107 -122 -116 -114 -9 10 41 125 77 175 37 51 100 115 107 109 2 -3 -6 -33 -17 -67z"/>
<path d="M5228 2065 c-2 -3 -45 -9 -94 -15 -49 -5 -127 -14 -174 -20 -47 -6 -134 -15 -195 -21 -227 -21 -255 -28 -241 -64 4 -13 12 -15 29 -10 31 10 239 36 257 33 14 -3 14 -19 -1 -153 -9 -82 -22 -179 -29 -215 -48 -259 -47 -242 -20 -238 17 2 26 14 36 48 17 60 50 261 64 385 23 205 17 185 53 185 77 0 376 45 390 59 16 16 -3 31 -37 31 -18 0 -35 -2 -38 -5z"/>
<path d="M7051 1925 c-35 -13 -72 -31 -82 -41 -42 -38 -49 -134 -10 -134 21 0 31 19 31 59 0 15 8 35 18 44 19 17 87 41 146 52 32 5 38 4 29 -7 -6 -7 -13 -65 -16 -128 -9 -174 -25 -213 -99 -251 -47 -24 -57 -24 -51 1 7 25 -24 27 -68 4 -24 -12 -30 -21 -27 -42 3 -24 8 -27 46 -30 89 -7 190 48 220 118 32 78 53 299 31 327 -12 15 -12 16 5 10 62 -24 175 -37 311 -37 132 0 154 2 183 20 17 11 32 21 32 23 0 3 -73 2 -162 0 -139 -4 -177 -2 -262 16 -127 27 -194 26 -275 -4z"/>
<path d="M6453 1843 c-20 -8 -15 -51 7 -63 23 -12 40 -6 40 16 0 11 18 14 88 14 73 0 92 -3 105 -18 44 -48 -1 -122 -162 -264 -36 -32 -52 -52 -48 -62 7 -18 62 -22 72 -6 6 10 76 31 165 50 88 19 121 31 114 42 -7 11 -144 5 -191 -8 -18 -5 -15 2 17 35 105 110 127 185 71 242 -29 29 -30 29 -148 28 -65 0 -124 -3 -130 -6z"/>
<path d="M7403 1834 c-6 -3 -18 -29 -26 -57 -29 -102 -49 -182 -54 -214 -4 -24 -10 -33 -25 -33 -31 0 -18 -34 15 -38 36 -4 57 13 57 47 0 14 9 53 20 85 11 33 20 69 20 82 0 12 9 42 19 67 14 33 16 48 8 56 -12 12 -15 12 -34 5z"/>
<path d="M5706 1763 c-4 -4 -60 -10 -124 -13 -95 -4 -117 -8 -117 -20 0 -13 20 -15 120 -15 182 1 309 9 317 20 17 23 -16 35 -102 35 -47 0 -90 -3 -94 -7z"/>
<path d="M11155 1700 c-55 -4 -179 -8 -275 -9 -164 0 -840 -29 -1210 -51 -166 -10 -276 -5 -492 21 -84 10 -112 10 -133 1 -31 -14 -31 -49 0 -44 46 8 108 5 230 -13 121 -17 153 -17 455 -6 179 7 399 17 490 22 162 8 379 16 1130 39 348 11 912 8 1074 -6 42 -4 77 -2 90 5 14 7 176 12 493 13 259 2 475 6 479 11 4 4 4 10 0 15 -10 9 -2199 11 -2331 2z"/>
<path d="M13214 1619 c-3 -6 14 -41 39 -77 60 -89 62 -95 82 -186 28 -124 6 -268 -60 -397 -41 -79 -128 -218 -150 -239 -31 -29 -32 -40 -2 -40 36 0 71 38 141 157 126 211 161 379 117 552 -23 86 -30 101 -93 189 -38 51 -60 63 -74 41z"/>
<path d="M5622 1581 c-49 -8 -72 -25 -55 -42 7 -7 41 -7 113 0 56 6 141 11 189 11 91 0 129 11 101 30 -17 11 -281 11 -348 1z"/>
<path d="M10424 1518 c-43 -46 -63 -77 -132 -203 -89 -164 -123 -267 -129 -395 -4 -91 -2 -113 16 -162 25 -64 76 -111 123 -111 29 0 51 13 32 20 -6 2 -29 17 -52 34 -58 42 -77 103 -69 223 4 57 15 117 30 161 34 98 116 258 182 355 50 74 62 110 37 110 -4 0 -22 -15 -38 -32z"/>
<path d="M9275 1340 c-144 -70 -208 -173 -209 -333 -1 -87 0 -89 30 -117 45 -39 136 -71 225 -77 135 -10 193 26 205 125 6 57 8 60 36 66 52 10 113 7 134 -8 18 -14 18 -16 3 -43 -36 -61 -32 -119 7 -111 13 2 20 13 22 33 2 17 10 44 19 61 38 74 -10 114 -136 114 -124 0 -141 -13 -141 -113 0 -47 -1 -49 -44 -68 -32 -14 -57 -17 -92 -13 -84 9 -164 36 -196 66 -29 27 -30 31 -26 91 8 100 43 181 97 226 115 95 187 104 264 33 26 -24 28 -25 44 -9 16 16 15 18 -8 43 -31 35 -95 64 -139 64 -19 0 -62 -14 -95 -30z"/>
<path d="M12180 1271 c-5 -11 -10 -58 -10 -104 0 -64 -5 -97 -22 -136 -20 -49 -20 -53 -4 -69 16 -16 18 -16 36 6 11 13 24 39 29 57 14 53 166 195 208 195 27 0 16 -85 -19 -141 -23 -38 -29 -56 -21 -67 17 -28 31 -24 56 16 31 48 152 169 191 189 l28 15 -3 -119 c-4 -112 -3 -118 16 -118 31 0 47 72 41 178 -5 89 -15 117 -44 117 -19 0 -110 -60 -141 -94 -32 -34 -41 -33 -41 4 0 30 -32 70 -56 70 -28 0 -70 -23 -130 -71 l-64 -51 0 59 c0 74 -26 108 -50 64z"/>
<path d="M10603 1255 c-3 -9 2 -24 11 -34 27 -29 21 -123 -13 -211 -23 -60 -27 -78 -17 -88 19 -20 43 -4 60 38 9 22 51 76 93 120 62 63 84 80 107 80 28 0 28 0 25 -72 -4 -70 -3 -73 19 -76 17 -3 26 4 36 30 26 60 108 125 180 142 29 7 29 7 24 -46 -3 -29 -14 -74 -26 -100 -29 -61 -29 -98 -2 -98 11 0 23 8 26 18 3 9 17 44 32 77 27 64 33 155 11 181 -6 8 -28 14 -48 14 -42 0 -147 -47 -176 -80 l-20 -22 -5 28 c-3 16 -16 34 -31 43 -40 22 -90 7 -147 -44 -28 -25 -53 -45 -56 -45 -3 0 -6 25 -6 55 0 46 -4 60 -25 80 -28 29 -43 31 -52 10z"/>
<path d="M11640 1231 c-5 -11 -10 -42 -10 -70 l0 -50 -62 -3 c-48 -2 -63 -7 -63 -18 0 -11 15 -16 63 -18 l62 -3 0 -79 c0 -43 4 -81 9 -84 4 -3 16 1 27 8 14 11 19 30 22 83 4 68 5 70 36 79 18 5 32 17 34 28 4 16 0 18 -32 12 l-36 -7 0 51 c0 52 -13 90 -30 90 -5 0 -14 -9 -20 -19z"/>
<path d="M12820 1130 c0 -15 7 -20 25 -20 36 0 65 -33 65 -75 0 -29 -8 -44 -45 -79 -25 -25 -45 -51 -45 -60 0 -20 61 -46 107 -46 52 0 120 20 139 41 16 18 16 19 -2 18 -10 0 -41 -4 -69 -9 -27 -4 -62 -6 -77 -3 l-26 5 34 45 c38 50 45 103 19 153 -19 36 -43 50 -89 50 -29 0 -36 -4 -36 -20z"/>
<path d="M11315 1028 c-21 -68 -35 -133 -35 -168 0 -37 2 -41 23 -38 18 2 23 11 29 53 3 28 11 66 17 85 17 55 14 80 -9 80 -11 0 -22 -6 -25 -12z"/>
<path d="M22240 31 c-14 -28 -13 -31 15 -31 20 0 25 5 25 25 0 30 -25 34 -40 6z"/>
</g>
<g id="logo" transform="translate(1857.5, 3101.9516971987687) scale(0.8161748020508809)"><g transform="translate(-57.706759,297.537395) scale(0.100000,-0.100000)" fill="#4444bb" stroke="none">
<path d="M750 2973 c-57 -10 -88 -25 -119 -57 -40 -41 -55 -100 -46 -179 6 -45 12 -61 32 -77 32 -25 35 -25 64 -1 22 17 24 26 21 89 -4 105 24 120 164 87 33 -7 119 -19 190 -25 88 -8 134 -16 144 -26 32 -32 8 -420 -28 -456 -18 -18 -126 -28 -289 -28 -185 0 -206 -4 -250 -52 -55 -58 -58 -82 -55 -363 1 -145 7 -274 13 -293 11 -34 51 -62 89 -62 12 0 35 14 52 31 l31 30 -6 238 c-3 130 -3 249 0 264 l5 27 112 0 c234 1 363 26 423 82 58 54 98 260 91 463 -4 122 -7 138 -34 191 -40 81 -79 100 -217 108 -174 10 -361 14 -387 9z" fill="#4444bb"/>
<path d="M3660 2971 c-42 -9 -83 -34 -103 -65 -39 -59 -50 -127 -54 -343 -5 -206 -5 -212 18 -252 28 -50 78 -86 143 -102 48 -12 257 -8 370 7 l49 7 -7 -104 c-4 -57 -11 -189 -16 -294 -9 -177 -9 -192 8 -214 35 -47 100 -46 136 2 22 29 27 86 42 452 7 191 0 235 -44 283 -45 48 -92 56 -241 38 -146 -18 -229 -20 -265 -6 l-26 10 0 162 c0 156 8 230 27 249 5 5 99 6 210 2 l201 -6 5 -50 c3 -39 11 -56 31 -74 34 -29 48 -29 80 0 24 20 26 30 28 113 4 147 -23 169 -218 179 -242 11 -340 13 -374 6z" fill="#4444bb"/>
<path d="M1565 2945 c-14 -13 -25 -32 -25 -42 0 -10 -1 -297 -3 -638 -2 -677 -3 -662 55 -694 33 -19 73 -7 101 31 18 24 20 51 29 300 5 150 10 278 12 283 2 6 37 8 97 3 52 -3 135 -7 186 -7 154 -2 161 -10 143 -176 -21 -189 -27 -310 -18 -343 12 -45 45 -72 86 -72 71 0 102 46 102 151 0 33 7 118 16 187 24 190 9 280 -58 349 -50 52 -112 67 -263 65 -71 -1 -164 -6 -205 -11 -41 -4 -78 -7 -81 -5 -4 2 -10 108 -13 236 -9 286 -17 352 -47 384 -31 33 -82 32 -114 -1z" fill="#4444bb"/>
<path d="M2542 2944 c-55 -38 -64 -109 -53 -419 6 -186 9 -215 28 -250 50 -95 116 -125 302 -135 75 -4 171 -5 215 -1 l78 7 -4 -178 c-2 -97 -7 -181 -11 -184 -4 -4 -42 1 -85 11 -104 26 -285 27 -363 3 -106 -33 -149 -107 -99 -170 26 -34 68 -41 132 -21 74 23 202 20 308 -7 182 -47 274 5 301 168 12 77 27 831 19 994 -7 152 -20 181 -86 186 -88 7 -103 -51 -104 -401 l0 -219 -201 4 c-197 3 -201 3 -220 27 -18 21 -19 42 -19 283 l0 260 -29 29 c-33 33 -74 38 -109 13z" fill="#4444bb"/>
<path d="M2374 1391 c-55 -34 -79 -78 -79 -147 0 -51 4 -66 27 -96 35 -45 102 -73 153 -64 78 15 146 111 131 188 -20 108 -145 172 -232 119z" fill="#4444bb"/>
<path d="M1853 999 c-39 -11 -66 -56 -61 -101 6 -59 69 -64 76 -6 4 30 34 38 145 38 l67 0 0 -110 c0 -135 -1 -136 -132 -126 -85 6 -89 6 -113 -18 -24 -25 -25 -28 -25 -179 0 -162 4 -177 47 -177 35 0 43 29 43 159 l0 121 73 0 c85 0 141 14 168 41 17 17 19 34 19 169 0 147 -1 152 -25 175 -23 24 -30 25 -137 24 -62 0 -128 -5 -145 -10z" fill="#4444bb"/>
<path d="M2985 1000 c-91 -16 -93 -18 -104 -58 -15 -51 -14 -537 0 -564 19 -36 69 -48 204 -48 121 0 127 1 151 25 l24 24 -2 292 -3 292 -26 19 c-31 23 -161 33 -244 18z m169 -86 c14 -5 16 -37 16 -250 l0 -245 -102 3 -103 3 0 240 0 240 40 6 c57 9 131 10 149 3z" fill="#4444bb"/>
<path d="M2351 971 c-24 -24 -29 -73 -37 -372 -6 -232 -6 -237 15 -258 23 -23 29 -25 51 -11 12 7 16 40 20 150 l5 141 35 -23 c19 -13 59 -55 88 -93 30 -39 78 -96 108 -128 47 -51 56 -57 74 -47 29 16 25 42 -15 92 -19 24 -62 78 -95 121 -61 77 -61 77 -33 77 15 0 46 9 69 19 56 26 67 57 62 179 -6 156 -27 172 -220 172 -93 0 -111 -3 -127 -19z m257 -74 c16 -13 17 -168 0 -185 -7 -7 -41 -12 -84 -12 -40 0 -84 -4 -98 -10 l-26 -10 0 120 0 119 98 -6 c53 -3 103 -10 110 -16z" fill="#4444bb"/>
</g>
</g></svg>
