<?xml version="1.0" encoding="UTF-8" standalone="no"?>
<svg
   version="1.0"
   width="2465.696pt"
   height="660.99683pt"
   viewBox="0 0 2465.696 660.99681"
   preserveAspectRatio="xMidYMid"
   id="svg73"
   sodipodi:docname="997.svg"
   inkscape:version="1.3.2 (091e20e, 2023-11-25)"
   xmlns:inkscape="http://www.inkscape.org/namespaces/inkscape"
   xmlns:sodipodi="http://sodipodi.sourceforge.net/DTD/sodipodi-0.dtd"
   xmlns="http://www.w3.org/2000/svg"
   xmlns:svg="http://www.w3.org/2000/svg">
  <defs
     id="defs73" />
  <sodipodi:namedview
     id="namedview73"
     pagecolor="#ffffff"
     bordercolor="#000000"
     borderopacity="0.25"
     inkscape:showpageshadow="2"
     inkscape:pageopacity="0.0"
     inkscape:pagecheckerboard="0"
     inkscape:deskcolor="#d1d1d1"
     inkscape:document-units="pt"
     inkscape:zoom="0.20714345"
     inkscape:cx="1641.3746"
     inkscape:cy="439.30909"
     inkscape:current-layer="svg73" />
  <metadata
     id="metadata1">
Created by potrace 1.16, written by Peter Selinger 2001-2019
</metadata>
  <g
     transform="matrix(0.1,0,0,-0.1,-33.5,673.00267)"
     fill="#000000"
     stroke="none"
     id="g65">
    <path
       d="m 973,6708 c -28,-31 -37,-51 -57,-129 l -18,-66 -91,-6 c -106,-6 -127,-12 -127,-38 0,-22 -4,-22 119,-9 52,6 96,9 98,7 11,-11 -12,-37 -33,-37 -17,0 -24,-6 -24,-20 0,-14 7,-20 21,-20 19,0 20,-4 15,-32 -4,-18 -9,-57 -13,-85 -5,-49 -4,-53 16,-53 12,0 23,6 25,13 2,6 9,37 16,67 20,93 18,90 56,90 32,0 35,-2 29,-22 -19,-71 -30,-104 -38,-115 -12,-16 0,-33 22,-33 25,0 35,15 55,85 10,33 19,66 22,73 2,8 28,12 82,12 79,0 142,14 142,31 0,5 -47,9 -105,9 -98,0 -105,1 -105,20 0,22 9,25 125,37 61,6 80,12 80,23 0,12 -17,15 -93,15 -50,0 -92,1 -92,2 0,1 15,37 34,81 34,79 34,107 2,100 -15,-2 -65,-104 -90,-180 -4,-13 -16,-18 -46,-18 -45,0 -45,-1 -25,76 14,56 28,82 53,97 6,4 12,17 12,27 0,28 -41,26 -67,-2 z m 57,-242 c 0,-23 -17,-36 -46,-36 -27,0 -34,4 -34,20 0,17 7,20 40,20 22,0 40,-2 40,-4 z"
       id="path1" />
    <path
       d="m 2040,6703 c -46,-24 -60,-38 -87,-88 -35,-64 -40,-99 -22,-139 18,-38 57,-49 163,-44 93,4 94,4 80,-17 -27,-39 -129,-115 -176,-131 -52,-17 -106,-12 -115,12 -7,19 -39,18 -47,-1 -16,-43 21,-65 106,-65 79,0 123,20 210,93 76,65 103,114 113,204 12,105 -40,187 -126,199 -36,5 -54,1 -99,-23 z m 136,-46 c 23,-20 28,-34 32,-85 2,-34 1,-73 -2,-87 -6,-24 -10,-26 -44,-21 -20,3 -68,8 -105,12 -83,8 -95,22 -71,86 20,51 39,74 79,99 41,25 78,24 111,-4 z"
       id="path2" />
    <path
       d="m 1595,6672 c -84,-40 -119,-120 -76,-173 18,-23 26,-24 129,-24 107,0 110,-1 100,-20 -14,-28 -95,-104 -148,-139 -32,-21 -58,-30 -90,-30 -34,-1 -46,-5 -48,-18 -4,-23 34,-41 72,-35 73,12 227,131 265,204 37,73 24,181 -27,226 -31,28 -126,33 -177,9 z m 155,-64 c 11,-18 20,-50 20,-71 0,-37 0,-37 -37,-32 -21,2 -68,7 -105,10 -54,5 -68,10 -73,25 -15,48 52,100 128,100 43,0 49,-3 67,-32 z"
       id="path3" />
    <path
       d="m 2582,6630 c -86,-18 -109,-30 -97,-50 7,-12 71,-8 145,10 92,21 100,21 100,-3 0,-12 -13,-56 -28,-97 l -28,-75 -104,-5 c -90,-4 -105,-8 -108,-22 -3,-16 6,-18 92,-18 53,0 96,-4 96,-9 0,-8 -17,-65 -47,-160 -12,-39 -12,-46 1,-59 12,-13 18,-13 30,-2 9,7 16,17 16,23 0,6 14,55 31,109 l 31,97 97,3 c 77,2 96,6 96,18 0,12 -18,16 -87,18 -49,1 -88,4 -88,6 0,2 14,39 31,81 27,65 30,84 23,114 -9,36 -10,36 -64,37 -30,1 -92,-6 -138,-16 z"
       id="path4" />
    <path
       d="m 5642,6062 c -79,-34 -90,-52 -103,-180 -12,-118 -25,-212 -38,-272 -13,-56 -13,-131 -2,-148 15,-24 46,-10 49,23 2,17 7,41 12,55 5,14 18,58 30,98 l 21,72 h 87 c 100,0 187,19 187,41 0,15 -12,15 -177,3 -103,-7 -98,-17 -68,125 21,97 20,111 -8,111 -29,0 0,18 65,39 42,14 88,21 139,21 76,0 76,0 72,-25 -6,-31 14,-33 42,-5 21,21 23,29 14,54 -5,14 -26,16 -133,15 -113,-1 -132,-3 -189,-27 z"
       id="path5" />
    <path
       d="m 6430,6042 c -43,-19 -90,-67 -100,-101 -16,-57 -13,-81 10,-81 15,0 22,11 31,45 13,53 58,91 116,101 33,5 48,1 89,-24 27,-17 61,-34 77,-37 15,-4 29,-10 31,-14 6,-9 -16,-108 -42,-196 -12,-38 -24,-109 -28,-158 -8,-104 4,-127 66,-127 61,0 149,74 134,113 -9,24 -22,21 -51,-13 -28,-33 -77,-63 -87,-53 -17,18 -4,153 24,247 17,55 30,107 30,116 0,9 6,28 13,43 11,24 18,27 62,27 130,1 264,35 238,61 -4,4 -47,3 -98,-3 -50,-7 -127,-12 -173,-11 -75,0 -90,4 -152,37 -55,29 -80,36 -122,35 -29,0 -60,-3 -68,-7 z"
       id="path6" />
    <path
       d="m 3617,6003 c -14,-13 -1401,-42 -2457,-51 -724,-6 -825,-9 -825,-22 0,-13 103,-15 865,-15 804,0 1464,11 2210,35 168,6 312,12 321,15 14,5 17,-9 23,-97 4,-57 11,-141 16,-188 37,-366 45,-1095 19,-1625 -6,-132 -15,-764 -19,-1405 -5,-713 -12,-1198 -18,-1250 -13,-99 -30,-383 -39,-622 l -6,-167 -1151,-5 c -708,-2 -1222,-8 -1336,-15 -102,-7 -300,-15 -440,-19 -217,-6 -255,-9 -255,-22 0,-13 45,-15 355,-13 195,1 416,7 490,14 91,8 508,14 1268,18 l 1133,6 3,225 c 4,247 20,535 37,675 8,60 14,483 19,1255 4,649 13,1331 21,1540 16,443 17,620 5,1073 -7,261 -12,342 -23,352 -8,9 -15,52 -19,122 l -7,108 -44,43 c -39,38 -48,42 -92,42 -26,0 -51,-3 -54,-7 z"
       id="path7" />
    <path
       d="m 16920,5958 c -19,-5 -53,-14 -75,-20 -62,-16 -69,-22 -79,-69 -5,-24 -10,-164 -13,-310 -3,-231 -2,-267 12,-279 12,-10 18,-10 30,0 12,10 15,36 15,114 0,55 3,118 6,139 l 7,37 61,1 c 33,0 100,6 148,13 195,27 80,56 -129,31 l -73,-8 v 58 c 0,31 7,85 16,118 8,34 14,71 11,84 -3,19 2,24 32,33 46,13 144,29 196,32 28,2 40,8 40,18 0,12 -17,15 -85,17 -47,1 -101,-3 -120,-9 z"
       id="path8" />
    <path
       d="m 5862,5578 c -7,-7 -12,-33 -12,-58 0,-25 -10,-82 -21,-126 -32,-120 -36,-138 -32,-151 7,-21 41,-15 57,9 12,17 18,20 28,10 18,-18 72,-14 181,12 95,23 127,38 127,58 0,17 -141,-6 -242,-38 -36,-11 -18,30 37,83 64,62 72,93 24,93 -24,0 -41,-11 -80,-52 -53,-58 -56,-56 -34,18 24,79 17,154 -15,154 -3,0 -11,-5 -18,-12 z"
       id="path9" />
    <path
       d="m 10360,5468 c -52,-54 -238,-334 -252,-378 -6,-20 -26,139 -34,273 -7,114 -19,142 -50,116 -18,-14 -17,-35 7,-254 5,-55 13,-136 17,-179 5,-56 12,-82 23,-89 28,-17 45,-1 68,65 25,68 175,316 230,379 18,22 45,45 60,52 19,9 26,20 26,42 0,51 -29,43 -95,-27 z"
       id="path10" />
    <path
       d="m 17608,5442 c -108,-167 -139,-252 -89,-252 17,0 99,111 103,141 2,8 6,-404 10,-916 4,-511 12,-1081 17,-1265 6,-184 14,-467 17,-628 l 6,-292 h -161 c -154,0 -161,-1 -161,-20 0,-19 7,-20 160,-20 h 160 v -104 c 0,-89 3,-107 20,-127 31,-37 40,-10 40,119 v 112 h 711 c 670,0 711,-1 704,-17 -6,-18 -16,-94 -35,-265 -31,-294 10,-581 116,-805 21,-43 42,-74 54,-78 35,-11 42,4 21,43 -77,143 -135,362 -147,561 -7,99 17,409 38,508 l 11,53 2406,4 c 1323,2 2434,7 2469,11 l 63,7 -31,-56 c -37,-69 -37,-78 -3,-74 19,2 32,14 48,43 11,22 38,62 58,88 20,27 37,55 37,63 0,44 -155,134 -231,134 -35,0 -39,-3 -39,-24 0,-28 64,-86 121,-110 33,-14 33,-14 9,-20 -72,-16 -247,-19 -1415,-22 l -1270,-4 v 204 c 0,151 -3,208 -12,217 -10,10 -16,10 -25,1 -10,-10 -14,-68 -15,-210 -1,-108 -2,-200 -3,-204 0,-5 -103,-8 -230,-8 -126,0 -230,1 -230,3 2,41 96,283 144,372 18,33 51,102 74,153 23,51 62,130 88,175 26,45 66,117 89,161 l 42,78 5,-122 c 5,-123 16,-156 40,-132 9,9 14,66 16,180 4,146 2,169 -12,181 -14,12 -20,10 -46,-15 -16,-16 -53,-74 -81,-129 -28,-55 -59,-111 -69,-125 -20,-30 -61,-110 -168,-330 -78,-161 -142,-325 -159,-405 l -8,-40 -739,-3 -740,-2 21,22 c 53,60 377,655 648,1193 66,132 127,250 135,263 14,21 13,24 -3,33 -15,9 -7,17 58,60 41,27 153,93 248,148 224,129 498,297 617,379 52,36 118,81 145,99 63,43 125,103 125,120 0,30 -32,25 -68,-10 -20,-19 -59,-51 -87,-70 -27,-18 -93,-63 -145,-99 -113,-78 -424,-269 -640,-393 -85,-49 -252,-153 -370,-231 -284,-187 -642,-412 -865,-541 -99,-58 -297,-183 -440,-278 -303,-201 -789,-516 -825,-535 -14,-7 -43,-26 -65,-42 -70,-50 -115,-78 -129,-78 -10,0 -14,53 -20,238 -4,130 -12,359 -17,507 -6,149 -12,752 -14,1340 -4,1060 -4,1070 15,1028 20,-46 93,-143 117,-156 35,-20 28,29 -11,84 -14,19 -41,68 -61,109 -51,106 -50,105 -71,107 -14,2 -34,-20 -76,-85 z m 2530,-1729 c -9,-10 -27,-40 -40,-68 -86,-177 -372,-726 -536,-1025 -40,-74 -101,-192 -135,-262 l -62,-127 -74,-1 h -73 l 6,28 c 3,15 26,68 51,117 51,102 54,118 24,113 -27,-4 -83,-95 -113,-184 l -24,-69 -322,-3 -323,-2 16,22 c 9,13 47,70 84,128 37,58 92,139 123,181 30,42 81,126 113,185 32,60 71,127 88,149 49,66 63,96 49,105 -15,9 -3,18 245,162 197,115 590,360 780,487 121,80 151,96 123,64 z m -1235,-795 c -22,-29 -72,-111 -112,-182 -40,-71 -85,-145 -100,-165 -16,-20 -62,-88 -103,-151 -40,-63 -85,-132 -98,-152 l -25,-38 h -169 -169 l 39,29 c 61,45 81,70 197,253 39,63 43,78 27,94 -7,7 26,32 98,77 60,37 185,119 277,182 93,63 170,113 173,111 2,-3 -14,-28 -35,-58 z m -586,-380 c -14,-24 -53,-83 -87,-133 -34,-49 -74,-109 -88,-132 l -27,-42 -165,-1 h -164 l 69,45 c 39,25 83,53 98,62 16,10 106,68 200,130 95,62 176,112 180,113 5,0 -2,-19 -16,-42 z"
       id="path11" />
    <path
       d="m 19482,3267 c -11,-12 -29,-40 -38,-62 -9,-22 -75,-119 -147,-215 -158,-211 -251,-353 -316,-480 -50,-96 -76,-170 -61,-170 12,0 55,60 96,136 72,131 170,280 308,464 76,102 149,208 163,235 13,28 36,60 50,71 14,12 22,27 19,33 -12,19 -51,12 -74,-12 z"
       id="path12" />
    <path
       d="m 2737,5492 c -10,-11 -26,-41 -36,-68 -59,-154 -168,-399 -171,-384 -1,3 -10,37 -21,75 -11,39 -31,112 -44,164 -14,51 -30,111 -35,132 -8,28 -16,39 -30,39 -19,0 -36,-32 -26,-49 3,-5 19,-60 35,-122 79,-300 96,-341 135,-326 18,7 144,281 203,442 8,21 23,45 34,53 26,18 21,56 -7,60 -11,2 -28,-6 -37,-16 z"
       id="path13" />
    <path
       d="m 12737,5473 c -61,-47 -134,-155 -223,-332 -46,-93 -84,-174 -84,-180 0,-6 -4,-11 -10,-11 -6,0 -10,44 -10,113 0,102 -12,246 -25,305 -7,30 -43,30 -50,-1 -3,-12 -1,-43 4,-67 6,-25 11,-112 11,-193 0,-163 10,-202 56,-213 18,-5 32,0 50,17 13,12 24,27 24,32 0,16 158,325 191,375 18,26 48,64 67,84 28,30 38,35 50,26 18,-15 33,7 30,42 -4,35 -36,37 -81,3 z"
       id="path14" />
    <path
       d="m 716,5334 c -3,-9 -6,-81 -6,-160 0,-83 -5,-154 -11,-165 -14,-26 -2,-59 21,-59 26,0 50,37 50,76 0,86 126,254 190,254 29,0 50,-78 50,-186 0,-78 3,-104 15,-114 12,-10 18,-10 30,0 8,7 15,17 15,22 0,17 102,143 131,161 l 29,19 v -97 c 0,-220 56,-257 247,-159 51,27 93,54 93,61 0,29 -35,24 -113,-15 -95,-48 -141,-60 -153,-41 -5,8 -11,68 -15,135 -7,134 -17,164 -55,164 -33,0 -108,-52 -138,-96 l -24,-35 -7,62 c -19,161 -88,210 -187,135 -25,-19 -59,-52 -76,-73 l -31,-38 -1,67 c 0,79 -6,98 -30,98 -10,0 -21,-7 -24,-16 z"
       id="path15" />
    <path
       d="m 9101,5256 c -8,-9 -8,-21 0,-45 11,-30 8,-106 -7,-194 -7,-39 7,-67 32,-67 19,0 44,52 44,92 0,40 20,65 82,107 53,36 92,40 108,12 13,-26 13,-84 -2,-116 -9,-21 -9,-29 4,-42 20,-19 34,-11 52,30 32,78 169,167 257,167 34,0 38,-3 58,-49 11,-27 21,-66 21,-87 0,-40 18,-112 33,-131 11,-16 43,-17 52,-3 4,6 2,17 -4,24 -6,7 -17,52 -25,102 -25,152 -53,194 -133,194 -58,0 -169,-42 -207,-79 -35,-34 -46,-38 -46,-17 0,8 -12,29 -27,46 -24,30 -31,32 -73,28 -32,-3 -64,-16 -101,-41 l -54,-36 -7,45 c -9,65 -33,89 -57,60 z"
       id="path16" />
    <path
       d="m 11476,5234 c -3,-8 -1,-24 4,-34 18,-33 12,-175 -10,-237 -23,-65 -19,-96 13,-91 14,2 25,16 35,48 17,51 61,116 124,182 52,55 89,78 123,78 23,0 25,-3 25,-46 0,-35 -6,-54 -25,-76 -33,-40 -42,-76 -22,-95 23,-24 40,-11 75,55 33,61 74,101 145,141 65,36 67,33 67,-77 0,-53 -4,-111 -9,-129 -12,-40 8,-74 35,-58 21,14 27,54 28,188 1,103 0,110 -23,128 -13,10 -32,19 -43,19 -22,0 -90,-30 -133,-60 -38,-26 -45,-25 -45,3 0,56 -73,74 -145,36 -22,-11 -63,-43 -91,-71 l -51,-49 -7,55 c -3,30 -11,67 -18,81 -13,28 -43,33 -52,9 z"
       id="path17" />
    <path
       d="m 7685,5200 c -16,-26 15,-30 251,-30 228,0 245,1 242,18 -3,16 -24,17 -245,20 -156,1 -244,-1 -248,-8 z"
       id="path18" />
    <path
       d="m 2884,5081 c -30,-14 -51,-34 -78,-77 -20,-33 -35,-67 -32,-76 2,-10 -1,-18 -6,-18 -16,0 -2,-97 17,-127 30,-45 115,-66 167,-42 27,13 86,89 98,127 5,15 11,57 14,94 6,64 5,68 -25,102 -26,31 -37,36 -73,36 -22,0 -59,-9 -82,-19 z m 108,-38 c 13,-11 18,-30 18,-67 0,-75 -15,-118 -58,-164 -36,-39 -40,-41 -73,-32 -43,12 -55,29 -64,86 -5,37 -2,52 18,87 38,65 76,94 136,106 3,1 13,-6 23,-16 z"
       id="path19" />
    <path
       d="m 10975,5070 c -138,-6 -191,-19 -182,-43 4,-13 18,-13 187,-3 151,9 170,13 200,36 l 25,20 -45,-2 c -25,-1 -108,-4 -185,-8 z"
       id="path20" />
    <path
       d="m 6906,5063 c -4,-5 -339,-10 -744,-13 -646,-4 -737,-7 -737,-20 0,-13 84,-15 685,-17 765,-3 1185,10 1185,37 0,13 -29,15 -191,18 -104,1 -194,-1 -198,-5 z"
       id="path21" />
    <path
       d="m 7780,4950 c 0,-21 2,-21 204,-18 112,2 208,6 212,11 18,18 -20,22 -212,25 -202,3 -204,3 -204,-18 z"
       id="path22" />
    <path
       d="m 10342,4958 c -7,-7 -12,-32 -12,-57 -1,-26 -7,-64 -15,-86 -8,-22 -15,-49 -15,-61 0,-11 -7,-42 -16,-68 -15,-43 -15,-49 -1,-63 20,-20 34,-10 53,35 8,20 24,47 36,59 19,20 23,21 47,9 28,-14 130,-28 226,-30 47,-1 60,2 63,15 2,12 -20,18 -123,33 -179,24 -185,28 -107,72 63,36 102,73 102,97 0,17 -5,19 -41,14 -34,-4 -54,-17 -107,-69 -51,-50 -63,-58 -58,-38 28,99 10,180 -32,138 z"
       id="path23" />
    <path
       d="m 12730,4916 c -43,-34 -83,-97 -112,-176 -31,-85 -31,-98 -2,-125 25,-23 35,-25 119,-25 116,0 144,16 192,110 73,143 28,250 -105,250 -41,0 -57,-6 -92,-34 z m 158,-39 c 31,-29 28,-77 -10,-154 -36,-73 -64,-93 -132,-93 -65,0 -96,14 -96,44 0,14 5,28 10,31 6,3 10,15 10,25 0,10 16,39 35,64 19,26 35,50 35,54 0,11 41,48 60,54 25,8 64,-4 88,-25 z"
       id="path24" />
    <path
       d="m 1882,4798 c -8,-8 -12,-48 -12,-115 0,-102 -7,-133 -43,-186 -23,-34 -19,-40 20,-27 53,19 77,78 81,203 3,75 1,112 -8,122 -15,18 -22,19 -38,3 z"
       id="path25" />
    <path
       d="m 3195,4778 c -2,-7 -14,-56 -26,-108 -13,-61 -36,-123 -62,-172 -23,-42 -38,-80 -34,-84 12,-13 60,30 91,82 29,49 87,257 78,282 -2,6 -13,12 -23,12 -11,0 -22,-6 -24,-12 z"
       id="path26" />
    <path
       d="m 16710,4620 c -8,-5 -31,-10 -51,-10 -58,0 -73,-32 -90,-190 -5,-47 -21,-127 -35,-178 -27,-102 -25,-135 9,-130 14,2 24,13 29,33 33,133 28,124 78,130 61,8 172,34 189,44 11,7 9,12 -9,21 -18,9 -36,10 -74,2 -28,-6 -70,-14 -94,-17 l -42,-7 6,89 c 4,48 12,104 18,123 10,32 15,35 61,43 28,4 86,11 130,15 61,5 80,10 80,22 0,12 -18,15 -95,18 -52,1 -102,-2 -110,-8 z"
       id="path27" />
    <path
       d="m 6049,4534 c -54,-16 -78,-39 -61,-56 8,-8 25,-7 64,5 85,26 177,32 221,14 57,-24 50,-47 -40,-115 -88,-67 -128,-108 -137,-137 -7,-23 0,-35 34,-58 49,-34 285,-13 349,30 l 26,18 -30,4 c -16,1 -75,-5 -130,-14 -104,-18 -184,-13 -192,12 -3,7 26,36 63,65 130,103 147,122 146,157 -2,66 -52,91 -179,90 -48,0 -109,-7 -134,-15 z"
       id="path28" />
    <path
       d="m 19683,4498 c -33,-7 -43,-14 -43,-29 0,-19 4,-20 73,-12 39,4 134,8 210,7 140,0 168,9 112,34 -31,14 -290,14 -352,0 z"
       id="path29" />
    <path
       d="m 20400,4490 c 0,-20 7,-20 346,-20 330,0 434,7 434,31 0,5 -172,9 -390,9 -383,0 -390,0 -390,-20 z"
       id="path30" />
    <path
       d="m 18775,4479 c -16,-24 18,-29 181,-27 142,3 169,5 169,18 0,13 -27,15 -172,18 -118,2 -174,-1 -178,-9 z"
       id="path31" />
    <path
       d="m 17765,4456 c -41,-8 -60,-16 -60,-26 0,-17 13,-17 257,-3 150,8 180,14 164,31 -13,12 -297,11 -361,-2 z"
       id="path32" />
    <path
       d="m 21361,4377 c -6,-8 -15,-46 -20,-83 -8,-68 -1,-114 18,-114 19,0 29,35 32,119 4,85 -5,108 -30,78 z"
       id="path33" />
    <path
       d="m 1150,4340 c -8,-5 -43,-10 -77,-10 -77,0 -171,-24 -197,-49 -10,-11 -23,-41 -28,-68 -5,-26 -13,-70 -19,-98 -5,-27 -13,-81 -19,-120 -5,-38 -14,-97 -20,-130 -19,-112 -22,-144 -16,-169 9,-36 44,-35 51,2 3,15 10,43 15,62 5,19 12,60 15,91 l 6,57 75,11 c 41,6 89,11 107,11 18,0 39,5 47,10 13,9 13,11 0,20 -19,12 -145,13 -188,1 -31,-9 -32,-9 -32,19 0,46 39,263 49,273 14,14 130,36 192,37 42,0 63,5 80,20 21,17 22,21 9,30 -19,12 -31,12 -50,0 z"
       id="path34" />
    <path
       d="m 21218,4323 c -6,-16 -23,-68 -39,-118 -105,-338 -317,-967 -374,-1110 -79,-198 -139,-310 -351,-655 -53,-86 -78,-139 -70,-147 13,-13 49,25 98,104 98,158 245,407 276,468 83,166 250,635 422,1185 28,91 60,190 71,221 24,70 24,79 -1,79 -13,0 -25,-10 -32,-27 z"
       id="path35" />
    <path
       d="m 16921,4173 c -35,-71 -91,-232 -85,-247 10,-27 44,-19 55,12 l 10,29 106,-28 c 75,-19 114,-24 130,-18 13,5 23,11 23,14 0,10 -60,32 -135,50 -38,10 -72,19 -74,21 -8,7 28,32 92,62 68,33 88,55 70,73 -12,12 -88,-11 -140,-41 -39,-23 -39,-21 -13,30 26,51 26,80 0,80 -13,0 -26,-13 -39,-37 z"
       id="path36" />
    <path
       d="m 20776,4077 c -9,-7 -27,-29 -39,-49 -12,-19 -33,-53 -47,-74 -15,-22 -39,-68 -54,-104 -89,-204 -362,-737 -426,-830 -10,-14 -76,-128 -147,-255 -71,-126 -142,-249 -156,-272 -15,-24 -27,-45 -27,-48 0,-3 -20,-41 -45,-85 -46,-81 -56,-120 -30,-120 15,0 59,60 94,127 31,62 125,206 145,222 9,8 14,21 11,31 -5,17 24,70 254,468 93,161 251,471 341,669 40,87 85,175 101,195 16,20 29,41 29,46 0,5 9,21 21,36 32,40 14,71 -25,43 z"
       id="path37" />
    <path
       d="m 2223,4021 c -46,-22 -63,-36 -63,-50 0,-32 17,-33 62,-5 58,37 121,42 181,16 l 47,-21 -6,-48 c -3,-26 -10,-61 -15,-78 -16,-56 -22,-200 -10,-223 23,-44 141,-12 141,38 0,29 -18,33 -46,11 -15,-12 -31,-21 -35,-21 -19,0 -8,155 20,275 l 7,30 134,6 c 125,6 210,22 195,38 -4,3 -79,6 -168,6 -148,0 -167,2 -222,24 -93,37 -148,38 -222,2 z"
       id="path38" />
    <path
       d="m 21314,3926 c -11,-46 0,-414 14,-428 30,-30 37,8 40,209 4,217 1,243 -28,243 -12,0 -22,-9 -26,-24 z"
       id="path39" />
    <path
       d="m 9970,3780 c -8,-5 -38,-10 -67,-10 -75,0 -100,-14 -117,-69 -40,-124 -91,-601 -70,-655 8,-21 40,-21 48,0 3,9 6,58 6,110 0,51 5,125 12,164 l 12,70 h 108 c 101,0 108,1 108,20 0,19 -7,20 -111,20 h -111 l 7,33 c 3,17 10,57 15,87 10,65 25,128 35,152 9,24 26,27 134,30 69,2 95,7 99,17 12,31 -71,55 -108,31 z"
       id="path40" />
    <path
       d="m 1142,3658 c -5,-7 -12,-67 -16,-133 -4,-66 -9,-139 -12,-162 -5,-35 -3,-44 11,-49 10,-4 26,-2 36,4 12,8 26,8 47,1 45,-15 157,-8 157,11 0,11 -18,17 -70,23 -38,4 -74,12 -79,17 -10,10 17,58 46,78 91,65 144,139 98,136 -13,-1 -82,-43 -147,-90 -23,-16 -23,-16 -23,68 0,95 -18,132 -48,96 z"
       id="path41" />
    <path
       d="m 1603,3318 c -6,-7 -13,-43 -17,-80 -4,-37 -15,-91 -25,-120 -31,-86 -45,-138 -39,-144 3,-3 17,5 31,18 51,45 116,288 87,323 -15,18 -24,19 -37,3 z"
       id="path42" />
    <path
       d="m 9962,3218 c -5,-7 -15,-38 -21,-68 -6,-30 -21,-86 -32,-123 -23,-75 -20,-100 13,-95 14,2 25,15 35,42 7,22 14,41 16,42 2,2 25,-8 52,-21 40,-20 66,-24 130,-25 85,0 122,12 95,30 -8,5 -38,10 -66,10 -28,0 -74,7 -103,16 -48,14 -52,17 -38,32 8,9 17,26 18,36 3,11 18,24 37,30 36,13 53,32 45,53 -9,23 -49,14 -102,-22 -54,-37 -57,-36 -40,14 16,44 -13,80 -39,49 z"
       id="path43" />
    <path
       d="m 5511,3161 c -6,-4 -12,-16 -12,-27 -1,-32 21,-161 37,-216 8,-29 19,-80 25,-113 32,-172 34,-179 63,-190 30,-10 41,-1 52,45 6,25 16,48 112,250 56,117 107,190 134,190 21,0 30,13 22,34 -7,19 -54,21 -76,4 -29,-23 -98,-135 -138,-224 -72,-159 -94,-197 -102,-177 -3,10 -7,35 -7,55 -1,20 -6,49 -12,65 -18,47 -49,204 -49,249 0,45 -23,71 -49,55 z"
       id="path44" />
    <path
       d="m 7975,3139 c -28,-25 -125,-176 -125,-196 0,-2 -20,-46 -44,-96 -24,-51 -46,-102 -50,-114 -4,-13 -11,-23 -15,-23 -9,0 -75,214 -111,358 -8,30 -16,42 -29,42 -11,0 -22,-8 -25,-17 -11,-28 89,-368 127,-431 15,-26 25,-32 45,-30 21,2 30,16 57,78 126,291 194,410 235,410 22,0 40,19 33,36 -9,25 -60,16 -98,-17 z"
       id="path45" />
    <path
       d="m 10875,3052 c -38,-23 -58,-60 -53,-98 4,-35 41,-42 46,-9 13,82 96,106 232,65 l 67,-20 -30,-59 c -32,-65 -54,-196 -43,-256 11,-55 39,-68 140,-64 65,3 89,8 105,23 12,11 21,23 21,28 0,11 -43,10 -77,-3 -16,-6 -50,-8 -82,-4 l -53,7 4,91 c 4,74 10,104 34,156 l 29,63 166,2 c 164,1 166,1 208,29 24,16 41,30 39,32 -2,2 -35,-1 -73,-8 -133,-22 -310,-10 -455,33 -60,17 -191,13 -225,-8 z"
       id="path46" />
    <path
       d="m 8802,2938 c -7,-7 -12,-40 -12,-80 v -67 l -72,-3 c -57,-2 -73,-6 -73,-18 0,-12 16,-16 73,-18 l 72,-3 v -37 c 0,-55 10,-82 30,-82 20,0 30,27 30,82 v 37 l 103,3 c 83,2 102,6 102,18 0,12 -19,16 -102,18 l -103,3 v 67 c 0,61 -10,92 -30,92 -3,0 -11,-5 -18,-12 z"
       id="path47" />
    <path
       d="m 9645,2860 c -3,-5 -3,-14 0,-20 4,-6 166,-10 452,-10 445,0 446,0 428,20 -18,19 -31,20 -446,20 -274,0 -430,-4 -434,-10 z"
       id="path48" />
    <path
       d="m 6700,2810 c 0,-19 7,-20 219,-20 121,0 226,3 235,6 9,3 16,12 16,20 0,12 -41,14 -235,14 -228,0 -235,-1 -235,-20 z"
       id="path49" />
    <path
       d="m 5871,2696 c -7,-8 -16,-64 -20,-123 -5,-66 -15,-121 -25,-140 -33,-65 17,-89 54,-26 l 22,37 14,-32 c 18,-43 65,-62 151,-62 68,0 119,16 112,35 -2,6 -40,10 -84,11 -100,0 -125,8 -125,38 0,24 83,108 128,129 12,5 22,18 22,29 0,41 -122,5 -189,-56 l -23,-21 3,95 c 3,80 2,95 -12,98 -9,1 -21,-4 -28,-12 z"
       id="path50" />
    <path
       d="m 6913,2673 c -105,-3 -113,-5 -113,-23 0,-19 7,-20 123,-19 119,1 199,14 201,34 1,11 -45,13 -211,8 z"
       id="path51" />
    <path
       d="m 7978,2652 c -120,-56 -157,-176 -68,-224 50,-26 192,-26 237,2 41,25 50,43 58,116 7,55 5,63 -17,89 -22,25 -32,28 -99,31 -55,3 -83,-1 -111,-14 z m 147,-37 c 23,-5 25,-10 25,-60 0,-57 -19,-87 -63,-101 -35,-11 -144,6 -162,25 -15,17 -14,22 13,67 22,38 38,53 73,66 24,9 54,15 67,12 12,-2 33,-6 47,-9 z"
       id="path52" />
    <path
       d="m 9803,2638 c -24,-11 -30,-32 -14,-43 5,-3 31,-1 57,5 59,14 104,-1 104,-34 0,-16 -18,-34 -64,-64 -35,-23 -68,-42 -73,-42 -4,0 -32,-21 -61,-46 -43,-37 -52,-52 -50,-73 3,-26 3,-26 108,-26 124,0 190,17 233,60 29,29 30,30 9,33 -11,2 -31,-2 -43,-8 -42,-23 -154,-50 -204,-50 l -50,1 40,34 c 22,19 43,35 47,35 21,0 150,95 158,115 13,35 -7,83 -41,100 -32,17 -124,19 -156,3 z"
       id="path53" />
    <path
       d="m 3428,2624 c -20,-19 -2092,-38 -2613,-24 -156,4 -180,3 -180,-10 0,-25 147,-31 915,-36 891,-7 2042,18 2114,46 20,8 19,9 -7,19 -29,11 -219,16 -229,5 z"
       id="path54" />
    <path
       d="m 10385,2620 c -11,-4 -36,-21 -55,-38 -34,-29 -34,-29 -51,-8 -27,33 -49,6 -49,-59 0,-31 -8,-73 -20,-100 -15,-36 -17,-51 -9,-66 23,-43 55,-10 79,80 9,33 27,59 67,98 31,29 62,53 69,53 20,0 17,-39 -5,-84 -11,-21 -17,-44 -14,-52 11,-29 73,-7 73,27 0,38 101,109 155,109 24,0 25,-3 25,-52 0,-70 30,-124 60,-108 11,6 18,16 14,22 -4,5 -10,44 -15,86 -6,54 -14,81 -26,89 -26,20 -83,15 -141,-12 l -53,-24 -9,24 c -8,20 -16,25 -42,24 -18,0 -42,-4 -53,-9 z"
       id="path55" />
    <path
       d="m 24782,2288 c -19,-23 -88,-173 -123,-266 -32,-89 -35,-92 -69,-98 -61,-10 -70,-15 -70,-36 0,-19 4,-20 45,-15 53,8 53,9 21,-93 -30,-94 -43,-237 -26,-271 18,-33 29,-39 73,-39 30,0 44,7 75,38 44,44 56,76 36,93 -11,9 -19,5 -36,-16 -46,-55 -58,-65 -78,-65 -18,0 -20,7 -20,80 0,57 7,101 25,157 14,43 25,85 25,93 1,35 18,42 124,50 111,9 166,22 201,47 18,13 6,14 -95,8 -63,-3 -134,-8 -157,-11 -24,-3 -43,-1 -43,4 0,15 66,175 100,242 31,61 36,100 14,107 -6,2 -16,-2 -22,-9 z"
       id="path56" />
    <path
       d="m 2712,2095 c -87,-27 -132,-73 -132,-135 0,-46 31,-39 55,12 24,51 63,76 137,87 38,7 62,5 86,-5 28,-11 32,-17 32,-52 0,-46 -40,-98 -131,-168 -33,-25 -66,-60 -74,-77 -9,-18 -26,-50 -39,-71 -33,-53 -44,-147 -22,-181 9,-14 25,-25 35,-25 16,0 18,7 13,68 -5,71 -7,65 59,182 8,15 43,50 76,78 72,60 132,128 139,159 4,12 0,42 -7,65 -11,33 -22,47 -49,60 -41,21 -117,22 -178,3 z"
       id="path57" />
    <path
       d="m 1274,1978 c 3,-29 10,-109 15,-178 11,-148 27,-288 40,-348 16,-78 71,-107 97,-52 62,128 99,212 125,282 49,134 99,228 126,239 16,6 23,15 21,27 -5,26 -46,27 -73,2 -29,-27 -83,-136 -124,-246 -16,-45 -49,-123 -74,-172 l -44,-91 -11,77 c -7,42 -16,140 -22,217 -6,77 -15,175 -22,218 -11,72 -13,77 -36,77 -23,0 -24,-2 -18,-52 z"
       id="path58" />
    <path
       d="m 21205,1909 c -70,-50 -112,-139 -65,-139 11,0 26,12 34,28 18,34 64,78 91,86 28,8 127,-30 103,-39 -10,-4 -33,-37 -51,-74 -44,-88 -57,-192 -31,-247 30,-62 139,-95 192,-58 36,25 26,34 -37,34 -44,0 -65,5 -85,21 -23,18 -26,27 -26,88 0,58 5,79 36,140 20,40 33,79 30,88 -5,12 -2,13 11,7 10,-4 74,-9 143,-11 112,-4 128,-2 158,16 47,30 42,46 -10,35 -82,-17 -236,-7 -312,21 -86,31 -141,32 -181,4 z"
       id="path59" />
    <path
       d="m 17226,1819 c -47,-53 -76,-123 -76,-186 0,-37 7,-41 26,-15 11,15 13,6 14,-62 0,-69 3,-83 26,-113 23,-31 29,-33 82,-33 72,0 105,21 143,90 56,103 76,237 44,304 -24,50 -59,66 -144,66 h -69 z m 197,-19 c 27,-25 32,-88 13,-163 -29,-113 -81,-187 -133,-187 -44,0 -53,23 -53,133 0,116 16,173 51,191 13,6 25,22 27,34 3,20 7,22 40,16 20,-3 45,-14 55,-24 z"
       id="path60" />
    <path
       d="m 2020,1530 c 0,-20 4,-20 143,-18 118,3 142,5 142,18 0,13 -24,15 -142,18 -139,2 -143,2 -143,-18 z"
       id="path61" />
    <path
       d="m 1602,1498 c -7,-7 -12,-42 -12,-85 0,-47 -7,-95 -20,-133 -11,-32 -17,-66 -14,-74 16,-42 74,5 74,60 v 27 l 23,-21 c 19,-18 35,-22 88,-22 71,0 105,13 79,30 -8,5 -35,10 -60,10 -94,1 -90,29 16,119 35,30 63,60 61,65 -2,6 -25,11 -50,10 -38,0 -52,-6 -89,-39 l -43,-40 -3,40 c -5,57 -25,78 -50,53 z"
       id="path62" />
    <path
       d="m 2687,1183 c -13,-12 -7,-23 23,-38 40,-21 70,-19 70,3 0,13 -12,22 -39,30 -45,14 -46,14 -54,5 z"
       id="path63" />
    <path
       d="m 19570,783 c -40,-13 -88,-39 -119,-62 -50,-38 -90,-143 -59,-153 13,-5 3,-64 -52,-302 -24,-108 -25,-135 -5,-143 22,-8 24,-4 41,68 9,35 24,98 34,139 10,41 21,91 24,110 l 6,35 h 103 c 103,0 104,0 159,37 73,48 93,89 85,176 -9,92 -21,102 -121,101 -45,0 -88,-3 -96,-6 z m 158,-108 c 3,-78 -5,-93 -70,-133 -47,-29 -159,-40 -181,-17 -22,21 -21,26 7,109 20,60 28,71 60,87 39,19 86,27 146,25 l 35,-1 z"
       id="path64" />
    <path
       d="m 18996,728 c -9,-12 -16,-30 -16,-39 0,-9 -6,-22 -14,-28 -8,-7 -17,-22 -20,-35 -3,-13 -21,-49 -40,-80 -40,-66 -53,-113 -37,-129 16,-16 54,8 71,46 73,167 130,265 130,223 0,-34 32,-76 100,-136 l 71,-60 -73,-1 c -99,0 -203,-21 -203,-40 0,-15 23,-16 222,-3 114,7 131,16 112,58 -7,14 -20,28 -29,31 -34,11 -139,119 -145,150 -11,52 -20,60 -68,63 -38,3 -48,-1 -61,-20 z"
       id="path65" />
  </g>
  <g
     id="logo"
     transform="matrix(0.8161748,0,0,0.8161748,1239.9671,441.2084)">
    <g
       transform="matrix(0.1,0,0,-0.1,-57.706759,297.53739)"
       fill="#4444bb"
       stroke="none"
       id="g73">
      <path
         d="m 750,2973 c -57,-10 -88,-25 -119,-57 -40,-41 -55,-100 -46,-179 6,-45 12,-61 32,-77 32,-25 35,-25 64,-1 22,17 24,26 21,89 -4,105 24,120 164,87 33,-7 119,-19 190,-25 88,-8 134,-16 144,-26 32,-32 8,-420 -28,-456 -18,-18 -126,-28 -289,-28 -185,0 -206,-4 -250,-52 -55,-58 -58,-82 -55,-363 1,-145 7,-274 13,-293 11,-34 51,-62 89,-62 12,0 35,14 52,31 l 31,30 -6,238 c -3,130 -3,249 0,264 l 5,27 h 112 c 234,1 363,26 423,82 58,54 98,260 91,463 -4,122 -7,138 -34,191 -40,81 -79,100 -217,108 -174,10 -361,14 -387,9 z"
         fill="#4444bb"
         id="path66" />
      <path
         d="m 3660,2971 c -42,-9 -83,-34 -103,-65 -39,-59 -50,-127 -54,-343 -5,-206 -5,-212 18,-252 28,-50 78,-86 143,-102 48,-12 257,-8 370,7 l 49,7 -7,-104 c -4,-57 -11,-189 -16,-294 -9,-177 -9,-192 8,-214 35,-47 100,-46 136,2 22,29 27,86 42,452 7,191 0,235 -44,283 -45,48 -92,56 -241,38 -146,-18 -229,-20 -265,-6 l -26,10 v 162 c 0,156 8,230 27,249 5,5 99,6 210,2 l 201,-6 5,-50 c 3,-39 11,-56 31,-74 34,-29 48,-29 80,0 24,20 26,30 28,113 4,147 -23,169 -218,179 -242,11 -340,13 -374,6 z"
         fill="#4444bb"
         id="path67" />
      <path
         d="m 1565,2945 c -14,-13 -25,-32 -25,-42 0,-10 -1,-297 -3,-638 -2,-677 -3,-662 55,-694 33,-19 73,-7 101,31 18,24 20,51 29,300 5,150 10,278 12,283 2,6 37,8 97,3 52,-3 135,-7 186,-7 154,-2 161,-10 143,-176 -21,-189 -27,-310 -18,-343 12,-45 45,-72 86,-72 71,0 102,46 102,151 0,33 7,118 16,187 24,190 9,280 -58,349 -50,52 -112,67 -263,65 -71,-1 -164,-6 -205,-11 -41,-4 -78,-7 -81,-5 -4,2 -10,108 -13,236 -9,286 -17,352 -47,384 -31,33 -82,32 -114,-1 z"
         fill="#4444bb"
         id="path68" />
      <path
         d="m 2542,2944 c -55,-38 -64,-109 -53,-419 6,-186 9,-215 28,-250 50,-95 116,-125 302,-135 75,-4 171,-5 215,-1 l 78,7 -4,-178 c -2,-97 -7,-181 -11,-184 -4,-4 -42,1 -85,11 -104,26 -285,27 -363,3 -106,-33 -149,-107 -99,-170 26,-34 68,-41 132,-21 74,23 202,20 308,-7 182,-47 274,5 301,168 12,77 27,831 19,994 -7,152 -20,181 -86,186 -88,7 -103,-51 -104,-401 v -219 l -201,4 c -197,3 -201,3 -220,27 -18,21 -19,42 -19,283 v 260 l -29,29 c -33,33 -74,38 -109,13 z"
         fill="#4444bb"
         id="path69" />
      <path
         d="m 2374,1391 c -55,-34 -79,-78 -79,-147 0,-51 4,-66 27,-96 35,-45 102,-73 153,-64 78,15 146,111 131,188 -20,108 -145,172 -232,119 z"
         fill="#4444bb"
         id="path70" />
      <path
         d="m 1853,999 c -39,-11 -66,-56 -61,-101 6,-59 69,-64 76,-6 4,30 34,38 145,38 h 67 V 820 c 0,-135 -1,-136 -132,-126 -85,6 -89,6 -113,-18 -24,-25 -25,-28 -25,-179 0,-162 4,-177 47,-177 35,0 43,29 43,159 v 121 h 73 c 85,0 141,14 168,41 17,17 19,34 19,169 0,147 -1,152 -25,175 -23,24 -30,25 -137,24 -62,0 -128,-5 -145,-10 z"
         fill="#4444bb"
         id="path71" />
      <path
         d="m 2985,1000 c -91,-16 -93,-18 -104,-58 -15,-51 -14,-537 0,-564 19,-36 69,-48 204,-48 121,0 127,1 151,25 l 24,24 -2,292 -3,292 -26,19 c -31,23 -161,33 -244,18 z m 169,-86 c 14,-5 16,-37 16,-250 V 419 l -102,3 -103,3 v 240 240 l 40,6 c 57,9 131,10 149,3 z"
         fill="#4444bb"
         id="path72" />
      <path
         d="m 2351,971 c -24,-24 -29,-73 -37,-372 -6,-232 -6,-237 15,-258 23,-23 29,-25 51,-11 12,7 16,40 20,150 l 5,141 35,-23 c 19,-13 59,-55 88,-93 30,-39 78,-96 108,-128 47,-51 56,-57 74,-47 29,16 25,42 -15,92 -19,24 -62,78 -95,121 -61,77 -61,77 -33,77 15,0 46,9 69,19 56,26 67,57 62,179 -6,156 -27,172 -220,172 -93,0 -111,-3 -127,-19 z m 257,-74 c 16,-13 17,-168 0,-185 -7,-7 -41,-12 -84,-12 -40,0 -84,-4 -98,-10 l -26,-10 v 120 119 l 98,-6 c 53,-3 103,-10 110,-16 z"
         fill="#4444bb"
         id="path73" />
    </g>
  </g>
</svg>
