<?xml version="1.0" standalone="no"?>
<!DOCTYPE svg PUBLIC "-//W3C//DTD SVG 20010904//EN"
 "http://www.w3.org/TR/2001/REC-SVG-20010904/DTD/svg10.dtd">
<svg version="1.0" xmlns="http://www.w3.org/2000/svg"
 width="271.553498pt" height="225.500000pt" viewBox="0 0 271.553498 225.500000"
 preserveAspectRatio="xMidYMid meet">
<metadata>
Created by potrace 1.16, written by Peter Selinger 2001-2019
</metadata>
<g transform="translate(-40.065263,262.500000) scale(0.100000,-0.100000)"
fill="#000000" stroke="none">
<path d="M1194 2620 l-29 -5 -2 -125 c-1 -69 -2 -164 -3 -212 l0 -88 -30 0
c-37 0 -105 -31 -149 -68 -51 -43 -61 -138 -20 -188 8 -10 6 -24 -11 -59 -24
-51 -22 -102 7 -131 15 -15 15 -18 -2 -47 -24 -40 -24 -121 0 -147 15 -17 15
-20 -1 -51 -20 -41 -20 -113 1 -146 13 -19 14 -28 5 -38 -29 -35 -29 -155 0
-155 15 0 12 -28 -7 -56 -21 -33 -21 -105 0 -138 15 -22 15 -28 2 -53 -30 -57
-10 -161 34 -178 9 -3 36 -16 61 -30 25 -13 57 -24 72 -24 15 -1 29 -5 32 -10
3 -5 6 -67 7 -138 0 -70 3 -136 5 -145 5 -17 38 -18 518 -18 417 0 516 3 525
13 7 10 12 161 13 498 l3 484 177 3 c164 2 178 4 188 22 8 15 6 21 -7 28 -17
9 -686 6 -710 -2 -6 -3 -9 -14 -6 -25 5 -20 12 -21 153 -21 l147 0 -1 -472 -1
-473 -472 -3 -473 -3 0 140 c0 77 -3 146 -6 155 -4 11 -19 16 -48 16 -50 0
-137 39 -160 71 -20 29 -21 73 -2 88 11 9 26 8 65 -5 114 -37 327 4 319 61 -4
26 -61 53 -139 66 -67 11 -117 6 -188 -18 -41 -14 -46 -14 -58 3 -19 26 -16
68 6 88 17 16 22 16 56 2 56 -24 181 -21 249 5 61 22 70 31 61 57 -17 52 -197
79 -298 45 l-58 -20 -14 21 c-19 27 -19 70 0 86 12 10 25 9 64 -4 57 -18 172
-21 222 -5 66 21 100 43 97 63 -10 63 -247 95 -338 46 -46 -25 -79 23 -53 75
9 17 16 31 18 32 1 2 34 -5 73 -15 86 -22 188 -15 251 17 62 32 55 56 -23 86
-66 24 -196 25 -251 1 -39 -17 -40 -17 -57 5 -22 26 -23 72 -3 89 11 9 22 9
52 -1 54 -18 61 -19 134 -20 99 -1 199 38 199 78 0 8 -26 26 -57 40 -48 22
-71 26 -143 26 -58 0 -99 -6 -129 -18 -42 -18 -44 -18 -57 0 -32 43 -4 113 40
101 102 -30 212 -29 285 1 67 28 68 56 4 86 -61 28 -206 30 -267 4 -44 -19
-50 -17 -72 24 -14 28 -14 33 3 62 22 38 96 77 159 85 35 4 47 10 54 27 5 12
9 107 10 211 0 103 2 190 4 192 2 2 215 4 473 5 l468 2 0 -445 0 -445 -147 -3
c-149 -3 -169 -8 -148 -43 7 -11 70 -13 357 -11 191 1 352 2 356 2 5 0 7 10 5
23 -3 22 -5 22 -185 25 l-183 2 -2 473 -3 472 -496 0 c-272 0 -508 -2 -525 -5z
m44 -686 c57 -16 -11 -40 -78 -29 -67 11 -51 24 40 33 8 1 25 -1 38 -4z m25
-200 c43 -10 19 -25 -50 -31 -53 -5 -142 11 -130 23 6 7 120 22 137 18 8 -2
28 -6 43 -10z m1 -203 c8 -13 -19 -21 -72 -21 -57 0 -94 9 -86 21 7 12 151 12
158 0z m-1 -187 c77 -16 -25 -41 -118 -29 -64 8 -71 21 -17 30 20 4 42 8 47 9
10 3 39 0 88 -10z m11 -203 c3 -5 -4 -11 -17 -15 -49 -13 -162 -2 -151 15 7
12 161 12 168 0z m12 -194 c4 -4 4 -10 0 -14 -10 -11 -156 -10 -181 1 l-20 8
20 9 c23 10 170 7 181 -4z"/>
<path d="M485 1710 c-9 -15 3 -30 26 -30 25 0 24 -10 -14 -170 -33 -133 -34
-135 -65 -145 -35 -10 -41 -22 -16 -27 9 -2 80 -1 158 2 l141 5 13 59 c13 61
8 85 -12 51 -6 -11 -25 -34 -42 -52 -29 -30 -38 -33 -89 -33 l-57 0 6 53 c6
47 59 246 68 251 1 1 16 6 32 11 16 6 29 15 28 20 -3 14 -169 19 -177 5z"/>
<path d="M2925 1703 c-81 -42 -140 -131 -139 -208 1 -73 27 -120 78 -145 72
-34 135 -24 194 33 30 29 43 67 23 67 -5 0 -19 -14 -31 -30 -44 -62 -118 -78
-167 -36 -25 22 -28 30 -27 88 1 47 7 76 27 115 26 50 75 98 107 104 46 9 80
-32 80 -96 0 -46 27 -48 34 -2 14 92 15 117 7 117 -6 0 -13 -4 -16 -10 -4 -6
-17 -4 -35 5 -37 19 -97 19 -135 -2z"/>
</g>
</svg>
